0, 0, Header, 1, 4, 120
1, 0, Start_track
1, 0, Title_t, "I Fall in Love Too Easily"
1, 0, Text_t, "dougmck@pipeline.com.au. Piano solo played in real time. First chorus rubato - in tempo after this -\012"
1, 0, Text_t, " first in even 8th notes style, then eventually into swing feel.\012"
1, 0, Time_signature, 4, 2, 24, 8
1, 0, Key_signature, -3, "major"
1, 0, Tempo, 428571
1, 887, Marker_t, "Easy run to execute - LH plays black notes, RH plays white ones"
1, 1809, Marker_t, "Series of parallel Major chords "
1, 10724, Marker_t, "Melody in Octaves"
1, 25771, Marker_t, "F13 with internal voice -13th drops via b13th to the 5th"
1, 27684, Marker_t, "EbMaj7b6 - from Harmonic Major scale (Eb,F,G,Ab,Bb,Cb,D,Eb)"
1, 29760, Marker_t, "In Tempo - LH and Right hand play independant contrapuntal lines - LH is often on 'ands' while RH is on beat"
1, 49440, Marker_t, "LH starts a walking line "
1, 68378, Marker_t, "Breaking into a rough stride type style"
1, 74400, Marker_t, "Pedal a G under the turn-around chords"
1, 82582, Marker_t, "More Pedalling"
1, 83280, Marker_t, "More using Left and Right Hands alternately - LH plays the lowest note in each little group"
1, 91215, Marker_t, "Left hand crosses over and plays little chord clusters on 'ands' in the treble, while melody plared in bass by RH"
1, 91215, End_track
2, 0, Start_track
2, 0, Title_t, "Solo piano played in real time."
2, 0, Control_c, 0, 64, 127
2, 0, Control_c, 0, 64, 0
2, 27, Note_on_c, 0, 53, 43
2, 28, Note_on_c, 0, 72, 61
2, 123, Control_c, 0, 64, 127
2, 160, Note_on_c, 0, 60, 25
2, 222, Note_on_c, 0, 53, 0
2, 297, Note_on_c, 0, 68, 39
2, 299, Note_on_c, 0, 67, 32
2, 309, Note_on_c, 0, 72, 0
2, 497, Note_on_c, 0, 67, 0
2, 538, Note_on_c, 0, 60, 0
2, 543, Note_on_c, 0, 72, 44
2, 581, Note_on_c, 0, 68, 0
2, 629, Note_on_c, 0, 72, 0
2, 670, Note_on_c, 0, 46, 44
2, 703, Note_on_c, 0, 71, 41
2, 703, Note_on_c, 0, 66, 34
2, 707, Control_c, 0, 64, 0
2, 708, Note_on_c, 0, 62, 30
2, 714, Note_on_c, 0, 56, 19
2, 734, Note_on_c, 0, 66, 0
2, 742, Note_on_c, 0, 67, 40
2, 775, Control_c, 0, 64, 127
2, 794, Note_on_c, 0, 46, 0
2, 804, Note_on_c, 0, 56, 0
2, 821, Note_on_c, 0, 62, 0
2, 861, Note_on_c, 0, 67, 0
2, 882, Note_on_c, 0, 71, 0
2, 910, Note_on_c, 0, 68, 31
2, 924, Note_on_c, 0, 70, 43
2, 932, Note_on_c, 0, 68, 0
2, 938, Note_on_c, 0, 71, 58
2, 945, Note_on_c, 0, 70, 0
2, 961, Note_on_c, 0, 74, 47
2, 973, Note_on_c, 0, 71, 0
2, 987, Note_on_c, 0, 76, 40
2, 992, Note_on_c, 0, 74, 0
2, 998, Note_on_c, 0, 79, 58
2, 999, Note_on_c, 0, 76, 0
2, 1008, Note_on_c, 0, 79, 0
2, 1016, Note_on_c, 0, 80, 51
2, 1028, Note_on_c, 0, 82, 32
2, 1034, Note_on_c, 0, 80, 0
2, 1036, Note_on_c, 0, 83, 56
2, 1042, Note_on_c, 0, 82, 0
2, 1058, Note_on_c, 0, 86, 65
2, 1059, Note_on_c, 0, 83, 0
2, 1071, Note_on_c, 0, 86, 0
2, 1081, Note_on_c, 0, 91, 36
2, 1093, Note_on_c, 0, 91, 0
2, 1120, Note_on_c, 0, 95, 33
2, 1137, Note_on_c, 0, 98, 51
2, 1142, Note_on_c, 0, 95, 0
2, 1148, Note_on_c, 0, 100, 62
2, 1162, Note_on_c, 0, 98, 0
2, 1169, Note_on_c, 0, 103, 71
2, 1170, Note_on_c, 0, 100, 0
2, 1184, Note_on_c, 0, 103, 0
2, 1830, Note_on_c, 0, 64, 36
2, 1831, Note_on_c, 0, 59, 38
2, 1831, Note_on_c, 0, 68, 35
2, 1834, Note_on_c, 0, 47, 32
2, 1834, Note_on_c, 0, 40, 37
2, 1841, Control_c, 0, 64, 0
2, 1855, Control_c, 0, 64, 127
2, 1877, Note_on_c, 0, 47, 0
2, 1884, Note_on_c, 0, 40, 0
2, 1888, Note_on_c, 0, 64, 0
2, 1898, Note_on_c, 0, 68, 0
2, 1924, Note_on_c, 0, 59, 0
2, 2195, Note_on_c, 0, 67, 70
2, 2196, Note_on_c, 0, 59, 68
2, 2197, Note_on_c, 0, 62, 69
2, 2200, Note_on_c, 0, 39, 51
2, 2200, Note_on_c, 0, 55, 58
2, 2201, Note_on_c, 0, 46, 44
2, 2212, Control_c, 0, 64, 0
2, 2265, Control_c, 0, 64, 127
2, 2649, Note_on_c, 0, 55, 0
2, 2656, Note_on_c, 0, 59, 0
2, 2657, Note_on_c, 0, 62, 0
2, 2667, Note_on_c, 0, 39, 0
2, 2672, Note_on_c, 0, 67, 0
2, 2681, Note_on_c, 0, 46, 0
2, 2848, Note_on_c, 0, 68, 48
2, 2851, Note_on_c, 0, 56, 36
2, 2852, Note_on_c, 0, 61, 48
2, 2852, Note_on_c, 0, 40, 36
2, 2853, Note_on_c, 0, 47, 32
2, 2854, Note_on_c, 0, 63, 39
2, 2858, Control_c, 0, 64, 0
2, 2903, Control_c, 0, 64, 127
2, 2931, Note_on_c, 0, 40, 0
2, 2942, Note_on_c, 0, 47, 0
2, 2976, Note_on_c, 0, 56, 0
2, 3142, Note_on_c, 0, 63, 0
2, 3150, Note_on_c, 0, 61, 0
2, 3181, Note_on_c, 0, 68, 0
2, 3359, Note_on_c, 0, 70, 40
2, 3363, Note_on_c, 0, 65, 37
2, 3366, Note_on_c, 0, 42, 33
2, 3367, Note_on_c, 0, 60, 33
2, 3374, Control_c, 0, 64, 0
2, 3436, Control_c, 0, 64, 127
2, 3553, Note_on_c, 0, 42, 0
2, 3564, Note_on_c, 0, 53, 29
2, 3640, Note_on_c, 0, 53, 0
2, 3644, Note_on_c, 0, 54, 38
2, 3647, Note_on_c, 0, 60, 0
2, 3670, Note_on_c, 0, 65, 0
2, 3710, Note_on_c, 0, 70, 0
2, 3724, Note_on_c, 0, 60, 51
2, 3754, Note_on_c, 0, 60, 0
2, 3776, Note_on_c, 0, 65, 43
2, 3827, Note_on_c, 0, 65, 0
2, 3830, Note_on_c, 0, 70, 61
2, 3846, Note_on_c, 0, 60, 24
2, 3855, Note_on_c, 0, 70, 0
2, 3883, Note_on_c, 0, 72, 51
2, 3926, Note_on_c, 0, 54, 0
2, 3931, Note_on_c, 0, 77, 68
2, 3975, Note_on_c, 0, 82, 65
2, 3988, Note_on_c, 0, 54, 33
2, 4007, Note_on_c, 0, 72, 0
2, 4026, Note_on_c, 0, 84, 71
2, 4027, Note_on_c, 0, 77, 0
2, 4028, Note_on_c, 0, 54, 0
2, 4037, Note_on_c, 0, 82, 0
2, 4077, Note_on_c, 0, 60, 0
2, 4083, Note_on_c, 0, 77, 52
2, 4086, Note_on_c, 0, 54, 25
2, 4094, Note_on_c, 0, 84, 0
2, 4130, Note_on_c, 0, 77, 0
2, 4140, Note_on_c, 0, 82, 47
2, 4193, Note_on_c, 0, 82, 0
2, 4209, Note_on_c, 0, 72, 27
2, 4231, Note_on_c, 0, 72, 0
2, 4266, Note_on_c, 0, 70, 35
2, 4278, Note_on_c, 0, 65, 22
2, 4291, Note_on_c, 0, 72, 13
2, 4312, Note_on_c, 0, 72, 0
2, 4334, Note_on_c, 0, 65, 0
2, 4398, Note_on_c, 0, 70, 0
2, 4434, Note_on_c, 0, 70, 27
2, 4434, Note_on_c, 0, 72, 15
2, 4440, Note_on_c, 0, 65, 27
2, 4544, Note_on_c, 0, 60, 19
2, 4578, Note_on_c, 0, 60, 0
2, 4653, Note_on_c, 0, 60, 34
2, 4707, Note_on_c, 0, 60, 0
2, 4776, Note_on_c, 0, 60, 29
2, 4817, Note_on_c, 0, 60, 0
2, 4836, Note_on_c, 0, 65, 0
2, 4856, Note_on_c, 0, 70, 0
2, 4889, Note_on_c, 0, 70, 34
2, 4892, Note_on_c, 0, 65, 36
2, 4901, Note_on_c, 0, 60, 24
2, 4953, Note_on_c, 0, 54, 0
2, 4996, Note_on_c, 0, 54, 37
2, 5004, Note_on_c, 0, 65, 0
2, 5015, Note_on_c, 0, 60, 0
2, 5017, Note_on_c, 0, 72, 0
2, 5032, Note_on_c, 0, 70, 0
2, 5041, Note_on_c, 0, 54, 0
2, 5124, Note_on_c, 0, 80, 52
2, 5131, Note_on_c, 0, 50, 36
2, 5134, Note_on_c, 0, 68, 27
2, 5136, Note_on_c, 0, 72, 24
2, 5142, Note_on_c, 0, 60, 26
2, 5152, Control_c, 0, 64, 0
2, 5223, Note_on_c, 0, 56, 36
2, 5229, Note_on_c, 0, 60, 0
2, 5230, Control_c, 0, 64, 127
2, 5273, Note_on_c, 0, 72, 0
2, 5276, Note_on_c, 0, 80, 0
2, 5284, Note_on_c, 0, 68, 0
2, 5304, Note_on_c, 0, 79, 58
2, 5306, Note_on_c, 0, 67, 59
2, 5310, Note_on_c, 0, 60, 27
2, 5339, Note_on_c, 0, 79, 0
2, 5348, Note_on_c, 0, 60, 0
2, 5349, Note_on_c, 0, 67, 0
2, 5371, Note_on_c, 0, 50, 0
2, 5373, Note_on_c, 0, 56, 0
2, 5391, Note_on_c, 0, 80, 55
2, 5405, Note_on_c, 0, 68, 18
2, 5456, Note_on_c, 0, 68, 0
2, 5456, Note_on_c, 0, 80, 0
2, 5481, Note_on_c, 0, 31, 45
2, 5487, Note_on_c, 0, 79, 50
2, 5487, Note_on_c, 0, 43, 28
2, 5492, Note_on_c, 0, 67, 31
2, 5495, Control_c, 0, 64, 0
2, 5505, Note_on_c, 0, 31, 0
2, 5518, Note_on_c, 0, 43, 0
2, 5526, Control_c, 0, 64, 127
2, 5594, Note_on_c, 0, 59, 47
2, 5665, Note_on_c, 0, 67, 0
2, 5702, Note_on_c, 0, 79, 0
2, 5707, Note_on_c, 0, 63, 35
2, 5714, Note_on_c, 0, 71, 44
2, 5715, Note_on_c, 0, 67, 31
2, 5784, Note_on_c, 0, 63, 0
2, 5823, Note_on_c, 0, 77, 62
2, 5827, Note_on_c, 0, 62, 44
2, 5844, Note_on_c, 0, 62, 0
2, 5848, Note_on_c, 0, 59, 0
2, 5864, Note_on_c, 0, 77, 0
2, 5870, Note_on_c, 0, 71, 0
2, 5918, Note_on_c, 0, 67, 0
2, 5920, Note_on_c, 0, 75, 62
2, 5926, Note_on_c, 0, 48, 34
2, 5946, Control_c, 0, 64, 0
2, 5992, Control_c, 0, 64, 127
2, 5996, Note_on_c, 0, 48, 0
2, 6005, Note_on_c, 0, 55, 40
2, 6063, Note_on_c, 0, 55, 0
2, 6073, Note_on_c, 0, 62, 53
2, 6143, Note_on_c, 0, 63, 64
2, 6217, Note_on_c, 0, 67, 71
2, 6218, Note_on_c, 0, 75, 0
2, 6220, Note_on_c, 0, 62, 0
2, 6238, Note_on_c, 0, 63, 0
2, 6294, Note_on_c, 0, 67, 0
2, 6294, Note_on_c, 0, 74, 66
2, 6369, Note_on_c, 0, 74, 0
2, 6378, Note_on_c, 0, 72, 74
2, 6379, Note_on_c, 0, 45, 51
2, 6387, Control_c, 0, 64, 0
2, 6405, Note_on_c, 0, 45, 0
2, 6427, Control_c, 0, 64, 127
2, 6461, Note_on_c, 0, 73, 62
2, 6472, Note_on_c, 0, 72, 0
2, 6512, Note_on_c, 0, 73, 0
2, 6544, Note_on_c, 0, 77, 61
2, 6544, Note_on_c, 0, 65, 41
2, 6548, Note_on_c, 0, 60, 32
2, 6549, Note_on_c, 0, 61, 32
2, 6550, Note_on_c, 0, 55, 37
2, 6631, Note_on_c, 0, 82, 54
2, 6633, Note_on_c, 0, 77, 0
2, 6651, Note_on_c, 0, 82, 0
2, 6663, Note_on_c, 0, 61, 0
2, 6667, Note_on_c, 0, 65, 0
2, 6728, Note_on_c, 0, 61, 47
2, 6735, Note_on_c, 0, 84, 50
2, 6736, Note_on_c, 0, 65, 35
2, 6807, Note_on_c, 0, 65, 0
2, 6814, Note_on_c, 0, 61, 0
2, 6839, Note_on_c, 0, 89, 45
2, 6856, Note_on_c, 0, 60, 0
2, 6966, Note_on_c, 0, 61, 31
2, 6966, Note_on_c, 0, 94, 50
2, 6975, Note_on_c, 0, 65, 20
2, 7105, Note_on_c, 0, 65, 0
2, 7133, Note_on_c, 0, 94, 0
2, 7135, Note_on_c, 0, 61, 0
2, 7136, Note_on_c, 0, 55, 0
2, 7163, Note_on_c, 0, 96, 37
2, 7247, Note_on_c, 0, 96, 0
2, 7266, Note_on_c, 0, 89, 0
2, 7299, Note_on_c, 0, 84, 0
2, 7463, Note_on_c, 0, 77, 61
2, 7475, Note_on_c, 0, 50, 34
2, 7497, Control_c, 0, 64, 0
2, 7530, Control_c, 0, 64, 127
2, 7629, Note_on_c, 0, 50, 0
2, 7658, Note_on_c, 0, 64, 30
2, 7713, Note_on_c, 0, 77, 0
2, 7817, Note_on_c, 0, 67, 35
2, 7820, Note_on_c, 0, 64, 0
2, 7821, Note_on_c, 0, 68, 34
2, 7830, Note_on_c, 0, 60, 24
2, 7928, Note_on_c, 0, 60, 0
2, 7987, Note_on_c, 0, 76, 59
2, 8040, Note_on_c, 0, 76, 0
2, 8065, Note_on_c, 0, 68, 0
2, 8090, Note_on_c, 0, 77, 64
2, 8172, Note_on_c, 0, 77, 0
2, 8187, Note_on_c, 0, 67, 0
2, 8189, Note_on_c, 0, 43, 53
2, 8193, Note_on_c, 0, 75, 67
2, 8215, Control_c, 0, 64, 0
2, 8235, Control_c, 0, 64, 127
2, 8242, Note_on_c, 0, 43, 0
2, 8315, Note_on_c, 0, 56, 55
2, 8412, Note_on_c, 0, 56, 0
2, 8418, Note_on_c, 0, 58, 62
2, 8505, Note_on_c, 0, 58, 0
2, 8523, Note_on_c, 0, 59, 49
2, 8533, Control_c, 0, 64, 0
2, 8603, Control_c, 0, 64, 127
2, 8618, Note_on_c, 0, 62, 54
2, 8623, Note_on_c, 0, 59, 0
2, 8700, Note_on_c, 0, 68, 46
2, 8771, Note_on_c, 0, 68, 0
2, 8773, Note_on_c, 0, 71, 69
2, 8779, Note_on_c, 0, 65, 38
2, 8782, Note_on_c, 0, 75, 0
2, 8797, Note_on_c, 0, 65, 0
2, 8810, Note_on_c, 0, 62, 0
2, 8854, Note_on_c, 0, 75, 77
2, 8875, Note_on_c, 0, 71, 0
2, 8924, Note_on_c, 0, 75, 0
2, 8936, Note_on_c, 0, 74, 68
2, 8955, Note_on_c, 0, 48, 54
2, 8957, Control_c, 0, 64, 0
2, 9050, Note_on_c, 0, 55, 34
2, 9054, Note_on_c, 0, 48, 0
2, 9055, Control_c, 0, 64, 127
2, 9116, Note_on_c, 0, 74, 0
2, 9129, Note_on_c, 0, 63, 51
2, 9140, Note_on_c, 0, 55, 0
2, 9214, Note_on_c, 0, 62, 68
2, 9301, Note_on_c, 0, 67, 69
2, 9375, Note_on_c, 0, 62, 0
2, 9382, Note_on_c, 0, 60, 85
2, 9409, Control_c, 0, 64, 0
2, 9459, Control_c, 0, 64, 127
2, 9466, Note_on_c, 0, 74, 80
2, 9483, Note_on_c, 0, 63, 0
2, 9558, Note_on_c, 0, 58, 64
2, 9569, Control_c, 0, 64, 0
2, 9572, Note_on_c, 0, 60, 0
2, 9591, Control_c, 0, 64, 127
2, 9627, Note_on_c, 0, 74, 0
2, 9635, Note_on_c, 0, 67, 0
2, 9647, Note_on_c, 0, 72, 46
2, 9677, Note_on_c, 0, 72, 0
2, 9742, Note_on_c, 0, 79, 60
2, 9749, Note_on_c, 0, 58, 0
2, 9833, Note_on_c, 0, 67, 54
2, 9865, Note_on_c, 0, 79, 0
2, 9908, Note_on_c, 0, 67, 0
2, 10032, Note_on_c, 0, 62, 42
2, 10034, Note_on_c, 0, 63, 37
2, 10034, Note_on_c, 0, 67, 44
2, 10142, Note_on_c, 0, 46, 30
2, 10178, Note_on_c, 0, 62, 0
2, 10234, Note_on_c, 0, 63, 0
2, 10248, Note_on_c, 0, 62, 33
2, 10286, Note_on_c, 0, 46, 0
2, 10339, Note_on_c, 0, 67, 0
2, 10351, Note_on_c, 0, 46, 30
2, 10353, Note_on_c, 0, 62, 0
2, 10419, Note_on_c, 0, 46, 0
2, 10470, Note_on_c, 0, 55, 35
2, 10471, Note_on_c, 0, 60, 46
2, 10471, Note_on_c, 0, 45, 40
2, 10481, Control_c, 0, 64, 0
2, 10518, Control_c, 0, 64, 127
2, 10525, Note_on_c, 0, 55, 0
2, 10568, Note_on_c, 0, 60, 0
2, 10765, Note_on_c, 0, 66, 94
2, 10767, Note_on_c, 0, 54, 64
2, 10848, Note_on_c, 0, 54, 0
2, 10878, Note_on_c, 0, 66, 0
2, 10891, Note_on_c, 0, 45, 0
2, 10895, Note_on_c, 0, 67, 87
2, 10896, Note_on_c, 0, 55, 58
2, 10905, Control_c, 0, 64, 0
2, 10942, Control_c, 0, 64, 127
2, 11001, Note_on_c, 0, 55, 0
2, 11020, Note_on_c, 0, 67, 0
2, 11038, Note_on_c, 0, 55, 64
2, 11041, Note_on_c, 0, 67, 73
2, 11164, Note_on_c, 0, 67, 0
2, 11177, Note_on_c, 0, 55, 0
2, 11184, Note_on_c, 0, 57, 30
2, 11185, Note_on_c, 0, 69, 61
2, 11194, Note_on_c, 0, 57, 0
2, 11245, Note_on_c, 0, 69, 0
2, 11543, Control_c, 0, 64, 0
2, 11548, Note_on_c, 0, 74, 74
2, 11550, Note_on_c, 0, 32, 59
2, 11551, Note_on_c, 0, 65, 71
2, 11551, Note_on_c, 0, 44, 45
2, 11552, Note_on_c, 0, 70, 58
2, 11576, Control_c, 0, 64, 127
2, 11590, Note_on_c, 0, 32, 0
2, 11592, Note_on_c, 0, 65, 0
2, 11605, Note_on_c, 0, 44, 0
2, 11612, Note_on_c, 0, 70, 0
2, 11617, Note_on_c, 0, 74, 0
2, 11775, Note_on_c, 0, 86, 71
2, 11776, Note_on_c, 0, 77, 45
2, 11777, Note_on_c, 0, 54, 31
2, 11781, Note_on_c, 0, 60, 50
2, 11781, Note_on_c, 0, 82, 45
2, 11784, Note_on_c, 0, 65, 42
2, 11784, Note_on_c, 0, 58, 38
2, 11844, Note_on_c, 0, 60, 0
2, 11847, Note_on_c, 0, 65, 0
2, 11863, Note_on_c, 0, 58, 0
2, 11871, Note_on_c, 0, 54, 0
2, 11900, Note_on_c, 0, 77, 0
2, 11908, Note_on_c, 0, 86, 0
2, 11914, Note_on_c, 0, 82, 0
2, 12071, Note_on_c, 0, 86, 84
2, 12073, Note_on_c, 0, 83, 70
2, 12073, Note_on_c, 0, 80, 62
2, 12073, Note_on_c, 0, 76, 71
2, 12074, Control_c, 0, 64, 0
2, 12076, Note_on_c, 0, 50, 63
2, 12076, Note_on_c, 0, 38, 65
2, 12111, Control_c, 0, 64, 127
2, 12132, Note_on_c, 0, 86, 0
2, 12136, Note_on_c, 0, 38, 0
2, 12141, Note_on_c, 0, 83, 0
2, 12148, Note_on_c, 0, 80, 0
2, 12153, Note_on_c, 0, 50, 0
2, 12158, Note_on_c, 0, 76, 0
2, 12383, Note_on_c, 0, 74, 60
2, 12384, Note_on_c, 0, 71, 56
2, 12385, Note_on_c, 0, 68, 45
2, 12386, Note_on_c, 0, 64, 54
2, 12390, Note_on_c, 0, 54, 34
2, 12391, Note_on_c, 0, 60, 41
2, 12582, Note_on_c, 0, 60, 0
2, 12596, Note_on_c, 0, 64, 0
2, 12621, Note_on_c, 0, 54, 0
2, 12637, Note_on_c, 0, 71, 0
2, 12642, Note_on_c, 0, 68, 0
2, 12644, Note_on_c, 0, 74, 0
2, 12874, Note_on_c, 0, 74, 51
2, 12874, Note_on_c, 0, 72, 39
2, 12876, Note_on_c, 0, 68, 38
2, 12880, Note_on_c, 0, 67, 45
2, 12897, Control_c, 0, 64, 0
2, 12939, Control_c, 0, 64, 127
2, 12969, Note_on_c, 0, 67, 0
2, 12974, Note_on_c, 0, 55, 47
2, 12993, Note_on_c, 0, 55, 0
2, 13020, Note_on_c, 0, 74, 0
2, 13025, Note_on_c, 0, 72, 0
2, 13026, Note_on_c, 0, 68, 0
2, 13074, Note_on_c, 0, 55, 36
2, 13151, Note_on_c, 0, 55, 0
2, 13165, Note_on_c, 0, 43, 27
2, 13165, Note_on_c, 0, 56, 43
2, 13183, Note_on_c, 0, 43, 0
2, 13274, Note_on_c, 0, 56, 0
2, 13284, Note_on_c, 0, 43, 33
2, 13289, Note_on_c, 0, 55, 50
2, 13294, Note_on_c, 0, 31, 40
2, 13298, Control_c, 0, 64, 0
2, 13321, Note_on_c, 0, 31, 0
2, 13332, Control_c, 0, 64, 127
2, 13350, Note_on_c, 0, 43, 0
2, 13440, Note_on_c, 0, 43, 36
2, 13665, Note_on_c, 0, 56, 27
2, 13670, Note_on_c, 0, 53, 24
2, 13803, Note_on_c, 0, 55, 0
2, 13889, Note_on_c, 0, 56, 0
2, 13903, Note_on_c, 0, 59, 35
2, 13998, Note_on_c, 0, 59, 0
2, 14006, Note_on_c, 0, 62, 48
2, 14069, Note_on_c, 0, 62, 0
2, 14110, Note_on_c, 0, 67, 49
2, 14157, Note_on_c, 0, 67, 0
2, 14219, Note_on_c, 0, 71, 68
2, 14260, Note_on_c, 0, 43, 0
2, 14313, Note_on_c, 0, 71, 0
2, 14325, Note_on_c, 0, 53, 0
2, 14331, Note_on_c, 0, 74, 73
2, 14434, Note_on_c, 0, 74, 0
2, 14457, Note_on_c, 0, 75, 63
2, 14465, Note_on_c, 0, 45, 44
2, 14469, Control_c, 0, 64, 0
2, 14492, Control_c, 0, 64, 127
2, 14497, Note_on_c, 0, 45, 0
2, 14740, Note_on_c, 0, 61, 29
2, 14741, Note_on_c, 0, 55, 41
2, 14742, Note_on_c, 0, 65, 25
2, 14743, Note_on_c, 0, 60, 49
2, 14833, Note_on_c, 0, 60, 0
2, 14849, Note_on_c, 0, 55, 0
2, 14860, Note_on_c, 0, 65, 0
2, 14870, Note_on_c, 0, 61, 0
2, 14921, Note_on_c, 0, 61, 29
2, 14923, Note_on_c, 0, 65, 40
2, 14927, Note_on_c, 0, 60, 36
2, 14928, Note_on_c, 0, 55, 42
2, 15009, Note_on_c, 0, 60, 0
2, 15010, Note_on_c, 0, 65, 0
2, 15011, Note_on_c, 0, 55, 0
2, 15029, Note_on_c, 0, 61, 0
2, 15059, Note_on_c, 0, 61, 50
2, 15063, Note_on_c, 0, 65, 42
2, 15063, Note_on_c, 0, 60, 62
2, 15064, Note_on_c, 0, 55, 52
2, 15143, Note_on_c, 0, 60, 0
2, 15145, Note_on_c, 0, 61, 0
2, 15146, Note_on_c, 0, 74, 85
2, 15153, Note_on_c, 0, 55, 0
2, 15157, Note_on_c, 0, 65, 0
2, 15162, Note_on_c, 0, 75, 0
2, 15221, Note_on_c, 0, 74, 0
2, 15231, Note_on_c, 0, 75, 82
2, 15233, Note_on_c, 0, 61, 48
2, 15233, Note_on_c, 0, 65, 54
2, 15235, Note_on_c, 0, 55, 57
2, 15237, Note_on_c, 0, 60, 58
2, 15271, Note_on_c, 0, 55, 0
2, 15274, Note_on_c, 0, 65, 0
2, 15275, Note_on_c, 0, 60, 0
2, 15298, Note_on_c, 0, 61, 0
2, 15313, Note_on_c, 0, 75, 0
2, 15338, Note_on_c, 0, 74, 71
2, 15339, Note_on_c, 0, 64, 46
2, 15341, Note_on_c, 0, 54, 45
2, 15342, Note_on_c, 0, 60, 62
2, 15345, Note_on_c, 0, 59, 50
2, 15354, Control_c, 0, 64, 0
2, 15401, Control_c, 0, 64, 127
2, 15430, Note_on_c, 0, 59, 0
2, 15433, Note_on_c, 0, 54, 0
2, 15436, Note_on_c, 0, 64, 0
2, 15437, Note_on_c, 0, 60, 0
2, 15471, Note_on_c, 0, 64, 43
2, 15474, Note_on_c, 0, 60, 52
2, 15477, Note_on_c, 0, 54, 29
2, 15493, Note_on_c, 0, 60, 0
2, 15493, Note_on_c, 0, 64, 0
2, 15504, Note_on_c, 0, 54, 0
2, 15598, Note_on_c, 0, 38, 44
2, 15605, Note_on_c, 0, 50, 30
2, 15678, Note_on_c, 0, 38, 0
2, 15693, Note_on_c, 0, 50, 0
2, 15722, Note_on_c, 0, 38, 55
2, 15736, Note_on_c, 0, 38, 0
2, 15884, Note_on_c, 0, 66, 35
2, 15886, Note_on_c, 0, 64, 41
2, 15888, Note_on_c, 0, 54, 34
2, 15897, Note_on_c, 0, 50, 26
2, 15897, Note_on_c, 0, 60, 29
2, 16014, Note_on_c, 0, 50, 0
2, 16058, Note_on_c, 0, 50, 35
2, 16093, Note_on_c, 0, 64, 0
2, 16115, Note_on_c, 0, 60, 0
2, 16222, Note_on_c, 0, 63, 50
2, 16226, Note_on_c, 0, 74, 0
2, 16233, Note_on_c, 0, 60, 36
2, 16333, Note_on_c, 0, 50, 0
2, 16397, Note_on_c, 0, 72, 41
2, 16402, Note_on_c, 0, 50, 36
2, 16404, Note_on_c, 0, 60, 0
2, 16441, Note_on_c, 0, 54, 0
2, 16446, Note_on_c, 0, 50, 0
2, 16478, Note_on_c, 0, 63, 0
2, 16486, Note_on_c, 0, 72, 0
2, 16536, Note_on_c, 0, 66, 0
2, 16697, Note_on_c, 0, 63, 46
2, 16702, Note_on_c, 0, 59, 43
2, 16707, Note_on_c, 0, 71, 34
2, 16711, Note_on_c, 0, 43, 41
2, 16717, Note_on_c, 0, 53, 24
2, 16718, Control_c, 0, 64, 0
2, 16735, Note_on_c, 0, 64, 37
2, 16737, Note_on_c, 0, 63, 0
2, 16780, Control_c, 0, 64, 127
2, 16800, Note_on_c, 0, 64, 0
2, 16831, Note_on_c, 0, 63, 38
2, 16833, Control_c, 0, 64, 0
2, 16845, Control_c, 0, 64, 127
2, 16872, Note_on_c, 0, 71, 0
2, 16942, Note_on_c, 0, 63, 0
2, 16952, Note_on_c, 0, 62, 55
2, 17081, Note_on_c, 0, 67, 53
2, 17117, Note_on_c, 0, 43, 0
2, 17137, Note_on_c, 0, 53, 0
2, 17143, Note_on_c, 0, 62, 0
2, 17164, Note_on_c, 0, 59, 0
2, 17185, Note_on_c, 0, 67, 0
2, 17241, Note_on_c, 0, 67, 39
2, 17244, Note_on_c, 0, 63, 29
2, 17244, Note_on_c, 0, 59, 27
2, 17248, Note_on_c, 0, 49, 30
2, 17249, Control_c, 0, 64, 0
2, 17263, Control_c, 0, 64, 127
2, 17280, Note_on_c, 0, 59, 0
2, 17296, Note_on_c, 0, 63, 0
2, 17310, Note_on_c, 0, 67, 0
2, 17363, Note_on_c, 0, 49, 0
2, 17366, Note_on_c, 0, 59, 38
2, 17392, Note_on_c, 0, 59, 0
2, 17501, Note_on_c, 0, 71, 39
2, 17504, Note_on_c, 0, 83, 32
2, 17512, Note_on_c, 0, 59, 22
2, 17519, Note_on_c, 0, 71, 0
2, 17534, Note_on_c, 0, 83, 0
2, 17718, Note_on_c, 0, 91, 42
2, 17722, Note_on_c, 0, 79, 28
2, 17722, Note_on_c, 0, 67, 34
2, 17951, Note_on_c, 0, 91, 0
2, 18018, Note_on_c, 0, 79, 0
2, 18096, Note_on_c, 0, 67, 0
2, 18191, Note_on_c, 0, 67, 108
2, 18223, Note_on_c, 0, 59, 0
2, 18321, Note_on_c, 0, 67, 0
2, 18322, Note_on_c, 0, 68, 46
2, 18351, Note_on_c, 0, 67, 43
2, 18367, Note_on_c, 0, 68, 0
2, 18397, Note_on_c, 0, 67, 0
2, 18403, Note_on_c, 0, 66, 55
2, 18460, Note_on_c, 0, 66, 0
2, 18479, Note_on_c, 0, 67, 66
2, 18709, Note_on_c, 0, 67, 0
2, 18718, Note_on_c, 0, 72, 41
2, 18721, Note_on_c, 0, 48, 41
2, 18749, Control_c, 0, 64, 0
2, 18785, Control_c, 0, 64, 127
2, 18826, Note_on_c, 0, 58, 29
2, 18918, Note_on_c, 0, 62, 42
2, 18966, Note_on_c, 0, 48, 0
2, 19003, Note_on_c, 0, 62, 0
2, 19009, Note_on_c, 0, 65, 46
2, 19013, Note_on_c, 0, 58, 0
2, 19016, Note_on_c, 0, 72, 0
2, 19109, Note_on_c, 0, 65, 0
2, 19115, Note_on_c, 0, 70, 53
2, 19125, Note_on_c, 0, 58, 23
2, 19139, Control_c, 0, 64, 0
2, 19173, Control_c, 0, 64, 127
2, 19221, Note_on_c, 0, 70, 0
2, 19235, Note_on_c, 0, 72, 35
2, 19237, Note_on_c, 0, 64, 19
2, 19334, Note_on_c, 0, 64, 0
2, 19343, Note_on_c, 0, 73, 38
2, 19344, Note_on_c, 0, 72, 0
2, 19361, Note_on_c, 0, 58, 0
2, 19417, Note_on_c, 0, 73, 0
2, 19430, Note_on_c, 0, 76, 51
2, 19516, Note_on_c, 0, 78, 52
2, 19516, Note_on_c, 0, 58, 30
2, 19519, Note_on_c, 0, 48, 26
2, 19526, Control_c, 0, 64, 0
2, 19556, Note_on_c, 0, 48, 0
2, 19557, Control_c, 0, 64, 127
2, 19568, Note_on_c, 0, 76, 0
2, 19591, Note_on_c, 0, 58, 0
2, 19594, Note_on_c, 0, 78, 0
2, 19599, Note_on_c, 0, 84, 68
2, 19675, Note_on_c, 0, 84, 0
2, 19685, Note_on_c, 0, 82, 52
2, 19695, Note_on_c, 0, 58, 31
2, 19696, Note_on_c, 0, 64, 31
2, 19864, Note_on_c, 0, 78, 44
2, 19938, Note_on_c, 0, 64, 0
2, 19940, Note_on_c, 0, 78, 0
2, 19956, Note_on_c, 0, 82, 0
2, 19963, Note_on_c, 0, 58, 0
2, 19972, Note_on_c, 0, 85, 72
2, 20062, Note_on_c, 0, 85, 0
2, 20069, Note_on_c, 0, 84, 68
2, 20181, Note_on_c, 0, 88, 69
2, 20185, Note_on_c, 0, 58, 29
2, 20189, Note_on_c, 0, 48, 30
2, 20225, Note_on_c, 0, 48, 0
2, 20230, Note_on_c, 0, 58, 0
2, 20313, Note_on_c, 0, 91, 73
2, 20317, Note_on_c, 0, 88, 0
2, 20328, Note_on_c, 0, 84, 0
2, 20400, Note_on_c, 0, 91, 0
2, 20441, Note_on_c, 0, 41, 43
2, 20441, Note_on_c, 0, 92, 76
2, 20442, Control_c, 0, 64, 0
2, 20443, Note_on_c, 0, 53, 37
2, 20444, Note_on_c, 0, 80, 52
2, 20465, Note_on_c, 0, 41, 0
2, 20467, Control_c, 0, 64, 127
2, 20481, Note_on_c, 0, 53, 0
2, 20528, Note_on_c, 0, 92, 0
2, 20528, Note_on_c, 0, 80, 0
2, 20556, Note_on_c, 0, 94, 77
2, 20560, Note_on_c, 0, 60, 54
2, 20585, Note_on_c, 0, 94, 0
2, 20667, Note_on_c, 0, 91, 64
2, 20673, Note_on_c, 0, 79, 58
2, 20676, Note_on_c, 0, 65, 37
2, 20723, Note_on_c, 0, 91, 0
2, 20743, Note_on_c, 0, 79, 0
2, 20756, Note_on_c, 0, 60, 0
2, 20771, Note_on_c, 0, 92, 76
2, 20780, Note_on_c, 0, 80, 50
2, 20811, Note_on_c, 0, 92, 0
2, 20828, Note_on_c, 0, 80, 0
2, 20860, Note_on_c, 0, 65, 0
2, 20885, Note_on_c, 0, 89, 56
2, 20888, Note_on_c, 0, 77, 48
2, 20994, Note_on_c, 0, 60, 47
2, 21086, Note_on_c, 0, 77, 0
2, 21095, Note_on_c, 0, 60, 0
2, 21188, Note_on_c, 0, 89, 0
2, 21226, Note_on_c, 0, 60, 37
2, 21250, Note_on_c, 0, 60, 0
2, 21382, Note_on_c, 0, 88, 46
2, 21383, Note_on_c, 0, 85, 44
2, 21385, Note_on_c, 0, 76, 37
2, 21386, Note_on_c, 0, 82, 34
2, 21386, Note_on_c, 0, 48, 45
2, 21396, Control_c, 0, 64, 0
2, 21447, Control_c, 0, 64, 127
2, 21480, Note_on_c, 0, 88, 0
2, 21489, Note_on_c, 0, 85, 0
2, 21492, Note_on_c, 0, 82, 0
2, 21505, Note_on_c, 0, 76, 0
2, 21506, Note_on_c, 0, 48, 0
2, 21509, Note_on_c, 0, 58, 32
2, 21540, Note_on_c, 0, 58, 0
2, 21630, Note_on_c, 0, 73, 25
2, 21631, Note_on_c, 0, 64, 34
2, 21632, Note_on_c, 0, 70, 40
2, 21640, Note_on_c, 0, 58, 34
2, 21662, Note_on_c, 0, 64, 0
2, 21680, Note_on_c, 0, 70, 0
2, 21683, Note_on_c, 0, 73, 0
2, 21757, Note_on_c, 0, 70, 33
2, 21762, Note_on_c, 0, 61, 46
2, 21764, Note_on_c, 0, 73, 25
2, 21765, Note_on_c, 0, 76, 38
2, 21782, Note_on_c, 0, 73, 0
2, 21784, Note_on_c, 0, 70, 0
2, 21791, Note_on_c, 0, 76, 0
2, 21889, Note_on_c, 0, 58, 0
2, 21890, Note_on_c, 0, 61, 0
2, 21891, Note_on_c, 0, 76, 43
2, 21891, Note_on_c, 0, 84, 54
2, 21899, Note_on_c, 0, 64, 28
2, 21915, Note_on_c, 0, 76, 0
2, 21917, Note_on_c, 0, 84, 0
2, 22015, Note_on_c, 0, 64, 0
2, 22021, Note_on_c, 0, 85, 48
2, 22022, Note_on_c, 0, 67, 35
2, 22042, Note_on_c, 0, 85, 0
2, 22129, Note_on_c, 0, 67, 0
2, 22163, Note_on_c, 0, 85, 39
2, 22164, Note_on_c, 0, 88, 49
2, 22167, Note_on_c, 0, 70, 34
2, 22169, Note_on_c, 0, 79, 31
2, 22187, Note_on_c, 0, 79, 0
2, 22197, Note_on_c, 0, 85, 0
2, 22203, Note_on_c, 0, 88, 0
2, 22305, Note_on_c, 0, 70, 0
2, 22331, Note_on_c, 0, 91, 32
2, 22337, Note_on_c, 0, 73, 25
2, 22337, Note_on_c, 0, 85, 30
2, 22343, Note_on_c, 0, 79, 20
2, 22375, Note_on_c, 0, 73, 0
2, 22386, Note_on_c, 0, 91, 0
2, 22403, Note_on_c, 0, 85, 0
2, 22426, Note_on_c, 0, 79, 0
2, 22617, Note_on_c, 0, 72, 37
2, 22620, Note_on_c, 0, 67, 29
2, 22624, Note_on_c, 0, 68, 34
2, 22626, Note_on_c, 0, 53, 29
2, 22629, Control_c, 0, 64, 0
2, 22663, Control_c, 0, 64, 127
2, 22707, Note_on_c, 0, 68, 0
2, 22708, Note_on_c, 0, 67, 0
2, 22726, Note_on_c, 0, 72, 0
2, 22753, Note_on_c, 0, 60, 32
2, 22779, Note_on_c, 0, 53, 0
2, 22875, Note_on_c, 0, 84, 82
2, 22876, Note_on_c, 0, 79, 80
2, 22879, Note_on_c, 0, 67, 45
2, 22929, Note_on_c, 0, 60, 0
2, 22982, Note_on_c, 0, 84, 0
2, 23009, Note_on_c, 0, 82, 60
2, 23015, Note_on_c, 0, 60, 39
2, 23018, Note_on_c, 0, 67, 0
2, 23047, Note_on_c, 0, 60, 0
2, 23084, Note_on_c, 0, 82, 0
2, 23094, Note_on_c, 0, 84, 54
2, 23096, Note_on_c, 0, 82, 23
2, 23121, Note_on_c, 0, 79, 0
2, 23150, Note_on_c, 0, 84, 0
2, 23157, Note_on_c, 0, 82, 0
2, 23187, Note_on_c, 0, 82, 50
2, 23189, Note_on_c, 0, 44, 42
2, 23199, Control_c, 0, 64, 0
2, 23227, Control_c, 0, 64, 127
2, 23239, Note_on_c, 0, 44, 0
2, 23338, Note_on_c, 0, 63, 30
2, 23339, Note_on_c, 0, 58, 40
2, 23340, Note_on_c, 0, 59, 55
2, 23341, Note_on_c, 0, 54, 32
2, 23414, Note_on_c, 0, 59, 0
2, 23425, Note_on_c, 0, 63, 0
2, 23430, Note_on_c, 0, 58, 0
2, 23443, Note_on_c, 0, 54, 0
2, 23547, Note_on_c, 0, 59, 40
2, 23548, Note_on_c, 0, 53, 36
2, 23548, Note_on_c, 0, 63, 26
2, 23549, Note_on_c, 0, 58, 36
2, 23564, Control_c, 0, 64, 0
2, 23609, Control_c, 0, 64, 127
2, 23667, Note_on_c, 0, 80, 9
2, 23675, Note_on_c, 0, 82, 0
2, 23683, Note_on_c, 0, 59, 0
2, 23698, Note_on_c, 0, 63, 0
2, 23710, Note_on_c, 0, 58, 0
2, 23773, Note_on_c, 0, 80, 0
2, 23838, Note_on_c, 0, 80, 35
2, 23846, Note_on_c, 0, 75, 50
2, 23852, Note_on_c, 0, 63, 33
2, 23853, Note_on_c, 0, 59, 41
2, 23854, Note_on_c, 0, 68, 36
2, 23855, Note_on_c, 0, 58, 25
2, 23933, Note_on_c, 0, 63, 0
2, 23938, Note_on_c, 0, 59, 0
2, 23940, Note_on_c, 0, 53, 0
2, 23962, Note_on_c, 0, 80, 0
2, 23980, Note_on_c, 0, 58, 0
2, 23982, Note_on_c, 0, 75, 0
2, 23989, Note_on_c, 0, 68, 0
2, 24140, Note_on_c, 0, 43, 38
2, 24141, Note_on_c, 0, 50, 27
2, 24147, Note_on_c, 0, 63, 45
2, 24149, Note_on_c, 0, 59, 51
2, 24150, Note_on_c, 0, 67, 55
2, 24158, Note_on_c, 0, 50, 0
2, 24162, Note_on_c, 0, 53, 34
2, 24173, Control_c, 0, 64, 0
2, 24178, Note_on_c, 0, 63, 0
2, 24184, Note_on_c, 0, 64, 41
2, 24232, Control_c, 0, 64, 127
2, 24292, Note_on_c, 0, 68, 59
2, 24325, Note_on_c, 0, 67, 0
2, 24386, Note_on_c, 0, 64, 0
2, 24390, Note_on_c, 0, 59, 0
2, 24393, Note_on_c, 0, 53, 0
2, 24408, Note_on_c, 0, 68, 0
2, 24423, Note_on_c, 0, 67, 27
2, 24426, Note_on_c, 0, 64, 50
2, 24429, Note_on_c, 0, 53, 40
2, 24429, Note_on_c, 0, 59, 42
2, 24440, Control_c, 0, 64, 0
2, 24482, Control_c, 0, 64, 127
2, 24539, Note_on_c, 0, 43, 0
2, 24598, Note_on_c, 0, 43, 45
2, 24603, Note_on_c, 0, 53, 0
2, 24629, Note_on_c, 0, 64, 0
2, 24640, Note_on_c, 0, 43, 0
2, 24685, Note_on_c, 0, 67, 0
2, 24701, Note_on_c, 0, 59, 0
2, 24823, Note_on_c, 0, 61, 38
2, 24829, Note_on_c, 0, 52, 38
2, 24834, Note_on_c, 0, 56, 28
2, 24835, Note_on_c, 0, 24, 35
2, 24836, Note_on_c, 0, 58, 36
2, 24861, Note_on_c, 0, 56, 0
2, 24863, Note_on_c, 0, 58, 0
2, 24864, Note_on_c, 0, 52, 0
2, 24864, Control_c, 0, 64, 0
2, 24870, Note_on_c, 0, 61, 0
2, 24870, Note_on_c, 0, 24, 0
2, 24948, Note_on_c, 0, 61, 20
2, 24949, Note_on_c, 0, 24, 32
2, 24955, Note_on_c, 0, 52, 19
2, 24958, Note_on_c, 0, 56, 23
2, 24959, Note_on_c, 0, 58, 27
2, 24962, Note_on_c, 0, 36, 28
2, 25002, Note_on_c, 0, 56, 0
2, 25003, Note_on_c, 0, 36, 0
2, 25005, Note_on_c, 0, 58, 0
2, 25006, Note_on_c, 0, 24, 0
2, 25012, Note_on_c, 0, 52, 0
2, 25012, Note_on_c, 0, 61, 0
2, 25179, Note_on_c, 0, 61, 23
2, 25180, Note_on_c, 0, 24, 25
2, 25189, Note_on_c, 0, 52, 29
2, 25191, Note_on_c, 0, 56, 25
2, 25193, Note_on_c, 0, 58, 27
2, 25193, Note_on_c, 0, 36, 24
2, 25228, Note_on_c, 0, 56, 0
2, 25231, Note_on_c, 0, 58, 0
2, 25236, Note_on_c, 0, 52, 0
2, 25238, Note_on_c, 0, 36, 0
2, 25240, Note_on_c, 0, 24, 0
2, 25241, Note_on_c, 0, 61, 0
2, 25303, Note_on_c, 0, 24, 28
2, 25308, Note_on_c, 0, 61, 25
2, 25314, Note_on_c, 0, 36, 29
2, 25316, Note_on_c, 0, 52, 24
2, 25318, Note_on_c, 0, 58, 28
2, 25319, Note_on_c, 0, 56, 25
2, 25360, Note_on_c, 0, 56, 0
2, 25365, Note_on_c, 0, 52, 0
2, 25365, Note_on_c, 0, 58, 0
2, 25367, Note_on_c, 0, 36, 0
2, 25373, Note_on_c, 0, 61, 0
2, 25380, Note_on_c, 0, 24, 0
2, 25482, Control_c, 0, 64, 127
2, 25774, Note_on_c, 0, 61, 77
2, 25775, Note_on_c, 0, 67, 75
2, 25776, Note_on_c, 0, 57, 75
2, 25779, Note_on_c, 0, 41, 57
2, 25783, Note_on_c, 0, 51, 38
2, 25791, Control_c, 0, 64, 0
2, 25801, Note_on_c, 0, 61, 0
2, 25805, Note_on_c, 0, 62, 55
2, 25858, Control_c, 0, 64, 127
2, 25896, Note_on_c, 0, 62, 0
2, 25917, Note_on_c, 0, 61, 71
2, 26044, Note_on_c, 0, 61, 0
2, 26053, Note_on_c, 0, 60, 74
2, 26144, Note_on_c, 0, 67, 0
2, 26145, Note_on_c, 0, 57, 0
2, 26159, Note_on_c, 0, 60, 0
2, 26167, Note_on_c, 0, 65, 78
2, 26231, Note_on_c, 0, 41, 0
2, 26258, Note_on_c, 0, 63, 68
2, 26261, Note_on_c, 0, 65, 0
2, 26264, Note_on_c, 0, 51, 0
2, 26324, Note_on_c, 0, 63, 0
2, 26417, Note_on_c, 0, 67, 80
2, 26419, Note_on_c, 0, 64, 72
2, 26419, Note_on_c, 0, 62, 79
2, 26420, Note_on_c, 0, 59, 79
2, 26420, Note_on_c, 0, 46, 50
2, 26424, Note_on_c, 0, 56, 46
2, 26430, Control_c, 0, 64, 0
2, 26497, Control_c, 0, 64, 127
2, 26650, Note_on_c, 0, 67, 0
2, 26692, Note_on_c, 0, 67, 62
2, 26811, Note_on_c, 0, 67, 0
2, 26857, Note_on_c, 0, 67, 41
2, 26983, Note_on_c, 0, 67, 0
2, 27082, Note_on_c, 0, 67, 47
2, 27159, Note_on_c, 0, 56, 0
2, 27251, Note_on_c, 0, 46, 0
2, 27392, Note_on_c, 0, 67, 0
2, 27393, Note_on_c, 0, 62, 0
2, 27394, Note_on_c, 0, 64, 0
2, 27403, Note_on_c, 0, 59, 0
2, 27695, Note_on_c, 0, 63, 34
2, 27696, Note_on_c, 0, 55, 47
2, 27699, Note_on_c, 0, 47, 32
2, 27700, Note_on_c, 0, 39, 30
2, 27700, Note_on_c, 0, 59, 34
2, 27701, Note_on_c, 0, 50, 22
2, 27707, Control_c, 0, 64, 0
2, 27752, Control_c, 0, 64, 127
2, 27766, Note_on_c, 0, 50, 0
2, 27772, Note_on_c, 0, 55, 0
2, 27787, Note_on_c, 0, 59, 0
2, 27798, Note_on_c, 0, 63, 0
2, 27852, Note_on_c, 0, 39, 0
2, 27862, Note_on_c, 0, 47, 0
2, 28005, Note_on_c, 0, 51, 37
2, 28090, Note_on_c, 0, 59, 34
2, 28168, Note_on_c, 0, 59, 0
2, 28172, Note_on_c, 0, 71, 43
2, 28173, Note_on_c, 0, 62, 43
2, 28176, Note_on_c, 0, 79, 47
2, 28241, Note_on_c, 0, 79, 0
2, 28251, Note_on_c, 0, 62, 0
2, 28257, Note_on_c, 0, 74, 45
2, 28263, Note_on_c, 0, 59, 30
2, 28270, Note_on_c, 0, 67, 30
2, 28278, Note_on_c, 0, 71, 0
2, 28311, Note_on_c, 0, 67, 0
2, 28328, Note_on_c, 0, 74, 0
2, 28341, Note_on_c, 0, 59, 0
2, 28348, Note_on_c, 0, 77, 49
2, 28350, Note_on_c, 0, 72, 36
2, 28366, Note_on_c, 0, 60, 19
2, 28447, Note_on_c, 0, 51, 0
2, 28458, Note_on_c, 0, 77, 0
2, 28473, Note_on_c, 0, 75, 42
2, 28479, Note_on_c, 0, 67, 47
2, 28482, Note_on_c, 0, 51, 33
2, 28515, Note_on_c, 0, 72, 0
2, 28532, Note_on_c, 0, 75, 0
2, 28537, Note_on_c, 0, 60, 0
2, 28557, Note_on_c, 0, 67, 0
2, 28568, Note_on_c, 0, 51, 0
2, 28660, Note_on_c, 0, 68, 37
2, 28661, Note_on_c, 0, 42, 37
2, 28661, Note_on_c, 0, 64, 35
2, 28661, Note_on_c, 0, 72, 31
2, 28663, Note_on_c, 0, 30, 34
2, 28673, Control_c, 0, 64, 0
2, 28698, Control_c, 0, 64, 127
2, 28710, Note_on_c, 0, 64, 0
2, 28716, Note_on_c, 0, 30, 0
2, 28720, Note_on_c, 0, 68, 0
2, 28726, Note_on_c, 0, 72, 0
2, 28731, Note_on_c, 0, 42, 0
2, 28836, Note_on_c, 0, 80, 38
2, 28836, Note_on_c, 0, 76, 43
2, 28838, Note_on_c, 0, 84, 44
2, 28847, Note_on_c, 0, 58, 33
2, 28870, Note_on_c, 0, 76, 0
2, 28873, Note_on_c, 0, 80, 0
2, 28875, Note_on_c, 0, 84, 0
2, 29003, Note_on_c, 0, 80, 33
2, 29004, Note_on_c, 0, 88, 35
2, 29006, Note_on_c, 0, 76, 38
2, 29009, Note_on_c, 0, 84, 42
2, 29009, Note_on_c, 0, 64, 37
2, 29048, Note_on_c, 0, 76, 0
2, 29065, Note_on_c, 0, 80, 0
2, 29070, Note_on_c, 0, 84, 0
2, 29086, Note_on_c, 0, 88, 0
2, 29132, Note_on_c, 0, 64, 0
2, 29136, Note_on_c, 0, 58, 0
2, 29230, Note_on_c, 0, 96, 53
2, 29243, Note_on_c, 0, 88, 30
2, 29244, Note_on_c, 0, 58, 30
2, 29251, Note_on_c, 0, 64, 22
2, 29488, Note_on_c, 0, 96, 0
2, 29493, Note_on_c, 0, 88, 0
2, 29506, Note_on_c, 0, 58, 0
2, 29506, Note_on_c, 0, 64, 0
2, 29563, Control_c, 0, 64, 0
2, 29764, Note_on_c, 0, 84, 77
2, 29767, Note_on_c, 0, 53, 51
2, 29781, Note_on_c, 0, 84, 0
2, 29794, Note_on_c, 0, 53, 0
2, 29838, Note_on_c, 0, 60, 33
2, 29849, Note_on_c, 0, 60, 0
2, 29951, Note_on_c, 0, 67, 36
2, 29967, Note_on_c, 0, 67, 0
2, 30039, Control_c, 0, 64, 127
2, 30093, Control_c, 0, 64, 0
2, 30117, Control_c, 0, 64, 127
2, 30168, Note_on_c, 0, 83, 59
2, 30188, Note_on_c, 0, 83, 0
2, 30201, Note_on_c, 0, 84, 74
2, 30226, Note_on_c, 0, 84, 0
2, 30234, Control_c, 0, 64, 0
2, 30242, Note_on_c, 0, 56, 43
2, 30242, Note_on_c, 0, 83, 53
2, 30244, Note_on_c, 0, 84, 49
2, 30251, Note_on_c, 0, 84, 0
2, 30259, Note_on_c, 0, 83, 0
2, 30269, Note_on_c, 0, 56, 0
2, 30329, Note_on_c, 0, 62, 18
2, 30340, Control_c, 0, 64, 127
2, 30343, Note_on_c, 0, 62, 0
2, 30430, Control_c, 0, 64, 0
2, 30437, Note_on_c, 0, 82, 44
2, 30437, Note_on_c, 0, 74, 48
2, 30439, Note_on_c, 0, 66, 35
2, 30439, Note_on_c, 0, 79, 40
2, 30453, Note_on_c, 0, 79, 0
2, 30454, Note_on_c, 0, 74, 0
2, 30461, Note_on_c, 0, 82, 0
2, 30466, Note_on_c, 0, 66, 0
2, 30553, Note_on_c, 0, 56, 20
2, 30573, Note_on_c, 0, 56, 0
2, 30578, Control_c, 0, 64, 127
2, 30666, Note_on_c, 0, 80, 59
2, 30669, Note_on_c, 0, 68, 48
2, 30671, Note_on_c, 0, 73, 33
2, 30700, Note_on_c, 0, 68, 0
2, 30700, Note_on_c, 0, 80, 0
2, 30706, Note_on_c, 0, 73, 0
2, 30710, Control_c, 0, 64, 0
2, 30722, Note_on_c, 0, 79, 54
2, 30722, Note_on_c, 0, 39, 43
2, 30724, Note_on_c, 0, 67, 36
2, 30726, Note_on_c, 0, 74, 48
2, 30739, Note_on_c, 0, 74, 0
2, 30743, Note_on_c, 0, 79, 0
2, 30747, Note_on_c, 0, 67, 0
2, 30772, Note_on_c, 0, 39, 0
2, 30781, Note_on_c, 0, 46, 32
2, 30811, Note_on_c, 0, 46, 0
2, 30825, Note_on_c, 0, 46, 13
2, 30837, Note_on_c, 0, 55, 29
2, 30899, Note_on_c, 0, 62, 45
2, 30915, Note_on_c, 0, 62, 0
2, 30915, Control_c, 0, 64, 127
2, 30958, Note_on_c, 0, 67, 57
2, 30967, Note_on_c, 0, 67, 0
2, 30968, Note_on_c, 0, 46, 0
2, 30971, Note_on_c, 0, 55, 0
2, 30982, Control_c, 0, 64, 0
2, 31020, Note_on_c, 0, 70, 72
2, 31044, Note_on_c, 0, 70, 0
2, 31068, Control_c, 0, 64, 127
2, 31070, Note_on_c, 0, 72, 66
2, 31091, Note_on_c, 0, 72, 0
2, 31117, Control_c, 0, 64, 0
2, 31130, Note_on_c, 0, 75, 58
2, 31135, Note_on_c, 0, 45, 38
2, 31137, Control_c, 0, 64, 127
2, 31145, Note_on_c, 0, 45, 0
2, 31162, Note_on_c, 0, 75, 0
2, 31166, Control_c, 0, 64, 0
2, 31187, Note_on_c, 0, 44, 44
2, 31188, Note_on_c, 0, 72, 60
2, 31193, Note_on_c, 0, 79, 61
2, 31200, Control_c, 0, 64, 127
2, 31256, Note_on_c, 0, 51, 30
2, 31290, Note_on_c, 0, 72, 0
2, 31299, Note_on_c, 0, 44, 0
2, 31304, Note_on_c, 0, 51, 0
2, 31312, Note_on_c, 0, 55, 47
2, 31323, Note_on_c, 0, 55, 0
2, 31363, Note_on_c, 0, 79, 0
2, 31380, Note_on_c, 0, 75, 30
2, 31383, Note_on_c, 0, 72, 32
2, 31384, Note_on_c, 0, 67, 41
2, 31388, Note_on_c, 0, 60, 40
2, 31504, Note_on_c, 0, 67, 0
2, 31504, Note_on_c, 0, 63, 36
2, 31516, Note_on_c, 0, 63, 0
2, 31516, Note_on_c, 0, 60, 0
2, 31586, Note_on_c, 0, 72, 0
2, 31596, Note_on_c, 0, 75, 0
2, 31690, Note_on_c, 0, 60, 43
2, 31694, Note_on_c, 0, 56, 25
2, 31701, Note_on_c, 0, 60, 0
2, 31701, Control_c, 0, 64, 0
2, 31709, Note_on_c, 0, 56, 0
2, 31746, Note_on_c, 0, 79, 62
2, 31766, Note_on_c, 0, 79, 0
2, 31797, Note_on_c, 0, 80, 56
2, 31823, Note_on_c, 0, 80, 0
2, 31857, Note_on_c, 0, 84, 78
2, 31870, Control_c, 0, 64, 127
2, 31883, Note_on_c, 0, 84, 0
2, 31890, Control_c, 0, 64, 0
2, 31905, Note_on_c, 0, 67, 36
2, 31919, Note_on_c, 0, 67, 0
2, 31964, Note_on_c, 0, 72, 39
2, 31995, Control_c, 0, 64, 127
2, 32006, Note_on_c, 0, 72, 0
2, 32015, Control_c, 0, 64, 0
2, 32023, Note_on_c, 0, 79, 68
2, 32081, Note_on_c, 0, 79, 0
2, 32084, Note_on_c, 0, 55, 48
2, 32106, Note_on_c, 0, 55, 0
2, 32146, Note_on_c, 0, 68, 35
2, 32198, Note_on_c, 0, 68, 0
2, 32207, Note_on_c, 0, 77, 54
2, 32258, Note_on_c, 0, 77, 0
2, 32264, Note_on_c, 0, 75, 60
2, 32268, Note_on_c, 0, 65, 39
2, 32281, Note_on_c, 0, 65, 0
2, 32327, Note_on_c, 0, 75, 0
2, 32335, Note_on_c, 0, 59, 35
2, 32353, Note_on_c, 0, 59, 0
2, 32392, Note_on_c, 0, 65, 40
2, 32449, Control_c, 0, 64, 127
2, 32454, Note_on_c, 0, 74, 63
2, 32462, Note_on_c, 0, 65, 0
2, 32491, Note_on_c, 0, 74, 0
2, 32496, Control_c, 0, 64, 0
2, 32510, Note_on_c, 0, 71, 57
2, 32569, Note_on_c, 0, 63, 57
2, 32581, Control_c, 0, 64, 127
2, 32602, Note_on_c, 0, 71, 0
2, 32604, Control_c, 0, 64, 0
2, 32608, Note_on_c, 0, 63, 0
2, 32623, Note_on_c, 0, 48, 38
2, 32631, Note_on_c, 0, 62, 39
2, 32672, Note_on_c, 0, 48, 0
2, 32691, Note_on_c, 0, 62, 0
2, 32695, Note_on_c, 0, 72, 34
2, 32722, Note_on_c, 0, 72, 0
2, 32752, Note_on_c, 0, 63, 50
2, 32779, Note_on_c, 0, 63, 0
2, 32819, Note_on_c, 0, 60, 37
2, 32829, Note_on_c, 0, 60, 0
2, 32884, Note_on_c, 0, 60, 39
2, 32934, Note_on_c, 0, 60, 0
2, 32944, Note_on_c, 0, 48, 44
2, 32946, Note_on_c, 0, 62, 66
2, 32955, Note_on_c, 0, 48, 0
2, 32957, Control_c, 0, 64, 127
2, 32989, Note_on_c, 0, 62, 0
2, 32995, Control_c, 0, 64, 0
2, 33001, Note_on_c, 0, 63, 77
2, 33013, Control_c, 0, 64, 127
2, 33059, Note_on_c, 0, 63, 0
2, 33064, Control_c, 0, 64, 0
2, 33068, Note_on_c, 0, 64, 83
2, 33070, Note_on_c, 0, 45, 61
2, 33092, Note_on_c, 0, 45, 0
2, 33105, Control_c, 0, 64, 127
2, 33146, Note_on_c, 0, 64, 0
2, 33158, Note_on_c, 0, 65, 83
2, 33228, Note_on_c, 0, 65, 0
2, 33231, Control_c, 0, 64, 0
2, 33238, Note_on_c, 0, 66, 69
2, 33239, Note_on_c, 0, 55, 61
2, 33240, Note_on_c, 0, 61, 42
2, 33244, Note_on_c, 0, 65, 31
2, 33258, Control_c, 0, 64, 127
2, 33291, Note_on_c, 0, 66, 0
2, 33319, Note_on_c, 0, 71, 38
2, 33323, Note_on_c, 0, 72, 40
2, 33341, Note_on_c, 0, 71, 0
2, 33360, Note_on_c, 0, 65, 0
2, 33379, Note_on_c, 0, 61, 0
2, 33394, Note_on_c, 0, 72, 0
2, 33410, Note_on_c, 0, 77, 65
2, 33413, Note_on_c, 0, 65, 31
2, 33414, Note_on_c, 0, 61, 28
2, 33461, Note_on_c, 0, 65, 0
2, 33477, Note_on_c, 0, 55, 0
2, 33483, Note_on_c, 0, 61, 0
2, 33494, Note_on_c, 0, 80, 62
2, 33502, Note_on_c, 0, 77, 0
2, 33554, Note_on_c, 0, 80, 0
2, 33565, Note_on_c, 0, 84, 62
2, 33612, Note_on_c, 0, 84, 0
2, 33622, Note_on_c, 0, 79, 57
2, 33625, Note_on_c, 0, 50, 25
2, 33628, Control_c, 0, 64, 0
2, 33630, Note_on_c, 0, 56, 20
2, 33632, Note_on_c, 0, 60, 16
2, 33636, Note_on_c, 0, 55, 27
2, 33717, Note_on_c, 0, 50, 0
2, 33718, Control_c, 0, 64, 127
2, 33732, Note_on_c, 0, 55, 0
2, 33733, Note_on_c, 0, 56, 0
2, 33734, Note_on_c, 0, 60, 0
2, 33795, Note_on_c, 0, 60, 49
2, 33797, Note_on_c, 0, 55, 32
2, 33798, Note_on_c, 0, 56, 33
2, 33810, Control_c, 0, 64, 0
2, 33811, Note_on_c, 0, 60, 0
2, 33815, Note_on_c, 0, 55, 0
2, 33817, Note_on_c, 0, 56, 0
2, 33886, Note_on_c, 0, 79, 0
2, 33887, Note_on_c, 0, 77, 59
2, 33902, Control_c, 0, 64, 127
2, 33910, Note_on_c, 0, 77, 0
2, 33923, Note_on_c, 0, 79, 66
2, 33944, Note_on_c, 0, 79, 0
2, 33952, Control_c, 0, 64, 0
2, 33960, Note_on_c, 0, 80, 74
2, 33984, Note_on_c, 0, 80, 0
2, 33993, Note_on_c, 0, 82, 74
2, 34015, Control_c, 0, 64, 127
2, 34021, Note_on_c, 0, 82, 0
2, 34032, Note_on_c, 0, 80, 79
2, 34056, Note_on_c, 0, 80, 0
2, 34066, Control_c, 0, 64, 0
2, 34070, Note_on_c, 0, 59, 58
2, 34071, Note_on_c, 0, 79, 64
2, 34073, Note_on_c, 0, 63, 51
2, 34075, Note_on_c, 0, 53, 41
2, 34089, Note_on_c, 0, 63, 0
2, 34090, Note_on_c, 0, 53, 0
2, 34093, Note_on_c, 0, 59, 0
2, 34102, Note_on_c, 0, 79, 0
2, 34139, Note_on_c, 0, 77, 58
2, 34158, Note_on_c, 0, 77, 0
2, 34190, Note_on_c, 0, 75, 52
2, 34217, Note_on_c, 0, 75, 0
2, 34252, Note_on_c, 0, 43, 51
2, 34252, Note_on_c, 0, 74, 57
2, 34261, Note_on_c, 0, 43, 0
2, 34280, Note_on_c, 0, 74, 0
2, 34309, Note_on_c, 0, 71, 32
2, 34353, Note_on_c, 0, 71, 0
2, 34373, Note_on_c, 0, 68, 34
2, 34375, Note_on_c, 0, 62, 45
2, 34380, Note_on_c, 0, 59, 34
2, 34386, Note_on_c, 0, 62, 0
2, 34391, Note_on_c, 0, 59, 0
2, 34416, Note_on_c, 0, 68, 0
2, 34431, Note_on_c, 0, 67, 27
2, 34466, Note_on_c, 0, 67, 0
2, 34480, Control_c, 0, 64, 127
2, 34492, Note_on_c, 0, 65, 44
2, 34523, Note_on_c, 0, 65, 0
2, 34554, Control_c, 0, 64, 0
2, 34554, Note_on_c, 0, 63, 33
2, 34555, Note_on_c, 0, 48, 25
2, 34558, Note_on_c, 0, 55, 18
2, 34583, Note_on_c, 0, 63, 0
2, 34586, Note_on_c, 0, 55, 0
2, 34609, Note_on_c, 0, 63, 35
2, 34631, Note_on_c, 0, 62, 38
2, 34633, Note_on_c, 0, 63, 0
2, 34653, Note_on_c, 0, 62, 0
2, 34689, Note_on_c, 0, 63, 72
2, 34713, Note_on_c, 0, 63, 0
2, 34724, Note_on_c, 0, 48, 0
2, 34728, Note_on_c, 0, 65, 41
2, 34746, Note_on_c, 0, 65, 0
2, 34749, Note_on_c, 0, 63, 29
2, 34768, Note_on_c, 0, 63, 0
2, 34768, Note_on_c, 0, 62, 36
2, 34787, Note_on_c, 0, 62, 0
2, 34803, Note_on_c, 0, 63, 59
2, 34846, Note_on_c, 0, 63, 0
2, 34866, Note_on_c, 0, 65, 42
2, 34896, Note_on_c, 0, 65, 0
2, 34919, Note_on_c, 0, 60, 46
2, 34961, Note_on_c, 0, 60, 0
2, 34981, Note_on_c, 0, 46, 30
2, 34988, Note_on_c, 0, 55, 24
2, 35004, Note_on_c, 0, 55, 0
2, 35036, Note_on_c, 0, 46, 0
2, 35110, Note_on_c, 0, 45, 47
2, 35111, Note_on_c, 0, 55, 50
2, 35130, Note_on_c, 0, 45, 0
2, 35131, Note_on_c, 0, 55, 0
2, 35166, Note_on_c, 0, 67, 37
2, 35179, Note_on_c, 0, 67, 0
2, 35204, Note_on_c, 0, 72, 45
2, 35241, Note_on_c, 0, 75, 67
2, 35243, Note_on_c, 0, 72, 0
2, 35260, Note_on_c, 0, 75, 0
2, 35284, Note_on_c, 0, 79, 64
2, 35303, Note_on_c, 0, 79, 0
2, 35323, Note_on_c, 0, 84, 83
2, 35333, Control_c, 0, 64, 127
2, 35343, Note_on_c, 0, 84, 0
2, 35363, Note_on_c, 0, 87, 88
2, 35378, Control_c, 0, 64, 0
2, 35389, Note_on_c, 0, 87, 0
2, 35400, Note_on_c, 0, 63, 36
2, 35401, Note_on_c, 0, 55, 55
2, 35403, Control_c, 0, 64, 127
2, 35404, Note_on_c, 0, 89, 89
2, 35428, Note_on_c, 0, 89, 0
2, 35444, Note_on_c, 0, 55, 0
2, 35445, Note_on_c, 0, 87, 76
2, 35455, Note_on_c, 0, 63, 0
2, 35466, Note_on_c, 0, 87, 0
2, 35487, Note_on_c, 0, 89, 90
2, 35489, Note_on_c, 0, 65, 61
2, 35492, Note_on_c, 0, 54, 37
2, 35492, Note_on_c, 0, 58, 45
2, 35493, Control_c, 0, 64, 0
2, 35494, Note_on_c, 0, 60, 56
2, 35545, Control_c, 0, 64, 127
2, 35644, Note_on_c, 0, 89, 0
2, 35644, Note_on_c, 0, 87, 62
2, 35650, Note_on_c, 0, 60, 0
2, 35662, Note_on_c, 0, 58, 0
2, 35665, Note_on_c, 0, 65, 0
2, 35679, Note_on_c, 0, 54, 0
2, 35698, Note_on_c, 0, 87, 0
2, 35714, Note_on_c, 0, 54, 34
2, 35716, Note_on_c, 0, 86, 72
2, 35717, Note_on_c, 0, 65, 36
2, 35717, Control_c, 0, 64, 0
2, 35722, Note_on_c, 0, 58, 30
2, 35722, Note_on_c, 0, 60, 45
2, 35751, Control_c, 0, 64, 127
2, 35768, Note_on_c, 0, 60, 0
2, 35779, Note_on_c, 0, 65, 0
2, 35787, Note_on_c, 0, 58, 0
2, 35788, Note_on_c, 0, 54, 0
2, 35830, Note_on_c, 0, 77, 50
2, 35830, Note_on_c, 0, 54, 33
2, 35832, Note_on_c, 0, 65, 36
2, 35837, Note_on_c, 0, 58, 30
2, 35837, Note_on_c, 0, 60, 45
2, 35913, Note_on_c, 0, 86, 0
2, 35951, Note_on_c, 0, 77, 0
2, 35955, Note_on_c, 0, 60, 0
2, 35961, Note_on_c, 0, 65, 0
2, 35969, Note_on_c, 0, 58, 0
2, 35973, Note_on_c, 0, 54, 0
2, 36063, Note_on_c, 0, 79, 77
2, 36064, Note_on_c, 0, 72, 72
2, 36065, Note_on_c, 0, 68, 75
2, 36065, Note_on_c, 0, 67, 79
2, 36072, Note_on_c, 0, 74, 31
2, 36079, Control_c, 0, 64, 0
2, 36101, Note_on_c, 0, 74, 0
2, 36103, Note_on_c, 0, 79, 0
2, 36104, Note_on_c, 0, 68, 0
2, 36111, Note_on_c, 0, 67, 0
2, 36112, Note_on_c, 0, 72, 0
2, 36124, Note_on_c, 0, 65, 42
2, 36140, Note_on_c, 0, 65, 0
2, 36144, Control_c, 0, 64, 127
2, 36223, Control_c, 0, 64, 0
2, 36238, Note_on_c, 0, 68, 61
2, 36239, Note_on_c, 0, 74, 68
2, 36240, Note_on_c, 0, 72, 59
2, 36246, Note_on_c, 0, 60, 58
2, 36270, Control_c, 0, 64, 127
2, 36272, Note_on_c, 0, 74, 0
2, 36279, Note_on_c, 0, 72, 0
2, 36289, Note_on_c, 0, 68, 0
2, 36336, Note_on_c, 0, 60, 0
2, 36357, Note_on_c, 0, 56, 40
2, 36359, Note_on_c, 0, 68, 40
2, 36359, Note_on_c, 0, 65, 51
2, 36360, Note_on_c, 0, 72, 26
2, 36369, Note_on_c, 0, 72, 0
2, 36377, Note_on_c, 0, 68, 0
2, 36379, Note_on_c, 0, 56, 0
2, 36380, Note_on_c, 0, 65, 0
2, 36408, Note_on_c, 0, 66, 27
2, 36430, Note_on_c, 0, 66, 0
2, 36481, Control_c, 0, 64, 0
2, 36485, Note_on_c, 0, 66, 25
2, 36486, Note_on_c, 0, 68, 54
2, 36489, Note_on_c, 0, 60, 58
2, 36490, Note_on_c, 0, 65, 64
2, 36491, Note_on_c, 0, 55, 39
2, 36506, Note_on_c, 0, 66, 0
2, 36520, Note_on_c, 0, 65, 0
2, 36524, Note_on_c, 0, 60, 0
2, 36528, Note_on_c, 0, 68, 0
2, 36546, Note_on_c, 0, 55, 0
2, 36546, Note_on_c, 0, 43, 44
2, 36604, Note_on_c, 0, 43, 0
2, 36620, Note_on_c, 0, 60, 11
2, 36649, Note_on_c, 0, 60, 0
2, 36673, Note_on_c, 0, 60, 36
2, 36673, Note_on_c, 0, 67, 43
2, 36674, Note_on_c, 0, 65, 50
2, 36675, Note_on_c, 0, 55, 44
2, 36719, Control_c, 0, 64, 127
2, 36734, Note_on_c, 0, 65, 0
2, 36751, Note_on_c, 0, 60, 0
2, 36760, Note_on_c, 0, 55, 0
2, 36768, Note_on_c, 0, 67, 0
2, 36784, Note_on_c, 0, 56, 35
2, 36786, Note_on_c, 0, 68, 33
2, 36788, Note_on_c, 0, 65, 42
2, 36788, Note_on_c, 0, 60, 48
2, 36810, Note_on_c, 0, 60, 0
2, 36822, Note_on_c, 0, 65, 0
2, 36825, Note_on_c, 0, 68, 0
2, 36830, Note_on_c, 0, 56, 0
2, 36832, Control_c, 0, 64, 0
2, 36846, Note_on_c, 0, 55, 32
2, 36847, Note_on_c, 0, 60, 26
2, 36849, Note_on_c, 0, 67, 38
2, 36861, Note_on_c, 0, 55, 0
2, 36876, Note_on_c, 0, 60, 0
2, 36888, Control_c, 0, 64, 127
2, 36890, Note_on_c, 0, 67, 0
2, 36907, Note_on_c, 0, 59, 49
2, 36907, Note_on_c, 0, 65, 37
2, 36908, Control_c, 0, 64, 0
2, 36909, Note_on_c, 0, 63, 34
2, 36909, Note_on_c, 0, 53, 43
2, 36987, Control_c, 0, 64, 127
2, 37013, Note_on_c, 0, 43, 49
2, 37024, Note_on_c, 0, 59, 0
2, 37040, Note_on_c, 0, 43, 0
2, 37058, Note_on_c, 0, 53, 0
2, 37072, Note_on_c, 0, 63, 0
2, 37083, Note_on_c, 0, 59, 35
2, 37085, Note_on_c, 0, 65, 0
2, 37093, Note_on_c, 0, 59, 0
2, 37215, Note_on_c, 0, 59, 36
2, 37227, Control_c, 0, 64, 0
2, 37228, Note_on_c, 0, 59, 0
2, 37254, Control_c, 0, 64, 127
2, 37271, Note_on_c, 0, 65, 33
2, 37273, Note_on_c, 0, 67, 29
2, 37289, Note_on_c, 0, 67, 0
2, 37291, Note_on_c, 0, 65, 0
2, 37301, Note_on_c, 0, 68, 59
2, 37323, Note_on_c, 0, 68, 0
2, 37328, Control_c, 0, 64, 0
2, 37341, Note_on_c, 0, 71, 76
2, 37363, Note_on_c, 0, 71, 0
2, 37382, Note_on_c, 0, 72, 68
2, 37407, Note_on_c, 0, 72, 0
2, 37409, Control_c, 0, 64, 127
2, 37417, Note_on_c, 0, 74, 77
2, 37442, Note_on_c, 0, 74, 0
2, 37447, Control_c, 0, 64, 0
2, 37459, Note_on_c, 0, 75, 62
2, 37503, Note_on_c, 0, 75, 0
2, 37516, Note_on_c, 0, 55, 57
2, 37531, Note_on_c, 0, 55, 0
2, 37577, Note_on_c, 0, 67, 48
2, 37598, Note_on_c, 0, 67, 0
2, 37632, Note_on_c, 0, 63, 38
2, 37666, Note_on_c, 0, 63, 0
2, 37688, Note_on_c, 0, 72, 39
2, 37720, Note_on_c, 0, 72, 0
2, 37748, Note_on_c, 0, 67, 26
2, 37757, Control_c, 0, 64, 127
2, 37759, Note_on_c, 0, 67, 0
2, 37771, Control_c, 0, 64, 0
2, 37796, Note_on_c, 0, 84, 62
2, 37831, Control_c, 0, 64, 127
2, 37841, Note_on_c, 0, 84, 0
2, 37856, Note_on_c, 0, 87, 80
2, 37892, Control_c, 0, 64, 0
2, 37895, Note_on_c, 0, 87, 0
2, 37912, Note_on_c, 0, 86, 75
2, 37934, Note_on_c, 0, 86, 0
2, 37974, Note_on_c, 0, 50, 34
2, 38007, Note_on_c, 0, 50, 0
2, 38033, Note_on_c, 0, 54, 34
2, 38060, Note_on_c, 0, 54, 0
2, 38097, Note_on_c, 0, 84, 66
2, 38103, Note_on_c, 0, 72, 28
2, 38125, Control_c, 0, 64, 127
2, 38132, Note_on_c, 0, 84, 0
2, 38136, Note_on_c, 0, 72, 0
2, 38143, Control_c, 0, 64, 0
2, 38153, Note_on_c, 0, 62, 47
2, 38218, Note_on_c, 0, 62, 0
2, 38218, Note_on_c, 0, 81, 62
2, 38222, Control_c, 0, 64, 127
2, 38224, Note_on_c, 0, 69, 40
2, 38264, Note_on_c, 0, 69, 0
2, 38272, Control_c, 0, 64, 0
2, 38275, Note_on_c, 0, 66, 37
2, 38286, Note_on_c, 0, 81, 0
2, 38301, Note_on_c, 0, 66, 0
2, 38340, Note_on_c, 0, 78, 42
2, 38343, Control_c, 0, 64, 127
2, 38345, Note_on_c, 0, 69, 32
2, 38358, Note_on_c, 0, 69, 0
2, 38375, Note_on_c, 0, 78, 0
2, 38388, Control_c, 0, 64, 0
2, 38403, Note_on_c, 0, 82, 69
2, 38459, Note_on_c, 0, 55, 46
2, 38468, Note_on_c, 0, 55, 0
2, 38482, Note_on_c, 0, 82, 0
2, 38515, Note_on_c, 0, 71, 42
2, 38569, Note_on_c, 0, 71, 0
2, 38579, Note_on_c, 0, 80, 67
2, 38580, Note_on_c, 0, 65, 45
2, 38595, Note_on_c, 0, 65, 0
2, 38617, Note_on_c, 0, 80, 0
2, 38641, Note_on_c, 0, 68, 36
2, 38701, Note_on_c, 0, 59, 33
2, 38710, Note_on_c, 0, 59, 0
2, 38744, Note_on_c, 0, 68, 0
2, 38751, Note_on_c, 0, 79, 66
2, 38803, Note_on_c, 0, 79, 0
2, 38816, Note_on_c, 0, 67, 55
2, 38866, Note_on_c, 0, 55, 48
2, 38876, Note_on_c, 0, 55, 0
2, 38937, Note_on_c, 0, 77, 64
2, 38948, Note_on_c, 0, 67, 0
2, 38950, Control_c, 0, 64, 127
2, 38973, Note_on_c, 0, 77, 0
2, 38984, Control_c, 0, 64, 0
2, 38995, Note_on_c, 0, 66, 40
2, 39086, Note_on_c, 0, 66, 0
2, 39108, Note_on_c, 0, 65, 47
2, 39136, Control_c, 0, 64, 127
2, 39180, Note_on_c, 0, 74, 72
2, 39187, Note_on_c, 0, 55, 53
2, 39188, Note_on_c, 0, 65, 0
2, 39196, Note_on_c, 0, 55, 0
2, 39228, Control_c, 0, 64, 0
2, 39253, Note_on_c, 0, 62, 36
2, 39255, Note_on_c, 0, 64, 35
2, 39264, Note_on_c, 0, 64, 0
2, 39302, Note_on_c, 0, 48, 45
2, 39303, Control_c, 0, 64, 127
2, 39324, Note_on_c, 0, 48, 0
2, 39326, Note_on_c, 0, 74, 0
2, 39356, Control_c, 0, 64, 0
2, 39366, Note_on_c, 0, 62, 0
2, 39367, Note_on_c, 0, 58, 56
2, 39423, Note_on_c, 0, 64, 58
2, 39426, Note_on_c, 0, 58, 0
2, 39465, Note_on_c, 0, 64, 0
2, 39478, Note_on_c, 0, 67, 63
2, 39526, Note_on_c, 0, 67, 0
2, 39537, Note_on_c, 0, 70, 80
2, 39539, Note_on_c, 0, 60, 60
2, 39543, Control_c, 0, 64, 127
2, 39577, Control_c, 0, 64, 0
2, 39578, Note_on_c, 0, 60, 0
2, 39586, Note_on_c, 0, 70, 0
2, 39596, Note_on_c, 0, 72, 58
2, 39646, Note_on_c, 0, 72, 0
2, 39651, Control_c, 0, 64, 127
2, 39659, Note_on_c, 0, 73, 47
2, 39660, Note_on_c, 0, 58, 51
2, 39700, Note_on_c, 0, 73, 0
2, 39709, Note_on_c, 0, 58, 0
2, 39714, Control_c, 0, 64, 0
2, 39717, Note_on_c, 0, 72, 47
2, 39720, Note_on_c, 0, 64, 44
2, 39724, Note_on_c, 0, 67, 42
2, 39752, Control_c, 0, 64, 127
2, 39778, Note_on_c, 0, 67, 0
2, 39779, Note_on_c, 0, 72, 0
2, 39780, Note_on_c, 0, 48, 40
2, 39788, Note_on_c, 0, 64, 0
2, 39820, Note_on_c, 0, 48, 0
2, 39835, Note_on_c, 0, 60, 51
2, 39859, Note_on_c, 0, 60, 0
2, 39867, Note_on_c, 0, 61, 49
2, 39868, Note_on_c, 0, 48, 27
2, 39881, Note_on_c, 0, 48, 0
2, 39887, Control_c, 0, 64, 0
2, 39898, Note_on_c, 0, 61, 0
2, 39899, Note_on_c, 0, 63, 57
2, 39911, Note_on_c, 0, 63, 0
2, 39914, Note_on_c, 0, 52, 53
2, 39918, Note_on_c, 0, 64, 63
2, 39933, Note_on_c, 0, 52, 0
2, 39938, Note_on_c, 0, 64, 0
2, 39945, Note_on_c, 0, 66, 63
2, 39949, Note_on_c, 0, 54, 46
2, 39961, Note_on_c, 0, 66, 0
2, 39972, Note_on_c, 0, 54, 0
2, 39974, Note_on_c, 0, 67, 60
2, 39994, Note_on_c, 0, 69, 64
2, 39995, Note_on_c, 0, 67, 0
2, 40015, Note_on_c, 0, 58, 25
2, 40018, Note_on_c, 0, 69, 0
2, 40022, Note_on_c, 0, 70, 62
2, 40028, Note_on_c, 0, 58, 0
2, 40039, Note_on_c, 0, 70, 0
2, 40052, Note_on_c, 0, 72, 58
2, 40053, Control_c, 0, 64, 127
2, 40056, Note_on_c, 0, 60, 46
2, 40067, Note_on_c, 0, 60, 0
2, 40069, Control_c, 0, 64, 0
2, 40079, Note_on_c, 0, 73, 46
2, 40082, Note_on_c, 0, 72, 0
2, 40112, Note_on_c, 0, 73, 0
2, 40115, Note_on_c, 0, 75, 32
2, 40149, Note_on_c, 0, 76, 44
2, 40154, Note_on_c, 0, 75, 0
2, 40165, Note_on_c, 0, 76, 0
2, 40172, Control_c, 0, 64, 127
2, 40174, Note_on_c, 0, 79, 80
2, 40197, Control_c, 0, 64, 0
2, 40206, Note_on_c, 0, 79, 0
2, 40210, Note_on_c, 0, 76, 72
2, 40231, Note_on_c, 0, 76, 0
2, 40236, Note_on_c, 0, 77, 71
2, 40262, Note_on_c, 0, 77, 0
2, 40268, Note_on_c, 0, 72, 30
2, 40291, Control_c, 0, 64, 127
2, 40299, Note_on_c, 0, 72, 0
2, 40326, Note_on_c, 0, 67, 43
2, 40342, Note_on_c, 0, 67, 0
2, 40349, Control_c, 0, 64, 0
2, 40350, Note_on_c, 0, 53, 29
2, 40352, Note_on_c, 0, 70, 56
2, 40354, Note_on_c, 0, 60, 31
2, 40408, Note_on_c, 0, 68, 55
2, 40409, Note_on_c, 0, 70, 0
2, 40477, Note_on_c, 0, 60, 0
2, 40520, Note_on_c, 0, 60, 35
2, 40529, Note_on_c, 0, 60, 0
2, 40538, Control_c, 0, 64, 127
2, 40539, Note_on_c, 0, 53, 0
2, 40547, Control_c, 0, 64, 0
2, 40627, Note_on_c, 0, 60, 43
2, 40636, Note_on_c, 0, 60, 0
2, 40684, Note_on_c, 0, 68, 0
2, 40687, Note_on_c, 0, 65, 30
2, 40725, Note_on_c, 0, 65, 0
2, 40738, Note_on_c, 0, 67, 64
2, 40749, Control_c, 0, 64, 127
2, 40779, Control_c, 0, 64, 0
2, 40784, Note_on_c, 0, 67, 0
2, 40795, Note_on_c, 0, 48, 41
2, 40802, Note_on_c, 0, 68, 57
2, 40804, Note_on_c, 0, 48, 0
2, 40839, Note_on_c, 0, 68, 0
2, 40856, Note_on_c, 0, 72, 50
2, 40882, Note_on_c, 0, 72, 0
2, 40916, Note_on_c, 0, 58, 31
2, 40939, Note_on_c, 0, 58, 0
2, 40978, Note_on_c, 0, 80, 51
2, 40979, Note_on_c, 0, 68, 37
2, 40996, Note_on_c, 0, 68, 0
2, 41005, Note_on_c, 0, 80, 0
2, 41101, Note_on_c, 0, 84, 72
2, 41102, Note_on_c, 0, 72, 55
2, 41115, Note_on_c, 0, 72, 0
2, 41120, Note_on_c, 0, 84, 0
2, 41207, Control_c, 0, 64, 127
2, 41224, Note_on_c, 0, 58, 25
2, 41243, Note_on_c, 0, 58, 0
2, 41273, Control_c, 0, 64, 0
2, 41295, Control_c, 0, 64, 127
2, 41342, Note_on_c, 0, 80, 56
2, 41342, Control_c, 0, 64, 0
2, 41343, Note_on_c, 0, 75, 56
2, 41343, Note_on_c, 0, 84, 67
2, 41401, Note_on_c, 0, 72, 25
2, 41411, Note_on_c, 0, 72, 0
2, 41461, Note_on_c, 0, 70, 50
2, 41463, Note_on_c, 0, 75, 0
2, 41468, Note_on_c, 0, 84, 0
2, 41470, Note_on_c, 0, 80, 0
2, 41475, Control_c, 0, 64, 127
2, 41492, Note_on_c, 0, 70, 0
2, 41506, Control_c, 0, 64, 0
2, 41522, Note_on_c, 0, 75, 42
2, 41528, Note_on_c, 0, 72, 30
2, 41529, Note_on_c, 0, 80, 25
2, 41582, Note_on_c, 0, 68, 39
2, 41591, Note_on_c, 0, 72, 0
2, 41603, Note_on_c, 0, 68, 0
2, 41648, Note_on_c, 0, 71, 44
2, 41702, Note_on_c, 0, 71, 0
2, 41702, Control_c, 0, 64, 127
2, 41711, Note_on_c, 0, 65, 26
2, 41722, Note_on_c, 0, 71, 16
2, 41750, Note_on_c, 0, 71, 0
2, 41750, Note_on_c, 0, 75, 0
2, 41760, Note_on_c, 0, 65, 0
2, 41763, Note_on_c, 0, 80, 0
2, 41764, Control_c, 0, 64, 0
2, 41770, Note_on_c, 0, 56, 32
2, 41821, Note_on_c, 0, 56, 0
2, 41828, Note_on_c, 0, 83, 53
2, 41829, Note_on_c, 0, 75, 45
2, 41829, Note_on_c, 0, 71, 49
2, 41854, Note_on_c, 0, 83, 0
2, 41862, Note_on_c, 0, 71, 0
2, 41867, Note_on_c, 0, 75, 0
2, 41886, Note_on_c, 0, 71, 45
2, 41886, Note_on_c, 0, 75, 42
2, 41891, Note_on_c, 0, 82, 29
2, 41904, Note_on_c, 0, 75, 0
2, 41905, Note_on_c, 0, 82, 0
2, 41910, Note_on_c, 0, 71, 0
2, 41948, Note_on_c, 0, 56, 30
2, 41959, Note_on_c, 0, 56, 0
2, 41960, Control_c, 0, 64, 127
2, 41973, Control_c, 0, 64, 0
2, 42010, Note_on_c, 0, 49, 45
2, 42048, Control_c, 0, 64, 127
2, 42063, Control_c, 0, 64, 0
2, 42066, Note_on_c, 0, 49, 0
2, 42068, Note_on_c, 0, 56, 49
2, 42095, Note_on_c, 0, 56, 0
2, 42124, Note_on_c, 0, 68, 56
2, 42128, Note_on_c, 0, 63, 48
2, 42155, Note_on_c, 0, 63, 0
2, 42157, Note_on_c, 0, 68, 0
2, 42179, Note_on_c, 0, 43, 62
2, 42180, Control_c, 0, 64, 127
2, 42196, Control_c, 0, 64, 0
2, 42205, Note_on_c, 0, 43, 0
2, 42300, Note_on_c, 0, 79, 62
2, 42301, Note_on_c, 0, 67, 67
2, 42325, Note_on_c, 0, 79, 0
2, 42326, Note_on_c, 0, 67, 0
2, 42362, Note_on_c, 0, 80, 69
2, 42362, Note_on_c, 0, 63, 58
2, 42362, Note_on_c, 0, 68, 69
2, 42365, Note_on_c, 0, 59, 57
2, 42365, Note_on_c, 0, 53, 42
2, 42381, Note_on_c, 0, 63, 0
2, 42389, Note_on_c, 0, 53, 0
2, 42395, Note_on_c, 0, 59, 0
2, 42396, Note_on_c, 0, 68, 0
2, 42402, Note_on_c, 0, 80, 0
2, 42432, Note_on_c, 0, 82, 56
2, 42432, Note_on_c, 0, 70, 57
2, 42446, Note_on_c, 0, 82, 0
2, 42449, Note_on_c, 0, 70, 0
2, 42460, Control_c, 0, 64, 127
2, 42475, Control_c, 0, 64, 0
2, 42508, Note_on_c, 0, 68, 54
2, 42508, Note_on_c, 0, 80, 62
2, 42544, Note_on_c, 0, 80, 0
2, 42545, Note_on_c, 0, 68, 0
2, 42589, Note_on_c, 0, 79, 58
2, 42592, Note_on_c, 0, 67, 60
2, 42603, Control_c, 0, 64, 127
2, 42614, Note_on_c, 0, 79, 0
2, 42621, Note_on_c, 0, 67, 0
2, 42665, Note_on_c, 0, 77, 51
2, 42667, Note_on_c, 0, 65, 51
2, 42673, Control_c, 0, 64, 0
2, 42691, Note_on_c, 0, 77, 0
2, 42693, Note_on_c, 0, 65, 0
2, 42737, Note_on_c, 0, 36, 38
2, 42740, Note_on_c, 0, 76, 66
2, 42744, Note_on_c, 0, 64, 44
2, 42746, Note_on_c, 0, 52, 36
2, 42763, Control_c, 0, 64, 127
2, 42808, Note_on_c, 0, 64, 0
2, 42809, Note_on_c, 0, 52, 0
2, 42815, Note_on_c, 0, 36, 0
2, 42829, Note_on_c, 0, 43, 31
2, 42830, Note_on_c, 0, 76, 0
2, 42839, Note_on_c, 0, 43, 0
2, 42914, Note_on_c, 0, 73, 61
2, 42915, Note_on_c, 0, 70, 67
2, 42916, Note_on_c, 0, 68, 62
2, 42916, Note_on_c, 0, 63, 58
2, 42917, Note_on_c, 0, 64, 74
2, 42922, Control_c, 0, 64, 0
2, 42950, Control_c, 0, 64, 127
2, 42995, Note_on_c, 0, 73, 0
2, 42997, Note_on_c, 0, 68, 0
2, 43001, Note_on_c, 0, 63, 0
2, 43006, Note_on_c, 0, 64, 0
2, 43016, Note_on_c, 0, 70, 0
2, 43030, Note_on_c, 0, 68, 60
2, 43030, Note_on_c, 0, 72, 54
2, 43032, Note_on_c, 0, 64, 60
2, 43033, Note_on_c, 0, 70, 42
2, 43034, Note_on_c, 0, 58, 51
2, 43035, Control_c, 0, 64, 0
2, 43062, Control_c, 0, 64, 127
2, 43076, Note_on_c, 0, 72, 0
2, 43081, Note_on_c, 0, 68, 0
2, 43084, Note_on_c, 0, 70, 0
2, 43100, Note_on_c, 0, 64, 0
2, 43112, Note_on_c, 0, 58, 0
2, 43275, Note_on_c, 0, 63, 77
2, 43275, Note_on_c, 0, 67, 78
2, 43276, Note_on_c, 0, 59, 80
2, 43282, Control_c, 0, 64, 0
2, 43284, Note_on_c, 0, 51, 62
2, 43285, Note_on_c, 0, 41, 64
2, 43322, Control_c, 0, 64, 127
2, 43400, Note_on_c, 0, 59, 0
2, 43408, Note_on_c, 0, 41, 0
2, 43410, Note_on_c, 0, 51, 0
2, 43419, Note_on_c, 0, 67, 0
2, 43422, Note_on_c, 0, 63, 0
2, 43430, Control_c, 0, 64, 0
2, 43438, Note_on_c, 0, 65, 51
2, 43439, Note_on_c, 0, 61, 50
2, 43440, Note_on_c, 0, 57, 62
2, 43440, Note_on_c, 0, 41, 43
2, 43441, Note_on_c, 0, 51, 50
2, 43457, Note_on_c, 0, 51, 0
2, 43460, Note_on_c, 0, 65, 0
2, 43465, Note_on_c, 0, 41, 0
2, 43467, Note_on_c, 0, 57, 0
2, 43471, Note_on_c, 0, 61, 0
2, 43471, Control_c, 0, 64, 127
2, 43518, Control_c, 0, 64, 0
2, 43519, Note_on_c, 0, 63, 60
2, 43521, Note_on_c, 0, 59, 62
2, 43523, Note_on_c, 0, 41, 50
2, 43528, Note_on_c, 0, 53, 26
2, 43529, Note_on_c, 0, 51, 34
2, 43531, Note_on_c, 0, 41, 0
2, 43531, Note_on_c, 0, 59, 0
2, 43536, Note_on_c, 0, 53, 0
2, 43544, Note_on_c, 0, 51, 0
2, 43547, Note_on_c, 0, 63, 0
2, 43590, Control_c, 0, 64, 127
2, 43628, Control_c, 0, 64, 0
2, 43635, Note_on_c, 0, 67, 62
2, 43635, Note_on_c, 0, 63, 42
2, 43636, Note_on_c, 0, 60, 58
2, 43637, Note_on_c, 0, 46, 39
2, 43637, Note_on_c, 0, 56, 37
2, 43664, Control_c, 0, 64, 127
2, 43708, Note_on_c, 0, 46, 0
2, 43753, Note_on_c, 0, 46, 46
2, 43787, Note_on_c, 0, 46, 0
2, 43819, Note_on_c, 0, 46, 46
2, 43842, Note_on_c, 0, 60, 0
2, 43859, Note_on_c, 0, 46, 0
2, 43860, Note_on_c, 0, 63, 0
2, 43863, Note_on_c, 0, 67, 0
2, 43890, Note_on_c, 0, 46, 42
2, 43890, Note_on_c, 0, 64, 45
2, 43891, Note_on_c, 0, 62, 52
2, 43892, Note_on_c, 0, 67, 35
2, 43893, Note_on_c, 0, 59, 51
2, 43906, Control_c, 0, 64, 0
2, 43918, Control_c, 0, 64, 127
2, 43942, Note_on_c, 0, 46, 0
2, 43994, Note_on_c, 0, 46, 45
2, 44028, Note_on_c, 0, 46, 0
2, 44040, Note_on_c, 0, 59, 0
2, 44040, Note_on_c, 0, 56, 0
2, 44044, Note_on_c, 0, 64, 0
2, 44048, Note_on_c, 0, 62, 0
2, 44049, Note_on_c, 0, 67, 0
2, 44059, Note_on_c, 0, 46, 40
2, 44104, Note_on_c, 0, 46, 0
2, 44121, Note_on_c, 0, 46, 25
2, 44125, Note_on_c, 0, 58, 50
2, 44126, Note_on_c, 0, 65, 46
2, 44127, Note_on_c, 0, 67, 49
2, 44127, Note_on_c, 0, 62, 52
2, 44129, Control_c, 0, 64, 0
2, 44131, Note_on_c, 0, 55, 44
2, 44178, Control_c, 0, 64, 127
2, 44200, Note_on_c, 0, 46, 0
2, 44230, Note_on_c, 0, 46, 51
2, 44265, Note_on_c, 0, 46, 0
2, 44285, Note_on_c, 0, 46, 42
2, 44332, Note_on_c, 0, 46, 0
2, 44356, Note_on_c, 0, 46, 52
2, 44401, Note_on_c, 0, 46, 0
2, 44436, Note_on_c, 0, 55, 0
2, 44466, Note_on_c, 0, 46, 49
2, 44467, Note_on_c, 0, 55, 28
2, 44502, Note_on_c, 0, 58, 0
2, 44505, Note_on_c, 0, 65, 0
2, 44506, Note_on_c, 0, 46, 0
2, 44506, Note_on_c, 0, 55, 0
2, 44510, Note_on_c, 0, 67, 0
2, 44515, Note_on_c, 0, 62, 0
2, 44589, Control_c, 0, 64, 0
2, 44590, Note_on_c, 0, 72, 49
2, 44591, Note_on_c, 0, 62, 56
2, 44592, Note_on_c, 0, 70, 37
2, 44592, Note_on_c, 0, 48, 40
2, 44593, Note_on_c, 0, 65, 48
2, 44594, Note_on_c, 0, 58, 35
2, 44616, Control_c, 0, 64, 127
2, 44620, Note_on_c, 0, 62, 0
2, 44623, Note_on_c, 0, 65, 0
2, 44632, Note_on_c, 0, 70, 0
2, 44634, Note_on_c, 0, 72, 0
2, 44679, Note_on_c, 0, 48, 0
2, 44690, Note_on_c, 0, 58, 0
2, 44709, Note_on_c, 0, 84, 74
2, 44709, Note_on_c, 0, 72, 66
2, 44713, Note_on_c, 0, 53, 50
2, 44722, Note_on_c, 0, 83, 20
2, 44730, Note_on_c, 0, 72, 0
2, 44732, Note_on_c, 0, 83, 0
2, 44734, Note_on_c, 0, 53, 0
2, 44739, Note_on_c, 0, 84, 0
2, 44826, Note_on_c, 0, 89, 80
2, 44826, Note_on_c, 0, 77, 82
2, 44847, Note_on_c, 0, 77, 0
2, 44855, Note_on_c, 0, 89, 0
2, 44944, Note_on_c, 0, 63, 53
2, 44945, Note_on_c, 0, 53, 38
2, 44946, Note_on_c, 0, 94, 77
2, 44948, Note_on_c, 0, 82, 64
2, 44950, Note_on_c, 0, 58, 36
2, 44992, Note_on_c, 0, 53, 0
2, 45003, Note_on_c, 0, 58, 0
2, 45004, Note_on_c, 0, 82, 0
2, 45005, Note_on_c, 0, 63, 0
2, 45008, Note_on_c, 0, 94, 0
2, 45118, Note_on_c, 0, 96, 72
2, 45119, Control_c, 0, 64, 0
2, 45145, Note_on_c, 0, 96, 0
2, 45237, Note_on_c, 0, 67, 62
2, 45258, Note_on_c, 0, 67, 0
2, 45308, Note_on_c, 0, 60, 39
2, 45319, Note_on_c, 0, 60, 0
2, 45365, Note_on_c, 0, 77, 35
2, 45418, Note_on_c, 0, 77, 0
2, 45424, Note_on_c, 0, 84, 74
2, 45457, Note_on_c, 0, 84, 0
2, 45487, Note_on_c, 0, 72, 30
2, 45528, Note_on_c, 0, 72, 0
2, 45544, Note_on_c, 0, 65, 41
2, 45555, Note_on_c, 0, 65, 0
2, 45604, Note_on_c, 0, 75, 71
2, 45665, Note_on_c, 0, 71, 50
2, 45670, Note_on_c, 0, 58, 25
2, 45672, Note_on_c, 0, 75, 0
2, 45681, Note_on_c, 0, 58, 0
2, 45713, Note_on_c, 0, 71, 0
2, 45723, Note_on_c, 0, 74, 60
2, 45780, Note_on_c, 0, 58, 43
2, 45797, Note_on_c, 0, 58, 0
2, 45833, Note_on_c, 0, 74, 0
2, 45839, Note_on_c, 0, 53, 43
2, 45851, Note_on_c, 0, 53, 0
2, 45901, Note_on_c, 0, 46, 37
2, 45923, Note_on_c, 0, 46, 0
2, 45964, Note_on_c, 0, 62, 30
2, 46023, Note_on_c, 0, 74, 71
2, 46030, Note_on_c, 0, 56, 31
2, 46058, Note_on_c, 0, 62, 0
2, 46062, Note_on_c, 0, 56, 0
2, 46068, Note_on_c, 0, 74, 0
2, 46083, Note_on_c, 0, 62, 42
2, 46086, Note_on_c, 0, 70, 47
2, 46116, Note_on_c, 0, 70, 0
2, 46121, Note_on_c, 0, 62, 0
2, 46145, Note_on_c, 0, 51, 39
2, 46171, Note_on_c, 0, 51, 0
2, 46263, Note_on_c, 0, 67, 60
2, 46322, Note_on_c, 0, 45, 43
2, 46362, Note_on_c, 0, 45, 0
2, 46386, Note_on_c, 0, 45, 47
2, 46409, Note_on_c, 0, 45, 0
2, 46427, Note_on_c, 0, 67, 0
2, 46507, Note_on_c, 0, 44, 52
2, 46532, Note_on_c, 0, 44, 0
2, 46566, Note_on_c, 0, 60, 37
2, 46581, Note_on_c, 0, 60, 0
2, 46620, Note_on_c, 0, 67, 55
2, 46630, Note_on_c, 0, 67, 0
2, 46683, Note_on_c, 0, 79, 62
2, 46683, Note_on_c, 0, 67, 64
2, 46684, Note_on_c, 0, 72, 40
2, 46684, Note_on_c, 0, 63, 42
2, 46685, Note_on_c, 0, 75, 35
2, 46687, Note_on_c, 0, 71, 44
2, 46695, Note_on_c, 0, 72, 0
2, 46696, Note_on_c, 0, 63, 0
2, 46696, Note_on_c, 0, 71, 0
2, 46698, Note_on_c, 0, 75, 0
2, 46699, Note_on_c, 0, 67, 0
2, 46704, Note_on_c, 0, 79, 0
2, 46739, Note_on_c, 0, 79, 61
2, 46742, Note_on_c, 0, 63, 49
2, 46743, Note_on_c, 0, 75, 36
2, 46743, Note_on_c, 0, 67, 45
2, 46745, Note_on_c, 0, 72, 34
2, 46769, Note_on_c, 0, 63, 0
2, 46771, Note_on_c, 0, 67, 0
2, 46773, Control_c, 0, 64, 127
2, 46775, Note_on_c, 0, 75, 0
2, 46777, Note_on_c, 0, 79, 0
2, 46778, Note_on_c, 0, 72, 0
2, 46782, Control_c, 0, 64, 0
2, 46801, Note_on_c, 0, 67, 38
2, 46802, Note_on_c, 0, 76, 40
2, 46803, Note_on_c, 0, 60, 43
2, 46804, Note_on_c, 0, 72, 31
2, 46841, Note_on_c, 0, 67, 0
2, 46846, Note_on_c, 0, 72, 0
2, 46860, Note_on_c, 0, 79, 51
2, 46862, Note_on_c, 0, 60, 0
2, 46862, Note_on_c, 0, 72, 24
2, 46862, Note_on_c, 0, 67, 38
2, 46866, Note_on_c, 0, 64, 40
2, 46883, Note_on_c, 0, 72, 0
2, 46885, Note_on_c, 0, 76, 0
2, 46885, Control_c, 0, 64, 127
2, 46887, Note_on_c, 0, 67, 0
2, 46889, Note_on_c, 0, 64, 0
2, 46891, Note_on_c, 0, 79, 0
2, 46901, Control_c, 0, 64, 0
2, 46914, Note_on_c, 0, 67, 45
2, 46916, Note_on_c, 0, 76, 47
2, 46919, Note_on_c, 0, 72, 34
2, 46921, Note_on_c, 0, 60, 44
2, 46932, Note_on_c, 0, 72, 0
2, 46932, Note_on_c, 0, 67, 0
2, 46935, Note_on_c, 0, 60, 0
2, 46942, Note_on_c, 0, 76, 0
2, 46980, Note_on_c, 0, 50, 73
2, 47011, Note_on_c, 0, 50, 0
2, 47049, Note_on_c, 0, 77, 66
2, 47105, Note_on_c, 0, 68, 57
2, 47155, Note_on_c, 0, 65, 43
2, 47166, Note_on_c, 0, 65, 0
2, 47216, Note_on_c, 0, 68, 0
2, 47220, Note_on_c, 0, 67, 56
2, 47230, Note_on_c, 0, 77, 0
2, 47253, Note_on_c, 0, 67, 0
2, 47258, Control_c, 0, 64, 127
2, 47283, Note_on_c, 0, 82, 78
2, 47296, Control_c, 0, 64, 0
2, 47314, Control_c, 0, 64, 127
2, 47343, Control_c, 0, 64, 0
2, 47344, Note_on_c, 0, 70, 64
2, 47349, Note_on_c, 0, 65, 24
2, 47357, Note_on_c, 0, 65, 0
2, 47397, Control_c, 0, 64, 127
2, 47453, Note_on_c, 0, 82, 0
2, 47458, Control_c, 0, 64, 0
2, 47458, Note_on_c, 0, 43, 51
2, 47459, Note_on_c, 0, 70, 0
2, 47462, Note_on_c, 0, 69, 60
2, 47479, Note_on_c, 0, 43, 0
2, 47487, Control_c, 0, 64, 127
2, 47533, Note_on_c, 0, 69, 0
2, 47577, Note_on_c, 0, 64, 56
2, 47578, Note_on_c, 0, 83, 67
2, 47580, Note_on_c, 0, 53, 34
2, 47581, Control_c, 0, 64, 0
2, 47584, Note_on_c, 0, 59, 32
2, 47619, Control_c, 0, 64, 127
2, 47668, Note_on_c, 0, 64, 0
2, 47671, Note_on_c, 0, 59, 0
2, 47681, Note_on_c, 0, 53, 0
2, 47704, Note_on_c, 0, 82, 69
2, 47708, Note_on_c, 0, 83, 0
2, 47752, Control_c, 0, 64, 0
2, 47758, Note_on_c, 0, 43, 49
2, 47768, Note_on_c, 0, 43, 0
2, 47772, Control_c, 0, 64, 127
2, 47834, Note_on_c, 0, 80, 74
2, 47842, Note_on_c, 0, 53, 54
2, 47843, Note_on_c, 0, 63, 59
2, 47847, Note_on_c, 0, 59, 50
2, 47854, Note_on_c, 0, 82, 0
2, 47856, Control_c, 0, 64, 0
2, 47883, Note_on_c, 0, 63, 0
2, 47885, Control_c, 0, 64, 127
2, 47887, Note_on_c, 0, 59, 0
2, 47901, Note_on_c, 0, 53, 0
2, 47949, Note_on_c, 0, 80, 0
2, 47949, Note_on_c, 0, 54, 27
2, 47957, Note_on_c, 0, 79, 72
2, 47961, Control_c, 0, 64, 0
2, 47967, Note_on_c, 0, 55, 66
2, 47968, Note_on_c, 0, 48, 57
2, 47972, Note_on_c, 0, 54, 0
2, 48015, Control_c, 0, 64, 127
2, 48062, Note_on_c, 0, 79, 0
2, 48072, Note_on_c, 0, 75, 73
2, 48077, Note_on_c, 0, 60, 53
2, 48085, Note_on_c, 0, 60, 0
2, 48100, Control_c, 0, 64, 0
2, 48117, Note_on_c, 0, 75, 0
2, 48130, Note_on_c, 0, 74, 46
2, 48183, Note_on_c, 0, 74, 0
2, 48191, Note_on_c, 0, 75, 64
2, 48193, Note_on_c, 0, 79, 66
2, 48241, Note_on_c, 0, 79, 0
2, 48246, Note_on_c, 0, 75, 0
2, 48268, Note_on_c, 0, 77, 62
2, 48268, Note_on_c, 0, 74, 68
2, 48289, Control_c, 0, 64, 127
2, 48318, Control_c, 0, 64, 0
2, 48321, Note_on_c, 0, 74, 0
2, 48323, Note_on_c, 0, 77, 0
2, 48335, Note_on_c, 0, 55, 0
2, 48343, Note_on_c, 0, 75, 56
2, 48344, Note_on_c, 0, 48, 0
2, 48345, Control_c, 0, 64, 127
2, 48413, Note_on_c, 0, 75, 0
2, 48426, Note_on_c, 0, 73, 37
2, 48427, Note_on_c, 0, 45, 48
2, 48433, Control_c, 0, 64, 0
2, 48453, Note_on_c, 0, 45, 0
2, 48462, Control_c, 0, 64, 127
2, 48509, Note_on_c, 0, 73, 0
2, 48516, Control_c, 0, 64, 0
2, 48518, Note_on_c, 0, 75, 38
2, 48536, Note_on_c, 0, 73, 46
2, 48554, Note_on_c, 0, 75, 0
2, 48563, Note_on_c, 0, 72, 64
2, 48565, Note_on_c, 0, 73, 0
2, 48582, Note_on_c, 0, 72, 0
2, 48598, Note_on_c, 0, 70, 56
2, 48643, Note_on_c, 0, 70, 0
2, 48681, Note_on_c, 0, 69, 64
2, 48683, Note_on_c, 0, 61, 46
2, 48683, Note_on_c, 0, 65, 47
2, 48693, Note_on_c, 0, 65, 0
2, 48706, Note_on_c, 0, 69, 0
2, 48708, Note_on_c, 0, 61, 0
2, 48741, Note_on_c, 0, 67, 33
2, 48779, Note_on_c, 0, 67, 0
2, 48801, Note_on_c, 0, 65, 57
2, 48830, Note_on_c, 0, 65, 0
2, 48851, Note_on_c, 0, 64, 37
2, 48899, Note_on_c, 0, 64, 0
2, 48916, Note_on_c, 0, 65, 60
2, 48927, Control_c, 0, 64, 127
2, 48947, Control_c, 0, 64, 0
2, 48948, Note_on_c, 0, 65, 0
2, 48968, Note_on_c, 0, 67, 52
2, 49025, Note_on_c, 0, 67, 0
2, 49036, Note_on_c, 0, 68, 57
2, 49074, Note_on_c, 0, 68, 0
2, 49085, Note_on_c, 0, 60, 36
2, 49152, Note_on_c, 0, 56, 47
2, 49154, Control_c, 0, 64, 127
2, 49172, Control_c, 0, 64, 0
2, 49276, Note_on_c, 0, 54, 33
2, 49298, Control_c, 0, 64, 127
2, 49299, Note_on_c, 0, 56, 0
2, 49304, Control_c, 0, 64, 0
2, 49306, Note_on_c, 0, 54, 0
2, 49322, Note_on_c, 0, 55, 43
2, 49384, Note_on_c, 0, 55, 0
2, 49396, Note_on_c, 0, 49, 43
2, 49428, Note_on_c, 0, 49, 0
2, 49437, Note_on_c, 0, 50, 33
2, 49491, Note_on_c, 0, 60, 0
2, 49504, Note_on_c, 0, 50, 0
2, 49549, Note_on_c, 0, 47, 26
2, 49627, Note_on_c, 0, 47, 0
2, 49636, Note_on_c, 0, 56, 67
2, 49638, Note_on_c, 0, 65, 58
2, 49641, Note_on_c, 0, 59, 64
2, 49645, Note_on_c, 0, 42, 15
2, 49646, Note_on_c, 0, 62, 42
2, 49648, Note_on_c, 0, 59, 0
2, 49649, Note_on_c, 0, 56, 0
2, 49655, Note_on_c, 0, 62, 0
2, 49655, Note_on_c, 0, 65, 0
2, 49682, Note_on_c, 0, 42, 0
2, 49683, Note_on_c, 0, 43, 44
2, 49762, Note_on_c, 0, 38, 48
2, 49770, Note_on_c, 0, 43, 0
2, 49793, Note_on_c, 0, 38, 0
2, 49801, Note_on_c, 0, 55, 56
2, 49809, Note_on_c, 0, 35, 37
2, 49863, Note_on_c, 0, 55, 0
2, 49879, Note_on_c, 0, 65, 70
2, 49887, Note_on_c, 0, 34, 31
2, 49900, Note_on_c, 0, 35, 0
2, 49906, Note_on_c, 0, 65, 0
2, 49912, Note_on_c, 0, 36, 31
2, 49914, Note_on_c, 0, 34, 0
2, 49932, Note_on_c, 0, 63, 35
2, 49997, Note_on_c, 0, 36, 0
2, 50004, Note_on_c, 0, 55, 62
2, 50012, Note_on_c, 0, 55, 0
2, 50033, Note_on_c, 0, 63, 0
2, 50042, Note_on_c, 0, 43, 37
2, 50117, Note_on_c, 0, 42, 43
2, 50137, Note_on_c, 0, 43, 0
2, 50147, Note_on_c, 0, 42, 0
2, 50154, Note_on_c, 0, 50, 34
2, 50240, Note_on_c, 0, 50, 0
2, 50246, Note_on_c, 0, 46, 21
2, 50269, Note_on_c, 0, 46, 0
2, 50278, Note_on_c, 0, 48, 32
2, 50364, Note_on_c, 0, 55, 60
2, 50373, Note_on_c, 0, 48, 0
2, 50375, Note_on_c, 0, 46, 38
2, 50390, Note_on_c, 0, 55, 0
2, 50481, Note_on_c, 0, 67, 88
2, 50481, Note_on_c, 0, 62, 108
2, 50485, Note_on_c, 0, 57, 45
2, 50521, Note_on_c, 0, 46, 0
2, 50525, Note_on_c, 0, 62, 0
2, 50526, Note_on_c, 0, 57, 0
2, 50534, Note_on_c, 0, 63, 42
2, 50556, Note_on_c, 0, 67, 0
2, 50558, Note_on_c, 0, 62, 58
2, 50570, Note_on_c, 0, 63, 0
2, 50591, Note_on_c, 0, 62, 0
2, 50593, Note_on_c, 0, 60, 50
2, 50608, Note_on_c, 0, 44, 29
2, 50624, Note_on_c, 0, 60, 0
2, 50635, Note_on_c, 0, 59, 33
2, 50687, Note_on_c, 0, 62, 65
2, 50688, Note_on_c, 0, 59, 0
2, 50694, Note_on_c, 0, 44, 0
2, 50725, Note_on_c, 0, 60, 62
2, 50732, Note_on_c, 0, 46, 32
2, 50735, Note_on_c, 0, 62, 0
2, 50755, Note_on_c, 0, 60, 0
2, 50793, Note_on_c, 0, 55, 10
2, 50839, Note_on_c, 0, 55, 0
2, 50841, Note_on_c, 0, 44, 37
2, 50841, Note_on_c, 0, 56, 52
2, 50846, Note_on_c, 0, 46, 0
2, 50864, Note_on_c, 0, 44, 0
2, 50872, Note_on_c, 0, 56, 0
2, 50879, Note_on_c, 0, 45, 34
2, 50892, Note_on_c, 0, 57, 33
2, 50940, Note_on_c, 0, 57, 0
2, 50956, Note_on_c, 0, 60, 65
2, 50964, Note_on_c, 0, 45, 0
2, 50964, Note_on_c, 0, 33, 44
2, 50982, Note_on_c, 0, 60, 0
2, 51008, Note_on_c, 0, 63, 29
2, 51021, Note_on_c, 0, 63, 0
2, 51041, Note_on_c, 0, 67, 68
2, 51065, Note_on_c, 0, 67, 0
2, 51076, Note_on_c, 0, 33, 0
2, 51077, Note_on_c, 0, 72, 77
2, 51088, Note_on_c, 0, 39, 37
2, 51109, Note_on_c, 0, 72, 0
2, 51118, Note_on_c, 0, 75, 76
2, 51178, Note_on_c, 0, 75, 0
2, 51200, Note_on_c, 0, 77, 73
2, 51202, Note_on_c, 0, 39, 0
2, 51208, Note_on_c, 0, 43, 41
2, 51222, Note_on_c, 0, 77, 0
2, 51242, Note_on_c, 0, 75, 62
2, 51261, Note_on_c, 0, 75, 0
2, 51307, Note_on_c, 0, 43, 0
2, 51320, Note_on_c, 0, 39, 34
2, 51346, Note_on_c, 0, 39, 0
2, 51355, Note_on_c, 0, 74, 50
2, 51356, Note_on_c, 0, 64, 34
2, 51357, Note_on_c, 0, 38, 34
2, 51357, Note_on_c, 0, 70, 38
2, 51396, Control_c, 0, 64, 127
2, 51464, Note_on_c, 0, 38, 0
2, 51468, Control_c, 0, 64, 0
2, 51477, Note_on_c, 0, 50, 63
2, 51501, Control_c, 0, 64, 127
2, 51521, Note_on_c, 0, 74, 0
2, 51556, Note_on_c, 0, 70, 0
2, 51563, Note_on_c, 0, 50, 0
2, 51568, Note_on_c, 0, 51, 42
2, 51575, Note_on_c, 0, 64, 0
2, 51585, Note_on_c, 0, 51, 0
2, 51593, Control_c, 0, 64, 0
2, 51598, Note_on_c, 0, 56, 64
2, 51600, Note_on_c, 0, 64, 57
2, 51600, Note_on_c, 0, 68, 46
2, 51600, Note_on_c, 0, 72, 46
2, 51629, Control_c, 0, 64, 127
2, 51670, Note_on_c, 0, 64, 0
2, 51692, Note_on_c, 0, 72, 0
2, 51702, Note_on_c, 0, 68, 0
2, 51708, Control_c, 0, 64, 0
2, 51716, Note_on_c, 0, 44, 51
2, 51722, Note_on_c, 0, 56, 0
2, 51722, Note_on_c, 0, 60, 29
2, 51737, Control_c, 0, 64, 127
2, 51748, Note_on_c, 0, 60, 0
2, 51811, Note_on_c, 0, 50, 29
2, 51834, Note_on_c, 0, 44, 0
2, 51835, Note_on_c, 0, 50, 0
2, 51838, Note_on_c, 0, 67, 45
2, 51839, Control_c, 0, 64, 0
2, 51839, Note_on_c, 0, 55, 54
2, 51839, Note_on_c, 0, 56, 42
2, 51843, Note_on_c, 0, 60, 43
2, 51843, Note_on_c, 0, 65, 44
2, 51957, Note_on_c, 0, 43, 51
2, 51959, Note_on_c, 0, 55, 0
2, 51964, Control_c, 0, 64, 127
2, 51968, Note_on_c, 0, 67, 0
2, 51990, Note_on_c, 0, 65, 0
2, 51991, Note_on_c, 0, 60, 0
2, 52000, Note_on_c, 0, 56, 0
2, 52068, Note_on_c, 0, 43, 0
2, 52080, Note_on_c, 0, 55, 56
2, 52080, Note_on_c, 0, 43, 24
2, 52081, Control_c, 0, 64, 0
2, 52107, Note_on_c, 0, 55, 0
2, 52114, Note_on_c, 0, 43, 0
2, 52115, Note_on_c, 0, 56, 59
2, 52143, Note_on_c, 0, 56, 0
2, 52157, Note_on_c, 0, 58, 74
2, 52160, Note_on_c, 0, 46, 53
2, 52237, Note_on_c, 0, 59, 56
2, 52238, Note_on_c, 0, 58, 0
2, 52239, Note_on_c, 0, 46, 0
2, 52244, Note_on_c, 0, 47, 48
2, 52266, Note_on_c, 0, 59, 0
2, 52276, Control_c, 0, 64, 127
2, 52277, Note_on_c, 0, 47, 0
2, 52280, Note_on_c, 0, 58, 54
2, 52283, Note_on_c, 0, 46, 39
2, 52297, Control_c, 0, 64, 0
2, 52310, Note_on_c, 0, 58, 0
2, 52314, Note_on_c, 0, 46, 0
2, 52317, Note_on_c, 0, 56, 46
2, 52326, Note_on_c, 0, 43, 36
2, 52395, Note_on_c, 0, 56, 0
2, 52396, Note_on_c, 0, 55, 71
2, 52403, Note_on_c, 0, 31, 58
2, 52438, Control_c, 0, 64, 127
2, 52456, Note_on_c, 0, 43, 0
2, 52512, Note_on_c, 0, 31, 0
2, 52512, Note_on_c, 0, 43, 63
2, 52531, Note_on_c, 0, 43, 0
2, 52539, Control_c, 0, 64, 0
2, 52584, Note_on_c, 0, 56, 57
2, 52588, Note_on_c, 0, 55, 0
2, 52606, Control_c, 0, 64, 127
2, 52617, Note_on_c, 0, 56, 0
2, 52623, Note_on_c, 0, 58, 57
2, 52639, Note_on_c, 0, 43, 36
2, 52642, Note_on_c, 0, 53, 36
2, 52651, Note_on_c, 0, 58, 0
2, 52665, Control_c, 0, 64, 0
2, 52671, Note_on_c, 0, 43, 0
2, 52677, Note_on_c, 0, 59, 35
2, 52693, Note_on_c, 0, 59, 0
2, 52709, Note_on_c, 0, 60, 46
2, 52721, Note_on_c, 0, 53, 0
2, 52721, Control_c, 0, 64, 127
2, 52752, Note_on_c, 0, 63, 68
2, 52755, Note_on_c, 0, 60, 0
2, 52777, Note_on_c, 0, 63, 0
2, 52782, Control_c, 0, 64, 0
2, 52791, Note_on_c, 0, 55, 31
2, 52800, Control_c, 0, 64, 127
2, 52803, Note_on_c, 0, 67, 46
2, 52810, Note_on_c, 0, 55, 0
2, 52829, Note_on_c, 0, 67, 0
2, 52918, Note_on_c, 0, 63, 38
2, 52921, Control_c, 0, 64, 0
2, 52923, Note_on_c, 0, 60, 31
2, 52924, Note_on_c, 0, 55, 30
2, 52926, Note_on_c, 0, 57, 36
2, 52968, Note_on_c, 0, 72, 64
2, 52985, Note_on_c, 0, 72, 0
2, 52987, Note_on_c, 0, 63, 0
2, 52991, Note_on_c, 0, 60, 0
2, 52997, Control_c, 0, 64, 127
2, 53004, Note_on_c, 0, 74, 83
2, 53028, Note_on_c, 0, 74, 0
2, 53036, Control_c, 0, 64, 0
2, 53037, Note_on_c, 0, 63, 25
2, 53044, Note_on_c, 0, 75, 84
2, 53072, Note_on_c, 0, 63, 0
2, 53087, Control_c, 0, 64, 127
2, 53108, Note_on_c, 0, 75, 0
2, 53114, Note_on_c, 0, 57, 0
2, 53115, Note_on_c, 0, 77, 68
2, 53124, Note_on_c, 0, 63, 37
2, 53150, Note_on_c, 0, 63, 0
2, 53152, Control_c, 0, 64, 0
2, 53153, Note_on_c, 0, 77, 0
2, 53164, Note_on_c, 0, 55, 0
2, 53169, Note_on_c, 0, 79, 81
2, 53181, Control_c, 0, 64, 127
2, 53220, Note_on_c, 0, 79, 0
2, 53244, Note_on_c, 0, 79, 40
2, 53280, Control_c, 0, 64, 0
2, 53282, Note_on_c, 0, 60, 46
2, 53285, Note_on_c, 0, 78, 63
2, 53285, Note_on_c, 0, 54, 31
2, 53289, Note_on_c, 0, 50, 36
2, 53290, Note_on_c, 0, 79, 0
2, 53361, Note_on_c, 0, 78, 0
2, 53369, Note_on_c, 0, 75, 79
2, 53382, Note_on_c, 0, 60, 0
2, 53393, Note_on_c, 0, 75, 0
2, 53410, Note_on_c, 0, 74, 65
2, 53411, Note_on_c, 0, 50, 0
2, 53417, Note_on_c, 0, 54, 0
2, 53433, Note_on_c, 0, 74, 0
2, 53441, Note_on_c, 0, 75, 50
2, 53458, Note_on_c, 0, 74, 48
2, 53477, Note_on_c, 0, 75, 0
2, 53483, Control_c, 0, 64, 127
2, 53490, Note_on_c, 0, 74, 0
2, 53492, Note_on_c, 0, 72, 54
2, 53516, Control_c, 0, 64, 0
2, 53517, Note_on_c, 0, 72, 0
2, 53536, Note_on_c, 0, 70, 46
2, 53585, Note_on_c, 0, 70, 0
2, 53601, Note_on_c, 0, 69, 58
2, 53635, Note_on_c, 0, 69, 0
2, 53647, Note_on_c, 0, 67, 48
2, 53696, Note_on_c, 0, 67, 0
2, 53700, Control_c, 0, 64, 127
2, 53718, Note_on_c, 0, 66, 51
2, 53718, Note_on_c, 0, 54, 25
2, 53728, Note_on_c, 0, 54, 0
2, 53750, Note_on_c, 0, 66, 0
2, 53752, Control_c, 0, 64, 0
2, 53759, Note_on_c, 0, 69, 62
2, 53770, Note_on_c, 0, 43, 42
2, 53826, Control_c, 0, 64, 127
2, 53838, Note_on_c, 0, 69, 0
2, 53840, Control_c, 0, 64, 0
2, 53843, Note_on_c, 0, 66, 39
2, 53869, Note_on_c, 0, 66, 0
2, 53885, Control_c, 0, 64, 127
2, 53885, Note_on_c, 0, 67, 45
2, 53956, Note_on_c, 0, 64, 49
2, 53958, Note_on_c, 0, 59, 50
2, 53960, Note_on_c, 0, 53, 34
2, 53972, Control_c, 0, 64, 0
2, 53999, Note_on_c, 0, 53, 0
2, 54003, Note_on_c, 0, 64, 0
2, 54003, Note_on_c, 0, 59, 0
2, 54010, Note_on_c, 0, 67, 0
2, 54026, Control_c, 0, 64, 127
2, 54028, Note_on_c, 0, 64, 38
2, 54030, Note_on_c, 0, 53, 33
2, 54031, Note_on_c, 0, 59, 38
2, 54033, Note_on_c, 0, 67, 44
2, 54071, Note_on_c, 0, 64, 0
2, 54080, Note_on_c, 0, 53, 0
2, 54089, Note_on_c, 0, 59, 0
2, 54098, Control_c, 0, 64, 0
2, 54121, Note_on_c, 0, 63, 32
2, 54122, Note_on_c, 0, 59, 44
2, 54126, Note_on_c, 0, 52, 25
2, 54134, Control_c, 0, 64, 127
2, 54160, Note_on_c, 0, 59, 0
2, 54163, Note_on_c, 0, 52, 0
2, 54194, Note_on_c, 0, 63, 0
2, 54206, Note_on_c, 0, 62, 62
2, 54210, Note_on_c, 0, 53, 43
2, 54210, Note_on_c, 0, 57, 44
2, 54215, Control_c, 0, 64, 0
2, 54260, Note_on_c, 0, 43, 0
2, 54264, Control_c, 0, 64, 127
2, 54306, Note_on_c, 0, 57, 0
2, 54312, Note_on_c, 0, 43, 36
2, 54322, Note_on_c, 0, 43, 0
2, 54327, Note_on_c, 0, 53, 0
2, 54328, Note_on_c, 0, 67, 0
2, 54334, Note_on_c, 0, 62, 0
2, 54354, Control_c, 0, 64, 0
2, 54363, Note_on_c, 0, 53, 59
2, 54364, Note_on_c, 0, 63, 62
2, 54364, Note_on_c, 0, 67, 65
2, 54364, Note_on_c, 0, 59, 66
2, 54370, Note_on_c, 0, 49, 50
2, 54409, Control_c, 0, 64, 127
2, 54419, Note_on_c, 0, 59, 0
2, 54421, Note_on_c, 0, 49, 0
2, 54425, Note_on_c, 0, 53, 0
2, 54425, Note_on_c, 0, 63, 0
2, 54426, Note_on_c, 0, 67, 0
2, 54439, Control_c, 0, 64, 0
2, 54441, Note_on_c, 0, 67, 63
2, 54442, Note_on_c, 0, 63, 60
2, 54443, Note_on_c, 0, 59, 71
2, 54444, Note_on_c, 0, 53, 74
2, 54446, Note_on_c, 0, 49, 68
2, 54469, Control_c, 0, 64, 127
2, 54477, Note_on_c, 0, 59, 0
2, 54479, Note_on_c, 0, 49, 0
2, 54482, Note_on_c, 0, 63, 0
2, 54483, Note_on_c, 0, 67, 0
2, 54484, Control_c, 0, 64, 0
2, 54485, Note_on_c, 0, 53, 0
2, 54493, Note_on_c, 0, 67, 40
2, 54495, Note_on_c, 0, 53, 45
2, 54495, Note_on_c, 0, 59, 57
2, 54495, Note_on_c, 0, 63, 64
2, 54498, Note_on_c, 0, 49, 67
2, 54500, Control_c, 0, 64, 127
2, 54538, Note_on_c, 0, 49, 0
2, 54541, Note_on_c, 0, 67, 0
2, 54549, Note_on_c, 0, 59, 0
2, 54556, Note_on_c, 0, 53, 0
2, 54565, Control_c, 0, 64, 0
2, 54567, Note_on_c, 0, 53, 54
2, 54568, Note_on_c, 0, 67, 70
2, 54569, Note_on_c, 0, 59, 68
2, 54569, Note_on_c, 0, 49, 73
2, 54584, Note_on_c, 0, 59, 0
2, 54587, Note_on_c, 0, 53, 0
2, 54593, Note_on_c, 0, 67, 0
2, 54594, Control_c, 0, 64, 127
2, 54595, Note_on_c, 0, 63, 0
2, 54595, Note_on_c, 0, 49, 0
2, 54675, Control_c, 0, 64, 0
2, 54682, Note_on_c, 0, 65, 78
2, 54683, Note_on_c, 0, 36, 72
2, 54683, Note_on_c, 0, 48, 79
2, 54683, Note_on_c, 0, 62, 80
2, 54685, Note_on_c, 0, 58, 77
2, 54708, Note_on_c, 0, 36, 0
2, 54709, Control_c, 0, 64, 127
2, 54710, Note_on_c, 0, 58, 0
2, 54718, Note_on_c, 0, 48, 0
2, 54721, Note_on_c, 0, 65, 0
2, 54721, Note_on_c, 0, 62, 0
2, 54848, Note_on_c, 0, 53, 69
2, 54848, Note_on_c, 0, 77, 75
2, 54850, Note_on_c, 0, 65, 81
2, 54884, Note_on_c, 0, 53, 0
2, 54903, Note_on_c, 0, 65, 0
2, 54927, Note_on_c, 0, 77, 0
2, 55038, Note_on_c, 0, 60, 79
2, 55039, Note_on_c, 0, 84, 83
2, 55040, Note_on_c, 0, 72, 74
2, 55068, Note_on_c, 0, 60, 0
2, 55099, Note_on_c, 0, 72, 0
2, 55105, Note_on_c, 0, 84, 0
2, 55190, Control_c, 0, 64, 0
2, 55207, Note_on_c, 0, 89, 67
2, 55207, Note_on_c, 0, 48, 58
2, 55209, Note_on_c, 0, 77, 60
2, 55209, Note_on_c, 0, 58, 39
2, 55221, Control_c, 0, 64, 127
2, 55248, Note_on_c, 0, 48, 0
2, 55268, Note_on_c, 0, 58, 0
2, 55270, Note_on_c, 0, 77, 0
2, 55271, Note_on_c, 0, 89, 0
2, 55394, Note_on_c, 0, 58, 45
2, 55398, Note_on_c, 0, 64, 32
2, 55398, Note_on_c, 0, 61, 34
2, 55399, Note_on_c, 0, 85, 59
2, 55399, Note_on_c, 0, 97, 67
2, 55403, Control_c, 0, 64, 0
2, 55425, Control_c, 0, 64, 127
2, 55505, Note_on_c, 0, 64, 0
2, 55516, Note_on_c, 0, 61, 0
2, 55525, Note_on_c, 0, 97, 0
2, 55525, Note_on_c, 0, 58, 0
2, 55534, Note_on_c, 0, 85, 0
2, 55563, Note_on_c, 0, 96, 64
2, 55584, Note_on_c, 0, 96, 0
2, 55597, Note_on_c, 0, 94, 57
2, 55623, Note_on_c, 0, 94, 0
2, 55637, Control_c, 0, 64, 0
2, 55639, Note_on_c, 0, 92, 71
2, 55642, Note_on_c, 0, 41, 45
2, 55643, Note_on_c, 0, 48, 37
2, 55661, Note_on_c, 0, 41, 0
2, 55664, Control_c, 0, 64, 127
2, 55670, Note_on_c, 0, 48, 0
2, 55719, Note_on_c, 0, 92, 0
2, 55723, Note_on_c, 0, 91, 61
2, 55750, Note_on_c, 0, 91, 0
2, 55758, Note_on_c, 0, 89, 60
2, 55777, Note_on_c, 0, 89, 0
2, 55794, Note_on_c, 0, 56, 33
2, 55797, Note_on_c, 0, 60, 53
2, 55798, Note_on_c, 0, 53, 28
2, 55799, Note_on_c, 0, 87, 57
2, 55803, Control_c, 0, 64, 0
2, 55816, Note_on_c, 0, 60, 0
2, 55823, Note_on_c, 0, 53, 0
2, 55824, Note_on_c, 0, 56, 0
2, 55825, Note_on_c, 0, 87, 0
2, 55859, Control_c, 0, 64, 127
2, 55868, Control_c, 0, 64, 0
2, 55922, Control_c, 0, 64, 127
2, 55982, Note_on_c, 0, 89, 80
2, 56008, Note_on_c, 0, 89, 0
2, 56018, Note_on_c, 0, 87, 71
2, 56043, Note_on_c, 0, 87, 0
2, 56052, Control_c, 0, 64, 0
2, 56053, Note_on_c, 0, 85, 69
2, 56062, Note_on_c, 0, 48, 47
2, 56064, Note_on_c, 0, 58, 32
2, 56071, Note_on_c, 0, 48, 0
2, 56081, Note_on_c, 0, 58, 0
2, 56082, Note_on_c, 0, 85, 0
2, 56151, Note_on_c, 0, 84, 64
2, 56172, Note_on_c, 0, 84, 0
2, 56187, Note_on_c, 0, 82, 51
2, 56213, Note_on_c, 0, 82, 0
2, 56228, Note_on_c, 0, 58, 49
2, 56229, Note_on_c, 0, 76, 47
2, 56231, Note_on_c, 0, 64, 35
2, 56243, Note_on_c, 0, 64, 0
2, 56258, Note_on_c, 0, 58, 0
2, 56259, Note_on_c, 0, 76, 0
2, 56325, Note_on_c, 0, 75, 59
2, 56352, Note_on_c, 0, 75, 0
2, 56359, Note_on_c, 0, 73, 37
2, 56390, Note_on_c, 0, 73, 0
2, 56395, Note_on_c, 0, 72, 53
2, 56414, Note_on_c, 0, 72, 0
2, 56515, Note_on_c, 0, 70, 64
2, 56519, Note_on_c, 0, 48, 27
2, 56522, Note_on_c, 0, 58, 25
2, 56528, Note_on_c, 0, 48, 0
2, 56542, Note_on_c, 0, 70, 0
2, 56546, Note_on_c, 0, 58, 0
2, 56556, Note_on_c, 0, 68, 47
2, 56585, Note_on_c, 0, 68, 0
2, 56598, Note_on_c, 0, 67, 63
2, 56603, Note_on_c, 0, 56, 28
2, 56604, Note_on_c, 0, 53, 24
2, 56605, Note_on_c, 0, 60, 44
2, 56667, Note_on_c, 0, 67, 0
2, 56674, Note_on_c, 0, 68, 51
2, 56676, Note_on_c, 0, 60, 0
2, 56708, Note_on_c, 0, 68, 0
2, 56712, Note_on_c, 0, 65, 56
2, 56719, Control_c, 0, 64, 127
2, 56741, Note_on_c, 0, 65, 0
2, 56766, Note_on_c, 0, 67, 65
2, 56770, Note_on_c, 0, 60, 28
2, 56796, Note_on_c, 0, 60, 0
2, 56819, Note_on_c, 0, 56, 0
2, 56825, Note_on_c, 0, 53, 0
2, 56836, Note_on_c, 0, 67, 0
2, 56841, Note_on_c, 0, 59, 47
2, 56849, Note_on_c, 0, 53, 34
2, 56852, Control_c, 0, 64, 0
2, 56856, Note_on_c, 0, 56, 21
2, 56877, Control_c, 0, 64, 127
2, 56885, Note_on_c, 0, 56, 0
2, 56903, Note_on_c, 0, 53, 0
2, 56954, Note_on_c, 0, 53, 47
2, 56956, Note_on_c, 0, 56, 37
2, 56966, Note_on_c, 0, 53, 0
2, 56979, Note_on_c, 0, 56, 0
2, 56982, Note_on_c, 0, 59, 0
2, 57070, Note_on_c, 0, 63, 48
2, 57072, Note_on_c, 0, 54, 37
2, 57072, Control_c, 0, 64, 0
2, 57073, Note_on_c, 0, 59, 54
2, 57075, Note_on_c, 0, 58, 36
2, 57097, Control_c, 0, 64, 127
2, 57173, Note_on_c, 0, 95, 84
2, 57197, Note_on_c, 0, 95, 0
2, 57220, Note_on_c, 0, 94, 79
2, 57227, Note_on_c, 0, 63, 0
2, 57239, Note_on_c, 0, 94, 0
2, 57265, Note_on_c, 0, 59, 0
2, 57270, Note_on_c, 0, 92, 81
2, 57281, Note_on_c, 0, 58, 0
2, 57287, Note_on_c, 0, 54, 0
2, 57290, Note_on_c, 0, 92, 0
2, 57310, Note_on_c, 0, 90, 74
2, 57336, Note_on_c, 0, 90, 0
2, 57350, Note_on_c, 0, 63, 38
2, 57350, Note_on_c, 0, 89, 70
2, 57351, Control_c, 0, 64, 0
2, 57353, Note_on_c, 0, 59, 41
2, 57357, Note_on_c, 0, 53, 32
2, 57359, Note_on_c, 0, 58, 26
2, 57367, Note_on_c, 0, 89, 0
2, 57396, Note_on_c, 0, 87, 64
2, 57412, Note_on_c, 0, 87, 0
2, 57430, Note_on_c, 0, 85, 68
2, 57447, Control_c, 0, 64, 127
2, 57450, Note_on_c, 0, 85, 0
2, 57465, Note_on_c, 0, 83, 51
2, 57485, Note_on_c, 0, 83, 0
2, 57503, Note_on_c, 0, 82, 49
2, 57511, Note_on_c, 0, 82, 0
2, 57524, Note_on_c, 0, 63, 0
2, 57524, Note_on_c, 0, 59, 0
2, 57527, Note_on_c, 0, 53, 0
2, 57538, Note_on_c, 0, 81, 42
2, 57540, Note_on_c, 0, 58, 0
2, 57555, Note_on_c, 0, 81, 0
2, 57587, Note_on_c, 0, 79, 25
2, 57605, Note_on_c, 0, 79, 0
2, 57617, Note_on_c, 0, 59, 50
2, 57617, Note_on_c, 0, 63, 53
2, 57622, Note_on_c, 0, 53, 40
2, 57622, Note_on_c, 0, 79, 58
2, 57623, Control_c, 0, 64, 0
2, 57666, Control_c, 0, 64, 127
2, 57718, Note_on_c, 0, 63, 0
2, 57720, Note_on_c, 0, 59, 0
2, 57726, Note_on_c, 0, 53, 0
2, 57728, Note_on_c, 0, 71, 42
2, 57742, Note_on_c, 0, 79, 0
2, 57753, Note_on_c, 0, 71, 0
2, 57803, Note_on_c, 0, 43, 38
2, 57837, Control_c, 0, 64, 0
2, 57846, Note_on_c, 0, 63, 35
2, 57846, Note_on_c, 0, 67, 43
2, 57848, Note_on_c, 0, 59, 37
2, 57848, Note_on_c, 0, 53, 40
2, 57881, Control_c, 0, 64, 127
2, 57889, Note_on_c, 0, 43, 0
2, 57895, Note_on_c, 0, 59, 0
2, 57895, Note_on_c, 0, 67, 0
2, 57899, Note_on_c, 0, 53, 0
2, 57903, Note_on_c, 0, 63, 0
2, 57913, Note_on_c, 0, 67, 36
2, 57915, Note_on_c, 0, 43, 39
2, 57916, Note_on_c, 0, 59, 59
2, 57917, Note_on_c, 0, 63, 37
2, 57919, Note_on_c, 0, 53, 43
2, 57934, Note_on_c, 0, 59, 0
2, 57934, Note_on_c, 0, 67, 0
2, 57935, Note_on_c, 0, 53, 0
2, 57937, Control_c, 0, 64, 0
2, 57944, Note_on_c, 0, 43, 0
2, 57945, Note_on_c, 0, 63, 0
2, 57978, Control_c, 0, 64, 127
2, 58025, Control_c, 0, 64, 0
2, 58025, Note_on_c, 0, 58, 55
2, 58026, Note_on_c, 0, 68, 45
2, 58026, Note_on_c, 0, 61, 49
2, 58028, Note_on_c, 0, 48, 43
2, 58029, Note_on_c, 0, 64, 51
2, 58115, Control_c, 0, 64, 127
2, 58144, Note_on_c, 0, 36, 40
2, 58155, Note_on_c, 0, 36, 0
2, 58190, Note_on_c, 0, 36, 35
2, 58195, Note_on_c, 0, 48, 0
2, 58207, Note_on_c, 0, 64, 0
2, 58210, Note_on_c, 0, 68, 0
2, 58216, Note_on_c, 0, 61, 0
2, 58225, Note_on_c, 0, 58, 0
2, 58270, Control_c, 0, 64, 0
2, 58272, Note_on_c, 0, 61, 52
2, 58273, Note_on_c, 0, 67, 51
2, 58274, Note_on_c, 0, 58, 46
2, 58282, Note_on_c, 0, 48, 37
2, 58292, Control_c, 0, 64, 127
2, 58299, Note_on_c, 0, 58, 0
2, 58300, Note_on_c, 0, 36, 0
2, 58309, Note_on_c, 0, 61, 0
2, 58313, Note_on_c, 0, 67, 0
2, 58392, Note_on_c, 0, 36, 53
2, 58401, Note_on_c, 0, 36, 0
2, 58412, Note_on_c, 0, 48, 0
2, 58444, Note_on_c, 0, 72, 26
2, 58467, Note_on_c, 0, 73, 33
2, 58475, Note_on_c, 0, 72, 0
2, 58489, Note_on_c, 0, 73, 0
2, 58490, Note_on_c, 0, 74, 54
2, 58513, Note_on_c, 0, 74, 0
2, 58519, Note_on_c, 0, 77, 76
2, 58546, Note_on_c, 0, 77, 0
2, 58552, Note_on_c, 0, 67, 38
2, 58553, Note_on_c, 0, 63, 31
2, 58556, Note_on_c, 0, 62, 36
2, 58558, Control_c, 0, 64, 0
2, 58559, Note_on_c, 0, 57, 32
2, 58559, Note_on_c, 0, 75, 63
2, 58630, Control_c, 0, 64, 127
2, 58644, Note_on_c, 0, 57, 0
2, 58644, Note_on_c, 0, 67, 0
2, 58649, Note_on_c, 0, 75, 0
2, 58651, Note_on_c, 0, 62, 0
2, 58651, Note_on_c, 0, 63, 0
2, 58661, Control_c, 0, 64, 0
2, 58681, Note_on_c, 0, 63, 49
2, 58681, Note_on_c, 0, 75, 78
2, 58681, Note_on_c, 0, 67, 55
2, 58682, Note_on_c, 0, 79, 71
2, 58683, Note_on_c, 0, 62, 46
2, 58684, Note_on_c, 0, 57, 49
2, 58688, Control_c, 0, 64, 127
2, 58727, Note_on_c, 0, 57, 0
2, 58732, Note_on_c, 0, 67, 0
2, 58740, Note_on_c, 0, 79, 0
2, 58740, Note_on_c, 0, 62, 0
2, 58741, Note_on_c, 0, 63, 0
2, 58742, Note_on_c, 0, 75, 0
2, 58761, Note_on_c, 0, 74, 55
2, 58762, Note_on_c, 0, 77, 43
2, 58763, Note_on_c, 0, 63, 35
2, 58765, Note_on_c, 0, 67, 35
2, 58766, Note_on_c, 0, 62, 31
2, 58771, Note_on_c, 0, 57, 28
2, 58784, Note_on_c, 0, 67, 0
2, 58790, Note_on_c, 0, 57, 0
2, 58791, Note_on_c, 0, 63, 0
2, 58791, Note_on_c, 0, 62, 0
2, 58791, Note_on_c, 0, 77, 0
2, 58793, Note_on_c, 0, 74, 0
2, 58798, Control_c, 0, 64, 0
2, 58806, Note_on_c, 0, 75, 51
2, 58808, Note_on_c, 0, 79, 61
2, 58810, Note_on_c, 0, 67, 34
2, 58812, Note_on_c, 0, 63, 36
2, 58814, Note_on_c, 0, 62, 35
2, 58814, Note_on_c, 0, 57, 39
2, 58818, Control_c, 0, 64, 127
2, 58839, Note_on_c, 0, 67, 0
2, 58851, Note_on_c, 0, 63, 0
2, 58852, Note_on_c, 0, 57, 0
2, 58856, Note_on_c, 0, 62, 0
2, 58858, Note_on_c, 0, 79, 0
2, 58862, Note_on_c, 0, 75, 0
2, 58880, Note_on_c, 0, 74, 64
2, 58881, Note_on_c, 0, 67, 40
2, 58882, Note_on_c, 0, 77, 54
2, 58884, Note_on_c, 0, 63, 34
2, 58886, Control_c, 0, 64, 0
2, 58893, Note_on_c, 0, 67, 0
2, 58897, Note_on_c, 0, 74, 0
2, 58901, Note_on_c, 0, 63, 0
2, 58903, Note_on_c, 0, 77, 0
2, 58910, Control_c, 0, 64, 127
2, 58984, Control_c, 0, 64, 0
2, 58995, Note_on_c, 0, 75, 55
2, 58995, Note_on_c, 0, 72, 48
2, 58997, Note_on_c, 0, 68, 38
2, 58998, Note_on_c, 0, 67, 54
2, 59000, Note_on_c, 0, 63, 31
2, 59005, Note_on_c, 0, 56, 23
2, 59005, Note_on_c, 0, 60, 39
2, 59012, Note_on_c, 0, 67, 0
2, 59017, Note_on_c, 0, 60, 0
2, 59020, Control_c, 0, 64, 127
2, 59022, Note_on_c, 0, 63, 0
2, 59030, Note_on_c, 0, 56, 0
2, 59063, Note_on_c, 0, 68, 0
2, 59067, Note_on_c, 0, 72, 0
2, 59076, Note_on_c, 0, 75, 0
2, 59114, Note_on_c, 0, 46, 57
2, 59114, Note_on_c, 0, 34, 61
2, 59143, Note_on_c, 0, 34, 0
2, 59146, Note_on_c, 0, 46, 0
2, 59170, Note_on_c, 0, 46, 39
2, 59173, Note_on_c, 0, 34, 39
2, 59193, Note_on_c, 0, 34, 0
2, 59193, Note_on_c, 0, 46, 0
2, 59239, Note_on_c, 0, 34, 43
2, 59242, Note_on_c, 0, 46, 48
2, 59249, Note_on_c, 0, 34, 0
2, 59260, Note_on_c, 0, 46, 0
2, 59297, Note_on_c, 0, 56, 74
2, 59297, Note_on_c, 0, 67, 66
2, 59298, Note_on_c, 0, 59, 69
2, 59298, Note_on_c, 0, 62, 65
2, 59298, Note_on_c, 0, 64, 61
2, 59303, Control_c, 0, 64, 0
2, 59339, Control_c, 0, 64, 127
2, 59346, Note_on_c, 0, 56, 0
2, 59347, Note_on_c, 0, 62, 0
2, 59347, Note_on_c, 0, 59, 0
2, 59348, Note_on_c, 0, 67, 0
2, 59353, Note_on_c, 0, 64, 0
2, 59377, Note_on_c, 0, 67, 59
2, 59378, Note_on_c, 0, 56, 56
2, 59379, Note_on_c, 0, 59, 51
2, 59380, Note_on_c, 0, 62, 62
2, 59380, Control_c, 0, 64, 0
2, 59380, Note_on_c, 0, 64, 50
2, 59427, Control_c, 0, 64, 127
2, 59466, Note_on_c, 0, 64, 0
2, 59468, Note_on_c, 0, 56, 0
2, 59469, Note_on_c, 0, 59, 0
2, 59473, Note_on_c, 0, 62, 0
2, 59477, Note_on_c, 0, 67, 0
2, 59485, Note_on_c, 0, 46, 53
2, 59517, Note_on_c, 0, 46, 0
2, 59581, Note_on_c, 0, 65, 59
2, 59581, Note_on_c, 0, 55, 66
2, 59583, Note_on_c, 0, 46, 59
2, 59583, Note_on_c, 0, 59, 60
2, 59584, Note_on_c, 0, 62, 64
2, 59585, Control_c, 0, 64, 0
2, 59603, Note_on_c, 0, 55, 0
2, 59614, Note_on_c, 0, 59, 0
2, 59615, Note_on_c, 0, 65, 0
2, 59617, Note_on_c, 0, 62, 0
2, 59620, Note_on_c, 0, 46, 0
2, 59665, Note_on_c, 0, 46, 49
2, 59667, Note_on_c, 0, 65, 44
2, 59668, Note_on_c, 0, 59, 60
2, 59668, Note_on_c, 0, 62, 54
2, 59670, Note_on_c, 0, 55, 53
2, 59685, Note_on_c, 0, 55, 0
2, 59690, Note_on_c, 0, 59, 0
2, 59690, Control_c, 0, 64, 127
2, 59695, Note_on_c, 0, 65, 0
2, 59699, Note_on_c, 0, 46, 0
2, 59699, Note_on_c, 0, 62, 0
2, 59735, Control_c, 0, 64, 0
2, 59747, Note_on_c, 0, 46, 46
2, 59748, Note_on_c, 0, 59, 57
2, 59748, Note_on_c, 0, 62, 53
2, 59751, Note_on_c, 0, 65, 38
2, 59752, Note_on_c, 0, 55, 53
2, 59767, Control_c, 0, 64, 127
2, 59775, Note_on_c, 0, 59, 0
2, 59778, Note_on_c, 0, 55, 0
2, 59783, Note_on_c, 0, 62, 0
2, 59787, Note_on_c, 0, 46, 0
2, 59792, Note_on_c, 0, 65, 0
2, 59844, Note_on_c, 0, 63, 55
2, 59846, Note_on_c, 0, 58, 56
2, 59847, Note_on_c, 0, 46, 37
2, 59848, Note_on_c, 0, 55, 49
2, 59854, Control_c, 0, 64, 0
2, 59865, Control_c, 0, 64, 127
2, 59883, Note_on_c, 0, 46, 0
2, 59938, Note_on_c, 0, 55, 0
2, 59956, Note_on_c, 0, 63, 0
2, 59962, Note_on_c, 0, 58, 0
2, 59993, Control_c, 0, 64, 0
2, 60000, Note_on_c, 0, 42, 35
2, 60000, Note_on_c, 0, 62, 62
2, 60001, Note_on_c, 0, 30, 34
2, 60003, Note_on_c, 0, 53, 48
2, 60003, Note_on_c, 0, 58, 46
2, 60023, Control_c, 0, 64, 127
2, 60051, Note_on_c, 0, 53, 0
2, 60056, Note_on_c, 0, 30, 0
2, 60068, Note_on_c, 0, 42, 0
2, 60074, Note_on_c, 0, 58, 0
2, 60079, Note_on_c, 0, 62, 0
2, 60196, Note_on_c, 0, 72, 54
2, 60197, Note_on_c, 0, 68, 46
2, 60197, Note_on_c, 0, 64, 60
2, 60203, Note_on_c, 0, 58, 51
2, 60205, Control_c, 0, 64, 0
2, 60227, Control_c, 0, 64, 127
2, 60265, Note_on_c, 0, 58, 0
2, 60316, Note_on_c, 0, 58, 49
2, 60341, Note_on_c, 0, 64, 0
2, 60360, Note_on_c, 0, 72, 0
2, 60360, Note_on_c, 0, 68, 0
2, 60387, Note_on_c, 0, 58, 0
2, 60477, Note_on_c, 0, 79, 52
2, 60479, Note_on_c, 0, 63, 53
2, 60481, Note_on_c, 0, 75, 43
2, 60482, Note_on_c, 0, 72, 34
2, 60485, Note_on_c, 0, 68, 26
2, 60485, Control_c, 0, 64, 0
2, 60506, Control_c, 0, 64, 127
2, 60540, Note_on_c, 0, 63, 0
2, 60540, Note_on_c, 0, 79, 0
2, 60560, Note_on_c, 0, 72, 0
2, 60562, Note_on_c, 0, 75, 0
2, 60562, Note_on_c, 0, 53, 48
2, 60576, Note_on_c, 0, 68, 0
2, 60687, Note_on_c, 0, 72, 60
2, 60688, Note_on_c, 0, 63, 67
2, 60692, Note_on_c, 0, 68, 42
2, 60693, Note_on_c, 0, 58, 50
2, 60733, Note_on_c, 0, 63, 0
2, 60735, Note_on_c, 0, 72, 0
2, 60737, Note_on_c, 0, 68, 0
2, 60742, Note_on_c, 0, 58, 0
2, 60751, Control_c, 0, 64, 0
2, 60752, Note_on_c, 0, 53, 0
2, 60754, Note_on_c, 0, 71, 39
2, 60756, Note_on_c, 0, 56, 40
2, 60760, Note_on_c, 0, 62, 40
2, 60761, Note_on_c, 0, 67, 48
2, 60771, Control_c, 0, 64, 127
2, 60777, Note_on_c, 0, 62, 0
2, 60808, Note_on_c, 0, 71, 0
2, 60810, Note_on_c, 0, 67, 0
2, 60833, Note_on_c, 0, 63, 67
2, 60833, Note_on_c, 0, 72, 47
2, 60835, Note_on_c, 0, 58, 49
2, 60835, Note_on_c, 0, 68, 44
2, 60840, Control_c, 0, 64, 0
2, 60846, Note_on_c, 0, 56, 0
2, 60856, Control_c, 0, 64, 127
2, 60859, Note_on_c, 0, 58, 0
2, 60860, Note_on_c, 0, 63, 0
2, 60862, Note_on_c, 0, 72, 0
2, 60863, Note_on_c, 0, 68, 0
2, 60939, Note_on_c, 0, 70, 60
2, 60941, Note_on_c, 0, 61, 53
2, 60943, Note_on_c, 0, 56, 34
2, 60943, Note_on_c, 0, 66, 43
2, 60946, Control_c, 0, 64, 0
2, 60986, Control_c, 0, 64, 127
2, 61015, Note_on_c, 0, 70, 0
2, 61018, Note_on_c, 0, 66, 0
2, 61026, Note_on_c, 0, 61, 0
2, 61053, Note_on_c, 0, 46, 42
2, 61056, Note_on_c, 0, 64, 53
2, 61057, Note_on_c, 0, 68, 46
2, 61058, Note_on_c, 0, 59, 47
2, 61065, Control_c, 0, 64, 0
2, 61085, Note_on_c, 0, 59, 0
2, 61086, Note_on_c, 0, 56, 0
2, 61103, Note_on_c, 0, 64, 0
2, 61104, Note_on_c, 0, 68, 0
2, 61117, Control_c, 0, 64, 127
2, 61130, Note_on_c, 0, 70, 58
2, 61133, Note_on_c, 0, 66, 58
2, 61139, Note_on_c, 0, 56, 31
2, 61160, Note_on_c, 0, 66, 0
2, 61166, Note_on_c, 0, 70, 0
2, 61167, Note_on_c, 0, 56, 0
2, 61202, Control_c, 0, 64, 0
2, 61205, Note_on_c, 0, 64, 46
2, 61205, Note_on_c, 0, 68, 46
2, 61207, Note_on_c, 0, 59, 49
2, 61209, Note_on_c, 0, 56, 39
2, 61229, Note_on_c, 0, 46, 0
2, 61234, Control_c, 0, 64, 127
2, 61284, Note_on_c, 0, 56, 0
2, 61285, Note_on_c, 0, 46, 40
2, 61288, Note_on_c, 0, 64, 0
2, 61301, Note_on_c, 0, 68, 0
2, 61316, Note_on_c, 0, 46, 0
2, 61321, Note_on_c, 0, 59, 0
2, 61438, Control_c, 0, 64, 0
2, 61441, Note_on_c, 0, 59, 50
2, 61442, Note_on_c, 0, 55, 47
2, 61442, Note_on_c, 0, 62, 51
2, 61442, Note_on_c, 0, 39, 38
2, 61443, Note_on_c, 0, 67, 44
2, 61445, Note_on_c, 0, 47, 41
2, 61488, Control_c, 0, 64, 127
2, 61575, Note_on_c, 0, 59, 0
2, 61579, Note_on_c, 0, 62, 0
2, 61586, Note_on_c, 0, 55, 0
2, 61637, Note_on_c, 0, 67, 0
2, 61642, Note_on_c, 0, 63, 47
2, 61646, Note_on_c, 0, 47, 0
2, 61647, Note_on_c, 0, 55, 47
2, 61648, Note_on_c, 0, 60, 51
2, 61651, Note_on_c, 0, 48, 42
2, 61655, Note_on_c, 0, 39, 0
2, 61661, Note_on_c, 0, 55, 0
2, 61664, Note_on_c, 0, 60, 0
2, 61677, Note_on_c, 0, 63, 0
2, 61687, Note_on_c, 0, 48, 0
2, 61724, Note_on_c, 0, 44, 50
2, 61728, Note_on_c, 0, 64, 71
2, 61730, Note_on_c, 0, 72, 64
2, 61733, Control_c, 0, 64, 0
2, 61778, Control_c, 0, 64, 127
2, 61800, Note_on_c, 0, 52, 35
2, 61826, Note_on_c, 0, 64, 0
2, 61877, Note_on_c, 0, 44, 0
2, 61883, Note_on_c, 0, 67, 49
2, 61884, Note_on_c, 0, 64, 36
2, 61885, Note_on_c, 0, 60, 50
2, 61886, Control_c, 0, 64, 0
2, 61888, Note_on_c, 0, 52, 0
2, 61890, Note_on_c, 0, 55, 53
2, 61912, Control_c, 0, 64, 127
2, 61971, Note_on_c, 0, 60, 0
2, 61978, Note_on_c, 0, 55, 0
2, 61986, Note_on_c, 0, 56, 67
2, 61989, Control_c, 0, 64, 0
2, 61995, Note_on_c, 0, 64, 0
2, 62000, Note_on_c, 0, 72, 0
2, 62008, Note_on_c, 0, 67, 0
2, 62016, Control_c, 0, 64, 127
2, 62113, Note_on_c, 0, 60, 66
2, 62144, Control_c, 0, 64, 0
2, 62165, Note_on_c, 0, 67, 48
2, 62177, Control_c, 0, 64, 127
2, 62183, Note_on_c, 0, 67, 0
2, 62204, Note_on_c, 0, 72, 49
2, 62225, Note_on_c, 0, 72, 0
2, 62236, Control_c, 0, 64, 0
2, 62240, Note_on_c, 0, 75, 76
2, 62256, Note_on_c, 0, 60, 0
2, 62264, Note_on_c, 0, 75, 0
2, 62276, Note_on_c, 0, 56, 0
2, 62280, Note_on_c, 0, 77, 69
2, 62308, Note_on_c, 0, 77, 0
2, 62319, Note_on_c, 0, 79, 80
2, 62351, Note_on_c, 0, 79, 0
2, 62354, Note_on_c, 0, 77, 62
2, 62384, Note_on_c, 0, 77, 0
2, 62395, Note_on_c, 0, 72, 18
2, 62419, Note_on_c, 0, 72, 0
2, 62433, Note_on_c, 0, 68, 29
2, 62464, Note_on_c, 0, 68, 0
2, 62475, Note_on_c, 0, 67, 29
2, 62503, Note_on_c, 0, 60, 32
2, 62505, Note_on_c, 0, 50, 25
2, 62506, Note_on_c, 0, 56, 29
2, 62528, Control_c, 0, 64, 127
2, 62545, Note_on_c, 0, 60, 0
2, 62551, Note_on_c, 0, 50, 0
2, 62554, Note_on_c, 0, 56, 0
2, 62710, Note_on_c, 0, 50, 58
2, 62728, Control_c, 0, 64, 0
2, 62731, Note_on_c, 0, 50, 0
2, 62757, Note_on_c, 0, 43, 58
2, 62766, Control_c, 0, 64, 127
2, 62814, Note_on_c, 0, 43, 0
2, 62832, Note_on_c, 0, 43, 57
2, 62851, Note_on_c, 0, 43, 0
2, 62898, Note_on_c, 0, 67, 0
2, 62953, Note_on_c, 0, 53, 34
2, 62954, Note_on_c, 0, 63, 42
2, 62955, Note_on_c, 0, 59, 44
2, 62966, Control_c, 0, 64, 0
2, 62968, Control_c, 0, 64, 127
2, 63044, Note_on_c, 0, 94, 80
2, 63051, Note_on_c, 0, 63, 0
2, 63063, Note_on_c, 0, 94, 0
2, 63078, Note_on_c, 0, 92, 71
2, 63092, Control_c, 0, 64, 0
2, 63093, Note_on_c, 0, 59, 0
2, 63108, Note_on_c, 0, 92, 0
2, 63110, Note_on_c, 0, 87, 65
2, 63115, Note_on_c, 0, 53, 0
2, 63131, Note_on_c, 0, 87, 0
2, 63143, Note_on_c, 0, 83, 41
2, 63148, Control_c, 0, 64, 127
2, 63159, Note_on_c, 0, 83, 0
2, 63171, Note_on_c, 0, 82, 52
2, 63178, Note_on_c, 0, 62, 33
2, 63183, Note_on_c, 0, 53, 24
2, 63183, Note_on_c, 0, 59, 33
2, 63188, Note_on_c, 0, 62, 0
2, 63197, Note_on_c, 0, 59, 0
2, 63198, Note_on_c, 0, 82, 0
2, 63203, Note_on_c, 0, 80, 49
2, 63204, Control_c, 0, 64, 0
2, 63209, Note_on_c, 0, 53, 0
2, 63224, Note_on_c, 0, 80, 0
2, 63233, Note_on_c, 0, 79, 38
2, 63252, Note_on_c, 0, 79, 0
2, 63260, Control_c, 0, 64, 127
2, 63261, Note_on_c, 0, 77, 47
2, 63283, Note_on_c, 0, 77, 0
2, 63293, Note_on_c, 0, 75, 36
2, 63324, Note_on_c, 0, 75, 0
2, 63336, Note_on_c, 0, 74, 41
2, 63352, Note_on_c, 0, 74, 0
2, 63358, Note_on_c, 0, 48, 31
2, 63364, Note_on_c, 0, 77, 53
2, 63366, Note_on_c, 0, 55, 30
2, 63373, Control_c, 0, 64, 0
2, 63392, Note_on_c, 0, 77, 0
2, 63393, Note_on_c, 0, 74, 40
2, 63408, Note_on_c, 0, 74, 0
2, 63422, Note_on_c, 0, 75, 62
2, 63446, Note_on_c, 0, 75, 0
2, 63457, Note_on_c, 0, 67, 51
2, 63463, Control_c, 0, 64, 127
2, 63467, Note_on_c, 0, 67, 0
2, 63501, Control_c, 0, 64, 0
2, 63510, Note_on_c, 0, 60, 22
2, 63523, Note_on_c, 0, 60, 0
2, 63562, Note_on_c, 0, 67, 30
2, 63570, Control_c, 0, 64, 127
2, 63572, Note_on_c, 0, 67, 0
2, 63597, Control_c, 0, 64, 0
2, 63599, Note_on_c, 0, 67, 58
2, 63618, Note_on_c, 0, 67, 0
2, 63625, Note_on_c, 0, 68, 52
2, 63642, Note_on_c, 0, 55, 0
2, 63651, Note_on_c, 0, 67, 40
2, 63653, Note_on_c, 0, 68, 0
2, 63660, Control_c, 0, 64, 127
2, 63681, Note_on_c, 0, 67, 0
2, 63688, Note_on_c, 0, 65, 43
2, 63701, Note_on_c, 0, 65, 0
2, 63707, Note_on_c, 0, 55, 44
2, 63719, Note_on_c, 0, 55, 0
2, 63724, Note_on_c, 0, 67, 63
2, 63725, Control_c, 0, 64, 0
2, 63734, Note_on_c, 0, 48, 0
2, 63762, Note_on_c, 0, 67, 0
2, 63767, Note_on_c, 0, 68, 34
2, 63772, Control_c, 0, 64, 127
2, 63784, Note_on_c, 0, 67, 43
2, 63790, Note_on_c, 0, 68, 0
2, 63808, Note_on_c, 0, 67, 0
2, 63811, Note_on_c, 0, 65, 41
2, 63824, Note_on_c, 0, 65, 0
2, 63829, Control_c, 0, 64, 0
2, 63832, Note_on_c, 0, 45, 33
2, 63837, Note_on_c, 0, 67, 51
2, 63840, Note_on_c, 0, 55, 24
2, 63860, Control_c, 0, 64, 127
2, 63882, Note_on_c, 0, 45, 0
2, 63903, Note_on_c, 0, 55, 0
2, 64007, Note_on_c, 0, 67, 0
2, 64007, Note_on_c, 0, 68, 60
2, 64034, Note_on_c, 0, 68, 0
2, 64043, Note_on_c, 0, 69, 63
2, 64069, Control_c, 0, 64, 0
2, 64079, Note_on_c, 0, 69, 0
2, 64121, Control_c, 0, 64, 127
2, 64127, Note_on_c, 0, 72, 58
2, 64134, Note_on_c, 0, 61, 42
2, 64138, Note_on_c, 0, 65, 31
2, 64140, Note_on_c, 0, 55, 36
2, 64154, Note_on_c, 0, 72, 0
2, 64162, Note_on_c, 0, 73, 46
2, 64192, Note_on_c, 0, 73, 0
2, 64200, Note_on_c, 0, 75, 42
2, 64201, Control_c, 0, 64, 0
2, 64209, Note_on_c, 0, 65, 0
2, 64223, Note_on_c, 0, 61, 0
2, 64228, Note_on_c, 0, 55, 0
2, 64233, Note_on_c, 0, 75, 0
2, 64239, Note_on_c, 0, 76, 67
2, 64259, Note_on_c, 0, 76, 0
2, 64262, Control_c, 0, 64, 127
2, 64271, Note_on_c, 0, 79, 84
2, 64301, Note_on_c, 0, 79, 0
2, 64305, Control_c, 0, 64, 0
2, 64310, Note_on_c, 0, 50, 26
2, 64311, Note_on_c, 0, 60, 31
2, 64311, Note_on_c, 0, 77, 57
2, 64313, Note_on_c, 0, 56, 30
2, 64338, Note_on_c, 0, 77, 0
2, 64350, Note_on_c, 0, 72, 47
2, 64363, Control_c, 0, 64, 127
2, 64379, Note_on_c, 0, 72, 0
2, 64387, Note_on_c, 0, 68, 35
2, 64415, Note_on_c, 0, 68, 0
2, 64417, Note_on_c, 0, 60, 0
2, 64426, Control_c, 0, 64, 0
2, 64432, Note_on_c, 0, 67, 39
2, 64483, Note_on_c, 0, 67, 0
2, 64489, Note_on_c, 0, 56, 0
2, 64498, Control_c, 0, 64, 127
2, 64517, Note_on_c, 0, 68, 60
2, 64518, Control_c, 0, 64, 0
2, 64519, Note_on_c, 0, 72, 48
2, 64541, Note_on_c, 0, 72, 0
2, 64548, Note_on_c, 0, 68, 0
2, 64563, Note_on_c, 0, 67, 54
2, 64566, Note_on_c, 0, 72, 19
2, 64589, Note_on_c, 0, 67, 0
2, 64595, Note_on_c, 0, 72, 0
2, 64597, Note_on_c, 0, 50, 0
2, 64603, Note_on_c, 0, 65, 29
2, 64615, Note_on_c, 0, 65, 0
2, 64636, Note_on_c, 0, 67, 64
2, 64645, Note_on_c, 0, 56, 31
2, 64646, Note_on_c, 0, 60, 33
2, 64647, Note_on_c, 0, 50, 29
2, 64659, Note_on_c, 0, 60, 0
2, 64672, Note_on_c, 0, 56, 0
2, 64673, Note_on_c, 0, 67, 0
2, 64679, Note_on_c, 0, 50, 0
2, 64725, Note_on_c, 0, 65, 51
2, 64747, Control_c, 0, 64, 127
2, 64751, Note_on_c, 0, 65, 0
2, 64760, Note_on_c, 0, 63, 42
2, 64790, Note_on_c, 0, 63, 0
2, 64794, Control_c, 0, 64, 0
2, 64798, Note_on_c, 0, 43, 41
2, 64800, Note_on_c, 0, 53, 33
2, 64805, Note_on_c, 0, 62, 45
2, 64810, Note_on_c, 0, 43, 0
2, 64815, Note_on_c, 0, 53, 0
2, 64831, Note_on_c, 0, 62, 0
2, 64838, Note_on_c, 0, 63, 48
2, 64864, Note_on_c, 0, 63, 0
2, 64878, Note_on_c, 0, 65, 75
2, 64906, Note_on_c, 0, 65, 0
2, 64916, Note_on_c, 0, 62, 59
2, 64942, Note_on_c, 0, 62, 0
2, 64960, Note_on_c, 0, 59, 26
2, 64984, Note_on_c, 0, 59, 0
2, 64988, Control_c, 0, 64, 127
2, 64992, Note_on_c, 0, 56, 52
2, 65023, Control_c, 0, 64, 0
2, 65024, Note_on_c, 0, 56, 0
2, 65039, Note_on_c, 0, 53, 24
2, 65043, Note_on_c, 0, 55, 52
2, 65063, Note_on_c, 0, 53, 0
2, 65069, Note_on_c, 0, 55, 0
2, 65118, Control_c, 0, 64, 127
2, 65119, Note_on_c, 0, 53, 55
2, 65133, Note_on_c, 0, 53, 0
2, 65143, Control_c, 0, 64, 0
2, 65165, Note_on_c, 0, 56, 37
2, 65181, Note_on_c, 0, 56, 0
2, 65202, Note_on_c, 0, 59, 49
2, 65217, Note_on_c, 0, 59, 0
2, 65241, Note_on_c, 0, 62, 91
2, 65246, Control_c, 0, 64, 127
2, 65268, Note_on_c, 0, 62, 0
2, 65277, Control_c, 0, 64, 0
2, 65279, Note_on_c, 0, 24, 61
2, 65280, Note_on_c, 0, 36, 54
2, 65282, Note_on_c, 0, 65, 80
2, 65299, Note_on_c, 0, 24, 0
2, 65301, Note_on_c, 0, 36, 0
2, 65311, Note_on_c, 0, 65, 0
2, 65374, Note_on_c, 0, 55, 71
2, 65391, Note_on_c, 0, 55, 0
2, 65426, Note_on_c, 0, 55, 44
2, 65428, Note_on_c, 0, 48, 33
2, 65438, Note_on_c, 0, 55, 0
2, 65442, Note_on_c, 0, 48, 0
2, 65464, Note_on_c, 0, 60, 57
2, 65490, Note_on_c, 0, 60, 0
2, 65501, Note_on_c, 0, 63, 61
2, 65515, Note_on_c, 0, 63, 0
2, 65539, Note_on_c, 0, 67, 64
2, 65549, Note_on_c, 0, 67, 0
2, 65574, Note_on_c, 0, 72, 57
2, 65587, Control_c, 0, 64, 127
2, 65593, Note_on_c, 0, 72, 0
2, 65606, Note_on_c, 0, 74, 70
2, 65629, Note_on_c, 0, 74, 0
2, 65641, Note_on_c, 0, 75, 74
2, 65653, Control_c, 0, 64, 0
2, 65670, Note_on_c, 0, 75, 0
2, 65677, Note_on_c, 0, 77, 68
2, 65700, Note_on_c, 0, 77, 0
2, 65702, Control_c, 0, 64, 127
2, 65713, Control_c, 0, 64, 0
2, 65716, Note_on_c, 0, 75, 69
2, 65720, Note_on_c, 0, 55, 60
2, 65720, Note_on_c, 0, 46, 42
2, 65763, Control_c, 0, 64, 127
2, 65822, Note_on_c, 0, 74, 73
2, 65830, Note_on_c, 0, 75, 0
2, 65832, Note_on_c, 0, 55, 0
2, 65847, Note_on_c, 0, 74, 0
2, 65855, Note_on_c, 0, 72, 50
2, 65882, Control_c, 0, 64, 0
2, 65888, Note_on_c, 0, 72, 0
2, 65889, Note_on_c, 0, 55, 50
2, 65895, Note_on_c, 0, 67, 45
2, 65909, Control_c, 0, 64, 127
2, 65945, Note_on_c, 0, 46, 0
2, 65958, Note_on_c, 0, 67, 0
2, 65963, Note_on_c, 0, 46, 46
2, 65964, Note_on_c, 0, 55, 0
2, 66006, Note_on_c, 0, 63, 54
2, 66007, Control_c, 0, 64, 0
2, 66015, Note_on_c, 0, 55, 30
2, 66026, Note_on_c, 0, 63, 0
2, 66030, Note_on_c, 0, 55, 0
2, 66041, Note_on_c, 0, 62, 43
2, 66053, Note_on_c, 0, 46, 0
2, 66067, Note_on_c, 0, 62, 0
2, 66075, Note_on_c, 0, 60, 66
2, 66075, Note_on_c, 0, 46, 40
2, 66079, Note_on_c, 0, 55, 38
2, 66127, Control_c, 0, 64, 127
2, 66140, Note_on_c, 0, 55, 0
2, 66145, Note_on_c, 0, 46, 0
2, 66149, Control_c, 0, 64, 0
2, 66151, Control_c, 0, 64, 127
2, 66153, Note_on_c, 0, 60, 0
2, 66166, Note_on_c, 0, 58, 44
2, 66182, Note_on_c, 0, 46, 29
2, 66198, Note_on_c, 0, 58, 0
2, 66202, Note_on_c, 0, 57, 55
2, 66234, Note_on_c, 0, 46, 0
2, 66239, Control_c, 0, 64, 0
2, 66245, Note_on_c, 0, 57, 0
2, 66246, Note_on_c, 0, 55, 55
2, 66248, Note_on_c, 0, 45, 53
2, 66263, Control_c, 0, 64, 127
2, 66268, Note_on_c, 0, 55, 0
2, 66270, Note_on_c, 0, 45, 0
2, 66363, Note_on_c, 0, 63, 54
2, 66364, Note_on_c, 0, 75, 71
2, 66367, Control_c, 0, 64, 0
2, 66373, Note_on_c, 0, 55, 32
2, 66373, Note_on_c, 0, 57, 36
2, 66374, Note_on_c, 0, 60, 30
2, 66388, Note_on_c, 0, 60, 0
2, 66388, Note_on_c, 0, 63, 0
2, 66389, Note_on_c, 0, 75, 0
2, 66399, Note_on_c, 0, 74, 66
2, 66412, Note_on_c, 0, 55, 0
2, 66412, Note_on_c, 0, 57, 0
2, 66432, Note_on_c, 0, 74, 0
2, 66439, Note_on_c, 0, 72, 40
2, 66441, Control_c, 0, 64, 127
2, 66447, Note_on_c, 0, 63, 31
2, 66447, Note_on_c, 0, 55, 30
2, 66456, Note_on_c, 0, 63, 0
2, 66496, Note_on_c, 0, 55, 0
2, 66513, Note_on_c, 0, 72, 0
2, 66534, Note_on_c, 0, 79, 62
2, 66540, Note_on_c, 0, 67, 48
2, 66550, Note_on_c, 0, 67, 0
2, 66560, Note_on_c, 0, 79, 0
2, 66569, Note_on_c, 0, 76, 59
2, 66589, Control_c, 0, 64, 0
2, 66601, Control_c, 0, 64, 127
2, 66605, Note_on_c, 0, 76, 0
2, 66608, Note_on_c, 0, 72, 44
2, 66625, Note_on_c, 0, 72, 0
2, 66704, Control_c, 0, 64, 0
2, 66708, Note_on_c, 0, 83, 74
2, 66709, Note_on_c, 0, 71, 67
2, 66712, Note_on_c, 0, 76, 42
2, 66713, Note_on_c, 0, 54, 35
2, 66714, Note_on_c, 0, 65, 43
2, 66719, Note_on_c, 0, 60, 33
2, 66721, Note_on_c, 0, 76, 0
2, 66726, Note_on_c, 0, 65, 0
2, 66733, Note_on_c, 0, 71, 0
2, 66736, Note_on_c, 0, 60, 0
2, 66740, Note_on_c, 0, 83, 0
2, 66747, Note_on_c, 0, 80, 48
2, 66753, Control_c, 0, 64, 127
2, 66754, Note_on_c, 0, 54, 0
2, 66774, Note_on_c, 0, 80, 0
2, 66776, Control_c, 0, 64, 0
2, 66786, Note_on_c, 0, 76, 62
2, 66789, Note_on_c, 0, 54, 45
2, 66791, Note_on_c, 0, 65, 46
2, 66793, Note_on_c, 0, 71, 42
2, 66794, Note_on_c, 0, 60, 47
2, 66809, Control_c, 0, 64, 127
2, 66811, Note_on_c, 0, 65, 0
2, 66816, Note_on_c, 0, 60, 0
2, 66825, Note_on_c, 0, 54, 0
2, 66835, Note_on_c, 0, 71, 0
2, 66841, Note_on_c, 0, 76, 0
2, 66887, Note_on_c, 0, 50, 60
2, 66907, Note_on_c, 0, 50, 0
2, 66968, Note_on_c, 0, 65, 79
2, 66968, Note_on_c, 0, 86, 83
2, 66969, Note_on_c, 0, 83, 71
2, 66970, Note_on_c, 0, 74, 72
2, 66970, Note_on_c, 0, 54, 64
2, 66970, Note_on_c, 0, 60, 67
2, 66971, Control_c, 0, 64, 0
2, 66971, Note_on_c, 0, 80, 50
2, 66972, Note_on_c, 0, 58, 54
2, 66973, Note_on_c, 0, 76, 66
2, 66980, Note_on_c, 0, 76, 0
2, 66986, Note_on_c, 0, 74, 0
2, 66987, Note_on_c, 0, 80, 0
2, 66988, Note_on_c, 0, 65, 0
2, 66991, Note_on_c, 0, 86, 0
2, 66991, Note_on_c, 0, 83, 0
2, 66993, Note_on_c, 0, 60, 0
2, 66998, Note_on_c, 0, 54, 0
2, 67000, Note_on_c, 0, 58, 0
2, 67042, Note_on_c, 0, 86, 83
2, 67042, Note_on_c, 0, 74, 85
2, 67043, Note_on_c, 0, 83, 67
2, 67044, Note_on_c, 0, 80, 57
2, 67045, Note_on_c, 0, 54, 59
2, 67045, Note_on_c, 0, 65, 70
2, 67046, Control_c, 0, 64, 127
2, 67047, Note_on_c, 0, 60, 60
2, 67047, Note_on_c, 0, 82, 31
2, 67050, Note_on_c, 0, 58, 35
2, 67054, Note_on_c, 0, 80, 0
2, 67055, Note_on_c, 0, 82, 0
2, 67057, Note_on_c, 0, 74, 0
2, 67058, Note_on_c, 0, 86, 0
2, 67062, Note_on_c, 0, 83, 0
2, 67062, Note_on_c, 0, 65, 0
2, 67066, Note_on_c, 0, 60, 0
2, 67067, Note_on_c, 0, 58, 0
2, 67071, Note_on_c, 0, 54, 0
2, 67090, Control_c, 0, 64, 0
2, 67101, Control_c, 0, 64, 127
2, 67104, Note_on_c, 0, 54, 53
2, 67106, Note_on_c, 0, 65, 59
2, 67108, Note_on_c, 0, 80, 67
2, 67109, Note_on_c, 0, 83, 68
2, 67109, Note_on_c, 0, 60, 49
2, 67109, Note_on_c, 0, 74, 80
2, 67111, Note_on_c, 0, 86, 66
2, 67111, Note_on_c, 0, 58, 33
2, 67115, Note_on_c, 0, 65, 0
2, 67118, Note_on_c, 0, 86, 0
2, 67119, Note_on_c, 0, 60, 0
2, 67122, Note_on_c, 0, 74, 0
2, 67124, Note_on_c, 0, 80, 0
2, 67127, Note_on_c, 0, 58, 0
2, 67127, Note_on_c, 0, 83, 0
2, 67141, Note_on_c, 0, 80, 45
2, 67142, Note_on_c, 0, 86, 60
2, 67142, Note_on_c, 0, 65, 57
2, 67144, Note_on_c, 0, 74, 39
2, 67145, Note_on_c, 0, 83, 62
2, 67147, Note_on_c, 0, 58, 18
2, 67148, Note_on_c, 0, 60, 37
2, 67162, Note_on_c, 0, 60, 0
2, 67164, Note_on_c, 0, 65, 0
2, 67164, Note_on_c, 0, 86, 0
2, 67167, Note_on_c, 0, 83, 0
2, 67168, Note_on_c, 0, 74, 0
2, 67168, Note_on_c, 0, 54, 0
2, 67168, Note_on_c, 0, 80, 0
2, 67169, Note_on_c, 0, 58, 0
2, 67213, Note_on_c, 0, 55, 74
2, 67214, Control_c, 0, 64, 0
2, 67214, Note_on_c, 0, 80, 64
2, 67214, Note_on_c, 0, 84, 80
2, 67215, Note_on_c, 0, 72, 71
2, 67215, Note_on_c, 0, 65, 69
2, 67217, Note_on_c, 0, 60, 69
2, 67217, Note_on_c, 0, 77, 69
2, 67217, Note_on_c, 0, 56, 64
2, 67252, Control_c, 0, 64, 127
2, 67312, Note_on_c, 0, 84, 0
2, 67321, Note_on_c, 0, 77, 0
2, 67325, Note_on_c, 0, 80, 0
2, 67328, Note_on_c, 0, 72, 0
2, 67344, Note_on_c, 0, 56, 0
2, 67347, Note_on_c, 0, 65, 0
2, 67355, Note_on_c, 0, 55, 0
2, 67358, Note_on_c, 0, 60, 0
2, 67401, Note_on_c, 0, 79, 62
2, 67402, Note_on_c, 0, 67, 59
2, 67403, Note_on_c, 0, 75, 47
2, 67405, Control_c, 0, 64, 0
2, 67406, Note_on_c, 0, 72, 45
2, 67407, Note_on_c, 0, 65, 60
2, 67410, Note_on_c, 0, 56, 36
2, 67410, Note_on_c, 0, 55, 45
2, 67411, Note_on_c, 0, 60, 50
2, 67428, Control_c, 0, 64, 127
2, 67436, Note_on_c, 0, 65, 0
2, 67443, Note_on_c, 0, 60, 0
2, 67447, Note_on_c, 0, 55, 0
2, 67454, Note_on_c, 0, 56, 0
2, 67484, Note_on_c, 0, 79, 0
2, 67500, Note_on_c, 0, 72, 0
2, 67502, Note_on_c, 0, 75, 0
2, 67515, Note_on_c, 0, 67, 0
2, 67519, Note_on_c, 0, 55, 74
2, 67519, Note_on_c, 0, 43, 67
2, 67547, Note_on_c, 0, 43, 0
2, 67554, Note_on_c, 0, 55, 0
2, 67578, Note_on_c, 0, 43, 36
2, 67583, Note_on_c, 0, 55, 25
2, 67601, Note_on_c, 0, 43, 0
2, 67612, Note_on_c, 0, 55, 0
2, 67650, Note_on_c, 0, 43, 58
2, 67689, Note_on_c, 0, 63, 56
2, 67690, Note_on_c, 0, 59, 62
2, 67694, Note_on_c, 0, 67, 51
2, 67695, Note_on_c, 0, 53, 55
2, 67697, Control_c, 0, 64, 0
2, 67742, Control_c, 0, 64, 127
2, 67762, Control_c, 0, 64, 0
2, 67794, Control_c, 0, 64, 127
2, 67821, Note_on_c, 0, 53, 0
2, 67825, Note_on_c, 0, 59, 0
2, 67834, Note_on_c, 0, 63, 0
2, 67857, Note_on_c, 0, 43, 0
2, 67857, Note_on_c, 0, 67, 0
2, 67881, Note_on_c, 0, 67, 61
2, 67882, Note_on_c, 0, 59, 54
2, 67885, Note_on_c, 0, 63, 34
2, 67886, Note_on_c, 0, 53, 49
2, 67890, Note_on_c, 0, 43, 31
2, 67902, Note_on_c, 0, 59, 0
2, 67917, Note_on_c, 0, 63, 0
2, 67920, Note_on_c, 0, 67, 0
2, 67996, Note_on_c, 0, 50, 34
2, 68004, Note_on_c, 0, 43, 0
2, 68004, Note_on_c, 0, 67, 70
2, 68012, Note_on_c, 0, 53, 0
2, 68014, Note_on_c, 0, 50, 0
2, 68024, Note_on_c, 0, 67, 0
2, 68041, Note_on_c, 0, 72, 43
2, 68077, Note_on_c, 0, 72, 0
2, 68079, Note_on_c, 0, 75, 63
2, 68096, Note_on_c, 0, 75, 0
2, 68113, Note_on_c, 0, 79, 75
2, 68138, Note_on_c, 0, 79, 0
2, 68153, Note_on_c, 0, 84, 68
2, 68157, Note_on_c, 0, 55, 32
2, 68158, Note_on_c, 0, 45, 20
2, 68165, Note_on_c, 0, 45, 0
2, 68167, Control_c, 0, 64, 0
2, 68170, Note_on_c, 0, 55, 0
2, 68174, Note_on_c, 0, 84, 0
2, 68193, Note_on_c, 0, 87, 62
2, 68216, Control_c, 0, 64, 127
2, 68219, Note_on_c, 0, 87, 0
2, 68233, Note_on_c, 0, 89, 76
2, 68264, Note_on_c, 0, 89, 0
2, 68277, Note_on_c, 0, 86, 85
2, 68288, Control_c, 0, 64, 0
2, 68311, Note_on_c, 0, 86, 0
2, 68322, Note_on_c, 0, 87, 37
2, 68345, Note_on_c, 0, 86, 66
2, 68349, Control_c, 0, 64, 127
2, 68354, Note_on_c, 0, 87, 0
2, 68371, Note_on_c, 0, 86, 0
2, 68372, Note_on_c, 0, 84, 59
2, 68391, Note_on_c, 0, 84, 0
2, 68392, Note_on_c, 0, 52, 35
2, 68396, Control_c, 0, 64, 0
2, 68404, Note_on_c, 0, 82, 42
2, 68430, Control_c, 0, 64, 127
2, 68475, Note_on_c, 0, 52, 0
2, 68484, Note_on_c, 0, 82, 0
2, 68509, Note_on_c, 0, 39, 47
2, 68513, Note_on_c, 0, 51, 27
2, 68520, Control_c, 0, 64, 0
2, 68540, Control_c, 0, 64, 127
2, 68598, Note_on_c, 0, 51, 0
2, 68617, Note_on_c, 0, 39, 0
2, 68628, Note_on_c, 0, 38, 48
2, 68634, Control_c, 0, 64, 0
2, 68642, Note_on_c, 0, 50, 24
2, 68643, Note_on_c, 0, 78, 35
2, 68643, Note_on_c, 0, 72, 38
2, 68645, Note_on_c, 0, 84, 51
2, 68646, Note_on_c, 0, 81, 42
2, 68652, Note_on_c, 0, 38, 0
2, 68670, Note_on_c, 0, 50, 0
2, 68670, Control_c, 0, 64, 127
2, 68679, Note_on_c, 0, 72, 0
2, 68681, Note_on_c, 0, 84, 0
2, 68689, Note_on_c, 0, 81, 0
2, 68690, Note_on_c, 0, 78, 0
2, 68729, Note_on_c, 0, 78, 51
2, 68729, Note_on_c, 0, 75, 55
2, 68732, Note_on_c, 0, 85, 31
2, 68735, Note_on_c, 0, 86, 75
2, 68741, Note_on_c, 0, 81, 19
2, 68751, Note_on_c, 0, 64, 42
2, 68752, Note_on_c, 0, 54, 35
2, 68754, Note_on_c, 0, 75, 0
2, 68755, Note_on_c, 0, 86, 0
2, 68761, Note_on_c, 0, 64, 0
2, 68761, Note_on_c, 0, 60, 31
2, 68762, Note_on_c, 0, 78, 0
2, 68766, Note_on_c, 0, 85, 0
2, 68769, Control_c, 0, 64, 0
2, 68772, Note_on_c, 0, 60, 0
2, 68773, Note_on_c, 0, 81, 0
2, 68785, Note_on_c, 0, 54, 0
2, 68787, Note_on_c, 0, 86, 54
2, 68787, Note_on_c, 0, 78, 27
2, 68788, Note_on_c, 0, 74, 53
2, 68795, Note_on_c, 0, 81, 27
2, 68800, Control_c, 0, 64, 127
2, 68817, Note_on_c, 0, 74, 0
2, 68822, Note_on_c, 0, 86, 0
2, 68822, Note_on_c, 0, 78, 0
2, 68832, Note_on_c, 0, 81, 0
2, 68851, Note_on_c, 0, 86, 69
2, 68851, Note_on_c, 0, 74, 64
2, 68851, Note_on_c, 0, 78, 47
2, 68856, Note_on_c, 0, 81, 40
2, 68874, Control_c, 0, 64, 0
2, 68879, Note_on_c, 0, 45, 38
2, 68880, Note_on_c, 0, 86, 0
2, 68880, Note_on_c, 0, 54, 29
2, 68882, Note_on_c, 0, 74, 0
2, 68890, Note_on_c, 0, 78, 0
2, 68896, Note_on_c, 0, 81, 0
2, 68904, Control_c, 0, 64, 127
2, 68906, Note_on_c, 0, 45, 0
2, 68912, Note_on_c, 0, 78, 33
2, 68912, Note_on_c, 0, 84, 37
2, 68916, Note_on_c, 0, 72, 36
2, 68917, Note_on_c, 0, 81, 32
2, 68921, Note_on_c, 0, 54, 0
2, 68946, Note_on_c, 0, 84, 0
2, 68947, Note_on_c, 0, 72, 0
2, 68949, Note_on_c, 0, 78, 0
2, 68965, Note_on_c, 0, 81, 0
2, 68971, Note_on_c, 0, 78, 63
2, 68972, Note_on_c, 0, 84, 60
2, 68975, Note_on_c, 0, 72, 45
2, 68989, Note_on_c, 0, 84, 0
2, 68992, Note_on_c, 0, 72, 0
2, 69005, Note_on_c, 0, 78, 0
2, 69005, Note_on_c, 0, 54, 39
2, 69007, Note_on_c, 0, 65, 36
2, 69007, Note_on_c, 0, 60, 52
2, 69007, Control_c, 0, 64, 0
2, 69016, Note_on_c, 0, 65, 0
2, 69025, Note_on_c, 0, 60, 0
2, 69028, Control_c, 0, 64, 127
2, 69036, Note_on_c, 0, 54, 0
2, 69086, Note_on_c, 0, 82, 52
2, 69087, Note_on_c, 0, 50, 49
2, 69089, Note_on_c, 0, 70, 57
2, 69109, Note_on_c, 0, 70, 0
2, 69113, Note_on_c, 0, 50, 0
2, 69113, Note_on_c, 0, 82, 0
2, 69115, Control_c, 0, 64, 0
2, 69126, Note_on_c, 0, 43, 41
2, 69130, Note_on_c, 0, 53, 49
2, 69132, Note_on_c, 0, 83, 51
2, 69133, Note_on_c, 0, 71, 38
2, 69135, Note_on_c, 0, 76, 50
2, 69135, Note_on_c, 0, 79, 33
2, 69143, Note_on_c, 0, 43, 0
2, 69144, Control_c, 0, 64, 127
2, 69152, Note_on_c, 0, 53, 0
2, 69167, Note_on_c, 0, 83, 0
2, 69171, Note_on_c, 0, 79, 0
2, 69177, Note_on_c, 0, 76, 0
2, 69189, Note_on_c, 0, 71, 0
2, 69239, Control_c, 0, 64, 0
2, 69239, Note_on_c, 0, 81, 74
2, 69239, Note_on_c, 0, 76, 73
2, 69240, Note_on_c, 0, 71, 74
2, 69242, Note_on_c, 0, 54, 52
2, 69244, Note_on_c, 0, 60, 50
2, 69245, Note_on_c, 0, 65, 29
2, 69268, Control_c, 0, 64, 127
2, 69301, Note_on_c, 0, 65, 0
2, 69304, Note_on_c, 0, 60, 0
2, 69307, Note_on_c, 0, 76, 0
2, 69312, Note_on_c, 0, 81, 0
2, 69325, Note_on_c, 0, 71, 0
2, 69326, Note_on_c, 0, 54, 0
2, 69353, Control_c, 0, 64, 0
2, 69361, Note_on_c, 0, 64, 48
2, 69361, Note_on_c, 0, 79, 48
2, 69361, Note_on_c, 0, 74, 61
2, 69364, Note_on_c, 0, 53, 33
2, 69365, Note_on_c, 0, 59, 49
2, 69367, Note_on_c, 0, 69, 50
2, 69378, Control_c, 0, 64, 127
2, 69390, Note_on_c, 0, 79, 0
2, 69394, Note_on_c, 0, 64, 0
2, 69397, Note_on_c, 0, 59, 0
2, 69399, Note_on_c, 0, 74, 0
2, 69407, Note_on_c, 0, 69, 0
2, 69412, Note_on_c, 0, 53, 0
2, 69468, Control_c, 0, 64, 0
2, 69475, Note_on_c, 0, 63, 56
2, 69477, Note_on_c, 0, 44, 47
2, 69477, Note_on_c, 0, 69, 60
2, 69480, Note_on_c, 0, 54, 30
2, 69493, Control_c, 0, 64, 127
2, 69554, Note_on_c, 0, 54, 0
2, 69564, Note_on_c, 0, 50, 31
2, 69574, Note_on_c, 0, 63, 0
2, 69575, Note_on_c, 0, 69, 0
2, 69576, Note_on_c, 0, 44, 0
2, 69585, Note_on_c, 0, 50, 0
2, 69591, Note_on_c, 0, 43, 31
2, 69596, Control_c, 0, 64, 0
2, 69597, Note_on_c, 0, 53, 46
2, 69599, Note_on_c, 0, 67, 48
2, 69600, Note_on_c, 0, 64, 36
2, 69601, Note_on_c, 0, 59, 42
2, 69632, Control_c, 0, 64, 127
2, 69647, Note_on_c, 0, 64, 0
2, 69677, Note_on_c, 0, 53, 0
2, 69677, Note_on_c, 0, 59, 0
2, 69684, Note_on_c, 0, 50, 40
2, 69701, Note_on_c, 0, 67, 0
2, 69715, Control_c, 0, 64, 0
2, 69720, Note_on_c, 0, 66, 56
2, 69722, Note_on_c, 0, 53, 46
2, 69724, Note_on_c, 0, 59, 43
2, 69728, Note_on_c, 0, 63, 30
2, 69737, Control_c, 0, 64, 127
2, 69739, Note_on_c, 0, 43, 0
2, 69754, Note_on_c, 0, 50, 0
2, 69770, Note_on_c, 0, 53, 0
2, 69785, Note_on_c, 0, 59, 0
2, 69801, Note_on_c, 0, 63, 0
2, 69822, Note_on_c, 0, 66, 0
2, 69839, Control_c, 0, 64, 0
2, 69843, Note_on_c, 0, 53, 56
2, 69844, Note_on_c, 0, 67, 49
2, 69845, Note_on_c, 0, 63, 34
2, 69845, Note_on_c, 0, 59, 46
2, 69850, Note_on_c, 0, 48, 31
2, 69861, Note_on_c, 0, 53, 0
2, 69862, Note_on_c, 0, 48, 0
2, 69863, Control_c, 0, 64, 127
2, 69882, Note_on_c, 0, 67, 0
2, 69888, Note_on_c, 0, 63, 0
2, 69900, Note_on_c, 0, 59, 0
2, 69938, Note_on_c, 0, 63, 62
2, 69938, Note_on_c, 0, 55, 77
2, 69944, Note_on_c, 0, 59, 35
2, 69946, Note_on_c, 0, 55, 0
2, 69953, Note_on_c, 0, 59, 0
2, 69955, Note_on_c, 0, 63, 0
2, 69958, Control_c, 0, 64, 0
2, 69958, Note_on_c, 0, 37, 49
2, 69961, Note_on_c, 0, 49, 26
2, 69985, Control_c, 0, 64, 127
2, 70014, Note_on_c, 0, 49, 0
2, 70043, Note_on_c, 0, 53, 67
2, 70044, Note_on_c, 0, 50, 54
2, 70044, Note_on_c, 0, 60, 57
2, 70047, Control_c, 0, 64, 0
2, 70051, Note_on_c, 0, 37, 0
2, 70052, Note_on_c, 0, 50, 0
2, 70060, Note_on_c, 0, 53, 0
2, 70062, Note_on_c, 0, 36, 53
2, 70067, Note_on_c, 0, 48, 35
2, 70068, Note_on_c, 0, 60, 0
2, 70075, Note_on_c, 0, 36, 0
2, 70077, Control_c, 0, 64, 127
2, 70091, Note_on_c, 0, 48, 0
2, 70166, Note_on_c, 0, 65, 92
2, 70167, Note_on_c, 0, 72, 80
2, 70168, Note_on_c, 0, 62, 94
2, 70171, Note_on_c, 0, 69, 55
2, 70185, Control_c, 0, 64, 0
2, 70187, Note_on_c, 0, 56, 46
2, 70195, Note_on_c, 0, 57, 33
2, 70206, Note_on_c, 0, 57, 0
2, 70215, Note_on_c, 0, 56, 0
2, 70216, Control_c, 0, 64, 127
2, 70277, Note_on_c, 0, 65, 0
2, 70286, Note_on_c, 0, 62, 0
2, 70317, Note_on_c, 0, 69, 0
2, 70325, Note_on_c, 0, 50, 41
2, 70325, Note_on_c, 0, 65, 43
2, 70326, Note_on_c, 0, 62, 43
2, 70330, Control_c, 0, 64, 0
2, 70332, Note_on_c, 0, 58, 26
2, 70391, Control_c, 0, 64, 127
2, 70412, Note_on_c, 0, 58, 0
2, 70412, Note_on_c, 0, 62, 0
2, 70429, Control_c, 0, 64, 0
2, 70435, Note_on_c, 0, 65, 0
2, 70440, Note_on_c, 0, 50, 0
2, 70444, Note_on_c, 0, 51, 56
2, 70448, Note_on_c, 0, 58, 30
2, 70449, Note_on_c, 0, 72, 0
2, 70450, Control_c, 0, 64, 127
2, 70534, Note_on_c, 0, 58, 0
2, 70545, Note_on_c, 0, 51, 0
2, 70560, Note_on_c, 0, 52, 44
2, 70569, Control_c, 0, 64, 0
2, 70573, Note_on_c, 0, 82, 49
2, 70580, Note_on_c, 0, 82, 0
2, 70597, Note_on_c, 0, 85, 63
2, 70613, Note_on_c, 0, 82, 33
2, 70626, Note_on_c, 0, 80, 48
2, 70630, Note_on_c, 0, 85, 0
2, 70632, Note_on_c, 0, 82, 0
2, 70641, Control_c, 0, 64, 127
2, 70645, Note_on_c, 0, 80, 0
2, 70654, Note_on_c, 0, 76, 34
2, 70660, Note_on_c, 0, 58, 29
2, 70665, Control_c, 0, 64, 0
2, 70666, Note_on_c, 0, 76, 0
2, 70676, Note_on_c, 0, 52, 0
2, 70677, Note_on_c, 0, 58, 0
2, 70679, Note_on_c, 0, 75, 18
2, 70693, Note_on_c, 0, 75, 0
2, 70696, Note_on_c, 0, 74, 55
2, 70717, Note_on_c, 0, 74, 0
2, 70719, Note_on_c, 0, 73, 36
2, 70744, Note_on_c, 0, 73, 0
2, 70746, Control_c, 0, 64, 127
2, 70758, Note_on_c, 0, 58, 43
2, 70767, Note_on_c, 0, 48, 18
2, 70768, Note_on_c, 0, 58, 0
2, 70769, Control_c, 0, 64, 0
2, 70775, Note_on_c, 0, 70, 44
2, 70776, Note_on_c, 0, 48, 0
2, 70781, Note_on_c, 0, 68, 46
2, 70797, Note_on_c, 0, 70, 0
2, 70802, Note_on_c, 0, 66, 40
2, 70803, Note_on_c, 0, 68, 0
2, 70813, Note_on_c, 0, 66, 0
2, 70821, Note_on_c, 0, 64, 47
2, 70831, Note_on_c, 0, 64, 0
2, 70843, Note_on_c, 0, 63, 27
2, 70860, Note_on_c, 0, 63, 0
2, 70862, Note_on_c, 0, 62, 61
2, 70870, Control_c, 0, 64, 127
2, 70876, Note_on_c, 0, 62, 0
2, 70879, Note_on_c, 0, 61, 46
2, 70892, Note_on_c, 0, 61, 0
2, 70901, Note_on_c, 0, 39, 32
2, 70906, Control_c, 0, 64, 0
2, 70942, Note_on_c, 0, 58, 35
2, 70951, Note_on_c, 0, 58, 0
2, 70955, Control_c, 0, 64, 127
2, 70961, Note_on_c, 0, 57, 22
2, 70988, Note_on_c, 0, 57, 0
2, 71003, Note_on_c, 0, 39, 0
2, 71004, Note_on_c, 0, 55, 45
2, 71004, Note_on_c, 0, 45, 39
2, 71019, Note_on_c, 0, 55, 0
2, 71022, Note_on_c, 0, 45, 0
2, 71036, Note_on_c, 0, 56, 62
2, 71038, Control_c, 0, 64, 0
2, 71077, Note_on_c, 0, 56, 0
2, 71082, Note_on_c, 0, 58, 39
2, 71100, Note_on_c, 0, 56, 36
2, 71110, Note_on_c, 0, 58, 0
2, 71122, Note_on_c, 0, 56, 0
2, 71122, Note_on_c, 0, 55, 60
2, 71126, Control_c, 0, 64, 127
2, 71134, Note_on_c, 0, 55, 0
2, 71136, Note_on_c, 0, 48, 24
2, 71137, Control_c, 0, 64, 0
2, 71140, Note_on_c, 0, 41, 31
2, 71150, Note_on_c, 0, 56, 69
2, 71195, Note_on_c, 0, 48, 0
2, 71218, Control_c, 0, 64, 127
2, 71228, Note_on_c, 0, 56, 0
2, 71230, Note_on_c, 0, 53, 38
2, 71254, Note_on_c, 0, 53, 0
2, 71258, Control_c, 0, 64, 0
2, 71270, Note_on_c, 0, 55, 34
2, 71287, Note_on_c, 0, 55, 0
2, 71290, Note_on_c, 0, 56, 32
2, 71309, Note_on_c, 0, 56, 0
2, 71316, Note_on_c, 0, 58, 26
2, 71324, Note_on_c, 0, 58, 0
2, 71333, Note_on_c, 0, 60, 49
2, 71345, Note_on_c, 0, 41, 0
2, 71345, Note_on_c, 0, 53, 32
2, 71346, Note_on_c, 0, 60, 0
2, 71346, Control_c, 0, 64, 127
2, 71357, Note_on_c, 0, 61, 52
2, 71362, Note_on_c, 0, 53, 0
2, 71368, Control_c, 0, 64, 0
2, 71385, Note_on_c, 0, 61, 0
2, 71390, Note_on_c, 0, 63, 58
2, 71406, Note_on_c, 0, 63, 0
2, 71429, Note_on_c, 0, 64, 60
2, 71448, Note_on_c, 0, 64, 0
2, 71465, Control_c, 0, 64, 127
2, 71465, Note_on_c, 0, 66, 57
2, 71483, Note_on_c, 0, 66, 0
2, 71501, Control_c, 0, 64, 0
2, 71506, Note_on_c, 0, 67, 44
2, 71507, Note_on_c, 0, 48, 32
2, 71508, Note_on_c, 0, 58, 30
2, 71518, Note_on_c, 0, 48, 0
2, 71525, Note_on_c, 0, 67, 0
2, 71533, Note_on_c, 0, 58, 0
2, 71544, Note_on_c, 0, 69, 56
2, 71562, Note_on_c, 0, 69, 0
2, 71586, Note_on_c, 0, 70, 73
2, 71597, Note_on_c, 0, 58, 45
2, 71609, Note_on_c, 0, 70, 0
2, 71618, Note_on_c, 0, 58, 0
2, 71630, Note_on_c, 0, 72, 47
2, 71652, Note_on_c, 0, 72, 0
2, 71664, Note_on_c, 0, 73, 47
2, 71689, Note_on_c, 0, 73, 0
2, 71708, Note_on_c, 0, 75, 75
2, 71717, Control_c, 0, 64, 127
2, 71732, Control_c, 0, 64, 0
2, 71734, Note_on_c, 0, 75, 0
2, 71749, Note_on_c, 0, 52, 51
2, 71751, Note_on_c, 0, 61, 34
2, 71754, Note_on_c, 0, 76, 58
2, 71760, Note_on_c, 0, 61, 0
2, 71773, Note_on_c, 0, 52, 0
2, 71779, Note_on_c, 0, 76, 0
2, 71796, Note_on_c, 0, 78, 42
2, 71812, Note_on_c, 0, 78, 0
2, 71813, Control_c, 0, 64, 127
2, 71833, Note_on_c, 0, 79, 65
2, 71852, Note_on_c, 0, 79, 0
2, 71854, Control_c, 0, 64, 0
2, 71870, Note_on_c, 0, 80, 74
2, 71871, Note_on_c, 0, 52, 40
2, 71883, Note_on_c, 0, 52, 0
2, 71888, Note_on_c, 0, 80, 0
2, 71906, Note_on_c, 0, 81, 68
2, 71923, Control_c, 0, 64, 127
2, 71926, Note_on_c, 0, 81, 0
2, 71951, Note_on_c, 0, 82, 77
2, 71965, Note_on_c, 0, 41, 58
2, 71973, Control_c, 0, 64, 0
2, 71978, Note_on_c, 0, 82, 0
2, 71984, Note_on_c, 0, 41, 0
2, 72001, Note_on_c, 0, 80, 54
2, 72001, Note_on_c, 0, 72, 66
2, 72002, Note_on_c, 0, 84, 79
2, 72007, Control_c, 0, 64, 127
2, 72036, Note_on_c, 0, 80, 0
2, 72048, Note_on_c, 0, 72, 0
2, 72052, Note_on_c, 0, 84, 0
2, 72076, Note_on_c, 0, 84, 74
2, 72078, Note_on_c, 0, 72, 63
2, 72081, Note_on_c, 0, 80, 38
2, 72083, Note_on_c, 0, 77, 55
2, 72097, Note_on_c, 0, 72, 0
2, 72097, Note_on_c, 0, 84, 0
2, 72109, Note_on_c, 0, 80, 0
2, 72111, Note_on_c, 0, 77, 0
2, 72117, Control_c, 0, 64, 0
2, 72119, Note_on_c, 0, 56, 36
2, 72122, Note_on_c, 0, 60, 35
2, 72129, Note_on_c, 0, 82, 36
2, 72133, Note_on_c, 0, 70, 30
2, 72138, Note_on_c, 0, 77, 22
2, 72146, Note_on_c, 0, 60, 0
2, 72156, Note_on_c, 0, 56, 0
2, 72162, Control_c, 0, 64, 127
2, 72165, Note_on_c, 0, 70, 0
2, 72166, Note_on_c, 0, 82, 0
2, 72172, Note_on_c, 0, 77, 0
2, 72197, Note_on_c, 0, 84, 72
2, 72199, Note_on_c, 0, 72, 46
2, 72202, Note_on_c, 0, 80, 43
2, 72203, Note_on_c, 0, 77, 53
2, 72218, Note_on_c, 0, 72, 0
2, 72220, Note_on_c, 0, 84, 0
2, 72232, Note_on_c, 0, 80, 0
2, 72236, Note_on_c, 0, 77, 0
2, 72236, Control_c, 0, 64, 0
2, 72244, Note_on_c, 0, 63, 33
2, 72244, Note_on_c, 0, 56, 39
2, 72247, Note_on_c, 0, 60, 45
2, 72250, Note_on_c, 0, 77, 33
2, 72251, Note_on_c, 0, 63, 0
2, 72252, Note_on_c, 0, 82, 32
2, 72255, Note_on_c, 0, 60, 0
2, 72262, Note_on_c, 0, 70, 12
2, 72265, Note_on_c, 0, 56, 0
2, 72272, Control_c, 0, 64, 127
2, 72337, Control_c, 0, 64, 0
2, 72351, Note_on_c, 0, 41, 57
2, 72354, Note_on_c, 0, 53, 44
2, 72368, Note_on_c, 0, 41, 0
2, 72371, Control_c, 0, 64, 127
2, 72379, Note_on_c, 0, 53, 0
2, 72395, Note_on_c, 0, 70, 0
2, 72408, Note_on_c, 0, 82, 0
2, 72431, Note_on_c, 0, 77, 0
2, 72465, Control_c, 0, 64, 0
2, 72480, Note_on_c, 0, 44, 52
2, 72486, Note_on_c, 0, 53, 54
2, 72488, Control_c, 0, 64, 127
2, 72496, Note_on_c, 0, 44, 0
2, 72497, Note_on_c, 0, 53, 0
2, 72598, Note_on_c, 0, 87, 87
2, 72598, Note_on_c, 0, 63, 67
2, 72599, Note_on_c, 0, 95, 84
2, 72600, Note_on_c, 0, 54, 46
2, 72601, Note_on_c, 0, 83, 76
2, 72602, Control_c, 0, 64, 0
2, 72602, Note_on_c, 0, 90, 57
2, 72603, Note_on_c, 0, 59, 58
2, 72604, Note_on_c, 0, 58, 53
2, 72609, Note_on_c, 0, 90, 0
2, 72625, Control_c, 0, 64, 127
2, 72649, Note_on_c, 0, 95, 0
2, 72649, Note_on_c, 0, 83, 0
2, 72660, Note_on_c, 0, 87, 0
2, 72665, Note_on_c, 0, 59, 0
2, 72676, Note_on_c, 0, 63, 0
2, 72681, Note_on_c, 0, 94, 63
2, 72683, Note_on_c, 0, 87, 57
2, 72684, Note_on_c, 0, 90, 44
2, 72684, Note_on_c, 0, 82, 46
2, 72693, Note_on_c, 0, 54, 0
2, 72702, Note_on_c, 0, 58, 0
2, 72712, Control_c, 0, 64, 0
2, 72718, Note_on_c, 0, 87, 0
2, 72718, Note_on_c, 0, 63, 47
2, 72720, Note_on_c, 0, 82, 0
2, 72721, Note_on_c, 0, 58, 25
2, 72723, Note_on_c, 0, 94, 0
2, 72724, Note_on_c, 0, 59, 47
2, 72726, Note_on_c, 0, 53, 26
2, 72729, Note_on_c, 0, 90, 0
2, 72742, Control_c, 0, 64, 127
2, 72744, Note_on_c, 0, 63, 0
2, 72746, Note_on_c, 0, 95, 38
2, 72748, Note_on_c, 0, 83, 35
2, 72749, Note_on_c, 0, 87, 42
2, 72750, Note_on_c, 0, 90, 35
2, 72755, Note_on_c, 0, 59, 0
2, 72755, Note_on_c, 0, 93, 27
2, 72759, Note_on_c, 0, 58, 0
2, 72763, Note_on_c, 0, 93, 0
2, 72771, Note_on_c, 0, 53, 0
2, 72781, Note_on_c, 0, 95, 0
2, 72792, Note_on_c, 0, 83, 0
2, 72800, Note_on_c, 0, 90, 0
2, 72810, Note_on_c, 0, 87, 0
2, 72833, Control_c, 0, 64, 0
2, 72836, Note_on_c, 0, 54, 31
2, 72837, Note_on_c, 0, 44, 43
2, 72840, Note_on_c, 0, 94, 62
2, 72843, Note_on_c, 0, 82, 46
2, 72844, Note_on_c, 0, 87, 57
2, 72849, Note_on_c, 0, 90, 29
2, 72852, Control_c, 0, 64, 127
2, 72898, Note_on_c, 0, 54, 0
2, 72900, Note_on_c, 0, 94, 0
2, 72901, Note_on_c, 0, 82, 0
2, 72903, Note_on_c, 0, 87, 0
2, 72917, Note_on_c, 0, 44, 0
2, 72927, Note_on_c, 0, 90, 0
2, 72946, Control_c, 0, 64, 0
2, 72957, Note_on_c, 0, 43, 49
2, 72957, Note_on_c, 0, 88, 62
2, 72957, Note_on_c, 0, 93, 62
2, 72963, Note_on_c, 0, 81, 34
2, 72964, Note_on_c, 0, 53, 37
2, 72965, Note_on_c, 0, 93, 0
2, 72966, Note_on_c, 0, 83, 27
2, 72970, Control_c, 0, 64, 127
2, 72972, Note_on_c, 0, 88, 0
2, 72976, Note_on_c, 0, 83, 0
2, 72980, Note_on_c, 0, 81, 0
2, 73048, Note_on_c, 0, 53, 0
2, 73061, Note_on_c, 0, 50, 40
2, 73073, Note_on_c, 0, 50, 0
2, 73081, Control_c, 0, 64, 0
2, 73081, Note_on_c, 0, 64, 65
2, 73082, Note_on_c, 0, 59, 67
2, 73082, Note_on_c, 0, 67, 58
2, 73086, Note_on_c, 0, 53, 55
2, 73107, Note_on_c, 0, 64, 0
2, 73132, Note_on_c, 0, 59, 0
2, 73134, Note_on_c, 0, 53, 0
2, 73142, Note_on_c, 0, 67, 0
2, 73150, Control_c, 0, 64, 127
2, 73157, Note_on_c, 0, 66, 50
2, 73158, Note_on_c, 0, 52, 57
2, 73164, Note_on_c, 0, 59, 28
2, 73170, Control_c, 0, 64, 0
2, 73181, Note_on_c, 0, 59, 0
2, 73189, Note_on_c, 0, 66, 0
2, 73193, Note_on_c, 0, 43, 0
2, 73201, Note_on_c, 0, 52, 0
2, 73202, Note_on_c, 0, 67, 58
2, 73203, Note_on_c, 0, 59, 44
2, 73209, Note_on_c, 0, 64, 43
2, 73209, Note_on_c, 0, 53, 54
2, 73218, Control_c, 0, 64, 127
2, 73221, Note_on_c, 0, 59, 0
2, 73229, Note_on_c, 0, 64, 0
2, 73233, Note_on_c, 0, 67, 0
2, 73239, Note_on_c, 0, 53, 0
2, 73286, Note_on_c, 0, 70, 67
2, 73288, Note_on_c, 0, 67, 61
2, 73289, Note_on_c, 0, 58, 62
2, 73290, Note_on_c, 0, 63, 37
2, 73292, Control_c, 0, 64, 0
2, 73296, Note_on_c, 0, 59, 25
2, 73332, Control_c, 0, 64, 127
2, 73369, Note_on_c, 0, 67, 0
2, 73376, Note_on_c, 0, 58, 0
2, 73381, Note_on_c, 0, 70, 0
2, 73383, Note_on_c, 0, 59, 0
2, 73401, Note_on_c, 0, 63, 0
2, 73445, Note_on_c, 0, 69, 70
2, 73447, Control_c, 0, 64, 0
2, 73448, Note_on_c, 0, 48, 37
2, 73448, Note_on_c, 0, 58, 55
2, 73450, Note_on_c, 0, 57, 48
2, 73450, Note_on_c, 0, 62, 58
2, 73497, Note_on_c, 0, 69, 0
2, 73508, Control_c, 0, 64, 127
2, 73514, Note_on_c, 0, 62, 0
2, 73523, Note_on_c, 0, 58, 0
2, 73537, Control_c, 0, 64, 0
2, 73548, Note_on_c, 0, 57, 0
2, 73564, Note_on_c, 0, 68, 46
2, 73566, Note_on_c, 0, 56, 38
2, 73569, Note_on_c, 0, 62, 54
2, 73569, Note_on_c, 0, 58, 35
2, 73575, Control_c, 0, 64, 127
2, 73575, Note_on_c, 0, 65, 26
2, 73589, Note_on_c, 0, 65, 0
2, 73590, Note_on_c, 0, 62, 0
2, 73614, Note_on_c, 0, 68, 0
2, 73614, Note_on_c, 0, 58, 0
2, 73638, Note_on_c, 0, 56, 0
2, 73646, Note_on_c, 0, 58, 60
2, 73648, Note_on_c, 0, 55, 36
2, 73648, Note_on_c, 0, 67, 56
2, 73649, Note_on_c, 0, 64, 58
2, 73650, Note_on_c, 0, 61, 50
2, 73651, Control_c, 0, 64, 0
2, 73657, Note_on_c, 0, 48, 0
2, 73680, Control_c, 0, 64, 127
2, 73682, Note_on_c, 0, 67, 0
2, 73696, Note_on_c, 0, 64, 0
2, 73697, Note_on_c, 0, 58, 0
2, 73717, Note_on_c, 0, 61, 0
2, 73735, Note_on_c, 0, 55, 0
2, 73765, Note_on_c, 0, 48, 68
2, 73784, Control_c, 0, 64, 0
2, 73796, Note_on_c, 0, 48, 0
2, 73815, Control_c, 0, 64, 127
2, 73884, Note_on_c, 0, 61, 75
2, 73887, Note_on_c, 0, 67, 68
2, 73888, Note_on_c, 0, 57, 62
2, 73890, Note_on_c, 0, 51, 44
2, 73892, Note_on_c, 0, 66, 27
2, 73901, Note_on_c, 0, 66, 0
2, 73903, Note_on_c, 0, 61, 0
2, 73903, Control_c, 0, 64, 0
2, 73909, Note_on_c, 0, 62, 40
2, 73954, Note_on_c, 0, 57, 0
2, 73989, Note_on_c, 0, 62, 0
2, 74004, Note_on_c, 0, 57, 47
2, 74011, Note_on_c, 0, 67, 0
2, 74011, Control_c, 0, 64, 127
2, 74014, Note_on_c, 0, 57, 0
2, 74022, Control_c, 0, 64, 0
2, 74025, Note_on_c, 0, 41, 28
2, 74041, Note_on_c, 0, 51, 0
2, 74046, Note_on_c, 0, 67, 73
2, 74048, Note_on_c, 0, 62, 80
2, 74093, Note_on_c, 0, 67, 0
2, 74094, Note_on_c, 0, 62, 0
2, 74122, Note_on_c, 0, 67, 71
2, 74122, Note_on_c, 0, 62, 74
2, 74131, Note_on_c, 0, 51, 36
2, 74151, Note_on_c, 0, 67, 0
2, 74158, Note_on_c, 0, 62, 0
2, 74166, Control_c, 0, 64, 127
2, 74175, Note_on_c, 0, 60, 40
2, 74185, Note_on_c, 0, 51, 0
2, 74225, Note_on_c, 0, 60, 0
2, 74241, Note_on_c, 0, 62, 71
2, 74242, Note_on_c, 0, 67, 62
2, 74243, Note_on_c, 0, 51, 49
2, 74246, Control_c, 0, 64, 0
2, 74254, Note_on_c, 0, 41, 0
2, 74258, Note_on_c, 0, 62, 0
2, 74265, Note_on_c, 0, 67, 0
2, 74265, Note_on_c, 0, 51, 0
2, 74300, Control_c, 0, 64, 127
2, 74352, Control_c, 0, 64, 0
2, 74355, Note_on_c, 0, 63, 61
2, 74357, Note_on_c, 0, 67, 71
2, 74357, Note_on_c, 0, 58, 59
2, 74357, Note_on_c, 0, 60, 72
2, 74437, Control_c, 0, 64, 127
2, 74476, Note_on_c, 0, 46, 57
2, 74505, Note_on_c, 0, 46, 0
2, 74516, Note_on_c, 0, 58, 0
2, 74528, Note_on_c, 0, 46, 39
2, 74564, Note_on_c, 0, 46, 0
2, 74594, Note_on_c, 0, 60, 0
2, 74600, Note_on_c, 0, 63, 0
2, 74602, Note_on_c, 0, 46, 42
2, 74635, Note_on_c, 0, 67, 0
2, 74643, Note_on_c, 0, 64, 43
2, 74644, Note_on_c, 0, 59, 55
2, 74644, Control_c, 0, 64, 0
2, 74646, Note_on_c, 0, 62, 54
2, 74650, Note_on_c, 0, 56, 44
2, 74689, Note_on_c, 0, 46, 0
2, 74691, Control_c, 0, 64, 127
2, 74721, Note_on_c, 0, 46, 48
2, 74752, Note_on_c, 0, 46, 0
2, 74771, Note_on_c, 0, 59, 0
2, 74771, Note_on_c, 0, 46, 50
2, 74791, Note_on_c, 0, 64, 0
2, 74792, Note_on_c, 0, 62, 0
2, 74804, Note_on_c, 0, 46, 0
2, 74832, Note_on_c, 0, 56, 0
2, 74843, Note_on_c, 0, 46, 48
2, 74882, Control_c, 0, 64, 0
2, 74889, Note_on_c, 0, 72, 61
2, 74891, Note_on_c, 0, 55, 66
2, 74892, Note_on_c, 0, 62, 74
2, 74892, Note_on_c, 0, 65, 69
2, 74893, Note_on_c, 0, 69, 66
2, 74925, Note_on_c, 0, 46, 0
2, 74941, Control_c, 0, 64, 127
2, 74958, Note_on_c, 0, 46, 48
2, 74991, Note_on_c, 0, 46, 0
2, 75006, Note_on_c, 0, 62, 0
2, 75010, Note_on_c, 0, 65, 0
2, 75011, Note_on_c, 0, 46, 42
2, 75013, Note_on_c, 0, 69, 0
2, 75018, Note_on_c, 0, 55, 0
2, 75043, Note_on_c, 0, 72, 0
2, 75087, Note_on_c, 0, 69, 72
2, 75090, Note_on_c, 0, 65, 65
2, 75092, Note_on_c, 0, 55, 62
2, 75093, Note_on_c, 0, 62, 52
2, 75100, Control_c, 0, 64, 0
2, 75123, Note_on_c, 0, 46, 0
2, 75154, Control_c, 0, 64, 127
2, 75199, Note_on_c, 0, 46, 57
2, 75214, Note_on_c, 0, 55, 0
2, 75216, Note_on_c, 0, 62, 0
2, 75238, Note_on_c, 0, 69, 0
2, 75238, Note_on_c, 0, 65, 0
2, 75240, Note_on_c, 0, 46, 0
2, 75311, Note_on_c, 0, 47, 61
2, 75314, Note_on_c, 0, 68, 54
2, 75316, Note_on_c, 0, 58, 61
2, 75318, Note_on_c, 0, 61, 52
2, 75318, Note_on_c, 0, 48, 53
2, 75320, Note_on_c, 0, 64, 54
2, 75329, Control_c, 0, 64, 0
2, 75330, Note_on_c, 0, 47, 0
2, 75426, Note_on_c, 0, 36, 68
2, 75444, Note_on_c, 0, 36, 0
2, 75449, Note_on_c, 0, 58, 0
2, 75466, Control_c, 0, 64, 127
2, 75467, Note_on_c, 0, 48, 0
2, 75473, Note_on_c, 0, 58, 18
2, 75488, Note_on_c, 0, 64, 0
2, 75490, Note_on_c, 0, 68, 0
2, 75503, Note_on_c, 0, 61, 0
2, 75517, Note_on_c, 0, 58, 0
2, 75547, Note_on_c, 0, 67, 65
2, 75548, Note_on_c, 0, 58, 67
2, 75549, Note_on_c, 0, 52, 56
2, 75549, Note_on_c, 0, 61, 53
2, 75556, Control_c, 0, 64, 0
2, 75559, Note_on_c, 0, 64, 24
2, 75571, Note_on_c, 0, 64, 0
2, 75574, Note_on_c, 0, 58, 0
2, 75576, Note_on_c, 0, 67, 0
2, 75576, Note_on_c, 0, 61, 0
2, 75601, Note_on_c, 0, 55, 46
2, 75639, Control_c, 0, 64, 127
2, 75659, Note_on_c, 0, 55, 0
2, 75679, Note_on_c, 0, 56, 56
2, 75695, Control_c, 0, 64, 0
2, 75697, Note_on_c, 0, 42, 38
2, 75701, Note_on_c, 0, 56, 0
2, 75708, Note_on_c, 0, 52, 0
2, 75725, Control_c, 0, 64, 127
2, 75727, Note_on_c, 0, 58, 49
2, 75779, Note_on_c, 0, 58, 0
2, 75797, Note_on_c, 0, 63, 72
2, 75801, Note_on_c, 0, 42, 0
2, 75817, Control_c, 0, 64, 0
2, 75830, Note_on_c, 0, 41, 45
2, 75833, Note_on_c, 0, 63, 0
2, 75842, Note_on_c, 0, 41, 0
2, 75842, Note_on_c, 0, 60, 57
2, 75846, Control_c, 0, 64, 127
2, 75897, Note_on_c, 0, 60, 0
2, 75961, Note_on_c, 0, 53, 32
2, 75962, Note_on_c, 0, 63, 52
2, 75963, Note_on_c, 0, 60, 54
2, 75967, Control_c, 0, 64, 0
2, 75968, Note_on_c, 0, 56, 33
2, 75981, Control_c, 0, 64, 127
2, 75986, Note_on_c, 0, 63, 0
2, 75992, Note_on_c, 0, 53, 0
2, 75992, Note_on_c, 0, 60, 0
2, 76001, Note_on_c, 0, 56, 0
2, 76082, Control_c, 0, 64, 0
2, 76089, Note_on_c, 0, 63, 48
2, 76090, Note_on_c, 0, 67, 74
2, 76093, Note_on_c, 0, 60, 51
2, 76104, Control_c, 0, 64, 127
2, 76113, Note_on_c, 0, 63, 0
2, 76116, Note_on_c, 0, 60, 0
2, 76149, Note_on_c, 0, 67, 0
2, 76166, Note_on_c, 0, 68, 57
2, 76189, Note_on_c, 0, 68, 0
2, 76194, Control_c, 0, 64, 0
2, 76205, Note_on_c, 0, 55, 61
2, 76206, Note_on_c, 0, 72, 64
2, 76212, Control_c, 0, 64, 127
2, 76217, Note_on_c, 0, 55, 0
2, 76256, Note_on_c, 0, 72, 0
2, 76282, Note_on_c, 0, 75, 69
2, 76285, Note_on_c, 0, 68, 63
2, 76286, Note_on_c, 0, 63, 67
2, 76305, Note_on_c, 0, 63, 0
2, 76311, Note_on_c, 0, 68, 0
2, 76311, Control_c, 0, 64, 0
2, 76312, Note_on_c, 0, 75, 0
2, 76319, Note_on_c, 0, 46, 42
2, 76330, Note_on_c, 0, 56, 29
2, 76330, Note_on_c, 0, 74, 60
2, 76330, Note_on_c, 0, 71, 42
2, 76332, Note_on_c, 0, 67, 43
2, 76332, Note_on_c, 0, 62, 49
2, 76335, Note_on_c, 0, 73, 25
2, 76338, Control_c, 0, 64, 127
2, 76344, Note_on_c, 0, 46, 0
2, 76346, Note_on_c, 0, 73, 0
2, 76349, Note_on_c, 0, 56, 0
2, 76362, Note_on_c, 0, 62, 0
2, 76382, Note_on_c, 0, 67, 0
2, 76393, Note_on_c, 0, 74, 0
2, 76397, Note_on_c, 0, 71, 0
2, 76434, Control_c, 0, 64, 0
2, 76438, Note_on_c, 0, 67, 64
2, 76438, Note_on_c, 0, 56, 57
2, 76439, Note_on_c, 0, 62, 64
2, 76449, Note_on_c, 0, 67, 0
2, 76455, Note_on_c, 0, 82, 23
2, 76459, Note_on_c, 0, 62, 0
2, 76466, Control_c, 0, 64, 127
2, 76467, Note_on_c, 0, 82, 0
2, 76468, Note_on_c, 0, 56, 0
2, 76521, Note_on_c, 0, 74, 80
2, 76521, Note_on_c, 0, 86, 83
2, 76521, Note_on_c, 0, 79, 70
2, 76523, Note_on_c, 0, 83, 57
2, 76526, Control_c, 0, 64, 0
2, 76540, Note_on_c, 0, 79, 0
2, 76540, Note_on_c, 0, 74, 0
2, 76542, Note_on_c, 0, 46, 38
2, 76548, Note_on_c, 0, 83, 0
2, 76548, Note_on_c, 0, 56, 31
2, 76551, Note_on_c, 0, 86, 0
2, 76565, Control_c, 0, 64, 127
2, 76567, Note_on_c, 0, 46, 0
2, 76568, Note_on_c, 0, 56, 0
2, 76597, Note_on_c, 0, 89, 73
2, 76597, Note_on_c, 0, 77, 71
2, 76598, Note_on_c, 0, 86, 71
2, 76598, Note_on_c, 0, 84, 67
2, 76631, Note_on_c, 0, 84, 0
2, 76638, Note_on_c, 0, 86, 0
2, 76643, Note_on_c, 0, 89, 0
2, 76646, Note_on_c, 0, 77, 0
2, 76661, Control_c, 0, 64, 0
2, 76669, Note_on_c, 0, 56, 51
2, 76674, Note_on_c, 0, 67, 44
2, 76675, Note_on_c, 0, 62, 48
2, 76676, Note_on_c, 0, 89, 66
2, 76678, Note_on_c, 0, 77, 66
2, 76680, Note_on_c, 0, 84, 55
2, 76684, Control_c, 0, 64, 127
2, 76688, Note_on_c, 0, 84, 0
2, 76694, Note_on_c, 0, 67, 0
2, 76696, Note_on_c, 0, 89, 0
2, 76698, Note_on_c, 0, 77, 0
2, 76707, Note_on_c, 0, 62, 0
2, 76720, Note_on_c, 0, 56, 0
2, 76755, Note_on_c, 0, 82, 69
2, 76755, Note_on_c, 0, 70, 77
2, 76763, Note_on_c, 0, 62, 58
2, 76765, Control_c, 0, 64, 0
2, 76765, Note_on_c, 0, 65, 57
2, 76770, Note_on_c, 0, 60, 38
2, 76772, Note_on_c, 0, 65, 0
2, 76777, Note_on_c, 0, 70, 0
2, 76779, Note_on_c, 0, 60, 0
2, 76779, Note_on_c, 0, 62, 0
2, 76779, Note_on_c, 0, 55, 24
2, 76784, Note_on_c, 0, 82, 0
2, 76789, Note_on_c, 0, 55, 0
2, 76798, Control_c, 0, 64, 127
2, 76829, Note_on_c, 0, 86, 81
2, 76831, Note_on_c, 0, 74, 67
2, 76832, Note_on_c, 0, 79, 60
2, 76834, Note_on_c, 0, 82, 49
2, 76864, Note_on_c, 0, 79, 0
2, 76866, Note_on_c, 0, 82, 0
2, 76870, Note_on_c, 0, 74, 0
2, 76875, Note_on_c, 0, 86, 0
2, 76902, Control_c, 0, 64, 0
2, 76905, Note_on_c, 0, 39, 57
2, 76910, Note_on_c, 0, 86, 80
2, 76913, Note_on_c, 0, 82, 48
2, 76913, Note_on_c, 0, 74, 55
2, 76916, Note_on_c, 0, 85, 36
2, 76916, Note_on_c, 0, 79, 44
2, 76922, Control_c, 0, 64, 127
2, 76923, Note_on_c, 0, 85, 0
2, 76924, Note_on_c, 0, 79, 0
2, 76926, Note_on_c, 0, 39, 0
2, 76927, Note_on_c, 0, 86, 0
2, 76927, Note_on_c, 0, 74, 0
2, 76929, Note_on_c, 0, 82, 0
2, 76995, Note_on_c, 0, 74, 68
2, 76995, Note_on_c, 0, 79, 66
2, 76996, Note_on_c, 0, 67, 77
2, 77001, Note_on_c, 0, 75, 31
2, 77005, Note_on_c, 0, 62, 60
2, 77007, Note_on_c, 0, 55, 56
2, 77009, Note_on_c, 0, 75, 0
2, 77009, Note_on_c, 0, 58, 39
2, 77014, Control_c, 0, 64, 0
2, 77015, Note_on_c, 0, 67, 0
2, 77024, Note_on_c, 0, 79, 0
2, 77027, Note_on_c, 0, 74, 0
2, 77037, Note_on_c, 0, 62, 0
2, 77037, Control_c, 0, 64, 127
2, 77050, Note_on_c, 0, 58, 0
2, 77059, Note_on_c, 0, 55, 0
2, 77072, Note_on_c, 0, 82, 78
2, 77073, Note_on_c, 0, 70, 83
2, 77080, Note_on_c, 0, 75, 29
2, 77088, Note_on_c, 0, 75, 0
2, 77102, Note_on_c, 0, 70, 0
2, 77104, Note_on_c, 0, 82, 0
2, 77145, Note_on_c, 0, 58, 43
2, 77147, Note_on_c, 0, 55, 54
2, 77147, Note_on_c, 0, 62, 32
2, 77147, Note_on_c, 0, 82, 57
2, 77151, Note_on_c, 0, 70, 59
2, 77155, Note_on_c, 0, 58, 0
2, 77156, Note_on_c, 0, 62, 0
2, 77159, Note_on_c, 0, 70, 0
2, 77159, Note_on_c, 0, 82, 0
2, 77164, Note_on_c, 0, 55, 0
2, 77231, Note_on_c, 0, 75, 60
2, 77233, Note_on_c, 0, 63, 69
2, 77237, Note_on_c, 0, 51, 56
2, 77239, Note_on_c, 0, 44, 55
2, 77241, Control_c, 0, 64, 0
2, 77249, Note_on_c, 0, 63, 0
2, 77253, Note_on_c, 0, 75, 0
2, 77285, Note_on_c, 0, 51, 0
2, 77286, Control_c, 0, 64, 127
2, 77303, Note_on_c, 0, 52, 61
2, 77304, Note_on_c, 0, 79, 69
2, 77306, Note_on_c, 0, 67, 73
2, 77306, Note_on_c, 0, 72, 58
2, 77307, Note_on_c, 0, 76, 64
2, 77308, Note_on_c, 0, 55, 71
2, 77350, Note_on_c, 0, 79, 0
2, 77352, Note_on_c, 0, 55, 0
2, 77359, Note_on_c, 0, 72, 0
2, 77362, Note_on_c, 0, 67, 0
2, 77370, Note_on_c, 0, 76, 0
2, 77375, Note_on_c, 0, 44, 0
2, 77382, Control_c, 0, 64, 0
2, 77396, Note_on_c, 0, 79, 59
2, 77398, Note_on_c, 0, 72, 56
2, 77398, Control_c, 0, 64, 127
2, 77399, Note_on_c, 0, 55, 66
2, 77399, Note_on_c, 0, 67, 70
2, 77400, Note_on_c, 0, 44, 37
2, 77414, Note_on_c, 0, 79, 0
2, 77416, Note_on_c, 0, 72, 0
2, 77423, Note_on_c, 0, 67, 0
2, 77430, Note_on_c, 0, 44, 0
2, 77459, Note_on_c, 0, 55, 0
2, 77464, Note_on_c, 0, 52, 0
2, 77482, Note_on_c, 0, 76, 68
2, 77482, Note_on_c, 0, 44, 38
2, 77483, Note_on_c, 0, 69, 70
2, 77484, Note_on_c, 0, 64, 66
2, 77488, Note_on_c, 0, 72, 31
2, 77490, Control_c, 0, 64, 0
2, 77498, Note_on_c, 0, 72, 0
2, 77501, Note_on_c, 0, 69, 0
2, 77504, Note_on_c, 0, 76, 0
2, 77509, Note_on_c, 0, 64, 0
2, 77537, Control_c, 0, 64, 127
2, 77549, Note_on_c, 0, 72, 57
2, 77553, Note_on_c, 0, 60, 58
2, 77557, Note_on_c, 0, 52, 25
2, 77573, Note_on_c, 0, 72, 0
2, 77592, Note_on_c, 0, 60, 0
2, 77602, Note_on_c, 0, 44, 0
2, 77616, Note_on_c, 0, 52, 0
2, 77632, Note_on_c, 0, 67, 62
2, 77633, Note_on_c, 0, 44, 36
2, 77636, Control_c, 0, 64, 0
2, 77638, Note_on_c, 0, 60, 57
2, 77639, Note_on_c, 0, 64, 47
2, 77647, Note_on_c, 0, 64, 0
2, 77652, Control_c, 0, 64, 127
2, 77655, Note_on_c, 0, 67, 0
2, 77658, Note_on_c, 0, 60, 0
2, 77681, Note_on_c, 0, 44, 0
2, 77719, Note_on_c, 0, 65, 60
2, 77720, Note_on_c, 0, 56, 60
2, 77723, Note_on_c, 0, 62, 58
2, 77725, Note_on_c, 0, 50, 54
2, 77725, Note_on_c, 0, 60, 54
2, 77726, Control_c, 0, 64, 0
2, 77764, Control_c, 0, 64, 127
2, 77801, Note_on_c, 0, 60, 0
2, 77802, Note_on_c, 0, 65, 0
2, 77802, Note_on_c, 0, 56, 0
2, 77813, Note_on_c, 0, 62, 0
2, 77832, Note_on_c, 0, 38, 57
2, 77837, Note_on_c, 0, 55, 66
2, 77857, Note_on_c, 0, 38, 0
2, 77862, Note_on_c, 0, 55, 0
2, 77868, Control_c, 0, 64, 0
2, 77877, Note_on_c, 0, 50, 0
2, 77879, Note_on_c, 0, 56, 36
2, 77901, Note_on_c, 0, 56, 0
2, 77957, Note_on_c, 0, 63, 61
2, 77981, Note_on_c, 0, 63, 0
2, 77982, Note_on_c, 0, 51, 32
2, 77999, Note_on_c, 0, 64, 59
2, 78001, Note_on_c, 0, 51, 0
2, 78018, Note_on_c, 0, 52, 24
2, 78024, Note_on_c, 0, 64, 0
2, 78035, Note_on_c, 0, 65, 60
2, 78052, Note_on_c, 0, 52, 0
2, 78053, Note_on_c, 0, 65, 0
2, 78068, Note_on_c, 0, 55, 64
2, 78071, Note_on_c, 0, 67, 83
2, 78092, Note_on_c, 0, 55, 0
2, 78102, Note_on_c, 0, 67, 0
2, 78111, Note_on_c, 0, 64, 49
2, 78113, Note_on_c, 0, 52, 43
2, 78132, Note_on_c, 0, 64, 0
2, 78142, Note_on_c, 0, 52, 0
2, 78149, Note_on_c, 0, 65, 64
2, 78157, Note_on_c, 0, 53, 31
2, 78166, Note_on_c, 0, 53, 0
2, 78172, Note_on_c, 0, 65, 0
2, 78188, Note_on_c, 0, 55, 62
2, 78189, Note_on_c, 0, 67, 76
2, 78212, Note_on_c, 0, 67, 0
2, 78212, Note_on_c, 0, 55, 0
2, 78234, Note_on_c, 0, 68, 61
2, 78254, Note_on_c, 0, 68, 0
2, 78263, Control_c, 0, 64, 127
2, 78273, Note_on_c, 0, 70, 71
2, 78292, Note_on_c, 0, 70, 0
2, 78306, Control_c, 0, 64, 0
2, 78307, Note_on_c, 0, 71, 72
2, 78315, Note_on_c, 0, 53, 46
2, 78316, Note_on_c, 0, 64, 42
2, 78318, Note_on_c, 0, 59, 53
2, 78325, Note_on_c, 0, 64, 0
2, 78326, Note_on_c, 0, 59, 0
2, 78338, Note_on_c, 0, 53, 0
2, 78341, Note_on_c, 0, 71, 0
2, 78350, Note_on_c, 0, 73, 33
2, 78368, Control_c, 0, 64, 127
2, 78381, Note_on_c, 0, 73, 0
2, 78391, Note_on_c, 0, 74, 71
2, 78393, Control_c, 0, 64, 0
2, 78404, Note_on_c, 0, 43, 40
2, 78413, Note_on_c, 0, 43, 0
2, 78417, Note_on_c, 0, 74, 0
2, 78428, Note_on_c, 0, 75, 67
2, 78450, Note_on_c, 0, 75, 0
2, 78460, Note_on_c, 0, 76, 62
2, 78481, Note_on_c, 0, 76, 0
2, 78490, Control_c, 0, 64, 127
2, 78493, Note_on_c, 0, 77, 61
2, 78520, Note_on_c, 0, 77, 0
2, 78526, Control_c, 0, 64, 0
2, 78526, Note_on_c, 0, 78, 60
2, 78543, Note_on_c, 0, 78, 0
2, 78557, Note_on_c, 0, 79, 62
2, 78575, Control_c, 0, 64, 127
2, 78581, Note_on_c, 0, 79, 0
2, 78583, Note_on_c, 0, 82, 30
2, 78584, Note_on_c, 0, 59, 28
2, 78590, Note_on_c, 0, 53, 22
2, 78621, Note_on_c, 0, 82, 0
2, 78621, Note_on_c, 0, 83, 44
2, 78633, Note_on_c, 0, 83, 0
2, 78643, Note_on_c, 0, 86, 89
2, 78668, Note_on_c, 0, 59, 0
2, 78669, Note_on_c, 0, 86, 0
2, 78677, Note_on_c, 0, 83, 55
2, 78678, Note_on_c, 0, 53, 0
2, 78694, Note_on_c, 0, 83, 0
2, 78707, Note_on_c, 0, 84, 80
2, 78717, Control_c, 0, 64, 0
2, 78725, Note_on_c, 0, 55, 58
2, 78727, Note_on_c, 0, 48, 50
2, 78736, Note_on_c, 0, 79, 57
2, 78745, Note_on_c, 0, 84, 0
2, 78750, Control_c, 0, 64, 127
2, 78763, Note_on_c, 0, 79, 0
2, 78772, Note_on_c, 0, 77, 55
2, 78794, Note_on_c, 0, 77, 0
2, 78797, Note_on_c, 0, 75, 46
2, 78816, Note_on_c, 0, 75, 0
2, 78839, Note_on_c, 0, 74, 25
2, 78848, Note_on_c, 0, 74, 0
2, 78859, Note_on_c, 0, 77, 71
2, 78861, Note_on_c, 0, 60, 49
2, 78865, Control_c, 0, 64, 0
2, 78875, Note_on_c, 0, 60, 0
2, 78885, Note_on_c, 0, 77, 0
2, 78900, Note_on_c, 0, 75, 73
2, 78925, Note_on_c, 0, 75, 0
2, 78939, Control_c, 0, 64, 127
2, 78942, Note_on_c, 0, 67, 66
2, 78945, Note_on_c, 0, 55, 0
2, 78962, Note_on_c, 0, 67, 0
2, 78968, Control_c, 0, 64, 0
2, 78984, Note_on_c, 0, 60, 37
2, 78985, Note_on_c, 0, 67, 48
2, 79000, Control_c, 0, 64, 127
2, 79020, Note_on_c, 0, 60, 0
2, 79029, Note_on_c, 0, 67, 0
2, 79054, Note_on_c, 0, 67, 57
2, 79066, Note_on_c, 0, 55, 45
2, 79070, Note_on_c, 0, 48, 0
2, 79075, Note_on_c, 0, 55, 0
2, 79075, Note_on_c, 0, 67, 0
2, 79087, Control_c, 0, 64, 0
2, 79098, Note_on_c, 0, 46, 68
2, 79099, Control_c, 0, 64, 127
2, 79162, Note_on_c, 0, 46, 0
2, 79168, Note_on_c, 0, 61, 59
2, 79170, Note_on_c, 0, 70, 57
2, 79170, Control_c, 0, 64, 0
2, 79173, Note_on_c, 0, 66, 50
2, 79176, Note_on_c, 0, 55, 45
2, 79177, Note_on_c, 0, 45, 49
2, 79200, Note_on_c, 0, 45, 0
2, 79202, Control_c, 0, 64, 127
2, 79209, Note_on_c, 0, 55, 0
2, 79216, Note_on_c, 0, 61, 0
2, 79228, Note_on_c, 0, 70, 0
2, 79229, Note_on_c, 0, 66, 0
2, 79282, Note_on_c, 0, 84, 79
2, 79283, Note_on_c, 0, 72, 66
2, 79305, Control_c, 0, 64, 0
2, 79306, Note_on_c, 0, 61, 39
2, 79306, Note_on_c, 0, 65, 38
2, 79306, Note_on_c, 0, 55, 47
2, 79316, Note_on_c, 0, 65, 0
2, 79325, Control_c, 0, 64, 127
2, 79332, Note_on_c, 0, 61, 0
2, 79334, Note_on_c, 0, 55, 0
2, 79344, Note_on_c, 0, 72, 0
2, 79351, Note_on_c, 0, 84, 0
2, 79402, Control_c, 0, 64, 0
2, 79404, Note_on_c, 0, 88, 69
2, 79404, Note_on_c, 0, 76, 53
2, 79415, Note_on_c, 0, 45, 52
2, 79416, Note_on_c, 0, 76, 0
2, 79423, Note_on_c, 0, 55, 41
2, 79425, Note_on_c, 0, 88, 0
2, 79426, Note_on_c, 0, 45, 0
2, 79432, Note_on_c, 0, 55, 0
2, 79433, Control_c, 0, 64, 127
2, 79521, Note_on_c, 0, 93, 76
2, 79522, Note_on_c, 0, 81, 65
2, 79522, Note_on_c, 0, 88, 67
2, 79531, Note_on_c, 0, 81, 0
2, 79532, Note_on_c, 0, 88, 0
2, 79537, Control_c, 0, 64, 0
2, 79539, Note_on_c, 0, 93, 0
2, 79544, Note_on_c, 0, 60, 37
2, 79546, Note_on_c, 0, 65, 28
2, 79547, Note_on_c, 0, 54, 39
2, 79559, Control_c, 0, 64, 127
2, 79560, Note_on_c, 0, 65, 0
2, 79568, Note_on_c, 0, 60, 0
2, 79584, Note_on_c, 0, 54, 0
2, 79642, Note_on_c, 0, 92, 69
2, 79642, Note_on_c, 0, 96, 79
2, 79642, Note_on_c, 0, 89, 68
2, 79643, Note_on_c, 0, 84, 72
2, 79647, Control_c, 0, 64, 0
2, 79658, Note_on_c, 0, 50, 38
2, 79660, Note_on_c, 0, 56, 32
2, 79667, Note_on_c, 0, 60, 26
2, 79672, Control_c, 0, 64, 127
2, 79688, Note_on_c, 0, 96, 0
2, 79693, Note_on_c, 0, 50, 0
2, 79694, Note_on_c, 0, 89, 0
2, 79697, Note_on_c, 0, 92, 0
2, 79701, Note_on_c, 0, 56, 0
2, 79703, Note_on_c, 0, 84, 0
2, 79708, Note_on_c, 0, 60, 0
2, 79802, Control_c, 0, 64, 0
2, 79803, Note_on_c, 0, 54, 39
2, 79804, Note_on_c, 0, 65, 47
2, 79804, Note_on_c, 0, 92, 67
2, 79804, Note_on_c, 0, 87, 57
2, 79806, Note_on_c, 0, 80, 35
2, 79808, Note_on_c, 0, 60, 36
2, 79849, Control_c, 0, 64, 127
2, 79855, Note_on_c, 0, 60, 0
2, 79867, Note_on_c, 0, 65, 0
2, 79871, Note_on_c, 0, 92, 0
2, 79873, Note_on_c, 0, 54, 0
2, 79880, Note_on_c, 0, 87, 0
2, 79885, Note_on_c, 0, 80, 0
2, 79912, Control_c, 0, 64, 0
2, 79922, Note_on_c, 0, 54, 43
2, 79923, Note_on_c, 0, 65, 36
2, 79924, Note_on_c, 0, 86, 67
2, 79924, Note_on_c, 0, 79, 50
2, 79925, Note_on_c, 0, 91, 57
2, 79927, Note_on_c, 0, 60, 47
2, 79928, Control_c, 0, 64, 127
2, 79933, Note_on_c, 0, 65, 0
2, 79936, Note_on_c, 0, 60, 0
2, 79945, Note_on_c, 0, 79, 0
2, 79947, Note_on_c, 0, 86, 0
2, 79948, Note_on_c, 0, 91, 0
2, 79949, Note_on_c, 0, 54, 0
2, 80031, Control_c, 0, 64, 0
2, 80034, Note_on_c, 0, 43, 70
2, 80036, Note_on_c, 0, 31, 80
2, 80053, Note_on_c, 0, 31, 0
2, 80053, Note_on_c, 0, 43, 0
2, 80058, Control_c, 0, 64, 127
2, 80162, Note_on_c, 0, 70, 61
2, 80162, Note_on_c, 0, 63, 50
2, 80164, Note_on_c, 0, 53, 62
2, 80164, Note_on_c, 0, 65, 45
2, 80166, Note_on_c, 0, 59, 51
2, 80166, Control_c, 0, 64, 0
2, 80191, Control_c, 0, 64, 127
2, 80242, Note_on_c, 0, 59, 0
2, 80248, Note_on_c, 0, 63, 0
2, 80249, Note_on_c, 0, 65, 0
2, 80255, Note_on_c, 0, 70, 0
2, 80266, Note_on_c, 0, 53, 0
2, 80272, Control_c, 0, 64, 0
2, 80280, Note_on_c, 0, 43, 46
2, 80280, Note_on_c, 0, 68, 55
2, 80284, Note_on_c, 0, 59, 48
2, 80285, Note_on_c, 0, 63, 31
2, 80291, Note_on_c, 0, 65, 33
2, 80303, Control_c, 0, 64, 127
2, 80346, Note_on_c, 0, 63, 0
2, 80351, Note_on_c, 0, 59, 0
2, 80376, Note_on_c, 0, 65, 0
2, 80377, Note_on_c, 0, 68, 0
2, 80391, Note_on_c, 0, 53, 33
2, 80400, Control_c, 0, 64, 0
2, 80401, Note_on_c, 0, 53, 0
2, 80401, Note_on_c, 0, 63, 46
2, 80401, Note_on_c, 0, 59, 55
2, 80402, Note_on_c, 0, 67, 55
2, 80415, Note_on_c, 0, 43, 0
2, 80427, Control_c, 0, 64, 127
2, 80482, Note_on_c, 0, 31, 79
2, 80483, Control_c, 0, 64, 0
2, 80484, Note_on_c, 0, 43, 77
2, 80507, Note_on_c, 0, 31, 0
2, 80512, Note_on_c, 0, 43, 0
2, 80512, Control_c, 0, 64, 127
2, 80553, Note_on_c, 0, 67, 0
2, 80573, Note_on_c, 0, 59, 0
2, 80587, Note_on_c, 0, 63, 0
2, 80760, Note_on_c, 0, 74, 74
2, 80761, Control_c, 0, 64, 0
2, 80762, Note_on_c, 0, 62, 80
2, 80762, Note_on_c, 0, 67, 71
2, 80763, Note_on_c, 0, 59, 65
2, 80764, Note_on_c, 0, 71, 57
2, 80766, Note_on_c, 0, 70, 26
2, 80802, Control_c, 0, 64, 127
2, 80834, Note_on_c, 0, 59, 0
2, 80850, Note_on_c, 0, 55, 61
2, 80867, Note_on_c, 0, 71, 0
2, 80869, Note_on_c, 0, 70, 0
2, 80875, Note_on_c, 0, 67, 0
2, 80876, Note_on_c, 0, 74, 0
2, 80892, Note_on_c, 0, 62, 0
2, 80942, Note_on_c, 0, 48, 49
2, 80942, Note_on_c, 0, 67, 49
2, 80942, Note_on_c, 0, 62, 51
2, 80946, Note_on_c, 0, 64, 45
2, 80968, Note_on_c, 0, 48, 0
2, 80978, Note_on_c, 0, 67, 0
2, 80980, Note_on_c, 0, 64, 0
2, 80997, Note_on_c, 0, 62, 0
2, 81019, Note_on_c, 0, 48, 49
2, 81020, Note_on_c, 0, 55, 0
2, 81042, Note_on_c, 0, 48, 0
2, 81097, Note_on_c, 0, 63, 57
2, 81099, Control_c, 0, 64, 0
2, 81100, Note_on_c, 0, 58, 48
2, 81101, Note_on_c, 0, 46, 46
2, 81101, Note_on_c, 0, 67, 51
2, 81104, Note_on_c, 0, 55, 49
2, 81137, Control_c, 0, 64, 127
2, 81164, Note_on_c, 0, 46, 0
2, 81192, Note_on_c, 0, 55, 0
2, 81193, Note_on_c, 0, 46, 55
2, 81203, Note_on_c, 0, 58, 0
2, 81232, Note_on_c, 0, 67, 0
2, 81244, Note_on_c, 0, 63, 0
2, 81308, Note_on_c, 0, 46, 0
2, 81320, Note_on_c, 0, 63, 46
2, 81321, Note_on_c, 0, 46, 42
2, 81323, Note_on_c, 0, 58, 49
2, 81324, Note_on_c, 0, 55, 58
2, 81335, Control_c, 0, 64, 0
2, 81364, Control_c, 0, 64, 127
2, 81401, Note_on_c, 0, 55, 0
2, 81407, Note_on_c, 0, 46, 0
2, 81437, Note_on_c, 0, 58, 0
2, 81439, Note_on_c, 0, 63, 0
2, 81440, Note_on_c, 0, 46, 43
2, 81446, Note_on_c, 0, 55, 56
2, 81473, Note_on_c, 0, 55, 0
2, 81490, Control_c, 0, 64, 0
2, 81494, Note_on_c, 0, 56, 30
2, 81526, Note_on_c, 0, 56, 0
2, 81533, Note_on_c, 0, 57, 64
2, 81553, Control_c, 0, 64, 127
2, 81558, Note_on_c, 0, 57, 0
2, 81566, Note_on_c, 0, 46, 0
2, 81567, Note_on_c, 0, 58, 62
2, 81591, Control_c, 0, 64, 0
2, 81594, Note_on_c, 0, 45, 34
2, 81595, Note_on_c, 0, 58, 0
2, 81601, Note_on_c, 0, 55, 18
2, 81615, Note_on_c, 0, 60, 36
2, 81640, Note_on_c, 0, 60, 0
2, 81648, Note_on_c, 0, 65, 45
2, 81680, Note_on_c, 0, 70, 68
2, 81686, Note_on_c, 0, 65, 0
2, 81704, Note_on_c, 0, 70, 0
2, 81714, Note_on_c, 0, 45, 0
2, 81722, Note_on_c, 0, 72, 61
2, 81728, Note_on_c, 0, 55, 0
2, 81750, Note_on_c, 0, 72, 0
2, 81755, Note_on_c, 0, 77, 57
2, 81771, Control_c, 0, 64, 127
2, 81786, Note_on_c, 0, 77, 0
2, 81795, Note_on_c, 0, 82, 75
2, 81825, Note_on_c, 0, 82, 0
2, 81825, Control_c, 0, 64, 0
2, 81833, Note_on_c, 0, 61, 31
2, 81833, Note_on_c, 0, 65, 37
2, 81836, Note_on_c, 0, 84, 72
2, 81836, Note_on_c, 0, 60, 49
2, 81840, Note_on_c, 0, 55, 24
2, 81856, Note_on_c, 0, 84, 0
2, 81856, Control_c, 0, 64, 127
2, 81874, Note_on_c, 0, 82, 28
2, 81884, Note_on_c, 0, 65, 0
2, 81891, Note_on_c, 0, 82, 0
2, 81897, Note_on_c, 0, 60, 0
2, 81900, Note_on_c, 0, 61, 0
2, 81909, Note_on_c, 0, 84, 67
2, 81911, Note_on_c, 0, 72, 52
2, 81917, Control_c, 0, 64, 0
2, 81920, Note_on_c, 0, 60, 26
2, 81923, Note_on_c, 0, 61, 32
2, 81931, Note_on_c, 0, 84, 0
2, 81945, Note_on_c, 0, 72, 0
2, 81950, Control_c, 0, 64, 127
2, 81956, Note_on_c, 0, 82, 34
2, 81968, Note_on_c, 0, 55, 0
2, 81974, Note_on_c, 0, 82, 0
2, 81992, Note_on_c, 0, 84, 70
2, 81993, Note_on_c, 0, 72, 52
2, 82001, Note_on_c, 0, 65, 32
2, 82008, Note_on_c, 0, 55, 20
2, 82014, Note_on_c, 0, 84, 0
2, 82018, Note_on_c, 0, 65, 0
2, 82025, Note_on_c, 0, 72, 0
2, 82028, Note_on_c, 0, 60, 0
2, 82031, Note_on_c, 0, 55, 0
2, 82032, Note_on_c, 0, 82, 46
2, 82039, Note_on_c, 0, 61, 0
2, 82064, Note_on_c, 0, 82, 0
2, 82078, Control_c, 0, 64, 0
2, 82081, Note_on_c, 0, 65, 54
2, 82083, Note_on_c, 0, 54, 36
2, 82083, Note_on_c, 0, 85, 67
2, 82085, Note_on_c, 0, 73, 50
2, 82085, Note_on_c, 0, 60, 43
2, 82087, Note_on_c, 0, 58, 34
2, 82114, Note_on_c, 0, 86, 56
2, 82118, Note_on_c, 0, 73, 0
2, 82119, Note_on_c, 0, 85, 0
2, 82119, Control_c, 0, 64, 127
2, 82121, Note_on_c, 0, 74, 51
2, 82148, Note_on_c, 0, 74, 0
2, 82148, Note_on_c, 0, 86, 0
2, 82148, Note_on_c, 0, 58, 0
2, 82149, Note_on_c, 0, 60, 0
2, 82153, Note_on_c, 0, 65, 0
2, 82158, Note_on_c, 0, 54, 0
2, 82170, Control_c, 0, 64, 0
2, 82200, Note_on_c, 0, 86, 74
2, 82202, Note_on_c, 0, 74, 66
2, 82204, Note_on_c, 0, 54, 44
2, 82204, Note_on_c, 0, 65, 52
2, 82205, Note_on_c, 0, 79, 40
2, 82210, Note_on_c, 0, 60, 42
2, 82212, Note_on_c, 0, 58, 26
2, 82224, Control_c, 0, 64, 127
2, 82248, Note_on_c, 0, 86, 0
2, 82251, Note_on_c, 0, 60, 0
2, 82253, Note_on_c, 0, 79, 0
2, 82255, Note_on_c, 0, 58, 0
2, 82257, Note_on_c, 0, 74, 0
2, 82257, Note_on_c, 0, 65, 0
2, 82266, Note_on_c, 0, 54, 0
2, 82284, Note_on_c, 0, 54, 51
2, 82284, Note_on_c, 0, 86, 72
2, 82286, Note_on_c, 0, 74, 64
2, 82288, Note_on_c, 0, 65, 46
2, 82290, Note_on_c, 0, 60, 57
2, 82291, Note_on_c, 0, 58, 30
2, 82292, Note_on_c, 0, 79, 38
2, 82301, Note_on_c, 0, 86, 0
2, 82306, Note_on_c, 0, 74, 0
2, 82310, Note_on_c, 0, 65, 0
2, 82312, Note_on_c, 0, 54, 0
2, 82314, Note_on_c, 0, 79, 0
2, 82320, Note_on_c, 0, 60, 0
2, 82325, Control_c, 0, 64, 0
2, 82328, Note_on_c, 0, 58, 0
2, 82342, Note_on_c, 0, 54, 62
2, 82342, Note_on_c, 0, 85, 59
2, 82344, Note_on_c, 0, 73, 40
2, 82344, Note_on_c, 0, 79, 44
2, 82344, Note_on_c, 0, 65, 50
2, 82346, Note_on_c, 0, 60, 56
2, 82346, Note_on_c, 0, 58, 35
2, 82356, Note_on_c, 0, 86, 55
2, 82360, Note_on_c, 0, 85, 0
2, 82362, Note_on_c, 0, 84, 30
2, 82370, Note_on_c, 0, 74, 52
2, 82371, Note_on_c, 0, 73, 0
2, 82381, Control_c, 0, 64, 127
2, 82407, Note_on_c, 0, 86, 0
2, 82407, Note_on_c, 0, 65, 0
2, 82409, Note_on_c, 0, 84, 0
2, 82410, Note_on_c, 0, 58, 0
2, 82411, Note_on_c, 0, 74, 0
2, 82412, Note_on_c, 0, 60, 0
2, 82413, Note_on_c, 0, 79, 0
2, 82420, Control_c, 0, 64, 0
2, 82421, Note_on_c, 0, 54, 0
2, 82443, Note_on_c, 0, 86, 75
2, 82444, Note_on_c, 0, 60, 34
2, 82445, Note_on_c, 0, 54, 47
2, 82446, Note_on_c, 0, 58, 47
2, 82446, Note_on_c, 0, 65, 47
2, 82446, Note_on_c, 0, 79, 62
2, 82447, Note_on_c, 0, 74, 62
2, 82448, Control_c, 0, 64, 127
2, 82470, Note_on_c, 0, 79, 0
2, 82476, Note_on_c, 0, 65, 0
2, 82477, Note_on_c, 0, 54, 0
2, 82477, Note_on_c, 0, 86, 0
2, 82480, Note_on_c, 0, 60, 0
2, 82485, Note_on_c, 0, 58, 0
2, 82489, Note_on_c, 0, 74, 0
2, 82523, Note_on_c, 0, 65, 65
2, 82524, Note_on_c, 0, 80, 59
2, 82524, Note_on_c, 0, 72, 68
2, 82525, Note_on_c, 0, 77, 64
2, 82525, Note_on_c, 0, 84, 73
2, 82527, Control_c, 0, 64, 0
2, 82527, Note_on_c, 0, 56, 39
2, 82527, Note_on_c, 0, 55, 58
2, 82527, Note_on_c, 0, 60, 60
2, 82551, Note_on_c, 0, 65, 0
2, 82553, Control_c, 0, 64, 127
2, 82557, Note_on_c, 0, 60, 0
2, 82562, Note_on_c, 0, 55, 0
2, 82567, Note_on_c, 0, 56, 0
2, 82603, Note_on_c, 0, 84, 0
2, 82619, Note_on_c, 0, 77, 0
2, 82622, Note_on_c, 0, 80, 0
2, 82628, Note_on_c, 0, 72, 0
2, 82639, Note_on_c, 0, 43, 79
2, 82640, Note_on_c, 0, 55, 84
2, 82766, Note_on_c, 0, 55, 0
2, 82769, Note_on_c, 0, 50, 50
2, 82792, Note_on_c, 0, 50, 0
2, 82796, Note_on_c, 0, 56, 55
2, 82798, Note_on_c, 0, 67, 59
2, 82800, Note_on_c, 0, 60, 58
2, 82801, Note_on_c, 0, 62, 47
2, 82803, Control_c, 0, 64, 0
2, 82805, Note_on_c, 0, 55, 66
2, 82870, Control_c, 0, 64, 127
2, 82877, Note_on_c, 0, 43, 0
2, 82892, Note_on_c, 0, 43, 60
2, 82893, Control_c, 0, 64, 0
2, 82918, Note_on_c, 0, 67, 0
2, 82933, Control_c, 0, 64, 127
2, 82951, Note_on_c, 0, 60, 0
2, 82965, Note_on_c, 0, 56, 0
2, 82979, Note_on_c, 0, 55, 0
2, 82984, Note_on_c, 0, 50, 24
2, 82985, Note_on_c, 0, 62, 0
2, 82997, Note_on_c, 0, 50, 0
2, 83002, Note_on_c, 0, 56, 53
2, 83003, Note_on_c, 0, 65, 54
2, 83004, Note_on_c, 0, 62, 24
2, 83005, Note_on_c, 0, 59, 59
2, 83007, Control_c, 0, 64, 0
2, 83011, Note_on_c, 0, 55, 47
2, 83027, Note_on_c, 0, 43, 0
2, 83035, Note_on_c, 0, 55, 0
2, 83065, Control_c, 0, 64, 127
2, 83114, Note_on_c, 0, 56, 0
2, 83116, Note_on_c, 0, 43, 80
2, 83117, Control_c, 0, 64, 0
2, 83118, Note_on_c, 0, 55, 77
2, 83153, Control_c, 0, 64, 127
2, 83207, Note_on_c, 0, 55, 0
2, 83268, Note_on_c, 0, 59, 0
2, 83281, Note_on_c, 0, 62, 0
2, 83285, Note_on_c, 0, 65, 0
2, 83286, Note_on_c, 0, 55, 50
2, 83313, Note_on_c, 0, 43, 0
2, 83357, Note_on_c, 0, 43, 58
2, 83371, Note_on_c, 0, 55, 0
2, 83373, Note_on_c, 0, 43, 0
2, 83401, Note_on_c, 0, 79, 42
2, 83402, Control_c, 0, 64, 0
2, 83441, Note_on_c, 0, 79, 0
2, 83443, Note_on_c, 0, 84, 49
2, 83459, Note_on_c, 0, 84, 0
2, 83477, Note_on_c, 0, 87, 64
2, 83500, Note_on_c, 0, 87, 0
2, 83514, Note_on_c, 0, 72, 33
2, 83527, Note_on_c, 0, 72, 0
2, 83549, Note_on_c, 0, 76, 40
2, 83571, Note_on_c, 0, 76, 0
2, 83596, Note_on_c, 0, 64, 43
2, 83613, Note_on_c, 0, 64, 0
2, 83634, Note_on_c, 0, 72, 36
2, 83667, Note_on_c, 0, 72, 0
2, 83676, Note_on_c, 0, 81, 71
2, 83705, Note_on_c, 0, 81, 0
2, 83725, Note_on_c, 0, 63, 19
2, 83743, Note_on_c, 0, 63, 0
2, 83765, Note_on_c, 0, 67, 32
2, 83766, Note_on_c, 0, 69, 30
2, 83778, Note_on_c, 0, 69, 0
2, 83780, Note_on_c, 0, 67, 0
2, 83798, Note_on_c, 0, 63, 32
2, 83808, Note_on_c, 0, 63, 0
2, 83826, Note_on_c, 0, 75, 64
2, 83853, Note_on_c, 0, 75, 0
2, 83868, Note_on_c, 0, 51, 55
2, 83889, Note_on_c, 0, 51, 0
2, 83907, Note_on_c, 0, 67, 55
2, 83932, Note_on_c, 0, 67, 0
2, 83952, Note_on_c, 0, 50, 25
2, 83960, Note_on_c, 0, 50, 0
2, 83983, Note_on_c, 0, 66, 62
2, 84025, Note_on_c, 0, 62, 68
2, 84028, Note_on_c, 0, 66, 0
2, 84037, Note_on_c, 0, 62, 0
2, 84059, Note_on_c, 0, 74, 64
2, 84059, Note_on_c, 0, 76, 64
2, 84074, Note_on_c, 0, 76, 0
2, 84094, Note_on_c, 0, 74, 0
2, 84105, Note_on_c, 0, 57, 60
2, 84116, Note_on_c, 0, 57, 0
2, 84187, Note_on_c, 0, 72, 70
2, 84211, Note_on_c, 0, 72, 0
2, 84212, Note_on_c, 0, 54, 47
2, 84235, Note_on_c, 0, 54, 0
2, 84256, Note_on_c, 0, 60, 58
2, 84265, Note_on_c, 0, 60, 0
2, 84296, Note_on_c, 0, 44, 60
2, 84321, Note_on_c, 0, 44, 0
2, 84339, Note_on_c, 0, 54, 53
2, 84340, Note_on_c, 0, 63, 62
2, 84343, Note_on_c, 0, 60, 62
2, 84351, Note_on_c, 0, 60, 0
2, 84359, Note_on_c, 0, 63, 0
2, 84366, Note_on_c, 0, 54, 0
2, 84380, Control_c, 0, 64, 127
2, 84389, Note_on_c, 0, 44, 48
2, 84415, Note_on_c, 0, 44, 0
2, 84425, Note_on_c, 0, 62, 74
2, 84426, Note_on_c, 0, 53, 63
2, 84427, Note_on_c, 0, 59, 65
2, 84431, Control_c, 0, 64, 0
2, 84474, Control_c, 0, 64, 127
2, 84552, Note_on_c, 0, 43, 51
2, 84556, Note_on_c, 0, 59, 0
2, 84565, Note_on_c, 0, 53, 0
2, 84568, Note_on_c, 0, 62, 0
2, 84580, Note_on_c, 0, 43, 0
2, 84596, Note_on_c, 0, 53, 44
2, 84598, Control_c, 0, 64, 0
2, 84598, Note_on_c, 0, 59, 58
2, 84601, Note_on_c, 0, 45, 40
2, 84601, Note_on_c, 0, 64, 42
2, 84622, Note_on_c, 0, 64, 0
2, 84624, Note_on_c, 0, 59, 0
2, 84668, Note_on_c, 0, 45, 0
2, 84672, Control_c, 0, 64, 127
2, 84681, Note_on_c, 0, 46, 40
2, 84689, Note_on_c, 0, 53, 0
2, 84700, Note_on_c, 0, 46, 0
2, 84705, Control_c, 0, 64, 0
2, 84719, Note_on_c, 0, 47, 17
2, 84722, Note_on_c, 0, 62, 55
2, 84724, Note_on_c, 0, 55, 46
2, 84725, Note_on_c, 0, 65, 45
2, 84725, Note_on_c, 0, 59, 54
2, 84741, Control_c, 0, 64, 127
2, 84787, Note_on_c, 0, 55, 0
2, 84803, Note_on_c, 0, 43, 59
2, 84808, Note_on_c, 0, 47, 0
2, 84812, Note_on_c, 0, 43, 0
2, 84816, Note_on_c, 0, 59, 0
2, 84826, Note_on_c, 0, 62, 0
2, 84827, Note_on_c, 0, 65, 0
2, 84912, Control_c, 0, 64, 0
2, 84918, Note_on_c, 0, 67, 60
2, 84918, Note_on_c, 0, 49, 42
2, 84920, Note_on_c, 0, 53, 47
2, 84920, Note_on_c, 0, 63, 40
2, 84921, Note_on_c, 0, 59, 37
2, 84936, Note_on_c, 0, 59, 0
2, 84939, Control_c, 0, 64, 127
2, 84948, Note_on_c, 0, 63, 0
2, 84949, Note_on_c, 0, 67, 0
2, 85008, Note_on_c, 0, 49, 0
2, 85019, Note_on_c, 0, 53, 0
2, 85038, Note_on_c, 0, 79, 66
2, 85038, Note_on_c, 0, 67, 70
2, 85042, Note_on_c, 0, 55, 55
2, 85050, Note_on_c, 0, 55, 0
2, 85053, Note_on_c, 0, 67, 0
2, 85064, Note_on_c, 0, 79, 0
2, 85154, Note_on_c, 0, 75, 75
2, 85154, Note_on_c, 0, 63, 62
2, 85155, Note_on_c, 0, 59, 64
2, 85155, Note_on_c, 0, 87, 75
2, 85157, Note_on_c, 0, 53, 40
2, 85163, Note_on_c, 0, 63, 0
2, 85165, Note_on_c, 0, 59, 0
2, 85167, Note_on_c, 0, 53, 0
2, 85168, Note_on_c, 0, 75, 0
2, 85176, Note_on_c, 0, 87, 0
2, 85273, Note_on_c, 0, 63, 69
2, 85274, Note_on_c, 0, 53, 60
2, 85274, Note_on_c, 0, 59, 58
2, 85275, Note_on_c, 0, 91, 76
2, 85276, Note_on_c, 0, 79, 74
2, 85291, Note_on_c, 0, 63, 0
2, 85292, Note_on_c, 0, 53, 0
2, 85292, Note_on_c, 0, 59, 0
2, 85297, Note_on_c, 0, 79, 0
2, 85312, Note_on_c, 0, 91, 0
2, 85563, Note_on_c, 0, 62, 76
2, 85563, Note_on_c, 0, 52, 78
2, 85564, Note_on_c, 0, 96, 84
2, 85564, Note_on_c, 0, 89, 77
2, 85564, Note_on_c, 0, 84, 82
2, 85564, Note_on_c, 0, 58, 62
2, 85569, Control_c, 0, 64, 0
2, 85598, Control_c, 0, 64, 127
2, 85616, Note_on_c, 0, 84, 0
2, 85618, Note_on_c, 0, 52, 0
2, 85621, Note_on_c, 0, 89, 0
2, 85621, Note_on_c, 0, 62, 0
2, 85622, Note_on_c, 0, 96, 0
2, 85631, Note_on_c, 0, 58, 0
2, 85639, Note_on_c, 0, 52, 58
2, 85641, Note_on_c, 0, 96, 70
2, 85642, Note_on_c, 0, 58, 35
2, 85642, Note_on_c, 0, 62, 75
2, 85643, Note_on_c, 0, 89, 63
2, 85645, Note_on_c, 0, 84, 64
2, 85664, Note_on_c, 0, 62, 0
2, 85665, Note_on_c, 0, 52, 0
2, 85668, Note_on_c, 0, 84, 0
2, 85669, Note_on_c, 0, 96, 0
2, 85670, Note_on_c, 0, 89, 0
2, 85676, Note_on_c, 0, 58, 0
2, 85686, Note_on_c, 0, 52, 60
2, 85687, Note_on_c, 0, 96, 62
2, 85687, Note_on_c, 0, 62, 64
2, 85688, Note_on_c, 0, 58, 37
2, 85688, Note_on_c, 0, 89, 67
2, 85689, Note_on_c, 0, 84, 59
2, 85715, Note_on_c, 0, 52, 0
2, 85717, Note_on_c, 0, 62, 0
2, 85718, Note_on_c, 0, 84, 0
2, 85721, Note_on_c, 0, 89, 0
2, 85726, Note_on_c, 0, 96, 0
2, 85741, Note_on_c, 0, 58, 0
2, 85759, Note_on_c, 0, 58, 59
2, 85760, Note_on_c, 0, 89, 68
2, 85760, Note_on_c, 0, 52, 68
2, 85761, Note_on_c, 0, 96, 69
2, 85762, Note_on_c, 0, 62, 63
2, 85762, Note_on_c, 0, 84, 66
2, 85768, Note_on_c, 0, 52, 0
2, 85772, Note_on_c, 0, 62, 0
2, 85777, Note_on_c, 0, 84, 0
2, 85785, Note_on_c, 0, 89, 0
2, 85789, Note_on_c, 0, 58, 0
2, 85793, Note_on_c, 0, 96, 0
2, 85873, Note_on_c, 0, 92, 85
2, 85874, Note_on_c, 0, 58, 78
2, 85876, Note_on_c, 0, 64, 74
2, 85876, Note_on_c, 0, 96, 72
2, 85877, Note_on_c, 0, 52, 78
2, 85877, Control_c, 0, 64, 0
2, 85878, Note_on_c, 0, 86, 62
2, 85879, Note_on_c, 0, 88, 55
2, 85884, Note_on_c, 0, 52, 0
2, 85884, Note_on_c, 0, 96, 0
2, 85885, Note_on_c, 0, 86, 0
2, 85887, Note_on_c, 0, 64, 0
2, 85887, Note_on_c, 0, 88, 0
2, 85889, Note_on_c, 0, 92, 0
2, 85905, Note_on_c, 0, 58, 0
2, 85936, Control_c, 0, 64, 127
2, 85983, Control_c, 0, 64, 0
2, 85984, Note_on_c, 0, 75, 64
2, 85986, Note_on_c, 0, 68, 68
2, 85987, Note_on_c, 0, 63, 77
2, 85988, Note_on_c, 0, 64, 71
2, 85988, Note_on_c, 0, 72, 49
2, 86019, Note_on_c, 0, 64, 0
2, 86021, Note_on_c, 0, 72, 0
2, 86022, Note_on_c, 0, 68, 0
2, 86030, Note_on_c, 0, 63, 0
2, 86032, Note_on_c, 0, 75, 0
2, 86045, Note_on_c, 0, 73, 38
2, 86046, Control_c, 0, 64, 127
2, 86047, Note_on_c, 0, 64, 58
2, 86048, Note_on_c, 0, 68, 56
2, 86050, Note_on_c, 0, 61, 56
2, 86064, Note_on_c, 0, 68, 0
2, 86066, Note_on_c, 0, 73, 0
2, 86073, Note_on_c, 0, 64, 0
2, 86076, Note_on_c, 0, 61, 0
2, 86123, Note_on_c, 0, 72, 45
2, 86126, Note_on_c, 0, 64, 65
2, 86127, Control_c, 0, 64, 0
2, 86127, Note_on_c, 0, 67, 46
2, 86136, Note_on_c, 0, 67, 0
2, 86136, Note_on_c, 0, 72, 0
2, 86146, Note_on_c, 0, 64, 0
2, 86193, Note_on_c, 0, 55, 55
2, 86197, Note_on_c, 0, 64, 58
2, 86198, Note_on_c, 0, 58, 46
2, 86199, Note_on_c, 0, 61, 48
2, 86205, Control_c, 0, 64, 127
2, 86247, Note_on_c, 0, 58, 0
2, 86254, Note_on_c, 0, 55, 0
2, 86255, Control_c, 0, 64, 0
2, 86268, Note_on_c, 0, 64, 0
2, 86270, Control_c, 0, 64, 127
2, 86272, Note_on_c, 0, 58, 42
2, 86275, Note_on_c, 0, 52, 50
2, 86289, Note_on_c, 0, 61, 0
2, 86295, Note_on_c, 0, 58, 0
2, 86347, Note_on_c, 0, 52, 0
2, 86353, Note_on_c, 0, 67, 66
2, 86357, Note_on_c, 0, 56, 44
2, 86359, Note_on_c, 0, 60, 56
2, 86359, Note_on_c, 0, 63, 36
2, 86360, Note_on_c, 0, 55, 57
2, 86361, Control_c, 0, 64, 0
2, 86403, Control_c, 0, 64, 127
2, 86441, Note_on_c, 0, 56, 0
2, 86443, Note_on_c, 0, 60, 0
2, 86449, Note_on_c, 0, 67, 0
2, 86457, Note_on_c, 0, 63, 0
2, 86468, Note_on_c, 0, 55, 0
2, 86468, Note_on_c, 0, 56, 64
2, 86471, Note_on_c, 0, 65, 57
2, 86473, Control_c, 0, 64, 0
2, 86473, Note_on_c, 0, 60, 61
2, 86473, Note_on_c, 0, 63, 25
2, 86474, Note_on_c, 0, 53, 54
2, 86504, Control_c, 0, 64, 127
2, 86574, Note_on_c, 0, 65, 0
2, 86590, Note_on_c, 0, 53, 0
2, 86591, Note_on_c, 0, 56, 0
2, 86594, Note_on_c, 0, 60, 0
2, 86612, Note_on_c, 0, 63, 0
2, 86631, Note_on_c, 0, 64, 40
2, 86633, Note_on_c, 0, 56, 28
2, 86635, Note_on_c, 0, 52, 33
2, 86636, Control_c, 0, 64, 0
2, 86673, Control_c, 0, 64, 127
2, 86681, Note_on_c, 0, 56, 0
2, 86701, Note_on_c, 0, 64, 0
2, 86717, Note_on_c, 0, 56, 44
2, 86718, Note_on_c, 0, 53, 42
2, 86720, Control_c, 0, 64, 0
2, 86720, Note_on_c, 0, 65, 50
2, 86720, Note_on_c, 0, 60, 58
2, 86727, Note_on_c, 0, 53, 0
2, 86729, Note_on_c, 0, 52, 0
2, 86738, Control_c, 0, 64, 127
2, 86743, Note_on_c, 0, 56, 0
2, 86747, Note_on_c, 0, 60, 0
2, 86749, Note_on_c, 0, 65, 0
2, 86837, Control_c, 0, 64, 0
2, 86840, Note_on_c, 0, 64, 49
2, 86841, Note_on_c, 0, 56, 42
2, 86841, Note_on_c, 0, 24, 47
2, 86842, Note_on_c, 0, 61, 43
2, 86842, Note_on_c, 0, 52, 46
2, 86847, Note_on_c, 0, 36, 32
2, 86863, Note_on_c, 0, 52, 0
2, 86867, Note_on_c, 0, 56, 0
2, 86874, Note_on_c, 0, 61, 0
2, 86875, Note_on_c, 0, 24, 0
2, 86875, Control_c, 0, 64, 127
2, 86878, Note_on_c, 0, 64, 0
2, 86882, Note_on_c, 0, 36, 0
2, 86963, Note_on_c, 0, 73, 35
2, 86964, Note_on_c, 0, 68, 56
2, 86964, Note_on_c, 0, 76, 62
2, 86966, Note_on_c, 0, 58, 29
2, 86967, Note_on_c, 0, 64, 53
2, 87078, Note_on_c, 0, 68, 0
2, 87079, Note_on_c, 0, 64, 0
2, 87085, Note_on_c, 0, 73, 0
2, 87110, Note_on_c, 0, 76, 0
2, 87119, Note_on_c, 0, 73, 27
2, 87123, Note_on_c, 0, 68, 33
2, 87124, Note_on_c, 0, 61, 40
2, 87128, Note_on_c, 0, 64, 31
2, 87159, Note_on_c, 0, 58, 0
2, 87207, Note_on_c, 0, 58, 38
2, 87224, Note_on_c, 0, 61, 0
2, 87228, Note_on_c, 0, 64, 0
2, 87235, Note_on_c, 0, 73, 0
2, 87246, Note_on_c, 0, 68, 0
2, 87296, Note_on_c, 0, 58, 0
2, 87364, Control_c, 0, 64, 0
2, 87366, Note_on_c, 0, 63, 46
2, 87368, Note_on_c, 0, 72, 32
2, 87369, Note_on_c, 0, 53, 35
2, 87369, Note_on_c, 0, 68, 33
2, 87372, Note_on_c, 0, 60, 32
2, 87385, Control_c, 0, 64, 127
2, 87411, Note_on_c, 0, 72, 0
2, 87412, Note_on_c, 0, 63, 0
2, 87418, Note_on_c, 0, 53, 0
2, 87427, Note_on_c, 0, 68, 0
2, 87435, Note_on_c, 0, 60, 0
2, 87447, Note_on_c, 0, 61, 49
2, 87449, Note_on_c, 0, 70, 40
2, 87451, Note_on_c, 0, 66, 47
2, 87454, Note_on_c, 0, 53, 32
2, 87463, Note_on_c, 0, 61, 0
2, 87469, Note_on_c, 0, 70, 0
2, 87471, Note_on_c, 0, 66, 0
2, 87476, Note_on_c, 0, 53, 0
2, 87481, Control_c, 0, 64, 0
2, 87486, Note_on_c, 0, 63, 55
2, 87487, Note_on_c, 0, 53, 22
2, 87487, Note_on_c, 0, 72, 42
2, 87490, Note_on_c, 0, 68, 44
2, 87496, Note_on_c, 0, 60, 30
2, 87510, Note_on_c, 0, 60, 0
2, 87511, Control_c, 0, 64, 127
2, 87519, Note_on_c, 0, 72, 0
2, 87520, Note_on_c, 0, 63, 0
2, 87545, Note_on_c, 0, 53, 0
2, 87548, Note_on_c, 0, 68, 0
2, 87564, Note_on_c, 0, 61, 56
2, 87564, Note_on_c, 0, 70, 56
2, 87565, Note_on_c, 0, 66, 54
2, 87580, Control_c, 0, 64, 0
2, 87643, Control_c, 0, 64, 127
2, 87675, Note_on_c, 0, 41, 50
2, 87695, Note_on_c, 0, 41, 0
2, 87719, Note_on_c, 0, 41, 37
2, 87735, Note_on_c, 0, 61, 0
2, 87737, Note_on_c, 0, 41, 0
2, 87739, Note_on_c, 0, 66, 0
2, 87742, Note_on_c, 0, 70, 0
2, 87796, Note_on_c, 0, 70, 57
2, 87799, Note_on_c, 0, 63, 46
2, 87799, Note_on_c, 0, 59, 53
2, 87801, Note_on_c, 0, 44, 39
2, 87801, Note_on_c, 0, 53, 48
2, 87809, Control_c, 0, 64, 0
2, 87865, Control_c, 0, 64, 127
2, 87885, Note_on_c, 0, 59, 0
2, 87897, Note_on_c, 0, 63, 0
2, 87899, Note_on_c, 0, 53, 0
2, 87901, Note_on_c, 0, 70, 0
2, 87910, Note_on_c, 0, 51, 40
2, 87935, Control_c, 0, 64, 0
2, 87939, Note_on_c, 0, 51, 0
2, 87951, Note_on_c, 0, 70, 47
2, 87954, Note_on_c, 0, 63, 40
2, 87955, Note_on_c, 0, 53, 50
2, 87958, Note_on_c, 0, 59, 38
2, 87978, Note_on_c, 0, 53, 0
2, 87978, Control_c, 0, 64, 127
2, 87979, Note_on_c, 0, 70, 0
2, 87983, Note_on_c, 0, 68, 20
2, 87989, Note_on_c, 0, 63, 0
2, 87992, Note_on_c, 0, 59, 0
2, 87997, Note_on_c, 0, 44, 0
2, 88013, Note_on_c, 0, 68, 0
2, 88034, Note_on_c, 0, 68, 49
2, 88036, Note_on_c, 0, 64, 56
2, 88037, Note_on_c, 0, 59, 49
2, 88038, Note_on_c, 0, 54, 58
2, 88039, Control_c, 0, 64, 0
2, 88086, Control_c, 0, 64, 127
2, 88150, Note_on_c, 0, 44, 47
2, 88157, Note_on_c, 0, 54, 0
2, 88162, Control_c, 0, 64, 0
2, 88189, Note_on_c, 0, 54, 38
2, 88198, Control_c, 0, 64, 127
2, 88219, Note_on_c, 0, 64, 0
2, 88222, Note_on_c, 0, 59, 0
2, 88238, Note_on_c, 0, 68, 0
2, 88244, Note_on_c, 0, 54, 0
2, 88265, Note_on_c, 0, 44, 0
2, 88270, Control_c, 0, 64, 0
2, 88272, Note_on_c, 0, 43, 44
2, 88275, Note_on_c, 0, 63, 42
2, 88275, Note_on_c, 0, 67, 43
2, 88276, Note_on_c, 0, 59, 39
2, 88277, Note_on_c, 0, 53, 41
2, 88310, Control_c, 0, 64, 127
2, 88355, Note_on_c, 0, 59, 0
2, 88362, Note_on_c, 0, 67, 0
2, 88377, Note_on_c, 0, 53, 0
2, 88383, Note_on_c, 0, 63, 0
2, 88405, Note_on_c, 0, 66, 52
2, 88409, Note_on_c, 0, 57, 42
2, 88410, Note_on_c, 0, 62, 55
2, 88428, Note_on_c, 0, 57, 0
2, 88440, Note_on_c, 0, 62, 0
2, 88447, Note_on_c, 0, 66, 0
2, 88447, Control_c, 0, 64, 0
2, 88467, Note_on_c, 0, 64, 57
2, 88468, Note_on_c, 0, 59, 41
2, 88469, Note_on_c, 0, 68, 37
2, 88471, Note_on_c, 0, 53, 52
2, 88492, Control_c, 0, 64, 127
2, 88497, Note_on_c, 0, 68, 0
2, 88510, Note_on_c, 0, 59, 0
2, 88512, Note_on_c, 0, 43, 0
2, 88521, Note_on_c, 0, 64, 0
2, 88523, Note_on_c, 0, 53, 0
2, 88543, Note_on_c, 0, 62, 55
2, 88544, Control_c, 0, 64, 0
2, 88544, Note_on_c, 0, 66, 54
2, 88547, Note_on_c, 0, 53, 45
2, 88547, Note_on_c, 0, 57, 47
2, 88587, Control_c, 0, 64, 127
2, 88637, Note_on_c, 0, 53, 0
2, 88645, Note_on_c, 0, 43, 60
2, 88652, Control_c, 0, 64, 0
2, 88667, Control_c, 0, 64, 127
2, 88668, Note_on_c, 0, 43, 0
2, 88683, Note_on_c, 0, 57, 0
2, 88713, Note_on_c, 0, 62, 0
2, 88731, Note_on_c, 0, 66, 0
2, 88760, Note_on_c, 0, 65, 68
2, 88762, Note_on_c, 0, 48, 42
2, 88762, Note_on_c, 0, 58, 42
2, 88763, Note_on_c, 0, 62, 61
2, 88770, Note_on_c, 0, 48, 0
2, 88771, Control_c, 0, 64, 0
2, 88840, Control_c, 0, 64, 127
2, 88870, Control_c, 0, 64, 0
2, 88874, Note_on_c, 0, 24, 69
2, 88875, Note_on_c, 0, 36, 68
2, 88891, Note_on_c, 0, 24, 0
2, 88894, Note_on_c, 0, 58, 0
2, 88894, Note_on_c, 0, 36, 0
2, 88908, Control_c, 0, 64, 127
2, 88923, Note_on_c, 0, 62, 0
2, 88925, Note_on_c, 0, 65, 0
2, 88927, Note_on_c, 0, 58, 26
2, 88963, Note_on_c, 0, 58, 0
2, 88989, Note_on_c, 0, 46, 34
2, 88997, Note_on_c, 0, 64, 65
2, 88999, Note_on_c, 0, 61, 59
2, 88999, Note_on_c, 0, 58, 61
2, 88999, Note_on_c, 0, 55, 71
2, 89006, Note_on_c, 0, 48, 45
2, 89012, Note_on_c, 0, 46, 0
2, 89013, Control_c, 0, 64, 0
2, 89040, Control_c, 0, 64, 127
2, 89042, Note_on_c, 0, 64, 0
2, 89052, Note_on_c, 0, 61, 0
2, 89059, Note_on_c, 0, 58, 0
2, 89083, Note_on_c, 0, 55, 0
2, 89118, Note_on_c, 0, 67, 80
2, 89118, Note_on_c, 0, 58, 82
2, 89119, Note_on_c, 0, 61, 67
2, 89120, Note_on_c, 0, 52, 58
2, 89122, Note_on_c, 0, 64, 55
2, 89124, Note_on_c, 0, 48, 0
2, 89126, Control_c, 0, 64, 0
2, 89160, Note_on_c, 0, 64, 0
2, 89162, Control_c, 0, 64, 127
2, 89163, Note_on_c, 0, 67, 0
2, 89167, Note_on_c, 0, 58, 0
2, 89169, Note_on_c, 0, 61, 0
2, 89207, Note_on_c, 0, 51, 51
2, 89215, Note_on_c, 0, 52, 0
2, 89223, Note_on_c, 0, 51, 0
2, 89235, Note_on_c, 0, 70, 75
2, 89238, Note_on_c, 0, 63, 72
2, 89239, Note_on_c, 0, 67, 72
2, 89240, Note_on_c, 0, 60, 77
2, 89243, Note_on_c, 0, 58, 77
2, 89245, Control_c, 0, 64, 0
2, 89292, Control_c, 0, 64, 127
2, 89324, Note_on_c, 0, 60, 0
2, 89330, Note_on_c, 0, 63, 0
2, 89331, Note_on_c, 0, 67, 0
2, 89340, Note_on_c, 0, 70, 0
2, 89348, Note_on_c, 0, 58, 0
2, 89357, Note_on_c, 0, 68, 67
2, 89359, Note_on_c, 0, 56, 64
2, 89360, Note_on_c, 0, 63, 60
2, 89362, Note_on_c, 0, 60, 47
2, 89366, Control_c, 0, 64, 0
2, 89382, Control_c, 0, 64, 127
2, 89397, Note_on_c, 0, 68, 0
2, 89400, Note_on_c, 0, 63, 0
2, 89402, Note_on_c, 0, 56, 0
2, 89412, Note_on_c, 0, 60, 0
2, 89475, Note_on_c, 0, 67, 66
2, 89479, Note_on_c, 0, 63, 46
2, 89479, Note_on_c, 0, 60, 66
2, 89479, Note_on_c, 0, 56, 46
2, 89483, Control_c, 0, 64, 0
2, 89483, Note_on_c, 0, 55, 66
2, 89512, Control_c, 0, 64, 127
2, 89548, Note_on_c, 0, 60, 0
2, 89556, Note_on_c, 0, 55, 0
2, 89560, Note_on_c, 0, 63, 0
2, 89568, Note_on_c, 0, 56, 0
2, 89581, Note_on_c, 0, 67, 0
2, 89601, Note_on_c, 0, 46, 67
2, 89604, Note_on_c, 0, 56, 70
2, 89605, Note_on_c, 0, 63, 57
2, 89607, Note_on_c, 0, 60, 71
2, 89617, Control_c, 0, 64, 0
2, 89644, Control_c, 0, 64, 127
2, 89645, Note_on_c, 0, 60, 0
2, 89655, Note_on_c, 0, 56, 0
2, 89691, Note_on_c, 0, 63, 0
2, 89719, Control_c, 0, 64, 0
2, 89719, Note_on_c, 0, 67, 74
2, 89719, Note_on_c, 0, 58, 80
2, 89720, Note_on_c, 0, 62, 77
2, 89721, Note_on_c, 0, 64, 70
2, 89721, Note_on_c, 0, 59, 80
2, 89757, Control_c, 0, 64, 127
2, 89760, Note_on_c, 0, 46, 0
2, 89843, Note_on_c, 0, 46, 60
2, 89875, Note_on_c, 0, 46, 0
2, 89893, Note_on_c, 0, 58, 0
2, 89901, Note_on_c, 0, 46, 44
2, 89943, Note_on_c, 0, 46, 0
2, 89974, Note_on_c, 0, 46, 62
2, 89984, Note_on_c, 0, 59, 0
2, 89989, Note_on_c, 0, 62, 0
2, 89990, Control_c, 0, 64, 0
2, 89997, Note_on_c, 0, 64, 0
2, 90002, Note_on_c, 0, 67, 0
2, 90002, Note_on_c, 0, 46, 0
2, 90008, Control_c, 0, 64, 127
2, 90018, Note_on_c, 0, 46, 68
2, 90029, Note_on_c, 0, 67, 24
2, 90038, Note_on_c, 0, 67, 0
2, 90093, Note_on_c, 0, 46, 0
2, 90118, Note_on_c, 0, 46, 48
2, 90120, Note_on_c, 0, 67, 48
2, 90122, Note_on_c, 0, 62, 48
2, 90122, Note_on_c, 0, 59, 52
2, 90131, Note_on_c, 0, 62, 0
2, 90141, Note_on_c, 0, 67, 0
2, 90143, Note_on_c, 0, 59, 0
2, 90192, Note_on_c, 0, 52, 27
2, 90200, Note_on_c, 0, 65, 57
2, 90202, Note_on_c, 0, 58, 46
2, 90203, Note_on_c, 0, 62, 57
2, 90203, Note_on_c, 0, 55, 48
2, 90204, Note_on_c, 0, 52, 0
2, 90205, Note_on_c, 0, 53, 60
2, 90215, Control_c, 0, 64, 0
2, 90269, Control_c, 0, 64, 127
2, 90278, Note_on_c, 0, 46, 0
2, 90312, Note_on_c, 0, 46, 49
2, 90321, Control_c, 0, 64, 0
2, 90334, Control_c, 0, 64, 127
2, 90341, Note_on_c, 0, 46, 0
2, 90359, Note_on_c, 0, 46, 48
2, 90381, Note_on_c, 0, 53, 0
2, 90385, Note_on_c, 0, 55, 0
2, 90399, Note_on_c, 0, 58, 0
2, 90401, Note_on_c, 0, 62, 0
2, 90408, Note_on_c, 0, 65, 0
2, 90438, Note_on_c, 0, 58, 38
2, 90438, Note_on_c, 0, 63, 39
2, 90441, Note_on_c, 0, 55, 49
2, 90445, Note_on_c, 0, 53, 46
2, 90449, Control_c, 0, 64, 0
2, 90484, Note_on_c, 0, 46, 0
2, 90489, Control_c, 0, 64, 127
2, 90551, Note_on_c, 0, 46, 52
2, 90559, Note_on_c, 0, 55, 0
2, 90567, Note_on_c, 0, 53, 0
2, 90582, Note_on_c, 0, 46, 0
2, 90601, Note_on_c, 0, 55, 28
2, 90617, Note_on_c, 0, 63, 0
2, 90618, Note_on_c, 0, 55, 0
2, 90625, Note_on_c, 0, 58, 0
2, 90720, Control_c, 0, 64, 0
2, 90721, Note_on_c, 0, 30, 32
2, 90726, Note_on_c, 0, 42, 19
2, 90726, Note_on_c, 0, 63, 27
2, 90727, Note_on_c, 0, 58, 34
2, 90733, Note_on_c, 0, 52, 24
2, 90761, Note_on_c, 0, 42, 0
2, 90763, Note_on_c, 0, 52, 0
2, 90764, Note_on_c, 0, 30, 0
2, 90764, Note_on_c, 0, 63, 0
2, 90766, Note_on_c, 0, 58, 0
2, 90843, Note_on_c, 0, 63, 42
2, 90843, Note_on_c, 0, 58, 38
2, 90844, Note_on_c, 0, 30, 37
2, 90845, Note_on_c, 0, 42, 34
2, 90845, Note_on_c, 0, 52, 32
2, 90891, Control_c, 0, 64, 127
2, 90928, Note_on_c, 0, 30, 0
2, 90933, Note_on_c, 0, 42, 0
2, 90933, Note_on_c, 0, 52, 0
2, 90934, Note_on_c, 0, 63, 0
2, 90949, Note_on_c, 0, 58, 0
2, 91155, Note_on_c, 0, 68, 30
2, 91156, Note_on_c, 0, 72, 30
2, 91171, Note_on_c, 0, 72, 0
2, 91177, Note_on_c, 0, 68, 0
2, 91192, Control_c, 0, 64, 0
2, 91208, Control_c, 0, 64, 127
2, 91274, Note_on_c, 0, 68, 33
2, 91276, Note_on_c, 0, 65, 27
2, 91277, Note_on_c, 0, 72, 26
2, 91286, Note_on_c, 0, 65, 0
2, 91292, Note_on_c, 0, 72, 0
2, 91301, Note_on_c, 0, 68, 0
2, 91320, Control_c, 0, 64, 0
2, 91323, Note_on_c, 0, 53, 42
2, 91372, Control_c, 0, 64, 127
2, 91375, Note_on_c, 0, 53, 0
2, 91393, Note_on_c, 0, 68, 34
2, 91395, Note_on_c, 0, 56, 58
2, 91397, Note_on_c, 0, 72, 36
2, 91400, Note_on_c, 0, 65, 34
2, 91415, Note_on_c, 0, 65, 0
2, 91420, Note_on_c, 0, 72, 0
2, 91427, Note_on_c, 0, 56, 0
2, 91428, Control_c, 0, 64, 0
2, 91431, Note_on_c, 0, 68, 0
2, 91446, Note_on_c, 0, 60, 60
2, 91498, Note_on_c, 0, 60, 0
2, 91511, Control_c, 0, 64, 127
2, 91513, Note_on_c, 0, 63, 64
2, 91515, Note_on_c, 0, 68, 30
2, 91534, Control_c, 0, 64, 0
2, 91546, Note_on_c, 0, 68, 0
2, 91601, Control_c, 0, 64, 127
2, 91616, Note_on_c, 0, 63, 0
2, 91631, Note_on_c, 0, 68, 37
2, 91632, Note_on_c, 0, 74, 51
2, 91633, Note_on_c, 0, 62, 59
2, 91633, Note_on_c, 0, 70, 40
2, 91644, Control_c, 0, 64, 0
2, 91645, Note_on_c, 0, 74, 0
2, 91653, Note_on_c, 0, 68, 0
2, 91658, Note_on_c, 0, 70, 0
2, 91752, Note_on_c, 0, 74, 50
2, 91753, Note_on_c, 0, 70, 40
2, 91753, Note_on_c, 0, 68, 30
2, 91763, Note_on_c, 0, 74, 0
2, 91773, Note_on_c, 0, 68, 0
2, 91773, Note_on_c, 0, 70, 0
2, 91858, Note_on_c, 0, 62, 0
2, 91871, Note_on_c, 0, 60, 66
2, 91872, Note_on_c, 0, 68, 45
2, 91872, Note_on_c, 0, 70, 49
2, 91873, Note_on_c, 0, 74, 60
2, 91881, Note_on_c, 0, 74, 0
2, 91894, Note_on_c, 0, 70, 0
2, 91903, Note_on_c, 0, 68, 0
2, 91914, Note_on_c, 0, 60, 0
2, 91929, Note_on_c, 0, 58, 44
2, 91993, Note_on_c, 0, 68, 48
2, 91994, Note_on_c, 0, 74, 61
2, 91995, Note_on_c, 0, 70, 48
2, 92005, Note_on_c, 0, 74, 0
2, 92016, Note_on_c, 0, 68, 0
2, 92017, Note_on_c, 0, 70, 0
2, 92116, Note_on_c, 0, 56, 60
2, 92117, Note_on_c, 0, 63, 39
2, 92118, Note_on_c, 0, 70, 46
2, 92120, Note_on_c, 0, 67, 37
2, 92132, Note_on_c, 0, 58, 0
2, 92136, Note_on_c, 0, 67, 0
2, 92138, Note_on_c, 0, 63, 0
2, 92146, Note_on_c, 0, 56, 0
2, 92147, Note_on_c, 0, 70, 0
2, 92167, Note_on_c, 0, 55, 51
2, 92218, Note_on_c, 0, 55, 0
2, 92233, Note_on_c, 0, 74, 51
2, 92236, Note_on_c, 0, 63, 26
2, 92236, Note_on_c, 0, 56, 47
2, 92236, Note_on_c, 0, 70, 34
2, 92243, Note_on_c, 0, 74, 0
2, 92246, Note_on_c, 0, 67, 19
2, 92255, Note_on_c, 0, 63, 0
2, 92259, Note_on_c, 0, 67, 0
2, 92261, Note_on_c, 0, 56, 0
2, 92268, Note_on_c, 0, 70, 0
2, 92273, Note_on_c, 0, 58, 62
2, 92350, Note_on_c, 0, 74, 54
2, 92352, Note_on_c, 0, 70, 39
2, 92354, Note_on_c, 0, 67, 33
2, 92360, Note_on_c, 0, 74, 0
2, 92366, Note_on_c, 0, 67, 0
2, 92375, Note_on_c, 0, 70, 0
2, 92446, Control_c, 0, 64, 127
2, 92470, Control_c, 0, 64, 0
2, 92473, Note_on_c, 0, 70, 49
2, 92473, Note_on_c, 0, 63, 37
2, 92475, Note_on_c, 0, 74, 38
2, 92485, Note_on_c, 0, 74, 0
2, 92486, Note_on_c, 0, 63, 0
2, 92498, Note_on_c, 0, 70, 0
2, 92538, Control_c, 0, 64, 127
2, 92630, Control_c, 0, 64, 0
2, 92637, Note_on_c, 0, 67, 43
2, 92637, Note_on_c, 0, 55, 76
2, 92639, Note_on_c, 0, 75, 38
2, 92647, Note_on_c, 0, 67, 0
2, 92647, Note_on_c, 0, 72, 20
2, 92648, Note_on_c, 0, 75, 0
2, 92656, Note_on_c, 0, 72, 0
2, 92714, Note_on_c, 0, 75, 55
2, 92718, Note_on_c, 0, 72, 44
2, 92729, Note_on_c, 0, 75, 0
2, 92731, Note_on_c, 0, 72, 0
2, 92810, Control_c, 0, 64, 127
2, 92828, Note_on_c, 0, 75, 49
2, 92829, Note_on_c, 0, 55, 0
2, 92829, Note_on_c, 0, 72, 43
2, 92829, Note_on_c, 0, 53, 74
2, 92835, Note_on_c, 0, 68, 25
2, 92841, Note_on_c, 0, 75, 0
2, 92849, Note_on_c, 0, 58, 0
2, 92854, Note_on_c, 0, 72, 0
2, 92859, Control_c, 0, 64, 0
2, 92861, Note_on_c, 0, 68, 0
2, 92869, Note_on_c, 0, 53, 0
2, 92888, Note_on_c, 0, 51, 49
2, 92943, Note_on_c, 0, 75, 46
2, 92948, Note_on_c, 0, 72, 29
2, 92955, Note_on_c, 0, 75, 0
2, 92958, Note_on_c, 0, 68, 14
2, 92963, Note_on_c, 0, 72, 0
2, 92975, Note_on_c, 0, 68, 0
2, 93041, Control_c, 0, 64, 127
2, 93064, Note_on_c, 0, 48, 54
2, 93064, Note_on_c, 0, 62, 57
2, 93064, Note_on_c, 0, 72, 47
2, 93066, Note_on_c, 0, 68, 40
2, 93074, Note_on_c, 0, 72, 0
2, 93075, Note_on_c, 0, 51, 0
2, 93083, Note_on_c, 0, 62, 0
2, 93086, Note_on_c, 0, 68, 0
2, 93088, Control_c, 0, 64, 0
2, 93191, Note_on_c, 0, 68, 43
2, 93193, Note_on_c, 0, 72, 30
2, 93202, Note_on_c, 0, 72, 0
2, 93211, Note_on_c, 0, 68, 0
2, 93221, Note_on_c, 0, 48, 0
2, 93237, Note_on_c, 0, 50, 36
2, 93288, Note_on_c, 0, 50, 0
2, 93307, Note_on_c, 0, 51, 57
2, 93311, Note_on_c, 0, 68, 32
2, 93312, Note_on_c, 0, 72, 27
2, 93320, Note_on_c, 0, 72, 0
2, 93328, Note_on_c, 0, 51, 0
2, 93333, Note_on_c, 0, 68, 0
2, 93351, Note_on_c, 0, 53, 50
2, 93402, Note_on_c, 0, 53, 0
2, 93414, Control_c, 0, 64, 127
2, 93424, Note_on_c, 0, 55, 76
2, 93428, Note_on_c, 0, 68, 28
2, 93445, Note_on_c, 0, 68, 0
2, 93450, Note_on_c, 0, 55, 0
2, 93454, Control_c, 0, 64, 0
2, 93471, Note_on_c, 0, 56, 50
2, 93528, Note_on_c, 0, 56, 0
2, 93540, Note_on_c, 0, 60, 67
2, 93545, Note_on_c, 0, 65, 29
2, 93545, Note_on_c, 0, 71, 29
2, 93559, Note_on_c, 0, 65, 0
2, 93567, Note_on_c, 0, 71, 0
2, 93570, Note_on_c, 0, 60, 0
2, 93618, Note_on_c, 0, 62, 74
2, 93664, Note_on_c, 0, 71, 31
2, 93691, Note_on_c, 0, 71, 0
2, 93700, Note_on_c, 0, 59, 68
2, 93705, Note_on_c, 0, 62, 0
2, 93771, Note_on_c, 0, 59, 0
2, 93780, Note_on_c, 0, 56, 73
2, 93785, Note_on_c, 0, 71, 49
2, 93785, Note_on_c, 0, 68, 31
2, 93786, Note_on_c, 0, 74, 39
2, 93796, Note_on_c, 0, 74, 0
2, 93810, Note_on_c, 0, 71, 0
2, 93814, Note_on_c, 0, 68, 0
2, 93856, Note_on_c, 0, 56, 0
2, 93864, Note_on_c, 0, 55, 69
2, 93890, Control_c, 0, 64, 127
2, 93901, Note_on_c, 0, 74, 49
2, 93905, Note_on_c, 0, 68, 30
2, 93907, Note_on_c, 0, 71, 31
2, 93913, Control_c, 0, 64, 0
2, 93914, Note_on_c, 0, 74, 0
2, 93922, Note_on_c, 0, 71, 0
2, 93924, Note_on_c, 0, 55, 0
2, 93927, Note_on_c, 0, 68, 0
2, 93946, Note_on_c, 0, 53, 57
2, 93978, Control_c, 0, 64, 127
2, 94002, Note_on_c, 0, 53, 0
2, 94025, Note_on_c, 0, 63, 39
2, 94028, Note_on_c, 0, 51, 69
2, 94029, Note_on_c, 0, 74, 35
2, 94033, Note_on_c, 0, 69, 49
2, 94039, Note_on_c, 0, 74, 0
2, 94047, Note_on_c, 0, 63, 0
2, 94052, Control_c, 0, 64, 0
2, 94055, Note_on_c, 0, 69, 0
2, 94095, Note_on_c, 0, 51, 0
2, 94110, Note_on_c, 0, 50, 60
2, 94135, Note_on_c, 0, 63, 30
2, 94146, Note_on_c, 0, 74, 36
2, 94156, Note_on_c, 0, 69, 26
2, 94157, Note_on_c, 0, 74, 0
2, 94170, Note_on_c, 0, 69, 0
2, 94177, Note_on_c, 0, 50, 0
2, 94194, Note_on_c, 0, 53, 62
2, 94236, Control_c, 0, 64, 127
2, 94255, Note_on_c, 0, 63, 0
2, 94279, Control_c, 0, 64, 0
2, 94279, Note_on_c, 0, 48, 60
2, 94280, Note_on_c, 0, 69, 41
2, 94294, Note_on_c, 0, 69, 0
2, 94390, Note_on_c, 0, 63, 38
2, 94391, Note_on_c, 0, 74, 55
2, 94392, Note_on_c, 0, 69, 48
2, 94398, Note_on_c, 0, 63, 0
2, 94399, Note_on_c, 0, 74, 0
2, 94401, Note_on_c, 0, 69, 0
2, 94505, Note_on_c, 0, 77, 54
2, 94508, Note_on_c, 0, 72, 34
2, 94510, Note_on_c, 0, 73, 20
2, 94520, Note_on_c, 0, 72, 0
2, 94522, Note_on_c, 0, 77, 0
2, 94533, Note_on_c, 0, 73, 0
2, 94571, Note_on_c, 0, 48, 0
2, 94590, Note_on_c, 0, 53, 0
2, 94627, Note_on_c, 0, 77, 53
2, 94629, Note_on_c, 0, 72, 35
2, 94629, Note_on_c, 0, 73, 25
2, 94637, Note_on_c, 0, 77, 0
2, 94651, Note_on_c, 0, 72, 0
2, 94653, Note_on_c, 0, 73, 0
2, 94678, Note_on_c, 0, 55, 40
2, 94693, Note_on_c, 0, 55, 0
2, 94722, Note_on_c, 0, 60, 53
2, 94757, Note_on_c, 0, 60, 0
2, 94757, Note_on_c, 0, 61, 87
2, 94763, Note_on_c, 0, 73, 28
2, 94763, Note_on_c, 0, 77, 56
2, 94766, Note_on_c, 0, 72, 40
2, 94766, Note_on_c, 0, 67, 39
2, 94773, Note_on_c, 0, 77, 0
2, 94790, Note_on_c, 0, 61, 0
2, 94791, Note_on_c, 0, 72, 0
2, 94794, Note_on_c, 0, 67, 0
2, 94798, Note_on_c, 0, 73, 0
2, 94803, Note_on_c, 0, 63, 79
2, 94834, Note_on_c, 0, 63, 0
2, 94844, Note_on_c, 0, 61, 40
2, 94867, Note_on_c, 0, 61, 0
2, 94880, Note_on_c, 0, 63, 83
2, 94883, Note_on_c, 0, 73, 30
2, 94884, Note_on_c, 0, 72, 36
2, 94898, Note_on_c, 0, 72, 0
2, 94912, Note_on_c, 0, 63, 0
2, 94913, Note_on_c, 0, 73, 0
2, 94937, Note_on_c, 0, 60, 48
2, 94966, Note_on_c, 0, 60, 0
2, 94974, Note_on_c, 0, 56, 65
2, 95008, Note_on_c, 0, 56, 0
2, 95010, Note_on_c, 0, 72, 19
2, 95021, Note_on_c, 0, 55, 33
2, 95024, Note_on_c, 0, 72, 0
2, 95031, Note_on_c, 0, 55, 0
2, 95053, Note_on_c, 0, 60, 77
2, 95113, Note_on_c, 0, 68, 40
2, 95113, Note_on_c, 0, 77, 53
2, 95114, Note_on_c, 0, 72, 45
2, 95122, Note_on_c, 0, 77, 0
2, 95125, Note_on_c, 0, 72, 0
2, 95139, Note_on_c, 0, 68, 0
2, 95230, Note_on_c, 0, 77, 62
2, 95231, Note_on_c, 0, 72, 49
2, 95239, Note_on_c, 0, 77, 0
2, 95241, Note_on_c, 0, 72, 0
2, 95349, Note_on_c, 0, 68, 40
2, 95350, Note_on_c, 0, 72, 41
2, 95351, Note_on_c, 0, 65, 42
2, 95362, Note_on_c, 0, 65, 0
2, 95372, Note_on_c, 0, 72, 0
2, 95378, Note_on_c, 0, 60, 0
2, 95391, Note_on_c, 0, 68, 0
2, 95401, Note_on_c, 0, 55, 37
2, 95420, Note_on_c, 0, 55, 0
2, 95440, Note_on_c, 0, 56, 70
2, 95464, Note_on_c, 0, 56, 0
2, 95478, Note_on_c, 0, 58, 90
2, 95485, Note_on_c, 0, 71, 55
2, 95485, Note_on_c, 0, 65, 50
2, 95511, Note_on_c, 0, 58, 0
2, 95513, Note_on_c, 0, 65, 0
2, 95519, Note_on_c, 0, 71, 0
2, 95526, Note_on_c, 0, 58, 71
2, 95556, Note_on_c, 0, 58, 0
2, 95558, Note_on_c, 0, 59, 53
2, 95585, Note_on_c, 0, 59, 0
2, 95586, Note_on_c, 0, 66, 33
2, 95595, Note_on_c, 0, 71, 41
2, 95597, Note_on_c, 0, 66, 0
2, 95607, Note_on_c, 0, 65, 27
2, 95621, Note_on_c, 0, 65, 0
2, 95627, Note_on_c, 0, 71, 0
2, 95632, Note_on_c, 0, 58, 81
2, 95680, Note_on_c, 0, 58, 0
2, 95710, Note_on_c, 0, 56, 81
2, 95712, Note_on_c, 0, 71, 57
2, 95715, Note_on_c, 0, 65, 47
2, 95735, Note_on_c, 0, 65, 0
2, 95743, Note_on_c, 0, 71, 0
2, 95764, Note_on_c, 0, 56, 0
2, 95773, Note_on_c, 0, 58, 53
2, 95802, Note_on_c, 0, 56, 34
2, 95813, Note_on_c, 0, 58, 0
2, 95821, Note_on_c, 0, 71, 50
2, 95828, Note_on_c, 0, 65, 31
2, 95830, Note_on_c, 0, 56, 0
2, 95834, Note_on_c, 0, 55, 33
2, 95852, Note_on_c, 0, 55, 0
2, 95859, Note_on_c, 0, 71, 0
2, 95860, Note_on_c, 0, 65, 0
2, 95868, Note_on_c, 0, 53, 53
2, 95922, Note_on_c, 0, 53, 0
2, 95943, Note_on_c, 0, 51, 58
2, 95946, Note_on_c, 0, 63, 37
2, 95951, Note_on_c, 0, 69, 45
2, 95972, Note_on_c, 0, 63, 0
2, 95991, Note_on_c, 0, 51, 0
2, 95996, Note_on_c, 0, 69, 0
2, 95996, Note_on_c, 0, 50, 40
2, 96063, Note_on_c, 0, 50, 0
2, 96071, Note_on_c, 0, 55, 73
2, 96072, Note_on_c, 0, 63, 42
2, 96078, Note_on_c, 0, 69, 33
2, 96091, Note_on_c, 0, 69, 0
2, 96096, Note_on_c, 0, 63, 0
2, 96099, Note_on_c, 0, 55, 0
2, 96122, Note_on_c, 0, 51, 46
2, 96186, Note_on_c, 0, 63, 32
2, 96191, Note_on_c, 0, 48, 62
2, 96193, Note_on_c, 0, 74, 27
2, 96203, Note_on_c, 0, 74, 0
2, 96204, Note_on_c, 0, 51, 0
2, 96214, Note_on_c, 0, 63, 0
2, 96308, Note_on_c, 0, 63, 53
2, 96310, Note_on_c, 0, 74, 54
2, 96312, Note_on_c, 0, 69, 51
2, 96319, Note_on_c, 0, 74, 0
2, 96321, Note_on_c, 0, 69, 0
2, 96330, Note_on_c, 0, 63, 0
2, 96425, Note_on_c, 0, 73, 47
2, 96436, Note_on_c, 0, 73, 0
2, 96543, Note_on_c, 0, 75, 64
2, 96546, Note_on_c, 0, 72, 54
2, 96548, Note_on_c, 0, 70, 44
2, 96556, Note_on_c, 0, 72, 0
2, 96557, Note_on_c, 0, 70, 0
2, 96557, Note_on_c, 0, 75, 0
2, 96666, Note_on_c, 0, 75, 64
2, 96668, Note_on_c, 0, 48, 0
2, 96669, Note_on_c, 0, 70, 46
2, 96670, Note_on_c, 0, 72, 44
2, 96682, Note_on_c, 0, 75, 0
2, 96694, Note_on_c, 0, 72, 0
2, 96701, Note_on_c, 0, 70, 0
2, 96714, Note_on_c, 0, 48, 50
2, 96763, Note_on_c, 0, 48, 0
2, 96785, Note_on_c, 0, 75, 58
2, 96787, Note_on_c, 0, 72, 48
2, 96789, Note_on_c, 0, 50, 73
2, 96790, Note_on_c, 0, 70, 40
2, 96801, Note_on_c, 0, 75, 0
2, 96815, Note_on_c, 0, 72, 0
2, 96816, Note_on_c, 0, 50, 0
2, 96819, Note_on_c, 0, 70, 0
2, 96837, Note_on_c, 0, 51, 44
2, 96862, Note_on_c, 0, 51, 0
2, 96909, Note_on_c, 0, 75, 46
2, 96909, Note_on_c, 0, 57, 80
2, 96913, Note_on_c, 0, 72, 26
2, 96919, Note_on_c, 0, 75, 0
2, 96930, Note_on_c, 0, 57, 0
2, 96931, Note_on_c, 0, 72, 0
2, 96962, Note_on_c, 0, 60, 70
2, 96992, Note_on_c, 0, 60, 0
2, 97026, Note_on_c, 0, 63, 76
2, 97026, Note_on_c, 0, 75, 60
2, 97030, Note_on_c, 0, 72, 33
2, 97031, Note_on_c, 0, 67, 35
2, 97037, Note_on_c, 0, 69, 33
2, 97045, Note_on_c, 0, 67, 0
2, 97045, Note_on_c, 0, 75, 0
2, 97049, Note_on_c, 0, 69, 0
2, 97055, Note_on_c, 0, 63, 0
2, 97060, Note_on_c, 0, 72, 0
2, 97074, Note_on_c, 0, 67, 68
2, 97103, Note_on_c, 0, 67, 0
2, 97142, Note_on_c, 0, 66, 36
2, 97149, Note_on_c, 0, 66, 0
2, 97159, Note_on_c, 0, 67, 26
2, 97160, Note_on_c, 0, 75, 32
2, 97167, Note_on_c, 0, 75, 0
2, 97173, Note_on_c, 0, 67, 0
2, 97265, Note_on_c, 0, 73, 29
2, 97268, Note_on_c, 0, 60, 87
2, 97271, Note_on_c, 0, 70, 31
2, 97284, Note_on_c, 0, 73, 0
2, 97289, Note_on_c, 0, 70, 0
2, 97292, Note_on_c, 0, 60, 0
2, 97318, Note_on_c, 0, 63, 67
2, 97360, Note_on_c, 0, 63, 0
2, 97380, Note_on_c, 0, 65, 80
2, 97384, Note_on_c, 0, 72, 47
2, 97407, Note_on_c, 0, 65, 0
2, 97408, Note_on_c, 0, 72, 0
2, 97451, Note_on_c, 0, 66, 83
2, 97473, Note_on_c, 0, 66, 0
2, 97483, Note_on_c, 0, 65, 16
2, 97484, Note_on_c, 0, 64, 32
2, 97493, Note_on_c, 0, 64, 0
2, 97516, Note_on_c, 0, 65, 0
2, 97550, Note_on_c, 0, 66, 46
2, 97556, Note_on_c, 0, 63, 72
2, 97557, Note_on_c, 0, 72, 24
2, 97570, Note_on_c, 0, 72, 0
2, 97579, Note_on_c, 0, 66, 0
2, 97620, Note_on_c, 0, 63, 0
2, 97631, Note_on_c, 0, 60, 65
2, 97642, Note_on_c, 0, 66, 46
2, 97648, Note_on_c, 0, 72, 27
2, 97668, Note_on_c, 0, 72, 0
2, 97669, Note_on_c, 0, 66, 0
2, 97673, Note_on_c, 0, 60, 0
2, 97708, Note_on_c, 0, 56, 55
2, 97713, Control_c, 0, 64, 127
2, 97746, Note_on_c, 0, 72, 28
2, 97749, Note_on_c, 0, 66, 23
2, 97754, Control_c, 0, 64, 0
2, 97760, Note_on_c, 0, 72, 0
2, 97761, Note_on_c, 0, 56, 0
2, 97772, Note_on_c, 0, 66, 0
2, 97785, Note_on_c, 0, 53, 46
2, 97805, Control_c, 0, 64, 127
2, 97835, Note_on_c, 0, 53, 0
2, 97866, Note_on_c, 0, 55, 75
2, 97873, Control_c, 0, 64, 0
2, 97925, Note_on_c, 0, 55, 0
2, 97946, Note_on_c, 0, 56, 71
2, 97959, Note_on_c, 0, 68, 25
2, 97974, Note_on_c, 0, 68, 0
2, 98017, Note_on_c, 0, 56, 0
2, 98030, Note_on_c, 0, 55, 70
2, 98030, Note_on_c, 0, 68, 38
2, 98031, Note_on_c, 0, 67, 48
2, 98034, Note_on_c, 0, 72, 24
2, 98042, Note_on_c, 0, 67, 0
2, 98043, Note_on_c, 0, 72, 0
2, 98056, Note_on_c, 0, 68, 0
2, 98116, Note_on_c, 0, 68, 43
2, 98118, Note_on_c, 0, 67, 57
2, 98119, Note_on_c, 0, 72, 41
2, 98129, Note_on_c, 0, 67, 0
2, 98131, Note_on_c, 0, 72, 0
2, 98144, Note_on_c, 0, 68, 0
2, 98203, Note_on_c, 0, 68, 37
2, 98205, Note_on_c, 0, 72, 39
2, 98207, Note_on_c, 0, 67, 44
2, 98222, Note_on_c, 0, 67, 0
2, 98225, Note_on_c, 0, 72, 0
2, 98235, Note_on_c, 0, 68, 0
2, 98285, Note_on_c, 0, 68, 42
2, 98287, Note_on_c, 0, 67, 50
2, 98287, Note_on_c, 0, 72, 36
2, 98307, Note_on_c, 0, 72, 0
2, 98310, Note_on_c, 0, 67, 0
2, 98320, Note_on_c, 0, 68, 0
2, 98366, Note_on_c, 0, 68, 46
2, 98366, Note_on_c, 0, 72, 57
2, 98370, Note_on_c, 0, 67, 47
2, 98379, Note_on_c, 0, 67, 0
2, 98382, Note_on_c, 0, 72, 0
2, 98395, Note_on_c, 0, 68, 0
2, 98446, Note_on_c, 0, 71, 56
2, 98446, Note_on_c, 0, 68, 39
2, 98452, Note_on_c, 0, 67, 42
2, 98457, Control_c, 0, 64, 127
2, 98468, Note_on_c, 0, 67, 0
2, 98468, Note_on_c, 0, 71, 0
2, 98469, Note_on_c, 0, 55, 0
2, 98474, Note_on_c, 0, 68, 0
2, 98526, Note_on_c, 0, 71, 52
2, 98526, Note_on_c, 0, 68, 46
2, 98534, Note_on_c, 0, 68, 0
2, 98534, Note_on_c, 0, 71, 0
2, 98607, Note_on_c, 0, 53, 60
2, 98609, Note_on_c, 0, 68, 43
2, 98610, Note_on_c, 0, 59, 58
2, 98610, Note_on_c, 0, 63, 39
2, 98611, Note_on_c, 0, 65, 36
2, 98618, Control_c, 0, 64, 0
2, 98637, Note_on_c, 0, 59, 0
2, 98645, Note_on_c, 0, 65, 0
2, 98648, Note_on_c, 0, 63, 0
2, 98655, Note_on_c, 0, 68, 0
2, 98661, Control_c, 0, 64, 127
2, 98686, Note_on_c, 0, 43, 49
2, 98687, Note_on_c, 0, 63, 43
2, 98690, Note_on_c, 0, 59, 51
2, 98697, Note_on_c, 0, 65, 25
2, 98702, Note_on_c, 0, 70, 13
2, 98719, Note_on_c, 0, 70, 0
2, 98732, Note_on_c, 0, 65, 0
2, 98737, Note_on_c, 0, 59, 0
2, 98752, Note_on_c, 0, 63, 0
2, 98760, Note_on_c, 0, 43, 0
2, 98760, Note_on_c, 0, 53, 0
2, 98761, Note_on_c, 0, 68, 56
2, 98763, Note_on_c, 0, 50, 49
2, 98766, Note_on_c, 0, 59, 33
2, 98767, Note_on_c, 0, 63, 18
2, 98772, Note_on_c, 0, 50, 0
2, 98776, Note_on_c, 0, 59, 0
2, 98787, Note_on_c, 0, 63, 0
2, 98799, Note_on_c, 0, 68, 0
2, 98834, Control_c, 0, 64, 0
2, 98837, Note_on_c, 0, 63, 44
2, 98840, Note_on_c, 0, 55, 61
2, 98842, Note_on_c, 0, 45, 55
2, 98843, Note_on_c, 0, 51, 58
2, 98845, Note_on_c, 0, 60, 41
2, 98846, Note_on_c, 0, 59, 39
2, 98854, Note_on_c, 0, 55, 0
2, 98855, Note_on_c, 0, 59, 0
2, 98859, Note_on_c, 0, 60, 0
2, 98860, Note_on_c, 0, 45, 0
2, 98861, Control_c, 0, 64, 127
2, 98866, Note_on_c, 0, 51, 0
2, 98872, Note_on_c, 0, 63, 0
2, 98958, Note_on_c, 0, 55, 68
2, 98958, Note_on_c, 0, 63, 74
2, 98959, Note_on_c, 0, 87, 84
2, 98959, Note_on_c, 0, 82, 80
2, 98959, Note_on_c, 0, 75, 83
2, 98961, Note_on_c, 0, 60, 58
2, 98964, Note_on_c, 0, 57, 54
2, 98965, Control_c, 0, 64, 0
2, 98991, Control_c, 0, 64, 127
2, 99066, Note_on_c, 0, 55, 0
2, 99067, Note_on_c, 0, 87, 0
2, 99069, Note_on_c, 0, 75, 0
2, 99069, Note_on_c, 0, 57, 0
2, 99072, Note_on_c, 0, 82, 0
2, 99073, Note_on_c, 0, 63, 0
2, 99083, Note_on_c, 0, 60, 0
2, 99118, Note_on_c, 0, 60, 41
2, 99118, Note_on_c, 0, 63, 42
2, 99119, Note_on_c, 0, 86, 65
2, 99120, Note_on_c, 0, 81, 57
2, 99121, Note_on_c, 0, 74, 47
2, 99122, Note_on_c, 0, 55, 38
2, 99125, Note_on_c, 0, 57, 36
2, 99126, Control_c, 0, 64, 0
2, 99139, Note_on_c, 0, 55, 0
2, 99143, Note_on_c, 0, 63, 0
2, 99145, Note_on_c, 0, 81, 0
2, 99148, Note_on_c, 0, 74, 0
2, 99148, Note_on_c, 0, 86, 0
2, 99158, Note_on_c, 0, 57, 0
2, 99163, Note_on_c, 0, 60, 0
2, 99236, Note_on_c, 0, 63, 45
2, 99237, Note_on_c, 0, 55, 41
2, 99240, Note_on_c, 0, 84, 54
2, 99240, Note_on_c, 0, 72, 41
2, 99241, Note_on_c, 0, 79, 45
2, 99244, Note_on_c, 0, 60, 27
2, 99254, Control_c, 0, 64, 127
2, 99260, Note_on_c, 0, 55, 0
2, 99262, Note_on_c, 0, 72, 0
2, 99267, Note_on_c, 0, 63, 0
2, 99268, Note_on_c, 0, 79, 0
2, 99271, Note_on_c, 0, 84, 0
2, 99272, Note_on_c, 0, 60, 0
2, 99353, Control_c, 0, 64, 0
2, 99367, Note_on_c, 0, 74, 80
2, 99367, Note_on_c, 0, 65, 55
2, 99368, Note_on_c, 0, 82, 64
2, 99368, Note_on_c, 0, 86, 83
2, 99368, Note_on_c, 0, 60, 56
2, 99370, Note_on_c, 0, 54, 33
2, 99375, Note_on_c, 0, 65, 0
2, 99378, Note_on_c, 0, 60, 0
2, 99387, Control_c, 0, 64, 127
2, 99391, Note_on_c, 0, 54, 0
2, 99440, Note_on_c, 0, 86, 0
2, 99456, Note_on_c, 0, 82, 0
2, 99457, Note_on_c, 0, 74, 0
2, 99483, Control_c, 0, 64, 0
2, 99484, Note_on_c, 0, 38, 87
2, 99484, Note_on_c, 0, 50, 89
2, 99553, Control_c, 0, 64, 127
2, 99594, Control_c, 0, 64, 0
2, 99610, Note_on_c, 0, 65, 47
2, 99615, Note_on_c, 0, 53, 30
2, 99617, Note_on_c, 0, 55, 29
2, 99619, Note_on_c, 0, 62, 44
2, 99659, Control_c, 0, 64, 127
2, 99674, Note_on_c, 0, 62, 0
2, 99683, Note_on_c, 0, 55, 0
2, 99684, Note_on_c, 0, 38, 0
2, 99687, Note_on_c, 0, 53, 0
2, 99706, Control_c, 0, 64, 0
2, 99708, Note_on_c, 0, 65, 0
2, 99713, Note_on_c, 0, 38, 38
2, 99719, Control_c, 0, 64, 127
2, 99722, Note_on_c, 0, 53, 41
2, 99723, Note_on_c, 0, 58, 35
2, 99729, Note_on_c, 0, 62, 32
2, 99734, Note_on_c, 0, 38, 0
2, 99740, Note_on_c, 0, 53, 0
2, 99749, Note_on_c, 0, 50, 0
2, 99755, Note_on_c, 0, 58, 0
2, 99757, Note_on_c, 0, 62, 0
2, 99818, Note_on_c, 0, 50, 20
2, 99828, Note_on_c, 0, 50, 0
2, 99832, Control_c, 0, 64, 0
2, 99835, Note_on_c, 0, 43, 29
2, 99837, Note_on_c, 0, 53, 53
2, 99838, Note_on_c, 0, 59, 58
2, 99839, Note_on_c, 0, 64, 59
2, 99840, Note_on_c, 0, 67, 51
2, 99888, Control_c, 0, 64, 127
2, 99902, Note_on_c, 0, 59, 0
2, 99908, Note_on_c, 0, 67, 0
2, 99908, Note_on_c, 0, 53, 0
2, 99915, Note_on_c, 0, 64, 0
2, 99923, Note_on_c, 0, 52, 38
2, 99935, Control_c, 0, 64, 0
2, 99953, Note_on_c, 0, 52, 0
2, 99956, Note_on_c, 0, 59, 60
2, 99957, Note_on_c, 0, 64, 59
2, 99960, Note_on_c, 0, 67, 54
2, 99962, Note_on_c, 0, 53, 55
2, 99967, Note_on_c, 0, 43, 0
2, 99971, Control_c, 0, 64, 127
2, 99992, Note_on_c, 0, 59, 0
2, 100004, Note_on_c, 0, 53, 0
2, 100009, Note_on_c, 0, 64, 0
2, 100009, Note_on_c, 0, 67, 0
2, 100072, Control_c, 0, 64, 0
2, 100079, Note_on_c, 0, 76, 73
2, 100079, Note_on_c, 0, 64, 59
2, 100082, Note_on_c, 0, 69, 62
2, 100082, Note_on_c, 0, 65, 54
2, 100090, Note_on_c, 0, 73, 25
2, 100139, Control_c, 0, 64, 127
2, 100154, Note_on_c, 0, 69, 0
2, 100156, Note_on_c, 0, 65, 0
2, 100160, Note_on_c, 0, 64, 0
2, 100163, Note_on_c, 0, 73, 0
2, 100164, Note_on_c, 0, 76, 0
2, 100166, Note_on_c, 0, 63, 32
2, 100178, Control_c, 0, 64, 0
2, 100190, Note_on_c, 0, 63, 0
2, 100194, Note_on_c, 0, 76, 64
2, 100195, Note_on_c, 0, 73, 37
2, 100197, Note_on_c, 0, 65, 51
2, 100198, Note_on_c, 0, 64, 49
2, 100199, Note_on_c, 0, 69, 63
2, 100213, Control_c, 0, 64, 127
2, 100265, Note_on_c, 0, 73, 0
2, 100267, Note_on_c, 0, 69, 0
2, 100271, Note_on_c, 0, 64, 0
2, 100272, Note_on_c, 0, 76, 0
2, 100278, Note_on_c, 0, 65, 0
2, 100299, Control_c, 0, 64, 0
2, 100312, Note_on_c, 0, 74, 53
2, 100313, Note_on_c, 0, 69, 50
2, 100313, Note_on_c, 0, 62, 34
2, 100314, Note_on_c, 0, 65, 55
2, 100326, Note_on_c, 0, 62, 0
2, 100328, Control_c, 0, 64, 127
2, 100330, Note_on_c, 0, 74, 0
2, 100331, Note_on_c, 0, 69, 0
2, 100338, Note_on_c, 0, 65, 0
2, 100399, Note_on_c, 0, 71, 56
2, 100400, Control_c, 0, 64, 0
2, 100402, Note_on_c, 0, 63, 44
2, 100403, Note_on_c, 0, 53, 50
2, 100404, Note_on_c, 0, 59, 47
2, 100405, Note_on_c, 0, 67, 44
2, 100434, Control_c, 0, 64, 127
2, 100480, Note_on_c, 0, 53, 0
2, 100514, Note_on_c, 0, 59, 0
2, 100517, Note_on_c, 0, 71, 0
2, 100526, Note_on_c, 0, 63, 0
2, 100527, Note_on_c, 0, 67, 0
2, 100561, Note_on_c, 0, 68, 51
2, 100562, Control_c, 0, 64, 0
2, 100562, Note_on_c, 0, 53, 52
2, 100565, Note_on_c, 0, 63, 38
2, 100566, Note_on_c, 0, 59, 44
2, 100582, Note_on_c, 0, 53, 0
2, 100593, Control_c, 0, 64, 127
2, 100642, Note_on_c, 0, 43, 60
2, 100666, Note_on_c, 0, 43, 0
2, 100761, Note_on_c, 0, 36, 66
2, 100761, Note_on_c, 0, 24, 69
2, 100782, Control_c, 0, 64, 0
2, 100820, Control_c, 0, 64, 127
2, 100863, Note_on_c, 0, 59, 0
2, 100867, Note_on_c, 0, 24, 0
2, 100880, Note_on_c, 0, 36, 0
2, 100884, Note_on_c, 0, 63, 0
2, 100891, Note_on_c, 0, 68, 0
2, 100926, Control_c, 0, 64, 0
2, 100927, Note_on_c, 0, 72, 73
2, 100928, Note_on_c, 0, 62, 87
2, 100928, Note_on_c, 0, 65, 80
2, 100930, Note_on_c, 0, 70, 69
2, 100935, Note_on_c, 0, 68, 31
2, 100937, Note_on_c, 0, 58, 71
2, 100943, Note_on_c, 0, 68, 0
2, 100979, Control_c, 0, 64, 127
2, 100986, Note_on_c, 0, 58, 0
2, 100989, Note_on_c, 0, 62, 0
2, 100990, Note_on_c, 0, 72, 0
2, 100990, Note_on_c, 0, 65, 0
2, 100995, Note_on_c, 0, 70, 0
2, 101007, Note_on_c, 0, 58, 61
2, 101009, Note_on_c, 0, 72, 46
2, 101009, Note_on_c, 0, 65, 62
2, 101009, Note_on_c, 0, 62, 62
2, 101011, Note_on_c, 0, 70, 51
2, 101039, Note_on_c, 0, 65, 0
2, 101039, Note_on_c, 0, 58, 0
2, 101040, Note_on_c, 0, 62, 0
2, 101043, Note_on_c, 0, 72, 0
2, 101050, Note_on_c, 0, 70, 0
2, 101056, Control_c, 0, 64, 0
2, 101072, Note_on_c, 0, 58, 52
2, 101074, Note_on_c, 0, 72, 42
2, 101076, Note_on_c, 0, 65, 51
2, 101077, Note_on_c, 0, 62, 43
2, 101078, Note_on_c, 0, 70, 38
2, 101090, Control_c, 0, 64, 127
2, 101113, Note_on_c, 0, 65, 0
2, 101122, Note_on_c, 0, 62, 0
2, 101122, Note_on_c, 0, 70, 0
2, 101125, Note_on_c, 0, 72, 0
2, 101129, Note_on_c, 0, 58, 0
2, 101141, Control_c, 0, 64, 0
2, 101152, Note_on_c, 0, 48, 50
2, 101164, Control_c, 0, 64, 127
2, 101230, Note_on_c, 0, 48, 0
2, 101239, Note_on_c, 0, 48, 20
2, 101245, Control_c, 0, 64, 0
2, 101256, Control_c, 0, 64, 127
2, 101269, Note_on_c, 0, 48, 0
2, 101313, Note_on_c, 0, 75, 69
2, 101314, Note_on_c, 0, 67, 68
2, 101314, Note_on_c, 0, 70, 65
2, 101315, Note_on_c, 0, 64, 63
2, 101319, Note_on_c, 0, 48, 42
2, 101324, Control_c, 0, 64, 0
2, 101329, Note_on_c, 0, 48, 0
2, 101362, Control_c, 0, 64, 127
2, 101370, Note_on_c, 0, 67, 0
2, 101378, Note_on_c, 0, 64, 0
2, 101381, Note_on_c, 0, 70, 0
2, 101382, Note_on_c, 0, 75, 0
2, 101386, Note_on_c, 0, 48, 47
2, 101452, Note_on_c, 0, 48, 0
2, 101474, Note_on_c, 0, 76, 73
2, 101476, Note_on_c, 0, 68, 71
2, 101476, Note_on_c, 0, 71, 79
2, 101479, Note_on_c, 0, 64, 70
2, 101479, Note_on_c, 0, 48, 50
2, 101482, Note_on_c, 0, 58, 70
2, 101483, Control_c, 0, 64, 0
2, 101507, Note_on_c, 0, 48, 0
2, 101526, Control_c, 0, 64, 127
2, 101588, Note_on_c, 0, 48, 62
2, 101610, Note_on_c, 0, 48, 0
2, 101634, Note_on_c, 0, 64, 0
2, 101642, Note_on_c, 0, 58, 0
2, 101648, Note_on_c, 0, 48, 35
2, 101653, Note_on_c, 0, 71, 0
2, 101667, Note_on_c, 0, 68, 0
2, 101679, Note_on_c, 0, 48, 0
2, 101691, Note_on_c, 0, 76, 0
2, 101713, Note_on_c, 0, 57, 53
2, 101715, Note_on_c, 0, 72, 53
2, 101715, Note_on_c, 0, 68, 52
2, 101718, Note_on_c, 0, 65, 56
2, 101719, Control_c, 0, 64, 0
2, 101741, Control_c, 0, 64, 127
2, 101746, Note_on_c, 0, 65, 0
2, 101748, Note_on_c, 0, 57, 0
2, 101751, Note_on_c, 0, 72, 0
2, 101753, Note_on_c, 0, 68, 0
2, 101826, Note_on_c, 0, 79, 70
2, 101829, Note_on_c, 0, 64, 55
2, 101831, Note_on_c, 0, 72, 55
2, 101831, Note_on_c, 0, 68, 55
2, 101856, Note_on_c, 0, 68, 0
2, 101863, Note_on_c, 0, 79, 0
2, 101863, Control_c, 0, 64, 0
2, 101866, Note_on_c, 0, 72, 0
2, 101873, Note_on_c, 0, 64, 0
2, 101878, Note_on_c, 0, 68, 37
2, 101881, Note_on_c, 0, 77, 39
2, 101882, Note_on_c, 0, 62, 50
2, 101890, Control_c, 0, 64, 127
2, 101903, Note_on_c, 0, 77, 0
2, 101907, Note_on_c, 0, 68, 0
2, 101937, Note_on_c, 0, 62, 0
2, 101957, Control_c, 0, 64, 0
2, 101957, Note_on_c, 0, 76, 48
2, 101960, Note_on_c, 0, 68, 30
2, 101961, Note_on_c, 0, 72, 33
2, 101961, Note_on_c, 0, 60, 55
2, 101965, Note_on_c, 0, 64, 24
2, 101982, Note_on_c, 0, 72, 0
2, 101984, Control_c, 0, 64, 127
2, 101986, Note_on_c, 0, 76, 0
2, 101990, Note_on_c, 0, 68, 0
2, 101991, Note_on_c, 0, 64, 0
2, 102041, Note_on_c, 0, 60, 0
2, 102067, Note_on_c, 0, 58, 44
2, 102068, Note_on_c, 0, 72, 35
2, 102068, Note_on_c, 0, 68, 37
2, 102069, Note_on_c, 0, 64, 49
2, 102083, Note_on_c, 0, 72, 0
2, 102083, Control_c, 0, 64, 0
2, 102087, Note_on_c, 0, 58, 0
2, 102088, Note_on_c, 0, 64, 0
2, 102090, Note_on_c, 0, 68, 0
2, 102101, Control_c, 0, 64, 127
2, 102180, Note_on_c, 0, 68, 46
2, 102182, Note_on_c, 0, 61, 46
2, 102184, Note_on_c, 0, 58, 31
2, 102184, Note_on_c, 0, 48, 33
2, 102185, Note_on_c, 0, 64, 48
2, 102188, Control_c, 0, 64, 0
2, 102191, Note_on_c, 0, 55, 33
2, 102200, Note_on_c, 0, 55, 0
2, 102211, Note_on_c, 0, 48, 0
2, 102229, Control_c, 0, 64, 127
2, 102304, Note_on_c, 0, 36, 48
2, 102331, Note_on_c, 0, 64, 0
2, 102338, Note_on_c, 0, 58, 0
2, 102338, Note_on_c, 0, 61, 0
2, 102339, Control_c, 0, 64, 0
2, 102340, Note_on_c, 0, 68, 0
2, 102349, Note_on_c, 0, 24, 46
2, 102352, Control_c, 0, 64, 127
2, 102437, Note_on_c, 0, 36, 0
2, 102465, Control_c, 0, 64, 0
2, 102476, Note_on_c, 0, 61, 44
2, 102478, Note_on_c, 0, 56, 36
2, 102478, Note_on_c, 0, 52, 37
2, 102482, Note_on_c, 0, 64, 34
2, 102486, Note_on_c, 0, 36, 33
2, 102494, Control_c, 0, 64, 127
2, 102513, Note_on_c, 0, 24, 0
2, 102545, Note_on_c, 0, 52, 0
2, 102557, Note_on_c, 0, 24, 57
2, 102572, Note_on_c, 0, 24, 0
2, 102573, Note_on_c, 0, 56, 0
2, 102575, Note_on_c, 0, 61, 0
2, 102576, Note_on_c, 0, 36, 0
2, 102588, Note_on_c, 0, 64, 0
2, 102728, Note_on_c, 0, 72, 79
2, 102728, Note_on_c, 0, 63, 87
2, 102728, Note_on_c, 0, 68, 71
2, 102743, Control_c, 0, 64, 0
2, 102807, Note_on_c, 0, 58, 63
2, 102836, Note_on_c, 0, 58, 0
2, 102836, Control_c, 0, 64, 127
2, 102862, Note_on_c, 0, 58, 48
2, 102894, Note_on_c, 0, 58, 0
2, 102940, Note_on_c, 0, 58, 58
2, 102978, Note_on_c, 0, 58, 0
2, 103045, Note_on_c, 0, 58, 51
2, 103061, Note_on_c, 0, 72, 0
2, 103062, Note_on_c, 0, 63, 0
2, 103068, Note_on_c, 0, 58, 0
2, 103080, Note_on_c, 0, 68, 0
2, 103164, Note_on_c, 0, 70, 57
2, 103164, Note_on_c, 0, 63, 42
2, 103165, Note_on_c, 0, 67, 47
2, 103166, Note_on_c, 0, 54, 45
2, 103168, Note_on_c, 0, 59, 40
2, 103168, Note_on_c, 0, 44, 47
2, 103173, Control_c, 0, 64, 0
2, 103211, Control_c, 0, 64, 127
2, 103245, Note_on_c, 0, 44, 0
2, 103278, Note_on_c, 0, 44, 39
2, 103307, Note_on_c, 0, 44, 0
2, 103331, Note_on_c, 0, 44, 36
2, 103351, Note_on_c, 0, 54, 0
2, 103363, Note_on_c, 0, 59, 0
2, 103364, Note_on_c, 0, 67, 0
2, 103377, Note_on_c, 0, 63, 0
2, 103393, Note_on_c, 0, 70, 0
2, 103403, Note_on_c, 0, 68, 55
2, 103406, Note_on_c, 0, 63, 43
2, 103406, Note_on_c, 0, 59, 53
2, 103410, Note_on_c, 0, 54, 40
2, 103418, Control_c, 0, 64, 0
2, 103438, Control_c, 0, 64, 127
2, 103464, Note_on_c, 0, 44, 0
2, 103517, Note_on_c, 0, 44, 53
2, 103594, Note_on_c, 0, 54, 0
2, 103631, Note_on_c, 0, 68, 0
2, 103634, Note_on_c, 0, 59, 0
2, 103634, Note_on_c, 0, 63, 0
2, 103665, Note_on_c, 0, 44, 0
2, 103671, Note_on_c, 0, 43, 34
2, 103677, Note_on_c, 0, 67, 50
2, 103677, Note_on_c, 0, 64, 44
2, 103679, Note_on_c, 0, 53, 35
2, 103680, Note_on_c, 0, 59, 40
2, 103681, Control_c, 0, 64, 0
2, 103719, Control_c, 0, 64, 127
2, 103748, Note_on_c, 0, 64, 0
2, 103753, Note_on_c, 0, 59, 0
2, 103764, Note_on_c, 0, 53, 0
2, 103772, Note_on_c, 0, 67, 0
2, 103772, Note_on_c, 0, 50, 24
2, 103789, Note_on_c, 0, 50, 0
2, 103795, Control_c, 0, 64, 0
2, 103801, Note_on_c, 0, 68, 49
2, 103801, Note_on_c, 0, 64, 52
2, 103804, Note_on_c, 0, 59, 42
2, 103805, Note_on_c, 0, 53, 33
2, 103822, Control_c, 0, 64, 127
2, 103874, Note_on_c, 0, 53, 0
2, 103881, Note_on_c, 0, 59, 0
2, 103882, Note_on_c, 0, 64, 0
2, 103893, Note_on_c, 0, 68, 0
2, 103913, Note_on_c, 0, 43, 0
2, 103916, Note_on_c, 0, 59, 44
2, 103917, Note_on_c, 0, 64, 43
2, 103920, Note_on_c, 0, 67, 42
2, 103923, Control_c, 0, 64, 0
2, 103928, Note_on_c, 0, 52, 19
2, 103943, Note_on_c, 0, 52, 0
2, 103968, Control_c, 0, 64, 127
2, 103999, Note_on_c, 0, 42, 53
2, 104020, Control_c, 0, 64, 0
2, 104031, Note_on_c, 0, 42, 0
2, 104101, Control_c, 0, 64, 127
2, 104119, Note_on_c, 0, 34, 37
2, 104128, Note_on_c, 0, 34, 0
2, 104134, Control_c, 0, 64, 0
2, 104135, Note_on_c, 0, 35, 52
2, 104171, Note_on_c, 0, 35, 0
2, 104173, Note_on_c, 0, 59, 0
2, 104183, Note_on_c, 0, 36, 57
2, 104184, Note_on_c, 0, 64, 0
2, 104206, Control_c, 0, 64, 127
2, 104242, Control_c, 0, 64, 0
2, 104251, Note_on_c, 0, 24, 61
2, 104270, Note_on_c, 0, 24, 0
2, 104270, Note_on_c, 0, 36, 0
2, 104276, Control_c, 0, 64, 127
2, 104338, Note_on_c, 0, 67, 0
2, 104365, Note_on_c, 0, 67, 50
2, 104366, Note_on_c, 0, 58, 47
2, 104366, Note_on_c, 0, 64, 58
2, 104367, Note_on_c, 0, 61, 46
2, 104368, Note_on_c, 0, 52, 62
2, 104377, Control_c, 0, 64, 0
2, 104417, Control_c, 0, 64, 127
2, 104449, Note_on_c, 0, 52, 0
2, 104478, Control_c, 0, 64, 0
2, 104480, Note_on_c, 0, 48, 69
2, 104498, Note_on_c, 0, 48, 0
2, 104510, Control_c, 0, 64, 127
2, 104516, Note_on_c, 0, 67, 0
2, 104539, Note_on_c, 0, 58, 0
2, 104552, Note_on_c, 0, 61, 0
2, 104553, Note_on_c, 0, 64, 0
2, 104566, Note_on_c, 0, 66, 13
2, 104597, Note_on_c, 0, 66, 0
2, 104604, Note_on_c, 0, 48, 37
2, 104629, Note_on_c, 0, 48, 0
2, 104640, Control_c, 0, 64, 0
2, 104640, Note_on_c, 0, 62, 62
2, 104643, Note_on_c, 0, 67, 53
2, 104643, Note_on_c, 0, 57, 46
2, 104646, Note_on_c, 0, 51, 42
2, 104682, Control_c, 0, 64, 127
2, 104718, Note_on_c, 0, 51, 0
2, 104719, Note_on_c, 0, 41, 60
2, 104754, Note_on_c, 0, 41, 0
2, 104812, Note_on_c, 0, 62, 0
2, 104815, Note_on_c, 0, 57, 0
2, 104835, Note_on_c, 0, 43, 20
2, 104842, Note_on_c, 0, 44, 56
2, 104847, Note_on_c, 0, 67, 0
2, 104856, Note_on_c, 0, 46, 38
2, 104858, Note_on_c, 0, 43, 0
2, 104875, Note_on_c, 0, 44, 0
2, 104880, Control_c, 0, 64, 0
2, 104881, Note_on_c, 0, 61, 52
2, 104882, Note_on_c, 0, 65, 60
2, 104883, Note_on_c, 0, 47, 58
2, 104885, Note_on_c, 0, 57, 54
2, 104887, Note_on_c, 0, 46, 0
2, 104950, Control_c, 0, 64, 127
2, 104953, Note_on_c, 0, 61, 0
2, 104956, Note_on_c, 0, 57, 0
2, 104968, Control_c, 0, 64, 0
2, 104985, Note_on_c, 0, 65, 0
2, 105002, Note_on_c, 0, 35, 49
2, 105003, Note_on_c, 0, 57, 47
2, 105004, Note_on_c, 0, 47, 0
2, 105006, Note_on_c, 0, 63, 37
2, 105007, Note_on_c, 0, 61, 30
2, 105035, Control_c, 0, 64, 127
2, 105049, Note_on_c, 0, 57, 0
2, 105072, Note_on_c, 0, 61, 0
2, 105073, Note_on_c, 0, 35, 0
2, 105087, Note_on_c, 0, 63, 0
2, 105088, Note_on_c, 0, 41, 37
2, 105119, Note_on_c, 0, 41, 0
2, 105121, Control_c, 0, 64, 0
2, 105121, Note_on_c, 0, 67, 51
2, 105123, Note_on_c, 0, 63, 31
2, 105125, Note_on_c, 0, 56, 36
2, 105125, Note_on_c, 0, 46, 38
2, 105129, Note_on_c, 0, 60, 42
2, 105198, Note_on_c, 0, 46, 0
2, 105203, Note_on_c, 0, 32, 67
2, 105269, Control_c, 0, 64, 127
2, 105279, Note_on_c, 0, 56, 0
2, 105307, Note_on_c, 0, 60, 0
2, 105345, Note_on_c, 0, 67, 0
2, 105422, Note_on_c, 0, 32, 0
2, 105442, Note_on_c, 0, 32, 62
2, 105507, Note_on_c, 0, 63, 0
2, 105562, Note_on_c, 0, 38, 45
2, 105586, Note_on_c, 0, 32, 0
2, 105592, Control_c, 0, 64, 0
2, 105594, Note_on_c, 0, 43, 67
2, 105595, Note_on_c, 0, 38, 0
2, 105642, Control_c, 0, 64, 127
2, 105678, Control_c, 0, 64, 0
2, 105683, Note_on_c, 0, 31, 70
2, 105683, Note_on_c, 0, 67, 60
2, 105683, Note_on_c, 0, 59, 67
2, 105685, Note_on_c, 0, 55, 65
2, 105686, Note_on_c, 0, 62, 64
2, 105702, Note_on_c, 0, 31, 0
2, 105705, Control_c, 0, 64, 127
2, 105715, Note_on_c, 0, 43, 0
2, 105723, Note_on_c, 0, 55, 0
2, 105747, Note_on_c, 0, 59, 0
2, 105750, Note_on_c, 0, 62, 0
2, 105760, Note_on_c, 0, 67, 0
2, 105821, Note_on_c, 0, 52, 53
2, 105826, Note_on_c, 0, 50, 29
2, 105836, Note_on_c, 0, 50, 0
2, 105842, Control_c, 0, 64, 0
2, 105844, Note_on_c, 0, 52, 0
2, 105846, Note_on_c, 0, 70, 70
2, 105846, Note_on_c, 0, 63, 69
2, 105847, Note_on_c, 0, 53, 69
2, 105847, Note_on_c, 0, 67, 69
2, 105849, Note_on_c, 0, 59, 70
2, 105900, Control_c, 0, 64, 127
2, 105912, Note_on_c, 0, 67, 0
2, 105919, Note_on_c, 0, 59, 0
2, 105922, Note_on_c, 0, 63, 0
2, 105934, Note_on_c, 0, 70, 0
2, 105936, Control_c, 0, 64, 0
2, 105946, Note_on_c, 0, 53, 0
2, 105958, Note_on_c, 0, 68, 58
2, 105958, Note_on_c, 0, 63, 61
2, 105961, Note_on_c, 0, 59, 58
2, 105965, Note_on_c, 0, 50, 42
2, 105975, Control_c, 0, 64, 127
2, 105994, Note_on_c, 0, 59, 0
2, 106002, Note_on_c, 0, 68, 0
2, 106022, Note_on_c, 0, 63, 0
2, 106037, Note_on_c, 0, 50, 0
2, 106043, Note_on_c, 0, 46, 32
2, 106074, Note_on_c, 0, 46, 0
2, 106074, Control_c, 0, 64, 0
2, 106079, Note_on_c, 0, 68, 45
2, 106080, Note_on_c, 0, 61, 52
2, 106080, Note_on_c, 0, 48, 54
2, 106081, Note_on_c, 0, 58, 49
2, 106082, Note_on_c, 0, 64, 51
2, 106125, Control_c, 0, 64, 127
2, 106159, Note_on_c, 0, 36, 53
2, 106163, Control_c, 0, 64, 0
2, 106166, Control_c, 0, 64, 127
2, 106191, Note_on_c, 0, 48, 0
2, 106209, Note_on_c, 0, 64, 0
2, 106211, Note_on_c, 0, 68, 0
2, 106225, Note_on_c, 0, 58, 0
2, 106233, Note_on_c, 0, 61, 0
2, 106273, Control_c, 0, 64, 0
2, 106278, Note_on_c, 0, 61, 59
2, 106278, Note_on_c, 0, 67, 61
2, 106279, Note_on_c, 0, 58, 59
2, 106283, Note_on_c, 0, 64, 39
2, 106287, Note_on_c, 0, 48, 38
2, 106303, Note_on_c, 0, 36, 0
2, 106318, Control_c, 0, 64, 127
2, 106389, Note_on_c, 0, 36, 68
2, 106409, Note_on_c, 0, 36, 0
2, 106417, Note_on_c, 0, 48, 0
2, 106422, Note_on_c, 0, 58, 0
2, 106424, Note_on_c, 0, 64, 0
2, 106433, Note_on_c, 0, 67, 0
2, 106466, Note_on_c, 0, 61, 0
2, 106557, Control_c, 0, 64, 0
2, 106558, Note_on_c, 0, 67, 64
2, 106558, Note_on_c, 0, 56, 53
2, 106560, Note_on_c, 0, 41, 55
2, 106561, Note_on_c, 0, 60, 58
2, 106562, Note_on_c, 0, 63, 39
2, 106564, Note_on_c, 0, 51, 36
2, 106577, Note_on_c, 0, 56, 0
2, 106581, Note_on_c, 0, 60, 0
2, 106584, Note_on_c, 0, 51, 0
2, 106585, Note_on_c, 0, 41, 0
2, 106588, Note_on_c, 0, 67, 0
2, 106594, Note_on_c, 0, 63, 0
2, 106680, Control_c, 0, 64, 127
2, 106686, Note_on_c, 0, 41, 48
2, 106688, Note_on_c, 0, 67, 46
2, 106689, Note_on_c, 0, 56, 32
2, 106691, Note_on_c, 0, 51, 27
2, 106692, Note_on_c, 0, 63, 33
2, 106698, Note_on_c, 0, 60, 35
2, 106725, Note_on_c, 0, 60, 0
2, 106727, Note_on_c, 0, 51, 0
2, 106728, Note_on_c, 0, 56, 0
2, 106729, Note_on_c, 0, 41, 0
2, 106731, Note_on_c, 0, 67, 0
2, 106732, Note_on_c, 0, 63, 0
2, 106770, Note_on_c, 0, 41, 38
2, 106772, Note_on_c, 0, 56, 34
2, 106772, Note_on_c, 0, 51, 29
2, 106773, Note_on_c, 0, 67, 38
2, 106776, Note_on_c, 0, 63, 28
2, 106777, Note_on_c, 0, 60, 42
2, 106786, Note_on_c, 0, 51, 0
2, 106788, Note_on_c, 0, 60, 0
2, 106792, Note_on_c, 0, 41, 0
2, 106792, Note_on_c, 0, 56, 0
2, 106794, Note_on_c, 0, 67, 0
2, 106799, Note_on_c, 0, 63, 0
2, 106814, Note_on_c, 0, 41, 51
2, 106815, Note_on_c, 0, 63, 59
2, 106815, Note_on_c, 0, 67, 68
2, 106816, Note_on_c, 0, 57, 70
2, 106818, Note_on_c, 0, 51, 51
2, 106861, Note_on_c, 0, 41, 0
2, 106865, Note_on_c, 0, 51, 0
2, 106871, Note_on_c, 0, 67, 0
2, 106872, Note_on_c, 0, 57, 0
2, 106874, Note_on_c, 0, 63, 0
2, 106888, Note_on_c, 0, 63, 47
2, 106889, Control_c, 0, 64, 0
2, 106891, Note_on_c, 0, 67, 64
2, 106891, Note_on_c, 0, 51, 45
2, 106891, Note_on_c, 0, 57, 60
2, 106895, Note_on_c, 0, 41, 28
2, 106901, Note_on_c, 0, 57, 0
2, 106903, Control_c, 0, 64, 127
2, 106904, Note_on_c, 0, 41, 0
2, 106913, Note_on_c, 0, 67, 0
2, 106916, Note_on_c, 0, 51, 0
2, 106919, Note_on_c, 0, 63, 0
2, 106997, Control_c, 0, 64, 0
2, 106999, Note_on_c, 0, 63, 67
2, 107000, Note_on_c, 0, 67, 74
2, 107000, Note_on_c, 0, 60, 80
2, 107001, Note_on_c, 0, 56, 71
2, 107002, Note_on_c, 0, 46, 62
2, 107027, Note_on_c, 0, 56, 0
2, 107038, Control_c, 0, 64, 127
2, 107043, Note_on_c, 0, 46, 0
2, 107123, Note_on_c, 0, 46, 75
2, 107124, Note_on_c, 0, 34, 71
2, 107149, Note_on_c, 0, 34, 0
2, 107151, Note_on_c, 0, 46, 0
2, 107178, Note_on_c, 0, 46, 40
2, 107178, Note_on_c, 0, 34, 48
2, 107207, Note_on_c, 0, 46, 0
2, 107211, Note_on_c, 0, 34, 0
2, 107240, Control_c, 0, 64, 0
2, 107245, Note_on_c, 0, 46, 52
2, 107246, Note_on_c, 0, 34, 59
2, 107249, Control_c, 0, 64, 127
2, 107267, Note_on_c, 0, 46, 0
2, 107270, Note_on_c, 0, 34, 0
2, 107301, Note_on_c, 0, 34, 52
2, 107301, Note_on_c, 0, 46, 42
2, 107320, Note_on_c, 0, 46, 0
2, 107324, Note_on_c, 0, 34, 0
2, 107366, Note_on_c, 0, 67, 0
2, 107373, Note_on_c, 0, 34, 48
2, 107375, Note_on_c, 0, 60, 0
2, 107377, Note_on_c, 0, 46, 30
2, 107381, Note_on_c, 0, 63, 0
2, 107393, Note_on_c, 0, 34, 0
2, 107396, Note_on_c, 0, 46, 0
2, 107527, Control_c, 0, 64, 0
2, 107531, Note_on_c, 0, 60, 59
2, 107532, Note_on_c, 0, 53, 40
2, 107533, Note_on_c, 0, 37, 49
2, 107533, Note_on_c, 0, 65, 36
2, 107537, Note_on_c, 0, 44, 36
2, 107552, Control_c, 0, 64, 127
2, 107559, Note_on_c, 0, 53, 0
2, 107566, Note_on_c, 0, 65, 0
2, 107568, Note_on_c, 0, 60, 0
2, 107577, Note_on_c, 0, 37, 0
2, 107589, Note_on_c, 0, 44, 0
2, 107611, Control_c, 0, 64, 0
2, 107618, Note_on_c, 0, 54, 46
2, 107620, Note_on_c, 0, 61, 45
2, 107620, Note_on_c, 0, 38, 36
2, 107622, Note_on_c, 0, 65, 34
2, 107623, Note_on_c, 0, 45, 38
2, 107633, Control_c, 0, 64, 127
2, 107643, Note_on_c, 0, 45, 0
2, 107647, Note_on_c, 0, 38, 0
2, 107656, Note_on_c, 0, 65, 0
2, 107657, Note_on_c, 0, 54, 0
2, 107666, Note_on_c, 0, 61, 0
2, 107710, Control_c, 0, 64, 0
2, 107724, Note_on_c, 0, 65, 43
2, 107725, Note_on_c, 0, 55, 53
2, 107727, Note_on_c, 0, 60, 53
2, 107728, Note_on_c, 0, 39, 37
2, 107728, Note_on_c, 0, 62, 38
2, 107732, Note_on_c, 0, 46, 31
2, 107742, Note_on_c, 0, 55, 0
2, 107746, Control_c, 0, 64, 127
2, 107750, Note_on_c, 0, 60, 0
2, 107753, Note_on_c, 0, 62, 0
2, 107758, Note_on_c, 0, 65, 0
2, 107812, Note_on_c, 0, 79, 60
2, 107816, Note_on_c, 0, 67, 40
2, 107826, Note_on_c, 0, 67, 0
2, 107834, Note_on_c, 0, 79, 0
2, 107853, Note_on_c, 0, 39, 0
2, 107859, Note_on_c, 0, 46, 0
2, 107888, Note_on_c, 0, 72, 48
2, 107889, Note_on_c, 0, 84, 64
2, 107901, Note_on_c, 0, 72, 0
2, 107907, Note_on_c, 0, 84, 0
2, 107965, Note_on_c, 0, 77, 58
2, 107966, Note_on_c, 0, 89, 54
2, 107974, Note_on_c, 0, 60, 32
2, 107977, Note_on_c, 0, 77, 0
2, 107982, Note_on_c, 0, 89, 0
2, 107993, Note_on_c, 0, 60, 0
2, 108046, Note_on_c, 0, 96, 63
2, 108047, Note_on_c, 0, 84, 57
2, 108056, Note_on_c, 0, 84, 0
2, 108062, Note_on_c, 0, 96, 0
2, 108141, Note_on_c, 0, 101, 24
2, 108151, Note_on_c, 0, 101, 0
2, 108211, Note_on_c, 0, 95, 44
2, 108212, Note_on_c, 0, 107, 60
2, 108228, Note_on_c, 0, 107, 0
2, 108519, Note_on_c, 0, 27, 49
2, 108582, Note_on_c, 0, 95, 0
2, 109321, Note_on_c, 0, 27, 0
2, 109321, End_track
3, 0, Start_track
3, 0, Title_t, "From bar 63 in tempo"
3, 0, End_track
4, 0, Start_track
4, 0, Title_t, "dougmck@pipeline.com.au"
4, 0, End_track
0, 0, End_of_file
