0, 0, Header, 1, 6, 120
1, 0, Start_track
1, 0, Title_t, "I Hear a Rhapsody"
1, 0, Text_t, "Fragos, Baker and Gasparre\012"
1, 0, Text_t, "'I Hear a Rhapsody' - lots of versions around in the jazz piano trio genre - Bill Evans, Keith Jarrett etc. Chords used were from the Real Book Vol 3 p 156 (Sher Music). Some 'Markers' to explain some of the voicings/musical phrases used.\012"
1, 0, Time_signature, 4, 2, 24, 8
1, 0, Key_signature, -3, "major"
1, 0, Tempo, 352941
1, 120, Marker_t, "Use of the Whole tone scale RH and LH in contrary motion."
1, 2040, Marker_t, "Basically 2 triads a tritone apart - C (RH) and Gb (LH)"
1, 6120, Marker_t, "Left and R hand in unison an octave apart"
1, 14400, Marker_t, "LH ascending chromatic line from Root of Gm7b5 to root of C7"
1, 18360, Marker_t, "D/Eb Bass resolves to Eb6"
1, 29040, Marker_t, "F7(#5)"
1, 29280, Marker_t, "Eb7(#5)"
1, 30240, Marker_t, "Db7(#5)"
1, 44640, Marker_t, "'Bach' like piano/bass. Rhythm in '2'"
1, 46080, Marker_t, "Piano mostly basic melody -with few chords"
1, 47040, Marker_t, "Contrapuntal lines with Bass"
1, 51960, Marker_t, """Surround"" the root of the chord (Eb)"
1, 53754, Marker_t, """Surround"" the 5th of Gm7 "
1, 64320, Marker_t, "'Neigbouring' tones to Eb -which is the 3rd of Cm7"
1, 75840, Marker_t, "Bass 'walks' in 4"
1, 79680, Marker_t, "Tremolo of Octaves in RH"
1, 87361, Marker_t, "Statement of Melody"
1, 88074, Marker_t, "'Big' chords - LH plays 'rootless' type voicing"
1, 88330, Marker_t, "RH plays octaves with 'tension' note between."
1, 88800, Marker_t, "Lots of sliding off black to white notes in RH octaves"
1, 102720, Marker_t, "Final Statement of Melody - using Big 2 handed chords"
1, 102720, End_track
2, 0, Start_track
2, 0, Title_t, "dougmck@pipeline.com.au"
2, 210, Control_c, 0, 64, 127
2, 468, Note_on_c, 0, 67, 69
2, 469, Note_on_c, 0, 63, 65
2, 474, Note_on_c, 0, 59, 59
2, 475, Note_on_c, 0, 53, 48
2, 475, Control_c, 0, 64, 0
2, 522, Control_c, 0, 64, 127
2, 594, Note_on_c, 0, 59, 0
2, 661, Note_on_c, 0, 63, 0
2, 663, Note_on_c, 0, 53, 0
2, 676, Note_on_c, 0, 67, 0
2, 701, Note_on_c, 0, 61, 56
2, 702, Note_on_c, 0, 65, 67
2, 702, Note_on_c, 0, 69, 69
2, 708, Note_on_c, 0, 51, 38
2, 717, Control_c, 0, 64, 0
2, 768, Control_c, 0, 64, 127
2, 836, Note_on_c, 0, 65, 0
2, 840, Note_on_c, 0, 69, 0
2, 851, Note_on_c, 0, 61, 0
2, 1019, Note_on_c, 0, 71, 62
2, 1024, Control_c, 0, 64, 0
2, 1024, Note_on_c, 0, 63, 52
2, 1031, Note_on_c, 0, 51, 0
2, 1032, Note_on_c, 0, 49, 34
2, 1068, Control_c, 0, 64, 127
2, 1075, Note_on_c, 0, 63, 0
2, 1081, Note_on_c, 0, 71, 0
2, 1090, Note_on_c, 0, 49, 0
2, 1167, Note_on_c, 0, 48, 45
2, 1168, Note_on_c, 0, 74, 70
2, 1173, Note_on_c, 0, 67, 56
2, 1175, Note_on_c, 0, 63, 29
2, 1184, Control_c, 0, 64, 0
2, 1245, Control_c, 0, 64, 127
2, 1281, Note_on_c, 0, 74, 0
2, 1287, Note_on_c, 0, 48, 0
2, 1288, Note_on_c, 0, 63, 0
2, 1295, Note_on_c, 0, 72, 44
2, 1298, Note_on_c, 0, 55, 51
2, 1317, Note_on_c, 0, 55, 0
2, 1317, Note_on_c, 0, 67, 0
2, 1343, Note_on_c, 0, 72, 0
2, 1435, Note_on_c, 0, 75, 56
2, 1441, Note_on_c, 0, 64, 44
2, 1444, Note_on_c, 0, 72, 33
2, 1445, Note_on_c, 0, 68, 37
2, 1446, Control_c, 0, 64, 0
2, 1447, Note_on_c, 0, 58, 42
2, 1498, Control_c, 0, 64, 127
2, 1508, Note_on_c, 0, 58, 0
2, 1624, Note_on_c, 0, 30, 50
2, 1647, Note_on_c, 0, 64, 0
2, 1658, Note_on_c, 0, 30, 0
2, 1669, Note_on_c, 0, 68, 0
2, 1678, Note_on_c, 0, 72, 0
2, 1712, Note_on_c, 0, 75, 0
2, 2140, Note_on_c, 0, 96, 49
2, 2144, Note_on_c, 0, 88, 45
2, 2153, Note_on_c, 0, 66, 21
2, 2244, Note_on_c, 0, 66, 0
2, 2260, Note_on_c, 0, 70, 29
2, 2303, Note_on_c, 0, 88, 0
2, 2372, Note_on_c, 0, 70, 0
2, 2386, Note_on_c, 0, 88, 33
2, 2387, Note_on_c, 0, 84, 32
2, 2391, Note_on_c, 0, 78, 33
2, 2496, Note_on_c, 0, 78, 0
2, 2526, Note_on_c, 0, 82, 26
2, 2540, Note_on_c, 0, 84, 0
2, 2553, Note_on_c, 0, 88, 0
2, 2697, Note_on_c, 0, 85, 26
2, 2698, Note_on_c, 0, 88, 30
2, 2703, Note_on_c, 0, 84, 25
2, 2706, Note_on_c, 0, 82, 0
2, 2742, Note_on_c, 0, 85, 0
2, 2776, Note_on_c, 0, 96, 0
2, 2831, Note_on_c, 0, 88, 0
2, 2841, Note_on_c, 0, 84, 0
2, 3227, Note_on_c, 0, 74, 80
2, 3227, Note_on_c, 0, 46, 51
2, 3250, Control_c, 0, 64, 0
2, 3295, Control_c, 0, 64, 127
2, 3370, Note_on_c, 0, 56, 37
2, 3386, Note_on_c, 0, 46, 0
2, 3487, Note_on_c, 0, 56, 0
2, 3527, Note_on_c, 0, 67, 44
2, 3528, Note_on_c, 0, 62, 36
2, 3540, Note_on_c, 0, 58, 32
2, 3650, Note_on_c, 0, 62, 0
2, 3814, Note_on_c, 0, 59, 51
2, 3816, Note_on_c, 0, 58, 0
2, 4076, Note_on_c, 0, 59, 0
2, 4148, Note_on_c, 0, 74, 0
2, 4158, Note_on_c, 0, 67, 0
2, 4446, Note_on_c, 0, 70, 55
2, 4452, Note_on_c, 0, 62, 49
2, 4454, Note_on_c, 0, 39, 31
2, 4457, Control_c, 0, 64, 0
2, 4463, Note_on_c, 0, 58, 18
2, 4495, Control_c, 0, 64, 127
2, 4510, Note_on_c, 0, 62, 0
2, 4531, Note_on_c, 0, 58, 0
2, 4560, Note_on_c, 0, 46, 34
2, 4617, Note_on_c, 0, 70, 0
2, 4647, Note_on_c, 0, 39, 0
2, 4649, Note_on_c, 0, 67, 58
2, 4673, Note_on_c, 0, 46, 0
2, 4705, Note_on_c, 0, 67, 0
2, 4720, Note_on_c, 0, 68, 56
2, 4783, Note_on_c, 0, 68, 0
2, 4811, Note_on_c, 0, 70, 55
2, 4814, Note_on_c, 0, 44, 37
2, 4825, Control_c, 0, 64, 0
2, 4901, Note_on_c, 0, 65, 1
2, 4911, Note_on_c, 0, 54, 34
2, 4931, Control_c, 0, 64, 127
2, 4997, Note_on_c, 0, 65, 0
2, 5018, Note_on_c, 0, 60, 17
2, 5094, Note_on_c, 0, 54, 0
2, 5114, Note_on_c, 0, 65, 39
2, 5133, Note_on_c, 0, 44, 0
2, 5144, Note_on_c, 0, 60, 0
2, 5204, Note_on_c, 0, 65, 0
2, 5220, Note_on_c, 0, 70, 0
2, 5234, Note_on_c, 0, 65, 40
2, 5236, Note_on_c, 0, 43, 31
2, 5239, Note_on_c, 0, 53, 33
2, 5240, Note_on_c, 0, 61, 21
2, 5255, Control_c, 0, 64, 0
2, 5361, Control_c, 0, 64, 127
2, 5365, Note_on_c, 0, 49, 29
2, 5436, Note_on_c, 0, 61, 0
2, 5468, Note_on_c, 0, 53, 0
2, 5473, Note_on_c, 0, 49, 0
2, 5478, Note_on_c, 0, 61, 28
2, 5493, Note_on_c, 0, 43, 0
2, 5500, Note_on_c, 0, 65, 0
2, 5601, Note_on_c, 0, 65, 43
2, 5651, Note_on_c, 0, 65, 0
2, 5705, Note_on_c, 0, 61, 0
2, 5807, Control_c, 0, 64, 0
2, 5808, Note_on_c, 0, 61, 21
2, 5812, Note_on_c, 0, 24, 30
2, 5822, Note_on_c, 0, 36, 26
2, 5823, Note_on_c, 0, 64, 40
2, 5865, Control_c, 0, 64, 127
2, 5927, Note_on_c, 0, 24, 0
2, 5928, Note_on_c, 0, 61, 0
2, 5932, Note_on_c, 0, 64, 0
2, 5946, Note_on_c, 0, 36, 0
2, 6189, Note_on_c, 0, 79, 46
2, 6191, Note_on_c, 0, 55, 40
2, 6240, Control_c, 0, 64, 0
2, 6246, Note_on_c, 0, 55, 0
2, 6247, Note_on_c, 0, 79, 0
2, 6264, Note_on_c, 0, 80, 45
2, 6266, Note_on_c, 0, 56, 28
2, 6312, Control_c, 0, 64, 127
2, 6326, Note_on_c, 0, 80, 0
2, 6326, Control_c, 0, 64, 0
2, 6333, Note_on_c, 0, 56, 0
2, 6334, Note_on_c, 0, 58, 40
2, 6334, Note_on_c, 0, 82, 56
2, 6361, Note_on_c, 0, 58, 0
2, 6367, Note_on_c, 0, 82, 0
2, 6415, Note_on_c, 0, 82, 52
2, 6418, Note_on_c, 0, 58, 38
2, 6476, Control_c, 0, 64, 127
2, 6480, Note_on_c, 0, 58, 0
2, 6497, Note_on_c, 0, 56, 35
2, 6498, Note_on_c, 0, 80, 43
2, 6509, Note_on_c, 0, 82, 0
2, 6593, Note_on_c, 0, 56, 0
2, 6596, Note_on_c, 0, 80, 0
2, 6605, Note_on_c, 0, 83, 54
2, 6608, Note_on_c, 0, 59, 40
2, 6626, Control_c, 0, 64, 0
2, 6667, Control_c, 0, 64, 127
2, 6711, Note_on_c, 0, 59, 0
2, 6728, Note_on_c, 0, 83, 0
2, 6778, Note_on_c, 0, 44, 33
2, 6902, Note_on_c, 0, 63, 48
2, 6904, Note_on_c, 0, 59, 45
2, 7001, Note_on_c, 0, 44, 0
2, 7004, Note_on_c, 0, 70, 64
2, 7158, Note_on_c, 0, 59, 0
2, 7200, Note_on_c, 0, 70, 0
2, 7218, Note_on_c, 0, 63, 0
2, 7252, Note_on_c, 0, 47, 36
2, 7254, Note_on_c, 0, 62, 37
2, 7258, Note_on_c, 0, 57, 30
2, 7277, Control_c, 0, 64, 0
2, 7311, Control_c, 0, 64, 127
2, 7326, Note_on_c, 0, 57, 0
2, 7362, Note_on_c, 0, 62, 0
2, 7369, Note_on_c, 0, 47, 0
2, 7372, Note_on_c, 0, 57, 42
2, 7388, Note_on_c, 0, 57, 0
2, 7481, Note_on_c, 0, 69, 52
2, 7483, Note_on_c, 0, 74, 65
2, 7484, Note_on_c, 0, 62, 45
2, 7547, Note_on_c, 0, 69, 0
2, 7559, Note_on_c, 0, 74, 0
2, 7603, Note_on_c, 0, 76, 34
2, 7605, Note_on_c, 0, 74, 55
2, 7640, Note_on_c, 0, 76, 0
2, 7691, Note_on_c, 0, 74, 0
2, 7744, Note_on_c, 0, 71, 43
2, 7745, Note_on_c, 0, 62, 0
2, 7745, Note_on_c, 0, 74, 58
2, 7760, Note_on_c, 0, 56, 25
2, 7771, Control_c, 0, 64, 0
2, 7843, Control_c, 0, 64, 127
2, 7878, Note_on_c, 0, 62, 50
2, 7957, Note_on_c, 0, 71, 0
2, 7975, Note_on_c, 0, 74, 0
2, 8019, Note_on_c, 0, 67, 43
2, 8020, Note_on_c, 0, 74, 38
2, 8023, Note_on_c, 0, 71, 49
2, 8084, Note_on_c, 0, 74, 0
2, 8088, Note_on_c, 0, 67, 0
2, 8141, Note_on_c, 0, 62, 0
2, 8162, Note_on_c, 0, 56, 0
2, 8176, Note_on_c, 0, 74, 58
2, 8200, Note_on_c, 0, 71, 0
2, 8215, Note_on_c, 0, 74, 0
2, 8350, Note_on_c, 0, 77, 63
2, 8350, Note_on_c, 0, 69, 56
2, 8355, Note_on_c, 0, 51, 35
2, 8357, Note_on_c, 0, 66, 34
2, 8358, Note_on_c, 0, 74, 41
2, 8363, Note_on_c, 0, 59, 19
2, 8365, Control_c, 0, 64, 0
2, 8412, Control_c, 0, 64, 127
2, 8434, Note_on_c, 0, 69, 0
2, 8444, Note_on_c, 0, 74, 0
2, 8477, Note_on_c, 0, 77, 0
2, 8479, Note_on_c, 0, 66, 0
2, 8495, Note_on_c, 0, 59, 0
2, 8507, Note_on_c, 0, 75, 55
2, 8510, Note_on_c, 0, 67, 45
2, 8520, Note_on_c, 0, 60, 33
2, 8521, Control_c, 0, 64, 0
2, 8538, Control_c, 0, 64, 127
2, 8566, Note_on_c, 0, 67, 0
2, 8567, Note_on_c, 0, 60, 0
2, 8587, Note_on_c, 0, 51, 0
2, 8609, Note_on_c, 0, 75, 0
2, 8709, Note_on_c, 0, 75, 63
2, 8712, Note_on_c, 0, 71, 69
2, 8714, Note_on_c, 0, 66, 59
2, 8717, Note_on_c, 0, 45, 55
2, 8722, Control_c, 0, 64, 0
2, 8768, Note_on_c, 0, 45, 0
2, 8774, Control_c, 0, 64, 127
2, 8944, Note_on_c, 0, 61, 38
2, 8948, Note_on_c, 0, 55, 51
2, 9110, Note_on_c, 0, 55, 0
2, 9111, Note_on_c, 0, 61, 0
2, 9252, Note_on_c, 0, 38, 60
2, 9255, Control_c, 0, 64, 0
2, 9285, Control_c, 0, 64, 127
2, 9291, Note_on_c, 0, 38, 0
2, 9332, Note_on_c, 0, 66, 0
2, 9335, Note_on_c, 0, 71, 0
2, 9371, Note_on_c, 0, 75, 0
2, 9449, Note_on_c, 0, 68, 46
2, 9449, Note_on_c, 0, 60, 53
2, 9450, Note_on_c, 0, 54, 36
2, 9451, Note_on_c, 0, 72, 45
2, 9451, Note_on_c, 0, 65, 55
2, 9583, Note_on_c, 0, 60, 0
2, 9612, Note_on_c, 0, 54, 0
2, 9615, Note_on_c, 0, 65, 0
2, 9621, Note_on_c, 0, 68, 0
2, 9623, Note_on_c, 0, 72, 0
2, 9722, Note_on_c, 0, 79, 78
2, 9865, Note_on_c, 0, 43, 77
2, 9868, Control_c, 0, 64, 0
2, 9906, Control_c, 0, 64, 127
2, 9924, Note_on_c, 0, 79, 0
2, 9932, Note_on_c, 0, 43, 0
2, 10059, Note_on_c, 0, 76, 72
2, 10059, Note_on_c, 0, 81, 73
2, 10062, Note_on_c, 0, 69, 66
2, 10064, Note_on_c, 0, 64, 58
2, 10065, Note_on_c, 0, 53, 50
2, 10071, Note_on_c, 0, 59, 53
2, 10100, Control_c, 0, 64, 0
2, 10131, Control_c, 0, 64, 127
2, 10228, Note_on_c, 0, 53, 0
2, 10229, Note_on_c, 0, 69, 0
2, 10231, Note_on_c, 0, 64, 0
2, 10231, Note_on_c, 0, 59, 0
2, 10255, Note_on_c, 0, 76, 0
2, 10259, Note_on_c, 0, 81, 0
2, 10429, Note_on_c, 0, 83, 54
2, 10434, Note_on_c, 0, 71, 46
2, 10437, Note_on_c, 0, 76, 50
2, 10437, Note_on_c, 0, 63, 32
2, 10438, Note_on_c, 0, 53, 43
2, 10441, Note_on_c, 0, 80, 34
2, 10442, Note_on_c, 0, 59, 41
2, 10455, Control_c, 0, 64, 0
2, 10537, Control_c, 0, 64, 127
2, 10662, Note_on_c, 0, 59, 0
2, 10679, Note_on_c, 0, 83, 0
2, 10680, Note_on_c, 0, 63, 0
2, 10684, Note_on_c, 0, 80, 0
2, 10685, Note_on_c, 0, 53, 0
2, 10695, Note_on_c, 0, 76, 0
2, 10725, Note_on_c, 0, 71, 0
2, 10977, Note_on_c, 0, 74, 70
2, 10989, Note_on_c, 0, 67, 64
2, 10997, Note_on_c, 0, 59, 43
2, 11000, Note_on_c, 0, 63, 30
2, 11003, Control_c, 0, 64, 0
2, 11065, Control_c, 0, 64, 127
2, 11548, Note_on_c, 0, 74, 0
2, 11556, Note_on_c, 0, 72, 38
2, 11565, Note_on_c, 0, 67, 0
2, 11590, Note_on_c, 0, 59, 0
2, 11603, Note_on_c, 0, 72, 0
2, 11617, Note_on_c, 0, 63, 0
2, 11678, Note_on_c, 0, 75, 37
2, 11690, Note_on_c, 0, 72, 31
2, 11691, Note_on_c, 0, 68, 34
2, 11693, Note_on_c, 0, 64, 42
2, 11694, Note_on_c, 0, 58, 39
2, 11706, Control_c, 0, 64, 0
2, 11778, Control_c, 0, 64, 127
2, 11874, Note_on_c, 0, 64, 0
2, 11875, Note_on_c, 0, 75, 0
2, 11885, Note_on_c, 0, 72, 0
2, 11902, Note_on_c, 0, 75, 50
2, 11930, Note_on_c, 0, 68, 0
2, 11937, Note_on_c, 0, 58, 0
2, 12027, Note_on_c, 0, 75, 0
2, 12084, Note_on_c, 0, 75, 44
2, 12092, Note_on_c, 0, 41, 36
2, 12095, Control_c, 0, 64, 0
2, 12108, Note_on_c, 0, 67, 20
2, 12149, Control_c, 0, 64, 127
2, 12171, Note_on_c, 0, 75, 0
2, 12172, Note_on_c, 0, 67, 0
2, 12275, Note_on_c, 0, 48, 34
2, 12356, Note_on_c, 0, 41, 0
2, 12357, Note_on_c, 0, 48, 0
2, 12372, Note_on_c, 0, 53, 33
2, 12468, Note_on_c, 0, 55, 44
2, 12530, Note_on_c, 0, 55, 0
2, 12546, Note_on_c, 0, 56, 49
2, 12605, Note_on_c, 0, 56, 0
2, 12605, Note_on_c, 0, 57, 50
2, 12623, Control_c, 0, 64, 0
2, 12640, Note_on_c, 0, 57, 0
2, 12668, Note_on_c, 0, 58, 31
2, 12706, Note_on_c, 0, 58, 0
2, 12720, Note_on_c, 0, 59, 44
2, 12764, Note_on_c, 0, 59, 0
2, 12778, Note_on_c, 0, 61, 55
2, 12813, Note_on_c, 0, 53, 0
2, 12822, Note_on_c, 0, 61, 0
2, 12841, Note_on_c, 0, 62, 57
2, 12879, Note_on_c, 0, 62, 0
2, 12906, Note_on_c, 0, 63, 43
2, 12925, Note_on_c, 0, 56, 25
2, 12938, Note_on_c, 0, 46, 25
2, 12945, Note_on_c, 0, 63, 0
2, 12962, Note_on_c, 0, 64, 41
2, 13024, Note_on_c, 0, 64, 0
2, 13036, Note_on_c, 0, 65, 49
2, 13073, Control_c, 0, 64, 127
2, 13164, Note_on_c, 0, 65, 0
2, 13165, Note_on_c, 0, 62, 52
2, 13204, Note_on_c, 0, 62, 0
2, 13261, Note_on_c, 0, 56, 0
2, 13318, Note_on_c, 0, 74, 68
2, 13454, Note_on_c, 0, 67, 51
2, 13460, Note_on_c, 0, 62, 43
2, 13463, Note_on_c, 0, 56, 25
2, 13533, Note_on_c, 0, 74, 0
2, 13569, Note_on_c, 0, 62, 0
2, 13580, Note_on_c, 0, 67, 0
2, 13595, Note_on_c, 0, 56, 0
2, 13633, Note_on_c, 0, 70, 63
2, 13634, Note_on_c, 0, 67, 63
2, 13636, Note_on_c, 0, 62, 54
2, 13641, Note_on_c, 0, 55, 46
2, 13649, Control_c, 0, 64, 0
2, 13687, Note_on_c, 0, 46, 0
2, 13750, Note_on_c, 0, 46, 55
2, 13786, Note_on_c, 0, 67, 0
2, 13800, Control_c, 0, 64, 127
2, 13825, Note_on_c, 0, 62, 0
2, 13841, Note_on_c, 0, 67, 64
2, 13853, Note_on_c, 0, 70, 0
2, 13853, Note_on_c, 0, 62, 19
2, 13920, Note_on_c, 0, 62, 0
2, 13931, Note_on_c, 0, 68, 71
2, 13939, Note_on_c, 0, 55, 0
2, 13945, Note_on_c, 0, 67, 0
2, 13954, Note_on_c, 0, 46, 0
2, 14018, Note_on_c, 0, 68, 0
2, 14053, Note_on_c, 0, 70, 44
2, 14053, Note_on_c, 0, 65, 49
2, 14054, Note_on_c, 0, 60, 48
2, 14056, Note_on_c, 0, 44, 45
2, 14062, Control_c, 0, 64, 0
2, 14151, Control_c, 0, 64, 127
2, 14153, Note_on_c, 0, 54, 37
2, 14154, Note_on_c, 0, 60, 0
2, 14162, Note_on_c, 0, 44, 0
2, 14181, Note_on_c, 0, 54, 0
2, 14206, Note_on_c, 0, 65, 0
2, 14250, Note_on_c, 0, 60, 64
2, 14283, Note_on_c, 0, 60, 0
2, 14328, Note_on_c, 0, 70, 0
2, 14339, Note_on_c, 0, 65, 56
2, 14396, Note_on_c, 0, 65, 0
2, 14451, Note_on_c, 0, 61, 43
2, 14455, Note_on_c, 0, 70, 50
2, 14456, Note_on_c, 0, 43, 61
2, 14456, Note_on_c, 0, 65, 57
2, 14495, Control_c, 0, 64, 0
2, 14546, Note_on_c, 0, 43, 0
2, 14560, Note_on_c, 0, 44, 51
2, 14607, Note_on_c, 0, 44, 0
2, 14622, Note_on_c, 0, 45, 54
2, 14663, Note_on_c, 0, 45, 0
2, 14685, Note_on_c, 0, 46, 33
2, 14730, Note_on_c, 0, 46, 0
2, 14752, Note_on_c, 0, 47, 42
2, 14805, Note_on_c, 0, 47, 0
2, 14825, Note_on_c, 0, 48, 49
2, 14882, Note_on_c, 0, 48, 0
2, 14904, Control_c, 0, 64, 127
2, 14905, Note_on_c, 0, 49, 44
2, 14959, Control_c, 0, 64, 0
2, 14972, Note_on_c, 0, 49, 0
2, 14996, Note_on_c, 0, 48, 29
2, 15074, Note_on_c, 0, 65, 0
2, 15077, Note_on_c, 0, 70, 0
2, 15078, Note_on_c, 0, 48, 0
2, 15085, Note_on_c, 0, 36, 36
2, 15089, Control_c, 0, 64, 127
2, 15093, Note_on_c, 0, 61, 0
2, 15105, Note_on_c, 0, 36, 0
2, 15189, Note_on_c, 0, 58, 31
2, 15249, Note_on_c, 0, 58, 0
2, 15266, Note_on_c, 0, 61, 53
2, 15292, Note_on_c, 0, 61, 0
2, 15371, Note_on_c, 0, 68, 45
2, 15374, Note_on_c, 0, 75, 43
2, 15458, Note_on_c, 0, 68, 0
2, 15464, Note_on_c, 0, 75, 0
2, 15479, Note_on_c, 0, 73, 34
2, 15483, Note_on_c, 0, 68, 32
2, 15487, Note_on_c, 0, 61, 36
2, 15489, Note_on_c, 0, 64, 25
2, 15518, Note_on_c, 0, 61, 0
2, 15529, Note_on_c, 0, 73, 0
2, 15536, Note_on_c, 0, 64, 0
2, 15539, Note_on_c, 0, 68, 0
2, 15602, Note_on_c, 0, 72, 39
2, 15607, Note_on_c, 0, 58, 25
2, 15609, Note_on_c, 0, 67, 43
2, 15609, Note_on_c, 0, 64, 36
2, 15623, Note_on_c, 0, 67, 0
2, 15636, Note_on_c, 0, 72, 0
2, 15641, Note_on_c, 0, 64, 0
2, 15666, Note_on_c, 0, 58, 0
2, 15726, Note_on_c, 0, 61, 33
2, 15727, Note_on_c, 0, 64, 41
2, 15728, Note_on_c, 0, 58, 23
2, 15736, Note_on_c, 0, 48, 36
2, 15750, Control_c, 0, 64, 0
2, 15755, Note_on_c, 0, 48, 0
2, 15757, Control_c, 0, 64, 127
2, 15780, Note_on_c, 0, 61, 0
2, 15780, Note_on_c, 0, 64, 0
2, 15792, Note_on_c, 0, 58, 0
2, 15868, Note_on_c, 0, 63, 43
2, 15870, Note_on_c, 0, 70, 39
2, 15872, Note_on_c, 0, 41, 36
2, 15878, Note_on_c, 0, 48, 28
2, 15886, Control_c, 0, 64, 0
2, 15927, Note_on_c, 0, 56, 1
2, 15985, Control_c, 0, 64, 127
2, 16020, Note_on_c, 0, 55, 48
2, 16083, Note_on_c, 0, 56, 0
2, 16136, Note_on_c, 0, 56, 48
2, 16138, Note_on_c, 0, 70, 0
2, 16186, Note_on_c, 0, 55, 0
2, 16210, Note_on_c, 0, 56, 0
2, 16216, Note_on_c, 0, 41, 0
2, 16220, Note_on_c, 0, 63, 0
2, 16230, Note_on_c, 0, 48, 0
2, 16233, Note_on_c, 0, 68, 59
2, 16277, Note_on_c, 0, 68, 0
2, 16370, Note_on_c, 0, 71, 64
2, 16371, Note_on_c, 0, 44, 38
2, 16379, Note_on_c, 0, 59, 49
2, 16381, Control_c, 0, 64, 0
2, 16381, Note_on_c, 0, 63, 37
2, 16469, Control_c, 0, 64, 127
2, 16474, Note_on_c, 0, 59, 0
2, 16483, Note_on_c, 0, 53, 53
2, 16484, Note_on_c, 0, 44, 0
2, 16499, Note_on_c, 0, 53, 0
2, 16524, Note_on_c, 0, 63, 0
2, 16606, Note_on_c, 0, 59, 59
2, 16672, Note_on_c, 0, 71, 0
2, 16739, Note_on_c, 0, 59, 0
2, 16888, Note_on_c, 0, 70, 62
2, 16890, Note_on_c, 0, 71, 58
2, 16891, Note_on_c, 0, 74, 62
2, 16892, Control_c, 0, 64, 0
2, 16892, Note_on_c, 0, 76, 65
2, 16893, Note_on_c, 0, 68, 35
2, 16943, Control_c, 0, 64, 127
2, 17027, Note_on_c, 0, 79, 48
2, 17030, Note_on_c, 0, 71, 0
2, 17038, Note_on_c, 0, 76, 0
2, 17038, Note_on_c, 0, 74, 0
2, 17046, Note_on_c, 0, 70, 0
2, 17051, Note_on_c, 0, 68, 0
2, 17052, Note_on_c, 0, 79, 0
2, 17165, Note_on_c, 0, 91, 57
2, 17194, Note_on_c, 0, 91, 0
2, 17309, Note_on_c, 0, 56, 35
2, 17338, Note_on_c, 0, 56, 0
2, 17506, Note_on_c, 0, 66, 33
2, 17508, Note_on_c, 0, 74, 35
2, 17510, Note_on_c, 0, 46, 37
2, 17511, Note_on_c, 0, 62, 35
2, 17514, Note_on_c, 0, 56, 26
2, 17547, Control_c, 0, 64, 0
2, 17591, Control_c, 0, 64, 127
2, 17694, Note_on_c, 0, 66, 0
2, 17708, Note_on_c, 0, 62, 0
2, 17715, Note_on_c, 0, 74, 0
2, 17739, Note_on_c, 0, 74, 42
2, 17782, Note_on_c, 0, 74, 0
2, 17873, Note_on_c, 0, 74, 57
2, 17984, Note_on_c, 0, 74, 0
2, 18037, Note_on_c, 0, 74, 48
2, 18104, Note_on_c, 0, 56, 0
2, 18110, Note_on_c, 0, 74, 0
2, 18145, Note_on_c, 0, 46, 0
2, 18385, Note_on_c, 0, 57, 56
2, 18388, Note_on_c, 0, 65, 53
2, 18389, Control_c, 0, 64, 0
2, 18390, Note_on_c, 0, 39, 37
2, 18394, Note_on_c, 0, 54, 46
2, 18395, Note_on_c, 0, 62, 34
2, 18398, Note_on_c, 0, 47, 28
2, 18437, Control_c, 0, 64, 127
2, 18463, Note_on_c, 0, 57, 0
2, 18474, Note_on_c, 0, 62, 0
2, 18492, Note_on_c, 0, 54, 0
2, 18503, Note_on_c, 0, 65, 0
2, 18539, Note_on_c, 0, 47, 0
2, 18557, Note_on_c, 0, 63, 52
2, 18559, Note_on_c, 0, 48, 29
2, 18566, Note_on_c, 0, 55, 51
2, 18576, Control_c, 0, 64, 0
2, 18641, Control_c, 0, 64, 127
2, 18928, Note_on_c, 0, 55, 0
2, 18964, Note_on_c, 0, 63, 0
2, 19135, Note_on_c, 0, 48, 0
2, 19195, Note_on_c, 0, 39, 0
2, 19197, Note_on_c, 0, 61, 47
2, 19199, Note_on_c, 0, 63, 42
2, 19199, Note_on_c, 0, 46, 37
2, 19202, Note_on_c, 0, 56, 33
2, 19224, Control_c, 0, 64, 0
2, 19299, Control_c, 0, 64, 127
2, 19302, Note_on_c, 0, 63, 0
2, 19341, Note_on_c, 0, 63, 49
2, 19417, Note_on_c, 0, 63, 0
2, 19429, Note_on_c, 0, 56, 0
2, 19433, Note_on_c, 0, 61, 0
2, 19469, Note_on_c, 0, 46, 0
2, 19472, Note_on_c, 0, 45, 37
2, 19475, Note_on_c, 0, 63, 39
2, 19482, Note_on_c, 0, 60, 47
2, 19484, Note_on_c, 0, 55, 38
2, 19487, Control_c, 0, 64, 0
2, 19569, Control_c, 0, 64, 127
2, 19582, Note_on_c, 0, 63, 0
2, 19623, Note_on_c, 0, 63, 46
2, 19646, Note_on_c, 0, 55, 0
2, 19653, Note_on_c, 0, 60, 0
2, 19680, Note_on_c, 0, 63, 0
2, 19783, Note_on_c, 0, 45, 0
2, 19799, Note_on_c, 0, 63, 34
2, 19800, Note_on_c, 0, 54, 29
2, 19803, Note_on_c, 0, 38, 34
2, 19808, Note_on_c, 0, 60, 43
2, 19811, Control_c, 0, 64, 0
2, 19872, Control_c, 0, 64, 127
2, 19902, Note_on_c, 0, 54, 0
2, 19925, Note_on_c, 0, 60, 0
2, 19936, Note_on_c, 0, 63, 0
2, 20048, Note_on_c, 0, 38, 0
2, 20074, Note_on_c, 0, 74, 80
2, 20231, Note_on_c, 0, 69, 53
2, 20623, Note_on_c, 0, 74, 0
2, 20631, Note_on_c, 0, 72, 42
2, 20639, Note_on_c, 0, 69, 0
2, 20696, Note_on_c, 0, 69, 50
2, 20698, Note_on_c, 0, 72, 0
2, 20744, Note_on_c, 0, 69, 0
2, 20765, Note_on_c, 0, 70, 36
2, 20766, Control_c, 0, 64, 0
2, 20766, Note_on_c, 0, 43, 38
2, 20830, Control_c, 0, 64, 127
2, 20886, Note_on_c, 0, 50, 32
2, 20967, Note_on_c, 0, 50, 0
2, 20972, Note_on_c, 0, 43, 0
2, 20999, Note_on_c, 0, 55, 43
2, 21047, Note_on_c, 0, 70, 0
2, 21068, Note_on_c, 0, 58, 34
2, 21075, Note_on_c, 0, 55, 0
2, 21162, Note_on_c, 0, 81, 60
2, 21163, Note_on_c, 0, 62, 30
2, 21175, Note_on_c, 0, 74, 34
2, 21241, Note_on_c, 0, 81, 0
2, 21279, Note_on_c, 0, 62, 0
2, 21282, Note_on_c, 0, 70, 47
2, 21292, Note_on_c, 0, 67, 33
2, 21380, Note_on_c, 0, 74, 0
2, 21401, Note_on_c, 0, 70, 0
2, 21414, Note_on_c, 0, 67, 0
2, 21427, Note_on_c, 0, 69, 49
2, 21435, Note_on_c, 0, 62, 29
2, 21550, Note_on_c, 0, 74, 76
2, 21709, Note_on_c, 0, 62, 0
2, 21738, Note_on_c, 0, 74, 0
2, 21742, Note_on_c, 0, 58, 0
2, 21742, Note_on_c, 0, 75, 77
2, 21761, Note_on_c, 0, 69, 0
2, 21806, Note_on_c, 0, 75, 0
2, 21814, Note_on_c, 0, 77, 69
2, 21869, Note_on_c, 0, 77, 0
2, 21892, Note_on_c, 0, 75, 55
2, 21894, Control_c, 0, 64, 0
2, 21901, Note_on_c, 0, 45, 47
2, 21935, Control_c, 0, 64, 127
2, 21982, Note_on_c, 0, 45, 0
2, 21993, Note_on_c, 0, 55, 45
2, 22006, Note_on_c, 0, 55, 0
2, 22080, Note_on_c, 0, 60, 58
2, 22130, Note_on_c, 0, 63, 47
2, 22145, Note_on_c, 0, 60, 0
2, 22150, Note_on_c, 0, 67, 54
2, 22154, Note_on_c, 0, 63, 0
2, 22156, Note_on_c, 0, 75, 0
2, 22187, Note_on_c, 0, 67, 0
2, 22201, Note_on_c, 0, 72, 51
2, 22236, Note_on_c, 0, 75, 57
2, 22238, Note_on_c, 0, 72, 0
2, 22257, Note_on_c, 0, 75, 0
2, 22284, Note_on_c, 0, 79, 68
2, 22315, Note_on_c, 0, 79, 0
2, 22325, Note_on_c, 0, 84, 66
2, 22360, Note_on_c, 0, 84, 0
2, 22376, Note_on_c, 0, 89, 81
2, 22413, Note_on_c, 0, 89, 0
2, 22429, Note_on_c, 0, 87, 74
2, 22446, Control_c, 0, 64, 0
2, 22471, Note_on_c, 0, 87, 0
2, 22484, Note_on_c, 0, 84, 68
2, 22490, Note_on_c, 0, 54, 34
2, 22493, Note_on_c, 0, 60, 35
2, 22504, Note_on_c, 0, 50, 17
2, 22517, Note_on_c, 0, 84, 0
2, 22520, Note_on_c, 0, 60, 0
2, 22533, Note_on_c, 0, 50, 0
2, 22553, Note_on_c, 0, 78, 38
2, 22563, Note_on_c, 0, 54, 0
2, 22588, Note_on_c, 0, 78, 0
2, 22616, Note_on_c, 0, 77, 30
2, 22662, Note_on_c, 0, 77, 0
2, 22679, Note_on_c, 0, 75, 37
2, 22716, Note_on_c, 0, 75, 0
2, 22746, Note_on_c, 0, 54, 18
2, 22749, Note_on_c, 0, 65, 31
2, 22754, Note_on_c, 0, 74, 36
2, 22756, Note_on_c, 0, 60, 36
2, 22815, Note_on_c, 0, 74, 0
2, 22829, Note_on_c, 0, 72, 45
2, 22859, Control_c, 0, 64, 127
2, 22872, Note_on_c, 0, 72, 0
2, 22903, Note_on_c, 0, 70, 53
2, 22932, Note_on_c, 0, 65, 0
2, 22960, Note_on_c, 0, 60, 0
2, 22966, Note_on_c, 0, 70, 0
2, 22974, Note_on_c, 0, 54, 0
2, 22986, Note_on_c, 0, 69, 43
2, 23065, Note_on_c, 0, 69, 0
2, 23079, Note_on_c, 0, 72, 51
2, 23099, Note_on_c, 0, 55, 35
2, 23111, Control_c, 0, 64, 0
2, 23176, Control_c, 0, 64, 127
2, 23197, Note_on_c, 0, 62, 44
2, 23296, Note_on_c, 0, 72, 0
2, 23322, Note_on_c, 0, 75, 73
2, 23335, Note_on_c, 0, 76, 56
2, 23365, Note_on_c, 0, 76, 0
2, 23406, Note_on_c, 0, 75, 0
2, 23438, Note_on_c, 0, 74, 73
2, 23454, Note_on_c, 0, 62, 0
2, 23489, Note_on_c, 0, 55, 0
2, 23523, Note_on_c, 0, 74, 0
2, 23562, Note_on_c, 0, 74, 68
2, 23573, Note_on_c, 0, 62, 48
2, 23585, Control_c, 0, 64, 0
2, 23612, Control_c, 0, 64, 127
2, 23646, Note_on_c, 0, 62, 0
2, 23664, Note_on_c, 0, 58, 37
2, 23735, Note_on_c, 0, 58, 0
2, 23744, Note_on_c, 0, 62, 56
2, 23790, Note_on_c, 0, 74, 0
2, 23800, Note_on_c, 0, 62, 0
2, 23830, Note_on_c, 0, 74, 60
2, 23868, Note_on_c, 0, 74, 0
2, 23929, Note_on_c, 0, 74, 61
2, 23931, Note_on_c, 0, 63, 49
2, 23936, Note_on_c, 0, 48, 45
2, 23939, Note_on_c, 0, 67, 39
2, 23950, Control_c, 0, 64, 0
2, 24025, Control_c, 0, 64, 127
2, 24041, Note_on_c, 0, 58, 48
2, 24044, Note_on_c, 0, 48, 0
2, 24075, Note_on_c, 0, 58, 0
2, 24099, Note_on_c, 0, 63, 0
2, 24109, Note_on_c, 0, 67, 0
2, 24130, Note_on_c, 0, 74, 0
2, 24146, Note_on_c, 0, 63, 46
2, 24150, Note_on_c, 0, 67, 45
2, 24163, Note_on_c, 0, 60, 24
2, 24175, Note_on_c, 0, 60, 0
2, 24259, Note_on_c, 0, 63, 0
2, 24273, Note_on_c, 0, 74, 62
2, 24279, Note_on_c, 0, 67, 0
2, 24417, Note_on_c, 0, 29, 58
2, 24427, Control_c, 0, 64, 0
2, 24452, Note_on_c, 0, 29, 0
2, 24461, Control_c, 0, 64, 127
2, 24490, Note_on_c, 0, 74, 0
2, 24613, Note_on_c, 0, 66, 38
2, 24615, Note_on_c, 0, 59, 44
2, 24621, Note_on_c, 0, 51, 44
2, 24668, Note_on_c, 0, 59, 0
2, 24743, Note_on_c, 0, 66, 0
2, 24820, Note_on_c, 0, 69, 48
2, 24824, Note_on_c, 0, 66, 26
2, 24833, Note_on_c, 0, 57, 36
2, 24835, Note_on_c, 0, 62, 22
2, 24869, Note_on_c, 0, 51, 0
2, 24872, Note_on_c, 0, 62, 0
2, 24906, Note_on_c, 0, 69, 0
2, 24925, Note_on_c, 0, 66, 0
2, 24928, Note_on_c, 0, 57, 0
2, 24989, Note_on_c, 0, 66, 35
2, 24993, Note_on_c, 0, 72, 32
2, 25002, Note_on_c, 0, 60, 32
2, 25047, Note_on_c, 0, 60, 0
2, 25062, Note_on_c, 0, 72, 0
2, 25064, Note_on_c, 0, 66, 0
2, 25155, Note_on_c, 0, 75, 29
2, 25167, Note_on_c, 0, 75, 0
2, 25213, Note_on_c, 0, 77, 64
2, 25225, Note_on_c, 0, 65, 37
2, 25229, Note_on_c, 0, 62, 34
2, 25231, Note_on_c, 0, 60, 44
2, 25246, Control_c, 0, 64, 0
2, 25270, Note_on_c, 0, 69, 1
2, 25314, Control_c, 0, 64, 127
2, 25317, Note_on_c, 0, 65, 0
2, 25372, Note_on_c, 0, 69, 0
2, 25372, Note_on_c, 0, 53, 37
2, 25444, Note_on_c, 0, 60, 0
2, 25459, Note_on_c, 0, 62, 0
2, 25482, Note_on_c, 0, 77, 0
2, 25514, Note_on_c, 0, 69, 52
2, 25515, Note_on_c, 0, 74, 53
2, 25553, Note_on_c, 0, 74, 0
2, 25589, Note_on_c, 0, 69, 0
2, 25653, Note_on_c, 0, 81, 85
2, 25774, Note_on_c, 0, 77, 62
2, 25784, Control_c, 0, 64, 0
2, 25786, Note_on_c, 0, 74, 45
2, 25788, Note_on_c, 0, 65, 28
2, 25789, Note_on_c, 0, 62, 34
2, 25790, Note_on_c, 0, 69, 44
2, 25794, Note_on_c, 0, 60, 31
2, 25807, Note_on_c, 0, 81, 0
2, 25829, Control_c, 0, 64, 127
2, 25847, Note_on_c, 0, 65, 0
2, 25872, Note_on_c, 0, 53, 0
2, 25905, Note_on_c, 0, 53, 47
2, 25909, Note_on_c, 0, 69, 0
2, 26046, Note_on_c, 0, 69, 55
2, 26052, Note_on_c, 0, 53, 0
2, 26093, Note_on_c, 0, 77, 0
2, 26152, Note_on_c, 0, 74, 0
2, 26179, Note_on_c, 0, 53, 48
2, 26198, Note_on_c, 0, 60, 0
2, 26207, Note_on_c, 0, 62, 0
2, 26225, Note_on_c, 0, 69, 0
2, 26236, Note_on_c, 0, 53, 0
2, 26411, Note_on_c, 0, 44, 50
2, 26411, Note_on_c, 0, 80, 68
2, 26415, Note_on_c, 0, 68, 49
2, 26415, Note_on_c, 0, 72, 57
2, 26435, Control_c, 0, 64, 0
2, 26500, Control_c, 0, 64, 127
2, 26535, Note_on_c, 0, 54, 39
2, 26552, Note_on_c, 0, 44, 0
2, 26568, Note_on_c, 0, 54, 0
2, 26682, Note_on_c, 0, 60, 42
2, 26834, Note_on_c, 0, 65, 33
2, 26885, Note_on_c, 0, 60, 0
2, 26891, Note_on_c, 0, 72, 0
2, 26892, Note_on_c, 0, 65, 0
2, 26902, Note_on_c, 0, 68, 0
2, 26923, Note_on_c, 0, 80, 0
2, 27024, Note_on_c, 0, 80, 35
2, 27033, Note_on_c, 0, 54, 23
2, 27038, Note_on_c, 0, 72, 19
2, 27039, Note_on_c, 0, 60, 33
2, 27040, Note_on_c, 0, 65, 24
2, 27048, Note_on_c, 0, 68, 12
2, 27166, Note_on_c, 0, 60, 0
2, 27240, Note_on_c, 0, 60, 35
2, 27255, Note_on_c, 0, 68, 0
2, 27312, Note_on_c, 0, 65, 0
2, 27375, Note_on_c, 0, 72, 0
2, 27402, Note_on_c, 0, 80, 0
2, 27408, Note_on_c, 0, 68, 27
2, 27415, Note_on_c, 0, 65, 31
2, 27501, Note_on_c, 0, 68, 0
2, 27599, Note_on_c, 0, 65, 0
2, 27729, Note_on_c, 0, 72, 81
2, 27748, Note_on_c, 0, 60, 0
2, 27822, Note_on_c, 0, 54, 0
2, 27913, Note_on_c, 0, 72, 0
2, 28042, Note_on_c, 0, 72, 60
2, 28045, Note_on_c, 0, 68, 48
2, 28052, Note_on_c, 0, 65, 45
2, 28055, Note_on_c, 0, 64, 47
2, 28060, Note_on_c, 0, 50, 32
2, 28061, Note_on_c, 0, 60, 34
2, 28069, Control_c, 0, 64, 0
2, 28120, Control_c, 0, 64, 127
2, 28135, Note_on_c, 0, 72, 0
2, 28172, Note_on_c, 0, 68, 0
2, 28182, Note_on_c, 0, 71, 62
2, 28191, Note_on_c, 0, 64, 0
2, 28192, Note_on_c, 0, 60, 0
2, 28194, Note_on_c, 0, 56, 21
2, 28199, Note_on_c, 0, 65, 0
2, 28213, Note_on_c, 0, 56, 0
2, 28217, Note_on_c, 0, 50, 0
2, 28238, Note_on_c, 0, 71, 0
2, 28351, Note_on_c, 0, 71, 51
2, 28353, Note_on_c, 0, 64, 51
2, 28354, Note_on_c, 0, 43, 34
2, 28361, Note_on_c, 0, 59, 40
2, 28365, Note_on_c, 0, 53, 33
2, 28369, Control_c, 0, 64, 0
2, 28447, Control_c, 0, 64, 127
2, 28546, Note_on_c, 0, 50, 28
2, 28605, Note_on_c, 0, 53, 0
2, 28608, Note_on_c, 0, 59, 0
2, 28621, Note_on_c, 0, 64, 0
2, 28667, Note_on_c, 0, 50, 0
2, 28777, Note_on_c, 0, 59, 44
2, 28779, Note_on_c, 0, 64, 38
2, 28781, Note_on_c, 0, 53, 36
2, 28872, Note_on_c, 0, 53, 0
2, 28879, Note_on_c, 0, 71, 0
2, 28918, Note_on_c, 0, 43, 0
2, 28928, Note_on_c, 0, 59, 0
2, 28935, Note_on_c, 0, 64, 0
2, 29089, Note_on_c, 0, 67, 75
2, 29091, Note_on_c, 0, 63, 64
2, 29092, Note_on_c, 0, 59, 71
2, 29093, Note_on_c, 0, 29, 44
2, 29093, Note_on_c, 0, 41, 50
2, 29112, Control_c, 0, 64, 0
2, 29156, Control_c, 0, 64, 127
2, 29184, Note_on_c, 0, 59, 0
2, 29184, Note_on_c, 0, 67, 0
2, 29194, Note_on_c, 0, 41, 0
2, 29197, Note_on_c, 0, 29, 0
2, 29198, Note_on_c, 0, 63, 0
2, 29346, Note_on_c, 0, 69, 54
2, 29348, Note_on_c, 0, 61, 42
2, 29350, Note_on_c, 0, 55, 60
2, 29350, Note_on_c, 0, 65, 58
2, 29352, Note_on_c, 0, 39, 46
2, 29355, Note_on_c, 0, 27, 57
2, 29356, Note_on_c, 0, 67, 36
2, 29357, Note_on_c, 0, 66, 35
2, 29361, Control_c, 0, 64, 0
2, 29370, Note_on_c, 0, 67, 0
2, 29376, Note_on_c, 0, 66, 0
2, 29453, Control_c, 0, 64, 127
2, 29569, Note_on_c, 0, 55, 0
2, 29584, Note_on_c, 0, 65, 0
2, 29593, Note_on_c, 0, 61, 0
2, 29601, Note_on_c, 0, 69, 0
2, 29627, Note_on_c, 0, 39, 0
2, 29634, Note_on_c, 0, 27, 0
2, 30310, Note_on_c, 0, 71, 29
2, 30316, Note_on_c, 0, 67, 44
2, 30319, Note_on_c, 0, 63, 30
2, 30322, Note_on_c, 0, 37, 28
2, 30324, Note_on_c, 0, 25, 30
2, 30326, Note_on_c, 0, 59, 42
2, 30336, Control_c, 0, 64, 0
2, 30450, Control_c, 0, 64, 127
2, 30507, Note_on_c, 0, 59, 0
2, 30525, Note_on_c, 0, 67, 0
2, 30526, Note_on_c, 0, 63, 0
2, 30531, Note_on_c, 0, 25, 0
2, 30539, Note_on_c, 0, 71, 0
2, 30542, Note_on_c, 0, 37, 0
2, 30942, Note_on_c, 0, 60, 33
2, 30971, Note_on_c, 0, 63, 39
2, 30973, Note_on_c, 0, 61, 46
2, 30979, Note_on_c, 0, 60, 0
2, 30985, Note_on_c, 0, 67, 58
2, 31004, Note_on_c, 0, 70, 51
2, 31007, Note_on_c, 0, 62, 58
2, 31008, Note_on_c, 0, 61, 0
2, 31010, Note_on_c, 0, 74, 71
2, 31050, Control_c, 0, 64, 0
2, 31187, Control_c, 0, 64, 127
2, 31217, Note_on_c, 0, 74, 0
2, 31225, Note_on_c, 0, 72, 47
2, 31237, Note_on_c, 0, 62, 0
2, 31237, Note_on_c, 0, 60, 35
2, 31258, Note_on_c, 0, 60, 0
2, 31292, Note_on_c, 0, 63, 0
2, 31292, Note_on_c, 0, 67, 0
2, 31311, Note_on_c, 0, 72, 0
2, 31328, Note_on_c, 0, 70, 0
2, 31422, Control_c, 0, 64, 0
2, 31425, Note_on_c, 0, 75, 39
2, 31430, Note_on_c, 0, 30, 35
2, 31431, Note_on_c, 0, 68, 34
2, 31432, Note_on_c, 0, 72, 32
2, 31434, Note_on_c, 0, 64, 31
2, 31435, Note_on_c, 0, 42, 28
2, 31477, Control_c, 0, 64, 127
2, 31487, Note_on_c, 0, 64, 0
2, 31498, Note_on_c, 0, 30, 0
2, 31502, Note_on_c, 0, 72, 0
2, 31503, Note_on_c, 0, 68, 0
2, 31518, Note_on_c, 0, 42, 0
2, 31519, Note_on_c, 0, 75, 0
2, 31845, Note_on_c, 0, 87, 48
2, 31852, Note_on_c, 0, 80, 30
2, 31857, Note_on_c, 0, 76, 38
2, 31859, Note_on_c, 0, 64, 29
2, 31859, Note_on_c, 0, 84, 45
2, 32098, Note_on_c, 0, 64, 0
2, 32108, Note_on_c, 0, 84, 0
2, 32110, Note_on_c, 0, 87, 0
2, 32128, Note_on_c, 0, 80, 0
2, 32143, Note_on_c, 0, 76, 0
2, 32280, Note_on_c, 0, 72, 33
2, 32280, Note_on_c, 0, 68, 27
2, 32283, Note_on_c, 0, 67, 30
2, 32285, Note_on_c, 0, 53, 31
2, 32295, Control_c, 0, 64, 0
2, 32296, Note_on_c, 0, 63, 13
2, 32301, Note_on_c, 0, 60, 30
2, 32357, Control_c, 0, 64, 127
2, 32404, Note_on_c, 0, 75, 59
2, 32451, Note_on_c, 0, 63, 0
2, 32452, Note_on_c, 0, 60, 0
2, 32466, Note_on_c, 0, 53, 0
2, 32469, Note_on_c, 0, 68, 0
2, 32478, Note_on_c, 0, 72, 0
2, 32490, Note_on_c, 0, 67, 0
2, 32497, Note_on_c, 0, 75, 0
2, 32780, Note_on_c, 0, 80, 59
2, 32848, Note_on_c, 0, 80, 0
2, 32862, Note_on_c, 0, 87, 79
2, 32916, Note_on_c, 0, 87, 0
2, 32948, Note_on_c, 0, 86, 69
2, 32953, Control_c, 0, 64, 0
2, 32954, Note_on_c, 0, 46, 42
2, 32980, Note_on_c, 0, 46, 0
2, 32991, Control_c, 0, 64, 127
2, 33069, Note_on_c, 0, 56, 25
2, 33177, Note_on_c, 0, 62, 35
2, 33297, Note_on_c, 0, 67, 35
2, 33413, Note_on_c, 0, 86, 0
2, 33422, Note_on_c, 0, 74, 40
2, 33547, Note_on_c, 0, 79, 49
2, 33656, Note_on_c, 0, 81, 71
2, 33752, Note_on_c, 0, 67, 0
2, 33756, Note_on_c, 0, 83, 74
2, 33769, Note_on_c, 0, 79, 0
2, 33769, Note_on_c, 0, 81, 0
2, 33805, Note_on_c, 0, 56, 0
2, 33843, Note_on_c, 0, 62, 0
2, 33845, Note_on_c, 0, 74, 0
2, 33854, Note_on_c, 0, 83, 0
2, 33862, Note_on_c, 0, 82, 54
2, 33874, Note_on_c, 0, 55, 50
2, 33895, Control_c, 0, 64, 0
2, 33949, Control_c, 0, 64, 127
2, 33983, Note_on_c, 0, 62, 47
2, 34071, Note_on_c, 0, 79, 60
2, 34081, Note_on_c, 0, 82, 0
2, 34087, Note_on_c, 0, 67, 34
2, 34112, Note_on_c, 0, 67, 0
2, 34135, Note_on_c, 0, 62, 0
2, 34143, Note_on_c, 0, 55, 0
2, 34156, Note_on_c, 0, 80, 76
2, 34168, Note_on_c, 0, 79, 0
2, 34237, Note_on_c, 0, 80, 0
2, 34252, Note_on_c, 0, 44, 34
2, 34255, Note_on_c, 0, 82, 62
2, 34263, Control_c, 0, 64, 0
2, 34317, Control_c, 0, 64, 127
2, 34348, Note_on_c, 0, 54, 39
2, 34365, Note_on_c, 0, 44, 0
2, 34381, Note_on_c, 0, 54, 0
2, 34476, Note_on_c, 0, 60, 29
2, 34576, Note_on_c, 0, 72, 44
2, 34590, Note_on_c, 0, 65, 31
2, 34621, Note_on_c, 0, 72, 0
2, 34694, Note_on_c, 0, 60, 0
2, 34697, Note_on_c, 0, 73, 35
2, 34711, Note_on_c, 0, 55, 36
2, 34723, Control_c, 0, 64, 0
2, 34728, Note_on_c, 0, 82, 0
2, 34795, Control_c, 0, 64, 127
2, 34826, Note_on_c, 0, 61, 32
2, 34857, Note_on_c, 0, 65, 0
2, 34957, Note_on_c, 0, 82, 34
2, 35057, Note_on_c, 0, 82, 0
2, 35068, Note_on_c, 0, 78, 44
2, 35139, Note_on_c, 0, 78, 0
2, 35139, Note_on_c, 0, 73, 0
2, 35147, Note_on_c, 0, 61, 0
2, 35148, Note_on_c, 0, 55, 0
2, 35157, Note_on_c, 0, 79, 58
2, 35229, Note_on_c, 0, 73, 49
2, 35243, Note_on_c, 0, 79, 0
2, 35321, Note_on_c, 0, 73, 0
2, 35326, Note_on_c, 0, 72, 36
2, 35349, Note_on_c, 0, 58, 14
2, 35357, Note_on_c, 0, 48, 9
2, 35385, Control_c, 0, 64, 0
2, 35420, Note_on_c, 0, 75, 55
2, 35421, Note_on_c, 0, 72, 0
2, 35507, Control_c, 0, 64, 127
2, 35516, Note_on_c, 0, 70, 50
2, 35546, Note_on_c, 0, 75, 0
2, 35588, Note_on_c, 0, 70, 0
2, 35603, Note_on_c, 0, 64, 40
2, 35635, Note_on_c, 0, 58, 0
2, 35649, Note_on_c, 0, 48, 0
2, 35685, Note_on_c, 0, 64, 0
2, 35700, Note_on_c, 0, 61, 36
2, 35780, Control_c, 0, 64, 0
2, 35809, Note_on_c, 0, 60, 44
2, 35809, Note_on_c, 0, 48, 32
2, 35810, Note_on_c, 0, 61, 0
2, 35821, Control_c, 0, 64, 127
2, 35932, Note_on_c, 0, 60, 0
2, 35950, Note_on_c, 0, 58, 39
2, 35960, Note_on_c, 0, 36, 27
2, 35983, Note_on_c, 0, 36, 0
2, 36027, Note_on_c, 0, 48, 0
2, 36113, Note_on_c, 0, 56, 33
2, 36180, Note_on_c, 0, 58, 0
2, 36219, Note_on_c, 0, 56, 0
2, 36305, Note_on_c, 0, 51, 29
2, 36309, Control_c, 0, 64, 0
2, 36310, Note_on_c, 0, 58, 38
2, 36311, Note_on_c, 0, 56, 20
2, 36316, Note_on_c, 0, 41, 34
2, 36373, Control_c, 0, 64, 127
2, 36429, Note_on_c, 0, 56, 0
2, 36433, Note_on_c, 0, 51, 0
2, 36438, Note_on_c, 0, 58, 0
2, 36447, Note_on_c, 0, 48, 34
2, 36622, Note_on_c, 0, 70, 46
2, 36625, Note_on_c, 0, 55, 34
2, 36626, Note_on_c, 0, 63, 35
2, 36630, Note_on_c, 0, 56, 27
2, 36650, Control_c, 0, 64, 0
2, 36711, Control_c, 0, 64, 127
2, 36879, Note_on_c, 0, 41, 0
2, 36888, Note_on_c, 0, 70, 0
2, 36891, Note_on_c, 0, 48, 0
2, 36901, Note_on_c, 0, 55, 0
2, 36904, Note_on_c, 0, 56, 0
2, 36913, Note_on_c, 0, 68, 46
2, 37004, Note_on_c, 0, 63, 0
2, 37041, Note_on_c, 0, 68, 0
2, 37207, Note_on_c, 0, 44, 33
2, 37208, Note_on_c, 0, 71, 25
2, 37215, Note_on_c, 0, 54, 21
2, 37215, Control_c, 0, 64, 0
2, 37216, Note_on_c, 0, 59, 30
2, 37219, Note_on_c, 0, 63, 23
2, 37241, Note_on_c, 0, 63, 0
2, 37242, Note_on_c, 0, 59, 0
2, 37243, Note_on_c, 0, 54, 0
2, 37250, Note_on_c, 0, 44, 0
2, 37264, Note_on_c, 0, 71, 0
2, 37393, Note_on_c, 0, 71, 28
2, 37395, Note_on_c, 0, 44, 23
2, 37396, Note_on_c, 0, 63, 28
2, 37397, Note_on_c, 0, 54, 19
2, 37401, Note_on_c, 0, 59, 31
2, 37427, Note_on_c, 0, 59, 0
2, 37432, Note_on_c, 0, 63, 0
2, 37444, Note_on_c, 0, 44, 0
2, 37449, Note_on_c, 0, 71, 0
2, 37452, Note_on_c, 0, 54, 0
2, 37574, Note_on_c, 0, 71, 36
2, 37578, Note_on_c, 0, 63, 29
2, 37580, Note_on_c, 0, 54, 31
2, 37582, Note_on_c, 0, 44, 26
2, 37585, Note_on_c, 0, 59, 34
2, 37591, Control_c, 0, 64, 127
2, 37779, Note_on_c, 0, 71, 0
2, 37822, Note_on_c, 0, 71, 33
2, 37891, Note_on_c, 0, 44, 0
2, 37909, Note_on_c, 0, 54, 0
2, 37912, Note_on_c, 0, 59, 0
2, 38374, Note_on_c, 0, 63, 0
2, 38438, Note_on_c, 0, 71, 0
2, 38479, Note_on_c, 0, 47, 38
2, 38484, Note_on_c, 0, 62, 43
2, 38487, Control_c, 0, 64, 0
2, 38525, Control_c, 0, 64, 127
2, 38544, Note_on_c, 0, 62, 0
2, 38587, Note_on_c, 0, 47, 0
2, 38590, Note_on_c, 0, 57, 51
2, 38606, Note_on_c, 0, 57, 0
2, 38695, Note_on_c, 0, 74, 66
2, 38700, Note_on_c, 0, 62, 53
2, 38800, Note_on_c, 0, 66, 43
2, 38805, Note_on_c, 0, 78, 60
2, 38849, Note_on_c, 0, 74, 0
2, 38852, Note_on_c, 0, 62, 0
2, 38871, Note_on_c, 0, 66, 0
2, 39098, Note_on_c, 0, 78, 0
2, 39267, Note_on_c, 0, 85, 45
2, 39267, Note_on_c, 0, 73, 40
2, 39279, Note_on_c, 0, 66, 34
2, 39281, Note_on_c, 0, 62, 44
2, 39283, Note_on_c, 0, 85, 0
2, 39286, Note_on_c, 0, 56, 32
2, 39293, Note_on_c, 0, 86, 51
2, 39296, Note_on_c, 0, 73, 0
2, 39302, Control_c, 0, 64, 0
2, 39302, Note_on_c, 0, 79, 12
2, 39303, Note_on_c, 0, 74, 48
2, 39384, Control_c, 0, 64, 127
2, 39508, Note_on_c, 0, 86, 0
2, 39584, Note_on_c, 0, 86, 67
2, 39586, Note_on_c, 0, 66, 0
2, 39599, Note_on_c, 0, 62, 0
2, 39620, Note_on_c, 0, 56, 0
2, 39751, Note_on_c, 0, 86, 0
2, 39812, Note_on_c, 0, 86, 55
2, 39814, Note_on_c, 0, 34, 40
2, 39897, Note_on_c, 0, 34, 0
2, 39991, Note_on_c, 0, 86, 0
2, 40110, Note_on_c, 0, 86, 50
2, 40214, Note_on_c, 0, 79, 0
2, 40231, Note_on_c, 0, 86, 0
2, 40264, Note_on_c, 0, 74, 0
2, 40598, Note_on_c, 0, 77, 64
2, 40599, Note_on_c, 0, 69, 71
2, 40604, Note_on_c, 0, 66, 53
2, 40604, Note_on_c, 0, 59, 49
2, 40605, Note_on_c, 0, 74, 54
2, 40606, Note_on_c, 0, 51, 46
2, 40615, Control_c, 0, 64, 0
2, 40659, Control_c, 0, 64, 127
2, 40693, Note_on_c, 0, 69, 0
2, 40704, Note_on_c, 0, 74, 0
2, 40739, Note_on_c, 0, 66, 0
2, 40744, Note_on_c, 0, 77, 0
2, 40781, Note_on_c, 0, 59, 0
2, 40788, Note_on_c, 0, 75, 65
2, 40796, Note_on_c, 0, 60, 52
2, 40797, Note_on_c, 0, 67, 64
2, 40800, Note_on_c, 0, 73, 46
2, 40813, Control_c, 0, 64, 0
2, 40881, Control_c, 0, 64, 127
2, 41025, Note_on_c, 0, 75, 0
2, 41074, Note_on_c, 0, 60, 0
2, 41084, Note_on_c, 0, 73, 0
2, 41092, Note_on_c, 0, 67, 0
2, 41097, Note_on_c, 0, 51, 0
2, 41447, Note_on_c, 0, 75, 51
2, 42226, Note_on_c, 0, 75, 0
2, 42832, Note_on_c, 0, 67, 36
2, 42836, Note_on_c, 0, 56, 21
2, 42836, Note_on_c, 0, 31, 32
2, 42838, Note_on_c, 0, 43, 24
2, 42838, Note_on_c, 0, 62, 32
2, 42838, Note_on_c, 0, 60, 47
2, 42842, Control_c, 0, 64, 0
2, 42910, Control_c, 0, 64, 127
2, 42936, Note_on_c, 0, 56, 0
2, 42937, Note_on_c, 0, 60, 0
2, 42944, Note_on_c, 0, 62, 0
2, 42956, Note_on_c, 0, 67, 0
2, 42957, Note_on_c, 0, 31, 0
2, 42979, Note_on_c, 0, 43, 0
2, 43109, Note_on_c, 0, 79, 46
2, 43113, Note_on_c, 0, 67, 36
2, 43133, Note_on_c, 0, 67, 0
2, 43155, Note_on_c, 0, 79, 0
2, 43318, Note_on_c, 0, 91, 39
2, 43324, Note_on_c, 0, 79, 33
2, 43330, Note_on_c, 0, 67, 31
2, 43363, Note_on_c, 0, 79, 0
2, 43372, Note_on_c, 0, 67, 0
2, 43388, Note_on_c, 0, 91, 0
2, 43563, Note_on_c, 0, 79, 33
2, 43569, Note_on_c, 0, 103, 31
2, 43571, Note_on_c, 0, 91, 25
2, 43760, Note_on_c, 0, 79, 0
2, 43833, Note_on_c, 0, 91, 0
2, 43835, Note_on_c, 0, 103, 0
2, 44068, Note_on_c, 0, 104, 34
2, 44074, Note_on_c, 0, 43, 27
2, 44078, Note_on_c, 0, 92, 25
2, 44080, Control_c, 0, 64, 0
2, 44082, Note_on_c, 0, 55, 24
2, 44114, Control_c, 0, 64, 127
2, 44213, Note_on_c, 0, 55, 0
2, 44239, Note_on_c, 0, 92, 0
2, 44240, Note_on_c, 0, 43, 0
2, 44247, Note_on_c, 0, 104, 0
2, 44450, Note_on_c, 0, 31, 26
2, 44525, Note_on_c, 0, 31, 0
2, 44861, Control_c, 0, 64, 0
2, 44884, Note_on_c, 0, 67, 61
2, 44908, Note_on_c, 0, 67, 0
2, 44962, Note_on_c, 0, 69, 55
2, 44983, Note_on_c, 0, 69, 0
2, 45009, Note_on_c, 0, 70, 32
2, 45051, Note_on_c, 0, 70, 0
2, 45120, Note_on_c, 0, 74, 68
2, 45196, Note_on_c, 0, 74, 0
2, 45240, Note_on_c, 0, 72, 40
2, 45311, Note_on_c, 0, 72, 0
2, 45357, Note_on_c, 0, 75, 47
2, 45434, Note_on_c, 0, 75, 0
2, 45853, Note_on_c, 0, 73, 83
2, 45914, Note_on_c, 0, 73, 0
2, 45920, Note_on_c, 0, 74, 60
2, 45984, Note_on_c, 0, 74, 0
2, 46087, Note_on_c, 0, 70, 38
2, 46188, Note_on_c, 0, 70, 0
2, 46206, Note_on_c, 0, 67, 36
2, 46277, Note_on_c, 0, 67, 0
2, 46280, Note_on_c, 0, 68, 36
2, 46316, Note_on_c, 0, 68, 0
2, 46328, Note_on_c, 0, 70, 37
2, 46432, Note_on_c, 0, 70, 0
2, 46679, Note_on_c, 0, 67, 52
2, 46687, Note_on_c, 0, 55, 42
2, 46738, Note_on_c, 0, 55, 0
2, 46747, Note_on_c, 0, 67, 0
2, 46755, Note_on_c, 0, 66, 29
2, 46766, Note_on_c, 0, 54, 23
2, 46779, Note_on_c, 0, 66, 0
2, 46795, Note_on_c, 0, 54, 0
2, 46799, Note_on_c, 0, 55, 37
2, 46802, Note_on_c, 0, 67, 30
2, 46836, Note_on_c, 0, 55, 0
2, 46865, Note_on_c, 0, 67, 0
2, 46879, Note_on_c, 0, 68, 51
2, 46890, Note_on_c, 0, 56, 29
2, 46907, Note_on_c, 0, 68, 0
2, 46926, Note_on_c, 0, 70, 37
2, 46964, Note_on_c, 0, 56, 0
2, 46983, Note_on_c, 0, 70, 0
2, 47040, Note_on_c, 0, 70, 47
2, 47046, Note_on_c, 0, 58, 37
2, 47219, Note_on_c, 0, 70, 0
2, 47229, Note_on_c, 0, 68, 37
2, 47230, Note_on_c, 0, 58, 0
2, 47238, Note_on_c, 0, 56, 25
2, 47252, Note_on_c, 0, 68, 0
2, 47287, Note_on_c, 0, 70, 40
2, 47288, Note_on_c, 0, 56, 0
2, 47315, Note_on_c, 0, 71, 58
2, 47317, Note_on_c, 0, 59, 32
2, 47328, Note_on_c, 0, 70, 0
2, 47358, Note_on_c, 0, 59, 0
2, 47376, Note_on_c, 0, 71, 0
2, 47409, Note_on_c, 0, 71, 57
2, 47417, Note_on_c, 0, 59, 40
2, 47542, Note_on_c, 0, 71, 0
2, 47552, Note_on_c, 0, 59, 0
2, 47647, Note_on_c, 0, 62, 54
2, 47650, Note_on_c, 0, 50, 33
2, 47693, Note_on_c, 0, 62, 0
2, 47705, Note_on_c, 0, 50, 0
2, 47717, Note_on_c, 0, 63, 21
2, 47735, Note_on_c, 0, 62, 44
2, 47737, Note_on_c, 0, 63, 0
2, 47738, Note_on_c, 0, 49, 23
2, 47748, Note_on_c, 0, 49, 0
2, 47750, Note_on_c, 0, 62, 0
2, 47755, Note_on_c, 0, 61, 43
2, 47766, Note_on_c, 0, 61, 0
2, 47768, Note_on_c, 0, 50, 37
2, 47780, Note_on_c, 0, 62, 58
2, 47914, Note_on_c, 0, 50, 0
2, 47956, Note_on_c, 0, 63, 50
2, 47971, Note_on_c, 0, 62, 0
2, 47982, Note_on_c, 0, 63, 0
2, 47983, Note_on_c, 0, 64, 60
2, 47988, Note_on_c, 0, 52, 31
2, 48000, Note_on_c, 0, 52, 0
2, 48009, Note_on_c, 0, 64, 0
2, 48017, Note_on_c, 0, 53, 42
2, 48019, Note_on_c, 0, 65, 62
2, 48222, Note_on_c, 0, 65, 0
2, 48234, Note_on_c, 0, 53, 0
2, 48238, Note_on_c, 0, 51, 32
2, 48243, Note_on_c, 0, 63, 28
2, 48308, Note_on_c, 0, 51, 0
2, 48309, Note_on_c, 0, 63, 0
2, 48329, Note_on_c, 0, 62, 20
2, 48352, Note_on_c, 0, 62, 0
2, 48354, Note_on_c, 0, 51, 42
2, 48359, Note_on_c, 0, 63, 44
2, 48423, Note_on_c, 0, 51, 0
2, 48430, Note_on_c, 0, 63, 0
2, 48603, Note_on_c, 0, 67, 103
2, 48606, Note_on_c, 0, 55, 85
2, 48650, Note_on_c, 0, 55, 0
2, 48656, Note_on_c, 0, 67, 0
2, 48680, Note_on_c, 0, 55, 63
2, 48680, Note_on_c, 0, 67, 70
2, 48723, Note_on_c, 0, 67, 0
2, 48725, Note_on_c, 0, 55, 0
2, 48790, Note_on_c, 0, 69, 74
2, 48794, Note_on_c, 0, 57, 70
2, 48827, Note_on_c, 0, 69, 0
2, 48834, Note_on_c, 0, 57, 0
2, 48850, Note_on_c, 0, 69, 64
2, 48852, Note_on_c, 0, 57, 49
2, 48907, Note_on_c, 0, 69, 0
2, 48919, Note_on_c, 0, 57, 0
2, 48961, Note_on_c, 0, 71, 75
2, 48966, Note_on_c, 0, 59, 44
2, 49009, Note_on_c, 0, 71, 0
2, 49017, Note_on_c, 0, 59, 0
2, 49029, Note_on_c, 0, 71, 70
2, 49036, Note_on_c, 0, 59, 29
2, 49054, Note_on_c, 0, 71, 0
2, 49072, Note_on_c, 0, 59, 0
2, 49074, Note_on_c, 0, 74, 74
2, 49075, Note_on_c, 0, 62, 62
2, 49160, Note_on_c, 0, 74, 0
2, 49183, Note_on_c, 0, 62, 0
2, 49197, Note_on_c, 0, 72, 46
2, 49201, Note_on_c, 0, 60, 32
2, 49256, Note_on_c, 0, 72, 0
2, 49269, Note_on_c, 0, 60, 0
2, 49279, Note_on_c, 0, 75, 53
2, 49285, Note_on_c, 0, 63, 52
2, 49640, Note_on_c, 0, 75, 0
2, 49647, Note_on_c, 0, 63, 0
2, 49682, Note_on_c, 0, 74, 64
2, 49686, Note_on_c, 0, 62, 46
2, 49749, Note_on_c, 0, 74, 0
2, 49753, Note_on_c, 0, 62, 0
2, 49763, Note_on_c, 0, 61, 37
2, 49767, Note_on_c, 0, 73, 27
2, 49790, Note_on_c, 0, 73, 0
2, 49796, Note_on_c, 0, 61, 0
2, 49801, Note_on_c, 0, 74, 54
2, 49805, Note_on_c, 0, 62, 47
2, 49853, Note_on_c, 0, 74, 0
2, 49893, Note_on_c, 0, 62, 0
2, 49916, Note_on_c, 0, 70, 52
2, 49921, Note_on_c, 0, 58, 44
2, 49984, Note_on_c, 0, 58, 0
2, 49987, Note_on_c, 0, 70, 0
2, 50004, Note_on_c, 0, 67, 28
2, 50027, Note_on_c, 0, 67, 0
2, 50041, Note_on_c, 0, 70, 50
2, 50045, Note_on_c, 0, 58, 33
2, 50127, Note_on_c, 0, 58, 0
2, 50131, Note_on_c, 0, 70, 0
2, 50163, Note_on_c, 0, 70, 56
2, 50171, Note_on_c, 0, 58, 35
2, 50254, Note_on_c, 0, 70, 0
2, 50276, Note_on_c, 0, 58, 0
2, 50282, Note_on_c, 0, 55, 43
2, 50289, Note_on_c, 0, 67, 36
2, 50354, Note_on_c, 0, 67, 0
2, 50354, Note_on_c, 0, 55, 0
2, 50524, Note_on_c, 0, 67, 80
2, 50525, Note_on_c, 0, 55, 50
2, 50571, Note_on_c, 0, 55, 0
2, 50582, Note_on_c, 0, 67, 0
2, 50589, Note_on_c, 0, 66, 43
2, 50592, Note_on_c, 0, 54, 37
2, 50633, Note_on_c, 0, 54, 0
2, 50634, Note_on_c, 0, 66, 0
2, 50644, Note_on_c, 0, 67, 38
2, 50659, Note_on_c, 0, 55, 20
2, 50684, Note_on_c, 0, 67, 0
2, 50690, Note_on_c, 0, 55, 0
2, 50715, Note_on_c, 0, 68, 38
2, 50735, Note_on_c, 0, 68, 0
2, 50757, Note_on_c, 0, 70, 64
2, 50779, Note_on_c, 0, 58, 26
2, 50844, Note_on_c, 0, 58, 0
2, 50849, Note_on_c, 0, 70, 0
2, 50873, Note_on_c, 0, 70, 64
2, 50874, Note_on_c, 0, 58, 36
2, 51064, Note_on_c, 0, 70, 0
2, 51068, Note_on_c, 0, 58, 0
2, 51072, Note_on_c, 0, 68, 25
2, 51078, Note_on_c, 0, 56, 25
2, 51098, Note_on_c, 0, 68, 0
2, 51114, Note_on_c, 0, 56, 0
2, 51119, Note_on_c, 0, 71, 57
2, 51128, Note_on_c, 0, 59, 44
2, 51235, Note_on_c, 0, 59, 0
2, 51236, Note_on_c, 0, 73, 49
2, 51237, Note_on_c, 0, 61, 46
2, 51238, Note_on_c, 0, 71, 0
2, 51298, Note_on_c, 0, 73, 0
2, 51318, Note_on_c, 0, 71, 65
2, 51320, Note_on_c, 0, 61, 0
2, 51323, Note_on_c, 0, 59, 54
2, 51450, Note_on_c, 0, 71, 0
2, 51463, Note_on_c, 0, 59, 0
2, 51607, Note_on_c, 0, 50, 50
2, 51610, Note_on_c, 0, 62, 61
2, 51671, Note_on_c, 0, 62, 0
2, 51672, Note_on_c, 0, 50, 0
2, 51683, Note_on_c, 0, 61, 32
2, 51696, Note_on_c, 0, 49, 30
2, 51713, Note_on_c, 0, 61, 0
2, 51720, Note_on_c, 0, 49, 0
2, 51731, Note_on_c, 0, 50, 34
2, 51731, Note_on_c, 0, 62, 49
2, 51801, Note_on_c, 0, 62, 0
2, 51833, Note_on_c, 0, 50, 0
2, 51848, Note_on_c, 0, 65, 61
2, 51856, Note_on_c, 0, 53, 37
2, 52038, Note_on_c, 0, 53, 0
2, 52039, Note_on_c, 0, 65, 0
2, 52044, Note_on_c, 0, 62, 39
2, 52049, Note_on_c, 0, 50, 29
2, 52069, Note_on_c, 0, 50, 0
2, 52071, Note_on_c, 0, 62, 0
2, 52094, Note_on_c, 0, 63, 43
2, 52101, Note_on_c, 0, 51, 25
2, 52154, Note_on_c, 0, 51, 0
2, 52156, Note_on_c, 0, 63, 0
2, 52162, Note_on_c, 0, 65, 57
2, 52165, Note_on_c, 0, 53, 41
2, 52181, Note_on_c, 0, 53, 0
2, 52193, Note_on_c, 0, 65, 0
2, 52209, Note_on_c, 0, 51, 49
2, 52214, Note_on_c, 0, 63, 27
2, 52552, Note_on_c, 0, 63, 0
2, 52564, Note_on_c, 0, 51, 0
2, 52566, Note_on_c, 0, 62, 51
2, 52575, Note_on_c, 0, 50, 24
2, 52615, Note_on_c, 0, 62, 0
2, 52637, Note_on_c, 0, 63, 49
2, 52638, Note_on_c, 0, 50, 0
2, 52646, Note_on_c, 0, 51, 42
2, 52661, Note_on_c, 0, 63, 0
2, 52679, Note_on_c, 0, 51, 0
2, 52680, Note_on_c, 0, 65, 55
2, 52686, Note_on_c, 0, 53, 29
2, 52726, Note_on_c, 0, 65, 0
2, 52736, Note_on_c, 0, 53, 0
2, 52759, Note_on_c, 0, 49, 42
2, 52774, Note_on_c, 0, 61, 40
2, 52789, Note_on_c, 0, 61, 0
2, 52789, Note_on_c, 0, 49, 0
2, 52806, Note_on_c, 0, 62, 60
2, 52806, Note_on_c, 0, 50, 53
2, 52990, Note_on_c, 0, 62, 0
2, 52994, Note_on_c, 0, 50, 0
2, 53043, Note_on_c, 0, 50, 37
2, 53044, Note_on_c, 0, 62, 59
2, 53105, Note_on_c, 0, 50, 0
2, 53106, Note_on_c, 0, 62, 0
2, 53130, Note_on_c, 0, 49, 23
2, 53163, Note_on_c, 0, 62, 45
2, 53169, Note_on_c, 0, 49, 0
2, 53172, Note_on_c, 0, 50, 28
2, 53214, Note_on_c, 0, 50, 0
2, 53245, Note_on_c, 0, 63, 56
2, 53249, Note_on_c, 0, 51, 47
2, 53257, Note_on_c, 0, 62, 0
2, 53323, Note_on_c, 0, 51, 0
2, 53335, Note_on_c, 0, 63, 0
2, 53529, Note_on_c, 0, 72, 79
2, 53535, Note_on_c, 0, 60, 48
2, 53740, Note_on_c, 0, 60, 0
2, 53741, Note_on_c, 0, 72, 0
2, 53761, Note_on_c, 0, 75, 74
2, 53762, Note_on_c, 0, 63, 60
2, 53823, Note_on_c, 0, 63, 0
2, 53839, Note_on_c, 0, 75, 0
2, 53845, Note_on_c, 0, 72, 29
2, 53852, Note_on_c, 0, 60, 31
2, 53872, Note_on_c, 0, 60, 0
2, 53874, Note_on_c, 0, 72, 0
2, 53891, Note_on_c, 0, 73, 32
2, 53893, Note_on_c, 0, 61, 31
2, 53961, Note_on_c, 0, 61, 0
2, 53965, Note_on_c, 0, 73, 0
2, 53970, Note_on_c, 0, 74, 62
2, 53982, Note_on_c, 0, 62, 32
2, 54004, Note_on_c, 0, 74, 0
2, 54007, Note_on_c, 0, 62, 0
2, 54489, Note_on_c, 0, 74, 95
2, 54490, Note_on_c, 0, 62, 75
2, 54564, Note_on_c, 0, 75, 40
2, 54566, Note_on_c, 0, 63, 50
2, 54577, Note_on_c, 0, 62, 0
2, 54577, Note_on_c, 0, 74, 0
2, 54590, Note_on_c, 0, 63, 0
2, 54600, Note_on_c, 0, 75, 0
2, 54609, Note_on_c, 0, 76, 46
2, 54612, Note_on_c, 0, 64, 50
2, 54673, Note_on_c, 0, 76, 0
2, 54683, Note_on_c, 0, 77, 78
2, 54687, Note_on_c, 0, 64, 0
2, 54689, Note_on_c, 0, 65, 77
2, 54812, Note_on_c, 0, 65, 0
2, 54815, Note_on_c, 0, 77, 0
2, 54839, Note_on_c, 0, 65, 37
2, 54840, Note_on_c, 0, 77, 60
2, 54893, Note_on_c, 0, 77, 0
2, 54895, Note_on_c, 0, 65, 0
2, 54918, Note_on_c, 0, 77, 57
2, 54921, Note_on_c, 0, 65, 44
2, 54946, Note_on_c, 0, 65, 0
2, 54957, Note_on_c, 0, 65, 24
2, 55005, Note_on_c, 0, 77, 0
2, 55010, Note_on_c, 0, 65, 0
2, 55038, Note_on_c, 0, 77, 55
2, 55040, Note_on_c, 0, 65, 31
2, 55115, Note_on_c, 0, 77, 0
2, 55146, Note_on_c, 0, 65, 0
2, 55151, Note_on_c, 0, 80, 69
2, 55154, Note_on_c, 0, 68, 56
2, 55437, Note_on_c, 0, 80, 0
2, 55438, Note_on_c, 0, 68, 0
2, 55442, Note_on_c, 0, 77, 56
2, 55452, Note_on_c, 0, 65, 38
2, 55677, Note_on_c, 0, 77, 0
2, 55684, Note_on_c, 0, 65, 0
2, 55689, Note_on_c, 0, 84, 84
2, 55691, Note_on_c, 0, 72, 60
2, 55855, Note_on_c, 0, 84, 0
2, 55887, Note_on_c, 0, 72, 0
2, 55887, Note_on_c, 0, 82, 35
2, 55891, Note_on_c, 0, 70, 35
2, 55920, Note_on_c, 0, 82, 0
2, 55926, Note_on_c, 0, 70, 0
2, 55930, Note_on_c, 0, 83, 57
2, 55934, Note_on_c, 0, 71, 49
2, 56000, Note_on_c, 0, 83, 0
2, 56016, Note_on_c, 0, 71, 0
2, 56284, Note_on_c, 0, 65, 46
2, 56287, Note_on_c, 0, 67, 55
2, 56477, Note_on_c, 0, 69, 57
2, 56481, Note_on_c, 0, 63, 31
2, 56486, Note_on_c, 0, 65, 0
2, 56495, Note_on_c, 0, 67, 0
2, 56558, Note_on_c, 0, 69, 0
2, 56561, Note_on_c, 0, 61, 44
2, 56565, Note_on_c, 0, 63, 0
2, 56565, Note_on_c, 0, 71, 58
2, 56617, Note_on_c, 0, 71, 0
2, 56653, Note_on_c, 0, 61, 0
2, 56657, Note_on_c, 0, 74, 69
2, 56666, Note_on_c, 0, 60, 44
2, 56724, Note_on_c, 0, 60, 0
2, 56733, Note_on_c, 0, 74, 0
2, 56831, Note_on_c, 0, 72, 49
2, 56858, Note_on_c, 0, 72, 0
2, 56890, Note_on_c, 0, 75, 56
2, 57006, Note_on_c, 0, 54, 34
2, 57056, Note_on_c, 0, 54, 0
2, 57088, Note_on_c, 0, 75, 0
2, 57237, Note_on_c, 0, 63, 18
2, 57295, Note_on_c, 0, 63, 0
2, 57352, Note_on_c, 0, 74, 74
2, 57410, Note_on_c, 0, 74, 0
2, 57483, Note_on_c, 0, 53, 32
2, 57526, Note_on_c, 0, 53, 0
2, 57604, Note_on_c, 0, 70, 62
2, 57666, Note_on_c, 0, 70, 0
2, 57677, Note_on_c, 0, 67, 52
2, 57702, Note_on_c, 0, 67, 0
2, 57705, Note_on_c, 0, 55, 31
2, 57706, Note_on_c, 0, 46, 23
2, 57725, Note_on_c, 0, 68, 37
2, 57733, Note_on_c, 0, 46, 0
2, 57735, Note_on_c, 0, 55, 0
2, 57818, Note_on_c, 0, 68, 0
2, 57842, Note_on_c, 0, 70, 44
2, 57931, Note_on_c, 0, 54, 40
2, 57938, Note_on_c, 0, 44, 46
2, 57964, Note_on_c, 0, 54, 0
2, 57967, Note_on_c, 0, 44, 0
2, 58162, Note_on_c, 0, 53, 57
2, 58167, Note_on_c, 0, 43, 41
2, 58173, Note_on_c, 0, 53, 0
2, 58179, Note_on_c, 0, 43, 0
2, 58196, Note_on_c, 0, 70, 0
2, 58203, Note_on_c, 0, 67, 51
2, 58258, Note_on_c, 0, 67, 0
2, 58276, Note_on_c, 0, 68, 55
2, 58307, Note_on_c, 0, 68, 0
2, 58323, Note_on_c, 0, 70, 83
2, 58374, Note_on_c, 0, 70, 0
2, 58388, Note_on_c, 0, 72, 67
2, 58393, Note_on_c, 0, 58, 60
2, 58396, Note_on_c, 0, 48, 57
2, 58406, Note_on_c, 0, 48, 0
2, 58417, Note_on_c, 0, 58, 0
2, 58424, Note_on_c, 0, 72, 0
2, 58439, Note_on_c, 0, 70, 49
2, 58513, Note_on_c, 0, 70, 0
2, 58560, Note_on_c, 0, 70, 53
2, 58623, Note_on_c, 0, 70, 0
2, 58675, Note_on_c, 0, 68, 44
2, 58675, Note_on_c, 0, 53, 24
2, 58677, Note_on_c, 0, 56, 31
2, 58682, Note_on_c, 0, 60, 33
2, 58701, Note_on_c, 0, 60, 0
2, 58707, Note_on_c, 0, 53, 0
2, 58722, Note_on_c, 0, 56, 0
2, 58727, Note_on_c, 0, 68, 0
2, 58802, Note_on_c, 0, 70, 73
2, 58867, Note_on_c, 0, 70, 0
2, 58869, Note_on_c, 0, 71, 62
2, 58896, Note_on_c, 0, 63, 25
2, 58900, Note_on_c, 0, 54, 28
2, 58901, Note_on_c, 0, 58, 42
2, 58902, Note_on_c, 0, 59, 42
2, 58909, Note_on_c, 0, 71, 0
2, 58968, Note_on_c, 0, 59, 0
2, 58984, Note_on_c, 0, 58, 0
2, 58987, Note_on_c, 0, 63, 0
2, 58988, Note_on_c, 0, 54, 0
2, 59111, Note_on_c, 0, 66, 46
2, 59115, Note_on_c, 0, 62, 48
2, 59117, Note_on_c, 0, 61, 34
2, 59120, Note_on_c, 0, 57, 32
2, 59142, Note_on_c, 0, 66, 0
2, 59147, Note_on_c, 0, 57, 0
2, 59151, Note_on_c, 0, 62, 0
2, 59155, Note_on_c, 0, 61, 0
2, 59228, Note_on_c, 0, 74, 87
2, 59271, Note_on_c, 0, 74, 0
2, 59286, Note_on_c, 0, 73, 32
2, 59339, Note_on_c, 0, 73, 0
2, 59350, Note_on_c, 0, 74, 57
2, 59365, Note_on_c, 0, 74, 0
2, 59382, Note_on_c, 0, 66, 33
2, 59395, Note_on_c, 0, 62, 29
2, 59395, Note_on_c, 0, 61, 19
2, 59396, Note_on_c, 0, 56, 23
2, 59466, Note_on_c, 0, 61, 0
2, 59479, Note_on_c, 0, 56, 0
2, 59481, Note_on_c, 0, 66, 0
2, 59490, Note_on_c, 0, 62, 0
2, 59510, Note_on_c, 0, 62, 11
2, 59517, Note_on_c, 0, 60, 37
2, 59518, Note_on_c, 0, 65, 24
2, 59524, Note_on_c, 0, 55, 52
2, 59617, Note_on_c, 0, 55, 0
2, 59617, Note_on_c, 0, 62, 0
2, 59622, Note_on_c, 0, 60, 0
2, 59624, Note_on_c, 0, 65, 0
2, 59718, Note_on_c, 0, 77, 82
2, 59760, Note_on_c, 0, 77, 0
2, 59772, Note_on_c, 0, 75, 54
2, 59842, Note_on_c, 0, 77, 67
2, 59844, Note_on_c, 0, 75, 0
2, 59851, Note_on_c, 0, 66, 45
2, 59855, Note_on_c, 0, 61, 46
2, 59859, Note_on_c, 0, 55, 39
2, 59867, Note_on_c, 0, 77, 0
2, 59948, Note_on_c, 0, 55, 0
2, 59978, Note_on_c, 0, 66, 0
2, 59985, Note_on_c, 0, 61, 0
2, 59999, Note_on_c, 0, 65, 44
2, 59999, Note_on_c, 0, 54, 39
2, 60002, Note_on_c, 0, 60, 53
2, 60130, Note_on_c, 0, 65, 0
2, 60135, Note_on_c, 0, 60, 0
2, 60174, Note_on_c, 0, 54, 0
2, 60186, Note_on_c, 0, 53, 39
2, 60189, Note_on_c, 0, 64, 31
2, 60196, Note_on_c, 0, 59, 45
2, 60357, Note_on_c, 0, 53, 0
2, 60358, Note_on_c, 0, 59, 0
2, 60369, Note_on_c, 0, 64, 0
2, 60468, Note_on_c, 0, 74, 101
2, 60523, Note_on_c, 0, 74, 0
2, 60549, Note_on_c, 0, 72, 27
2, 60574, Note_on_c, 0, 72, 0
2, 60590, Note_on_c, 0, 74, 68
2, 60665, Note_on_c, 0, 72, 49
2, 60678, Note_on_c, 0, 74, 0
2, 60703, Note_on_c, 0, 72, 0
2, 60725, Note_on_c, 0, 70, 27
2, 60945, Note_on_c, 0, 70, 0
2, 60950, Note_on_c, 0, 63, 39
2, 60952, Note_on_c, 0, 68, 59
2, 60953, Note_on_c, 0, 60, 45
2, 60956, Note_on_c, 0, 56, 36
2, 60964, Note_on_c, 0, 60, 0
2, 60966, Note_on_c, 0, 63, 0
2, 60980, Note_on_c, 0, 56, 0
2, 61025, Note_on_c, 0, 68, 0
2, 61036, Note_on_c, 0, 65, 24
2, 61059, Note_on_c, 0, 65, 0
2, 61080, Note_on_c, 0, 67, 44
2, 61142, Note_on_c, 0, 67, 0
2, 61156, Note_on_c, 0, 68, 72
2, 61161, Note_on_c, 0, 56, 62
2, 61161, Note_on_c, 0, 46, 56
2, 61178, Note_on_c, 0, 56, 0
2, 61185, Note_on_c, 0, 46, 0
2, 61199, Note_on_c, 0, 68, 0
2, 61216, Note_on_c, 0, 67, 50
2, 61272, Note_on_c, 0, 67, 0
2, 61277, Note_on_c, 0, 65, 63
2, 61309, Note_on_c, 0, 65, 0
2, 61331, Note_on_c, 0, 63, 26
2, 61392, Note_on_c, 0, 63, 0
2, 61405, Note_on_c, 0, 62, 49
2, 61426, Note_on_c, 0, 58, 18
2, 61433, Note_on_c, 0, 62, 0
2, 61436, Note_on_c, 0, 58, 0
2, 61445, Note_on_c, 0, 65, 80
2, 61512, Note_on_c, 0, 65, 0
2, 61575, Note_on_c, 0, 63, 39
2, 61625, Note_on_c, 0, 63, 0
2, 61643, Note_on_c, 0, 65, 68
2, 61649, Note_on_c, 0, 60, 48
2, 61650, Note_on_c, 0, 54, 34
2, 61662, Note_on_c, 0, 60, 0
2, 61678, Note_on_c, 0, 54, 0
2, 61688, Note_on_c, 0, 65, 0
2, 61702, Note_on_c, 0, 70, 37
2, 61739, Note_on_c, 0, 70, 0
2, 61760, Note_on_c, 0, 72, 58
2, 61769, Note_on_c, 0, 60, 48
2, 61770, Note_on_c, 0, 54, 30
2, 61783, Note_on_c, 0, 60, 0
2, 61799, Note_on_c, 0, 54, 0
2, 61800, Note_on_c, 0, 72, 0
2, 61811, Note_on_c, 0, 77, 70
2, 61864, Note_on_c, 0, 77, 0
2, 61875, Note_on_c, 0, 82, 83
2, 61876, Note_on_c, 0, 53, 72
2, 61877, Note_on_c, 0, 61, 77
2, 61878, Note_on_c, 0, 78, 51
2, 61878, Note_on_c, 0, 58, 69
2, 61890, Note_on_c, 0, 78, 0
2, 61893, Note_on_c, 0, 61, 0
2, 61896, Note_on_c, 0, 53, 0
2, 61908, Note_on_c, 0, 58, 0
2, 61925, Note_on_c, 0, 82, 0
2, 61939, Note_on_c, 0, 84, 74
2, 61940, Note_on_c, 0, 72, 62
2, 61971, Note_on_c, 0, 84, 0
2, 61979, Note_on_c, 0, 72, 0
2, 62006, Note_on_c, 0, 85, 83
2, 62008, Note_on_c, 0, 73, 35
2, 62012, Note_on_c, 0, 75, 40
2, 62012, Note_on_c, 0, 58, 47
2, 62024, Note_on_c, 0, 58, 0
2, 62027, Note_on_c, 0, 73, 0
2, 62030, Note_on_c, 0, 85, 0
2, 62032, Note_on_c, 0, 75, 0
2, 62060, Note_on_c, 0, 87, 78
2, 62060, Note_on_c, 0, 75, 60
2, 62098, Note_on_c, 0, 75, 0
2, 62098, Note_on_c, 0, 87, 0
2, 62120, Note_on_c, 0, 73, 40
2, 62121, Note_on_c, 0, 85, 47
2, 62124, Note_on_c, 0, 63, 39
2, 62124, Note_on_c, 0, 58, 46
2, 62128, Note_on_c, 0, 52, 34
2, 62135, Note_on_c, 0, 63, 0
2, 62147, Note_on_c, 0, 52, 0
2, 62160, Note_on_c, 0, 85, 0
2, 62166, Note_on_c, 0, 58, 0
2, 62168, Note_on_c, 0, 73, 0
2, 62182, Note_on_c, 0, 72, 27
2, 62185, Note_on_c, 0, 84, 29
2, 62254, Note_on_c, 0, 84, 0
2, 62272, Note_on_c, 0, 72, 0
2, 62281, Note_on_c, 0, 82, 60
2, 62368, Note_on_c, 0, 82, 0
2, 62409, Note_on_c, 0, 63, 33
2, 62411, Note_on_c, 0, 80, 71
2, 62411, Note_on_c, 0, 67, 38
2, 62418, Note_on_c, 0, 60, 36
2, 62424, Note_on_c, 0, 67, 0
2, 62431, Note_on_c, 0, 60, 0
2, 62437, Note_on_c, 0, 63, 0
2, 62461, Note_on_c, 0, 80, 0
2, 62479, Note_on_c, 0, 82, 45
2, 62498, Note_on_c, 0, 80, 34
2, 62516, Note_on_c, 0, 82, 0
2, 62529, Note_on_c, 0, 80, 0
2, 62532, Note_on_c, 0, 79, 34
2, 62586, Note_on_c, 0, 79, 0
2, 62602, Note_on_c, 0, 78, 44
2, 62614, Note_on_c, 0, 63, 29
2, 62621, Note_on_c, 0, 58, 25
2, 62626, Note_on_c, 0, 63, 0
2, 62640, Note_on_c, 0, 58, 0
2, 62666, Note_on_c, 0, 77, 47
2, 62667, Note_on_c, 0, 78, 0
2, 62715, Note_on_c, 0, 77, 0
2, 62726, Note_on_c, 0, 83, 75
2, 62765, Note_on_c, 0, 83, 0
2, 62784, Note_on_c, 0, 82, 53
2, 62844, Note_on_c, 0, 80, 51
2, 62882, Note_on_c, 0, 80, 0
2, 62886, Note_on_c, 0, 82, 0
2, 62893, Note_on_c, 0, 75, 38
2, 62961, Note_on_c, 0, 71, 46
2, 62981, Note_on_c, 0, 75, 0
2, 62992, Note_on_c, 0, 71, 0
2, 63009, Note_on_c, 0, 78, 80
2, 63081, Note_on_c, 0, 74, 60
2, 63123, Note_on_c, 0, 74, 0
2, 63127, Note_on_c, 0, 78, 0
2, 63146, Note_on_c, 0, 69, 32
2, 63175, Note_on_c, 0, 69, 0
2, 63199, Note_on_c, 0, 62, 42
2, 63213, Note_on_c, 0, 56, 21
2, 63240, Note_on_c, 0, 62, 0
2, 63247, Note_on_c, 0, 56, 0
2, 63354, Note_on_c, 0, 62, 53
2, 63355, Note_on_c, 0, 65, 47
2, 63356, Note_on_c, 0, 60, 52
2, 63358, Note_on_c, 0, 55, 48
2, 63359, Note_on_c, 0, 77, 94
2, 63373, Note_on_c, 0, 65, 0
2, 63375, Note_on_c, 0, 55, 0
2, 63379, Note_on_c, 0, 60, 0
2, 63382, Note_on_c, 0, 62, 0
2, 63429, Note_on_c, 0, 77, 0
2, 63434, Note_on_c, 0, 74, 50
2, 63482, Note_on_c, 0, 74, 0
2, 63497, Note_on_c, 0, 70, 18
2, 63566, Note_on_c, 0, 67, 45
2, 63580, Note_on_c, 0, 70, 0
2, 63612, Note_on_c, 0, 67, 0
2, 63683, Note_on_c, 0, 75, 83
2, 63684, Note_on_c, 0, 55, 80
2, 63684, Note_on_c, 0, 61, 64
2, 63685, Note_on_c, 0, 66, 72
2, 63724, Note_on_c, 0, 66, 0
2, 63742, Note_on_c, 0, 55, 0
2, 63746, Note_on_c, 0, 61, 0
2, 63809, Note_on_c, 0, 71, 38
2, 63815, Note_on_c, 0, 75, 0
2, 63832, Note_on_c, 0, 71, 0
2, 63855, Note_on_c, 0, 74, 82
2, 63856, Note_on_c, 0, 54, 62
2, 63856, Note_on_c, 0, 65, 71
2, 63857, Note_on_c, 0, 60, 66
2, 63955, Note_on_c, 0, 74, 0
2, 63968, Note_on_c, 0, 60, 0
2, 63970, Note_on_c, 0, 65, 0
2, 64002, Note_on_c, 0, 68, 9
2, 64013, Note_on_c, 0, 54, 0
2, 64028, Note_on_c, 0, 68, 0
2, 64044, Note_on_c, 0, 71, 85
2, 64047, Note_on_c, 0, 64, 78
2, 64049, Note_on_c, 0, 59, 73
2, 64050, Note_on_c, 0, 53, 66
2, 64074, Note_on_c, 0, 64, 0
2, 64087, Note_on_c, 0, 59, 0
2, 64094, Note_on_c, 0, 53, 0
2, 64161, Note_on_c, 0, 71, 0
2, 64161, Note_on_c, 0, 68, 77
2, 64206, Note_on_c, 0, 68, 0
2, 64209, Note_on_c, 0, 67, 48
2, 64214, Note_on_c, 0, 55, 35
2, 64217, Note_on_c, 0, 58, 48
2, 64229, Note_on_c, 0, 58, 0
2, 64233, Note_on_c, 0, 55, 0
2, 64268, Note_on_c, 0, 67, 0
2, 64281, Note_on_c, 0, 65, 65
2, 64317, Note_on_c, 0, 65, 0
2, 64346, Note_on_c, 0, 63, 23
2, 64403, Note_on_c, 0, 62, 39
2, 64421, Note_on_c, 0, 63, 0
2, 64426, Note_on_c, 0, 62, 0
2, 64445, Note_on_c, 0, 65, 64
2, 64506, Note_on_c, 0, 65, 0
2, 64525, Note_on_c, 0, 62, 33
2, 64552, Note_on_c, 0, 62, 0
2, 64565, Note_on_c, 0, 63, 47
2, 64672, Note_on_c, 0, 63, 0
2, 64918, Note_on_c, 0, 63, 38
2, 64920, Note_on_c, 0, 67, 39
2, 64925, Note_on_c, 0, 60, 40
2, 64942, Note_on_c, 0, 60, 0
2, 64945, Note_on_c, 0, 67, 0
2, 64952, Note_on_c, 0, 63, 0
2, 65043, Note_on_c, 0, 66, 40
2, 65048, Note_on_c, 0, 62, 41
2, 65051, Note_on_c, 0, 60, 38
2, 65053, Note_on_c, 0, 56, 31
2, 65186, Note_on_c, 0, 60, 0
2, 65205, Note_on_c, 0, 66, 0
2, 65212, Note_on_c, 0, 62, 0
2, 65220, Note_on_c, 0, 56, 0
2, 65236, Note_on_c, 0, 65, 57
2, 65238, Note_on_c, 0, 62, 51
2, 65238, Note_on_c, 0, 79, 80
2, 65245, Note_on_c, 0, 60, 48
2, 65250, Note_on_c, 0, 65, 0
2, 65269, Note_on_c, 0, 79, 0
2, 65277, Note_on_c, 0, 62, 0
2, 65279, Note_on_c, 0, 60, 0
2, 65297, Note_on_c, 0, 86, 90
2, 65320, Note_on_c, 0, 86, 0
2, 65357, Note_on_c, 0, 86, 96
2, 65387, Note_on_c, 0, 86, 0
2, 65404, Note_on_c, 0, 79, 56
2, 65430, Note_on_c, 0, 79, 0
2, 65472, Note_on_c, 0, 79, 66
2, 65494, Note_on_c, 0, 79, 0
2, 65523, Note_on_c, 0, 82, 55
2, 65539, Note_on_c, 0, 82, 0
2, 65591, Note_on_c, 0, 82, 64
2, 65598, Note_on_c, 0, 65, 48
2, 65605, Note_on_c, 0, 54, 23
2, 65610, Note_on_c, 0, 65, 0
2, 65611, Note_on_c, 0, 60, 24
2, 65620, Note_on_c, 0, 82, 0
2, 65624, Note_on_c, 0, 54, 0
2, 65625, Note_on_c, 0, 60, 0
2, 65638, Note_on_c, 0, 77, 48
2, 65702, Note_on_c, 0, 77, 0
2, 65756, Note_on_c, 0, 62, 39
2, 65759, Note_on_c, 0, 58, 42
2, 65764, Note_on_c, 0, 53, 33
2, 65769, Note_on_c, 0, 55, 26
2, 65792, Note_on_c, 0, 62, 0
2, 65793, Note_on_c, 0, 53, 0
2, 65798, Note_on_c, 0, 58, 0
2, 65799, Note_on_c, 0, 55, 0
2, 65892, Note_on_c, 0, 84, 80
2, 65911, Note_on_c, 0, 84, 0
2, 65916, Note_on_c, 0, 85, 49
2, 65940, Note_on_c, 0, 84, 42
2, 65944, Note_on_c, 0, 85, 0
2, 65975, Note_on_c, 0, 84, 0
2, 65976, Note_on_c, 0, 82, 50
2, 65984, Note_on_c, 0, 61, 33
2, 65995, Note_on_c, 0, 61, 0
2, 65997, Note_on_c, 0, 58, 20
2, 66004, Note_on_c, 0, 82, 0
2, 66015, Note_on_c, 0, 58, 0
2, 66024, Note_on_c, 0, 81, 47
2, 66075, Note_on_c, 0, 81, 0
2, 66089, Note_on_c, 0, 80, 62
2, 66134, Note_on_c, 0, 80, 0
2, 66146, Note_on_c, 0, 79, 48
2, 66201, Note_on_c, 0, 79, 0
2, 66206, Note_on_c, 0, 77, 62
2, 66208, Note_on_c, 0, 60, 53
2, 66209, Note_on_c, 0, 63, 42
2, 66214, Note_on_c, 0, 56, 32
2, 66218, Note_on_c, 0, 63, 0
2, 66219, Note_on_c, 0, 60, 0
2, 66247, Note_on_c, 0, 56, 0
2, 66248, Note_on_c, 0, 77, 0
2, 66265, Note_on_c, 0, 76, 43
2, 66314, Note_on_c, 0, 76, 0
2, 66321, Note_on_c, 0, 79, 73
2, 66363, Note_on_c, 0, 79, 0
2, 66380, Note_on_c, 0, 77, 20
2, 66432, Note_on_c, 0, 77, 0
2, 66443, Note_on_c, 0, 63, 48
2, 66444, Note_on_c, 0, 67, 58
2, 66444, Note_on_c, 0, 72, 39
2, 66453, Note_on_c, 0, 67, 0
2, 66456, Note_on_c, 0, 60, 30
2, 66470, Note_on_c, 0, 60, 0
2, 66473, Note_on_c, 0, 63, 0
2, 66480, Note_on_c, 0, 72, 0
2, 66564, Note_on_c, 0, 67, 50
2, 66578, Note_on_c, 0, 59, 28
2, 66589, Note_on_c, 0, 67, 0
2, 66591, Note_on_c, 0, 59, 0
2, 66685, Note_on_c, 0, 63, 53
2, 66686, Note_on_c, 0, 59, 54
2, 66689, Note_on_c, 0, 58, 33
2, 66692, Note_on_c, 0, 54, 23
2, 66697, Note_on_c, 0, 59, 0
2, 66698, Note_on_c, 0, 63, 0
2, 66701, Note_on_c, 0, 54, 0
2, 66702, Note_on_c, 0, 58, 0
2, 66802, Note_on_c, 0, 66, 56
2, 66811, Note_on_c, 0, 66, 0
2, 66812, Note_on_c, 0, 62, 32
2, 66825, Note_on_c, 0, 62, 0
2, 66847, Note_on_c, 0, 71, 54
2, 66897, Note_on_c, 0, 71, 0
2, 66914, Note_on_c, 0, 74, 80
2, 66924, Note_on_c, 0, 66, 51
2, 66934, Note_on_c, 0, 66, 0
2, 66943, Note_on_c, 0, 74, 0
2, 66963, Note_on_c, 0, 78, 74
2, 67013, Note_on_c, 0, 78, 0
2, 67027, Note_on_c, 0, 66, 69
2, 67031, Note_on_c, 0, 81, 70
2, 67033, Note_on_c, 0, 56, 42
2, 67034, Note_on_c, 0, 62, 47
2, 67048, Note_on_c, 0, 56, 0
2, 67049, Note_on_c, 0, 62, 0
2, 67051, Note_on_c, 0, 66, 0
2, 67063, Note_on_c, 0, 81, 0
2, 67085, Note_on_c, 0, 79, 73
2, 67158, Note_on_c, 0, 79, 0
2, 67193, Note_on_c, 0, 65, 37
2, 67195, Note_on_c, 0, 60, 62
2, 67196, Note_on_c, 0, 62, 37
2, 67200, Note_on_c, 0, 55, 30
2, 67294, Note_on_c, 0, 65, 0
2, 67306, Note_on_c, 0, 55, 0
2, 67313, Note_on_c, 0, 60, 0
2, 67315, Note_on_c, 0, 62, 0
2, 67319, Note_on_c, 0, 74, 118
2, 67369, Note_on_c, 0, 74, 0
2, 67387, Note_on_c, 0, 75, 68
2, 67396, Note_on_c, 0, 62, 38
2, 67407, Note_on_c, 0, 60, 22
2, 67416, Note_on_c, 0, 62, 0
2, 67421, Note_on_c, 0, 60, 0
2, 67421, Note_on_c, 0, 75, 0
2, 67438, Note_on_c, 0, 77, 64
2, 67494, Note_on_c, 0, 77, 0
2, 67509, Note_on_c, 0, 79, 67
2, 67540, Note_on_c, 0, 79, 0
2, 67561, Note_on_c, 0, 77, 55
2, 67655, Note_on_c, 0, 77, 0
2, 67679, Note_on_c, 0, 63, 55
2, 67683, Note_on_c, 0, 75, 73
2, 67684, Note_on_c, 0, 60, 51
2, 67689, Note_on_c, 0, 57, 38
2, 67696, Note_on_c, 0, 60, 0
2, 67699, Note_on_c, 0, 63, 0
2, 67702, Note_on_c, 0, 57, 0
2, 67738, Note_on_c, 0, 75, 0
2, 67754, Note_on_c, 0, 77, 58
2, 67791, Note_on_c, 0, 77, 0
2, 67801, Note_on_c, 0, 75, 51
2, 67858, Note_on_c, 0, 75, 0
2, 67879, Note_on_c, 0, 74, 40
2, 67881, Note_on_c, 0, 72, 35
2, 67882, Note_on_c, 0, 65, 46
2, 67883, Note_on_c, 0, 60, 58
2, 67889, Note_on_c, 0, 54, 21
2, 67892, Note_on_c, 0, 65, 0
2, 67898, Note_on_c, 0, 60, 0
2, 67898, Note_on_c, 0, 74, 0
2, 67902, Note_on_c, 0, 54, 0
2, 67906, Note_on_c, 0, 72, 0
2, 67935, Note_on_c, 0, 71, 44
2, 68029, Note_on_c, 0, 71, 0
2, 68038, Note_on_c, 0, 69, 59
2, 68106, Note_on_c, 0, 69, 0
2, 68115, Note_on_c, 0, 72, 62
2, 68127, Note_on_c, 0, 62, 45
2, 68131, Note_on_c, 0, 58, 31
2, 68135, Note_on_c, 0, 57, 24
2, 68137, Note_on_c, 0, 62, 0
2, 68141, Note_on_c, 0, 58, 0
2, 68145, Note_on_c, 0, 57, 0
2, 68155, Note_on_c, 0, 72, 0
2, 68172, Note_on_c, 0, 70, 56
2, 68266, Note_on_c, 0, 70, 0
2, 68278, Note_on_c, 0, 66, 44
2, 68370, Note_on_c, 0, 66, 0
2, 68399, Note_on_c, 0, 62, 38
2, 68405, Note_on_c, 0, 57, 31
2, 68407, Note_on_c, 0, 58, 26
2, 68415, Note_on_c, 0, 55, 25
2, 68465, Note_on_c, 0, 57, 0
2, 68467, Note_on_c, 0, 62, 0
2, 68469, Note_on_c, 0, 55, 0
2, 68473, Note_on_c, 0, 58, 0
2, 68770, Note_on_c, 0, 63, 38
2, 68778, Note_on_c, 0, 55, 47
2, 68780, Note_on_c, 0, 60, 30
2, 68780, Note_on_c, 0, 57, 41
2, 68799, Note_on_c, 0, 60, 0
2, 68809, Note_on_c, 0, 63, 0
2, 68810, Note_on_c, 0, 55, 0
2, 68819, Note_on_c, 0, 57, 0
2, 68853, Note_on_c, 0, 67, 58
2, 68867, Note_on_c, 0, 67, 0
2, 68899, Note_on_c, 0, 72, 81
2, 68943, Note_on_c, 0, 72, 0
2, 68966, Note_on_c, 0, 75, 85
2, 68969, Note_on_c, 0, 54, 68
2, 68969, Note_on_c, 0, 60, 73
2, 68969, Note_on_c, 0, 65, 74
2, 68973, Note_on_c, 0, 64, 64
2, 68983, Note_on_c, 0, 64, 0
2, 68988, Note_on_c, 0, 65, 0
2, 69002, Note_on_c, 0, 60, 0
2, 69004, Note_on_c, 0, 75, 0
2, 69025, Note_on_c, 0, 77, 85
2, 69027, Note_on_c, 0, 54, 0
2, 69067, Note_on_c, 0, 77, 0
2, 69084, Note_on_c, 0, 75, 75
2, 69126, Note_on_c, 0, 75, 0
2, 69140, Note_on_c, 0, 74, 63
2, 69187, Note_on_c, 0, 74, 0
2, 69207, Note_on_c, 0, 72, 50
2, 69238, Note_on_c, 0, 72, 0
2, 69255, Note_on_c, 0, 70, 36
2, 69320, Note_on_c, 0, 70, 0
2, 69322, Note_on_c, 0, 69, 53
2, 69344, Note_on_c, 0, 69, 0
2, 69365, Note_on_c, 0, 72, 66
2, 69447, Note_on_c, 0, 72, 0
2, 69451, Note_on_c, 0, 69, 33
2, 69467, Note_on_c, 0, 69, 0
2, 69491, Note_on_c, 0, 70, 42
2, 69595, Note_on_c, 0, 70, 0
2, 69601, Note_on_c, 0, 67, 33
2, 69606, Note_on_c, 0, 63, 26
2, 69610, Note_on_c, 0, 58, 25
2, 69611, Note_on_c, 0, 62, 36
2, 69672, Note_on_c, 0, 63, 0
2, 69693, Note_on_c, 0, 63, 19
2, 69707, Note_on_c, 0, 67, 0
2, 69728, Note_on_c, 0, 62, 0
2, 69734, Note_on_c, 0, 58, 0
2, 69734, Note_on_c, 0, 63, 0
2, 69737, Note_on_c, 0, 74, 35
2, 69738, Note_on_c, 0, 76, 35
2, 69750, Note_on_c, 0, 74, 0
2, 69751, Note_on_c, 0, 76, 0
2, 69774, Note_on_c, 0, 76, 14
2, 69777, Note_on_c, 0, 74, 25
2, 69799, Note_on_c, 0, 76, 0
2, 69801, Note_on_c, 0, 74, 0
2, 69812, Note_on_c, 0, 71, 54
2, 69817, Note_on_c, 0, 63, 23
2, 69834, Note_on_c, 0, 72, 50
2, 69837, Note_on_c, 0, 71, 0
2, 69839, Note_on_c, 0, 63, 0
2, 69870, Note_on_c, 0, 74, 47
2, 69886, Note_on_c, 0, 72, 0
2, 69886, Note_on_c, 0, 75, 51
2, 69895, Note_on_c, 0, 74, 0
2, 69904, Note_on_c, 0, 75, 0
2, 69918, Note_on_c, 0, 77, 63
2, 69921, Note_on_c, 0, 63, 42
2, 69923, Note_on_c, 0, 67, 36
2, 69934, Note_on_c, 0, 67, 0
2, 69937, Note_on_c, 0, 57, 28
2, 69943, Note_on_c, 0, 77, 0
2, 69943, Note_on_c, 0, 79, 40
2, 69951, Note_on_c, 0, 57, 0
2, 69958, Note_on_c, 0, 63, 0
2, 69989, Note_on_c, 0, 81, 13
2, 69994, Note_on_c, 0, 79, 0
2, 70006, Note_on_c, 0, 82, 45
2, 70022, Note_on_c, 0, 81, 0
2, 70031, Note_on_c, 0, 82, 0
2, 70032, Note_on_c, 0, 83, 57
2, 70062, Note_on_c, 0, 86, 75
2, 70063, Note_on_c, 0, 84, 72
2, 70065, Note_on_c, 0, 83, 0
2, 70071, Note_on_c, 0, 86, 0
2, 70072, Note_on_c, 0, 65, 37
2, 70079, Note_on_c, 0, 60, 28
2, 70083, Note_on_c, 0, 62, 14
2, 70085, Note_on_c, 0, 65, 0
2, 70095, Note_on_c, 0, 81, 68
2, 70104, Note_on_c, 0, 62, 0
2, 70105, Note_on_c, 0, 83, 31
2, 70107, Note_on_c, 0, 60, 0
2, 70118, Note_on_c, 0, 84, 0
2, 70135, Note_on_c, 0, 83, 0
2, 70149, Note_on_c, 0, 81, 0
2, 70159, Note_on_c, 0, 77, 74
2, 70193, Note_on_c, 0, 77, 0
2, 70211, Note_on_c, 0, 74, 37
2, 70276, Note_on_c, 0, 74, 0
2, 70281, Note_on_c, 0, 70, 58
2, 70288, Note_on_c, 0, 62, 34
2, 70288, Note_on_c, 0, 65, 24
2, 70297, Note_on_c, 0, 65, 0
2, 70312, Note_on_c, 0, 62, 0
2, 70328, Note_on_c, 0, 70, 0
2, 70338, Note_on_c, 0, 69, 25
2, 70381, Note_on_c, 0, 69, 0
2, 70393, Note_on_c, 0, 72, 67
2, 70406, Note_on_c, 0, 62, 36
2, 70416, Note_on_c, 0, 60, 24
2, 70419, Note_on_c, 0, 62, 0
2, 70427, Note_on_c, 0, 60, 0
2, 70432, Note_on_c, 0, 72, 0
2, 70448, Note_on_c, 0, 70, 49
2, 70511, Note_on_c, 0, 70, 0
2, 70517, Note_on_c, 0, 68, 60
2, 70522, Note_on_c, 0, 67, 48
2, 70524, Note_on_c, 0, 63, 39
2, 70534, Note_on_c, 0, 67, 0
2, 70551, Note_on_c, 0, 68, 0
2, 70560, Note_on_c, 0, 63, 0
2, 70566, Note_on_c, 0, 67, 56
2, 70621, Note_on_c, 0, 67, 0
2, 70638, Note_on_c, 0, 68, 45
2, 70654, Note_on_c, 0, 63, 25
2, 70657, Note_on_c, 0, 67, 48
2, 70667, Note_on_c, 0, 63, 0
2, 70675, Note_on_c, 0, 68, 0
2, 70687, Note_on_c, 0, 67, 0
2, 70695, Note_on_c, 0, 65, 33
2, 70751, Note_on_c, 0, 65, 0
2, 70767, Note_on_c, 0, 67, 62
2, 70770, Note_on_c, 0, 65, 49
2, 70776, Note_on_c, 0, 60, 34
2, 70784, Note_on_c, 0, 65, 0
2, 70796, Note_on_c, 0, 67, 0
2, 70800, Note_on_c, 0, 60, 0
2, 70822, Note_on_c, 0, 68, 42
2, 70881, Note_on_c, 0, 70, 69
2, 70881, Note_on_c, 0, 65, 58
2, 70883, Note_on_c, 0, 60, 54
2, 70883, Note_on_c, 0, 54, 35
2, 70884, Note_on_c, 0, 58, 39
2, 70895, Note_on_c, 0, 65, 0
2, 70898, Note_on_c, 0, 68, 0
2, 70907, Note_on_c, 0, 70, 0
2, 70911, Note_on_c, 0, 60, 0
2, 70918, Note_on_c, 0, 58, 0
2, 70920, Note_on_c, 0, 54, 0
2, 70931, Note_on_c, 0, 72, 40
2, 70997, Note_on_c, 0, 72, 0
2, 71000, Note_on_c, 0, 60, 60
2, 71003, Note_on_c, 0, 77, 64
2, 71003, Note_on_c, 0, 65, 40
2, 71014, Note_on_c, 0, 65, 0
2, 71023, Note_on_c, 0, 60, 0
2, 71032, Note_on_c, 0, 77, 0
2, 71047, Note_on_c, 0, 72, 67
2, 71048, Note_on_c, 0, 84, 77
2, 71050, Note_on_c, 0, 55, 62
2, 71051, Note_on_c, 0, 60, 62
2, 71051, Note_on_c, 0, 65, 64
2, 71055, Note_on_c, 0, 56, 54
2, 71330, Note_on_c, 0, 55, 0
2, 71343, Note_on_c, 0, 65, 0
2, 71343, Note_on_c, 0, 56, 0
2, 71358, Note_on_c, 0, 60, 0
2, 71379, Note_on_c, 0, 84, 0
2, 71397, Note_on_c, 0, 83, 63
2, 71399, Note_on_c, 0, 65, 57
2, 71405, Note_on_c, 0, 60, 34
2, 71408, Note_on_c, 0, 56, 30
2, 71413, Note_on_c, 0, 55, 32
2, 71420, Note_on_c, 0, 72, 0
2, 71430, Note_on_c, 0, 60, 0
2, 71433, Note_on_c, 0, 55, 0
2, 71434, Note_on_c, 0, 65, 0
2, 71447, Note_on_c, 0, 83, 0
2, 71458, Note_on_c, 0, 56, 0
2, 71523, Note_on_c, 0, 64, 75
2, 71524, Note_on_c, 0, 94, 90
2, 71525, Note_on_c, 0, 59, 70
2, 71526, Note_on_c, 0, 53, 68
2, 71563, Note_on_c, 0, 53, 0
2, 71565, Note_on_c, 0, 64, 0
2, 71568, Note_on_c, 0, 59, 0
2, 71591, Note_on_c, 0, 94, 0
2, 71712, Note_on_c, 0, 63, 69
2, 71713, Note_on_c, 0, 92, 84
2, 71715, Note_on_c, 0, 59, 53
2, 71716, Note_on_c, 0, 56, 38
2, 71726, Note_on_c, 0, 59, 0
2, 71730, Note_on_c, 0, 63, 0
2, 71751, Note_on_c, 0, 92, 0
2, 71757, Note_on_c, 0, 56, 0
2, 71773, Note_on_c, 0, 87, 45
2, 71830, Note_on_c, 0, 87, 0
2, 71833, Note_on_c, 0, 83, 64
2, 71845, Note_on_c, 0, 59, 35
2, 71857, Note_on_c, 0, 59, 0
2, 71869, Note_on_c, 0, 83, 0
2, 71962, Note_on_c, 0, 67, 36
2, 71965, Note_on_c, 0, 63, 34
2, 71968, Note_on_c, 0, 62, 29
2, 71973, Note_on_c, 0, 67, 0
2, 71984, Note_on_c, 0, 62, 0
2, 71985, Note_on_c, 0, 63, 0
2, 72003, Note_on_c, 0, 86, 83
2, 72051, Note_on_c, 0, 86, 0
2, 72079, Note_on_c, 0, 62, 36
2, 72103, Note_on_c, 0, 62, 0
2, 72121, Note_on_c, 0, 86, 88
2, 72121, Note_on_c, 0, 74, 74
2, 72176, Note_on_c, 0, 86, 0
2, 72179, Note_on_c, 0, 74, 0
2, 72204, Note_on_c, 0, 84, 41
2, 72216, Note_on_c, 0, 84, 0
2, 72243, Note_on_c, 0, 86, 80
2, 72246, Note_on_c, 0, 74, 68
2, 72305, Note_on_c, 0, 86, 0
2, 72313, Note_on_c, 0, 74, 0
2, 72358, Note_on_c, 0, 63, 50
2, 72362, Note_on_c, 0, 58, 40
2, 72364, Note_on_c, 0, 52, 43
2, 72423, Note_on_c, 0, 52, 0
2, 72428, Note_on_c, 0, 58, 0
2, 72437, Note_on_c, 0, 63, 0
2, 72559, Note_on_c, 0, 67, 66
2, 72562, Note_on_c, 0, 63, 49
2, 72562, Note_on_c, 0, 56, 39
2, 72565, Note_on_c, 0, 60, 49
2, 72584, Note_on_c, 0, 67, 0
2, 72595, Note_on_c, 0, 60, 0
2, 72599, Note_on_c, 0, 56, 0
2, 72601, Note_on_c, 0, 63, 0
2, 72694, Note_on_c, 0, 82, 23
2, 72703, Note_on_c, 0, 82, 0
2, 72724, Note_on_c, 0, 84, 89
2, 72724, Note_on_c, 0, 72, 84
2, 72734, Note_on_c, 0, 83, 36
2, 72746, Note_on_c, 0, 83, 0
2, 72772, Note_on_c, 0, 83, 27
2, 72777, Note_on_c, 0, 84, 0
2, 72784, Note_on_c, 0, 83, 0
2, 72784, Note_on_c, 0, 72, 0
2, 72837, Note_on_c, 0, 85, 83
2, 72839, Note_on_c, 0, 73, 76
2, 72839, Note_on_c, 0, 66, 74
2, 72841, Note_on_c, 0, 56, 64
2, 72842, Note_on_c, 0, 62, 65
2, 72883, Note_on_c, 0, 86, 51
2, 72890, Note_on_c, 0, 73, 0
2, 72890, Note_on_c, 0, 85, 0
2, 72891, Note_on_c, 0, 74, 66
2, 72906, Note_on_c, 0, 62, 0
2, 72911, Note_on_c, 0, 86, 0
2, 72916, Note_on_c, 0, 74, 0
2, 72924, Note_on_c, 0, 66, 0
2, 72942, Note_on_c, 0, 56, 0
2, 72964, Note_on_c, 0, 82, 57
2, 72967, Note_on_c, 0, 70, 62
2, 73014, Note_on_c, 0, 82, 0
2, 73024, Note_on_c, 0, 70, 0
2, 73084, Note_on_c, 0, 65, 41
2, 73085, Note_on_c, 0, 79, 58
2, 73086, Note_on_c, 0, 62, 41
2, 73087, Note_on_c, 0, 67, 55
2, 73088, Note_on_c, 0, 55, 38
2, 73089, Note_on_c, 0, 60, 43
2, 73109, Note_on_c, 0, 60, 0
2, 73112, Note_on_c, 0, 65, 0
2, 73114, Note_on_c, 0, 62, 0
2, 73137, Note_on_c, 0, 55, 0
2, 73143, Note_on_c, 0, 67, 0
2, 73146, Note_on_c, 0, 79, 0
2, 73198, Note_on_c, 0, 65, 55
2, 73200, Note_on_c, 0, 72, 53
2, 73200, Note_on_c, 0, 54, 42
2, 73205, Note_on_c, 0, 60, 49
2, 73255, Note_on_c, 0, 72, 0
2, 73282, Note_on_c, 0, 77, 70
2, 73312, Note_on_c, 0, 65, 0
2, 73314, Note_on_c, 0, 60, 0
2, 73318, Note_on_c, 0, 77, 0
2, 73348, Note_on_c, 0, 54, 0
2, 73403, Note_on_c, 0, 70, 85
2, 73409, Note_on_c, 0, 62, 59
2, 73411, Note_on_c, 0, 58, 48
2, 73413, Note_on_c, 0, 53, 44
2, 73429, Note_on_c, 0, 62, 0
2, 73431, Note_on_c, 0, 53, 0
2, 73441, Note_on_c, 0, 58, 0
2, 73500, Note_on_c, 0, 70, 0
2, 73520, Note_on_c, 0, 77, 71
2, 73524, Note_on_c, 0, 58, 47
2, 73543, Note_on_c, 0, 58, 0
2, 73557, Note_on_c, 0, 77, 0
2, 73573, Note_on_c, 0, 65, 41
2, 73664, Note_on_c, 0, 65, 0
2, 73678, Note_on_c, 0, 63, 64
2, 73740, Note_on_c, 0, 63, 0
2, 73755, Note_on_c, 0, 65, 60
2, 73755, Note_on_c, 0, 64, 58
2, 73762, Note_on_c, 0, 58, 34
2, 73774, Note_on_c, 0, 58, 0
2, 73778, Note_on_c, 0, 65, 0
2, 73785, Note_on_c, 0, 64, 0
2, 73814, Note_on_c, 0, 61, 17
2, 73869, Note_on_c, 0, 60, 80
2, 73871, Note_on_c, 0, 41, 59
2, 73873, Note_on_c, 0, 61, 0
2, 73897, Note_on_c, 0, 41, 0
2, 73902, Note_on_c, 0, 60, 0
2, 73944, Note_on_c, 0, 58, 7
2, 74008, Note_on_c, 0, 55, 39
2, 74010, Note_on_c, 0, 58, 0
2, 74026, Note_on_c, 0, 55, 0
2, 74052, Note_on_c, 0, 56, 35
2, 74123, Note_on_c, 0, 58, 44
2, 74133, Note_on_c, 0, 56, 0
2, 74156, Note_on_c, 0, 44, 35
2, 74158, Note_on_c, 0, 54, 25
2, 74160, Note_on_c, 0, 58, 0
2, 74174, Note_on_c, 0, 59, 43
2, 74178, Note_on_c, 0, 54, 0
2, 74191, Note_on_c, 0, 44, 0
2, 74224, Note_on_c, 0, 59, 0
2, 74360, Note_on_c, 0, 63, 56
2, 74363, Note_on_c, 0, 66, 70
2, 74368, Note_on_c, 0, 54, 30
2, 74373, Note_on_c, 0, 59, 34
2, 74378, Note_on_c, 0, 58, 21
2, 74382, Note_on_c, 0, 63, 0
2, 74388, Note_on_c, 0, 59, 0
2, 74389, Note_on_c, 0, 66, 0
2, 74393, Note_on_c, 0, 54, 0
2, 74406, Note_on_c, 0, 58, 0
2, 74417, Note_on_c, 0, 70, 61
2, 74471, Note_on_c, 0, 70, 0
2, 74503, Note_on_c, 0, 68, 25
2, 74514, Note_on_c, 0, 68, 0
2, 74531, Note_on_c, 0, 70, 71
2, 74593, Note_on_c, 0, 70, 0
2, 74601, Note_on_c, 0, 68, 63
2, 74611, Note_on_c, 0, 61, 31
2, 74638, Note_on_c, 0, 68, 0
2, 74651, Note_on_c, 0, 61, 0
2, 74668, Note_on_c, 0, 66, 36
2, 74729, Note_on_c, 0, 66, 0
2, 74730, Note_on_c, 0, 61, 25
2, 74735, Note_on_c, 0, 62, 18
2, 74747, Note_on_c, 0, 62, 0
2, 74758, Note_on_c, 0, 66, 47
2, 74761, Note_on_c, 0, 61, 0
2, 74825, Note_on_c, 0, 66, 0
2, 74842, Note_on_c, 0, 62, 33
2, 74847, Note_on_c, 0, 60, 40
2, 74848, Note_on_c, 0, 65, 61
2, 74859, Note_on_c, 0, 55, 29
2, 74907, Note_on_c, 0, 62, 0
2, 74923, Note_on_c, 0, 60, 0
2, 74933, Note_on_c, 0, 65, 0
2, 74951, Note_on_c, 0, 67, 41
2, 74966, Note_on_c, 0, 65, 41
2, 74978, Note_on_c, 0, 67, 0
2, 74996, Note_on_c, 0, 65, 0
2, 74999, Note_on_c, 0, 55, 0
2, 75009, Note_on_c, 0, 62, 32
2, 75080, Note_on_c, 0, 63, 65
2, 75081, Note_on_c, 0, 62, 0
2, 75112, Note_on_c, 0, 63, 0
2, 75137, Note_on_c, 0, 64, 35
2, 75184, Note_on_c, 0, 64, 0
2, 75196, Note_on_c, 0, 66, 67
2, 75207, Note_on_c, 0, 61, 45
2, 75217, Note_on_c, 0, 61, 0
2, 75239, Note_on_c, 0, 66, 0
2, 75253, Note_on_c, 0, 67, 58
2, 75307, Note_on_c, 0, 67, 0
2, 75317, Note_on_c, 0, 68, 71
2, 75322, Note_on_c, 0, 56, 74
2, 75323, Note_on_c, 0, 50, 73
2, 75325, Note_on_c, 0, 60, 59
2, 75332, Note_on_c, 0, 50, 0
2, 75334, Note_on_c, 0, 60, 0
2, 75344, Note_on_c, 0, 56, 0
2, 75353, Note_on_c, 0, 68, 0
2, 75379, Note_on_c, 0, 71, 44
2, 75418, Note_on_c, 0, 71, 0
2, 75436, Note_on_c, 0, 65, 74
2, 75437, Note_on_c, 0, 54, 60
2, 75438, Note_on_c, 0, 60, 67
2, 75438, Note_on_c, 0, 75, 71
2, 75455, Note_on_c, 0, 65, 0
2, 75463, Note_on_c, 0, 60, 0
2, 75468, Note_on_c, 0, 75, 0
2, 75477, Note_on_c, 0, 54, 0
2, 75490, Note_on_c, 0, 76, 66
2, 75537, Note_on_c, 0, 76, 0
2, 75547, Note_on_c, 0, 53, 72
2, 75548, Note_on_c, 0, 59, 69
2, 75548, Note_on_c, 0, 64, 70
2, 75554, Note_on_c, 0, 79, 65
2, 75555, Note_on_c, 0, 67, 71
2, 75570, Note_on_c, 0, 64, 0
2, 75573, Note_on_c, 0, 79, 0
2, 75575, Note_on_c, 0, 67, 0
2, 75625, Note_on_c, 0, 80, 29
2, 75633, Note_on_c, 0, 53, 0
2, 75641, Note_on_c, 0, 80, 0
2, 75657, Note_on_c, 0, 59, 0
2, 75682, Note_on_c, 0, 70, 73
2, 75683, Note_on_c, 0, 59, 66
2, 75683, Note_on_c, 0, 53, 68
2, 75684, Note_on_c, 0, 63, 71
2, 75686, Note_on_c, 0, 82, 57
2, 75693, Note_on_c, 0, 53, 0
2, 75696, Note_on_c, 0, 80, 21
2, 75700, Note_on_c, 0, 63, 0
2, 75703, Note_on_c, 0, 82, 0
2, 75704, Note_on_c, 0, 70, 0
2, 75708, Note_on_c, 0, 80, 0
2, 75712, Note_on_c, 0, 59, 0
2, 75739, Note_on_c, 0, 71, 72
2, 75741, Note_on_c, 0, 82, 39
2, 75745, Note_on_c, 0, 83, 39
2, 75746, Note_on_c, 0, 72, 43
2, 75748, Note_on_c, 0, 84, 41
2, 75757, Note_on_c, 0, 84, 0
2, 75757, Note_on_c, 0, 72, 0
2, 75764, Note_on_c, 0, 71, 0
2, 75765, Note_on_c, 0, 83, 0
2, 75768, Note_on_c, 0, 82, 0
2, 75807, Note_on_c, 0, 63, 68
2, 75807, Note_on_c, 0, 62, 75
2, 75808, Note_on_c, 0, 67, 80
2, 75808, Note_on_c, 0, 86, 83
2, 75809, Note_on_c, 0, 58, 61
2, 75809, Note_on_c, 0, 72, 73
2, 75809, Note_on_c, 0, 84, 74
2, 75812, Note_on_c, 0, 74, 69
2, 75820, Note_on_c, 0, 74, 0
2, 75820, Note_on_c, 0, 72, 0
2, 75826, Note_on_c, 0, 67, 0
2, 75828, Note_on_c, 0, 86, 0
2, 75828, Note_on_c, 0, 84, 0
2, 75835, Note_on_c, 0, 58, 0
2, 75844, Note_on_c, 0, 62, 0
2, 75846, Note_on_c, 0, 63, 0
2, 75859, Note_on_c, 0, 73, 62
2, 75859, Note_on_c, 0, 85, 62
2, 75862, Note_on_c, 0, 79, 40
2, 75863, Note_on_c, 0, 82, 37
2, 75864, Note_on_c, 0, 67, 71
2, 75865, Note_on_c, 0, 63, 57
2, 75867, Note_on_c, 0, 62, 51
2, 75869, Note_on_c, 0, 58, 33
2, 75878, Note_on_c, 0, 67, 0
2, 75885, Note_on_c, 0, 85, 0
2, 75886, Note_on_c, 0, 86, 57
2, 75889, Note_on_c, 0, 73, 0
2, 75890, Note_on_c, 0, 58, 0
2, 75893, Note_on_c, 0, 62, 0
2, 75894, Note_on_c, 0, 74, 53
2, 75896, Note_on_c, 0, 63, 0
2, 75899, Note_on_c, 0, 86, 0
2, 75906, Note_on_c, 0, 82, 0
2, 75921, Note_on_c, 0, 74, 0
2, 75929, Note_on_c, 0, 86, 45
2, 75949, Note_on_c, 0, 74, 45
2, 75952, Note_on_c, 0, 86, 0
2, 75959, Note_on_c, 0, 79, 0
2, 75976, Note_on_c, 0, 74, 0
2, 75979, Note_on_c, 0, 86, 64
2, 75981, Note_on_c, 0, 83, 45
2, 75985, Note_on_c, 0, 79, 18
2, 76003, Note_on_c, 0, 79, 0
2, 76003, Note_on_c, 0, 74, 40
2, 76012, Note_on_c, 0, 83, 0
2, 76019, Note_on_c, 0, 86, 0
2, 76041, Note_on_c, 0, 86, 68
2, 76043, Note_on_c, 0, 79, 40
2, 76059, Note_on_c, 0, 74, 0
2, 76068, Note_on_c, 0, 86, 0
2, 76077, Note_on_c, 0, 67, 53
2, 76082, Note_on_c, 0, 62, 37
2, 76082, Note_on_c, 0, 63, 25
2, 76088, Note_on_c, 0, 84, 50
2, 76089, Note_on_c, 0, 67, 0
2, 76089, Note_on_c, 0, 72, 44
2, 76116, Note_on_c, 0, 63, 0
2, 76140, Note_on_c, 0, 84, 0
2, 76148, Note_on_c, 0, 72, 0
2, 76156, Note_on_c, 0, 79, 0
2, 76161, Note_on_c, 0, 62, 0
2, 76170, Note_on_c, 0, 86, 83
2, 76172, Note_on_c, 0, 79, 68
2, 76173, Note_on_c, 0, 74, 47
2, 76185, Note_on_c, 0, 74, 0
2, 76188, Note_on_c, 0, 79, 0
2, 76191, Note_on_c, 0, 86, 0
2, 76329, Note_on_c, 0, 63, 37
2, 76332, Note_on_c, 0, 58, 43
2, 76335, Note_on_c, 0, 52, 38
2, 76360, Note_on_c, 0, 63, 0
2, 76370, Note_on_c, 0, 52, 0
2, 76370, Note_on_c, 0, 58, 0
2, 76580, Note_on_c, 0, 74, 83
2, 76580, Note_on_c, 0, 63, 57
2, 76580, Note_on_c, 0, 86, 87
2, 76580, Note_on_c, 0, 67, 75
2, 76583, Note_on_c, 0, 56, 51
2, 76583, Note_on_c, 0, 60, 63
2, 76584, Note_on_c, 0, 80, 32
2, 76594, Note_on_c, 0, 80, 0
2, 76601, Note_on_c, 0, 67, 0
2, 76612, Note_on_c, 0, 63, 0
2, 76618, Note_on_c, 0, 86, 0
2, 76618, Note_on_c, 0, 60, 0
2, 76619, Note_on_c, 0, 74, 0
2, 76623, Note_on_c, 0, 56, 0
2, 76692, Note_on_c, 0, 78, 52
2, 76692, Note_on_c, 0, 56, 52
2, 76693, Note_on_c, 0, 62, 53
2, 76693, Note_on_c, 0, 84, 72
2, 76694, Note_on_c, 0, 66, 59
2, 76694, Note_on_c, 0, 72, 60
2, 76701, Note_on_c, 0, 60, 44
2, 76732, Note_on_c, 0, 84, 0
2, 76737, Note_on_c, 0, 60, 0
2, 76742, Note_on_c, 0, 72, 0
2, 76744, Note_on_c, 0, 66, 0
2, 76745, Note_on_c, 0, 62, 0
2, 76756, Note_on_c, 0, 78, 0
2, 76761, Note_on_c, 0, 56, 0
2, 76813, Note_on_c, 0, 65, 50
2, 76815, Note_on_c, 0, 70, 50
2, 76815, Note_on_c, 0, 62, 41
2, 76816, Note_on_c, 0, 82, 39
2, 76816, Note_on_c, 0, 55, 51
2, 76818, Note_on_c, 0, 60, 36
2, 76819, Note_on_c, 0, 77, 49
2, 76923, Control_c, 0, 64, 127
2, 76940, Note_on_c, 0, 62, 0
2, 76940, Note_on_c, 0, 70, 0
2, 76941, Note_on_c, 0, 65, 0
2, 76943, Note_on_c, 0, 77, 0
2, 76944, Note_on_c, 0, 60, 0
2, 76952, Note_on_c, 0, 82, 0
2, 76960, Note_on_c, 0, 55, 0
2, 77044, Control_c, 0, 64, 0
2, 77049, Note_on_c, 0, 65, 80
2, 77050, Note_on_c, 0, 60, 74
2, 77050, Note_on_c, 0, 58, 62
2, 77051, Note_on_c, 0, 54, 62
2, 77052, Note_on_c, 0, 89, 83
2, 77052, Note_on_c, 0, 84, 87
2, 77052, Note_on_c, 0, 77, 84
2, 77069, Note_on_c, 0, 65, 0
2, 77071, Note_on_c, 0, 84, 0
2, 77071, Note_on_c, 0, 89, 0
2, 77071, Note_on_c, 0, 77, 0
2, 77073, Note_on_c, 0, 60, 0
2, 77086, Note_on_c, 0, 58, 0
2, 77089, Note_on_c, 0, 54, 0
2, 77169, Note_on_c, 0, 54, 61
2, 77169, Note_on_c, 0, 74, 65
2, 77169, Note_on_c, 0, 65, 68
2, 77170, Note_on_c, 0, 86, 68
2, 77172, Note_on_c, 0, 58, 51
2, 77172, Note_on_c, 0, 60, 59
2, 77190, Note_on_c, 0, 65, 0
2, 77196, Note_on_c, 0, 86, 0
2, 77199, Note_on_c, 0, 60, 0
2, 77202, Note_on_c, 0, 74, 0
2, 77209, Note_on_c, 0, 58, 0
2, 77221, Note_on_c, 0, 54, 0
2, 77289, Note_on_c, 0, 55, 59
2, 77292, Note_on_c, 0, 70, 50
2, 77292, Note_on_c, 0, 58, 50
2, 77292, Note_on_c, 0, 82, 49
2, 77294, Note_on_c, 0, 53, 50
2, 77294, Note_on_c, 0, 62, 57
2, 77359, Note_on_c, 0, 82, 0
2, 77367, Note_on_c, 0, 70, 0
2, 77383, Note_on_c, 0, 58, 0
2, 77383, Note_on_c, 0, 62, 0
2, 77400, Control_c, 0, 64, 127
2, 77405, Note_on_c, 0, 80, 59
2, 77406, Note_on_c, 0, 68, 60
2, 77407, Note_on_c, 0, 62, 50
2, 77408, Note_on_c, 0, 58, 30
2, 77446, Note_on_c, 0, 62, 0
2, 77456, Note_on_c, 0, 53, 0
2, 77457, Note_on_c, 0, 55, 0
2, 77459, Control_c, 0, 64, 0
2, 77464, Note_on_c, 0, 80, 0
2, 77472, Note_on_c, 0, 68, 0
2, 77487, Note_on_c, 0, 67, 65
2, 77488, Note_on_c, 0, 79, 64
2, 77489, Note_on_c, 0, 60, 45
2, 77495, Note_on_c, 0, 52, 33
2, 77575, Note_on_c, 0, 60, 0
2, 77583, Note_on_c, 0, 67, 0
2, 77588, Note_on_c, 0, 79, 0
2, 77606, Note_on_c, 0, 76, 75
2, 77611, Note_on_c, 0, 60, 47
2, 77640, Note_on_c, 0, 52, 0
2, 77647, Note_on_c, 0, 76, 0
2, 77654, Note_on_c, 0, 60, 0
2, 77655, Note_on_c, 0, 58, 0
2, 77663, Note_on_c, 0, 79, 78
2, 77704, Note_on_c, 0, 79, 0
2, 77725, Note_on_c, 0, 77, 74
2, 77729, Note_on_c, 0, 67, 60
2, 77730, Note_on_c, 0, 63, 49
2, 77735, Note_on_c, 0, 56, 23
2, 77750, Note_on_c, 0, 67, 0
2, 77763, Note_on_c, 0, 56, 0
2, 77772, Note_on_c, 0, 63, 0
2, 77773, Note_on_c, 0, 77, 0
2, 77784, Note_on_c, 0, 72, 35
2, 77844, Note_on_c, 0, 68, 39
2, 77851, Note_on_c, 0, 72, 0
2, 77877, Note_on_c, 0, 68, 0
2, 77897, Note_on_c, 0, 67, 36
2, 77955, Note_on_c, 0, 67, 0
2, 77963, Note_on_c, 0, 63, 51
2, 77968, Note_on_c, 0, 59, 44
2, 77975, Note_on_c, 0, 58, 25
2, 77977, Note_on_c, 0, 63, 0
2, 77979, Note_on_c, 0, 59, 0
2, 77986, Note_on_c, 0, 58, 0
2, 78087, Note_on_c, 0, 79, 74
2, 78090, Note_on_c, 0, 63, 67
2, 78091, Note_on_c, 0, 54, 47
2, 78092, Note_on_c, 0, 59, 64
2, 78097, Note_on_c, 0, 58, 34
2, 78101, Note_on_c, 0, 59, 0
2, 78107, Note_on_c, 0, 63, 0
2, 78124, Note_on_c, 0, 79, 0
2, 78129, Note_on_c, 0, 58, 0
2, 78130, Note_on_c, 0, 54, 0
2, 78143, Note_on_c, 0, 82, 80
2, 78183, Note_on_c, 0, 82, 0
2, 78206, Note_on_c, 0, 63, 72
2, 78207, Note_on_c, 0, 80, 69
2, 78209, Note_on_c, 0, 59, 57
2, 78239, Note_on_c, 0, 63, 0
2, 78247, Note_on_c, 0, 59, 0
2, 78249, Note_on_c, 0, 80, 0
2, 78263, Note_on_c, 0, 75, 47
2, 78329, Note_on_c, 0, 71, 71
2, 78332, Note_on_c, 0, 75, 0
2, 78332, Note_on_c, 0, 63, 49
2, 78337, Note_on_c, 0, 59, 41
2, 78367, Note_on_c, 0, 71, 0
2, 78370, Note_on_c, 0, 59, 0
2, 78374, Note_on_c, 0, 63, 0
2, 78450, Note_on_c, 0, 62, 57
2, 78451, Note_on_c, 0, 67, 44
2, 78452, Note_on_c, 0, 65, 36
2, 78455, Note_on_c, 0, 60, 50
2, 78462, Note_on_c, 0, 65, 0
2, 78462, Note_on_c, 0, 67, 0
2, 78466, Note_on_c, 0, 60, 0
2, 78471, Note_on_c, 0, 62, 0
2, 78496, Note_on_c, 0, 86, 84
2, 78538, Note_on_c, 0, 86, 0
2, 78563, Note_on_c, 0, 87, 75
2, 78563, Note_on_c, 0, 62, 71
2, 78570, Note_on_c, 0, 60, 38
2, 78572, Note_on_c, 0, 65, 24
2, 78581, Note_on_c, 0, 65, 0
2, 78585, Note_on_c, 0, 62, 0
2, 78586, Note_on_c, 0, 60, 0
2, 78593, Note_on_c, 0, 87, 0
2, 78615, Note_on_c, 0, 89, 76
2, 78618, Note_on_c, 0, 88, 72
2, 78628, Note_on_c, 0, 88, 0
2, 78661, Note_on_c, 0, 89, 0
2, 78682, Note_on_c, 0, 86, 79
2, 78683, Note_on_c, 0, 65, 60
2, 78686, Note_on_c, 0, 62, 51
2, 78692, Note_on_c, 0, 60, 39
2, 78701, Note_on_c, 0, 65, 0
2, 78706, Note_on_c, 0, 60, 0
2, 78722, Note_on_c, 0, 62, 0
2, 78722, Note_on_c, 0, 86, 0
2, 78737, Note_on_c, 0, 82, 46
2, 78805, Note_on_c, 0, 82, 0
2, 78810, Note_on_c, 0, 79, 29
2, 78820, Note_on_c, 0, 79, 0
2, 78923, Note_on_c, 0, 61, 74
2, 78923, Note_on_c, 0, 66, 83
2, 78927, Note_on_c, 0, 55, 82
2, 79134, Note_on_c, 0, 55, 0
2, 79156, Note_on_c, 0, 66, 0
2, 79160, Note_on_c, 0, 61, 0
2, 79170, Note_on_c, 0, 65, 74
2, 79171, Note_on_c, 0, 60, 80
2, 79176, Note_on_c, 0, 54, 48
2, 79297, Note_on_c, 0, 88, 44
2, 79307, Note_on_c, 0, 88, 0
2, 79330, Note_on_c, 0, 65, 0
2, 79333, Note_on_c, 0, 91, 90
2, 79334, Note_on_c, 0, 79, 89
2, 79349, Note_on_c, 0, 60, 0
2, 79368, Note_on_c, 0, 90, 23
2, 79378, Note_on_c, 0, 91, 0
2, 79390, Note_on_c, 0, 79, 0
2, 79393, Note_on_c, 0, 90, 0
2, 79401, Note_on_c, 0, 54, 0
2, 79409, Note_on_c, 0, 53, 50
2, 79412, Note_on_c, 0, 64, 62
2, 79413, Note_on_c, 0, 78, 73
2, 79413, Note_on_c, 0, 90, 77
2, 79413, Note_on_c, 0, 59, 58
2, 79458, Note_on_c, 0, 90, 0
2, 79464, Note_on_c, 0, 78, 0
2, 79482, Note_on_c, 0, 64, 0
2, 79485, Note_on_c, 0, 89, 75
2, 79487, Note_on_c, 0, 77, 71
2, 79498, Note_on_c, 0, 59, 0
2, 79525, Note_on_c, 0, 89, 0
2, 79528, Note_on_c, 0, 59, 43
2, 79529, Note_on_c, 0, 64, 44
2, 79535, Note_on_c, 0, 77, 0
2, 79553, Note_on_c, 0, 64, 0
2, 79558, Note_on_c, 0, 87, 67
2, 79560, Note_on_c, 0, 75, 64
2, 79567, Note_on_c, 0, 59, 0
2, 79587, Note_on_c, 0, 53, 0
2, 79603, Note_on_c, 0, 87, 0
2, 79613, Note_on_c, 0, 75, 0
2, 79635, Note_on_c, 0, 85, 68
2, 79639, Note_on_c, 0, 62, 80
2, 79640, Note_on_c, 0, 73, 68
2, 79640, Note_on_c, 0, 51, 70
2, 79643, Note_on_c, 0, 57, 68
2, 79657, Note_on_c, 0, 62, 0
2, 79659, Note_on_c, 0, 51, 0
2, 79663, Note_on_c, 0, 57, 0
2, 79680, Note_on_c, 0, 85, 0
2, 79693, Note_on_c, 0, 73, 0
2, 79693, Note_on_c, 0, 74, 64
2, 79717, Note_on_c, 0, 74, 0
2, 79728, Note_on_c, 0, 86, 60
2, 79750, Note_on_c, 0, 74, 56
2, 79751, Note_on_c, 0, 86, 0
2, 79779, Note_on_c, 0, 74, 0
2, 79782, Note_on_c, 0, 86, 58
2, 79803, Note_on_c, 0, 74, 37
2, 79808, Note_on_c, 0, 86, 0
2, 79836, Note_on_c, 0, 74, 0
2, 79839, Note_on_c, 0, 86, 57
2, 79862, Note_on_c, 0, 74, 47
2, 79869, Note_on_c, 0, 86, 0
2, 79882, Note_on_c, 0, 57, 62
2, 79891, Note_on_c, 0, 57, 0
2, 79900, Note_on_c, 0, 74, 0
2, 79908, Note_on_c, 0, 86, 75
2, 79925, Note_on_c, 0, 86, 0
2, 79933, Note_on_c, 0, 71, 59
2, 79936, Note_on_c, 0, 72, 63
2, 79950, Note_on_c, 0, 83, 17
2, 79957, Note_on_c, 0, 71, 0
2, 79986, Note_on_c, 0, 72, 0
2, 79987, Note_on_c, 0, 83, 0
2, 80008, Note_on_c, 0, 74, 78
2, 80012, Note_on_c, 0, 86, 58
2, 80022, Note_on_c, 0, 86, 0
2, 80023, Note_on_c, 0, 74, 0
2, 80168, Note_on_c, 0, 67, 33
2, 80169, Note_on_c, 0, 63, 30
2, 80185, Note_on_c, 0, 56, 18
2, 80186, Note_on_c, 0, 60, 22
2, 80221, Note_on_c, 0, 67, 0
2, 80231, Note_on_c, 0, 60, 0
2, 80243, Note_on_c, 0, 56, 0
2, 80245, Note_on_c, 0, 67, 51
2, 80250, Note_on_c, 0, 63, 0
2, 80277, Note_on_c, 0, 67, 0
2, 80287, Note_on_c, 0, 68, 35
2, 80319, Note_on_c, 0, 68, 0
2, 80329, Note_on_c, 0, 70, 48
2, 80341, Note_on_c, 0, 70, 0
2, 80359, Note_on_c, 0, 72, 80
2, 80385, Note_on_c, 0, 72, 0
2, 80398, Note_on_c, 0, 74, 84
2, 80430, Note_on_c, 0, 74, 0
2, 80439, Note_on_c, 0, 75, 67
2, 80457, Note_on_c, 0, 75, 0
2, 80476, Note_on_c, 0, 77, 80
2, 80501, Note_on_c, 0, 77, 0
2, 80520, Note_on_c, 0, 79, 75
2, 80521, Note_on_c, 0, 66, 50
2, 80527, Note_on_c, 0, 62, 28
2, 80532, Note_on_c, 0, 56, 21
2, 80538, Note_on_c, 0, 79, 0
2, 80543, Note_on_c, 0, 62, 0
2, 80546, Note_on_c, 0, 66, 0
2, 80560, Note_on_c, 0, 56, 0
2, 80563, Note_on_c, 0, 80, 60
2, 80580, Note_on_c, 0, 80, 0
2, 80603, Note_on_c, 0, 82, 70
2, 80626, Note_on_c, 0, 82, 0
2, 80640, Note_on_c, 0, 62, 36
2, 80647, Note_on_c, 0, 84, 75
2, 80648, Note_on_c, 0, 55, 53
2, 80648, Note_on_c, 0, 60, 49
2, 80666, Note_on_c, 0, 84, 0
2, 80699, Note_on_c, 0, 60, 0
2, 80704, Note_on_c, 0, 62, 0
2, 80721, Note_on_c, 0, 62, 39
2, 80724, Note_on_c, 0, 73, 73
2, 80724, Note_on_c, 0, 85, 86
2, 80725, Note_on_c, 0, 65, 59
2, 80725, Note_on_c, 0, 60, 50
2, 80737, Note_on_c, 0, 86, 75
2, 80742, Note_on_c, 0, 73, 0
2, 80745, Note_on_c, 0, 74, 66
2, 80746, Note_on_c, 0, 85, 0
2, 80749, Note_on_c, 0, 84, 52
2, 80754, Note_on_c, 0, 76, 35
2, 80764, Note_on_c, 0, 76, 0
2, 80771, Note_on_c, 0, 65, 0
2, 80775, Note_on_c, 0, 74, 0
2, 80779, Note_on_c, 0, 86, 0
2, 80780, Note_on_c, 0, 60, 0
2, 80783, Note_on_c, 0, 84, 0
2, 80798, Note_on_c, 0, 86, 83
2, 80800, Note_on_c, 0, 74, 61
2, 80800, Note_on_c, 0, 65, 44
2, 80801, Note_on_c, 0, 60, 41
2, 80808, Note_on_c, 0, 84, 35
2, 80817, Note_on_c, 0, 84, 0
2, 80823, Note_on_c, 0, 65, 0
2, 80830, Note_on_c, 0, 86, 0
2, 80835, Note_on_c, 0, 74, 0
2, 80839, Note_on_c, 0, 60, 0
2, 80840, Note_on_c, 0, 62, 0
2, 80845, Note_on_c, 0, 55, 0
2, 80856, Note_on_c, 0, 55, 30
2, 80860, Note_on_c, 0, 86, 84
2, 80862, Note_on_c, 0, 74, 67
2, 80866, Note_on_c, 0, 65, 26
2, 80867, Note_on_c, 0, 62, 19
2, 80875, Note_on_c, 0, 65, 0
2, 80877, Note_on_c, 0, 62, 0
2, 80886, Note_on_c, 0, 74, 0
2, 80888, Note_on_c, 0, 86, 0
2, 80897, Note_on_c, 0, 55, 0
2, 80918, Note_on_c, 0, 86, 75
2, 80922, Note_on_c, 0, 74, 57
2, 80972, Note_on_c, 0, 74, 0
2, 80985, Note_on_c, 0, 86, 0
2, 81012, Note_on_c, 0, 82, 51
2, 81014, Note_on_c, 0, 54, 31
2, 81016, Note_on_c, 0, 60, 40
2, 81035, Note_on_c, 0, 60, 0
2, 81076, Note_on_c, 0, 82, 0
2, 81078, Note_on_c, 0, 54, 0
2, 81126, Note_on_c, 0, 62, 29
2, 81132, Note_on_c, 0, 58, 31
2, 81135, Note_on_c, 0, 55, 36
2, 81138, Note_on_c, 0, 53, 22
2, 81154, Note_on_c, 0, 53, 0
2, 81157, Note_on_c, 0, 62, 0
2, 81159, Note_on_c, 0, 58, 0
2, 81167, Note_on_c, 0, 55, 0
2, 81256, Note_on_c, 0, 84, 127
2, 81290, Note_on_c, 0, 84, 0
2, 81332, Note_on_c, 0, 85, 90
2, 81335, Note_on_c, 0, 61, 81
2, 81336, Note_on_c, 0, 58, 74
2, 81340, Note_on_c, 0, 52, 64
2, 81348, Note_on_c, 0, 52, 0
2, 81349, Note_on_c, 0, 61, 0
2, 81357, Note_on_c, 0, 58, 0
2, 81370, Note_on_c, 0, 85, 0
2, 81400, Note_on_c, 0, 87, 79
2, 81433, Note_on_c, 0, 87, 0
2, 81456, Note_on_c, 0, 88, 89
2, 81488, Note_on_c, 0, 88, 0
2, 81512, Note_on_c, 0, 87, 68
2, 81552, Note_on_c, 0, 87, 0
2, 81568, Note_on_c, 0, 63, 62
2, 81569, Note_on_c, 0, 60, 62
2, 81571, Note_on_c, 0, 85, 83
2, 81572, Note_on_c, 0, 53, 31
2, 81574, Note_on_c, 0, 56, 43
2, 81581, Note_on_c, 0, 60, 0
2, 81583, Note_on_c, 0, 63, 0
2, 81587, Note_on_c, 0, 53, 0
2, 81606, Note_on_c, 0, 85, 0
2, 81609, Note_on_c, 0, 56, 0
2, 81636, Note_on_c, 0, 84, 66
2, 81670, Note_on_c, 0, 84, 0
2, 81695, Note_on_c, 0, 82, 60
2, 81726, Note_on_c, 0, 82, 0
2, 81749, Note_on_c, 0, 80, 37
2, 81808, Note_on_c, 0, 80, 0
2, 81816, Note_on_c, 0, 79, 59
2, 81816, Note_on_c, 0, 63, 53
2, 81820, Note_on_c, 0, 59, 48
2, 81828, Note_on_c, 0, 63, 0
2, 81831, Note_on_c, 0, 59, 0
2, 81836, Note_on_c, 0, 79, 0
2, 81873, Note_on_c, 0, 83, 92
2, 81925, Note_on_c, 0, 83, 0
2, 81936, Note_on_c, 0, 82, 77
2, 81945, Note_on_c, 0, 59, 58
2, 81948, Note_on_c, 0, 58, 36
2, 81950, Note_on_c, 0, 54, 19
2, 81960, Note_on_c, 0, 54, 0
2, 81965, Note_on_c, 0, 59, 0
2, 81977, Note_on_c, 0, 82, 0
2, 81978, Note_on_c, 0, 58, 0
2, 82060, Note_on_c, 0, 71, 53
2, 82060, Note_on_c, 0, 63, 37
2, 82074, Note_on_c, 0, 63, 0
2, 82083, Note_on_c, 0, 71, 0
2, 82111, Note_on_c, 0, 74, 75
2, 82163, Note_on_c, 0, 74, 0
2, 82172, Note_on_c, 0, 66, 67
2, 82174, Note_on_c, 0, 78, 74
2, 82176, Note_on_c, 0, 61, 35
2, 82179, Note_on_c, 0, 62, 53
2, 82188, Note_on_c, 0, 61, 0
2, 82190, Note_on_c, 0, 66, 0
2, 82191, Note_on_c, 0, 62, 0
2, 82217, Note_on_c, 0, 78, 0
2, 82231, Note_on_c, 0, 74, 32
2, 82288, Note_on_c, 0, 74, 0
2, 82293, Note_on_c, 0, 69, 49
2, 82306, Note_on_c, 0, 69, 0
2, 82338, Note_on_c, 0, 85, 86
2, 82379, Note_on_c, 0, 85, 0
2, 82400, Note_on_c, 0, 61, 52
2, 82403, Note_on_c, 0, 50, 54
2, 82411, Note_on_c, 0, 83, 31
2, 82422, Note_on_c, 0, 61, 0
2, 82426, Note_on_c, 0, 83, 0
2, 82428, Note_on_c, 0, 50, 0
2, 82448, Note_on_c, 0, 78, 44
2, 82508, Note_on_c, 0, 78, 0
2, 82524, Note_on_c, 0, 74, 48
2, 82532, Note_on_c, 0, 62, 42
2, 82539, Note_on_c, 0, 60, 33
2, 82547, Note_on_c, 0, 74, 0
2, 82552, Note_on_c, 0, 60, 0
2, 82560, Note_on_c, 0, 62, 0
2, 82572, Note_on_c, 0, 77, 69
2, 82646, Note_on_c, 0, 76, 55
2, 82662, Note_on_c, 0, 77, 0
2, 82671, Note_on_c, 0, 75, 51
2, 82679, Note_on_c, 0, 76, 0
2, 82698, Note_on_c, 0, 74, 46
2, 82699, Note_on_c, 0, 75, 0
2, 82758, Note_on_c, 0, 74, 0
2, 82771, Note_on_c, 0, 65, 37
2, 82771, Note_on_c, 0, 77, 71
2, 82776, Note_on_c, 0, 62, 27
2, 82781, Note_on_c, 0, 65, 0
2, 82786, Note_on_c, 0, 62, 0
2, 82806, Note_on_c, 0, 77, 0
2, 83001, Note_on_c, 0, 63, 62
2, 83005, Note_on_c, 0, 60, 58
2, 83014, Note_on_c, 0, 60, 0
2, 83015, Note_on_c, 0, 63, 0
2, 83044, Note_on_c, 0, 74, 118
2, 83046, Note_on_c, 0, 81, 91
2, 83093, Note_on_c, 0, 74, 0
2, 83104, Note_on_c, 0, 75, 56
2, 83128, Note_on_c, 0, 74, 58
2, 83129, Note_on_c, 0, 81, 0
2, 83150, Note_on_c, 0, 75, 0
2, 83169, Note_on_c, 0, 74, 0
2, 83174, Note_on_c, 0, 72, 47
2, 83226, Note_on_c, 0, 72, 0
2, 83243, Note_on_c, 0, 70, 69
2, 83246, Note_on_c, 0, 60, 62
2, 83247, Note_on_c, 0, 62, 67
2, 83256, Note_on_c, 0, 60, 0
2, 83257, Note_on_c, 0, 62, 0
2, 83285, Note_on_c, 0, 70, 0
2, 83304, Note_on_c, 0, 69, 31
2, 83352, Note_on_c, 0, 69, 0
2, 83367, Note_on_c, 0, 72, 64
2, 83369, Note_on_c, 0, 50, 50
2, 83374, Note_on_c, 0, 43, 48
2, 83384, Note_on_c, 0, 43, 0
2, 83393, Note_on_c, 0, 50, 0
2, 83404, Note_on_c, 0, 72, 0
2, 83421, Note_on_c, 0, 70, 42
2, 83493, Note_on_c, 0, 70, 0
2, 83495, Note_on_c, 0, 62, 38
2, 83515, Note_on_c, 0, 62, 0
2, 83535, Note_on_c, 0, 69, 87
2, 83608, Note_on_c, 0, 69, 0
2, 83614, Note_on_c, 0, 62, 68
2, 83616, Note_on_c, 0, 58, 46
2, 83616, Note_on_c, 0, 57, 54
2, 83618, Note_on_c, 0, 65, 37
2, 83623, Note_on_c, 0, 62, 0
2, 83624, Note_on_c, 0, 55, 37
2, 83627, Note_on_c, 0, 57, 0
2, 83630, Note_on_c, 0, 65, 0
2, 83634, Note_on_c, 0, 55, 0
2, 83636, Note_on_c, 0, 58, 0
2, 83654, Note_on_c, 0, 67, 73
2, 83722, Note_on_c, 0, 67, 0
2, 83735, Note_on_c, 0, 69, 59
2, 83755, Note_on_c, 0, 69, 0
2, 83775, Note_on_c, 0, 70, 75
2, 83833, Note_on_c, 0, 70, 0
2, 83853, Note_on_c, 0, 72, 71
2, 83855, Note_on_c, 0, 62, 63
2, 83863, Note_on_c, 0, 58, 33
2, 83864, Note_on_c, 0, 57, 30
2, 83865, Note_on_c, 0, 62, 0
2, 83869, Note_on_c, 0, 55, 27
2, 83876, Note_on_c, 0, 57, 0
2, 83882, Note_on_c, 0, 55, 0
2, 83884, Note_on_c, 0, 58, 0
2, 83884, Note_on_c, 0, 72, 0
2, 83900, Note_on_c, 0, 70, 48
2, 83970, Note_on_c, 0, 70, 0
2, 84009, Note_on_c, 0, 63, 57
2, 84013, Note_on_c, 0, 60, 49
2, 84015, Note_on_c, 0, 69, 89
2, 84016, Note_on_c, 0, 55, 46
2, 84020, Note_on_c, 0, 57, 36
2, 84064, Note_on_c, 0, 63, 0
2, 84078, Note_on_c, 0, 69, 0
2, 84084, Note_on_c, 0, 70, 48
2, 84097, Note_on_c, 0, 57, 0
2, 84108, Note_on_c, 0, 69, 52
2, 84118, Note_on_c, 0, 55, 0
2, 84122, Note_on_c, 0, 70, 0
2, 84134, Note_on_c, 0, 60, 0
2, 84142, Note_on_c, 0, 67, 39
2, 84155, Note_on_c, 0, 69, 0
2, 84207, Note_on_c, 0, 66, 71
2, 84210, Note_on_c, 0, 62, 67
2, 84212, Note_on_c, 0, 60, 59
2, 84217, Note_on_c, 0, 54, 30
2, 84218, Note_on_c, 0, 67, 0
2, 84222, Note_on_c, 0, 60, 0
2, 84226, Note_on_c, 0, 62, 0
2, 84238, Note_on_c, 0, 54, 0
2, 84250, Note_on_c, 0, 66, 0
2, 84265, Note_on_c, 0, 69, 69
2, 84313, Note_on_c, 0, 69, 0
2, 84323, Note_on_c, 0, 63, 68
2, 84361, Note_on_c, 0, 63, 0
2, 84377, Note_on_c, 0, 62, 51
2, 84443, Note_on_c, 0, 62, 0
2, 84444, Note_on_c, 0, 60, 71
2, 84445, Note_on_c, 0, 50, 70
2, 84449, Note_on_c, 0, 43, 60
2, 84460, Note_on_c, 0, 43, 0
2, 84465, Note_on_c, 0, 50, 0
2, 84478, Note_on_c, 0, 60, 0
2, 84505, Note_on_c, 0, 58, 30
2, 84578, Note_on_c, 0, 57, 32
2, 84593, Note_on_c, 0, 57, 0
2, 84594, Note_on_c, 0, 58, 0
2, 84609, Note_on_c, 0, 60, 66
2, 84687, Note_on_c, 0, 60, 0
2, 84695, Note_on_c, 0, 57, 40
2, 84703, Note_on_c, 0, 50, 27
2, 84712, Note_on_c, 0, 50, 0
2, 84717, Note_on_c, 0, 57, 0
2, 84732, Note_on_c, 0, 58, 37
2, 84842, Note_on_c, 0, 58, 0
2, 84844, Note_on_c, 0, 55, 90
2, 84904, Note_on_c, 0, 55, 0
2, 85078, Note_on_c, 0, 67, 57
2, 85080, Note_on_c, 0, 62, 51
2, 85083, Note_on_c, 0, 63, 34
2, 85084, Note_on_c, 0, 58, 34
2, 85099, Note_on_c, 0, 67, 0
2, 85104, Note_on_c, 0, 62, 0
2, 85112, Note_on_c, 0, 63, 0
2, 85120, Note_on_c, 0, 58, 0
2, 85200, Note_on_c, 0, 66, 60
2, 85203, Note_on_c, 0, 63, 38
2, 85204, Note_on_c, 0, 61, 42
2, 85207, Note_on_c, 0, 57, 43
2, 85245, Note_on_c, 0, 63, 0
2, 85251, Note_on_c, 0, 61, 0
2, 85261, Note_on_c, 0, 57, 0
2, 85266, Note_on_c, 0, 66, 0
2, 85325, Note_on_c, 0, 77, 82
2, 85359, Note_on_c, 0, 77, 0
2, 85408, Note_on_c, 0, 80, 73
2, 85409, Note_on_c, 0, 68, 92
2, 85409, Note_on_c, 0, 65, 71
2, 85411, Note_on_c, 0, 62, 67
2, 85412, Note_on_c, 0, 74, 71
2, 85412, Note_on_c, 0, 60, 66
2, 85417, Note_on_c, 0, 65, 0
2, 85420, Note_on_c, 0, 62, 0
2, 85421, Note_on_c, 0, 74, 0
2, 85421, Note_on_c, 0, 60, 0
2, 85433, Note_on_c, 0, 81, 22
2, 85438, Note_on_c, 0, 68, 0
2, 85438, Note_on_c, 0, 69, 61
2, 85444, Note_on_c, 0, 80, 0
2, 85457, Note_on_c, 0, 81, 0
2, 85472, Note_on_c, 0, 69, 0
2, 85489, Note_on_c, 0, 81, 24
2, 85491, Note_on_c, 0, 77, 40
2, 85505, Note_on_c, 0, 81, 0
2, 85507, Note_on_c, 0, 74, 38
2, 85519, Note_on_c, 0, 81, 27
2, 85520, Note_on_c, 0, 69, 59
2, 85526, Note_on_c, 0, 77, 0
2, 85540, Note_on_c, 0, 69, 0
2, 85542, Note_on_c, 0, 81, 0
2, 85552, Note_on_c, 0, 74, 0
2, 85566, Note_on_c, 0, 77, 55
2, 85567, Note_on_c, 0, 65, 53
2, 85643, Note_on_c, 0, 65, 0
2, 85658, Note_on_c, 0, 77, 0
2, 85682, Note_on_c, 0, 77, 62
2, 85685, Note_on_c, 0, 65, 51
2, 85725, Note_on_c, 0, 65, 0
2, 85743, Note_on_c, 0, 77, 0
2, 85803, Note_on_c, 0, 62, 41
2, 85804, Note_on_c, 0, 60, 49
2, 85805, Note_on_c, 0, 65, 32
2, 85806, Note_on_c, 0, 55, 42
2, 85825, Note_on_c, 0, 65, 0
2, 85838, Note_on_c, 0, 62, 0
2, 85839, Note_on_c, 0, 60, 0
2, 85858, Note_on_c, 0, 55, 0
2, 85932, Note_on_c, 0, 58, 69
2, 85932, Note_on_c, 0, 82, 80
2, 85933, Note_on_c, 0, 65, 80
2, 85933, Note_on_c, 0, 74, 92
2, 85934, Note_on_c, 0, 60, 75
2, 85934, Note_on_c, 0, 54, 74
2, 85934, Note_on_c, 0, 86, 96
2, 85998, Note_on_c, 0, 86, 0
2, 86013, Note_on_c, 0, 74, 0
2, 86015, Note_on_c, 0, 82, 0
2, 86025, Note_on_c, 0, 65, 0
2, 86028, Note_on_c, 0, 60, 0
2, 86030, Note_on_c, 0, 54, 0
2, 86033, Note_on_c, 0, 58, 0
2, 86052, Note_on_c, 0, 54, 48
2, 86053, Note_on_c, 0, 65, 40
2, 86055, Note_on_c, 0, 80, 38
2, 86055, Note_on_c, 0, 68, 46
2, 86057, Note_on_c, 0, 60, 43
2, 86057, Note_on_c, 0, 58, 52
2, 86115, Note_on_c, 0, 65, 0
2, 86116, Note_on_c, 0, 60, 0
2, 86117, Note_on_c, 0, 68, 0
2, 86118, Note_on_c, 0, 80, 0
2, 86125, Note_on_c, 0, 54, 0
2, 86127, Note_on_c, 0, 58, 0
2, 86137, Note_on_c, 0, 80, 43
2, 86139, Note_on_c, 0, 65, 49
2, 86139, Note_on_c, 0, 68, 37
2, 86140, Note_on_c, 0, 54, 25
2, 86144, Note_on_c, 0, 60, 46
2, 86144, Note_on_c, 0, 58, 25
2, 86152, Note_on_c, 0, 68, 0
2, 86157, Note_on_c, 0, 60, 0
2, 86159, Note_on_c, 0, 80, 0
2, 86161, Note_on_c, 0, 65, 0
2, 86176, Note_on_c, 0, 58, 0
2, 86180, Note_on_c, 0, 54, 0
2, 86297, Control_c, 0, 64, 127
2, 86388, Control_c, 0, 64, 0
2, 86401, Note_on_c, 0, 56, 64
2, 86401, Note_on_c, 0, 60, 81
2, 86401, Note_on_c, 0, 55, 89
2, 86402, Note_on_c, 0, 65, 83
2, 86402, Note_on_c, 0, 92, 82
2, 86403, Note_on_c, 0, 84, 89
2, 86403, Note_on_c, 0, 96, 94
2, 86404, Note_on_c, 0, 89, 77
2, 86410, Note_on_c, 0, 86, 55
2, 86419, Note_on_c, 0, 86, 0
2, 86463, Control_c, 0, 64, 127
2, 86480, Note_on_c, 0, 96, 0
2, 86494, Note_on_c, 0, 84, 0
2, 86498, Note_on_c, 0, 92, 0
2, 86499, Note_on_c, 0, 89, 0
2, 86510, Note_on_c, 0, 55, 0
2, 86511, Note_on_c, 0, 65, 0
2, 86514, Note_on_c, 0, 60, 0
2, 86517, Note_on_c, 0, 56, 0
2, 86526, Control_c, 0, 64, 0
2, 86531, Note_on_c, 0, 92, 64
2, 86532, Note_on_c, 0, 65, 54
2, 86533, Note_on_c, 0, 80, 46
2, 86534, Note_on_c, 0, 55, 53
2, 86537, Note_on_c, 0, 56, 27
2, 86538, Note_on_c, 0, 60, 60
2, 86555, Control_c, 0, 64, 127
2, 86587, Note_on_c, 0, 55, 0
2, 86589, Note_on_c, 0, 80, 0
2, 86590, Note_on_c, 0, 65, 0
2, 86591, Note_on_c, 0, 92, 0
2, 86595, Note_on_c, 0, 60, 0
2, 86597, Note_on_c, 0, 56, 0
2, 86599, Control_c, 0, 64, 0
2, 86617, Note_on_c, 0, 92, 42
2, 86620, Note_on_c, 0, 65, 53
2, 86622, Note_on_c, 0, 56, 32
2, 86623, Note_on_c, 0, 60, 44
2, 86625, Note_on_c, 0, 87, 35
2, 86627, Note_on_c, 0, 55, 32
2, 86628, Note_on_c, 0, 92, 0
2, 86634, Note_on_c, 0, 87, 0
2, 86644, Note_on_c, 0, 55, 0
2, 86652, Note_on_c, 0, 60, 0
2, 86660, Note_on_c, 0, 65, 0
2, 86673, Note_on_c, 0, 56, 0
2, 86728, Note_on_c, 0, 65, 67
2, 86732, Note_on_c, 0, 79, 61
2, 86732, Note_on_c, 0, 91, 62
2, 86733, Note_on_c, 0, 56, 32
2, 86733, Note_on_c, 0, 60, 57
2, 86740, Note_on_c, 0, 55, 29
2, 86742, Note_on_c, 0, 91, 0
2, 86742, Note_on_c, 0, 79, 0
2, 86747, Note_on_c, 0, 65, 0
2, 86747, Note_on_c, 0, 60, 0
2, 86751, Note_on_c, 0, 55, 0
2, 86771, Note_on_c, 0, 56, 0
2, 86883, Control_c, 0, 64, 127
2, 86963, Note_on_c, 0, 59, 80
2, 86965, Note_on_c, 0, 64, 87
2, 86966, Note_on_c, 0, 53, 87
2, 86966, Note_on_c, 0, 91, 88
2, 86966, Note_on_c, 0, 86, 99
2, 86967, Note_on_c, 0, 79, 91
2, 86970, Control_c, 0, 64, 0
2, 86998, Control_c, 0, 64, 127
2, 87015, Note_on_c, 0, 53, 0
2, 87020, Note_on_c, 0, 59, 0
2, 87028, Note_on_c, 0, 64, 0
2, 87042, Note_on_c, 0, 79, 0
2, 87045, Note_on_c, 0, 86, 0
2, 87048, Note_on_c, 0, 91, 0
2, 87124, Control_c, 0, 64, 0
2, 87125, Note_on_c, 0, 61, 83
2, 87125, Note_on_c, 0, 55, 89
2, 87125, Note_on_c, 0, 65, 90
2, 87125, Note_on_c, 0, 85, 87
2, 87127, Note_on_c, 0, 81, 85
2, 87128, Note_on_c, 0, 89, 57
2, 87128, Note_on_c, 0, 93, 74
2, 87130, Note_on_c, 0, 91, 65
2, 87133, Note_on_c, 0, 88, 57
2, 87142, Note_on_c, 0, 88, 0
2, 87174, Note_on_c, 0, 65, 0
2, 87176, Note_on_c, 0, 89, 0
2, 87177, Note_on_c, 0, 81, 0
2, 87178, Note_on_c, 0, 91, 0
2, 87180, Note_on_c, 0, 85, 0
2, 87180, Note_on_c, 0, 55, 0
2, 87186, Note_on_c, 0, 93, 0
2, 87187, Note_on_c, 0, 61, 0
2, 87244, Note_on_c, 0, 54, 71
2, 87246, Note_on_c, 0, 64, 70
2, 87246, Note_on_c, 0, 59, 73
2, 87246, Note_on_c, 0, 95, 76
2, 87247, Note_on_c, 0, 83, 74
2, 87248, Note_on_c, 0, 88, 78
2, 87255, Note_on_c, 0, 62, 32
2, 87265, Note_on_c, 0, 62, 0
2, 87281, Note_on_c, 0, 83, 0
2, 87282, Note_on_c, 0, 88, 0
2, 87283, Note_on_c, 0, 64, 0
2, 87284, Note_on_c, 0, 59, 0
2, 87290, Note_on_c, 0, 95, 0
2, 87296, Note_on_c, 0, 54, 0
2, 87309, Control_c, 0, 64, 127
2, 87325, Control_c, 0, 64, 0
2, 87363, Note_on_c, 0, 51, 64
2, 87363, Note_on_c, 0, 62, 74
2, 87365, Note_on_c, 0, 57, 68
2, 87366, Note_on_c, 0, 86, 81
2, 87366, Note_on_c, 0, 98, 80
2, 87366, Note_on_c, 0, 91, 69
2, 87368, Note_on_c, 0, 94, 56
2, 87522, Note_on_c, 0, 98, 0
2, 87527, Note_on_c, 0, 94, 0
2, 87528, Note_on_c, 0, 86, 0
2, 87531, Note_on_c, 0, 62, 0
2, 87531, Note_on_c, 0, 91, 0
2, 87535, Note_on_c, 0, 57, 0
2, 87542, Note_on_c, 0, 51, 0
2, 87564, Note_on_c, 0, 51, 47
2, 87564, Note_on_c, 0, 62, 62
2, 87571, Note_on_c, 0, 96, 65
2, 87572, Note_on_c, 0, 94, 52
2, 87572, Note_on_c, 0, 91, 54
2, 87573, Note_on_c, 0, 84, 44
2, 87574, Note_on_c, 0, 57, 48
2, 87583, Note_on_c, 0, 84, 0
2, 87585, Note_on_c, 0, 57, 0
2, 87589, Note_on_c, 0, 91, 0
2, 87590, Note_on_c, 0, 62, 0
2, 87593, Note_on_c, 0, 96, 0
2, 87594, Note_on_c, 0, 51, 0
2, 87600, Note_on_c, 0, 94, 0
2, 87643, Note_on_c, 0, 99, 71
2, 87643, Note_on_c, 0, 87, 70
2, 87644, Note_on_c, 0, 63, 69
2, 87645, Note_on_c, 0, 58, 64
2, 87646, Note_on_c, 0, 94, 61
2, 87647, Note_on_c, 0, 52, 63
2, 87664, Note_on_c, 0, 87, 0
2, 87672, Note_on_c, 0, 94, 0
2, 87674, Note_on_c, 0, 63, 0
2, 87675, Note_on_c, 0, 52, 0
2, 87677, Note_on_c, 0, 99, 0
2, 87683, Note_on_c, 0, 58, 0
2, 87724, Note_on_c, 0, 63, 60
2, 87725, Note_on_c, 0, 58, 55
2, 87728, Note_on_c, 0, 52, 57
2, 87730, Note_on_c, 0, 99, 74
2, 87732, Note_on_c, 0, 87, 68
2, 87732, Note_on_c, 0, 94, 69
2, 87776, Note_on_c, 0, 94, 0
2, 87781, Note_on_c, 0, 52, 0
2, 87784, Note_on_c, 0, 99, 0
2, 87787, Note_on_c, 0, 63, 0
2, 87789, Note_on_c, 0, 87, 0
2, 87797, Note_on_c, 0, 58, 0
2, 87814, Note_on_c, 0, 63, 68
2, 87816, Note_on_c, 0, 53, 58
2, 87816, Note_on_c, 0, 96, 70
2, 87819, Note_on_c, 0, 60, 66
2, 87821, Note_on_c, 0, 84, 35
2, 87822, Note_on_c, 0, 56, 46
2, 87824, Note_on_c, 0, 96, 0
2, 87830, Note_on_c, 0, 84, 0
2, 87839, Note_on_c, 0, 63, 0
2, 87844, Note_on_c, 0, 60, 0
2, 87855, Note_on_c, 0, 56, 0
2, 87856, Note_on_c, 0, 53, 0
2, 88090, Note_on_c, 0, 85, 86
2, 88091, Note_on_c, 0, 73, 84
2, 88092, Note_on_c, 0, 62, 80
2, 88092, Note_on_c, 0, 56, 77
2, 88092, Note_on_c, 0, 66, 80
2, 88095, Note_on_c, 0, 82, 55
2, 88101, Note_on_c, 0, 79, 29
2, 88111, Note_on_c, 0, 79, 0
2, 88114, Note_on_c, 0, 86, 72
2, 88117, Note_on_c, 0, 73, 0
2, 88118, Note_on_c, 0, 74, 75
2, 88121, Note_on_c, 0, 85, 0
2, 88127, Note_on_c, 0, 84, 29
2, 88129, Note_on_c, 0, 79, 31
2, 88167, Note_on_c, 0, 66, 0
2, 88169, Note_on_c, 0, 74, 0
2, 88171, Note_on_c, 0, 86, 0
2, 88176, Note_on_c, 0, 56, 0
2, 88178, Note_on_c, 0, 79, 0
2, 88179, Note_on_c, 0, 84, 0
2, 88187, Note_on_c, 0, 82, 0
2, 88188, Note_on_c, 0, 62, 0
2, 88208, Note_on_c, 0, 85, 75
2, 88209, Note_on_c, 0, 73, 72
2, 88210, Note_on_c, 0, 66, 77
2, 88211, Note_on_c, 0, 56, 71
2, 88212, Note_on_c, 0, 82, 40
2, 88213, Note_on_c, 0, 62, 74
2, 88214, Note_on_c, 0, 79, 61
2, 88235, Note_on_c, 0, 86, 66
2, 88238, Note_on_c, 0, 85, 0
2, 88243, Note_on_c, 0, 73, 0
2, 88243, Note_on_c, 0, 74, 74
2, 88249, Note_on_c, 0, 84, 22
2, 88280, Note_on_c, 0, 86, 0
2, 88283, Note_on_c, 0, 84, 0
2, 88283, Note_on_c, 0, 74, 0
2, 88295, Note_on_c, 0, 79, 0
2, 88299, Note_on_c, 0, 82, 0
2, 88301, Note_on_c, 0, 66, 0
2, 88303, Note_on_c, 0, 56, 0
2, 88307, Note_on_c, 0, 62, 0
2, 88329, Note_on_c, 0, 65, 60
2, 88330, Note_on_c, 0, 70, 62
2, 88330, Note_on_c, 0, 82, 57
2, 88332, Note_on_c, 0, 62, 40
2, 88334, Note_on_c, 0, 60, 53
2, 88338, Note_on_c, 0, 55, 62
2, 88395, Note_on_c, 0, 60, 0
2, 88399, Note_on_c, 0, 65, 0
2, 88401, Note_on_c, 0, 62, 0
2, 88405, Note_on_c, 0, 82, 0
2, 88406, Note_on_c, 0, 70, 0
2, 88409, Note_on_c, 0, 55, 0
2, 88573, Note_on_c, 0, 65, 37
2, 88576, Note_on_c, 0, 54, 34
2, 88576, Note_on_c, 0, 60, 49
2, 88576, Note_on_c, 0, 58, 33
2, 88618, Note_on_c, 0, 60, 0
2, 88629, Note_on_c, 0, 58, 0
2, 88636, Note_on_c, 0, 65, 0
2, 88646, Note_on_c, 0, 54, 0
2, 88806, Note_on_c, 0, 55, 74
2, 88807, Note_on_c, 0, 85, 84
2, 88808, Note_on_c, 0, 53, 66
2, 88808, Note_on_c, 0, 73, 79
2, 88810, Note_on_c, 0, 62, 61
2, 88812, Note_on_c, 0, 58, 48
2, 88842, Note_on_c, 0, 85, 0
2, 88848, Note_on_c, 0, 73, 0
2, 88848, Note_on_c, 0, 86, 73
2, 88850, Note_on_c, 0, 74, 69
2, 88858, Note_on_c, 0, 84, 36
2, 88864, Note_on_c, 0, 58, 0
2, 88872, Note_on_c, 0, 84, 0
2, 88882, Note_on_c, 0, 74, 0
2, 88883, Note_on_c, 0, 86, 0
2, 88891, Note_on_c, 0, 62, 0
2, 88896, Note_on_c, 0, 53, 0
2, 88896, Note_on_c, 0, 55, 0
2, 88922, Note_on_c, 0, 85, 74
2, 88923, Note_on_c, 0, 73, 62
2, 88924, Note_on_c, 0, 53, 54
2, 88925, Note_on_c, 0, 55, 59
2, 88926, Note_on_c, 0, 62, 68
2, 88928, Note_on_c, 0, 58, 51
2, 88957, Note_on_c, 0, 85, 0
2, 88961, Note_on_c, 0, 73, 0
2, 88966, Note_on_c, 0, 74, 53
2, 88968, Note_on_c, 0, 86, 38
2, 88985, Note_on_c, 0, 55, 0
2, 88989, Note_on_c, 0, 62, 0
2, 88990, Note_on_c, 0, 53, 0
2, 88991, Note_on_c, 0, 86, 0
2, 89000, Note_on_c, 0, 74, 0
2, 89024, Note_on_c, 0, 58, 0
2, 89051, Note_on_c, 0, 61, 61
2, 89052, Note_on_c, 0, 58, 52
2, 89054, Note_on_c, 0, 82, 71
2, 89055, Note_on_c, 0, 52, 50
2, 89055, Note_on_c, 0, 70, 69
2, 89115, Note_on_c, 0, 82, 0
2, 89116, Note_on_c, 0, 61, 0
2, 89132, Note_on_c, 0, 52, 0
2, 89133, Note_on_c, 0, 70, 0
2, 89133, Note_on_c, 0, 58, 0
2, 89166, Note_on_c, 0, 52, 44
2, 89167, Note_on_c, 0, 61, 50
2, 89167, Note_on_c, 0, 79, 64
2, 89169, Note_on_c, 0, 67, 63
2, 89170, Note_on_c, 0, 58, 45
2, 89213, Note_on_c, 0, 67, 0
2, 89215, Note_on_c, 0, 79, 0
2, 89215, Note_on_c, 0, 52, 0
2, 89229, Note_on_c, 0, 58, 0
2, 89237, Note_on_c, 0, 61, 0
2, 89285, Note_on_c, 0, 53, 49
2, 89286, Note_on_c, 0, 70, 72
2, 89286, Note_on_c, 0, 82, 73
2, 89286, Note_on_c, 0, 63, 56
2, 89288, Note_on_c, 0, 60, 57
2, 89294, Note_on_c, 0, 75, 34
2, 89294, Note_on_c, 0, 56, 36
2, 89304, Note_on_c, 0, 75, 0
2, 89359, Note_on_c, 0, 63, 0
2, 89361, Note_on_c, 0, 82, 0
2, 89361, Note_on_c, 0, 56, 0
2, 89364, Note_on_c, 0, 60, 0
2, 89370, Note_on_c, 0, 53, 0
2, 89375, Note_on_c, 0, 70, 0
2, 89396, Note_on_c, 0, 63, 45
2, 89397, Note_on_c, 0, 53, 17
2, 89400, Note_on_c, 0, 60, 46
2, 89401, Note_on_c, 0, 80, 48
2, 89403, Note_on_c, 0, 68, 43
2, 89406, Note_on_c, 0, 56, 30
2, 89409, Note_on_c, 0, 75, 34
2, 89431, Note_on_c, 0, 60, 0
2, 89434, Note_on_c, 0, 53, 0
2, 89435, Note_on_c, 0, 68, 0
2, 89436, Note_on_c, 0, 75, 0
2, 89439, Note_on_c, 0, 80, 0
2, 89441, Note_on_c, 0, 56, 0
2, 89465, Note_on_c, 0, 63, 0
2, 89518, Note_on_c, 0, 63, 57
2, 89519, Note_on_c, 0, 54, 46
2, 89521, Note_on_c, 0, 83, 68
2, 89523, Note_on_c, 0, 75, 57
2, 89523, Note_on_c, 0, 59, 54
2, 89524, Note_on_c, 0, 71, 64
2, 89526, Note_on_c, 0, 58, 43
2, 89582, Note_on_c, 0, 83, 0
2, 89586, Note_on_c, 0, 59, 0
2, 89595, Note_on_c, 0, 63, 0
2, 89596, Note_on_c, 0, 71, 0
2, 89600, Note_on_c, 0, 54, 0
2, 89607, Note_on_c, 0, 58, 0
2, 89611, Note_on_c, 0, 75, 0
2, 89639, Note_on_c, 0, 54, 46
2, 89640, Note_on_c, 0, 63, 46
2, 89642, Note_on_c, 0, 75, 51
2, 89642, Note_on_c, 0, 70, 59
2, 89644, Note_on_c, 0, 82, 37
2, 89649, Note_on_c, 0, 58, 26
2, 89654, Note_on_c, 0, 59, 26
2, 89662, Note_on_c, 0, 70, 0
2, 89663, Note_on_c, 0, 59, 0
2, 89665, Note_on_c, 0, 63, 0
2, 89667, Note_on_c, 0, 54, 0
2, 89670, Note_on_c, 0, 75, 0
2, 89671, Note_on_c, 0, 58, 0
2, 89674, Note_on_c, 0, 82, 0
2, 89713, Control_c, 0, 64, 127
2, 89739, Control_c, 0, 64, 0
2, 89763, Note_on_c, 0, 66, 62
2, 89765, Note_on_c, 0, 86, 80
2, 89766, Note_on_c, 0, 80, 57
2, 89767, Note_on_c, 0, 74, 66
2, 89768, Note_on_c, 0, 57, 55
2, 89770, Note_on_c, 0, 62, 53
2, 89771, Note_on_c, 0, 61, 36
2, 89789, Control_c, 0, 64, 127
2, 89837, Note_on_c, 0, 86, 0
2, 89844, Note_on_c, 0, 57, 0
2, 89848, Note_on_c, 0, 74, 0
2, 89853, Note_on_c, 0, 66, 0
2, 89853, Note_on_c, 0, 62, 0
2, 89857, Note_on_c, 0, 61, 0
2, 89872, Note_on_c, 0, 80, 0
2, 89875, Control_c, 0, 64, 0
2, 89882, Note_on_c, 0, 66, 58
2, 89885, Note_on_c, 0, 73, 42
2, 89888, Note_on_c, 0, 85, 45
2, 89890, Note_on_c, 0, 61, 36
2, 89891, Note_on_c, 0, 57, 36
2, 89893, Note_on_c, 0, 62, 46
2, 89894, Note_on_c, 0, 73, 0
2, 89897, Note_on_c, 0, 85, 0
2, 89902, Note_on_c, 0, 66, 0
2, 89902, Note_on_c, 0, 57, 0
2, 89908, Note_on_c, 0, 62, 0
2, 89916, Note_on_c, 0, 61, 0
2, 89940, Control_c, 0, 64, 127
2, 89984, Control_c, 0, 64, 0
2, 90018, Control_c, 0, 64, 127
2, 90110, Control_c, 0, 64, 0
2, 90124, Note_on_c, 0, 66, 75
2, 90124, Note_on_c, 0, 56, 71
2, 90125, Note_on_c, 0, 91, 83
2, 90126, Note_on_c, 0, 62, 68
2, 90126, Note_on_c, 0, 86, 91
2, 90127, Note_on_c, 0, 79, 83
2, 90134, Note_on_c, 0, 89, 28
2, 90143, Note_on_c, 0, 89, 0
2, 90151, Control_c, 0, 64, 127
2, 90167, Note_on_c, 0, 91, 0
2, 90176, Note_on_c, 0, 79, 0
2, 90178, Note_on_c, 0, 66, 0
2, 90182, Note_on_c, 0, 86, 0
2, 90186, Note_on_c, 0, 56, 0
2, 90207, Note_on_c, 0, 66, 56
2, 90207, Note_on_c, 0, 56, 59
2, 90212, Note_on_c, 0, 90, 55
2, 90214, Note_on_c, 0, 78, 42
2, 90218, Note_on_c, 0, 85, 48
2, 90227, Control_c, 0, 64, 0
2, 90242, Note_on_c, 0, 66, 0
2, 90246, Note_on_c, 0, 90, 0
2, 90246, Note_on_c, 0, 56, 0
2, 90247, Note_on_c, 0, 85, 0
2, 90248, Note_on_c, 0, 78, 0
2, 90265, Note_on_c, 0, 65, 51
2, 90273, Note_on_c, 0, 60, 41
2, 90273, Note_on_c, 0, 55, 47
2, 90274, Note_on_c, 0, 89, 67
2, 90278, Note_on_c, 0, 77, 42
2, 90303, Control_c, 0, 64, 127
2, 90326, Note_on_c, 0, 60, 0
2, 90332, Note_on_c, 0, 55, 0
2, 90332, Note_on_c, 0, 65, 0
2, 90334, Control_c, 0, 64, 0
2, 90343, Note_on_c, 0, 62, 0
2, 90343, Note_on_c, 0, 77, 0
2, 90346, Note_on_c, 0, 89, 0
2, 90368, Note_on_c, 0, 65, 47
2, 90370, Note_on_c, 0, 62, 35
2, 90371, Note_on_c, 0, 55, 51
2, 90371, Note_on_c, 0, 86, 65
2, 90376, Control_c, 0, 64, 127
2, 90389, Note_on_c, 0, 62, 0
2, 90393, Note_on_c, 0, 65, 0
2, 90403, Note_on_c, 0, 86, 0
2, 90407, Note_on_c, 0, 55, 0
2, 90456, Control_c, 0, 64, 0
2, 90457, Note_on_c, 0, 61, 64
2, 90457, Note_on_c, 0, 66, 69
2, 90457, Note_on_c, 0, 55, 74
2, 90458, Note_on_c, 0, 85, 68
2, 90458, Note_on_c, 0, 89, 69
2, 90458, Note_on_c, 0, 77, 64
2, 90543, Control_c, 0, 64, 127
2, 90638, Note_on_c, 0, 77, 0
2, 90638, Note_on_c, 0, 66, 0
2, 90642, Note_on_c, 0, 85, 0
2, 90662, Note_on_c, 0, 55, 0
2, 90677, Note_on_c, 0, 89, 0
2, 90706, Note_on_c, 0, 61, 0
2, 90723, Note_on_c, 0, 65, 57
2, 90728, Control_c, 0, 64, 0
2, 90728, Note_on_c, 0, 54, 39
2, 90729, Note_on_c, 0, 60, 55
2, 90850, Note_on_c, 0, 98, 96
2, 90850, Note_on_c, 0, 96, 95
2, 90873, Note_on_c, 0, 96, 0
2, 90875, Note_on_c, 0, 60, 0
2, 90891, Note_on_c, 0, 65, 0
2, 90917, Note_on_c, 0, 98, 0
2, 90918, Note_on_c, 0, 54, 0
2, 90925, Note_on_c, 0, 53, 60
2, 90927, Note_on_c, 0, 64, 67
2, 90930, Note_on_c, 0, 59, 64
2, 90931, Note_on_c, 0, 101, 84
2, 90978, Note_on_c, 0, 101, 0
2, 90997, Note_on_c, 0, 99, 70
2, 91046, Note_on_c, 0, 99, 0
2, 91065, Note_on_c, 0, 95, 22
2, 91087, Note_on_c, 0, 95, 0
2, 91098, Note_on_c, 0, 59, 0
2, 91106, Note_on_c, 0, 64, 0
2, 91112, Note_on_c, 0, 96, 72
2, 91124, Note_on_c, 0, 53, 0
2, 91163, Note_on_c, 0, 96, 0
2, 91172, Note_on_c, 0, 62, 75
2, 91173, Note_on_c, 0, 98, 81
2, 91175, Note_on_c, 0, 51, 57
2, 91180, Note_on_c, 0, 57, 58
2, 91189, Note_on_c, 0, 57, 0
2, 91193, Note_on_c, 0, 62, 0
2, 91203, Note_on_c, 0, 51, 0
2, 91218, Note_on_c, 0, 98, 0
2, 91235, Note_on_c, 0, 96, 39
2, 91267, Note_on_c, 0, 96, 0
2, 91330, Note_on_c, 0, 96, 73
2, 91385, Note_on_c, 0, 96, 0
2, 91445, Note_on_c, 0, 96, 81
2, 91512, Note_on_c, 0, 96, 0
2, 91525, Note_on_c, 0, 94, 59
2, 91534, Note_on_c, 0, 57, 37
2, 91546, Note_on_c, 0, 57, 0
2, 91548, Note_on_c, 0, 94, 0
2, 91572, Note_on_c, 0, 92, 51
2, 91586, Note_on_c, 0, 92, 0
2, 91680, Note_on_c, 0, 91, 53
2, 91682, Note_on_c, 0, 63, 30
2, 91683, Note_on_c, 0, 67, 38
2, 91685, Note_on_c, 0, 56, 25
2, 91715, Note_on_c, 0, 63, 0
2, 91722, Note_on_c, 0, 67, 0
2, 91735, Note_on_c, 0, 56, 0
2, 91740, Note_on_c, 0, 91, 0
2, 91804, Note_on_c, 0, 89, 78
2, 91868, Note_on_c, 0, 89, 0
2, 91884, Note_on_c, 0, 87, 65
2, 91886, Note_on_c, 0, 66, 53
2, 91886, Note_on_c, 0, 62, 54
2, 91895, Note_on_c, 0, 56, 23
2, 91903, Note_on_c, 0, 66, 0
2, 91912, Note_on_c, 0, 62, 0
2, 91918, Note_on_c, 0, 87, 0
2, 91927, Note_on_c, 0, 56, 0
2, 91932, Note_on_c, 0, 86, 55
2, 91982, Note_on_c, 0, 86, 0
2, 92007, Note_on_c, 0, 87, 62
2, 92014, Note_on_c, 0, 62, 29
2, 92025, Note_on_c, 0, 87, 0
2, 92040, Note_on_c, 0, 89, 81
2, 92044, Note_on_c, 0, 62, 0
2, 92095, Note_on_c, 0, 89, 0
2, 92117, Note_on_c, 0, 85, 49
2, 92122, Note_on_c, 0, 62, 60
2, 92123, Note_on_c, 0, 65, 61
2, 92126, Note_on_c, 0, 60, 55
2, 92132, Note_on_c, 0, 86, 74
2, 92136, Note_on_c, 0, 65, 0
2, 92140, Note_on_c, 0, 85, 0
2, 92157, Note_on_c, 0, 62, 0
2, 92163, Note_on_c, 0, 60, 0
2, 92164, Note_on_c, 0, 86, 0
2, 92182, Note_on_c, 0, 79, 32
2, 92252, Note_on_c, 0, 80, 57
2, 92253, Note_on_c, 0, 79, 0
2, 92273, Note_on_c, 0, 80, 0
2, 92289, Note_on_c, 0, 82, 70
2, 92361, Note_on_c, 0, 78, 44
2, 92362, Note_on_c, 0, 82, 0
2, 92373, Note_on_c, 0, 65, 59
2, 92379, Note_on_c, 0, 60, 48
2, 92380, Note_on_c, 0, 54, 23
2, 92382, Note_on_c, 0, 65, 0
2, 92391, Note_on_c, 0, 54, 0
2, 92396, Note_on_c, 0, 78, 0
2, 92402, Note_on_c, 0, 60, 0
2, 92414, Note_on_c, 0, 70, 53
2, 92502, Note_on_c, 0, 70, 0
2, 92508, Note_on_c, 0, 58, 23
2, 92527, Note_on_c, 0, 70, 57
2, 92529, Note_on_c, 0, 58, 0
2, 92610, Note_on_c, 0, 62, 51
2, 92612, Note_on_c, 0, 58, 39
2, 92619, Note_on_c, 0, 62, 0
2, 92632, Note_on_c, 0, 58, 0
2, 92634, Note_on_c, 0, 70, 0
2, 92641, Note_on_c, 0, 70, 63
2, 92729, Note_on_c, 0, 70, 0
2, 92761, Note_on_c, 0, 68, 60
2, 92824, Note_on_c, 0, 68, 0
2, 92842, Note_on_c, 0, 67, 72
2, 92850, Note_on_c, 0, 58, 48
2, 92853, Note_on_c, 0, 60, 36
2, 92856, Note_on_c, 0, 52, 34
2, 92863, Note_on_c, 0, 60, 0
2, 92867, Note_on_c, 0, 52, 0
2, 92872, Note_on_c, 0, 58, 0
2, 92886, Note_on_c, 0, 67, 0
2, 92904, Note_on_c, 0, 65, 33
2, 92952, Note_on_c, 0, 65, 0
2, 92968, Note_on_c, 0, 64, 38
2, 92981, Note_on_c, 0, 58, 20
2, 92991, Note_on_c, 0, 58, 0
2, 92995, Note_on_c, 0, 64, 0
2, 93007, Note_on_c, 0, 67, 83
2, 93090, Note_on_c, 0, 67, 0
2, 93094, Note_on_c, 0, 64, 40
2, 93105, Note_on_c, 0, 56, 27
2, 93107, Note_on_c, 0, 53, 33
2, 93115, Note_on_c, 0, 64, 0
2, 93127, Note_on_c, 0, 56, 0
2, 93128, Note_on_c, 0, 65, 57
2, 93135, Note_on_c, 0, 53, 0
2, 93205, Note_on_c, 0, 65, 0
2, 93217, Note_on_c, 0, 60, 33
2, 93456, Note_on_c, 0, 51, 33
2, 93465, Note_on_c, 0, 51, 0
2, 93468, Note_on_c, 0, 60, 0
2, 93477, Note_on_c, 0, 70, 74
2, 93554, Note_on_c, 0, 70, 0
2, 93565, Note_on_c, 0, 63, 60
2, 93692, Note_on_c, 0, 57, 37
2, 93695, Note_on_c, 0, 63, 0
2, 93703, Note_on_c, 0, 57, 0
2, 93722, Note_on_c, 0, 74, 74
2, 93794, Note_on_c, 0, 74, 0
2, 93806, Note_on_c, 0, 66, 50
2, 93811, Note_on_c, 0, 57, 47
2, 93823, Note_on_c, 0, 57, 0
2, 93875, Control_c, 0, 64, 127
2, 93930, Note_on_c, 0, 66, 0
2, 93958, Control_c, 0, 64, 0
2, 93970, Note_on_c, 0, 77, 61
2, 94040, Note_on_c, 0, 77, 0
2, 94050, Note_on_c, 0, 74, 62
2, 94052, Note_on_c, 0, 66, 54
2, 94055, Note_on_c, 0, 62, 44
2, 94057, Note_on_c, 0, 56, 28
2, 94063, Note_on_c, 0, 66, 0
2, 94069, Note_on_c, 0, 74, 0
2, 94069, Note_on_c, 0, 62, 0
2, 94091, Note_on_c, 0, 56, 0
2, 94133, Control_c, 0, 64, 127
2, 94177, Note_on_c, 0, 62, 47
2, 94185, Control_c, 0, 64, 0
2, 94191, Note_on_c, 0, 62, 0
2, 94211, Note_on_c, 0, 65, 52
2, 94212, Note_on_c, 0, 82, 59
2, 94212, Note_on_c, 0, 62, 16
2, 94215, Note_on_c, 0, 70, 60
2, 94218, Note_on_c, 0, 60, 43
2, 94220, Note_on_c, 0, 55, 33
2, 94242, Control_c, 0, 64, 127
2, 94243, Note_on_c, 0, 65, 0
2, 94258, Note_on_c, 0, 60, 0
2, 94260, Note_on_c, 0, 55, 0
2, 94264, Note_on_c, 0, 82, 0
2, 94267, Note_on_c, 0, 62, 0
2, 94273, Note_on_c, 0, 70, 0
2, 94294, Control_c, 0, 64, 0
2, 94298, Note_on_c, 0, 55, 54
2, 94300, Note_on_c, 0, 67, 66
2, 94300, Note_on_c, 0, 62, 35
2, 94302, Note_on_c, 0, 79, 43
2, 94309, Note_on_c, 0, 67, 0
2, 94309, Note_on_c, 0, 77, 31
2, 94311, Note_on_c, 0, 62, 0
2, 94320, Note_on_c, 0, 77, 0
2, 94324, Note_on_c, 0, 55, 0
2, 94325, Note_on_c, 0, 79, 0
2, 94408, Note_on_c, 0, 66, 70
2, 94409, Note_on_c, 0, 55, 70
2, 94409, Note_on_c, 0, 61, 54
2, 94410, Note_on_c, 0, 84, 70
2, 94410, Note_on_c, 0, 72, 60
2, 94422, Note_on_c, 0, 72, 0
2, 94422, Note_on_c, 0, 55, 0
2, 94425, Note_on_c, 0, 66, 0
2, 94430, Note_on_c, 0, 84, 0
2, 94440, Note_on_c, 0, 61, 0
2, 94528, Note_on_c, 0, 65, 70
2, 94530, Note_on_c, 0, 54, 50
2, 94530, Note_on_c, 0, 60, 63
2, 94531, Note_on_c, 0, 84, 62
2, 94532, Note_on_c, 0, 77, 58
2, 94532, Note_on_c, 0, 58, 44
2, 94533, Note_on_c, 0, 89, 57
2, 94540, Note_on_c, 0, 84, 0
2, 94543, Note_on_c, 0, 77, 0
2, 94543, Note_on_c, 0, 65, 0
2, 94553, Note_on_c, 0, 60, 0
2, 94553, Note_on_c, 0, 89, 0
2, 94561, Note_on_c, 0, 54, 0
2, 94562, Note_on_c, 0, 58, 0
2, 94649, Note_on_c, 0, 58, 61
2, 94649, Note_on_c, 0, 65, 73
2, 94650, Note_on_c, 0, 94, 73
2, 94651, Note_on_c, 0, 60, 70
2, 94651, Note_on_c, 0, 54, 56
2, 94652, Note_on_c, 0, 82, 53
2, 94658, Note_on_c, 0, 65, 0
2, 94660, Note_on_c, 0, 82, 0
2, 94663, Note_on_c, 0, 60, 0
2, 94669, Note_on_c, 0, 94, 0
2, 94671, Note_on_c, 0, 54, 0
2, 94684, Note_on_c, 0, 58, 0
2, 94765, Note_on_c, 0, 59, 74
2, 94765, Note_on_c, 0, 64, 76
2, 94769, Note_on_c, 0, 53, 58
2, 94769, Note_on_c, 0, 92, 63
2, 94769, Note_on_c, 0, 80, 67
2, 94772, Note_on_c, 0, 56, 33
2, 94775, Note_on_c, 0, 90, 39
2, 94776, Note_on_c, 0, 64, 0
2, 94777, Note_on_c, 0, 53, 0
2, 94782, Note_on_c, 0, 56, 0
2, 94784, Note_on_c, 0, 92, 0
2, 94786, Note_on_c, 0, 90, 0
2, 94787, Note_on_c, 0, 80, 0
2, 94795, Note_on_c, 0, 59, 0
2, 94808, Note_on_c, 0, 53, 69
2, 94808, Note_on_c, 0, 63, 74
2, 94811, Note_on_c, 0, 59, 68
2, 94813, Note_on_c, 0, 56, 39
2, 94816, Note_on_c, 0, 81, 67
2, 94817, Note_on_c, 0, 93, 63
2, 94823, Note_on_c, 0, 92, 37
2, 94833, Control_c, 0, 64, 127
2, 94842, Note_on_c, 0, 93, 0
2, 94843, Note_on_c, 0, 81, 0
2, 94850, Note_on_c, 0, 92, 0
2, 94885, Note_on_c, 0, 56, 0
2, 94886, Note_on_c, 0, 53, 0
2, 94891, Note_on_c, 0, 63, 0
2, 94893, Control_c, 0, 64, 0
2, 94896, Note_on_c, 0, 59, 0
2, 94920, Note_on_c, 0, 63, 82
2, 94921, Note_on_c, 0, 59, 65
2, 94924, Note_on_c, 0, 53, 76
2, 94924, Note_on_c, 0, 56, 60
2, 94925, Note_on_c, 0, 96, 66
2, 94926, Note_on_c, 0, 83, 57
2, 94927, Note_on_c, 0, 95, 60
2, 94928, Note_on_c, 0, 84, 64
2, 94941, Note_on_c, 0, 83, 0
2, 94946, Note_on_c, 0, 95, 0
2, 94947, Note_on_c, 0, 84, 0
2, 94956, Note_on_c, 0, 96, 0
2, 94967, Note_on_c, 0, 59, 0
2, 94987, Note_on_c, 0, 97, 34
2, 94990, Note_on_c, 0, 53, 0
2, 94996, Note_on_c, 0, 63, 0
2, 95002, Note_on_c, 0, 97, 0
2, 95019, Note_on_c, 0, 56, 0
2, 95034, Note_on_c, 0, 97, 46
2, 95035, Note_on_c, 0, 62, 87
2, 95036, Note_on_c, 0, 85, 83
2, 95038, Note_on_c, 0, 51, 63
2, 95038, Note_on_c, 0, 57, 71
2, 95041, Note_on_c, 0, 98, 66
2, 95045, Note_on_c, 0, 55, 41
2, 95055, Note_on_c, 0, 55, 0
2, 95060, Note_on_c, 0, 51, 0
2, 95062, Note_on_c, 0, 62, 0
2, 95067, Note_on_c, 0, 97, 0
2, 95070, Note_on_c, 0, 85, 0
2, 95070, Note_on_c, 0, 98, 0
2, 95074, Note_on_c, 0, 57, 0
2, 95075, Note_on_c, 0, 86, 66
2, 95113, Note_on_c, 0, 98, 48
2, 95134, Note_on_c, 0, 86, 0
2, 95141, Note_on_c, 0, 57, 48
2, 95146, Note_on_c, 0, 98, 0
2, 95154, Note_on_c, 0, 57, 0
2, 95157, Note_on_c, 0, 96, 34
2, 95160, Note_on_c, 0, 84, 58
2, 95212, Note_on_c, 0, 84, 0
2, 95216, Note_on_c, 0, 96, 0
2, 95276, Note_on_c, 0, 62, 54
2, 95280, Note_on_c, 0, 51, 28
2, 95281, Note_on_c, 0, 57, 43
2, 95312, Note_on_c, 0, 57, 0
2, 95316, Note_on_c, 0, 62, 0
2, 95323, Note_on_c, 0, 51, 0
2, 95401, Note_on_c, 0, 99, 77
2, 95410, Note_on_c, 0, 100, 46
2, 95419, Note_on_c, 0, 100, 0
2, 95446, Note_on_c, 0, 99, 0
2, 95478, Note_on_c, 0, 63, 76
2, 95480, Note_on_c, 0, 100, 84
2, 95481, Note_on_c, 0, 58, 63
2, 95483, Note_on_c, 0, 52, 59
2, 95492, Note_on_c, 0, 52, 0
2, 95499, Note_on_c, 0, 63, 0
2, 95524, Note_on_c, 0, 58, 0
2, 95525, Note_on_c, 0, 100, 0
2, 95545, Note_on_c, 0, 99, 56
2, 95590, Note_on_c, 0, 99, 0
2, 95634, Note_on_c, 0, 97, 73
2, 95712, Note_on_c, 0, 97, 0
2, 95717, Note_on_c, 0, 67, 58
2, 95718, Note_on_c, 0, 63, 52
2, 95723, Note_on_c, 0, 56, 30
2, 95726, Note_on_c, 0, 96, 66
2, 95726, Note_on_c, 0, 60, 50
2, 95737, Note_on_c, 0, 56, 0
2, 95738, Note_on_c, 0, 67, 0
2, 95751, Note_on_c, 0, 63, 0
2, 95764, Note_on_c, 0, 60, 0
2, 95770, Note_on_c, 0, 96, 0
2, 95793, Note_on_c, 0, 94, 47
2, 95850, Note_on_c, 0, 92, 72
2, 95851, Note_on_c, 0, 62, 56
2, 95851, Note_on_c, 0, 66, 49
2, 95853, Note_on_c, 0, 56, 42
2, 95861, Note_on_c, 0, 94, 0
2, 95892, Note_on_c, 0, 66, 0
2, 95897, Note_on_c, 0, 92, 0
2, 95911, Note_on_c, 0, 91, 31
2, 95940, Note_on_c, 0, 56, 0
2, 95941, Note_on_c, 0, 62, 0
2, 95960, Note_on_c, 0, 91, 0
2, 95975, Note_on_c, 0, 62, 37
2, 95975, Note_on_c, 0, 65, 48
2, 95978, Note_on_c, 0, 90, 59
2, 95982, Note_on_c, 0, 60, 37
2, 95991, Note_on_c, 0, 65, 0
2, 96007, Note_on_c, 0, 60, 0
2, 96013, Note_on_c, 0, 90, 0
2, 96017, Note_on_c, 0, 62, 0
2, 96024, Note_on_c, 0, 93, 76
2, 96098, Note_on_c, 0, 93, 0
2, 96101, Note_on_c, 0, 90, 37
2, 96120, Note_on_c, 0, 90, 0
2, 96136, Note_on_c, 0, 91, 71
2, 96207, Note_on_c, 0, 91, 0
2, 96211, Note_on_c, 0, 62, 55
2, 96212, Note_on_c, 0, 86, 63
2, 96216, Note_on_c, 0, 65, 35
2, 96217, Note_on_c, 0, 60, 41
2, 96227, Note_on_c, 0, 65, 0
2, 96231, Note_on_c, 0, 60, 0
2, 96236, Note_on_c, 0, 62, 0
2, 96244, Note_on_c, 0, 86, 0
2, 96265, Note_on_c, 0, 82, 39
2, 96331, Note_on_c, 0, 82, 0
2, 96368, Note_on_c, 0, 65, 46
2, 96373, Note_on_c, 0, 54, 32
2, 96374, Note_on_c, 0, 60, 47
2, 96377, Note_on_c, 0, 58, 34
2, 96415, Note_on_c, 0, 65, 0
2, 96417, Note_on_c, 0, 60, 0
2, 96438, Note_on_c, 0, 58, 0
2, 96465, Note_on_c, 0, 54, 0
2, 96493, Note_on_c, 0, 58, 43
2, 96494, Note_on_c, 0, 62, 40
2, 96499, Note_on_c, 0, 53, 29
2, 96501, Note_on_c, 0, 55, 39
2, 96504, Note_on_c, 0, 84, 80
2, 96525, Note_on_c, 0, 84, 0
2, 96528, Note_on_c, 0, 58, 0
2, 96535, Note_on_c, 0, 85, 49
2, 96537, Note_on_c, 0, 53, 0
2, 96541, Note_on_c, 0, 55, 0
2, 96550, Note_on_c, 0, 62, 0
2, 96564, Note_on_c, 0, 84, 47
2, 96571, Note_on_c, 0, 85, 0
2, 96594, Note_on_c, 0, 84, 0
2, 96594, Note_on_c, 0, 82, 62
2, 96618, Note_on_c, 0, 82, 0
2, 96640, Note_on_c, 0, 80, 30
2, 96700, Note_on_c, 0, 80, 0
2, 96703, Note_on_c, 0, 79, 68
2, 96708, Note_on_c, 0, 58, 42
2, 96709, Note_on_c, 0, 60, 47
2, 96720, Note_on_c, 0, 60, 0
2, 96733, Note_on_c, 0, 58, 0
2, 96740, Note_on_c, 0, 79, 0
2, 96758, Note_on_c, 0, 77, 44
2, 96824, Note_on_c, 0, 77, 0
2, 96831, Note_on_c, 0, 76, 24
2, 96843, Note_on_c, 0, 76, 0
2, 96859, Note_on_c, 0, 79, 68
2, 96914, Note_on_c, 0, 79, 0
2, 96928, Note_on_c, 0, 73, 53
2, 96933, Note_on_c, 0, 60, 60
2, 96935, Note_on_c, 0, 63, 52
2, 96942, Note_on_c, 0, 56, 28
2, 96946, Note_on_c, 0, 63, 0
2, 96962, Note_on_c, 0, 60, 0
2, 96980, Note_on_c, 0, 73, 0
2, 96982, Note_on_c, 0, 56, 0
2, 96987, Note_on_c, 0, 72, 34
2, 97044, Note_on_c, 0, 72, 0
2, 97051, Note_on_c, 0, 70, 49
2, 97094, Note_on_c, 0, 70, 0
2, 97100, Note_on_c, 0, 68, 34
2, 97174, Note_on_c, 0, 63, 27
2, 97176, Note_on_c, 0, 67, 49
2, 97179, Note_on_c, 0, 68, 0
2, 97191, Note_on_c, 0, 63, 0
2, 97195, Note_on_c, 0, 67, 0
2, 97212, Note_on_c, 0, 71, 64
2, 97304, Note_on_c, 0, 71, 0
2, 97304, Note_on_c, 0, 59, 27
2, 97317, Note_on_c, 0, 59, 0
2, 97322, Note_on_c, 0, 70, 64
2, 97402, Note_on_c, 0, 68, 56
2, 97422, Note_on_c, 0, 70, 0
2, 97426, Note_on_c, 0, 68, 0
2, 97455, Note_on_c, 0, 66, 33
2, 97513, Note_on_c, 0, 57, 38
2, 97520, Note_on_c, 0, 47, 24
2, 97525, Note_on_c, 0, 57, 0
2, 97533, Note_on_c, 0, 47, 0
2, 97546, Note_on_c, 0, 66, 0
2, 97556, Note_on_c, 0, 62, 55
2, 97644, Note_on_c, 0, 62, 0
2, 97677, Note_on_c, 0, 65, 58
2, 97687, Note_on_c, 0, 63, 33
2, 97699, Note_on_c, 0, 63, 0
2, 97779, Note_on_c, 0, 65, 0
2, 97801, Note_on_c, 0, 56, 65
2, 97985, Note_on_c, 0, 56, 0
2, 98004, Note_on_c, 0, 55, 75
2, 98014, Note_on_c, 0, 39, 32
2, 98019, Note_on_c, 0, 46, 23
2, 98027, Note_on_c, 0, 39, 0
2, 98031, Note_on_c, 0, 46, 0
2, 98127, Note_on_c, 0, 54, 51
2, 98134, Note_on_c, 0, 55, 0
2, 98155, Note_on_c, 0, 54, 0
2, 98165, Note_on_c, 0, 57, 64
2, 98241, Note_on_c, 0, 57, 0
2, 98247, Note_on_c, 0, 54, 37
2, 98256, Note_on_c, 0, 39, 28
2, 98258, Note_on_c, 0, 46, 30
2, 98268, Note_on_c, 0, 39, 0
2, 98272, Note_on_c, 0, 54, 0
2, 98279, Note_on_c, 0, 46, 0
2, 98283, Note_on_c, 0, 55, 57
2, 98359, Note_on_c, 0, 55, 0
2, 98366, Note_on_c, 0, 57, 46
2, 98402, Note_on_c, 0, 57, 0
2, 98413, Note_on_c, 0, 58, 39
2, 98431, Note_on_c, 0, 58, 0
2, 98450, Note_on_c, 0, 60, 63
2, 98477, Note_on_c, 0, 60, 0
2, 98484, Note_on_c, 0, 63, 57
2, 98503, Note_on_c, 0, 63, 0
2, 98527, Note_on_c, 0, 65, 57
2, 98556, Note_on_c, 0, 65, 0
2, 98563, Note_on_c, 0, 70, 58
2, 98584, Note_on_c, 0, 70, 0
2, 98604, Note_on_c, 0, 72, 55
2, 98610, Note_on_c, 0, 65, 53
2, 98612, Note_on_c, 0, 54, 38
2, 98613, Note_on_c, 0, 60, 49
2, 98621, Note_on_c, 0, 65, 0
2, 98638, Note_on_c, 0, 72, 0
2, 98638, Note_on_c, 0, 60, 0
2, 98647, Note_on_c, 0, 54, 0
2, 98649, Note_on_c, 0, 77, 60
2, 98681, Note_on_c, 0, 77, 0
2, 98690, Note_on_c, 0, 82, 67
2, 98713, Note_on_c, 0, 82, 0
2, 98725, Note_on_c, 0, 72, 74
2, 98726, Note_on_c, 0, 84, 90
2, 98741, Note_on_c, 0, 54, 30
2, 98756, Note_on_c, 0, 72, 0
2, 98763, Note_on_c, 0, 84, 0
2, 98772, Note_on_c, 0, 54, 0
2, 98775, Note_on_c, 0, 81, 53
2, 98828, Note_on_c, 0, 81, 0
2, 98843, Note_on_c, 0, 78, 44
2, 98851, Note_on_c, 0, 57, 43
2, 98854, Note_on_c, 0, 62, 34
2, 98857, Note_on_c, 0, 55, 40
2, 98870, Note_on_c, 0, 78, 0
2, 98882, Note_on_c, 0, 58, 3
2, 98886, Note_on_c, 0, 81, 68
2, 98936, Note_on_c, 0, 57, 0
2, 98947, Note_on_c, 0, 58, 0
2, 98949, Note_on_c, 0, 55, 0
2, 98949, Note_on_c, 0, 62, 0
2, 98954, Note_on_c, 0, 81, 0
2, 98999, Note_on_c, 0, 80, 45
2, 99000, Note_on_c, 0, 62, 53
2, 99002, Note_on_c, 0, 58, 37
2, 99004, Note_on_c, 0, 57, 45
2, 99006, Note_on_c, 0, 55, 44
2, 99008, Note_on_c, 0, 81, 61
2, 99021, Note_on_c, 0, 80, 0
2, 99068, Note_on_c, 0, 57, 0
2, 99079, Note_on_c, 0, 62, 0
2, 99084, Note_on_c, 0, 55, 0
2, 99084, Note_on_c, 0, 81, 0
2, 99085, Note_on_c, 0, 58, 0
2, 99132, Note_on_c, 0, 62, 50
2, 99132, Note_on_c, 0, 58, 44
2, 99134, Note_on_c, 0, 81, 59
2, 99134, Note_on_c, 0, 57, 54
2, 99136, Note_on_c, 0, 55, 51
2, 99190, Note_on_c, 0, 55, 0
2, 99192, Note_on_c, 0, 62, 0
2, 99194, Note_on_c, 0, 57, 0
2, 99197, Note_on_c, 0, 58, 0
2, 99199, Note_on_c, 0, 81, 0
2, 99216, Note_on_c, 0, 82, 71
2, 99218, Note_on_c, 0, 70, 62
2, 99219, Note_on_c, 0, 62, 60
2, 99220, Note_on_c, 0, 58, 45
2, 99221, Note_on_c, 0, 57, 57
2, 99222, Note_on_c, 0, 55, 55
2, 99241, Note_on_c, 0, 62, 0
2, 99249, Note_on_c, 0, 57, 0
2, 99250, Note_on_c, 0, 82, 0
2, 99253, Note_on_c, 0, 70, 0
2, 99261, Note_on_c, 0, 62, 50
2, 99266, Note_on_c, 0, 57, 22
2, 99266, Note_on_c, 0, 81, 46
2, 99276, Note_on_c, 0, 69, 34
2, 99314, Note_on_c, 0, 58, 0
2, 99315, Note_on_c, 0, 62, 0
2, 99316, Note_on_c, 0, 69, 0
2, 99317, Note_on_c, 0, 57, 0
2, 99320, Note_on_c, 0, 81, 0
2, 99323, Note_on_c, 0, 55, 0
2, 99344, Note_on_c, 0, 62, 49
2, 99346, Note_on_c, 0, 69, 61
2, 99347, Note_on_c, 0, 58, 48
2, 99348, Note_on_c, 0, 55, 30
2, 99349, Note_on_c, 0, 81, 31
2, 99356, Note_on_c, 0, 69, 0
2, 99362, Note_on_c, 0, 62, 0
2, 99363, Note_on_c, 0, 81, 0
2, 99371, Note_on_c, 0, 58, 0
2, 99378, Note_on_c, 0, 55, 0
2, 99605, Note_on_c, 0, 63, 77
2, 99606, Note_on_c, 0, 55, 73
2, 99610, Note_on_c, 0, 79, 84
2, 99610, Note_on_c, 0, 74, 89
2, 99610, Note_on_c, 0, 86, 99
2, 99612, Note_on_c, 0, 82, 59
2, 99612, Note_on_c, 0, 60, 58
2, 99620, Note_on_c, 0, 82, 0
2, 99624, Note_on_c, 0, 60, 0
2, 99638, Note_on_c, 0, 79, 0
2, 99639, Note_on_c, 0, 74, 0
2, 99644, Note_on_c, 0, 86, 0
2, 99644, Note_on_c, 0, 63, 0
2, 99645, Note_on_c, 0, 55, 0
2, 99725, Note_on_c, 0, 54, 64
2, 99725, Note_on_c, 0, 65, 61
2, 99726, Note_on_c, 0, 60, 60
2, 99726, Note_on_c, 0, 79, 73
2, 99727, Note_on_c, 0, 58, 43
2, 99727, Note_on_c, 0, 72, 70
2, 99729, Note_on_c, 0, 84, 66
2, 99729, Note_on_c, 0, 86, 70
2, 99730, Note_on_c, 0, 64, 67
2, 99737, Note_on_c, 0, 64, 0
2, 99737, Note_on_c, 0, 86, 0
2, 99742, Note_on_c, 0, 65, 0
2, 99750, Note_on_c, 0, 60, 0
2, 99754, Note_on_c, 0, 84, 0
2, 99763, Note_on_c, 0, 79, 0
2, 99766, Note_on_c, 0, 58, 0
2, 99776, Note_on_c, 0, 72, 0
2, 99783, Note_on_c, 0, 54, 0
2, 99854, Note_on_c, 0, 62, 74
2, 99855, Note_on_c, 0, 80, 65
2, 99855, Note_on_c, 0, 58, 55
2, 99856, Note_on_c, 0, 72, 77
2, 99857, Note_on_c, 0, 78, 48
2, 99857, Note_on_c, 0, 55, 56
2, 99858, Note_on_c, 0, 57, 53
2, 99859, Note_on_c, 0, 84, 62
2, 99864, Note_on_c, 0, 83, 35
2, 99873, Note_on_c, 0, 83, 0
2, 99887, Note_on_c, 0, 78, 0
2, 99900, Note_on_c, 0, 80, 0
2, 99906, Note_on_c, 0, 81, 41
2, 99923, Note_on_c, 0, 84, 0
2, 99934, Note_on_c, 0, 72, 0
2, 99940, Note_on_c, 0, 62, 0
2, 99940, Note_on_c, 0, 55, 0
2, 99941, Note_on_c, 0, 81, 0
2, 99942, Note_on_c, 0, 57, 0
2, 99949, Note_on_c, 0, 58, 0
2, 99972, Note_on_c, 0, 62, 55
2, 99973, Note_on_c, 0, 82, 60
2, 99975, Note_on_c, 0, 70, 60
2, 99975, Note_on_c, 0, 58, 32
2, 99978, Note_on_c, 0, 55, 38
2, 99978, Note_on_c, 0, 57, 40
2, 99992, Control_c, 0, 64, 127
2, 100030, Note_on_c, 0, 57, 0
2, 100031, Note_on_c, 0, 55, 0
2, 100034, Note_on_c, 0, 62, 0
2, 100036, Note_on_c, 0, 82, 0
2, 100039, Note_on_c, 0, 70, 0
2, 100039, Note_on_c, 0, 58, 0
2, 100052, Control_c, 0, 64, 0
2, 100060, Note_on_c, 0, 81, 56
2, 100060, Note_on_c, 0, 62, 58
2, 100061, Note_on_c, 0, 69, 65
2, 100062, Note_on_c, 0, 58, 35
2, 100064, Note_on_c, 0, 55, 42
2, 100081, Note_on_c, 0, 69, 0
2, 100082, Note_on_c, 0, 81, 0
2, 100089, Note_on_c, 0, 62, 0
2, 100093, Note_on_c, 0, 55, 0
2, 100097, Note_on_c, 0, 58, 0
2, 100112, Note_on_c, 0, 62, 54
2, 100116, Note_on_c, 0, 82, 67
2, 100116, Note_on_c, 0, 55, 33
2, 100118, Note_on_c, 0, 58, 25
2, 100119, Note_on_c, 0, 70, 53
2, 100130, Control_c, 0, 64, 127
2, 100151, Note_on_c, 0, 62, 0
2, 100159, Note_on_c, 0, 82, 0
2, 100160, Note_on_c, 0, 70, 0
2, 100169, Note_on_c, 0, 58, 0
2, 100175, Control_c, 0, 64, 0
2, 100185, Note_on_c, 0, 58, 28
2, 100187, Note_on_c, 0, 62, 63
2, 100187, Note_on_c, 0, 67, 68
2, 100192, Note_on_c, 0, 79, 38
2, 100195, Note_on_c, 0, 55, 0
2, 100197, Note_on_c, 0, 67, 0
2, 100204, Note_on_c, 0, 79, 0
2, 100211, Note_on_c, 0, 62, 0
2, 100212, Note_on_c, 0, 58, 0
2, 100292, Note_on_c, 0, 63, 54
2, 100292, Note_on_c, 0, 67, 68
2, 100294, Note_on_c, 0, 62, 62
2, 100294, Note_on_c, 0, 58, 44
2, 100301, Note_on_c, 0, 67, 0
2, 100317, Note_on_c, 0, 63, 0
2, 100318, Note_on_c, 0, 58, 0
2, 100322, Note_on_c, 0, 62, 0
2, 100342, Note_on_c, 0, 74, 90
2, 100346, Note_on_c, 0, 79, 64
2, 100362, Note_on_c, 0, 74, 0
2, 100375, Note_on_c, 0, 75, 53
2, 100392, Note_on_c, 0, 79, 0
2, 100395, Note_on_c, 0, 74, 71
2, 100400, Note_on_c, 0, 75, 0
2, 100413, Note_on_c, 0, 63, 34
2, 100417, Note_on_c, 0, 62, 46
2, 100424, Note_on_c, 0, 72, 38
2, 100425, Note_on_c, 0, 74, 0
2, 100445, Note_on_c, 0, 63, 0
2, 100450, Note_on_c, 0, 72, 0
2, 100464, Note_on_c, 0, 62, 0
2, 100465, Note_on_c, 0, 71, 56
2, 100527, Note_on_c, 0, 71, 0
2, 100532, Note_on_c, 0, 74, 80
2, 100534, Note_on_c, 0, 67, 57
2, 100537, Note_on_c, 0, 63, 36
2, 100544, Note_on_c, 0, 67, 0
2, 100545, Note_on_c, 0, 57, 35
2, 100557, Note_on_c, 0, 57, 0
2, 100570, Note_on_c, 0, 63, 0
2, 100589, Note_on_c, 0, 72, 37
2, 100597, Note_on_c, 0, 74, 0
2, 100633, Note_on_c, 0, 72, 0
2, 100646, Note_on_c, 0, 70, 63
2, 100650, Note_on_c, 0, 63, 35
2, 100654, Note_on_c, 0, 57, 35
2, 100668, Note_on_c, 0, 57, 0
2, 100673, Note_on_c, 0, 63, 0
2, 100685, Note_on_c, 0, 70, 0
2, 100697, Note_on_c, 0, 69, 52
2, 100742, Note_on_c, 0, 69, 0
2, 100765, Note_on_c, 0, 68, 53
2, 100767, Note_on_c, 0, 65, 52
2, 100769, Note_on_c, 0, 62, 46
2, 100773, Note_on_c, 0, 60, 39
2, 100776, Note_on_c, 0, 65, 0
2, 100785, Note_on_c, 0, 60, 0
2, 100791, Note_on_c, 0, 62, 0
2, 100797, Note_on_c, 0, 68, 0
2, 100816, Note_on_c, 0, 69, 49
2, 100881, Note_on_c, 0, 69, 0
2, 100889, Note_on_c, 0, 65, 62
2, 100899, Note_on_c, 0, 55, 38
2, 100911, Note_on_c, 0, 55, 0
2, 100920, Note_on_c, 0, 65, 0
2, 100932, Note_on_c, 0, 62, 49
2, 100998, Note_on_c, 0, 62, 0
2, 101003, Note_on_c, 0, 58, 39
2, 101051, Note_on_c, 0, 58, 0
2, 101057, Note_on_c, 0, 57, 34
2, 101127, Note_on_c, 0, 57, 0
2, 101130, Note_on_c, 0, 60, 78
2, 101165, Note_on_c, 0, 60, 0
2, 101190, Note_on_c, 0, 57, 22
2, 101242, Note_on_c, 0, 57, 0
2, 101248, Note_on_c, 0, 58, 46
2, 101277, Note_on_c, 0, 58, 0
2, 101294, Note_on_c, 0, 60, 45
2, 101353, Note_on_c, 0, 60, 0
2, 101365, Note_on_c, 0, 62, 64
2, 101370, Note_on_c, 0, 53, 39
2, 101378, Note_on_c, 0, 56, 28
2, 101385, Note_on_c, 0, 53, 0
2, 101400, Note_on_c, 0, 56, 0
2, 101401, Note_on_c, 0, 62, 0
2, 101417, Note_on_c, 0, 63, 48
2, 101472, Note_on_c, 0, 63, 0
2, 101485, Note_on_c, 0, 65, 64
2, 101521, Note_on_c, 0, 65, 0
2, 101543, Note_on_c, 0, 66, 35
2, 101581, Note_on_c, 0, 66, 0
2, 101601, Note_on_c, 0, 68, 63
2, 101604, Note_on_c, 0, 60, 57
2, 101609, Note_on_c, 0, 63, 26
2, 101614, Note_on_c, 0, 60, 0
2, 101618, Note_on_c, 0, 63, 0
2, 101631, Note_on_c, 0, 68, 0
2, 101652, Note_on_c, 0, 70, 43
2, 101659, Control_c, 0, 64, 127
2, 101690, Note_on_c, 0, 70, 0
2, 101718, Note_on_c, 0, 72, 55
2, 101722, Note_on_c, 0, 60, 50
2, 101722, Note_on_c, 0, 65, 54
2, 101730, Note_on_c, 0, 55, 27
2, 101734, Note_on_c, 0, 65, 0
2, 101742, Control_c, 0, 64, 0
2, 101743, Note_on_c, 0, 55, 0
2, 101747, Note_on_c, 0, 60, 0
2, 101753, Note_on_c, 0, 72, 0
2, 101764, Note_on_c, 0, 65, 43
2, 101765, Note_on_c, 0, 55, 20
2, 101769, Note_on_c, 0, 60, 37
2, 101770, Note_on_c, 0, 56, 35
2, 101774, Note_on_c, 0, 76, 52
2, 101787, Control_c, 0, 64, 127
2, 101788, Note_on_c, 0, 65, 0
2, 101797, Note_on_c, 0, 55, 0
2, 101801, Note_on_c, 0, 60, 0
2, 101807, Note_on_c, 0, 56, 0
2, 101833, Note_on_c, 0, 76, 0
2, 101843, Note_on_c, 0, 77, 61
2, 101844, Note_on_c, 0, 65, 50
2, 101845, Note_on_c, 0, 56, 33
2, 101848, Note_on_c, 0, 60, 46
2, 101855, Note_on_c, 0, 65, 0
2, 101860, Note_on_c, 0, 60, 0
2, 101865, Control_c, 0, 64, 0
2, 101867, Note_on_c, 0, 56, 0
2, 101871, Note_on_c, 0, 77, 0
2, 101884, Note_on_c, 0, 66, 56
2, 101888, Note_on_c, 0, 78, 33
2, 101889, Note_on_c, 0, 56, 42
2, 101889, Note_on_c, 0, 60, 45
2, 101890, Note_on_c, 0, 55, 38
2, 101907, Control_c, 0, 64, 127
2, 101920, Note_on_c, 0, 55, 0
2, 101921, Note_on_c, 0, 60, 0
2, 101929, Note_on_c, 0, 56, 0
2, 101937, Note_on_c, 0, 78, 0
2, 101941, Note_on_c, 0, 66, 0
2, 101965, Note_on_c, 0, 64, 71
2, 101965, Note_on_c, 0, 59, 63
2, 101965, Note_on_c, 0, 53, 74
2, 101967, Note_on_c, 0, 79, 71
2, 101967, Note_on_c, 0, 67, 79
2, 101976, Note_on_c, 0, 77, 33
2, 101987, Control_c, 0, 64, 0
2, 102029, Control_c, 0, 64, 127
2, 102071, Note_on_c, 0, 79, 0
2, 102082, Note_on_c, 0, 67, 0
2, 102088, Note_on_c, 0, 64, 0
2, 102091, Note_on_c, 0, 53, 0
2, 102097, Note_on_c, 0, 77, 0
2, 102099, Note_on_c, 0, 59, 0
2, 102113, Control_c, 0, 64, 0
2, 102130, Note_on_c, 0, 64, 63
2, 102130, Note_on_c, 0, 53, 64
2, 102132, Note_on_c, 0, 68, 65
2, 102132, Note_on_c, 0, 80, 68
2, 102132, Note_on_c, 0, 59, 60
2, 102160, Control_c, 0, 64, 127
2, 102187, Note_on_c, 0, 64, 0
2, 102189, Note_on_c, 0, 53, 0
2, 102195, Note_on_c, 0, 68, 0
2, 102196, Note_on_c, 0, 80, 0
2, 102197, Note_on_c, 0, 59, 0
2, 102209, Control_c, 0, 64, 0
2, 102211, Note_on_c, 0, 81, 66
2, 102211, Note_on_c, 0, 53, 66
2, 102212, Note_on_c, 0, 69, 73
2, 102214, Note_on_c, 0, 64, 63
2, 102214, Note_on_c, 0, 59, 79
2, 102258, Control_c, 0, 64, 127
2, 102320, Note_on_c, 0, 59, 0
2, 102323, Note_on_c, 0, 81, 0
2, 102325, Note_on_c, 0, 53, 0
2, 102326, Note_on_c, 0, 69, 0
2, 102337, Note_on_c, 0, 64, 0
2, 102353, Control_c, 0, 64, 0
2, 102364, Note_on_c, 0, 64, 56
2, 102364, Note_on_c, 0, 53, 64
2, 102367, Note_on_c, 0, 59, 60
2, 102369, Note_on_c, 0, 82, 64
2, 102369, Note_on_c, 0, 75, 42
2, 102370, Note_on_c, 0, 70, 55
2, 102424, Note_on_c, 0, 53, 0
2, 102424, Note_on_c, 0, 64, 0
2, 102429, Note_on_c, 0, 82, 0
2, 102432, Note_on_c, 0, 70, 0
2, 102433, Note_on_c, 0, 59, 0
2, 102436, Note_on_c, 0, 75, 0
2, 102445, Note_on_c, 0, 53, 64
2, 102446, Note_on_c, 0, 59, 45
2, 102446, Note_on_c, 0, 64, 55
2, 102447, Note_on_c, 0, 83, 61
2, 102448, Note_on_c, 0, 71, 64
2, 102453, Note_on_c, 0, 76, 50
2, 102480, Control_c, 0, 64, 127
2, 102511, Note_on_c, 0, 76, 0
2, 102517, Note_on_c, 0, 53, 0
2, 102522, Note_on_c, 0, 59, 0
2, 102523, Note_on_c, 0, 71, 0
2, 102528, Note_on_c, 0, 64, 0
2, 102536, Note_on_c, 0, 83, 0
2, 102570, Note_on_c, 0, 59, 26
2, 102584, Control_c, 0, 64, 0
2, 102592, Note_on_c, 0, 53, 13
2, 102599, Note_on_c, 0, 64, 50
2, 102603, Note_on_c, 0, 84, 64
2, 102606, Note_on_c, 0, 72, 45
2, 102617, Note_on_c, 0, 53, 0
2, 102619, Note_on_c, 0, 59, 0
2, 102619, Control_c, 0, 64, 127
2, 102628, Note_on_c, 0, 64, 0
2, 102642, Note_on_c, 0, 72, 0
2, 102643, Note_on_c, 0, 84, 0
2, 102676, Control_c, 0, 64, 0
2, 102682, Note_on_c, 0, 85, 61
2, 102683, Note_on_c, 0, 73, 57
2, 102685, Note_on_c, 0, 58, 57
2, 102685, Note_on_c, 0, 63, 56
2, 102686, Note_on_c, 0, 67, 69
2, 102688, Note_on_c, 0, 79, 50
2, 102689, Note_on_c, 0, 62, 59
2, 102689, Note_on_c, 0, 82, 36
2, 102719, Note_on_c, 0, 73, 0
2, 102720, Note_on_c, 0, 85, 0
2, 102721, Note_on_c, 0, 79, 0
2, 102724, Note_on_c, 0, 74, 36
2, 102726, Note_on_c, 0, 82, 0
2, 102734, Note_on_c, 0, 63, 0
2, 102742, Note_on_c, 0, 62, 0
2, 102748, Note_on_c, 0, 74, 0
2, 102752, Note_on_c, 0, 86, 30
2, 102757, Note_on_c, 0, 67, 0
2, 102767, Note_on_c, 0, 82, 28
2, 102777, Note_on_c, 0, 86, 0
2, 102779, Note_on_c, 0, 79, 35
2, 102784, Note_on_c, 0, 62, 27
2, 102787, Note_on_c, 0, 74, 43
2, 102799, Note_on_c, 0, 63, 25
2, 102800, Note_on_c, 0, 82, 0
2, 102811, Note_on_c, 0, 58, 0
2, 102812, Note_on_c, 0, 62, 0
2, 102816, Note_on_c, 0, 74, 0
2, 102816, Note_on_c, 0, 63, 0
2, 102829, Note_on_c, 0, 84, 38
2, 102837, Note_on_c, 0, 58, 23
2, 102840, Note_on_c, 0, 72, 44
2, 102842, Note_on_c, 0, 62, 32
2, 102842, Note_on_c, 0, 63, 29
2, 102843, Note_on_c, 0, 67, 11
2, 102876, Note_on_c, 0, 63, 0
2, 102880, Note_on_c, 0, 62, 0
2, 102885, Note_on_c, 0, 67, 0
2, 102889, Note_on_c, 0, 84, 0
2, 102896, Note_on_c, 0, 72, 0
2, 102900, Note_on_c, 0, 58, 0
2, 102902, Note_on_c, 0, 79, 0
2, 102967, Note_on_c, 0, 67, 56
2, 102968, Note_on_c, 0, 63, 45
2, 102969, Note_on_c, 0, 62, 46
2, 102969, Note_on_c, 0, 58, 37
2, 102973, Note_on_c, 0, 75, 57
2, 102973, Note_on_c, 0, 87, 61
2, 102989, Note_on_c, 0, 67, 0
2, 103001, Note_on_c, 0, 75, 0
2, 103001, Note_on_c, 0, 62, 0
2, 103006, Note_on_c, 0, 58, 0
2, 103009, Note_on_c, 0, 87, 0
2, 103009, Note_on_c, 0, 63, 0
2, 103208, Control_c, 0, 64, 127
2, 103211, Note_on_c, 0, 63, 49
2, 103211, Note_on_c, 0, 67, 60
2, 103212, Note_on_c, 0, 56, 48
2, 103212, Note_on_c, 0, 87, 74
2, 103213, Note_on_c, 0, 75, 75
2, 103216, Note_on_c, 0, 80, 52
2, 103217, Note_on_c, 0, 60, 62
2, 103222, Note_on_c, 0, 84, 41
2, 103254, Note_on_c, 0, 80, 0
2, 103256, Note_on_c, 0, 84, 0
2, 103264, Note_on_c, 0, 67, 0
2, 103265, Note_on_c, 0, 75, 0
2, 103265, Note_on_c, 0, 56, 0
2, 103266, Note_on_c, 0, 60, 0
2, 103272, Note_on_c, 0, 87, 0
2, 103274, Note_on_c, 0, 63, 0
2, 103293, Note_on_c, 0, 63, 52
2, 103295, Note_on_c, 0, 89, 74
2, 103295, Note_on_c, 0, 56, 56
2, 103296, Note_on_c, 0, 67, 59
2, 103296, Note_on_c, 0, 77, 69
2, 103300, Note_on_c, 0, 60, 53
2, 103312, Note_on_c, 0, 60, 0
2, 103314, Note_on_c, 0, 67, 0
2, 103318, Note_on_c, 0, 77, 0
2, 103322, Note_on_c, 0, 63, 0
2, 103322, Note_on_c, 0, 89, 0
2, 103322, Note_on_c, 0, 56, 0
2, 103328, Control_c, 0, 64, 0
2, 103343, Note_on_c, 0, 75, 52
2, 103344, Note_on_c, 0, 87, 15
2, 103344, Note_on_c, 0, 63, 38
2, 103344, Note_on_c, 0, 56, 54
2, 103345, Note_on_c, 0, 67, 47
2, 103351, Note_on_c, 0, 60, 50
2, 103354, Control_c, 0, 64, 127
2, 103394, Note_on_c, 0, 67, 0
2, 103400, Note_on_c, 0, 87, 0
2, 103406, Note_on_c, 0, 75, 0
2, 103409, Note_on_c, 0, 56, 0
2, 103410, Note_on_c, 0, 63, 0
2, 103420, Note_on_c, 0, 60, 0
2, 103438, Control_c, 0, 64, 0
2, 103458, Note_on_c, 0, 66, 53
2, 103461, Note_on_c, 0, 74, 55
2, 103461, Note_on_c, 0, 86, 60
2, 103462, Note_on_c, 0, 62, 49
2, 103465, Note_on_c, 0, 60, 38
2, 103470, Note_on_c, 0, 56, 23
2, 103495, Note_on_c, 0, 74, 0
2, 103496, Note_on_c, 0, 60, 0
2, 103498, Note_on_c, 0, 86, 0
2, 103502, Note_on_c, 0, 56, 0
2, 103507, Note_on_c, 0, 66, 0
2, 103513, Note_on_c, 0, 62, 0
2, 103518, Control_c, 0, 64, 127
2, 103529, Control_c, 0, 64, 0
2, 103535, Note_on_c, 0, 66, 69
2, 103536, Note_on_c, 0, 75, 58
2, 103536, Note_on_c, 0, 87, 71
2, 103539, Note_on_c, 0, 56, 52
2, 103541, Note_on_c, 0, 62, 57
2, 103549, Note_on_c, 0, 60, 34
2, 103562, Note_on_c, 0, 66, 0
2, 103563, Note_on_c, 0, 60, 0
2, 103571, Note_on_c, 0, 75, 0
2, 103571, Note_on_c, 0, 87, 0
2, 103583, Note_on_c, 0, 66, 37
2, 103589, Control_c, 0, 64, 127
2, 103590, Note_on_c, 0, 86, 47
2, 103591, Note_on_c, 0, 74, 44
2, 103621, Note_on_c, 0, 86, 0
2, 103631, Note_on_c, 0, 66, 0
2, 103633, Note_on_c, 0, 74, 0
2, 103639, Note_on_c, 0, 62, 0
2, 103642, Note_on_c, 0, 56, 0
2, 103657, Note_on_c, 0, 84, 56
2, 103664, Note_on_c, 0, 65, 31
2, 103665, Note_on_c, 0, 72, 37
2, 103666, Note_on_c, 0, 62, 22
2, 103670, Note_on_c, 0, 60, 30
2, 103679, Note_on_c, 0, 65, 0
2, 103683, Note_on_c, 0, 84, 0
2, 103685, Control_c, 0, 64, 0
2, 103686, Note_on_c, 0, 72, 0
2, 103693, Note_on_c, 0, 60, 0
2, 103695, Note_on_c, 0, 62, 0
2, 103718, Note_on_c, 0, 70, 42
2, 103719, Note_on_c, 0, 82, 32
2, 103721, Note_on_c, 0, 62, 22
2, 103721, Note_on_c, 0, 55, 20
2, 103722, Note_on_c, 0, 60, 36
2, 103753, Note_on_c, 0, 60, 0
2, 103760, Note_on_c, 0, 62, 0
2, 103760, Note_on_c, 0, 55, 0
2, 103764, Note_on_c, 0, 70, 0
2, 103767, Note_on_c, 0, 82, 0
2, 103811, Note_on_c, 0, 82, 45
2, 103812, Note_on_c, 0, 65, 34
2, 103812, Note_on_c, 0, 55, 41
2, 103813, Note_on_c, 0, 62, 34
2, 103816, Note_on_c, 0, 60, 38
2, 103816, Note_on_c, 0, 70, 39
2, 103824, Control_c, 0, 64, 127
2, 103832, Note_on_c, 0, 60, 0
2, 103836, Note_on_c, 0, 62, 0
2, 103845, Note_on_c, 0, 65, 0
2, 103861, Note_on_c, 0, 55, 0
2, 103872, Note_on_c, 0, 70, 0
2, 103877, Note_on_c, 0, 82, 0
2, 103899, Control_c, 0, 64, 0
2, 103934, Note_on_c, 0, 65, 52
2, 103935, Note_on_c, 0, 82, 43
2, 103937, Note_on_c, 0, 54, 35
2, 103937, Note_on_c, 0, 58, 32
2, 103939, Note_on_c, 0, 70, 36
2, 103941, Note_on_c, 0, 60, 47
2, 103942, Note_on_c, 0, 77, 44
2, 104045, Control_c, 0, 64, 127
2, 104059, Note_on_c, 0, 65, 0
2, 104062, Note_on_c, 0, 60, 0
2, 104071, Note_on_c, 0, 58, 0
2, 104084, Note_on_c, 0, 54, 0
2, 104102, Note_on_c, 0, 70, 0
2, 104105, Note_on_c, 0, 82, 0
2, 104108, Note_on_c, 0, 77, 0
2, 104160, Control_c, 0, 64, 0
2, 104169, Note_on_c, 0, 62, 40
2, 104172, Note_on_c, 0, 82, 51
2, 104174, Note_on_c, 0, 55, 35
2, 104174, Note_on_c, 0, 70, 39
2, 104176, Note_on_c, 0, 58, 35
2, 104176, Note_on_c, 0, 53, 38
2, 104178, Note_on_c, 0, 77, 37
2, 104283, Control_c, 0, 64, 127
2, 104300, Note_on_c, 0, 70, 0
2, 104307, Note_on_c, 0, 55, 0
2, 104307, Note_on_c, 0, 62, 0
2, 104308, Note_on_c, 0, 53, 0
2, 104323, Note_on_c, 0, 77, 0
2, 104332, Note_on_c, 0, 82, 0
2, 104374, Note_on_c, 0, 58, 0
2, 104397, Control_c, 0, 64, 0
2, 104413, Note_on_c, 0, 63, 53
2, 104414, Note_on_c, 0, 58, 37
2, 104415, Note_on_c, 0, 79, 55
2, 104416, Note_on_c, 0, 75, 45
2, 104416, Note_on_c, 0, 67, 62
2, 104418, Note_on_c, 0, 52, 46
2, 104434, Control_c, 0, 64, 127
2, 104448, Note_on_c, 0, 79, 0
2, 104450, Note_on_c, 0, 67, 0
2, 104451, Note_on_c, 0, 52, 0
2, 104457, Note_on_c, 0, 63, 0
2, 104473, Note_on_c, 0, 58, 0
2, 104479, Note_on_c, 0, 75, 0
2, 104496, Control_c, 0, 64, 0
2, 104501, Note_on_c, 0, 80, 64
2, 104501, Note_on_c, 0, 75, 46
2, 104501, Note_on_c, 0, 68, 71
2, 104504, Note_on_c, 0, 63, 61
2, 104505, Note_on_c, 0, 52, 64
2, 104507, Note_on_c, 0, 58, 51
2, 104536, Note_on_c, 0, 63, 0
2, 104537, Note_on_c, 0, 68, 0
2, 104538, Control_c, 0, 64, 127
2, 104541, Note_on_c, 0, 52, 0
2, 104542, Note_on_c, 0, 80, 0
2, 104550, Note_on_c, 0, 75, 0
2, 104556, Note_on_c, 0, 58, 0
2, 104572, Note_on_c, 0, 52, 46
2, 104573, Note_on_c, 0, 58, 36
2, 104574, Note_on_c, 0, 63, 54
2, 104577, Note_on_c, 0, 82, 74
2, 104578, Note_on_c, 0, 70, 73
2, 104582, Note_on_c, 0, 75, 49
2, 104597, Note_on_c, 0, 52, 0
2, 104608, Note_on_c, 0, 63, 0
2, 104609, Note_on_c, 0, 70, 0
2, 104610, Note_on_c, 0, 75, 0
2, 104616, Note_on_c, 0, 58, 0
2, 104619, Note_on_c, 0, 82, 0
2, 104640, Control_c, 0, 64, 0
2, 104650, Note_on_c, 0, 53, 62
2, 104650, Note_on_c, 0, 63, 67
2, 104651, Note_on_c, 0, 82, 74
2, 104652, Note_on_c, 0, 60, 70
2, 104652, Note_on_c, 0, 56, 52
2, 104653, Note_on_c, 0, 70, 78
2, 104654, Note_on_c, 0, 75, 72
2, 104727, Control_c, 0, 64, 127
2, 104739, Note_on_c, 0, 63, 0
2, 104740, Note_on_c, 0, 82, 0
2, 104744, Note_on_c, 0, 70, 0
2, 104747, Note_on_c, 0, 60, 0
2, 104756, Note_on_c, 0, 75, 0
2, 104766, Note_on_c, 0, 63, 51
2, 104768, Note_on_c, 0, 68, 49
2, 104768, Note_on_c, 0, 75, 33
2, 104769, Note_on_c, 0, 80, 44
2, 104788, Note_on_c, 0, 53, 0
2, 104790, Note_on_c, 0, 68, 0
2, 104793, Note_on_c, 0, 80, 0
2, 104795, Note_on_c, 0, 56, 0
2, 104798, Note_on_c, 0, 75, 0
2, 104799, Note_on_c, 0, 63, 0
2, 104852, Control_c, 0, 64, 0
2, 104855, Note_on_c, 0, 54, 68
2, 104855, Note_on_c, 0, 83, 74
2, 104856, Note_on_c, 0, 71, 80
2, 104856, Note_on_c, 0, 63, 82
2, 104856, Note_on_c, 0, 59, 76
2, 104858, Note_on_c, 0, 58, 69
2, 104858, Note_on_c, 0, 78, 71
2, 104860, Note_on_c, 0, 80, 52
2, 104870, Note_on_c, 0, 80, 0
2, 104925, Control_c, 0, 64, 127
2, 105000, Note_on_c, 0, 59, 0
2, 105007, Note_on_c, 0, 58, 0
2, 105010, Note_on_c, 0, 54, 0
2, 105012, Note_on_c, 0, 63, 0
2, 105042, Note_on_c, 0, 71, 0
2, 105061, Note_on_c, 0, 78, 0
2, 105068, Note_on_c, 0, 83, 0
2, 105120, Control_c, 0, 64, 0
2, 105127, Note_on_c, 0, 66, 68
2, 105128, Note_on_c, 0, 86, 105
2, 105130, Note_on_c, 0, 61, 55
2, 105130, Note_on_c, 0, 57, 64
2, 105131, Note_on_c, 0, 62, 66
2, 105190, Note_on_c, 0, 86, 0
2, 105195, Note_on_c, 0, 87, 44
2, 105215, Note_on_c, 0, 86, 64
2, 105226, Note_on_c, 0, 87, 0
2, 105232, Note_on_c, 0, 85, 49
2, 105236, Note_on_c, 0, 86, 0
2, 105248, Note_on_c, 0, 85, 0
2, 105258, Note_on_c, 0, 86, 71
2, 105302, Note_on_c, 0, 57, 0
2, 105311, Note_on_c, 0, 62, 0
2, 105321, Note_on_c, 0, 61, 0
2, 105325, Note_on_c, 0, 66, 0
2, 105325, Note_on_c, 0, 86, 0
2, 105371, Note_on_c, 0, 66, 36
2, 105377, Note_on_c, 0, 56, 32
2, 105377, Note_on_c, 0, 62, 43
2, 105477, Control_c, 0, 64, 127
2, 105491, Note_on_c, 0, 86, 56
2, 105498, Note_on_c, 0, 62, 0
2, 105499, Note_on_c, 0, 66, 0
2, 105532, Note_on_c, 0, 56, 0
2, 105559, Note_on_c, 0, 87, 45
2, 105571, Note_on_c, 0, 86, 0
2, 105588, Note_on_c, 0, 88, 72
2, 105589, Note_on_c, 0, 87, 0
2, 105605, Note_on_c, 0, 65, 38
2, 105608, Note_on_c, 0, 62, 48
2, 105609, Note_on_c, 0, 55, 47
2, 105609, Note_on_c, 0, 60, 53
2, 105613, Control_c, 0, 64, 0
2, 105614, Note_on_c, 0, 88, 0
2, 105614, Note_on_c, 0, 89, 78
2, 105725, Control_c, 0, 64, 127
2, 105739, Note_on_c, 0, 87, 59
2, 105740, Note_on_c, 0, 62, 0
2, 105741, Note_on_c, 0, 60, 0
2, 105745, Note_on_c, 0, 65, 0
2, 105759, Note_on_c, 0, 55, 0
2, 105795, Note_on_c, 0, 89, 0
2, 105796, Note_on_c, 0, 87, 0
2, 105817, Note_on_c, 0, 61, 80
2, 105817, Note_on_c, 0, 66, 83
2, 105817, Note_on_c, 0, 87, 87
2, 105818, Note_on_c, 0, 55, 84
2, 105821, Control_c, 0, 64, 0
2, 105873, Control_c, 0, 64, 127
2, 105994, Note_on_c, 0, 55, 0
2, 105995, Note_on_c, 0, 66, 0
2, 106037, Note_on_c, 0, 61, 0
2, 106447, Control_c, 0, 64, 0
2, 106456, Note_on_c, 0, 87, 0
2, 106477, Note_on_c, 0, 67, 72
2, 106664, Note_on_c, 0, 74, 77
2, 106668, Note_on_c, 0, 44, 48
2, 106678, Control_c, 0, 64, 0
2, 106708, Note_on_c, 0, 67, 0
2, 106770, Control_c, 0, 64, 127
2, 106806, Note_on_c, 0, 51, 34
2, 106946, Note_on_c, 0, 74, 0
2, 106964, Note_on_c, 0, 67, 36
2, 106965, Note_on_c, 0, 62, 41
2, 106971, Note_on_c, 0, 55, 28
2, 107208, Note_on_c, 0, 72, 35
2, 107276, Note_on_c, 0, 67, 0
2, 107316, Note_on_c, 0, 55, 0
2, 107371, Note_on_c, 0, 62, 0
2, 107428, Note_on_c, 0, 44, 0
2, 107430, Note_on_c, 0, 51, 0
2, 107459, Note_on_c, 0, 72, 0
2, 107508, Note_on_c, 0, 72, 34
2, 107515, Note_on_c, 0, 64, 34
2, 107518, Note_on_c, 0, 44, 31
2, 107520, Note_on_c, 0, 60, 33
2, 107524, Note_on_c, 0, 52, 28
2, 107531, Control_c, 0, 64, 0
2, 107592, Control_c, 0, 64, 127
2, 107639, Note_on_c, 0, 55, 41
2, 107657, Control_c, 0, 64, 0
2, 107674, Control_c, 0, 64, 127
2, 107710, Note_on_c, 0, 55, 0
2, 107752, Note_on_c, 0, 52, 0
2, 107783, Note_on_c, 0, 53, 26
2, 107811, Control_c, 0, 64, 0
2, 107865, Control_c, 0, 64, 127
2, 108011, Note_on_c, 0, 60, 0
2, 108029, Note_on_c, 0, 64, 0
2, 108051, Note_on_c, 0, 72, 0
2, 108161, Note_on_c, 0, 84, 47
2, 108164, Note_on_c, 0, 72, 26
2, 108182, Note_on_c, 0, 72, 0
2, 108199, Note_on_c, 0, 84, 0
2, 108314, Note_on_c, 0, 91, 45
2, 108315, Note_on_c, 0, 79, 33
2, 108331, Note_on_c, 0, 79, 0
2, 108346, Note_on_c, 0, 91, 0
2, 108441, Note_on_c, 0, 96, 29
2, 108471, Note_on_c, 0, 96, 0
2, 108581, Note_on_c, 0, 91, 38
2, 108584, Note_on_c, 0, 103, 34
2, 108606, Note_on_c, 0, 91, 0
2, 108608, Note_on_c, 0, 103, 0
2, 108673, Note_on_c, 0, 44, 0
2, 108729, Note_on_c, 0, 108, 53
2, 108731, Note_on_c, 0, 96, 36
2, 108770, Note_on_c, 0, 108, 0
2, 108793, Note_on_c, 0, 96, 0
2, 109117, Note_on_c, 0, 60, 48
2, 109226, Note_on_c, 0, 60, 0
2, 109262, Note_on_c, 0, 60, 71
2, 109303, Note_on_c, 0, 53, 0
2, 109364, Note_on_c, 0, 60, 0
2, 109418, Note_on_c, 0, 60, 66
2, 109477, Note_on_c, 0, 60, 0
2, 109596, Note_on_c, 0, 65, 54
2, 109598, Note_on_c, 0, 57, 64
2, 109599, Note_on_c, 0, 54, 46
2, 109604, Note_on_c, 0, 62, 48
2, 109605, Note_on_c, 0, 39, 38
2, 109608, Note_on_c, 0, 47, 35
2, 109624, Control_c, 0, 64, 0
2, 109720, Control_c, 0, 64, 127
2, 109892, Note_on_c, 0, 47, 0
2, 109937, Note_on_c, 0, 39, 0
2, 110040, Note_on_c, 0, 57, 0
2, 110082, Note_on_c, 0, 62, 0
2, 110112, Note_on_c, 0, 54, 0
2, 110119, Note_on_c, 0, 65, 0
2, 110336, Note_on_c, 0, 63, 43
2, 110343, Note_on_c, 0, 53, 31
2, 110344, Note_on_c, 0, 27, 40
2, 110345, Note_on_c, 0, 58, 33
2, 110358, Control_c, 0, 64, 0
2, 110426, Control_c, 0, 64, 127
2, 110444, Note_on_c, 0, 53, 0
2, 110479, Note_on_c, 0, 27, 0
2, 110481, Note_on_c, 0, 58, 0
2, 110488, Note_on_c, 0, 63, 0
2, 111112, Note_on_c, 0, 75, 27
2, 111143, Note_on_c, 0, 79, 30
2, 111167, Note_on_c, 0, 91, 32
2, 111169, Note_on_c, 0, 82, 30
2, 111186, Note_on_c, 0, 86, 47
2, 111197, Note_on_c, 0, 91, 0
2, 111199, Note_on_c, 0, 96, 35
2, 111214, Note_on_c, 0, 98, 33
2, 111223, Note_on_c, 0, 96, 0
2, 111228, Note_on_c, 0, 98, 0
2, 111234, Note_on_c, 0, 103, 44
2, 111246, Note_on_c, 0, 103, 0
2, 111276, Note_on_c, 0, 107, 62
2, 111358, Note_on_c, 0, 107, 0
2, 111420, Note_on_c, 0, 86, 0
2, 111428, Note_on_c, 0, 79, 0
2, 111433, Note_on_c, 0, 82, 0
2, 111441, Note_on_c, 0, 75, 0
2, 111441, End_track
3, 0, Start_track
3, 0, Title_t, "All parts played in real time"
3, 0, Program_c, 1, 32
3, 45233, Note_on_c, 1, 48, 68
3, 45255, Note_on_c, 1, 48, 0
3, 45356, Note_on_c, 1, 48, 65
3, 45461, Note_on_c, 1, 48, 0
3, 45475, Note_on_c, 1, 42, 52
3, 45591, Note_on_c, 1, 42, 0
3, 45598, Note_on_c, 1, 41, 59
3, 45962, Note_on_c, 1, 41, 0
3, 45967, Note_on_c, 1, 34, 48
3, 46086, Note_on_c, 1, 34, 0
3, 46087, Note_on_c, 1, 39, 43
3, 46563, Note_on_c, 1, 39, 0
3, 46566, Note_on_c, 1, 44, 53
3, 46605, Note_on_c, 1, 44, 0
3, 46678, Note_on_c, 1, 43, 59
3, 46915, Note_on_c, 1, 48, 78
3, 46928, Note_on_c, 1, 43, 0
3, 47034, Note_on_c, 1, 41, 57
3, 47053, Note_on_c, 1, 48, 0
3, 47135, Note_on_c, 1, 41, 0
3, 47160, Note_on_c, 1, 41, 67
3, 47399, Note_on_c, 1, 44, 62
3, 47405, Note_on_c, 1, 41, 0
3, 47638, Note_on_c, 1, 44, 0
3, 47642, Note_on_c, 1, 47, 64
3, 47879, Note_on_c, 1, 47, 0
3, 47884, Note_on_c, 1, 34, 59
3, 48108, Note_on_c, 1, 34, 0
3, 48120, Note_on_c, 1, 39, 60
3, 48157, Note_on_c, 1, 39, 0
3, 48232, Note_on_c, 1, 39, 57
3, 48356, Note_on_c, 1, 39, 0
3, 48361, Note_on_c, 1, 46, 57
3, 48421, Note_on_c, 1, 46, 0
3, 48424, Note_on_c, 1, 39, 45
3, 48461, Note_on_c, 1, 39, 0
3, 48483, Note_on_c, 1, 45, 52
3, 48583, Note_on_c, 1, 45, 0
3, 48595, Note_on_c, 1, 38, 50
3, 48714, Note_on_c, 1, 38, 0
3, 48718, Note_on_c, 1, 47, 68
3, 48828, Note_on_c, 1, 47, 0
3, 48833, Note_on_c, 1, 43, 53
3, 48923, Note_on_c, 1, 43, 0
3, 48924, Note_on_c, 1, 50, 80
3, 48965, Note_on_c, 1, 50, 0
3, 48966, Note_on_c, 1, 48, 53
3, 49194, Note_on_c, 1, 42, 53
3, 49238, Note_on_c, 1, 42, 0
3, 49262, Note_on_c, 1, 48, 0
3, 49314, Note_on_c, 1, 42, 50
3, 49557, Note_on_c, 1, 42, 0
3, 49562, Note_on_c, 1, 41, 51
3, 49678, Note_on_c, 1, 41, 0
3, 49684, Note_on_c, 1, 53, 84
3, 49801, Note_on_c, 1, 46, 49
3, 49814, Note_on_c, 1, 53, 0
3, 49880, Note_on_c, 1, 46, 0
3, 49917, Note_on_c, 1, 39, 56
3, 50009, Note_on_c, 1, 39, 0
3, 50034, Note_on_c, 1, 39, 50
3, 50277, Note_on_c, 1, 39, 0
3, 50283, Note_on_c, 1, 32, 57
3, 50378, Note_on_c, 1, 32, 0
3, 50399, Note_on_c, 1, 31, 49
3, 50493, Note_on_c, 1, 31, 0
3, 50520, Note_on_c, 1, 31, 57
3, 50630, Note_on_c, 1, 31, 0
3, 50638, Note_on_c, 1, 36, 73
3, 50990, Note_on_c, 1, 36, 0
3, 50996, Note_on_c, 1, 41, 89
3, 51241, Note_on_c, 1, 44, 84
3, 51249, Note_on_c, 1, 41, 0
3, 51440, Note_on_c, 1, 38, 48
3, 51451, Note_on_c, 1, 38, 0
3, 51466, Note_on_c, 1, 44, 0
3, 51478, Note_on_c, 1, 47, 69
3, 51583, Note_on_c, 1, 47, 0
3, 51596, Note_on_c, 1, 46, 72
3, 51692, Note_on_c, 1, 46, 0
3, 51716, Note_on_c, 1, 46, 58
3, 51819, Note_on_c, 1, 46, 0
3, 51839, Note_on_c, 1, 39, 57
3, 51943, Note_on_c, 1, 39, 0
3, 51962, Note_on_c, 1, 39, 73
3, 52202, Note_on_c, 1, 46, 71
3, 52203, Note_on_c, 1, 39, 0
3, 52440, Note_on_c, 1, 45, 63
3, 52453, Note_on_c, 1, 46, 0
3, 52535, Note_on_c, 1, 45, 0
3, 52557, Note_on_c, 1, 50, 64
3, 52663, Note_on_c, 1, 50, 0
3, 52682, Note_on_c, 1, 42, 53
3, 52786, Note_on_c, 1, 42, 0
3, 52798, Note_on_c, 1, 43, 51
3, 52994, Note_on_c, 1, 52, 45
3, 53016, Note_on_c, 1, 43, 0
3, 53022, Note_on_c, 1, 52, 0
3, 53044, Note_on_c, 1, 50, 30
3, 53245, Note_on_c, 1, 51, 48
3, 53246, Note_on_c, 1, 50, 0
3, 53280, Note_on_c, 1, 51, 0
3, 53286, Note_on_c, 1, 48, 44
3, 53708, Note_on_c, 1, 48, 0
3, 53717, Note_on_c, 1, 49, 62
3, 53754, Note_on_c, 1, 49, 0
3, 53768, Note_on_c, 1, 50, 49
3, 53955, Note_on_c, 1, 45, 49
3, 53970, Note_on_c, 1, 45, 0
3, 53998, Note_on_c, 1, 42, 47
3, 54025, Note_on_c, 1, 42, 0
3, 54118, Note_on_c, 1, 43, 58
3, 54339, Note_on_c, 1, 50, 0
3, 54353, Note_on_c, 1, 43, 0
3, 54362, Note_on_c, 1, 36, 45
3, 54467, Note_on_c, 1, 36, 0
3, 54482, Note_on_c, 1, 41, 57
3, 54591, Note_on_c, 1, 41, 0
3, 54606, Note_on_c, 1, 33, 49
3, 54706, Note_on_c, 1, 33, 0
3, 54723, Note_on_c, 1, 34, 53
3, 55080, Note_on_c, 1, 34, 0
3, 55085, Note_on_c, 1, 41, 55
3, 55431, Note_on_c, 1, 41, 0
3, 55444, Note_on_c, 1, 44, 57
3, 55662, Note_on_c, 1, 44, 0
3, 55673, Note_on_c, 1, 38, 52
3, 55861, Note_on_c, 1, 38, 0
3, 55877, Note_on_c, 1, 44, 52
3, 55911, Note_on_c, 1, 44, 0
3, 55925, Note_on_c, 1, 43, 49
3, 56281, Note_on_c, 1, 43, 0
3, 56281, Note_on_c, 1, 41, 54
3, 56392, Note_on_c, 1, 41, 0
3, 56399, Note_on_c, 1, 39, 58
3, 56520, Note_on_c, 1, 37, 47
3, 56521, Note_on_c, 1, 39, 0
3, 56625, Note_on_c, 1, 37, 0
3, 56635, Note_on_c, 1, 36, 66
3, 56842, Note_on_c, 1, 36, 0
3, 56843, Note_on_c, 1, 43, 55
3, 56866, Note_on_c, 1, 43, 0
3, 56887, Note_on_c, 1, 42, 56
3, 57192, Note_on_c, 1, 55, 61
3, 57219, Note_on_c, 1, 42, 0
3, 57223, Note_on_c, 1, 55, 0
3, 57246, Note_on_c, 1, 53, 51
3, 57464, Note_on_c, 1, 53, 0
3, 57473, Note_on_c, 1, 46, 50
3, 57715, Note_on_c, 1, 46, 0
3, 57715, Note_on_c, 1, 51, 64
3, 57777, Note_on_c, 1, 51, 0
3, 57791, Note_on_c, 1, 50, 36
3, 57818, Note_on_c, 1, 50, 0
3, 57833, Note_on_c, 1, 51, 42
3, 57944, Note_on_c, 1, 51, 0
3, 57952, Note_on_c, 1, 44, 48
3, 58056, Note_on_c, 1, 44, 0
3, 58073, Note_on_c, 1, 43, 46
3, 58142, Note_on_c, 1, 43, 0
3, 58155, Note_on_c, 1, 42, 39
3, 58199, Note_on_c, 1, 42, 0
3, 58202, Note_on_c, 1, 43, 48
3, 58307, Note_on_c, 1, 43, 0
3, 58316, Note_on_c, 1, 36, 50
3, 58431, Note_on_c, 1, 36, 0
3, 58437, Note_on_c, 1, 40, 53
3, 58546, Note_on_c, 1, 40, 0
3, 58554, Note_on_c, 1, 41, 58
3, 58906, Note_on_c, 1, 41, 0
3, 58924, Note_on_c, 1, 32, 56
3, 59032, Note_on_c, 1, 32, 0
3, 59038, Note_on_c, 1, 35, 50
3, 59278, Note_on_c, 1, 35, 0
3, 59278, Note_on_c, 1, 34, 58
3, 59450, Note_on_c, 1, 34, 0
3, 59471, Note_on_c, 1, 38, 50
3, 59503, Note_on_c, 1, 38, 0
3, 59517, Note_on_c, 1, 39, 55
3, 59872, Note_on_c, 1, 45, 72
3, 59881, Note_on_c, 1, 39, 0
3, 60113, Note_on_c, 1, 45, 0
3, 60121, Note_on_c, 1, 38, 60
3, 60229, Note_on_c, 1, 38, 0
3, 60239, Note_on_c, 1, 43, 58
3, 60348, Note_on_c, 1, 50, 91
3, 60364, Note_on_c, 1, 43, 0
3, 60449, Note_on_c, 1, 50, 0
3, 60470, Note_on_c, 1, 51, 71
3, 60673, Note_on_c, 1, 50, 58
3, 60688, Note_on_c, 1, 51, 0
3, 60702, Note_on_c, 1, 50, 0
3, 60718, Note_on_c, 1, 48, 42
3, 60816, Note_on_c, 1, 48, 0
3, 60834, Note_on_c, 1, 42, 50
3, 60937, Note_on_c, 1, 42, 0
3, 60953, Note_on_c, 1, 41, 47
3, 61200, Note_on_c, 1, 41, 0
3, 61204, Note_on_c, 1, 34, 48
3, 61385, Note_on_c, 1, 34, 0
3, 61402, Note_on_c, 1, 38, 57
3, 61431, Note_on_c, 1, 38, 0
3, 61450, Note_on_c, 1, 39, 60
3, 61521, Note_on_c, 1, 39, 0
3, 61566, Note_on_c, 1, 39, 59
3, 61796, Note_on_c, 1, 39, 0
3, 61805, Note_on_c, 1, 44, 67
3, 61878, Note_on_c, 1, 39, 44
3, 61898, Note_on_c, 1, 39, 0
3, 61899, Note_on_c, 1, 44, 0
3, 61919, Note_on_c, 1, 43, 54
3, 62010, Note_on_c, 1, 43, 0
3, 62039, Note_on_c, 1, 43, 51
3, 62147, Note_on_c, 1, 43, 0
3, 62161, Note_on_c, 1, 48, 48
3, 62276, Note_on_c, 1, 48, 0
3, 62293, Note_on_c, 1, 36, 37
3, 62397, Note_on_c, 1, 36, 0
3, 62408, Note_on_c, 1, 41, 60
3, 62764, Note_on_c, 1, 41, 0
3, 62764, Note_on_c, 1, 44, 69
3, 62991, Note_on_c, 1, 44, 0
3, 63001, Note_on_c, 1, 47, 53
3, 63110, Note_on_c, 1, 47, 0
3, 63118, Note_on_c, 1, 34, 50
3, 63218, Note_on_c, 1, 34, 0
3, 63237, Note_on_c, 1, 34, 59
3, 63465, Note_on_c, 1, 34, 0
3, 63482, Note_on_c, 1, 39, 68
3, 63608, Note_on_c, 1, 49, 56
3, 63632, Note_on_c, 1, 49, 0
3, 63722, Note_on_c, 1, 39, 0
3, 63722, Note_on_c, 1, 49, 65
3, 63835, Note_on_c, 1, 49, 0
3, 63843, Note_on_c, 1, 50, 63
3, 63964, Note_on_c, 1, 50, 0
3, 63966, Note_on_c, 1, 38, 54
3, 64205, Note_on_c, 1, 47, 62
3, 64207, Note_on_c, 1, 38, 0
3, 64257, Note_on_c, 1, 47, 0
3, 64272, Note_on_c, 1, 38, 44
3, 64303, Note_on_c, 1, 38, 0
3, 64319, Note_on_c, 1, 48, 67
3, 64560, Note_on_c, 1, 42, 58
3, 64566, Note_on_c, 1, 48, 0
3, 64791, Note_on_c, 1, 42, 0
3, 64800, Note_on_c, 1, 41, 49
3, 64871, Note_on_c, 1, 41, 0
3, 64881, Note_on_c, 1, 40, 42
3, 64909, Note_on_c, 1, 40, 0
3, 64921, Note_on_c, 1, 41, 39
3, 64987, Note_on_c, 1, 44, 51
3, 65007, Note_on_c, 1, 41, 0
3, 65025, Note_on_c, 1, 44, 0
3, 65040, Note_on_c, 1, 46, 52
3, 65140, Note_on_c, 1, 46, 0
3, 65159, Note_on_c, 1, 46, 70
3, 65269, Note_on_c, 1, 46, 0
3, 65281, Note_on_c, 1, 39, 55
3, 65376, Note_on_c, 1, 39, 0
3, 65401, Note_on_c, 1, 39, 53
3, 65513, Note_on_c, 1, 39, 0
3, 65522, Note_on_c, 1, 32, 69
3, 65622, Note_on_c, 1, 32, 0
3, 65645, Note_on_c, 1, 32, 62
3, 65761, Note_on_c, 1, 32, 0
3, 65888, Note_on_c, 1, 31, 57
3, 66004, Note_on_c, 1, 43, 47
3, 66008, Note_on_c, 1, 31, 0
3, 66066, Note_on_c, 1, 43, 0
3, 66074, Note_on_c, 1, 46, 34
3, 66078, Note_on_c, 1, 31, 55
3, 66089, Note_on_c, 1, 31, 0
3, 66094, Note_on_c, 1, 46, 0
3, 66123, Note_on_c, 1, 48, 78
3, 66233, Note_on_c, 1, 48, 0
3, 66244, Note_on_c, 1, 44, 38
3, 66337, Note_on_c, 1, 44, 0
3, 66364, Note_on_c, 1, 43, 38
3, 66464, Note_on_c, 1, 43, 0
3, 66482, Note_on_c, 1, 41, 48
3, 66592, Note_on_c, 1, 41, 0
3, 66602, Note_on_c, 1, 47, 50
3, 66805, Note_on_c, 1, 47, 0
3, 66833, Note_on_c, 1, 47, 52
3, 67075, Note_on_c, 1, 34, 52
3, 67106, Note_on_c, 1, 47, 0
3, 67177, Note_on_c, 1, 34, 0
3, 67197, Note_on_c, 1, 39, 56
3, 67291, Note_on_c, 1, 39, 0
3, 67321, Note_on_c, 1, 39, 47
3, 67529, Note_on_c, 1, 39, 0
3, 67560, Note_on_c, 1, 39, 53
3, 67787, Note_on_c, 1, 39, 0
3, 67799, Note_on_c, 1, 38, 58
3, 67918, Note_on_c, 1, 50, 95
3, 67923, Note_on_c, 1, 38, 0
3, 68013, Note_on_c, 1, 50, 0
3, 68037, Note_on_c, 1, 50, 81
3, 68160, Note_on_c, 1, 38, 60
3, 68282, Note_on_c, 1, 50, 0
3, 68406, Note_on_c, 1, 50, 82
3, 68475, Note_on_c, 1, 50, 0
3, 68485, Note_on_c, 1, 49, 36
3, 68514, Note_on_c, 1, 49, 0
3, 68530, Note_on_c, 1, 50, 57
3, 68537, Note_on_c, 1, 38, 0
3, 68834, Note_on_c, 1, 50, 0
3, 68834, Note_on_c, 1, 38, 72
3, 68884, Note_on_c, 1, 50, 65
3, 68893, Note_on_c, 1, 38, 0
3, 68972, Note_on_c, 1, 50, 0
3, 68998, Note_on_c, 1, 50, 75
3, 69370, Note_on_c, 1, 43, 56
3, 69390, Note_on_c, 1, 43, 0
3, 69451, Note_on_c, 1, 50, 0
3, 69487, Note_on_c, 1, 43, 56
3, 69685, Note_on_c, 1, 42, 26
3, 69708, Note_on_c, 1, 43, 0
3, 69713, Note_on_c, 1, 42, 0
3, 69717, Note_on_c, 1, 48, 54
3, 69833, Note_on_c, 1, 48, 0
3, 69839, Note_on_c, 1, 53, 62
3, 70000, Note_on_c, 1, 53, 0
3, 70029, Note_on_c, 1, 49, 31
3, 70068, Note_on_c, 1, 49, 0
3, 70072, Note_on_c, 1, 50, 47
3, 70180, Note_on_c, 1, 50, 0
3, 70191, Note_on_c, 1, 46, 31
3, 70309, Note_on_c, 1, 46, 0
3, 70313, Note_on_c, 1, 41, 44
3, 70510, Note_on_c, 1, 41, 0
3, 70518, Note_on_c, 1, 46, 38
3, 70547, Note_on_c, 1, 46, 0
3, 70569, Note_on_c, 1, 44, 46
3, 70993, Note_on_c, 1, 39, 51
3, 71020, Note_on_c, 1, 39, 0
3, 71020, Note_on_c, 1, 44, 0
3, 71045, Note_on_c, 1, 38, 39
3, 71209, Note_on_c, 1, 38, 0
3, 71226, Note_on_c, 1, 44, 42
3, 71263, Note_on_c, 1, 44, 0
3, 71276, Note_on_c, 1, 43, 44
3, 71453, Note_on_c, 1, 43, 0
3, 71460, Note_on_c, 1, 42, 46
3, 71501, Note_on_c, 1, 42, 0
3, 71515, Note_on_c, 1, 43, 39
3, 71629, Note_on_c, 1, 45, 57
3, 71638, Note_on_c, 1, 43, 0
3, 71738, Note_on_c, 1, 45, 0
3, 71749, Note_on_c, 1, 47, 44
3, 71930, Note_on_c, 1, 47, 0
3, 71947, Note_on_c, 1, 50, 63
3, 71985, Note_on_c, 1, 50, 0
3, 72001, Note_on_c, 1, 48, 52
3, 72091, Note_on_c, 1, 48, 0
3, 72117, Note_on_c, 1, 48, 55
3, 72227, Note_on_c, 1, 48, 0
3, 72244, Note_on_c, 1, 42, 44
3, 72335, Note_on_c, 1, 42, 0
3, 72358, Note_on_c, 1, 42, 51
3, 72592, Note_on_c, 1, 42, 0
3, 72598, Note_on_c, 1, 41, 49
3, 72668, Note_on_c, 1, 55, 74
3, 72703, Note_on_c, 1, 55, 0
3, 72718, Note_on_c, 1, 41, 0
3, 72732, Note_on_c, 1, 53, 43
3, 72830, Note_on_c, 1, 53, 0
3, 72845, Note_on_c, 1, 46, 37
3, 72947, Note_on_c, 1, 46, 0
3, 72956, Note_on_c, 1, 51, 56
3, 73031, Note_on_c, 1, 51, 0
3, 73078, Note_on_c, 1, 51, 52
3, 73162, Note_on_c, 1, 51, 0
3, 73198, Note_on_c, 1, 44, 46
3, 73560, Note_on_c, 1, 44, 0
3, 73566, Note_on_c, 1, 43, 45
3, 73790, Note_on_c, 1, 43, 0
3, 73797, Note_on_c, 1, 36, 40
3, 73907, Note_on_c, 1, 36, 0
3, 73919, Note_on_c, 1, 41, 47
3, 73998, Note_on_c, 1, 41, 0
3, 73999, Note_on_c, 1, 39, 33
3, 74030, Note_on_c, 1, 39, 0
3, 74042, Note_on_c, 1, 41, 65
3, 74160, Note_on_c, 1, 41, 0
3, 74167, Note_on_c, 1, 44, 59
3, 74391, Note_on_c, 1, 44, 0
3, 74396, Note_on_c, 1, 47, 60
3, 74469, Note_on_c, 1, 47, 0
3, 74474, Note_on_c, 1, 46, 38
3, 74510, Note_on_c, 1, 46, 0
3, 74518, Note_on_c, 1, 47, 48
3, 74625, Note_on_c, 1, 47, 0
3, 74636, Note_on_c, 1, 50, 58
3, 74858, Note_on_c, 1, 50, 0
3, 74877, Note_on_c, 1, 51, 51
3, 74962, Note_on_c, 1, 51, 0
3, 74997, Note_on_c, 1, 51, 49
3, 75099, Note_on_c, 1, 51, 0
3, 75117, Note_on_c, 1, 45, 66
3, 75365, Note_on_c, 1, 45, 0
3, 75367, Note_on_c, 1, 38, 49
3, 75535, Note_on_c, 1, 38, 0
3, 75556, Note_on_c, 1, 44, 50
3, 75590, Note_on_c, 1, 44, 0
3, 75605, Note_on_c, 1, 43, 36
3, 75711, Note_on_c, 1, 43, 0
3, 75720, Note_on_c, 1, 38, 44
3, 75824, Note_on_c, 1, 38, 0
3, 75841, Note_on_c, 1, 36, 50
3, 75960, Note_on_c, 1, 43, 51
3, 75962, Note_on_c, 1, 36, 0
3, 76069, Note_on_c, 1, 43, 0
3, 76083, Note_on_c, 1, 48, 39
3, 76194, Note_on_c, 1, 48, 0
3, 76202, Note_on_c, 1, 41, 38
3, 76305, Note_on_c, 1, 41, 0
3, 76323, Note_on_c, 1, 42, 36
3, 76430, Note_on_c, 1, 42, 0
3, 76449, Note_on_c, 1, 42, 64
3, 76561, Note_on_c, 1, 42, 0
3, 76563, Note_on_c, 1, 53, 50
3, 76655, Note_on_c, 1, 43, 31
3, 76666, Note_on_c, 1, 53, 0
3, 76668, Note_on_c, 1, 43, 0
3, 76684, Note_on_c, 1, 50, 40
3, 76790, Note_on_c, 1, 50, 0
3, 76801, Note_on_c, 1, 55, 64
3, 76903, Note_on_c, 1, 55, 0
3, 76921, Note_on_c, 1, 46, 40
3, 77024, Note_on_c, 1, 46, 0
3, 77045, Note_on_c, 1, 43, 28
3, 77124, Note_on_c, 1, 43, 0
3, 77162, Note_on_c, 1, 42, 71
3, 77262, Note_on_c, 1, 42, 0
3, 77281, Note_on_c, 1, 43, 41
3, 77384, Note_on_c, 1, 43, 0
3, 77397, Note_on_c, 1, 37, 83
3, 77504, Note_on_c, 1, 37, 0
3, 77518, Note_on_c, 1, 36, 53
3, 77578, Note_on_c, 1, 36, 0
3, 77596, Note_on_c, 1, 43, 58
3, 77608, Note_on_c, 1, 43, 0
3, 77624, Note_on_c, 1, 42, 46
3, 77720, Note_on_c, 1, 39, 38
3, 77734, Note_on_c, 1, 42, 0
3, 77743, Note_on_c, 1, 39, 0
3, 77754, Note_on_c, 1, 41, 47
3, 77841, Note_on_c, 1, 41, 0
3, 77845, Note_on_c, 1, 36, 66
3, 77869, Note_on_c, 1, 36, 0
3, 77894, Note_on_c, 1, 33, 39
3, 77994, Note_on_c, 1, 33, 0
3, 78007, Note_on_c, 1, 32, 52
3, 78104, Note_on_c, 1, 32, 0
3, 78126, Note_on_c, 1, 32, 49
3, 78241, Note_on_c, 1, 32, 0
3, 78247, Note_on_c, 1, 35, 48
3, 78341, Note_on_c, 1, 35, 0
3, 78366, Note_on_c, 1, 35, 61
3, 78465, Note_on_c, 1, 35, 0
3, 78483, Note_on_c, 1, 34, 44
3, 78561, Note_on_c, 1, 37, 52
3, 78571, Note_on_c, 1, 37, 0
3, 78583, Note_on_c, 1, 34, 0
3, 78603, Note_on_c, 1, 46, 49
3, 78712, Note_on_c, 1, 46, 0
3, 78715, Note_on_c, 1, 50, 59
3, 78811, Note_on_c, 1, 50, 0
3, 78839, Note_on_c, 1, 50, 49
3, 78968, Note_on_c, 1, 45, 73
3, 78988, Note_on_c, 1, 50, 0
3, 79067, Note_on_c, 1, 45, 0
3, 79088, Note_on_c, 1, 45, 71
3, 79204, Note_on_c, 1, 53, 79
3, 79213, Note_on_c, 1, 45, 0
3, 79312, Note_on_c, 1, 53, 0
3, 79319, Note_on_c, 1, 42, 45
3, 79434, Note_on_c, 1, 42, 0
3, 79443, Note_on_c, 1, 43, 53
3, 79546, Note_on_c, 1, 43, 0
3, 79558, Note_on_c, 1, 47, 52
3, 79671, Note_on_c, 1, 47, 0
3, 79683, Note_on_c, 1, 48, 51
3, 79794, Note_on_c, 1, 42, 39
3, 79797, Note_on_c, 1, 48, 0
3, 79804, Note_on_c, 1, 42, 0
3, 79806, Note_on_c, 1, 43, 62
3, 79910, Note_on_c, 1, 43, 0
3, 79927, Note_on_c, 1, 42, 44
3, 80019, Note_on_c, 1, 42, 0
3, 80041, Note_on_c, 1, 42, 50
3, 80146, Note_on_c, 1, 42, 0
3, 80163, Note_on_c, 1, 41, 50
3, 80277, Note_on_c, 1, 41, 0
3, 80282, Note_on_c, 1, 53, 79
3, 80391, Note_on_c, 1, 53, 0
3, 80399, Note_on_c, 1, 46, 45
3, 80481, Note_on_c, 1, 49, 36
3, 80491, Note_on_c, 1, 49, 0
3, 80503, Note_on_c, 1, 50, 25
3, 80517, Note_on_c, 1, 50, 0
3, 80519, Note_on_c, 1, 46, 0
3, 80521, Note_on_c, 1, 58, 79
3, 80630, Note_on_c, 1, 58, 0
3, 80635, Note_on_c, 1, 55, 60
3, 80738, Note_on_c, 1, 55, 0
3, 80754, Note_on_c, 1, 51, 50
3, 80868, Note_on_c, 1, 51, 0
3, 80878, Note_on_c, 1, 44, 49
3, 80976, Note_on_c, 1, 44, 0
3, 80998, Note_on_c, 1, 44, 61
3, 81091, Note_on_c, 1, 44, 0
3, 81119, Note_on_c, 1, 43, 49
3, 81201, Note_on_c, 1, 50, 50
3, 81213, Note_on_c, 1, 50, 0
3, 81231, Note_on_c, 1, 43, 0
3, 81234, Note_on_c, 1, 58, 69
3, 81311, Note_on_c, 1, 50, 33
3, 81322, Note_on_c, 1, 50, 0
3, 81339, Note_on_c, 1, 58, 0
3, 81361, Note_on_c, 1, 60, 66
3, 81445, Note_on_c, 1, 48, 60
3, 81459, Note_on_c, 1, 60, 0
3, 81467, Note_on_c, 1, 48, 0
3, 81477, Note_on_c, 1, 53, 53
3, 81591, Note_on_c, 1, 53, 0
3, 81608, Note_on_c, 1, 53, 45
3, 81706, Note_on_c, 1, 53, 0
3, 81721, Note_on_c, 1, 48, 48
3, 81824, Note_on_c, 1, 48, 0
3, 81840, Note_on_c, 1, 44, 48
3, 81931, Note_on_c, 1, 44, 0
3, 81956, Note_on_c, 1, 44, 55
3, 82066, Note_on_c, 1, 44, 0
3, 82079, Note_on_c, 1, 50, 80
3, 82195, Note_on_c, 1, 50, 0
3, 82196, Note_on_c, 1, 45, 55
3, 82297, Note_on_c, 1, 45, 0
3, 82316, Note_on_c, 1, 46, 54
3, 82420, Note_on_c, 1, 46, 0
3, 82432, Note_on_c, 1, 38, 69
3, 82542, Note_on_c, 1, 38, 0
3, 82554, Note_on_c, 1, 39, 56
3, 82671, Note_on_c, 1, 39, 0
3, 82675, Note_on_c, 1, 41, 54
3, 82784, Note_on_c, 1, 41, 0
3, 82789, Note_on_c, 1, 43, 38
3, 82901, Note_on_c, 1, 43, 0
3, 82910, Note_on_c, 1, 39, 57
3, 83026, Note_on_c, 1, 39, 0
3, 83034, Note_on_c, 1, 45, 66
3, 83150, Note_on_c, 1, 45, 0
3, 83154, Note_on_c, 1, 39, 60
3, 83260, Note_on_c, 1, 39, 0
3, 83278, Note_on_c, 1, 38, 44
3, 83394, Note_on_c, 1, 51, 73
3, 83416, Note_on_c, 1, 38, 0
3, 83506, Note_on_c, 1, 51, 0
3, 83517, Note_on_c, 1, 50, 45
3, 83637, Note_on_c, 1, 38, 60
3, 83733, Note_on_c, 1, 38, 0
3, 83745, Note_on_c, 1, 50, 0
3, 83756, Note_on_c, 1, 38, 64
3, 83875, Note_on_c, 1, 51, 71
3, 83979, Note_on_c, 1, 38, 0
3, 83989, Note_on_c, 1, 51, 0
3, 83998, Note_on_c, 1, 50, 56
3, 84107, Note_on_c, 1, 50, 0
3, 84118, Note_on_c, 1, 48, 62
3, 84225, Note_on_c, 1, 48, 0
3, 84240, Note_on_c, 1, 43, 50
3, 84338, Note_on_c, 1, 43, 0
3, 84354, Note_on_c, 1, 39, 46
3, 84462, Note_on_c, 1, 39, 0
3, 84476, Note_on_c, 1, 38, 49
3, 84600, Note_on_c, 1, 50, 73
3, 84608, Note_on_c, 1, 38, 0
3, 84700, Note_on_c, 1, 50, 0
3, 84720, Note_on_c, 1, 43, 47
3, 84839, Note_on_c, 1, 50, 66
3, 84854, Note_on_c, 1, 43, 0
3, 84917, Note_on_c, 1, 43, 37
3, 84921, Note_on_c, 1, 50, 0
3, 84932, Note_on_c, 1, 43, 0
3, 84958, Note_on_c, 1, 48, 57
3, 85059, Note_on_c, 1, 48, 0
3, 85077, Note_on_c, 1, 42, 52
3, 85179, Note_on_c, 1, 42, 0
3, 85196, Note_on_c, 1, 41, 53
3, 85253, Note_on_c, 1, 41, 0
3, 85283, Note_on_c, 1, 41, 62
3, 85311, Note_on_c, 1, 41, 0
3, 85319, Note_on_c, 1, 33, 58
3, 85440, Note_on_c, 1, 33, 0
3, 85443, Note_on_c, 1, 34, 48
3, 85517, Note_on_c, 1, 34, 0
3, 85556, Note_on_c, 1, 34, 53
3, 85673, Note_on_c, 1, 34, 0
3, 85681, Note_on_c, 1, 36, 40
3, 85781, Note_on_c, 1, 36, 0
3, 85805, Note_on_c, 1, 38, 44
3, 85884, Note_on_c, 1, 37, 37
3, 85907, Note_on_c, 1, 38, 0
3, 85912, Note_on_c, 1, 37, 0
3, 85919, Note_on_c, 1, 41, 36
3, 86036, Note_on_c, 1, 41, 0
3, 86036, Note_on_c, 1, 44, 49
3, 86152, Note_on_c, 1, 44, 0
3, 86160, Note_on_c, 1, 41, 43
3, 86244, Note_on_c, 1, 38, 42
3, 86248, Note_on_c, 1, 41, 0
3, 86257, Note_on_c, 1, 38, 0
3, 86283, Note_on_c, 1, 43, 44
3, 86379, Note_on_c, 1, 43, 0
3, 86401, Note_on_c, 1, 44, 46
3, 86482, Note_on_c, 1, 38, 43
3, 86493, Note_on_c, 1, 38, 0
3, 86508, Note_on_c, 1, 44, 0
3, 86522, Note_on_c, 1, 41, 44
3, 86625, Note_on_c, 1, 41, 0
3, 86639, Note_on_c, 1, 43, 51
3, 86758, Note_on_c, 1, 38, 38
3, 86759, Note_on_c, 1, 43, 0
3, 86880, Note_on_c, 1, 31, 62
3, 86882, Note_on_c, 1, 38, 0
3, 87002, Note_on_c, 1, 48, 65
3, 87054, Note_on_c, 1, 31, 0
3, 87112, Note_on_c, 1, 48, 0
3, 87119, Note_on_c, 1, 41, 38
3, 87225, Note_on_c, 1, 41, 0
3, 87234, Note_on_c, 1, 37, 50
3, 87344, Note_on_c, 1, 37, 0
3, 87363, Note_on_c, 1, 36, 49
3, 87456, Note_on_c, 1, 38, 28
3, 87471, Note_on_c, 1, 38, 0
3, 87480, Note_on_c, 1, 36, 0
3, 87483, Note_on_c, 1, 51, 64
3, 87581, Note_on_c, 1, 51, 0
3, 87597, Note_on_c, 1, 54, 46
3, 87714, Note_on_c, 1, 40, 50
3, 87721, Note_on_c, 1, 54, 0
3, 87833, Note_on_c, 1, 40, 0
3, 87837, Note_on_c, 1, 41, 52
3, 87923, Note_on_c, 1, 39, 35
3, 87956, Note_on_c, 1, 41, 0
3, 87962, Note_on_c, 1, 53, 68
3, 87974, Note_on_c, 1, 39, 0
3, 88042, Note_on_c, 1, 41, 17
3, 88057, Note_on_c, 1, 41, 0
3, 88063, Note_on_c, 1, 53, 0
3, 88081, Note_on_c, 1, 46, 42
3, 88187, Note_on_c, 1, 46, 0
3, 88196, Note_on_c, 1, 38, 57
3, 88315, Note_on_c, 1, 38, 0
3, 88323, Note_on_c, 1, 39, 57
3, 88418, Note_on_c, 1, 39, 0
3, 88444, Note_on_c, 1, 39, 50
3, 88550, Note_on_c, 1, 39, 0
3, 88558, Note_on_c, 1, 32, 73
3, 88659, Note_on_c, 1, 32, 0
3, 88678, Note_on_c, 1, 32, 64
3, 88776, Note_on_c, 1, 32, 0
3, 88797, Note_on_c, 1, 31, 58
3, 88906, Note_on_c, 1, 31, 0
3, 88921, Note_on_c, 1, 37, 59
3, 88993, Note_on_c, 1, 37, 0
3, 88998, Note_on_c, 1, 34, 42
3, 89028, Note_on_c, 1, 34, 0
3, 89038, Note_on_c, 1, 36, 44
3, 89118, Note_on_c, 1, 34, 32
3, 89133, Note_on_c, 1, 36, 0
3, 89138, Note_on_c, 1, 34, 0
3, 89153, Note_on_c, 1, 48, 60
3, 89251, Note_on_c, 1, 48, 0
3, 89273, Note_on_c, 1, 53, 58
3, 89370, Note_on_c, 1, 53, 0
3, 89390, Note_on_c, 1, 41, 58
3, 89516, Note_on_c, 1, 41, 0
3, 89520, Note_on_c, 1, 47, 49
3, 89604, Note_on_c, 1, 41, 25
3, 89616, Note_on_c, 1, 41, 0
3, 89630, Note_on_c, 1, 47, 0
3, 89639, Note_on_c, 1, 44, 35
3, 89735, Note_on_c, 1, 44, 0
3, 89760, Note_on_c, 1, 50, 42
3, 89879, Note_on_c, 1, 42, 43
3, 89881, Note_on_c, 1, 50, 0
3, 89969, Note_on_c, 1, 42, 0
3, 90001, Note_on_c, 1, 34, 55
3, 90086, Note_on_c, 1, 41, 38
3, 90101, Note_on_c, 1, 41, 0
3, 90110, Note_on_c, 1, 34, 0
3, 90119, Note_on_c, 1, 46, 50
3, 90230, Note_on_c, 1, 46, 0
3, 90241, Note_on_c, 1, 43, 34
3, 90359, Note_on_c, 1, 34, 50
3, 90360, Note_on_c, 1, 43, 0
3, 90477, Note_on_c, 1, 34, 0
3, 90484, Note_on_c, 1, 33, 56
3, 90587, Note_on_c, 1, 33, 0
3, 90602, Note_on_c, 1, 39, 65
3, 90703, Note_on_c, 1, 39, 0
3, 90715, Note_on_c, 1, 38, 50
3, 90820, Note_on_c, 1, 38, 0
3, 90841, Note_on_c, 1, 46, 56
3, 90942, Note_on_c, 1, 46, 0
3, 90968, Note_on_c, 1, 45, 36
3, 91036, Note_on_c, 1, 45, 0
3, 91046, Note_on_c, 1, 43, 56
3, 91061, Note_on_c, 1, 43, 0
3, 91081, Note_on_c, 1, 47, 59
3, 91155, Note_on_c, 1, 50, 66
3, 91157, Note_on_c, 1, 47, 0
3, 91194, Note_on_c, 1, 50, 0
3, 91208, Note_on_c, 1, 48, 39
3, 91288, Note_on_c, 1, 43, 26
3, 91294, Note_on_c, 1, 48, 0
3, 91301, Note_on_c, 1, 43, 0
3, 91316, Note_on_c, 1, 51, 57
3, 91413, Note_on_c, 1, 51, 0
3, 91431, Note_on_c, 1, 42, 56
3, 91532, Note_on_c, 1, 42, 0
3, 91559, Note_on_c, 1, 42, 42
3, 91671, Note_on_c, 1, 42, 0
3, 91676, Note_on_c, 1, 41, 54
3, 91760, Note_on_c, 1, 39, 44
3, 91777, Note_on_c, 1, 41, 0
3, 91796, Note_on_c, 1, 55, 90
3, 91801, Note_on_c, 1, 39, 0
3, 91902, Note_on_c, 1, 55, 0
3, 91918, Note_on_c, 1, 53, 63
3, 92013, Note_on_c, 1, 53, 0
3, 92042, Note_on_c, 1, 51, 52
3, 92140, Note_on_c, 1, 51, 0
3, 92163, Note_on_c, 1, 50, 57
3, 92244, Note_on_c, 1, 42, 30
3, 92254, Note_on_c, 1, 42, 0
3, 92263, Note_on_c, 1, 50, 0
3, 92280, Note_on_c, 1, 46, 42
3, 92375, Note_on_c, 1, 46, 0
3, 92397, Note_on_c, 1, 48, 57
3, 92513, Note_on_c, 1, 48, 0
3, 92516, Note_on_c, 1, 42, 54
3, 92624, Note_on_c, 1, 42, 0
3, 92636, Note_on_c, 1, 43, 51
3, 92739, Note_on_c, 1, 43, 0
3, 92762, Note_on_c, 1, 37, 56
3, 92870, Note_on_c, 1, 37, 0
3, 92884, Note_on_c, 1, 36, 45
3, 92991, Note_on_c, 1, 36, 0
3, 92998, Note_on_c, 1, 30, 77
3, 93100, Note_on_c, 1, 30, 0
3, 93122, Note_on_c, 1, 29, 49
3, 93235, Note_on_c, 1, 36, 64
3, 93266, Note_on_c, 1, 29, 0
3, 93342, Note_on_c, 1, 36, 0
3, 93361, Note_on_c, 1, 32, 46
3, 93455, Note_on_c, 1, 32, 0
3, 93474, Note_on_c, 1, 32, 54
3, 93579, Note_on_c, 1, 32, 0
3, 93604, Note_on_c, 1, 35, 36
3, 93705, Note_on_c, 1, 35, 0
3, 93723, Note_on_c, 1, 41, 66
3, 93824, Note_on_c, 1, 41, 0
3, 93837, Note_on_c, 1, 38, 55
3, 93960, Note_on_c, 1, 38, 0
3, 93960, Note_on_c, 1, 46, 53
3, 94077, Note_on_c, 1, 46, 0
3, 94091, Note_on_c, 1, 41, 19
3, 94092, Note_on_c, 1, 43, 24
3, 94101, Note_on_c, 1, 41, 0
3, 94164, Note_on_c, 1, 39, 54
3, 94181, Note_on_c, 1, 43, 0
3, 94186, Note_on_c, 1, 39, 0
3, 94199, Note_on_c, 1, 53, 64
3, 94276, Note_on_c, 1, 39, 25
3, 94279, Note_on_c, 1, 41, 24
3, 94290, Note_on_c, 1, 41, 0
3, 94295, Note_on_c, 1, 39, 0
3, 94307, Note_on_c, 1, 53, 0
3, 94324, Note_on_c, 1, 45, 44
3, 94394, Note_on_c, 1, 45, 0
3, 94399, Note_on_c, 1, 39, 77
3, 94546, Note_on_c, 1, 39, 0
3, 94556, Note_on_c, 1, 38, 53
3, 94659, Note_on_c, 1, 38, 0
3, 94677, Note_on_c, 1, 44, 49
3, 94750, Note_on_c, 1, 42, 52
3, 94753, Note_on_c, 1, 44, 0
3, 94785, Note_on_c, 1, 42, 0
3, 94799, Note_on_c, 1, 43, 37
3, 94872, Note_on_c, 1, 50, 70
3, 94875, Note_on_c, 1, 42, 34
3, 94887, Note_on_c, 1, 43, 0
3, 94888, Note_on_c, 1, 42, 0
3, 94895, Note_on_c, 1, 50, 0
3, 94915, Note_on_c, 1, 53, 73
3, 94977, Note_on_c, 1, 53, 0
3, 94987, Note_on_c, 1, 50, 40
3, 95015, Note_on_c, 1, 50, 0
3, 95032, Note_on_c, 1, 51, 68
3, 95131, Note_on_c, 1, 51, 0
3, 95156, Note_on_c, 1, 50, 49
3, 95262, Note_on_c, 1, 50, 0
3, 95276, Note_on_c, 1, 48, 46
3, 95380, Note_on_c, 1, 48, 0
3, 95391, Note_on_c, 1, 42, 52
3, 95479, Note_on_c, 1, 39, 31
3, 95497, Note_on_c, 1, 42, 0
3, 95504, Note_on_c, 1, 39, 0
3, 95518, Note_on_c, 1, 41, 55
3, 95614, Note_on_c, 1, 41, 0
3, 95642, Note_on_c, 1, 33, 70
3, 95755, Note_on_c, 1, 33, 0
3, 95763, Note_on_c, 1, 34, 54
3, 95858, Note_on_c, 1, 34, 0
3, 95878, Note_on_c, 1, 34, 59
3, 95991, Note_on_c, 1, 34, 0
3, 96000, Note_on_c, 1, 39, 65
3, 96118, Note_on_c, 1, 39, 0
3, 96128, Note_on_c, 1, 32, 56
3, 96225, Note_on_c, 1, 32, 0
3, 96252, Note_on_c, 1, 32, 47
3, 96370, Note_on_c, 1, 44, 44
3, 96471, Note_on_c, 1, 32, 0
3, 96474, Note_on_c, 1, 44, 0
3, 96485, Note_on_c, 1, 43, 53
3, 96593, Note_on_c, 1, 43, 0
3, 96604, Note_on_c, 1, 31, 62
3, 96726, Note_on_c, 1, 36, 57
3, 96800, Note_on_c, 1, 31, 0
3, 96823, Note_on_c, 1, 36, 0
3, 96843, Note_on_c, 1, 36, 72
3, 96956, Note_on_c, 1, 36, 0
3, 96958, Note_on_c, 1, 41, 60
3, 97049, Note_on_c, 1, 36, 44
3, 97070, Note_on_c, 1, 36, 0
3, 97071, Note_on_c, 1, 41, 0
3, 97077, Note_on_c, 1, 48, 71
3, 97182, Note_on_c, 1, 48, 0
3, 97196, Note_on_c, 1, 46, 43
3, 97277, Note_on_c, 1, 41, 47
3, 97292, Note_on_c, 1, 41, 0
3, 97293, Note_on_c, 1, 46, 0
3, 97316, Note_on_c, 1, 47, 57
3, 97423, Note_on_c, 1, 47, 0
3, 97434, Note_on_c, 1, 35, 56
3, 97523, Note_on_c, 1, 40, 36
3, 97537, Note_on_c, 1, 40, 0
3, 97559, Note_on_c, 1, 47, 62
3, 97568, Note_on_c, 1, 35, 0
3, 97668, Note_on_c, 1, 47, 0
3, 97683, Note_on_c, 1, 46, 49
3, 97792, Note_on_c, 1, 46, 0
3, 97795, Note_on_c, 1, 38, 65
3, 97896, Note_on_c, 1, 38, 0
3, 97916, Note_on_c, 1, 39, 57
3, 98008, Note_on_c, 1, 39, 0
3, 98037, Note_on_c, 1, 39, 56
3, 98161, Note_on_c, 1, 39, 0
3, 98161, Note_on_c, 1, 46, 62
3, 98250, Note_on_c, 1, 39, 35
3, 98255, Note_on_c, 1, 46, 0
3, 98276, Note_on_c, 1, 39, 0
3, 98282, Note_on_c, 1, 46, 56
3, 98397, Note_on_c, 1, 46, 0
3, 98398, Note_on_c, 1, 45, 68
3, 98483, Note_on_c, 1, 39, 38
3, 98501, Note_on_c, 1, 45, 0
3, 98507, Note_on_c, 1, 39, 0
3, 98520, Note_on_c, 1, 51, 73
3, 98619, Note_on_c, 1, 51, 0
3, 98639, Note_on_c, 1, 50, 64
3, 98754, Note_on_c, 1, 42, 57
3, 98757, Note_on_c, 1, 50, 0
3, 98865, Note_on_c, 1, 42, 0
3, 98879, Note_on_c, 1, 43, 55
3, 98982, Note_on_c, 1, 43, 0
3, 99005, Note_on_c, 1, 37, 57
3, 99112, Note_on_c, 1, 37, 0
3, 99123, Note_on_c, 1, 38, 53
3, 99219, Note_on_c, 1, 38, 0
3, 99236, Note_on_c, 1, 32, 72
3, 99347, Note_on_c, 1, 32, 0
3, 99358, Note_on_c, 1, 33, 63
3, 99465, Note_on_c, 1, 33, 0
3, 99478, Note_on_c, 1, 39, 75
3, 99586, Note_on_c, 1, 39, 0
3, 99600, Note_on_c, 1, 38, 60
3, 99713, Note_on_c, 1, 38, 0
3, 99720, Note_on_c, 1, 32, 65
3, 99824, Note_on_c, 1, 32, 0
3, 99841, Note_on_c, 1, 31, 61
3, 99963, Note_on_c, 1, 37, 51
3, 100020, Note_on_c, 1, 31, 0
3, 100047, Note_on_c, 1, 43, 52
3, 100056, Note_on_c, 1, 37, 0
3, 100060, Note_on_c, 1, 43, 0
3, 100077, Note_on_c, 1, 50, 58
3, 100167, Note_on_c, 1, 50, 0
3, 100197, Note_on_c, 1, 49, 57
3, 100299, Note_on_c, 1, 49, 0
3, 100320, Note_on_c, 1, 48, 50
3, 100401, Note_on_c, 1, 39, 23
3, 100407, Note_on_c, 1, 48, 0
3, 100416, Note_on_c, 1, 39, 0
3, 100437, Note_on_c, 1, 46, 44
3, 100539, Note_on_c, 1, 46, 0
3, 100558, Note_on_c, 1, 45, 48
3, 100659, Note_on_c, 1, 45, 0
3, 100675, Note_on_c, 1, 33, 64
3, 100786, Note_on_c, 1, 33, 0
3, 100804, Note_on_c, 1, 34, 45
3, 100863, Note_on_c, 1, 34, 0
3, 100879, Note_on_c, 1, 34, 38
3, 100922, Note_on_c, 1, 53, 78
3, 100929, Note_on_c, 1, 34, 0
3, 101027, Note_on_c, 1, 53, 0
3, 101041, Note_on_c, 1, 50, 46
3, 101152, Note_on_c, 1, 50, 0
3, 101154, Note_on_c, 1, 43, 60
3, 101264, Note_on_c, 1, 43, 0
3, 101281, Note_on_c, 1, 44, 52
3, 101393, Note_on_c, 1, 44, 0
3, 101395, Note_on_c, 1, 43, 66
3, 101520, Note_on_c, 1, 43, 0
3, 101526, Note_on_c, 1, 41, 54
3, 101627, Note_on_c, 1, 41, 0
3, 101641, Note_on_c, 1, 39, 58
3, 101755, Note_on_c, 1, 39, 0
3, 101760, Note_on_c, 1, 38, 54
3, 101867, Note_on_c, 1, 38, 0
3, 101882, Note_on_c, 1, 44, 69
3, 101986, Note_on_c, 1, 44, 0
3, 101998, Note_on_c, 1, 43, 63
3, 102093, Note_on_c, 1, 43, 0
3, 102116, Note_on_c, 1, 43, 64
3, 102239, Note_on_c, 1, 31, 67
3, 102246, Note_on_c, 1, 43, 0
3, 102356, Note_on_c, 1, 43, 74
3, 102444, Note_on_c, 1, 43, 0
3, 102476, Note_on_c, 1, 41, 58
3, 102478, Note_on_c, 1, 31, 0
3, 102568, Note_on_c, 1, 39, 67
3, 102578, Note_on_c, 1, 41, 0
3, 102606, Note_on_c, 1, 37, 58
3, 102610, Note_on_c, 1, 39, 0
3, 102705, Note_on_c, 1, 37, 0
3, 102725, Note_on_c, 1, 36, 56
3, 102820, Note_on_c, 1, 36, 0
3, 102842, Note_on_c, 1, 43, 50
3, 102948, Note_on_c, 1, 43, 0
3, 102963, Note_on_c, 1, 42, 57
3, 103081, Note_on_c, 1, 54, 81
3, 103103, Note_on_c, 1, 42, 0
3, 103154, Note_on_c, 1, 42, 31
3, 103179, Note_on_c, 1, 42, 0
3, 103192, Note_on_c, 1, 54, 0
3, 103207, Note_on_c, 1, 53, 62
3, 103316, Note_on_c, 1, 48, 39
3, 103329, Note_on_c, 1, 53, 0
3, 103427, Note_on_c, 1, 48, 0
3, 103440, Note_on_c, 1, 46, 46
3, 103537, Note_on_c, 1, 46, 0
3, 103562, Note_on_c, 1, 46, 50
3, 103668, Note_on_c, 1, 46, 0
3, 103678, Note_on_c, 1, 39, 56
3, 103897, Note_on_c, 1, 42, 30
3, 103924, Note_on_c, 1, 39, 0
3, 103925, Note_on_c, 1, 42, 0
3, 103930, Note_on_c, 1, 44, 69
3, 104122, Note_on_c, 1, 44, 0
3, 104129, Note_on_c, 1, 42, 47
3, 104157, Note_on_c, 1, 42, 0
3, 104171, Note_on_c, 1, 43, 48
3, 104237, Note_on_c, 1, 43, 0
3, 104244, Note_on_c, 1, 37, 60
3, 104270, Note_on_c, 1, 37, 0
3, 104278, Note_on_c, 1, 34, 67
3, 104391, Note_on_c, 1, 34, 0
3, 104405, Note_on_c, 1, 36, 43
3, 104503, Note_on_c, 1, 36, 0
3, 104509, Note_on_c, 1, 30, 44
3, 104625, Note_on_c, 1, 30, 0
3, 104633, Note_on_c, 1, 29, 57
3, 104869, Note_on_c, 1, 29, 0
3, 104879, Note_on_c, 1, 32, 56
3, 105117, Note_on_c, 1, 32, 0
3, 105123, Note_on_c, 1, 35, 63
3, 105347, Note_on_c, 1, 35, 0
3, 105359, Note_on_c, 1, 34, 51
3, 105577, Note_on_c, 1, 34, 0
3, 105600, Note_on_c, 1, 39, 63
3, 105746, Note_on_c, 1, 39, 0
3, 105796, Note_on_c, 1, 39, 62
3, 106728, Note_on_c, 1, 39, 0
3, 106728, End_track
4, 0, Start_track
4, 0, Title_t, "Minimal editing"
4, 0, End_track
5, 0, Start_track
5, 0, Title_t, "No Quantizing on any part"
5, 0, Program_c, 9, 32
5, 45361, Note_on_c, 9, 51, 76
5, 45390, Note_on_c, 9, 51, 0
5, 45605, Note_on_c, 9, 51, 83
5, 45632, Note_on_c, 9, 51, 0
5, 45796, Note_on_c, 9, 53, 83
5, 45821, Note_on_c, 9, 53, 0
5, 45845, Note_on_c, 9, 51, 76
5, 45865, Note_on_c, 9, 51, 0
5, 45963, Note_on_c, 9, 51, 81
5, 46029, Note_on_c, 9, 51, 0
5, 46080, Note_on_c, 9, 51, 83
5, 46133, Note_on_c, 9, 51, 0
5, 46282, Note_on_c, 9, 51, 46
5, 46300, Note_on_c, 9, 51, 0
5, 46323, Note_on_c, 9, 51, 64
5, 46413, Note_on_c, 9, 51, 0
5, 46564, Note_on_c, 9, 51, 83
5, 46596, Note_on_c, 9, 51, 0
5, 46686, Note_on_c, 9, 51, 86
5, 46793, Note_on_c, 9, 51, 0
5, 46880, Note_on_c, 9, 51, 67
5, 46905, Note_on_c, 9, 51, 0
5, 46921, Note_on_c, 9, 51, 83
5, 46979, Note_on_c, 9, 51, 0
5, 47040, Note_on_c, 9, 51, 85
5, 47093, Note_on_c, 9, 51, 0
5, 47161, Note_on_c, 9, 51, 80
5, 47212, Note_on_c, 9, 51, 0
5, 47402, Note_on_c, 9, 51, 76
5, 47402, Note_on_c, 9, 53, 74
5, 47506, Note_on_c, 9, 53, 0
5, 47507, Note_on_c, 9, 51, 0
5, 47525, Note_on_c, 9, 51, 46
5, 47546, Note_on_c, 9, 51, 0
5, 47640, Note_on_c, 9, 51, 73
5, 47736, Note_on_c, 9, 51, 0
5, 47882, Note_on_c, 9, 51, 27
5, 47915, Note_on_c, 9, 51, 0
5, 48010, Note_on_c, 9, 51, 62
5, 48024, Note_on_c, 9, 51, 0
5, 48128, Note_on_c, 9, 51, 67
5, 48146, Note_on_c, 9, 51, 0
5, 48206, Note_on_c, 9, 51, 51
5, 48225, Note_on_c, 9, 51, 0
5, 48248, Note_on_c, 9, 51, 59
5, 48287, Note_on_c, 9, 51, 0
5, 48366, Note_on_c, 9, 51, 75
5, 48402, Note_on_c, 9, 51, 0
5, 48476, Note_on_c, 9, 59, 71
5, 48478, Note_on_c, 9, 51, 69
5, 48531, Note_on_c, 9, 51, 0
5, 48535, Note_on_c, 9, 59, 0
5, 48597, Note_on_c, 9, 59, 74
5, 48598, Note_on_c, 9, 51, 77
5, 48641, Note_on_c, 9, 59, 0
5, 48669, Note_on_c, 9, 51, 0
5, 48725, Note_on_c, 9, 51, 42
5, 48743, Note_on_c, 9, 51, 0
5, 48839, Note_on_c, 9, 51, 73
5, 48905, Note_on_c, 9, 51, 0
5, 49075, Note_on_c, 9, 51, 77
5, 49098, Note_on_c, 9, 51, 0
5, 49142, Note_on_c, 9, 51, 74
5, 49162, Note_on_c, 9, 51, 0
5, 49187, Note_on_c, 9, 51, 72
5, 49237, Note_on_c, 9, 51, 0
5, 49317, Note_on_c, 9, 51, 79
5, 49369, Note_on_c, 9, 51, 0
5, 49444, Note_on_c, 9, 53, 71
5, 49447, Note_on_c, 9, 51, 64
5, 49512, Note_on_c, 9, 51, 0
5, 49532, Note_on_c, 9, 53, 0
5, 49633, Note_on_c, 9, 51, 56
5, 49653, Note_on_c, 9, 51, 0
5, 49679, Note_on_c, 9, 51, 60
5, 49746, Note_on_c, 9, 51, 0
5, 49804, Note_on_c, 9, 51, 64
5, 49879, Note_on_c, 9, 51, 0
5, 49934, Note_on_c, 9, 51, 42
5, 49948, Note_on_c, 9, 51, 0
5, 50041, Note_on_c, 9, 51, 69
5, 50067, Note_on_c, 9, 51, 0
5, 50108, Note_on_c, 9, 51, 64
5, 50127, Note_on_c, 9, 51, 0
5, 50158, Note_on_c, 9, 51, 64
5, 50213, Note_on_c, 9, 51, 0
5, 50406, Note_on_c, 9, 51, 69
5, 50444, Note_on_c, 9, 51, 0
5, 50518, Note_on_c, 9, 51, 69
5, 50566, Note_on_c, 9, 51, 0
5, 50643, Note_on_c, 9, 51, 71
5, 50672, Note_on_c, 9, 51, 0
5, 50757, Note_on_c, 9, 51, 93
5, 50854, Note_on_c, 9, 51, 0
5, 50999, Note_on_c, 9, 51, 60
5, 51049, Note_on_c, 9, 51, 0
5, 51240, Note_on_c, 9, 53, 68
5, 51241, Note_on_c, 9, 51, 62
5, 51288, Note_on_c, 9, 51, 0
5, 51290, Note_on_c, 9, 53, 0
5, 51357, Note_on_c, 9, 51, 47
5, 51392, Note_on_c, 9, 51, 0
5, 51470, Note_on_c, 9, 53, 60
5, 51472, Note_on_c, 9, 51, 60
5, 51512, Note_on_c, 9, 51, 0
5, 51518, Note_on_c, 9, 53, 0
5, 51597, Note_on_c, 9, 51, 38
5, 51637, Note_on_c, 9, 51, 0
5, 51720, Note_on_c, 9, 51, 70
5, 51752, Note_on_c, 9, 51, 0
5, 51802, Note_on_c, 9, 51, 35
5, 51822, Note_on_c, 9, 51, 0
5, 51842, Note_on_c, 9, 51, 65
5, 51890, Note_on_c, 9, 51, 0
5, 51959, Note_on_c, 9, 51, 75
5, 52038, Note_on_c, 9, 51, 0
5, 52154, Note_on_c, 9, 51, 52
5, 52179, Note_on_c, 9, 51, 0
5, 52202, Note_on_c, 9, 51, 52
5, 52257, Note_on_c, 9, 51, 0
5, 52322, Note_on_c, 9, 51, 77
5, 52368, Note_on_c, 9, 51, 0
5, 52446, Note_on_c, 9, 51, 81
5, 52495, Note_on_c, 9, 51, 0
5, 52567, Note_on_c, 9, 51, 59
5, 52593, Note_on_c, 9, 51, 0
5, 52649, Note_on_c, 9, 51, 69
5, 52667, Note_on_c, 9, 51, 0
5, 52689, Note_on_c, 9, 51, 70
5, 52742, Note_on_c, 9, 51, 0
5, 52800, Note_on_c, 9, 51, 76
5, 52847, Note_on_c, 9, 51, 0
5, 52923, Note_on_c, 9, 51, 79
5, 52981, Note_on_c, 9, 51, 0
5, 53044, Note_on_c, 9, 51, 64
5, 53075, Note_on_c, 9, 51, 0
5, 53118, Note_on_c, 9, 51, 49
5, 53138, Note_on_c, 9, 51, 0
5, 53164, Note_on_c, 9, 51, 62
5, 53239, Note_on_c, 9, 51, 0
5, 53408, Note_on_c, 9, 51, 75
5, 53442, Note_on_c, 9, 51, 0
5, 53526, Note_on_c, 9, 51, 77
5, 53575, Note_on_c, 9, 51, 0
5, 53641, Note_on_c, 9, 51, 51
5, 53642, Note_on_c, 9, 53, 62
5, 53721, Note_on_c, 9, 53, 0
5, 53726, Note_on_c, 9, 51, 0
5, 53883, Note_on_c, 9, 51, 58
5, 53920, Note_on_c, 9, 51, 0
5, 53956, Note_on_c, 9, 51, 57
5, 53973, Note_on_c, 9, 51, 0
5, 54001, Note_on_c, 9, 51, 76
5, 54052, Note_on_c, 9, 51, 0
5, 54120, Note_on_c, 9, 51, 87
5, 54176, Note_on_c, 9, 51, 0
5, 54238, Note_on_c, 9, 51, 52
5, 54261, Note_on_c, 9, 51, 0
5, 54310, Note_on_c, 9, 51, 55
5, 54337, Note_on_c, 9, 51, 0
5, 54358, Note_on_c, 9, 51, 73
5, 54414, Note_on_c, 9, 51, 0
5, 54476, Note_on_c, 9, 51, 77
5, 54526, Note_on_c, 9, 51, 0
5, 54599, Note_on_c, 9, 51, 80
5, 54645, Note_on_c, 9, 51, 0
5, 54686, Note_on_c, 9, 51, 53
5, 54711, Note_on_c, 9, 51, 0
5, 54729, Note_on_c, 9, 51, 71
5, 54777, Note_on_c, 9, 51, 0
5, 54844, Note_on_c, 9, 51, 75
5, 54881, Note_on_c, 9, 51, 0
5, 54921, Note_on_c, 9, 51, 57
5, 54945, Note_on_c, 9, 51, 0
5, 54963, Note_on_c, 9, 51, 70
5, 54992, Note_on_c, 9, 51, 0
5, 55077, Note_on_c, 9, 51, 88
5, 55176, Note_on_c, 9, 51, 0
5, 55216, Note_on_c, 9, 51, 43
5, 55226, Note_on_c, 9, 51, 0
5, 55278, Note_on_c, 9, 51, 77
5, 55297, Note_on_c, 9, 51, 0
5, 55319, Note_on_c, 9, 51, 72
5, 55373, Note_on_c, 9, 51, 0
5, 55440, Note_on_c, 9, 51, 81
5, 55483, Note_on_c, 9, 51, 0
5, 55558, Note_on_c, 9, 51, 91
5, 55663, Note_on_c, 9, 51, 0
5, 55803, Note_on_c, 9, 51, 74
5, 55835, Note_on_c, 9, 51, 0
5, 55924, Note_on_c, 9, 51, 77
5, 55953, Note_on_c, 9, 51, 0
5, 55998, Note_on_c, 9, 53, 70
5, 56005, Note_on_c, 9, 51, 55
5, 56075, Note_on_c, 9, 53, 0
5, 56076, Note_on_c, 9, 51, 0
5, 56177, Note_on_c, 9, 51, 62
5, 56200, Note_on_c, 9, 51, 0
5, 56238, Note_on_c, 9, 51, 77
5, 56243, Note_on_c, 9, 53, 72
5, 56345, Note_on_c, 9, 53, 0
5, 56346, Note_on_c, 9, 51, 0
5, 56408, Note_on_c, 9, 51, 58
5, 56439, Note_on_c, 9, 51, 0
5, 56473, Note_on_c, 9, 51, 72
5, 56473, Note_on_c, 9, 53, 71
5, 56534, Note_on_c, 9, 51, 0
5, 56538, Note_on_c, 9, 53, 0
5, 56594, Note_on_c, 9, 51, 60
5, 56616, Note_on_c, 9, 51, 0
5, 56643, Note_on_c, 9, 51, 58
5, 56712, Note_on_c, 9, 51, 0
5, 56762, Note_on_c, 9, 51, 60
5, 56804, Note_on_c, 9, 51, 0
5, 56881, Note_on_c, 9, 51, 56
5, 56928, Note_on_c, 9, 51, 0
5, 56999, Note_on_c, 9, 59, 59
5, 57002, Note_on_c, 9, 51, 50
5, 57043, Note_on_c, 9, 59, 0
5, 57045, Note_on_c, 9, 51, 0
5, 57122, Note_on_c, 9, 51, 60
5, 57124, Note_on_c, 9, 59, 54
5, 57168, Note_on_c, 9, 59, 0
5, 57193, Note_on_c, 9, 51, 0
5, 57238, Note_on_c, 9, 51, 46
5, 57286, Note_on_c, 9, 51, 0
5, 57364, Note_on_c, 9, 51, 70
5, 57406, Note_on_c, 9, 51, 0
5, 57474, Note_on_c, 9, 51, 62
5, 57507, Note_on_c, 9, 51, 0
5, 57605, Note_on_c, 9, 51, 54
5, 57676, Note_on_c, 9, 59, 57
5, 57681, Note_on_c, 9, 51, 0
5, 57694, Note_on_c, 9, 59, 0
5, 57731, Note_on_c, 9, 59, 61
5, 57756, Note_on_c, 9, 59, 0
5, 57794, Note_on_c, 9, 51, 69
5, 57825, Note_on_c, 9, 51, 0
5, 57853, Note_on_c, 9, 51, 59
5, 57896, Note_on_c, 9, 51, 0
5, 57920, Note_on_c, 9, 59, 71
5, 57941, Note_on_c, 9, 59, 0
5, 57967, Note_on_c, 9, 59, 60
5, 57990, Note_on_c, 9, 59, 0
5, 58025, Note_on_c, 9, 51, 65
5, 58051, Note_on_c, 9, 51, 0
5, 58075, Note_on_c, 9, 51, 39
5, 58112, Note_on_c, 9, 51, 0
5, 58193, Note_on_c, 9, 51, 70
5, 58227, Note_on_c, 9, 51, 0
5, 58319, Note_on_c, 9, 51, 76
5, 58377, Note_on_c, 9, 51, 0
5, 58513, Note_on_c, 9, 51, 56
5, 58535, Note_on_c, 9, 51, 0
5, 58560, Note_on_c, 9, 51, 45
5, 58606, Note_on_c, 9, 51, 0
5, 58744, Note_on_c, 9, 51, 39
5, 58746, Note_on_c, 9, 53, 42
5, 58768, Note_on_c, 9, 51, 0
5, 58769, Note_on_c, 9, 53, 0
5, 58798, Note_on_c, 9, 53, 45
5, 58799, Note_on_c, 9, 51, 36
5, 58842, Note_on_c, 9, 51, 0
5, 58844, Note_on_c, 9, 53, 0
5, 58980, Note_on_c, 9, 51, 30
5, 58991, Note_on_c, 9, 51, 0
5, 59044, Note_on_c, 9, 51, 43
5, 59045, Note_on_c, 9, 53, 53
5, 59078, Note_on_c, 9, 51, 0
5, 59079, Note_on_c, 9, 53, 0
5, 59164, Note_on_c, 9, 51, 40
5, 59164, Note_on_c, 9, 53, 42
5, 59209, Note_on_c, 9, 53, 0
5, 59209, Note_on_c, 9, 51, 0
5, 59343, Note_on_c, 9, 51, 52
5, 59358, Note_on_c, 9, 51, 0
5, 59396, Note_on_c, 9, 51, 45
5, 59401, Note_on_c, 9, 53, 51
5, 59443, Note_on_c, 9, 51, 0
5, 59446, Note_on_c, 9, 53, 0
5, 59519, Note_on_c, 9, 51, 52
5, 59521, Note_on_c, 9, 53, 49
5, 59561, Note_on_c, 9, 51, 0
5, 59568, Note_on_c, 9, 53, 0
5, 59707, Note_on_c, 9, 51, 46
5, 59717, Note_on_c, 9, 51, 0
5, 59756, Note_on_c, 9, 53, 46
5, 59757, Note_on_c, 9, 51, 36
5, 59809, Note_on_c, 9, 51, 0
5, 59811, Note_on_c, 9, 53, 0
5, 59884, Note_on_c, 9, 51, 57
5, 59885, Note_on_c, 9, 53, 52
5, 59933, Note_on_c, 9, 51, 0
5, 59940, Note_on_c, 9, 53, 0
5, 60062, Note_on_c, 9, 51, 45
5, 60076, Note_on_c, 9, 51, 0
5, 60113, Note_on_c, 9, 51, 46
5, 60115, Note_on_c, 9, 53, 43
5, 60153, Note_on_c, 9, 51, 0
5, 60162, Note_on_c, 9, 53, 0
5, 60302, Note_on_c, 9, 51, 48
5, 60315, Note_on_c, 9, 51, 0
5, 60349, Note_on_c, 9, 51, 34
5, 60351, Note_on_c, 9, 53, 42
5, 60377, Note_on_c, 9, 51, 0
5, 60380, Note_on_c, 9, 53, 0
5, 60425, Note_on_c, 9, 51, 45
5, 60442, Note_on_c, 9, 51, 0
5, 60473, Note_on_c, 9, 59, 70
5, 60504, Note_on_c, 9, 59, 0
5, 60595, Note_on_c, 9, 59, 76
5, 60599, Note_on_c, 9, 53, 56
5, 60645, Note_on_c, 9, 59, 0
5, 60655, Note_on_c, 9, 53, 0
5, 60725, Note_on_c, 9, 59, 52
5, 60740, Note_on_c, 9, 59, 0
5, 60795, Note_on_c, 9, 59, 77
5, 60813, Note_on_c, 9, 59, 0
5, 60845, Note_on_c, 9, 59, 94
5, 60895, Note_on_c, 9, 59, 0
5, 60959, Note_on_c, 9, 59, 108
5, 61024, Note_on_c, 9, 59, 0
5, 61078, Note_on_c, 9, 59, 90
5, 61134, Note_on_c, 9, 59, 0
5, 61327, Note_on_c, 9, 59, 55
5, 61339, Note_on_c, 9, 59, 0
5, 61392, Note_on_c, 9, 59, 74
5, 61413, Note_on_c, 9, 59, 0
5, 61442, Note_on_c, 9, 59, 91
5, 61487, Note_on_c, 9, 59, 0
5, 61560, Note_on_c, 9, 59, 101
5, 61606, Note_on_c, 9, 59, 0
5, 61685, Note_on_c, 9, 59, 82
5, 61720, Note_on_c, 9, 59, 0
5, 61759, Note_on_c, 9, 59, 56
5, 61774, Note_on_c, 9, 59, 0
5, 61806, Note_on_c, 9, 59, 69
5, 61846, Note_on_c, 9, 59, 0
5, 62047, Note_on_c, 9, 59, 69
5, 62047, Note_on_c, 9, 53, 54
5, 62086, Note_on_c, 9, 59, 0
5, 62099, Note_on_c, 9, 53, 0
5, 62164, Note_on_c, 9, 59, 67
5, 62167, Note_on_c, 9, 53, 54
5, 62213, Note_on_c, 9, 59, 0
5, 62221, Note_on_c, 9, 53, 0
5, 62284, Note_on_c, 9, 59, 48
5, 62303, Note_on_c, 9, 59, 0
5, 62357, Note_on_c, 9, 59, 59
5, 62381, Note_on_c, 9, 59, 0
5, 62406, Note_on_c, 9, 59, 58
5, 62448, Note_on_c, 9, 59, 0
5, 62603, Note_on_c, 9, 59, 60
5, 62617, Note_on_c, 9, 59, 0
5, 62652, Note_on_c, 9, 59, 69
5, 62716, Note_on_c, 9, 59, 0
5, 62765, Note_on_c, 9, 59, 84
5, 62823, Note_on_c, 9, 59, 0
5, 62884, Note_on_c, 9, 59, 88
5, 62974, Note_on_c, 9, 59, 0
5, 63125, Note_on_c, 9, 59, 85
5, 63196, Note_on_c, 9, 59, 0
5, 63367, Note_on_c, 9, 59, 74
5, 63390, Note_on_c, 9, 59, 0
5, 63483, Note_on_c, 9, 59, 83
5, 63552, Note_on_c, 9, 59, 0
5, 63837, Note_on_c, 9, 59, 78
5, 63858, Note_on_c, 9, 59, 0
5, 63960, Note_on_c, 9, 59, 74
5, 64010, Note_on_c, 9, 59, 0
5, 64200, Note_on_c, 9, 59, 69
5, 64230, Note_on_c, 9, 59, 0
5, 64320, Note_on_c, 9, 59, 58
5, 64322, Note_on_c, 9, 57, 55
5, 64349, Note_on_c, 9, 57, 0
5, 64349, Note_on_c, 9, 59, 0
5, 64625, Note_on_c, 9, 59, 51
5, 64643, Note_on_c, 9, 59, 0
5, 64683, Note_on_c, 9, 59, 64
5, 64684, Note_on_c, 9, 57, 64
5, 64715, Note_on_c, 9, 57, 0
5, 64747, Note_on_c, 9, 59, 0
5, 64988, Note_on_c, 9, 59, 60
5, 65012, Note_on_c, 9, 59, 0
5, 65043, Note_on_c, 9, 59, 68
5, 65084, Note_on_c, 9, 59, 0
5, 65157, Note_on_c, 9, 59, 81
5, 65212, Note_on_c, 9, 59, 0
5, 65283, Note_on_c, 9, 59, 71
5, 65309, Note_on_c, 9, 59, 0
5, 65521, Note_on_c, 9, 59, 66
5, 65523, Note_on_c, 9, 53, 48
5, 65561, Note_on_c, 9, 59, 0
5, 65572, Note_on_c, 9, 53, 0
5, 65595, Note_on_c, 9, 53, 46
5, 65598, Note_on_c, 9, 59, 60
5, 65626, Note_on_c, 9, 59, 0
5, 65634, Note_on_c, 9, 53, 0
5, 65735, Note_on_c, 9, 59, 64
5, 65761, Note_on_c, 9, 59, 0
5, 65779, Note_on_c, 9, 59, 71
5, 65781, Note_on_c, 9, 53, 62
5, 65831, Note_on_c, 9, 59, 0
5, 65840, Note_on_c, 9, 53, 0
5, 65852, Note_on_c, 9, 59, 71
5, 65854, Note_on_c, 9, 53, 36
5, 65875, Note_on_c, 9, 59, 0
5, 65890, Note_on_c, 9, 53, 0
5, 66129, Note_on_c, 9, 59, 68
5, 66132, Note_on_c, 9, 53, 54
5, 66157, Note_on_c, 9, 59, 0
5, 66162, Note_on_c, 9, 53, 0
5, 66193, Note_on_c, 9, 53, 61
5, 66196, Note_on_c, 9, 59, 66
5, 66217, Note_on_c, 9, 59, 0
5, 66223, Note_on_c, 9, 53, 0
5, 66239, Note_on_c, 9, 53, 33
5, 66247, Note_on_c, 9, 59, 66
5, 66282, Note_on_c, 9, 53, 0
5, 66287, Note_on_c, 9, 59, 0
5, 66437, Note_on_c, 9, 59, 61
5, 66460, Note_on_c, 9, 59, 0
5, 66487, Note_on_c, 9, 59, 57
5, 66516, Note_on_c, 9, 59, 0
5, 66556, Note_on_c, 9, 59, 68
5, 66583, Note_on_c, 9, 59, 0
5, 66608, Note_on_c, 9, 59, 68
5, 66642, Note_on_c, 9, 59, 0
5, 66724, Note_on_c, 9, 59, 74
5, 66758, Note_on_c, 9, 59, 0
5, 66838, Note_on_c, 9, 59, 76
5, 66889, Note_on_c, 9, 59, 0
5, 67198, Note_on_c, 9, 59, 68
5, 67224, Note_on_c, 9, 59, 0
5, 67325, Note_on_c, 9, 59, 74
5, 67368, Note_on_c, 9, 59, 0
5, 67402, Note_on_c, 9, 59, 50
5, 67426, Note_on_c, 9, 59, 0
5, 67450, Note_on_c, 9, 59, 66
5, 67507, Note_on_c, 9, 59, 0
5, 67925, Note_on_c, 9, 59, 71
5, 67957, Note_on_c, 9, 59, 0
5, 67987, Note_on_c, 9, 59, 61
5, 68017, Note_on_c, 9, 59, 0
5, 68044, Note_on_c, 9, 59, 46
5, 68072, Note_on_c, 9, 59, 0
5, 68166, Note_on_c, 9, 59, 79
5, 68193, Note_on_c, 9, 59, 0
5, 68522, Note_on_c, 9, 51, 51
5, 68526, Note_on_c, 9, 53, 47
5, 68557, Note_on_c, 9, 53, 0
5, 68559, Note_on_c, 9, 51, 0
5, 68715, Note_on_c, 9, 59, 54
5, 68741, Note_on_c, 9, 59, 0
5, 68766, Note_on_c, 9, 59, 64
5, 68808, Note_on_c, 9, 59, 0
5, 69002, Note_on_c, 9, 51, 57
5, 69005, Note_on_c, 9, 53, 60
5, 69042, Note_on_c, 9, 53, 0
5, 69049, Note_on_c, 9, 51, 0
5, 69123, Note_on_c, 9, 51, 51
5, 69124, Note_on_c, 9, 53, 51
5, 69168, Note_on_c, 9, 53, 0
5, 69170, Note_on_c, 9, 51, 0
5, 69243, Note_on_c, 9, 59, 74
5, 69289, Note_on_c, 9, 59, 0
5, 69605, Note_on_c, 9, 59, 75
5, 69638, Note_on_c, 9, 59, 0
5, 69671, Note_on_c, 9, 59, 68
5, 69693, Note_on_c, 9, 59, 0
5, 69719, Note_on_c, 9, 51, 46
5, 69723, Note_on_c, 9, 53, 46
5, 69768, Note_on_c, 9, 53, 0
5, 69777, Note_on_c, 9, 51, 0
5, 69912, Note_on_c, 9, 59, 64
5, 69936, Note_on_c, 9, 59, 0
5, 69961, Note_on_c, 9, 59, 58
5, 69979, Note_on_c, 9, 53, 43
5, 69987, Note_on_c, 9, 59, 0
5, 69992, Note_on_c, 9, 53, 0
5, 70266, Note_on_c, 9, 59, 54
5, 70287, Note_on_c, 9, 59, 0
5, 70314, Note_on_c, 9, 59, 57
5, 70358, Note_on_c, 9, 59, 0
5, 70432, Note_on_c, 9, 59, 79
5, 70456, Note_on_c, 9, 59, 0
5, 70806, Note_on_c, 9, 59, 61
5, 70826, Note_on_c, 9, 59, 0
5, 70873, Note_on_c, 9, 53, 60
5, 70923, Note_on_c, 9, 53, 0
5, 71054, Note_on_c, 9, 59, 63
5, 71074, Note_on_c, 9, 59, 0
5, 71113, Note_on_c, 9, 53, 55
5, 71153, Note_on_c, 9, 53, 0
5, 71287, Note_on_c, 9, 59, 56
5, 71314, Note_on_c, 9, 59, 0
5, 71347, Note_on_c, 9, 59, 61
5, 71371, Note_on_c, 9, 59, 0
5, 71403, Note_on_c, 9, 59, 65
5, 71434, Note_on_c, 9, 59, 0
5, 71521, Note_on_c, 9, 59, 91
5, 71550, Note_on_c, 9, 59, 0
5, 71584, Note_on_c, 9, 59, 74
5, 71615, Note_on_c, 9, 59, 0
5, 71648, Note_on_c, 9, 59, 58
5, 71665, Note_on_c, 9, 59, 0
5, 71877, Note_on_c, 9, 59, 51
5, 71890, Note_on_c, 9, 59, 0
5, 71947, Note_on_c, 9, 59, 51
5, 71958, Note_on_c, 9, 59, 0
5, 72007, Note_on_c, 9, 59, 92
5, 72045, Note_on_c, 9, 59, 0
5, 72072, Note_on_c, 9, 59, 73
5, 72101, Note_on_c, 9, 59, 0
5, 72128, Note_on_c, 9, 59, 54
5, 72182, Note_on_c, 9, 59, 0
5, 72240, Note_on_c, 9, 59, 63
5, 72269, Note_on_c, 9, 59, 0
5, 72359, Note_on_c, 9, 59, 66
5, 72387, Note_on_c, 9, 59, 0
5, 72485, Note_on_c, 9, 59, 60
5, 72511, Note_on_c, 9, 59, 0
5, 72602, Note_on_c, 9, 59, 94
5, 72664, Note_on_c, 9, 59, 0
5, 72792, Note_on_c, 9, 59, 90
5, 72837, Note_on_c, 9, 59, 0
5, 72913, Note_on_c, 9, 59, 64
5, 72929, Note_on_c, 9, 59, 0
5, 72966, Note_on_c, 9, 59, 91
5, 73025, Note_on_c, 9, 59, 0
5, 73163, Note_on_c, 9, 59, 62
5, 73184, Note_on_c, 9, 59, 0
5, 73212, Note_on_c, 9, 59, 77
5, 73260, Note_on_c, 9, 59, 0
5, 73325, Note_on_c, 9, 59, 92
5, 73388, Note_on_c, 9, 59, 0
5, 73564, Note_on_c, 9, 59, 66
5, 73600, Note_on_c, 9, 59, 0
5, 73683, Note_on_c, 9, 59, 79
5, 73713, Note_on_c, 9, 59, 0
5, 73809, Note_on_c, 9, 59, 37
5, 73821, Note_on_c, 9, 59, 0
5, 73933, Note_on_c, 9, 59, 64
5, 73948, Note_on_c, 9, 59, 0
5, 73995, Note_on_c, 9, 59, 62
5, 74010, Note_on_c, 9, 59, 0
5, 74051, Note_on_c, 9, 59, 64
5, 74096, Note_on_c, 9, 59, 0
5, 74165, Note_on_c, 9, 59, 62
5, 74188, Note_on_c, 9, 59, 0
5, 74285, Note_on_c, 9, 59, 78
5, 74313, Note_on_c, 9, 59, 0
5, 74403, Note_on_c, 9, 59, 52
5, 74416, Note_on_c, 9, 59, 0
5, 74467, Note_on_c, 9, 59, 59
5, 74483, Note_on_c, 9, 59, 0
5, 74522, Note_on_c, 9, 59, 80
5, 74552, Note_on_c, 9, 59, 0
5, 74642, Note_on_c, 9, 59, 92
5, 74691, Note_on_c, 9, 59, 0
5, 74836, Note_on_c, 9, 59, 68
5, 74858, Note_on_c, 9, 59, 0
5, 74885, Note_on_c, 9, 59, 64
5, 74931, Note_on_c, 9, 59, 0
5, 74954, Note_on_c, 9, 59, 60
5, 74970, Note_on_c, 9, 59, 0
5, 75008, Note_on_c, 9, 59, 87
5, 75039, Note_on_c, 9, 59, 0
5, 75129, Note_on_c, 9, 59, 95
5, 75217, Note_on_c, 9, 59, 0
5, 75314, Note_on_c, 9, 59, 48
5, 75330, Note_on_c, 9, 59, 0
5, 75367, Note_on_c, 9, 59, 85
5, 75438, Note_on_c, 9, 59, 0
5, 75561, Note_on_c, 9, 59, 88
5, 75717, Note_on_c, 9, 59, 0
5, 75800, Note_on_c, 9, 59, 90
5, 75802, Note_on_c, 9, 51, 71
5, 75803, Note_on_c, 9, 53, 73
5, 75804, Note_on_c, 9, 57, 82
5, 75817, Note_on_c, 9, 53, 0
5, 75823, Note_on_c, 9, 57, 0
5, 75823, Note_on_c, 9, 51, 0
5, 75830, Note_on_c, 9, 59, 0
5, 75970, Note_on_c, 9, 51, 59
5, 75987, Note_on_c, 9, 51, 0
5, 76085, Note_on_c, 9, 51, 60
5, 76122, Note_on_c, 9, 51, 0
5, 76204, Note_on_c, 9, 51, 90
5, 76236, Note_on_c, 9, 51, 0
5, 76296, Note_on_c, 9, 51, 58
5, 76309, Note_on_c, 9, 51, 0
5, 76330, Note_on_c, 9, 51, 72
5, 76387, Note_on_c, 9, 51, 0
5, 76448, Note_on_c, 9, 51, 77
5, 76504, Note_on_c, 9, 51, 0
5, 76570, Note_on_c, 9, 51, 76
5, 76611, Note_on_c, 9, 51, 0
5, 76691, Note_on_c, 9, 51, 76
5, 76753, Note_on_c, 9, 51, 0
5, 76816, Note_on_c, 9, 51, 74
5, 76854, Note_on_c, 9, 51, 0
5, 76931, Note_on_c, 9, 51, 78
5, 76977, Note_on_c, 9, 51, 0
5, 77017, Note_on_c, 9, 51, 57
5, 77047, Note_on_c, 9, 51, 0
5, 77056, Note_on_c, 9, 51, 57
5, 77122, Note_on_c, 9, 51, 0
5, 77167, Note_on_c, 9, 51, 81
5, 77223, Note_on_c, 9, 51, 0
5, 77287, Note_on_c, 9, 51, 81
5, 77329, Note_on_c, 9, 51, 0
5, 77413, Note_on_c, 9, 51, 71
5, 77453, Note_on_c, 9, 51, 0
5, 77498, Note_on_c, 9, 51, 48
5, 77515, Note_on_c, 9, 51, 0
5, 77534, Note_on_c, 9, 51, 72
5, 77582, Note_on_c, 9, 51, 0
5, 77650, Note_on_c, 9, 51, 83
5, 77695, Note_on_c, 9, 51, 0
5, 77763, Note_on_c, 9, 51, 78
5, 77800, Note_on_c, 9, 51, 0
5, 77886, Note_on_c, 9, 51, 78
5, 77925, Note_on_c, 9, 51, 0
5, 78012, Note_on_c, 9, 51, 77
5, 78046, Note_on_c, 9, 51, 0
5, 78135, Note_on_c, 9, 51, 77
5, 78176, Note_on_c, 9, 51, 0
5, 78219, Note_on_c, 9, 51, 49
5, 78238, Note_on_c, 9, 51, 0
5, 78254, Note_on_c, 9, 51, 72
5, 78292, Note_on_c, 9, 51, 0
5, 78368, Note_on_c, 9, 51, 83
5, 78402, Note_on_c, 9, 51, 0
5, 78492, Note_on_c, 9, 51, 78
5, 78528, Note_on_c, 9, 51, 0
5, 78577, Note_on_c, 9, 51, 46
5, 78592, Note_on_c, 9, 51, 0
5, 78610, Note_on_c, 9, 51, 73
5, 78653, Note_on_c, 9, 51, 0
5, 78729, Note_on_c, 9, 51, 75
5, 78744, Note_on_c, 9, 51, 0
5, 78763, Note_on_c, 9, 51, 67
5, 78782, Note_on_c, 9, 51, 0
5, 78850, Note_on_c, 9, 51, 88
5, 78915, Note_on_c, 9, 51, 0
5, 78973, Note_on_c, 9, 51, 52
5, 78983, Note_on_c, 9, 51, 0
5, 79055, Note_on_c, 9, 51, 85
5, 79136, Note_on_c, 9, 51, 0
5, 79179, Note_on_c, 9, 51, 37
5, 79190, Note_on_c, 9, 51, 0
5, 79220, Note_on_c, 9, 51, 85
5, 79278, Note_on_c, 9, 51, 0
5, 79332, Note_on_c, 9, 51, 46
5, 79344, Note_on_c, 9, 51, 0
5, 79404, Note_on_c, 9, 51, 97
5, 79456, Note_on_c, 9, 51, 0
5, 79523, Note_on_c, 9, 51, 46
5, 79536, Note_on_c, 9, 51, 0
5, 79567, Note_on_c, 9, 51, 78
5, 79626, Note_on_c, 9, 51, 0
5, 79685, Note_on_c, 9, 51, 92
5, 79739, Note_on_c, 9, 51, 0
5, 79803, Note_on_c, 9, 51, 85
5, 79854, Note_on_c, 9, 51, 0
5, 79895, Note_on_c, 9, 51, 38
5, 79910, Note_on_c, 9, 51, 0
5, 79927, Note_on_c, 9, 51, 76
5, 79968, Note_on_c, 9, 51, 0
5, 80044, Note_on_c, 9, 51, 94
5, 80150, Note_on_c, 9, 51, 0
5, 80171, Note_on_c, 9, 51, 51
5, 80188, Note_on_c, 9, 51, 0
5, 80250, Note_on_c, 9, 51, 91
5, 80341, Note_on_c, 9, 51, 0
5, 80374, Note_on_c, 9, 51, 33
5, 80387, Note_on_c, 9, 51, 0
5, 80415, Note_on_c, 9, 51, 74
5, 80487, Note_on_c, 9, 51, 0
5, 80531, Note_on_c, 9, 51, 83
5, 80565, Note_on_c, 9, 51, 0
5, 80612, Note_on_c, 9, 51, 55
5, 80631, Note_on_c, 9, 51, 0
5, 80648, Note_on_c, 9, 51, 77
5, 80697, Note_on_c, 9, 51, 0
5, 80761, Note_on_c, 9, 51, 84
5, 80821, Note_on_c, 9, 51, 0
5, 80850, Note_on_c, 9, 51, 44
5, 80872, Note_on_c, 9, 51, 0
5, 80888, Note_on_c, 9, 51, 77
5, 80931, Note_on_c, 9, 51, 0
5, 81006, Note_on_c, 9, 51, 83
5, 81054, Note_on_c, 9, 51, 0
5, 81129, Note_on_c, 9, 51, 81
5, 81171, Note_on_c, 9, 51, 0
5, 81249, Note_on_c, 9, 51, 80
5, 81288, Note_on_c, 9, 51, 0
5, 81325, Note_on_c, 9, 51, 53
5, 81348, Note_on_c, 9, 51, 0
5, 81362, Note_on_c, 9, 51, 72
5, 81400, Note_on_c, 9, 51, 0
5, 81482, Note_on_c, 9, 51, 84
5, 81529, Note_on_c, 9, 51, 0
5, 81571, Note_on_c, 9, 51, 51
5, 81582, Note_on_c, 9, 51, 0
5, 81604, Note_on_c, 9, 51, 68
5, 81645, Note_on_c, 9, 51, 0
5, 81727, Note_on_c, 9, 51, 81
5, 81775, Note_on_c, 9, 51, 0
5, 81810, Note_on_c, 9, 51, 56
5, 81829, Note_on_c, 9, 51, 0
5, 81848, Note_on_c, 9, 51, 71
5, 81892, Note_on_c, 9, 51, 0
5, 81968, Note_on_c, 9, 51, 84
5, 82028, Note_on_c, 9, 51, 0
5, 82090, Note_on_c, 9, 51, 83
5, 82152, Note_on_c, 9, 51, 0
5, 82210, Note_on_c, 9, 51, 81
5, 82254, Note_on_c, 9, 51, 0
5, 82292, Note_on_c, 9, 51, 47
5, 82312, Note_on_c, 9, 51, 0
5, 82326, Note_on_c, 9, 51, 73
5, 82368, Note_on_c, 9, 51, 0
5, 82445, Note_on_c, 9, 51, 86
5, 82512, Note_on_c, 9, 51, 0
5, 82560, Note_on_c, 9, 51, 77
5, 82606, Note_on_c, 9, 51, 0
5, 82647, Note_on_c, 9, 51, 55
5, 82672, Note_on_c, 9, 51, 0
5, 82686, Note_on_c, 9, 51, 74
5, 82736, Note_on_c, 9, 51, 0
5, 82801, Note_on_c, 9, 51, 83
5, 82851, Note_on_c, 9, 51, 0
5, 82922, Note_on_c, 9, 51, 81
5, 82969, Note_on_c, 9, 51, 0
5, 83004, Note_on_c, 9, 51, 44
5, 83025, Note_on_c, 9, 51, 0
5, 83041, Note_on_c, 9, 51, 79
5, 83076, Note_on_c, 9, 51, 0
5, 83158, Note_on_c, 9, 51, 86
5, 83193, Note_on_c, 9, 51, 0
5, 83244, Note_on_c, 9, 51, 56
5, 83269, Note_on_c, 9, 51, 0
5, 83286, Note_on_c, 9, 51, 76
5, 83312, Note_on_c, 9, 51, 0
5, 83403, Note_on_c, 9, 51, 88
5, 83448, Note_on_c, 9, 51, 0
5, 83523, Note_on_c, 9, 51, 72
5, 83548, Note_on_c, 9, 51, 0
5, 83605, Note_on_c, 9, 51, 64
5, 83625, Note_on_c, 9, 51, 0
5, 83644, Note_on_c, 9, 51, 71
5, 83686, Note_on_c, 9, 51, 0
5, 83766, Note_on_c, 9, 51, 85
5, 83807, Note_on_c, 9, 51, 0
5, 83891, Note_on_c, 9, 51, 85
5, 83930, Note_on_c, 9, 51, 0
5, 83970, Note_on_c, 9, 51, 55
5, 83992, Note_on_c, 9, 51, 0
5, 84008, Note_on_c, 9, 51, 71
5, 84040, Note_on_c, 9, 51, 0
5, 84127, Note_on_c, 9, 51, 88
5, 84180, Note_on_c, 9, 51, 0
5, 84216, Note_on_c, 9, 51, 50
5, 84241, Note_on_c, 9, 51, 0
5, 84254, Note_on_c, 9, 51, 63
5, 84285, Note_on_c, 9, 51, 0
5, 84368, Note_on_c, 9, 51, 92
5, 84420, Note_on_c, 9, 51, 0
5, 84486, Note_on_c, 9, 51, 52
5, 84498, Note_on_c, 9, 51, 0
5, 84567, Note_on_c, 9, 51, 83
5, 84644, Note_on_c, 9, 51, 0
5, 84685, Note_on_c, 9, 51, 42
5, 84699, Note_on_c, 9, 51, 0
5, 84735, Note_on_c, 9, 51, 88
5, 84808, Note_on_c, 9, 51, 0
5, 84848, Note_on_c, 9, 51, 47
5, 84872, Note_on_c, 9, 51, 0
5, 84921, Note_on_c, 9, 51, 85
5, 85001, Note_on_c, 9, 51, 0
5, 85047, Note_on_c, 9, 51, 34
5, 85061, Note_on_c, 9, 51, 0
5, 85085, Note_on_c, 9, 51, 69
5, 85145, Note_on_c, 9, 51, 0
5, 85207, Note_on_c, 9, 51, 83
5, 85250, Note_on_c, 9, 51, 0
5, 85324, Note_on_c, 9, 51, 83
5, 85362, Note_on_c, 9, 51, 0
5, 85406, Note_on_c, 9, 51, 50
5, 85427, Note_on_c, 9, 51, 0
5, 85444, Note_on_c, 9, 51, 77
5, 85487, Note_on_c, 9, 51, 0
5, 85563, Note_on_c, 9, 51, 85
5, 85611, Note_on_c, 9, 51, 0
5, 85648, Note_on_c, 9, 51, 47
5, 85672, Note_on_c, 9, 51, 0
5, 85686, Note_on_c, 9, 51, 71
5, 85731, Note_on_c, 9, 51, 0
5, 85805, Note_on_c, 9, 51, 86
5, 85849, Note_on_c, 9, 51, 0
5, 85929, Note_on_c, 9, 51, 85
5, 85986, Note_on_c, 9, 51, 0
5, 86049, Note_on_c, 9, 51, 76
5, 86087, Note_on_c, 9, 51, 0
5, 86128, Note_on_c, 9, 51, 55
5, 86153, Note_on_c, 9, 51, 0
5, 86163, Note_on_c, 9, 51, 60
5, 86207, Note_on_c, 9, 51, 0
5, 86282, Note_on_c, 9, 51, 84
5, 86329, Note_on_c, 9, 51, 0
5, 86365, Note_on_c, 9, 51, 39
5, 86391, Note_on_c, 9, 51, 0
5, 86401, Note_on_c, 9, 51, 55
5, 86447, Note_on_c, 9, 51, 0
5, 86520, Note_on_c, 9, 51, 85
5, 86574, Note_on_c, 9, 51, 0
5, 86607, Note_on_c, 9, 51, 39
5, 86632, Note_on_c, 9, 51, 0
5, 86643, Note_on_c, 9, 51, 63
5, 86690, Note_on_c, 9, 51, 0
5, 86763, Note_on_c, 9, 51, 86
5, 86817, Note_on_c, 9, 51, 0
5, 86882, Note_on_c, 9, 51, 61
5, 86908, Note_on_c, 9, 51, 0
5, 86962, Note_on_c, 9, 51, 77
5, 86988, Note_on_c, 9, 51, 0
5, 87002, Note_on_c, 9, 51, 76
5, 87070, Note_on_c, 9, 51, 0
5, 87123, Note_on_c, 9, 51, 84
5, 87178, Note_on_c, 9, 51, 0
5, 87208, Note_on_c, 9, 51, 45
5, 87227, Note_on_c, 9, 51, 0
5, 87246, Note_on_c, 9, 51, 77
5, 87313, Note_on_c, 9, 51, 0
5, 87364, Note_on_c, 9, 51, 90
5, 87415, Note_on_c, 9, 51, 0
5, 87486, Note_on_c, 9, 51, 84
5, 87538, Note_on_c, 9, 51, 0
5, 87571, Note_on_c, 9, 51, 49
5, 87595, Note_on_c, 9, 51, 0
5, 87607, Note_on_c, 9, 51, 65
5, 87665, Note_on_c, 9, 51, 0
5, 87722, Note_on_c, 9, 51, 88
5, 87777, Note_on_c, 9, 51, 0
5, 87810, Note_on_c, 9, 51, 44
5, 87824, Note_on_c, 9, 51, 0
5, 87843, Note_on_c, 9, 51, 72
5, 87901, Note_on_c, 9, 51, 0
5, 87964, Note_on_c, 9, 51, 88
5, 88019, Note_on_c, 9, 51, 0
5, 88050, Note_on_c, 9, 51, 57
5, 88071, Note_on_c, 9, 51, 0
5, 88087, Note_on_c, 9, 51, 81
5, 88141, Note_on_c, 9, 51, 0
5, 88200, Note_on_c, 9, 51, 90
5, 88266, Note_on_c, 9, 51, 0
5, 88326, Note_on_c, 9, 51, 74
5, 88369, Note_on_c, 9, 51, 0
5, 88403, Note_on_c, 9, 51, 72
5, 88447, Note_on_c, 9, 51, 0
5, 88533, Note_on_c, 9, 51, 69
5, 88555, Note_on_c, 9, 51, 0
5, 88577, Note_on_c, 9, 51, 77
5, 88640, Note_on_c, 9, 51, 0
5, 88689, Note_on_c, 9, 51, 81
5, 88733, Note_on_c, 9, 51, 0
5, 88777, Note_on_c, 9, 51, 43
5, 88793, Note_on_c, 9, 51, 0
5, 88809, Note_on_c, 9, 51, 78
5, 88871, Note_on_c, 9, 51, 0
5, 88924, Note_on_c, 9, 51, 86
5, 88985, Note_on_c, 9, 51, 0
5, 89042, Note_on_c, 9, 51, 77
5, 89044, Note_on_c, 9, 53, 74
5, 89106, Note_on_c, 9, 51, 0
5, 89121, Note_on_c, 9, 53, 0
5, 89139, Note_on_c, 9, 51, 53
5, 89167, Note_on_c, 9, 51, 0
5, 89240, Note_on_c, 9, 51, 81
5, 89241, Note_on_c, 9, 53, 74
5, 89324, Note_on_c, 9, 51, 0
5, 89335, Note_on_c, 9, 53, 0
5, 89364, Note_on_c, 9, 51, 40
5, 89376, Note_on_c, 9, 51, 0
5, 89408, Note_on_c, 9, 51, 83
5, 89481, Note_on_c, 9, 51, 0
5, 89521, Note_on_c, 9, 51, 59
5, 89579, Note_on_c, 9, 51, 0
5, 89644, Note_on_c, 9, 51, 83
5, 89694, Note_on_c, 9, 51, 0
5, 89734, Note_on_c, 9, 51, 50
5, 89753, Note_on_c, 9, 51, 0
5, 89767, Note_on_c, 9, 51, 67
5, 89831, Note_on_c, 9, 51, 0
5, 89886, Note_on_c, 9, 51, 81
5, 89920, Note_on_c, 9, 51, 0
5, 90003, Note_on_c, 9, 51, 67
5, 90072, Note_on_c, 9, 51, 0
5, 90124, Note_on_c, 9, 51, 77
5, 90172, Note_on_c, 9, 51, 0
5, 90219, Note_on_c, 9, 51, 60
5, 90229, Note_on_c, 9, 51, 0
5, 90251, Note_on_c, 9, 51, 69
5, 90327, Note_on_c, 9, 51, 0
5, 90362, Note_on_c, 9, 51, 78
5, 90437, Note_on_c, 9, 51, 0
5, 90486, Note_on_c, 9, 51, 76
5, 90540, Note_on_c, 9, 51, 0
5, 90608, Note_on_c, 9, 51, 85
5, 90674, Note_on_c, 9, 51, 0
5, 90729, Note_on_c, 9, 51, 64
5, 90794, Note_on_c, 9, 51, 0
5, 90846, Note_on_c, 9, 51, 77
5, 90927, Note_on_c, 9, 51, 0
5, 90966, Note_on_c, 9, 51, 76
5, 91029, Note_on_c, 9, 51, 0
5, 91053, Note_on_c, 9, 51, 69
5, 91078, Note_on_c, 9, 51, 0
5, 91089, Note_on_c, 9, 51, 69
5, 91151, Note_on_c, 9, 51, 0
5, 91164, Note_on_c, 9, 51, 53
5, 91189, Note_on_c, 9, 51, 0
5, 91206, Note_on_c, 9, 59, 88
5, 91267, Note_on_c, 9, 59, 0
5, 91321, Note_on_c, 9, 59, 72
5, 91374, Note_on_c, 9, 59, 0
5, 91446, Note_on_c, 9, 59, 80
5, 91488, Note_on_c, 9, 59, 0
5, 91563, Note_on_c, 9, 59, 77
5, 91600, Note_on_c, 9, 59, 0
5, 91654, Note_on_c, 9, 59, 61
5, 91670, Note_on_c, 9, 59, 0
5, 91688, Note_on_c, 9, 59, 71
5, 91737, Note_on_c, 9, 59, 0
5, 91803, Note_on_c, 9, 59, 84
5, 91858, Note_on_c, 9, 59, 0
5, 91899, Note_on_c, 9, 59, 54
5, 91912, Note_on_c, 9, 59, 0
5, 91931, Note_on_c, 9, 59, 80
5, 91983, Note_on_c, 9, 59, 0
5, 92039, Note_on_c, 9, 59, 87
5, 92100, Note_on_c, 9, 59, 0
5, 92164, Note_on_c, 9, 59, 80
5, 92218, Note_on_c, 9, 59, 0
5, 92287, Note_on_c, 9, 59, 82
5, 92331, Note_on_c, 9, 59, 0
5, 92408, Note_on_c, 9, 59, 83
5, 92452, Note_on_c, 9, 59, 0
5, 92491, Note_on_c, 9, 59, 59
5, 92504, Note_on_c, 9, 59, 0
5, 92526, Note_on_c, 9, 59, 82
5, 92592, Note_on_c, 9, 59, 0
5, 92643, Note_on_c, 9, 59, 81
5, 92701, Note_on_c, 9, 59, 0
5, 92764, Note_on_c, 9, 59, 79
5, 92816, Note_on_c, 9, 59, 0
5, 92851, Note_on_c, 9, 59, 61
5, 92868, Note_on_c, 9, 59, 0
5, 92889, Note_on_c, 9, 59, 81
5, 92937, Note_on_c, 9, 59, 0
5, 93003, Note_on_c, 9, 59, 87
5, 93065, Note_on_c, 9, 59, 0
5, 93094, Note_on_c, 9, 59, 45
5, 93108, Note_on_c, 9, 59, 0
5, 93136, Note_on_c, 9, 59, 58
5, 93153, Note_on_c, 9, 59, 0
5, 93205, Note_on_c, 9, 59, 89
5, 93301, Note_on_c, 9, 59, 0
5, 93326, Note_on_c, 9, 59, 46
5, 93340, Note_on_c, 9, 59, 0
5, 93370, Note_on_c, 9, 59, 89
5, 93434, Note_on_c, 9, 59, 0
5, 93487, Note_on_c, 9, 59, 41
5, 93503, Note_on_c, 9, 59, 0
5, 93558, Note_on_c, 9, 59, 96
5, 93646, Note_on_c, 9, 59, 0
5, 93725, Note_on_c, 9, 59, 90
5, 93792, Note_on_c, 9, 59, 0
5, 93845, Note_on_c, 9, 59, 71
5, 93889, Note_on_c, 9, 59, 0
5, 93918, Note_on_c, 9, 59, 77
5, 93945, Note_on_c, 9, 59, 0
5, 93962, Note_on_c, 9, 59, 75
5, 94028, Note_on_c, 9, 59, 0
5, 94078, Note_on_c, 9, 59, 91
5, 94140, Note_on_c, 9, 59, 0
5, 94205, Note_on_c, 9, 59, 88
5, 94257, Note_on_c, 9, 59, 0
5, 94329, Note_on_c, 9, 59, 89
5, 94381, Note_on_c, 9, 59, 0
5, 94405, Note_on_c, 9, 59, 54
5, 94419, Note_on_c, 9, 59, 0
5, 94445, Note_on_c, 9, 59, 68
5, 94468, Note_on_c, 9, 59, 0
5, 94530, Note_on_c, 9, 59, 95
5, 94611, Note_on_c, 9, 59, 0
5, 94652, Note_on_c, 9, 59, 36
5, 94666, Note_on_c, 9, 59, 0
5, 94690, Note_on_c, 9, 59, 85
5, 94756, Note_on_c, 9, 59, 0
5, 94810, Note_on_c, 9, 59, 51
5, 94827, Note_on_c, 9, 59, 0
5, 94875, Note_on_c, 9, 59, 94
5, 94928, Note_on_c, 9, 59, 0
5, 95040, Note_on_c, 9, 59, 82
5, 95044, Note_on_c, 9, 57, 74
5, 95086, Note_on_c, 9, 57, 0
5, 95102, Note_on_c, 9, 59, 0
5, 95163, Note_on_c, 9, 59, 45
5, 95184, Note_on_c, 9, 59, 0
5, 95236, Note_on_c, 9, 59, 79
5, 95257, Note_on_c, 9, 59, 0
5, 95279, Note_on_c, 9, 59, 66
5, 95316, Note_on_c, 9, 59, 0
5, 95402, Note_on_c, 9, 59, 84
5, 95455, Note_on_c, 9, 59, 0
5, 95487, Note_on_c, 9, 59, 53
5, 95499, Note_on_c, 9, 59, 0
5, 95521, Note_on_c, 9, 59, 68
5, 95570, Note_on_c, 9, 59, 0
5, 95639, Note_on_c, 9, 59, 83
5, 95687, Note_on_c, 9, 59, 0
5, 95724, Note_on_c, 9, 59, 36
5, 95738, Note_on_c, 9, 59, 0
5, 95760, Note_on_c, 9, 59, 64
5, 95807, Note_on_c, 9, 59, 0
5, 95878, Note_on_c, 9, 59, 91
5, 95960, Note_on_c, 9, 59, 0
5, 96009, Note_on_c, 9, 59, 50
5, 96021, Note_on_c, 9, 59, 0
5, 96091, Note_on_c, 9, 59, 58
5, 96104, Note_on_c, 9, 59, 0
5, 96126, Note_on_c, 9, 59, 79
5, 96196, Note_on_c, 9, 59, 0
5, 96242, Note_on_c, 9, 59, 78
5, 96298, Note_on_c, 9, 59, 0
5, 96369, Note_on_c, 9, 59, 75
5, 96417, Note_on_c, 9, 59, 0
5, 96458, Note_on_c, 9, 59, 57
5, 96470, Note_on_c, 9, 59, 0
5, 96493, Note_on_c, 9, 59, 68
5, 96546, Note_on_c, 9, 59, 0
5, 96611, Note_on_c, 9, 59, 83
5, 96657, Note_on_c, 9, 59, 0
5, 96699, Note_on_c, 9, 59, 51
5, 96713, Note_on_c, 9, 59, 0
5, 96734, Note_on_c, 9, 59, 74
5, 96791, Note_on_c, 9, 59, 0
5, 96850, Note_on_c, 9, 59, 82
5, 96910, Note_on_c, 9, 59, 0
5, 96974, Note_on_c, 9, 59, 79
5, 97035, Note_on_c, 9, 59, 0
5, 97087, Note_on_c, 9, 59, 72
5, 97138, Note_on_c, 9, 59, 0
5, 97175, Note_on_c, 9, 59, 60
5, 97188, Note_on_c, 9, 59, 0
5, 97208, Note_on_c, 9, 59, 76
5, 97258, Note_on_c, 9, 59, 0
5, 97322, Note_on_c, 9, 59, 83
5, 97375, Note_on_c, 9, 59, 0
5, 97404, Note_on_c, 9, 59, 53
5, 97420, Note_on_c, 9, 59, 0
5, 97443, Note_on_c, 9, 59, 74
5, 97486, Note_on_c, 9, 59, 0
5, 97562, Note_on_c, 9, 59, 92
5, 97617, Note_on_c, 9, 59, 0
5, 97686, Note_on_c, 9, 59, 81
5, 97740, Note_on_c, 9, 59, 0
5, 97769, Note_on_c, 9, 59, 57
5, 97789, Note_on_c, 9, 59, 0
5, 97805, Note_on_c, 9, 59, 70
5, 97854, Note_on_c, 9, 59, 0
5, 97922, Note_on_c, 9, 59, 72
5, 97978, Note_on_c, 9, 59, 0
5, 98042, Note_on_c, 9, 59, 74
5, 98098, Note_on_c, 9, 59, 0
5, 98133, Note_on_c, 9, 59, 47
5, 98147, Note_on_c, 9, 59, 0
5, 98167, Note_on_c, 9, 59, 66
5, 98224, Note_on_c, 9, 59, 0
5, 98282, Note_on_c, 9, 59, 84
5, 98336, Note_on_c, 9, 59, 0
5, 98367, Note_on_c, 9, 59, 45
5, 98386, Note_on_c, 9, 59, 0
5, 98408, Note_on_c, 9, 59, 72
5, 98457, Note_on_c, 9, 59, 0
5, 98526, Note_on_c, 9, 59, 82
5, 98571, Note_on_c, 9, 59, 0
5, 98611, Note_on_c, 9, 59, 56
5, 98624, Note_on_c, 9, 59, 0
5, 98644, Note_on_c, 9, 59, 76
5, 98705, Note_on_c, 9, 59, 0
5, 98762, Note_on_c, 9, 59, 81
5, 98811, Note_on_c, 9, 59, 0
5, 98850, Note_on_c, 9, 59, 40
5, 98863, Note_on_c, 9, 59, 0
5, 98885, Note_on_c, 9, 59, 64
5, 98942, Note_on_c, 9, 59, 0
5, 99000, Note_on_c, 9, 59, 62
5, 99002, Note_on_c, 9, 53, 64
5, 99005, Note_on_c, 9, 51, 44
5, 99037, Note_on_c, 9, 51, 0
5, 99038, Note_on_c, 9, 53, 0
5, 99048, Note_on_c, 9, 59, 0
5, 99131, Note_on_c, 9, 59, 60
5, 99190, Note_on_c, 9, 59, 0
5, 99248, Note_on_c, 9, 59, 72
5, 99249, Note_on_c, 9, 53, 68
5, 99285, Note_on_c, 9, 53, 0
5, 99302, Note_on_c, 9, 59, 0
5, 99330, Note_on_c, 9, 59, 53
5, 99351, Note_on_c, 9, 59, 0
5, 99373, Note_on_c, 9, 59, 64
5, 99434, Note_on_c, 9, 59, 0
5, 99479, Note_on_c, 9, 53, 68
5, 99482, Note_on_c, 9, 59, 74
5, 99507, Note_on_c, 9, 53, 0
5, 99545, Note_on_c, 9, 59, 0
5, 99566, Note_on_c, 9, 59, 65
5, 99584, Note_on_c, 9, 59, 0
5, 99606, Note_on_c, 9, 59, 64
5, 99656, Note_on_c, 9, 59, 0
5, 99720, Note_on_c, 9, 59, 89
5, 99777, Note_on_c, 9, 59, 0
5, 99806, Note_on_c, 9, 59, 43
5, 99825, Note_on_c, 9, 59, 0
5, 99847, Note_on_c, 9, 59, 62
5, 99901, Note_on_c, 9, 59, 0
5, 99961, Note_on_c, 9, 59, 82
5, 99967, Note_on_c, 9, 53, 60
5, 99999, Note_on_c, 9, 53, 0
5, 100006, Note_on_c, 9, 59, 0
5, 100046, Note_on_c, 9, 59, 50
5, 100060, Note_on_c, 9, 59, 0
5, 100086, Note_on_c, 9, 59, 66
5, 100140, Note_on_c, 9, 59, 0
5, 100199, Note_on_c, 9, 53, 80
5, 100229, Note_on_c, 9, 53, 0
5, 100281, Note_on_c, 9, 59, 58
5, 100294, Note_on_c, 9, 59, 0
5, 100321, Note_on_c, 9, 59, 64
5, 100400, Note_on_c, 9, 59, 0
5, 100437, Note_on_c, 9, 53, 63
5, 100456, Note_on_c, 9, 53, 0
5, 100523, Note_on_c, 9, 59, 70
5, 100544, Note_on_c, 9, 59, 0
5, 100566, Note_on_c, 9, 59, 68
5, 100643, Note_on_c, 9, 59, 0
5, 100676, Note_on_c, 9, 53, 61
5, 100720, Note_on_c, 9, 53, 0
5, 100762, Note_on_c, 9, 59, 65
5, 100782, Note_on_c, 9, 59, 0
5, 100805, Note_on_c, 9, 59, 68
5, 100871, Note_on_c, 9, 59, 0
5, 100928, Note_on_c, 9, 53, 64
5, 100954, Note_on_c, 9, 53, 0
5, 101007, Note_on_c, 9, 59, 55
5, 101022, Note_on_c, 9, 59, 0
5, 101048, Note_on_c, 9, 59, 66
5, 101106, Note_on_c, 9, 59, 0
5, 101162, Note_on_c, 9, 59, 89
5, 101238, Note_on_c, 9, 59, 0
5, 101284, Note_on_c, 9, 59, 67
5, 101317, Note_on_c, 9, 59, 0
5, 101360, Note_on_c, 9, 59, 65
5, 101382, Note_on_c, 9, 59, 0
5, 101404, Note_on_c, 9, 59, 74
5, 101458, Note_on_c, 9, 59, 0
5, 101522, Note_on_c, 9, 59, 71
5, 101592, Note_on_c, 9, 59, 0
5, 101599, Note_on_c, 9, 53, 70
5, 101630, Note_on_c, 9, 53, 0
5, 101644, Note_on_c, 9, 59, 59
5, 101693, Note_on_c, 9, 59, 0
5, 101720, Note_on_c, 9, 59, 49
5, 101745, Note_on_c, 9, 59, 0
5, 101765, Note_on_c, 9, 59, 67
5, 101828, Note_on_c, 9, 59, 0
5, 101833, Note_on_c, 9, 53, 65
5, 101868, Note_on_c, 9, 53, 0
5, 101882, Note_on_c, 9, 59, 50
5, 101931, Note_on_c, 9, 59, 0
5, 101957, Note_on_c, 9, 59, 51
5, 101980, Note_on_c, 9, 59, 0
5, 102001, Note_on_c, 9, 59, 81
5, 102068, Note_on_c, 9, 59, 0
5, 102121, Note_on_c, 9, 59, 83
5, 102183, Note_on_c, 9, 59, 0
5, 102208, Note_on_c, 9, 59, 52
5, 102230, Note_on_c, 9, 59, 0
5, 102245, Note_on_c, 9, 59, 66
5, 102303, Note_on_c, 9, 59, 0
5, 102365, Note_on_c, 9, 59, 88
5, 102418, Note_on_c, 9, 59, 0
5, 102487, Note_on_c, 9, 59, 85
5, 102541, Note_on_c, 9, 59, 0
5, 102571, Note_on_c, 9, 59, 58
5, 102583, Note_on_c, 9, 59, 0
5, 102606, Note_on_c, 9, 59, 74
5, 102628, Note_on_c, 9, 59, 0
5, 102684, Note_on_c, 9, 59, 101
5, 102807, Note_on_c, 9, 59, 0
5, 102852, Note_on_c, 9, 59, 76
5, 102912, Note_on_c, 9, 59, 0
5, 102935, Note_on_c, 9, 59, 57
5, 102952, Note_on_c, 9, 59, 0
5, 102971, Note_on_c, 9, 59, 72
5, 103026, Note_on_c, 9, 59, 0
5, 103085, Note_on_c, 9, 59, 92
5, 103145, Note_on_c, 9, 59, 0
5, 103182, Note_on_c, 9, 59, 33
5, 103196, Note_on_c, 9, 59, 0
5, 103215, Note_on_c, 9, 59, 72
5, 103271, Note_on_c, 9, 59, 0
5, 103330, Note_on_c, 9, 59, 85
5, 103384, Note_on_c, 9, 59, 0
5, 103414, Note_on_c, 9, 59, 46
5, 103428, Note_on_c, 9, 59, 0
5, 103452, Note_on_c, 9, 59, 68
5, 103476, Note_on_c, 9, 59, 0
5, 103564, Note_on_c, 9, 59, 95
5, 103594, Note_on_c, 9, 59, 0
5, 103686, Note_on_c, 9, 59, 91
5, 103720, Note_on_c, 9, 59, 0
5, 103769, Note_on_c, 9, 59, 71
5, 103787, Note_on_c, 9, 59, 0
5, 103817, Note_on_c, 9, 59, 67
5, 103839, Note_on_c, 9, 59, 0
5, 103896, Note_on_c, 9, 59, 80
5, 103988, Note_on_c, 9, 59, 0
5, 104013, Note_on_c, 9, 59, 55
5, 104035, Note_on_c, 9, 59, 0
5, 104049, Note_on_c, 9, 59, 67
5, 104107, Note_on_c, 9, 59, 0
5, 104167, Note_on_c, 9, 59, 91
5, 104216, Note_on_c, 9, 59, 0
5, 104285, Note_on_c, 9, 59, 89
5, 104340, Note_on_c, 9, 59, 0
5, 104368, Note_on_c, 9, 59, 53
5, 104391, Note_on_c, 9, 59, 0
5, 104406, Note_on_c, 9, 59, 64
5, 104463, Note_on_c, 9, 59, 0
5, 104524, Note_on_c, 9, 59, 92
5, 104573, Note_on_c, 9, 59, 0
5, 104610, Note_on_c, 9, 59, 73
5, 104631, Note_on_c, 9, 59, 0
5, 104643, Note_on_c, 9, 59, 69
5, 104683, Note_on_c, 9, 59, 0
5, 104763, Note_on_c, 9, 59, 90
5, 104818, Note_on_c, 9, 59, 0
5, 104883, Note_on_c, 9, 59, 83
5, 104937, Note_on_c, 9, 59, 0
5, 104968, Note_on_c, 9, 59, 60
5, 104987, Note_on_c, 9, 59, 0
5, 105008, Note_on_c, 9, 59, 76
5, 105055, Note_on_c, 9, 59, 0
5, 105124, Note_on_c, 9, 59, 91
5, 105176, Note_on_c, 9, 59, 0
5, 105212, Note_on_c, 9, 59, 72
5, 105243, Note_on_c, 9, 59, 0
5, 105332, Note_on_c, 9, 59, 61
5, 105346, Note_on_c, 9, 59, 0
5, 105369, Note_on_c, 9, 59, 82
5, 105432, Note_on_c, 9, 59, 0
5, 105486, Note_on_c, 9, 59, 60
5, 105501, Note_on_c, 9, 59, 0
5, 105563, Note_on_c, 9, 59, 84
5, 105599, Note_on_c, 9, 59, 0
5, 105684, Note_on_c, 9, 59, 68
5, 105701, Note_on_c, 9, 59, 0
5, 105729, Note_on_c, 9, 59, 80
5, 105775, Note_on_c, 9, 59, 0
5, 105847, Note_on_c, 9, 59, 82
5, 105883, Note_on_c, 9, 59, 0
5, 105929, Note_on_c, 9, 59, 74
5, 105964, Note_on_c, 9, 59, 0
5, 106048, Note_on_c, 9, 59, 75
5, 106068, Note_on_c, 9, 59, 0
5, 106091, Note_on_c, 9, 59, 77
5, 106138, Note_on_c, 9, 59, 0
5, 106138, End_track
6, 0, Start_track
6, 0, Title_t, ""
6, 45244, Note_on_c, 9, 44, 45
6, 45274, Note_on_c, 9, 44, 0
6, 45473, Note_on_c, 9, 38, 38
6, 45489, Note_on_c, 9, 38, 0
6, 45590, Note_on_c, 9, 38, 48
6, 45625, Note_on_c, 9, 38, 0
6, 45722, Note_on_c, 9, 44, 33
6, 45780, Note_on_c, 9, 44, 0
6, 45977, Note_on_c, 9, 44, 35
6, 46027, Note_on_c, 9, 44, 0
6, 46200, Note_on_c, 9, 38, 38
6, 46222, Note_on_c, 9, 38, 0
6, 46694, Note_on_c, 9, 44, 33
6, 46742, Note_on_c, 9, 44, 0
6, 47160, Note_on_c, 9, 44, 40
6, 47209, Note_on_c, 9, 44, 0
6, 47398, Note_on_c, 9, 37, 39
6, 47401, Note_on_c, 9, 44, 50
6, 47445, Note_on_c, 9, 37, 0
6, 47457, Note_on_c, 9, 44, 0
6, 47523, Note_on_c, 9, 37, 43
6, 47583, Note_on_c, 9, 37, 0
6, 47650, Note_on_c, 9, 44, 46
6, 47690, Note_on_c, 9, 44, 0
6, 48359, Note_on_c, 9, 38, 57
6, 48376, Note_on_c, 9, 38, 0
6, 48394, Note_on_c, 9, 38, 36
6, 48414, Note_on_c, 9, 38, 0
6, 48482, Note_on_c, 9, 38, 46
6, 48488, Note_on_c, 9, 38, 70
6, 48520, Note_on_c, 9, 38, 0
6, 48529, Note_on_c, 9, 38, 0
6, 48555, Note_on_c, 9, 38, 64
6, 48589, Note_on_c, 9, 38, 0
6, 48802, Note_on_c, 9, 38, 40
6, 48819, Note_on_c, 9, 38, 0
6, 48847, Note_on_c, 9, 44, 56
6, 48907, Note_on_c, 9, 44, 0
6, 49078, Note_on_c, 9, 44, 46
6, 49131, Note_on_c, 9, 44, 0
6, 49555, Note_on_c, 9, 37, 51
6, 49568, Note_on_c, 9, 44, 36
6, 49608, Note_on_c, 9, 44, 0
6, 49609, Note_on_c, 9, 37, 0
6, 49694, Note_on_c, 9, 44, 38
6, 49735, Note_on_c, 9, 44, 0
6, 49794, Note_on_c, 9, 37, 42
6, 49816, Note_on_c, 9, 38, 29
6, 49837, Note_on_c, 9, 38, 0
6, 49858, Note_on_c, 9, 37, 0
6, 50284, Note_on_c, 9, 44, 38
6, 50336, Note_on_c, 9, 44, 0
6, 50527, Note_on_c, 9, 44, 32
6, 50582, Note_on_c, 9, 44, 0
6, 50706, Note_on_c, 9, 38, 46
6, 50740, Note_on_c, 9, 38, 0
6, 50757, Note_on_c, 9, 38, 34
6, 50809, Note_on_c, 9, 38, 0
6, 50875, Note_on_c, 9, 38, 32
6, 50934, Note_on_c, 9, 38, 0
6, 50950, Note_on_c, 9, 38, 41
6, 50969, Note_on_c, 9, 38, 0
6, 51244, Note_on_c, 9, 44, 50
6, 51267, Note_on_c, 9, 44, 0
6, 51483, Note_on_c, 9, 44, 46
6, 51523, Note_on_c, 9, 44, 0
6, 51594, Note_on_c, 9, 40, 45
6, 51630, Note_on_c, 9, 40, 0
6, 51727, Note_on_c, 9, 44, 50
6, 51754, Note_on_c, 9, 44, 0
6, 51847, Note_on_c, 9, 44, 55
6, 51887, Note_on_c, 9, 44, 0
6, 51955, Note_on_c, 9, 37, 51
6, 52021, Note_on_c, 9, 37, 0
6, 52211, Note_on_c, 9, 44, 49
6, 52240, Note_on_c, 9, 44, 0
6, 52461, Note_on_c, 9, 44, 46
6, 52502, Note_on_c, 9, 44, 0
6, 52564, Note_on_c, 9, 38, 50
6, 52573, Note_on_c, 9, 38, 0
6, 52589, Note_on_c, 9, 38, 55
6, 52613, Note_on_c, 9, 38, 0
6, 52686, Note_on_c, 9, 44, 56
6, 52722, Note_on_c, 9, 44, 0
6, 52771, Note_on_c, 9, 38, 57
6, 52787, Note_on_c, 9, 38, 0
6, 52804, Note_on_c, 9, 37, 50
6, 52825, Note_on_c, 9, 37, 0
6, 52922, Note_on_c, 9, 44, 46
6, 52962, Note_on_c, 9, 44, 0
6, 53156, Note_on_c, 9, 38, 54
6, 53162, Note_on_c, 9, 44, 47
6, 53194, Note_on_c, 9, 38, 0
6, 53198, Note_on_c, 9, 44, 0
6, 53400, Note_on_c, 9, 46, 35
6, 53437, Note_on_c, 9, 46, 0
6, 53657, Note_on_c, 9, 46, 34
6, 53693, Note_on_c, 9, 46, 0
6, 53888, Note_on_c, 9, 44, 38
6, 53924, Note_on_c, 9, 44, 0
6, 53971, Note_on_c, 9, 38, 36
6, 53985, Note_on_c, 9, 38, 0
6, 54074, Note_on_c, 9, 38, 47
6, 54087, Note_on_c, 9, 38, 0
6, 54118, Note_on_c, 9, 38, 25
6, 54157, Note_on_c, 9, 38, 0
6, 54362, Note_on_c, 9, 38, 30
6, 54369, Note_on_c, 9, 44, 53
6, 54374, Note_on_c, 9, 38, 0
6, 54402, Note_on_c, 9, 44, 0
6, 54431, Note_on_c, 9, 38, 62
6, 54449, Note_on_c, 9, 38, 0
6, 54559, Note_on_c, 9, 38, 25
6, 54571, Note_on_c, 9, 38, 0
6, 54593, Note_on_c, 9, 38, 22
6, 54608, Note_on_c, 9, 44, 53
6, 54618, Note_on_c, 9, 38, 0
6, 54642, Note_on_c, 9, 44, 0
6, 54918, Note_on_c, 9, 38, 45
6, 54945, Note_on_c, 9, 38, 0
6, 55089, Note_on_c, 9, 44, 53
6, 55113, Note_on_c, 9, 44, 0
6, 55326, Note_on_c, 9, 44, 50
6, 55354, Note_on_c, 9, 44, 0
6, 55441, Note_on_c, 9, 40, 26
6, 55459, Note_on_c, 9, 40, 0
6, 55508, Note_on_c, 9, 40, 59
6, 55523, Note_on_c, 9, 40, 0
6, 55552, Note_on_c, 9, 38, 34
6, 55567, Note_on_c, 9, 46, 37
6, 55575, Note_on_c, 9, 38, 0
6, 55587, Note_on_c, 9, 46, 0
6, 55629, Note_on_c, 9, 38, 35
6, 55642, Note_on_c, 9, 38, 0
6, 55806, Note_on_c, 9, 44, 50
6, 55832, Note_on_c, 9, 44, 0
6, 56004, Note_on_c, 9, 38, 31
6, 56024, Note_on_c, 9, 38, 0
6, 56048, Note_on_c, 9, 44, 47
6, 56074, Note_on_c, 9, 44, 0
6, 56308, Note_on_c, 9, 44, 47
6, 56337, Note_on_c, 9, 44, 0
6, 56422, Note_on_c, 9, 38, 28
6, 56433, Note_on_c, 9, 38, 0
6, 56494, Note_on_c, 9, 38, 54
6, 56516, Note_on_c, 9, 38, 0
6, 56538, Note_on_c, 9, 44, 45
6, 56564, Note_on_c, 9, 44, 0
6, 56602, Note_on_c, 9, 37, 35
6, 56622, Note_on_c, 9, 37, 0
6, 56639, Note_on_c, 9, 57, 38
6, 56645, Note_on_c, 9, 38, 38
6, 56653, Note_on_c, 9, 57, 0
6, 56666, Note_on_c, 9, 38, 0
6, 56762, Note_on_c, 9, 44, 40
6, 56789, Note_on_c, 9, 44, 0
6, 57005, Note_on_c, 9, 44, 36
6, 57030, Note_on_c, 9, 44, 0
6, 57084, Note_on_c, 9, 36, 46
6, 57095, Note_on_c, 9, 36, 0
6, 57428, Note_on_c, 9, 38, 55
6, 57437, Note_on_c, 9, 38, 0
6, 57477, Note_on_c, 9, 44, 52
6, 57501, Note_on_c, 9, 44, 0
6, 57721, Note_on_c, 9, 44, 53
6, 57750, Note_on_c, 9, 44, 0
6, 57837, Note_on_c, 9, 38, 40
6, 57865, Note_on_c, 9, 38, 0
6, 57917, Note_on_c, 9, 36, 36
6, 57930, Note_on_c, 9, 36, 0
6, 57957, Note_on_c, 9, 36, 38
6, 58014, Note_on_c, 9, 36, 0
6, 58036, Note_on_c, 9, 36, 58
6, 58062, Note_on_c, 9, 36, 0
6, 58675, Note_on_c, 9, 44, 51
6, 58675, Note_on_c, 9, 38, 38
6, 58711, Note_on_c, 9, 44, 0
6, 58723, Note_on_c, 9, 38, 0
6, 58751, Note_on_c, 9, 38, 43
6, 58776, Note_on_c, 9, 38, 0
6, 58805, Note_on_c, 9, 38, 15
6, 58835, Note_on_c, 9, 38, 0
6, 58874, Note_on_c, 9, 36, 42
6, 58897, Note_on_c, 9, 36, 0
6, 58927, Note_on_c, 9, 46, 37
6, 58941, Note_on_c, 9, 46, 0
6, 59034, Note_on_c, 9, 38, 33
6, 59075, Note_on_c, 9, 38, 0
6, 59109, Note_on_c, 9, 38, 34
6, 59134, Note_on_c, 9, 38, 0
6, 59163, Note_on_c, 9, 38, 27
6, 59164, Note_on_c, 9, 44, 43
6, 59175, Note_on_c, 9, 38, 0
6, 59182, Note_on_c, 9, 44, 0
6, 59234, Note_on_c, 9, 36, 46
6, 59246, Note_on_c, 9, 36, 0
6, 59396, Note_on_c, 9, 44, 49
6, 59415, Note_on_c, 9, 44, 0
6, 59636, Note_on_c, 9, 38, 31
6, 59638, Note_on_c, 9, 46, 50
6, 59666, Note_on_c, 9, 38, 0
6, 59676, Note_on_c, 9, 46, 0
6, 59754, Note_on_c, 9, 38, 34
6, 59796, Note_on_c, 9, 38, 0
6, 59999, Note_on_c, 9, 38, 33
6, 60035, Note_on_c, 9, 38, 0
6, 60113, Note_on_c, 9, 38, 48
6, 60149, Note_on_c, 9, 38, 0
6, 60315, Note_on_c, 9, 37, 52
6, 60334, Note_on_c, 9, 37, 0
6, 60436, Note_on_c, 9, 37, 36
6, 60446, Note_on_c, 9, 37, 0
6, 60474, Note_on_c, 9, 57, 28
6, 60476, Note_on_c, 9, 38, 65
6, 60482, Note_on_c, 9, 57, 0
6, 60496, Note_on_c, 9, 38, 0
6, 60593, Note_on_c, 9, 44, 51
6, 60624, Note_on_c, 9, 44, 0
6, 60711, Note_on_c, 9, 44, 55
6, 60739, Note_on_c, 9, 44, 0
6, 60910, Note_on_c, 9, 38, 60
6, 60918, Note_on_c, 9, 38, 0
6, 61028, Note_on_c, 9, 38, 68
6, 61038, Note_on_c, 9, 38, 0
6, 61088, Note_on_c, 9, 44, 45
6, 61118, Note_on_c, 9, 44, 0
6, 61160, Note_on_c, 9, 36, 39
6, 61171, Note_on_c, 9, 36, 0
6, 61199, Note_on_c, 9, 38, 22
6, 61225, Note_on_c, 9, 38, 0
6, 61330, Note_on_c, 9, 44, 42
6, 61362, Note_on_c, 9, 44, 0
6, 61441, Note_on_c, 9, 44, 46
6, 61475, Note_on_c, 9, 44, 0
6, 61933, Note_on_c, 9, 38, 54
6, 61949, Note_on_c, 9, 38, 0
6, 61961, Note_on_c, 9, 38, 32
6, 61977, Note_on_c, 9, 38, 0
6, 62160, Note_on_c, 9, 38, 54
6, 62173, Note_on_c, 9, 38, 0
6, 62193, Note_on_c, 9, 38, 54
6, 62208, Note_on_c, 9, 38, 0
6, 62283, Note_on_c, 9, 46, 40
6, 62311, Note_on_c, 9, 46, 0
6, 62370, Note_on_c, 9, 36, 71
6, 62387, Note_on_c, 9, 36, 0
6, 62415, Note_on_c, 9, 38, 44
6, 62425, Note_on_c, 9, 38, 0
6, 62526, Note_on_c, 9, 44, 47
6, 62550, Note_on_c, 9, 44, 0
6, 62764, Note_on_c, 9, 44, 45
6, 62795, Note_on_c, 9, 44, 0
6, 63009, Note_on_c, 9, 44, 37
6, 63039, Note_on_c, 9, 44, 0
6, 63239, Note_on_c, 9, 37, 56
6, 63249, Note_on_c, 9, 46, 44
6, 63275, Note_on_c, 9, 46, 0
6, 63277, Note_on_c, 9, 37, 0
6, 63473, Note_on_c, 9, 37, 48
6, 63491, Note_on_c, 9, 44, 40
6, 63515, Note_on_c, 9, 44, 0
6, 63525, Note_on_c, 9, 37, 0
6, 63605, Note_on_c, 9, 44, 46
6, 63640, Note_on_c, 9, 44, 0
6, 63722, Note_on_c, 9, 37, 38
6, 63763, Note_on_c, 9, 37, 0
6, 63966, Note_on_c, 9, 46, 39
6, 64001, Note_on_c, 9, 46, 0
6, 64037, Note_on_c, 9, 38, 71
6, 64059, Note_on_c, 9, 38, 0
6, 64079, Note_on_c, 9, 38, 65
6, 64123, Note_on_c, 9, 38, 0
6, 64161, Note_on_c, 9, 38, 74
6, 64178, Note_on_c, 9, 38, 0
6, 64194, Note_on_c, 9, 44, 43
6, 64229, Note_on_c, 9, 44, 0
6, 64286, Note_on_c, 9, 38, 56
6, 64296, Note_on_c, 9, 38, 0
6, 64322, Note_on_c, 9, 57, 78
6, 64325, Note_on_c, 9, 36, 80
6, 64341, Note_on_c, 9, 57, 0
6, 64343, Note_on_c, 9, 36, 0
6, 64452, Note_on_c, 9, 44, 37
6, 64488, Note_on_c, 9, 44, 0
6, 64640, Note_on_c, 9, 38, 75
6, 64659, Note_on_c, 9, 38, 0
6, 64684, Note_on_c, 9, 57, 68
6, 64685, Note_on_c, 9, 36, 74
6, 64693, Note_on_c, 9, 44, 55
6, 64694, Note_on_c, 9, 57, 0
6, 64713, Note_on_c, 9, 36, 0
6, 64736, Note_on_c, 9, 44, 0
6, 65157, Note_on_c, 9, 38, 28
6, 65164, Note_on_c, 9, 44, 59
6, 65186, Note_on_c, 9, 38, 0
6, 65202, Note_on_c, 9, 44, 0
6, 65236, Note_on_c, 9, 38, 55
6, 65248, Note_on_c, 9, 38, 0
6, 65407, Note_on_c, 9, 44, 57
6, 65444, Note_on_c, 9, 44, 0
6, 65637, Note_on_c, 9, 38, 38
6, 65648, Note_on_c, 9, 38, 0
6, 65707, Note_on_c, 9, 38, 60
6, 65726, Note_on_c, 9, 38, 0
6, 65751, Note_on_c, 9, 38, 49
6, 65764, Note_on_c, 9, 38, 0
6, 65828, Note_on_c, 9, 38, 53
6, 65837, Note_on_c, 9, 38, 0
6, 65871, Note_on_c, 9, 38, 32
6, 65883, Note_on_c, 9, 38, 0
6, 65884, Note_on_c, 9, 44, 53
6, 65920, Note_on_c, 9, 44, 0
6, 65954, Note_on_c, 9, 38, 34
6, 65965, Note_on_c, 9, 38, 0
6, 65992, Note_on_c, 9, 38, 22
6, 66001, Note_on_c, 9, 38, 0
6, 66082, Note_on_c, 9, 38, 62
6, 66096, Note_on_c, 9, 38, 0
6, 66129, Note_on_c, 9, 46, 33
6, 66135, Note_on_c, 9, 38, 47
6, 66149, Note_on_c, 9, 38, 0
6, 66155, Note_on_c, 9, 46, 0
6, 66201, Note_on_c, 9, 36, 70
6, 66216, Note_on_c, 9, 36, 0
6, 66251, Note_on_c, 9, 57, 39
6, 66251, Note_on_c, 9, 36, 53
6, 66262, Note_on_c, 9, 57, 0
6, 66297, Note_on_c, 9, 36, 0
6, 66375, Note_on_c, 9, 44, 52
6, 66408, Note_on_c, 9, 44, 0
6, 66612, Note_on_c, 9, 44, 49
6, 66651, Note_on_c, 9, 44, 0
6, 66846, Note_on_c, 9, 44, 51
6, 66888, Note_on_c, 9, 44, 0
6, 67042, Note_on_c, 9, 38, 52
6, 67051, Note_on_c, 9, 38, 0
6, 67085, Note_on_c, 9, 44, 46
6, 67125, Note_on_c, 9, 44, 0
6, 67200, Note_on_c, 9, 38, 49
6, 67230, Note_on_c, 9, 38, 0
6, 67323, Note_on_c, 9, 44, 45
6, 67361, Note_on_c, 9, 44, 0
6, 67398, Note_on_c, 9, 38, 58
6, 67406, Note_on_c, 9, 38, 0
6, 67552, Note_on_c, 9, 44, 43
6, 67555, Note_on_c, 9, 38, 74
6, 67570, Note_on_c, 9, 38, 0
6, 67589, Note_on_c, 9, 44, 0
6, 67760, Note_on_c, 9, 38, 80
6, 67776, Note_on_c, 9, 38, 0
6, 67800, Note_on_c, 9, 44, 56
6, 67835, Note_on_c, 9, 44, 0
6, 67926, Note_on_c, 9, 38, 74
6, 67947, Note_on_c, 9, 38, 0
6, 68043, Note_on_c, 9, 44, 55
6, 68084, Note_on_c, 9, 44, 0
6, 68124, Note_on_c, 9, 38, 79
6, 68147, Note_on_c, 9, 38, 0
6, 68160, Note_on_c, 9, 36, 68
6, 68163, Note_on_c, 9, 57, 68
6, 68172, Note_on_c, 9, 57, 0
6, 68173, Note_on_c, 9, 36, 0
6, 68602, Note_on_c, 9, 38, 64
6, 68616, Note_on_c, 9, 38, 0
6, 68647, Note_on_c, 9, 38, 44
6, 68699, Note_on_c, 9, 38, 0
6, 68724, Note_on_c, 9, 38, 44
6, 68741, Note_on_c, 9, 38, 0
6, 69256, Note_on_c, 9, 44, 45
6, 69283, Note_on_c, 9, 44, 0
6, 69322, Note_on_c, 9, 38, 38
6, 69352, Note_on_c, 9, 38, 0
6, 69376, Note_on_c, 9, 38, 39
6, 69380, Note_on_c, 9, 44, 42
6, 69410, Note_on_c, 9, 44, 0
6, 69426, Note_on_c, 9, 38, 0
6, 69446, Note_on_c, 9, 38, 62
6, 69469, Note_on_c, 9, 38, 0
6, 69493, Note_on_c, 9, 38, 42
6, 69523, Note_on_c, 9, 38, 0
6, 69568, Note_on_c, 9, 36, 32
6, 69586, Note_on_c, 9, 36, 0
6, 69617, Note_on_c, 9, 38, 30
6, 69630, Note_on_c, 9, 38, 0
6, 69732, Note_on_c, 9, 44, 49
6, 69761, Note_on_c, 9, 44, 0
6, 69955, Note_on_c, 9, 46, 36
6, 69984, Note_on_c, 9, 46, 0
6, 70279, Note_on_c, 9, 38, 47
6, 70289, Note_on_c, 9, 38, 0
6, 70324, Note_on_c, 9, 38, 33
6, 70341, Note_on_c, 9, 38, 0
6, 70403, Note_on_c, 9, 36, 47
6, 70419, Note_on_c, 9, 36, 0
6, 70435, Note_on_c, 9, 46, 33
6, 70448, Note_on_c, 9, 36, 41
6, 70475, Note_on_c, 9, 46, 0
6, 70495, Note_on_c, 9, 36, 0
6, 71162, Note_on_c, 9, 44, 50
6, 71208, Note_on_c, 9, 44, 0
6, 71399, Note_on_c, 9, 44, 37
6, 71404, Note_on_c, 9, 38, 44
6, 71438, Note_on_c, 9, 44, 0
6, 71441, Note_on_c, 9, 38, 0
6, 71638, Note_on_c, 9, 38, 32
6, 71641, Note_on_c, 9, 44, 43
6, 71673, Note_on_c, 9, 38, 0
6, 71679, Note_on_c, 9, 44, 0
6, 71757, Note_on_c, 9, 38, 33
6, 71796, Note_on_c, 9, 38, 0
6, 71833, Note_on_c, 9, 37, 47
6, 71857, Note_on_c, 9, 37, 0
6, 72116, Note_on_c, 9, 44, 44
6, 72117, Note_on_c, 9, 38, 44
6, 72150, Note_on_c, 9, 38, 0
6, 72157, Note_on_c, 9, 44, 0
6, 72238, Note_on_c, 9, 38, 38
6, 72284, Note_on_c, 9, 38, 0
6, 72320, Note_on_c, 9, 36, 43
6, 72334, Note_on_c, 9, 36, 0
6, 72358, Note_on_c, 9, 44, 34
6, 72402, Note_on_c, 9, 44, 0
6, 72599, Note_on_c, 9, 44, 37
6, 72646, Note_on_c, 9, 44, 0
6, 72837, Note_on_c, 9, 44, 46
6, 72887, Note_on_c, 9, 44, 0
6, 72963, Note_on_c, 9, 38, 50
6, 72974, Note_on_c, 9, 38, 0
6, 73079, Note_on_c, 9, 44, 35
6, 73083, Note_on_c, 9, 38, 44
6, 73092, Note_on_c, 9, 38, 0
6, 73125, Note_on_c, 9, 44, 0
6, 73316, Note_on_c, 9, 44, 73
6, 73375, Note_on_c, 9, 44, 0
6, 73557, Note_on_c, 9, 44, 31
6, 73605, Note_on_c, 9, 44, 0
6, 73640, Note_on_c, 9, 38, 35
6, 73653, Note_on_c, 9, 38, 0
6, 73683, Note_on_c, 9, 38, 31
6, 73722, Note_on_c, 9, 38, 0
6, 73757, Note_on_c, 9, 36, 50
6, 73770, Note_on_c, 9, 36, 0
6, 73801, Note_on_c, 9, 44, 28
6, 73837, Note_on_c, 9, 44, 0
6, 73874, Note_on_c, 9, 38, 49
6, 73884, Note_on_c, 9, 38, 0
6, 73916, Note_on_c, 9, 38, 28
6, 73946, Note_on_c, 9, 38, 0
6, 73992, Note_on_c, 9, 36, 45
6, 74005, Note_on_c, 9, 36, 0
6, 74035, Note_on_c, 9, 46, 31
6, 74069, Note_on_c, 9, 46, 0
6, 74292, Note_on_c, 9, 46, 31
6, 74317, Note_on_c, 9, 46, 0
6, 74478, Note_on_c, 9, 38, 56
6, 74488, Note_on_c, 9, 38, 0
6, 74523, Note_on_c, 9, 44, 37
6, 74524, Note_on_c, 9, 38, 52
6, 74534, Note_on_c, 9, 38, 0
6, 74548, Note_on_c, 9, 44, 0
6, 74654, Note_on_c, 9, 38, 38
6, 74672, Note_on_c, 9, 38, 0
6, 74723, Note_on_c, 9, 38, 48
6, 74732, Note_on_c, 9, 38, 0
6, 74761, Note_on_c, 9, 46, 39
6, 74798, Note_on_c, 9, 46, 0
6, 74837, Note_on_c, 9, 36, 29
6, 74846, Note_on_c, 9, 36, 0
6, 74874, Note_on_c, 9, 38, 36
6, 74910, Note_on_c, 9, 38, 0
6, 74963, Note_on_c, 9, 38, 60
6, 74971, Note_on_c, 9, 38, 0
6, 75007, Note_on_c, 9, 46, 35
6, 75046, Note_on_c, 9, 46, 0
6, 75077, Note_on_c, 9, 38, 52
6, 75093, Note_on_c, 9, 38, 0
6, 75198, Note_on_c, 9, 38, 58
6, 75220, Note_on_c, 9, 38, 0
6, 75247, Note_on_c, 9, 46, 38
6, 75283, Note_on_c, 9, 46, 0
6, 75323, Note_on_c, 9, 38, 84
6, 75345, Note_on_c, 9, 38, 0
6, 75444, Note_on_c, 9, 38, 89
6, 75467, Note_on_c, 9, 38, 0
6, 75485, Note_on_c, 9, 46, 47
6, 75520, Note_on_c, 9, 46, 0
6, 75565, Note_on_c, 9, 38, 103
6, 75573, Note_on_c, 9, 34, 40
6, 75579, Note_on_c, 9, 31, 25
6, 75582, Note_on_c, 9, 34, 0
6, 75588, Note_on_c, 9, 31, 0
6, 75589, Note_on_c, 9, 38, 0
6, 75682, Note_on_c, 9, 38, 108
6, 75688, Note_on_c, 9, 34, 57
6, 75694, Note_on_c, 9, 31, 33
6, 75697, Note_on_c, 9, 34, 0
6, 75705, Note_on_c, 9, 31, 0
6, 75728, Note_on_c, 9, 46, 50
6, 75741, Note_on_c, 9, 38, 0
6, 75763, Note_on_c, 9, 46, 0
6, 75807, Note_on_c, 9, 36, 62
6, 75820, Note_on_c, 9, 36, 0
6, 75847, Note_on_c, 9, 49, 92
6, 75848, Note_on_c, 9, 36, 88
6, 75849, Note_on_c, 9, 38, 87
6, 75880, Note_on_c, 9, 49, 0
6, 75903, Note_on_c, 9, 36, 0
6, 75908, Note_on_c, 9, 38, 0
6, 75971, Note_on_c, 9, 44, 48
6, 75997, Note_on_c, 9, 44, 0
6, 76202, Note_on_c, 9, 44, 33
6, 76226, Note_on_c, 9, 44, 0
6, 76287, Note_on_c, 9, 38, 49
6, 76298, Note_on_c, 9, 38, 0
6, 76330, Note_on_c, 9, 38, 36
6, 76380, Note_on_c, 9, 38, 0
6, 76445, Note_on_c, 9, 44, 44
6, 76478, Note_on_c, 9, 44, 0
6, 76692, Note_on_c, 9, 44, 57
6, 76728, Note_on_c, 9, 44, 0
6, 76937, Note_on_c, 9, 44, 65
6, 76966, Note_on_c, 9, 44, 0
6, 77169, Note_on_c, 9, 44, 55
6, 77207, Note_on_c, 9, 44, 0
6, 77253, Note_on_c, 9, 38, 60
6, 77262, Note_on_c, 9, 38, 0
6, 77407, Note_on_c, 9, 44, 56
6, 77443, Note_on_c, 9, 44, 0
6, 77491, Note_on_c, 9, 38, 55
6, 77499, Note_on_c, 9, 38, 0
6, 77601, Note_on_c, 9, 38, 62
6, 77609, Note_on_c, 9, 38, 0
6, 77642, Note_on_c, 9, 44, 60
6, 77679, Note_on_c, 9, 44, 0
6, 77725, Note_on_c, 9, 38, 66
6, 77734, Note_on_c, 9, 38, 0
6, 77847, Note_on_c, 9, 38, 62
6, 77856, Note_on_c, 9, 38, 0
6, 77885, Note_on_c, 9, 46, 48
6, 77913, Note_on_c, 9, 46, 0
6, 77973, Note_on_c, 9, 38, 47
6, 77982, Note_on_c, 9, 38, 0
6, 78020, Note_on_c, 9, 38, 34
6, 78044, Note_on_c, 9, 38, 0
6, 78126, Note_on_c, 9, 44, 44
6, 78156, Note_on_c, 9, 44, 0
6, 78372, Note_on_c, 9, 44, 81
6, 78409, Note_on_c, 9, 44, 0
6, 78607, Note_on_c, 9, 44, 83
6, 78655, Note_on_c, 9, 44, 0
6, 78799, Note_on_c, 9, 37, 39
6, 78832, Note_on_c, 9, 37, 0
6, 78843, Note_on_c, 9, 44, 82
6, 78892, Note_on_c, 9, 37, 40
6, 78896, Note_on_c, 9, 44, 0
6, 78941, Note_on_c, 9, 37, 0
6, 78983, Note_on_c, 9, 37, 42
6, 79034, Note_on_c, 9, 37, 0
6, 79067, Note_on_c, 9, 37, 43
6, 79085, Note_on_c, 9, 44, 79
6, 79099, Note_on_c, 9, 37, 0
6, 79128, Note_on_c, 9, 44, 0
6, 79143, Note_on_c, 9, 37, 34
6, 79181, Note_on_c, 9, 37, 0
6, 79330, Note_on_c, 9, 44, 77
6, 79376, Note_on_c, 9, 44, 0
6, 79418, Note_on_c, 9, 37, 57
6, 79440, Note_on_c, 9, 37, 0
6, 79494, Note_on_c, 9, 37, 50
6, 79521, Note_on_c, 9, 37, 0
6, 79571, Note_on_c, 9, 44, 74
6, 79575, Note_on_c, 9, 37, 55
6, 79598, Note_on_c, 9, 37, 0
6, 79616, Note_on_c, 9, 44, 0
6, 79646, Note_on_c, 9, 57, 74
6, 79646, Note_on_c, 9, 36, 76
6, 79655, Note_on_c, 9, 57, 0
6, 79664, Note_on_c, 9, 36, 0
6, 79812, Note_on_c, 9, 44, 72
6, 79846, Note_on_c, 9, 44, 0
6, 79994, Note_on_c, 9, 38, 66
6, 80003, Note_on_c, 9, 38, 0
6, 80041, Note_on_c, 9, 36, 31
6, 80044, Note_on_c, 9, 44, 73
6, 80075, Note_on_c, 9, 36, 0
6, 80083, Note_on_c, 9, 44, 0
6, 80165, Note_on_c, 9, 36, 27
6, 80179, Note_on_c, 9, 36, 0
6, 80289, Note_on_c, 9, 44, 77
6, 80338, Note_on_c, 9, 44, 0
6, 80364, Note_on_c, 9, 36, 44
6, 80376, Note_on_c, 9, 36, 0
6, 80529, Note_on_c, 9, 44, 76
6, 80573, Note_on_c, 9, 44, 0
6, 80764, Note_on_c, 9, 44, 72
6, 80807, Note_on_c, 9, 44, 0
6, 80838, Note_on_c, 9, 38, 56
6, 80847, Note_on_c, 9, 38, 0
6, 80879, Note_on_c, 9, 36, 37
6, 80893, Note_on_c, 9, 36, 0
6, 80969, Note_on_c, 9, 36, 29
6, 80984, Note_on_c, 9, 36, 0
6, 80998, Note_on_c, 9, 44, 67
6, 81034, Note_on_c, 9, 44, 0
6, 81236, Note_on_c, 9, 46, 47
6, 81260, Note_on_c, 9, 46, 0
6, 81478, Note_on_c, 9, 44, 71
6, 81507, Note_on_c, 9, 44, 0
6, 81692, Note_on_c, 9, 38, 32
6, 81706, Note_on_c, 9, 38, 0
6, 81724, Note_on_c, 9, 44, 68
6, 81752, Note_on_c, 9, 44, 0
6, 81813, Note_on_c, 9, 38, 43
6, 81822, Note_on_c, 9, 38, 0
6, 81853, Note_on_c, 9, 38, 34
6, 81876, Note_on_c, 9, 38, 0
6, 81933, Note_on_c, 9, 36, 25
6, 81942, Note_on_c, 9, 36, 0
6, 81959, Note_on_c, 9, 44, 74
6, 81991, Note_on_c, 9, 44, 0
6, 82038, Note_on_c, 9, 38, 45
6, 82057, Note_on_c, 9, 38, 0
6, 82088, Note_on_c, 9, 38, 28
6, 82105, Note_on_c, 9, 38, 0
6, 82167, Note_on_c, 9, 36, 20
6, 82176, Note_on_c, 9, 36, 0
6, 82200, Note_on_c, 9, 44, 76
6, 82232, Note_on_c, 9, 44, 0
6, 82435, Note_on_c, 9, 44, 75
6, 82470, Note_on_c, 9, 44, 0
6, 82676, Note_on_c, 9, 44, 76
6, 82710, Note_on_c, 9, 44, 0
6, 82914, Note_on_c, 9, 44, 83
6, 82957, Note_on_c, 9, 44, 0
6, 83151, Note_on_c, 9, 44, 63
6, 83190, Note_on_c, 9, 44, 0
6, 83366, Note_on_c, 9, 38, 45
6, 83377, Note_on_c, 9, 38, 0
6, 83392, Note_on_c, 9, 46, 68
6, 83409, Note_on_c, 9, 38, 30
6, 83423, Note_on_c, 9, 38, 0
6, 83435, Note_on_c, 9, 46, 0
6, 83486, Note_on_c, 9, 36, 63
6, 83509, Note_on_c, 9, 36, 0
6, 83530, Note_on_c, 9, 36, 50
6, 83551, Note_on_c, 9, 36, 0
6, 83639, Note_on_c, 9, 46, 59
6, 83676, Note_on_c, 9, 46, 0
6, 83839, Note_on_c, 9, 38, 66
6, 83853, Note_on_c, 9, 38, 0
6, 83882, Note_on_c, 9, 44, 64
6, 83910, Note_on_c, 9, 44, 0
6, 84121, Note_on_c, 9, 44, 65
6, 84150, Note_on_c, 9, 44, 0
6, 84358, Note_on_c, 9, 46, 39
6, 84384, Note_on_c, 9, 46, 0
6, 84601, Note_on_c, 9, 44, 64
6, 84628, Note_on_c, 9, 44, 0
6, 84845, Note_on_c, 9, 44, 64
6, 84875, Note_on_c, 9, 44, 0
6, 85075, Note_on_c, 9, 38, 40
6, 85081, Note_on_c, 9, 44, 62
6, 85105, Note_on_c, 9, 38, 0
6, 85112, Note_on_c, 9, 44, 0
6, 85199, Note_on_c, 9, 38, 36
6, 85234, Note_on_c, 9, 38, 0
6, 85281, Note_on_c, 9, 38, 40
6, 85304, Note_on_c, 9, 38, 0
6, 85317, Note_on_c, 9, 44, 69
6, 85349, Note_on_c, 9, 44, 0
6, 85559, Note_on_c, 9, 38, 39
6, 85561, Note_on_c, 9, 44, 69
6, 85590, Note_on_c, 9, 38, 0
6, 85592, Note_on_c, 9, 44, 0
6, 85673, Note_on_c, 9, 38, 45
6, 85740, Note_on_c, 9, 38, 0
6, 85764, Note_on_c, 9, 38, 53
6, 85801, Note_on_c, 9, 38, 0
6, 85806, Note_on_c, 9, 44, 67
6, 85837, Note_on_c, 9, 44, 0
6, 85887, Note_on_c, 9, 36, 40
6, 85908, Note_on_c, 9, 36, 0
6, 86043, Note_on_c, 9, 44, 68
6, 86073, Note_on_c, 9, 44, 0
6, 86247, Note_on_c, 9, 38, 74
6, 86280, Note_on_c, 9, 44, 69
6, 86305, Note_on_c, 9, 38, 0
6, 86308, Note_on_c, 9, 44, 0
6, 86323, Note_on_c, 9, 38, 69
6, 86383, Note_on_c, 9, 38, 0
6, 86405, Note_on_c, 9, 38, 69
6, 86467, Note_on_c, 9, 38, 0
6, 86493, Note_on_c, 9, 36, 22
6, 86503, Note_on_c, 9, 36, 0
6, 86516, Note_on_c, 9, 44, 69
6, 86547, Note_on_c, 9, 44, 0
6, 86730, Note_on_c, 9, 38, 64
6, 86751, Note_on_c, 9, 44, 27
6, 86756, Note_on_c, 9, 44, 71
6, 86781, Note_on_c, 9, 44, 0
6, 86786, Note_on_c, 9, 44, 0
6, 86791, Note_on_c, 9, 38, 0
6, 86823, Note_on_c, 9, 38, 87
6, 86890, Note_on_c, 9, 38, 0
6, 86906, Note_on_c, 9, 38, 84
6, 86964, Note_on_c, 9, 38, 0
6, 86975, Note_on_c, 9, 36, 41
6, 86992, Note_on_c, 9, 36, 0
6, 86996, Note_on_c, 9, 44, 74
6, 87026, Note_on_c, 9, 44, 0
6, 87085, Note_on_c, 9, 38, 38
6, 87113, Note_on_c, 9, 38, 0
6, 87136, Note_on_c, 9, 38, 64
6, 87219, Note_on_c, 9, 38, 0
6, 87236, Note_on_c, 9, 44, 75
6, 87245, Note_on_c, 9, 36, 38
6, 87259, Note_on_c, 9, 36, 0
6, 87266, Note_on_c, 9, 44, 0
6, 87324, Note_on_c, 9, 57, 75
6, 87325, Note_on_c, 9, 38, 76
6, 87334, Note_on_c, 9, 57, 0
6, 87384, Note_on_c, 9, 38, 0
6, 87480, Note_on_c, 9, 44, 70
6, 87505, Note_on_c, 9, 44, 0
6, 87678, Note_on_c, 9, 38, 71
6, 87693, Note_on_c, 9, 38, 0
6, 87720, Note_on_c, 9, 44, 67
6, 87726, Note_on_c, 9, 36, 37
6, 87738, Note_on_c, 9, 36, 0
6, 87748, Note_on_c, 9, 44, 0
6, 87806, Note_on_c, 9, 36, 46
6, 87822, Note_on_c, 9, 36, 0
6, 87957, Note_on_c, 9, 46, 55
6, 87983, Note_on_c, 9, 46, 0
6, 88198, Note_on_c, 9, 44, 61
6, 88221, Note_on_c, 9, 44, 0
6, 88444, Note_on_c, 9, 44, 67
6, 88473, Note_on_c, 9, 44, 0
6, 88531, Note_on_c, 9, 38, 74
6, 88551, Note_on_c, 9, 38, 0
6, 88580, Note_on_c, 9, 38, 66
6, 88631, Note_on_c, 9, 38, 0
6, 88681, Note_on_c, 9, 44, 67
6, 88708, Note_on_c, 9, 44, 0
6, 88918, Note_on_c, 9, 44, 69
6, 88946, Note_on_c, 9, 44, 0
6, 89157, Note_on_c, 9, 44, 65
6, 89187, Note_on_c, 9, 44, 0
6, 89360, Note_on_c, 9, 40, 70
6, 89372, Note_on_c, 9, 40, 0
6, 89399, Note_on_c, 9, 44, 71
6, 89407, Note_on_c, 9, 38, 35
6, 89426, Note_on_c, 9, 38, 0
6, 89428, Note_on_c, 9, 44, 0
6, 89479, Note_on_c, 9, 38, 42
6, 89502, Note_on_c, 9, 38, 0
6, 89638, Note_on_c, 9, 44, 72
6, 89668, Note_on_c, 9, 44, 0
6, 89879, Note_on_c, 9, 44, 71
6, 89884, Note_on_c, 9, 38, 38
6, 89899, Note_on_c, 9, 38, 0
6, 89910, Note_on_c, 9, 44, 0
6, 89965, Note_on_c, 9, 38, 73
6, 89992, Note_on_c, 9, 38, 0
6, 90126, Note_on_c, 9, 44, 69
6, 90130, Note_on_c, 9, 38, 44
6, 90155, Note_on_c, 9, 44, 0
6, 90186, Note_on_c, 9, 38, 0
6, 90205, Note_on_c, 9, 38, 75
6, 90226, Note_on_c, 9, 38, 0
6, 90365, Note_on_c, 9, 44, 60
6, 90397, Note_on_c, 9, 44, 0
6, 90474, Note_on_c, 9, 44, 53
6, 90511, Note_on_c, 9, 44, 0
6, 90570, Note_on_c, 9, 38, 42
6, 90583, Note_on_c, 9, 38, 0
6, 90600, Note_on_c, 9, 44, 46
6, 90617, Note_on_c, 9, 44, 0
6, 90619, Note_on_c, 9, 38, 29
6, 90634, Note_on_c, 9, 38, 0
6, 90695, Note_on_c, 9, 38, 71
6, 90714, Note_on_c, 9, 38, 0
6, 90817, Note_on_c, 9, 36, 68
6, 90817, Note_on_c, 9, 38, 66
6, 90834, Note_on_c, 9, 36, 0
6, 90841, Note_on_c, 9, 44, 60
6, 90843, Note_on_c, 9, 38, 0
6, 90879, Note_on_c, 9, 44, 0
6, 90933, Note_on_c, 9, 38, 96
6, 90961, Note_on_c, 9, 38, 0
6, 90964, Note_on_c, 9, 44, 23
6, 91000, Note_on_c, 9, 44, 0
6, 91046, Note_on_c, 9, 38, 101
6, 91067, Note_on_c, 9, 38, 0
6, 91080, Note_on_c, 9, 44, 42
6, 91085, Note_on_c, 9, 38, 34
6, 91096, Note_on_c, 9, 38, 0
6, 91129, Note_on_c, 9, 44, 0
6, 91167, Note_on_c, 9, 38, 82
6, 91186, Note_on_c, 9, 38, 0
6, 91204, Note_on_c, 9, 45, 75
6, 91205, Note_on_c, 9, 44, 23
6, 91211, Note_on_c, 9, 36, 71
6, 91213, Note_on_c, 9, 45, 0
6, 91214, Note_on_c, 9, 38, 25
6, 91224, Note_on_c, 9, 38, 0
6, 91231, Note_on_c, 9, 36, 0
6, 91258, Note_on_c, 9, 44, 0
6, 91319, Note_on_c, 9, 44, 59
6, 91375, Note_on_c, 9, 44, 0
6, 91444, Note_on_c, 9, 44, 31
6, 91469, Note_on_c, 9, 44, 0
6, 91547, Note_on_c, 9, 44, 65
6, 91603, Note_on_c, 9, 44, 0
6, 91649, Note_on_c, 9, 38, 62
6, 91669, Note_on_c, 9, 38, 0
6, 91684, Note_on_c, 9, 44, 29
6, 91732, Note_on_c, 9, 44, 0
6, 91762, Note_on_c, 9, 38, 62
6, 91790, Note_on_c, 9, 38, 0
6, 91792, Note_on_c, 9, 44, 60
6, 91842, Note_on_c, 9, 44, 0
6, 91880, Note_on_c, 9, 38, 74
6, 91917, Note_on_c, 9, 44, 39
6, 91940, Note_on_c, 9, 38, 0
6, 91968, Note_on_c, 9, 44, 0
6, 92002, Note_on_c, 9, 38, 62
6, 92023, Note_on_c, 9, 38, 0
6, 92028, Note_on_c, 9, 44, 70
6, 92048, Note_on_c, 9, 38, 34
6, 92082, Note_on_c, 9, 38, 0
6, 92082, Note_on_c, 9, 44, 0
6, 92153, Note_on_c, 9, 44, 34
6, 92195, Note_on_c, 9, 44, 0
6, 92276, Note_on_c, 9, 44, 69
6, 92331, Note_on_c, 9, 44, 0
6, 92365, Note_on_c, 9, 38, 35
6, 92380, Note_on_c, 9, 38, 0
6, 92400, Note_on_c, 9, 44, 37
6, 92413, Note_on_c, 9, 38, 17
6, 92438, Note_on_c, 9, 38, 0
6, 92457, Note_on_c, 9, 44, 0
6, 92514, Note_on_c, 9, 44, 48
6, 92569, Note_on_c, 9, 44, 0
6, 92607, Note_on_c, 9, 38, 37
6, 92622, Note_on_c, 9, 38, 0
6, 92634, Note_on_c, 9, 44, 30
6, 92648, Note_on_c, 9, 38, 15
6, 92677, Note_on_c, 9, 38, 0
6, 92687, Note_on_c, 9, 44, 0
6, 92750, Note_on_c, 9, 44, 49
6, 92798, Note_on_c, 9, 44, 0
6, 92844, Note_on_c, 9, 38, 28
6, 92860, Note_on_c, 9, 38, 0
6, 92876, Note_on_c, 9, 44, 39
6, 92909, Note_on_c, 9, 44, 0
6, 92974, Note_on_c, 9, 38, 22
6, 92990, Note_on_c, 9, 38, 0
6, 92994, Note_on_c, 9, 44, 64
6, 93043, Note_on_c, 9, 44, 0
6, 93091, Note_on_c, 9, 38, 29
6, 93106, Note_on_c, 9, 38, 0
6, 93112, Note_on_c, 9, 44, 52
6, 93159, Note_on_c, 9, 44, 0
6, 93238, Note_on_c, 9, 44, 65
6, 93295, Note_on_c, 9, 44, 0
6, 93359, Note_on_c, 9, 44, 34
6, 93393, Note_on_c, 9, 44, 0
6, 93468, Note_on_c, 9, 44, 59
6, 93520, Note_on_c, 9, 44, 0
6, 93543, Note_on_c, 9, 38, 24
6, 93562, Note_on_c, 9, 38, 0
6, 93585, Note_on_c, 9, 44, 42
6, 93606, Note_on_c, 9, 38, 45
6, 93619, Note_on_c, 9, 38, 0
6, 93630, Note_on_c, 9, 44, 0
6, 93707, Note_on_c, 9, 44, 64
6, 93712, Note_on_c, 9, 38, 52
6, 93722, Note_on_c, 9, 38, 0
6, 93743, Note_on_c, 9, 38, 36
6, 93756, Note_on_c, 9, 38, 0
6, 93763, Note_on_c, 9, 44, 0
6, 93830, Note_on_c, 9, 44, 37
6, 93875, Note_on_c, 9, 44, 0
6, 93948, Note_on_c, 9, 44, 57
6, 93952, Note_on_c, 9, 38, 48
6, 93961, Note_on_c, 9, 38, 0
6, 93983, Note_on_c, 9, 38, 32
6, 93995, Note_on_c, 9, 38, 0
6, 94004, Note_on_c, 9, 44, 0
6, 94073, Note_on_c, 9, 44, 33
6, 94118, Note_on_c, 9, 44, 0
6, 94143, Note_on_c, 9, 38, 36
6, 94152, Note_on_c, 9, 38, 0
6, 94196, Note_on_c, 9, 44, 55
6, 94227, Note_on_c, 9, 38, 37
6, 94238, Note_on_c, 9, 38, 0
6, 94248, Note_on_c, 9, 44, 0
6, 94321, Note_on_c, 9, 44, 33
6, 94360, Note_on_c, 9, 44, 0
6, 94434, Note_on_c, 9, 44, 68
6, 94485, Note_on_c, 9, 44, 0
6, 94513, Note_on_c, 9, 38, 53
6, 94522, Note_on_c, 9, 38, 0
6, 94554, Note_on_c, 9, 44, 36
6, 94555, Note_on_c, 9, 38, 48
6, 94565, Note_on_c, 9, 38, 0
6, 94605, Note_on_c, 9, 44, 0
6, 94640, Note_on_c, 9, 36, 34
6, 94651, Note_on_c, 9, 36, 0
6, 94672, Note_on_c, 9, 44, 59
6, 94682, Note_on_c, 9, 38, 47
6, 94693, Note_on_c, 9, 38, 0
6, 94726, Note_on_c, 9, 44, 0
6, 94754, Note_on_c, 9, 38, 62
6, 94762, Note_on_c, 9, 38, 0
6, 94796, Note_on_c, 9, 44, 39
6, 94838, Note_on_c, 9, 44, 0
6, 94885, Note_on_c, 9, 38, 71
6, 94899, Note_on_c, 9, 38, 0
6, 94906, Note_on_c, 9, 44, 63
6, 94927, Note_on_c, 9, 38, 50
6, 94941, Note_on_c, 9, 38, 0
6, 94957, Note_on_c, 9, 44, 0
6, 94995, Note_on_c, 9, 38, 63
6, 95021, Note_on_c, 9, 38, 0
6, 95025, Note_on_c, 9, 44, 42
6, 95040, Note_on_c, 9, 36, 59
6, 95043, Note_on_c, 9, 57, 44
6, 95050, Note_on_c, 9, 36, 0
6, 95053, Note_on_c, 9, 57, 0
6, 95072, Note_on_c, 9, 44, 0
6, 95142, Note_on_c, 9, 44, 64
6, 95194, Note_on_c, 9, 44, 0
6, 95268, Note_on_c, 9, 44, 39
6, 95305, Note_on_c, 9, 44, 0
6, 95353, Note_on_c, 9, 38, 62
6, 95364, Note_on_c, 9, 38, 0
6, 95385, Note_on_c, 9, 44, 76
6, 95399, Note_on_c, 9, 38, 30
6, 95425, Note_on_c, 9, 38, 0
6, 95438, Note_on_c, 9, 44, 0
6, 95507, Note_on_c, 9, 44, 33
6, 95550, Note_on_c, 9, 44, 0
6, 95623, Note_on_c, 9, 44, 53
6, 95673, Note_on_c, 9, 44, 0
6, 95724, Note_on_c, 9, 38, 41
6, 95735, Note_on_c, 9, 38, 0
6, 95755, Note_on_c, 9, 44, 28
6, 95788, Note_on_c, 9, 44, 0
6, 95844, Note_on_c, 9, 38, 41
6, 95855, Note_on_c, 9, 38, 0
6, 95867, Note_on_c, 9, 44, 60
6, 95920, Note_on_c, 9, 44, 0
6, 95972, Note_on_c, 9, 38, 57
6, 95982, Note_on_c, 9, 38, 0
6, 95989, Note_on_c, 9, 44, 33
6, 96014, Note_on_c, 9, 38, 34
6, 96041, Note_on_c, 9, 38, 0
6, 96041, Note_on_c, 9, 44, 0
6, 96110, Note_on_c, 9, 44, 57
6, 96164, Note_on_c, 9, 44, 0
6, 96234, Note_on_c, 9, 44, 32
6, 96271, Note_on_c, 9, 44, 0
6, 96327, Note_on_c, 9, 38, 65
6, 96355, Note_on_c, 9, 44, 51
6, 96357, Note_on_c, 9, 38, 0
6, 96400, Note_on_c, 9, 44, 0
6, 96457, Note_on_c, 9, 38, 50
6, 96466, Note_on_c, 9, 38, 0
6, 96468, Note_on_c, 9, 44, 37
6, 96494, Note_on_c, 9, 38, 47
6, 96514, Note_on_c, 9, 44, 0
6, 96546, Note_on_c, 9, 38, 0
6, 96599, Note_on_c, 9, 44, 46
6, 96650, Note_on_c, 9, 44, 0
6, 96717, Note_on_c, 9, 44, 37
6, 96763, Note_on_c, 9, 44, 0
6, 96818, Note_on_c, 9, 38, 66
6, 96836, Note_on_c, 9, 44, 69
6, 96838, Note_on_c, 9, 38, 0
6, 96891, Note_on_c, 9, 44, 0
6, 96939, Note_on_c, 9, 38, 34
6, 96950, Note_on_c, 9, 38, 0
6, 96960, Note_on_c, 9, 44, 33
6, 97002, Note_on_c, 9, 44, 0
6, 97073, Note_on_c, 9, 44, 61
6, 97092, Note_on_c, 9, 38, 36
6, 97107, Note_on_c, 9, 38, 0
6, 97126, Note_on_c, 9, 44, 0
6, 97196, Note_on_c, 9, 44, 36
6, 97240, Note_on_c, 9, 44, 0
6, 97314, Note_on_c, 9, 44, 67
6, 97365, Note_on_c, 9, 44, 0
6, 97436, Note_on_c, 9, 38, 26
6, 97438, Note_on_c, 9, 44, 40
6, 97446, Note_on_c, 9, 38, 0
6, 97479, Note_on_c, 9, 44, 0
6, 97554, Note_on_c, 9, 44, 46
6, 97556, Note_on_c, 9, 38, 52
6, 97565, Note_on_c, 9, 38, 0
6, 97588, Note_on_c, 9, 38, 36
6, 97598, Note_on_c, 9, 38, 0
6, 97609, Note_on_c, 9, 44, 0
6, 97672, Note_on_c, 9, 44, 33
6, 97719, Note_on_c, 9, 44, 0
6, 97760, Note_on_c, 9, 36, 43
6, 97770, Note_on_c, 9, 36, 0
6, 97798, Note_on_c, 9, 44, 55
6, 97853, Note_on_c, 9, 44, 0
6, 97918, Note_on_c, 9, 44, 35
6, 97965, Note_on_c, 9, 44, 0
6, 98031, Note_on_c, 9, 44, 74
6, 98091, Note_on_c, 9, 44, 0
6, 98114, Note_on_c, 9, 38, 68
6, 98123, Note_on_c, 9, 38, 0
6, 98154, Note_on_c, 9, 44, 38
6, 98206, Note_on_c, 9, 44, 0
6, 98231, Note_on_c, 9, 38, 34
6, 98242, Note_on_c, 9, 38, 0
6, 98277, Note_on_c, 9, 44, 65
6, 98336, Note_on_c, 9, 44, 0
6, 98402, Note_on_c, 9, 44, 38
6, 98446, Note_on_c, 9, 44, 0
6, 98483, Note_on_c, 9, 38, 65
6, 98499, Note_on_c, 9, 38, 0
6, 98517, Note_on_c, 9, 44, 69
6, 98578, Note_on_c, 9, 44, 0
6, 98601, Note_on_c, 9, 38, 71
6, 98620, Note_on_c, 9, 38, 0
6, 98638, Note_on_c, 9, 44, 36
6, 98684, Note_on_c, 9, 44, 0
6, 98715, Note_on_c, 9, 38, 80
6, 98740, Note_on_c, 9, 38, 0
6, 98756, Note_on_c, 9, 44, 61
6, 98816, Note_on_c, 9, 44, 0
6, 98846, Note_on_c, 9, 38, 55
6, 98854, Note_on_c, 9, 38, 0
6, 98885, Note_on_c, 9, 38, 55
6, 98920, Note_on_c, 9, 38, 0
6, 98960, Note_on_c, 9, 36, 44
6, 98970, Note_on_c, 9, 36, 0
6, 99005, Note_on_c, 9, 46, 59
6, 99044, Note_on_c, 9, 46, 0
6, 99126, Note_on_c, 9, 38, 37
6, 99148, Note_on_c, 9, 38, 0
6, 99209, Note_on_c, 9, 38, 58
6, 99218, Note_on_c, 9, 38, 0
6, 99250, Note_on_c, 9, 46, 28
6, 99253, Note_on_c, 9, 36, 35
6, 99266, Note_on_c, 9, 36, 0
6, 99289, Note_on_c, 9, 46, 0
6, 99455, Note_on_c, 9, 38, 70
6, 99474, Note_on_c, 9, 38, 0
6, 99488, Note_on_c, 9, 46, 37
6, 99497, Note_on_c, 9, 36, 42
6, 99537, Note_on_c, 9, 46, 0
6, 99538, Note_on_c, 9, 36, 0
6, 99569, Note_on_c, 9, 36, 43
6, 99582, Note_on_c, 9, 36, 0
6, 99722, Note_on_c, 9, 46, 38
6, 99728, Note_on_c, 9, 38, 53
6, 99760, Note_on_c, 9, 46, 0
6, 99766, Note_on_c, 9, 38, 0
6, 99927, Note_on_c, 9, 38, 64
6, 99946, Note_on_c, 9, 38, 0
6, 99954, Note_on_c, 9, 46, 50
6, 99973, Note_on_c, 9, 36, 40
6, 99990, Note_on_c, 9, 36, 0
6, 99991, Note_on_c, 9, 46, 0
6, 100047, Note_on_c, 9, 36, 57
6, 100077, Note_on_c, 9, 36, 0
6, 100194, Note_on_c, 9, 46, 52
6, 100204, Note_on_c, 9, 38, 57
6, 100230, Note_on_c, 9, 46, 0
6, 100254, Note_on_c, 9, 38, 0
6, 100409, Note_on_c, 9, 36, 36
6, 100420, Note_on_c, 9, 36, 0
6, 100432, Note_on_c, 9, 46, 51
6, 100451, Note_on_c, 9, 38, 46
6, 100463, Note_on_c, 9, 38, 0
6, 100470, Note_on_c, 9, 46, 0
6, 100525, Note_on_c, 9, 38, 68
6, 100545, Note_on_c, 9, 38, 0
6, 100645, Note_on_c, 9, 36, 47
6, 100655, Note_on_c, 9, 36, 0
6, 100667, Note_on_c, 9, 46, 50
6, 100685, Note_on_c, 9, 38, 36
6, 100696, Note_on_c, 9, 38, 0
6, 100705, Note_on_c, 9, 46, 0
6, 100762, Note_on_c, 9, 38, 74
6, 100778, Note_on_c, 9, 38, 0
6, 100801, Note_on_c, 9, 38, 53
6, 100817, Note_on_c, 9, 38, 0
6, 100909, Note_on_c, 9, 44, 59
6, 100945, Note_on_c, 9, 44, 0
6, 101150, Note_on_c, 9, 44, 71
6, 101168, Note_on_c, 9, 38, 40
6, 101189, Note_on_c, 9, 44, 0
6, 101214, Note_on_c, 9, 38, 0
6, 101240, Note_on_c, 9, 38, 61
6, 101259, Note_on_c, 9, 38, 0
6, 101389, Note_on_c, 9, 44, 72
6, 101427, Note_on_c, 9, 44, 0
6, 101628, Note_on_c, 9, 44, 67
6, 101664, Note_on_c, 9, 44, 0
6, 101844, Note_on_c, 9, 38, 24
6, 101855, Note_on_c, 9, 38, 0
6, 101871, Note_on_c, 9, 44, 69
6, 101883, Note_on_c, 9, 37, 64
6, 101901, Note_on_c, 9, 44, 0
6, 101948, Note_on_c, 9, 37, 0
6, 102102, Note_on_c, 9, 44, 71
6, 102123, Note_on_c, 9, 37, 46
6, 102135, Note_on_c, 9, 44, 0
6, 102152, Note_on_c, 9, 37, 0
6, 102203, Note_on_c, 9, 38, 47
6, 102216, Note_on_c, 9, 38, 0
6, 102343, Note_on_c, 9, 44, 69
6, 102378, Note_on_c, 9, 44, 0
6, 102445, Note_on_c, 9, 38, 43
6, 102454, Note_on_c, 9, 38, 0
6, 102521, Note_on_c, 9, 38, 54
6, 102533, Note_on_c, 9, 38, 0
6, 102590, Note_on_c, 9, 44, 68
6, 102606, Note_on_c, 9, 38, 71
6, 102622, Note_on_c, 9, 44, 0
6, 102635, Note_on_c, 9, 38, 0
6, 102679, Note_on_c, 9, 38, 79
6, 102696, Note_on_c, 9, 38, 0
6, 102723, Note_on_c, 9, 36, 53
6, 102734, Note_on_c, 9, 36, 0
6, 102837, Note_on_c, 9, 44, 68
6, 102868, Note_on_c, 9, 44, 0
6, 103043, Note_on_c, 9, 38, 80
6, 103067, Note_on_c, 9, 38, 0
6, 103085, Note_on_c, 9, 44, 65
6, 103116, Note_on_c, 9, 44, 0
6, 103162, Note_on_c, 9, 38, 80
6, 103190, Note_on_c, 9, 38, 0
6, 103288, Note_on_c, 9, 38, 76
6, 103327, Note_on_c, 9, 44, 65
6, 103336, Note_on_c, 9, 38, 0
6, 103357, Note_on_c, 9, 44, 0
6, 103415, Note_on_c, 9, 36, 68
6, 103430, Note_on_c, 9, 36, 0
6, 103461, Note_on_c, 9, 38, 41
6, 103539, Note_on_c, 9, 38, 0
6, 103563, Note_on_c, 9, 44, 63
6, 103573, Note_on_c, 9, 38, 41
6, 103592, Note_on_c, 9, 44, 0
6, 103626, Note_on_c, 9, 38, 0
6, 103662, Note_on_c, 9, 38, 29
6, 103679, Note_on_c, 9, 38, 0
6, 103694, Note_on_c, 9, 38, 36
6, 103753, Note_on_c, 9, 38, 0
6, 103802, Note_on_c, 9, 44, 67
6, 103828, Note_on_c, 9, 44, 0
6, 103927, Note_on_c, 9, 38, 33
6, 103950, Note_on_c, 9, 38, 0
6, 104011, Note_on_c, 9, 38, 48
6, 104021, Note_on_c, 9, 38, 0
6, 104042, Note_on_c, 9, 44, 68
6, 104047, Note_on_c, 9, 38, 33
6, 104068, Note_on_c, 9, 44, 0
6, 104092, Note_on_c, 9, 38, 0
6, 104125, Note_on_c, 9, 36, 62
6, 104136, Note_on_c, 9, 36, 0
6, 104280, Note_on_c, 9, 44, 68
6, 104310, Note_on_c, 9, 44, 0
6, 104368, Note_on_c, 9, 38, 48
6, 104378, Note_on_c, 9, 38, 0
6, 104523, Note_on_c, 9, 44, 67
6, 104553, Note_on_c, 9, 44, 0
6, 104758, Note_on_c, 9, 44, 65
6, 104786, Note_on_c, 9, 44, 0
6, 104886, Note_on_c, 9, 38, 49
6, 104896, Note_on_c, 9, 38, 0
6, 104916, Note_on_c, 9, 38, 47
6, 104925, Note_on_c, 9, 38, 0
6, 105000, Note_on_c, 9, 44, 64
6, 105029, Note_on_c, 9, 44, 0
6, 105088, Note_on_c, 9, 38, 62
6, 105097, Note_on_c, 9, 38, 0
6, 105210, Note_on_c, 9, 38, 64
6, 105221, Note_on_c, 9, 38, 0
6, 105244, Note_on_c, 9, 44, 63
6, 105272, Note_on_c, 9, 44, 0
6, 105326, Note_on_c, 9, 38, 54
6, 105337, Note_on_c, 9, 38, 0
6, 105370, Note_on_c, 9, 38, 33
6, 105415, Note_on_c, 9, 38, 0
6, 105480, Note_on_c, 9, 44, 67
6, 105508, Note_on_c, 9, 44, 0
6, 105567, Note_on_c, 9, 38, 37
6, 105580, Note_on_c, 9, 38, 0
6, 105607, Note_on_c, 9, 38, 42
6, 105722, Note_on_c, 9, 38, 0
6, 105722, Note_on_c, 9, 44, 70
6, 105750, Note_on_c, 9, 44, 0
6, 105809, Note_on_c, 9, 38, 47
6, 105821, Note_on_c, 9, 38, 0
6, 105961, Note_on_c, 9, 44, 69
6, 105989, Note_on_c, 9, 44, 0
6, 106664, Note_on_c, 9, 57, 50
6, 106784, Note_on_c, 9, 57, 0
6, 106784, End_track
0, 0, End_of_file
