0, 0, Header, 1, 6, 384
1, 0, Start_track
1, 0, Title_t, "untitled"
1, 0, SMPTE_offset, 96, 0, 3, 0, 0
1, 0, MIDI_port, 1
1, 0, System_exclusive, 10, 67, 16, 42, 0, 0, 0, 44, 0, 32, 247
1, 0, MIDI_port, 1
1, 0, System_exclusive, 10, 67, 16, 42, 0, 0, 0, 54, 0, 19, 247
1, 0, MIDI_port, 15
1, 0, System_exclusive, 8, 67, 115, 1, 17, 15, 89, 0, 247
1, 0, MIDI_port, 0
1, 0, Time_signature, 4, 2, 24, 8
1, 0, Key_signature, 0, "major"
1, 0, Tempo, 461538
1, 0, Marker_t, "I Thought about You    played by Doug McKenzie"
1, 0, End_track
2, 0, Start_track
2, 0, MIDI_port, 0
2, 0, Title_t, "I Thought About You"
2, 0, Program_c, 0, 0
2, 0, Control_c, 0, 7, 114
2, 0, Control_c, 0, 11, 127
2, 0, Control_c, 0, 64, 0
2, 0, Control_c, 0, 67, 0
2, 0, Pitch_bend_c, 0, 8192
2, 656, Note_on_c, 0, 72, 74
2, 736, Note_on_c, 0, 72, 0
2, 784, Note_on_c, 0, 75, 57
2, 864, Note_on_c, 0, 75, 0
2, 896, Note_on_c, 0, 76, 58
2, 952, Note_on_c, 0, 76, 0
2, 1008, Note_on_c, 0, 79, 74
2, 1096, Note_on_c, 0, 79, 0
2, 1152, Note_on_c, 0, 81, 67
2, 1240, Note_on_c, 0, 81, 0
2, 1408, Note_on_c, 0, 79, 45
2, 1488, Note_on_c, 0, 79, 0
2, 1544, Note_on_c, 0, 84, 66
2, 1552, Note_on_c, 0, 62, 52
2, 1552, Note_on_c, 0, 58, 34
2, 1560, Note_on_c, 0, 57, 45
2, 1592, Note_on_c, 0, 52, 22
2, 1880, Control_c, 0, 64, 127
2, 1944, Note_on_c, 0, 52, 0
2, 1968, Note_on_c, 0, 57, 0
2, 1984, Note_on_c, 0, 58, 0
2, 1984, Note_on_c, 0, 62, 0
2, 2016, Note_on_c, 0, 84, 0
2, 2272, Control_c, 0, 64, 0
2, 2304, Note_on_c, 0, 57, 48
2, 2312, Note_on_c, 0, 95, 64
2, 2312, Note_on_c, 0, 63, 44
2, 2312, Note_on_c, 0, 68, 35
2, 2320, Note_on_c, 0, 83, 48
2, 2320, Note_on_c, 0, 61, 37
2, 2344, Control_c, 0, 64, 127
2, 2416, Note_on_c, 0, 83, 0
2, 2432, Note_on_c, 0, 57, 0
2, 2440, Note_on_c, 0, 68, 0
2, 2440, Note_on_c, 0, 95, 0
2, 2440, Note_on_c, 0, 61, 0
2, 2448, Note_on_c, 0, 63, 0
2, 2560, Note_on_c, 0, 68, 69
2, 2560, Note_on_c, 0, 63, 58
2, 2568, Note_on_c, 0, 85, 82
2, 2568, Note_on_c, 0, 97, 77
2, 2568, Note_on_c, 0, 61, 44
2, 2568, Note_on_c, 0, 57, 54
2, 2600, Note_on_c, 0, 57, 0
2, 2600, Note_on_c, 0, 68, 0
2, 2600, Note_on_c, 0, 61, 0
2, 2624, Note_on_c, 0, 63, 0
2, 2640, Note_on_c, 0, 85, 0
2, 2640, Note_on_c, 0, 97, 0
2, 2672, Control_c, 0, 64, 0
2, 2696, Note_on_c, 0, 63, 37
2, 2696, Note_on_c, 0, 68, 52
2, 2696, Note_on_c, 0, 57, 48
2, 2712, Note_on_c, 0, 61, 44
2, 2712, Note_on_c, 0, 95, 60
2, 2728, Note_on_c, 0, 83, 46
2, 2728, Control_c, 0, 64, 127
2, 2792, Note_on_c, 0, 95, 0
2, 2824, Note_on_c, 0, 83, 0
2, 2832, Note_on_c, 0, 57, 0
2, 2864, Note_on_c, 0, 68, 0
2, 2880, Note_on_c, 0, 63, 0
2, 2896, Note_on_c, 0, 61, 0
2, 2952, Note_on_c, 0, 56, 60
2, 2960, Note_on_c, 0, 67, 62
2, 2960, Note_on_c, 0, 62, 64
2, 2960, Note_on_c, 0, 94, 63
2, 2960, Note_on_c, 0, 82, 52
2, 2968, Note_on_c, 0, 89, 62
2, 2984, Control_c, 0, 64, 0
2, 3072, Control_c, 0, 64, 127
2, 3136, Note_on_c, 0, 89, 0
2, 3144, Note_on_c, 0, 82, 0
2, 3160, Note_on_c, 0, 67, 0
2, 3160, Note_on_c, 0, 94, 0
2, 3176, Note_on_c, 0, 62, 0
2, 3208, Note_on_c, 0, 56, 0
2, 3336, Note_on_c, 0, 56, 73
2, 3344, Note_on_c, 0, 67, 82
2, 3344, Note_on_c, 0, 62, 74
2, 3344, Note_on_c, 0, 96, 83
2, 3352, Note_on_c, 0, 84, 70
2, 3368, Control_c, 0, 64, 0
2, 3400, Note_on_c, 0, 67, 0
2, 3408, Note_on_c, 0, 96, 0
2, 3408, Note_on_c, 0, 84, 0
2, 3432, Note_on_c, 0, 62, 0
2, 3464, Note_on_c, 0, 56, 0
2, 3712, Note_on_c, 0, 93, 70
2, 3728, Note_on_c, 0, 85, 64
2, 3728, Note_on_c, 0, 61, 67
2, 3728, Note_on_c, 0, 66, 79
2, 3728, Note_on_c, 0, 81, 66
2, 3736, Note_on_c, 0, 55, 75
2, 3848, Control_c, 0, 64, 127
2, 4008, Note_on_c, 0, 93, 0
2, 4040, Note_on_c, 0, 81, 0
2, 4104, Note_on_c, 0, 85, 0
2, 4248, Note_on_c, 0, 81, 33
2, 4248, Control_c, 0, 64, 0
2, 4272, Note_on_c, 0, 81, 0
2, 4272, Note_on_c, 0, 66, 0
2, 4296, Note_on_c, 0, 55, 0
2, 4360, Note_on_c, 0, 84, 54
2, 4384, Note_on_c, 0, 84, 0
2, 4464, Note_on_c, 0, 61, 0
2, 4480, Note_on_c, 0, 88, 90
2, 4568, Note_on_c, 0, 88, 0
2, 4592, Note_on_c, 0, 64, 34
2, 4600, Note_on_c, 0, 60, 40
2, 4600, Note_on_c, 0, 57, 40
2, 4616, Note_on_c, 0, 53, 33
2, 4616, Note_on_c, 0, 89, 64
2, 4680, Note_on_c, 0, 89, 0
2, 4752, Note_on_c, 0, 88, 50
2, 4808, Note_on_c, 0, 88, 0
2, 4856, Note_on_c, 0, 89, 71
2, 4944, Note_on_c, 0, 89, 0
2, 4976, Note_on_c, 0, 64, 0
2, 5000, Note_on_c, 0, 88, 38
2, 5016, Note_on_c, 0, 60, 0
2, 5040, Note_on_c, 0, 88, 0
2, 5128, Note_on_c, 0, 89, 63
2, 5192, Note_on_c, 0, 89, 0
2, 5272, Note_on_c, 0, 88, 40
2, 5344, Note_on_c, 0, 88, 0
2, 5376, Note_on_c, 0, 64, 42
2, 5384, Note_on_c, 0, 89, 74
2, 5392, Note_on_c, 0, 60, 39
2, 5416, Note_on_c, 0, 64, 0
2, 5424, Note_on_c, 0, 60, 0
2, 5448, Note_on_c, 0, 89, 0
2, 5512, Note_on_c, 0, 88, 43
2, 5568, Note_on_c, 0, 88, 0
2, 5632, Note_on_c, 0, 89, 82
2, 5640, Control_c, 0, 64, 127
2, 5656, Note_on_c, 0, 64, 45
2, 5664, Note_on_c, 0, 60, 44
2, 5704, Note_on_c, 0, 64, 0
2, 5704, Note_on_c, 0, 89, 0
2, 5712, Note_on_c, 0, 60, 0
2, 5736, Control_c, 0, 64, 0
2, 5768, Note_on_c, 0, 88, 46
2, 5808, Note_on_c, 0, 53, 0
2, 5816, Note_on_c, 0, 88, 0
2, 5864, Note_on_c, 0, 57, 0
2, 5872, Note_on_c, 0, 89, 74
2, 5952, Note_on_c, 0, 89, 0
2, 5992, Note_on_c, 0, 53, 53
2, 5992, Control_c, 0, 64, 127
2, 5992, Note_on_c, 0, 88, 71
2, 6040, Note_on_c, 0, 88, 0
2, 6048, Note_on_c, 0, 53, 0
2, 6112, Control_c, 0, 64, 0
2, 6152, Note_on_c, 0, 54, 50
2, 6168, Note_on_c, 0, 90, 38
2, 6192, Note_on_c, 0, 90, 0
2, 6224, Note_on_c, 0, 91, 57
2, 6240, Note_on_c, 0, 54, 0
2, 6272, Note_on_c, 0, 90, 52
2, 6304, Note_on_c, 0, 91, 0
2, 6352, Note_on_c, 0, 90, 0
2, 6352, Note_on_c, 0, 87, 36
2, 6408, Note_on_c, 0, 51, 33
2, 6424, Note_on_c, 0, 84, 64
2, 6448, Note_on_c, 0, 87, 0
2, 6472, Note_on_c, 0, 84, 0
2, 6480, Note_on_c, 0, 51, 0
2, 6512, Note_on_c, 0, 54, 68
2, 6528, Note_on_c, 0, 90, 81
2, 6728, Note_on_c, 0, 54, 0
2, 6744, Note_on_c, 0, 90, 0
2, 6768, Note_on_c, 0, 51, 38
2, 6768, Note_on_c, 0, 84, 51
2, 6792, Note_on_c, 0, 84, 0
2, 6848, Note_on_c, 0, 51, 0
2, 6896, Note_on_c, 0, 89, 74
2, 6896, Note_on_c, 0, 88, 78
2, 6896, Note_on_c, 0, 53, 63
2, 7040, Note_on_c, 0, 88, 0
2, 7064, Note_on_c, 0, 89, 0
2, 7112, Note_on_c, 0, 53, 0
2, 7112, Control_c, 0, 64, 127
2, 7120, Note_on_c, 0, 87, 79
2, 7144, Note_on_c, 0, 51, 64
2, 7200, Note_on_c, 0, 51, 0
2, 7200, Control_c, 0, 64, 0
2, 7224, Note_on_c, 0, 87, 0
2, 7248, Control_c, 0, 64, 127
2, 7272, Note_on_c, 0, 84, 66
2, 7360, Note_on_c, 0, 84, 0
2, 7384, Note_on_c, 0, 79, 56
2, 7440, Note_on_c, 0, 79, 0
2, 7496, Note_on_c, 0, 77, 55
2, 7552, Note_on_c, 0, 77, 0
2, 7624, Note_on_c, 0, 75, 61
2, 7624, Control_c, 0, 64, 0
2, 7640, Note_on_c, 0, 62, 35
2, 7648, Note_on_c, 0, 57, 26
2, 7656, Note_on_c, 0, 52, 40
2, 7680, Note_on_c, 0, 75, 0
2, 7712, Note_on_c, 0, 76, 44
2, 7896, Control_c, 0, 64, 127
2, 7896, Note_on_c, 0, 72, 53
2, 7912, Control_c, 0, 64, 0
2, 7936, Note_on_c, 0, 76, 0
2, 8024, Control_c, 0, 64, 127
2, 8048, Note_on_c, 0, 57, 0
2, 8080, Note_on_c, 0, 52, 0
2, 8096, Note_on_c, 0, 62, 0
2, 8152, Note_on_c, 0, 72, 0
2, 8328, Note_on_c, 0, 79, 57
2, 8440, Note_on_c, 0, 79, 0
2, 8480, Note_on_c, 0, 83, 64
2, 8488, Control_c, 0, 64, 0
2, 8664, Note_on_c, 0, 83, 0
2, 8704, Note_on_c, 0, 68, 56
2, 8712, Note_on_c, 0, 82, 58
2, 8712, Note_on_c, 0, 63, 45
2, 8712, Note_on_c, 0, 57, 44
2, 8720, Note_on_c, 0, 61, 36
2, 8776, Note_on_c, 0, 82, 0
2, 8872, Note_on_c, 0, 81, 44
2, 8904, Note_on_c, 0, 81, 0
2, 9000, Note_on_c, 0, 57, 0
2, 9056, Note_on_c, 0, 68, 0
2, 9056, Note_on_c, 0, 61, 0
2, 9088, Note_on_c, 0, 63, 0
2, 9096, Note_on_c, 0, 76, 78
2, 9104, Note_on_c, 0, 67, 64
2, 9104, Note_on_c, 0, 56, 51
2, 9112, Note_on_c, 0, 62, 52
2, 9464, Control_c, 0, 64, 127
2, 9648, Note_on_c, 0, 67, 0
2, 9664, Note_on_c, 0, 62, 0
2, 9800, Note_on_c, 0, 56, 0
2, 9904, Note_on_c, 0, 76, 0
2, 9984, Control_c, 0, 64, 0
2, 10000, Note_on_c, 0, 61, 40
2, 10000, Note_on_c, 0, 55, 45
2, 10000, Note_on_c, 0, 65, 31
2, 10032, Note_on_c, 0, 65, 0
2, 10032, Note_on_c, 0, 55, 0
2, 10056, Note_on_c, 0, 61, 0
2, 10256, Note_on_c, 0, 72, 60
2, 10288, Note_on_c, 0, 72, 0
2, 10376, Note_on_c, 0, 74, 76
2, 10416, Note_on_c, 0, 75, 28
2, 10472, Note_on_c, 0, 74, 0
2, 10496, Note_on_c, 0, 75, 0
2, 10648, Note_on_c, 0, 81, 68
2, 10648, Note_on_c, 0, 74, 87
2, 10712, Note_on_c, 0, 74, 0
2, 10752, Note_on_c, 0, 81, 0
2, 10752, Note_on_c, 0, 60, 24
2, 10816, Note_on_c, 0, 74, 53
2, 10888, Note_on_c, 0, 60, 0
2, 10888, Note_on_c, 0, 75, 39
2, 10904, Note_on_c, 0, 81, 8
2, 10928, Note_on_c, 0, 74, 0
2, 10952, Note_on_c, 0, 76, 50
2, 10960, Note_on_c, 0, 75, 0
2, 10984, Note_on_c, 0, 76, 0
2, 11000, Note_on_c, 0, 81, 0
2, 11000, Note_on_c, 0, 74, 29
2, 11064, Note_on_c, 0, 74, 0
2, 11064, Note_on_c, 0, 72, 51
2, 11088, Note_on_c, 0, 60, 20
2, 11104, Note_on_c, 0, 72, 0
2, 11152, Note_on_c, 0, 81, 57
2, 11152, Note_on_c, 0, 74, 41
2, 11176, Note_on_c, 0, 60, 0
2, 11376, Note_on_c, 0, 74, 0
2, 11400, Note_on_c, 0, 69, 48
2, 11440, Note_on_c, 0, 69, 0
2, 11448, Note_on_c, 0, 81, 0
2, 11520, Note_on_c, 0, 81, 36
2, 11536, Note_on_c, 0, 72, 43
2, 11744, Note_on_c, 0, 72, 0
2, 11760, Note_on_c, 0, 81, 0
2, 11816, Note_on_c, 0, 72, 64
2, 11816, Note_on_c, 0, 81, 60
2, 11840, Note_on_c, 0, 81, 0
2, 11840, Note_on_c, 0, 72, 0
2, 12272, Note_on_c, 0, 54, 55
2, 12280, Note_on_c, 0, 60, 54
2, 12280, Note_on_c, 0, 64, 41
2, 12328, Note_on_c, 0, 64, 0
2, 12344, Note_on_c, 0, 60, 0
2, 12360, Note_on_c, 0, 54, 0
2, 13032, Note_on_c, 0, 64, 38
2, 13032, Note_on_c, 0, 54, 35
2, 13040, Note_on_c, 0, 60, 45
2, 13296, Note_on_c, 0, 69, 61
2, 13320, Note_on_c, 0, 69, 0
2, 13432, Note_on_c, 0, 72, 38
2, 13464, Note_on_c, 0, 72, 0
2, 13488, Note_on_c, 0, 54, 0
2, 13488, Note_on_c, 0, 64, 0
2, 13512, Note_on_c, 0, 60, 0
2, 13560, Note_on_c, 0, 76, 73
2, 13632, Note_on_c, 0, 76, 0
2, 13672, Note_on_c, 0, 79, 85
2, 13768, Note_on_c, 0, 79, 0
2, 13776, Note_on_c, 0, 64, 29
2, 13776, Note_on_c, 0, 60, 36
2, 13776, Note_on_c, 0, 53, 35
2, 13784, Note_on_c, 0, 57, 38
2, 13808, Note_on_c, 0, 76, 64
2, 14064, Note_on_c, 0, 76, 0
2, 14200, Note_on_c, 0, 68, 46
2, 14216, Note_on_c, 0, 64, 0
2, 14280, Note_on_c, 0, 60, 0
2, 14304, Note_on_c, 0, 68, 0
2, 14312, Note_on_c, 0, 57, 0
2, 14328, Note_on_c, 0, 69, 36
2, 14376, Note_on_c, 0, 69, 0
2, 14432, Note_on_c, 0, 72, 60
2, 14520, Note_on_c, 0, 72, 0
2, 14560, Note_on_c, 0, 53, 0
2, 14840, Note_on_c, 0, 79, 84
2, 14840, Note_on_c, 0, 75, 80
2, 14848, Note_on_c, 0, 78, 58
2, 14904, Note_on_c, 0, 75, 0
2, 14904, Note_on_c, 0, 76, 46
2, 14936, Note_on_c, 0, 78, 0
2, 14984, Note_on_c, 0, 79, 0
2, 14992, Note_on_c, 0, 76, 0
2, 15096, Note_on_c, 0, 75, 77
2, 15096, Note_on_c, 0, 78, 60
2, 15160, Note_on_c, 0, 78, 0
2, 15176, Note_on_c, 0, 75, 0
2, 15224, Note_on_c, 0, 77, 74
2, 15240, Note_on_c, 0, 74, 54
2, 15264, Note_on_c, 0, 74, 0
2, 15296, Note_on_c, 0, 77, 0
2, 15600, Note_on_c, 0, 57, 64
2, 15608, Note_on_c, 0, 69, 68
2, 15608, Note_on_c, 0, 76, 71
2, 15608, Note_on_c, 0, 47, 58
2, 15608, Note_on_c, 0, 74, 66
2, 15728, Note_on_c, 0, 74, 0
2, 15728, Note_on_c, 0, 76, 0
2, 15744, Control_c, 0, 64, 127
2, 15752, Note_on_c, 0, 69, 0
2, 15872, Note_on_c, 0, 47, 0
2, 15896, Note_on_c, 0, 57, 0
2, 15912, Note_on_c, 0, 64, 62
2, 15936, Note_on_c, 0, 64, 0
2, 16032, Note_on_c, 0, 69, 71
2, 16096, Note_on_c, 0, 69, 0
2, 16120, Control_c, 0, 64, 0
2, 16160, Note_on_c, 0, 56, 51
2, 16160, Note_on_c, 0, 72, 71
2, 16168, Note_on_c, 0, 62, 36
2, 16184, Note_on_c, 0, 67, 61
2, 16208, Control_c, 0, 64, 127
2, 16240, Note_on_c, 0, 67, 0
2, 16264, Note_on_c, 0, 72, 0
2, 16288, Note_on_c, 0, 56, 0
2, 16288, Note_on_c, 0, 67, 63
2, 16312, Note_on_c, 0, 62, 0
2, 16320, Note_on_c, 0, 67, 0
2, 16416, Note_on_c, 0, 72, 74
2, 16416, Note_on_c, 0, 79, 80
2, 16424, Note_on_c, 0, 56, 50
2, 16424, Note_on_c, 0, 62, 42
2, 16424, Note_on_c, 0, 67, 66
2, 16432, Control_c, 0, 64, 0
2, 16536, Control_c, 0, 64, 127
2, 16568, Note_on_c, 0, 67, 0
2, 16584, Note_on_c, 0, 72, 0
2, 16592, Note_on_c, 0, 79, 0
2, 16616, Note_on_c, 0, 56, 0
2, 16640, Note_on_c, 0, 62, 0
2, 16664, Note_on_c, 0, 62, 37
2, 16672, Note_on_c, 0, 83, 80
2, 16672, Note_on_c, 0, 56, 61
2, 16680, Note_on_c, 0, 71, 45
2, 16696, Note_on_c, 0, 72, 31
2, 16720, Note_on_c, 0, 72, 0
2, 16760, Note_on_c, 0, 62, 0
2, 16816, Note_on_c, 0, 71, 0
2, 16824, Note_on_c, 0, 83, 0
2, 16840, Note_on_c, 0, 56, 0
2, 16888, Control_c, 0, 64, 0
2, 16904, Note_on_c, 0, 64, 57
2, 16912, Note_on_c, 0, 59, 50
2, 16920, Note_on_c, 0, 60, 54
2, 16928, Note_on_c, 0, 55, 44
2, 17272, Control_c, 0, 64, 127
2, 17360, Note_on_c, 0, 59, 0
2, 17456, Note_on_c, 0, 55, 0
2, 17560, Note_on_c, 0, 64, 0
2, 17568, Note_on_c, 0, 60, 0
2, 17640, Control_c, 0, 64, 0
2, 17664, Note_on_c, 0, 56, 50
2, 17664, Note_on_c, 0, 64, 47
2, 17672, Note_on_c, 0, 60, 40
2, 17928, Note_on_c, 0, 91, 89
2, 18032, Note_on_c, 0, 91, 0
2, 18048, Note_on_c, 0, 87, 67
2, 18064, Note_on_c, 0, 60, 0
2, 18072, Control_c, 0, 64, 127
2, 18080, Control_c, 0, 64, 0
2, 18112, Note_on_c, 0, 64, 0
2, 18192, Note_on_c, 0, 88, 53
2, 18200, Note_on_c, 0, 87, 0
2, 18232, Note_on_c, 0, 56, 0
2, 18248, Note_on_c, 0, 88, 0
2, 18296, Note_on_c, 0, 91, 90
2, 18392, Note_on_c, 0, 58, 26
2, 18392, Note_on_c, 0, 62, 32
2, 18400, Note_on_c, 0, 57, 31
2, 18416, Note_on_c, 0, 86, 54
2, 18440, Note_on_c, 0, 52, 27
2, 18472, Note_on_c, 0, 91, 0
2, 18488, Note_on_c, 0, 87, 46
2, 18496, Note_on_c, 0, 52, 0
2, 18504, Note_on_c, 0, 86, 0
2, 18552, Note_on_c, 0, 87, 0
2, 18584, Note_on_c, 0, 86, 31
2, 18608, Note_on_c, 0, 58, 0
2, 18640, Note_on_c, 0, 62, 0
2, 18656, Note_on_c, 0, 52, 1
2, 18688, Note_on_c, 0, 86, 0
2, 18688, Control_c, 0, 64, 127
2, 18696, Note_on_c, 0, 84, 61
2, 18744, Note_on_c, 0, 84, 0
2, 18752, Control_c, 0, 64, 0
2, 18776, Note_on_c, 0, 62, 50
2, 18800, Note_on_c, 0, 86, 75
2, 18800, Note_on_c, 0, 58, 20
2, 18872, Note_on_c, 0, 57, 0
2, 18944, Note_on_c, 0, 52, 0
2, 18952, Note_on_c, 0, 62, 0
2, 18968, Note_on_c, 0, 58, 0
2, 19016, Control_c, 0, 64, 127
2, 19040, Note_on_c, 0, 86, 0
2, 19080, Note_on_c, 0, 83, 29
2, 19112, Note_on_c, 0, 83, 0
2, 19144, Control_c, 0, 64, 0
2, 19168, Note_on_c, 0, 58, 28
2, 19168, Note_on_c, 0, 62, 33
2, 19192, Note_on_c, 0, 84, 64
2, 19256, Note_on_c, 0, 52, 7
2, 19264, Control_c, 0, 64, 127
2, 19344, Note_on_c, 0, 62, 0
2, 19344, Note_on_c, 0, 58, 0
2, 19376, Note_on_c, 0, 52, 0
2, 19448, Note_on_c, 0, 52, 60
2, 19448, Note_on_c, 0, 79, 60
2, 19448, Note_on_c, 0, 58, 33
2, 19448, Note_on_c, 0, 62, 35
2, 19520, Control_c, 0, 64, 0
2, 19552, Note_on_c, 0, 84, 0
2, 19560, Note_on_c, 0, 79, 0
2, 19608, Note_on_c, 0, 76, 29
2, 19640, Control_c, 0, 64, 127
2, 19648, Note_on_c, 0, 52, 0
2, 19680, Note_on_c, 0, 58, 0
2, 19768, Note_on_c, 0, 62, 0
2, 19776, Note_on_c, 0, 76, 0
2, 19832, Note_on_c, 0, 64, 49
2, 19832, Note_on_c, 0, 72, 66
2, 19840, Note_on_c, 0, 57, 51
2, 19840, Note_on_c, 0, 60, 46
2, 19856, Control_c, 0, 64, 0
2, 19864, Note_on_c, 0, 53, 32
2, 19872, Note_on_c, 0, 64, 0
2, 19880, Note_on_c, 0, 60, 0
2, 19896, Note_on_c, 0, 53, 0
2, 19912, Note_on_c, 0, 57, 0
2, 19968, Note_on_c, 0, 72, 0
2, 20008, Note_on_c, 0, 69, 40
2, 20208, Note_on_c, 0, 69, 0
2, 20232, Note_on_c, 0, 81, 78
2, 20320, Note_on_c, 0, 81, 0
2, 20368, Note_on_c, 0, 79, 44
2, 20560, Note_on_c, 0, 79, 0
2, 20592, Note_on_c, 0, 64, 71
2, 20600, Note_on_c, 0, 53, 48
2, 20600, Note_on_c, 0, 60, 57
2, 20608, Note_on_c, 0, 57, 54
2, 20608, Note_on_c, 0, 81, 74
2, 20608, Note_on_c, 0, 69, 66
2, 20616, Note_on_c, 0, 64, 0
2, 20624, Note_on_c, 0, 53, 0
2, 20632, Note_on_c, 0, 60, 0
2, 20648, Note_on_c, 0, 57, 0
2, 20712, Note_on_c, 0, 81, 0
2, 20736, Note_on_c, 0, 69, 0
2, 20768, Note_on_c, 0, 79, 46
2, 21096, Note_on_c, 0, 79, 0
2, 21136, Note_on_c, 0, 77, 50
2, 21368, Note_on_c, 0, 64, 85
2, 21376, Note_on_c, 0, 60, 75
2, 21376, Note_on_c, 0, 56, 57
2, 21376, Note_on_c, 0, 53, 71
2, 21384, Note_on_c, 0, 77, 0
2, 21392, Note_on_c, 0, 64, 0
2, 21400, Note_on_c, 0, 53, 0
2, 21400, Note_on_c, 0, 60, 0
2, 21432, Note_on_c, 0, 56, 0
2, 21512, Note_on_c, 0, 80, 48
2, 21520, Note_on_c, 0, 68, 32
2, 21720, Note_on_c, 0, 68, 0
2, 21744, Note_on_c, 0, 80, 0
2, 21792, Note_on_c, 0, 79, 28
2, 21832, Note_on_c, 0, 79, 0
2, 21888, Note_on_c, 0, 80, 72
2, 21896, Note_on_c, 0, 68, 60
2, 22152, Note_on_c, 0, 60, 81
2, 22152, Note_on_c, 0, 56, 63
2, 22152, Note_on_c, 0, 64, 88
2, 22152, Note_on_c, 0, 53, 68
2, 22184, Note_on_c, 0, 53, 0
2, 22184, Note_on_c, 0, 64, 0
2, 22192, Note_on_c, 0, 80, 0
2, 22200, Note_on_c, 0, 60, 0
2, 22216, Note_on_c, 0, 68, 0
2, 22224, Note_on_c, 0, 56, 0
2, 22288, Note_on_c, 0, 79, 53
2, 22288, Note_on_c, 0, 67, 41
2, 22448, Note_on_c, 0, 79, 0
2, 22464, Note_on_c, 0, 67, 0
2, 22520, Note_on_c, 0, 79, 62
2, 22616, Note_on_c, 0, 79, 0
2, 22664, Note_on_c, 0, 77, 44
2, 22824, Note_on_c, 0, 77, 0
2, 22904, Note_on_c, 0, 59, 55
2, 22904, Note_on_c, 0, 77, 53
2, 22904, Note_on_c, 0, 62, 61
2, 22920, Note_on_c, 0, 55, 52
2, 22928, Note_on_c, 0, 62, 0
2, 22968, Note_on_c, 0, 59, 0
2, 22992, Note_on_c, 0, 55, 0
2, 23000, Note_on_c, 0, 77, 0
2, 23056, Note_on_c, 0, 76, 36
2, 23264, Note_on_c, 0, 76, 0
2, 23288, Note_on_c, 0, 79, 55
2, 23360, Note_on_c, 0, 79, 0
2, 23416, Note_on_c, 0, 81, 74
2, 23664, Note_on_c, 0, 81, 0
2, 23680, Note_on_c, 0, 55, 82
2, 23688, Note_on_c, 0, 54, 49
2, 23704, Note_on_c, 0, 55, 0
2, 23712, Note_on_c, 0, 54, 0
2, 23800, Note_on_c, 0, 79, 68
2, 24104, Note_on_c, 0, 79, 0
2, 24184, Note_on_c, 0, 79, 68
2, 24448, Note_on_c, 0, 60, 62
2, 24448, Note_on_c, 0, 65, 67
2, 24448, Note_on_c, 0, 55, 61
2, 24472, Note_on_c, 0, 55, 0
2, 24472, Note_on_c, 0, 65, 0
2, 24504, Note_on_c, 0, 60, 0
2, 24680, Note_on_c, 0, 67, 84
2, 24680, Note_on_c, 0, 62, 73
2, 24680, Note_on_c, 0, 57, 73
2, 24808, Note_on_c, 0, 67, 0
2, 24816, Note_on_c, 0, 57, 0
2, 24832, Note_on_c, 0, 62, 0
2, 24936, Note_on_c, 0, 67, 75
2, 24936, Note_on_c, 0, 57, 73
2, 24936, Note_on_c, 0, 62, 69
2, 25032, Control_c, 0, 64, 127
2, 25096, Note_on_c, 0, 62, 0
2, 25112, Note_on_c, 0, 67, 0
2, 25136, Note_on_c, 0, 57, 0
2, 25552, Note_on_c, 0, 62, 69
2, 25560, Note_on_c, 0, 52, 64
2, 25560, Note_on_c, 0, 57, 64
2, 25568, Control_c, 0, 64, 0
2, 25608, Note_on_c, 0, 62, 0
2, 25640, Control_c, 0, 64, 127
2, 25648, Note_on_c, 0, 57, 0
2, 25648, Note_on_c, 0, 52, 0
2, 25792, Note_on_c, 0, 79, 0
2, 25944, Note_on_c, 0, 83, 105
2, 25952, Note_on_c, 0, 60, 74
2, 25952, Note_on_c, 0, 54, 67
2, 25952, Note_on_c, 0, 64, 80
2, 25952, Note_on_c, 0, 57, 62
2, 25976, Control_c, 0, 64, 0
2, 26088, Control_c, 0, 64, 127
2, 26240, Note_on_c, 0, 64, 0
2, 26272, Note_on_c, 0, 54, 0
2, 26272, Note_on_c, 0, 57, 0
2, 26272, Note_on_c, 0, 60, 0
2, 26320, Note_on_c, 0, 83, 0
2, 26360, Note_on_c, 0, 84, 79
2, 26376, Note_on_c, 0, 60, 66
2, 26376, Note_on_c, 0, 57, 50
2, 26376, Note_on_c, 0, 64, 67
2, 26384, Note_on_c, 0, 54, 46
2, 26408, Note_on_c, 0, 64, 0
2, 26448, Note_on_c, 0, 84, 0
2, 26456, Control_c, 0, 64, 0
2, 26488, Note_on_c, 0, 64, 18
2, 26520, Note_on_c, 0, 83, 54
2, 26544, Note_on_c, 0, 60, 0
2, 26632, Note_on_c, 0, 64, 0
2, 26640, Note_on_c, 0, 57, 0
2, 26688, Note_on_c, 0, 83, 0
2, 26696, Note_on_c, 0, 54, 0
2, 26744, Note_on_c, 0, 79, 81
2, 26752, Note_on_c, 0, 62, 65
2, 26760, Note_on_c, 0, 57, 66
2, 26768, Note_on_c, 0, 51, 53
2, 27016, Note_on_c, 0, 79, 0
2, 27032, Note_on_c, 0, 83, 56
2, 27080, Control_c, 0, 64, 127
2, 27088, Note_on_c, 0, 79, 42
2, 27176, Note_on_c, 0, 72, 54
2, 27184, Note_on_c, 0, 79, 0
2, 27192, Note_on_c, 0, 83, 0
2, 27192, Control_c, 0, 64, 0
2, 27240, Note_on_c, 0, 72, 0
2, 27288, Note_on_c, 0, 57, 0
2, 27288, Note_on_c, 0, 78, 60
2, 27304, Note_on_c, 0, 51, 0
2, 27320, Control_c, 0, 64, 127
2, 27344, Note_on_c, 0, 62, 0
2, 27480, Note_on_c, 0, 78, 0
2, 27520, Note_on_c, 0, 79, 68
2, 27528, Control_c, 0, 64, 0
2, 27560, Note_on_c, 0, 79, 0
2, 27760, Note_on_c, 0, 84, 80
2, 27776, Note_on_c, 0, 64, 60
2, 27776, Note_on_c, 0, 54, 64
2, 27784, Note_on_c, 0, 60, 55
2, 27904, Note_on_c, 0, 64, 0
2, 27936, Note_on_c, 0, 54, 0
2, 27944, Note_on_c, 0, 60, 0
2, 27960, Note_on_c, 0, 84, 0
2, 28032, Note_on_c, 0, 54, 64
2, 28032, Note_on_c, 0, 64, 62
2, 28032, Note_on_c, 0, 60, 53
2, 28032, Note_on_c, 0, 83, 66
2, 28056, Note_on_c, 0, 60, 0
2, 28056, Note_on_c, 0, 64, 0
2, 28064, Control_c, 0, 64, 127
2, 28104, Note_on_c, 0, 54, 0
2, 28120, Note_on_c, 0, 83, 0
2, 28272, Control_c, 0, 64, 0
2, 28288, Note_on_c, 0, 76, 65
2, 28288, Note_on_c, 0, 74, 63
2, 28288, Note_on_c, 0, 81, 59
2, 28288, Note_on_c, 0, 51, 67
2, 28288, Note_on_c, 0, 62, 67
2, 28288, Note_on_c, 0, 57, 62
2, 28392, Note_on_c, 0, 74, 0
2, 28432, Control_c, 0, 64, 127
2, 28640, Note_on_c, 0, 62, 0
2, 28656, Note_on_c, 0, 51, 0
2, 28664, Note_on_c, 0, 76, 0
2, 28664, Note_on_c, 0, 57, 0
2, 28720, Note_on_c, 0, 81, 0
2, 28744, Control_c, 0, 64, 0
2, 28792, Note_on_c, 0, 57, 52
2, 28792, Note_on_c, 0, 51, 53
2, 28800, Note_on_c, 0, 79, 46
2, 28800, Note_on_c, 0, 62, 49
2, 28800, Note_on_c, 0, 76, 50
2, 28816, Control_c, 0, 64, 127
2, 28832, Note_on_c, 0, 76, 0
2, 28832, Note_on_c, 0, 79, 0
2, 28848, Note_on_c, 0, 57, 0
2, 28888, Note_on_c, 0, 51, 0
2, 28912, Note_on_c, 0, 62, 0
2, 29096, Control_c, 0, 64, 0
2, 29176, Control_c, 0, 64, 127
2, 29176, Note_on_c, 0, 62, 47
2, 29184, Note_on_c, 0, 76, 51
2, 29192, Note_on_c, 0, 52, 37
2, 29200, Note_on_c, 0, 59, 31
2, 29208, Note_on_c, 0, 55, 37
2, 29208, Note_on_c, 0, 71, 35
2, 29240, Note_on_c, 0, 71, 0
2, 29248, Note_on_c, 0, 62, 0
2, 29248, Note_on_c, 0, 76, 0
2, 29264, Note_on_c, 0, 59, 0
2, 29264, Note_on_c, 0, 55, 0
2, 29272, Note_on_c, 0, 52, 0
2, 29440, Note_on_c, 0, 79, 75
2, 29440, Note_on_c, 0, 62, 60
2, 29440, Note_on_c, 0, 59, 47
2, 29448, Note_on_c, 0, 52, 40
2, 29448, Note_on_c, 0, 74, 64
2, 29456, Note_on_c, 0, 67, 48
2, 29456, Note_on_c, 0, 55, 34
2, 29456, Note_on_c, 0, 69, 52
2, 29464, Note_on_c, 0, 62, 0
2, 29480, Note_on_c, 0, 69, 0
2, 29480, Note_on_c, 0, 67, 0
2, 29480, Note_on_c, 0, 59, 0
2, 29488, Note_on_c, 0, 52, 0
2, 29496, Note_on_c, 0, 55, 0
2, 29504, Note_on_c, 0, 79, 0
2, 29512, Note_on_c, 0, 74, 0
2, 29512, Control_c, 0, 64, 0
2, 29568, Note_on_c, 0, 52, 57
2, 29576, Note_on_c, 0, 62, 64
2, 29576, Note_on_c, 0, 81, 70
2, 29576, Note_on_c, 0, 83, 74
2, 29584, Note_on_c, 0, 59, 55
2, 29584, Note_on_c, 0, 55, 45
2, 29584, Note_on_c, 0, 69, 59
2, 29584, Note_on_c, 0, 71, 57
2, 29608, Note_on_c, 0, 71, 0
2, 29624, Note_on_c, 0, 83, 0
2, 29664, Note_on_c, 0, 69, 0
2, 29672, Note_on_c, 0, 81, 0
2, 29712, Note_on_c, 0, 62, 0
2, 29736, Control_c, 0, 64, 127
2, 29752, Note_on_c, 0, 59, 0
2, 29824, Note_on_c, 0, 62, 64
2, 29840, Note_on_c, 0, 52, 0
2, 29840, Note_on_c, 0, 67, 49
2, 29840, Note_on_c, 0, 59, 30
2, 29848, Note_on_c, 0, 55, 0
2, 29848, Note_on_c, 0, 69, 54
2, 29864, Note_on_c, 0, 67, 0
2, 29872, Note_on_c, 0, 59, 0
2, 29872, Note_on_c, 0, 69, 0
2, 29880, Note_on_c, 0, 62, 0
2, 29912, Control_c, 0, 64, 0
2, 29976, Note_on_c, 0, 55, 71
2, 29976, Note_on_c, 0, 82, 81
2, 29976, Note_on_c, 0, 70, 83
2, 29992, Note_on_c, 0, 65, 64
2, 29992, Note_on_c, 0, 61, 58
2, 30016, Control_c, 0, 64, 127
2, 30144, Note_on_c, 0, 65, 0
2, 30144, Note_on_c, 0, 82, 0
2, 30144, Note_on_c, 0, 55, 0
2, 30160, Note_on_c, 0, 70, 0
2, 30176, Note_on_c, 0, 61, 0
2, 30216, Note_on_c, 0, 72, 76
2, 30216, Note_on_c, 0, 84, 68
2, 30224, Note_on_c, 0, 61, 49
2, 30232, Note_on_c, 0, 55, 62
2, 30232, Note_on_c, 0, 83, 40
2, 30248, Note_on_c, 0, 65, 24
2, 30264, Note_on_c, 0, 83, 0
2, 30264, Note_on_c, 0, 55, 0
2, 30264, Note_on_c, 0, 84, 0
2, 30264, Note_on_c, 0, 72, 0
2, 30272, Note_on_c, 0, 65, 0
2, 30272, Control_c, 0, 64, 0
2, 30280, Note_on_c, 0, 61, 0
2, 30336, Note_on_c, 0, 55, 51
2, 30344, Note_on_c, 0, 61, 51
2, 30344, Note_on_c, 0, 65, 40
2, 30352, Control_c, 0, 64, 127
2, 30352, Note_on_c, 0, 81, 50
2, 30384, Note_on_c, 0, 69, 34
2, 30424, Note_on_c, 0, 81, 0
2, 30456, Note_on_c, 0, 65, 0
2, 30464, Note_on_c, 0, 69, 0
2, 30480, Note_on_c, 0, 55, 0
2, 30528, Note_on_c, 0, 61, 0
2, 30584, Control_c, 0, 64, 0
2, 30584, Note_on_c, 0, 79, 59
2, 30592, Note_on_c, 0, 64, 58
2, 30592, Note_on_c, 0, 60, 57
2, 30592, Note_on_c, 0, 53, 49
2, 30592, Note_on_c, 0, 76, 53
2, 30592, Note_on_c, 0, 67, 53
2, 30600, Note_on_c, 0, 57, 51
2, 30600, Note_on_c, 0, 72, 53
2, 30648, Note_on_c, 0, 72, 0
2, 30648, Note_on_c, 0, 67, 0
2, 30648, Note_on_c, 0, 64, 0
2, 30656, Note_on_c, 0, 60, 0
2, 30664, Note_on_c, 0, 53, 0
2, 30664, Note_on_c, 0, 76, 0
2, 30664, Note_on_c, 0, 79, 0
2, 30672, Note_on_c, 0, 57, 0
2, 30968, Note_on_c, 0, 60, 60
2, 30968, Note_on_c, 0, 76, 55
2, 30976, Note_on_c, 0, 53, 58
2, 30976, Note_on_c, 0, 69, 62
2, 30976, Note_on_c, 0, 72, 54
2, 30984, Note_on_c, 0, 64, 57
2, 30984, Note_on_c, 0, 57, 45
2, 31016, Note_on_c, 0, 57, 0
2, 31016, Note_on_c, 0, 60, 0
2, 31016, Note_on_c, 0, 64, 0
2, 31032, Note_on_c, 0, 76, 0
2, 31032, Note_on_c, 0, 72, 0
2, 31040, Note_on_c, 0, 69, 0
2, 31048, Note_on_c, 0, 53, 0
2, 31352, Note_on_c, 0, 56, 65
2, 31352, Note_on_c, 0, 64, 70
2, 31360, Note_on_c, 0, 43, 62
2, 31360, Note_on_c, 0, 59, 62
2, 31368, Note_on_c, 0, 53, 64
2, 31496, Control_c, 0, 64, 127
2, 31712, Note_on_c, 0, 43, 0
2, 31768, Note_on_c, 0, 53, 0
2, 31768, Note_on_c, 0, 64, 0
2, 31808, Note_on_c, 0, 59, 0
2, 31856, Note_on_c, 0, 62, 51
2, 31864, Note_on_c, 0, 56, 0
2, 32024, Note_on_c, 0, 62, 0
2, 32232, Control_c, 0, 64, 0
2, 32240, Note_on_c, 0, 43, 10
2, 32256, Note_on_c, 0, 60, 53
2, 32352, Note_on_c, 0, 43, 0
2, 32432, Note_on_c, 0, 60, 0
2, 32496, Note_on_c, 0, 64, 60
2, 32576, Note_on_c, 0, 64, 0
2, 32656, Note_on_c, 0, 67, 42
2, 32808, Note_on_c, 0, 67, 0
2, 32872, Note_on_c, 0, 71, 87
2, 32888, Note_on_c, 0, 68, 72
2, 32888, Note_on_c, 0, 61, 59
2, 32888, Note_on_c, 0, 57, 66
2, 32896, Note_on_c, 0, 63, 57
2, 33160, Control_c, 0, 64, 127
2, 33336, Control_c, 0, 64, 0
2, 33352, Note_on_c, 0, 68, 0
2, 33360, Note_on_c, 0, 71, 0
2, 33384, Note_on_c, 0, 70, 56
2, 33408, Note_on_c, 0, 70, 0
2, 33512, Note_on_c, 0, 57, 0
2, 33584, Note_on_c, 0, 63, 0
2, 33632, Note_on_c, 0, 69, 74
2, 33672, Note_on_c, 0, 61, 0
2, 33712, Note_on_c, 0, 69, 0
2, 33768, Note_on_c, 0, 56, 33
2, 33768, Note_on_c, 0, 62, 27
2, 33784, Note_on_c, 0, 64, 44
2, 33936, Control_c, 0, 64, 127
2, 33960, Note_on_c, 0, 64, 0
2, 34008, Note_on_c, 0, 76, 67
2, 34056, Control_c, 0, 64, 0
2, 34080, Note_on_c, 0, 76, 0
2, 34096, Note_on_c, 0, 62, 0
2, 34144, Note_on_c, 0, 64, 44
2, 34168, Note_on_c, 0, 64, 0
2, 34176, Note_on_c, 0, 56, 0
2, 34408, Note_on_c, 0, 61, 45
2, 34408, Note_on_c, 0, 66, 46
2, 34432, Note_on_c, 0, 66, 0
2, 34456, Note_on_c, 0, 61, 0
2, 34800, Note_on_c, 0, 88, 84
2, 34800, Note_on_c, 0, 76, 79
2, 34816, Note_on_c, 0, 55, 43
2, 34816, Note_on_c, 0, 61, 39
2, 34816, Note_on_c, 0, 66, 33
2, 34840, Note_on_c, 0, 66, 0
2, 34840, Note_on_c, 0, 55, 0
2, 34848, Note_on_c, 0, 61, 0
2, 34848, Note_on_c, 0, 76, 0
2, 34856, Note_on_c, 0, 88, 0
2, 34944, Note_on_c, 0, 84, 38
2, 34976, Note_on_c, 0, 84, 0
2, 35048, Note_on_c, 0, 88, 76
2, 35056, Note_on_c, 0, 76, 57
2, 35080, Note_on_c, 0, 76, 0
2, 35088, Note_on_c, 0, 88, 0
2, 35160, Note_on_c, 0, 55, 49
2, 35168, Note_on_c, 0, 61, 35
2, 35176, Note_on_c, 0, 88, 60
2, 35192, Note_on_c, 0, 85, 71
2, 35200, Note_on_c, 0, 88, 0
2, 35208, Note_on_c, 0, 85, 0
2, 35208, Note_on_c, 0, 55, 0
2, 35224, Note_on_c, 0, 84, 38
2, 35232, Note_on_c, 0, 61, 0
2, 35248, Note_on_c, 0, 84, 0
2, 35328, Note_on_c, 0, 54, 55
2, 35328, Note_on_c, 0, 88, 66
2, 35336, Note_on_c, 0, 64, 38
2, 35344, Note_on_c, 0, 60, 28
2, 35352, Note_on_c, 0, 88, 0
2, 35360, Note_on_c, 0, 54, 0
2, 35360, Note_on_c, 0, 64, 0
2, 35368, Note_on_c, 0, 60, 0
2, 35456, Note_on_c, 0, 88, 74
2, 35504, Note_on_c, 0, 88, 0
2, 35576, Note_on_c, 0, 84, 70
2, 35576, Note_on_c, 0, 64, 56
2, 35576, Note_on_c, 0, 54, 53
2, 35592, Note_on_c, 0, 60, 34
2, 35608, Note_on_c, 0, 64, 0
2, 35616, Note_on_c, 0, 60, 0
2, 35624, Note_on_c, 0, 84, 0
2, 35632, Note_on_c, 0, 54, 0
2, 35704, Note_on_c, 0, 88, 68
2, 35720, Note_on_c, 0, 76, 45
2, 35744, Note_on_c, 0, 76, 0
2, 35752, Note_on_c, 0, 88, 0
2, 35824, Note_on_c, 0, 88, 78
2, 35840, Note_on_c, 0, 76, 60
2, 35848, Note_on_c, 0, 64, 57
2, 35848, Note_on_c, 0, 54, 53
2, 35864, Note_on_c, 0, 76, 0
2, 35880, Note_on_c, 0, 64, 0
2, 35904, Note_on_c, 0, 88, 0
2, 35904, Note_on_c, 0, 54, 0
2, 35960, Note_on_c, 0, 64, 37
2, 35960, Note_on_c, 0, 84, 61
2, 35992, Note_on_c, 0, 64, 0
2, 36000, Note_on_c, 0, 84, 0
2, 36080, Note_on_c, 0, 88, 81
2, 36096, Note_on_c, 0, 65, 74
2, 36096, Note_on_c, 0, 76, 74
2, 36096, Note_on_c, 0, 54, 74
2, 36104, Note_on_c, 0, 60, 64
2, 36264, Note_on_c, 0, 76, 0
2, 36272, Note_on_c, 0, 60, 0
2, 36272, Note_on_c, 0, 65, 0
2, 36280, Note_on_c, 0, 88, 0
2, 36288, Note_on_c, 0, 54, 0
2, 36352, Note_on_c, 0, 88, 73
2, 36360, Note_on_c, 0, 54, 57
2, 36360, Note_on_c, 0, 65, 67
2, 36360, Note_on_c, 0, 76, 68
2, 36368, Note_on_c, 0, 60, 56
2, 36416, Note_on_c, 0, 76, 0
2, 36416, Note_on_c, 0, 65, 0
2, 36432, Note_on_c, 0, 60, 0
2, 36440, Note_on_c, 0, 54, 0
2, 36440, Note_on_c, 0, 88, 0
2, 36528, Note_on_c, 0, 84, 28
2, 36560, Note_on_c, 0, 84, 0
2, 36720, Note_on_c, 0, 84, 69
2, 36720, Note_on_c, 0, 88, 75
2, 36728, Note_on_c, 0, 76, 70
2, 36728, Note_on_c, 0, 54, 73
2, 36728, Note_on_c, 0, 60, 66
2, 36736, Note_on_c, 0, 64, 54
2, 36856, Control_c, 0, 64, 127
2, 37088, Note_on_c, 0, 60, 0
2, 37128, Note_on_c, 0, 64, 0
2, 37144, Note_on_c, 0, 54, 0
2, 37608, Control_c, 0, 64, 0
2, 37688, Control_c, 0, 64, 127
2, 37984, Note_on_c, 0, 76, 0
2, 38008, Note_on_c, 0, 88, 0
2, 38016, Note_on_c, 0, 84, 0
2, 38016, Control_c, 0, 64, 0
2, 38032, Note_on_c, 0, 65, 67
2, 38032, Note_on_c, 0, 54, 56
2, 38040, Note_on_c, 0, 60, 51
2, 38040, Note_on_c, 0, 58, 44
2, 38216, Control_c, 0, 64, 127
2, 38264, Note_on_c, 0, 65, 0
2, 38296, Note_on_c, 0, 54, 0
2, 38296, Note_on_c, 0, 58, 0
2, 38296, Control_c, 0, 64, 0
2, 38312, Note_on_c, 0, 53, 58
2, 38320, Note_on_c, 0, 64, 73
2, 38336, Note_on_c, 0, 57, 53
2, 38680, Note_on_c, 0, 92, 72
2, 38776, Note_on_c, 0, 92, 0
2, 38816, Note_on_c, 0, 64, 0
2, 38824, Note_on_c, 0, 93, 51
2, 38864, Note_on_c, 0, 60, 0
2, 38880, Note_on_c, 0, 57, 0
2, 38896, Note_on_c, 0, 93, 0
2, 38944, Note_on_c, 0, 96, 58
2, 39000, Note_on_c, 0, 96, 0
2, 39048, Note_on_c, 0, 100, 79
2, 39072, Note_on_c, 0, 60, 27
2, 39080, Note_on_c, 0, 57, 28
2, 39104, Note_on_c, 0, 60, 0
2, 39120, Note_on_c, 0, 57, 0
2, 39144, Note_on_c, 0, 100, 0
2, 39192, Note_on_c, 0, 103, 80
2, 39360, Note_on_c, 0, 103, 0
2, 39368, Note_on_c, 0, 53, 0
2, 39408, Control_c, 0, 64, 127
2, 39416, Note_on_c, 0, 102, 77
2, 39456, Note_on_c, 0, 60, 29
2, 39464, Note_on_c, 0, 57, 30
2, 39504, Control_c, 0, 64, 0
2, 39528, Note_on_c, 0, 102, 0
2, 39536, Note_on_c, 0, 57, 0
2, 39536, Note_on_c, 0, 60, 0
2, 39592, Note_on_c, 0, 101, 55
2, 39640, Control_c, 0, 64, 127
2, 39712, Note_on_c, 0, 101, 0
2, 39800, Note_on_c, 0, 100, 83
2, 39808, Note_on_c, 0, 57, 47
2, 39816, Note_on_c, 0, 62, 40
2, 39816, Note_on_c, 0, 64, 49
2, 39848, Control_c, 0, 64, 0
2, 40016, Note_on_c, 0, 100, 0
2, 40024, Note_on_c, 0, 62, 0
2, 40032, Note_on_c, 0, 101, 58
2, 40056, Note_on_c, 0, 64, 0
2, 40104, Note_on_c, 0, 100, 55
2, 40120, Note_on_c, 0, 101, 0
2, 40200, Note_on_c, 0, 100, 0
2, 40208, Note_on_c, 0, 98, 69
2, 40280, Note_on_c, 0, 98, 0
2, 40320, Note_on_c, 0, 62, 24
2, 40320, Note_on_c, 0, 64, 39
2, 40328, Note_on_c, 0, 96, 71
2, 40360, Note_on_c, 0, 62, 0
2, 40416, Note_on_c, 0, 57, 0
2, 40480, Note_on_c, 0, 64, 0
2, 40568, Note_on_c, 0, 96, 0
2, 40584, Note_on_c, 0, 95, 73
2, 40592, Note_on_c, 0, 62, 44
2, 40600, Note_on_c, 0, 56, 43
2, 40728, Note_on_c, 0, 62, 0
2, 40736, Note_on_c, 0, 95, 0
2, 40840, Note_on_c, 0, 100, 76
2, 40936, Note_on_c, 0, 92, 57
2, 40952, Note_on_c, 0, 100, 0
2, 41008, Note_on_c, 0, 56, 0
2, 41032, Note_on_c, 0, 92, 0
2, 41048, Note_on_c, 0, 89, 69
2, 41080, Note_on_c, 0, 56, 18
2, 41080, Note_on_c, 0, 67, 34
2, 41088, Note_on_c, 0, 62, 42
2, 41104, Note_on_c, 0, 89, 0
2, 41144, Note_on_c, 0, 67, 0
2, 41160, Note_on_c, 0, 88, 65
2, 41200, Note_on_c, 0, 62, 0
2, 41240, Note_on_c, 0, 88, 0
2, 41256, Note_on_c, 0, 86, 57
2, 41320, Note_on_c, 0, 86, 0
2, 41368, Note_on_c, 0, 84, 25
2, 41392, Note_on_c, 0, 56, 0
2, 41424, Note_on_c, 0, 84, 0
2, 41448, Note_on_c, 0, 64, 40
2, 41480, Note_on_c, 0, 83, 20
2, 41480, Note_on_c, 0, 60, 31
2, 41488, Note_on_c, 0, 59, 25
2, 41488, Note_on_c, 0, 57, 30
2, 41496, Note_on_c, 0, 83, 0
2, 41528, Note_on_c, 0, 88, 71
2, 41576, Note_on_c, 0, 59, 0
2, 41624, Note_on_c, 0, 88, 0
2, 41656, Note_on_c, 0, 64, 0
2, 41688, Note_on_c, 0, 60, 0
2, 41736, Note_on_c, 0, 84, 73
2, 41784, Note_on_c, 0, 84, 0
2, 41832, Note_on_c, 0, 88, 74
2, 41864, Note_on_c, 0, 60, 20
2, 41888, Note_on_c, 0, 88, 0
2, 41920, Note_on_c, 0, 91, 76
2, 41928, Note_on_c, 0, 60, 0
2, 41992, Note_on_c, 0, 91, 0
2, 42024, Note_on_c, 0, 88, 67
2, 42064, Note_on_c, 0, 57, 0
2, 42088, Note_on_c, 0, 88, 0
2, 42120, Note_on_c, 0, 84, 49
2, 42144, Note_on_c, 0, 84, 0
2, 42216, Note_on_c, 0, 56, 48
2, 42232, Note_on_c, 0, 64, 43
2, 42240, Note_on_c, 0, 60, 41
2, 42616, Control_c, 0, 64, 127
2, 42656, Note_on_c, 0, 60, 0
2, 42664, Note_on_c, 0, 64, 0
2, 42704, Note_on_c, 0, 56, 0
2, 42888, Note_on_c, 0, 57, 41
2, 42888, Note_on_c, 0, 58, 37
2, 42888, Note_on_c, 0, 62, 49
2, 42928, Control_c, 0, 64, 0
2, 43160, Note_on_c, 0, 81, 71
2, 43240, Note_on_c, 0, 81, 0
2, 43280, Note_on_c, 0, 82, 59
2, 43336, Note_on_c, 0, 82, 0
2, 43376, Note_on_c, 0, 57, 0
2, 43392, Note_on_c, 0, 84, 63
2, 43416, Note_on_c, 0, 62, 0
2, 43448, Note_on_c, 0, 84, 0
2, 43512, Note_on_c, 0, 88, 60
2, 43576, Note_on_c, 0, 88, 0
2, 43608, Note_on_c, 0, 58, 0
2, 43640, Note_on_c, 0, 93, 74
2, 43664, Note_on_c, 0, 58, 40
2, 43664, Note_on_c, 0, 52, 55
2, 43664, Note_on_c, 0, 63, 44
2, 43704, Note_on_c, 0, 63, 0
2, 43712, Note_on_c, 0, 93, 0
2, 43768, Note_on_c, 0, 94, 62
2, 43840, Note_on_c, 0, 94, 0
2, 43896, Note_on_c, 0, 95, 58
2, 43936, Note_on_c, 0, 58, 0
2, 43968, Note_on_c, 0, 95, 0
2, 44024, Note_on_c, 0, 98, 90
2, 44072, Note_on_c, 0, 63, 34
2, 44072, Note_on_c, 0, 58, 35
2, 44120, Note_on_c, 0, 98, 0
2, 44168, Note_on_c, 0, 96, 66
2, 44272, Note_on_c, 0, 52, 0
2, 44280, Note_on_c, 0, 96, 0
2, 44280, Note_on_c, 0, 93, 71
2, 44296, Note_on_c, 0, 58, 0
2, 44320, Note_on_c, 0, 63, 0
2, 44360, Note_on_c, 0, 93, 0
2, 44400, Note_on_c, 0, 88, 58
2, 44432, Note_on_c, 0, 64, 24
2, 44432, Note_on_c, 0, 57, 32
2, 44440, Note_on_c, 0, 60, 31
2, 44448, Note_on_c, 0, 53, 36
2, 44472, Note_on_c, 0, 88, 0
2, 44560, Note_on_c, 0, 91, 58
2, 44736, Note_on_c, 0, 91, 0
2, 44784, Note_on_c, 0, 88, 77
2, 44832, Note_on_c, 0, 64, 0
2, 44872, Note_on_c, 0, 88, 0
2, 44920, Note_on_c, 0, 84, 62
2, 45008, Note_on_c, 0, 60, 0
2, 45040, Note_on_c, 0, 57, 0
2, 45160, Note_on_c, 0, 84, 0
2, 45168, Note_on_c, 0, 83, 67
2, 45176, Note_on_c, 0, 64, 40
2, 45184, Note_on_c, 0, 53, 0
2, 45184, Note_on_c, 0, 57, 39
2, 45184, Note_on_c, 0, 60, 40
2, 45200, Note_on_c, 0, 64, 0
2, 45216, Note_on_c, 0, 83, 0
2, 45224, Note_on_c, 0, 60, 0
2, 45304, Note_on_c, 0, 76, 60
2, 45336, Note_on_c, 0, 57, 0
2, 45528, Note_on_c, 0, 76, 0
2, 45552, Note_on_c, 0, 72, 41
2, 45576, Note_on_c, 0, 72, 0
2, 45592, Note_on_c, 0, 57, 36
2, 45672, Note_on_c, 0, 79, 80
2, 45704, Note_on_c, 0, 57, 0
2, 45872, Note_on_c, 0, 79, 0
2, 45928, Note_on_c, 0, 77, 76
2, 45944, Note_on_c, 0, 64, 42
2, 45952, Note_on_c, 0, 56, 42
2, 45968, Note_on_c, 0, 53, 25
2, 45968, Note_on_c, 0, 60, 28
2, 45976, Note_on_c, 0, 64, 0
2, 46000, Note_on_c, 0, 60, 0
2, 46032, Note_on_c, 0, 53, 0
2, 46088, Note_on_c, 0, 56, 0
2, 46192, Note_on_c, 0, 72, 58
2, 46208, Note_on_c, 0, 77, 0
2, 46280, Note_on_c, 0, 72, 0
2, 46304, Note_on_c, 0, 68, 53
2, 46320, Note_on_c, 0, 64, 34
2, 46336, Note_on_c, 0, 60, 34
2, 46336, Note_on_c, 0, 56, 30
2, 46352, Note_on_c, 0, 64, 0
2, 46376, Note_on_c, 0, 60, 0
2, 46384, Note_on_c, 0, 68, 0
2, 46424, Note_on_c, 0, 56, 0
2, 46432, Note_on_c, 0, 67, 64
2, 46672, Note_on_c, 0, 67, 0
2, 47120, Note_on_c, 0, 65, 94
2, 47136, Note_on_c, 0, 56, 36
2, 47152, Note_on_c, 0, 53, 40
2, 47216, Note_on_c, 0, 65, 0
2, 47272, Note_on_c, 0, 62, 42
2, 47312, Note_on_c, 0, 53, 0
2, 47368, Note_on_c, 0, 62, 0
2, 47376, Note_on_c, 0, 56, 0
2, 47392, Note_on_c, 0, 63, 54
2, 47488, Note_on_c, 0, 63, 0
2, 47512, Note_on_c, 0, 66, 42
2, 47528, Note_on_c, 0, 67, 72
2, 47536, Note_on_c, 0, 66, 0
2, 47584, Note_on_c, 0, 57, 34
2, 47616, Note_on_c, 0, 67, 0
2, 47624, Note_on_c, 0, 57, 0
2, 47680, Note_on_c, 0, 63, 55
2, 47776, Note_on_c, 0, 63, 0
2, 47808, Note_on_c, 0, 64, 60
2, 47872, Note_on_c, 0, 64, 0
2, 47912, Note_on_c, 0, 67, 66
2, 47984, Note_on_c, 0, 67, 0
2, 47984, Note_on_c, 0, 57, 28
2, 47992, Note_on_c, 0, 52, 28
2, 48024, Note_on_c, 0, 52, 0
2, 48024, Note_on_c, 0, 57, 0
2, 48096, Note_on_c, 0, 63, 17
2, 48152, Note_on_c, 0, 63, 0
2, 48200, Note_on_c, 0, 64, 64
2, 48256, Note_on_c, 0, 64, 0
2, 48320, Note_on_c, 0, 67, 80
2, 48400, Note_on_c, 0, 67, 0
2, 48456, Note_on_c, 0, 71, 73
2, 48472, Note_on_c, 0, 63, 21
2, 48480, Note_on_c, 0, 61, 44
2, 48480, Note_on_c, 0, 57, 20
2, 48584, Note_on_c, 0, 61, 0
2, 48608, Note_on_c, 0, 63, 0
2, 48632, Note_on_c, 0, 57, 0
2, 48688, Note_on_c, 0, 71, 0
2, 48792, Note_on_c, 0, 57, 32
2, 48792, Note_on_c, 0, 63, 39
2, 48800, Note_on_c, 0, 61, 39
2, 48952, Note_on_c, 0, 57, 0
2, 49008, Note_on_c, 0, 61, 0
2, 49016, Note_on_c, 0, 63, 0
2, 49040, Note_on_c, 0, 56, 62
2, 49048, Note_on_c, 0, 62, 64
2, 49048, Note_on_c, 0, 67, 61
2, 49432, Note_on_c, 0, 82, 85
2, 49528, Note_on_c, 0, 82, 0
2, 49688, Note_on_c, 0, 62, 0
2, 49704, Note_on_c, 0, 67, 0
2, 49768, Note_on_c, 0, 56, 0
2, 49792, Note_on_c, 0, 81, 95
2, 49808, Note_on_c, 0, 65, 58
2, 49808, Note_on_c, 0, 55, 62
2, 49816, Note_on_c, 0, 61, 48
2, 50112, Note_on_c, 0, 65, 0
2, 50128, Note_on_c, 0, 61, 0
2, 50136, Note_on_c, 0, 81, 0
2, 50176, Note_on_c, 0, 74, 71
2, 50224, Note_on_c, 0, 74, 0
2, 50232, Note_on_c, 0, 61, 34
2, 50424, Note_on_c, 0, 55, 0
2, 50424, Note_on_c, 0, 81, 50
2, 50480, Note_on_c, 0, 81, 0
2, 50536, Note_on_c, 0, 84, 89
2, 50568, Note_on_c, 0, 61, 0
2, 50624, Note_on_c, 0, 84, 0
2, 50664, Note_on_c, 0, 60, 39
2, 50664, Note_on_c, 0, 64, 38
2, 50672, Note_on_c, 0, 86, 75
2, 50672, Note_on_c, 0, 54, 43
2, 50832, Note_on_c, 0, 60, 0
2, 50904, Note_on_c, 0, 86, 0
2, 50984, Note_on_c, 0, 64, 0
2, 51008, Note_on_c, 0, 60, 30
2, 51048, Note_on_c, 0, 60, 0
2, 51064, Note_on_c, 0, 84, 85
2, 51072, Note_on_c, 0, 64, 37
2, 51272, Note_on_c, 0, 84, 0
2, 51304, Note_on_c, 0, 64, 0
2, 51344, Note_on_c, 0, 60, 36
2, 51384, Note_on_c, 0, 60, 0
2, 51440, Note_on_c, 0, 64, 32
2, 51440, Note_on_c, 0, 81, 81
2, 51512, Note_on_c, 0, 64, 0
2, 51664, Note_on_c, 0, 81, 0
2, 51688, Note_on_c, 0, 72, 71
2, 51696, Note_on_c, 0, 64, 41
2, 51696, Note_on_c, 0, 60, 53
2, 51728, Note_on_c, 0, 64, 0
2, 51752, Note_on_c, 0, 60, 0
2, 51752, Note_on_c, 0, 72, 0
2, 51808, Note_on_c, 0, 54, 0
2, 52080, Note_on_c, 0, 75, 98
2, 52080, Note_on_c, 0, 79, 94
2, 52096, Note_on_c, 0, 63, 87
2, 52248, Note_on_c, 0, 75, 0
2, 52288, Note_on_c, 0, 74, 26
2, 52320, Note_on_c, 0, 63, 0
2, 52336, Note_on_c, 0, 62, 40
2, 52344, Note_on_c, 0, 79, 0
2, 52384, Note_on_c, 0, 62, 0
2, 52400, Note_on_c, 0, 72, 57
2, 52416, Note_on_c, 0, 74, 0
2, 52472, Note_on_c, 0, 58, 21
2, 52488, Note_on_c, 0, 72, 0
2, 52496, Note_on_c, 0, 58, 0
2, 52504, Note_on_c, 0, 69, 42
2, 52560, Note_on_c, 0, 69, 0
2, 52600, Note_on_c, 0, 64, 32
2, 52608, Note_on_c, 0, 62, 27
2, 52616, Note_on_c, 0, 79, 82
2, 52616, Note_on_c, 0, 72, 85
2, 52640, Note_on_c, 0, 64, 0
2, 52784, Note_on_c, 0, 79, 0
2, 52808, Note_on_c, 0, 72, 0
2, 52848, Note_on_c, 0, 62, 0
2, 52864, Note_on_c, 0, 79, 74
2, 52864, Note_on_c, 0, 74, 85
2, 52888, Note_on_c, 0, 60, 64
2, 52912, Note_on_c, 0, 60, 0
2, 53008, Note_on_c, 0, 74, 0
2, 53080, Note_on_c, 0, 79, 0
2, 53080, Note_on_c, 0, 74, 43
2, 53120, Note_on_c, 0, 72, 54
2, 53176, Note_on_c, 0, 74, 0
2, 53208, Note_on_c, 0, 72, 0
2, 53216, Note_on_c, 0, 67, 60
2, 53248, Note_on_c, 0, 54, 43
2, 53264, Note_on_c, 0, 54, 0
2, 53264, Note_on_c, 0, 67, 0
2, 53312, Note_on_c, 0, 72, 62
2, 53320, Note_on_c, 0, 65, 49
2, 53328, Note_on_c, 0, 67, 40
2, 53360, Note_on_c, 0, 67, 0
2, 53368, Note_on_c, 0, 72, 0
2, 53384, Note_on_c, 0, 65, 0
2, 53424, Note_on_c, 0, 60, 62
2, 53456, Note_on_c, 0, 60, 0
2, 53528, Note_on_c, 0, 63, 59
2, 53560, Note_on_c, 0, 63, 0
2, 53624, Note_on_c, 0, 54, 44
2, 53624, Note_on_c, 0, 64, 74
2, 53632, Note_on_c, 0, 55, 40
2, 53648, Note_on_c, 0, 54, 0
2, 53664, Note_on_c, 0, 55, 0
2, 53688, Note_on_c, 0, 64, 0
2, 53720, Note_on_c, 0, 65, 78
2, 53784, Note_on_c, 0, 65, 0
2, 53808, Note_on_c, 0, 66, 69
2, 53872, Note_on_c, 0, 66, 0
2, 53920, Note_on_c, 0, 67, 66
2, 53968, Note_on_c, 0, 67, 0
2, 54000, Note_on_c, 0, 64, 70
2, 54064, Note_on_c, 0, 64, 0
2, 54112, Note_on_c, 0, 60, 60
2, 54160, Note_on_c, 0, 60, 0
2, 54200, Note_on_c, 0, 55, 62
2, 54456, Note_on_c, 0, 55, 0
2, 54512, Note_on_c, 0, 55, 65
2, 54720, Note_on_c, 0, 55, 0
2, 54784, Note_on_c, 0, 55, 73
2, 55096, Note_on_c, 0, 55, 0
2, 55136, Note_on_c, 0, 57, 72
2, 55136, Note_on_c, 0, 64, 70
2, 55144, Note_on_c, 0, 60, 76
2, 55152, Note_on_c, 0, 55, 74
2, 55384, Control_c, 0, 64, 127
2, 55528, Note_on_c, 0, 43, 64
2, 55584, Note_on_c, 0, 43, 0
2, 55624, Note_on_c, 0, 55, 0
2, 55624, Control_c, 0, 64, 0
2, 55656, Control_c, 0, 64, 127
2, 55656, Note_on_c, 0, 43, 54
2, 55696, Note_on_c, 0, 64, 0
2, 55704, Note_on_c, 0, 57, 0
2, 55720, Note_on_c, 0, 60, 0
2, 55912, Note_on_c, 0, 64, 71
2, 55920, Note_on_c, 0, 59, 68
2, 55920, Note_on_c, 0, 56, 71
2, 55928, Control_c, 0, 64, 0
2, 55928, Note_on_c, 0, 53, 59
2, 56008, Control_c, 0, 64, 127
2, 56016, Note_on_c, 0, 56, 0
2, 56024, Note_on_c, 0, 59, 0
2, 56056, Note_on_c, 0, 64, 0
2, 56192, Note_on_c, 0, 53, 0
2, 56264, Note_on_c, 0, 75, 84
2, 56272, Note_on_c, 0, 53, 42
2, 56336, Note_on_c, 0, 53, 0
2, 56344, Note_on_c, 0, 43, 0
2, 56360, Note_on_c, 0, 75, 0
2, 56376, Note_on_c, 0, 76, 71
2, 56440, Note_on_c, 0, 76, 0
2, 56440, Control_c, 0, 64, 0
2, 56480, Control_c, 0, 64, 127
2, 56488, Note_on_c, 0, 79, 78
2, 56560, Note_on_c, 0, 79, 0
2, 56600, Note_on_c, 0, 81, 71
2, 56680, Note_on_c, 0, 81, 0
2, 56712, Note_on_c, 0, 83, 59
2, 56768, Note_on_c, 0, 83, 0
2, 56848, Note_on_c, 0, 84, 80
2, 56848, Control_c, 0, 64, 0
2, 56920, Note_on_c, 0, 84, 0
2, 57240, Note_on_c, 0, 62, 46
2, 57240, Note_on_c, 0, 57, 58
2, 57264, Note_on_c, 0, 52, 22
2, 57272, Note_on_c, 0, 62, 0
2, 57280, Note_on_c, 0, 52, 0
2, 57280, Note_on_c, 0, 57, 0
2, 57608, Note_on_c, 0, 63, 47
2, 57608, Note_on_c, 0, 57, 44
2, 57608, Note_on_c, 0, 68, 37
2, 57616, Control_c, 0, 64, 127
2, 57624, Note_on_c, 0, 61, 39
2, 57800, Note_on_c, 0, 57, 0
2, 57816, Note_on_c, 0, 61, 0
2, 57816, Note_on_c, 0, 68, 0
2, 57832, Note_on_c, 0, 63, 0
2, 57944, Control_c, 0, 64, 0
2, 57976, Note_on_c, 0, 63, 65
2, 57976, Note_on_c, 0, 57, 71
2, 57976, Note_on_c, 0, 68, 76
2, 57976, Note_on_c, 0, 87, 79
2, 57976, Note_on_c, 0, 90, 73
2, 57976, Note_on_c, 0, 83, 82
2, 57976, Note_on_c, 0, 95, 80
2, 57976, Note_on_c, 0, 61, 60
2, 58064, Control_c, 0, 64, 127
2, 58240, Note_on_c, 0, 57, 0
2, 58256, Note_on_c, 0, 95, 0
2, 58256, Note_on_c, 0, 68, 0
2, 58264, Note_on_c, 0, 83, 0
2, 58280, Note_on_c, 0, 63, 0
2, 58288, Note_on_c, 0, 87, 0
2, 58288, Note_on_c, 0, 90, 0
2, 58296, Note_on_c, 0, 61, 0
2, 58336, Control_c, 0, 64, 0
2, 58352, Note_on_c, 0, 93, 64
2, 58360, Note_on_c, 0, 56, 62
2, 58360, Note_on_c, 0, 67, 64
2, 58360, Note_on_c, 0, 81, 53
2, 58368, Note_on_c, 0, 87, 36
2, 58368, Note_on_c, 0, 62, 60
2, 58424, Note_on_c, 0, 67, 0
2, 58448, Note_on_c, 0, 81, 0
2, 58464, Note_on_c, 0, 87, 0
2, 58464, Note_on_c, 0, 62, 0
2, 58472, Note_on_c, 0, 93, 0
2, 58480, Note_on_c, 0, 56, 0
2, 58728, Control_c, 0, 64, 127
2, 58736, Note_on_c, 0, 94, 78
2, 58744, Note_on_c, 0, 56, 65
2, 58744, Note_on_c, 0, 82, 70
2, 58744, Note_on_c, 0, 87, 70
2, 58752, Note_on_c, 0, 62, 63
2, 58752, Note_on_c, 0, 67, 64
2, 58864, Note_on_c, 0, 67, 0
2, 58904, Note_on_c, 0, 62, 0
2, 58920, Note_on_c, 0, 87, 0
2, 58928, Note_on_c, 0, 94, 0
2, 58936, Note_on_c, 0, 82, 0
2, 58944, Note_on_c, 0, 56, 0
2, 58992, Control_c, 0, 64, 0
2, 58992, Note_on_c, 0, 66, 71
2, 58992, Note_on_c, 0, 81, 55
2, 58992, Note_on_c, 0, 93, 66
2, 58992, Note_on_c, 0, 55, 75
2, 58992, Note_on_c, 0, 88, 58
2, 59000, Note_on_c, 0, 61, 56
2, 59088, Control_c, 0, 64, 127
2, 59104, Note_on_c, 0, 81, 0
2, 59136, Note_on_c, 0, 88, 0
2, 59152, Note_on_c, 0, 93, 0
2, 59248, Note_on_c, 0, 66, 0
2, 59272, Note_on_c, 0, 55, 0
2, 59304, Note_on_c, 0, 61, 0
2, 59376, Note_on_c, 0, 103, 88
2, 59384, Note_on_c, 0, 66, 65
2, 59384, Note_on_c, 0, 61, 57
2, 59384, Note_on_c, 0, 55, 71
2, 59448, Note_on_c, 0, 103, 0
2, 59464, Control_c, 0, 64, 0
2, 59528, Note_on_c, 0, 66, 0
2, 59608, Note_on_c, 0, 99, 51
2, 59664, Note_on_c, 0, 55, 0
2, 59680, Note_on_c, 0, 98, 53
2, 59736, Note_on_c, 0, 99, 0
2, 59768, Note_on_c, 0, 98, 0
2, 59768, Note_on_c, 0, 96, 67
2, 59776, Note_on_c, 0, 61, 0
2, 59824, Note_on_c, 0, 96, 0
2, 59848, Note_on_c, 0, 54, 52
2, 59856, Note_on_c, 0, 60, 34
2, 59856, Note_on_c, 0, 64, 53
2, 59872, Note_on_c, 0, 57, 36
2, 59888, Note_on_c, 0, 98, 66
2, 60096, Note_on_c, 0, 64, 0
2, 60104, Note_on_c, 0, 60, 0
2, 60144, Note_on_c, 0, 93, 35
2, 60160, Note_on_c, 0, 98, 0
2, 60184, Note_on_c, 0, 93, 0
2, 60232, Note_on_c, 0, 64, 34
2, 60240, Note_on_c, 0, 60, 30
2, 60248, Note_on_c, 0, 96, 56
2, 60384, Note_on_c, 0, 57, 0
2, 60392, Note_on_c, 0, 64, 0
2, 60400, Note_on_c, 0, 54, 0
2, 60400, Note_on_c, 0, 60, 0
2, 60608, Note_on_c, 0, 96, 0
2, 60616, Note_on_c, 0, 54, 46
2, 60632, Note_on_c, 0, 64, 34
2, 60640, Note_on_c, 0, 93, 44
2, 60648, Note_on_c, 0, 57, 34
2, 60648, Note_on_c, 0, 60, 29
2, 60656, Note_on_c, 0, 64, 0
2, 60664, Note_on_c, 0, 54, 0
2, 60688, Note_on_c, 0, 60, 0
2, 60704, Note_on_c, 0, 57, 0
2, 60864, Note_on_c, 0, 93, 0
2, 60920, Note_on_c, 0, 96, 58
2, 61000, Note_on_c, 0, 96, 0
2, 61048, Note_on_c, 0, 93, 38
2, 61288, Note_on_c, 0, 93, 0
2, 61424, Note_on_c, 0, 54, 55
2, 61432, Note_on_c, 0, 64, 49
2, 61432, Note_on_c, 0, 60, 54
2, 61432, Note_on_c, 0, 96, 62
2, 61456, Note_on_c, 0, 60, 0
2, 61456, Note_on_c, 0, 64, 0
2, 61496, Note_on_c, 0, 54, 0
2, 61528, Note_on_c, 0, 96, 0
2, 61808, Note_on_c, 0, 96, 90
2, 62048, Note_on_c, 0, 96, 0
2, 62064, Note_on_c, 0, 93, 62
2, 62072, Note_on_c, 0, 54, 60
2, 62080, Note_on_c, 0, 60, 50
2, 62080, Note_on_c, 0, 64, 47
2, 62112, Note_on_c, 0, 64, 0
2, 62112, Note_on_c, 0, 60, 0
2, 62112, Note_on_c, 0, 93, 0
2, 62144, Note_on_c, 0, 54, 0
2, 62224, Note_on_c, 0, 99, 62
2, 62232, Note_on_c, 0, 103, 35
2, 62232, Note_on_c, 0, 105, 44
2, 62320, Note_on_c, 0, 105, 0
2, 62336, Note_on_c, 0, 100, 48
2, 62344, Note_on_c, 0, 99, 0
2, 62376, Note_on_c, 0, 103, 0
2, 62408, Note_on_c, 0, 100, 0
2, 62464, Note_on_c, 0, 103, 83
2, 62480, Note_on_c, 0, 99, 81
2, 62600, Note_on_c, 0, 99, 0
2, 62600, Note_on_c, 0, 100, 62
2, 62600, Note_on_c, 0, 54, 52
2, 62616, Note_on_c, 0, 103, 0
2, 62616, Note_on_c, 0, 60, 32
2, 62624, Note_on_c, 0, 100, 0
2, 62648, Note_on_c, 0, 60, 0
2, 62680, Note_on_c, 0, 54, 0
2, 62736, Note_on_c, 0, 99, 81
2, 62736, Note_on_c, 0, 103, 75
2, 62856, Note_on_c, 0, 100, 77
2, 62864, Note_on_c, 0, 99, 0
2, 62920, Note_on_c, 0, 103, 0
2, 62928, Note_on_c, 0, 100, 0
2, 62960, Note_on_c, 0, 60, 36
2, 62976, Note_on_c, 0, 57, 36
2, 62984, Note_on_c, 0, 53, 32
2, 62984, Note_on_c, 0, 103, 64
2, 62992, Note_on_c, 0, 99, 78
2, 63000, Note_on_c, 0, 60, 0
2, 63008, Note_on_c, 0, 50, 14
2, 63032, Note_on_c, 0, 53, 0
2, 63040, Note_on_c, 0, 57, 0
2, 63040, Note_on_c, 0, 50, 0
2, 63112, Note_on_c, 0, 99, 0
2, 63128, Note_on_c, 0, 100, 62
2, 63208, Note_on_c, 0, 100, 0
2, 63216, Note_on_c, 0, 103, 0
2, 63248, Note_on_c, 0, 103, 37
2, 63256, Note_on_c, 0, 96, 76
2, 63344, Note_on_c, 0, 103, 0
2, 63384, Note_on_c, 0, 96, 0
2, 63392, Note_on_c, 0, 93, 52
2, 63552, Note_on_c, 0, 93, 0
2, 64080, Note_on_c, 0, 48, 62
2, 64096, Note_on_c, 0, 60, 51
2, 64168, Note_on_c, 0, 48, 0
2, 64264, Note_on_c, 0, 60, 0
2, 64496, Note_on_c, 0, 65, 48
2, 64496, Note_on_c, 0, 57, 41
2, 64504, Note_on_c, 0, 62, 37
2, 64784, Note_on_c, 0, 69, 66
2, 64816, Note_on_c, 0, 69, 0
2, 64912, Note_on_c, 0, 74, 62
2, 64928, Note_on_c, 0, 65, 0
2, 64952, Note_on_c, 0, 62, 0
2, 64968, Note_on_c, 0, 74, 0
2, 64976, Note_on_c, 0, 57, 0
2, 65016, Note_on_c, 0, 77, 71
2, 65056, Note_on_c, 0, 77, 0
2, 65120, Note_on_c, 0, 81, 62
2, 65160, Note_on_c, 0, 81, 0
2, 65232, Note_on_c, 0, 88, 60
2, 65232, Note_on_c, 0, 86, 66
2, 65256, Note_on_c, 0, 86, 0
2, 65264, Note_on_c, 0, 62, 43
2, 65280, Note_on_c, 0, 56, 28
2, 65288, Note_on_c, 0, 88, 0
2, 65296, Note_on_c, 0, 67, 17
2, 65336, Note_on_c, 0, 89, 64
2, 65368, Note_on_c, 0, 67, 0
2, 65400, Note_on_c, 0, 89, 0
2, 65440, Note_on_c, 0, 93, 60
2, 65440, Note_on_c, 0, 91, 69
2, 65472, Note_on_c, 0, 62, 0
2, 65496, Note_on_c, 0, 93, 0
2, 65504, Note_on_c, 0, 91, 0
2, 65536, Note_on_c, 0, 89, 52
2, 65536, Note_on_c, 0, 88, 58
2, 65544, Note_on_c, 0, 56, 0
2, 65592, Note_on_c, 0, 89, 0
2, 65600, Note_on_c, 0, 88, 0
2, 65640, Note_on_c, 0, 86, 53
2, 65640, Note_on_c, 0, 84, 57
2, 65664, Note_on_c, 0, 86, 0
2, 65672, Note_on_c, 0, 62, 36
2, 65672, Note_on_c, 0, 56, 33
2, 65672, Note_on_c, 0, 65, 24
2, 65696, Note_on_c, 0, 84, 0
2, 65728, Note_on_c, 0, 81, 41
2, 65768, Note_on_c, 0, 81, 0
2, 65808, Note_on_c, 0, 62, 0
2, 65832, Note_on_c, 0, 65, 0
2, 65856, Note_on_c, 0, 82, 59
2, 65912, Note_on_c, 0, 82, 0
2, 65936, Note_on_c, 0, 56, 0
2, 65960, Note_on_c, 0, 83, 69
2, 66016, Note_on_c, 0, 83, 0
2, 66016, Note_on_c, 0, 60, 36
2, 66024, Note_on_c, 0, 64, 31
2, 66040, Note_on_c, 0, 57, 31
2, 66056, Note_on_c, 0, 86, 76
2, 66112, Note_on_c, 0, 64, 0
2, 66120, Note_on_c, 0, 86, 0
2, 66168, Note_on_c, 0, 84, 75
2, 66192, Note_on_c, 0, 60, 0
2, 66232, Note_on_c, 0, 84, 0
2, 66272, Note_on_c, 0, 80, 53
2, 66320, Note_on_c, 0, 80, 0
2, 66368, Note_on_c, 0, 83, 64
2, 66384, Note_on_c, 0, 60, 30
2, 66448, Note_on_c, 0, 83, 0
2, 66480, Note_on_c, 0, 81, 53
2, 66552, Note_on_c, 0, 81, 0
2, 66584, Note_on_c, 0, 76, 57
2, 66640, Note_on_c, 0, 76, 0
2, 66688, Note_on_c, 0, 74, 64
2, 66768, Note_on_c, 0, 74, 0
2, 66776, Note_on_c, 0, 57, 0
2, 66800, Note_on_c, 0, 64, 42
2, 66800, Note_on_c, 0, 55, 48
2, 66816, Note_on_c, 0, 72, 41
2, 66840, Note_on_c, 0, 72, 0
2, 66928, Note_on_c, 0, 74, 60
2, 67016, Note_on_c, 0, 64, 0
2, 67024, Note_on_c, 0, 74, 0
2, 67032, Note_on_c, 0, 75, 64
2, 67064, Note_on_c, 0, 60, 0
2, 67120, Note_on_c, 0, 75, 0
2, 67144, Note_on_c, 0, 71, 47
2, 67168, Note_on_c, 0, 71, 0
2, 67200, Note_on_c, 0, 60, 22
2, 67232, Note_on_c, 0, 74, 69
2, 67280, Note_on_c, 0, 60, 0
2, 67304, Note_on_c, 0, 74, 0
2, 67336, Note_on_c, 0, 55, 0
2, 67416, Note_on_c, 0, 72, 64
2, 67496, Note_on_c, 0, 72, 0
2, 67520, Note_on_c, 0, 70, 62
2, 67560, Note_on_c, 0, 57, 30
2, 67576, Note_on_c, 0, 62, 34
2, 67584, Note_on_c, 0, 52, 40
2, 67592, Note_on_c, 0, 58, 15
2, 67608, Note_on_c, 0, 70, 0
2, 67632, Note_on_c, 0, 62, 0
2, 67632, Note_on_c, 0, 67, 41
2, 67680, Note_on_c, 0, 58, 0
2, 67696, Note_on_c, 0, 67, 0
2, 67736, Note_on_c, 0, 66, 44
2, 67816, Note_on_c, 0, 66, 0
2, 67840, Note_on_c, 0, 65, 37
2, 67856, Note_on_c, 0, 57, 0
2, 67944, Note_on_c, 0, 65, 0
2, 67952, Note_on_c, 0, 63, 38
2, 67976, Note_on_c, 0, 63, 0
2, 68048, Note_on_c, 0, 64, 54
2, 68104, Note_on_c, 0, 64, 0
2, 68152, Note_on_c, 0, 52, 0
2, 68232, Note_on_c, 0, 63, 59
2, 68296, Note_on_c, 0, 63, 0
2, 68384, Note_on_c, 0, 61, 1
2, 68448, Note_on_c, 0, 61, 0
2, 68560, Note_on_c, 0, 59, 66
2, 68560, Note_on_c, 0, 60, 69
2, 68608, Note_on_c, 0, 60, 0
2, 68608, Note_on_c, 0, 59, 0
2, 68776, Note_on_c, 0, 60, 90
2, 68864, Note_on_c, 0, 60, 0
2, 68880, Note_on_c, 0, 58, 71
2, 68960, Note_on_c, 0, 58, 0
2, 69096, Note_on_c, 0, 48, 29
2, 69104, Note_on_c, 0, 41, 32
2, 69152, Note_on_c, 0, 48, 0
2, 69160, Note_on_c, 0, 58, 68
2, 69192, Note_on_c, 0, 41, 0
2, 69248, Note_on_c, 0, 58, 0
2, 69256, Note_on_c, 0, 56, 55
2, 69312, Note_on_c, 0, 56, 0
2, 69352, Note_on_c, 0, 57, 71
2, 69424, Note_on_c, 0, 57, 0
2, 69752, Note_on_c, 0, 48, 63
2, 69760, Note_on_c, 0, 41, 54
2, 69776, Note_on_c, 0, 48, 0
2, 69784, Note_on_c, 0, 41, 0
2, 70144, Note_on_c, 0, 64, 65
2, 70144, Note_on_c, 0, 57, 55
2, 70144, Note_on_c, 0, 60, 57
2, 70160, Note_on_c, 0, 64, 0
2, 70168, Note_on_c, 0, 60, 0
2, 70192, Note_on_c, 0, 57, 0
2, 70536, Note_on_c, 0, 60, 66
2, 70544, Note_on_c, 0, 64, 50
2, 70544, Note_on_c, 0, 56, 50
2, 70560, Note_on_c, 0, 53, 24
2, 70568, Note_on_c, 0, 64, 0
2, 70584, Note_on_c, 0, 53, 0
2, 70592, Note_on_c, 0, 60, 0
2, 70632, Note_on_c, 0, 56, 0
2, 70664, Note_on_c, 0, 69, 82
2, 70664, Note_on_c, 0, 71, 82
2, 70720, Note_on_c, 0, 71, 0
2, 70768, Note_on_c, 0, 69, 0
2, 70792, Note_on_c, 0, 67, 64
2, 70840, Note_on_c, 0, 67, 0
2, 70896, Note_on_c, 0, 68, 67
2, 70960, Note_on_c, 0, 60, 32
2, 70960, Note_on_c, 0, 56, 34
2, 71000, Note_on_c, 0, 60, 0
2, 71000, Note_on_c, 0, 68, 0
2, 71032, Note_on_c, 0, 72, 68
2, 71056, Note_on_c, 0, 56, 0
2, 71120, Note_on_c, 0, 72, 0
2, 71160, Note_on_c, 0, 70, 47
2, 71240, Note_on_c, 0, 70, 0
2, 71272, Note_on_c, 0, 71, 41
2, 71352, Note_on_c, 0, 56, 25
2, 71360, Note_on_c, 0, 71, 0
2, 71408, Note_on_c, 0, 75, 67
2, 71424, Note_on_c, 0, 56, 0
2, 71488, Note_on_c, 0, 75, 0
2, 71544, Note_on_c, 0, 72, 33
2, 71576, Note_on_c, 0, 72, 0
2, 71640, Note_on_c, 0, 73, 62
2, 71728, Note_on_c, 0, 73, 0
2, 71752, Note_on_c, 0, 74, 69
2, 71768, Note_on_c, 0, 60, 54
2, 71776, Note_on_c, 0, 56, 38
2, 71800, Note_on_c, 0, 53, 32
2, 71816, Note_on_c, 0, 74, 0
2, 71832, Note_on_c, 0, 60, 0
2, 71856, Note_on_c, 0, 75, 62
2, 71864, Note_on_c, 0, 53, 0
2, 71880, Note_on_c, 0, 56, 0
2, 71912, Note_on_c, 0, 75, 0
2, 71960, Note_on_c, 0, 76, 62
2, 72032, Note_on_c, 0, 76, 0
2, 72040, Note_on_c, 0, 79, 69
2, 72120, Note_on_c, 0, 59, 29
2, 72128, Note_on_c, 0, 62, 29
2, 72136, Note_on_c, 0, 55, 37
2, 72144, Note_on_c, 0, 79, 0
2, 72152, Note_on_c, 0, 62, 0
2, 72152, Note_on_c, 0, 52, 35
2, 72152, Note_on_c, 0, 81, 55
2, 72200, Note_on_c, 0, 81, 0
2, 72200, Note_on_c, 0, 59, 0
2, 72224, Note_on_c, 0, 55, 0
2, 72240, Note_on_c, 0, 84, 65
2, 72288, Note_on_c, 0, 52, 0
2, 72320, Note_on_c, 0, 84, 0
2, 72440, Note_on_c, 0, 83, 81
2, 72544, Note_on_c, 0, 83, 0
2, 72576, Note_on_c, 0, 79, 62
2, 72592, Note_on_c, 0, 79, 0
2, 72832, Note_on_c, 0, 55, 92
2, 72832, Note_on_c, 0, 54, 71
2, 72888, Note_on_c, 0, 54, 0
2, 73232, Note_on_c, 0, 76, 84
2, 73296, Note_on_c, 0, 76, 0
2, 73360, Note_on_c, 0, 77, 74
2, 73440, Note_on_c, 0, 55, 0
2, 73552, Note_on_c, 0, 77, 0
2, 73608, Note_on_c, 0, 79, 81
2, 73608, Note_on_c, 0, 62, 50
2, 73608, Note_on_c, 0, 52, 53
2, 73616, Note_on_c, 0, 57, 50
2, 73648, Note_on_c, 0, 62, 0
2, 73720, Note_on_c, 0, 57, 0
2, 73768, Note_on_c, 0, 75, 36
2, 73800, Note_on_c, 0, 75, 0
2, 73816, Note_on_c, 0, 76, 52
2, 73960, Note_on_c, 0, 76, 0
2, 73968, Note_on_c, 0, 79, 0
2, 74000, Note_on_c, 0, 67, 66
2, 74120, Note_on_c, 0, 67, 0
2, 74128, Note_on_c, 0, 72, 35
2, 74136, Note_on_c, 0, 65, 40
2, 74184, Note_on_c, 0, 52, 0
2, 74336, Note_on_c, 0, 65, 0
2, 74392, Note_on_c, 0, 63, 59
2, 74400, Note_on_c, 0, 52, 43
2, 74424, Note_on_c, 0, 57, 22
2, 74432, Note_on_c, 0, 52, 0
2, 74440, Note_on_c, 0, 63, 0
2, 74464, Note_on_c, 0, 57, 0
2, 74472, Note_on_c, 0, 72, 0
2, 74536, Note_on_c, 0, 64, 60
2, 74560, Note_on_c, 0, 72, 17
2, 74688, Note_on_c, 0, 64, 0
2, 74752, Note_on_c, 0, 72, 0
2, 74776, Note_on_c, 0, 57, 66
2, 74776, Note_on_c, 0, 62, 65
2, 74776, Note_on_c, 0, 52, 60
2, 75184, Note_on_c, 0, 52, 0
2, 75184, Note_on_c, 0, 57, 0
2, 75208, Note_on_c, 0, 62, 0
2, 75288, Note_on_c, 0, 64, 57
2, 75288, Note_on_c, 0, 66, 69
2, 75288, Note_on_c, 0, 69, 71
2, 75296, Note_on_c, 0, 60, 39
2, 75304, Note_on_c, 0, 54, 37
2, 75312, Control_c, 0, 64, 127
2, 75440, Note_on_c, 0, 54, 0
2, 75440, Note_on_c, 0, 64, 0
2, 75440, Note_on_c, 0, 66, 0
2, 75464, Note_on_c, 0, 60, 0
2, 75480, Note_on_c, 0, 69, 0
2, 75520, Note_on_c, 0, 71, 80
2, 75528, Note_on_c, 0, 67, 80
2, 75536, Note_on_c, 0, 54, 63
2, 75544, Note_on_c, 0, 64, 58
2, 75544, Note_on_c, 0, 60, 51
2, 75576, Note_on_c, 0, 64, 0
2, 75592, Control_c, 0, 64, 0
2, 75600, Note_on_c, 0, 60, 0
2, 75608, Note_on_c, 0, 54, 0
2, 75608, Note_on_c, 0, 67, 0
2, 75624, Note_on_c, 0, 71, 0
2, 75656, Note_on_c, 0, 54, 70
2, 75664, Note_on_c, 0, 72, 68
2, 75664, Control_c, 0, 64, 127
2, 75664, Note_on_c, 0, 69, 72
2, 75664, Note_on_c, 0, 64, 49
2, 75664, Note_on_c, 0, 60, 60
2, 75744, Note_on_c, 0, 60, 0
2, 75744, Note_on_c, 0, 64, 0
2, 75800, Note_on_c, 0, 72, 0
2, 75824, Note_on_c, 0, 69, 0
2, 75824, Note_on_c, 0, 54, 0
2, 75896, Note_on_c, 0, 71, 89
2, 75896, Note_on_c, 0, 74, 81
2, 75904, Note_on_c, 0, 62, 75
2, 75904, Note_on_c, 0, 57, 69
2, 75904, Note_on_c, 0, 51, 69
2, 75920, Control_c, 0, 64, 0
2, 75984, Note_on_c, 0, 62, 0
2, 76016, Note_on_c, 0, 74, 0
2, 76024, Note_on_c, 0, 57, 0
2, 76032, Note_on_c, 0, 71, 0
2, 76064, Note_on_c, 0, 57, 31
2, 76064, Note_on_c, 0, 62, 46
2, 76064, Note_on_c, 0, 72, 58
2, 76072, Note_on_c, 0, 69, 56
2, 76248, Note_on_c, 0, 62, 0
2, 76272, Note_on_c, 0, 57, 0
2, 76296, Note_on_c, 0, 51, 0
2, 76328, Note_on_c, 0, 72, 0
2, 76360, Note_on_c, 0, 69, 0
2, 76416, Note_on_c, 0, 62, 54
2, 76416, Note_on_c, 0, 67, 55
2, 76416, Note_on_c, 0, 51, 40
2, 76416, Note_on_c, 0, 57, 57
2, 76416, Note_on_c, 0, 71, 58
2, 76616, Note_on_c, 0, 57, 0
2, 76632, Note_on_c, 0, 62, 0
2, 76640, Note_on_c, 0, 51, 0
2, 76648, Note_on_c, 0, 71, 0
2, 76656, Note_on_c, 0, 67, 0
2, 76816, Note_on_c, 0, 66, 59
2, 76824, Note_on_c, 0, 69, 62
2, 76824, Note_on_c, 0, 57, 36
2, 76832, Note_on_c, 0, 54, 32
2, 76832, Note_on_c, 0, 60, 40
2, 76976, Note_on_c, 0, 60, 0
2, 76992, Note_on_c, 0, 57, 0
2, 77016, Note_on_c, 0, 66, 0
2, 77024, Note_on_c, 0, 54, 0
2, 77048, Note_on_c, 0, 69, 0
2, 77184, Note_on_c, 0, 54, 50
2, 77184, Note_on_c, 0, 67, 66
2, 77184, Note_on_c, 0, 64, 55
2, 77192, Note_on_c, 0, 60, 34
2, 77216, Note_on_c, 0, 57, 20
2, 77288, Note_on_c, 0, 60, 0
2, 77328, Note_on_c, 0, 57, 0
2, 77376, Note_on_c, 0, 54, 0
2, 77392, Note_on_c, 0, 67, 0
2, 77400, Note_on_c, 0, 64, 0
2, 77576, Note_on_c, 0, 66, 45
2, 77576, Note_on_c, 0, 51, 37
2, 77576, Note_on_c, 0, 63, 47
2, 77584, Note_on_c, 0, 57, 30
2, 77648, Note_on_c, 0, 57, 0
2, 77712, Note_on_c, 0, 51, 0
2, 77776, Note_on_c, 0, 63, 0
2, 77800, Note_on_c, 0, 63, 25
2, 77824, Note_on_c, 0, 59, 58
2, 77848, Note_on_c, 0, 51, 46
2, 77920, Note_on_c, 0, 59, 0
2, 77960, Note_on_c, 0, 51, 0
2, 77960, Control_c, 0, 64, 127
2, 77968, Note_on_c, 0, 63, 0
2, 77984, Note_on_c, 0, 66, 0
2, 78192, Note_on_c, 0, 69, 80
2, 78192, Note_on_c, 0, 66, 69
2, 78192, Note_on_c, 0, 59, 85
2, 78192, Note_on_c, 0, 62, 80
2, 78208, Note_on_c, 0, 57, 74
2, 78224, Control_c, 0, 64, 0
2, 78424, Control_c, 0, 64, 127
2, 78536, Note_on_c, 0, 69, 0
2, 78544, Note_on_c, 0, 62, 0
2, 78544, Note_on_c, 0, 59, 0
2, 78568, Note_on_c, 0, 66, 0
2, 78584, Note_on_c, 0, 57, 0
2, 78600, Note_on_c, 0, 55, 48
2, 78624, Control_c, 0, 64, 0
2, 78680, Note_on_c, 0, 55, 0
2, 78704, Note_on_c, 0, 66, 46
2, 78704, Control_c, 0, 64, 127
2, 78712, Note_on_c, 0, 57, 59
2, 78712, Note_on_c, 0, 69, 37
2, 78712, Note_on_c, 0, 59, 44
2, 78712, Note_on_c, 0, 62, 44
2, 78744, Note_on_c, 0, 62, 0
2, 78744, Note_on_c, 0, 69, 0
2, 78768, Note_on_c, 0, 59, 0
2, 78768, Note_on_c, 0, 66, 0
2, 78832, Note_on_c, 0, 57, 0
2, 78976, Note_on_c, 0, 72, 84
2, 78984, Note_on_c, 0, 61, 83
2, 78984, Note_on_c, 0, 65, 80
2, 78984, Note_on_c, 0, 69, 68
2, 78984, Note_on_c, 0, 60, 80
2, 78992, Control_c, 0, 64, 0
2, 79120, Control_c, 0, 64, 127
2, 79320, Note_on_c, 0, 69, 0
2, 79320, Note_on_c, 0, 65, 0
2, 79328, Note_on_c, 0, 72, 0
2, 79336, Note_on_c, 0, 61, 0
2, 79360, Note_on_c, 0, 60, 0
2, 79384, Note_on_c, 0, 57, 36
2, 79416, Control_c, 0, 64, 0
2, 79432, Note_on_c, 0, 57, 0
2, 79472, Note_on_c, 0, 65, 61
2, 79472, Note_on_c, 0, 61, 57
2, 79472, Note_on_c, 0, 72, 47
2, 79480, Note_on_c, 0, 60, 57
2, 79480, Control_c, 0, 64, 127
2, 79488, Note_on_c, 0, 69, 38
2, 79528, Note_on_c, 0, 65, 0
2, 79536, Note_on_c, 0, 61, 0
2, 79536, Note_on_c, 0, 69, 0
2, 79552, Note_on_c, 0, 72, 0
2, 79560, Note_on_c, 0, 60, 0
2, 79752, Note_on_c, 0, 69, 82
2, 79752, Note_on_c, 0, 76, 81
2, 79752, Note_on_c, 0, 65, 84
2, 79752, Note_on_c, 0, 72, 70
2, 79760, Control_c, 0, 64, 0
2, 79768, Note_on_c, 0, 64, 80
2, 79864, Control_c, 0, 64, 127
2, 79968, Note_on_c, 0, 65, 0
2, 79984, Note_on_c, 0, 69, 0
2, 79984, Note_on_c, 0, 76, 0
2, 79992, Note_on_c, 0, 72, 0
2, 80072, Note_on_c, 0, 64, 0
2, 80176, Note_on_c, 0, 62, 36
2, 80200, Control_c, 0, 64, 0
2, 80224, Note_on_c, 0, 62, 0
2, 80240, Note_on_c, 0, 79, 65
2, 80240, Note_on_c, 0, 72, 66
2, 80248, Note_on_c, 0, 76, 58
2, 80248, Note_on_c, 0, 69, 64
2, 80256, Control_c, 0, 64, 127
2, 80264, Note_on_c, 0, 64, 68
2, 80304, Note_on_c, 0, 69, 0
2, 80312, Note_on_c, 0, 72, 0
2, 80320, Note_on_c, 0, 76, 0
2, 80328, Note_on_c, 0, 79, 0
2, 80384, Note_on_c, 0, 64, 0
2, 80528, Control_c, 0, 64, 0
2, 80528, Note_on_c, 0, 82, 77
2, 80528, Note_on_c, 0, 75, 75
2, 80536, Note_on_c, 0, 59, 63
2, 80536, Note_on_c, 0, 53, 68
2, 80536, Note_on_c, 0, 71, 71
2, 80536, Note_on_c, 0, 79, 60
2, 80536, Note_on_c, 0, 64, 66
2, 80640, Control_c, 0, 64, 127
2, 80776, Note_on_c, 0, 64, 0
2, 80776, Note_on_c, 0, 53, 0
2, 80776, Note_on_c, 0, 79, 0
2, 80792, Note_on_c, 0, 82, 0
2, 80792, Note_on_c, 0, 71, 0
2, 80816, Note_on_c, 0, 59, 0
2, 80816, Note_on_c, 0, 75, 0
2, 80912, Note_on_c, 0, 80, 71
2, 80912, Note_on_c, 0, 75, 75
2, 80920, Note_on_c, 0, 70, 72
2, 80920, Control_c, 0, 64, 0
2, 80928, Note_on_c, 0, 53, 65
2, 80928, Note_on_c, 0, 63, 68
2, 80928, Note_on_c, 0, 59, 57
2, 81016, Control_c, 0, 64, 127
2, 81024, Note_on_c, 0, 59, 0
2, 81192, Note_on_c, 0, 53, 0
2, 81200, Note_on_c, 0, 63, 0
2, 81304, Note_on_c, 0, 70, 0
2, 81304, Note_on_c, 0, 80, 0
2, 81312, Note_on_c, 0, 75, 0
2, 81384, Note_on_c, 0, 62, 44
2, 81384, Note_on_c, 0, 79, 55
2, 81392, Note_on_c, 0, 69, 47
2, 81392, Note_on_c, 0, 57, 46
2, 81392, Note_on_c, 0, 52, 45
2, 81392, Note_on_c, 0, 74, 53
2, 81432, Control_c, 0, 64, 0
2, 81472, Note_on_c, 0, 69, 0
2, 81608, Note_on_c, 0, 74, 0
2, 81624, Note_on_c, 0, 79, 0
2, 81656, Note_on_c, 0, 72, 65
2, 81736, Note_on_c, 0, 72, 0
2, 81744, Note_on_c, 0, 52, 0
2, 81744, Note_on_c, 0, 57, 0
2, 81784, Note_on_c, 0, 76, 50
2, 81816, Note_on_c, 0, 62, 0
2, 81992, Note_on_c, 0, 76, 0
2, 82032, Note_on_c, 0, 79, 63
2, 82088, Note_on_c, 0, 79, 0
2, 82200, Note_on_c, 0, 72, 72
2, 82200, Note_on_c, 0, 78, 61
2, 82200, Note_on_c, 0, 83, 73
2, 82200, Note_on_c, 0, 75, 56
2, 82232, Note_on_c, 0, 71, 53
2, 82272, Note_on_c, 0, 72, 0
2, 82288, Note_on_c, 0, 75, 0
2, 82296, Note_on_c, 0, 78, 0
2, 82296, Note_on_c, 0, 71, 0
2, 82304, Note_on_c, 0, 83, 0
2, 82432, Note_on_c, 0, 83, 72
2, 82432, Note_on_c, 0, 71, 54
2, 82432, Note_on_c, 0, 75, 61
2, 82432, Note_on_c, 0, 72, 67
2, 82440, Note_on_c, 0, 78, 56
2, 82488, Note_on_c, 0, 83, 0
2, 82512, Note_on_c, 0, 75, 0
2, 82520, Note_on_c, 0, 72, 0
2, 82536, Note_on_c, 0, 71, 0
2, 82544, Note_on_c, 0, 78, 0
2, 82584, Note_on_c, 0, 70, 48
2, 82608, Note_on_c, 0, 82, 57
2, 82624, Note_on_c, 0, 75, 36
2, 82632, Note_on_c, 0, 72, 24
2, 82664, Note_on_c, 0, 72, 0
2, 82672, Note_on_c, 0, 75, 0
2, 82672, Note_on_c, 0, 82, 0
2, 82712, Note_on_c, 0, 70, 0
2, 82816, Note_on_c, 0, 81, 60
2, 82816, Note_on_c, 0, 69, 65
2, 82816, Note_on_c, 0, 72, 67
2, 82824, Note_on_c, 0, 75, 59
2, 82848, Note_on_c, 0, 81, 0
2, 82864, Note_on_c, 0, 69, 0
2, 82864, Note_on_c, 0, 75, 0
2, 82880, Note_on_c, 0, 72, 0
2, 82992, Note_on_c, 0, 61, 30
2, 83000, Note_on_c, 0, 63, 53
2, 83040, Note_on_c, 0, 63, 0
2, 83040, Note_on_c, 0, 64, 60
2, 83048, Note_on_c, 0, 77, 68
2, 83048, Note_on_c, 0, 68, 56
2, 83056, Note_on_c, 0, 61, 0
2, 83064, Note_on_c, 0, 72, 53
2, 83072, Note_on_c, 0, 65, 53
2, 83096, Note_on_c, 0, 64, 0
2, 83112, Note_on_c, 0, 74, 20
2, 83168, Note_on_c, 0, 74, 0
2, 83168, Control_c, 0, 64, 127
2, 83232, Note_on_c, 0, 72, 0
2, 83256, Note_on_c, 0, 68, 0
2, 83272, Control_c, 0, 64, 0
2, 83288, Note_on_c, 0, 65, 0
2, 83296, Note_on_c, 0, 77, 0
2, 83320, Note_on_c, 0, 68, 39
2, 83320, Note_on_c, 0, 60, 44
2, 83376, Note_on_c, 0, 68, 0
2, 83408, Control_c, 0, 64, 127
2, 83536, Note_on_c, 0, 60, 0
2, 83576, Note_on_c, 0, 70, 55
2, 83576, Note_on_c, 0, 76, 58
2, 83576, Note_on_c, 0, 64, 62
2, 83576, Control_c, 0, 64, 0
2, 83576, Note_on_c, 0, 73, 47
2, 83576, Note_on_c, 0, 67, 56
2, 83624, Note_on_c, 0, 67, 0
2, 83624, Note_on_c, 0, 64, 0
2, 83632, Note_on_c, 0, 76, 0
2, 83640, Note_on_c, 0, 70, 0
2, 83640, Note_on_c, 0, 73, 0
2, 83960, Note_on_c, 0, 65, 39
2, 83960, Note_on_c, 0, 51, 55
2, 83968, Note_on_c, 0, 52, 64
2, 83968, Note_on_c, 0, 64, 46
2, 83968, Note_on_c, 0, 58, 56
2, 83976, Note_on_c, 0, 55, 64
2, 83976, Note_on_c, 0, 57, 51
2, 83984, Note_on_c, 0, 63, 29
2, 84000, Note_on_c, 0, 57, 0
2, 84000, Note_on_c, 0, 51, 0
2, 84008, Note_on_c, 0, 63, 0
2, 84008, Note_on_c, 0, 65, 0
2, 84024, Note_on_c, 0, 64, 0
2, 84032, Note_on_c, 0, 55, 0
2, 84056, Note_on_c, 0, 58, 0
2, 84104, Note_on_c, 0, 52, 0
2, 84128, Note_on_c, 0, 51, 48
2, 84296, Control_c, 0, 64, 127
2, 84352, Note_on_c, 0, 51, 0
2, 84368, Note_on_c, 0, 58, 53
2, 84368, Note_on_c, 0, 64, 38
2, 84368, Note_on_c, 0, 61, 55
2, 84368, Note_on_c, 0, 55, 61
2, 84368, Note_on_c, 0, 52, 58
2, 84408, Note_on_c, 0, 64, 0
2, 84416, Note_on_c, 0, 55, 0
2, 84432, Note_on_c, 0, 52, 0
2, 84448, Note_on_c, 0, 58, 0
2, 84456, Note_on_c, 0, 61, 0
2, 84488, Control_c, 0, 64, 0
2, 84512, Note_on_c, 0, 56, 52
2, 84520, Note_on_c, 0, 64, 60
2, 84528, Note_on_c, 0, 53, 48
2, 84536, Note_on_c, 0, 60, 32
2, 84552, Note_on_c, 0, 59, 24
2, 84568, Note_on_c, 0, 60, 0
2, 84696, Note_on_c, 0, 59, 0
2, 84712, Note_on_c, 0, 53, 0
2, 84720, Note_on_c, 0, 56, 0
2, 84760, Note_on_c, 0, 64, 0
2, 84864, Note_on_c, 0, 50, 29
2, 84880, Note_on_c, 0, 56, 43
2, 84888, Note_on_c, 0, 50, 0
2, 84888, Note_on_c, 0, 60, 47
2, 84896, Note_on_c, 0, 52, 51
2, 84896, Note_on_c, 0, 64, 38
2, 84896, Note_on_c, 0, 53, 42
2, 85040, Note_on_c, 0, 53, 0
2, 85072, Note_on_c, 0, 60, 0
2, 85088, Note_on_c, 0, 56, 0
2, 85088, Note_on_c, 0, 64, 0
2, 85096, Note_on_c, 0, 52, 0
2, 85152, Note_on_c, 0, 48, 48
2, 85184, Note_on_c, 0, 48, 0
2, 85240, Note_on_c, 0, 56, 43
2, 85240, Note_on_c, 0, 64, 43
2, 85248, Note_on_c, 0, 52, 54
2, 85248, Note_on_c, 0, 53, 39
2, 85248, Note_on_c, 0, 60, 48
2, 85336, Control_c, 0, 64, 127
2, 85392, Note_on_c, 0, 60, 0
2, 85392, Note_on_c, 0, 53, 0
2, 85432, Note_on_c, 0, 56, 0
2, 85456, Note_on_c, 0, 64, 0
2, 85480, Note_on_c, 0, 52, 0
2, 85488, Control_c, 0, 64, 0
2, 85496, Note_on_c, 0, 56, 40
2, 85504, Note_on_c, 0, 60, 59
2, 85512, Note_on_c, 0, 53, 45
2, 85520, Note_on_c, 0, 48, 53
2, 85584, Control_c, 0, 64, 127
2, 85720, Note_on_c, 0, 53, 0
2, 85768, Note_on_c, 0, 56, 0
2, 85792, Note_on_c, 0, 60, 0
2, 85808, Note_on_c, 0, 48, 0
2, 86360, Note_on_c, 0, 58, 74
2, 86360, Note_on_c, 0, 65, 88
2, 86360, Note_on_c, 0, 54, 80
2, 86368, Note_on_c, 0, 60, 77
2, 86368, Control_c, 0, 64, 0
2, 86376, Note_on_c, 0, 64, 64
2, 86400, Note_on_c, 0, 64, 0
2, 86648, Note_on_c, 0, 65, 0
2, 86656, Note_on_c, 0, 60, 0
2, 86696, Note_on_c, 0, 58, 0
2, 86728, Note_on_c, 0, 54, 0
2, 86992, Note_on_c, 0, 61, 64
2, 87024, Note_on_c, 0, 64, 47
2, 87032, Note_on_c, 0, 55, 51
2, 87112, Control_c, 0, 64, 127
2, 87120, Note_on_c, 0, 61, 0
2, 87120, Note_on_c, 0, 60, 43
2, 87128, Note_on_c, 0, 55, 0
2, 87144, Note_on_c, 0, 60, 0
2, 87184, Note_on_c, 0, 64, 0
2, 87304, Note_on_c, 0, 57, 50
2, 87352, Note_on_c, 0, 58, 38
2, 87368, Note_on_c, 0, 68, 78
2, 87376, Note_on_c, 0, 58, 0
2, 87376, Note_on_c, 0, 57, 0
2, 87376, Note_on_c, 0, 59, 66
2, 87376, Control_c, 0, 64, 0
2, 87384, Note_on_c, 0, 65, 74
2, 87392, Note_on_c, 0, 59, 0
2, 87392, Note_on_c, 0, 60, 78
2, 87424, Note_on_c, 0, 68, 0
2, 87424, Note_on_c, 0, 69, 81
2, 87536, Control_c, 0, 64, 127
2, 87712, Note_on_c, 0, 65, 0
2, 87752, Note_on_c, 0, 69, 0
2, 87776, Note_on_c, 0, 72, 58
2, 87784, Note_on_c, 0, 60, 0
2, 87784, Note_on_c, 0, 64, 54
2, 87832, Note_on_c, 0, 72, 0
2, 87904, Control_c, 0, 64, 0
2, 87904, Note_on_c, 0, 72, 51
2, 87912, Note_on_c, 0, 79, 65
2, 87912, Note_on_c, 0, 69, 52
2, 87920, Note_on_c, 0, 65, 62
2, 87944, Note_on_c, 0, 64, 0
2, 87952, Note_on_c, 0, 65, 0
2, 88088, Note_on_c, 0, 69, 0
2, 88128, Note_on_c, 0, 72, 0
2, 88160, Note_on_c, 0, 79, 0
2, 88320, Note_on_c, 0, 79, 50
2, 88328, Note_on_c, 0, 64, 46
2, 88328, Note_on_c, 0, 76, 40
2, 88328, Note_on_c, 0, 72, 42
2, 88336, Note_on_c, 0, 69, 36
2, 88408, Note_on_c, 0, 72, 0
2, 88416, Note_on_c, 0, 76, 0
2, 88416, Note_on_c, 0, 69, 0
2, 88424, Note_on_c, 0, 64, 0
2, 88432, Note_on_c, 0, 79, 0
2, 88688, Note_on_c, 0, 62, 45
2, 88696, Note_on_c, 0, 77, 45
2, 88696, Note_on_c, 0, 72, 41
2, 88704, Note_on_c, 0, 69, 33
2, 88712, Control_c, 0, 64, 127
2, 88736, Note_on_c, 0, 62, 0
2, 88800, Note_on_c, 0, 77, 0
2, 88800, Note_on_c, 0, 69, 0
2, 88808, Note_on_c, 0, 72, 0
2, 89048, Control_c, 0, 64, 0
2, 89080, Note_on_c, 0, 76, 46
2, 89088, Note_on_c, 0, 64, 24
2, 89088, Note_on_c, 0, 57, 35
2, 89096, Note_on_c, 0, 62, 26
2, 89096, Note_on_c, 0, 71, 37
2, 89136, Control_c, 0, 64, 127
2, 89328, Note_on_c, 0, 71, 0
2, 89328, Note_on_c, 0, 76, 0
2, 89416, Note_on_c, 0, 69, 51
2, 89448, Note_on_c, 0, 64, 0
2, 89456, Note_on_c, 0, 62, 0
2, 89456, Note_on_c, 0, 69, 0
2, 89456, Control_c, 0, 64, 0
2, 89472, Note_on_c, 0, 71, 63
2, 89488, Note_on_c, 0, 57, 0
2, 89528, Note_on_c, 0, 71, 0
2, 89536, Note_on_c, 0, 74, 66
2, 89584, Note_on_c, 0, 74, 0
2, 89584, Note_on_c, 0, 71, 48
2, 89640, Note_on_c, 0, 72, 51
2, 89648, Note_on_c, 0, 71, 0
2, 89696, Note_on_c, 0, 72, 0
2, 89712, Note_on_c, 0, 76, 59
2, 89736, Note_on_c, 0, 76, 0
2, 89744, Note_on_c, 0, 72, 51
2, 89800, Note_on_c, 0, 72, 0
2, 89800, Note_on_c, 0, 74, 60
2, 89848, Note_on_c, 0, 74, 0
2, 89856, Note_on_c, 0, 77, 55
2, 89896, Note_on_c, 0, 77, 0
2, 89904, Note_on_c, 0, 74, 49
2, 89968, Note_on_c, 0, 74, 0
2, 89968, Note_on_c, 0, 76, 57
2, 90024, Note_on_c, 0, 76, 0
2, 90032, Note_on_c, 0, 79, 53
2, 90096, Note_on_c, 0, 79, 0
2, 90112, Note_on_c, 0, 76, 58
2, 90136, Note_on_c, 0, 67, 35
2, 90152, Note_on_c, 0, 62, 41
2, 90160, Note_on_c, 0, 56, 33
2, 90176, Note_on_c, 0, 76, 0
2, 90192, Note_on_c, 0, 77, 42
2, 90272, Note_on_c, 0, 77, 0
2, 90288, Note_on_c, 0, 78, 38
2, 90312, Note_on_c, 0, 78, 0
2, 90328, Note_on_c, 0, 79, 53
2, 90336, Note_on_c, 0, 67, 0
2, 90392, Note_on_c, 0, 79, 0
2, 90416, Note_on_c, 0, 62, 0
2, 90416, Note_on_c, 0, 80, 53
2, 90432, Note_on_c, 0, 80, 0
2, 90480, Note_on_c, 0, 81, 36
2, 90512, Note_on_c, 0, 81, 0
2, 90520, Note_on_c, 0, 82, 44
2, 90544, Note_on_c, 0, 56, 0
2, 90600, Note_on_c, 0, 82, 0
2, 90608, Note_on_c, 0, 83, 58
2, 90656, Note_on_c, 0, 83, 0
2, 90656, Note_on_c, 0, 86, 74
2, 90696, Note_on_c, 0, 64, 38
2, 90720, Note_on_c, 0, 86, 0
2, 90720, Note_on_c, 0, 57, 24
2, 90728, Note_on_c, 0, 60, 24
2, 90736, Note_on_c, 0, 59, 24
2, 90744, Note_on_c, 0, 83, 58
2, 90800, Note_on_c, 0, 83, 0
2, 90824, Note_on_c, 0, 59, 0
2, 90824, Note_on_c, 0, 84, 47
2, 90880, Note_on_c, 0, 84, 0
2, 90896, Note_on_c, 0, 88, 33
2, 90928, Note_on_c, 0, 88, 0
2, 90936, Note_on_c, 0, 91, 58
2, 90960, Note_on_c, 0, 91, 0
2, 91016, Note_on_c, 0, 95, 63
2, 91016, Note_on_c, 0, 93, 54
2, 91040, Note_on_c, 0, 93, 0
2, 91048, Note_on_c, 0, 95, 0
2, 91064, Note_on_c, 0, 64, 0
2, 91080, Note_on_c, 0, 86, 67
2, 91088, Note_on_c, 0, 98, 49
2, 91096, Note_on_c, 0, 96, 62
2, 91144, Note_on_c, 0, 60, 0
2, 91168, Note_on_c, 0, 96, 0
2, 91184, Note_on_c, 0, 98, 0
2, 91200, Note_on_c, 0, 86, 0
2, 91232, Note_on_c, 0, 57, 0
2, 91232, Note_on_c, 0, 98, 75
2, 91240, Note_on_c, 0, 86, 66
2, 91288, Note_on_c, 0, 86, 0
2, 91296, Note_on_c, 0, 98, 0
2, 91368, Note_on_c, 0, 98, 79
2, 91368, Note_on_c, 0, 86, 74
2, 91376, Note_on_c, 0, 56, 44
2, 91384, Note_on_c, 0, 64, 45
2, 91400, Note_on_c, 0, 60, 34
2, 91488, Note_on_c, 0, 86, 0
2, 91488, Note_on_c, 0, 98, 0
2, 91496, Note_on_c, 0, 96, 57
2, 91536, Note_on_c, 0, 96, 0
2, 91584, Note_on_c, 0, 98, 78
2, 91592, Note_on_c, 0, 86, 64
2, 91656, Note_on_c, 0, 98, 0
2, 91664, Note_on_c, 0, 86, 0
2, 91840, Note_on_c, 0, 60, 0
2, 91856, Note_on_c, 0, 64, 0
2, 91896, Note_on_c, 0, 56, 0
2, 91992, Note_on_c, 0, 64, 49
2, 91992, Note_on_c, 0, 60, 41
2, 91992, Note_on_c, 0, 55, 44
2, 92424, Note_on_c, 0, 84, 88
2, 92424, Note_on_c, 0, 72, 85
2, 92456, Note_on_c, 0, 64, 0
2, 92488, Note_on_c, 0, 84, 0
2, 92488, Note_on_c, 0, 72, 0
2, 92496, Note_on_c, 0, 60, 0
2, 92528, Note_on_c, 0, 55, 0
2, 92560, Note_on_c, 0, 78, 36
2, 92656, Note_on_c, 0, 78, 0
2, 92688, Note_on_c, 0, 79, 41
2, 92752, Note_on_c, 0, 79, 0
2, 92800, Note_on_c, 0, 84, 87
2, 92800, Note_on_c, 0, 72, 79
2, 92824, Note_on_c, 0, 62, 39
2, 92824, Note_on_c, 0, 58, 32
2, 92832, Note_on_c, 0, 52, 44
2, 92880, Note_on_c, 0, 84, 0
2, 92896, Note_on_c, 0, 72, 0
2, 92936, Note_on_c, 0, 78, 34
2, 93048, Note_on_c, 0, 62, 0
2, 93064, Note_on_c, 0, 78, 0
2, 93072, Note_on_c, 0, 58, 0
2, 93080, Note_on_c, 0, 79, 43
2, 93144, Note_on_c, 0, 79, 0
2, 93176, Note_on_c, 0, 84, 80
2, 93248, Note_on_c, 0, 58, 35
2, 93256, Note_on_c, 0, 62, 34
2, 93272, Note_on_c, 0, 84, 0
2, 93328, Note_on_c, 0, 78, 26
2, 93352, Note_on_c, 0, 78, 0
2, 93360, Note_on_c, 0, 52, 0
2, 93392, Note_on_c, 0, 58, 0
2, 93448, Note_on_c, 0, 79, 44
2, 93488, Note_on_c, 0, 62, 0
2, 93504, Note_on_c, 0, 79, 0
2, 93568, Note_on_c, 0, 84, 85
2, 93616, Note_on_c, 0, 53, 31
2, 93616, Note_on_c, 0, 64, 27
2, 93616, Note_on_c, 0, 57, 40
2, 93624, Note_on_c, 0, 60, 34
2, 93664, Note_on_c, 0, 84, 0
2, 93704, Note_on_c, 0, 79, 42
2, 93752, Note_on_c, 0, 64, 0
2, 93768, Note_on_c, 0, 60, 0
2, 93776, Note_on_c, 0, 79, 0
2, 93800, Note_on_c, 0, 80, 44
2, 93864, Note_on_c, 0, 79, 37
2, 93928, Note_on_c, 0, 80, 0
2, 93944, Note_on_c, 0, 79, 0
2, 93968, Note_on_c, 0, 76, 37
2, 93968, Note_on_c, 0, 60, 34
2, 94032, Note_on_c, 0, 76, 0
2, 94056, Note_on_c, 0, 64, 48
2, 94080, Note_on_c, 0, 79, 77
2, 94096, Note_on_c, 0, 60, 0
2, 94104, Note_on_c, 0, 64, 0
2, 94304, Note_on_c, 0, 79, 0
2, 94328, Note_on_c, 0, 77, 75
2, 94352, Note_on_c, 0, 64, 33
2, 94360, Note_on_c, 0, 60, 29
2, 94384, Note_on_c, 0, 64, 0
2, 94400, Note_on_c, 0, 60, 0
2, 94416, Note_on_c, 0, 77, 0
2, 94488, Note_on_c, 0, 76, 44
2, 94616, Note_on_c, 0, 53, 0
2, 94656, Note_on_c, 0, 57, 0
2, 94688, Control_c, 0, 64, 127
2, 94712, Note_on_c, 0, 76, 0
2, 94728, Note_on_c, 0, 72, 72
2, 94728, Note_on_c, 0, 60, 40
2, 94728, Note_on_c, 0, 57, 43
2, 94760, Note_on_c, 0, 60, 0
2, 94800, Note_on_c, 0, 72, 0
2, 94816, Note_on_c, 0, 57, 0
2, 94816, Control_c, 0, 64, 0
2, 94872, Note_on_c, 0, 69, 28
2, 95088, Note_on_c, 0, 69, 0
2, 95096, Note_on_c, 0, 65, 67
2, 95112, Note_on_c, 0, 56, 33
2, 95136, Note_on_c, 0, 53, 26
2, 95136, Note_on_c, 0, 60, 22
2, 95160, Note_on_c, 0, 65, 0
2, 95168, Note_on_c, 0, 53, 0
2, 95176, Note_on_c, 0, 56, 0
2, 95176, Note_on_c, 0, 60, 0
2, 95296, Note_on_c, 0, 67, 24
2, 95352, Note_on_c, 0, 67, 0
2, 95352, Note_on_c, 0, 68, 57
2, 95440, Note_on_c, 0, 68, 0
2, 95440, Note_on_c, 0, 67, 44
2, 95488, Note_on_c, 0, 56, 26
2, 95496, Note_on_c, 0, 67, 0
2, 95496, Note_on_c, 0, 64, 71
2, 95552, Note_on_c, 0, 64, 0
2, 95560, Note_on_c, 0, 56, 0
2, 95608, Note_on_c, 0, 67, 83
2, 95872, Note_on_c, 0, 64, 33
2, 95928, Note_on_c, 0, 67, 0
2, 95944, Note_on_c, 0, 64, 0
2, 96008, Note_on_c, 0, 65, 69
2, 96048, Control_c, 0, 64, 127
2, 96232, Note_on_c, 0, 60, 49
2, 96240, Note_on_c, 0, 56, 36
2, 96296, Note_on_c, 0, 65, 0
2, 96296, Control_c, 0, 64, 0
2, 96320, Note_on_c, 0, 56, 0
2, 96336, Note_on_c, 0, 60, 0
2, 96368, Note_on_c, 0, 62, 47
2, 96456, Note_on_c, 0, 62, 0
2, 96480, Note_on_c, 0, 63, 62
2, 96536, Note_on_c, 0, 63, 0
2, 96576, Note_on_c, 0, 64, 73
2, 96656, Note_on_c, 0, 64, 0
2, 96680, Note_on_c, 0, 67, 62
2, 96688, Note_on_c, 0, 59, 26
2, 96704, Note_on_c, 0, 52, 28
2, 96704, Note_on_c, 0, 55, 29
2, 96768, Note_on_c, 0, 67, 0
2, 96776, Note_on_c, 0, 71, 57
2, 96832, Note_on_c, 0, 59, 0
2, 96848, Note_on_c, 0, 71, 0
2, 96872, Note_on_c, 0, 74, 64
2, 96896, Note_on_c, 0, 55, 0
2, 96920, Note_on_c, 0, 74, 0
2, 96952, Note_on_c, 0, 71, 62
2, 97032, Note_on_c, 0, 71, 0
2, 97040, Note_on_c, 0, 72, 62
2, 97096, Note_on_c, 0, 62, 17
2, 97136, Note_on_c, 0, 72, 0
2, 97144, Note_on_c, 0, 74, 56
2, 97168, Note_on_c, 0, 52, 0
2, 97192, Note_on_c, 0, 74, 0
2, 97232, Note_on_c, 0, 62, 0
2, 97232, Note_on_c, 0, 75, 44
2, 97280, Note_on_c, 0, 75, 0
2, 97320, Note_on_c, 0, 76, 62
2, 97368, Control_c, 0, 64, 127
2, 97392, Note_on_c, 0, 76, 0
2, 97432, Note_on_c, 0, 77, 64
2, 97456, Control_c, 0, 64, 0
2, 97504, Note_on_c, 0, 77, 0
2, 97520, Note_on_c, 0, 63, 35
2, 97520, Note_on_c, 0, 66, 28
2, 97528, Note_on_c, 0, 78, 64
2, 97536, Note_on_c, 0, 57, 38
2, 97552, Note_on_c, 0, 61, 34
2, 97656, Note_on_c, 0, 78, 0
2, 97664, Note_on_c, 0, 63, 0
2, 97680, Note_on_c, 0, 71, 65
2, 97728, Note_on_c, 0, 71, 0
2, 97880, Control_c, 0, 64, 127
2, 98016, Note_on_c, 0, 57, 0
2, 98072, Note_on_c, 0, 66, 0
2, 98104, Note_on_c, 0, 61, 0
2, 98160, Note_on_c, 0, 62, 73
2, 98160, Note_on_c, 0, 67, 71
2, 98176, Note_on_c, 0, 56, 48
2, 98184, Control_c, 0, 64, 0
2, 98192, Note_on_c, 0, 60, 35
2, 98440, Control_c, 0, 64, 127
2, 98584, Note_on_c, 0, 86, 92
2, 98632, Note_on_c, 0, 86, 0
2, 98640, Control_c, 0, 64, 0
2, 98800, Note_on_c, 0, 67, 0
2, 98832, Note_on_c, 0, 62, 0
2, 98856, Note_on_c, 0, 60, 0
2, 98920, Note_on_c, 0, 56, 0
2, 98944, Note_on_c, 0, 55, 72
2, 98944, Note_on_c, 0, 61, 60
2, 98944, Note_on_c, 0, 65, 67
2, 99208, Control_c, 0, 64, 127
2, 99336, Note_on_c, 0, 88, 89
2, 99344, Note_on_c, 0, 76, 87
2, 99400, Note_on_c, 0, 76, 0
2, 99424, Control_c, 0, 64, 0
2, 99440, Note_on_c, 0, 88, 0
2, 99480, Note_on_c, 0, 84, 60
2, 99600, Note_on_c, 0, 84, 0
2, 99728, Note_on_c, 0, 76, 76
2, 99728, Note_on_c, 0, 88, 66
2, 99744, Note_on_c, 0, 82, 30
2, 99752, Note_on_c, 0, 88, 0
2, 99768, Note_on_c, 0, 55, 0
2, 99776, Note_on_c, 0, 76, 0
2, 99776, Note_on_c, 0, 65, 0
2, 99784, Note_on_c, 0, 82, 0
2, 99832, Note_on_c, 0, 61, 0
2, 99840, Note_on_c, 0, 87, 80
2, 99840, Note_on_c, 0, 75, 72
2, 99856, Note_on_c, 0, 54, 45
2, 99864, Note_on_c, 0, 64, 34
2, 99872, Note_on_c, 0, 60, 25
2, 100040, Note_on_c, 0, 64, 0
2, 100040, Note_on_c, 0, 75, 0
2, 100056, Note_on_c, 0, 87, 0
2, 100056, Note_on_c, 0, 54, 0
2, 100064, Note_on_c, 0, 60, 0
2, 100136, Note_on_c, 0, 60, 34
2, 100136, Note_on_c, 0, 54, 37
2, 100136, Note_on_c, 0, 64, 36
2, 100144, Note_on_c, 0, 71, 34
2, 100144, Note_on_c, 0, 72, 39
2, 100144, Note_on_c, 0, 82, 30
2, 100160, Note_on_c, 0, 54, 0
2, 100168, Note_on_c, 0, 64, 0
2, 100168, Note_on_c, 0, 71, 0
2, 100168, Note_on_c, 0, 72, 0
2, 100168, Note_on_c, 0, 82, 0
2, 100176, Note_on_c, 0, 60, 0
2, 100224, Note_on_c, 0, 64, 49
2, 100224, Note_on_c, 0, 54, 50
2, 100232, Note_on_c, 0, 86, 56
2, 100232, Note_on_c, 0, 60, 56
2, 100232, Note_on_c, 0, 72, 50
2, 100232, Note_on_c, 0, 74, 46
2, 100256, Note_on_c, 0, 85, 25
2, 100280, Note_on_c, 0, 72, 0
2, 100288, Note_on_c, 0, 85, 0
2, 100408, Control_c, 0, 64, 127
2, 100448, Note_on_c, 0, 86, 0
2, 100456, Note_on_c, 0, 74, 0
2, 100472, Note_on_c, 0, 64, 0
2, 100488, Note_on_c, 0, 60, 0
2, 100488, Note_on_c, 0, 54, 0
2, 100512, Control_c, 0, 64, 0
2, 100592, Note_on_c, 0, 64, 48
2, 100592, Note_on_c, 0, 54, 36
2, 100600, Note_on_c, 0, 84, 60
2, 100608, Note_on_c, 0, 60, 42
2, 100616, Note_on_c, 0, 72, 48
2, 100648, Note_on_c, 0, 60, 0
2, 100656, Note_on_c, 0, 64, 0
2, 100664, Note_on_c, 0, 84, 0
2, 100680, Note_on_c, 0, 54, 0
2, 100720, Note_on_c, 0, 72, 0
2, 100976, Note_on_c, 0, 54, 46
2, 100976, Note_on_c, 0, 64, 35
2, 100976, Note_on_c, 0, 60, 47
2, 100984, Note_on_c, 0, 69, 58
2, 101000, Note_on_c, 0, 81, 25
2, 101040, Note_on_c, 0, 64, 0
2, 101064, Note_on_c, 0, 69, 0
2, 101072, Note_on_c, 0, 60, 0
2, 101088, Note_on_c, 0, 81, 0
2, 101128, Note_on_c, 0, 54, 0
2, 101368, Control_c, 0, 64, 127
2, 101376, Note_on_c, 0, 59, 58
2, 101376, Note_on_c, 0, 64, 66
2, 101384, Note_on_c, 0, 75, 74
2, 101384, Note_on_c, 0, 87, 78
2, 101384, Note_on_c, 0, 53, 50
2, 101448, Note_on_c, 0, 64, 0
2, 101488, Note_on_c, 0, 87, 0
2, 101496, Note_on_c, 0, 53, 0
2, 101504, Note_on_c, 0, 59, 0
2, 101520, Note_on_c, 0, 75, 0
2, 101640, Note_on_c, 0, 90, 68
2, 101648, Note_on_c, 0, 75, 74
2, 101648, Note_on_c, 0, 64, 74
2, 101656, Note_on_c, 0, 53, 69
2, 101656, Note_on_c, 0, 59, 62
2, 101736, Note_on_c, 0, 64, 0
2, 101736, Control_c, 0, 64, 0
2, 101744, Note_on_c, 0, 59, 0
2, 101744, Note_on_c, 0, 90, 0
2, 101752, Note_on_c, 0, 75, 0
2, 101752, Note_on_c, 0, 53, 0
2, 101840, Note_on_c, 0, 87, 44
2, 101960, Note_on_c, 0, 87, 0
2, 102032, Note_on_c, 0, 90, 68
2, 102040, Note_on_c, 0, 75, 70
2, 102040, Note_on_c, 0, 59, 59
2, 102040, Note_on_c, 0, 53, 70
2, 102040, Note_on_c, 0, 64, 67
2, 102128, Note_on_c, 0, 90, 0
2, 102152, Note_on_c, 0, 75, 0
2, 102208, Note_on_c, 0, 90, 57
2, 102224, Note_on_c, 0, 75, 43
2, 102312, Note_on_c, 0, 53, 0
2, 102336, Note_on_c, 0, 64, 0
2, 102336, Note_on_c, 0, 75, 0
2, 102336, Note_on_c, 0, 59, 0
2, 102376, Note_on_c, 0, 90, 0
2, 102440, Note_on_c, 0, 87, 53
2, 102456, Note_on_c, 0, 59, 50
2, 102456, Note_on_c, 0, 53, 48
2, 102488, Note_on_c, 0, 53, 0
2, 102496, Note_on_c, 0, 87, 0
2, 102504, Note_on_c, 0, 59, 0
2, 102560, Note_on_c, 0, 53, 55
2, 102560, Note_on_c, 0, 59, 40
2, 102568, Note_on_c, 0, 75, 56
2, 102576, Note_on_c, 0, 90, 49
2, 102576, Note_on_c, 0, 64, 30
2, 102600, Note_on_c, 0, 90, 0
2, 102608, Note_on_c, 0, 64, 0
2, 102616, Note_on_c, 0, 75, 0
2, 102632, Note_on_c, 0, 59, 0
2, 102632, Note_on_c, 0, 53, 0
2, 102784, Note_on_c, 0, 53, 62
2, 102784, Note_on_c, 0, 59, 50
2, 102784, Note_on_c, 0, 64, 42
2, 102792, Note_on_c, 0, 90, 70
2, 102800, Note_on_c, 0, 75, 62
2, 102816, Note_on_c, 0, 64, 0
2, 102816, Note_on_c, 0, 59, 0
2, 102872, Note_on_c, 0, 75, 0
2, 102880, Note_on_c, 0, 53, 0
2, 102888, Note_on_c, 0, 90, 0
2, 102952, Note_on_c, 0, 87, 46
2, 103120, Note_on_c, 0, 87, 0
2, 103160, Note_on_c, 0, 91, 66
2, 103168, Note_on_c, 0, 87, 51
2, 103168, Note_on_c, 0, 55, 84
2, 103264, Note_on_c, 0, 91, 0
2, 103296, Note_on_c, 0, 87, 0
2, 103336, Note_on_c, 0, 91, 50
2, 103336, Note_on_c, 0, 88, 60
2, 103368, Note_on_c, 0, 91, 0
2, 103392, Note_on_c, 0, 88, 0
2, 103544, Note_on_c, 0, 93, 82
2, 103552, Note_on_c, 0, 89, 77
2, 103552, Note_on_c, 0, 91, 71
2, 103576, Note_on_c, 0, 91, 0
2, 103608, Note_on_c, 0, 93, 0
2, 103616, Note_on_c, 0, 89, 0
2, 103688, Note_on_c, 0, 87, 64
2, 103704, Note_on_c, 0, 91, 45
2, 103824, Note_on_c, 0, 91, 0
2, 103848, Note_on_c, 0, 87, 0
2, 103856, Note_on_c, 0, 55, 0
2, 103912, Note_on_c, 0, 55, 64
2, 103912, Note_on_c, 0, 91, 79
2, 103920, Note_on_c, 0, 88, 78
2, 103920, Note_on_c, 0, 54, 46
2, 103952, Note_on_c, 0, 54, 0
2, 104000, Note_on_c, 0, 91, 0
2, 104024, Note_on_c, 0, 88, 0
2, 104064, Note_on_c, 0, 84, 54
2, 104080, Control_c, 0, 64, 127
2, 104200, Note_on_c, 0, 55, 0
2, 104208, Note_on_c, 0, 84, 0
2, 104400, Control_c, 0, 64, 0
2, 104520, Note_on_c, 0, 91, 56
2, 104584, Note_on_c, 0, 90, 43
2, 104640, Note_on_c, 0, 91, 0
2, 104656, Note_on_c, 0, 87, 48
2, 104688, Note_on_c, 0, 90, 0
2, 104704, Note_on_c, 0, 51, 52
2, 104720, Note_on_c, 0, 84, 63
2, 104744, Note_on_c, 0, 87, 0
2, 104776, Note_on_c, 0, 84, 0
2, 104776, Note_on_c, 0, 51, 0
2, 104816, Note_on_c, 0, 90, 72
2, 104816, Note_on_c, 0, 54, 49
2, 105040, Note_on_c, 0, 54, 0
2, 105048, Note_on_c, 0, 90, 0
2, 105104, Note_on_c, 0, 51, 23
2, 105128, Note_on_c, 0, 51, 0
2, 105224, Note_on_c, 0, 89, 69
2, 105280, Note_on_c, 0, 89, 0
2, 105296, Note_on_c, 0, 90, 50
2, 105336, Note_on_c, 0, 89, 44
2, 105392, Note_on_c, 0, 90, 0
2, 105416, Note_on_c, 0, 87, 53
2, 105456, Note_on_c, 0, 89, 0
2, 105488, Control_c, 0, 64, 127
2, 105496, Note_on_c, 0, 84, 48
2, 105528, Note_on_c, 0, 87, 0
2, 105528, Control_c, 0, 64, 0
2, 105544, Note_on_c, 0, 84, 0
2, 105600, Note_on_c, 0, 89, 82
2, 105736, Control_c, 0, 64, 127
2, 105768, Note_on_c, 0, 89, 0
2, 105832, Note_on_c, 0, 87, 77
2, 105832, Note_on_c, 0, 57, 50
2, 105832, Note_on_c, 0, 62, 51
2, 105840, Note_on_c, 0, 52, 52
2, 105864, Control_c, 0, 64, 0
2, 105960, Note_on_c, 0, 87, 0
2, 106040, Note_on_c, 0, 88, 40
2, 106072, Note_on_c, 0, 57, 0
2, 106112, Note_on_c, 0, 62, 0
2, 106128, Note_on_c, 0, 84, 67
2, 106136, Note_on_c, 0, 88, 0
2, 106184, Note_on_c, 0, 84, 0
2, 106208, Note_on_c, 0, 79, 56
2, 106240, Control_c, 0, 64, 127
2, 106264, Note_on_c, 0, 79, 0
2, 106288, Control_c, 0, 64, 0
2, 106304, Note_on_c, 0, 77, 65
2, 106320, Note_on_c, 0, 62, 28
2, 106360, Note_on_c, 0, 77, 0
2, 106432, Note_on_c, 0, 76, 60
2, 106504, Note_on_c, 0, 62, 0
2, 106520, Note_on_c, 0, 52, 0
2, 106608, Note_on_c, 0, 76, 0
2, 106640, Note_on_c, 0, 72, 68
2, 106784, Control_c, 0, 64, 127
2, 106880, Control_c, 0, 64, 0
2, 106984, Note_on_c, 0, 72, 0
2, 106992, Note_on_c, 0, 57, 60
2, 107000, Note_on_c, 0, 63, 62
2, 107008, Note_on_c, 0, 68, 58
2, 107016, Note_on_c, 0, 61, 51
2, 107384, Note_on_c, 0, 57, 0
2, 107472, Note_on_c, 0, 68, 0
2, 107480, Note_on_c, 0, 63, 0
2, 107480, Note_on_c, 0, 61, 0
2, 107528, Note_on_c, 0, 67, 56
2, 107536, Note_on_c, 0, 56, 38
2, 107544, Note_on_c, 0, 62, 55
2, 107552, Note_on_c, 0, 60, 44
2, 107896, Note_on_c, 0, 82, 73
2, 107936, Note_on_c, 0, 67, 0
2, 107960, Note_on_c, 0, 82, 0
2, 107968, Note_on_c, 0, 62, 0
2, 108000, Note_on_c, 0, 60, 0
2, 108000, Note_on_c, 0, 84, 56
2, 108040, Note_on_c, 0, 82, 60
2, 108072, Note_on_c, 0, 84, 0
2, 108120, Note_on_c, 0, 80, 34
2, 108152, Note_on_c, 0, 82, 0
2, 108176, Note_on_c, 0, 77, 59
2, 108184, Note_on_c, 0, 56, 0
2, 108208, Note_on_c, 0, 80, 0
2, 108232, Note_on_c, 0, 77, 0
2, 108304, Note_on_c, 0, 81, 67
2, 108472, Note_on_c, 0, 81, 0
2, 108520, Note_on_c, 0, 55, 60
2, 108536, Note_on_c, 0, 66, 46
2, 108544, Note_on_c, 0, 61, 32
2, 108544, Note_on_c, 0, 74, 45
2, 108544, Note_on_c, 0, 76, 44
2, 108608, Note_on_c, 0, 74, 0
2, 108616, Note_on_c, 0, 76, 0
2, 108760, Note_on_c, 0, 66, 0
2, 108864, Note_on_c, 0, 55, 0
2, 108920, Note_on_c, 0, 72, 45
2, 108944, Note_on_c, 0, 72, 0
2, 108976, Note_on_c, 0, 61, 0
2, 109144, Note_on_c, 0, 75, 23
2, 109192, Note_on_c, 0, 76, 25
2, 109216, Note_on_c, 0, 76, 0
2, 109240, Note_on_c, 0, 75, 0
2, 109288, Note_on_c, 0, 71, 58
2, 109312, Note_on_c, 0, 71, 0
2, 109360, Note_on_c, 0, 74, 71
2, 109432, Note_on_c, 0, 74, 0
2, 109456, Note_on_c, 0, 69, 47
2, 109480, Note_on_c, 0, 69, 0
2, 109536, Note_on_c, 0, 72, 66
2, 109688, Note_on_c, 0, 72, 0
2, 109800, Note_on_c, 0, 69, 73
2, 110024, Note_on_c, 0, 69, 0
2, 110056, Note_on_c, 0, 64, 54
2, 110144, Note_on_c, 0, 64, 0
2, 110544, Note_on_c, 0, 64, 54
2, 110552, Note_on_c, 0, 54, 36
2, 110552, Note_on_c, 0, 60, 54
2, 110576, Note_on_c, 0, 60, 0
2, 110576, Note_on_c, 0, 64, 0
2, 110600, Note_on_c, 0, 54, 0
2, 110936, Note_on_c, 0, 75, 87
2, 110944, Note_on_c, 0, 81, 82
2, 111208, Note_on_c, 0, 75, 0
2, 111216, Note_on_c, 0, 81, 0
2, 111232, Note_on_c, 0, 72, 44
2, 111264, Note_on_c, 0, 72, 0
2, 111328, Note_on_c, 0, 74, 64
2, 111328, Note_on_c, 0, 81, 60
2, 111512, Note_on_c, 0, 81, 0
2, 111584, Note_on_c, 0, 54, 59
2, 111592, Note_on_c, 0, 60, 48
2, 111592, Note_on_c, 0, 69, 56
2, 111600, Note_on_c, 0, 74, 0
2, 111600, Note_on_c, 0, 64, 42
2, 111688, Note_on_c, 0, 69, 0
2, 112016, Note_on_c, 0, 64, 0
2, 112072, Note_on_c, 0, 54, 0
2, 112080, Note_on_c, 0, 64, 49
2, 112104, Note_on_c, 0, 75, 83
2, 112104, Note_on_c, 0, 81, 74
2, 112104, Note_on_c, 0, 57, 44
2, 112104, Note_on_c, 0, 53, 31
2, 112120, Note_on_c, 0, 64, 0
2, 112144, Note_on_c, 0, 53, 0
2, 112192, Note_on_c, 0, 60, 0
2, 112200, Note_on_c, 0, 81, 0
2, 112200, Note_on_c, 0, 57, 0
2, 112224, Note_on_c, 0, 81, 29
2, 112232, Note_on_c, 0, 75, 0
2, 112232, Note_on_c, 0, 76, 69
2, 112368, Note_on_c, 0, 76, 0
2, 112384, Note_on_c, 0, 81, 0
2, 112392, Note_on_c, 0, 72, 52
2, 112440, Note_on_c, 0, 72, 0
2, 112784, Note_on_c, 0, 64, 55
2, 112792, Note_on_c, 0, 57, 51
2, 112800, Note_on_c, 0, 60, 41
2, 112808, Note_on_c, 0, 64, 0
2, 112824, Note_on_c, 0, 60, 0
2, 112856, Note_on_c, 0, 57, 0
2, 113184, Note_on_c, 0, 64, 66
2, 113200, Note_on_c, 0, 57, 40
2, 113232, Note_on_c, 0, 57, 0
2, 113248, Note_on_c, 0, 64, 0
2, 113336, Note_on_c, 0, 65, 35
2, 113512, Note_on_c, 0, 65, 0
2, 113544, Note_on_c, 0, 69, 57
2, 113568, Note_on_c, 0, 62, 40
2, 113576, Note_on_c, 0, 57, 31
2, 113600, Note_on_c, 0, 62, 0
2, 113624, Note_on_c, 0, 57, 0
2, 113656, Note_on_c, 0, 69, 0
2, 113696, Note_on_c, 0, 71, 44
2, 113896, Note_on_c, 0, 71, 0
2, 113944, Note_on_c, 0, 57, 42
2, 113952, Note_on_c, 0, 69, 34
2, 113952, Note_on_c, 0, 62, 30
2, 113984, Note_on_c, 0, 69, 0
2, 113992, Note_on_c, 0, 62, 0
2, 114056, Note_on_c, 0, 74, 68
2, 114088, Note_on_c, 0, 57, 0
2, 114280, Note_on_c, 0, 74, 0
2, 114352, Note_on_c, 0, 56, 31
2, 114368, Note_on_c, 0, 62, 34
2, 114400, Note_on_c, 0, 62, 0
2, 114432, Note_on_c, 0, 56, 0
2, 114432, Note_on_c, 0, 76, 62
2, 114648, Note_on_c, 0, 76, 0
2, 114688, Note_on_c, 0, 77, 76
2, 114704, Note_on_c, 0, 67, 45
2, 114704, Note_on_c, 0, 62, 47
2, 114704, Note_on_c, 0, 56, 32
2, 114736, Note_on_c, 0, 67, 0
2, 114776, Note_on_c, 0, 62, 0
2, 114800, Note_on_c, 0, 77, 0
2, 114872, Note_on_c, 0, 74, 18
2, 114944, Note_on_c, 0, 56, 0
2, 115040, Note_on_c, 0, 74, 0
2, 115056, Note_on_c, 0, 76, 65
2, 115080, Note_on_c, 0, 60, 42
2, 115080, Note_on_c, 0, 64, 40
2, 115080, Note_on_c, 0, 57, 32
2, 115088, Note_on_c, 0, 59, 28
2, 115184, Note_on_c, 0, 76, 0
2, 115216, Note_on_c, 0, 71, 37
2, 115408, Note_on_c, 0, 71, 0
2, 115456, Note_on_c, 0, 72, 64
2, 115536, Note_on_c, 0, 72, 0
2, 115584, Note_on_c, 0, 64, 0
2, 115608, Note_on_c, 0, 76, 42
2, 115696, Note_on_c, 0, 59, 0
2, 115712, Note_on_c, 0, 76, 0
2, 115808, Note_on_c, 0, 57, 0
2, 115816, Note_on_c, 0, 56, 57
2, 115816, Note_on_c, 0, 83, 67
2, 115832, Note_on_c, 0, 64, 48
2, 115912, Note_on_c, 0, 83, 0
2, 115952, Note_on_c, 0, 86, 68
2, 116008, Note_on_c, 0, 64, 0
2, 116016, Note_on_c, 0, 86, 0
2, 116072, Note_on_c, 0, 84, 71
2, 116136, Note_on_c, 0, 84, 0
2, 116136, Note_on_c, 0, 60, 0
2, 116168, Note_on_c, 0, 80, 56
2, 116232, Note_on_c, 0, 80, 0
2, 116280, Note_on_c, 0, 83, 65
2, 116288, Note_on_c, 0, 64, 30
2, 116296, Note_on_c, 0, 60, 12
2, 116344, Note_on_c, 0, 83, 0
2, 116368, Note_on_c, 0, 76, 51
2, 116480, Note_on_c, 0, 76, 0
2, 116536, Note_on_c, 0, 74, 49
2, 116544, Note_on_c, 0, 64, 0
2, 116552, Note_on_c, 0, 60, 0
2, 116568, Note_on_c, 0, 74, 0
2, 116656, Note_on_c, 0, 56, 0
2, 116736, Note_on_c, 0, 55, 54
2, 116736, Note_on_c, 0, 64, 29
2, 116744, Note_on_c, 0, 60, 34
2, 117040, Note_on_c, 0, 64, 0
2, 117096, Note_on_c, 0, 60, 0
2, 117112, Note_on_c, 0, 72, 81
2, 117120, Note_on_c, 0, 55, 0
2, 117176, Note_on_c, 0, 72, 0
2, 117224, Note_on_c, 0, 69, 50
2, 117272, Note_on_c, 0, 69, 0
2, 117320, Note_on_c, 0, 70, 45
2, 117344, Note_on_c, 0, 70, 0
2, 117424, Note_on_c, 0, 62, 47
2, 117424, Note_on_c, 0, 58, 34
2, 117432, Note_on_c, 0, 57, 32
2, 117456, Note_on_c, 0, 62, 0
2, 117488, Note_on_c, 0, 58, 0
2, 117496, Note_on_c, 0, 57, 0
2, 117624, Note_on_c, 0, 70, 58
2, 117640, Note_on_c, 0, 69, 66
2, 117680, Note_on_c, 0, 70, 0
2, 117688, Note_on_c, 0, 69, 0
2, 117744, Note_on_c, 0, 66, 56
2, 117776, Note_on_c, 0, 66, 0
2, 117824, Note_on_c, 0, 69, 69
2, 117832, Note_on_c, 0, 58, 32
2, 117840, Note_on_c, 0, 62, 31
2, 117848, Note_on_c, 0, 52, 45
2, 117880, Note_on_c, 0, 69, 0
2, 117920, Note_on_c, 0, 66, 37
2, 117960, Note_on_c, 0, 66, 0
2, 117976, Note_on_c, 0, 52, 0
2, 118000, Note_on_c, 0, 67, 66
2, 118008, Note_on_c, 0, 58, 0
2, 118072, Note_on_c, 0, 67, 0
2, 118080, Note_on_c, 0, 62, 0
2, 118088, Note_on_c, 0, 68, 74
2, 118168, Note_on_c, 0, 68, 0
2, 118200, Note_on_c, 0, 69, 49
2, 118216, Note_on_c, 0, 71, 33
2, 118216, Note_on_c, 0, 64, 34
2, 118224, Note_on_c, 0, 57, 38
2, 118232, Note_on_c, 0, 60, 33
2, 118248, Note_on_c, 0, 71, 0
2, 118248, Note_on_c, 0, 69, 0
2, 118256, Note_on_c, 0, 53, 26
2, 118272, Note_on_c, 0, 64, 0
2, 118288, Note_on_c, 0, 72, 60
2, 118352, Note_on_c, 0, 60, 0
2, 118376, Note_on_c, 0, 72, 0
2, 118384, Note_on_c, 0, 76, 60
2, 118448, Note_on_c, 0, 76, 0
2, 118480, Note_on_c, 0, 79, 82
2, 118552, Note_on_c, 0, 79, 0
2, 118592, Note_on_c, 0, 76, 63
2, 118616, Note_on_c, 0, 76, 0
2, 118672, Note_on_c, 0, 77, 74
2, 118752, Note_on_c, 0, 77, 0
2, 118760, Note_on_c, 0, 57, 0
2, 118768, Note_on_c, 0, 74, 75
2, 118824, Note_on_c, 0, 74, 0
2, 118912, Note_on_c, 0, 53, 0
2, 119296, Note_on_c, 0, 64, 79
2, 119304, Note_on_c, 0, 60, 66
2, 119312, Note_on_c, 0, 57, 43
2, 119320, Note_on_c, 0, 64, 0
2, 119336, Note_on_c, 0, 60, 0
2, 119352, Note_on_c, 0, 57, 0
2, 119456, Note_on_c, 0, 69, 45
2, 119488, Note_on_c, 0, 69, 0
2, 119576, Note_on_c, 0, 72, 59
2, 119624, Note_on_c, 0, 72, 0
2, 119688, Note_on_c, 0, 76, 74
2, 119688, Note_on_c, 0, 74, 70
2, 119744, Note_on_c, 0, 74, 0
2, 119760, Note_on_c, 0, 76, 0
2, 119792, Note_on_c, 0, 64, 61
2, 119800, Note_on_c, 0, 56, 49
2, 119800, Note_on_c, 0, 60, 54
2, 119808, Note_on_c, 0, 53, 43
2, 119816, Note_on_c, 0, 79, 87
2, 119840, Note_on_c, 0, 60, 0
2, 119848, Note_on_c, 0, 64, 0
2, 119888, Note_on_c, 0, 53, 0
2, 119952, Note_on_c, 0, 56, 0
2, 120000, Note_on_c, 0, 79, 0
2, 120064, Note_on_c, 0, 77, 83
2, 120152, Note_on_c, 0, 77, 0
2, 120200, Note_on_c, 0, 72, 55
2, 120384, Note_on_c, 0, 72, 0
2, 120416, Note_on_c, 0, 68, 64
2, 120424, Note_on_c, 0, 56, 48
2, 120424, Note_on_c, 0, 64, 48
2, 120424, Note_on_c, 0, 53, 43
2, 120424, Note_on_c, 0, 60, 48
2, 120448, Note_on_c, 0, 64, 0
2, 120456, Note_on_c, 0, 60, 0
2, 120488, Note_on_c, 0, 53, 0
2, 120520, Note_on_c, 0, 68, 0
2, 120528, Note_on_c, 0, 56, 0
2, 120576, Note_on_c, 0, 67, 51
2, 120728, Note_on_c, 0, 67, 0
2, 120768, Note_on_c, 0, 70, 60
2, 120840, Note_on_c, 0, 56, 26
2, 120840, Note_on_c, 0, 68, 46
2, 120864, Note_on_c, 0, 70, 0
2, 120864, Note_on_c, 0, 53, 30
2, 120904, Note_on_c, 0, 53, 0
2, 120928, Note_on_c, 0, 68, 0
2, 120960, Note_on_c, 0, 67, 17
2, 121040, Note_on_c, 0, 56, 0
2, 121120, Note_on_c, 0, 67, 0
2, 121192, Note_on_c, 0, 62, 58
2, 121200, Note_on_c, 0, 65, 66
2, 121208, Note_on_c, 0, 59, 33
2, 121224, Note_on_c, 0, 52, 28
2, 121232, Note_on_c, 0, 55, 35
2, 121240, Note_on_c, 0, 62, 0
2, 121272, Note_on_c, 0, 52, 0
2, 121288, Note_on_c, 0, 59, 0
2, 121312, Note_on_c, 0, 65, 0
2, 121368, Note_on_c, 0, 64, 36
2, 121384, Note_on_c, 0, 55, 0
2, 121592, Note_on_c, 0, 64, 0
2, 121592, Note_on_c, 0, 65, 45
2, 121648, Note_on_c, 0, 65, 0
2, 121696, Note_on_c, 0, 69, 74
2, 121968, Note_on_c, 0, 55, 90
2, 121976, Note_on_c, 0, 69, 0
2, 121976, Note_on_c, 0, 54, 57
2, 122016, Note_on_c, 0, 54, 0
2, 122112, Note_on_c, 0, 65, 32
2, 122136, Note_on_c, 0, 60, 10
2, 122336, Note_on_c, 0, 55, 0
2, 122344, Note_on_c, 0, 65, 0
2, 122352, Note_on_c, 0, 60, 0
2, 122352, Note_on_c, 0, 43, 54
2, 122480, Note_on_c, 0, 55, 57
2, 122488, Note_on_c, 0, 65, 43
2, 122488, Note_on_c, 0, 60, 44
2, 122640, Note_on_c, 0, 65, 0
2, 122680, Note_on_c, 0, 55, 0
2, 122696, Note_on_c, 0, 60, 0
2, 122760, Note_on_c, 0, 50, 50
2, 122824, Note_on_c, 0, 50, 0
2, 122864, Note_on_c, 0, 67, 58
2, 122872, Note_on_c, 0, 57, 54
2, 122872, Note_on_c, 0, 52, 50
2, 122872, Note_on_c, 0, 62, 55
2, 122920, Note_on_c, 0, 57, 0
2, 122920, Note_on_c, 0, 67, 0
2, 122928, Note_on_c, 0, 62, 0
2, 122976, Note_on_c, 0, 52, 0
2, 122984, Note_on_c, 0, 66, 60
2, 122992, Note_on_c, 0, 56, 57
2, 122992, Note_on_c, 0, 51, 48
2, 123000, Note_on_c, 0, 61, 54
2, 123184, Note_on_c, 0, 61, 0
2, 123200, Note_on_c, 0, 56, 0
2, 123216, Note_on_c, 0, 66, 0
2, 123240, Note_on_c, 0, 51, 0
2, 123248, Note_on_c, 0, 67, 63
2, 123248, Note_on_c, 0, 52, 57
2, 123248, Note_on_c, 0, 62, 59
2, 123256, Note_on_c, 0, 57, 42
2, 123392, Note_on_c, 0, 57, 0
2, 123408, Note_on_c, 0, 62, 0
2, 123432, Note_on_c, 0, 52, 0
2, 123440, Note_on_c, 0, 67, 0
2, 123504, Note_on_c, 0, 69, 74
2, 123504, Note_on_c, 0, 59, 61
2, 123504, Note_on_c, 0, 64, 68
2, 123512, Note_on_c, 0, 53, 56
2, 123640, Note_on_c, 0, 64, 0
2, 123648, Note_on_c, 0, 69, 0
2, 123664, Note_on_c, 0, 59, 0
2, 123680, Note_on_c, 0, 53, 0
2, 123728, Note_on_c, 0, 67, 60
2, 123736, Note_on_c, 0, 57, 55
2, 123744, Note_on_c, 0, 62, 56
2, 123760, Note_on_c, 0, 52, 51
2, 123888, Note_on_c, 0, 67, 0
2, 123896, Note_on_c, 0, 57, 0
2, 123920, Note_on_c, 0, 62, 0
2, 123968, Note_on_c, 0, 52, 0
2, 123984, Note_on_c, 0, 51, 46
2, 124000, Note_on_c, 0, 66, 52
2, 124000, Note_on_c, 0, 61, 61
2, 124016, Note_on_c, 0, 56, 35
2, 124176, Note_on_c, 0, 56, 0
2, 124192, Note_on_c, 0, 61, 0
2, 124216, Note_on_c, 0, 66, 0
2, 124216, Note_on_c, 0, 51, 0
2, 124248, Note_on_c, 0, 67, 70
2, 124256, Note_on_c, 0, 57, 60
2, 124256, Note_on_c, 0, 62, 67
2, 124264, Note_on_c, 0, 52, 58
2, 124288, Note_on_c, 0, 43, 0
2, 124320, Note_on_c, 0, 57, 0
2, 124360, Note_on_c, 0, 67, 0
2, 124368, Note_on_c, 0, 62, 0
2, 124480, Note_on_c, 0, 52, 0
2, 124480, Note_on_c, 0, 71, 71
2, 124480, Note_on_c, 0, 64, 69
2, 124488, Note_on_c, 0, 60, 63
2, 124504, Note_on_c, 0, 42, 62
2, 124680, Note_on_c, 0, 60, 0
2, 124680, Note_on_c, 0, 64, 0
2, 124728, Note_on_c, 0, 71, 0
2, 124768, Control_c, 0, 64, 127
2, 124776, Note_on_c, 0, 60, 63
2, 124776, Note_on_c, 0, 52, 62
2, 124776, Note_on_c, 0, 69, 66
2, 124784, Note_on_c, 0, 64, 58
2, 124808, Note_on_c, 0, 42, 0
2, 124824, Note_on_c, 0, 64, 0
2, 124832, Note_on_c, 0, 60, 0
2, 124840, Note_on_c, 0, 52, 0
2, 124856, Note_on_c, 0, 69, 0
2, 125032, Control_c, 0, 64, 0
2, 125048, Note_on_c, 0, 74, 82
2, 125048, Note_on_c, 0, 71, 77
2, 125048, Note_on_c, 0, 67, 83
2, 125056, Note_on_c, 0, 62, 81
2, 125056, Note_on_c, 0, 57, 66
2, 125056, Note_on_c, 0, 51, 69
2, 125240, Control_c, 0, 64, 127
2, 125408, Note_on_c, 0, 57, 0
2, 125448, Note_on_c, 0, 62, 0
2, 125464, Note_on_c, 0, 67, 0
2, 125464, Note_on_c, 0, 71, 0
2, 125496, Note_on_c, 0, 74, 0
2, 125512, Control_c, 0, 64, 0
2, 125552, Note_on_c, 0, 62, 55
2, 125560, Note_on_c, 0, 72, 53
2, 125560, Note_on_c, 0, 67, 53
2, 125560, Note_on_c, 0, 57, 58
2, 125584, Control_c, 0, 64, 127
2, 125616, Note_on_c, 0, 51, 0
2, 125632, Note_on_c, 0, 62, 0
2, 125640, Note_on_c, 0, 67, 0
2, 125656, Note_on_c, 0, 72, 0
2, 125656, Note_on_c, 0, 57, 0
2, 125832, Note_on_c, 0, 76, 84
2, 125840, Note_on_c, 0, 72, 81
2, 125840, Note_on_c, 0, 69, 87
2, 125840, Note_on_c, 0, 60, 68
2, 125848, Note_on_c, 0, 64, 71
2, 125856, Control_c, 0, 64, 0
2, 125856, Note_on_c, 0, 54, 60
2, 126000, Control_c, 0, 64, 127
2, 126168, Note_on_c, 0, 64, 0
2, 126176, Note_on_c, 0, 69, 0
2, 126216, Note_on_c, 0, 54, 0
2, 126224, Note_on_c, 0, 72, 0
2, 126232, Note_on_c, 0, 60, 0
2, 126272, Note_on_c, 0, 76, 0
2, 126320, Note_on_c, 0, 64, 41
2, 126320, Note_on_c, 0, 54, 48
2, 126320, Note_on_c, 0, 69, 43
2, 126328, Note_on_c, 0, 60, 36
2, 126328, Note_on_c, 0, 74, 44
2, 126360, Note_on_c, 0, 60, 0
2, 126360, Note_on_c, 0, 64, 0
2, 126376, Note_on_c, 0, 69, 0
2, 126408, Note_on_c, 0, 74, 0
2, 126424, Note_on_c, 0, 54, 0
2, 126592, Note_on_c, 0, 83, 80
2, 126592, Control_c, 0, 64, 0
2, 126600, Note_on_c, 0, 78, 73
2, 126600, Note_on_c, 0, 62, 74
2, 126600, Note_on_c, 0, 51, 65
2, 126600, Note_on_c, 0, 74, 76
2, 126600, Note_on_c, 0, 57, 63
2, 126648, Note_on_c, 0, 62, 0
2, 126664, Note_on_c, 0, 78, 0
2, 126664, Note_on_c, 0, 57, 0
2, 126664, Note_on_c, 0, 79, 53
2, 126672, Note_on_c, 0, 51, 0
2, 126680, Note_on_c, 0, 83, 0
2, 126688, Note_on_c, 0, 79, 0
2, 126696, Note_on_c, 0, 74, 0
2, 126784, Note_on_c, 0, 71, 45
2, 126792, Note_on_c, 0, 81, 29
2, 126792, Note_on_c, 0, 72, 45
2, 126792, Note_on_c, 0, 51, 55
2, 126792, Note_on_c, 0, 62, 54
2, 126792, Note_on_c, 0, 79, 36
2, 126800, Note_on_c, 0, 57, 54
2, 126816, Note_on_c, 0, 72, 0
2, 126816, Note_on_c, 0, 74, 36
2, 126864, Control_c, 0, 64, 127
2, 126904, Note_on_c, 0, 81, 0
2, 126920, Note_on_c, 0, 79, 0
2, 126928, Note_on_c, 0, 74, 0
2, 126952, Note_on_c, 0, 71, 0
2, 126968, Note_on_c, 0, 57, 0
2, 126976, Note_on_c, 0, 62, 0
2, 127000, Note_on_c, 0, 51, 0
2, 127008, Control_c, 0, 64, 0
2, 127088, Note_on_c, 0, 70, 51
2, 127088, Note_on_c, 0, 51, 46
2, 127096, Note_on_c, 0, 62, 47
2, 127096, Note_on_c, 0, 67, 40
2, 127096, Note_on_c, 0, 74, 50
2, 127104, Note_on_c, 0, 57, 42
2, 127120, Control_c, 0, 64, 127
2, 127176, Note_on_c, 0, 57, 0
2, 127176, Note_on_c, 0, 70, 0
2, 127192, Note_on_c, 0, 71, 34
2, 127224, Note_on_c, 0, 71, 0
2, 127224, Note_on_c, 0, 51, 0
2, 127240, Note_on_c, 0, 67, 0
2, 127264, Note_on_c, 0, 62, 0
2, 127304, Note_on_c, 0, 74, 0
2, 127352, Control_c, 0, 64, 0
2, 127352, Note_on_c, 0, 62, 48
2, 127360, Note_on_c, 0, 67, 40
2, 127368, Note_on_c, 0, 71, 53
2, 127376, Note_on_c, 0, 52, 25
2, 127376, Note_on_c, 0, 55, 36
2, 127424, Note_on_c, 0, 59, 4
2, 127464, Control_c, 0, 64, 127
2, 127640, Note_on_c, 0, 62, 0
2, 127664, Note_on_c, 0, 67, 0
2, 127672, Note_on_c, 0, 59, 0
2, 127728, Note_on_c, 0, 71, 0
2, 127832, Note_on_c, 0, 55, 0
2, 127840, Note_on_c, 0, 52, 0
2, 128080, Note_on_c, 0, 84, 108
2, 128224, Note_on_c, 0, 84, 0
2, 128232, Note_on_c, 0, 81, 71
2, 128240, Control_c, 0, 64, 0
2, 128248, Note_on_c, 0, 61, 37
2, 128248, Note_on_c, 0, 60, 39
2, 128248, Note_on_c, 0, 55, 57
2, 128256, Note_on_c, 0, 65, 54
2, 128264, Note_on_c, 0, 77, 76
2, 128280, Note_on_c, 0, 73, 55
2, 128608, Control_c, 0, 64, 127
2, 128792, Note_on_c, 0, 65, 0
2, 128808, Note_on_c, 0, 60, 0
2, 128808, Note_on_c, 0, 73, 0
2, 128816, Note_on_c, 0, 77, 0
2, 128816, Note_on_c, 0, 81, 0
2, 128824, Note_on_c, 0, 61, 0
2, 128864, Note_on_c, 0, 55, 0
2, 128872, Note_on_c, 0, 73, 44
2, 128912, Note_on_c, 0, 73, 0
2, 129056, Control_c, 0, 64, 0
2, 129152, Note_on_c, 0, 76, 78
2, 129160, Note_on_c, 0, 66, 64
2, 129160, Note_on_c, 0, 72, 60
2, 129168, Note_on_c, 0, 68, 52
2, 129168, Note_on_c, 0, 64, 53
2, 129184, Note_on_c, 0, 68, 0
2, 129352, Note_on_c, 0, 66, 0
2, 129360, Note_on_c, 0, 76, 0
2, 129376, Note_on_c, 0, 72, 0
2, 129416, Note_on_c, 0, 54, 42
2, 129416, Control_c, 0, 64, 127
2, 129424, Note_on_c, 0, 66, 46
2, 129432, Note_on_c, 0, 70, 52
2, 129456, Note_on_c, 0, 64, 0
2, 129464, Note_on_c, 0, 74, 29
2, 129576, Note_on_c, 0, 70, 0
2, 129584, Note_on_c, 0, 54, 0
2, 129584, Note_on_c, 0, 66, 0
2, 129608, Note_on_c, 0, 74, 0
2, 129664, Note_on_c, 0, 64, 50
2, 129664, Note_on_c, 0, 72, 60
2, 129664, Control_c, 0, 64, 0
2, 129672, Note_on_c, 0, 53, 47
2, 129672, Note_on_c, 0, 65, 53
2, 129672, Note_on_c, 0, 69, 57
2, 129672, Note_on_c, 0, 59, 46
2, 129720, Note_on_c, 0, 64, 0
2, 129736, Note_on_c, 0, 59, 0
2, 129744, Note_on_c, 0, 72, 0
2, 129744, Note_on_c, 0, 69, 0
2, 129768, Note_on_c, 0, 53, 0
2, 129776, Note_on_c, 0, 65, 0
2, 130016, Note_on_c, 0, 70, 61
2, 130024, Note_on_c, 0, 67, 67
2, 130024, Note_on_c, 0, 63, 75
2, 130032, Note_on_c, 0, 58, 67
2, 130032, Note_on_c, 0, 53, 64
2, 130152, Control_c, 0, 64, 127
2, 130328, Note_on_c, 0, 67, 0
2, 130368, Note_on_c, 0, 70, 0
2, 130408, Note_on_c, 0, 63, 0
2, 130432, Note_on_c, 0, 58, 0
2, 130448, Note_on_c, 0, 53, 0
2, 130464, Note_on_c, 0, 50, 42
2, 130496, Control_c, 0, 64, 0
2, 130512, Note_on_c, 0, 50, 0
2, 130536, Note_on_c, 0, 67, 58
2, 130536, Note_on_c, 0, 62, 51
2, 130536, Note_on_c, 0, 57, 48
2, 130552, Note_on_c, 0, 52, 44
2, 130696, Note_on_c, 0, 67, 0
2, 130728, Note_on_c, 0, 57, 0
2, 130736, Note_on_c, 0, 62, 0
2, 130792, Note_on_c, 0, 52, 0
2, 130808, Note_on_c, 0, 51, 31
2, 130816, Note_on_c, 0, 56, 30
2, 130816, Note_on_c, 0, 66, 32
2, 130840, Note_on_c, 0, 66, 0
2, 130848, Note_on_c, 0, 56, 0
2, 130888, Note_on_c, 0, 51, 0
2, 130912, Note_on_c, 0, 52, 63
2, 130920, Note_on_c, 0, 57, 63
2, 130928, Note_on_c, 0, 62, 69
2, 130936, Note_on_c, 0, 67, 47
2, 131016, Note_on_c, 0, 57, 0
2, 131016, Note_on_c, 0, 52, 0
2, 131048, Note_on_c, 0, 67, 0
2, 131056, Note_on_c, 0, 62, 0
2, 131320, Note_on_c, 0, 71, 71
2, 131320, Note_on_c, 0, 66, 53
2, 131328, Note_on_c, 0, 60, 52
2, 131328, Note_on_c, 0, 63, 49
2, 131336, Note_on_c, 0, 59, 53
2, 131456, Note_on_c, 0, 63, 0
2, 131456, Note_on_c, 0, 60, 0
2, 131472, Note_on_c, 0, 71, 0
2, 131480, Note_on_c, 0, 66, 0
2, 131488, Note_on_c, 0, 59, 0
2, 131704, Note_on_c, 0, 59, 58
2, 131712, Note_on_c, 0, 63, 56
2, 131712, Note_on_c, 0, 60, 66
2, 131712, Note_on_c, 0, 66, 47
2, 131712, Note_on_c, 0, 71, 50
2, 131728, Note_on_c, 0, 68, 35
2, 131736, Control_c, 0, 64, 127
2, 131752, Note_on_c, 0, 68, 0
2, 131784, Note_on_c, 0, 59, 0
2, 131808, Note_on_c, 0, 60, 0
2, 131816, Note_on_c, 0, 63, 0
2, 131824, Note_on_c, 0, 66, 0
2, 131832, Note_on_c, 0, 71, 0
2, 131840, Control_c, 0, 64, 0
2, 132096, Note_on_c, 0, 76, 66
2, 132104, Note_on_c, 0, 56, 51
2, 132104, Note_on_c, 0, 72, 58
2, 132112, Note_on_c, 0, 67, 46
2, 132112, Note_on_c, 0, 62, 29
2, 132120, Control_c, 0, 64, 127
2, 132256, Note_on_c, 0, 76, 0
2, 132264, Note_on_c, 0, 56, 0
2, 132264, Note_on_c, 0, 62, 0
2, 132272, Note_on_c, 0, 72, 0
2, 132272, Note_on_c, 0, 67, 0
2, 132368, Note_on_c, 0, 79, 74
2, 132368, Note_on_c, 0, 56, 62
2, 132376, Note_on_c, 0, 72, 60
2, 132376, Note_on_c, 0, 73, 40
2, 132384, Note_on_c, 0, 67, 48
2, 132384, Note_on_c, 0, 62, 49
2, 132408, Note_on_c, 0, 62, 0
2, 132408, Note_on_c, 0, 73, 0
2, 132424, Note_on_c, 0, 56, 0
2, 132440, Note_on_c, 0, 67, 0
2, 132440, Note_on_c, 0, 72, 0
2, 132456, Note_on_c, 0, 79, 0
2, 132464, Control_c, 0, 64, 0
2, 132504, Note_on_c, 0, 56, 50
2, 132584, Control_c, 0, 64, 127
2, 132688, Note_on_c, 0, 56, 0
2, 132752, Note_on_c, 0, 81, 74
2, 132752, Control_c, 0, 64, 0
2, 132752, Note_on_c, 0, 75, 69
2, 132752, Note_on_c, 0, 55, 74
2, 132752, Note_on_c, 0, 66, 74
2, 132760, Note_on_c, 0, 61, 60
2, 132760, Note_on_c, 0, 69, 60
2, 132880, Control_c, 0, 64, 127
2, 132904, Note_on_c, 0, 69, 0
2, 132928, Note_on_c, 0, 81, 0
2, 132928, Note_on_c, 0, 75, 0
2, 132968, Note_on_c, 0, 55, 0
2, 132976, Note_on_c, 0, 66, 0
2, 132984, Note_on_c, 0, 61, 0
2, 133128, Note_on_c, 0, 84, 78
2, 133128, Control_c, 0, 64, 0
2, 133128, Note_on_c, 0, 55, 77
2, 133128, Note_on_c, 0, 61, 75
2, 133136, Note_on_c, 0, 65, 79
2, 133136, Note_on_c, 0, 72, 66
2, 133184, Note_on_c, 0, 72, 0
2, 133208, Note_on_c, 0, 84, 0
2, 133208, Note_on_c, 0, 65, 0
2, 133240, Note_on_c, 0, 55, 0
2, 133264, Note_on_c, 0, 61, 0
2, 133336, Note_on_c, 0, 55, 69
2, 133336, Note_on_c, 0, 88, 82
2, 133336, Note_on_c, 0, 61, 67
2, 133344, Note_on_c, 0, 76, 67
2, 133344, Note_on_c, 0, 65, 67
2, 133352, Control_c, 0, 64, 127
2, 133352, Note_on_c, 0, 82, 27
2, 133376, Note_on_c, 0, 82, 0
2, 133432, Note_on_c, 0, 76, 0
2, 133464, Note_on_c, 0, 88, 0
2, 133528, Note_on_c, 0, 84, 50
2, 133536, Note_on_c, 0, 65, 0
2, 133552, Note_on_c, 0, 55, 0
2, 133552, Note_on_c, 0, 84, 0
2, 133584, Control_c, 0, 64, 0
2, 133616, Note_on_c, 0, 61, 0
2, 133648, Note_on_c, 0, 88, 71
2, 133656, Note_on_c, 0, 54, 56
2, 133656, Note_on_c, 0, 76, 50
2, 133656, Note_on_c, 0, 60, 53
2, 133656, Note_on_c, 0, 64, 52
2, 133664, Note_on_c, 0, 84, 45
2, 133672, Note_on_c, 0, 81, 46
2, 133864, Control_c, 0, 64, 127
2, 133968, Note_on_c, 0, 64, 0
2, 134000, Note_on_c, 0, 60, 0
2, 134016, Note_on_c, 0, 76, 0
2, 134016, Note_on_c, 0, 81, 0
2, 134024, Note_on_c, 0, 88, 0
2, 134024, Note_on_c, 0, 84, 0
2, 134024, Note_on_c, 0, 54, 0
2, 134392, Control_c, 0, 64, 0
2, 134400, Note_on_c, 0, 84, 54
2, 134400, Note_on_c, 0, 72, 53
2, 134408, Note_on_c, 0, 60, 54
2, 134408, Note_on_c, 0, 54, 44
2, 134408, Note_on_c, 0, 64, 33
2, 134408, Note_on_c, 0, 77, 44
2, 134408, Note_on_c, 0, 81, 42
2, 134432, Note_on_c, 0, 77, 0
2, 134432, Note_on_c, 0, 60, 0
2, 134432, Note_on_c, 0, 72, 0
2, 134432, Note_on_c, 0, 64, 0
2, 134448, Note_on_c, 0, 81, 0
2, 134456, Note_on_c, 0, 54, 0
2, 134456, Note_on_c, 0, 84, 0
2, 134768, Note_on_c, 0, 61, 55
2, 134768, Note_on_c, 0, 65, 75
2, 134768, Note_on_c, 0, 60, 57
2, 134784, Note_on_c, 0, 55, 52
2, 134928, Note_on_c, 0, 65, 0
2, 134936, Note_on_c, 0, 60, 0
2, 134960, Note_on_c, 0, 61, 0
2, 134960, Note_on_c, 0, 55, 0
2, 135160, Note_on_c, 0, 60, 50
2, 135160, Note_on_c, 0, 54, 57
2, 135168, Note_on_c, 0, 64, 52
2, 135192, Control_c, 0, 64, 127
2, 135440, Note_on_c, 0, 96, 91
2, 135440, Note_on_c, 0, 84, 92
2, 135512, Note_on_c, 0, 84, 0
2, 135512, Control_c, 0, 64, 0
2, 135536, Note_on_c, 0, 96, 0
2, 135616, Note_on_c, 0, 60, 0
2, 135632, Note_on_c, 0, 64, 0
2, 135640, Note_on_c, 0, 93, 32
2, 135664, Note_on_c, 0, 54, 0
2, 135744, Note_on_c, 0, 93, 0
2, 135832, Note_on_c, 0, 96, 85
2, 135840, Note_on_c, 0, 64, 62
2, 135840, Note_on_c, 0, 54, 59
2, 135840, Note_on_c, 0, 84, 80
2, 135848, Note_on_c, 0, 60, 50
2, 135888, Note_on_c, 0, 64, 0
2, 135920, Note_on_c, 0, 96, 0
2, 135936, Note_on_c, 0, 54, 0
2, 135944, Note_on_c, 0, 84, 0
2, 135992, Note_on_c, 0, 60, 0
2, 136048, Note_on_c, 0, 92, 9
2, 136080, Note_on_c, 0, 92, 0
2, 136104, Note_on_c, 0, 93, 45
2, 136176, Note_on_c, 0, 93, 0
2, 136224, Note_on_c, 0, 96, 87
2, 136224, Note_on_c, 0, 84, 88
2, 136312, Note_on_c, 0, 96, 0
2, 136312, Note_on_c, 0, 54, 47
2, 136320, Note_on_c, 0, 64, 24
2, 136352, Note_on_c, 0, 60, 22
2, 136368, Note_on_c, 0, 64, 0
2, 136368, Note_on_c, 0, 84, 0
2, 136432, Note_on_c, 0, 60, 0
2, 136480, Note_on_c, 0, 93, 52
2, 136536, Note_on_c, 0, 93, 0
2, 136536, Note_on_c, 0, 54, 0
2, 136584, Note_on_c, 0, 96, 83
2, 136592, Note_on_c, 0, 84, 80
2, 136624, Note_on_c, 0, 64, 41
2, 136632, Note_on_c, 0, 57, 46
2, 136632, Note_on_c, 0, 60, 35
2, 136640, Note_on_c, 0, 53, 37
2, 136680, Note_on_c, 0, 64, 0
2, 136688, Note_on_c, 0, 96, 0
2, 136720, Note_on_c, 0, 60, 0
2, 136720, Note_on_c, 0, 53, 0
2, 136744, Note_on_c, 0, 84, 0
2, 136744, Note_on_c, 0, 92, 31
2, 136792, Note_on_c, 0, 57, 0
2, 136864, Note_on_c, 0, 92, 0
2, 136880, Note_on_c, 0, 93, 57
2, 136936, Note_on_c, 0, 93, 0
2, 136976, Note_on_c, 0, 84, 83
2, 136976, Note_on_c, 0, 96, 89
2, 137040, Note_on_c, 0, 57, 35
2, 137064, Note_on_c, 0, 96, 0
2, 137112, Note_on_c, 0, 92, 33
2, 137152, Note_on_c, 0, 57, 0
2, 137176, Note_on_c, 0, 92, 0
2, 137184, Note_on_c, 0, 84, 0
2, 137232, Note_on_c, 0, 93, 32
2, 137296, Note_on_c, 0, 93, 0
2, 137344, Note_on_c, 0, 96, 84
2, 137352, Note_on_c, 0, 84, 75
2, 137432, Note_on_c, 0, 84, 0
2, 137448, Note_on_c, 0, 96, 0
2, 137488, Note_on_c, 0, 60, 31
2, 137496, Note_on_c, 0, 93, 64
2, 137504, Note_on_c, 0, 96, 58
2, 137520, Note_on_c, 0, 60, 0
2, 137712, Note_on_c, 0, 93, 0
2, 137720, Note_on_c, 0, 96, 0
2, 137856, Note_on_c, 0, 60, 38
2, 137856, Note_on_c, 0, 84, 49
2, 137944, Note_on_c, 0, 60, 0
2, 138080, Note_on_c, 0, 84, 0
2, 138232, Note_on_c, 0, 65, 47
2, 138240, Note_on_c, 0, 62, 45
2, 138240, Note_on_c, 0, 57, 31
2, 138280, Note_on_c, 0, 57, 0
2, 138280, Note_on_c, 0, 62, 0
2, 138280, Note_on_c, 0, 65, 0
2, 138544, Note_on_c, 0, 62, 46
2, 138568, Note_on_c, 0, 62, 0
2, 138616, Note_on_c, 0, 86, 96
2, 138664, Note_on_c, 0, 86, 0
2, 138720, Note_on_c, 0, 89, 67
2, 138816, Note_on_c, 0, 89, 0
2, 138824, Note_on_c, 0, 86, 66
2, 138920, Note_on_c, 0, 86, 0
2, 138936, Note_on_c, 0, 83, 62
2, 138992, Note_on_c, 0, 67, 24
2, 139000, Note_on_c, 0, 56, 23
2, 139000, Note_on_c, 0, 62, 37
2, 139008, Note_on_c, 0, 83, 0
2, 139048, Note_on_c, 0, 82, 52
2, 139136, Note_on_c, 0, 82, 0
2, 139136, Note_on_c, 0, 67, 0
2, 139160, Note_on_c, 0, 88, 78
2, 139216, Note_on_c, 0, 62, 0
2, 139264, Note_on_c, 0, 80, 46
2, 139280, Note_on_c, 0, 88, 0
2, 139360, Note_on_c, 0, 80, 0
2, 139392, Note_on_c, 0, 77, 47
2, 139416, Note_on_c, 0, 77, 0
2, 139488, Note_on_c, 0, 79, 72
2, 139512, Note_on_c, 0, 56, 0
2, 139544, Note_on_c, 0, 79, 0
2, 139584, Note_on_c, 0, 86, 82
2, 139664, Note_on_c, 0, 86, 0
2, 139688, Note_on_c, 0, 79, 50
2, 139736, Note_on_c, 0, 79, 0
2, 139800, Note_on_c, 0, 64, 41
2, 139808, Note_on_c, 0, 60, 34
2, 139808, Note_on_c, 0, 59, 31
2, 140072, Note_on_c, 0, 76, 64
2, 140120, Note_on_c, 0, 76, 0
2, 140192, Note_on_c, 0, 59, 0
2, 140208, Note_on_c, 0, 83, 89
2, 140224, Note_on_c, 0, 64, 0
2, 140256, Note_on_c, 0, 60, 0
2, 140288, Note_on_c, 0, 83, 0
2, 140328, Note_on_c, 0, 76, 52
2, 140352, Note_on_c, 0, 76, 0
2, 140432, Note_on_c, 0, 81, 84
2, 140480, Note_on_c, 0, 64, 38
2, 140480, Note_on_c, 0, 60, 31
2, 140504, Note_on_c, 0, 56, 36
2, 140584, Note_on_c, 0, 81, 0
2, 140656, Note_on_c, 0, 64, 0
2, 140680, Note_on_c, 0, 75, 69
2, 140696, Note_on_c, 0, 60, 0
2, 140832, Note_on_c, 0, 75, 0
2, 140920, Note_on_c, 0, 64, 28
2, 140944, Note_on_c, 0, 74, 83
2, 141056, Note_on_c, 0, 74, 0
2, 141080, Note_on_c, 0, 69, 37
2, 141088, Note_on_c, 0, 64, 0
2, 141104, Note_on_c, 0, 69, 0
2, 141120, Note_on_c, 0, 56, 0
2, 141184, Note_on_c, 0, 72, 81
2, 141264, Note_on_c, 0, 64, 29
2, 141264, Note_on_c, 0, 60, 32
2, 141272, Note_on_c, 0, 55, 33
2, 141432, Note_on_c, 0, 72, 0
2, 141456, Note_on_c, 0, 64, 0
2, 141456, Note_on_c, 0, 74, 61
2, 141480, Note_on_c, 0, 60, 0
2, 141528, Note_on_c, 0, 72, 57
2, 141536, Note_on_c, 0, 74, 0
2, 141592, Note_on_c, 0, 72, 0
2, 141600, Note_on_c, 0, 67, 64
2, 141608, Note_on_c, 0, 60, 34
2, 141680, Note_on_c, 0, 60, 0
2, 141680, Note_on_c, 0, 67, 0
2, 141720, Note_on_c, 0, 65, 47
2, 141736, Note_on_c, 0, 55, 0
2, 141888, Note_on_c, 0, 65, 0
2, 141952, Note_on_c, 0, 63, 59
2, 141968, Note_on_c, 0, 52, 46
2, 141968, Note_on_c, 0, 58, 34
2, 141976, Note_on_c, 0, 62, 30
2, 142016, Note_on_c, 0, 62, 0
2, 142032, Note_on_c, 0, 63, 0
2, 142088, Note_on_c, 0, 64, 43
2, 142152, Note_on_c, 0, 64, 0
2, 142152, Note_on_c, 0, 58, 0
2, 142176, Note_on_c, 0, 65, 60
2, 142208, Note_on_c, 0, 65, 0
2, 142280, Note_on_c, 0, 66, 78
2, 142344, Note_on_c, 0, 66, 0
2, 142376, Note_on_c, 0, 67, 72
2, 142400, Note_on_c, 0, 58, 46
2, 142456, Note_on_c, 0, 67, 0
2, 142464, Note_on_c, 0, 58, 0
2, 142472, Note_on_c, 0, 64, 71
2, 142504, Note_on_c, 0, 52, 0
2, 142552, Note_on_c, 0, 64, 0
2, 142584, Note_on_c, 0, 60, 64
2, 142656, Note_on_c, 0, 60, 0
2, 142688, Note_on_c, 0, 57, 24
2, 142760, Note_on_c, 0, 57, 0
2, 142856, Note_on_c, 0, 64, 72
2, 142928, Note_on_c, 0, 64, 0
2, 142984, Note_on_c, 0, 57, 26
2, 143008, Note_on_c, 0, 57, 0
2, 143048, Note_on_c, 0, 60, 70
2, 143136, Note_on_c, 0, 60, 0
2, 143192, Note_on_c, 0, 57, 24
2, 143216, Note_on_c, 0, 57, 0
2, 143240, Note_on_c, 0, 60, 62
2, 143360, Note_on_c, 0, 60, 0
2, 143384, Note_on_c, 0, 53, 52
2, 143408, Note_on_c, 0, 53, 0
2, 143856, Note_on_c, 0, 52, 57
2, 143864, Note_on_c, 0, 41, 47
2, 143880, Note_on_c, 0, 52, 0
2, 143888, Note_on_c, 0, 41, 0
2, 144112, Note_on_c, 0, 65, 68
2, 144160, Note_on_c, 0, 65, 0
2, 144240, Note_on_c, 0, 69, 89
2, 144256, Note_on_c, 0, 64, 64
2, 144256, Note_on_c, 0, 60, 58
2, 144264, Note_on_c, 0, 56, 43
2, 144272, Note_on_c, 0, 53, 33
2, 144280, Note_on_c, 0, 64, 0
2, 144304, Note_on_c, 0, 53, 0
2, 144320, Note_on_c, 0, 60, 0
2, 144328, Note_on_c, 0, 56, 0
2, 144352, Note_on_c, 0, 69, 0
2, 144376, Note_on_c, 0, 72, 66
2, 144560, Note_on_c, 0, 72, 0
2, 144632, Note_on_c, 0, 76, 72
2, 144640, Note_on_c, 0, 64, 36
2, 144640, Note_on_c, 0, 60, 52
2, 144640, Note_on_c, 0, 62, 36
2, 144648, Note_on_c, 0, 56, 30
2, 144672, Note_on_c, 0, 62, 0
2, 144672, Note_on_c, 0, 64, 0
2, 144680, Note_on_c, 0, 60, 0
2, 144712, Note_on_c, 0, 56, 0
2, 144760, Note_on_c, 0, 76, 0
2, 144776, Note_on_c, 0, 79, 54
2, 144952, Note_on_c, 0, 79, 0
2, 145016, Note_on_c, 0, 77, 66
2, 145024, Note_on_c, 0, 64, 48
2, 145040, Note_on_c, 0, 56, 36
2, 145040, Note_on_c, 0, 60, 46
2, 145048, Note_on_c, 0, 53, 33
2, 145080, Note_on_c, 0, 53, 0
2, 145080, Note_on_c, 0, 64, 0
2, 145104, Note_on_c, 0, 60, 0
2, 145112, Note_on_c, 0, 56, 0
2, 145144, Note_on_c, 0, 77, 0
2, 145152, Note_on_c, 0, 72, 46
2, 145360, Note_on_c, 0, 72, 0
2, 145384, Note_on_c, 0, 68, 57
2, 145384, Note_on_c, 0, 64, 55
2, 145384, Note_on_c, 0, 56, 36
2, 145400, Note_on_c, 0, 60, 46
2, 145400, Note_on_c, 0, 53, 38
2, 145432, Note_on_c, 0, 64, 0
2, 145456, Note_on_c, 0, 60, 0
2, 145472, Note_on_c, 0, 68, 0
2, 145520, Note_on_c, 0, 67, 44
2, 145576, Note_on_c, 0, 53, 0
2, 145656, Note_on_c, 0, 56, 0
2, 145720, Note_on_c, 0, 67, 0
2, 145776, Note_on_c, 0, 62, 37
2, 145784, Note_on_c, 0, 65, 57
2, 145792, Note_on_c, 0, 59, 30
2, 145808, Note_on_c, 0, 62, 0
2, 145808, Note_on_c, 0, 55, 26
2, 145840, Note_on_c, 0, 59, 0
2, 145888, Note_on_c, 0, 65, 0
2, 145936, Note_on_c, 0, 64, 37
2, 145976, Note_on_c, 0, 55, 0
2, 146152, Note_on_c, 0, 64, 0
2, 146168, Note_on_c, 0, 67, 60
2, 146176, Note_on_c, 0, 59, 41
2, 146208, Note_on_c, 0, 59, 0
2, 146240, Note_on_c, 0, 67, 0
2, 146296, Note_on_c, 0, 69, 63
2, 146504, Note_on_c, 0, 69, 0
2, 146544, Note_on_c, 0, 64, 36
2, 146576, Note_on_c, 0, 64, 0
2, 146672, Note_on_c, 0, 71, 41
2, 146680, Note_on_c, 0, 66, 49
2, 146688, Note_on_c, 0, 63, 39
2, 146704, Note_on_c, 0, 59, 64
2, 146856, Note_on_c, 0, 59, 0
2, 146872, Note_on_c, 0, 71, 0
2, 146872, Note_on_c, 0, 66, 0
2, 146872, Note_on_c, 0, 63, 0
2, 147056, Note_on_c, 0, 57, 45
2, 147056, Note_on_c, 0, 72, 54
2, 147064, Note_on_c, 0, 60, 61
2, 147080, Note_on_c, 0, 68, 25
2, 147152, Note_on_c, 0, 68, 0
2, 147192, Note_on_c, 0, 60, 0
2, 147256, Note_on_c, 0, 72, 0
2, 147256, Note_on_c, 0, 57, 0
2, 147344, Note_on_c, 0, 53, 30
2, 147384, Note_on_c, 0, 53, 0
2, 147424, Note_on_c, 0, 70, 50
2, 147432, Control_c, 0, 64, 127
2, 147440, Note_on_c, 0, 62, 43
2, 147448, Note_on_c, 0, 56, 28
2, 147456, Note_on_c, 0, 65, 33
2, 147456, Note_on_c, 0, 68, 26
2, 147472, Note_on_c, 0, 56, 0
2, 147496, Note_on_c, 0, 65, 0
2, 147496, Note_on_c, 0, 68, 0
2, 147496, Note_on_c, 0, 62, 0
2, 147552, Note_on_c, 0, 70, 0
2, 147768, Control_c, 0, 64, 0
2, 147816, Control_c, 0, 64, 127
2, 147816, Note_on_c, 0, 56, 67
2, 147816, Note_on_c, 0, 62, 66
2, 147816, Note_on_c, 0, 67, 68
2, 147832, Note_on_c, 0, 82, 77
2, 147832, Note_on_c, 0, 94, 75
2, 147960, Note_on_c, 0, 67, 0
2, 147976, Note_on_c, 0, 62, 0
2, 147984, Note_on_c, 0, 94, 0
2, 148008, Note_on_c, 0, 82, 0
2, 148024, Note_on_c, 0, 56, 0
2, 148080, Note_on_c, 0, 66, 82
2, 148080, Control_c, 0, 64, 0
2, 148088, Note_on_c, 0, 88, 68
2, 148088, Note_on_c, 0, 55, 79
2, 148088, Note_on_c, 0, 93, 71
2, 148088, Note_on_c, 0, 81, 60
2, 148088, Note_on_c, 0, 61, 60
2, 148176, Control_c, 0, 64, 127
2, 148192, Note_on_c, 0, 81, 0
2, 148208, Note_on_c, 0, 88, 0
2, 148216, Note_on_c, 0, 93, 0
2, 148232, Note_on_c, 0, 66, 0
2, 148248, Note_on_c, 0, 55, 0
2, 148320, Note_on_c, 0, 61, 0
2, 148464, Note_on_c, 0, 55, 77
2, 148464, Note_on_c, 0, 66, 78
2, 148464, Note_on_c, 0, 61, 63
2, 148472, Note_on_c, 0, 96, 85
2, 148480, Note_on_c, 0, 84, 75
2, 148488, Note_on_c, 0, 86, 53
2, 148504, Control_c, 0, 64, 0
2, 148512, Note_on_c, 0, 86, 0
2, 148528, Note_on_c, 0, 84, 0
2, 148552, Note_on_c, 0, 96, 0
2, 148608, Note_on_c, 0, 92, 39
2, 148664, Note_on_c, 0, 92, 0
2, 148680, Note_on_c, 0, 66, 0
2, 148696, Note_on_c, 0, 55, 0
2, 148744, Note_on_c, 0, 93, 66
2, 148776, Note_on_c, 0, 61, 0
2, 148816, Note_on_c, 0, 93, 0
2, 148864, Note_on_c, 0, 96, 82
2, 148872, Note_on_c, 0, 84, 76
2, 148880, Note_on_c, 0, 64, 55
2, 148888, Note_on_c, 0, 60, 57
2, 148888, Note_on_c, 0, 54, 37
2, 148904, Note_on_c, 0, 57, 49
2, 148944, Note_on_c, 0, 54, 0
2, 148952, Note_on_c, 0, 64, 0
2, 148952, Note_on_c, 0, 57, 0
2, 148968, Note_on_c, 0, 96, 0
2, 149000, Note_on_c, 0, 84, 0
2, 149008, Note_on_c, 0, 92, 34
2, 149032, Note_on_c, 0, 60, 0
2, 149136, Note_on_c, 0, 92, 0
2, 149144, Note_on_c, 0, 93, 61
2, 149216, Note_on_c, 0, 93, 0
2, 149256, Note_on_c, 0, 96, 82
2, 149256, Note_on_c, 0, 84, 80
2, 149360, Note_on_c, 0, 96, 0
2, 149400, Note_on_c, 0, 92, 28
2, 149408, Note_on_c, 0, 84, 0
2, 149496, Note_on_c, 0, 92, 0
2, 149520, Note_on_c, 0, 93, 60
2, 149600, Note_on_c, 0, 93, 0
2, 149640, Note_on_c, 0, 96, 81
2, 149640, Note_on_c, 0, 84, 80
2, 149656, Note_on_c, 0, 64, 64
2, 149664, Note_on_c, 0, 60, 64
2, 149664, Note_on_c, 0, 54, 55
2, 149704, Note_on_c, 0, 64, 0
2, 149728, Note_on_c, 0, 54, 0
2, 149736, Note_on_c, 0, 60, 0
2, 149736, Note_on_c, 0, 96, 0
2, 149768, Note_on_c, 0, 84, 0
2, 149792, Note_on_c, 0, 92, 25
2, 149888, Note_on_c, 0, 92, 0
2, 149912, Note_on_c, 0, 93, 43
2, 149984, Note_on_c, 0, 93, 0
2, 150032, Note_on_c, 0, 96, 87
2, 150032, Note_on_c, 0, 84, 79
2, 150048, Note_on_c, 0, 86, 39
2, 150080, Note_on_c, 0, 86, 0
2, 150096, Note_on_c, 0, 60, 53
2, 150112, Note_on_c, 0, 84, 0
2, 150112, Note_on_c, 0, 96, 0
2, 150168, Note_on_c, 0, 92, 39
2, 150176, Note_on_c, 0, 60, 0
2, 150248, Note_on_c, 0, 92, 0
2, 150304, Note_on_c, 0, 93, 62
2, 150368, Note_on_c, 0, 93, 0
2, 150408, Note_on_c, 0, 96, 85
2, 150408, Note_on_c, 0, 84, 82
2, 150488, Note_on_c, 0, 65, 66
2, 150496, Note_on_c, 0, 60, 51
2, 150504, Note_on_c, 0, 57, 40
2, 150512, Note_on_c, 0, 65, 0
2, 150512, Note_on_c, 0, 96, 0
2, 150512, Note_on_c, 0, 55, 27
2, 150528, Note_on_c, 0, 60, 0
2, 150528, Note_on_c, 0, 92, 42
2, 150544, Note_on_c, 0, 55, 0
2, 150560, Note_on_c, 0, 57, 0
2, 150576, Note_on_c, 0, 84, 0
2, 150648, Note_on_c, 0, 92, 0
2, 150664, Note_on_c, 0, 93, 59
2, 150736, Note_on_c, 0, 93, 0
2, 150776, Note_on_c, 0, 55, 89
2, 150776, Note_on_c, 0, 43, 80
2, 150784, Note_on_c, 0, 96, 88
2, 150784, Note_on_c, 0, 84, 85
2, 150816, Note_on_c, 0, 55, 0
2, 150832, Note_on_c, 0, 43, 0
2, 150888, Note_on_c, 0, 96, 0
2, 150936, Note_on_c, 0, 92, 30
2, 150952, Note_on_c, 0, 84, 0
2, 151024, Note_on_c, 0, 92, 0
2, 151080, Note_on_c, 0, 93, 59
2, 151136, Note_on_c, 0, 93, 0
2, 151184, Note_on_c, 0, 96, 87
2, 151184, Note_on_c, 0, 84, 79
2, 151272, Note_on_c, 0, 96, 0
2, 151312, Note_on_c, 0, 92, 45
2, 151328, Note_on_c, 0, 84, 0
2, 151424, Note_on_c, 0, 92, 0
2, 151440, Note_on_c, 0, 93, 62
2, 151496, Note_on_c, 0, 93, 0
2, 151536, Note_on_c, 0, 64, 71
2, 151536, Note_on_c, 0, 53, 71
2, 151536, Note_on_c, 0, 96, 85
2, 151544, Note_on_c, 0, 84, 80
2, 151544, Note_on_c, 0, 59, 66
2, 151648, Note_on_c, 0, 96, 0
2, 151696, Note_on_c, 0, 84, 0
2, 151736, Note_on_c, 0, 64, 0
2, 151744, Note_on_c, 0, 59, 0
2, 151776, Note_on_c, 0, 92, 23
2, 151816, Note_on_c, 0, 53, 0
2, 151832, Note_on_c, 0, 92, 0
2, 151832, Note_on_c, 0, 93, 55
2, 151880, Note_on_c, 0, 93, 0
2, 151928, Note_on_c, 0, 96, 84
2, 151928, Note_on_c, 0, 84, 79
2, 152032, Note_on_c, 0, 96, 0
2, 152072, Note_on_c, 0, 92, 39
2, 152096, Note_on_c, 0, 84, 0
2, 152208, Note_on_c, 0, 93, 56
2, 152224, Note_on_c, 0, 92, 0
2, 152256, Note_on_c, 0, 93, 0
2, 152296, Note_on_c, 0, 96, 88
2, 152296, Note_on_c, 0, 84, 85
2, 152400, Note_on_c, 0, 96, 0
2, 152408, Note_on_c, 0, 55, 45
2, 152408, Note_on_c, 0, 64, 48
2, 152408, Note_on_c, 0, 60, 48
2, 152424, Note_on_c, 0, 92, 53
2, 152424, Note_on_c, 0, 57, 36
2, 152448, Note_on_c, 0, 60, 0
2, 152448, Note_on_c, 0, 64, 0
2, 152448, Note_on_c, 0, 55, 0
2, 152464, Note_on_c, 0, 84, 0
2, 152464, Note_on_c, 0, 57, 0
2, 152536, Note_on_c, 0, 92, 0
2, 152568, Note_on_c, 0, 93, 51
2, 152632, Note_on_c, 0, 93, 0
2, 152672, Note_on_c, 0, 84, 83
2, 152680, Note_on_c, 0, 96, 87
2, 152776, Note_on_c, 0, 96, 0
2, 152808, Note_on_c, 0, 92, 47
2, 152824, Note_on_c, 0, 84, 0
2, 152904, Note_on_c, 0, 92, 0
2, 152952, Note_on_c, 0, 93, 45
2, 152992, Note_on_c, 0, 93, 0
2, 153048, Note_on_c, 0, 96, 88
2, 153048, Note_on_c, 0, 84, 85
2, 153072, Note_on_c, 0, 64, 65
2, 153088, Note_on_c, 0, 60, 54
2, 153088, Note_on_c, 0, 55, 40
2, 153096, Note_on_c, 0, 57, 41
2, 153128, Note_on_c, 0, 55, 0
2, 153128, Note_on_c, 0, 64, 0
2, 153160, Note_on_c, 0, 96, 0
2, 153168, Note_on_c, 0, 57, 0
2, 153168, Note_on_c, 0, 60, 0
2, 153192, Note_on_c, 0, 92, 29
2, 153216, Note_on_c, 0, 84, 0
2, 153264, Note_on_c, 0, 92, 0
2, 153312, Note_on_c, 0, 93, 35
2, 153368, Note_on_c, 0, 93, 0
2, 153424, Note_on_c, 0, 96, 88
2, 153440, Note_on_c, 0, 84, 54
2, 153456, Note_on_c, 0, 84, 0
2, 153512, Note_on_c, 0, 96, 0
2, 153560, Note_on_c, 0, 65, 63
2, 153568, Note_on_c, 0, 61, 50
2, 153568, Note_on_c, 0, 56, 44
2, 153568, Note_on_c, 0, 94, 77
2, 153576, Note_on_c, 0, 55, 47
2, 153832, Note_on_c, 0, 94, 0
2, 153960, Note_on_c, 0, 90, 83
2, 154136, Note_on_c, 0, 61, 0
2, 154216, Note_on_c, 0, 90, 0
2, 154240, Note_on_c, 0, 61, 28
2, 154288, Note_on_c, 0, 65, 0
2, 154312, Note_on_c, 0, 61, 0
2, 154344, Note_on_c, 0, 92, 80
2, 154504, Note_on_c, 0, 55, 0
2, 154568, Note_on_c, 0, 92, 0
2, 154584, Note_on_c, 0, 55, 46
2, 154584, Note_on_c, 0, 61, 49
2, 154592, Note_on_c, 0, 87, 59
2, 154592, Note_on_c, 0, 65, 50
2, 154616, Note_on_c, 0, 65, 0
2, 154648, Note_on_c, 0, 61, 0
2, 154672, Note_on_c, 0, 55, 0
2, 154704, Note_on_c, 0, 56, 0
2, 154720, Note_on_c, 0, 87, 0
2, 154744, Note_on_c, 0, 86, 33
2, 154936, Note_on_c, 0, 86, 0
2, 155000, Note_on_c, 0, 83, 57
2, 155008, Note_on_c, 0, 62, 43
2, 155008, Note_on_c, 0, 57, 34
2, 155016, Note_on_c, 0, 52, 35
2, 155120, Note_on_c, 0, 83, 0
2, 155152, Note_on_c, 0, 86, 58
2, 155232, Note_on_c, 0, 86, 0
2, 155264, Note_on_c, 0, 84, 53
2, 155288, Note_on_c, 0, 62, 0
2, 155336, Note_on_c, 0, 84, 0
2, 155360, Note_on_c, 0, 79, 54
2, 155424, Note_on_c, 0, 79, 0
2, 155464, Note_on_c, 0, 77, 61
2, 155488, Note_on_c, 0, 62, 33
2, 155560, Note_on_c, 0, 77, 0
2, 155600, Note_on_c, 0, 76, 54
2, 155672, Note_on_c, 0, 57, 0
2, 155688, Note_on_c, 0, 52, 0
2, 155744, Note_on_c, 0, 62, 0
2, 155904, Note_on_c, 0, 76, 0
2, 155928, Note_on_c, 0, 57, 57
2, 155936, Note_on_c, 0, 63, 53
2, 155936, Note_on_c, 0, 68, 56
2, 155936, Note_on_c, 0, 61, 52
2, 156312, Control_c, 0, 64, 127
2, 156552, Note_on_c, 0, 57, 0
2, 156600, Note_on_c, 0, 68, 0
2, 156632, Note_on_c, 0, 61, 0
2, 156648, Note_on_c, 0, 63, 0
2, 156672, Control_c, 0, 64, 0
2, 156688, Note_on_c, 0, 67, 50
2, 156696, Note_on_c, 0, 60, 43
2, 156704, Note_on_c, 0, 62, 51
2, 156712, Note_on_c, 0, 56, 35
2, 156960, Note_on_c, 0, 88, 78
2, 156976, Note_on_c, 0, 76, 78
2, 157024, Note_on_c, 0, 76, 0
2, 157040, Note_on_c, 0, 88, 0
2, 157120, Note_on_c, 0, 88, 66
2, 157136, Note_on_c, 0, 76, 41
2, 157168, Note_on_c, 0, 76, 0
2, 157176, Note_on_c, 0, 88, 0
2, 157280, Note_on_c, 0, 62, 0
2, 157280, Note_on_c, 0, 67, 0
2, 157304, Note_on_c, 0, 60, 0
2, 157320, Note_on_c, 0, 88, 82
2, 157328, Note_on_c, 0, 76, 80
2, 157392, Note_on_c, 0, 76, 0
2, 157392, Note_on_c, 0, 88, 0
2, 157416, Note_on_c, 0, 56, 0
2, 157448, Note_on_c, 0, 55, 37
2, 157464, Note_on_c, 0, 88, 49
2, 157464, Note_on_c, 0, 61, 38
2, 157472, Note_on_c, 0, 76, 50
2, 157472, Note_on_c, 0, 65, 30
2, 157632, Note_on_c, 0, 76, 0
2, 157640, Note_on_c, 0, 88, 0
2, 157680, Note_on_c, 0, 65, 0
2, 157688, Note_on_c, 0, 61, 0
2, 157712, Note_on_c, 0, 84, 53
2, 157752, Note_on_c, 0, 84, 0
2, 157824, Note_on_c, 0, 61, 32
2, 157840, Note_on_c, 0, 88, 73
2, 157840, Note_on_c, 0, 65, 24
2, 157848, Note_on_c, 0, 76, 57
2, 157880, Note_on_c, 0, 76, 0
2, 157896, Note_on_c, 0, 88, 0
2, 158024, Note_on_c, 0, 65, 0
2, 158072, Note_on_c, 0, 55, 0
2, 158088, Note_on_c, 0, 88, 76
2, 158104, Note_on_c, 0, 76, 68
2, 158152, Note_on_c, 0, 76, 0
2, 158160, Note_on_c, 0, 61, 0
2, 158176, Note_on_c, 0, 88, 0
2, 158208, Note_on_c, 0, 60, 31
2, 158216, Note_on_c, 0, 54, 30
2, 158216, Note_on_c, 0, 64, 31
2, 158224, Note_on_c, 0, 84, 49
2, 158232, Note_on_c, 0, 76, 16
2, 158352, Note_on_c, 0, 76, 0
2, 158376, Note_on_c, 0, 84, 0
2, 158464, Note_on_c, 0, 88, 82
2, 158480, Note_on_c, 0, 76, 51
2, 158528, Note_on_c, 0, 76, 0
2, 158568, Note_on_c, 0, 88, 0
2, 158576, Note_on_c, 0, 64, 0
2, 158624, Note_on_c, 0, 84, 48
2, 158696, Note_on_c, 0, 60, 0
2, 158832, Note_on_c, 0, 84, 0
2, 158960, Note_on_c, 0, 80, 58
2, 158968, Note_on_c, 0, 64, 33
2, 158984, Note_on_c, 0, 60, 32
2, 159152, Note_on_c, 0, 64, 0
2, 159176, Note_on_c, 0, 60, 0
2, 159192, Note_on_c, 0, 80, 0
2, 159240, Note_on_c, 0, 54, 0
2, 159320, Note_on_c, 0, 54, 39
2, 159336, Note_on_c, 0, 64, 32
2, 159336, Control_c, 0, 64, 127
2, 159344, Note_on_c, 0, 76, 40
2, 159360, Note_on_c, 0, 60, 24
2, 159440, Note_on_c, 0, 64, 0
2, 159448, Note_on_c, 0, 60, 0
2, 159480, Note_on_c, 0, 76, 0
2, 159504, Note_on_c, 0, 54, 0
2, 159704, Control_c, 0, 64, 0
2, 159720, Note_on_c, 0, 68, 86
2, 159720, Note_on_c, 0, 60, 58
2, 159720, Note_on_c, 0, 54, 56
2, 159776, Note_on_c, 0, 68, 0
2, 159824, Note_on_c, 0, 60, 0
2, 159824, Note_on_c, 0, 71, 71
2, 159904, Note_on_c, 0, 71, 0
2, 159928, Note_on_c, 0, 68, 56
2, 160000, Note_on_c, 0, 68, 0
2, 160024, Note_on_c, 0, 64, 58
2, 160072, Note_on_c, 0, 64, 0
2, 160112, Note_on_c, 0, 54, 0
2, 160128, Note_on_c, 0, 59, 60
2, 160296, Note_on_c, 0, 59, 0
2, 160648, Note_on_c, 0, 52, 62
2, 160664, Note_on_c, 0, 52, 0
2, 161512, Note_on_c, 0, 60, 68
2, 161520, Note_on_c, 0, 57, 64
2, 161520, Note_on_c, 0, 53, 62
2, 161536, Note_on_c, 0, 48, 54
2, 161696, Control_c, 0, 64, 127
2, 161704, Control_c, 0, 64, 0
2, 161720, Control_c, 0, 64, 127
2, 161728, Note_on_c, 0, 53, 0
2, 161800, Note_on_c, 0, 57, 0
2, 161856, Note_on_c, 0, 60, 0
2, 162032, Note_on_c, 0, 48, 0
2, 162040, Control_c, 0, 64, 0
2, 162064, Note_on_c, 0, 67, 79
2, 162064, Note_on_c, 0, 57, 70
2, 162080, Note_on_c, 0, 52, 47
2, 162088, Note_on_c, 0, 60, 34
2, 162160, Control_c, 0, 64, 127
2, 162264, Note_on_c, 0, 60, 0
2, 162280, Note_on_c, 0, 52, 0
2, 162288, Note_on_c, 0, 57, 0
2, 162320, Note_on_c, 0, 67, 0
2, 162352, Control_c, 0, 64, 0
2, 162416, Note_on_c, 0, 52, 53
2, 162416, Note_on_c, 0, 65, 61
2, 162424, Note_on_c, 0, 57, 54
2, 162424, Note_on_c, 0, 60, 59
2, 162456, Control_c, 0, 64, 127
2, 162512, Note_on_c, 0, 52, 0
2, 162528, Note_on_c, 0, 57, 0
2, 162536, Note_on_c, 0, 60, 0
2, 162576, Note_on_c, 0, 65, 0
2, 162808, Control_c, 0, 64, 0
2, 162816, Note_on_c, 0, 76, 85
2, 162824, Note_on_c, 0, 69, 78
2, 162824, Note_on_c, 0, 72, 67
2, 162824, Note_on_c, 0, 65, 74
2, 162840, Note_on_c, 0, 64, 54
2, 162944, Control_c, 0, 64, 127
2, 163056, Note_on_c, 0, 65, 0
2, 163080, Note_on_c, 0, 69, 0
2, 163088, Note_on_c, 0, 72, 0
2, 163128, Control_c, 0, 64, 0
2, 163136, Note_on_c, 0, 76, 0
2, 163136, Note_on_c, 0, 64, 0
2, 163144, Control_c, 0, 64, 127
2, 163160, Note_on_c, 0, 62, 50
2, 163184, Note_on_c, 0, 62, 0
2, 163184, Note_on_c, 0, 65, 34
2, 163184, Note_on_c, 0, 74, 39
2, 163208, Note_on_c, 0, 65, 0
2, 163232, Note_on_c, 0, 74, 0
2, 163432, Control_c, 0, 64, 0
2, 163440, Note_on_c, 0, 79, 78
2, 163440, Note_on_c, 0, 68, 73
2, 163440, Note_on_c, 0, 72, 68
2, 163448, Note_on_c, 0, 62, 60
2, 163448, Note_on_c, 0, 56, 55
2, 163456, Note_on_c, 0, 74, 42
2, 163616, Control_c, 0, 64, 127
2, 163784, Note_on_c, 0, 62, 0
2, 163800, Note_on_c, 0, 74, 0
2, 163816, Note_on_c, 0, 79, 0
2, 163816, Note_on_c, 0, 56, 0
2, 163824, Note_on_c, 0, 68, 0
2, 163840, Note_on_c, 0, 72, 0
2, 163912, Note_on_c, 0, 56, 38
2, 163928, Note_on_c, 0, 77, 57
2, 163928, Note_on_c, 0, 68, 50
2, 163936, Note_on_c, 0, 62, 40
2, 163976, Note_on_c, 0, 56, 0
2, 163992, Note_on_c, 0, 62, 0
2, 164016, Note_on_c, 0, 77, 0
2, 164072, Note_on_c, 0, 68, 0
2, 164208, Note_on_c, 0, 76, 55
2, 164208, Note_on_c, 0, 55, 44
2, 164216, Control_c, 0, 64, 0
2, 164216, Note_on_c, 0, 67, 48
2, 164224, Note_on_c, 0, 60, 42
2, 164224, Note_on_c, 0, 72, 55
2, 164224, Note_on_c, 0, 64, 36
2, 164328, Control_c, 0, 64, 127
2, 164496, Note_on_c, 0, 60, 0
2, 164504, Note_on_c, 0, 72, 0
2, 164512, Note_on_c, 0, 64, 0
2, 164544, Note_on_c, 0, 67, 0
2, 164712, Note_on_c, 0, 72, 55
2, 164712, Note_on_c, 0, 64, 38
2, 164720, Note_on_c, 0, 67, 40
2, 164736, Control_c, 0, 64, 0
2, 164736, Note_on_c, 0, 60, 26
2, 164760, Note_on_c, 0, 76, 0
2, 164768, Note_on_c, 0, 64, 0
2, 164784, Note_on_c, 0, 67, 0
2, 164784, Note_on_c, 0, 72, 0
2, 164784, Note_on_c, 0, 60, 0
2, 164816, Note_on_c, 0, 55, 0
2, 165104, Note_on_c, 0, 68, 37
2, 165112, Note_on_c, 0, 76, 50
2, 165112, Note_on_c, 0, 72, 48
2, 165112, Note_on_c, 0, 64, 40
2, 165112, Note_on_c, 0, 60, 34
2, 165120, Note_on_c, 0, 56, 37
2, 165200, Note_on_c, 0, 60, 0
2, 165200, Note_on_c, 0, 64, 0
2, 165208, Note_on_c, 0, 72, 0
2, 165216, Note_on_c, 0, 68, 0
2, 165232, Note_on_c, 0, 76, 0
2, 165232, Note_on_c, 0, 56, 0
2, 165480, Control_c, 0, 64, 127
2, 165488, Note_on_c, 0, 68, 45
2, 165488, Note_on_c, 0, 76, 38
2, 165496, Note_on_c, 0, 72, 42
2, 165496, Note_on_c, 0, 64, 40
2, 165504, Note_on_c, 0, 56, 30
2, 165544, Note_on_c, 0, 64, 0
2, 165576, Note_on_c, 0, 72, 0
2, 165576, Note_on_c, 0, 68, 0
2, 165592, Note_on_c, 0, 56, 0
2, 165600, Note_on_c, 0, 76, 0
2, 165832, Control_c, 0, 64, 0
2, 165872, Note_on_c, 0, 77, 81
2, 165872, Note_on_c, 0, 70, 80
2, 165872, Note_on_c, 0, 67, 94
2, 165872, Note_on_c, 0, 74, 75
2, 165888, Note_on_c, 0, 65, 78
2, 165968, Control_c, 0, 64, 127
2, 166032, Note_on_c, 0, 67, 0
2, 166040, Note_on_c, 0, 74, 0
2, 166040, Note_on_c, 0, 70, 0
2, 166056, Note_on_c, 0, 77, 0
2, 166064, Note_on_c, 0, 65, 0
2, 166208, Control_c, 0, 64, 0
2, 166248, Note_on_c, 0, 81, 76
2, 166256, Note_on_c, 0, 73, 68
2, 166256, Note_on_c, 0, 70, 64
2, 166256, Note_on_c, 0, 76, 68
2, 166256, Note_on_c, 0, 69, 70
2, 166320, Control_c, 0, 64, 127
2, 166328, Note_on_c, 0, 73, 0
2, 166344, Note_on_c, 0, 76, 0
2, 166360, Note_on_c, 0, 81, 0
2, 166360, Note_on_c, 0, 70, 0
2, 166360, Note_on_c, 0, 69, 0
2, 166512, Note_on_c, 0, 80, 69
2, 166520, Note_on_c, 0, 84, 79
2, 166520, Note_on_c, 0, 78, 61
2, 166528, Control_c, 0, 64, 0
2, 166528, Note_on_c, 0, 74, 57
2, 166536, Note_on_c, 0, 76, 62
2, 166536, Note_on_c, 0, 70, 39
2, 166600, Note_on_c, 0, 74, 0
2, 166616, Note_on_c, 0, 84, 0
2, 166624, Note_on_c, 0, 70, 0
2, 166632, Note_on_c, 0, 80, 0
2, 166632, Note_on_c, 0, 76, 0
2, 166632, Note_on_c, 0, 78, 0
2, 166888, Note_on_c, 0, 73, 60
2, 166888, Note_on_c, 0, 76, 60
2, 166888, Note_on_c, 0, 70, 53
2, 166888, Note_on_c, 0, 67, 61
2, 166928, Note_on_c, 0, 79, 18
2, 166960, Note_on_c, 0, 79, 0
2, 166968, Note_on_c, 0, 67, 0
2, 167000, Note_on_c, 0, 76, 0
2, 167008, Note_on_c, 0, 70, 0
2, 167008, Note_on_c, 0, 73, 0
2, 167256, Note_on_c, 0, 62, 49
2, 167264, Note_on_c, 0, 76, 64
2, 167264, Note_on_c, 0, 79, 74
2, 167264, Note_on_c, 0, 72, 74
2, 167272, Note_on_c, 0, 69, 73
2, 167272, Note_on_c, 0, 64, 73
2, 167280, Note_on_c, 0, 62, 0
2, 167400, Control_c, 0, 64, 127
2, 167624, Note_on_c, 0, 79, 0
2, 167648, Note_on_c, 0, 72, 0
2, 167656, Note_on_c, 0, 76, 0
2, 167656, Note_on_c, 0, 69, 0
2, 167712, Control_c, 0, 64, 0
2, 167752, Note_on_c, 0, 64, 0
2, 167760, Note_on_c, 0, 77, 46
2, 167768, Note_on_c, 0, 62, 46
2, 167776, Note_on_c, 0, 72, 44
2, 167776, Note_on_c, 0, 69, 43
2, 167824, Control_c, 0, 64, 127
2, 167864, Note_on_c, 0, 72, 0
2, 167864, Note_on_c, 0, 77, 0
2, 167872, Note_on_c, 0, 62, 0
2, 167888, Note_on_c, 0, 69, 0
2, 168120, Control_c, 0, 64, 0
2, 168160, Note_on_c, 0, 60, 49
2, 168176, Note_on_c, 0, 76, 41
2, 168176, Note_on_c, 0, 65, 38
2, 168176, Note_on_c, 0, 69, 41
2, 168184, Note_on_c, 0, 72, 34
2, 168216, Control_c, 0, 64, 127
2, 168264, Note_on_c, 0, 76, 0
2, 168272, Note_on_c, 0, 72, 0
2, 168288, Note_on_c, 0, 69, 0
2, 168312, Note_on_c, 0, 65, 0
2, 168424, Note_on_c, 0, 60, 0
2, 168528, Control_c, 0, 64, 0
2, 168552, Note_on_c, 0, 65, 53
2, 168560, Note_on_c, 0, 57, 44
2, 168568, Note_on_c, 0, 72, 35
2, 168568, Note_on_c, 0, 69, 41
2, 168576, Note_on_c, 0, 57, 0
2, 168576, Control_c, 0, 64, 127
2, 168600, Note_on_c, 0, 69, 0
2, 168608, Note_on_c, 0, 72, 0
2, 168632, Note_on_c, 0, 65, 0
2, 168928, Control_c, 0, 64, 0
2, 168952, Note_on_c, 0, 67, 66
2, 168960, Note_on_c, 0, 50, 37
2, 168960, Note_on_c, 0, 60, 60
2, 168960, Note_on_c, 0, 56, 46
2, 168968, Note_on_c, 0, 52, 46
2, 168976, Note_on_c, 0, 64, 38
2, 168984, Note_on_c, 0, 50, 0
2, 169256, Note_on_c, 0, 56, 0
2, 169272, Note_on_c, 0, 60, 0
2, 169280, Note_on_c, 0, 67, 0
2, 169296, Note_on_c, 0, 64, 0
2, 169344, Note_on_c, 0, 56, 50
2, 169352, Note_on_c, 0, 65, 53
2, 169352, Note_on_c, 0, 60, 47
2, 169360, Note_on_c, 0, 52, 0
2, 169360, Note_on_c, 0, 50, 50
2, 169624, Note_on_c, 0, 56, 0
2, 169632, Note_on_c, 0, 60, 0
2, 169688, Note_on_c, 0, 65, 0
2, 169728, Note_on_c, 0, 50, 0
2, 169736, Note_on_c, 0, 48, 39
2, 169736, Note_on_c, 0, 64, 41
2, 169744, Note_on_c, 0, 56, 18
2, 169760, Note_on_c, 0, 60, 29
2, 169880, Note_on_c, 0, 60, 0
2, 169904, Note_on_c, 0, 56, 0
2, 169928, Note_on_c, 0, 64, 0
2, 169976, Note_on_c, 0, 56, 53
2, 169984, Note_on_c, 0, 48, 0
2, 169984, Note_on_c, 0, 60, 60
2, 169984, Note_on_c, 0, 65, 64
2, 170008, Note_on_c, 0, 50, 47
2, 170072, Control_c, 0, 64, 127
2, 170096, Note_on_c, 0, 60, 0
2, 170208, Note_on_c, 0, 56, 0
2, 170288, Note_on_c, 0, 65, 0
2, 170312, Control_c, 0, 64, 0
2, 170336, Note_on_c, 0, 50, 0
2, 170336, Note_on_c, 0, 67, 67
2, 170344, Note_on_c, 0, 62, 71
2, 170352, Note_on_c, 0, 57, 60
2, 170352, Note_on_c, 0, 52, 54
2, 170448, Control_c, 0, 64, 127
2, 170512, Note_on_c, 0, 57, 0
2, 170536, Note_on_c, 0, 62, 0
2, 170544, Note_on_c, 0, 67, 0
2, 170752, Note_on_c, 0, 76, 95
2, 170760, Note_on_c, 0, 52, 0
2, 170888, Note_on_c, 0, 76, 0
2, 171008, Note_on_c, 0, 76, 89
2, 171144, Note_on_c, 0, 76, 0
2, 171240, Control_c, 0, 64, 0
2, 171248, Note_on_c, 0, 76, 67
2, 171256, Note_on_c, 0, 65, 60
2, 171256, Note_on_c, 0, 72, 58
2, 171256, Note_on_c, 0, 69, 63
2, 171368, Control_c, 0, 64, 127
2, 171504, Control_c, 0, 64, 0
2, 171512, Note_on_c, 0, 65, 0
2, 171520, Note_on_c, 0, 55, 70
2, 171536, Note_on_c, 0, 69, 0
2, 171552, Note_on_c, 0, 72, 0
2, 171560, Note_on_c, 0, 76, 0
2, 171616, Control_c, 0, 64, 127
2, 171776, Note_on_c, 0, 79, 81
2, 171784, Note_on_c, 0, 67, 54
2, 171816, Note_on_c, 0, 67, 0
2, 171856, Note_on_c, 0, 79, 0
2, 171992, Control_c, 0, 64, 0
2, 172016, Note_on_c, 0, 76, 69
2, 172024, Note_on_c, 0, 71, 65
2, 172032, Note_on_c, 0, 64, 53
2, 172032, Note_on_c, 0, 67, 56
2, 172112, Control_c, 0, 64, 127
2, 172152, Note_on_c, 0, 55, 0
2, 172232, Note_on_c, 0, 67, 0
2, 172264, Note_on_c, 0, 71, 0
2, 172280, Note_on_c, 0, 76, 0
2, 172280, Note_on_c, 0, 55, 82
2, 172304, Note_on_c, 0, 64, 0
2, 172480, Control_c, 0, 64, 0
2, 172528, Note_on_c, 0, 83, 72
2, 172536, Note_on_c, 0, 79, 63
2, 172536, Note_on_c, 0, 76, 66
2, 172536, Note_on_c, 0, 74, 64
2, 172536, Note_on_c, 0, 64, 62
2, 172592, Control_c, 0, 64, 127
2, 172640, Note_on_c, 0, 79, 0
2, 172640, Note_on_c, 0, 83, 0
2, 172656, Note_on_c, 0, 76, 0
2, 172672, Note_on_c, 0, 74, 0
2, 172712, Note_on_c, 0, 64, 0
2, 172776, Control_c, 0, 64, 0
2, 172816, Note_on_c, 0, 79, 61
2, 172816, Note_on_c, 0, 74, 67
2, 172824, Note_on_c, 0, 71, 58
2, 172824, Note_on_c, 0, 64, 54
2, 172856, Control_c, 0, 64, 127
2, 172904, Note_on_c, 0, 79, 0
2, 172912, Note_on_c, 0, 74, 0
2, 172944, Note_on_c, 0, 71, 0
2, 172968, Note_on_c, 0, 55, 0
2, 173080, Note_on_c, 0, 76, 62
2, 173080, Control_c, 0, 64, 0
2, 173088, Note_on_c, 0, 67, 53
2, 173088, Note_on_c, 0, 71, 60
2, 173088, Note_on_c, 0, 55, 61
2, 173168, Control_c, 0, 64, 127
2, 173184, Note_on_c, 0, 55, 0
2, 173304, Note_on_c, 0, 55, 81
2, 173456, Note_on_c, 0, 71, 0
2, 173464, Note_on_c, 0, 67, 0
2, 173464, Note_on_c, 0, 76, 0
2, 173480, Note_on_c, 0, 64, 0
2, 173480, Note_on_c, 0, 55, 0
2, 173544, Note_on_c, 0, 71, 70
2, 173552, Control_c, 0, 64, 0
2, 173552, Note_on_c, 0, 67, 64
2, 173560, Note_on_c, 0, 64, 55
2, 173560, Note_on_c, 0, 54, 59
2, 173784, Note_on_c, 0, 64, 0
2, 173792, Note_on_c, 0, 67, 0
2, 173808, Note_on_c, 0, 71, 0
2, 173816, Note_on_c, 0, 69, 58
2, 173824, Note_on_c, 0, 72, 66
2, 173832, Note_on_c, 0, 64, 40
2, 173880, Note_on_c, 0, 64, 0
2, 173888, Note_on_c, 0, 69, 0
2, 173912, Note_on_c, 0, 72, 0
2, 173944, Note_on_c, 0, 54, 0
2, 173968, Note_on_c, 0, 67, 37
2, 173976, Note_on_c, 0, 71, 44
2, 174000, Note_on_c, 0, 71, 0
2, 174008, Note_on_c, 0, 67, 0
2, 174208, Note_on_c, 0, 47, 39
2, 174240, Note_on_c, 0, 47, 0
2, 174312, Note_on_c, 0, 59, 57
2, 174328, Note_on_c, 0, 63, 50
2, 174328, Note_on_c, 0, 57, 45
2, 174328, Note_on_c, 0, 47, 32
2, 174336, Note_on_c, 0, 67, 33
2, 174368, Note_on_c, 0, 57, 0
2, 174480, Note_on_c, 0, 64, 30
2, 174528, Note_on_c, 0, 67, 0
2, 174560, Note_on_c, 0, 64, 0
2, 174568, Note_on_c, 0, 59, 0
2, 174584, Note_on_c, 0, 63, 0
2, 174632, Note_on_c, 0, 51, 26
2, 174680, Note_on_c, 0, 57, 25
2, 174696, Note_on_c, 0, 58, 53
2, 174704, Note_on_c, 0, 66, 37
2, 174712, Note_on_c, 0, 57, 0
2, 174712, Note_on_c, 0, 51, 0
2, 174760, Control_c, 0, 64, 127
2, 174896, Note_on_c, 0, 66, 0
2, 174904, Note_on_c, 0, 58, 0
2, 174952, Note_on_c, 0, 47, 0
2, 174952, Control_c, 0, 64, 0
2, 174960, Note_on_c, 0, 59, 51
2, 174968, Note_on_c, 0, 62, 50
2, 174968, Note_on_c, 0, 67, 47
2, 174968, Note_on_c, 0, 52, 49
2, 174976, Note_on_c, 0, 59, 0
2, 174992, Note_on_c, 0, 62, 0
2, 174992, Note_on_c, 0, 52, 0
2, 175016, Note_on_c, 0, 67, 0
2, 175200, Note_on_c, 0, 75, 64
2, 175216, Note_on_c, 0, 71, 62
2, 175216, Note_on_c, 0, 54, 59
2, 175224, Note_on_c, 0, 78, 35
2, 175224, Note_on_c, 0, 83, 54
2, 175232, Note_on_c, 0, 64, 46
2, 175248, Note_on_c, 0, 78, 0
2, 175248, Note_on_c, 0, 60, 45
2, 175256, Note_on_c, 0, 75, 0
2, 175256, Note_on_c, 0, 76, 61
2, 175272, Note_on_c, 0, 64, 0
2, 175312, Note_on_c, 0, 71, 0
2, 175328, Note_on_c, 0, 76, 0
2, 175336, Note_on_c, 0, 54, 0
2, 175336, Note_on_c, 0, 83, 0
2, 175344, Note_on_c, 0, 60, 0
2, 175456, Note_on_c, 0, 75, 70
2, 175456, Note_on_c, 0, 78, 51
2, 175456, Note_on_c, 0, 83, 66
2, 175464, Note_on_c, 0, 71, 58
2, 175464, Note_on_c, 0, 54, 65
2, 175472, Note_on_c, 0, 64, 55
2, 175480, Note_on_c, 0, 60, 43
2, 175504, Note_on_c, 0, 60, 0
2, 175520, Note_on_c, 0, 64, 0
2, 175544, Note_on_c, 0, 75, 0
2, 175552, Note_on_c, 0, 76, 35
2, 175584, Note_on_c, 0, 76, 0
2, 175584, Note_on_c, 0, 71, 0
2, 175592, Note_on_c, 0, 54, 0
2, 175600, Note_on_c, 0, 83, 0
2, 175600, Note_on_c, 0, 78, 0
2, 175712, Note_on_c, 0, 81, 71
2, 175712, Note_on_c, 0, 75, 64
2, 175720, Note_on_c, 0, 69, 67
2, 175720, Note_on_c, 0, 51, 59
2, 175720, Note_on_c, 0, 62, 66
2, 175736, Note_on_c, 0, 57, 53
2, 175824, Note_on_c, 0, 75, 0
2, 175824, Note_on_c, 0, 76, 42
2, 175888, Note_on_c, 0, 62, 0
2, 175888, Note_on_c, 0, 81, 0
2, 175888, Note_on_c, 0, 69, 0
2, 175896, Note_on_c, 0, 51, 0
2, 175904, Note_on_c, 0, 76, 0
2, 175912, Note_on_c, 0, 57, 0
2, 175952, Note_on_c, 0, 51, 49
2, 175960, Note_on_c, 0, 62, 51
2, 175968, Note_on_c, 0, 57, 56
2, 175968, Note_on_c, 0, 68, 69
2, 175968, Note_on_c, 0, 75, 62
2, 175976, Note_on_c, 0, 80, 46
2, 176000, Control_c, 0, 64, 127
2, 176080, Note_on_c, 0, 62, 0
2, 176096, Control_c, 0, 64, 0
2, 176104, Note_on_c, 0, 51, 0
2, 176112, Note_on_c, 0, 80, 0
2, 176136, Note_on_c, 0, 68, 0
2, 176144, Note_on_c, 0, 75, 0
2, 176144, Note_on_c, 0, 57, 0
2, 176192, Note_on_c, 0, 51, 51
2, 176200, Note_on_c, 0, 62, 51
2, 176200, Note_on_c, 0, 57, 24
2, 176216, Note_on_c, 0, 79, 61
2, 176216, Note_on_c, 0, 67, 51
2, 176224, Note_on_c, 0, 74, 53
2, 176224, Control_c, 0, 64, 127
2, 176280, Note_on_c, 0, 57, 0
2, 176288, Note_on_c, 0, 74, 0
2, 176312, Note_on_c, 0, 79, 0
2, 176312, Note_on_c, 0, 51, 0
2, 176336, Note_on_c, 0, 67, 0
2, 176344, Note_on_c, 0, 62, 0
2, 176440, Control_c, 0, 64, 0
2, 176472, Note_on_c, 0, 79, 62
2, 176472, Note_on_c, 0, 74, 69
2, 176472, Note_on_c, 0, 62, 57
2, 176472, Note_on_c, 0, 59, 45
2, 176480, Note_on_c, 0, 67, 59
2, 176480, Note_on_c, 0, 52, 35
2, 176480, Note_on_c, 0, 55, 47
2, 176584, Control_c, 0, 64, 127
2, 176616, Note_on_c, 0, 74, 0
2, 176624, Note_on_c, 0, 79, 0
2, 176656, Note_on_c, 0, 62, 0
2, 176688, Note_on_c, 0, 67, 0
2, 176688, Note_on_c, 0, 59, 0
2, 176688, Note_on_c, 0, 55, 0
2, 176712, Note_on_c, 0, 52, 0
2, 176856, Note_on_c, 0, 76, 62
2, 176856, Note_on_c, 0, 71, 64
2, 176856, Note_on_c, 0, 64, 62
2, 176864, Note_on_c, 0, 59, 56
2, 176864, Note_on_c, 0, 55, 55
2, 176872, Note_on_c, 0, 62, 66
2, 176880, Note_on_c, 0, 52, 36
2, 176960, Note_on_c, 0, 64, 0
2, 176968, Note_on_c, 0, 52, 0
2, 176984, Note_on_c, 0, 62, 0
2, 176992, Note_on_c, 0, 59, 0
2, 176992, Note_on_c, 0, 55, 0
2, 177024, Note_on_c, 0, 71, 0
2, 177032, Note_on_c, 0, 76, 0
2, 177256, Note_on_c, 0, 81, 92
2, 177264, Note_on_c, 0, 69, 95
2, 177264, Note_on_c, 0, 76, 81
2, 177272, Note_on_c, 0, 65, 94
2, 177272, Note_on_c, 0, 61, 83
2, 177272, Note_on_c, 0, 55, 90
2, 177280, Control_c, 0, 64, 0
2, 177280, Note_on_c, 0, 78, 32
2, 177296, Note_on_c, 0, 78, 0
2, 177400, Control_c, 0, 64, 127
2, 177440, Note_on_c, 0, 69, 0
2, 177464, Note_on_c, 0, 76, 0
2, 177472, Note_on_c, 0, 81, 0
2, 177504, Note_on_c, 0, 65, 0
2, 177520, Note_on_c, 0, 55, 0
2, 177544, Note_on_c, 0, 61, 0
2, 177648, Note_on_c, 0, 84, 84
2, 177656, Note_on_c, 0, 55, 75
2, 177656, Note_on_c, 0, 61, 77
2, 177664, Note_on_c, 0, 64, 77
2, 177664, Note_on_c, 0, 79, 74
2, 177664, Note_on_c, 0, 72, 71
2, 177688, Control_c, 0, 64, 0
2, 177776, Control_c, 0, 64, 127
2, 177800, Note_on_c, 0, 72, 0
2, 177824, Note_on_c, 0, 84, 0
2, 177832, Note_on_c, 0, 79, 0
2, 177848, Note_on_c, 0, 55, 0
2, 177864, Note_on_c, 0, 64, 0
2, 177920, Note_on_c, 0, 61, 0
2, 178016, Control_c, 0, 64, 0
2, 178016, Note_on_c, 0, 88, 78
2, 178024, Note_on_c, 0, 60, 70
2, 178024, Note_on_c, 0, 76, 73
2, 178024, Note_on_c, 0, 84, 71
2, 178024, Note_on_c, 0, 81, 70
2, 178024, Note_on_c, 0, 64, 75
2, 178024, Note_on_c, 0, 53, 64
2, 178024, Note_on_c, 0, 57, 61
2, 178128, Note_on_c, 0, 76, 0
2, 178136, Control_c, 0, 64, 127
2, 178152, Note_on_c, 0, 81, 0
2, 178152, Note_on_c, 0, 64, 0
2, 178160, Note_on_c, 0, 84, 0
2, 178168, Note_on_c, 0, 88, 0
2, 178184, Note_on_c, 0, 53, 0
2, 178200, Note_on_c, 0, 60, 0
2, 178216, Note_on_c, 0, 57, 0
2, 178400, Note_on_c, 0, 91, 80
2, 178400, Note_on_c, 0, 88, 74
2, 178408, Note_on_c, 0, 84, 76
2, 178408, Note_on_c, 0, 57, 67
2, 178408, Note_on_c, 0, 79, 71
2, 178408, Note_on_c, 0, 64, 80
2, 178408, Note_on_c, 0, 60, 66
2, 178416, Note_on_c, 0, 53, 66
2, 178416, Control_c, 0, 64, 0
2, 178520, Note_on_c, 0, 79, 0
2, 178528, Control_c, 0, 64, 127
2, 178536, Note_on_c, 0, 84, 0
2, 178536, Note_on_c, 0, 91, 0
2, 178552, Note_on_c, 0, 88, 0
2, 178560, Note_on_c, 0, 64, 0
2, 178560, Note_on_c, 0, 60, 0
2, 178616, Note_on_c, 0, 53, 0
2, 178616, Note_on_c, 0, 57, 0
2, 178776, Note_on_c, 0, 92, 80
2, 178784, Note_on_c, 0, 87, 79
2, 178784, Note_on_c, 0, 80, 76
2, 178784, Note_on_c, 0, 53, 81
2, 178784, Note_on_c, 0, 59, 74
2, 178792, Control_c, 0, 64, 0
2, 178792, Note_on_c, 0, 64, 80
2, 178912, Control_c, 0, 64, 127
2, 178984, Note_on_c, 0, 64, 0
2, 178984, Note_on_c, 0, 80, 0
2, 178992, Note_on_c, 0, 92, 0
2, 179000, Note_on_c, 0, 87, 0
2, 179000, Note_on_c, 0, 53, 0
2, 179008, Note_on_c, 0, 59, 0
2, 179160, Note_on_c, 0, 94, 80
2, 179168, Note_on_c, 0, 82, 70
2, 179168, Note_on_c, 0, 87, 75
2, 179168, Note_on_c, 0, 63, 79
2, 179176, Note_on_c, 0, 59, 64
2, 179176, Note_on_c, 0, 56, 56
2, 179176, Note_on_c, 0, 53, 58
2, 179176, Control_c, 0, 64, 0
2, 179288, Control_c, 0, 64, 127
2, 179360, Note_on_c, 0, 59, 0
2, 179408, Note_on_c, 0, 53, 0
2, 179416, Note_on_c, 0, 63, 0
2, 179424, Note_on_c, 0, 56, 0
2, 179584, Note_on_c, 0, 82, 0
2, 179584, Note_on_c, 0, 87, 0
2, 179600, Note_on_c, 0, 94, 0
2, 179672, Control_c, 0, 64, 0
2, 179680, Note_on_c, 0, 62, 53
2, 179680, Note_on_c, 0, 52, 46
2, 179680, Note_on_c, 0, 57, 49
2, 179696, Note_on_c, 0, 58, 34
2, 179696, Note_on_c, 0, 83, 22
2, 179720, Note_on_c, 0, 83, 0
2, 180096, Note_on_c, 0, 84, 48
2, 180104, Note_on_c, 0, 52, 0
2, 180120, Note_on_c, 0, 58, 0
2, 180128, Note_on_c, 0, 62, 0
2, 180136, Note_on_c, 0, 57, 0
2, 180144, Note_on_c, 0, 84, 0
2, 180152, Control_c, 0, 64, 127
2, 180176, Control_c, 0, 64, 0
2, 180224, Note_on_c, 0, 88, 24
2, 180264, Note_on_c, 0, 88, 0
2, 180280, Control_c, 0, 64, 127
2, 180328, Note_on_c, 0, 91, 85
2, 180416, Note_on_c, 0, 91, 0
2, 180440, Control_c, 0, 64, 0
2, 180464, Note_on_c, 0, 57, 54
2, 180472, Note_on_c, 0, 68, 42
2, 180480, Note_on_c, 0, 63, 46
2, 180496, Note_on_c, 0, 61, 35
2, 180512, Note_on_c, 0, 95, 35
2, 180608, Note_on_c, 0, 63, 0
2, 180616, Note_on_c, 0, 61, 0
2, 180624, Note_on_c, 0, 57, 0
2, 180624, Note_on_c, 0, 68, 0
2, 180640, Note_on_c, 0, 95, 0
2, 180880, Note_on_c, 0, 68, 55
2, 180880, Note_on_c, 0, 94, 69
2, 180896, Note_on_c, 0, 63, 36
2, 180896, Note_on_c, 0, 61, 35
2, 180928, Note_on_c, 0, 63, 0
2, 180936, Note_on_c, 0, 68, 0
2, 180960, Note_on_c, 0, 94, 0
2, 180960, Note_on_c, 0, 61, 0
2, 181128, Note_on_c, 0, 68, 50
2, 181136, Note_on_c, 0, 93, 68
2, 181144, Note_on_c, 0, 57, 36
2, 181144, Note_on_c, 0, 63, 44
2, 181144, Note_on_c, 0, 61, 38
2, 181168, Note_on_c, 0, 57, 0
2, 181208, Note_on_c, 0, 68, 0
2, 181216, Note_on_c, 0, 93, 0
2, 181216, Note_on_c, 0, 63, 0
2, 181232, Note_on_c, 0, 61, 0
2, 181264, Note_on_c, 0, 88, 55
2, 181288, Note_on_c, 0, 56, 42
2, 181296, Note_on_c, 0, 62, 42
2, 181400, Note_on_c, 0, 62, 0
2, 181408, Note_on_c, 0, 88, 0
2, 181416, Note_on_c, 0, 56, 0
2, 181648, Note_on_c, 0, 56, 45
2, 181656, Note_on_c, 0, 87, 61
2, 181664, Note_on_c, 0, 62, 48
2, 181672, Note_on_c, 0, 67, 25
2, 181704, Note_on_c, 0, 67, 0
2, 181744, Note_on_c, 0, 62, 0
2, 181760, Note_on_c, 0, 87, 0
2, 181832, Note_on_c, 0, 56, 0
2, 182016, Note_on_c, 0, 87, 69
2, 182024, Note_on_c, 0, 55, 46
2, 182032, Note_on_c, 0, 65, 35
2, 182032, Note_on_c, 0, 61, 33
2, 182120, Note_on_c, 0, 88, 66
2, 182136, Note_on_c, 0, 87, 0
2, 182208, Note_on_c, 0, 61, 0
2, 182208, Note_on_c, 0, 55, 0
2, 182224, Note_on_c, 0, 65, 0
2, 182248, Note_on_c, 0, 87, 68
2, 182272, Note_on_c, 0, 88, 0
2, 182344, Note_on_c, 0, 87, 0
2, 182352, Note_on_c, 0, 84, 65
2, 182384, Note_on_c, 0, 55, 42
2, 182400, Note_on_c, 0, 61, 32
2, 182408, Note_on_c, 0, 65, 22
2, 182432, Note_on_c, 0, 84, 0
2, 182456, Note_on_c, 0, 81, 54
2, 182608, Note_on_c, 0, 55, 0
2, 182616, Note_on_c, 0, 65, 0
2, 182632, Note_on_c, 0, 81, 0
2, 182648, Note_on_c, 0, 84, 80
2, 182704, Note_on_c, 0, 61, 0
2, 182744, Note_on_c, 0, 84, 0
2, 182776, Note_on_c, 0, 64, 29
2, 182784, Note_on_c, 0, 60, 33
2, 182800, Note_on_c, 0, 54, 31
2, 182816, Note_on_c, 0, 76, 44
2, 182824, Note_on_c, 0, 88, 57
2, 182992, Note_on_c, 0, 60, 0
2, 182992, Note_on_c, 0, 64, 0
2, 183000, Note_on_c, 0, 76, 0
2, 183016, Note_on_c, 0, 54, 0
2, 183024, Note_on_c, 0, 88, 0
2, 183152, Note_on_c, 0, 54, 32
2, 183152, Note_on_c, 0, 64, 27
2, 183160, Note_on_c, 0, 60, 24
2, 183168, Note_on_c, 0, 84, 45
2, 183312, Note_on_c, 0, 60, 0
2, 183328, Note_on_c, 0, 64, 0
2, 183368, Note_on_c, 0, 54, 0
2, 183392, Note_on_c, 0, 84, 0
2, 183440, Note_on_c, 0, 81, 29
2, 183488, Note_on_c, 0, 81, 0
2, 183536, Note_on_c, 0, 54, 35
2, 183544, Note_on_c, 0, 64, 26
2, 183544, Note_on_c, 0, 60, 40
2, 183560, Note_on_c, 0, 84, 36
2, 183560, Note_on_c, 0, 76, 29
2, 183584, Note_on_c, 0, 60, 0
2, 183584, Note_on_c, 0, 64, 0
2, 183592, Note_on_c, 0, 84, 0
2, 183600, Note_on_c, 0, 76, 0
2, 183600, Note_on_c, 0, 54, 0
2, 183920, Note_on_c, 0, 76, 77
2, 183920, Note_on_c, 0, 62, 71
2, 183928, Note_on_c, 0, 66, 67
2, 183928, Note_on_c, 0, 64, 58
2, 183936, Note_on_c, 0, 62, 0
2, 183936, Note_on_c, 0, 68, 45
2, 183936, Note_on_c, 0, 72, 39
2, 183976, Note_on_c, 0, 68, 0
2, 184080, Note_on_c, 0, 76, 0
2, 184088, Note_on_c, 0, 72, 0
2, 184088, Note_on_c, 0, 66, 0
2, 184176, Note_on_c, 0, 64, 0
2, 184264, Note_on_c, 0, 62, 51
2, 184296, Note_on_c, 0, 76, 64
2, 184304, Note_on_c, 0, 62, 0
2, 184312, Note_on_c, 0, 66, 37
2, 184312, Note_on_c, 0, 68, 49
2, 184312, Note_on_c, 0, 64, 50
2, 184328, Note_on_c, 0, 72, 32
2, 184432, Note_on_c, 0, 76, 0
2, 184456, Note_on_c, 0, 66, 0
2, 184472, Note_on_c, 0, 72, 0
2, 184472, Note_on_c, 0, 68, 0
2, 184552, Note_on_c, 0, 64, 0
2, 184592, Note_on_c, 0, 61, 27
2, 184656, Note_on_c, 0, 61, 0
2, 184656, Note_on_c, 0, 62, 42
2, 184672, Note_on_c, 0, 64, 39
2, 184672, Note_on_c, 0, 76, 50
2, 184680, Note_on_c, 0, 66, 34
2, 184680, Note_on_c, 0, 68, 45
2, 184688, Note_on_c, 0, 62, 0
2, 184696, Note_on_c, 0, 72, 35
2, 184840, Note_on_c, 0, 76, 0
2, 184872, Note_on_c, 0, 66, 0
2, 184880, Note_on_c, 0, 72, 0
2, 184888, Note_on_c, 0, 68, 0
2, 184928, Note_on_c, 0, 64, 0
2, 185016, Note_on_c, 0, 62, 38
2, 185040, Note_on_c, 0, 62, 0
2, 185056, Note_on_c, 0, 64, 50
2, 185064, Note_on_c, 0, 76, 44
2, 185064, Note_on_c, 0, 68, 39
2, 185072, Note_on_c, 0, 66, 29
2, 185088, Note_on_c, 0, 72, 34
2, 185256, Note_on_c, 0, 76, 0
2, 185272, Note_on_c, 0, 66, 0
2, 185280, Note_on_c, 0, 72, 0
2, 185288, Note_on_c, 0, 68, 0
2, 185320, Note_on_c, 0, 64, 0
2, 185336, Note_on_c, 0, 61, 32
2, 185416, Note_on_c, 0, 61, 0
2, 185416, Note_on_c, 0, 62, 44
2, 185440, Note_on_c, 0, 62, 0
2, 185440, Note_on_c, 0, 64, 44
2, 185448, Note_on_c, 0, 76, 50
2, 185448, Note_on_c, 0, 66, 47
2, 185448, Note_on_c, 0, 68, 50
2, 185464, Note_on_c, 0, 72, 42
2, 185656, Note_on_c, 0, 76, 0
2, 185680, Note_on_c, 0, 72, 0
2, 185704, Note_on_c, 0, 64, 0
2, 185704, Note_on_c, 0, 68, 0
2, 185720, Note_on_c, 0, 66, 0
2, 185728, Note_on_c, 0, 61, 33
2, 185784, Note_on_c, 0, 61, 0
2, 185784, Note_on_c, 0, 62, 54
2, 185816, Note_on_c, 0, 76, 56
2, 185824, Note_on_c, 0, 69, 50
2, 185832, Note_on_c, 0, 62, 0
2, 185832, Note_on_c, 0, 65, 44
2, 185832, Note_on_c, 0, 72, 44
2, 185840, Note_on_c, 0, 64, 37
2, 186056, Note_on_c, 0, 72, 0
2, 186080, Note_on_c, 0, 65, 0
2, 186088, Note_on_c, 0, 69, 0
2, 186152, Note_on_c, 0, 76, 0
2, 186208, Note_on_c, 0, 64, 0
2, 186208, Note_on_c, 0, 65, 32
2, 186208, Note_on_c, 0, 60, 36
2, 186216, Note_on_c, 0, 72, 36
2, 186224, Note_on_c, 0, 69, 35
2, 186360, Note_on_c, 0, 65, 0
2, 186376, Note_on_c, 0, 69, 0
2, 186400, Note_on_c, 0, 72, 0
2, 186448, Note_on_c, 0, 62, 54
2, 186456, Note_on_c, 0, 60, 0
2, 186472, Note_on_c, 0, 76, 65
2, 186472, Note_on_c, 0, 69, 70
2, 186480, Note_on_c, 0, 65, 59
2, 186480, Note_on_c, 0, 72, 53
2, 186480, Note_on_c, 0, 64, 51
2, 186528, Note_on_c, 0, 62, 0
2, 186992, Control_c, 0, 64, 127
2, 187232, Note_on_c, 0, 64, 0
2, 187256, Note_on_c, 0, 65, 0
2, 187296, Note_on_c, 0, 69, 0
2, 187328, Note_on_c, 0, 72, 0
2, 187360, Note_on_c, 0, 76, 0
2, 187384, Note_on_c, 0, 65, 24
2, 187392, Control_c, 0, 64, 0
2, 187400, Note_on_c, 0, 62, 30
2, 187400, Note_on_c, 0, 57, 20
2, 187496, Note_on_c, 0, 71, 60
2, 187496, Note_on_c, 0, 74, 62
2, 187552, Note_on_c, 0, 65, 0
2, 187560, Note_on_c, 0, 74, 0
2, 187568, Note_on_c, 0, 62, 0
2, 187576, Note_on_c, 0, 71, 0
2, 187616, Note_on_c, 0, 76, 67
2, 187624, Note_on_c, 0, 72, 55
2, 187680, Note_on_c, 0, 76, 0
2, 187688, Note_on_c, 0, 72, 0
2, 187728, Note_on_c, 0, 77, 72
2, 187728, Note_on_c, 0, 74, 75
2, 187744, Note_on_c, 0, 72, 34
2, 187776, Note_on_c, 0, 72, 0
2, 187776, Note_on_c, 0, 74, 0
2, 187776, Note_on_c, 0, 77, 0
2, 187816, Note_on_c, 0, 65, 43
2, 187816, Note_on_c, 0, 79, 73
2, 187824, Note_on_c, 0, 76, 69
2, 187832, Note_on_c, 0, 62, 24
2, 187896, Note_on_c, 0, 62, 0
2, 187896, Note_on_c, 0, 79, 0
2, 187896, Note_on_c, 0, 76, 0
2, 187928, Note_on_c, 0, 77, 61
2, 187936, Note_on_c, 0, 57, 0
2, 187936, Note_on_c, 0, 74, 60
2, 187944, Note_on_c, 0, 65, 0
2, 187984, Note_on_c, 0, 77, 0
2, 188000, Note_on_c, 0, 74, 0
2, 188040, Note_on_c, 0, 76, 63
2, 188056, Note_on_c, 0, 72, 30
2, 188064, Note_on_c, 0, 76, 0
2, 188080, Note_on_c, 0, 72, 0
2, 188144, Note_on_c, 0, 71, 55
2, 188152, Note_on_c, 0, 74, 46
2, 188160, Note_on_c, 0, 62, 37
2, 188184, Note_on_c, 0, 56, 32
2, 188200, Note_on_c, 0, 74, 0
2, 188200, Note_on_c, 0, 71, 0
2, 188280, Note_on_c, 0, 72, 49
2, 188288, Note_on_c, 0, 69, 31
2, 188320, Note_on_c, 0, 62, 0
2, 188360, Note_on_c, 0, 72, 0
2, 188400, Note_on_c, 0, 69, 0
2, 188480, Note_on_c, 0, 62, 30
2, 188496, Note_on_c, 0, 71, 38
2, 188496, Note_on_c, 0, 68, 32
2, 188544, Note_on_c, 0, 62, 0
2, 188568, Control_c, 0, 64, 127
2, 188576, Control_c, 0, 64, 0
2, 188680, Note_on_c, 0, 71, 0
2, 188696, Note_on_c, 0, 68, 0
2, 188704, Note_on_c, 0, 56, 0
2, 188776, Note_on_c, 0, 64, 39
2, 188784, Note_on_c, 0, 57, 28
2, 188784, Note_on_c, 0, 74, 36
2, 188800, Note_on_c, 0, 71, 49
2, 188848, Note_on_c, 0, 60, 6
2, 188960, Control_c, 0, 64, 127
2, 188976, Note_on_c, 0, 64, 0
2, 189024, Note_on_c, 0, 60, 0
2, 189112, Note_on_c, 0, 71, 0
2, 189128, Note_on_c, 0, 74, 0
2, 189168, Note_on_c, 0, 72, 60
2, 189176, Note_on_c, 0, 69, 50
2, 189184, Note_on_c, 0, 60, 41
2, 189192, Note_on_c, 0, 64, 27
2, 189216, Control_c, 0, 64, 0
2, 189256, Note_on_c, 0, 72, 0
2, 189264, Note_on_c, 0, 69, 0
2, 189288, Note_on_c, 0, 64, 0
2, 189336, Note_on_c, 0, 68, 32
2, 189344, Note_on_c, 0, 71, 38
2, 189480, Note_on_c, 0, 68, 0
2, 189512, Note_on_c, 0, 71, 0
2, 189512, Control_c, 0, 64, 127
2, 189544, Note_on_c, 0, 57, 0
2, 189568, Note_on_c, 0, 56, 52
2, 189568, Note_on_c, 0, 72, 67
2, 189576, Note_on_c, 0, 68, 71
2, 189576, Note_on_c, 0, 64, 54
2, 189592, Control_c, 0, 64, 0
2, 189744, Note_on_c, 0, 64, 0
2, 189776, Control_c, 0, 64, 127
2, 189800, Note_on_c, 0, 60, 0
2, 189960, Note_on_c, 0, 60, 38
2, 190000, Note_on_c, 0, 60, 0
2, 190040, Control_c, 0, 64, 0
2, 190072, Note_on_c, 0, 68, 0
2, 190088, Note_on_c, 0, 64, 40
2, 190096, Note_on_c, 0, 60, 32
2, 190104, Control_c, 0, 64, 127
2, 190136, Note_on_c, 0, 72, 0
2, 190216, Note_on_c, 0, 64, 0
2, 190336, Note_on_c, 0, 56, 0
2, 190376, Note_on_c, 0, 60, 0
2, 190440, Control_c, 0, 64, 0
2, 190456, Note_on_c, 0, 55, 55
2, 190456, Note_on_c, 0, 60, 30
2, 190456, Note_on_c, 0, 64, 36
2, 190496, Note_on_c, 0, 69, 77
2, 190568, Note_on_c, 0, 69, 0
2, 190600, Note_on_c, 0, 70, 64
2, 190640, Note_on_c, 0, 70, 0
2, 190696, Note_on_c, 0, 74, 76
2, 190752, Note_on_c, 0, 74, 0
2, 190784, Note_on_c, 0, 77, 60
2, 190792, Note_on_c, 0, 64, 0
2, 190808, Note_on_c, 0, 60, 0
2, 190848, Note_on_c, 0, 55, 0
2, 190856, Note_on_c, 0, 77, 0
2, 190888, Note_on_c, 0, 81, 64
2, 190952, Note_on_c, 0, 81, 0
2, 190976, Note_on_c, 0, 82, 58
2, 191008, Note_on_c, 0, 82, 0
2, 191048, Note_on_c, 0, 84, 79
2, 191104, Note_on_c, 0, 84, 0
2, 191120, Note_on_c, 0, 85, 65
2, 191152, Note_on_c, 0, 62, 45
2, 191160, Note_on_c, 0, 57, 31
2, 191168, Note_on_c, 0, 58, 34
2, 191184, Note_on_c, 0, 52, 43
2, 191192, Note_on_c, 0, 85, 0
2, 191192, Note_on_c, 0, 87, 64
2, 191224, Note_on_c, 0, 87, 0
2, 191256, Note_on_c, 0, 88, 69
2, 191288, Note_on_c, 0, 58, 0
2, 191296, Note_on_c, 0, 62, 0
2, 191304, Note_on_c, 0, 88, 0
2, 191328, Note_on_c, 0, 90, 60
2, 191352, Note_on_c, 0, 57, 0
2, 191376, Note_on_c, 0, 90, 0
2, 191408, Note_on_c, 0, 91, 62
2, 191488, Note_on_c, 0, 91, 0
2, 191488, Note_on_c, 0, 93, 70
2, 191560, Note_on_c, 0, 93, 0
2, 191560, Note_on_c, 0, 94, 64
2, 191560, Note_on_c, 0, 57, 24
2, 191584, Note_on_c, 0, 58, 29
2, 191584, Note_on_c, 0, 62, 32
2, 191592, Note_on_c, 0, 94, 0
2, 191632, Note_on_c, 0, 96, 57
2, 191672, Note_on_c, 0, 96, 0
2, 191688, Note_on_c, 0, 97, 48
2, 191752, Note_on_c, 0, 97, 0
2, 191768, Note_on_c, 0, 52, 0
2, 191768, Note_on_c, 0, 99, 48
2, 191776, Note_on_c, 0, 57, 0
2, 191808, Note_on_c, 0, 58, 0
2, 191816, Note_on_c, 0, 99, 0
2, 191824, Note_on_c, 0, 100, 35
2, 191840, Note_on_c, 0, 62, 0
2, 191896, Note_on_c, 0, 100, 0
2, 191904, Note_on_c, 0, 103, 84
2, 191952, Note_on_c, 0, 64, 35
2, 191960, Note_on_c, 0, 60, 34
2, 191968, Note_on_c, 0, 53, 35
2, 191968, Note_on_c, 0, 57, 36
2, 191992, Note_on_c, 0, 103, 0
2, 192016, Note_on_c, 0, 101, 70
2, 192168, Note_on_c, 0, 101, 0
2, 192216, Note_on_c, 0, 100, 75
2, 192296, Note_on_c, 0, 100, 0
2, 192352, Note_on_c, 0, 96, 68
2, 192360, Note_on_c, 0, 64, 0
2, 192376, Note_on_c, 0, 60, 0
2, 192384, Note_on_c, 0, 57, 0
2, 192440, Note_on_c, 0, 96, 0
2, 192472, Note_on_c, 0, 93, 46
2, 192520, Note_on_c, 0, 93, 0
2, 192584, Note_on_c, 0, 88, 71
2, 192640, Note_on_c, 0, 88, 0
2, 192736, Note_on_c, 0, 53, 0
2, 192960, Note_on_c, 0, 91, 105
2, 193000, Note_on_c, 0, 64, 47
2, 193008, Note_on_c, 0, 53, 31
2, 193008, Note_on_c, 0, 57, 47
2, 193016, Note_on_c, 0, 60, 36
2, 193024, Note_on_c, 0, 64, 0
2, 193056, Note_on_c, 0, 60, 0
2, 193112, Note_on_c, 0, 90, 59
2, 193120, Note_on_c, 0, 91, 0
2, 193144, Note_on_c, 0, 89, 58
2, 193176, Note_on_c, 0, 90, 0
2, 193208, Note_on_c, 0, 57, 0
2, 193224, Note_on_c, 0, 89, 0
2, 193232, Note_on_c, 0, 88, 60
2, 193264, Note_on_c, 0, 88, 0
2, 193304, Note_on_c, 0, 53, 0
2, 193328, Note_on_c, 0, 84, 77
2, 193392, Note_on_c, 0, 84, 0
2, 193512, Note_on_c, 0, 64, 32
2, 193520, Note_on_c, 0, 56, 34
2, 193528, Note_on_c, 0, 60, 36
2, 193536, Note_on_c, 0, 53, 32
2, 193560, Note_on_c, 0, 79, 26
2, 193584, Note_on_c, 0, 79, 0
2, 193584, Note_on_c, 0, 64, 0
2, 193608, Note_on_c, 0, 60, 0
2, 193616, Note_on_c, 0, 84, 80
2, 193704, Note_on_c, 0, 84, 0
2, 193712, Note_on_c, 0, 56, 0
2, 193736, Note_on_c, 0, 80, 68
2, 193800, Note_on_c, 0, 80, 0
2, 193800, Note_on_c, 0, 53, 0
2, 193856, Note_on_c, 0, 79, 65
2, 193928, Note_on_c, 0, 79, 0
2, 193960, Note_on_c, 0, 80, 48
2, 194008, Note_on_c, 0, 79, 54
2, 194032, Note_on_c, 0, 80, 0
2, 194072, Note_on_c, 0, 79, 0
2, 194080, Note_on_c, 0, 77, 62
2, 194128, Note_on_c, 0, 77, 0
2, 194168, Note_on_c, 0, 76, 55
2, 194200, Note_on_c, 0, 56, 20
2, 194208, Note_on_c, 0, 76, 0
2, 194264, Note_on_c, 0, 56, 0
2, 194264, Note_on_c, 0, 79, 71
2, 194344, Note_on_c, 0, 79, 0
2, 194368, Note_on_c, 0, 76, 50
2, 194400, Note_on_c, 0, 76, 0
2, 194456, Note_on_c, 0, 77, 74
2, 194544, Note_on_c, 0, 77, 0
2, 194568, Note_on_c, 0, 72, 66
2, 194616, Note_on_c, 0, 72, 0
2, 194632, Note_on_c, 0, 56, 31
2, 194632, Note_on_c, 0, 60, 33
2, 194648, Note_on_c, 0, 53, 37
2, 194680, Note_on_c, 0, 69, 58
2, 194744, Note_on_c, 0, 69, 0
2, 194760, Note_on_c, 0, 60, 0
2, 194776, Note_on_c, 0, 67, 57
2, 194808, Note_on_c, 0, 67, 0
2, 194832, Note_on_c, 0, 53, 0
2, 194888, Note_on_c, 0, 65, 26
2, 194912, Note_on_c, 0, 56, 0
2, 194920, Note_on_c, 0, 65, 0
2, 194968, Note_on_c, 0, 64, 60
2, 195000, Note_on_c, 0, 64, 0
2, 195048, Note_on_c, 0, 52, 20
2, 195064, Note_on_c, 0, 67, 58
2, 195064, Note_on_c, 0, 59, 24
2, 195072, Note_on_c, 0, 55, 27
2, 195080, Control_c, 0, 64, 127
2, 195096, Note_on_c, 0, 59, 0
2, 195112, Note_on_c, 0, 55, 0
2, 195160, Note_on_c, 0, 52, 0
2, 195256, Note_on_c, 0, 67, 0
2, 195296, Note_on_c, 0, 60, 62
2, 195304, Note_on_c, 0, 52, 54
2, 195304, Note_on_c, 0, 55, 60
2, 195336, Note_on_c, 0, 55, 0
2, 195352, Note_on_c, 0, 60, 0
2, 195368, Note_on_c, 0, 52, 0
2, 195368, Control_c, 0, 64, 0
2, 195544, Note_on_c, 0, 67, 67
2, 195552, Control_c, 0, 64, 127
2, 195608, Note_on_c, 0, 67, 0
2, 195664, Note_on_c, 0, 71, 64
2, 195664, Note_on_c, 0, 69, 65
2, 195712, Note_on_c, 0, 69, 0
2, 195728, Note_on_c, 0, 71, 0
2, 195776, Control_c, 0, 64, 0
2, 195800, Note_on_c, 0, 57, 64
2, 195800, Note_on_c, 0, 72, 90
2, 195800, Note_on_c, 0, 68, 70
2, 195800, Note_on_c, 0, 61, 59
2, 195800, Note_on_c, 0, 63, 61
2, 195912, Control_c, 0, 64, 127
2, 196080, Note_on_c, 0, 57, 0
2, 196088, Note_on_c, 0, 61, 0
2, 196096, Note_on_c, 0, 68, 0
2, 196112, Note_on_c, 0, 63, 0
2, 196152, Note_on_c, 0, 72, 0
2, 196160, Control_c, 0, 64, 0
2, 196192, Note_on_c, 0, 68, 60
2, 196200, Note_on_c, 0, 57, 59
2, 196200, Note_on_c, 0, 74, 72
2, 196200, Note_on_c, 0, 63, 42
2, 196208, Note_on_c, 0, 61, 40
2, 196264, Control_c, 0, 64, 127
2, 196408, Note_on_c, 0, 57, 0
2, 196424, Note_on_c, 0, 68, 0
2, 196448, Note_on_c, 0, 63, 0
2, 196448, Note_on_c, 0, 61, 0
2, 196456, Note_on_c, 0, 74, 0
2, 196488, Note_on_c, 0, 71, 81
2, 196488, Control_c, 0, 64, 0
2, 196496, Note_on_c, 0, 67, 81
2, 196496, Note_on_c, 0, 56, 77
2, 196496, Note_on_c, 0, 62, 76
2, 196624, Control_c, 0, 64, 127
2, 196840, Note_on_c, 0, 62, 0
2, 196872, Note_on_c, 0, 67, 0
2, 196904, Note_on_c, 0, 56, 0
2, 196936, Control_c, 0, 64, 0
2, 196984, Note_on_c, 0, 67, 56
2, 196984, Note_on_c, 0, 56, 47
2, 196992, Note_on_c, 0, 62, 57
2, 197000, Note_on_c, 0, 71, 0
2, 197008, Control_c, 0, 64, 127
2, 197152, Note_on_c, 0, 67, 0
2, 197160, Note_on_c, 0, 62, 0
2, 197208, Note_on_c, 0, 56, 0
2, 197240, Control_c, 0, 64, 0
2, 197248, Note_on_c, 0, 55, 77
2, 197248, Note_on_c, 0, 65, 75
2, 197248, Note_on_c, 0, 61, 67
2, 197344, Control_c, 0, 64, 127
2, 197512, Note_on_c, 0, 65, 0
2, 197512, Note_on_c, 0, 55, 0
2, 197536, Note_on_c, 0, 61, 0
2, 197616, Note_on_c, 0, 79, 88
2, 197624, Note_on_c, 0, 61, 69
2, 197632, Note_on_c, 0, 55, 76
2, 197632, Note_on_c, 0, 65, 69
2, 197664, Note_on_c, 0, 79, 0
2, 197696, Control_c, 0, 64, 0
2, 197736, Note_on_c, 0, 79, 31
2, 197752, Note_on_c, 0, 80, 59
2, 197760, Note_on_c, 0, 79, 0
2, 197784, Note_on_c, 0, 65, 0
2, 197800, Note_on_c, 0, 80, 0
2, 197808, Note_on_c, 0, 81, 60
2, 197848, Note_on_c, 0, 55, 0
2, 197872, Note_on_c, 0, 81, 0
2, 197920, Note_on_c, 0, 61, 0
2, 197920, Note_on_c, 0, 83, 64
2, 197920, Note_on_c, 0, 84, 68
2, 197984, Note_on_c, 0, 84, 0
2, 197992, Note_on_c, 0, 83, 0
2, 198024, Note_on_c, 0, 84, 87
2, 198032, Control_c, 0, 64, 127
2, 198032, Note_on_c, 0, 72, 61
2, 198056, Note_on_c, 0, 64, 55
2, 198064, Note_on_c, 0, 60, 45
2, 198072, Note_on_c, 0, 54, 36
2, 198072, Control_c, 0, 64, 0
2, 198072, Note_on_c, 0, 57, 39
2, 198096, Note_on_c, 0, 72, 0
2, 198096, Note_on_c, 0, 84, 0
2, 198160, Note_on_c, 0, 84, 62
2, 198168, Note_on_c, 0, 72, 54
2, 198240, Note_on_c, 0, 84, 0
2, 198264, Note_on_c, 0, 72, 0
2, 198280, Note_on_c, 0, 64, 0
2, 198288, Note_on_c, 0, 60, 0
2, 198288, Note_on_c, 0, 57, 0
2, 198320, Note_on_c, 0, 54, 0
2, 198520, Note_on_c, 0, 54, 50
2, 198528, Note_on_c, 0, 64, 38
2, 198528, Note_on_c, 0, 60, 44
2, 198528, Note_on_c, 0, 81, 66
2, 198544, Note_on_c, 0, 72, 47
2, 198608, Note_on_c, 0, 72, 0
2, 198648, Note_on_c, 0, 64, 0
2, 198648, Note_on_c, 0, 81, 0
2, 198656, Note_on_c, 0, 60, 0
2, 198688, Note_on_c, 0, 54, 0
2, 198920, Note_on_c, 0, 54, 57
2, 198920, Note_on_c, 0, 64, 49
2, 198920, Note_on_c, 0, 81, 62
2, 198920, Note_on_c, 0, 60, 54
2, 198920, Note_on_c, 0, 84, 72
2, 198928, Note_on_c, 0, 72, 61
2, 198944, Note_on_c, 0, 60, 0
2, 198944, Note_on_c, 0, 64, 0
2, 198992, Note_on_c, 0, 54, 0
2, 199040, Note_on_c, 0, 84, 0
2, 199040, Note_on_c, 0, 72, 0
2, 199064, Note_on_c, 0, 81, 0
2, 199104, Control_c, 0, 64, 127
2, 199192, Control_c, 0, 64, 0
2, 199296, Control_c, 0, 64, 127
2, 199304, Note_on_c, 0, 55, 101
2, 199304, Note_on_c, 0, 43, 90
2, 199568, Note_on_c, 0, 43, 0
2, 199576, Note_on_c, 0, 55, 0
2, 199936, Control_c, 0, 64, 0
2, 199952, Note_on_c, 0, 85, 90
2, 199952, Note_on_c, 0, 91, 92
2, 199952, Note_on_c, 0, 79, 91
2, 199960, Note_on_c, 0, 59, 89
2, 199960, Note_on_c, 0, 53, 91
2, 199960, Note_on_c, 0, 64, 95
2, 199968, Note_on_c, 0, 89, 52
2, 199968, Note_on_c, 0, 56, 46
2, 199992, Note_on_c, 0, 56, 0
2, 199992, Note_on_c, 0, 89, 0
2, 200056, Note_on_c, 0, 85, 0
2, 200064, Note_on_c, 0, 79, 0
2, 200064, Note_on_c, 0, 86, 56
2, 200072, Note_on_c, 0, 64, 0
2, 200088, Note_on_c, 0, 53, 0
2, 200088, Note_on_c, 0, 59, 0
2, 200096, Note_on_c, 0, 86, 0
2, 200104, Note_on_c, 0, 91, 0
2, 200296, Note_on_c, 0, 85, 90
2, 200296, Note_on_c, 0, 91, 91
2, 200296, Note_on_c, 0, 79, 91
2, 200312, Note_on_c, 0, 59, 83
2, 200312, Note_on_c, 0, 64, 90
2, 200312, Note_on_c, 0, 53, 85
2, 200424, Note_on_c, 0, 79, 0
2, 200424, Note_on_c, 0, 85, 0
2, 200432, Note_on_c, 0, 86, 35
2, 200440, Note_on_c, 0, 64, 0
2, 200448, Note_on_c, 0, 59, 0
2, 200448, Note_on_c, 0, 91, 0
2, 200464, Note_on_c, 0, 53, 0
2, 200464, Note_on_c, 0, 86, 0
2, 200528, Control_c, 0, 64, 127
2, 200696, Note_on_c, 0, 93, 88
2, 200704, Note_on_c, 0, 88, 87
2, 200704, Note_on_c, 0, 81, 80
2, 200712, Note_on_c, 0, 59, 78
2, 200712, Note_on_c, 0, 53, 82
2, 200712, Note_on_c, 0, 64, 87
2, 200784, Note_on_c, 0, 93, 0
2, 200800, Note_on_c, 0, 88, 0
2, 200800, Note_on_c, 0, 64, 0
2, 200808, Note_on_c, 0, 81, 0
2, 200816, Note_on_c, 0, 53, 0
2, 200816, Control_c, 0, 64, 0
2, 200832, Note_on_c, 0, 59, 0
2, 200856, Note_on_c, 0, 53, 51
2, 200856, Note_on_c, 0, 64, 59
2, 200864, Note_on_c, 0, 59, 33
2, 200864, Note_on_c, 0, 91, 56
2, 200872, Note_on_c, 0, 79, 48
2, 200872, Note_on_c, 0, 86, 59
2, 200920, Control_c, 0, 64, 127
2, 200936, Note_on_c, 0, 79, 0
2, 200952, Note_on_c, 0, 86, 0
2, 200976, Note_on_c, 0, 91, 0
2, 201016, Note_on_c, 0, 59, 0
2, 201040, Note_on_c, 0, 64, 0
2, 201064, Note_on_c, 0, 53, 0
2, 201080, Control_c, 0, 64, 0
2, 201192, Control_c, 0, 64, 127
2, 201192, Note_on_c, 0, 82, 77
2, 201192, Note_on_c, 0, 94, 77
2, 201200, Note_on_c, 0, 89, 72
2, 201200, Note_on_c, 0, 62, 80
2, 201200, Note_on_c, 0, 58, 64
2, 201208, Note_on_c, 0, 52, 75
2, 201312, Note_on_c, 0, 89, 0
2, 201352, Note_on_c, 0, 82, 0
2, 201352, Note_on_c, 0, 52, 0
2, 201360, Note_on_c, 0, 94, 0
2, 201360, Note_on_c, 0, 62, 0
2, 201376, Note_on_c, 0, 58, 0
2, 201472, Note_on_c, 0, 52, 71
2, 201472, Note_on_c, 0, 62, 62
2, 201472, Note_on_c, 0, 58, 53
2, 201472, Note_on_c, 0, 96, 57
2, 201504, Note_on_c, 0, 96, 0
2, 201536, Control_c, 0, 64, 0
2, 201544, Note_on_c, 0, 62, 0
2, 201552, Note_on_c, 0, 52, 0
2, 201568, Note_on_c, 0, 58, 0
2, 201624, Note_on_c, 0, 94, 53
2, 201632, Note_on_c, 0, 82, 52
2, 201632, Note_on_c, 0, 52, 58
2, 201632, Note_on_c, 0, 58, 43
2, 201632, Note_on_c, 0, 62, 54
2, 201704, Note_on_c, 0, 62, 0
2, 201720, Note_on_c, 0, 52, 0
2, 201728, Note_on_c, 0, 58, 0
2, 201736, Note_on_c, 0, 82, 0
2, 201736, Note_on_c, 0, 94, 0
2, 201952, Control_c, 0, 64, 127
2, 201960, Note_on_c, 0, 58, 62
2, 201960, Note_on_c, 0, 62, 74
2, 201960, Note_on_c, 0, 52, 74
2, 201968, Note_on_c, 0, 96, 81
2, 201976, Note_on_c, 0, 84, 71
2, 202072, Note_on_c, 0, 96, 0
2, 202088, Note_on_c, 0, 52, 0
2, 202088, Note_on_c, 0, 84, 0
2, 202088, Note_on_c, 0, 62, 0
2, 202120, Note_on_c, 0, 58, 0
2, 202224, Note_on_c, 0, 82, 67
2, 202224, Note_on_c, 0, 94, 69
2, 202224, Note_on_c, 0, 58, 69
2, 202232, Note_on_c, 0, 52, 74
2, 202232, Note_on_c, 0, 62, 70
2, 202264, Control_c, 0, 64, 0
2, 202272, Note_on_c, 0, 82, 0
2, 202288, Note_on_c, 0, 52, 0
2, 202288, Note_on_c, 0, 62, 0
2, 202304, Note_on_c, 0, 58, 0
2, 202304, Note_on_c, 0, 94, 0
2, 202392, Note_on_c, 0, 90, 26
2, 202416, Note_on_c, 0, 90, 0
2, 202504, Control_c, 0, 64, 127
2, 202584, Control_c, 0, 64, 0
2, 202592, Note_on_c, 0, 96, 92
2, 202600, Note_on_c, 0, 66, 92
2, 202600, Note_on_c, 0, 61, 79
2, 202600, Note_on_c, 0, 89, 89
2, 202600, Note_on_c, 0, 55, 89
2, 202608, Note_on_c, 0, 93, 57
2, 202632, Note_on_c, 0, 93, 0
2, 202680, Note_on_c, 0, 96, 0
2, 202696, Note_on_c, 0, 89, 0
2, 202696, Control_c, 0, 64, 127
2, 202728, Note_on_c, 0, 55, 0
2, 202744, Note_on_c, 0, 61, 0
2, 202752, Note_on_c, 0, 66, 0
2, 202976, Note_on_c, 0, 84, 92
2, 202976, Note_on_c, 0, 72, 88
2, 202984, Note_on_c, 0, 77, 82
2, 202984, Note_on_c, 0, 73, 84
2, 203000, Note_on_c, 0, 71, 35
2, 203000, Control_c, 0, 64, 0
2, 203008, Note_on_c, 0, 64, 33
2, 203024, Note_on_c, 0, 71, 0
2, 203032, Note_on_c, 0, 77, 0
2, 203040, Note_on_c, 0, 84, 0
2, 203040, Note_on_c, 0, 64, 0
2, 203048, Note_on_c, 0, 72, 0
2, 203056, Control_c, 0, 64, 127
2, 203080, Note_on_c, 0, 73, 0
2, 203096, Control_c, 0, 64, 0
2, 203136, Note_on_c, 0, 70, 69
2, 203144, Note_on_c, 0, 81, 73
2, 203144, Note_on_c, 0, 69, 71
2, 203152, Note_on_c, 0, 73, 37
2, 203176, Note_on_c, 0, 76, 45
2, 203224, Control_c, 0, 64, 127
2, 203280, Note_on_c, 0, 81, 0
2, 203312, Note_on_c, 0, 76, 0
2, 203328, Note_on_c, 0, 73, 0
2, 203336, Note_on_c, 0, 70, 0
2, 203352, Note_on_c, 0, 69, 0
2, 203464, Control_c, 0, 64, 0
2, 203512, Note_on_c, 0, 78, 62
2, 203520, Note_on_c, 0, 73, 59
2, 203520, Note_on_c, 0, 70, 59
2, 203528, Note_on_c, 0, 67, 55
2, 203528, Note_on_c, 0, 66, 63
2, 203552, Control_c, 0, 64, 127
2, 203584, Note_on_c, 0, 66, 0
2, 203704, Note_on_c, 0, 78, 0
2, 203704, Note_on_c, 0, 73, 0
2, 203720, Note_on_c, 0, 67, 0
2, 203728, Note_on_c, 0, 70, 0
2, 203784, Note_on_c, 0, 58, 67
2, 203824, Note_on_c, 0, 58, 0
2, 203824, Control_c, 0, 64, 0
2, 203896, Note_on_c, 0, 51, 70
2, 203896, Note_on_c, 0, 68, 65
2, 203896, Note_on_c, 0, 61, 69
2, 203896, Control_c, 0, 64, 127
2, 203896, Note_on_c, 0, 75, 55
2, 204016, Note_on_c, 0, 68, 0
2, 204056, Note_on_c, 0, 61, 0
2, 204072, Note_on_c, 0, 75, 0
2, 204080, Note_on_c, 0, 51, 0
2, 204152, Note_on_c, 0, 72, 68
2, 204160, Control_c, 0, 64, 0
2, 204160, Note_on_c, 0, 64, 56
2, 204160, Note_on_c, 0, 50, 71
2, 204160, Note_on_c, 0, 60, 71
2, 204168, Note_on_c, 0, 69, 53
2, 204184, Note_on_c, 0, 64, 0
2, 204216, Note_on_c, 0, 69, 0
2, 204240, Note_on_c, 0, 72, 0
2, 204280, Control_c, 0, 64, 127
2, 204472, Note_on_c, 0, 60, 0
2, 204528, Note_on_c, 0, 60, 29
2, 204544, Note_on_c, 0, 84, 110
2, 204616, Note_on_c, 0, 84, 0
2, 204632, Control_c, 0, 64, 0
2, 204680, Note_on_c, 0, 80, 44
2, 204808, Note_on_c, 0, 80, 0
2, 204816, Note_on_c, 0, 81, 54
2, 204872, Note_on_c, 0, 81, 0
2, 204912, Note_on_c, 0, 84, 84
2, 204920, Note_on_c, 0, 72, 82
2, 205000, Note_on_c, 0, 84, 0
2, 205008, Note_on_c, 0, 72, 0
2, 205072, Note_on_c, 0, 80, 31
2, 205120, Note_on_c, 0, 80, 0
2, 205152, Note_on_c, 0, 81, 36
2, 205184, Note_on_c, 0, 60, 0
2, 205224, Note_on_c, 0, 81, 0
2, 205280, Note_on_c, 0, 84, 90
2, 205280, Note_on_c, 0, 72, 82
2, 205296, Note_on_c, 0, 60, 71
2, 205344, Note_on_c, 0, 60, 0
2, 205368, Note_on_c, 0, 84, 0
2, 205400, Note_on_c, 0, 72, 0
2, 205448, Note_on_c, 0, 80, 38
2, 205504, Note_on_c, 0, 80, 0
2, 205544, Control_c, 0, 64, 127
2, 205592, Note_on_c, 0, 81, 65
2, 205680, Note_on_c, 0, 81, 0
2, 205712, Control_c, 0, 64, 0
2, 205720, Note_on_c, 0, 84, 84
2, 205760, Control_c, 0, 64, 127
2, 205776, Note_on_c, 0, 84, 0
2, 205800, Note_on_c, 0, 50, 0
2, 205840, Control_c, 0, 64, 0
2, 205864, Note_on_c, 0, 90, 84
2, 205872, Note_on_c, 0, 54, 74
2, 205880, Note_on_c, 0, 55, 76
2, 205936, Note_on_c, 0, 54, 0
2, 205944, Note_on_c, 0, 90, 0
2, 205944, Note_on_c, 0, 91, 67
2, 206032, Note_on_c, 0, 90, 57
2, 206056, Note_on_c, 0, 55, 0
2, 206072, Note_on_c, 0, 91, 0
2, 206112, Note_on_c, 0, 90, 0
2, 206128, Note_on_c, 0, 87, 32
2, 206136, Note_on_c, 0, 51, 45
2, 206136, Control_c, 0, 64, 127
2, 206152, Note_on_c, 0, 84, 64
2, 206160, Control_c, 0, 64, 0
2, 206184, Note_on_c, 0, 87, 0
2, 206200, Note_on_c, 0, 51, 0
2, 206208, Note_on_c, 0, 84, 0
2, 206240, Note_on_c, 0, 90, 81
2, 206240, Note_on_c, 0, 54, 67
2, 206456, Note_on_c, 0, 54, 0
2, 206464, Note_on_c, 0, 51, 44
2, 206480, Note_on_c, 0, 90, 0
2, 206480, Control_c, 0, 64, 127
2, 206504, Control_c, 0, 64, 0
2, 206536, Note_on_c, 0, 51, 0
2, 206576, Note_on_c, 0, 89, 87
2, 206584, Note_on_c, 0, 53, 74
2, 206656, Control_c, 0, 64, 127
2, 206672, Control_c, 0, 64, 0
2, 206720, Control_c, 0, 64, 127
2, 206776, Note_on_c, 0, 89, 0
2, 206800, Note_on_c, 0, 53, 0
2, 206816, Note_on_c, 0, 87, 82
2, 206816, Note_on_c, 0, 51, 73
2, 206912, Note_on_c, 0, 51, 0
2, 206992, Note_on_c, 0, 87, 0
2, 207024, Note_on_c, 0, 89, 49
2, 207080, Note_on_c, 0, 87, 56
2, 207120, Note_on_c, 0, 89, 0
2, 207128, Note_on_c, 0, 84, 63
2, 207176, Note_on_c, 0, 87, 0
2, 207208, Note_on_c, 0, 84, 0
2, 207224, Note_on_c, 0, 81, 62
2, 207272, Control_c, 0, 64, 0
2, 207280, Note_on_c, 0, 81, 0
2, 207336, Note_on_c, 0, 84, 80
2, 207528, Note_on_c, 0, 84, 0
2, 207600, Note_on_c, 0, 72, 53
2, 207616, Note_on_c, 0, 48, 52
2, 207632, Note_on_c, 0, 48, 0
2, 207640, Note_on_c, 0, 72, 0
2, 207744, Note_on_c, 0, 72, 51
2, 207800, Note_on_c, 0, 72, 0
2, 208000, Note_on_c, 0, 84, 74
2, 208000, Note_on_c, 0, 72, 63
2, 208040, Note_on_c, 0, 72, 0
2, 208048, Note_on_c, 0, 84, 0
2, 208144, Note_on_c, 0, 84, 70
2, 208152, Note_on_c, 0, 72, 48
2, 208224, Note_on_c, 0, 72, 0
2, 208232, Note_on_c, 0, 84, 0
2, 208368, Note_on_c, 0, 58, 47
2, 208376, Note_on_c, 0, 62, 55
2, 208376, Note_on_c, 0, 84, 74
2, 208384, Note_on_c, 0, 52, 52
2, 208384, Note_on_c, 0, 78, 56
2, 208392, Note_on_c, 0, 72, 39
2, 208424, Note_on_c, 0, 52, 0
2, 208432, Note_on_c, 0, 62, 0
2, 208440, Note_on_c, 0, 72, 0
2, 208456, Note_on_c, 0, 58, 0
2, 208472, Note_on_c, 0, 78, 0
2, 208496, Note_on_c, 0, 84, 0
2, 208760, Note_on_c, 0, 72, 37
2, 208792, Note_on_c, 0, 72, 0
2, 208904, Note_on_c, 0, 84, 61
2, 208912, Note_on_c, 0, 72, 36
2, 208936, Note_on_c, 0, 72, 0
2, 208960, Note_on_c, 0, 84, 0
2, 209144, Note_on_c, 0, 60, 64
2, 209144, Note_on_c, 0, 89, 75
2, 209144, Note_on_c, 0, 50, 53
2, 209152, Note_on_c, 0, 57, 47
2, 209152, Note_on_c, 0, 77, 65
2, 209160, Note_on_c, 0, 84, 45
2, 209176, Note_on_c, 0, 57, 0
2, 209176, Note_on_c, 0, 60, 0
2, 209184, Note_on_c, 0, 77, 0
2, 209184, Note_on_c, 0, 50, 0
2, 209184, Note_on_c, 0, 84, 0
2, 209200, Note_on_c, 0, 89, 0
2, 209528, Note_on_c, 0, 78, 85
2, 209528, Note_on_c, 0, 90, 79
2, 209528, Note_on_c, 0, 63, 75
2, 209536, Note_on_c, 0, 60, 66
2, 209536, Note_on_c, 0, 54, 64
2, 209544, Note_on_c, 0, 87, 47
2, 209544, Note_on_c, 0, 85, 39
2, 209560, Note_on_c, 0, 87, 0
2, 209560, Note_on_c, 0, 60, 0
2, 209560, Note_on_c, 0, 78, 0
2, 209560, Note_on_c, 0, 54, 0
2, 209568, Note_on_c, 0, 63, 0
2, 209568, Note_on_c, 0, 85, 0
2, 209584, Note_on_c, 0, 90, 0
2, 209904, Note_on_c, 0, 87, 83
2, 209904, Note_on_c, 0, 93, 82
2, 209912, Note_on_c, 0, 81, 74
2, 209912, Note_on_c, 0, 63, 76
2, 209912, Note_on_c, 0, 54, 69
2, 209920, Note_on_c, 0, 60, 60
2, 210088, Control_c, 0, 64, 127
2, 210232, Note_on_c, 0, 60, 0
2, 210232, Note_on_c, 0, 93, 0
2, 210240, Note_on_c, 0, 87, 0
2, 210264, Note_on_c, 0, 63, 0
2, 210272, Note_on_c, 0, 81, 0
2, 210280, Note_on_c, 0, 54, 0
2, 210456, Note_on_c, 0, 91, 67
2, 210464, Note_on_c, 0, 64, 63
2, 210464, Note_on_c, 0, 79, 65
2, 210464, Note_on_c, 0, 55, 51
2, 210472, Control_c, 0, 64, 0
2, 210480, Note_on_c, 0, 64, 0
2, 210480, Note_on_c, 0, 91, 0
2, 210488, Note_on_c, 0, 79, 0
2, 210488, Note_on_c, 0, 55, 0
2, 210688, Note_on_c, 0, 59, 68
2, 210688, Note_on_c, 0, 83, 79
2, 210792, Note_on_c, 0, 83, 0
2, 210792, Note_on_c, 0, 59, 0
2, 210824, Note_on_c, 0, 60, 56
2, 210840, Note_on_c, 0, 84, 57
2, 210864, Note_on_c, 0, 84, 0
2, 210984, Note_on_c, 0, 60, 0
2, 211056, Note_on_c, 0, 78, 60
2, 211064, Note_on_c, 0, 54, 56
2, 211144, Note_on_c, 0, 78, 0
2, 211160, Note_on_c, 0, 54, 0
2, 211200, Note_on_c, 0, 79, 50
2, 211200, Note_on_c, 0, 55, 57
2, 211264, Note_on_c, 0, 79, 0
2, 211408, Note_on_c, 0, 55, 0
2, 211440, Note_on_c, 0, 51, 51
2, 211448, Note_on_c, 0, 75, 52
2, 211544, Note_on_c, 0, 75, 0
2, 211552, Note_on_c, 0, 51, 0
2, 211584, Note_on_c, 0, 52, 56
2, 211584, Note_on_c, 0, 76, 48
2, 211632, Note_on_c, 0, 76, 0
2, 211744, Note_on_c, 0, 52, 0
2, 211824, Note_on_c, 0, 68, 44
2, 211848, Note_on_c, 0, 68, 0
2, 212200, Note_on_c, 0, 50, 71
2, 212264, Note_on_c, 0, 50, 0
2, 212336, Note_on_c, 0, 56, 57
2, 212336, Note_on_c, 0, 63, 47
2, 212344, Control_c, 0, 64, 127
2, 212408, Note_on_c, 0, 56, 0
2, 212424, Note_on_c, 0, 63, 0
2, 212600, Note_on_c, 0, 36, 46
2, 212608, Note_on_c, 0, 38, 40
2, 212608, Note_on_c, 0, 57, 60
2, 212616, Note_on_c, 0, 62, 58
2, 212616, Note_on_c, 0, 66, 50
2, 212624, Control_c, 0, 64, 0
2, 212640, Note_on_c, 0, 52, 27
2, 212648, Note_on_c, 0, 43, 22
2, 212720, Control_c, 0, 64, 127
2, 212744, Note_on_c, 0, 52, 0
2, 212752, Note_on_c, 0, 38, 0
2, 212768, Note_on_c, 0, 57, 0
2, 212792, Note_on_c, 0, 62, 0
2, 212808, Note_on_c, 0, 66, 0
2, 212936, Note_on_c, 0, 78, 60
2, 212992, Note_on_c, 0, 78, 0
2, 213144, Note_on_c, 0, 90, 64
2, 213288, Note_on_c, 0, 90, 0
2, 213312, Note_on_c, 0, 81, 42
2, 213344, Note_on_c, 0, 81, 0
2, 213424, Note_on_c, 0, 86, 56
2, 213496, Note_on_c, 0, 86, 0
2, 213528, Note_on_c, 0, 90, 49
2, 213552, Note_on_c, 0, 90, 0
2, 213632, Note_on_c, 0, 93, 64
2, 213704, Note_on_c, 0, 93, 0
2, 213744, Note_on_c, 0, 98, 50
2, 213848, Note_on_c, 0, 102, 36
2, 213864, Note_on_c, 0, 98, 0
2, 213952, Note_on_c, 0, 102, 0
2, 213960, Note_on_c, 0, 105, 51
2, 214096, Note_on_c, 0, 98, 44
2, 214256, Note_on_c, 0, 105, 0
2, 214280, Note_on_c, 0, 98, 0
2, 214288, Note_on_c, 0, 36, 0
2, 214304, Note_on_c, 0, 43, 0
2, 214728, Control_c, 0, 64, 0
2, 214856, System_exclusive, 8, 67, 115, 1, 17, 0, 87, 127, 247
2, 214856, End_track
3, 0, Start_track
3, 0, MIDI_port, 0
3, 0, Program_c, 1, 32
3, 0, Control_c, 1, 7, 127
3, 0, Control_c, 1, 11, 127
3, 0, Control_c, 1, 64, 0
3, 0, Control_c, 1, 67, 0
3, 0, Pitch_bend_c, 1, 8192
3, 1416, Note_on_c, 1, 35, 76
3, 1528, Note_on_c, 1, 35, 0
3, 1544, Note_on_c, 1, 36, 51
3, 1904, Note_on_c, 1, 36, 0
3, 1912, Note_on_c, 1, 48, 70
3, 2248, Note_on_c, 1, 48, 0
3, 2296, Note_on_c, 1, 47, 54
3, 2336, Note_on_c, 1, 47, 0
3, 2552, Note_on_c, 1, 42, 54
3, 2608, Note_on_c, 1, 42, 0
3, 2680, Note_on_c, 1, 35, 53
3, 3064, Note_on_c, 1, 35, 0
3, 3080, Note_on_c, 1, 34, 42
3, 3456, Note_on_c, 1, 46, 46
3, 3496, Note_on_c, 1, 34, 0
3, 3520, Note_on_c, 1, 46, 0
3, 3560, Note_on_c, 1, 41, 25
3, 3616, Note_on_c, 1, 41, 0
3, 3696, Note_on_c, 1, 44, 54
3, 3784, Note_on_c, 1, 44, 0
3, 3824, Note_on_c, 1, 45, 53
3, 3848, Note_on_c, 1, 45, 0
3, 3936, Note_on_c, 1, 40, 50
3, 3952, Note_on_c, 1, 40, 0
3, 4056, Note_on_c, 1, 34, 55
3, 4184, Note_on_c, 1, 34, 0
3, 4208, Note_on_c, 1, 33, 54
3, 4472, Note_on_c, 1, 37, 64
3, 4528, Note_on_c, 1, 33, 0
3, 4568, Note_on_c, 1, 37, 0
3, 4600, Note_on_c, 1, 38, 49
3, 4864, Note_on_c, 1, 33, 38
3, 4888, Note_on_c, 1, 33, 0
3, 4952, Note_on_c, 1, 38, 0
3, 4976, Note_on_c, 1, 40, 63
3, 5344, Note_on_c, 1, 40, 0
3, 5368, Note_on_c, 1, 41, 55
3, 5744, Note_on_c, 1, 41, 0
3, 5760, Note_on_c, 1, 42, 60
3, 6128, Note_on_c, 1, 42, 0
3, 6160, Note_on_c, 1, 43, 28
3, 6184, Note_on_c, 1, 43, 0
3, 6240, Note_on_c, 1, 41, 57
3, 6288, Note_on_c, 1, 41, 0
3, 6360, Note_on_c, 1, 38, 74
3, 6432, Note_on_c, 1, 38, 0
3, 6496, Note_on_c, 1, 35, 51
3, 6744, Note_on_c, 1, 32, 73
3, 6768, Note_on_c, 1, 35, 0
3, 6856, Note_on_c, 1, 32, 0
3, 6880, Note_on_c, 1, 31, 52
3, 7136, Note_on_c, 1, 34, 50
3, 7192, Note_on_c, 1, 31, 0
3, 7224, Note_on_c, 1, 34, 0
3, 7272, Note_on_c, 1, 35, 53
3, 7520, Note_on_c, 1, 34, 35
3, 7544, Note_on_c, 1, 35, 0
3, 7640, Note_on_c, 1, 34, 0
3, 7664, Note_on_c, 1, 36, 45
3, 8048, Note_on_c, 1, 36, 0
3, 8048, Note_on_c, 1, 48, 80
3, 8328, Note_on_c, 1, 36, 27
3, 8344, Note_on_c, 1, 36, 0
3, 8400, Note_on_c, 1, 48, 0
3, 8432, Note_on_c, 1, 47, 50
3, 8824, Note_on_c, 1, 41, 30
3, 8848, Note_on_c, 1, 41, 0
3, 8848, Note_on_c, 1, 47, 0
3, 8936, Note_on_c, 1, 35, 55
3, 9200, Note_on_c, 1, 35, 0
3, 9224, Note_on_c, 1, 34, 45
3, 9600, Note_on_c, 1, 40, 49
3, 9616, Note_on_c, 1, 34, 0
3, 9864, Note_on_c, 1, 34, 36
3, 9920, Note_on_c, 1, 40, 0
3, 9928, Note_on_c, 1, 34, 0
3, 9984, Note_on_c, 1, 33, 46
3, 10304, Note_on_c, 1, 33, 0
3, 10360, Note_on_c, 1, 45, 50
3, 10608, Note_on_c, 1, 37, 53
3, 10640, Note_on_c, 1, 45, 0
3, 10696, Note_on_c, 1, 37, 0
3, 10728, Note_on_c, 1, 38, 41
3, 10744, Note_on_c, 1, 38, 0
3, 10984, Note_on_c, 1, 38, 79
3, 11040, Note_on_c, 1, 38, 0
3, 11104, Note_on_c, 1, 40, 51
3, 11528, Note_on_c, 1, 42, 60
3, 11552, Note_on_c, 1, 40, 0
3, 11896, Note_on_c, 1, 45, 47
3, 12032, Note_on_c, 1, 45, 0
3, 12288, Note_on_c, 1, 54, 31
3, 12320, Note_on_c, 1, 54, 0
3, 12320, Note_on_c, 1, 42, 0
3, 12392, Note_on_c, 1, 52, 50
3, 12456, Note_on_c, 1, 52, 0
3, 12512, Note_on_c, 1, 50, 66
3, 12600, Note_on_c, 1, 50, 0
3, 12648, Note_on_c, 1, 45, 36
3, 12720, Note_on_c, 1, 45, 0
3, 12768, Note_on_c, 1, 43, 45
3, 12848, Note_on_c, 1, 43, 0
3, 12896, Note_on_c, 1, 42, 67
3, 13176, Note_on_c, 1, 40, 34
3, 13232, Note_on_c, 1, 40, 0
3, 13232, Note_on_c, 1, 42, 0
3, 13280, Note_on_c, 1, 39, 47
3, 13376, Note_on_c, 1, 39, 0
3, 13416, Note_on_c, 1, 38, 42
3, 13664, Note_on_c, 1, 38, 0
3, 13664, Note_on_c, 1, 37, 64
3, 13776, Note_on_c, 1, 37, 0
3, 13808, Note_on_c, 1, 38, 49
3, 14160, Note_on_c, 1, 38, 0
3, 14184, Note_on_c, 1, 45, 51
3, 14552, Note_on_c, 1, 45, 0
3, 14568, Note_on_c, 1, 41, 49
3, 14824, Note_on_c, 1, 41, 0
3, 14824, Note_on_c, 1, 38, 62
3, 14896, Note_on_c, 1, 38, 0
3, 14944, Note_on_c, 1, 36, 71
3, 15336, Note_on_c, 1, 36, 0
3, 15352, Note_on_c, 1, 35, 54
3, 15736, Note_on_c, 1, 47, 67
3, 15760, Note_on_c, 1, 35, 0
3, 15992, Note_on_c, 1, 38, 45
3, 16040, Note_on_c, 1, 38, 0
3, 16120, Note_on_c, 1, 47, 0
3, 16120, Note_on_c, 1, 40, 53
3, 16376, Note_on_c, 1, 46, 77
3, 16584, Note_on_c, 1, 40, 0
3, 16632, Note_on_c, 1, 35, 50
3, 16672, Note_on_c, 1, 35, 0
3, 16736, Note_on_c, 1, 34, 64
3, 16768, Note_on_c, 1, 46, 0
3, 16848, Note_on_c, 1, 34, 0
3, 16872, Note_on_c, 1, 33, 55
3, 17280, Note_on_c, 1, 45, 61
3, 17296, Note_on_c, 1, 33, 0
3, 17664, Note_on_c, 1, 45, 0
3, 17664, Note_on_c, 1, 44, 51
3, 18048, Note_on_c, 1, 32, 62
3, 18064, Note_on_c, 1, 44, 0
3, 18424, Note_on_c, 1, 32, 0
3, 18432, Note_on_c, 1, 31, 53
3, 18712, Note_on_c, 1, 32, 32
3, 18744, Note_on_c, 1, 31, 0
3, 18768, Note_on_c, 1, 32, 0
3, 18800, Note_on_c, 1, 43, 68
3, 19064, Note_on_c, 1, 32, 20
3, 19080, Note_on_c, 1, 32, 0
3, 19176, Note_on_c, 1, 42, 58
3, 19184, Note_on_c, 1, 43, 0
3, 19440, Note_on_c, 1, 36, 67
3, 19440, Note_on_c, 1, 35, 43
3, 19464, Note_on_c, 1, 35, 0
3, 19520, Note_on_c, 1, 36, 0
3, 19520, Note_on_c, 1, 42, 0
3, 19560, Note_on_c, 1, 30, 69
3, 19912, Note_on_c, 1, 30, 0
3, 19960, Note_on_c, 1, 29, 43
3, 20328, Note_on_c, 1, 36, 62
3, 20336, Note_on_c, 1, 29, 0
3, 20728, Note_on_c, 1, 41, 46
3, 20736, Note_on_c, 1, 36, 0
3, 20984, Note_on_c, 1, 36, 71
3, 20992, Note_on_c, 1, 41, 0
3, 21104, Note_on_c, 1, 36, 0
3, 21104, Note_on_c, 1, 29, 71
3, 21408, Note_on_c, 1, 36, 38
3, 21440, Note_on_c, 1, 36, 0
3, 21488, Note_on_c, 1, 43, 66
3, 21864, Note_on_c, 1, 41, 60
3, 21872, Note_on_c, 1, 43, 0
3, 21888, Note_on_c, 1, 29, 0
3, 22128, Note_on_c, 1, 36, 41
3, 22144, Note_on_c, 1, 36, 0
3, 22232, Note_on_c, 1, 41, 0
3, 22256, Note_on_c, 1, 44, 55
3, 22520, Note_on_c, 1, 41, 64
3, 22600, Note_on_c, 1, 44, 0
3, 22656, Note_on_c, 1, 35, 54
3, 22736, Note_on_c, 1, 41, 0
3, 23032, Note_on_c, 1, 35, 0
3, 23048, Note_on_c, 1, 36, 50
3, 23376, Note_on_c, 1, 36, 0
3, 23424, Note_on_c, 1, 36, 57
3, 23808, Note_on_c, 1, 43, 30
3, 23848, Note_on_c, 1, 36, 0
3, 24136, Note_on_c, 1, 43, 0
3, 24176, Note_on_c, 1, 43, 61
3, 24416, Note_on_c, 1, 43, 0
3, 24440, Note_on_c, 1, 50, 80
3, 24528, Note_on_c, 1, 50, 0
3, 24560, Note_on_c, 1, 48, 56
3, 24600, Note_on_c, 1, 48, 0
3, 24816, Note_on_c, 1, 43, 72
3, 24888, Note_on_c, 1, 43, 0
3, 24928, Note_on_c, 1, 40, 48
3, 25184, Note_on_c, 1, 38, 60
3, 25200, Note_on_c, 1, 40, 0
3, 25288, Note_on_c, 1, 38, 0
3, 25320, Note_on_c, 1, 36, 53
3, 25688, Note_on_c, 1, 36, 0
3, 25720, Note_on_c, 1, 36, 59
3, 25952, Note_on_c, 1, 36, 0
3, 25968, Note_on_c, 1, 31, 71
3, 26088, Note_on_c, 1, 31, 0
3, 26088, Note_on_c, 1, 30, 46
3, 26488, Note_on_c, 1, 42, 51
3, 26568, Note_on_c, 1, 30, 0
3, 26824, Note_on_c, 1, 42, 0
3, 26856, Note_on_c, 1, 47, 55
3, 26888, Note_on_c, 1, 47, 0
3, 26968, Note_on_c, 1, 42, 34
3, 26984, Note_on_c, 1, 42, 0
3, 27256, Note_on_c, 1, 35, 42
3, 27256, Note_on_c, 1, 36, 44
3, 27424, Note_on_c, 1, 35, 0
3, 27488, Note_on_c, 1, 36, 0
3, 27520, Note_on_c, 1, 30, 64
3, 27912, Note_on_c, 1, 37, 36
3, 27952, Note_on_c, 1, 37, 0
3, 27960, Note_on_c, 1, 30, 0
3, 28040, Note_on_c, 1, 42, 52
3, 28288, Note_on_c, 1, 34, 50
3, 28320, Note_on_c, 1, 42, 0
3, 28384, Note_on_c, 1, 34, 0
3, 28400, Note_on_c, 1, 35, 46
3, 28768, Note_on_c, 1, 35, 0
3, 28792, Note_on_c, 1, 47, 64
3, 28856, Note_on_c, 1, 47, 0
3, 28896, Note_on_c, 1, 38, 36
3, 28984, Note_on_c, 1, 38, 0
3, 29016, Note_on_c, 1, 39, 55
3, 29168, Note_on_c, 1, 39, 0
3, 29168, Note_on_c, 1, 40, 56
3, 29424, Note_on_c, 1, 39, 27
3, 29480, Note_on_c, 1, 39, 0
3, 29552, Note_on_c, 1, 47, 69
3, 29584, Note_on_c, 1, 40, 0
3, 29912, Note_on_c, 1, 47, 0
3, 29928, Note_on_c, 1, 45, 47
3, 30168, Note_on_c, 1, 39, 68
3, 30272, Note_on_c, 1, 39, 0
3, 30272, Note_on_c, 1, 45, 0
3, 30304, Note_on_c, 1, 37, 48
3, 30712, Note_on_c, 1, 37, 0
3, 30728, Note_on_c, 1, 38, 40
3, 31008, Note_on_c, 1, 37, 25
3, 31072, Note_on_c, 1, 37, 0
3, 31096, Note_on_c, 1, 38, 0
3, 31096, Note_on_c, 1, 45, 66
3, 31352, Note_on_c, 1, 38, 47
3, 31368, Note_on_c, 1, 38, 0
3, 31456, Note_on_c, 1, 45, 0
3, 31464, Note_on_c, 1, 43, 47
3, 31712, Note_on_c, 1, 38, 67
3, 31800, Note_on_c, 1, 38, 0
3, 31808, Note_on_c, 1, 43, 0
3, 31824, Note_on_c, 1, 35, 61
3, 32208, Note_on_c, 1, 35, 0
3, 32216, Note_on_c, 1, 36, 61
3, 32600, Note_on_c, 1, 48, 94
3, 32760, Note_on_c, 1, 36, 0
3, 32968, Note_on_c, 1, 48, 0
3, 32992, Note_on_c, 1, 47, 47
3, 33248, Note_on_c, 1, 35, 61
3, 33328, Note_on_c, 1, 35, 0
3, 33360, Note_on_c, 1, 47, 0
3, 33360, Note_on_c, 1, 34, 62
3, 33696, Note_on_c, 1, 34, 0
3, 33728, Note_on_c, 1, 34, 72
3, 34144, Note_on_c, 1, 46, 73
3, 34224, Note_on_c, 1, 34, 0
3, 34424, Note_on_c, 1, 34, 33
3, 34480, Note_on_c, 1, 34, 0
3, 34528, Note_on_c, 1, 45, 62
3, 34560, Note_on_c, 1, 46, 0
3, 34800, Note_on_c, 1, 35, 33
3, 34888, Note_on_c, 1, 35, 0
3, 34912, Note_on_c, 1, 45, 0
3, 34920, Note_on_c, 1, 39, 62
3, 35168, Note_on_c, 1, 37, 50
3, 35192, Note_on_c, 1, 37, 0
3, 35296, Note_on_c, 1, 39, 0
3, 35304, Note_on_c, 1, 38, 36
3, 35704, Note_on_c, 1, 45, 58
3, 35720, Note_on_c, 1, 38, 0
3, 36088, Note_on_c, 1, 33, 48
3, 36192, Note_on_c, 1, 45, 0
3, 36264, Note_on_c, 1, 45, 12
3, 36464, Note_on_c, 1, 33, 0
3, 36464, Note_on_c, 1, 30, 51
3, 36528, Note_on_c, 1, 45, 0
3, 36760, Note_on_c, 1, 33, 38
3, 36832, Note_on_c, 1, 33, 0
3, 36864, Note_on_c, 1, 45, 54
3, 36896, Note_on_c, 1, 30, 0
3, 37256, Note_on_c, 1, 45, 0
3, 37272, Note_on_c, 1, 42, 34
3, 37648, Note_on_c, 1, 40, 48
3, 37880, Note_on_c, 1, 40, 0
3, 37896, Note_on_c, 1, 39, 47
3, 37968, Note_on_c, 1, 39, 0
3, 38016, Note_on_c, 1, 37, 43
3, 38280, Note_on_c, 1, 42, 0
3, 38392, Note_on_c, 1, 37, 0
3, 38400, Note_on_c, 1, 38, 44
3, 38680, Note_on_c, 1, 37, 26
3, 38736, Note_on_c, 1, 37, 0
3, 38776, Note_on_c, 1, 50, 55
3, 38840, Note_on_c, 1, 38, 0
3, 39160, Note_on_c, 1, 50, 0
3, 39168, Note_on_c, 1, 48, 66
3, 39544, Note_on_c, 1, 36, 72
3, 39552, Note_on_c, 1, 48, 0
3, 39920, Note_on_c, 1, 36, 0
3, 39928, Note_on_c, 1, 35, 53
3, 40312, Note_on_c, 1, 41, 76
3, 40376, Note_on_c, 1, 35, 0
3, 40568, Note_on_c, 1, 35, 47
3, 40600, Note_on_c, 1, 35, 0
3, 40688, Note_on_c, 1, 41, 0
3, 40696, Note_on_c, 1, 40, 66
3, 41080, Note_on_c, 1, 40, 0
3, 41088, Note_on_c, 1, 46, 76
3, 41368, Note_on_c, 1, 34, 29
3, 41392, Note_on_c, 1, 34, 0
3, 41472, Note_on_c, 1, 46, 0
3, 41480, Note_on_c, 1, 45, 56
3, 41728, Note_on_c, 1, 40, 42
3, 41800, Note_on_c, 1, 40, 0
3, 41848, Note_on_c, 1, 33, 51
3, 42224, Note_on_c, 1, 33, 0
3, 42256, Note_on_c, 1, 32, 60
3, 42416, Note_on_c, 1, 45, 0
3, 42632, Note_on_c, 1, 44, 83
3, 42680, Note_on_c, 1, 32, 0
3, 43016, Note_on_c, 1, 44, 0
3, 43016, Note_on_c, 1, 43, 50
3, 43256, Note_on_c, 1, 38, 68
3, 43320, Note_on_c, 1, 38, 0
3, 43376, Note_on_c, 1, 35, 53
3, 43592, Note_on_c, 1, 43, 0
3, 43760, Note_on_c, 1, 35, 0
3, 43768, Note_on_c, 1, 36, 52
3, 43888, Note_on_c, 1, 52, 64
3, 43952, Note_on_c, 1, 52, 0
3, 44000, Note_on_c, 1, 51, 58
3, 44056, Note_on_c, 1, 51, 0
3, 44120, Note_on_c, 1, 50, 51
3, 44176, Note_on_c, 1, 50, 0
3, 44232, Note_on_c, 1, 49, 36
3, 44240, Note_on_c, 1, 36, 0
3, 44336, Note_on_c, 1, 49, 0
3, 44368, Note_on_c, 1, 48, 62
3, 44504, Note_on_c, 1, 48, 0
3, 44520, Note_on_c, 1, 45, 50
3, 44760, Note_on_c, 1, 45, 0
3, 44768, Note_on_c, 1, 43, 55
3, 44904, Note_on_c, 1, 43, 0
3, 44904, Note_on_c, 1, 41, 54
3, 45144, Note_on_c, 1, 35, 51
3, 45256, Note_on_c, 1, 35, 0
3, 45288, Note_on_c, 1, 36, 47
3, 45376, Note_on_c, 1, 41, 0
3, 45560, Note_on_c, 1, 34, 23
3, 45672, Note_on_c, 1, 34, 0
3, 45688, Note_on_c, 1, 43, 65
3, 45752, Note_on_c, 1, 36, 0
3, 45952, Note_on_c, 1, 36, 26
3, 45976, Note_on_c, 1, 36, 0
3, 46056, Note_on_c, 1, 43, 0
3, 46072, Note_on_c, 1, 44, 62
3, 46320, Note_on_c, 1, 44, 0
3, 46336, Note_on_c, 1, 41, 72
3, 46456, Note_on_c, 1, 41, 0
3, 46472, Note_on_c, 1, 36, 40
3, 46840, Note_on_c, 1, 36, 0
3, 46864, Note_on_c, 1, 32, 53
3, 47224, Note_on_c, 1, 32, 0
3, 47240, Note_on_c, 1, 35, 49
3, 47512, Note_on_c, 1, 34, 15
3, 47568, Note_on_c, 1, 35, 0
3, 47608, Note_on_c, 1, 34, 0
3, 47624, Note_on_c, 1, 36, 40
3, 47896, Note_on_c, 1, 34, 25
3, 47984, Note_on_c, 1, 34, 0
3, 48000, Note_on_c, 1, 48, 63
3, 48048, Note_on_c, 1, 36, 0
3, 48376, Note_on_c, 1, 48, 0
3, 48384, Note_on_c, 1, 47, 58
3, 48632, Note_on_c, 1, 35, 87
3, 49144, Note_on_c, 1, 34, 53
3, 49160, Note_on_c, 1, 35, 0
3, 49168, Note_on_c, 1, 47, 0
3, 49520, Note_on_c, 1, 46, 68
3, 49592, Note_on_c, 1, 34, 0
3, 49768, Note_on_c, 1, 46, 0
3, 49792, Note_on_c, 1, 44, 36
3, 49848, Note_on_c, 1, 44, 0
3, 49904, Note_on_c, 1, 45, 50
3, 49944, Note_on_c, 1, 45, 0
3, 50160, Note_on_c, 1, 34, 68
3, 50248, Note_on_c, 1, 34, 0
3, 50288, Note_on_c, 1, 33, 43
3, 50672, Note_on_c, 1, 33, 0
3, 50688, Note_on_c, 1, 38, 38
3, 50920, Note_on_c, 1, 42, 25
3, 50936, Note_on_c, 1, 42, 0
3, 50944, Note_on_c, 1, 34, 20
3, 51040, Note_on_c, 1, 34, 0
3, 51056, Note_on_c, 1, 45, 71
3, 51096, Note_on_c, 1, 38, 0
3, 51320, Note_on_c, 1, 38, 44
3, 51336, Note_on_c, 1, 38, 0
3, 51448, Note_on_c, 1, 45, 0
3, 51456, Note_on_c, 1, 42, 42
3, 51704, Note_on_c, 1, 38, 57
3, 51752, Note_on_c, 1, 38, 0
3, 51824, Note_on_c, 1, 42, 0
3, 51832, Note_on_c, 1, 32, 53
3, 52192, Note_on_c, 1, 32, 0
3, 52224, Note_on_c, 1, 31, 47
3, 52704, Note_on_c, 1, 45, 45
3, 52752, Note_on_c, 1, 45, 0
3, 52824, Note_on_c, 1, 43, 66
3, 53112, Note_on_c, 1, 43, 0
3, 53120, Note_on_c, 1, 38, 59
3, 53376, Note_on_c, 1, 39, 55
3, 53432, Note_on_c, 1, 38, 0
3, 53624, Note_on_c, 1, 40, 71
3, 53632, Note_on_c, 1, 39, 0
3, 53792, Note_on_c, 1, 31, 0
3, 53864, Note_on_c, 1, 36, 59
3, 53904, Note_on_c, 1, 40, 0
3, 54008, Note_on_c, 1, 31, 77
3, 54024, Note_on_c, 1, 36, 0
3, 54128, Note_on_c, 1, 43, 75
3, 54208, Note_on_c, 1, 43, 0
3, 54408, Note_on_c, 1, 43, 79
3, 54528, Note_on_c, 1, 31, 0
3, 54800, Note_on_c, 1, 43, 0
3, 54880, Note_on_c, 1, 43, 66
3, 54960, Control_c, 1, 1, 3
3, 54960, Control_c, 1, 1, 4
3, 54960, Control_c, 1, 1, 5
3, 54960, Control_c, 1, 1, 6
3, 54960, Control_c, 1, 1, 8
3, 54968, Control_c, 1, 1, 9
3, 54968, Control_c, 1, 1, 11
3, 54968, Control_c, 1, 1, 13
3, 54976, Control_c, 1, 1, 15
3, 54976, Control_c, 1, 1, 16
3, 54976, Control_c, 1, 1, 18
3, 54984, Control_c, 1, 1, 20
3, 54984, Control_c, 1, 1, 22
3, 54984, Control_c, 1, 1, 23
3, 54984, Control_c, 1, 1, 25
3, 54992, Control_c, 1, 1, 27
3, 54992, Control_c, 1, 1, 29
3, 54992, Control_c, 1, 1, 30
3, 55000, Control_c, 1, 1, 32
3, 55000, Control_c, 1, 1, 34
3, 55000, Control_c, 1, 1, 35
3, 55000, Control_c, 1, 1, 37
3, 55008, Control_c, 1, 1, 39
3, 55008, Control_c, 1, 1, 40
3, 55008, Control_c, 1, 1, 42
3, 55016, Control_c, 1, 1, 44
3, 55016, Control_c, 1, 1, 46
3, 55016, Control_c, 1, 1, 47
3, 55016, Control_c, 1, 1, 48
3, 55024, Control_c, 1, 1, 50
3, 55024, Control_c, 1, 1, 52
3, 55024, Control_c, 1, 1, 53
3, 55032, Control_c, 1, 1, 54
3, 55032, Control_c, 1, 1, 56
3, 55032, Control_c, 1, 1, 57
3, 55040, Control_c, 1, 1, 58
3, 55040, Control_c, 1, 1, 59
3, 55040, Control_c, 1, 1, 60
3, 55040, Control_c, 1, 1, 61
3, 55048, Control_c, 1, 1, 64
3, 55056, Control_c, 1, 1, 65
3, 55056, Control_c, 1, 1, 68
3, 55064, Control_c, 1, 1, 69
3, 55064, Control_c, 1, 1, 71
3, 55072, Control_c, 1, 1, 72
3, 55072, Control_c, 1, 1, 74
3, 55072, Control_c, 1, 1, 75
3, 55080, Control_c, 1, 1, 77
3, 55088, Control_c, 1, 1, 79
3, 55088, Control_c, 1, 1, 80
3, 55096, Control_c, 1, 1, 83
3, 55096, Control_c, 1, 1, 84
3, 55104, Control_c, 1, 1, 86
3, 55112, Control_c, 1, 1, 87
3, 55120, Control_c, 1, 1, 88
3, 55128, Control_c, 1, 1, 89
3, 55152, Control_c, 1, 1, 88
3, 55160, Control_c, 1, 1, 86
3, 55160, Control_c, 1, 1, 85
3, 55168, Control_c, 1, 1, 83
3, 55176, Control_c, 1, 1, 81
3, 55184, Control_c, 1, 1, 79
3, 55184, Control_c, 1, 1, 78
3, 55184, Control_c, 1, 1, 77
3, 55192, Control_c, 1, 1, 76
3, 55192, Control_c, 1, 1, 75
3, 55192, Control_c, 1, 1, 74
3, 55200, Control_c, 1, 1, 72
3, 55200, Control_c, 1, 1, 71
3, 55200, Control_c, 1, 1, 69
3, 55208, Control_c, 1, 1, 67
3, 55208, Control_c, 1, 1, 65
3, 55208, Control_c, 1, 1, 63
3, 55208, Control_c, 1, 1, 60
3, 55216, Control_c, 1, 1, 58
3, 55216, Control_c, 1, 1, 56
3, 55216, Control_c, 1, 1, 54
3, 55224, Control_c, 1, 1, 51
3, 55224, Control_c, 1, 1, 48
3, 55224, Control_c, 1, 1, 46
3, 55232, Control_c, 1, 1, 43
3, 55232, Control_c, 1, 1, 39
3, 55232, Control_c, 1, 1, 35
3, 55232, Control_c, 1, 1, 32
3, 55240, Control_c, 1, 1, 29
3, 55240, Control_c, 1, 1, 25
3, 55240, Control_c, 1, 1, 22
3, 55248, Control_c, 1, 1, 19
3, 55248, Control_c, 1, 1, 15
3, 55248, Control_c, 1, 1, 11
3, 55256, Control_c, 1, 1, 8
3, 55256, Control_c, 1, 1, 6
3, 55256, Control_c, 1, 1, 3
3, 55264, Control_c, 1, 1, 1
3, 55272, Control_c, 1, 1, 0
3, 55544, Note_on_c, 1, 40, 74
3, 55568, Note_on_c, 1, 43, 0
3, 55912, Note_on_c, 1, 32, 79
3, 55920, Note_on_c, 1, 31, 84
3, 55928, Note_on_c, 1, 32, 0
3, 56320, Note_on_c, 1, 34, 60
3, 56352, Note_on_c, 1, 31, 0
3, 56416, Note_on_c, 1, 40, 0
3, 56424, Note_on_c, 1, 34, 0
3, 56440, Note_on_c, 1, 35, 48
3, 56720, Note_on_c, 1, 34, 30
3, 56784, Note_on_c, 1, 35, 0
3, 56824, Note_on_c, 1, 34, 0
3, 56848, Note_on_c, 1, 36, 51
3, 57104, Note_on_c, 1, 34, 20
3, 57192, Note_on_c, 1, 36, 0
3, 57216, Note_on_c, 1, 43, 42
3, 57256, Note_on_c, 1, 34, 0
3, 57472, Note_on_c, 1, 35, 35
3, 57512, Note_on_c, 1, 35, 0
3, 57584, Note_on_c, 1, 43, 0
3, 57592, Note_on_c, 1, 47, 44
3, 57976, Note_on_c, 1, 35, 51
3, 58344, Note_on_c, 1, 47, 0
3, 58360, Note_on_c, 1, 35, 0
3, 58360, Note_on_c, 1, 34, 46
3, 58608, Note_on_c, 1, 50, 88
3, 58712, Note_on_c, 1, 50, 0
3, 58736, Note_on_c, 1, 34, 0
3, 58736, Note_on_c, 1, 46, 37
3, 58984, Note_on_c, 1, 44, 46
3, 59000, Note_on_c, 1, 46, 0
3, 59064, Note_on_c, 1, 44, 0
3, 59104, Note_on_c, 1, 45, 47
3, 59144, Note_on_c, 1, 45, 0
3, 59224, Note_on_c, 1, 40, 38
3, 59256, Note_on_c, 1, 40, 0
3, 59352, Note_on_c, 1, 37, 48
3, 59480, Note_on_c, 1, 37, 0
3, 59504, Note_on_c, 1, 33, 42
3, 59752, Note_on_c, 1, 37, 46
3, 59792, Note_on_c, 1, 33, 0
3, 59880, Note_on_c, 1, 37, 0
3, 59904, Note_on_c, 1, 38, 40
3, 60112, Note_on_c, 1, 38, 0
3, 60152, Note_on_c, 1, 38, 64
3, 60216, Note_on_c, 1, 38, 0
3, 60280, Note_on_c, 1, 40, 48
3, 60664, Note_on_c, 1, 40, 0
3, 60680, Note_on_c, 1, 42, 52
3, 61016, Note_on_c, 1, 42, 0
3, 61048, Note_on_c, 1, 45, 44
3, 61688, Note_on_c, 1, 54, 76
3, 61768, Note_on_c, 1, 45, 0
3, 61792, Note_on_c, 1, 54, 0
3, 61816, Note_on_c, 1, 52, 54
3, 62176, Note_on_c, 1, 52, 0
3, 62208, Note_on_c, 1, 50, 49
3, 62448, Note_on_c, 1, 50, 0
3, 62464, Note_on_c, 1, 45, 50
3, 62600, Note_on_c, 1, 45, 0
3, 62600, Note_on_c, 1, 44, 35
3, 62832, Note_on_c, 1, 39, 44
3, 62872, Note_on_c, 1, 39, 0
3, 62936, Note_on_c, 1, 44, 0
3, 62968, Note_on_c, 1, 43, 43
3, 63208, Note_on_c, 1, 38, 64
3, 63216, Note_on_c, 1, 43, 0
3, 63336, Note_on_c, 1, 50, 59
3, 63456, Note_on_c, 1, 38, 0
3, 63696, Note_on_c, 1, 50, 0
3, 63720, Note_on_c, 1, 48, 58
3, 64120, Note_on_c, 1, 36, 59
3, 64152, Note_on_c, 1, 48, 0
3, 64488, Note_on_c, 1, 36, 0
3, 64496, Note_on_c, 1, 35, 50
3, 64872, Note_on_c, 1, 41, 71
3, 64904, Note_on_c, 1, 35, 0
3, 65136, Note_on_c, 1, 35, 46
3, 65176, Note_on_c, 1, 35, 0
3, 65224, Note_on_c, 1, 41, 0
3, 65248, Note_on_c, 1, 40, 55
3, 65504, Note_on_c, 1, 46, 61
3, 65560, Note_on_c, 1, 40, 0
3, 65768, Note_on_c, 1, 34, 44
3, 65800, Note_on_c, 1, 34, 0
3, 65888, Note_on_c, 1, 32, 50
3, 65976, Note_on_c, 1, 32, 0
3, 66016, Note_on_c, 1, 33, 44
3, 66040, Note_on_c, 1, 46, 0
3, 66424, Note_on_c, 1, 45, 53
3, 66488, Note_on_c, 1, 33, 0
3, 66688, Note_on_c, 1, 33, 30
3, 66712, Note_on_c, 1, 33, 0
3, 66776, Note_on_c, 1, 45, 0
3, 66800, Note_on_c, 1, 44, 42
3, 67056, Note_on_c, 1, 48, 63
3, 67080, Note_on_c, 1, 44, 0
3, 67480, Note_on_c, 1, 38, 49
3, 67496, Note_on_c, 1, 38, 0
3, 67600, Note_on_c, 1, 43, 36
3, 67648, Note_on_c, 1, 48, 0
3, 67848, Note_on_c, 1, 38, 39
3, 67872, Note_on_c, 1, 38, 0
3, 67976, Note_on_c, 1, 31, 38
3, 68352, Note_on_c, 1, 31, 0
3, 68360, Note_on_c, 1, 36, 45
3, 68440, Note_on_c, 1, 43, 0
3, 68728, Note_on_c, 1, 43, 53
3, 68776, Note_on_c, 1, 36, 0
3, 68976, Note_on_c, 1, 43, 0
3, 68984, Note_on_c, 1, 42, 51
3, 69064, Note_on_c, 1, 42, 0
3, 69096, Note_on_c, 1, 41, 50
3, 69360, Note_on_c, 1, 36, 51
3, 69400, Note_on_c, 1, 41, 0
3, 69464, Note_on_c, 1, 36, 0
3, 69504, Note_on_c, 1, 29, 34
3, 69888, Note_on_c, 1, 43, 53
3, 69992, Note_on_c, 1, 29, 0
3, 70264, Note_on_c, 1, 43, 0
3, 70272, Note_on_c, 1, 41, 47
3, 70512, Note_on_c, 1, 36, 54
3, 70560, Note_on_c, 1, 36, 0
3, 70640, Note_on_c, 1, 41, 0
3, 70640, Note_on_c, 1, 29, 37
3, 70904, Note_on_c, 1, 36, 28
3, 70936, Note_on_c, 1, 36, 0
3, 71000, Note_on_c, 1, 29, 0
3, 71016, Note_on_c, 1, 43, 73
3, 71384, Note_on_c, 1, 43, 0
3, 71384, Control_c, 1, 1, 3
3, 71384, Control_c, 1, 1, 5
3, 71384, Control_c, 1, 1, 8
3, 71384, Control_c, 1, 1, 10
3, 71392, Control_c, 1, 1, 14
3, 71392, Control_c, 1, 1, 17
3, 71392, Control_c, 1, 1, 20
3, 71400, Control_c, 1, 1, 25
3, 71400, Note_on_c, 1, 41, 62
3, 71400, Control_c, 1, 1, 30
3, 71408, Control_c, 1, 1, 34
3, 71408, Control_c, 1, 1, 37
3, 71408, Control_c, 1, 1, 40
3, 71408, Control_c, 1, 1, 45
3, 71416, Control_c, 1, 1, 48
3, 71416, Control_c, 1, 1, 50
3, 71416, Control_c, 1, 1, 54
3, 71424, Control_c, 1, 1, 57
3, 71424, Control_c, 1, 1, 60
3, 71424, Control_c, 1, 1, 63
3, 71432, Control_c, 1, 1, 65
3, 71432, Control_c, 1, 1, 68
3, 71432, Control_c, 1, 1, 69
3, 71440, Control_c, 1, 1, 71
3, 71440, Control_c, 1, 1, 73
3, 71440, Control_c, 1, 1, 75
3, 71440, Control_c, 1, 1, 76
3, 71448, Control_c, 1, 1, 77
3, 71448, Control_c, 1, 1, 78
3, 71448, Control_c, 1, 1, 79
3, 71456, Control_c, 1, 1, 81
3, 71464, Control_c, 1, 1, 82
3, 71464, Control_c, 1, 1, 83
3, 71472, Control_c, 1, 1, 84
3, 71512, Control_c, 1, 1, 83
3, 71520, Control_c, 1, 1, 82
3, 71520, Control_c, 1, 1, 80
3, 71528, Control_c, 1, 1, 78
3, 71536, Control_c, 1, 1, 76
3, 71536, Control_c, 1, 1, 75
3, 71544, Control_c, 1, 1, 74
3, 71544, Control_c, 1, 1, 73
3, 71544, Control_c, 1, 1, 71
3, 71544, Control_c, 1, 1, 69
3, 71552, Control_c, 1, 1, 68
3, 71552, Control_c, 1, 1, 66
3, 71552, Control_c, 1, 1, 64
3, 71560, Control_c, 1, 1, 63
3, 71560, Control_c, 1, 1, 61
3, 71560, Control_c, 1, 1, 58
3, 71568, Control_c, 1, 1, 56
3, 71568, Control_c, 1, 1, 54
3, 71568, Control_c, 1, 1, 52
3, 71568, Control_c, 1, 1, 49
3, 71576, Control_c, 1, 1, 47
3, 71576, Control_c, 1, 1, 44
3, 71576, Control_c, 1, 1, 41
3, 71584, Control_c, 1, 1, 39
3, 71584, Control_c, 1, 1, 37
3, 71584, Control_c, 1, 1, 34
3, 71592, Control_c, 1, 1, 31
3, 71592, Control_c, 1, 1, 28
3, 71592, Control_c, 1, 1, 25
3, 71600, Control_c, 1, 1, 23
3, 71600, Control_c, 1, 1, 20
3, 71600, Control_c, 1, 1, 16
3, 71608, Control_c, 1, 1, 14
3, 71608, Control_c, 1, 1, 11
3, 71608, Control_c, 1, 1, 8
3, 71616, Control_c, 1, 1, 5
3, 71616, Control_c, 1, 1, 3
3, 71616, Control_c, 1, 1, 1
3, 71696, Note_on_c, 1, 36, 57
3, 71704, Note_on_c, 1, 41, 0
3, 71944, Note_on_c, 1, 36, 0
3, 71952, Note_on_c, 1, 41, 56
3, 72032, Note_on_c, 1, 41, 0
3, 72072, Note_on_c, 1, 35, 26
3, 72096, Note_on_c, 1, 35, 0
3, 72176, Note_on_c, 1, 40, 53
3, 72576, Note_on_c, 1, 40, 0
3, 72576, Note_on_c, 1, 36, 58
3, 72912, Note_on_c, 1, 36, 0
3, 72960, Note_on_c, 1, 38, 71
3, 73320, Note_on_c, 1, 38, 0
3, 73344, Note_on_c, 1, 31, 56
3, 73728, Note_on_c, 1, 31, 0
3, 73728, Note_on_c, 1, 36, 67
3, 74112, Note_on_c, 1, 45, 96
3, 74136, Note_on_c, 1, 36, 0
3, 74488, Note_on_c, 1, 45, 0
3, 74504, Note_on_c, 1, 43, 45
3, 74760, Note_on_c, 1, 36, 34
3, 74784, Note_on_c, 1, 36, 0
3, 74864, Note_on_c, 1, 43, 0
3, 74880, Note_on_c, 1, 40, 49
3, 75136, Note_on_c, 1, 41, 62
3, 75152, Note_on_c, 1, 40, 0
3, 75256, Note_on_c, 1, 41, 0
3, 75264, Note_on_c, 1, 42, 51
3, 75504, Note_on_c, 1, 36, 45
3, 75576, Note_on_c, 1, 36, 0
3, 75624, Note_on_c, 1, 30, 42
3, 76032, Note_on_c, 1, 42, 0
3, 76032, Note_on_c, 1, 35, 57
3, 76040, Note_on_c, 1, 30, 0
3, 76424, Note_on_c, 1, 47, 82
3, 76464, Note_on_c, 1, 35, 0
3, 76800, Note_on_c, 1, 35, 62
3, 76992, Note_on_c, 1, 47, 0
3, 77184, Note_on_c, 1, 47, 88
3, 77240, Note_on_c, 1, 35, 0
3, 77488, Note_on_c, 1, 35, 24
3, 77520, Note_on_c, 1, 47, 0
3, 77560, Note_on_c, 1, 35, 0
3, 77560, Note_on_c, 1, 47, 70
3, 77816, Note_on_c, 1, 35, 56
3, 77864, Note_on_c, 1, 35, 0
3, 77928, Note_on_c, 1, 39, 56
3, 78184, Note_on_c, 1, 35, 24
3, 78216, Note_on_c, 1, 39, 0
3, 78288, Note_on_c, 1, 35, 0
3, 78312, Note_on_c, 1, 40, 51
3, 78672, Note_on_c, 1, 40, 0
3, 78720, Note_on_c, 1, 40, 58
3, 79072, Note_on_c, 1, 40, 0
3, 79088, Note_on_c, 1, 39, 67
3, 79480, Note_on_c, 1, 47, 0
3, 79488, Note_on_c, 1, 33, 58
3, 79504, Note_on_c, 1, 39, 0
3, 79872, Note_on_c, 1, 33, 0
3, 79872, Note_on_c, 1, 38, 60
3, 80248, Note_on_c, 1, 38, 0
3, 80256, Note_on_c, 1, 32, 62
3, 80512, Note_on_c, 1, 44, 75
3, 80584, Note_on_c, 1, 32, 0
3, 80656, Note_on_c, 1, 37, 45
3, 80672, Note_on_c, 1, 37, 0
3, 80752, Note_on_c, 1, 43, 70
3, 80776, Note_on_c, 1, 44, 0
3, 80792, Note_on_c, 1, 43, 0
3, 80864, Note_on_c, 1, 38, 66
3, 80944, Note_on_c, 1, 38, 0
3, 80992, Note_on_c, 1, 37, 63
3, 81224, Note_on_c, 1, 37, 0
3, 81240, Note_on_c, 1, 35, 59
3, 81376, Note_on_c, 1, 35, 0
3, 81384, Note_on_c, 1, 36, 58
3, 81640, Note_on_c, 1, 43, 36
3, 81696, Note_on_c, 1, 43, 0
3, 81776, Note_on_c, 1, 48, 55
3, 81808, Note_on_c, 1, 36, 0
3, 82032, Note_on_c, 1, 36, 40
3, 82072, Note_on_c, 1, 36, 0
3, 82128, Note_on_c, 1, 48, 0
3, 82160, Note_on_c, 1, 47, 54
3, 82184, Note_on_c, 1, 47, 0
3, 82264, Note_on_c, 1, 39, 50
3, 82520, Note_on_c, 1, 39, 0
3, 82528, Note_on_c, 1, 35, 44
3, 82904, Note_on_c, 1, 35, 0
3, 82928, Note_on_c, 1, 34, 42
3, 83312, Note_on_c, 1, 40, 48
3, 83320, Note_on_c, 1, 34, 0
3, 83576, Note_on_c, 1, 34, 57
3, 83656, Note_on_c, 1, 34, 0
3, 83672, Note_on_c, 1, 40, 0
3, 83712, Note_on_c, 1, 33, 50
3, 84064, Note_on_c, 1, 33, 0
3, 84096, Note_on_c, 1, 39, 61
3, 84344, Note_on_c, 1, 39, 0
3, 84344, Note_on_c, 1, 37, 44
3, 84440, Note_on_c, 1, 37, 0
3, 84480, Note_on_c, 1, 38, 37
3, 84720, Note_on_c, 1, 45, 57
3, 84744, Note_on_c, 1, 45, 0
3, 84840, Note_on_c, 1, 52, 84
3, 84904, Note_on_c, 1, 38, 0
3, 85200, Note_on_c, 1, 52, 0
3, 85232, Note_on_c, 1, 50, 52
3, 85448, Note_on_c, 1, 50, 0
3, 85480, Note_on_c, 1, 48, 58
3, 85560, Note_on_c, 1, 48, 0
3, 85608, Note_on_c, 1, 45, 42
3, 85680, Note_on_c, 1, 45, 0
3, 85864, Note_on_c, 1, 43, 68
3, 85936, Note_on_c, 1, 43, 0
3, 85992, Note_on_c, 1, 42, 67
3, 86256, Note_on_c, 1, 36, 62
3, 86272, Note_on_c, 1, 36, 0
3, 86352, Note_on_c, 1, 42, 0
3, 86384, Note_on_c, 1, 39, 55
3, 86632, Note_on_c, 1, 36, 61
3, 86640, Note_on_c, 1, 39, 0
3, 86744, Note_on_c, 1, 36, 0
3, 86768, Note_on_c, 1, 37, 46
3, 86840, Note_on_c, 1, 37, 0
3, 86872, Note_on_c, 1, 38, 44
3, 86928, Note_on_c, 1, 38, 0
3, 86992, Note_on_c, 1, 42, 64
3, 87096, Note_on_c, 1, 42, 0
3, 87128, Note_on_c, 1, 45, 61
3, 87208, Note_on_c, 1, 45, 0
3, 87272, Note_on_c, 1, 37, 39
3, 87528, Note_on_c, 1, 37, 0
3, 87552, Note_on_c, 1, 38, 50
3, 87944, Note_on_c, 1, 45, 53
3, 87992, Note_on_c, 1, 38, 0
3, 88184, Note_on_c, 1, 38, 31
3, 88256, Note_on_c, 1, 45, 0
3, 88296, Note_on_c, 1, 38, 0
3, 88312, Note_on_c, 1, 48, 30
3, 88632, Note_on_c, 1, 48, 0
3, 88704, Note_on_c, 1, 48, 61
3, 89048, Note_on_c, 1, 48, 0
3, 89088, Note_on_c, 1, 47, 46
3, 89360, Note_on_c, 1, 40, 32
3, 89384, Note_on_c, 1, 40, 0
3, 89456, Note_on_c, 1, 39, 60
3, 89824, Note_on_c, 1, 47, 0
3, 89856, Note_on_c, 1, 39, 0
3, 89864, Note_on_c, 1, 40, 55
3, 90112, Note_on_c, 1, 40, 0
3, 90112, Note_on_c, 1, 35, 51
3, 90200, Note_on_c, 1, 35, 0
3, 90240, Note_on_c, 1, 34, 51
3, 90608, Note_on_c, 1, 34, 0
3, 90624, Note_on_c, 1, 33, 44
3, 90888, Note_on_c, 1, 34, 33
3, 90944, Note_on_c, 1, 34, 0
3, 91000, Note_on_c, 1, 45, 55
3, 91008, Note_on_c, 1, 33, 0
3, 91224, Note_on_c, 1, 34, 31
3, 91256, Note_on_c, 1, 34, 0
3, 91376, Note_on_c, 1, 45, 0
3, 91376, Note_on_c, 1, 44, 45
3, 91616, Note_on_c, 1, 39, 59
3, 91688, Note_on_c, 1, 39, 0
3, 91696, Note_on_c, 1, 44, 0
3, 91744, Note_on_c, 1, 32, 61
3, 92096, Note_on_c, 1, 32, 0
3, 92136, Note_on_c, 1, 31, 53
3, 92520, Note_on_c, 1, 43, 71
3, 92552, Note_on_c, 1, 31, 0
3, 92896, Note_on_c, 1, 43, 0
3, 92904, Note_on_c, 1, 36, 53
3, 93304, Note_on_c, 1, 48, 90
3, 93304, Note_on_c, 1, 47, 84
3, 93328, Note_on_c, 1, 36, 0
3, 93384, Note_on_c, 1, 47, 0
3, 93544, Note_on_c, 1, 40, 43
3, 93672, Note_on_c, 1, 40, 0
3, 93696, Note_on_c, 1, 41, 40
3, 93728, Note_on_c, 1, 48, 0
3, 94016, Note_on_c, 1, 41, 0
3, 94064, Note_on_c, 1, 41, 53
3, 94448, Note_on_c, 1, 41, 0
3, 94464, Note_on_c, 1, 36, 33
3, 94704, Note_on_c, 1, 39, 69
3, 94736, Note_on_c, 1, 36, 0
3, 94808, Note_on_c, 1, 39, 0
3, 94832, Note_on_c, 1, 40, 53
3, 95208, Note_on_c, 1, 40, 0
3, 95216, Note_on_c, 1, 41, 53
3, 95464, Note_on_c, 1, 53, 95
3, 95552, Note_on_c, 1, 41, 0
3, 95576, Note_on_c, 1, 53, 0
3, 95600, Note_on_c, 1, 48, 50
3, 95856, Note_on_c, 1, 41, 30
3, 95888, Note_on_c, 1, 41, 0
3, 95960, Note_on_c, 1, 48, 0
3, 95976, Note_on_c, 1, 44, 57
3, 96248, Note_on_c, 1, 44, 0
3, 96256, Note_on_c, 1, 41, 32
3, 96312, Note_on_c, 1, 41, 0
3, 96368, Note_on_c, 1, 43, 51
3, 96432, Note_on_c, 1, 43, 0
3, 96480, Note_on_c, 1, 38, 64
3, 96520, Note_on_c, 1, 38, 0
3, 96608, Note_on_c, 1, 35, 61
3, 96736, Note_on_c, 1, 35, 0
3, 96744, Note_on_c, 1, 36, 64
3, 96992, Note_on_c, 1, 43, 48
3, 97024, Note_on_c, 1, 43, 0
3, 97120, Note_on_c, 1, 50, 89
3, 97160, Note_on_c, 1, 36, 0
3, 97368, Note_on_c, 1, 36, 43
3, 97424, Note_on_c, 1, 36, 0
3, 97464, Note_on_c, 1, 50, 0
3, 97512, Note_on_c, 1, 48, 62
3, 97728, Note_on_c, 1, 48, 0
3, 97768, Note_on_c, 1, 47, 68
3, 97904, Note_on_c, 1, 47, 0
3, 97904, Note_on_c, 1, 35, 53
3, 98296, Note_on_c, 1, 35, 0
3, 98296, Note_on_c, 1, 34, 45
3, 98680, Note_on_c, 1, 46, 60
3, 98720, Note_on_c, 1, 34, 0
3, 98936, Note_on_c, 1, 34, 36
3, 98968, Note_on_c, 1, 34, 0
3, 99032, Note_on_c, 1, 46, 0
3, 99056, Note_on_c, 1, 45, 44
3, 99312, Note_on_c, 1, 34, 75
3, 99408, Note_on_c, 1, 34, 0
3, 99440, Note_on_c, 1, 33, 47
3, 99664, Note_on_c, 1, 33, 0
3, 99696, Note_on_c, 1, 37, 57
3, 99752, Note_on_c, 1, 45, 0
3, 99792, Note_on_c, 1, 37, 0
3, 99808, Note_on_c, 1, 38, 56
3, 100040, Note_on_c, 1, 38, 0
3, 100064, Note_on_c, 1, 33, 72
3, 100184, Note_on_c, 1, 33, 0
3, 100184, Note_on_c, 1, 30, 54
3, 100600, Note_on_c, 1, 38, 53
3, 100608, Note_on_c, 1, 30, 0
3, 100976, Note_on_c, 1, 38, 0
3, 100992, Note_on_c, 1, 32, 55
3, 101344, Note_on_c, 1, 32, 0
3, 101368, Note_on_c, 1, 31, 51
3, 101768, Note_on_c, 1, 45, 69
3, 101840, Note_on_c, 1, 31, 0
3, 102136, Note_on_c, 1, 45, 0
3, 102152, Note_on_c, 1, 43, 53
3, 102392, Note_on_c, 1, 35, 58
3, 102720, Note_on_c, 1, 35, 0
3, 102752, Note_on_c, 1, 31, 69
3, 102768, Note_on_c, 1, 43, 0
3, 103136, Note_on_c, 1, 38, 27
3, 103160, Note_on_c, 1, 38, 0
3, 103256, Note_on_c, 1, 43, 58
3, 103528, Note_on_c, 1, 43, 0
3, 103528, Note_on_c, 1, 45, 39
3, 103592, Note_on_c, 1, 31, 0
3, 103656, Note_on_c, 1, 45, 0
3, 103656, Note_on_c, 1, 43, 40
3, 103936, Note_on_c, 1, 43, 0
3, 104032, Note_on_c, 1, 31, 74
3, 104416, Note_on_c, 1, 43, 33
3, 104680, Note_on_c, 1, 43, 0
3, 104680, Note_on_c, 1, 45, 50
3, 104800, Note_on_c, 1, 45, 0
3, 104816, Note_on_c, 1, 31, 0
3, 104816, Note_on_c, 1, 43, 53
3, 105072, Note_on_c, 1, 34, 79
3, 105112, Note_on_c, 1, 43, 0
3, 105456, Note_on_c, 1, 35, 81
3, 105488, Note_on_c, 1, 34, 0
3, 105872, Note_on_c, 1, 34, 27
3, 105944, Note_on_c, 1, 35, 0
3, 105968, Note_on_c, 1, 34, 0
3, 105976, Note_on_c, 1, 36, 46
3, 106256, Note_on_c, 1, 34, 23
3, 106352, Note_on_c, 1, 34, 0
3, 106352, Note_on_c, 1, 48, 69
3, 106360, Note_on_c, 1, 36, 0
3, 106624, Note_on_c, 1, 36, 32
3, 106648, Note_on_c, 1, 36, 0
3, 106720, Note_on_c, 1, 48, 0
3, 106744, Note_on_c, 1, 47, 43
3, 107000, Note_on_c, 1, 35, 59
3, 107056, Note_on_c, 1, 47, 0
3, 107104, Note_on_c, 1, 35, 0
3, 107120, Note_on_c, 1, 34, 51
3, 107416, Note_on_c, 1, 34, 0
3, 107496, Note_on_c, 1, 34, 69
3, 107880, Note_on_c, 1, 50, 51
3, 108000, Note_on_c, 1, 34, 0
3, 108128, Note_on_c, 1, 34, 35
3, 108216, Note_on_c, 1, 50, 0
3, 108256, Note_on_c, 1, 49, 44
3, 108320, Note_on_c, 1, 34, 0
3, 108504, Note_on_c, 1, 34, 59
3, 108608, Note_on_c, 1, 34, 0
3, 108640, Note_on_c, 1, 49, 0
3, 108640, Note_on_c, 1, 33, 50
3, 108896, Note_on_c, 1, 37, 36
3, 108936, Note_on_c, 1, 33, 0
3, 109008, Note_on_c, 1, 37, 0
3, 109032, Note_on_c, 1, 38, 44
3, 109416, Note_on_c, 1, 52, 78
3, 109488, Note_on_c, 1, 38, 0
3, 109688, Note_on_c, 1, 38, 24
3, 109728, Note_on_c, 1, 38, 0
3, 109776, Note_on_c, 1, 52, 0
3, 109808, Note_on_c, 1, 50, 41
3, 110056, Note_on_c, 1, 50, 0
3, 110064, Note_on_c, 1, 48, 51
3, 110144, Note_on_c, 1, 48, 0
3, 110296, Note_on_c, 1, 43, 57
3, 110344, Note_on_c, 1, 43, 0
3, 110416, Note_on_c, 1, 42, 50
3, 110528, Note_on_c, 1, 42, 0
3, 110552, Note_on_c, 1, 38, 50
3, 110824, Note_on_c, 1, 33, 42
3, 110848, Note_on_c, 1, 33, 0
3, 110936, Note_on_c, 1, 38, 0
3, 110944, Note_on_c, 1, 36, 55
3, 111344, Note_on_c, 1, 33, 53
3, 111416, Note_on_c, 1, 36, 0
3, 111728, Note_on_c, 1, 30, 47
3, 111736, Note_on_c, 1, 33, 0
3, 112000, Note_on_c, 1, 33, 31
3, 112032, Note_on_c, 1, 33, 0
3, 112064, Note_on_c, 1, 30, 0
3, 112104, Note_on_c, 1, 38, 55
3, 112504, Note_on_c, 1, 38, 0
3, 112504, Note_on_c, 1, 33, 54
3, 112896, Note_on_c, 1, 45, 57
3, 112936, Note_on_c, 1, 33, 0
3, 113168, Note_on_c, 1, 33, 26
3, 113200, Note_on_c, 1, 33, 0
3, 113240, Note_on_c, 1, 45, 0
3, 113272, Note_on_c, 1, 48, 68
3, 113624, Note_on_c, 1, 48, 0
3, 113656, Note_on_c, 1, 47, 51
3, 114040, Note_on_c, 1, 41, 51
3, 114152, Note_on_c, 1, 47, 0
3, 114432, Note_on_c, 1, 40, 49
3, 114464, Note_on_c, 1, 41, 0
3, 114808, Note_on_c, 1, 40, 0
3, 114816, Note_on_c, 1, 46, 56
3, 115168, Note_on_c, 1, 46, 0
3, 115192, Note_on_c, 1, 45, 35
3, 115432, Note_on_c, 1, 40, 65
3, 115512, Note_on_c, 1, 40, 0
3, 115560, Note_on_c, 1, 33, 49
3, 115952, Note_on_c, 1, 33, 0
3, 115960, Note_on_c, 1, 45, 0
3, 115960, Note_on_c, 1, 32, 54
3, 116352, Note_on_c, 1, 44, 69
3, 116448, Note_on_c, 1, 32, 0
3, 116600, Note_on_c, 1, 32, 30
3, 116632, Note_on_c, 1, 32, 0
3, 116736, Note_on_c, 1, 43, 54
3, 116800, Note_on_c, 1, 44, 0
3, 116992, Note_on_c, 1, 38, 46
3, 117032, Note_on_c, 1, 38, 0
3, 117104, Note_on_c, 1, 35, 53
3, 117480, Note_on_c, 1, 35, 0
3, 117480, Note_on_c, 1, 36, 56
3, 117552, Note_on_c, 1, 43, 0
3, 117712, Note_on_c, 1, 36, 0
3, 117728, Note_on_c, 1, 30, 70
3, 117776, Note_on_c, 1, 30, 0
3, 117776, Note_on_c, 1, 31, 55
3, 117912, Note_on_c, 1, 31, 0
3, 118128, Note_on_c, 1, 30, 68
3, 118216, Note_on_c, 1, 30, 0
3, 118272, Note_on_c, 1, 29, 43
3, 118656, Note_on_c, 1, 36, 59
3, 118728, Note_on_c, 1, 29, 0
3, 119040, Note_on_c, 1, 36, 0
3, 119048, Note_on_c, 1, 41, 54
3, 119320, Note_on_c, 1, 36, 35
3, 119344, Note_on_c, 1, 36, 0
3, 119392, Note_on_c, 1, 41, 0
3, 119424, Note_on_c, 1, 43, 62
3, 119784, Note_on_c, 1, 43, 0
3, 119792, Note_on_c, 1, 44, 57
3, 120024, Note_on_c, 1, 44, 0
3, 120032, Note_on_c, 1, 41, 66
3, 120096, Note_on_c, 1, 41, 0
3, 120152, Note_on_c, 1, 36, 56
3, 120520, Note_on_c, 1, 36, 0
3, 120552, Note_on_c, 1, 32, 48
3, 120936, Note_on_c, 1, 36, 58
3, 120968, Note_on_c, 1, 32, 0
3, 121216, Note_on_c, 1, 32, 48
3, 121224, Note_on_c, 1, 36, 0
3, 121296, Note_on_c, 1, 32, 0
3, 121320, Note_on_c, 1, 36, 66
3, 121720, Note_on_c, 1, 48, 87
3, 121784, Note_on_c, 1, 36, 0
3, 122008, Note_on_c, 1, 36, 35
3, 122056, Note_on_c, 1, 48, 0
3, 122064, Note_on_c, 1, 36, 0
3, 122104, Note_on_c, 1, 48, 57
3, 122496, Note_on_c, 1, 48, 0
3, 122496, Note_on_c, 1, 31, 51
3, 122880, Note_on_c, 1, 48, 60
3, 122928, Note_on_c, 1, 31, 0
3, 123256, Note_on_c, 1, 48, 0
3, 123264, Note_on_c, 1, 36, 60
3, 123632, Note_on_c, 1, 36, 0
3, 123640, Note_on_c, 1, 43, 57
3, 123896, Note_on_c, 1, 36, 44
3, 123928, Note_on_c, 1, 36, 0
3, 124016, Note_on_c, 1, 31, 57
3, 124080, Note_on_c, 1, 43, 0
3, 124400, Note_on_c, 1, 31, 0
3, 124408, Note_on_c, 1, 30, 51
3, 124808, Note_on_c, 1, 42, 59
3, 124864, Note_on_c, 1, 30, 0
3, 125176, Note_on_c, 1, 35, 47
3, 125200, Note_on_c, 1, 42, 0
3, 125568, Note_on_c, 1, 47, 81
3, 125592, Note_on_c, 1, 35, 0
3, 125824, Note_on_c, 1, 35, 51
3, 125872, Note_on_c, 1, 35, 0
3, 125904, Note_on_c, 1, 47, 0
3, 125944, Note_on_c, 1, 42, 53
3, 126296, Note_on_c, 1, 42, 0
3, 126328, Note_on_c, 1, 42, 61
3, 126584, Note_on_c, 1, 35, 76
3, 126632, Note_on_c, 1, 42, 0
3, 126712, Note_on_c, 1, 35, 0
3, 126720, Note_on_c, 1, 41, 54
3, 127032, Note_on_c, 1, 35, 24
3, 127064, Note_on_c, 1, 35, 0
3, 127072, Note_on_c, 1, 41, 0
3, 127088, Note_on_c, 1, 39, 53
3, 127400, Note_on_c, 1, 39, 0
3, 127448, Note_on_c, 1, 40, 35
3, 127712, Note_on_c, 1, 35, 54
3, 127792, Note_on_c, 1, 35, 0
3, 127848, Note_on_c, 1, 40, 0
3, 127848, Note_on_c, 1, 34, 48
3, 128224, Note_on_c, 1, 34, 0
3, 128240, Note_on_c, 1, 33, 45
3, 128632, Note_on_c, 1, 39, 61
3, 128640, Note_on_c, 1, 33, 0
3, 129016, Note_on_c, 1, 38, 44
3, 129072, Note_on_c, 1, 39, 0
3, 129240, Note_on_c, 1, 38, 0
3, 129264, Note_on_c, 1, 45, 74
3, 129368, Note_on_c, 1, 45, 0
3, 129400, Note_on_c, 1, 42, 47
3, 129696, Note_on_c, 1, 42, 0
3, 129768, Note_on_c, 1, 43, 64
3, 129880, Pitch_bend_c, 1, 8192
3, 129880, Pitch_bend_c, 1, 8192
3, 129880, Pitch_bend_c, 1, 8712
3, 129888, Pitch_bend_c, 1, 9102
3, 129888, Pitch_bend_c, 1, 9362
3, 129896, Pitch_bend_c, 1, 9752
3, 129896, Pitch_bend_c, 1, 10012
3, 129904, Pitch_bend_c, 1, 10402
3, 129904, Pitch_bend_c, 1, 10662
3, 129912, Pitch_bend_c, 1, 10922
3, 129912, Pitch_bend_c, 1, 11052
3, 129920, Pitch_bend_c, 1, 11312
3, 129936, Pitch_bend_c, 1, 11052
3, 129936, Pitch_bend_c, 1, 10792
3, 129944, Pitch_bend_c, 1, 10532
3, 129944, Pitch_bend_c, 1, 10272
3, 129952, Pitch_bend_c, 1, 9882
3, 129952, Pitch_bend_c, 1, 9362
3, 129960, Pitch_bend_c, 1, 8972
3, 129960, Pitch_bend_c, 1, 8192
3, 129960, Pitch_bend_c, 1, 8192
3, 130048, Pitch_bend_c, 1, 8192
3, 130048, Pitch_bend_c, 1, 8192
3, 130048, Pitch_bend_c, 1, 8842
3, 130056, Pitch_bend_c, 1, 9232
3, 130056, Pitch_bend_c, 1, 9492
3, 130064, Pitch_bend_c, 1, 9882
3, 130064, Pitch_bend_c, 1, 10142
3, 130072, Pitch_bend_c, 1, 10402
3, 130072, Pitch_bend_c, 1, 10662
3, 130080, Pitch_bend_c, 1, 10792
3, 130088, Pitch_bend_c, 1, 10922
3, 130096, Pitch_bend_c, 1, 10792
3, 130104, Pitch_bend_c, 1, 10532
3, 130104, Pitch_bend_c, 1, 10272
3, 130104, Pitch_bend_c, 1, 10012
3, 130104, Pitch_bend_c, 1, 9622
3, 130104, Pitch_bend_c, 1, 9102
3, 130104, Pitch_bend_c, 1, 8192
3, 130104, Pitch_bend_c, 1, 8192
3, 130400, Note_on_c, 1, 40, 55
3, 130416, Note_on_c, 1, 43, 0
3, 130496, Note_on_c, 1, 42, 37
3, 130512, Note_on_c, 1, 42, 0
3, 130544, Note_on_c, 1, 40, 0
3, 130544, Note_on_c, 1, 36, 46
3, 130904, Note_on_c, 1, 36, 0
3, 130928, Note_on_c, 1, 48, 60
3, 131192, Note_on_c, 1, 35, 34
3, 131232, Note_on_c, 1, 35, 0
3, 131280, Note_on_c, 1, 48, 0
3, 131312, Note_on_c, 1, 47, 54
3, 131576, Note_on_c, 1, 35, 48
3, 131656, Note_on_c, 1, 35, 0
3, 131704, Note_on_c, 1, 34, 60
3, 132016, Note_on_c, 1, 34, 0
3, 132088, Note_on_c, 1, 34, 59
3, 132280, Note_on_c, 1, 47, 0
3, 132472, Note_on_c, 1, 46, 57
3, 132552, Note_on_c, 1, 34, 0
3, 132728, Note_on_c, 1, 34, 39
3, 132752, Note_on_c, 1, 34, 0
3, 132832, Note_on_c, 1, 46, 0
3, 132848, Note_on_c, 1, 45, 55
3, 133104, Note_on_c, 1, 39, 74
3, 133536, Note_on_c, 1, 37, 34
3, 133576, Note_on_c, 1, 39, 0
3, 133592, Note_on_c, 1, 37, 0
3, 133632, Note_on_c, 1, 38, 34
3, 133656, Note_on_c, 1, 45, 0
3, 134008, Note_on_c, 1, 33, 47
3, 134392, Note_on_c, 1, 33, 0
3, 134392, Note_on_c, 1, 30, 37
3, 134776, Note_on_c, 1, 33, 58
3, 134784, Note_on_c, 1, 38, 0
3, 135016, Note_on_c, 1, 30, 0
3, 135176, Note_on_c, 1, 38, 47
3, 135184, Note_on_c, 1, 33, 0
3, 135552, Note_on_c, 1, 54, 68
3, 135600, Note_on_c, 1, 54, 0
3, 135680, Note_on_c, 1, 52, 19
3, 135696, Note_on_c, 1, 52, 0
3, 135776, Note_on_c, 1, 50, 48
3, 136040, Note_on_c, 1, 50, 0
3, 136064, Note_on_c, 1, 45, 48
3, 136120, Note_on_c, 1, 45, 0
3, 136160, Note_on_c, 1, 43, 45
3, 136232, Note_on_c, 1, 43, 0
3, 136248, Note_on_c, 1, 38, 0
3, 136288, Note_on_c, 1, 42, 56
3, 136384, Note_on_c, 1, 42, 0
3, 136400, Note_on_c, 1, 38, 47
3, 136504, Note_on_c, 1, 38, 0
3, 136536, Note_on_c, 1, 37, 43
3, 136672, Note_on_c, 1, 37, 0
3, 136688, Note_on_c, 1, 38, 56
3, 136936, Note_on_c, 1, 38, 0
3, 136952, Note_on_c, 1, 41, 36
3, 137040, Note_on_c, 1, 41, 0
3, 137080, Note_on_c, 1, 45, 41
3, 137304, Note_on_c, 1, 45, 0
3, 137464, Note_on_c, 1, 48, 70
3, 137848, Note_on_c, 1, 48, 0
3, 137848, Note_on_c, 1, 43, 47
3, 138104, Note_on_c, 1, 38, 38
3, 138128, Note_on_c, 1, 38, 0
3, 138224, Note_on_c, 1, 35, 45
3, 138376, Note_on_c, 1, 43, 0
3, 138624, Note_on_c, 1, 47, 55
3, 138672, Note_on_c, 1, 35, 0
3, 138880, Note_on_c, 1, 35, 26
3, 138952, Note_on_c, 1, 35, 0
3, 139000, Note_on_c, 1, 40, 56
3, 139392, Note_on_c, 1, 47, 0
3, 139392, Note_on_c, 1, 34, 55
3, 139400, Note_on_c, 1, 40, 0
3, 139784, Note_on_c, 1, 34, 0
3, 139784, Note_on_c, 1, 33, 43
3, 140048, Note_on_c, 1, 48, 89
3, 140128, Note_on_c, 1, 48, 0
3, 140168, Note_on_c, 1, 45, 37
3, 140184, Note_on_c, 1, 33, 0
3, 140416, Note_on_c, 1, 33, 40
3, 140448, Note_on_c, 1, 33, 0
3, 140528, Note_on_c, 1, 45, 0
3, 140536, Note_on_c, 1, 44, 48
3, 140792, Note_on_c, 1, 39, 27
3, 140808, Note_on_c, 1, 39, 0
3, 140912, Note_on_c, 1, 32, 59
3, 140936, Note_on_c, 1, 44, 0
3, 141168, Note_on_c, 1, 39, 20
3, 141280, Note_on_c, 1, 39, 0
3, 141280, Note_on_c, 1, 32, 0
3, 141312, Note_on_c, 1, 31, 50
3, 141688, Note_on_c, 1, 38, 55
3, 141736, Note_on_c, 1, 31, 0
3, 141928, Note_on_c, 1, 38, 0
3, 141944, Note_on_c, 1, 35, 43
3, 142016, Note_on_c, 1, 35, 0
3, 142056, Note_on_c, 1, 36, 51
3, 142312, Note_on_c, 1, 48, 99
3, 142480, Note_on_c, 1, 36, 0
3, 142552, Note_on_c, 1, 48, 0
3, 142560, Note_on_c, 1, 45, 43
3, 142592, Note_on_c, 1, 45, 0
3, 142680, Note_on_c, 1, 40, 44
3, 142784, Note_on_c, 1, 40, 0
3, 142816, Note_on_c, 1, 41, 53
3, 143064, Note_on_c, 1, 36, 50
3, 143080, Note_on_c, 1, 41, 0
3, 143152, Note_on_c, 1, 36, 0
3, 143192, Note_on_c, 1, 33, 39
3, 143600, Note_on_c, 1, 41, 54
3, 143608, Note_on_c, 1, 33, 0
3, 143984, Note_on_c, 1, 41, 0
3, 143984, Note_on_c, 1, 40, 50
3, 144336, Note_on_c, 1, 40, 0
3, 144352, Note_on_c, 1, 41, 53
3, 144600, Note_on_c, 1, 36, 55
3, 144648, Note_on_c, 1, 36, 0
3, 144728, Note_on_c, 1, 32, 65
3, 144784, Note_on_c, 1, 41, 0
3, 145120, Note_on_c, 1, 32, 0
3, 145128, Note_on_c, 1, 41, 68
3, 145392, Note_on_c, 1, 36, 43
3, 145432, Note_on_c, 1, 41, 0
3, 145456, Note_on_c, 1, 36, 0
3, 145512, Note_on_c, 1, 35, 52
3, 145880, Note_on_c, 1, 35, 0
3, 145896, Note_on_c, 1, 36, 51
3, 146160, Note_on_c, 1, 48, 92
3, 146344, Note_on_c, 1, 36, 0
3, 146552, Note_on_c, 1, 36, 35
3, 146632, Note_on_c, 1, 36, 0
3, 146664, Note_on_c, 1, 48, 0
3, 146672, Note_on_c, 1, 47, 61
3, 146936, Note_on_c, 1, 35, 60
3, 146992, Note_on_c, 1, 35, 0
3, 147080, Note_on_c, 1, 35, 44
3, 147120, Note_on_c, 1, 35, 0
3, 147320, Note_on_c, 1, 35, 61
3, 147424, Note_on_c, 1, 35, 0
3, 147448, Note_on_c, 1, 34, 43
3, 147480, Note_on_c, 1, 47, 0
3, 147712, Note_on_c, 1, 44, 26
3, 147776, Note_on_c, 1, 44, 0
3, 147832, Note_on_c, 1, 46, 67
3, 147904, Note_on_c, 1, 34, 0
3, 148056, Note_on_c, 1, 46, 0
3, 148080, Note_on_c, 1, 44, 37
3, 148168, Note_on_c, 1, 44, 0
3, 148216, Note_on_c, 1, 45, 50
3, 148456, Note_on_c, 1, 40, 68
3, 148528, Note_on_c, 1, 40, 0
3, 148608, Note_on_c, 1, 33, 60
3, 148816, Note_on_c, 1, 33, 0
3, 148832, Note_on_c, 1, 37, 72
3, 148960, Note_on_c, 1, 37, 0
3, 148968, Note_on_c, 1, 45, 0
3, 148968, Note_on_c, 1, 38, 49
3, 149176, Note_on_c, 1, 38, 0
3, 149224, Note_on_c, 1, 38, 66
3, 149296, Note_on_c, 1, 38, 0
3, 149352, Note_on_c, 1, 40, 54
3, 149720, Note_on_c, 1, 40, 0
3, 149752, Note_on_c, 1, 41, 54
3, 150104, Note_on_c, 1, 41, 0
3, 150136, Note_on_c, 1, 42, 51
3, 150520, Note_on_c, 1, 42, 0
3, 150520, Note_on_c, 1, 43, 60
3, 150760, Note_on_c, 1, 38, 41
3, 150832, Note_on_c, 1, 38, 0
3, 150888, Note_on_c, 1, 43, 0
3, 150888, Note_on_c, 1, 31, 59
3, 151264, Note_on_c, 1, 31, 0
3, 151280, Note_on_c, 1, 43, 56
3, 151536, Note_on_c, 1, 38, 40
3, 151552, Note_on_c, 1, 38, 0
3, 151648, Note_on_c, 1, 31, 68
3, 151928, Note_on_c, 1, 43, 0
3, 152024, Note_on_c, 1, 43, 57
3, 152064, Note_on_c, 1, 31, 0
3, 152400, Note_on_c, 1, 31, 64
3, 152552, Note_on_c, 1, 43, 0
3, 152792, Note_on_c, 1, 43, 70
3, 152856, Note_on_c, 1, 31, 0
3, 153040, Note_on_c, 1, 36, 55
3, 153072, Note_on_c, 1, 36, 0
3, 153176, Note_on_c, 1, 31, 68
3, 153312, Note_on_c, 1, 43, 0
3, 153568, Note_on_c, 1, 43, 71
3, 153576, Note_on_c, 1, 31, 0
3, 153824, Note_on_c, 1, 38, 52
3, 153840, Note_on_c, 1, 38, 0
3, 153952, Note_on_c, 1, 31, 67
3, 154192, Note_on_c, 1, 31, 0
3, 154224, Note_on_c, 1, 34, 78
3, 154672, Note_on_c, 1, 43, 0
3, 154744, Note_on_c, 1, 34, 0
3, 154744, Note_on_c, 1, 35, 40
3, 155000, Note_on_c, 1, 34, 33
3, 155048, Note_on_c, 1, 35, 0
3, 155080, Note_on_c, 1, 34, 0
3, 155136, Note_on_c, 1, 36, 22
3, 155384, Note_on_c, 1, 50, 74
3, 155584, Note_on_c, 1, 36, 0
3, 155672, Note_on_c, 1, 48, 73
3, 155776, Note_on_c, 1, 50, 0
3, 155784, Note_on_c, 1, 36, 54
3, 155824, Note_on_c, 1, 36, 0
3, 155896, Note_on_c, 1, 48, 0
3, 155912, Note_on_c, 1, 47, 58
3, 156280, Note_on_c, 1, 35, 58
3, 156640, Note_on_c, 1, 35, 0
3, 156656, Note_on_c, 1, 34, 47
3, 156744, Note_on_c, 1, 47, 0
3, 157040, Note_on_c, 1, 46, 78
3, 157136, Note_on_c, 1, 34, 0
3, 157392, Note_on_c, 1, 46, 0
3, 157408, Note_on_c, 1, 45, 48
3, 157656, Note_on_c, 1, 40, 53
3, 157736, Note_on_c, 1, 40, 0
3, 157808, Note_on_c, 1, 33, 15
3, 158048, Note_on_c, 1, 37, 55
3, 158072, Note_on_c, 1, 33, 0
3, 158136, Note_on_c, 1, 37, 0
3, 158160, Note_on_c, 1, 38, 41
3, 158184, Note_on_c, 1, 45, 0
3, 158432, Note_on_c, 1, 37, 18
3, 158480, Note_on_c, 1, 37, 0
3, 158560, Note_on_c, 1, 50, 74
3, 158632, Note_on_c, 1, 38, 0
3, 158960, Note_on_c, 1, 44, 59
3, 158968, Note_on_c, 1, 50, 0
3, 159328, Note_on_c, 1, 38, 52
3, 159336, Note_on_c, 1, 44, 0
3, 159712, Note_on_c, 1, 38, 0
3, 159712, Note_on_c, 1, 32, 62
3, 160104, Note_on_c, 1, 32, 0
3, 160112, Note_on_c, 1, 33, 64
3, 160488, Note_on_c, 1, 38, 58
3, 160528, Note_on_c, 1, 33, 0
3, 160736, Note_on_c, 1, 33, 52
3, 160768, Note_on_c, 1, 33, 0
3, 160824, Note_on_c, 1, 38, 0
3, 160856, Note_on_c, 1, 37, 67
3, 161248, Note_on_c, 1, 37, 0
3, 161264, Note_on_c, 1, 38, 54
3, 161632, Note_on_c, 1, 38, 0
3, 161640, Note_on_c, 1, 45, 54
3, 161896, Note_on_c, 1, 45, 0
3, 161896, Note_on_c, 1, 41, 37
3, 162000, Note_on_c, 1, 41, 0
3, 162016, Note_on_c, 1, 48, 65
3, 162392, Note_on_c, 1, 45, 63
3, 162728, Note_on_c, 1, 48, 0
3, 162760, Note_on_c, 1, 45, 0
3, 162784, Note_on_c, 1, 47, 63
3, 163184, Note_on_c, 1, 47, 0
3, 163184, Note_on_c, 1, 41, 61
3, 163560, Note_on_c, 1, 41, 0
3, 163592, Note_on_c, 1, 40, 43
3, 163984, Note_on_c, 1, 40, 0
3, 163984, Note_on_c, 1, 34, 52
3, 164336, Note_on_c, 1, 34, 0
3, 164344, Note_on_c, 1, 33, 58
3, 164720, Note_on_c, 1, 45, 76
3, 165096, Note_on_c, 1, 45, 0
3, 165096, Note_on_c, 1, 33, 0
3, 165096, Note_on_c, 1, 44, 57
3, 165344, Note_on_c, 1, 33, 58
3, 165384, Note_on_c, 1, 33, 0
3, 165464, Note_on_c, 1, 32, 73
3, 165856, Note_on_c, 1, 44, 0
3, 165864, Note_on_c, 1, 32, 0
3, 165864, Note_on_c, 1, 31, 58
3, 166104, Note_on_c, 1, 32, 20
3, 166232, Note_on_c, 1, 32, 0
3, 166256, Note_on_c, 1, 43, 73
3, 166336, Note_on_c, 1, 31, 0
3, 166496, Note_on_c, 1, 43, 0
3, 166504, Note_on_c, 1, 35, 79
3, 166616, Note_on_c, 1, 35, 0
3, 166632, Note_on_c, 1, 36, 42
3, 166888, Note_on_c, 1, 34, 26
3, 166952, Note_on_c, 1, 34, 0
3, 167008, Note_on_c, 1, 48, 67
3, 167056, Note_on_c, 1, 48, 0
3, 167072, Note_on_c, 1, 36, 0
3, 167112, Note_on_c, 1, 39, 47
3, 167184, Note_on_c, 1, 39, 0
3, 167256, Note_on_c, 1, 40, 33
3, 167376, Note_on_c, 1, 40, 0
3, 167392, Note_on_c, 1, 41, 51
3, 167656, Note_on_c, 1, 50, 83
3, 167744, Note_on_c, 1, 50, 0
3, 167768, Note_on_c, 1, 41, 0
3, 167792, Note_on_c, 1, 48, 39
3, 168048, Note_on_c, 1, 41, 35
3, 168064, Note_on_c, 1, 41, 0
3, 168176, Note_on_c, 1, 48, 0
3, 168184, Note_on_c, 1, 45, 49
3, 168568, Note_on_c, 1, 41, 46
3, 168600, Note_on_c, 1, 45, 0
3, 168624, Note_on_c, 1, 41, 0
3, 168704, Note_on_c, 1, 36, 25
3, 168720, Note_on_c, 1, 36, 0
3, 168800, Note_on_c, 1, 33, 54
3, 168936, Note_on_c, 1, 33, 0
3, 168944, Note_on_c, 1, 32, 57
3, 169328, Note_on_c, 1, 36, 58
3, 169344, Note_on_c, 1, 32, 0
3, 169576, Note_on_c, 1, 41, 26
3, 169592, Note_on_c, 1, 41, 0
3, 169712, Note_on_c, 1, 44, 69
3, 169752, Note_on_c, 1, 36, 0
3, 169944, Note_on_c, 1, 36, 62
3, 170016, Note_on_c, 1, 36, 0
3, 170040, Note_on_c, 1, 44, 0
3, 170080, Note_on_c, 1, 32, 64
3, 170432, Note_on_c, 1, 32, 0
3, 170480, Note_on_c, 1, 31, 51
3, 170880, Note_on_c, 1, 43, 57
3, 171048, Note_on_c, 1, 31, 0
3, 171264, Note_on_c, 1, 38, 53
3, 171272, Note_on_c, 1, 43, 0
3, 171640, Note_on_c, 1, 45, 75
3, 171672, Note_on_c, 1, 38, 0
3, 171904, Note_on_c, 1, 43, 64
3, 171912, Note_on_c, 1, 45, 0
3, 172184, Note_on_c, 1, 38, 52
3, 172216, Note_on_c, 1, 38, 0
3, 172288, Note_on_c, 1, 37, 61
3, 172376, Note_on_c, 1, 37, 0
3, 172416, Note_on_c, 1, 36, 58
3, 172432, Note_on_c, 1, 43, 0
3, 172664, Note_on_c, 1, 40, 65
3, 172704, Note_on_c, 1, 40, 0
3, 172792, Note_on_c, 1, 45, 69
3, 172856, Note_on_c, 1, 36, 0
3, 173040, Note_on_c, 1, 36, 48
3, 173064, Note_on_c, 1, 36, 0
3, 173168, Note_on_c, 1, 45, 0
3, 173168, Note_on_c, 1, 43, 48
3, 173208, Note_on_c, 1, 43, 0
3, 173280, Note_on_c, 1, 36, 44
3, 173304, Note_on_c, 1, 36, 0
3, 173408, Note_on_c, 1, 31, 60
3, 173512, Note_on_c, 1, 31, 0
3, 173544, Note_on_c, 1, 30, 56
3, 173944, Note_on_c, 1, 40, 59
3, 173976, Note_on_c, 1, 30, 0
3, 174192, Note_on_c, 1, 40, 0
3, 174192, Note_on_c, 1, 34, 46
3, 174288, Note_on_c, 1, 34, 0
3, 174328, Note_on_c, 1, 35, 37
3, 174552, Note_on_c, 1, 47, 30
3, 174576, Note_on_c, 1, 47, 0
3, 174584, Note_on_c, 1, 34, 21
3, 174624, Note_on_c, 1, 34, 0
3, 174704, Note_on_c, 1, 47, 87
3, 174712, Note_on_c, 1, 35, 0
3, 174960, Note_on_c, 1, 35, 50
3, 174992, Note_on_c, 1, 35, 0
3, 175080, Note_on_c, 1, 47, 0
3, 175088, Note_on_c, 1, 42, 59
3, 175328, Note_on_c, 1, 36, 67
3, 175368, Note_on_c, 1, 36, 0
3, 175456, Note_on_c, 1, 35, 60
3, 175656, Note_on_c, 1, 35, 0
3, 175704, Note_on_c, 1, 30, 60
3, 175760, Note_on_c, 1, 30, 0
3, 175840, Note_on_c, 1, 35, 73
3, 176120, Note_on_c, 1, 42, 0
3, 176232, Note_on_c, 1, 47, 66
3, 176256, Note_on_c, 1, 35, 0
3, 176344, Note_on_c, 1, 38, 47
3, 176376, Note_on_c, 1, 47, 0
3, 176424, Note_on_c, 1, 38, 0
3, 176480, Note_on_c, 1, 39, 52
3, 176600, Note_on_c, 1, 39, 0
3, 176608, Note_on_c, 1, 40, 57
3, 177000, Note_on_c, 1, 47, 74
3, 177144, Note_on_c, 1, 40, 0
3, 177256, Note_on_c, 1, 38, 33
3, 177304, Note_on_c, 1, 38, 0
3, 177360, Note_on_c, 1, 47, 0
3, 177392, Note_on_c, 1, 45, 40
3, 177440, Note_on_c, 1, 45, 0
3, 177624, Note_on_c, 1, 40, 54
3, 177736, Note_on_c, 1, 40, 0
3, 177744, Note_on_c, 1, 33, 50
3, 178008, Note_on_c, 1, 37, 32
3, 178016, Note_on_c, 1, 33, 0
3, 178112, Note_on_c, 1, 37, 0
3, 178144, Note_on_c, 1, 38, 43
3, 178416, Note_on_c, 1, 37, 23
3, 178488, Note_on_c, 1, 38, 0
3, 178512, Note_on_c, 1, 37, 0
3, 178536, Note_on_c, 1, 45, 68
3, 178624, Note_on_c, 1, 45, 0
3, 178640, Note_on_c, 1, 44, 55
3, 178920, Note_on_c, 1, 44, 0
3, 178928, Note_on_c, 1, 43, 62
3, 178984, Note_on_c, 1, 43, 0
3, 179048, Note_on_c, 1, 38, 49
3, 179296, Note_on_c, 1, 38, 0
3, 179304, Note_on_c, 1, 35, 55
3, 179712, Note_on_c, 1, 36, 57
3, 179720, Note_on_c, 1, 35, 0
3, 180096, Note_on_c, 1, 48, 88
3, 180184, Note_on_c, 1, 36, 0
3, 180464, Note_on_c, 1, 48, 0
3, 180472, Note_on_c, 1, 47, 57
3, 180864, Note_on_c, 1, 47, 0
3, 180864, Note_on_c, 1, 35, 60
3, 181120, Note_on_c, 1, 41, 73
3, 181208, Note_on_c, 1, 41, 0
3, 181256, Note_on_c, 1, 46, 60
3, 181288, Note_on_c, 1, 35, 0
3, 181624, Note_on_c, 1, 40, 67
3, 181704, Note_on_c, 1, 46, 0
3, 181872, Note_on_c, 1, 34, 68
3, 181960, Note_on_c, 1, 34, 0
3, 181960, Note_on_c, 1, 40, 0
3, 182000, Note_on_c, 1, 33, 59
3, 182280, Note_on_c, 1, 33, 0
3, 182376, Note_on_c, 1, 39, 68
3, 182640, Note_on_c, 1, 37, 43
3, 182704, Note_on_c, 1, 39, 0
3, 182736, Note_on_c, 1, 37, 0
3, 182760, Note_on_c, 1, 38, 50
3, 183136, Note_on_c, 1, 38, 0
3, 183144, Note_on_c, 1, 45, 56
3, 183488, Note_on_c, 1, 45, 0
3, 183512, Note_on_c, 1, 51, 39
3, 183864, Note_on_c, 1, 51, 0
3, 183904, Note_on_c, 1, 50, 59
3, 184264, Note_on_c, 1, 50, 0
3, 184304, Note_on_c, 1, 48, 64
3, 184656, Note_on_c, 1, 48, 0
3, 184680, Note_on_c, 1, 45, 40
3, 184936, Note_on_c, 1, 37, 68
3, 184984, Note_on_c, 1, 45, 0
3, 185064, Note_on_c, 1, 38, 54
3, 185072, Note_on_c, 1, 37, 0
3, 185296, Note_on_c, 1, 45, 44
3, 185320, Note_on_c, 1, 45, 0
3, 185440, Note_on_c, 1, 50, 66
3, 185480, Note_on_c, 1, 38, 0
3, 185688, Note_on_c, 1, 50, 0
3, 185688, Note_on_c, 1, 37, 52
3, 185792, Note_on_c, 1, 37, 0
3, 185816, Note_on_c, 1, 38, 50
3, 186080, Note_on_c, 1, 45, 38
3, 186104, Note_on_c, 1, 45, 0
3, 186200, Note_on_c, 1, 50, 48
3, 186232, Note_on_c, 1, 50, 0
3, 186304, Note_on_c, 1, 52, 47
3, 186344, Note_on_c, 1, 52, 0
3, 186432, Note_on_c, 1, 50, 69
3, 186608, Note_on_c, 1, 38, 0
3, 186832, Note_on_c, 1, 38, 60
3, 186880, Note_on_c, 1, 38, 0
3, 186984, Note_on_c, 1, 48, 69
3, 187240, Note_on_c, 1, 45, 38
3, 187288, Note_on_c, 1, 48, 0
3, 187352, Note_on_c, 1, 45, 0
3, 187368, Note_on_c, 1, 50, 0
3, 187384, Note_on_c, 1, 47, 50
3, 187624, Note_on_c, 1, 41, 71
3, 187672, Note_on_c, 1, 41, 0
3, 187752, Note_on_c, 1, 38, 52
3, 187992, Note_on_c, 1, 47, 0
3, 188128, Note_on_c, 1, 38, 0
3, 188144, Note_on_c, 1, 40, 53
3, 188520, Note_on_c, 1, 32, 59
3, 188528, Note_on_c, 1, 40, 0
3, 188920, Note_on_c, 1, 32, 0
3, 188920, Note_on_c, 1, 33, 57
3, 189312, Note_on_c, 1, 45, 67
3, 189360, Note_on_c, 1, 33, 0
3, 189688, Note_on_c, 1, 45, 0
3, 189688, Note_on_c, 1, 44, 49
3, 190056, Note_on_c, 1, 32, 69
3, 190088, Note_on_c, 1, 44, 0
3, 190464, Note_on_c, 1, 32, 0
3, 190464, Note_on_c, 1, 31, 51
3, 190712, Note_on_c, 1, 43, 80
3, 190800, Note_on_c, 1, 43, 0
3, 191072, Note_on_c, 1, 39, 54
3, 191144, Note_on_c, 1, 31, 0
3, 191160, Note_on_c, 1, 39, 0
3, 191208, Note_on_c, 1, 40, 45
3, 191400, Note_on_c, 1, 40, 0
3, 191440, Note_on_c, 1, 36, 90
3, 191840, Note_on_c, 1, 43, 87
3, 191944, Note_on_c, 1, 43, 0
3, 191968, Note_on_c, 1, 36, 0
3, 191968, Note_on_c, 1, 41, 35
3, 192224, Note_on_c, 1, 36, 53
3, 192304, Note_on_c, 1, 36, 0
3, 192312, Note_on_c, 1, 41, 0
3, 192344, Note_on_c, 1, 33, 47
3, 192752, Note_on_c, 1, 43, 56
3, 192808, Note_on_c, 1, 33, 0
3, 193016, Note_on_c, 1, 36, 19
3, 193072, Note_on_c, 1, 43, 0
3, 193112, Note_on_c, 1, 36, 0
3, 193136, Note_on_c, 1, 41, 53
3, 193384, Note_on_c, 1, 36, 39
3, 193432, Note_on_c, 1, 36, 0
3, 193512, Note_on_c, 1, 32, 43
3, 193544, Note_on_c, 1, 41, 0
3, 193768, Note_on_c, 1, 36, 32
3, 193800, Note_on_c, 1, 36, 0
3, 193888, Note_on_c, 1, 44, 65
3, 194144, Note_on_c, 1, 36, 27
3, 194176, Note_on_c, 1, 36, 0
3, 194272, Note_on_c, 1, 43, 50
3, 194296, Note_on_c, 1, 32, 0
3, 194320, Note_on_c, 1, 44, 0
3, 194528, Note_on_c, 1, 36, 38
3, 194544, Note_on_c, 1, 36, 0
3, 194656, Note_on_c, 1, 43, 0
3, 194664, Note_on_c, 1, 41, 51
3, 194784, Note_on_c, 1, 34, 30
3, 194840, Note_on_c, 1, 34, 0
3, 194896, Note_on_c, 1, 35, 53
3, 194968, Note_on_c, 1, 41, 0
3, 195024, Note_on_c, 1, 35, 0
3, 195040, Note_on_c, 1, 36, 52
3, 195424, Note_on_c, 1, 48, 99
3, 195512, Note_on_c, 1, 36, 0
3, 195704, Note_on_c, 1, 33, 24
3, 195712, Note_on_c, 1, 35, 30
3, 195720, Note_on_c, 1, 33, 0
3, 195736, Note_on_c, 1, 35, 0
3, 195816, Note_on_c, 1, 48, 0
3, 195816, Note_on_c, 1, 47, 59
3, 196200, Note_on_c, 1, 35, 64
3, 196248, Note_on_c, 1, 47, 0
3, 196576, Note_on_c, 1, 35, 0
3, 196584, Note_on_c, 1, 34, 53
3, 196824, Note_on_c, 1, 43, 35
3, 196848, Note_on_c, 1, 43, 0
3, 196952, Note_on_c, 1, 46, 76
3, 197088, Note_on_c, 1, 34, 0
3, 197336, Note_on_c, 1, 46, 0
3, 197344, Note_on_c, 1, 45, 53
3, 197408, Note_on_c, 1, 45, 0
3, 197456, Note_on_c, 1, 40, 67
3, 197688, Note_on_c, 1, 40, 0
3, 197728, Note_on_c, 1, 39, 54
3, 198016, Note_on_c, 1, 37, 26
3, 198024, Note_on_c, 1, 39, 0
3, 198096, Note_on_c, 1, 37, 0
3, 198120, Note_on_c, 1, 38, 52
3, 198528, Note_on_c, 1, 45, 56
3, 198808, Note_on_c, 1, 37, 25
3, 198856, Note_on_c, 1, 37, 0
3, 198888, Note_on_c, 1, 45, 0
3, 198904, Note_on_c, 1, 54, 71
3, 198936, Note_on_c, 1, 38, 0
3, 199152, Note_on_c, 1, 54, 0
3, 199152, Note_on_c, 1, 38, 46
3, 199280, Note_on_c, 1, 45, 45
3, 199304, Note_on_c, 1, 38, 0
3, 199416, Note_on_c, 1, 45, 0
3, 199528, Note_on_c, 1, 44, 62
3, 199648, Note_on_c, 1, 44, 0
3, 199664, Note_on_c, 1, 43, 52
3, 199904, Note_on_c, 1, 38, 54
3, 199976, Note_on_c, 1, 43, 0
3, 200000, Note_on_c, 1, 38, 0
3, 200032, Note_on_c, 1, 31, 61
3, 200288, Note_on_c, 1, 38, 46
3, 200312, Note_on_c, 1, 38, 0
3, 200424, Note_on_c, 1, 43, 82
3, 200472, Note_on_c, 1, 43, 0
3, 200672, Note_on_c, 1, 42, 74
3, 200776, Note_on_c, 1, 42, 0
3, 200800, Note_on_c, 1, 41, 58
3, 200896, Note_on_c, 1, 31, 0
3, 201072, Note_on_c, 1, 33, 26
3, 201120, Note_on_c, 1, 33, 0
3, 201168, Note_on_c, 1, 41, 0
3, 201192, Note_on_c, 1, 40, 63
3, 201552, Note_on_c, 1, 40, 0
3, 201584, Note_on_c, 1, 40, 66
3, 201848, Note_on_c, 1, 34, 80
3, 202224, Note_on_c, 1, 31, 55
3, 202240, Note_on_c, 1, 34, 0
3, 202248, Note_on_c, 1, 40, 0
3, 202320, Note_on_c, 1, 31, 0
3, 202352, Note_on_c, 1, 32, 59
3, 202576, Note_on_c, 1, 32, 0
3, 202600, Note_on_c, 1, 33, 71
3, 203136, Note_on_c, 1, 33, 0
3, 203144, Note_on_c, 1, 35, 57
3, 203416, Note_on_c, 1, 33, 27
3, 203472, Note_on_c, 1, 33, 0
3, 203488, Note_on_c, 1, 35, 0
3, 203504, Note_on_c, 1, 36, 47
3, 203792, Note_on_c, 1, 33, 24
3, 203824, Note_on_c, 1, 33, 0
3, 203848, Note_on_c, 1, 36, 0
3, 203880, Note_on_c, 1, 37, 44
3, 204144, Note_on_c, 1, 34, 29
3, 204224, Note_on_c, 1, 37, 0
3, 204248, Note_on_c, 1, 34, 0
3, 204248, Note_on_c, 1, 38, 43
3, 204648, Note_on_c, 1, 45, 39
3, 204896, Note_on_c, 1, 37, 25
3, 204952, Note_on_c, 1, 37, 0
3, 204952, Note_on_c, 1, 38, 0
3, 205040, Note_on_c, 1, 52, 66
3, 205392, Note_on_c, 1, 45, 0
3, 205584, Note_on_c, 1, 52, 0
3, 205688, Note_on_c, 1, 44, 68
3, 205776, Note_on_c, 1, 44, 0
3, 205808, Note_on_c, 1, 43, 51
3, 205840, Note_on_c, 1, 43, 0
3, 206064, Note_on_c, 1, 31, 84
3, 206824, Note_on_c, 1, 34, 64
3, 206840, Note_on_c, 1, 31, 0
3, 206928, Note_on_c, 1, 34, 0
3, 206952, Note_on_c, 1, 35, 47
3, 207208, Note_on_c, 1, 35, 0
3, 207208, Note_on_c, 1, 34, 25
3, 207320, Note_on_c, 1, 34, 0
3, 207344, Note_on_c, 1, 36, 63
3, 207856, Note_on_c, 1, 38, 32
3, 207888, Note_on_c, 1, 38, 0
3, 207976, Note_on_c, 1, 39, 59
3, 208064, Note_on_c, 1, 36, 0
3, 208104, Note_on_c, 1, 39, 0
3, 208120, Note_on_c, 1, 40, 71
3, 208264, Note_on_c, 1, 40, 0
3, 208736, Note_on_c, 1, 40, 58
3, 208864, Note_on_c, 1, 40, 0
3, 208864, Note_on_c, 1, 41, 68
3, 209656, Note_on_c, 1, 42, 70
3, 209688, Note_on_c, 1, 41, 0
3, 210272, Note_on_c, 1, 43, 81
3, 210280, Note_on_c, 1, 45, 55
3, 210296, Note_on_c, 1, 42, 0
3, 210304, Note_on_c, 1, 45, 0
3, 210408, Note_on_c, 1, 43, 0
3, 211976, Note_on_c, 1, 31, 63
3, 212200, Note_on_c, 1, 31, 0
3, 212224, Note_on_c, 1, 34, 34
3, 212336, Note_on_c, 1, 34, 0
3, 212360, Note_on_c, 1, 35, 36
3, 212592, Note_on_c, 1, 35, 0
3, 212600, Note_on_c, 1, 36, 74
3, 214016, Note_on_c, 1, 36, 0
3, 214016, System_exclusive, 8, 67, 115, 1, 17, 1, 87, 127, 247
3, 214016, End_track
4, 0, Start_track
4, 0, MIDI_port, 0
4, 0, Note_on_c, 9, 32, 56
4, 0, Program_c, 9, 0
4, 128, Note_on_c, 9, 32, 0
4, 384, Note_on_c, 9, 44, 112
4, 384, Note_on_c, 9, 32, 55
4, 512, Note_on_c, 9, 32, 0
4, 768, Note_on_c, 9, 44, 0
4, 768, Note_on_c, 9, 32, 48
4, 896, Note_on_c, 9, 32, 0
4, 1152, Note_on_c, 9, 44, 117
4, 1152, Note_on_c, 9, 32, 64
4, 1280, Note_on_c, 9, 32, 0
4, 1417, Note_on_c, 9, 35, 48
4, 1480, Note_on_c, 9, 35, 0
4, 1536, Note_on_c, 9, 44, 0
4, 1536, Note_on_c, 9, 51, 47
4, 1550, Note_on_c, 9, 35, 45
4, 1664, Note_on_c, 9, 51, 0
4, 1677, Note_on_c, 9, 35, 0
4, 1920, Note_on_c, 9, 44, 114
4, 2174, Note_on_c, 9, 35, 45
4, 2176, Note_on_c, 9, 51, 48
4, 2202, Note_on_c, 9, 35, 0
4, 2304, Note_on_c, 9, 51, 0
4, 2304, Note_on_c, 9, 44, 0
4, 2304, Note_on_c, 9, 51, 35
4, 2432, Note_on_c, 9, 51, 0
4, 2688, Note_on_c, 9, 44, 115
4, 2944, Note_on_c, 9, 51, 55
4, 3072, Note_on_c, 9, 51, 0
4, 3072, Note_on_c, 9, 44, 0
4, 3072, Note_on_c, 9, 51, 53
4, 3098, Note_on_c, 9, 35, 7
4, 3141, Note_on_c, 9, 35, 0
4, 3200, Note_on_c, 9, 51, 0
4, 3342, Note_on_c, 9, 40, 42
4, 3376, Note_on_c, 9, 40, 0
4, 3456, Note_on_c, 9, 44, 109
4, 3712, Note_on_c, 9, 51, 53
4, 3721, Note_on_c, 9, 39, 27
4, 3749, Note_on_c, 9, 40, 24
4, 3750, Note_on_c, 9, 39, 0
4, 3785, Note_on_c, 9, 40, 0
4, 3840, Note_on_c, 9, 51, 0
4, 3840, Note_on_c, 9, 44, 0
4, 3840, Note_on_c, 9, 51, 42
4, 3968, Note_on_c, 9, 51, 0
4, 4104, Note_on_c, 9, 40, 61
4, 4138, Note_on_c, 9, 40, 0
4, 4224, Note_on_c, 9, 44, 112
4, 4480, Note_on_c, 9, 51, 48
4, 4482, Note_on_c, 9, 40, 58
4, 4510, Note_on_c, 9, 40, 0
4, 4590, Note_on_c, 9, 35, 39
4, 4608, Note_on_c, 9, 51, 0
4, 4608, Note_on_c, 9, 44, 0
4, 4608, Note_on_c, 9, 51, 39
4, 4624, Note_on_c, 9, 35, 0
4, 4736, Note_on_c, 9, 51, 0
4, 4992, Note_on_c, 9, 44, 111
4, 5248, Note_on_c, 9, 51, 59
4, 5271, Note_on_c, 9, 35, 39
4, 5304, Note_on_c, 9, 35, 0
4, 5376, Note_on_c, 9, 51, 0
4, 5376, Note_on_c, 9, 44, 0
4, 5376, Note_on_c, 9, 51, 44
4, 5399, Note_on_c, 9, 35, 34
4, 5436, Note_on_c, 9, 35, 0
4, 5504, Note_on_c, 9, 51, 0
4, 5760, Note_on_c, 9, 44, 114
4, 6016, Note_on_c, 9, 51, 34
4, 6041, Note_on_c, 9, 35, 13
4, 6073, Note_on_c, 9, 35, 0
4, 6144, Note_on_c, 9, 51, 0
4, 6144, Note_on_c, 9, 44, 0
4, 6144, Note_on_c, 9, 51, 47
4, 6159, Note_on_c, 9, 35, 30
4, 6208, Note_on_c, 9, 35, 0
4, 6272, Note_on_c, 9, 51, 0
4, 6528, Note_on_c, 9, 44, 108
4, 6784, Note_on_c, 9, 51, 50
4, 6793, Note_on_c, 9, 40, 22
4, 6830, Note_on_c, 9, 40, 0
4, 6912, Note_on_c, 9, 51, 0
4, 6912, Note_on_c, 9, 44, 0
4, 6912, Note_on_c, 9, 51, 38
4, 7040, Note_on_c, 9, 51, 0
4, 7168, Note_on_c, 9, 54, 75
4, 7185, Note_on_c, 9, 40, 39
4, 7214, Note_on_c, 9, 40, 0
4, 7296, Note_on_c, 9, 54, 0
4, 7296, Note_on_c, 9, 44, 116
4, 7296, Note_on_c, 9, 51, 42
4, 7424, Note_on_c, 9, 51, 0
4, 7471, Note_on_c, 9, 40, 57
4, 7552, Note_on_c, 9, 51, 56
4, 7602, Note_on_c, 9, 40, 0
4, 7634, Note_on_c, 9, 35, 40
4, 7639, Note_on_c, 9, 36, 40
4, 7665, Note_on_c, 9, 57, 56
4, 7667, Note_on_c, 9, 36, 0
4, 7680, Note_on_c, 9, 51, 0
4, 7680, Note_on_c, 9, 44, 0
4, 7680, Note_on_c, 9, 51, 59
4, 7707, Note_on_c, 9, 57, 0
4, 7772, Note_on_c, 9, 35, 0
4, 7808, Note_on_c, 9, 51, 0
4, 8064, Note_on_c, 9, 44, 113
4, 8320, Note_on_c, 9, 51, 50
4, 8328, Note_on_c, 9, 35, 15
4, 8369, Note_on_c, 9, 35, 0
4, 8448, Note_on_c, 9, 51, 0
4, 8448, Note_on_c, 9, 44, 0
4, 8448, Note_on_c, 9, 51, 39
4, 8456, Note_on_c, 9, 35, 34
4, 8487, Note_on_c, 9, 35, 0
4, 8576, Note_on_c, 9, 51, 0
4, 8704, Note_on_c, 9, 53, 80
4, 8832, Note_on_c, 9, 53, 0
4, 8832, Note_on_c, 9, 44, 117
4, 8832, Note_on_c, 9, 51, 49
4, 8960, Note_on_c, 9, 51, 0
4, 9088, Note_on_c, 9, 53, 80
4, 9098, Note_on_c, 9, 35, 36
4, 9130, Note_on_c, 9, 35, 0
4, 9216, Note_on_c, 9, 53, 0
4, 9216, Note_on_c, 9, 44, 0
4, 9216, Note_on_c, 9, 51, 47
4, 9344, Note_on_c, 9, 51, 0
4, 9600, Note_on_c, 9, 44, 115
4, 9856, Note_on_c, 9, 51, 55
4, 9984, Note_on_c, 9, 51, 0
4, 9984, Note_on_c, 9, 44, 0
4, 9984, Note_on_c, 9, 51, 51
4, 10112, Note_on_c, 9, 51, 0
4, 10368, Note_on_c, 9, 44, 111
4, 10624, Note_on_c, 9, 51, 65
4, 10752, Note_on_c, 9, 51, 0
4, 10752, Note_on_c, 9, 44, 0
4, 10752, Note_on_c, 9, 51, 59
4, 10880, Note_on_c, 9, 51, 0
4, 11136, Note_on_c, 9, 44, 115
4, 11141, Note_on_c, 9, 37, 38
4, 11198, Note_on_c, 9, 37, 0
4, 11392, Note_on_c, 9, 51, 60
4, 11520, Note_on_c, 9, 51, 0
4, 11520, Note_on_c, 9, 44, 0
4, 11520, Note_on_c, 9, 51, 57
4, 11648, Note_on_c, 9, 51, 0
4, 11887, Note_on_c, 9, 37, 67
4, 11904, Note_on_c, 9, 46, 111
4, 12013, Note_on_c, 9, 37, 0
4, 12160, Note_on_c, 9, 51, 57
4, 12288, Note_on_c, 9, 51, 0
4, 12288, Note_on_c, 9, 46, 0
4, 12288, Note_on_c, 9, 51, 61
4, 12416, Note_on_c, 9, 51, 0
4, 12661, Note_on_c, 9, 37, 63
4, 12672, Note_on_c, 9, 44, 104
4, 12780, Note_on_c, 9, 37, 0
4, 12928, Note_on_c, 9, 51, 64
4, 13056, Note_on_c, 9, 51, 0
4, 13056, Note_on_c, 9, 44, 0
4, 13056, Note_on_c, 9, 51, 62
4, 13312, Note_on_c, 9, 51, 0
4, 13440, Note_on_c, 9, 44, 108
4, 13696, Note_on_c, 9, 51, 70
4, 13696, Note_on_c, 9, 35, 66
4, 13760, Note_on_c, 9, 35, 0
4, 13824, Note_on_c, 9, 51, 0
4, 13824, Note_on_c, 9, 44, 0
4, 13824, Note_on_c, 9, 51, 68
4, 13833, Note_on_c, 9, 35, 55
4, 13934, Note_on_c, 9, 35, 0
4, 13952, Note_on_c, 9, 51, 0
4, 14208, Note_on_c, 9, 44, 112
4, 14208, Note_on_c, 9, 51, 52
4, 14336, Note_on_c, 9, 51, 0
4, 14592, Note_on_c, 9, 44, 0
4, 14592, Note_on_c, 9, 51, 60
4, 14720, Note_on_c, 9, 51, 0
4, 14976, Note_on_c, 9, 44, 117
4, 14976, Note_on_c, 9, 51, 52
4, 15104, Note_on_c, 9, 51, 0
4, 15218, Note_on_c, 9, 40, 47
4, 15232, Note_on_c, 9, 51, 58
4, 15248, Note_on_c, 9, 40, 0
4, 15323, Note_on_c, 9, 35, 30
4, 15360, Note_on_c, 9, 51, 0
4, 15360, Note_on_c, 9, 44, 0
4, 15360, Note_on_c, 9, 51, 59
4, 15366, Note_on_c, 9, 35, 0
4, 15616, Note_on_c, 9, 51, 0
4, 15744, Note_on_c, 9, 44, 114
4, 15744, Note_on_c, 9, 51, 73
4, 16000, Note_on_c, 9, 51, 0
4, 16128, Note_on_c, 9, 44, 0
4, 16128, Note_on_c, 9, 51, 71
4, 16384, Note_on_c, 9, 51, 0
4, 16512, Note_on_c, 9, 44, 115
4, 16512, Note_on_c, 9, 51, 77
4, 16680, Note_on_c, 9, 40, 45
4, 16709, Note_on_c, 9, 40, 0
4, 16762, Note_on_c, 9, 34, 44
4, 16768, Note_on_c, 9, 51, 0
4, 16768, Note_on_c, 9, 51, 42
4, 16791, Note_on_c, 9, 34, 0
4, 16792, Note_on_c, 9, 35, 43
4, 16827, Note_on_c, 9, 35, 0
4, 16895, Note_on_c, 9, 40, 55
4, 16896, Note_on_c, 9, 51, 0
4, 16896, Note_on_c, 9, 44, 0
4, 16896, Note_on_c, 9, 51, 60
4, 16929, Note_on_c, 9, 40, 0
4, 17152, Note_on_c, 9, 51, 0
4, 17280, Note_on_c, 9, 44, 109
4, 17280, Note_on_c, 9, 51, 80
4, 17536, Note_on_c, 9, 51, 0
4, 17664, Note_on_c, 9, 44, 0
4, 17664, Note_on_c, 9, 51, 49
4, 17792, Note_on_c, 9, 51, 0
4, 17792, Note_on_c, 9, 51, 72
4, 17920, Note_on_c, 9, 51, 0
4, 18048, Note_on_c, 9, 44, 112
4, 18048, Note_on_c, 9, 51, 83
4, 18304, Note_on_c, 9, 51, 0
4, 18432, Note_on_c, 9, 44, 0
4, 18432, Note_on_c, 9, 51, 78
4, 18688, Note_on_c, 9, 51, 0
4, 18816, Note_on_c, 9, 44, 111
4, 18816, Note_on_c, 9, 51, 79
4, 19072, Note_on_c, 9, 51, 0
4, 19072, Note_on_c, 9, 51, 53
4, 19200, Note_on_c, 9, 51, 0
4, 19200, Note_on_c, 9, 44, 0
4, 19200, Note_on_c, 9, 51, 76
4, 19456, Note_on_c, 9, 51, 0
4, 19460, Note_on_c, 9, 40, 54
4, 19500, Note_on_c, 9, 40, 0
4, 19584, Note_on_c, 9, 44, 114
4, 19584, Note_on_c, 9, 51, 74
4, 19737, Note_on_c, 9, 40, 59
4, 19781, Note_on_c, 9, 40, 0
4, 19829, Note_on_c, 9, 34, 49
4, 19840, Note_on_c, 9, 51, 0
4, 19922, Note_on_c, 9, 34, 0
4, 19956, Note_on_c, 9, 35, 46
4, 19968, Note_on_c, 9, 44, 0
4, 19968, Note_on_c, 9, 51, 65
4, 20085, Note_on_c, 9, 35, 0
4, 20224, Note_on_c, 9, 51, 0
4, 20224, Note_on_c, 9, 53, 70
4, 20352, Note_on_c, 9, 53, 0
4, 20352, Note_on_c, 9, 44, 108
4, 20352, Note_on_c, 9, 51, 52
4, 20608, Note_on_c, 9, 51, 0
4, 20736, Note_on_c, 9, 44, 0
4, 20736, Note_on_c, 9, 51, 56
4, 20988, Note_on_c, 9, 40, 46
4, 20992, Note_on_c, 9, 51, 0
4, 21032, Note_on_c, 9, 40, 0
4, 21120, Note_on_c, 9, 44, 116
4, 21120, Note_on_c, 9, 51, 60
4, 21124, Note_on_c, 9, 35, 16
4, 21183, Note_on_c, 9, 35, 0
4, 21376, Note_on_c, 9, 51, 0
4, 21504, Note_on_c, 9, 44, 0
4, 21504, Note_on_c, 9, 51, 71
4, 21760, Note_on_c, 9, 51, 0
4, 21888, Note_on_c, 9, 44, 113
4, 21888, Note_on_c, 9, 51, 71
4, 22016, Note_on_c, 9, 51, 0
4, 22144, Note_on_c, 9, 51, 46
4, 22272, Note_on_c, 9, 51, 0
4, 22272, Note_on_c, 9, 44, 0
4, 22272, Note_on_c, 9, 51, 68
4, 22528, Note_on_c, 9, 51, 0
4, 22656, Note_on_c, 9, 44, 117
4, 22656, Note_on_c, 9, 51, 79
4, 22910, Note_on_c, 9, 40, 7
4, 22912, Note_on_c, 9, 51, 0
4, 22912, Note_on_c, 9, 51, 56
4, 22939, Note_on_c, 9, 40, 0
4, 23040, Note_on_c, 9, 51, 0
4, 23040, Note_on_c, 9, 44, 0
4, 23040, Note_on_c, 9, 51, 74
4, 23066, Note_on_c, 9, 40, 24
4, 23102, Note_on_c, 9, 40, 0
4, 23295, Note_on_c, 9, 40, 33
4, 23296, Note_on_c, 9, 51, 0
4, 23330, Note_on_c, 9, 40, 0
4, 23424, Note_on_c, 9, 44, 115
4, 23424, Note_on_c, 9, 51, 77
4, 23462, Note_on_c, 9, 40, 25
4, 23499, Note_on_c, 9, 40, 0
4, 23680, Note_on_c, 9, 51, 0
4, 23691, Note_on_c, 9, 35, 35
4, 23776, Note_on_c, 9, 35, 0
4, 23808, Note_on_c, 9, 44, 0
4, 23808, Note_on_c, 9, 51, 83
4, 24064, Note_on_c, 9, 51, 0
4, 24064, Note_on_c, 9, 51, 59
4, 24192, Note_on_c, 9, 51, 0
4, 24192, Note_on_c, 9, 44, 111
4, 24192, Note_on_c, 9, 51, 80
4, 24433, Note_on_c, 9, 31, 40
4, 24448, Note_on_c, 9, 51, 0
4, 24510, Note_on_c, 9, 31, 0
4, 24576, Note_on_c, 9, 44, 0
4, 24576, Note_on_c, 9, 51, 83
4, 24832, Note_on_c, 9, 51, 0
4, 24846, Note_on_c, 9, 31, 29
4, 24884, Note_on_c, 9, 31, 0
4, 24960, Note_on_c, 9, 44, 115
4, 24960, Note_on_c, 9, 51, 82
4, 25214, Note_on_c, 9, 31, 37
4, 25216, Note_on_c, 9, 51, 0
4, 25265, Note_on_c, 9, 31, 0
4, 25344, Note_on_c, 9, 44, 0
4, 25344, Note_on_c, 9, 51, 81
4, 25599, Note_on_c, 9, 31, 48
4, 25600, Note_on_c, 9, 51, 0
4, 25600, Note_on_c, 9, 51, 62
4, 25666, Note_on_c, 9, 31, 0
4, 25728, Note_on_c, 9, 51, 0
4, 25728, Note_on_c, 9, 46, 111
4, 25728, Note_on_c, 9, 51, 80
4, 25974, Note_on_c, 9, 31, 67
4, 25984, Note_on_c, 9, 51, 0
4, 26026, Note_on_c, 9, 31, 0
4, 26099, Note_on_c, 9, 35, 46
4, 26112, Note_on_c, 9, 46, 0
4, 26112, Note_on_c, 9, 51, 79
4, 26229, Note_on_c, 9, 35, 0
4, 26368, Note_on_c, 9, 51, 0
4, 26496, Note_on_c, 9, 44, 104
4, 26496, Note_on_c, 9, 51, 78
4, 26752, Note_on_c, 9, 51, 0
4, 26880, Note_on_c, 9, 44, 0
4, 26880, Note_on_c, 9, 51, 77
4, 27136, Note_on_c, 9, 51, 0
4, 27264, Note_on_c, 9, 44, 108
4, 27264, Note_on_c, 9, 51, 77
4, 27520, Note_on_c, 9, 51, 0
4, 27520, Note_on_c, 9, 51, 48
4, 27648, Note_on_c, 9, 51, 0
4, 27648, Note_on_c, 9, 44, 0
4, 27648, Note_on_c, 9, 51, 72
4, 27904, Note_on_c, 9, 51, 0
4, 28032, Note_on_c, 9, 44, 112
4, 28032, Note_on_c, 9, 51, 73
4, 28288, Note_on_c, 9, 51, 0
4, 28416, Note_on_c, 9, 44, 0
4, 28416, Note_on_c, 9, 51, 67
4, 28672, Note_on_c, 9, 51, 0
4, 28672, Note_on_c, 9, 51, 37
4, 28685, Note_on_c, 9, 40, 34
4, 28726, Note_on_c, 9, 40, 0
4, 28800, Note_on_c, 9, 51, 0
4, 28800, Note_on_c, 9, 44, 117
4, 28800, Note_on_c, 9, 51, 70
4, 28941, Note_on_c, 9, 40, 55
4, 28976, Note_on_c, 9, 40, 0
4, 29049, Note_on_c, 9, 34, 52
4, 29056, Note_on_c, 9, 51, 0
4, 29165, Note_on_c, 9, 34, 0
4, 29184, Note_on_c, 9, 44, 0
4, 29184, Note_on_c, 9, 51, 75
4, 29184, Note_on_c, 9, 35, 56
4, 29294, Note_on_c, 9, 35, 0
4, 29440, Note_on_c, 9, 51, 0
4, 29440, Note_on_c, 9, 51, 55
4, 29568, Note_on_c, 9, 51, 0
4, 29568, Note_on_c, 9, 44, 114
4, 29568, Note_on_c, 9, 51, 77
4, 29824, Note_on_c, 9, 51, 0
4, 29824, Note_on_c, 9, 53, 81
4, 29952, Note_on_c, 9, 53, 0
4, 29952, Note_on_c, 9, 44, 0
4, 29952, Note_on_c, 9, 51, 64
4, 30084, Note_on_c, 9, 40, 54
4, 30113, Note_on_c, 9, 40, 0
4, 30207, Note_on_c, 9, 34, 39
4, 30208, Note_on_c, 9, 51, 0
4, 30306, Note_on_c, 9, 34, 0
4, 30336, Note_on_c, 9, 44, 115
4, 30336, Note_on_c, 9, 51, 60
4, 30344, Note_on_c, 9, 35, 52
4, 30480, Note_on_c, 9, 35, 0
4, 30592, Note_on_c, 9, 51, 0
4, 30720, Note_on_c, 9, 44, 0
4, 30720, Note_on_c, 9, 51, 59
4, 30976, Note_on_c, 9, 51, 0
4, 31104, Note_on_c, 9, 44, 109
4, 31104, Note_on_c, 9, 51, 68
4, 31360, Note_on_c, 9, 51, 0
4, 31360, Note_on_c, 9, 51, 61
4, 31366, Note_on_c, 9, 35, 57
4, 31438, Note_on_c, 9, 35, 0
4, 31488, Note_on_c, 9, 51, 0
4, 31488, Note_on_c, 9, 44, 0
4, 31488, Note_on_c, 9, 51, 65
4, 31499, Note_on_c, 9, 35, 49
4, 31602, Note_on_c, 9, 35, 0
4, 31744, Note_on_c, 9, 51, 0
4, 31872, Note_on_c, 9, 44, 112
4, 31872, Note_on_c, 9, 51, 75
4, 32119, Note_on_c, 9, 35, 69
4, 32128, Note_on_c, 9, 51, 0
4, 32128, Note_on_c, 9, 51, 59
4, 32231, Note_on_c, 9, 35, 0
4, 32256, Note_on_c, 9, 51, 0
4, 32256, Note_on_c, 9, 44, 0
4, 32256, Note_on_c, 9, 51, 77
4, 32284, Note_on_c, 9, 35, 47
4, 32372, Note_on_c, 9, 35, 0
4, 32512, Note_on_c, 9, 51, 0
4, 32640, Note_on_c, 9, 44, 111
4, 32640, Note_on_c, 9, 51, 70
4, 32887, Note_on_c, 9, 35, 39
4, 32896, Note_on_c, 9, 51, 0
4, 32925, Note_on_c, 9, 35, 0
4, 33024, Note_on_c, 9, 44, 0
4, 33024, Note_on_c, 9, 51, 76
4, 33280, Note_on_c, 9, 51, 0
4, 33408, Note_on_c, 9, 44, 114
4, 33408, Note_on_c, 9, 51, 76
4, 33654, Note_on_c, 9, 35, 39
4, 33664, Note_on_c, 9, 51, 0
4, 33664, Note_on_c, 9, 51, 54
4, 33714, Note_on_c, 9, 35, 0
4, 33791, Note_on_c, 9, 35, 32
4, 33792, Note_on_c, 9, 51, 0
4, 33792, Note_on_c, 9, 44, 0
4, 33792, Note_on_c, 9, 51, 77
4, 33867, Note_on_c, 9, 35, 0
4, 34048, Note_on_c, 9, 51, 0
4, 34176, Note_on_c, 9, 44, 108
4, 34176, Note_on_c, 9, 51, 77
4, 34408, Note_on_c, 9, 35, 36
4, 34432, Note_on_c, 9, 51, 0
4, 34432, Note_on_c, 9, 51, 45
4, 34444, Note_on_c, 9, 35, 0
4, 34560, Note_on_c, 9, 51, 0
4, 34560, Note_on_c, 9, 44, 0
4, 34560, Note_on_c, 9, 51, 68
4, 34816, Note_on_c, 9, 51, 0
4, 34944, Note_on_c, 9, 44, 116
4, 34944, Note_on_c, 9, 51, 77
4, 35183, Note_on_c, 9, 35, 29
4, 35200, Note_on_c, 9, 51, 0
4, 35200, Note_on_c, 9, 51, 64
4, 35224, Note_on_c, 9, 35, 0
4, 35318, Note_on_c, 9, 35, 9
4, 35328, Note_on_c, 9, 51, 0
4, 35328, Note_on_c, 9, 44, 0
4, 35328, Note_on_c, 9, 51, 67
4, 35347, Note_on_c, 9, 35, 0
4, 35456, Note_on_c, 9, 51, 0
4, 35456, Note_on_c, 9, 51, 67
4, 35584, Note_on_c, 9, 51, 0
4, 35712, Note_on_c, 9, 44, 113
4, 35712, Note_on_c, 9, 51, 83
4, 35968, Note_on_c, 9, 51, 0
4, 35971, Note_on_c, 9, 35, 33
4, 36005, Note_on_c, 9, 35, 0
4, 36096, Note_on_c, 9, 44, 0
4, 36096, Note_on_c, 9, 51, 72
4, 36224, Note_on_c, 9, 51, 0
4, 36224, Note_on_c, 9, 51, 69
4, 36352, Note_on_c, 9, 51, 0
4, 36480, Note_on_c, 9, 44, 117
4, 36608, Note_on_c, 9, 51, 80
4, 36736, Note_on_c, 9, 51, 0
4, 36774, Note_on_c, 9, 35, 49
4, 36825, Note_on_c, 9, 35, 0
4, 36864, Note_on_c, 9, 44, 0
4, 36864, Note_on_c, 9, 51, 58
4, 36942, Note_on_c, 9, 35, 7
4, 36970, Note_on_c, 9, 35, 0
4, 36992, Note_on_c, 9, 51, 0
4, 36992, Note_on_c, 9, 51, 74
4, 37120, Note_on_c, 9, 51, 0
4, 37248, Note_on_c, 9, 44, 115
4, 37248, Note_on_c, 9, 51, 79
4, 37504, Note_on_c, 9, 51, 0
4, 37537, Note_on_c, 9, 35, 28
4, 37577, Note_on_c, 9, 35, 0
4, 37632, Note_on_c, 9, 44, 0
4, 37632, Note_on_c, 9, 51, 75
4, 37760, Note_on_c, 9, 51, 0
4, 37932, Note_on_c, 9, 40, 62
4, 37973, Note_on_c, 9, 40, 0
4, 38016, Note_on_c, 9, 44, 111
4, 38016, Note_on_c, 9, 51, 76
4, 38144, Note_on_c, 9, 51, 0
4, 38215, Note_on_c, 9, 40, 69
4, 38266, Note_on_c, 9, 40, 0
4, 38272, Note_on_c, 9, 51, 60
4, 38326, Note_on_c, 9, 40, 54
4, 38371, Note_on_c, 9, 40, 0
4, 38400, Note_on_c, 9, 51, 0
4, 38400, Note_on_c, 9, 44, 0
4, 38400, Note_on_c, 9, 51, 69
4, 38442, Note_on_c, 9, 35, 52
4, 38550, Note_on_c, 9, 35, 0
4, 38656, Note_on_c, 9, 51, 0
4, 38784, Note_on_c, 9, 44, 115
4, 38784, Note_on_c, 9, 51, 76
4, 39040, Note_on_c, 9, 51, 0
4, 39168, Note_on_c, 9, 44, 0
4, 39168, Note_on_c, 9, 51, 71
4, 39296, Note_on_c, 9, 51, 0
4, 39456, Note_on_c, 9, 35, 31
4, 39491, Note_on_c, 9, 35, 0
4, 39552, Note_on_c, 9, 46, 111
4, 39552, Note_on_c, 9, 51, 77
4, 39586, Note_on_c, 9, 35, 29
4, 39643, Note_on_c, 9, 35, 0
4, 39680, Note_on_c, 9, 51, 0
4, 39808, Note_on_c, 9, 51, 44
4, 39831, Note_on_c, 9, 35, 68
4, 39927, Note_on_c, 9, 35, 0
4, 39936, Note_on_c, 9, 51, 0
4, 39936, Note_on_c, 9, 46, 0
4, 39936, Note_on_c, 9, 51, 69
4, 40064, Note_on_c, 9, 51, 0
4, 40320, Note_on_c, 9, 44, 104
4, 40320, Note_on_c, 9, 51, 77
4, 40448, Note_on_c, 9, 51, 0
4, 40602, Note_on_c, 9, 35, 26
4, 40639, Note_on_c, 9, 35, 0
4, 40704, Note_on_c, 9, 44, 0
4, 40704, Note_on_c, 9, 51, 72
4, 40832, Note_on_c, 9, 51, 0
4, 41088, Note_on_c, 9, 44, 108
4, 41088, Note_on_c, 9, 51, 70
4, 41216, Note_on_c, 9, 51, 0
4, 41344, Note_on_c, 9, 51, 61
4, 41353, Note_on_c, 9, 34, 41
4, 41433, Note_on_c, 9, 34, 0
4, 41453, Note_on_c, 9, 57, 29
4, 41459, Note_on_c, 9, 35, 53
4, 41472, Note_on_c, 9, 51, 0
4, 41472, Note_on_c, 9, 44, 0
4, 41472, Note_on_c, 9, 51, 77
4, 41488, Note_on_c, 9, 57, 0
4, 41564, Note_on_c, 9, 35, 0
4, 41600, Note_on_c, 9, 51, 0
4, 41856, Note_on_c, 9, 44, 112
4, 41856, Note_on_c, 9, 51, 79
4, 41984, Note_on_c, 9, 51, 0
4, 42240, Note_on_c, 9, 44, 0
4, 42240, Note_on_c, 9, 51, 52
4, 42240, Note_on_c, 9, 51, 71
4, 42368, Note_on_c, 9, 51, 0
4, 42496, Note_on_c, 9, 51, 0
4, 42526, Note_on_c, 9, 34, 49
4, 42609, Note_on_c, 9, 34, 0
4, 42624, Note_on_c, 9, 44, 117
4, 42624, Note_on_c, 9, 51, 80
4, 42652, Note_on_c, 9, 57, 59
4, 42659, Note_on_c, 9, 35, 56
4, 42719, Note_on_c, 9, 57, 0
4, 42752, Note_on_c, 9, 51, 0
4, 42816, Note_on_c, 9, 35, 0
4, 43008, Note_on_c, 9, 44, 0
4, 43008, Note_on_c, 9, 51, 67
4, 43264, Note_on_c, 9, 51, 0
4, 43392, Note_on_c, 9, 44, 114
4, 43392, Note_on_c, 9, 51, 73
4, 43520, Note_on_c, 9, 51, 0
4, 43648, Note_on_c, 9, 51, 64
4, 43671, Note_on_c, 9, 35, 41
4, 43699, Note_on_c, 9, 35, 0
4, 43776, Note_on_c, 9, 51, 0
4, 43776, Note_on_c, 9, 44, 0
4, 43776, Note_on_c, 9, 51, 69
4, 43794, Note_on_c, 9, 35, 34
4, 43866, Note_on_c, 9, 35, 0
4, 44032, Note_on_c, 9, 51, 0
4, 44160, Note_on_c, 9, 44, 115
4, 44160, Note_on_c, 9, 51, 81
4, 44288, Note_on_c, 9, 51, 0
4, 44415, Note_on_c, 9, 35, 56
4, 44416, Note_on_c, 9, 51, 49
4, 44483, Note_on_c, 9, 35, 0
4, 44544, Note_on_c, 9, 51, 0
4, 44544, Note_on_c, 9, 44, 0
4, 44544, Note_on_c, 9, 51, 67
4, 44556, Note_on_c, 9, 35, 35
4, 44613, Note_on_c, 9, 35, 0
4, 44800, Note_on_c, 9, 51, 0
4, 44928, Note_on_c, 9, 44, 109
4, 44928, Note_on_c, 9, 51, 74
4, 45184, Note_on_c, 9, 51, 0
4, 45312, Note_on_c, 9, 44, 0
4, 45312, Note_on_c, 9, 51, 71
4, 45568, Note_on_c, 9, 51, 0
4, 45696, Note_on_c, 9, 44, 112
4, 45696, Note_on_c, 9, 51, 72
4, 45751, Note_on_c, 9, 39, 5
4, 45789, Note_on_c, 9, 39, 0
4, 45952, Note_on_c, 9, 51, 0
4, 45952, Note_on_c, 9, 51, 40
4, 46080, Note_on_c, 9, 51, 0
4, 46080, Note_on_c, 9, 44, 0
4, 46080, Note_on_c, 9, 51, 69
4, 46336, Note_on_c, 9, 51, 0
4, 46464, Note_on_c, 9, 44, 111
4, 46464, Note_on_c, 9, 51, 77
4, 46720, Note_on_c, 9, 51, 0
4, 46723, Note_on_c, 9, 40, 40
4, 46752, Note_on_c, 9, 40, 0
4, 46848, Note_on_c, 9, 44, 0
4, 46848, Note_on_c, 9, 51, 74
4, 46869, Note_on_c, 9, 40, 29
4, 46907, Note_on_c, 9, 40, 0
4, 47104, Note_on_c, 9, 51, 0
4, 47104, Note_on_c, 9, 51, 52
4, 47125, Note_on_c, 9, 40, 46
4, 47155, Note_on_c, 9, 40, 0
4, 47232, Note_on_c, 9, 51, 0
4, 47232, Note_on_c, 9, 44, 114
4, 47232, Note_on_c, 9, 51, 82
4, 47488, Note_on_c, 9, 51, 0
4, 47505, Note_on_c, 9, 40, 59
4, 47556, Note_on_c, 9, 40, 0
4, 47616, Note_on_c, 9, 44, 0
4, 47616, Note_on_c, 9, 51, 77
4, 47673, Note_on_c, 9, 40, 53
4, 47708, Note_on_c, 9, 40, 0
4, 47872, Note_on_c, 9, 51, 0
4, 47906, Note_on_c, 9, 40, 60
4, 47941, Note_on_c, 9, 40, 0
4, 48000, Note_on_c, 9, 44, 108
4, 48000, Note_on_c, 9, 51, 74
4, 48256, Note_on_c, 9, 51, 0
4, 48256, Note_on_c, 9, 51, 55
4, 48384, Note_on_c, 9, 51, 0
4, 48384, Note_on_c, 9, 44, 0
4, 48384, Note_on_c, 9, 51, 73
4, 48640, Note_on_c, 9, 51, 0
4, 48768, Note_on_c, 9, 44, 116
4, 48768, Note_on_c, 9, 51, 74
4, 49024, Note_on_c, 9, 51, 0
4, 49024, Note_on_c, 9, 51, 52
4, 49152, Note_on_c, 9, 51, 0
4, 49152, Note_on_c, 9, 44, 0
4, 49152, Note_on_c, 9, 51, 65
4, 49408, Note_on_c, 9, 51, 0
4, 49536, Note_on_c, 9, 44, 113
4, 49536, Note_on_c, 9, 51, 62
4, 49792, Note_on_c, 9, 51, 0
4, 49801, Note_on_c, 9, 34, 40
4, 49912, Note_on_c, 9, 34, 0
4, 49920, Note_on_c, 9, 44, 0
4, 49920, Note_on_c, 9, 51, 45
4, 49933, Note_on_c, 9, 35, 20
4, 49971, Note_on_c, 9, 35, 0
4, 50048, Note_on_c, 9, 51, 0
4, 50048, Note_on_c, 9, 51, 50
4, 50176, Note_on_c, 9, 51, 0
4, 50179, Note_on_c, 9, 35, 42
4, 50292, Note_on_c, 9, 35, 0
4, 50304, Note_on_c, 9, 44, 117
4, 50304, Note_on_c, 9, 51, 77
4, 50560, Note_on_c, 9, 51, 0
4, 50571, Note_on_c, 9, 34, 52
4, 50666, Note_on_c, 9, 34, 0
4, 50688, Note_on_c, 9, 44, 0
4, 50688, Note_on_c, 9, 51, 63
4, 50726, Note_on_c, 9, 35, 23
4, 50770, Note_on_c, 9, 35, 0
4, 50816, Note_on_c, 9, 51, 0
4, 51072, Note_on_c, 9, 44, 115
4, 51072, Note_on_c, 9, 51, 72
4, 51200, Note_on_c, 9, 51, 0
4, 51344, Note_on_c, 9, 35, 19
4, 51380, Note_on_c, 9, 35, 0
4, 51450, Note_on_c, 9, 40, 21
4, 51456, Note_on_c, 9, 44, 0
4, 51456, Note_on_c, 9, 51, 63
4, 51578, Note_on_c, 9, 40, 0
4, 51584, Note_on_c, 9, 51, 0
4, 51696, Note_on_c, 9, 40, 30
4, 51730, Note_on_c, 9, 40, 0
4, 51840, Note_on_c, 9, 44, 111
4, 51840, Note_on_c, 9, 51, 70
4, 51968, Note_on_c, 9, 51, 0
4, 52096, Note_on_c, 9, 51, 49
4, 52109, Note_on_c, 9, 35, 43
4, 52137, Note_on_c, 9, 35, 0
4, 52224, Note_on_c, 9, 51, 0
4, 52224, Note_on_c, 9, 44, 0
4, 52224, Note_on_c, 9, 51, 64
4, 52480, Note_on_c, 9, 51, 0
4, 52608, Note_on_c, 9, 44, 115
4, 52608, Note_on_c, 9, 51, 71
4, 52864, Note_on_c, 9, 51, 0
4, 52913, Note_on_c, 9, 35, 34
4, 52948, Note_on_c, 9, 35, 0
4, 52992, Note_on_c, 9, 44, 0
4, 52992, Note_on_c, 9, 51, 64
4, 53023, Note_on_c, 9, 35, 28
4, 53076, Note_on_c, 9, 35, 0
4, 53120, Note_on_c, 9, 51, 0
4, 53376, Note_on_c, 9, 46, 111
4, 53376, Note_on_c, 9, 51, 65
4, 53504, Note_on_c, 9, 51, 0
4, 53632, Note_on_c, 9, 51, 46
4, 53655, Note_on_c, 9, 35, 43
4, 53685, Note_on_c, 9, 35, 0
4, 53760, Note_on_c, 9, 51, 0
4, 53760, Note_on_c, 9, 46, 0
4, 53760, Note_on_c, 9, 51, 61
4, 54016, Note_on_c, 9, 51, 0
4, 54144, Note_on_c, 9, 44, 104
4, 54144, Note_on_c, 9, 51, 69
4, 54272, Note_on_c, 9, 51, 0
4, 54465, Note_on_c, 9, 35, 46
4, 54494, Note_on_c, 9, 35, 0
4, 54528, Note_on_c, 9, 44, 0
4, 54528, Note_on_c, 9, 51, 75
4, 54578, Note_on_c, 9, 35, 31
4, 54636, Note_on_c, 9, 35, 0
4, 54656, Note_on_c, 9, 51, 0
4, 54912, Note_on_c, 9, 44, 108
4, 54912, Note_on_c, 9, 51, 77
4, 55040, Note_on_c, 9, 51, 0
4, 55168, Note_on_c, 9, 51, 55
4, 55182, Note_on_c, 9, 35, 52
4, 55241, Note_on_c, 9, 35, 0
4, 55296, Note_on_c, 9, 51, 0
4, 55296, Note_on_c, 9, 44, 0
4, 55296, Note_on_c, 9, 51, 64
4, 55552, Note_on_c, 9, 51, 0
4, 55680, Note_on_c, 9, 44, 112
4, 55680, Note_on_c, 9, 51, 76
4, 55683, Note_on_c, 9, 29, 48
4, 55808, Note_on_c, 9, 51, 0
4, 55936, Note_on_c, 9, 51, 55
4, 56064, Note_on_c, 9, 51, 0
4, 56064, Note_on_c, 9, 44, 0
4, 56064, Note_on_c, 9, 51, 70
4, 56192, Note_on_c, 9, 51, 0
4, 56448, Note_on_c, 9, 44, 117
4, 56448, Note_on_c, 9, 51, 78
4, 56576, Note_on_c, 9, 51, 0
4, 56716, Note_on_c, 9, 29, 0
4, 56726, Note_on_c, 9, 34, 72
4, 56776, Note_on_c, 9, 57, 65
4, 56831, Note_on_c, 9, 57, 0
4, 56832, Note_on_c, 9, 44, 0
4, 56832, Note_on_c, 9, 51, 69
4, 56878, Note_on_c, 9, 35, 77
4, 56920, Note_on_c, 9, 34, 0
4, 56960, Note_on_c, 9, 51, 0
4, 57088, Note_on_c, 9, 53, 80
4, 57183, Note_on_c, 9, 35, 0
4, 57216, Note_on_c, 9, 53, 0
4, 57216, Note_on_c, 9, 44, 114
4, 57216, Note_on_c, 9, 51, 39
4, 57472, Note_on_c, 9, 51, 0
4, 57522, Note_on_c, 9, 35, 55
4, 57552, Note_on_c, 9, 35, 0
4, 57600, Note_on_c, 9, 44, 0
4, 57600, Note_on_c, 9, 51, 74
4, 57649, Note_on_c, 9, 35, 30
4, 57683, Note_on_c, 9, 35, 0
4, 57728, Note_on_c, 9, 51, 0
4, 57984, Note_on_c, 9, 44, 115
4, 57984, Note_on_c, 9, 51, 72
4, 58112, Note_on_c, 9, 51, 0
4, 58258, Note_on_c, 9, 35, 42
4, 58286, Note_on_c, 9, 35, 0
4, 58368, Note_on_c, 9, 44, 0
4, 58368, Note_on_c, 9, 51, 73
4, 58496, Note_on_c, 9, 51, 0
4, 58752, Note_on_c, 9, 44, 109
4, 58752, Note_on_c, 9, 51, 79
4, 58880, Note_on_c, 9, 51, 0
4, 59008, Note_on_c, 9, 51, 53
4, 59136, Note_on_c, 9, 51, 0
4, 59136, Note_on_c, 9, 44, 0
4, 59136, Note_on_c, 9, 51, 64
4, 59392, Note_on_c, 9, 51, 0
4, 59515, Note_on_c, 9, 37, 78
4, 59520, Note_on_c, 9, 44, 112
4, 59520, Note_on_c, 9, 51, 79
4, 59639, Note_on_c, 9, 37, 0
4, 59648, Note_on_c, 9, 51, 0
4, 59776, Note_on_c, 9, 51, 50
4, 59904, Note_on_c, 9, 51, 0
4, 59904, Note_on_c, 9, 44, 0
4, 59904, Note_on_c, 9, 51, 75
4, 60160, Note_on_c, 9, 51, 0
4, 60288, Note_on_c, 9, 44, 111
4, 60288, Note_on_c, 9, 51, 80
4, 60544, Note_on_c, 9, 51, 0
4, 60544, Note_on_c, 9, 51, 51
4, 60562, Note_on_c, 9, 35, 21
4, 60600, Note_on_c, 9, 35, 0
4, 60672, Note_on_c, 9, 51, 0
4, 60672, Note_on_c, 9, 44, 0
4, 60672, Note_on_c, 9, 51, 67
4, 60928, Note_on_c, 9, 51, 0
4, 61048, Note_on_c, 9, 34, 43
4, 61056, Note_on_c, 9, 44, 114
4, 61056, Note_on_c, 9, 51, 81
4, 61119, Note_on_c, 9, 34, 0
4, 61312, Note_on_c, 9, 51, 0
4, 61440, Note_on_c, 9, 44, 0
4, 61440, Note_on_c, 9, 51, 50
4, 61440, Note_on_c, 9, 51, 64
4, 61568, Note_on_c, 9, 51, 0
4, 61696, Note_on_c, 9, 51, 0
4, 61824, Note_on_c, 9, 44, 108
4, 61824, Note_on_c, 9, 51, 75
4, 62080, Note_on_c, 9, 51, 0
4, 62208, Note_on_c, 9, 44, 0
4, 62208, Note_on_c, 9, 51, 76
4, 62464, Note_on_c, 9, 51, 0
4, 62492, Note_on_c, 9, 35, 9
4, 62521, Note_on_c, 9, 35, 0
4, 62581, Note_on_c, 9, 37, 72
4, 62592, Note_on_c, 9, 44, 116
4, 62592, Note_on_c, 9, 51, 76
4, 62720, Note_on_c, 9, 51, 0
4, 62785, Note_on_c, 9, 37, 0
4, 62842, Note_on_c, 9, 37, 40
4, 62907, Note_on_c, 9, 37, 0
4, 62976, Note_on_c, 9, 44, 0
4, 62976, Note_on_c, 9, 51, 38
4, 62976, Note_on_c, 9, 51, 64
4, 63104, Note_on_c, 9, 51, 0
4, 63232, Note_on_c, 9, 51, 0
4, 63360, Note_on_c, 9, 44, 113
4, 63360, Note_on_c, 9, 51, 72
4, 63373, Note_on_c, 9, 35, 42
4, 63416, Note_on_c, 9, 35, 0
4, 63488, Note_on_c, 9, 51, 0
4, 63488, Note_on_c, 9, 51, 74
4, 63616, Note_on_c, 9, 51, 0
4, 63744, Note_on_c, 9, 44, 0
4, 63744, Note_on_c, 9, 51, 78
4, 64000, Note_on_c, 9, 51, 0
4, 64128, Note_on_c, 9, 44, 117
4, 64128, Note_on_c, 9, 51, 75
4, 64256, Note_on_c, 9, 51, 0
4, 64398, Note_on_c, 9, 35, 29
4, 64433, Note_on_c, 9, 35, 0
4, 64504, Note_on_c, 9, 35, 36
4, 64512, Note_on_c, 9, 44, 0
4, 64512, Note_on_c, 9, 51, 67
4, 64567, Note_on_c, 9, 35, 0
4, 64640, Note_on_c, 9, 51, 0
4, 64896, Note_on_c, 9, 44, 115
4, 64896, Note_on_c, 9, 51, 71
4, 65024, Note_on_c, 9, 51, 0
4, 65152, Note_on_c, 9, 51, 51
4, 65173, Note_on_c, 9, 35, 33
4, 65206, Note_on_c, 9, 35, 0
4, 65280, Note_on_c, 9, 51, 0
4, 65280, Note_on_c, 9, 44, 0
4, 65280, Note_on_c, 9, 51, 75
4, 65536, Note_on_c, 9, 51, 0
4, 65664, Note_on_c, 9, 44, 111
4, 65664, Note_on_c, 9, 51, 71
4, 65792, Note_on_c, 9, 51, 0
4, 65947, Note_on_c, 9, 35, 10
4, 65977, Note_on_c, 9, 35, 0
4, 66048, Note_on_c, 9, 44, 0
4, 66048, Note_on_c, 9, 51, 74
4, 66176, Note_on_c, 9, 51, 0
4, 66432, Note_on_c, 9, 44, 115
4, 66432, Note_on_c, 9, 51, 72
4, 66560, Note_on_c, 9, 51, 0
4, 66816, Note_on_c, 9, 44, 0
4, 66816, Note_on_c, 9, 51, 74
4, 66944, Note_on_c, 9, 51, 0
4, 67200, Note_on_c, 9, 46, 111
4, 67200, Note_on_c, 9, 51, 76
4, 67328, Note_on_c, 9, 51, 0
4, 67456, Note_on_c, 9, 51, 74
4, 67486, Note_on_c, 9, 35, 20
4, 67524, Note_on_c, 9, 35, 0
4, 67584, Note_on_c, 9, 51, 0
4, 67584, Note_on_c, 9, 46, 0
4, 67584, Note_on_c, 9, 51, 74
4, 67596, Note_on_c, 9, 35, 21
4, 67675, Note_on_c, 9, 35, 0
4, 67712, Note_on_c, 9, 51, 0
4, 67968, Note_on_c, 9, 44, 104
4, 67968, Note_on_c, 9, 51, 74
4, 68096, Note_on_c, 9, 51, 0
4, 68224, Note_on_c, 9, 51, 69
4, 68245, Note_on_c, 9, 35, 44
4, 68276, Note_on_c, 9, 35, 0
4, 68352, Note_on_c, 9, 51, 0
4, 68352, Note_on_c, 9, 44, 0
4, 68352, Note_on_c, 9, 51, 83
4, 68480, Note_on_c, 9, 51, 0
4, 68736, Note_on_c, 9, 44, 108
4, 68736, Note_on_c, 9, 51, 75
4, 68864, Note_on_c, 9, 51, 0
4, 68992, Note_on_c, 9, 51, 74
4, 69120, Note_on_c, 9, 51, 0
4, 69120, Note_on_c, 9, 44, 0
4, 69120, Note_on_c, 9, 59, 87
4, 69376, Note_on_c, 9, 59, 0
4, 69504, Note_on_c, 9, 44, 112
4, 69504, Note_on_c, 9, 59, 85
4, 69760, Note_on_c, 9, 59, 0
4, 69888, Note_on_c, 9, 44, 0
4, 69888, Note_on_c, 9, 59, 80
4, 70144, Note_on_c, 9, 59, 0
4, 70158, Note_on_c, 9, 40, 57
4, 70197, Note_on_c, 9, 40, 0
4, 70272, Note_on_c, 9, 44, 117
4, 70272, Note_on_c, 9, 59, 73
4, 70272, Note_on_c, 9, 35, 32
4, 70340, Note_on_c, 9, 35, 0
4, 70528, Note_on_c, 9, 59, 0
4, 70528, Note_on_c, 9, 59, 57
4, 70543, Note_on_c, 9, 40, 58
4, 70603, Note_on_c, 9, 40, 0
4, 70656, Note_on_c, 9, 59, 0
4, 70656, Note_on_c, 9, 44, 0
4, 70656, Note_on_c, 9, 59, 81
4, 70669, Note_on_c, 9, 35, 22
4, 70766, Note_on_c, 9, 35, 0
4, 70912, Note_on_c, 9, 59, 0
4, 71040, Note_on_c, 9, 44, 114
4, 71040, Note_on_c, 9, 59, 89
4, 71296, Note_on_c, 9, 59, 0
4, 71296, Note_on_c, 9, 59, 60
4, 71318, Note_on_c, 9, 35, 38
4, 71351, Note_on_c, 9, 35, 0
4, 71424, Note_on_c, 9, 59, 0
4, 71424, Note_on_c, 9, 44, 0
4, 71424, Note_on_c, 9, 59, 62
4, 71448, Note_on_c, 9, 35, 15
4, 71537, Note_on_c, 9, 35, 0
4, 71680, Note_on_c, 9, 59, 0
4, 71680, Note_on_c, 9, 53, 82
4, 71808, Note_on_c, 9, 53, 0
4, 71808, Note_on_c, 9, 44, 115
4, 71808, Note_on_c, 9, 59, 63
4, 72044, Note_on_c, 9, 35, 35
4, 72064, Note_on_c, 9, 59, 0
4, 72079, Note_on_c, 9, 35, 0
4, 72162, Note_on_c, 9, 35, 23
4, 72192, Note_on_c, 9, 44, 0
4, 72192, Note_on_c, 9, 59, 75
4, 72220, Note_on_c, 9, 35, 0
4, 72320, Note_on_c, 9, 59, 0
4, 72576, Note_on_c, 9, 44, 109
4, 72576, Note_on_c, 9, 59, 77
4, 72704, Note_on_c, 9, 59, 0
4, 72832, Note_on_c, 9, 59, 53
4, 72960, Note_on_c, 9, 59, 0
4, 72960, Note_on_c, 9, 44, 0
4, 72960, Note_on_c, 9, 59, 69
4, 73216, Note_on_c, 9, 59, 0
4, 73344, Note_on_c, 9, 44, 112
4, 73344, Note_on_c, 9, 59, 88
4, 73600, Note_on_c, 9, 59, 0
4, 73600, Note_on_c, 9, 59, 59
4, 73728, Note_on_c, 9, 59, 0
4, 73728, Note_on_c, 9, 44, 0
4, 73728, Note_on_c, 9, 59, 72
4, 73984, Note_on_c, 9, 59, 0
4, 74112, Note_on_c, 9, 44, 111
4, 74112, Note_on_c, 9, 59, 85
4, 74368, Note_on_c, 9, 59, 0
4, 74368, Note_on_c, 9, 59, 43
4, 74496, Note_on_c, 9, 59, 0
4, 74496, Note_on_c, 9, 44, 0
4, 74496, Note_on_c, 9, 59, 82
4, 74513, Note_on_c, 9, 34, 29
4, 74548, Note_on_c, 9, 34, 0
4, 74624, Note_on_c, 9, 59, 0
4, 74880, Note_on_c, 9, 44, 114
4, 74880, Note_on_c, 9, 59, 87
4, 74893, Note_on_c, 9, 34, 57
4, 74948, Note_on_c, 9, 34, 0
4, 75136, Note_on_c, 9, 59, 0
4, 75182, Note_on_c, 9, 34, 76
4, 75236, Note_on_c, 9, 34, 0
4, 75264, Note_on_c, 9, 44, 0
4, 75264, Note_on_c, 9, 59, 80
4, 75284, Note_on_c, 9, 35, 1
4, 75423, Note_on_c, 9, 35, 0
4, 75520, Note_on_c, 9, 59, 0
4, 75648, Note_on_c, 9, 44, 108
4, 75648, Note_on_c, 9, 59, 83
4, 75904, Note_on_c, 9, 59, 0
4, 76032, Note_on_c, 9, 44, 0
4, 76032, Note_on_c, 9, 59, 44
4, 76160, Note_on_c, 9, 59, 0
4, 76160, Note_on_c, 9, 59, 76
4, 76288, Note_on_c, 9, 59, 0
4, 76416, Note_on_c, 9, 44, 116
4, 76416, Note_on_c, 9, 59, 80
4, 76416, Note_on_c, 9, 57, 50
4, 76544, Note_on_c, 9, 57, 0
4, 76672, Note_on_c, 9, 59, 0
4, 76691, Note_on_c, 9, 40, 58
4, 76758, Note_on_c, 9, 40, 0
4, 76800, Note_on_c, 9, 44, 0
4, 76800, Note_on_c, 9, 59, 68
4, 76928, Note_on_c, 9, 59, 0
4, 77184, Note_on_c, 9, 44, 113
4, 77184, Note_on_c, 9, 59, 77
4, 77312, Note_on_c, 9, 59, 0
4, 77440, Note_on_c, 9, 59, 55
4, 77568, Note_on_c, 9, 59, 0
4, 77568, Note_on_c, 9, 44, 0
4, 77568, Note_on_c, 9, 59, 74
4, 77824, Note_on_c, 9, 59, 0
4, 77838, Note_on_c, 9, 34, 54
4, 77932, Note_on_c, 9, 34, 0
4, 77952, Note_on_c, 9, 44, 117
4, 77952, Note_on_c, 9, 59, 79
4, 77981, Note_on_c, 9, 35, 25
4, 78080, Note_on_c, 9, 59, 0
4, 78099, Note_on_c, 9, 35, 0
4, 78208, Note_on_c, 9, 59, 60
4, 78221, Note_on_c, 9, 35, 43
4, 78304, Note_on_c, 9, 35, 0
4, 78336, Note_on_c, 9, 59, 0
4, 78336, Note_on_c, 9, 44, 0
4, 78336, Note_on_c, 9, 59, 77
4, 78592, Note_on_c, 9, 59, 0
4, 78720, Note_on_c, 9, 44, 115
4, 78720, Note_on_c, 9, 59, 77
4, 78976, Note_on_c, 9, 59, 0
4, 78976, Note_on_c, 9, 59, 38
4, 79104, Note_on_c, 9, 59, 0
4, 79104, Note_on_c, 9, 44, 0
4, 79104, Note_on_c, 9, 59, 74
4, 79189, Note_on_c, 9, 40, 42
4, 79226, Note_on_c, 9, 40, 0
4, 79360, Note_on_c, 9, 59, 0
4, 79488, Note_on_c, 9, 44, 111
4, 79488, Note_on_c, 9, 59, 74
4, 79491, Note_on_c, 9, 40, 58
4, 79527, Note_on_c, 9, 40, 0
4, 79616, Note_on_c, 9, 59, 0
4, 79744, Note_on_c, 9, 59, 53
4, 79753, Note_on_c, 9, 40, 50
4, 79782, Note_on_c, 9, 40, 0
4, 79872, Note_on_c, 9, 59, 0
4, 79872, Note_on_c, 9, 44, 0
4, 79872, Note_on_c, 9, 59, 75
4, 79986, Note_on_c, 9, 40, 61
4, 80000, Note_on_c, 9, 59, 0
4, 80029, Note_on_c, 9, 40, 0
4, 80128, Note_on_c, 9, 59, 81
4, 80128, Note_on_c, 9, 57, 74
4, 80256, Note_on_c, 9, 57, 0
4, 80256, Note_on_c, 9, 59, 0
4, 80256, Note_on_c, 9, 44, 115
4, 80277, Note_on_c, 9, 40, 43
4, 80286, Note_on_c, 9, 41, 35
4, 80314, Note_on_c, 9, 41, 0
4, 80329, Note_on_c, 9, 40, 0
4, 80527, Note_on_c, 9, 40, 74
4, 80592, Note_on_c, 9, 40, 0
4, 80640, Note_on_c, 9, 44, 0
4, 80640, Note_on_c, 9, 59, 80
4, 80768, Note_on_c, 9, 59, 0
4, 80788, Note_on_c, 9, 40, 70
4, 80853, Note_on_c, 9, 40, 0
4, 80994, Note_on_c, 9, 40, 68
4, 81024, Note_on_c, 9, 46, 111
4, 81024, Note_on_c, 9, 59, 76
4, 81042, Note_on_c, 9, 40, 0
4, 81152, Note_on_c, 9, 59, 0
4, 81251, Note_on_c, 9, 34, 65
4, 81280, Note_on_c, 9, 59, 57
4, 81356, Note_on_c, 9, 57, 75
4, 81379, Note_on_c, 9, 35, 69
4, 81395, Note_on_c, 9, 34, 0
4, 81408, Note_on_c, 9, 46, 0
4, 81408, Note_on_c, 9, 59, 0
4, 81408, Note_on_c, 9, 59, 73
4, 81463, Note_on_c, 9, 57, 0
4, 81664, Note_on_c, 9, 59, 0
4, 81678, Note_on_c, 9, 35, 0
4, 81792, Note_on_c, 9, 44, 104
4, 81792, Note_on_c, 9, 59, 83
4, 81920, Note_on_c, 9, 59, 0
4, 82048, Note_on_c, 9, 59, 42
4, 82176, Note_on_c, 9, 59, 0
4, 82176, Note_on_c, 9, 44, 0
4, 82176, Note_on_c, 9, 59, 78
4, 82432, Note_on_c, 9, 59, 0
4, 82560, Note_on_c, 9, 44, 108
4, 82560, Note_on_c, 9, 59, 77
4, 82688, Note_on_c, 9, 59, 0
4, 82816, Note_on_c, 9, 59, 55
4, 82827, Note_on_c, 9, 35, 39
4, 82860, Note_on_c, 9, 35, 0
4, 82944, Note_on_c, 9, 59, 0
4, 82944, Note_on_c, 9, 44, 0
4, 82944, Note_on_c, 9, 59, 78
4, 82968, Note_on_c, 9, 35, 43
4, 83023, Note_on_c, 9, 35, 0
4, 83200, Note_on_c, 9, 59, 0
4, 83328, Note_on_c, 9, 44, 112
4, 83328, Note_on_c, 9, 59, 75
4, 83584, Note_on_c, 9, 59, 0
4, 83619, Note_on_c, 9, 35, 39
4, 83649, Note_on_c, 9, 35, 0
4, 83712, Note_on_c, 9, 44, 0
4, 83712, Note_on_c, 9, 59, 76
4, 83968, Note_on_c, 9, 59, 0
4, 84096, Note_on_c, 9, 44, 117
4, 84096, Note_on_c, 9, 59, 73
4, 84224, Note_on_c, 9, 59, 0
4, 84352, Note_on_c, 9, 59, 49
4, 84361, Note_on_c, 9, 34, 47
4, 84457, Note_on_c, 9, 34, 0
4, 84480, Note_on_c, 9, 59, 0
4, 84480, Note_on_c, 9, 44, 0
4, 84480, Note_on_c, 9, 59, 77
4, 84500, Note_on_c, 9, 35, 19
4, 84672, Note_on_c, 9, 35, 0
4, 84736, Note_on_c, 9, 59, 0
4, 84864, Note_on_c, 9, 44, 114
4, 84864, Note_on_c, 9, 59, 80
4, 84992, Note_on_c, 9, 59, 0
4, 85120, Note_on_c, 9, 59, 53
4, 85248, Note_on_c, 9, 59, 0
4, 85248, Note_on_c, 9, 44, 0
4, 85248, Note_on_c, 9, 59, 67
4, 85504, Note_on_c, 9, 59, 0
4, 85632, Note_on_c, 9, 44, 115
4, 85632, Note_on_c, 9, 59, 88
4, 85888, Note_on_c, 9, 59, 0
4, 85890, Note_on_c, 9, 38, 40
4, 85918, Note_on_c, 9, 38, 0
4, 86016, Note_on_c, 9, 44, 0
4, 86016, Note_on_c, 9, 59, 49
4, 86144, Note_on_c, 9, 59, 0
4, 86258, Note_on_c, 9, 38, 47
4, 86288, Note_on_c, 9, 38, 0
4, 86400, Note_on_c, 9, 44, 109
4, 86400, Note_on_c, 9, 59, 90
4, 86656, Note_on_c, 9, 59, 0
4, 86656, Note_on_c, 9, 38, 36
4, 86688, Note_on_c, 9, 38, 0
4, 86784, Note_on_c, 9, 44, 0
4, 86784, Note_on_c, 9, 59, 61
4, 86912, Note_on_c, 9, 59, 0
4, 87040, Note_on_c, 9, 59, 55
4, 87043, Note_on_c, 9, 38, 38
4, 87076, Note_on_c, 9, 38, 0
4, 87168, Note_on_c, 9, 59, 0
4, 87168, Note_on_c, 9, 44, 112
4, 87168, Note_on_c, 9, 59, 73
4, 87390, Note_on_c, 9, 38, 39
4, 87421, Note_on_c, 9, 38, 0
4, 87424, Note_on_c, 9, 59, 0
4, 87432, Note_on_c, 9, 34, 59
4, 87552, Note_on_c, 9, 44, 0
4, 87557, Note_on_c, 9, 34, 0
4, 87569, Note_on_c, 9, 35, 36
4, 87680, Note_on_c, 9, 59, 63
4, 87759, Note_on_c, 9, 35, 0
4, 87808, Note_on_c, 9, 59, 0
4, 87808, Note_on_c, 9, 59, 57
4, 87936, Note_on_c, 9, 59, 0
4, 87936, Note_on_c, 9, 44, 111
4, 87936, Note_on_c, 9, 59, 80
4, 88165, Note_on_c, 9, 35, 49
4, 88192, Note_on_c, 9, 59, 0
4, 88211, Note_on_c, 9, 35, 0
4, 88312, Note_on_c, 9, 35, 26
4, 88320, Note_on_c, 9, 44, 0
4, 88320, Note_on_c, 9, 59, 49
4, 88367, Note_on_c, 9, 35, 0
4, 88448, Note_on_c, 9, 59, 0
4, 88576, Note_on_c, 9, 59, 64
4, 88704, Note_on_c, 9, 59, 0
4, 88704, Note_on_c, 9, 44, 114
4, 88704, Note_on_c, 9, 59, 82
4, 88960, Note_on_c, 9, 59, 0
4, 88972, Note_on_c, 9, 35, 29
4, 89005, Note_on_c, 9, 35, 0
4, 89088, Note_on_c, 9, 44, 0
4, 89088, Note_on_c, 9, 59, 46
4, 89216, Note_on_c, 9, 59, 0
4, 89344, Note_on_c, 9, 59, 44
4, 89472, Note_on_c, 9, 59, 0
4, 89472, Note_on_c, 9, 44, 108
4, 89472, Note_on_c, 9, 59, 82
4, 89728, Note_on_c, 9, 59, 0
4, 89856, Note_on_c, 9, 44, 0
4, 89856, Note_on_c, 9, 59, 62
4, 89984, Note_on_c, 9, 59, 0
4, 90112, Note_on_c, 9, 53, 80
4, 90143, Note_on_c, 9, 40, 45
4, 90171, Note_on_c, 9, 40, 0
4, 90238, Note_on_c, 9, 35, 32
4, 90240, Note_on_c, 9, 53, 0
4, 90240, Note_on_c, 9, 44, 116
4, 90240, Note_on_c, 9, 59, 74
4, 90364, Note_on_c, 9, 35, 0
4, 90496, Note_on_c, 9, 59, 0
4, 90624, Note_on_c, 9, 44, 0
4, 90624, Note_on_c, 9, 59, 66
4, 90752, Note_on_c, 9, 59, 0
4, 90877, Note_on_c, 9, 40, 53
4, 90905, Note_on_c, 9, 40, 0
4, 90982, Note_on_c, 9, 35, 37
4, 91008, Note_on_c, 9, 44, 113
4, 91008, Note_on_c, 9, 59, 74
4, 91013, Note_on_c, 9, 35, 0
4, 91136, Note_on_c, 9, 59, 0
4, 91264, Note_on_c, 9, 59, 57
4, 91392, Note_on_c, 9, 59, 0
4, 91392, Note_on_c, 9, 44, 0
4, 91392, Note_on_c, 9, 59, 67
4, 91520, Note_on_c, 9, 59, 0
4, 91648, Note_on_c, 9, 53, 92
4, 91776, Note_on_c, 9, 53, 0
4, 91776, Note_on_c, 9, 44, 117
4, 91776, Note_on_c, 9, 59, 50
4, 91904, Note_on_c, 9, 59, 0
4, 92160, Note_on_c, 9, 44, 0
4, 92160, Note_on_c, 9, 59, 68
4, 92288, Note_on_c, 9, 59, 0
4, 92544, Note_on_c, 9, 44, 115
4, 92544, Note_on_c, 9, 59, 74
4, 92672, Note_on_c, 9, 59, 0
4, 92825, Note_on_c, 9, 35, 36
4, 92859, Note_on_c, 9, 35, 0
4, 92928, Note_on_c, 9, 44, 0
4, 92928, Note_on_c, 9, 59, 67
4, 92939, Note_on_c, 9, 35, 36
4, 93019, Note_on_c, 9, 35, 0
4, 93056, Note_on_c, 9, 59, 0
4, 93184, Note_on_c, 9, 53, 80
4, 93312, Note_on_c, 9, 53, 0
4, 93312, Note_on_c, 9, 44, 111
4, 93312, Note_on_c, 9, 59, 57
4, 93440, Note_on_c, 9, 59, 0
4, 93567, Note_on_c, 9, 35, 39
4, 93568, Note_on_c, 9, 59, 92
4, 93568, Note_on_c, 9, 57, 79
4, 93696, Note_on_c, 9, 57, 0
4, 93696, Note_on_c, 9, 59, 0
4, 93696, Note_on_c, 9, 44, 0
4, 93776, Note_on_c, 9, 35, 0
4, 94080, Note_on_c, 9, 44, 115
4, 94080, Note_on_c, 9, 59, 50
4, 94208, Note_on_c, 9, 59, 0
4, 94336, Note_on_c, 9, 59, 37
4, 94464, Note_on_c, 9, 59, 0
4, 94464, Note_on_c, 9, 44, 0
4, 94464, Note_on_c, 9, 59, 42
4, 94592, Note_on_c, 9, 59, 0
4, 94720, Note_on_c, 9, 59, 101
4, 94720, Note_on_c, 9, 57, 94
4, 94848, Note_on_c, 9, 46, 111
4, 94976, Note_on_c, 9, 57, 0
4, 95104, Note_on_c, 9, 59, 0
4, 95118, Note_on_c, 9, 35, 59
4, 95228, Note_on_c, 9, 35, 0
4, 95232, Note_on_c, 9, 46, 0
4, 95232, Note_on_c, 9, 59, 45
4, 95360, Note_on_c, 9, 59, 0
4, 95360, Note_on_c, 9, 59, 16
4, 95488, Note_on_c, 9, 59, 0
4, 95616, Note_on_c, 9, 44, 104
4, 95616, Note_on_c, 9, 59, 72
4, 95744, Note_on_c, 9, 59, 0
4, 95872, Note_on_c, 9, 59, 62
4, 96000, Note_on_c, 9, 59, 0
4, 96000, Note_on_c, 9, 44, 0
4, 96000, Note_on_c, 9, 59, 55
4, 96128, Note_on_c, 9, 59, 0
4, 96235, Note_on_c, 9, 34, 24
4, 96302, Note_on_c, 9, 34, 0
4, 96384, Note_on_c, 9, 44, 108
4, 96384, Note_on_c, 9, 59, 72
4, 96512, Note_on_c, 9, 59, 0
4, 96618, Note_on_c, 9, 34, 43
4, 96640, Note_on_c, 9, 59, 47
4, 96719, Note_on_c, 9, 34, 0
4, 96768, Note_on_c, 9, 59, 0
4, 96768, Note_on_c, 9, 44, 0
4, 96768, Note_on_c, 9, 59, 66
4, 96774, Note_on_c, 9, 35, 29
4, 96812, Note_on_c, 9, 35, 0
4, 97024, Note_on_c, 9, 59, 0
4, 97152, Note_on_c, 9, 44, 112
4, 97152, Note_on_c, 9, 59, 71
4, 97280, Note_on_c, 9, 59, 0
4, 97408, Note_on_c, 9, 59, 44
4, 97536, Note_on_c, 9, 59, 0
4, 97536, Note_on_c, 9, 44, 0
4, 97536, Note_on_c, 9, 59, 67
4, 97792, Note_on_c, 9, 59, 0
4, 97920, Note_on_c, 9, 44, 117
4, 97920, Note_on_c, 9, 59, 73
4, 98048, Note_on_c, 9, 59, 0
4, 98304, Note_on_c, 9, 44, 0
4, 98304, Note_on_c, 9, 59, 64
4, 98560, Note_on_c, 9, 59, 0
4, 98688, Note_on_c, 9, 44, 114
4, 98688, Note_on_c, 9, 59, 69
4, 98816, Note_on_c, 9, 59, 0
4, 98944, Note_on_c, 9, 59, 54
4, 99072, Note_on_c, 9, 59, 0
4, 99072, Note_on_c, 9, 44, 0
4, 99072, Note_on_c, 9, 59, 74
4, 99328, Note_on_c, 9, 59, 0
4, 99456, Note_on_c, 9, 44, 115
4, 99456, Note_on_c, 9, 59, 79
4, 99468, Note_on_c, 9, 35, 34
4, 99498, Note_on_c, 9, 35, 0
4, 99712, Note_on_c, 9, 59, 0
4, 99712, Note_on_c, 9, 59, 48
4, 99723, Note_on_c, 9, 35, 86
4, 99783, Note_on_c, 9, 35, 0
4, 99840, Note_on_c, 9, 59, 0
4, 99840, Note_on_c, 9, 44, 0
4, 99840, Note_on_c, 9, 59, 77
4, 99874, Note_on_c, 9, 35, 46
4, 99924, Note_on_c, 9, 35, 0
4, 100096, Note_on_c, 9, 59, 0
4, 100224, Note_on_c, 9, 44, 109
4, 100224, Note_on_c, 9, 59, 74
4, 100352, Note_on_c, 9, 59, 0
4, 100608, Note_on_c, 9, 44, 0
4, 100608, Note_on_c, 9, 59, 71
4, 100864, Note_on_c, 9, 59, 0
4, 100879, Note_on_c, 9, 40, 65
4, 100941, Note_on_c, 9, 40, 0
4, 100992, Note_on_c, 9, 44, 112
4, 100992, Note_on_c, 9, 59, 73
4, 101044, Note_on_c, 9, 35, 17
4, 101082, Note_on_c, 9, 35, 0
4, 101120, Note_on_c, 9, 59, 0
4, 101248, Note_on_c, 9, 59, 60
4, 101376, Note_on_c, 9, 59, 0
4, 101376, Note_on_c, 9, 44, 0
4, 101376, Note_on_c, 9, 59, 64
4, 101632, Note_on_c, 9, 59, 0
4, 101639, Note_on_c, 9, 40, 51
4, 101673, Note_on_c, 9, 40, 0
4, 101760, Note_on_c, 9, 44, 111
4, 101760, Note_on_c, 9, 59, 77
4, 101767, Note_on_c, 9, 35, 37
4, 101814, Note_on_c, 9, 35, 0
4, 101888, Note_on_c, 9, 59, 0
4, 102144, Note_on_c, 9, 44, 0
4, 102144, Note_on_c, 9, 59, 72
4, 102400, Note_on_c, 9, 59, 0
4, 102440, Note_on_c, 9, 40, 51
4, 102478, Note_on_c, 9, 40, 0
4, 102528, Note_on_c, 9, 44, 114
4, 102528, Note_on_c, 9, 59, 74
4, 102553, Note_on_c, 9, 35, 33
4, 102656, Note_on_c, 9, 59, 0
4, 102663, Note_on_c, 9, 35, 0
4, 102784, Note_on_c, 9, 59, 59
4, 102912, Note_on_c, 9, 59, 0
4, 102912, Note_on_c, 9, 44, 0
4, 102912, Note_on_c, 9, 59, 68
4, 103168, Note_on_c, 9, 59, 0
4, 103296, Note_on_c, 9, 44, 108
4, 103296, Note_on_c, 9, 59, 80
4, 103424, Note_on_c, 9, 59, 0
4, 103552, Note_on_c, 9, 59, 55
4, 103680, Note_on_c, 9, 59, 0
4, 103680, Note_on_c, 9, 44, 0
4, 103680, Note_on_c, 9, 59, 76
4, 103808, Note_on_c, 9, 59, 0
4, 103946, Note_on_c, 9, 34, 50
4, 104036, Note_on_c, 9, 34, 0
4, 104064, Note_on_c, 9, 44, 116
4, 104064, Note_on_c, 9, 59, 72
4, 104091, Note_on_c, 9, 35, 27
4, 104172, Note_on_c, 9, 35, 0
4, 104192, Note_on_c, 9, 59, 0
4, 104448, Note_on_c, 9, 44, 0
4, 104448, Note_on_c, 9, 59, 74
4, 104692, Note_on_c, 9, 34, 53
4, 104704, Note_on_c, 9, 59, 0
4, 104791, Note_on_c, 9, 34, 0
4, 104828, Note_on_c, 9, 35, 38
4, 104832, Note_on_c, 9, 44, 113
4, 104832, Note_on_c, 9, 59, 80
4, 104891, Note_on_c, 9, 35, 0
4, 105088, Note_on_c, 9, 59, 0
4, 105216, Note_on_c, 9, 44, 0
4, 105216, Note_on_c, 9, 59, 74
4, 105460, Note_on_c, 9, 34, 42
4, 105472, Note_on_c, 9, 59, 0
4, 105555, Note_on_c, 9, 34, 0
4, 105600, Note_on_c, 9, 44, 117
4, 105600, Note_on_c, 9, 59, 76
4, 105728, Note_on_c, 9, 59, 0
4, 105856, Note_on_c, 9, 59, 53
4, 105858, Note_on_c, 9, 34, 21
4, 105868, Note_on_c, 9, 35, 52
4, 105888, Note_on_c, 9, 34, 0
4, 105984, Note_on_c, 9, 44, 0
4, 105984, Note_on_c, 9, 59, 0
4, 105984, Note_on_c, 9, 59, 65
4, 106147, Note_on_c, 9, 35, 0
4, 106240, Note_on_c, 9, 59, 0
4, 106368, Note_on_c, 9, 44, 115
4, 106368, Note_on_c, 9, 59, 72
4, 106496, Note_on_c, 9, 59, 0
4, 106624, Note_on_c, 9, 59, 57
4, 106752, Note_on_c, 9, 59, 0
4, 106752, Note_on_c, 9, 44, 0
4, 106752, Note_on_c, 9, 59, 74
4, 107008, Note_on_c, 9, 59, 0
4, 107136, Note_on_c, 9, 44, 111
4, 107136, Note_on_c, 9, 59, 77
4, 107264, Note_on_c, 9, 59, 0
4, 107392, Note_on_c, 9, 59, 45
4, 107520, Note_on_c, 9, 59, 0
4, 107520, Note_on_c, 9, 44, 0
4, 107520, Note_on_c, 9, 59, 73
4, 107776, Note_on_c, 9, 59, 0
4, 107904, Note_on_c, 9, 44, 115
4, 107904, Note_on_c, 9, 59, 74
4, 108160, Note_on_c, 9, 59, 0
4, 108160, Note_on_c, 9, 59, 52
4, 108288, Note_on_c, 9, 59, 0
4, 108288, Note_on_c, 9, 44, 0
4, 108288, Note_on_c, 9, 59, 80
4, 108544, Note_on_c, 9, 59, 0
4, 108672, Note_on_c, 9, 46, 111
4, 108672, Note_on_c, 9, 59, 80
4, 108800, Note_on_c, 9, 59, 0
4, 109056, Note_on_c, 9, 46, 0
4, 109056, Note_on_c, 9, 59, 78
4, 109312, Note_on_c, 9, 59, 0
4, 109440, Note_on_c, 9, 44, 104
4, 109440, Note_on_c, 9, 59, 79
4, 109568, Note_on_c, 9, 59, 0
4, 109695, Note_on_c, 9, 50, 65
4, 109696, Note_on_c, 9, 59, 69
4, 109739, Note_on_c, 9, 50, 0
4, 109824, Note_on_c, 9, 59, 0
4, 109824, Note_on_c, 9, 44, 0
4, 109824, Note_on_c, 9, 59, 74
4, 110080, Note_on_c, 9, 59, 0
4, 110208, Note_on_c, 9, 44, 108
4, 110208, Note_on_c, 9, 59, 79
4, 110229, Note_on_c, 9, 37, 48
4, 110336, Note_on_c, 9, 59, 0
4, 110369, Note_on_c, 9, 37, 0
4, 110592, Note_on_c, 9, 44, 0
4, 110592, Note_on_c, 9, 59, 76
4, 110720, Note_on_c, 9, 59, 0
4, 110840, Note_on_c, 9, 37, 21
4, 110868, Note_on_c, 9, 37, 0
4, 110971, Note_on_c, 9, 50, 26
4, 110976, Note_on_c, 9, 44, 112
4, 110976, Note_on_c, 9, 59, 78
4, 111093, Note_on_c, 9, 50, 0
4, 111104, Note_on_c, 9, 59, 0
4, 111221, Note_on_c, 9, 50, 90
4, 111360, Note_on_c, 9, 44, 0
4, 111360, Note_on_c, 9, 59, 75
4, 111361, Note_on_c, 9, 50, 0
4, 111616, Note_on_c, 9, 59, 0
4, 111644, Note_on_c, 9, 35, 7
4, 111672, Note_on_c, 9, 35, 0
4, 111730, Note_on_c, 9, 37, 34
4, 111744, Note_on_c, 9, 44, 117
4, 111744, Note_on_c, 9, 59, 66
4, 111907, Note_on_c, 9, 37, 0
4, 112000, Note_on_c, 9, 59, 0
4, 112000, Note_on_c, 9, 53, 79
4, 112128, Note_on_c, 9, 53, 0
4, 112128, Note_on_c, 9, 44, 0
4, 112128, Note_on_c, 9, 59, 53
4, 112256, Note_on_c, 9, 59, 0
4, 112384, Note_on_c, 9, 53, 84
4, 112501, Note_on_c, 9, 50, 36
4, 112512, Note_on_c, 9, 53, 0
4, 112512, Note_on_c, 9, 44, 114
4, 112512, Note_on_c, 9, 59, 39
4, 112593, Note_on_c, 9, 50, 0
4, 112768, Note_on_c, 9, 59, 0
4, 112772, Note_on_c, 9, 50, 100
4, 112896, Note_on_c, 9, 44, 0
4, 112896, Note_on_c, 9, 59, 60
4, 112907, Note_on_c, 9, 50, 0
4, 113024, Note_on_c, 9, 59, 0
4, 113191, Note_on_c, 9, 35, 19
4, 113228, Note_on_c, 9, 35, 0
4, 113280, Note_on_c, 9, 44, 115
4, 113280, Note_on_c, 9, 59, 70
4, 113283, Note_on_c, 9, 37, 37
4, 113407, Note_on_c, 9, 37, 0
4, 113408, Note_on_c, 9, 59, 0
4, 113536, Note_on_c, 9, 59, 67
4, 113664, Note_on_c, 9, 59, 0
4, 113664, Note_on_c, 9, 44, 0
4, 113664, Note_on_c, 9, 59, 70
4, 113792, Note_on_c, 9, 59, 0
4, 114048, Note_on_c, 9, 44, 109
4, 114048, Note_on_c, 9, 59, 72
4, 114053, Note_on_c, 9, 50, 61
4, 114176, Note_on_c, 9, 59, 0
4, 114200, Note_on_c, 9, 50, 0
4, 114304, Note_on_c, 9, 59, 56
4, 114328, Note_on_c, 9, 50, 77
4, 114432, Note_on_c, 9, 59, 0
4, 114432, Note_on_c, 9, 44, 0
4, 114432, Note_on_c, 9, 59, 74
4, 114446, Note_on_c, 9, 50, 0
4, 114688, Note_on_c, 9, 59, 0
4, 114704, Note_on_c, 9, 35, 70
4, 114812, Note_on_c, 9, 35, 0
4, 114816, Note_on_c, 9, 44, 112
4, 114816, Note_on_c, 9, 59, 79
4, 114849, Note_on_c, 9, 37, 45
4, 114920, Note_on_c, 9, 37, 0
4, 114944, Note_on_c, 9, 59, 0
4, 115072, Note_on_c, 9, 59, 51
4, 115200, Note_on_c, 9, 59, 0
4, 115200, Note_on_c, 9, 44, 0
4, 115200, Note_on_c, 9, 59, 77
4, 115456, Note_on_c, 9, 59, 0
4, 115584, Note_on_c, 9, 44, 111
4, 115584, Note_on_c, 9, 59, 80
4, 115599, Note_on_c, 9, 50, 39
4, 115671, Note_on_c, 9, 50, 0
4, 115712, Note_on_c, 9, 59, 0
4, 115845, Note_on_c, 9, 50, 90
4, 115960, Note_on_c, 9, 50, 0
4, 115968, Note_on_c, 9, 44, 0
4, 116096, Note_on_c, 9, 59, 76
4, 116196, Note_on_c, 9, 35, 51
4, 116224, Note_on_c, 9, 59, 0
4, 116285, Note_on_c, 9, 35, 0
4, 116333, Note_on_c, 9, 37, 45
4, 116352, Note_on_c, 9, 44, 114
4, 116352, Note_on_c, 9, 59, 84
4, 116433, Note_on_c, 9, 37, 0
4, 116608, Note_on_c, 9, 59, 0
4, 116736, Note_on_c, 9, 44, 0
4, 116736, Note_on_c, 9, 59, 48
4, 116864, Note_on_c, 9, 59, 0
4, 116864, Note_on_c, 9, 59, 66
4, 116992, Note_on_c, 9, 59, 0
4, 116992, Note_on_c, 9, 59, 26
4, 117120, Note_on_c, 9, 59, 0
4, 117120, Note_on_c, 9, 44, 108
4, 117130, Note_on_c, 9, 50, 46
4, 117181, Note_on_c, 9, 50, 0
4, 117248, Note_on_c, 9, 59, 82
4, 117376, Note_on_c, 9, 59, 0
4, 117396, Note_on_c, 9, 50, 88
4, 117487, Note_on_c, 9, 50, 0
4, 117504, Note_on_c, 9, 44, 0
4, 117504, Note_on_c, 9, 59, 67
4, 117632, Note_on_c, 9, 59, 0
4, 117887, Note_on_c, 9, 37, 72
4, 117888, Note_on_c, 9, 44, 116
4, 117888, Note_on_c, 9, 59, 78
4, 118007, Note_on_c, 9, 37, 0
4, 118016, Note_on_c, 9, 59, 0
4, 118144, Note_on_c, 9, 59, 54
4, 118272, Note_on_c, 9, 59, 0
4, 118272, Note_on_c, 9, 44, 0
4, 118272, Note_on_c, 9, 59, 74
4, 118400, Note_on_c, 9, 59, 0
4, 118656, Note_on_c, 9, 44, 113
4, 118656, Note_on_c, 9, 59, 82
4, 118659, Note_on_c, 9, 50, 42
4, 118694, Note_on_c, 9, 50, 0
4, 118784, Note_on_c, 9, 59, 0
4, 118912, Note_on_c, 9, 59, 48
4, 118917, Note_on_c, 9, 50, 110
4, 119008, Note_on_c, 9, 50, 0
4, 119040, Note_on_c, 9, 59, 0
4, 119040, Note_on_c, 9, 44, 0
4, 119040, Note_on_c, 9, 59, 80
4, 119296, Note_on_c, 9, 59, 0
4, 119315, Note_on_c, 9, 35, 49
4, 119393, Note_on_c, 9, 35, 0
4, 119424, Note_on_c, 9, 44, 117
4, 119424, Note_on_c, 9, 59, 78
4, 119455, Note_on_c, 9, 37, 34
4, 119511, Note_on_c, 9, 37, 0
4, 119552, Note_on_c, 9, 59, 0
4, 119680, Note_on_c, 9, 59, 60
4, 119808, Note_on_c, 9, 59, 0
4, 119808, Note_on_c, 9, 44, 0
4, 119808, Note_on_c, 9, 59, 55
4, 120064, Note_on_c, 9, 59, 0
4, 120192, Note_on_c, 9, 44, 115
4, 120192, Note_on_c, 9, 59, 80
4, 120192, Note_on_c, 9, 50, 32
4, 120260, Note_on_c, 9, 50, 0
4, 120320, Note_on_c, 9, 59, 0
4, 120458, Note_on_c, 9, 50, 112
4, 120563, Note_on_c, 9, 50, 0
4, 120576, Note_on_c, 9, 44, 0
4, 120576, Note_on_c, 9, 59, 80
4, 120832, Note_on_c, 9, 59, 0
4, 120847, Note_on_c, 9, 35, 25
4, 120937, Note_on_c, 9, 35, 0
4, 120957, Note_on_c, 9, 37, 38
4, 120960, Note_on_c, 9, 44, 111
4, 120960, Note_on_c, 9, 59, 77
4, 121088, Note_on_c, 9, 59, 0
4, 121115, Note_on_c, 9, 37, 0
4, 121216, Note_on_c, 9, 59, 60
4, 121344, Note_on_c, 9, 59, 0
4, 121344, Note_on_c, 9, 44, 0
4, 121344, Note_on_c, 9, 59, 74
4, 121600, Note_on_c, 9, 59, 0
4, 121728, Note_on_c, 9, 44, 115
4, 121728, Note_on_c, 9, 59, 76
4, 121958, Note_on_c, 9, 50, 52
4, 121984, Note_on_c, 9, 59, 0
4, 121987, Note_on_c, 9, 50, 0
4, 122112, Note_on_c, 9, 44, 0
4, 122112, Note_on_c, 9, 59, 52
4, 122112, Note_on_c, 9, 59, 74
4, 122240, Note_on_c, 9, 59, 0
4, 122358, Note_on_c, 9, 35, 30
4, 122368, Note_on_c, 9, 59, 0
4, 122396, Note_on_c, 9, 35, 0
4, 122496, Note_on_c, 9, 46, 111
4, 122496, Note_on_c, 9, 59, 80
4, 122505, Note_on_c, 9, 37, 25
4, 122607, Note_on_c, 9, 37, 0
4, 122752, Note_on_c, 9, 59, 0
4, 122752, Note_on_c, 9, 59, 54
4, 122880, Note_on_c, 9, 59, 0
4, 122880, Note_on_c, 9, 46, 0
4, 122880, Note_on_c, 9, 59, 73
4, 123136, Note_on_c, 9, 59, 0
4, 123264, Note_on_c, 9, 44, 104
4, 123264, Note_on_c, 9, 59, 88
4, 123392, Note_on_c, 9, 59, 0
4, 123520, Note_on_c, 9, 59, 62
4, 123530, Note_on_c, 9, 50, 80
4, 123598, Note_on_c, 9, 50, 0
4, 123648, Note_on_c, 9, 59, 0
4, 123648, Note_on_c, 9, 44, 0
4, 123648, Note_on_c, 9, 59, 80
4, 123776, Note_on_c, 9, 59, 0
4, 123904, Note_on_c, 9, 53, 83
4, 124032, Note_on_c, 9, 53, 0
4, 124032, Note_on_c, 9, 44, 108
4, 124032, Note_on_c, 9, 59, 67
4, 124160, Note_on_c, 9, 59, 0
4, 124288, Note_on_c, 9, 51, 83
4, 124416, Note_on_c, 9, 51, 0
4, 124416, Note_on_c, 9, 44, 0
4, 124416, Note_on_c, 9, 51, 55
4, 124544, Note_on_c, 9, 51, 0
4, 124800, Note_on_c, 9, 44, 112
4, 124800, Note_on_c, 9, 51, 87
4, 124928, Note_on_c, 9, 51, 0
4, 125055, Note_on_c, 9, 50, 60
4, 125097, Note_on_c, 9, 50, 0
4, 125184, Note_on_c, 9, 44, 0
4, 125184, Note_on_c, 9, 51, 87
4, 125440, Note_on_c, 9, 51, 0
4, 125568, Note_on_c, 9, 44, 117
4, 125568, Note_on_c, 9, 51, 88
4, 125605, Note_on_c, 9, 35, 56
4, 125661, Note_on_c, 9, 35, 0
4, 125824, Note_on_c, 9, 51, 0
4, 125824, Note_on_c, 9, 51, 61
4, 125858, Note_on_c, 9, 35, 51
4, 125894, Note_on_c, 9, 35, 0
4, 125952, Note_on_c, 9, 51, 0
4, 125952, Note_on_c, 9, 44, 0
4, 125952, Note_on_c, 9, 51, 77
4, 126080, Note_on_c, 9, 51, 0
4, 126336, Note_on_c, 9, 44, 114
4, 126336, Note_on_c, 9, 51, 84
4, 126380, Note_on_c, 9, 50, 30
4, 126437, Note_on_c, 9, 50, 0
4, 126464, Note_on_c, 9, 51, 0
4, 126592, Note_on_c, 9, 51, 57
4, 126626, Note_on_c, 9, 50, 54
4, 126657, Note_on_c, 9, 50, 0
4, 126720, Note_on_c, 9, 51, 0
4, 126720, Note_on_c, 9, 44, 0
4, 126720, Note_on_c, 9, 51, 71
4, 126976, Note_on_c, 9, 51, 0
4, 127024, Note_on_c, 9, 35, 9
4, 127052, Note_on_c, 9, 35, 0
4, 127104, Note_on_c, 9, 44, 115
4, 127104, Note_on_c, 9, 51, 85
4, 127127, Note_on_c, 9, 35, 56
4, 127232, Note_on_c, 9, 51, 0
4, 127280, Note_on_c, 9, 35, 0
4, 127375, Note_on_c, 9, 35, 58
4, 127440, Note_on_c, 9, 35, 0
4, 127488, Note_on_c, 9, 44, 0
4, 127488, Note_on_c, 9, 51, 40
4, 127488, Note_on_c, 9, 51, 68
4, 127616, Note_on_c, 9, 51, 0
4, 127744, Note_on_c, 9, 51, 0
4, 127872, Note_on_c, 9, 44, 109
4, 127872, Note_on_c, 9, 51, 82
4, 128117, Note_on_c, 9, 50, 95
4, 128128, Note_on_c, 9, 51, 0
4, 128182, Note_on_c, 9, 50, 0
4, 128256, Note_on_c, 9, 44, 0
4, 128256, Note_on_c, 9, 51, 62
4, 128256, Note_on_c, 9, 51, 78
4, 128384, Note_on_c, 9, 51, 0
4, 128384, Note_on_c, 9, 51, 0
4, 128630, Note_on_c, 9, 35, 40
4, 128640, Note_on_c, 9, 44, 112
4, 128640, Note_on_c, 9, 51, 77
4, 128680, Note_on_c, 9, 35, 0
4, 128768, Note_on_c, 9, 51, 0
4, 128896, Note_on_c, 9, 51, 57
4, 128904, Note_on_c, 9, 35, 44
4, 128946, Note_on_c, 9, 35, 0
4, 129024, Note_on_c, 9, 51, 0
4, 129024, Note_on_c, 9, 44, 0
4, 129024, Note_on_c, 9, 51, 67
4, 129280, Note_on_c, 9, 51, 0
4, 129408, Note_on_c, 9, 44, 111
4, 129408, Note_on_c, 9, 51, 82
4, 129536, Note_on_c, 9, 51, 0
4, 129792, Note_on_c, 9, 44, 0
4, 129792, Note_on_c, 9, 51, 81
4, 129920, Note_on_c, 9, 51, 0
4, 130052, Note_on_c, 9, 40, 93
4, 130111, Note_on_c, 9, 40, 0
4, 130176, Note_on_c, 9, 44, 114
4, 130176, Note_on_c, 9, 51, 79
4, 130304, Note_on_c, 9, 51, 0
4, 130414, Note_on_c, 9, 40, 93
4, 130432, Note_on_c, 9, 51, 55
4, 130490, Note_on_c, 9, 40, 0
4, 130555, Note_on_c, 9, 35, 44
4, 130560, Note_on_c, 9, 51, 0
4, 130560, Note_on_c, 9, 44, 0
4, 130560, Note_on_c, 9, 51, 51
4, 130605, Note_on_c, 9, 35, 0
4, 130688, Note_on_c, 9, 51, 0
4, 130944, Note_on_c, 9, 44, 108
4, 130944, Note_on_c, 9, 51, 80
4, 131072, Note_on_c, 9, 51, 0
4, 131200, Note_on_c, 9, 51, 58
4, 131328, Note_on_c, 9, 51, 0
4, 131328, Note_on_c, 9, 44, 0
4, 131328, Note_on_c, 9, 51, 69
4, 131456, Note_on_c, 9, 51, 0
4, 131712, Note_on_c, 9, 44, 116
4, 131712, Note_on_c, 9, 51, 81
4, 131840, Note_on_c, 9, 51, 0
4, 132096, Note_on_c, 9, 44, 0
4, 132096, Note_on_c, 9, 51, 84
4, 132224, Note_on_c, 9, 51, 0
4, 132380, Note_on_c, 9, 34, 50
4, 132468, Note_on_c, 9, 34, 0
4, 132480, Note_on_c, 9, 44, 113
4, 132480, Note_on_c, 9, 51, 84
4, 132540, Note_on_c, 9, 35, 12
4, 132575, Note_on_c, 9, 35, 0
4, 132608, Note_on_c, 9, 51, 0
4, 132608, Note_on_c, 9, 51, 70
4, 132736, Note_on_c, 9, 51, 0
4, 132864, Note_on_c, 9, 44, 0
4, 132992, Note_on_c, 9, 51, 90
4, 133120, Note_on_c, 9, 51, 0
4, 133143, Note_on_c, 9, 34, 56
4, 133235, Note_on_c, 9, 34, 0
4, 133248, Note_on_c, 9, 44, 117
4, 133376, Note_on_c, 9, 51, 86
4, 133504, Note_on_c, 9, 51, 0
4, 133524, Note_on_c, 9, 57, 69
4, 133539, Note_on_c, 9, 35, 79
4, 133542, Note_on_c, 9, 34, 54
4, 133569, Note_on_c, 9, 29, 20
4, 133580, Note_on_c, 9, 57, 0
4, 133607, Note_on_c, 9, 29, 0
4, 133628, Note_on_c, 9, 34, 0
4, 133632, Note_on_c, 9, 44, 0
4, 133632, Note_on_c, 9, 51, 84
4, 133760, Note_on_c, 9, 51, 0
4, 134016, Note_on_c, 9, 44, 115
4, 134016, Note_on_c, 9, 51, 80
4, 134144, Note_on_c, 9, 51, 0
4, 134272, Note_on_c, 9, 51, 60
4, 134400, Note_on_c, 9, 51, 0
4, 134400, Note_on_c, 9, 44, 0
4, 134400, Note_on_c, 9, 51, 68
4, 134528, Note_on_c, 9, 51, 0
4, 134784, Note_on_c, 9, 44, 111
4, 134784, Note_on_c, 9, 51, 84
4, 134912, Note_on_c, 9, 51, 0
4, 135040, Note_on_c, 9, 51, 55
4, 135060, Note_on_c, 9, 35, 0
4, 135168, Note_on_c, 9, 51, 0
4, 135168, Note_on_c, 9, 44, 0
4, 135168, Note_on_c, 9, 51, 67
4, 135296, Note_on_c, 9, 51, 0
4, 135472, Note_on_c, 9, 29, 38
4, 135552, Note_on_c, 9, 44, 115
4, 135552, Note_on_c, 9, 51, 78
4, 135680, Note_on_c, 9, 51, 0
4, 135936, Note_on_c, 9, 44, 0
4, 135936, Note_on_c, 9, 51, 60
4, 136064, Note_on_c, 9, 51, 0
4, 136320, Note_on_c, 9, 46, 111
4, 136320, Note_on_c, 9, 51, 75
4, 136351, Note_on_c, 9, 34, 56
4, 136369, Note_on_c, 9, 56, 38
4, 136404, Note_on_c, 9, 56, 0
4, 136422, Note_on_c, 9, 29, 0
4, 136448, Note_on_c, 9, 51, 0
4, 136602, Note_on_c, 9, 57, 58
4, 136615, Note_on_c, 9, 35, 69
4, 136660, Note_on_c, 9, 34, 0
4, 136671, Note_on_c, 9, 57, 0
4, 136704, Note_on_c, 9, 46, 0
4, 136704, Note_on_c, 9, 51, 77
4, 136832, Note_on_c, 9, 51, 0
4, 137088, Note_on_c, 9, 44, 104
4, 137088, Note_on_c, 9, 51, 79
4, 137216, Note_on_c, 9, 51, 0
4, 137472, Note_on_c, 9, 44, 0
4, 137472, Note_on_c, 9, 51, 79
4, 137600, Note_on_c, 9, 51, 0
4, 137715, Note_on_c, 9, 35, 0
4, 137734, Note_on_c, 9, 34, 24
4, 137820, Note_on_c, 9, 34, 0
4, 137856, Note_on_c, 9, 44, 108
4, 137856, Note_on_c, 9, 51, 80
4, 137863, Note_on_c, 9, 35, 42
4, 137984, Note_on_c, 9, 51, 0
4, 138065, Note_on_c, 9, 35, 0
4, 138112, Note_on_c, 9, 51, 64
4, 138123, Note_on_c, 9, 35, 41
4, 138190, Note_on_c, 9, 35, 0
4, 138240, Note_on_c, 9, 51, 0
4, 138240, Note_on_c, 9, 44, 0
4, 138240, Note_on_c, 9, 51, 69
4, 138368, Note_on_c, 9, 51, 0
4, 138624, Note_on_c, 9, 44, 112
4, 138624, Note_on_c, 9, 51, 79
4, 138752, Note_on_c, 9, 51, 0
4, 138878, Note_on_c, 9, 34, 17
4, 138880, Note_on_c, 9, 51, 40
4, 138908, Note_on_c, 9, 34, 0
4, 138985, Note_on_c, 9, 40, 46
4, 139008, Note_on_c, 9, 51, 0
4, 139008, Note_on_c, 9, 44, 0
4, 139008, Note_on_c, 9, 51, 72
4, 139017, Note_on_c, 9, 40, 0
4, 139105, Note_on_c, 9, 40, 40
4, 139136, Note_on_c, 9, 51, 0
4, 139142, Note_on_c, 9, 40, 0
4, 139392, Note_on_c, 9, 44, 117
4, 139392, Note_on_c, 9, 51, 77
4, 139400, Note_on_c, 9, 40, 31
4, 139441, Note_on_c, 9, 40, 0
4, 139514, Note_on_c, 9, 40, 37
4, 139557, Note_on_c, 9, 40, 0
4, 139648, Note_on_c, 9, 51, 0
4, 139776, Note_on_c, 9, 44, 0
4, 139776, Note_on_c, 9, 51, 75
4, 140032, Note_on_c, 9, 51, 0
4, 140160, Note_on_c, 9, 44, 114
4, 140160, Note_on_c, 9, 51, 74
4, 140416, Note_on_c, 9, 51, 0
4, 140531, Note_on_c, 9, 40, 32
4, 140544, Note_on_c, 9, 44, 0
4, 140544, Note_on_c, 9, 51, 75
4, 140562, Note_on_c, 9, 40, 0
4, 140639, Note_on_c, 9, 40, 35
4, 140681, Note_on_c, 9, 40, 0
4, 140800, Note_on_c, 9, 51, 0
4, 140928, Note_on_c, 9, 44, 115
4, 140928, Note_on_c, 9, 51, 75
4, 140929, Note_on_c, 9, 40, 38
4, 140960, Note_on_c, 9, 40, 0
4, 141176, Note_on_c, 9, 40, 36
4, 141184, Note_on_c, 9, 51, 0
4, 141209, Note_on_c, 9, 40, 0
4, 141312, Note_on_c, 9, 44, 0
4, 141312, Note_on_c, 9, 51, 77
4, 141444, Note_on_c, 9, 40, 40
4, 141473, Note_on_c, 9, 40, 0
4, 141568, Note_on_c, 9, 51, 0
4, 141592, Note_on_c, 9, 35, 40
4, 141626, Note_on_c, 9, 35, 0
4, 141696, Note_on_c, 9, 44, 109
4, 141696, Note_on_c, 9, 51, 75
4, 141719, Note_on_c, 9, 40, 48
4, 141758, Note_on_c, 9, 40, 0
4, 141824, Note_on_c, 9, 51, 0
4, 142080, Note_on_c, 9, 44, 0
4, 142080, Note_on_c, 9, 51, 56
4, 142080, Note_on_c, 9, 51, 71
4, 142208, Note_on_c, 9, 51, 0
4, 142325, Note_on_c, 9, 40, 32
4, 142336, Note_on_c, 9, 51, 0
4, 142359, Note_on_c, 9, 40, 0
4, 142464, Note_on_c, 9, 44, 112
4, 142464, Note_on_c, 9, 51, 80
4, 142592, Note_on_c, 9, 51, 0
4, 142607, Note_on_c, 9, 40, 49
4, 142637, Note_on_c, 9, 40, 0
4, 142762, Note_on_c, 9, 35, 57
4, 142844, Note_on_c, 9, 35, 0
4, 142848, Note_on_c, 9, 44, 0
4, 142848, Note_on_c, 9, 51, 79
4, 142976, Note_on_c, 9, 51, 0
4, 143232, Note_on_c, 9, 44, 111
4, 143232, Note_on_c, 9, 51, 79
4, 143360, Note_on_c, 9, 51, 0
4, 143616, Note_on_c, 9, 44, 0
4, 143616, Note_on_c, 9, 51, 67
4, 143744, Note_on_c, 9, 51, 0
4, 143744, Note_on_c, 9, 51, 75
4, 143872, Note_on_c, 9, 51, 0
4, 144000, Note_on_c, 9, 44, 114
4, 144000, Note_on_c, 9, 51, 83
4, 144256, Note_on_c, 9, 51, 0
4, 144293, Note_on_c, 9, 35, 14
4, 144325, Note_on_c, 9, 35, 0
4, 144384, Note_on_c, 9, 44, 0
4, 144384, Note_on_c, 9, 51, 59
4, 144420, Note_on_c, 9, 35, 14
4, 144459, Note_on_c, 9, 35, 0
4, 144512, Note_on_c, 9, 51, 0
4, 144512, Note_on_c, 9, 51, 71
4, 144640, Note_on_c, 9, 51, 0
4, 144768, Note_on_c, 9, 44, 108
4, 144768, Note_on_c, 9, 51, 83
4, 145024, Note_on_c, 9, 51, 0
4, 145040, Note_on_c, 9, 35, 45
4, 145082, Note_on_c, 9, 35, 0
4, 145152, Note_on_c, 9, 44, 0
4, 145152, Note_on_c, 9, 51, 78
4, 145408, Note_on_c, 9, 51, 0
4, 145436, Note_on_c, 9, 35, 32
4, 145471, Note_on_c, 9, 35, 0
4, 145536, Note_on_c, 9, 44, 116
4, 145536, Note_on_c, 9, 51, 79
4, 145664, Note_on_c, 9, 51, 0
4, 145792, Note_on_c, 9, 51, 47
4, 145920, Note_on_c, 9, 51, 0
4, 145920, Note_on_c, 9, 44, 0
4, 145920, Note_on_c, 9, 51, 62
4, 146048, Note_on_c, 9, 51, 0
4, 146304, Note_on_c, 9, 44, 113
4, 146304, Note_on_c, 9, 51, 80
4, 146432, Note_on_c, 9, 51, 0
4, 146578, Note_on_c, 9, 35, 47
4, 146608, Note_on_c, 9, 35, 0
4, 146688, Note_on_c, 9, 44, 0
4, 146688, Note_on_c, 9, 51, 75
4, 146816, Note_on_c, 9, 51, 0
4, 147072, Note_on_c, 9, 44, 117
4, 147072, Note_on_c, 9, 51, 76
4, 147200, Note_on_c, 9, 51, 0
4, 147317, Note_on_c, 9, 34, 64
4, 147396, Note_on_c, 9, 34, 0
4, 147456, Note_on_c, 9, 44, 0
4, 147456, Note_on_c, 9, 51, 53
4, 147456, Note_on_c, 9, 51, 58
4, 147463, Note_on_c, 9, 35, 32
4, 147555, Note_on_c, 9, 35, 0
4, 147584, Note_on_c, 9, 51, 0
4, 147584, Note_on_c, 9, 51, 0
4, 147840, Note_on_c, 9, 44, 115
4, 147840, Note_on_c, 9, 51, 74
4, 147968, Note_on_c, 9, 51, 0
4, 148132, Note_on_c, 9, 35, 25
4, 148171, Note_on_c, 9, 35, 0
4, 148224, Note_on_c, 9, 44, 0
4, 148224, Note_on_c, 9, 51, 71
4, 148352, Note_on_c, 9, 51, 0
4, 148603, Note_on_c, 9, 40, 27
4, 148608, Note_on_c, 9, 44, 111
4, 148608, Note_on_c, 9, 51, 75
4, 148649, Note_on_c, 9, 40, 0
4, 148736, Note_on_c, 9, 51, 0
4, 148877, Note_on_c, 9, 40, 48
4, 148906, Note_on_c, 9, 40, 0
4, 148992, Note_on_c, 9, 44, 0
4, 148992, Note_on_c, 9, 51, 59
4, 148992, Note_on_c, 9, 51, 61
4, 148998, Note_on_c, 9, 40, 33
4, 149044, Note_on_c, 9, 40, 0
4, 149120, Note_on_c, 9, 51, 0
4, 149248, Note_on_c, 9, 51, 0
4, 149376, Note_on_c, 9, 44, 115
4, 149376, Note_on_c, 9, 51, 76
4, 149504, Note_on_c, 9, 51, 0
4, 149760, Note_on_c, 9, 44, 0
4, 149760, Note_on_c, 9, 51, 76
4, 149760, Note_on_c, 9, 40, 27
4, 149808, Note_on_c, 9, 40, 0
4, 150016, Note_on_c, 9, 51, 0
4, 150021, Note_on_c, 9, 34, 45
4, 150138, Note_on_c, 9, 34, 0
4, 150144, Note_on_c, 9, 46, 111
4, 150144, Note_on_c, 9, 51, 74
4, 150272, Note_on_c, 9, 51, 0
4, 150528, Note_on_c, 9, 46, 0
4, 150528, Note_on_c, 9, 51, 57
4, 150528, Note_on_c, 9, 51, 60
4, 150656, Note_on_c, 9, 51, 0
4, 150656, Note_on_c, 9, 51, 0
4, 150912, Note_on_c, 9, 44, 104
4, 150912, Note_on_c, 9, 51, 74
4, 151040, Note_on_c, 9, 51, 0
4, 151168, Note_on_c, 9, 51, 52
4, 151190, Note_on_c, 9, 40, 18
4, 151225, Note_on_c, 9, 40, 0
4, 151284, Note_on_c, 9, 40, 43
4, 151296, Note_on_c, 9, 51, 0
4, 151296, Note_on_c, 9, 44, 0
4, 151296, Note_on_c, 9, 51, 54
4, 151323, Note_on_c, 9, 40, 0
4, 151424, Note_on_c, 9, 51, 0
4, 151680, Note_on_c, 9, 44, 108
4, 151680, Note_on_c, 9, 51, 77
4, 151808, Note_on_c, 9, 51, 0
4, 151936, Note_on_c, 9, 51, 64
4, 151946, Note_on_c, 9, 35, 40
4, 151984, Note_on_c, 9, 35, 0
4, 152064, Note_on_c, 9, 51, 0
4, 152064, Note_on_c, 9, 44, 0
4, 152064, Note_on_c, 9, 51, 64
4, 152091, Note_on_c, 9, 35, 24
4, 152143, Note_on_c, 9, 35, 0
4, 152192, Note_on_c, 9, 51, 0
4, 152448, Note_on_c, 9, 44, 112
4, 152448, Note_on_c, 9, 51, 74
4, 152576, Note_on_c, 9, 51, 0
4, 152702, Note_on_c, 9, 35, 53
4, 152751, Note_on_c, 9, 35, 0
4, 152831, Note_on_c, 9, 35, 36
4, 152832, Note_on_c, 9, 44, 0
4, 152832, Note_on_c, 9, 51, 78
4, 152878, Note_on_c, 9, 35, 0
4, 152960, Note_on_c, 9, 51, 0
4, 153088, Note_on_c, 9, 53, 77
4, 153216, Note_on_c, 9, 53, 0
4, 153216, Note_on_c, 9, 44, 117
4, 153216, Note_on_c, 9, 51, 55
4, 153344, Note_on_c, 9, 51, 0
4, 153448, Note_on_c, 9, 35, 51
4, 153497, Note_on_c, 9, 35, 0
4, 153600, Note_on_c, 9, 44, 0
4, 153600, Note_on_c, 9, 51, 69
4, 153728, Note_on_c, 9, 51, 0
4, 153856, Note_on_c, 9, 53, 81
4, 153984, Note_on_c, 9, 53, 0
4, 153984, Note_on_c, 9, 44, 114
4, 153984, Note_on_c, 9, 51, 44
4, 154112, Note_on_c, 9, 51, 0
4, 154237, Note_on_c, 9, 35, 56
4, 154302, Note_on_c, 9, 35, 0
4, 154368, Note_on_c, 9, 44, 0
4, 154368, Note_on_c, 9, 51, 63
4, 154496, Note_on_c, 9, 51, 0
4, 154624, Note_on_c, 9, 53, 79
4, 154625, Note_on_c, 9, 35, 63
4, 154696, Note_on_c, 9, 35, 0
4, 154752, Note_on_c, 9, 53, 0
4, 154752, Note_on_c, 9, 44, 115
4, 154752, Note_on_c, 9, 51, 39
4, 154880, Note_on_c, 9, 51, 0
4, 155008, Note_on_c, 9, 57, 85
4, 155008, Note_on_c, 9, 51, 79
4, 155010, Note_on_c, 9, 34, 55
4, 155136, Note_on_c, 9, 44, 0
4, 155139, Note_on_c, 9, 34, 0
4, 155149, Note_on_c, 9, 57, 62
4, 155151, Note_on_c, 9, 35, 59
4, 155214, Note_on_c, 9, 57, 0
4, 155224, Note_on_c, 9, 35, 0
4, 155264, Note_on_c, 9, 57, 0
4, 155264, Note_on_c, 9, 51, 0
4, 155520, Note_on_c, 9, 44, 109
4, 155520, Note_on_c, 9, 51, 36
4, 155648, Note_on_c, 9, 51, 0
4, 155776, Note_on_c, 9, 51, 46
4, 155904, Note_on_c, 9, 51, 0
4, 155904, Note_on_c, 9, 44, 0
4, 155904, Note_on_c, 9, 51, 52
4, 156032, Note_on_c, 9, 51, 0
4, 156160, Note_on_c, 9, 57, 91
4, 156160, Note_on_c, 9, 51, 84
4, 156160, Note_on_c, 9, 56, 44
4, 156180, Note_on_c, 9, 34, 25
4, 156234, Note_on_c, 9, 34, 0
4, 156288, Note_on_c, 9, 56, 0
4, 156288, Note_on_c, 9, 44, 112
4, 156320, Note_on_c, 9, 35, 35
4, 156416, Note_on_c, 9, 57, 0
4, 156544, Note_on_c, 9, 51, 0
4, 156672, Note_on_c, 9, 44, 0
4, 156672, Note_on_c, 9, 51, 34
4, 156928, Note_on_c, 9, 51, 0
4, 157056, Note_on_c, 9, 44, 111
4, 157056, Note_on_c, 9, 51, 57
4, 157103, Note_on_c, 9, 35, 0
4, 157184, Note_on_c, 9, 51, 0
4, 157312, Note_on_c, 9, 51, 50
4, 157342, Note_on_c, 9, 35, 41
4, 157402, Note_on_c, 9, 35, 0
4, 157440, Note_on_c, 9, 51, 0
4, 157440, Note_on_c, 9, 44, 0
4, 157440, Note_on_c, 9, 51, 57
4, 157489, Note_on_c, 9, 35, 22
4, 157542, Note_on_c, 9, 35, 0
4, 157696, Note_on_c, 9, 51, 0
4, 157824, Note_on_c, 9, 44, 114
4, 157824, Note_on_c, 9, 51, 62
4, 157952, Note_on_c, 9, 51, 0
4, 158080, Note_on_c, 9, 51, 44
4, 158091, Note_on_c, 9, 35, 57
4, 158153, Note_on_c, 9, 35, 0
4, 158208, Note_on_c, 9, 51, 0
4, 158208, Note_on_c, 9, 44, 0
4, 158208, Note_on_c, 9, 51, 53
4, 158336, Note_on_c, 9, 51, 0
4, 158592, Note_on_c, 9, 44, 108
4, 158592, Note_on_c, 9, 51, 62
4, 158848, Note_on_c, 9, 51, 0
4, 158848, Note_on_c, 9, 51, 30
4, 158976, Note_on_c, 9, 51, 0
4, 158976, Note_on_c, 9, 44, 0
4, 158976, Note_on_c, 9, 51, 62
4, 159232, Note_on_c, 9, 51, 0
4, 159349, Note_on_c, 9, 37, 73
4, 159360, Note_on_c, 9, 44, 116
4, 159360, Note_on_c, 9, 51, 71
4, 159467, Note_on_c, 9, 37, 0
4, 159488, Note_on_c, 9, 51, 0
4, 159744, Note_on_c, 9, 44, 0
4, 159744, Note_on_c, 9, 51, 67
4, 159872, Note_on_c, 9, 51, 0
4, 160128, Note_on_c, 9, 44, 113
4, 160128, Note_on_c, 9, 51, 71
4, 160256, Note_on_c, 9, 51, 0
4, 160384, Note_on_c, 9, 51, 55
4, 160387, Note_on_c, 9, 35, 26
4, 160426, Note_on_c, 9, 35, 0
4, 160512, Note_on_c, 9, 51, 0
4, 160512, Note_on_c, 9, 44, 0
4, 160512, Note_on_c, 9, 51, 65
4, 160640, Note_on_c, 9, 51, 0
4, 160801, Note_on_c, 9, 35, 28
4, 160836, Note_on_c, 9, 35, 0
4, 160896, Note_on_c, 9, 44, 117
4, 160896, Note_on_c, 9, 51, 72
4, 160906, Note_on_c, 9, 37, 84
4, 161024, Note_on_c, 9, 51, 0
4, 161055, Note_on_c, 9, 37, 0
4, 161152, Note_on_c, 9, 51, 48
4, 161280, Note_on_c, 9, 51, 0
4, 161280, Note_on_c, 9, 44, 0
4, 161280, Note_on_c, 9, 51, 62
4, 161536, Note_on_c, 9, 51, 0
4, 161664, Note_on_c, 9, 44, 115
4, 161664, Note_on_c, 9, 51, 77
4, 161792, Note_on_c, 9, 51, 0
4, 161920, Note_on_c, 9, 51, 57
4, 162048, Note_on_c, 9, 51, 0
4, 162048, Note_on_c, 9, 44, 0
4, 162048, Note_on_c, 9, 51, 69
4, 162176, Note_on_c, 9, 51, 0
4, 162432, Note_on_c, 9, 44, 111
4, 162432, Note_on_c, 9, 51, 74
4, 162437, Note_on_c, 9, 37, 82
4, 162560, Note_on_c, 9, 51, 0
4, 162564, Note_on_c, 9, 37, 0
4, 162816, Note_on_c, 9, 44, 0
4, 162816, Note_on_c, 9, 51, 47
4, 162816, Note_on_c, 9, 51, 64
4, 162944, Note_on_c, 9, 51, 0
4, 163072, Note_on_c, 9, 51, 0
4, 163196, Note_on_c, 9, 35, 23
4, 163200, Note_on_c, 9, 44, 115
4, 163200, Note_on_c, 9, 51, 74
4, 163233, Note_on_c, 9, 35, 0
4, 163456, Note_on_c, 9, 51, 0
4, 163456, Note_on_c, 9, 51, 48
4, 163467, Note_on_c, 9, 35, 72
4, 163559, Note_on_c, 9, 35, 0
4, 163584, Note_on_c, 9, 51, 0
4, 163584, Note_on_c, 9, 44, 0
4, 163584, Note_on_c, 9, 51, 67
4, 163712, Note_on_c, 9, 51, 0
4, 163968, Note_on_c, 9, 46, 111
4, 163968, Note_on_c, 9, 51, 76
4, 163980, Note_on_c, 9, 37, 78
4, 164096, Note_on_c, 9, 51, 0
4, 164110, Note_on_c, 9, 37, 0
4, 164224, Note_on_c, 9, 51, 50
4, 164352, Note_on_c, 9, 51, 0
4, 164352, Note_on_c, 9, 46, 0
4, 164352, Note_on_c, 9, 51, 64
4, 164608, Note_on_c, 9, 51, 0
4, 164736, Note_on_c, 9, 44, 104
4, 164736, Note_on_c, 9, 51, 74
4, 164864, Note_on_c, 9, 51, 0
4, 164998, Note_on_c, 9, 35, 35
4, 165030, Note_on_c, 9, 35, 0
4, 165120, Note_on_c, 9, 44, 0
4, 165120, Note_on_c, 9, 51, 74
4, 165248, Note_on_c, 9, 51, 0
4, 165504, Note_on_c, 9, 44, 108
4, 165504, Note_on_c, 9, 51, 79
4, 165519, Note_on_c, 9, 37, 54
4, 165632, Note_on_c, 9, 51, 0
4, 165685, Note_on_c, 9, 37, 0
4, 165764, Note_on_c, 9, 37, 68
4, 165888, Note_on_c, 9, 44, 0
4, 165888, Note_on_c, 9, 51, 78
4, 165890, Note_on_c, 9, 37, 0
4, 166016, Note_on_c, 9, 51, 0
4, 166272, Note_on_c, 9, 44, 112
4, 166272, Note_on_c, 9, 51, 74
4, 166283, Note_on_c, 9, 35, 47
4, 166368, Note_on_c, 9, 35, 0
4, 166400, Note_on_c, 9, 51, 0
4, 166656, Note_on_c, 9, 44, 0
4, 166656, Note_on_c, 9, 51, 76
4, 166784, Note_on_c, 9, 51, 0
4, 167032, Note_on_c, 9, 37, 63
4, 167040, Note_on_c, 9, 44, 117
4, 167040, Note_on_c, 9, 51, 77
4, 167168, Note_on_c, 9, 51, 0
4, 167201, Note_on_c, 9, 37, 0
4, 167278, Note_on_c, 9, 37, 63
4, 167296, Note_on_c, 9, 51, 44
4, 167397, Note_on_c, 9, 37, 0
4, 167424, Note_on_c, 9, 51, 0
4, 167424, Note_on_c, 9, 44, 0
4, 167424, Note_on_c, 9, 51, 71
4, 167552, Note_on_c, 9, 51, 0
4, 167794, Note_on_c, 9, 35, 44
4, 167808, Note_on_c, 9, 44, 114
4, 167808, Note_on_c, 9, 51, 77
4, 167856, Note_on_c, 9, 35, 0
4, 167936, Note_on_c, 9, 51, 0
4, 168192, Note_on_c, 9, 44, 0
4, 168192, Note_on_c, 9, 51, 75
4, 168320, Note_on_c, 9, 51, 0
4, 168541, Note_on_c, 9, 37, 75
4, 168576, Note_on_c, 9, 44, 115
4, 168576, Note_on_c, 9, 51, 76
4, 168692, Note_on_c, 9, 37, 0
4, 168704, Note_on_c, 9, 51, 0
4, 168960, Note_on_c, 9, 44, 0
4, 168960, Note_on_c, 9, 51, 77
4, 169088, Note_on_c, 9, 51, 0
4, 169344, Note_on_c, 9, 44, 109
4, 169344, Note_on_c, 9, 51, 74
4, 169472, Note_on_c, 9, 51, 0
4, 169600, Note_on_c, 9, 51, 42
4, 169728, Note_on_c, 9, 51, 0
4, 169728, Note_on_c, 9, 44, 0
4, 169728, Note_on_c, 9, 51, 54
4, 169856, Note_on_c, 9, 51, 0
4, 170112, Note_on_c, 9, 44, 112
4, 170112, Note_on_c, 9, 51, 73
4, 170117, Note_on_c, 9, 37, 80
4, 170240, Note_on_c, 9, 51, 0
4, 170265, Note_on_c, 9, 37, 0
4, 170496, Note_on_c, 9, 44, 0
4, 170496, Note_on_c, 9, 51, 75
4, 170624, Note_on_c, 9, 51, 0
4, 170880, Note_on_c, 9, 44, 111
4, 170880, Note_on_c, 9, 51, 72
4, 171008, Note_on_c, 9, 51, 0
4, 171188, Note_on_c, 9, 35, 18
4, 171224, Note_on_c, 9, 35, 0
4, 171264, Note_on_c, 9, 44, 0
4, 171264, Note_on_c, 9, 51, 79
4, 171303, Note_on_c, 9, 35, 31
4, 171336, Note_on_c, 9, 35, 0
4, 171392, Note_on_c, 9, 51, 0
4, 171648, Note_on_c, 9, 44, 114
4, 171648, Note_on_c, 9, 51, 76
4, 171678, Note_on_c, 9, 37, 82
4, 171776, Note_on_c, 9, 51, 0
4, 171839, Note_on_c, 9, 37, 0
4, 171904, Note_on_c, 9, 51, 44
4, 172032, Note_on_c, 9, 51, 0
4, 172032, Note_on_c, 9, 44, 0
4, 172032, Note_on_c, 9, 51, 64
4, 172160, Note_on_c, 9, 51, 0
4, 172416, Note_on_c, 9, 44, 108
4, 172416, Note_on_c, 9, 51, 82
4, 172544, Note_on_c, 9, 51, 0
4, 172659, Note_on_c, 9, 35, 20
4, 172672, Note_on_c, 9, 51, 55
4, 172699, Note_on_c, 9, 35, 0
4, 172799, Note_on_c, 9, 35, 21
4, 172800, Note_on_c, 9, 51, 0
4, 172800, Note_on_c, 9, 44, 0
4, 172800, Note_on_c, 9, 51, 69
4, 172837, Note_on_c, 9, 35, 0
4, 172928, Note_on_c, 9, 51, 0
4, 173184, Note_on_c, 9, 44, 116
4, 173184, Note_on_c, 9, 51, 79
4, 173198, Note_on_c, 9, 37, 83
4, 173288, Note_on_c, 9, 37, 0
4, 173312, Note_on_c, 9, 51, 0
4, 173440, Note_on_c, 9, 51, 48
4, 173568, Note_on_c, 9, 51, 0
4, 173568, Note_on_c, 9, 44, 0
4, 173568, Note_on_c, 9, 51, 70
4, 173696, Note_on_c, 9, 51, 0
4, 173952, Note_on_c, 9, 44, 113
4, 173952, Note_on_c, 9, 51, 77
4, 174080, Note_on_c, 9, 51, 0
4, 174243, Note_on_c, 9, 35, 11
4, 174273, Note_on_c, 9, 35, 0
4, 174336, Note_on_c, 9, 44, 0
4, 174336, Note_on_c, 9, 51, 75
4, 174464, Note_on_c, 9, 51, 0
4, 174720, Note_on_c, 9, 44, 117
4, 174720, Note_on_c, 9, 51, 77
4, 174746, Note_on_c, 9, 37, 80
4, 174848, Note_on_c, 9, 51, 0
4, 174859, Note_on_c, 9, 37, 0
4, 174976, Note_on_c, 9, 51, 56
4, 175104, Note_on_c, 9, 51, 0
4, 175104, Note_on_c, 9, 44, 0
4, 175104, Note_on_c, 9, 51, 65
4, 175232, Note_on_c, 9, 51, 0
4, 175488, Note_on_c, 9, 44, 115
4, 175488, Note_on_c, 9, 51, 73
4, 175616, Note_on_c, 9, 51, 0
4, 175744, Note_on_c, 9, 51, 47
4, 175872, Note_on_c, 9, 51, 0
4, 175872, Note_on_c, 9, 44, 0
4, 175872, Note_on_c, 9, 51, 64
4, 176000, Note_on_c, 9, 51, 0
4, 176247, Note_on_c, 9, 37, 80
4, 176256, Note_on_c, 9, 44, 111
4, 176256, Note_on_c, 9, 51, 79
4, 176384, Note_on_c, 9, 51, 0
4, 176390, Note_on_c, 9, 37, 0
4, 176512, Note_on_c, 9, 51, 57
4, 176640, Note_on_c, 9, 51, 0
4, 176640, Note_on_c, 9, 44, 0
4, 176640, Note_on_c, 9, 51, 69
4, 176768, Note_on_c, 9, 51, 0
4, 177024, Note_on_c, 9, 44, 115
4, 177024, Note_on_c, 9, 51, 77
4, 177152, Note_on_c, 9, 51, 0
4, 177280, Note_on_c, 9, 51, 46
4, 177408, Note_on_c, 9, 51, 0
4, 177408, Note_on_c, 9, 44, 0
4, 177408, Note_on_c, 9, 51, 65
4, 177536, Note_on_c, 9, 51, 0
4, 177792, Note_on_c, 9, 46, 111
4, 177792, Note_on_c, 9, 51, 83
4, 177796, Note_on_c, 9, 37, 82
4, 177920, Note_on_c, 9, 51, 0
4, 177943, Note_on_c, 9, 37, 0
4, 178048, Note_on_c, 9, 51, 59
4, 178176, Note_on_c, 9, 51, 0
4, 178176, Note_on_c, 9, 46, 0
4, 178176, Note_on_c, 9, 51, 68
4, 178304, Note_on_c, 9, 51, 0
4, 178560, Note_on_c, 9, 44, 104
4, 178560, Note_on_c, 9, 51, 80
4, 178688, Note_on_c, 9, 51, 0
4, 178816, Note_on_c, 9, 51, 60
4, 178824, Note_on_c, 9, 37, 56
4, 178876, Note_on_c, 9, 37, 0
4, 178944, Note_on_c, 9, 51, 0
4, 178944, Note_on_c, 9, 44, 0
4, 178944, Note_on_c, 9, 51, 59
4, 178949, Note_on_c, 9, 37, 56
4, 179052, Note_on_c, 9, 37, 0
4, 179072, Note_on_c, 9, 51, 0
4, 179202, Note_on_c, 9, 35, 80
4, 179328, Note_on_c, 9, 44, 108
4, 179328, Note_on_c, 9, 51, 71
4, 179456, Note_on_c, 9, 51, 0
4, 179523, Note_on_c, 9, 35, 0
4, 179584, Note_on_c, 9, 51, 62
4, 179712, Note_on_c, 9, 51, 0
4, 179712, Note_on_c, 9, 44, 0
4, 179715, Note_on_c, 9, 35, 62
4, 179853, Note_on_c, 9, 35, 0
4, 180096, Note_on_c, 9, 44, 112
4, 180096, Note_on_c, 9, 51, 67
4, 180224, Note_on_c, 9, 51, 0
4, 180480, Note_on_c, 9, 44, 0
4, 180480, Note_on_c, 9, 51, 59
4, 180608, Note_on_c, 9, 51, 0
4, 180800, Note_on_c, 9, 34, 10
4, 180828, Note_on_c, 9, 34, 0
4, 180864, Note_on_c, 9, 44, 117
4, 180864, Note_on_c, 9, 51, 58
4, 180888, Note_on_c, 9, 38, 44
4, 180916, Note_on_c, 9, 38, 0
4, 180992, Note_on_c, 9, 51, 0
4, 181120, Note_on_c, 9, 51, 69
4, 181248, Note_on_c, 9, 51, 0
4, 181248, Note_on_c, 9, 44, 0
4, 181248, Note_on_c, 9, 51, 67
4, 181504, Note_on_c, 9, 51, 0
4, 181632, Note_on_c, 9, 44, 114
4, 181632, Note_on_c, 9, 51, 77
4, 181760, Note_on_c, 9, 51, 0
4, 182016, Note_on_c, 9, 44, 0
4, 182016, Note_on_c, 9, 51, 68
4, 182144, Note_on_c, 9, 51, 0
4, 182400, Note_on_c, 9, 44, 115
4, 182400, Note_on_c, 9, 51, 77
4, 182528, Note_on_c, 9, 51, 0
4, 182656, Note_on_c, 9, 51, 56
4, 182784, Note_on_c, 9, 51, 0
4, 182784, Note_on_c, 9, 44, 0
4, 182784, Note_on_c, 9, 51, 62
4, 183040, Note_on_c, 9, 51, 0
4, 183168, Note_on_c, 9, 44, 109
4, 183168, Note_on_c, 9, 51, 83
4, 183296, Note_on_c, 9, 51, 0
4, 183424, Note_on_c, 9, 51, 56
4, 183552, Note_on_c, 9, 51, 0
4, 183552, Note_on_c, 9, 44, 0
4, 183552, Note_on_c, 9, 51, 71
4, 183557, Note_on_c, 9, 37, 38
4, 183678, Note_on_c, 9, 37, 0
4, 183808, Note_on_c, 9, 51, 0
4, 183936, Note_on_c, 9, 44, 112
4, 183936, Note_on_c, 9, 51, 85
4, 183945, Note_on_c, 9, 37, 34
4, 184064, Note_on_c, 9, 51, 0
4, 184101, Note_on_c, 9, 37, 0
4, 184192, Note_on_c, 9, 51, 55
4, 184320, Note_on_c, 9, 51, 0
4, 184320, Note_on_c, 9, 44, 0
4, 184320, Note_on_c, 9, 51, 62
4, 184576, Note_on_c, 9, 51, 0
4, 184704, Note_on_c, 9, 44, 111
4, 184704, Note_on_c, 9, 51, 82
4, 184832, Note_on_c, 9, 51, 0
4, 185088, Note_on_c, 9, 44, 0
4, 185088, Note_on_c, 9, 51, 70
4, 185216, Note_on_c, 9, 51, 0
4, 185472, Note_on_c, 9, 44, 114
4, 185472, Note_on_c, 9, 51, 83
4, 185600, Note_on_c, 9, 51, 0
4, 185728, Note_on_c, 9, 51, 55
4, 185750, Note_on_c, 9, 37, 14
4, 185778, Note_on_c, 9, 37, 0
4, 185856, Note_on_c, 9, 51, 0
4, 185856, Note_on_c, 9, 44, 0
4, 185856, Note_on_c, 9, 51, 57
4, 185861, Note_on_c, 9, 37, 33
4, 185915, Note_on_c, 9, 37, 0
4, 186112, Note_on_c, 9, 51, 0
4, 186240, Note_on_c, 9, 44, 108
4, 186240, Note_on_c, 9, 51, 77
4, 186368, Note_on_c, 9, 51, 0
4, 186496, Note_on_c, 9, 51, 56
4, 186624, Note_on_c, 9, 51, 0
4, 186624, Note_on_c, 9, 44, 0
4, 186624, Note_on_c, 9, 51, 45
4, 186752, Note_on_c, 9, 51, 0
4, 186880, Note_on_c, 9, 51, 65
4, 186884, Note_on_c, 9, 34, 40
4, 186975, Note_on_c, 9, 34, 0
4, 187008, Note_on_c, 9, 51, 0
4, 187008, Note_on_c, 9, 44, 116
4, 187008, Note_on_c, 9, 51, 76
4, 187031, Note_on_c, 9, 35, 18
4, 187192, Note_on_c, 9, 35, 0
4, 187264, Note_on_c, 9, 51, 0
4, 187392, Note_on_c, 9, 44, 0
4, 187392, Note_on_c, 9, 51, 36
4, 187520, Note_on_c, 9, 51, 0
4, 187648, Note_on_c, 9, 51, 44
4, 187776, Note_on_c, 9, 51, 0
4, 187776, Note_on_c, 9, 44, 113
4, 187776, Note_on_c, 9, 51, 79
4, 187904, Note_on_c, 9, 51, 0
4, 188157, Note_on_c, 9, 37, 43
4, 188160, Note_on_c, 9, 44, 0
4, 188160, Note_on_c, 9, 51, 52
4, 188219, Note_on_c, 9, 37, 0
4, 188288, Note_on_c, 9, 51, 0
4, 188416, Note_on_c, 9, 51, 43
4, 188544, Note_on_c, 9, 51, 0
4, 188544, Note_on_c, 9, 44, 117
4, 188544, Note_on_c, 9, 51, 83
4, 188672, Note_on_c, 9, 51, 0
4, 188792, Note_on_c, 9, 37, 35
4, 188820, Note_on_c, 9, 37, 0
4, 188928, Note_on_c, 9, 44, 0
4, 188928, Note_on_c, 9, 51, 38
4, 189056, Note_on_c, 9, 51, 0
4, 189184, Note_on_c, 9, 51, 52
4, 189312, Note_on_c, 9, 51, 0
4, 189312, Note_on_c, 9, 44, 115
4, 189312, Note_on_c, 9, 51, 81
4, 189568, Note_on_c, 9, 51, 0
4, 189696, Note_on_c, 9, 44, 0
4, 189696, Note_on_c, 9, 51, 46
4, 189824, Note_on_c, 9, 51, 0
4, 189937, Note_on_c, 9, 34, 28
4, 189998, Note_on_c, 9, 34, 0
4, 190080, Note_on_c, 9, 44, 111
4, 190080, Note_on_c, 9, 51, 59
4, 190100, Note_on_c, 9, 35, 26
4, 190208, Note_on_c, 9, 51, 0
4, 190243, Note_on_c, 9, 35, 0
4, 190336, Note_on_c, 9, 53, 74
4, 190464, Note_on_c, 9, 53, 0
4, 190464, Note_on_c, 9, 44, 0
4, 190464, Note_on_c, 9, 51, 54
4, 190592, Note_on_c, 9, 51, 0
4, 190714, Note_on_c, 9, 34, 41
4, 190720, Note_on_c, 9, 53, 88
4, 190804, Note_on_c, 9, 34, 0
4, 190848, Note_on_c, 9, 53, 0
4, 190848, Note_on_c, 9, 44, 115
4, 190848, Note_on_c, 9, 51, 32
4, 190868, Note_on_c, 9, 35, 22
4, 190942, Note_on_c, 9, 35, 0
4, 191104, Note_on_c, 9, 51, 0
4, 191232, Note_on_c, 9, 44, 0
4, 191232, Note_on_c, 9, 51, 46
4, 191454, Note_on_c, 9, 40, 36
4, 191488, Note_on_c, 9, 51, 0
4, 191489, Note_on_c, 9, 40, 0
4, 191549, Note_on_c, 9, 34, 25
4, 191616, Note_on_c, 9, 46, 111
4, 191616, Note_on_c, 9, 51, 67
4, 191744, Note_on_c, 9, 51, 0
4, 191757, Note_on_c, 9, 34, 0
4, 191872, Note_on_c, 9, 51, 54
4, 192000, Note_on_c, 9, 51, 0
4, 192000, Note_on_c, 9, 46, 0
4, 192000, Note_on_c, 9, 51, 68
4, 192256, Note_on_c, 9, 51, 0
4, 192384, Note_on_c, 9, 44, 104
4, 192384, Note_on_c, 9, 51, 67
4, 192640, Note_on_c, 9, 51, 0
4, 192768, Note_on_c, 9, 44, 0
4, 192768, Note_on_c, 9, 51, 49
4, 192768, Note_on_c, 9, 51, 71
4, 192896, Note_on_c, 9, 51, 0
4, 193024, Note_on_c, 9, 51, 0
4, 193043, Note_on_c, 9, 35, 12
4, 193073, Note_on_c, 9, 35, 0
4, 193152, Note_on_c, 9, 44, 108
4, 193152, Note_on_c, 9, 51, 71
4, 193408, Note_on_c, 9, 51, 0
4, 193536, Note_on_c, 9, 44, 0
4, 193536, Note_on_c, 9, 51, 73
4, 193792, Note_on_c, 9, 51, 0
4, 193813, Note_on_c, 9, 35, 17
4, 193847, Note_on_c, 9, 35, 0
4, 193920, Note_on_c, 9, 44, 112
4, 193920, Note_on_c, 9, 51, 74
4, 193942, Note_on_c, 9, 35, 22
4, 193988, Note_on_c, 9, 35, 0
4, 194176, Note_on_c, 9, 51, 0
4, 194304, Note_on_c, 9, 44, 0
4, 194304, Note_on_c, 9, 51, 67
4, 194432, Note_on_c, 9, 51, 0
4, 194432, Note_on_c, 9, 51, 67
4, 194560, Note_on_c, 9, 51, 0
4, 194688, Note_on_c, 9, 44, 117
4, 194688, Note_on_c, 9, 51, 74
4, 194816, Note_on_c, 9, 51, 0
4, 194816, Note_on_c, 9, 51, 54
4, 194944, Note_on_c, 9, 51, 0
4, 195072, Note_on_c, 9, 44, 0
4, 195072, Note_on_c, 9, 51, 72
4, 195328, Note_on_c, 9, 51, 0
4, 195456, Note_on_c, 9, 44, 114
4, 195456, Note_on_c, 9, 51, 69
4, 195712, Note_on_c, 9, 51, 0
4, 195734, Note_on_c, 9, 35, 28
4, 195771, Note_on_c, 9, 35, 0
4, 195840, Note_on_c, 9, 44, 0
4, 195840, Note_on_c, 9, 51, 69
4, 196096, Note_on_c, 9, 51, 0
4, 196224, Note_on_c, 9, 44, 115
4, 196224, Note_on_c, 9, 51, 70
4, 196352, Note_on_c, 9, 51, 0
4, 196480, Note_on_c, 9, 51, 46
4, 196486, Note_on_c, 9, 35, 42
4, 196523, Note_on_c, 9, 35, 0
4, 196608, Note_on_c, 9, 51, 0
4, 196608, Note_on_c, 9, 44, 0
4, 196608, Note_on_c, 9, 51, 74
4, 196611, Note_on_c, 9, 35, 28
4, 196671, Note_on_c, 9, 35, 0
4, 196864, Note_on_c, 9, 51, 0
4, 196992, Note_on_c, 9, 44, 109
4, 196992, Note_on_c, 9, 51, 74
4, 197248, Note_on_c, 9, 51, 0
4, 197248, Note_on_c, 9, 51, 60
4, 197272, Note_on_c, 9, 35, 35
4, 197308, Note_on_c, 9, 35, 0
4, 197376, Note_on_c, 9, 51, 0
4, 197376, Note_on_c, 9, 44, 0
4, 197376, Note_on_c, 9, 51, 65
4, 197632, Note_on_c, 9, 51, 0
4, 197760, Note_on_c, 9, 44, 112
4, 197760, Note_on_c, 9, 51, 70
4, 198016, Note_on_c, 9, 51, 0
4, 198019, Note_on_c, 9, 34, 41
4, 198094, Note_on_c, 9, 34, 0
4, 198140, Note_on_c, 9, 35, 31
4, 198144, Note_on_c, 9, 44, 0
4, 198144, Note_on_c, 9, 51, 67
4, 198308, Note_on_c, 9, 35, 0
4, 198400, Note_on_c, 9, 51, 0
4, 198528, Note_on_c, 9, 44, 111
4, 198528, Note_on_c, 9, 51, 71
4, 198656, Note_on_c, 9, 51, 0
4, 198784, Note_on_c, 9, 51, 45
4, 198912, Note_on_c, 9, 51, 0
4, 198912, Note_on_c, 9, 44, 0
4, 198912, Note_on_c, 9, 51, 70
4, 198919, Note_on_c, 9, 35, 22
4, 198962, Note_on_c, 9, 35, 0
4, 199168, Note_on_c, 9, 51, 0
4, 199296, Note_on_c, 9, 44, 114
4, 199296, Note_on_c, 9, 51, 77
4, 199424, Note_on_c, 9, 51, 0
4, 199552, Note_on_c, 9, 51, 48
4, 199571, Note_on_c, 9, 35, 66
4, 199628, Note_on_c, 9, 35, 0
4, 199680, Note_on_c, 9, 51, 0
4, 199680, Note_on_c, 9, 44, 0
4, 199680, Note_on_c, 9, 51, 64
4, 199808, Note_on_c, 9, 51, 0
4, 199936, Note_on_c, 9, 51, 48
4, 200064, Note_on_c, 9, 51, 0
4, 200064, Note_on_c, 9, 44, 108
4, 200064, Note_on_c, 9, 51, 73
4, 200320, Note_on_c, 9, 51, 0
4, 200353, Note_on_c, 9, 34, 10
4, 200385, Note_on_c, 9, 34, 0
4, 200448, Note_on_c, 9, 44, 0
4, 200448, Note_on_c, 9, 51, 43
4, 200448, Note_on_c, 9, 35, 47
4, 200515, Note_on_c, 9, 35, 0
4, 200576, Note_on_c, 9, 51, 0
4, 200704, Note_on_c, 9, 51, 51
4, 200832, Note_on_c, 9, 51, 0
4, 200832, Note_on_c, 9, 44, 116
4, 200832, Note_on_c, 9, 51, 84
4, 201085, Note_on_c, 9, 34, 39
4, 201088, Note_on_c, 9, 51, 0
4, 201152, Note_on_c, 9, 34, 0
4, 201216, Note_on_c, 9, 44, 0
4, 201216, Note_on_c, 9, 51, 33
4, 201232, Note_on_c, 9, 35, 19
4, 201237, Note_on_c, 9, 57, 58
4, 201265, Note_on_c, 9, 57, 0
4, 201268, Note_on_c, 9, 35, 0
4, 201344, Note_on_c, 9, 51, 0
4, 201472, Note_on_c, 9, 51, 52
4, 201600, Note_on_c, 9, 51, 0
4, 201600, Note_on_c, 9, 44, 113
4, 201600, Note_on_c, 9, 51, 77
4, 201856, Note_on_c, 9, 51, 0
4, 201859, Note_on_c, 9, 34, 43
4, 201919, Note_on_c, 9, 34, 0
4, 201984, Note_on_c, 9, 44, 0
4, 201984, Note_on_c, 9, 51, 32
4, 202014, Note_on_c, 9, 35, 38
4, 202046, Note_on_c, 9, 35, 0
4, 202112, Note_on_c, 9, 51, 0
4, 202240, Note_on_c, 9, 51, 42
4, 202368, Note_on_c, 9, 51, 0
4, 202368, Note_on_c, 9, 44, 117
4, 202368, Note_on_c, 9, 51, 76
4, 202623, Note_on_c, 9, 35, 65
4, 202624, Note_on_c, 9, 51, 0
4, 202677, Note_on_c, 9, 35, 0
4, 202752, Note_on_c, 9, 44, 0
4, 202752, Note_on_c, 9, 51, 54
4, 202880, Note_on_c, 9, 51, 0
4, 203004, Note_on_c, 9, 29, 68
4, 203008, Note_on_c, 9, 51, 47
4, 203136, Note_on_c, 9, 51, 0
4, 203136, Note_on_c, 9, 44, 115
4, 203136, Note_on_c, 9, 51, 78
4, 203392, Note_on_c, 9, 51, 0
4, 203520, Note_on_c, 9, 44, 0
4, 203520, Note_on_c, 9, 51, 13
4, 203648, Note_on_c, 9, 51, 0
4, 203776, Note_on_c, 9, 51, 61
4, 203783, Note_on_c, 9, 32, 37
4, 203808, Note_on_c, 9, 31, 18
4, 203828, Note_on_c, 9, 29, 0
4, 203851, Note_on_c, 9, 31, 0
4, 203882, Note_on_c, 9, 34, 64
4, 203894, Note_on_c, 9, 56, 54
4, 203904, Note_on_c, 9, 51, 0
4, 203904, Note_on_c, 9, 44, 111
4, 203904, Note_on_c, 9, 51, 80
4, 203927, Note_on_c, 9, 32, 0
4, 204116, Note_on_c, 9, 56, 0
4, 204160, Note_on_c, 9, 51, 0
4, 204161, Note_on_c, 9, 35, 84
4, 204163, Note_on_c, 9, 57, 80
4, 204199, Note_on_c, 9, 29, 14
4, 204202, Note_on_c, 9, 34, 0
4, 204232, Note_on_c, 9, 29, 0
4, 204288, Note_on_c, 9, 44, 0
4, 204288, Note_on_c, 9, 51, 78
4, 204544, Note_on_c, 9, 51, 0
4, 204671, Note_on_c, 9, 57, 0
4, 204672, Note_on_c, 9, 44, 115
4, 204672, Note_on_c, 9, 51, 67
4, 204796, Note_on_c, 9, 35, 0
4, 204928, Note_on_c, 9, 51, 0
4, 204928, Note_on_c, 9, 51, 42
4, 205056, Note_on_c, 9, 51, 0
4, 205056, Note_on_c, 9, 44, 0
4, 205056, Note_on_c, 9, 51, 60
4, 205290, Note_on_c, 9, 29, 40
4, 205312, Note_on_c, 9, 51, 0
4, 205379, Note_on_c, 9, 29, 0
4, 205425, Note_on_c, 9, 35, 73
4, 205428, Note_on_c, 9, 57, 74
4, 205433, Note_on_c, 9, 34, 54
4, 205440, Note_on_c, 9, 46, 111
4, 205440, Note_on_c, 9, 51, 65
4, 205517, Note_on_c, 9, 34, 0
4, 205660, Note_on_c, 9, 57, 0
4, 205696, Note_on_c, 9, 51, 0
4, 205775, Note_on_c, 9, 35, 0
4, 205824, Note_on_c, 9, 46, 0
4, 205824, Note_on_c, 9, 51, 60
4, 205952, Note_on_c, 9, 51, 0
4, 206208, Note_on_c, 9, 44, 104
4, 206208, Note_on_c, 9, 51, 68
4, 206336, Note_on_c, 9, 51, 0
4, 206592, Note_on_c, 9, 44, 0
4, 206592, Note_on_c, 9, 51, 60
4, 206720, Note_on_c, 9, 51, 0
4, 206840, Note_on_c, 9, 34, 44
4, 206923, Note_on_c, 9, 34, 0
4, 206976, Note_on_c, 9, 44, 108
4, 206976, Note_on_c, 9, 51, 64
4, 207104, Note_on_c, 9, 51, 0
4, 207232, Note_on_c, 9, 51, 62
4, 207360, Note_on_c, 9, 51, 0
4, 207360, Note_on_c, 9, 44, 0
4, 207360, Note_on_c, 9, 51, 67
4, 207610, Note_on_c, 9, 35, 43
4, 207616, Note_on_c, 9, 51, 0
4, 207647, Note_on_c, 9, 35, 0
4, 207744, Note_on_c, 9, 44, 112
4, 207744, Note_on_c, 9, 51, 68
4, 207751, Note_on_c, 9, 35, 39
4, 207826, Note_on_c, 9, 35, 0
4, 207872, Note_on_c, 9, 51, 0
4, 208128, Note_on_c, 9, 44, 0
4, 208128, Note_on_c, 9, 51, 63
4, 208384, Note_on_c, 9, 51, 0
4, 208512, Note_on_c, 9, 44, 117
4, 208512, Note_on_c, 9, 51, 62
4, 208640, Note_on_c, 9, 51, 0
4, 208896, Note_on_c, 9, 44, 0
4, 208896, Note_on_c, 9, 51, 56
4, 208896, Note_on_c, 9, 51, 36
4, 209024, Note_on_c, 9, 51, 0
4, 209152, Note_on_c, 9, 51, 0
4, 209163, Note_on_c, 9, 37, 35
4, 209196, Note_on_c, 9, 37, 0
4, 209280, Note_on_c, 9, 44, 114
4, 209280, Note_on_c, 9, 51, 71
4, 209309, Note_on_c, 9, 37, 20
4, 209346, Note_on_c, 9, 37, 0
4, 209514, Note_on_c, 9, 35, 56
4, 209536, Note_on_c, 9, 51, 0
4, 209579, Note_on_c, 9, 35, 0
4, 209664, Note_on_c, 9, 44, 0
4, 209664, Note_on_c, 9, 51, 60
4, 209904, Note_on_c, 9, 37, 37
4, 209920, Note_on_c, 9, 51, 0
4, 209961, Note_on_c, 9, 37, 0
4, 210038, Note_on_c, 9, 37, 22
4, 210048, Note_on_c, 9, 44, 115
4, 210048, Note_on_c, 9, 51, 64
4, 210123, Note_on_c, 9, 37, 0
4, 210176, Note_on_c, 9, 51, 0
4, 210304, Note_on_c, 9, 51, 55
4, 210311, Note_on_c, 9, 35, 50
4, 210346, Note_on_c, 9, 35, 0
4, 210432, Note_on_c, 9, 51, 0
4, 210432, Note_on_c, 9, 44, 0
4, 210432, Note_on_c, 9, 51, 65
4, 210454, Note_on_c, 9, 35, 24
4, 210494, Note_on_c, 9, 35, 0
4, 210683, Note_on_c, 9, 35, 43
4, 210688, Note_on_c, 9, 51, 0
4, 210718, Note_on_c, 9, 35, 0
4, 210816, Note_on_c, 9, 44, 109
4, 210816, Note_on_c, 9, 51, 71
4, 211072, Note_on_c, 9, 51, 0
4, 211200, Note_on_c, 9, 44, 0
4, 211200, Note_on_c, 9, 51, 67
4, 211456, Note_on_c, 9, 51, 0
4, 211584, Note_on_c, 9, 44, 112
4, 211584, Note_on_c, 9, 51, 68
4, 211840, Note_on_c, 9, 51, 0
4, 211840, Note_on_c, 9, 51, 51
4, 211968, Note_on_c, 9, 51, 0
4, 211968, Note_on_c, 9, 44, 0
4, 211968, Note_on_c, 9, 51, 71
4, 212219, Note_on_c, 9, 32, 35
4, 212224, Note_on_c, 9, 51, 0
4, 212302, Note_on_c, 9, 32, 0
4, 212352, Note_on_c, 9, 44, 111
4, 212352, Note_on_c, 9, 51, 73
4, 212381, Note_on_c, 9, 34, 46
4, 212441, Note_on_c, 9, 34, 0
4, 212480, Note_on_c, 9, 51, 0
4, 212608, Note_on_c, 9, 51, 51
4, 212621, Note_on_c, 9, 57, 79
4, 212622, Note_on_c, 9, 35, 69
4, 212626, Note_on_c, 9, 34, 45
4, 212699, Note_on_c, 9, 34, 0
4, 212736, Note_on_c, 9, 44, 0
4, 212736, Note_on_c, 9, 51, 0
4, 212736, Note_on_c, 9, 51, 70
4, 212992, Note_on_c, 9, 51, 0
4, 213120, Note_on_c, 9, 44, 114
4, 213120, Note_on_c, 9, 51, 73
4, 213376, Note_on_c, 9, 51, 0
4, 213504, Note_on_c, 9, 44, 0
4, 213892, Note_on_c, 9, 57, 0
4, 214173, Note_on_c, 9, 35, 0
4, 214173, End_track
5, 0, Start_track
5, 0, MIDI_port, 0
5, 0, Title_t, "dougmck"
5, 0, End_track
6, 0, Start_track
6, 0, MIDI_port, 0
6, 0, Title_t, "@pipeline.com.au"
6, 0, End_track
0, 0, End_of_file
