0, 0, Header, 1, 4, 960
1, 0, Start_track
1, 0, Title_t, "I'll Close My Eyes"
1, 0, Text_t, "Buddy Kaye, Billy Reid"
1, 0, Text_t, "dougmck@pipeline.com.au - done by Keith Jarrett (at The Blue Note)\012"
1, 0, Time_signature, 4, 2, 24, 8
1, 0, Key_signature, 0, "major"
1, 0, Tempo, 333333
1, 1440, Marker_t, "First chorus played freely - Bass plays with a free '2' feel"
1, 1440, End_track
2, 0, Start_track
2, 1558, Note_on_c, 0, 72, 60
2, 1758, Note_on_c, 0, 72, 0
2, 1954, Note_on_c, 0, 82, 83
2, 2263, Note_on_c, 0, 82, 0
2, 2892, Note_on_c, 0, 84, 80
2, 3068, Note_on_c, 0, 84, 0
2, 3853, Note_on_c, 0, 69, 30
2, 3858, Note_on_c, 0, 81, 41
2, 3863, Note_on_c, 0, 53, 30
2, 3867, Note_on_c, 0, 57, 25
2, 3873, Note_on_c, 0, 60, 18
2, 3875, Note_on_c, 0, 76, 52
2, 3894, Note_on_c, 0, 64, 19
2, 4829, Control_c, 0, 64, 127
2, 6491, Note_on_c, 0, 69, 0
2, 6613, Note_on_c, 0, 76, 0
2, 6892, Note_on_c, 0, 64, 0
2, 7016, Note_on_c, 0, 81, 0
2, 7059, Note_on_c, 0, 60, 0
2, 7081, Control_c, 0, 64, 0
2, 7226, Control_c, 0, 64, 127
2, 7231, Note_on_c, 0, 57, 0
2, 7270, Note_on_c, 0, 53, 0
2, 7612, Control_c, 0, 64, 0
2, 8291, Control_c, 0, 64, 127
2, 8536, Control_c, 0, 64, 0
2, 8726, Note_on_c, 0, 72, 96
2, 9166, Note_on_c, 0, 72, 0
2, 9265, Note_on_c, 0, 74, 55
2, 9427, Note_on_c, 0, 72, 55
2, 9494, Note_on_c, 0, 74, 0
2, 9874, Note_on_c, 0, 71, 34
2, 9900, Note_on_c, 0, 72, 0
2, 10267, Note_on_c, 0, 71, 0
2, 10349, Note_on_c, 0, 72, 70
2, 10436, Note_on_c, 0, 60, 22
2, 10540, Note_on_c, 0, 72, 0
2, 10551, Note_on_c, 0, 60, 0
2, 10825, Note_on_c, 0, 82, 72
2, 11224, Note_on_c, 0, 82, 0
2, 11381, Note_on_c, 0, 80, 62
2, 11449, Note_on_c, 0, 62, 42
2, 11478, Note_on_c, 0, 57, 24
2, 11485, Note_on_c, 0, 58, 33
2, 11548, Note_on_c, 0, 52, 24
2, 11724, Note_on_c, 0, 80, 0
2, 11971, Note_on_c, 0, 81, 60
2, 12404, Note_on_c, 0, 81, 0
2, 13570, Note_on_c, 0, 79, 79
2, 14118, Note_on_c, 0, 79, 0
2, 14199, Note_on_c, 0, 76, 55
2, 14401, Note_on_c, 0, 76, 0
2, 14524, Note_on_c, 0, 57, 0
2, 14532, Note_on_c, 0, 58, 0
2, 14554, Note_on_c, 0, 62, 0
2, 14723, Note_on_c, 0, 52, 0
2, 16327, Note_on_c, 0, 64, 41
2, 16356, Note_on_c, 0, 61, 38
2, 16360, Note_on_c, 0, 58, 39
2, 16414, Note_on_c, 0, 55, 31
2, 17283, Note_on_c, 0, 69, 56
2, 17515, Note_on_c, 0, 69, 0
2, 17945, Note_on_c, 0, 79, 82
2, 18018, Note_on_c, 0, 77, 27
2, 18110, Note_on_c, 0, 77, 0
2, 18233, Note_on_c, 0, 79, 0
2, 18304, Note_on_c, 0, 64, 0
2, 18346, Note_on_c, 0, 58, 0
2, 18354, Note_on_c, 0, 61, 0
2, 18409, Note_on_c, 0, 55, 0
2, 18448, Note_on_c, 0, 81, 103
2, 18801, Note_on_c, 0, 81, 0
2, 18994, Note_on_c, 0, 79, 77
2, 19062, Note_on_c, 0, 60, 36
2, 19081, Note_on_c, 0, 50, 40
2, 19093, Note_on_c, 0, 57, 36
2, 19108, Note_on_c, 0, 53, 45
2, 19347, Note_on_c, 0, 79, 0
2, 19567, Note_on_c, 0, 77, 53
2, 20113, Note_on_c, 0, 77, 0
2, 20306, Note_on_c, 0, 76, 57
2, 20733, Note_on_c, 0, 76, 0
2, 20908, Note_on_c, 0, 77, 64
2, 21205, Note_on_c, 0, 77, 0
2, 21285, Note_on_c, 0, 57, 0
2, 21296, Note_on_c, 0, 60, 0
2, 21377, Note_on_c, 0, 74, 36
2, 21413, Note_on_c, 0, 53, 0
2, 21783, Note_on_c, 0, 74, 0
2, 21840, Note_on_c, 0, 50, 0
2, 21932, Note_on_c, 0, 69, 47
2, 22045, Note_on_c, 0, 69, 0
2, 23084, Note_on_c, 0, 64, 50
2, 23157, Note_on_c, 0, 53, 26
2, 23215, Note_on_c, 0, 59, 24
2, 23288, Note_on_c, 0, 53, 0
2, 23294, Note_on_c, 0, 59, 0
2, 23302, Note_on_c, 0, 64, 0
2, 24650, Note_on_c, 0, 59, 50
2, 24652, Note_on_c, 0, 64, 36
2, 24740, Note_on_c, 0, 64, 0
2, 24742, Note_on_c, 0, 59, 0
2, 25003, Note_on_c, 0, 64, 44
2, 25007, Note_on_c, 0, 59, 53
2, 25025, Note_on_c, 0, 89, 78
2, 25027, Note_on_c, 0, 77, 72
2, 25056, Note_on_c, 0, 53, 47
2, 25123, Note_on_c, 0, 64, 0
2, 25143, Note_on_c, 0, 53, 0
2, 25146, Note_on_c, 0, 59, 0
2, 25205, Note_on_c, 0, 77, 0
2, 25257, Note_on_c, 0, 89, 0
2, 25271, Control_c, 0, 64, 127
2, 25416, Control_c, 0, 64, 0
2, 25665, Note_on_c, 0, 59, 66
2, 25672, Note_on_c, 0, 64, 62
2, 25687, Note_on_c, 0, 93, 84
2, 25689, Note_on_c, 0, 53, 64
2, 25704, Note_on_c, 0, 81, 74
2, 25767, Note_on_c, 0, 64, 0
2, 25788, Note_on_c, 0, 53, 0
2, 25849, Note_on_c, 0, 59, 0
2, 25851, Note_on_c, 0, 93, 0
2, 25861, Note_on_c, 0, 81, 0
2, 26397, Note_on_c, 0, 59, 48
2, 26409, Note_on_c, 0, 91, 72
2, 26421, Note_on_c, 0, 79, 68
2, 26436, Note_on_c, 0, 64, 36
2, 26438, Note_on_c, 0, 53, 34
2, 26508, Note_on_c, 0, 59, 0
2, 26528, Note_on_c, 0, 64, 0
2, 26557, Note_on_c, 0, 91, 0
2, 26578, Note_on_c, 0, 53, 0
2, 26607, Note_on_c, 0, 79, 0
2, 26626, Control_c, 0, 64, 127
2, 26919, Control_c, 0, 64, 0
2, 27162, Note_on_c, 0, 62, 44
2, 27168, Note_on_c, 0, 75, 61
2, 27172, Note_on_c, 0, 87, 60
2, 27214, Note_on_c, 0, 57, 25
2, 27216, Note_on_c, 0, 58, 43
2, 27218, Note_on_c, 0, 53, 30
2, 27829, Note_on_c, 0, 57, 0
2, 27873, Note_on_c, 0, 53, 0
2, 27934, Note_on_c, 0, 58, 0
2, 28009, Note_on_c, 0, 62, 0
2, 28489, Note_on_c, 0, 62, 40
2, 28494, Note_on_c, 0, 58, 53
2, 28523, Note_on_c, 0, 67, 49
2, 28545, Note_on_c, 0, 63, 46
2, 28614, Note_on_c, 0, 67, 0
2, 28677, Note_on_c, 0, 62, 0
2, 28690, Note_on_c, 0, 58, 0
2, 28702, Note_on_c, 0, 63, 0
2, 29182, Note_on_c, 0, 67, 57
2, 29212, Note_on_c, 0, 58, 31
2, 29214, Note_on_c, 0, 62, 36
2, 29216, Note_on_c, 0, 63, 40
2, 29316, Note_on_c, 0, 67, 0
2, 29335, Note_on_c, 0, 62, 0
2, 29434, Note_on_c, 0, 58, 0
2, 29463, Note_on_c, 0, 63, 0
2, 29897, Note_on_c, 0, 58, 45
2, 29909, Note_on_c, 0, 67, 32
2, 29932, Note_on_c, 0, 62, 29
2, 29956, Note_on_c, 0, 63, 31
2, 30067, Note_on_c, 0, 67, 0
2, 30113, Note_on_c, 0, 63, 0
2, 30118, Note_on_c, 0, 62, 0
2, 30224, Note_on_c, 0, 58, 0
2, 30569, Note_on_c, 0, 67, 50
2, 30596, Note_on_c, 0, 62, 43
2, 30600, Note_on_c, 0, 63, 36
2, 30635, Note_on_c, 0, 57, 32
2, 31401, Note_on_c, 0, 75, 0
2, 31663, Note_on_c, 0, 87, 0
2, 31789, Note_on_c, 0, 67, 0
2, 31854, Note_on_c, 0, 63, 0
2, 32028, Note_on_c, 0, 62, 0
2, 32101, Control_c, 0, 64, 127
2, 32364, Note_on_c, 0, 63, 45
2, 32366, Note_on_c, 0, 62, 24
2, 32398, Note_on_c, 0, 67, 32
2, 32487, Control_c, 0, 64, 0
2, 32497, Note_on_c, 0, 67, 0
2, 32543, Note_on_c, 0, 62, 0
2, 32618, Note_on_c, 0, 63, 0
2, 32681, Note_on_c, 0, 86, 57
2, 32843, Note_on_c, 0, 86, 0
2, 33060, Note_on_c, 0, 87, 69
2, 33169, Note_on_c, 0, 63, 1
2, 33273, Note_on_c, 0, 87, 0
2, 33398, Note_on_c, 0, 89, 73
2, 33693, Note_on_c, 0, 89, 0
2, 33773, Note_on_c, 0, 86, 39
2, 33775, Note_on_c, 0, 63, 0
2, 33804, Note_on_c, 0, 57, 0
2, 33949, Note_on_c, 0, 86, 0
2, 34087, Note_on_c, 0, 87, 53
2, 34295, Note_on_c, 0, 87, 0
2, 34403, Note_on_c, 0, 89, 74
2, 34679, Note_on_c, 0, 62, 30
2, 34696, Note_on_c, 0, 65, 30
2, 34703, Note_on_c, 0, 60, 20
2, 34710, Note_on_c, 0, 89, 0
2, 34773, Note_on_c, 0, 85, 45
2, 34785, Note_on_c, 0, 55, 26
2, 35090, Note_on_c, 0, 85, 0
2, 35188, Note_on_c, 0, 86, 47
2, 35397, Note_on_c, 0, 86, 0
2, 35587, Note_on_c, 0, 62, 0
2, 35599, Note_on_c, 0, 65, 0
2, 35636, Note_on_c, 0, 60, 0
2, 35643, Note_on_c, 0, 55, 0
2, 36292, Note_on_c, 0, 65, 38
2, 36312, Note_on_c, 0, 62, 37
2, 36341, Note_on_c, 0, 60, 19
2, 36399, Note_on_c, 0, 65, 0
2, 36428, Note_on_c, 0, 62, 0
2, 36459, Note_on_c, 0, 60, 0
2, 37129, Note_on_c, 0, 86, 66
2, 37218, Note_on_c, 0, 62, 37
2, 37281, Note_on_c, 0, 86, 0
2, 37312, Note_on_c, 0, 62, 0
2, 37890, Note_on_c, 0, 93, 74
2, 38051, Note_on_c, 0, 93, 0
2, 38150, Note_on_c, 0, 96, 92
2, 38472, Note_on_c, 0, 60, 26
2, 38475, Note_on_c, 0, 65, 54
2, 38493, Note_on_c, 0, 61, 38
2, 38528, Note_on_c, 0, 55, 37
2, 38530, Note_on_c, 0, 94, 73
2, 38588, Note_on_c, 0, 96, 0
2, 39175, Control_c, 0, 64, 127
2, 40148, Note_on_c, 0, 65, 0
2, 40156, Note_on_c, 0, 55, 0
2, 40185, Note_on_c, 0, 61, 0
2, 40217, Note_on_c, 0, 60, 0
2, 40241, Control_c, 0, 64, 0
2, 40308, Note_on_c, 0, 94, 0
2, 40436, Note_on_c, 0, 61, 38
2, 40438, Note_on_c, 0, 65, 37
2, 40441, Note_on_c, 0, 60, 27
2, 40458, Note_on_c, 0, 89, 58
2, 40465, Note_on_c, 0, 55, 25
2, 40772, Control_c, 0, 64, 127
2, 41023, Note_on_c, 0, 91, 67
2, 41036, Note_on_c, 0, 89, 0
2, 41040, Control_c, 0, 64, 0
2, 41217, Note_on_c, 0, 91, 0
2, 41224, Note_on_c, 0, 65, 0
2, 41226, Note_on_c, 0, 60, 0
2, 41350, Note_on_c, 0, 55, 0
2, 41364, Note_on_c, 0, 61, 0
2, 41410, Note_on_c, 0, 92, 74
2, 41738, Note_on_c, 0, 92, 0
2, 41934, Note_on_c, 0, 94, 82
2, 42007, Note_on_c, 0, 64, 43
2, 42038, Note_on_c, 0, 60, 20
2, 42067, Note_on_c, 0, 57, 33
2, 42074, Note_on_c, 0, 53, 28
2, 42265, Note_on_c, 0, 94, 0
2, 42442, Note_on_c, 0, 93, 71
2, 42809, Note_on_c, 0, 93, 0
2, 43237, Note_on_c, 0, 88, 54
2, 43819, Note_on_c, 0, 88, 0
2, 43939, Note_on_c, 0, 84, 36
2, 44065, Note_on_c, 0, 84, 0
2, 44592, Note_on_c, 0, 57, 0
2, 44626, Note_on_c, 0, 60, 0
2, 44628, Note_on_c, 0, 64, 0
2, 44737, Note_on_c, 0, 53, 0
2, 45848, Note_on_c, 0, 82, 74
2, 45913, Note_on_c, 0, 64, 39
2, 45937, Note_on_c, 0, 60, 24
2, 46017, Note_on_c, 0, 64, 0
2, 46059, Note_on_c, 0, 60, 0
2, 46172, Note_on_c, 0, 82, 0
2, 46275, Note_on_c, 0, 81, 60
2, 46609, Note_on_c, 0, 81, 0
2, 46817, Note_on_c, 0, 74, 35
2, 46962, Note_on_c, 0, 74, 0
2, 48022, Note_on_c, 0, 64, 35
2, 48073, Note_on_c, 0, 60, 24
2, 48136, Note_on_c, 0, 57, 17
2, 48153, Note_on_c, 0, 64, 0
2, 48197, Note_on_c, 0, 60, 0
2, 48244, Note_on_c, 0, 57, 0
2, 49059, Note_on_c, 0, 81, 105
2, 49637, Note_on_c, 0, 81, 0
2, 49668, Note_on_c, 0, 80, 37
2, 49827, Note_on_c, 0, 80, 0
2, 49928, Note_on_c, 0, 62, 44
2, 49955, Note_on_c, 0, 65, 33
2, 50001, Note_on_c, 0, 81, 49
2, 50006, Note_on_c, 0, 57, 22
2, 50126, Note_on_c, 0, 65, 0
2, 50163, Note_on_c, 0, 57, 0
2, 50245, Note_on_c, 0, 62, 0
2, 50465, Note_on_c, 0, 81, 0
2, 50979, Note_on_c, 0, 81, 69
2, 51455, Note_on_c, 0, 81, 0
2, 51620, Note_on_c, 0, 80, 30
2, 51888, Note_on_c, 0, 80, 0
2, 51922, Note_on_c, 0, 62, 35
2, 51931, Note_on_c, 0, 65, 35
2, 51958, Note_on_c, 0, 81, 58
2, 51968, Note_on_c, 0, 57, 33
2, 52146, Note_on_c, 0, 65, 0
2, 52231, Note_on_c, 0, 62, 0
2, 52313, Note_on_c, 0, 81, 0
2, 52318, Note_on_c, 0, 57, 0
2, 52902, Note_on_c, 0, 81, 71
2, 53302, Note_on_c, 0, 81, 0
2, 53584, Note_on_c, 0, 80, 17
2, 53787, Note_on_c, 0, 62, 35
2, 53799, Note_on_c, 0, 80, 0
2, 53840, Note_on_c, 0, 65, 29
2, 53855, Note_on_c, 0, 81, 59
2, 53864, Note_on_c, 0, 56, 32
2, 54111, Note_on_c, 0, 81, 0
2, 54120, Note_on_c, 0, 65, 0
2, 54185, Note_on_c, 0, 56, 0
2, 54243, Note_on_c, 0, 62, 0
2, 55403, Note_on_c, 0, 76, 101
2, 55452, Note_on_c, 0, 62, 53
2, 55462, Note_on_c, 0, 65, 54
2, 55476, Note_on_c, 0, 56, 52
2, 55761, Note_on_c, 0, 65, 0
2, 55782, Note_on_c, 0, 76, 0
2, 55853, Note_on_c, 0, 62, 0
2, 55896, Note_on_c, 0, 75, 61
2, 56145, Note_on_c, 0, 56, 0
2, 56312, Note_on_c, 0, 75, 0
2, 56468, Note_on_c, 0, 56, 50
2, 56474, Note_on_c, 0, 76, 78
2, 56491, Note_on_c, 0, 65, 33
2, 56503, Note_on_c, 0, 62, 20
2, 56599, Note_on_c, 0, 62, 0
2, 56621, Note_on_c, 0, 65, 0
2, 56698, Note_on_c, 0, 76, 0
2, 56793, Note_on_c, 0, 56, 0
2, 57309, Note_on_c, 0, 79, 74
2, 57324, Note_on_c, 0, 69, 76
2, 57334, Note_on_c, 0, 64, 54
2, 57336, Note_on_c, 0, 72, 68
2, 57338, Note_on_c, 0, 57, 34
2, 57341, Note_on_c, 0, 76, 68
2, 57385, Note_on_c, 0, 60, 27
2, 57413, Note_on_c, 0, 55, 35
2, 57457, Note_on_c, 0, 72, 0
2, 57663, Note_on_c, 0, 72, 9
2, 58367, Note_on_c, 0, 60, 0
2, 58430, Note_on_c, 0, 69, 0
2, 58433, Note_on_c, 0, 55, 0
2, 58491, Note_on_c, 0, 64, 0
2, 58508, Note_on_c, 0, 57, 0
2, 58542, Note_on_c, 0, 72, 0
2, 58582, Note_on_c, 0, 76, 0
2, 58621, Note_on_c, 0, 79, 0
2, 58824, Control_c, 0, 64, 127
2, 59479, Control_c, 0, 64, 0
2, 59600, Note_on_c, 0, 86, 71
2, 59607, Note_on_c, 0, 62, 49
2, 59620, Note_on_c, 0, 74, 60
2, 59621, Note_on_c, 0, 67, 47
2, 59627, Note_on_c, 0, 83, 54
2, 59641, Note_on_c, 0, 56, 45
2, 59651, Note_on_c, 0, 79, 52
2, 59742, Note_on_c, 0, 79, 0
2, 60066, Control_c, 0, 64, 127
2, 60088, Note_on_c, 0, 79, 1
2, 60332, Note_on_c, 0, 67, 0
2, 60349, Note_on_c, 0, 62, 0
2, 60407, Control_c, 0, 64, 0
2, 60554, Note_on_c, 0, 56, 0
2, 60962, Control_c, 0, 64, 127
2, 61300, Control_c, 0, 64, 0
2, 61642, Control_c, 0, 64, 127
2, 61697, Note_on_c, 0, 83, 0
2, 61799, Note_on_c, 0, 86, 0
2, 61801, Note_on_c, 0, 79, 0
2, 61803, Note_on_c, 0, 74, 0
2, 62100, Control_c, 0, 64, 0
2, 62490, Note_on_c, 0, 62, 45
2, 62492, Note_on_c, 0, 84, 66
2, 62508, Note_on_c, 0, 79, 58
2, 62511, Note_on_c, 0, 72, 61
2, 62516, Note_on_c, 0, 53, 37
2, 62524, Note_on_c, 0, 58, 42
2, 62538, Control_c, 0, 64, 127
2, 62540, Note_on_c, 0, 57, 31
2, 63045, Control_c, 0, 64, 0
2, 63241, Note_on_c, 0, 57, 0
2, 63262, Note_on_c, 0, 72, 0
2, 63335, Control_c, 0, 64, 127
2, 63337, Note_on_c, 0, 79, 0
2, 63357, Note_on_c, 0, 84, 0
2, 63458, Note_on_c, 0, 58, 0
2, 63470, Note_on_c, 0, 53, 0
2, 63623, Note_on_c, 0, 62, 0
2, 64076, Note_on_c, 0, 88, 68
2, 64093, Note_on_c, 0, 64, 51
2, 64096, Note_on_c, 0, 80, 60
2, 64101, Note_on_c, 0, 84, 66
2, 64110, Control_c, 0, 64, 0
2, 64123, Note_on_c, 0, 61, 52
2, 64125, Note_on_c, 0, 58, 55
2, 64130, Note_on_c, 0, 76, 60
2, 64847, Note_on_c, 0, 88, 0
2, 64891, Note_on_c, 0, 84, 0
2, 64911, Note_on_c, 0, 76, 0
2, 65120, Note_on_c, 0, 64, 0
2, 65275, Note_on_c, 0, 80, 0
2, 65295, Note_on_c, 0, 58, 0
2, 65301, Note_on_c, 0, 61, 0
2, 65422, Note_on_c, 0, 64, 41
2, 65444, Note_on_c, 0, 84, 68
2, 65451, Note_on_c, 0, 74, 59
2, 65457, Note_on_c, 0, 79, 64
2, 65461, Note_on_c, 0, 60, 31
2, 65495, Note_on_c, 0, 57, 37
2, 65515, Note_on_c, 0, 53, 26
2, 68034, Note_on_c, 0, 64, 0
2, 68048, Note_on_c, 0, 60, 0
2, 68085, Note_on_c, 0, 57, 0
2, 68215, Note_on_c, 0, 64, 57
2, 68237, Note_on_c, 0, 60, 37
2, 68254, Note_on_c, 0, 57, 58
2, 68305, Note_on_c, 0, 64, 0
2, 68338, Note_on_c, 0, 57, 0
2, 68344, Note_on_c, 0, 60, 0
2, 68356, Note_on_c, 0, 53, 0
2, 69762, Note_on_c, 0, 64, 50
2, 69772, Note_on_c, 0, 60, 29
2, 69774, Note_on_c, 0, 74, 0
2, 69790, Note_on_c, 0, 79, 0
2, 69803, Note_on_c, 0, 53, 33
2, 69805, Note_on_c, 0, 57, 34
2, 69807, Note_on_c, 0, 84, 0
2, 70776, Note_on_c, 0, 72, 57
2, 71035, Note_on_c, 0, 72, 0
2, 71139, Note_on_c, 0, 82, 85
2, 71591, Note_on_c, 0, 82, 0
2, 71721, Note_on_c, 0, 72, 55
2, 71837, Note_on_c, 0, 72, 0
2, 71955, Note_on_c, 0, 64, 0
2, 72023, Note_on_c, 0, 60, 0
2, 72081, Note_on_c, 0, 57, 0
2, 72156, Note_on_c, 0, 79, 51
2, 72228, Note_on_c, 0, 53, 0
2, 72405, Note_on_c, 0, 79, 0
2, 72682, Note_on_c, 0, 82, 81
2, 72794, Note_on_c, 0, 57, 31
2, 72806, Note_on_c, 0, 62, 35
2, 72859, Note_on_c, 0, 52, 26
2, 72900, Note_on_c, 0, 58, 21
2, 72965, Note_on_c, 0, 82, 0
2, 73163, Note_on_c, 0, 81, 68
2, 73613, Note_on_c, 0, 81, 0
2, 73951, Note_on_c, 0, 79, 60
2, 74041, Note_on_c, 0, 62, 0
2, 74079, Note_on_c, 0, 58, 0
2, 74265, Note_on_c, 0, 57, 0
2, 74400, Note_on_c, 0, 79, 0
2, 74596, Note_on_c, 0, 76, 54
2, 74674, Note_on_c, 0, 58, 37
2, 74683, Note_on_c, 0, 62, 31
2, 74802, Note_on_c, 0, 76, 0
2, 75077, Note_on_c, 0, 67, 39
2, 75591, Note_on_c, 0, 67, 0
2, 75816, Note_on_c, 0, 52, 0
2, 75847, Note_on_c, 0, 67, 55
2, 75911, Note_on_c, 0, 58, 0
2, 76057, Note_on_c, 0, 62, 0
2, 76372, Note_on_c, 0, 67, 0
2, 76805, Control_c, 0, 64, 127
2, 77360, Control_c, 0, 64, 0
2, 77432, Note_on_c, 0, 61, 42
2, 77438, Note_on_c, 0, 64, 31
2, 77450, Note_on_c, 0, 58, 37
2, 77554, Note_on_c, 0, 64, 0
2, 77607, Note_on_c, 0, 61, 0
2, 77648, Note_on_c, 0, 58, 0
2, 78831, Note_on_c, 0, 79, 74
2, 79179, Note_on_c, 0, 79, 0
2, 79249, Control_c, 0, 64, 127
2, 79385, Note_on_c, 0, 81, 92
2, 79433, Note_on_c, 0, 64, 55
2, 79442, Control_c, 0, 64, 0
2, 79447, Note_on_c, 0, 61, 46
2, 79454, Note_on_c, 0, 80, 35
2, 79510, Note_on_c, 0, 58, 31
2, 79523, Note_on_c, 0, 64, 0
2, 79535, Note_on_c, 0, 80, 0
2, 79595, Note_on_c, 0, 61, 0
2, 79602, Note_on_c, 0, 58, 0
2, 79689, Note_on_c, 0, 81, 0
2, 79783, Note_on_c, 0, 79, 66
2, 80174, Note_on_c, 0, 79, 0
2, 80293, Note_on_c, 0, 78, 71
2, 80334, Note_on_c, 0, 60, 41
2, 80387, Note_on_c, 0, 57, 33
2, 80397, Note_on_c, 0, 53, 46
2, 80433, Note_on_c, 0, 60, 0
2, 80511, Note_on_c, 0, 53, 0
2, 80551, Note_on_c, 0, 57, 0
2, 80609, Note_on_c, 0, 78, 0
2, 80715, Note_on_c, 0, 77, 60
2, 81199, Note_on_c, 0, 77, 0
2, 82160, Note_on_c, 0, 60, 36
2, 82201, Note_on_c, 0, 57, 31
2, 82247, Note_on_c, 0, 53, 35
2, 82260, Note_on_c, 0, 60, 0
2, 82322, Note_on_c, 0, 57, 0
2, 82371, Note_on_c, 0, 53, 0
2, 83217, Note_on_c, 0, 72, 84
2, 83473, Note_on_c, 0, 72, 0
2, 83664, Note_on_c, 0, 69, 38
2, 84006, Note_on_c, 0, 69, 0
2, 85171, Note_on_c, 0, 60, 27
2, 85185, Note_on_c, 0, 57, 30
2, 85187, Note_on_c, 0, 53, 39
2, 85253, Note_on_c, 0, 60, 0
2, 85299, Note_on_c, 0, 57, 0
2, 85326, Note_on_c, 0, 53, 0
2, 87019, Note_on_c, 0, 64, 41
2, 87048, Note_on_c, 0, 59, 38
2, 87137, Note_on_c, 0, 64, 0
2, 87155, Note_on_c, 0, 59, 0
2, 87466, Note_on_c, 0, 65, 57
2, 87707, Note_on_c, 0, 65, 0
2, 88002, Note_on_c, 0, 69, 85
2, 88015, Note_on_c, 0, 64, 51
2, 88053, Note_on_c, 0, 59, 44
2, 88106, Note_on_c, 0, 64, 0
2, 88251, Note_on_c, 0, 59, 0
2, 88350, Note_on_c, 0, 69, 0
2, 88479, Note_on_c, 0, 65, 55
2, 88865, Note_on_c, 0, 65, 0
2, 88944, Note_on_c, 0, 64, 53
2, 89297, Note_on_c, 0, 64, 0
2, 89428, Note_on_c, 0, 63, 26
2, 89954, Note_on_c, 0, 63, 0
2, 90283, Note_on_c, 0, 63, 56
2, 90849, Note_on_c, 0, 55, 34
2, 90991, Note_on_c, 0, 55, 0
2, 91774, Note_on_c, 0, 63, 0
2, 91889, Note_on_c, 0, 62, 62
2, 91989, Note_on_c, 0, 57, 36
2, 92153, Note_on_c, 0, 62, 0
2, 92155, Note_on_c, 0, 51, 29
2, 92254, Note_on_c, 0, 57, 0
2, 92339, Note_on_c, 0, 63, 63
2, 92399, Note_on_c, 0, 51, 0
2, 92655, Note_on_c, 0, 63, 0
2, 92852, Note_on_c, 0, 64, 82
2, 93011, Note_on_c, 0, 57, 24
2, 93100, Note_on_c, 0, 64, 0
2, 93146, Note_on_c, 0, 57, 0
2, 93231, Note_on_c, 0, 65, 85
2, 93745, Note_on_c, 0, 65, 0
2, 93755, Note_on_c, 0, 62, 57
2, 93810, Note_on_c, 0, 57, 39
2, 94008, Note_on_c, 0, 62, 0
2, 94035, Note_on_c, 0, 57, 0
2, 94175, Note_on_c, 0, 63, 69
2, 94683, Note_on_c, 0, 63, 0
2, 94724, Note_on_c, 0, 60, 46
2, 94949, Note_on_c, 0, 60, 0
2, 95103, Note_on_c, 0, 57, 25
2, 95480, Control_c, 0, 64, 127
2, 95506, Note_on_c, 0, 57, 0
2, 95770, Note_on_c, 0, 53, 30
2, 95818, Control_c, 0, 64, 0
2, 96030, Note_on_c, 0, 53, 0
2, 96045, Note_on_c, 0, 61, 61
2, 96538, Note_on_c, 0, 61, 0
2, 96618, Note_on_c, 0, 62, 67
2, 96755, Note_on_c, 0, 53, 26
2, 96874, Note_on_c, 0, 62, 0
2, 96908, Note_on_c, 0, 53, 0
2, 97016, Note_on_c, 0, 65, 87
2, 97362, Note_on_c, 0, 65, 0
2, 97598, Note_on_c, 0, 72, 95
2, 97966, Note_on_c, 0, 72, 0
2, 98219, Note_on_c, 0, 72, 82
2, 98735, Note_on_c, 0, 72, 0
2, 98910, Note_on_c, 0, 70, 56
2, 99159, Control_c, 0, 64, 127
2, 99374, Note_on_c, 0, 70, 0
2, 99452, Control_c, 0, 64, 0
2, 99563, Note_on_c, 0, 72, 73
2, 99575, Note_on_c, 0, 61, 35
2, 99578, Note_on_c, 0, 65, 50
2, 99587, Note_on_c, 0, 60, 24
2, 99630, Note_on_c, 0, 55, 34
2, 101013, Note_on_c, 0, 55, 0
2, 101013, Note_on_c, 0, 65, 0
2, 101070, Note_on_c, 0, 60, 0
2, 101172, Control_c, 0, 64, 127
2, 101211, Note_on_c, 0, 72, 0
2, 101220, Note_on_c, 0, 61, 0
2, 101401, Note_on_c, 0, 70, 69
2, 101450, Note_on_c, 0, 60, 39
2, 101454, Note_on_c, 0, 61, 51
2, 101534, Control_c, 0, 64, 0
2, 101665, Note_on_c, 0, 61, 0
2, 101815, Note_on_c, 0, 65, 48
2, 101817, Note_on_c, 0, 55, 1
2, 101947, Note_on_c, 0, 70, 0
2, 102013, Note_on_c, 0, 60, 0
2, 102228, Note_on_c, 0, 55, 0
2, 102307, Note_on_c, 0, 65, 0
2, 102426, Note_on_c, 0, 61, 37
2, 102607, Note_on_c, 0, 61, 0
2, 102723, Note_on_c, 0, 67, 78
2, 103351, Control_c, 0, 64, 127
2, 103424, Control_c, 0, 64, 0
2, 103443, Note_on_c, 0, 67, 0
2, 103690, Note_on_c, 0, 68, 54
2, 103730, Note_on_c, 0, 63, 23
2, 103827, Note_on_c, 0, 57, 16
2, 104136, Note_on_c, 0, 68, 0
2, 104264, Note_on_c, 0, 55, 1
2, 104303, Note_on_c, 0, 69, 55
2, 104513, Note_on_c, 0, 69, 0
2, 104704, Note_on_c, 0, 63, 0
2, 104736, Note_on_c, 0, 72, 50
2, 104835, Note_on_c, 0, 57, 0
2, 104912, Note_on_c, 0, 55, 0
2, 105286, Note_on_c, 0, 63, 55
2, 105292, Note_on_c, 0, 60, 29
2, 105293, Note_on_c, 0, 75, 49
2, 105311, Note_on_c, 0, 57, 32
2, 105335, Note_on_c, 0, 76, 74
2, 105354, Note_on_c, 0, 72, 0
2, 105383, Note_on_c, 0, 75, 0
2, 105422, Note_on_c, 0, 76, 0
2, 105694, Note_on_c, 0, 63, 0
2, 105748, Note_on_c, 0, 79, 53
2, 105896, Note_on_c, 0, 60, 0
2, 106074, Note_on_c, 0, 79, 0
2, 106210, Note_on_c, 0, 63, 61
2, 106212, Note_on_c, 0, 84, 81
2, 106215, Note_on_c, 0, 55, 15
2, 106260, Note_on_c, 0, 60, 25
2, 106460, Note_on_c, 0, 63, 0
2, 106465, Note_on_c, 0, 84, 0
2, 106500, Note_on_c, 0, 55, 0
2, 106618, Note_on_c, 0, 87, 65
2, 106635, Note_on_c, 0, 60, 0
2, 106637, Note_on_c, 0, 57, 0
2, 106840, Control_c, 0, 64, 127
2, 106864, Note_on_c, 0, 87, 0
2, 107154, Note_on_c, 0, 65, 72
2, 107156, Note_on_c, 0, 81, 69
2, 107159, Note_on_c, 0, 60, 36
2, 107164, Note_on_c, 0, 93, 75
2, 107179, Control_c, 0, 64, 0
2, 107180, Note_on_c, 0, 54, 45
2, 107383, Note_on_c, 0, 93, 0
2, 107420, Note_on_c, 0, 81, 0
2, 107485, Note_on_c, 0, 65, 0
2, 107535, Note_on_c, 0, 54, 0
2, 107603, Note_on_c, 0, 60, 0
2, 107780, Note_on_c, 0, 92, 60
2, 107797, Note_on_c, 0, 80, 53
2, 107808, Note_on_c, 0, 60, 43
2, 107824, Note_on_c, 0, 54, 60
2, 107825, Note_on_c, 0, 65, 62
2, 107995, Note_on_c, 0, 90, 18
2, 108086, Note_on_c, 0, 92, 0
2, 108099, Control_c, 0, 64, 127
2, 108104, Note_on_c, 0, 93, 59
2, 108113, Note_on_c, 0, 80, 0
2, 108162, Note_on_c, 0, 81, 53
2, 108210, Note_on_c, 0, 93, 0
2, 108244, Control_c, 0, 64, 0
2, 108287, Note_on_c, 0, 81, 0
2, 108309, Note_on_c, 0, 65, 0
2, 108347, Note_on_c, 0, 90, 0
2, 108350, Note_on_c, 0, 54, 0
2, 108352, Note_on_c, 0, 60, 0
2, 108608, Note_on_c, 0, 60, 37
2, 108611, Note_on_c, 0, 65, 68
2, 108613, Note_on_c, 0, 54, 74
2, 108630, Note_on_c, 0, 96, 80
2, 108635, Note_on_c, 0, 84, 73
2, 108669, Note_on_c, 0, 86, 68
2, 108748, Note_on_c, 0, 86, 0
2, 109073, Note_on_c, 0, 96, 0
2, 109079, Note_on_c, 0, 65, 0
2, 109082, Note_on_c, 0, 84, 0
2, 109113, Note_on_c, 0, 54, 0
2, 109155, Note_on_c, 0, 60, 0
2, 109302, Note_on_c, 0, 65, 68
2, 109306, Note_on_c, 0, 84, 64
2, 109312, Note_on_c, 0, 96, 69
2, 109331, Note_on_c, 0, 60, 54
2, 109336, Note_on_c, 0, 54, 58
2, 109570, Note_on_c, 0, 96, 0
2, 109667, Note_on_c, 0, 84, 0
2, 109686, Note_on_c, 0, 65, 0
2, 109724, Note_on_c, 0, 54, 0
2, 109736, Note_on_c, 0, 60, 0
2, 109939, Note_on_c, 0, 94, 51
2, 109954, Note_on_c, 0, 54, 55
2, 109957, Note_on_c, 0, 60, 44
2, 109959, Note_on_c, 0, 65, 39
2, 109993, Note_on_c, 0, 82, 54
2, 110037, Control_c, 0, 64, 127
2, 110177, Note_on_c, 0, 65, 0
2, 110261, Note_on_c, 0, 94, 0
2, 110292, Note_on_c, 0, 82, 0
2, 110302, Control_c, 0, 64, 0
2, 110317, Note_on_c, 0, 54, 0
2, 110339, Note_on_c, 0, 60, 0
2, 110548, Note_on_c, 0, 54, 53
2, 110565, Note_on_c, 0, 60, 31
2, 110572, Note_on_c, 0, 65, 34
2, 110578, Note_on_c, 0, 94, 46
2, 110584, Note_on_c, 0, 82, 57
2, 110642, Note_on_c, 0, 92, 34
2, 110706, Note_on_c, 0, 65, 0
2, 110716, Control_c, 0, 64, 127
2, 110718, Note_on_c, 0, 94, 0
2, 110790, Note_on_c, 0, 60, 0
2, 110874, Note_on_c, 0, 82, 0
2, 110884, Note_on_c, 0, 92, 0
2, 111003, Note_on_c, 0, 54, 0
2, 111126, Control_c, 0, 64, 0
2, 111179, Note_on_c, 0, 93, 62
2, 111188, Note_on_c, 0, 64, 43
2, 111193, Note_on_c, 0, 81, 54
2, 111208, Note_on_c, 0, 53, 46
2, 111213, Note_on_c, 0, 59, 49
2, 111228, Note_on_c, 0, 86, 49
2, 112336, Control_c, 0, 64, 127
2, 112384, Control_c, 0, 64, 0
2, 112663, Note_on_c, 0, 93, 0
2, 112759, Note_on_c, 0, 64, 0
2, 112774, Control_c, 0, 64, 127
2, 112800, Note_on_c, 0, 59, 0
2, 112868, Note_on_c, 0, 86, 0
2, 112955, Note_on_c, 0, 81, 0
2, 112998, Note_on_c, 0, 64, 47
2, 113023, Note_on_c, 0, 59, 45
2, 113170, Note_on_c, 0, 64, 0
2, 113257, Control_c, 0, 64, 0
2, 113351, Note_on_c, 0, 85, 36
2, 113503, Note_on_c, 0, 85, 0
2, 113511, Note_on_c, 0, 59, 0
2, 113542, Note_on_c, 0, 86, 55
2, 113788, Note_on_c, 0, 86, 0
2, 113796, Note_on_c, 0, 53, 0
2, 113987, Note_on_c, 0, 89, 82
2, 114006, Note_on_c, 0, 64, 52
2, 114011, Note_on_c, 0, 59, 55
2, 114020, Note_on_c, 0, 53, 62
2, 114141, Note_on_c, 0, 64, 0
2, 114233, Note_on_c, 0, 89, 0
2, 114283, Note_on_c, 0, 59, 0
2, 114358, Note_on_c, 0, 91, 83
2, 114452, Note_on_c, 0, 53, 0
2, 114784, Control_c, 0, 64, 127
2, 114979, Note_on_c, 0, 91, 0
2, 115098, Control_c, 0, 64, 0
2, 115344, Note_on_c, 0, 81, 67
2, 115349, Note_on_c, 0, 62, 68
2, 115361, Note_on_c, 0, 57, 50
2, 115371, Note_on_c, 0, 58, 62
2, 115376, Note_on_c, 0, 91, 54
2, 115392, Note_on_c, 0, 93, 78
2, 115429, Note_on_c, 0, 89, 24
2, 115511, Note_on_c, 0, 89, 0
2, 115641, Note_on_c, 0, 91, 0
2, 115874, Note_on_c, 0, 93, 0
2, 115891, Note_on_c, 0, 81, 0
2, 115929, Note_on_c, 0, 62, 0
2, 115990, Note_on_c, 0, 58, 0
2, 116006, Note_on_c, 0, 57, 0
2, 116277, Note_on_c, 0, 57, 38
2, 116291, Note_on_c, 0, 62, 54
2, 116298, Note_on_c, 0, 91, 68
2, 116310, Note_on_c, 0, 86, 71
2, 116318, Note_on_c, 0, 79, 60
2, 116323, Note_on_c, 0, 58, 42
2, 116571, Note_on_c, 0, 79, 0
2, 116629, Note_on_c, 0, 62, 0
2, 116666, Note_on_c, 0, 86, 0
2, 116685, Note_on_c, 0, 57, 0
2, 116714, Note_on_c, 0, 58, 0
2, 116719, Note_on_c, 0, 91, 0
2, 117260, Note_on_c, 0, 93, 74
2, 117265, Note_on_c, 0, 81, 73
2, 117267, Note_on_c, 0, 62, 67
2, 117272, Note_on_c, 0, 88, 57
2, 117286, Note_on_c, 0, 58, 53
2, 117291, Note_on_c, 0, 52, 60
2, 117308, Note_on_c, 0, 85, 52
2, 117835, Control_c, 0, 64, 127
2, 118130, Note_on_c, 0, 93, 0
2, 118221, Note_on_c, 0, 88, 0
2, 118246, Note_on_c, 0, 81, 0
2, 118376, Note_on_c, 0, 62, 0
2, 118473, Note_on_c, 0, 58, 0
2, 118608, Note_on_c, 0, 85, 0
2, 118644, Note_on_c, 0, 52, 0
2, 119152, Note_on_c, 0, 89, 78
2, 119174, Note_on_c, 0, 79, 71
2, 119181, Note_on_c, 0, 84, 74
2, 119266, Control_c, 0, 64, 0
2, 119381, Note_on_c, 0, 79, 0
2, 119391, Note_on_c, 0, 89, 0
2, 119408, Note_on_c, 0, 84, 0
2, 119763, Note_on_c, 0, 48, 64
2, 119809, Note_on_c, 0, 47, 53
2, 119896, Note_on_c, 0, 47, 0
2, 120824, Note_on_c, 0, 47, 37
2, 121048, Note_on_c, 0, 62, 83
2, 121084, Note_on_c, 0, 47, 0
2, 121582, Note_on_c, 0, 62, 0
2, 121681, Note_on_c, 0, 59, 24
2, 121920, Note_on_c, 0, 59, 0
2, 121995, Note_on_c, 0, 60, 32
2, 122556, Note_on_c, 0, 60, 0
2, 122609, Note_on_c, 0, 62, 50
2, 122918, Note_on_c, 0, 62, 0
2, 123597, Note_on_c, 0, 47, 31
2, 123791, Note_on_c, 0, 47, 0
2, 123880, Note_on_c, 0, 65, 80
2, 124421, Note_on_c, 0, 65, 0
2, 124443, Note_on_c, 0, 62, 41
2, 124692, Note_on_c, 0, 62, 0
2, 124808, Note_on_c, 0, 64, 48
2, 125160, Note_on_c, 0, 64, 0
2, 125400, Note_on_c, 0, 65, 54
2, 125523, Note_on_c, 0, 48, 0
2, 125709, Note_on_c, 0, 65, 0
2, 125803, Note_on_c, 0, 67, 43
2, 126165, Note_on_c, 0, 67, 0
2, 126332, Note_on_c, 0, 68, 51
2, 126615, Note_on_c, 0, 68, 0
2, 126772, Note_on_c, 0, 69, 42
2, 127117, Note_on_c, 0, 69, 0
2, 127344, Note_on_c, 0, 74, 69
2, 127661, Note_on_c, 0, 74, 0
2, 127806, Note_on_c, 0, 72, 38
2, 128142, Note_on_c, 0, 72, 0
2, 128335, Note_on_c, 0, 69, 66
2, 128516, Note_on_c, 0, 69, 0
2, 128724, Note_on_c, 0, 64, 36
2, 129357, Note_on_c, 0, 64, 0
2, 129606, Note_on_c, 0, 64, 46
2, 130297, Note_on_c, 0, 60, 22
2, 130347, Note_on_c, 0, 64, 0
2, 130430, Note_on_c, 0, 60, 0
2, 130613, Note_on_c, 0, 64, 45
2, 132259, Note_on_c, 0, 57, 22
2, 132387, Note_on_c, 0, 57, 0
2, 134462, Note_on_c, 0, 57, 27
2, 134484, Note_on_c, 0, 58, 36
2, 134503, Note_on_c, 0, 52, 36
2, 134528, Note_on_c, 0, 62, 24
2, 134544, Note_on_c, 0, 64, 0
2, 134660, Note_on_c, 0, 62, 0
2, 134713, Note_on_c, 0, 57, 0
2, 134737, Note_on_c, 0, 58, 0
2, 134755, Note_on_c, 0, 52, 0
2, 136100, Note_on_c, 0, 62, 52
2, 136110, Note_on_c, 0, 57, 36
2, 136124, Note_on_c, 0, 58, 43
2, 136180, Note_on_c, 0, 62, 0
2, 136212, Note_on_c, 0, 57, 0
2, 136233, Note_on_c, 0, 58, 0
2, 136453, Note_on_c, 0, 67, 43
2, 136798, Note_on_c, 0, 67, 0
2, 137045, Note_on_c, 0, 69, 62
2, 137304, Note_on_c, 0, 69, 0
2, 137482, Note_on_c, 0, 70, 38
2, 137902, Note_on_c, 0, 70, 0
2, 137994, Note_on_c, 0, 74, 68
2, 138047, Note_on_c, 0, 61, 64
2, 138065, Note_on_c, 0, 66, 53
2, 138144, Note_on_c, 0, 66, 0
2, 138226, Note_on_c, 0, 74, 0
2, 138258, Note_on_c, 0, 61, 0
2, 138424, Note_on_c, 0, 77, 54
2, 138784, Note_on_c, 0, 77, 0
2, 139002, Note_on_c, 0, 81, 83
2, 139214, Note_on_c, 0, 81, 0
2, 139432, Note_on_c, 0, 84, 101
2, 139946, Note_on_c, 0, 82, 63
2, 139953, Note_on_c, 0, 65, 54
2, 139963, Note_on_c, 0, 61, 61
2, 139993, Note_on_c, 0, 84, 0
2, 140048, Note_on_c, 0, 65, 0
2, 140180, Note_on_c, 0, 61, 0
2, 140254, Note_on_c, 0, 82, 0
2, 140434, Note_on_c, 0, 81, 56
2, 140841, Note_on_c, 0, 81, 0
2, 140913, Note_on_c, 0, 79, 53
2, 140925, Note_on_c, 0, 61, 40
2, 141004, Note_on_c, 0, 61, 0
2, 141142, Note_on_c, 0, 79, 0
2, 141263, Note_on_c, 0, 77, 35
2, 141884, Note_on_c, 0, 77, 0
2, 141899, Note_on_c, 0, 76, 66
2, 141901, Note_on_c, 0, 60, 55
2, 141903, Note_on_c, 0, 57, 59
2, 141945, Note_on_c, 0, 53, 54
2, 141980, Note_on_c, 0, 60, 0
2, 141992, Note_on_c, 0, 76, 0
2, 142012, Note_on_c, 0, 57, 0
2, 142026, Note_on_c, 0, 53, 0
2, 142211, Note_on_c, 0, 79, 68
2, 142802, Note_on_c, 0, 79, 0
2, 142894, Note_on_c, 0, 76, 40
2, 142995, Note_on_c, 0, 76, 0
2, 143193, Note_on_c, 0, 77, 49
2, 143665, Note_on_c, 0, 77, 0
2, 143809, Note_on_c, 0, 74, 49
2, 143858, Note_on_c, 0, 60, 34
2, 143872, Note_on_c, 0, 57, 31
2, 143887, Note_on_c, 0, 53, 34
2, 143937, Note_on_c, 0, 60, 0
2, 143943, Note_on_c, 0, 74, 0
2, 143993, Note_on_c, 0, 57, 0
2, 144006, Note_on_c, 0, 53, 0
2, 144428, Note_on_c, 0, 69, 2
2, 144598, Note_on_c, 0, 69, 0
2, 144791, Note_on_c, 0, 69, 51
2, 144875, Note_on_c, 0, 69, 0
2, 146011, Note_on_c, 0, 65, 46
2, 146030, Note_on_c, 0, 60, 29
2, 146080, Note_on_c, 0, 54, 31
2, 146225, Note_on_c, 0, 65, 0
2, 146277, Note_on_c, 0, 60, 0
2, 146335, Note_on_c, 0, 54, 0
2, 147552, Note_on_c, 0, 64, 51
2, 147584, Note_on_c, 0, 59, 49
2, 147706, Note_on_c, 0, 64, 0
2, 147709, Note_on_c, 0, 59, 0
2, 148537, Note_on_c, 0, 67, 66
2, 148540, Note_on_c, 0, 62, 56
2, 148610, Note_on_c, 0, 63, 31
2, 148620, Note_on_c, 0, 67, 0
2, 148692, Note_on_c, 0, 63, 0
2, 148694, Note_on_c, 0, 62, 0
2, 148842, Note_on_c, 0, 74, 123
2, 149296, Note_on_c, 0, 74, 0
2, 149460, Note_on_c, 0, 77, 77
2, 149547, Note_on_c, 0, 62, 24
2, 149700, Note_on_c, 0, 62, 0
2, 149813, Note_on_c, 0, 75, 51
2, 149869, Note_on_c, 0, 77, 0
2, 150278, Note_on_c, 0, 75, 0
2, 150420, Note_on_c, 0, 70, 53
2, 150485, Note_on_c, 0, 62, 19
2, 150620, Note_on_c, 0, 70, 0
2, 150721, Note_on_c, 0, 67, 44
2, 150750, Note_on_c, 0, 62, 0
2, 151207, Note_on_c, 0, 67, 0
2, 151331, Note_on_c, 0, 63, 33
2, 151410, Note_on_c, 0, 63, 0
2, 151749, Note_on_c, 0, 67, 51
2, 152004, Note_on_c, 0, 67, 0
2, 152403, Note_on_c, 0, 67, 35
2, 152430, Note_on_c, 0, 62, 30
2, 152442, Note_on_c, 0, 63, 32
2, 152500, Note_on_c, 0, 67, 0
2, 152524, Note_on_c, 0, 62, 0
2, 152640, Note_on_c, 0, 63, 0
2, 153372, Note_on_c, 0, 66, 68
2, 153394, Note_on_c, 0, 61, 50
2, 153409, Note_on_c, 0, 63, 56
2, 153430, Note_on_c, 0, 57, 43
2, 154213, Note_on_c, 0, 63, 0
2, 154379, Note_on_c, 0, 63, 21
2, 154442, Note_on_c, 0, 66, 0
2, 154636, Note_on_c, 0, 75, 81
2, 154846, Note_on_c, 0, 63, 0
2, 154906, Note_on_c, 0, 61, 0
2, 155046, Note_on_c, 0, 57, 0
2, 155179, Note_on_c, 0, 75, 0
2, 155295, Note_on_c, 0, 71, 28
2, 155341, Note_on_c, 0, 63, 30
2, 155343, Note_on_c, 0, 61, 21
2, 155448, Note_on_c, 0, 71, 0
2, 155576, Note_on_c, 0, 73, 43
2, 155582, Note_on_c, 0, 63, 0
2, 155605, Note_on_c, 0, 61, 0
2, 156131, Note_on_c, 0, 73, 0
2, 156196, Note_on_c, 0, 66, 65
2, 156216, Note_on_c, 0, 75, 73
2, 156235, Note_on_c, 0, 57, 40
2, 156238, Note_on_c, 0, 63, 58
2, 156250, Note_on_c, 0, 61, 47
2, 156547, Note_on_c, 0, 75, 0
2, 156586, Note_on_c, 0, 76, 76
2, 156660, Note_on_c, 0, 66, 0
2, 156839, Note_on_c, 0, 57, 0
2, 156972, Note_on_c, 0, 61, 0
2, 156996, Note_on_c, 0, 63, 0
2, 157044, Note_on_c, 0, 76, 0
2, 157156, Note_on_c, 0, 77, 84
2, 157231, Note_on_c, 0, 65, 59
2, 157264, Note_on_c, 0, 62, 51
2, 157284, Note_on_c, 0, 60, 31
2, 157472, Note_on_c, 0, 65, 0
2, 157481, Note_on_c, 0, 77, 0
2, 157593, Note_on_c, 0, 74, 55
2, 158028, Note_on_c, 0, 74, 0
2, 158131, Note_on_c, 0, 70, 58
2, 158366, Note_on_c, 0, 70, 0
2, 159156, Note_on_c, 0, 65, 40
2, 159255, Note_on_c, 0, 65, 0
2, 159342, Note_on_c, 0, 53, 28
2, 159417, Note_on_c, 0, 72, 68
2, 159617, Note_on_c, 0, 53, 0
2, 159835, Note_on_c, 0, 60, 0
2, 159971, Note_on_c, 0, 62, 0
2, 159995, Note_on_c, 0, 53, 27
2, 159997, Note_on_c, 0, 72, 0
2, 160139, Note_on_c, 0, 69, 20
2, 160246, Note_on_c, 0, 69, 0
2, 160272, Note_on_c, 0, 53, 0
2, 160381, Note_on_c, 0, 70, 64
2, 160869, Note_on_c, 0, 70, 0
2, 161018, Note_on_c, 0, 72, 69
2, 161485, Note_on_c, 0, 72, 0
2, 161509, Note_on_c, 0, 69, 45
2, 161953, Note_on_c, 0, 65, 62
2, 161985, Note_on_c, 0, 58, 34
2, 162086, Note_on_c, 0, 69, 0
2, 162174, Note_on_c, 0, 58, 0
2, 162203, Note_on_c, 0, 65, 0
2, 162326, Note_on_c, 0, 61, 38
2, 162780, Note_on_c, 0, 61, 0
2, 163894, Note_on_c, 0, 51, 51
2, 163901, Note_on_c, 0, 58, 43
2, 164015, Note_on_c, 0, 58, 0
2, 164101, Note_on_c, 0, 51, 0
2, 164232, Note_on_c, 0, 60, 48
2, 164399, Note_on_c, 0, 60, 0
2, 164447, Note_on_c, 0, 61, 55
2, 164595, Note_on_c, 0, 60, 28
2, 164703, Note_on_c, 0, 61, 0
2, 164739, Note_on_c, 0, 46, 23
2, 164831, Note_on_c, 0, 60, 0
2, 164855, Note_on_c, 0, 46, 0
2, 164889, Note_on_c, 0, 57, 37
2, 165083, Note_on_c, 0, 57, 0
2, 165237, Note_on_c, 0, 58, 46
2, 165571, Note_on_c, 0, 58, 0
2, 165884, Note_on_c, 0, 48, 40
2, 166032, Note_on_c, 0, 60, 31
2, 166133, Note_on_c, 0, 48, 0
2, 166395, Note_on_c, 0, 60, 0
2, 166720, Note_on_c, 0, 60, 49
2, 166950, Note_on_c, 0, 60, 0
2, 167161, Note_on_c, 0, 60, 57
2, 167573, Note_on_c, 0, 60, 0
2, 167632, Note_on_c, 0, 48, 26
2, 167668, Note_on_c, 0, 57, 57
2, 167740, Note_on_c, 0, 48, 0
2, 167873, Note_on_c, 0, 57, 0
2, 168196, Note_on_c, 0, 48, 41
2, 168597, Note_on_c, 0, 48, 0
2, 169649, Note_on_c, 0, 41, 48
2, 169750, Note_on_c, 0, 41, 0
2, 170934, Note_on_c, 0, 62, 66
2, 170970, Note_on_c, 0, 60, 26
2, 171023, Note_on_c, 0, 62, 0
2, 171069, Note_on_c, 0, 60, 0
2, 172516, Note_on_c, 0, 57, 44
2, 172536, Note_on_c, 0, 62, 57
2, 172572, Note_on_c, 0, 58, 37
2, 172615, Note_on_c, 0, 62, 0
2, 172652, Note_on_c, 0, 57, 0
2, 172654, Note_on_c, 0, 58, 0
2, 173872, Note_on_c, 0, 62, 60
2, 173877, Note_on_c, 0, 65, 54
2, 173889, Note_on_c, 0, 57, 42
2, 174043, Note_on_c, 0, 65, 0
2, 174159, Note_on_c, 0, 57, 0
2, 174268, Note_on_c, 0, 62, 0
2, 174894, Note_on_c, 0, 71, 85
2, 175193, Note_on_c, 0, 70, 74
2, 175208, Note_on_c, 0, 71, 0
2, 175382, Note_on_c, 0, 62, 32
2, 175473, Note_on_c, 0, 71, 53
2, 175580, Note_on_c, 0, 70, 0
2, 175684, Note_on_c, 0, 62, 0
2, 175715, Note_on_c, 0, 71, 0
2, 175865, Note_on_c, 0, 77, 74
2, 176286, Note_on_c, 0, 77, 0
2, 176778, Note_on_c, 0, 65, 32
2, 176805, Note_on_c, 0, 62, 36
2, 176814, Note_on_c, 0, 56, 34
2, 176998, Note_on_c, 0, 65, 0
2, 177049, Note_on_c, 0, 62, 0
2, 177081, Note_on_c, 0, 56, 0
2, 177701, Note_on_c, 0, 71, 82
2, 177964, Note_on_c, 0, 71, 0
2, 178006, Note_on_c, 0, 70, 52
2, 178298, Note_on_c, 0, 71, 57
2, 178307, Note_on_c, 0, 70, 0
2, 178554, Note_on_c, 0, 71, 0
2, 178711, Note_on_c, 0, 79, 88
2, 179088, Note_on_c, 0, 79, 0
2, 179296, Note_on_c, 0, 78, 78
2, 179344, Note_on_c, 0, 67, 42
2, 179370, Note_on_c, 0, 56, 32
2, 179378, Note_on_c, 0, 62, 49
2, 179439, Note_on_c, 0, 67, 0
2, 179564, Note_on_c, 0, 62, 0
2, 179590, Note_on_c, 0, 78, 0
2, 179673, Note_on_c, 0, 56, 0
2, 179767, Note_on_c, 0, 77, 58
2, 180076, Note_on_c, 0, 77, 0
2, 180272, Note_on_c, 0, 75, 71
2, 180335, Note_on_c, 0, 64, 27
2, 180359, Note_on_c, 0, 57, 32
2, 180373, Note_on_c, 0, 60, 29
2, 180383, Note_on_c, 0, 55, 31
2, 180429, Note_on_c, 0, 64, 0
2, 180482, Note_on_c, 0, 55, 0
2, 180521, Note_on_c, 0, 75, 0
2, 180596, Note_on_c, 0, 60, 0
2, 180629, Note_on_c, 0, 57, 0
2, 180709, Note_on_c, 0, 76, 66
2, 181185, Note_on_c, 0, 76, 0
2, 181236, Note_on_c, 0, 72, 71
2, 181263, Note_on_c, 0, 60, 30
2, 181516, Note_on_c, 0, 72, 0
2, 181521, Note_on_c, 0, 60, 0
2, 181639, Note_on_c, 0, 67, 34
2, 182200, Note_on_c, 0, 67, 0
2, 182236, Note_on_c, 0, 62, 31
2, 182250, Note_on_c, 0, 64, 33
2, 182256, Note_on_c, 0, 59, 35
2, 182308, Note_on_c, 0, 56, 25
2, 182319, Note_on_c, 0, 62, 0
2, 182372, Note_on_c, 0, 64, 0
2, 182400, Note_on_c, 0, 59, 0
2, 182459, Note_on_c, 0, 56, 0
2, 182560, Note_on_c, 0, 68, 67
2, 183164, Note_on_c, 0, 68, 0
2, 183169, Note_on_c, 0, 60, 29
2, 183217, Note_on_c, 0, 50, 37
2, 183345, Note_on_c, 0, 60, 0
2, 183488, Note_on_c, 0, 62, 62
2, 183586, Note_on_c, 0, 50, 0
2, 183966, Note_on_c, 0, 62, 0
2, 184048, Note_on_c, 0, 65, 68
2, 184106, Note_on_c, 0, 53, 47
2, 184229, Note_on_c, 0, 53, 0
2, 184343, Note_on_c, 0, 65, 0
2, 184466, Note_on_c, 0, 62, 57
2, 184964, Note_on_c, 0, 62, 0
2, 185008, Note_on_c, 0, 50, 40
2, 185055, Note_on_c, 0, 58, 58
2, 185111, Note_on_c, 0, 50, 0
2, 185246, Note_on_c, 0, 58, 0
2, 185435, Note_on_c, 0, 55, 32
2, 185712, Note_on_c, 0, 55, 0
2, 185961, Note_on_c, 0, 48, 67
2, 185976, Note_on_c, 0, 47, 56
2, 186118, Note_on_c, 0, 47, 0
2, 186945, Note_on_c, 0, 46, 33
2, 187094, Note_on_c, 0, 48, 0
2, 187163, Note_on_c, 0, 46, 0
2, 187266, Note_on_c, 0, 58, 67
2, 187645, Note_on_c, 0, 48, 29
2, 187884, Note_on_c, 0, 58, 0
2, 187895, Note_on_c, 0, 56, 36
2, 188116, Note_on_c, 0, 48, 0
2, 188237, Note_on_c, 0, 56, 0
2, 188245, Note_on_c, 0, 57, 39
2, 188847, Note_on_c, 0, 48, 44
2, 188960, Note_on_c, 0, 57, 0
2, 189003, Note_on_c, 0, 48, 0
2, 189335, Note_on_c, 0, 62, 72
2, 189851, Note_on_c, 0, 62, 0
2, 189931, Note_on_c, 0, 59, 49
2, 190119, Note_on_c, 0, 59, 0
2, 190277, Note_on_c, 0, 60, 35
2, 190707, Note_on_c, 0, 60, 0
2, 190787, Note_on_c, 0, 41, 56
2, 190890, Note_on_c, 0, 41, 0
2, 191103, Note_on_c, 0, 65, 68
2, 191658, Note_on_c, 0, 65, 0
2, 191777, Note_on_c, 0, 63, 38
2, 192018, Note_on_c, 0, 63, 0
2, 192118, Note_on_c, 0, 64, 36
2, 192509, Note_on_c, 0, 64, 0
2, 192707, Note_on_c, 0, 62, 57
2, 192750, Note_on_c, 0, 60, 22
2, 192789, Note_on_c, 0, 53, 20
2, 192792, Note_on_c, 0, 62, 0
2, 192857, Note_on_c, 0, 60, 0
2, 192900, Note_on_c, 0, 53, 0
2, 193782, Note_on_c, 0, 60, 34
2, 193790, Note_on_c, 0, 57, 32
2, 193865, Note_on_c, 0, 60, 0
2, 193895, Note_on_c, 0, 57, 0
2, 194023, Note_on_c, 0, 69, 108
2, 194533, Note_on_c, 0, 69, 0
2, 194601, Note_on_c, 0, 66, 36
2, 194978, Note_on_c, 0, 66, 0
2, 195055, Note_on_c, 0, 67, 35
2, 195381, Note_on_c, 0, 67, 0
2, 195562, Note_on_c, 0, 72, 76
2, 195572, Note_on_c, 0, 62, 64
2, 195604, Note_on_c, 0, 57, 36
2, 195647, Note_on_c, 0, 58, 33
2, 195730, Note_on_c, 0, 57, 0
2, 195732, Note_on_c, 0, 58, 0
2, 195756, Note_on_c, 0, 62, 0
2, 196014, Note_on_c, 0, 72, 0
2, 196261, Note_on_c, 0, 69, 53
2, 196565, Note_on_c, 0, 69, 0
2, 196674, Note_on_c, 0, 57, 33
2, 196681, Note_on_c, 0, 70, 67
2, 196802, Note_on_c, 0, 57, 0
2, 196967, Note_on_c, 0, 70, 0
2, 197063, Note_on_c, 0, 71, 53
2, 197428, Note_on_c, 0, 71, 0
2, 197607, Note_on_c, 0, 74, 69
2, 197609, Note_on_c, 0, 62, 60
2, 197641, Note_on_c, 0, 58, 43
2, 197701, Note_on_c, 0, 62, 0
2, 197792, Note_on_c, 0, 58, 0
2, 197817, Note_on_c, 0, 74, 0
2, 197981, Note_on_c, 0, 71, 37
2, 198505, Note_on_c, 0, 71, 0
2, 199423, Note_on_c, 0, 64, 51
2, 199426, Note_on_c, 0, 61, 52
2, 199438, Note_on_c, 0, 58, 48
2, 199525, Note_on_c, 0, 64, 0
2, 199585, Note_on_c, 0, 61, 0
2, 199634, Note_on_c, 0, 58, 0
2, 201313, Note_on_c, 0, 61, 65
2, 201349, Note_on_c, 0, 64, 45
2, 201433, Note_on_c, 0, 64, 0
2, 201518, Note_on_c, 0, 61, 0
2, 201670, Note_on_c, 0, 72, 43
2, 201912, Note_on_c, 0, 72, 0
2, 201936, Note_on_c, 0, 73, 50
2, 202255, Note_on_c, 0, 75, 59
2, 202263, Note_on_c, 0, 73, 0
2, 202289, Note_on_c, 0, 61, 49
2, 202299, Note_on_c, 0, 64, 40
2, 202405, Note_on_c, 0, 58, 20
2, 202407, Note_on_c, 0, 64, 0
2, 202409, Note_on_c, 0, 75, 0
2, 202533, Note_on_c, 0, 61, 0
2, 202569, Note_on_c, 0, 77, 58
2, 202608, Note_on_c, 0, 58, 0
2, 202835, Note_on_c, 0, 77, 0
2, 202883, Note_on_c, 0, 82, 53
2, 203134, Note_on_c, 0, 82, 0
2, 203159, Note_on_c, 0, 84, 60
2, 203337, Note_on_c, 0, 84, 0
2, 203403, Note_on_c, 0, 89, 84
2, 203407, Note_on_c, 0, 88, 80
2, 203531, Note_on_c, 0, 57, 44
2, 203567, Note_on_c, 0, 53, 45
2, 203608, Note_on_c, 0, 89, 0
2, 203649, Note_on_c, 0, 50, 25
2, 203746, Note_on_c, 0, 86, 75
2, 203748, Note_on_c, 0, 57, 0
2, 203751, Note_on_c, 0, 50, 0
2, 203779, Note_on_c, 0, 88, 0
2, 203794, Note_on_c, 0, 53, 0
2, 204294, Note_on_c, 0, 86, 0
2, 204313, Note_on_c, 0, 57, 32
2, 204507, Note_on_c, 0, 57, 0
2, 205188, Note_on_c, 0, 60, 40
2, 205214, Note_on_c, 0, 57, 37
2, 205239, Note_on_c, 0, 53, 36
2, 205271, Note_on_c, 0, 60, 0
2, 205354, Note_on_c, 0, 53, 0
2, 205454, Note_on_c, 0, 57, 0
2, 207099, Note_on_c, 0, 64, 60
2, 207104, Note_on_c, 0, 60, 37
2, 207222, Note_on_c, 0, 64, 0
2, 207266, Note_on_c, 0, 60, 0
2, 208344, Note_on_c, 0, 64, 48
2, 208411, Note_on_c, 0, 59, 34
2, 208416, Note_on_c, 0, 57, 38
2, 208433, Note_on_c, 0, 53, 26
2, 208542, Note_on_c, 0, 59, 0
2, 208568, Note_on_c, 0, 53, 0
2, 208571, Note_on_c, 0, 57, 0
2, 208580, Note_on_c, 0, 64, 0
2, 209399, Note_on_c, 0, 91, 90
2, 209406, Note_on_c, 0, 79, 91
2, 209619, Note_on_c, 0, 79, 0
2, 209822, Note_on_c, 0, 91, 0
2, 209827, Note_on_c, 0, 79, 9
2, 209969, Note_on_c, 0, 90, 62
2, 209991, Note_on_c, 0, 64, 58
2, 210037, Note_on_c, 0, 59, 34
2, 210058, Note_on_c, 0, 57, 24
2, 210073, Note_on_c, 0, 53, 26
2, 210075, Note_on_c, 0, 64, 0
2, 210124, Note_on_c, 0, 79, 0
2, 210162, Note_on_c, 0, 57, 0
2, 210177, Note_on_c, 0, 53, 0
2, 210180, Note_on_c, 0, 59, 0
2, 210237, Note_on_c, 0, 90, 0
2, 210421, Note_on_c, 0, 89, 47
2, 210851, Note_on_c, 0, 89, 0
2, 210938, Note_on_c, 0, 88, 62
2, 210946, Note_on_c, 0, 67, 48
2, 210960, Note_on_c, 0, 62, 36
2, 210984, Note_on_c, 0, 63, 37
2, 210996, Note_on_c, 0, 58, 28
2, 211199, Note_on_c, 0, 88, 0
2, 211452, Note_on_c, 0, 87, 50
2, 211873, Note_on_c, 0, 87, 0
2, 211921, Note_on_c, 0, 67, 0
2, 211931, Note_on_c, 0, 58, 0
2, 212154, Note_on_c, 0, 62, 0
2, 212189, Note_on_c, 0, 87, 69
2, 212247, Note_on_c, 0, 63, 0
2, 212572, Note_on_c, 0, 87, 0
2, 212811, Note_on_c, 0, 67, 49
2, 212813, Note_on_c, 0, 87, 65
2, 212849, Note_on_c, 0, 62, 34
2, 212871, Note_on_c, 0, 63, 32
2, 212934, Note_on_c, 0, 67, 0
2, 213011, Note_on_c, 0, 62, 0
2, 213037, Note_on_c, 0, 87, 0
2, 213118, Note_on_c, 0, 63, 0
2, 213211, Note_on_c, 0, 87, 60
2, 213579, Note_on_c, 0, 87, 0
2, 213789, Note_on_c, 0, 88, 74
2, 213811, Note_on_c, 0, 62, 55
2, 213813, Note_on_c, 0, 67, 54
2, 213850, Note_on_c, 0, 63, 38
2, 213864, Note_on_c, 0, 58, 34
2, 214045, Note_on_c, 0, 67, 0
2, 214064, Note_on_c, 0, 88, 0
2, 214156, Note_on_c, 0, 62, 0
2, 214195, Note_on_c, 0, 58, 0
2, 214207, Note_on_c, 0, 89, 81
2, 214241, Note_on_c, 0, 63, 0
2, 214625, Note_on_c, 0, 89, 0
2, 214755, Note_on_c, 0, 62, 55
2, 214782, Note_on_c, 0, 87, 71
2, 214785, Note_on_c, 0, 63, 49
2, 214787, Note_on_c, 0, 67, 54
2, 214838, Note_on_c, 0, 57, 33
2, 215113, Note_on_c, 0, 87, 0
2, 215256, Note_on_c, 0, 81, 50
2, 215294, Note_on_c, 0, 67, 0
2, 215352, Note_on_c, 0, 63, 0
2, 215456, Note_on_c, 0, 62, 0
2, 215719, Note_on_c, 0, 62, 24
2, 215802, Note_on_c, 0, 81, 0
2, 216069, Note_on_c, 0, 81, 68
2, 216140, Note_on_c, 0, 62, 0
2, 216172, Note_on_c, 0, 57, 0
2, 216608, Note_on_c, 0, 62, 54
2, 216644, Note_on_c, 0, 67, 37
2, 216652, Note_on_c, 0, 63, 44
2, 216732, Note_on_c, 0, 67, 0
2, 216749, Note_on_c, 0, 63, 0
2, 216930, Note_on_c, 0, 62, 0
2, 217573, Note_on_c, 0, 80, 60
2, 217587, Note_on_c, 0, 63, 60
2, 217628, Note_on_c, 0, 67, 60
2, 217645, Note_on_c, 0, 81, 0
2, 217653, Note_on_c, 0, 62, 36
2, 217744, Note_on_c, 0, 67, 0
2, 217754, Note_on_c, 0, 62, 0
2, 217906, Note_on_c, 0, 80, 0
2, 217940, Note_on_c, 0, 63, 0
2, 218007, Note_on_c, 0, 79, 52
2, 218483, Note_on_c, 0, 79, 0
2, 218558, Note_on_c, 0, 78, 62
2, 218621, Note_on_c, 0, 62, 42
2, 218626, Note_on_c, 0, 65, 37
2, 218735, Note_on_c, 0, 60, 20
2, 218855, Note_on_c, 0, 78, 0
2, 218872, Note_on_c, 0, 65, 0
2, 219001, Note_on_c, 0, 77, 44
2, 219445, Note_on_c, 0, 77, 0
2, 219820, Note_on_c, 0, 53, 37
2, 219899, Note_on_c, 0, 74, 44
2, 220150, Note_on_c, 0, 53, 0
2, 220273, Note_on_c, 0, 60, 0
2, 220310, Note_on_c, 0, 74, 0
2, 220694, Note_on_c, 0, 62, 0
2, 221465, Note_on_c, 0, 60, 37
2, 221481, Note_on_c, 0, 62, 51
2, 221518, Note_on_c, 0, 65, 29
2, 221571, Note_on_c, 0, 62, 0
2, 221603, Note_on_c, 0, 65, 0
2, 221789, Note_on_c, 0, 60, 0
2, 222791, Note_on_c, 0, 65, 31
2, 222800, Note_on_c, 0, 61, 21
2, 222893, Note_on_c, 0, 55, 15
2, 223188, Note_on_c, 0, 61, 0
2, 223270, Note_on_c, 0, 65, 0
2, 223356, Note_on_c, 0, 55, 0
2, 223734, Note_on_c, 0, 84, 91
2, 223745, Note_on_c, 0, 72, 95
2, 224306, Note_on_c, 0, 82, 57
2, 224368, Note_on_c, 0, 61, 44
2, 224376, Note_on_c, 0, 65, 34
2, 224378, Note_on_c, 0, 72, 0
2, 224482, Note_on_c, 0, 65, 0
2, 224487, Note_on_c, 0, 84, 0
2, 224666, Note_on_c, 0, 61, 0
2, 224729, Note_on_c, 0, 82, 0
2, 225338, Note_on_c, 0, 61, 55
2, 225347, Note_on_c, 0, 65, 49
2, 225359, Note_on_c, 0, 81, 71
2, 225442, Note_on_c, 0, 65, 0
2, 225563, Note_on_c, 0, 61, 0
2, 225627, Note_on_c, 0, 81, 0
2, 225883, Note_on_c, 0, 77, 24
2, 226282, Note_on_c, 0, 73, 55
2, 226345, Note_on_c, 0, 77, 0
2, 226347, Note_on_c, 0, 62, 45
2, 226432, Note_on_c, 0, 62, 0
2, 226664, Note_on_c, 0, 73, 0
2, 226790, Note_on_c, 0, 72, 44
2, 227224, Note_on_c, 0, 72, 0
2, 227329, Note_on_c, 0, 60, 18
2, 227442, Note_on_c, 0, 60, 0
2, 227601, Note_on_c, 0, 72, 68
2, 228265, Note_on_c, 0, 63, 43
2, 228271, Note_on_c, 0, 60, 22
2, 228316, Note_on_c, 0, 57, 33
2, 228422, Note_on_c, 0, 63, 0
2, 228486, Note_on_c, 0, 60, 0
2, 228546, Note_on_c, 0, 57, 0
2, 229104, Note_on_c, 0, 72, 0
2, 229305, Note_on_c, 0, 63, 37
2, 229310, Note_on_c, 0, 70, 36
2, 229403, Note_on_c, 0, 63, 0
2, 229619, Note_on_c, 0, 70, 0
2, 229638, Note_on_c, 0, 71, 60
2, 230076, Note_on_c, 0, 71, 0
2, 230213, Note_on_c, 0, 72, 81
2, 230250, Note_on_c, 0, 60, 30
2, 230261, Note_on_c, 0, 63, 56
2, 230319, Note_on_c, 0, 54, 40
2, 230566, Note_on_c, 0, 63, 0
2, 230580, Note_on_c, 0, 72, 0
2, 230655, Note_on_c, 0, 60, 0
2, 230776, Note_on_c, 0, 74, 81
2, 231160, Note_on_c, 0, 63, 39
2, 231182, Note_on_c, 0, 74, 0
2, 231245, Note_on_c, 0, 63, 0
2, 231423, Note_on_c, 0, 72, 72
2, 231624, Note_on_c, 0, 54, 0
2, 231897, Note_on_c, 0, 72, 0
2, 232083, Note_on_c, 0, 69, 61
2, 232120, Note_on_c, 0, 54, 25
2, 232293, Note_on_c, 0, 69, 0
2, 232479, Note_on_c, 0, 54, 0
2, 232689, Note_on_c, 0, 66, 46
2, 232861, Note_on_c, 0, 54, 23
2, 233027, Note_on_c, 0, 54, 0
2, 233136, Note_on_c, 0, 66, 0
2, 233305, Note_on_c, 0, 65, 57
2, 233695, Note_on_c, 0, 65, 0
2, 233960, Note_on_c, 0, 63, 60
2, 233982, Note_on_c, 0, 50, 45
2, 234055, Note_on_c, 0, 53, 36
2, 234108, Note_on_c, 0, 43, 19
2, 234192, Note_on_c, 0, 50, 0
2, 234330, Note_on_c, 0, 63, 0
2, 234479, Note_on_c, 0, 62, 42
2, 234949, Note_on_c, 0, 50, 31
2, 234955, Note_on_c, 0, 53, 0
2, 235050, Note_on_c, 0, 62, 0
2, 235202, Note_on_c, 0, 50, 0
2, 235294, Note_on_c, 0, 59, 54
2, 235893, Note_on_c, 0, 50, 32
2, 236171, Note_on_c, 0, 50, 0
2, 236688, Note_on_c, 0, 43, 0
2, 236881, Note_on_c, 0, 50, 45
2, 236994, Note_on_c, 0, 50, 0
2, 237819, Note_on_c, 0, 50, 51
2, 237929, Note_on_c, 0, 59, 0
2, 237985, Note_on_c, 0, 50, 0
2, 238157, Note_on_c, 0, 58, 57
2, 238510, Note_on_c, 0, 58, 0
2, 238672, Note_on_c, 0, 60, 26
2, 238814, Note_on_c, 0, 58, 45
2, 238821, Note_on_c, 0, 50, 31
2, 238889, Note_on_c, 0, 60, 0
2, 239087, Note_on_c, 0, 50, 0
2, 239108, Note_on_c, 0, 57, 33
2, 239304, Note_on_c, 0, 58, 0
2, 239592, Note_on_c, 0, 57, 0
2, 239674, Note_on_c, 0, 58, 64
2, 240043, Note_on_c, 0, 58, 0
2, 240113, Note_on_c, 0, 59, 62
2, 240522, Note_on_c, 0, 59, 0
2, 240658, Note_on_c, 0, 62, 70
2, 240735, Note_on_c, 0, 48, 35
2, 240846, Note_on_c, 0, 48, 0
2, 240962, Note_on_c, 0, 62, 0
2, 241087, Note_on_c, 0, 59, 34
2, 241597, Note_on_c, 0, 59, 0
2, 241629, Note_on_c, 0, 60, 42
2, 241863, Note_on_c, 0, 60, 0
2, 242069, Note_on_c, 0, 62, 72
2, 242464, Note_on_c, 0, 62, 0
2, 242578, Note_on_c, 0, 64, 71
2, 242916, Note_on_c, 0, 64, 0
2, 243097, Note_on_c, 0, 60, 22
2, 243445, Note_on_c, 0, 60, 0
2, 243576, Note_on_c, 0, 62, 62
2, 243769, Note_on_c, 0, 62, 0
2, 243979, Note_on_c, 0, 64, 55
2, 244395, Note_on_c, 0, 64, 0
2, 244528, Note_on_c, 0, 65, 71
2, 244547, Note_on_c, 0, 48, 69
2, 244581, Note_on_c, 0, 47, 53
2, 244663, Note_on_c, 0, 47, 0
2, 244733, Note_on_c, 0, 48, 0
2, 244833, Note_on_c, 0, 65, 0
2, 245023, Note_on_c, 0, 62, 24
2, 245366, Note_on_c, 0, 62, 0
2, 245470, Note_on_c, 0, 64, 60
2, 245666, Note_on_c, 0, 64, 0
2, 245902, Note_on_c, 0, 65, 51
2, 246311, Note_on_c, 0, 65, 0
2, 246420, Note_on_c, 0, 67, 51
2, 246442, Note_on_c, 0, 48, 58
2, 246538, Note_on_c, 0, 48, 0
2, 246687, Note_on_c, 0, 67, 0
2, 246860, Note_on_c, 0, 64, 39
2, 246946, Note_on_c, 0, 69, 47
2, 247032, Note_on_c, 0, 69, 0
2, 247236, Note_on_c, 0, 64, 0
2, 247390, Note_on_c, 0, 65, 66
2, 247591, Note_on_c, 0, 65, 0
2, 247842, Note_on_c, 0, 67, 34
2, 248197, Note_on_c, 0, 67, 0
2, 248370, Note_on_c, 0, 69, 75
2, 248379, Note_on_c, 0, 69, 69
2, 248534, Note_on_c, 0, 69, 0
2, 248598, Note_on_c, 0, 69, 0
2, 248826, Note_on_c, 0, 70, 62
2, 249145, Note_on_c, 0, 70, 0
2, 249336, Note_on_c, 0, 72, 83
2, 249598, Note_on_c, 0, 72, 0
2, 249791, Note_on_c, 0, 69, 67
2, 250303, Note_on_c, 0, 69, 0
2, 250605, Note_on_c, 0, 69, 61
2, 251261, Note_on_c, 0, 48, 15
2, 251542, Note_on_c, 0, 48, 0
2, 252241, Note_on_c, 0, 48, 44
2, 252363, Note_on_c, 0, 48, 0
2, 255493, Note_on_c, 0, 65, 44
2, 255510, Note_on_c, 0, 60, 29
2, 255514, Note_on_c, 0, 55, 30
2, 255667, Note_on_c, 0, 65, 0
2, 255674, Note_on_c, 0, 55, 0
2, 255721, Note_on_c, 0, 60, 0
2, 257349, Note_on_c, 0, 62, 45
2, 257393, Note_on_c, 0, 57, 25
2, 257421, Note_on_c, 0, 52, 29
2, 257425, Note_on_c, 0, 58, 37
2, 257496, Note_on_c, 0, 69, 0
2, 258894, Note_on_c, 0, 58, 0
2, 259105, Note_on_c, 0, 58, 31
2, 259382, Note_on_c, 0, 81, 108
2, 260270, Note_on_c, 0, 52, 0
2, 260291, Note_on_c, 0, 57, 0
2, 260324, Note_on_c, 0, 58, 0
2, 260391, Note_on_c, 0, 74, 83
2, 260397, Note_on_c, 0, 62, 0
2, 260491, Note_on_c, 0, 81, 0
2, 260987, Note_on_c, 0, 70, 71
2, 261054, Note_on_c, 0, 74, 0
2, 261288, Note_on_c, 0, 70, 0
2, 261449, Note_on_c, 0, 69, 30
2, 261850, Note_on_c, 0, 69, 0
2, 261927, Note_on_c, 0, 72, 76
2, 261987, Note_on_c, 0, 64, 27
2, 262040, Note_on_c, 0, 61, 23
2, 262045, Note_on_c, 0, 55, 20
2, 262186, Note_on_c, 0, 64, 0
2, 262221, Note_on_c, 0, 61, 0
2, 262327, Note_on_c, 0, 55, 0
2, 262383, Note_on_c, 0, 70, 56
2, 262490, Note_on_c, 0, 72, 0
2, 262713, Note_on_c, 0, 55, 24
2, 262908, Note_on_c, 0, 70, 0
2, 262913, Note_on_c, 0, 55, 0
2, 263139, Note_on_c, 0, 61, 67
2, 263761, Note_on_c, 0, 59, 33
2, 263843, Note_on_c, 0, 59, 0
2, 263943, Note_on_c, 0, 61, 0
2, 264115, Note_on_c, 0, 61, 71
2, 264771, Note_on_c, 0, 57, 38
2, 264775, Note_on_c, 0, 53, 47
2, 264928, Note_on_c, 0, 57, 0
2, 265010, Note_on_c, 0, 53, 0
2, 265842, Note_on_c, 0, 57, 28
2, 265968, Note_on_c, 0, 57, 0
2, 266001, Note_on_c, 0, 64, 71
2, 266128, Note_on_c, 0, 61, 0
2, 266669, Note_on_c, 0, 57, 24
2, 266687, Note_on_c, 0, 53, 31
2, 266734, Note_on_c, 0, 64, 0
2, 266748, Note_on_c, 0, 61, 36
2, 266834, Note_on_c, 0, 57, 0
2, 266940, Note_on_c, 0, 53, 0
2, 267024, Note_on_c, 0, 61, 0
2, 267061, Note_on_c, 0, 62, 61
2, 267629, Note_on_c, 0, 60, 24
2, 267659, Note_on_c, 0, 57, 28
2, 267684, Note_on_c, 0, 62, 0
2, 267701, Note_on_c, 0, 53, 30
2, 267731, Note_on_c, 0, 60, 0
2, 267884, Note_on_c, 0, 57, 0
2, 267922, Note_on_c, 0, 65, 89
2, 267975, Note_on_c, 0, 53, 0
2, 268539, Note_on_c, 0, 57, 24
2, 268592, Note_on_c, 0, 65, 0
2, 268701, Note_on_c, 0, 57, 0
2, 268710, Note_on_c, 0, 63, 33
2, 268959, Note_on_c, 0, 63, 0
2, 268968, Note_on_c, 0, 64, 49
2, 269538, Note_on_c, 0, 64, 0
2, 269605, Note_on_c, 0, 60, 32
2, 269657, Note_on_c, 0, 57, 24
2, 269683, Note_on_c, 0, 53, 30
2, 269701, Note_on_c, 0, 60, 0
2, 269840, Note_on_c, 0, 57, 0
2, 269873, Note_on_c, 0, 67, 91
2, 269976, Note_on_c, 0, 53, 0
2, 270467, Note_on_c, 0, 67, 0
2, 270556, Note_on_c, 0, 64, 28
2, 270856, Note_on_c, 0, 64, 0
2, 270956, Note_on_c, 0, 65, 60
2, 271415, Note_on_c, 0, 65, 0
2, 271508, Note_on_c, 0, 66, 71
2, 271619, Note_on_c, 0, 62, 24
2, 271743, Note_on_c, 0, 62, 0
2, 271815, Note_on_c, 0, 66, 0
2, 271917, Note_on_c, 0, 67, 55
2, 272320, Note_on_c, 0, 67, 0
2, 272427, Note_on_c, 0, 69, 80
2, 272491, Note_on_c, 0, 62, 53
2, 272534, Note_on_c, 0, 67, 55
2, 272543, Note_on_c, 0, 63, 42
2, 272617, Note_on_c, 0, 58, 21
2, 272684, Note_on_c, 0, 69, 0
2, 272853, Note_on_c, 0, 70, 53
2, 273272, Note_on_c, 0, 70, 0
2, 273311, Note_on_c, 0, 63, 0
2, 273411, Note_on_c, 0, 71, 63
2, 273450, Note_on_c, 0, 63, 21
2, 273622, Note_on_c, 0, 71, 0
2, 273651, Note_on_c, 0, 67, 0
2, 273770, Note_on_c, 0, 74, 95
2, 273773, Note_on_c, 0, 63, 0
2, 273879, Note_on_c, 0, 62, 0
2, 274259, Note_on_c, 0, 74, 0
2, 274497, Note_on_c, 0, 63, 34
2, 274572, Note_on_c, 0, 62, 13
2, 274658, Note_on_c, 0, 63, 0
2, 274765, Note_on_c, 0, 71, 90
2, 274824, Note_on_c, 0, 62, 0
2, 275227, Note_on_c, 0, 71, 0
2, 275362, Note_on_c, 0, 74, 52
2, 275438, Note_on_c, 0, 71, 61
2, 275608, Note_on_c, 0, 74, 0
2, 275730, Note_on_c, 0, 67, 35
2, 275833, Note_on_c, 0, 71, 0
2, 276053, Note_on_c, 0, 58, 0
2, 276167, Note_on_c, 0, 67, 0
2, 276312, Note_on_c, 0, 70, 76
2, 276747, Note_on_c, 0, 70, 0
2, 276795, Note_on_c, 0, 74, 50
2, 277025, Note_on_c, 0, 70, 35
2, 277117, Note_on_c, 0, 74, 0
2, 277229, Note_on_c, 0, 67, 67
2, 277366, Note_on_c, 0, 70, 0
2, 277394, Note_on_c, 0, 67, 0
2, 277593, Note_on_c, 0, 69, 75
2, 278062, Note_on_c, 0, 69, 0
2, 278168, Note_on_c, 0, 70, 71
2, 278213, Note_on_c, 0, 69, 39
2, 278233, Note_on_c, 0, 63, 42
2, 278254, Note_on_c, 0, 57, 31
2, 278294, Note_on_c, 0, 69, 0
2, 278410, Note_on_c, 0, 63, 0
2, 278436, Note_on_c, 0, 57, 0
2, 278438, Note_on_c, 0, 70, 0
2, 278557, Note_on_c, 0, 71, 74
2, 278985, Note_on_c, 0, 71, 0
2, 279065, Note_on_c, 0, 63, 57
2, 279083, Note_on_c, 0, 57, 51
2, 279092, Note_on_c, 0, 72, 85
2, 279236, Note_on_c, 0, 63, 0
2, 279361, Note_on_c, 0, 72, 0
2, 279368, Note_on_c, 0, 57, 0
2, 279470, Note_on_c, 0, 69, 52
2, 279993, Note_on_c, 0, 69, 0
2, 280032, Note_on_c, 0, 65, 64
2, 280211, Note_on_c, 0, 57, 32
2, 280236, Note_on_c, 0, 65, 0
2, 280254, Note_on_c, 0, 46, 23
2, 280440, Note_on_c, 0, 57, 0
2, 280444, Note_on_c, 0, 62, 35
2, 280452, Note_on_c, 0, 46, 0
2, 280937, Note_on_c, 0, 62, 0
2, 280985, Note_on_c, 0, 53, 24
2, 281233, Note_on_c, 0, 53, 0
2, 281992, Note_on_c, 0, 53, 47
2, 281996, Note_on_c, 0, 57, 28
2, 282090, Note_on_c, 0, 57, 0
2, 282146, Note_on_c, 0, 53, 0
2, 282901, Note_on_c, 0, 61, 88
2, 283227, Note_on_c, 0, 61, 0
2, 283335, Note_on_c, 0, 64, 69
2, 283890, Note_on_c, 0, 64, 0
2, 283931, Note_on_c, 0, 61, 46
2, 283955, Note_on_c, 0, 53, 30
2, 284018, Note_on_c, 0, 46, 17
2, 284131, Note_on_c, 0, 53, 0
2, 284148, Note_on_c, 0, 61, 0
2, 284173, Note_on_c, 0, 46, 0
2, 284292, Note_on_c, 0, 62, 81
2, 284855, Note_on_c, 0, 58, 62
2, 284858, Note_on_c, 0, 62, 0
2, 285105, Note_on_c, 0, 58, 0
2, 285242, Note_on_c, 0, 57, 33
2, 285653, Note_on_c, 0, 57, 0
2, 285816, Note_on_c, 0, 55, 60
2, 285889, Note_on_c, 0, 46, 32
2, 285929, Note_on_c, 0, 39, 34
2, 286098, Note_on_c, 0, 39, 0
2, 286158, Note_on_c, 0, 55, 0
2, 286298, Note_on_c, 0, 46, 0
2, 286416, Note_on_c, 0, 54, 26
2, 286852, Note_on_c, 0, 39, 36
2, 286880, Note_on_c, 0, 46, 28
2, 286999, Note_on_c, 0, 54, 0
2, 287063, Note_on_c, 0, 39, 0
2, 287135, Note_on_c, 0, 46, 0
2, 287165, Note_on_c, 0, 55, 44
2, 287683, Note_on_c, 0, 55, 0
2, 287841, Note_on_c, 0, 56, 83
2, 287898, Note_on_c, 0, 48, 39
2, 287961, Note_on_c, 0, 41, 26
2, 288100, Note_on_c, 0, 41, 0
2, 288108, Note_on_c, 0, 56, 0
2, 288113, Note_on_c, 0, 48, 0
2, 288377, Note_on_c, 0, 57, 68
2, 288813, Note_on_c, 0, 57, 0
2, 289113, Note_on_c, 0, 60, 41
2, 289558, Note_on_c, 0, 60, 0
2, 289662, Note_on_c, 0, 48, 31
2, 289669, Note_on_c, 0, 41, 18
2, 289674, Note_on_c, 0, 62, 79
2, 289922, Note_on_c, 0, 41, 0
2, 289943, Note_on_c, 0, 62, 0
2, 290008, Note_on_c, 0, 48, 0
2, 290102, Note_on_c, 0, 60, 26
2, 290667, Note_on_c, 0, 60, 0
2, 291573, Note_on_c, 0, 62, 57
2, 291590, Note_on_c, 0, 60, 30
2, 291627, Note_on_c, 0, 53, 27
2, 291644, Note_on_c, 0, 57, 28
2, 291653, Note_on_c, 0, 62, 0
2, 291694, Note_on_c, 0, 60, 0
2, 291731, Note_on_c, 0, 53, 0
2, 291767, Note_on_c, 0, 57, 0
2, 293473, Note_on_c, 0, 62, 58
2, 293495, Note_on_c, 0, 60, 29
2, 293551, Note_on_c, 0, 57, 30
2, 293553, Note_on_c, 0, 62, 0
2, 293606, Note_on_c, 0, 60, 0
2, 293678, Note_on_c, 0, 57, 0
2, 293796, Note_on_c, 0, 87, 92
2, 293804, Note_on_c, 0, 84, 103
2, 294152, Note_on_c, 0, 84, 0
2, 294210, Note_on_c, 0, 87, 0
2, 294448, Note_on_c, 0, 82, 79
2, 294453, Note_on_c, 0, 86, 82
2, 294474, Note_on_c, 0, 60, 40
2, 294488, Note_on_c, 0, 85, 63
2, 294490, Note_on_c, 0, 57, 35
2, 294497, Note_on_c, 0, 83, 75
2, 294520, Note_on_c, 0, 53, 38
2, 294650, Note_on_c, 0, 60, 0
2, 294652, Note_on_c, 0, 53, 0
2, 294736, Note_on_c, 0, 83, 0
2, 294797, Note_on_c, 0, 86, 0
2, 294799, Note_on_c, 0, 57, 0
2, 294801, Note_on_c, 0, 82, 0
2, 294882, Note_on_c, 0, 85, 0
2, 295003, Note_on_c, 0, 84, 71
2, 295023, Note_on_c, 0, 81, 76
2, 295358, Note_on_c, 0, 81, 0
2, 295383, Note_on_c, 0, 84, 0
2, 295582, Note_on_c, 0, 77, 65
2, 295606, Note_on_c, 0, 62, 46
2, 295713, Note_on_c, 0, 62, 0
2, 295868, Note_on_c, 0, 77, 0
2, 296072, Note_on_c, 0, 74, 39
2, 296476, Note_on_c, 0, 74, 0
2, 296580, Note_on_c, 0, 69, 49
2, 296595, Note_on_c, 0, 62, 49
2, 296632, Note_on_c, 0, 58, 35
2, 296643, Note_on_c, 0, 57, 24
2, 296677, Note_on_c, 0, 62, 0
2, 296683, Note_on_c, 0, 69, 0
2, 296722, Note_on_c, 0, 58, 0
2, 296747, Note_on_c, 0, 57, 0
2, 296963, Note_on_c, 0, 81, 89
2, 297346, Note_on_c, 0, 81, 0
2, 297475, Note_on_c, 0, 62, 51
2, 297490, Note_on_c, 0, 74, 76
2, 297546, Note_on_c, 0, 58, 29
2, 297559, Note_on_c, 0, 62, 0
2, 297622, Note_on_c, 0, 58, 0
2, 297812, Note_on_c, 0, 74, 0
2, 297939, Note_on_c, 0, 70, 49
2, 298163, Note_on_c, 0, 70, 0
2, 299325, Note_on_c, 0, 56, 74
2, 299337, Note_on_c, 0, 62, 66
2, 299341, Note_on_c, 0, 65, 62
2, 299352, Note_on_c, 0, 67, 57
2, 299416, Note_on_c, 0, 62, 0
2, 299429, Note_on_c, 0, 65, 0
2, 299434, Note_on_c, 0, 67, 0
2, 299624, Note_on_c, 0, 56, 0
2, 300318, Note_on_c, 0, 62, 60
2, 300397, Note_on_c, 0, 62, 0
2, 300620, Note_on_c, 0, 76, 113
2, 300689, Note_on_c, 0, 75, 38
2, 300768, Note_on_c, 0, 75, 0
2, 301222, Note_on_c, 0, 62, 60
2, 301244, Note_on_c, 0, 65, 45
2, 301269, Note_on_c, 0, 56, 44
2, 301276, Note_on_c, 0, 75, 27
2, 301325, Note_on_c, 0, 65, 0
2, 301350, Note_on_c, 0, 76, 0
2, 301392, Note_on_c, 0, 75, 0
2, 301457, Note_on_c, 0, 62, 0
2, 301462, Note_on_c, 0, 56, 0
2, 302227, Note_on_c, 0, 74, 105
2, 302350, Note_on_c, 0, 65, 66
2, 302359, Note_on_c, 0, 62, 58
2, 302383, Note_on_c, 0, 56, 47
2, 302445, Note_on_c, 0, 65, 0
2, 302514, Note_on_c, 0, 62, 0
2, 302657, Note_on_c, 0, 74, 0
2, 302678, Note_on_c, 0, 56, 0
2, 302742, Note_on_c, 0, 73, 47
2, 303149, Note_on_c, 0, 73, 0
2, 303204, Note_on_c, 0, 72, 66
2, 303289, Note_on_c, 0, 55, 43
2, 303304, Note_on_c, 0, 57, 32
2, 303313, Note_on_c, 0, 64, 29
2, 303346, Note_on_c, 0, 60, 20
2, 303448, Note_on_c, 0, 64, 0
2, 303517, Note_on_c, 0, 72, 0
2, 303622, Note_on_c, 0, 71, 53
2, 303886, Note_on_c, 0, 60, 0
2, 304104, Note_on_c, 0, 71, 0
2, 304206, Note_on_c, 0, 74, 77
2, 304275, Note_on_c, 0, 60, 17
2, 304461, Note_on_c, 0, 60, 0
2, 304498, Note_on_c, 0, 74, 0
2, 304547, Note_on_c, 0, 55, 0
2, 304600, Note_on_c, 0, 57, 0
2, 304622, Note_on_c, 0, 72, 65
2, 306072, Note_on_c, 0, 64, 61
2, 306074, Note_on_c, 0, 60, 40
2, 306097, Note_on_c, 0, 54, 44
2, 306153, Note_on_c, 0, 58, 30
2, 306155, Note_on_c, 0, 64, 0
2, 306243, Note_on_c, 0, 60, 0
2, 306305, Note_on_c, 0, 54, 0
2, 306415, Note_on_c, 0, 58, 0
2, 306559, Note_on_c, 0, 75, 18
2, 307219, Note_on_c, 0, 72, 0
2, 307238, Note_on_c, 0, 62, 48
2, 307248, Note_on_c, 0, 75, 0
2, 307264, Note_on_c, 0, 58, 49
2, 307277, Note_on_c, 0, 53, 30
2, 307299, Note_on_c, 0, 57, 34
2, 307820, Note_on_c, 0, 58, 0
2, 308048, Note_on_c, 0, 58, 27
2, 308110, Note_on_c, 0, 62, 0
2, 308236, Note_on_c, 0, 69, 108
2, 308317, Note_on_c, 0, 58, 0
2, 308424, Note_on_c, 0, 53, 0
2, 308472, Note_on_c, 0, 57, 0
2, 308846, Note_on_c, 0, 57, 24
2, 308848, Note_on_c, 0, 58, 30
2, 308881, Note_on_c, 0, 70, 78
2, 308902, Note_on_c, 0, 69, 0
2, 308936, Note_on_c, 0, 58, 0
2, 309140, Note_on_c, 0, 57, 0
2, 309183, Note_on_c, 0, 70, 0
2, 309326, Note_on_c, 0, 69, 61
2, 309828, Note_on_c, 0, 62, 59
2, 309832, Note_on_c, 0, 58, 57
2, 309837, Note_on_c, 0, 69, 0
2, 309863, Note_on_c, 0, 52, 49
2, 309909, Note_on_c, 0, 62, 0
2, 310027, Note_on_c, 0, 58, 0
2, 310136, Note_on_c, 0, 52, 0
2, 310234, Note_on_c, 0, 69, 94
2, 310672, Note_on_c, 0, 69, 0
2, 310793, Note_on_c, 0, 70, 74
2, 310941, Note_on_c, 0, 41, 37
2, 310948, Note_on_c, 0, 48, 32
2, 311252, Note_on_c, 0, 70, 0
2, 311289, Note_on_c, 0, 69, 50
2, 311433, Note_on_c, 0, 48, 0
2, 311797, Note_on_c, 0, 65, 66
2, 311806, Note_on_c, 0, 48, 24
2, 311850, Note_on_c, 0, 69, 0
2, 312020, Note_on_c, 0, 65, 0
2, 312038, Note_on_c, 0, 48, 0
2, 312192, Note_on_c, 0, 62, 32
2, 312637, Note_on_c, 0, 41, 0
2, 312688, Note_on_c, 0, 48, 32
2, 312837, Note_on_c, 0, 62, 0
2, 312999, Note_on_c, 0, 48, 0
2, 313111, Note_on_c, 0, 64, 80
2, 313658, Note_on_c, 0, 48, 19
2, 313776, Note_on_c, 0, 64, 0
2, 313814, Note_on_c, 0, 61, 51
2, 313904, Note_on_c, 0, 48, 0
2, 314032, Note_on_c, 0, 61, 0
2, 314134, Note_on_c, 0, 62, 56
2, 314743, Note_on_c, 0, 62, 0
2, 314767, Note_on_c, 0, 57, 44
2, 314982, Note_on_c, 0, 57, 0
2, 316026, Note_on_c, 0, 48, 22
2, 316472, Note_on_c, 0, 48, 0
2, 316953, Note_on_c, 0, 48, 48
2, 316956, Note_on_c, 0, 41, 57
2, 316966, Note_on_c, 0, 43, 53
2, 316973, Note_on_c, 0, 57, 32
2, 317356, Note_on_c, 0, 41, 0
2, 317381, Note_on_c, 0, 43, 0
2, 317400, Note_on_c, 0, 48, 0
2, 317535, Note_on_c, 0, 57, 0
2, 317878, Note_on_c, 0, 69, 95
2, 318525, Note_on_c, 0, 70, 80
2, 318553, Note_on_c, 0, 62, 78
2, 318565, Note_on_c, 0, 57, 57
2, 318595, Note_on_c, 0, 58, 46
2, 318609, Note_on_c, 0, 52, 46
2, 318630, Note_on_c, 0, 69, 0
2, 318695, Note_on_c, 0, 52, 0
2, 318716, Note_on_c, 0, 62, 0
2, 318738, Note_on_c, 0, 57, 0
2, 318745, Note_on_c, 0, 58, 0
2, 319012, Note_on_c, 0, 69, 66
2, 319068, Note_on_c, 0, 70, 0
2, 319463, Note_on_c, 0, 69, 0
2, 319771, Note_on_c, 0, 62, 58
2, 320369, Note_on_c, 0, 62, 0
2, 320495, Note_on_c, 0, 62, 55
2, 320695, Note_on_c, 0, 62, 0
2, 321398, Note_on_c, 0, 64, 78
2, 321420, Note_on_c, 0, 55, 66
2, 321439, Note_on_c, 0, 61, 44
2, 321502, Note_on_c, 0, 64, 0
2, 321581, Note_on_c, 0, 55, 0
2, 321611, Note_on_c, 0, 61, 0
2, 322637, Note_on_c, 0, 73, 77
2, 322655, Note_on_c, 0, 85, 83
2, 323244, Note_on_c, 0, 85, 0
2, 323255, Note_on_c, 0, 73, 0
2, 323274, Note_on_c, 0, 74, 71
2, 323279, Note_on_c, 0, 61, 48
2, 323284, Note_on_c, 0, 64, 46
2, 323312, Note_on_c, 0, 58, 36
2, 323374, Note_on_c, 0, 86, 24
2, 323377, Note_on_c, 0, 64, 0
2, 323381, Note_on_c, 0, 74, 0
2, 323450, Note_on_c, 0, 86, 0
2, 323462, Note_on_c, 0, 61, 0
2, 323568, Note_on_c, 0, 58, 0
2, 323620, Note_on_c, 0, 75, 67
2, 323632, Note_on_c, 0, 87, 74
2, 324059, Note_on_c, 0, 87, 0
2, 324102, Note_on_c, 0, 75, 0
2, 324182, Note_on_c, 0, 64, 56
2, 324189, Note_on_c, 0, 61, 48
2, 324218, Note_on_c, 0, 55, 39
2, 324223, Note_on_c, 0, 88, 80
2, 324237, Note_on_c, 0, 58, 34
2, 324242, Note_on_c, 0, 76, 62
2, 324288, Note_on_c, 0, 77, 59
2, 324307, Note_on_c, 0, 81, 52
2, 324309, Note_on_c, 0, 64, 0
2, 324329, Note_on_c, 0, 86, 29
2, 324346, Note_on_c, 0, 55, 0
2, 324367, Note_on_c, 0, 77, 0
2, 324374, Note_on_c, 0, 61, 0
2, 324421, Note_on_c, 0, 86, 0
2, 324428, Note_on_c, 0, 76, 0
2, 324435, Note_on_c, 0, 88, 0
2, 324501, Note_on_c, 0, 81, 0
2, 324552, Note_on_c, 0, 58, 0
2, 324708, Note_on_c, 0, 72, 41
2, 324711, Note_on_c, 0, 86, 26
2, 324715, Note_on_c, 0, 84, 44
2, 324796, Note_on_c, 0, 86, 0
2, 325141, Note_on_c, 0, 84, 0
2, 325168, Note_on_c, 0, 72, 0
2, 325226, Note_on_c, 0, 61, 49
2, 325263, Note_on_c, 0, 58, 43
2, 325356, Note_on_c, 0, 61, 0
2, 325458, Note_on_c, 0, 58, 0
2, 325513, Note_on_c, 0, 81, 59
2, 325516, Note_on_c, 0, 69, 60
2, 326146, Note_on_c, 0, 60, 36
2, 326172, Note_on_c, 0, 57, 37
2, 326177, Note_on_c, 0, 50, 33
2, 326191, Note_on_c, 0, 53, 43
2, 326253, Note_on_c, 0, 60, 0
2, 326284, Note_on_c, 0, 50, 0
2, 326348, Note_on_c, 0, 57, 0
2, 326444, Note_on_c, 0, 53, 0
2, 327464, Note_on_c, 0, 69, 0
2, 327886, Note_on_c, 0, 81, 0
2, 328055, Note_on_c, 0, 60, 48
2, 328069, Note_on_c, 0, 57, 47
2, 328095, Note_on_c, 0, 53, 49
2, 328126, Note_on_c, 0, 50, 28
2, 328135, Note_on_c, 0, 60, 0
2, 328232, Note_on_c, 0, 50, 0
2, 328283, Note_on_c, 0, 57, 0
2, 328409, Note_on_c, 0, 53, 0
2, 328443, Note_on_c, 0, 80, 59
2, 328989, Note_on_c, 0, 80, 0
2, 329034, Note_on_c, 0, 81, 54
2, 329158, Note_on_c, 0, 57, 31
2, 329227, Note_on_c, 0, 81, 0
2, 329287, Note_on_c, 0, 53, 17
2, 329351, Note_on_c, 0, 57, 0
2, 329401, Note_on_c, 0, 53, 0
2, 329406, Note_on_c, 0, 84, 96
2, 329972, Note_on_c, 0, 80, 65
2, 330141, Note_on_c, 0, 80, 0
2, 330150, Note_on_c, 0, 81, 66
2, 330453, Note_on_c, 0, 81, 0
2, 330542, Note_on_c, 0, 77, 55
2, 330972, Note_on_c, 0, 60, 27
2, 331047, Note_on_c, 0, 84, 0
2, 331076, Note_on_c, 0, 77, 0
2, 331078, Note_on_c, 0, 57, 22
2, 331207, Note_on_c, 0, 60, 0
2, 331252, Note_on_c, 0, 57, 0
2, 331299, Note_on_c, 0, 74, 62
2, 331803, Note_on_c, 0, 74, 0
2, 332274, Note_on_c, 0, 64, 39
2, 332299, Note_on_c, 0, 59, 44
2, 332325, Note_on_c, 0, 53, 33
2, 332664, Note_on_c, 0, 59, 0
2, 332682, Note_on_c, 0, 64, 0
2, 332696, Note_on_c, 0, 53, 0
2, 333204, Note_on_c, 0, 53, 55
2, 333209, Note_on_c, 0, 59, 55
2, 333213, Note_on_c, 0, 64, 47
2, 333614, Note_on_c, 0, 59, 0
2, 333619, Note_on_c, 0, 53, 0
2, 333800, Note_on_c, 0, 64, 0
2, 334169, Note_on_c, 0, 58, 61
2, 334189, Note_on_c, 0, 62, 67
2, 334195, Note_on_c, 0, 67, 72
2, 334199, Note_on_c, 0, 63, 61
2, 334701, Note_on_c, 0, 67, 0
2, 334767, Note_on_c, 0, 63, 0
2, 334798, Note_on_c, 0, 62, 0
2, 334807, Note_on_c, 0, 58, 0
2, 335329, Note_on_c, 0, 75, 25
2, 335452, Note_on_c, 0, 75, 0
2, 335800, Note_on_c, 0, 67, 71
2, 335805, Note_on_c, 0, 62, 65
2, 335811, Note_on_c, 0, 63, 53
2, 335833, Note_on_c, 0, 58, 49
2, 335892, Note_on_c, 0, 67, 0
2, 336006, Note_on_c, 0, 63, 0
2, 336025, Note_on_c, 0, 62, 0
2, 336030, Note_on_c, 0, 58, 0
2, 336167, Note_on_c, 0, 74, 115
2, 336176, Note_on_c, 0, 77, 96
2, 336568, Note_on_c, 0, 77, 0
2, 336602, Note_on_c, 0, 74, 0
2, 336726, Note_on_c, 0, 77, 53
2, 336751, Note_on_c, 0, 74, 73
2, 336809, Note_on_c, 0, 62, 48
2, 336888, Note_on_c, 0, 61, 27
2, 337034, Note_on_c, 0, 74, 0
2, 337050, Note_on_c, 0, 77, 0
2, 337059, Note_on_c, 0, 62, 0
2, 337103, Note_on_c, 0, 75, 60
2, 337131, Note_on_c, 0, 72, 49
2, 337203, Note_on_c, 0, 61, 0
2, 337530, Note_on_c, 0, 75, 0
2, 337554, Note_on_c, 0, 72, 0
2, 337700, Note_on_c, 0, 75, 61
2, 337721, Note_on_c, 0, 72, 76
2, 337781, Note_on_c, 0, 67, 38
2, 337783, Note_on_c, 0, 63, 49
2, 337788, Note_on_c, 0, 57, 39
2, 337881, Note_on_c, 0, 67, 0
2, 338032, Note_on_c, 0, 72, 0
2, 338039, Note_on_c, 0, 57, 0
2, 338088, Note_on_c, 0, 75, 0
2, 338104, Note_on_c, 0, 63, 0
2, 338169, Note_on_c, 0, 71, 43
2, 338178, Note_on_c, 0, 74, 47
2, 338709, Note_on_c, 0, 63, 33
2, 338723, Note_on_c, 0, 71, 0
2, 338790, Note_on_c, 0, 74, 0
2, 338976, Note_on_c, 0, 63, 0
2, 339036, Note_on_c, 0, 73, 67
2, 339057, Note_on_c, 0, 70, 57
2, 339626, Note_on_c, 0, 63, 39
2, 339689, Note_on_c, 0, 70, 0
2, 339709, Note_on_c, 0, 73, 0
2, 339839, Note_on_c, 0, 63, 0
2, 339951, Note_on_c, 0, 72, 64
2, 339983, Note_on_c, 0, 69, 58
2, 340435, Note_on_c, 0, 69, 0
2, 340498, Note_on_c, 0, 72, 0
2, 340569, Note_on_c, 0, 57, 44
2, 340609, Note_on_c, 0, 63, 31
2, 340813, Note_on_c, 0, 63, 0
2, 340931, Note_on_c, 0, 57, 0
2, 341512, Note_on_c, 0, 71, 71
2, 341528, Note_on_c, 0, 68, 68
2, 341561, Note_on_c, 0, 62, 60
2, 341565, Note_on_c, 0, 65, 53
2, 341584, Note_on_c, 0, 60, 31
2, 341705, Note_on_c, 0, 65, 0
2, 341841, Note_on_c, 0, 71, 0
2, 341930, Note_on_c, 0, 62, 0
2, 341961, Note_on_c, 0, 68, 0
2, 341964, Note_on_c, 0, 60, 0
2, 342189, Note_on_c, 0, 67, 57
2, 342199, Note_on_c, 0, 70, 63
2, 342488, Note_on_c, 0, 67, 0
2, 342554, Note_on_c, 0, 65, 31
2, 342579, Note_on_c, 0, 62, 45
2, 342625, Note_on_c, 0, 60, 17
2, 342635, Note_on_c, 0, 65, 0
2, 342692, Note_on_c, 0, 70, 0
2, 342818, Note_on_c, 0, 62, 0
2, 342834, Note_on_c, 0, 60, 0
2, 342894, Note_on_c, 0, 69, 66
2, 342917, Note_on_c, 0, 66, 59
2, 343331, Note_on_c, 0, 69, 0
2, 343409, Note_on_c, 0, 66, 0
2, 343568, Note_on_c, 0, 62, 32
2, 343686, Note_on_c, 0, 62, 0
2, 343848, Note_on_c, 0, 67, 55
2, 343851, Note_on_c, 0, 65, 54
2, 344252, Note_on_c, 0, 65, 0
2, 344300, Note_on_c, 0, 67, 0
2, 344349, Note_on_c, 0, 62, 50
2, 344444, Note_on_c, 0, 62, 0
2, 344465, Note_on_c, 0, 60, 15
2, 344526, Note_on_c, 0, 66, 71
2, 344565, Note_on_c, 0, 60, 0
2, 344586, Note_on_c, 0, 64, 44
2, 344667, Note_on_c, 0, 64, 0
2, 344952, Note_on_c, 0, 66, 0
2, 345410, Note_on_c, 0, 63, 73
2, 345424, Note_on_c, 0, 65, 81
2, 345598, Note_on_c, 0, 55, 20
2, 346108, Note_on_c, 0, 55, 0
2, 346344, Note_on_c, 0, 55, 42
2, 346349, Note_on_c, 0, 61, 42
2, 346478, Note_on_c, 0, 61, 0
2, 346588, Note_on_c, 0, 55, 0
2, 347215, Note_on_c, 0, 65, 0
2, 347251, Note_on_c, 0, 63, 0
2, 347382, Note_on_c, 0, 58, 51
2, 347398, Note_on_c, 0, 56, 39
2, 347458, Note_on_c, 0, 58, 0
2, 347560, Note_on_c, 0, 56, 0
2, 347616, Note_on_c, 0, 61, 60
2, 347628, Note_on_c, 0, 63, 61
2, 348205, Note_on_c, 0, 61, 0
2, 348238, Note_on_c, 0, 63, 0
2, 348284, Note_on_c, 0, 62, 68
2, 348316, Note_on_c, 0, 65, 64
2, 348534, Note_on_c, 0, 62, 0
2, 348678, Note_on_c, 0, 63, 46
2, 348697, Note_on_c, 0, 65, 0
2, 349130, Note_on_c, 0, 63, 0
2, 349177, Note_on_c, 0, 56, 42
2, 349281, Note_on_c, 0, 56, 0
2, 349539, Note_on_c, 0, 63, 64
2, 349544, Note_on_c, 0, 55, 40
2, 349546, Note_on_c, 0, 57, 55
2, 349559, Note_on_c, 0, 60, 37
2, 349625, Note_on_c, 0, 57, 0
2, 349878, Note_on_c, 0, 55, 0
2, 350014, Note_on_c, 0, 60, 0
2, 350163, Note_on_c, 0, 63, 0
2, 350435, Note_on_c, 0, 45, 63
2, 350523, Note_on_c, 0, 45, 0
2, 351483, Note_on_c, 0, 57, 58
2, 351485, Note_on_c, 0, 55, 68
2, 351493, Note_on_c, 0, 63, 81
2, 351494, Note_on_c, 0, 67, 91
2, 351504, Note_on_c, 0, 60, 47
2, 351595, Note_on_c, 0, 75, 37
2, 351683, Note_on_c, 0, 75, 0
2, 351889, Note_on_c, 0, 55, 0
2, 351952, Note_on_c, 0, 67, 0
2, 351964, Note_on_c, 0, 63, 0
2, 352080, Note_on_c, 0, 57, 0
2, 352107, Note_on_c, 0, 60, 0
2, 352114, Note_on_c, 0, 72, 68
2, 352326, Note_on_c, 0, 72, 0
2, 352363, Note_on_c, 0, 63, 71
2, 352374, Note_on_c, 0, 55, 46
2, 352425, Note_on_c, 0, 60, 29
2, 352443, Note_on_c, 0, 57, 36
2, 352452, Note_on_c, 0, 75, 84
2, 352778, Note_on_c, 0, 55, 0
2, 352842, Note_on_c, 0, 57, 0
2, 352923, Note_on_c, 0, 63, 0
2, 352951, Note_on_c, 0, 75, 0
2, 352977, Note_on_c, 0, 60, 0
2, 353086, Note_on_c, 0, 77, 81
2, 353090, Note_on_c, 0, 65, 84
2, 353096, Note_on_c, 0, 70, 85
2, 353114, Note_on_c, 0, 54, 72
2, 353117, Note_on_c, 0, 60, 65
2, 353146, Note_on_c, 0, 76, 61
2, 353225, Note_on_c, 0, 76, 0
2, 354110, Note_on_c, 0, 60, 0
2, 354135, Note_on_c, 0, 70, 0
2, 354151, Note_on_c, 0, 77, 0
2, 354163, Note_on_c, 0, 65, 0
2, 354219, Note_on_c, 0, 54, 0
2, 354307, Note_on_c, 0, 60, 32
2, 354320, Note_on_c, 0, 54, 25
2, 354364, Note_on_c, 0, 75, 55
2, 354421, Note_on_c, 0, 65, 36
2, 354488, Note_on_c, 0, 70, 27
2, 354670, Note_on_c, 0, 65, 0
2, 354717, Note_on_c, 0, 70, 0
2, 354822, Note_on_c, 0, 54, 0
2, 354840, Note_on_c, 0, 75, 0
2, 354866, Note_on_c, 0, 60, 0
2, 354974, Note_on_c, 0, 77, 74
2, 354989, Note_on_c, 0, 65, 70
2, 355017, Note_on_c, 0, 60, 62
2, 355021, Note_on_c, 0, 54, 69
2, 355200, Note_on_c, 0, 65, 0
2, 355430, Note_on_c, 0, 73, 31
2, 355526, Note_on_c, 0, 60, 0
2, 355840, Note_on_c, 0, 74, 45
2, 355843, Note_on_c, 0, 73, 0
2, 355998, Note_on_c, 0, 77, 0
2, 356021, Note_on_c, 0, 60, 31
2, 356061, Note_on_c, 0, 74, 0
2, 356338, Note_on_c, 0, 65, 38
2, 356410, Note_on_c, 0, 60, 0
2, 356662, Note_on_c, 0, 65, 0
2, 356784, Note_on_c, 0, 54, 0
2, 356930, Note_on_c, 0, 74, 80
2, 356935, Note_on_c, 0, 68, 83
2, 356938, Note_on_c, 0, 64, 63
2, 356942, Note_on_c, 0, 53, 64
2, 356954, Note_on_c, 0, 59, 64
2, 357693, Note_on_c, 0, 59, 0
2, 357794, Note_on_c, 0, 74, 0
2, 357858, Note_on_c, 0, 64, 0
2, 357863, Note_on_c, 0, 68, 0
2, 357873, Note_on_c, 0, 74, 33
2, 357895, Note_on_c, 0, 59, 54
2, 357919, Note_on_c, 0, 69, 62
2, 358111, Note_on_c, 0, 74, 0
2, 358132, Note_on_c, 0, 69, 0
2, 358191, Note_on_c, 0, 59, 0
2, 358281, Note_on_c, 0, 62, 36
2, 358911, Note_on_c, 0, 59, 35
2, 359000, Note_on_c, 0, 62, 0
2, 359214, Note_on_c, 0, 53, 0
2, 359228, Note_on_c, 0, 65, 74
2, 359346, Note_on_c, 0, 59, 0
2, 359832, Note_on_c, 0, 53, 53
2, 359837, Note_on_c, 0, 65, 0
2, 359842, Note_on_c, 0, 59, 46
2, 360033, Note_on_c, 0, 59, 0
2, 360099, Note_on_c, 0, 74, 83
2, 360122, Note_on_c, 0, 68, 46
2, 360128, Note_on_c, 0, 53, 0
2, 360141, Note_on_c, 0, 67, 85
2, 360201, Note_on_c, 0, 68, 0
2, 360494, Note_on_c, 0, 67, 0
2, 360640, Note_on_c, 0, 74, 0
2, 360770, Note_on_c, 0, 62, 59
2, 360807, Note_on_c, 0, 74, 70
2, 360809, Note_on_c, 0, 69, 80
2, 360814, Note_on_c, 0, 58, 43
2, 360844, Note_on_c, 0, 57, 33
2, 360860, Note_on_c, 0, 62, 0
2, 360955, Note_on_c, 0, 57, 0
2, 361039, Note_on_c, 0, 58, 0
2, 361070, Note_on_c, 0, 74, 0
2, 361072, Note_on_c, 0, 69, 0
2, 361152, Note_on_c, 0, 62, 66
2, 361700, Note_on_c, 0, 62, 0
2, 361903, Note_on_c, 0, 62, 27
2, 361940, Note_on_c, 0, 58, 33
2, 361981, Note_on_c, 0, 62, 0
2, 361991, Note_on_c, 0, 53, 27
2, 362019, Note_on_c, 0, 58, 0
2, 362097, Note_on_c, 0, 62, 68
2, 362194, Note_on_c, 0, 53, 0
2, 362681, Note_on_c, 0, 48, 87
2, 362705, Note_on_c, 0, 62, 0
2, 362732, Note_on_c, 0, 50, 30
2, 362740, Note_on_c, 0, 47, 73
2, 362791, Note_on_c, 0, 68, 78
2, 362807, Note_on_c, 0, 74, 75
2, 362811, Note_on_c, 0, 50, 0
2, 362856, Note_on_c, 0, 47, 0
2, 363348, Note_on_c, 0, 74, 0
2, 363500, Note_on_c, 0, 68, 0
2, 363663, Note_on_c, 0, 69, 60
2, 363668, Note_on_c, 0, 74, 50
2, 363693, Note_on_c, 0, 47, 48
2, 363847, Note_on_c, 0, 69, 0
2, 363870, Note_on_c, 0, 74, 0
2, 363893, Note_on_c, 0, 47, 0
2, 363997, Note_on_c, 0, 62, 52
2, 364032, Note_on_c, 0, 60, 49
2, 364083, Note_on_c, 0, 62, 0
2, 364591, Note_on_c, 0, 60, 0
2, 364710, Note_on_c, 0, 47, 39
2, 364913, Note_on_c, 0, 62, 71
2, 364923, Note_on_c, 0, 47, 0
2, 365044, Note_on_c, 0, 48, 0
2, 365551, Note_on_c, 0, 48, 87
2, 365612, Note_on_c, 0, 47, 68
2, 365690, Note_on_c, 0, 47, 0
2, 365888, Note_on_c, 0, 68, 61
2, 365921, Note_on_c, 0, 74, 54
2, 366319, Note_on_c, 0, 74, 0
2, 366364, Note_on_c, 0, 62, 0
2, 366500, Note_on_c, 0, 68, 0
2, 366531, Note_on_c, 0, 74, 51
2, 366537, Note_on_c, 0, 69, 63
2, 366551, Note_on_c, 0, 47, 49
2, 366696, Note_on_c, 0, 47, 0
2, 366788, Note_on_c, 0, 74, 0
2, 366795, Note_on_c, 0, 69, 0
2, 366904, Note_on_c, 0, 62, 43
2, 367575, Note_on_c, 0, 48, 0
2, 367600, Note_on_c, 0, 62, 0
2, 367795, Note_on_c, 0, 62, 76
2, 368419, Note_on_c, 0, 48, 77
2, 368440, Note_on_c, 0, 46, 42
2, 368488, Note_on_c, 0, 47, 63
2, 368498, Note_on_c, 0, 48, 0
2, 368516, Note_on_c, 0, 46, 0
2, 368567, Note_on_c, 0, 47, 0
2, 368706, Note_on_c, 0, 68, 80
2, 368721, Note_on_c, 0, 74, 75
2, 369170, Note_on_c, 0, 62, 0
2, 369196, Note_on_c, 0, 74, 0
2, 369306, Note_on_c, 0, 68, 0
2, 369372, Note_on_c, 0, 69, 64
2, 369380, Note_on_c, 0, 74, 41
2, 369507, Note_on_c, 0, 74, 0
2, 369627, Note_on_c, 0, 69, 0
2, 369700, Note_on_c, 0, 62, 51
2, 370372, Note_on_c, 0, 48, 66
2, 370451, Note_on_c, 0, 48, 0
2, 370489, Note_on_c, 0, 62, 0
2, 370661, Note_on_c, 0, 70, 86
2, 370662, Note_on_c, 0, 74, 78
2, 371323, Note_on_c, 0, 70, 0
2, 371326, Note_on_c, 0, 74, 0
2, 371563, Note_on_c, 0, 72, 68
2, 371563, Note_on_c, 0, 68, 75
2, 371950, Note_on_c, 0, 68, 0
2, 371999, Note_on_c, 0, 72, 0
2, 372480, Note_on_c, 0, 74, 110
2, 372712, Note_on_c, 0, 74, 0
2, 374168, Note_on_c, 0, 72, 85
2, 374525, Note_on_c, 0, 72, 0
2, 374718, Note_on_c, 0, 69, 37
2, 375093, Note_on_c, 0, 69, 0
2, 376003, Note_on_c, 0, 65, 64
2, 376268, Note_on_c, 0, 48, 43
2, 376296, Note_on_c, 0, 65, 0
2, 376418, Note_on_c, 0, 60, 27
2, 376479, Note_on_c, 0, 48, 0
2, 377098, Note_on_c, 0, 48, 28
2, 377156, Note_on_c, 0, 60, 0
2, 377210, Note_on_c, 0, 48, 0
2, 377332, Note_on_c, 0, 58, 53
2, 377975, Note_on_c, 0, 58, 0
2, 378043, Note_on_c, 0, 57, 53
2, 378172, Note_on_c, 0, 57, 0
2, 378952, Note_on_c, 0, 41, 61
2, 379126, Note_on_c, 0, 41, 0
2, 380207, Note_on_c, 0, 62, 45
2, 380228, Note_on_c, 0, 57, 31
2, 380233, Note_on_c, 0, 52, 35
2, 380256, Note_on_c, 0, 58, 45
2, 382508, Note_on_c, 0, 58, 0
2, 382543, Note_on_c, 0, 62, 0
2, 382824, Note_on_c, 0, 62, 54
2, 382899, Note_on_c, 0, 58, 42
2, 383105, Note_on_c, 0, 62, 0
2, 383158, Note_on_c, 0, 70, 73
2, 383216, Note_on_c, 0, 58, 0
2, 383327, Note_on_c, 0, 70, 0
2, 383374, Note_on_c, 0, 57, 0
2, 383493, Note_on_c, 0, 70, 81
2, 383615, Note_on_c, 0, 52, 0
2, 383734, Note_on_c, 0, 70, 0
2, 383786, Note_on_c, 0, 58, 28
2, 383866, Note_on_c, 0, 58, 0
2, 383899, Note_on_c, 0, 69, 79
2, 384049, Note_on_c, 0, 69, 0
2, 384226, Note_on_c, 0, 69, 73
2, 384446, Note_on_c, 0, 69, 0
2, 384618, Note_on_c, 0, 67, 80
2, 384810, Note_on_c, 0, 67, 0
2, 384833, Note_on_c, 0, 64, 34
2, 384882, Note_on_c, 0, 61, 28
2, 384947, Note_on_c, 0, 64, 0
2, 384982, Note_on_c, 0, 67, 64
2, 385011, Note_on_c, 0, 61, 0
2, 385223, Note_on_c, 0, 67, 0
2, 385342, Note_on_c, 0, 65, 36
2, 385520, Note_on_c, 0, 65, 0
2, 385670, Note_on_c, 0, 65, 84
2, 385926, Note_on_c, 0, 65, 0
2, 386065, Note_on_c, 0, 64, 61
2, 386206, Note_on_c, 0, 64, 0
2, 386399, Note_on_c, 0, 64, 71
2, 386683, Note_on_c, 0, 64, 0
2, 386719, Note_on_c, 0, 62, 73
2, 386731, Note_on_c, 0, 55, 35
2, 386844, Note_on_c, 0, 55, 0
2, 386891, Note_on_c, 0, 62, 0
2, 387075, Note_on_c, 0, 62, 65
2, 387448, Note_on_c, 0, 61, 85
2, 387496, Note_on_c, 0, 62, 0
2, 387645, Note_on_c, 0, 57, 20
2, 387659, Note_on_c, 0, 61, 0
2, 387773, Note_on_c, 0, 57, 0
2, 387824, Note_on_c, 0, 61, 71
2, 388041, Note_on_c, 0, 61, 0
2, 388167, Note_on_c, 0, 64, 66
2, 388464, Note_on_c, 0, 64, 0
2, 388522, Note_on_c, 0, 57, 28
2, 388587, Note_on_c, 0, 61, 81
2, 388745, Note_on_c, 0, 61, 0
2, 388747, Note_on_c, 0, 57, 0
2, 388889, Note_on_c, 0, 61, 77
2, 389114, Note_on_c, 0, 61, 0
2, 389250, Note_on_c, 0, 62, 75
2, 389443, Note_on_c, 0, 57, 37
2, 389615, Note_on_c, 0, 57, 0
2, 389807, Note_on_c, 0, 62, 0
2, 390477, Note_on_c, 0, 57, 37
2, 390654, Note_on_c, 0, 57, 0
2, 391735, Note_on_c, 0, 57, 43
2, 391745, Note_on_c, 0, 50, 44
2, 391746, Note_on_c, 0, 60, 38
2, 391766, Note_on_c, 0, 53, 47
2, 391849, Note_on_c, 0, 60, 0
2, 391865, Note_on_c, 0, 50, 0
2, 391946, Note_on_c, 0, 57, 0
2, 392079, Note_on_c, 0, 53, 0
2, 393387, Note_on_c, 0, 60, 35
2, 393387, Note_on_c, 0, 64, 54
2, 393431, Note_on_c, 0, 57, 30
2, 393466, Note_on_c, 0, 64, 0
2, 393557, Note_on_c, 0, 60, 0
2, 393689, Note_on_c, 0, 57, 0
2, 393702, Note_on_c, 0, 69, 62
2, 394102, Note_on_c, 0, 69, 0
2, 394299, Note_on_c, 0, 73, 60
2, 394350, Note_on_c, 0, 53, 57
2, 394352, Note_on_c, 0, 64, 59
2, 394355, Note_on_c, 0, 59, 53
2, 394438, Note_on_c, 0, 64, 0
2, 394449, Note_on_c, 0, 53, 0
2, 394517, Note_on_c, 0, 73, 0
2, 394568, Note_on_c, 0, 53, 45
2, 394595, Note_on_c, 0, 64, 74
2, 394621, Note_on_c, 0, 76, 89
2, 394960, Note_on_c, 0, 53, 0
2, 395041, Note_on_c, 0, 59, 0
2, 395102, Note_on_c, 0, 64, 0
2, 395144, Note_on_c, 0, 76, 0
2, 395315, Note_on_c, 0, 79, 88
2, 395329, Note_on_c, 0, 76, 69
2, 395408, Note_on_c, 0, 76, 0
2, 395610, Note_on_c, 0, 62, 36
2, 395625, Note_on_c, 0, 58, 61
2, 395631, Note_on_c, 0, 79, 0
2, 395635, Note_on_c, 0, 67, 62
2, 395639, Note_on_c, 0, 63, 62
2, 395659, Note_on_c, 0, 77, 71
2, 395660, Note_on_c, 0, 74, 72
2, 396195, Note_on_c, 0, 63, 0
2, 396424, Note_on_c, 0, 74, 0
2, 396443, Note_on_c, 0, 77, 0
2, 396458, Note_on_c, 0, 63, 35
2, 396563, Note_on_c, 0, 72, 48
2, 396577, Note_on_c, 0, 75, 34
2, 396748, Note_on_c, 0, 67, 0
2, 396846, Note_on_c, 0, 63, 0
2, 397039, Note_on_c, 0, 72, 0
2, 397071, Note_on_c, 0, 75, 0
2, 397203, Note_on_c, 0, 74, 64
2, 397215, Note_on_c, 0, 77, 64
2, 397266, Note_on_c, 0, 67, 40
2, 397319, Note_on_c, 0, 63, 48
2, 397389, Note_on_c, 0, 67, 0
2, 397471, Note_on_c, 0, 74, 0
2, 397519, Note_on_c, 0, 77, 0
2, 397575, Note_on_c, 0, 63, 0
2, 397596, Note_on_c, 0, 72, 36
2, 397617, Note_on_c, 0, 75, 46
2, 398283, Note_on_c, 0, 72, 0
2, 398320, Note_on_c, 0, 63, 34
2, 398347, Note_on_c, 0, 75, 0
2, 398452, Note_on_c, 0, 62, 0
2, 398528, Note_on_c, 0, 74, 40
2, 398563, Note_on_c, 0, 63, 0
2, 398679, Note_on_c, 0, 58, 0
2, 398770, Note_on_c, 0, 74, 0
2, 399368, Note_on_c, 0, 66, 50
2, 399408, Note_on_c, 0, 61, 44
2, 399410, Note_on_c, 0, 63, 43
2, 399437, Note_on_c, 0, 57, 26
2, 399876, Note_on_c, 0, 63, 0
2, 400145, Note_on_c, 0, 63, 28
2, 400234, Note_on_c, 0, 66, 0
2, 400419, Note_on_c, 0, 75, 94
2, 400431, Note_on_c, 0, 71, 88
2, 400577, Note_on_c, 0, 63, 0
2, 400723, Note_on_c, 0, 61, 0
2, 400976, Note_on_c, 0, 71, 0
2, 401085, Note_on_c, 0, 61, 29
2, 401122, Note_on_c, 0, 63, 33
2, 401294, Note_on_c, 0, 75, 0
2, 401338, Note_on_c, 0, 73, 58
2, 401368, Note_on_c, 0, 69, 68
2, 401554, Note_on_c, 0, 57, 0
2, 401776, Note_on_c, 0, 69, 0
2, 401880, Note_on_c, 0, 63, 0
2, 401920, Note_on_c, 0, 61, 0
2, 402024, Note_on_c, 0, 75, 71
2, 402043, Note_on_c, 0, 57, 51
2, 402048, Note_on_c, 0, 71, 60
2, 402064, Note_on_c, 0, 63, 51
2, 402066, Note_on_c, 0, 66, 59
2, 402104, Note_on_c, 0, 73, 0
2, 402235, Note_on_c, 0, 71, 0
2, 402365, Note_on_c, 0, 75, 0
2, 402391, Note_on_c, 0, 73, 48
2, 402507, Note_on_c, 0, 69, 24
2, 402709, Note_on_c, 0, 66, 0
2, 402862, Note_on_c, 0, 69, 0
2, 402875, Note_on_c, 0, 57, 0
2, 403059, Note_on_c, 0, 63, 0
2, 403073, Note_on_c, 0, 73, 0
2, 403305, Note_on_c, 0, 74, 73
2, 403333, Note_on_c, 0, 65, 36
2, 403342, Note_on_c, 0, 62, 50
2, 403398, Note_on_c, 0, 60, 27
2, 404006, Note_on_c, 0, 74, 0
2, 404041, Note_on_c, 0, 65, 0
2, 404288, Note_on_c, 0, 70, 67
2, 404351, Note_on_c, 0, 53, 35
2, 404783, Note_on_c, 0, 70, 0
2, 404889, Note_on_c, 0, 72, 73
2, 404915, Note_on_c, 0, 62, 0
2, 404926, Note_on_c, 0, 69, 69
2, 404966, Note_on_c, 0, 60, 0
2, 405117, Note_on_c, 0, 69, 0
2, 405185, Note_on_c, 0, 72, 0
2, 405258, Note_on_c, 0, 70, 46
2, 405356, Note_on_c, 0, 67, 32
2, 405454, Note_on_c, 0, 53, 0
2, 405850, Note_on_c, 0, 67, 0
2, 405966, Note_on_c, 0, 70, 0
2, 406126, Note_on_c, 0, 65, 60
2, 406145, Note_on_c, 0, 61, 51
2, 406152, Note_on_c, 0, 60, 28
2, 406168, Note_on_c, 0, 69, 70
2, 406171, Note_on_c, 0, 55, 43
2, 406196, Note_on_c, 0, 66, 42
2, 406754, Note_on_c, 0, 65, 0
2, 406778, Note_on_c, 0, 69, 0
2, 406824, Note_on_c, 0, 55, 0
2, 406827, Note_on_c, 0, 66, 0
2, 406829, Note_on_c, 0, 67, 71
2, 406839, Note_on_c, 0, 70, 68
2, 406870, Note_on_c, 0, 61, 0
2, 406941, Note_on_c, 0, 60, 0
2, 407044, Note_on_c, 0, 67, 0
2, 407140, Note_on_c, 0, 69, 69
2, 407697, Note_on_c, 0, 69, 0
2, 407738, Note_on_c, 0, 65, 58
2, 407748, Note_on_c, 0, 60, 32
2, 407750, Note_on_c, 0, 70, 0
2, 407795, Note_on_c, 0, 61, 50
2, 407834, Note_on_c, 0, 65, 0
2, 407982, Note_on_c, 0, 61, 0
2, 408030, Note_on_c, 0, 64, 54
2, 408040, Note_on_c, 0, 60, 0
2, 408173, Note_on_c, 0, 67, 30
2, 408638, Note_on_c, 0, 64, 0
2, 408641, Note_on_c, 0, 67, 0
2, 409103, Note_on_c, 0, 66, 53
2, 409741, Note_on_c, 0, 66, 0
2, 409840, Note_on_c, 0, 51, 31
2, 409866, Note_on_c, 0, 44, 23
2, 409898, Note_on_c, 0, 53, 29
2, 409968, Note_on_c, 0, 65, 60
2, 409993, Note_on_c, 0, 62, 58
2, 410481, Note_on_c, 0, 44, 0
2, 410531, Note_on_c, 0, 65, 0
2, 410616, Note_on_c, 0, 62, 0
2, 410657, Note_on_c, 0, 51, 0
2, 410783, Note_on_c, 0, 53, 0
2, 410875, Note_on_c, 0, 64, 46
2, 410885, Note_on_c, 0, 60, 34
2, 410887, Note_on_c, 0, 50, 27
2, 410929, Note_on_c, 0, 43, 36
2, 411363, Note_on_c, 0, 64, 0
2, 411513, Note_on_c, 0, 60, 0
2, 411643, Note_on_c, 0, 50, 0
2, 411819, Note_on_c, 0, 43, 0
2, 411889, Note_on_c, 0, 57, 51
2, 412418, Note_on_c, 0, 57, 0
2, 412574, Note_on_c, 0, 57, 62
2, 412740, Note_on_c, 0, 57, 0
2, 413843, Note_on_c, 0, 48, 38
2, 413894, Note_on_c, 0, 41, 34
2, 414223, Note_on_c, 0, 41, 0
2, 414274, Note_on_c, 0, 48, 0
2, 415417, Note_on_c, 0, 62, 63
2, 415441, Note_on_c, 0, 60, 31
2, 415460, Note_on_c, 0, 53, 37
2, 415508, Note_on_c, 0, 57, 25
2, 415580, Note_on_c, 0, 62, 0
2, 415666, Note_on_c, 0, 53, 0
2, 415669, Note_on_c, 0, 60, 0
2, 415740, Note_on_c, 0, 57, 0
2, 416415, Note_on_c, 0, 60, 24
2, 416478, Note_on_c, 0, 57, 22
2, 416628, Note_on_c, 0, 60, 0
2, 416666, Note_on_c, 0, 70, 82
2, 416679, Note_on_c, 0, 57, 0
2, 417174, Note_on_c, 0, 70, 0
2, 417318, Note_on_c, 0, 57, 31
2, 417362, Note_on_c, 0, 68, 43
2, 417552, Note_on_c, 0, 57, 0
2, 417555, Note_on_c, 0, 68, 0
2, 417652, Note_on_c, 0, 69, 77
2, 418218, Note_on_c, 0, 69, 0
2, 418311, Note_on_c, 0, 65, 69
2, 418569, Note_on_c, 0, 65, 0
2, 418682, Note_on_c, 0, 62, 45
2, 419354, Note_on_c, 0, 53, 24
2, 419480, Note_on_c, 0, 53, 0
2, 420190, Note_on_c, 0, 62, 0
2, 420267, Note_on_c, 0, 47, 56
2, 420538, Note_on_c, 0, 47, 0
2, 420995, Note_on_c, 0, 58, 73
2, 421152, Note_on_c, 0, 58, 0
2, 421216, Note_on_c, 0, 47, 30
2, 421308, Note_on_c, 0, 59, 61
2, 421366, Note_on_c, 0, 47, 0
2, 421508, Note_on_c, 0, 59, 0
2, 421610, Note_on_c, 0, 62, 59
2, 421867, Note_on_c, 0, 62, 0
2, 421900, Note_on_c, 0, 59, 60
2, 422087, Note_on_c, 0, 59, 0
2, 422192, Note_on_c, 0, 60, 60
2, 422394, Note_on_c, 0, 60, 0
2, 422547, Note_on_c, 0, 64, 60
2, 422742, Note_on_c, 0, 64, 0
2, 423162, Note_on_c, 0, 62, 74
2, 423387, Note_on_c, 0, 62, 0
2, 423538, Note_on_c, 0, 65, 73
2, 423804, Note_on_c, 0, 65, 0
2, 423892, Note_on_c, 0, 63, 69
2, 424011, Note_on_c, 0, 56, 37
2, 424035, Note_on_c, 0, 52, 25
2, 424057, Note_on_c, 0, 63, 0
2, 424139, Note_on_c, 0, 52, 0
2, 424243, Note_on_c, 0, 64, 48
2, 424254, Note_on_c, 0, 56, 0
2, 424350, Note_on_c, 0, 64, 0
2, 424505, Note_on_c, 0, 65, 60
2, 424683, Note_on_c, 0, 65, 0
2, 424844, Note_on_c, 0, 66, 77
2, 425045, Note_on_c, 0, 66, 0
2, 425134, Note_on_c, 0, 67, 75
2, 425206, Note_on_c, 0, 62, 54
2, 425234, Note_on_c, 0, 56, 55
2, 425294, Note_on_c, 0, 67, 0
2, 425431, Note_on_c, 0, 62, 0
2, 425445, Note_on_c, 0, 68, 45
2, 425580, Note_on_c, 0, 68, 0
2, 425635, Note_on_c, 0, 56, 0
2, 425690, Note_on_c, 0, 69, 52
2, 425802, Note_on_c, 0, 69, 0
2, 425939, Note_on_c, 0, 70, 48
2, 426176, Note_on_c, 0, 71, 65
2, 426192, Note_on_c, 0, 70, 0
2, 426379, Note_on_c, 0, 71, 0
2, 426406, Note_on_c, 0, 64, 45
2, 426435, Note_on_c, 0, 74, 71
2, 426556, Note_on_c, 0, 57, 26
2, 426640, Note_on_c, 0, 64, 0
2, 426654, Note_on_c, 0, 74, 0
2, 426670, Note_on_c, 0, 71, 58
2, 426855, Note_on_c, 0, 71, 0
2, 426943, Note_on_c, 0, 57, 0
2, 426962, Note_on_c, 0, 72, 81
2, 427220, Note_on_c, 0, 72, 0
2, 427501, Note_on_c, 0, 72, 77
2, 427892, Note_on_c, 0, 72, 0
2, 428053, Note_on_c, 0, 72, 77
2, 428129, Note_on_c, 0, 65, 58
2, 428145, Note_on_c, 0, 54, 51
2, 428150, Note_on_c, 0, 60, 29
2, 428389, Note_on_c, 0, 72, 0
2, 428422, Note_on_c, 0, 65, 0
2, 428577, Note_on_c, 0, 60, 0
2, 429026, Note_on_c, 0, 60, 24
2, 429155, Note_on_c, 0, 68, 59
2, 429166, Note_on_c, 0, 60, 0
2, 429530, Note_on_c, 0, 68, 0
2, 429558, Note_on_c, 0, 54, 0
2, 429864, Note_on_c, 0, 62, 50
2, 429880, Note_on_c, 0, 58, 46
2, 429896, Note_on_c, 0, 53, 29
2, 429939, Note_on_c, 0, 57, 26
2, 430046, Note_on_c, 0, 57, 0
2, 430073, Note_on_c, 0, 62, 0
2, 430124, Note_on_c, 0, 58, 0
2, 430154, Note_on_c, 0, 53, 0
2, 431735, Note_on_c, 0, 58, 56
2, 431748, Note_on_c, 0, 62, 54
2, 431785, Note_on_c, 0, 52, 33
2, 431827, Note_on_c, 0, 62, 0
2, 431881, Note_on_c, 0, 52, 0
2, 431947, Note_on_c, 0, 58, 0
2, 432734, Note_on_c, 0, 60, 46
2, 432813, Note_on_c, 0, 60, 0
2, 433005, Note_on_c, 0, 86, 103
2, 433534, Note_on_c, 0, 86, 0
2, 433664, Note_on_c, 0, 81, 88
2, 433687, Note_on_c, 0, 57, 62
2, 433718, Note_on_c, 0, 67, 62
2, 433723, Note_on_c, 0, 65, 57
2, 433725, Note_on_c, 0, 62, 68
2, 433753, Note_on_c, 0, 58, 34
2, 433796, Note_on_c, 0, 67, 0
2, 433799, Note_on_c, 0, 65, 0
2, 433801, Note_on_c, 0, 62, 0
2, 433832, Note_on_c, 0, 58, 0
2, 433898, Note_on_c, 0, 57, 0
2, 434024, Note_on_c, 0, 81, 0
2, 434275, Note_on_c, 0, 81, 89
2, 434669, Note_on_c, 0, 81, 0
2, 434971, Note_on_c, 0, 81, 87
2, 435402, Note_on_c, 0, 81, 0
2, 435507, Note_on_c, 0, 41, 66
2, 435587, Note_on_c, 0, 81, 91
2, 435662, Note_on_c, 0, 41, 0
2, 435962, Note_on_c, 0, 81, 0
2, 436198, Note_on_c, 0, 81, 81
2, 436685, Note_on_c, 0, 81, 0
2, 436753, Note_on_c, 0, 52, 57
2, 436778, Note_on_c, 0, 62, 55
2, 436808, Note_on_c, 0, 57, 47
2, 436840, Note_on_c, 0, 77, 59
2, 436984, Note_on_c, 0, 62, 0
2, 436992, Note_on_c, 0, 52, 0
2, 437077, Note_on_c, 0, 57, 0
2, 437298, Note_on_c, 0, 77, 0
2, 437465, Note_on_c, 0, 77, 70
2, 437706, Note_on_c, 0, 77, 0
2, 438399, Note_on_c, 0, 67, 62
2, 438402, Note_on_c, 0, 62, 61
2, 438404, Note_on_c, 0, 74, 80
2, 438421, Note_on_c, 0, 57, 44
2, 438479, Note_on_c, 0, 67, 0
2, 438625, Note_on_c, 0, 62, 0
2, 438675, Note_on_c, 0, 74, 0
2, 438715, Note_on_c, 0, 57, 0
2, 438815, Note_on_c, 0, 72, 51
2, 439327, Note_on_c, 0, 72, 0
2, 439743, Note_on_c, 0, 69, 65
2, 440214, Note_on_c, 0, 69, 0
2, 440393, Note_on_c, 0, 69, 69
2, 440460, Note_on_c, 0, 40, 50
2, 440541, Note_on_c, 0, 47, 35
2, 440620, Note_on_c, 0, 40, 0
2, 440639, Note_on_c, 0, 69, 0
2, 440762, Note_on_c, 0, 67, 62
2, 440764, Note_on_c, 0, 47, 0
2, 441416, Note_on_c, 0, 67, 0
2, 441696, Note_on_c, 0, 62, 34
2, 441733, Note_on_c, 0, 60, 34
2, 441773, Note_on_c, 0, 50, 24
2, 441917, Note_on_c, 0, 50, 0
2, 441963, Note_on_c, 0, 60, 0
2, 442018, Note_on_c, 0, 62, 0
2, 442641, Note_on_c, 0, 81, 85
2, 442653, Note_on_c, 0, 74, 83
2, 442654, Note_on_c, 0, 67, 80
2, 442676, Note_on_c, 0, 62, 58
2, 442678, Note_on_c, 0, 57, 39
2, 442680, Note_on_c, 0, 52, 53
2, 442682, Note_on_c, 0, 58, 53
2, 442696, Note_on_c, 0, 79, 48
2, 442766, Note_on_c, 0, 79, 0
2, 443028, Note_on_c, 0, 62, 0
2, 443120, Note_on_c, 0, 74, 0
2, 443154, Note_on_c, 0, 58, 0
2, 443158, Note_on_c, 0, 67, 0
2, 443177, Note_on_c, 0, 52, 0
2, 443184, Note_on_c, 0, 57, 0
2, 443209, Note_on_c, 0, 81, 0
2, 444283, Note_on_c, 0, 81, 88
2, 444286, Note_on_c, 0, 74, 85
2, 444304, Note_on_c, 0, 69, 72
2, 444308, Note_on_c, 0, 57, 62
2, 444314, Note_on_c, 0, 67, 76
2, 444325, Note_on_c, 0, 62, 68
2, 444334, Note_on_c, 0, 58, 59
2, 444378, Note_on_c, 0, 52, 31
2, 444385, Note_on_c, 0, 67, 0
2, 444540, Note_on_c, 0, 67, 12
2, 444553, Note_on_c, 0, 52, 0
2, 444689, Note_on_c, 0, 57, 0
2, 444733, Note_on_c, 0, 58, 0
2, 444757, Note_on_c, 0, 62, 0
2, 444840, Note_on_c, 0, 67, 0
2, 444888, Note_on_c, 0, 69, 0
2, 444925, Note_on_c, 0, 81, 0
2, 444939, Note_on_c, 0, 79, 50
2, 444970, Note_on_c, 0, 74, 0
2, 445225, Note_on_c, 0, 79, 0
2, 445648, Note_on_c, 0, 55, 67
2, 445659, Note_on_c, 0, 80, 67
2, 445669, Note_on_c, 0, 61, 69
2, 445672, Note_on_c, 0, 65, 66
2, 445682, Note_on_c, 0, 84, 80
2, 445692, Note_on_c, 0, 71, 65
2, 445694, Note_on_c, 0, 72, 64
2, 445699, Note_on_c, 0, 77, 56
2, 445700, Note_on_c, 0, 83, 66
2, 445730, Note_on_c, 0, 76, 48
2, 445778, Note_on_c, 0, 83, 0
2, 445802, Note_on_c, 0, 71, 0
2, 445810, Note_on_c, 0, 76, 0
2, 445833, Note_on_c, 0, 80, 0
2, 446260, Note_on_c, 0, 65, 0
2, 446267, Note_on_c, 0, 72, 0
2, 446276, Note_on_c, 0, 84, 0
2, 446304, Note_on_c, 0, 77, 0
2, 446310, Note_on_c, 0, 55, 0
2, 446424, Note_on_c, 0, 61, 0
2, 446508, Note_on_c, 0, 81, 56
2, 446793, Note_on_c, 0, 81, 0
2, 447278, Note_on_c, 0, 61, 80
2, 447286, Note_on_c, 0, 55, 83
2, 447288, Note_on_c, 0, 65, 80
2, 447290, Note_on_c, 0, 88, 87
2, 447296, Note_on_c, 0, 76, 85
2, 447310, Note_on_c, 0, 81, 70
2, 447324, Note_on_c, 0, 86, 58
2, 447403, Note_on_c, 0, 86, 0
2, 447450, Note_on_c, 0, 65, 0
2, 447665, Note_on_c, 0, 55, 0
2, 447668, Note_on_c, 0, 76, 0
2, 447740, Note_on_c, 0, 88, 0
2, 447752, Note_on_c, 0, 61, 0
2, 447766, Note_on_c, 0, 81, 0
2, 447961, Note_on_c, 0, 86, 57
2, 448026, Note_on_c, 0, 72, 30
2, 448047, Note_on_c, 0, 74, 32
2, 448204, Note_on_c, 0, 72, 0
2, 448244, Note_on_c, 0, 74, 0
2, 448374, Note_on_c, 0, 86, 0
2, 448633, Note_on_c, 0, 60, 53
2, 448643, Note_on_c, 0, 50, 65
2, 448654, Note_on_c, 0, 87, 77
2, 448659, Note_on_c, 0, 57, 46
2, 448668, Note_on_c, 0, 91, 76
2, 448682, Note_on_c, 0, 79, 75
2, 448684, Note_on_c, 0, 89, 73
2, 448691, Note_on_c, 0, 85, 55
2, 448693, Note_on_c, 0, 53, 56
2, 448763, Note_on_c, 0, 89, 0
2, 448767, Note_on_c, 0, 85, 0
2, 448910, Note_on_c, 0, 60, 0
2, 448937, Note_on_c, 0, 87, 0
2, 448939, Note_on_c, 0, 88, 64
2, 449074, Note_on_c, 0, 50, 0
2, 449190, Note_on_c, 0, 79, 0
2, 449197, Note_on_c, 0, 57, 0
2, 449200, Note_on_c, 0, 91, 0
2, 449234, Note_on_c, 0, 53, 0
2, 449243, Note_on_c, 0, 88, 0
2, 449500, Note_on_c, 0, 89, 66
2, 449507, Note_on_c, 0, 77, 67
2, 449547, Note_on_c, 0, 86, 40
2, 449640, Note_on_c, 0, 86, 0
2, 449680, Note_on_c, 0, 89, 0
2, 449753, Note_on_c, 0, 77, 0
2, 450135, Note_on_c, 0, 60, 47
2, 450141, Note_on_c, 0, 57, 47
2, 450165, Note_on_c, 0, 53, 50
2, 450210, Note_on_c, 0, 60, 0
2, 450273, Note_on_c, 0, 57, 0
2, 450394, Note_on_c, 0, 53, 0
2, 451141, Note_on_c, 0, 76, 58
2, 451146, Note_on_c, 0, 88, 56
2, 451220, Note_on_c, 0, 76, 0
2, 451227, Note_on_c, 0, 88, 0
2, 452009, Note_on_c, 0, 84, 65
2, 452016, Note_on_c, 0, 72, 63
2, 452020, Note_on_c, 0, 77, 57
2, 452025, Note_on_c, 0, 81, 54
2, 452055, Note_on_c, 0, 64, 54
2, 452086, Note_on_c, 0, 60, 31
2, 452122, Note_on_c, 0, 57, 33
2, 452127, Note_on_c, 0, 72, 0
2, 452131, Note_on_c, 0, 64, 0
2, 452141, Note_on_c, 0, 77, 0
2, 452208, Note_on_c, 0, 84, 0
2, 452232, Note_on_c, 0, 81, 0
2, 452250, Note_on_c, 0, 60, 0
2, 452318, Note_on_c, 0, 57, 0
2, 453280, Note_on_c, 0, 53, 49
2, 453287, Note_on_c, 0, 83, 64
2, 453301, Note_on_c, 0, 59, 57
2, 453306, Note_on_c, 0, 71, 72
2, 453308, Note_on_c, 0, 64, 65
2, 453345, Note_on_c, 0, 76, 63
2, 453765, Note_on_c, 0, 83, 0
2, 453795, Note_on_c, 0, 71, 0
2, 453853, Note_on_c, 0, 64, 0
2, 453870, Note_on_c, 0, 53, 0
2, 453907, Note_on_c, 0, 76, 0
2, 453981, Note_on_c, 0, 59, 0
2, 454157, Note_on_c, 0, 82, 68
2, 454175, Note_on_c, 0, 59, 69
2, 454190, Note_on_c, 0, 64, 62
2, 454195, Note_on_c, 0, 70, 80
2, 454201, Note_on_c, 0, 53, 70
2, 454215, Note_on_c, 0, 76, 76
2, 454737, Note_on_c, 0, 53, 0
2, 454762, Note_on_c, 0, 76, 0
2, 454770, Note_on_c, 0, 64, 0
2, 454857, Note_on_c, 0, 59, 0
2, 454881, Note_on_c, 0, 82, 0
2, 454884, Note_on_c, 0, 70, 0
2, 455118, Note_on_c, 0, 81, 73
2, 455136, Note_on_c, 0, 76, 75
2, 455146, Note_on_c, 0, 69, 66
2, 455148, Note_on_c, 0, 59, 57
2, 455152, Note_on_c, 0, 53, 71
2, 455164, Note_on_c, 0, 64, 66
2, 455215, Note_on_c, 0, 78, 31
2, 455313, Note_on_c, 0, 78, 0
2, 455577, Note_on_c, 0, 81, 0
2, 455645, Note_on_c, 0, 53, 0
2, 455647, Note_on_c, 0, 59, 0
2, 455696, Note_on_c, 0, 69, 0
2, 455709, Note_on_c, 0, 76, 0
2, 455749, Note_on_c, 0, 64, 0
2, 455850, Note_on_c, 0, 53, 67
2, 455862, Note_on_c, 0, 59, 48
2, 456097, Note_on_c, 0, 80, 65
2, 456113, Note_on_c, 0, 75, 78
2, 456133, Note_on_c, 0, 68, 69
2, 456157, Note_on_c, 0, 64, 69
2, 456263, Note_on_c, 0, 59, 0
2, 456310, Note_on_c, 0, 53, 0
2, 456598, Note_on_c, 0, 64, 0
2, 456663, Note_on_c, 0, 68, 0
2, 456668, Note_on_c, 0, 80, 0
2, 456683, Note_on_c, 0, 75, 0
2, 456783, Note_on_c, 0, 75, 63
2, 456792, Note_on_c, 0, 67, 71
2, 456798, Note_on_c, 0, 62, 57
2, 456806, Note_on_c, 0, 58, 69
2, 456811, Note_on_c, 0, 79, 62
2, 456844, Note_on_c, 0, 63, 60
2, 458370, Note_on_c, 0, 62, 0
2, 458410, Note_on_c, 0, 63, 0
2, 458503, Note_on_c, 0, 67, 0
2, 458672, Note_on_c, 0, 62, 51
2, 458725, Note_on_c, 0, 79, 0
2, 458797, Note_on_c, 0, 75, 0
2, 458820, Note_on_c, 0, 58, 0
2, 458872, Note_on_c, 0, 62, 0
2, 459045, Control_c, 0, 64, 127
2, 459061, Note_on_c, 0, 58, 54
2, 459067, Note_on_c, 0, 62, 60
2, 459094, Note_on_c, 0, 63, 60
2, 459286, Note_on_c, 0, 62, 0
2, 459303, Note_on_c, 0, 63, 0
2, 459337, Note_on_c, 0, 58, 0
2, 459751, Note_on_c, 0, 58, 70
2, 459802, Note_on_c, 0, 67, 52
2, 459814, Note_on_c, 0, 63, 55
2, 459820, Note_on_c, 0, 62, 38
2, 459837, Control_c, 0, 64, 0
2, 459911, Note_on_c, 0, 62, 0
2, 459975, Control_c, 0, 64, 127
2, 459998, Note_on_c, 0, 67, 0
2, 460156, Note_on_c, 0, 58, 0
2, 460175, Note_on_c, 0, 63, 0
2, 460535, Control_c, 0, 64, 0
2, 460602, Note_on_c, 0, 86, 91
2, 460623, Note_on_c, 0, 81, 92
2, 460625, Note_on_c, 0, 74, 92
2, 460635, Note_on_c, 0, 57, 76
2, 460646, Note_on_c, 0, 63, 83
2, 460649, Note_on_c, 0, 67, 90
2, 460975, Control_c, 0, 64, 127
2, 461486, Note_on_c, 0, 63, 0
2, 461544, Note_on_c, 0, 86, 0
2, 461577, Note_on_c, 0, 74, 0
2, 461650, Note_on_c, 0, 67, 0
2, 461686, Note_on_c, 0, 57, 0
2, 461707, Note_on_c, 0, 63, 37
2, 461722, Note_on_c, 0, 81, 0
2, 461920, Note_on_c, 0, 57, 42
2, 461929, Control_c, 0, 64, 0
2, 461933, Note_on_c, 0, 85, 75
2, 461964, Note_on_c, 0, 73, 61
2, 461966, Note_on_c, 0, 80, 74
2, 461968, Note_on_c, 0, 67, 72
2, 462504, Note_on_c, 0, 73, 0
2, 462564, Note_on_c, 0, 67, 0
2, 462581, Note_on_c, 0, 80, 0
2, 462598, Note_on_c, 0, 85, 0
2, 462611, Note_on_c, 0, 57, 0
2, 462707, Note_on_c, 0, 63, 0
2, 462866, Note_on_c, 0, 57, 36
2, 462871, Note_on_c, 0, 84, 60
2, 462905, Note_on_c, 0, 72, 58
2, 462911, Note_on_c, 0, 79, 61
2, 462926, Note_on_c, 0, 63, 44
2, 462964, Note_on_c, 0, 67, 51
2, 463151, Note_on_c, 0, 84, 0
2, 463282, Note_on_c, 0, 79, 0
2, 463358, Note_on_c, 0, 67, 0
2, 463372, Note_on_c, 0, 72, 0
2, 463583, Note_on_c, 0, 63, 0
2, 463745, Note_on_c, 0, 63, 30
2, 463804, Note_on_c, 0, 67, 48
2, 463827, Note_on_c, 0, 82, 69
2, 463848, Note_on_c, 0, 70, 71
2, 463959, Note_on_c, 0, 77, 29
2, 464202, Note_on_c, 0, 67, 0
2, 464252, Note_on_c, 0, 77, 0
2, 464323, Note_on_c, 0, 57, 0
2, 464386, Note_on_c, 0, 70, 0
2, 464474, Note_on_c, 0, 82, 0
2, 464481, Note_on_c, 0, 63, 0
2, 464755, Note_on_c, 0, 62, 62
2, 464778, Note_on_c, 0, 81, 65
2, 464785, Note_on_c, 0, 69, 56
2, 464787, Note_on_c, 0, 65, 64
2, 464792, Note_on_c, 0, 60, 36
2, 464797, Note_on_c, 0, 55, 55
2, 464799, Note_on_c, 0, 73, 37
2, 464859, Note_on_c, 0, 76, 40
2, 465750, Control_c, 0, 64, 127
2, 466015, Note_on_c, 0, 76, 0
2, 466050, Note_on_c, 0, 55, 0
2, 466052, Note_on_c, 0, 65, 0
2, 466121, Note_on_c, 0, 69, 0
2, 466168, Note_on_c, 0, 62, 0
2, 466170, Note_on_c, 0, 60, 0
2, 466228, Note_on_c, 0, 73, 0
2, 466249, Note_on_c, 0, 81, 0
2, 466355, Control_c, 0, 64, 0
2, 466379, Note_on_c, 0, 77, 56
2, 466390, Note_on_c, 0, 74, 65
2, 466400, Note_on_c, 0, 60, 26
2, 466402, Note_on_c, 0, 62, 61
2, 466407, Note_on_c, 0, 69, 48
2, 466409, Note_on_c, 0, 65, 54
2, 466687, Note_on_c, 0, 65, 0
2, 466804, Note_on_c, 0, 62, 0
2, 466924, Note_on_c, 0, 60, 0
2, 467414, Note_on_c, 0, 69, 0
2, 467439, Note_on_c, 0, 61, 78
2, 467442, Note_on_c, 0, 65, 89
2, 467457, Note_on_c, 0, 55, 73
2, 467465, Note_on_c, 0, 60, 63
2, 467516, Note_on_c, 0, 74, 0
2, 467574, Note_on_c, 0, 77, 0
2, 468972, Note_on_c, 0, 65, 0
2, 469019, Note_on_c, 0, 55, 0
2, 469186, Note_on_c, 0, 82, 84
2, 469200, Note_on_c, 0, 70, 90
2, 469209, Note_on_c, 0, 77, 80
2, 469216, Note_on_c, 0, 55, 60
2, 469221, Note_on_c, 0, 65, 64
2, 469639, Note_on_c, 0, 77, 0
2, 469657, Note_on_c, 0, 65, 0
2, 469690, Note_on_c, 0, 70, 0
2, 469692, Note_on_c, 0, 82, 0
2, 469727, Note_on_c, 0, 55, 0
2, 469807, Note_on_c, 0, 61, 0
2, 469831, Note_on_c, 0, 60, 0
2, 470072, Note_on_c, 0, 76, 78
2, 470077, Note_on_c, 0, 60, 35
2, 470091, Note_on_c, 0, 61, 61
2, 470093, Note_on_c, 0, 65, 73
2, 470096, Note_on_c, 0, 69, 66
2, 470100, Note_on_c, 0, 81, 77
2, 470114, Note_on_c, 0, 55, 64
2, 470388, Note_on_c, 0, 65, 0
2, 470423, Note_on_c, 0, 81, 0
2, 470465, Note_on_c, 0, 69, 0
2, 470504, Note_on_c, 0, 55, 0
2, 470513, Note_on_c, 0, 76, 0
2, 470560, Note_on_c, 0, 61, 0
2, 470595, Note_on_c, 0, 60, 0
2, 470748, Note_on_c, 0, 79, 61
2, 470755, Control_c, 0, 64, 127
2, 470757, Note_on_c, 0, 61, 53
2, 470768, Note_on_c, 0, 60, 44
2, 470773, Note_on_c, 0, 55, 45
2, 470789, Note_on_c, 0, 67, 50
2, 470847, Note_on_c, 0, 75, 28
2, 471081, Note_on_c, 0, 55, 0
2, 471104, Note_on_c, 0, 79, 0
2, 471151, Note_on_c, 0, 67, 0
2, 471198, Note_on_c, 0, 61, 0
2, 471256, Note_on_c, 0, 60, 0
2, 471276, Note_on_c, 0, 75, 0
2, 471335, Control_c, 0, 64, 0
2, 471448, Note_on_c, 0, 80, 59
2, 471465, Note_on_c, 0, 61, 59
2, 471469, Note_on_c, 0, 60, 29
2, 471474, Note_on_c, 0, 68, 67
2, 471497, Note_on_c, 0, 75, 48
2, 471499, Note_on_c, 0, 55, 62
2, 471590, Control_c, 0, 64, 127
2, 471726, Note_on_c, 0, 60, 0
2, 471812, Note_on_c, 0, 75, 0
2, 471880, Note_on_c, 0, 55, 0
2, 471894, Note_on_c, 0, 80, 0
2, 471917, Note_on_c, 0, 68, 0
2, 471984, Control_c, 0, 64, 0
2, 471994, Note_on_c, 0, 61, 0
2, 472167, Note_on_c, 0, 69, 70
2, 472172, Note_on_c, 0, 81, 70
2, 472174, Note_on_c, 0, 55, 34
2, 472179, Note_on_c, 0, 76, 69
2, 472184, Note_on_c, 0, 60, 38
2, 472223, Note_on_c, 0, 78, 43
2, 472241, Note_on_c, 0, 57, 39
2, 472349, Note_on_c, 0, 78, 0
2, 472367, Note_on_c, 0, 69, 0
2, 472390, Note_on_c, 0, 55, 0
2, 472424, Control_c, 0, 64, 127
2, 472464, Note_on_c, 0, 76, 0
2, 472490, Note_on_c, 0, 81, 0
2, 472578, Note_on_c, 0, 57, 0
2, 472734, Note_on_c, 0, 60, 0
2, 472868, Control_c, 0, 64, 0
2, 473021, Note_on_c, 0, 84, 76
2, 473040, Note_on_c, 0, 79, 74
2, 473048, Note_on_c, 0, 72, 71
2, 473054, Note_on_c, 0, 57, 54
2, 473056, Note_on_c, 0, 60, 35
2, 473058, Note_on_c, 0, 55, 66
2, 473060, Note_on_c, 0, 63, 77
2, 473102, Note_on_c, 0, 58, 38
2, 473158, Control_c, 0, 64, 127
2, 473181, Note_on_c, 0, 58, 0
2, 473390, Note_on_c, 0, 72, 0
2, 473446, Note_on_c, 0, 55, 0
2, 473466, Note_on_c, 0, 84, 0
2, 473499, Note_on_c, 0, 79, 0
2, 473513, Note_on_c, 0, 63, 0
2, 473567, Note_on_c, 0, 57, 0
2, 473636, Note_on_c, 0, 60, 0
2, 473902, Control_c, 0, 64, 0
2, 473949, Note_on_c, 0, 87, 74
2, 473967, Note_on_c, 0, 75, 81
2, 473979, Note_on_c, 0, 60, 60
2, 473986, Note_on_c, 0, 63, 83
2, 473993, Note_on_c, 0, 55, 69
2, 474003, Note_on_c, 0, 57, 53
2, 474004, Note_on_c, 0, 79, 64
2, 474082, Note_on_c, 0, 79, 0
2, 474204, Control_c, 0, 64, 127
2, 474385, Note_on_c, 0, 75, 0
2, 474392, Note_on_c, 0, 55, 0
2, 474418, Note_on_c, 0, 63, 0
2, 474423, Note_on_c, 0, 87, 0
2, 474437, Note_on_c, 0, 57, 0
2, 474482, Note_on_c, 0, 60, 0
2, 474833, Control_c, 0, 64, 0
2, 474935, Note_on_c, 0, 63, 83
2, 474947, Note_on_c, 0, 55, 68
2, 474958, Note_on_c, 0, 60, 40
2, 474967, Note_on_c, 0, 89, 81
2, 474979, Note_on_c, 0, 84, 74
2, 474986, Note_on_c, 0, 77, 73
2, 475028, Note_on_c, 0, 87, 40
2, 475037, Note_on_c, 0, 57, 24
2, 475104, Note_on_c, 0, 87, 0
2, 475207, Control_c, 0, 64, 127
2, 475221, Note_on_c, 0, 77, 0
2, 475269, Note_on_c, 0, 57, 0
2, 475271, Note_on_c, 0, 84, 0
2, 475323, Note_on_c, 0, 89, 0
2, 475388, Note_on_c, 0, 55, 0
2, 475464, Note_on_c, 0, 63, 0
2, 475590, Note_on_c, 0, 60, 0
2, 475832, Control_c, 0, 64, 0
2, 475914, Note_on_c, 0, 93, 88
2, 475919, Note_on_c, 0, 88, 83
2, 475921, Note_on_c, 0, 81, 82
2, 475926, Note_on_c, 0, 60, 69
2, 475928, Note_on_c, 0, 54, 77
2, 475947, Note_on_c, 0, 64, 85
2, 476188, Control_c, 0, 64, 127
2, 476190, Note_on_c, 0, 81, 0
2, 476209, Note_on_c, 0, 64, 0
2, 476248, Note_on_c, 0, 88, 0
2, 476255, Note_on_c, 0, 93, 0
2, 476297, Note_on_c, 0, 60, 0
2, 476371, Note_on_c, 0, 54, 0
2, 476886, Control_c, 0, 64, 0
2, 476900, Note_on_c, 0, 96, 82
2, 476903, Note_on_c, 0, 91, 88
2, 476904, Note_on_c, 0, 54, 90
2, 476921, Note_on_c, 0, 60, 69
2, 476923, Note_on_c, 0, 64, 95
2, 476928, Note_on_c, 0, 84, 74
2, 476958, Note_on_c, 0, 86, 62
2, 477037, Note_on_c, 0, 86, 0
2, 477303, Control_c, 0, 64, 127
2, 477654, Note_on_c, 0, 96, 0
2, 477752, Note_on_c, 0, 91, 0
2, 477833, Note_on_c, 0, 84, 0
2, 477886, Note_on_c, 0, 64, 0
2, 477928, Note_on_c, 0, 54, 0
2, 477979, Note_on_c, 0, 60, 0
2, 478209, Note_on_c, 0, 94, 56
2, 478211, Note_on_c, 0, 54, 72
2, 478216, Note_on_c, 0, 60, 43
2, 478218, Note_on_c, 0, 64, 68
2, 478227, Note_on_c, 0, 82, 67
2, 478244, Control_c, 0, 64, 0
2, 478557, Note_on_c, 0, 64, 0
2, 478607, Note_on_c, 0, 60, 0
2, 478616, Note_on_c, 0, 94, 0
2, 478654, Note_on_c, 0, 82, 0
2, 478680, Note_on_c, 0, 54, 0
2, 479155, Note_on_c, 0, 93, 74
2, 479158, Note_on_c, 0, 60, 36
2, 479160, Note_on_c, 0, 54, 70
2, 479164, Note_on_c, 0, 64, 71
2, 479172, Control_c, 0, 64, 127
2, 479185, Note_on_c, 0, 81, 64
2, 479213, Note_on_c, 0, 88, 51
2, 479253, Note_on_c, 0, 58, 35
2, 479412, Note_on_c, 0, 88, 0
2, 479427, Control_c, 0, 64, 0
2, 479466, Note_on_c, 0, 93, 0
2, 479552, Note_on_c, 0, 60, 0
2, 479593, Note_on_c, 0, 81, 0
2, 479698, Note_on_c, 0, 64, 0
2, 479705, Note_on_c, 0, 58, 0
2, 479872, Note_on_c, 0, 54, 0
2, 480144, Note_on_c, 0, 92, 71
2, 480148, Note_on_c, 0, 64, 80
2, 480165, Note_on_c, 0, 59, 71
2, 480167, Note_on_c, 0, 80, 76
2, 480169, Note_on_c, 0, 53, 79
2, 480199, Note_on_c, 0, 86, 62
2, 480255, Note_on_c, 0, 89, 36
2, 480559, Note_on_c, 0, 86, 0
2, 480588, Note_on_c, 0, 89, 0
2, 480626, Note_on_c, 0, 64, 0
2, 480637, Note_on_c, 0, 53, 0
2, 480647, Note_on_c, 0, 92, 0
2, 480691, Note_on_c, 0, 80, 0
2, 480702, Note_on_c, 0, 59, 0
2, 480796, Note_on_c, 0, 93, 78
2, 480823, Note_on_c, 0, 64, 69
2, 480828, Note_on_c, 0, 86, 53
2, 480830, Note_on_c, 0, 53, 64
2, 480848, Note_on_c, 0, 81, 35
2, 480854, Note_on_c, 0, 59, 77
2, 480927, Note_on_c, 0, 93, 0
2, 480946, Note_on_c, 0, 86, 0
2, 480951, Note_on_c, 0, 81, 0
2, 480984, Note_on_c, 0, 64, 0
2, 481138, Note_on_c, 0, 64, 47
2, 481187, Note_on_c, 0, 74, 70
2, 481206, Note_on_c, 0, 86, 50
2, 481602, Note_on_c, 0, 74, 0
2, 481659, Note_on_c, 0, 86, 0
2, 481775, Note_on_c, 0, 53, 0
2, 481839, Note_on_c, 0, 64, 0
2, 481844, Note_on_c, 0, 59, 0
2, 482062, Note_on_c, 0, 64, 64
2, 482064, Note_on_c, 0, 59, 64
2, 482072, Note_on_c, 0, 89, 66
2, 482090, Note_on_c, 0, 84, 54
2, 482092, Note_on_c, 0, 53, 60
2, 482113, Note_on_c, 0, 77, 51
2, 482408, Note_on_c, 0, 77, 0
2, 482464, Note_on_c, 0, 53, 0
2, 482468, Note_on_c, 0, 64, 0
2, 482472, Note_on_c, 0, 84, 0
2, 482510, Note_on_c, 0, 89, 0
2, 482510, Note_on_c, 0, 59, 0
2, 483052, Note_on_c, 0, 57, 74
2, 483055, Note_on_c, 0, 92, 87
2, 483062, Note_on_c, 0, 80, 85
2, 483069, Note_on_c, 0, 58, 75
2, 483078, Note_on_c, 0, 62, 79
2, 483106, Note_on_c, 0, 86, 71
2, 483185, Note_on_c, 0, 86, 0
2, 483392, Note_on_c, 0, 62, 0
2, 483471, Note_on_c, 0, 58, 0
2, 483494, Note_on_c, 0, 57, 0
2, 483510, Note_on_c, 0, 92, 0
2, 483568, Note_on_c, 0, 80, 0
2, 483644, Note_on_c, 0, 93, 70
2, 483723, Note_on_c, 0, 93, 0
2, 483988, Note_on_c, 0, 62, 74
2, 484027, Note_on_c, 0, 57, 28
2, 484044, Note_on_c, 0, 88, 48
2, 484060, Note_on_c, 0, 58, 30
2, 484076, Note_on_c, 0, 52, 30
2, 484124, Note_on_c, 0, 74, 25
2, 484419, Note_on_c, 0, 88, 0
2, 484424, Note_on_c, 0, 74, 0
2, 484468, Note_on_c, 0, 52, 0
2, 484551, Note_on_c, 0, 62, 0
2, 484602, Note_on_c, 0, 58, 0
2, 484610, Note_on_c, 0, 57, 0
2, 484908, Note_on_c, 0, 89, 72
2, 484914, Note_on_c, 0, 57, 36
2, 484916, Note_on_c, 0, 62, 64
2, 484918, Note_on_c, 0, 84, 62
2, 484923, Note_on_c, 0, 77, 63
2, 484925, Note_on_c, 0, 58, 57
2, 484986, Note_on_c, 0, 52, 46
2, 485440, Note_on_c, 0, 89, 0
2, 485447, Note_on_c, 0, 77, 0
2, 485454, Note_on_c, 0, 84, 0
2, 485470, Note_on_c, 0, 62, 0
2, 485500, Note_on_c, 0, 52, 0
2, 485508, Note_on_c, 0, 58, 0
2, 485568, Note_on_c, 0, 57, 0
2, 485922, Note_on_c, 0, 89, 81
2, 485941, Note_on_c, 0, 77, 74
2, 485959, Note_on_c, 0, 84, 66
2, 485964, Note_on_c, 0, 62, 66
2, 485972, Note_on_c, 0, 58, 57
2, 485981, Note_on_c, 0, 57, 54
2, 486062, Note_on_c, 0, 52, 29
2, 486122, Note_on_c, 0, 62, 0
2, 486126, Note_on_c, 0, 57, 0
2, 486192, Note_on_c, 0, 58, 0
2, 486310, Note_on_c, 0, 52, 0
2, 486329, Note_on_c, 0, 84, 0
2, 486368, Note_on_c, 0, 77, 0
2, 486419, Note_on_c, 0, 89, 0
2, 486549, Note_on_c, 0, 86, 73
2, 486663, Note_on_c, 0, 48, 68
2, 486669, Note_on_c, 0, 50, 46
2, 486733, Note_on_c, 0, 47, 61
2, 486748, Note_on_c, 0, 50, 0
2, 486837, Note_on_c, 0, 86, 0
2, 486994, Note_on_c, 0, 82, 45
2, 487210, Note_on_c, 0, 47, 0
2, 487349, Note_on_c, 0, 82, 0
2, 487561, Note_on_c, 0, 82, 55
2, 488038, Note_on_c, 0, 48, 0
2, 488416, Note_on_c, 0, 48, 84
2, 488468, Note_on_c, 0, 47, 66
2, 488544, Note_on_c, 0, 47, 0
2, 489263, Note_on_c, 0, 82, 0
2, 489360, Note_on_c, 0, 86, 74
2, 489635, Note_on_c, 0, 86, 0
2, 489820, Note_on_c, 0, 84, 69
2, 490256, Note_on_c, 0, 84, 0
2, 490388, Note_on_c, 0, 72, 63
2, 490632, Note_on_c, 0, 48, 0
2, 491157, Note_on_c, 0, 48, 68
2, 491240, Note_on_c, 0, 47, 47
2, 491328, Note_on_c, 0, 47, 0
2, 492122, Note_on_c, 0, 72, 0
2, 492679, Note_on_c, 0, 48, 0
2, 493131, Note_on_c, 0, 48, 51
2, 493143, Note_on_c, 0, 72, 53
2, 493213, Note_on_c, 0, 48, 0
2, 493331, Note_on_c, 0, 72, 0
2, 493461, Note_on_c, 0, 82, 76
2, 493483, Note_on_c, 0, 58, 69
2, 493911, Note_on_c, 0, 82, 0
2, 493953, Note_on_c, 0, 58, 0
2, 494413, Note_on_c, 0, 60, 48
2, 494427, Note_on_c, 0, 84, 90
2, 494643, Note_on_c, 0, 84, 0
2, 494713, Note_on_c, 0, 60, 0
2, 495411, Note_on_c, 0, 81, 88
2, 495471, Control_c, 0, 64, 127
2, 496005, Note_on_c, 0, 81, 0
2, 496853, Control_c, 0, 64, 0
2, 496935, Note_on_c, 0, 57, 46
2, 496947, Note_on_c, 0, 69, 51
2, 496953, Note_on_c, 0, 62, 47
2, 496967, Note_on_c, 0, 64, 41
2, 496975, Note_on_c, 0, 41, 44
2, 496977, Note_on_c, 0, 52, 41
2, 496993, Note_on_c, 0, 48, 33
2, 497457, Control_c, 0, 64, 127
2, 498307, Note_on_c, 0, 69, 0
2, 498323, Note_on_c, 0, 62, 0
2, 498325, Note_on_c, 0, 64, 0
2, 498455, Note_on_c, 0, 52, 0
2, 498459, Note_on_c, 0, 57, 0
2, 498505, Note_on_c, 0, 48, 0
2, 498597, Note_on_c, 0, 41, 0
2, 498905, Note_on_c, 0, 57, 38
2, 498921, Control_c, 0, 64, 0
2, 498933, Note_on_c, 0, 60, 36
2, 498959, Note_on_c, 0, 52, 32
2, 498965, Note_on_c, 0, 41, 39
2, 498995, Note_on_c, 0, 48, 27
2, 499281, Control_c, 0, 64, 127
2, 499531, Note_on_c, 0, 57, 0
2, 499683, Note_on_c, 0, 60, 0
2, 499819, Note_on_c, 0, 41, 0
2, 499827, Note_on_c, 0, 48, 0
2, 499881, Note_on_c, 0, 52, 0
2, 500849, Note_on_c, 0, 72, 58
2, 501021, Note_on_c, 0, 72, 0
2, 501181, Note_on_c, 0, 82, 88
2, 501187, Control_c, 0, 64, 0
2, 501193, Note_on_c, 0, 72, 85
2, 501195, Note_on_c, 0, 77, 84
2, 501203, Note_on_c, 0, 70, 75
2, 501219, Note_on_c, 0, 68, 56
2, 501267, Note_on_c, 0, 79, 29
2, 501333, Note_on_c, 0, 79, 0
2, 501337, Note_on_c, 0, 68, 0
2, 501429, Note_on_c, 0, 70, 0
2, 501435, Note_on_c, 0, 72, 0
2, 501461, Note_on_c, 0, 77, 0
2, 501477, Note_on_c, 0, 82, 0
2, 502151, Note_on_c, 0, 81, 57
2, 502163, Note_on_c, 0, 69, 44
2, 502177, Note_on_c, 0, 76, 64
2, 502187, Note_on_c, 0, 72, 53
2, 502451, Note_on_c, 0, 76, 0
2, 502457, Note_on_c, 0, 69, 0
2, 502463, Note_on_c, 0, 72, 0
2, 502553, Note_on_c, 0, 81, 0
2, 503113, Note_on_c, 0, 69, 51
2, 503121, Note_on_c, 0, 71, 55
2, 503129, Note_on_c, 0, 81, 57
2, 503133, Note_on_c, 0, 78, 40
2, 503135, Note_on_c, 0, 74, 52
2, 503753, Control_c, 0, 64, 127
2, 503833, Control_c, 0, 64, 0
2, 503987, Note_on_c, 0, 81, 0
2, 504035, Note_on_c, 0, 79, 55
2, 504037, Note_on_c, 0, 74, 0
2, 504073, Note_on_c, 0, 69, 0
2, 504081, Note_on_c, 0, 67, 32
2, 504121, Note_on_c, 0, 78, 0
2, 504333, Note_on_c, 0, 79, 0
2, 504387, Note_on_c, 0, 71, 0
2, 504637, Note_on_c, 0, 67, 0
2, 504689, Note_on_c, 0, 81, 68
2, 504697, Note_on_c, 0, 71, 52
2, 504701, Note_on_c, 0, 69, 49
2, 504715, Note_on_c, 0, 74, 48
2, 504719, Note_on_c, 0, 78, 34
2, 504769, Note_on_c, 0, 69, 0
2, 504787, Note_on_c, 0, 78, 0
2, 504791, Note_on_c, 0, 74, 0
2, 504793, Note_on_c, 0, 71, 0
2, 504807, Note_on_c, 0, 81, 0
2, 506565, Note_on_c, 0, 55, 57
2, 506569, Note_on_c, 0, 45, 51
2, 506575, Note_on_c, 0, 63, 45
2, 506581, Note_on_c, 0, 61, 47
2, 506597, Note_on_c, 0, 58, 46
2, 506877, Note_on_c, 0, 58, 0
2, 506885, Note_on_c, 0, 55, 0
2, 506907, Note_on_c, 0, 45, 0
2, 506953, Note_on_c, 0, 61, 0
2, 506987, Note_on_c, 0, 63, 0
2, 507105, Note_on_c, 0, 52, 50
2, 507131, Note_on_c, 0, 55, 43
2, 507157, Note_on_c, 0, 61, 28
2, 507159, Note_on_c, 0, 64, 45
2, 507161, Note_on_c, 0, 58, 47
2, 507429, Control_c, 0, 64, 127
2, 507675, Note_on_c, 0, 55, 0
2, 507763, Note_on_c, 0, 61, 0
2, 507787, Note_on_c, 0, 64, 0
2, 507801, Note_on_c, 0, 58, 0
2, 508173, Note_on_c, 0, 52, 0
2, 508537, Note_on_c, 0, 60, 47
2, 508619, Note_on_c, 0, 60, 0
2, 508811, Control_c, 0, 64, 0
2, 508963, Note_on_c, 0, 67, 113
2, 509253, Control_c, 0, 64, 127
2, 509359, Note_on_c, 0, 67, 0
2, 509517, Note_on_c, 0, 67, 89
2, 509567, Note_on_c, 0, 55, 49
2, 509579, Note_on_c, 0, 65, 48
2, 509581, Note_on_c, 0, 61, 59
2, 509613, Control_c, 0, 64, 0
2, 509647, Note_on_c, 0, 65, 0
2, 509787, Note_on_c, 0, 61, 0
2, 509799, Note_on_c, 0, 55, 0
2, 509813, Note_on_c, 0, 67, 0
2, 509927, Note_on_c, 0, 69, 88
2, 510035, Control_c, 0, 64, 127
2, 510277, Note_on_c, 0, 69, 0
2, 510469, Note_on_c, 0, 69, 57
2, 510635, Control_c, 0, 64, 0
2, 510745, Note_on_c, 0, 60, 25
2, 510751, Note_on_c, 0, 57, 28
2, 510753, Note_on_c, 0, 50, 28
2, 510777, Note_on_c, 0, 69, 0
2, 510821, Note_on_c, 0, 53, 27
2, 510829, Note_on_c, 0, 65, 47
2, 511337, Note_on_c, 0, 65, 0
2, 511403, Note_on_c, 0, 67, 54
2, 511539, Note_on_c, 0, 65, 44
2, 511577, Note_on_c, 0, 67, 0
2, 511775, Note_on_c, 0, 64, 26
2, 511787, Note_on_c, 0, 65, 0
2, 512333, Note_on_c, 0, 64, 0
2, 512411, Note_on_c, 0, 65, 59
2, 512607, Note_on_c, 0, 65, 0
2, 512873, Note_on_c, 0, 65, 33
2, 513295, Note_on_c, 0, 65, 0
2, 513457, Note_on_c, 0, 53, 0
2, 513489, Note_on_c, 0, 57, 0
2, 513503, Note_on_c, 0, 50, 0
2, 513625, Note_on_c, 0, 64, 41
2, 513637, Note_on_c, 0, 60, 0
2, 513903, Control_c, 0, 64, 127
2, 513951, Note_on_c, 0, 64, 0
2, 514225, Control_c, 0, 64, 0
2, 514275, Note_on_c, 0, 65, 42
2, 514325, Note_on_c, 0, 64, 27
2, 514329, Note_on_c, 0, 59, 34
2, 514343, Note_on_c, 0, 53, 19
2, 514585, Control_c, 0, 64, 127
2, 514825, Note_on_c, 0, 65, 0
2, 515489, Note_on_c, 0, 76, 51
2, 515681, Note_on_c, 0, 59, 0
2, 515841, Note_on_c, 0, 53, 0
2, 515893, Note_on_c, 0, 64, 0
2, 515939, Note_on_c, 0, 76, 0
2, 516125, Note_on_c, 0, 64, 48
2, 516143, Note_on_c, 0, 77, 80
2, 516149, Note_on_c, 0, 59, 60
2, 516155, Note_on_c, 0, 53, 51
2, 516191, Control_c, 0, 64, 0
2, 516415, Note_on_c, 0, 53, 0
2, 516437, Note_on_c, 0, 64, 0
2, 516439, Note_on_c, 0, 77, 0
2, 516469, Note_on_c, 0, 59, 0
2, 516617, Note_on_c, 0, 59, 74
2, 516619, Note_on_c, 0, 64, 73
2, 516629, Note_on_c, 0, 53, 71
2, 516635, Note_on_c, 0, 81, 108
2, 516791, Control_c, 0, 64, 127
2, 517171, Note_on_c, 0, 53, 0
2, 517253, Note_on_c, 0, 64, 0
2, 517417, Note_on_c, 0, 64, 26
2, 517433, Control_c, 0, 64, 0
2, 517455, Note_on_c, 0, 53, 41
2, 517483, Note_on_c, 0, 81, 0
2, 517513, Note_on_c, 0, 77, 74
2, 517553, Control_c, 0, 64, 127
2, 517625, Note_on_c, 0, 64, 0
2, 517677, Note_on_c, 0, 53, 0
2, 517715, Note_on_c, 0, 59, 0
2, 517731, Note_on_c, 0, 77, 0
2, 518395, Control_c, 0, 64, 0
2, 518557, Control_c, 0, 64, 127
2, 518997, Control_c, 0, 64, 0
2, 519067, Note_on_c, 0, 75, 54
2, 519101, Note_on_c, 0, 58, 37
2, 519103, Note_on_c, 0, 63, 44
2, 519125, Note_on_c, 0, 67, 34
2, 519133, Note_on_c, 0, 70, 56
2, 519155, Note_on_c, 0, 62, 53
2, 519459, Control_c, 0, 64, 127
2, 519787, Note_on_c, 0, 62, 0
2, 519841, Note_on_c, 0, 63, 0
2, 519947, Note_on_c, 0, 58, 0
2, 519969, Note_on_c, 0, 70, 0
2, 519973, Note_on_c, 0, 67, 0
2, 520023, Note_on_c, 0, 75, 0
2, 521263, Control_c, 0, 64, 0
2, 521363, Note_on_c, 0, 63, 61
2, 521379, Note_on_c, 0, 58, 54
2, 521381, Note_on_c, 0, 67, 58
2, 521441, Note_on_c, 0, 48, 30
2, 521777, Note_on_c, 0, 48, 0
2, 521825, Control_c, 0, 64, 127
2, 521895, Note_on_c, 0, 58, 0
2, 521937, Note_on_c, 0, 63, 0
2, 521965, Control_c, 0, 64, 0
2, 521967, Note_on_c, 0, 67, 0
2, 522065, Note_on_c, 0, 65, 55
2, 522067, Note_on_c, 0, 62, 58
2, 522087, Note_on_c, 0, 57, 47
2, 522297, Note_on_c, 0, 51, 6
2, 522507, Control_c, 0, 64, 127
2, 522773, Note_on_c, 0, 57, 0
2, 522843, Note_on_c, 0, 51, 0
2, 523229, Note_on_c, 0, 65, 0
2, 523263, Note_on_c, 0, 41, 62
2, 523295, Note_on_c, 0, 62, 0
2, 523309, Control_c, 0, 64, 0
2, 523379, Note_on_c, 0, 41, 0
2, 523429, Control_c, 0, 64, 127
2, 524823, Note_on_c, 0, 56, 74
2, 524831, Note_on_c, 0, 63, 74
2, 524835, Note_on_c, 0, 68, 69
2, 524837, Note_on_c, 0, 61, 73
2, 524839, Note_on_c, 0, 57, 71
2, 524893, Control_c, 0, 64, 0
2, 525301, Note_on_c, 0, 63, 0
2, 525311, Note_on_c, 0, 61, 0
2, 525311, Note_on_c, 0, 68, 0
2, 525323, Note_on_c, 0, 56, 0
2, 525333, Control_c, 0, 64, 127
2, 525335, Note_on_c, 0, 57, 0
2, 525469, Note_on_c, 0, 66, 59
2, 525487, Note_on_c, 0, 63, 49
2, 525493, Note_on_c, 0, 61, 38
2, 525497, Note_on_c, 0, 54, 47
2, 525503, Note_on_c, 0, 57, 39
2, 525811, Note_on_c, 0, 57, 0
2, 525831, Note_on_c, 0, 66, 0
2, 525929, Note_on_c, 0, 54, 0
2, 525945, Note_on_c, 0, 63, 0
2, 525983, Note_on_c, 0, 61, 0
2, 526035, Control_c, 0, 64, 0
2, 526139, Note_on_c, 0, 65, 57
2, 526143, Note_on_c, 0, 57, 43
2, 526163, Note_on_c, 0, 53, 45
2, 526179, Note_on_c, 0, 46, 40
2, 526187, Note_on_c, 0, 62, 36
2, 526431, Note_on_c, 0, 57, 0
2, 526457, Control_c, 0, 64, 127
2, 526479, Note_on_c, 0, 65, 0
2, 526505, Note_on_c, 0, 62, 0
2, 526893, Note_on_c, 0, 53, 0
2, 526977, Control_c, 0, 64, 0
2, 527055, Note_on_c, 0, 73, 56
2, 527069, Note_on_c, 0, 61, 52
2, 527081, Note_on_c, 0, 49, 45
2, 527239, Control_c, 0, 64, 127
2, 527491, Note_on_c, 0, 73, 0
2, 527561, Note_on_c, 0, 61, 0
2, 527563, Note_on_c, 0, 46, 0
2, 527567, Note_on_c, 0, 49, 0
2, 527639, Control_c, 0, 64, 0
2, 527711, Note_on_c, 0, 62, 74
2, 527729, Note_on_c, 0, 74, 63
2, 527739, Note_on_c, 0, 50, 54
2, 527791, Note_on_c, 0, 62, 0
2, 527845, Note_on_c, 0, 50, 0
2, 527921, Control_c, 0, 64, 127
2, 527927, Note_on_c, 0, 74, 0
2, 529605, Note_on_c, 0, 84, 94
2, 529609, Note_on_c, 0, 60, 37
2, 529611, Note_on_c, 0, 61, 56
2, 529615, Note_on_c, 0, 65, 71
2, 529625, Control_c, 0, 64, 0
2, 529627, Note_on_c, 0, 77, 88
2, 529637, Note_on_c, 0, 55, 55
2, 530045, Control_c, 0, 64, 127
2, 530051, Note_on_c, 0, 55, 0
2, 530061, Note_on_c, 0, 65, 0
2, 530101, Note_on_c, 0, 60, 0
2, 530103, Note_on_c, 0, 61, 0
2, 530119, Note_on_c, 0, 84, 0
2, 530207, Control_c, 0, 64, 0
2, 530237, Note_on_c, 0, 73, 49
2, 530259, Note_on_c, 0, 60, 40
2, 530261, Note_on_c, 0, 81, 66
2, 530263, Note_on_c, 0, 65, 54
2, 530267, Note_on_c, 0, 61, 67
2, 530279, Note_on_c, 0, 55, 37
2, 530371, Control_c, 0, 64, 127
2, 530651, Note_on_c, 0, 55, 0
2, 530685, Note_on_c, 0, 73, 0
2, 530713, Note_on_c, 0, 77, 0
2, 530723, Note_on_c, 0, 65, 0
2, 530747, Note_on_c, 0, 60, 0
2, 530757, Note_on_c, 0, 81, 0
2, 530761, Note_on_c, 0, 61, 0
2, 530793, Control_c, 0, 64, 0
2, 530943, Note_on_c, 0, 65, 46
2, 530949, Note_on_c, 0, 81, 58
2, 530951, Note_on_c, 0, 61, 51
2, 530955, Note_on_c, 0, 60, 24
2, 530957, Note_on_c, 0, 73, 33
2, 530983, Note_on_c, 0, 77, 58
2, 530993, Note_on_c, 0, 55, 44
2, 531113, Control_c, 0, 64, 127
2, 531317, Note_on_c, 0, 55, 0
2, 531387, Note_on_c, 0, 65, 0
2, 531403, Note_on_c, 0, 73, 0
2, 531427, Note_on_c, 0, 81, 0
2, 531437, Note_on_c, 0, 77, 0
2, 531443, Note_on_c, 0, 60, 0
2, 531445, Note_on_c, 0, 61, 0
2, 531475, Control_c, 0, 64, 0
2, 531631, Note_on_c, 0, 73, 28
2, 531633, Note_on_c, 0, 81, 58
2, 531643, Note_on_c, 0, 61, 51
2, 531649, Note_on_c, 0, 65, 48
2, 531651, Note_on_c, 0, 60, 24
2, 531661, Note_on_c, 0, 77, 50
2, 531679, Note_on_c, 0, 55, 45
2, 531895, Control_c, 0, 64, 127
2, 532293, Note_on_c, 0, 81, 0
2, 532301, Note_on_c, 0, 55, 0
2, 532303, Note_on_c, 0, 65, 0
2, 532395, Note_on_c, 0, 61, 0
2, 532423, Note_on_c, 0, 60, 0
2, 532493, Note_on_c, 0, 77, 0
2, 532497, Note_on_c, 0, 82, 73
2, 532521, Note_on_c, 0, 65, 42
2, 532527, Note_on_c, 0, 61, 30
2, 532535, Note_on_c, 0, 60, 22
2, 532539, Note_on_c, 0, 55, 37
2, 532677, Control_c, 0, 64, 0
2, 532683, Note_on_c, 0, 73, 0
2, 532837, Control_c, 0, 64, 127
2, 533053, Note_on_c, 0, 82, 0
2, 533095, Note_on_c, 0, 60, 0
2, 533131, Note_on_c, 0, 65, 0
2, 533185, Note_on_c, 0, 55, 0
2, 533195, Note_on_c, 0, 77, 63
2, 533211, Note_on_c, 0, 61, 0
2, 533357, Note_on_c, 0, 77, 0
2, 533477, Note_on_c, 0, 79, 76
2, 533661, Control_c, 0, 64, 0
2, 533693, Note_on_c, 0, 79, 0
2, 533803, Note_on_c, 0, 53, 56
2, 533807, Note_on_c, 0, 60, 46
2, 533813, Note_on_c, 0, 64, 64
2, 533817, Note_on_c, 0, 57, 47
2, 533845, Note_on_c, 0, 81, 99
2, 534361, Control_c, 0, 64, 127
2, 535253, Note_on_c, 0, 60, 0
2, 535299, Note_on_c, 0, 81, 0
2, 535529, Note_on_c, 0, 64, 0
2, 535705, Control_c, 0, 64, 0
2, 535753, Note_on_c, 0, 73, 40
2, 535763, Note_on_c, 0, 61, 51
2, 535765, Note_on_c, 0, 69, 52
2, 535777, Note_on_c, 0, 64, 32
2, 536287, Control_c, 0, 64, 127
2, 536885, Note_on_c, 0, 53, 0
2, 536953, Note_on_c, 0, 64, 0
2, 537093, Note_on_c, 0, 69, 0
2, 537257, Note_on_c, 0, 73, 0
2, 537317, Note_on_c, 0, 57, 0
2, 537335, Note_on_c, 0, 62, 58
2, 537337, Note_on_c, 0, 74, 49
2, 537345, Note_on_c, 0, 53, 36
2, 537353, Note_on_c, 0, 69, 46
2, 537369, Control_c, 0, 64, 0
2, 537451, Note_on_c, 0, 61, 0
2, 537931, Control_c, 0, 64, 127
2, 538203, Note_on_c, 0, 69, 0
2, 538271, Note_on_c, 0, 74, 0
2, 538291, Note_on_c, 0, 62, 0
2, 538515, Note_on_c, 0, 53, 0
2, 539165, Note_on_c, 0, 54, 30
2, 539337, Note_on_c, 0, 56, 42
2, 539355, Control_c, 0, 64, 0
2, 539361, Note_on_c, 0, 54, 0
2, 539439, Note_on_c, 0, 57, 64
2, 539443, Note_on_c, 0, 81, 87
2, 539457, Note_on_c, 0, 69, 83
2, 539469, Note_on_c, 0, 56, 0
2, 539873, Note_on_c, 0, 81, 0
2, 539977, Note_on_c, 0, 69, 0
2, 540027, Note_on_c, 0, 57, 0
2, 540095, Note_on_c, 0, 80, 33
2, 540131, Note_on_c, 0, 56, 38
2, 540217, Note_on_c, 0, 80, 0
2, 540361, Note_on_c, 0, 56, 0
2, 540377, Note_on_c, 0, 81, 80
2, 540381, Note_on_c, 0, 57, 56
2, 540387, Note_on_c, 0, 69, 75
2, 540775, Note_on_c, 0, 81, 0
2, 540859, Control_c, 0, 64, 127
2, 540933, Note_on_c, 0, 69, 0
2, 540983, Note_on_c, 0, 57, 0
2, 541029, Note_on_c, 0, 80, 33
2, 541181, Note_on_c, 0, 80, 0
2, 541199, Control_c, 0, 64, 0
2, 541351, Note_on_c, 0, 81, 74
2, 541365, Note_on_c, 0, 69, 60
2, 541539, Control_c, 0, 64, 127
2, 542303, Control_c, 0, 64, 0
2, 542503, Control_c, 0, 64, 127
2, 543145, Control_c, 0, 64, 0
2, 543311, Note_on_c, 0, 62, 42
2, 543331, Note_on_c, 0, 67, 58
2, 543357, Note_on_c, 0, 57, 36
2, 543359, Note_on_c, 0, 63, 51
2, 543605, Control_c, 0, 64, 127
2, 543999, Note_on_c, 0, 69, 0
2, 544109, Note_on_c, 0, 62, 0
2, 544145, Note_on_c, 0, 57, 0
2, 544165, Note_on_c, 0, 67, 0
2, 544281, Note_on_c, 0, 63, 0
2, 544799, Note_on_c, 0, 81, 0
2, 544951, Note_on_c, 0, 76, 58
2, 544969, Control_c, 0, 64, 0
2, 544975, Note_on_c, 0, 72, 24
2, 544979, Note_on_c, 0, 67, 35
2, 544991, Note_on_c, 0, 79, 51
2, 544999, Note_on_c, 0, 56, 37
2, 545005, Note_on_c, 0, 62, 33
2, 545551, Control_c, 0, 64, 127
2, 545863, Note_on_c, 0, 79, 0
2, 545923, Note_on_c, 0, 72, 0
2, 545929, Note_on_c, 0, 76, 0
2, 546185, Note_on_c, 0, 67, 0
2, 546477, Note_on_c, 0, 56, 0
2, 546499, Note_on_c, 0, 62, 0
2, 546859, Note_on_c, 0, 76, 89
2, 546867, Note_on_c, 0, 72, 85
2, 546869, Note_on_c, 0, 67, 88
2, 546879, Note_on_c, 0, 56, 73
2, 546893, Control_c, 0, 64, 0
2, 546899, Note_on_c, 0, 62, 69
2, 547155, Note_on_c, 0, 76, 0
2, 547171, Note_on_c, 0, 67, 0
2, 547263, Note_on_c, 0, 72, 0
2, 547271, Note_on_c, 0, 62, 0
2, 547281, Note_on_c, 0, 56, 0
2, 547403, Note_on_c, 0, 75, 70
2, 547415, Control_c, 0, 64, 127
2, 547419, Note_on_c, 0, 72, 62
2, 547441, Note_on_c, 0, 66, 59
2, 547467, Note_on_c, 0, 62, 58
2, 547479, Note_on_c, 0, 56, 50
2, 547749, Note_on_c, 0, 56, 0
2, 547823, Note_on_c, 0, 72, 0
2, 547829, Note_on_c, 0, 75, 0
2, 547857, Note_on_c, 0, 66, 0
2, 547937, Control_c, 0, 64, 0
2, 548007, Note_on_c, 0, 76, 70
2, 548017, Note_on_c, 0, 72, 63
2, 548019, Note_on_c, 0, 67, 41
2, 548025, Note_on_c, 0, 56, 61
2, 548087, Note_on_c, 0, 67, 0
2, 548147, Note_on_c, 0, 72, 0
2, 548151, Note_on_c, 0, 62, 0
2, 548181, Note_on_c, 0, 76, 0
2, 548257, Control_c, 0, 64, 127
2, 548277, Note_on_c, 0, 56, 0
2, 548361, Note_on_c, 0, 73, 31
2, 548479, Note_on_c, 0, 73, 0
2, 548759, Control_c, 0, 64, 0
2, 548777, Note_on_c, 0, 79, 69
2, 548785, Note_on_c, 0, 76, 74
2, 548789, Note_on_c, 0, 67, 68
2, 548797, Note_on_c, 0, 57, 51
2, 548797, Note_on_c, 0, 72, 68
2, 548801, Note_on_c, 0, 64, 66
2, 548815, Note_on_c, 0, 60, 34
2, 548819, Note_on_c, 0, 55, 46
2, 549145, Control_c, 0, 64, 127
2, 549523, Note_on_c, 0, 64, 0
2, 549557, Note_on_c, 0, 60, 0
2, 549593, Note_on_c, 0, 79, 0
2, 549685, Note_on_c, 0, 76, 0
2, 549689, Note_on_c, 0, 55, 0
2, 549781, Note_on_c, 0, 57, 0
2, 549797, Note_on_c, 0, 72, 0
2, 549835, Note_on_c, 0, 67, 0
2, 550989, Control_c, 0, 64, 0
2, 551011, Note_on_c, 0, 62, 44
2, 551021, Note_on_c, 0, 56, 34
2, 551031, Note_on_c, 0, 53, 29
2, 551035, Note_on_c, 0, 59, 44
2, 551041, Note_on_c, 0, 44, 34
2, 551389, Control_c, 0, 64, 127
2, 551773, Note_on_c, 0, 53, 0
2, 551915, Note_on_c, 0, 62, 0
2, 551919, Note_on_c, 0, 59, 0
2, 551939, Note_on_c, 0, 56, 0
2, 552045, Note_on_c, 0, 44, 0
2, 552633, Control_c, 0, 64, 0
2, 552667, Note_on_c, 0, 53, 46
2, 552685, Note_on_c, 0, 62, 50
2, 552705, Note_on_c, 0, 58, 48
2, 552719, Note_on_c, 0, 50, 40
2, 552727, Note_on_c, 0, 43, 32
2, 552935, Control_c, 0, 64, 127
2, 552969, Note_on_c, 0, 43, 0
2, 552975, Note_on_c, 0, 53, 0
2, 553043, Note_on_c, 0, 50, 0
2, 553099, Note_on_c, 0, 62, 0
2, 553105, Note_on_c, 0, 58, 0
2, 553837, Control_c, 0, 64, 0
2, 553935, Note_on_c, 0, 68, 81
2, 553939, Note_on_c, 0, 72, 78
2, 553941, Note_on_c, 0, 64, 84
2, 553955, Note_on_c, 0, 48, 64
2, 553957, Note_on_c, 0, 58, 73
2, 554205, Note_on_c, 0, 48, 0
2, 554243, Control_c, 0, 64, 127
2, 554275, Note_on_c, 0, 72, 0
2, 554291, Note_on_c, 0, 68, 0
2, 554351, Note_on_c, 0, 58, 0
2, 554487, Note_on_c, 0, 64, 0
2, 554825, Control_c, 0, 64, 0
2, 554919, Note_on_c, 0, 75, 82
2, 554929, Note_on_c, 0, 68, 87
2, 554935, Note_on_c, 0, 63, 84
2, 554937, Note_on_c, 0, 72, 80
2, 554941, Note_on_c, 0, 64, 83
2, 555305, Control_c, 0, 64, 127
2, 555543, Note_on_c, 0, 72, 0
2, 555557, Note_on_c, 0, 68, 0
2, 555587, Note_on_c, 0, 75, 0
2, 555597, Note_on_c, 0, 64, 0
2, 555653, Note_on_c, 0, 63, 0
2, 555767, Control_c, 0, 64, 0
2, 555861, Note_on_c, 0, 73, 53
2, 555889, Note_on_c, 0, 64, 40
2, 555891, Note_on_c, 0, 68, 69
2, 555943, Note_on_c, 0, 58, 47
2, 556047, Control_c, 0, 64, 127
2, 556369, Note_on_c, 0, 64, 0
2, 556417, Note_on_c, 0, 73, 0
2, 556449, Note_on_c, 0, 68, 0
2, 556549, Control_c, 0, 64, 0
2, 556575, Note_on_c, 0, 72, 62
2, 556577, Note_on_c, 0, 58, 0
2, 556595, Note_on_c, 0, 62, 59
2, 556599, Note_on_c, 0, 67, 64
2, 556619, Note_on_c, 0, 57, 45
2, 556869, Control_c, 0, 64, 127
2, 556891, Note_on_c, 0, 72, 0
2, 556929, Note_on_c, 0, 67, 0
2, 556937, Note_on_c, 0, 57, 0
2, 557129, Note_on_c, 0, 62, 0
2, 557507, Note_on_c, 0, 60, 52
2, 557513, Note_on_c, 0, 64, 62
2, 557515, Note_on_c, 0, 69, 57
2, 557531, Control_c, 0, 64, 0
2, 557533, Note_on_c, 0, 52, 40
2, 557599, Note_on_c, 0, 64, 0
2, 557611, Note_on_c, 0, 69, 0
2, 557681, Note_on_c, 0, 60, 0
2, 557685, Note_on_c, 0, 52, 0
2, 558121, Note_on_c, 0, 64, 34
2, 558143, Note_on_c, 0, 67, 50
2, 558147, Note_on_c, 0, 52, 50
2, 558149, Note_on_c, 0, 57, 46
2, 558161, Note_on_c, 0, 60, 34
2, 558233, Control_c, 0, 64, 127
2, 558365, Note_on_c, 0, 64, 0
2, 558427, Note_on_c, 0, 67, 0
2, 558457, Note_on_c, 0, 60, 0
2, 558461, Note_on_c, 0, 52, 0
2, 558549, Note_on_c, 0, 57, 0
2, 558693, Control_c, 0, 64, 0
2, 558799, Note_on_c, 0, 65, 47
2, 558809, Note_on_c, 0, 52, 37
2, 558811, Note_on_c, 0, 60, 39
2, 558837, Note_on_c, 0, 57, 34
2, 558899, Note_on_c, 0, 41, 35
2, 558977, Note_on_c, 0, 60, 0
2, 558979, Note_on_c, 0, 65, 0
2, 559035, Control_c, 0, 64, 127
2, 559087, Note_on_c, 0, 57, 0
2, 559401, Note_on_c, 0, 52, 0
2, 559495, Control_c, 0, 64, 0
2, 559497, Note_on_c, 0, 64, 43
2, 559513, Note_on_c, 0, 61, 47
2, 559519, Note_on_c, 0, 53, 38
2, 559545, Note_on_c, 0, 57, 45
2, 559595, Note_on_c, 0, 49, 25
2, 559763, Note_on_c, 0, 57, 0
2, 559825, Note_on_c, 0, 61, 0
2, 559841, Note_on_c, 0, 53, 0
2, 559991, Note_on_c, 0, 64, 0
2, 560159, Note_on_c, 0, 49, 0
2, 560183, Note_on_c, 0, 62, 51
2, 560195, Note_on_c, 0, 53, 32
2, 560205, Note_on_c, 0, 50, 37
2, 560213, Note_on_c, 0, 57, 37
2, 560479, Control_c, 0, 64, 127
2, 560555, Note_on_c, 0, 53, 0
2, 560615, Note_on_c, 0, 57, 0
2, 560639, Control_c, 0, 64, 0
2, 560683, Note_on_c, 0, 62, 0
2, 560691, Note_on_c, 0, 50, 0
2, 560805, Note_on_c, 0, 48, 44
2, 560815, Note_on_c, 0, 53, 33
2, 560831, Note_on_c, 0, 60, 24
2, 560875, Note_on_c, 0, 57, 20
2, 561061, Control_c, 0, 64, 127
2, 561255, Note_on_c, 0, 57, 0
2, 561257, Note_on_c, 0, 53, 0
2, 561303, Note_on_c, 0, 60, 0
2, 561411, Note_on_c, 0, 48, 0
2, 561415, Note_on_c, 0, 53, 43
2, 561433, Note_on_c, 0, 62, 47
2, 561447, Note_on_c, 0, 57, 26
2, 561461, Control_c, 0, 64, 0
2, 561473, Note_on_c, 0, 50, 42
2, 561563, Note_on_c, 0, 53, 0
2, 561615, Note_on_c, 0, 57, 0
2, 561641, Note_on_c, 0, 50, 0
2, 561685, Note_on_c, 0, 62, 0
2, 562263, Control_c, 0, 64, 127
2, 562287, Note_on_c, 0, 60, 41
2, 562307, Note_on_c, 0, 41, 0
2, 562323, Note_on_c, 0, 48, 41
2, 562423, Control_c, 0, 64, 0
2, 562441, Note_on_c, 0, 48, 0
2, 562499, Note_on_c, 0, 60, 0
2, 562675, Note_on_c, 0, 70, 88
2, 563061, Note_on_c, 0, 70, 0
2, 563145, Control_c, 0, 64, 127
2, 563225, Control_c, 0, 64, 0
2, 563249, Note_on_c, 0, 70, 80
2, 563487, Note_on_c, 0, 70, 0
2, 563605, Note_on_c, 0, 69, 54
2, 563987, Control_c, 0, 64, 127
2, 564115, Note_on_c, 0, 69, 0
2, 564329, Control_c, 0, 64, 0
2, 564449, Note_on_c, 0, 47, 18
2, 564461, Note_on_c, 0, 40, 33
2, 564513, Note_on_c, 0, 69, 60
2, 564547, Note_on_c, 0, 55, 24
2, 564829, Control_c, 0, 64, 127
2, 564975, Note_on_c, 0, 40, 0
2, 565029, Note_on_c, 0, 47, 0
2, 565139, Note_on_c, 0, 55, 0
2, 565359, Note_on_c, 0, 69, 0
2, 565429, Note_on_c, 0, 67, 42
2, 565969, Note_on_c, 0, 67, 0
2, 566055, Note_on_c, 0, 64, 35
2, 566469, Note_on_c, 0, 64, 0
2, 566917, Note_on_c, 0, 62, 55
2, 566935, Control_c, 0, 64, 0
2, 566937, Note_on_c, 0, 55, 38
2, 566961, Note_on_c, 0, 59, 47
2, 566963, Note_on_c, 0, 66, 39
2, 567417, Control_c, 0, 64, 127
2, 567719, Note_on_c, 0, 62, 0
2, 567827, Note_on_c, 0, 59, 0
2, 567863, Note_on_c, 0, 55, 0
2, 567973, Note_on_c, 0, 66, 0
2, 568279, Control_c, 0, 64, 0
2, 568289, Note_on_c, 0, 66, 39
2, 568303, Note_on_c, 0, 61, 52
2, 568325, Note_on_c, 0, 55, 22
2, 569081, Control_c, 0, 64, 127
2, 569237, Note_on_c, 0, 55, 0
2, 569315, Note_on_c, 0, 66, 0
2, 569357, Note_on_c, 0, 61, 0
2, 569831, Note_on_c, 0, 66, 52
2, 569857, Note_on_c, 0, 61, 47
2, 569895, Note_on_c, 0, 55, 28
2, 569943, Control_c, 0, 64, 0
2, 569993, Note_on_c, 0, 55, 0
2, 570071, Note_on_c, 0, 66, 0
2, 570083, Note_on_c, 0, 61, 0
2, 570341, Note_on_c, 0, 79, 73
2, 570355, Note_on_c, 0, 70, 72
2, 570363, Control_c, 0, 64, 127
2, 570367, Note_on_c, 0, 73, 60
2, 570403, Note_on_c, 0, 55, 55
2, 570413, Note_on_c, 0, 66, 57
2, 570421, Note_on_c, 0, 61, 54
2, 570657, Note_on_c, 0, 79, 0
2, 570761, Note_on_c, 0, 55, 0
2, 570827, Note_on_c, 0, 66, 0
2, 570853, Note_on_c, 0, 70, 0
2, 570867, Note_on_c, 0, 73, 0
2, 570935, Note_on_c, 0, 61, 0
2, 571005, Control_c, 0, 64, 0
2, 571097, Note_on_c, 0, 66, 55
2, 571103, Note_on_c, 0, 61, 53
2, 571111, Note_on_c, 0, 81, 64
2, 571147, Note_on_c, 0, 55, 32
2, 571165, Note_on_c, 0, 66, 0
2, 571185, Note_on_c, 0, 80, 33
2, 571221, Note_on_c, 0, 81, 0
2, 571225, Note_on_c, 0, 55, 0
2, 571245, Control_c, 0, 64, 127
2, 571247, Note_on_c, 0, 61, 0
2, 571257, Note_on_c, 0, 80, 0
2, 571767, Control_c, 0, 64, 0
2, 571785, Note_on_c, 0, 77, 62
2, 571805, Note_on_c, 0, 60, 43
2, 571811, Note_on_c, 0, 65, 46
2, 571813, Note_on_c, 0, 50, 35
2, 571815, Note_on_c, 0, 72, 59
2, 571837, Note_on_c, 0, 57, 33
2, 571849, Note_on_c, 0, 53, 31
2, 572089, Control_c, 0, 64, 127
2, 572101, Note_on_c, 0, 77, 0
2, 572119, Note_on_c, 0, 60, 0
2, 572147, Note_on_c, 0, 72, 0
2, 572381, Note_on_c, 0, 65, 0
2, 572671, Note_on_c, 0, 76, 65
2, 572691, Note_on_c, 0, 61, 57
2, 572703, Note_on_c, 0, 69, 48
2, 572707, Note_on_c, 0, 65, 47
2, 572749, Control_c, 0, 64, 0
2, 572921, Note_on_c, 0, 65, 0
2, 572959, Note_on_c, 0, 61, 0
2, 573003, Note_on_c, 0, 69, 0
2, 573005, Note_on_c, 0, 76, 0
2, 573105, Note_on_c, 0, 60, 30
2, 573109, Note_on_c, 0, 74, 35
2, 573143, Note_on_c, 0, 65, 29
2, 573151, Control_c, 0, 64, 127
2, 573301, Note_on_c, 0, 74, 0
2, 573347, Note_on_c, 0, 65, 0
2, 573467, Note_on_c, 0, 57, 0
2, 573525, Note_on_c, 0, 53, 0
2, 573551, Note_on_c, 0, 50, 0
2, 573587, Note_on_c, 0, 60, 0
2, 573693, Control_c, 0, 64, 0
2, 573703, Note_on_c, 0, 69, 62
2, 573705, Note_on_c, 0, 60, 22
2, 573707, Note_on_c, 0, 65, 54
2, 573721, Note_on_c, 0, 62, 51
2, 573743, Note_on_c, 0, 57, 28
2, 573765, Note_on_c, 0, 53, 39
2, 573787, Note_on_c, 0, 69, 0
2, 573797, Note_on_c, 0, 65, 0
2, 573811, Note_on_c, 0, 60, 0
2, 573813, Note_on_c, 0, 62, 0
2, 573873, Note_on_c, 0, 53, 0
2, 573913, Note_on_c, 0, 57, 0
2, 574613, Note_on_c, 0, 62, 66
2, 574625, Note_on_c, 0, 60, 39
2, 574627, Note_on_c, 0, 65, 49
2, 574701, Note_on_c, 0, 65, 0
2, 574735, Note_on_c, 0, 53, 26
2, 574743, Note_on_c, 0, 62, 0
2, 574749, Note_on_c, 0, 60, 0
2, 574815, Note_on_c, 0, 53, 0
2, 575317, Control_c, 0, 64, 127
2, 575377, Control_c, 0, 64, 0
2, 575521, Note_on_c, 0, 60, 45
2, 575557, Note_on_c, 0, 50, 34
2, 575567, Note_on_c, 0, 57, 26
2, 575687, Note_on_c, 0, 57, 0
2, 575695, Note_on_c, 0, 60, 0
2, 575811, Note_on_c, 0, 50, 0
2, 576107, Note_on_c, 0, 61, 46
2, 576119, Note_on_c, 0, 58, 43
2, 576127, Note_on_c, 0, 43, 25
2, 576131, Note_on_c, 0, 55, 37
2, 576189, Note_on_c, 0, 50, 17
2, 576491, Note_on_c, 0, 43, 0
2, 576647, Note_on_c, 0, 50, 0
2, 576821, Control_c, 0, 64, 127
2, 576941, Note_on_c, 0, 55, 0
2, 577071, Note_on_c, 0, 61, 0
2, 577077, Note_on_c, 0, 58, 0
2, 577501, Control_c, 0, 64, 0
2, 577503, Note_on_c, 0, 62, 53
2, 577519, Note_on_c, 0, 53, 39
2, 577533, Note_on_c, 0, 56, 39
2, 577543, Note_on_c, 0, 43, 26
2, 577551, Note_on_c, 0, 59, 47
2, 577571, Note_on_c, 0, 50, 29
2, 577789, Note_on_c, 0, 53, 0
2, 577835, Note_on_c, 0, 59, 0
2, 577845, Note_on_c, 0, 56, 0
2, 577863, Control_c, 0, 64, 127
2, 577891, Note_on_c, 0, 62, 0
2, 578491, Note_on_c, 0, 65, 64
2, 578545, Note_on_c, 0, 43, 0
2, 578555, Note_on_c, 0, 53, 51
2, 578569, Note_on_c, 0, 50, 0
2, 578647, Note_on_c, 0, 65, 0
2, 578699, Note_on_c, 0, 53, 0
2, 578885, Control_c, 0, 64, 0
2, 578943, Note_on_c, 0, 59, 73
2, 578945, Note_on_c, 0, 62, 64
2, 578949, Note_on_c, 0, 57, 49
2, 578953, Note_on_c, 0, 69, 64
2, 578975, Note_on_c, 0, 68, 35
2, 579029, Note_on_c, 0, 65, 28
2, 579099, Note_on_c, 0, 68, 0
2, 579101, Note_on_c, 0, 65, 0
2, 579221, Note_on_c, 0, 57, 0
2, 579241, Note_on_c, 0, 59, 0
2, 579271, Note_on_c, 0, 62, 0
2, 579335, Note_on_c, 0, 69, 0
2, 579501, Note_on_c, 0, 53, 54
2, 579507, Note_on_c, 0, 62, 66
2, 579515, Note_on_c, 0, 65, 62
2, 579529, Note_on_c, 0, 59, 57
2, 579659, Note_on_c, 0, 62, 0
2, 579665, Note_on_c, 0, 65, 0
2, 579695, Note_on_c, 0, 59, 0
2, 579707, Control_c, 0, 64, 127
2, 579723, Note_on_c, 0, 53, 0
2, 579787, Control_c, 0, 64, 0
2, 580079, Note_on_c, 0, 63, 67
2, 580083, Note_on_c, 0, 48, 49
2, 580093, Note_on_c, 0, 55, 47
2, 580113, Note_on_c, 0, 58, 52
2, 580409, Control_c, 0, 64, 127
2, 580897, Note_on_c, 0, 48, 0
2, 581083, Note_on_c, 0, 55, 0
2, 581131, Note_on_c, 0, 58, 0
2, 581783, Note_on_c, 0, 58, 48
2, 581801, Note_on_c, 0, 55, 37
2, 582557, Note_on_c, 0, 55, 0
2, 583063, Note_on_c, 0, 58, 0
2, 583257, Control_c, 0, 64, 0
2, 583333, Note_on_c, 0, 55, 37
2, 583335, Note_on_c, 0, 57, 37
2, 583375, Note_on_c, 0, 51, 32
2, 583377, Note_on_c, 0, 41, 33
2, 583547, Note_on_c, 0, 55, 0
2, 583583, Control_c, 0, 64, 127
2, 583603, Note_on_c, 0, 57, 0
2, 583669, Note_on_c, 0, 41, 0
2, 583813, Note_on_c, 0, 51, 0
2, 583841, Note_on_c, 0, 63, 0
2, 585343, Note_on_c, 0, 48, 22
2, 585387, Note_on_c, 0, 49, 38
2, 585427, Note_on_c, 0, 48, 0
2, 585467, Control_c, 0, 64, 0
2, 585515, Note_on_c, 0, 50, 41
2, 585535, Note_on_c, 0, 86, 76
2, 585549, Note_on_c, 0, 74, 64
2, 585605, Note_on_c, 0, 49, 0
2, 586049, Note_on_c, 0, 86, 0
2, 586149, Note_on_c, 0, 85, 36
2, 586151, Note_on_c, 0, 74, 0
2, 586163, Note_on_c, 0, 50, 0
2, 586167, Note_on_c, 0, 49, 34
2, 586345, Note_on_c, 0, 85, 0
2, 586441, Note_on_c, 0, 49, 0
2, 586455, Note_on_c, 0, 50, 35
2, 586491, Note_on_c, 0, 86, 61
2, 586495, Note_on_c, 0, 74, 47
2, 586563, Note_on_c, 0, 50, 0
2, 586571, Control_c, 0, 64, 127
2, 586733, Note_on_c, 0, 86, 0
2, 586877, Note_on_c, 0, 74, 0
2, 587393, Control_c, 0, 64, 0
2, 587507, Note_on_c, 0, 85, 59
2, 587517, Note_on_c, 0, 60, 18
2, 587529, Note_on_c, 0, 65, 19
2, 587533, Note_on_c, 0, 62, 32
2, 587535, Note_on_c, 0, 73, 36
2, 587819, Control_c, 0, 64, 127
2, 587939, Note_on_c, 0, 60, 0
2, 587941, Note_on_c, 0, 65, 0
2, 587943, Note_on_c, 0, 62, 0
2, 587969, Note_on_c, 0, 85, 0
2, 588015, Note_on_c, 0, 73, 0
2, 588059, Control_c, 0, 64, 0
2, 588095, Note_on_c, 0, 65, 55
2, 588139, Note_on_c, 0, 62, 53
2, 588169, Note_on_c, 0, 86, 53
2, 588213, Note_on_c, 0, 65, 0
2, 588223, Note_on_c, 0, 62, 0
2, 588363, Note_on_c, 0, 86, 0
2, 588459, Control_c, 0, 64, 127
2, 589059, Note_on_c, 0, 96, 73
2, 589065, Control_c, 0, 64, 0
2, 589067, Note_on_c, 0, 90, 58
2, 589069, Note_on_c, 0, 62, 72
2, 589071, Note_on_c, 0, 65, 74
2, 589073, Note_on_c, 0, 60, 44
2, 589077, Note_on_c, 0, 93, 74
2, 589099, Note_on_c, 0, 84, 57
2, 589133, Note_on_c, 0, 90, 0
2, 589371, Note_on_c, 0, 65, 0
2, 589383, Control_c, 0, 64, 127
2, 589407, Note_on_c, 0, 84, 0
2, 589423, Note_on_c, 0, 60, 0
2, 589431, Note_on_c, 0, 96, 0
2, 589435, Note_on_c, 0, 93, 0
2, 589463, Note_on_c, 0, 62, 0
2, 589701, Note_on_c, 0, 62, 66
2, 589705, Note_on_c, 0, 96, 75
2, 589707, Note_on_c, 0, 65, 74
2, 589725, Note_on_c, 0, 60, 45
2, 589731, Note_on_c, 0, 84, 73
2, 589745, Note_on_c, 0, 93, 68
2, 589991, Note_on_c, 0, 96, 0
2, 590041, Note_on_c, 0, 60, 0
2, 590061, Note_on_c, 0, 84, 0
2, 590069, Note_on_c, 0, 65, 0
2, 590109, Note_on_c, 0, 93, 0
2, 590147, Note_on_c, 0, 62, 0
2, 590325, Control_c, 0, 64, 0
2, 590391, Note_on_c, 0, 65, 53
2, 590397, Note_on_c, 0, 60, 35
2, 590425, Note_on_c, 0, 62, 36
2, 590427, Note_on_c, 0, 94, 35
2, 590445, Control_c, 0, 64, 127
2, 590451, Note_on_c, 0, 82, 48
2, 590497, Note_on_c, 0, 62, 0
2, 590585, Note_on_c, 0, 65, 0
2, 590653, Note_on_c, 0, 94, 0
2, 590669, Note_on_c, 0, 82, 0
2, 590689, Note_on_c, 0, 60, 0
2, 591187, Control_c, 0, 64, 0
2, 591977, Note_on_c, 0, 94, 81
2, 591985, Note_on_c, 0, 82, 77
2, 591999, Note_on_c, 0, 61, 72
2, 592001, Note_on_c, 0, 65, 76
2, 592005, Note_on_c, 0, 87, 70
2, 592007, Note_on_c, 0, 55, 74
2, 592269, Control_c, 0, 64, 127
2, 592359, Note_on_c, 0, 94, 0
2, 592369, Note_on_c, 0, 87, 0
2, 592385, Note_on_c, 0, 82, 0
2, 592537, Note_on_c, 0, 55, 0
2, 592549, Note_on_c, 0, 65, 0
2, 592571, Note_on_c, 0, 61, 0
2, 592951, Control_c, 0, 64, 0
2, 592955, Note_on_c, 0, 89, 80
2, 592959, Note_on_c, 0, 77, 83
2, 592967, Note_on_c, 0, 61, 86
2, 592975, Note_on_c, 0, 65, 84
2, 592977, Note_on_c, 0, 55, 83
2, 593273, Control_c, 0, 64, 127
2, 593457, Note_on_c, 0, 55, 0
2, 593491, Note_on_c, 0, 89, 0
2, 593497, Note_on_c, 0, 77, 0
2, 593499, Note_on_c, 0, 65, 0
2, 593575, Note_on_c, 0, 61, 0
2, 593851, Note_on_c, 0, 55, 72
2, 593855, Note_on_c, 0, 61, 83
2, 593865, Note_on_c, 0, 89, 73
2, 593867, Note_on_c, 0, 65, 78
2, 593887, Note_on_c, 0, 77, 80
2, 593973, Control_c, 0, 64, 0
2, 594041, Note_on_c, 0, 65, 0
2, 594069, Note_on_c, 0, 55, 0
2, 594089, Note_on_c, 0, 77, 0
2, 594093, Note_on_c, 0, 89, 0
2, 594123, Note_on_c, 0, 61, 0
2, 594235, Note_on_c, 0, 55, 63
2, 594253, Note_on_c, 0, 61, 80
2, 594257, Note_on_c, 0, 65, 67
2, 594259, Note_on_c, 0, 91, 71
2, 594283, Note_on_c, 0, 79, 60
2, 594287, Note_on_c, 0, 77, 49
2, 594357, Note_on_c, 0, 77, 0
2, 594375, Control_c, 0, 64, 127
2, 594539, Note_on_c, 0, 55, 0
2, 594541, Note_on_c, 0, 91, 0
2, 594577, Note_on_c, 0, 79, 0
2, 594579, Note_on_c, 0, 65, 0
2, 594695, Note_on_c, 0, 61, 0
2, 595037, Control_c, 0, 64, 0
2, 595181, Note_on_c, 0, 60, 40
2, 595185, Note_on_c, 0, 57, 54
2, 595189, Note_on_c, 0, 63, 76
2, 595191, Note_on_c, 0, 55, 61
2, 595207, Note_on_c, 0, 93, 82
2, 595213, Note_on_c, 0, 81, 80
2, 595215, Note_on_c, 0, 87, 67
2, 595565, Note_on_c, 0, 81, 0
2, 595579, Note_on_c, 0, 55, 0
2, 595603, Note_on_c, 0, 63, 0
2, 595609, Note_on_c, 0, 87, 0
2, 595631, Note_on_c, 0, 93, 0
2, 595641, Note_on_c, 0, 60, 0
2, 595657, Note_on_c, 0, 57, 0
2, 596321, Control_c, 0, 64, 127
2, 597003, Control_c, 0, 64, 0
2, 597137, Note_on_c, 0, 60, 54
2, 597139, Note_on_c, 0, 55, 69
2, 597141, Note_on_c, 0, 65, 76
2, 597147, Note_on_c, 0, 61, 69
2, 597159, Note_on_c, 0, 93, 87
2, 597165, Note_on_c, 0, 89, 80
2, 597167, Note_on_c, 0, 81, 85
2, 597235, Note_on_c, 0, 91, 31
2, 597323, Control_c, 0, 64, 127
2, 597341, Note_on_c, 0, 91, 0
2, 597477, Note_on_c, 0, 81, 0
2, 597515, Note_on_c, 0, 89, 0
2, 597517, Note_on_c, 0, 93, 0
2, 597537, Note_on_c, 0, 55, 0
2, 597557, Note_on_c, 0, 65, 0
2, 597603, Note_on_c, 0, 60, 0
2, 597629, Note_on_c, 0, 61, 0
2, 597777, Note_on_c, 0, 94, 77
2, 597795, Note_on_c, 0, 60, 56
2, 597801, Note_on_c, 0, 82, 75
2, 597803, Note_on_c, 0, 61, 69
2, 597817, Note_on_c, 0, 65, 74
2, 597827, Note_on_c, 0, 55, 62
2, 597903, Control_c, 0, 64, 0
2, 597961, Note_on_c, 0, 65, 0
2, 597997, Note_on_c, 0, 55, 0
2, 598055, Note_on_c, 0, 94, 0
2, 598065, Note_on_c, 0, 60, 0
2, 598079, Note_on_c, 0, 61, 0
2, 598093, Note_on_c, 0, 82, 0
2, 598165, Note_on_c, 0, 65, 62
2, 598173, Note_on_c, 0, 55, 48
2, 598185, Note_on_c, 0, 61, 37
2, 598191, Note_on_c, 0, 60, 32
2, 598225, Control_c, 0, 64, 127
2, 598229, Note_on_c, 0, 93, 56
2, 598287, Note_on_c, 0, 81, 24
2, 598355, Note_on_c, 0, 60, 0
2, 598407, Note_on_c, 0, 65, 0
2, 598413, Note_on_c, 0, 93, 0
2, 598415, Note_on_c, 0, 81, 0
2, 598427, Note_on_c, 0, 55, 0
2, 598515, Note_on_c, 0, 61, 0
2, 598685, Control_c, 0, 64, 0
2, 598761, Note_on_c, 0, 64, 77
2, 598763, Note_on_c, 0, 93, 75
2, 598765, Note_on_c, 0, 60, 53
2, 598769, Note_on_c, 0, 54, 71
2, 598771, Note_on_c, 0, 81, 74
2, 598785, Note_on_c, 0, 90, 62
2, 599017, Control_c, 0, 64, 127
2, 599079, Note_on_c, 0, 60, 0
2, 599097, Note_on_c, 0, 64, 0
2, 599115, Note_on_c, 0, 81, 0
2, 599143, Note_on_c, 0, 54, 0
2, 599145, Note_on_c, 0, 90, 0
2, 599175, Note_on_c, 0, 93, 0
2, 599639, Control_c, 0, 64, 0
2, 599679, Note_on_c, 0, 54, 84
2, 599683, Note_on_c, 0, 90, 82
2, 599687, Note_on_c, 0, 60, 68
2, 599689, Note_on_c, 0, 93, 91
2, 599691, Note_on_c, 0, 64, 87
2, 599693, Note_on_c, 0, 81, 92
2, 599939, Control_c, 0, 64, 127
2, 600175, Note_on_c, 0, 64, 0
2, 600177, Note_on_c, 0, 90, 0
2, 600181, Note_on_c, 0, 60, 0
2, 600185, Note_on_c, 0, 81, 0
2, 600229, Note_on_c, 0, 93, 0
2, 600239, Note_on_c, 0, 54, 0
2, 600625, Note_on_c, 0, 60, 64
2, 600627, Note_on_c, 0, 64, 71
2, 600631, Note_on_c, 0, 54, 73
2, 600657, Note_on_c, 0, 81, 75
2, 600661, Note_on_c, 0, 93, 74
2, 600663, Note_on_c, 0, 90, 63
2, 600729, Note_on_c, 0, 91, 32
2, 600741, Note_on_c, 0, 81, 0
2, 600751, Note_on_c, 0, 64, 0
2, 600769, Note_on_c, 0, 60, 0
2, 600803, Note_on_c, 0, 93, 0
2, 600805, Note_on_c, 0, 91, 0
2, 600811, Note_on_c, 0, 90, 0
2, 600815, Note_on_c, 0, 54, 0
2, 600921, Control_c, 0, 64, 0
2, 600977, Note_on_c, 0, 60, 43
2, 600981, Note_on_c, 0, 64, 55
2, 600993, Note_on_c, 0, 54, 74
2, 601023, Note_on_c, 0, 96, 66
2, 601027, Note_on_c, 0, 84, 66
2, 601095, Note_on_c, 0, 84, 0
2, 601121, Note_on_c, 0, 64, 0
2, 601133, Note_on_c, 0, 60, 0
2, 601139, Note_on_c, 0, 96, 0
2, 601199, Note_on_c, 0, 54, 0
2, 601597, Note_on_c, 0, 60, 49
2, 601611, Note_on_c, 0, 54, 61
2, 601613, Note_on_c, 0, 64, 60
2, 601615, Note_on_c, 0, 96, 71
2, 601633, Note_on_c, 0, 84, 77
2, 601683, Note_on_c, 0, 64, 0
2, 601699, Note_on_c, 0, 54, 0
2, 601707, Note_on_c, 0, 84, 0
2, 601717, Note_on_c, 0, 60, 0
2, 601747, Note_on_c, 0, 96, 0
2, 601937, Note_on_c, 0, 60, 40
2, 601955, Note_on_c, 0, 64, 57
2, 601957, Note_on_c, 0, 54, 69
2, 601965, Note_on_c, 0, 94, 68
2, 601981, Note_on_c, 0, 82, 64
2, 602151, Note_on_c, 0, 82, 0
2, 602187, Note_on_c, 0, 94, 0
2, 602205, Note_on_c, 0, 60, 0
2, 602207, Note_on_c, 0, 64, 0
2, 602383, Note_on_c, 0, 54, 0
2, 602917, Note_on_c, 0, 92, 69
2, 602929, Note_on_c, 0, 80, 74
2, 602939, Note_on_c, 0, 64, 72
2, 602941, Note_on_c, 0, 59, 64
2, 602951, Note_on_c, 0, 53, 77
2, 603003, Note_on_c, 0, 86, 27
2, 603087, Note_on_c, 0, 93, 24
2, 603205, Note_on_c, 0, 92, 0
2, 603257, Note_on_c, 0, 81, 53
2, 603295, Note_on_c, 0, 80, 0
2, 603547, Note_on_c, 0, 93, 0
2, 603611, Note_on_c, 0, 86, 0
2, 603613, Note_on_c, 0, 81, 0
2, 603765, Note_on_c, 0, 53, 0
2, 603773, Note_on_c, 0, 64, 0
2, 603783, Note_on_c, 0, 59, 0
2, 603929, Control_c, 0, 64, 127
2, 604537, Note_on_c, 0, 86, 70
2, 604543, Note_on_c, 0, 74, 66
2, 604545, Note_on_c, 0, 64, 55
2, 604551, Control_c, 0, 64, 0
2, 604571, Note_on_c, 0, 59, 49
2, 604575, Note_on_c, 0, 53, 54
2, 604579, Note_on_c, 0, 81, 60
2, 604767, Note_on_c, 0, 74, 0
2, 604819, Note_on_c, 0, 86, 0
2, 604821, Note_on_c, 0, 81, 0
2, 604823, Note_on_c, 0, 53, 0
2, 604825, Note_on_c, 0, 64, 0
2, 604879, Note_on_c, 0, 59, 0
2, 605213, Control_c, 0, 64, 127
2, 605733, Control_c, 0, 64, 0
2, 605799, Note_on_c, 0, 64, 58
2, 605809, Note_on_c, 0, 76, 72
2, 605811, Note_on_c, 0, 88, 68
2, 605815, Note_on_c, 0, 59, 55
2, 605845, Note_on_c, 0, 53, 41
2, 605887, Note_on_c, 0, 64, 0
2, 605927, Note_on_c, 0, 53, 0
2, 605939, Note_on_c, 0, 76, 0
2, 605953, Note_on_c, 0, 59, 0
2, 605979, Note_on_c, 0, 88, 0
2, 606343, Note_on_c, 0, 59, 47
2, 606345, Note_on_c, 0, 64, 48
2, 606347, Note_on_c, 0, 53, 58
2, 606379, Note_on_c, 0, 89, 66
2, 606389, Note_on_c, 0, 77, 66
2, 606421, Control_c, 0, 64, 127
2, 606423, Note_on_c, 0, 59, 0
2, 606427, Note_on_c, 0, 64, 0
2, 606461, Note_on_c, 0, 53, 0
2, 606505, Note_on_c, 0, 77, 0
2, 606543, Note_on_c, 0, 89, 0
2, 606681, Control_c, 0, 64, 0
2, 606873, Note_on_c, 0, 62, 68
2, 606891, Note_on_c, 0, 57, 38
2, 606917, Note_on_c, 0, 58, 46
2, 606935, Note_on_c, 0, 91, 71
2, 606941, Note_on_c, 0, 79, 69
2, 606975, Note_on_c, 0, 86, 60
2, 607143, Control_c, 0, 64, 127
2, 607653, Note_on_c, 0, 62, 0
2, 607685, Note_on_c, 0, 57, 0
2, 607693, Note_on_c, 0, 79, 0
2, 607695, Note_on_c, 0, 58, 0
2, 607719, Note_on_c, 0, 91, 0
2, 607727, Note_on_c, 0, 86, 0
2, 608607, Control_c, 0, 64, 0
2, 608719, Note_on_c, 0, 93, 53
2, 608733, Note_on_c, 0, 64, 48
2, 608739, Note_on_c, 0, 85, 43
2, 608749, Note_on_c, 0, 81, 49
2, 608757, Note_on_c, 0, 88, 48
2, 608779, Note_on_c, 0, 58, 43
2, 608967, Control_c, 0, 64, 127
2, 609149, Note_on_c, 0, 93, 0
2, 609257, Note_on_c, 0, 64, 0
2, 609271, Note_on_c, 0, 88, 0
2, 609323, Note_on_c, 0, 85, 0
2, 609385, Note_on_c, 0, 81, 0
2, 609439, Note_on_c, 0, 58, 0
2, 611235, Note_on_c, 0, 65, 66
2, 611245, Note_on_c, 0, 62, 68
2, 611251, Note_on_c, 0, 57, 66
2, 611269, Note_on_c, 0, 47, 54
2, 611275, Control_c, 0, 64, 0
2, 612173, Note_on_c, 0, 57, 0
2, 612197, Control_c, 0, 64, 127
2, 612315, Note_on_c, 0, 65, 0
2, 612335, Control_c, 0, 64, 0
2, 612445, Note_on_c, 0, 62, 0
2, 612539, Note_on_c, 0, 61, 62
2, 612549, Note_on_c, 0, 47, 0
2, 612553, Note_on_c, 0, 46, 42
2, 612557, Note_on_c, 0, 56, 56
2, 612561, Note_on_c, 0, 65, 30
2, 613337, Note_on_c, 0, 46, 0
2, 614193, Note_on_c, 0, 56, 0
2, 614219, Note_on_c, 0, 65, 0
2, 614245, Note_on_c, 0, 61, 0
2, 614405, Note_on_c, 0, 65, 60
2, 614415, Note_on_c, 0, 60, 38
2, 614433, Note_on_c, 0, 55, 47
2, 615605, Note_on_c, 0, 55, 0
2, 615805, Note_on_c, 0, 60, 0
2, 615857, Note_on_c, 0, 65, 0
2, 616259, Note_on_c, 0, 65, 46
2, 616265, Note_on_c, 0, 54, 47
2, 616297, Note_on_c, 0, 59, 47
2, 616315, Note_on_c, 0, 44, 27
2, 616441, Note_on_c, 0, 59, 0
2, 616451, Note_on_c, 0, 54, 0
2, 616473, Note_on_c, 0, 65, 0
2, 616531, Note_on_c, 0, 44, 0
2, 616941, Note_on_c, 0, 54, 48
2, 616959, Note_on_c, 0, 44, 40
2, 616967, Note_on_c, 0, 65, 39
2, 616979, Note_on_c, 0, 59, 53
2, 617071, Note_on_c, 0, 59, 0
2, 617105, Note_on_c, 0, 65, 0
2, 617109, Note_on_c, 0, 54, 0
2, 617147, Note_on_c, 0, 44, 0
2, 617813, Note_on_c, 0, 65, 48
2, 617841, Note_on_c, 0, 53, 45
2, 617849, Note_on_c, 0, 58, 46
2, 617875, Note_on_c, 0, 43, 29
2, 617959, Note_on_c, 0, 53, 0
2, 618001, Note_on_c, 0, 58, 0
2, 618007, Note_on_c, 0, 43, 0
2, 618015, Note_on_c, 0, 65, 0
2, 618751, Note_on_c, 0, 58, 49
2, 618761, Note_on_c, 0, 43, 38
2, 618763, Note_on_c, 0, 53, 47
2, 618771, Note_on_c, 0, 65, 31
2, 618853, Note_on_c, 0, 53, 0
2, 618895, Note_on_c, 0, 43, 0
2, 618905, Note_on_c, 0, 65, 0
2, 618917, Note_on_c, 0, 58, 0
2, 619657, Note_on_c, 0, 65, 58
2, 619677, Note_on_c, 0, 58, 52
2, 619679, Note_on_c, 0, 60, 39
2, 619699, Note_on_c, 0, 42, 37
2, 619703, Note_on_c, 0, 30, 42
2, 619887, Note_on_c, 0, 60, 0
2, 619891, Note_on_c, 0, 58, 0
2, 619895, Note_on_c, 0, 42, 0
2, 619919, Note_on_c, 0, 30, 0
2, 619923, Note_on_c, 0, 65, 0
2, 620209, Note_on_c, 0, 30, 37
2, 620231, Note_on_c, 0, 42, 34
2, 620241, Note_on_c, 0, 58, 36
2, 620251, Note_on_c, 0, 65, 39
2, 620255, Note_on_c, 0, 60, 31
2, 620409, Note_on_c, 0, 58, 0
2, 620413, Note_on_c, 0, 30, 0
2, 620417, Note_on_c, 0, 42, 0
2, 620437, Note_on_c, 0, 60, 0
2, 620439, Note_on_c, 0, 65, 0
2, 621133, Note_on_c, 0, 58, 45
2, 621145, Note_on_c, 0, 65, 36
2, 621147, Note_on_c, 0, 30, 38
2, 621149, Note_on_c, 0, 42, 34
2, 621163, Note_on_c, 0, 60, 34
2, 621279, Control_c, 0, 64, 127
2, 621387, Note_on_c, 0, 42, 0
2, 621479, Note_on_c, 0, 60, 0
2, 621547, Note_on_c, 0, 58, 0
2, 621557, Note_on_c, 0, 30, 0
2, 621609, Note_on_c, 0, 65, 0
2, 621901, Note_on_c, 0, 57, 38
2, 621931, Note_on_c, 0, 64, 42
2, 621955, Note_on_c, 0, 29, 32
2, 621981, Control_c, 0, 64, 0
2, 621983, Note_on_c, 0, 41, 29
2, 621985, Note_on_c, 0, 59, 34
2, 622543, Control_c, 0, 64, 127
2, 622843, Note_on_c, 0, 57, 0
2, 622919, Note_on_c, 0, 59, 0
2, 622989, Note_on_c, 0, 64, 0
2, 623485, Note_on_c, 0, 76, 53
2, 623673, Note_on_c, 0, 76, 0
2, 624183, Note_on_c, 0, 69, 49
2, 624205, Note_on_c, 0, 81, 38
2, 624309, Note_on_c, 0, 69, 0
2, 624389, Note_on_c, 0, 81, 0
2, 624929, Note_on_c, 0, 86, 59
2, 624937, Note_on_c, 0, 74, 45
2, 625089, Note_on_c, 0, 74, 0
2, 625119, Note_on_c, 0, 86, 0
2, 625651, Note_on_c, 0, 76, 49
2, 625675, Note_on_c, 0, 88, 34
2, 625733, Note_on_c, 0, 76, 0
2, 625851, Note_on_c, 0, 88, 0
2, 626343, Note_on_c, 0, 93, 66
2, 626377, Note_on_c, 0, 81, 36
2, 626493, Note_on_c, 0, 81, 0
2, 626547, Note_on_c, 0, 93, 0
2, 627069, Note_on_c, 0, 98, 48
2, 627079, Note_on_c, 0, 86, 46
2, 627185, Note_on_c, 0, 86, 0
2, 627249, Note_on_c, 0, 98, 0
2, 627739, Note_on_c, 0, 100, 47
2, 627785, Note_on_c, 0, 88, 24
2, 627867, Note_on_c, 0, 88, 0
2, 627939, Note_on_c, 0, 100, 0
2, 628441, Note_on_c, 0, 93, 58
2, 628485, Note_on_c, 0, 105, 34
2, 628657, Note_on_c, 0, 93, 0
2, 628681, Note_on_c, 0, 105, 0
2, 629145, Note_on_c, 0, 96, 42
2, 629149, Note_on_c, 0, 108, 39
2, 629355, Note_on_c, 0, 108, 0
2, 629381, Note_on_c, 0, 96, 0
2, 629557, Note_on_c, 0, 29, 0
2, 629569, Note_on_c, 0, 41, 0
2, 629569, End_track
3, 0, Start_track
3, 0, Title_t, "Bass"
3, 0, Program_c, 1, 32
3, 0, Control_c, 1, 7, 99
3, 5584, Note_on_c, 1, 41, 94
3, 9748, Note_on_c, 1, 36, 76
3, 9814, Note_on_c, 1, 41, 0
3, 11388, Note_on_c, 1, 36, 0
3, 11567, Note_on_c, 1, 28, 94
3, 13422, Note_on_c, 1, 28, 0
3, 13475, Note_on_c, 1, 40, 83
3, 15038, Note_on_c, 1, 34, 64
3, 15047, Note_on_c, 1, 40, 0
3, 15489, Note_on_c, 1, 34, 0
3, 15498, Note_on_c, 1, 33, 78
3, 16867, Note_on_c, 1, 33, 0
3, 16902, Note_on_c, 1, 35, 74
3, 17267, Note_on_c, 1, 35, 0
3, 17394, Note_on_c, 1, 36, 62
3, 17691, Note_on_c, 1, 36, 0
3, 18018, Note_on_c, 1, 37, 51
3, 18415, Note_on_c, 1, 37, 0
3, 18922, Note_on_c, 1, 38, 57
3, 20894, Note_on_c, 1, 37, 50
3, 21038, Note_on_c, 1, 38, 0
3, 21159, Note_on_c, 1, 52, 97
3, 21256, Note_on_c, 1, 37, 0
3, 21707, Note_on_c, 1, 52, 0
3, 22089, Note_on_c, 1, 51, 83
3, 22784, Note_on_c, 1, 51, 0
3, 23075, Note_on_c, 1, 50, 71
3, 24595, Note_on_c, 1, 47, 61
3, 24662, Note_on_c, 1, 50, 0
3, 24807, Note_on_c, 1, 47, 0
3, 25016, Note_on_c, 1, 43, 59
3, 25946, Note_on_c, 1, 50, 85
3, 26084, Note_on_c, 1, 43, 0
3, 26694, Note_on_c, 1, 50, 0
3, 26970, Note_on_c, 1, 48, 83
3, 28966, Note_on_c, 1, 48, 0
3, 28978, Note_on_c, 1, 43, 60
3, 30592, Note_on_c, 1, 43, 0
3, 30606, Note_on_c, 1, 39, 45
3, 30868, Note_on_c, 1, 39, 0
3, 30871, Note_on_c, 1, 41, 65
3, 32290, Note_on_c, 1, 39, 44
3, 32767, Note_on_c, 1, 55, 100
3, 32770, Note_on_c, 1, 41, 0
3, 32773, Note_on_c, 1, 39, 0
3, 33159, Note_on_c, 1, 55, 0
3, 33285, Note_on_c, 1, 54, 82
3, 33609, Note_on_c, 1, 54, 0
3, 33715, Note_on_c, 1, 53, 50
3, 34116, Note_on_c, 1, 53, 0
3, 34216, Note_on_c, 1, 51, 72
3, 34528, Note_on_c, 1, 51, 0
3, 34640, Note_on_c, 1, 50, 63
3, 35149, Note_on_c, 1, 50, 0
3, 35473, Note_on_c, 1, 50, 61
3, 36273, Note_on_c, 1, 50, 0
3, 36456, Note_on_c, 1, 46, 68
3, 38205, Note_on_c, 1, 46, 0
3, 38364, Note_on_c, 1, 39, 65
3, 39200, Note_on_c, 1, 39, 0
3, 39409, Note_on_c, 1, 39, 61
3, 41643, Note_on_c, 1, 39, 0
3, 41967, Note_on_c, 1, 39, 79
3, 42582, Note_on_c, 1, 39, 0
3, 43313, Note_on_c, 1, 40, 79
3, 44125, Note_on_c, 1, 40, 0
3, 44237, Note_on_c, 1, 41, 81
3, 44932, Note_on_c, 1, 41, 0
3, 45135, Note_on_c, 1, 36, 60
3, 45830, Note_on_c, 1, 36, 0
3, 46092, Note_on_c, 1, 33, 69
3, 47443, Note_on_c, 1, 33, 0
3, 47567, Note_on_c, 1, 29, 63
3, 48453, Note_on_c, 1, 32, 64
3, 48538, Note_on_c, 1, 29, 0
3, 48853, Note_on_c, 1, 32, 0
3, 48865, Note_on_c, 1, 34, 69
3, 49834, Note_on_c, 1, 34, 0
3, 49901, Note_on_c, 1, 35, 72
3, 51267, Note_on_c, 1, 34, 41
3, 51676, Note_on_c, 1, 34, 0
3, 51900, Note_on_c, 1, 47, 96
3, 51941, Note_on_c, 1, 35, 0
3, 54774, Note_on_c, 1, 47, 0
3, 54824, Note_on_c, 1, 44, 86
3, 56284, Note_on_c, 1, 40, 69
3, 56355, Note_on_c, 1, 44, 0
3, 57668, Note_on_c, 1, 33, 66
3, 57741, Note_on_c, 1, 40, 0
3, 59201, Note_on_c, 1, 39, 48
3, 59425, Note_on_c, 1, 39, 0
3, 59499, Note_on_c, 1, 33, 0
3, 59616, Note_on_c, 1, 44, 82
3, 60355, Note_on_c, 1, 44, 0
3, 60541, Note_on_c, 1, 43, 81
3, 63432, Note_on_c, 1, 43, 0
3, 63485, Note_on_c, 1, 36, 61
3, 64415, Note_on_c, 1, 50, 99
3, 64498, Note_on_c, 1, 36, 0
3, 65178, Note_on_c, 1, 50, 0
3, 65351, Note_on_c, 1, 48, 71
3, 66706, Note_on_c, 1, 48, 0
3, 66785, Note_on_c, 1, 45, 60
3, 66968, Note_on_c, 1, 45, 0
3, 67236, Note_on_c, 1, 41, 61
3, 68225, Note_on_c, 1, 41, 0
3, 68328, Note_on_c, 1, 41, 72
3, 71177, Note_on_c, 1, 50, 85
3, 71257, Note_on_c, 1, 41, 0
3, 71498, Note_on_c, 1, 50, 0
3, 71663, Note_on_c, 1, 48, 71
3, 71916, Note_on_c, 1, 48, 0
3, 72117, Note_on_c, 1, 45, 52
3, 72602, Note_on_c, 1, 45, 0
3, 72964, Note_on_c, 1, 40, 76
3, 73700, Note_on_c, 1, 40, 0
3, 73977, Note_on_c, 1, 40, 72
3, 76477, Note_on_c, 1, 40, 0
3, 76494, Note_on_c, 1, 47, 72
3, 76806, Note_on_c, 1, 47, 0
3, 76868, Note_on_c, 1, 46, 68
3, 77419, Note_on_c, 1, 46, 0
3, 77475, Note_on_c, 1, 45, 68
3, 77722, Note_on_c, 1, 45, 0
3, 78346, Note_on_c, 1, 40, 75
3, 78635, Note_on_c, 1, 40, 0
3, 79276, Note_on_c, 1, 37, 75
3, 79444, Note_on_c, 1, 37, 0
3, 79641, Note_on_c, 1, 37, 83
3, 80542, Note_on_c, 1, 37, 0
3, 80640, Note_on_c, 1, 38, 76
3, 82009, Note_on_c, 1, 38, 0
3, 82144, Note_on_c, 1, 40, 71
3, 82403, Note_on_c, 1, 40, 0
3, 82603, Note_on_c, 1, 41, 75
3, 82951, Note_on_c, 1, 41, 0
3, 83192, Note_on_c, 1, 45, 63
3, 83427, Note_on_c, 1, 45, 0
3, 84531, Note_on_c, 1, 43, 72
3, 88329, Note_on_c, 1, 43, 0
3, 89186, Note_on_c, 1, 36, 73
3, 89404, Note_on_c, 1, 36, 0
3, 89954, Note_on_c, 1, 38, 75
3, 90184, Note_on_c, 1, 38, 0
3, 90437, Note_on_c, 1, 39, 63
3, 91668, Note_on_c, 1, 39, 0
3, 92813, Note_on_c, 1, 41, 74
3, 94035, Note_on_c, 1, 41, 0
3, 94150, Note_on_c, 1, 39, 72
3, 94541, Note_on_c, 1, 39, 0
3, 95121, Note_on_c, 1, 38, 70
3, 95842, Note_on_c, 1, 38, 0
3, 96054, Note_on_c, 1, 34, 82
3, 97877, Note_on_c, 1, 34, 0
3, 97986, Note_on_c, 1, 38, 67
3, 99169, Note_on_c, 1, 38, 0
3, 99396, Note_on_c, 1, 39, 76
3, 101218, Note_on_c, 1, 37, 45
3, 101651, Note_on_c, 1, 37, 0
3, 101724, Note_on_c, 1, 51, 90
3, 101825, Note_on_c, 1, 39, 0
3, 103706, Note_on_c, 1, 45, 68
3, 103712, Note_on_c, 1, 51, 0
3, 105240, Note_on_c, 1, 44, 42
3, 105499, Note_on_c, 1, 44, 0
3, 105546, Note_on_c, 1, 45, 0
3, 105560, Note_on_c, 1, 57, 94
3, 107047, Note_on_c, 1, 57, 0
3, 107168, Note_on_c, 1, 54, 73
3, 108063, Note_on_c, 1, 54, 0
3, 108148, Note_on_c, 1, 48, 36
3, 108248, Note_on_c, 1, 48, 0
3, 108493, Note_on_c, 1, 51, 73
3, 109361, Note_on_c, 1, 51, 0
3, 109467, Note_on_c, 1, 50, 76
3, 109815, Note_on_c, 1, 50, 0
3, 110398, Note_on_c, 1, 48, 59
3, 111042, Note_on_c, 1, 48, 0
3, 111375, Note_on_c, 1, 43, 64
3, 113065, Note_on_c, 1, 38, 45
3, 113230, Note_on_c, 1, 38, 0
3, 113397, Note_on_c, 1, 55, 106
3, 113842, Note_on_c, 1, 43, 0
3, 115120, Note_on_c, 1, 55, 0
3, 115267, Note_on_c, 1, 48, 80
3, 117195, Note_on_c, 1, 36, 78
3, 117225, Note_on_c, 1, 48, 0
3, 118052, Note_on_c, 1, 36, 0
3, 118243, Note_on_c, 1, 36, 88
3, 121058, Note_on_c, 1, 48, 90
3, 121543, Note_on_c, 1, 48, 0
3, 122026, Note_on_c, 1, 48, 89
3, 122771, Note_on_c, 1, 36, 0
3, 124420, Note_on_c, 1, 39, 58
3, 124517, Note_on_c, 1, 48, 0
3, 124761, Note_on_c, 1, 39, 0
3, 125415, Note_on_c, 1, 40, 72
3, 126601, Note_on_c, 1, 40, 0
3, 126737, Note_on_c, 1, 41, 58
3, 127611, Note_on_c, 1, 41, 0
3, 127636, Note_on_c, 1, 29, 112
3, 128596, Note_on_c, 1, 29, 0
3, 128653, Note_on_c, 1, 29, 86
3, 129589, Note_on_c, 1, 29, 83
3, 129613, Note_on_c, 1, 29, 0
3, 130555, Note_on_c, 1, 29, 0
3, 130638, Note_on_c, 1, 33, 59
3, 131503, Note_on_c, 1, 33, 0
3, 131582, Note_on_c, 1, 31, 66
3, 132545, Note_on_c, 1, 40, 61
3, 132551, Note_on_c, 1, 31, 0
3, 133381, Note_on_c, 1, 40, 0
3, 133470, Note_on_c, 1, 39, 70
3, 134350, Note_on_c, 1, 39, 0
3, 134471, Note_on_c, 1, 40, 61
3, 135433, Note_on_c, 1, 40, 0
3, 135445, Note_on_c, 1, 35, 63
3, 136263, Note_on_c, 1, 35, 0
3, 136428, Note_on_c, 1, 31, 63
3, 137264, Note_on_c, 1, 31, 0
3, 137314, Note_on_c, 1, 32, 65
3, 138259, Note_on_c, 1, 32, 0
3, 138312, Note_on_c, 1, 33, 58
3, 139237, Note_on_c, 1, 33, 0
3, 139249, Note_on_c, 1, 35, 69
3, 140185, Note_on_c, 1, 35, 0
3, 140244, Note_on_c, 1, 36, 65
3, 141183, Note_on_c, 1, 37, 67
3, 141268, Note_on_c, 1, 36, 0
3, 141984, Note_on_c, 1, 34, 42
3, 142137, Note_on_c, 1, 34, 0
3, 142213, Note_on_c, 1, 37, 0
3, 142225, Note_on_c, 1, 38, 65
3, 143049, Note_on_c, 1, 37, 61
3, 143126, Note_on_c, 1, 50, 92
3, 143191, Note_on_c, 1, 37, 0
3, 143194, Note_on_c, 1, 38, 0
3, 143959, Note_on_c, 1, 50, 0
3, 144095, Note_on_c, 1, 48, 66
3, 145031, Note_on_c, 1, 48, 0
3, 145042, Note_on_c, 1, 45, 66
3, 145831, Note_on_c, 1, 45, 0
3, 145970, Note_on_c, 1, 43, 70
3, 146924, Note_on_c, 1, 47, 74
3, 147262, Note_on_c, 1, 43, 0
3, 147719, Note_on_c, 1, 47, 0
3, 147875, Note_on_c, 1, 38, 63
3, 148731, Note_on_c, 1, 38, 0
3, 148876, Note_on_c, 1, 37, 62
3, 149591, Note_on_c, 1, 37, 0
3, 149829, Note_on_c, 1, 36, 70
3, 150660, Note_on_c, 1, 36, 0
3, 150804, Note_on_c, 1, 51, 85
3, 151569, Note_on_c, 1, 51, 0
3, 151725, Note_on_c, 1, 42, 63
3, 152679, Note_on_c, 1, 55, 76
3, 152868, Note_on_c, 1, 42, 0
3, 153389, Note_on_c, 1, 42, 47
3, 153604, Note_on_c, 1, 42, 0
3, 153686, Note_on_c, 1, 54, 83
3, 153827, Note_on_c, 1, 55, 0
3, 154484, Note_on_c, 1, 54, 0
3, 154608, Note_on_c, 1, 53, 80
3, 155405, Note_on_c, 1, 48, 42
3, 155485, Note_on_c, 1, 53, 0
3, 155544, Note_on_c, 1, 48, 0
3, 155594, Note_on_c, 1, 51, 69
3, 156185, Note_on_c, 1, 51, 0
3, 156524, Note_on_c, 1, 49, 61
3, 157275, Note_on_c, 1, 49, 0
3, 157487, Note_on_c, 1, 50, 70
3, 158199, Note_on_c, 1, 50, 0
3, 158429, Note_on_c, 1, 45, 66
3, 159286, Note_on_c, 1, 45, 0
3, 159400, Note_on_c, 1, 46, 52
3, 160369, Note_on_c, 1, 50, 77
3, 160448, Note_on_c, 1, 46, 0
3, 161182, Note_on_c, 1, 50, 0
3, 161326, Note_on_c, 1, 51, 64
3, 162209, Note_on_c, 1, 51, 0
3, 162250, Note_on_c, 1, 43, 45
3, 163083, Note_on_c, 1, 43, 0
3, 163260, Note_on_c, 1, 46, 56
3, 164125, Note_on_c, 1, 40, 62
3, 164152, Note_on_c, 1, 46, 0
3, 165126, Note_on_c, 1, 40, 0
3, 165162, Note_on_c, 1, 41, 64
3, 166113, Note_on_c, 1, 50, 107
3, 166116, Note_on_c, 1, 41, 0
3, 166136, Note_on_c, 1, 40, 36
3, 166242, Note_on_c, 1, 40, 0
3, 166934, Note_on_c, 1, 50, 0
3, 167055, Note_on_c, 1, 48, 63
3, 167879, Note_on_c, 1, 48, 0
3, 168017, Note_on_c, 1, 45, 56
3, 168845, Note_on_c, 1, 45, 0
3, 168971, Note_on_c, 1, 41, 48
3, 169928, Note_on_c, 1, 41, 0
3, 169946, Note_on_c, 1, 36, 70
3, 170817, Note_on_c, 1, 36, 0
3, 170956, Note_on_c, 1, 33, 53
3, 171774, Note_on_c, 1, 33, 0
3, 171865, Note_on_c, 1, 34, 69
3, 172716, Note_on_c, 1, 34, 0
3, 172857, Note_on_c, 1, 35, 75
3, 173646, Note_on_c, 1, 34, 60
3, 173844, Note_on_c, 1, 52, 106
3, 173885, Note_on_c, 1, 34, 0
3, 173958, Note_on_c, 1, 35, 0
3, 174556, Note_on_c, 1, 52, 0
3, 174730, Note_on_c, 1, 47, 67
3, 175666, Note_on_c, 1, 47, 0
3, 175722, Note_on_c, 1, 39, 86
3, 176655, Note_on_c, 1, 39, 0
3, 176699, Note_on_c, 1, 40, 78
3, 177662, Note_on_c, 1, 28, 78
3, 177759, Note_on_c, 1, 40, 0
3, 178613, Note_on_c, 1, 35, 83
3, 178619, Note_on_c, 1, 28, 0
3, 179361, Note_on_c, 1, 35, 0
3, 179555, Note_on_c, 1, 34, 75
3, 180459, Note_on_c, 1, 34, 0
3, 180568, Note_on_c, 1, 33, 70
3, 181501, Note_on_c, 1, 48, 83
3, 182364, Note_on_c, 1, 48, 0
3, 182408, Note_on_c, 1, 33, 0
3, 182505, Note_on_c, 1, 47, 50
3, 183370, Note_on_c, 1, 32, 77
3, 183373, Note_on_c, 1, 47, 0
3, 184368, Note_on_c, 1, 31, 80
3, 184407, Note_on_c, 1, 32, 0
3, 185308, Note_on_c, 1, 31, 0
3, 185313, Note_on_c, 1, 34, 71
3, 186223, Note_on_c, 1, 34, 0
3, 186294, Note_on_c, 1, 36, 82
3, 187095, Note_on_c, 1, 36, 0
3, 187254, Note_on_c, 1, 38, 70
3, 188128, Note_on_c, 1, 38, 0
3, 188246, Note_on_c, 1, 40, 65
3, 188929, Note_on_c, 1, 40, 0
3, 189108, Note_on_c, 1, 43, 78
3, 189877, Note_on_c, 1, 43, 0
3, 189991, Note_on_c, 1, 40, 59
3, 190960, Note_on_c, 1, 40, 0
3, 191039, Note_on_c, 1, 41, 75
3, 191964, Note_on_c, 1, 41, 0
3, 191970, Note_on_c, 1, 43, 59
3, 192871, Note_on_c, 1, 43, 0
3, 192980, Note_on_c, 1, 45, 67
3, 193972, Note_on_c, 1, 50, 83
3, 194084, Note_on_c, 1, 45, 0
3, 194731, Note_on_c, 1, 43, 32
3, 194787, Note_on_c, 1, 50, 0
3, 194846, Note_on_c, 1, 43, 0
3, 195035, Note_on_c, 1, 51, 69
3, 195682, Note_on_c, 1, 51, 0
3, 195930, Note_on_c, 1, 52, 81
3, 196595, Note_on_c, 1, 52, 0
3, 196698, Note_on_c, 1, 43, 37
3, 196807, Note_on_c, 1, 47, 39
3, 196810, Note_on_c, 1, 43, 0
3, 197787, Note_on_c, 1, 47, 0
3, 197825, Note_on_c, 1, 43, 36
3, 198455, Note_on_c, 1, 40, 57
3, 198573, Note_on_c, 1, 43, 0
3, 198620, Note_on_c, 1, 40, 0
3, 198750, Note_on_c, 1, 46, 67
3, 199707, Note_on_c, 1, 46, 0
3, 199754, Note_on_c, 1, 45, 61
3, 200655, Note_on_c, 1, 45, 0
3, 200722, Note_on_c, 1, 40, 55
3, 201664, Note_on_c, 1, 40, 0
3, 201691, Note_on_c, 1, 37, 67
3, 202256, Note_on_c, 1, 37, 0
3, 202645, Note_on_c, 1, 37, 69
3, 203504, Note_on_c, 1, 37, 0
3, 203566, Note_on_c, 1, 38, 74
3, 204326, Note_on_c, 1, 38, 0
3, 204538, Note_on_c, 1, 38, 69
3, 205418, Note_on_c, 1, 38, 0
3, 205500, Note_on_c, 1, 41, 70
3, 206381, Note_on_c, 1, 41, 0
3, 206434, Note_on_c, 1, 42, 64
3, 207290, Note_on_c, 1, 42, 0
3, 207370, Note_on_c, 1, 43, 56
3, 208368, Note_on_c, 1, 43, 0
3, 208377, Note_on_c, 1, 31, 62
3, 209172, Note_on_c, 1, 31, 0
3, 209336, Note_on_c, 1, 38, 67
3, 210123, Note_on_c, 1, 38, 0
3, 210287, Note_on_c, 1, 37, 59
3, 211068, Note_on_c, 1, 37, 0
3, 211209, Note_on_c, 1, 36, 60
3, 212248, Note_on_c, 1, 48, 103
3, 212333, Note_on_c, 1, 36, 0
3, 213284, Note_on_c, 1, 45, 74
3, 213552, Note_on_c, 1, 48, 0
3, 213988, Note_on_c, 1, 38, 59
3, 213997, Note_on_c, 1, 45, 0
3, 214185, Note_on_c, 1, 38, 0
3, 214312, Note_on_c, 1, 47, 92
3, 217026, Note_on_c, 1, 29, 63
3, 217221, Note_on_c, 1, 47, 0
3, 217998, Note_on_c, 1, 36, 80
3, 218537, Note_on_c, 1, 29, 0
3, 218695, Note_on_c, 1, 36, 0
3, 218916, Note_on_c, 1, 34, 70
3, 219826, Note_on_c, 1, 34, 0
3, 219838, Note_on_c, 1, 36, 77
3, 220742, Note_on_c, 1, 36, 0
3, 220865, Note_on_c, 1, 38, 56
3, 221645, Note_on_c, 1, 38, 0
3, 221807, Note_on_c, 1, 38, 61
3, 222620, Note_on_c, 1, 38, 0
3, 222740, Note_on_c, 1, 39, 79
3, 223703, Note_on_c, 1, 41, 78
3, 223721, Note_on_c, 1, 39, 0
3, 224445, Note_on_c, 1, 41, 0
3, 224795, Note_on_c, 1, 44, 49
3, 225052, Note_on_c, 1, 44, 0
3, 225626, Note_on_c, 1, 46, 76
3, 226468, Note_on_c, 1, 46, 0
3, 226618, Note_on_c, 1, 45, 70
3, 227474, Note_on_c, 1, 45, 0
3, 227598, Note_on_c, 1, 39, 67
3, 228366, Note_on_c, 1, 39, 0
3, 228511, Note_on_c, 1, 36, 65
3, 229335, Note_on_c, 1, 36, 0
3, 229500, Note_on_c, 1, 37, 69
3, 230398, Note_on_c, 1, 37, 0
3, 230448, Note_on_c, 1, 38, 56
3, 231160, Note_on_c, 1, 37, 51
3, 231196, Note_on_c, 1, 38, 0
3, 231284, Note_on_c, 1, 37, 0
3, 231414, Note_on_c, 1, 40, 66
3, 232194, Note_on_c, 1, 38, 32
3, 232256, Note_on_c, 1, 40, 0
3, 232317, Note_on_c, 1, 38, 0
3, 232388, Note_on_c, 1, 41, 61
3, 233042, Note_on_c, 1, 38, 54
3, 233112, Note_on_c, 1, 41, 0
3, 233256, Note_on_c, 1, 38, 0
3, 233348, Note_on_c, 1, 42, 61
3, 234148, Note_on_c, 1, 42, 0
3, 234302, Note_on_c, 1, 43, 55
3, 234949, Note_on_c, 1, 38, 45
3, 235108, Note_on_c, 1, 38, 0
3, 235126, Note_on_c, 1, 43, 0
3, 235247, Note_on_c, 1, 45, 61
3, 235877, Note_on_c, 1, 38, 32
3, 235930, Note_on_c, 1, 45, 0
3, 236059, Note_on_c, 1, 38, 0
3, 236230, Note_on_c, 1, 46, 46
3, 236898, Note_on_c, 1, 38, 38
3, 237025, Note_on_c, 1, 38, 0
3, 237034, Note_on_c, 1, 46, 0
3, 237078, Note_on_c, 1, 47, 61
3, 237990, Note_on_c, 1, 47, 0
3, 238105, Note_on_c, 1, 48, 65
3, 239041, Note_on_c, 1, 36, 66
3, 239144, Note_on_c, 1, 48, 0
3, 239816, Note_on_c, 1, 43, 46
3, 239963, Note_on_c, 1, 43, 0
3, 240016, Note_on_c, 1, 36, 0
3, 240048, Note_on_c, 1, 50, 106
3, 240749, Note_on_c, 1, 43, 43
3, 240843, Note_on_c, 1, 50, 0
3, 240914, Note_on_c, 1, 43, 0
3, 240973, Note_on_c, 1, 49, 79
3, 241788, Note_on_c, 1, 49, 0
3, 241929, Note_on_c, 1, 48, 64
3, 242830, Note_on_c, 1, 48, 0
3, 242889, Note_on_c, 1, 36, 84
3, 244873, Note_on_c, 1, 48, 88
3, 246501, Note_on_c, 1, 48, 0
3, 246752, Note_on_c, 1, 48, 69
3, 248344, Note_on_c, 1, 48, 0
3, 248586, Note_on_c, 1, 48, 77
3, 249042, Note_on_c, 1, 36, 0
3, 249213, Note_on_c, 1, 48, 0
3, 249600, Note_on_c, 1, 29, 72
3, 250544, Note_on_c, 1, 41, 100
3, 250560, Note_on_c, 1, 29, 0
3, 251523, Note_on_c, 1, 41, 0
3, 251638, Note_on_c, 1, 36, 58
3, 252428, Note_on_c, 1, 36, 0
3, 252569, Note_on_c, 1, 33, 67
3, 253478, Note_on_c, 1, 33, 0
3, 253540, Note_on_c, 1, 31, 67
3, 254381, Note_on_c, 1, 31, 0
3, 254499, Note_on_c, 1, 30, 66
3, 255267, Note_on_c, 1, 30, 0
3, 255420, Note_on_c, 1, 29, 51
3, 256178, Note_on_c, 1, 29, 0
3, 256372, Note_on_c, 1, 39, 86
3, 257253, Note_on_c, 1, 39, 0
3, 257406, Note_on_c, 1, 40, 79
3, 258285, Note_on_c, 1, 40, 0
3, 258388, Note_on_c, 1, 35, 84
3, 259245, Note_on_c, 1, 35, 0
3, 259362, Note_on_c, 1, 40, 72
3, 260213, Note_on_c, 1, 40, 0
3, 260232, Note_on_c, 1, 32, 82
3, 261035, Note_on_c, 1, 32, 0
3, 261199, Note_on_c, 1, 33, 80
3, 262189, Note_on_c, 1, 47, 90
3, 262540, Note_on_c, 1, 33, 0
3, 263175, Note_on_c, 1, 47, 0
3, 263204, Note_on_c, 1, 45, 78
3, 264023, Note_on_c, 1, 45, 0
3, 264062, Note_on_c, 1, 39, 83
3, 265025, Note_on_c, 1, 39, 0
3, 265066, Note_on_c, 1, 38, 67
3, 265830, Note_on_c, 1, 37, 59
3, 265986, Note_on_c, 1, 38, 0
3, 265987, Note_on_c, 1, 52, 106
3, 266111, Note_on_c, 1, 37, 0
3, 266907, Note_on_c, 1, 52, 0
3, 266994, Note_on_c, 1, 50, 82
3, 267815, Note_on_c, 1, 50, 0
3, 267890, Note_on_c, 1, 45, 76
3, 268762, Note_on_c, 1, 45, 0
3, 268842, Note_on_c, 1, 41, 74
3, 269772, Note_on_c, 1, 41, 0
3, 269829, Note_on_c, 1, 42, 81
3, 270769, Note_on_c, 1, 42, 0
3, 270814, Note_on_c, 1, 43, 67
3, 271664, Note_on_c, 1, 32, 74
3, 271678, Note_on_c, 1, 43, 0
3, 272618, Note_on_c, 1, 32, 0
3, 272725, Note_on_c, 1, 31, 70
3, 273498, Note_on_c, 1, 31, 0
3, 273653, Note_on_c, 1, 35, 78
3, 274565, Note_on_c, 1, 35, 0
3, 274676, Note_on_c, 1, 36, 69
3, 275330, Note_on_c, 1, 34, 62
3, 275543, Note_on_c, 1, 34, 0
3, 275560, Note_on_c, 1, 36, 0
3, 275602, Note_on_c, 1, 42, 79
3, 276559, Note_on_c, 1, 42, 0
3, 276579, Note_on_c, 1, 41, 65
3, 277272, Note_on_c, 1, 36, 60
3, 277374, Note_on_c, 1, 41, 0
3, 277416, Note_on_c, 1, 36, 0
3, 277520, Note_on_c, 1, 45, 71
3, 278279, Note_on_c, 1, 36, 44
3, 278360, Note_on_c, 1, 45, 0
3, 278398, Note_on_c, 1, 36, 0
3, 278473, Note_on_c, 1, 48, 84
3, 279218, Note_on_c, 1, 36, 49
3, 279314, Note_on_c, 1, 48, 0
3, 279321, Note_on_c, 1, 36, 0
3, 279435, Note_on_c, 1, 47, 83
3, 280413, Note_on_c, 1, 46, 69
3, 280416, Note_on_c, 1, 47, 0
3, 281344, Note_on_c, 1, 40, 74
3, 281404, Note_on_c, 1, 46, 0
3, 282192, Note_on_c, 1, 40, 0
3, 282318, Note_on_c, 1, 41, 73
3, 283237, Note_on_c, 1, 41, 0
3, 283246, Note_on_c, 1, 40, 92
3, 284114, Note_on_c, 1, 40, 0
3, 284221, Note_on_c, 1, 39, 75
3, 285030, Note_on_c, 1, 39, 0
3, 285167, Note_on_c, 1, 39, 81
3, 286139, Note_on_c, 1, 51, 90
3, 286197, Note_on_c, 1, 39, 0
3, 287085, Note_on_c, 1, 40, 79
3, 287123, Note_on_c, 1, 51, 0
3, 288053, Note_on_c, 1, 40, 0
3, 288081, Note_on_c, 1, 41, 83
3, 288788, Note_on_c, 1, 39, 63
3, 288984, Note_on_c, 1, 55, 93
3, 289013, Note_on_c, 1, 41, 0
3, 289148, Note_on_c, 1, 39, 0
3, 289876, Note_on_c, 1, 55, 0
3, 290002, Note_on_c, 1, 53, 69
3, 290953, Note_on_c, 1, 53, 0
3, 290963, Note_on_c, 1, 40, 75
3, 291009, Note_on_c, 1, 38, 57
3, 291090, Note_on_c, 1, 38, 0
3, 291949, Note_on_c, 1, 41, 76
3, 291951, Note_on_c, 1, 40, 0
3, 292696, Note_on_c, 1, 40, 65
3, 292823, Note_on_c, 1, 41, 0
3, 292921, Note_on_c, 1, 55, 111
3, 292939, Note_on_c, 1, 40, 0
3, 293605, Note_on_c, 1, 41, 37
3, 293700, Note_on_c, 1, 41, 0
3, 293756, Note_on_c, 1, 55, 0
3, 293867, Note_on_c, 1, 53, 80
3, 294597, Note_on_c, 1, 53, 0
3, 294751, Note_on_c, 1, 46, 87
3, 295647, Note_on_c, 1, 46, 0
3, 295769, Note_on_c, 1, 47, 72
3, 296688, Note_on_c, 1, 47, 0
3, 296732, Note_on_c, 1, 41, 81
3, 297593, Note_on_c, 1, 41, 0
3, 297716, Note_on_c, 1, 38, 66
3, 298692, Note_on_c, 1, 39, 84
3, 298698, Note_on_c, 1, 38, 0
3, 299509, Note_on_c, 1, 39, 0
3, 299643, Note_on_c, 1, 40, 78
3, 300581, Note_on_c, 1, 40, 0
3, 300606, Note_on_c, 1, 52, 102
3, 301252, Note_on_c, 1, 40, 52
3, 301345, Note_on_c, 1, 40, 0
3, 301502, Note_on_c, 1, 52, 0
3, 301551, Note_on_c, 1, 46, 74
3, 302407, Note_on_c, 1, 46, 0
3, 302423, Note_on_c, 1, 34, 83
3, 303305, Note_on_c, 1, 34, 0
3, 303442, Note_on_c, 1, 33, 71
3, 304059, Note_on_c, 1, 34, 65
3, 304332, Note_on_c, 1, 33, 0
3, 304354, Note_on_c, 1, 34, 0
3, 304400, Note_on_c, 1, 48, 95
3, 305249, Note_on_c, 1, 48, 0
3, 305377, Note_on_c, 1, 44, 81
3, 306224, Note_on_c, 1, 44, 0
3, 306291, Note_on_c, 1, 32, 79
3, 307173, Note_on_c, 1, 32, 0
3, 307258, Note_on_c, 1, 31, 84
3, 308244, Note_on_c, 1, 43, 86
3, 308320, Note_on_c, 1, 31, 0
3, 309132, Note_on_c, 1, 43, 0
3, 309218, Note_on_c, 1, 42, 79
3, 310142, Note_on_c, 1, 42, 0
3, 310162, Note_on_c, 1, 36, 88
3, 311032, Note_on_c, 1, 36, 0
3, 311132, Note_on_c, 1, 29, 83
3, 311973, Note_on_c, 1, 29, 0
3, 312114, Note_on_c, 1, 29, 91
3, 312915, Note_on_c, 1, 29, 0
3, 313089, Note_on_c, 1, 29, 69
3, 313253, Note_on_c, 1, 33, 85
3, 313330, Note_on_c, 1, 29, 0
3, 313432, Note_on_c, 1, 33, 0
3, 313539, Note_on_c, 1, 33, 58
3, 313956, Note_on_c, 1, 33, 0
3, 314074, Note_on_c, 1, 33, 102
3, 314902, Note_on_c, 1, 33, 0
3, 314991, Note_on_c, 1, 38, 71
3, 315856, Note_on_c, 1, 38, 0
3, 315893, Note_on_c, 1, 37, 79
3, 316812, Note_on_c, 1, 37, 0
3, 316897, Note_on_c, 1, 36, 74
3, 317772, Note_on_c, 1, 36, 0
3, 317824, Note_on_c, 1, 34, 89
3, 318730, Note_on_c, 1, 34, 0
3, 318858, Note_on_c, 1, 35, 74
3, 319435, Note_on_c, 1, 34, 61
3, 319603, Note_on_c, 1, 34, 0
3, 319630, Note_on_c, 1, 35, 0
3, 319759, Note_on_c, 1, 40, 76
3, 320637, Note_on_c, 1, 40, 0
3, 320714, Note_on_c, 1, 34, 79
3, 321521, Note_on_c, 1, 34, 0
3, 321598, Note_on_c, 1, 33, 78
3, 322652, Note_on_c, 1, 45, 92
3, 322809, Note_on_c, 1, 33, 0
3, 323233, Note_on_c, 1, 40, 47
3, 323433, Note_on_c, 1, 45, 0
3, 323461, Note_on_c, 1, 40, 0
3, 323573, Note_on_c, 1, 52, 92
3, 324431, Note_on_c, 1, 52, 0
3, 324516, Note_on_c, 1, 49, 74
3, 325334, Note_on_c, 1, 49, 0
3, 325433, Note_on_c, 1, 37, 80
3, 326217, Note_on_c, 1, 34, 41
3, 326415, Note_on_c, 1, 34, 0
3, 326424, Note_on_c, 1, 37, 0
3, 326449, Note_on_c, 1, 38, 76
3, 327132, Note_on_c, 1, 37, 59
3, 327373, Note_on_c, 1, 38, 0
3, 327389, Note_on_c, 1, 50, 92
3, 327412, Note_on_c, 1, 37, 0
3, 328365, Note_on_c, 1, 45, 70
3, 328503, Note_on_c, 1, 50, 0
3, 329143, Note_on_c, 1, 45, 0
3, 329259, Note_on_c, 1, 41, 78
3, 330122, Note_on_c, 1, 41, 0
3, 330279, Note_on_c, 1, 45, 83
3, 331092, Note_on_c, 1, 45, 0
3, 331191, Note_on_c, 1, 42, 81
3, 332119, Note_on_c, 1, 42, 0
3, 332210, Note_on_c, 1, 43, 70
3, 333089, Note_on_c, 1, 43, 0
3, 333154, Note_on_c, 1, 35, 93
3, 334037, Note_on_c, 1, 35, 0
3, 334167, Note_on_c, 1, 36, 80
3, 335124, Note_on_c, 1, 36, 0
3, 335133, Note_on_c, 1, 38, 86
3, 336082, Note_on_c, 1, 39, 85
3, 336191, Note_on_c, 1, 38, 0
3, 336961, Note_on_c, 1, 39, 0
3, 337016, Note_on_c, 1, 40, 79
3, 337741, Note_on_c, 1, 39, 58
3, 337977, Note_on_c, 1, 40, 0
3, 337991, Note_on_c, 1, 41, 78
3, 338000, Note_on_c, 1, 39, 0
3, 338636, Note_on_c, 1, 39, 68
3, 338863, Note_on_c, 1, 41, 0
3, 338936, Note_on_c, 1, 50, 108
3, 339001, Note_on_c, 1, 39, 0
3, 339531, Note_on_c, 1, 41, 45
3, 339673, Note_on_c, 1, 41, 0
3, 339844, Note_on_c, 1, 50, 0
3, 339895, Note_on_c, 1, 48, 78
3, 340567, Note_on_c, 1, 41, 59
3, 340779, Note_on_c, 1, 48, 0
3, 340821, Note_on_c, 1, 41, 0
3, 340863, Note_on_c, 1, 47, 80
3, 341478, Note_on_c, 1, 41, 47
3, 341617, Note_on_c, 1, 41, 0
3, 341638, Note_on_c, 1, 47, 0
3, 341819, Note_on_c, 1, 46, 76
3, 342785, Note_on_c, 1, 40, 78
3, 342836, Note_on_c, 1, 46, 0
3, 343680, Note_on_c, 1, 40, 0
3, 343758, Note_on_c, 1, 41, 80
3, 344511, Note_on_c, 1, 38, 60
3, 344638, Note_on_c, 1, 41, 0
3, 344731, Note_on_c, 1, 52, 93
3, 344736, Note_on_c, 1, 38, 0
3, 345585, Note_on_c, 1, 52, 0
3, 345691, Note_on_c, 1, 51, 79
3, 346617, Note_on_c, 1, 51, 0
3, 346672, Note_on_c, 1, 39, 79
3, 347540, Note_on_c, 1, 39, 0
3, 347599, Note_on_c, 1, 51, 84
3, 348508, Note_on_c, 1, 51, 0
3, 348529, Note_on_c, 1, 44, 84
3, 349493, Note_on_c, 1, 45, 84
3, 349526, Note_on_c, 1, 44, 0
3, 350158, Note_on_c, 1, 44, 45
3, 350342, Note_on_c, 1, 45, 0
3, 350387, Note_on_c, 1, 44, 0
3, 350429, Note_on_c, 1, 57, 111
3, 351340, Note_on_c, 1, 57, 0
3, 351429, Note_on_c, 1, 51, 77
3, 351993, Note_on_c, 1, 51, 0
3, 352064, Note_on_c, 1, 48, 81
3, 352234, Note_on_c, 1, 48, 0
3, 352373, Note_on_c, 1, 39, 81
3, 353254, Note_on_c, 1, 39, 0
3, 353334, Note_on_c, 1, 38, 77
3, 353958, Note_on_c, 1, 38, 0
3, 354090, Note_on_c, 1, 38, 94
3, 354350, Note_on_c, 1, 40, 84
3, 354509, Note_on_c, 1, 38, 0
3, 355199, Note_on_c, 1, 40, 0
3, 355265, Note_on_c, 1, 41, 72
3, 355626, Note_on_c, 1, 41, 0
3, 355860, Note_on_c, 1, 41, 42
3, 356187, Note_on_c, 1, 41, 0
3, 356243, Note_on_c, 1, 42, 83
3, 357159, Note_on_c, 1, 42, 0
3, 357196, Note_on_c, 1, 43, 69
3, 357706, Note_on_c, 1, 43, 0
3, 357885, Note_on_c, 1, 43, 70
3, 358101, Note_on_c, 1, 43, 0
3, 358213, Note_on_c, 1, 45, 84
3, 358855, Note_on_c, 1, 43, 56
3, 359029, Note_on_c, 1, 43, 0
3, 359135, Note_on_c, 1, 45, 0
3, 359157, Note_on_c, 1, 46, 65
3, 359857, Note_on_c, 1, 43, 57
3, 359991, Note_on_c, 1, 43, 0
3, 360017, Note_on_c, 1, 46, 0
3, 360089, Note_on_c, 1, 47, 81
3, 361012, Note_on_c, 1, 47, 0
3, 361054, Note_on_c, 1, 48, 77
3, 362001, Note_on_c, 1, 48, 0
3, 362005, Note_on_c, 1, 36, 80
3, 362715, Note_on_c, 1, 43, 64
3, 362829, Note_on_c, 1, 36, 0
3, 362853, Note_on_c, 1, 43, 0
3, 362957, Note_on_c, 1, 50, 107
3, 363688, Note_on_c, 1, 43, 40
3, 363785, Note_on_c, 1, 43, 0
3, 363866, Note_on_c, 1, 50, 0
3, 363924, Note_on_c, 1, 49, 82
3, 364747, Note_on_c, 1, 49, 0
3, 364871, Note_on_c, 1, 48, 78
3, 365841, Note_on_c, 1, 36, 94
3, 365982, Note_on_c, 1, 48, 0
3, 366783, Note_on_c, 1, 50, 106
3, 366792, Note_on_c, 1, 36, 0
3, 367599, Note_on_c, 1, 50, 0
3, 367754, Note_on_c, 1, 48, 87
3, 368694, Note_on_c, 1, 48, 0
3, 368697, Note_on_c, 1, 36, 108
3, 369666, Note_on_c, 1, 50, 117
3, 369759, Note_on_c, 1, 36, 0
3, 370502, Note_on_c, 1, 50, 0
3, 370620, Note_on_c, 1, 48, 96
3, 371480, Note_on_c, 1, 48, 0
3, 371559, Note_on_c, 1, 36, 104
3, 372362, Note_on_c, 1, 36, 0
3, 372508, Note_on_c, 1, 29, 106
3, 373378, Note_on_c, 1, 29, 0
3, 373529, Note_on_c, 1, 29, 93
3, 374431, Note_on_c, 1, 29, 0
3, 374573, Note_on_c, 1, 29, 84
3, 375354, Note_on_c, 1, 29, 0
3, 375498, Note_on_c, 1, 29, 97
3, 376354, Note_on_c, 1, 29, 0
3, 376487, Note_on_c, 1, 29, 93
3, 377396, Note_on_c, 1, 41, 125
3, 377496, Note_on_c, 1, 29, 0
3, 378008, Note_on_c, 1, 29, 61
3, 378108, Note_on_c, 1, 29, 0
3, 378278, Note_on_c, 1, 41, 0
3, 378339, Note_on_c, 1, 40, 88
3, 379197, Note_on_c, 1, 40, 0
3, 379271, Note_on_c, 1, 39, 81
3, 380079, Note_on_c, 1, 39, 0
3, 380215, Note_on_c, 1, 40, 83
3, 381083, Note_on_c, 1, 40, 0
3, 381208, Note_on_c, 1, 35, 80
3, 382043, Note_on_c, 1, 35, 0
3, 382150, Note_on_c, 1, 28, 100
3, 383029, Note_on_c, 1, 28, 0
3, 383064, Note_on_c, 1, 34, 95
3, 384001, Note_on_c, 1, 34, 0
3, 384115, Note_on_c, 1, 33, 85
3, 384853, Note_on_c, 1, 32, 61
3, 384987, Note_on_c, 1, 33, 0
3, 385020, Note_on_c, 1, 32, 0
3, 385032, Note_on_c, 1, 40, 81
3, 385897, Note_on_c, 1, 40, 0
3, 385995, Note_on_c, 1, 37, 82
3, 386827, Note_on_c, 1, 37, 0
3, 386974, Note_on_c, 1, 37, 88
3, 387895, Note_on_c, 1, 37, 0
3, 387948, Note_on_c, 1, 38, 78
3, 388643, Note_on_c, 1, 37, 58
3, 388759, Note_on_c, 1, 38, 0
3, 388834, Note_on_c, 1, 37, 0
3, 388861, Note_on_c, 1, 40, 78
3, 389706, Note_on_c, 1, 40, 0
3, 389816, Note_on_c, 1, 41, 83
3, 390530, Note_on_c, 1, 38, 62
3, 390622, Note_on_c, 1, 38, 0
3, 390662, Note_on_c, 1, 41, 0
3, 390764, Note_on_c, 1, 45, 83
3, 391388, Note_on_c, 1, 45, 0
3, 391490, Note_on_c, 1, 43, 58
3, 391766, Note_on_c, 1, 52, 93
3, 391808, Note_on_c, 1, 43, 0
3, 392498, Note_on_c, 1, 43, 36
3, 392583, Note_on_c, 1, 52, 0
3, 392648, Note_on_c, 1, 43, 0
3, 392745, Note_on_c, 1, 51, 87
3, 393269, Note_on_c, 1, 43, 41
3, 393384, Note_on_c, 1, 43, 0
3, 393600, Note_on_c, 1, 51, 0
3, 393711, Note_on_c, 1, 50, 76
3, 394504, Note_on_c, 1, 50, 0
3, 394624, Note_on_c, 1, 43, 71
3, 395283, Note_on_c, 1, 39, 61
3, 395427, Note_on_c, 1, 43, 0
3, 395536, Note_on_c, 1, 39, 0
3, 395575, Note_on_c, 1, 48, 106
3, 396390, Note_on_c, 1, 48, 0
3, 396525, Note_on_c, 1, 36, 81
3, 397437, Note_on_c, 1, 36, 0
3, 397541, Note_on_c, 1, 43, 82
3, 398337, Note_on_c, 1, 43, 0
3, 398453, Note_on_c, 1, 30, 85
3, 399438, Note_on_c, 1, 30, 0
3, 399452, Note_on_c, 1, 29, 80
3, 400283, Note_on_c, 1, 29, 0
3, 400385, Note_on_c, 1, 31, 81
3, 401236, Note_on_c, 1, 31, 0
3, 401323, Note_on_c, 1, 33, 75
3, 402156, Note_on_c, 1, 33, 0
3, 402339, Note_on_c, 1, 33, 85
3, 403180, Note_on_c, 1, 33, 0
3, 403241, Note_on_c, 1, 34, 83
3, 404232, Note_on_c, 1, 36, 86
3, 404241, Note_on_c, 1, 34, 0
3, 404935, Note_on_c, 1, 34, 47
3, 404986, Note_on_c, 1, 36, 0
3, 405190, Note_on_c, 1, 38, 70
3, 405243, Note_on_c, 1, 34, 0
3, 406099, Note_on_c, 1, 38, 0
3, 406148, Note_on_c, 1, 45, 96
3, 406988, Note_on_c, 1, 45, 0
3, 407101, Note_on_c, 1, 39, 74
3, 407777, Note_on_c, 1, 37, 52
3, 408060, Note_on_c, 1, 37, 0
3, 408083, Note_on_c, 1, 39, 0
3, 408090, Note_on_c, 1, 51, 94
3, 409041, Note_on_c, 1, 51, 0
3, 409048, Note_on_c, 1, 39, 81
3, 409841, Note_on_c, 1, 39, 0
3, 409990, Note_on_c, 1, 40, 74
3, 410888, Note_on_c, 1, 40, 0
3, 410939, Note_on_c, 1, 41, 82
3, 411843, Note_on_c, 1, 41, 0
3, 411883, Note_on_c, 1, 50, 113
3, 412744, Note_on_c, 1, 50, 0
3, 412876, Note_on_c, 1, 48, 83
3, 413739, Note_on_c, 1, 48, 0
3, 413788, Note_on_c, 1, 36, 86
3, 414729, Note_on_c, 1, 36, 0
3, 414829, Note_on_c, 1, 38, 82
3, 415695, Note_on_c, 1, 38, 0
3, 415788, Note_on_c, 1, 33, 85
3, 416658, Note_on_c, 1, 33, 0
3, 416806, Note_on_c, 1, 36, 92
3, 417611, Note_on_c, 1, 36, 0
3, 417639, Note_on_c, 1, 34, 86
3, 418465, Note_on_c, 1, 34, 0
3, 418599, Note_on_c, 1, 35, 90
3, 419294, Note_on_c, 1, 34, 45
3, 419474, Note_on_c, 1, 34, 0
3, 419509, Note_on_c, 1, 35, 0
3, 419564, Note_on_c, 1, 47, 107
3, 420432, Note_on_c, 1, 47, 0
3, 420465, Note_on_c, 1, 38, 76
3, 421426, Note_on_c, 1, 38, 0
3, 421481, Note_on_c, 1, 39, 90
3, 422265, Note_on_c, 1, 39, 0
3, 422392, Note_on_c, 1, 40, 82
3, 423119, Note_on_c, 1, 39, 64
3, 423307, Note_on_c, 1, 40, 0
3, 423381, Note_on_c, 1, 53, 120
3, 423425, Note_on_c, 1, 39, 0
3, 424258, Note_on_c, 1, 53, 0
3, 424355, Note_on_c, 1, 52, 87
3, 425207, Note_on_c, 1, 52, 0
3, 425270, Note_on_c, 1, 46, 90
3, 426195, Note_on_c, 1, 46, 0
3, 426274, Note_on_c, 1, 45, 79
3, 427278, Note_on_c, 1, 35, 85
3, 428096, Note_on_c, 1, 45, 0
3, 428170, Note_on_c, 1, 35, 0
3, 428362, Note_on_c, 1, 43, 56
3, 428366, Note_on_c, 1, 44, 37
3, 428587, Note_on_c, 1, 43, 0
3, 428622, Note_on_c, 1, 44, 0
3, 429209, Note_on_c, 1, 44, 87
3, 430046, Note_on_c, 1, 44, 0
3, 430141, Note_on_c, 1, 43, 82
3, 431009, Note_on_c, 1, 43, 0
3, 431084, Note_on_c, 1, 31, 78
3, 431949, Note_on_c, 1, 31, 0
3, 432028, Note_on_c, 1, 36, 83
3, 432968, Note_on_c, 1, 42, 93
3, 432983, Note_on_c, 1, 36, 0
3, 433867, Note_on_c, 1, 42, 0
3, 433970, Note_on_c, 1, 41, 84
3, 434754, Note_on_c, 1, 41, 0
3, 434925, Note_on_c, 1, 41, 86
3, 435884, Note_on_c, 1, 35, 85
3, 435893, Note_on_c, 1, 41, 0
3, 436691, Note_on_c, 1, 35, 0
3, 436837, Note_on_c, 1, 35, 91
3, 437718, Note_on_c, 1, 35, 0
3, 437841, Note_on_c, 1, 36, 89
3, 438640, Note_on_c, 1, 36, 0
3, 438816, Note_on_c, 1, 36, 92
3, 439507, Note_on_c, 1, 34, 60
3, 439677, Note_on_c, 1, 36, 0
3, 439751, Note_on_c, 1, 43, 108
3, 439821, Note_on_c, 1, 34, 0
3, 440596, Note_on_c, 1, 43, 0
3, 440700, Note_on_c, 1, 41, 90
3, 441586, Note_on_c, 1, 41, 0
3, 441660, Note_on_c, 1, 40, 80
3, 442365, Note_on_c, 1, 34, 43
3, 442552, Note_on_c, 1, 34, 0
3, 442607, Note_on_c, 1, 52, 102
3, 442612, Note_on_c, 1, 40, 0
3, 443431, Note_on_c, 1, 52, 0
3, 443640, Note_on_c, 1, 43, 51
3, 443664, Note_on_c, 1, 45, 57
3, 443911, Note_on_c, 1, 45, 0
3, 444525, Note_on_c, 1, 43, 0
3, 444531, Note_on_c, 1, 34, 82
3, 445414, Note_on_c, 1, 34, 0
3, 445544, Note_on_c, 1, 33, 77
3, 446236, Note_on_c, 1, 34, 58
3, 446396, Note_on_c, 1, 34, 0
3, 446475, Note_on_c, 1, 33, 0
3, 446555, Note_on_c, 1, 49, 91
3, 447434, Note_on_c, 1, 49, 0
3, 447490, Note_on_c, 1, 36, 78
3, 448426, Note_on_c, 1, 36, 0
3, 448491, Note_on_c, 1, 37, 83
3, 449474, Note_on_c, 1, 37, 0
3, 449516, Note_on_c, 1, 38, 80
3, 450226, Note_on_c, 1, 37, 66
3, 450397, Note_on_c, 1, 38, 0
3, 450440, Note_on_c, 1, 37, 0
3, 450492, Note_on_c, 1, 52, 108
3, 451312, Note_on_c, 1, 52, 0
3, 451437, Note_on_c, 1, 50, 80
3, 452239, Note_on_c, 1, 50, 0
3, 452311, Note_on_c, 1, 45, 83
3, 453219, Note_on_c, 1, 45, 0
3, 453228, Note_on_c, 1, 41, 75
3, 454070, Note_on_c, 1, 41, 0
3, 454159, Note_on_c, 1, 42, 76
3, 455063, Note_on_c, 1, 42, 0
3, 455138, Note_on_c, 1, 44, 86
3, 455965, Note_on_c, 1, 44, 0
3, 456077, Note_on_c, 1, 42, 75
3, 456769, Note_on_c, 1, 42, 0
3, 456807, Note_on_c, 1, 43, 70
3, 456937, Note_on_c, 1, 43, 0
3, 457082, Note_on_c, 1, 48, 90
3, 457886, Note_on_c, 1, 48, 0
3, 457997, Note_on_c, 1, 43, 75
3, 458946, Note_on_c, 1, 43, 0
3, 458951, Note_on_c, 1, 36, 80
3, 459895, Note_on_c, 1, 36, 0
3, 459914, Note_on_c, 1, 42, 86
3, 460754, Note_on_c, 1, 42, 0
3, 460866, Note_on_c, 1, 41, 78
3, 461770, Note_on_c, 1, 41, 0
3, 461789, Note_on_c, 1, 29, 87
3, 462666, Note_on_c, 1, 29, 0
3, 462779, Note_on_c, 1, 30, 79
3, 462860, Note_on_c, 1, 31, 85
3, 462953, Note_on_c, 1, 30, 0
3, 463698, Note_on_c, 1, 31, 0
3, 463738, Note_on_c, 1, 33, 80
3, 464654, Note_on_c, 1, 33, 0
3, 464715, Note_on_c, 1, 34, 80
3, 465468, Note_on_c, 1, 32, 43
3, 465749, Note_on_c, 1, 39, 86
3, 465752, Note_on_c, 1, 34, 0
3, 465754, Note_on_c, 1, 32, 0
3, 466377, Note_on_c, 1, 34, 41
3, 466526, Note_on_c, 1, 34, 0
3, 466647, Note_on_c, 1, 39, 0
3, 466675, Note_on_c, 1, 38, 70
3, 467389, Note_on_c, 1, 36, 36
3, 467431, Note_on_c, 1, 38, 0
3, 467493, Note_on_c, 1, 36, 0
3, 467575, Note_on_c, 1, 40, 74
3, 468211, Note_on_c, 1, 38, 61
3, 468298, Note_on_c, 1, 38, 0
3, 468489, Note_on_c, 1, 40, 0
3, 468540, Note_on_c, 1, 39, 77
3, 469486, Note_on_c, 1, 39, 0
3, 469500, Note_on_c, 1, 46, 81
3, 470013, Note_on_c, 1, 39, 30
3, 470254, Note_on_c, 1, 39, 0
3, 470463, Note_on_c, 1, 43, 69
3, 470501, Note_on_c, 1, 46, 0
3, 471090, Note_on_c, 1, 39, 55
3, 471092, Note_on_c, 1, 43, 0
3, 471347, Note_on_c, 1, 39, 0
3, 471366, Note_on_c, 1, 46, 82
3, 472105, Note_on_c, 1, 46, 0
3, 472156, Note_on_c, 1, 42, 31
3, 472285, Note_on_c, 1, 42, 0
3, 472313, Note_on_c, 1, 45, 65
3, 472899, Note_on_c, 1, 42, 52
3, 472960, Note_on_c, 1, 44, 39
3, 473108, Note_on_c, 1, 45, 0
3, 473175, Note_on_c, 1, 44, 0
3, 473249, Note_on_c, 1, 57, 80
3, 473254, Note_on_c, 1, 42, 0
3, 474136, Note_on_c, 1, 57, 0
3, 474219, Note_on_c, 1, 51, 68
3, 475131, Note_on_c, 1, 51, 0
3, 475184, Note_on_c, 1, 39, 80
3, 476008, Note_on_c, 1, 39, 0
3, 476141, Note_on_c, 1, 38, 64
3, 476785, Note_on_c, 1, 45, 65
3, 476952, Note_on_c, 1, 45, 0
3, 477075, Note_on_c, 1, 54, 90
3, 477103, Note_on_c, 1, 38, 0
3, 478093, Note_on_c, 1, 50, 80
3, 478147, Note_on_c, 1, 54, 0
3, 478623, Note_on_c, 1, 50, 0
3, 478778, Note_on_c, 1, 41, 72
3, 479034, Note_on_c, 1, 41, 0
3, 479110, Note_on_c, 1, 42, 86
3, 479820, Note_on_c, 1, 39, 46
3, 479989, Note_on_c, 1, 42, 0
3, 480014, Note_on_c, 1, 39, 0
3, 480105, Note_on_c, 1, 43, 76
3, 480906, Note_on_c, 1, 43, 0
3, 481088, Note_on_c, 1, 50, 111
3, 481975, Note_on_c, 1, 50, 0
3, 482077, Note_on_c, 1, 38, 78
3, 482873, Note_on_c, 1, 38, 0
3, 483022, Note_on_c, 1, 37, 74
3, 483848, Note_on_c, 1, 37, 0
3, 483984, Note_on_c, 1, 36, 76
3, 484966, Note_on_c, 1, 48, 108
3, 485343, Note_on_c, 1, 36, 0
3, 486975, Note_on_c, 1, 36, 102
3, 487093, Note_on_c, 1, 48, 0
3, 488454, Note_on_c, 1, 34, 51
3, 488645, Note_on_c, 1, 34, 0
3, 488873, Note_on_c, 1, 48, 125
3, 488958, Note_on_c, 1, 36, 0
3, 490745, Note_on_c, 1, 48, 0
3, 490749, Note_on_c, 1, 36, 107
3, 494424, Note_on_c, 1, 36, 0
3, 494478, Note_on_c, 1, 48, 83
3, 494984, Note_on_c, 1, 48, 0
3, 497055, Note_on_c, 1, 29, 100
3, 499192, Note_on_c, 1, 29, 0
3, 499272, Note_on_c, 1, 36, 100
3, 500891, Note_on_c, 1, 41, 102
3, 501023, Note_on_c, 1, 36, 0
3, 502927, Note_on_c, 1, 38, 36
3, 502956, Note_on_c, 1, 41, 0
3, 503034, Note_on_c, 1, 38, 0
3, 503065, Note_on_c, 1, 43, 86
3, 504917, Note_on_c, 1, 43, 0
3, 504989, Note_on_c, 1, 40, 74
3, 506611, Note_on_c, 1, 34, 73
3, 506659, Note_on_c, 1, 40, 0
3, 506815, Note_on_c, 1, 34, 0
3, 506994, Note_on_c, 1, 33, 81
3, 509632, Note_on_c, 1, 52, 101
3, 509675, Note_on_c, 1, 33, 0
3, 510460, Note_on_c, 1, 40, 62
3, 510564, Note_on_c, 1, 40, 0
3, 510720, Note_on_c, 1, 50, 95
3, 510844, Note_on_c, 1, 52, 0
3, 512324, Note_on_c, 1, 43, 48
3, 512433, Note_on_c, 1, 43, 0
3, 512557, Note_on_c, 1, 50, 0
3, 512640, Note_on_c, 1, 48, 88
3, 514351, Note_on_c, 1, 48, 0
3, 514430, Note_on_c, 1, 43, 60
3, 514528, Note_on_c, 1, 43, 0
3, 514712, Note_on_c, 1, 47, 66
3, 516126, Note_on_c, 1, 47, 0
3, 516181, Note_on_c, 1, 42, 72
3, 516446, Note_on_c, 1, 42, 0
3, 516581, Note_on_c, 1, 43, 68
3, 517246, Note_on_c, 1, 43, 0
3, 517494, Note_on_c, 1, 50, 108
3, 517831, Note_on_c, 1, 50, 0
3, 518554, Note_on_c, 1, 48, 96
3, 518692, Note_on_c, 1, 48, 0
3, 519268, Note_on_c, 1, 43, 74
3, 519447, Note_on_c, 1, 43, 0
3, 519617, Note_on_c, 1, 39, 42
3, 521010, Note_on_c, 1, 39, 0
3, 521068, Note_on_c, 1, 43, 84
3, 521284, Note_on_c, 1, 43, 0
3, 521978, Note_on_c, 1, 39, 73
3, 522255, Note_on_c, 1, 39, 0
3, 522410, Note_on_c, 1, 41, 81
3, 523862, Note_on_c, 1, 41, 0
3, 523914, Note_on_c, 1, 36, 70
3, 524020, Note_on_c, 1, 36, 0
3, 524242, Note_on_c, 1, 33, 73
3, 524942, Note_on_c, 1, 33, 0
3, 525184, Note_on_c, 1, 33, 80
3, 526105, Note_on_c, 1, 33, 0
3, 526232, Note_on_c, 1, 34, 75
3, 528138, Note_on_c, 1, 34, 0
3, 528150, Note_on_c, 1, 41, 80
3, 529757, Note_on_c, 1, 39, 57
3, 529924, Note_on_c, 1, 39, 0
3, 529985, Note_on_c, 1, 41, 0
3, 530048, Note_on_c, 1, 53, 95
3, 530319, Note_on_c, 1, 53, 0
3, 530621, Note_on_c, 1, 52, 84
3, 530874, Note_on_c, 1, 52, 0
3, 531082, Note_on_c, 1, 51, 86
3, 532966, Note_on_c, 1, 39, 69
3, 533040, Note_on_c, 1, 51, 0
3, 533841, Note_on_c, 1, 39, 0
3, 533939, Note_on_c, 1, 41, 67
3, 535845, Note_on_c, 1, 58, 98
3, 536338, Note_on_c, 1, 41, 0
3, 536790, Note_on_c, 1, 58, 0
3, 536796, Note_on_c, 1, 57, 91
3, 538596, Note_on_c, 1, 57, 0
3, 538717, Note_on_c, 1, 55, 84
3, 540583, Note_on_c, 1, 55, 0
3, 540667, Note_on_c, 1, 53, 92
3, 542518, Note_on_c, 1, 53, 0
3, 543483, Note_on_c, 1, 47, 50
3, 545358, Note_on_c, 1, 52, 92
3, 545442, Note_on_c, 1, 47, 0
3, 546977, Note_on_c, 1, 52, 0
3, 547299, Note_on_c, 1, 40, 73
3, 549125, Note_on_c, 1, 40, 0
3, 549214, Note_on_c, 1, 45, 74
3, 551740, Note_on_c, 1, 39, 51
3, 551766, Note_on_c, 1, 45, 0
3, 551936, Note_on_c, 1, 39, 0
3, 552040, Note_on_c, 1, 44, 86
3, 552866, Note_on_c, 1, 44, 0
3, 553007, Note_on_c, 1, 43, 73
3, 553678, Note_on_c, 1, 43, 0
3, 553995, Note_on_c, 1, 36, 91
3, 554779, Note_on_c, 1, 36, 0
3, 554937, Note_on_c, 1, 48, 108
3, 555441, Note_on_c, 1, 48, 0
3, 555893, Note_on_c, 1, 48, 115
3, 557794, Note_on_c, 1, 36, 79
3, 557828, Note_on_c, 1, 48, 0
3, 558741, Note_on_c, 1, 48, 90
3, 558767, Note_on_c, 1, 36, 0
3, 559436, Note_on_c, 1, 48, 0
3, 559726, Note_on_c, 1, 48, 88
3, 562192, Note_on_c, 1, 48, 0
3, 562321, Note_on_c, 1, 50, 86
3, 562615, Note_on_c, 1, 50, 0
3, 562725, Note_on_c, 1, 48, 76
3, 563122, Note_on_c, 1, 48, 0
3, 563594, Note_on_c, 1, 48, 86
3, 566428, Note_on_c, 1, 40, 70
3, 566437, Note_on_c, 1, 48, 0
3, 568470, Note_on_c, 1, 45, 92
3, 568683, Note_on_c, 1, 40, 0
3, 570218, Note_on_c, 1, 45, 0
3, 570382, Note_on_c, 1, 33, 77
3, 571249, Note_on_c, 1, 33, 0
3, 571347, Note_on_c, 1, 38, 90
3, 574086, Note_on_c, 1, 50, 107
3, 574184, Note_on_c, 1, 38, 0
3, 574538, Note_on_c, 1, 50, 0
3, 575062, Note_on_c, 1, 43, 79
3, 578000, Note_on_c, 1, 31, 75
3, 578003, Note_on_c, 1, 43, 0
3, 579719, Note_on_c, 1, 31, 0
3, 579829, Note_on_c, 1, 36, 79
3, 581833, Note_on_c, 1, 51, 79
3, 582098, Note_on_c, 1, 36, 0
3, 582107, Note_on_c, 1, 51, 0
3, 582769, Note_on_c, 1, 52, 92
3, 583020, Note_on_c, 1, 52, 0
3, 583783, Note_on_c, 1, 53, 88
3, 585531, Note_on_c, 1, 53, 0
3, 585672, Note_on_c, 1, 41, 74
3, 586107, Note_on_c, 1, 41, 0
3, 586657, Note_on_c, 1, 46, 95
3, 589471, Note_on_c, 1, 34, 67
3, 589578, Note_on_c, 1, 46, 0
3, 591406, Note_on_c, 1, 39, 79
3, 591525, Note_on_c, 1, 34, 0
3, 593336, Note_on_c, 1, 51, 98
3, 593431, Note_on_c, 1, 39, 0
3, 594943, Note_on_c, 1, 44, 52
3, 595029, Note_on_c, 1, 51, 0
3, 595214, Note_on_c, 1, 44, 0
3, 595283, Note_on_c, 1, 45, 79
3, 597086, Note_on_c, 1, 45, 0
3, 597184, Note_on_c, 1, 39, 74
3, 598658, Note_on_c, 1, 39, 0
3, 598762, Note_on_c, 1, 38, 78
3, 601947, Note_on_c, 1, 38, 0
3, 601956, Note_on_c, 1, 42, 79
3, 602803, Note_on_c, 1, 42, 0
3, 602967, Note_on_c, 1, 43, 69
3, 604911, Note_on_c, 1, 38, 67
3, 605156, Note_on_c, 1, 43, 0
3, 606639, Note_on_c, 1, 38, 0
3, 606812, Note_on_c, 1, 36, 69
3, 608738, Note_on_c, 1, 48, 120
3, 608825, Note_on_c, 1, 36, 0
3, 610596, Note_on_c, 1, 48, 0
3, 610654, Note_on_c, 1, 47, 87
3, 610849, Note_on_c, 1, 47, 0
3, 611667, Note_on_c, 1, 35, 100
3, 613447, Note_on_c, 1, 35, 0
3, 613519, Note_on_c, 1, 34, 82
3, 614156, Note_on_c, 1, 34, 0
3, 614481, Note_on_c, 1, 33, 80
3, 616177, Note_on_c, 1, 33, 0
3, 616316, Note_on_c, 1, 32, 95
3, 618000, Note_on_c, 1, 32, 0
3, 618196, Note_on_c, 1, 31, 106
3, 619910, Note_on_c, 1, 31, 0
3, 620083, Note_on_c, 1, 30, 97
3, 621638, Note_on_c, 1, 30, 0
3, 621822, Note_on_c, 1, 29, 117
3, 635436, Note_on_c, 1, 29, 0
3, 635436, End_track
4, 0, Start_track
4, 0, Title_t, "MIDI 1"
4, 0, Program_c, 9, 32
4, 0, Control_c, 9, 7, 119
4, 3953, Note_on_c, 9, 59, 84
4, 4165, Note_on_c, 9, 59, 0
4, 4848, Note_on_c, 9, 59, 110
4, 4852, Note_on_c, 9, 44, 48
4, 5322, Note_on_c, 9, 44, 0
4, 6626, Note_on_c, 9, 59, 0
4, 8778, Note_on_c, 9, 44, 57
4, 9241, Note_on_c, 9, 44, 0
4, 9673, Note_on_c, 9, 59, 124
4, 10215, Note_on_c, 9, 59, 0
4, 10604, Note_on_c, 9, 44, 44
4, 10645, Note_on_c, 9, 59, 127
4, 11073, Note_on_c, 9, 44, 0
4, 13960, Note_on_c, 9, 59, 0
4, 14475, Note_on_c, 9, 59, 93
4, 14584, Note_on_c, 9, 44, 52
4, 14767, Note_on_c, 9, 59, 0
4, 14935, Note_on_c, 9, 44, 0
4, 15005, Note_on_c, 9, 59, 86
4, 15146, Note_on_c, 9, 37, 36
4, 15214, Note_on_c, 9, 37, 0
4, 15255, Note_on_c, 9, 59, 0
4, 16066, Note_on_c, 9, 37, 56
4, 16106, Note_on_c, 9, 53, 67
4, 16206, Note_on_c, 9, 37, 0
4, 16238, Note_on_c, 9, 53, 0
4, 16453, Note_on_c, 9, 46, 51
4, 17154, Note_on_c, 9, 53, 67
4, 17325, Note_on_c, 9, 53, 0
4, 17360, Note_on_c, 9, 36, 53
4, 17656, Note_on_c, 9, 36, 0
4, 18031, Note_on_c, 9, 53, 73
4, 18172, Note_on_c, 9, 46, 0
4, 18193, Note_on_c, 9, 53, 0
4, 18971, Note_on_c, 9, 53, 64
4, 19077, Note_on_c, 9, 53, 0
4, 19380, Note_on_c, 9, 59, 87
4, 19736, Note_on_c, 9, 59, 0
4, 20236, Note_on_c, 9, 53, 59
4, 20257, Note_on_c, 9, 44, 51
4, 20387, Note_on_c, 9, 53, 0
4, 20447, Note_on_c, 9, 44, 0
4, 21217, Note_on_c, 9, 51, 74
4, 21491, Note_on_c, 9, 51, 0
4, 22092, Note_on_c, 9, 44, 54
4, 22466, Note_on_c, 9, 44, 0
4, 22802, Note_on_c, 9, 38, 49
4, 22950, Note_on_c, 9, 38, 0
4, 23152, Note_on_c, 9, 38, 42
4, 23157, Note_on_c, 9, 51, 99
4, 23590, Note_on_c, 9, 38, 0
4, 23696, Note_on_c, 9, 51, 0
4, 23722, Note_on_c, 9, 36, 47
4, 23984, Note_on_c, 9, 36, 0
4, 25044, Note_on_c, 9, 51, 83
4, 25070, Note_on_c, 9, 36, 34
4, 25224, Note_on_c, 9, 36, 0
4, 25303, Note_on_c, 9, 51, 0
4, 25905, Note_on_c, 9, 46, 45
4, 26311, Note_on_c, 9, 46, 0
4, 26584, Note_on_c, 9, 51, 101
4, 26769, Note_on_c, 9, 51, 0
4, 26990, Note_on_c, 9, 51, 99
4, 27323, Note_on_c, 9, 51, 0
4, 27932, Note_on_c, 9, 44, 55
4, 28249, Note_on_c, 9, 44, 0
4, 28568, Note_on_c, 9, 51, 97
4, 28748, Note_on_c, 9, 51, 0
4, 28957, Note_on_c, 9, 51, 97
4, 29227, Note_on_c, 9, 51, 0
4, 29482, Note_on_c, 9, 37, 38
4, 29696, Note_on_c, 9, 37, 0
4, 29884, Note_on_c, 9, 37, 41
4, 29885, Note_on_c, 9, 44, 34
4, 30312, Note_on_c, 9, 37, 0
4, 30406, Note_on_c, 9, 44, 0
4, 30490, Note_on_c, 9, 36, 56
4, 30543, Note_on_c, 9, 51, 64
4, 30643, Note_on_c, 9, 51, 0
4, 30684, Note_on_c, 9, 36, 0
4, 30891, Note_on_c, 9, 51, 94
4, 31115, Note_on_c, 9, 51, 0
4, 31806, Note_on_c, 9, 51, 112
4, 32831, Note_on_c, 9, 51, 0
4, 33649, Note_on_c, 9, 51, 109
4, 33888, Note_on_c, 9, 51, 0
4, 34002, Note_on_c, 9, 38, 54
4, 34078, Note_on_c, 9, 38, 0
4, 34312, Note_on_c, 9, 38, 53
4, 34474, Note_on_c, 9, 38, 0
4, 34606, Note_on_c, 9, 51, 112
4, 34682, Note_on_c, 9, 36, 37
4, 34900, Note_on_c, 9, 36, 0
4, 35130, Note_on_c, 9, 51, 0
4, 35614, Note_on_c, 9, 36, 41
4, 35972, Note_on_c, 9, 36, 0
4, 37156, Note_on_c, 9, 51, 53
4, 37256, Note_on_c, 9, 51, 0
4, 37439, Note_on_c, 9, 44, 42
4, 37468, Note_on_c, 9, 53, 97
4, 37848, Note_on_c, 9, 44, 0
4, 39526, Note_on_c, 9, 53, 0
4, 39929, Note_on_c, 9, 51, 53
4, 40029, Note_on_c, 9, 51, 0
4, 40370, Note_on_c, 9, 53, 47
4, 40606, Note_on_c, 9, 53, 0
4, 40871, Note_on_c, 9, 53, 73
4, 41139, Note_on_c, 9, 53, 0
4, 41290, Note_on_c, 9, 44, 42
4, 41357, Note_on_c, 9, 53, 67
4, 41586, Note_on_c, 9, 53, 0
4, 41713, Note_on_c, 9, 44, 0
4, 41887, Note_on_c, 9, 53, 60
4, 42110, Note_on_c, 9, 53, 0
4, 42272, Note_on_c, 9, 44, 45
4, 42284, Note_on_c, 9, 53, 86
4, 42511, Note_on_c, 9, 53, 0
4, 42906, Note_on_c, 9, 44, 0
4, 43191, Note_on_c, 9, 51, 68
4, 43473, Note_on_c, 9, 51, 0
4, 44190, Note_on_c, 9, 44, 45
4, 44195, Note_on_c, 9, 51, 77
4, 44451, Note_on_c, 9, 51, 0
4, 44660, Note_on_c, 9, 44, 0
4, 44796, Note_on_c, 9, 38, 46
4, 44866, Note_on_c, 9, 38, 0
4, 45187, Note_on_c, 9, 44, 44
4, 45202, Note_on_c, 9, 51, 83
4, 45608, Note_on_c, 9, 51, 0
4, 45716, Note_on_c, 9, 44, 0
4, 45772, Note_on_c, 9, 38, 51
4, 45844, Note_on_c, 9, 38, 0
4, 46730, Note_on_c, 9, 38, 50
4, 46810, Note_on_c, 9, 38, 0
4, 46833, Note_on_c, 9, 59, 105
4, 47007, Note_on_c, 9, 44, 41
4, 47086, Note_on_c, 9, 59, 0
4, 47358, Note_on_c, 9, 44, 0
4, 47682, Note_on_c, 9, 38, 51
4, 47758, Note_on_c, 9, 38, 0
4, 47763, Note_on_c, 9, 59, 91
4, 47889, Note_on_c, 9, 59, 0
4, 48272, Note_on_c, 9, 59, 102
4, 48598, Note_on_c, 9, 38, 63
4, 48655, Note_on_c, 9, 59, 0
4, 48666, Note_on_c, 9, 38, 0
4, 49011, Note_on_c, 9, 51, 37
4, 49202, Note_on_c, 9, 51, 0
4, 49520, Note_on_c, 9, 38, 57
4, 49644, Note_on_c, 9, 59, 110
4, 49706, Note_on_c, 9, 38, 0
4, 49852, Note_on_c, 9, 57, 54
4, 49902, Note_on_c, 9, 36, 49
4, 49956, Note_on_c, 9, 59, 0
4, 50592, Note_on_c, 9, 59, 93
4, 50716, Note_on_c, 9, 59, 0
4, 50851, Note_on_c, 9, 46, 48
4, 51034, Note_on_c, 9, 59, 114
4, 51422, Note_on_c, 9, 59, 0
4, 51486, Note_on_c, 9, 57, 0
4, 52390, Note_on_c, 9, 36, 0
4, 52512, Note_on_c, 9, 59, 110
4, 52703, Note_on_c, 9, 59, 0
4, 52928, Note_on_c, 9, 46, 0
4, 53442, Note_on_c, 9, 59, 106
4, 53621, Note_on_c, 9, 59, 0
4, 53886, Note_on_c, 9, 59, 97
4, 54119, Note_on_c, 9, 59, 0
4, 54419, Note_on_c, 9, 51, 84
4, 54793, Note_on_c, 9, 51, 0
4, 54852, Note_on_c, 9, 46, 56
4, 55422, Note_on_c, 9, 46, 0
4, 55503, Note_on_c, 9, 51, 96
4, 55832, Note_on_c, 9, 51, 0
4, 56477, Note_on_c, 9, 51, 91
4, 56735, Note_on_c, 9, 44, 44
4, 56751, Note_on_c, 9, 51, 0
4, 56768, Note_on_c, 9, 37, 27
4, 57012, Note_on_c, 9, 44, 0
4, 57126, Note_on_c, 9, 37, 0
4, 57304, Note_on_c, 9, 51, 89
4, 57334, Note_on_c, 9, 37, 49
4, 57488, Note_on_c, 9, 37, 0
4, 57540, Note_on_c, 9, 51, 0
4, 57723, Note_on_c, 9, 44, 51
4, 57775, Note_on_c, 9, 59, 87
4, 57793, Note_on_c, 9, 53, 70
4, 58106, Note_on_c, 9, 44, 0
4, 58146, Note_on_c, 9, 53, 0
4, 58205, Note_on_c, 9, 59, 0
4, 58250, Note_on_c, 9, 37, 42
4, 58390, Note_on_c, 9, 37, 0
4, 58590, Note_on_c, 9, 37, 54
4, 58670, Note_on_c, 9, 53, 42
4, 58751, Note_on_c, 9, 44, 53
4, 58782, Note_on_c, 9, 53, 0
4, 59024, Note_on_c, 9, 37, 0
4, 59039, Note_on_c, 9, 44, 0
4, 59197, Note_on_c, 9, 59, 90
4, 59206, Note_on_c, 9, 37, 44
4, 59215, Note_on_c, 9, 53, 77
4, 59356, Note_on_c, 9, 37, 0
4, 59528, Note_on_c, 9, 37, 52
4, 59676, Note_on_c, 9, 46, 49
4, 59733, Note_on_c, 9, 59, 0
4, 59736, Note_on_c, 9, 53, 0
4, 59860, Note_on_c, 9, 37, 0
4, 60024, Note_on_c, 9, 46, 0
4, 60649, Note_on_c, 9, 59, 100
4, 60666, Note_on_c, 9, 53, 77
4, 60931, Note_on_c, 9, 53, 0
4, 61102, Note_on_c, 9, 59, 0
4, 62100, Note_on_c, 9, 59, 99
4, 62118, Note_on_c, 9, 53, 77
4, 62283, Note_on_c, 9, 53, 0
4, 62374, Note_on_c, 9, 59, 0
4, 62415, Note_on_c, 9, 44, 59
4, 62760, Note_on_c, 9, 44, 0
4, 62892, Note_on_c, 9, 51, 72
4, 63104, Note_on_c, 9, 51, 0
4, 63122, Note_on_c, 9, 37, 63
4, 63206, Note_on_c, 9, 37, 0
4, 63366, Note_on_c, 9, 59, 93
4, 63375, Note_on_c, 9, 53, 79
4, 63432, Note_on_c, 9, 37, 54
4, 63502, Note_on_c, 9, 37, 0
4, 63778, Note_on_c, 9, 53, 0
4, 63805, Note_on_c, 9, 59, 0
4, 64074, Note_on_c, 9, 36, 59
4, 64158, Note_on_c, 9, 36, 0
4, 64311, Note_on_c, 9, 53, 77
4, 64311, Note_on_c, 9, 59, 94
4, 64393, Note_on_c, 9, 44, 51
4, 64670, Note_on_c, 9, 53, 0
4, 64762, Note_on_c, 9, 44, 0
4, 64764, Note_on_c, 9, 59, 0
4, 65038, Note_on_c, 9, 36, 50
4, 65128, Note_on_c, 9, 36, 0
4, 65400, Note_on_c, 9, 57, 59
4, 65402, Note_on_c, 9, 36, 68
4, 66314, Note_on_c, 9, 44, 61
4, 66712, Note_on_c, 9, 44, 0
4, 67018, Note_on_c, 9, 57, 0
4, 68070, Note_on_c, 9, 36, 0
4, 68209, Note_on_c, 9, 44, 52
4, 68549, Note_on_c, 9, 44, 0
4, 68776, Note_on_c, 9, 38, 58
4, 68982, Note_on_c, 9, 38, 0
4, 69136, Note_on_c, 9, 59, 76
4, 69138, Note_on_c, 9, 57, 42
4, 69150, Note_on_c, 9, 36, 60
4, 69248, Note_on_c, 9, 59, 0
4, 69707, Note_on_c, 9, 59, 75
4, 69890, Note_on_c, 9, 59, 0
4, 70134, Note_on_c, 9, 59, 70
4, 70252, Note_on_c, 9, 59, 0
4, 70673, Note_on_c, 9, 59, 82
4, 70734, Note_on_c, 9, 57, 0
4, 70900, Note_on_c, 9, 59, 0
4, 71082, Note_on_c, 9, 59, 93
4, 71166, Note_on_c, 9, 36, 0
4, 71318, Note_on_c, 9, 59, 0
4, 71956, Note_on_c, 9, 44, 67
4, 71980, Note_on_c, 9, 51, 86
4, 72247, Note_on_c, 9, 44, 0
4, 72434, Note_on_c, 9, 51, 0
4, 73900, Note_on_c, 9, 44, 55
4, 74280, Note_on_c, 9, 44, 0
4, 74874, Note_on_c, 9, 44, 50
4, 75349, Note_on_c, 9, 44, 0
4, 75463, Note_on_c, 9, 53, 59
4, 75575, Note_on_c, 9, 53, 0
4, 75919, Note_on_c, 9, 53, 53
4, 76119, Note_on_c, 9, 53, 0
4, 76346, Note_on_c, 9, 51, 49
4, 76579, Note_on_c, 9, 51, 0
4, 76855, Note_on_c, 9, 53, 55
4, 77017, Note_on_c, 9, 53, 0
4, 77438, Note_on_c, 9, 53, 70
4, 77539, Note_on_c, 9, 53, 0
4, 77779, Note_on_c, 9, 44, 59
4, 78183, Note_on_c, 9, 44, 0
4, 78776, Note_on_c, 9, 38, 57
4, 78852, Note_on_c, 9, 38, 0
4, 79352, Note_on_c, 9, 51, 68
4, 79396, Note_on_c, 9, 38, 34
4, 79472, Note_on_c, 9, 38, 0
4, 79505, Note_on_c, 9, 51, 0
4, 79726, Note_on_c, 9, 44, 54
4, 79782, Note_on_c, 9, 53, 62
4, 79967, Note_on_c, 9, 53, 0
4, 80159, Note_on_c, 9, 44, 0
4, 80240, Note_on_c, 9, 38, 50
4, 80329, Note_on_c, 9, 53, 62
4, 80344, Note_on_c, 9, 38, 0
4, 80547, Note_on_c, 9, 53, 0
4, 81200, Note_on_c, 9, 38, 51
4, 81272, Note_on_c, 9, 38, 0
4, 81549, Note_on_c, 9, 44, 54
4, 81953, Note_on_c, 9, 44, 0
4, 82190, Note_on_c, 9, 36, 56
4, 82211, Note_on_c, 9, 51, 52
4, 82324, Note_on_c, 9, 36, 0
4, 82325, Note_on_c, 9, 51, 0
4, 82568, Note_on_c, 9, 36, 49
4, 82629, Note_on_c, 9, 53, 60
4, 82911, Note_on_c, 9, 53, 0
4, 83030, Note_on_c, 9, 36, 0
4, 83502, Note_on_c, 9, 46, 54
4, 83538, Note_on_c, 9, 46, 63
4, 83871, Note_on_c, 9, 46, 0
4, 84147, Note_on_c, 9, 46, 0
4, 85397, Note_on_c, 9, 44, 58
4, 85763, Note_on_c, 9, 44, 0
4, 85970, Note_on_c, 9, 51, 49
4, 86070, Note_on_c, 9, 51, 0
4, 86429, Note_on_c, 9, 53, 70
4, 86650, Note_on_c, 9, 53, 0
4, 86968, Note_on_c, 9, 53, 66
4, 87115, Note_on_c, 9, 53, 0
4, 87371, Note_on_c, 9, 53, 73
4, 87604, Note_on_c, 9, 53, 0
4, 87869, Note_on_c, 9, 53, 75
4, 88090, Note_on_c, 9, 53, 0
4, 88305, Note_on_c, 9, 53, 80
4, 88587, Note_on_c, 9, 53, 0
4, 89291, Note_on_c, 9, 51, 62
4, 89311, Note_on_c, 9, 44, 52
4, 89547, Note_on_c, 9, 51, 0
4, 89726, Note_on_c, 9, 44, 0
4, 91212, Note_on_c, 9, 44, 57
4, 91216, Note_on_c, 9, 59, 82
4, 91252, Note_on_c, 9, 51, 61
4, 91313, Note_on_c, 9, 53, 35
4, 91581, Note_on_c, 9, 59, 0
4, 91612, Note_on_c, 9, 44, 0
4, 91646, Note_on_c, 9, 51, 0
4, 91673, Note_on_c, 9, 53, 0
4, 93124, Note_on_c, 9, 44, 62
4, 93473, Note_on_c, 9, 44, 0
4, 94131, Note_on_c, 9, 59, 87
4, 94137, Note_on_c, 9, 51, 67
4, 94222, Note_on_c, 9, 53, 31
4, 94331, Note_on_c, 9, 53, 0
4, 94340, Note_on_c, 9, 59, 0
4, 94384, Note_on_c, 9, 51, 0
4, 95008, Note_on_c, 9, 44, 64
4, 95061, Note_on_c, 9, 51, 56
4, 95064, Note_on_c, 9, 53, 51
4, 95070, Note_on_c, 9, 59, 93
4, 95168, Note_on_c, 9, 38, 53
4, 95232, Note_on_c, 9, 53, 0
4, 95294, Note_on_c, 9, 38, 0
4, 95300, Note_on_c, 9, 59, 0
4, 95350, Note_on_c, 9, 51, 0
4, 95396, Note_on_c, 9, 44, 0
4, 95686, Note_on_c, 9, 38, 64
4, 95900, Note_on_c, 9, 38, 0
4, 96074, Note_on_c, 9, 36, 47
4, 96452, Note_on_c, 9, 36, 0
4, 96934, Note_on_c, 9, 44, 57
4, 97335, Note_on_c, 9, 44, 0
4, 97611, Note_on_c, 9, 59, 72
4, 97723, Note_on_c, 9, 59, 0
4, 98035, Note_on_c, 9, 59, 72
4, 98338, Note_on_c, 9, 59, 0
4, 98510, Note_on_c, 9, 38, 52
4, 98790, Note_on_c, 9, 38, 0
4, 98985, Note_on_c, 9, 44, 56
4, 99083, Note_on_c, 9, 44, 0
4, 99458, Note_on_c, 9, 38, 54
4, 99474, Note_on_c, 9, 59, 64
4, 99595, Note_on_c, 9, 59, 0
4, 99692, Note_on_c, 9, 38, 0
4, 99860, Note_on_c, 9, 59, 79
4, 100145, Note_on_c, 9, 59, 0
4, 100378, Note_on_c, 9, 38, 56
4, 100588, Note_on_c, 9, 38, 0
4, 100808, Note_on_c, 9, 36, 46
4, 101218, Note_on_c, 9, 36, 0
4, 102365, Note_on_c, 9, 51, 77
4, 102604, Note_on_c, 9, 51, 0
4, 103711, Note_on_c, 9, 51, 73
4, 104064, Note_on_c, 9, 51, 0
4, 105147, Note_on_c, 9, 59, 81
4, 105333, Note_on_c, 9, 59, 0
4, 105595, Note_on_c, 9, 59, 82
4, 105969, Note_on_c, 9, 59, 0
4, 106502, Note_on_c, 9, 44, 63
4, 106540, Note_on_c, 9, 51, 74
4, 106861, Note_on_c, 9, 51, 0
4, 106954, Note_on_c, 9, 44, 0
4, 108975, Note_on_c, 9, 59, 78
4, 109154, Note_on_c, 9, 59, 0
4, 109419, Note_on_c, 9, 59, 82
4, 109814, Note_on_c, 9, 59, 0
4, 110061, Note_on_c, 9, 51, 108
4, 110471, Note_on_c, 9, 44, 68
4, 110494, Note_on_c, 9, 51, 0
4, 110874, Note_on_c, 9, 44, 0
4, 111465, Note_on_c, 9, 51, 101
4, 111871, Note_on_c, 9, 51, 0
4, 113620, Note_on_c, 9, 59, 55
4, 113726, Note_on_c, 9, 59, 0
4, 113926, Note_on_c, 9, 38, 49
4, 114104, Note_on_c, 9, 38, 0
4, 114118, Note_on_c, 9, 59, 92
4, 114227, Note_on_c, 9, 59, 0
4, 114272, Note_on_c, 9, 38, 42
4, 114295, Note_on_c, 9, 44, 69
4, 114470, Note_on_c, 9, 38, 0
4, 114615, Note_on_c, 9, 44, 0
4, 114970, Note_on_c, 9, 38, 44
4, 115004, Note_on_c, 9, 59, 102
4, 115120, Note_on_c, 9, 38, 0
4, 115219, Note_on_c, 9, 59, 0
4, 115330, Note_on_c, 9, 38, 42
4, 115760, Note_on_c, 9, 38, 0
4, 115837, Note_on_c, 9, 59, 70
4, 115938, Note_on_c, 9, 36, 49
4, 115952, Note_on_c, 9, 59, 0
4, 116082, Note_on_c, 9, 36, 0
4, 116199, Note_on_c, 9, 59, 84
4, 116225, Note_on_c, 9, 44, 64
4, 116336, Note_on_c, 9, 36, 41
4, 116393, Note_on_c, 9, 51, 84
4, 116405, Note_on_c, 9, 59, 0
4, 116605, Note_on_c, 9, 44, 0
4, 116696, Note_on_c, 9, 36, 0
4, 116886, Note_on_c, 9, 36, 55
4, 117038, Note_on_c, 9, 51, 0
4, 117174, Note_on_c, 9, 36, 0
4, 117751, Note_on_c, 9, 59, 82
4, 117886, Note_on_c, 9, 59, 0
4, 118172, Note_on_c, 9, 46, 55
4, 118575, Note_on_c, 9, 46, 0
4, 118616, Note_on_c, 9, 59, 98
4, 118784, Note_on_c, 9, 38, 47
4, 118825, Note_on_c, 9, 59, 0
4, 118854, Note_on_c, 9, 38, 0
4, 119022, Note_on_c, 9, 59, 91
4, 119240, Note_on_c, 9, 59, 0
4, 119758, Note_on_c, 9, 38, 55
4, 119832, Note_on_c, 9, 38, 0
4, 120102, Note_on_c, 9, 36, 33
4, 120104, Note_on_c, 9, 46, 58
4, 120522, Note_on_c, 9, 46, 0
4, 120526, Note_on_c, 9, 36, 0
4, 120674, Note_on_c, 9, 59, 87
4, 120774, Note_on_c, 9, 59, 0
4, 121548, Note_on_c, 9, 59, 78
4, 121690, Note_on_c, 9, 59, 0
4, 121976, Note_on_c, 9, 46, 66
4, 121984, Note_on_c, 9, 59, 87
4, 122220, Note_on_c, 9, 59, 0
4, 122448, Note_on_c, 9, 46, 0
4, 122550, Note_on_c, 9, 38, 58
4, 122632, Note_on_c, 9, 38, 0
4, 123504, Note_on_c, 9, 38, 54
4, 123556, Note_on_c, 9, 59, 92
4, 123576, Note_on_c, 9, 38, 0
4, 123777, Note_on_c, 9, 59, 0
4, 123816, Note_on_c, 9, 46, 70
4, 124289, Note_on_c, 9, 46, 0
4, 124466, Note_on_c, 9, 59, 85
4, 124514, Note_on_c, 9, 38, 50
4, 124608, Note_on_c, 9, 38, 0
4, 124672, Note_on_c, 9, 59, 0
4, 124875, Note_on_c, 9, 59, 99
4, 125161, Note_on_c, 9, 59, 0
4, 125408, Note_on_c, 9, 38, 71
4, 125580, Note_on_c, 9, 38, 0
4, 125779, Note_on_c, 9, 59, 115
4, 126360, Note_on_c, 9, 38, 73
4, 126438, Note_on_c, 9, 59, 0
4, 126524, Note_on_c, 9, 38, 0
4, 126702, Note_on_c, 9, 57, 66
4, 126714, Note_on_c, 9, 36, 82
4, 126753, Note_on_c, 9, 59, 67
4, 127236, Note_on_c, 9, 59, 0
4, 127704, Note_on_c, 9, 59, 112
4, 128219, Note_on_c, 9, 59, 0
4, 128732, Note_on_c, 9, 59, 97
4, 129000, Note_on_c, 9, 57, 0
4, 129080, Note_on_c, 9, 36, 0
4, 129102, Note_on_c, 9, 38, 68
4, 129153, Note_on_c, 9, 59, 0
4, 129188, Note_on_c, 9, 38, 0
4, 129372, Note_on_c, 9, 38, 58
4, 129516, Note_on_c, 9, 38, 0
4, 129594, Note_on_c, 9, 44, 80
4, 129703, Note_on_c, 9, 59, 99
4, 129720, Note_on_c, 9, 36, 60
4, 129732, Note_on_c, 9, 57, 74
4, 129876, Note_on_c, 9, 44, 0
4, 130089, Note_on_c, 9, 59, 0
4, 130304, Note_on_c, 9, 59, 81
4, 130407, Note_on_c, 9, 59, 0
4, 130695, Note_on_c, 9, 59, 82
4, 131025, Note_on_c, 9, 59, 0
4, 131579, Note_on_c, 9, 59, 99
4, 131688, Note_on_c, 9, 57, 0
4, 131967, Note_on_c, 9, 59, 0
4, 132211, Note_on_c, 9, 59, 84
4, 132341, Note_on_c, 9, 59, 0
4, 132534, Note_on_c, 9, 36, 0
4, 132603, Note_on_c, 9, 59, 93
4, 132945, Note_on_c, 9, 59, 0
4, 133476, Note_on_c, 9, 44, 58
4, 133575, Note_on_c, 9, 59, 105
4, 133816, Note_on_c, 9, 44, 0
4, 134025, Note_on_c, 9, 59, 0
4, 134534, Note_on_c, 9, 59, 97
4, 134888, Note_on_c, 9, 59, 0
4, 135408, Note_on_c, 9, 44, 55
4, 135488, Note_on_c, 9, 59, 100
4, 135806, Note_on_c, 9, 44, 0
4, 135836, Note_on_c, 9, 59, 0
4, 136039, Note_on_c, 9, 59, 84
4, 136100, Note_on_c, 9, 65, 41
4, 136215, Note_on_c, 9, 65, 0
4, 136321, Note_on_c, 9, 59, 0
4, 136513, Note_on_c, 9, 59, 94
4, 136781, Note_on_c, 9, 59, 0
4, 137004, Note_on_c, 9, 38, 51
4, 137072, Note_on_c, 9, 38, 0
4, 137349, Note_on_c, 9, 59, 94
4, 137678, Note_on_c, 9, 59, 0
4, 138030, Note_on_c, 9, 38, 57
4, 138098, Note_on_c, 9, 38, 0
4, 138382, Note_on_c, 9, 59, 110
4, 138756, Note_on_c, 9, 59, 0
4, 138970, Note_on_c, 9, 38, 64
4, 139058, Note_on_c, 9, 38, 0
4, 139298, Note_on_c, 9, 59, 97
4, 139672, Note_on_c, 9, 59, 0
4, 139922, Note_on_c, 9, 59, 66
4, 139958, Note_on_c, 9, 38, 59
4, 140054, Note_on_c, 9, 59, 0
4, 140084, Note_on_c, 9, 38, 0
4, 140263, Note_on_c, 9, 59, 102
4, 140831, Note_on_c, 9, 59, 0
4, 140910, Note_on_c, 9, 36, 68
4, 141136, Note_on_c, 9, 36, 0
4, 141194, Note_on_c, 9, 44, 59
4, 141250, Note_on_c, 9, 59, 98
4, 141304, Note_on_c, 9, 36, 34
4, 141578, Note_on_c, 9, 36, 0
4, 141597, Note_on_c, 9, 44, 0
4, 141632, Note_on_c, 9, 59, 0
4, 141865, Note_on_c, 9, 59, 75
4, 141894, Note_on_c, 9, 36, 41
4, 141990, Note_on_c, 9, 36, 0
4, 142012, Note_on_c, 9, 59, 0
4, 142227, Note_on_c, 9, 59, 102
4, 142252, Note_on_c, 9, 38, 51
4, 142639, Note_on_c, 9, 59, 0
4, 142694, Note_on_c, 9, 38, 0
4, 142826, Note_on_c, 9, 36, 47
4, 143004, Note_on_c, 9, 36, 0
4, 143101, Note_on_c, 9, 44, 59
4, 143163, Note_on_c, 9, 59, 102
4, 143202, Note_on_c, 9, 38, 48
4, 143490, Note_on_c, 9, 59, 0
4, 143493, Note_on_c, 9, 44, 0
4, 143572, Note_on_c, 9, 38, 0
4, 143770, Note_on_c, 9, 36, 32
4, 143888, Note_on_c, 9, 36, 0
4, 144116, Note_on_c, 9, 36, 39
4, 144135, Note_on_c, 9, 59, 102
4, 144406, Note_on_c, 9, 59, 0
4, 144566, Note_on_c, 9, 36, 0
4, 144746, Note_on_c, 9, 36, 49
4, 144842, Note_on_c, 9, 36, 0
4, 145083, Note_on_c, 9, 59, 112
4, 145362, Note_on_c, 9, 59, 0
4, 145707, Note_on_c, 9, 59, 61
4, 145822, Note_on_c, 9, 59, 0
4, 146057, Note_on_c, 9, 59, 91
4, 146278, Note_on_c, 9, 59, 0
4, 146958, Note_on_c, 9, 59, 111
4, 147249, Note_on_c, 9, 59, 0
4, 147579, Note_on_c, 9, 59, 64
4, 147712, Note_on_c, 9, 59, 0
4, 147968, Note_on_c, 9, 59, 91
4, 148212, Note_on_c, 9, 59, 0
4, 148877, Note_on_c, 9, 59, 115
4, 148936, Note_on_c, 9, 44, 67
4, 149154, Note_on_c, 9, 59, 0
4, 149307, Note_on_c, 9, 44, 0
4, 149837, Note_on_c, 9, 59, 115
4, 150202, Note_on_c, 9, 59, 0
4, 150788, Note_on_c, 9, 59, 105
4, 151241, Note_on_c, 9, 59, 0
4, 151736, Note_on_c, 9, 59, 108
4, 151827, Note_on_c, 9, 44, 58
4, 152181, Note_on_c, 9, 59, 0
4, 152219, Note_on_c, 9, 44, 0
4, 152683, Note_on_c, 9, 44, 65
4, 152719, Note_on_c, 9, 59, 97
4, 153023, Note_on_c, 9, 59, 0
4, 153060, Note_on_c, 9, 44, 0
4, 153709, Note_on_c, 9, 59, 111
4, 154041, Note_on_c, 9, 59, 0
4, 154262, Note_on_c, 9, 59, 86
4, 154474, Note_on_c, 9, 59, 0
4, 154584, Note_on_c, 9, 44, 54
4, 154659, Note_on_c, 9, 59, 106
4, 154969, Note_on_c, 9, 44, 0
4, 155234, Note_on_c, 9, 59, 0
4, 155631, Note_on_c, 9, 59, 105
4, 156152, Note_on_c, 9, 59, 0
4, 156182, Note_on_c, 9, 38, 31
4, 156256, Note_on_c, 9, 38, 0
4, 156561, Note_on_c, 9, 59, 105
4, 156921, Note_on_c, 9, 59, 0
4, 157118, Note_on_c, 9, 38, 48
4, 157159, Note_on_c, 9, 59, 79
4, 157212, Note_on_c, 9, 38, 0
4, 157383, Note_on_c, 9, 59, 0
4, 157536, Note_on_c, 9, 36, 28
4, 157553, Note_on_c, 9, 59, 106
4, 157676, Note_on_c, 9, 36, 0
4, 158036, Note_on_c, 9, 59, 0
4, 158152, Note_on_c, 9, 36, 42
4, 158428, Note_on_c, 9, 36, 0
4, 158451, Note_on_c, 9, 44, 62
4, 158507, Note_on_c, 9, 59, 106
4, 158716, Note_on_c, 9, 44, 0
4, 158940, Note_on_c, 9, 59, 0
4, 159129, Note_on_c, 9, 59, 91
4, 159346, Note_on_c, 9, 59, 0
4, 159424, Note_on_c, 9, 36, 39
4, 159485, Note_on_c, 9, 59, 110
4, 159756, Note_on_c, 9, 36, 0
4, 159912, Note_on_c, 9, 59, 0
4, 160292, Note_on_c, 9, 46, 43
4, 160430, Note_on_c, 9, 59, 102
4, 160574, Note_on_c, 9, 46, 0
4, 160703, Note_on_c, 9, 59, 0
4, 161063, Note_on_c, 9, 59, 104
4, 161493, Note_on_c, 9, 59, 0
4, 161937, Note_on_c, 9, 59, 82
4, 162043, Note_on_c, 9, 59, 0
4, 162355, Note_on_c, 9, 59, 98
4, 162979, Note_on_c, 9, 59, 0
4, 163318, Note_on_c, 9, 59, 87
4, 163639, Note_on_c, 9, 59, 0
4, 163854, Note_on_c, 9, 59, 99
4, 164165, Note_on_c, 9, 44, 48
4, 164517, Note_on_c, 9, 44, 0
4, 164566, Note_on_c, 9, 59, 0
4, 165199, Note_on_c, 9, 59, 106
4, 165741, Note_on_c, 9, 59, 0
4, 166162, Note_on_c, 9, 59, 105
4, 166565, Note_on_c, 9, 59, 0
4, 166748, Note_on_c, 9, 59, 87
4, 166915, Note_on_c, 9, 59, 0
4, 167142, Note_on_c, 9, 59, 103
4, 167740, Note_on_c, 9, 59, 0
4, 168026, Note_on_c, 9, 37, 89
4, 168042, Note_on_c, 9, 44, 58
4, 168140, Note_on_c, 9, 59, 104
4, 168352, Note_on_c, 9, 37, 0
4, 168445, Note_on_c, 9, 44, 0
4, 168644, Note_on_c, 9, 59, 0
4, 169097, Note_on_c, 9, 59, 116
4, 169653, Note_on_c, 9, 59, 0
4, 169948, Note_on_c, 9, 44, 50
4, 170051, Note_on_c, 9, 59, 102
4, 170349, Note_on_c, 9, 44, 0
4, 170448, Note_on_c, 9, 59, 0
4, 170648, Note_on_c, 9, 59, 86
4, 170757, Note_on_c, 9, 59, 0
4, 170993, Note_on_c, 9, 59, 99
4, 171635, Note_on_c, 9, 59, 0
4, 171766, Note_on_c, 9, 44, 43
4, 171836, Note_on_c, 9, 37, 85
4, 171891, Note_on_c, 9, 59, 87
4, 172198, Note_on_c, 9, 37, 0
4, 172247, Note_on_c, 9, 44, 0
4, 172335, Note_on_c, 9, 59, 0
4, 172464, Note_on_c, 9, 36, 44
4, 172550, Note_on_c, 9, 59, 80
4, 172620, Note_on_c, 9, 36, 0
4, 172650, Note_on_c, 9, 59, 0
4, 172846, Note_on_c, 9, 36, 33
4, 172895, Note_on_c, 9, 59, 94
4, 173144, Note_on_c, 9, 36, 0
4, 173404, Note_on_c, 9, 59, 0
4, 173866, Note_on_c, 9, 59, 108
4, 174237, Note_on_c, 9, 59, 0
4, 174437, Note_on_c, 9, 59, 87
4, 174667, Note_on_c, 9, 59, 0
4, 174846, Note_on_c, 9, 59, 102
4, 175064, Note_on_c, 9, 59, 0
4, 175753, Note_on_c, 9, 59, 124
4, 175768, Note_on_c, 9, 37, 97
4, 176170, Note_on_c, 9, 37, 0
4, 176333, Note_on_c, 9, 59, 0
4, 177284, Note_on_c, 9, 59, 112
4, 177467, Note_on_c, 9, 59, 0
4, 177690, Note_on_c, 9, 44, 55
4, 177696, Note_on_c, 9, 59, 87
4, 178102, Note_on_c, 9, 44, 0
4, 178300, Note_on_c, 9, 59, 0
4, 178666, Note_on_c, 9, 44, 56
4, 178697, Note_on_c, 9, 59, 110
4, 179204, Note_on_c, 9, 59, 0
4, 179242, Note_on_c, 9, 44, 0
4, 179594, Note_on_c, 9, 37, 97
4, 179619, Note_on_c, 9, 59, 51
4, 179781, Note_on_c, 9, 59, 0
4, 180054, Note_on_c, 9, 37, 0
4, 180202, Note_on_c, 9, 59, 112
4, 180420, Note_on_c, 9, 59, 0
4, 180544, Note_on_c, 9, 44, 70
4, 180631, Note_on_c, 9, 59, 103
4, 180884, Note_on_c, 9, 44, 0
4, 181179, Note_on_c, 9, 59, 0
4, 181541, Note_on_c, 9, 59, 90
4, 181549, Note_on_c, 9, 44, 65
4, 182056, Note_on_c, 9, 59, 0
4, 182067, Note_on_c, 9, 44, 0
4, 182469, Note_on_c, 9, 59, 66
4, 182577, Note_on_c, 9, 59, 0
4, 183072, Note_on_c, 9, 59, 112
4, 183319, Note_on_c, 9, 59, 0
4, 183508, Note_on_c, 9, 59, 97
4, 183796, Note_on_c, 9, 59, 0
4, 184389, Note_on_c, 9, 44, 66
4, 184435, Note_on_c, 9, 59, 105
4, 184852, Note_on_c, 9, 44, 0
4, 184862, Note_on_c, 9, 59, 0
4, 185312, Note_on_c, 9, 53, 80
4, 185368, Note_on_c, 9, 44, 67
4, 185554, Note_on_c, 9, 53, 0
4, 185794, Note_on_c, 9, 44, 0
4, 185931, Note_on_c, 9, 59, 105
4, 186287, Note_on_c, 9, 59, 0
4, 186474, Note_on_c, 9, 44, 83
4, 186879, Note_on_c, 9, 53, 81
4, 187015, Note_on_c, 9, 44, 0
4, 187105, Note_on_c, 9, 53, 0
4, 187244, Note_on_c, 9, 37, 88
4, 187320, Note_on_c, 9, 59, 112
4, 187554, Note_on_c, 9, 37, 0
4, 187908, Note_on_c, 9, 36, 18
4, 187912, Note_on_c, 9, 59, 0
4, 188120, Note_on_c, 9, 36, 0
4, 188236, Note_on_c, 9, 44, 75
4, 188242, Note_on_c, 9, 59, 51
4, 188318, Note_on_c, 9, 36, 55
4, 188495, Note_on_c, 9, 59, 0
4, 188585, Note_on_c, 9, 44, 0
4, 188792, Note_on_c, 9, 36, 0
4, 188881, Note_on_c, 9, 59, 105
4, 188957, Note_on_c, 9, 53, 72
4, 189057, Note_on_c, 9, 53, 0
4, 189204, Note_on_c, 9, 44, 76
4, 189637, Note_on_c, 9, 59, 0
4, 189650, Note_on_c, 9, 44, 0
4, 189790, Note_on_c, 9, 59, 70
4, 189917, Note_on_c, 9, 59, 0
4, 190305, Note_on_c, 9, 59, 93
4, 190320, Note_on_c, 9, 53, 79
4, 190556, Note_on_c, 9, 53, 0
4, 190734, Note_on_c, 9, 37, 70
4, 190888, Note_on_c, 9, 59, 0
4, 190908, Note_on_c, 9, 37, 0
4, 191086, Note_on_c, 9, 59, 82
4, 191140, Note_on_c, 9, 36, 31
4, 191264, Note_on_c, 9, 36, 0
4, 191321, Note_on_c, 9, 59, 0
4, 191707, Note_on_c, 9, 59, 94
4, 191752, Note_on_c, 9, 36, 53
4, 191860, Note_on_c, 9, 36, 0
4, 192134, Note_on_c, 9, 59, 0
4, 192605, Note_on_c, 9, 59, 75
4, 192714, Note_on_c, 9, 59, 0
4, 192922, Note_on_c, 9, 44, 68
4, 193032, Note_on_c, 9, 59, 88
4, 193247, Note_on_c, 9, 44, 0
4, 193517, Note_on_c, 9, 59, 0
4, 193980, Note_on_c, 9, 59, 106
4, 194389, Note_on_c, 9, 59, 0
4, 194610, Note_on_c, 9, 59, 88
4, 194840, Note_on_c, 9, 46, 49
4, 194860, Note_on_c, 9, 59, 0
4, 194926, Note_on_c, 9, 38, 32
4, 194998, Note_on_c, 9, 59, 98
4, 195226, Note_on_c, 9, 46, 0
4, 195348, Note_on_c, 9, 38, 0
4, 195522, Note_on_c, 9, 59, 0
4, 195546, Note_on_c, 9, 38, 46
4, 195788, Note_on_c, 9, 38, 0
4, 195923, Note_on_c, 9, 59, 108
4, 195942, Note_on_c, 9, 38, 37
4, 196272, Note_on_c, 9, 38, 0
4, 196444, Note_on_c, 9, 59, 0
4, 196520, Note_on_c, 9, 36, 42
4, 196696, Note_on_c, 9, 36, 0
4, 196891, Note_on_c, 9, 59, 106
4, 197289, Note_on_c, 9, 59, 0
4, 197488, Note_on_c, 9, 38, 56
4, 197495, Note_on_c, 9, 59, 82
4, 197601, Note_on_c, 9, 59, 0
4, 197871, Note_on_c, 9, 59, 91
4, 197992, Note_on_c, 9, 38, 0
4, 198334, Note_on_c, 9, 59, 0
4, 198430, Note_on_c, 9, 38, 51
4, 198660, Note_on_c, 9, 38, 0
4, 198783, Note_on_c, 9, 44, 55
4, 198796, Note_on_c, 9, 59, 111
4, 198846, Note_on_c, 9, 38, 40
4, 199062, Note_on_c, 9, 44, 0
4, 199276, Note_on_c, 9, 38, 0
4, 199376, Note_on_c, 9, 59, 0
4, 199422, Note_on_c, 9, 36, 46
4, 199638, Note_on_c, 9, 36, 0
4, 199732, Note_on_c, 9, 59, 63
4, 199900, Note_on_c, 9, 59, 0
4, 200365, Note_on_c, 9, 59, 116
4, 200661, Note_on_c, 9, 44, 56
4, 200910, Note_on_c, 9, 59, 0
4, 200978, Note_on_c, 9, 44, 0
4, 201404, Note_on_c, 9, 59, 75
4, 201504, Note_on_c, 9, 59, 0
4, 201846, Note_on_c, 9, 59, 97
4, 202254, Note_on_c, 9, 38, 50
4, 202282, Note_on_c, 9, 59, 0
4, 202322, Note_on_c, 9, 38, 0
4, 202676, Note_on_c, 9, 59, 70
4, 202803, Note_on_c, 9, 59, 0
4, 203210, Note_on_c, 9, 38, 60
4, 203294, Note_on_c, 9, 59, 103
4, 203382, Note_on_c, 9, 38, 0
4, 203495, Note_on_c, 9, 59, 0
4, 203692, Note_on_c, 9, 59, 102
4, 204136, Note_on_c, 9, 59, 0
4, 204200, Note_on_c, 9, 38, 48
4, 204388, Note_on_c, 9, 38, 0
4, 204468, Note_on_c, 9, 44, 44
4, 204593, Note_on_c, 9, 59, 104
4, 204785, Note_on_c, 9, 44, 0
4, 204940, Note_on_c, 9, 59, 0
4, 205184, Note_on_c, 9, 59, 80
4, 205224, Note_on_c, 9, 38, 50
4, 205390, Note_on_c, 9, 38, 0
4, 205417, Note_on_c, 9, 59, 0
4, 205605, Note_on_c, 9, 59, 99
4, 206038, Note_on_c, 9, 59, 0
4, 206206, Note_on_c, 9, 36, 61
4, 206415, Note_on_c, 9, 44, 59
4, 206512, Note_on_c, 9, 59, 110
4, 206586, Note_on_c, 9, 36, 0
4, 206735, Note_on_c, 9, 44, 0
4, 206857, Note_on_c, 9, 59, 0
4, 207089, Note_on_c, 9, 59, 82
4, 207245, Note_on_c, 9, 59, 0
4, 207475, Note_on_c, 9, 59, 102
4, 207908, Note_on_c, 9, 59, 0
4, 208370, Note_on_c, 9, 59, 115
4, 208806, Note_on_c, 9, 59, 0
4, 209232, Note_on_c, 9, 44, 59
4, 209312, Note_on_c, 9, 59, 102
4, 209543, Note_on_c, 9, 44, 0
4, 209700, Note_on_c, 9, 59, 0
4, 210225, Note_on_c, 9, 59, 102
4, 210274, Note_on_c, 9, 44, 55
4, 210622, Note_on_c, 9, 59, 0
4, 210686, Note_on_c, 9, 44, 0
4, 210913, Note_on_c, 9, 59, 67
4, 211072, Note_on_c, 9, 59, 0
4, 211273, Note_on_c, 9, 59, 98
4, 211667, Note_on_c, 9, 59, 0
4, 212159, Note_on_c, 9, 59, 114
4, 212521, Note_on_c, 9, 59, 0
4, 212786, Note_on_c, 9, 59, 82
4, 213012, Note_on_c, 9, 59, 0
4, 213183, Note_on_c, 9, 59, 99
4, 213416, Note_on_c, 9, 59, 0
4, 213786, Note_on_c, 9, 38, 44
4, 213888, Note_on_c, 9, 38, 0
4, 214084, Note_on_c, 9, 44, 61
4, 214114, Note_on_c, 9, 59, 111
4, 214206, Note_on_c, 9, 38, 33
4, 214430, Note_on_c, 9, 38, 0
4, 214514, Note_on_c, 9, 59, 0
4, 214519, Note_on_c, 9, 44, 0
4, 214717, Note_on_c, 9, 59, 78
4, 214823, Note_on_c, 9, 59, 0
4, 214844, Note_on_c, 9, 36, 37
4, 214956, Note_on_c, 9, 36, 0
4, 215117, Note_on_c, 9, 59, 81
4, 215176, Note_on_c, 9, 38, 42
4, 215509, Note_on_c, 9, 59, 0
4, 215630, Note_on_c, 9, 38, 0
4, 216042, Note_on_c, 9, 59, 102
4, 216083, Note_on_c, 9, 44, 51
4, 216395, Note_on_c, 9, 59, 0
4, 216460, Note_on_c, 9, 44, 0
4, 216675, Note_on_c, 9, 59, 63
4, 216816, Note_on_c, 9, 59, 0
4, 217087, Note_on_c, 9, 59, 84
4, 217499, Note_on_c, 9, 59, 0
4, 218038, Note_on_c, 9, 59, 104
4, 218485, Note_on_c, 9, 59, 0
4, 218590, Note_on_c, 9, 36, 34
4, 218700, Note_on_c, 9, 36, 0
4, 219042, Note_on_c, 9, 59, 102
4, 219492, Note_on_c, 9, 59, 0
4, 219885, Note_on_c, 9, 44, 65
4, 220022, Note_on_c, 9, 59, 100
4, 220265, Note_on_c, 9, 44, 0
4, 220464, Note_on_c, 9, 59, 0
4, 220664, Note_on_c, 9, 59, 85
4, 220779, Note_on_c, 9, 59, 0
4, 221029, Note_on_c, 9, 59, 97
4, 221479, Note_on_c, 9, 59, 0
4, 221759, Note_on_c, 9, 44, 62
4, 221814, Note_on_c, 9, 38, 41
4, 221933, Note_on_c, 9, 59, 108
4, 222108, Note_on_c, 9, 44, 0
4, 222245, Note_on_c, 9, 59, 0
4, 222304, Note_on_c, 9, 38, 0
4, 222464, Note_on_c, 9, 38, 42
4, 222684, Note_on_c, 9, 38, 0
4, 222878, Note_on_c, 9, 59, 103
4, 223266, Note_on_c, 9, 59, 0
4, 223318, Note_on_c, 9, 38, 50
4, 223488, Note_on_c, 9, 38, 0
4, 223755, Note_on_c, 9, 46, 52
4, 223800, Note_on_c, 9, 36, 26
4, 223817, Note_on_c, 9, 59, 94
4, 224012, Note_on_c, 9, 36, 0
4, 224107, Note_on_c, 9, 46, 0
4, 224170, Note_on_c, 9, 59, 0
4, 224332, Note_on_c, 9, 36, 45
4, 224432, Note_on_c, 9, 59, 68
4, 224470, Note_on_c, 9, 36, 0
4, 224577, Note_on_c, 9, 59, 0
4, 224794, Note_on_c, 9, 59, 100
4, 225145, Note_on_c, 9, 59, 0
4, 225570, Note_on_c, 9, 44, 56
4, 225710, Note_on_c, 9, 59, 97
4, 225910, Note_on_c, 9, 44, 0
4, 225966, Note_on_c, 9, 59, 0
4, 226720, Note_on_c, 9, 59, 100
4, 227011, Note_on_c, 9, 59, 0
4, 227665, Note_on_c, 9, 53, 70
4, 227671, Note_on_c, 9, 59, 102
4, 227674, Note_on_c, 9, 51, 76
4, 227809, Note_on_c, 9, 53, 0
4, 227853, Note_on_c, 9, 51, 0
4, 228018, Note_on_c, 9, 59, 0
4, 228560, Note_on_c, 9, 59, 70
4, 228872, Note_on_c, 9, 59, 0
4, 229466, Note_on_c, 9, 44, 61
4, 229511, Note_on_c, 9, 59, 82
4, 229749, Note_on_c, 9, 44, 0
4, 229764, Note_on_c, 9, 59, 0
4, 230535, Note_on_c, 9, 59, 87
4, 230806, Note_on_c, 9, 59, 0
4, 231413, Note_on_c, 9, 44, 56
4, 231533, Note_on_c, 9, 59, 96
4, 231539, Note_on_c, 9, 51, 72
4, 231557, Note_on_c, 9, 53, 54
4, 231736, Note_on_c, 9, 44, 0
4, 231860, Note_on_c, 9, 53, 0
4, 231875, Note_on_c, 9, 59, 0
4, 231907, Note_on_c, 9, 51, 0
4, 232484, Note_on_c, 9, 59, 62
4, 232726, Note_on_c, 9, 59, 0
4, 233401, Note_on_c, 9, 46, 40
4, 233497, Note_on_c, 9, 59, 94
4, 233512, Note_on_c, 9, 51, 83
4, 233514, Note_on_c, 9, 53, 72
4, 233700, Note_on_c, 9, 46, 0
4, 233853, Note_on_c, 9, 53, 0
4, 233938, Note_on_c, 9, 51, 0
4, 233962, Note_on_c, 9, 59, 0
4, 235275, Note_on_c, 9, 44, 64
4, 235296, Note_on_c, 9, 59, 80
4, 235525, Note_on_c, 9, 59, 0
4, 235615, Note_on_c, 9, 44, 0
4, 236320, Note_on_c, 9, 59, 94
4, 236559, Note_on_c, 9, 59, 0
4, 236894, Note_on_c, 9, 38, 43
4, 236966, Note_on_c, 9, 38, 0
4, 237190, Note_on_c, 9, 38, 33
4, 237200, Note_on_c, 9, 59, 98
4, 237227, Note_on_c, 9, 51, 83
4, 237239, Note_on_c, 9, 53, 71
4, 237445, Note_on_c, 9, 53, 0
4, 237504, Note_on_c, 9, 51, 0
4, 237518, Note_on_c, 9, 59, 0
4, 237700, Note_on_c, 9, 38, 0
4, 237856, Note_on_c, 9, 38, 61
4, 238080, Note_on_c, 9, 38, 0
4, 238148, Note_on_c, 9, 59, 51
4, 238224, Note_on_c, 9, 38, 61
4, 238304, Note_on_c, 9, 59, 0
4, 238704, Note_on_c, 9, 38, 0
4, 238802, Note_on_c, 9, 36, 54
4, 238986, Note_on_c, 9, 36, 0
4, 239087, Note_on_c, 9, 59, 104
4, 239090, Note_on_c, 9, 51, 94
4, 239099, Note_on_c, 9, 53, 80
4, 239129, Note_on_c, 9, 44, 58
4, 239164, Note_on_c, 9, 36, 49
4, 239367, Note_on_c, 9, 53, 0
4, 239417, Note_on_c, 9, 51, 0
4, 239429, Note_on_c, 9, 59, 0
4, 239604, Note_on_c, 9, 44, 0
4, 239610, Note_on_c, 9, 36, 0
4, 239782, Note_on_c, 9, 36, 58
4, 239998, Note_on_c, 9, 36, 0
4, 240018, Note_on_c, 9, 59, 58
4, 240171, Note_on_c, 9, 59, 0
4, 241007, Note_on_c, 9, 59, 97
4, 241225, Note_on_c, 9, 59, 0
4, 242002, Note_on_c, 9, 53, 80
4, 242005, Note_on_c, 9, 59, 102
4, 242023, Note_on_c, 9, 51, 77
4, 242220, Note_on_c, 9, 51, 0
4, 242241, Note_on_c, 9, 53, 0
4, 242288, Note_on_c, 9, 59, 0
4, 242926, Note_on_c, 9, 51, 98
4, 242932, Note_on_c, 9, 59, 105
4, 242935, Note_on_c, 9, 53, 86
4, 242959, Note_on_c, 9, 44, 55
4, 243060, Note_on_c, 9, 38, 34
4, 243158, Note_on_c, 9, 38, 0
4, 243218, Note_on_c, 9, 53, 0
4, 243286, Note_on_c, 9, 51, 0
4, 243321, Note_on_c, 9, 59, 0
4, 243417, Note_on_c, 9, 44, 0
4, 243552, Note_on_c, 9, 38, 41
4, 243784, Note_on_c, 9, 38, 0
4, 243842, Note_on_c, 9, 59, 76
4, 244078, Note_on_c, 9, 38, 13
4, 244145, Note_on_c, 9, 59, 0
4, 244268, Note_on_c, 9, 38, 0
4, 244494, Note_on_c, 9, 38, 47
4, 244718, Note_on_c, 9, 38, 0
4, 244819, Note_on_c, 9, 59, 108
4, 244924, Note_on_c, 9, 38, 26
4, 245208, Note_on_c, 9, 59, 0
4, 245308, Note_on_c, 9, 38, 0
4, 245480, Note_on_c, 9, 38, 42
4, 245638, Note_on_c, 9, 38, 0
4, 245812, Note_on_c, 9, 59, 106
4, 245826, Note_on_c, 9, 51, 98
4, 245835, Note_on_c, 9, 53, 80
4, 245840, Note_on_c, 9, 38, 37
4, 245918, Note_on_c, 9, 38, 0
4, 246062, Note_on_c, 9, 53, 0
4, 246074, Note_on_c, 9, 59, 0
4, 246079, Note_on_c, 9, 51, 0
4, 246454, Note_on_c, 9, 38, 65
4, 246652, Note_on_c, 9, 38, 0
4, 246744, Note_on_c, 9, 44, 65
4, 246751, Note_on_c, 9, 59, 105
4, 246754, Note_on_c, 9, 53, 83
4, 246757, Note_on_c, 9, 51, 92
4, 246977, Note_on_c, 9, 53, 0
4, 247013, Note_on_c, 9, 51, 0
4, 247030, Note_on_c, 9, 59, 0
4, 247115, Note_on_c, 9, 44, 0
4, 247364, Note_on_c, 9, 38, 74
4, 247762, Note_on_c, 9, 38, 0
4, 248294, Note_on_c, 9, 38, 89
4, 248496, Note_on_c, 9, 38, 0
4, 248581, Note_on_c, 9, 44, 73
4, 248652, Note_on_c, 9, 38, 64
4, 248812, Note_on_c, 9, 38, 0
4, 248955, Note_on_c, 9, 44, 0
4, 249262, Note_on_c, 9, 38, 76
4, 249309, Note_on_c, 9, 59, 98
4, 249447, Note_on_c, 9, 59, 0
4, 249472, Note_on_c, 9, 38, 0
4, 249652, Note_on_c, 9, 57, 96
4, 249658, Note_on_c, 9, 38, 79
4, 249662, Note_on_c, 9, 36, 96
4, 249689, Note_on_c, 9, 59, 55
4, 249961, Note_on_c, 9, 59, 0
4, 250594, Note_on_c, 9, 44, 68
4, 251032, Note_on_c, 9, 44, 0
4, 251175, Note_on_c, 9, 59, 80
4, 251377, Note_on_c, 9, 59, 0
4, 251574, Note_on_c, 9, 59, 78
4, 251856, Note_on_c, 9, 57, 0
4, 252225, Note_on_c, 9, 59, 0
4, 252550, Note_on_c, 9, 59, 88
4, 252556, Note_on_c, 9, 38, 0
4, 252596, Note_on_c, 9, 36, 0
4, 253102, Note_on_c, 9, 59, 0
4, 253242, Note_on_c, 9, 59, 78
4, 253344, Note_on_c, 9, 59, 0
4, 253543, Note_on_c, 9, 59, 96
4, 254272, Note_on_c, 9, 59, 0
4, 254474, Note_on_c, 9, 44, 60
4, 254502, Note_on_c, 9, 59, 93
4, 254819, Note_on_c, 9, 44, 0
4, 255053, Note_on_c, 9, 59, 0
4, 255102, Note_on_c, 9, 38, 38
4, 255218, Note_on_c, 9, 59, 82
4, 255246, Note_on_c, 9, 38, 0
4, 255332, Note_on_c, 9, 59, 0
4, 255426, Note_on_c, 9, 38, 36
4, 255504, Note_on_c, 9, 59, 91
4, 255856, Note_on_c, 9, 38, 0
4, 256084, Note_on_c, 9, 38, 42
4, 256144, Note_on_c, 9, 53, 101
4, 256146, Note_on_c, 9, 59, 0
4, 256184, Note_on_c, 9, 38, 0
4, 256386, Note_on_c, 9, 44, 61
4, 256413, Note_on_c, 9, 53, 0
4, 256456, Note_on_c, 9, 36, 38
4, 256517, Note_on_c, 9, 59, 80
4, 256730, Note_on_c, 9, 36, 0
4, 256749, Note_on_c, 9, 44, 0
4, 257297, Note_on_c, 9, 59, 0
4, 257368, Note_on_c, 9, 36, 40
4, 257453, Note_on_c, 9, 59, 96
4, 257848, Note_on_c, 9, 36, 0
4, 258173, Note_on_c, 9, 59, 0
4, 258315, Note_on_c, 9, 44, 56
4, 258366, Note_on_c, 9, 59, 91
4, 258713, Note_on_c, 9, 44, 0
4, 259023, Note_on_c, 9, 59, 0
4, 259327, Note_on_c, 9, 59, 102
4, 259872, Note_on_c, 9, 59, 0
4, 260032, Note_on_c, 9, 59, 84
4, 260136, Note_on_c, 9, 59, 0
4, 260294, Note_on_c, 9, 59, 111
4, 260306, Note_on_c, 9, 44, 53
4, 260619, Note_on_c, 9, 44, 0
4, 261021, Note_on_c, 9, 59, 0
4, 261215, Note_on_c, 9, 59, 97
4, 261784, Note_on_c, 9, 37, 53
4, 261899, Note_on_c, 9, 59, 0
4, 262120, Note_on_c, 9, 37, 0
4, 262164, Note_on_c, 9, 59, 97
4, 262198, Note_on_c, 9, 44, 66
4, 262442, Note_on_c, 9, 37, 48
4, 262549, Note_on_c, 9, 44, 0
4, 262832, Note_on_c, 9, 37, 0
4, 262863, Note_on_c, 9, 59, 0
4, 263139, Note_on_c, 9, 59, 87
4, 263172, Note_on_c, 9, 37, 48
4, 263596, Note_on_c, 9, 37, 0
4, 263756, Note_on_c, 9, 53, 97
4, 263850, Note_on_c, 9, 37, 43
4, 263858, Note_on_c, 9, 59, 0
4, 264110, Note_on_c, 9, 46, 57
4, 264194, Note_on_c, 9, 37, 0
4, 264442, Note_on_c, 9, 37, 54
4, 264470, Note_on_c, 9, 46, 0
4, 264592, Note_on_c, 9, 37, 0
4, 264791, Note_on_c, 9, 59, 78
4, 264794, Note_on_c, 9, 38, 50
4, 264862, Note_on_c, 9, 38, 0
4, 264909, Note_on_c, 9, 59, 0
4, 265004, Note_on_c, 9, 53, 0
4, 265106, Note_on_c, 9, 59, 103
4, 265152, Note_on_c, 9, 36, 38
4, 265254, Note_on_c, 9, 36, 0
4, 265885, Note_on_c, 9, 53, 105
4, 265887, Note_on_c, 9, 59, 0
4, 265957, Note_on_c, 9, 45, 60
4, 265987, Note_on_c, 9, 47, 41
4, 266037, Note_on_c, 9, 45, 0
4, 266043, Note_on_c, 9, 44, 58
4, 266090, Note_on_c, 9, 47, 0
4, 266368, Note_on_c, 9, 44, 0
4, 267600, Note_on_c, 9, 59, 105
4, 267972, Note_on_c, 9, 44, 53
4, 268292, Note_on_c, 9, 44, 0
4, 268326, Note_on_c, 9, 53, 0
4, 268554, Note_on_c, 9, 59, 0
4, 268572, Note_on_c, 9, 53, 59
4, 268648, Note_on_c, 9, 53, 0
4, 268757, Note_on_c, 9, 59, 49
4, 268848, Note_on_c, 9, 59, 0
4, 268945, Note_on_c, 9, 59, 115
4, 269876, Note_on_c, 9, 44, 62
4, 270170, Note_on_c, 9, 44, 0
4, 270400, Note_on_c, 9, 59, 0
4, 270535, Note_on_c, 9, 59, 118
4, 271377, Note_on_c, 9, 59, 0
4, 271549, Note_on_c, 9, 59, 87
4, 271746, Note_on_c, 9, 59, 0
4, 271800, Note_on_c, 9, 44, 57
4, 271876, Note_on_c, 9, 59, 114
4, 272125, Note_on_c, 9, 44, 0
4, 272670, Note_on_c, 9, 59, 0
4, 272804, Note_on_c, 9, 59, 115
4, 273463, Note_on_c, 9, 59, 0
4, 273620, Note_on_c, 9, 38, 42
4, 273703, Note_on_c, 9, 44, 63
4, 273704, Note_on_c, 9, 59, 99
4, 274040, Note_on_c, 9, 44, 0
4, 274078, Note_on_c, 9, 38, 0
4, 274274, Note_on_c, 9, 38, 43
4, 274302, Note_on_c, 9, 59, 0
4, 274440, Note_on_c, 9, 59, 81
4, 274470, Note_on_c, 9, 38, 0
4, 274519, Note_on_c, 9, 59, 0
4, 274662, Note_on_c, 9, 59, 110
4, 275212, Note_on_c, 9, 36, 35
4, 275362, Note_on_c, 9, 36, 0
4, 275386, Note_on_c, 9, 59, 0
4, 275594, Note_on_c, 9, 59, 100
4, 275613, Note_on_c, 9, 44, 59
4, 275666, Note_on_c, 9, 38, 24
4, 275973, Note_on_c, 9, 44, 0
4, 276096, Note_on_c, 9, 38, 0
4, 276145, Note_on_c, 9, 59, 0
4, 276260, Note_on_c, 9, 38, 39
4, 276300, Note_on_c, 9, 59, 87
4, 276395, Note_on_c, 9, 59, 0
4, 276450, Note_on_c, 9, 38, 0
4, 276574, Note_on_c, 9, 59, 104
4, 277197, Note_on_c, 9, 59, 0
4, 277508, Note_on_c, 9, 59, 105
4, 277542, Note_on_c, 9, 44, 66
4, 277610, Note_on_c, 9, 38, 37
4, 277865, Note_on_c, 9, 44, 0
4, 278088, Note_on_c, 9, 38, 0
4, 278186, Note_on_c, 9, 59, 0
4, 278232, Note_on_c, 9, 38, 67
4, 278322, Note_on_c, 9, 38, 0
4, 278425, Note_on_c, 9, 59, 91
4, 278998, Note_on_c, 9, 59, 0
4, 279154, Note_on_c, 9, 53, 46
4, 279162, Note_on_c, 9, 38, 67
4, 279240, Note_on_c, 9, 53, 0
4, 279374, Note_on_c, 9, 38, 0
4, 279423, Note_on_c, 9, 44, 62
4, 279442, Note_on_c, 9, 59, 75
4, 279786, Note_on_c, 9, 44, 0
4, 279829, Note_on_c, 9, 59, 0
4, 280002, Note_on_c, 9, 38, 63
4, 280072, Note_on_c, 9, 51, 79
4, 280094, Note_on_c, 9, 59, 91
4, 280254, Note_on_c, 9, 38, 0
4, 280276, Note_on_c, 9, 51, 0
4, 280452, Note_on_c, 9, 36, 30
4, 280558, Note_on_c, 9, 36, 0
4, 280914, Note_on_c, 9, 59, 0
4, 281014, Note_on_c, 9, 36, 31
4, 281072, Note_on_c, 9, 59, 87
4, 281148, Note_on_c, 9, 36, 0
4, 281189, Note_on_c, 9, 59, 0
4, 281288, Note_on_c, 9, 38, 45
4, 281332, Note_on_c, 9, 44, 64
4, 281383, Note_on_c, 9, 59, 94
4, 281646, Note_on_c, 9, 38, 0
4, 281664, Note_on_c, 9, 44, 0
4, 282042, Note_on_c, 9, 59, 0
4, 282335, Note_on_c, 9, 59, 102
4, 282928, Note_on_c, 9, 59, 0
4, 283253, Note_on_c, 9, 59, 121
4, 283291, Note_on_c, 9, 44, 65
4, 283616, Note_on_c, 9, 44, 0
4, 283761, Note_on_c, 9, 59, 0
4, 283921, Note_on_c, 9, 59, 82
4, 284054, Note_on_c, 9, 59, 0
4, 284197, Note_on_c, 9, 59, 116
4, 284826, Note_on_c, 9, 59, 0
4, 285204, Note_on_c, 9, 59, 127
4, 285272, Note_on_c, 9, 44, 71
4, 285604, Note_on_c, 9, 44, 0
4, 285657, Note_on_c, 9, 59, 0
4, 285912, Note_on_c, 9, 59, 80
4, 286078, Note_on_c, 9, 59, 0
4, 286220, Note_on_c, 9, 59, 111
4, 286714, Note_on_c, 9, 59, 0
4, 287098, Note_on_c, 9, 59, 124
4, 287136, Note_on_c, 9, 44, 68
4, 287487, Note_on_c, 9, 44, 0
4, 287600, Note_on_c, 9, 59, 0
4, 288041, Note_on_c, 9, 59, 116
4, 288617, Note_on_c, 9, 59, 0
4, 288668, Note_on_c, 9, 38, 38
4, 288766, Note_on_c, 9, 59, 96
4, 288824, Note_on_c, 9, 38, 0
4, 288889, Note_on_c, 9, 59, 0
4, 289041, Note_on_c, 9, 59, 120
4, 289057, Note_on_c, 9, 44, 63
4, 289319, Note_on_c, 9, 44, 0
4, 289602, Note_on_c, 9, 36, 39
4, 289654, Note_on_c, 9, 59, 0
4, 289762, Note_on_c, 9, 36, 0
4, 290011, Note_on_c, 9, 59, 118
4, 290601, Note_on_c, 9, 59, 0
4, 290930, Note_on_c, 9, 59, 118
4, 290957, Note_on_c, 9, 44, 57
4, 291289, Note_on_c, 9, 44, 0
4, 291377, Note_on_c, 9, 59, 0
4, 291644, Note_on_c, 9, 59, 69
4, 291789, Note_on_c, 9, 59, 0
4, 291932, Note_on_c, 9, 59, 114
4, 292444, Note_on_c, 9, 38, 42
4, 292515, Note_on_c, 9, 59, 0
4, 292632, Note_on_c, 9, 38, 0
4, 292877, Note_on_c, 9, 59, 121
4, 292899, Note_on_c, 9, 44, 58
4, 293224, Note_on_c, 9, 44, 0
4, 293389, Note_on_c, 9, 59, 0
4, 293424, Note_on_c, 9, 38, 48
4, 293547, Note_on_c, 9, 59, 84
4, 293584, Note_on_c, 9, 38, 0
4, 293644, Note_on_c, 9, 59, 0
4, 293848, Note_on_c, 9, 59, 94
4, 294291, Note_on_c, 9, 59, 0
4, 294476, Note_on_c, 9, 38, 42
4, 294582, Note_on_c, 9, 38, 0
4, 294753, Note_on_c, 9, 46, 56
4, 294756, Note_on_c, 9, 59, 118
4, 295108, Note_on_c, 9, 46, 0
4, 295268, Note_on_c, 9, 59, 0
4, 295394, Note_on_c, 9, 38, 42
4, 295522, Note_on_c, 9, 38, 0
4, 295716, Note_on_c, 9, 57, 42
4, 295716, Note_on_c, 9, 59, 112
4, 295746, Note_on_c, 9, 36, 50
4, 296273, Note_on_c, 9, 59, 0
4, 296671, Note_on_c, 9, 44, 66
4, 296674, Note_on_c, 9, 59, 111
4, 296977, Note_on_c, 9, 44, 0
4, 297207, Note_on_c, 9, 59, 0
4, 297381, Note_on_c, 9, 59, 85
4, 297553, Note_on_c, 9, 59, 0
4, 297594, Note_on_c, 9, 57, 0
4, 297695, Note_on_c, 9, 59, 110
4, 298317, Note_on_c, 9, 59, 0
4, 298422, Note_on_c, 9, 36, 0
4, 298615, Note_on_c, 9, 44, 58
4, 298618, Note_on_c, 9, 59, 102
4, 298941, Note_on_c, 9, 44, 0
4, 299142, Note_on_c, 9, 59, 0
4, 299319, Note_on_c, 9, 59, 96
4, 299456, Note_on_c, 9, 59, 0
4, 299583, Note_on_c, 9, 59, 104
4, 300224, Note_on_c, 9, 38, 46
4, 300250, Note_on_c, 9, 59, 0
4, 300354, Note_on_c, 9, 38, 0
4, 300530, Note_on_c, 9, 59, 98
4, 300559, Note_on_c, 9, 44, 57
4, 300628, Note_on_c, 9, 38, 39
4, 300873, Note_on_c, 9, 44, 0
4, 300918, Note_on_c, 9, 38, 0
4, 301055, Note_on_c, 9, 59, 0
4, 301156, Note_on_c, 9, 36, 36
4, 301209, Note_on_c, 9, 59, 87
4, 301266, Note_on_c, 9, 36, 0
4, 301339, Note_on_c, 9, 59, 0
4, 301516, Note_on_c, 9, 59, 110
4, 302149, Note_on_c, 9, 59, 0
4, 302446, Note_on_c, 9, 44, 61
4, 302486, Note_on_c, 9, 59, 112
4, 302608, Note_on_c, 9, 38, 49
4, 302834, Note_on_c, 9, 44, 0
4, 302934, Note_on_c, 9, 38, 0
4, 302966, Note_on_c, 9, 59, 0
4, 303126, Note_on_c, 9, 59, 85
4, 303168, Note_on_c, 9, 38, 46
4, 303260, Note_on_c, 9, 59, 0
4, 303392, Note_on_c, 9, 38, 0
4, 303432, Note_on_c, 9, 59, 110
4, 304147, Note_on_c, 9, 59, 0
4, 304384, Note_on_c, 9, 59, 92
4, 304390, Note_on_c, 9, 44, 65
4, 304692, Note_on_c, 9, 44, 0
4, 304986, Note_on_c, 9, 59, 0
4, 305407, Note_on_c, 9, 59, 105
4, 305998, Note_on_c, 9, 59, 0
4, 306246, Note_on_c, 9, 38, 53
4, 306342, Note_on_c, 9, 44, 66
4, 306376, Note_on_c, 9, 59, 112
4, 306697, Note_on_c, 9, 44, 0
4, 306704, Note_on_c, 9, 38, 0
4, 306804, Note_on_c, 9, 59, 0
4, 306892, Note_on_c, 9, 38, 61
4, 307012, Note_on_c, 9, 59, 72
4, 307181, Note_on_c, 9, 59, 0
4, 307196, Note_on_c, 9, 38, 0
4, 307318, Note_on_c, 9, 59, 105
4, 307364, Note_on_c, 9, 38, 57
4, 307774, Note_on_c, 9, 38, 0
4, 307870, Note_on_c, 9, 36, 57
4, 307915, Note_on_c, 9, 59, 0
4, 308088, Note_on_c, 9, 36, 0
4, 308220, Note_on_c, 9, 44, 66
4, 308239, Note_on_c, 9, 59, 105
4, 308560, Note_on_c, 9, 44, 0
4, 308801, Note_on_c, 9, 59, 0
4, 309221, Note_on_c, 9, 59, 104
4, 309239, Note_on_c, 9, 53, 61
4, 309724, Note_on_c, 9, 59, 0
4, 309896, Note_on_c, 9, 59, 85
4, 310096, Note_on_c, 9, 59, 0
4, 310104, Note_on_c, 9, 46, 65
4, 310123, Note_on_c, 9, 53, 0
4, 310274, Note_on_c, 9, 59, 64
4, 310466, Note_on_c, 9, 46, 0
4, 310578, Note_on_c, 9, 59, 0
4, 310805, Note_on_c, 9, 59, 97
4, 310838, Note_on_c, 9, 53, 88
4, 311599, Note_on_c, 9, 53, 0
4, 311640, Note_on_c, 9, 59, 0
4, 311808, Note_on_c, 9, 59, 78
4, 311903, Note_on_c, 9, 59, 0
4, 312036, Note_on_c, 9, 44, 65
4, 312062, Note_on_c, 9, 38, 42
4, 312209, Note_on_c, 9, 59, 105
4, 312225, Note_on_c, 9, 53, 84
4, 312367, Note_on_c, 9, 44, 0
4, 312480, Note_on_c, 9, 38, 0
4, 312682, Note_on_c, 9, 38, 43
4, 312843, Note_on_c, 9, 59, 0
4, 312952, Note_on_c, 9, 38, 0
4, 313007, Note_on_c, 9, 53, 0
4, 313105, Note_on_c, 9, 59, 79
4, 313188, Note_on_c, 9, 38, 30
4, 313325, Note_on_c, 9, 59, 0
4, 313520, Note_on_c, 9, 38, 0
4, 313731, Note_on_c, 9, 59, 106
4, 314044, Note_on_c, 9, 44, 58
4, 314406, Note_on_c, 9, 44, 0
4, 314494, Note_on_c, 9, 59, 0
4, 314659, Note_on_c, 9, 59, 80
4, 314672, Note_on_c, 9, 38, 51
4, 314778, Note_on_c, 9, 38, 0
4, 314784, Note_on_c, 9, 59, 0
4, 314894, Note_on_c, 9, 38, 26
4, 314998, Note_on_c, 9, 59, 98
4, 315340, Note_on_c, 9, 38, 0
4, 315678, Note_on_c, 9, 38, 57
4, 315719, Note_on_c, 9, 59, 0
4, 315900, Note_on_c, 9, 38, 0
4, 315937, Note_on_c, 9, 59, 94
4, 315976, Note_on_c, 9, 44, 68
4, 316106, Note_on_c, 9, 38, 34
4, 316324, Note_on_c, 9, 44, 0
4, 316408, Note_on_c, 9, 59, 0
4, 316562, Note_on_c, 9, 38, 0
4, 316661, Note_on_c, 9, 59, 57
4, 316763, Note_on_c, 9, 59, 0
4, 316918, Note_on_c, 9, 59, 102
4, 317541, Note_on_c, 9, 59, 0
4, 317840, Note_on_c, 9, 59, 106
4, 317862, Note_on_c, 9, 44, 62
4, 318208, Note_on_c, 9, 44, 0
4, 318319, Note_on_c, 9, 59, 0
4, 318496, Note_on_c, 9, 59, 80
4, 318677, Note_on_c, 9, 59, 0
4, 318811, Note_on_c, 9, 59, 105
4, 319274, Note_on_c, 9, 59, 0
4, 319756, Note_on_c, 9, 59, 118
4, 319804, Note_on_c, 9, 44, 58
4, 320169, Note_on_c, 9, 44, 0
4, 320220, Note_on_c, 9, 59, 0
4, 320645, Note_on_c, 9, 59, 108
4, 320706, Note_on_c, 9, 38, 44
4, 321087, Note_on_c, 9, 59, 0
4, 321296, Note_on_c, 9, 38, 0
4, 321565, Note_on_c, 9, 59, 104
4, 321634, Note_on_c, 9, 38, 50
4, 321675, Note_on_c, 9, 46, 56
4, 322004, Note_on_c, 9, 46, 0
4, 322039, Note_on_c, 9, 59, 0
4, 322164, Note_on_c, 9, 38, 0
4, 322259, Note_on_c, 9, 59, 70
4, 322421, Note_on_c, 9, 59, 0
4, 322573, Note_on_c, 9, 59, 108
4, 323152, Note_on_c, 9, 59, 0
4, 323527, Note_on_c, 9, 44, 62
4, 323533, Note_on_c, 9, 59, 111
4, 323867, Note_on_c, 9, 44, 0
4, 324029, Note_on_c, 9, 59, 0
4, 324501, Note_on_c, 9, 59, 105
4, 324566, Note_on_c, 9, 37, 48
4, 324860, Note_on_c, 9, 59, 0
4, 325028, Note_on_c, 9, 37, 0
4, 325258, Note_on_c, 9, 37, 43
4, 325451, Note_on_c, 9, 44, 70
4, 325470, Note_on_c, 9, 59, 102
4, 325676, Note_on_c, 9, 37, 0
4, 325800, Note_on_c, 9, 44, 0
4, 325878, Note_on_c, 9, 59, 0
4, 325984, Note_on_c, 9, 37, 44
4, 326203, Note_on_c, 9, 59, 91
4, 326374, Note_on_c, 9, 37, 0
4, 326377, Note_on_c, 9, 59, 0
4, 326533, Note_on_c, 9, 59, 102
4, 326716, Note_on_c, 9, 37, 44
4, 326960, Note_on_c, 9, 59, 0
4, 327096, Note_on_c, 9, 37, 0
4, 327363, Note_on_c, 9, 44, 68
4, 327398, Note_on_c, 9, 37, 44
4, 327426, Note_on_c, 9, 59, 104
4, 327706, Note_on_c, 9, 44, 0
4, 327780, Note_on_c, 9, 37, 0
4, 327971, Note_on_c, 9, 59, 0
4, 328046, Note_on_c, 9, 37, 45
4, 328362, Note_on_c, 9, 37, 0
4, 328380, Note_on_c, 9, 59, 112
4, 328710, Note_on_c, 9, 37, 45
4, 328781, Note_on_c, 9, 59, 0
4, 329049, Note_on_c, 9, 59, 72
4, 329052, Note_on_c, 9, 37, 0
4, 329173, Note_on_c, 9, 59, 0
4, 329293, Note_on_c, 9, 44, 65
4, 329338, Note_on_c, 9, 59, 110
4, 329404, Note_on_c, 9, 37, 42
4, 329662, Note_on_c, 9, 44, 0
4, 329772, Note_on_c, 9, 37, 0
4, 329916, Note_on_c, 9, 59, 0
4, 330056, Note_on_c, 9, 37, 49
4, 330275, Note_on_c, 9, 59, 111
4, 330388, Note_on_c, 9, 37, 0
4, 330692, Note_on_c, 9, 37, 38
4, 330732, Note_on_c, 9, 59, 0
4, 330945, Note_on_c, 9, 59, 72
4, 331020, Note_on_c, 9, 37, 0
4, 331042, Note_on_c, 9, 59, 0
4, 331171, Note_on_c, 9, 44, 63
4, 331256, Note_on_c, 9, 59, 100
4, 331370, Note_on_c, 9, 37, 42
4, 331516, Note_on_c, 9, 44, 0
4, 331736, Note_on_c, 9, 37, 0
4, 331853, Note_on_c, 9, 59, 0
4, 331952, Note_on_c, 9, 37, 48
4, 332226, Note_on_c, 9, 59, 114
4, 332238, Note_on_c, 9, 37, 0
4, 332638, Note_on_c, 9, 37, 46
4, 332750, Note_on_c, 9, 59, 0
4, 332908, Note_on_c, 9, 37, 0
4, 332966, Note_on_c, 9, 59, 87
4, 332994, Note_on_c, 9, 38, 42
4, 333082, Note_on_c, 9, 38, 0
4, 333100, Note_on_c, 9, 44, 68
4, 333119, Note_on_c, 9, 59, 0
4, 333242, Note_on_c, 9, 59, 116
4, 333263, Note_on_c, 9, 53, 77
4, 333328, Note_on_c, 9, 38, 45
4, 333443, Note_on_c, 9, 44, 0
4, 333666, Note_on_c, 9, 38, 0
4, 333683, Note_on_c, 9, 59, 0
4, 333862, Note_on_c, 9, 53, 0
4, 333884, Note_on_c, 9, 36, 60
4, 334074, Note_on_c, 9, 36, 0
4, 334219, Note_on_c, 9, 53, 85
4, 334224, Note_on_c, 9, 59, 116
4, 334878, Note_on_c, 9, 53, 0
4, 334880, Note_on_c, 9, 59, 0
4, 335044, Note_on_c, 9, 44, 68
4, 335168, Note_on_c, 9, 53, 94
4, 335173, Note_on_c, 9, 59, 114
4, 335416, Note_on_c, 9, 44, 0
4, 335743, Note_on_c, 9, 53, 0
4, 335855, Note_on_c, 9, 59, 0
4, 336108, Note_on_c, 9, 59, 75
4, 336492, Note_on_c, 9, 59, 0
4, 336759, Note_on_c, 9, 59, 80
4, 336986, Note_on_c, 9, 44, 68
4, 337012, Note_on_c, 9, 59, 0
4, 337118, Note_on_c, 9, 59, 75
4, 337374, Note_on_c, 9, 44, 0
4, 337671, Note_on_c, 9, 59, 0
4, 338044, Note_on_c, 9, 59, 110
4, 338627, Note_on_c, 9, 59, 0
4, 338953, Note_on_c, 9, 44, 67
4, 338984, Note_on_c, 9, 59, 85
4, 339350, Note_on_c, 9, 44, 0
4, 339430, Note_on_c, 9, 59, 0
4, 339687, Note_on_c, 9, 53, 94
4, 339745, Note_on_c, 9, 59, 116
4, 339933, Note_on_c, 9, 53, 0
4, 340286, Note_on_c, 9, 59, 0
4, 340608, Note_on_c, 9, 59, 105
4, 340629, Note_on_c, 9, 53, 98
4, 340828, Note_on_c, 9, 53, 0
4, 340850, Note_on_c, 9, 59, 0
4, 340902, Note_on_c, 9, 44, 66
4, 340987, Note_on_c, 9, 53, 84
4, 341107, Note_on_c, 9, 59, 68
4, 341280, Note_on_c, 9, 44, 0
4, 341284, Note_on_c, 9, 59, 0
4, 341415, Note_on_c, 9, 53, 0
4, 341942, Note_on_c, 9, 53, 82
4, 341947, Note_on_c, 9, 59, 106
4, 342204, Note_on_c, 9, 53, 0
4, 342413, Note_on_c, 9, 59, 0
4, 342786, Note_on_c, 9, 44, 59
4, 342881, Note_on_c, 9, 59, 94
4, 343203, Note_on_c, 9, 44, 0
4, 343378, Note_on_c, 9, 59, 0
4, 343525, Note_on_c, 9, 59, 102
4, 343757, Note_on_c, 9, 59, 0
4, 343898, Note_on_c, 9, 59, 88
4, 344408, Note_on_c, 9, 59, 0
4, 344420, Note_on_c, 9, 38, 33
4, 344532, Note_on_c, 9, 38, 0
4, 344770, Note_on_c, 9, 59, 108
4, 344773, Note_on_c, 9, 44, 62
4, 345116, Note_on_c, 9, 44, 0
4, 345170, Note_on_c, 9, 59, 0
4, 345360, Note_on_c, 9, 59, 81
4, 345533, Note_on_c, 9, 59, 0
4, 345685, Note_on_c, 9, 59, 106
4, 346280, Note_on_c, 9, 59, 0
4, 346634, Note_on_c, 9, 44, 75
4, 346658, Note_on_c, 9, 59, 115
4, 346994, Note_on_c, 9, 44, 0
4, 347111, Note_on_c, 9, 59, 0
4, 347296, Note_on_c, 9, 59, 76
4, 347308, Note_on_c, 9, 38, 45
4, 347452, Note_on_c, 9, 59, 0
4, 347508, Note_on_c, 9, 38, 0
4, 347600, Note_on_c, 9, 59, 106
4, 347692, Note_on_c, 9, 38, 52
4, 348154, Note_on_c, 9, 38, 0
4, 348169, Note_on_c, 9, 59, 0
4, 348290, Note_on_c, 9, 36, 51
4, 348410, Note_on_c, 9, 36, 0
4, 348531, Note_on_c, 9, 59, 116
4, 348635, Note_on_c, 9, 44, 64
4, 348648, Note_on_c, 9, 38, 37
4, 348995, Note_on_c, 9, 59, 0
4, 349018, Note_on_c, 9, 44, 0
4, 349058, Note_on_c, 9, 38, 0
4, 349160, Note_on_c, 9, 59, 82
4, 349202, Note_on_c, 9, 38, 50
4, 349320, Note_on_c, 9, 59, 0
4, 349398, Note_on_c, 9, 38, 0
4, 349480, Note_on_c, 9, 59, 108
4, 350104, Note_on_c, 9, 59, 0
4, 350468, Note_on_c, 9, 59, 106
4, 350499, Note_on_c, 9, 44, 69
4, 350835, Note_on_c, 9, 59, 0
4, 350850, Note_on_c, 9, 44, 0
4, 351109, Note_on_c, 9, 59, 66
4, 351211, Note_on_c, 9, 59, 0
4, 351428, Note_on_c, 9, 59, 82
4, 351870, Note_on_c, 9, 59, 0
4, 352379, Note_on_c, 9, 59, 114
4, 352431, Note_on_c, 9, 46, 45
4, 352754, Note_on_c, 9, 46, 0
4, 352876, Note_on_c, 9, 59, 0
4, 353361, Note_on_c, 9, 59, 110
4, 353758, Note_on_c, 9, 59, 0
4, 354054, Note_on_c, 9, 59, 63
4, 354159, Note_on_c, 9, 59, 0
4, 354342, Note_on_c, 9, 59, 100
4, 354421, Note_on_c, 9, 46, 53
4, 354626, Note_on_c, 9, 46, 0
4, 355030, Note_on_c, 9, 59, 0
4, 355204, Note_on_c, 9, 38, 38
4, 355275, Note_on_c, 9, 59, 87
4, 355688, Note_on_c, 9, 59, 0
4, 355818, Note_on_c, 9, 38, 0
4, 355964, Note_on_c, 9, 59, 69
4, 356043, Note_on_c, 9, 59, 0
4, 356214, Note_on_c, 9, 38, 39
4, 356227, Note_on_c, 9, 44, 69
4, 356231, Note_on_c, 9, 59, 88
4, 356593, Note_on_c, 9, 44, 0
4, 356816, Note_on_c, 9, 38, 0
4, 356913, Note_on_c, 9, 59, 0
4, 357233, Note_on_c, 9, 59, 105
4, 357743, Note_on_c, 9, 59, 0
4, 358084, Note_on_c, 9, 38, 53
4, 358159, Note_on_c, 9, 59, 102
4, 358231, Note_on_c, 9, 46, 56
4, 358375, Note_on_c, 9, 59, 0
4, 358568, Note_on_c, 9, 46, 0
4, 358736, Note_on_c, 9, 38, 0
4, 358790, Note_on_c, 9, 36, 57
4, 358827, Note_on_c, 9, 59, 90
4, 358968, Note_on_c, 9, 36, 0
4, 358998, Note_on_c, 9, 59, 0
4, 359094, Note_on_c, 9, 38, 54
4, 359138, Note_on_c, 9, 59, 103
4, 359611, Note_on_c, 9, 59, 0
4, 359712, Note_on_c, 9, 38, 0
4, 359774, Note_on_c, 9, 36, 61
4, 359792, Note_on_c, 9, 53, 70
4, 359858, Note_on_c, 9, 36, 0
4, 359910, Note_on_c, 9, 53, 0
4, 360098, Note_on_c, 9, 59, 42
4, 360126, Note_on_c, 9, 46, 54
4, 360521, Note_on_c, 9, 46, 0
4, 360543, Note_on_c, 9, 59, 0
4, 360709, Note_on_c, 9, 59, 78
4, 360782, Note_on_c, 9, 38, 68
4, 360815, Note_on_c, 9, 59, 0
4, 361061, Note_on_c, 9, 59, 80
4, 361606, Note_on_c, 9, 59, 0
4, 361654, Note_on_c, 9, 38, 0
4, 361697, Note_on_c, 9, 53, 80
4, 361740, Note_on_c, 9, 36, 53
4, 361861, Note_on_c, 9, 53, 0
4, 361862, Note_on_c, 9, 36, 0
4, 361987, Note_on_c, 9, 46, 57
4, 362054, Note_on_c, 9, 38, 50
4, 362133, Note_on_c, 9, 59, 66
4, 362239, Note_on_c, 9, 59, 0
4, 362335, Note_on_c, 9, 46, 0
4, 362640, Note_on_c, 9, 38, 0
4, 362680, Note_on_c, 9, 36, 50
4, 362683, Note_on_c, 9, 59, 78
4, 362812, Note_on_c, 9, 59, 0
4, 362828, Note_on_c, 9, 36, 0
4, 363006, Note_on_c, 9, 38, 51
4, 363022, Note_on_c, 9, 59, 86
4, 363478, Note_on_c, 9, 38, 0
4, 363620, Note_on_c, 9, 53, 87
4, 363622, Note_on_c, 9, 59, 0
4, 363702, Note_on_c, 9, 36, 52
4, 363778, Note_on_c, 9, 36, 0
4, 363847, Note_on_c, 9, 53, 0
4, 363922, Note_on_c, 9, 46, 61
4, 364131, Note_on_c, 9, 59, 28
4, 364291, Note_on_c, 9, 46, 0
4, 364323, Note_on_c, 9, 59, 0
4, 364593, Note_on_c, 9, 59, 62
4, 364606, Note_on_c, 9, 38, 95
4, 364733, Note_on_c, 9, 59, 0
4, 364900, Note_on_c, 9, 59, 99
4, 365474, Note_on_c, 9, 59, 0
4, 365488, Note_on_c, 9, 38, 0
4, 365542, Note_on_c, 9, 36, 51
4, 365560, Note_on_c, 9, 53, 93
4, 365634, Note_on_c, 9, 36, 0
4, 365778, Note_on_c, 9, 53, 0
4, 365840, Note_on_c, 9, 46, 60
4, 365873, Note_on_c, 9, 59, 91
4, 365916, Note_on_c, 9, 38, 31
4, 366212, Note_on_c, 9, 46, 0
4, 366386, Note_on_c, 9, 38, 0
4, 366427, Note_on_c, 9, 59, 0
4, 366548, Note_on_c, 9, 36, 39
4, 366662, Note_on_c, 9, 36, 0
4, 366845, Note_on_c, 9, 59, 102
4, 366938, Note_on_c, 9, 38, 40
4, 367379, Note_on_c, 9, 59, 0
4, 367382, Note_on_c, 9, 38, 0
4, 367476, Note_on_c, 9, 53, 90
4, 367548, Note_on_c, 9, 38, 51
4, 367616, Note_on_c, 9, 38, 0
4, 367691, Note_on_c, 9, 53, 0
4, 367744, Note_on_c, 9, 44, 70
4, 367813, Note_on_c, 9, 59, 78
4, 367983, Note_on_c, 9, 44, 0
4, 368388, Note_on_c, 9, 59, 0
4, 368452, Note_on_c, 9, 38, 85
4, 368757, Note_on_c, 9, 59, 112
4, 369300, Note_on_c, 9, 38, 0
4, 369355, Note_on_c, 9, 59, 0
4, 369369, Note_on_c, 9, 53, 100
4, 369372, Note_on_c, 9, 36, 47
4, 369456, Note_on_c, 9, 36, 0
4, 369645, Note_on_c, 9, 46, 66
4, 369717, Note_on_c, 9, 59, 74
4, 369724, Note_on_c, 9, 38, 47
4, 370031, Note_on_c, 9, 46, 0
4, 370106, Note_on_c, 9, 38, 0
4, 370130, Note_on_c, 9, 59, 0
4, 370310, Note_on_c, 9, 38, 61
4, 370478, Note_on_c, 9, 38, 0
4, 370645, Note_on_c, 9, 59, 104
4, 370731, Note_on_c, 9, 53, 0
4, 371116, Note_on_c, 9, 59, 0
4, 371274, Note_on_c, 9, 38, 77
4, 371293, Note_on_c, 9, 53, 91
4, 371420, Note_on_c, 9, 38, 0
4, 371534, Note_on_c, 9, 46, 62
4, 371648, Note_on_c, 9, 36, 50
4, 371770, Note_on_c, 9, 36, 0
4, 371911, Note_on_c, 9, 46, 0
4, 372049, Note_on_c, 9, 53, 0
4, 372180, Note_on_c, 9, 36, 94
4, 372287, Note_on_c, 9, 52, 102
4, 372370, Note_on_c, 9, 57, 53
4, 372443, Note_on_c, 9, 52, 0
4, 372654, Note_on_c, 9, 51, 104
4, 373339, Note_on_c, 9, 51, 0
4, 373435, Note_on_c, 9, 44, 71
4, 373522, Note_on_c, 9, 51, 89
4, 373835, Note_on_c, 9, 44, 0
4, 374215, Note_on_c, 9, 51, 0
4, 374441, Note_on_c, 9, 51, 86
4, 374722, Note_on_c, 9, 57, 0
4, 375062, Note_on_c, 9, 51, 0
4, 375410, Note_on_c, 9, 51, 101
4, 375437, Note_on_c, 9, 44, 55
4, 375752, Note_on_c, 9, 36, 0
4, 375881, Note_on_c, 9, 51, 0
4, 375943, Note_on_c, 9, 44, 0
4, 376122, Note_on_c, 9, 38, 47
4, 376139, Note_on_c, 9, 51, 76
4, 376280, Note_on_c, 9, 51, 0
4, 376296, Note_on_c, 9, 38, 0
4, 376422, Note_on_c, 9, 51, 96
4, 376446, Note_on_c, 9, 38, 39
4, 377014, Note_on_c, 9, 36, 72
4, 377020, Note_on_c, 9, 38, 0
4, 377058, Note_on_c, 9, 51, 0
4, 377338, Note_on_c, 9, 51, 104
4, 377398, Note_on_c, 9, 44, 63
4, 377656, Note_on_c, 9, 36, 0
4, 377815, Note_on_c, 9, 44, 0
4, 378013, Note_on_c, 9, 51, 0
4, 378339, Note_on_c, 9, 51, 102
4, 378364, Note_on_c, 9, 36, 65
4, 378840, Note_on_c, 9, 36, 0
4, 379009, Note_on_c, 9, 51, 0
4, 379266, Note_on_c, 9, 51, 101
4, 379310, Note_on_c, 9, 44, 65
4, 379745, Note_on_c, 9, 44, 0
4, 379751, Note_on_c, 9, 51, 0
4, 380023, Note_on_c, 9, 51, 83
4, 380128, Note_on_c, 9, 38, 40
4, 380178, Note_on_c, 9, 51, 0
4, 380311, Note_on_c, 9, 51, 102
4, 380680, Note_on_c, 9, 38, 0
4, 380836, Note_on_c, 9, 38, 66
4, 380916, Note_on_c, 9, 51, 0
4, 380990, Note_on_c, 9, 38, 0
4, 381214, Note_on_c, 9, 36, 49
4, 381231, Note_on_c, 9, 51, 103
4, 381260, Note_on_c, 9, 44, 69
4, 381579, Note_on_c, 9, 44, 0
4, 381758, Note_on_c, 9, 51, 0
4, 381820, Note_on_c, 9, 36, 0
4, 381918, Note_on_c, 9, 51, 81
4, 382048, Note_on_c, 9, 51, 0
4, 382187, Note_on_c, 9, 51, 98
4, 382798, Note_on_c, 9, 51, 0
4, 383120, Note_on_c, 9, 51, 107
4, 383138, Note_on_c, 9, 44, 63
4, 383541, Note_on_c, 9, 44, 0
4, 383632, Note_on_c, 9, 51, 0
4, 384069, Note_on_c, 9, 51, 102
4, 384583, Note_on_c, 9, 51, 0
4, 384998, Note_on_c, 9, 46, 48
4, 385036, Note_on_c, 9, 51, 104
4, 385482, Note_on_c, 9, 51, 0
4, 385614, Note_on_c, 9, 46, 0
4, 385790, Note_on_c, 9, 51, 89
4, 385869, Note_on_c, 9, 51, 0
4, 385920, Note_on_c, 9, 38, 33
4, 386027, Note_on_c, 9, 51, 94
4, 386044, Note_on_c, 9, 38, 0
4, 386244, Note_on_c, 9, 38, 34
4, 386410, Note_on_c, 9, 38, 0
4, 386526, Note_on_c, 9, 51, 0
4, 386818, Note_on_c, 9, 38, 47
4, 386934, Note_on_c, 9, 46, 39
4, 386957, Note_on_c, 9, 51, 102
4, 386972, Note_on_c, 9, 38, 0
4, 387162, Note_on_c, 9, 38, 36
4, 387382, Note_on_c, 9, 38, 0
4, 387411, Note_on_c, 9, 46, 0
4, 387511, Note_on_c, 9, 51, 0
4, 387708, Note_on_c, 9, 38, 50
4, 387792, Note_on_c, 9, 38, 0
4, 387931, Note_on_c, 9, 51, 103
4, 387992, Note_on_c, 9, 38, 47
4, 388088, Note_on_c, 9, 38, 0
4, 388368, Note_on_c, 9, 36, 35
4, 388472, Note_on_c, 9, 51, 0
4, 388490, Note_on_c, 9, 36, 0
4, 388866, Note_on_c, 9, 51, 102
4, 388929, Note_on_c, 9, 46, 37
4, 389419, Note_on_c, 9, 46, 0
4, 389437, Note_on_c, 9, 51, 0
4, 389544, Note_on_c, 9, 36, 56
4, 389730, Note_on_c, 9, 36, 0
4, 389864, Note_on_c, 9, 51, 102
4, 390416, Note_on_c, 9, 51, 0
4, 390811, Note_on_c, 9, 51, 103
4, 390816, Note_on_c, 9, 44, 55
4, 391173, Note_on_c, 9, 44, 0
4, 391307, Note_on_c, 9, 51, 0
4, 391495, Note_on_c, 9, 51, 77
4, 391644, Note_on_c, 9, 51, 0
4, 391674, Note_on_c, 9, 38, 45
4, 391778, Note_on_c, 9, 51, 98
4, 392302, Note_on_c, 9, 38, 0
4, 392411, Note_on_c, 9, 51, 0
4, 392432, Note_on_c, 9, 36, 28
4, 392594, Note_on_c, 9, 36, 0
4, 392716, Note_on_c, 9, 38, 46
4, 392719, Note_on_c, 9, 44, 66
4, 392748, Note_on_c, 9, 51, 102
4, 393108, Note_on_c, 9, 44, 0
4, 393225, Note_on_c, 9, 51, 0
4, 393274, Note_on_c, 9, 38, 0
4, 393432, Note_on_c, 9, 36, 32
4, 393432, Note_on_c, 9, 51, 54
4, 393510, Note_on_c, 9, 36, 0
4, 393574, Note_on_c, 9, 51, 0
4, 393726, Note_on_c, 9, 51, 92
4, 394219, Note_on_c, 9, 51, 0
4, 394635, Note_on_c, 9, 44, 73
4, 394645, Note_on_c, 9, 51, 116
4, 394972, Note_on_c, 9, 44, 0
4, 395126, Note_on_c, 9, 51, 0
4, 395358, Note_on_c, 9, 51, 77
4, 395472, Note_on_c, 9, 51, 0
4, 395617, Note_on_c, 9, 51, 97
4, 396203, Note_on_c, 9, 51, 0
4, 396544, Note_on_c, 9, 44, 75
4, 396545, Note_on_c, 9, 51, 108
4, 396924, Note_on_c, 9, 44, 0
4, 397077, Note_on_c, 9, 51, 0
4, 397240, Note_on_c, 9, 51, 76
4, 397350, Note_on_c, 9, 51, 0
4, 397472, Note_on_c, 9, 38, 50
4, 397506, Note_on_c, 9, 51, 96
4, 398054, Note_on_c, 9, 51, 0
4, 398076, Note_on_c, 9, 38, 0
4, 398444, Note_on_c, 9, 51, 107
4, 398474, Note_on_c, 9, 44, 75
4, 398802, Note_on_c, 9, 44, 0
4, 399068, Note_on_c, 9, 51, 0
4, 399228, Note_on_c, 9, 38, 31
4, 399312, Note_on_c, 9, 38, 0
4, 399413, Note_on_c, 9, 51, 101
4, 399472, Note_on_c, 9, 38, 57
4, 399881, Note_on_c, 9, 51, 0
4, 400160, Note_on_c, 9, 51, 62
4, 400230, Note_on_c, 9, 38, 0
4, 400239, Note_on_c, 9, 51, 0
4, 400369, Note_on_c, 9, 51, 84
4, 400392, Note_on_c, 9, 44, 74
4, 400474, Note_on_c, 9, 38, 40
4, 400604, Note_on_c, 9, 51, 0
4, 400671, Note_on_c, 9, 44, 0
4, 400848, Note_on_c, 9, 38, 0
4, 401064, Note_on_c, 9, 38, 52
4, 401084, Note_on_c, 9, 51, 118
4, 401160, Note_on_c, 9, 38, 0
4, 401307, Note_on_c, 9, 51, 0
4, 401443, Note_on_c, 9, 51, 74
4, 401603, Note_on_c, 9, 51, 0
4, 401733, Note_on_c, 9, 51, 42
4, 401918, Note_on_c, 9, 51, 0
4, 401970, Note_on_c, 9, 38, 55
4, 402042, Note_on_c, 9, 38, 0
4, 402194, Note_on_c, 9, 51, 102
4, 402319, Note_on_c, 9, 44, 77
4, 402608, Note_on_c, 9, 51, 0
4, 402618, Note_on_c, 9, 44, 0
4, 402918, Note_on_c, 9, 36, 56
4, 402975, Note_on_c, 9, 51, 74
4, 403066, Note_on_c, 9, 36, 0
4, 403086, Note_on_c, 9, 51, 0
4, 403320, Note_on_c, 9, 51, 99
4, 404013, Note_on_c, 9, 51, 0
4, 404193, Note_on_c, 9, 44, 77
4, 404273, Note_on_c, 9, 51, 97
4, 404493, Note_on_c, 9, 44, 0
4, 404782, Note_on_c, 9, 51, 0
4, 404836, Note_on_c, 9, 38, 49
4, 404958, Note_on_c, 9, 51, 69
4, 405024, Note_on_c, 9, 38, 0
4, 405036, Note_on_c, 9, 51, 0
4, 405180, Note_on_c, 9, 36, 58
4, 405215, Note_on_c, 9, 51, 84
4, 405446, Note_on_c, 9, 36, 0
4, 405810, Note_on_c, 9, 36, 45
4, 405862, Note_on_c, 9, 51, 0
4, 406018, Note_on_c, 9, 36, 0
4, 406149, Note_on_c, 9, 44, 75
4, 406176, Note_on_c, 9, 51, 109
4, 406443, Note_on_c, 9, 44, 0
4, 406698, Note_on_c, 9, 51, 0
4, 406869, Note_on_c, 9, 51, 77
4, 407000, Note_on_c, 9, 51, 0
4, 407155, Note_on_c, 9, 51, 91
4, 407731, Note_on_c, 9, 51, 0
4, 408069, Note_on_c, 9, 51, 107
4, 408101, Note_on_c, 9, 44, 79
4, 408418, Note_on_c, 9, 44, 0
4, 408684, Note_on_c, 9, 51, 0
4, 409048, Note_on_c, 9, 51, 102
4, 409447, Note_on_c, 9, 51, 0
4, 409999, Note_on_c, 9, 44, 77
4, 410008, Note_on_c, 9, 38, 42
4, 410008, Note_on_c, 9, 51, 106
4, 410267, Note_on_c, 9, 44, 0
4, 410366, Note_on_c, 9, 51, 0
4, 410452, Note_on_c, 9, 38, 0
4, 410682, Note_on_c, 9, 51, 74
4, 410783, Note_on_c, 9, 51, 0
4, 410944, Note_on_c, 9, 38, 36
4, 410958, Note_on_c, 9, 51, 86
4, 411424, Note_on_c, 9, 38, 0
4, 411435, Note_on_c, 9, 51, 0
4, 411582, Note_on_c, 9, 36, 30
4, 411672, Note_on_c, 9, 36, 0
4, 411897, Note_on_c, 9, 44, 75
4, 411907, Note_on_c, 9, 51, 109
4, 412159, Note_on_c, 9, 44, 0
4, 412259, Note_on_c, 9, 51, 0
4, 412546, Note_on_c, 9, 36, 38
4, 412648, Note_on_c, 9, 36, 0
4, 412888, Note_on_c, 9, 51, 77
4, 413324, Note_on_c, 9, 51, 0
4, 413818, Note_on_c, 9, 51, 111
4, 413873, Note_on_c, 9, 44, 73
4, 414141, Note_on_c, 9, 44, 0
4, 414271, Note_on_c, 9, 51, 0
4, 414521, Note_on_c, 9, 51, 63
4, 414618, Note_on_c, 9, 51, 0
4, 414811, Note_on_c, 9, 51, 86
4, 415286, Note_on_c, 9, 51, 0
4, 415781, Note_on_c, 9, 51, 104
4, 415820, Note_on_c, 9, 44, 75
4, 416140, Note_on_c, 9, 44, 0
4, 416166, Note_on_c, 9, 51, 0
4, 416486, Note_on_c, 9, 51, 42
4, 416565, Note_on_c, 9, 51, 0
4, 416739, Note_on_c, 9, 51, 84
4, 417182, Note_on_c, 9, 51, 0
4, 417649, Note_on_c, 9, 51, 108
4, 417686, Note_on_c, 9, 44, 74
4, 417986, Note_on_c, 9, 44, 0
4, 418226, Note_on_c, 9, 51, 0
4, 418586, Note_on_c, 9, 51, 107
4, 419089, Note_on_c, 9, 51, 0
4, 419243, Note_on_c, 9, 53, 88
4, 419575, Note_on_c, 9, 46, 58
4, 419615, Note_on_c, 9, 53, 0
4, 419679, Note_on_c, 9, 51, 38
4, 419932, Note_on_c, 9, 51, 0
4, 419956, Note_on_c, 9, 46, 0
4, 420514, Note_on_c, 9, 38, 62
4, 420551, Note_on_c, 9, 51, 93
4, 421094, Note_on_c, 9, 38, 0
4, 421117, Note_on_c, 9, 51, 0
4, 421498, Note_on_c, 9, 51, 104
4, 421516, Note_on_c, 9, 38, 50
4, 421525, Note_on_c, 9, 44, 68
4, 421776, Note_on_c, 9, 44, 0
4, 421894, Note_on_c, 9, 51, 0
4, 422080, Note_on_c, 9, 38, 0
4, 422136, Note_on_c, 9, 36, 45
4, 422221, Note_on_c, 9, 51, 72
4, 422226, Note_on_c, 9, 36, 0
4, 422300, Note_on_c, 9, 51, 0
4, 422483, Note_on_c, 9, 51, 93
4, 423107, Note_on_c, 9, 51, 0
4, 423395, Note_on_c, 9, 51, 98
4, 423423, Note_on_c, 9, 44, 73
4, 423697, Note_on_c, 9, 44, 0
4, 423893, Note_on_c, 9, 51, 0
4, 424342, Note_on_c, 9, 38, 42
4, 424399, Note_on_c, 9, 51, 77
4, 424659, Note_on_c, 9, 51, 0
4, 424896, Note_on_c, 9, 38, 0
4, 425098, Note_on_c, 9, 51, 76
4, 425376, Note_on_c, 9, 44, 77
4, 425404, Note_on_c, 9, 38, 37
4, 425520, Note_on_c, 9, 53, 55
4, 425553, Note_on_c, 9, 51, 0
4, 425602, Note_on_c, 9, 53, 0
4, 425649, Note_on_c, 9, 44, 0
4, 425832, Note_on_c, 9, 38, 0
4, 425865, Note_on_c, 9, 53, 56
4, 426014, Note_on_c, 9, 36, 60
4, 426044, Note_on_c, 9, 53, 0
4, 426094, Note_on_c, 9, 36, 0
4, 426177, Note_on_c, 9, 53, 45
4, 426265, Note_on_c, 9, 53, 0
4, 426383, Note_on_c, 9, 51, 73
4, 426866, Note_on_c, 9, 51, 0
4, 427271, Note_on_c, 9, 51, 64
4, 427346, Note_on_c, 9, 44, 74
4, 427614, Note_on_c, 9, 44, 0
4, 427717, Note_on_c, 9, 51, 0
4, 427986, Note_on_c, 9, 51, 96
4, 428202, Note_on_c, 9, 51, 0
4, 428288, Note_on_c, 9, 51, 73
4, 428877, Note_on_c, 9, 53, 85
4, 428886, Note_on_c, 9, 51, 0
4, 429035, Note_on_c, 9, 53, 0
4, 429214, Note_on_c, 9, 51, 71
4, 429249, Note_on_c, 9, 44, 73
4, 429494, Note_on_c, 9, 44, 0
4, 429676, Note_on_c, 9, 51, 0
4, 429938, Note_on_c, 9, 51, 92
4, 430137, Note_on_c, 9, 51, 0
4, 430278, Note_on_c, 9, 51, 86
4, 431107, Note_on_c, 9, 44, 75
4, 431157, Note_on_c, 9, 51, 0
4, 431174, Note_on_c, 9, 53, 80
4, 431375, Note_on_c, 9, 44, 0
4, 431390, Note_on_c, 9, 53, 0
4, 431791, Note_on_c, 9, 51, 89
4, 431820, Note_on_c, 9, 38, 46
4, 431888, Note_on_c, 9, 38, 0
4, 431965, Note_on_c, 9, 51, 0
4, 432098, Note_on_c, 9, 50, 93
4, 432128, Note_on_c, 9, 51, 64
4, 432457, Note_on_c, 9, 51, 0
4, 432752, Note_on_c, 9, 38, 40
4, 432761, Note_on_c, 9, 51, 106
4, 432794, Note_on_c, 9, 50, 0
4, 432846, Note_on_c, 9, 38, 0
4, 432958, Note_on_c, 9, 51, 0
4, 433014, Note_on_c, 9, 44, 74
4, 433052, Note_on_c, 9, 45, 54
4, 433084, Note_on_c, 9, 51, 94
4, 433296, Note_on_c, 9, 44, 0
4, 433502, Note_on_c, 9, 45, 0
4, 433621, Note_on_c, 9, 51, 0
4, 433632, Note_on_c, 9, 36, 84
4, 433898, Note_on_c, 9, 36, 0
4, 433944, Note_on_c, 9, 51, 108
4, 434014, Note_on_c, 9, 36, 59
4, 434422, Note_on_c, 9, 51, 0
4, 434468, Note_on_c, 9, 36, 0
4, 434640, Note_on_c, 9, 51, 74
4, 434803, Note_on_c, 9, 51, 0
4, 434934, Note_on_c, 9, 44, 74
4, 434947, Note_on_c, 9, 51, 89
4, 435199, Note_on_c, 9, 44, 0
4, 435466, Note_on_c, 9, 51, 0
4, 435862, Note_on_c, 9, 51, 103
4, 436394, Note_on_c, 9, 51, 0
4, 436814, Note_on_c, 9, 51, 109
4, 436939, Note_on_c, 9, 44, 69
4, 437169, Note_on_c, 9, 44, 0
4, 437243, Note_on_c, 9, 51, 0
4, 437506, Note_on_c, 9, 51, 72
4, 437605, Note_on_c, 9, 51, 0
4, 437779, Note_on_c, 9, 51, 92
4, 438401, Note_on_c, 9, 51, 0
4, 438728, Note_on_c, 9, 51, 108
4, 438840, Note_on_c, 9, 44, 73
4, 438857, Note_on_c, 9, 37, 65
4, 439148, Note_on_c, 9, 44, 0
4, 439157, Note_on_c, 9, 51, 0
4, 439184, Note_on_c, 9, 50, 50
4, 439246, Note_on_c, 9, 37, 0
4, 439270, Note_on_c, 9, 50, 0
4, 439430, Note_on_c, 9, 51, 71
4, 439510, Note_on_c, 9, 50, 37
4, 439543, Note_on_c, 9, 51, 0
4, 439588, Note_on_c, 9, 50, 0
4, 439723, Note_on_c, 9, 51, 92
4, 440331, Note_on_c, 9, 51, 0
4, 440408, Note_on_c, 9, 38, 44
4, 440478, Note_on_c, 9, 38, 0
4, 440665, Note_on_c, 9, 51, 104
4, 440697, Note_on_c, 9, 44, 70
4, 440726, Note_on_c, 9, 37, 58
4, 441000, Note_on_c, 9, 44, 0
4, 441055, Note_on_c, 9, 51, 0
4, 441147, Note_on_c, 9, 37, 0
4, 441364, Note_on_c, 9, 51, 63
4, 441466, Note_on_c, 9, 51, 0
4, 441658, Note_on_c, 9, 51, 81
4, 442159, Note_on_c, 9, 51, 0
4, 442554, Note_on_c, 9, 51, 79
4, 442575, Note_on_c, 9, 53, 63
4, 442639, Note_on_c, 9, 44, 70
4, 442650, Note_on_c, 9, 37, 62
4, 442958, Note_on_c, 9, 44, 0
4, 443036, Note_on_c, 9, 37, 0
4, 443183, Note_on_c, 9, 51, 0
4, 443228, Note_on_c, 9, 50, 41
4, 443330, Note_on_c, 9, 50, 0
4, 443377, Note_on_c, 9, 53, 0
4, 443647, Note_on_c, 9, 51, 58
4, 444024, Note_on_c, 9, 51, 0
4, 444220, Note_on_c, 9, 50, 72
4, 444265, Note_on_c, 9, 51, 92
4, 444278, Note_on_c, 9, 53, 70
4, 444306, Note_on_c, 9, 50, 0
4, 444512, Note_on_c, 9, 38, 46
4, 444588, Note_on_c, 9, 44, 70
4, 444634, Note_on_c, 9, 37, 55
4, 444883, Note_on_c, 9, 51, 0
4, 444894, Note_on_c, 9, 44, 0
4, 444940, Note_on_c, 9, 38, 0
4, 445017, Note_on_c, 9, 37, 0
4, 445018, Note_on_c, 9, 53, 0
4, 445138, Note_on_c, 9, 38, 58
4, 445268, Note_on_c, 9, 51, 68
4, 445395, Note_on_c, 9, 51, 0
4, 445492, Note_on_c, 9, 38, 0
4, 445532, Note_on_c, 9, 36, 46
4, 445607, Note_on_c, 9, 51, 91
4, 445637, Note_on_c, 9, 53, 72
4, 445686, Note_on_c, 9, 36, 0
4, 446189, Note_on_c, 9, 51, 0
4, 446438, Note_on_c, 9, 53, 0
4, 446512, Note_on_c, 9, 44, 69
4, 446596, Note_on_c, 9, 37, 59
4, 446602, Note_on_c, 9, 51, 74
4, 446825, Note_on_c, 9, 51, 0
4, 446832, Note_on_c, 9, 44, 0
4, 446935, Note_on_c, 9, 37, 0
4, 447203, Note_on_c, 9, 51, 104
4, 447212, Note_on_c, 9, 53, 80
4, 447787, Note_on_c, 9, 51, 0
4, 447962, Note_on_c, 9, 53, 0
4, 448090, Note_on_c, 9, 38, 53
4, 448158, Note_on_c, 9, 38, 0
4, 448205, Note_on_c, 9, 51, 74
4, 448367, Note_on_c, 9, 51, 0
4, 448456, Note_on_c, 9, 44, 70
4, 448485, Note_on_c, 9, 37, 61
4, 448510, Note_on_c, 9, 38, 60
4, 448588, Note_on_c, 9, 51, 104
4, 448614, Note_on_c, 9, 53, 81
4, 448782, Note_on_c, 9, 44, 0
4, 448784, Note_on_c, 9, 37, 0
4, 448998, Note_on_c, 9, 38, 0
4, 449126, Note_on_c, 9, 38, 77
4, 449209, Note_on_c, 9, 51, 0
4, 449264, Note_on_c, 9, 38, 0
4, 449356, Note_on_c, 9, 53, 0
4, 449509, Note_on_c, 9, 51, 72
4, 449757, Note_on_c, 9, 51, 0
4, 450080, Note_on_c, 9, 57, 48
4, 450116, Note_on_c, 9, 38, 69
4, 450154, Note_on_c, 9, 51, 109
4, 450170, Note_on_c, 9, 53, 86
4, 450212, Note_on_c, 9, 57, 0
4, 450383, Note_on_c, 9, 44, 73
4, 450620, Note_on_c, 9, 51, 0
4, 450622, Note_on_c, 9, 38, 0
4, 450654, Note_on_c, 9, 44, 0
4, 450811, Note_on_c, 9, 53, 0
4, 451048, Note_on_c, 9, 36, 53
4, 451110, Note_on_c, 9, 51, 76
4, 451174, Note_on_c, 9, 36, 0
4, 451290, Note_on_c, 9, 51, 0
4, 451481, Note_on_c, 9, 51, 102
4, 451492, Note_on_c, 9, 57, 50
4, 451510, Note_on_c, 9, 38, 68
4, 451528, Note_on_c, 9, 53, 79
4, 451993, Note_on_c, 9, 51, 0
4, 452014, Note_on_c, 9, 57, 0
4, 452124, Note_on_c, 9, 38, 0
4, 452214, Note_on_c, 9, 36, 35
4, 452217, Note_on_c, 9, 53, 0
4, 452333, Note_on_c, 9, 44, 77
4, 452439, Note_on_c, 9, 51, 64
4, 452530, Note_on_c, 9, 36, 0
4, 452615, Note_on_c, 9, 44, 0
4, 452706, Note_on_c, 9, 51, 0
4, 453000, Note_on_c, 9, 57, 48
4, 453012, Note_on_c, 9, 51, 108
4, 453022, Note_on_c, 9, 38, 64
4, 453380, Note_on_c, 9, 57, 0
4, 453506, Note_on_c, 9, 38, 0
4, 453576, Note_on_c, 9, 51, 0
4, 453956, Note_on_c, 9, 51, 71
4, 453976, Note_on_c, 9, 36, 44
4, 454066, Note_on_c, 9, 36, 0
4, 454087, Note_on_c, 9, 51, 0
4, 454259, Note_on_c, 9, 44, 77
4, 454291, Note_on_c, 9, 51, 109
4, 454372, Note_on_c, 9, 57, 44
4, 454388, Note_on_c, 9, 38, 61
4, 454533, Note_on_c, 9, 44, 0
4, 454804, Note_on_c, 9, 57, 0
4, 454859, Note_on_c, 9, 51, 0
4, 454912, Note_on_c, 9, 38, 0
4, 455212, Note_on_c, 9, 51, 101
4, 455731, Note_on_c, 9, 51, 0
4, 455844, Note_on_c, 9, 38, 61
4, 455926, Note_on_c, 9, 38, 0
4, 456137, Note_on_c, 9, 51, 102
4, 456195, Note_on_c, 9, 44, 74
4, 456448, Note_on_c, 9, 44, 0
4, 456540, Note_on_c, 9, 51, 0
4, 456831, Note_on_c, 9, 51, 79
4, 456979, Note_on_c, 9, 51, 0
4, 457072, Note_on_c, 9, 38, 70
4, 457126, Note_on_c, 9, 51, 93
4, 457584, Note_on_c, 9, 38, 0
4, 457670, Note_on_c, 9, 51, 0
4, 458048, Note_on_c, 9, 51, 111
4, 458052, Note_on_c, 9, 44, 76
4, 458329, Note_on_c, 9, 44, 0
4, 458492, Note_on_c, 9, 51, 0
4, 458620, Note_on_c, 9, 36, 54
4, 458740, Note_on_c, 9, 36, 0
4, 458785, Note_on_c, 9, 51, 77
4, 458930, Note_on_c, 9, 51, 0
4, 459010, Note_on_c, 9, 36, 42
4, 459070, Note_on_c, 9, 51, 96
4, 459328, Note_on_c, 9, 36, 0
4, 459610, Note_on_c, 9, 51, 0
4, 459632, Note_on_c, 9, 36, 38
4, 459716, Note_on_c, 9, 36, 0
4, 459942, Note_on_c, 9, 44, 75
4, 460009, Note_on_c, 9, 51, 104
4, 460235, Note_on_c, 9, 44, 0
4, 460434, Note_on_c, 9, 51, 0
4, 460798, Note_on_c, 9, 51, 86
4, 460881, Note_on_c, 9, 51, 0
4, 461051, Note_on_c, 9, 51, 98
4, 461371, Note_on_c, 9, 51, 0
4, 461782, Note_on_c, 9, 44, 76
4, 461902, Note_on_c, 9, 51, 108
4, 462122, Note_on_c, 9, 44, 0
4, 462248, Note_on_c, 9, 51, 0
4, 462852, Note_on_c, 9, 51, 73
4, 463347, Note_on_c, 9, 51, 0
4, 463806, Note_on_c, 9, 44, 69
4, 463807, Note_on_c, 9, 51, 87
4, 464100, Note_on_c, 9, 44, 0
4, 464222, Note_on_c, 9, 51, 0
4, 464398, Note_on_c, 9, 38, 75
4, 464558, Note_on_c, 9, 51, 92
4, 464582, Note_on_c, 9, 38, 0
4, 464712, Note_on_c, 9, 51, 0
4, 464764, Note_on_c, 9, 38, 58
4, 464872, Note_on_c, 9, 51, 89
4, 465070, Note_on_c, 9, 38, 0
4, 465412, Note_on_c, 9, 36, 59
4, 465414, Note_on_c, 9, 51, 0
4, 465590, Note_on_c, 9, 36, 0
4, 465725, Note_on_c, 9, 51, 96
4, 465728, Note_on_c, 9, 44, 70
4, 465778, Note_on_c, 9, 36, 48
4, 466001, Note_on_c, 9, 44, 0
4, 466268, Note_on_c, 9, 36, 0
4, 466333, Note_on_c, 9, 51, 0
4, 466696, Note_on_c, 9, 51, 96
4, 466724, Note_on_c, 9, 36, 53
4, 467062, Note_on_c, 9, 36, 0
4, 467076, Note_on_c, 9, 51, 0
4, 467642, Note_on_c, 9, 51, 94
4, 467715, Note_on_c, 9, 44, 70
4, 467916, Note_on_c, 9, 44, 0
4, 468192, Note_on_c, 9, 51, 0
4, 468407, Note_on_c, 9, 51, 96
4, 468567, Note_on_c, 9, 51, 0
4, 468697, Note_on_c, 9, 51, 106
4, 469140, Note_on_c, 9, 51, 0
4, 469538, Note_on_c, 9, 51, 97
4, 469613, Note_on_c, 9, 44, 54
4, 469770, Note_on_c, 9, 51, 0
4, 470001, Note_on_c, 9, 44, 0
4, 470241, Note_on_c, 9, 51, 99
4, 470380, Note_on_c, 9, 51, 0
4, 470542, Note_on_c, 9, 51, 94
4, 470976, Note_on_c, 9, 51, 0
4, 471389, Note_on_c, 9, 51, 101
4, 471508, Note_on_c, 9, 44, 61
4, 471753, Note_on_c, 9, 51, 0
4, 471925, Note_on_c, 9, 44, 0
4, 472012, Note_on_c, 9, 38, 59
4, 472115, Note_on_c, 9, 51, 91
4, 472156, Note_on_c, 9, 38, 0
4, 472261, Note_on_c, 9, 51, 0
4, 472389, Note_on_c, 9, 51, 103
4, 472607, Note_on_c, 9, 51, 0
4, 472992, Note_on_c, 9, 36, 41
4, 473076, Note_on_c, 9, 36, 0
4, 473316, Note_on_c, 9, 38, 38
4, 473317, Note_on_c, 9, 51, 109
4, 473354, Note_on_c, 9, 44, 63
4, 473676, Note_on_c, 9, 51, 0
4, 473770, Note_on_c, 9, 38, 0
4, 473777, Note_on_c, 9, 44, 0
4, 473982, Note_on_c, 9, 38, 54
4, 474100, Note_on_c, 9, 38, 0
4, 474274, Note_on_c, 9, 38, 35
4, 474298, Note_on_c, 9, 51, 109
4, 474714, Note_on_c, 9, 51, 0
4, 474786, Note_on_c, 9, 38, 0
4, 474974, Note_on_c, 9, 36, 35
4, 475058, Note_on_c, 9, 36, 0
4, 475214, Note_on_c, 9, 44, 63
4, 475293, Note_on_c, 9, 51, 108
4, 475609, Note_on_c, 9, 44, 0
4, 475657, Note_on_c, 9, 51, 0
4, 475950, Note_on_c, 9, 51, 72
4, 476115, Note_on_c, 9, 51, 0
4, 476250, Note_on_c, 9, 51, 98
4, 476751, Note_on_c, 9, 51, 0
4, 476834, Note_on_c, 9, 38, 64
4, 476944, Note_on_c, 9, 38, 0
4, 477089, Note_on_c, 9, 44, 54
4, 477188, Note_on_c, 9, 38, 39
4, 477222, Note_on_c, 9, 51, 108
4, 477501, Note_on_c, 9, 44, 0
4, 477524, Note_on_c, 9, 38, 0
4, 477600, Note_on_c, 9, 51, 0
4, 477846, Note_on_c, 9, 36, 61
4, 477904, Note_on_c, 9, 51, 68
4, 477986, Note_on_c, 9, 36, 0
4, 478041, Note_on_c, 9, 51, 0
4, 478186, Note_on_c, 9, 51, 101
4, 478188, Note_on_c, 9, 38, 53
4, 478280, Note_on_c, 9, 38, 0
4, 478676, Note_on_c, 9, 51, 0
4, 478798, Note_on_c, 9, 38, 78
4, 478847, Note_on_c, 9, 51, 77
4, 478936, Note_on_c, 9, 38, 0
4, 479003, Note_on_c, 9, 51, 0
4, 479019, Note_on_c, 9, 44, 58
4, 479150, Note_on_c, 9, 51, 102
4, 479180, Note_on_c, 9, 36, 57
4, 479256, Note_on_c, 9, 36, 0
4, 479439, Note_on_c, 9, 44, 0
4, 479738, Note_on_c, 9, 51, 0
4, 479776, Note_on_c, 9, 36, 76
4, 479846, Note_on_c, 9, 36, 0
4, 480119, Note_on_c, 9, 51, 109
4, 480142, Note_on_c, 9, 57, 102
4, 480154, Note_on_c, 9, 36, 93
4, 480566, Note_on_c, 9, 51, 0
4, 480718, Note_on_c, 9, 57, 0
4, 480829, Note_on_c, 9, 51, 71
4, 480898, Note_on_c, 9, 36, 0
4, 480952, Note_on_c, 9, 51, 0
4, 481058, Note_on_c, 9, 44, 65
4, 481064, Note_on_c, 9, 38, 47
4, 481119, Note_on_c, 9, 51, 102
4, 481234, Note_on_c, 9, 38, 0
4, 481449, Note_on_c, 9, 44, 0
4, 481672, Note_on_c, 9, 57, 93
4, 481690, Note_on_c, 9, 51, 0
4, 481710, Note_on_c, 9, 36, 87
4, 482098, Note_on_c, 9, 51, 116
4, 482222, Note_on_c, 9, 57, 0
4, 482284, Note_on_c, 9, 36, 0
4, 482446, Note_on_c, 9, 51, 0
4, 482714, Note_on_c, 9, 38, 52
4, 482745, Note_on_c, 9, 51, 76
4, 482782, Note_on_c, 9, 38, 0
4, 482852, Note_on_c, 9, 51, 0
4, 482985, Note_on_c, 9, 51, 68
4, 482987, Note_on_c, 9, 53, 77
4, 482993, Note_on_c, 9, 44, 64
4, 483094, Note_on_c, 9, 36, 81
4, 483098, Note_on_c, 9, 57, 85
4, 483411, Note_on_c, 9, 44, 0
4, 483708, Note_on_c, 9, 57, 0
4, 483750, Note_on_c, 9, 51, 0
4, 483782, Note_on_c, 9, 36, 0
4, 483807, Note_on_c, 9, 53, 0
4, 484017, Note_on_c, 9, 51, 89
4, 484251, Note_on_c, 9, 51, 0
4, 484636, Note_on_c, 9, 51, 82
4, 484810, Note_on_c, 9, 51, 0
4, 484947, Note_on_c, 9, 51, 93
4, 484957, Note_on_c, 9, 44, 75
4, 484965, Note_on_c, 9, 53, 80
4, 485361, Note_on_c, 9, 44, 0
4, 485541, Note_on_c, 9, 51, 0
4, 485552, Note_on_c, 9, 38, 61
4, 485624, Note_on_c, 9, 38, 0
4, 485627, Note_on_c, 9, 53, 0
4, 485901, Note_on_c, 9, 51, 102
4, 486458, Note_on_c, 9, 51, 0
4, 486580, Note_on_c, 9, 38, 77
4, 486716, Note_on_c, 9, 38, 0
4, 486841, Note_on_c, 9, 46, 65
4, 486851, Note_on_c, 9, 51, 113
4, 487109, Note_on_c, 9, 46, 0
4, 487348, Note_on_c, 9, 51, 0
4, 487568, Note_on_c, 9, 38, 50
4, 487644, Note_on_c, 9, 38, 0
4, 487772, Note_on_c, 9, 51, 114
4, 487916, Note_on_c, 9, 38, 42
4, 488236, Note_on_c, 9, 38, 0
4, 488292, Note_on_c, 9, 51, 0
4, 488512, Note_on_c, 9, 36, 44
4, 488624, Note_on_c, 9, 36, 0
4, 488729, Note_on_c, 9, 51, 113
4, 488876, Note_on_c, 9, 36, 45
4, 488912, Note_on_c, 9, 46, 64
4, 489124, Note_on_c, 9, 36, 0
4, 489174, Note_on_c, 9, 51, 0
4, 489225, Note_on_c, 9, 46, 0
4, 489418, Note_on_c, 9, 51, 71
4, 489497, Note_on_c, 9, 51, 0
4, 489512, Note_on_c, 9, 38, 51
4, 489632, Note_on_c, 9, 38, 0
4, 489673, Note_on_c, 9, 51, 83
4, 489967, Note_on_c, 9, 51, 0
4, 490360, Note_on_c, 9, 53, 80
4, 490372, Note_on_c, 9, 36, 42
4, 490402, Note_on_c, 9, 51, 69
4, 490434, Note_on_c, 9, 52, 60
4, 490452, Note_on_c, 9, 50, 56
4, 490478, Note_on_c, 9, 36, 0
4, 490535, Note_on_c, 9, 50, 0
4, 490608, Note_on_c, 9, 52, 0
4, 490740, Note_on_c, 9, 51, 0
4, 490770, Note_on_c, 9, 36, 46
4, 490781, Note_on_c, 9, 44, 43
4, 491000, Note_on_c, 9, 36, 0
4, 491012, Note_on_c, 9, 53, 0
4, 491115, Note_on_c, 9, 44, 0
4, 491332, Note_on_c, 9, 53, 48
4, 491376, Note_on_c, 9, 51, 44
4, 491434, Note_on_c, 9, 53, 0
4, 491455, Note_on_c, 9, 51, 0
4, 491689, Note_on_c, 9, 53, 70
4, 491691, Note_on_c, 9, 51, 103
4, 492165, Note_on_c, 9, 51, 0
4, 492272, Note_on_c, 9, 38, 48
4, 492282, Note_on_c, 9, 53, 0
4, 492344, Note_on_c, 9, 38, 0
4, 492582, Note_on_c, 9, 51, 52
4, 492632, Note_on_c, 9, 38, 41
4, 492673, Note_on_c, 9, 46, 66
4, 492674, Note_on_c, 9, 51, 0
4, 492726, Note_on_c, 9, 38, 0
4, 492993, Note_on_c, 9, 46, 0
4, 493145, Note_on_c, 9, 51, 102
4, 493155, Note_on_c, 9, 53, 80
4, 493198, Note_on_c, 9, 38, 44
4, 493316, Note_on_c, 9, 38, 0
4, 493705, Note_on_c, 9, 51, 0
4, 493837, Note_on_c, 9, 53, 0
4, 493908, Note_on_c, 9, 38, 47
4, 494032, Note_on_c, 9, 38, 0
4, 494138, Note_on_c, 9, 53, 30
4, 494146, Note_on_c, 9, 51, 58
4, 494224, Note_on_c, 9, 53, 0
4, 494236, Note_on_c, 9, 51, 0
4, 494427, Note_on_c, 9, 53, 74
4, 494448, Note_on_c, 9, 38, 43
4, 494450, Note_on_c, 9, 51, 92
4, 494746, Note_on_c, 9, 38, 0
4, 494809, Note_on_c, 9, 51, 0
4, 494876, Note_on_c, 9, 53, 0
4, 495360, Note_on_c, 9, 59, 84
4, 495572, Note_on_c, 9, 59, 0
4, 496255, Note_on_c, 9, 59, 110
4, 496382, Note_on_c, 9, 44, 54
4, 496696, Note_on_c, 9, 44, 0
4, 496985, Note_on_c, 9, 38, 76
4, 497187, Note_on_c, 9, 38, 0
4, 497412, Note_on_c, 9, 38, 61
4, 497826, Note_on_c, 9, 38, 0
4, 498033, Note_on_c, 9, 59, 0
4, 498065, Note_on_c, 9, 36, 64
4, 498320, Note_on_c, 9, 44, 56
4, 498325, Note_on_c, 9, 36, 0
4, 498626, Note_on_c, 9, 44, 0
4, 499468, Note_on_c, 9, 36, 66
4, 499863, Note_on_c, 9, 36, 0
4, 500331, Note_on_c, 9, 44, 51
4, 500702, Note_on_c, 9, 44, 0
4, 500945, Note_on_c, 9, 36, 64
4, 501080, Note_on_c, 9, 59, 124
4, 501300, Note_on_c, 9, 36, 0
4, 501622, Note_on_c, 9, 59, 0
4, 502052, Note_on_c, 9, 59, 127
4, 502247, Note_on_c, 9, 36, 67
4, 503575, Note_on_c, 9, 36, 0
4, 504132, Note_on_c, 9, 44, 57
4, 504492, Note_on_c, 9, 44, 0
4, 505367, Note_on_c, 9, 59, 0
4, 505882, Note_on_c, 9, 59, 93
4, 505978, Note_on_c, 9, 44, 50
4, 506174, Note_on_c, 9, 59, 0
4, 506220, Note_on_c, 9, 44, 0
4, 506412, Note_on_c, 9, 59, 86
4, 506662, Note_on_c, 9, 59, 0
4, 507513, Note_on_c, 9, 53, 67
4, 507645, Note_on_c, 9, 53, 0
4, 507977, Note_on_c, 9, 46, 59
4, 508561, Note_on_c, 9, 53, 67
4, 508732, Note_on_c, 9, 53, 0
4, 509383, Note_on_c, 9, 46, 0
4, 509438, Note_on_c, 9, 53, 73
4, 509600, Note_on_c, 9, 53, 0
4, 509918, Note_on_c, 9, 44, 40
4, 510206, Note_on_c, 9, 44, 0
4, 510378, Note_on_c, 9, 53, 64
4, 510484, Note_on_c, 9, 53, 0
4, 510787, Note_on_c, 9, 59, 87
4, 511143, Note_on_c, 9, 59, 0
4, 511501, Note_on_c, 9, 38, 52
4, 511613, Note_on_c, 9, 38, 0
4, 511643, Note_on_c, 9, 53, 59
4, 511794, Note_on_c, 9, 53, 0
4, 512365, Note_on_c, 9, 38, 46
4, 512480, Note_on_c, 9, 38, 0
4, 512624, Note_on_c, 9, 51, 74
4, 512898, Note_on_c, 9, 51, 0
4, 512909, Note_on_c, 9, 36, 30
4, 513398, Note_on_c, 9, 36, 0
4, 513815, Note_on_c, 9, 44, 52
4, 514140, Note_on_c, 9, 44, 0
4, 514303, Note_on_c, 9, 38, 48
4, 514429, Note_on_c, 9, 38, 0
4, 514564, Note_on_c, 9, 51, 99
4, 515103, Note_on_c, 9, 51, 0
4, 515141, Note_on_c, 9, 38, 40
4, 515415, Note_on_c, 9, 38, 0
4, 515610, Note_on_c, 9, 36, 43
4, 515878, Note_on_c, 9, 36, 0
4, 516451, Note_on_c, 9, 51, 83
4, 516710, Note_on_c, 9, 51, 0
4, 517556, Note_on_c, 9, 44, 62
4, 517907, Note_on_c, 9, 44, 0
4, 517991, Note_on_c, 9, 51, 101
4, 518176, Note_on_c, 9, 51, 0
4, 518397, Note_on_c, 9, 51, 99
4, 518730, Note_on_c, 9, 51, 0
4, 519975, Note_on_c, 9, 51, 97
4, 520155, Note_on_c, 9, 51, 0
4, 520364, Note_on_c, 9, 51, 97
4, 520634, Note_on_c, 9, 51, 0
4, 521828, Note_on_c, 9, 38, 46
4, 521950, Note_on_c, 9, 51, 64
4, 521964, Note_on_c, 9, 38, 0
4, 522050, Note_on_c, 9, 51, 0
4, 522298, Note_on_c, 9, 51, 94
4, 522338, Note_on_c, 9, 36, 41
4, 522482, Note_on_c, 9, 36, 0
4, 522522, Note_on_c, 9, 51, 0
4, 523213, Note_on_c, 9, 51, 112
4, 523333, Note_on_c, 9, 44, 57
4, 523641, Note_on_c, 9, 44, 0
4, 523804, Note_on_c, 9, 38, 50
4, 523902, Note_on_c, 9, 38, 0
4, 524238, Note_on_c, 9, 51, 0
4, 525056, Note_on_c, 9, 51, 109
4, 525208, Note_on_c, 9, 44, 55
4, 525295, Note_on_c, 9, 51, 0
4, 525574, Note_on_c, 9, 44, 0
4, 525757, Note_on_c, 9, 38, 44
4, 525860, Note_on_c, 9, 38, 0
4, 526013, Note_on_c, 9, 51, 112
4, 526111, Note_on_c, 9, 36, 32
4, 526266, Note_on_c, 9, 36, 0
4, 526537, Note_on_c, 9, 51, 0
4, 527162, Note_on_c, 9, 36, 32
4, 527355, Note_on_c, 9, 36, 0
4, 528563, Note_on_c, 9, 51, 53
4, 528663, Note_on_c, 9, 51, 0
4, 528875, Note_on_c, 9, 53, 97
4, 530933, Note_on_c, 9, 53, 0
4, 530986, Note_on_c, 9, 46, 54
4, 531336, Note_on_c, 9, 51, 53
4, 531397, Note_on_c, 9, 46, 0
4, 531436, Note_on_c, 9, 51, 0
4, 531777, Note_on_c, 9, 53, 47
4, 532013, Note_on_c, 9, 53, 0
4, 532278, Note_on_c, 9, 53, 73
4, 532546, Note_on_c, 9, 53, 0
4, 532764, Note_on_c, 9, 53, 67
4, 532993, Note_on_c, 9, 53, 0
4, 533294, Note_on_c, 9, 53, 60
4, 533517, Note_on_c, 9, 53, 0
4, 533691, Note_on_c, 9, 53, 86
4, 533918, Note_on_c, 9, 53, 0
4, 534598, Note_on_c, 9, 51, 68
4, 534813, Note_on_c, 9, 44, 51
4, 534880, Note_on_c, 9, 51, 0
4, 535124, Note_on_c, 9, 44, 0
4, 535370, Note_on_c, 9, 37, 50
4, 535468, Note_on_c, 9, 37, 0
4, 535602, Note_on_c, 9, 51, 77
4, 535782, Note_on_c, 9, 37, 56
4, 535858, Note_on_c, 9, 51, 0
4, 535955, Note_on_c, 9, 37, 0
4, 536433, Note_on_c, 9, 36, 46
4, 536609, Note_on_c, 9, 51, 83
4, 536634, Note_on_c, 9, 36, 0
4, 537015, Note_on_c, 9, 51, 0
4, 537303, Note_on_c, 9, 37, 52
4, 537412, Note_on_c, 9, 37, 0
4, 538240, Note_on_c, 9, 59, 105
4, 538290, Note_on_c, 9, 38, 52
4, 538493, Note_on_c, 9, 59, 0
4, 538509, Note_on_c, 9, 38, 0
4, 538609, Note_on_c, 9, 44, 53
4, 538944, Note_on_c, 9, 36, 32
4, 538960, Note_on_c, 9, 44, 0
4, 539143, Note_on_c, 9, 36, 0
4, 539170, Note_on_c, 9, 59, 91
4, 539296, Note_on_c, 9, 59, 0
4, 539679, Note_on_c, 9, 59, 102
4, 540062, Note_on_c, 9, 59, 0
4, 540418, Note_on_c, 9, 51, 37
4, 540518, Note_on_c, 9, 46, 57
4, 540609, Note_on_c, 9, 51, 0
4, 540711, Note_on_c, 9, 46, 0
4, 541051, Note_on_c, 9, 59, 110
4, 541363, Note_on_c, 9, 59, 0
4, 541999, Note_on_c, 9, 59, 93
4, 542123, Note_on_c, 9, 59, 0
4, 542441, Note_on_c, 9, 59, 114
4, 542459, Note_on_c, 9, 44, 46
4, 542724, Note_on_c, 9, 44, 0
4, 542829, Note_on_c, 9, 59, 0
4, 543919, Note_on_c, 9, 59, 110
4, 544110, Note_on_c, 9, 59, 0
4, 544409, Note_on_c, 9, 46, 66
4, 544637, Note_on_c, 9, 46, 0
4, 544849, Note_on_c, 9, 59, 106
4, 545028, Note_on_c, 9, 59, 0
4, 545293, Note_on_c, 9, 59, 97
4, 545526, Note_on_c, 9, 59, 0
4, 545826, Note_on_c, 9, 51, 84
4, 546200, Note_on_c, 9, 51, 0
4, 546310, Note_on_c, 9, 44, 58
4, 546630, Note_on_c, 9, 44, 0
4, 546910, Note_on_c, 9, 51, 96
4, 547239, Note_on_c, 9, 51, 0
4, 547843, Note_on_c, 9, 38, 52
4, 547884, Note_on_c, 9, 51, 91
4, 548062, Note_on_c, 9, 38, 0
4, 548158, Note_on_c, 9, 51, 0
4, 548711, Note_on_c, 9, 51, 89
4, 548851, Note_on_c, 9, 38, 49
4, 548947, Note_on_c, 9, 51, 0
4, 549053, Note_on_c, 9, 38, 0
4, 549182, Note_on_c, 9, 59, 87
4, 549200, Note_on_c, 9, 53, 70
4, 549553, Note_on_c, 9, 53, 0
4, 549612, Note_on_c, 9, 59, 0
4, 549779, Note_on_c, 9, 38, 58
4, 550003, Note_on_c, 9, 38, 0
4, 550077, Note_on_c, 9, 53, 42
4, 550089, Note_on_c, 9, 44, 61
4, 550189, Note_on_c, 9, 53, 0
4, 550417, Note_on_c, 9, 44, 0
4, 550604, Note_on_c, 9, 59, 90
4, 550622, Note_on_c, 9, 53, 77
4, 550657, Note_on_c, 9, 38, 42
4, 550928, Note_on_c, 9, 38, 0
4, 551129, Note_on_c, 9, 36, 48
4, 551140, Note_on_c, 9, 59, 0
4, 551143, Note_on_c, 9, 53, 0
4, 551389, Note_on_c, 9, 36, 0
4, 551955, Note_on_c, 9, 44, 59
4, 552056, Note_on_c, 9, 59, 100
4, 552073, Note_on_c, 9, 53, 77
4, 552234, Note_on_c, 9, 44, 0
4, 552338, Note_on_c, 9, 53, 0
4, 552509, Note_on_c, 9, 59, 0
4, 553507, Note_on_c, 9, 59, 99
4, 553525, Note_on_c, 9, 53, 77
4, 553690, Note_on_c, 9, 53, 0
4, 553781, Note_on_c, 9, 59, 0
4, 554299, Note_on_c, 9, 51, 72
4, 554511, Note_on_c, 9, 51, 0
4, 554773, Note_on_c, 9, 59, 93
4, 554782, Note_on_c, 9, 53, 79
4, 555185, Note_on_c, 9, 53, 0
4, 555212, Note_on_c, 9, 59, 0
4, 555718, Note_on_c, 9, 53, 77
4, 555718, Note_on_c, 9, 59, 94
4, 555895, Note_on_c, 9, 44, 57
4, 556077, Note_on_c, 9, 53, 0
4, 556171, Note_on_c, 9, 59, 0
4, 556229, Note_on_c, 9, 44, 0
4, 556874, Note_on_c, 9, 44, 56
4, 557297, Note_on_c, 9, 44, 0
4, 557821, Note_on_c, 9, 44, 61
4, 558225, Note_on_c, 9, 44, 0
4, 560543, Note_on_c, 9, 59, 76
4, 560655, Note_on_c, 9, 59, 0
4, 561114, Note_on_c, 9, 59, 75
4, 561297, Note_on_c, 9, 59, 0
4, 561310, Note_on_c, 9, 38, 40
4, 561443, Note_on_c, 9, 38, 0
4, 561541, Note_on_c, 9, 59, 70
4, 561626, Note_on_c, 9, 44, 53
4, 561659, Note_on_c, 9, 59, 0
4, 561974, Note_on_c, 9, 44, 0
4, 562080, Note_on_c, 9, 59, 82
4, 562307, Note_on_c, 9, 59, 0
4, 562347, Note_on_c, 9, 38, 35
4, 562474, Note_on_c, 9, 38, 0
4, 562489, Note_on_c, 9, 59, 93
4, 562573, Note_on_c, 9, 44, 55
4, 562721, Note_on_c, 9, 38, 38
4, 562725, Note_on_c, 9, 59, 0
4, 562962, Note_on_c, 9, 44, 0
4, 563387, Note_on_c, 9, 51, 86
4, 563401, Note_on_c, 9, 38, 0
4, 563587, Note_on_c, 9, 44, 56
4, 563841, Note_on_c, 9, 51, 0
4, 564022, Note_on_c, 9, 44, 0
4, 564219, Note_on_c, 9, 38, 42
4, 564447, Note_on_c, 9, 38, 0
4, 565175, Note_on_c, 9, 38, 43
4, 565420, Note_on_c, 9, 38, 0
4, 565482, Note_on_c, 9, 46, 55
4, 565662, Note_on_c, 9, 38, 40
4, 565753, Note_on_c, 9, 46, 0
4, 565999, Note_on_c, 9, 38, 0
4, 566870, Note_on_c, 9, 53, 59
4, 566982, Note_on_c, 9, 53, 0
4, 567042, Note_on_c, 9, 38, 52
4, 567269, Note_on_c, 9, 38, 0
4, 567326, Note_on_c, 9, 53, 53
4, 567526, Note_on_c, 9, 53, 0
4, 567753, Note_on_c, 9, 51, 49
4, 567946, Note_on_c, 9, 38, 55
4, 567986, Note_on_c, 9, 51, 0
4, 568214, Note_on_c, 9, 38, 0
4, 568262, Note_on_c, 9, 53, 55
4, 568424, Note_on_c, 9, 53, 0
4, 568845, Note_on_c, 9, 53, 70
4, 568911, Note_on_c, 9, 38, 57
4, 568946, Note_on_c, 9, 53, 0
4, 569181, Note_on_c, 9, 38, 0
4, 569315, Note_on_c, 9, 44, 64
4, 569575, Note_on_c, 9, 44, 0
4, 569792, Note_on_c, 9, 38, 53
4, 569956, Note_on_c, 9, 38, 0
4, 570204, Note_on_c, 9, 38, 52
4, 570460, Note_on_c, 9, 38, 0
4, 570759, Note_on_c, 9, 51, 68
4, 570820, Note_on_c, 9, 38, 48
4, 570912, Note_on_c, 9, 51, 0
4, 571189, Note_on_c, 9, 53, 62
4, 571211, Note_on_c, 9, 44, 66
4, 571374, Note_on_c, 9, 53, 0
4, 571385, Note_on_c, 9, 36, 56
4, 571531, Note_on_c, 9, 36, 0
4, 571553, Note_on_c, 9, 44, 0
4, 571560, Note_on_c, 9, 38, 0
4, 571736, Note_on_c, 9, 53, 62
4, 571954, Note_on_c, 9, 53, 0
4, 572202, Note_on_c, 9, 36, 83
4, 572231, Note_on_c, 9, 57, 81
4, 573224, Note_on_c, 9, 46, 54
4, 573503, Note_on_c, 9, 46, 0
4, 573618, Note_on_c, 9, 51, 52
4, 573732, Note_on_c, 9, 51, 0
4, 574036, Note_on_c, 9, 53, 60
4, 574318, Note_on_c, 9, 53, 0
4, 574642, Note_on_c, 9, 57, 0
4, 574945, Note_on_c, 9, 46, 63
4, 574980, Note_on_c, 9, 44, 56
4, 575039, Note_on_c, 9, 36, 0
4, 575257, Note_on_c, 9, 44, 0
4, 575278, Note_on_c, 9, 46, 0
4, 575977, Note_on_c, 9, 44, 55
4, 576294, Note_on_c, 9, 44, 0
4, 576499, Note_on_c, 9, 38, 68
4, 576707, Note_on_c, 9, 38, 0
4, 576986, Note_on_c, 9, 36, 46
4, 577377, Note_on_c, 9, 51, 49
4, 577401, Note_on_c, 9, 36, 0
4, 577477, Note_on_c, 9, 51, 0
4, 577836, Note_on_c, 9, 53, 70
4, 577977, Note_on_c, 9, 36, 53
4, 578057, Note_on_c, 9, 53, 0
4, 578296, Note_on_c, 9, 36, 0
4, 578375, Note_on_c, 9, 53, 66
4, 578522, Note_on_c, 9, 53, 0
4, 578778, Note_on_c, 9, 53, 73
4, 579011, Note_on_c, 9, 53, 0
4, 579276, Note_on_c, 9, 53, 75
4, 579497, Note_on_c, 9, 53, 0
4, 579512, Note_on_c, 9, 38, 30
4, 579613, Note_on_c, 9, 38, 0
4, 579712, Note_on_c, 9, 53, 80
4, 579994, Note_on_c, 9, 53, 0
4, 580698, Note_on_c, 9, 51, 62
4, 580859, Note_on_c, 9, 44, 57
4, 580954, Note_on_c, 9, 51, 0
4, 581227, Note_on_c, 9, 44, 0
4, 582377, Note_on_c, 9, 38, 37
4, 582568, Note_on_c, 9, 38, 0
4, 582623, Note_on_c, 9, 59, 82
4, 582659, Note_on_c, 9, 51, 61
4, 582720, Note_on_c, 9, 53, 35
4, 582988, Note_on_c, 9, 59, 0
4, 583053, Note_on_c, 9, 51, 0
4, 583080, Note_on_c, 9, 53, 0
4, 583794, Note_on_c, 9, 38, 38
4, 584005, Note_on_c, 9, 38, 0
4, 584712, Note_on_c, 9, 46, 53
4, 585026, Note_on_c, 9, 46, 0
4, 585538, Note_on_c, 9, 59, 87
4, 585544, Note_on_c, 9, 51, 67
4, 585629, Note_on_c, 9, 53, 31
4, 585738, Note_on_c, 9, 53, 0
4, 585747, Note_on_c, 9, 59, 0
4, 585791, Note_on_c, 9, 51, 0
4, 586468, Note_on_c, 9, 51, 56
4, 586471, Note_on_c, 9, 53, 51
4, 586477, Note_on_c, 9, 59, 93
4, 586565, Note_on_c, 9, 38, 51
4, 586639, Note_on_c, 9, 53, 0
4, 586688, Note_on_c, 9, 44, 49
4, 586707, Note_on_c, 9, 59, 0
4, 586757, Note_on_c, 9, 51, 0
4, 586821, Note_on_c, 9, 38, 0
4, 587030, Note_on_c, 9, 44, 0
4, 589018, Note_on_c, 9, 59, 72
4, 589130, Note_on_c, 9, 59, 0
4, 589442, Note_on_c, 9, 59, 72
4, 589745, Note_on_c, 9, 59, 0
4, 590409, Note_on_c, 9, 44, 52
4, 590829, Note_on_c, 9, 44, 0
4, 590881, Note_on_c, 9, 59, 64
4, 591002, Note_on_c, 9, 59, 0
4, 591267, Note_on_c, 9, 59, 79
4, 591552, Note_on_c, 9, 59, 0
4, 593016, Note_on_c, 9, 37, 37
4, 593143, Note_on_c, 9, 37, 0
4, 593514, Note_on_c, 9, 37, 51
4, 593772, Note_on_c, 9, 51, 77
4, 593929, Note_on_c, 9, 37, 0
4, 594011, Note_on_c, 9, 51, 0
4, 594190, Note_on_c, 9, 44, 57
4, 594272, Note_on_c, 9, 36, 30
4, 594433, Note_on_c, 9, 36, 0
4, 594512, Note_on_c, 9, 44, 0
4, 594894, Note_on_c, 9, 37, 41
4, 595055, Note_on_c, 9, 37, 0
4, 595118, Note_on_c, 9, 51, 73
4, 595329, Note_on_c, 9, 37, 46
4, 595471, Note_on_c, 9, 51, 0
4, 595755, Note_on_c, 9, 37, 0
4, 596037, Note_on_c, 9, 36, 32
4, 596145, Note_on_c, 9, 46, 49
4, 596224, Note_on_c, 9, 36, 0
4, 596402, Note_on_c, 9, 46, 0
4, 596554, Note_on_c, 9, 59, 81
4, 596720, Note_on_c, 9, 37, 41
4, 596740, Note_on_c, 9, 59, 0
4, 596910, Note_on_c, 9, 37, 0
4, 597002, Note_on_c, 9, 59, 82
4, 597152, Note_on_c, 9, 37, 49
4, 597376, Note_on_c, 9, 59, 0
4, 597411, Note_on_c, 9, 37, 0
4, 597849, Note_on_c, 9, 36, 41
4, 597947, Note_on_c, 9, 51, 74
4, 598027, Note_on_c, 9, 36, 0
4, 598115, Note_on_c, 9, 44, 41
4, 598268, Note_on_c, 9, 51, 0
4, 598323, Note_on_c, 9, 44, 0
4, 598696, Note_on_c, 9, 38, 53
4, 598837, Note_on_c, 9, 38, 0
4, 599594, Note_on_c, 9, 38, 54
4, 599761, Note_on_c, 9, 38, 0
4, 599989, Note_on_c, 9, 36, 50
4, 600382, Note_on_c, 9, 59, 78
4, 600519, Note_on_c, 9, 36, 0
4, 600561, Note_on_c, 9, 59, 0
4, 600826, Note_on_c, 9, 59, 82
4, 601221, Note_on_c, 9, 59, 0
4, 601468, Note_on_c, 9, 51, 108
4, 601541, Note_on_c, 9, 38, 60
4, 601639, Note_on_c, 9, 38, 0
4, 601901, Note_on_c, 9, 51, 0
4, 601917, Note_on_c, 9, 44, 56
4, 602254, Note_on_c, 9, 44, 0
4, 602523, Note_on_c, 9, 38, 53
4, 602667, Note_on_c, 9, 38, 0
4, 602872, Note_on_c, 9, 51, 101
4, 602926, Note_on_c, 9, 36, 54
4, 603102, Note_on_c, 9, 36, 0
4, 603278, Note_on_c, 9, 51, 0
4, 603865, Note_on_c, 9, 36, 66
4, 603893, Note_on_c, 9, 46, 43
4, 604117, Note_on_c, 9, 46, 0
4, 604263, Note_on_c, 9, 36, 0
4, 604888, Note_on_c, 9, 36, 68
4, 605027, Note_on_c, 9, 59, 55
4, 605133, Note_on_c, 9, 59, 0
4, 605262, Note_on_c, 9, 36, 0
4, 605525, Note_on_c, 9, 59, 92
4, 605634, Note_on_c, 9, 59, 0
4, 605831, Note_on_c, 9, 44, 45
4, 606102, Note_on_c, 9, 44, 0
4, 606411, Note_on_c, 9, 59, 102
4, 606626, Note_on_c, 9, 59, 0
4, 607244, Note_on_c, 9, 59, 70
4, 607359, Note_on_c, 9, 59, 0
4, 607606, Note_on_c, 9, 59, 84
4, 607800, Note_on_c, 9, 51, 84
4, 607812, Note_on_c, 9, 59, 0
4, 607812, Note_on_c, 9, 46, 51
4, 608023, Note_on_c, 9, 46, 0
4, 608445, Note_on_c, 9, 51, 0
4, 609158, Note_on_c, 9, 59, 82
4, 609293, Note_on_c, 9, 59, 0
4, 609303, Note_on_c, 9, 38, 61
4, 609565, Note_on_c, 9, 38, 0
4, 610023, Note_on_c, 9, 59, 98
4, 610232, Note_on_c, 9, 59, 0
4, 610386, Note_on_c, 9, 36, 73
4, 610429, Note_on_c, 9, 59, 91
4, 610647, Note_on_c, 9, 59, 0
4, 610774, Note_on_c, 9, 36, 0
4, 611457, Note_on_c, 9, 38, 56
4, 611552, Note_on_c, 9, 38, 0
4, 611611, Note_on_c, 9, 44, 53
4, 611934, Note_on_c, 9, 44, 0
4, 612081, Note_on_c, 9, 59, 87
4, 612181, Note_on_c, 9, 59, 0
4, 612355, Note_on_c, 9, 38, 59
4, 612551, Note_on_c, 9, 38, 0
4, 612770, Note_on_c, 9, 38, 68
4, 612955, Note_on_c, 9, 59, 78
4, 613009, Note_on_c, 9, 38, 0
4, 613097, Note_on_c, 9, 59, 0
4, 613391, Note_on_c, 9, 59, 87
4, 613431, Note_on_c, 9, 44, 55
4, 613608, Note_on_c, 9, 38, 63
4, 613627, Note_on_c, 9, 59, 0
4, 613754, Note_on_c, 9, 44, 0
4, 613983, Note_on_c, 9, 38, 0
4, 614533, Note_on_c, 9, 36, 65
4, 614645, Note_on_c, 9, 36, 0
4, 614963, Note_on_c, 9, 59, 92
4, 615091, Note_on_c, 9, 38, 62
4, 615184, Note_on_c, 9, 59, 0
4, 615365, Note_on_c, 9, 38, 0
4, 615416, Note_on_c, 9, 44, 53
4, 615684, Note_on_c, 9, 44, 0
4, 615873, Note_on_c, 9, 59, 85
4, 616004, Note_on_c, 9, 38, 68
4, 616079, Note_on_c, 9, 59, 0
4, 616282, Note_on_c, 9, 59, 99
4, 616364, Note_on_c, 9, 38, 0
4, 616412, Note_on_c, 9, 44, 51
4, 616568, Note_on_c, 9, 59, 0
4, 616775, Note_on_c, 9, 44, 0
4, 616926, Note_on_c, 9, 38, 79
4, 617186, Note_on_c, 9, 59, 115
4, 617211, Note_on_c, 9, 38, 0
4, 617349, Note_on_c, 9, 36, 55
4, 617764, Note_on_c, 9, 36, 0
4, 617845, Note_on_c, 9, 59, 0
4, 618284, Note_on_c, 9, 44, 57
4, 618540, Note_on_c, 9, 44, 0
4, 618789, Note_on_c, 9, 38, 67
4, 619028, Note_on_c, 9, 38, 0
4, 619191, Note_on_c, 9, 44, 56
4, 619517, Note_on_c, 9, 44, 0
4, 619679, Note_on_c, 9, 38, 64
4, 619777, Note_on_c, 9, 38, 0
4, 620062, Note_on_c, 9, 38, 60
4, 620618, Note_on_c, 9, 38, 0
4, 620980, Note_on_c, 9, 44, 56
4, 621064, Note_on_c, 9, 36, 45
4, 621177, Note_on_c, 9, 36, 0
4, 621225, Note_on_c, 9, 44, 0
4, 621733, Note_on_c, 9, 57, 69
4, 621796, Note_on_c, 9, 36, 76
4, 622028, Note_on_c, 9, 46, 65
4, 625557, Note_on_c, 9, 57, 0
4, 631483, Note_on_c, 9, 46, 0
4, 632155, Note_on_c, 9, 36, 0
4, 632806, Note_on_c, 9, 38, 42
4, 632910, Note_on_c, 9, 38, 0
4, 633325, Note_on_c, 9, 38, 46
4, 633443, Note_on_c, 9, 38, 0
4, 633785, Note_on_c, 9, 38, 51
4, 634353, Note_on_c, 9, 38, 0
4, 634407, Note_on_c, 9, 36, 80
4, 634467, Note_on_c, 9, 57, 36
4, 635498, Note_on_c, 9, 57, 0
4, 636864, Note_on_c, 9, 36, 0
4, 636864, End_track
0, 0, End_of_file
