0, 0, Header, 1, 4, 120
1, 0, Start_track
1, 0, Title_t, "I'mConfessin'"
1, 0, Copyright_t, " "
1, 0, Text_t, "dougmck@pipeline.com.au\012"
1, 0, Time_signature, 4, 2, 24, 8
1, 0, Key_signature, -1, "major"
1, 0, Tempo, 521739
1, 0, End_track
2, 0, Start_track
2, 0, Title_t, "dougmck@pipeline.com.au"
2, 0, Program_c, 0, 0
2, 3, Note_on_c, 0, 72, 54
2, 5, Note_on_c, 0, 48, 37
2, 9, Control_c, 0, 64, 127
2, 19, Note_on_c, 0, 57, 7
2, 72, Note_on_c, 0, 72, 0
2, 80, Note_on_c, 0, 74, 72
2, 110, Note_on_c, 0, 74, 0
2, 124, Note_on_c, 0, 76, 78
2, 147, Note_on_c, 0, 76, 0
2, 164, Note_on_c, 0, 57, 0
2, 196, Note_on_c, 0, 77, 77
2, 208, Note_on_c, 0, 77, 0
2, 240, Note_on_c, 0, 76, 60
2, 245, Note_on_c, 0, 72, 66
2, 246, Note_on_c, 0, 68, 61
2, 247, Note_on_c, 0, 58, 32
2, 248, Control_c, 0, 64, 0
2, 250, Note_on_c, 0, 64, 50
2, 282, Control_c, 0, 64, 127
2, 297, Note_on_c, 0, 48, 0
2, 370, Note_on_c, 0, 48, 24
2, 412, Note_on_c, 0, 58, 0
2, 430, Note_on_c, 0, 76, 0
2, 437, Note_on_c, 0, 72, 0
2, 437, Note_on_c, 0, 64, 0
2, 449, Note_on_c, 0, 74, 39
2, 452, Note_on_c, 0, 68, 0
2, 472, Note_on_c, 0, 74, 0
2, 488, Note_on_c, 0, 76, 71
2, 494, Note_on_c, 0, 72, 69
2, 495, Note_on_c, 0, 57, 42
2, 499, Control_c, 0, 64, 0
2, 499, Note_on_c, 0, 69, 60
2, 502, Note_on_c, 0, 67, 47
2, 538, Note_on_c, 0, 48, 0
2, 541, Control_c, 0, 64, 127
2, 615, Note_on_c, 0, 48, 37
2, 618, Note_on_c, 0, 57, 0
2, 640, Note_on_c, 0, 67, 0
2, 641, Note_on_c, 0, 69, 0
2, 658, Note_on_c, 0, 72, 0
2, 675, Note_on_c, 0, 76, 0
2, 729, Note_on_c, 0, 76, 34
2, 731, Note_on_c, 0, 58, 27
2, 736, Note_on_c, 0, 72, 47
2, 736, Note_on_c, 0, 68, 47
2, 740, Note_on_c, 0, 60, 32
2, 740, Note_on_c, 0, 64, 45
2, 748, Control_c, 0, 64, 0
2, 778, Control_c, 0, 64, 127
2, 784, Note_on_c, 0, 58, 0
2, 804, Note_on_c, 0, 48, 0
2, 843, Note_on_c, 0, 60, 0
2, 852, Note_on_c, 0, 48, 36
2, 865, Note_on_c, 0, 64, 0
2, 886, Note_on_c, 0, 68, 0
2, 897, Note_on_c, 0, 72, 0
2, 918, Note_on_c, 0, 76, 0
2, 973, Control_c, 0, 64, 0
2, 974, Note_on_c, 0, 72, 96
2, 975, Note_on_c, 0, 57, 54
2, 995, Note_on_c, 0, 57, 0
2, 995, Control_c, 0, 64, 127
2, 1028, Note_on_c, 0, 48, 0
2, 1035, Note_on_c, 0, 72, 0
2, 1045, Note_on_c, 0, 74, 64
2, 1076, Note_on_c, 0, 74, 0
2, 1082, Control_c, 0, 64, 0
2, 1086, Note_on_c, 0, 57, 45
2, 1087, Note_on_c, 0, 47, 36
2, 1087, Note_on_c, 0, 76, 62
2, 1089, Note_on_c, 0, 69, 60
2, 1112, Control_c, 0, 64, 127
2, 1153, Note_on_c, 0, 76, 0
2, 1154, Note_on_c, 0, 69, 0
2, 1156, Note_on_c, 0, 47, 0
2, 1159, Note_on_c, 0, 57, 0
2, 1163, Note_on_c, 0, 77, 61
2, 1195, Note_on_c, 0, 77, 0
2, 1203, Control_c, 0, 64, 0
2, 1206, Note_on_c, 0, 76, 40
2, 1209, Note_on_c, 0, 56, 31
2, 1210, Note_on_c, 0, 46, 34
2, 1210, Note_on_c, 0, 72, 45
2, 1212, Note_on_c, 0, 67, 43
2, 1239, Control_c, 0, 64, 127
2, 1262, Note_on_c, 0, 56, 0
2, 1264, Note_on_c, 0, 72, 0
2, 1275, Note_on_c, 0, 67, 0
2, 1324, Note_on_c, 0, 76, 0
2, 1331, Note_on_c, 0, 56, 40
2, 1379, Note_on_c, 0, 46, 0
2, 1407, Note_on_c, 0, 46, 28
2, 1410, Note_on_c, 0, 74, 30
2, 1421, Note_on_c, 0, 56, 0
2, 1434, Note_on_c, 0, 74, 0
2, 1434, Note_on_c, 0, 46, 0
2, 1446, Control_c, 0, 64, 0
2, 1450, Note_on_c, 0, 76, 43
2, 1452, Note_on_c, 0, 45, 48
2, 1453, Note_on_c, 0, 64, 27
2, 1453, Note_on_c, 0, 72, 37
2, 1457, Note_on_c, 0, 69, 24
2, 1460, Note_on_c, 0, 45, 0
2, 1467, Control_c, 0, 64, 127
2, 1473, Note_on_c, 0, 64, 0
2, 1485, Note_on_c, 0, 69, 0
2, 1487, Note_on_c, 0, 72, 0
2, 1491, Note_on_c, 0, 76, 0
2, 1527, Note_on_c, 0, 60, 39
2, 1529, Note_on_c, 0, 55, 40
2, 1529, Note_on_c, 0, 65, 54
2, 1529, Note_on_c, 0, 61, 42
2, 1540, Note_on_c, 0, 65, 0
2, 1540, Control_c, 0, 64, 0
2, 1543, Note_on_c, 0, 60, 0
2, 1545, Note_on_c, 0, 55, 0
2, 1545, Note_on_c, 0, 61, 0
2, 1586, Control_c, 0, 64, 127
2, 1613, Control_c, 0, 64, 0
2, 1650, Note_on_c, 0, 38, 43
2, 1653, Control_c, 0, 64, 127
2, 1657, Note_on_c, 0, 38, 0
2, 1690, Control_c, 0, 64, 0
2, 1703, Note_on_c, 0, 65, 40
2, 1703, Note_on_c, 0, 54, 31
2, 1703, Note_on_c, 0, 50, 40
2, 1705, Note_on_c, 0, 60, 42
2, 1706, Note_on_c, 0, 58, 34
2, 1732, Control_c, 0, 64, 127
2, 1774, Note_on_c, 0, 54, 0
2, 1776, Note_on_c, 0, 58, 0
2, 1777, Note_on_c, 0, 60, 0
2, 1781, Note_on_c, 0, 65, 0
2, 1798, Note_on_c, 0, 50, 0
2, 1803, Control_c, 0, 64, 0
2, 1805, Note_on_c, 0, 44, 31
2, 1806, Note_on_c, 0, 63, 33
2, 1807, Note_on_c, 0, 54, 23
2, 1811, Note_on_c, 0, 60, 36
2, 1813, Note_on_c, 0, 58, 26
2, 1826, Control_c, 0, 64, 127
2, 1853, Note_on_c, 0, 63, 0
2, 1861, Note_on_c, 0, 58, 0
2, 1863, Note_on_c, 0, 54, 0
2, 1867, Note_on_c, 0, 60, 0
2, 1887, Note_on_c, 0, 62, 39
2, 1888, Note_on_c, 0, 44, 0
2, 1892, Note_on_c, 0, 53, 33
2, 1892, Control_c, 0, 64, 0
2, 1893, Note_on_c, 0, 43, 43
2, 1895, Note_on_c, 0, 59, 29
2, 1913, Note_on_c, 0, 53, 0
2, 1920, Note_on_c, 0, 43, 0
2, 1925, Control_c, 0, 64, 127
2, 1926, Note_on_c, 0, 59, 0
2, 1934, Note_on_c, 0, 62, 0
2, 1978, Note_on_c, 0, 49, 43
2, 1978, Note_on_c, 0, 61, 71
2, 1980, Control_c, 0, 64, 0
2, 2005, Note_on_c, 0, 61, 0
2, 2007, Note_on_c, 0, 49, 0
2, 2013, Note_on_c, 0, 62, 46
2, 2014, Note_on_c, 0, 50, 60
2, 2040, Note_on_c, 0, 62, 0
2, 2051, Note_on_c, 0, 50, 0
2, 2056, Note_on_c, 0, 65, 71
2, 2060, Note_on_c, 0, 53, 71
2, 2103, Note_on_c, 0, 65, 0
2, 2119, Note_on_c, 0, 53, 0
2, 2126, Note_on_c, 0, 67, 84
2, 2128, Note_on_c, 0, 55, 72
2, 2128, Control_c, 0, 64, 127
2, 2146, Note_on_c, 0, 67, 0
2, 2168, Control_c, 0, 64, 0
2, 2169, Note_on_c, 0, 55, 0
2, 2172, Note_on_c, 0, 57, 67
2, 2172, Note_on_c, 0, 65, 67
2, 2173, Note_on_c, 0, 69, 71
2, 2173, Note_on_c, 0, 64, 60
2, 2175, Note_on_c, 0, 60, 65
2, 2227, Note_on_c, 0, 60, 0
2, 2232, Note_on_c, 0, 69, 0
2, 2235, Note_on_c, 0, 65, 0
2, 2240, Control_c, 0, 64, 127
2, 2241, Note_on_c, 0, 57, 0
2, 2243, Note_on_c, 0, 55, 57
2, 2247, Note_on_c, 0, 67, 45
2, 2249, Note_on_c, 0, 60, 24
2, 2260, Note_on_c, 0, 60, 0
2, 2268, Control_c, 0, 64, 0
2, 2269, Note_on_c, 0, 64, 0
2, 2271, Note_on_c, 0, 67, 0
2, 2280, Note_on_c, 0, 55, 0
2, 2288, Note_on_c, 0, 53, 32
2, 2289, Note_on_c, 0, 65, 43
2, 2297, Control_c, 0, 64, 127
2, 2328, Note_on_c, 0, 65, 0
2, 2337, Note_on_c, 0, 53, 0
2, 2352, Note_on_c, 0, 54, 30
2, 2357, Note_on_c, 0, 67, 49
2, 2358, Note_on_c, 0, 58, 48
2, 2359, Note_on_c, 0, 65, 55
2, 2360, Control_c, 0, 64, 0
2, 2360, Note_on_c, 0, 62, 49
2, 2361, Note_on_c, 0, 54, 0
2, 2361, Note_on_c, 0, 55, 44
2, 2407, Control_c, 0, 64, 127
2, 2468, Note_on_c, 0, 55, 0
2, 2477, Note_on_c, 0, 43, 35
2, 2503, Note_on_c, 0, 43, 0
2, 2525, Note_on_c, 0, 43, 38
2, 2534, Note_on_c, 0, 43, 0
2, 2538, Note_on_c, 0, 58, 0
2, 2561, Note_on_c, 0, 67, 0
2, 2567, Note_on_c, 0, 62, 0
2, 2568, Note_on_c, 0, 65, 0
2, 2649, Note_on_c, 0, 56, 62
2, 2649, Note_on_c, 0, 46, 63
2, 2650, Control_c, 0, 64, 0
2, 2650, Note_on_c, 0, 67, 74
2, 2650, Note_on_c, 0, 64, 80
2, 2650, Note_on_c, 0, 60, 84
2, 2689, Control_c, 0, 64, 127
2, 2731, Note_on_c, 0, 65, 82
2, 2743, Note_on_c, 0, 64, 0
2, 2767, Note_on_c, 0, 60, 0
2, 2793, Note_on_c, 0, 67, 0
2, 2798, Note_on_c, 0, 65, 0
2, 2810, Note_on_c, 0, 64, 57
2, 2818, Note_on_c, 0, 56, 0
2, 2832, Note_on_c, 0, 64, 0
2, 2857, Note_on_c, 0, 46, 0
2, 2883, Note_on_c, 0, 62, 60
2, 2885, Control_c, 0, 64, 0
2, 2887, Note_on_c, 0, 60, 51
2, 2888, Note_on_c, 0, 55, 36
2, 2889, Note_on_c, 0, 45, 37
2, 2917, Control_c, 0, 64, 127
2, 2920, Note_on_c, 0, 60, 0
2, 2922, Note_on_c, 0, 62, 0
2, 2968, Note_on_c, 0, 74, 77
2, 2994, Note_on_c, 0, 45, 0
2, 3011, Note_on_c, 0, 55, 0
2, 3012, Note_on_c, 0, 74, 0
2, 3048, Note_on_c, 0, 74, 66
2, 3124, Control_c, 0, 64, 0
2, 3126, Note_on_c, 0, 50, 30
2, 3192, Note_on_c, 0, 71, 33
2, 3192, Note_on_c, 0, 60, 41
2, 3193, Note_on_c, 0, 68, 42
2, 3193, Note_on_c, 0, 64, 36
2, 3196, Note_on_c, 0, 54, 35
2, 3199, Note_on_c, 0, 68, 0
2, 3201, Note_on_c, 0, 64, 0
2, 3204, Note_on_c, 0, 60, 0
2, 3206, Note_on_c, 0, 54, 0
2, 3207, Note_on_c, 0, 71, 0
2, 3270, Note_on_c, 0, 64, 36
2, 3272, Note_on_c, 0, 71, 29
2, 3272, Note_on_c, 0, 68, 43
2, 3273, Note_on_c, 0, 60, 35
2, 3273, Note_on_c, 0, 54, 33
2, 3292, Control_c, 0, 64, 127
2, 3303, Note_on_c, 0, 50, 0
2, 3316, Note_on_c, 0, 54, 0
2, 3343, Note_on_c, 0, 64, 0
2, 3347, Control_c, 0, 64, 0
2, 3350, Note_on_c, 0, 71, 0
2, 3358, Note_on_c, 0, 53, 40
2, 3369, Note_on_c, 0, 60, 0
2, 3377, Note_on_c, 0, 68, 0
2, 3388, Control_c, 0, 64, 127
2, 3397, Control_c, 0, 64, 0
2, 3426, Note_on_c, 0, 65, 46
2, 3428, Note_on_c, 0, 70, 48
2, 3429, Note_on_c, 0, 62, 37
2, 3430, Note_on_c, 0, 67, 34
2, 3435, Note_on_c, 0, 65, 0
2, 3437, Note_on_c, 0, 67, 0
2, 3439, Note_on_c, 0, 62, 0
2, 3442, Note_on_c, 0, 70, 0
2, 3467, Control_c, 0, 64, 127
2, 3480, Control_c, 0, 64, 0
2, 3508, Note_on_c, 0, 65, 55
2, 3508, Note_on_c, 0, 70, 47
2, 3511, Note_on_c, 0, 67, 47
2, 3512, Note_on_c, 0, 62, 36
2, 3514, Note_on_c, 0, 58, 33
2, 3516, Control_c, 0, 64, 127
2, 3544, Note_on_c, 0, 53, 0
2, 3576, Note_on_c, 0, 67, 0
2, 3577, Control_c, 0, 64, 0
2, 3580, Note_on_c, 0, 62, 0
2, 3584, Note_on_c, 0, 65, 0
2, 3590, Note_on_c, 0, 70, 0
2, 3596, Control_c, 0, 64, 127
2, 3597, Note_on_c, 0, 52, 49
2, 3605, Note_on_c, 0, 58, 0
2, 3649, Note_on_c, 0, 74, 0
2, 3666, Note_on_c, 0, 73, 38
2, 3668, Note_on_c, 0, 61, 42
2, 3669, Note_on_c, 0, 68, 49
2, 3669, Note_on_c, 0, 64, 44
2, 3669, Note_on_c, 0, 70, 51
2, 3673, Note_on_c, 0, 58, 35
2, 3677, Control_c, 0, 64, 0
2, 3703, Control_c, 0, 64, 127
2, 3762, Note_on_c, 0, 52, 0
2, 3770, Note_on_c, 0, 61, 0
2, 3772, Note_on_c, 0, 64, 0
2, 3777, Note_on_c, 0, 58, 0
2, 3788, Note_on_c, 0, 73, 0
2, 3800, Note_on_c, 0, 68, 0
2, 3801, Note_on_c, 0, 70, 0
2, 3840, Control_c, 0, 64, 0
2, 3845, Note_on_c, 0, 53, 35
2, 3846, Note_on_c, 0, 72, 44
2, 3847, Note_on_c, 0, 67, 36
2, 3848, Note_on_c, 0, 64, 34
2, 3848, Note_on_c, 0, 60, 38
2, 3848, Note_on_c, 0, 69, 47
2, 3864, Control_c, 0, 64, 127
2, 3867, Note_on_c, 0, 64, 0
2, 3868, Note_on_c, 0, 69, 0
2, 3871, Note_on_c, 0, 67, 0
2, 3876, Note_on_c, 0, 72, 0
2, 3884, Note_on_c, 0, 60, 0
2, 3920, Note_on_c, 0, 74, 71
2, 3923, Note_on_c, 0, 62, 55
2, 3924, Note_on_c, 0, 65, 72
2, 3924, Note_on_c, 0, 69, 74
2, 3940, Note_on_c, 0, 65, 0
2, 3947, Note_on_c, 0, 69, 0
2, 3948, Note_on_c, 0, 62, 0
2, 3949, Note_on_c, 0, 74, 0
2, 3970, Note_on_c, 0, 76, 76
2, 3971, Note_on_c, 0, 64, 60
2, 3972, Note_on_c, 0, 69, 77
2, 3973, Note_on_c, 0, 67, 72
2, 3973, Note_on_c, 0, 72, 68
2, 3998, Note_on_c, 0, 69, 0
2, 4003, Note_on_c, 0, 72, 0
2, 4004, Note_on_c, 0, 64, 0
2, 4004, Note_on_c, 0, 67, 0
2, 4009, Note_on_c, 0, 76, 0
2, 4044, Note_on_c, 0, 77, 78
2, 4046, Note_on_c, 0, 64, 58
2, 4046, Note_on_c, 0, 67, 58
2, 4048, Note_on_c, 0, 71, 54
2, 4049, Note_on_c, 0, 74, 27
2, 4054, Note_on_c, 0, 71, 0
2, 4055, Note_on_c, 0, 74, 0
2, 4062, Note_on_c, 0, 67, 0
2, 4063, Note_on_c, 0, 77, 0
2, 4074, Note_on_c, 0, 64, 0
2, 4085, Note_on_c, 0, 53, 0
2, 4096, Note_on_c, 0, 76, 66
2, 4097, Control_c, 0, 64, 0
2, 4098, Note_on_c, 0, 72, 53
2, 4099, Note_on_c, 0, 68, 59
2, 4099, Note_on_c, 0, 58, 47
2, 4100, Note_on_c, 0, 64, 40
2, 4130, Control_c, 0, 64, 127
2, 4147, Note_on_c, 0, 58, 0
2, 4167, Note_on_c, 0, 72, 0
2, 4168, Note_on_c, 0, 76, 0
2, 4178, Note_on_c, 0, 64, 0
2, 4186, Note_on_c, 0, 68, 0
2, 4211, Note_on_c, 0, 74, 34
2, 4212, Note_on_c, 0, 58, 37
2, 4212, Note_on_c, 0, 70, 42
2, 4213, Note_on_c, 0, 68, 37
2, 4213, Note_on_c, 0, 48, 36
2, 4213, Note_on_c, 0, 64, 29
2, 4214, Control_c, 0, 64, 0
2, 4242, Control_c, 0, 64, 127
2, 4263, Note_on_c, 0, 64, 0
2, 4268, Note_on_c, 0, 74, 0
2, 4270, Note_on_c, 0, 58, 0
2, 4274, Note_on_c, 0, 68, 0
2, 4274, Note_on_c, 0, 70, 0
2, 4329, Note_on_c, 0, 76, 45
2, 4330, Note_on_c, 0, 57, 40
2, 4330, Control_c, 0, 64, 0
2, 4333, Note_on_c, 0, 64, 40
2, 4333, Note_on_c, 0, 72, 47
2, 4333, Note_on_c, 0, 69, 49
2, 4359, Control_c, 0, 64, 127
2, 4372, Note_on_c, 0, 76, 0
2, 4373, Note_on_c, 0, 72, 0
2, 4376, Note_on_c, 0, 69, 0
2, 4380, Note_on_c, 0, 48, 0
2, 4384, Note_on_c, 0, 64, 0
2, 4446, Note_on_c, 0, 69, 49
2, 4447, Note_on_c, 0, 48, 36
2, 4448, Note_on_c, 0, 60, 40
2, 4449, Control_c, 0, 64, 0
2, 4449, Note_on_c, 0, 65, 48
2, 4461, Control_c, 0, 64, 127
2, 4469, Note_on_c, 0, 57, 0
2, 4476, Note_on_c, 0, 69, 0
2, 4483, Note_on_c, 0, 65, 0
2, 4484, Note_on_c, 0, 48, 0
2, 4491, Note_on_c, 0, 60, 0
2, 4567, Note_on_c, 0, 24, 48
2, 4569, Note_on_c, 0, 64, 43
2, 4569, Control_c, 0, 64, 0
2, 4571, Note_on_c, 0, 61, 42
2, 4571, Note_on_c, 0, 58, 25
2, 4573, Note_on_c, 0, 36, 19
2, 4589, Note_on_c, 0, 24, 0
2, 4597, Control_c, 0, 64, 127
2, 4603, Note_on_c, 0, 36, 0
2, 4605, Note_on_c, 0, 64, 0
2, 4616, Note_on_c, 0, 58, 0
2, 4617, Note_on_c, 0, 61, 0
2, 4686, Note_on_c, 0, 58, 44
2, 4687, Note_on_c, 0, 42, 46
2, 4687, Note_on_c, 0, 61, 47
2, 4687, Note_on_c, 0, 56, 42
2, 4693, Note_on_c, 0, 52, 14
2, 4695, Note_on_c, 0, 49, 29
2, 4696, Control_c, 0, 64, 0
2, 4728, Control_c, 0, 64, 127
2, 4748, Note_on_c, 0, 52, 0
2, 4756, Note_on_c, 0, 61, 0
2, 4763, Note_on_c, 0, 42, 0
2, 4765, Note_on_c, 0, 58, 0
2, 4766, Note_on_c, 0, 56, 0
2, 4767, Note_on_c, 0, 49, 0
2, 4802, Control_c, 0, 64, 0
2, 4805, Note_on_c, 0, 52, 45
2, 4806, Note_on_c, 0, 60, 53
2, 4807, Note_on_c, 0, 41, 36
2, 4808, Note_on_c, 0, 48, 32
2, 4812, Note_on_c, 0, 52, 0
2, 4812, Note_on_c, 0, 55, 25
2, 4819, Note_on_c, 0, 55, 0
2, 4823, Note_on_c, 0, 41, 0
2, 4825, Control_c, 0, 64, 127
2, 4829, Note_on_c, 0, 60, 0
2, 4829, Note_on_c, 0, 48, 0
2, 4887, Note_on_c, 0, 72, 71
2, 4916, Note_on_c, 0, 72, 0
2, 4922, Note_on_c, 0, 57, 36
2, 4923, Control_c, 0, 64, 0
2, 4924, Note_on_c, 0, 74, 71
2, 4927, Note_on_c, 0, 67, 26
2, 4930, Note_on_c, 0, 62, 24
2, 4935, Note_on_c, 0, 67, 0
2, 4943, Note_on_c, 0, 62, 0
2, 4944, Note_on_c, 0, 57, 0
2, 4948, Control_c, 0, 64, 127
2, 4951, Note_on_c, 0, 74, 0
2, 4961, Note_on_c, 0, 76, 66
2, 4986, Note_on_c, 0, 76, 0
2, 5002, Note_on_c, 0, 77, 89
2, 5033, Note_on_c, 0, 77, 0
2, 5039, Note_on_c, 0, 67, 43
2, 5040, Note_on_c, 0, 62, 44
2, 5040, Control_c, 0, 64, 0
2, 5041, Note_on_c, 0, 76, 74
2, 5042, Note_on_c, 0, 56, 39
2, 5069, Control_c, 0, 64, 127
2, 5111, Note_on_c, 0, 67, 0
2, 5120, Note_on_c, 0, 62, 0
2, 5127, Note_on_c, 0, 56, 0
2, 5164, Note_on_c, 0, 65, 32
2, 5164, Note_on_c, 0, 62, 26
2, 5165, Note_on_c, 0, 74, 50
2, 5166, Note_on_c, 0, 76, 0
2, 5166, Note_on_c, 0, 56, 30
2, 5168, Control_c, 0, 64, 0
2, 5188, Control_c, 0, 64, 127
2, 5193, Note_on_c, 0, 65, 0
2, 5195, Note_on_c, 0, 62, 0
2, 5210, Note_on_c, 0, 56, 0
2, 5221, Note_on_c, 0, 74, 0
2, 5282, Control_c, 0, 64, 0
2, 5285, Note_on_c, 0, 45, 27
2, 5285, Note_on_c, 0, 76, 46
2, 5295, Note_on_c, 0, 55, 18
2, 5297, Note_on_c, 0, 45, 0
2, 5300, Note_on_c, 0, 76, 0
2, 5304, Note_on_c, 0, 55, 0
2, 5342, Control_c, 0, 64, 127
2, 5403, Control_c, 0, 64, 0
2, 5404, Note_on_c, 0, 69, 53
2, 5405, Note_on_c, 0, 65, 53
2, 5406, Note_on_c, 0, 61, 29
2, 5423, Note_on_c, 0, 65, 0
2, 5424, Note_on_c, 0, 69, 0
2, 5429, Note_on_c, 0, 61, 0
2, 5478, Note_on_c, 0, 38, 45
2, 5485, Note_on_c, 0, 38, 0
2, 5487, Control_c, 0, 64, 127
2, 5505, Control_c, 0, 64, 0
2, 5533, Note_on_c, 0, 65, 51
2, 5534, Note_on_c, 0, 54, 37
2, 5537, Note_on_c, 0, 58, 42
2, 5538, Note_on_c, 0, 60, 44
2, 5546, Note_on_c, 0, 60, 0
2, 5546, Note_on_c, 0, 54, 0
2, 5549, Note_on_c, 0, 65, 0
2, 5550, Note_on_c, 0, 58, 0
2, 5593, Note_on_c, 0, 32, 48
2, 5615, Note_on_c, 0, 32, 0
2, 5650, Note_on_c, 0, 32, 51
2, 5667, Note_on_c, 0, 32, 0
2, 5709, Note_on_c, 0, 32, 46
2, 5743, Note_on_c, 0, 32, 0
2, 5770, Note_on_c, 0, 43, 37
2, 5771, Note_on_c, 0, 31, 38
2, 5781, Note_on_c, 0, 31, 0
2, 5795, Note_on_c, 0, 43, 0
2, 5805, Control_c, 0, 64, 127
2, 5880, Control_c, 0, 64, 0
2, 5880, Note_on_c, 0, 50, 47
2, 5881, Note_on_c, 0, 62, 75
2, 5899, Note_on_c, 0, 62, 0
2, 5906, Note_on_c, 0, 50, 0
2, 5911, Note_on_c, 0, 64, 64
2, 5913, Note_on_c, 0, 52, 44
2, 5927, Note_on_c, 0, 64, 0
2, 5933, Note_on_c, 0, 52, 0
2, 5939, Note_on_c, 0, 65, 59
2, 5950, Note_on_c, 0, 53, 24
2, 5956, Note_on_c, 0, 65, 0
2, 5965, Control_c, 0, 64, 127
2, 5966, Note_on_c, 0, 53, 0
2, 5973, Note_on_c, 0, 69, 91
2, 5976, Note_on_c, 0, 57, 56
2, 5993, Note_on_c, 0, 57, 0
2, 5994, Control_c, 0, 64, 0
2, 5996, Note_on_c, 0, 69, 0
2, 6006, Note_on_c, 0, 55, 61
2, 6006, Note_on_c, 0, 67, 77
2, 6032, Note_on_c, 0, 55, 0
2, 6044, Note_on_c, 0, 67, 0
2, 6051, Control_c, 0, 64, 127
2, 6093, Control_c, 0, 64, 0
2, 6119, Note_on_c, 0, 43, 50
2, 6131, Control_c, 0, 64, 127
2, 6200, Note_on_c, 0, 65, 51
2, 6201, Note_on_c, 0, 59, 54
2, 6201, Note_on_c, 0, 53, 39
2, 6214, Note_on_c, 0, 53, 0
2, 6215, Note_on_c, 0, 59, 0
2, 6246, Control_c, 0, 64, 0
2, 6247, Note_on_c, 0, 67, 43
2, 6248, Note_on_c, 0, 58, 43
2, 6250, Note_on_c, 0, 62, 44
2, 6251, Note_on_c, 0, 53, 34
2, 6276, Control_c, 0, 64, 127
2, 6290, Note_on_c, 0, 62, 0
2, 6298, Note_on_c, 0, 67, 0
2, 6301, Note_on_c, 0, 58, 0
2, 6304, Note_on_c, 0, 65, 0
2, 6310, Note_on_c, 0, 53, 0
2, 6364, Note_on_c, 0, 62, 44
2, 6367, Control_c, 0, 64, 0
2, 6370, Note_on_c, 0, 55, 33
2, 6370, Note_on_c, 0, 58, 25
2, 6372, Note_on_c, 0, 50, 34
2, 6385, Control_c, 0, 64, 127
2, 6387, Note_on_c, 0, 43, 0
2, 6388, Note_on_c, 0, 55, 0
2, 6392, Note_on_c, 0, 50, 0
2, 6401, Note_on_c, 0, 58, 0
2, 6401, Note_on_c, 0, 62, 0
2, 6485, Note_on_c, 0, 58, 36
2, 6486, Note_on_c, 0, 68, 46
2, 6487, Note_on_c, 0, 64, 43
2, 6487, Note_on_c, 0, 76, 40
2, 6488, Note_on_c, 0, 72, 53
2, 6488, Control_c, 0, 64, 0
2, 6490, Note_on_c, 0, 48, 38
2, 6520, Control_c, 0, 64, 127
2, 6542, Note_on_c, 0, 76, 0
2, 6543, Note_on_c, 0, 58, 0
2, 6546, Note_on_c, 0, 72, 0
2, 6574, Note_on_c, 0, 64, 0
2, 6598, Note_on_c, 0, 68, 0
2, 6606, Note_on_c, 0, 58, 43
2, 6622, Note_on_c, 0, 58, 0
2, 6633, Note_on_c, 0, 48, 0
2, 6729, Note_on_c, 0, 39, 46
2, 6729, Note_on_c, 0, 65, 53
2, 6732, Note_on_c, 0, 60, 54
2, 6732, Note_on_c, 0, 55, 37
2, 6735, Control_c, 0, 64, 0
2, 6736, Note_on_c, 0, 46, 28
2, 6762, Control_c, 0, 64, 127
2, 6786, Note_on_c, 0, 55, 0
2, 6792, Note_on_c, 0, 39, 0
2, 6806, Note_on_c, 0, 46, 0
2, 6819, Note_on_c, 0, 60, 0
2, 6831, Note_on_c, 0, 65, 0
2, 6851, Note_on_c, 0, 65, 26
2, 6853, Note_on_c, 0, 56, 43
2, 6853, Note_on_c, 0, 61, 50
2, 6856, Control_c, 0, 64, 0
2, 6857, Note_on_c, 0, 47, 32
2, 6858, Note_on_c, 0, 40, 32
2, 6888, Control_c, 0, 64, 127
2, 6898, Note_on_c, 0, 47, 0
2, 6899, Note_on_c, 0, 40, 0
2, 6912, Note_on_c, 0, 56, 0
2, 6922, Note_on_c, 0, 65, 0
2, 6923, Note_on_c, 0, 61, 0
2, 6971, Note_on_c, 0, 62, 41
2, 6972, Control_c, 0, 64, 0
2, 6974, Note_on_c, 0, 48, 34
2, 6975, Note_on_c, 0, 57, 30
2, 6975, Note_on_c, 0, 65, 39
2, 6977, Note_on_c, 0, 41, 24
2, 7004, Control_c, 0, 64, 127
2, 7029, Note_on_c, 0, 48, 0
2, 7030, Note_on_c, 0, 57, 0
2, 7043, Note_on_c, 0, 62, 0
2, 7086, Note_on_c, 0, 57, 33
2, 7087, Note_on_c, 0, 60, 40
2, 7092, Note_on_c, 0, 41, 0
2, 7101, Note_on_c, 0, 57, 0
2, 7113, Note_on_c, 0, 60, 0
2, 7118, Note_on_c, 0, 65, 0
2, 7165, Note_on_c, 0, 74, 71
2, 7169, Note_on_c, 0, 68, 58
2, 7170, Note_on_c, 0, 64, 44
2, 7170, Note_on_c, 0, 58, 63
2, 7171, Note_on_c, 0, 65, 45
2, 7190, Note_on_c, 0, 65, 0
2, 7195, Note_on_c, 0, 64, 0
2, 7197, Note_on_c, 0, 74, 0
2, 7205, Note_on_c, 0, 68, 0
2, 7205, Note_on_c, 0, 58, 0
2, 7210, Control_c, 0, 64, 0
2, 7215, Note_on_c, 0, 72, 66
2, 7218, Note_on_c, 0, 62, 31
2, 7220, Note_on_c, 0, 67, 46
2, 7221, Note_on_c, 0, 57, 46
2, 7241, Control_c, 0, 64, 127
2, 7256, Note_on_c, 0, 72, 0
2, 7260, Note_on_c, 0, 67, 0
2, 7271, Note_on_c, 0, 62, 0
2, 7309, Note_on_c, 0, 57, 0
2, 7327, Note_on_c, 0, 69, 47
2, 7327, Note_on_c, 0, 53, 43
2, 7328, Note_on_c, 0, 65, 45
2, 7330, Control_c, 0, 64, 0
2, 7330, Note_on_c, 0, 60, 24
2, 7336, Note_on_c, 0, 62, 27
2, 7348, Control_c, 0, 64, 127
2, 7350, Note_on_c, 0, 53, 0
2, 7366, Note_on_c, 0, 69, 0
2, 7367, Note_on_c, 0, 65, 0
2, 7373, Note_on_c, 0, 60, 0
2, 7374, Note_on_c, 0, 62, 0
2, 7443, Note_on_c, 0, 50, 47
2, 7444, Note_on_c, 0, 65, 47
2, 7446, Note_on_c, 0, 57, 24
2, 7447, Note_on_c, 0, 62, 31
2, 7447, Control_c, 0, 64, 0
2, 7448, Note_on_c, 0, 60, 42
2, 7476, Control_c, 0, 64, 127
2, 7519, Note_on_c, 0, 60, 0
2, 7519, Note_on_c, 0, 57, 0
2, 7535, Note_on_c, 0, 50, 0
2, 7536, Note_on_c, 0, 62, 0
2, 7548, Note_on_c, 0, 65, 0
2, 7565, Note_on_c, 0, 64, 47
2, 7565, Note_on_c, 0, 42, 40
2, 7566, Control_c, 0, 64, 0
2, 7570, Note_on_c, 0, 55, 31
2, 7573, Note_on_c, 0, 60, 26
2, 7590, Control_c, 0, 64, 127
2, 7605, Note_on_c, 0, 55, 0
2, 7610, Note_on_c, 0, 60, 0
2, 7634, Note_on_c, 0, 42, 0
2, 7644, Note_on_c, 0, 48, 33
2, 7668, Note_on_c, 0, 64, 0
2, 7672, Note_on_c, 0, 48, 0
2, 7673, Control_c, 0, 64, 0
2, 7683, Note_on_c, 0, 63, 52
2, 7683, Note_on_c, 0, 51, 39
2, 7688, Note_on_c, 0, 41, 30
2, 7693, Control_c, 0, 64, 127
2, 7695, Note_on_c, 0, 41, 0
2, 7698, Note_on_c, 0, 63, 0
2, 7704, Note_on_c, 0, 51, 0
2, 7764, Note_on_c, 0, 77, 40
2, 7764, Note_on_c, 0, 76, 56
2, 7789, Note_on_c, 0, 76, 0
2, 7792, Note_on_c, 0, 77, 0
2, 7802, Note_on_c, 0, 63, 38
2, 7803, Control_c, 0, 64, 0
2, 7805, Note_on_c, 0, 79, 52
2, 7806, Note_on_c, 0, 57, 24
2, 7817, Note_on_c, 0, 57, 0
2, 7818, Note_on_c, 0, 63, 0
2, 7830, Control_c, 0, 64, 127
2, 7855, Note_on_c, 0, 79, 0
2, 7921, Control_c, 0, 64, 0
2, 7922, Note_on_c, 0, 41, 48
2, 7926, Note_on_c, 0, 82, 78
2, 7928, Note_on_c, 0, 41, 0
2, 7928, Note_on_c, 0, 70, 70
2, 7968, Control_c, 0, 64, 127
2, 7982, Note_on_c, 0, 82, 0
2, 7985, Note_on_c, 0, 70, 0
2, 8006, Note_on_c, 0, 81, 68
2, 8009, Note_on_c, 0, 69, 34
2, 8025, Note_on_c, 0, 69, 0
2, 8028, Note_on_c, 0, 81, 0
2, 8037, Control_c, 0, 64, 0
2, 8043, Note_on_c, 0, 65, 26
2, 8043, Note_on_c, 0, 63, 25
2, 8044, Note_on_c, 0, 57, 29
2, 8047, Note_on_c, 0, 65, 0
2, 8051, Note_on_c, 0, 63, 0
2, 8056, Note_on_c, 0, 57, 0
2, 8096, Control_c, 0, 64, 127
2, 8122, Note_on_c, 0, 75, 50
2, 8140, Note_on_c, 0, 75, 0
2, 8154, Control_c, 0, 64, 0
2, 8158, Note_on_c, 0, 79, 55
2, 8159, Note_on_c, 0, 51, 28
2, 8159, Note_on_c, 0, 67, 50
2, 8160, Note_on_c, 0, 75, 48
2, 8161, Note_on_c, 0, 72, 53
2, 8186, Note_on_c, 0, 51, 0
2, 8206, Note_on_c, 0, 72, 0
2, 8206, Note_on_c, 0, 67, 0
2, 8214, Note_on_c, 0, 79, 0
2, 8216, Note_on_c, 0, 75, 0
2, 8224, Control_c, 0, 64, 127
2, 8238, Note_on_c, 0, 75, 37
2, 8239, Note_on_c, 0, 67, 36
2, 8239, Note_on_c, 0, 79, 41
2, 8240, Note_on_c, 0, 72, 50
2, 8248, Note_on_c, 0, 67, 0
2, 8250, Note_on_c, 0, 75, 0
2, 8253, Note_on_c, 0, 79, 0
2, 8254, Note_on_c, 0, 72, 0
2, 8269, Control_c, 0, 64, 0
2, 8276, Note_on_c, 0, 63, 39
2, 8277, Note_on_c, 0, 57, 46
2, 8288, Note_on_c, 0, 63, 0
2, 8295, Note_on_c, 0, 57, 0
2, 8343, Control_c, 0, 64, 127
2, 8361, Note_on_c, 0, 41, 30
2, 8380, Note_on_c, 0, 41, 0
2, 8391, Control_c, 0, 64, 0
2, 8394, Note_on_c, 0, 67, 49
2, 8396, Note_on_c, 0, 63, 42
2, 8396, Note_on_c, 0, 51, 27
2, 8400, Note_on_c, 0, 57, 30
2, 8400, Note_on_c, 0, 60, 30
2, 8405, Note_on_c, 0, 41, 12
2, 8422, Note_on_c, 0, 41, 0
2, 8439, Control_c, 0, 64, 127
2, 8457, Note_on_c, 0, 51, 0
2, 8473, Note_on_c, 0, 57, 0
2, 8473, Note_on_c, 0, 67, 0
2, 8483, Note_on_c, 0, 60, 0
2, 8487, Note_on_c, 0, 63, 0
2, 8510, Note_on_c, 0, 51, 61
2, 8511, Note_on_c, 0, 45, 65
2, 8514, Control_c, 0, 64, 0
2, 8543, Control_c, 0, 64, 127
2, 8557, Note_on_c, 0, 45, 0
2, 8564, Note_on_c, 0, 51, 0
2, 8629, Control_c, 0, 64, 0
2, 8635, Note_on_c, 0, 46, 36
2, 8640, Note_on_c, 0, 65, 51
2, 8644, Note_on_c, 0, 57, 30
2, 8662, Note_on_c, 0, 46, 0
2, 8666, Control_c, 0, 64, 127
2, 8675, Note_on_c, 0, 57, 0
2, 8698, Note_on_c, 0, 65, 0
2, 8717, Note_on_c, 0, 67, 77
2, 8748, Note_on_c, 0, 67, 0
2, 8757, Control_c, 0, 64, 0
2, 8759, Note_on_c, 0, 58, 33
2, 8759, Note_on_c, 0, 69, 78
2, 8777, Control_c, 0, 64, 127
2, 8784, Note_on_c, 0, 58, 0
2, 8789, Note_on_c, 0, 69, 0
2, 8833, Note_on_c, 0, 70, 67
2, 8842, Note_on_c, 0, 48, 25
2, 8850, Note_on_c, 0, 70, 0
2, 8877, Note_on_c, 0, 48, 0
2, 8878, Note_on_c, 0, 69, 74
2, 8883, Control_c, 0, 64, 0
2, 8884, Note_on_c, 0, 65, 71
2, 8888, Note_on_c, 0, 51, 35
2, 8889, Note_on_c, 0, 67, 32
2, 8890, Note_on_c, 0, 41, 37
2, 8891, Note_on_c, 0, 61, 52
2, 8900, Note_on_c, 0, 57, 43
2, 8932, Control_c, 0, 64, 127
2, 8955, Note_on_c, 0, 51, 0
2, 8988, Note_on_c, 0, 67, 0
2, 9003, Note_on_c, 0, 51, 37
2, 9023, Note_on_c, 0, 41, 0
2, 9044, Note_on_c, 0, 51, 0
2, 9070, Note_on_c, 0, 69, 0
2, 9073, Note_on_c, 0, 57, 0
2, 9076, Note_on_c, 0, 65, 0
2, 9087, Note_on_c, 0, 67, 37
2, 9100, Note_on_c, 0, 61, 0
2, 9122, Note_on_c, 0, 67, 0
2, 9133, Note_on_c, 0, 46, 38
2, 9133, Note_on_c, 0, 69, 37
2, 9138, Control_c, 0, 64, 0
2, 9142, Note_on_c, 0, 55, 19
2, 9176, Note_on_c, 0, 55, 0
2, 9179, Control_c, 0, 64, 127
2, 9246, Note_on_c, 0, 62, 43
2, 9247, Note_on_c, 0, 60, 40
2, 9249, Note_on_c, 0, 55, 33
2, 9257, Note_on_c, 0, 55, 0
2, 9275, Note_on_c, 0, 46, 0
2, 9292, Note_on_c, 0, 60, 0
2, 9303, Note_on_c, 0, 62, 0
2, 9323, Note_on_c, 0, 44, 36
2, 9347, Note_on_c, 0, 69, 0
2, 9353, Note_on_c, 0, 44, 0
2, 9364, Note_on_c, 0, 61, 48
2, 9364, Note_on_c, 0, 45, 43
2, 9365, Note_on_c, 0, 55, 54
2, 9368, Control_c, 0, 64, 0
2, 9403, Control_c, 0, 64, 127
2, 9421, Note_on_c, 0, 55, 0
2, 9447, Note_on_c, 0, 45, 0
2, 9448, Note_on_c, 0, 42, 36
2, 9451, Note_on_c, 0, 61, 0
2, 9475, Note_on_c, 0, 42, 0
2, 9480, Note_on_c, 0, 54, 46
2, 9482, Note_on_c, 0, 44, 35
2, 9483, Note_on_c, 0, 60, 57
2, 9484, Control_c, 0, 64, 0
2, 9523, Control_c, 0, 64, 127
2, 9537, Note_on_c, 0, 60, 0
2, 9539, Note_on_c, 0, 54, 0
2, 9560, Note_on_c, 0, 42, 37
2, 9562, Note_on_c, 0, 44, 0
2, 9596, Note_on_c, 0, 42, 0
2, 9598, Control_c, 0, 64, 0
2, 9598, Note_on_c, 0, 59, 54
2, 9599, Note_on_c, 0, 67, 34
2, 9602, Note_on_c, 0, 43, 43
2, 9603, Note_on_c, 0, 53, 26
2, 9628, Note_on_c, 0, 59, 0
2, 9633, Note_on_c, 0, 53, 0
2, 9635, Note_on_c, 0, 67, 0
2, 9665, Control_c, 0, 64, 127
2, 9678, Note_on_c, 0, 69, 67
2, 9682, Note_on_c, 0, 62, 49
2, 9685, Note_on_c, 0, 57, 29
2, 9698, Note_on_c, 0, 62, 0
2, 9699, Note_on_c, 0, 57, 0
2, 9703, Note_on_c, 0, 69, 0
2, 9719, Note_on_c, 0, 31, 35
2, 9719, Control_c, 0, 64, 0
2, 9725, Note_on_c, 0, 59, 51
2, 9725, Note_on_c, 0, 71, 54
2, 9727, Note_on_c, 0, 31, 0
2, 9741, Note_on_c, 0, 43, 0
2, 9751, Note_on_c, 0, 59, 0
2, 9759, Note_on_c, 0, 71, 0
2, 9767, Control_c, 0, 64, 127
2, 9800, Note_on_c, 0, 72, 62
2, 9801, Note_on_c, 0, 74, 44
2, 9801, Note_on_c, 0, 60, 48
2, 9803, Note_on_c, 0, 50, 43
2, 9807, Note_on_c, 0, 74, 0
2, 9813, Note_on_c, 0, 50, 0
2, 9816, Note_on_c, 0, 60, 0
2, 9817, Note_on_c, 0, 72, 0
2, 9847, Control_c, 0, 64, 0
2, 9848, Note_on_c, 0, 71, 38
2, 9849, Note_on_c, 0, 63, 29
2, 9849, Note_on_c, 0, 59, 44
2, 9852, Note_on_c, 0, 67, 36
2, 9871, Note_on_c, 0, 63, 0
2, 9912, Control_c, 0, 64, 127
2, 9919, Note_on_c, 0, 59, 0
2, 9970, Note_on_c, 0, 44, 48
2, 9970, Note_on_c, 0, 54, 59
2, 9973, Control_c, 0, 64, 0
2, 10002, Control_c, 0, 64, 127
2, 10008, Note_on_c, 0, 67, 0
2, 10053, Note_on_c, 0, 67, 35
2, 10054, Note_on_c, 0, 50, 25
2, 10058, Note_on_c, 0, 71, 0
2, 10058, Note_on_c, 0, 54, 0
2, 10083, Note_on_c, 0, 50, 0
2, 10085, Note_on_c, 0, 44, 0
2, 10085, Note_on_c, 0, 67, 0
2, 10095, Note_on_c, 0, 69, 58
2, 10096, Control_c, 0, 64, 0
2, 10098, Note_on_c, 0, 65, 44
2, 10099, Note_on_c, 0, 43, 36
2, 10101, Note_on_c, 0, 53, 33
2, 10103, Note_on_c, 0, 60, 17
2, 10124, Note_on_c, 0, 43, 0
2, 10127, Control_c, 0, 64, 127
2, 10144, Note_on_c, 0, 53, 0
2, 10156, Note_on_c, 0, 60, 0
2, 10161, Note_on_c, 0, 65, 0
2, 10211, Note_on_c, 0, 65, 48
2, 10211, Note_on_c, 0, 60, 44
2, 10279, Note_on_c, 0, 65, 0
2, 10294, Note_on_c, 0, 60, 0
2, 10294, Note_on_c, 0, 50, 38
2, 10314, Note_on_c, 0, 50, 0
2, 10318, Note_on_c, 0, 69, 0
2, 10328, Note_on_c, 0, 69, 19
2, 10329, Note_on_c, 0, 64, 48
2, 10329, Note_on_c, 0, 59, 51
2, 10329, Note_on_c, 0, 53, 46
2, 10330, Note_on_c, 0, 43, 38
2, 10331, Control_c, 0, 64, 0
2, 10366, Control_c, 0, 64, 127
2, 10397, Note_on_c, 0, 64, 0
2, 10405, Note_on_c, 0, 53, 0
2, 10410, Note_on_c, 0, 59, 0
2, 10453, Note_on_c, 0, 63, 54
2, 10453, Note_on_c, 0, 59, 52
2, 10457, Note_on_c, 0, 53, 46
2, 10458, Control_c, 0, 64, 0
2, 10483, Control_c, 0, 64, 127
2, 10523, Note_on_c, 0, 59, 0
2, 10525, Note_on_c, 0, 43, 0
2, 10527, Note_on_c, 0, 53, 0
2, 10529, Note_on_c, 0, 69, 0
2, 10555, Note_on_c, 0, 63, 0
2, 10571, Note_on_c, 0, 67, 37
2, 10571, Control_c, 0, 64, 0
2, 10572, Note_on_c, 0, 48, 34
2, 10574, Note_on_c, 0, 58, 38
2, 10575, Note_on_c, 0, 55, 43
2, 10577, Note_on_c, 0, 62, 41
2, 10596, Note_on_c, 0, 48, 0
2, 10601, Control_c, 0, 64, 127
2, 10614, Note_on_c, 0, 55, 0
2, 10623, Note_on_c, 0, 58, 0
2, 10633, Note_on_c, 0, 67, 0
2, 10639, Note_on_c, 0, 62, 0
2, 10646, Note_on_c, 0, 62, 24
2, 10646, Note_on_c, 0, 69, 72
2, 10666, Note_on_c, 0, 69, 0
2, 10677, Note_on_c, 0, 62, 0
2, 10686, Note_on_c, 0, 57, 24
2, 10686, Control_c, 0, 64, 0
2, 10691, Note_on_c, 0, 70, 73
2, 10696, Control_c, 0, 64, 127
2, 10711, Note_on_c, 0, 70, 0
2, 10716, Note_on_c, 0, 57, 0
2, 10761, Note_on_c, 0, 74, 76
2, 10787, Note_on_c, 0, 74, 0
2, 10802, Control_c, 0, 64, 0
2, 10804, Note_on_c, 0, 48, 35
2, 10805, Note_on_c, 0, 58, 25
2, 10805, Note_on_c, 0, 62, 35
2, 10806, Note_on_c, 0, 70, 48
2, 10808, Note_on_c, 0, 67, 34
2, 10834, Control_c, 0, 64, 127
2, 10850, Note_on_c, 0, 67, 0
2, 10852, Note_on_c, 0, 58, 0
2, 10859, Note_on_c, 0, 70, 0
2, 10866, Note_on_c, 0, 62, 0
2, 10919, Note_on_c, 0, 69, 51
2, 10921, Note_on_c, 0, 65, 55
2, 10923, Control_c, 0, 64, 0
2, 10923, Note_on_c, 0, 62, 35
2, 10925, Note_on_c, 0, 58, 25
2, 10942, Control_c, 0, 64, 127
2, 10957, Note_on_c, 0, 58, 0
2, 10967, Note_on_c, 0, 48, 0
2, 10970, Note_on_c, 0, 65, 0
2, 10978, Note_on_c, 0, 69, 0
2, 10978, Note_on_c, 0, 62, 0
2, 11038, Note_on_c, 0, 67, 39
2, 11039, Note_on_c, 0, 58, 27
2, 11043, Note_on_c, 0, 55, 29
2, 11044, Note_on_c, 0, 62, 30
2, 11045, Note_on_c, 0, 64, 34
2, 11048, Note_on_c, 0, 48, 25
2, 11049, Note_on_c, 0, 55, 0
2, 11049, Control_c, 0, 64, 0
2, 11057, Note_on_c, 0, 48, 0
2, 11118, Note_on_c, 0, 42, 45
2, 11156, Note_on_c, 0, 42, 0
2, 11165, Note_on_c, 0, 43, 38
2, 11174, Note_on_c, 0, 43, 0
2, 11237, Note_on_c, 0, 24, 45
2, 11238, Control_c, 0, 64, 127
2, 11247, Note_on_c, 0, 24, 0
2, 11285, Control_c, 0, 64, 0
2, 11286, Note_on_c, 0, 42, 60
2, 11308, Control_c, 0, 64, 127
2, 11351, Note_on_c, 0, 42, 0
2, 11363, Note_on_c, 0, 36, 59
2, 11371, Control_c, 0, 64, 0
2, 11410, Control_c, 0, 64, 127
2, 11479, Note_on_c, 0, 58, 0
2, 11487, Note_on_c, 0, 64, 0
2, 11489, Note_on_c, 0, 62, 0
2, 11512, Note_on_c, 0, 67, 0
2, 11526, Note_on_c, 0, 36, 0
2, 11529, Note_on_c, 0, 29, 46
2, 11529, Note_on_c, 0, 60, 48
2, 11530, Control_c, 0, 64, 0
2, 11554, Control_c, 0, 64, 127
2, 11564, Note_on_c, 0, 29, 0
2, 11597, Note_on_c, 0, 60, 0
2, 11608, Note_on_c, 0, 62, 73
2, 11636, Note_on_c, 0, 62, 0
2, 11648, Note_on_c, 0, 57, 43
2, 11649, Note_on_c, 0, 64, 95
2, 11651, Control_c, 0, 64, 0
2, 11663, Control_c, 0, 64, 127
2, 11666, Note_on_c, 0, 53, 20
2, 11686, Note_on_c, 0, 53, 0
2, 11694, Note_on_c, 0, 57, 0
2, 11723, Note_on_c, 0, 64, 0
2, 11726, Note_on_c, 0, 65, 75
2, 11763, Control_c, 0, 64, 0
2, 11766, Note_on_c, 0, 58, 28
2, 11767, Note_on_c, 0, 48, 39
2, 11771, Note_on_c, 0, 65, 0
2, 11772, Note_on_c, 0, 64, 54
2, 11784, Control_c, 0, 64, 127
2, 11786, Note_on_c, 0, 65, 13
2, 11805, Note_on_c, 0, 48, 0
2, 11810, Note_on_c, 0, 65, 0
2, 11811, Note_on_c, 0, 64, 0
2, 11827, Note_on_c, 0, 58, 0
2, 11883, Note_on_c, 0, 73, 71
2, 11884, Note_on_c, 0, 64, 68
2, 11884, Note_on_c, 0, 68, 64
2, 11884, Note_on_c, 0, 70, 62
2, 11886, Note_on_c, 0, 61, 45
2, 11891, Control_c, 0, 64, 0
2, 11923, Control_c, 0, 64, 127
2, 11943, Note_on_c, 0, 61, 0
2, 11946, Note_on_c, 0, 64, 0
2, 11954, Note_on_c, 0, 73, 0
2, 11963, Note_on_c, 0, 70, 0
2, 11964, Note_on_c, 0, 68, 0
2, 12005, Note_on_c, 0, 76, 59
2, 12009, Note_on_c, 0, 69, 50
2, 12010, Note_on_c, 0, 72, 46
2, 12011, Note_on_c, 0, 64, 40
2, 12013, Note_on_c, 0, 60, 34
2, 12014, Control_c, 0, 64, 0
2, 12046, Control_c, 0, 64, 127
2, 12067, Note_on_c, 0, 72, 0
2, 12071, Note_on_c, 0, 76, 0
2, 12071, Note_on_c, 0, 69, 0
2, 12077, Note_on_c, 0, 64, 0
2, 12127, Note_on_c, 0, 60, 0
2, 12130, Note_on_c, 0, 72, 37
2, 12131, Note_on_c, 0, 69, 38
2, 12132, Note_on_c, 0, 64, 24
2, 12135, Note_on_c, 0, 57, 28
2, 12158, Note_on_c, 0, 57, 0
2, 12164, Note_on_c, 0, 69, 0
2, 12175, Note_on_c, 0, 72, 0
2, 12180, Note_on_c, 0, 64, 0
2, 12239, Note_on_c, 0, 68, 39
2, 12243, Note_on_c, 0, 58, 25
2, 12245, Note_on_c, 0, 64, 29
2, 12246, Control_c, 0, 64, 0
2, 12246, Note_on_c, 0, 60, 28
2, 12248, Note_on_c, 0, 48, 26
2, 12269, Control_c, 0, 64, 127
2, 12274, Note_on_c, 0, 58, 0
2, 12275, Note_on_c, 0, 68, 0
2, 12277, Note_on_c, 0, 48, 0
2, 12278, Note_on_c, 0, 64, 0
2, 12289, Note_on_c, 0, 60, 0
2, 12357, Note_on_c, 0, 56, 34
2, 12358, Note_on_c, 0, 52, 26
2, 12359, Note_on_c, 0, 42, 27
2, 12360, Note_on_c, 0, 64, 35
2, 12362, Note_on_c, 0, 60, 44
2, 12363, Control_c, 0, 64, 0
2, 12394, Control_c, 0, 64, 127
2, 12395, Note_on_c, 0, 52, 0
2, 12407, Note_on_c, 0, 60, 0
2, 12421, Note_on_c, 0, 56, 0
2, 12434, Note_on_c, 0, 42, 0
2, 12448, Note_on_c, 0, 48, 24
2, 12450, Note_on_c, 0, 64, 0
2, 12470, Note_on_c, 0, 48, 0
2, 12481, Control_c, 0, 64, 0
2, 12481, Note_on_c, 0, 41, 31
2, 12484, Note_on_c, 0, 60, 54
2, 12484, Note_on_c, 0, 50, 32
2, 12486, Note_on_c, 0, 55, 32
2, 12486, Note_on_c, 0, 57, 37
2, 12510, Control_c, 0, 64, 127
2, 12517, Note_on_c, 0, 50, 0
2, 12523, Note_on_c, 0, 55, 0
2, 12524, Note_on_c, 0, 57, 0
2, 12542, Note_on_c, 0, 60, 0
2, 12561, Note_on_c, 0, 62, 80
2, 12588, Note_on_c, 0, 62, 0
2, 12598, Control_c, 0, 64, 0
2, 12599, Control_c, 0, 64, 127
2, 12600, Note_on_c, 0, 50, 34
2, 12603, Note_on_c, 0, 64, 64
2, 12609, Note_on_c, 0, 41, 0
2, 12615, Note_on_c, 0, 64, 0
2, 12620, Note_on_c, 0, 50, 0
2, 12632, Note_on_c, 0, 65, 71
2, 12652, Note_on_c, 0, 65, 0
2, 12676, Note_on_c, 0, 64, 83
2, 12679, Note_on_c, 0, 46, 50
2, 12680, Note_on_c, 0, 56, 44
2, 12682, Control_c, 0, 64, 0
2, 12703, Note_on_c, 0, 56, 0
2, 12706, Note_on_c, 0, 64, 0
2, 12708, Note_on_c, 0, 46, 0
2, 12754, Note_on_c, 0, 76, 60
2, 12754, Note_on_c, 0, 64, 62
2, 12757, Note_on_c, 0, 69, 53
2, 12757, Note_on_c, 0, 72, 41
2, 12763, Note_on_c, 0, 62, 37
2, 12770, Note_on_c, 0, 62, 0
2, 12771, Note_on_c, 0, 64, 0
2, 12774, Note_on_c, 0, 72, 0
2, 12774, Note_on_c, 0, 69, 0
2, 12776, Note_on_c, 0, 76, 0
2, 12830, Note_on_c, 0, 68, 56
2, 12830, Note_on_c, 0, 46, 34
2, 12831, Note_on_c, 0, 74, 48
2, 12832, Note_on_c, 0, 62, 45
2, 12835, Note_on_c, 0, 56, 25
2, 12850, Note_on_c, 0, 62, 0
2, 12854, Note_on_c, 0, 74, 0
2, 12858, Note_on_c, 0, 68, 0
2, 12860, Note_on_c, 0, 56, 0
2, 12865, Control_c, 0, 64, 127
2, 12876, Note_on_c, 0, 46, 0
2, 12896, Control_c, 0, 64, 0
2, 12910, Note_on_c, 0, 76, 48
2, 12910, Note_on_c, 0, 45, 45
2, 12911, Note_on_c, 0, 64, 46
2, 12913, Note_on_c, 0, 55, 35
2, 12914, Note_on_c, 0, 69, 43
2, 12915, Note_on_c, 0, 72, 36
2, 12922, Note_on_c, 0, 69, 0
2, 12924, Note_on_c, 0, 64, 0
2, 12925, Note_on_c, 0, 45, 0
2, 12927, Note_on_c, 0, 72, 0
2, 12933, Note_on_c, 0, 55, 0
2, 12936, Note_on_c, 0, 76, 0
2, 12992, Note_on_c, 0, 88, 71
2, 12994, Note_on_c, 0, 76, 52
2, 12996, Note_on_c, 0, 81, 37
2, 12998, Note_on_c, 0, 84, 28
2, 13002, Note_on_c, 0, 81, 0
2, 13004, Note_on_c, 0, 84, 0
2, 13006, Note_on_c, 0, 76, 0
2, 13007, Note_on_c, 0, 88, 0
2, 13077, Note_on_c, 0, 64, 26
2, 13080, Note_on_c, 0, 59, 24
2, 13081, Note_on_c, 0, 60, 27
2, 13082, Note_on_c, 0, 55, 24
2, 13088, Note_on_c, 0, 60, 0
2, 13088, Note_on_c, 0, 59, 0
2, 13090, Note_on_c, 0, 64, 0
2, 13096, Note_on_c, 0, 55, 0
2, 13155, Note_on_c, 0, 76, 53
2, 13156, Note_on_c, 0, 50, 36
2, 13157, Note_on_c, 0, 68, 52
2, 13157, Note_on_c, 0, 54, 44
2, 13158, Note_on_c, 0, 60, 40
2, 13159, Note_on_c, 0, 64, 50
2, 13160, Note_on_c, 0, 71, 44
2, 13164, Note_on_c, 0, 60, 0
2, 13166, Note_on_c, 0, 50, 0
2, 13169, Note_on_c, 0, 71, 0
2, 13170, Note_on_c, 0, 64, 0
2, 13171, Note_on_c, 0, 76, 0
2, 13171, Note_on_c, 0, 54, 0
2, 13174, Note_on_c, 0, 68, 0
2, 13240, Note_on_c, 0, 60, 55
2, 13243, Note_on_c, 0, 71, 31
2, 13244, Note_on_c, 0, 54, 40
2, 13244, Note_on_c, 0, 66, 42
2, 13246, Note_on_c, 0, 64, 38
2, 13250, Note_on_c, 0, 60, 0
2, 13251, Note_on_c, 0, 54, 0
2, 13253, Note_on_c, 0, 64, 0
2, 13254, Note_on_c, 0, 66, 0
2, 13255, Note_on_c, 0, 71, 0
2, 13317, Note_on_c, 0, 59, 58
2, 13325, Note_on_c, 0, 44, 26
2, 13338, Control_c, 0, 64, 127
2, 13392, Note_on_c, 0, 44, 0
2, 13435, Note_on_c, 0, 43, 35
2, 13444, Note_on_c, 0, 43, 0
2, 13499, Note_on_c, 0, 59, 0
2, 13518, Note_on_c, 0, 62, 56
2, 13544, Note_on_c, 0, 62, 0
2, 13558, Note_on_c, 0, 64, 51
2, 13563, Control_c, 0, 64, 0
2, 13573, Note_on_c, 0, 64, 0
2, 13593, Note_on_c, 0, 65, 54
2, 13609, Note_on_c, 0, 65, 0
2, 13616, Control_c, 0, 64, 127
2, 13632, Note_on_c, 0, 69, 88
2, 13634, Note_on_c, 0, 50, 39
2, 13655, Note_on_c, 0, 69, 0
2, 13672, Note_on_c, 0, 50, 0
2, 13675, Control_c, 0, 64, 0
2, 13676, Note_on_c, 0, 59, 34
2, 13677, Note_on_c, 0, 67, 37
2, 13679, Note_on_c, 0, 53, 36
2, 13681, Note_on_c, 0, 43, 29
2, 13682, Note_on_c, 0, 64, 32
2, 13705, Control_c, 0, 64, 127
2, 13734, Note_on_c, 0, 64, 0
2, 13742, Note_on_c, 0, 53, 0
2, 13755, Note_on_c, 0, 59, 0
2, 13777, Note_on_c, 0, 67, 0
2, 13796, Note_on_c, 0, 59, 35
2, 13796, Note_on_c, 0, 54, 48
2, 13796, Note_on_c, 0, 65, 55
2, 13798, Control_c, 0, 64, 0
2, 13798, Note_on_c, 0, 62, 28
2, 13821, Control_c, 0, 64, 127
2, 13834, Note_on_c, 0, 54, 0
2, 13835, Note_on_c, 0, 59, 0
2, 13875, Note_on_c, 0, 62, 0
2, 13899, Note_on_c, 0, 65, 0
2, 13909, Control_c, 0, 64, 0
2, 13917, Note_on_c, 0, 67, 36
2, 13919, Note_on_c, 0, 58, 33
2, 13919, Note_on_c, 0, 62, 38
2, 13922, Note_on_c, 0, 53, 36
2, 13926, Note_on_c, 0, 43, 0
2, 13927, Note_on_c, 0, 58, 0
2, 13927, Control_c, 0, 64, 127
2, 13937, Note_on_c, 0, 67, 0
2, 13937, Note_on_c, 0, 62, 0
2, 13940, Note_on_c, 0, 53, 0
2, 14000, Note_on_c, 0, 72, 71
2, 14000, Note_on_c, 0, 62, 64
2, 14002, Note_on_c, 0, 65, 59
2, 14004, Note_on_c, 0, 69, 52
2, 14004, Note_on_c, 0, 60, 53
2, 14006, Control_c, 0, 64, 0
2, 14029, Note_on_c, 0, 69, 0
2, 14035, Note_on_c, 0, 62, 0
2, 14035, Note_on_c, 0, 60, 0
2, 14039, Note_on_c, 0, 65, 0
2, 14055, Note_on_c, 0, 72, 0
2, 14058, Note_on_c, 0, 59, 18
2, 14066, Note_on_c, 0, 59, 0
2, 14104, Control_c, 0, 64, 127
2, 14128, Note_on_c, 0, 55, 33
2, 14161, Note_on_c, 0, 55, 0
2, 14170, Control_c, 0, 64, 0
2, 14172, Note_on_c, 0, 69, 51
2, 14175, Note_on_c, 0, 61, 37
2, 14176, Note_on_c, 0, 57, 42
2, 14176, Note_on_c, 0, 64, 47
2, 14186, Note_on_c, 0, 57, 0
2, 14190, Note_on_c, 0, 61, 0
2, 14194, Note_on_c, 0, 69, 0
2, 14197, Note_on_c, 0, 64, 0
2, 14250, Note_on_c, 0, 67, 32
2, 14251, Note_on_c, 0, 58, 37
2, 14251, Note_on_c, 0, 55, 43
2, 14252, Note_on_c, 0, 64, 51
2, 14253, Note_on_c, 0, 61, 43
2, 14264, Note_on_c, 0, 67, 0
2, 14266, Note_on_c, 0, 55, 0
2, 14268, Note_on_c, 0, 64, 0
2, 14269, Note_on_c, 0, 58, 0
2, 14275, Note_on_c, 0, 61, 0
2, 14283, Control_c, 0, 64, 127
2, 14339, Control_c, 0, 64, 0
2, 14363, Note_on_c, 0, 64, 44
2, 14363, Note_on_c, 0, 55, 46
2, 14365, Note_on_c, 0, 58, 33
2, 14367, Note_on_c, 0, 61, 34
2, 14370, Control_c, 0, 64, 127
2, 14376, Note_on_c, 0, 55, 0
2, 14385, Note_on_c, 0, 58, 0
2, 14389, Note_on_c, 0, 64, 0
2, 14389, Note_on_c, 0, 61, 0
2, 14395, Control_c, 0, 64, 0
2, 14404, Note_on_c, 0, 57, 40
2, 14406, Note_on_c, 0, 65, 48
2, 14408, Note_on_c, 0, 60, 48
2, 14410, Note_on_c, 0, 62, 39
2, 14443, Note_on_c, 0, 48, 64
2, 14449, Note_on_c, 0, 48, 0
2, 14601, Note_on_c, 0, 48, 48
2, 14608, Note_on_c, 0, 48, 0
2, 14646, Note_on_c, 0, 48, 66
2, 14652, Note_on_c, 0, 48, 0
2, 14677, Note_on_c, 0, 36, 66
2, 14733, Note_on_c, 0, 36, 0
2, 14758, Note_on_c, 0, 36, 72
2, 14765, Control_c, 0, 64, 127
2, 14784, Note_on_c, 0, 36, 0
2, 14840, Note_on_c, 0, 36, 70
2, 14847, Note_on_c, 0, 36, 0
2, 14866, Note_on_c, 0, 57, 0
2, 14872, Note_on_c, 0, 60, 0
2, 14874, Note_on_c, 0, 62, 0
2, 14876, Control_c, 0, 64, 0
2, 14888, Note_on_c, 0, 65, 0
2, 14930, Note_on_c, 0, 65, 61
2, 14930, Note_on_c, 0, 37, 61
2, 14932, Note_on_c, 0, 60, 62
2, 14934, Note_on_c, 0, 53, 32
2, 14937, Note_on_c, 0, 44, 35
2, 14940, Control_c, 0, 64, 127
2, 14942, Note_on_c, 0, 53, 0
2, 14952, Note_on_c, 0, 60, 0
2, 14956, Note_on_c, 0, 65, 0
2, 14957, Note_on_c, 0, 37, 0
2, 14975, Note_on_c, 0, 44, 0
2, 15006, Note_on_c, 0, 53, 55
2, 15007, Note_on_c, 0, 68, 57
2, 15008, Note_on_c, 0, 63, 56
2, 15011, Note_on_c, 0, 60, 59
2, 15018, Note_on_c, 0, 53, 0
2, 15026, Note_on_c, 0, 60, 0
2, 15028, Note_on_c, 0, 63, 0
2, 15034, Note_on_c, 0, 68, 0
2, 15083, Note_on_c, 0, 72, 72
2, 15086, Note_on_c, 0, 58, 57
2, 15086, Note_on_c, 0, 66, 56
2, 15086, Note_on_c, 0, 64, 58
2, 15105, Note_on_c, 0, 58, 0
2, 15108, Note_on_c, 0, 64, 0
2, 15117, Note_on_c, 0, 72, 0
2, 15119, Note_on_c, 0, 66, 0
2, 15166, Control_c, 0, 64, 0
2, 15167, Note_on_c, 0, 68, 65
2, 15168, Note_on_c, 0, 73, 64
2, 15169, Note_on_c, 0, 58, 45
2, 15170, Note_on_c, 0, 70, 53
2, 15171, Note_on_c, 0, 48, 44
2, 15171, Note_on_c, 0, 64, 57
2, 15185, Note_on_c, 0, 58, 0
2, 15186, Control_c, 0, 64, 127
2, 15188, Note_on_c, 0, 48, 0
2, 15204, Note_on_c, 0, 73, 0
2, 15208, Note_on_c, 0, 70, 0
2, 15214, Note_on_c, 0, 68, 0
2, 15221, Note_on_c, 0, 64, 0
2, 15239, Control_c, 0, 64, 0
2, 15244, Note_on_c, 0, 42, 51
2, 15245, Note_on_c, 0, 75, 72
2, 15247, Note_on_c, 0, 70, 53
2, 15247, Note_on_c, 0, 68, 56
2, 15247, Control_c, 0, 64, 127
2, 15248, Note_on_c, 0, 64, 60
2, 15249, Note_on_c, 0, 50, 27
2, 15253, Note_on_c, 0, 49, 23
2, 15262, Note_on_c, 0, 50, 0
2, 15263, Note_on_c, 0, 49, 0
2, 15279, Note_on_c, 0, 75, 0
2, 15283, Note_on_c, 0, 64, 0
2, 15297, Note_on_c, 0, 68, 0
2, 15301, Note_on_c, 0, 42, 0
2, 15302, Note_on_c, 0, 70, 0
2, 15326, Note_on_c, 0, 72, 68
2, 15327, Note_on_c, 0, 67, 64
2, 15329, Note_on_c, 0, 60, 66
2, 15332, Note_on_c, 0, 48, 24
2, 15344, Control_c, 0, 64, 0
2, 15352, Note_on_c, 0, 60, 0
2, 15354, Note_on_c, 0, 48, 0
2, 15361, Note_on_c, 0, 41, 41
2, 15361, Note_on_c, 0, 50, 40
2, 15362, Control_c, 0, 64, 127
2, 15369, Note_on_c, 0, 41, 0
2, 15370, Note_on_c, 0, 67, 0
2, 15375, Note_on_c, 0, 72, 0
2, 15380, Note_on_c, 0, 50, 0
2, 15479, Control_c, 0, 64, 0
2, 15494, Note_on_c, 0, 53, 29
2, 15495, Note_on_c, 0, 62, 17
2, 15495, Note_on_c, 0, 57, 29
2, 15497, Note_on_c, 0, 60, 26
2, 15514, Note_on_c, 0, 60, 0
2, 15519, Note_on_c, 0, 62, 0
2, 15522, Note_on_c, 0, 57, 0
2, 15532, Note_on_c, 0, 53, 0
2, 15570, Note_on_c, 0, 96, 95
2, 15592, Note_on_c, 0, 96, 0
2, 15605, Note_on_c, 0, 63, 39
2, 15609, Note_on_c, 0, 52, 30
2, 15609, Note_on_c, 0, 58, 38
2, 15611, Note_on_c, 0, 63, 0
2, 15618, Note_on_c, 0, 52, 0
2, 15618, Note_on_c, 0, 92, 61
2, 15628, Note_on_c, 0, 58, 0
2, 15629, Note_on_c, 0, 92, 0
2, 15640, Note_on_c, 0, 96, 60
2, 15653, Note_on_c, 0, 92, 70
2, 15657, Note_on_c, 0, 96, 0
2, 15671, Note_on_c, 0, 92, 0
2, 15680, Note_on_c, 0, 88, 39
2, 15695, Note_on_c, 0, 88, 0
2, 15708, Note_on_c, 0, 87, 23
2, 15724, Note_on_c, 0, 58, 31
2, 15729, Note_on_c, 0, 87, 0
2, 15729, Note_on_c, 0, 48, 35
2, 15735, Note_on_c, 0, 86, 47
2, 15742, Note_on_c, 0, 86, 0
2, 15755, Note_on_c, 0, 85, 51
2, 15767, Note_on_c, 0, 48, 0
2, 15773, Note_on_c, 0, 85, 0
2, 15784, Note_on_c, 0, 58, 0
2, 15797, Note_on_c, 0, 83, 17
2, 15803, Note_on_c, 0, 83, 0
2, 15812, Note_on_c, 0, 82, 53
2, 15823, Note_on_c, 0, 82, 0
2, 15833, Note_on_c, 0, 81, 28
2, 15839, Note_on_c, 0, 81, 0
2, 15846, Note_on_c, 0, 62, 32
2, 15850, Note_on_c, 0, 60, 36
2, 15856, Note_on_c, 0, 62, 0
2, 15857, Note_on_c, 0, 53, 19
2, 15858, Note_on_c, 0, 57, 20
2, 15859, Note_on_c, 0, 60, 0
2, 15859, Note_on_c, 0, 80, 52
2, 15866, Note_on_c, 0, 57, 0
2, 15870, Note_on_c, 0, 53, 0
2, 15878, Note_on_c, 0, 80, 0
2, 15887, Note_on_c, 0, 81, 62
2, 15903, Note_on_c, 0, 81, 0
2, 15916, Note_on_c, 0, 77, 47
2, 15935, Note_on_c, 0, 77, 0
2, 15944, Note_on_c, 0, 72, 45
2, 15960, Note_on_c, 0, 72, 0
2, 15968, Note_on_c, 0, 41, 24
2, 15969, Note_on_c, 0, 53, 20
2, 15974, Note_on_c, 0, 70, 36
2, 15976, Note_on_c, 0, 41, 0
2, 15983, Note_on_c, 0, 53, 0
2, 15990, Note_on_c, 0, 70, 0
2, 16012, Note_on_c, 0, 69, 52
2, 16032, Note_on_c, 0, 69, 0
2, 16046, Note_on_c, 0, 70, 64
2, 16061, Note_on_c, 0, 70, 0
2, 16076, Note_on_c, 0, 71, 64
2, 16082, Note_on_c, 0, 58, 30
2, 16083, Note_on_c, 0, 48, 34
2, 16097, Note_on_c, 0, 71, 0
2, 16109, Note_on_c, 0, 72, 65
2, 16120, Note_on_c, 0, 58, 0
2, 16123, Note_on_c, 0, 72, 0
2, 16139, Note_on_c, 0, 69, 46
2, 16146, Note_on_c, 0, 69, 0
2, 16171, Note_on_c, 0, 48, 0
2, 16202, Note_on_c, 0, 48, 24
2, 16202, Note_on_c, 0, 60, 30
2, 16215, Note_on_c, 0, 48, 0
2, 16220, Note_on_c, 0, 60, 0
2, 16233, Note_on_c, 0, 58, 18
2, 16247, Note_on_c, 0, 58, 0
2, 16277, Note_on_c, 0, 48, 28
2, 16289, Note_on_c, 0, 56, 53
2, 16314, Note_on_c, 0, 56, 0
2, 16317, Note_on_c, 0, 48, 0
2, 16320, Note_on_c, 0, 57, 49
2, 16325, Note_on_c, 0, 50, 24
2, 16330, Note_on_c, 0, 41, 17
2, 16344, Note_on_c, 0, 57, 0
2, 16352, Note_on_c, 0, 60, 61
2, 16358, Note_on_c, 0, 50, 0
2, 16374, Note_on_c, 0, 60, 0
2, 16387, Note_on_c, 0, 57, 37
2, 16403, Note_on_c, 0, 57, 0
2, 16415, Note_on_c, 0, 60, 62
2, 16437, Note_on_c, 0, 60, 0
2, 16449, Note_on_c, 0, 57, 40
2, 16449, Note_on_c, 0, 50, 24
2, 16465, Control_c, 0, 64, 127
2, 16476, Note_on_c, 0, 41, 0
2, 16488, Note_on_c, 0, 50, 0
2, 16489, Note_on_c, 0, 57, 0
2, 16562, Control_c, 0, 64, 0
2, 16567, Note_on_c, 0, 64, 47
2, 16568, Note_on_c, 0, 60, 50
2, 16569, Note_on_c, 0, 56, 28
2, 16573, Note_on_c, 0, 46, 25
2, 16596, Note_on_c, 0, 64, 0
2, 16597, Note_on_c, 0, 60, 0
2, 16601, Note_on_c, 0, 67, 59
2, 16612, Note_on_c, 0, 56, 0
2, 16620, Control_c, 0, 64, 127
2, 16623, Note_on_c, 0, 67, 0
2, 16633, Note_on_c, 0, 60, 36
2, 16634, Note_on_c, 0, 64, 47
2, 16647, Note_on_c, 0, 60, 0
2, 16653, Note_on_c, 0, 64, 0
2, 16661, Note_on_c, 0, 67, 41
2, 16676, Control_c, 0, 64, 0
2, 16680, Note_on_c, 0, 56, 27
2, 16684, Note_on_c, 0, 67, 0
2, 16690, Note_on_c, 0, 60, 46
2, 16694, Note_on_c, 0, 64, 55
2, 16711, Control_c, 0, 64, 127
2, 16722, Note_on_c, 0, 46, 0
2, 16734, Note_on_c, 0, 60, 0
2, 16745, Note_on_c, 0, 64, 0
2, 16762, Note_on_c, 0, 46, 39
2, 16767, Note_on_c, 0, 56, 0
2, 16787, Note_on_c, 0, 46, 0
2, 16796, Control_c, 0, 64, 0
2, 16800, Note_on_c, 0, 67, 44
2, 16800, Note_on_c, 0, 64, 44
2, 16801, Note_on_c, 0, 45, 43
2, 16803, Note_on_c, 0, 55, 41
2, 16809, Note_on_c, 0, 45, 0
2, 16819, Note_on_c, 0, 55, 0
2, 16824, Note_on_c, 0, 64, 0
2, 16825, Control_c, 0, 64, 127
2, 16832, Note_on_c, 0, 67, 0
2, 16834, Note_on_c, 0, 72, 62
2, 16852, Note_on_c, 0, 72, 0
2, 16865, Note_on_c, 0, 67, 31
2, 16865, Note_on_c, 0, 64, 26
2, 16879, Note_on_c, 0, 64, 0
2, 16884, Note_on_c, 0, 67, 0
2, 16893, Note_on_c, 0, 72, 68
2, 16917, Control_c, 0, 64, 0
2, 16919, Note_on_c, 0, 72, 0
2, 16921, Note_on_c, 0, 55, 36
2, 16923, Note_on_c, 0, 60, 46
2, 16926, Note_on_c, 0, 64, 34
2, 16928, Note_on_c, 0, 67, 34
2, 16942, Note_on_c, 0, 72, 9
2, 16944, Control_c, 0, 64, 127
2, 16953, Note_on_c, 0, 60, 0
2, 16958, Note_on_c, 0, 55, 0
2, 16990, Note_on_c, 0, 64, 0
2, 16995, Note_on_c, 0, 67, 0
2, 16996, Note_on_c, 0, 72, 0
2, 17034, Control_c, 0, 64, 0
2, 17034, Note_on_c, 0, 68, 49
2, 17035, Note_on_c, 0, 64, 48
2, 17038, Note_on_c, 0, 60, 43
2, 17039, Note_on_c, 0, 50, 34
2, 17044, Note_on_c, 0, 54, 28
2, 17056, Note_on_c, 0, 64, 0
2, 17059, Note_on_c, 0, 68, 0
2, 17064, Note_on_c, 0, 72, 57
2, 17066, Control_c, 0, 64, 127
2, 17071, Note_on_c, 0, 50, 0
2, 17076, Note_on_c, 0, 54, 0
2, 17083, Note_on_c, 0, 72, 0
2, 17084, Note_on_c, 0, 60, 0
2, 17093, Note_on_c, 0, 68, 30
2, 17114, Note_on_c, 0, 68, 0
2, 17122, Note_on_c, 0, 72, 49
2, 17155, Note_on_c, 0, 68, 53
2, 17155, Note_on_c, 0, 64, 38
2, 17157, Control_c, 0, 64, 0
2, 17159, Note_on_c, 0, 60, 35
2, 17159, Note_on_c, 0, 54, 39
2, 17169, Note_on_c, 0, 60, 0
2, 17177, Control_c, 0, 64, 127
2, 17180, Note_on_c, 0, 54, 0
2, 17223, Note_on_c, 0, 64, 0
2, 17230, Note_on_c, 0, 68, 0
2, 17235, Note_on_c, 0, 72, 0
2, 17239, Note_on_c, 0, 50, 43
2, 17270, Note_on_c, 0, 50, 0
2, 17275, Control_c, 0, 64, 0
2, 17278, Note_on_c, 0, 74, 39
2, 17279, Note_on_c, 0, 43, 45
2, 17279, Note_on_c, 0, 69, 40
2, 17279, Note_on_c, 0, 53, 40
2, 17280, Note_on_c, 0, 62, 29
2, 17302, Note_on_c, 0, 62, 0
2, 17302, Note_on_c, 0, 43, 0
2, 17302, Control_c, 0, 64, 127
2, 17309, Note_on_c, 0, 74, 0
2, 17312, Note_on_c, 0, 69, 0
2, 17316, Note_on_c, 0, 53, 0
2, 17357, Note_on_c, 0, 76, 74
2, 17357, Note_on_c, 0, 69, 74
2, 17358, Note_on_c, 0, 64, 78
2, 17361, Note_on_c, 0, 72, 57
2, 17375, Note_on_c, 0, 64, 0
2, 17377, Note_on_c, 0, 69, 0
2, 17382, Note_on_c, 0, 76, 0
2, 17384, Note_on_c, 0, 72, 0
2, 17397, Control_c, 0, 64, 0
2, 17400, Note_on_c, 0, 64, 42
2, 17400, Note_on_c, 0, 59, 51
2, 17401, Note_on_c, 0, 53, 41
2, 17403, Note_on_c, 0, 77, 69
2, 17403, Note_on_c, 0, 72, 61
2, 17404, Note_on_c, 0, 65, 64
2, 17426, Control_c, 0, 64, 127
2, 17427, Note_on_c, 0, 65, 0
2, 17434, Note_on_c, 0, 72, 0
2, 17435, Note_on_c, 0, 77, 0
2, 17436, Note_on_c, 0, 53, 0
2, 17439, Note_on_c, 0, 59, 0
2, 17441, Note_on_c, 0, 64, 0
2, 17479, Note_on_c, 0, 81, 82
2, 17479, Note_on_c, 0, 76, 82
2, 17480, Note_on_c, 0, 54, 79
2, 17480, Note_on_c, 0, 65, 78
2, 17480, Note_on_c, 0, 69, 80
2, 17481, Note_on_c, 0, 60, 74
2, 17504, Note_on_c, 0, 65, 0
2, 17505, Note_on_c, 0, 69, 0
2, 17505, Note_on_c, 0, 76, 0
2, 17507, Note_on_c, 0, 81, 0
2, 17507, Note_on_c, 0, 60, 0
2, 17517, Note_on_c, 0, 54, 0
2, 17522, Control_c, 0, 64, 0
2, 17526, Note_on_c, 0, 64, 64
2, 17527, Note_on_c, 0, 53, 54
2, 17528, Note_on_c, 0, 79, 57
2, 17528, Note_on_c, 0, 59, 57
2, 17532, Note_on_c, 0, 67, 55
2, 17532, Note_on_c, 0, 74, 52
2, 17552, Control_c, 0, 64, 127
2, 17561, Note_on_c, 0, 64, 0
2, 17566, Note_on_c, 0, 59, 0
2, 17572, Note_on_c, 0, 53, 0
2, 17590, Note_on_c, 0, 79, 0
2, 17591, Note_on_c, 0, 74, 0
2, 17598, Note_on_c, 0, 67, 0
2, 17650, Control_c, 0, 64, 0
2, 17652, Note_on_c, 0, 77, 44
2, 17652, Note_on_c, 0, 43, 33
2, 17652, Note_on_c, 0, 53, 36
2, 17653, Note_on_c, 0, 50, 42
2, 17653, Note_on_c, 0, 72, 49
2, 17654, Note_on_c, 0, 65, 38
2, 17677, Control_c, 0, 64, 127
2, 17680, Note_on_c, 0, 43, 0
2, 17685, Note_on_c, 0, 50, 0
2, 17693, Note_on_c, 0, 53, 0
2, 17703, Note_on_c, 0, 65, 0
2, 17709, Note_on_c, 0, 72, 0
2, 17715, Note_on_c, 0, 77, 0
2, 17772, Note_on_c, 0, 79, 73
2, 17773, Note_on_c, 0, 74, 73
2, 17774, Note_on_c, 0, 67, 61
2, 17775, Note_on_c, 0, 60, 66
2, 17778, Control_c, 0, 64, 0
2, 17783, Note_on_c, 0, 54, 46
2, 17805, Control_c, 0, 64, 127
2, 17818, Note_on_c, 0, 54, 0
2, 17818, Note_on_c, 0, 60, 0
2, 17838, Note_on_c, 0, 74, 0
2, 17842, Note_on_c, 0, 67, 0
2, 17842, Note_on_c, 0, 79, 0
2, 17892, Note_on_c, 0, 70, 50
2, 17894, Note_on_c, 0, 74, 44
2, 17895, Note_on_c, 0, 58, 47
2, 17896, Note_on_c, 0, 65, 45
2, 17898, Control_c, 0, 64, 0
2, 17915, Control_c, 0, 64, 127
2, 17937, Note_on_c, 0, 74, 0
2, 17947, Note_on_c, 0, 70, 0
2, 17947, Note_on_c, 0, 65, 0
2, 17961, Note_on_c, 0, 58, 0
2, 18011, Note_on_c, 0, 72, 53
2, 18011, Note_on_c, 0, 64, 38
2, 18012, Control_c, 0, 64, 0
2, 18014, Note_on_c, 0, 67, 36
2, 18017, Note_on_c, 0, 58, 20
2, 18021, Note_on_c, 0, 48, 19
2, 18042, Control_c, 0, 64, 127
2, 18057, Note_on_c, 0, 48, 0
2, 18062, Note_on_c, 0, 58, 0
2, 18072, Note_on_c, 0, 67, 0
2, 18072, Note_on_c, 0, 64, 0
2, 18095, Note_on_c, 0, 72, 0
2, 18130, Note_on_c, 0, 46, 53
2, 18130, Note_on_c, 0, 56, 48
2, 18133, Control_c, 0, 64, 0
2, 18153, Control_c, 0, 64, 127
2, 18199, Note_on_c, 0, 56, 0
2, 18216, Note_on_c, 0, 46, 0
2, 18218, Note_on_c, 0, 52, 33
2, 18236, Note_on_c, 0, 52, 0
2, 18246, Control_c, 0, 64, 0
2, 18248, Note_on_c, 0, 72, 44
2, 18248, Note_on_c, 0, 65, 46
2, 18249, Note_on_c, 0, 69, 48
2, 18250, Note_on_c, 0, 55, 36
2, 18250, Note_on_c, 0, 45, 36
2, 18251, Note_on_c, 0, 60, 33
2, 18265, Control_c, 0, 64, 127
2, 18267, Note_on_c, 0, 45, 0
2, 18271, Note_on_c, 0, 60, 0
2, 18277, Note_on_c, 0, 65, 0
2, 18281, Note_on_c, 0, 55, 0
2, 18286, Note_on_c, 0, 69, 0
2, 18290, Note_on_c, 0, 72, 0
2, 18363, Note_on_c, 0, 84, 67
2, 18363, Note_on_c, 0, 72, 57
2, 18364, Control_c, 0, 64, 0
2, 18364, Note_on_c, 0, 60, 36
2, 18364, Note_on_c, 0, 61, 39
2, 18364, Note_on_c, 0, 81, 44
2, 18365, Note_on_c, 0, 65, 49
2, 18366, Note_on_c, 0, 55, 41
2, 18366, Note_on_c, 0, 77, 53
2, 18390, Control_c, 0, 64, 127
2, 18405, Note_on_c, 0, 72, 0
2, 18407, Note_on_c, 0, 77, 0
2, 18412, Note_on_c, 0, 81, 0
2, 18413, Note_on_c, 0, 65, 0
2, 18417, Note_on_c, 0, 84, 0
2, 18418, Note_on_c, 0, 60, 0
2, 18422, Note_on_c, 0, 55, 0
2, 18423, Note_on_c, 0, 61, 0
2, 18482, Control_c, 0, 64, 0
2, 18482, Note_on_c, 0, 89, 62
2, 18483, Note_on_c, 0, 65, 43
2, 18484, Note_on_c, 0, 82, 36
2, 18484, Note_on_c, 0, 77, 33
2, 18484, Note_on_c, 0, 86, 44
2, 18485, Note_on_c, 0, 60, 36
2, 18487, Note_on_c, 0, 54, 25
2, 18502, Note_on_c, 0, 60, 0
2, 18502, Note_on_c, 0, 65, 0
2, 18509, Note_on_c, 0, 86, 0
2, 18511, Note_on_c, 0, 89, 0
2, 18514, Control_c, 0, 64, 127
2, 18515, Note_on_c, 0, 77, 0
2, 18516, Note_on_c, 0, 54, 0
2, 18516, Note_on_c, 0, 82, 0
2, 18568, Note_on_c, 0, 86, 64
2, 18570, Note_on_c, 0, 74, 46
2, 18571, Note_on_c, 0, 60, 54
2, 18571, Note_on_c, 0, 81, 56
2, 18577, Note_on_c, 0, 50, 24
2, 18577, Control_c, 0, 64, 0
2, 18578, Note_on_c, 0, 81, 0
2, 18578, Note_on_c, 0, 60, 0
2, 18579, Note_on_c, 0, 54, 25
2, 18581, Note_on_c, 0, 74, 0
2, 18585, Note_on_c, 0, 86, 0
2, 18591, Note_on_c, 0, 54, 0
2, 18593, Note_on_c, 0, 50, 0
2, 18615, Control_c, 0, 64, 127
2, 18683, Control_c, 0, 64, 0
2, 18684, Note_on_c, 0, 43, 50
2, 18686, Note_on_c, 0, 81, 58
2, 18688, Note_on_c, 0, 69, 47
2, 18689, Note_on_c, 0, 74, 44
2, 18689, Note_on_c, 0, 53, 29
2, 18690, Note_on_c, 0, 77, 36
2, 18705, Note_on_c, 0, 43, 0
2, 18709, Note_on_c, 0, 81, 0
2, 18710, Note_on_c, 0, 69, 0
2, 18711, Note_on_c, 0, 53, 0
2, 18713, Note_on_c, 0, 77, 0
2, 18714, Note_on_c, 0, 74, 0
2, 18806, Note_on_c, 0, 62, 36
2, 18806, Note_on_c, 0, 74, 30
2, 18807, Note_on_c, 0, 69, 43
2, 18808, Note_on_c, 0, 58, 31
2, 18811, Note_on_c, 0, 57, 34
2, 18829, Note_on_c, 0, 62, 0
2, 18830, Note_on_c, 0, 57, 0
2, 18838, Note_on_c, 0, 58, 0
2, 18838, Note_on_c, 0, 69, 0
2, 18840, Note_on_c, 0, 74, 0
2, 18928, Note_on_c, 0, 58, 39
2, 18929, Note_on_c, 0, 48, 45
2, 18930, Note_on_c, 0, 77, 64
2, 18932, Note_on_c, 0, 65, 55
2, 18932, Note_on_c, 0, 72, 53
2, 18935, Control_c, 0, 64, 127
2, 18938, Note_on_c, 0, 65, 0
2, 18940, Note_on_c, 0, 72, 0
2, 18944, Note_on_c, 0, 58, 0
2, 18945, Note_on_c, 0, 48, 0
2, 18946, Note_on_c, 0, 77, 0
2, 18962, Control_c, 0, 64, 0
2, 18969, Note_on_c, 0, 48, 12
2, 18971, Note_on_c, 0, 56, 75
2, 18973, Note_on_c, 0, 80, 76
2, 18974, Note_on_c, 0, 68, 84
2, 18997, Note_on_c, 0, 68, 0
2, 19000, Note_on_c, 0, 56, 0
2, 19003, Note_on_c, 0, 80, 0
2, 19005, Note_on_c, 0, 57, 61
2, 19008, Note_on_c, 0, 81, 58
2, 19009, Note_on_c, 0, 69, 59
2, 19025, Note_on_c, 0, 81, 0
2, 19026, Note_on_c, 0, 69, 0
2, 19034, Control_c, 0, 64, 127
2, 19045, Note_on_c, 0, 56, 55
2, 19046, Note_on_c, 0, 57, 0
2, 19046, Note_on_c, 0, 80, 58
2, 19046, Note_on_c, 0, 68, 52
2, 19053, Note_on_c, 0, 74, 28
2, 19070, Note_on_c, 0, 74, 0
2, 19071, Note_on_c, 0, 68, 0
2, 19072, Note_on_c, 0, 80, 0
2, 19072, Control_c, 0, 64, 0
2, 19083, Note_on_c, 0, 56, 0
2, 19089, Note_on_c, 0, 55, 55
2, 19090, Note_on_c, 0, 79, 40
2, 19092, Note_on_c, 0, 67, 38
2, 19094, Control_c, 0, 64, 127
2, 19098, Note_on_c, 0, 78, 14
2, 19107, Note_on_c, 0, 78, 0
2, 19109, Note_on_c, 0, 79, 0
2, 19110, Note_on_c, 0, 67, 0
2, 19111, Note_on_c, 0, 48, 0
2, 19129, Note_on_c, 0, 55, 0
2, 19162, Note_on_c, 0, 78, 46
2, 19165, Note_on_c, 0, 66, 45
2, 19166, Note_on_c, 0, 54, 53
2, 19167, Note_on_c, 0, 73, 46
2, 19186, Note_on_c, 0, 66, 0
2, 19188, Note_on_c, 0, 73, 0
2, 19190, Note_on_c, 0, 78, 0
2, 19197, Note_on_c, 0, 54, 0
2, 19200, Control_c, 0, 64, 0
2, 19207, Note_on_c, 0, 77, 51
2, 19210, Note_on_c, 0, 53, 46
2, 19213, Note_on_c, 0, 65, 28
2, 19216, Note_on_c, 0, 77, 0
2, 19217, Note_on_c, 0, 72, 29
2, 19223, Note_on_c, 0, 72, 0
2, 19225, Note_on_c, 0, 65, 0
2, 19271, Control_c, 0, 64, 127
2, 19272, Note_on_c, 0, 53, 0
2, 19283, Note_on_c, 0, 41, 48
2, 19321, Control_c, 0, 64, 0
2, 19325, Note_on_c, 0, 60, 54
2, 19328, Note_on_c, 0, 41, 0
2, 19328, Note_on_c, 0, 53, 40
2, 19336, Control_c, 0, 64, 127
2, 19343, Note_on_c, 0, 60, 0
2, 19348, Note_on_c, 0, 53, 0
2, 19355, Note_on_c, 0, 62, 62
2, 19373, Note_on_c, 0, 62, 0
2, 19386, Note_on_c, 0, 64, 66
2, 19406, Note_on_c, 0, 64, 0
2, 19415, Note_on_c, 0, 65, 65
2, 19436, Note_on_c, 0, 65, 0
2, 19443, Control_c, 0, 64, 0
2, 19446, Note_on_c, 0, 58, 35
2, 19450, Note_on_c, 0, 64, 46
2, 19450, Note_on_c, 0, 48, 36
2, 19455, Note_on_c, 0, 64, 0
2, 19484, Note_on_c, 0, 72, 75
2, 19504, Note_on_c, 0, 72, 0
2, 19518, Note_on_c, 0, 66, 62
2, 19526, Note_on_c, 0, 58, 0
2, 19537, Control_c, 0, 64, 127
2, 19540, Note_on_c, 0, 66, 0
2, 19540, Note_on_c, 0, 67, 55
2, 19546, Control_c, 0, 64, 0
2, 19555, Note_on_c, 0, 67, 0
2, 19561, Note_on_c, 0, 68, 55
2, 19561, Note_on_c, 0, 58, 34
2, 19581, Note_on_c, 0, 68, 0
2, 19581, Note_on_c, 0, 64, 53
2, 19589, Note_on_c, 0, 58, 0
2, 19596, Note_on_c, 0, 64, 0
2, 19601, Note_on_c, 0, 65, 49
2, 19604, Note_on_c, 0, 48, 0
2, 19621, Note_on_c, 0, 65, 0
2, 19623, Note_on_c, 0, 66, 59
2, 19641, Note_on_c, 0, 66, 0
2, 19644, Control_c, 0, 64, 127
2, 19646, Note_on_c, 0, 62, 45
2, 19648, Note_on_c, 0, 49, 28
2, 19663, Note_on_c, 0, 49, 0
2, 19666, Note_on_c, 0, 63, 57
2, 19667, Note_on_c, 0, 62, 0
2, 19668, Control_c, 0, 64, 0
2, 19673, Note_on_c, 0, 48, 25
2, 19679, Note_on_c, 0, 48, 0
2, 19680, Note_on_c, 0, 41, 35
2, 19682, Note_on_c, 0, 50, 35
2, 19684, Note_on_c, 0, 63, 0
2, 19689, Note_on_c, 0, 64, 47
2, 19702, Note_on_c, 0, 64, 0
2, 19712, Note_on_c, 0, 60, 44
2, 19729, Note_on_c, 0, 60, 0
2, 19730, Note_on_c, 0, 61, 58
2, 19747, Note_on_c, 0, 50, 0
2, 19751, Note_on_c, 0, 61, 0
2, 19752, Note_on_c, 0, 62, 50
2, 19760, Note_on_c, 0, 62, 0
2, 19776, Note_on_c, 0, 57, 36
2, 19781, Control_c, 0, 64, 127
2, 19791, Note_on_c, 0, 57, 0
2, 19793, Control_c, 0, 64, 0
2, 19795, Note_on_c, 0, 60, 60
2, 19830, Note_on_c, 0, 41, 0
2, 19856, Note_on_c, 0, 41, 53
2, 19859, Control_c, 0, 64, 127
2, 19870, Note_on_c, 0, 41, 0
2, 19910, Control_c, 0, 64, 0
2, 19911, Note_on_c, 0, 56, 46
2, 19912, Note_on_c, 0, 52, 49
2, 19915, Note_on_c, 0, 36, 55
2, 19931, Note_on_c, 0, 52, 0
2, 19937, Note_on_c, 0, 36, 0
2, 19943, Note_on_c, 0, 56, 0
2, 19947, Note_on_c, 0, 60, 0
2, 19954, Control_c, 0, 64, 127
2, 19992, Note_on_c, 0, 56, 60
2, 20017, Note_on_c, 0, 56, 0
2, 20037, Note_on_c, 0, 68, 90
2, 20038, Control_c, 0, 64, 0
2, 20038, Note_on_c, 0, 64, 91
2, 20039, Note_on_c, 0, 58, 85
2, 20039, Note_on_c, 0, 72, 82
2, 20074, Control_c, 0, 64, 127
2, 20124, Note_on_c, 0, 58, 0
2, 20124, Note_on_c, 0, 64, 0
2, 20124, Note_on_c, 0, 56, 39
2, 20136, Note_on_c, 0, 72, 0
2, 20151, Note_on_c, 0, 68, 0
2, 20161, Control_c, 0, 64, 0
2, 20163, Note_on_c, 0, 72, 66
2, 20164, Note_on_c, 0, 67, 68
2, 20166, Note_on_c, 0, 57, 63
2, 20166, Note_on_c, 0, 62, 63
2, 20170, Note_on_c, 0, 56, 0
2, 20179, Note_on_c, 0, 72, 0
2, 20182, Note_on_c, 0, 67, 0
2, 20186, Note_on_c, 0, 62, 0
2, 20206, Note_on_c, 0, 60, 68
2, 20210, Control_c, 0, 64, 127
2, 20227, Note_on_c, 0, 60, 0
2, 20242, Note_on_c, 0, 62, 87
2, 20270, Note_on_c, 0, 62, 0
2, 20272, Control_c, 0, 64, 0
2, 20282, Note_on_c, 0, 48, 60
2, 20284, Note_on_c, 0, 64, 90
2, 20314, Note_on_c, 0, 64, 0
2, 20318, Control_c, 0, 64, 127
2, 20322, Note_on_c, 0, 65, 66
2, 20337, Note_on_c, 0, 48, 0
2, 20344, Note_on_c, 0, 57, 0
2, 20352, Note_on_c, 0, 65, 0
2, 20363, Note_on_c, 0, 64, 82
2, 20365, Note_on_c, 0, 56, 73
2, 20366, Note_on_c, 0, 60, 84
2, 20366, Note_on_c, 0, 46, 65
2, 20370, Control_c, 0, 64, 0
2, 20400, Control_c, 0, 64, 127
2, 20407, Note_on_c, 0, 60, 0
2, 20417, Note_on_c, 0, 64, 0
2, 20465, Note_on_c, 0, 56, 0
2, 20465, Note_on_c, 0, 46, 0
2, 20491, Note_on_c, 0, 46, 71
2, 20491, Note_on_c, 0, 56, 81
2, 20491, Note_on_c, 0, 76, 82
2, 20493, Note_on_c, 0, 72, 72
2, 20494, Note_on_c, 0, 64, 81
2, 20494, Note_on_c, 0, 69, 79
2, 20525, Control_c, 0, 64, 0
2, 20527, Note_on_c, 0, 56, 0
2, 20529, Note_on_c, 0, 64, 0
2, 20529, Note_on_c, 0, 76, 0
2, 20532, Note_on_c, 0, 69, 0
2, 20536, Note_on_c, 0, 72, 0
2, 20538, Note_on_c, 0, 56, 47
2, 20538, Note_on_c, 0, 76, 49
2, 20541, Note_on_c, 0, 64, 51
2, 20543, Note_on_c, 0, 69, 45
2, 20544, Note_on_c, 0, 72, 28
2, 20555, Note_on_c, 0, 72, 0
2, 20558, Note_on_c, 0, 69, 0
2, 20558, Control_c, 0, 64, 127
2, 20559, Note_on_c, 0, 76, 0
2, 20560, Note_on_c, 0, 64, 0
2, 20573, Note_on_c, 0, 56, 0
2, 20574, Note_on_c, 0, 46, 0
2, 20592, Control_c, 0, 64, 0
2, 20609, Control_c, 0, 64, 127
2, 20616, Note_on_c, 0, 72, 62
2, 20616, Note_on_c, 0, 46, 46
2, 20617, Note_on_c, 0, 56, 35
2, 20618, Note_on_c, 0, 60, 54
2, 20622, Note_on_c, 0, 67, 32
2, 20623, Note_on_c, 0, 60, 0
2, 20629, Note_on_c, 0, 67, 0
2, 20631, Note_on_c, 0, 72, 0
2, 20635, Note_on_c, 0, 56, 0
2, 20644, Note_on_c, 0, 46, 0
2, 20650, Control_c, 0, 64, 0
2, 20657, Note_on_c, 0, 76, 70
2, 20657, Note_on_c, 0, 64, 70
2, 20659, Note_on_c, 0, 45, 53
2, 20660, Note_on_c, 0, 69, 58
2, 20660, Note_on_c, 0, 72, 43
2, 20661, Note_on_c, 0, 55, 43
2, 20681, Note_on_c, 0, 45, 0
2, 20681, Note_on_c, 0, 64, 0
2, 20687, Control_c, 0, 64, 127
2, 20690, Note_on_c, 0, 69, 0
2, 20693, Note_on_c, 0, 72, 0
2, 20695, Note_on_c, 0, 55, 0
2, 20696, Note_on_c, 0, 64, 54
2, 20697, Note_on_c, 0, 76, 0
2, 20712, Note_on_c, 0, 64, 0
2, 20712, Note_on_c, 0, 76, 24
2, 20716, Note_on_c, 0, 69, 36
2, 20718, Note_on_c, 0, 72, 24
2, 20724, Note_on_c, 0, 69, 0
2, 20726, Note_on_c, 0, 72, 0
2, 20728, Note_on_c, 0, 76, 0
2, 20732, Note_on_c, 0, 64, 43
2, 20747, Note_on_c, 0, 64, 0
2, 20748, Note_on_c, 0, 76, 24
2, 20752, Note_on_c, 0, 69, 44
2, 20755, Note_on_c, 0, 72, 37
2, 20761, Note_on_c, 0, 69, 0
2, 20762, Note_on_c, 0, 72, 0
2, 20762, Note_on_c, 0, 64, 50
2, 20767, Note_on_c, 0, 76, 0
2, 20768, Note_on_c, 0, 55, 39
2, 20769, Note_on_c, 0, 60, 42
2, 20769, Control_c, 0, 64, 0
2, 20769, Note_on_c, 0, 59, 39
2, 20782, Note_on_c, 0, 64, 0
2, 20784, Note_on_c, 0, 76, 24
2, 20786, Note_on_c, 0, 69, 38
2, 20787, Note_on_c, 0, 72, 40
2, 20788, Note_on_c, 0, 59, 0
2, 20788, Note_on_c, 0, 60, 0
2, 20794, Note_on_c, 0, 69, 0
2, 20794, Note_on_c, 0, 72, 0
2, 20797, Note_on_c, 0, 76, 0
2, 20798, Note_on_c, 0, 64, 54
2, 20800, Note_on_c, 0, 55, 0
2, 20801, Control_c, 0, 64, 127
2, 20813, Note_on_c, 0, 64, 0
2, 20826, Note_on_c, 0, 72, 19
2, 20827, Note_on_c, 0, 69, 25
2, 20832, Note_on_c, 0, 64, 43
2, 20837, Note_on_c, 0, 72, 0
2, 20846, Note_on_c, 0, 69, 0
2, 20853, Note_on_c, 0, 64, 0
2, 20855, Note_on_c, 0, 76, 53
2, 20874, Note_on_c, 0, 64, 52
2, 20878, Note_on_c, 0, 60, 42
2, 20879, Note_on_c, 0, 76, 0
2, 20879, Note_on_c, 0, 50, 36
2, 20880, Control_c, 0, 64, 0
2, 20880, Note_on_c, 0, 54, 36
2, 20893, Note_on_c, 0, 68, 49
2, 20896, Note_on_c, 0, 64, 0
2, 20898, Note_on_c, 0, 71, 40
2, 20903, Note_on_c, 0, 76, 32
2, 20910, Note_on_c, 0, 68, 0
2, 20913, Note_on_c, 0, 71, 0
2, 20915, Note_on_c, 0, 64, 36
2, 20916, Note_on_c, 0, 76, 0
2, 20926, Note_on_c, 0, 50, 0
2, 20933, Note_on_c, 0, 64, 0
2, 20934, Note_on_c, 0, 68, 43
2, 20936, Note_on_c, 0, 54, 0
2, 20937, Note_on_c, 0, 71, 28
2, 20939, Note_on_c, 0, 60, 0
2, 20939, Note_on_c, 0, 76, 24
2, 20941, Control_c, 0, 64, 127
2, 20946, Note_on_c, 0, 68, 0
2, 20947, Note_on_c, 0, 71, 0
2, 20948, Note_on_c, 0, 76, 0
2, 20949, Note_on_c, 0, 64, 51
2, 20967, Note_on_c, 0, 64, 0
2, 20967, Note_on_c, 0, 68, 49
2, 20969, Note_on_c, 0, 71, 34
2, 20972, Note_on_c, 0, 76, 20
2, 20980, Note_on_c, 0, 76, 0
2, 20981, Note_on_c, 0, 68, 0
2, 20983, Note_on_c, 0, 71, 0
2, 20983, Note_on_c, 0, 64, 52
2, 20996, Control_c, 0, 64, 0
2, 20998, Note_on_c, 0, 54, 49
2, 20998, Note_on_c, 0, 60, 37
2, 21001, Note_on_c, 0, 64, 0
2, 21001, Note_on_c, 0, 68, 51
2, 21004, Note_on_c, 0, 76, 32
2, 21004, Note_on_c, 0, 71, 35
2, 21013, Note_on_c, 0, 76, 0
2, 21015, Note_on_c, 0, 71, 0
2, 21016, Note_on_c, 0, 68, 0
2, 21016, Note_on_c, 0, 64, 53
2, 21026, Note_on_c, 0, 60, 0
2, 21033, Note_on_c, 0, 64, 0
2, 21034, Note_on_c, 0, 68, 46
2, 21035, Note_on_c, 0, 76, 29
2, 21037, Note_on_c, 0, 71, 34
2, 21041, Control_c, 0, 64, 127
2, 21043, Note_on_c, 0, 76, 0
2, 21048, Note_on_c, 0, 64, 48
2, 21050, Note_on_c, 0, 54, 0
2, 21050, Note_on_c, 0, 68, 0
2, 21051, Note_on_c, 0, 71, 0
2, 21070, Note_on_c, 0, 76, 33
2, 21073, Note_on_c, 0, 68, 14
2, 21075, Note_on_c, 0, 71, 32
2, 21088, Note_on_c, 0, 76, 0
2, 21092, Note_on_c, 0, 64, 0
2, 21099, Note_on_c, 0, 71, 0
2, 21102, Note_on_c, 0, 68, 0
2, 21107, Control_c, 0, 64, 0
2, 21110, Note_on_c, 0, 59, 51
2, 21113, Note_on_c, 0, 74, 36
2, 21114, Note_on_c, 0, 53, 53
2, 21115, Note_on_c, 0, 62, 57
2, 21116, Note_on_c, 0, 69, 58
2, 21122, Note_on_c, 0, 59, 0
2, 21123, Note_on_c, 0, 74, 0
2, 21125, Note_on_c, 0, 69, 0
2, 21126, Note_on_c, 0, 62, 0
2, 21131, Note_on_c, 0, 53, 0
2, 21200, Note_on_c, 0, 50, 50
2, 21200, Note_on_c, 0, 62, 52
2, 21202, Note_on_c, 0, 59, 43
2, 21217, Note_on_c, 0, 59, 0
2, 21231, Note_on_c, 0, 50, 0
2, 21238, Note_on_c, 0, 52, 45
2, 21238, Note_on_c, 0, 64, 58
2, 21238, Note_on_c, 0, 59, 24
2, 21247, Note_on_c, 0, 62, 0
2, 21251, Note_on_c, 0, 59, 0
2, 21259, Note_on_c, 0, 52, 0
2, 21261, Note_on_c, 0, 64, 0
2, 21277, Note_on_c, 0, 65, 44
2, 21286, Note_on_c, 0, 65, 0
2, 21315, Note_on_c, 0, 69, 71
2, 21317, Note_on_c, 0, 57, 54
2, 21319, Note_on_c, 0, 60, 43
2, 21319, Note_on_c, 0, 62, 45
2, 21321, Note_on_c, 0, 65, 47
2, 21330, Note_on_c, 0, 62, 0
2, 21331, Control_c, 0, 64, 127
2, 21332, Note_on_c, 0, 60, 0
2, 21332, Note_on_c, 0, 65, 0
2, 21332, Note_on_c, 0, 57, 0
2, 21335, Note_on_c, 0, 69, 0
2, 21357, Control_c, 0, 64, 0
2, 21358, Note_on_c, 0, 67, 39
2, 21361, Note_on_c, 0, 55, 56
2, 21362, Note_on_c, 0, 64, 17
2, 21363, Note_on_c, 0, 62, 34
2, 21365, Note_on_c, 0, 60, 18
2, 21380, Note_on_c, 0, 60, 0
2, 21383, Note_on_c, 0, 55, 0
2, 21387, Note_on_c, 0, 62, 0
2, 21388, Note_on_c, 0, 64, 0
2, 21388, Note_on_c, 0, 67, 0
2, 21435, Control_c, 0, 64, 127
2, 21475, Control_c, 0, 64, 0
2, 21485, Note_on_c, 0, 53, 41
2, 21485, Note_on_c, 0, 62, 32
2, 21486, Note_on_c, 0, 65, 38
2, 21488, Note_on_c, 0, 60, 43
2, 21489, Note_on_c, 0, 57, 22
2, 21497, Control_c, 0, 64, 127
2, 21513, Note_on_c, 0, 57, 0
2, 21521, Note_on_c, 0, 65, 0
2, 21522, Note_on_c, 0, 60, 0
2, 21522, Note_on_c, 0, 62, 0
2, 21536, Note_on_c, 0, 53, 0
2, 21574, Note_on_c, 0, 51, 28
2, 21600, Note_on_c, 0, 51, 0
2, 21605, Note_on_c, 0, 67, 66
2, 21605, Note_on_c, 0, 58, 70
2, 21606, Note_on_c, 0, 62, 64
2, 21608, Note_on_c, 0, 65, 60
2, 21609, Control_c, 0, 64, 0
2, 21611, Note_on_c, 0, 55, 36
2, 21617, Note_on_c, 0, 55, 0
2, 21621, Note_on_c, 0, 62, 0
2, 21622, Note_on_c, 0, 67, 0
2, 21626, Note_on_c, 0, 58, 0
2, 21626, Note_on_c, 0, 65, 0
2, 21640, Control_c, 0, 64, 127
2, 21666, Control_c, 0, 64, 0
2, 21677, Note_on_c, 0, 65, 57
2, 21686, Note_on_c, 0, 64, 33
2, 21686, Note_on_c, 0, 43, 43
2, 21688, Note_on_c, 0, 62, 57
2, 21693, Note_on_c, 0, 58, 57
2, 21696, Note_on_c, 0, 64, 0
2, 21701, Note_on_c, 0, 65, 0
2, 21705, Note_on_c, 0, 46, 40
2, 21711, Note_on_c, 0, 62, 0
2, 21712, Note_on_c, 0, 43, 0
2, 21718, Note_on_c, 0, 55, 51
2, 21719, Note_on_c, 0, 58, 0
2, 21732, Note_on_c, 0, 55, 0
2, 21735, Note_on_c, 0, 50, 53
2, 21755, Note_on_c, 0, 50, 0
2, 21759, Note_on_c, 0, 46, 0
2, 21764, Note_on_c, 0, 58, 46
2, 21765, Note_on_c, 0, 53, 38
2, 21779, Note_on_c, 0, 53, 0
2, 21779, Note_on_c, 0, 58, 0
2, 21780, Note_on_c, 0, 62, 30
2, 21796, Note_on_c, 0, 62, 0
2, 21800, Control_c, 0, 64, 127
2, 21806, Note_on_c, 0, 69, 64
2, 21817, Note_on_c, 0, 69, 0
2, 21825, Note_on_c, 0, 57, 27
2, 21833, Control_c, 0, 64, 0
2, 21839, Note_on_c, 0, 57, 0
2, 21843, Note_on_c, 0, 72, 62
2, 21843, Note_on_c, 0, 62, 32
2, 21845, Note_on_c, 0, 65, 24
2, 21848, Note_on_c, 0, 69, 34
2, 21858, Note_on_c, 0, 65, 0
2, 21858, Note_on_c, 0, 62, 0
2, 21862, Note_on_c, 0, 69, 0
2, 21865, Note_on_c, 0, 72, 0
2, 21875, Control_c, 0, 64, 127
2, 21887, Control_c, 0, 64, 0
2, 21893, Note_on_c, 0, 73, 71
2, 21893, Note_on_c, 0, 70, 67
2, 21894, Note_on_c, 0, 64, 66
2, 21895, Note_on_c, 0, 63, 71
2, 21897, Note_on_c, 0, 68, 64
2, 21954, Note_on_c, 0, 68, 0
2, 21954, Note_on_c, 0, 73, 0
2, 21955, Note_on_c, 0, 64, 0
2, 21957, Control_c, 0, 64, 127
2, 21961, Note_on_c, 0, 70, 0
2, 21962, Note_on_c, 0, 63, 0
2, 21969, Note_on_c, 0, 61, 51
2, 21970, Note_on_c, 0, 75, 71
2, 21971, Note_on_c, 0, 64, 60
2, 21972, Note_on_c, 0, 68, 53
2, 21974, Control_c, 0, 64, 0
2, 21975, Note_on_c, 0, 70, 48
2, 21988, Note_on_c, 0, 70, 0
2, 21992, Note_on_c, 0, 68, 0
2, 21995, Note_on_c, 0, 64, 0
2, 21997, Note_on_c, 0, 75, 0
2, 22005, Note_on_c, 0, 61, 0
2, 22007, Note_on_c, 0, 73, 53
2, 22007, Control_c, 0, 64, 127
2, 22011, Note_on_c, 0, 64, 48
2, 22013, Note_on_c, 0, 58, 39
2, 22014, Note_on_c, 0, 68, 23
2, 22018, Note_on_c, 0, 70, 23
2, 22030, Note_on_c, 0, 64, 0
2, 22030, Note_on_c, 0, 73, 0
2, 22031, Note_on_c, 0, 68, 0
2, 22034, Note_on_c, 0, 70, 0
2, 22047, Control_c, 0, 64, 0
2, 22054, Note_on_c, 0, 58, 0
2, 22058, Note_on_c, 0, 67, 47
2, 22058, Note_on_c, 0, 72, 50
2, 22060, Note_on_c, 0, 62, 37
2, 22061, Note_on_c, 0, 57, 35
2, 22079, Note_on_c, 0, 62, 0
2, 22080, Note_on_c, 0, 67, 0
2, 22080, Note_on_c, 0, 72, 0
2, 22083, Note_on_c, 0, 57, 0
2, 22158, Control_c, 0, 64, 127
2, 22203, Control_c, 0, 64, 0
2, 22209, Note_on_c, 0, 55, 44
2, 22210, Note_on_c, 0, 39, 33
2, 22211, Note_on_c, 0, 60, 49
2, 22214, Note_on_c, 0, 65, 31
2, 22215, Note_on_c, 0, 46, 34
2, 22222, Note_on_c, 0, 55, 0
2, 22235, Note_on_c, 0, 39, 0
2, 22236, Note_on_c, 0, 60, 0
2, 22240, Note_on_c, 0, 46, 0
2, 22241, Note_on_c, 0, 65, 0
2, 22278, Control_c, 0, 64, 127
2, 22282, Note_on_c, 0, 56, 49
2, 22284, Note_on_c, 0, 61, 47
2, 22290, Note_on_c, 0, 65, 32
2, 22310, Note_on_c, 0, 65, 0
2, 22313, Note_on_c, 0, 56, 0
2, 22315, Control_c, 0, 64, 0
2, 22327, Note_on_c, 0, 61, 0
2, 22330, Note_on_c, 0, 65, 33
2, 22330, Note_on_c, 0, 48, 35
2, 22333, Note_on_c, 0, 41, 33
2, 22334, Note_on_c, 0, 62, 43
2, 22338, Note_on_c, 0, 57, 18
2, 22358, Note_on_c, 0, 57, 0
2, 22358, Note_on_c, 0, 41, 0
2, 22358, Note_on_c, 0, 62, 0
2, 22360, Note_on_c, 0, 48, 0
2, 22373, Note_on_c, 0, 65, 0
2, 22467, Control_c, 0, 64, 127
2, 22482, Control_c, 0, 64, 0
2, 22511, Note_on_c, 0, 51, 51
2, 22514, Note_on_c, 0, 58, 38
2, 22514, Note_on_c, 0, 67, 53
2, 22517, Note_on_c, 0, 72, 50
2, 22521, Control_c, 0, 64, 127
2, 22524, Note_on_c, 0, 72, 0
2, 22525, Note_on_c, 0, 67, 0
2, 22531, Control_c, 0, 64, 0
2, 22533, Note_on_c, 0, 51, 0
2, 22543, Note_on_c, 0, 58, 0
2, 22548, Note_on_c, 0, 73, 61
2, 22554, Note_on_c, 0, 73, 0
2, 22583, Note_on_c, 0, 60, 51
2, 22585, Note_on_c, 0, 69, 65
2, 22586, Note_on_c, 0, 53, 36
2, 22587, Note_on_c, 0, 74, 42
2, 22596, Note_on_c, 0, 60, 0
2, 22597, Note_on_c, 0, 69, 0
2, 22598, Note_on_c, 0, 74, 0
2, 22605, Note_on_c, 0, 53, 0
2, 22629, Control_c, 0, 64, 127
2, 22655, Control_c, 0, 64, 0
2, 22657, Note_on_c, 0, 47, 54
2, 22662, Note_on_c, 0, 62, 46
2, 22662, Note_on_c, 0, 57, 54
2, 22664, Note_on_c, 0, 48, 50
2, 22664, Note_on_c, 0, 60, 54
2, 22664, Note_on_c, 0, 65, 36
2, 22677, Note_on_c, 0, 47, 0
2, 22702, Control_c, 0, 64, 127
2, 22772, Note_on_c, 0, 60, 0
2, 22773, Note_on_c, 0, 57, 0
2, 22776, Note_on_c, 0, 62, 0
2, 22782, Note_on_c, 0, 65, 0
2, 22813, Control_c, 0, 64, 0
2, 22813, Note_on_c, 0, 57, 36
2, 22815, Note_on_c, 0, 65, 39
2, 22816, Note_on_c, 0, 60, 49
2, 22817, Note_on_c, 0, 62, 36
2, 22828, Note_on_c, 0, 48, 0
2, 22833, Control_c, 0, 64, 127
2, 22842, Note_on_c, 0, 57, 0
2, 22861, Note_on_c, 0, 60, 0
2, 22862, Note_on_c, 0, 65, 0
2, 22868, Note_on_c, 0, 62, 0
2, 22887, Note_on_c, 0, 48, 50
2, 22909, Note_on_c, 0, 48, 0
2, 22923, Control_c, 0, 64, 0
2, 22927, Note_on_c, 0, 52, 43
2, 22927, Note_on_c, 0, 42, 40
2, 22965, Control_c, 0, 64, 127
2, 22970, Note_on_c, 0, 52, 0
2, 22995, Note_on_c, 0, 42, 0
2, 23004, Note_on_c, 0, 48, 31
2, 23026, Note_on_c, 0, 48, 0
2, 23042, Note_on_c, 0, 77, 41
2, 23042, Control_c, 0, 64, 0
2, 23045, Note_on_c, 0, 65, 39
2, 23045, Note_on_c, 0, 51, 27
2, 23061, Note_on_c, 0, 51, 0
2, 23072, Note_on_c, 0, 65, 0
2, 23084, Note_on_c, 0, 77, 0
2, 23159, Note_on_c, 0, 63, 40
2, 23161, Note_on_c, 0, 65, 32
2, 23162, Note_on_c, 0, 57, 24
2, 23172, Note_on_c, 0, 65, 0
2, 23176, Note_on_c, 0, 57, 0
2, 23176, Note_on_c, 0, 63, 0
2, 23240, Note_on_c, 0, 78, 47
2, 23241, Note_on_c, 0, 66, 40
2, 23266, Note_on_c, 0, 66, 0
2, 23277, Note_on_c, 0, 78, 0
2, 23281, Note_on_c, 0, 36, 37
2, 23283, Note_on_c, 0, 67, 40
2, 23283, Note_on_c, 0, 79, 45
2, 23288, Note_on_c, 0, 48, 16
2, 23290, Note_on_c, 0, 36, 0
2, 23303, Note_on_c, 0, 48, 0
2, 23333, Note_on_c, 0, 67, 0
2, 23351, Note_on_c, 0, 79, 0
2, 23396, Note_on_c, 0, 63, 37
2, 23397, Note_on_c, 0, 65, 31
2, 23400, Note_on_c, 0, 57, 32
2, 23407, Note_on_c, 0, 65, 0
2, 23414, Note_on_c, 0, 63, 0
2, 23416, Note_on_c, 0, 57, 0
2, 23475, Note_on_c, 0, 80, 64
2, 23475, Note_on_c, 0, 48, 55
2, 23476, Note_on_c, 0, 68, 64
2, 23488, Note_on_c, 0, 78, 19
2, 23503, Note_on_c, 0, 68, 0
2, 23504, Note_on_c, 0, 48, 0
2, 23507, Note_on_c, 0, 80, 0
2, 23512, Note_on_c, 0, 78, 0
2, 23512, Note_on_c, 0, 51, 47
2, 23519, Note_on_c, 0, 41, 32
2, 23519, Note_on_c, 0, 81, 58
2, 23521, Note_on_c, 0, 69, 39
2, 23526, Note_on_c, 0, 41, 0
2, 23536, Note_on_c, 0, 51, 0
2, 23537, Note_on_c, 0, 69, 0
2, 23545, Note_on_c, 0, 81, 0
2, 23599, Note_on_c, 0, 70, 64
2, 23601, Note_on_c, 0, 82, 64
2, 23622, Note_on_c, 0, 70, 0
2, 23627, Note_on_c, 0, 82, 0
2, 23633, Note_on_c, 0, 63, 38
2, 23640, Note_on_c, 0, 57, 30
2, 23642, Note_on_c, 0, 83, 55
2, 23643, Note_on_c, 0, 71, 49
2, 23646, Note_on_c, 0, 63, 0
2, 23649, Note_on_c, 0, 57, 0
2, 23658, Note_on_c, 0, 71, 0
2, 23661, Note_on_c, 0, 83, 0
2, 23707, Control_c, 0, 64, 127
2, 23716, Note_on_c, 0, 72, 58
2, 23718, Note_on_c, 0, 84, 57
2, 23729, Note_on_c, 0, 72, 0
2, 23734, Note_on_c, 0, 84, 0
2, 23747, Control_c, 0, 64, 0
2, 23758, Note_on_c, 0, 48, 57
2, 23762, Note_on_c, 0, 91, 70
2, 23762, Note_on_c, 0, 79, 57
2, 23773, Note_on_c, 0, 48, 0
2, 23778, Control_c, 0, 64, 127
2, 23835, Note_on_c, 0, 91, 0
2, 23839, Note_on_c, 0, 79, 0
2, 23872, Control_c, 0, 64, 0
2, 23878, Note_on_c, 0, 63, 35
2, 23879, Note_on_c, 0, 91, 63
2, 23881, Note_on_c, 0, 79, 48
2, 23884, Note_on_c, 0, 57, 24
2, 23897, Note_on_c, 0, 63, 0
2, 23897, Control_c, 0, 64, 127
2, 23900, Note_on_c, 0, 57, 0
2, 23928, Note_on_c, 0, 91, 0
2, 23946, Note_on_c, 0, 79, 0
2, 23963, Note_on_c, 0, 53, 32
2, 23983, Note_on_c, 0, 53, 0
2, 23987, Control_c, 0, 64, 0
2, 23991, Note_on_c, 0, 46, 37
2, 23999, Note_on_c, 0, 89, 57
2, 24001, Note_on_c, 0, 77, 39
2, 24008, Control_c, 0, 64, 127
2, 24010, Note_on_c, 0, 46, 0
2, 24017, Note_on_c, 0, 77, 0
2, 24020, Note_on_c, 0, 89, 0
2, 24078, Note_on_c, 0, 91, 73
2, 24080, Note_on_c, 0, 79, 64
2, 24100, Note_on_c, 0, 79, 0
2, 24100, Note_on_c, 0, 91, 0
2, 24113, Control_c, 0, 64, 0
2, 24120, Note_on_c, 0, 65, 28
2, 24121, Note_on_c, 0, 62, 20
2, 24121, Note_on_c, 0, 89, 65
2, 24123, Note_on_c, 0, 60, 30
2, 24125, Note_on_c, 0, 77, 50
2, 24134, Control_c, 0, 64, 127
2, 24148, Note_on_c, 0, 62, 0
2, 24157, Note_on_c, 0, 89, 0
2, 24164, Note_on_c, 0, 65, 0
2, 24164, Note_on_c, 0, 60, 0
2, 24167, Note_on_c, 0, 77, 0
2, 24201, Note_on_c, 0, 85, 78
2, 24229, Note_on_c, 0, 85, 0
2, 24234, Note_on_c, 0, 63, 34
2, 24236, Control_c, 0, 64, 0
2, 24238, Note_on_c, 0, 81, 60
2, 24252, Note_on_c, 0, 63, 0
2, 24268, Note_on_c, 0, 81, 0
2, 24273, Note_on_c, 0, 77, 55
2, 24290, Note_on_c, 0, 77, 0
2, 24301, Control_c, 0, 64, 127
2, 24314, Note_on_c, 0, 75, 67
2, 24351, Note_on_c, 0, 75, 0
2, 24351, Note_on_c, 0, 63, 30
2, 24355, Note_on_c, 0, 57, 39
2, 24359, Control_c, 0, 64, 0
2, 24361, Note_on_c, 0, 73, 60
2, 24362, Note_on_c, 0, 63, 0
2, 24374, Note_on_c, 0, 57, 0
2, 24384, Note_on_c, 0, 73, 0
2, 24398, Note_on_c, 0, 69, 45
2, 24418, Note_on_c, 0, 69, 0
2, 24422, Control_c, 0, 64, 127
2, 24438, Note_on_c, 0, 68, 39
2, 24464, Note_on_c, 0, 68, 0
2, 24473, Control_c, 0, 64, 0
2, 24475, Note_on_c, 0, 69, 58
2, 24476, Note_on_c, 0, 65, 22
2, 24478, Note_on_c, 0, 62, 28
2, 24479, Note_on_c, 0, 60, 40
2, 24490, Note_on_c, 0, 65, 0
2, 24500, Note_on_c, 0, 69, 0
2, 24513, Note_on_c, 0, 70, 72
2, 24533, Note_on_c, 0, 70, 0
2, 24553, Note_on_c, 0, 71, 85
2, 24560, Control_c, 0, 64, 127
2, 24579, Note_on_c, 0, 71, 0
2, 24588, Note_on_c, 0, 72, 76
2, 24589, Control_c, 0, 64, 0
2, 24603, Note_on_c, 0, 53, 34
2, 24612, Note_on_c, 0, 62, 0
2, 24614, Note_on_c, 0, 72, 0
2, 24616, Note_on_c, 0, 60, 0
2, 24627, Note_on_c, 0, 69, 49
2, 24652, Note_on_c, 0, 69, 0
2, 24652, Note_on_c, 0, 53, 0
2, 24667, Note_on_c, 0, 65, 31
2, 24683, Control_c, 0, 64, 127
2, 24693, Note_on_c, 0, 65, 0
2, 24705, Note_on_c, 0, 62, 35
2, 24736, Control_c, 0, 64, 0
2, 24738, Note_on_c, 0, 55, 28
2, 24740, Note_on_c, 0, 62, 0
2, 24745, Note_on_c, 0, 55, 0
2, 24789, Note_on_c, 0, 62, 32
2, 24799, Note_on_c, 0, 62, 0
2, 24812, Note_on_c, 0, 50, 38
2, 24823, Control_c, 0, 64, 127
2, 24837, Note_on_c, 0, 44, 35
2, 24839, Note_on_c, 0, 50, 0
2, 24851, Control_c, 0, 64, 0
2, 24914, Control_c, 0, 64, 127
2, 24921, Note_on_c, 0, 54, 30
2, 24930, Note_on_c, 0, 54, 0
2, 24954, Note_on_c, 0, 44, 0
2, 24961, Control_c, 0, 64, 0
2, 24966, Note_on_c, 0, 43, 50
2, 24969, Note_on_c, 0, 67, 52
2, 24970, Note_on_c, 0, 55, 57
2, 24980, Note_on_c, 0, 55, 0
2, 24987, Note_on_c, 0, 43, 0
2, 24994, Note_on_c, 0, 67, 0
2, 25093, Note_on_c, 0, 59, 49
2, 25094, Note_on_c, 0, 64, 32
2, 25097, Note_on_c, 0, 53, 24
2, 25101, Note_on_c, 0, 64, 0
2, 25101, Note_on_c, 0, 59, 0
2, 25112, Note_on_c, 0, 53, 0
2, 25174, Note_on_c, 0, 81, 48
2, 25174, Note_on_c, 0, 69, 51
2, 25190, Note_on_c, 0, 81, 0
2, 25191, Note_on_c, 0, 69, 0
2, 25215, Note_on_c, 0, 38, 46
2, 25230, Note_on_c, 0, 38, 0
2, 25231, Note_on_c, 0, 71, 27
2, 25237, Note_on_c, 0, 71, 0
2, 25335, Note_on_c, 0, 59, 41
2, 25336, Note_on_c, 0, 64, 26
2, 25342, Note_on_c, 0, 64, 0
2, 25343, Note_on_c, 0, 59, 0
2, 25409, Note_on_c, 0, 50, 38
2, 25414, Note_on_c, 0, 82, 72
2, 25415, Note_on_c, 0, 70, 71
2, 25448, Note_on_c, 0, 50, 0
2, 25451, Note_on_c, 0, 43, 33
2, 25452, Note_on_c, 0, 70, 0
2, 25454, Note_on_c, 0, 82, 0
2, 25460, Note_on_c, 0, 71, 43
2, 25461, Note_on_c, 0, 43, 0
2, 25461, Note_on_c, 0, 83, 41
2, 25468, Note_on_c, 0, 80, 19
2, 25476, Note_on_c, 0, 80, 0
2, 25476, Note_on_c, 0, 71, 0
2, 25483, Note_on_c, 0, 83, 0
2, 25541, Note_on_c, 0, 72, 40
2, 25541, Note_on_c, 0, 84, 43
2, 25556, Note_on_c, 0, 84, 0
2, 25559, Note_on_c, 0, 72, 0
2, 25571, Note_on_c, 0, 64, 29
2, 25572, Note_on_c, 0, 59, 34
2, 25578, Note_on_c, 0, 64, 0
2, 25582, Note_on_c, 0, 59, 0
2, 25584, Note_on_c, 0, 85, 57
2, 25589, Note_on_c, 0, 73, 38
2, 25617, Note_on_c, 0, 73, 0
2, 25620, Note_on_c, 0, 85, 0
2, 25653, Note_on_c, 0, 74, 60
2, 25654, Note_on_c, 0, 86, 53
2, 25669, Note_on_c, 0, 74, 0
2, 25679, Note_on_c, 0, 86, 0
2, 25693, Note_on_c, 0, 43, 35
2, 25702, Note_on_c, 0, 43, 0
2, 25734, Note_on_c, 0, 81, 58
2, 25734, Note_on_c, 0, 93, 60
2, 25739, Note_on_c, 0, 88, 50
2, 25752, Note_on_c, 0, 81, 0
2, 25755, Note_on_c, 0, 88, 0
2, 25755, Note_on_c, 0, 93, 0
2, 25771, Note_on_c, 0, 81, 63
2, 25771, Note_on_c, 0, 93, 64
2, 25771, Note_on_c, 0, 88, 58
2, 25792, Note_on_c, 0, 88, 0
2, 25794, Note_on_c, 0, 81, 0
2, 25795, Note_on_c, 0, 93, 0
2, 25816, Note_on_c, 0, 64, 38
2, 25817, Note_on_c, 0, 59, 43
2, 25823, Note_on_c, 0, 93, 71
2, 25825, Note_on_c, 0, 64, 0
2, 25825, Note_on_c, 0, 81, 56
2, 25827, Note_on_c, 0, 59, 0
2, 25828, Note_on_c, 0, 88, 52
2, 25834, Note_on_c, 0, 88, 0
2, 25839, Note_on_c, 0, 81, 0
2, 25843, Note_on_c, 0, 93, 0
2, 25855, Note_on_c, 0, 93, 40
2, 25855, Note_on_c, 0, 81, 47
2, 25859, Note_on_c, 0, 88, 46
2, 25867, Note_on_c, 0, 88, 0
2, 25873, Note_on_c, 0, 81, 0
2, 25873, Note_on_c, 0, 93, 0
2, 25896, Note_on_c, 0, 93, 73
2, 25897, Note_on_c, 0, 81, 57
2, 25899, Note_on_c, 0, 88, 67
2, 25913, Note_on_c, 0, 81, 0
2, 25913, Note_on_c, 0, 93, 0
2, 25915, Note_on_c, 0, 88, 0
2, 25931, Note_on_c, 0, 58, 35
2, 25931, Note_on_c, 0, 62, 36
2, 25933, Note_on_c, 0, 91, 47
2, 25934, Note_on_c, 0, 57, 30
2, 25935, Note_on_c, 0, 86, 40
2, 25937, Note_on_c, 0, 79, 28
2, 25944, Control_c, 0, 64, 127
2, 25969, Note_on_c, 0, 79, 0
2, 25971, Note_on_c, 0, 86, 0
2, 25974, Note_on_c, 0, 91, 0
2, 25979, Note_on_c, 0, 62, 0
2, 25980, Note_on_c, 0, 58, 0
2, 25985, Note_on_c, 0, 57, 0
2, 26007, Note_on_c, 0, 93, 80
2, 26011, Note_on_c, 0, 86, 66
2, 26011, Note_on_c, 0, 57, 54
2, 26011, Note_on_c, 0, 81, 60
2, 26012, Note_on_c, 0, 62, 50
2, 26012, Note_on_c, 0, 58, 46
2, 26027, Note_on_c, 0, 62, 0
2, 26031, Note_on_c, 0, 93, 0
2, 26033, Note_on_c, 0, 81, 0
2, 26033, Note_on_c, 0, 57, 0
2, 26035, Note_on_c, 0, 86, 0
2, 26036, Note_on_c, 0, 58, 0
2, 26051, Note_on_c, 0, 62, 33
2, 26053, Control_c, 0, 64, 0
2, 26053, Note_on_c, 0, 57, 25
2, 26053, Note_on_c, 0, 58, 30
2, 26055, Note_on_c, 0, 91, 38
2, 26059, Note_on_c, 0, 79, 26
2, 26060, Note_on_c, 0, 62, 0
2, 26062, Note_on_c, 0, 91, 0
2, 26066, Note_on_c, 0, 79, 0
2, 26068, Note_on_c, 0, 58, 0
2, 26072, Note_on_c, 0, 57, 0
2, 26106, Control_c, 0, 64, 127
2, 26129, Note_on_c, 0, 89, 53
2, 26130, Note_on_c, 0, 57, 36
2, 26131, Note_on_c, 0, 62, 33
2, 26131, Note_on_c, 0, 77, 32
2, 26132, Note_on_c, 0, 58, 36
2, 26133, Note_on_c, 0, 84, 35
2, 26140, Note_on_c, 0, 84, 0
2, 26142, Note_on_c, 0, 89, 0
2, 26142, Note_on_c, 0, 62, 0
2, 26144, Note_on_c, 0, 77, 0
2, 26146, Note_on_c, 0, 57, 0
2, 26151, Note_on_c, 0, 58, 0
2, 26172, Note_on_c, 0, 86, 51
2, 26172, Control_c, 0, 64, 0
2, 26175, Note_on_c, 0, 58, 36
2, 26176, Note_on_c, 0, 57, 28
2, 26176, Note_on_c, 0, 81, 50
2, 26177, Note_on_c, 0, 74, 29
2, 26177, Note_on_c, 0, 62, 32
2, 26194, Control_c, 0, 64, 127
2, 26218, Note_on_c, 0, 86, 0
2, 26219, Note_on_c, 0, 81, 0
2, 26221, Note_on_c, 0, 62, 0
2, 26224, Note_on_c, 0, 74, 0
2, 26234, Note_on_c, 0, 58, 0
2, 26246, Note_on_c, 0, 57, 0
2, 26287, Note_on_c, 0, 81, 52
2, 26292, Control_c, 0, 64, 0
2, 26292, Note_on_c, 0, 69, 50
2, 26293, Note_on_c, 0, 58, 34
2, 26293, Note_on_c, 0, 62, 27
2, 26294, Note_on_c, 0, 57, 25
2, 26309, Control_c, 0, 64, 127
2, 26324, Note_on_c, 0, 57, 0
2, 26324, Note_on_c, 0, 62, 0
2, 26329, Note_on_c, 0, 58, 0
2, 26331, Note_on_c, 0, 81, 0
2, 26333, Note_on_c, 0, 69, 0
2, 26407, Note_on_c, 0, 80, 69
2, 26407, Note_on_c, 0, 84, 80
2, 26408, Note_on_c, 0, 78, 71
2, 26408, Note_on_c, 0, 76, 80
2, 26410, Note_on_c, 0, 72, 68
2, 26414, Control_c, 0, 64, 0
2, 26441, Note_on_c, 0, 84, 0
2, 26444, Note_on_c, 0, 72, 0
2, 26447, Control_c, 0, 64, 127
2, 26448, Note_on_c, 0, 80, 0
2, 26449, Note_on_c, 0, 78, 0
2, 26453, Note_on_c, 0, 71, 30
2, 26455, Note_on_c, 0, 76, 0
2, 26463, Note_on_c, 0, 70, 44
2, 26465, Note_on_c, 0, 71, 0
2, 26479, Note_on_c, 0, 70, 0
2, 26488, Note_on_c, 0, 69, 41
2, 26505, Note_on_c, 0, 68, 45
2, 26507, Note_on_c, 0, 69, 0
2, 26518, Note_on_c, 0, 68, 0
2, 26523, Note_on_c, 0, 67, 30
2, 26529, Control_c, 0, 64, 0
2, 26530, Note_on_c, 0, 73, 52
2, 26531, Note_on_c, 0, 70, 47
2, 26531, Note_on_c, 0, 81, 50
2, 26533, Note_on_c, 0, 76, 48
2, 26573, Control_c, 0, 64, 127
2, 26614, Note_on_c, 0, 76, 0
2, 26616, Note_on_c, 0, 73, 0
2, 26619, Note_on_c, 0, 81, 0
2, 26619, Note_on_c, 0, 70, 0
2, 26638, Note_on_c, 0, 67, 0
2, 26648, Control_c, 0, 64, 0
2, 26649, Note_on_c, 0, 64, 33
2, 26649, Note_on_c, 0, 70, 37
2, 26650, Note_on_c, 0, 76, 40
2, 26653, Note_on_c, 0, 79, 31
2, 26656, Note_on_c, 0, 73, 37
2, 26675, Control_c, 0, 64, 127
2, 26678, Note_on_c, 0, 79, 0
2, 26686, Note_on_c, 0, 76, 0
2, 26692, Note_on_c, 0, 70, 0
2, 26694, Note_on_c, 0, 73, 0
2, 26704, Note_on_c, 0, 64, 0
2, 26718, Note_on_c, 0, 73, 25
2, 26733, Note_on_c, 0, 73, 0
2, 26765, Note_on_c, 0, 73, 46
2, 26767, Note_on_c, 0, 64, 35
2, 26767, Note_on_c, 0, 68, 48
2, 26767, Note_on_c, 0, 70, 42
2, 26769, Control_c, 0, 64, 0
2, 26771, Note_on_c, 0, 61, 34
2, 26790, Note_on_c, 0, 61, 0
2, 26794, Control_c, 0, 64, 127
2, 26840, Note_on_c, 0, 73, 0
2, 26847, Note_on_c, 0, 64, 0
2, 26853, Note_on_c, 0, 58, 25
2, 26858, Note_on_c, 0, 68, 0
2, 26858, Note_on_c, 0, 70, 0
2, 26888, Note_on_c, 0, 58, 0
2, 26889, Note_on_c, 0, 62, 35
2, 26889, Note_on_c, 0, 72, 37
2, 26890, Control_c, 0, 64, 0
2, 26891, Note_on_c, 0, 67, 29
2, 26893, Note_on_c, 0, 57, 28
2, 26917, Control_c, 0, 64, 127
2, 26967, Note_on_c, 0, 48, 62
2, 27047, Note_on_c, 0, 62, 0
2, 27069, Note_on_c, 0, 67, 0
2, 27072, Note_on_c, 0, 57, 0
2, 27098, Note_on_c, 0, 72, 0
2, 27125, Note_on_c, 0, 72, 38
2, 27126, Note_on_c, 0, 60, 40
2, 27127, Note_on_c, 0, 68, 37
2, 27129, Note_on_c, 0, 56, 37
2, 27130, Control_c, 0, 64, 0
2, 27130, Note_on_c, 0, 64, 29
2, 27160, Note_on_c, 0, 48, 0
2, 27166, Control_c, 0, 64, 127
2, 27204, Note_on_c, 0, 48, 66
2, 27204, Control_c, 0, 64, 0
2, 27232, Control_c, 0, 64, 127
2, 27283, Note_on_c, 0, 56, 0
2, 27290, Note_on_c, 0, 60, 0
2, 27299, Note_on_c, 0, 64, 0
2, 27315, Note_on_c, 0, 72, 0
2, 27324, Note_on_c, 0, 68, 0
2, 27327, Note_on_c, 0, 55, 33
2, 27339, Note_on_c, 0, 55, 0
2, 27349, Control_c, 0, 64, 0
2, 27353, Note_on_c, 0, 62, 37
2, 27354, Note_on_c, 0, 72, 38
2, 27355, Note_on_c, 0, 57, 34
2, 27355, Note_on_c, 0, 67, 39
2, 27373, Note_on_c, 0, 62, 0
2, 27376, Control_c, 0, 64, 127
2, 27381, Note_on_c, 0, 72, 0
2, 27383, Note_on_c, 0, 67, 0
2, 27388, Note_on_c, 0, 48, 0
2, 27433, Note_on_c, 0, 48, 57
2, 27433, Note_on_c, 0, 79, 83
2, 27435, Note_on_c, 0, 72, 80
2, 27457, Note_on_c, 0, 57, 0
2, 27461, Note_on_c, 0, 72, 0
2, 27470, Note_on_c, 0, 79, 0
2, 27482, Note_on_c, 0, 76, 54
2, 27484, Note_on_c, 0, 67, 36
2, 27487, Note_on_c, 0, 72, 37
2, 27509, Note_on_c, 0, 76, 0
2, 27518, Note_on_c, 0, 72, 0
2, 27521, Note_on_c, 0, 48, 0
2, 27545, Note_on_c, 0, 67, 0
2, 27558, Note_on_c, 0, 48, 46
2, 27600, Note_on_c, 0, 60, 48
2, 27601, Note_on_c, 0, 72, 57
2, 27602, Control_c, 0, 64, 0
2, 27604, Note_on_c, 0, 64, 39
2, 27605, Note_on_c, 0, 56, 33
2, 27605, Note_on_c, 0, 68, 47
2, 27633, Control_c, 0, 64, 127
2, 27645, Note_on_c, 0, 48, 0
2, 27667, Note_on_c, 0, 64, 0
2, 27669, Note_on_c, 0, 68, 0
2, 27680, Note_on_c, 0, 48, 72
2, 27703, Control_c, 0, 64, 0
2, 27706, Control_c, 0, 64, 127
2, 27720, Note_on_c, 0, 68, 1
2, 27742, Note_on_c, 0, 60, 0
2, 27761, Note_on_c, 0, 72, 0
2, 27768, Note_on_c, 0, 56, 0
2, 27777, Note_on_c, 0, 68, 0
2, 27802, Note_on_c, 0, 55, 22
2, 27818, Note_on_c, 0, 55, 0
2, 27836, Control_c, 0, 64, 0
2, 27839, Note_on_c, 0, 62, 43
2, 27841, Note_on_c, 0, 57, 38
2, 27841, Note_on_c, 0, 72, 40
2, 27842, Note_on_c, 0, 67, 38
2, 27860, Note_on_c, 0, 62, 0
2, 27865, Control_c, 0, 64, 127
2, 27869, Note_on_c, 0, 48, 0
2, 27870, Note_on_c, 0, 67, 0
2, 27873, Note_on_c, 0, 72, 0
2, 27921, Note_on_c, 0, 48, 66
2, 27923, Note_on_c, 0, 79, 90
2, 27942, Note_on_c, 0, 57, 0
2, 27956, Note_on_c, 0, 79, 0
2, 27977, Note_on_c, 0, 76, 74
2, 28010, Note_on_c, 0, 76, 0
2, 28049, Note_on_c, 0, 76, 70
2, 28073, Note_on_c, 0, 76, 0
2, 28092, Note_on_c, 0, 67, 53
2, 28094, Note_on_c, 0, 56, 39
2, 28095, Note_on_c, 0, 62, 34
2, 28095, Note_on_c, 0, 72, 57
2, 28096, Control_c, 0, 64, 0
2, 28124, Control_c, 0, 64, 127
2, 28143, Note_on_c, 0, 48, 0
2, 28168, Note_on_c, 0, 48, 66
2, 28180, Control_c, 0, 64, 0
2, 28204, Control_c, 0, 64, 127
2, 28224, Note_on_c, 0, 62, 0
2, 28246, Note_on_c, 0, 72, 0
2, 28251, Note_on_c, 0, 56, 0
2, 28257, Note_on_c, 0, 67, 0
2, 28324, Note_on_c, 0, 57, 43
2, 28326, Note_on_c, 0, 69, 50
2, 28326, Note_on_c, 0, 64, 47
2, 28327, Control_c, 0, 64, 0
2, 28327, Note_on_c, 0, 67, 37
2, 28328, Note_on_c, 0, 72, 44
2, 28342, Note_on_c, 0, 48, 0
2, 28352, Note_on_c, 0, 69, 0
2, 28354, Note_on_c, 0, 72, 0
2, 28357, Control_c, 0, 64, 127
2, 28359, Note_on_c, 0, 67, 0
2, 28365, Note_on_c, 0, 64, 0
2, 28385, Note_on_c, 0, 57, 0
2, 28405, Note_on_c, 0, 69, 50
2, 28406, Note_on_c, 0, 48, 50
2, 28406, Note_on_c, 0, 64, 48
2, 28406, Note_on_c, 0, 60, 54
2, 28408, Control_c, 0, 64, 0
2, 28412, Note_on_c, 0, 60, 0
2, 28412, Note_on_c, 0, 69, 0
2, 28413, Note_on_c, 0, 64, 0
2, 28416, Note_on_c, 0, 48, 0
2, 28446, Control_c, 0, 64, 127
2, 28454, Note_on_c, 0, 55, 52
2, 28458, Control_c, 0, 64, 0
2, 28497, Control_c, 0, 64, 127
2, 28514, Note_on_c, 0, 55, 0
2, 28514, Note_on_c, 0, 38, 44
2, 28518, Note_on_c, 0, 26, 40
2, 28519, Note_on_c, 0, 54, 59
2, 28522, Control_c, 0, 64, 0
2, 28550, Note_on_c, 0, 26, 0
2, 28551, Note_on_c, 0, 54, 0
2, 28555, Control_c, 0, 64, 127
2, 28564, Note_on_c, 0, 38, 0
2, 28640, Note_on_c, 0, 54, 58
2, 28641, Note_on_c, 0, 65, 58
2, 28641, Note_on_c, 0, 60, 63
2, 28644, Note_on_c, 0, 44, 37
2, 28659, Control_c, 0, 64, 0
2, 28689, Control_c, 0, 64, 127
2, 28717, Note_on_c, 0, 54, 0
2, 28743, Note_on_c, 0, 60, 0
2, 28770, Note_on_c, 0, 50, 25
2, 28777, Note_on_c, 0, 65, 0
2, 28777, Note_on_c, 0, 44, 0
2, 28797, Control_c, 0, 64, 0
2, 28801, Note_on_c, 0, 43, 46
2, 28805, Note_on_c, 0, 59, 42
2, 28817, Control_c, 0, 64, 127
2, 28820, Note_on_c, 0, 59, 0
2, 28825, Note_on_c, 0, 50, 0
2, 28829, Note_on_c, 0, 43, 0
2, 28914, Note_on_c, 0, 59, 47
2, 28917, Note_on_c, 0, 71, 77
2, 28917, Note_on_c, 0, 53, 31
2, 28920, Control_c, 0, 64, 0
2, 28922, Note_on_c, 0, 59, 0
2, 28930, Note_on_c, 0, 53, 0
2, 28936, Note_on_c, 0, 71, 0
2, 28945, Note_on_c, 0, 79, 80
2, 28967, Note_on_c, 0, 79, 0
2, 28974, Note_on_c, 0, 71, 62
2, 28994, Note_on_c, 0, 71, 0
2, 29003, Note_on_c, 0, 70, 55
2, 29017, Note_on_c, 0, 70, 0
2, 29019, Note_on_c, 0, 43, 38
2, 29028, Note_on_c, 0, 43, 0
2, 29036, Note_on_c, 0, 69, 48
2, 29057, Note_on_c, 0, 69, 0
2, 29066, Note_on_c, 0, 77, 54
2, 29088, Note_on_c, 0, 77, 0
2, 29095, Note_on_c, 0, 69, 40
2, 29111, Note_on_c, 0, 69, 0
2, 29123, Note_on_c, 0, 68, 47
2, 29145, Note_on_c, 0, 68, 0
2, 29154, Note_on_c, 0, 67, 33
2, 29163, Note_on_c, 0, 67, 0
2, 29184, Note_on_c, 0, 76, 50
2, 29199, Note_on_c, 0, 76, 0
2, 29211, Note_on_c, 0, 67, 36
2, 29231, Note_on_c, 0, 67, 0
2, 29241, Note_on_c, 0, 66, 52
2, 29258, Note_on_c, 0, 48, 40
2, 29262, Note_on_c, 0, 66, 0
2, 29272, Note_on_c, 0, 65, 45
2, 29275, Note_on_c, 0, 48, 0
2, 29295, Note_on_c, 0, 65, 0
2, 29306, Note_on_c, 0, 74, 70
2, 29323, Note_on_c, 0, 74, 0
2, 29365, Note_on_c, 0, 65, 44
2, 29379, Note_on_c, 0, 65, 0
2, 29395, Note_on_c, 0, 64, 54
2, 29469, Note_on_c, 0, 58, 27
2, 29472, Note_on_c, 0, 50, 43
2, 29489, Note_on_c, 0, 58, 0
2, 29502, Note_on_c, 0, 64, 0
2, 29509, Note_on_c, 0, 58, 40
2, 29510, Note_on_c, 0, 60, 50
2, 29511, Note_on_c, 0, 65, 53
2, 29512, Note_on_c, 0, 50, 0
2, 29515, Note_on_c, 0, 51, 43
2, 29526, Note_on_c, 0, 65, 0
2, 29530, Note_on_c, 0, 60, 0
2, 29533, Note_on_c, 0, 58, 0
2, 29542, Note_on_c, 0, 66, 67
2, 29575, Note_on_c, 0, 66, 0
2, 29596, Note_on_c, 0, 58, 84
2, 29597, Note_on_c, 0, 67, 74
2, 29598, Note_on_c, 0, 64, 69
2, 29599, Note_on_c, 0, 62, 72
2, 29601, Note_on_c, 0, 52, 72
2, 29605, Note_on_c, 0, 51, 0
2, 29658, Note_on_c, 0, 62, 0
2, 29660, Note_on_c, 0, 67, 0
2, 29662, Note_on_c, 0, 58, 0
2, 29664, Note_on_c, 0, 64, 0
2, 29675, Control_c, 0, 64, 127
2, 29690, Control_c, 0, 64, 0
2, 29691, Note_on_c, 0, 60, 80
2, 29711, Note_on_c, 0, 60, 0
2, 29723, Note_on_c, 0, 52, 0
2, 29724, Note_on_c, 0, 62, 74
2, 29730, Note_on_c, 0, 60, 27
2, 29736, Note_on_c, 0, 60, 0
2, 29744, Note_on_c, 0, 62, 0
2, 29765, Note_on_c, 0, 65, 91
2, 29791, Control_c, 0, 64, 127
2, 29880, Control_c, 0, 64, 0
2, 29883, Note_on_c, 0, 62, 49
2, 29884, Note_on_c, 0, 57, 52
2, 29888, Note_on_c, 0, 47, 59
2, 29914, Note_on_c, 0, 57, 0
2, 29955, Note_on_c, 0, 62, 0
2, 29957, Note_on_c, 0, 47, 0
2, 29960, Note_on_c, 0, 46, 42
2, 29961, Note_on_c, 0, 61, 55
2, 29962, Note_on_c, 0, 56, 48
2, 29995, Note_on_c, 0, 56, 0
2, 29997, Note_on_c, 0, 61, 0
2, 30007, Note_on_c, 0, 46, 0
2, 30013, Note_on_c, 0, 60, 51
2, 30014, Note_on_c, 0, 55, 40
2, 30015, Note_on_c, 0, 45, 31
2, 30034, Note_on_c, 0, 55, 0
2, 30037, Note_on_c, 0, 60, 0
2, 30056, Note_on_c, 0, 45, 0
2, 30066, Note_on_c, 0, 65, 0
2, 30082, Note_on_c, 0, 65, 24
2, 30084, Note_on_c, 0, 44, 37
2, 30085, Note_on_c, 0, 59, 56
2, 30086, Note_on_c, 0, 54, 49
2, 30097, Control_c, 0, 64, 127
2, 30108, Note_on_c, 0, 59, 0
2, 30111, Note_on_c, 0, 54, 0
2, 30119, Control_c, 0, 64, 0
2, 30123, Note_on_c, 0, 65, 0
2, 30129, Note_on_c, 0, 44, 0
2, 30135, Note_on_c, 0, 53, 46
2, 30135, Note_on_c, 0, 43, 24
2, 30136, Note_on_c, 0, 58, 46
2, 30155, Note_on_c, 0, 53, 0
2, 30171, Note_on_c, 0, 58, 0
2, 30188, Note_on_c, 0, 43, 0
2, 30201, Control_c, 0, 64, 127
2, 30202, Note_on_c, 0, 39, 36
2, 30206, Note_on_c, 0, 56, 39
2, 30230, Note_on_c, 0, 56, 0
2, 30237, Control_c, 0, 64, 0
2, 30238, Note_on_c, 0, 39, 0
2, 30247, Note_on_c, 0, 57, 46
2, 30251, Note_on_c, 0, 41, 30
2, 30263, Note_on_c, 0, 57, 0
2, 30288, Note_on_c, 0, 41, 0
2, 30322, Note_on_c, 0, 35, 50
2, 30358, Note_on_c, 0, 35, 0
2, 30370, Note_on_c, 0, 36, 51
2, 30443, Note_on_c, 0, 24, 84
2, 30481, Control_c, 0, 64, 127
2, 30653, Control_c, 0, 64, 0
2, 30682, Note_on_c, 0, 36, 0
2, 30688, Note_on_c, 0, 24, 0
2, 30693, Note_on_c, 0, 60, 87
2, 30805, Note_on_c, 0, 62, 55
2, 30817, Note_on_c, 0, 60, 0
2, 30849, Note_on_c, 0, 64, 57
2, 30850, Note_on_c, 0, 62, 0
2, 30925, Note_on_c, 0, 65, 54
2, 30926, Note_on_c, 0, 64, 0
2, 30958, Note_on_c, 0, 65, 0
2, 30963, Note_on_c, 0, 48, 29
2, 30966, Note_on_c, 0, 60, 48
2, 30969, Note_on_c, 0, 64, 36
2, 31042, Note_on_c, 0, 60, 0
2, 31069, Note_on_c, 0, 64, 0
2, 31075, Note_on_c, 0, 62, 40
2, 31075, Note_on_c, 0, 60, 30
2, 31078, Note_on_c, 0, 58, 32
2, 31153, Note_on_c, 0, 58, 0
2, 31159, Note_on_c, 0, 60, 0
2, 31180, Note_on_c, 0, 62, 0
2, 31190, Note_on_c, 0, 57, 34
2, 31191, Note_on_c, 0, 60, 41
2, 31194, Note_on_c, 0, 64, 33
2, 31199, Note_on_c, 0, 48, 0
2, 31200, Control_c, 0, 64, 127
2, 31217, Note_on_c, 0, 60, 0
2, 31219, Note_on_c, 0, 64, 0
2, 31276, Note_on_c, 0, 76, 69
2, 31276, Note_on_c, 0, 69, 75
2, 31310, Control_c, 0, 64, 0
2, 31316, Note_on_c, 0, 76, 0
2, 31316, Note_on_c, 0, 48, 35
2, 31322, Note_on_c, 0, 64, 36
2, 31322, Note_on_c, 0, 72, 38
2, 31339, Control_c, 0, 64, 127
2, 31357, Note_on_c, 0, 57, 0
2, 31374, Note_on_c, 0, 69, 0
2, 31401, Note_on_c, 0, 64, 0
2, 31407, Note_on_c, 0, 72, 0
2, 31428, Note_on_c, 0, 60, 34
2, 31429, Note_on_c, 0, 68, 46
2, 31430, Note_on_c, 0, 76, 53
2, 31430, Control_c, 0, 64, 0
2, 31432, Note_on_c, 0, 72, 42
2, 31432, Note_on_c, 0, 56, 38
2, 31433, Note_on_c, 0, 64, 37
2, 31463, Control_c, 0, 64, 127
2, 31477, Note_on_c, 0, 48, 0
2, 31514, Note_on_c, 0, 48, 72
2, 31533, Control_c, 0, 64, 0
2, 31558, Control_c, 0, 64, 127
2, 31619, Note_on_c, 0, 60, 0
2, 31622, Note_on_c, 0, 72, 0
2, 31628, Note_on_c, 0, 56, 0
2, 31636, Note_on_c, 0, 64, 0
2, 31637, Note_on_c, 0, 68, 0
2, 31645, Note_on_c, 0, 76, 0
2, 31651, Note_on_c, 0, 55, 18
2, 31662, Note_on_c, 0, 55, 0
2, 31666, Control_c, 0, 64, 0
2, 31669, Note_on_c, 0, 57, 44
2, 31669, Note_on_c, 0, 76, 30
2, 31670, Note_on_c, 0, 64, 32
2, 31672, Note_on_c, 0, 69, 44
2, 31672, Note_on_c, 0, 72, 41
2, 31692, Note_on_c, 0, 48, 0
2, 31697, Control_c, 0, 64, 127
2, 31704, Note_on_c, 0, 64, 0
2, 31710, Note_on_c, 0, 69, 0
2, 31715, Note_on_c, 0, 72, 0
2, 31719, Note_on_c, 0, 76, 0
2, 31749, Note_on_c, 0, 79, 74
2, 31751, Note_on_c, 0, 72, 68
2, 31753, Note_on_c, 0, 48, 51
2, 31755, Control_c, 0, 64, 0
2, 31783, Control_c, 0, 64, 127
2, 31790, Note_on_c, 0, 72, 0
2, 31799, Note_on_c, 0, 79, 0
2, 31802, Note_on_c, 0, 76, 60
2, 31803, Note_on_c, 0, 48, 0
2, 31804, Note_on_c, 0, 67, 34
2, 31807, Note_on_c, 0, 72, 17
2, 31809, Note_on_c, 0, 57, 0
2, 31816, Note_on_c, 0, 72, 0
2, 31825, Note_on_c, 0, 76, 0
2, 31832, Note_on_c, 0, 67, 0
2, 31871, Note_on_c, 0, 67, 30
2, 31873, Note_on_c, 0, 64, 43
2, 31873, Note_on_c, 0, 46, 32
2, 31874, Note_on_c, 0, 56, 29
2, 31875, Note_on_c, 0, 72, 45
2, 31881, Control_c, 0, 64, 0
2, 31912, Control_c, 0, 64, 127
2, 31927, Note_on_c, 0, 67, 0
2, 31936, Note_on_c, 0, 72, 0
2, 31941, Note_on_c, 0, 64, 0
2, 31951, Note_on_c, 0, 46, 0
2, 31960, Note_on_c, 0, 56, 0
2, 31992, Note_on_c, 0, 67, 37
2, 31992, Note_on_c, 0, 60, 33
2, 31994, Note_on_c, 0, 46, 26
2, 31995, Note_on_c, 0, 56, 25
2, 31995, Note_on_c, 0, 64, 33
2, 32007, Control_c, 0, 64, 0
2, 32034, Control_c, 0, 64, 127
2, 32057, Note_on_c, 0, 46, 0
2, 32059, Note_on_c, 0, 60, 0
2, 32060, Note_on_c, 0, 56, 0
2, 32076, Note_on_c, 0, 64, 0
2, 32082, Note_on_c, 0, 67, 0
2, 32166, Note_on_c, 0, 74, 73
2, 32169, Note_on_c, 0, 63, 76
2, 32169, Note_on_c, 0, 67, 74
2, 32170, Note_on_c, 0, 62, 77
2, 32171, Note_on_c, 0, 71, 56
2, 32173, Control_c, 0, 64, 0
2, 32221, Control_c, 0, 64, 127
2, 32238, Note_on_c, 0, 71, 0
2, 32252, Note_on_c, 0, 67, 0
2, 32255, Note_on_c, 0, 63, 0
2, 32256, Note_on_c, 0, 74, 0
2, 32268, Note_on_c, 0, 62, 0
2, 32281, Control_c, 0, 64, 0
2, 32282, Note_on_c, 0, 72, 60
2, 32283, Note_on_c, 0, 63, 52
2, 32286, Note_on_c, 0, 60, 48
2, 32287, Note_on_c, 0, 67, 48
2, 32299, Control_c, 0, 64, 127
2, 32304, Note_on_c, 0, 60, 0
2, 32316, Note_on_c, 0, 67, 0
2, 32319, Note_on_c, 0, 72, 0
2, 32326, Note_on_c, 0, 63, 0
2, 32403, Note_on_c, 0, 60, 35
2, 32403, Control_c, 0, 64, 0
2, 32404, Note_on_c, 0, 68, 35
2, 32405, Note_on_c, 0, 71, 35
2, 32405, Note_on_c, 0, 64, 47
2, 32410, Note_on_c, 0, 54, 29
2, 32438, Control_c, 0, 64, 127
2, 32472, Note_on_c, 0, 54, 0
2, 32478, Note_on_c, 0, 64, 0
2, 32481, Note_on_c, 0, 68, 0
2, 32483, Note_on_c, 0, 71, 0
2, 32487, Note_on_c, 0, 60, 0
2, 32524, Control_c, 0, 64, 0
2, 32526, Note_on_c, 0, 44, 39
2, 32528, Note_on_c, 0, 60, 32
2, 32547, Note_on_c, 0, 54, 2
2, 32550, Control_c, 0, 64, 127
2, 32589, Note_on_c, 0, 60, 0
2, 32605, Note_on_c, 0, 54, 0
2, 32628, Note_on_c, 0, 44, 0
2, 32637, Control_c, 0, 64, 0
2, 32642, Note_on_c, 0, 64, 32
2, 32643, Note_on_c, 0, 59, 36
2, 32645, Note_on_c, 0, 43, 24
2, 32647, Note_on_c, 0, 53, 17
2, 32674, Control_c, 0, 64, 127
2, 32693, Note_on_c, 0, 64, 0
2, 32701, Note_on_c, 0, 53, 0
2, 32703, Note_on_c, 0, 59, 0
2, 32722, Note_on_c, 0, 59, 48
2, 32722, Note_on_c, 0, 63, 53
2, 32745, Note_on_c, 0, 59, 0
2, 32754, Note_on_c, 0, 63, 0
2, 32761, Control_c, 0, 64, 0
2, 32767, Note_on_c, 0, 59, 36
2, 32768, Note_on_c, 0, 53, 35
2, 32768, Note_on_c, 0, 62, 53
2, 32789, Control_c, 0, 64, 127
2, 32814, Note_on_c, 0, 62, 0
2, 32818, Note_on_c, 0, 59, 0
2, 32820, Note_on_c, 0, 53, 0
2, 32840, Note_on_c, 0, 60, 67
2, 32841, Note_on_c, 0, 57, 58
2, 32852, Note_on_c, 0, 52, 32
2, 32866, Note_on_c, 0, 60, 0
2, 32869, Note_on_c, 0, 57, 0
2, 32882, Control_c, 0, 64, 0
2, 32886, Note_on_c, 0, 52, 0
2, 32889, Note_on_c, 0, 55, 47
2, 32890, Note_on_c, 0, 59, 51
2, 32894, Note_on_c, 0, 50, 43
2, 32915, Control_c, 0, 64, 127
2, 32954, Note_on_c, 0, 43, 0
2, 32965, Note_on_c, 0, 55, 0
2, 32975, Note_on_c, 0, 59, 0
2, 32996, Control_c, 0, 64, 0
2, 32998, Note_on_c, 0, 59, 36
2, 32999, Note_on_c, 0, 55, 42
2, 33000, Note_on_c, 0, 43, 29
2, 33002, Note_on_c, 0, 62, 37
2, 33013, Note_on_c, 0, 50, 0
2, 33026, Control_c, 0, 64, 127
2, 33030, Note_on_c, 0, 62, 0
2, 33035, Note_on_c, 0, 59, 0
2, 33049, Note_on_c, 0, 55, 0
2, 33082, Note_on_c, 0, 58, 59
2, 33083, Note_on_c, 0, 55, 60
2, 33083, Note_on_c, 0, 62, 53
2, 33083, Note_on_c, 0, 65, 57
2, 33088, Control_c, 0, 64, 0
2, 33095, Note_on_c, 0, 53, 34
2, 33117, Note_on_c, 0, 55, 0
2, 33117, Note_on_c, 0, 43, 0
2, 33120, Control_c, 0, 64, 127
2, 33122, Note_on_c, 0, 62, 0
2, 33125, Note_on_c, 0, 65, 0
2, 33126, Note_on_c, 0, 58, 0
2, 33146, Note_on_c, 0, 53, 0
2, 33198, Note_on_c, 0, 62, 66
2, 33199, Note_on_c, 0, 58, 65
2, 33199, Note_on_c, 0, 69, 64
2, 33201, Control_c, 0, 64, 0
2, 33202, Note_on_c, 0, 57, 51
2, 33202, Note_on_c, 0, 65, 57
2, 33233, Control_c, 0, 64, 127
2, 33236, Note_on_c, 0, 58, 0
2, 33237, Note_on_c, 0, 65, 0
2, 33238, Note_on_c, 0, 62, 0
2, 33245, Note_on_c, 0, 69, 0
2, 33275, Note_on_c, 0, 57, 0
2, 33330, Note_on_c, 0, 48, 56
2, 33357, Control_c, 0, 64, 0
2, 33375, Note_on_c, 0, 58, 60
2, 33376, Note_on_c, 0, 73, 63
2, 33377, Note_on_c, 0, 81, 69
2, 33379, Note_on_c, 0, 70, 48
2, 33380, Note_on_c, 0, 76, 53
2, 33389, Control_c, 0, 64, 127
2, 33404, Note_on_c, 0, 48, 0
2, 33413, Note_on_c, 0, 58, 0
2, 33426, Note_on_c, 0, 81, 0
2, 33431, Note_on_c, 0, 70, 0
2, 33435, Note_on_c, 0, 76, 0
2, 33442, Note_on_c, 0, 73, 0
2, 33476, Control_c, 0, 64, 0
2, 33484, Note_on_c, 0, 70, 67
2, 33485, Note_on_c, 0, 46, 39
2, 33486, Note_on_c, 0, 56, 35
2, 33488, Note_on_c, 0, 76, 51
2, 33488, Note_on_c, 0, 79, 35
2, 33490, Note_on_c, 0, 73, 50
2, 33491, Note_on_c, 0, 78, 31
2, 33502, Control_c, 0, 64, 127
2, 33508, Note_on_c, 0, 79, 0
2, 33514, Note_on_c, 0, 76, 0
2, 33520, Note_on_c, 0, 70, 0
2, 33530, Note_on_c, 0, 56, 0
2, 33533, Note_on_c, 0, 73, 0
2, 33534, Note_on_c, 0, 78, 0
2, 33556, Note_on_c, 0, 46, 0
2, 33571, Note_on_c, 0, 77, 60
2, 33573, Note_on_c, 0, 72, 59
2, 33575, Note_on_c, 0, 67, 44
2, 33576, Note_on_c, 0, 69, 44
2, 33577, Note_on_c, 0, 74, 47
2, 33581, Control_c, 0, 64, 0
2, 33583, Note_on_c, 0, 69, 0
2, 33586, Note_on_c, 0, 76, 19
2, 33592, Note_on_c, 0, 55, 30
2, 33595, Note_on_c, 0, 45, 30
2, 33597, Note_on_c, 0, 74, 0
2, 33602, Note_on_c, 0, 72, 0
2, 33603, Note_on_c, 0, 77, 0
2, 33605, Note_on_c, 0, 55, 0
2, 33606, Note_on_c, 0, 67, 0
2, 33606, Note_on_c, 0, 76, 0
2, 33611, Control_c, 0, 64, 127
2, 33616, Note_on_c, 0, 45, 0
2, 33683, Note_on_c, 0, 72, 68
2, 33684, Note_on_c, 0, 64, 67
2, 33684, Note_on_c, 0, 67, 57
2, 33687, Note_on_c, 0, 69, 50
2, 33700, Control_c, 0, 64, 0
2, 33705, Note_on_c, 0, 72, 0
2, 33707, Note_on_c, 0, 69, 0
2, 33708, Note_on_c, 0, 64, 0
2, 33710, Note_on_c, 0, 51, 27
2, 33711, Note_on_c, 0, 67, 0
2, 33712, Note_on_c, 0, 39, 30
2, 33744, Note_on_c, 0, 69, 49
2, 33747, Note_on_c, 0, 60, 37
2, 33748, Note_on_c, 0, 64, 44
2, 33749, Note_on_c, 0, 65, 58
2, 33759, Note_on_c, 0, 51, 0
2, 33775, Note_on_c, 0, 65, 0
2, 33779, Note_on_c, 0, 64, 0
2, 33781, Note_on_c, 0, 69, 0
2, 33781, Control_c, 0, 64, 127
2, 33786, Note_on_c, 0, 60, 0
2, 33817, Note_on_c, 0, 39, 0
2, 33828, Control_c, 0, 64, 0
2, 33836, Note_on_c, 0, 59, 48
2, 33836, Note_on_c, 0, 62, 34
2, 33838, Note_on_c, 0, 64, 39
2, 33838, Note_on_c, 0, 67, 31
2, 33838, Note_on_c, 0, 50, 30
2, 33841, Note_on_c, 0, 38, 24
2, 33874, Control_c, 0, 64, 127
2, 33877, Note_on_c, 0, 64, 0
2, 33882, Note_on_c, 0, 67, 0
2, 33882, Note_on_c, 0, 59, 0
2, 33884, Note_on_c, 0, 62, 0
2, 33904, Note_on_c, 0, 50, 0
2, 33920, Note_on_c, 0, 65, 58
2, 33923, Note_on_c, 0, 57, 52
2, 33924, Note_on_c, 0, 60, 60
2, 33926, Note_on_c, 0, 62, 35
2, 33941, Note_on_c, 0, 38, 0
2, 33941, Control_c, 0, 64, 0
2, 33952, Note_on_c, 0, 44, 28
2, 33974, Note_on_c, 0, 62, 0
2, 33979, Control_c, 0, 64, 127
2, 33986, Note_on_c, 0, 60, 0
2, 33988, Note_on_c, 0, 65, 0
2, 34012, Note_on_c, 0, 57, 0
2, 34043, Note_on_c, 0, 42, 34
2, 34066, Control_c, 0, 64, 0
2, 34069, Note_on_c, 0, 44, 0
2, 34072, Note_on_c, 0, 42, 0
2, 34073, Note_on_c, 0, 62, 53
2, 34074, Note_on_c, 0, 43, 44
2, 34075, Note_on_c, 0, 53, 53
2, 34077, Note_on_c, 0, 58, 38
2, 34080, Note_on_c, 0, 55, 47
2, 34088, Note_on_c, 0, 55, 0
2, 34099, Note_on_c, 0, 53, 0
2, 34103, Note_on_c, 0, 62, 0
2, 34109, Note_on_c, 0, 58, 0
2, 34140, Control_c, 0, 64, 127
2, 34155, Note_on_c, 0, 64, 70
2, 34157, Note_on_c, 0, 55, 73
2, 34158, Note_on_c, 0, 60, 60
2, 34158, Note_on_c, 0, 58, 63
2, 34166, Note_on_c, 0, 60, 0
2, 34178, Note_on_c, 0, 55, 0
2, 34178, Note_on_c, 0, 43, 0
2, 34180, Note_on_c, 0, 64, 0
2, 34181, Note_on_c, 0, 58, 0
2, 34194, Note_on_c, 0, 45, 35
2, 34198, Control_c, 0, 64, 0
2, 34205, Note_on_c, 0, 63, 59
2, 34210, Note_on_c, 0, 65, 65
2, 34212, Note_on_c, 0, 57, 53
2, 34220, Note_on_c, 0, 45, 0
2, 34228, Note_on_c, 0, 57, 0
2, 34232, Note_on_c, 0, 63, 0
2, 34234, Note_on_c, 0, 65, 0
2, 34259, Control_c, 0, 64, 127
2, 34277, Note_on_c, 0, 67, 62
2, 34283, Note_on_c, 0, 57, 45
2, 34283, Note_on_c, 0, 62, 42
2, 34284, Note_on_c, 0, 59, 48
2, 34284, Note_on_c, 0, 43, 38
2, 34291, Note_on_c, 0, 57, 0
2, 34295, Note_on_c, 0, 67, 0
2, 34295, Note_on_c, 0, 62, 0
2, 34299, Note_on_c, 0, 59, 0
2, 34316, Control_c, 0, 64, 0
2, 34328, Note_on_c, 0, 43, 0
2, 34332, Note_on_c, 0, 48, 48
2, 34333, Note_on_c, 0, 69, 69
2, 34333, Note_on_c, 0, 58, 46
2, 34334, Note_on_c, 0, 61, 46
2, 34335, Note_on_c, 0, 64, 50
2, 34373, Control_c, 0, 64, 127
2, 34388, Note_on_c, 0, 64, 0
2, 34394, Note_on_c, 0, 61, 0
2, 34398, Note_on_c, 0, 58, 0
2, 34402, Note_on_c, 0, 69, 0
2, 34433, Control_c, 0, 64, 0
2, 34434, Note_on_c, 0, 48, 0
2, 34450, Note_on_c, 0, 58, 48
2, 34452, Note_on_c, 0, 40, 40
2, 34452, Note_on_c, 0, 64, 52
2, 34453, Note_on_c, 0, 69, 34
2, 34453, Note_on_c, 0, 61, 44
2, 34463, Note_on_c, 0, 69, 0
2, 34472, Control_c, 0, 64, 127
2, 34480, Note_on_c, 0, 64, 0
2, 34490, Note_on_c, 0, 58, 0
2, 34492, Note_on_c, 0, 61, 0
2, 34533, Note_on_c, 0, 39, 33
2, 34554, Control_c, 0, 64, 0
2, 34555, Note_on_c, 0, 40, 0
2, 34564, Note_on_c, 0, 60, 65
2, 34564, Note_on_c, 0, 41, 40
2, 34566, Note_on_c, 0, 52, 64
2, 34566, Note_on_c, 0, 55, 64
2, 34568, Note_on_c, 0, 39, 0
2, 34573, Note_on_c, 0, 57, 31
2, 34580, Note_on_c, 0, 59, 26
2, 34584, Note_on_c, 0, 57, 0
2, 34595, Note_on_c, 0, 52, 0
2, 34599, Note_on_c, 0, 55, 0
2, 34602, Note_on_c, 0, 60, 0
2, 34609, Note_on_c, 0, 59, 0
2, 34616, Note_on_c, 0, 41, 0
2, 34645, Note_on_c, 0, 62, 59
2, 34649, Note_on_c, 0, 56, 46
2, 34650, Note_on_c, 0, 58, 53
2, 34651, Note_on_c, 0, 53, 50
2, 34653, Note_on_c, 0, 55, 46
2, 34660, Note_on_c, 0, 55, 0
2, 34668, Note_on_c, 0, 56, 0
2, 34669, Note_on_c, 0, 41, 33
2, 34671, Note_on_c, 0, 53, 0
2, 34677, Note_on_c, 0, 62, 0
2, 34682, Note_on_c, 0, 58, 0
2, 34702, Note_on_c, 0, 64, 58
2, 34704, Note_on_c, 0, 55, 51
2, 34707, Note_on_c, 0, 60, 47
2, 34710, Note_on_c, 0, 41, 0
2, 34712, Note_on_c, 0, 57, 41
2, 34716, Note_on_c, 0, 43, 32
2, 34725, Note_on_c, 0, 57, 0
2, 34725, Note_on_c, 0, 55, 0
2, 34729, Note_on_c, 0, 60, 0
2, 34736, Note_on_c, 0, 64, 0
2, 34769, Note_on_c, 0, 65, 68
2, 34772, Note_on_c, 0, 62, 48
2, 34772, Note_on_c, 0, 57, 63
2, 34774, Note_on_c, 0, 59, 68
2, 34780, Note_on_c, 0, 64, 28
2, 34789, Note_on_c, 0, 64, 0
2, 34794, Note_on_c, 0, 62, 0
2, 34794, Note_on_c, 0, 59, 0
2, 34797, Note_on_c, 0, 65, 0
2, 34799, Note_on_c, 0, 43, 0
2, 34806, Note_on_c, 0, 57, 0
2, 34806, Note_on_c, 0, 36, 44
2, 34810, Note_on_c, 0, 48, 25
2, 34834, Note_on_c, 0, 64, 39
2, 34839, Note_on_c, 0, 56, 40
2, 34840, Note_on_c, 0, 60, 50
2, 34842, Note_on_c, 0, 52, 38
2, 34894, Note_on_c, 0, 60, 0
2, 34899, Note_on_c, 0, 56, 0
2, 34900, Note_on_c, 0, 52, 0
2, 34906, Note_on_c, 0, 64, 0
2, 34908, Note_on_c, 0, 48, 0
2, 34924, Note_on_c, 0, 36, 0
2, 34928, Note_on_c, 0, 62, 33
2, 34931, Note_on_c, 0, 44, 27
2, 34933, Note_on_c, 0, 56, 33
2, 34933, Note_on_c, 0, 52, 32
2, 34967, Note_on_c, 0, 52, 0
2, 34995, Note_on_c, 0, 62, 0
2, 34996, Note_on_c, 0, 56, 0
2, 35008, Note_on_c, 0, 55, 51
2, 35010, Note_on_c, 0, 60, 55
2, 35010, Note_on_c, 0, 64, 41
2, 35012, Note_on_c, 0, 57, 54
2, 35014, Note_on_c, 0, 44, 0
2, 35052, Note_on_c, 0, 48, 51
2, 35074, Note_on_c, 0, 48, 0
2, 35133, Note_on_c, 0, 47, 54
2, 35168, Note_on_c, 0, 47, 0
2, 35180, Note_on_c, 0, 48, 44
2, 35252, Note_on_c, 0, 55, 0
2, 35254, Note_on_c, 0, 57, 0
2, 35255, Note_on_c, 0, 60, 0
2, 35257, Note_on_c, 0, 36, 62
2, 35266, Note_on_c, 0, 64, 0
2, 35278, Note_on_c, 0, 48, 0
2, 35308, Note_on_c, 0, 65, 46
2, 35309, Note_on_c, 0, 58, 45
2, 35310, Note_on_c, 0, 62, 44
2, 35311, Note_on_c, 0, 36, 0
2, 35311, Note_on_c, 0, 53, 31
2, 35313, Note_on_c, 0, 55, 26
2, 35319, Note_on_c, 0, 53, 0
2, 35320, Note_on_c, 0, 55, 0
2, 35321, Note_on_c, 0, 58, 0
2, 35323, Note_on_c, 0, 62, 0
2, 35324, Note_on_c, 0, 65, 0
2, 35383, Note_on_c, 0, 48, 85
2, 35433, Note_on_c, 0, 53, 42
2, 35436, Note_on_c, 0, 60, 36
2, 35441, Note_on_c, 0, 53, 0
2, 35443, Note_on_c, 0, 60, 0
2, 35506, Note_on_c, 0, 47, 52
2, 35508, Note_on_c, 0, 48, 0
2, 35542, Note_on_c, 0, 47, 0
2, 35548, Note_on_c, 0, 55, 49
2, 35552, Note_on_c, 0, 48, 48
2, 35553, Note_on_c, 0, 57, 53
2, 35553, Note_on_c, 0, 64, 32
2, 35553, Note_on_c, 0, 60, 46
2, 35602, Note_on_c, 0, 60, 0
2, 35602, Note_on_c, 0, 55, 0
2, 35612, Note_on_c, 0, 57, 0
2, 35626, Note_on_c, 0, 36, 79
2, 35641, Note_on_c, 0, 64, 0
2, 35658, Note_on_c, 0, 36, 0
2, 35671, Note_on_c, 0, 60, 58
2, 35671, Note_on_c, 0, 55, 31
2, 35686, Note_on_c, 0, 55, 0
2, 35691, Note_on_c, 0, 60, 0
2, 35695, Note_on_c, 0, 48, 0
2, 35703, Note_on_c, 0, 62, 55
2, 35722, Note_on_c, 0, 62, 0
2, 35725, Control_c, 0, 64, 127
2, 35734, Note_on_c, 0, 64, 76
2, 35765, Note_on_c, 0, 64, 0
2, 35774, Note_on_c, 0, 46, 37
2, 35775, Control_c, 0, 64, 0
2, 35775, Note_on_c, 0, 34, 38
2, 35780, Note_on_c, 0, 55, 44
2, 35785, Note_on_c, 0, 60, 39
2, 35788, Note_on_c, 0, 62, 24
2, 35789, Note_on_c, 0, 64, 16
2, 35798, Note_on_c, 0, 62, 0
2, 35819, Control_c, 0, 64, 127
2, 35831, Note_on_c, 0, 34, 0
2, 35843, Note_on_c, 0, 46, 0
2, 35849, Note_on_c, 0, 55, 0
2, 35867, Note_on_c, 0, 60, 0
2, 35875, Note_on_c, 0, 64, 0
2, 35887, Note_on_c, 0, 46, 51
2, 35890, Note_on_c, 0, 56, 33
2, 35891, Control_c, 0, 64, 0
2, 35910, Control_c, 0, 64, 127
2, 35955, Note_on_c, 0, 56, 0
2, 35965, Note_on_c, 0, 72, 47
2, 35965, Note_on_c, 0, 60, 43
2, 35968, Note_on_c, 0, 46, 0
2, 35969, Note_on_c, 0, 67, 36
2, 35977, Control_c, 0, 64, 0
2, 35983, Note_on_c, 0, 60, 0
2, 35996, Note_on_c, 0, 67, 0
2, 35996, Note_on_c, 0, 45, 40
2, 35999, Note_on_c, 0, 72, 0
2, 36002, Control_c, 0, 64, 127
2, 36002, Note_on_c, 0, 55, 16
2, 36015, Note_on_c, 0, 45, 0
2, 36029, Note_on_c, 0, 55, 0
2, 36075, Note_on_c, 0, 84, 68
2, 36077, Note_on_c, 0, 72, 55
2, 36078, Note_on_c, 0, 79, 55
2, 36085, Note_on_c, 0, 72, 0
2, 36089, Note_on_c, 0, 79, 0
2, 36089, Control_c, 0, 64, 0
2, 36094, Note_on_c, 0, 84, 0
2, 36114, Note_on_c, 0, 55, 53
2, 36116, Note_on_c, 0, 64, 40
2, 36118, Note_on_c, 0, 61, 46
2, 36120, Note_on_c, 0, 86, 78
2, 36122, Note_on_c, 0, 80, 54
2, 36122, Note_on_c, 0, 74, 49
2, 36123, Note_on_c, 0, 83, 60
2, 36123, Note_on_c, 0, 76, 59
2, 36150, Note_on_c, 0, 76, 0
2, 36164, Note_on_c, 0, 55, 0
2, 36169, Note_on_c, 0, 64, 0
2, 36171, Note_on_c, 0, 80, 0
2, 36171, Note_on_c, 0, 74, 0
2, 36177, Note_on_c, 0, 86, 0
2, 36178, Note_on_c, 0, 83, 0
2, 36180, Note_on_c, 0, 61, 0
2, 36197, Note_on_c, 0, 86, 46
2, 36197, Note_on_c, 0, 80, 52
2, 36198, Note_on_c, 0, 83, 51
2, 36198, Note_on_c, 0, 64, 59
2, 36199, Note_on_c, 0, 60, 57
2, 36199, Note_on_c, 0, 74, 50
2, 36202, Note_on_c, 0, 54, 39
2, 36223, Note_on_c, 0, 74, 0
2, 36226, Note_on_c, 0, 83, 0
2, 36226, Note_on_c, 0, 80, 0
2, 36227, Note_on_c, 0, 64, 0
2, 36227, Note_on_c, 0, 60, 0
2, 36228, Note_on_c, 0, 54, 0
2, 36228, Note_on_c, 0, 86, 0
2, 36315, Note_on_c, 0, 60, 49
2, 36316, Note_on_c, 0, 54, 39
2, 36316, Note_on_c, 0, 64, 36
2, 36317, Note_on_c, 0, 86, 50
2, 36318, Note_on_c, 0, 74, 36
2, 36318, Note_on_c, 0, 83, 50
2, 36318, Note_on_c, 0, 80, 37
2, 36346, Note_on_c, 0, 64, 0
2, 36348, Note_on_c, 0, 74, 0
2, 36350, Note_on_c, 0, 60, 0
2, 36353, Note_on_c, 0, 86, 0
2, 36354, Note_on_c, 0, 83, 0
2, 36357, Note_on_c, 0, 80, 0
2, 36359, Note_on_c, 0, 54, 0
2, 36434, Note_on_c, 0, 86, 48
2, 36434, Note_on_c, 0, 81, 49
2, 36436, Note_on_c, 0, 74, 43
2, 36436, Note_on_c, 0, 64, 41
2, 36437, Note_on_c, 0, 59, 43
2, 36442, Note_on_c, 0, 53, 38
2, 36455, Note_on_c, 0, 64, 0
2, 36455, Note_on_c, 0, 86, 0
2, 36457, Note_on_c, 0, 59, 0
2, 36457, Note_on_c, 0, 81, 0
2, 36457, Note_on_c, 0, 74, 0
2, 36462, Note_on_c, 0, 53, 0
2, 36541, Note_on_c, 0, 62, 59
2, 36543, Note_on_c, 0, 50, 41
2, 36552, Note_on_c, 0, 62, 0
2, 36569, Note_on_c, 0, 50, 0
2, 36572, Note_on_c, 0, 64, 66
2, 36575, Note_on_c, 0, 52, 59
2, 36588, Note_on_c, 0, 64, 0
2, 36601, Note_on_c, 0, 52, 0
2, 36611, Note_on_c, 0, 65, 72
2, 36613, Note_on_c, 0, 53, 68
2, 36637, Note_on_c, 0, 53, 0
2, 36639, Note_on_c, 0, 65, 0
2, 36682, Note_on_c, 0, 69, 88
2, 36683, Note_on_c, 0, 57, 66
2, 36706, Note_on_c, 0, 57, 0
2, 36715, Note_on_c, 0, 69, 0
2, 36754, Note_on_c, 0, 67, 67
2, 36756, Note_on_c, 0, 55, 59
2, 36779, Control_c, 0, 64, 127
2, 36794, Note_on_c, 0, 55, 0
2, 36800, Note_on_c, 0, 67, 0
2, 36811, Control_c, 0, 64, 0
2, 36832, Note_on_c, 0, 53, 36
2, 36834, Note_on_c, 0, 65, 51
2, 36843, Note_on_c, 0, 53, 0
2, 36847, Control_c, 0, 64, 127
2, 36884, Note_on_c, 0, 65, 0
2, 36914, Note_on_c, 0, 67, 35
2, 36917, Note_on_c, 0, 65, 44
2, 36919, Note_on_c, 0, 62, 42
2, 36919, Note_on_c, 0, 58, 32
2, 36920, Control_c, 0, 64, 0
2, 36920, Note_on_c, 0, 57, 36
2, 36973, Control_c, 0, 64, 127
2, 37036, Note_on_c, 0, 48, 45
2, 37039, Note_on_c, 0, 58, 0
2, 37054, Note_on_c, 0, 48, 0
2, 37061, Note_on_c, 0, 62, 0
2, 37065, Note_on_c, 0, 65, 0
2, 37071, Note_on_c, 0, 67, 0
2, 37089, Note_on_c, 0, 48, 35
2, 37099, Note_on_c, 0, 57, 0
2, 37152, Note_on_c, 0, 74, 51
2, 37159, Note_on_c, 0, 58, 39
2, 37160, Note_on_c, 0, 62, 54
2, 37162, Control_c, 0, 64, 0
2, 37162, Note_on_c, 0, 64, 44
2, 37198, Control_c, 0, 64, 127
2, 37205, Note_on_c, 0, 48, 0
2, 37272, Note_on_c, 0, 48, 40
2, 37281, Note_on_c, 0, 48, 0
2, 37315, Note_on_c, 0, 64, 0
2, 37317, Note_on_c, 0, 62, 0
2, 37317, Note_on_c, 0, 48, 38
2, 37323, Note_on_c, 0, 58, 0
2, 37332, Note_on_c, 0, 74, 0
2, 37393, Note_on_c, 0, 72, 51
2, 37396, Note_on_c, 0, 57, 42
2, 37396, Control_c, 0, 64, 0
2, 37398, Note_on_c, 0, 67, 39
2, 37399, Note_on_c, 0, 60, 48
2, 37438, Control_c, 0, 64, 127
2, 37464, Note_on_c, 0, 48, 0
2, 37515, Note_on_c, 0, 48, 56
2, 37538, Note_on_c, 0, 48, 0
2, 37552, Note_on_c, 0, 60, 0
2, 37568, Note_on_c, 0, 67, 0
2, 37568, Note_on_c, 0, 48, 45
2, 37577, Note_on_c, 0, 72, 0
2, 37589, Note_on_c, 0, 57, 0
2, 37636, Note_on_c, 0, 73, 69
2, 37638, Note_on_c, 0, 61, 58
2, 37639, Note_on_c, 0, 65, 68
2, 37642, Note_on_c, 0, 56, 50
2, 37646, Control_c, 0, 64, 0
2, 37682, Control_c, 0, 64, 127
2, 37710, Note_on_c, 0, 48, 0
2, 37761, Note_on_c, 0, 48, 46
2, 37778, Note_on_c, 0, 48, 0
2, 37805, Note_on_c, 0, 65, 0
2, 37814, Note_on_c, 0, 48, 48
2, 37820, Note_on_c, 0, 61, 0
2, 37826, Note_on_c, 0, 73, 0
2, 37879, Note_on_c, 0, 56, 0
2, 37886, Note_on_c, 0, 72, 46
2, 37889, Note_on_c, 0, 62, 41
2, 37889, Note_on_c, 0, 67, 44
2, 37890, Note_on_c, 0, 60, 46
2, 37890, Control_c, 0, 64, 0
2, 37894, Note_on_c, 0, 57, 50
2, 37935, Control_c, 0, 64, 127
2, 37945, Note_on_c, 0, 48, 0
2, 38009, Note_on_c, 0, 48, 50
2, 38026, Note_on_c, 0, 48, 0
2, 38048, Note_on_c, 0, 72, 0
2, 38055, Note_on_c, 0, 67, 0
2, 38057, Note_on_c, 0, 60, 0
2, 38058, Note_on_c, 0, 48, 47
2, 38060, Note_on_c, 0, 62, 0
2, 38062, Note_on_c, 0, 57, 0
2, 38125, Note_on_c, 0, 69, 68
2, 38126, Note_on_c, 0, 64, 58
2, 38127, Note_on_c, 0, 60, 61
2, 38131, Note_on_c, 0, 57, 45
2, 38135, Control_c, 0, 64, 0
2, 38158, Control_c, 0, 64, 127
2, 38164, Note_on_c, 0, 57, 0
2, 38177, Note_on_c, 0, 48, 0
2, 38232, Note_on_c, 0, 60, 0
2, 38239, Note_on_c, 0, 48, 49
2, 38247, Note_on_c, 0, 64, 0
2, 38253, Note_on_c, 0, 69, 0
2, 38272, Control_c, 0, 64, 0
2, 38277, Note_on_c, 0, 52, 30
2, 38278, Note_on_c, 0, 42, 33
2, 38279, Note_on_c, 0, 64, 55
2, 38304, Control_c, 0, 64, 127
2, 38321, Note_on_c, 0, 52, 0
2, 38350, Note_on_c, 0, 42, 0
2, 38364, Note_on_c, 0, 48, 0
2, 38384, Note_on_c, 0, 64, 0
2, 38387, Control_c, 0, 64, 0
2, 38399, Note_on_c, 0, 51, 29
2, 38399, Note_on_c, 0, 63, 42
2, 38413, Control_c, 0, 64, 127
2, 38419, Note_on_c, 0, 51, 0
2, 38450, Note_on_c, 0, 63, 0
2, 38474, Note_on_c, 0, 65, 51
2, 38504, Note_on_c, 0, 65, 0
2, 38512, Control_c, 0, 64, 0
2, 38513, Note_on_c, 0, 63, 38
2, 38516, Note_on_c, 0, 67, 49
2, 38517, Note_on_c, 0, 57, 28
2, 38528, Note_on_c, 0, 57, 0
2, 38530, Note_on_c, 0, 63, 0
2, 38541, Control_c, 0, 64, 127
2, 38554, Note_on_c, 0, 67, 0
2, 38597, Note_on_c, 0, 70, 77
2, 38630, Note_on_c, 0, 70, 0
2, 38632, Control_c, 0, 64, 0
2, 38640, Note_on_c, 0, 57, 28
2, 38645, Note_on_c, 0, 63, 12
2, 38651, Note_on_c, 0, 69, 58
2, 38662, Note_on_c, 0, 63, 0
2, 38669, Control_c, 0, 64, 127
2, 38674, Note_on_c, 0, 57, 0
2, 38750, Control_c, 0, 64, 0
2, 38759, Note_on_c, 0, 42, 31
2, 38759, Note_on_c, 0, 52, 30
2, 38783, Control_c, 0, 64, 127
2, 38792, Note_on_c, 0, 69, 0
2, 38837, Note_on_c, 0, 52, 0
2, 38845, Note_on_c, 0, 48, 36
2, 38852, Note_on_c, 0, 42, 0
2, 38870, Note_on_c, 0, 48, 0
2, 38874, Control_c, 0, 64, 0
2, 38884, Note_on_c, 0, 79, 90
2, 38887, Note_on_c, 0, 51, 47
2, 38899, Note_on_c, 0, 51, 0
2, 38912, Note_on_c, 0, 79, 0
2, 38923, Note_on_c, 0, 72, 66
2, 38941, Control_c, 0, 64, 127
2, 38950, Note_on_c, 0, 72, 0
2, 38961, Note_on_c, 0, 75, 76
2, 38987, Control_c, 0, 64, 0
2, 38994, Note_on_c, 0, 57, 31
2, 38997, Note_on_c, 0, 63, 36
2, 38998, Note_on_c, 0, 75, 0
2, 39000, Note_on_c, 0, 71, 42
2, 39021, Note_on_c, 0, 57, 0
2, 39035, Note_on_c, 0, 63, 0
2, 39039, Note_on_c, 0, 74, 67
2, 39041, Note_on_c, 0, 71, 0
2, 39049, Control_c, 0, 64, 127
2, 39072, Note_on_c, 0, 74, 0
2, 39078, Note_on_c, 0, 72, 66
2, 39083, Note_on_c, 0, 74, 24
2, 39106, Control_c, 0, 64, 0
2, 39112, Note_on_c, 0, 64, 31
2, 39115, Note_on_c, 0, 58, 31
2, 39116, Note_on_c, 0, 74, 0
2, 39121, Note_on_c, 0, 64, 0
2, 39132, Note_on_c, 0, 58, 0
2, 39153, Note_on_c, 0, 67, 45
2, 39156, Note_on_c, 0, 72, 0
2, 39169, Control_c, 0, 64, 127
2, 39177, Note_on_c, 0, 67, 0
2, 39193, Note_on_c, 0, 65, 44
2, 39228, Note_on_c, 0, 65, 0
2, 39230, Control_c, 0, 64, 0
2, 39234, Note_on_c, 0, 41, 37
2, 39237, Note_on_c, 0, 64, 38
2, 39247, Note_on_c, 0, 41, 0
2, 39280, Control_c, 0, 64, 127
2, 39297, Note_on_c, 0, 64, 0
2, 39312, Note_on_c, 0, 63, 46
2, 39349, Note_on_c, 0, 63, 0
2, 39352, Control_c, 0, 64, 0
2, 39357, Note_on_c, 0, 50, 41
2, 39359, Note_on_c, 0, 62, 31
2, 39361, Note_on_c, 0, 58, 12
2, 39386, Note_on_c, 0, 50, 0
2, 39396, Control_c, 0, 64, 127
2, 39403, Note_on_c, 0, 58, 0
2, 39433, Note_on_c, 0, 63, 64
2, 39445, Note_on_c, 0, 62, 0
2, 39457, Note_on_c, 0, 63, 0
2, 39468, Note_on_c, 0, 58, 32
2, 39470, Control_c, 0, 64, 0
2, 39474, Note_on_c, 0, 64, 56
2, 39479, Note_on_c, 0, 58, 0
2, 39502, Note_on_c, 0, 64, 0
2, 39509, Note_on_c, 0, 65, 71
2, 39510, Control_c, 0, 64, 127
2, 39538, Note_on_c, 0, 65, 0
2, 39550, Note_on_c, 0, 61, 64
2, 39585, Note_on_c, 0, 51, 30
2, 39587, Control_c, 0, 64, 0
2, 39591, Note_on_c, 0, 61, 0
2, 39596, Note_on_c, 0, 41, 19
2, 39596, Note_on_c, 0, 57, 34
2, 39640, Control_c, 0, 64, 127
2, 39684, Note_on_c, 0, 51, 0
2, 39717, Note_on_c, 0, 51, 38
2, 39720, Control_c, 0, 64, 0
2, 39735, Control_c, 0, 64, 127
2, 39736, Note_on_c, 0, 41, 0
2, 39772, Note_on_c, 0, 51, 0
2, 39796, Note_on_c, 0, 61, 64
2, 39824, Note_on_c, 0, 57, 0
2, 39833, Note_on_c, 0, 61, 0
2, 39845, Control_c, 0, 64, 0
2, 39847, Note_on_c, 0, 53, 32
2, 39848, Note_on_c, 0, 46, 25
2, 39848, Note_on_c, 0, 60, 58
2, 39903, Control_c, 0, 64, 127
2, 39912, Note_on_c, 0, 60, 0
2, 39918, Note_on_c, 0, 57, 44
2, 39946, Note_on_c, 0, 57, 0
2, 39961, Note_on_c, 0, 58, 33
2, 39969, Control_c, 0, 64, 0
2, 39981, Note_on_c, 0, 58, 0
2, 39993, Note_on_c, 0, 60, 46
2, 39996, Note_on_c, 0, 46, 0
2, 39998, Note_on_c, 0, 53, 0
2, 40013, Note_on_c, 0, 60, 0
2, 40020, Note_on_c, 0, 61, 59
2, 40027, Control_c, 0, 64, 127
2, 40051, Note_on_c, 0, 61, 0
2, 40051, Note_on_c, 0, 63, 67
2, 40053, Control_c, 0, 64, 0
2, 40071, Note_on_c, 0, 63, 0
2, 40075, Note_on_c, 0, 55, 49
2, 40079, Note_on_c, 0, 64, 62
2, 40095, Note_on_c, 0, 64, 0
2, 40099, Note_on_c, 0, 55, 0
2, 40107, Note_on_c, 0, 66, 49
2, 40124, Note_on_c, 0, 66, 0
2, 40132, Note_on_c, 0, 67, 57
2, 40161, Note_on_c, 0, 67, 0
2, 40161, Note_on_c, 0, 69, 65
2, 40184, Note_on_c, 0, 69, 0
2, 40186, Note_on_c, 0, 54, 60
2, 40190, Note_on_c, 0, 44, 25
2, 40191, Note_on_c, 0, 70, 59
2, 40204, Note_on_c, 0, 70, 0
2, 40216, Note_on_c, 0, 72, 53
2, 40230, Note_on_c, 0, 54, 0
2, 40238, Note_on_c, 0, 72, 0
2, 40246, Note_on_c, 0, 44, 0
2, 40253, Note_on_c, 0, 50, 31
2, 40269, Note_on_c, 0, 73, 56
2, 40272, Note_on_c, 0, 50, 0
2, 40291, Note_on_c, 0, 73, 0
2, 40293, Note_on_c, 0, 43, 39
2, 40295, Note_on_c, 0, 53, 32
2, 40298, Note_on_c, 0, 74, 62
2, 40301, Note_on_c, 0, 43, 0
2, 40307, Note_on_c, 0, 53, 0
2, 40322, Note_on_c, 0, 74, 0
2, 40337, Note_on_c, 0, 71, 63
2, 40353, Note_on_c, 0, 71, 0
2, 40360, Note_on_c, 0, 67, 55
2, 40388, Note_on_c, 0, 67, 0
2, 40392, Note_on_c, 0, 79, 83
2, 40417, Note_on_c, 0, 79, 0
2, 40421, Note_on_c, 0, 64, 29
2, 40425, Note_on_c, 0, 79, 69
2, 40426, Note_on_c, 0, 59, 39
2, 40430, Note_on_c, 0, 67, 22
2, 40437, Note_on_c, 0, 67, 0
2, 40443, Note_on_c, 0, 59, 0
2, 40450, Note_on_c, 0, 64, 0
2, 40457, Control_c, 0, 64, 127
2, 40458, Note_on_c, 0, 79, 0
2, 40509, Note_on_c, 0, 60, 57
2, 40509, Note_on_c, 0, 54, 50
2, 40513, Note_on_c, 0, 65, 26
2, 40518, Control_c, 0, 64, 0
2, 40524, Note_on_c, 0, 65, 0
2, 40527, Note_on_c, 0, 60, 0
2, 40536, Note_on_c, 0, 54, 0
2, 40550, Note_on_c, 0, 53, 48
2, 40551, Note_on_c, 0, 64, 57
2, 40556, Note_on_c, 0, 59, 36
2, 40562, Control_c, 0, 64, 127
2, 40564, Note_on_c, 0, 59, 0
2, 40565, Note_on_c, 0, 64, 0
2, 40571, Note_on_c, 0, 53, 0
2, 40632, Note_on_c, 0, 43, 44
2, 40640, Note_on_c, 0, 43, 0
2, 40663, Control_c, 0, 64, 0
2, 40668, Note_on_c, 0, 54, 59
2, 40669, Note_on_c, 0, 44, 51
2, 40672, Note_on_c, 0, 69, 68
2, 40674, Note_on_c, 0, 64, 49
2, 40675, Note_on_c, 0, 59, 41
2, 40701, Control_c, 0, 64, 127
2, 40750, Note_on_c, 0, 50, 43
2, 40752, Note_on_c, 0, 54, 0
2, 40755, Note_on_c, 0, 64, 0
2, 40762, Note_on_c, 0, 59, 0
2, 40773, Note_on_c, 0, 50, 0
2, 40774, Note_on_c, 0, 69, 0
2, 40777, Note_on_c, 0, 44, 0
2, 40795, Note_on_c, 0, 67, 46
2, 40796, Control_c, 0, 64, 0
2, 40797, Note_on_c, 0, 43, 42
2, 40798, Note_on_c, 0, 59, 25
2, 40799, Note_on_c, 0, 53, 45
2, 40799, Note_on_c, 0, 64, 40
2, 40830, Control_c, 0, 64, 127
2, 40853, Note_on_c, 0, 53, 0
2, 40857, Note_on_c, 0, 64, 0
2, 40862, Note_on_c, 0, 67, 0
2, 40866, Note_on_c, 0, 59, 0
2, 40922, Note_on_c, 0, 63, 40
2, 40924, Note_on_c, 0, 66, 32
2, 40924, Note_on_c, 0, 54, 42
2, 40927, Note_on_c, 0, 59, 20
2, 40930, Control_c, 0, 64, 0
2, 40966, Control_c, 0, 64, 127
2, 40987, Note_on_c, 0, 54, 0
2, 40990, Note_on_c, 0, 59, 0
2, 41001, Note_on_c, 0, 50, 27
2, 41011, Note_on_c, 0, 66, 0
2, 41014, Note_on_c, 0, 63, 0
2, 41029, Note_on_c, 0, 50, 0
2, 41045, Note_on_c, 0, 62, 44
2, 41047, Note_on_c, 0, 53, 36
2, 41047, Control_c, 0, 64, 0
2, 41048, Note_on_c, 0, 55, 37
2, 41049, Note_on_c, 0, 65, 47
2, 41082, Control_c, 0, 64, 127
2, 41094, Note_on_c, 0, 62, 0
2, 41114, Note_on_c, 0, 43, 0
2, 41123, Note_on_c, 0, 55, 0
2, 41123, Note_on_c, 0, 53, 0
2, 41148, Note_on_c, 0, 65, 0
2, 41165, Note_on_c, 0, 62, 33
2, 41166, Control_c, 0, 64, 0
2, 41167, Note_on_c, 0, 50, 39
2, 41171, Note_on_c, 0, 55, 19
2, 41174, Note_on_c, 0, 59, 24
2, 41190, Control_c, 0, 64, 127
2, 41191, Note_on_c, 0, 50, 0
2, 41195, Note_on_c, 0, 59, 0
2, 41199, Note_on_c, 0, 55, 0
2, 41204, Note_on_c, 0, 62, 0
2, 41255, Note_on_c, 0, 67, 36
2, 41257, Note_on_c, 0, 62, 51
2, 41258, Note_on_c, 0, 57, 33
2, 41259, Note_on_c, 0, 58, 37
2, 41260, Note_on_c, 0, 48, 29
2, 41263, Control_c, 0, 64, 0
2, 41291, Control_c, 0, 64, 127
2, 41298, Note_on_c, 0, 67, 0
2, 41324, Note_on_c, 0, 58, 0
2, 41329, Note_on_c, 0, 57, 0
2, 41334, Note_on_c, 0, 62, 0
2, 41381, Note_on_c, 0, 69, 74
2, 41386, Note_on_c, 0, 57, 40
2, 41399, Note_on_c, 0, 69, 0
2, 41435, Note_on_c, 0, 48, 0
2, 41435, Note_on_c, 0, 70, 63
2, 41471, Note_on_c, 0, 70, 0
2, 41506, Note_on_c, 0, 74, 80
2, 41508, Note_on_c, 0, 57, 0
2, 41508, Note_on_c, 0, 48, 56
2, 41533, Note_on_c, 0, 74, 0
2, 41568, Control_c, 0, 64, 0
2, 41578, Note_on_c, 0, 70, 54
2, 41579, Note_on_c, 0, 67, 38
2, 41581, Note_on_c, 0, 58, 33
2, 41581, Note_on_c, 0, 62, 40
2, 41600, Control_c, 0, 64, 127
2, 41645, Note_on_c, 0, 67, 0
2, 41652, Note_on_c, 0, 70, 0
2, 41657, Note_on_c, 0, 58, 0
2, 41663, Note_on_c, 0, 62, 0
2, 41691, Note_on_c, 0, 69, 55
2, 41698, Note_on_c, 0, 69, 0
2, 41713, Note_on_c, 0, 48, 0
2, 41761, Note_on_c, 0, 67, 51
2, 41761, Note_on_c, 0, 58, 45
2, 41764, Note_on_c, 0, 64, 47
2, 41765, Note_on_c, 0, 48, 45
2, 41768, Note_on_c, 0, 57, 34
2, 41777, Control_c, 0, 64, 0
2, 41815, Control_c, 0, 64, 127
2, 41873, Note_on_c, 0, 64, 0
2, 41883, Note_on_c, 0, 58, 0
2, 41907, Note_on_c, 0, 64, 42
2, 41907, Note_on_c, 0, 58, 30
2, 41913, Note_on_c, 0, 57, 0
2, 41924, Note_on_c, 0, 64, 0
2, 41927, Note_on_c, 0, 58, 0
2, 41927, Note_on_c, 0, 48, 0
2, 41929, Note_on_c, 0, 67, 0
2, 42010, Note_on_c, 0, 61, 46
2, 42011, Note_on_c, 0, 52, 45
2, 42014, Note_on_c, 0, 56, 37
2, 42014, Note_on_c, 0, 58, 39
2, 42023, Control_c, 0, 64, 0
2, 42065, Control_c, 0, 64, 127
2, 42108, Control_c, 0, 64, 0
2, 42110, Note_on_c, 0, 52, 0
2, 42119, Note_on_c, 0, 42, 43
2, 42123, Note_on_c, 0, 56, 0
2, 42125, Note_on_c, 0, 58, 0
2, 42130, Note_on_c, 0, 61, 0
2, 42139, Control_c, 0, 64, 127
2, 42209, Note_on_c, 0, 42, 0
2, 42209, Note_on_c, 0, 60, 92
2, 42214, Note_on_c, 0, 48, 35
2, 42245, Control_c, 0, 64, 0
2, 42246, Note_on_c, 0, 48, 0
2, 42250, Note_on_c, 0, 41, 26
2, 42258, Note_on_c, 0, 41, 0
2, 42301, Control_c, 0, 64, 127
2, 42327, Note_on_c, 0, 62, 50
2, 42338, Note_on_c, 0, 60, 0
2, 42360, Control_c, 0, 64, 0
2, 42362, Note_on_c, 0, 62, 0
2, 42371, Note_on_c, 0, 64, 51
2, 42416, Control_c, 0, 64, 127
2, 42426, Note_on_c, 0, 64, 0
2, 42440, Note_on_c, 0, 65, 47
2, 42474, Note_on_c, 0, 65, 0
2, 42480, Control_c, 0, 64, 0
2, 42484, Note_on_c, 0, 64, 51
2, 42491, Note_on_c, 0, 64, 0
2, 42546, Control_c, 0, 64, 127
2, 42559, Note_on_c, 0, 76, 53
2, 42562, Note_on_c, 0, 68, 47
2, 42564, Note_on_c, 0, 64, 44
2, 42564, Note_on_c, 0, 72, 43
2, 42579, Note_on_c, 0, 68, 0
2, 42580, Note_on_c, 0, 72, 0
2, 42584, Note_on_c, 0, 76, 0
2, 42585, Note_on_c, 0, 64, 0
2, 42591, Control_c, 0, 64, 0
2, 42605, Note_on_c, 0, 74, 49
2, 42607, Note_on_c, 0, 64, 29
2, 42608, Note_on_c, 0, 68, 45
2, 42609, Note_on_c, 0, 58, 33
2, 42633, Note_on_c, 0, 64, 0
2, 42633, Note_on_c, 0, 74, 0
2, 42638, Note_on_c, 0, 68, 0
2, 42642, Control_c, 0, 64, 127
2, 42672, Note_on_c, 0, 58, 0
2, 42703, Control_c, 0, 64, 0
2, 42724, Note_on_c, 0, 72, 37
2, 42724, Note_on_c, 0, 67, 35
2, 42725, Note_on_c, 0, 62, 26
2, 42726, Note_on_c, 0, 57, 38
2, 42738, Note_on_c, 0, 57, 0
2, 42739, Note_on_c, 0, 62, 0
2, 42744, Note_on_c, 0, 67, 0
2, 42748, Note_on_c, 0, 72, 0
2, 42806, Note_on_c, 0, 76, 45
2, 42809, Note_on_c, 0, 67, 33
2, 42811, Note_on_c, 0, 72, 41
2, 42812, Note_on_c, 0, 69, 35
2, 42812, Note_on_c, 0, 60, 37
2, 42819, Note_on_c, 0, 60, 0
2, 42819, Note_on_c, 0, 72, 0
2, 42819, Note_on_c, 0, 69, 0
2, 42820, Note_on_c, 0, 67, 0
2, 42826, Note_on_c, 0, 76, 0
2, 42900, Note_on_c, 0, 76, 49
2, 42902, Note_on_c, 0, 60, 38
2, 42903, Note_on_c, 0, 67, 36
2, 42906, Note_on_c, 0, 69, 40
2, 42906, Note_on_c, 0, 72, 32
2, 42911, Note_on_c, 0, 60, 0
2, 42912, Note_on_c, 0, 67, 0
2, 42913, Control_c, 0, 64, 127
2, 42914, Note_on_c, 0, 72, 0
2, 42914, Note_on_c, 0, 69, 0
2, 42919, Note_on_c, 0, 76, 0
2, 42943, Control_c, 0, 64, 0
2, 42960, Note_on_c, 0, 48, 42
2, 43027, Note_on_c, 0, 72, 34
2, 43028, Note_on_c, 0, 65, 47
2, 43028, Note_on_c, 0, 60, 37
2, 43029, Note_on_c, 0, 69, 44
2, 43034, Note_on_c, 0, 60, 0
2, 43036, Note_on_c, 0, 65, 0
2, 43037, Note_on_c, 0, 69, 0
2, 43043, Note_on_c, 0, 72, 0
2, 43090, Control_c, 0, 64, 127
2, 43096, Note_on_c, 0, 72, 44
2, 43098, Note_on_c, 0, 60, 44
2, 43099, Note_on_c, 0, 65, 43
2, 43099, Note_on_c, 0, 57, 33
2, 43099, Note_on_c, 0, 69, 44
2, 43118, Note_on_c, 0, 60, 0
2, 43134, Note_on_c, 0, 69, 0
2, 43135, Note_on_c, 0, 65, 0
2, 43141, Note_on_c, 0, 57, 0
2, 43165, Note_on_c, 0, 72, 0
2, 43172, Note_on_c, 0, 69, 57
2, 43174, Control_c, 0, 64, 0
2, 43174, Note_on_c, 0, 64, 57
2, 43175, Note_on_c, 0, 65, 57
2, 43178, Note_on_c, 0, 57, 37
2, 43202, Control_c, 0, 64, 127
2, 43214, Note_on_c, 0, 48, 0
2, 43253, Note_on_c, 0, 69, 0
2, 43256, Note_on_c, 0, 65, 0
2, 43256, Note_on_c, 0, 64, 0
2, 43263, Note_on_c, 0, 48, 69
2, 43306, Note_on_c, 0, 60, 61
2, 43307, Note_on_c, 0, 57, 0
2, 43320, Note_on_c, 0, 60, 0
2, 43337, Note_on_c, 0, 62, 75
2, 43352, Note_on_c, 0, 48, 0
2, 43357, Note_on_c, 0, 62, 0
2, 43370, Note_on_c, 0, 64, 91
2, 43400, Note_on_c, 0, 65, 87
2, 43402, Note_on_c, 0, 64, 0
2, 43431, Note_on_c, 0, 56, 43
2, 43432, Note_on_c, 0, 46, 50
2, 43434, Note_on_c, 0, 60, 81
2, 43435, Note_on_c, 0, 64, 78
2, 43438, Note_on_c, 0, 65, 0
2, 43441, Control_c, 0, 64, 0
2, 43477, Control_c, 0, 64, 127
2, 43518, Note_on_c, 0, 56, 0
2, 43555, Note_on_c, 0, 56, 34
2, 43599, Note_on_c, 0, 46, 0
2, 43618, Note_on_c, 0, 60, 0
2, 43636, Note_on_c, 0, 46, 29
2, 43639, Note_on_c, 0, 64, 0
2, 43640, Note_on_c, 0, 62, 43
2, 43653, Note_on_c, 0, 56, 0
2, 43666, Note_on_c, 0, 62, 0
2, 43670, Note_on_c, 0, 46, 0
2, 43671, Control_c, 0, 64, 0
2, 43678, Note_on_c, 0, 64, 48
2, 43680, Note_on_c, 0, 45, 42
2, 43682, Note_on_c, 0, 60, 30
2, 43692, Control_c, 0, 64, 127
2, 43693, Note_on_c, 0, 60, 0
2, 43696, Note_on_c, 0, 45, 0
2, 43702, Note_on_c, 0, 64, 0
2, 43757, Note_on_c, 0, 67, 46
2, 43758, Note_on_c, 0, 64, 47
2, 43758, Note_on_c, 0, 72, 47
2, 43761, Note_on_c, 0, 69, 51
2, 43766, Note_on_c, 0, 64, 0
2, 43767, Note_on_c, 0, 69, 0
2, 43770, Control_c, 0, 64, 0
2, 43771, Note_on_c, 0, 67, 0
2, 43777, Note_on_c, 0, 72, 0
2, 43876, Note_on_c, 0, 71, 41
2, 43876, Note_on_c, 0, 68, 42
2, 43878, Note_on_c, 0, 54, 36
2, 43879, Note_on_c, 0, 60, 24
2, 43880, Note_on_c, 0, 64, 34
2, 43889, Control_c, 0, 64, 127
2, 43897, Note_on_c, 0, 64, 0
2, 43900, Note_on_c, 0, 68, 0
2, 43901, Note_on_c, 0, 60, 0
2, 43905, Note_on_c, 0, 71, 0
2, 43908, Note_on_c, 0, 54, 0
2, 43913, Control_c, 0, 64, 0
2, 43955, Control_c, 0, 64, 127
2, 43995, Control_c, 0, 64, 0
2, 43995, Note_on_c, 0, 83, 66
2, 43996, Note_on_c, 0, 60, 40
2, 43996, Note_on_c, 0, 71, 58
2, 44000, Note_on_c, 0, 50, 30
2, 44001, Note_on_c, 0, 54, 31
2, 44007, Note_on_c, 0, 60, 0
2, 44010, Note_on_c, 0, 83, 0
2, 44010, Note_on_c, 0, 71, 0
2, 44012, Note_on_c, 0, 50, 0
2, 44014, Note_on_c, 0, 54, 0
2, 44052, Control_c, 0, 64, 127
2, 44069, Control_c, 0, 64, 0
2, 44084, Control_c, 0, 64, 127
2, 44119, Note_on_c, 0, 50, 35
2, 44137, Note_on_c, 0, 50, 0
2, 44164, Control_c, 0, 64, 0
2, 44165, Note_on_c, 0, 43, 37
2, 44168, Note_on_c, 0, 50, 20
2, 44208, Control_c, 0, 64, 127
2, 44343, Note_on_c, 0, 50, 0
2, 44362, Note_on_c, 0, 62, 54
2, 44363, Note_on_c, 0, 50, 42
2, 44373, Note_on_c, 0, 50, 0
2, 44374, Note_on_c, 0, 62, 0
2, 44380, Note_on_c, 0, 43, 0
2, 44405, Note_on_c, 0, 69, 73
2, 44407, Note_on_c, 0, 59, 72
2, 44407, Note_on_c, 0, 62, 74
2, 44408, Control_c, 0, 64, 0
2, 44408, Note_on_c, 0, 65, 68
2, 44410, Note_on_c, 0, 57, 69
2, 44452, Control_c, 0, 64, 127
2, 44468, Note_on_c, 0, 59, 0
2, 44474, Note_on_c, 0, 65, 0
2, 44477, Note_on_c, 0, 69, 0
2, 44482, Note_on_c, 0, 67, 56
2, 44483, Note_on_c, 0, 57, 0
2, 44484, Note_on_c, 0, 59, 39
2, 44484, Note_on_c, 0, 55, 58
2, 44503, Note_on_c, 0, 59, 0
2, 44508, Note_on_c, 0, 62, 0
2, 44517, Note_on_c, 0, 67, 0
2, 44517, Note_on_c, 0, 55, 0
2, 44517, Control_c, 0, 64, 0
2, 44529, Note_on_c, 0, 65, 48
2, 44529, Note_on_c, 0, 53, 43
2, 44541, Control_c, 0, 64, 127
2, 44578, Note_on_c, 0, 53, 0
2, 44578, Note_on_c, 0, 65, 0
2, 44604, Note_on_c, 0, 67, 35
2, 44605, Note_on_c, 0, 58, 33
2, 44606, Note_on_c, 0, 65, 37
2, 44606, Note_on_c, 0, 62, 43
2, 44608, Note_on_c, 0, 57, 37
2, 44610, Control_c, 0, 64, 0
2, 44626, Note_on_c, 0, 57, 0
2, 44662, Control_c, 0, 64, 127
2, 44720, Control_c, 0, 64, 0
2, 44722, Note_on_c, 0, 48, 55
2, 44722, Note_on_c, 0, 36, 41
2, 44730, Note_on_c, 0, 48, 0
2, 44736, Note_on_c, 0, 36, 0
2, 44789, Control_c, 0, 64, 127
2, 44795, Note_on_c, 0, 58, 0
2, 44828, Note_on_c, 0, 65, 0
2, 44828, Note_on_c, 0, 34, 71
2, 44829, Note_on_c, 0, 46, 71
2, 44840, Control_c, 0, 64, 0
2, 44871, Control_c, 0, 64, 127
2, 44953, Note_on_c, 0, 62, 0
2, 44959, Note_on_c, 0, 40, 44
2, 44960, Note_on_c, 0, 46, 0
2, 44962, Note_on_c, 0, 67, 0
2, 44979, Note_on_c, 0, 34, 0
2, 44994, Note_on_c, 0, 34, 42
2, 44996, Note_on_c, 0, 46, 32
2, 45001, Note_on_c, 0, 40, 0
2, 45037, Note_on_c, 0, 46, 0
2, 45052, Note_on_c, 0, 34, 0
2, 45074, Control_c, 0, 64, 0
2, 45077, Note_on_c, 0, 84, 94
2, 45077, Note_on_c, 0, 72, 90
2, 45077, Note_on_c, 0, 45, 66
2, 45078, Note_on_c, 0, 33, 62
2, 45103, Control_c, 0, 64, 127
2, 45104, Note_on_c, 0, 33, 0
2, 45116, Note_on_c, 0, 45, 0
2, 45199, Note_on_c, 0, 65, 70
2, 45199, Note_on_c, 0, 61, 55
2, 45200, Note_on_c, 0, 60, 63
2, 45201, Note_on_c, 0, 55, 60
2, 45346, Note_on_c, 0, 84, 0
2, 45357, Note_on_c, 0, 72, 0
2, 45365, Note_on_c, 0, 82, 77
2, 45367, Control_c, 0, 64, 0
2, 45389, Note_on_c, 0, 82, 0
2, 45442, Note_on_c, 0, 77, 60
2, 45458, Note_on_c, 0, 65, 0
2, 45470, Note_on_c, 0, 77, 0
2, 45475, Note_on_c, 0, 60, 0
2, 45477, Note_on_c, 0, 61, 0
2, 45485, Note_on_c, 0, 73, 45
2, 45486, Note_on_c, 0, 55, 0
2, 45508, Note_on_c, 0, 73, 0
2, 45555, Note_on_c, 0, 72, 49
2, 45574, Note_on_c, 0, 72, 0
2, 45597, Note_on_c, 0, 70, 63
2, 45597, Note_on_c, 0, 60, 36
2, 45600, Note_on_c, 0, 54, 32
2, 45603, Note_on_c, 0, 50, 32
2, 45616, Note_on_c, 0, 70, 0
2, 45626, Note_on_c, 0, 72, 45
2, 45650, Note_on_c, 0, 72, 0
2, 45650, Note_on_c, 0, 70, 54
2, 45678, Note_on_c, 0, 70, 0
2, 45680, Note_on_c, 0, 69, 50
2, 45703, Note_on_c, 0, 69, 0
2, 45718, Note_on_c, 0, 67, 44
2, 45773, Note_on_c, 0, 60, 0
2, 45794, Note_on_c, 0, 67, 0
2, 45796, Note_on_c, 0, 65, 56
2, 45826, Note_on_c, 0, 65, 0
2, 45836, Note_on_c, 0, 66, 43
2, 45843, Note_on_c, 0, 54, 0
2, 45846, Note_on_c, 0, 50, 0
2, 45877, Control_c, 0, 64, 127
2, 45910, Note_on_c, 0, 62, 49
2, 45910, Note_on_c, 0, 50, 34
2, 45911, Note_on_c, 0, 66, 0
2, 45940, Note_on_c, 0, 62, 0
2, 45941, Control_c, 0, 64, 0
2, 45949, Note_on_c, 0, 50, 0
2, 45955, Note_on_c, 0, 44, 30
2, 45957, Note_on_c, 0, 60, 44
2, 45961, Note_on_c, 0, 54, 12
2, 45975, Control_c, 0, 64, 127
2, 46025, Note_on_c, 0, 54, 0
2, 46033, Note_on_c, 0, 60, 0
2, 46037, Note_on_c, 0, 59, 57
2, 46052, Note_on_c, 0, 44, 0
2, 46069, Control_c, 0, 64, 0
2, 46072, Note_on_c, 0, 43, 44
2, 46099, Control_c, 0, 64, 127
2, 46195, Note_on_c, 0, 59, 0
2, 46199, Note_on_c, 0, 62, 60
2, 46205, Note_on_c, 0, 59, 24
2, 46233, Note_on_c, 0, 64, 65
2, 46239, Note_on_c, 0, 62, 0
2, 46245, Note_on_c, 0, 59, 0
2, 46255, Note_on_c, 0, 64, 0
2, 46260, Note_on_c, 0, 65, 66
2, 46281, Note_on_c, 0, 65, 0
2, 46294, Note_on_c, 0, 69, 90
2, 46321, Note_on_c, 0, 69, 0
2, 46328, Note_on_c, 0, 67, 52
2, 46329, Note_on_c, 0, 62, 62
2, 46329, Note_on_c, 0, 59, 66
2, 46332, Control_c, 0, 64, 0
2, 46334, Note_on_c, 0, 53, 40
2, 46364, Control_c, 0, 64, 127
2, 46416, Note_on_c, 0, 59, 0
2, 46416, Note_on_c, 0, 62, 0
2, 46422, Note_on_c, 0, 53, 0
2, 46433, Note_on_c, 0, 67, 0
2, 46441, Control_c, 0, 64, 0
2, 46441, Note_on_c, 0, 59, 36
2, 46441, Note_on_c, 0, 65, 45
2, 46441, Note_on_c, 0, 50, 41
2, 46445, Note_on_c, 0, 62, 31
2, 46451, Note_on_c, 0, 43, 0
2, 46452, Note_on_c, 0, 50, 0
2, 46465, Control_c, 0, 64, 127
2, 46472, Note_on_c, 0, 59, 0
2, 46481, Note_on_c, 0, 62, 0
2, 46493, Note_on_c, 0, 65, 0
2, 46526, Note_on_c, 0, 67, 43
2, 46528, Note_on_c, 0, 58, 42
2, 46529, Note_on_c, 0, 65, 51
2, 46529, Note_on_c, 0, 48, 35
2, 46530, Note_on_c, 0, 57, 28
2, 46531, Note_on_c, 0, 62, 40
2, 46538, Control_c, 0, 64, 0
2, 46541, Note_on_c, 0, 57, 0
2, 46546, Note_on_c, 0, 62, 0
2, 46547, Note_on_c, 0, 58, 0
2, 46551, Note_on_c, 0, 65, 0
2, 46552, Note_on_c, 0, 48, 0
2, 46553, Note_on_c, 0, 67, 0
2, 46625, Control_c, 0, 64, 127
2, 46644, Control_c, 0, 64, 0
2, 46645, Note_on_c, 0, 36, 38
2, 46652, Note_on_c, 0, 24, 31
2, 46674, Note_on_c, 0, 24, 0
2, 46674, Note_on_c, 0, 36, 0
2, 46693, Note_on_c, 0, 24, 37
2, 46694, Note_on_c, 0, 36, 24
2, 46719, Note_on_c, 0, 24, 0
2, 46722, Note_on_c, 0, 36, 0
2, 46744, Control_c, 0, 64, 127
2, 46769, Note_on_c, 0, 24, 64
2, 46769, Note_on_c, 0, 36, 69
2, 46772, Control_c, 0, 64, 0
2, 46791, Note_on_c, 0, 24, 0
2, 46797, Note_on_c, 0, 36, 0
2, 46886, Note_on_c, 0, 60, 65
2, 46910, Note_on_c, 0, 60, 0
2, 46927, Note_on_c, 0, 62, 48
2, 46987, Note_on_c, 0, 62, 0
2, 47001, Note_on_c, 0, 65, 76
2, 47117, Note_on_c, 0, 57, 57
2, 47117, Note_on_c, 0, 62, 47
2, 47124, Note_on_c, 0, 47, 29
2, 47124, Note_on_c, 0, 35, 31
2, 47153, Control_c, 0, 64, 127
2, 47203, Note_on_c, 0, 57, 0
2, 47210, Note_on_c, 0, 35, 0
2, 47211, Note_on_c, 0, 47, 0
2, 47251, Note_on_c, 0, 62, 0
2, 47277, Control_c, 0, 64, 0
2, 47282, Note_on_c, 0, 34, 36
2, 47283, Note_on_c, 0, 61, 45
2, 47285, Note_on_c, 0, 56, 34
2, 47287, Note_on_c, 0, 46, 18
2, 47315, Note_on_c, 0, 56, 0
2, 47317, Note_on_c, 0, 61, 0
2, 47317, Note_on_c, 0, 46, 0
2, 47321, Note_on_c, 0, 34, 0
2, 47366, Note_on_c, 0, 65, 0
2, 47401, Note_on_c, 0, 65, 25
2, 47405, Note_on_c, 0, 55, 31
2, 47405, Note_on_c, 0, 45, 29
2, 47405, Note_on_c, 0, 33, 26
2, 47406, Note_on_c, 0, 60, 44
2, 47440, Note_on_c, 0, 33, 0
2, 47445, Note_on_c, 0, 45, 0
2, 47447, Note_on_c, 0, 60, 0
2, 47447, Note_on_c, 0, 55, 0
2, 47495, Note_on_c, 0, 65, 0
2, 47529, Note_on_c, 0, 65, 17
2, 47530, Note_on_c, 0, 32, 34
2, 47532, Note_on_c, 0, 44, 25
2, 47534, Note_on_c, 0, 54, 30
2, 47535, Note_on_c, 0, 59, 47
2, 47565, Note_on_c, 0, 59, 0
2, 47570, Note_on_c, 0, 54, 0
2, 47648, Control_c, 0, 64, 127
2, 47691, Note_on_c, 0, 44, 0
2, 47692, Note_on_c, 0, 65, 0
2, 47694, Note_on_c, 0, 32, 0
2, 47726, Note_on_c, 0, 65, 40
2, 47727, Note_on_c, 0, 54, 45
2, 47727, Note_on_c, 0, 44, 34
2, 47728, Note_on_c, 0, 32, 37
2, 47730, Note_on_c, 0, 59, 53
2, 47732, Control_c, 0, 64, 0
2, 47768, Control_c, 0, 64, 127
2, 47809, Note_on_c, 0, 44, 0
2, 47815, Note_on_c, 0, 32, 0
2, 47828, Note_on_c, 0, 59, 0
2, 47850, Note_on_c, 0, 54, 0
2, 47949, Note_on_c, 0, 65, 0
2, 47997, Control_c, 0, 64, 0
2, 47997, Note_on_c, 0, 65, 34
2, 48001, Note_on_c, 0, 43, 30
2, 48003, Note_on_c, 0, 58, 28
2, 48003, Note_on_c, 0, 31, 24
2, 48006, Note_on_c, 0, 53, 17
2, 48038, Note_on_c, 0, 31, 0
2, 48038, Note_on_c, 0, 58, 0
2, 48039, Note_on_c, 0, 53, 0
2, 48040, Note_on_c, 0, 43, 0
2, 48042, Note_on_c, 0, 65, 0
2, 48067, Control_c, 0, 64, 127
2, 48075, Note_on_c, 0, 65, 24
2, 48075, Note_on_c, 0, 43, 33
2, 48075, Note_on_c, 0, 31, 33
2, 48076, Note_on_c, 0, 58, 37
2, 48077, Note_on_c, 0, 53, 24
2, 48088, Control_c, 0, 64, 0
2, 48091, Note_on_c, 0, 53, 0
2, 48093, Note_on_c, 0, 43, 0
2, 48094, Note_on_c, 0, 58, 0
2, 48094, Note_on_c, 0, 31, 0
2, 48096, Note_on_c, 0, 65, 0
2, 48121, Control_c, 0, 64, 127
2, 48122, Note_on_c, 0, 58, 38
2, 48122, Note_on_c, 0, 43, 32
2, 48125, Note_on_c, 0, 65, 17
2, 48126, Note_on_c, 0, 53, 20
2, 48133, Note_on_c, 0, 53, 0
2, 48135, Note_on_c, 0, 65, 0
2, 48137, Note_on_c, 0, 43, 0
2, 48138, Note_on_c, 0, 58, 0
2, 48157, Control_c, 0, 64, 0
2, 48185, Control_c, 0, 64, 127
2, 48191, Note_on_c, 0, 31, 36
2, 48194, Note_on_c, 0, 58, 32
2, 48204, Note_on_c, 0, 31, 0
2, 48213, Note_on_c, 0, 58, 0
2, 48237, Control_c, 0, 64, 0
2, 48248, Note_on_c, 0, 65, 43
2, 48249, Note_on_c, 0, 42, 35
2, 48251, Note_on_c, 0, 30, 32
2, 48253, Note_on_c, 0, 60, 51
2, 48271, Note_on_c, 0, 30, 0
2, 48272, Note_on_c, 0, 60, 0
2, 48273, Note_on_c, 0, 65, 0
2, 48278, Note_on_c, 0, 42, 0
2, 48292, Control_c, 0, 64, 127
2, 48315, Control_c, 0, 64, 0
2, 48333, Note_on_c, 0, 42, 35
2, 48334, Note_on_c, 0, 65, 33
2, 48334, Note_on_c, 0, 30, 33
2, 48335, Note_on_c, 0, 58, 25
2, 48339, Note_on_c, 0, 60, 53
2, 48345, Note_on_c, 0, 60, 0
2, 48356, Note_on_c, 0, 65, 0
2, 48358, Note_on_c, 0, 58, 0
2, 48362, Note_on_c, 0, 42, 0
2, 48366, Note_on_c, 0, 30, 0
2, 48375, Control_c, 0, 64, 127
2, 48454, Note_on_c, 0, 67, 49
2, 48457, Note_on_c, 0, 57, 46
2, 48457, Note_on_c, 0, 59, 47
2, 48458, Note_on_c, 0, 64, 45
2, 48459, Note_on_c, 0, 62, 33
2, 48462, Note_on_c, 0, 29, 35
2, 48464, Note_on_c, 0, 41, 27
2, 48465, Control_c, 0, 64, 0
2, 48513, Control_c, 0, 64, 127
2, 48549, Note_on_c, 0, 57, 0
2, 48553, Note_on_c, 0, 59, 0
2, 48555, Note_on_c, 0, 62, 0
2, 48557, Note_on_c, 0, 64, 0
2, 48561, Note_on_c, 0, 67, 0
2, 48628, Note_on_c, 0, 83, 49
2, 48633, Note_on_c, 0, 71, 30
2, 48644, Note_on_c, 0, 71, 0
2, 48647, Note_on_c, 0, 83, 0
2, 48700, Note_on_c, 0, 76, 49
2, 48701, Note_on_c, 0, 88, 54
2, 48714, Note_on_c, 0, 76, 0
2, 48720, Note_on_c, 0, 88, 0
2, 48781, Note_on_c, 0, 95, 63
2, 48781, Note_on_c, 0, 83, 54
2, 48816, Note_on_c, 0, 83, 0
2, 48816, Note_on_c, 0, 95, 0
2, 48857, Note_on_c, 0, 79, 25
2, 48860, Note_on_c, 0, 91, 20
2, 48864, Note_on_c, 0, 79, 0
2, 48873, Note_on_c, 0, 91, 0
2, 48926, Note_on_c, 0, 98, 54
2, 48927, Note_on_c, 0, 86, 40
2, 48954, Note_on_c, 0, 86, 0
2, 48963, Note_on_c, 0, 98, 0
2, 49008, Note_on_c, 0, 91, 33
2, 49010, Note_on_c, 0, 103, 19
2, 49043, Note_on_c, 0, 103, 0
2, 49046, Note_on_c, 0, 91, 0
2, 49066, Note_on_c, 0, 29, 0
2, 49073, Note_on_c, 0, 41, 0
2, 49073, End_track
3, 0, Start_track
3, 0, Program_c, 0, 0
3, 0, End_track
4, 0, Start_track
4, 0, Program_c, 0, 0
4, 0, End_track
0, 0, End_of_file
