0, 0, Header, 1, 2, 960
1, 0, Start_track
1, 0, Title_t, "I Can't Get Started"
1, 0, Text_t, "dougmck@tpg.com.au\012"
1, 0, Time_signature, 4, 2, 24, 8
1, 0, Key_signature, 0, "major"
1, 0, Tempo, 666667
1, 23040, Marker_t, "Change of key - everything briefly up to Db "
1, 32669, Marker_t, "Back down to C"
1, 34720, Marker_t, "Pedal tone (G) - bottom note of chord in LH"
1, 42240, Marker_t, "LH descends in semitones: RH plays triads following melody"
1, 48400, Marker_t, "Arrives at Db - resolving to C"
1, 55394, Marker_t, "'Cry Me a River' lick on G13"
1, 62051, Marker_t, "Drop 2 block chords on diatonic melody line"
1, 63851, Marker_t, "On Chord tones - C6 chord: on non chord tones a diminished chord"
1, 76800, Marker_t, "Series of minor 11th voicings descend chromatically "
1, 94545, Marker_t, "'Cry Me a River' lick again"
1, 96366, Marker_t, "Another chromatic descending chord thing - from F#m7b5 to Dm7"
1, 115396, Marker_t, "On Dm7 chord, an Ab pentatonic scale - Scale resolves to B (3rd of G)"
1, 126720, Marker_t, "B/C chord (= Cdim)"
1, 135724, Marker_t, "On Bbm7/Eb7, a mixolydian scale"
1, 140036, Marker_t, "Same mixolydian run (Gb Major scale) on Abm7/Db7"
1, 149760, Marker_t, "Triplet figure on E7, Then Eb7(A7), D7,G7 (Db7)"
1, 181232, Marker_t, "4ths in RH over Roots in LH - CMaj7/BMaj7,BbMaj7/BMaj7/CMaj7"
1, 218880, Marker_t, "More Pedal tones on G inLH"
1, 226661, Marker_t, "RH - Bb13,A13,Ab13 and LH - E,A,D"
1, 245913, Marker_t, "Ab pentatonic on Dm7b5"
1, 249600, Marker_t, "Figure that uses CMaj7 notes repeated as 16th notes"
1, 257280, Marker_t, "Not very successful contrary motion!  - RH ascends against LH chords descending"
1, 275091, Marker_t, "Another iii/vi/ii/V based turnaround figure "
1, 301462, Marker_t, "Easy little run on G7b9 - F,Ab,F,D,Db,C,B,Bb,A,Ab - 2,3,2,1,3,2,13,1,3,"
1, 337920, Marker_t, "Ab pentatonic on Dm7b5"
1, 339564, Marker_t, "On G7 begins as half/whole dim scale then chromatic up to Melody note - B"
1, 349440, Marker_t, "Another chromatically descending chord voicing - begins on E7#9"
1, 364813, Marker_t, "Typical end- F#m7b5,Fm7,Em7,Ebdim,Dm7,Db7,CMaj7 "
1, 378880, Marker_t, "Final ascending figure  - echoes the anacrusis at the start  of the song"
1, 380448, Marker_t, "Up in alternating Major and minor third intervals"
1, 381776, Marker_t, "i.e. outlines triads around cycle C,G,D,A,E,B.....etc"
1, 381776, End_track
2, 0, Start_track
2, 0, Title_t, "Improvised solo piano"
2, 0, Control_c, 0, 64, 127
2, 0, Control_c, 0, 64, 0
2, 926, Control_c, 0, 64, 127
2, 1285, Control_c, 0, 64, 0
2, 1580, Note_on_c, 0, 60, 69
2, 1871, Note_on_c, 0, 60, 0
2, 1956, Note_on_c, 0, 64, 44
2, 2082, Control_c, 0, 64, 127
2, 3458, Note_on_c, 0, 64, 0
2, 3520, Note_on_c, 0, 67, 35
2, 3689, Note_on_c, 0, 67, 0
2, 3878, Control_c, 0, 64, 0
2, 3896, Note_on_c, 0, 43, 24
2, 3908, Note_on_c, 0, 71, 53
2, 3909, Note_on_c, 0, 64, 44
2, 3915, Note_on_c, 0, 62, 36
2, 3924, Note_on_c, 0, 52, 25
2, 3933, Note_on_c, 0, 36, 20
2, 4058, Control_c, 0, 64, 127
2, 4100, Note_on_c, 0, 36, 0
2, 4149, Note_on_c, 0, 43, 0
2, 4257, Note_on_c, 0, 52, 0
2, 4307, Note_on_c, 0, 62, 0
2, 4322, Note_on_c, 0, 64, 0
2, 4410, Note_on_c, 0, 71, 0
2, 4840, Note_on_c, 0, 64, 48
2, 4854, Note_on_c, 0, 57, 44
2, 4861, Note_on_c, 0, 67, 35
2, 4870, Note_on_c, 0, 72, 32
2, 5022, Note_on_c, 0, 57, 0
2, 5128, Note_on_c, 0, 67, 0
2, 5185, Note_on_c, 0, 72, 0
2, 5202, Note_on_c, 0, 64, 0
2, 5784, Note_on_c, 0, 61, 37
2, 5788, Control_c, 0, 64, 0
2, 5794, Note_on_c, 0, 58, 39
2, 5798, Note_on_c, 0, 69, 41
2, 5800, Note_on_c, 0, 55, 28
2, 5806, Note_on_c, 0, 64, 41
2, 5837, Note_on_c, 0, 45, 31
2, 6034, Control_c, 0, 64, 127
2, 6041, Note_on_c, 0, 69, 0
2, 6093, Note_on_c, 0, 55, 0
2, 6119, Note_on_c, 0, 64, 0
2, 6134, Note_on_c, 0, 58, 0
2, 6220, Note_on_c, 0, 61, 0
2, 6652, Note_on_c, 0, 45, 0
2, 6731, Control_c, 0, 64, 0
2, 6739, Note_on_c, 0, 64, 59
2, 6775, Note_on_c, 0, 55, 46
2, 6777, Note_on_c, 0, 58, 51
2, 6783, Note_on_c, 0, 61, 31
2, 6801, Note_on_c, 0, 49, 38
2, 6876, Control_c, 0, 64, 127
2, 6964, Note_on_c, 0, 49, 0
2, 6980, Note_on_c, 0, 55, 0
2, 7008, Note_on_c, 0, 64, 0
2, 7019, Note_on_c, 0, 58, 0
2, 7024, Note_on_c, 0, 61, 0
2, 7085, Note_on_c, 0, 64, 42
2, 7110, Note_on_c, 0, 58, 56
2, 7116, Note_on_c, 0, 49, 31
2, 7117, Note_on_c, 0, 61, 47
2, 7139, Note_on_c, 0, 55, 16
2, 7189, Note_on_c, 0, 64, 0
2, 7234, Note_on_c, 0, 55, 0
2, 7243, Note_on_c, 0, 61, 0
2, 7246, Control_c, 0, 64, 0
2, 7251, Note_on_c, 0, 58, 0
2, 7404, Note_on_c, 0, 58, 62
2, 7407, Note_on_c, 0, 49, 0
2, 7411, Note_on_c, 0, 65, 58
2, 7415, Control_c, 0, 64, 127
2, 7417, Note_on_c, 0, 50, 48
2, 7430, Note_on_c, 0, 55, 39
2, 7445, Note_on_c, 0, 61, 33
2, 7505, Note_on_c, 0, 61, 0
2, 7544, Note_on_c, 0, 55, 0
2, 7574, Note_on_c, 0, 65, 0
2, 7601, Note_on_c, 0, 58, 0
2, 7696, Note_on_c, 0, 50, 0
2, 7719, Control_c, 0, 64, 0
2, 7749, Note_on_c, 0, 67, 55
2, 7764, Note_on_c, 0, 60, 57
2, 7778, Note_on_c, 0, 57, 57
2, 8109, Note_on_c, 0, 53, 42
2, 8231, Note_on_c, 0, 53, 0
2, 8432, Note_on_c, 0, 50, 38
2, 8660, Control_c, 0, 64, 127
2, 8783, Note_on_c, 0, 60, 0
2, 8823, Note_on_c, 0, 67, 0
2, 8840, Note_on_c, 0, 57, 0
2, 9078, Note_on_c, 0, 53, 33
2, 9195, Note_on_c, 0, 53, 0
2, 9359, Note_on_c, 0, 57, 52
2, 9543, Note_on_c, 0, 57, 0
2, 9703, Note_on_c, 0, 56, 48
2, 9717, Control_c, 0, 64, 0
2, 9733, Note_on_c, 0, 59, 45
2, 9748, Note_on_c, 0, 53, 24
2, 9749, Note_on_c, 0, 43, 24
2, 9759, Note_on_c, 0, 50, 0
2, 9989, Control_c, 0, 64, 127
2, 10146, Note_on_c, 0, 56, 0
2, 10172, Note_on_c, 0, 59, 0
2, 10325, Note_on_c, 0, 53, 0
2, 10690, Note_on_c, 0, 53, 24
2, 10794, Note_on_c, 0, 43, 0
2, 10846, Note_on_c, 0, 53, 0
2, 10952, Note_on_c, 0, 64, 47
2, 11057, Note_on_c, 0, 64, 0
2, 11145, Note_on_c, 0, 67, 40
2, 11282, Note_on_c, 0, 67, 0
2, 11354, Note_on_c, 0, 71, 57
2, 11516, Note_on_c, 0, 71, 0
2, 11591, Note_on_c, 0, 74, 64
2, 11596, Note_on_c, 0, 69, 58
2, 11616, Control_c, 0, 64, 0
2, 11994, Note_on_c, 0, 57, 40
2, 11995, Note_on_c, 0, 62, 32
2, 12076, Control_c, 0, 64, 127
2, 12145, Note_on_c, 0, 57, 0
2, 12211, Note_on_c, 0, 74, 0
2, 12267, Note_on_c, 0, 62, 0
2, 12337, Note_on_c, 0, 69, 0
2, 12472, Note_on_c, 0, 62, 36
2, 12474, Note_on_c, 0, 76, 47
2, 12480, Note_on_c, 0, 69, 36
2, 12480, Control_c, 0, 64, 0
2, 12484, Note_on_c, 0, 56, 46
2, 12716, Control_c, 0, 64, 127
2, 13007, Note_on_c, 0, 62, 0
2, 13097, Note_on_c, 0, 69, 0
2, 13164, Note_on_c, 0, 56, 0
2, 13304, Note_on_c, 0, 76, 0
2, 13457, Control_c, 0, 64, 0
2, 13465, Note_on_c, 0, 61, 23
2, 13480, Note_on_c, 0, 65, 31
2, 13485, Note_on_c, 0, 72, 56
2, 13494, Note_on_c, 0, 56, 33
2, 13495, Note_on_c, 0, 60, 37
2, 13704, Control_c, 0, 64, 127
2, 14159, Note_on_c, 0, 65, 0
2, 14182, Note_on_c, 0, 60, 0
2, 14218, Note_on_c, 0, 71, 38
2, 14271, Note_on_c, 0, 56, 0
2, 14315, Note_on_c, 0, 70, 37
2, 14343, Note_on_c, 0, 71, 0
2, 14411, Note_on_c, 0, 70, 0
2, 14425, Note_on_c, 0, 69, 29
2, 14454, Note_on_c, 0, 55, 24
2, 14458, Control_c, 0, 64, 0
2, 14473, Note_on_c, 0, 65, 33
2, 14717, Note_on_c, 0, 72, 0
2, 14871, Control_c, 0, 64, 127
2, 15126, Note_on_c, 0, 65, 0
2, 15209, Note_on_c, 0, 55, 0
2, 15238, Note_on_c, 0, 61, 0
2, 15399, Control_c, 0, 64, 0
2, 15413, Note_on_c, 0, 64, 37
2, 15421, Note_on_c, 0, 60, 36
2, 15433, Note_on_c, 0, 59, 35
2, 15480, Note_on_c, 0, 69, 0
2, 15725, Control_c, 0, 64, 127
2, 15905, Control_c, 0, 64, 0
2, 15924, Note_on_c, 0, 57, 62
2, 16063, Control_c, 0, 64, 127
2, 16091, Note_on_c, 0, 59, 0
2, 16242, Note_on_c, 0, 57, 0
2, 16343, Control_c, 0, 64, 0
2, 16374, Note_on_c, 0, 54, 62
2, 16583, Note_on_c, 0, 64, 0
2, 16589, Control_c, 0, 64, 127
2, 16590, Note_on_c, 0, 60, 0
2, 16822, Note_on_c, 0, 64, 43
2, 16845, Note_on_c, 0, 60, 28
2, 17006, Note_on_c, 0, 60, 0
2, 17018, Note_on_c, 0, 64, 0
2, 17168, Note_on_c, 0, 54, 0
2, 17297, Control_c, 0, 64, 0
2, 17303, Note_on_c, 0, 63, 48
2, 17325, Note_on_c, 0, 58, 46
2, 17329, Note_on_c, 0, 59, 47
2, 17811, Note_on_c, 0, 53, 52
2, 17881, Note_on_c, 0, 63, 0
2, 17911, Note_on_c, 0, 58, 0
2, 17914, Control_c, 0, 64, 127
2, 17917, Note_on_c, 0, 59, 0
2, 17955, Note_on_c, 0, 53, 0
2, 18217, Control_c, 0, 64, 0
2, 18261, Note_on_c, 0, 43, 22
2, 18272, Note_on_c, 0, 72, 28
2, 18305, Note_on_c, 0, 43, 0
2, 18341, Control_c, 0, 64, 127
2, 18627, Note_on_c, 0, 76, 68
2, 18811, Note_on_c, 0, 76, 0
2, 18818, Note_on_c, 0, 72, 0
2, 18955, Note_on_c, 0, 79, 68
2, 19057, Note_on_c, 0, 79, 0
2, 19295, Control_c, 0, 64, 0
2, 19302, Note_on_c, 0, 68, 54
2, 19306, Note_on_c, 0, 83, 61
2, 19307, Note_on_c, 0, 74, 55
2, 19311, Note_on_c, 0, 80, 48
2, 19318, Note_on_c, 0, 77, 51
2, 19520, Control_c, 0, 64, 127
2, 19759, Note_on_c, 0, 74, 0
2, 19830, Note_on_c, 0, 77, 0
2, 19856, Note_on_c, 0, 83, 0
2, 19905, Note_on_c, 0, 80, 0
2, 20193, Note_on_c, 0, 68, 0
2, 20204, Control_c, 0, 64, 0
2, 20221, Note_on_c, 0, 84, 60
2, 20238, Note_on_c, 0, 76, 38
2, 20243, Note_on_c, 0, 79, 46
2, 20263, Note_on_c, 0, 69, 29
2, 20350, Control_c, 0, 64, 127
2, 20460, Note_on_c, 0, 69, 0
2, 20531, Note_on_c, 0, 84, 0
2, 20571, Note_on_c, 0, 79, 0
2, 20596, Note_on_c, 0, 76, 0
2, 21113, Control_c, 0, 64, 0
2, 21124, Note_on_c, 0, 81, 36
2, 21143, Note_on_c, 0, 55, 26
2, 21144, Note_on_c, 0, 76, 44
2, 21146, Note_on_c, 0, 69, 26
2, 21148, Note_on_c, 0, 45, 34
2, 21182, Note_on_c, 0, 52, 28
2, 21293, Control_c, 0, 64, 127
2, 21325, Note_on_c, 0, 45, 0
2, 21374, Note_on_c, 0, 52, 0
2, 21446, Note_on_c, 0, 55, 0
2, 21638, Note_on_c, 0, 81, 0
2, 21744, Note_on_c, 0, 69, 0
2, 21800, Note_on_c, 0, 76, 0
2, 22102, Note_on_c, 0, 65, 40
2, 22107, Note_on_c, 0, 61, 37
2, 22112, Note_on_c, 0, 55, 30
2, 22382, Note_on_c, 0, 65, 0
2, 22440, Note_on_c, 0, 61, 0
2, 22452, Note_on_c, 0, 55, 0
2, 23035, Note_on_c, 0, 39, 49
2, 23052, Note_on_c, 0, 68, 68
2, 23055, Note_on_c, 0, 61, 67
2, 23056, Note_on_c, 0, 65, 70
2, 23058, Note_on_c, 0, 54, 34
2, 23080, Control_c, 0, 64, 0
2, 23384, Control_c, 0, 64, 127
2, 23385, Note_on_c, 0, 39, 0
2, 23584, Note_on_c, 0, 54, 0
2, 23758, Note_on_c, 0, 61, 0
2, 23799, Note_on_c, 0, 65, 0
2, 23844, Note_on_c, 0, 68, 0
2, 23999, Note_on_c, 0, 68, 69
2, 24004, Note_on_c, 0, 56, 36
2, 24006, Note_on_c, 0, 65, 72
2, 24008, Note_on_c, 0, 61, 67
2, 24149, Note_on_c, 0, 56, 0
2, 24315, Note_on_c, 0, 68, 0
2, 24363, Note_on_c, 0, 70, 67
2, 24670, Note_on_c, 0, 61, 0
2, 24678, Note_on_c, 0, 65, 0
2, 24810, Note_on_c, 0, 70, 0
2, 24968, Control_c, 0, 64, 0
2, 24990, Note_on_c, 0, 54, 42
2, 24993, Note_on_c, 0, 68, 43
2, 24997, Note_on_c, 0, 60, 42
2, 25001, Note_on_c, 0, 65, 48
2, 25025, Note_on_c, 0, 44, 30
2, 25315, Control_c, 0, 64, 127
2, 25335, Note_on_c, 0, 65, 0
2, 25529, Note_on_c, 0, 60, 0
2, 25531, Note_on_c, 0, 68, 0
2, 25587, Note_on_c, 0, 61, 64
2, 25673, Note_on_c, 0, 54, 0
2, 25880, Note_on_c, 0, 61, 0
2, 25977, Control_c, 0, 64, 0
2, 25995, Note_on_c, 0, 54, 40
2, 25998, Note_on_c, 0, 61, 65
2, 26111, Control_c, 0, 64, 127
2, 26149, Note_on_c, 0, 54, 0
2, 26174, Note_on_c, 0, 61, 0
2, 26275, Note_on_c, 0, 61, 55
2, 26378, Note_on_c, 0, 44, 0
2, 26477, Note_on_c, 0, 61, 0
2, 26576, Note_on_c, 0, 63, 64
2, 26872, Note_on_c, 0, 63, 0
2, 26920, Control_c, 0, 64, 0
2, 26924, Note_on_c, 0, 65, 51
2, 26961, Note_on_c, 0, 37, 37
2, 27198, Note_on_c, 0, 37, 0
2, 27201, Control_c, 0, 64, 127
2, 27210, Note_on_c, 0, 44, 39
2, 27327, Note_on_c, 0, 44, 0
2, 27482, Note_on_c, 0, 44, 18
2, 27518, Note_on_c, 0, 53, 34
2, 27868, Note_on_c, 0, 56, 42
2, 28134, Note_on_c, 0, 56, 0
2, 28157, Note_on_c, 0, 60, 42
2, 28198, Note_on_c, 0, 65, 0
2, 28417, Note_on_c, 0, 63, 54
2, 28660, Control_c, 0, 64, 0
2, 28689, Note_on_c, 0, 65, 61
2, 28773, Note_on_c, 0, 60, 0
2, 28876, Note_on_c, 0, 65, 0
2, 28911, Note_on_c, 0, 63, 0
2, 28976, Note_on_c, 0, 65, 55
2, 28997, Control_c, 0, 64, 127
2, 29369, Note_on_c, 0, 44, 0
2, 29421, Note_on_c, 0, 53, 0
2, 29431, Note_on_c, 0, 56, 39
2, 29579, Note_on_c, 0, 56, 0
2, 29580, Note_on_c, 0, 65, 0
2, 29794, Control_c, 0, 64, 0
2, 29803, Note_on_c, 0, 63, 48
2, 29804, Note_on_c, 0, 61, 55
2, 29818, Note_on_c, 0, 55, 40
2, 29839, Note_on_c, 0, 45, 39
2, 30019, Control_c, 0, 64, 127
2, 30189, Note_on_c, 0, 55, 0
2, 30282, Note_on_c, 0, 63, 0
2, 30285, Note_on_c, 0, 64, 63
2, 30290, Note_on_c, 0, 61, 0
2, 30366, Note_on_c, 0, 45, 0
2, 30726, Control_c, 0, 64, 0
2, 30770, Note_on_c, 0, 65, 54
2, 30779, Note_on_c, 0, 60, 42
2, 30787, Note_on_c, 0, 44, 36
2, 30813, Note_on_c, 0, 54, 25
2, 30939, Control_c, 0, 64, 127
2, 31026, Note_on_c, 0, 54, 0
2, 31137, Note_on_c, 0, 60, 0
2, 31155, Note_on_c, 0, 65, 0
2, 31185, Note_on_c, 0, 64, 0
2, 31712, Note_on_c, 0, 68, 47
2, 31734, Note_on_c, 0, 54, 33
2, 31736, Note_on_c, 0, 60, 35
2, 31746, Note_on_c, 0, 63, 40
2, 31755, Note_on_c, 0, 65, 41
2, 32077, Note_on_c, 0, 54, 0
2, 32126, Note_on_c, 0, 44, 0
2, 32266, Note_on_c, 0, 60, 0
2, 32328, Note_on_c, 0, 63, 0
2, 32362, Note_on_c, 0, 68, 0
2, 32500, Note_on_c, 0, 65, 0
2, 32600, Control_c, 0, 64, 0
2, 32636, Note_on_c, 0, 64, 48
2, 32637, Note_on_c, 0, 69, 45
2, 32665, Note_on_c, 0, 53, 26
2, 32679, Note_on_c, 0, 43, 22
2, 32681, Note_on_c, 0, 59, 22
2, 32792, Control_c, 0, 64, 127
2, 32903, Note_on_c, 0, 43, 0
2, 32964, Note_on_c, 0, 59, 0
2, 32994, Note_on_c, 0, 53, 0
2, 33039, Note_on_c, 0, 69, 0
2, 33048, Note_on_c, 0, 64, 0
2, 33602, Note_on_c, 0, 71, 49
2, 33612, Note_on_c, 0, 68, 37
2, 33613, Note_on_c, 0, 63, 33
2, 33619, Note_on_c, 0, 65, 40
2, 33629, Note_on_c, 0, 53, 24
2, 33630, Note_on_c, 0, 59, 28
2, 33694, Note_on_c, 0, 63, 0
2, 33705, Note_on_c, 0, 59, 0
2, 33763, Note_on_c, 0, 53, 0
2, 33984, Note_on_c, 0, 71, 0
2, 34075, Note_on_c, 0, 65, 0
2, 34119, Note_on_c, 0, 68, 0
2, 34554, Control_c, 0, 64, 0
2, 34575, Note_on_c, 0, 67, 43
2, 34582, Note_on_c, 0, 83, 78
2, 34589, Note_on_c, 0, 64, 44
2, 34599, Note_on_c, 0, 62, 41
2, 34759, Control_c, 0, 64, 127
2, 34882, Note_on_c, 0, 67, 0
2, 34995, Note_on_c, 0, 83, 0
2, 35009, Note_on_c, 0, 55, 46
2, 35543, Note_on_c, 0, 84, 90
2, 35683, Note_on_c, 0, 55, 0
2, 36015, Note_on_c, 0, 55, 46
2, 36105, Note_on_c, 0, 84, 0
2, 36120, Note_on_c, 0, 64, 0
2, 36121, Note_on_c, 0, 62, 0
2, 36487, Note_on_c, 0, 81, 74
2, 36490, Note_on_c, 0, 61, 37
2, 36503, Control_c, 0, 64, 0
2, 36521, Note_on_c, 0, 77, 57
2, 36538, Note_on_c, 0, 65, 35
2, 36583, Note_on_c, 0, 72, 32
2, 36695, Control_c, 0, 64, 127
2, 36851, Note_on_c, 0, 55, 0
2, 37012, Note_on_c, 0, 55, 45
2, 37349, Note_on_c, 0, 55, 0
2, 37510, Note_on_c, 0, 55, 51
2, 37835, Note_on_c, 0, 55, 0
2, 38007, Note_on_c, 0, 55, 57
2, 38082, Note_on_c, 0, 65, 0
2, 38104, Note_on_c, 0, 81, 0
2, 38131, Note_on_c, 0, 77, 0
2, 38337, Note_on_c, 0, 72, 0
2, 38484, Note_on_c, 0, 79, 62
2, 38512, Control_c, 0, 64, 0
2, 38520, Note_on_c, 0, 72, 32
2, 38531, Note_on_c, 0, 69, 64
2, 38532, Note_on_c, 0, 76, 39
2, 38551, Note_on_c, 0, 64, 54
2, 38729, Control_c, 0, 64, 127
2, 38820, Note_on_c, 0, 55, 0
2, 39013, Note_on_c, 0, 55, 56
2, 39318, Note_on_c, 0, 55, 0
2, 39336, Note_on_c, 0, 79, 0
2, 39367, Note_on_c, 0, 69, 0
2, 39447, Note_on_c, 0, 61, 0
2, 39461, Note_on_c, 0, 76, 0
2, 39471, Note_on_c, 0, 64, 0
2, 39481, Note_on_c, 0, 55, 42
2, 39562, Note_on_c, 0, 72, 0
2, 39631, Note_on_c, 0, 55, 0
2, 39935, Note_on_c, 0, 57, 37
2, 39939, Note_on_c, 0, 55, 42
2, 40011, Note_on_c, 0, 55, 0
2, 40096, Note_on_c, 0, 57, 0
2, 40387, Control_c, 0, 64, 0
2, 40422, Note_on_c, 0, 59, 41
2, 40427, Note_on_c, 0, 53, 31
2, 40432, Note_on_c, 0, 56, 37
2, 40434, Note_on_c, 0, 43, 29
2, 40593, Control_c, 0, 64, 127
2, 40755, Note_on_c, 0, 53, 0
2, 40845, Note_on_c, 0, 56, 0
2, 40870, Note_on_c, 0, 59, 0
2, 41343, Note_on_c, 0, 31, 42
2, 41449, Note_on_c, 0, 64, 38
2, 41452, Note_on_c, 0, 43, 0
2, 41458, Note_on_c, 0, 31, 0
2, 41521, Note_on_c, 0, 64, 0
2, 41681, Note_on_c, 0, 64, 59
2, 41799, Note_on_c, 0, 64, 0
2, 41881, Note_on_c, 0, 67, 57
2, 42030, Note_on_c, 0, 67, 0
2, 42105, Note_on_c, 0, 72, 55
2, 42354, Note_on_c, 0, 72, 0
2, 42361, Note_on_c, 0, 70, 74
2, 42361, Note_on_c, 0, 74, 71
2, 42372, Note_on_c, 0, 66, 55
2, 42385, Note_on_c, 0, 56, 61
2, 42389, Note_on_c, 0, 60, 47
2, 42396, Control_c, 0, 64, 0
2, 42637, Control_c, 0, 64, 127
2, 42801, Note_on_c, 0, 60, 0
2, 42868, Note_on_c, 0, 74, 0
2, 42903, Note_on_c, 0, 66, 0
2, 42922, Note_on_c, 0, 56, 0
2, 42966, Note_on_c, 0, 70, 0
2, 43297, Note_on_c, 0, 64, 46
2, 43300, Note_on_c, 0, 76, 71
2, 43302, Note_on_c, 0, 55, 42
2, 43321, Note_on_c, 0, 59, 57
2, 43324, Control_c, 0, 64, 0
2, 43326, Note_on_c, 0, 75, 50
2, 43552, Control_c, 0, 64, 127
2, 43655, Note_on_c, 0, 75, 0
2, 43678, Note_on_c, 0, 73, 18
2, 43842, Note_on_c, 0, 59, 0
2, 43884, Note_on_c, 0, 55, 0
2, 43933, Note_on_c, 0, 64, 0
2, 44062, Note_on_c, 0, 76, 0
2, 44116, Note_on_c, 0, 73, 0
2, 44257, Note_on_c, 0, 64, 63
2, 44261, Control_c, 0, 64, 0
2, 44279, Note_on_c, 0, 72, 40
2, 44280, Note_on_c, 0, 54, 50
2, 44283, Note_on_c, 0, 58, 57
2, 44388, Note_on_c, 0, 67, 6
2, 44478, Control_c, 0, 64, 127
2, 44757, Note_on_c, 0, 67, 0
2, 44784, Note_on_c, 0, 64, 0
2, 44838, Note_on_c, 0, 72, 0
2, 44989, Note_on_c, 0, 54, 0
2, 45055, Note_on_c, 0, 58, 0
2, 45199, Control_c, 0, 64, 0
2, 45233, Note_on_c, 0, 63, 53
2, 45238, Note_on_c, 0, 69, 42
2, 45256, Note_on_c, 0, 57, 52
2, 45267, Note_on_c, 0, 53, 30
2, 45306, Note_on_c, 0, 65, 29
2, 45429, Control_c, 0, 64, 127
2, 45589, Note_on_c, 0, 69, 0
2, 45616, Note_on_c, 0, 65, 0
2, 45787, Note_on_c, 0, 57, 0
2, 45839, Note_on_c, 0, 63, 0
2, 45889, Note_on_c, 0, 53, 0
2, 46174, Control_c, 0, 64, 0
2, 46192, Note_on_c, 0, 68, 42
2, 46195, Note_on_c, 0, 64, 55
2, 46200, Note_on_c, 0, 71, 44
2, 46205, Note_on_c, 0, 62, 36
2, 46210, Note_on_c, 0, 52, 36
2, 46211, Note_on_c, 0, 56, 44
2, 46390, Control_c, 0, 64, 127
2, 46793, Note_on_c, 0, 64, 0
2, 46797, Note_on_c, 0, 52, 0
2, 46811, Note_on_c, 0, 62, 0
2, 46961, Note_on_c, 0, 56, 0
2, 47008, Note_on_c, 0, 68, 0
2, 47025, Note_on_c, 0, 71, 0
2, 47100, Control_c, 0, 64, 0
2, 47113, Note_on_c, 0, 65, 34
2, 47119, Note_on_c, 0, 69, 51
2, 47125, Note_on_c, 0, 61, 42
2, 47145, Note_on_c, 0, 51, 37
2, 47149, Note_on_c, 0, 55, 35
2, 47316, Control_c, 0, 64, 127
2, 47627, Note_on_c, 0, 55, 0
2, 47695, Note_on_c, 0, 61, 0
2, 47737, Note_on_c, 0, 65, 0
2, 47739, Note_on_c, 0, 69, 0
2, 47805, Note_on_c, 0, 51, 0
2, 48075, Control_c, 0, 64, 0
2, 48081, Note_on_c, 0, 50, 47
2, 48083, Note_on_c, 0, 60, 46
2, 48087, Note_on_c, 0, 54, 50
2, 48279, Control_c, 0, 64, 127
2, 48575, Note_on_c, 0, 60, 0
2, 48611, Note_on_c, 0, 50, 0
2, 48977, Control_c, 0, 64, 0
2, 48993, Note_on_c, 0, 54, 0
2, 49021, Note_on_c, 0, 67, 46
2, 49024, Note_on_c, 0, 63, 44
2, 49027, Note_on_c, 0, 59, 37
2, 49032, Note_on_c, 0, 58, 43
2, 49045, Note_on_c, 0, 53, 24
2, 49063, Note_on_c, 0, 49, 25
2, 49155, Note_on_c, 0, 59, 0
2, 49169, Control_c, 0, 64, 127
2, 49170, Note_on_c, 0, 53, 0
2, 49225, Note_on_c, 0, 49, 0
2, 49516, Note_on_c, 0, 67, 0
2, 49525, Note_on_c, 0, 58, 0
2, 49683, Note_on_c, 0, 43, 32
2, 49843, Note_on_c, 0, 63, 0
2, 50011, Control_c, 0, 64, 0
2, 50027, Note_on_c, 0, 36, 33
2, 50041, Note_on_c, 0, 69, 41
2, 50050, Note_on_c, 0, 64, 40
2, 50059, Note_on_c, 0, 52, 29
2, 50074, Note_on_c, 0, 57, 18
2, 50079, Note_on_c, 0, 62, 27
2, 50190, Control_c, 0, 64, 127
2, 50191, Note_on_c, 0, 57, 0
2, 50203, Note_on_c, 0, 36, 0
2, 50314, Note_on_c, 0, 43, 0
2, 50327, Note_on_c, 0, 62, 0
2, 50344, Note_on_c, 0, 64, 0
2, 50394, Note_on_c, 0, 52, 0
2, 50424, Note_on_c, 0, 69, 0
2, 50661, Note_on_c, 0, 72, 44
2, 50999, Note_on_c, 0, 64, 46
2, 51021, Control_c, 0, 64, 0
2, 51023, Note_on_c, 0, 60, 39
2, 51035, Note_on_c, 0, 59, 27
2, 51070, Note_on_c, 0, 64, 0
2, 51082, Note_on_c, 0, 60, 0
2, 51132, Note_on_c, 0, 59, 0
2, 51288, Note_on_c, 0, 76, 53
2, 51395, Note_on_c, 0, 76, 0
2, 51401, Note_on_c, 0, 72, 0
2, 51559, Note_on_c, 0, 79, 44
2, 51562, Control_c, 0, 64, 127
2, 51670, Note_on_c, 0, 79, 0
2, 51815, Control_c, 0, 64, 0
2, 51880, Note_on_c, 0, 45, 48
2, 51885, Note_on_c, 0, 83, 62
2, 51893, Note_on_c, 0, 71, 53
2, 51941, Note_on_c, 0, 45, 0
2, 51972, Control_c, 0, 64, 127
2, 52012, Note_on_c, 0, 71, 0
2, 52045, Note_on_c, 0, 83, 0
2, 52116, Control_c, 0, 64, 0
2, 52198, Note_on_c, 0, 84, 66
2, 52325, Note_on_c, 0, 84, 0
2, 52428, Control_c, 0, 64, 127
2, 52517, Note_on_c, 0, 81, 64
2, 52650, Note_on_c, 0, 81, 0
2, 52777, Control_c, 0, 64, 0
2, 52819, Note_on_c, 0, 64, 43
2, 52829, Note_on_c, 0, 76, 61
2, 52857, Note_on_c, 0, 60, 31
2, 52867, Note_on_c, 0, 59, 24
2, 52937, Note_on_c, 0, 64, 0
2, 52938, Note_on_c, 0, 60, 0
2, 52979, Note_on_c, 0, 59, 0
2, 53059, Note_on_c, 0, 76, 0
2, 53113, Note_on_c, 0, 77, 47
2, 53248, Note_on_c, 0, 77, 0
2, 53451, Control_c, 0, 64, 127
2, 53452, Note_on_c, 0, 78, 62
2, 53526, Note_on_c, 0, 79, 30
2, 53631, Note_on_c, 0, 79, 0
2, 53681, Note_on_c, 0, 78, 0
2, 53716, Control_c, 0, 64, 0
2, 53753, Note_on_c, 0, 79, 54
2, 53770, Note_on_c, 0, 50, 36
2, 53911, Note_on_c, 0, 50, 0
2, 54001, Note_on_c, 0, 79, 0
2, 54329, Control_c, 0, 64, 127
2, 54516, Note_on_c, 0, 65, 67
2, 54531, Note_on_c, 0, 60, 55
2, 54535, Note_on_c, 0, 54, 48
2, 54617, Control_c, 0, 64, 0
2, 54906, Control_c, 0, 64, 127
2, 55218, Note_on_c, 0, 79, 41
2, 55427, Note_on_c, 0, 79, 0
2, 55431, Note_on_c, 0, 60, 0
2, 55453, Note_on_c, 0, 82, 64
2, 55483, Note_on_c, 0, 65, 0
2, 55642, Note_on_c, 0, 54, 0
2, 55677, Control_c, 0, 64, 0
2, 55678, Note_on_c, 0, 80, 62
2, 55686, Note_on_c, 0, 64, 31
2, 55715, Note_on_c, 0, 53, 22
2, 55726, Note_on_c, 0, 59, 29
2, 55872, Note_on_c, 0, 80, 0
2, 55885, Note_on_c, 0, 75, 59
2, 55909, Note_on_c, 0, 64, 0
2, 55919, Note_on_c, 0, 82, 0
2, 56003, Note_on_c, 0, 59, 0
2, 56019, Note_on_c, 0, 75, 0
2, 56058, Note_on_c, 0, 71, 53
2, 56074, Note_on_c, 0, 53, 0
2, 56182, Note_on_c, 0, 71, 0
2, 56241, Note_on_c, 0, 70, 37
2, 56369, Note_on_c, 0, 68, 38
2, 56429, Note_on_c, 0, 70, 0
2, 56501, Note_on_c, 0, 68, 0
2, 56543, Note_on_c, 0, 67, 36
2, 56602, Note_on_c, 0, 43, 24
2, 56623, Note_on_c, 0, 53, 20
2, 56658, Note_on_c, 0, 67, 0
2, 56722, Note_on_c, 0, 66, 33
2, 56899, Note_on_c, 0, 66, 0
2, 57125, Note_on_c, 0, 43, 0
2, 57132, Control_c, 0, 64, 127
2, 57253, Note_on_c, 0, 65, 47
2, 57281, Note_on_c, 0, 53, 0
2, 57369, Note_on_c, 0, 65, 0
2, 57391, Note_on_c, 0, 67, 29
2, 57451, Note_on_c, 0, 65, 30
2, 57480, Note_on_c, 0, 67, 0
2, 57575, Note_on_c, 0, 62, 30
2, 57576, Note_on_c, 0, 65, 0
2, 57588, Control_c, 0, 64, 0
2, 57607, Note_on_c, 0, 43, 27
2, 57609, Note_on_c, 0, 36, 27
2, 57675, Note_on_c, 0, 62, 0
2, 57689, Note_on_c, 0, 52, 25
2, 57720, Note_on_c, 0, 63, 46
2, 57834, Note_on_c, 0, 63, 0
2, 57867, Note_on_c, 0, 64, 46
2, 58061, Note_on_c, 0, 36, 0
2, 58065, Note_on_c, 0, 64, 0
2, 58121, Note_on_c, 0, 67, 35
2, 58134, Note_on_c, 0, 43, 0
2, 58203, Note_on_c, 0, 52, 0
2, 58249, Control_c, 0, 64, 127
2, 58261, Note_on_c, 0, 67, 0
2, 58314, Note_on_c, 0, 71, 54
2, 58494, Note_on_c, 0, 71, 0
2, 58525, Note_on_c, 0, 74, 68
2, 58707, Control_c, 0, 64, 0
2, 58723, Note_on_c, 0, 64, 45
2, 58743, Note_on_c, 0, 71, 53
2, 58759, Note_on_c, 0, 60, 32
2, 58780, Control_c, 0, 64, 127
2, 58786, Note_on_c, 0, 64, 0
2, 58864, Note_on_c, 0, 60, 0
2, 58878, Note_on_c, 0, 74, 0
2, 58963, Note_on_c, 0, 71, 0
2, 59649, Note_on_c, 0, 65, 50
2, 59662, Note_on_c, 0, 55, 33
2, 59668, Note_on_c, 0, 60, 46
2, 59689, Note_on_c, 0, 46, 38
2, 59693, Control_c, 0, 64, 0
2, 59958, Control_c, 0, 64, 127
2, 60127, Note_on_c, 0, 65, 0
2, 60157, Note_on_c, 0, 55, 0
2, 60199, Note_on_c, 0, 60, 0
2, 60487, Control_c, 0, 64, 0
2, 60562, Note_on_c, 0, 61, 37
2, 60570, Note_on_c, 0, 56, 39
2, 60579, Note_on_c, 0, 66, 36
2, 60586, Note_on_c, 0, 47, 38
2, 60630, Note_on_c, 0, 46, 0
2, 60655, Control_c, 0, 64, 127
2, 61053, Note_on_c, 0, 56, 0
2, 61221, Note_on_c, 0, 66, 0
2, 61230, Note_on_c, 0, 61, 0
2, 61462, Control_c, 0, 64, 0
2, 61505, Note_on_c, 0, 67, 45
2, 61517, Note_on_c, 0, 57, 45
2, 61523, Note_on_c, 0, 62, 42
2, 61524, Note_on_c, 0, 47, 0
2, 61540, Note_on_c, 0, 48, 30
2, 61618, Control_c, 0, 64, 127
2, 61720, Note_on_c, 0, 62, 0
2, 61723, Note_on_c, 0, 67, 0
2, 61761, Note_on_c, 0, 48, 0
2, 61837, Note_on_c, 0, 57, 0
2, 62339, Control_c, 0, 64, 0
2, 62413, Note_on_c, 0, 60, 43
2, 62425, Note_on_c, 0, 52, 44
2, 62435, Note_on_c, 0, 55, 34
2, 62445, Note_on_c, 0, 45, 46
2, 62520, Control_c, 0, 64, 127
2, 62679, Note_on_c, 0, 60, 0
2, 62688, Note_on_c, 0, 55, 0
2, 62742, Note_on_c, 0, 52, 0
2, 62869, Control_c, 0, 64, 0
2, 62895, Note_on_c, 0, 56, 67
2, 62899, Note_on_c, 0, 62, 61
2, 62901, Note_on_c, 0, 53, 55
2, 62921, Note_on_c, 0, 47, 58
2, 63003, Note_on_c, 0, 45, 0
2, 63037, Control_c, 0, 64, 127
2, 63125, Note_on_c, 0, 62, 0
2, 63133, Note_on_c, 0, 53, 0
2, 63249, Note_on_c, 0, 56, 0
2, 63265, Control_c, 0, 64, 0
2, 63334, Note_on_c, 0, 64, 66
2, 63341, Note_on_c, 0, 57, 69
2, 63354, Note_on_c, 0, 55, 49
2, 63367, Note_on_c, 0, 48, 55
2, 63378, Note_on_c, 0, 47, 0
2, 63445, Control_c, 0, 64, 127
2, 63519, Note_on_c, 0, 57, 0
2, 63526, Note_on_c, 0, 64, 0
2, 63534, Note_on_c, 0, 55, 0
2, 63735, Control_c, 0, 64, 0
2, 63803, Note_on_c, 0, 65, 60
2, 63821, Note_on_c, 0, 59, 57
2, 63822, Note_on_c, 0, 56, 62
2, 63833, Note_on_c, 0, 50, 52
2, 63838, Note_on_c, 0, 62, 39
2, 63851, Note_on_c, 0, 48, 0
2, 63903, Control_c, 0, 64, 127
2, 63959, Note_on_c, 0, 56, 0
2, 63961, Note_on_c, 0, 62, 0
2, 63988, Note_on_c, 0, 59, 0
2, 63993, Note_on_c, 0, 65, 0
2, 64192, Control_c, 0, 64, 0
2, 64270, Note_on_c, 0, 67, 58
2, 64276, Note_on_c, 0, 60, 60
2, 64288, Note_on_c, 0, 57, 44
2, 64302, Note_on_c, 0, 52, 47
2, 64309, Note_on_c, 0, 50, 0
2, 64360, Control_c, 0, 64, 127
2, 64372, Note_on_c, 0, 57, 0
2, 64399, Note_on_c, 0, 60, 0
2, 64433, Note_on_c, 0, 67, 0
2, 64673, Note_on_c, 0, 52, 0
2, 64697, Control_c, 0, 64, 0
2, 64757, Note_on_c, 0, 68, 64
2, 64769, Note_on_c, 0, 62, 55
2, 64770, Note_on_c, 0, 59, 56
2, 64776, Note_on_c, 0, 54, 35
2, 64866, Control_c, 0, 64, 127
2, 64883, Note_on_c, 0, 54, 0
2, 64938, Note_on_c, 0, 62, 0
2, 64965, Note_on_c, 0, 59, 0
2, 65087, Note_on_c, 0, 68, 0
2, 65238, Control_c, 0, 64, 0
2, 65291, Note_on_c, 0, 69, 54
2, 65304, Note_on_c, 0, 59, 44
2, 65318, Note_on_c, 0, 62, 44
2, 65321, Note_on_c, 0, 66, 38
2, 65350, Note_on_c, 0, 47, 19
2, 65399, Note_on_c, 0, 59, 0
2, 65429, Control_c, 0, 64, 127
2, 65443, Note_on_c, 0, 62, 0
2, 65476, Note_on_c, 0, 55, 1
2, 65491, Note_on_c, 0, 66, 0
2, 65502, Note_on_c, 0, 69, 0
2, 65505, Note_on_c, 0, 47, 0
2, 65619, Note_on_c, 0, 55, 0
2, 65835, Note_on_c, 0, 81, 65
2, 65849, Note_on_c, 0, 74, 57
2, 65995, Note_on_c, 0, 74, 0
2, 66044, Note_on_c, 0, 69, 30
2, 66168, Note_on_c, 0, 81, 0
2, 66184, Note_on_c, 0, 69, 0
2, 66237, Control_c, 0, 64, 0
2, 66251, Note_on_c, 0, 62, 37
2, 66271, Note_on_c, 0, 59, 35
2, 66280, Note_on_c, 0, 81, 47
2, 66281, Note_on_c, 0, 55, 26
2, 66283, Note_on_c, 0, 74, 55
2, 66295, Note_on_c, 0, 52, 24
2, 66398, Control_c, 0, 64, 127
2, 66495, Note_on_c, 0, 81, 0
2, 66497, Note_on_c, 0, 74, 0
2, 66543, Note_on_c, 0, 69, 43
2, 66575, Note_on_c, 0, 78, 38
2, 66604, Note_on_c, 0, 52, 0
2, 66647, Note_on_c, 0, 55, 0
2, 66660, Note_on_c, 0, 59, 0
2, 66697, Note_on_c, 0, 69, 0
2, 66728, Note_on_c, 0, 78, 0
2, 66764, Note_on_c, 0, 62, 0
2, 66784, Note_on_c, 0, 81, 52
2, 66792, Note_on_c, 0, 74, 56
2, 66812, Note_on_c, 0, 78, 21
2, 67027, Note_on_c, 0, 69, 32
2, 67042, Note_on_c, 0, 74, 0
2, 67082, Note_on_c, 0, 78, 0
2, 67100, Note_on_c, 0, 81, 0
2, 67136, Note_on_c, 0, 69, 0
2, 67194, Control_c, 0, 64, 0
2, 67207, Note_on_c, 0, 61, 31
2, 67221, Note_on_c, 0, 65, 30
2, 67225, Note_on_c, 0, 81, 40
2, 67232, Note_on_c, 0, 55, 28
2, 67236, Note_on_c, 0, 73, 36
2, 67248, Note_on_c, 0, 77, 41
2, 67373, Control_c, 0, 64, 127
2, 67486, Note_on_c, 0, 65, 0
2, 67532, Note_on_c, 0, 61, 0
2, 67546, Note_on_c, 0, 55, 0
2, 67557, Note_on_c, 0, 77, 0
2, 67668, Note_on_c, 0, 81, 0
2, 67689, Note_on_c, 0, 77, 41
2, 67726, Note_on_c, 0, 67, 20
2, 67979, Note_on_c, 0, 77, 0
2, 67983, Note_on_c, 0, 67, 0
2, 68015, Note_on_c, 0, 73, 0
2, 68169, Note_on_c, 0, 73, 31
2, 68185, Note_on_c, 0, 77, 39
2, 68196, Note_on_c, 0, 67, 26
2, 68206, Note_on_c, 0, 55, 22
2, 68380, Note_on_c, 0, 55, 0
2, 68504, Note_on_c, 0, 67, 0
2, 68679, Note_on_c, 0, 77, 0
2, 68798, Note_on_c, 0, 73, 0
2, 69102, Control_c, 0, 64, 0
2, 69103, Note_on_c, 0, 47, 28
2, 69107, Note_on_c, 0, 40, 27
2, 69131, Note_on_c, 0, 78, 33
2, 69155, Note_on_c, 0, 55, 28
2, 69157, Note_on_c, 0, 71, 33
2, 69165, Note_on_c, 0, 74, 36
2, 69166, Note_on_c, 0, 67, 18
2, 69255, Note_on_c, 0, 40, 0
2, 69282, Control_c, 0, 64, 127
2, 69310, Note_on_c, 0, 47, 0
2, 69371, Note_on_c, 0, 55, 0
2, 69600, Note_on_c, 0, 67, 0
2, 69634, Note_on_c, 0, 78, 0
2, 69657, Note_on_c, 0, 74, 0
2, 69689, Note_on_c, 0, 71, 0
2, 70129, Note_on_c, 0, 62, 25
2, 70138, Note_on_c, 0, 66, 25
2, 70148, Note_on_c, 0, 59, 35
2, 70390, Note_on_c, 0, 81, 48
2, 70452, Note_on_c, 0, 62, 0
2, 70507, Note_on_c, 0, 81, 0
2, 70530, Note_on_c, 0, 66, 0
2, 70576, Note_on_c, 0, 86, 65
2, 70694, Note_on_c, 0, 59, 0
2, 70724, Note_on_c, 0, 86, 0
2, 70796, Note_on_c, 0, 90, 79
2, 70993, Note_on_c, 0, 90, 0
2, 71069, Note_on_c, 0, 61, 49
2, 71071, Note_on_c, 0, 66, 57
2, 71087, Note_on_c, 0, 55, 37
2, 71090, Control_c, 0, 64, 0
2, 71113, Note_on_c, 0, 90, 74
2, 71304, Note_on_c, 0, 90, 0
2, 71393, Control_c, 0, 64, 127
2, 71408, Note_on_c, 0, 90, 67
2, 71579, Note_on_c, 0, 90, 0
2, 71696, Note_on_c, 0, 90, 74
2, 71756, Note_on_c, 0, 55, 0
2, 71869, Note_on_c, 0, 66, 0
2, 71874, Note_on_c, 0, 61, 0
2, 71892, Note_on_c, 0, 90, 0
2, 71968, Note_on_c, 0, 90, 64
2, 72026, Note_on_c, 0, 61, 43
2, 72042, Note_on_c, 0, 65, 41
2, 72046, Note_on_c, 0, 55, 33
2, 72088, Control_c, 0, 64, 0
2, 72161, Note_on_c, 0, 90, 0
2, 72278, Note_on_c, 0, 90, 71
2, 72291, Control_c, 0, 64, 127
2, 72433, Note_on_c, 0, 65, 0
2, 72453, Note_on_c, 0, 55, 0
2, 72472, Note_on_c, 0, 90, 0
2, 72495, Note_on_c, 0, 89, 60
2, 72677, Note_on_c, 0, 89, 0
2, 72735, Note_on_c, 0, 88, 67
2, 72871, Note_on_c, 0, 88, 0
2, 72931, Control_c, 0, 64, 0
2, 72959, Note_on_c, 0, 88, 54
2, 72961, Note_on_c, 0, 64, 42
2, 72971, Note_on_c, 0, 54, 34
2, 72997, Note_on_c, 0, 59, 38
2, 73113, Note_on_c, 0, 88, 0
2, 73178, Control_c, 0, 64, 127
2, 73234, Note_on_c, 0, 88, 65
2, 73244, Note_on_c, 0, 59, 0
2, 73251, Note_on_c, 0, 64, 0
2, 73281, Note_on_c, 0, 61, 0
2, 73323, Note_on_c, 0, 54, 0
2, 73383, Note_on_c, 0, 88, 0
2, 73455, Note_on_c, 0, 85, 44
2, 73601, Note_on_c, 0, 85, 0
2, 73663, Note_on_c, 0, 85, 44
2, 73811, Note_on_c, 0, 85, 0
2, 73870, Note_on_c, 0, 85, 44
2, 73896, Control_c, 0, 64, 0
2, 73897, Note_on_c, 0, 54, 35
2, 73902, Note_on_c, 0, 57, 39
2, 73911, Note_on_c, 0, 50, 34
2, 74043, Note_on_c, 0, 85, 0
2, 74051, Note_on_c, 0, 57, 0
2, 74076, Control_c, 0, 64, 127
2, 74098, Note_on_c, 0, 54, 0
2, 74109, Note_on_c, 0, 50, 0
2, 74115, Note_on_c, 0, 85, 43
2, 74314, Note_on_c, 0, 81, 58
2, 74427, Note_on_c, 0, 81, 0
2, 74528, Note_on_c, 0, 81, 47
2, 74632, Note_on_c, 0, 81, 0
2, 74686, Note_on_c, 0, 85, 0
2, 74731, Note_on_c, 0, 81, 44
2, 74863, Control_c, 0, 64, 0
2, 74865, Note_on_c, 0, 81, 0
2, 74879, Note_on_c, 0, 43, 33
2, 74907, Note_on_c, 0, 83, 55
2, 75018, Control_c, 0, 64, 127
2, 75063, Note_on_c, 0, 43, 0
2, 75519, Note_on_c, 0, 83, 0
2, 75845, Note_on_c, 0, 62, 32
2, 75850, Note_on_c, 0, 57, 38
2, 75864, Note_on_c, 0, 79, 41
2, 75884, Note_on_c, 0, 59, 29
2, 75963, Note_on_c, 0, 59, 0
2, 75980, Note_on_c, 0, 62, 0
2, 75981, Note_on_c, 0, 57, 0
2, 76067, Note_on_c, 0, 79, 0
2, 76816, Control_c, 0, 64, 0
2, 76823, Note_on_c, 0, 76, 80
2, 76829, Note_on_c, 0, 64, 60
2, 76830, Note_on_c, 0, 73, 71
2, 76831, Note_on_c, 0, 66, 71
2, 76839, Note_on_c, 0, 69, 79
2, 76847, Note_on_c, 0, 62, 47
2, 76971, Control_c, 0, 64, 127
2, 77286, Note_on_c, 0, 64, 0
2, 77322, Note_on_c, 0, 62, 0
2, 77389, Note_on_c, 0, 76, 0
2, 77390, Note_on_c, 0, 66, 0
2, 77445, Note_on_c, 0, 69, 0
2, 77617, Note_on_c, 0, 73, 0
2, 77769, Control_c, 0, 64, 0
2, 77770, Note_on_c, 0, 61, 1
2, 77772, Note_on_c, 0, 75, 61
2, 77773, Note_on_c, 0, 68, 55
2, 77780, Note_on_c, 0, 63, 48
2, 77781, Note_on_c, 0, 65, 51
2, 77790, Note_on_c, 0, 72, 32
2, 77949, Control_c, 0, 64, 127
2, 78251, Note_on_c, 0, 65, 0
2, 78321, Note_on_c, 0, 63, 0
2, 78324, Note_on_c, 0, 68, 0
2, 78496, Note_on_c, 0, 75, 0
2, 78712, Control_c, 0, 64, 0
2, 78743, Note_on_c, 0, 64, 45
2, 78751, Note_on_c, 0, 74, 50
2, 78753, Note_on_c, 0, 72, 0
2, 78755, Note_on_c, 0, 61, 0
2, 78761, Note_on_c, 0, 71, 44
2, 78763, Note_on_c, 0, 67, 45
2, 78770, Note_on_c, 0, 60, 33
2, 78771, Note_on_c, 0, 62, 40
2, 78881, Control_c, 0, 64, 127
2, 79111, Note_on_c, 0, 62, 0
2, 79178, Note_on_c, 0, 60, 0
2, 79200, Note_on_c, 0, 64, 0
2, 79303, Note_on_c, 0, 74, 0
2, 79365, Note_on_c, 0, 71, 0
2, 79386, Note_on_c, 0, 67, 0
2, 79679, Control_c, 0, 64, 0
2, 79693, Note_on_c, 0, 63, 34
2, 79704, Note_on_c, 0, 61, 27
2, 79717, Note_on_c, 0, 73, 34
2, 79721, Note_on_c, 0, 70, 49
2, 79721, Note_on_c, 0, 66, 47
2, 79757, Control_c, 0, 64, 127
2, 79758, Note_on_c, 0, 59, 24
2, 79899, Note_on_c, 0, 61, 0
2, 79919, Note_on_c, 0, 59, 0
2, 79922, Note_on_c, 0, 63, 0
2, 80303, Note_on_c, 0, 66, 0
2, 80370, Note_on_c, 0, 70, 0
2, 80408, Note_on_c, 0, 73, 0
2, 80689, Control_c, 0, 64, 0
2, 80704, Note_on_c, 0, 60, 43
2, 80712, Note_on_c, 0, 72, 37
2, 80719, Note_on_c, 0, 69, 34
2, 80726, Note_on_c, 0, 50, 32
2, 80735, Note_on_c, 0, 65, 32
2, 80902, Control_c, 0, 64, 127
2, 81184, Note_on_c, 0, 69, 0
2, 81238, Note_on_c, 0, 60, 0
2, 81267, Note_on_c, 0, 65, 0
2, 81307, Note_on_c, 0, 57, 37
2, 81626, Note_on_c, 0, 72, 0
2, 81668, Note_on_c, 0, 57, 0
2, 81689, Note_on_c, 0, 69, 50
2, 81692, Note_on_c, 0, 60, 45
2, 81702, Note_on_c, 0, 65, 47
2, 81715, Note_on_c, 0, 50, 0
2, 81774, Note_on_c, 0, 57, 27
2, 81846, Note_on_c, 0, 57, 0
2, 82305, Note_on_c, 0, 50, 26
2, 82384, Note_on_c, 0, 65, 0
2, 82388, Note_on_c, 0, 60, 0
2, 82442, Note_on_c, 0, 69, 0
2, 82660, Note_on_c, 0, 66, 60
2, 82661, Note_on_c, 0, 64, 54
2, 82664, Control_c, 0, 64, 0
2, 82666, Note_on_c, 0, 50, 0
2, 82669, Note_on_c, 0, 43, 26
2, 82672, Note_on_c, 0, 53, 26
2, 82675, Note_on_c, 0, 59, 44
2, 82731, Note_on_c, 0, 67, 27
2, 82899, Control_c, 0, 64, 127
2, 83003, Note_on_c, 0, 59, 0
2, 83039, Note_on_c, 0, 43, 0
2, 83055, Note_on_c, 0, 66, 0
2, 83117, Note_on_c, 0, 53, 0
2, 83145, Note_on_c, 0, 64, 0
2, 83199, Note_on_c, 0, 67, 0
2, 83585, Control_c, 0, 64, 0
2, 83605, Note_on_c, 0, 60, 38
2, 83614, Note_on_c, 0, 54, 43
2, 83615, Note_on_c, 0, 65, 29
2, 83639, Note_on_c, 0, 64, 29
2, 83708, Control_c, 0, 64, 127
2, 83957, Note_on_c, 0, 65, 0
2, 83976, Note_on_c, 0, 60, 0
2, 83980, Note_on_c, 0, 64, 0
2, 84076, Note_on_c, 0, 54, 0
2, 84200, Note_on_c, 0, 60, 61
2, 84322, Note_on_c, 0, 60, 0
2, 84525, Note_on_c, 0, 76, 76
2, 84527, Note_on_c, 0, 69, 81
2, 84533, Note_on_c, 0, 72, 43
2, 84534, Note_on_c, 0, 65, 85
2, 84538, Note_on_c, 0, 64, 90
2, 84549, Control_c, 0, 64, 0
2, 84799, Note_on_c, 0, 76, 0
2, 84882, Note_on_c, 0, 76, 63
2, 84887, Control_c, 0, 64, 127
2, 85085, Note_on_c, 0, 65, 0
2, 85093, Note_on_c, 0, 72, 0
2, 85117, Note_on_c, 0, 76, 0
2, 85137, Note_on_c, 0, 74, 49
2, 85276, Note_on_c, 0, 69, 0
2, 85370, Note_on_c, 0, 74, 0
2, 85457, Note_on_c, 0, 69, 53
2, 85460, Control_c, 0, 64, 0
2, 85461, Note_on_c, 0, 76, 47
2, 85461, Note_on_c, 0, 65, 55
2, 85470, Note_on_c, 0, 72, 30
2, 85475, Note_on_c, 0, 62, 42
2, 85528, Note_on_c, 0, 64, 0
2, 85640, Note_on_c, 0, 76, 0
2, 85650, Control_c, 0, 64, 127
2, 85702, Note_on_c, 0, 65, 0
2, 85716, Note_on_c, 0, 72, 0
2, 85766, Note_on_c, 0, 76, 48
2, 85794, Note_on_c, 0, 72, 17
2, 85836, Note_on_c, 0, 62, 0
2, 85972, Note_on_c, 0, 76, 0
2, 86064, Note_on_c, 0, 74, 53
2, 86107, Note_on_c, 0, 69, 0
2, 86110, Note_on_c, 0, 72, 0
2, 86294, Note_on_c, 0, 74, 0
2, 86397, Note_on_c, 0, 71, 44
2, 86402, Control_c, 0, 64, 0
2, 86403, Note_on_c, 0, 68, 35
2, 86404, Note_on_c, 0, 76, 41
2, 86406, Note_on_c, 0, 64, 41
2, 86414, Note_on_c, 0, 65, 32
2, 86439, Note_on_c, 0, 53, 19
2, 86452, Note_on_c, 0, 59, 27
2, 86533, Note_on_c, 0, 64, 0
2, 86578, Note_on_c, 0, 59, 0
2, 86581, Control_c, 0, 64, 127
2, 86623, Note_on_c, 0, 76, 0
2, 86643, Note_on_c, 0, 53, 0
2, 87041, Note_on_c, 0, 75, 55
2, 87333, Note_on_c, 0, 75, 0
2, 87362, Note_on_c, 0, 71, 0
2, 87410, Note_on_c, 0, 74, 51
2, 87418, Note_on_c, 0, 43, 30
2, 87435, Control_c, 0, 64, 0
2, 87559, Control_c, 0, 64, 127
2, 87716, Note_on_c, 0, 43, 0
2, 87872, Note_on_c, 0, 65, 0
2, 87928, Note_on_c, 0, 68, 0
2, 87947, Note_on_c, 0, 74, 0
2, 88360, Note_on_c, 0, 52, 36
2, 88390, Control_c, 0, 64, 0
2, 88829, Note_on_c, 0, 62, 33
2, 88861, Note_on_c, 0, 59, 26
2, 89308, Note_on_c, 0, 69, 33
2, 89384, Note_on_c, 0, 69, 0
2, 89635, Note_on_c, 0, 83, 70
2, 89759, Note_on_c, 0, 83, 0
2, 89832, Note_on_c, 0, 59, 0
2, 89834, Note_on_c, 0, 52, 0
2, 89933, Note_on_c, 0, 62, 0
2, 89975, Note_on_c, 0, 82, 71
2, 90194, Note_on_c, 0, 82, 0
2, 90270, Note_on_c, 0, 61, 34
2, 90284, Note_on_c, 0, 64, 32
2, 90285, Note_on_c, 0, 81, 59
2, 90304, Note_on_c, 0, 55, 18
2, 90395, Note_on_c, 0, 81, 0
2, 90591, Note_on_c, 0, 75, 59
2, 90694, Note_on_c, 0, 75, 0
2, 91154, Note_on_c, 0, 61, 0
2, 91157, Note_on_c, 0, 64, 0
2, 91245, Note_on_c, 0, 75, 74
2, 91268, Note_on_c, 0, 61, 33
2, 91273, Note_on_c, 0, 64, 33
2, 91387, Control_c, 0, 64, 127
2, 91618, Note_on_c, 0, 64, 0
2, 91684, Note_on_c, 0, 61, 0
2, 91702, Note_on_c, 0, 55, 0
2, 91809, Note_on_c, 0, 75, 0
2, 91856, Note_on_c, 0, 76, 68
2, 92218, Control_c, 0, 64, 0
2, 92251, Note_on_c, 0, 60, 34
2, 92265, Note_on_c, 0, 57, 37
2, 92274, Note_on_c, 0, 50, 24
2, 92386, Control_c, 0, 64, 127
2, 92450, Note_on_c, 0, 76, 0
2, 92850, Note_on_c, 0, 50, 0
2, 92856, Note_on_c, 0, 57, 0
2, 92900, Note_on_c, 0, 86, 90
2, 92915, Note_on_c, 0, 60, 0
2, 93216, Control_c, 0, 64, 0
2, 93231, Note_on_c, 0, 65, 44
2, 93243, Note_on_c, 0, 60, 36
2, 93254, Note_on_c, 0, 54, 39
2, 93524, Note_on_c, 0, 86, 0
2, 93542, Control_c, 0, 64, 127
2, 93581, Note_on_c, 0, 86, 19
2, 93581, Note_on_c, 0, 85, 62
2, 93651, Note_on_c, 0, 86, 0
2, 93845, Note_on_c, 0, 85, 0
2, 93889, Note_on_c, 0, 84, 70
2, 93905, Note_on_c, 0, 60, 0
2, 93984, Note_on_c, 0, 65, 0
2, 94066, Note_on_c, 0, 84, 0
2, 94131, Note_on_c, 0, 54, 0
2, 94148, Control_c, 0, 64, 0
2, 94187, Note_on_c, 0, 64, 35
2, 94193, Note_on_c, 0, 83, 64
2, 94212, Note_on_c, 0, 53, 22
2, 94230, Note_on_c, 0, 59, 29
2, 94311, Note_on_c, 0, 83, 0
2, 94317, Control_c, 0, 64, 127
2, 94381, Note_on_c, 0, 64, 0
2, 94437, Note_on_c, 0, 59, 0
2, 94477, Note_on_c, 0, 82, 71
2, 94498, Note_on_c, 0, 53, 0
2, 94673, Note_on_c, 0, 80, 48
2, 94715, Note_on_c, 0, 82, 0
2, 94812, Note_on_c, 0, 75, 56
2, 94857, Note_on_c, 0, 80, 0
2, 94999, Note_on_c, 0, 71, 50
2, 95009, Note_on_c, 0, 75, 0
2, 95035, Control_c, 0, 64, 0
2, 95038, Note_on_c, 0, 43, 27
2, 95068, Note_on_c, 0, 53, 17
2, 95189, Note_on_c, 0, 71, 0
2, 95195, Note_on_c, 0, 70, 56
2, 95249, Note_on_c, 0, 43, 0
2, 95305, Control_c, 0, 64, 127
2, 95331, Note_on_c, 0, 70, 0
2, 95382, Note_on_c, 0, 69, 33
2, 95383, Note_on_c, 0, 53, 0
2, 95521, Note_on_c, 0, 69, 0
2, 95547, Note_on_c, 0, 68, 32
2, 95622, Note_on_c, 0, 68, 0
2, 95675, Note_on_c, 0, 67, 28
2, 95791, Note_on_c, 0, 67, 0
2, 95831, Note_on_c, 0, 65, 45
2, 96000, Note_on_c, 0, 65, 0
2, 96034, Control_c, 0, 64, 0
2, 96049, Note_on_c, 0, 67, 53
2, 96061, Note_on_c, 0, 57, 45
2, 96063, Note_on_c, 0, 59, 32
2, 96065, Note_on_c, 0, 62, 37
2, 96085, Note_on_c, 0, 52, 34
2, 96202, Control_c, 0, 64, 127
2, 96311, Note_on_c, 0, 57, 0
2, 96338, Note_on_c, 0, 62, 0
2, 96346, Note_on_c, 0, 59, 0
2, 96368, Note_on_c, 0, 67, 0
2, 96383, Note_on_c, 0, 52, 0
2, 96529, Control_c, 0, 64, 0
2, 96555, Note_on_c, 0, 71, 57
2, 96567, Note_on_c, 0, 42, 54
2, 96577, Note_on_c, 0, 63, 53
2, 96584, Note_on_c, 0, 59, 48
2, 96599, Note_on_c, 0, 52, 24
2, 96695, Control_c, 0, 64, 127
2, 96697, Note_on_c, 0, 52, 0
2, 96718, Note_on_c, 0, 59, 0
2, 96753, Note_on_c, 0, 63, 0
2, 96755, Note_on_c, 0, 42, 0
2, 96784, Note_on_c, 0, 71, 0
2, 96950, Note_on_c, 0, 41, 30
2, 96985, Control_c, 0, 64, 0
2, 97029, Note_on_c, 0, 63, 59
2, 97048, Note_on_c, 0, 72, 41
2, 97051, Note_on_c, 0, 67, 43
2, 97082, Note_on_c, 0, 55, 17
2, 97113, Note_on_c, 0, 67, 0
2, 97115, Note_on_c, 0, 63, 0
2, 97162, Note_on_c, 0, 55, 0
2, 97205, Note_on_c, 0, 41, 0
2, 97287, Note_on_c, 0, 72, 0
2, 97521, Note_on_c, 0, 40, 42
2, 97534, Note_on_c, 0, 67, 40
2, 97538, Note_on_c, 0, 62, 40
2, 97550, Note_on_c, 0, 47, 30
2, 97589, Note_on_c, 0, 62, 0
2, 97643, Note_on_c, 0, 67, 0
2, 97706, Note_on_c, 0, 40, 0
2, 97742, Note_on_c, 0, 47, 0
2, 98005, Note_on_c, 0, 69, 53
2, 98008, Note_on_c, 0, 47, 40
2, 98013, Note_on_c, 0, 55, 24
2, 98032, Note_on_c, 0, 62, 39
2, 98039, Note_on_c, 0, 67, 35
2, 98067, Control_c, 0, 64, 127
2, 98147, Note_on_c, 0, 55, 0
2, 98217, Note_on_c, 0, 47, 0
2, 98377, Note_on_c, 0, 62, 0
2, 98597, Note_on_c, 0, 67, 0
2, 98721, Note_on_c, 0, 69, 0
2, 98896, Control_c, 0, 64, 0
2, 98899, Note_on_c, 0, 39, 37
2, 98920, Note_on_c, 0, 61, 32
2, 98925, Note_on_c, 0, 54, 30
2, 98944, Note_on_c, 0, 65, 44
2, 99029, Control_c, 0, 64, 127
2, 99055, Note_on_c, 0, 54, 0
2, 99133, Note_on_c, 0, 39, 0
2, 99407, Note_on_c, 0, 61, 0
2, 99443, Note_on_c, 0, 65, 0
2, 99787, Control_c, 0, 64, 0
2, 99803, Note_on_c, 0, 38, 28
2, 99838, Note_on_c, 0, 45, 29
2, 99859, Note_on_c, 0, 65, 44
2, 99861, Note_on_c, 0, 60, 36
2, 99920, Control_c, 0, 64, 127
2, 100100, Note_on_c, 0, 38, 0
2, 100171, Note_on_c, 0, 45, 0
2, 100215, Note_on_c, 0, 60, 0
2, 100347, Note_on_c, 0, 65, 0
2, 100762, Note_on_c, 0, 64, 53
2, 100773, Note_on_c, 0, 65, 48
2, 100783, Note_on_c, 0, 69, 44
2, 100858, Control_c, 0, 64, 0
2, 101035, Note_on_c, 0, 62, 39
2, 101205, Note_on_c, 0, 62, 0
2, 101306, Note_on_c, 0, 60, 48
2, 101463, Note_on_c, 0, 60, 0
2, 101474, Note_on_c, 0, 64, 0
2, 101505, Note_on_c, 0, 65, 0
2, 101519, Note_on_c, 0, 69, 0
2, 101543, Control_c, 0, 64, 127
2, 101577, Note_on_c, 0, 57, 43
2, 101725, Control_c, 0, 64, 0
2, 101769, Note_on_c, 0, 57, 0
2, 101787, Note_on_c, 0, 65, 57
2, 101800, Note_on_c, 0, 60, 44
2, 101929, Control_c, 0, 64, 127
2, 102119, Note_on_c, 0, 59, 25
2, 102215, Note_on_c, 0, 59, 0
2, 102419, Note_on_c, 0, 60, 0
2, 102433, Note_on_c, 0, 50, 45
2, 102473, Note_on_c, 0, 65, 0
2, 102715, Note_on_c, 0, 50, 0
2, 102745, Note_on_c, 0, 63, 49
2, 102752, Note_on_c, 0, 59, 53
2, 102758, Control_c, 0, 64, 0
2, 102765, Note_on_c, 0, 53, 37
2, 103082, Note_on_c, 0, 43, 31
2, 103106, Control_c, 0, 64, 127
2, 103489, Note_on_c, 0, 53, 0
2, 103651, Note_on_c, 0, 43, 0
2, 103684, Note_on_c, 0, 52, 50
2, 103689, Note_on_c, 0, 59, 0
2, 103744, Control_c, 0, 64, 0
2, 103798, Note_on_c, 0, 63, 0
2, 103900, Control_c, 0, 64, 127
2, 103978, Note_on_c, 0, 52, 0
2, 104597, Note_on_c, 0, 67, 55
2, 104613, Note_on_c, 0, 56, 43
2, 104627, Note_on_c, 0, 62, 35
2, 104647, Control_c, 0, 64, 0
2, 104755, Control_c, 0, 64, 127
2, 105031, Note_on_c, 0, 67, 0
2, 105050, Note_on_c, 0, 62, 0
2, 105201, Note_on_c, 0, 56, 0
2, 105206, Note_on_c, 0, 74, 72
2, 105352, Note_on_c, 0, 74, 0
2, 105597, Control_c, 0, 64, 0
2, 105616, Note_on_c, 0, 72, 52
2, 105625, Note_on_c, 0, 61, 54
2, 105633, Note_on_c, 0, 46, 34
2, 105634, Note_on_c, 0, 56, 47
2, 105637, Note_on_c, 0, 65, 35
2, 105777, Control_c, 0, 64, 127
2, 106144, Note_on_c, 0, 65, 0
2, 106214, Note_on_c, 0, 61, 0
2, 106228, Note_on_c, 0, 56, 0
2, 106559, Control_c, 0, 64, 0
2, 106565, Note_on_c, 0, 61, 37
2, 106573, Note_on_c, 0, 55, 37
2, 106587, Note_on_c, 0, 64, 52
2, 106588, Note_on_c, 0, 67, 34
2, 106591, Note_on_c, 0, 72, 0
2, 106690, Control_c, 0, 64, 127
2, 107090, Note_on_c, 0, 69, 58
2, 107336, Note_on_c, 0, 55, 0
2, 107361, Note_on_c, 0, 61, 0
2, 107366, Note_on_c, 0, 67, 0
2, 107391, Note_on_c, 0, 64, 0
2, 107405, Note_on_c, 0, 46, 0
2, 107421, Note_on_c, 0, 69, 0
2, 107474, Control_c, 0, 64, 0
2, 107531, Note_on_c, 0, 64, 46
2, 107536, Note_on_c, 0, 71, 55
2, 107540, Note_on_c, 0, 60, 36
2, 107545, Note_on_c, 0, 45, 44
2, 107549, Note_on_c, 0, 67, 38
2, 107561, Note_on_c, 0, 55, 24
2, 107666, Control_c, 0, 64, 127
2, 107727, Note_on_c, 0, 55, 0
2, 107787, Note_on_c, 0, 45, 0
2, 107894, Note_on_c, 0, 57, 67
2, 107942, Control_c, 0, 64, 0
2, 108002, Control_c, 0, 64, 127
2, 108100, Note_on_c, 0, 57, 0
2, 108111, Control_c, 0, 64, 0
2, 108195, Control_c, 0, 64, 127
2, 108224, Note_on_c, 0, 55, 44
2, 108251, Note_on_c, 0, 67, 0
2, 108296, Note_on_c, 0, 64, 0
2, 108328, Note_on_c, 0, 60, 0
2, 108383, Note_on_c, 0, 55, 0
2, 108515, Note_on_c, 0, 71, 0
2, 108529, Note_on_c, 0, 63, 49
2, 108532, Control_c, 0, 64, 0
2, 108542, Note_on_c, 0, 54, 37
2, 108543, Note_on_c, 0, 66, 48
2, 108550, Note_on_c, 0, 60, 40
2, 108664, Control_c, 0, 64, 127
2, 108901, Note_on_c, 0, 54, 0
2, 108902, Note_on_c, 0, 60, 0
2, 108933, Note_on_c, 0, 66, 0
2, 108988, Note_on_c, 0, 55, 38
2, 108997, Note_on_c, 0, 60, 28
2, 109010, Note_on_c, 0, 64, 28
2, 109017, Note_on_c, 0, 67, 32
2, 109165, Note_on_c, 0, 55, 0
2, 109169, Note_on_c, 0, 64, 0
2, 109251, Note_on_c, 0, 63, 0
2, 109312, Note_on_c, 0, 67, 0
2, 109363, Note_on_c, 0, 60, 0
2, 109423, Control_c, 0, 64, 0
2, 109467, Note_on_c, 0, 67, 24
2, 109469, Note_on_c, 0, 63, 30
2, 109473, Note_on_c, 0, 54, 38
2, 109474, Note_on_c, 0, 44, 35
2, 109484, Note_on_c, 0, 59, 53
2, 109589, Control_c, 0, 64, 127
2, 110001, Note_on_c, 0, 54, 0
2, 110024, Note_on_c, 0, 67, 0
2, 110105, Note_on_c, 0, 63, 0
2, 110115, Note_on_c, 0, 44, 0
2, 110132, Note_on_c, 0, 59, 0
2, 110392, Note_on_c, 0, 56, 43
2, 110395, Note_on_c, 0, 59, 43
2, 110396, Note_on_c, 0, 63, 43
2, 110399, Control_c, 0, 64, 0
2, 110422, Note_on_c, 0, 49, 33
2, 110507, Control_c, 0, 64, 127
2, 110663, Note_on_c, 0, 56, 0
2, 110885, Note_on_c, 0, 59, 0
2, 110920, Note_on_c, 0, 49, 0
2, 111103, Note_on_c, 0, 63, 0
2, 111361, Control_c, 0, 64, 0
2, 111395, Note_on_c, 0, 83, 65
2, 111400, Note_on_c, 0, 80, 45
2, 111404, Note_on_c, 0, 62, 39
2, 111406, Note_on_c, 0, 71, 60
2, 111407, Note_on_c, 0, 76, 60
2, 111414, Note_on_c, 0, 56, 40
2, 111425, Note_on_c, 0, 52, 32
2, 111544, Control_c, 0, 64, 127
2, 111693, Note_on_c, 0, 71, 0
2, 111695, Note_on_c, 0, 76, 0
2, 111713, Note_on_c, 0, 62, 0
2, 111725, Note_on_c, 0, 83, 0
2, 111741, Note_on_c, 0, 52, 0
2, 111770, Note_on_c, 0, 80, 0
2, 111810, Note_on_c, 0, 56, 0
2, 111880, Control_c, 0, 64, 0
2, 111891, Note_on_c, 0, 84, 69
2, 111910, Note_on_c, 0, 62, 55
2, 111912, Note_on_c, 0, 79, 69
2, 111913, Note_on_c, 0, 72, 44
2, 111914, Note_on_c, 0, 57, 62
2, 111929, Note_on_c, 0, 52, 43
2, 112073, Control_c, 0, 64, 127
2, 112521, Note_on_c, 0, 62, 0
2, 112552, Note_on_c, 0, 57, 0
2, 112562, Note_on_c, 0, 52, 0
2, 112694, Note_on_c, 0, 79, 0
2, 112695, Note_on_c, 0, 84, 0
2, 112714, Control_c, 0, 64, 0
2, 112807, Note_on_c, 0, 45, 61
2, 112848, Control_c, 0, 64, 127
2, 112889, Note_on_c, 0, 45, 0
2, 113236, Note_on_c, 0, 72, 0
2, 113300, Note_on_c, 0, 81, 74
2, 113310, Note_on_c, 0, 73, 76
2, 113314, Note_on_c, 0, 69, 79
2, 113317, Note_on_c, 0, 55, 57
2, 113318, Note_on_c, 0, 61, 59
2, 113319, Note_on_c, 0, 76, 62
2, 113321, Note_on_c, 0, 58, 61
2, 113321, Note_on_c, 0, 64, 78
2, 113943, Note_on_c, 0, 76, 0
2, 113953, Note_on_c, 0, 61, 0
2, 113972, Note_on_c, 0, 64, 0
2, 114011, Note_on_c, 0, 69, 0
2, 114040, Note_on_c, 0, 73, 0
2, 114192, Note_on_c, 0, 81, 0
2, 114307, Note_on_c, 0, 73, 48
2, 114308, Note_on_c, 0, 76, 57
2, 114310, Note_on_c, 0, 61, 45
2, 114318, Note_on_c, 0, 69, 50
2, 114319, Note_on_c, 0, 64, 43
2, 114452, Note_on_c, 0, 64, 0
2, 114499, Note_on_c, 0, 61, 0
2, 114505, Note_on_c, 0, 58, 0
2, 114540, Note_on_c, 0, 55, 0
2, 114586, Note_on_c, 0, 76, 0
2, 114657, Note_on_c, 0, 73, 0
2, 114682, Note_on_c, 0, 69, 0
2, 115215, Note_on_c, 0, 76, 62
2, 115216, Note_on_c, 0, 60, 39
2, 115223, Control_c, 0, 64, 0
2, 115227, Note_on_c, 0, 69, 51
2, 115231, Note_on_c, 0, 50, 37
2, 115234, Control_c, 0, 64, 127
2, 115236, Note_on_c, 0, 65, 49
2, 115251, Note_on_c, 0, 72, 30
2, 115261, Note_on_c, 0, 60, 0
2, 115349, Note_on_c, 0, 50, 0
2, 115477, Note_on_c, 0, 76, 0
2, 115557, Note_on_c, 0, 69, 0
2, 115571, Note_on_c, 0, 65, 0
2, 115736, Note_on_c, 0, 48, 74
2, 115975, Control_c, 0, 64, 0
2, 115991, Note_on_c, 0, 72, 0
2, 116019, Note_on_c, 0, 53, 44
2, 116194, Note_on_c, 0, 53, 0
2, 116211, Control_c, 0, 64, 127
2, 116216, Note_on_c, 0, 56, 65
2, 116378, Note_on_c, 0, 56, 0
2, 116387, Note_on_c, 0, 58, 51
2, 116474, Note_on_c, 0, 58, 0
2, 116510, Note_on_c, 0, 60, 58
2, 116581, Control_c, 0, 64, 0
2, 116605, Note_on_c, 0, 60, 0
2, 116641, Note_on_c, 0, 63, 59
2, 116720, Note_on_c, 0, 63, 0
2, 116745, Note_on_c, 0, 48, 0
2, 116780, Note_on_c, 0, 65, 68
2, 116873, Note_on_c, 0, 65, 0
2, 116903, Note_on_c, 0, 68, 52
2, 117039, Note_on_c, 0, 68, 0
2, 117043, Note_on_c, 0, 70, 51
2, 117080, Note_on_c, 0, 70, 0
2, 117157, Note_on_c, 0, 72, 36
2, 117295, Note_on_c, 0, 75, 52
2, 117381, Note_on_c, 0, 75, 0
2, 117459, Note_on_c, 0, 77, 48
2, 117560, Note_on_c, 0, 77, 0
2, 117587, Note_on_c, 0, 80, 53
2, 117715, Note_on_c, 0, 80, 0
2, 117849, Note_on_c, 0, 72, 0
2, 117881, Note_on_c, 0, 84, 60
2, 118025, Note_on_c, 0, 43, 44
2, 118041, Note_on_c, 0, 83, 63
2, 118044, Note_on_c, 0, 84, 0
2, 118063, Control_c, 0, 64, 127
2, 118127, Note_on_c, 0, 43, 0
2, 118454, Note_on_c, 0, 53, 30
2, 118493, Note_on_c, 0, 59, 22
2, 118576, Note_on_c, 0, 64, 1
2, 118702, Note_on_c, 0, 83, 0
2, 118708, Note_on_c, 0, 64, 0
2, 118758, Note_on_c, 0, 53, 0
2, 118761, Note_on_c, 0, 59, 0
2, 119051, Control_c, 0, 64, 0
2, 119083, Note_on_c, 0, 59, 26
2, 119086, Note_on_c, 0, 62, 36
2, 119090, Note_on_c, 0, 55, 30
2, 119095, Note_on_c, 0, 79, 39
2, 119097, Note_on_c, 0, 74, 38
2, 119098, Note_on_c, 0, 52, 22
2, 119157, Note_on_c, 0, 74, 0
2, 119178, Note_on_c, 0, 62, 0
2, 119187, Note_on_c, 0, 79, 0
2, 119190, Note_on_c, 0, 59, 0
2, 119193, Note_on_c, 0, 52, 0
2, 119211, Note_on_c, 0, 55, 0
2, 119576, Note_on_c, 0, 62, 31
2, 119579, Control_c, 0, 64, 127
2, 119586, Note_on_c, 0, 74, 42
2, 119591, Note_on_c, 0, 79, 31
2, 119595, Note_on_c, 0, 55, 31
2, 119598, Note_on_c, 0, 59, 30
2, 119619, Note_on_c, 0, 52, 17
2, 119974, Note_on_c, 0, 79, 0
2, 120000, Note_on_c, 0, 74, 0
2, 120096, Note_on_c, 0, 67, 36
2, 120191, Note_on_c, 0, 67, 0
2, 120332, Note_on_c, 0, 74, 45
2, 120464, Note_on_c, 0, 52, 0
2, 120490, Note_on_c, 0, 55, 0
2, 120501, Note_on_c, 0, 59, 0
2, 120533, Note_on_c, 0, 74, 0
2, 120553, Note_on_c, 0, 62, 0
2, 120560, Note_on_c, 0, 79, 50
2, 120654, Note_on_c, 0, 79, 0
2, 120798, Note_on_c, 0, 84, 72
2, 120924, Note_on_c, 0, 84, 0
2, 121048, Note_on_c, 0, 61, 48
2, 121055, Note_on_c, 0, 65, 54
2, 121056, Note_on_c, 0, 55, 38
2, 121089, Note_on_c, 0, 85, 29
2, 121105, Control_c, 0, 64, 0
2, 121119, Note_on_c, 0, 86, 40
2, 121175, Note_on_c, 0, 86, 0
2, 121289, Note_on_c, 0, 65, 0
2, 121289, Note_on_c, 0, 85, 0
2, 121295, Note_on_c, 0, 55, 0
2, 121317, Note_on_c, 0, 61, 0
2, 121414, Note_on_c, 0, 85, 38
2, 121416, Note_on_c, 0, 55, 28
2, 121419, Note_on_c, 0, 87, 43
2, 121420, Note_on_c, 0, 61, 51
2, 121428, Note_on_c, 0, 65, 39
2, 121581, Note_on_c, 0, 65, 0
2, 121592, Note_on_c, 0, 55, 0
2, 121599, Note_on_c, 0, 87, 0
2, 121610, Note_on_c, 0, 61, 0
2, 121635, Note_on_c, 0, 85, 0
2, 121801, Note_on_c, 0, 85, 50
2, 121804, Note_on_c, 0, 87, 50
2, 121805, Note_on_c, 0, 55, 42
2, 121807, Note_on_c, 0, 61, 46
2, 121816, Note_on_c, 0, 65, 44
2, 121942, Note_on_c, 0, 65, 0
2, 121950, Note_on_c, 0, 55, 0
2, 121962, Note_on_c, 0, 87, 0
2, 121984, Note_on_c, 0, 61, 0
2, 122004, Note_on_c, 0, 85, 0
2, 122069, Note_on_c, 0, 87, 55
2, 122073, Control_c, 0, 64, 127
2, 122079, Note_on_c, 0, 85, 31
2, 122091, Note_on_c, 0, 61, 44
2, 122099, Note_on_c, 0, 65, 40
2, 122100, Note_on_c, 0, 55, 28
2, 122175, Note_on_c, 0, 87, 0
2, 122237, Note_on_c, 0, 85, 0
2, 122436, Note_on_c, 0, 65, 0
2, 122475, Note_on_c, 0, 55, 0
2, 122524, Note_on_c, 0, 61, 0
2, 122949, Control_c, 0, 64, 0
2, 122971, Note_on_c, 0, 64, 55
2, 122977, Note_on_c, 0, 60, 39
2, 122988, Note_on_c, 0, 53, 30
2, 122989, Note_on_c, 0, 57, 47
2, 123196, Control_c, 0, 64, 127
2, 123462, Note_on_c, 0, 88, 90
2, 123466, Note_on_c, 0, 81, 91
2, 123654, Note_on_c, 0, 64, 0
2, 123669, Note_on_c, 0, 60, 0
2, 123727, Note_on_c, 0, 57, 0
2, 123886, Note_on_c, 0, 88, 0
2, 123941, Note_on_c, 0, 84, 41
2, 123943, Note_on_c, 0, 57, 46
2, 123947, Note_on_c, 0, 64, 44
2, 123952, Note_on_c, 0, 60, 36
2, 123975, Note_on_c, 0, 77, 39
2, 124061, Note_on_c, 0, 53, 0
2, 124126, Note_on_c, 0, 84, 0
2, 124164, Note_on_c, 0, 81, 0
2, 124202, Note_on_c, 0, 77, 0
2, 124298, Note_on_c, 0, 64, 0
2, 124435, Note_on_c, 0, 53, 31
2, 124451, Note_on_c, 0, 60, 0
2, 124490, Note_on_c, 0, 57, 0
2, 124564, Note_on_c, 0, 53, 0
2, 124902, Control_c, 0, 64, 0
2, 124904, Note_on_c, 0, 70, 60
2, 124912, Note_on_c, 0, 63, 57
2, 124913, Note_on_c, 0, 59, 50
2, 124940, Note_on_c, 0, 53, 33
2, 125127, Control_c, 0, 64, 127
2, 125392, Note_on_c, 0, 43, 46
2, 125641, Note_on_c, 0, 63, 0
2, 125811, Note_on_c, 0, 59, 0
2, 125853, Note_on_c, 0, 43, 0
2, 125874, Note_on_c, 0, 63, 64
2, 125956, Note_on_c, 0, 53, 0
2, 126332, Note_on_c, 0, 43, 33
2, 126346, Note_on_c, 0, 59, 45
2, 126434, Note_on_c, 0, 59, 0
2, 126472, Note_on_c, 0, 70, 0
2, 126493, Note_on_c, 0, 63, 0
2, 126720, Note_on_c, 0, 43, 0
2, 126816, Note_on_c, 0, 71, 71
2, 126822, Control_c, 0, 64, 0
2, 126826, Note_on_c, 0, 66, 69
2, 126834, Note_on_c, 0, 63, 76
2, 126837, Note_on_c, 0, 52, 50
2, 126839, Note_on_c, 0, 36, 39
2, 126848, Note_on_c, 0, 60, 69
2, 127069, Control_c, 0, 64, 127
2, 127422, Note_on_c, 0, 36, 0
2, 127443, Note_on_c, 0, 60, 0
2, 127485, Note_on_c, 0, 52, 0
2, 127495, Note_on_c, 0, 71, 0
2, 127519, Note_on_c, 0, 66, 0
2, 127523, Note_on_c, 0, 63, 0
2, 127753, Control_c, 0, 64, 0
2, 127806, Note_on_c, 0, 72, 65
2, 127808, Note_on_c, 0, 67, 68
2, 127814, Note_on_c, 0, 64, 79
2, 127825, Note_on_c, 0, 52, 48
2, 127923, Control_c, 0, 64, 127
2, 128018, Note_on_c, 0, 52, 0
2, 128238, Note_on_c, 0, 72, 0
2, 128304, Note_on_c, 0, 67, 0
2, 128328, Note_on_c, 0, 64, 0
2, 128696, Control_c, 0, 64, 0
2, 128733, Note_on_c, 0, 61, 52
2, 128737, Note_on_c, 0, 69, 55
2, 128750, Note_on_c, 0, 45, 38
2, 128751, Note_on_c, 0, 65, 52
2, 128755, Note_on_c, 0, 55, 25
2, 128866, Control_c, 0, 64, 127
2, 128995, Note_on_c, 0, 45, 0
2, 129084, Note_on_c, 0, 55, 0
2, 129090, Note_on_c, 0, 61, 0
2, 129139, Note_on_c, 0, 69, 0
2, 129150, Note_on_c, 0, 65, 0
2, 129672, Note_on_c, 0, 76, 56
2, 129681, Note_on_c, 0, 73, 33
2, 129683, Note_on_c, 0, 61, 39
2, 129685, Note_on_c, 0, 67, 40
2, 129687, Note_on_c, 0, 70, 44
2, 129995, Note_on_c, 0, 61, 0
2, 130176, Note_on_c, 0, 67, 0
2, 130351, Note_on_c, 0, 70, 0
2, 130438, Note_on_c, 0, 73, 0
2, 130501, Note_on_c, 0, 76, 0
2, 130584, Control_c, 0, 64, 0
2, 130595, Note_on_c, 0, 72, 46
2, 130599, Note_on_c, 0, 65, 32
2, 130609, Note_on_c, 0, 69, 33
2, 130611, Note_on_c, 0, 64, 38
2, 130739, Control_c, 0, 64, 127
2, 130755, Note_on_c, 0, 65, 0
2, 130782, Note_on_c, 0, 69, 0
2, 130897, Note_on_c, 0, 72, 0
2, 130998, Control_c, 0, 64, 0
2, 131032, Note_on_c, 0, 64, 0
2, 131059, Note_on_c, 0, 79, 58
2, 131071, Note_on_c, 0, 73, 46
2, 131075, Note_on_c, 0, 70, 43
2, 131076, Note_on_c, 0, 61, 45
2, 131260, Note_on_c, 0, 79, 0
2, 131295, Note_on_c, 0, 70, 0
2, 131330, Note_on_c, 0, 73, 0
2, 131495, Control_c, 0, 64, 127
2, 131519, Note_on_c, 0, 77, 57
2, 131533, Note_on_c, 0, 61, 0
2, 131548, Note_on_c, 0, 69, 33
2, 131552, Note_on_c, 0, 62, 34
2, 131555, Note_on_c, 0, 72, 39
2, 131664, Note_on_c, 0, 77, 0
2, 131701, Note_on_c, 0, 69, 0
2, 131782, Note_on_c, 0, 72, 0
2, 131877, Control_c, 0, 64, 0
2, 131918, Note_on_c, 0, 62, 0
2, 131975, Note_on_c, 0, 76, 46
2, 131996, Note_on_c, 0, 60, 37
2, 131997, Note_on_c, 0, 69, 48
2, 132013, Note_on_c, 0, 65, 26
2, 132067, Note_on_c, 0, 69, 0
2, 132095, Note_on_c, 0, 60, 0
2, 132101, Control_c, 0, 64, 127
2, 132102, Note_on_c, 0, 76, 0
2, 132103, Note_on_c, 0, 65, 0
2, 132270, Control_c, 0, 64, 0
2, 132452, Note_on_c, 0, 72, 37
2, 132461, Note_on_c, 0, 57, 35
2, 132473, Note_on_c, 0, 62, 32
2, 132480, Note_on_c, 0, 65, 37
2, 132494, Control_c, 0, 64, 127
2, 132497, Note_on_c, 0, 69, 28
2, 132687, Note_on_c, 0, 57, 0
2, 132907, Note_on_c, 0, 62, 0
2, 132913, Note_on_c, 0, 69, 0
2, 132926, Note_on_c, 0, 72, 0
2, 132978, Note_on_c, 0, 65, 0
2, 132984, Note_on_c, 0, 50, 32
2, 133415, Control_c, 0, 64, 0
2, 133459, Note_on_c, 0, 71, 39
2, 133461, Note_on_c, 0, 50, 0
2, 133462, Note_on_c, 0, 63, 35
2, 133479, Note_on_c, 0, 53, 30
2, 133486, Note_on_c, 0, 59, 24
2, 133752, Control_c, 0, 64, 127
2, 133824, Note_on_c, 0, 59, 0
2, 133928, Note_on_c, 0, 43, 29
2, 133972, Note_on_c, 0, 63, 0
2, 134003, Note_on_c, 0, 43, 0
2, 134012, Note_on_c, 0, 71, 0
2, 134058, Note_on_c, 0, 53, 0
2, 134358, Control_c, 0, 64, 0
2, 134433, Note_on_c, 0, 76, 30
2, 134457, Note_on_c, 0, 47, 31
2, 134461, Note_on_c, 0, 57, 29
2, 134466, Note_on_c, 0, 69, 36
2, 134471, Note_on_c, 0, 62, 25
2, 134672, Control_c, 0, 64, 127
2, 134979, Note_on_c, 0, 57, 0
2, 134983, Note_on_c, 0, 69, 0
2, 135056, Note_on_c, 0, 62, 0
2, 135309, Note_on_c, 0, 76, 0
2, 135357, Control_c, 0, 64, 0
2, 135386, Note_on_c, 0, 68, 31
2, 135388, Note_on_c, 0, 62, 32
2, 135397, Note_on_c, 0, 56, 35
2, 135401, Control_c, 0, 64, 127
2, 135491, Note_on_c, 0, 62, 0
2, 135553, Note_on_c, 0, 47, 0
2, 135575, Note_on_c, 0, 68, 0
2, 135611, Note_on_c, 0, 56, 0
2, 135872, Note_on_c, 0, 84, 49
2, 136006, Note_on_c, 0, 84, 0
2, 136176, Note_on_c, 0, 73, 50
2, 136267, Control_c, 0, 64, 0
2, 136295, Note_on_c, 0, 60, 28
2, 136296, Note_on_c, 0, 75, 57
2, 136312, Note_on_c, 0, 61, 25
2, 136314, Note_on_c, 0, 73, 0
2, 136327, Note_on_c, 0, 65, 18
2, 136327, Note_on_c, 0, 56, 27
2, 136383, Note_on_c, 0, 75, 0
2, 136410, Note_on_c, 0, 77, 55
2, 136531, Note_on_c, 0, 77, 0
2, 136545, Note_on_c, 0, 79, 44
2, 136639, Note_on_c, 0, 80, 37
2, 136672, Note_on_c, 0, 79, 0
2, 136682, Control_c, 0, 64, 127
2, 136727, Note_on_c, 0, 60, 0
2, 136735, Note_on_c, 0, 82, 51
2, 136751, Note_on_c, 0, 80, 0
2, 136779, Note_on_c, 0, 82, 0
2, 136792, Note_on_c, 0, 65, 0
2, 136851, Note_on_c, 0, 84, 58
2, 136878, Note_on_c, 0, 56, 0
2, 136952, Note_on_c, 0, 84, 0
2, 136980, Note_on_c, 0, 85, 46
2, 137105, Note_on_c, 0, 87, 48
2, 137112, Note_on_c, 0, 85, 0
2, 137156, Note_on_c, 0, 87, 0
2, 137220, Control_c, 0, 64, 0
2, 137236, Note_on_c, 0, 89, 47
2, 137297, Note_on_c, 0, 65, 25
2, 137306, Note_on_c, 0, 55, 20
2, 137354, Note_on_c, 0, 89, 0
2, 137361, Note_on_c, 0, 91, 44
2, 137411, Control_c, 0, 64, 127
2, 137419, Note_on_c, 0, 65, 0
2, 137486, Note_on_c, 0, 91, 0
2, 137490, Note_on_c, 0, 92, 50
2, 137524, Note_on_c, 0, 61, 0
2, 137556, Note_on_c, 0, 55, 0
2, 137644, Note_on_c, 0, 94, 45
2, 137689, Note_on_c, 0, 92, 0
2, 137773, Note_on_c, 0, 94, 0
2, 137784, Note_on_c, 0, 95, 61
2, 137952, Note_on_c, 0, 95, 0
2, 137967, Note_on_c, 0, 96, 57
2, 138090, Note_on_c, 0, 96, 0
2, 138177, Note_on_c, 0, 98, 68
2, 138265, Control_c, 0, 64, 0
2, 138342, Note_on_c, 0, 45, 39
2, 138349, Note_on_c, 0, 95, 62
2, 138352, Note_on_c, 0, 55, 28
2, 138372, Note_on_c, 0, 98, 0
2, 138433, Control_c, 0, 64, 127
2, 138485, Note_on_c, 0, 45, 0
2, 138569, Note_on_c, 0, 55, 0
2, 138793, Note_on_c, 0, 95, 0
2, 139196, Control_c, 0, 64, 0
2, 139205, Note_on_c, 0, 64, 57
2, 139220, Note_on_c, 0, 60, 41
2, 139236, Note_on_c, 0, 54, 43
2, 139366, Control_c, 0, 64, 127
2, 139770, Note_on_c, 0, 60, 0
2, 139807, Note_on_c, 0, 64, 0
2, 139955, Note_on_c, 0, 54, 0
2, 140161, Control_c, 0, 64, 0
2, 140163, Note_on_c, 0, 63, 36
2, 140190, Note_on_c, 0, 54, 28
2, 140203, Note_on_c, 0, 58, 46
2, 140216, Note_on_c, 0, 59, 33
2, 140375, Control_c, 0, 64, 127
2, 140409, Note_on_c, 0, 65, 50
2, 140453, Control_c, 0, 64, 0
2, 140470, Note_on_c, 0, 65, 0
2, 140487, Note_on_c, 0, 66, 29
2, 140577, Note_on_c, 0, 68, 49
2, 140627, Note_on_c, 0, 66, 0
2, 140654, Note_on_c, 0, 63, 0
2, 140663, Note_on_c, 0, 70, 45
2, 140678, Control_c, 0, 64, 127
2, 140685, Note_on_c, 0, 68, 0
2, 140736, Note_on_c, 0, 70, 0
2, 140766, Note_on_c, 0, 71, 52
2, 140813, Note_on_c, 0, 71, 0
2, 140851, Note_on_c, 0, 54, 0
2, 140873, Note_on_c, 0, 73, 36
2, 140945, Note_on_c, 0, 75, 44
2, 140960, Note_on_c, 0, 73, 0
2, 140967, Note_on_c, 0, 59, 0
2, 141027, Control_c, 0, 64, 0
2, 141040, Note_on_c, 0, 75, 0
2, 141093, Note_on_c, 0, 63, 39
2, 141097, Note_on_c, 0, 76, 28
2, 141108, Note_on_c, 0, 77, 25
2, 141133, Note_on_c, 0, 59, 22
2, 141139, Note_on_c, 0, 53, 20
2, 141153, Note_on_c, 0, 76, 0
2, 141158, Note_on_c, 0, 77, 0
2, 141188, Note_on_c, 0, 78, 52
2, 141298, Note_on_c, 0, 80, 57
2, 141321, Note_on_c, 0, 78, 0
2, 141411, Note_on_c, 0, 80, 0
2, 141470, Note_on_c, 0, 81, 26
2, 141539, Note_on_c, 0, 81, 0
2, 141597, Note_on_c, 0, 84, 39
2, 141644, Control_c, 0, 64, 127
2, 141645, Note_on_c, 0, 53, 0
2, 141654, Note_on_c, 0, 84, 0
2, 141666, Note_on_c, 0, 85, 37
2, 141715, Note_on_c, 0, 63, 0
2, 141716, Note_on_c, 0, 59, 0
2, 141740, Note_on_c, 0, 58, 0
2, 141741, Note_on_c, 0, 86, 44
2, 141746, Note_on_c, 0, 85, 0
2, 141867, Note_on_c, 0, 87, 51
2, 141881, Note_on_c, 0, 86, 0
2, 141971, Note_on_c, 0, 87, 0
2, 141973, Note_on_c, 0, 88, 53
2, 142097, Note_on_c, 0, 89, 68
2, 142142, Note_on_c, 0, 88, 0
2, 142150, Control_c, 0, 64, 0
2, 142170, Note_on_c, 0, 67, 40
2, 142188, Note_on_c, 0, 62, 32
2, 142206, Note_on_c, 0, 64, 36
2, 142223, Note_on_c, 0, 88, 72
2, 142261, Note_on_c, 0, 89, 0
2, 142399, Note_on_c, 0, 67, 0
2, 142402, Note_on_c, 0, 88, 0
2, 142491, Note_on_c, 0, 83, 68
2, 142629, Note_on_c, 0, 83, 0
2, 142727, Note_on_c, 0, 79, 46
2, 142826, Note_on_c, 0, 79, 0
2, 142900, Note_on_c, 0, 86, 68
2, 142946, Control_c, 0, 64, 127
2, 143003, Control_c, 0, 64, 0
2, 143066, Note_on_c, 0, 86, 0
2, 143077, Note_on_c, 0, 55, 34
2, 143088, Note_on_c, 0, 83, 57
2, 143213, Note_on_c, 0, 83, 0
2, 143297, Note_on_c, 0, 84, 68
2, 143338, Control_c, 0, 64, 127
2, 143467, Note_on_c, 0, 84, 0
2, 143483, Note_on_c, 0, 62, 0
2, 143494, Note_on_c, 0, 64, 0
2, 143496, Note_on_c, 0, 79, 56
2, 143678, Note_on_c, 0, 79, 0
2, 143725, Note_on_c, 0, 76, 45
2, 143878, Note_on_c, 0, 76, 0
2, 143990, Control_c, 0, 64, 0
2, 143996, Note_on_c, 0, 61, 32
2, 143998, Note_on_c, 0, 79, 53
2, 144008, Note_on_c, 0, 64, 38
2, 144192, Control_c, 0, 64, 127
2, 144494, Note_on_c, 0, 79, 0
2, 144647, Note_on_c, 0, 61, 0
2, 144664, Note_on_c, 0, 64, 0
2, 145023, Control_c, 0, 64, 0
2, 145029, Note_on_c, 0, 61, 42
2, 145039, Note_on_c, 0, 73, 34
2, 145043, Note_on_c, 0, 76, 49
2, 145053, Note_on_c, 0, 69, 30
2, 145054, Note_on_c, 0, 64, 34
2, 145136, Control_c, 0, 64, 127
2, 145151, Note_on_c, 0, 55, 0
2, 145466, Note_on_c, 0, 76, 0
2, 145508, Note_on_c, 0, 55, 36
2, 145540, Note_on_c, 0, 73, 0
2, 145597, Note_on_c, 0, 64, 0
2, 145616, Note_on_c, 0, 69, 0
2, 145680, Note_on_c, 0, 61, 0
2, 145885, Note_on_c, 0, 55, 0
2, 146392, Control_c, 0, 64, 0
2, 146409, Note_on_c, 0, 76, 66
2, 146423, Note_on_c, 0, 69, 62
2, 146425, Note_on_c, 0, 64, 70
2, 146435, Note_on_c, 0, 72, 48
2, 146437, Note_on_c, 0, 65, 62
2, 146737, Note_on_c, 0, 65, 0
2, 146808, Note_on_c, 0, 76, 0
2, 146819, Note_on_c, 0, 69, 0
2, 146831, Control_c, 0, 64, 127
2, 146855, Note_on_c, 0, 72, 0
2, 146861, Note_on_c, 0, 74, 52
2, 146871, Note_on_c, 0, 64, 0
2, 146872, Note_on_c, 0, 69, 27
2, 146874, Note_on_c, 0, 62, 52
2, 146882, Note_on_c, 0, 65, 45
2, 146912, Note_on_c, 0, 62, 0
2, 146948, Note_on_c, 0, 69, 0
2, 146954, Note_on_c, 0, 74, 0
2, 147001, Note_on_c, 0, 65, 0
2, 147334, Note_on_c, 0, 69, 40
2, 147346, Note_on_c, 0, 65, 43
2, 147353, Note_on_c, 0, 60, 42
2, 147367, Note_on_c, 0, 53, 27
2, 147380, Note_on_c, 0, 50, 30
2, 147580, Note_on_c, 0, 69, 0
2, 147635, Note_on_c, 0, 60, 0
2, 147641, Note_on_c, 0, 65, 0
2, 147702, Note_on_c, 0, 53, 0
2, 147761, Control_c, 0, 64, 0
2, 147796, Note_on_c, 0, 50, 0
2, 147818, Note_on_c, 0, 53, 26
2, 147827, Note_on_c, 0, 68, 36
2, 147828, Note_on_c, 0, 63, 39
2, 147835, Note_on_c, 0, 43, 24
2, 147841, Note_on_c, 0, 59, 38
2, 147986, Control_c, 0, 64, 127
2, 148160, Note_on_c, 0, 53, 0
2, 148253, Note_on_c, 0, 59, 0
2, 148312, Note_on_c, 0, 68, 0
2, 148314, Note_on_c, 0, 70, 58
2, 148329, Note_on_c, 0, 59, 15
2, 148341, Note_on_c, 0, 53, 24
2, 148580, Note_on_c, 0, 53, 0
2, 148581, Note_on_c, 0, 59, 0
2, 148585, Note_on_c, 0, 63, 0
2, 148626, Note_on_c, 0, 70, 0
2, 148683, Control_c, 0, 64, 0
2, 148787, Note_on_c, 0, 68, 42
2, 148791, Note_on_c, 0, 63, 44
2, 148793, Note_on_c, 0, 53, 29
2, 148802, Note_on_c, 0, 59, 30
2, 148828, Control_c, 0, 64, 127
2, 149003, Note_on_c, 0, 43, 0
2, 149141, Note_on_c, 0, 68, 0
2, 149245, Note_on_c, 0, 70, 55
2, 149272, Note_on_c, 0, 43, 29
2, 149306, Note_on_c, 0, 59, 0
2, 149344, Note_on_c, 0, 53, 0
2, 149392, Note_on_c, 0, 70, 0
2, 149394, Note_on_c, 0, 43, 0
2, 149515, Note_on_c, 0, 63, 0
2, 149693, Control_c, 0, 64, 0
2, 149710, Note_on_c, 0, 40, 50
2, 149825, Note_on_c, 0, 40, 0
2, 150103, Note_on_c, 0, 56, 51
2, 150120, Note_on_c, 0, 64, 44
2, 150140, Note_on_c, 0, 62, 30
2, 150185, Note_on_c, 0, 62, 0
2, 150191, Note_on_c, 0, 56, 0
2, 150259, Note_on_c, 0, 64, 0
2, 150452, Note_on_c, 0, 56, 46
2, 150458, Note_on_c, 0, 64, 43
2, 150474, Note_on_c, 0, 62, 34
2, 150525, Note_on_c, 0, 62, 0
2, 150549, Note_on_c, 0, 56, 0
2, 150632, Note_on_c, 0, 64, 0
2, 150727, Note_on_c, 0, 46, 60
2, 151605, Note_on_c, 0, 46, 0
2, 151671, Note_on_c, 0, 45, 61
2, 151684, Note_on_c, 0, 33, 51
2, 151943, Note_on_c, 0, 33, 0
2, 152015, Note_on_c, 0, 61, 49
2, 152022, Note_on_c, 0, 63, 48
2, 152023, Note_on_c, 0, 55, 36
2, 152026, Note_on_c, 0, 45, 0
2, 152110, Note_on_c, 0, 55, 0
2, 152138, Note_on_c, 0, 61, 0
2, 152155, Note_on_c, 0, 63, 0
2, 152316, Note_on_c, 0, 63, 47
2, 152317, Note_on_c, 0, 61, 54
2, 152327, Note_on_c, 0, 55, 35
2, 152596, Note_on_c, 0, 55, 0
2, 152630, Note_on_c, 0, 61, 0
2, 152635, Note_on_c, 0, 51, 71
2, 152649, Note_on_c, 0, 63, 0
2, 153120, Note_on_c, 0, 51, 0
2, 153142, Note_on_c, 0, 44, 74
2, 153534, Note_on_c, 0, 44, 0
2, 153576, Note_on_c, 0, 54, 47
2, 153583, Note_on_c, 0, 62, 40
2, 153596, Note_on_c, 0, 60, 42
2, 153800, Note_on_c, 0, 54, 0
2, 153801, Note_on_c, 0, 60, 0
2, 153810, Note_on_c, 0, 62, 0
2, 153898, Note_on_c, 0, 54, 51
2, 153913, Note_on_c, 0, 60, 48
2, 153921, Note_on_c, 0, 62, 48
2, 154016, Note_on_c, 0, 54, 0
2, 154060, Note_on_c, 0, 60, 0
2, 154071, Note_on_c, 0, 62, 0
2, 154208, Note_on_c, 0, 32, 50
2, 154221, Note_on_c, 0, 44, 21
2, 154235, Note_on_c, 0, 46, 31
2, 154452, Note_on_c, 0, 46, 0
2, 154497, Note_on_c, 0, 44, 0
2, 154505, Note_on_c, 0, 32, 0
2, 154576, Note_on_c, 0, 44, 52
2, 154580, Note_on_c, 0, 32, 60
2, 155043, Note_on_c, 0, 32, 0
2, 155047, Note_on_c, 0, 44, 0
2, 155127, Note_on_c, 0, 43, 64
2, 155134, Note_on_c, 0, 31, 71
2, 155238, Control_c, 0, 64, 127
2, 155616, Note_on_c, 0, 31, 0
2, 155697, Note_on_c, 0, 43, 0
2, 156610, Note_on_c, 0, 60, 56
2, 156616, Note_on_c, 0, 84, 65
2, 156754, Note_on_c, 0, 84, 0
2, 156802, Note_on_c, 0, 60, 0
2, 156910, Note_on_c, 0, 64, 62
2, 156918, Note_on_c, 0, 88, 64
2, 156920, Note_on_c, 0, 76, 68
2, 156972, Note_on_c, 0, 76, 0
2, 157006, Note_on_c, 0, 88, 0
2, 157144, Note_on_c, 0, 64, 0
2, 157189, Note_on_c, 0, 67, 62
2, 157212, Note_on_c, 0, 91, 81
2, 157216, Note_on_c, 0, 79, 76
2, 157286, Note_on_c, 0, 67, 0
2, 157297, Note_on_c, 0, 79, 0
2, 157325, Note_on_c, 0, 91, 0
2, 157519, Control_c, 0, 64, 0
2, 157533, Note_on_c, 0, 71, 89
2, 157544, Note_on_c, 0, 95, 66
2, 157547, Note_on_c, 0, 87, 71
2, 157558, Note_on_c, 0, 93, 73
2, 157560, Note_on_c, 0, 83, 79
2, 157569, Note_on_c, 0, 88, 76
2, 157595, Note_on_c, 0, 93, 0
2, 157674, Control_c, 0, 64, 127
2, 157922, Note_on_c, 0, 87, 0
2, 158008, Note_on_c, 0, 88, 0
2, 158009, Note_on_c, 0, 71, 0
2, 158052, Note_on_c, 0, 83, 0
2, 158086, Note_on_c, 0, 95, 0
2, 158523, Note_on_c, 0, 88, 66
2, 158525, Note_on_c, 0, 96, 53
2, 158534, Note_on_c, 0, 84, 59
2, 158535, Note_on_c, 0, 91, 55
2, 158538, Note_on_c, 0, 72, 49
2, 158700, Note_on_c, 0, 96, 0
2, 158765, Note_on_c, 0, 88, 0
2, 158777, Note_on_c, 0, 91, 0
2, 158821, Note_on_c, 0, 84, 0
2, 158894, Note_on_c, 0, 72, 0
2, 159459, Control_c, 0, 64, 0
2, 159479, Note_on_c, 0, 69, 48
2, 159483, Note_on_c, 0, 61, 45
2, 159503, Note_on_c, 0, 65, 40
2, 159507, Note_on_c, 0, 45, 22
2, 159672, Control_c, 0, 64, 127
2, 159815, Note_on_c, 0, 61, 0
2, 159831, Note_on_c, 0, 45, 0
2, 159840, Note_on_c, 0, 65, 0
2, 159873, Note_on_c, 0, 69, 0
2, 160415, Note_on_c, 0, 81, 53
2, 160417, Note_on_c, 0, 73, 34
2, 160418, Note_on_c, 0, 64, 46
2, 160428, Note_on_c, 0, 61, 34
2, 160433, Note_on_c, 0, 77, 50
2, 160443, Note_on_c, 0, 58, 42
2, 160456, Note_on_c, 0, 55, 24
2, 160553, Note_on_c, 0, 64, 0
2, 160575, Note_on_c, 0, 61, 0
2, 160597, Note_on_c, 0, 58, 0
2, 160621, Note_on_c, 0, 55, 0
2, 160648, Note_on_c, 0, 77, 0
2, 160661, Note_on_c, 0, 81, 0
2, 160745, Note_on_c, 0, 73, 0
2, 161323, Control_c, 0, 64, 0
2, 161346, Note_on_c, 0, 53, 28
2, 161349, Note_on_c, 0, 38, 38
2, 161350, Note_on_c, 0, 57, 37
2, 161352, Note_on_c, 0, 60, 39
2, 161361, Note_on_c, 0, 45, 44
2, 161470, Control_c, 0, 64, 127
2, 161571, Note_on_c, 0, 53, 0
2, 161590, Note_on_c, 0, 57, 0
2, 161602, Note_on_c, 0, 38, 0
2, 161609, Note_on_c, 0, 45, 0
2, 161663, Note_on_c, 0, 60, 0
2, 162282, Note_on_c, 0, 64, 49
2, 162292, Note_on_c, 0, 69, 54
2, 162319, Note_on_c, 0, 65, 32
2, 162324, Note_on_c, 0, 60, 32
2, 162331, Note_on_c, 0, 57, 34
2, 162337, Note_on_c, 0, 53, 17
2, 162445, Note_on_c, 0, 64, 0
2, 162459, Note_on_c, 0, 60, 0
2, 162500, Note_on_c, 0, 57, 0
2, 162535, Note_on_c, 0, 69, 0
2, 162554, Note_on_c, 0, 53, 0
2, 162623, Note_on_c, 0, 65, 0
2, 163232, Note_on_c, 0, 68, 38
2, 163246, Note_on_c, 0, 59, 36
2, 163248, Note_on_c, 0, 63, 38
2, 163250, Note_on_c, 0, 43, 29
2, 163252, Note_on_c, 0, 53, 30
2, 163254, Control_c, 0, 64, 0
2, 163479, Control_c, 0, 64, 127
2, 163712, Note_on_c, 0, 59, 0
2, 163792, Note_on_c, 0, 53, 0
2, 163855, Note_on_c, 0, 63, 0
2, 163939, Note_on_c, 0, 68, 0
2, 164217, Note_on_c, 0, 64, 64
2, 164231, Note_on_c, 0, 53, 26
2, 164367, Note_on_c, 0, 43, 0
2, 164390, Note_on_c, 0, 64, 0
2, 164421, Note_on_c, 0, 53, 0
2, 164511, Note_on_c, 0, 67, 68
2, 164651, Note_on_c, 0, 67, 0
2, 164732, Note_on_c, 0, 71, 74
2, 164893, Note_on_c, 0, 71, 0
2, 164949, Note_on_c, 0, 72, 53
2, 165140, Control_c, 0, 64, 0
2, 165177, Note_on_c, 0, 62, 41
2, 165182, Note_on_c, 0, 74, 68
2, 165183, Note_on_c, 0, 69, 66
2, 165331, Control_c, 0, 64, 127
2, 165401, Note_on_c, 0, 72, 0
2, 165684, Note_on_c, 0, 74, 0
2, 165730, Note_on_c, 0, 69, 0
2, 165763, Note_on_c, 0, 62, 0
2, 166089, Note_on_c, 0, 56, 46
2, 166093, Note_on_c, 0, 76, 43
2, 166095, Control_c, 0, 64, 0
2, 166103, Note_on_c, 0, 68, 37
2, 166218, Control_c, 0, 64, 127
2, 166517, Note_on_c, 0, 68, 0
2, 166943, Note_on_c, 0, 76, 0
2, 167018, Note_on_c, 0, 72, 36
2, 167022, Note_on_c, 0, 61, 25
2, 167042, Note_on_c, 0, 60, 24
2, 167049, Control_c, 0, 64, 0
2, 167170, Note_on_c, 0, 69, 40
2, 167245, Note_on_c, 0, 69, 0
2, 167287, Note_on_c, 0, 70, 46
2, 167329, Note_on_c, 0, 70, 0
2, 167506, Note_on_c, 0, 73, 43
2, 167572, Note_on_c, 0, 60, 0
2, 167590, Note_on_c, 0, 73, 0
2, 167631, Note_on_c, 0, 75, 25
2, 167671, Note_on_c, 0, 75, 0
2, 167702, Note_on_c, 0, 76, 34
2, 167763, Note_on_c, 0, 61, 0
2, 167783, Note_on_c, 0, 72, 0
2, 167814, Note_on_c, 0, 76, 0
2, 167820, Note_on_c, 0, 77, 50
2, 167848, Note_on_c, 0, 56, 0
2, 167929, Note_on_c, 0, 77, 0
2, 167950, Note_on_c, 0, 78, 57
2, 167974, Note_on_c, 0, 61, 29
2, 167992, Note_on_c, 0, 55, 25
2, 167999, Note_on_c, 0, 65, 24
2, 168034, Note_on_c, 0, 78, 0
2, 168082, Note_on_c, 0, 79, 41
2, 168143, Note_on_c, 0, 79, 0
2, 168251, Note_on_c, 0, 80, 45
2, 168301, Note_on_c, 0, 80, 0
2, 168379, Note_on_c, 0, 81, 51
2, 168434, Note_on_c, 0, 65, 0
2, 168459, Note_on_c, 0, 81, 0
2, 168518, Note_on_c, 0, 82, 44
2, 168524, Note_on_c, 0, 55, 0
2, 168568, Note_on_c, 0, 61, 0
2, 168650, Note_on_c, 0, 82, 0
2, 168679, Note_on_c, 0, 83, 30
2, 168703, Note_on_c, 0, 84, 50
2, 168725, Note_on_c, 0, 83, 0
2, 168823, Note_on_c, 0, 84, 0
2, 168852, Note_on_c, 0, 86, 66
2, 168939, Note_on_c, 0, 64, 40
2, 168949, Note_on_c, 0, 57, 44
2, 168977, Note_on_c, 0, 60, 36
2, 168986, Note_on_c, 0, 84, 62
2, 168987, Note_on_c, 0, 86, 0
2, 169105, Note_on_c, 0, 84, 0
2, 169186, Note_on_c, 0, 80, 36
2, 169267, Note_on_c, 0, 80, 0
2, 169329, Note_on_c, 0, 83, 66
2, 169463, Note_on_c, 0, 64, 0
2, 169477, Note_on_c, 0, 83, 0
2, 169499, Note_on_c, 0, 80, 35
2, 169526, Note_on_c, 0, 57, 0
2, 169585, Note_on_c, 0, 80, 0
2, 169634, Note_on_c, 0, 81, 57
2, 169649, Note_on_c, 0, 60, 0
2, 169746, Note_on_c, 0, 81, 0
2, 169812, Note_on_c, 0, 76, 55
2, 169919, Note_on_c, 0, 76, 0
2, 169990, Control_c, 0, 64, 127
2, 169992, Note_on_c, 0, 64, 51
2, 169993, Note_on_c, 0, 60, 41
2, 170013, Note_on_c, 0, 54, 37
2, 170388, Note_on_c, 0, 60, 0
2, 170401, Note_on_c, 0, 64, 0
2, 170552, Note_on_c, 0, 54, 0
2, 170832, Control_c, 0, 64, 0
2, 170859, Note_on_c, 0, 63, 60
2, 170861, Note_on_c, 0, 82, 83
2, 170867, Note_on_c, 0, 59, 52
2, 170885, Note_on_c, 0, 53, 36
2, 171022, Control_c, 0, 64, 127
2, 171228, Note_on_c, 0, 78, 69
2, 171356, Note_on_c, 0, 63, 0
2, 171358, Note_on_c, 0, 59, 0
2, 171374, Note_on_c, 0, 53, 0
2, 171488, Note_on_c, 0, 82, 0
2, 171499, Note_on_c, 0, 76, 64
2, 171514, Note_on_c, 0, 78, 0
2, 171670, Note_on_c, 0, 76, 0
2, 171799, Control_c, 0, 64, 0
2, 171814, Note_on_c, 0, 49, 36
2, 171816, Note_on_c, 0, 75, 63
2, 171824, Note_on_c, 0, 59, 30
2, 171835, Note_on_c, 0, 71, 43
2, 171841, Note_on_c, 0, 56, 34
2, 171890, Note_on_c, 0, 56, 0
2, 171905, Note_on_c, 0, 59, 0
2, 171943, Control_c, 0, 64, 127
2, 171947, Note_on_c, 0, 49, 0
2, 172076, Note_on_c, 0, 71, 0
2, 172143, Note_on_c, 0, 80, 53
2, 172322, Note_on_c, 0, 75, 0
2, 172361, Note_on_c, 0, 80, 0
2, 172451, Note_on_c, 0, 82, 67
2, 172479, Note_on_c, 0, 75, 47
2, 172619, Note_on_c, 0, 75, 0
2, 172655, Note_on_c, 0, 82, 0
2, 172740, Control_c, 0, 64, 0
2, 172800, Note_on_c, 0, 43, 32
2, 172805, Note_on_c, 0, 83, 59
2, 172810, Note_on_c, 0, 36, 38
2, 172812, Note_on_c, 0, 71, 50
2, 172813, Note_on_c, 0, 52, 38
2, 172843, Note_on_c, 0, 76, 50
2, 172910, Control_c, 0, 64, 127
2, 173020, Note_on_c, 0, 36, 0
2, 173089, Note_on_c, 0, 43, 0
2, 173207, Note_on_c, 0, 52, 0
2, 173284, Note_on_c, 0, 83, 0
2, 173287, Note_on_c, 0, 71, 0
2, 173390, Note_on_c, 0, 76, 0
2, 173807, Control_c, 0, 64, 0
2, 173813, Note_on_c, 0, 84, 58
2, 173816, Note_on_c, 0, 62, 49
2, 173817, Note_on_c, 0, 76, 65
2, 173822, Note_on_c, 0, 57, 54
2, 173837, Note_on_c, 0, 72, 47
2, 173839, Note_on_c, 0, 79, 53
2, 173843, Note_on_c, 0, 52, 31
2, 173920, Control_c, 0, 64, 127
2, 173955, Note_on_c, 0, 62, 0
2, 173963, Note_on_c, 0, 84, 0
2, 173976, Note_on_c, 0, 79, 0
2, 173990, Note_on_c, 0, 57, 0
2, 174005, Note_on_c, 0, 76, 0
2, 174013, Note_on_c, 0, 52, 0
2, 174256, Control_c, 0, 64, 0
2, 174299, Note_on_c, 0, 56, 64
2, 174307, Note_on_c, 0, 46, 61
2, 174358, Control_c, 0, 64, 127
2, 174391, Note_on_c, 0, 72, 0
2, 174676, Note_on_c, 0, 46, 0
2, 174683, Note_on_c, 0, 56, 0
2, 174727, Control_c, 0, 64, 0
2, 174796, Note_on_c, 0, 55, 56
2, 174799, Note_on_c, 0, 67, 60
2, 174805, Note_on_c, 0, 45, 61
2, 174806, Note_on_c, 0, 64, 67
2, 174816, Note_on_c, 0, 60, 55
2, 174874, Control_c, 0, 64, 127
2, 175221, Note_on_c, 0, 55, 0
2, 175247, Note_on_c, 0, 45, 0
2, 175276, Note_on_c, 0, 52, 68
2, 175434, Note_on_c, 0, 64, 0
2, 175511, Note_on_c, 0, 60, 0
2, 175536, Note_on_c, 0, 67, 0
2, 175734, Note_on_c, 0, 64, 82
2, 175740, Note_on_c, 0, 60, 71
2, 175749, Control_c, 0, 64, 0
2, 175760, Note_on_c, 0, 55, 53
2, 175906, Control_c, 0, 64, 127
2, 176003, Note_on_c, 0, 60, 0
2, 176019, Note_on_c, 0, 64, 0
2, 176094, Note_on_c, 0, 64, 78
2, 176104, Note_on_c, 0, 60, 55
2, 176279, Note_on_c, 0, 60, 0
2, 176332, Note_on_c, 0, 55, 0
2, 176349, Note_on_c, 0, 64, 0
2, 176395, Note_on_c, 0, 65, 68
2, 176551, Note_on_c, 0, 52, 0
2, 176651, Note_on_c, 0, 65, 0
2, 176703, Control_c, 0, 64, 0
2, 176733, Note_on_c, 0, 64, 76
2, 176735, Note_on_c, 0, 57, 64
2, 176737, Note_on_c, 0, 67, 64
2, 176746, Note_on_c, 0, 60, 68
2, 177215, Note_on_c, 0, 50, 60
2, 177323, Control_c, 0, 64, 127
2, 177460, Note_on_c, 0, 64, 0
2, 177462, Note_on_c, 0, 60, 0
2, 177466, Note_on_c, 0, 57, 0
2, 177621, Note_on_c, 0, 67, 0
2, 177667, Note_on_c, 0, 50, 0
2, 177742, Note_on_c, 0, 67, 42
2, 177750, Control_c, 0, 64, 0
2, 177756, Note_on_c, 0, 63, 61
2, 177757, Note_on_c, 0, 60, 55
2, 177787, Note_on_c, 0, 57, 34
2, 177851, Control_c, 0, 64, 127
2, 177859, Note_on_c, 0, 57, 0
2, 178214, Note_on_c, 0, 44, 46
2, 178319, Note_on_c, 0, 60, 0
2, 178513, Note_on_c, 0, 44, 0
2, 178558, Note_on_c, 0, 63, 0
2, 178598, Note_on_c, 0, 67, 0
2, 178648, Control_c, 0, 64, 0
2, 178720, Note_on_c, 0, 67, 35
2, 178725, Note_on_c, 0, 63, 46
2, 178734, Note_on_c, 0, 43, 31
2, 178736, Note_on_c, 0, 53, 32
2, 178738, Note_on_c, 0, 59, 38
2, 178807, Control_c, 0, 64, 127
2, 179211, Note_on_c, 0, 53, 0
2, 179385, Note_on_c, 0, 59, 0
2, 179394, Note_on_c, 0, 63, 0
2, 179446, Note_on_c, 0, 67, 0
2, 179637, Note_on_c, 0, 63, 42
2, 179642, Note_on_c, 0, 53, 24
2, 179653, Note_on_c, 0, 59, 26
2, 179654, Note_on_c, 0, 67, 30
2, 179748, Note_on_c, 0, 43, 0
2, 179848, Note_on_c, 0, 53, 0
2, 180039, Note_on_c, 0, 67, 0
2, 180200, Note_on_c, 0, 59, 0
2, 180211, Note_on_c, 0, 43, 19
2, 180327, Note_on_c, 0, 63, 0
2, 180537, Control_c, 0, 64, 0
2, 180577, Note_on_c, 0, 67, 36
2, 180583, Note_on_c, 0, 36, 27
2, 180591, Note_on_c, 0, 57, 35
2, 180593, Note_on_c, 0, 62, 37
2, 180603, Note_on_c, 0, 52, 36
2, 180731, Control_c, 0, 64, 127
2, 181242, Note_on_c, 0, 62, 0
2, 181246, Note_on_c, 0, 57, 0
2, 181321, Note_on_c, 0, 67, 0
2, 181321, Note_on_c, 0, 52, 0
2, 181462, Note_on_c, 0, 36, 0
2, 181519, Note_on_c, 0, 67, 41
2, 181526, Note_on_c, 0, 62, 46
2, 181532, Note_on_c, 0, 57, 51
2, 181540, Note_on_c, 0, 43, 0
2, 181665, Note_on_c, 0, 57, 0
2, 181681, Note_on_c, 0, 67, 0
2, 181739, Note_on_c, 0, 62, 0
2, 181976, Control_c, 0, 64, 0
2, 182006, Note_on_c, 0, 66, 73
2, 182014, Note_on_c, 0, 47, 64
2, 182019, Note_on_c, 0, 61, 70
2, 182020, Note_on_c, 0, 56, 70
2, 182167, Control_c, 0, 64, 127
2, 182304, Note_on_c, 0, 66, 0
2, 182313, Note_on_c, 0, 47, 0
2, 182349, Note_on_c, 0, 56, 0
2, 182390, Note_on_c, 0, 61, 0
2, 182415, Control_c, 0, 64, 0
2, 182468, Note_on_c, 0, 46, 60
2, 182479, Note_on_c, 0, 65, 60
2, 182481, Note_on_c, 0, 60, 59
2, 182481, Note_on_c, 0, 55, 53
2, 182609, Control_c, 0, 64, 127
2, 182831, Note_on_c, 0, 65, 0
2, 182839, Note_on_c, 0, 55, 0
2, 182872, Note_on_c, 0, 60, 0
2, 182874, Note_on_c, 0, 46, 0
2, 182974, Note_on_c, 0, 65, 56
2, 182976, Note_on_c, 0, 60, 52
2, 182977, Note_on_c, 0, 46, 59
2, 182988, Note_on_c, 0, 55, 43
2, 183124, Note_on_c, 0, 65, 0
2, 183151, Note_on_c, 0, 55, 0
2, 183206, Note_on_c, 0, 60, 0
2, 183279, Note_on_c, 0, 46, 0
2, 183360, Control_c, 0, 64, 0
2, 183407, Note_on_c, 0, 66, 57
2, 183414, Note_on_c, 0, 61, 43
2, 183419, Note_on_c, 0, 47, 54
2, 183419, Note_on_c, 0, 56, 52
2, 183539, Control_c, 0, 64, 127
2, 183693, Note_on_c, 0, 66, 0
2, 183753, Note_on_c, 0, 56, 0
2, 183780, Note_on_c, 0, 47, 0
2, 183791, Note_on_c, 0, 61, 0
2, 183918, Note_on_c, 0, 61, 50
2, 183929, Note_on_c, 0, 66, 46
2, 183930, Note_on_c, 0, 47, 41
2, 183931, Note_on_c, 0, 56, 45
2, 184130, Note_on_c, 0, 47, 0
2, 184166, Note_on_c, 0, 66, 0
2, 184177, Note_on_c, 0, 56, 0
2, 184209, Note_on_c, 0, 61, 0
2, 184281, Control_c, 0, 64, 0
2, 184346, Note_on_c, 0, 67, 46
2, 184359, Note_on_c, 0, 57, 51
2, 184360, Note_on_c, 0, 48, 55
2, 184369, Note_on_c, 0, 62, 43
2, 184460, Control_c, 0, 64, 127
2, 184586, Note_on_c, 0, 62, 0
2, 184596, Note_on_c, 0, 67, 0
2, 184673, Note_on_c, 0, 48, 0
2, 184711, Note_on_c, 0, 57, 0
2, 185234, Control_c, 0, 64, 0
2, 185331, Note_on_c, 0, 60, 56
2, 185344, Note_on_c, 0, 45, 65
2, 185345, Note_on_c, 0, 55, 44
2, 185358, Note_on_c, 0, 52, 53
2, 185415, Control_c, 0, 64, 127
2, 185554, Note_on_c, 0, 60, 0
2, 185614, Note_on_c, 0, 55, 0
2, 185683, Note_on_c, 0, 52, 0
2, 185785, Control_c, 0, 64, 0
2, 185802, Note_on_c, 0, 62, 66
2, 185810, Note_on_c, 0, 56, 79
2, 185830, Note_on_c, 0, 52, 53
2, 185832, Note_on_c, 0, 53, 53
2, 185834, Note_on_c, 0, 47, 72
2, 185865, Note_on_c, 0, 45, 0
2, 185942, Control_c, 0, 64, 127
2, 185983, Note_on_c, 0, 52, 0
2, 186017, Note_on_c, 0, 62, 0
2, 186064, Note_on_c, 0, 53, 0
2, 186157, Note_on_c, 0, 56, 0
2, 186257, Control_c, 0, 64, 0
2, 186283, Note_on_c, 0, 64, 65
2, 186291, Note_on_c, 0, 57, 71
2, 186301, Note_on_c, 0, 60, 54
2, 186303, Note_on_c, 0, 55, 61
2, 186314, Note_on_c, 0, 48, 70
2, 186328, Note_on_c, 0, 47, 0
2, 186469, Control_c, 0, 64, 127
2, 186472, Note_on_c, 0, 55, 0
2, 186482, Note_on_c, 0, 64, 0
2, 186482, Note_on_c, 0, 57, 0
2, 186485, Note_on_c, 0, 60, 0
2, 186650, Control_c, 0, 64, 0
2, 186740, Note_on_c, 0, 65, 65
2, 186753, Note_on_c, 0, 59, 66
2, 186754, Note_on_c, 0, 50, 61
2, 186759, Note_on_c, 0, 56, 71
2, 186768, Note_on_c, 0, 62, 48
2, 186809, Note_on_c, 0, 48, 0
2, 186819, Control_c, 0, 64, 127
2, 186896, Note_on_c, 0, 56, 0
2, 186923, Note_on_c, 0, 65, 0
2, 186931, Note_on_c, 0, 62, 0
2, 186935, Note_on_c, 0, 59, 0
2, 187199, Note_on_c, 0, 67, 64
2, 187210, Note_on_c, 0, 60, 64
2, 187224, Note_on_c, 0, 52, 49
2, 187234, Note_on_c, 0, 57, 43
2, 187241, Note_on_c, 0, 59, 36
2, 187251, Note_on_c, 0, 64, 30
2, 187253, Note_on_c, 0, 63, 18
2, 187255, Note_on_c, 0, 50, 0
2, 187304, Note_on_c, 0, 57, 0
2, 187336, Note_on_c, 0, 60, 0
2, 187343, Note_on_c, 0, 59, 0
2, 187356, Note_on_c, 0, 67, 0
2, 187368, Note_on_c, 0, 63, 0
2, 187369, Note_on_c, 0, 64, 0
2, 187433, Note_on_c, 0, 52, 0
2, 187650, Note_on_c, 0, 61, 60
2, 187654, Note_on_c, 0, 68, 62
2, 187668, Note_on_c, 0, 60, 59
2, 187679, Note_on_c, 0, 52, 40
2, 187682, Note_on_c, 0, 63, 31
2, 187764, Note_on_c, 0, 52, 0
2, 187773, Note_on_c, 0, 60, 0
2, 187837, Note_on_c, 0, 63, 0
2, 187882, Note_on_c, 0, 61, 0
2, 187884, Note_on_c, 0, 68, 0
2, 188064, Control_c, 0, 64, 0
2, 188135, Note_on_c, 0, 69, 54
2, 188136, Note_on_c, 0, 62, 62
2, 188140, Note_on_c, 0, 66, 51
2, 188148, Note_on_c, 0, 52, 55
2, 188221, Control_c, 0, 64, 127
2, 188303, Note_on_c, 0, 62, 0
2, 188349, Note_on_c, 0, 66, 0
2, 188357, Note_on_c, 0, 69, 0
2, 188641, Note_on_c, 0, 74, 64
2, 188648, Note_on_c, 0, 81, 63
2, 188672, Note_on_c, 0, 59, 33
2, 188855, Note_on_c, 0, 74, 0
2, 188995, Note_on_c, 0, 81, 0
2, 189122, Note_on_c, 0, 69, 34
2, 189128, Note_on_c, 0, 78, 34
2, 189131, Note_on_c, 0, 62, 34
2, 189137, Note_on_c, 0, 74, 36
2, 189439, Note_on_c, 0, 52, 0
2, 189481, Note_on_c, 0, 69, 0
2, 189493, Note_on_c, 0, 59, 0
2, 189499, Note_on_c, 0, 74, 0
2, 189556, Note_on_c, 0, 62, 0
2, 189565, Note_on_c, 0, 78, 0
2, 189605, Note_on_c, 0, 81, 50
2, 189614, Note_on_c, 0, 78, 25
2, 189617, Note_on_c, 0, 74, 42
2, 189712, Note_on_c, 0, 74, 0
2, 189750, Note_on_c, 0, 81, 0
2, 189759, Note_on_c, 0, 78, 0
2, 190043, Control_c, 0, 64, 0
2, 190069, Note_on_c, 0, 61, 38
2, 190072, Note_on_c, 0, 84, 45
2, 190084, Note_on_c, 0, 66, 35
2, 190086, Note_on_c, 0, 77, 48
2, 190099, Note_on_c, 0, 73, 33
2, 190102, Note_on_c, 0, 55, 24
2, 190279, Control_c, 0, 64, 127
2, 190402, Note_on_c, 0, 77, 0
2, 190419, Note_on_c, 0, 73, 0
2, 190554, Note_on_c, 0, 84, 0
2, 190572, Note_on_c, 0, 66, 0
2, 190594, Note_on_c, 0, 73, 34
2, 190610, Note_on_c, 0, 81, 41
2, 190622, Note_on_c, 0, 77, 36
2, 190797, Note_on_c, 0, 77, 0
2, 190852, Note_on_c, 0, 61, 0
2, 190859, Note_on_c, 0, 73, 0
2, 190881, Note_on_c, 0, 81, 0
2, 191079, Note_on_c, 0, 61, 34
2, 191084, Note_on_c, 0, 81, 40
2, 191091, Note_on_c, 0, 73, 25
2, 191107, Note_on_c, 0, 77, 35
2, 191142, Note_on_c, 0, 65, 18
2, 191219, Note_on_c, 0, 65, 0
2, 191256, Note_on_c, 0, 55, 0
2, 191283, Note_on_c, 0, 61, 0
2, 191345, Note_on_c, 0, 73, 0
2, 191507, Note_on_c, 0, 81, 0
2, 191584, Note_on_c, 0, 77, 0
2, 192057, Note_on_c, 0, 62, 34
2, 192087, Note_on_c, 0, 52, 24
2, 192090, Note_on_c, 0, 55, 31
2, 192093, Note_on_c, 0, 59, 29
2, 192141, Control_c, 0, 64, 0
2, 192364, Note_on_c, 0, 69, 28
2, 192466, Note_on_c, 0, 69, 0
2, 192467, Note_on_c, 0, 74, 43
2, 192577, Note_on_c, 0, 78, 47
2, 192580, Note_on_c, 0, 74, 0
2, 192652, Note_on_c, 0, 78, 0
2, 192664, Note_on_c, 0, 62, 0
2, 192735, Note_on_c, 0, 81, 59
2, 192787, Note_on_c, 0, 59, 0
2, 192820, Note_on_c, 0, 81, 0
2, 192833, Note_on_c, 0, 86, 54
2, 192834, Note_on_c, 0, 55, 0
2, 192915, Note_on_c, 0, 86, 0
2, 192924, Note_on_c, 0, 90, 47
2, 192961, Note_on_c, 0, 90, 0
2, 193065, Note_on_c, 0, 93, 60
2, 193104, Note_on_c, 0, 62, 20
2, 193108, Note_on_c, 0, 59, 19
2, 193136, Note_on_c, 0, 93, 0
2, 193139, Note_on_c, 0, 55, 15
2, 193178, Note_on_c, 0, 98, 36
2, 193270, Note_on_c, 0, 102, 47
2, 193286, Note_on_c, 0, 98, 0
2, 193411, Note_on_c, 0, 102, 0
2, 193431, Note_on_c, 0, 103, 67
2, 193516, Note_on_c, 0, 102, 44
2, 193565, Note_on_c, 0, 103, 0
2, 193630, Note_on_c, 0, 52, 0
2, 193639, Note_on_c, 0, 55, 0
2, 193639, Note_on_c, 0, 59, 0
2, 193649, Note_on_c, 0, 102, 0
2, 193716, Note_on_c, 0, 62, 0
2, 193828, Note_on_c, 0, 98, 55
2, 193919, Note_on_c, 0, 98, 0
2, 194079, Note_on_c, 0, 97, 55
2, 194092, Note_on_c, 0, 61, 38
2, 194093, Note_on_c, 0, 66, 36
2, 194125, Note_on_c, 0, 55, 17
2, 194266, Note_on_c, 0, 97, 0
2, 194302, Note_on_c, 0, 100, 64
2, 194439, Note_on_c, 0, 100, 0
2, 194499, Control_c, 0, 64, 127
2, 194539, Note_on_c, 0, 97, 59
2, 194639, Note_on_c, 0, 66, 0
2, 194705, Note_on_c, 0, 97, 0
2, 194806, Note_on_c, 0, 55, 0
2, 194847, Note_on_c, 0, 61, 0
2, 194924, Note_on_c, 0, 94, 60
2, 194931, Note_on_c, 0, 61, 28
2, 194941, Note_on_c, 0, 64, 43
2, 194941, Note_on_c, 0, 55, 25
2, 194970, Control_c, 0, 64, 0
2, 195096, Note_on_c, 0, 94, 0
2, 195127, Control_c, 0, 64, 127
2, 195154, Note_on_c, 0, 97, 56
2, 195348, Note_on_c, 0, 97, 0
2, 195366, Note_on_c, 0, 94, 59
2, 195375, Note_on_c, 0, 55, 0
2, 195482, Note_on_c, 0, 64, 0
2, 195620, Note_on_c, 0, 89, 39
2, 195638, Note_on_c, 0, 94, 0
2, 195718, Note_on_c, 0, 89, 0
2, 195719, Note_on_c, 0, 61, 0
2, 195812, Control_c, 0, 64, 0
2, 195834, Note_on_c, 0, 61, 10
2, 195846, Note_on_c, 0, 64, 32
2, 195849, Note_on_c, 0, 54, 37
2, 195865, Note_on_c, 0, 59, 40
2, 195887, Note_on_c, 0, 93, 60
2, 195926, Control_c, 0, 64, 127
2, 196104, Note_on_c, 0, 93, 0
2, 196111, Note_on_c, 0, 59, 0
2, 196117, Note_on_c, 0, 64, 0
2, 196132, Note_on_c, 0, 61, 0
2, 196170, Note_on_c, 0, 86, 50
2, 196184, Note_on_c, 0, 54, 0
2, 196301, Note_on_c, 0, 86, 0
2, 196449, Note_on_c, 0, 86, 57
2, 196557, Note_on_c, 0, 86, 0
2, 196706, Note_on_c, 0, 86, 70
2, 196750, Note_on_c, 0, 54, 37
2, 196753, Note_on_c, 0, 57, 33
2, 196761, Note_on_c, 0, 50, 24
2, 196854, Note_on_c, 0, 86, 0
2, 196860, Note_on_c, 0, 57, 0
2, 196894, Note_on_c, 0, 50, 0
2, 196897, Note_on_c, 0, 54, 0
2, 196979, Note_on_c, 0, 86, 73
2, 197102, Note_on_c, 0, 86, 0
2, 197217, Note_on_c, 0, 86, 61
2, 197335, Note_on_c, 0, 88, 59
2, 197345, Note_on_c, 0, 86, 0
2, 197432, Note_on_c, 0, 86, 45
2, 197470, Note_on_c, 0, 88, 0
2, 197550, Note_on_c, 0, 85, 53
2, 197553, Note_on_c, 0, 86, 0
2, 197676, Note_on_c, 0, 85, 0
2, 197706, Note_on_c, 0, 86, 59
2, 197721, Control_c, 0, 64, 0
2, 197785, Note_on_c, 0, 50, 35
2, 197798, Note_on_c, 0, 43, 30
2, 197806, Note_on_c, 0, 86, 0
2, 197853, Note_on_c, 0, 91, 70
2, 197856, Control_c, 0, 64, 127
2, 198070, Note_on_c, 0, 91, 0
2, 198125, Note_on_c, 0, 79, 52
2, 198192, Note_on_c, 0, 79, 0
2, 198771, Note_on_c, 0, 62, 42
2, 198771, Note_on_c, 0, 55, 40
2, 198805, Note_on_c, 0, 59, 51
2, 199019, Note_on_c, 0, 55, 0
2, 199021, Note_on_c, 0, 43, 0
2, 199283, Note_on_c, 0, 43, 37
2, 199306, Note_on_c, 0, 50, 0
2, 199312, Note_on_c, 0, 59, 0
2, 199438, Note_on_c, 0, 43, 0
2, 199477, Note_on_c, 0, 62, 0
2, 199642, Control_c, 0, 64, 0
2, 199723, Note_on_c, 0, 61, 33
2, 199750, Note_on_c, 0, 57, 49
2, 199757, Note_on_c, 0, 42, 45
2, 199776, Control_c, 0, 64, 127
2, 199778, Note_on_c, 0, 52, 28
2, 199880, Note_on_c, 0, 57, 0
2, 199950, Note_on_c, 0, 61, 0
2, 199951, Note_on_c, 0, 42, 0
2, 199980, Note_on_c, 0, 52, 0
2, 200708, Note_on_c, 0, 76, 70
2, 200717, Note_on_c, 0, 69, 75
2, 200726, Note_on_c, 0, 64, 75
2, 200734, Note_on_c, 0, 54, 62
2, 200735, Note_on_c, 0, 60, 53
2, 201362, Note_on_c, 0, 64, 0
2, 201426, Note_on_c, 0, 69, 0
2, 201461, Note_on_c, 0, 76, 0
2, 201472, Note_on_c, 0, 60, 0
2, 201502, Note_on_c, 0, 54, 0
2, 201699, Note_on_c, 0, 76, 66
2, 201703, Note_on_c, 0, 54, 60
2, 201707, Note_on_c, 0, 69, 68
2, 201725, Note_on_c, 0, 64, 68
2, 201989, Note_on_c, 0, 54, 0
2, 202012, Note_on_c, 0, 76, 0
2, 202016, Note_on_c, 0, 69, 0
2, 202032, Note_on_c, 0, 64, 0
2, 202366, Note_on_c, 0, 74, 68
2, 202368, Note_on_c, 0, 71, 67
2, 202371, Note_on_c, 0, 52, 56
2, 202382, Note_on_c, 0, 62, 51
2, 202383, Note_on_c, 0, 67, 66
2, 202622, Note_on_c, 0, 62, 0
2, 202647, Note_on_c, 0, 67, 0
2, 202649, Note_on_c, 0, 71, 0
2, 202677, Note_on_c, 0, 52, 0
2, 202687, Note_on_c, 0, 74, 0
2, 202984, Note_on_c, 0, 73, 48
2, 202988, Note_on_c, 0, 51, 57
2, 202993, Note_on_c, 0, 66, 62
2, 202998, Note_on_c, 0, 63, 50
2, 203008, Note_on_c, 0, 70, 48
2, 203021, Note_on_c, 0, 58, 38
2, 203178, Note_on_c, 0, 63, 0
2, 203245, Note_on_c, 0, 58, 0
2, 203288, Note_on_c, 0, 66, 0
2, 203294, Note_on_c, 0, 73, 0
2, 203315, Note_on_c, 0, 51, 0
2, 203391, Note_on_c, 0, 70, 0
2, 203391, Control_c, 0, 64, 0
2, 203483, Note_on_c, 0, 50, 53
2, 203486, Note_on_c, 0, 72, 26
2, 203492, Note_on_c, 0, 65, 57
2, 203503, Note_on_c, 0, 69, 36
2, 203506, Note_on_c, 0, 60, 44
2, 203571, Control_c, 0, 64, 127
2, 203626, Note_on_c, 0, 60, 0
2, 203669, Note_on_c, 0, 65, 0
2, 203713, Note_on_c, 0, 69, 0
2, 203908, Note_on_c, 0, 81, 77
2, 203911, Note_on_c, 0, 57, 57
2, 203931, Note_on_c, 0, 77, 54
2, 203973, Note_on_c, 0, 72, 0
2, 203974, Note_on_c, 0, 50, 0
2, 204021, Note_on_c, 0, 57, 0
2, 204096, Note_on_c, 0, 81, 0
2, 204113, Note_on_c, 0, 77, 0
2, 204239, Note_on_c, 0, 69, 41
2, 204251, Note_on_c, 0, 64, 36
2, 204293, Note_on_c, 0, 69, 0
2, 204371, Note_on_c, 0, 64, 0
2, 204522, Note_on_c, 0, 81, 58
2, 204538, Note_on_c, 0, 77, 52
2, 204559, Note_on_c, 0, 69, 44
2, 204565, Note_on_c, 0, 64, 41
2, 204677, Note_on_c, 0, 77, 0
2, 204685, Note_on_c, 0, 81, 0
2, 204746, Note_on_c, 0, 69, 0
2, 204819, Note_on_c, 0, 64, 0
2, 204840, Note_on_c, 0, 60, 37
2, 205040, Note_on_c, 0, 60, 0
2, 205132, Note_on_c, 0, 57, 59
2, 205215, Note_on_c, 0, 57, 0
2, 205479, Note_on_c, 0, 64, 54
2, 205481, Note_on_c, 0, 69, 51
2, 205490, Control_c, 0, 64, 0
2, 205491, Note_on_c, 0, 59, 52
2, 205498, Note_on_c, 0, 53, 42
2, 205509, Note_on_c, 0, 43, 30
2, 205663, Note_on_c, 0, 53, 0
2, 205684, Note_on_c, 0, 64, 0
2, 205778, Note_on_c, 0, 54, 51
2, 205786, Note_on_c, 0, 63, 48
2, 205954, Note_on_c, 0, 54, 0
2, 205978, Note_on_c, 0, 59, 0
2, 206019, Note_on_c, 0, 63, 0
2, 206082, Note_on_c, 0, 59, 37
2, 206094, Note_on_c, 0, 62, 44
2, 206116, Note_on_c, 0, 53, 32
2, 206119, Control_c, 0, 64, 127
2, 206555, Note_on_c, 0, 43, 0
2, 206769, Note_on_c, 0, 43, 47
2, 206841, Note_on_c, 0, 69, 0
2, 206848, Control_c, 0, 64, 0
2, 206893, Note_on_c, 0, 62, 0
2, 206915, Note_on_c, 0, 59, 0
2, 206937, Note_on_c, 0, 43, 0
2, 206950, Note_on_c, 0, 53, 0
2, 207055, Note_on_c, 0, 49, 56
2, 207083, Control_c, 0, 64, 127
2, 207219, Control_c, 0, 64, 0
2, 207360, Note_on_c, 0, 49, 0
2, 207381, Note_on_c, 0, 65, 50
2, 207400, Note_on_c, 0, 57, 49
2, 207401, Note_on_c, 0, 60, 49
2, 207408, Note_on_c, 0, 50, 40
2, 207432, Control_c, 0, 64, 127
2, 207653, Note_on_c, 0, 65, 0
2, 207765, Note_on_c, 0, 60, 0
2, 207858, Note_on_c, 0, 57, 0
2, 207961, Note_on_c, 0, 50, 0
2, 208010, Note_on_c, 0, 38, 63
2, 208341, Control_c, 0, 64, 0
2, 208363, Note_on_c, 0, 64, 75
2, 208369, Note_on_c, 0, 50, 76
2, 208371, Note_on_c, 0, 57, 80
2, 208379, Note_on_c, 0, 53, 73
2, 208381, Note_on_c, 0, 60, 60
2, 208567, Control_c, 0, 64, 127
2, 208596, Note_on_c, 0, 64, 0
2, 208620, Note_on_c, 0, 53, 0
2, 208645, Note_on_c, 0, 50, 0
2, 208666, Note_on_c, 0, 60, 0
2, 208685, Note_on_c, 0, 64, 66
2, 208700, Note_on_c, 0, 53, 54
2, 208714, Note_on_c, 0, 50, 31
2, 208743, Note_on_c, 0, 60, 18
2, 208899, Note_on_c, 0, 64, 0
2, 208900, Note_on_c, 0, 53, 0
2, 208927, Note_on_c, 0, 60, 0
2, 208958, Note_on_c, 0, 57, 0
2, 208969, Note_on_c, 0, 50, 0
2, 208993, Note_on_c, 0, 62, 55
2, 209009, Note_on_c, 0, 45, 58
2, 209041, Note_on_c, 0, 53, 20
2, 209153, Note_on_c, 0, 53, 0
2, 209205, Control_c, 0, 64, 0
2, 209217, Note_on_c, 0, 45, 0
2, 209242, Note_on_c, 0, 62, 0
2, 209277, Note_on_c, 0, 38, 0
2, 209333, Note_on_c, 0, 64, 70
2, 209334, Note_on_c, 0, 56, 70
2, 209336, Note_on_c, 0, 59, 65
2, 209340, Note_on_c, 0, 53, 58
2, 209342, Note_on_c, 0, 43, 50
2, 209357, Note_on_c, 0, 62, 35
2, 209464, Control_c, 0, 64, 127
2, 210031, Note_on_c, 0, 64, 0
2, 210113, Note_on_c, 0, 43, 0
2, 210116, Note_on_c, 0, 53, 0
2, 210156, Note_on_c, 0, 62, 0
2, 210184, Note_on_c, 0, 56, 0
2, 210225, Note_on_c, 0, 59, 0
2, 210294, Control_c, 0, 64, 0
2, 210302, Note_on_c, 0, 41, 41
2, 210303, Note_on_c, 0, 63, 57
2, 210306, Note_on_c, 0, 29, 36
2, 210313, Note_on_c, 0, 59, 44
2, 210319, Note_on_c, 0, 56, 56
2, 210325, Note_on_c, 0, 53, 39
2, 210486, Control_c, 0, 64, 127
2, 210780, Note_on_c, 0, 53, 0
2, 210797, Note_on_c, 0, 56, 0
2, 210809, Note_on_c, 0, 59, 0
2, 210871, Note_on_c, 0, 63, 0
2, 211019, Note_on_c, 0, 41, 0
2, 211067, Note_on_c, 0, 29, 0
2, 211216, Control_c, 0, 64, 0
2, 211252, Note_on_c, 0, 67, 47
2, 211253, Note_on_c, 0, 62, 48
2, 211266, Note_on_c, 0, 40, 33
2, 211268, Note_on_c, 0, 55, 35
2, 211271, Note_on_c, 0, 28, 35
2, 211384, Control_c, 0, 64, 127
2, 211513, Note_on_c, 0, 55, 0
2, 211536, Note_on_c, 0, 28, 0
2, 211625, Note_on_c, 0, 40, 0
2, 211686, Note_on_c, 0, 62, 0
2, 211715, Note_on_c, 0, 67, 0
2, 212210, Note_on_c, 0, 71, 56
2, 212215, Note_on_c, 0, 64, 55
2, 212220, Note_on_c, 0, 67, 48
2, 212223, Note_on_c, 0, 62, 44
2, 212229, Note_on_c, 0, 52, 24
2, 212229, Note_on_c, 0, 55, 30
2, 212238, Note_on_c, 0, 59, 31
2, 212317, Note_on_c, 0, 59, 0
2, 212358, Note_on_c, 0, 55, 0
2, 212397, Note_on_c, 0, 52, 0
2, 212554, Note_on_c, 0, 62, 0
2, 212676, Note_on_c, 0, 67, 0
2, 212694, Note_on_c, 0, 64, 0
2, 212759, Note_on_c, 0, 71, 0
2, 213158, Control_c, 0, 64, 0
2, 213185, Note_on_c, 0, 39, 50
2, 213189, Note_on_c, 0, 66, 47
2, 213191, Note_on_c, 0, 71, 43
2, 213194, Note_on_c, 0, 63, 43
2, 213215, Note_on_c, 0, 60, 36
2, 213216, Note_on_c, 0, 54, 34
2, 213303, Control_c, 0, 64, 127
2, 213400, Note_on_c, 0, 60, 0
2, 213417, Note_on_c, 0, 39, 0
2, 213456, Note_on_c, 0, 63, 0
2, 213477, Note_on_c, 0, 66, 0
2, 213498, Note_on_c, 0, 71, 0
2, 213553, Note_on_c, 0, 54, 0
2, 214179, Note_on_c, 0, 63, 56
2, 214192, Note_on_c, 0, 54, 50
2, 214205, Note_on_c, 0, 60, 38
2, 214401, Note_on_c, 0, 60, 0
2, 214446, Note_on_c, 0, 54, 0
2, 214466, Note_on_c, 0, 63, 0
2, 215078, Control_c, 0, 64, 0
2, 215084, Note_on_c, 0, 86, 77
2, 215098, Note_on_c, 0, 72, 58
2, 215101, Note_on_c, 0, 81, 75
2, 215101, Note_on_c, 0, 77, 74
2, 215223, Control_c, 0, 64, 127
2, 215290, Note_on_c, 0, 81, 0
2, 215313, Note_on_c, 0, 86, 0
2, 215337, Note_on_c, 0, 77, 0
2, 215566, Note_on_c, 0, 72, 0
2, 215570, Note_on_c, 0, 84, 53
2, 215577, Note_on_c, 0, 69, 49
2, 215584, Note_on_c, 0, 77, 64
2, 215593, Note_on_c, 0, 74, 57
2, 215607, Note_on_c, 0, 81, 34
2, 215666, Note_on_c, 0, 81, 0
2, 215723, Note_on_c, 0, 84, 0
2, 215744, Note_on_c, 0, 77, 0
2, 215787, Note_on_c, 0, 74, 0
2, 215991, Note_on_c, 0, 69, 0
2, 216028, Note_on_c, 0, 81, 58
2, 216040, Note_on_c, 0, 74, 55
2, 216059, Note_on_c, 0, 77, 40
2, 216071, Note_on_c, 0, 65, 41
2, 216111, Note_on_c, 0, 77, 0
2, 216174, Note_on_c, 0, 74, 0
2, 216177, Note_on_c, 0, 81, 0
2, 216445, Note_on_c, 0, 65, 0
2, 216491, Note_on_c, 0, 62, 32
2, 216494, Note_on_c, 0, 77, 48
2, 216504, Note_on_c, 0, 69, 41
2, 216506, Note_on_c, 0, 72, 1
2, 216545, Note_on_c, 0, 62, 0
2, 216604, Note_on_c, 0, 77, 0
2, 216637, Note_on_c, 0, 69, 0
2, 216819, Note_on_c, 0, 72, 0
2, 216908, Control_c, 0, 64, 0
2, 216964, Note_on_c, 0, 72, 18
2, 216971, Note_on_c, 0, 69, 37
2, 216973, Note_on_c, 0, 55, 24
2, 216974, Note_on_c, 0, 65, 35
2, 216985, Note_on_c, 0, 62, 35
2, 217012, Control_c, 0, 64, 127
2, 217082, Note_on_c, 0, 62, 0
2, 217164, Note_on_c, 0, 55, 0
2, 217311, Note_on_c, 0, 69, 0
2, 217344, Note_on_c, 0, 65, 0
2, 217469, Note_on_c, 0, 69, 37
2, 217480, Note_on_c, 0, 65, 36
2, 217483, Note_on_c, 0, 50, 42
2, 217516, Note_on_c, 0, 72, 0
2, 217603, Note_on_c, 0, 69, 0
2, 217617, Note_on_c, 0, 65, 0
2, 217920, Control_c, 0, 64, 0
2, 217969, Note_on_c, 0, 64, 49
2, 217972, Note_on_c, 0, 68, 42
2, 217982, Note_on_c, 0, 43, 26
2, 217991, Note_on_c, 0, 53, 27
2, 218033, Control_c, 0, 64, 127
2, 218034, Note_on_c, 0, 50, 0
2, 218271, Note_on_c, 0, 43, 0
2, 218414, Note_on_c, 0, 68, 0
2, 218422, Note_on_c, 0, 64, 0
2, 218426, Note_on_c, 0, 43, 30
2, 218550, Note_on_c, 0, 53, 0
2, 218874, Control_c, 0, 64, 0
2, 218899, Note_on_c, 0, 71, 54
2, 218909, Note_on_c, 0, 66, 54
2, 218914, Note_on_c, 0, 63, 50
2, 218919, Note_on_c, 0, 60, 40
2, 218921, Note_on_c, 0, 55, 35
2, 219039, Note_on_c, 0, 43, 0
2, 219111, Control_c, 0, 64, 127
2, 219392, Note_on_c, 0, 43, 36
2, 219421, Note_on_c, 0, 60, 0
2, 219437, Note_on_c, 0, 55, 0
2, 219438, Note_on_c, 0, 71, 0
2, 219504, Note_on_c, 0, 66, 0
2, 219530, Note_on_c, 0, 63, 0
2, 219851, Control_c, 0, 64, 0
2, 219878, Note_on_c, 0, 67, 61
2, 219881, Note_on_c, 0, 64, 79
2, 219885, Note_on_c, 0, 72, 49
2, 219898, Note_on_c, 0, 52, 36
2, 219998, Control_c, 0, 64, 127
2, 220015, Note_on_c, 0, 43, 0
2, 220364, Note_on_c, 0, 43, 48
2, 220408, Note_on_c, 0, 52, 0
2, 220424, Note_on_c, 0, 64, 0
2, 220445, Note_on_c, 0, 67, 0
2, 220523, Note_on_c, 0, 72, 0
2, 220831, Note_on_c, 0, 70, 72
2, 220838, Note_on_c, 0, 66, 74
2, 220841, Note_on_c, 0, 61, 67
2, 220841, Note_on_c, 0, 55, 56
2, 220850, Control_c, 0, 64, 0
2, 221142, Control_c, 0, 64, 127
2, 221198, Note_on_c, 0, 43, 0
2, 221311, Note_on_c, 0, 43, 27
2, 221551, Note_on_c, 0, 55, 0
2, 221662, Note_on_c, 0, 61, 0
2, 221705, Note_on_c, 0, 66, 0
2, 221807, Note_on_c, 0, 70, 0
2, 221839, Note_on_c, 0, 66, 52
2, 221847, Note_on_c, 0, 55, 39
2, 221848, Note_on_c, 0, 61, 47
2, 221952, Note_on_c, 0, 43, 0
2, 222307, Note_on_c, 0, 43, 32
2, 222403, Note_on_c, 0, 55, 0
2, 222538, Note_on_c, 0, 61, 0
2, 222613, Note_on_c, 0, 66, 0
2, 222770, Control_c, 0, 64, 0
2, 222792, Note_on_c, 0, 60, 45
2, 222795, Note_on_c, 0, 67, 40
2, 222800, Note_on_c, 0, 65, 51
2, 222803, Note_on_c, 0, 55, 35
2, 222943, Note_on_c, 0, 43, 0
2, 222984, Control_c, 0, 64, 127
2, 223265, Note_on_c, 0, 43, 33
2, 223361, Note_on_c, 0, 55, 0
2, 223446, Note_on_c, 0, 60, 0
2, 223454, Note_on_c, 0, 65, 0
2, 223544, Note_on_c, 0, 67, 0
2, 223740, Note_on_c, 0, 60, 42
2, 223743, Note_on_c, 0, 65, 50
2, 223745, Note_on_c, 0, 55, 34
2, 223883, Note_on_c, 0, 43, 0
2, 224195, Note_on_c, 0, 43, 41
2, 224237, Note_on_c, 0, 65, 0
2, 224307, Note_on_c, 0, 60, 0
2, 224338, Note_on_c, 0, 55, 0
2, 224656, Control_c, 0, 64, 0
2, 224674, Note_on_c, 0, 63, 45
2, 224691, Note_on_c, 0, 53, 33
2, 224696, Note_on_c, 0, 59, 36
2, 224803, Control_c, 0, 64, 127
2, 224936, Note_on_c, 0, 43, 0
2, 225137, Note_on_c, 0, 43, 39
2, 225274, Note_on_c, 0, 53, 0
2, 225331, Note_on_c, 0, 59, 0
2, 225339, Note_on_c, 0, 63, 0
2, 225600, Note_on_c, 0, 63, 44
2, 225625, Note_on_c, 0, 59, 37
2, 225640, Note_on_c, 0, 53, 28
2, 225719, Note_on_c, 0, 43, 0
2, 225989, Note_on_c, 0, 53, 0
2, 226070, Note_on_c, 0, 43, 33
2, 226097, Note_on_c, 0, 59, 0
2, 226195, Note_on_c, 0, 43, 0
2, 226301, Note_on_c, 0, 63, 0
2, 226508, Control_c, 0, 64, 0
2, 226555, Note_on_c, 0, 67, 51
2, 226572, Note_on_c, 0, 62, 53
2, 226580, Note_on_c, 0, 56, 55
2, 226606, Note_on_c, 0, 40, 18
2, 226677, Control_c, 0, 64, 127
2, 227053, Note_on_c, 0, 67, 0
2, 227139, Note_on_c, 0, 56, 0
2, 227155, Note_on_c, 0, 62, 0
2, 227503, Note_on_c, 0, 40, 0
2, 227519, Control_c, 0, 64, 0
2, 227544, Note_on_c, 0, 61, 55
2, 227547, Note_on_c, 0, 66, 52
2, 227549, Note_on_c, 0, 33, 48
2, 227555, Note_on_c, 0, 55, 32
2, 227699, Control_c, 0, 64, 127
2, 228174, Note_on_c, 0, 55, 0
2, 228211, Note_on_c, 0, 66, 0
2, 228357, Note_on_c, 0, 61, 0
2, 228486, Note_on_c, 0, 33, 0
2, 228518, Control_c, 0, 64, 0
2, 228525, Note_on_c, 0, 38, 37
2, 228527, Note_on_c, 0, 65, 52
2, 228537, Note_on_c, 0, 60, 45
2, 228541, Note_on_c, 0, 54, 38
2, 228570, Note_on_c, 0, 26, 17
2, 228731, Control_c, 0, 64, 127
2, 229214, Note_on_c, 0, 60, 0
2, 229240, Note_on_c, 0, 38, 0
2, 229256, Note_on_c, 0, 54, 0
2, 229514, Note_on_c, 0, 54, 43
2, 229515, Note_on_c, 0, 60, 43
2, 229520, Note_on_c, 0, 38, 31
2, 229791, Note_on_c, 0, 26, 0
2, 230023, Note_on_c, 0, 26, 59
2, 230135, Note_on_c, 0, 54, 0
2, 230213, Note_on_c, 0, 60, 0
2, 230224, Note_on_c, 0, 65, 0
2, 230396, Note_on_c, 0, 38, 0
2, 230448, Note_on_c, 0, 26, 0
2, 230471, Control_c, 0, 64, 0
2, 230481, Note_on_c, 0, 64, 71
2, 230490, Note_on_c, 0, 55, 62
2, 230491, Note_on_c, 0, 33, 68
2, 230495, Note_on_c, 0, 59, 66
2, 230498, Note_on_c, 0, 60, 61
2, 230695, Control_c, 0, 64, 127
2, 231107, Note_on_c, 0, 55, 0
2, 231171, Note_on_c, 0, 59, 0
2, 231251, Note_on_c, 0, 60, 0
2, 231305, Note_on_c, 0, 64, 0
2, 231406, Note_on_c, 0, 33, 0
2, 231414, Control_c, 0, 64, 0
2, 231451, Note_on_c, 0, 54, 61
2, 231454, Note_on_c, 0, 32, 60
2, 231465, Note_on_c, 0, 60, 47
2, 231468, Note_on_c, 0, 58, 59
2, 231627, Control_c, 0, 64, 127
2, 232025, Note_on_c, 0, 60, 0
2, 232052, Note_on_c, 0, 54, 0
2, 232193, Note_on_c, 0, 32, 0
2, 232205, Note_on_c, 0, 58, 0
2, 232379, Control_c, 0, 64, 0
2, 232405, Note_on_c, 0, 32, 57
2, 232407, Note_on_c, 0, 59, 58
2, 232412, Note_on_c, 0, 63, 50
2, 232416, Note_on_c, 0, 54, 62
2, 232604, Control_c, 0, 64, 127
2, 233101, Note_on_c, 0, 54, 0
2, 233149, Note_on_c, 0, 63, 0
2, 233205, Note_on_c, 0, 59, 0
2, 233236, Note_on_c, 0, 32, 0
2, 233244, Control_c, 0, 64, 0
2, 233313, Note_on_c, 0, 59, 26
2, 233315, Note_on_c, 0, 25, 46
2, 233319, Note_on_c, 0, 63, 39
2, 233331, Note_on_c, 0, 53, 32
2, 233412, Control_c, 0, 64, 127
2, 233441, Note_on_c, 0, 25, 0
2, 233514, Note_on_c, 0, 53, 0
2, 233583, Note_on_c, 0, 59, 0
2, 233633, Note_on_c, 0, 63, 0
2, 234243, Control_c, 0, 64, 0
2, 234254, Note_on_c, 0, 60, 49
2, 234256, Note_on_c, 0, 64, 58
2, 234258, Note_on_c, 0, 71, 46
2, 234274, Note_on_c, 0, 67, 43
2, 234614, Note_on_c, 0, 59, 59
2, 234738, Control_c, 0, 64, 127
2, 234797, Note_on_c, 0, 59, 0
2, 234837, Note_on_c, 0, 60, 0
2, 234921, Note_on_c, 0, 60, 71
2, 234955, Note_on_c, 0, 71, 0
2, 235101, Note_on_c, 0, 64, 0
2, 235118, Note_on_c, 0, 67, 0
2, 235219, Note_on_c, 0, 72, 59
2, 235222, Note_on_c, 0, 64, 61
2, 235242, Control_c, 0, 64, 0
2, 235276, Control_c, 0, 64, 127
2, 235478, Control_c, 0, 64, 0
2, 235487, Note_on_c, 0, 60, 0
2, 235524, Note_on_c, 0, 57, 56
2, 235578, Note_on_c, 0, 57, 0
2, 235837, Control_c, 0, 64, 127
2, 235846, Note_on_c, 0, 46, 53
2, 235878, Note_on_c, 0, 64, 0
2, 235893, Note_on_c, 0, 72, 0
2, 236108, Note_on_c, 0, 46, 0
2, 236174, Control_c, 0, 64, 0
2, 236199, Note_on_c, 0, 61, 48
2, 236202, Note_on_c, 0, 55, 36
2, 236215, Note_on_c, 0, 64, 50
2, 236218, Note_on_c, 0, 45, 37
2, 236342, Control_c, 0, 64, 127
2, 236793, Note_on_c, 0, 64, 0
2, 236825, Note_on_c, 0, 55, 0
2, 236866, Note_on_c, 0, 61, 0
2, 237186, Note_on_c, 0, 61, 39
2, 237208, Note_on_c, 0, 65, 46
2, 237221, Note_on_c, 0, 55, 32
2, 237307, Note_on_c, 0, 61, 0
2, 237369, Note_on_c, 0, 65, 0
2, 237526, Note_on_c, 0, 45, 0
2, 237647, Note_on_c, 0, 55, 0
2, 237863, Note_on_c, 0, 76, 78
2, 238117, Note_on_c, 0, 69, 46
2, 238124, Note_on_c, 0, 65, 36
2, 238151, Control_c, 0, 64, 0
2, 238160, Note_on_c, 0, 64, 55
2, 238227, Note_on_c, 0, 65, 0
2, 238244, Note_on_c, 0, 69, 0
2, 238383, Note_on_c, 0, 69, 48
2, 238404, Note_on_c, 0, 65, 32
2, 238461, Note_on_c, 0, 65, 0
2, 238481, Note_on_c, 0, 69, 0
2, 238940, Note_on_c, 0, 64, 0
2, 239030, Note_on_c, 0, 69, 64
2, 239043, Note_on_c, 0, 64, 44
2, 239046, Note_on_c, 0, 65, 51
2, 239094, Note_on_c, 0, 65, 0
2, 239137, Note_on_c, 0, 69, 0
2, 239318, Note_on_c, 0, 69, 37
2, 239413, Note_on_c, 0, 69, 0
2, 239646, Note_on_c, 0, 69, 55
2, 239651, Note_on_c, 0, 65, 50
2, 239733, Note_on_c, 0, 65, 0
2, 239748, Note_on_c, 0, 69, 0
2, 239776, Note_on_c, 0, 64, 0
2, 239900, Note_on_c, 0, 69, 49
2, 239926, Note_on_c, 0, 65, 30
2, 240013, Control_c, 0, 64, 127
2, 240024, Note_on_c, 0, 69, 0
2, 240045, Note_on_c, 0, 65, 0
2, 240080, Control_c, 0, 64, 0
2, 240211, Note_on_c, 0, 65, 45
2, 240219, Note_on_c, 0, 68, 51
2, 240223, Note_on_c, 0, 53, 32
2, 240226, Note_on_c, 0, 64, 34
2, 240234, Note_on_c, 0, 59, 33
2, 240322, Note_on_c, 0, 64, 0
2, 240364, Note_on_c, 0, 59, 0
2, 240378, Note_on_c, 0, 68, 0
2, 240391, Note_on_c, 0, 65, 0
2, 240410, Note_on_c, 0, 53, 0
2, 240513, Note_on_c, 0, 68, 38
2, 240526, Note_on_c, 0, 65, 30
2, 240563, Control_c, 0, 64, 127
2, 240626, Note_on_c, 0, 65, 0
2, 240658, Note_on_c, 0, 68, 0
2, 240686, Control_c, 0, 64, 0
2, 240867, Note_on_c, 0, 43, 35
2, 241027, Note_on_c, 0, 43, 0
2, 241376, Note_on_c, 0, 68, 55
2, 241385, Note_on_c, 0, 65, 56
2, 241448, Note_on_c, 0, 76, 0
2, 241518, Control_c, 0, 64, 127
2, 241533, Note_on_c, 0, 65, 0
2, 241643, Note_on_c, 0, 76, 61
2, 241644, Note_on_c, 0, 68, 0
2, 241934, Note_on_c, 0, 76, 0
2, 241937, Note_on_c, 0, 67, 52
2, 241945, Note_on_c, 0, 71, 56
2, 241966, Control_c, 0, 64, 0
2, 242282, Note_on_c, 0, 52, 38
2, 242292, Control_c, 0, 64, 127
2, 242852, Note_on_c, 0, 67, 0
2, 242950, Note_on_c, 0, 59, 44
2, 243360, Note_on_c, 0, 52, 0
2, 243422, Note_on_c, 0, 71, 0
2, 243452, Note_on_c, 0, 59, 0
2, 243458, Note_on_c, 0, 69, 52
2, 243613, Note_on_c, 0, 69, 0
2, 243655, Note_on_c, 0, 70, 67
2, 243844, Note_on_c, 0, 70, 0
2, 243875, Control_c, 0, 64, 0
2, 243891, Note_on_c, 0, 61, 39
2, 243901, Note_on_c, 0, 65, 36
2, 243902, Note_on_c, 0, 55, 26
2, 243905, Note_on_c, 0, 72, 55
2, 244033, Control_c, 0, 64, 127
2, 244164, Note_on_c, 0, 65, 0
2, 244382, Note_on_c, 0, 65, 35
2, 244429, Note_on_c, 0, 61, 0
2, 244591, Note_on_c, 0, 65, 0
2, 244857, Note_on_c, 0, 61, 46
2, 244868, Note_on_c, 0, 65, 47
2, 244926, Note_on_c, 0, 72, 0
2, 245013, Note_on_c, 0, 65, 0
2, 245025, Note_on_c, 0, 61, 0
2, 245178, Note_on_c, 0, 55, 0
2, 245384, Note_on_c, 0, 60, 31
2, 245473, Note_on_c, 0, 60, 0
2, 245772, Control_c, 0, 64, 0
2, 245817, Note_on_c, 0, 69, 38
2, 245827, Note_on_c, 0, 50, 35
2, 245833, Note_on_c, 0, 60, 33
2, 245852, Control_c, 0, 64, 127
2, 245956, Note_on_c, 0, 69, 0
2, 245990, Note_on_c, 0, 50, 0
2, 245993, Note_on_c, 0, 60, 0
2, 246378, Note_on_c, 0, 41, 49
2, 246538, Note_on_c, 0, 41, 0
2, 246556, Note_on_c, 0, 44, 54
2, 246719, Note_on_c, 0, 46, 52
2, 246729, Note_on_c, 0, 44, 0
2, 246784, Control_c, 0, 64, 0
2, 246803, Note_on_c, 0, 46, 0
2, 246824, Note_on_c, 0, 48, 67
2, 246914, Note_on_c, 0, 48, 0
2, 246974, Note_on_c, 0, 51, 59
2, 247110, Note_on_c, 0, 51, 0
2, 247144, Note_on_c, 0, 53, 48
2, 247237, Note_on_c, 0, 53, 0
2, 247272, Note_on_c, 0, 56, 67
2, 247392, Note_on_c, 0, 56, 0
2, 247415, Note_on_c, 0, 58, 46
2, 247469, Note_on_c, 0, 58, 0
2, 247508, Note_on_c, 0, 60, 49
2, 247610, Note_on_c, 0, 60, 0
2, 247811, Note_on_c, 0, 43, 28
2, 247839, Note_on_c, 0, 53, 18
2, 248119, Control_c, 0, 64, 127
2, 248232, Note_on_c, 0, 43, 0
2, 248255, Note_on_c, 0, 65, 60
2, 248325, Note_on_c, 0, 53, 0
2, 248361, Note_on_c, 0, 65, 0
2, 248426, Note_on_c, 0, 66, 64
2, 248523, Note_on_c, 0, 66, 0
2, 248566, Note_on_c, 0, 67, 59
2, 248664, Note_on_c, 0, 67, 0
2, 248695, Note_on_c, 0, 68, 55
2, 248713, Control_c, 0, 64, 0
2, 248763, Note_on_c, 0, 64, 30
2, 248766, Note_on_c, 0, 59, 27
2, 248767, Note_on_c, 0, 68, 0
2, 248770, Note_on_c, 0, 53, 25
2, 248951, Note_on_c, 0, 70, 45
2, 249002, Note_on_c, 0, 70, 0
2, 249074, Note_on_c, 0, 71, 37
2, 249139, Note_on_c, 0, 71, 0
2, 249189, Note_on_c, 0, 72, 36
2, 249283, Note_on_c, 0, 73, 36
2, 249329, Note_on_c, 0, 73, 0
2, 249376, Control_c, 0, 64, 127
2, 249389, Note_on_c, 0, 74, 56
2, 249399, Note_on_c, 0, 72, 0
2, 249447, Note_on_c, 0, 53, 0
2, 249466, Note_on_c, 0, 59, 0
2, 249469, Note_on_c, 0, 74, 0
2, 249474, Note_on_c, 0, 75, 40
2, 249522, Note_on_c, 0, 64, 0
2, 249557, Note_on_c, 0, 75, 0
2, 249607, Note_on_c, 0, 76, 19
2, 249673, Note_on_c, 0, 76, 0
2, 249675, Note_on_c, 0, 77, 47
2, 249701, Control_c, 0, 64, 0
2, 249754, Note_on_c, 0, 67, 29
2, 249755, Note_on_c, 0, 62, 34
2, 249773, Note_on_c, 0, 64, 27
2, 249804, Note_on_c, 0, 76, 60
2, 249850, Note_on_c, 0, 77, 0
2, 249896, Note_on_c, 0, 67, 0
2, 250016, Note_on_c, 0, 76, 0
2, 250084, Note_on_c, 0, 71, 47
2, 250241, Control_c, 0, 64, 127
2, 250293, Note_on_c, 0, 71, 0
2, 250338, Note_on_c, 0, 67, 45
2, 250427, Note_on_c, 0, 67, 0
2, 250583, Note_on_c, 0, 83, 68
2, 250689, Control_c, 0, 64, 0
2, 250726, Note_on_c, 0, 55, 28
2, 250776, Note_on_c, 0, 83, 0
2, 250836, Control_c, 0, 64, 127
2, 250837, Note_on_c, 0, 83, 43
2, 251018, Note_on_c, 0, 83, 0
2, 251022, Note_on_c, 0, 64, 0
2, 251037, Note_on_c, 0, 62, 0
2, 251083, Note_on_c, 0, 79, 58
2, 251121, Note_on_c, 0, 55, 0
2, 251209, Note_on_c, 0, 79, 0
2, 251312, Note_on_c, 0, 79, 40
2, 251434, Note_on_c, 0, 79, 0
2, 251506, Note_on_c, 0, 84, 69
2, 251638, Note_on_c, 0, 84, 0
2, 251644, Control_c, 0, 64, 0
2, 251715, Note_on_c, 0, 45, 49
2, 251730, Note_on_c, 0, 84, 48
2, 251779, Control_c, 0, 64, 127
2, 251834, Note_on_c, 0, 45, 0
2, 251910, Note_on_c, 0, 84, 0
2, 251941, Note_on_c, 0, 81, 54
2, 252045, Note_on_c, 0, 81, 0
2, 252145, Note_on_c, 0, 81, 52
2, 252246, Note_on_c, 0, 81, 0
2, 252338, Note_on_c, 0, 88, 69
2, 252474, Note_on_c, 0, 88, 0
2, 252552, Note_on_c, 0, 61, 32
2, 252566, Note_on_c, 0, 88, 56
2, 252582, Note_on_c, 0, 58, 40
2, 252587, Note_on_c, 0, 64, 31
2, 252608, Note_on_c, 0, 55, 17
2, 252678, Note_on_c, 0, 64, 0
2, 252718, Note_on_c, 0, 61, 0
2, 252730, Note_on_c, 0, 55, 0
2, 252739, Note_on_c, 0, 88, 0
2, 252741, Note_on_c, 0, 58, 0
2, 252778, Note_on_c, 0, 84, 55
2, 252898, Note_on_c, 0, 84, 0
2, 253020, Note_on_c, 0, 84, 46
2, 253104, Note_on_c, 0, 84, 0
2, 253210, Note_on_c, 0, 91, 64
2, 253346, Note_on_c, 0, 91, 0
2, 253417, Control_c, 0, 64, 0
2, 253464, Note_on_c, 0, 91, 60
2, 253472, Note_on_c, 0, 57, 36
2, 253478, Note_on_c, 0, 60, 28
2, 253480, Note_on_c, 0, 53, 27
2, 253492, Note_on_c, 0, 50, 24
2, 253585, Control_c, 0, 64, 127
2, 253638, Note_on_c, 0, 91, 0
2, 253674, Note_on_c, 0, 88, 55
2, 253740, Note_on_c, 0, 50, 0
2, 253769, Note_on_c, 0, 53, 0
2, 253779, Note_on_c, 0, 57, 0
2, 253793, Note_on_c, 0, 88, 0
2, 253818, Note_on_c, 0, 60, 0
2, 253908, Note_on_c, 0, 88, 51
2, 254017, Note_on_c, 0, 88, 0
2, 254144, Note_on_c, 0, 96, 54
2, 254250, Note_on_c, 0, 96, 0
2, 254349, Control_c, 0, 64, 0
2, 254354, Note_on_c, 0, 64, 48
2, 254390, Note_on_c, 0, 60, 31
2, 254391, Note_on_c, 0, 96, 62
2, 254397, Note_on_c, 0, 57, 36
2, 254424, Note_on_c, 0, 53, 17
2, 254439, Control_c, 0, 64, 127
2, 254475, Note_on_c, 0, 64, 0
2, 254476, Note_on_c, 0, 60, 0
2, 254513, Note_on_c, 0, 57, 0
2, 254546, Note_on_c, 0, 96, 0
2, 254553, Note_on_c, 0, 53, 0
2, 254631, Note_on_c, 0, 93, 46
2, 254729, Note_on_c, 0, 93, 0
2, 254868, Note_on_c, 0, 93, 53
2, 254978, Note_on_c, 0, 93, 0
2, 255315, Control_c, 0, 64, 0
2, 255344, Note_on_c, 0, 43, 29
2, 255370, Note_on_c, 0, 50, 29
2, 255383, Note_on_c, 0, 59, 30
2, 255387, Note_on_c, 0, 95, 58
2, 255427, Control_c, 0, 64, 127
2, 255548, Note_on_c, 0, 43, 0
2, 255617, Note_on_c, 0, 50, 0
2, 255697, Note_on_c, 0, 59, 0
2, 255951, Note_on_c, 0, 95, 0
2, 256305, Note_on_c, 0, 64, 49
2, 256329, Note_on_c, 0, 59, 33
2, 256354, Note_on_c, 0, 53, 22
2, 256604, Note_on_c, 0, 53, 0
2, 256612, Note_on_c, 0, 59, 0
2, 256669, Note_on_c, 0, 64, 0
2, 257234, Control_c, 0, 64, 0
2, 257284, Note_on_c, 0, 86, 78
2, 257285, Note_on_c, 0, 67, 53
2, 257287, Note_on_c, 0, 62, 37
2, 257295, Note_on_c, 0, 56, 45
2, 257296, Note_on_c, 0, 74, 76
2, 257447, Control_c, 0, 64, 127
2, 257646, Note_on_c, 0, 74, 0
2, 257687, Note_on_c, 0, 86, 0
2, 257800, Note_on_c, 0, 83, 53
2, 257961, Note_on_c, 0, 83, 0
2, 258038, Note_on_c, 0, 86, 60
2, 258059, Note_on_c, 0, 74, 53
2, 258118, Note_on_c, 0, 67, 0
2, 258130, Note_on_c, 0, 74, 0
2, 258138, Note_on_c, 0, 86, 0
2, 258155, Note_on_c, 0, 62, 0
2, 258184, Note_on_c, 0, 56, 0
2, 258256, Control_c, 0, 64, 0
2, 258289, Note_on_c, 0, 75, 72
2, 258292, Note_on_c, 0, 87, 75
2, 258293, Note_on_c, 0, 62, 55
2, 258296, Note_on_c, 0, 56, 59
2, 258303, Note_on_c, 0, 66, 67
2, 258447, Control_c, 0, 64, 127
2, 258827, Note_on_c, 0, 62, 0
2, 258895, Note_on_c, 0, 66, 0
2, 259029, Note_on_c, 0, 56, 0
2, 259072, Note_on_c, 0, 75, 0
2, 259096, Note_on_c, 0, 87, 0
2, 259164, Control_c, 0, 64, 0
2, 259206, Note_on_c, 0, 61, 32
2, 259207, Note_on_c, 0, 65, 49
2, 259225, Note_on_c, 0, 88, 66
2, 259227, Note_on_c, 0, 60, 43
2, 259235, Note_on_c, 0, 55, 27
2, 259241, Note_on_c, 0, 76, 56
2, 259356, Control_c, 0, 64, 127
2, 259596, Note_on_c, 0, 88, 0
2, 259642, Note_on_c, 0, 76, 0
2, 259721, Note_on_c, 0, 87, 44
2, 259870, Note_on_c, 0, 87, 0
2, 259914, Note_on_c, 0, 65, 0
2, 259925, Note_on_c, 0, 60, 0
2, 259926, Note_on_c, 0, 55, 0
2, 259956, Note_on_c, 0, 88, 63
2, 259972, Note_on_c, 0, 76, 56
2, 260085, Note_on_c, 0, 76, 0
2, 260102, Note_on_c, 0, 88, 0
2, 260134, Note_on_c, 0, 61, 0
2, 260175, Control_c, 0, 64, 0
2, 260190, Note_on_c, 0, 61, 20
2, 260214, Note_on_c, 0, 55, 33
2, 260215, Note_on_c, 0, 66, 53
2, 260222, Note_on_c, 0, 89, 65
2, 260226, Note_on_c, 0, 77, 62
2, 260332, Control_c, 0, 64, 127
2, 260601, Note_on_c, 0, 55, 0
2, 260665, Note_on_c, 0, 66, 0
2, 260863, Note_on_c, 0, 77, 0
2, 260869, Note_on_c, 0, 89, 0
2, 260935, Note_on_c, 0, 61, 0
2, 261107, Control_c, 0, 64, 0
2, 261129, Note_on_c, 0, 55, 35
2, 261131, Note_on_c, 0, 64, 40
2, 261141, Note_on_c, 0, 90, 52
2, 261145, Note_on_c, 0, 57, 43
2, 261148, Note_on_c, 0, 60, 33
2, 261160, Note_on_c, 0, 78, 53
2, 261275, Control_c, 0, 64, 127
2, 261542, Note_on_c, 0, 78, 0
2, 261583, Note_on_c, 0, 90, 0
2, 261635, Note_on_c, 0, 87, 29
2, 261717, Note_on_c, 0, 64, 0
2, 261746, Note_on_c, 0, 55, 0
2, 261786, Note_on_c, 0, 57, 0
2, 261796, Note_on_c, 0, 87, 0
2, 261855, Note_on_c, 0, 90, 48
2, 261881, Note_on_c, 0, 78, 34
2, 262040, Note_on_c, 0, 90, 0
2, 262051, Note_on_c, 0, 78, 0
2, 262051, Control_c, 0, 64, 0
2, 262088, Note_on_c, 0, 64, 43
2, 262097, Note_on_c, 0, 54, 39
2, 262106, Note_on_c, 0, 91, 60
2, 262118, Note_on_c, 0, 79, 44
2, 262207, Control_c, 0, 64, 127
2, 262590, Note_on_c, 0, 60, 0
2, 262609, Note_on_c, 0, 64, 0
2, 262632, Note_on_c, 0, 54, 0
2, 262658, Note_on_c, 0, 91, 0
2, 262678, Note_on_c, 0, 79, 0
2, 263005, Control_c, 0, 64, 0
2, 263039, Note_on_c, 0, 63, 49
2, 263053, Note_on_c, 0, 54, 42
2, 263062, Note_on_c, 0, 92, 56
2, 263073, Note_on_c, 0, 80, 40
2, 263076, Note_on_c, 0, 59, 43
2, 263081, Note_on_c, 0, 58, 49
2, 263150, Control_c, 0, 64, 127
2, 263589, Note_on_c, 0, 63, 0
2, 263669, Note_on_c, 0, 54, 0
2, 263683, Note_on_c, 0, 80, 0
2, 263715, Note_on_c, 0, 92, 0
2, 263811, Note_on_c, 0, 58, 0
2, 263830, Note_on_c, 0, 59, 0
2, 264004, Control_c, 0, 64, 0
2, 264048, Note_on_c, 0, 63, 57
2, 264054, Note_on_c, 0, 93, 62
2, 264067, Note_on_c, 0, 59, 41
2, 264074, Note_on_c, 0, 87, 37
2, 264078, Note_on_c, 0, 81, 44
2, 264083, Note_on_c, 0, 53, 27
2, 264150, Control_c, 0, 64, 127
2, 264186, Note_on_c, 0, 63, 0
2, 264229, Note_on_c, 0, 59, 0
2, 264275, Note_on_c, 0, 53, 0
2, 264331, Note_on_c, 0, 93, 0
2, 264377, Note_on_c, 0, 81, 0
2, 264500, Note_on_c, 0, 87, 0
2, 264570, Note_on_c, 0, 94, 53
2, 264577, Note_on_c, 0, 87, 45
2, 264610, Note_on_c, 0, 82, 33
2, 264758, Note_on_c, 0, 82, 0
2, 264806, Note_on_c, 0, 94, 0
2, 264845, Note_on_c, 0, 87, 0
2, 265003, Control_c, 0, 64, 0
2, 265019, Note_on_c, 0, 43, 25
2, 265034, Note_on_c, 0, 36, 34
2, 265036, Note_on_c, 0, 95, 55
2, 265049, Note_on_c, 0, 52, 48
2, 265059, Note_on_c, 0, 88, 43
2, 265063, Note_on_c, 0, 83, 26
2, 265081, Note_on_c, 0, 91, 36
2, 265148, Control_c, 0, 64, 127
2, 265277, Note_on_c, 0, 36, 0
2, 265298, Note_on_c, 0, 95, 0
2, 265316, Note_on_c, 0, 91, 0
2, 265327, Note_on_c, 0, 88, 0
2, 265350, Note_on_c, 0, 43, 0
2, 265406, Note_on_c, 0, 83, 0
2, 265411, Note_on_c, 0, 52, 0
2, 265971, Note_on_c, 0, 86, 80
2, 265983, Note_on_c, 0, 79, 80
2, 265986, Note_on_c, 0, 71, 64
2, 265987, Note_on_c, 0, 83, 71
2, 265988, Note_on_c, 0, 76, 76
2, 266073, Note_on_c, 0, 83, 0
2, 266078, Note_on_c, 0, 76, 0
2, 266085, Note_on_c, 0, 71, 0
2, 266111, Note_on_c, 0, 79, 0
2, 266118, Note_on_c, 0, 86, 0
2, 266227, Control_c, 0, 64, 0
2, 266389, Note_on_c, 0, 83, 71
2, 266395, Note_on_c, 0, 76, 69
2, 266405, Note_on_c, 0, 67, 55
2, 266494, Note_on_c, 0, 76, 0
2, 266498, Note_on_c, 0, 67, 0
2, 266507, Note_on_c, 0, 83, 0
2, 266732, Note_on_c, 0, 64, 57
2, 266742, Note_on_c, 0, 79, 45
2, 266752, Note_on_c, 0, 76, 41
2, 266754, Note_on_c, 0, 72, 26
2, 266766, Note_on_c, 0, 69, 31
2, 266779, Note_on_c, 0, 71, 27
2, 266818, Note_on_c, 0, 76, 0
2, 266819, Note_on_c, 0, 71, 0
2, 266839, Note_on_c, 0, 79, 0
2, 266850, Note_on_c, 0, 69, 0
2, 266851, Note_on_c, 0, 64, 0
2, 267016, Note_on_c, 0, 76, 61
2, 267021, Note_on_c, 0, 69, 59
2, 267037, Note_on_c, 0, 67, 47
2, 267044, Note_on_c, 0, 60, 40
2, 267134, Note_on_c, 0, 69, 0
2, 267161, Note_on_c, 0, 76, 0
2, 267162, Note_on_c, 0, 60, 0
2, 267173, Note_on_c, 0, 67, 0
2, 267312, Note_on_c, 0, 72, 0
2, 267397, Note_on_c, 0, 72, 18
2, 267404, Note_on_c, 0, 67, 57
2, 267429, Note_on_c, 0, 64, 32
2, 267452, Note_on_c, 0, 57, 43
2, 267473, Note_on_c, 0, 64, 0
2, 267505, Note_on_c, 0, 67, 0
2, 267550, Note_on_c, 0, 57, 0
2, 267667, Note_on_c, 0, 72, 0
2, 267694, Note_on_c, 0, 57, 54
2, 267767, Note_on_c, 0, 57, 0
2, 267964, Note_on_c, 0, 70, 57
2, 267970, Note_on_c, 0, 61, 62
2, 267974, Note_on_c, 0, 66, 55
2, 267977, Note_on_c, 0, 55, 46
2, 268322, Note_on_c, 0, 55, 0
2, 268345, Note_on_c, 0, 52, 50
2, 268415, Control_c, 0, 64, 127
2, 268607, Control_c, 0, 64, 0
2, 268620, Note_on_c, 0, 52, 0
2, 268642, Note_on_c, 0, 61, 0
2, 268644, Note_on_c, 0, 70, 0
2, 268668, Note_on_c, 0, 49, 52
2, 268676, Note_on_c, 0, 66, 0
2, 268885, Note_on_c, 0, 49, 0
2, 268919, Note_on_c, 0, 69, 53
2, 268922, Note_on_c, 0, 50, 55
2, 268934, Note_on_c, 0, 65, 40
2, 268941, Note_on_c, 0, 60, 32
2, 269021, Control_c, 0, 64, 127
2, 269135, Note_on_c, 0, 69, 0
2, 269151, Note_on_c, 0, 65, 0
2, 269228, Note_on_c, 0, 38, 50
2, 269242, Note_on_c, 0, 60, 0
2, 269382, Note_on_c, 0, 50, 0
2, 269505, Control_c, 0, 64, 0
2, 269542, Note_on_c, 0, 60, 51
2, 269550, Note_on_c, 0, 57, 58
2, 269563, Note_on_c, 0, 50, 44
2, 269853, Note_on_c, 0, 50, 0
2, 269889, Note_on_c, 0, 45, 62
2, 269949, Note_on_c, 0, 38, 0
2, 270093, Note_on_c, 0, 45, 0
2, 270187, Note_on_c, 0, 41, 35
2, 270401, Note_on_c, 0, 41, 0
2, 270490, Note_on_c, 0, 42, 53
2, 270522, Note_on_c, 0, 60, 0
2, 270571, Note_on_c, 0, 57, 0
2, 270799, Note_on_c, 0, 61, 31
2, 270806, Note_on_c, 0, 42, 0
2, 270815, Note_on_c, 0, 55, 24
2, 270826, Note_on_c, 0, 43, 33
2, 270826, Note_on_c, 0, 59, 37
2, 270930, Control_c, 0, 64, 127
2, 270996, Note_on_c, 0, 55, 0
2, 271054, Note_on_c, 0, 59, 0
2, 271094, Note_on_c, 0, 61, 0
2, 271099, Note_on_c, 0, 55, 34
2, 271196, Note_on_c, 0, 55, 0
2, 271203, Note_on_c, 0, 59, 31
2, 271316, Note_on_c, 0, 59, 0
2, 271334, Note_on_c, 0, 63, 53
2, 271384, Note_on_c, 0, 63, 0
2, 271468, Note_on_c, 0, 43, 0
2, 271490, Note_on_c, 0, 67, 59
2, 271561, Note_on_c, 0, 67, 0
2, 271595, Note_on_c, 0, 71, 55
2, 271727, Control_c, 0, 64, 0
2, 271728, Note_on_c, 0, 71, 0
2, 271733, Note_on_c, 0, 75, 59
2, 272019, Note_on_c, 0, 75, 0
2, 272173, Note_on_c, 0, 71, 68
2, 272277, Control_c, 0, 64, 127
2, 272357, Note_on_c, 0, 71, 0
2, 272397, Note_on_c, 0, 73, 44
2, 272547, Note_on_c, 0, 73, 0
2, 272614, Control_c, 0, 64, 0
2, 272616, Note_on_c, 0, 75, 64
2, 272649, Note_on_c, 0, 62, 38
2, 272691, Note_on_c, 0, 52, 17
2, 272693, Note_on_c, 0, 56, 30
2, 272843, Note_on_c, 0, 75, 0
2, 272849, Note_on_c, 0, 76, 62
2, 273122, Note_on_c, 0, 72, 40
2, 273133, Note_on_c, 0, 76, 0
2, 273182, Note_on_c, 0, 56, 0
2, 273191, Note_on_c, 0, 52, 0
2, 273302, Note_on_c, 0, 62, 0
2, 273649, Note_on_c, 0, 67, 30
2, 273651, Note_on_c, 0, 56, 29
2, 273656, Note_on_c, 0, 62, 34
2, 274100, Note_on_c, 0, 72, 0
2, 274153, Note_on_c, 0, 67, 0
2, 274248, Note_on_c, 0, 62, 0
2, 274388, Control_c, 0, 64, 127
2, 274547, Note_on_c, 0, 56, 0
2, 274579, Control_c, 0, 64, 0
2, 274635, Note_on_c, 0, 61, 37
2, 274647, Note_on_c, 0, 55, 30
2, 274647, Note_on_c, 0, 65, 35
2, 275359, Note_on_c, 0, 65, 0
2, 275367, Note_on_c, 0, 85, 73
2, 275376, Note_on_c, 0, 87, 59
2, 275478, Note_on_c, 0, 87, 0
2, 275504, Note_on_c, 0, 85, 0
2, 275603, Note_on_c, 0, 61, 0
2, 275652, Note_on_c, 0, 79, 36
2, 275726, Note_on_c, 0, 79, 0
2, 275924, Note_on_c, 0, 79, 30
2, 275982, Note_on_c, 0, 79, 0
2, 276042, Note_on_c, 0, 55, 0
2, 276137, Note_on_c, 0, 87, 65
2, 276144, Note_on_c, 0, 85, 60
2, 276297, Note_on_c, 0, 87, 0
2, 276308, Note_on_c, 0, 85, 0
2, 276384, Note_on_c, 0, 79, 47
2, 276440, Note_on_c, 0, 79, 0
2, 276601, Note_on_c, 0, 54, 56
2, 276650, Note_on_c, 0, 60, 32
2, 276849, Note_on_c, 0, 86, 64
2, 276850, Note_on_c, 0, 84, 66
2, 276951, Note_on_c, 0, 84, 0
2, 276964, Note_on_c, 0, 86, 0
2, 277093, Note_on_c, 0, 80, 57
2, 277103, Note_on_c, 0, 78, 33
2, 277142, Note_on_c, 0, 78, 0
2, 277190, Note_on_c, 0, 80, 0
2, 277358, Note_on_c, 0, 78, 44
2, 277360, Note_on_c, 0, 80, 46
2, 277410, Note_on_c, 0, 60, 0
2, 277440, Note_on_c, 0, 78, 0
2, 277459, Note_on_c, 0, 80, 0
2, 277585, Note_on_c, 0, 86, 71
2, 277606, Note_on_c, 0, 64, 40
2, 277630, Note_on_c, 0, 60, 27
2, 277721, Note_on_c, 0, 86, 0
2, 277806, Note_on_c, 0, 80, 54
2, 277820, Note_on_c, 0, 78, 31
2, 277860, Note_on_c, 0, 78, 0
2, 277903, Note_on_c, 0, 80, 0
2, 277904, Note_on_c, 0, 54, 0
2, 277994, Note_on_c, 0, 64, 0
2, 278026, Note_on_c, 0, 60, 0
2, 278054, Note_on_c, 0, 80, 50
2, 278062, Note_on_c, 0, 78, 38
2, 278120, Note_on_c, 0, 78, 0
2, 278183, Note_on_c, 0, 80, 0
2, 278492, Note_on_c, 0, 64, 49
2, 278509, Control_c, 0, 64, 127
2, 278514, Note_on_c, 0, 59, 35
2, 278539, Note_on_c, 0, 53, 22
2, 278611, Note_on_c, 0, 64, 0
2, 278673, Note_on_c, 0, 59, 0
2, 278711, Note_on_c, 0, 53, 0
2, 278788, Note_on_c, 0, 83, 66
2, 278790, Note_on_c, 0, 85, 48
2, 278937, Note_on_c, 0, 83, 0
2, 278946, Control_c, 0, 64, 0
2, 278952, Note_on_c, 0, 85, 0
2, 278980, Control_c, 0, 64, 127
2, 279033, Note_on_c, 0, 76, 27
2, 279116, Note_on_c, 0, 76, 0
2, 279247, Note_on_c, 0, 77, 53
2, 279350, Control_c, 0, 64, 0
2, 279358, Note_on_c, 0, 77, 0
2, 279446, Note_on_c, 0, 43, 35
2, 279472, Note_on_c, 0, 83, 62
2, 279474, Note_on_c, 0, 85, 51
2, 279551, Control_c, 0, 64, 127
2, 279567, Note_on_c, 0, 43, 0
2, 279633, Note_on_c, 0, 83, 0
2, 279658, Note_on_c, 0, 85, 0
2, 279702, Note_on_c, 0, 77, 54
2, 279820, Note_on_c, 0, 77, 0
2, 279932, Note_on_c, 0, 77, 51
2, 280035, Note_on_c, 0, 77, 0
2, 280150, Note_on_c, 0, 77, 38
2, 280206, Note_on_c, 0, 77, 0
2, 280338, Control_c, 0, 64, 0
2, 280375, Note_on_c, 0, 43, 27
2, 280386, Note_on_c, 0, 36, 38
2, 280391, Note_on_c, 0, 52, 32
2, 280396, Note_on_c, 0, 75, 62
2, 280397, Note_on_c, 0, 83, 48
2, 280410, Note_on_c, 0, 71, 58
2, 280494, Control_c, 0, 64, 127
2, 280533, Note_on_c, 0, 36, 0
2, 280615, Note_on_c, 0, 43, 0
2, 280692, Note_on_c, 0, 52, 0
2, 280804, Note_on_c, 0, 71, 0
2, 280814, Note_on_c, 0, 83, 0
2, 280894, Note_on_c, 0, 75, 0
2, 281330, Note_on_c, 0, 76, 62
2, 281332, Note_on_c, 0, 84, 60
2, 281347, Note_on_c, 0, 72, 61
2, 281348, Note_on_c, 0, 79, 55
2, 281356, Note_on_c, 0, 62, 47
2, 281357, Note_on_c, 0, 57, 52
2, 281367, Note_on_c, 0, 52, 27
2, 281562, Note_on_c, 0, 52, 0
2, 281576, Note_on_c, 0, 62, 0
2, 281604, Note_on_c, 0, 57, 0
2, 281683, Note_on_c, 0, 76, 0
2, 281725, Note_on_c, 0, 79, 0
2, 281757, Note_on_c, 0, 84, 0
2, 281809, Note_on_c, 0, 72, 0
2, 282215, Control_c, 0, 64, 0
2, 282267, Note_on_c, 0, 96, 87
2, 282273, Note_on_c, 0, 84, 91
2, 282274, Note_on_c, 0, 89, 84
2, 282275, Note_on_c, 0, 93, 85
2, 282280, Note_on_c, 0, 55, 78
2, 282281, Note_on_c, 0, 61, 79
2, 282282, Note_on_c, 0, 65, 88
2, 282401, Control_c, 0, 64, 127
2, 282490, Note_on_c, 0, 93, 0
2, 282513, Note_on_c, 0, 96, 0
2, 282530, Note_on_c, 0, 89, 0
2, 282575, Note_on_c, 0, 84, 0
2, 282581, Note_on_c, 0, 55, 0
2, 282601, Note_on_c, 0, 65, 0
2, 282642, Note_on_c, 0, 61, 0
2, 282783, Note_on_c, 0, 93, 81
2, 282788, Note_on_c, 0, 88, 84
2, 282794, Note_on_c, 0, 81, 80
2, 282795, Note_on_c, 0, 61, 78
2, 282796, Note_on_c, 0, 55, 71
2, 282798, Note_on_c, 0, 65, 84
2, 282924, Note_on_c, 0, 93, 0
2, 282944, Note_on_c, 0, 88, 0
2, 282985, Note_on_c, 0, 81, 0
2, 283041, Note_on_c, 0, 55, 0
2, 283059, Note_on_c, 0, 65, 0
2, 283098, Note_on_c, 0, 61, 0
2, 283209, Control_c, 0, 64, 0
2, 283268, Note_on_c, 0, 88, 60
2, 283275, Note_on_c, 0, 81, 62
2, 283277, Note_on_c, 0, 61, 74
2, 283280, Note_on_c, 0, 65, 75
2, 283281, Note_on_c, 0, 76, 64
2, 283283, Note_on_c, 0, 55, 68
2, 283287, Note_on_c, 0, 84, 53
2, 283318, Note_on_c, 0, 86, 34
2, 283349, Control_c, 0, 64, 127
2, 283456, Note_on_c, 0, 84, 0
2, 283457, Note_on_c, 0, 81, 0
2, 283465, Note_on_c, 0, 88, 0
2, 283486, Note_on_c, 0, 86, 0
2, 283498, Note_on_c, 0, 76, 0
2, 283558, Note_on_c, 0, 65, 0
2, 283566, Note_on_c, 0, 55, 0
2, 283615, Note_on_c, 0, 61, 0
2, 283734, Note_on_c, 0, 84, 50
2, 283739, Note_on_c, 0, 81, 64
2, 283740, Note_on_c, 0, 61, 67
2, 283750, Note_on_c, 0, 72, 59
2, 283751, Note_on_c, 0, 55, 57
2, 283751, Note_on_c, 0, 65, 66
2, 283775, Note_on_c, 0, 83, 36
2, 283843, Note_on_c, 0, 81, 0
2, 283850, Note_on_c, 0, 84, 0
2, 283856, Note_on_c, 0, 65, 0
2, 283871, Note_on_c, 0, 83, 0
2, 283921, Note_on_c, 0, 55, 0
2, 283965, Note_on_c, 0, 61, 0
2, 284049, Note_on_c, 0, 72, 0
2, 284179, Control_c, 0, 64, 0
2, 284203, Note_on_c, 0, 79, 68
2, 284214, Note_on_c, 0, 64, 79
2, 284217, Note_on_c, 0, 73, 57
2, 284218, Note_on_c, 0, 70, 70
2, 284427, Control_c, 0, 64, 127
2, 284561, Note_on_c, 0, 70, 0
2, 284574, Control_c, 0, 64, 0
2, 284600, Note_on_c, 0, 79, 0
2, 284621, Note_on_c, 0, 73, 0
2, 284650, Note_on_c, 0, 64, 0
2, 284661, Note_on_c, 0, 70, 36
2, 284664, Note_on_c, 0, 76, 55
2, 284666, Note_on_c, 0, 61, 56
2, 284703, Note_on_c, 0, 73, 12
2, 284764, Control_c, 0, 64, 127
2, 284794, Note_on_c, 0, 76, 0
2, 284819, Note_on_c, 0, 70, 0
2, 284918, Note_on_c, 0, 73, 0
2, 285022, Control_c, 0, 64, 0
2, 285107, Note_on_c, 0, 61, 0
2, 285110, Note_on_c, 0, 77, 61
2, 285139, Note_on_c, 0, 62, 47
2, 285145, Note_on_c, 0, 69, 49
2, 285149, Note_on_c, 0, 72, 40
2, 285191, Control_c, 0, 64, 127
2, 285282, Note_on_c, 0, 77, 0
2, 285284, Note_on_c, 0, 69, 0
2, 285312, Note_on_c, 0, 72, 0
2, 285472, Control_c, 0, 64, 0
2, 285537, Note_on_c, 0, 62, 0
2, 285594, Note_on_c, 0, 69, 51
2, 285610, Note_on_c, 0, 57, 51
2, 285611, Note_on_c, 0, 65, 37
2, 285627, Control_c, 0, 64, 127
2, 285745, Note_on_c, 0, 65, 0
2, 285788, Note_on_c, 0, 69, 0
2, 285953, Control_c, 0, 64, 0
2, 286043, Control_c, 0, 64, 127
2, 286044, Note_on_c, 0, 57, 0
2, 286061, Note_on_c, 0, 76, 41
2, 286066, Note_on_c, 0, 60, 38
2, 286073, Note_on_c, 0, 69, 56
2, 286093, Note_on_c, 0, 65, 38
2, 286124, Note_on_c, 0, 60, 0
2, 286193, Note_on_c, 0, 69, 0
2, 286199, Note_on_c, 0, 76, 0
2, 286237, Note_on_c, 0, 65, 0
2, 286437, Control_c, 0, 64, 0
2, 286540, Note_on_c, 0, 74, 48
2, 286542, Note_on_c, 0, 43, 32
2, 286559, Control_c, 0, 64, 127
2, 286565, Note_on_c, 0, 68, 36
2, 286572, Note_on_c, 0, 65, 36
2, 286626, Note_on_c, 0, 65, 0
2, 286662, Note_on_c, 0, 68, 0
2, 286663, Note_on_c, 0, 74, 0
2, 287010, Note_on_c, 0, 72, 46
2, 287025, Note_on_c, 0, 53, 32
2, 287027, Note_on_c, 0, 68, 30
2, 287148, Note_on_c, 0, 43, 0
2, 287391, Note_on_c, 0, 72, 0
2, 287463, Note_on_c, 0, 62, 47
2, 287472, Note_on_c, 0, 68, 0
2, 287499, Note_on_c, 0, 43, 28
2, 287542, Note_on_c, 0, 62, 0
2, 287600, Note_on_c, 0, 53, 0
2, 287727, Note_on_c, 0, 43, 0
2, 287927, Note_on_c, 0, 67, 52
2, 287930, Control_c, 0, 64, 0
2, 287931, Note_on_c, 0, 62, 49
2, 287934, Note_on_c, 0, 56, 59
2, 288458, Note_on_c, 0, 40, 36
2, 288466, Note_on_c, 0, 38, 32
2, 288520, Note_on_c, 0, 38, 0
2, 288595, Note_on_c, 0, 40, 0
2, 288911, Note_on_c, 0, 50, 51
2, 289379, Note_on_c, 0, 50, 0
2, 289394, Note_on_c, 0, 62, 0
2, 289423, Note_on_c, 0, 67, 0
2, 289430, Note_on_c, 0, 44, 40
2, 289431, Note_on_c, 0, 56, 0
2, 289590, Control_c, 0, 64, 127
2, 289816, Control_c, 0, 64, 0
2, 289883, Note_on_c, 0, 44, 0
2, 289904, Note_on_c, 0, 64, 40
2, 289907, Note_on_c, 0, 55, 31
2, 289910, Note_on_c, 0, 45, 48
2, 289911, Note_on_c, 0, 60, 37
2, 290029, Control_c, 0, 64, 127
2, 290293, Note_on_c, 0, 55, 0
2, 290320, Note_on_c, 0, 45, 0
2, 290356, Note_on_c, 0, 60, 0
2, 290395, Note_on_c, 0, 64, 0
2, 290947, Note_on_c, 0, 64, 47
2, 290951, Note_on_c, 0, 55, 33
2, 290959, Note_on_c, 0, 60, 39
2, 291095, Note_on_c, 0, 55, 0
2, 291263, Note_on_c, 0, 60, 0
2, 291413, Note_on_c, 0, 64, 0
2, 291852, Note_on_c, 0, 60, 32
2, 291864, Note_on_c, 0, 54, 35
2, 291878, Note_on_c, 0, 50, 24
2, 291914, Control_c, 0, 64, 0
2, 292025, Note_on_c, 0, 64, 57
2, 292145, Note_on_c, 0, 64, 0
2, 292155, Note_on_c, 0, 66, 34
2, 292265, Note_on_c, 0, 68, 50
2, 292272, Note_on_c, 0, 66, 0
2, 292343, Note_on_c, 0, 68, 0
2, 292419, Note_on_c, 0, 71, 41
2, 292558, Note_on_c, 0, 71, 0
2, 292700, Note_on_c, 0, 60, 0
2, 292817, Note_on_c, 0, 73, 51
2, 292915, Note_on_c, 0, 73, 0
2, 292970, Note_on_c, 0, 60, 28
2, 293014, Note_on_c, 0, 75, 57
2, 293101, Note_on_c, 0, 75, 0
2, 293157, Note_on_c, 0, 76, 46
2, 293278, Note_on_c, 0, 76, 0
2, 293332, Note_on_c, 0, 77, 50
2, 293425, Note_on_c, 0, 77, 0
2, 293454, Note_on_c, 0, 78, 47
2, 293499, Note_on_c, 0, 78, 0
2, 293510, Note_on_c, 0, 50, 0
2, 293568, Note_on_c, 0, 79, 35
2, 293569, Note_on_c, 0, 54, 0
2, 293604, Note_on_c, 0, 60, 0
2, 293648, Note_on_c, 0, 79, 0
2, 293668, Note_on_c, 0, 80, 44
2, 293796, Note_on_c, 0, 80, 0
2, 293816, Note_on_c, 0, 81, 48
2, 293928, Note_on_c, 0, 81, 0
2, 293937, Note_on_c, 0, 84, 65
2, 294014, Note_on_c, 0, 65, 32
2, 294023, Note_on_c, 0, 55, 22
2, 294043, Note_on_c, 0, 60, 32
2, 294052, Note_on_c, 0, 57, 27
2, 294066, Note_on_c, 0, 84, 0
2, 294089, Note_on_c, 0, 81, 39
2, 294183, Control_c, 0, 64, 127
2, 294287, Note_on_c, 0, 81, 0
2, 294330, Note_on_c, 0, 77, 50
2, 294430, Note_on_c, 0, 60, 0
2, 294444, Note_on_c, 0, 65, 0
2, 294531, Note_on_c, 0, 55, 0
2, 294544, Note_on_c, 0, 57, 0
2, 294695, Note_on_c, 0, 77, 0
2, 294854, Note_on_c, 0, 64, 44
2, 294872, Note_on_c, 0, 59, 36
2, 294884, Note_on_c, 0, 53, 28
2, 294890, Control_c, 0, 64, 0
2, 295035, Control_c, 0, 64, 127
2, 295218, Note_on_c, 0, 71, 41
2, 295361, Note_on_c, 0, 64, 0
2, 295379, Note_on_c, 0, 80, 69
2, 295404, Note_on_c, 0, 71, 0
2, 295410, Note_on_c, 0, 53, 0
2, 295515, Note_on_c, 0, 80, 0
2, 295546, Note_on_c, 0, 83, 67
2, 295584, Note_on_c, 0, 59, 0
2, 295704, Note_on_c, 0, 83, 0
2, 295754, Control_c, 0, 64, 0
2, 295763, Note_on_c, 0, 62, 44
2, 295774, Note_on_c, 0, 59, 28
2, 295778, Note_on_c, 0, 83, 71
2, 295779, Note_on_c, 0, 55, 32
2, 295781, Note_on_c, 0, 71, 65
2, 295787, Note_on_c, 0, 52, 28
2, 295834, Note_on_c, 0, 80, 23
2, 295921, Note_on_c, 0, 80, 0
2, 295954, Note_on_c, 0, 83, 0
2, 295957, Control_c, 0, 64, 127
2, 295958, Note_on_c, 0, 71, 0
2, 296058, Note_on_c, 0, 84, 73
2, 296076, Note_on_c, 0, 72, 43
2, 296196, Note_on_c, 0, 84, 0
2, 296272, Note_on_c, 0, 62, 0
2, 296309, Note_on_c, 0, 84, 65
2, 296381, Note_on_c, 0, 55, 0
2, 296388, Note_on_c, 0, 59, 0
2, 296449, Note_on_c, 0, 52, 0
2, 296456, Note_on_c, 0, 84, 0
2, 296537, Note_on_c, 0, 84, 55
2, 296672, Note_on_c, 0, 84, 0
2, 296698, Control_c, 0, 64, 0
2, 296754, Note_on_c, 0, 62, 33
2, 296762, Note_on_c, 0, 84, 48
2, 296765, Control_c, 0, 64, 127
2, 296771, Note_on_c, 0, 59, 30
2, 296773, Note_on_c, 0, 55, 32
2, 296913, Note_on_c, 0, 84, 0
2, 297023, Note_on_c, 0, 59, 0
2, 297027, Note_on_c, 0, 55, 0
2, 297039, Note_on_c, 0, 62, 0
2, 297132, Note_on_c, 0, 72, 0
2, 297184, Note_on_c, 0, 81, 57
2, 297210, Note_on_c, 0, 69, 50
2, 297311, Note_on_c, 0, 69, 0
2, 297327, Note_on_c, 0, 81, 0
2, 297418, Note_on_c, 0, 81, 50
2, 297429, Note_on_c, 0, 69, 49
2, 297559, Note_on_c, 0, 69, 0
2, 297560, Note_on_c, 0, 81, 0
2, 297596, Control_c, 0, 64, 0
2, 297653, Note_on_c, 0, 81, 54
2, 297657, Note_on_c, 0, 61, 35
2, 297658, Note_on_c, 0, 55, 37
2, 297662, Note_on_c, 0, 65, 40
2, 297663, Note_on_c, 0, 69, 53
2, 297719, Control_c, 0, 64, 127
2, 297767, Note_on_c, 0, 65, 0
2, 297821, Note_on_c, 0, 61, 0
2, 297837, Note_on_c, 0, 55, 0
2, 297890, Note_on_c, 0, 81, 0
2, 297983, Note_on_c, 0, 69, 0
2, 298126, Note_on_c, 0, 45, 60
2, 298871, Note_on_c, 0, 45, 0
2, 298920, Control_c, 0, 64, 0
2, 298961, Note_on_c, 0, 70, 72
2, 298966, Note_on_c, 0, 61, 81
2, 298966, Note_on_c, 0, 66, 74
2, 298967, Note_on_c, 0, 55, 67
2, 299280, Note_on_c, 0, 54, 75
2, 299287, Note_on_c, 0, 55, 0
2, 299313, Control_c, 0, 64, 127
2, 299512, Note_on_c, 0, 61, 0
2, 299523, Note_on_c, 0, 70, 0
2, 299543, Note_on_c, 0, 66, 0
2, 299549, Control_c, 0, 64, 0
2, 299570, Note_on_c, 0, 54, 0
2, 299607, Note_on_c, 0, 69, 69
2, 299614, Note_on_c, 0, 60, 69
2, 299616, Note_on_c, 0, 65, 70
2, 299618, Note_on_c, 0, 53, 62
2, 299743, Control_c, 0, 64, 127
2, 300135, Note_on_c, 0, 69, 0
2, 300248, Note_on_c, 0, 60, 0
2, 300270, Note_on_c, 0, 65, 0
2, 300464, Note_on_c, 0, 53, 0
2, 300517, Control_c, 0, 64, 0
2, 300522, Note_on_c, 0, 68, 61
2, 300537, Note_on_c, 0, 65, 60
2, 300542, Note_on_c, 0, 50, 47
2, 300546, Note_on_c, 0, 60, 56
2, 300630, Control_c, 0, 64, 127
2, 300874, Note_on_c, 0, 65, 0
2, 300959, Note_on_c, 0, 60, 0
2, 301076, Note_on_c, 0, 68, 0
2, 301440, Note_on_c, 0, 50, 0
2, 301477, Note_on_c, 0, 43, 54
2, 301620, Note_on_c, 0, 43, 0
2, 301749, Note_on_c, 0, 89, 45
2, 301833, Note_on_c, 0, 89, 0
2, 301838, Note_on_c, 0, 92, 64
2, 301886, Control_c, 0, 64, 0
2, 301941, Note_on_c, 0, 89, 42
2, 301982, Note_on_c, 0, 92, 0
2, 302021, Note_on_c, 0, 89, 0
2, 302048, Note_on_c, 0, 86, 50
2, 302142, Note_on_c, 0, 86, 0
2, 302188, Note_on_c, 0, 85, 49
2, 302289, Note_on_c, 0, 84, 49
2, 302365, Note_on_c, 0, 85, 0
2, 302395, Note_on_c, 0, 84, 0
2, 302420, Note_on_c, 0, 83, 47
2, 302474, Note_on_c, 0, 83, 0
2, 302533, Note_on_c, 0, 82, 51
2, 302534, Note_on_c, 0, 62, 17
2, 302539, Note_on_c, 0, 56, 25
2, 302548, Note_on_c, 0, 59, 22
2, 302553, Note_on_c, 0, 53, 24
2, 302641, Note_on_c, 0, 82, 0
2, 302694, Note_on_c, 0, 81, 22
2, 302769, Note_on_c, 0, 80, 52
2, 302800, Note_on_c, 0, 81, 0
2, 302976, Note_on_c, 0, 80, 0
2, 303172, Note_on_c, 0, 53, 0
2, 303196, Note_on_c, 0, 62, 0
2, 303214, Note_on_c, 0, 56, 0
2, 303279, Control_c, 0, 64, 127
2, 303291, Note_on_c, 0, 59, 0
2, 303413, Control_c, 0, 64, 0
2, 303440, Note_on_c, 0, 59, 32
2, 303447, Note_on_c, 0, 55, 33
2, 303458, Note_on_c, 0, 52, 30
2, 303481, Note_on_c, 0, 62, 24
2, 303784, Note_on_c, 0, 83, 65
2, 303905, Note_on_c, 0, 83, 0
2, 303926, Note_on_c, 0, 84, 68
2, 304070, Note_on_c, 0, 62, 0
2, 304085, Note_on_c, 0, 86, 70
2, 304157, Note_on_c, 0, 59, 0
2, 304221, Note_on_c, 0, 86, 0
2, 304230, Note_on_c, 0, 83, 54
2, 304254, Note_on_c, 0, 84, 0
2, 304346, Note_on_c, 0, 83, 0
2, 304387, Note_on_c, 0, 79, 37
2, 304449, Note_on_c, 0, 62, 24
2, 304459, Note_on_c, 0, 59, 24
2, 304489, Note_on_c, 0, 79, 0
2, 304523, Note_on_c, 0, 76, 47
2, 304653, Note_on_c, 0, 76, 0
2, 304757, Note_on_c, 0, 72, 17
2, 304861, Control_c, 0, 64, 127
2, 304907, Note_on_c, 0, 71, 36
2, 304980, Note_on_c, 0, 72, 0
2, 305063, Note_on_c, 0, 71, 0
2, 305102, Note_on_c, 0, 62, 0
2, 305127, Note_on_c, 0, 59, 0
2, 305143, Note_on_c, 0, 55, 0
2, 305155, Note_on_c, 0, 52, 0
2, 305356, Control_c, 0, 64, 0
2, 305360, Note_on_c, 0, 72, 31
2, 305362, Note_on_c, 0, 68, 36
2, 305363, Note_on_c, 0, 65, 39
2, 305384, Note_on_c, 0, 64, 49
2, 305512, Control_c, 0, 64, 127
2, 305734, Note_on_c, 0, 64, 0
2, 305864, Note_on_c, 0, 62, 47
2, 306020, Note_on_c, 0, 65, 0
2, 306211, Note_on_c, 0, 72, 0
2, 306265, Control_c, 0, 64, 0
2, 306266, Note_on_c, 0, 68, 0
2, 306267, Note_on_c, 0, 62, 0
2, 306300, Note_on_c, 0, 67, 49
2, 306319, Note_on_c, 0, 59, 45
2, 306321, Note_on_c, 0, 64, 36
2, 306445, Control_c, 0, 64, 127
2, 306707, Note_on_c, 0, 64, 0
2, 306718, Note_on_c, 0, 59, 0
2, 306753, Note_on_c, 0, 67, 0
2, 306758, Note_on_c, 0, 74, 67
2, 306786, Note_on_c, 0, 55, 32
2, 306888, Note_on_c, 0, 55, 0
2, 306941, Note_on_c, 0, 74, 0
2, 307174, Control_c, 0, 64, 0
2, 307259, Note_on_c, 0, 72, 44
2, 307271, Note_on_c, 0, 67, 42
2, 307273, Note_on_c, 0, 64, 42
2, 307293, Note_on_c, 0, 48, 31
2, 307310, Control_c, 0, 64, 127
2, 307394, Note_on_c, 0, 67, 0
2, 307400, Note_on_c, 0, 64, 0
2, 307456, Note_on_c, 0, 48, 0
2, 307499, Note_on_c, 0, 72, 0
2, 307838, Note_on_c, 0, 60, 54
2, 307845, Note_on_c, 0, 45, 66
2, 307849, Note_on_c, 0, 55, 61
2, 307854, Note_on_c, 0, 52, 68
2, 307871, Note_on_c, 0, 57, 55
2, 307896, Note_on_c, 0, 59, 30
2, 307926, Control_c, 0, 64, 0
2, 308083, Control_c, 0, 64, 127
2, 308114, Note_on_c, 0, 60, 0
2, 308119, Note_on_c, 0, 57, 0
2, 308127, Note_on_c, 0, 55, 0
2, 308139, Note_on_c, 0, 52, 0
2, 308174, Note_on_c, 0, 59, 0
2, 308230, Control_c, 0, 64, 0
2, 308265, Note_on_c, 0, 56, 75
2, 308272, Note_on_c, 0, 62, 62
2, 308278, Note_on_c, 0, 53, 58
2, 308296, Note_on_c, 0, 47, 68
2, 308301, Note_on_c, 0, 45, 0
2, 308409, Control_c, 0, 64, 127
2, 308527, Note_on_c, 0, 62, 0
2, 308598, Note_on_c, 0, 53, 0
2, 308613, Note_on_c, 0, 47, 0
2, 308662, Note_on_c, 0, 56, 0
2, 308713, Control_c, 0, 64, 0
2, 308752, Note_on_c, 0, 64, 69
2, 308759, Note_on_c, 0, 57, 73
2, 308761, Note_on_c, 0, 55, 60
2, 308766, Note_on_c, 0, 48, 62
2, 308768, Note_on_c, 0, 60, 56
2, 308881, Control_c, 0, 64, 127
2, 308947, Note_on_c, 0, 57, 0
2, 308949, Note_on_c, 0, 60, 0
2, 308960, Note_on_c, 0, 55, 0
2, 308964, Note_on_c, 0, 48, 0
2, 308967, Note_on_c, 0, 64, 0
2, 309218, Control_c, 0, 64, 0
2, 309222, Note_on_c, 0, 67, 68
2, 309234, Note_on_c, 0, 60, 66
2, 309235, Note_on_c, 0, 57, 66
2, 309242, Note_on_c, 0, 52, 57
2, 309308, Control_c, 0, 64, 127
2, 309563, Note_on_c, 0, 52, 0
2, 309567, Note_on_c, 0, 57, 0
2, 309573, Note_on_c, 0, 67, 0
2, 309588, Note_on_c, 0, 60, 0
2, 309738, Note_on_c, 0, 52, 62
2, 310125, Note_on_c, 0, 52, 0
2, 310129, Note_on_c, 0, 71, 70
2, 310139, Note_on_c, 0, 64, 76
2, 310146, Note_on_c, 0, 60, 64
2, 310149, Note_on_c, 0, 55, 50
2, 310150, Note_on_c, 0, 67, 55
2, 310304, Note_on_c, 0, 55, 0
2, 310469, Note_on_c, 0, 60, 0
2, 310619, Note_on_c, 0, 43, 43
2, 310629, Note_on_c, 0, 64, 0
2, 310642, Note_on_c, 0, 67, 46
2, 310643, Note_on_c, 0, 67, 0
2, 310655, Note_on_c, 0, 71, 0
2, 310767, Note_on_c, 0, 67, 0
2, 311081, Note_on_c, 0, 40, 51
2, 311102, Note_on_c, 0, 55, 30
2, 311103, Note_on_c, 0, 69, 85
2, 311106, Control_c, 0, 64, 0
2, 311113, Note_on_c, 0, 66, 73
2, 311114, Note_on_c, 0, 62, 87
2, 311398, Control_c, 0, 64, 127
2, 311442, Control_c, 0, 64, 0
2, 311445, Note_on_c, 0, 62, 0
2, 311471, Note_on_c, 0, 69, 0
2, 311473, Note_on_c, 0, 40, 0
2, 311488, Note_on_c, 0, 66, 0
2, 311495, Note_on_c, 0, 55, 0
2, 311521, Note_on_c, 0, 43, 0
2, 312139, Control_c, 0, 64, 127
2, 312375, Control_c, 0, 64, 0
2, 312407, Note_on_c, 0, 66, 45
2, 312409, Note_on_c, 0, 47, 44
2, 312411, Note_on_c, 0, 40, 51
2, 312412, Note_on_c, 0, 62, 57
2, 312414, Note_on_c, 0, 69, 45
2, 312510, Control_c, 0, 64, 127
2, 312577, Note_on_c, 0, 62, 0
2, 312591, Note_on_c, 0, 69, 0
2, 312609, Note_on_c, 0, 66, 0
2, 312660, Note_on_c, 0, 47, 0
2, 312720, Note_on_c, 0, 40, 0
2, 312768, Note_on_c, 0, 69, 36
2, 312770, Note_on_c, 0, 47, 24
2, 312778, Note_on_c, 0, 66, 31
2, 312780, Note_on_c, 0, 62, 36
2, 312801, Note_on_c, 0, 55, 29
2, 312826, Note_on_c, 0, 47, 0
2, 312879, Note_on_c, 0, 69, 0
2, 312880, Note_on_c, 0, 55, 0
2, 312901, Note_on_c, 0, 62, 0
2, 312970, Note_on_c, 0, 66, 0
2, 313004, Control_c, 0, 64, 0
2, 313061, Note_on_c, 0, 66, 26
2, 313082, Note_on_c, 0, 61, 53
2, 313083, Note_on_c, 0, 69, 49
2, 313084, Note_on_c, 0, 55, 43
2, 313093, Note_on_c, 0, 45, 49
2, 313172, Control_c, 0, 64, 127
2, 313207, Note_on_c, 0, 66, 0
2, 313243, Note_on_c, 0, 65, 33
2, 313576, Note_on_c, 0, 55, 0
2, 313694, Note_on_c, 0, 61, 0
2, 313714, Note_on_c, 0, 65, 0
2, 313747, Note_on_c, 0, 69, 0
2, 313909, Note_on_c, 0, 61, 50
2, 313916, Note_on_c, 0, 65, 50
2, 313940, Note_on_c, 0, 55, 33
2, 314094, Note_on_c, 0, 61, 0
2, 314158, Note_on_c, 0, 65, 0
2, 314159, Note_on_c, 0, 45, 0
2, 314265, Note_on_c, 0, 55, 0
2, 314660, Note_on_c, 0, 78, 69
2, 314893, Note_on_c, 0, 69, 51
2, 314967, Control_c, 0, 64, 0
2, 315007, Note_on_c, 0, 69, 0
2, 315160, Note_on_c, 0, 66, 55
2, 315341, Note_on_c, 0, 66, 0
2, 315505, Note_on_c, 0, 62, 47
2, 315693, Note_on_c, 0, 62, 0
2, 315824, Note_on_c, 0, 78, 0
2, 315844, Control_c, 0, 64, 127
2, 315866, Note_on_c, 0, 52, 51
2, 316136, Control_c, 0, 64, 0
2, 316198, Note_on_c, 0, 62, 49
2, 316247, Control_c, 0, 64, 127
2, 316499, Note_on_c, 0, 66, 52
2, 316824, Note_on_c, 0, 69, 37
2, 316854, Note_on_c, 0, 66, 0
2, 316862, Note_on_c, 0, 62, 0
2, 316896, Note_on_c, 0, 52, 0
2, 316933, Note_on_c, 0, 69, 0
2, 317146, Control_c, 0, 64, 0
2, 317170, Note_on_c, 0, 66, 63
2, 317172, Note_on_c, 0, 77, 61
2, 317173, Note_on_c, 0, 65, 65
2, 317202, Note_on_c, 0, 69, 41
2, 317207, Note_on_c, 0, 72, 39
2, 317382, Control_c, 0, 64, 127
2, 317482, Control_c, 0, 64, 0
2, 317522, Note_on_c, 0, 63, 52
2, 317562, Note_on_c, 0, 65, 0
2, 317652, Control_c, 0, 64, 127
2, 317653, Note_on_c, 0, 77, 0
2, 317685, Note_on_c, 0, 69, 0
2, 317712, Note_on_c, 0, 66, 0
2, 317808, Control_c, 0, 64, 0
2, 317814, Note_on_c, 0, 66, 51
2, 317816, Note_on_c, 0, 63, 0
2, 317817, Note_on_c, 0, 76, 66
2, 317844, Note_on_c, 0, 64, 60
2, 317850, Note_on_c, 0, 69, 35
2, 317976, Control_c, 0, 64, 127
2, 318125, Note_on_c, 0, 63, 64
2, 318131, Note_on_c, 0, 64, 0
2, 318233, Note_on_c, 0, 63, 0
2, 318255, Note_on_c, 0, 76, 0
2, 318291, Note_on_c, 0, 66, 0
2, 318431, Note_on_c, 0, 51, 50
2, 318517, Note_on_c, 0, 69, 0
2, 318518, Note_on_c, 0, 51, 0
2, 318717, Control_c, 0, 64, 0
2, 318753, Note_on_c, 0, 66, 34
2, 318768, Note_on_c, 0, 69, 34
2, 318782, Note_on_c, 0, 74, 36
2, 318790, Note_on_c, 0, 50, 34
2, 318826, Note_on_c, 0, 72, 0
2, 318863, Control_c, 0, 64, 127
2, 318908, Note_on_c, 0, 74, 0
2, 318938, Note_on_c, 0, 69, 0
2, 318951, Note_on_c, 0, 66, 0
2, 319082, Note_on_c, 0, 57, 53
2, 319401, Note_on_c, 0, 64, 74
2, 319404, Note_on_c, 0, 61, 67
2, 319411, Note_on_c, 0, 66, 60
2, 319411, Note_on_c, 0, 69, 63
2, 319987, Note_on_c, 0, 57, 0
2, 320057, Note_on_c, 0, 64, 0
2, 320093, Note_on_c, 0, 50, 0
2, 320162, Note_on_c, 0, 61, 0
2, 320216, Note_on_c, 0, 64, 47
2, 320324, Note_on_c, 0, 66, 0
2, 320426, Note_on_c, 0, 64, 0
2, 320435, Note_on_c, 0, 61, 46
2, 320521, Note_on_c, 0, 61, 0
2, 320603, Note_on_c, 0, 69, 0
2, 320682, Control_c, 0, 64, 0
2, 320704, Note_on_c, 0, 61, 59
2, 320714, Note_on_c, 0, 59, 58
2, 320716, Note_on_c, 0, 43, 34
2, 320725, Note_on_c, 0, 54, 42
2, 320874, Control_c, 0, 64, 127
2, 321190, Note_on_c, 0, 54, 0
2, 321430, Note_on_c, 0, 61, 0
2, 321441, Note_on_c, 0, 59, 0
2, 321687, Note_on_c, 0, 62, 47
2, 321689, Note_on_c, 0, 59, 48
2, 321704, Control_c, 0, 64, 0
2, 321714, Note_on_c, 0, 53, 29
2, 321793, Control_c, 0, 64, 127
2, 322086, Note_on_c, 0, 53, 0
2, 322126, Note_on_c, 0, 43, 0
2, 322228, Note_on_c, 0, 59, 0
2, 322232, Note_on_c, 0, 62, 0
2, 322546, Control_c, 0, 64, 0
2, 322574, Note_on_c, 0, 61, 39
2, 322592, Note_on_c, 0, 57, 43
2, 322613, Note_on_c, 0, 52, 32
2, 322617, Note_on_c, 0, 42, 35
2, 322692, Control_c, 0, 64, 127
2, 322788, Note_on_c, 0, 57, 0
2, 322870, Note_on_c, 0, 61, 0
2, 322906, Note_on_c, 0, 42, 0
2, 322950, Note_on_c, 0, 52, 0
2, 323527, Note_on_c, 0, 76, 67
2, 323544, Note_on_c, 0, 69, 62
2, 323548, Note_on_c, 0, 64, 64
2, 323567, Note_on_c, 0, 54, 42
2, 323585, Note_on_c, 0, 60, 30
2, 324062, Note_on_c, 0, 64, 0
2, 324113, Note_on_c, 0, 69, 0
2, 324142, Note_on_c, 0, 60, 0
2, 324238, Note_on_c, 0, 76, 0
2, 324342, Note_on_c, 0, 54, 0
2, 324494, Note_on_c, 0, 76, 64
2, 324512, Note_on_c, 0, 54, 36
2, 324513, Note_on_c, 0, 60, 33
2, 324515, Note_on_c, 0, 69, 54
2, 324522, Note_on_c, 0, 64, 53
2, 324627, Note_on_c, 0, 60, 0
2, 324689, Note_on_c, 0, 54, 0
2, 325006, Note_on_c, 0, 76, 0
2, 325022, Note_on_c, 0, 69, 0
2, 325063, Note_on_c, 0, 64, 0
2, 325449, Note_on_c, 0, 74, 58
2, 325454, Control_c, 0, 64, 0
2, 325456, Note_on_c, 0, 47, 35
2, 325467, Note_on_c, 0, 40, 33
2, 325470, Note_on_c, 0, 67, 51
2, 325505, Note_on_c, 0, 55, 17
2, 325511, Note_on_c, 0, 62, 24
2, 325722, Control_c, 0, 64, 127
2, 325938, Note_on_c, 0, 40, 0
2, 325994, Note_on_c, 0, 47, 0
2, 326031, Note_on_c, 0, 62, 0
2, 326076, Note_on_c, 0, 55, 0
2, 326081, Note_on_c, 0, 67, 0
2, 326158, Note_on_c, 0, 74, 0
2, 326397, Control_c, 0, 64, 0
2, 326431, Note_on_c, 0, 65, 57
2, 326434, Note_on_c, 0, 69, 47
2, 326442, Note_on_c, 0, 72, 46
2, 326845, Note_on_c, 0, 57, 57
2, 326991, Control_c, 0, 64, 127
2, 327033, Note_on_c, 0, 57, 0
2, 327091, Note_on_c, 0, 65, 0
2, 327154, Note_on_c, 0, 64, 61
2, 327184, Note_on_c, 0, 69, 0
2, 327349, Note_on_c, 0, 72, 0
2, 327493, Note_on_c, 0, 81, 58
2, 327789, Note_on_c, 0, 72, 34
2, 327905, Note_on_c, 0, 81, 0
2, 327968, Note_on_c, 0, 64, 0
2, 328099, Note_on_c, 0, 76, 49
2, 328261, Note_on_c, 0, 76, 0
2, 328273, Note_on_c, 0, 72, 0
2, 328361, Control_c, 0, 64, 0
2, 328389, Note_on_c, 0, 64, 20
2, 328395, Note_on_c, 0, 75, 43
2, 328398, Note_on_c, 0, 67, 29
2, 328401, Note_on_c, 0, 59, 30
2, 328411, Note_on_c, 0, 79, 27
2, 328413, Note_on_c, 0, 53, 24
2, 328573, Note_on_c, 0, 76, 43
2, 328587, Note_on_c, 0, 75, 0
2, 328643, Note_on_c, 0, 67, 0
2, 328733, Note_on_c, 0, 76, 0
2, 328749, Note_on_c, 0, 79, 0
2, 328758, Note_on_c, 0, 53, 0
2, 328766, Note_on_c, 0, 64, 0
2, 328830, Note_on_c, 0, 59, 0
2, 328911, Note_on_c, 0, 67, 34
2, 328914, Note_on_c, 0, 75, 50
2, 328923, Note_on_c, 0, 79, 30
2, 328927, Note_on_c, 0, 64, 34
2, 328933, Note_on_c, 0, 59, 22
2, 328941, Note_on_c, 0, 53, 29
2, 329146, Note_on_c, 0, 76, 26
2, 329153, Note_on_c, 0, 67, 0
2, 329180, Note_on_c, 0, 53, 0
2, 329185, Note_on_c, 0, 64, 0
2, 329186, Note_on_c, 0, 75, 0
2, 329209, Note_on_c, 0, 79, 0
2, 329214, Note_on_c, 0, 59, 0
2, 329218, Note_on_c, 0, 76, 0
2, 329494, Control_c, 0, 64, 127
2, 329753, Control_c, 0, 64, 0
2, 329813, Note_on_c, 0, 75, 55
2, 329827, Note_on_c, 0, 64, 48
2, 329830, Note_on_c, 0, 67, 41
2, 329833, Note_on_c, 0, 79, 40
2, 329838, Note_on_c, 0, 53, 35
2, 329839, Note_on_c, 0, 59, 35
2, 329921, Control_c, 0, 64, 127
2, 329930, Note_on_c, 0, 76, 47
2, 329947, Note_on_c, 0, 75, 0
2, 329967, Note_on_c, 0, 67, 0
2, 329984, Note_on_c, 0, 76, 0
2, 330047, Note_on_c, 0, 79, 0
2, 330065, Note_on_c, 0, 64, 0
2, 330084, Note_on_c, 0, 59, 0
2, 330235, Control_c, 0, 64, 0
2, 330261, Note_on_c, 0, 76, 34
2, 330266, Note_on_c, 0, 65, 51
2, 330271, Note_on_c, 0, 69, 41
2, 330276, Note_on_c, 0, 72, 40
2, 330281, Note_on_c, 0, 64, 49
2, 330483, Note_on_c, 0, 64, 0
2, 330527, Note_on_c, 0, 65, 0
2, 330538, Note_on_c, 0, 69, 0
2, 330594, Note_on_c, 0, 76, 0
2, 330733, Note_on_c, 0, 76, 44
2, 330751, Note_on_c, 0, 65, 39
2, 330757, Note_on_c, 0, 64, 54
2, 330769, Note_on_c, 0, 69, 28
2, 330945, Note_on_c, 0, 53, 0
2, 331014, Note_on_c, 0, 65, 0
2, 331036, Note_on_c, 0, 69, 0
2, 331054, Note_on_c, 0, 76, 0
2, 331222, Note_on_c, 0, 76, 46
2, 331230, Note_on_c, 0, 69, 44
2, 331243, Note_on_c, 0, 65, 38
2, 331301, Control_c, 0, 64, 127
2, 331454, Note_on_c, 0, 64, 0
2, 331606, Control_c, 0, 64, 0
2, 331702, Note_on_c, 0, 50, 43
2, 331762, Control_c, 0, 64, 127
2, 331825, Note_on_c, 0, 50, 0
2, 331854, Note_on_c, 0, 65, 0
2, 331863, Note_on_c, 0, 69, 0
2, 332027, Note_on_c, 0, 76, 0
2, 332154, Control_c, 0, 64, 0
2, 332165, Note_on_c, 0, 72, 0
2, 332169, Note_on_c, 0, 76, 62
2, 332177, Note_on_c, 0, 71, 61
2, 332180, Note_on_c, 0, 68, 55
2, 332185, Note_on_c, 0, 65, 62
2, 332195, Note_on_c, 0, 64, 58
2, 332325, Control_c, 0, 64, 127
2, 332517, Note_on_c, 0, 64, 0
2, 332650, Note_on_c, 0, 63, 70
2, 332953, Note_on_c, 0, 65, 0
2, 332972, Note_on_c, 0, 71, 0
2, 332991, Note_on_c, 0, 68, 0
2, 333011, Note_on_c, 0, 63, 0
2, 333034, Note_on_c, 0, 76, 0
2, 333099, Control_c, 0, 64, 0
2, 333131, Note_on_c, 0, 62, 52
2, 333132, Note_on_c, 0, 65, 57
2, 333134, Note_on_c, 0, 68, 44
2, 333136, Note_on_c, 0, 74, 49
2, 333137, Note_on_c, 0, 71, 54
2, 333248, Control_c, 0, 64, 127
2, 333595, Note_on_c, 0, 65, 0
2, 333604, Note_on_c, 0, 53, 38
2, 333619, Note_on_c, 0, 68, 0
2, 333621, Note_on_c, 0, 71, 0
2, 333650, Note_on_c, 0, 74, 0
2, 333777, Note_on_c, 0, 62, 0
2, 333785, Note_on_c, 0, 53, 0
2, 334089, Control_c, 0, 64, 0
2, 334167, Control_c, 0, 64, 127
2, 334549, Control_c, 0, 64, 0
2, 334574, Note_on_c, 0, 52, 50
2, 334578, Note_on_c, 0, 81, 61
2, 334580, Note_on_c, 0, 74, 71
2, 334582, Note_on_c, 0, 78, 54
2, 334585, Note_on_c, 0, 62, 57
2, 334592, Note_on_c, 0, 57, 64
2, 334593, Note_on_c, 0, 69, 54
2, 334597, Note_on_c, 0, 67, 59
2, 334617, Note_on_c, 0, 79, 33
2, 334666, Note_on_c, 0, 79, 0
2, 334754, Note_on_c, 0, 67, 0
2, 334773, Note_on_c, 0, 62, 0
2, 334780, Note_on_c, 0, 74, 0
2, 334786, Note_on_c, 0, 69, 0
2, 334791, Note_on_c, 0, 57, 0
2, 334792, Note_on_c, 0, 52, 0
2, 334820, Note_on_c, 0, 78, 0
2, 334828, Note_on_c, 0, 81, 0
2, 335425, Control_c, 0, 64, 127
2, 335523, Note_on_c, 0, 78, 51
2, 335528, Note_on_c, 0, 81, 66
2, 335530, Note_on_c, 0, 74, 71
2, 335532, Note_on_c, 0, 62, 70
2, 335535, Note_on_c, 0, 52, 65
2, 335537, Note_on_c, 0, 57, 66
2, 335539, Note_on_c, 0, 69, 54
2, 335551, Note_on_c, 0, 67, 64
2, 335590, Note_on_c, 0, 67, 0
2, 335686, Note_on_c, 0, 52, 0
2, 335687, Note_on_c, 0, 74, 0
2, 335691, Note_on_c, 0, 57, 0
2, 335703, Note_on_c, 0, 69, 0
2, 335722, Note_on_c, 0, 62, 0
2, 335723, Note_on_c, 0, 78, 0
2, 335734, Note_on_c, 0, 81, 0
2, 335941, Control_c, 0, 64, 0
2, 336017, Note_on_c, 0, 75, 78
2, 336018, Note_on_c, 0, 54, 67
2, 336018, Note_on_c, 0, 83, 64
2, 336020, Note_on_c, 0, 78, 64
2, 336029, Note_on_c, 0, 63, 79
2, 336031, Note_on_c, 0, 71, 76
2, 336035, Note_on_c, 0, 60, 61
2, 336041, Note_on_c, 0, 57, 65
2, 336049, Note_on_c, 0, 81, 35
2, 336088, Note_on_c, 0, 81, 0
2, 336101, Control_c, 0, 64, 127
2, 336294, Note_on_c, 0, 75, 0
2, 336297, Note_on_c, 0, 71, 0
2, 336328, Note_on_c, 0, 78, 0
2, 336329, Note_on_c, 0, 60, 0
2, 336331, Note_on_c, 0, 54, 0
2, 336334, Note_on_c, 0, 57, 0
2, 336344, Note_on_c, 0, 63, 0
2, 336346, Note_on_c, 0, 83, 0
2, 336497, Note_on_c, 0, 83, 76
2, 336505, Note_on_c, 0, 75, 77
2, 336508, Note_on_c, 0, 78, 70
2, 336512, Note_on_c, 0, 71, 73
2, 336514, Note_on_c, 0, 54, 69
2, 336516, Note_on_c, 0, 63, 81
2, 336527, Note_on_c, 0, 60, 62
2, 336531, Note_on_c, 0, 57, 64
2, 336716, Note_on_c, 0, 71, 0
2, 336724, Note_on_c, 0, 75, 0
2, 336748, Note_on_c, 0, 78, 0
2, 336766, Note_on_c, 0, 83, 0
2, 336768, Note_on_c, 0, 54, 0
2, 336774, Note_on_c, 0, 63, 0
2, 336780, Note_on_c, 0, 60, 0
2, 336788, Note_on_c, 0, 57, 0
2, 336956, Note_on_c, 0, 63, 73
2, 336964, Note_on_c, 0, 54, 61
2, 336965, Note_on_c, 0, 75, 76
2, 336966, Note_on_c, 0, 78, 64
2, 336968, Note_on_c, 0, 83, 66
2, 336983, Note_on_c, 0, 71, 66
2, 336993, Note_on_c, 0, 60, 40
2, 337005, Note_on_c, 0, 57, 33
2, 337085, Note_on_c, 0, 63, 0
2, 337138, Note_on_c, 0, 57, 0
2, 337150, Note_on_c, 0, 60, 0
2, 337153, Note_on_c, 0, 71, 0
2, 337194, Note_on_c, 0, 54, 0
2, 337219, Note_on_c, 0, 75, 0
2, 337230, Note_on_c, 0, 78, 0
2, 337253, Note_on_c, 0, 83, 0
2, 337925, Note_on_c, 0, 86, 71
2, 337937, Note_on_c, 0, 77, 71
2, 337939, Note_on_c, 0, 41, 87
2, 337942, Note_on_c, 0, 81, 69
2, 337956, Note_on_c, 0, 85, 45
2, 337968, Control_c, 0, 64, 0
2, 337994, Note_on_c, 0, 85, 0
2, 338114, Control_c, 0, 64, 127
2, 338191, Note_on_c, 0, 86, 0
2, 338200, Note_on_c, 0, 81, 0
2, 338234, Note_on_c, 0, 77, 0
2, 338269, Note_on_c, 0, 44, 72
2, 338318, Note_on_c, 0, 41, 0
2, 338515, Note_on_c, 0, 46, 71
2, 338518, Control_c, 0, 64, 0
2, 338558, Note_on_c, 0, 44, 0
2, 338734, Note_on_c, 0, 48, 73
2, 338818, Note_on_c, 0, 46, 0
2, 338874, Note_on_c, 0, 51, 55
2, 338995, Note_on_c, 0, 51, 0
2, 339047, Note_on_c, 0, 53, 34
2, 339132, Note_on_c, 0, 53, 0
2, 339168, Note_on_c, 0, 48, 0
2, 339175, Note_on_c, 0, 56, 56
2, 339319, Note_on_c, 0, 56, 0
2, 339321, Note_on_c, 0, 58, 51
2, 339367, Note_on_c, 0, 58, 0
2, 339428, Note_on_c, 0, 60, 58
2, 339512, Note_on_c, 0, 60, 0
2, 339569, Note_on_c, 0, 63, 40
2, 339650, Note_on_c, 0, 63, 0
2, 339697, Note_on_c, 0, 67, 64
2, 339804, Note_on_c, 0, 67, 0
2, 339809, Note_on_c, 0, 43, 26
2, 339876, Note_on_c, 0, 43, 0
2, 339881, Note_on_c, 0, 68, 54
2, 339983, Note_on_c, 0, 68, 0
2, 340096, Note_on_c, 0, 70, 57
2, 340182, Note_on_c, 0, 70, 0
2, 340216, Note_on_c, 0, 71, 66
2, 340320, Note_on_c, 0, 71, 0
2, 340485, Note_on_c, 0, 73, 26
2, 340568, Note_on_c, 0, 73, 0
2, 340596, Note_on_c, 0, 74, 66
2, 340700, Note_on_c, 0, 74, 0
2, 340711, Note_on_c, 0, 75, 53
2, 340792, Note_on_c, 0, 64, 37
2, 340806, Note_on_c, 0, 59, 27
2, 340832, Note_on_c, 0, 53, 30
2, 340854, Note_on_c, 0, 75, 0
2, 340875, Note_on_c, 0, 76, 41
2, 341014, Note_on_c, 0, 76, 0
2, 341073, Note_on_c, 0, 77, 48
2, 341174, Note_on_c, 0, 77, 0
2, 341230, Note_on_c, 0, 78, 51
2, 341295, Note_on_c, 0, 59, 0
2, 341321, Note_on_c, 0, 78, 0
2, 341379, Note_on_c, 0, 64, 0
2, 341384, Note_on_c, 0, 79, 43
2, 341449, Note_on_c, 0, 53, 0
2, 341506, Note_on_c, 0, 79, 0
2, 341515, Note_on_c, 0, 80, 46
2, 341625, Note_on_c, 0, 80, 0
2, 341641, Note_on_c, 0, 81, 50
2, 341776, Note_on_c, 0, 82, 65
2, 341791, Note_on_c, 0, 81, 0
2, 341855, Note_on_c, 0, 67, 35
2, 341883, Note_on_c, 0, 82, 0
2, 341891, Note_on_c, 0, 62, 33
2, 341898, Note_on_c, 0, 64, 36
2, 341914, Note_on_c, 0, 83, 51
2, 341976, Control_c, 0, 64, 127
2, 342040, Note_on_c, 0, 67, 0
2, 342728, Note_on_c, 0, 55, 34
2, 342824, Note_on_c, 0, 62, 0
2, 342845, Note_on_c, 0, 64, 0
2, 342928, Note_on_c, 0, 83, 0
2, 343264, Note_on_c, 0, 84, 53
2, 343423, Note_on_c, 0, 84, 0
2, 343671, Control_c, 0, 64, 0
2, 343686, Note_on_c, 0, 81, 36
2, 343705, Note_on_c, 0, 64, 34
2, 343706, Note_on_c, 0, 79, 38
2, 343717, Note_on_c, 0, 58, 37
2, 343718, Note_on_c, 0, 61, 27
2, 343752, Note_on_c, 0, 79, 0
2, 343974, Control_c, 0, 64, 127
2, 344038, Note_on_c, 0, 55, 0
2, 344206, Note_on_c, 0, 55, 40
2, 344404, Note_on_c, 0, 55, 0
2, 344653, Note_on_c, 0, 55, 54
2, 344709, Note_on_c, 0, 81, 0
2, 344910, Note_on_c, 0, 64, 0
2, 344957, Note_on_c, 0, 61, 0
2, 345074, Note_on_c, 0, 76, 34
2, 345320, Note_on_c, 0, 55, 0
2, 345323, Note_on_c, 0, 58, 0
2, 345359, Note_on_c, 0, 77, 54
2, 345504, Note_on_c, 0, 77, 0
2, 345601, Control_c, 0, 64, 0
2, 345649, Note_on_c, 0, 79, 51
2, 345682, Note_on_c, 0, 50, 34
2, 345767, Note_on_c, 0, 76, 0
2, 345794, Note_on_c, 0, 50, 0
2, 345804, Control_c, 0, 64, 127
2, 345960, Note_on_c, 0, 64, 45
2, 346218, Note_on_c, 0, 64, 0
2, 346268, Note_on_c, 0, 62, 47
2, 346441, Note_on_c, 0, 79, 0
2, 346549, Note_on_c, 0, 62, 0
2, 346592, Note_on_c, 0, 65, 57
2, 346767, Note_on_c, 0, 65, 0
2, 346899, Note_on_c, 0, 50, 37
2, 347027, Control_c, 0, 64, 0
2, 347225, Note_on_c, 0, 44, 35
2, 347230, Note_on_c, 0, 54, 33
2, 347241, Control_c, 0, 64, 127
2, 347450, Note_on_c, 0, 54, 0
2, 347454, Control_c, 0, 64, 0
2, 347483, Note_on_c, 0, 50, 0
2, 347498, Note_on_c, 0, 44, 0
2, 347559, Note_on_c, 0, 68, 38
2, 347568, Note_on_c, 0, 59, 36
2, 347571, Note_on_c, 0, 63, 37
2, 347582, Note_on_c, 0, 53, 31
2, 347584, Note_on_c, 0, 43, 25
2, 347610, Control_c, 0, 64, 127
2, 347978, Note_on_c, 0, 59, 0
2, 348085, Note_on_c, 0, 63, 0
2, 348194, Note_on_c, 0, 68, 0
2, 348337, Note_on_c, 0, 53, 0
2, 348406, Note_on_c, 0, 43, 0
2, 348493, Note_on_c, 0, 43, 45
2, 348511, Note_on_c, 0, 53, 36
2, 348614, Note_on_c, 0, 43, 0
2, 348676, Note_on_c, 0, 53, 0
2, 349012, Note_on_c, 0, 72, 30
2, 349418, Control_c, 0, 64, 0
2, 349460, Note_on_c, 0, 67, 49
2, 349462, Note_on_c, 0, 62, 54
2, 349474, Note_on_c, 0, 56, 64
2, 349476, Note_on_c, 0, 74, 81
2, 349553, Note_on_c, 0, 72, 0
2, 349606, Note_on_c, 0, 67, 0
2, 349621, Control_c, 0, 64, 127
2, 349640, Note_on_c, 0, 62, 0
2, 349822, Note_on_c, 0, 56, 0
2, 349902, Control_c, 0, 64, 0
2, 349929, Note_on_c, 0, 66, 62
2, 349931, Note_on_c, 0, 55, 46
2, 349939, Note_on_c, 0, 61, 51
2, 350048, Control_c, 0, 64, 127
2, 350174, Note_on_c, 0, 74, 0
2, 350216, Note_on_c, 0, 55, 0
2, 350287, Note_on_c, 0, 66, 0
2, 350361, Control_c, 0, 64, 0
2, 350374, Note_on_c, 0, 61, 0
2, 350398, Note_on_c, 0, 65, 66
2, 350408, Note_on_c, 0, 54, 56
2, 350414, Note_on_c, 0, 60, 49
2, 350598, Control_c, 0, 64, 127
2, 350721, Note_on_c, 0, 65, 0
2, 350725, Note_on_c, 0, 60, 0
2, 350854, Note_on_c, 0, 54, 0
2, 350869, Note_on_c, 0, 64, 56
2, 350891, Note_on_c, 0, 53, 37
2, 350900, Note_on_c, 0, 59, 49
2, 351032, Note_on_c, 0, 64, 0
2, 351038, Note_on_c, 0, 59, 0
2, 351094, Note_on_c, 0, 53, 0
2, 351272, Control_c, 0, 64, 0
2, 351340, Note_on_c, 0, 52, 44
2, 351342, Note_on_c, 0, 76, 69
2, 351345, Note_on_c, 0, 64, 53
2, 351360, Note_on_c, 0, 58, 50
2, 351439, Control_c, 0, 64, 127
2, 351500, Note_on_c, 0, 52, 0
2, 351506, Note_on_c, 0, 64, 0
2, 351526, Note_on_c, 0, 58, 0
2, 351753, Control_c, 0, 64, 0
2, 351794, Note_on_c, 0, 51, 55
2, 351840, Note_on_c, 0, 67, 60
2, 351860, Note_on_c, 0, 61, 23
2, 351866, Control_c, 0, 64, 127
2, 351919, Note_on_c, 0, 76, 0
2, 351933, Note_on_c, 0, 61, 0
2, 352038, Note_on_c, 0, 51, 0
2, 352214, Control_c, 0, 64, 0
2, 352274, Note_on_c, 0, 60, 46
2, 352276, Note_on_c, 0, 50, 49
2, 352278, Note_on_c, 0, 67, 51
2, 352320, Note_on_c, 0, 67, 0
2, 352349, Control_c, 0, 64, 127
2, 352422, Note_on_c, 0, 50, 0
2, 352478, Note_on_c, 0, 67, 0
2, 352516, Note_on_c, 0, 60, 0
2, 352674, Control_c, 0, 64, 0
2, 352730, Control_c, 0, 64, 127
2, 352741, Note_on_c, 0, 44, 45
2, 352759, Note_on_c, 0, 63, 36
2, 352767, Note_on_c, 0, 54, 27
2, 352775, Note_on_c, 0, 69, 50
2, 352810, Note_on_c, 0, 63, 0
2, 352920, Note_on_c, 0, 54, 0
2, 352988, Note_on_c, 0, 44, 0
2, 353191, Control_c, 0, 64, 0
2, 353217, Note_on_c, 0, 57, 52
2, 353228, Note_on_c, 0, 60, 44
2, 353238, Note_on_c, 0, 65, 36
2, 353241, Note_on_c, 0, 43, 31
2, 353247, Note_on_c, 0, 53, 34
2, 353255, Note_on_c, 0, 69, 0
2, 353280, Note_on_c, 0, 71, 50
2, 353371, Control_c, 0, 64, 127
2, 353454, Note_on_c, 0, 53, 0
2, 353480, Note_on_c, 0, 43, 0
2, 353713, Note_on_c, 0, 60, 0
2, 353718, Note_on_c, 0, 44, 55
2, 353760, Note_on_c, 0, 71, 0
2, 353813, Note_on_c, 0, 65, 0
2, 353834, Note_on_c, 0, 57, 0
2, 354145, Note_on_c, 0, 42, 25
2, 354189, Control_c, 0, 64, 0
2, 354195, Note_on_c, 0, 42, 0
2, 354214, Note_on_c, 0, 60, 40
2, 354216, Note_on_c, 0, 44, 0
2, 354226, Note_on_c, 0, 57, 45
2, 354230, Note_on_c, 0, 53, 29
2, 354239, Note_on_c, 0, 43, 34
2, 354413, Control_c, 0, 64, 127
2, 354625, Note_on_c, 0, 53, 0
2, 354674, Note_on_c, 0, 57, 0
2, 354708, Note_on_c, 0, 31, 53
2, 354747, Note_on_c, 0, 60, 0
2, 354810, Note_on_c, 0, 31, 0
2, 354818, Note_on_c, 0, 43, 0
2, 355190, Control_c, 0, 64, 0
2, 355207, Note_on_c, 0, 63, 49
2, 355213, Note_on_c, 0, 59, 50
2, 355214, Note_on_c, 0, 53, 28
2, 355222, Note_on_c, 0, 65, 50
2, 355345, Control_c, 0, 64, 127
2, 355355, Note_on_c, 0, 53, 0
2, 355690, Note_on_c, 0, 68, 56
2, 355729, Note_on_c, 0, 37, 27
2, 355774, Note_on_c, 0, 37, 0
2, 355828, Note_on_c, 0, 59, 0
2, 355855, Note_on_c, 0, 65, 0
2, 355915, Note_on_c, 0, 63, 0
2, 356010, Note_on_c, 0, 68, 0
2, 356131, Control_c, 0, 64, 0
2, 356185, Note_on_c, 0, 63, 47
2, 356192, Note_on_c, 0, 70, 47
2, 356201, Note_on_c, 0, 59, 37
2, 356206, Note_on_c, 0, 65, 39
2, 356217, Note_on_c, 0, 55, 22
2, 356277, Control_c, 0, 64, 127
2, 356307, Note_on_c, 0, 55, 0
2, 356572, Note_on_c, 0, 59, 0
2, 356573, Note_on_c, 0, 70, 0
2, 356587, Note_on_c, 0, 65, 0
2, 356663, Note_on_c, 0, 43, 32
2, 356676, Note_on_c, 0, 68, 50
2, 356883, Note_on_c, 0, 68, 0
2, 356920, Note_on_c, 0, 63, 0
2, 357086, Control_c, 0, 64, 0
2, 357129, Note_on_c, 0, 67, 46
2, 357154, Note_on_c, 0, 52, 29
2, 357157, Note_on_c, 0, 36, 26
2, 357165, Note_on_c, 0, 62, 34
2, 357166, Note_on_c, 0, 59, 29
2, 357167, Note_on_c, 0, 57, 36
2, 357232, Control_c, 0, 64, 127
2, 357274, Note_on_c, 0, 57, 0
2, 357288, Note_on_c, 0, 59, 0
2, 357310, Note_on_c, 0, 36, 0
2, 357316, Note_on_c, 0, 62, 0
2, 357348, Note_on_c, 0, 67, 0
2, 357365, Note_on_c, 0, 43, 0
2, 357436, Note_on_c, 0, 52, 0
2, 358445, Note_on_c, 0, 83, 61
2, 358455, Note_on_c, 0, 71, 53
2, 358467, Note_on_c, 0, 59, 53
2, 358511, Note_on_c, 0, 71, 0
2, 358570, Note_on_c, 0, 83, 0
2, 358729, Note_on_c, 0, 59, 0
2, 358747, Note_on_c, 0, 84, 71
2, 358752, Note_on_c, 0, 60, 56
2, 358778, Note_on_c, 0, 72, 44
2, 358874, Note_on_c, 0, 84, 0
2, 358875, Note_on_c, 0, 60, 0
2, 359051, Control_c, 0, 64, 0
2, 359069, Note_on_c, 0, 72, 0
2, 359090, Note_on_c, 0, 81, 61
2, 359105, Note_on_c, 0, 57, 66
2, 359111, Note_on_c, 0, 69, 56
2, 359197, Control_c, 0, 64, 127
2, 359211, Note_on_c, 0, 57, 0
2, 359286, Note_on_c, 0, 69, 0
2, 359346, Note_on_c, 0, 81, 0
2, 359354, Control_c, 0, 64, 0
2, 359721, Note_on_c, 0, 61, 65
2, 359721, Note_on_c, 0, 77, 99
2, 359727, Note_on_c, 0, 55, 74
2, 359728, Note_on_c, 0, 65, 82
2, 359937, Control_c, 0, 64, 127
2, 360049, Note_on_c, 0, 77, 0
2, 360087, Note_on_c, 0, 65, 0
2, 360090, Note_on_c, 0, 55, 0
2, 360123, Note_on_c, 0, 61, 0
2, 360166, Note_on_c, 0, 81, 87
2, 360168, Note_on_c, 0, 55, 64
2, 360176, Note_on_c, 0, 61, 72
2, 360177, Note_on_c, 0, 65, 66
2, 360357, Note_on_c, 0, 81, 0
2, 360437, Note_on_c, 0, 55, 0
2, 360461, Note_on_c, 0, 65, 0
2, 360514, Note_on_c, 0, 61, 0
2, 360610, Note_on_c, 0, 61, 77
2, 360613, Note_on_c, 0, 85, 84
2, 360620, Note_on_c, 0, 55, 66
2, 360628, Note_on_c, 0, 65, 71
2, 360730, Note_on_c, 0, 65, 0
2, 360778, Note_on_c, 0, 55, 0
2, 360867, Note_on_c, 0, 61, 0
2, 360941, Note_on_c, 0, 85, 0
2, 360947, Control_c, 0, 64, 0
2, 361483, Note_on_c, 0, 76, 75
2, 361486, Note_on_c, 0, 69, 82
2, 361493, Note_on_c, 0, 72, 50
2, 361493, Note_on_c, 0, 65, 83
2, 361495, Note_on_c, 0, 64, 72
2, 361965, Note_on_c, 0, 65, 0
2, 361985, Note_on_c, 0, 76, 0
2, 362073, Note_on_c, 0, 64, 0
2, 362082, Note_on_c, 0, 69, 0
2, 362151, Note_on_c, 0, 77, 76
2, 362230, Note_on_c, 0, 72, 0
2, 362353, Note_on_c, 0, 77, 0
2, 362703, Control_c, 0, 64, 0
2, 362743, Note_on_c, 0, 64, 49
2, 362751, Note_on_c, 0, 74, 40
2, 362761, Note_on_c, 0, 68, 31
2, 362763, Note_on_c, 0, 71, 40
2, 362767, Note_on_c, 0, 65, 37
2, 362871, Control_c, 0, 64, 127
2, 363624, Note_on_c, 0, 65, 0
2, 363671, Note_on_c, 0, 74, 0
2, 363672, Note_on_c, 0, 71, 0
2, 363679, Note_on_c, 0, 68, 0
2, 363693, Note_on_c, 0, 53, 33
2, 363875, Note_on_c, 0, 64, 0
2, 363891, Note_on_c, 0, 53, 0
2, 364017, Note_on_c, 0, 69, 42
2, 364219, Note_on_c, 0, 69, 0
2, 364333, Note_on_c, 0, 71, 53
2, 364587, Note_on_c, 0, 71, 0
2, 364680, Note_on_c, 0, 64, 50
2, 364699, Control_c, 0, 64, 0
2, 364709, Note_on_c, 0, 72, 24
2, 364729, Note_on_c, 0, 64, 0
2, 364980, Note_on_c, 0, 72, 0
2, 364989, Note_on_c, 0, 42, 25
2, 365307, Note_on_c, 0, 52, 36
2, 365332, Note_on_c, 0, 60, 48
2, 365333, Note_on_c, 0, 57, 56
2, 365758, Note_on_c, 0, 52, 0
2, 365861, Note_on_c, 0, 42, 0
2, 366059, Note_on_c, 0, 42, 44
2, 366202, Note_on_c, 0, 42, 0
2, 366244, Note_on_c, 0, 57, 0
2, 366274, Note_on_c, 0, 60, 0
2, 366372, Note_on_c, 0, 30, 39
2, 366601, Note_on_c, 0, 30, 0
2, 366690, Note_on_c, 0, 56, 48
2, 366694, Note_on_c, 0, 60, 38
2, 366709, Note_on_c, 0, 41, 36
2, 366712, Note_on_c, 0, 29, 33
2, 366913, Note_on_c, 0, 56, 0
2, 366929, Note_on_c, 0, 29, 0
2, 366940, Note_on_c, 0, 41, 0
2, 366946, Note_on_c, 0, 60, 0
2, 367653, Note_on_c, 0, 29, 36
2, 367657, Note_on_c, 0, 60, 39
2, 367669, Note_on_c, 0, 56, 47
2, 367671, Note_on_c, 0, 41, 35
2, 367839, Note_on_c, 0, 29, 0
2, 367852, Note_on_c, 0, 41, 0
2, 367889, Note_on_c, 0, 56, 0
2, 367911, Note_on_c, 0, 60, 0
2, 368277, Note_on_c, 0, 29, 29
2, 368281, Note_on_c, 0, 41, 33
2, 368383, Note_on_c, 0, 41, 0
2, 368410, Note_on_c, 0, 29, 0
2, 368584, Control_c, 0, 64, 127
2, 368603, Note_on_c, 0, 60, 37
2, 368613, Note_on_c, 0, 55, 29
2, 368626, Note_on_c, 0, 28, 35
2, 368635, Note_on_c, 0, 40, 34
2, 368776, Control_c, 0, 64, 0
2, 368785, Note_on_c, 0, 40, 0
2, 368788, Note_on_c, 0, 55, 0
2, 368789, Note_on_c, 0, 28, 0
2, 368809, Note_on_c, 0, 60, 0
2, 369211, Note_on_c, 0, 28, 33
2, 369223, Note_on_c, 0, 60, 34
2, 369231, Note_on_c, 0, 55, 30
2, 369233, Note_on_c, 0, 40, 30
2, 369381, Note_on_c, 0, 60, 0
2, 369383, Note_on_c, 0, 28, 0
2, 369384, Note_on_c, 0, 40, 0
2, 369397, Note_on_c, 0, 55, 0
2, 369570, Control_c, 0, 64, 127
2, 369595, Note_on_c, 0, 55, 35
2, 369600, Note_on_c, 0, 60, 30
2, 369613, Note_on_c, 0, 28, 27
2, 369633, Note_on_c, 0, 40, 27
2, 369738, Note_on_c, 0, 40, 0
2, 369743, Note_on_c, 0, 55, 0
2, 369743, Note_on_c, 0, 60, 0
2, 369745, Note_on_c, 0, 28, 0
2, 370157, Note_on_c, 0, 60, 39
2, 370165, Note_on_c, 0, 55, 36
2, 370170, Note_on_c, 0, 28, 30
2, 370188, Note_on_c, 0, 40, 25
2, 370273, Note_on_c, 0, 55, 0
2, 370276, Note_on_c, 0, 60, 0
2, 370294, Note_on_c, 0, 28, 0
2, 370299, Note_on_c, 0, 40, 0
2, 370437, Control_c, 0, 64, 0
2, 370547, Note_on_c, 0, 55, 26
2, 370561, Note_on_c, 0, 60, 46
2, 370584, Note_on_c, 0, 39, 42
2, 370602, Note_on_c, 0, 27, 34
2, 370775, Note_on_c, 0, 27, 0
2, 370793, Note_on_c, 0, 55, 0
2, 370817, Note_on_c, 0, 39, 0
2, 370843, Note_on_c, 0, 60, 0
2, 371431, Note_on_c, 0, 39, 34
2, 371435, Control_c, 0, 64, 127
2, 371436, Note_on_c, 0, 60, 46
2, 371449, Note_on_c, 0, 27, 32
2, 371460, Note_on_c, 0, 55, 32
2, 371809, Note_on_c, 0, 39, 0
2, 371813, Note_on_c, 0, 55, 0
2, 371843, Note_on_c, 0, 27, 0
2, 371970, Note_on_c, 0, 60, 0
2, 372324, Control_c, 0, 64, 0
2, 372379, Note_on_c, 0, 62, 53
2, 372393, Note_on_c, 0, 53, 41
2, 372394, Note_on_c, 0, 38, 44
2, 372406, Note_on_c, 0, 26, 31
2, 372411, Note_on_c, 0, 57, 49
2, 372413, Note_on_c, 0, 60, 40
2, 372505, Control_c, 0, 64, 127
2, 372691, Note_on_c, 0, 62, 0
2, 372718, Note_on_c, 0, 53, 0
2, 372720, Note_on_c, 0, 38, 0
2, 372737, Note_on_c, 0, 26, 0
2, 372749, Note_on_c, 0, 57, 0
2, 372756, Note_on_c, 0, 60, 0
2, 372979, Note_on_c, 0, 62, 47
2, 372983, Note_on_c, 0, 26, 39
2, 372984, Note_on_c, 0, 38, 49
2, 372990, Note_on_c, 0, 53, 44
2, 373001, Note_on_c, 0, 60, 44
2, 373006, Note_on_c, 0, 57, 49
2, 373170, Note_on_c, 0, 53, 0
2, 373173, Note_on_c, 0, 62, 0
2, 373186, Note_on_c, 0, 38, 0
2, 373212, Note_on_c, 0, 57, 0
2, 373213, Note_on_c, 0, 26, 0
2, 373231, Note_on_c, 0, 60, 0
2, 373353, Note_on_c, 0, 26, 24
2, 373360, Note_on_c, 0, 62, 38
2, 373365, Note_on_c, 0, 38, 44
2, 373377, Note_on_c, 0, 53, 27
2, 373415, Note_on_c, 0, 57, 24
2, 373420, Note_on_c, 0, 60, 17
2, 373537, Note_on_c, 0, 57, 0
2, 373558, Note_on_c, 0, 60, 0
2, 373577, Note_on_c, 0, 26, 0
2, 373614, Note_on_c, 0, 53, 0
2, 373623, Note_on_c, 0, 38, 0
2, 373667, Note_on_c, 0, 62, 0
2, 373961, Control_c, 0, 64, 0
2, 373991, Note_on_c, 0, 63, 67
2, 373996, Note_on_c, 0, 37, 59
2, 374002, Note_on_c, 0, 59, 66
2, 374005, Note_on_c, 0, 25, 61
2, 374008, Note_on_c, 0, 56, 68
2, 374011, Note_on_c, 0, 53, 62
2, 374169, Note_on_c, 0, 53, 0
2, 374191, Note_on_c, 0, 37, 0
2, 374194, Note_on_c, 0, 56, 0
2, 374203, Note_on_c, 0, 25, 0
2, 374213, Note_on_c, 0, 63, 0
2, 374226, Note_on_c, 0, 59, 0
2, 374632, Note_on_c, 0, 63, 58
2, 374653, Note_on_c, 0, 59, 55
2, 374656, Note_on_c, 0, 56, 59
2, 374662, Note_on_c, 0, 53, 43
2, 374664, Note_on_c, 0, 25, 58
2, 374665, Note_on_c, 0, 37, 46
2, 374719, Control_c, 0, 64, 127
2, 374955, Note_on_c, 0, 53, 0
2, 374986, Note_on_c, 0, 25, 0
2, 374999, Note_on_c, 0, 37, 0
2, 375005, Note_on_c, 0, 56, 0
2, 375022, Note_on_c, 0, 63, 0
2, 375043, Note_on_c, 0, 59, 0
2, 375043, Control_c, 0, 64, 0
2, 375223, Control_c, 0, 64, 127
2, 375265, Note_on_c, 0, 37, 42
2, 375267, Note_on_c, 0, 63, 40
2, 375269, Note_on_c, 0, 25, 48
2, 375271, Note_on_c, 0, 56, 50
2, 375282, Note_on_c, 0, 59, 46
2, 375292, Note_on_c, 0, 53, 32
2, 375490, Note_on_c, 0, 53, 0
2, 375493, Note_on_c, 0, 56, 0
2, 375519, Note_on_c, 0, 25, 0
2, 375525, Note_on_c, 0, 37, 0
2, 375551, Note_on_c, 0, 59, 0
2, 375618, Note_on_c, 0, 63, 0
2, 375935, Note_on_c, 0, 64, 71
2, 375939, Note_on_c, 0, 62, 63
2, 375949, Note_on_c, 0, 59, 70
2, 375959, Note_on_c, 0, 57, 74
2, 375967, Control_c, 0, 64, 0
2, 376047, Note_on_c, 0, 62, 0
2, 376059, Note_on_c, 0, 57, 0
2, 376080, Control_c, 0, 64, 127
2, 376097, Note_on_c, 0, 59, 0
2, 376129, Note_on_c, 0, 64, 0
2, 376190, Note_on_c, 0, 36, 53
2, 376193, Note_on_c, 0, 24, 45
2, 376487, Note_on_c, 0, 36, 0
2, 376803, Note_on_c, 0, 24, 0
2, 379285, Note_on_c, 0, 60, 49
2, 379307, Note_on_c, 0, 48, 49
2, 379757, Note_on_c, 0, 60, 0
2, 379775, Note_on_c, 0, 64, 69
2, 379788, Note_on_c, 0, 52, 59
2, 380240, Note_on_c, 0, 67, 74
2, 380251, Note_on_c, 0, 55, 64
2, 380328, Note_on_c, 0, 64, 0
2, 380454, Note_on_c, 0, 48, 0
2, 380519, Control_c, 0, 64, 127
2, 380690, Note_on_c, 0, 67, 0
2, 380787, Note_on_c, 0, 52, 0
2, 380840, Note_on_c, 0, 71, 71
2, 380881, Note_on_c, 0, 59, 68
2, 380894, Note_on_c, 0, 55, 0
2, 381553, Note_on_c, 0, 71, 0
2, 381616, Note_on_c, 0, 62, 54
2, 381618, Note_on_c, 0, 74, 71
2, 381654, Note_on_c, 0, 59, 0
2, 381661, Control_c, 0, 64, 0
2, 381733, Control_c, 0, 64, 127
2, 382012, Note_on_c, 0, 74, 0
2, 382336, Note_on_c, 0, 62, 0
2, 382351, Note_on_c, 0, 78, 59
2, 382381, Note_on_c, 0, 66, 37
2, 382921, Note_on_c, 0, 78, 0
2, 382938, Note_on_c, 0, 66, 0
2, 382967, Note_on_c, 0, 69, 44
2, 382969, Note_on_c, 0, 81, 50
2, 383084, Note_on_c, 0, 81, 0
2, 383550, Note_on_c, 0, 69, 0
2, 383576, Note_on_c, 0, 73, 31
2, 383589, Note_on_c, 0, 85, 37
2, 384148, Note_on_c, 0, 73, 0
2, 384162, Note_on_c, 0, 85, 0
2, 384198, Note_on_c, 0, 88, 53
2, 384227, Note_on_c, 0, 76, 33
2, 384360, Note_on_c, 0, 88, 0
2, 384864, Note_on_c, 0, 76, 0
2, 384877, Note_on_c, 0, 92, 38
2, 384884, Note_on_c, 0, 80, 44
2, 385447, Note_on_c, 0, 80, 0
2, 385561, Note_on_c, 0, 92, 0
2, 385625, Note_on_c, 0, 95, 41
2, 385674, Note_on_c, 0, 83, 27
2, 385844, Note_on_c, 0, 95, 0
2, 386394, Note_on_c, 0, 87, 30
2, 386397, Note_on_c, 0, 99, 35
2, 386407, Note_on_c, 0, 83, 0
2, 387359, Note_on_c, 0, 99, 0
2, 387365, Note_on_c, 0, 90, 31
2, 387376, Note_on_c, 0, 87, 0
2, 387391, Note_on_c, 0, 102, 26
2, 387676, Note_on_c, 0, 90, 0
2, 389156, Note_on_c, 0, 102, 0
2, 390148, Note_on_c, 0, 24, 24
2, 390500, Note_on_c, 0, 24, 0
2, 394984, Control_c, 0, 64, 0
2, 394984, End_track
0, 0, End_of_file
