0, 0, Header, 0, 1, 120
1, 0, Start_track
1, 0, Title_t, "If Ever I Should Leave You"
1, 0, Sequencer_specific, 126, 0, 0, 0, 106, 0, 1, 0, 0, 0, 0, 0, 0, 0, 0, 0, 0, 0, 0, 0, 0, 0, 0, 64, 39, 0, 0, 20, 12, 0, 0, 128, 39, 0, 0, 29, 76, 0, 0, 24, 8, 0, 0, 0, 0, 0, 0, 64, 12, 0, 0, 0, 0, 0, 0, 64, 12, 0, 0, 128, 39, 0, 0, 29, 127, 0, 0, 19, 8, 0, 0, 128, 24, 0, 0, 0, 0, 0, 0, 64, 39, 0, 0, 0, 0, 0, 0, 64, 39, 0, 0, 29, 3, 0, 0, 64, 39, 0, 0, 0, 0, 0, 0, 24, 29, 0, 0, 0, 0, 0, 0, 0, 0, 0, 0, 0, 0, 0, 0, 0, 0, 0, 0, 0, 0, 0, 0
1, 0, Sequencer_specific, 126, 0, 0, 0, 106, 0, 1, 16, 27, 0, 0, 0, 0, 0, 0, 64, 8, 0, 0, 40, 42, 0, 0, 29, 34, 0, 0, 5, 39, 0, 0, 128, 8, 0, 0, 0, 0, 0, 0, 24, 29, 0, 0, 0, 0, 0, 0, 19, 49, 0, 0, 46, 27, 0, 0, 40, 2, 0, 0, 0, 0, 0, 0, 49, 24, 0, 0, 0, 0, 0, 0, 1, 204, 0, 0, 1, 138, 0, 0, 31, 4, 0, 0, 0, 0, 0, 0, 128, 39, 0, 0, 0, 0, 0, 0, 6, 24, 0, 0, 1, 11, 0, 0, 24, 29, 0, 0, 20, 27, 0, 0, 24, 29, 0, 0, 64, 21, 0, 0, 29, 195, 0, 0, 0, 0, 0, 0
1, 0, Sequencer_specific, 126, 0, 0, 0, 106, 0, 1, 0, 0, 0, 0, 0, 0, 0, 0, 24, 1, 0, 0, 0, 0, 0, 0, 1, 27, 0, 0, 20, 3, 0, 0, 128, 5, 0, 0, 128, 39, 0, 0, 64, 39, 0, 0, 0, 0, 0, 0, 19, 5, 0, 0, 0, 0, 0, 0, 20, 12, 0, 0, 64, 29, 0, 0, 1, 12, 0, 0, 0, 0, 0, 0, 20, 10, 0, 0, 20, 3, 0, 0, 29, 136, 0, 0, 24, 6, 0, 0, 1, 24, 0, 0, 64, 12, 0, 0, 20, 10, 0, 0, 64, 83, 0, 0, 40, 21, 0, 0, 0, 0, 0, 0, 0, 0, 0, 0, 0, 0, 0, 0, 128, 39, 0, 0, 0, 0, 0, 0
1, 0, Sequencer_specific, 126, 0, 0, 0, 106, 0, 1, 20, 49, 0, 0, 0, 0, 0, 0, 29, 132, 0, 0, 0, 0, 0, 0, 29, 9, 0, 0, 40, 49, 0, 0, 29, 11, 0, 0, 128, 39, 0, 0, 1, 21, 0, 0, 0, 0, 0, 0, 33, 3, 0, 0, 49, 29, 0, 0, 20, 49, 0, 0, 64, 12, 0, 0, 1, 134, 0, 0, 20, 49, 0, 0, 24, 24, 0, 0, 40, 39, 0, 0, 16, 27, 0, 0, 128, 12, 0, 0, 46, 10, 0, 0, 13, 12, 0, 0, 29, 21, 0, 0, 0, 0, 0, 0, 33, 23, 0, 0, 0, 0, 0, 0, 64, 1, 0, 0, 0, 0, 0, 0, 20, 39, 0, 0, 0, 0, 0, 0
1, 0, Sequencer_specific, 126, 0, 0, 0, 106, 0, 1, 1, 49, 0, 0, 64, 9, 0, 0, 13, 21, 0, 0, 24, 24, 0, 0, 29, 29, 0, 0, 32, 4, 0, 0, 19, 3, 0, 0, 0, 0, 0, 0, 23, 3, 0, 0, 0, 0, 0, 0, 19, 5, 0, 0, 0, 0, 0, 0, 32, 12, 0, 0, 64, 10, 0, 0, 1, 11, 0, 0, 64, 1, 0, 0, 23, 11, 0, 0, 19, 3, 0, 0, 1, 136, 0, 0, 1, 204, 0, 0, 6, 6, 0, 0, 64, 83, 0, 0, 16, 5, 0, 0, 0, 0, 0, 0, 6, 1, 0, 0, 0, 0, 0, 0, 19, 5, 0, 0, 0, 0, 0, 0, 128, 12, 0, 0, 0, 0, 0, 0
1, 0, Sequencer_specific, 126, 0, 0, 0, 106, 0, 1, 19, 15, 0, 0, 1, 131, 0, 0, 16, 136, 0, 0, 1, 82, 0, 0, 19, 141, 0, 0, 1, 15, 0, 0, 6, 5, 0, 0, 0, 0, 0, 0, 6, 15, 0, 0, 0, 0, 0, 0, 128, 4, 0, 0, 1, 4, 0, 0, 1, 81, 0, 0, 1, 9, 0, 0, 0, 0, 0, 0, 0, 0, 0, 0, 1, 9, 0, 0, 128, 15, 0, 0, 64, 12, 0, 0, 0, 0, 0, 0, 1, 5, 0, 0, 128, 5, 0, 0, 32, 15, 0, 0, 0, 0, 0, 0, 19, 5, 0, 0, 0, 0, 0, 0, 6, 1, 0, 0, 0, 0, 0, 0, 6, 1, 0, 0, 32, 12, 0, 0
1, 0, Sequencer_specific, 126, 0, 0, 0, 106, 0, 1, 64, 9, 0, 0, 0, 0, 0, 0, 19, 10, 0, 0, 0, 0, 0, 0, 33, 2, 0, 0, 1, 11, 0, 0, 32, 12, 0, 0, 0, 0, 0, 0, 6, 1, 0, 0, 64, 6, 0, 0, 19, 5, 0, 0, 0, 0, 0, 0, 19, 3, 0, 0, 0, 0, 0, 0, 0, 0, 0, 0, 0, 0, 0, 0, 19, 3, 0, 0, 19, 5, 0, 0, 23, 10, 0, 0, 1, 138, 0, 0, 1, 138, 0, 0, 64, 80, 0, 0, 6, 6, 0, 0, 0, 0, 0, 0, 6, 6, 0, 0, 23, 6, 0, 0, 16, 5, 0, 0, 19, 10, 0, 0, 1, 5, 0, 0, 64, 1, 0, 0
1, 0, Sequencer_specific, 126, 0, 0, 0, 106, 0, 1, 6, 1, 0, 0, 64, 75, 0, 0, 184, 8, 0, 0, 0, 0, 0, 0, 16, 6, 0, 0, 0, 0, 0, 0, 18, 6, 0, 0, 0, 0, 0, 0, 1, 9, 0, 0, 19, 5, 0, 0, 1, 1, 0, 0, 19, 5, 0, 0, 18, 4, 0, 0, 64, 1, 0, 0, 6, 5, 0, 0, 33, 2, 0, 0, 16, 3, 0, 0, 128, 10, 0, 0, 19, 5, 0, 0, 19, 3, 0, 0, 6, 6, 0, 0, 0, 0, 0, 0, 1, 9, 0, 0, 64, 8, 0, 0, 64, 8, 0, 0, 19, 10, 0, 0, 64, 8, 0, 0, 1, 76, 0, 0, 1, 4, 0, 0, 0, 0, 0, 0
1, 0, Sequencer_specific, 110, 0, 0, 0, 106, 0, 1, 1, 2, 0, 0, 1, 128, 0, 0, 1, 127, 0, 0, 19, 8, 0, 0, 1, 76, 0, 0, 64, 8, 0, 0, 19, 10, 0, 0, 0, 0, 0, 0, 1, 4, 0, 0, 1, 203, 0, 0, 1, 4, 0, 0, 0, 0, 0, 0, 1, 1, 0, 0, 0, 0, 0, 0, 19, 3, 0, 0, 19, 5, 0, 0, 0, 0, 0, 0, 0, 0, 0, 0, 0, 0, 0, 0, 0, 0, 0, 0, 0, 0, 0, 0, 0, 0, 0, 0, 19, 5, 0, 0, 0, 0, 0, 0, 0, 0, 0, 0, 0, 0, 0, 0
1, 0, Sequencer_specific, 22, 0, 0, 0, 106, 0, 2, 1, 2, 132, 4, 7, 4, 0, 0, 0, 0, 0, 0, 0, 0, 0, 0
1, 0, Sequencer_specific, 126, 0, 0, 0, 106, 0, 6, 0, 0, 1, 0, 1, 0, 0, 0, 1, 0, 1, 0, 0, 1, 0, 0, 0, 0, 0, 1, 0, 0, 0, 1, 0, 0, 0, 0, 1, 0, 0, 0, 0, 0, 1, 0, 0, 0, 0, 0, 1, 0, 0, 0, 1, 0, 0, 0, 0, 0, 0, 0, 0, 0, 0, 0, 0, 0, 0, 0, 0, 0, 0, 1, 0, 0, 1, 0, 0, 0, 0, 0, 0, 0, 0, 0, 0, 0, 0, 0, 1, 0, 0, 0, 0, 0, 1, 0, 0, 0, 0, 0, 0, 0, 0, 0, 0, 0, 0, 0, 0, 1, 1, 0, 0, 0, 0, 0, 0, 0, 1, 0, 0, 0, 0, 0, 0, 0, 0, 0
1, 0, Sequencer_specific, 19, 0, 0, 0, 106, 0, 6, 0, 1, 0, 0, 0, 0, 0, 0, 0, 0, 0, 1, 0
1, 0, Time_signature, 4, 2, 24, 8
1, 0, Tempo, 600000
1, 0, Key_signature, 0, "major"
1, 0, Title_t, "Bass    (BB) (none)\000"
1, 0, Title_t, "Drums   (BB) (none)\000"
1, 0, Title_t, "Piano   (BB) (none)\000"
1, 0, Title_t, "Guitar  (BB) (none)\000"
1, 0, Title_t, "Strings (BB) (none)\000"
1, 0, Title_t, "Melody  (BB)\000"
1, 0, Program_c, 0, 11
1, 0, Control_c, 0, 7, 100
1, 0, Control_c, 0, 10, 64
1, 0, Control_c, 0, 123, 0
1, 0, Control_c, 0, 91, 40
1, 0, Control_c, 0, 93, 0
1, 0, Title_t, "Soloist (BB) (none)\000"
1, 480, Control_c, 0, 64, 127
1, 480, Sequencer_specific, 18, 0, 0, 0, 106, 0, 5, 91, 84, 101, 120, 116, 61, 50, 61, 53, 61, 53, 93
1, 480, Text_t, "Intro - series of descending chords over G pedal tone"
1, 737, Note_on_c, 0, 57, 72
1, 737, Note_on_c, 0, 64, 67
1, 740, Note_on_c, 0, 43, 47
1, 742, Note_on_c, 0, 31, 44
1, 759, Sequencer_specific, 18, 0, 0, 0, 106, 0, 5, 91, 84, 101, 120, 116, 61, 50, 61, 53, 61, 53, 93
1, 759, Text_t, "Dm7/G"
1, 792, Note_off_c, 0, 57, 64
1, 798, Note_off_c, 0, 64, 64
1, 861, Note_on_c, 0, 62, 89
1, 862, Note_on_c, 0, 67, 80
1, 869, Note_off_c, 0, 43, 64
1, 917, Note_off_c, 0, 62, 64
1, 954, Note_off_c, 0, 67, 64
1, 960, Marker_t, "A, Chorus1"
1, 966, Note_on_c, 0, 57, 53
1, 968, Note_on_c, 0, 64, 52
1, 970, Note_on_c, 0, 43, 34
1, 1056, Note_off_c, 0, 31, 64
1, 1118, Note_off_c, 0, 43, 64
1, 1169, Note_on_c, 0, 31, 48
1, 1176, Note_off_c, 0, 64, 64
1, 1180, Note_off_c, 0, 31, 64
1, 1250, Note_off_c, 0, 57, 64
1, 1297, Sequencer_specific, 18, 0, 0, 0, 106, 0, 5, 91, 84, 101, 120, 116, 61, 50, 61, 53, 61, 53, 93
1, 1297, Text_t, "Cm7/G"
1, 1309, Note_on_c, 0, 56, 51
1, 1309, Note_on_c, 0, 43, 46
1, 1309, Note_on_c, 0, 63, 43
1, 1316, Note_on_c, 0, 55, 37
1, 1319, Control_c, 0, 64, 0
1, 1333, Control_c, 0, 64, 127
1, 1408, Note_off_c, 0, 56, 64
1, 1415, Note_off_c, 0, 63, 64
1, 1424, Note_off_c, 0, 43, 64
1, 1480, Note_on_c, 0, 67, 54
1, 1482, Note_on_c, 0, 60, 56
1, 1485, Note_on_c, 0, 43, 30
1, 1514, Note_off_c, 0, 55, 64
1, 1567, Note_off_c, 0, 60, 64
1, 1574, Note_off_c, 0, 67, 64
1, 1581, Note_on_c, 0, 58, 39
1, 1581, Note_on_c, 0, 63, 52
1, 1589, Note_on_c, 0, 55, 28
1, 1657, Note_off_c, 0, 43, 64
1, 1692, Note_on_c, 0, 43, 76
1, 1765, Note_off_c, 0, 55, 64
1, 1799, Note_off_c, 0, 58, 64
1, 1810, Note_off_c, 0, 63, 64
1, 1817, Sequencer_specific, 18, 0, 0, 0, 106, 0, 5, 91, 84, 101, 120, 116, 61, 50, 61, 53, 61, 53, 93
1, 1817, Text_t, "Bm7/G"
1, 1830, Note_on_c, 0, 62, 80
1, 1831, Note_on_c, 0, 57, 78
1, 1833, Note_on_c, 0, 55, 60
1, 1850, Control_c, 0, 64, 0
1, 1890, Control_c, 0, 64, 127
1, 1920, Marker_t, "A"
1, 1944, Note_off_c, 0, 55, 64
1, 1952, Note_off_c, 0, 57, 64
1, 1953, Note_off_c, 0, 62, 64
1, 1958, Note_on_c, 0, 66, 64
1, 1959, Note_on_c, 0, 59, 72
1, 1963, Note_on_c, 0, 55, 44
1, 2020, Note_off_c, 0, 55, 64
1, 2080, Note_off_c, 0, 59, 64
1, 2098, Note_on_c, 0, 57, 52
1, 2100, Note_on_c, 0, 62, 60
1, 2107, Note_on_c, 0, 55, 35
1, 2147, Note_off_c, 0, 55, 64
1, 2162, Note_off_c, 0, 43, 64
1, 2365, Note_off_c, 0, 62, 64
1, 2365, Note_on_c, 0, 31, 46
1, 2380, Note_off_c, 0, 66, 64
1, 2452, Note_off_c, 0, 57, 64
1, 2614, Sequencer_specific, 18, 0, 0, 0, 106, 0, 5, 91, 84, 101, 120, 116, 61, 50, 61, 53, 61, 53, 93
1, 2614, Text_t, "Bbm7/G"
1, 2627, Note_on_c, 0, 56, 34
1, 2627, Note_on_c, 0, 61, 52
1, 2628, Note_on_c, 0, 43, 32
1, 2740, Note_off_c, 0, 56, 64
1, 2741, Note_off_c, 0, 61, 64
1, 2748, Note_on_c, 0, 58, 39
1, 2754, Note_on_c, 0, 65, 44
1, 2770, Note_off_c, 0, 43, 64
1, 2850, Note_off_c, 0, 58, 64
1, 2856, Note_off_c, 0, 65, 64
1, 2861, Note_on_c, 0, 61, 47
1, 2863, Note_on_c, 0, 56, 36
1, 2871, Note_on_c, 0, 43, 29
1, 2946, Note_off_c, 0, 31, 64
1, 2983, Control_c, 0, 64, 0
1, 2985, Note_on_c, 0, 31, 66
1, 3009, Control_c, 0, 64, 127
1, 3087, Note_off_c, 0, 43, 64
1, 3100, Note_off_c, 0, 56, 64
1, 3109, Note_off_c, 0, 61, 64
1, 3110, Sequencer_specific, 18, 0, 0, 0, 106, 0, 5, 91, 84, 101, 120, 116, 61, 50, 61, 53, 61, 53, 93
1, 3110, Text_t, "Am7/G"
1, 3118, Note_on_c, 0, 60, 79
1, 3118, Note_on_c, 0, 55, 79
1, 3122, Note_on_c, 0, 43, 60
1, 3135, Control_c, 0, 64, 0
1, 3166, Control_c, 0, 64, 127
1, 3193, Note_off_c, 0, 60, 64
1, 3233, Note_off_c, 0, 55, 64
1, 3238, Note_off_c, 0, 43, 64
1, 3269, Note_on_c, 0, 57, 91
1, 3269, Note_on_c, 0, 64, 82
1, 3273, Note_on_c, 0, 43, 51
1, 3353, Note_off_c, 0, 43, 64
1, 3405, Note_off_c, 0, 57, 64
1, 3418, Note_off_c, 0, 31, 64
1, 3445, Note_off_c, 0, 64, 64
1, 3460, Note_on_c, 0, 60, 68
1, 3461, Note_on_c, 0, 55, 57
1, 3463, Note_on_c, 0, 43, 53
1, 3490, Control_c, 0, 64, 0
1, 3512, Control_c, 0, 64, 127
1, 3575, Note_on_c, 0, 31, 79
1, 3645, Note_off_c, 0, 43, 64
1, 3650, Note_off_c, 0, 55, 64
1, 3670, Sequencer_specific, 18, 0, 0, 0, 106, 0, 5, 91, 84, 101, 120, 116, 61, 50, 61, 53, 61, 53, 93
1, 3670, Text_t, "Ab6/G"
1, 3675, Note_off_c, 0, 60, 64
1, 3691, Note_on_c, 0, 58, 82
1, 3693, Note_on_c, 0, 53, 81
1, 3695, Note_on_c, 0, 43, 62
1, 3707, Control_c, 0, 64, 0
1, 3747, Control_c, 0, 64, 127
1, 3789, Note_off_c, 0, 53, 64
1, 3794, Note_off_c, 0, 43, 64
1, 3813, Note_off_c, 0, 58, 64
1, 3815, Note_on_c, 0, 55, 68
1, 3815, Note_on_c, 0, 63, 44
1, 3819, Note_on_c, 0, 43, 50
1, 3835, Control_c, 0, 64, 0
1, 3840, Marker_t, "A"
1, 3861, Control_c, 0, 64, 127
1, 3919, Note_off_c, 0, 43, 64
1, 3923, Note_off_c, 0, 55, 64
1, 3973, Note_on_c, 0, 53, 44
1, 3974, Note_on_c, 0, 58, 48
1, 3979, Note_on_c, 0, 43, 28
1, 3988, Control_c, 0, 64, 0
1, 4060, Control_c, 0, 64, 127
1, 4082, Note_off_c, 0, 31, 64
1, 4160, Note_on_c, 0, 31, 41
1, 4214, Note_off_c, 0, 43, 64
1, 4238, Note_off_c, 0, 53, 64
1, 4268, Note_off_c, 0, 58, 64
1, 4308, Note_off_c, 0, 63, 64
1, 4320, Sequencer_specific, 18, 0, 0, 0, 106, 0, 5, 91, 84, 101, 120, 116, 61, 50, 61, 53, 61, 53, 93
1, 4320, Text_t, "GMaj9(add 6)"
1, 4351, Note_on_c, 0, 57, 55
1, 4352, Note_on_c, 0, 52, 46
1, 4354, Control_c, 0, 64, 0
1, 4356, Note_on_c, 0, 43, 40
1, 4389, Control_c, 0, 64, 127
1, 4436, Note_off_c, 0, 57, 64
1, 4479, Note_off_c, 0, 52, 64
1, 4518, Note_on_c, 0, 54, 51
1, 4525, Note_on_c, 0, 62, 57
1, 4536, Note_off_c, 0, 43, 64
1, 4579, Note_off_c, 0, 31, 64
1, 4609, Note_off_c, 0, 54, 64
1, 4652, Note_off_c, 0, 62, 64
1, 4695, Note_on_c, 0, 57, 49
1, 4697, Note_on_c, 0, 52, 39
1, 4703, Note_on_c, 0, 43, 29
1, 4800, Marker_t, "A"
1, 4887, Note_on_c, 0, 31, 47
1, 4920, Note_off_c, 0, 31, 64
1, 4934, Note_off_c, 0, 52, 64
1, 4962, Note_off_c, 0, 43, 64
1, 5064, Note_off_c, 0, 57, 64
1, 5131, Sequencer_specific, 18, 0, 0, 0, 106, 0, 5, 91, 84, 101, 120, 116, 61, 50, 61, 53, 61, 53, 93
1, 5131, Text_t, "G7(b9b13)"
1, 5150, Note_on_c, 0, 56, 44
1, 5150, Note_on_c, 0, 51, 35
1, 5156, Note_on_c, 0, 43, 33
1, 5177, Control_c, 0, 64, 0
1, 5221, Control_c, 0, 64, 127
1, 5394, Note_off_c, 0, 51, 64
1, 5394, Note_off_c, 0, 56, 64
1, 5430, Note_off_c, 0, 43, 64
1, 5632, Sequencer_specific, 18, 0, 0, 0, 106, 0, 5, 91, 84, 101, 120, 116, 61, 50, 61, 53, 61, 53, 93
1, 5632, Text_t, "Anacrucis played with Octaves in RH and LH"
1, 5730, Control_c, 0, 64, 0
1, 5763, Note_on_c, 0, 84, 53
1, 5763, Note_on_c, 0, 60, 45
1, 5850, Control_c, 0, 64, 127
1, 5873, Note_off_c, 0, 60, 64
1, 5874, Note_on_c, 0, 86, 74
1, 5881, Note_off_c, 0, 84, 64
1, 5881, Note_on_c, 0, 62, 50
1, 5963, Note_off_c, 0, 86, 64
1, 5965, Control_c, 0, 64, 0
1, 5974, Note_on_c, 0, 88, 71
1, 5977, Note_off_c, 0, 62, 64
1, 5977, Note_on_c, 0, 64, 54
1, 6007, Control_c, 0, 64, 127
1, 6085, Note_on_c, 0, 83, 55
1, 6091, Note_on_c, 0, 59, 36
1, 6092, Note_off_c, 0, 64, 64
1, 6097, Control_c, 0, 64, 0
1, 6107, Control_c, 0, 64, 127
1, 6240, Marker_t, "A"
1, 6247, Note_off_c, 0, 83, 64
1, 6252, Note_off_c, 0, 59, 64
1, 6253, Note_on_c, 0, 84, 57
1, 6256, Note_off_c, 0, 88, 64
1, 6258, Note_on_c, 0, 60, 38
1, 6429, Note_off_c, 0, 84, 64
1, 6430, Note_off_c, 0, 60, 64
1, 6642, Note_on_c, 0, 62, 51
1, 6646, Note_on_c, 0, 60, 53
1, 6648, Note_on_c, 0, 57, 40
1, 6650, Note_on_c, 0, 53, 37
1, 6652, Note_on_c, 0, 43, 25
1, 6659, Control_c, 0, 64, 0
1, 6691, Control_c, 0, 64, 127
1, 6704, Note_off_c, 0, 53, 64
1, 6730, Note_off_c, 0, 57, 64
1, 6740, Note_off_c, 0, 60, 64
1, 6744, Note_off_c, 0, 62, 64
1, 6755, Note_on_c, 0, 55, 49
1, 6757, Note_off_c, 0, 43, 64
1, 6783, Note_off_c, 0, 55, 64
1, 6859, Note_on_c, 0, 60, 52
1, 6969, Note_on_c, 0, 65, 32
1, 6969, Note_on_c, 0, 69, 34
1, 6970, Note_on_c, 0, 64, 24
1, 6971, Note_off_c, 0, 60, 64
1, 7009, Note_off_c, 0, 65, 64
1, 7013, Note_off_c, 0, 64, 64
1, 7031, Note_off_c, 0, 69, 64
1, 7102, Note_on_c, 0, 76, 54
1, 7103, Note_on_c, 0, 69, 51
1, 7106, Note_on_c, 0, 65, 38
1, 7109, Note_on_c, 0, 64, 32
1, 7132, Control_c, 0, 64, 0
1, 7162, Control_c, 0, 64, 127
1, 7199, Note_off_c, 0, 64, 64
1, 7199, Note_on_c, 0, 62, 70
1, 7247, Note_off_c, 0, 65, 64
1, 7250, Note_off_c, 0, 69, 64
1, 7252, Note_off_c, 0, 76, 64
1, 7287, Note_off_c, 0, 62, 64
1, 7391, Note_on_c, 0, 57, 42
1, 7441, Note_off_c, 0, 57, 64
1, 7552, Note_on_c, 0, 61, 42
1, 7553, Note_on_c, 0, 64, 31
1, 7554, Note_on_c, 0, 57, 33
1, 7554, Note_on_c, 0, 53, 32
1, 7560, Note_on_c, 0, 43, 26
1, 7563, Note_on_c, 0, 31, 33
1, 7577, Control_c, 0, 64, 0
1, 7633, Control_c, 0, 64, 127
1, 7692, Note_off_c, 0, 53, 64
1, 7695, Note_off_c, 0, 31, 64
1, 7696, Note_off_c, 0, 57, 64
1, 7719, Note_off_c, 0, 43, 64
1, 7729, Note_off_c, 0, 61, 64
1, 7735, Note_off_c, 0, 64, 64
1, 7906, Sequencer_specific, 18, 0, 0, 0, 106, 0, 5, 91, 84, 101, 120, 116, 61, 50, 61, 53, 61, 53, 93
1, 7906, Text_t, "Phrase is harmonised in 'drop2' voicings chord tones harmonised with Dm6 chord, non-chord tones with a dimin"
1, 7928, Note_on_c, 0, 73, 58
1, 7930, Note_on_c, 0, 67, 65
1, 7930, Note_on_c, 0, 70, 60
1, 7930, Note_on_c, 0, 64, 69
1, 7933, Note_on_c, 0, 58, 53
1, 7940, Control_c, 0, 64, 0
1, 7946, Control_c, 0, 64, 127
1, 7986, Note_off_c, 0, 67, 64
1, 8028, Note_off_c, 0, 64, 64
1, 8056, Note_off_c, 0, 70, 64
1, 8067, Note_off_c, 0, 73, 64
1, 8074, Note_on_c, 0, 69, 72
1, 8074, Note_on_c, 0, 74, 65
1, 8075, Note_on_c, 0, 65, 68
1, 8078, Note_on_c, 0, 59, 63
1, 8086, Control_c, 0, 64, 0
1, 8092, Note_off_c, 0, 58, 64
1, 8112, Control_c, 0, 64, 127
1, 8130, Note_off_c, 0, 65, 64
1, 8142, Note_off_c, 0, 74, 64
1, 8142, Note_off_c, 0, 69, 64
1, 8175, Note_on_c, 0, 70, 78
1, 8176, Note_on_c, 0, 76, 78
1, 8176, Note_on_c, 0, 61, 73
1, 8177, Note_on_c, 0, 67, 80
1, 8178, Note_off_c, 0, 59, 64
1, 8184, Control_c, 0, 64, 0
1, 8194, Control_c, 0, 64, 127
1, 8220, Note_off_c, 0, 67, 64
1, 8229, Note_off_c, 0, 76, 64
1, 8229, Note_off_c, 0, 70, 64
1, 8254, Note_off_c, 0, 61, 64
1, 8267, Note_on_c, 0, 77, 71
1, 8268, Note_on_c, 0, 72, 61
1, 8269, Note_on_c, 0, 69, 58
1, 8273, Note_on_c, 0, 62, 62
1, 8277, Control_c, 0, 64, 0
1, 8277, Note_on_c, 0, 71, 24
1, 8283, Note_off_c, 0, 71, 64
1, 8299, Control_c, 0, 64, 127
1, 8318, Note_off_c, 0, 69, 64
1, 8324, Note_off_c, 0, 77, 64
1, 8327, Note_off_c, 0, 72, 64
1, 8372, Note_off_c, 0, 62, 64
1, 8457, Note_on_c, 0, 79, 61
1, 8482, Note_off_c, 0, 79, 64
1, 8574, Note_on_c, 0, 71, 54
1, 8574, Note_on_c, 0, 76, 50
1, 8577, Control_c, 0, 64, 0
1, 8578, Note_on_c, 0, 48, 26
1, 8579, Note_on_c, 0, 64, 43
1, 8584, Note_on_c, 0, 59, 18
1, 8584, Note_on_c, 0, 55, 37
1, 8593, Control_c, 0, 64, 127
1, 8607, Note_off_c, 0, 64, 64
1, 8613, Note_off_c, 0, 76, 64
1, 8614, Note_off_c, 0, 55, 64
1, 8617, Note_off_c, 0, 71, 64
1, 8624, Note_off_c, 0, 59, 64
1, 8625, Note_off_c, 0, 48, 64
1, 8687, Note_on_c, 0, 79, 81
1, 8734, Note_off_c, 0, 79, 64
1, 8763, Note_on_c, 0, 79, 80
1, 8797, Note_off_c, 0, 79, 64
1, 8832, Note_on_c, 0, 79, 66
1, 8851, Note_off_c, 0, 79, 64
1, 8916, Note_on_c, 0, 79, 47
1, 8916, Note_on_c, 0, 86, 52
1, 8919, Note_on_c, 0, 41, 31
1, 8919, Note_on_c, 0, 74, 48
1, 8930, Control_c, 0, 64, 0
1, 8964, Control_c, 0, 64, 127
1, 8975, Note_off_c, 0, 86, 64
1, 8983, Note_off_c, 0, 79, 64
1, 8995, Note_off_c, 0, 74, 64
1, 9003, Note_on_c, 0, 48, 36
1, 9090, Note_on_c, 0, 71, 46
1, 9091, Note_on_c, 0, 67, 38
1, 9099, Note_on_c, 0, 57, 24
1, 9120, Marker_t, "A"
1, 9141, Note_off_c, 0, 41, 64
1, 9154, Note_off_c, 0, 48, 64
1, 9164, Note_off_c, 0, 57, 64
1, 9176, Note_off_c, 0, 67, 64
1, 9184, Note_on_c, 0, 79, 56
1, 9210, Note_off_c, 0, 71, 64
1, 9266, Note_off_c, 0, 79, 64
1, 9283, Note_on_c, 0, 71, 51
1, 9285, Note_on_c, 0, 67, 44
1, 9290, Note_on_c, 0, 52, 35
1, 9291, Note_on_c, 0, 62, 35
1, 9313, Control_c, 0, 64, 0
1, 9359, Control_c, 0, 64, 127
1, 9399, Note_on_c, 0, 59, 38
1, 9417, Note_off_c, 0, 62, 64
1, 9431, Note_off_c, 0, 71, 64
1, 9441, Note_off_c, 0, 67, 64
1, 9535, Note_on_c, 0, 71, 40
1, 9539, Note_on_c, 0, 67, 34
1, 9542, Note_on_c, 0, 62, 35
1, 9647, Note_off_c, 0, 71, 64
1, 9688, Note_off_c, 0, 59, 64
1, 9692, Note_off_c, 0, 52, 64
1, 9693, Note_off_c, 0, 67, 64
1, 9699, Note_off_c, 0, 62, 64
1, 9950, Sequencer_specific, 18, 0, 0, 0, 106, 0, 5, 91, 84, 101, 120, 116, 61, 50, 61, 53, 61, 53, 93
1, 9950, Text_t, "More drop 2"
1, 9975, Note_on_c, 0, 74, 83
1, 9977, Note_on_c, 0, 69, 81
1, 9977, Note_on_c, 0, 65, 80
1, 9978, Note_on_c, 0, 59, 69
1, 9997, Control_c, 0, 64, 127
1, 10040, Note_off_c, 0, 65, 64
1, 10042, Note_off_c, 0, 69, 64
1, 10048, Note_off_c, 0, 74, 64
1, 10089, Note_on_c, 0, 76, 61
1, 10091, Note_on_c, 0, 70, 71
1, 10091, Note_on_c, 0, 67, 66
1, 10093, Note_on_c, 0, 61, 64
1, 10094, Note_off_c, 0, 59, 64
1, 10100, Control_c, 0, 64, 0
1, 10154, Control_c, 0, 64, 127
1, 10162, Note_off_c, 0, 67, 64
1, 10168, Note_off_c, 0, 76, 64
1, 10172, Note_off_c, 0, 70, 64
1, 10219, Note_on_c, 0, 77, 67
1, 10220, Control_c, 0, 64, 0
1, 10220, Note_on_c, 0, 70, 62
1, 10223, Note_on_c, 0, 67, 57
1, 10224, Note_on_c, 0, 62, 64
1, 10226, Note_off_c, 0, 61, 64
1, 10282, Control_c, 0, 64, 127
1, 10309, Note_off_c, 0, 67, 64
1, 10315, Note_off_c, 0, 70, 64
1, 10315, Note_off_c, 0, 77, 64
1, 10369, Note_on_c, 0, 79, 60
1, 10372, Note_on_c, 0, 70, 52
1, 10373, Note_on_c, 0, 73, 42
1, 10375, Note_off_c, 0, 62, 64
1, 10377, Control_c, 0, 64, 0
1, 10378, Note_on_c, 0, 64, 44
1, 10415, Control_c, 0, 64, 127
1, 10420, Note_off_c, 0, 64, 64
1, 10433, Note_off_c, 0, 70, 64
1, 10456, Note_off_c, 0, 79, 64
1, 10470, Note_off_c, 0, 73, 64
1, 10514, Note_on_c, 0, 77, 57
1, 10519, Control_c, 0, 64, 0
1, 10519, Note_on_c, 0, 72, 35
1, 10520, Note_on_c, 0, 65, 36
1, 10521, Note_on_c, 0, 60, 43
1, 10523, Note_on_c, 0, 50, 34
1, 10526, Note_on_c, 0, 57, 25
1, 10542, Note_off_c, 0, 57, 64
1, 10560, Sequencer_specific, 18, 0, 0, 0, 106, 0, 5, 91, 84, 101, 120, 116, 61, 50, 61, 53, 61, 53, 93
1, 10560, Text_t, "Interesting re-harmonization of line - Dm7, A7/E,FMaj7,F#dim,G7sus"
1, 10561, Control_c, 0, 64, 127
1, 10589, Note_off_c, 0, 60, 64
1, 10630, Note_on_c, 0, 61, 45
1, 10632, Note_off_c, 0, 72, 64
1, 10685, Note_off_c, 0, 61, 64
1, 10686, Note_off_c, 0, 65, 64
1, 10716, Note_off_c, 0, 77, 64
1, 10737, Note_on_c, 0, 69, 48
1, 10738, Note_on_c, 0, 65, 40
1, 10740, Note_on_c, 0, 60, 35
1, 10776, Note_off_c, 0, 69, 64
1, 10806, Note_off_c, 0, 65, 64
1, 10843, Note_on_c, 0, 79, 83
1, 10851, Note_off_c, 0, 50, 64
1, 10884, Note_off_c, 0, 60, 64
1, 10890, Note_off_c, 0, 79, 64
1, 10919, Note_on_c, 0, 79, 79
1, 10923, Note_on_c, 0, 52, 64
1, 10926, Control_c, 0, 64, 0
1, 10970, Control_c, 0, 64, 127
1, 10979, Note_on_c, 0, 59, 66
1, 11040, Marker_t, "A"
1, 11042, Note_on_c, 0, 62, 62
1, 11042, Note_on_c, 0, 74, 62
1, 11042, Note_on_c, 0, 67, 71
1, 11066, Note_off_c, 0, 79, 64
1, 11070, Note_off_c, 0, 67, 64
1, 11074, Note_off_c, 0, 74, 64
1, 11077, Note_off_c, 0, 52, 64
1, 11079, Note_off_c, 0, 59, 64
1, 11090, Note_off_c, 0, 62, 64
1, 11126, Control_c, 0, 64, 0
1, 11127, Note_on_c, 0, 81, 79
1, 11128, Note_on_c, 0, 76, 81
1, 11129, Note_on_c, 0, 53, 66
1, 11129, Note_on_c, 0, 69, 80
1, 11130, Note_on_c, 0, 64, 69
1, 11132, Note_on_c, 0, 60, 61
1, 11165, Control_c, 0, 64, 127
1, 11172, Note_off_c, 0, 69, 64
1, 11175, Note_off_c, 0, 53, 64
1, 11178, Note_off_c, 0, 76, 64
1, 11181, Note_off_c, 0, 81, 64
1, 11183, Note_off_c, 0, 64, 64
1, 11212, Note_off_c, 0, 60, 64
1, 11232, Note_on_c, 0, 83, 76
1, 11233, Control_c, 0, 64, 0
1, 11234, Note_on_c, 0, 75, 77
1, 11234, Note_on_c, 0, 54, 68
1, 11235, Note_on_c, 0, 71, 76
1, 11235, Note_on_c, 0, 63, 72
1, 11289, Control_c, 0, 64, 127
1, 11333, Note_off_c, 0, 63, 64
1, 11335, Note_on_c, 0, 60, 47
1, 11353, Note_off_c, 0, 75, 64
1, 11356, Note_off_c, 0, 71, 64
1, 11431, Note_off_c, 0, 83, 64
1, 11434, Note_on_c, 0, 75, 39
1, 11436, Note_on_c, 0, 71, 51
1, 11440, Note_on_c, 0, 63, 26
1, 11479, Note_off_c, 0, 75, 64
1, 11491, Note_off_c, 0, 71, 64
1, 11504, Note_off_c, 0, 54, 64
1, 11540, Note_on_c, 0, 54, 44
1, 11542, Note_on_c, 0, 84, 68
1, 11548, Note_off_c, 0, 60, 64
1, 11553, Note_off_c, 0, 63, 64
1, 11570, Note_off_c, 0, 54, 64
1, 11589, Note_off_c, 0, 84, 64
1, 11694, Note_on_c, 0, 84, 49
1, 11695, Note_on_c, 0, 77, 37
1, 11695, Note_on_c, 0, 31, 45
1, 11696, Note_on_c, 0, 43, 34
1, 11696, Note_on_c, 0, 81, 53
1, 11696, Note_on_c, 0, 72, 25
1, 11702, Control_c, 0, 64, 0
1, 11744, Control_c, 0, 64, 127
1, 11756, Note_off_c, 0, 84, 64
1, 11765, Note_off_c, 0, 81, 64
1, 11770, Note_off_c, 0, 77, 64
1, 11776, Note_off_c, 0, 72, 64
1, 11801, Note_off_c, 0, 31, 64
1, 11841, Note_on_c, 0, 31, 44
1, 11894, Note_off_c, 0, 31, 64
1, 11912, Note_off_c, 0, 43, 64
1, 11979, Note_on_c, 0, 53, 30
1, 11983, Note_on_c, 0, 60, 44
1, 11984, Note_on_c, 0, 57, 34
1, 11984, Note_on_c, 0, 31, 33
1, 11988, Note_on_c, 0, 43, 17
1, 12106, Note_off_c, 0, 31, 64
1, 12139, Note_off_c, 0, 43, 64
1, 12196, Note_off_c, 0, 60, 64
1, 12199, Note_off_c, 0, 53, 64
1, 12209, Note_on_c, 0, 62, 60
1, 12210, Note_off_c, 0, 57, 64
1, 12255, Note_off_c, 0, 62, 64
1, 12403, Sequencer_specific, 18, 0, 0, 0, 106, 0, 5, 91, 84, 101, 120, 116, 61, 50, 61, 53, 61, 53, 93
1, 12403, Text_t, "C7sus chord"
1, 12425, Note_on_c, 0, 76, 45
1, 12432, Note_on_c, 0, 65, 57
1, 12436, Control_c, 0, 64, 0
1, 12436, Note_on_c, 0, 48, 36
1, 12437, Note_on_c, 0, 62, 44
1, 12449, Note_on_c, 0, 58, 14
1, 12462, Control_c, 0, 64, 127
1, 12465, Note_off_c, 0, 48, 64
1, 12485, Note_off_c, 0, 58, 64
1, 12502, Note_off_c, 0, 62, 64
1, 12527, Note_off_c, 0, 65, 64
1, 12548, Note_off_c, 0, 76, 64
1, 12554, Note_on_c, 0, 58, 44
1, 12676, Note_on_c, 0, 88, 65
1, 12680, Note_on_c, 0, 62, 27
1, 12681, Note_on_c, 0, 76, 62
1, 12726, Note_off_c, 0, 88, 64
1, 12745, Note_off_c, 0, 76, 64
1, 12778, Note_off_c, 0, 62, 64
1, 12788, Note_on_c, 0, 65, 32
1, 12789, Note_on_c, 0, 84, 65
1, 12793, Note_on_c, 0, 72, 37
1, 12817, Note_off_c, 0, 84, 64
1, 12833, Note_off_c, 0, 72, 64
1, 12878, Note_off_c, 0, 65, 64
1, 12894, Note_on_c, 0, 62, 38
1, 12946, Note_off_c, 0, 62, 64
1, 12971, Note_off_c, 0, 58, 64
1, 12985, Note_on_c, 0, 72, 51
1, 12986, Note_on_c, 0, 65, 68
1, 13031, Note_off_c, 0, 65, 64
1, 13086, Note_on_c, 0, 62, 45
1, 13086, Note_on_c, 0, 65, 43
1, 13221, Note_on_c, 0, 55, 27
1, 13241, Note_off_c, 0, 55, 64
1, 13272, Note_off_c, 0, 72, 64
1, 13282, Note_off_c, 0, 65, 64
1, 13292, Note_off_c, 0, 62, 64
1, 13396, Note_on_c, 0, 60, 48
1, 13397, Note_on_c, 0, 55, 40
1, 13399, Note_on_c, 0, 58, 35
1, 13402, Note_on_c, 0, 48, 34
1, 13418, Control_c, 0, 64, 0
1, 13440, Marker_t, "A"
1, 13452, Control_c, 0, 64, 127
1, 13473, Sequencer_specific, 18, 0, 0, 0, 106, 0, 5, 91, 84, 101, 120, 116, 61, 50, 61, 53, 61, 53, 93
1, 13473, Text_t, "Descending chromatic bass notes to tri-tone"
1, 13495, Note_on_c, 0, 47, 46
1, 13496, Note_off_c, 0, 48, 64
1, 13521, Note_off_c, 0, 47, 64
1, 13522, Note_on_c, 0, 46, 50
1, 13540, Note_off_c, 0, 55, 64
1, 13541, Note_off_c, 0, 46, 64
1, 13547, Note_on_c, 0, 45, 51
1, 13552, Note_off_c, 0, 60, 64
1, 13554, Note_off_c, 0, 58, 64
1, 13577, Note_on_c, 0, 44, 47
1, 13587, Note_off_c, 0, 45, 64
1, 13592, Note_off_c, 0, 44, 64
1, 13592, Note_on_c, 0, 43, 54
1, 13619, Control_c, 0, 64, 0
1, 13621, Note_off_c, 0, 43, 64
1, 13622, Note_on_c, 0, 42, 54
1, 13628, Note_on_c, 0, 52, 31
1, 13629, Note_on_c, 0, 58, 38
1, 13631, Note_on_c, 0, 60, 49
1, 13711, Control_c, 0, 64, 127
1, 13789, Note_off_c, 0, 52, 64
1, 13814, Note_off_c, 0, 60, 64
1, 13833, Note_off_c, 0, 58, 64
1, 13883, Note_off_c, 0, 42, 64
1, 14250, Note_on_c, 0, 76, 101
1, 14294, Note_off_c, 0, 76, 64
1, 14458, Note_on_c, 0, 76, 64
1, 14460, Note_on_c, 0, 69, 61
1, 14460, Note_on_c, 0, 58, 44
1, 14461, Note_on_c, 0, 73, 36
1, 14463, Note_on_c, 0, 64, 42
1, 14491, Note_off_c, 0, 58, 64
1, 14498, Note_off_c, 0, 73, 64
1, 14501, Note_off_c, 0, 69, 64
1, 14503, Note_off_c, 0, 76, 64
1, 14506, Note_off_c, 0, 64, 64
1, 14573, Note_on_c, 0, 72, 55
1, 14575, Note_on_c, 0, 58, 34
1, 14575, Note_on_c, 0, 69, 62
1, 14576, Note_on_c, 0, 64, 65
1, 14590, Note_off_c, 0, 58, 64
1, 14601, Note_off_c, 0, 69, 64
1, 14607, Note_off_c, 0, 72, 64
1, 14618, Note_off_c, 0, 64, 64
1, 14696, Note_on_c, 0, 42, 43
1, 14696, Note_on_c, 0, 61, 46
1, 14696, Note_on_c, 0, 69, 50
1, 14698, Note_on_c, 0, 52, 31
1, 14699, Note_on_c, 0, 58, 29
1, 14700, Note_on_c, 0, 64, 47
1, 14708, Control_c, 0, 64, 0
1, 14710, Control_c, 0, 64, 127
1, 14712, Control_c, 0, 64, 0
1, 14714, Control_c, 0, 64, 127
1, 14730, Note_off_c, 0, 42, 64
1, 14737, Note_off_c, 0, 52, 64
1, 14739, Note_off_c, 0, 58, 64
1, 14742, Note_off_c, 0, 69, 64
1, 14743, Note_off_c, 0, 64, 64
1, 14744, Note_off_c, 0, 61, 64
1, 14828, Sequencer_specific, 18, 0, 0, 0, 106, 0, 5, 91, 84, 101, 120, 116, 61, 50, 61, 53, 61, 53, 93
1, 14828, Text_t, "Rising 5th on F chord to add interst"
1, 14839, Note_on_c, 0, 41, 25
1, 14844, Note_on_c, 0, 72, 41
1, 14846, Note_on_c, 0, 67, 54
1, 14848, Note_on_c, 0, 62, 32
1, 14850, Control_c, 0, 64, 0
1, 14850, Note_on_c, 0, 57, 42
1, 14892, Control_c, 0, 64, 127
1, 14930, Note_off_c, 0, 57, 64
1, 14933, Note_off_c, 0, 67, 64
1, 14938, Note_off_c, 0, 72, 64
1, 14941, Note_on_c, 0, 48, 48
1, 14948, Note_off_c, 0, 62, 64
1, 15014, Note_off_c, 0, 48, 64
1, 15022, Note_on_c, 0, 49, 30
1, 15026, Note_on_c, 0, 61, 42
1, 15027, Note_on_c, 0, 64, 54
1, 15027, Note_on_c, 0, 57, 44
1, 15036, Control_c, 0, 64, 0
1, 15054, Control_c, 0, 64, 127
1, 15083, Note_off_c, 0, 49, 64
1, 15103, Note_on_c, 0, 52, 68
1, 15111, Control_c, 0, 64, 0
1, 15129, Control_c, 0, 64, 127
1, 15167, Note_off_c, 0, 52, 64
1, 15168, Note_off_c, 0, 57, 64
1, 15169, Note_off_c, 0, 64, 64
1, 15174, Note_off_c, 0, 61, 64
1, 15194, Note_on_c, 0, 62, 64
1, 15195, Note_on_c, 0, 57, 50
1, 15197, Note_on_c, 0, 50, 50
1, 15205, Control_c, 0, 64, 0
1, 15264, Note_off_c, 0, 41, 64
1, 15279, Control_c, 0, 64, 127
1, 15288, Note_on_c, 0, 41, 61
1, 15335, Note_off_c, 0, 57, 64
1, 15368, Note_off_c, 0, 50, 64
1, 15385, Note_on_c, 0, 57, 54
1, 15386, Note_off_c, 0, 41, 64
1, 15465, Note_off_c, 0, 62, 64
1, 15468, Note_on_c, 0, 40, 74
1, 15474, Control_c, 0, 64, 0
1, 15492, Note_off_c, 0, 57, 64
1, 15500, Control_c, 0, 64, 127
1, 15576, Control_c, 0, 64, 0
1, 15577, Note_off_c, 0, 40, 64
1, 15584, Note_on_c, 0, 53, 37
1, 15585, Note_on_c, 0, 60, 53
1, 15586, Note_on_c, 0, 57, 47
1, 15587, Note_on_c, 0, 38, 53
1, 15606, Control_c, 0, 64, 127
1, 15626, Note_off_c, 0, 53, 64
1, 15634, Note_off_c, 0, 57, 64
1, 15638, Note_off_c, 0, 60, 64
1, 15668, Note_off_c, 0, 38, 64
1, 15708, Note_on_c, 0, 74, 94
1, 15788, Note_off_c, 0, 74, 64
1, 15818, Note_on_c, 0, 74, 79
1, 15820, Note_on_c, 0, 69, 79
1, 15821, Note_on_c, 0, 65, 76
1, 15826, Note_on_c, 0, 64, 57
1, 15897, Note_off_c, 0, 64, 64
1, 15920, Note_on_c, 0, 62, 74
1, 15938, Note_off_c, 0, 69, 64
1, 15939, Note_off_c, 0, 74, 64
1, 15942, Note_off_c, 0, 62, 64
1, 15949, Note_off_c, 0, 65, 64
1, 16061, Note_on_c, 0, 53, 35
1, 16062, Note_on_c, 0, 57, 47
1, 16062, Note_on_c, 0, 60, 55
1, 16066, Note_on_c, 0, 50, 30
1, 16066, Note_on_c, 0, 43, 41
1, 16077, Control_c, 0, 64, 0
1, 16123, Control_c, 0, 64, 127
1, 16175, Note_off_c, 0, 53, 64
1, 16196, Note_on_c, 0, 53, 40
1, 16218, Note_off_c, 0, 60, 64
1, 16220, Note_off_c, 0, 57, 64
1, 16223, Note_off_c, 0, 53, 64
1, 16248, Note_off_c, 0, 50, 64
1, 16317, Note_on_c, 0, 56, 34
1, 16318, Note_on_c, 0, 64, 48
1, 16320, Marker_t, "A"
1, 16320, Note_on_c, 0, 59, 48
1, 16324, Control_c, 0, 64, 0
1, 16328, Note_on_c, 0, 53, 25
1, 16344, Control_c, 0, 64, 127
1, 16375, Note_off_c, 0, 59, 64
1, 16378, Note_off_c, 0, 56, 64
1, 16385, Note_off_c, 0, 64, 64
1, 16432, Note_off_c, 0, 43, 64
1, 16445, Note_off_c, 0, 53, 64
1, 16487, Note_on_c, 0, 71, 83
1, 16528, Note_on_c, 0, 67, 55
1, 16532, Note_off_c, 0, 71, 64
1, 16553, Note_off_c, 0, 67, 64
1, 16580, Note_on_c, 0, 40, 51
1, 16581, Note_on_c, 0, 71, 74
1, 16588, Note_on_c, 0, 55, 32
1, 16594, Control_c, 0, 64, 0
1, 16631, Control_c, 0, 64, 127
1, 16635, Note_off_c, 0, 55, 64
1, 16647, Note_on_c, 0, 47, 48
1, 16648, Note_off_c, 0, 71, 64
1, 16712, Note_off_c, 0, 47, 64
1, 16714, Note_on_c, 0, 62, 62
1, 16718, Note_on_c, 0, 52, 40
1, 16723, Note_on_c, 0, 55, 26
1, 16773, Note_off_c, 0, 55, 64
1, 16789, Note_on_c, 0, 67, 77
1, 16835, Note_off_c, 0, 67, 64
1, 16851, Note_off_c, 0, 62, 64
1, 16859, Note_on_c, 0, 67, 69
1, 16886, Note_off_c, 0, 67, 64
1, 16892, Note_off_c, 0, 40, 64
1, 16916, Note_off_c, 0, 52, 64
1, 16926, Note_on_c, 0, 71, 92
1, 16984, Note_off_c, 0, 71, 64
1, 17000, Note_on_c, 0, 71, 81
1, 17052, Note_off_c, 0, 71, 64
1, 17079, Note_on_c, 0, 72, 68
1, 17103, Note_off_c, 0, 72, 64
1, 17187, Note_on_c, 0, 72, 36
1, 17188, Note_on_c, 0, 65, 52
1, 17190, Note_on_c, 0, 61, 43
1, 17191, Note_on_c, 0, 69, 47
1, 17193, Note_on_c, 0, 45, 43
1, 17198, Control_c, 0, 64, 0
1, 17240, Control_c, 0, 64, 127
1, 17261, Note_off_c, 0, 61, 64
1, 17266, Note_off_c, 0, 65, 64
1, 17268, Note_off_c, 0, 69, 64
1, 17285, Note_off_c, 0, 72, 64
1, 17292, Note_on_c, 0, 33, 57
1, 17299, Note_off_c, 0, 33, 64
1, 17303, Note_off_c, 0, 45, 64
1, 17356, Sequencer_specific, 18, 0, 0, 0, 106, 0, 5, 91, 84, 101, 120, 116, 61, 50, 61, 53, 61, 53, 93
1, 17356, Text_t, "Melody is harmonised with Diminished chords"
1, 17405, Note_on_c, 0, 76, 88
1, 17405, Note_on_c, 0, 84, 82
1, 17406, Note_on_c, 0, 73, 73
1, 17407, Note_on_c, 0, 79, 68
1, 17408, Note_on_c, 0, 72, 80
1, 17411, Note_on_c, 0, 82, 37
1, 17467, Note_off_c, 0, 84, 64
1, 17471, Note_off_c, 0, 79, 64
1, 17472, Note_off_c, 0, 82, 64
1, 17474, Note_off_c, 0, 72, 64
1, 17477, Note_off_c, 0, 73, 64
1, 17477, Note_off_c, 0, 76, 64
1, 17508, Note_on_c, 0, 76, 83
1, 17508, Note_on_c, 0, 84, 79
1, 17510, Note_on_c, 0, 73, 64
1, 17510, Note_on_c, 0, 72, 71
1, 17511, Note_on_c, 0, 79, 63
1, 17515, Note_on_c, 0, 82, 36
1, 17535, Note_off_c, 0, 84, 64
1, 17540, Note_off_c, 0, 82, 64
1, 17540, Note_off_c, 0, 72, 64
1, 17541, Note_off_c, 0, 79, 64
1, 17545, Note_off_c, 0, 76, 64
1, 17568, Note_off_c, 0, 73, 64
1, 17608, Note_on_c, 0, 81, 69
1, 17608, Note_on_c, 0, 73, 62
1, 17609, Note_on_c, 0, 70, 76
1, 17610, Note_on_c, 0, 69, 77
1, 17611, Note_on_c, 0, 76, 66
1, 17698, Note_off_c, 0, 69, 64
1, 17704, Note_off_c, 0, 73, 64
1, 17707, Note_off_c, 0, 70, 64
1, 17711, Note_off_c, 0, 76, 64
1, 17713, Note_off_c, 0, 81, 64
1, 17738, Note_on_c, 0, 81, 47
1, 17739, Note_on_c, 0, 70, 48
1, 17740, Note_on_c, 0, 73, 39
1, 17741, Note_on_c, 0, 69, 53
1, 17742, Note_on_c, 0, 76, 50
1, 17820, Note_off_c, 0, 69, 64
1, 17826, Note_off_c, 0, 73, 64
1, 17828, Note_off_c, 0, 76, 64
1, 17830, Note_off_c, 0, 70, 64
1, 17833, Note_off_c, 0, 81, 64
1, 17894, Note_on_c, 0, 81, 39
1, 17895, Note_on_c, 0, 70, 30
1, 17895, Note_on_c, 0, 73, 31
1, 17897, Note_on_c, 0, 76, 43
1, 17899, Note_on_c, 0, 69, 44
1, 18039, Note_off_c, 0, 69, 64
1, 18052, Note_off_c, 0, 76, 64
1, 18110, Note_off_c, 0, 70, 64
1, 18114, Note_off_c, 0, 73, 64
1, 18143, Note_off_c, 0, 81, 64
1, 18156, Note_on_c, 0, 77, 46
1, 18185, Note_off_c, 0, 77, 64
1, 18263, Note_on_c, 0, 81, 51
1, 18269, Note_on_c, 0, 50, 28
1, 18275, Control_c, 0, 64, 0
1, 18299, Control_c, 0, 64, 127
1, 18330, Note_off_c, 0, 81, 64
1, 18337, Note_on_c, 0, 57, 36
1, 18407, Note_on_c, 0, 67, 38
1, 18446, Note_off_c, 0, 50, 64
1, 18449, Note_off_c, 0, 67, 64
1, 18477, Note_on_c, 0, 50, 30
1, 18478, Note_on_c, 0, 81, 62
1, 18502, Note_off_c, 0, 50, 64
1, 18526, Note_off_c, 0, 81, 64
1, 18546, Note_off_c, 0, 57, 64
1, 18552, Note_on_c, 0, 81, 64
1, 18555, Note_on_c, 0, 52, 38
1, 18559, Control_c, 0, 64, 0
1, 18598, Control_c, 0, 64, 127
1, 18720, Note_on_c, 0, 69, 52
1, 18724, Note_on_c, 0, 61, 25
1, 18763, Note_off_c, 0, 52, 64
1, 18768, Note_off_c, 0, 81, 64
1, 18797, Note_off_c, 0, 69, 64
1, 18803, Note_on_c, 0, 81, 51
1, 18804, Note_on_c, 0, 52, 29
1, 18822, Note_off_c, 0, 52, 64
1, 18832, Note_off_c, 0, 61, 64
1, 18864, Note_off_c, 0, 81, 64
1, 18895, Note_on_c, 0, 81, 55
1, 18898, Note_on_c, 0, 53, 43
1, 18902, Control_c, 0, 64, 0
1, 18936, Control_c, 0, 64, 127
1, 18977, Note_off_c, 0, 81, 64
1, 18993, Note_on_c, 0, 60, 38
1, 19010, Note_off_c, 0, 60, 64
1, 19040, Note_off_c, 0, 53, 64
1, 19100, Note_on_c, 0, 62, 62
1, 19102, Note_on_c, 0, 53, 58
1, 19103, Note_on_c, 0, 57, 58
1, 19196, Note_off_c, 0, 62, 64
1, 19200, Marker_t, "A"
1, 19214, Note_on_c, 0, 64, 59
1, 19232, Note_off_c, 0, 53, 64
1, 19240, Note_off_c, 0, 57, 64
1, 19258, Note_off_c, 0, 64, 64
1, 19360, Note_on_c, 0, 65, 52
1, 19363, Note_on_c, 0, 61, 37
1, 19365, Note_on_c, 0, 33, 37
1, 19365, Note_on_c, 0, 58, 33
1, 19367, Note_on_c, 0, 45, 32
1, 19367, Note_on_c, 0, 55, 31
1, 19367, Control_c, 0, 64, 0
1, 19426, Control_c, 0, 64, 127
1, 19469, Note_off_c, 0, 45, 64
1, 19508, Note_on_c, 0, 45, 58
1, 19567, Note_off_c, 0, 55, 64
1, 19573, Note_off_c, 0, 61, 64
1, 19575, Note_off_c, 0, 58, 64
1, 19632, Note_on_c, 0, 61, 30
1, 19633, Note_on_c, 0, 58, 35
1, 19634, Note_on_c, 0, 55, 43
1, 19671, Note_off_c, 0, 65, 64
1, 19688, Note_off_c, 0, 61, 64
1, 19693, Note_off_c, 0, 58, 64
1, 19715, Note_off_c, 0, 55, 64
1, 19736, Note_off_c, 0, 33, 64
1, 19744, Note_off_c, 0, 45, 64
1, 19761, Note_on_c, 0, 67, 80
1, 19810, Note_off_c, 0, 67, 64
1, 19960, Note_on_c, 0, 62, 53
1, 19961, Control_c, 0, 64, 0
1, 19964, Note_on_c, 0, 58, 34
1, 19966, Note_on_c, 0, 53, 24
1, 19966, Note_on_c, 0, 44, 34
1, 19966, Note_on_c, 0, 32, 38
1, 19989, Control_c, 0, 64, 127
1, 20001, Note_off_c, 0, 32, 64
1, 20001, Note_off_c, 0, 53, 64
1, 20012, Note_off_c, 0, 44, 64
1, 20015, Note_off_c, 0, 58, 64
1, 20017, Note_off_c, 0, 62, 64
1, 20103, Note_on_c, 0, 74, 55
1, 20104, Note_on_c, 0, 70, 48
1, 20107, Note_on_c, 0, 65, 39
1, 20109, Note_on_c, 0, 54, 27
1, 20120, Note_off_c, 0, 65, 64
1, 20136, Note_off_c, 0, 70, 64
1, 20138, Note_off_c, 0, 74, 64
1, 20218, Note_on_c, 0, 86, 83
1, 20225, Note_on_c, 0, 77, 68
1, 20229, Note_on_c, 0, 60, 32
1, 20248, Note_off_c, 0, 86, 64
1, 20257, Note_off_c, 0, 77, 64
1, 20295, Note_off_c, 0, 60, 64
1, 20323, Note_on_c, 0, 74, 68
1, 20331, Note_on_c, 0, 65, 71
1, 20422, Note_off_c, 0, 65, 64
1, 20422, Note_on_c, 0, 60, 34
1, 20467, Note_off_c, 0, 60, 64
1, 20478, Note_off_c, 0, 74, 64
1, 20529, Note_on_c, 0, 70, 33
1, 20535, Note_on_c, 0, 62, 22
1, 20538, Note_on_c, 0, 60, 28
1, 20545, Note_off_c, 0, 62, 64
1, 20555, Note_off_c, 0, 60, 64
1, 20558, Note_off_c, 0, 70, 64
1, 20638, Note_on_c, 0, 86, 69
1, 20644, Note_on_c, 0, 60, 1
1, 20647, Note_on_c, 0, 77, 57
1, 20668, Note_off_c, 0, 86, 64
1, 20677, Note_off_c, 0, 77, 64
1, 20713, Note_off_c, 0, 54, 64
1, 20755, Note_on_c, 0, 74, 50
1, 20760, Note_on_c, 0, 54, 35
1, 20766, Note_on_c, 0, 65, 44
1, 20774, Note_off_c, 0, 60, 64
1, 20794, Note_off_c, 0, 65, 64
1, 20800, Note_off_c, 0, 54, 64
1, 20805, Note_off_c, 0, 74, 64
1, 20904, Note_on_c, 0, 69, 48
1, 20905, Note_on_c, 0, 65, 38
1, 20909, Note_on_c, 0, 43, 34
1, 20909, Note_on_c, 0, 60, 33
1, 20912, Note_on_c, 0, 53, 32
1, 20921, Control_c, 0, 64, 0
1, 20956, Control_c, 0, 64, 127
1, 21025, Note_off_c, 0, 53, 64
1, 21076, Note_on_c, 0, 55, 55
1, 21120, Marker_t, "A"
1, 21174, Note_off_c, 0, 60, 64
1, 21179, Note_off_c, 0, 65, 64
1, 21184, Note_off_c, 0, 55, 64
1, 21246, Note_on_c, 0, 55, 31
1, 21259, Note_off_c, 0, 69, 64
1, 21288, Note_off_c, 0, 43, 64
1, 21308, Note_off_c, 0, 55, 64
1, 21428, Note_on_c, 0, 60, 76
1, 21428, Note_on_c, 0, 84, 89
1, 21485, Note_off_c, 0, 84, 64
1, 21523, Note_off_c, 0, 60, 64
1, 21530, Note_on_c, 0, 86, 108
1, 21532, Note_on_c, 0, 62, 77
1, 21596, Note_off_c, 0, 86, 64
1, 21610, Note_off_c, 0, 62, 64
1, 21610, Note_on_c, 0, 64, 73
1, 21611, Note_on_c, 0, 88, 88
1, 21699, Note_on_c, 0, 83, 68
1, 21701, Note_on_c, 0, 59, 66
1, 21703, Note_off_c, 0, 64, 64
1, 21708, Note_off_c, 0, 88, 64
1, 21716, Control_c, 0, 64, 0
1, 21742, Control_c, 0, 64, 127
1, 22016, Note_off_c, 0, 83, 64
1, 22024, Note_off_c, 0, 59, 64
1, 22033, Note_on_c, 0, 84, 48
1, 22038, Note_on_c, 0, 60, 27
1, 22123, Note_off_c, 0, 60, 64
1, 22138, Note_off_c, 0, 84, 64
1, 22400, Note_on_c, 0, 62, 66
1, 22403, Note_on_c, 0, 53, 36
1, 22403, Note_on_c, 0, 50, 36
1, 22404, Note_on_c, 0, 57, 40
1, 22406, Note_on_c, 0, 60, 40
1, 22409, Control_c, 0, 64, 0
1, 22427, Control_c, 0, 64, 127
1, 22481, Note_off_c, 0, 53, 64
1, 22487, Note_off_c, 0, 50, 64
1, 22497, Note_on_c, 0, 38, 47
1, 22498, Note_off_c, 0, 57, 64
1, 22502, Note_off_c, 0, 60, 64
1, 22504, Note_off_c, 0, 38, 64
1, 22511, Note_off_c, 0, 62, 64
1, 22596, Sequencer_specific, 18, 0, 0, 0, 106, 0, 5, 91, 84, 101, 120, 116, 61, 50, 61, 53, 61, 53, 93
1, 22596, Text_t, "Melody note is re-harmonised on each beat (Dm7/G, Bb7#11, A7b9, Ab7alt, G7sus"
1, 22623, Note_on_c, 0, 56, 70
1, 22623, Note_on_c, 0, 64, 91
1, 22623, Note_on_c, 0, 60, 87
1, 22624, Note_on_c, 0, 46, 63
1, 22634, Control_c, 0, 64, 0
1, 22654, Control_c, 0, 64, 127
1, 22687, Note_off_c, 0, 56, 64
1, 22705, Note_off_c, 0, 64, 64
1, 22709, Note_off_c, 0, 60, 64
1, 22717, Note_off_c, 0, 46, 64
1, 22765, Note_on_c, 0, 64, 64
1, 22766, Note_on_c, 0, 61, 54
1, 22768, Note_on_c, 0, 58, 54
1, 22770, Note_on_c, 0, 45, 56
1, 22772, Note_on_c, 0, 55, 44
1, 22782, Control_c, 0, 64, 0
1, 22802, Control_c, 0, 64, 127
1, 22835, Note_off_c, 0, 45, 64
1, 22842, Note_off_c, 0, 55, 64
1, 22898, Note_off_c, 0, 58, 64
1, 22900, Note_off_c, 0, 61, 64
1, 22950, Note_off_c, 0, 64, 64
1, 22994, Note_on_c, 0, 64, 46
1, 22994, Note_on_c, 0, 54, 40
1, 22995, Note_on_c, 0, 32, 39
1, 22995, Note_on_c, 0, 58, 56
1, 22996, Note_on_c, 0, 61, 42
1, 22997, Note_on_c, 0, 44, 29
1, 23003, Control_c, 0, 64, 0
1, 23031, Control_c, 0, 64, 127
1, 23056, Note_off_c, 0, 44, 64
1, 23061, Note_off_c, 0, 54, 64
1, 23063, Note_off_c, 0, 32, 64
1, 23065, Note_off_c, 0, 64, 64
1, 23106, Note_off_c, 0, 61, 64
1, 23118, Note_off_c, 0, 58, 64
1, 23164, Note_on_c, 0, 57, 46
1, 23164, Note_on_c, 0, 64, 45
1, 23165, Note_on_c, 0, 53, 37
1, 23166, Note_on_c, 0, 60, 48
1, 23171, Note_on_c, 0, 31, 37
1, 23173, Control_c, 0, 64, 0
1, 23178, Note_on_c, 0, 43, 14
1, 23223, Control_c, 0, 64, 127
1, 23298, Note_off_c, 0, 31, 64
1, 23313, Note_off_c, 0, 43, 64
1, 23321, Note_off_c, 0, 53, 64
1, 23352, Note_off_c, 0, 57, 64
1, 23354, Note_off_c, 0, 60, 64
1, 23414, Note_on_c, 0, 55, 77
1, 23477, Note_off_c, 0, 64, 64
1, 23484, Note_off_c, 0, 55, 64
1, 23704, Note_on_c, 0, 42, 43
1, 23707, Note_on_c, 0, 44, 53
1, 23720, Note_on_c, 0, 45, 64
1, 23721, Note_off_c, 0, 42, 64
1, 23727, Note_off_c, 0, 44, 64
1, 23734, Note_off_c, 0, 45, 64
1, 23736, Note_on_c, 0, 61, 58
1, 23737, Note_on_c, 0, 52, 60
1, 23738, Note_on_c, 0, 58, 55
1, 23739, Note_on_c, 0, 55, 54
1, 23740, Note_on_c, 0, 46, 64
1, 23743, Control_c, 0, 64, 0
1, 23775, Control_c, 0, 64, 127
1, 23782, Note_off_c, 0, 55, 64
1, 23786, Note_off_c, 0, 52, 64
1, 23808, Note_off_c, 0, 61, 64
1, 23815, Note_off_c, 0, 58, 64
1, 23827, Note_off_c, 0, 46, 64
1, 23833, Note_on_c, 0, 47, 46
1, 23834, Note_on_c, 0, 53, 61
1, 23836, Note_on_c, 0, 59, 60
1, 23836, Note_on_c, 0, 56, 44
1, 23837, Note_on_c, 0, 62, 55
1, 23845, Control_c, 0, 64, 0
1, 23873, Control_c, 0, 64, 127
1, 23887, Note_off_c, 0, 59, 64
1, 23888, Note_off_c, 0, 53, 64
1, 23891, Note_off_c, 0, 62, 64
1, 23892, Note_off_c, 0, 56, 64
1, 23917, Note_on_c, 0, 61, 61
1, 23919, Note_on_c, 0, 49, 64
1, 23919, Note_on_c, 0, 55, 63
1, 23920, Note_on_c, 0, 64, 59
1, 23920, Note_on_c, 0, 58, 56
1, 23927, Note_off_c, 0, 47, 64
1, 23927, Control_c, 0, 64, 0
1, 23953, Control_c, 0, 64, 127
1, 23965, Note_off_c, 0, 64, 64
1, 23973, Note_off_c, 0, 55, 64
1, 23983, Note_off_c, 0, 58, 64
1, 23988, Note_off_c, 0, 61, 64
1, 24015, Note_on_c, 0, 62, 58
1, 24015, Note_on_c, 0, 65, 47
1, 24015, Note_on_c, 0, 56, 40
1, 24016, Note_on_c, 0, 50, 47
1, 24019, Note_on_c, 0, 59, 58
1, 24024, Control_c, 0, 64, 0
1, 24028, Note_off_c, 0, 49, 64
1, 24046, Control_c, 0, 64, 127
1, 24063, Note_off_c, 0, 59, 64
1, 24063, Note_off_c, 0, 56, 64
1, 24064, Note_off_c, 0, 62, 64
1, 24070, Note_off_c, 0, 50, 64
1, 24071, Note_off_c, 0, 65, 64
1, 24144, Note_on_c, 0, 67, 62
1, 24144, Note_on_c, 0, 59, 65
1, 24146, Note_on_c, 0, 63, 57
1, 24148, Note_on_c, 0, 43, 47
1, 24151, Note_on_c, 0, 53, 36
1, 24154, Control_c, 0, 64, 0
1, 24171, Note_on_c, 0, 64, 46
1, 24173, Note_off_c, 0, 63, 64
1, 24183, Note_off_c, 0, 43, 64
1, 24192, Control_c, 0, 64, 127
1, 24206, Note_off_c, 0, 53, 64
1, 24221, Sequencer_specific, 18, 0, 0, 0, 106, 0, 5, 91, 84, 101, 120, 116, 61, 50, 61, 53, 61, 53, 93
1, 24221, Text_t, "CMaj7 - F7#11-em7-A7"
1, 24223, Note_off_c, 0, 59, 64
1, 24229, Note_off_c, 0, 64, 64
1, 24255, Note_off_c, 0, 67, 64
1, 24278, Note_on_c, 0, 36, 37
1, 24286, Note_on_c, 0, 64, 48
1, 24286, Note_on_c, 0, 52, 55
1, 24288, Note_on_c, 0, 57, 48
1, 24288, Note_on_c, 0, 62, 53
1, 24291, Control_c, 0, 64, 0
1, 24315, Control_c, 0, 64, 127
1, 24324, Note_off_c, 0, 36, 64
1, 24336, Note_off_c, 0, 57, 64
1, 24343, Note_off_c, 0, 52, 64
1, 24349, Note_off_c, 0, 62, 64
1, 24349, Note_off_c, 0, 64, 64
1, 24409, Note_on_c, 0, 41, 35
1, 24418, Note_on_c, 0, 63, 87
1, 24418, Note_on_c, 0, 67, 84
1, 24423, Note_on_c, 0, 57, 52
1, 24424, Note_on_c, 0, 55, 46
1, 24429, Control_c, 0, 64, 0
1, 24451, Control_c, 0, 64, 127
1, 24472, Note_off_c, 0, 55, 64
1, 24474, Note_off_c, 0, 57, 64
1, 24479, Note_off_c, 0, 41, 64
1, 24482, Note_off_c, 0, 63, 64
1, 24491, Note_off_c, 0, 67, 64
1, 24566, Note_on_c, 0, 40, 49
1, 24568, Note_on_c, 0, 47, 34
1, 24570, Note_on_c, 0, 74, 83
1, 24571, Note_on_c, 0, 67, 85
1, 24572, Note_on_c, 0, 55, 53
1, 24575, Control_c, 0, 64, 0
1, 24603, Control_c, 0, 64, 127
1, 24616, Note_off_c, 0, 40, 64
1, 24622, Note_off_c, 0, 47, 64
1, 24637, Note_off_c, 0, 55, 64
1, 24638, Note_off_c, 0, 74, 64
1, 24645, Note_off_c, 0, 67, 64
1, 24733, Note_on_c, 0, 61, 50
1, 24733, Note_on_c, 0, 69, 66
1, 24737, Note_on_c, 0, 55, 33
1, 24737, Note_on_c, 0, 65, 55
1, 24738, Note_on_c, 0, 45, 29
1, 24740, Control_c, 0, 64, 0
1, 24770, Control_c, 0, 64, 127
1, 24785, Note_off_c, 0, 45, 64
1, 24791, Note_off_c, 0, 55, 64
1, 24794, Note_off_c, 0, 69, 64
1, 24806, Note_off_c, 0, 65, 64
1, 24807, Note_off_c, 0, 61, 64
1, 24936, Note_on_c, 0, 62, 34
1, 24937, Note_on_c, 0, 67, 36
1, 24941, Note_on_c, 0, 55, 28
1, 24944, Note_on_c, 0, 40, 25
1, 24945, Control_c, 0, 64, 0
1, 24980, Note_off_c, 0, 62, 64
1, 24987, Control_c, 0, 64, 127
1, 25030, Note_off_c, 0, 55, 64
1, 25049, Note_off_c, 0, 67, 64
1, 25066, Note_on_c, 0, 62, 47
1, 25069, Note_on_c, 0, 59, 38
1, 25074, Note_on_c, 0, 55, 20
1, 25076, Note_on_c, 0, 52, 18
1, 25136, Note_off_c, 0, 55, 64
1, 25165, Note_off_c, 0, 59, 64
1, 25172, Note_off_c, 0, 62, 64
1, 25190, Note_on_c, 0, 55, 19
1, 25217, Note_off_c, 0, 55, 64
1, 25278, Note_off_c, 0, 40, 64
1, 25289, Note_on_c, 0, 62, 75
1, 25311, Note_off_c, 0, 52, 64
1, 25334, Note_off_c, 0, 62, 64
1, 25411, Note_on_c, 0, 61, 46
1, 25412, Note_on_c, 0, 64, 53
1, 25413, Note_on_c, 0, 58, 48
1, 25413, Note_on_c, 0, 49, 33
1, 25414, Note_on_c, 0, 55, 36
1, 25426, Control_c, 0, 64, 0
1, 25458, Control_c, 0, 64, 127
1, 25504, Note_off_c, 0, 64, 64
1, 25539, Note_off_c, 0, 61, 64
1, 25540, Note_off_c, 0, 55, 64
1, 25550, Note_off_c, 0, 58, 64
1, 25611, Note_on_c, 0, 65, 73
1, 25653, Note_off_c, 0, 65, 64
1, 25725, Note_on_c, 0, 67, 60
1, 25726, Note_on_c, 0, 64, 58
1, 25728, Note_off_c, 0, 49, 64
1, 25728, Note_on_c, 0, 61, 50
1, 25729, Note_on_c, 0, 52, 32
1, 25733, Note_on_c, 0, 58, 28
1, 25735, Control_c, 0, 64, 0
1, 25761, Control_c, 0, 64, 127
1, 25797, Note_off_c, 0, 64, 64
1, 25819, Note_off_c, 0, 67, 64
1, 25825, Note_off_c, 0, 58, 64
1, 25829, Note_off_c, 0, 52, 64
1, 25830, Note_off_c, 0, 61, 64
1, 25839, Note_on_c, 0, 66, 62
1, 25844, Note_on_c, 0, 61, 25
1, 25880, Note_off_c, 0, 61, 64
1, 25885, Note_off_c, 0, 66, 64
1, 25915, Note_on_c, 0, 65, 66
1, 25917, Note_on_c, 0, 50, 47
1, 25919, Control_c, 0, 64, 0
1, 25949, Control_c, 0, 64, 127
1, 25979, Note_off_c, 0, 65, 64
1, 25984, Note_on_c, 0, 57, 51
1, 26062, Note_on_c, 0, 79, 69
1, 26064, Note_on_c, 0, 62, 47
1, 26070, Note_on_c, 0, 67, 57
1, 26095, Note_off_c, 0, 50, 64
1, 26138, Note_on_c, 0, 50, 49
1, 26169, Note_off_c, 0, 50, 64
1, 26185, Note_off_c, 0, 67, 64
1, 26195, Note_off_c, 0, 79, 64
1, 26213, Note_off_c, 0, 57, 64
1, 26228, Note_on_c, 0, 52, 69
1, 26228, Note_on_c, 0, 79, 64
1, 26231, Note_on_c, 0, 74, 70
1, 26234, Note_on_c, 0, 67, 62
1, 26236, Control_c, 0, 64, 0
1, 26243, Note_off_c, 0, 62, 64
1, 26258, Control_c, 0, 64, 127
1, 26317, Note_on_c, 0, 59, 56
1, 26334, Note_off_c, 0, 67, 64
1, 26340, Note_off_c, 0, 74, 64
1, 26343, Note_off_c, 0, 52, 64
1, 26346, Note_off_c, 0, 79, 64
1, 26358, Note_off_c, 0, 59, 64
1, 26418, Note_on_c, 0, 81, 72
1, 26424, Note_on_c, 0, 76, 71
1, 26427, Note_on_c, 0, 60, 49
1, 26427, Note_on_c, 0, 64, 44
1, 26428, Note_on_c, 0, 69, 61
1, 26428, Note_on_c, 0, 53, 40
1, 26428, Control_c, 0, 64, 0
1, 26457, Control_c, 0, 64, 127
1, 26500, Note_off_c, 0, 60, 64
1, 26507, Note_off_c, 0, 69, 64
1, 26526, Note_on_c, 0, 60, 41
1, 26553, Note_off_c, 0, 53, 64
1, 26554, Note_off_c, 0, 76, 64
1, 26554, Note_off_c, 0, 81, 64
1, 26566, Note_off_c, 0, 64, 64
1, 26600, Note_off_c, 0, 60, 64
1, 26666, Note_on_c, 0, 83, 64
1, 26668, Note_on_c, 0, 71, 51
1, 26670, Note_on_c, 0, 54, 52
1, 26677, Control_c, 0, 64, 0
1, 26715, Control_c, 0, 64, 127
1, 26758, Note_off_c, 0, 71, 64
1, 26881, Note_on_c, 0, 71, 47
1, 26905, Note_off_c, 0, 71, 64
1, 26921, Note_off_c, 0, 83, 64
1, 26932, Note_off_c, 0, 54, 64
1, 27002, Note_on_c, 0, 84, 59
1, 27003, Note_on_c, 0, 72, 31
1, 27004, Note_on_c, 0, 77, 37
1, 27005, Note_on_c, 0, 55, 46
1, 27009, Note_on_c, 0, 65, 36
1, 27010, Control_c, 0, 64, 0
1, 27030, Control_c, 0, 64, 127
1, 27077, Note_off_c, 0, 84, 64
1, 27084, Note_off_c, 0, 72, 64
1, 27088, Note_off_c, 0, 77, 64
1, 27109, Note_off_c, 0, 65, 64
1, 27125, Note_on_c, 0, 84, 41
1, 27127, Note_on_c, 0, 72, 32
1, 27131, Note_off_c, 0, 55, 64
1, 27179, Note_off_c, 0, 84, 64
1, 27204, Note_off_c, 0, 72, 64
1, 27239, Note_on_c, 0, 31, 35
1, 27248, Note_off_c, 0, 31, 64
1, 27383, Note_on_c, 0, 59, 44
1, 27384, Note_on_c, 0, 56, 31
1, 27385, Note_on_c, 0, 53, 37
1, 27387, Note_on_c, 0, 43, 35
1, 27388, Note_on_c, 0, 50, 32
1, 27435, Note_off_c, 0, 53, 64
1, 27443, Note_off_c, 0, 59, 64
1, 27450, Note_off_c, 0, 56, 64
1, 27454, Note_off_c, 0, 43, 64
1, 27462, Note_off_c, 0, 50, 64
1, 27603, Note_on_c, 0, 74, 63
1, 27605, Note_on_c, 0, 71, 71
1, 27608, Note_on_c, 0, 68, 53
1, 27610, Note_on_c, 0, 65, 61
1, 27613, Note_on_c, 0, 62, 44
1, 27641, Note_off_c, 0, 62, 64
1, 27687, Note_off_c, 0, 65, 64
1, 27701, Note_off_c, 0, 68, 64
1, 27705, Note_off_c, 0, 74, 64
1, 27713, Note_off_c, 0, 71, 64
1, 27834, Note_on_c, 0, 76, 69
1, 27837, Note_on_c, 0, 48, 44
1, 27839, Note_on_c, 0, 70, 56
1, 27841, Note_on_c, 0, 58, 32
1, 27841, Note_on_c, 0, 69, 66
1, 27848, Control_c, 0, 64, 0
1, 27872, Note_off_c, 0, 48, 64
1, 27876, Control_c, 0, 64, 127
1, 27894, Note_off_c, 0, 58, 64
1, 27949, Note_on_c, 0, 58, 50
1, 27953, Note_off_c, 0, 69, 64
1, 27978, Note_off_c, 0, 70, 64
1, 27986, Note_off_c, 0, 76, 64
1, 28055, Note_on_c, 0, 69, 65
1, 28056, Note_on_c, 0, 66, 37
1, 28059, Note_on_c, 0, 62, 35
1, 28133, Note_off_c, 0, 66, 64
1, 28142, Note_off_c, 0, 69, 64
1, 28172, Note_on_c, 0, 69, 74
1, 28173, Note_on_c, 0, 72, 50
1, 28176, Note_off_c, 0, 62, 64
1, 28184, Note_off_c, 0, 58, 64
1, 28227, Note_off_c, 0, 69, 64
1, 28267, Note_off_c, 0, 72, 64
1, 28283, Note_on_c, 0, 70, 54
1, 28285, Note_on_c, 0, 67, 38
1, 28287, Note_on_c, 0, 48, 34
1, 28287, Note_on_c, 0, 58, 32
1, 28301, Control_c, 0, 64, 0
1, 28327, Control_c, 0, 64, 127
1, 28355, Note_off_c, 0, 67, 64
1, 28356, Note_off_c, 0, 58, 64
1, 28357, Note_on_c, 0, 55, 46
1, 28364, Note_off_c, 0, 70, 64
1, 28425, Note_on_c, 0, 65, 58
1, 28426, Note_on_c, 0, 62, 40
1, 28427, Note_on_c, 0, 58, 36
1, 28433, Note_off_c, 0, 55, 64
1, 28478, Note_off_c, 0, 58, 64
1, 28492, Note_off_c, 0, 62, 64
1, 28493, Note_off_c, 0, 48, 64
1, 28503, Note_on_c, 0, 69, 50
1, 28509, Note_on_c, 0, 55, 24
1, 28523, Note_off_c, 0, 69, 64
1, 28525, Note_off_c, 0, 65, 64
1, 28526, Note_off_c, 0, 55, 64
1, 28607, Note_on_c, 0, 67, 47
1, 28607, Note_on_c, 0, 58, 32
1, 28609, Note_on_c, 0, 64, 49
1, 28610, Note_on_c, 0, 48, 29
1, 28612, Note_on_c, 0, 61, 33
1, 28620, Control_c, 0, 64, 0
1, 28648, Control_c, 0, 64, 127
1, 28661, Note_off_c, 0, 58, 64
1, 28671, Note_off_c, 0, 67, 64
1, 28672, Note_off_c, 0, 64, 64
1, 28736, Note_on_c, 0, 60, 40
1, 28775, Note_off_c, 0, 61, 64
1, 28778, Note_off_c, 0, 48, 64
1, 28802, Note_off_c, 0, 60, 64
1, 28850, Note_on_c, 0, 76, 71
1, 28851, Note_on_c, 0, 68, 68
1, 28851, Note_on_c, 0, 72, 51
1, 28853, Note_on_c, 0, 64, 66
1, 28856, Note_on_c, 0, 60, 67
1, 28930, Note_on_c, 0, 59, 75
1, 28931, Note_off_c, 0, 60, 64
1, 28974, Note_off_c, 0, 59, 64
1, 28977, Note_on_c, 0, 58, 62
1, 29001, Note_off_c, 0, 58, 64
1, 29006, Note_on_c, 0, 57, 57
1, 29024, Note_off_c, 0, 64, 64
1, 29031, Note_off_c, 0, 72, 64
1, 29032, Note_off_c, 0, 68, 64
1, 29038, Note_on_c, 0, 56, 46
1, 29040, Note_off_c, 0, 76, 64
1, 29049, Note_off_c, 0, 57, 64
1, 29070, Note_off_c, 0, 56, 64
1, 29071, Note_on_c, 0, 55, 57
1, 29098, Note_on_c, 0, 54, 44
1, 29099, Note_off_c, 0, 55, 64
1, 29099, Control_c, 0, 64, 0
1, 29103, Note_on_c, 0, 68, 33
1, 29104, Note_on_c, 0, 64, 38
1, 29105, Note_on_c, 0, 76, 41
1, 29106, Note_on_c, 0, 72, 30
1, 29150, Control_c, 0, 64, 127
1, 29222, Note_off_c, 0, 72, 64
1, 29222, Note_off_c, 0, 64, 64
1, 29234, Note_off_c, 0, 68, 64
1, 29266, Note_off_c, 0, 76, 64
1, 29272, Note_on_c, 0, 72, 30
1, 29314, Note_off_c, 0, 72, 64
1, 29371, Note_on_c, 0, 72, 53
1, 29400, Note_off_c, 0, 54, 64
1, 29442, Note_on_c, 0, 69, 53
1, 29443, Note_off_c, 0, 72, 64
1, 29497, Note_off_c, 0, 69, 64
1, 29517, Note_on_c, 0, 41, 48
1, 29520, Note_on_c, 0, 72, 35
1, 29532, Control_c, 0, 64, 0
1, 29565, Control_c, 0, 64, 127
1, 29585, Note_on_c, 0, 48, 48
1, 29653, Note_off_c, 0, 72, 64
1, 29662, Note_on_c, 0, 57, 34
1, 29666, Note_on_c, 0, 62, 55
1, 29725, Note_off_c, 0, 57, 64
1, 29735, Note_off_c, 0, 41, 64
1, 29745, Note_off_c, 0, 62, 64
1, 29748, Note_off_c, 0, 48, 64
1, 29752, Note_on_c, 0, 72, 60
1, 29796, Note_off_c, 0, 72, 64
1, 29842, Note_on_c, 0, 40, 48
1, 29851, Note_on_c, 0, 55, 53
1, 29851, Note_on_c, 0, 72, 60
1, 29851, Note_on_c, 0, 67, 79
1, 29854, Note_on_c, 0, 62, 74
1, 29859, Control_c, 0, 64, 0
1, 29893, Control_c, 0, 64, 127
1, 29924, Note_off_c, 0, 72, 64
1, 29932, Note_off_c, 0, 40, 64
1, 29934, Note_off_c, 0, 55, 64
1, 29950, Note_on_c, 0, 72, 49
1, 29961, Note_off_c, 0, 67, 64
1, 29965, Note_off_c, 0, 62, 64
1, 29986, Note_off_c, 0, 72, 64
1, 30052, Note_on_c, 0, 39, 44
1, 30053, Note_on_c, 0, 72, 47
1, 30055, Note_on_c, 0, 65, 60
1, 30055, Note_on_c, 0, 54, 29
1, 30056, Note_on_c, 0, 61, 37
1, 30057, Note_on_c, 0, 69, 49
1, 30064, Control_c, 0, 64, 0
1, 30092, Control_c, 0, 64, 127
1, 30113, Note_off_c, 0, 54, 64
1, 30128, Note_off_c, 0, 72, 64
1, 30129, Note_off_c, 0, 39, 64
1, 30157, Note_on_c, 0, 72, 51
1, 30175, Note_off_c, 0, 65, 64
1, 30178, Note_off_c, 0, 69, 64
1, 30178, Note_off_c, 0, 61, 64
1, 30188, Note_off_c, 0, 72, 64
1, 30240, Marker_t, "A"
1, 30280, Note_on_c, 0, 38, 24
1, 30281, Note_on_c, 0, 72, 32
1, 30283, Note_on_c, 0, 65, 33
1, 30285, Note_on_c, 0, 53, 40
1, 30286, Note_on_c, 0, 69, 36
1, 30286, Note_on_c, 0, 60, 30
1, 30290, Control_c, 0, 64, 0
1, 30333, Control_c, 0, 64, 127
1, 30377, Note_on_c, 0, 45, 60
1, 30400, Note_off_c, 0, 53, 64
1, 30404, Note_off_c, 0, 60, 64
1, 30427, Note_off_c, 0, 38, 64
1, 30435, Note_off_c, 0, 72, 64
1, 30449, Note_off_c, 0, 65, 64
1, 30467, Note_on_c, 0, 60, 46
1, 30468, Note_off_c, 0, 45, 64
1, 30468, Note_on_c, 0, 53, 44
1, 30475, Note_off_c, 0, 60, 64
1, 30478, Note_off_c, 0, 69, 64
1, 30482, Note_off_c, 0, 53, 64
1, 30558, Note_on_c, 0, 74, 87
1, 30559, Note_on_c, 0, 62, 75
1, 30560, Note_on_c, 0, 69, 95
1, 30561, Note_on_c, 0, 65, 90
1, 30577, Note_off_c, 0, 62, 64
1, 30610, Note_off_c, 0, 65, 64
1, 30623, Note_off_c, 0, 74, 64
1, 30626, Note_off_c, 0, 69, 64
1, 30674, Note_on_c, 0, 74, 81
1, 30674, Note_on_c, 0, 71, 80
1, 30675, Note_on_c, 0, 69, 80
1, 30675, Note_on_c, 0, 65, 82
1, 30676, Note_on_c, 0, 62, 75
1, 30683, Control_c, 0, 64, 0
1, 30722, Control_c, 0, 64, 127
1, 30764, Note_off_c, 0, 62, 64
1, 30765, Note_on_c, 0, 59, 60
1, 30772, Note_off_c, 0, 59, 64
1, 30772, Note_off_c, 0, 74, 64
1, 30773, Note_off_c, 0, 71, 64
1, 30775, Note_off_c, 0, 69, 64
1, 30781, Note_off_c, 0, 65, 64
1, 30861, Note_on_c, 0, 64, 62
1, 30861, Note_on_c, 0, 71, 55
1, 30862, Note_on_c, 0, 59, 56
1, 30866, Note_on_c, 0, 53, 45
1, 30874, Control_c, 0, 64, 0
1, 30904, Control_c, 0, 64, 127
1, 30963, Note_off_c, 0, 59, 64
1, 30981, Note_on_c, 0, 43, 47
1, 31001, Note_off_c, 0, 53, 64
1, 31006, Note_off_c, 0, 43, 64
1, 31046, Note_on_c, 0, 67, 61
1, 31047, Note_off_c, 0, 71, 64
1, 31052, Note_off_c, 0, 64, 64
1, 31074, Note_off_c, 0, 67, 64
1, 31139, Note_on_c, 0, 67, 54
1, 31139, Note_on_c, 0, 71, 52
1, 31140, Note_on_c, 0, 62, 44
1, 31144, Note_on_c, 0, 40, 42
1, 31151, Control_c, 0, 64, 0
1, 31183, Control_c, 0, 64, 127
1, 31210, Note_off_c, 0, 67, 64
1, 31214, Note_off_c, 0, 71, 64
1, 31218, Note_off_c, 0, 62, 64
1, 31247, Note_on_c, 0, 52, 45
1, 31298, Note_off_c, 0, 40, 64
1, 31330, Note_off_c, 0, 52, 64
1, 31330, Note_on_c, 0, 59, 57
1, 31330, Note_on_c, 0, 62, 62
1, 31339, Note_off_c, 0, 59, 64
1, 31352, Note_off_c, 0, 62, 64
1, 31416, Note_on_c, 0, 71, 72
1, 31416, Note_on_c, 0, 64, 74
1, 31417, Note_on_c, 0, 67, 69
1, 31417, Note_on_c, 0, 62, 78
1, 31422, Note_on_c, 0, 59, 47
1, 31443, Note_off_c, 0, 62, 64
1, 31448, Note_off_c, 0, 64, 64
1, 31454, Note_off_c, 0, 67, 64
1, 31456, Note_off_c, 0, 71, 64
1, 31457, Note_off_c, 0, 59, 64
1, 31509, Note_on_c, 0, 74, 81
1, 31510, Note_on_c, 0, 71, 80
1, 31511, Note_on_c, 0, 67, 88
1, 31511, Note_on_c, 0, 64, 84
1, 31512, Note_on_c, 0, 62, 79
1, 31574, Note_off_c, 0, 62, 64
1, 31585, Note_off_c, 0, 64, 64
1, 31585, Note_off_c, 0, 74, 64
1, 31587, Note_off_c, 0, 67, 64
1, 31588, Note_off_c, 0, 71, 64
1, 31609, Note_on_c, 0, 72, 48
1, 31609, Note_on_c, 0, 67, 68
1, 31610, Note_on_c, 0, 64, 69
1, 31612, Note_on_c, 0, 60, 61
1, 31646, Note_off_c, 0, 60, 64
1, 31652, Note_off_c, 0, 72, 64
1, 31654, Note_off_c, 0, 67, 64
1, 31669, Note_off_c, 0, 64, 64
1, 31680, Marker_t, "A"
1, 31706, Note_on_c, 0, 71, 61
1, 31709, Note_on_c, 0, 59, 49
1, 31710, Note_on_c, 0, 67, 58
1, 31711, Note_on_c, 0, 64, 52
1, 31711, Note_on_c, 0, 62, 47
1, 31716, Control_c, 0, 64, 0
1, 31718, Control_c, 0, 64, 127
1, 31738, Note_off_c, 0, 67, 64
1, 31743, Note_off_c, 0, 71, 64
1, 31748, Note_off_c, 0, 64, 64
1, 31753, Note_off_c, 0, 62, 64
1, 31757, Note_off_c, 0, 59, 64
1, 31809, Note_on_c, 0, 67, 43
1, 31809, Note_on_c, 0, 62, 56
1, 31810, Note_on_c, 0, 55, 45
1, 31811, Note_on_c, 0, 59, 42
1, 31811, Note_on_c, 0, 64, 43
1, 31820, Note_off_c, 0, 55, 64
1, 31837, Note_off_c, 0, 64, 64
1, 31837, Note_off_c, 0, 62, 64
1, 31845, Note_off_c, 0, 67, 64
1, 31850, Note_off_c, 0, 59, 64
1, 31925, Note_on_c, 0, 63, 37
1, 31925, Note_on_c, 0, 58, 36
1, 31926, Note_on_c, 0, 55, 36
1, 31927, Note_on_c, 0, 61, 38
1, 31928, Note_on_c, 0, 45, 34
1, 31929, Note_on_c, 0, 49, 32
1, 31937, Control_c, 0, 64, 0
1, 31969, Control_c, 0, 64, 127
1, 32010, Note_off_c, 0, 58, 64
1, 32016, Note_off_c, 0, 61, 64
1, 32021, Note_off_c, 0, 55, 64
1, 32021, Note_off_c, 0, 63, 64
1, 32036, Note_off_c, 0, 49, 64
1, 32047, Note_on_c, 0, 61, 30
1, 32048, Note_on_c, 0, 55, 37
1, 32049, Note_on_c, 0, 64, 38
1, 32051, Note_on_c, 0, 58, 38
1, 32052, Note_on_c, 0, 52, 29
1, 32072, Note_off_c, 0, 55, 64
1, 32085, Note_off_c, 0, 64, 64
1, 32086, Note_off_c, 0, 61, 64
1, 32087, Note_off_c, 0, 58, 64
1, 32088, Note_off_c, 0, 45, 64
1, 32097, Note_off_c, 0, 52, 64
1, 32238, Sequencer_specific, 18, 0, 0, 0, 106, 0, 5, 91, 84, 101, 120, 116, 61, 50, 61, 53, 61, 53, 93
1, 32238, Text_t, "More melody harmonised with Dim chords"
1, 32266, Note_on_c, 0, 58, 54
1, 32277, Note_on_c, 0, 59, 84
1, 32282, Note_off_c, 0, 58, 64
1, 32291, Note_on_c, 0, 61, 74
1, 32293, Note_on_c, 0, 72, 69
1, 32293, Note_on_c, 0, 64, 78
1, 32295, Note_on_c, 0, 67, 71
1, 32295, Note_on_c, 0, 60, 87
1, 32300, Control_c, 0, 64, 0
1, 32301, Note_on_c, 0, 56, 20
1, 32302, Note_on_c, 0, 70, 39
1, 32303, Note_off_c, 0, 59, 64
1, 32308, Note_off_c, 0, 56, 64
1, 32340, Control_c, 0, 64, 127
1, 32357, Note_off_c, 0, 70, 64
1, 32362, Note_off_c, 0, 61, 64
1, 32363, Note_off_c, 0, 67, 64
1, 32363, Note_off_c, 0, 64, 64
1, 32367, Note_off_c, 0, 72, 64
1, 32370, Note_off_c, 0, 60, 64
1, 32373, Note_on_c, 0, 58, 42
1, 32379, Note_on_c, 0, 59, 74
1, 32386, Note_off_c, 0, 58, 64
1, 32386, Control_c, 0, 64, 0
1, 32391, Note_on_c, 0, 72, 53
1, 32393, Note_on_c, 0, 61, 78
1, 32393, Note_on_c, 0, 64, 80
1, 32395, Note_on_c, 0, 60, 87
1, 32395, Note_on_c, 0, 67, 72
1, 32398, Note_on_c, 0, 70, 44
1, 32403, Note_off_c, 0, 59, 64
1, 32412, Control_c, 0, 64, 127
1, 32434, Note_off_c, 0, 72, 64
1, 32436, Note_off_c, 0, 67, 64
1, 32439, Note_off_c, 0, 70, 64
1, 32441, Note_off_c, 0, 64, 64
1, 32452, Note_off_c, 0, 60, 64
1, 32458, Note_on_c, 0, 54, 17
1, 32467, Note_off_c, 0, 61, 64
1, 32483, Note_on_c, 0, 55, 66
1, 32487, Note_off_c, 0, 54, 64
1, 32492, Note_on_c, 0, 69, 69
1, 32492, Note_on_c, 0, 58, 69
1, 32492, Note_on_c, 0, 61, 65
1, 32494, Note_on_c, 0, 57, 66
1, 32495, Note_on_c, 0, 64, 64
1, 32496, Control_c, 0, 64, 0
1, 32502, Note_off_c, 0, 55, 64
1, 32534, Control_c, 0, 64, 127
1, 32563, Note_off_c, 0, 64, 64
1, 32564, Note_off_c, 0, 69, 64
1, 32565, Note_off_c, 0, 61, 64
1, 32569, Note_off_c, 0, 58, 64
1, 32570, Note_off_c, 0, 57, 64
1, 32585, Note_on_c, 0, 55, 36
1, 32593, Note_off_c, 0, 55, 64
1, 32599, Note_on_c, 0, 58, 67
1, 32600, Note_on_c, 0, 61, 62
1, 32603, Note_on_c, 0, 64, 60
1, 32603, Note_on_c, 0, 57, 40
1, 32605, Note_on_c, 0, 69, 33
1, 32615, Note_off_c, 0, 69, 64
1, 32615, Note_off_c, 0, 57, 64
1, 32628, Note_off_c, 0, 64, 64
1, 32637, Note_off_c, 0, 61, 64
1, 32638, Note_off_c, 0, 58, 64
1, 32700, Note_on_c, 0, 58, 50
1, 32700, Note_on_c, 0, 65, 59
1, 32701, Note_on_c, 0, 61, 33
1, 32701, Note_on_c, 0, 53, 48
1, 32702, Note_on_c, 0, 55, 46
1, 32712, Control_c, 0, 64, 0
1, 32725, Control_c, 0, 64, 127
1, 32743, Note_off_c, 0, 55, 64
1, 32744, Note_off_c, 0, 53, 64
1, 32756, Note_off_c, 0, 61, 64
1, 32757, Note_off_c, 0, 65, 64
1, 32759, Note_off_c, 0, 58, 64
1, 32832, Note_on_c, 0, 38, 58
1, 32832, Note_on_c, 0, 65, 58
1, 32834, Note_on_c, 0, 60, 36
1, 32834, Note_on_c, 0, 69, 48
1, 32841, Control_c, 0, 64, 0
1, 32875, Control_c, 0, 64, 127
1, 32904, Note_on_c, 0, 45, 61
1, 32921, Note_off_c, 0, 38, 64
1, 32948, Note_off_c, 0, 60, 64
1, 32972, Note_on_c, 0, 53, 71
1, 33012, Note_off_c, 0, 69, 64
1, 33022, Note_off_c, 0, 65, 64
1, 33027, Note_off_c, 0, 45, 64
1, 33034, Note_on_c, 0, 69, 70
1, 33067, Note_off_c, 0, 69, 64
1, 33073, Note_off_c, 0, 53, 64
1, 33104, Note_on_c, 0, 61, 71
1, 33105, Note_on_c, 0, 40, 58
1, 33105, Note_on_c, 0, 69, 74
1, 33114, Control_c, 0, 64, 0
1, 33182, Note_on_c, 0, 49, 51
1, 33194, Control_c, 0, 64, 127
1, 33243, Note_off_c, 0, 61, 64
1, 33262, Note_on_c, 0, 61, 30
1, 33264, Note_off_c, 0, 69, 64
1, 33267, Note_on_c, 0, 57, 52
1, 33270, Note_on_c, 0, 52, 28
1, 33310, Note_off_c, 0, 49, 64
1, 33323, Note_off_c, 0, 40, 64
1, 33336, Note_off_c, 0, 57, 64
1, 33345, Note_on_c, 0, 40, 32
1, 33347, Note_on_c, 0, 69, 64
1, 33367, Note_off_c, 0, 61, 64
1, 33374, Note_off_c, 0, 40, 64
1, 33400, Note_off_c, 0, 69, 64
1, 33431, Note_off_c, 0, 52, 64
1, 33442, Note_on_c, 0, 41, 48
1, 33446, Note_on_c, 0, 65, 42
1, 33446, Note_on_c, 0, 69, 34
1, 33447, Note_on_c, 0, 60, 22
1, 33451, Control_c, 0, 64, 0
1, 33481, Control_c, 0, 64, 127
1, 33531, Note_off_c, 0, 65, 64
1, 33535, Note_off_c, 0, 69, 64
1, 33541, Note_on_c, 0, 53, 43
1, 33543, Note_off_c, 0, 60, 64
1, 33633, Note_on_c, 0, 62, 56
1, 33634, Note_on_c, 0, 60, 55
1, 33666, Note_off_c, 0, 41, 64
1, 33691, Note_off_c, 0, 53, 64
1, 33717, Note_off_c, 0, 60, 64
1, 33720, Note_off_c, 0, 62, 64
1, 33729, Note_on_c, 0, 41, 41
1, 33731, Note_on_c, 0, 64, 51
1, 33755, Note_off_c, 0, 41, 64
1, 33761, Note_off_c, 0, 64, 64
1, 33865, Note_on_c, 0, 62, 50
1, 33866, Control_c, 0, 64, 0
1, 33866, Note_on_c, 0, 65, 46
1, 33866, Note_on_c, 0, 58, 35
1, 33870, Note_on_c, 0, 53, 43
1, 33871, Note_on_c, 0, 32, 48
1, 33873, Note_on_c, 0, 44, 30
1, 33920, Control_c, 0, 64, 127
1, 33946, Note_off_c, 0, 65, 64
1, 33948, Note_off_c, 0, 32, 64
1, 33949, Note_off_c, 0, 53, 64
1, 33949, Note_off_c, 0, 62, 64
1, 33951, Note_off_c, 0, 58, 64
1, 33957, Note_off_c, 0, 44, 64
1, 34016, Note_on_c, 0, 62, 45
1, 34016, Note_on_c, 0, 65, 34
1, 34017, Note_on_c, 0, 58, 32
1, 34019, Note_on_c, 0, 32, 33
1, 34022, Note_on_c, 0, 53, 24
1, 34023, Note_on_c, 0, 44, 19
1, 34060, Note_off_c, 0, 62, 64
1, 34062, Note_off_c, 0, 65, 64
1, 34069, Note_off_c, 0, 44, 64
1, 34071, Note_off_c, 0, 32, 64
1, 34083, Note_off_c, 0, 53, 64
1, 34091, Note_off_c, 0, 58, 64
1, 34187, Note_on_c, 0, 64, 34
1, 34189, Note_on_c, 0, 59, 41
1, 34190, Note_on_c, 0, 56, 27
1, 34192, Note_on_c, 0, 53, 29
1, 34195, Note_on_c, 0, 43, 27
1, 34196, Note_on_c, 0, 31, 39
1, 34198, Control_c, 0, 64, 0
1, 34245, Control_c, 0, 64, 127
1, 34329, Note_off_c, 0, 43, 64
1, 34345, Note_off_c, 0, 53, 64
1, 34353, Note_off_c, 0, 59, 64
1, 34359, Note_off_c, 0, 56, 64
1, 34366, Note_off_c, 0, 64, 64
1, 34410, Note_off_c, 0, 31, 64
1, 34422, Note_on_c, 0, 64, 45
1, 34562, Note_off_c, 0, 64, 64
1, 34601, Note_on_c, 0, 60, 36
1, 34604, Note_on_c, 0, 57, 38
1, 34604, Note_on_c, 0, 55, 25
1, 34610, Control_c, 0, 64, 0
1, 34611, Note_on_c, 0, 36, 37
1, 34634, Control_c, 0, 64, 127
1, 34646, Note_off_c, 0, 55, 64
1, 34662, Note_off_c, 0, 57, 64
1, 34670, Note_off_c, 0, 60, 64
1, 34681, Note_on_c, 0, 43, 54
1, 34723, Note_off_c, 0, 36, 64
1, 34743, Note_off_c, 0, 43, 64
1, 34746, Note_on_c, 0, 67, 54
1, 34747, Note_on_c, 0, 74, 61
1, 34747, Note_on_c, 0, 52, 44
1, 34754, Note_off_c, 0, 52, 64
1, 34806, Note_off_c, 0, 67, 64
1, 34811, Note_on_c, 0, 60, 43
1, 34814, Note_off_c, 0, 74, 64
1, 34886, Note_on_c, 0, 79, 67
1, 34887, Note_on_c, 0, 64, 46
1, 34888, Note_on_c, 0, 74, 64
1, 34890, Note_on_c, 0, 69, 58
1, 34897, Note_off_c, 0, 60, 64
1, 34939, Note_off_c, 0, 79, 64
1, 34946, Note_off_c, 0, 74, 64
1, 34955, Note_off_c, 0, 69, 64
1, 34971, Note_on_c, 0, 60, 37
1, 34977, Note_off_c, 0, 64, 64
1, 35049, Note_on_c, 0, 74, 50
1, 35051, Note_on_c, 0, 67, 55
1, 35052, Note_on_c, 0, 64, 27
1, 35056, Note_off_c, 0, 60, 64
1, 35059, Note_off_c, 0, 64, 64
1, 35083, Note_off_c, 0, 74, 64
1, 35099, Note_off_c, 0, 67, 64
1, 35144, Note_on_c, 0, 55, 30
1, 35240, Note_on_c, 0, 67, 36
1, 35243, Note_on_c, 0, 62, 37
1, 35244, Note_on_c, 0, 59, 31
1, 35244, Note_on_c, 0, 48, 40
1, 35245, Note_on_c, 0, 57, 34
1, 35250, Note_off_c, 0, 55, 64
1, 35255, Control_c, 0, 64, 0
1, 35293, Control_c, 0, 64, 127
1, 35371, Note_on_c, 0, 55, 33
1, 35393, Note_off_c, 0, 62, 64
1, 35409, Note_off_c, 0, 57, 64
1, 35415, Note_off_c, 0, 59, 64
1, 35486, Note_off_c, 0, 55, 64
1, 35521, Note_off_c, 0, 48, 64
1, 35673, Note_on_c, 0, 59, 67
1, 35722, Note_off_c, 0, 67, 64
1, 35762, Note_off_c, 0, 59, 64
1, 35813, Note_on_c, 0, 61, 57
1, 35813, Note_on_c, 0, 57, 54
1, 35815, Note_on_c, 0, 42, 46
1, 35817, Note_on_c, 0, 52, 40
1, 35829, Control_c, 0, 64, 0
1, 35865, Control_c, 0, 64, 127
1, 35964, Note_off_c, 0, 57, 64
1, 36014, Note_off_c, 0, 61, 64
1, 36059, Note_off_c, 0, 52, 64
1, 36089, Note_off_c, 0, 42, 64
1, 36092, Note_on_c, 0, 63, 51
1, 36093, Note_on_c, 0, 61, 50
1, 36096, Note_on_c, 0, 57, 37
1, 36098, Note_on_c, 0, 47, 39
1, 36105, Control_c, 0, 64, 0
1, 36137, Control_c, 0, 64, 127
1, 36225, Note_off_c, 0, 57, 64
1, 36226, Note_off_c, 0, 61, 64
1, 36238, Note_off_c, 0, 63, 64
1, 36270, Sequencer_specific, 18, 0, 0, 0, 106, 0, 5, 91, 84, 101, 120, 116, 61, 50, 61, 53, 61, 53, 93
1, 36270, Text_t, "Now in Key of E - a rising 5th adds interest"
1, 36310, Note_off_c, 0, 47, 64
1, 36314, Note_on_c, 0, 56, 36
1, 36314, Note_on_c, 0, 64, 42
1, 36320, Note_on_c, 0, 40, 33
1, 36328, Control_c, 0, 64, 0
1, 36359, Control_c, 0, 64, 127
1, 36382, Note_off_c, 0, 64, 64
1, 36418, Note_on_c, 0, 64, 66
1, 36418, Note_on_c, 0, 47, 35
1, 36484, Note_off_c, 0, 64, 64
1, 36489, Note_off_c, 0, 56, 64
1, 36513, Note_off_c, 0, 40, 64
1, 36533, Note_off_c, 0, 47, 64
1, 36534, Note_on_c, 0, 64, 53
1, 36536, Note_on_c, 0, 40, 25
1, 36538, Note_on_c, 0, 48, 44
1, 36539, Note_on_c, 0, 57, 38
1, 36547, Control_c, 0, 64, 0
1, 36599, Control_c, 0, 64, 127
1, 36612, Note_off_c, 0, 64, 64
1, 36663, Note_on_c, 0, 64, 49
1, 36680, Note_off_c, 0, 48, 64
1, 36681, Note_off_c, 0, 57, 64
1, 36709, Note_off_c, 0, 64, 64
1, 36726, Note_off_c, 0, 40, 64
1, 36782, Note_on_c, 0, 61, 34
1, 36783, Note_on_c, 0, 49, 34
1, 36784, Note_on_c, 0, 64, 50
1, 36784, Note_on_c, 0, 57, 61
1, 36786, Note_on_c, 0, 40, 34
1, 36790, Control_c, 0, 64, 0
1, 36832, Control_c, 0, 64, 127
1, 36876, Note_off_c, 0, 64, 64
1, 36911, Note_on_c, 0, 64, 67
1, 36919, Note_off_c, 0, 40, 64
1, 36942, Note_off_c, 0, 49, 64
1, 36952, Note_off_c, 0, 57, 64
1, 36965, Note_off_c, 0, 61, 64
1, 36966, Note_off_c, 0, 64, 64
1, 37044, Note_on_c, 0, 61, 53
1, 37046, Note_on_c, 0, 64, 62
1, 37046, Note_on_c, 0, 57, 60
1, 37047, Note_on_c, 0, 42, 42
1, 37052, Control_c, 0, 64, 0
1, 37052, Note_on_c, 0, 52, 29
1, 37080, Control_c, 0, 64, 127
1, 37141, Note_off_c, 0, 52, 64
1, 37147, Note_off_c, 0, 57, 64
1, 37176, Note_off_c, 0, 64, 64
1, 37176, Note_off_c, 0, 61, 64
1, 37191, Note_off_c, 0, 42, 64
1, 37266, Note_on_c, 0, 66, 62
1, 37290, Note_off_c, 0, 66, 64
1, 37372, Note_on_c, 0, 68, 49
1, 37375, Note_on_c, 0, 63, 45
1, 37376, Note_on_c, 0, 56, 33
1, 37381, Control_c, 0, 64, 0
1, 37381, Note_on_c, 0, 40, 29
1, 37419, Control_c, 0, 64, 127
1, 37443, Note_off_c, 0, 56, 64
1, 37443, Note_on_c, 0, 47, 47
1, 37460, Note_off_c, 0, 63, 64
1, 37509, Note_off_c, 0, 47, 64
1, 37515, Note_off_c, 0, 40, 64
1, 37516, Note_on_c, 0, 63, 40
1, 37518, Note_on_c, 0, 56, 32
1, 37520, Note_on_c, 0, 52, 38
1, 37582, Note_off_c, 0, 56, 64
1, 37585, Note_off_c, 0, 52, 64
1, 37590, Note_on_c, 0, 54, 62
1, 37606, Note_off_c, 0, 63, 64
1, 37660, Note_off_c, 0, 68, 64
1, 37669, Note_on_c, 0, 68, 31
1, 37673, Note_on_c, 0, 63, 63
1, 37675, Note_on_c, 0, 56, 67
1, 37686, Note_off_c, 0, 54, 64
1, 37741, Note_off_c, 0, 56, 64
1, 37766, Note_on_c, 0, 56, 53
1, 37795, Note_off_c, 0, 63, 64
1, 37803, Note_off_c, 0, 56, 64
1, 37845, Note_on_c, 0, 63, 46
1, 37846, Note_on_c, 0, 56, 39
1, 37902, Note_off_c, 0, 56, 64
1, 37920, Note_on_c, 0, 54, 46
1, 37932, Note_off_c, 0, 63, 64
1, 37934, Note_off_c, 0, 68, 64
1, 37951, Note_off_c, 0, 54, 64
1, 38004, Note_on_c, 0, 61, 37
1, 38008, Note_on_c, 0, 56, 46
1, 38009, Note_on_c, 0, 65, 57
1, 38010, Note_on_c, 0, 46, 44
1, 38021, Control_c, 0, 64, 0
1, 38051, Control_c, 0, 64, 127
1, 38083, Note_off_c, 0, 56, 64
1, 38086, Note_on_c, 0, 53, 58
1, 38107, Note_off_c, 0, 65, 64
1, 38108, Note_off_c, 0, 53, 64
1, 38109, Note_off_c, 0, 46, 64
1, 38120, Note_off_c, 0, 61, 64
1, 38178, Note_on_c, 0, 65, 62
1, 38178, Note_on_c, 0, 61, 46
1, 38183, Note_on_c, 0, 60, 54
1, 38253, Note_off_c, 0, 65, 64
1, 38277, Note_off_c, 0, 61, 64
1, 38287, Note_on_c, 0, 63, 74
1, 38293, Note_on_c, 0, 61, 34
1, 38299, Note_off_c, 0, 61, 64
1, 38312, Note_off_c, 0, 60, 64
1, 38371, Note_off_c, 0, 63, 64
1, 38400, Marker_t, "A"
1, 38413, Note_on_c, 0, 61, 58
1, 38413, Note_on_c, 0, 63, 64
1, 38413, Note_on_c, 0, 68, 60
1, 38416, Note_on_c, 0, 51, 45
1, 38434, Control_c, 0, 64, 0
1, 38472, Control_c, 0, 64, 127
1, 38495, Note_off_c, 0, 51, 64
1, 38519, Note_on_c, 0, 51, 54
1, 38578, Note_off_c, 0, 51, 64
1, 38626, Note_on_c, 0, 51, 55
1, 38670, Note_off_c, 0, 51, 64
1, 38813, Note_off_c, 0, 61, 64
1, 38815, Note_off_c, 0, 68, 64
1, 38824, Note_off_c, 0, 63, 64
1, 38826, Note_on_c, 0, 67, 52
1, 38856, Note_on_c, 0, 61, 1
1, 38880, Note_off_c, 0, 67, 64
1, 38886, Note_off_c, 0, 61, 64
1, 38894, Sequencer_specific, 18, 0, 0, 0, 106, 0, 5, 91, 84, 101, 120, 116, 61, 50, 61, 53, 61, 53, 93
1, 38894, Text_t, "Now in key of Ab Major - same rising 5th device"
1, 38902, Note_on_c, 0, 60, 44
1, 38904, Note_on_c, 0, 68, 31
1, 38905, Note_on_c, 0, 44, 35
1, 38921, Control_c, 0, 64, 0
1, 38957, Control_c, 0, 64, 127
1, 38985, Note_off_c, 0, 60, 64
1, 38985, Note_on_c, 0, 51, 37
1, 39052, Note_off_c, 0, 51, 64
1, 39064, Note_off_c, 0, 68, 64
1, 39074, Note_off_c, 0, 44, 64
1, 39130, Note_on_c, 0, 68, 68
1, 39178, Note_off_c, 0, 68, 64
1, 39209, Note_on_c, 0, 68, 46
1, 39209, Note_on_c, 0, 64, 59
1, 39210, Note_on_c, 0, 44, 42
1, 39212, Note_on_c, 0, 60, 35
1, 39226, Control_c, 0, 64, 0
1, 39292, Note_on_c, 0, 52, 35
1, 39294, Control_c, 0, 64, 127
1, 39300, Note_off_c, 0, 60, 64
1, 39305, Note_off_c, 0, 64, 64
1, 39381, Note_on_c, 0, 60, 39
1, 39406, Note_off_c, 0, 44, 64
1, 39435, Note_off_c, 0, 60, 64
1, 39443, Note_off_c, 0, 68, 64
1, 39466, Note_on_c, 0, 68, 69
1, 39479, Note_off_c, 0, 52, 64
1, 39515, Note_off_c, 0, 68, 64
1, 39574, Note_on_c, 0, 68, 67
1, 39575, Note_on_c, 0, 65, 71
1, 39576, Note_on_c, 0, 60, 64
1, 39577, Note_on_c, 0, 44, 39
1, 39577, Note_on_c, 0, 53, 55
1, 39589, Control_c, 0, 64, 0
1, 39627, Control_c, 0, 64, 127
1, 39662, Note_off_c, 0, 68, 64
1, 39676, Note_on_c, 0, 68, 62
1, 39720, Note_off_c, 0, 53, 64
1, 39730, Note_off_c, 0, 68, 64
1, 39735, Note_off_c, 0, 60, 64
1, 39748, Note_off_c, 0, 65, 64
1, 39764, Note_on_c, 0, 68, 69
1, 39765, Note_on_c, 0, 53, 33
1, 39807, Note_off_c, 0, 68, 64
1, 39823, Note_off_c, 0, 53, 64
1, 39843, Note_off_c, 0, 44, 64
1, 39850, Note_on_c, 0, 68, 64
1, 39898, Note_off_c, 0, 68, 64
1, 39952, Note_on_c, 0, 69, 60
1, 39955, Note_on_c, 0, 57, 52
1, 39955, Note_on_c, 0, 64, 56
1, 39957, Note_on_c, 0, 42, 37
1, 39958, Note_on_c, 0, 52, 35
1, 39960, Control_c, 0, 64, 0
1, 39986, Control_c, 0, 64, 127
1, 39994, Note_off_c, 0, 69, 64
1, 40014, Note_off_c, 0, 57, 64
1, 40071, Note_on_c, 0, 71, 58
1, 40089, Note_off_c, 0, 64, 64
1, 40122, Note_off_c, 0, 42, 64
1, 40135, Note_off_c, 0, 52, 64
1, 40140, Note_off_c, 0, 71, 64
1, 40217, Note_on_c, 0, 68, 50
1, 40220, Note_on_c, 0, 63, 43
1, 40222, Note_on_c, 0, 59, 36
1, 40222, Note_on_c, 0, 54, 34
1, 40227, Note_on_c, 0, 47, 39
1, 40236, Control_c, 0, 64, 0
1, 40273, Control_c, 0, 64, 127
1, 40386, Note_off_c, 0, 68, 64
1, 40457, Note_off_c, 0, 59, 64
1, 40500, Note_on_c, 0, 69, 47
1, 40540, Note_off_c, 0, 47, 64
1, 40553, Note_off_c, 0, 54, 64
1, 40599, Note_off_c, 0, 63, 64
1, 40610, Note_off_c, 0, 69, 64
1, 40775, Note_on_c, 0, 71, 60
1, 40778, Note_on_c, 0, 66, 43
1, 40779, Note_on_c, 0, 62, 42
1, 40782, Control_c, 0, 64, 0
1, 40783, Note_on_c, 0, 52, 34
1, 40812, Control_c, 0, 64, 127
1, 40826, Note_off_c, 0, 62, 64
1, 40845, Note_off_c, 0, 66, 64
1, 40853, Note_off_c, 0, 71, 64
1, 40928, Note_on_c, 0, 76, 64
1, 40950, Note_off_c, 0, 76, 64
1, 41047, Note_on_c, 0, 74, 58
1, 41047, Note_on_c, 0, 81, 57
1, 41058, Note_on_c, 0, 64, 17
1, 41129, Note_off_c, 0, 64, 64
1, 41138, Note_off_c, 0, 81, 64
1, 41147, Note_on_c, 0, 78, 49
1, 41152, Note_on_c, 0, 69, 42
1, 41165, Note_off_c, 0, 74, 64
1, 41178, Note_on_c, 0, 64, 1
1, 41213, Note_off_c, 0, 52, 64
1, 41230, Note_off_c, 0, 78, 64
1, 41250, Note_on_c, 0, 52, 48
1, 41280, Marker_t, "A"
1, 41282, Note_off_c, 0, 69, 64
1, 41296, Note_off_c, 0, 64, 64
1, 41341, Note_off_c, 0, 52, 64
1, 41369, Note_on_c, 0, 66, 52
1, 41373, Note_on_c, 0, 62, 39
1, 41374, Note_on_c, 0, 52, 43
1, 41396, Note_off_c, 0, 62, 64
1, 41437, Note_off_c, 0, 66, 64
1, 41515, Note_on_c, 0, 74, 55
1, 41516, Note_on_c, 0, 66, 43
1, 41521, Note_on_c, 0, 64, 29
1, 41561, Note_off_c, 0, 64, 64
1, 41584, Note_off_c, 0, 52, 64
1, 41604, Note_off_c, 0, 66, 64
1, 41639, Note_off_c, 0, 74, 64
1, 41665, Note_on_c, 0, 66, 30
1, 41666, Note_on_c, 0, 69, 44
1, 41670, Note_on_c, 0, 62, 33
1, 41670, Note_on_c, 0, 52, 34
1, 41699, Note_off_c, 0, 69, 64
1, 41701, Note_off_c, 0, 52, 64
1, 41715, Note_off_c, 0, 66, 64
1, 41724, Note_off_c, 0, 62, 64
1, 41900, Note_on_c, 0, 64, 34
1, 41902, Note_on_c, 0, 53, 32
1, 41902, Note_on_c, 0, 57, 44
1, 41902, Note_on_c, 0, 60, 48
1, 41904, Note_on_c, 0, 43, 30
1, 41905, Note_on_c, 0, 31, 36
1, 41925, Control_c, 0, 64, 0
1, 42007, Control_c, 0, 64, 127
1, 42113, Note_off_c, 0, 53, 64
1, 42116, Note_off_c, 0, 57, 64
1, 42126, Note_off_c, 0, 60, 64
1, 42134, Note_off_c, 0, 31, 64
1, 42145, Note_off_c, 0, 64, 64
1, 42163, Note_off_c, 0, 43, 64
1, 42513, Note_on_c, 0, 72, 44
1, 42521, Note_on_c, 0, 60, 13
1, 42569, Note_off_c, 0, 72, 64
1, 42591, Note_off_c, 0, 60, 64
1, 42600, Note_on_c, 0, 74, 74
1, 42601, Note_on_c, 0, 62, 49
1, 42633, Note_off_c, 0, 62, 64
1, 42633, Note_off_c, 0, 74, 64
1, 42687, Note_on_c, 0, 76, 79
1, 42687, Note_on_c, 0, 64, 38
1, 42783, Note_off_c, 0, 64, 64
1, 42786, Note_off_c, 0, 76, 64
1, 42805, Note_on_c, 0, 71, 60
1, 42806, Note_on_c, 0, 59, 39
1, 42901, Note_off_c, 0, 59, 64
1, 43038, Note_on_c, 0, 72, 48
1, 43041, Note_off_c, 0, 71, 64
1, 43122, Note_off_c, 0, 72, 64
1, 43146, Note_on_c, 0, 44, 44
1, 43147, Note_on_c, 0, 70, 50
1, 43148, Note_on_c, 0, 74, 57
1, 43149, Note_on_c, 0, 65, 44
1, 43164, Control_c, 0, 64, 0
1, 43200, Sequencer_specific, 18, 0, 0, 0, 106, 0, 5, 91, 84, 101, 120, 116, 61, 50, 61, 53, 61, 53, 93
1, 43200, Text_t, "Ab/Bb used to delay the G7 sus chord"
1, 43205, Control_c, 0, 64, 127
1, 43215, Note_on_c, 0, 32, 56
1, 43219, Note_off_c, 0, 44, 64
1, 43226, Note_off_c, 0, 32, 64
1, 43288, Note_off_c, 0, 65, 64
1, 43293, Note_on_c, 0, 54, 42
1, 43370, Note_off_c, 0, 74, 64
1, 43371, Note_on_c, 0, 60, 51
1, 43378, Note_off_c, 0, 70, 64
1, 43464, Note_on_c, 0, 70, 39
1, 43464, Note_on_c, 0, 76, 48
1, 43465, Note_on_c, 0, 65, 42
1, 43556, Note_off_c, 0, 60, 64
1, 43558, Note_off_c, 0, 65, 64
1, 43584, Note_off_c, 0, 70, 64
1, 43631, Note_off_c, 0, 54, 64
1, 43633, Note_off_c, 0, 76, 64
1, 43732, Note_on_c, 0, 57, 47
1, 43752, Note_off_c, 0, 57, 64
1, 43783, Note_on_c, 0, 57, 51
1, 43805, Note_off_c, 0, 57, 64
1, 43865, Note_on_c, 0, 53, 30
1, 43865, Note_on_c, 0, 60, 46
1, 43866, Note_on_c, 0, 57, 38
1, 43869, Note_on_c, 0, 43, 30
1, 43871, Note_on_c, 0, 31, 38
1, 43880, Control_c, 0, 64, 0
1, 43926, Control_c, 0, 64, 127
1, 44046, Note_off_c, 0, 53, 64
1, 44063, Note_off_c, 0, 31, 64
1, 44074, Note_off_c, 0, 57, 64
1, 44083, Note_off_c, 0, 60, 64
1, 44119, Note_off_c, 0, 43, 64
1, 44314, Note_on_c, 0, 73, 47
1, 44316, Note_on_c, 0, 70, 45
1, 44317, Note_on_c, 0, 67, 47
1, 44318, Note_on_c, 0, 64, 43
1, 44319, Note_on_c, 0, 58, 48
1, 44390, Note_off_c, 0, 67, 64
1, 44424, Note_off_c, 0, 64, 64
1, 44485, Note_off_c, 0, 70, 64
1, 44492, Note_off_c, 0, 73, 64
1, 44564, Note_on_c, 0, 74, 52
1, 44565, Note_on_c, 0, 71, 50
1, 44567, Note_off_c, 0, 58, 64
1, 44567, Note_on_c, 0, 65, 39
1, 44569, Note_on_c, 0, 69, 58
1, 44570, Note_on_c, 0, 59, 50
1, 44576, Control_c, 0, 64, 0
1, 44588, Control_c, 0, 64, 127
1, 44614, Note_off_c, 0, 65, 64
1, 44619, Note_off_c, 0, 69, 64
1, 44621, Note_off_c, 0, 71, 64
1, 44626, Note_off_c, 0, 74, 64
1, 44671, Note_off_c, 0, 59, 64
1, 44675, Note_on_c, 0, 76, 69
1, 44675, Note_on_c, 0, 73, 40
1, 44676, Note_on_c, 0, 61, 64
1, 44677, Note_on_c, 0, 70, 63
1, 44679, Note_on_c, 0, 67, 66
1, 44690, Control_c, 0, 64, 0
1, 44700, Control_c, 0, 64, 127
1, 44719, Note_off_c, 0, 76, 64
1, 44732, Note_off_c, 0, 67, 64
1, 44734, Note_off_c, 0, 70, 64
1, 44734, Note_off_c, 0, 73, 64
1, 44753, Note_off_c, 0, 61, 64
1, 44778, Note_on_c, 0, 77, 57
1, 44779, Note_on_c, 0, 71, 64
1, 44780, Note_on_c, 0, 74, 50
1, 44781, Note_on_c, 0, 62, 46
1, 44781, Note_on_c, 0, 68, 51
1, 44791, Control_c, 0, 64, 0
1, 44803, Control_c, 0, 64, 127
1, 44815, Note_off_c, 0, 74, 64
1, 44817, Note_off_c, 0, 68, 64
1, 44817, Note_off_c, 0, 71, 64
1, 44823, Note_off_c, 0, 77, 64
1, 44825, Note_off_c, 0, 62, 64
1, 44883, Note_on_c, 0, 71, 58
1, 44883, Note_on_c, 0, 79, 64
1, 44886, Note_on_c, 0, 67, 54
1, 44888, Note_on_c, 0, 53, 34
1, 44891, Control_c, 0, 64, 0
1, 44891, Note_on_c, 0, 59, 39
1, 44891, Note_on_c, 0, 64, 25
1, 44909, Control_c, 0, 64, 127
1, 44913, Note_off_c, 0, 59, 64
1, 44918, Note_off_c, 0, 64, 64
1, 44929, Note_off_c, 0, 53, 64
1, 44929, Note_off_c, 0, 79, 64
1, 44933, Note_off_c, 0, 67, 64
1, 44947, Note_off_c, 0, 71, 64
1, 45004, Note_on_c, 0, 71, 32
1, 45008, Note_on_c, 0, 76, 48
1, 45013, Note_on_c, 0, 48, 41
1, 45013, Control_c, 0, 64, 0
1, 45015, Note_on_c, 0, 64, 18
1, 45029, Control_c, 0, 64, 127
1, 45066, Note_off_c, 0, 64, 64
1, 45088, Note_off_c, 0, 71, 64
1, 45092, Note_off_c, 0, 76, 64
1, 45094, Note_on_c, 0, 55, 39
1, 45167, Note_on_c, 0, 64, 42
1, 45170, Note_on_c, 0, 91, 81
1, 45172, Note_on_c, 0, 79, 71
1, 45182, Note_off_c, 0, 64, 64
1, 45186, Note_off_c, 0, 55, 64
1, 45188, Note_off_c, 0, 48, 64
1, 45201, Note_off_c, 0, 91, 64
1, 45227, Note_off_c, 0, 79, 64
1, 45264, Note_on_c, 0, 86, 91
1, 45315, Note_off_c, 0, 86, 64
1, 45352, Note_on_c, 0, 83, 64
1, 45353, Note_on_c, 0, 41, 37
1, 45353, Note_on_c, 0, 75, 62
1, 45357, Note_on_c, 0, 57, 31
1, 45366, Control_c, 0, 64, 0
1, 45398, Control_c, 0, 64, 127
1, 45419, Note_off_c, 0, 83, 64
1, 45430, Note_off_c, 0, 75, 64
1, 45431, Note_off_c, 0, 57, 64
1, 45431, Note_on_c, 0, 48, 46
1, 45518, Note_on_c, 0, 67, 69
1, 45518, Note_on_c, 0, 57, 49
1, 45519, Note_on_c, 0, 62, 72
1, 45538, Note_off_c, 0, 57, 64
1, 45568, Note_off_c, 0, 62, 64
1, 45582, Note_off_c, 0, 48, 64
1, 45585, Note_off_c, 0, 41, 64
1, 45592, Note_off_c, 0, 67, 64
1, 45610, Note_on_c, 0, 64, 63
1, 45642, Note_off_c, 0, 64, 64
1, 45714, Note_on_c, 0, 62, 51
1, 45716, Note_on_c, 0, 40, 36
1, 45716, Note_on_c, 0, 50, 34
1, 45716, Note_on_c, 0, 59, 36
1, 45717, Note_on_c, 0, 55, 26
1, 45727, Control_c, 0, 64, 0
1, 45777, Control_c, 0, 64, 127
1, 45811, Note_on_c, 0, 47, 37
1, 45819, Note_off_c, 0, 50, 64
1, 45829, Note_off_c, 0, 55, 64
1, 45848, Note_off_c, 0, 59, 64
1, 45929, Note_on_c, 0, 59, 42
1, 45932, Note_on_c, 0, 55, 32
1, 45933, Note_on_c, 0, 50, 35
1, 46003, Note_off_c, 0, 40, 64
1, 46051, Note_off_c, 0, 47, 64
1, 46053, Note_off_c, 0, 50, 64
1, 46063, Note_off_c, 0, 55, 64
1, 46064, Note_on_c, 0, 40, 49
1, 46083, Note_off_c, 0, 40, 64
1, 46085, Note_off_c, 0, 59, 64
1, 46091, Note_off_c, 0, 62, 64
1, 46198, Note_on_c, 0, 74, 90
1, 46239, Note_off_c, 0, 74, 64
1, 46316, Note_on_c, 0, 76, 82
1, 46318, Note_on_c, 0, 61, 68
1, 46319, Note_on_c, 0, 70, 70
1, 46321, Note_on_c, 0, 67, 67
1, 46330, Control_c, 0, 64, 0
1, 46363, Control_c, 0, 64, 127
1, 46394, Note_off_c, 0, 67, 64
1, 46401, Note_off_c, 0, 70, 64
1, 46402, Note_off_c, 0, 76, 64
1, 46454, Note_on_c, 0, 77, 64
1, 46455, Note_on_c, 0, 72, 48
1, 46455, Note_on_c, 0, 69, 57
1, 46456, Note_on_c, 0, 62, 68
1, 46457, Note_off_c, 0, 61, 64
1, 46467, Control_c, 0, 64, 0
1, 46497, Control_c, 0, 64, 127
1, 46538, Note_off_c, 0, 77, 64
1, 46540, Note_off_c, 0, 72, 64
1, 46546, Note_off_c, 0, 69, 64
1, 46666, Note_off_c, 0, 62, 64
1, 46793, Note_on_c, 0, 79, 57
1, 46794, Note_on_c, 0, 70, 49
1, 46836, Note_off_c, 0, 79, 64
1, 46837, Note_off_c, 0, 70, 64
1, 46928, Note_on_c, 0, 77, 51
1, 46932, Note_on_c, 0, 72, 37
1, 46932, Note_on_c, 0, 65, 39
1, 46935, Note_on_c, 0, 50, 30
1, 46935, Note_on_c, 0, 60, 24
1, 46944, Control_c, 0, 64, 0
1, 46976, Control_c, 0, 64, 127
1, 47005, Note_off_c, 0, 60, 64
1, 47013, Note_on_c, 0, 57, 37
1, 47044, Note_off_c, 0, 65, 64
1, 47095, Note_on_c, 0, 65, 46
1, 47113, Note_on_c, 0, 60, 6
1, 47126, Note_off_c, 0, 72, 64
1, 47131, Note_off_c, 0, 77, 64
1, 47142, Note_off_c, 0, 65, 64
1, 47181, Note_on_c, 0, 79, 77
1, 47200, Note_off_c, 0, 50, 64
1, 47203, Note_off_c, 0, 57, 64
1, 47213, Note_off_c, 0, 60, 64
1, 47229, Note_off_c, 0, 79, 64
1, 47276, Note_on_c, 0, 79, 70
1, 47283, Note_on_c, 0, 74, 62
1, 47284, Note_on_c, 0, 52, 38
1, 47284, Note_on_c, 0, 59, 38
1, 47285, Note_on_c, 0, 67, 64
1, 47287, Control_c, 0, 64, 0
1, 47287, Note_on_c, 0, 62, 49
1, 47323, Control_c, 0, 64, 127
1, 47362, Note_off_c, 0, 67, 64
1, 47374, Note_off_c, 0, 52, 64
1, 47384, Note_off_c, 0, 59, 64
1, 47386, Note_off_c, 0, 79, 64
1, 47386, Note_on_c, 0, 67, 46
1, 47394, Note_off_c, 0, 74, 64
1, 47399, Note_off_c, 0, 62, 64
1, 47402, Note_off_c, 0, 67, 64
1, 47469, Note_on_c, 0, 81, 74
1, 47479, Note_on_c, 0, 76, 74
1, 47482, Note_on_c, 0, 53, 19
1, 47484, Note_on_c, 0, 60, 34
1, 47485, Note_on_c, 0, 64, 36
1, 47487, Control_c, 0, 64, 0
1, 47496, Note_on_c, 0, 69, 15
1, 47524, Control_c, 0, 64, 127
1, 47562, Note_off_c, 0, 81, 64
1, 47579, Note_on_c, 0, 81, 69
1, 47582, Note_off_c, 0, 53, 64
1, 47589, Note_off_c, 0, 69, 64
1, 47589, Note_off_c, 0, 64, 64
1, 47602, Note_off_c, 0, 76, 64
1, 47611, Note_off_c, 0, 81, 64
1, 47634, Note_off_c, 0, 60, 64
1, 47676, Note_on_c, 0, 83, 68
1, 47683, Note_on_c, 0, 54, 50
1, 47683, Note_on_c, 0, 75, 73
1, 47684, Note_on_c, 0, 63, 45
1, 47685, Note_on_c, 0, 71, 71
1, 47692, Control_c, 0, 64, 0
1, 47728, Control_c, 0, 64, 127
1, 47787, Note_off_c, 0, 63, 64
1, 47787, Note_on_c, 0, 60, 53
1, 47826, Note_off_c, 0, 71, 64
1, 47837, Note_off_c, 0, 75, 64
1, 47996, Note_on_c, 0, 71, 44
1, 47997, Note_on_c, 0, 63, 32
1, 48023, Note_off_c, 0, 71, 64
1, 48024, Note_off_c, 0, 83, 64
1, 48032, Note_off_c, 0, 60, 64
1, 48037, Note_off_c, 0, 54, 64
1, 48041, Note_off_c, 0, 63, 64
1, 48137, Note_on_c, 0, 84, 55
1, 48139, Note_on_c, 0, 76, 53
1, 48139, Note_on_c, 0, 72, 34
1, 48142, Note_on_c, 0, 64, 42
1, 48143, Note_on_c, 0, 55, 42
1, 48151, Control_c, 0, 64, 0
1, 48175, Control_c, 0, 64, 127
1, 48220, Note_off_c, 0, 64, 64
1, 48230, Note_off_c, 0, 55, 64
1, 48233, Note_off_c, 0, 84, 64
1, 48243, Note_off_c, 0, 76, 64
1, 48250, Note_off_c, 0, 72, 64
1, 48354, Note_on_c, 0, 71, 57
1, 48357, Note_on_c, 0, 62, 44
1, 48357, Note_on_c, 0, 67, 51
1, 48359, Note_on_c, 0, 53, 46
1, 48372, Control_c, 0, 64, 0
1, 48400, Control_c, 0, 64, 127
1, 48442, Note_off_c, 0, 62, 64
1, 48451, Note_off_c, 0, 67, 64
1, 48452, Note_off_c, 0, 71, 64
1, 48463, Note_on_c, 0, 74, 74
1, 48466, Note_on_c, 0, 41, 50
1, 48480, Marker_t, "A"
1, 48496, Note_off_c, 0, 41, 64
1, 48498, Note_off_c, 0, 53, 64
1, 48511, Note_off_c, 0, 74, 64
1, 48644, Control_c, 0, 64, 0
1, 48645, Note_on_c, 0, 76, 80
1, 48647, Note_on_c, 0, 71, 67
1, 48648, Note_on_c, 0, 69, 70
1, 48648, Note_on_c, 0, 65, 60
1, 48649, Note_on_c, 0, 40, 60
1, 48672, Control_c, 0, 64, 127
1, 48675, Note_off_c, 0, 40, 64
1, 48714, Note_off_c, 0, 76, 64
1, 48743, Note_on_c, 0, 76, 79
1, 48743, Note_on_c, 0, 64, 76
1, 48800, Note_off_c, 0, 76, 64
1, 48818, Note_off_c, 0, 65, 64
1, 48826, Note_off_c, 0, 69, 64
1, 48827, Note_off_c, 0, 71, 64
1, 48836, Note_on_c, 0, 76, 76
1, 48839, Note_on_c, 0, 65, 46
1, 48840, Note_off_c, 0, 64, 64
1, 48843, Note_on_c, 0, 69, 48
1, 48843, Note_on_c, 0, 62, 68
1, 48851, Note_off_c, 0, 69, 64
1, 48859, Note_off_c, 0, 62, 64
1, 48960, Marker_t, "A"
1, 49035, Note_on_c, 0, 34, 59
1, 49037, Control_c, 0, 64, 0
1, 49043, Note_off_c, 0, 65, 64
1, 49043, Control_c, 0, 64, 127
1, 49049, Note_off_c, 0, 34, 64
1, 49063, Note_off_c, 0, 76, 64
1, 49151, Note_on_c, 0, 76, 55
1, 49152, Note_on_c, 0, 70, 45
1, 49154, Note_on_c, 0, 68, 37
1, 49156, Note_on_c, 0, 65, 44
1, 49159, Note_on_c, 0, 56, 34
1, 49269, Note_on_c, 0, 62, 49
1, 49286, Note_off_c, 0, 65, 64
1, 49296, Note_off_c, 0, 68, 64
1, 49367, Note_off_c, 0, 56, 64
1, 49367, Note_off_c, 0, 70, 64
1, 49368, Note_off_c, 0, 62, 64
1, 49381, Note_off_c, 0, 76, 64
1, 49381, Note_on_c, 0, 68, 42
1, 49388, Note_on_c, 0, 65, 38
1, 49417, Note_off_c, 0, 68, 64
1, 49419, Note_off_c, 0, 65, 64
1, 49530, Note_on_c, 0, 64, 49
1, 49532, Note_on_c, 0, 59, 34
1, 49533, Note_on_c, 0, 60, 43
1, 49533, Note_on_c, 0, 52, 27
1, 49533, Note_on_c, 0, 55, 38
1, 49536, Note_on_c, 0, 45, 35
1, 49549, Control_c, 0, 64, 0
1, 49585, Control_c, 0, 64, 127
1, 49636, Note_off_c, 0, 52, 64
1, 49650, Note_on_c, 0, 52, 29
1, 49659, Note_off_c, 0, 59, 64
1, 49665, Note_off_c, 0, 55, 64
1, 49687, Note_off_c, 0, 60, 64
1, 49702, Note_off_c, 0, 64, 64
1, 49754, Note_on_c, 0, 55, 50
1, 49824, Note_off_c, 0, 45, 64
1, 49832, Note_off_c, 0, 52, 64
1, 49842, Note_off_c, 0, 55, 64
1, 49851, Note_on_c, 0, 76, 96
1, 49900, Note_off_c, 0, 76, 64
1, 49966, Note_on_c, 0, 76, 66
1, 49968, Note_on_c, 0, 68, 47
1, 49969, Note_on_c, 0, 72, 35
1, 49972, Note_on_c, 0, 64, 48
1, 49973, Note_on_c, 0, 48, 36
1, 49978, Control_c, 0, 64, 0
1, 49979, Note_on_c, 0, 58, 21
1, 50010, Control_c, 0, 64, 127
1, 50053, Note_off_c, 0, 58, 64
1, 50087, Note_on_c, 0, 58, 38
1, 50098, Note_off_c, 0, 76, 64
1, 50099, Note_off_c, 0, 72, 64
1, 50137, Note_off_c, 0, 64, 64
1, 50143, Note_off_c, 0, 68, 64
1, 50147, Note_off_c, 0, 58, 64
1, 50207, Note_on_c, 0, 72, 30
1, 50208, Note_on_c, 0, 64, 24
1, 50209, Note_on_c, 0, 58, 20
1, 50252, Note_off_c, 0, 48, 64
1, 50414, Note_off_c, 0, 58, 64
1, 50414, Note_off_c, 0, 64, 64
1, 50437, Note_on_c, 0, 69, 43
1, 50470, Note_off_c, 0, 69, 64
1, 50474, Note_off_c, 0, 72, 64
1, 50533, Sequencer_specific, 18, 0, 0, 0, 106, 0, 5, 91, 84, 101, 120, 116, 61, 50, 61, 53, 61, 53, 93
1, 50533, Text_t, "D7/F#"
1, 50573, Note_on_c, 0, 72, 51
1, 50573, Note_on_c, 0, 66, 53
1, 50575, Note_on_c, 0, 54, 34
1, 50585, Control_c, 0, 64, 0
1, 50611, Control_c, 0, 64, 127
1, 50671, Note_on_c, 0, 57, 42
1, 50753, Note_on_c, 0, 62, 52
1, 50754, Note_off_c, 0, 72, 64
1, 50797, Note_off_c, 0, 62, 64
1, 50807, Note_off_c, 0, 57, 64
1, 50810, Note_off_c, 0, 66, 64
1, 50825, Note_off_c, 0, 54, 64
1, 50825, Note_on_c, 0, 72, 55
1, 50850, Note_off_c, 0, 72, 64
1, 50907, Note_on_c, 0, 79, 55
1, 50910, Note_on_c, 0, 72, 32
1, 50979, Note_off_c, 0, 79, 64
1, 50996, Note_on_c, 0, 78, 49
1, 51056, Note_off_c, 0, 72, 64
1, 51082, Note_on_c, 0, 54, 40
1, 51083, Note_on_c, 0, 69, 45
1, 51093, Note_off_c, 0, 78, 64
1, 51157, Note_off_c, 0, 69, 64
1, 51178, Note_on_c, 0, 66, 43
1, 51187, Note_on_c, 0, 60, 19
1, 51240, Note_off_c, 0, 66, 64
1, 51241, Note_off_c, 0, 54, 64
1, 51274, Note_off_c, 0, 60, 64
1, 51286, Note_on_c, 0, 67, 44
1, 51287, Note_on_c, 0, 65, 30
1, 51290, Note_on_c, 0, 53, 28
1, 51293, Note_on_c, 0, 62, 19
1, 51297, Control_c, 0, 64, 0
1, 51343, Control_c, 0, 64, 127
1, 51374, Note_off_c, 0, 62, 64
1, 51381, Note_on_c, 0, 68, 60
1, 51385, Note_off_c, 0, 67, 64
1, 51385, Note_on_c, 0, 60, 28
1, 51437, Note_off_c, 0, 65, 64
1, 51471, Note_off_c, 0, 68, 64
1, 51493, Note_on_c, 0, 70, 48
1, 51494, Note_on_c, 0, 67, 48
1, 51496, Note_on_c, 0, 63, 33
1, 51504, Control_c, 0, 64, 0
1, 51514, Control_c, 0, 64, 127
1, 51538, Note_off_c, 0, 60, 64
1, 51583, Note_off_c, 0, 63, 64
1, 51599, Note_off_c, 0, 70, 64
1, 51609, Note_off_c, 0, 67, 64
1, 51617, Note_on_c, 0, 72, 70
1, 51621, Note_on_c, 0, 60, 45
1, 51661, Note_off_c, 0, 72, 64
1, 51704, Note_on_c, 0, 74, 66
1, 51720, Note_off_c, 0, 60, 64
1, 51739, Note_off_c, 0, 74, 64
1, 51802, Note_on_c, 0, 76, 65
1, 51802, Note_on_c, 0, 68, 45
1, 51806, Note_on_c, 0, 60, 43
1, 51807, Note_on_c, 0, 65, 41
1, 51819, Control_c, 0, 64, 0
1, 51837, Control_c, 0, 64, 127
1, 51840, Sequencer_specific, 18, 0, 0, 0, 106, 0, 5, 91, 84, 101, 120, 116, 61, 50, 61, 53, 61, 53, 93
1, 51840, Text_t, "Fm"
1, 51877, Note_off_c, 0, 76, 64
1, 51888, Note_off_c, 0, 53, 64
1, 51897, Note_off_c, 0, 68, 64
1, 51901, Note_off_c, 0, 65, 64
1, 51913, Note_on_c, 0, 72, 55
1, 51916, Note_on_c, 0, 53, 38
1, 51978, Note_off_c, 0, 72, 64
1, 52011, Note_on_c, 0, 72, 55
1, 52062, Note_off_c, 0, 53, 64
1, 52326, Note_off_c, 0, 72, 64
1, 52330, Note_on_c, 0, 68, 33
1, 52331, Note_off_c, 0, 60, 64
1, 52400, Sequencer_specific, 18, 0, 0, 0, 106, 0, 5, 91, 84, 101, 120, 116, 61, 50, 61, 53, 61, 53, 93
1, 52400, Text_t, "C\\E"
1, 52413, Note_off_c, 0, 68, 64
1, 52424, Note_on_c, 0, 72, 38
1, 52427, Note_on_c, 0, 52, 44
1, 52442, Control_c, 0, 64, 0
1, 52478, Control_c, 0, 64, 127
1, 52501, Note_on_c, 0, 59, 57
1, 52569, Note_on_c, 0, 67, 63
1, 52569, Note_on_c, 0, 64, 62
1, 52575, Note_on_c, 0, 60, 50
1, 52584, Note_off_c, 0, 72, 64
1, 52633, Note_off_c, 0, 64, 64
1, 52639, Note_off_c, 0, 67, 64
1, 52639, Note_off_c, 0, 59, 64
1, 52648, Note_on_c, 0, 74, 73
1, 52693, Note_off_c, 0, 74, 64
1, 52695, Note_off_c, 0, 60, 64
1, 52732, Note_on_c, 0, 74, 59
1, 52734, Note_on_c, 0, 67, 50
1, 52737, Note_on_c, 0, 64, 42
1, 52738, Note_on_c, 0, 60, 34
1, 52745, Control_c, 0, 64, 0
1, 52769, Control_c, 0, 64, 127
1, 52800, Marker_t, "A"
1, 52800, Note_off_c, 0, 52, 64
1, 52830, Note_on_c, 0, 52, 36
1, 52833, Note_off_c, 0, 64, 64
1, 52862, Note_off_c, 0, 67, 64
1, 52926, Note_on_c, 0, 67, 44
1, 52928, Note_on_c, 0, 64, 44
1, 52947, Note_off_c, 0, 52, 64
1, 53026, Note_on_c, 0, 52, 40
1, 53032, Note_off_c, 0, 60, 64
1, 53042, Note_off_c, 0, 67, 64
1, 53045, Note_off_c, 0, 64, 64
1, 53051, Note_off_c, 0, 52, 64
1, 53063, Note_off_c, 0, 74, 64
1, 53149, Sequencer_specific, 18, 0, 0, 0, 106, 0, 5, 91, 84, 101, 120, 116, 61, 50, 61, 53, 61, 53, 93
1, 53149, Text_t, "Ebdim"
1, 53178, Note_on_c, 0, 74, 51
1, 53180, Note_on_c, 0, 66, 34
1, 53180, Note_on_c, 0, 63, 34
1, 53184, Note_on_c, 0, 39, 40
1, 53186, Note_on_c, 0, 27, 39
1, 53192, Control_c, 0, 64, 0
1, 53230, Control_c, 0, 64, 127
1, 53266, Note_off_c, 0, 27, 64
1, 53282, Note_off_c, 0, 39, 64
1, 53360, Note_off_c, 0, 74, 64
1, 53389, Note_off_c, 0, 63, 64
1, 53404, Note_off_c, 0, 66, 64
1, 53494, Sequencer_specific, 18, 0, 0, 0, 106, 0, 5, 91, 84, 101, 120, 116, 61, 50, 61, 53, 61, 53, 93
1, 53494, Text_t, "A diminished chord built on the half step above the melody note used "
1, 53506, Note_on_c, 0, 72, 68
1, 53509, Note_on_c, 0, 60, 83
1, 53509, Note_on_c, 0, 64, 87
1, 53510, Note_on_c, 0, 61, 85
1, 53511, Note_on_c, 0, 67, 68
1, 53515, Note_on_c, 0, 70, 45
1, 53525, Control_c, 0, 64, 0
1, 53535, Control_c, 0, 64, 127
1, 53560, Note_off_c, 0, 67, 64
1, 53562, Note_off_c, 0, 64, 64
1, 53566, Note_off_c, 0, 70, 64
1, 53566, Note_off_c, 0, 72, 64
1, 53567, Note_off_c, 0, 61, 64
1, 53595, Note_off_c, 0, 60, 64
1, 53630, Note_on_c, 0, 74, 79
1, 53630, Note_on_c, 0, 66, 87
1, 53631, Note_on_c, 0, 63, 84
1, 53632, Note_on_c, 0, 69, 80
1, 53633, Note_on_c, 0, 62, 95
1, 53643, Control_c, 0, 64, 0
1, 53657, Control_c, 0, 64, 127
1, 53706, Note_off_c, 0, 69, 64
1, 53709, Note_off_c, 0, 63, 64
1, 53714, Note_off_c, 0, 74, 64
1, 53719, Note_off_c, 0, 66, 64
1, 53750, Note_off_c, 0, 62, 64
1, 53781, Note_on_c, 0, 76, 81
1, 53782, Note_on_c, 0, 68, 73
1, 53783, Note_on_c, 0, 71, 76
1, 53783, Note_on_c, 0, 65, 78
1, 53786, Note_on_c, 0, 64, 74
1, 53793, Note_on_c, 0, 74, 25
1, 53794, Control_c, 0, 64, 0
1, 53808, Control_c, 0, 64, 127
1, 53811, Note_off_c, 0, 74, 64
1, 53812, Note_off_c, 0, 64, 64
1, 53819, Note_off_c, 0, 71, 64
1, 53819, Note_off_c, 0, 76, 64
1, 53826, Note_off_c, 0, 68, 64
1, 53831, Note_off_c, 0, 65, 64
1, 53884, Note_on_c, 0, 66, 65
1, 53884, Note_on_c, 0, 71, 68
1, 53885, Note_on_c, 0, 63, 65
1, 53886, Note_on_c, 0, 60, 71
1, 53890, Note_on_c, 0, 59, 70
1, 53896, Control_c, 0, 64, 0
1, 53918, Control_c, 0, 64, 127
1, 53935, Note_off_c, 0, 71, 64
1, 53938, Note_off_c, 0, 60, 64
1, 53948, Note_off_c, 0, 66, 64
1, 53951, Note_off_c, 0, 63, 64
1, 54006, Note_on_c, 0, 72, 56
1, 54008, Note_on_c, 0, 67, 59
1, 54010, Note_on_c, 0, 64, 68
1, 54011, Note_on_c, 0, 61, 53
1, 54012, Note_off_c, 0, 59, 64
1, 54017, Note_on_c, 0, 70, 27
1, 54022, Note_on_c, 0, 60, 24
1, 54076, Note_off_c, 0, 64, 64
1, 54079, Note_off_c, 0, 61, 64
1, 54079, Note_off_c, 0, 67, 64
1, 54088, Note_off_c, 0, 72, 64
1, 54092, Note_off_c, 0, 70, 64
1, 54120, Note_off_c, 0, 60, 64
1, 54158, Note_on_c, 0, 50, 60
1, 54159, Note_on_c, 0, 74, 74
1, 54159, Note_on_c, 0, 60, 30
1, 54160, Note_on_c, 0, 69, 74
1, 54161, Note_on_c, 0, 65, 66
1, 54169, Control_c, 0, 64, 0
1, 54209, Control_c, 0, 64, 127
1, 54243, Note_off_c, 0, 60, 64
1, 54243, Note_on_c, 0, 57, 66
1, 54257, Note_off_c, 0, 65, 64
1, 54261, Note_off_c, 0, 69, 64
1, 54338, Note_off_c, 0, 50, 64
1, 54339, Note_on_c, 0, 69, 69
1, 54340, Note_on_c, 0, 65, 68
1, 54370, Note_off_c, 0, 65, 64
1, 54508, Note_off_c, 0, 69, 64
1, 54543, Note_off_c, 0, 57, 64
1, 54553, Note_off_c, 0, 74, 64
1, 54630, Note_on_c, 0, 79, 64
1, 54631, Note_on_c, 0, 71, 62
1, 54633, Note_on_c, 0, 67, 57
1, 54634, Note_on_c, 0, 52, 58
1, 54637, Note_on_c, 0, 62, 46
1, 54646, Control_c, 0, 64, 0
1, 54696, Control_c, 0, 64, 127
1, 54734, Note_on_c, 0, 59, 49
1, 54740, Note_off_c, 0, 62, 64
1, 54758, Note_off_c, 0, 67, 64
1, 54778, Note_off_c, 0, 71, 64
1, 54835, Note_on_c, 0, 71, 46
1, 54838, Note_on_c, 0, 67, 46
1, 54840, Note_on_c, 0, 62, 42
1, 54864, Note_off_c, 0, 79, 64
1, 54884, Note_off_c, 0, 67, 64
1, 54885, Note_off_c, 0, 71, 64
1, 54946, Note_on_c, 0, 84, 68
1, 54977, Note_off_c, 0, 52, 64
1, 54980, Note_off_c, 0, 84, 64
1, 54983, Note_off_c, 0, 59, 64
1, 54997, Note_off_c, 0, 62, 64
1, 55069, Note_on_c, 0, 76, 55
1, 55070, Note_on_c, 0, 81, 53
1, 55075, Note_on_c, 0, 69, 45
1, 55077, Note_on_c, 0, 53, 34
1, 55077, Note_on_c, 0, 60, 36
1, 55081, Note_on_c, 0, 64, 24
1, 55083, Control_c, 0, 64, 0
1, 55121, Control_c, 0, 64, 127
1, 55151, Note_off_c, 0, 60, 64
1, 55190, Note_on_c, 0, 60, 36
1, 55195, Note_off_c, 0, 64, 64
1, 55211, Note_off_c, 0, 69, 64
1, 55304, Note_on_c, 0, 69, 47
1, 55307, Note_on_c, 0, 64, 26
1, 55329, Note_off_c, 0, 81, 64
1, 55341, Note_off_c, 0, 76, 64
1, 55372, Note_off_c, 0, 53, 64
1, 55422, Note_off_c, 0, 64, 64
1, 55433, Note_off_c, 0, 69, 64
1, 55434, Note_on_c, 0, 53, 32
1, 55450, Note_off_c, 0, 60, 64
1, 55467, Note_off_c, 0, 53, 64
1, 55597, Note_on_c, 0, 77, 58
1, 55598, Note_on_c, 0, 70, 62
1, 55599, Note_on_c, 0, 74, 54
1, 55599, Note_on_c, 0, 54, 50
1, 55601, Note_on_c, 0, 65, 55
1, 55602, Note_on_c, 0, 44, 43
1, 55604, Control_c, 0, 64, 0
1, 55638, Control_c, 0, 64, 127
1, 55710, Note_off_c, 0, 74, 64
1, 55713, Note_off_c, 0, 77, 64
1, 55725, Note_off_c, 0, 65, 64
1, 55727, Note_off_c, 0, 54, 64
1, 55756, Note_off_c, 0, 70, 64
1, 55758, Note_off_c, 0, 44, 64
1, 55910, Note_on_c, 0, 76, 48
1, 55911, Note_on_c, 0, 68, 30
1, 55911, Note_on_c, 0, 71, 51
1, 55913, Note_on_c, 0, 64, 37
1, 55915, Note_on_c, 0, 43, 39
1, 55917, Control_c, 0, 64, 0
1, 55923, Note_on_c, 0, 53, 19
1, 55961, Control_c, 0, 64, 127
1, 56094, Note_off_c, 0, 71, 64
1, 56222, Note_off_c, 0, 64, 64
1, 56226, Note_off_c, 0, 76, 64
1, 56226, Note_on_c, 0, 71, 51
1, 56254, Note_off_c, 0, 43, 64
1, 56268, Note_off_c, 0, 53, 64
1, 56285, Note_off_c, 0, 68, 64
1, 56375, Note_off_c, 0, 71, 64
1, 56543, Sequencer_specific, 18, 0, 0, 0, 106, 0, 5, 91, 84, 101, 120, 116, 61, 50, 61, 53, 61, 53, 93
1, 56543, Text_t, "Same idea as the intro"
1, 56559, Control_c, 0, 64, 0
1, 56559, Note_on_c, 0, 69, 38
1, 56559, Note_on_c, 0, 76, 40
1, 56563, Note_on_c, 0, 55, 40
1, 56565, Note_on_c, 0, 64, 28
1, 56581, Control_c, 0, 64, 127
1, 56598, Note_off_c, 0, 76, 64
1, 56635, Note_off_c, 0, 69, 64
1, 56644, Note_off_c, 0, 64, 64
1, 56649, Note_on_c, 0, 79, 53
1, 56679, Note_off_c, 0, 79, 64
1, 56735, Note_on_c, 0, 69, 46
1, 56736, Note_on_c, 0, 76, 50
1, 56740, Note_off_c, 0, 55, 64
1, 56798, Note_off_c, 0, 76, 64
1, 56818, Note_off_c, 0, 69, 64
1, 56869, Note_on_c, 0, 55, 33
1, 56947, Note_off_c, 0, 55, 64
1, 56992, Note_on_c, 0, 63, 51
1, 56992, Note_on_c, 0, 58, 57
1, 56995, Note_on_c, 0, 55, 35
1, 57056, Note_off_c, 0, 63, 64
1, 57061, Note_off_c, 0, 58, 64
1, 57071, Note_off_c, 0, 55, 64
1, 57072, Note_on_c, 0, 67, 66
1, 57079, Note_on_c, 0, 43, 37
1, 57107, Note_off_c, 0, 67, 64
1, 57150, Note_on_c, 0, 63, 47
1, 57152, Note_on_c, 0, 58, 46
1, 57153, Note_on_c, 0, 55, 39
1, 57187, Note_off_c, 0, 43, 64
1, 57231, Note_off_c, 0, 55, 64
1, 57236, Note_on_c, 0, 43, 44
1, 57296, Note_off_c, 0, 43, 64
1, 57301, Note_off_c, 0, 58, 64
1, 57303, Note_off_c, 0, 63, 64
1, 57317, Note_on_c, 0, 57, 51
1, 57319, Note_on_c, 0, 62, 67
1, 57320, Note_on_c, 0, 43, 44
1, 57335, Control_c, 0, 64, 0
1, 57377, Control_c, 0, 64, 127
1, 57406, Note_off_c, 0, 57, 64
1, 57417, Note_on_c, 0, 66, 51
1, 57420, Note_on_c, 0, 55, 34
1, 57426, Note_off_c, 0, 62, 64
1, 57511, Note_off_c, 0, 43, 64
1, 57515, Note_off_c, 0, 55, 64
1, 57515, Note_on_c, 0, 62, 48
1, 57516, Note_on_c, 0, 57, 42
1, 57573, Note_off_c, 0, 62, 64
1, 57580, Note_on_c, 0, 43, 57
1, 57589, Note_off_c, 0, 66, 64
1, 57592, Note_off_c, 0, 57, 64
1, 57633, Note_off_c, 0, 43, 64
1, 57660, Note_on_c, 0, 61, 62
1, 57661, Note_on_c, 0, 56, 57
1, 57663, Note_on_c, 0, 53, 54
1, 57666, Note_on_c, 0, 43, 52
1, 57676, Control_c, 0, 64, 0
1, 57692, Control_c, 0, 64, 127
1, 57707, Note_off_c, 0, 53, 64
1, 57714, Note_off_c, 0, 43, 64
1, 57720, Note_off_c, 0, 61, 64
1, 57726, Note_off_c, 0, 56, 64
1, 57746, Note_on_c, 0, 43, 57
1, 57746, Note_on_c, 0, 65, 72
1, 57812, Note_off_c, 0, 65, 64
1, 57821, Note_off_c, 0, 43, 64
1, 57826, Note_on_c, 0, 61, 59
1, 57827, Note_on_c, 0, 65, 37
1, 57827, Note_on_c, 0, 56, 58
1, 57898, Note_on_c, 0, 31, 79
1, 57901, Note_on_c, 0, 43, 73
1, 57921, Note_off_c, 0, 43, 64
1, 57964, Note_off_c, 0, 56, 64
1, 57982, Note_off_c, 0, 61, 64
1, 57995, Note_on_c, 0, 60, 81
1, 57996, Note_on_c, 0, 55, 75
1, 57998, Note_on_c, 0, 43, 73
1, 58008, Control_c, 0, 64, 0
1, 58034, Control_c, 0, 64, 127
1, 58080, Marker_t, "A"
1, 58081, Note_off_c, 0, 43, 64
1, 58091, Note_off_c, 0, 65, 64
1, 58109, Note_on_c, 0, 64, 62
1, 58111, Note_on_c, 0, 43, 54
1, 58156, Note_off_c, 0, 60, 64
1, 58160, Note_off_c, 0, 43, 64
1, 58173, Note_off_c, 0, 55, 64
1, 58212, Note_on_c, 0, 60, 45
1, 58213, Note_on_c, 0, 55, 34
1, 58215, Note_on_c, 0, 43, 38
1, 58266, Note_off_c, 0, 31, 64
1, 58312, Note_on_c, 0, 31, 53
1, 58325, Note_off_c, 0, 64, 64
1, 58329, Note_off_c, 0, 60, 64
1, 58345, Note_off_c, 0, 55, 64
1, 58354, Note_off_c, 0, 43, 64
1, 58418, Note_on_c, 0, 58, 55
1, 58420, Note_on_c, 0, 53, 35
1, 58423, Note_on_c, 0, 43, 40
1, 58431, Control_c, 0, 64, 0
1, 58460, Control_c, 0, 64, 127
1, 58481, Note_off_c, 0, 53, 64
1, 58489, Note_off_c, 0, 43, 64
1, 58523, Note_on_c, 0, 63, 35
1, 58523, Note_on_c, 0, 55, 36
1, 58525, Note_on_c, 0, 43, 31
1, 58557, Note_off_c, 0, 58, 64
1, 58575, Note_off_c, 0, 43, 64
1, 58576, Note_off_c, 0, 55, 64
1, 58634, Note_on_c, 0, 58, 47
1, 58635, Note_on_c, 0, 53, 37
1, 58636, Note_on_c, 0, 43, 35
1, 58652, Control_c, 0, 64, 0
1, 58678, Control_c, 0, 64, 127
1, 58701, Note_off_c, 0, 31, 64
1, 58741, Note_on_c, 0, 31, 41
1, 58771, Note_off_c, 0, 43, 64
1, 58777, Note_off_c, 0, 53, 64
1, 58807, Note_off_c, 0, 58, 64
1, 58849, Note_off_c, 0, 63, 64
1, 58861, Note_on_c, 0, 57, 50
1, 58863, Note_on_c, 0, 43, 40
1, 58863, Note_on_c, 0, 52, 33
1, 58873, Control_c, 0, 64, 0
1, 58895, Control_c, 0, 64, 127
1, 58953, Note_off_c, 0, 31, 64
1, 59005, Note_on_c, 0, 31, 36
1, 59064, Note_off_c, 0, 43, 64
1, 59067, Note_off_c, 0, 52, 64
1, 59090, Note_off_c, 0, 57, 64
1, 59136, Note_on_c, 0, 57, 38
1, 59137, Note_on_c, 0, 52, 31
1, 59138, Note_on_c, 0, 43, 33
1, 59218, Note_off_c, 0, 31, 64
1, 59270, Note_on_c, 0, 31, 31
1, 59280, Note_off_c, 0, 52, 64
1, 59299, Note_off_c, 0, 57, 64
1, 59314, Note_off_c, 0, 43, 64
1, 59431, Note_on_c, 0, 56, 40
1, 59432, Note_on_c, 0, 51, 34
1, 59435, Note_on_c, 0, 43, 32
1, 59450, Control_c, 0, 64, 0
1, 59480, Control_c, 0, 64, 127
1, 59502, Note_off_c, 0, 51, 64
1, 59512, Note_off_c, 0, 56, 64
1, 59532, Note_off_c, 0, 31, 64
1, 59542, Note_off_c, 0, 43, 64
1, 59601, Note_on_c, 0, 75, 50
1, 59601, Note_on_c, 0, 68, 43
1, 59697, Note_off_c, 0, 68, 64
1, 59715, Note_off_c, 0, 75, 64
1, 59731, Note_on_c, 0, 71, 41
1, 59736, Note_on_c, 0, 68, 25
1, 59736, Note_on_c, 0, 64, 28
1, 59743, Note_on_c, 0, 59, 20
1, 59768, Note_off_c, 0, 64, 64
1, 59782, Note_off_c, 0, 68, 64
1, 59783, Note_off_c, 0, 71, 64
1, 59945, Note_on_c, 0, 87, 46
1, 60084, Note_off_c, 0, 59, 64
1, 60134, Note_off_c, 0, 87, 64
1, 60291, Note_on_c, 0, 36, 34
1, 60315, Note_on_c, 0, 43, 27
1, 60338, Note_on_c, 0, 52, 19
1, 60340, Note_on_c, 0, 57, 25
1, 60352, Note_on_c, 0, 62, 41
1, 60357, Note_on_c, 0, 64, 42
1, 60449, Note_off_c, 0, 57, 64
1, 60466, Note_off_c, 0, 62, 64
1, 60468, Note_off_c, 0, 64, 64
1, 60607, Note_off_c, 0, 36, 64
1, 60627, Note_off_c, 0, 43, 64
1, 60663, Note_off_c, 0, 52, 64
1, 60879, Note_on_c, 0, 96, 31
1, 60883, Note_on_c, 0, 60, 43
1, 60931, Note_off_c, 0, 60, 64
1, 60938, Note_off_c, 0, 96, 64
1, 60941, Note_on_c, 0, 98, 57
1, 60947, Note_on_c, 0, 62, 41
1, 60980, Note_off_c, 0, 98, 64
1, 60990, Note_off_c, 0, 62, 64
1, 60995, Note_on_c, 0, 64, 44
1, 60997, Note_on_c, 0, 100, 54
1, 61037, Note_off_c, 0, 64, 64
1, 61052, Note_on_c, 0, 95, 33
1, 61055, Note_on_c, 0, 59, 36
1, 61095, Note_off_c, 0, 95, 64
1, 61097, Note_off_c, 0, 100, 64
1, 61103, Note_off_c, 0, 59, 64
1, 61110, Note_on_c, 0, 96, 36
1, 61112, Note_on_c, 0, 60, 36
1, 61155, Note_off_c, 0, 96, 64
1, 61163, Note_off_c, 0, 60, 64
1, 61174, Note_on_c, 0, 62, 49
1, 61176, Note_on_c, 0, 98, 49
1, 61259, Note_off_c, 0, 98, 64
1, 61267, Note_on_c, 0, 100, 47
1, 61270, Note_on_c, 0, 64, 48
1, 61277, Note_off_c, 0, 62, 64
1, 61367, Note_off_c, 0, 64, 64
1, 61370, Note_off_c, 0, 100, 64
1, 62285, Control_c, 0, 64, 0
1, 62880, Marker_t, "Ending"
1, 62881, End_track
0, 0, End_of_file
