0, 0, Header, 1, 3, 120
1, 0, Start_track
1, 0, Title_t, "If I Loved You"
1, 0, Text_t, "Dougmck\012"
1, 0, Text_t, "If I Loved You - Rodgers and Hammerstein - from 'Carousel'\012"
1, 0, Time_signature, 4, 2, 24, 8
1, 0, Key_signature, 0, "major"
1, 0, Tempo, 521739
1, 0, End_track
2, 0, Start_track
2, 203, Control_c, 0, 64, 127
2, 214, Note_on_c, 0, 72, 38
2, 217, Note_on_c, 0, 64, 28
2, 219, Note_on_c, 0, 62, 29
2, 219, Note_on_c, 0, 67, 21
2, 333, Note_on_c, 0, 72, 0
2, 362, Note_on_c, 0, 72, 26
2, 443, Note_on_c, 0, 67, 0
2, 527, Note_on_c, 0, 55, 25
2, 667, Note_on_c, 0, 62, 0
2, 670, Note_on_c, 0, 64, 0
2, 704, Note_on_c, 0, 76, 70
2, 714, Note_on_c, 0, 72, 0
2, 776, Note_on_c, 0, 76, 0
2, 884, Note_on_c, 0, 69, 56
2, 893, Note_on_c, 0, 75, 61
2, 894, Note_on_c, 0, 66, 47
2, 901, Note_on_c, 0, 78, 50
2, 913, Control_c, 0, 64, 0
2, 914, Note_on_c, 0, 81, 58
2, 945, Control_c, 0, 64, 127
2, 1040, Note_on_c, 0, 81, 0
2, 1057, Note_on_c, 0, 55, 0
2, 1068, Note_on_c, 0, 81, 38
2, 1283, Note_on_c, 0, 55, 24
2, 1458, Note_on_c, 0, 66, 0
2, 1494, Note_on_c, 0, 81, 0
2, 1539, Note_on_c, 0, 81, 25
2, 1578, Note_on_c, 0, 69, 0
2, 1614, Note_on_c, 0, 75, 0
2, 1616, Note_on_c, 0, 81, 0
2, 1623, Note_on_c, 0, 78, 0
2, 1716, Note_on_c, 0, 84, 75
2, 1723, Note_on_c, 0, 67, 45
2, 1724, Note_on_c, 0, 64, 37
2, 1726, Note_on_c, 0, 76, 64
2, 1728, Note_on_c, 0, 62, 18
2, 1738, Control_c, 0, 64, 0
2, 1776, Control_c, 0, 64, 127
2, 1823, Note_on_c, 0, 67, 0
2, 1827, Note_on_c, 0, 84, 0
2, 1838, Note_on_c, 0, 76, 0
2, 1855, Note_on_c, 0, 83, 57
2, 1862, Note_on_c, 0, 74, 40
2, 1866, Note_on_c, 0, 55, 0
2, 1888, Note_on_c, 0, 83, 0
2, 1891, Note_on_c, 0, 74, 0
2, 1913, Note_on_c, 0, 81, 58
2, 1916, Note_on_c, 0, 72, 31
2, 1943, Note_on_c, 0, 81, 0
2, 1959, Note_on_c, 0, 72, 0
2, 1977, Note_on_c, 0, 79, 54
2, 1980, Note_on_c, 0, 55, 42
2, 1983, Note_on_c, 0, 71, 35
2, 1990, Control_c, 0, 64, 0
2, 2032, Control_c, 0, 64, 127
2, 2042, Note_on_c, 0, 79, 0
2, 2056, Note_on_c, 0, 71, 0
2, 2090, Note_on_c, 0, 77, 39
2, 2100, Note_on_c, 0, 69, 31
2, 2123, Note_on_c, 0, 77, 0
2, 2126, Note_on_c, 0, 64, 0
2, 2127, Note_on_c, 0, 69, 0
2, 2132, Note_on_c, 0, 62, 0
2, 2152, Note_on_c, 0, 55, 0
2, 2179, Note_on_c, 0, 76, 27
2, 2182, Note_on_c, 0, 67, 18
2, 2206, Note_on_c, 0, 76, 0
2, 2211, Note_on_c, 0, 67, 0
2, 2286, Note_on_c, 0, 74, 38
2, 2289, Note_on_c, 0, 68, 30
2, 2290, Note_on_c, 0, 48, 32
2, 2292, Note_on_c, 0, 64, 13
2, 2296, Note_on_c, 0, 58, 22
2, 2305, Control_c, 0, 64, 0
2, 2365, Control_c, 0, 64, 127
2, 2462, Note_on_c, 0, 48, 0
2, 2496, Note_on_c, 0, 58, 0
2, 2568, Note_on_c, 0, 74, 0
2, 2569, Note_on_c, 0, 72, 22
2, 2620, Note_on_c, 0, 72, 0
2, 2626, Note_on_c, 0, 64, 0
2, 2627, Note_on_c, 0, 68, 0
2, 2662, Note_on_c, 0, 30, 40
2, 2683, Note_on_c, 0, 30, 0
2, 2790, Note_on_c, 0, 64, 38
2, 2793, Note_on_c, 0, 58, 29
2, 2798, Note_on_c, 0, 68, 36
2, 2809, Note_on_c, 0, 72, 23
2, 2826, Note_on_c, 0, 76, 38
2, 3026, Note_on_c, 0, 58, 0
2, 3028, Note_on_c, 0, 76, 0
2, 3050, Note_on_c, 0, 72, 0
2, 3065, Note_on_c, 0, 68, 0
2, 3069, Note_on_c, 0, 64, 0
2, 3421, Note_on_c, 0, 52, 26
2, 3423, Note_on_c, 0, 56, 23
2, 3424, Note_on_c, 0, 42, 23
2, 3428, Note_on_c, 0, 49, 15
2, 3428, Note_on_c, 0, 58, 26
2, 3429, Note_on_c, 0, 60, 30
2, 3492, Note_on_c, 0, 52, 0
2, 3495, Note_on_c, 0, 60, 0
2, 3497, Note_on_c, 0, 42, 0
2, 3519, Note_on_c, 0, 49, 0
2, 3520, Note_on_c, 0, 58, 0
2, 3528, Note_on_c, 0, 56, 0
2, 3587, Control_c, 0, 64, 0
2, 3588, Note_on_c, 0, 60, 24
2, 3588, Note_on_c, 0, 57, 33
2, 3589, Note_on_c, 0, 52, 16
2, 3589, Note_on_c, 0, 55, 34
2, 3592, Note_on_c, 0, 41, 21
2, 3594, Note_on_c, 0, 48, 20
2, 3648, Control_c, 0, 64, 127
2, 3658, Note_on_c, 0, 52, 0
2, 3676, Note_on_c, 0, 55, 0
2, 3681, Note_on_c, 0, 57, 0
2, 3682, Note_on_c, 0, 60, 0
2, 3687, Note_on_c, 0, 41, 0
2, 3692, Note_on_c, 0, 48, 0
2, 3772, Note_on_c, 0, 62, 73
2, 3882, Note_on_c, 0, 74, 68
2, 3884, Note_on_c, 0, 69, 73
2, 3884, Note_on_c, 0, 65, 71
2, 3884, Note_on_c, 0, 72, 52
2, 3889, Note_on_c, 0, 62, 0
2, 3890, Note_on_c, 0, 60, 63
2, 3894, Control_c, 0, 64, 0
2, 3959, Control_c, 0, 64, 127
2, 4006, Note_on_c, 0, 74, 0
2, 4010, Note_on_c, 0, 72, 0
2, 4012, Note_on_c, 0, 69, 0
2, 4026, Note_on_c, 0, 65, 0
2, 4044, Note_on_c, 0, 65, 32
2, 4046, Note_on_c, 0, 77, 61
2, 4047, Note_on_c, 0, 53, 39
2, 4104, Note_on_c, 0, 65, 0
2, 4108, Note_on_c, 0, 53, 0
2, 4114, Note_on_c, 0, 77, 0
2, 4151, Note_on_c, 0, 60, 0
2, 4379, Note_on_c, 0, 71, 56
2, 4380, Note_on_c, 0, 66, 40
2, 4382, Note_on_c, 0, 42, 30
2, 4384, Note_on_c, 0, 64, 48
2, 4385, Note_on_c, 0, 60, 28
2, 4386, Note_on_c, 0, 52, 23
2, 4388, Control_c, 0, 64, 0
2, 4444, Control_c, 0, 64, 127
2, 4462, Note_on_c, 0, 71, 0
2, 4472, Note_on_c, 0, 42, 0
2, 4485, Note_on_c, 0, 71, 59
2, 4494, Note_on_c, 0, 52, 0
2, 4522, Note_on_c, 0, 60, 0
2, 4527, Note_on_c, 0, 64, 0
2, 4580, Note_on_c, 0, 66, 0
2, 4587, Note_on_c, 0, 71, 0
2, 4619, Note_on_c, 0, 66, 1
2, 4621, Note_on_c, 0, 71, 27
2, 4621, Note_on_c, 0, 64, 31
2, 4624, Note_on_c, 0, 47, 28
2, 4625, Note_on_c, 0, 59, 24
2, 4626, Note_on_c, 0, 57, 24
2, 4634, Control_c, 0, 64, 0
2, 4701, Control_c, 0, 64, 127
2, 4750, Note_on_c, 0, 64, 0
2, 4820, Note_on_c, 0, 63, 13
2, 4825, Note_on_c, 0, 71, 0
2, 4853, Note_on_c, 0, 59, 0
2, 4854, Note_on_c, 0, 66, 0
2, 4870, Note_on_c, 0, 63, 0
2, 4920, Note_on_c, 0, 72, 39
2, 4954, Note_on_c, 0, 57, 0
2, 4963, Note_on_c, 0, 47, 0
2, 4974, Note_on_c, 0, 72, 0
2, 5290, Note_on_c, 0, 67, 37
2, 5292, Note_on_c, 0, 43, 27
2, 5293, Note_on_c, 0, 64, 31
2, 5294, Note_on_c, 0, 62, 13
2, 5298, Note_on_c, 0, 52, 11
2, 5302, Control_c, 0, 64, 0
2, 5352, Control_c, 0, 64, 127
2, 5379, Note_on_c, 0, 52, 0
2, 5399, Note_on_c, 0, 52, 37
2, 5401, Note_on_c, 0, 67, 0
2, 5402, Note_on_c, 0, 64, 0
2, 5420, Note_on_c, 0, 62, 0
2, 5478, Note_on_c, 0, 52, 0
2, 5492, Note_on_c, 0, 59, 37
2, 5494, Note_on_c, 0, 62, 32
2, 5496, Note_on_c, 0, 64, 36
2, 5502, Note_on_c, 0, 55, 20
2, 5572, Note_on_c, 0, 55, 0
2, 5582, Note_on_c, 0, 67, 65
2, 5641, Note_on_c, 0, 67, 0
2, 5676, Note_on_c, 0, 67, 62
2, 5704, Note_on_c, 0, 64, 0
2, 5734, Note_on_c, 0, 59, 0
2, 5768, Note_on_c, 0, 55, 43
2, 5772, Note_on_c, 0, 62, 0
2, 5776, Note_on_c, 0, 67, 0
2, 5873, Note_on_c, 0, 62, 31
2, 5926, Note_on_c, 0, 43, 0
2, 5977, Note_on_c, 0, 74, 62
2, 6011, Note_on_c, 0, 74, 0
2, 6016, Note_on_c, 0, 55, 0
2, 6026, Note_on_c, 0, 62, 0
2, 6112, Note_on_c, 0, 53, 21
2, 6114, Note_on_c, 0, 57, 30
2, 6114, Note_on_c, 0, 60, 44
2, 6117, Note_on_c, 0, 43, 27
2, 6118, Note_on_c, 0, 50, 19
2, 6135, Control_c, 0, 64, 0
2, 6199, Control_c, 0, 64, 127
2, 6234, Note_on_c, 0, 60, 0
2, 6255, Note_on_c, 0, 60, 41
2, 6337, Note_on_c, 0, 60, 0
2, 6390, Note_on_c, 0, 60, 43
2, 6483, Note_on_c, 0, 57, 0
2, 6548, Note_on_c, 0, 57, 31
2, 6559, Note_on_c, 0, 60, 0
2, 6568, Note_on_c, 0, 43, 0
2, 6590, Note_on_c, 0, 50, 0
2, 6604, Note_on_c, 0, 53, 0
2, 6645, Note_on_c, 0, 57, 0
2, 6730, Note_on_c, 0, 57, 28
2, 6730, Note_on_c, 0, 53, 18
2, 6732, Note_on_c, 0, 60, 32
2, 6734, Note_on_c, 0, 43, 29
2, 6750, Control_c, 0, 64, 0
2, 6806, Control_c, 0, 64, 127
2, 6862, Note_on_c, 0, 43, 0
2, 6889, Note_on_c, 0, 43, 24
2, 6945, Note_on_c, 0, 53, 0
2, 6959, Note_on_c, 0, 57, 0
2, 6963, Note_on_c, 0, 60, 0
2, 7076, Note_on_c, 0, 56, 23
2, 7078, Note_on_c, 0, 59, 37
2, 7078, Note_on_c, 0, 62, 37
2, 7092, Note_on_c, 0, 53, 10
2, 7175, Note_on_c, 0, 43, 0
2, 7251, Note_on_c, 0, 43, 35
2, 7306, Note_on_c, 0, 59, 0
2, 7316, Note_on_c, 0, 53, 0
2, 7344, Note_on_c, 0, 56, 0
2, 7374, Note_on_c, 0, 62, 0
2, 7388, Note_on_c, 0, 60, 56
2, 7390, Note_on_c, 0, 52, 23
2, 7391, Note_on_c, 0, 55, 36
2, 7408, Control_c, 0, 64, 0
2, 7464, Note_on_c, 0, 43, 0
2, 7495, Control_c, 0, 64, 127
2, 7498, Note_on_c, 0, 43, 36
2, 7518, Note_on_c, 0, 55, 0
2, 7522, Note_on_c, 0, 52, 0
2, 7538, Note_on_c, 0, 60, 0
2, 7599, Note_on_c, 0, 52, 16
2, 7600, Note_on_c, 0, 64, 54
2, 7602, Note_on_c, 0, 55, 26
2, 7602, Note_on_c, 0, 60, 54
2, 7648, Note_on_c, 0, 43, 0
2, 7697, Note_on_c, 0, 64, 0
2, 7711, Note_on_c, 0, 55, 0
2, 7712, Note_on_c, 0, 60, 0
2, 7719, Note_on_c, 0, 43, 45
2, 7725, Note_on_c, 0, 52, 0
2, 7821, Note_on_c, 0, 54, 27
2, 7834, Note_on_c, 0, 60, 56
2, 7838, Note_on_c, 0, 57, 44
2, 7841, Note_on_c, 0, 63, 52
2, 7849, Note_on_c, 0, 66, 53
2, 7852, Control_c, 0, 64, 0
2, 7854, Note_on_c, 0, 69, 65
2, 7917, Note_on_c, 0, 54, 0
2, 7930, Control_c, 0, 64, 127
2, 7968, Note_on_c, 0, 43, 0
2, 7994, Note_on_c, 0, 43, 43
2, 8036, Note_on_c, 0, 57, 0
2, 8050, Note_on_c, 0, 63, 0
2, 8056, Note_on_c, 0, 60, 0
2, 8067, Note_on_c, 0, 66, 0
2, 8088, Note_on_c, 0, 69, 0
2, 8153, Note_on_c, 0, 54, 6
2, 8155, Note_on_c, 0, 60, 33
2, 8160, Note_on_c, 0, 63, 33
2, 8165, Note_on_c, 0, 66, 28
2, 8168, Note_on_c, 0, 57, 19
2, 8170, Note_on_c, 0, 69, 30
2, 8226, Note_on_c, 0, 54, 0
2, 8270, Note_on_c, 0, 43, 0
2, 8362, Note_on_c, 0, 43, 24
2, 8432, Note_on_c, 0, 57, 0
2, 8438, Note_on_c, 0, 60, 0
2, 8468, Note_on_c, 0, 63, 0
2, 8476, Note_on_c, 0, 69, 0
2, 8484, Note_on_c, 0, 66, 0
2, 8590, Note_on_c, 0, 72, 34
2, 8598, Note_on_c, 0, 64, 34
2, 8598, Note_on_c, 0, 67, 38
2, 8602, Note_on_c, 0, 55, 24
2, 8614, Control_c, 0, 64, 0
2, 8654, Note_on_c, 0, 43, 0
2, 8670, Control_c, 0, 64, 127
2, 8680, Note_on_c, 0, 64, 0
2, 8690, Note_on_c, 0, 67, 0
2, 8697, Note_on_c, 0, 72, 0
2, 8771, Note_on_c, 0, 83, 55
2, 8775, Note_on_c, 0, 43, 25
2, 8778, Note_on_c, 0, 55, 0
2, 8779, Note_on_c, 0, 74, 56
2, 8814, Note_on_c, 0, 83, 0
2, 8824, Note_on_c, 0, 74, 0
2, 8844, Note_on_c, 0, 81, 63
2, 8849, Note_on_c, 0, 72, 30
2, 8880, Note_on_c, 0, 81, 0
2, 8892, Note_on_c, 0, 72, 0
2, 8918, Note_on_c, 0, 79, 49
2, 8920, Note_on_c, 0, 71, 44
2, 8922, Note_on_c, 0, 55, 31
2, 8931, Control_c, 0, 64, 0
2, 8963, Control_c, 0, 64, 127
2, 8986, Note_on_c, 0, 43, 0
2, 8995, Note_on_c, 0, 79, 0
2, 9010, Note_on_c, 0, 71, 0
2, 9044, Note_on_c, 0, 55, 0
2, 9059, Note_on_c, 0, 43, 34
2, 9060, Note_on_c, 0, 77, 37
2, 9063, Note_on_c, 0, 69, 31
2, 9081, Note_on_c, 0, 43, 0
2, 9085, Note_on_c, 0, 69, 0
2, 9086, Note_on_c, 0, 77, 0
2, 9150, Note_on_c, 0, 76, 42
2, 9152, Note_on_c, 0, 67, 37
2, 9174, Note_on_c, 0, 76, 0
2, 9175, Note_on_c, 0, 67, 0
2, 9259, Note_on_c, 0, 74, 43
2, 9264, Note_on_c, 0, 68, 34
2, 9266, Note_on_c, 0, 64, 14
2, 9269, Note_on_c, 0, 58, 19
2, 9278, Control_c, 0, 64, 0
2, 9314, Control_c, 0, 64, 127
2, 9357, Note_on_c, 0, 74, 0
2, 9370, Note_on_c, 0, 64, 0
2, 9386, Note_on_c, 0, 68, 0
2, 9426, Note_on_c, 0, 58, 0
2, 9471, Note_on_c, 0, 62, 21
2, 9472, Note_on_c, 0, 72, 18
2, 9472, Note_on_c, 0, 67, 32
2, 9590, Note_on_c, 0, 72, 0
2, 9595, Note_on_c, 0, 67, 0
2, 9619, Note_on_c, 0, 62, 0
2, 9728, Note_on_c, 0, 64, 32
2, 9728, Note_on_c, 0, 58, 17
2, 9730, Note_on_c, 0, 61, 29
2, 9732, Note_on_c, 0, 48, 21
2, 9736, Note_on_c, 0, 55, 16
2, 9737, Control_c, 0, 64, 0
2, 9777, Control_c, 0, 64, 127
2, 9802, Note_on_c, 0, 55, 0
2, 9811, Note_on_c, 0, 64, 0
2, 9815, Note_on_c, 0, 48, 0
2, 9826, Note_on_c, 0, 61, 0
2, 9836, Note_on_c, 0, 58, 0
2, 10177, Note_on_c, 0, 61, 28
2, 10182, Note_on_c, 0, 52, 18
2, 10184, Note_on_c, 0, 56, 27
2, 10184, Note_on_c, 0, 42, 22
2, 10185, Note_on_c, 0, 58, 28
2, 10187, Note_on_c, 0, 49, 24
2, 10188, Control_c, 0, 64, 0
2, 10216, Control_c, 0, 64, 127
2, 10228, Note_on_c, 0, 52, 0
2, 10248, Note_on_c, 0, 42, 0
2, 10248, Note_on_c, 0, 61, 0
2, 10250, Note_on_c, 0, 56, 0
2, 10265, Note_on_c, 0, 49, 0
2, 10270, Note_on_c, 0, 58, 0
2, 10357, Note_on_c, 0, 60, 46
2, 10358, Note_on_c, 0, 57, 32
2, 10358, Note_on_c, 0, 53, 13
2, 10361, Control_c, 0, 64, 0
2, 10361, Note_on_c, 0, 48, 27
2, 10362, Note_on_c, 0, 50, 18
2, 10362, Note_on_c, 0, 41, 24
2, 10409, Control_c, 0, 64, 127
2, 10414, Note_on_c, 0, 53, 0
2, 10424, Note_on_c, 0, 57, 0
2, 10428, Note_on_c, 0, 60, 0
2, 10434, Note_on_c, 0, 48, 0
2, 10435, Note_on_c, 0, 41, 0
2, 10437, Note_on_c, 0, 50, 0
2, 10510, Note_on_c, 0, 74, 65
2, 10512, Note_on_c, 0, 65, 66
2, 10512, Note_on_c, 0, 62, 58
2, 10512, Note_on_c, 0, 72, 45
2, 10512, Note_on_c, 0, 69, 65
2, 10598, Note_on_c, 0, 69, 0
2, 10600, Note_on_c, 0, 65, 0
2, 10602, Note_on_c, 0, 74, 0
2, 10616, Note_on_c, 0, 72, 0
2, 10631, Note_on_c, 0, 74, 61
2, 10632, Note_on_c, 0, 69, 60
2, 10633, Note_on_c, 0, 60, 68
2, 10633, Note_on_c, 0, 65, 51
2, 10634, Note_on_c, 0, 72, 38
2, 10635, Note_on_c, 0, 62, 0
2, 10642, Control_c, 0, 64, 0
2, 10660, Control_c, 0, 64, 127
2, 10740, Note_on_c, 0, 53, 42
2, 10743, Note_on_c, 0, 69, 0
2, 10744, Note_on_c, 0, 65, 0
2, 10748, Note_on_c, 0, 74, 0
2, 10751, Note_on_c, 0, 72, 0
2, 10834, Note_on_c, 0, 77, 68
2, 10838, Note_on_c, 0, 72, 64
2, 10840, Note_on_c, 0, 65, 72
2, 10859, Note_on_c, 0, 60, 0
2, 10918, Note_on_c, 0, 60, 55
2, 10945, Note_on_c, 0, 65, 0
2, 11007, Note_on_c, 0, 65, 48
2, 11024, Note_on_c, 0, 53, 0
2, 11028, Note_on_c, 0, 77, 0
2, 11043, Note_on_c, 0, 72, 0
2, 11078, Note_on_c, 0, 65, 0
2, 11099, Note_on_c, 0, 53, 26
2, 11109, Note_on_c, 0, 60, 0
2, 11122, Note_on_c, 0, 53, 0
2, 11202, Note_on_c, 0, 71, 46
2, 11206, Note_on_c, 0, 66, 23
2, 11208, Note_on_c, 0, 60, 28
2, 11208, Note_on_c, 0, 47, 30
2, 11209, Note_on_c, 0, 64, 46
2, 11211, Note_on_c, 0, 57, 25
2, 11218, Control_c, 0, 64, 0
2, 11278, Control_c, 0, 64, 127
2, 11309, Note_on_c, 0, 71, 0
2, 11328, Note_on_c, 0, 71, 46
2, 11376, Note_on_c, 0, 57, 0
2, 11394, Note_on_c, 0, 71, 0
2, 11435, Note_on_c, 0, 71, 41
2, 11521, Note_on_c, 0, 71, 0
2, 11555, Note_on_c, 0, 71, 37
2, 11618, Note_on_c, 0, 64, 0
2, 11633, Note_on_c, 0, 60, 0
2, 11696, Note_on_c, 0, 60, 24
2, 11697, Note_on_c, 0, 63, 19
2, 11704, Note_on_c, 0, 57, 18
2, 11860, Note_on_c, 0, 71, 0
2, 11860, Note_on_c, 0, 66, 0
2, 11867, Note_on_c, 0, 63, 0
2, 11916, Note_on_c, 0, 60, 0
2, 11959, Note_on_c, 0, 72, 68
2, 12058, Note_on_c, 0, 72, 0
2, 12059, Note_on_c, 0, 47, 0
2, 12110, Note_on_c, 0, 57, 0
2, 12248, Note_on_c, 0, 72, 26
2, 12254, Note_on_c, 0, 67, 37
2, 12256, Note_on_c, 0, 64, 22
2, 12256, Note_on_c, 0, 43, 26
2, 12257, Note_on_c, 0, 62, 25
2, 12262, Control_c, 0, 64, 0
2, 12265, Note_on_c, 0, 52, 5
2, 12300, Control_c, 0, 64, 127
2, 12335, Note_on_c, 0, 52, 0
2, 12355, Note_on_c, 0, 72, 0
2, 12355, Note_on_c, 0, 52, 44
2, 12357, Note_on_c, 0, 67, 0
2, 12358, Note_on_c, 0, 64, 0
2, 12366, Note_on_c, 0, 62, 0
2, 12448, Note_on_c, 0, 60, 46
2, 12456, Note_on_c, 0, 55, 16
2, 12457, Note_on_c, 0, 52, 0
2, 12482, Note_on_c, 0, 55, 0
2, 12528, Note_on_c, 0, 60, 0
2, 12532, Note_on_c, 0, 52, 45
2, 12623, Note_on_c, 0, 72, 43
2, 12626, Note_on_c, 0, 52, 0
2, 12626, Note_on_c, 0, 67, 52
2, 12627, Note_on_c, 0, 43, 0
2, 12627, Note_on_c, 0, 64, 37
2, 12632, Note_on_c, 0, 55, 29
2, 12711, Note_on_c, 0, 55, 0
2, 12724, Note_on_c, 0, 59, 38
2, 12748, Note_on_c, 0, 64, 0
2, 12764, Note_on_c, 0, 67, 0
2, 12836, Note_on_c, 0, 67, 31
2, 12836, Note_on_c, 0, 64, 27
2, 12839, Note_on_c, 0, 59, 0
2, 12942, Note_on_c, 0, 43, 41
2, 12966, Note_on_c, 0, 67, 0
2, 12968, Note_on_c, 0, 72, 0
2, 12972, Note_on_c, 0, 43, 0
2, 12975, Note_on_c, 0, 64, 0
2, 13122, Note_on_c, 0, 56, 23
2, 13124, Note_on_c, 0, 62, 38
2, 13126, Note_on_c, 0, 32, 30
2, 13127, Control_c, 0, 64, 0
2, 13128, Note_on_c, 0, 44, 25
2, 13128, Note_on_c, 0, 59, 40
2, 13163, Control_c, 0, 64, 127
2, 13184, Note_on_c, 0, 56, 0
2, 13185, Note_on_c, 0, 59, 0
2, 13188, Note_on_c, 0, 32, 0
2, 13190, Note_on_c, 0, 62, 0
2, 13200, Note_on_c, 0, 44, 0
2, 13278, Note_on_c, 0, 74, 63
2, 13279, Note_on_c, 0, 82, 64
2, 13280, Note_on_c, 0, 71, 60
2, 13281, Note_on_c, 0, 77, 55
2, 13287, Note_on_c, 0, 70, 54
2, 13327, Note_on_c, 0, 77, 0
2, 13327, Note_on_c, 0, 82, 0
2, 13327, Note_on_c, 0, 74, 0
2, 13329, Note_on_c, 0, 70, 0
2, 13346, Note_on_c, 0, 71, 0
2, 13405, Note_on_c, 0, 79, 42
2, 13406, Note_on_c, 0, 71, 43
2, 13406, Note_on_c, 0, 74, 45
2, 13408, Control_c, 0, 64, 0
2, 13409, Note_on_c, 0, 68, 30
2, 13411, Note_on_c, 0, 67, 42
2, 13444, Control_c, 0, 64, 127
2, 13465, Note_on_c, 0, 79, 0
2, 13475, Note_on_c, 0, 74, 0
2, 13477, Note_on_c, 0, 71, 0
2, 13480, Note_on_c, 0, 67, 0
2, 13492, Note_on_c, 0, 68, 0
2, 13557, Note_on_c, 0, 76, 51
2, 13558, Note_on_c, 0, 71, 39
2, 13559, Note_on_c, 0, 68, 33
2, 13561, Note_on_c, 0, 65, 13
2, 13564, Note_on_c, 0, 64, 21
2, 13570, Control_c, 0, 64, 0
2, 13594, Control_c, 0, 64, 127
2, 13685, Note_on_c, 0, 76, 0
2, 13686, Note_on_c, 0, 64, 0
2, 13691, Note_on_c, 0, 71, 0
2, 13697, Note_on_c, 0, 68, 0
2, 13704, Note_on_c, 0, 65, 0
2, 13856, Note_on_c, 0, 61, 33
2, 13857, Note_on_c, 0, 73, 21
2, 13858, Note_on_c, 0, 62, 23
2, 13860, Note_on_c, 0, 65, 36
2, 13860, Note_on_c, 0, 68, 33
2, 13873, Control_c, 0, 64, 0
2, 13887, Control_c, 0, 64, 127
2, 13926, Note_on_c, 0, 61, 0
2, 13939, Note_on_c, 0, 73, 0
2, 13941, Note_on_c, 0, 65, 0
2, 13944, Note_on_c, 0, 68, 0
2, 13957, Note_on_c, 0, 62, 0
2, 14074, Note_on_c, 0, 70, 30
2, 14077, Note_on_c, 0, 62, 33
2, 14078, Note_on_c, 0, 59, 26
2, 14079, Note_on_c, 0, 65, 30
2, 14082, Note_on_c, 0, 58, 23
2, 14094, Control_c, 0, 64, 0
2, 14136, Control_c, 0, 64, 127
2, 14413, Note_on_c, 0, 70, 0
2, 14431, Note_on_c, 0, 65, 0
2, 14442, Note_on_c, 0, 59, 0
2, 14444, Note_on_c, 0, 62, 0
2, 14462, Note_on_c, 0, 58, 0
2, 14466, Note_on_c, 0, 67, 49
2, 14562, Note_on_c, 0, 65, 58
2, 14665, Note_on_c, 0, 62, 45
2, 14670, Note_on_c, 0, 67, 0
2, 14671, Note_on_c, 0, 65, 0
2, 14817, Note_on_c, 0, 62, 0
2, 14861, Note_on_c, 0, 62, 44
2, 14866, Note_on_c, 0, 45, 29
2, 14882, Control_c, 0, 64, 0
2, 14963, Note_on_c, 0, 52, 30
2, 14966, Note_on_c, 0, 64, 43
2, 14977, Note_on_c, 0, 62, 0
2, 15026, Control_c, 0, 64, 127
2, 15044, Control_c, 0, 64, 0
2, 15074, Note_on_c, 0, 60, 38
2, 15075, Note_on_c, 0, 64, 0
2, 15081, Note_on_c, 0, 57, 21
2, 15087, Note_on_c, 0, 52, 0
2, 15088, Control_c, 0, 64, 127
2, 15099, Note_on_c, 0, 45, 0
2, 15112, Note_on_c, 0, 60, 0
2, 15124, Note_on_c, 0, 57, 0
2, 15185, Note_on_c, 0, 60, 38
2, 15272, Note_on_c, 0, 60, 0
2, 15341, Note_on_c, 0, 60, 28
2, 15344, Note_on_c, 0, 64, 25
2, 15346, Note_on_c, 0, 59, 14
2, 15468, Note_on_c, 0, 84, 77
2, 15473, Note_on_c, 0, 76, 71
2, 15526, Note_on_c, 0, 84, 0
2, 15540, Note_on_c, 0, 76, 0
2, 15558, Note_on_c, 0, 83, 62
2, 15560, Note_on_c, 0, 74, 65
2, 15565, Note_on_c, 0, 64, 0
2, 15572, Note_on_c, 0, 60, 0
2, 15572, Note_on_c, 0, 59, 0
2, 15593, Note_on_c, 0, 83, 0
2, 15603, Note_on_c, 0, 74, 0
2, 15629, Note_on_c, 0, 81, 68
2, 15630, Note_on_c, 0, 72, 54
2, 15656, Note_on_c, 0, 72, 0
2, 15658, Note_on_c, 0, 81, 0
2, 15713, Note_on_c, 0, 79, 53
2, 15714, Note_on_c, 0, 72, 32
2, 15720, Note_on_c, 0, 50, 28
2, 15722, Note_on_c, 0, 65, 24
2, 15734, Control_c, 0, 64, 0
2, 15790, Control_c, 0, 64, 127
2, 15803, Note_on_c, 0, 57, 30
2, 15816, Note_on_c, 0, 79, 0
2, 15831, Note_on_c, 0, 65, 0
2, 15832, Note_on_c, 0, 72, 0
2, 15892, Note_on_c, 0, 61, 24
2, 15892, Note_on_c, 0, 72, 26
2, 15896, Note_on_c, 0, 65, 26
2, 15974, Note_on_c, 0, 61, 0
2, 15998, Note_on_c, 0, 77, 54
2, 16008, Note_on_c, 0, 60, 25
2, 16083, Note_on_c, 0, 57, 0
2, 16114, Note_on_c, 0, 57, 45
2, 16123, Control_c, 0, 64, 0
2, 16176, Control_c, 0, 64, 127
2, 16186, Note_on_c, 0, 65, 0
2, 16209, Note_on_c, 0, 65, 47
2, 16232, Note_on_c, 0, 77, 0
2, 16256, Note_on_c, 0, 65, 0
2, 16275, Note_on_c, 0, 50, 0
2, 16286, Note_on_c, 0, 72, 0
2, 16306, Note_on_c, 0, 50, 39
2, 16307, Note_on_c, 0, 67, 68
2, 16307, Note_on_c, 0, 79, 63
2, 16323, Note_on_c, 0, 67, 0
2, 16347, Note_on_c, 0, 79, 0
2, 16394, Note_on_c, 0, 60, 0
2, 16402, Note_on_c, 0, 57, 0
2, 16405, Note_on_c, 0, 81, 59
2, 16412, Note_on_c, 0, 50, 0
2, 16438, Note_on_c, 0, 81, 0
2, 16506, Note_on_c, 0, 83, 57
2, 16507, Note_on_c, 0, 47, 34
2, 16508, Note_on_c, 0, 78, 38
2, 16508, Note_on_c, 0, 35, 37
2, 16508, Control_c, 0, 64, 0
2, 16509, Note_on_c, 0, 72, 34
2, 16510, Note_on_c, 0, 76, 59
2, 16539, Control_c, 0, 64, 127
2, 16541, Note_on_c, 0, 83, 0
2, 16545, Note_on_c, 0, 76, 0
2, 16547, Note_on_c, 0, 78, 0
2, 16550, Note_on_c, 0, 35, 0
2, 16554, Note_on_c, 0, 72, 0
2, 16561, Note_on_c, 0, 47, 0
2, 16624, Note_on_c, 0, 71, 53
2, 16627, Note_on_c, 0, 66, 31
2, 16628, Note_on_c, 0, 64, 53
2, 16628, Note_on_c, 0, 60, 45
2, 16696, Note_on_c, 0, 64, 0
2, 16699, Note_on_c, 0, 60, 0
2, 16702, Note_on_c, 0, 66, 0
2, 16709, Note_on_c, 0, 71, 0
2, 16737, Note_on_c, 0, 71, 42
2, 16738, Note_on_c, 0, 66, 27
2, 16740, Note_on_c, 0, 60, 36
2, 16740, Note_on_c, 0, 59, 36
2, 16741, Note_on_c, 0, 64, 46
2, 16822, Note_on_c, 0, 71, 0
2, 16833, Note_on_c, 0, 59, 0
2, 16840, Note_on_c, 0, 60, 0
2, 16846, Note_on_c, 0, 71, 36
2, 16869, Note_on_c, 0, 64, 0
2, 16921, Note_on_c, 0, 71, 0
2, 16944, Note_on_c, 0, 71, 16
2, 16947, Note_on_c, 0, 64, 27
2, 16948, Note_on_c, 0, 59, 30
2, 16948, Note_on_c, 0, 47, 24
2, 16953, Note_on_c, 0, 57, 22
2, 16960, Control_c, 0, 64, 0
2, 17026, Control_c, 0, 64, 127
2, 17035, Note_on_c, 0, 54, 28
2, 17052, Note_on_c, 0, 59, 0
2, 17056, Note_on_c, 0, 57, 0
2, 17104, Note_on_c, 0, 71, 0
2, 17123, Note_on_c, 0, 59, 39
2, 17186, Note_on_c, 0, 47, 0
2, 17213, Note_on_c, 0, 71, 47
2, 17225, Note_on_c, 0, 54, 0
2, 17226, Note_on_c, 0, 59, 0
2, 17242, Note_on_c, 0, 64, 0
2, 17247, Note_on_c, 0, 71, 0
2, 17248, Note_on_c, 0, 66, 0
2, 17328, Note_on_c, 0, 72, 41
2, 17328, Note_on_c, 0, 64, 36
2, 17328, Note_on_c, 0, 40, 30
2, 17329, Control_c, 0, 64, 0
2, 17331, Note_on_c, 0, 60, 28
2, 17331, Note_on_c, 0, 67, 43
2, 17332, Note_on_c, 0, 28, 32
2, 17358, Note_on_c, 0, 60, 0
2, 17368, Note_on_c, 0, 64, 0
2, 17369, Control_c, 0, 64, 127
2, 17373, Note_on_c, 0, 67, 0
2, 17378, Note_on_c, 0, 72, 0
2, 17388, Note_on_c, 0, 28, 0
2, 17399, Note_on_c, 0, 40, 0
2, 17458, Note_on_c, 0, 76, 73
2, 17458, Note_on_c, 0, 84, 77
2, 17461, Note_on_c, 0, 79, 56
2, 17491, Note_on_c, 0, 84, 0
2, 17492, Note_on_c, 0, 79, 0
2, 17492, Note_on_c, 0, 76, 0
2, 17565, Note_on_c, 0, 76, 52
2, 17566, Note_on_c, 0, 62, 33
2, 17567, Note_on_c, 0, 67, 46
2, 17568, Note_on_c, 0, 72, 34
2, 17673, Note_on_c, 0, 56, 44
2, 17813, Note_on_c, 0, 72, 0
2, 17814, Note_on_c, 0, 76, 0
2, 17822, Note_on_c, 0, 67, 0
2, 17826, Note_on_c, 0, 62, 0
2, 17844, Note_on_c, 0, 56, 0
2, 17906, Note_on_c, 0, 65, 32
2, 17907, Note_on_c, 0, 70, 32
2, 17908, Note_on_c, 0, 74, 34
2, 17914, Note_on_c, 0, 62, 14
2, 17914, Note_on_c, 0, 56, 22
2, 17962, Note_on_c, 0, 74, 0
2, 17967, Note_on_c, 0, 70, 0
2, 17977, Note_on_c, 0, 62, 0
2, 17980, Note_on_c, 0, 65, 0
2, 17984, Note_on_c, 0, 56, 0
2, 18042, Note_on_c, 0, 72, 18
2, 18044, Note_on_c, 0, 67, 30
2, 18044, Note_on_c, 0, 64, 18
2, 18046, Note_on_c, 0, 56, 17
2, 18049, Note_on_c, 0, 62, 21
2, 18057, Control_c, 0, 64, 0
2, 18106, Control_c, 0, 64, 127
2, 18169, Note_on_c, 0, 64, 0
2, 18232, Note_on_c, 0, 67, 0
2, 18250, Note_on_c, 0, 62, 0
2, 18316, Note_on_c, 0, 72, 0
2, 18316, Note_on_c, 0, 62, 38
2, 18324, Note_on_c, 0, 56, 0
2, 18370, Note_on_c, 0, 62, 0
2, 18400, Note_on_c, 0, 62, 49
2, 18403, Note_on_c, 0, 45, 34
2, 18426, Control_c, 0, 64, 0
2, 18472, Control_c, 0, 64, 127
2, 18490, Note_on_c, 0, 60, 64
2, 18494, Note_on_c, 0, 52, 30
2, 18500, Note_on_c, 0, 62, 0
2, 18551, Note_on_c, 0, 60, 0
2, 18571, Note_on_c, 0, 45, 0
2, 18579, Note_on_c, 0, 60, 55
2, 18580, Note_on_c, 0, 52, 0
2, 18584, Note_on_c, 0, 57, 41
2, 18594, Note_on_c, 0, 57, 0
2, 18595, Note_on_c, 0, 60, 0
2, 18671, Note_on_c, 0, 60, 55
2, 18765, Note_on_c, 0, 84, 83
2, 18770, Note_on_c, 0, 64, 47
2, 18771, Note_on_c, 0, 76, 74
2, 18796, Note_on_c, 0, 60, 0
2, 18882, Note_on_c, 0, 60, 18
2, 18894, Note_on_c, 0, 84, 0
2, 18921, Note_on_c, 0, 76, 0
2, 18931, Note_on_c, 0, 64, 0
2, 18953, Note_on_c, 0, 60, 0
2, 18990, Note_on_c, 0, 83, 45
2, 18994, Note_on_c, 0, 74, 40
2, 18998, Note_on_c, 0, 60, 24
2, 18999, Note_on_c, 0, 64, 18
2, 19000, Note_on_c, 0, 59, 23
2, 19029, Note_on_c, 0, 83, 0
2, 19037, Note_on_c, 0, 74, 0
2, 19089, Note_on_c, 0, 64, 0
2, 19100, Note_on_c, 0, 81, 50
2, 19101, Note_on_c, 0, 59, 0
2, 19105, Note_on_c, 0, 72, 27
2, 19108, Note_on_c, 0, 60, 0
2, 19115, Note_on_c, 0, 57, 18
2, 19124, Note_on_c, 0, 57, 0
2, 19133, Note_on_c, 0, 81, 0
2, 19150, Note_on_c, 0, 72, 0
2, 19261, Note_on_c, 0, 50, 29
2, 19284, Note_on_c, 0, 57, 29
2, 19289, Note_on_c, 0, 65, 50
2, 19300, Note_on_c, 0, 72, 30
2, 19321, Note_on_c, 0, 79, 56
2, 19329, Control_c, 0, 64, 0
2, 19373, Control_c, 0, 64, 127
2, 19451, Note_on_c, 0, 64, 34
2, 19541, Note_on_c, 0, 64, 0
2, 19544, Note_on_c, 0, 79, 0
2, 19577, Note_on_c, 0, 77, 54
2, 19583, Note_on_c, 0, 62, 37
2, 19629, Note_on_c, 0, 57, 0
2, 19679, Note_on_c, 0, 57, 47
2, 19722, Note_on_c, 0, 65, 0
2, 19759, Note_on_c, 0, 77, 0
2, 19778, Note_on_c, 0, 72, 0
2, 19780, Note_on_c, 0, 50, 0
2, 19793, Note_on_c, 0, 65, 59
2, 19794, Note_on_c, 0, 79, 62
2, 19794, Note_on_c, 0, 72, 45
2, 19891, Note_on_c, 0, 50, 41
2, 19899, Note_on_c, 0, 65, 0
2, 19922, Note_on_c, 0, 79, 0
2, 19925, Note_on_c, 0, 72, 0
2, 20052, Note_on_c, 0, 50, 0
2, 20103, Note_on_c, 0, 62, 0
2, 20108, Note_on_c, 0, 81, 48
2, 20111, Note_on_c, 0, 50, 30
2, 20112, Note_on_c, 0, 69, 42
2, 20120, Note_on_c, 0, 57, 0
2, 20134, Note_on_c, 0, 50, 0
2, 20138, Note_on_c, 0, 69, 0
2, 20154, Note_on_c, 0, 81, 0
2, 20240, Control_c, 0, 64, 0
2, 20240, Note_on_c, 0, 86, 73
2, 20242, Note_on_c, 0, 77, 52
2, 20244, Note_on_c, 0, 82, 49
2, 20244, Note_on_c, 0, 44, 42
2, 20244, Note_on_c, 0, 32, 51
2, 20274, Control_c, 0, 64, 127
2, 20288, Note_on_c, 0, 32, 0
2, 20289, Note_on_c, 0, 86, 0
2, 20295, Note_on_c, 0, 82, 0
2, 20296, Note_on_c, 0, 44, 0
2, 20298, Note_on_c, 0, 77, 0
2, 20372, Note_on_c, 0, 74, 61
2, 20374, Note_on_c, 0, 70, 61
2, 20376, Note_on_c, 0, 65, 59
2, 20377, Note_on_c, 0, 54, 38
2, 20379, Note_on_c, 0, 60, 49
2, 20448, Note_on_c, 0, 65, 0
2, 20450, Note_on_c, 0, 54, 0
2, 20452, Note_on_c, 0, 60, 0
2, 20460, Note_on_c, 0, 70, 0
2, 20463, Note_on_c, 0, 74, 0
2, 20499, Note_on_c, 0, 74, 64
2, 20501, Note_on_c, 0, 70, 57
2, 20502, Note_on_c, 0, 65, 60
2, 20503, Note_on_c, 0, 54, 53
2, 20504, Note_on_c, 0, 60, 58
2, 20570, Note_on_c, 0, 60, 0
2, 20571, Note_on_c, 0, 65, 0
2, 20572, Note_on_c, 0, 54, 0
2, 20574, Note_on_c, 0, 70, 0
2, 20577, Note_on_c, 0, 74, 0
2, 20622, Note_on_c, 0, 74, 56
2, 20622, Note_on_c, 0, 65, 57
2, 20623, Note_on_c, 0, 70, 49
2, 20624, Note_on_c, 0, 54, 40
2, 20626, Note_on_c, 0, 60, 42
2, 20654, Note_on_c, 0, 60, 0
2, 20668, Note_on_c, 0, 54, 0
2, 20838, Note_on_c, 0, 65, 0
2, 20846, Note_on_c, 0, 70, 0
2, 20883, Note_on_c, 0, 74, 0
2, 20894, Note_on_c, 0, 54, 31
2, 20933, Note_on_c, 0, 54, 0
2, 21026, Note_on_c, 0, 70, 32
2, 21026, Note_on_c, 0, 65, 33
2, 21027, Note_on_c, 0, 54, 20
2, 21030, Note_on_c, 0, 60, 23
2, 21184, Note_on_c, 0, 74, 48
2, 21195, Note_on_c, 0, 60, 0
2, 21210, Note_on_c, 0, 54, 0
2, 21262, Note_on_c, 0, 65, 0
2, 21281, Note_on_c, 0, 70, 0
2, 21295, Note_on_c, 0, 74, 0
2, 21370, Note_on_c, 0, 65, 42
2, 21371, Note_on_c, 0, 74, 43
2, 21372, Note_on_c, 0, 62, 36
2, 21373, Note_on_c, 0, 72, 29
2, 21373, Note_on_c, 0, 69, 49
2, 21395, Control_c, 0, 64, 0
2, 21459, Control_c, 0, 64, 127
2, 21474, Note_on_c, 0, 55, 43
2, 21480, Note_on_c, 0, 62, 0
2, 21484, Note_on_c, 0, 55, 0
2, 21505, Note_on_c, 0, 69, 0
2, 21508, Note_on_c, 0, 74, 0
2, 21510, Note_on_c, 0, 72, 0
2, 21514, Note_on_c, 0, 65, 0
2, 21592, Note_on_c, 0, 43, 30
2, 21594, Note_on_c, 0, 53, 29
2, 21596, Note_on_c, 0, 62, 38
2, 21596, Note_on_c, 0, 50, 27
2, 21596, Note_on_c, 0, 57, 36
2, 21598, Note_on_c, 0, 60, 34
2, 21629, Note_on_c, 0, 50, 0
2, 21629, Note_on_c, 0, 43, 0
2, 21743, Note_on_c, 0, 31, 43
2, 21828, Note_on_c, 0, 31, 0
2, 22056, Note_on_c, 0, 43, 33
2, 22105, Note_on_c, 0, 43, 0
2, 22124, Note_on_c, 0, 57, 0
2, 22127, Note_on_c, 0, 53, 0
2, 22136, Note_on_c, 0, 60, 0
2, 22370, Note_on_c, 0, 43, 30
2, 22474, Note_on_c, 0, 62, 0
2, 22510, Note_on_c, 0, 52, 18
2, 22510, Note_on_c, 0, 60, 40
2, 22510, Note_on_c, 0, 55, 28
2, 22513, Note_on_c, 0, 57, 40
2, 22526, Control_c, 0, 64, 0
2, 22591, Control_c, 0, 64, 127
2, 22595, Note_on_c, 0, 43, 0
2, 22621, Note_on_c, 0, 43, 42
2, 22652, Note_on_c, 0, 55, 0
2, 22668, Note_on_c, 0, 52, 0
2, 22674, Note_on_c, 0, 57, 0
2, 22676, Note_on_c, 0, 60, 0
2, 22723, Note_on_c, 0, 64, 54
2, 22725, Note_on_c, 0, 52, 31
2, 22725, Note_on_c, 0, 60, 52
2, 22726, Note_on_c, 0, 57, 52
2, 22726, Note_on_c, 0, 55, 51
2, 22731, Control_c, 0, 64, 0
2, 22747, Control_c, 0, 64, 127
2, 22770, Note_on_c, 0, 43, 0
2, 22820, Note_on_c, 0, 55, 0
2, 22828, Note_on_c, 0, 43, 52
2, 22831, Note_on_c, 0, 57, 0
2, 22837, Note_on_c, 0, 60, 0
2, 22837, Note_on_c, 0, 64, 0
2, 22840, Note_on_c, 0, 52, 0
2, 22935, Note_on_c, 0, 57, 51
2, 22940, Note_on_c, 0, 54, 37
2, 22944, Note_on_c, 0, 63, 53
2, 22949, Note_on_c, 0, 66, 62
2, 22953, Note_on_c, 0, 69, 66
2, 22954, Control_c, 0, 64, 0
2, 23029, Note_on_c, 0, 43, 0
2, 23038, Control_c, 0, 64, 127
2, 23085, Note_on_c, 0, 43, 38
2, 23141, Note_on_c, 0, 57, 0
2, 23158, Note_on_c, 0, 63, 0
2, 23159, Note_on_c, 0, 54, 0
2, 23163, Note_on_c, 0, 66, 0
2, 23165, Note_on_c, 0, 69, 0
2, 23232, Note_on_c, 0, 69, 36
2, 23234, Note_on_c, 0, 63, 27
2, 23235, Note_on_c, 0, 66, 25
2, 23236, Note_on_c, 0, 54, 26
2, 23241, Note_on_c, 0, 57, 28
2, 23313, Note_on_c, 0, 43, 0
2, 23391, Note_on_c, 0, 57, 0
2, 23394, Note_on_c, 0, 43, 16
2, 23406, Note_on_c, 0, 69, 0
2, 23430, Note_on_c, 0, 54, 0
2, 23442, Note_on_c, 0, 66, 0
2, 23444, Note_on_c, 0, 63, 0
2, 23579, Note_on_c, 0, 72, 30
2, 23582, Note_on_c, 0, 67, 44
2, 23584, Note_on_c, 0, 64, 37
2, 23586, Note_on_c, 0, 62, 32
2, 23587, Control_c, 0, 64, 0
2, 23589, Note_on_c, 0, 52, 19
2, 23644, Control_c, 0, 64, 127
2, 23686, Note_on_c, 0, 72, 0
2, 23694, Note_on_c, 0, 43, 0
2, 23696, Note_on_c, 0, 62, 0
2, 23699, Note_on_c, 0, 64, 0
2, 23712, Note_on_c, 0, 67, 0
2, 23751, Note_on_c, 0, 71, 57
2, 23754, Note_on_c, 0, 43, 33
2, 23756, Note_on_c, 0, 62, 50
2, 23756, Note_on_c, 0, 67, 49
2, 23759, Note_on_c, 0, 64, 49
2, 23762, Control_c, 0, 64, 0
2, 23782, Control_c, 0, 64, 127
2, 23798, Note_on_c, 0, 67, 0
2, 23799, Note_on_c, 0, 71, 0
2, 23808, Note_on_c, 0, 64, 0
2, 23816, Note_on_c, 0, 62, 0
2, 23825, Note_on_c, 0, 69, 62
2, 23828, Note_on_c, 0, 52, 0
2, 23847, Note_on_c, 0, 69, 0
2, 23903, Note_on_c, 0, 67, 57
2, 23906, Note_on_c, 0, 59, 50
2, 23906, Note_on_c, 0, 64, 58
2, 23907, Note_on_c, 0, 62, 59
2, 23909, Note_on_c, 0, 55, 65
2, 23916, Control_c, 0, 64, 0
2, 23980, Control_c, 0, 64, 127
2, 23984, Note_on_c, 0, 43, 0
2, 24050, Note_on_c, 0, 67, 0
2, 24053, Note_on_c, 0, 64, 0
2, 24064, Note_on_c, 0, 65, 47
2, 24064, Note_on_c, 0, 43, 33
2, 24087, Note_on_c, 0, 62, 0
2, 24097, Note_on_c, 0, 65, 0
2, 24134, Note_on_c, 0, 59, 0
2, 24139, Note_on_c, 0, 55, 0
2, 24150, Note_on_c, 0, 64, 51
2, 24170, Note_on_c, 0, 43, 0
2, 24176, Note_on_c, 0, 64, 0
2, 24269, Note_on_c, 0, 62, 40
2, 24274, Note_on_c, 0, 24, 27
2, 24274, Note_on_c, 0, 52, 22
2, 24274, Note_on_c, 0, 58, 36
2, 24281, Control_c, 0, 64, 0
2, 24291, Note_on_c, 0, 36, 7
2, 24334, Control_c, 0, 64, 127
2, 24429, Note_on_c, 0, 24, 0
2, 24448, Note_on_c, 0, 36, 0
2, 24532, Note_on_c, 0, 52, 0
2, 24560, Note_on_c, 0, 58, 0
2, 24562, Note_on_c, 0, 62, 0
2, 24578, Note_on_c, 0, 60, 27
2, 24621, Note_on_c, 0, 60, 0
2, 24915, Note_on_c, 0, 68, 33
2, 24917, Note_on_c, 0, 72, 23
2, 24918, Note_on_c, 0, 76, 47
2, 24920, Note_on_c, 0, 64, 24
2, 24972, Note_on_c, 0, 68, 0
2, 24976, Note_on_c, 0, 72, 0
2, 24986, Note_on_c, 0, 64, 0
2, 24990, Note_on_c, 0, 76, 0
2, 25106, Note_on_c, 0, 72, 21
2, 25107, Note_on_c, 0, 68, 23
2, 25108, Note_on_c, 0, 64, 23
2, 25117, Note_on_c, 0, 58, 15
2, 25244, Note_on_c, 0, 64, 0
2, 25256, Note_on_c, 0, 72, 0
2, 25270, Note_on_c, 0, 68, 0
2, 25272, Note_on_c, 0, 58, 0
2, 25676, Note_on_c, 0, 64, 28
2, 25678, Note_on_c, 0, 68, 40
2, 25678, Note_on_c, 0, 74, 30
2, 25680, Note_on_c, 0, 56, 30
2, 25686, Note_on_c, 0, 60, 14
2, 25687, Control_c, 0, 64, 0
2, 25726, Control_c, 0, 64, 127
2, 25729, Note_on_c, 0, 68, 0
2, 25732, Note_on_c, 0, 64, 0
2, 25739, Note_on_c, 0, 60, 0
2, 25744, Note_on_c, 0, 56, 0
2, 25800, Note_on_c, 0, 74, 0
2, 25800, Note_on_c, 0, 62, 40
2, 25920, Note_on_c, 0, 62, 0
2, 25924, Note_on_c, 0, 53, 54
2, 25924, Note_on_c, 0, 62, 57
2, 25924, Note_on_c, 0, 60, 60
2, 25924, Note_on_c, 0, 57, 54
2, 25924, Note_on_c, 0, 50, 50
2, 25930, Control_c, 0, 64, 0
2, 25972, Control_c, 0, 64, 127
2, 25977, Note_on_c, 0, 57, 0
2, 25982, Note_on_c, 0, 53, 0
2, 25984, Note_on_c, 0, 60, 0
2, 25989, Note_on_c, 0, 62, 0
2, 26037, Note_on_c, 0, 41, 44
2, 26038, Note_on_c, 0, 57, 50
2, 26039, Note_on_c, 0, 65, 68
2, 26039, Note_on_c, 0, 62, 56
2, 26039, Note_on_c, 0, 60, 60
2, 26046, Control_c, 0, 64, 0
2, 26051, Note_on_c, 0, 50, 0
2, 26067, Note_on_c, 0, 41, 0
2, 26068, Control_c, 0, 64, 127
2, 26077, Note_on_c, 0, 57, 0
2, 26093, Note_on_c, 0, 60, 0
2, 26093, Note_on_c, 0, 62, 0
2, 26095, Note_on_c, 0, 65, 0
2, 26195, Note_on_c, 0, 71, 65
2, 26196, Note_on_c, 0, 66, 51
2, 26197, Note_on_c, 0, 47, 41
2, 26198, Note_on_c, 0, 60, 56
2, 26198, Note_on_c, 0, 64, 62
2, 26198, Note_on_c, 0, 57, 40
2, 26209, Control_c, 0, 64, 0
2, 26267, Control_c, 0, 64, 127
2, 26324, Note_on_c, 0, 71, 0
2, 26349, Note_on_c, 0, 71, 60
2, 26456, Note_on_c, 0, 64, 0
2, 26465, Note_on_c, 0, 60, 0
2, 26474, Note_on_c, 0, 66, 0
2, 26491, Note_on_c, 0, 71, 0
2, 26535, Note_on_c, 0, 71, 42
2, 26536, Note_on_c, 0, 57, 0
2, 26537, Note_on_c, 0, 66, 31
2, 26540, Note_on_c, 0, 47, 0
2, 26540, Note_on_c, 0, 63, 30
2, 26541, Note_on_c, 0, 54, 33
2, 26544, Note_on_c, 0, 60, 36
2, 26552, Control_c, 0, 64, 0
2, 26610, Control_c, 0, 64, 127
2, 26678, Note_on_c, 0, 71, 0
2, 26686, Note_on_c, 0, 66, 0
2, 26689, Note_on_c, 0, 63, 0
2, 26772, Note_on_c, 0, 72, 39
2, 26811, Note_on_c, 0, 60, 0
2, 26821, Note_on_c, 0, 54, 0
2, 26852, Note_on_c, 0, 72, 0
2, 26931, Note_on_c, 0, 76, 60
2, 26933, Note_on_c, 0, 34, 33
2, 26935, Control_c, 0, 64, 0
2, 26965, Control_c, 0, 64, 127
2, 26975, Note_on_c, 0, 34, 0
2, 27044, Note_on_c, 0, 56, 32
2, 27065, Note_on_c, 0, 76, 0
2, 27134, Note_on_c, 0, 62, 38
2, 27217, Note_on_c, 0, 88, 56
2, 27230, Note_on_c, 0, 79, 21
2, 27231, Note_on_c, 0, 67, 24
2, 27256, Note_on_c, 0, 62, 0
2, 27265, Note_on_c, 0, 88, 0
2, 27274, Note_on_c, 0, 79, 0
2, 27319, Note_on_c, 0, 84, 47
2, 27320, Note_on_c, 0, 67, 0
2, 27325, Note_on_c, 0, 62, 30
2, 27327, Note_on_c, 0, 76, 38
2, 27381, Note_on_c, 0, 84, 0
2, 27412, Note_on_c, 0, 76, 0
2, 27430, Note_on_c, 0, 65, 23
2, 27495, Note_on_c, 0, 65, 0
2, 27525, Note_on_c, 0, 62, 0
2, 27540, Note_on_c, 0, 67, 39
2, 27557, Note_on_c, 0, 62, 3
2, 27584, Note_on_c, 0, 56, 0
2, 27626, Note_on_c, 0, 67, 0
2, 27655, Note_on_c, 0, 56, 23
2, 27658, Note_on_c, 0, 62, 0
2, 27682, Note_on_c, 0, 56, 0
2, 27799, Note_on_c, 0, 59, 32
2, 27799, Note_on_c, 0, 62, 29
2, 27800, Note_on_c, 0, 64, 32
2, 27801, Note_on_c, 0, 55, 16
2, 27802, Note_on_c, 0, 45, 29
2, 27805, Note_on_c, 0, 52, 18
2, 27815, Control_c, 0, 64, 0
2, 27876, Control_c, 0, 64, 127
2, 27926, Note_on_c, 0, 55, 0
2, 27968, Note_on_c, 0, 55, 7
2, 27976, Note_on_c, 0, 59, 0
2, 27984, Note_on_c, 0, 62, 0
2, 28017, Note_on_c, 0, 55, 0
2, 28027, Note_on_c, 0, 64, 0
2, 28044, Note_on_c, 0, 62, 68
2, 28100, Note_on_c, 0, 62, 0
2, 28109, Note_on_c, 0, 64, 74
2, 28122, Note_on_c, 0, 45, 0
2, 28139, Note_on_c, 0, 52, 0
2, 28140, Note_on_c, 0, 64, 0
2, 28198, Note_on_c, 0, 63, 44
2, 28200, Note_on_c, 0, 61, 42
2, 28201, Note_on_c, 0, 55, 41
2, 28202, Note_on_c, 0, 58, 43
2, 28203, Note_on_c, 0, 45, 31
2, 28214, Control_c, 0, 64, 0
2, 28252, Control_c, 0, 64, 127
2, 28280, Note_on_c, 0, 55, 0
2, 28283, Note_on_c, 0, 63, 0
2, 28290, Note_on_c, 0, 61, 0
2, 28297, Note_on_c, 0, 45, 0
2, 28298, Note_on_c, 0, 61, 13
2, 28301, Note_on_c, 0, 55, 57
2, 28301, Note_on_c, 0, 64, 59
2, 28304, Note_on_c, 0, 49, 33
2, 28329, Note_on_c, 0, 64, 0
2, 28330, Note_on_c, 0, 55, 0
2, 28338, Note_on_c, 0, 61, 0
2, 28340, Note_on_c, 0, 58, 0
2, 28405, Note_on_c, 0, 67, 45
2, 28406, Note_on_c, 0, 64, 54
2, 28407, Note_on_c, 0, 58, 42
2, 28408, Note_on_c, 0, 52, 40
2, 28413, Control_c, 0, 64, 0
2, 28436, Note_on_c, 0, 67, 0
2, 28437, Note_on_c, 0, 58, 0
2, 28441, Control_c, 0, 64, 127
2, 28442, Note_on_c, 0, 64, 0
2, 28573, Note_on_c, 0, 70, 62
2, 28609, Note_on_c, 0, 70, 0
2, 28638, Note_on_c, 0, 49, 0
2, 28652, Note_on_c, 0, 73, 53
2, 28659, Note_on_c, 0, 52, 0
2, 28663, Note_on_c, 0, 74, 29
2, 28677, Note_on_c, 0, 74, 0
2, 28715, Note_on_c, 0, 73, 0
2, 28724, Note_on_c, 0, 76, 70
2, 28794, Note_on_c, 0, 76, 0
2, 28801, Note_on_c, 0, 74, 58
2, 28801, Note_on_c, 0, 50, 29
2, 28816, Control_c, 0, 64, 0
2, 28880, Control_c, 0, 64, 127
2, 28884, Note_on_c, 0, 57, 41
2, 28968, Note_on_c, 0, 65, 49
2, 28986, Note_on_c, 0, 74, 0
2, 29060, Note_on_c, 0, 57, 0
2, 29060, Note_on_c, 0, 74, 45
2, 29072, Note_on_c, 0, 50, 0
2, 29093, Note_on_c, 0, 74, 0
2, 29136, Note_on_c, 0, 65, 0
2, 29163, Note_on_c, 0, 76, 56
2, 29165, Note_on_c, 0, 44, 38
2, 29169, Control_c, 0, 64, 0
2, 29209, Control_c, 0, 64, 127
2, 29217, Note_on_c, 0, 44, 0
2, 29267, Note_on_c, 0, 54, 42
2, 29398, Note_on_c, 0, 64, 21
2, 29401, Note_on_c, 0, 68, 9
2, 29407, Note_on_c, 0, 60, 18
2, 29533, Note_on_c, 0, 76, 0
2, 29582, Note_on_c, 0, 76, 33
2, 29611, Note_on_c, 0, 64, 0
2, 29632, Note_on_c, 0, 60, 0
2, 29645, Note_on_c, 0, 54, 0
2, 29646, Note_on_c, 0, 68, 0
2, 29650, Note_on_c, 0, 76, 0
2, 29806, Note_on_c, 0, 77, 51
2, 29813, Note_on_c, 0, 67, 33
2, 29813, Note_on_c, 0, 69, 31
2, 29815, Note_on_c, 0, 72, 21
2, 29831, Control_c, 0, 64, 0
2, 29893, Control_c, 0, 64, 127
2, 29896, Note_on_c, 0, 77, 0
2, 29929, Note_on_c, 0, 77, 44
2, 29930, Note_on_c, 0, 55, 33
2, 29938, Note_on_c, 0, 67, 0
2, 29943, Note_on_c, 0, 55, 0
2, 29958, Note_on_c, 0, 72, 0
2, 29959, Note_on_c, 0, 77, 0
2, 29962, Note_on_c, 0, 69, 0
2, 30080, Note_on_c, 0, 43, 26
2, 30082, Note_on_c, 0, 53, 21
2, 30082, Note_on_c, 0, 60, 34
2, 30084, Note_on_c, 0, 57, 30
2, 30090, Note_on_c, 0, 50, 12
2, 30205, Note_on_c, 0, 60, 0
2, 30251, Note_on_c, 0, 60, 30
2, 30290, Note_on_c, 0, 43, 0
2, 30309, Note_on_c, 0, 50, 0
2, 30327, Note_on_c, 0, 53, 0
2, 30331, Note_on_c, 0, 60, 0
2, 30334, Note_on_c, 0, 57, 0
2, 30454, Note_on_c, 0, 56, 21
2, 30454, Note_on_c, 0, 59, 28
2, 30455, Note_on_c, 0, 53, 23
2, 30456, Note_on_c, 0, 43, 18
2, 30460, Note_on_c, 0, 50, 18
2, 30469, Control_c, 0, 64, 0
2, 30535, Control_c, 0, 64, 127
2, 30808, Note_on_c, 0, 53, 0
2, 30819, Note_on_c, 0, 59, 0
2, 30822, Note_on_c, 0, 56, 0
2, 30982, Note_on_c, 0, 50, 0
2, 30982, Note_on_c, 0, 43, 0
2, 30983, Note_on_c, 0, 71, 57
2, 31043, Note_on_c, 0, 71, 0
2, 31303, Note_on_c, 0, 71, 62
2, 31337, Control_c, 0, 64, 0
2, 31389, Note_on_c, 0, 71, 0
2, 31397, Note_on_c, 0, 72, 44
2, 31407, Note_on_c, 0, 67, 40
2, 31409, Note_on_c, 0, 64, 40
2, 31411, Note_on_c, 0, 62, 31
2, 31472, Note_on_c, 0, 67, 0
2, 31524, Note_on_c, 0, 55, 45
2, 31560, Control_c, 0, 64, 127
2, 31605, Note_on_c, 0, 64, 0
2, 31610, Note_on_c, 0, 62, 0
2, 31640, Note_on_c, 0, 72, 0
2, 31708, Control_c, 0, 64, 0
2, 31716, Note_on_c, 0, 67, 32
2, 31717, Note_on_c, 0, 64, 38
2, 31718, Note_on_c, 0, 76, 45
2, 31718, Note_on_c, 0, 62, 29
2, 31758, Control_c, 0, 64, 127
2, 31772, Note_on_c, 0, 67, 0
2, 31777, Note_on_c, 0, 55, 0
2, 31822, Note_on_c, 0, 55, 48
2, 31826, Note_on_c, 0, 76, 0
2, 31827, Note_on_c, 0, 62, 0
2, 31837, Note_on_c, 0, 64, 0
2, 31998, Note_on_c, 0, 69, 50
2, 32004, Note_on_c, 0, 75, 46
2, 32008, Note_on_c, 0, 63, 29
2, 32011, Note_on_c, 0, 78, 46
2, 32014, Control_c, 0, 64, 0
2, 32018, Note_on_c, 0, 81, 47
2, 32054, Note_on_c, 0, 55, 0
2, 32084, Control_c, 0, 64, 127
2, 32119, Note_on_c, 0, 55, 54
2, 32144, Note_on_c, 0, 69, 0
2, 32153, Note_on_c, 0, 75, 0
2, 32160, Note_on_c, 0, 78, 0
2, 32165, Note_on_c, 0, 63, 0
2, 32315, Note_on_c, 0, 78, 28
2, 32315, Note_on_c, 0, 75, 26
2, 32320, Note_on_c, 0, 69, 32
2, 32323, Note_on_c, 0, 63, 25
2, 32328, Note_on_c, 0, 55, 0
2, 32330, Control_c, 0, 64, 0
2, 32333, Control_c, 0, 64, 127
2, 32417, Note_on_c, 0, 69, 0
2, 32426, Note_on_c, 0, 63, 0
2, 32427, Note_on_c, 0, 55, 34
2, 32445, Note_on_c, 0, 75, 0
2, 32455, Note_on_c, 0, 81, 0
2, 32455, Note_on_c, 0, 78, 0
2, 32570, Note_on_c, 0, 84, 73
2, 32574, Note_on_c, 0, 76, 52
2, 32577, Note_on_c, 0, 64, 34
2, 32584, Control_c, 0, 64, 0
2, 32630, Control_c, 0, 64, 127
2, 32668, Note_on_c, 0, 84, 0
2, 32674, Note_on_c, 0, 55, 0
2, 32685, Note_on_c, 0, 76, 0
2, 32720, Note_on_c, 0, 83, 50
2, 32723, Note_on_c, 0, 74, 45
2, 32749, Note_on_c, 0, 83, 0
2, 32755, Note_on_c, 0, 74, 0
2, 32773, Control_c, 0, 64, 0
2, 32779, Note_on_c, 0, 81, 55
2, 32783, Note_on_c, 0, 72, 29
2, 32784, Note_on_c, 0, 55, 29
2, 32795, Note_on_c, 0, 64, 0
2, 32805, Note_on_c, 0, 72, 0
2, 32806, Note_on_c, 0, 81, 0
2, 32871, Note_on_c, 0, 71, 47
2, 32872, Note_on_c, 0, 79, 44
2, 32879, Note_on_c, 0, 64, 30
2, 32933, Note_on_c, 0, 79, 0
2, 32935, Control_c, 0, 64, 127
2, 32953, Note_on_c, 0, 71, 0
2, 32968, Note_on_c, 0, 55, 0
2, 33008, Note_on_c, 0, 77, 50
2, 33013, Note_on_c, 0, 69, 51
2, 33034, Note_on_c, 0, 69, 0
2, 33034, Note_on_c, 0, 77, 0
2, 33050, Control_c, 0, 64, 0
2, 33060, Note_on_c, 0, 64, 0
2, 33064, Note_on_c, 0, 55, 35
2, 33068, Note_on_c, 0, 76, 49
2, 33071, Note_on_c, 0, 67, 37
2, 33076, Note_on_c, 0, 55, 0
2, 33089, Note_on_c, 0, 67, 0
2, 33092, Note_on_c, 0, 76, 0
2, 33212, Note_on_c, 0, 74, 49
2, 33217, Note_on_c, 0, 68, 34
2, 33219, Note_on_c, 0, 64, 22
2, 33220, Note_on_c, 0, 58, 25
2, 33241, Note_on_c, 0, 64, 0
2, 33246, Note_on_c, 0, 68, 0
2, 33252, Note_on_c, 0, 58, 0
2, 33259, Note_on_c, 0, 74, 0
2, 33348, Note_on_c, 0, 48, 39
2, 33353, Note_on_c, 0, 62, 33
2, 33354, Note_on_c, 0, 72, 29
2, 33362, Note_on_c, 0, 67, 26
2, 33375, Note_on_c, 0, 48, 0
2, 33380, Note_on_c, 0, 67, 0
2, 33386, Note_on_c, 0, 62, 0
2, 33398, Note_on_c, 0, 72, 0
2, 33505, Note_on_c, 0, 76, 30
2, 33508, Note_on_c, 0, 68, 25
2, 33508, Note_on_c, 0, 64, 26
2, 33511, Note_on_c, 0, 72, 20
2, 33514, Note_on_c, 0, 58, 33
2, 33532, Note_on_c, 0, 68, 0
2, 33537, Note_on_c, 0, 64, 0
2, 33540, Note_on_c, 0, 58, 0
2, 33541, Note_on_c, 0, 72, 0
2, 33551, Note_on_c, 0, 76, 0
2, 33605, Note_on_c, 0, 76, 28
2, 33609, Note_on_c, 0, 64, 30
2, 33610, Note_on_c, 0, 68, 30
2, 33612, Note_on_c, 0, 72, 24
2, 33616, Note_on_c, 0, 58, 28
2, 33620, Control_c, 0, 64, 127
2, 33634, Note_on_c, 0, 58, 0
2, 33705, Note_on_c, 0, 76, 0
2, 33705, Note_on_c, 0, 72, 0
2, 33710, Note_on_c, 0, 64, 0
2, 33714, Note_on_c, 0, 68, 0
2, 33723, Note_on_c, 0, 30, 34
2, 33764, Note_on_c, 0, 30, 0
2, 33813, Control_c, 0, 64, 0
2, 33816, Note_on_c, 0, 29, 50
2, 33832, Note_on_c, 0, 29, 0
2, 33848, Control_c, 0, 64, 127
2, 33919, Note_on_c, 0, 53, 55
2, 33922, Note_on_c, 0, 48, 49
2, 33922, Note_on_c, 0, 60, 60
2, 33923, Note_on_c, 0, 57, 56
2, 33945, Control_c, 0, 64, 0
2, 34001, Control_c, 0, 64, 127
2, 34073, Note_on_c, 0, 53, 0
2, 34081, Note_on_c, 0, 57, 0
2, 34087, Note_on_c, 0, 60, 0
2, 34118, Control_c, 0, 64, 0
2, 34121, Note_on_c, 0, 50, 42
2, 34121, Note_on_c, 0, 53, 58
2, 34121, Note_on_c, 0, 62, 61
2, 34122, Note_on_c, 0, 57, 53
2, 34123, Note_on_c, 0, 60, 50
2, 34125, Note_on_c, 0, 48, 0
2, 34197, Control_c, 0, 64, 127
2, 34212, Note_on_c, 0, 53, 0
2, 34216, Note_on_c, 0, 50, 0
2, 34216, Note_on_c, 0, 57, 0
2, 34217, Note_on_c, 0, 60, 0
2, 34222, Note_on_c, 0, 49, 29
2, 34227, Note_on_c, 0, 62, 0
2, 34234, Note_on_c, 0, 48, 35
2, 34235, Note_on_c, 0, 49, 0
2, 34251, Note_on_c, 0, 48, 0
2, 34259, Control_c, 0, 64, 0
2, 34263, Note_on_c, 0, 62, 62
2, 34266, Note_on_c, 0, 53, 46
2, 34269, Note_on_c, 0, 50, 57
2, 34269, Note_on_c, 0, 57, 48
2, 34308, Note_on_c, 0, 57, 0
2, 34312, Note_on_c, 0, 53, 0
2, 34316, Note_on_c, 0, 62, 0
2, 34318, Control_c, 0, 64, 127
2, 34348, Note_on_c, 0, 51, 48
2, 34360, Note_on_c, 0, 50, 0
2, 34364, Note_on_c, 0, 52, 63
2, 34364, Note_on_c, 0, 65, 66
2, 34365, Note_on_c, 0, 51, 0
2, 34365, Control_c, 0, 64, 0
2, 34366, Note_on_c, 0, 56, 59
2, 34370, Note_on_c, 0, 62, 57
2, 34371, Note_on_c, 0, 59, 54
2, 34373, Note_on_c, 0, 53, 56
2, 34384, Note_on_c, 0, 52, 0
2, 34399, Note_on_c, 0, 59, 0
2, 34400, Note_on_c, 0, 56, 0
2, 34401, Note_on_c, 0, 62, 0
2, 34405, Note_on_c, 0, 65, 0
2, 34453, Note_on_c, 0, 53, 0
2, 34464, Note_on_c, 0, 71, 61
2, 34466, Note_on_c, 0, 63, 61
2, 34468, Note_on_c, 0, 66, 59
2, 34468, Note_on_c, 0, 60, 67
2, 34473, Note_on_c, 0, 70, 37
2, 34475, Note_on_c, 0, 54, 33
2, 34482, Note_on_c, 0, 70, 0
2, 34500, Note_on_c, 0, 60, 0
2, 34501, Note_on_c, 0, 63, 0
2, 34504, Note_on_c, 0, 66, 0
2, 34511, Note_on_c, 0, 71, 0
2, 34511, Note_on_c, 0, 54, 0
2, 34559, Note_on_c, 0, 71, 64
2, 34560, Note_on_c, 0, 59, 51
2, 34561, Note_on_c, 0, 66, 42
2, 34562, Note_on_c, 0, 60, 50
2, 34563, Note_on_c, 0, 63, 44
2, 34616, Control_c, 0, 64, 127
2, 34623, Note_on_c, 0, 59, 0
2, 34652, Note_on_c, 0, 57, 51
2, 34653, Control_c, 0, 64, 0
2, 34663, Control_c, 0, 64, 127
2, 34754, Note_on_c, 0, 71, 0
2, 34764, Note_on_c, 0, 63, 0
2, 34766, Note_on_c, 0, 66, 0
2, 34791, Note_on_c, 0, 60, 0
2, 34799, Note_on_c, 0, 57, 0
2, 34919, Note_on_c, 0, 72, 53
2, 34979, Control_c, 0, 64, 0
2, 34981, Note_on_c, 0, 43, 31
2, 34982, Note_on_c, 0, 72, 0
2, 34982, Note_on_c, 0, 64, 31
2, 34985, Note_on_c, 0, 52, 19
2, 35025, Control_c, 0, 64, 127
2, 35068, Note_on_c, 0, 64, 0
2, 35071, Note_on_c, 0, 43, 0
2, 35072, Note_on_c, 0, 71, 55
2, 35085, Note_on_c, 0, 52, 0
2, 35204, Note_on_c, 0, 71, 0
2, 35211, Note_on_c, 0, 67, 46
2, 35214, Note_on_c, 0, 64, 32
2, 35216, Note_on_c, 0, 62, 31
2, 35297, Note_on_c, 0, 67, 0
2, 35363, Note_on_c, 0, 76, 81
2, 35364, Note_on_c, 0, 55, 49
2, 35376, Note_on_c, 0, 64, 0
2, 35382, Note_on_c, 0, 62, 0
2, 35440, Note_on_c, 0, 76, 0
2, 35446, Note_on_c, 0, 69, 55
2, 35548, Note_on_c, 0, 65, 45
2, 35550, Note_on_c, 0, 81, 79
2, 35551, Note_on_c, 0, 60, 40
2, 35552, Note_on_c, 0, 57, 33
2, 35555, Control_c, 0, 64, 0
2, 35572, Note_on_c, 0, 69, 0
2, 35615, Control_c, 0, 64, 127
2, 35628, Note_on_c, 0, 55, 0
2, 35660, Note_on_c, 0, 72, 34
2, 35663, Note_on_c, 0, 81, 0
2, 35667, Note_on_c, 0, 55, 38
2, 35681, Note_on_c, 0, 57, 0
2, 35706, Note_on_c, 0, 60, 0
2, 35709, Note_on_c, 0, 65, 0
2, 35733, Note_on_c, 0, 72, 0
2, 35733, Note_on_c, 0, 55, 0
2, 35788, Note_on_c, 0, 84, 84
2, 35847, Note_on_c, 0, 84, 0
2, 35861, Note_on_c, 0, 59, 36
2, 35861, Note_on_c, 0, 53, 27
2, 35864, Control_c, 0, 64, 0
2, 35865, Note_on_c, 0, 83, 49
2, 35866, Note_on_c, 0, 64, 17
2, 35912, Control_c, 0, 64, 127
2, 35979, Note_on_c, 0, 59, 0
2, 35982, Note_on_c, 0, 53, 0
2, 36010, Note_on_c, 0, 64, 0
2, 36021, Note_on_c, 0, 81, 58
2, 36043, Note_on_c, 0, 83, 0
2, 36064, Note_on_c, 0, 81, 0
2, 36066, Note_on_c, 0, 79, 51
2, 36108, Note_on_c, 0, 79, 0
2, 36122, Note_on_c, 0, 77, 33
2, 36141, Control_c, 0, 64, 0
2, 36142, Note_on_c, 0, 67, 22
2, 36147, Note_on_c, 0, 62, 28
2, 36148, Note_on_c, 0, 64, 19
2, 36196, Note_on_c, 0, 67, 0
2, 36218, Note_on_c, 0, 76, 49
2, 36220, Note_on_c, 0, 77, 0
2, 36238, Control_c, 0, 64, 127
2, 36284, Control_c, 0, 64, 0
2, 36295, Note_on_c, 0, 76, 0
2, 36296, Note_on_c, 0, 55, 33
2, 36299, Note_on_c, 0, 74, 43
2, 36352, Note_on_c, 0, 64, 0
2, 36370, Note_on_c, 0, 74, 0
2, 36385, Note_on_c, 0, 64, 25
2, 36392, Note_on_c, 0, 67, 38
2, 36392, Note_on_c, 0, 72, 33
2, 36440, Note_on_c, 0, 72, 0
2, 36440, Note_on_c, 0, 67, 0
2, 36450, Control_c, 0, 64, 127
2, 36479, Note_on_c, 0, 72, 33
2, 36504, Note_on_c, 0, 55, 0
2, 36542, Note_on_c, 0, 72, 0
2, 36593, Note_on_c, 0, 55, 44
2, 36616, Note_on_c, 0, 62, 0
2, 36618, Note_on_c, 0, 64, 0
2, 36692, Note_on_c, 0, 76, 68
2, 36715, Note_on_c, 0, 76, 0
2, 36787, Note_on_c, 0, 81, 60
2, 36796, Note_on_c, 0, 63, 50
2, 36800, Note_on_c, 0, 75, 57
2, 36803, Control_c, 0, 64, 0
2, 36804, Note_on_c, 0, 69, 61
2, 36859, Note_on_c, 0, 55, 0
2, 36888, Control_c, 0, 64, 127
2, 36897, Note_on_c, 0, 69, 0
2, 36900, Note_on_c, 0, 55, 44
2, 36909, Note_on_c, 0, 75, 0
2, 36917, Note_on_c, 0, 81, 0
2, 36993, Note_on_c, 0, 86, 79
2, 37000, Note_on_c, 0, 78, 51
2, 37001, Note_on_c, 0, 75, 58
2, 37004, Control_c, 0, 64, 0
2, 37009, Note_on_c, 0, 67, 34
2, 37033, Control_c, 0, 64, 127
2, 37059, Note_on_c, 0, 55, 0
2, 37115, Note_on_c, 0, 86, 0
2, 37128, Note_on_c, 0, 84, 66
2, 37129, Note_on_c, 0, 67, 0
2, 37141, Note_on_c, 0, 55, 37
2, 37206, Note_on_c, 0, 84, 0
2, 37215, Note_on_c, 0, 78, 0
2, 37233, Note_on_c, 0, 75, 0
2, 37239, Note_on_c, 0, 83, 51
2, 37275, Note_on_c, 0, 83, 0
2, 37277, Note_on_c, 0, 84, 70
2, 37279, Note_on_c, 0, 55, 0
2, 37308, Note_on_c, 0, 84, 0
2, 37314, Note_on_c, 0, 63, 0
2, 37323, Note_on_c, 0, 83, 64
2, 37327, Note_on_c, 0, 55, 37
2, 37329, Note_on_c, 0, 64, 37
2, 37333, Control_c, 0, 64, 0
2, 37415, Note_on_c, 0, 79, 52
2, 37421, Control_c, 0, 64, 127
2, 37443, Note_on_c, 0, 83, 0
2, 37480, Note_on_c, 0, 64, 0
2, 37521, Note_on_c, 0, 76, 48
2, 37526, Note_on_c, 0, 64, 30
2, 37602, Note_on_c, 0, 76, 0
2, 37607, Note_on_c, 0, 71, 41
2, 37618, Note_on_c, 0, 79, 0
2, 37624, Note_on_c, 0, 55, 0
2, 37699, Note_on_c, 0, 55, 51
2, 37720, Note_on_c, 0, 55, 0
2, 37724, Note_on_c, 0, 64, 0
2, 37735, Note_on_c, 0, 71, 0
2, 37839, Note_on_c, 0, 66, 46
2, 37840, Note_on_c, 0, 68, 48
2, 37841, Note_on_c, 0, 70, 48
2, 37855, Control_c, 0, 64, 0
2, 37890, Note_on_c, 0, 70, 0
2, 37893, Note_on_c, 0, 68, 0
2, 37896, Note_on_c, 0, 66, 0
2, 37898, Note_on_c, 0, 72, 38
2, 37907, Note_on_c, 0, 76, 48
2, 37925, Note_on_c, 0, 72, 0
2, 37933, Note_on_c, 0, 76, 0
2, 37987, Note_on_c, 0, 84, 58
2, 37998, Note_on_c, 0, 84, 0
2, 38111, Note_on_c, 0, 72, 44
2, 38112, Note_on_c, 0, 66, 43
2, 38114, Note_on_c, 0, 64, 46
2, 38117, Note_on_c, 0, 68, 33
2, 38120, Note_on_c, 0, 60, 31
2, 38125, Note_on_c, 0, 64, 0
2, 38129, Note_on_c, 0, 68, 0
2, 38129, Note_on_c, 0, 60, 0
2, 38132, Note_on_c, 0, 72, 0
2, 38133, Note_on_c, 0, 66, 0
2, 38243, Note_on_c, 0, 61, 49
2, 38245, Note_on_c, 0, 48, 38
2, 38246, Note_on_c, 0, 58, 33
2, 38249, Note_on_c, 0, 64, 43
2, 38259, Note_on_c, 0, 64, 0
2, 38263, Note_on_c, 0, 48, 0
2, 38265, Note_on_c, 0, 61, 0
2, 38266, Note_on_c, 0, 58, 0
2, 38378, Note_on_c, 0, 56, 52
2, 38379, Note_on_c, 0, 63, 36
2, 38382, Note_on_c, 0, 52, 30
2, 38384, Note_on_c, 0, 42, 27
2, 38408, Control_c, 0, 64, 127
2, 38417, Note_on_c, 0, 56, 0
2, 38418, Note_on_c, 0, 52, 0
2, 38420, Note_on_c, 0, 63, 0
2, 38439, Note_on_c, 0, 42, 0
2, 38464, Control_c, 0, 64, 0
2, 38470, Note_on_c, 0, 60, 50
2, 38471, Note_on_c, 0, 48, 30
2, 38475, Note_on_c, 0, 41, 36
2, 38480, Note_on_c, 0, 52, 13
2, 38519, Note_on_c, 0, 52, 0
2, 38521, Control_c, 0, 64, 127
2, 38550, Note_on_c, 0, 60, 0
2, 38565, Note_on_c, 0, 62, 61
2, 38566, Note_on_c, 0, 57, 51
2, 38566, Note_on_c, 0, 53, 48
2, 38567, Note_on_c, 0, 50, 47
2, 38568, Control_c, 0, 64, 0
2, 38571, Note_on_c, 0, 48, 0
2, 38591, Note_on_c, 0, 41, 0
2, 38597, Control_c, 0, 64, 127
2, 38618, Control_c, 0, 64, 0
2, 38664, Control_c, 0, 64, 127
2, 38680, Control_c, 0, 64, 0
2, 38689, Note_on_c, 0, 50, 0
2, 38691, Note_on_c, 0, 49, 46
2, 38700, Note_on_c, 0, 53, 0
2, 38703, Note_on_c, 0, 57, 0
2, 38707, Note_on_c, 0, 62, 0
2, 38728, Note_on_c, 0, 49, 0
2, 38734, Control_c, 0, 64, 127
2, 38735, Note_on_c, 0, 50, 53
2, 38759, Note_on_c, 0, 50, 0
2, 38773, Control_c, 0, 64, 0
2, 38784, Note_on_c, 0, 57, 57
2, 38785, Note_on_c, 0, 60, 62
2, 38785, Note_on_c, 0, 65, 56
2, 38786, Note_on_c, 0, 62, 66
2, 38788, Note_on_c, 0, 53, 67
2, 38877, Note_on_c, 0, 53, 0
2, 38879, Note_on_c, 0, 52, 42
2, 38885, Note_on_c, 0, 65, 0
2, 38885, Note_on_c, 0, 57, 0
2, 38887, Note_on_c, 0, 60, 0
2, 38888, Note_on_c, 0, 62, 0
2, 38921, Note_on_c, 0, 52, 0
2, 38931, Note_on_c, 0, 53, 46
2, 38933, Note_on_c, 0, 65, 44
2, 38934, Note_on_c, 0, 57, 45
2, 38936, Note_on_c, 0, 60, 45
2, 38941, Note_on_c, 0, 62, 32
2, 38951, Note_on_c, 0, 57, 0
2, 38953, Note_on_c, 0, 62, 0
2, 38957, Note_on_c, 0, 60, 0
2, 38959, Note_on_c, 0, 65, 0
2, 38980, Note_on_c, 0, 53, 0
2, 38992, Control_c, 0, 64, 127
2, 39029, Control_c, 0, 64, 0
2, 39029, Note_on_c, 0, 63, 38
2, 39030, Note_on_c, 0, 71, 51
2, 39030, Note_on_c, 0, 59, 55
2, 39032, Note_on_c, 0, 66, 36
2, 39037, Note_on_c, 0, 60, 26
2, 39082, Control_c, 0, 64, 127
2, 39150, Note_on_c, 0, 71, 0
2, 39169, Note_on_c, 0, 71, 60
2, 39210, Note_on_c, 0, 59, 0
2, 39263, Note_on_c, 0, 60, 0
2, 39263, Note_on_c, 0, 63, 0
2, 39282, Note_on_c, 0, 71, 0
2, 39285, Note_on_c, 0, 66, 0
2, 39306, Note_on_c, 0, 71, 48
2, 39308, Note_on_c, 0, 66, 30
2, 39309, Note_on_c, 0, 60, 38
2, 39310, Note_on_c, 0, 42, 37
2, 39313, Note_on_c, 0, 64, 53
2, 39313, Note_on_c, 0, 52, 35
2, 39315, Control_c, 0, 64, 0
2, 39338, Note_on_c, 0, 42, 0
2, 39346, Note_on_c, 0, 52, 0
2, 39349, Control_c, 0, 64, 127
2, 39375, Note_on_c, 0, 64, 0
2, 39382, Note_on_c, 0, 60, 0
2, 39398, Note_on_c, 0, 66, 0
2, 39438, Note_on_c, 0, 71, 0
2, 39451, Note_on_c, 0, 66, 29
2, 39455, Note_on_c, 0, 63, 30
2, 39455, Note_on_c, 0, 59, 33
2, 39456, Note_on_c, 0, 47, 32
2, 39457, Note_on_c, 0, 57, 33
2, 39460, Control_c, 0, 64, 0
2, 39488, Note_on_c, 0, 59, 0
2, 39494, Control_c, 0, 64, 127
2, 39500, Note_on_c, 0, 66, 0
2, 39501, Note_on_c, 0, 63, 0
2, 39514, Note_on_c, 0, 47, 0
2, 39530, Note_on_c, 0, 57, 0
2, 39556, Note_on_c, 0, 72, 59
2, 39587, Note_on_c, 0, 72, 0
2, 39731, Note_on_c, 0, 67, 44
2, 39732, Note_on_c, 0, 64, 37
2, 39733, Note_on_c, 0, 59, 34
2, 39734, Note_on_c, 0, 62, 38
2, 39735, Note_on_c, 0, 52, 26
2, 39735, Note_on_c, 0, 43, 30
2, 39739, Control_c, 0, 64, 0
2, 39809, Note_on_c, 0, 67, 0
2, 39810, Note_on_c, 0, 52, 0
2, 39812, Note_on_c, 0, 59, 0
2, 39821, Note_on_c, 0, 64, 0
2, 39821, Note_on_c, 0, 62, 0
2, 39837, Note_on_c, 0, 52, 30
2, 39873, Control_c, 0, 64, 127
2, 39884, Note_on_c, 0, 52, 0
2, 39917, Control_c, 0, 64, 0
2, 39925, Note_on_c, 0, 67, 43
2, 39928, Note_on_c, 0, 59, 32
2, 39930, Note_on_c, 0, 52, 31
2, 39931, Note_on_c, 0, 64, 36
2, 39932, Note_on_c, 0, 62, 32
2, 39958, Note_on_c, 0, 43, 0
2, 39974, Control_c, 0, 64, 127
2, 40008, Note_on_c, 0, 52, 0
2, 40064, Control_c, 0, 64, 0
2, 40128, Note_on_c, 0, 42, 60
2, 40155, Note_on_c, 0, 42, 0
2, 40175, Note_on_c, 0, 43, 54
2, 40178, Note_on_c, 0, 64, 0
2, 40178, Note_on_c, 0, 62, 0
2, 40191, Note_on_c, 0, 67, 0
2, 40192, Note_on_c, 0, 59, 0
2, 40212, Note_on_c, 0, 43, 0
2, 40229, Note_on_c, 0, 44, 55
2, 40240, Control_c, 0, 64, 127
2, 40316, Note_on_c, 0, 44, 0
2, 40319, Note_on_c, 0, 62, 53
2, 40321, Note_on_c, 0, 56, 30
2, 40321, Note_on_c, 0, 53, 49
2, 40322, Note_on_c, 0, 59, 47
2, 40333, Note_on_c, 0, 56, 0
2, 40341, Note_on_c, 0, 59, 0
2, 40348, Note_on_c, 0, 62, 0
2, 40447, Note_on_c, 0, 53, 0
2, 40459, Note_on_c, 0, 76, 79
2, 40460, Note_on_c, 0, 71, 72
2, 40460, Note_on_c, 0, 68, 68
2, 40461, Note_on_c, 0, 65, 83
2, 40463, Note_on_c, 0, 56, 56
2, 40464, Control_c, 0, 64, 0
2, 40496, Control_c, 0, 64, 127
2, 40567, Note_on_c, 0, 76, 0
2, 40586, Note_on_c, 0, 65, 0
2, 40586, Note_on_c, 0, 71, 0
2, 40600, Note_on_c, 0, 74, 64
2, 40603, Note_on_c, 0, 65, 62
2, 40607, Note_on_c, 0, 62, 54
2, 40609, Control_c, 0, 64, 0
2, 40612, Note_on_c, 0, 59, 31
2, 40641, Control_c, 0, 64, 127
2, 40686, Note_on_c, 0, 62, 0
2, 40695, Note_on_c, 0, 59, 0
2, 40696, Note_on_c, 0, 65, 0
2, 40699, Note_on_c, 0, 74, 0
2, 40700, Note_on_c, 0, 68, 0
2, 40703, Note_on_c, 0, 56, 0
2, 40723, Note_on_c, 0, 72, 54
2, 40757, Note_on_c, 0, 72, 0
2, 40762, Note_on_c, 0, 71, 65
2, 40789, Control_c, 0, 64, 0
2, 40798, Note_on_c, 0, 71, 0
2, 40803, Note_on_c, 0, 45, 40
2, 40805, Note_on_c, 0, 52, 29
2, 40810, Note_on_c, 0, 72, 54
2, 40816, Note_on_c, 0, 45, 0
2, 40819, Control_c, 0, 64, 127
2, 40829, Note_on_c, 0, 52, 0
2, 40908, Note_on_c, 0, 64, 34
2, 40909, Note_on_c, 0, 59, 34
2, 40910, Note_on_c, 0, 60, 46
2, 40951, Note_on_c, 0, 64, 0
2, 40953, Note_on_c, 0, 60, 0
2, 40957, Note_on_c, 0, 59, 0
2, 41015, Note_on_c, 0, 64, 33
2, 41015, Note_on_c, 0, 60, 44
2, 41017, Note_on_c, 0, 59, 36
2, 41051, Note_on_c, 0, 59, 0
2, 41055, Note_on_c, 0, 64, 0
2, 41058, Note_on_c, 0, 60, 0
2, 41100, Note_on_c, 0, 72, 0
2, 41104, Note_on_c, 0, 71, 71
2, 41109, Note_on_c, 0, 60, 51
2, 41110, Note_on_c, 0, 64, 35
2, 41112, Note_on_c, 0, 59, 42
2, 41140, Note_on_c, 0, 59, 0
2, 41142, Note_on_c, 0, 64, 0
2, 41145, Note_on_c, 0, 60, 0
2, 41200, Control_c, 0, 64, 0
2, 41204, Note_on_c, 0, 60, 54
2, 41207, Note_on_c, 0, 64, 36
2, 41207, Note_on_c, 0, 59, 46
2, 41218, Control_c, 0, 64, 127
2, 41235, Note_on_c, 0, 59, 0
2, 41236, Note_on_c, 0, 64, 0
2, 41236, Note_on_c, 0, 60, 0
2, 41310, Note_on_c, 0, 64, 44
2, 41312, Note_on_c, 0, 60, 44
2, 41321, Note_on_c, 0, 64, 0
2, 41328, Note_on_c, 0, 60, 0
2, 41351, Note_on_c, 0, 69, 72
2, 41376, Note_on_c, 0, 71, 0
2, 41391, Note_on_c, 0, 69, 0
2, 41398, Note_on_c, 0, 67, 68
2, 41407, Control_c, 0, 64, 0
2, 41408, Note_on_c, 0, 60, 47
2, 41410, Note_on_c, 0, 50, 52
2, 41417, Note_on_c, 0, 60, 0
2, 41462, Control_c, 0, 64, 127
2, 41498, Note_on_c, 0, 60, 44
2, 41513, Note_on_c, 0, 50, 0
2, 41516, Note_on_c, 0, 60, 0
2, 41632, Note_on_c, 0, 53, 22
2, 41648, Note_on_c, 0, 53, 0
2, 41765, Note_on_c, 0, 57, 35
2, 41766, Note_on_c, 0, 53, 46
2, 41769, Note_on_c, 0, 52, 30
2, 41782, Note_on_c, 0, 57, 0
2, 41789, Note_on_c, 0, 53, 0
2, 41793, Note_on_c, 0, 52, 0
2, 41826, Note_on_c, 0, 65, 38
2, 41831, Note_on_c, 0, 67, 0
2, 41841, Note_on_c, 0, 65, 0
2, 41873, Note_on_c, 0, 67, 53
2, 41893, Note_on_c, 0, 67, 0
2, 41919, Note_on_c, 0, 69, 87
2, 41949, Note_on_c, 0, 69, 0
2, 41970, Control_c, 0, 64, 0
2, 41973, Note_on_c, 0, 71, 84
2, 42065, Note_on_c, 0, 47, 24
2, 42109, Note_on_c, 0, 66, 32
2, 42110, Note_on_c, 0, 60, 40
2, 42116, Note_on_c, 0, 57, 30
2, 42120, Note_on_c, 0, 64, 26
2, 42127, Note_on_c, 0, 64, 0
2, 42129, Note_on_c, 0, 60, 0
2, 42133, Note_on_c, 0, 57, 0
2, 42137, Note_on_c, 0, 66, 0
2, 42202, Note_on_c, 0, 66, 17
2, 42203, Note_on_c, 0, 60, 22
2, 42203, Note_on_c, 0, 64, 32
2, 42205, Note_on_c, 0, 57, 32
2, 42216, Note_on_c, 0, 64, 0
2, 42219, Note_on_c, 0, 60, 0
2, 42222, Note_on_c, 0, 66, 0
2, 42222, Note_on_c, 0, 57, 0
2, 42265, Note_on_c, 0, 60, 24
2, 42265, Note_on_c, 0, 64, 34
2, 42266, Note_on_c, 0, 57, 28
2, 42268, Note_on_c, 0, 66, 14
2, 42286, Note_on_c, 0, 57, 0
2, 42287, Note_on_c, 0, 64, 0
2, 42292, Note_on_c, 0, 60, 0
2, 42294, Note_on_c, 0, 66, 0
2, 42355, Note_on_c, 0, 66, 28
2, 42358, Note_on_c, 0, 60, 32
2, 42358, Note_on_c, 0, 64, 41
2, 42363, Note_on_c, 0, 57, 37
2, 42406, Control_c, 0, 64, 127
2, 42410, Note_on_c, 0, 47, 0
2, 42540, Note_on_c, 0, 60, 0
2, 42547, Control_c, 0, 64, 0
2, 42548, Note_on_c, 0, 64, 0
2, 42558, Note_on_c, 0, 66, 0
2, 42558, Note_on_c, 0, 52, 36
2, 42561, Note_on_c, 0, 57, 0
2, 42564, Note_on_c, 0, 71, 0
2, 42642, Note_on_c, 0, 72, 35
2, 42644, Note_on_c, 0, 64, 38
2, 42647, Note_on_c, 0, 67, 37
2, 42648, Note_on_c, 0, 62, 25
2, 42650, Note_on_c, 0, 56, 30
2, 42657, Note_on_c, 0, 67, 0
2, 42660, Note_on_c, 0, 64, 0
2, 42664, Note_on_c, 0, 62, 0
2, 42665, Note_on_c, 0, 72, 0
2, 42673, Note_on_c, 0, 56, 0
2, 42737, Note_on_c, 0, 72, 40
2, 42739, Note_on_c, 0, 62, 39
2, 42740, Note_on_c, 0, 64, 43
2, 42741, Note_on_c, 0, 67, 51
2, 42742, Note_on_c, 0, 56, 31
2, 42753, Note_on_c, 0, 67, 0
2, 42755, Note_on_c, 0, 64, 0
2, 42759, Note_on_c, 0, 62, 0
2, 42767, Note_on_c, 0, 56, 0
2, 42768, Note_on_c, 0, 72, 0
2, 42836, Note_on_c, 0, 72, 34
2, 42837, Note_on_c, 0, 67, 55
2, 42840, Note_on_c, 0, 64, 41
2, 42841, Note_on_c, 0, 56, 33
2, 42850, Note_on_c, 0, 64, 0
2, 42857, Note_on_c, 0, 67, 0
2, 42862, Note_on_c, 0, 72, 0
2, 42863, Note_on_c, 0, 56, 0
2, 42872, Control_c, 0, 64, 127
2, 42938, Note_on_c, 0, 76, 74
2, 42939, Note_on_c, 0, 67, 71
2, 42939, Note_on_c, 0, 72, 51
2, 42940, Note_on_c, 0, 56, 44
2, 42943, Control_c, 0, 64, 0
2, 42944, Note_on_c, 0, 62, 50
2, 42983, Note_on_c, 0, 62, 0
2, 42983, Control_c, 0, 64, 127
2, 42999, Note_on_c, 0, 56, 0
2, 43005, Note_on_c, 0, 52, 0
2, 43092, Note_on_c, 0, 52, 30
2, 43136, Note_on_c, 0, 67, 0
2, 43140, Note_on_c, 0, 72, 0
2, 43144, Control_c, 0, 64, 0
2, 43147, Note_on_c, 0, 45, 57
2, 43150, Note_on_c, 0, 52, 0
2, 43150, Note_on_c, 0, 71, 54
2, 43164, Note_on_c, 0, 45, 0
2, 43199, Control_c, 0, 64, 127
2, 43247, Note_on_c, 0, 64, 38
2, 43248, Note_on_c, 0, 59, 35
2, 43249, Note_on_c, 0, 60, 44
2, 43283, Note_on_c, 0, 60, 0
2, 43286, Note_on_c, 0, 64, 0
2, 43319, Note_on_c, 0, 59, 0
2, 43339, Note_on_c, 0, 71, 0
2, 43348, Note_on_c, 0, 76, 0
2, 43392, Note_on_c, 0, 64, 34
2, 43393, Note_on_c, 0, 60, 44
2, 43393, Note_on_c, 0, 59, 36
2, 43449, Note_on_c, 0, 84, 92
2, 43450, Note_on_c, 0, 76, 92
2, 43456, Note_on_c, 0, 64, 0
2, 43474, Note_on_c, 0, 60, 0
2, 43485, Note_on_c, 0, 59, 0
2, 43501, Note_on_c, 0, 84, 0
2, 43508, Note_on_c, 0, 76, 0
2, 43532, Note_on_c, 0, 83, 68
2, 43534, Note_on_c, 0, 74, 71
2, 43537, Note_on_c, 0, 59, 33
2, 43539, Note_on_c, 0, 60, 43
2, 43540, Note_on_c, 0, 64, 36
2, 43564, Note_on_c, 0, 64, 0
2, 43565, Note_on_c, 0, 74, 0
2, 43567, Note_on_c, 0, 83, 0
2, 43573, Note_on_c, 0, 59, 0
2, 43573, Note_on_c, 0, 60, 0
2, 43591, Note_on_c, 0, 81, 71
2, 43595, Note_on_c, 0, 72, 51
2, 43628, Note_on_c, 0, 81, 0
2, 43632, Note_on_c, 0, 72, 0
2, 43676, Note_on_c, 0, 79, 56
2, 43678, Note_on_c, 0, 71, 52
2, 43680, Note_on_c, 0, 60, 36
2, 43683, Note_on_c, 0, 50, 33
2, 43686, Control_c, 0, 64, 0
2, 43688, Note_on_c, 0, 57, 35
2, 43723, Control_c, 0, 64, 127
2, 43738, Note_on_c, 0, 60, 0
2, 43738, Note_on_c, 0, 79, 0
2, 43749, Note_on_c, 0, 71, 0
2, 43761, Note_on_c, 0, 57, 0
2, 43810, Note_on_c, 0, 77, 44
2, 43814, Note_on_c, 0, 69, 47
2, 43818, Note_on_c, 0, 60, 31
2, 43822, Note_on_c, 0, 57, 26
2, 43823, Control_c, 0, 64, 0
2, 43838, Control_c, 0, 64, 127
2, 43853, Note_on_c, 0, 69, 0
2, 43857, Note_on_c, 0, 77, 0
2, 43898, Note_on_c, 0, 50, 0
2, 43944, Note_on_c, 0, 50, 35
2, 43945, Note_on_c, 0, 79, 64
2, 43946, Note_on_c, 0, 71, 61
2, 43949, Control_c, 0, 64, 0
2, 43972, Control_c, 0, 64, 127
2, 43984, Note_on_c, 0, 79, 0
2, 43987, Note_on_c, 0, 60, 0
2, 43994, Note_on_c, 0, 57, 0
2, 43994, Note_on_c, 0, 50, 0
2, 44015, Note_on_c, 0, 71, 0
2, 44075, Note_on_c, 0, 81, 73
2, 44077, Note_on_c, 0, 50, 53
2, 44078, Note_on_c, 0, 72, 60
2, 44109, Note_on_c, 0, 50, 0
2, 44111, Note_on_c, 0, 72, 0
2, 44122, Note_on_c, 0, 81, 0
2, 44203, Control_c, 0, 64, 0
2, 44204, Note_on_c, 0, 86, 84
2, 44205, Note_on_c, 0, 32, 67
2, 44205, Note_on_c, 0, 44, 61
2, 44207, Note_on_c, 0, 77, 80
2, 44231, Note_on_c, 0, 32, 0
2, 44235, Control_c, 0, 64, 127
2, 44242, Note_on_c, 0, 44, 0
2, 44295, Note_on_c, 0, 77, 0
2, 44308, Note_on_c, 0, 86, 0
2, 44338, Note_on_c, 0, 54, 67
2, 44446, Note_on_c, 0, 60, 78
2, 44551, Note_on_c, 0, 65, 78
2, 44630, Note_on_c, 0, 54, 0
2, 44664, Note_on_c, 0, 65, 0
2, 44671, Note_on_c, 0, 60, 0
2, 44848, Control_c, 0, 64, 0
2, 44851, Note_on_c, 0, 53, 24
2, 44852, Note_on_c, 0, 43, 30
2, 44853, Note_on_c, 0, 60, 26
2, 44853, Note_on_c, 0, 57, 32
2, 44853, Note_on_c, 0, 50, 24
2, 44882, Note_on_c, 0, 50, 0
2, 44882, Note_on_c, 0, 57, 0
2, 44883, Note_on_c, 0, 53, 0
2, 44886, Note_on_c, 0, 60, 0
2, 44886, Note_on_c, 0, 43, 0
2, 44962, Note_on_c, 0, 60, 29
2, 44963, Note_on_c, 0, 50, 26
2, 44963, Note_on_c, 0, 53, 22
2, 44964, Note_on_c, 0, 57, 31
2, 44965, Note_on_c, 0, 43, 24
2, 44998, Note_on_c, 0, 50, 0
2, 45002, Note_on_c, 0, 43, 0
2, 45003, Note_on_c, 0, 53, 0
2, 45008, Note_on_c, 0, 57, 0
2, 45009, Note_on_c, 0, 60, 0
2, 45161, Note_on_c, 0, 43, 28
2, 45163, Control_c, 0, 64, 127
2, 45163, Note_on_c, 0, 53, 27
2, 45163, Note_on_c, 0, 50, 27
2, 45165, Note_on_c, 0, 56, 28
2, 45169, Note_on_c, 0, 60, 35
2, 45215, Note_on_c, 0, 50, 0
2, 45215, Note_on_c, 0, 43, 0
2, 45216, Note_on_c, 0, 60, 0
2, 45219, Note_on_c, 0, 53, 0
2, 45221, Note_on_c, 0, 56, 0
2, 45267, Note_on_c, 0, 56, 25
2, 45267, Note_on_c, 0, 43, 24
2, 45267, Note_on_c, 0, 53, 24
2, 45269, Note_on_c, 0, 50, 28
2, 45271, Note_on_c, 0, 60, 39
2, 45276, Control_c, 0, 64, 0
2, 45303, Note_on_c, 0, 53, 0
2, 45304, Note_on_c, 0, 50, 0
2, 45306, Note_on_c, 0, 60, 0
2, 45307, Note_on_c, 0, 43, 0
2, 45309, Note_on_c, 0, 56, 0
2, 45358, Control_c, 0, 64, 127
2, 45458, Control_c, 0, 64, 0
2, 45474, Note_on_c, 0, 43, 27
2, 45474, Note_on_c, 0, 55, 32
2, 45476, Note_on_c, 0, 57, 35
2, 45477, Note_on_c, 0, 60, 35
2, 45479, Note_on_c, 0, 52, 24
2, 45516, Control_c, 0, 64, 127
2, 45540, Note_on_c, 0, 55, 0
2, 45541, Note_on_c, 0, 57, 0
2, 45543, Note_on_c, 0, 52, 0
2, 45546, Note_on_c, 0, 60, 0
2, 45564, Control_c, 0, 64, 0
2, 45577, Note_on_c, 0, 55, 39
2, 45577, Note_on_c, 0, 57, 48
2, 45579, Note_on_c, 0, 60, 37
2, 45579, Note_on_c, 0, 52, 32
2, 45588, Note_on_c, 0, 57, 0
2, 45590, Note_on_c, 0, 55, 0
2, 45593, Note_on_c, 0, 60, 0
2, 45595, Note_on_c, 0, 52, 0
2, 45606, Note_on_c, 0, 43, 0
2, 45670, Control_c, 0, 64, 127
2, 45755, Control_c, 0, 64, 0
2, 45770, Note_on_c, 0, 60, 33
2, 45772, Note_on_c, 0, 43, 28
2, 45774, Control_c, 0, 64, 127
2, 45774, Note_on_c, 0, 52, 26
2, 45774, Note_on_c, 0, 55, 26
2, 45777, Note_on_c, 0, 57, 33
2, 45823, Note_on_c, 0, 57, 0
2, 45825, Note_on_c, 0, 52, 0
2, 45826, Note_on_c, 0, 60, 0
2, 45827, Note_on_c, 0, 55, 0
2, 45855, Note_on_c, 0, 43, 0
2, 45872, Note_on_c, 0, 43, 18
2, 45874, Note_on_c, 0, 64, 46
2, 45877, Note_on_c, 0, 55, 31
2, 45877, Note_on_c, 0, 60, 40
2, 45877, Note_on_c, 0, 57, 44
2, 45878, Note_on_c, 0, 52, 29
2, 45894, Note_on_c, 0, 55, 0
2, 45902, Note_on_c, 0, 57, 0
2, 45906, Note_on_c, 0, 60, 0
2, 45913, Note_on_c, 0, 52, 0
2, 45915, Note_on_c, 0, 64, 0
2, 46018, Note_on_c, 0, 54, 37
2, 46021, Note_on_c, 0, 57, 41
2, 46022, Note_on_c, 0, 66, 38
2, 46023, Note_on_c, 0, 69, 37
2, 46024, Note_on_c, 0, 63, 33
2, 46032, Control_c, 0, 64, 0
2, 46094, Note_on_c, 0, 43, 0
2, 46099, Control_c, 0, 64, 127
2, 46126, Note_on_c, 0, 54, 0
2, 46158, Note_on_c, 0, 43, 46
2, 46217, Control_c, 0, 64, 0
2, 46232, Note_on_c, 0, 55, 44
2, 46239, Note_on_c, 0, 57, 0
2, 46251, Control_c, 0, 64, 127
2, 46290, Note_on_c, 0, 55, 0
2, 46310, Note_on_c, 0, 43, 0
2, 46326, Note_on_c, 0, 57, 66
2, 46391, Note_on_c, 0, 57, 0
2, 46472, Note_on_c, 0, 57, 40
2, 46480, Note_on_c, 0, 55, 31
2, 46496, Control_c, 0, 64, 0
2, 46514, Control_c, 0, 64, 127
2, 46604, Note_on_c, 0, 69, 0
2, 46609, Note_on_c, 0, 57, 0
2, 46611, Note_on_c, 0, 63, 0
2, 46621, Note_on_c, 0, 50, 33
2, 46622, Note_on_c, 0, 66, 0
2, 46625, Note_on_c, 0, 55, 0
2, 46678, Control_c, 0, 64, 0
2, 46684, Note_on_c, 0, 50, 0
2, 46687, Note_on_c, 0, 60, 41
2, 46689, Note_on_c, 0, 55, 33
2, 46692, Note_on_c, 0, 43, 29
2, 46695, Note_on_c, 0, 52, 22
2, 46715, Control_c, 0, 64, 127
2, 46744, Note_on_c, 0, 43, 0
2, 46745, Note_on_c, 0, 55, 0
2, 46772, Note_on_c, 0, 60, 0
2, 46781, Note_on_c, 0, 43, 55
2, 46798, Note_on_c, 0, 52, 0
2, 46805, Note_on_c, 0, 43, 0
2, 46993, Note_on_c, 0, 57, 49
2, 46995, Note_on_c, 0, 72, 60
2, 46996, Control_c, 0, 64, 0
2, 46997, Note_on_c, 0, 62, 59
2, 46998, Note_on_c, 0, 67, 55
2, 47008, Control_c, 0, 64, 127
2, 47065, Note_on_c, 0, 72, 0
2, 47070, Note_on_c, 0, 67, 0
2, 47079, Note_on_c, 0, 62, 0
2, 47093, Note_on_c, 0, 71, 69
2, 47094, Note_on_c, 0, 57, 0
2, 47101, Note_on_c, 0, 55, 44
2, 47128, Note_on_c, 0, 55, 0
2, 47177, Note_on_c, 0, 71, 0
2, 47193, Note_on_c, 0, 69, 64
2, 47218, Note_on_c, 0, 69, 0
2, 47232, Note_on_c, 0, 67, 63
2, 47259, Note_on_c, 0, 67, 0
2, 47272, Note_on_c, 0, 65, 58
2, 47290, Control_c, 0, 64, 0
2, 47307, Note_on_c, 0, 65, 0
2, 47307, Note_on_c, 0, 48, 32
2, 47314, Note_on_c, 0, 64, 32
2, 47314, Note_on_c, 0, 58, 20
2, 47343, Note_on_c, 0, 64, 0
2, 47365, Note_on_c, 0, 62, 54
2, 47395, Control_c, 0, 64, 127
2, 47434, Note_on_c, 0, 58, 0
2, 47437, Note_on_c, 0, 62, 0
2, 47449, Note_on_c, 0, 60, 28
2, 47468, Note_on_c, 0, 60, 0
2, 47474, Note_on_c, 0, 48, 0
2, 47536, Note_on_c, 0, 64, 47
2, 47537, Note_on_c, 0, 42, 36
2, 47538, Note_on_c, 0, 61, 38
2, 47541, Note_on_c, 0, 52, 30
2, 47541, Note_on_c, 0, 58, 23
2, 47543, Control_c, 0, 64, 0
2, 47575, Control_c, 0, 64, 127
2, 47590, Note_on_c, 0, 58, 0
2, 47594, Note_on_c, 0, 64, 0
2, 47595, Note_on_c, 0, 61, 0
2, 47614, Note_on_c, 0, 52, 0
2, 47629, Note_on_c, 0, 42, 0
2, 47675, Note_on_c, 0, 61, 47
2, 47676, Note_on_c, 0, 52, 36
2, 47682, Note_on_c, 0, 58, 31
2, 47683, Note_on_c, 0, 42, 32
2, 47685, Note_on_c, 0, 56, 25
2, 47687, Note_on_c, 0, 49, 25
2, 47688, Control_c, 0, 64, 0
2, 47730, Control_c, 0, 64, 127
2, 47765, Note_on_c, 0, 52, 0
2, 47775, Note_on_c, 0, 58, 0
2, 47779, Note_on_c, 0, 42, 0
2, 47794, Note_on_c, 0, 61, 0
2, 47796, Note_on_c, 0, 56, 0
2, 47798, Note_on_c, 0, 49, 0
2, 47811, Control_c, 0, 64, 0
2, 47815, Note_on_c, 0, 48, 51
2, 47817, Note_on_c, 0, 60, 53
2, 47819, Note_on_c, 0, 52, 24
2, 47819, Note_on_c, 0, 57, 43
2, 47821, Note_on_c, 0, 41, 29
2, 47826, Note_on_c, 0, 52, 0
2, 47829, Control_c, 0, 64, 127
2, 47830, Note_on_c, 0, 57, 0
2, 47830, Note_on_c, 0, 41, 0
2, 47837, Note_on_c, 0, 48, 0
2, 47838, Note_on_c, 0, 60, 0
2, 47875, Control_c, 0, 64, 0
2, 47886, Note_on_c, 0, 65, 77
2, 47886, Note_on_c, 0, 74, 71
2, 47888, Note_on_c, 0, 62, 65
2, 47888, Note_on_c, 0, 69, 71
2, 47946, Control_c, 0, 64, 127
2, 47974, Note_on_c, 0, 69, 0
2, 47974, Note_on_c, 0, 65, 0
2, 47980, Note_on_c, 0, 74, 0
2, 47982, Note_on_c, 0, 62, 0
2, 47990, Note_on_c, 0, 60, 31
2, 47998, Control_c, 0, 64, 0
2, 48012, Note_on_c, 0, 60, 0
2, 48024, Note_on_c, 0, 74, 64
2, 48025, Control_c, 0, 64, 127
2, 48027, Note_on_c, 0, 69, 63
2, 48028, Note_on_c, 0, 62, 54
2, 48029, Note_on_c, 0, 65, 54
2, 48082, Note_on_c, 0, 65, 0
2, 48096, Note_on_c, 0, 69, 0
2, 48100, Note_on_c, 0, 74, 0
2, 48117, Note_on_c, 0, 62, 0
2, 48131, Note_on_c, 0, 63, 38
2, 48138, Note_on_c, 0, 62, 17
2, 48156, Note_on_c, 0, 62, 0
2, 48159, Note_on_c, 0, 63, 0
2, 48160, Note_on_c, 0, 64, 56
2, 48164, Control_c, 0, 64, 0
2, 48166, Note_on_c, 0, 77, 53
2, 48167, Note_on_c, 0, 65, 59
2, 48167, Note_on_c, 0, 69, 42
2, 48169, Note_on_c, 0, 72, 33
2, 48169, Note_on_c, 0, 74, 44
2, 48170, Note_on_c, 0, 64, 0
2, 48228, Control_c, 0, 64, 127
2, 48243, Note_on_c, 0, 65, 0
2, 48249, Note_on_c, 0, 69, 0
2, 48251, Note_on_c, 0, 72, 0
2, 48256, Note_on_c, 0, 77, 0
2, 48257, Note_on_c, 0, 74, 0
2, 48290, Note_on_c, 0, 65, 41
2, 48297, Note_on_c, 0, 77, 47
2, 48299, Note_on_c, 0, 69, 43
2, 48300, Note_on_c, 0, 72, 26
2, 48301, Note_on_c, 0, 74, 40
2, 48316, Note_on_c, 0, 69, 0
2, 48323, Note_on_c, 0, 72, 0
2, 48324, Note_on_c, 0, 74, 0
2, 48328, Note_on_c, 0, 77, 0
2, 48330, Note_on_c, 0, 65, 0
2, 48523, Control_c, 0, 64, 0
2, 48524, Note_on_c, 0, 83, 58
2, 48524, Note_on_c, 0, 78, 42
2, 48525, Note_on_c, 0, 42, 48
2, 48525, Note_on_c, 0, 72, 42
2, 48527, Note_on_c, 0, 76, 54
2, 48546, Note_on_c, 0, 42, 0
2, 48550, Note_on_c, 0, 83, 0
2, 48550, Note_on_c, 0, 76, 0
2, 48550, Note_on_c, 0, 78, 0
2, 48551, Control_c, 0, 64, 127
2, 48560, Note_on_c, 0, 72, 0
2, 48632, Note_on_c, 0, 71, 52
2, 48636, Note_on_c, 0, 66, 43
2, 48636, Note_on_c, 0, 64, 55
2, 48638, Note_on_c, 0, 60, 45
2, 48644, Note_on_c, 0, 57, 26
2, 48646, Control_c, 0, 64, 0
2, 48647, Note_on_c, 0, 60, 0
2, 48653, Note_on_c, 0, 64, 0
2, 48654, Note_on_c, 0, 57, 0
2, 48658, Note_on_c, 0, 66, 0
2, 48671, Note_on_c, 0, 71, 0
2, 48731, Note_on_c, 0, 71, 50
2, 48733, Note_on_c, 0, 66, 42
2, 48736, Note_on_c, 0, 64, 57
2, 48737, Note_on_c, 0, 60, 36
2, 48756, Control_c, 0, 64, 127
2, 48829, Note_on_c, 0, 59, 60
2, 48864, Note_on_c, 0, 60, 0
2, 48871, Note_on_c, 0, 64, 0
2, 48874, Note_on_c, 0, 71, 0
2, 48877, Note_on_c, 0, 66, 0
2, 48921, Note_on_c, 0, 59, 0
2, 48923, Note_on_c, 0, 72, 51
2, 48927, Note_on_c, 0, 57, 49
2, 48937, Note_on_c, 0, 57, 0
2, 48952, Note_on_c, 0, 72, 0
2, 49004, Control_c, 0, 64, 0
2, 49009, Note_on_c, 0, 46, 47
2, 49012, Note_on_c, 0, 67, 58
2, 49012, Note_on_c, 0, 76, 63
2, 49014, Note_on_c, 0, 56, 25
2, 49033, Control_c, 0, 64, 127
2, 49047, Note_on_c, 0, 46, 0
2, 49052, Note_on_c, 0, 56, 0
2, 49107, Note_on_c, 0, 56, 49
2, 49166, Note_on_c, 0, 67, 0
2, 49235, Note_on_c, 0, 67, 37
2, 49238, Note_on_c, 0, 72, 34
2, 49242, Note_on_c, 0, 62, 40
2, 49332, Note_on_c, 0, 56, 0
2, 49349, Note_on_c, 0, 62, 0
2, 49713, Note_on_c, 0, 33, 28
2, 49716, Control_c, 0, 64, 0
2, 49723, Control_c, 0, 64, 127
2, 49724, Note_on_c, 0, 33, 0
2, 49728, Note_on_c, 0, 72, 0
2, 49753, Note_on_c, 0, 67, 0
2, 49787, Note_on_c, 0, 76, 0
2, 49814, Note_on_c, 0, 61, 44
2, 49817, Note_on_c, 0, 76, 46
2, 49819, Note_on_c, 0, 67, 49
2, 49820, Note_on_c, 0, 73, 32
2, 49821, Note_on_c, 0, 70, 48
2, 49822, Note_on_c, 0, 58, 44
2, 49831, Control_c, 0, 64, 0
2, 49866, Control_c, 0, 64, 127
2, 49917, Note_on_c, 0, 70, 0
2, 49919, Note_on_c, 0, 67, 0
2, 49932, Note_on_c, 0, 61, 0
2, 49955, Note_on_c, 0, 70, 35
2, 49956, Note_on_c, 0, 61, 27
2, 49958, Note_on_c, 0, 67, 50
2, 49988, Note_on_c, 0, 61, 0
2, 49988, Note_on_c, 0, 58, 0
2, 50015, Note_on_c, 0, 73, 0
2, 50018, Note_on_c, 0, 67, 0
2, 50035, Note_on_c, 0, 76, 0
2, 50044, Note_on_c, 0, 70, 0
2, 50094, Note_on_c, 0, 74, 65
2, 50095, Note_on_c, 0, 65, 54
2, 50098, Note_on_c, 0, 69, 60
2, 50102, Note_on_c, 0, 60, 36
2, 50105, Note_on_c, 0, 57, 33
2, 50108, Note_on_c, 0, 50, 24
2, 50108, Control_c, 0, 64, 0
2, 50161, Control_c, 0, 64, 127
2, 50211, Note_on_c, 0, 57, 0
2, 50241, Note_on_c, 0, 57, 36
2, 50243, Note_on_c, 0, 65, 0
2, 50297, Note_on_c, 0, 60, 0
2, 50298, Note_on_c, 0, 65, 41
2, 50300, Note_on_c, 0, 57, 0
2, 50311, Note_on_c, 0, 50, 0
2, 50314, Note_on_c, 0, 65, 0
2, 50316, Note_on_c, 0, 69, 0
2, 50335, Note_on_c, 0, 74, 0
2, 50382, Note_on_c, 0, 44, 59
2, 50387, Control_c, 0, 64, 0
2, 50387, Note_on_c, 0, 76, 78
2, 50414, Note_on_c, 0, 44, 0
2, 50417, Control_c, 0, 64, 127
2, 50521, Note_on_c, 0, 68, 37
2, 50522, Note_on_c, 0, 65, 36
2, 50523, Note_on_c, 0, 54, 36
2, 50523, Note_on_c, 0, 60, 34
2, 50538, Note_on_c, 0, 60, 0
2, 50547, Note_on_c, 0, 65, 0
2, 50556, Note_on_c, 0, 54, 0
2, 50560, Note_on_c, 0, 68, 0
2, 50563, Note_on_c, 0, 76, 0
2, 50660, Note_on_c, 0, 77, 64
2, 50662, Note_on_c, 0, 43, 52
2, 50663, Note_on_c, 0, 69, 70
2, 50664, Control_c, 0, 64, 0
2, 50664, Note_on_c, 0, 65, 69
2, 50667, Note_on_c, 0, 55, 55
2, 50705, Control_c, 0, 64, 127
2, 50706, Note_on_c, 0, 77, 0
2, 50710, Note_on_c, 0, 69, 0
2, 50714, Note_on_c, 0, 65, 0
2, 50746, Note_on_c, 0, 55, 0
2, 50764, Note_on_c, 0, 43, 0
2, 50821, Note_on_c, 0, 43, 57
2, 50888, Note_on_c, 0, 65, 41
2, 50892, Note_on_c, 0, 55, 31
2, 50894, Control_c, 0, 64, 0
2, 50897, Note_on_c, 0, 65, 0
2, 50901, Note_on_c, 0, 55, 0
2, 50915, Note_on_c, 0, 43, 0
2, 50980, Note_on_c, 0, 43, 46
2, 50981, Note_on_c, 0, 65, 62
2, 50982, Note_on_c, 0, 60, 58
2, 50984, Note_on_c, 0, 57, 51
2, 50989, Control_c, 0, 64, 127
2, 50999, Note_on_c, 0, 57, 0
2, 51007, Note_on_c, 0, 65, 0
2, 51008, Note_on_c, 0, 60, 0
2, 51016, Note_on_c, 0, 43, 0
2, 51038, Control_c, 0, 64, 0
2, 51046, Note_on_c, 0, 43, 28
2, 51054, Note_on_c, 0, 53, 36
2, 51054, Note_on_c, 0, 65, 44
2, 51057, Note_on_c, 0, 59, 51
2, 51058, Note_on_c, 0, 56, 28
2, 51058, Note_on_c, 0, 62, 49
2, 51065, Control_c, 0, 64, 127
2, 51098, Note_on_c, 0, 43, 0
2, 51146, Note_on_c, 0, 43, 44
2, 51157, Note_on_c, 0, 59, 0
2, 51159, Note_on_c, 0, 56, 0
2, 51160, Note_on_c, 0, 62, 0
2, 51171, Note_on_c, 0, 65, 0
2, 51226, Note_on_c, 0, 43, 0
2, 51286, Note_on_c, 0, 59, 62
2, 51287, Note_on_c, 0, 53, 0
2, 51287, Note_on_c, 0, 43, 38
2, 51316, Note_on_c, 0, 59, 0
2, 51323, Note_on_c, 0, 43, 0
2, 51349, Control_c, 0, 64, 0
2, 51351, Note_on_c, 0, 43, 33
2, 51357, Note_on_c, 0, 60, 40
2, 51358, Note_on_c, 0, 52, 26
2, 51360, Note_on_c, 0, 55, 33
2, 51362, Note_on_c, 0, 57, 42
2, 51404, Control_c, 0, 64, 127
2, 51407, Note_on_c, 0, 43, 0
2, 51449, Note_on_c, 0, 43, 42
2, 51464, Note_on_c, 0, 55, 0
2, 51485, Note_on_c, 0, 43, 0
2, 51487, Note_on_c, 0, 57, 0
2, 51500, Note_on_c, 0, 60, 0
2, 51515, Note_on_c, 0, 43, 35
2, 51607, Note_on_c, 0, 69, 91
2, 51640, Note_on_c, 0, 52, 0
2, 51664, Note_on_c, 0, 69, 0
2, 51678, Control_c, 0, 64, 0
2, 51679, Note_on_c, 0, 67, 74
2, 51685, Note_on_c, 0, 52, 31
2, 51706, Control_c, 0, 64, 127
2, 51748, Note_on_c, 0, 43, 0
2, 51771, Note_on_c, 0, 67, 0
2, 51781, Note_on_c, 0, 64, 54
2, 51781, Note_on_c, 0, 43, 34
2, 51846, Note_on_c, 0, 43, 0
2, 51893, Note_on_c, 0, 60, 46
2, 51910, Note_on_c, 0, 64, 0
2, 51940, Note_on_c, 0, 60, 0
2, 51941, Note_on_c, 0, 57, 40
2, 51946, Note_on_c, 0, 43, 33
2, 51958, Note_on_c, 0, 52, 0
2, 51973, Note_on_c, 0, 57, 0
2, 52016, Note_on_c, 0, 65, 67
2, 52023, Control_c, 0, 64, 0
2, 52069, Control_c, 0, 64, 127
2, 52107, Note_on_c, 0, 56, 33
2, 52110, Control_c, 0, 64, 0
2, 52110, Note_on_c, 0, 60, 47
2, 52117, Note_on_c, 0, 55, 26
2, 52154, Control_c, 0, 64, 127
2, 52180, Note_on_c, 0, 43, 0
2, 52200, Note_on_c, 0, 56, 0
2, 52221, Note_on_c, 0, 60, 0
2, 52237, Note_on_c, 0, 43, 40
2, 52254, Note_on_c, 0, 55, 0
2, 52331, Note_on_c, 0, 55, 34
2, 52359, Note_on_c, 0, 55, 0
2, 52426, Note_on_c, 0, 56, 28
2, 52429, Note_on_c, 0, 55, 29
2, 52431, Note_on_c, 0, 60, 40
2, 52481, Note_on_c, 0, 43, 0
2, 52494, Note_on_c, 0, 56, 0
2, 52558, Note_on_c, 0, 43, 37
2, 52559, Note_on_c, 0, 60, 0
2, 52560, Note_on_c, 0, 55, 0
2, 52621, Note_on_c, 0, 65, 0
2, 52624, Control_c, 0, 64, 0
2, 52628, Note_on_c, 0, 57, 40
2, 52632, Note_on_c, 0, 59, 31
2, 52640, Note_on_c, 0, 52, 13
2, 52647, Control_c, 0, 64, 127
2, 52675, Note_on_c, 0, 57, 0
2, 52683, Note_on_c, 0, 59, 0
2, 52699, Note_on_c, 0, 43, 0
2, 52724, Note_on_c, 0, 43, 44
2, 52730, Note_on_c, 0, 69, 94
2, 52783, Note_on_c, 0, 69, 0
2, 52802, Note_on_c, 0, 67, 87
2, 52812, Note_on_c, 0, 52, 0
2, 52875, Note_on_c, 0, 67, 0
2, 52888, Note_on_c, 0, 64, 62
2, 52890, Note_on_c, 0, 62, 56
2, 52894, Note_on_c, 0, 52, 29
2, 52899, Control_c, 0, 64, 0
2, 52940, Control_c, 0, 64, 127
2, 52971, Note_on_c, 0, 43, 0
2, 53015, Note_on_c, 0, 43, 38
2, 53115, Note_on_c, 0, 64, 0
2, 53120, Note_on_c, 0, 62, 0
2, 53121, Note_on_c, 0, 60, 57
2, 53127, Note_on_c, 0, 43, 0
2, 53147, Note_on_c, 0, 60, 0
2, 53171, Note_on_c, 0, 59, 51
2, 53194, Note_on_c, 0, 52, 0
2, 53204, Note_on_c, 0, 59, 0
2, 53232, Note_on_c, 0, 43, 38
2, 53232, Note_on_c, 0, 60, 58
2, 53235, Note_on_c, 0, 56, 32
2, 53238, Control_c, 0, 64, 0
2, 53245, Note_on_c, 0, 55, 29
2, 53304, Note_on_c, 0, 43, 0
2, 53316, Control_c, 0, 64, 127
2, 53320, Note_on_c, 0, 56, 0
2, 53327, Note_on_c, 0, 43, 45
2, 53374, Note_on_c, 0, 55, 0
2, 53479, Note_on_c, 0, 56, 38
2, 53489, Note_on_c, 0, 55, 32
2, 53499, Control_c, 0, 64, 0
2, 53535, Control_c, 0, 64, 127
2, 53548, Note_on_c, 0, 43, 0
2, 53617, Note_on_c, 0, 43, 34
2, 53657, Note_on_c, 0, 55, 0
2, 53756, Note_on_c, 0, 56, 0
2, 53760, Note_on_c, 0, 43, 0
2, 53772, Note_on_c, 0, 55, 47
2, 53828, Control_c, 0, 64, 0
2, 53834, Note_on_c, 0, 43, 36
2, 53839, Note_on_c, 0, 55, 0
2, 53842, Control_c, 0, 64, 127
2, 53852, Note_on_c, 0, 60, 0
2, 53937, Note_on_c, 0, 69, 57
2, 53940, Note_on_c, 0, 52, 30
2, 53940, Note_on_c, 0, 60, 39
2, 53941, Control_c, 0, 64, 0
2, 53976, Control_c, 0, 64, 127
2, 53993, Note_on_c, 0, 69, 0
2, 54005, Note_on_c, 0, 60, 0
2, 54034, Note_on_c, 0, 67, 64
2, 54039, Note_on_c, 0, 59, 41
2, 54070, Note_on_c, 0, 67, 0
2, 54080, Note_on_c, 0, 59, 0
2, 54101, Note_on_c, 0, 52, 0
2, 54133, Note_on_c, 0, 64, 38
2, 54136, Note_on_c, 0, 55, 34
2, 54137, Control_c, 0, 64, 0
2, 54139, Note_on_c, 0, 52, 24
2, 54161, Control_c, 0, 64, 127
2, 54184, Note_on_c, 0, 43, 0
2, 54199, Note_on_c, 0, 55, 0
2, 54224, Note_on_c, 0, 64, 0
2, 54231, Note_on_c, 0, 60, 49
2, 54235, Note_on_c, 0, 43, 30
2, 54238, Note_on_c, 0, 55, 29
2, 54273, Note_on_c, 0, 52, 0
2, 54281, Note_on_c, 0, 55, 0
2, 54282, Note_on_c, 0, 60, 0
2, 54375, Note_on_c, 0, 60, 47
2, 54376, Note_on_c, 0, 56, 33
2, 54386, Control_c, 0, 64, 0
2, 54386, Note_on_c, 0, 62, 30
2, 54426, Control_c, 0, 64, 127
2, 54444, Note_on_c, 0, 43, 0
2, 54523, Note_on_c, 0, 31, 33
2, 54647, Note_on_c, 0, 56, 0
2, 54652, Note_on_c, 0, 60, 0
2, 54665, Note_on_c, 0, 62, 0
2, 54665, Note_on_c, 0, 43, 35
2, 54742, Note_on_c, 0, 67, 82
2, 54753, Note_on_c, 0, 43, 0
2, 54772, Note_on_c, 0, 67, 0
2, 54849, Note_on_c, 0, 43, 32
2, 54850, Note_on_c, 0, 67, 62
2, 54896, Note_on_c, 0, 31, 0
2, 54924, Note_on_c, 0, 43, 0
2, 54952, Note_on_c, 0, 67, 0
2, 54978, Note_on_c, 0, 65, 53
2, 55004, Note_on_c, 0, 65, 0
2, 55092, Note_on_c, 0, 64, 50
2, 55096, Note_on_c, 0, 61, 35
2, 55097, Control_c, 0, 64, 0
2, 55101, Note_on_c, 0, 56, 21
2, 55102, Note_on_c, 0, 59, 40
2, 55105, Note_on_c, 0, 45, 27
2, 55150, Control_c, 0, 64, 127
2, 55182, Note_on_c, 0, 56, 0
2, 55197, Note_on_c, 0, 59, 0
2, 55198, Note_on_c, 0, 52, 44
2, 55221, Note_on_c, 0, 61, 0
2, 55240, Note_on_c, 0, 45, 0
2, 55243, Note_on_c, 0, 64, 0
2, 55284, Note_on_c, 0, 52, 0
2, 55290, Note_on_c, 0, 59, 49
2, 55385, Note_on_c, 0, 61, 32
2, 55388, Note_on_c, 0, 59, 0
2, 55477, Note_on_c, 0, 71, 42
2, 55514, Note_on_c, 0, 64, 12
2, 55544, Note_on_c, 0, 64, 0
2, 55553, Note_on_c, 0, 71, 0
2, 55554, Note_on_c, 0, 73, 37
2, 55556, Note_on_c, 0, 61, 0
2, 55558, Note_on_c, 0, 69, 37
2, 55573, Note_on_c, 0, 73, 0
2, 55648, Note_on_c, 0, 76, 43
2, 55649, Note_on_c, 0, 69, 0
2, 55655, Note_on_c, 0, 71, 32
2, 55717, Note_on_c, 0, 76, 0
2, 55734, Note_on_c, 0, 73, 25
2, 55737, Note_on_c, 0, 85, 43
2, 55739, Note_on_c, 0, 71, 0
2, 55829, Note_on_c, 0, 85, 0
2, 55842, Note_on_c, 0, 73, 0
2, 55846, Note_on_c, 0, 76, 27
2, 55869, Note_on_c, 0, 84, 1
2, 55931, Note_on_c, 0, 84, 0
2, 55950, Note_on_c, 0, 90, 31
2, 55961, Note_on_c, 0, 90, 0
2, 55961, Note_on_c, 0, 76, 0
2, 55967, Note_on_c, 0, 78, 9
2, 56035, Note_on_c, 0, 78, 0
2, 56044, Note_on_c, 0, 93, 58
2, 56045, Note_on_c, 0, 81, 38
2, 56069, Note_on_c, 0, 93, 0
2, 56139, Note_on_c, 0, 81, 0
2, 56151, Note_on_c, 0, 84, 17
2, 56152, Note_on_c, 0, 97, 13
2, 56178, Note_on_c, 0, 97, 0
2, 56253, Note_on_c, 0, 100, 47
2, 56256, Note_on_c, 0, 85, 36
2, 56271, Note_on_c, 0, 84, 0
2, 56283, Note_on_c, 0, 100, 0
2, 56373, Note_on_c, 0, 88, 31
2, 56373, Note_on_c, 0, 105, 44
2, 56426, Note_on_c, 0, 105, 0
2, 56466, Note_on_c, 0, 88, 0
2, 56481, Note_on_c, 0, 85, 0
2, 56818, Control_c, 0, 64, 0
2, 56818, End_track
3, 0, Start_track
3, 0, End_track
0, 0, End_of_file
