0, 0, Header, 1, 4, 960
1, 0, Start_track
1, 0, Title_t, "If I Should Lose You"
1, 0, Text_t, "dougmck@TPG.com.au - in the Bill Evans trio style - see Old Real Book Vol 2  - p155\012"
1, 0, Time_signature, 4, 2, 24, 8
1, 0, Key_signature, -2, "major"
1, 0, Tempo, 324324
1, 0, Marker_t, "Last 8 bars rubato as intro"
1, 30505, Marker_t, "Drop 2 block chords - melody surrounds  chord tones here  (F  and then Bb) "
1, 32928, Marker_t, "- lower neighbour is chromatic / upper neighbour diatonic"
1, 35343, Marker_t, "Dim chord on upper and lower neighbours"
1, 77032, Marker_t, "Nice dom (F7) to tonic (Bb) cadence using 4th voicings."
1, 100086, Marker_t, "In tempo for head on first chorus"
1, 103743, Marker_t, "Bass plays freely but is more or less in 2."
1, 107223, Marker_t, "Drums played freely - no regular Hi - hat on offbeats -  rides pickup the rhythms of piano or bass"
1, 112142, Marker_t, "Gm11then Gbm11then Fm11 - using this voicing - LH  b3,4,5 & RH  b7,9,11"
1, 195840, Marker_t, "Little figure that 'surrounds' the C tonic on Cm9 chord"
1, 242008, Marker_t, "Bill Evans 'ish' - finishing a phrase on a nice colour tone rather than chord tone -  here the #11"
1, 257280, Marker_t, "This phrase finishes on the 9th"
1, 289832, Marker_t, "3 note phrase on Gm7 - diatonic -  moves to rhythmically similar  3 note scale fragments  "
1, 349459, Marker_t, "Chromatic figure on Gm7 begins on 11th ends on 9th"
1, 362720, Marker_t, "Another 3 note figure that is echo-ed but not quite so diatonically"
1, 372012, Marker_t, "'Drummer' picks up the phrase"
1, 442648, Marker_t, "Sliding off black notes on to white"
1, 471400, Marker_t, "Another 3 note figure moves around"
1, 474261, Marker_t, "Increases in intensity as it rises"
1, 533760, Marker_t, "Back to head on last 8 bars"
1, 533760, End_track
2, 0, Start_track
2, 0, Title_t, "Piano"
2, 0, Program_c, 0, 0
2, 2940, Control_c, 0, 64, 127
2, 4052, Note_on_c, 0, 67, 81
2, 4076, Control_c, 0, 64, 0
2, 4109, Note_on_c, 0, 55, 79
2, 4905, Control_c, 0, 64, 127
2, 5393, Note_on_c, 0, 67, 0
2, 5589, Control_c, 0, 64, 0
2, 5604, Note_on_c, 0, 69, 90
2, 5639, Note_on_c, 0, 57, 78
2, 5749, Note_on_c, 0, 55, 0
2, 6151, Control_c, 0, 64, 127
2, 6873, Note_on_c, 0, 69, 0
2, 6971, Note_on_c, 0, 57, 0
2, 7024, Note_on_c, 0, 70, 78
2, 7036, Note_on_c, 0, 58, 62
2, 7314, Note_on_c, 0, 58, 0
2, 7427, Note_on_c, 0, 70, 0
2, 8259, Control_c, 0, 64, 0
2, 8339, Note_on_c, 0, 74, 75
2, 8342, Note_on_c, 0, 67, 74
2, 8365, Note_on_c, 0, 63, 69
2, 8380, Note_on_c, 0, 70, 60
2, 8421, Note_on_c, 0, 48, 60
2, 8762, Control_c, 0, 64, 127
2, 8797, Note_on_c, 0, 63, 0
2, 8904, Note_on_c, 0, 67, 0
2, 9028, Note_on_c, 0, 74, 0
2, 9034, Note_on_c, 0, 70, 0
2, 9398, Note_on_c, 0, 55, 59
2, 9416, Note_on_c, 0, 48, 0
2, 10345, Note_on_c, 0, 79, 72
2, 10348, Note_on_c, 0, 55, 0
2, 10351, Note_on_c, 0, 86, 76
2, 10372, Note_on_c, 0, 74, 68
2, 10381, Note_on_c, 0, 62, 66
2, 10390, Note_on_c, 0, 82, 56
2, 11313, Note_on_c, 0, 62, 0
2, 11402, Note_on_c, 0, 63, 50
2, 11405, Note_on_c, 0, 79, 0
2, 11420, Note_on_c, 0, 86, 0
2, 11491, Note_on_c, 0, 82, 0
2, 11497, Note_on_c, 0, 74, 0
2, 12583, Note_on_c, 0, 70, 56
2, 12607, Note_on_c, 0, 67, 48
2, 12610, Note_on_c, 0, 74, 63
2, 13400, Note_on_c, 0, 67, 0
2, 13711, Note_on_c, 0, 63, 0
2, 13903, Note_on_c, 0, 74, 0
2, 13921, Note_on_c, 0, 67, 56
2, 14051, Note_on_c, 0, 70, 0
2, 14214, Note_on_c, 0, 67, 0
2, 15215, Note_on_c, 0, 62, 61
2, 16251, Note_on_c, 0, 62, 0
2, 16319, Note_on_c, 0, 67, 55
2, 17396, Note_on_c, 0, 67, 0
2, 17556, Note_on_c, 0, 62, 48
2, 17577, Note_on_c, 0, 57, 49
2, 17657, Note_on_c, 0, 41, 34
2, 17666, Control_c, 0, 64, 0
2, 17680, Note_on_c, 0, 67, 15
2, 17692, Note_on_c, 0, 51, 27
2, 18790, Control_c, 0, 64, 127
2, 18808, Note_on_c, 0, 61, 27
2, 18844, Note_on_c, 0, 62, 0
2, 19098, Note_on_c, 0, 41, 0
2, 19101, Note_on_c, 0, 51, 0
2, 20069, Note_on_c, 0, 57, 0
2, 20229, Note_on_c, 0, 61, 0
2, 20383, Note_on_c, 0, 41, 36
2, 20424, Control_c, 0, 64, 0
2, 20433, Note_on_c, 0, 60, 38
2, 20448, Note_on_c, 0, 57, 31
2, 20839, Control_c, 0, 64, 127
2, 21099, Note_on_c, 0, 57, 0
2, 21454, Note_on_c, 0, 60, 0
2, 21662, Note_on_c, 0, 67, 0
2, 21975, Note_on_c, 0, 29, 34
2, 22221, Note_on_c, 0, 41, 0
2, 22274, Note_on_c, 0, 29, 0
2, 23677, Note_on_c, 0, 60, 65
2, 23677, Note_on_c, 0, 72, 79
2, 23677, Note_on_c, 0, 84, 81
2, 24716, Note_on_c, 0, 72, 0
2, 24784, Note_on_c, 0, 84, 0
2, 25048, Note_on_c, 0, 60, 0
2, 25151, Note_on_c, 0, 62, 85
2, 25160, Note_on_c, 0, 86, 80
2, 25172, Note_on_c, 0, 74, 87
2, 26220, Note_on_c, 0, 74, 0
2, 26229, Note_on_c, 0, 86, 0
2, 26371, Note_on_c, 0, 62, 0
2, 26590, Note_on_c, 0, 86, 68
2, 26634, Note_on_c, 0, 74, 71
2, 26640, Note_on_c, 0, 62, 60
2, 27064, Note_on_c, 0, 74, 0
2, 27069, Note_on_c, 0, 86, 0
2, 27143, Note_on_c, 0, 62, 0
2, 28185, Note_on_c, 0, 87, 64
2, 28191, Note_on_c, 0, 63, 53
2, 28250, Note_on_c, 0, 75, 59
2, 28801, Note_on_c, 0, 87, 0
2, 28985, Note_on_c, 0, 75, 0
2, 29085, Note_on_c, 0, 63, 0
2, 30479, Control_c, 0, 64, 0
2, 30547, Note_on_c, 0, 76, 60
2, 30580, Note_on_c, 0, 61, 47
2, 30660, Note_on_c, 0, 70, 34
2, 30663, Note_on_c, 0, 67, 40
2, 30707, Note_on_c, 0, 73, 19
2, 30867, Control_c, 0, 64, 127
2, 31107, Note_on_c, 0, 76, 0
2, 31258, Note_on_c, 0, 73, 0
2, 31261, Note_on_c, 0, 67, 0
2, 31279, Note_on_c, 0, 70, 0
2, 31776, Note_on_c, 0, 62, 41
2, 31876, Control_c, 0, 64, 0
2, 31921, Note_on_c, 0, 79, 62
2, 31953, Note_on_c, 0, 73, 42
2, 31962, Note_on_c, 0, 70, 36
2, 31992, Note_on_c, 0, 64, 54
2, 32027, Note_on_c, 0, 61, 0
2, 32125, Note_on_c, 0, 62, 0
2, 32291, Control_c, 0, 64, 127
2, 32394, Note_on_c, 0, 79, 0
2, 32614, Note_on_c, 0, 73, 0
2, 32631, Note_on_c, 0, 70, 0
2, 33123, Control_c, 0, 64, 0
2, 33173, Note_on_c, 0, 64, 0
2, 33253, Note_on_c, 0, 77, 49
2, 33256, Note_on_c, 0, 70, 45
2, 33280, Note_on_c, 0, 62, 40
2, 33291, Note_on_c, 0, 74, 42
2, 33655, Control_c, 0, 64, 127
2, 33907, Note_on_c, 0, 77, 0
2, 34108, Note_on_c, 0, 74, 0
2, 34153, Note_on_c, 0, 70, 0
2, 34188, Note_on_c, 0, 62, 0
2, 34339, Control_c, 0, 64, 0
2, 35553, Control_c, 0, 64, 127
2, 35674, Control_c, 0, 64, 0
2, 35973, Note_on_c, 0, 79, 60
2, 36000, Note_on_c, 0, 70, 51
2, 36015, Note_on_c, 0, 73, 43
2, 36032, Note_on_c, 0, 64, 49
2, 36118, Control_c, 0, 64, 127
2, 36476, Note_on_c, 0, 79, 0
2, 36633, Note_on_c, 0, 70, 0
2, 36642, Note_on_c, 0, 73, 0
2, 37083, Note_on_c, 0, 64, 0
2, 37125, Control_c, 0, 64, 0
2, 37237, Note_on_c, 0, 81, 63
2, 37261, Note_on_c, 0, 75, 61
2, 37290, Note_on_c, 0, 72, 58
2, 37299, Note_on_c, 0, 66, 42
2, 37542, Control_c, 0, 64, 127
2, 37604, Note_on_c, 0, 72, 0
2, 37637, Note_on_c, 0, 81, 0
2, 37749, Note_on_c, 0, 75, 0
2, 38480, Note_on_c, 0, 84, 76
2, 38492, Control_c, 0, 64, 0
2, 38498, Note_on_c, 0, 78, 65
2, 38525, Note_on_c, 0, 75, 60
2, 38534, Note_on_c, 0, 69, 54
2, 38619, Note_on_c, 0, 66, 0
2, 39054, Control_c, 0, 64, 127
2, 39383, Note_on_c, 0, 84, 0
2, 39735, Note_on_c, 0, 75, 0
2, 39738, Note_on_c, 0, 78, 0
2, 39783, Note_on_c, 0, 69, 0
2, 40765, Note_on_c, 0, 82, 60
2, 40774, Control_c, 0, 64, 0
2, 40828, Note_on_c, 0, 74, 57
2, 40875, Note_on_c, 0, 67, 42
2, 41159, Control_c, 0, 64, 127
2, 41174, Note_on_c, 0, 67, 0
2, 41559, Note_on_c, 0, 82, 0
2, 41653, Note_on_c, 0, 74, 0
2, 43527, Note_on_c, 0, 44, 28
2, 43867, Note_on_c, 0, 44, 0
2, 43912, Note_on_c, 0, 43, 36
2, 44306, Control_c, 0, 64, 0
2, 44320, Note_on_c, 0, 52, 28
2, 44350, Note_on_c, 0, 63, 32
2, 44365, Note_on_c, 0, 58, 38
2, 44418, Note_on_c, 0, 43, 0
2, 44448, Note_on_c, 0, 42, 48
2, 45315, Control_c, 0, 64, 127
2, 46457, Note_on_c, 0, 52, 0
2, 46990, Note_on_c, 0, 58, 0
2, 47135, Note_on_c, 0, 63, 0
2, 47644, Note_on_c, 0, 42, 0
2, 48796, Note_on_c, 0, 72, 88
2, 50427, Note_on_c, 0, 72, 0
2, 50951, Control_c, 0, 64, 0
2, 51040, Note_on_c, 0, 74, 74
2, 51131, Note_on_c, 0, 70, 59
2, 51155, Note_on_c, 0, 48, 45
2, 51158, Note_on_c, 0, 67, 64
2, 51185, Note_on_c, 0, 63, 56
2, 51196, Note_on_c, 0, 58, 32
2, 51457, Control_c, 0, 64, 127
2, 51478, Note_on_c, 0, 63, 0
2, 51510, Note_on_c, 0, 67, 0
2, 51611, Note_on_c, 0, 70, 0
2, 51658, Note_on_c, 0, 74, 0
2, 52224, Note_on_c, 0, 58, 0
2, 52490, Note_on_c, 0, 55, 38
2, 52523, Note_on_c, 0, 86, 79
2, 52531, Note_on_c, 0, 48, 0
2, 52768, Note_on_c, 0, 55, 0
2, 53653, Note_on_c, 0, 86, 0
2, 54266, Note_on_c, 0, 86, 74
2, 55829, Note_on_c, 0, 86, 0
2, 55873, Note_on_c, 0, 79, 45
2, 56255, Note_on_c, 0, 79, 0
2, 57537, Note_on_c, 0, 74, 64
2, 58872, Note_on_c, 0, 63, 49
2, 58934, Note_on_c, 0, 67, 51
2, 59005, Note_on_c, 0, 62, 32
2, 59144, Note_on_c, 0, 62, 0
2, 59618, Note_on_c, 0, 67, 0
2, 59837, Note_on_c, 0, 63, 0
2, 60571, Note_on_c, 0, 63, 33
2, 60591, Note_on_c, 0, 67, 44
2, 61343, Note_on_c, 0, 74, 0
2, 62474, Note_on_c, 0, 74, 43
2, 63424, Note_on_c, 0, 67, 0
2, 63649, Note_on_c, 0, 63, 0
2, 63747, Note_on_c, 0, 74, 0
2, 65484, Note_on_c, 0, 63, 38
2, 65490, Note_on_c, 0, 74, 53
2, 65532, Note_on_c, 0, 29, 28
2, 65535, Note_on_c, 0, 41, 34
2, 65538, Note_on_c, 0, 66, 39
2, 65549, Control_c, 0, 64, 0
2, 66002, Note_on_c, 0, 74, 0
2, 66230, Control_c, 0, 64, 127
2, 66488, Note_on_c, 0, 66, 0
2, 66609, Note_on_c, 0, 63, 0
2, 66807, Note_on_c, 0, 65, 36
2, 67932, Note_on_c, 0, 65, 0
2, 68361, Note_on_c, 0, 65, 48
2, 68669, Note_on_c, 0, 65, 0
2, 69865, Note_on_c, 0, 77, 53
2, 70419, Note_on_c, 0, 77, 0
2, 71810, Note_on_c, 0, 77, 48
2, 72571, Note_on_c, 0, 29, 0
2, 72680, Note_on_c, 0, 41, 0
2, 73092, Note_on_c, 0, 77, 0
2, 74305, Note_on_c, 0, 77, 42
2, 75104, Note_on_c, 0, 77, 0
2, 77345, Note_on_c, 0, 79, 53
2, 77369, Note_on_c, 0, 73, 35
2, 77378, Note_on_c, 0, 69, 37
2, 77381, Note_on_c, 0, 63, 39
2, 80086, Note_on_c, 0, 79, 0
2, 80936, Note_on_c, 0, 79, 40
2, 81773, Note_on_c, 0, 69, 0
2, 82078, Note_on_c, 0, 79, 0
2, 82176, Note_on_c, 0, 73, 0
2, 84520, Note_on_c, 0, 63, 0
2, 84639, Note_on_c, 0, 82, 50
2, 84656, Control_c, 0, 64, 0
2, 84680, Note_on_c, 0, 62, 41
2, 84686, Note_on_c, 0, 77, 46
2, 84704, Note_on_c, 0, 72, 42
2, 84751, Note_on_c, 0, 67, 38
2, 85426, Control_c, 0, 64, 127
2, 87012, Note_on_c, 0, 82, 0
2, 87649, Note_on_c, 0, 72, 0
2, 87649, Note_on_c, 0, 77, 0
2, 89372, Note_on_c, 0, 82, 92
2, 90115, Note_on_c, 0, 82, 0
2, 90594, Note_on_c, 0, 82, 94
2, 91396, Note_on_c, 0, 82, 0
2, 91757, Note_on_c, 0, 82, 85
2, 92515, Note_on_c, 0, 82, 0
2, 92551, Note_on_c, 0, 67, 0
2, 92574, Note_on_c, 0, 62, 0
2, 93143, Note_on_c, 0, 82, 67
2, 94114, Note_on_c, 0, 82, 0
2, 94673, Note_on_c, 0, 82, 40
2, 98716, Note_on_c, 0, 82, 0
2, 98808, Note_on_c, 0, 84, 40
2, 98838, Note_on_c, 0, 26, 47
2, 98858, Note_on_c, 0, 72, 33
2, 98897, Control_c, 0, 64, 0
2, 99234, Note_on_c, 0, 72, 0
2, 99279, Note_on_c, 0, 26, 0
2, 99305, Note_on_c, 0, 84, 0
2, 99840, Control_c, 0, 64, 0
2, 99840, Control_c, 0, 64, 0
2, 99840, Control_c, 0, 64, 127
2, 99840, Control_c, 0, 64, 127
2, 100185, Control_c, 0, 64, 127
2, 100380, Control_c, 0, 64, 0
2, 100838, Note_on_c, 0, 62, 66
2, 100896, Note_on_c, 0, 50, 45
2, 101088, Note_on_c, 0, 62, 0
2, 101162, Note_on_c, 0, 50, 0
2, 101841, Note_on_c, 0, 74, 85
2, 101844, Note_on_c, 0, 62, 46
2, 102194, Note_on_c, 0, 74, 0
2, 102254, Note_on_c, 0, 62, 0
2, 102780, Note_on_c, 0, 72, 68
2, 102787, Note_on_c, 0, 60, 40
2, 103024, Note_on_c, 0, 72, 0
2, 103082, Note_on_c, 0, 60, 0
2, 103783, Note_on_c, 0, 69, 28
2, 103785, Note_on_c, 0, 63, 50
2, 103788, Note_on_c, 0, 54, 49
2, 103824, Note_on_c, 0, 66, 60
2, 103826, Note_on_c, 0, 60, 44
2, 103893, Control_c, 0, 64, 127
2, 104628, Note_on_c, 0, 54, 0
2, 104728, Note_on_c, 0, 60, 0
2, 104781, Note_on_c, 0, 63, 0
2, 104952, Note_on_c, 0, 66, 0
2, 105175, Note_on_c, 0, 69, 0
2, 105386, Control_c, 0, 64, 0
2, 105458, Note_on_c, 0, 70, 49
2, 105465, Note_on_c, 0, 62, 43
2, 105484, Note_on_c, 0, 65, 54
2, 105487, Note_on_c, 0, 55, 43
2, 106108, Control_c, 0, 64, 127
2, 106447, Control_c, 0, 64, 0
2, 106598, Note_on_c, 0, 55, 0
2, 106684, Control_c, 0, 64, 127
2, 106848, Note_on_c, 0, 62, 0
2, 106972, Note_on_c, 0, 65, 0
2, 107241, Note_on_c, 0, 70, 0
2, 108225, Control_c, 0, 64, 0
2, 108249, Note_on_c, 0, 63, 56
2, 108261, Note_on_c, 0, 55, 39
2, 108309, Note_on_c, 0, 60, 41
2, 108321, Note_on_c, 0, 57, 46
2, 108405, Note_on_c, 0, 60, 0
2, 108432, Note_on_c, 0, 63, 0
2, 108460, Note_on_c, 0, 57, 0
2, 108477, Note_on_c, 0, 55, 0
2, 109238, Note_on_c, 0, 74, 62
2, 109428, Note_on_c, 0, 74, 0
2, 109567, Note_on_c, 0, 54, 60
2, 109596, Note_on_c, 0, 65, 58
2, 109598, Note_on_c, 0, 86, 85
2, 109598, Note_on_c, 0, 60, 55
2, 109704, Note_on_c, 0, 64, 26
2, 109783, Note_on_c, 0, 64, 0
2, 110220, Note_on_c, 0, 86, 0
2, 110474, Note_on_c, 0, 65, 0
2, 110541, Note_on_c, 0, 84, 80
2, 110548, Note_on_c, 0, 60, 0
2, 110656, Control_c, 0, 64, 127
2, 110995, Note_on_c, 0, 54, 0
2, 110997, Note_on_c, 0, 84, 0
2, 112075, Control_c, 0, 64, 0
2, 112140, Note_on_c, 0, 72, 75
2, 112168, Note_on_c, 0, 62, 74
2, 112171, Note_on_c, 0, 65, 74
2, 112173, Note_on_c, 0, 58, 68
2, 112176, Note_on_c, 0, 69, 72
2, 112178, Note_on_c, 0, 60, 64
2, 112320, Note_on_c, 0, 62, 0
2, 112346, Note_on_c, 0, 65, 0
2, 112358, Note_on_c, 0, 69, 0
2, 112375, Note_on_c, 0, 60, 0
2, 112394, Note_on_c, 0, 58, 0
2, 112425, Note_on_c, 0, 72, 0
2, 112956, Note_on_c, 0, 62, 69
2, 112958, Note_on_c, 0, 58, 67
2, 112960, Note_on_c, 0, 60, 67
2, 112963, Note_on_c, 0, 72, 76
2, 112968, Note_on_c, 0, 69, 85
2, 112970, Note_on_c, 0, 65, 85
2, 112987, Note_on_c, 0, 61, 32
2, 113037, Note_on_c, 0, 62, 0
2, 113056, Note_on_c, 0, 60, 0
2, 113061, Note_on_c, 0, 61, 0
2, 113083, Note_on_c, 0, 65, 0
2, 113121, Note_on_c, 0, 58, 0
2, 113124, Note_on_c, 0, 69, 0
2, 113133, Note_on_c, 0, 72, 0
2, 113378, Control_c, 0, 64, 127
2, 113536, Note_on_c, 0, 60, 64
2, 113548, Note_on_c, 0, 58, 59
2, 113551, Note_on_c, 0, 62, 55
2, 113556, Note_on_c, 0, 69, 76
2, 113560, Note_on_c, 0, 65, 77
2, 113563, Note_on_c, 0, 72, 67
2, 113649, Note_on_c, 0, 62, 0
2, 113731, Note_on_c, 0, 60, 0
2, 113764, Control_c, 0, 64, 0
2, 113772, Note_on_c, 0, 69, 0
2, 113791, Note_on_c, 0, 72, 0
2, 113824, Note_on_c, 0, 58, 0
2, 113836, Note_on_c, 0, 65, 0
2, 114276, Note_on_c, 0, 61, 64
2, 114324, Note_on_c, 0, 71, 67
2, 114333, Note_on_c, 0, 58, 40
2, 114367, Note_on_c, 0, 64, 64
2, 114384, Note_on_c, 0, 68, 53
2, 114439, Control_c, 0, 64, 127
2, 114556, Note_on_c, 0, 64, 0
2, 114578, Note_on_c, 0, 71, 0
2, 114621, Note_on_c, 0, 58, 0
2, 114624, Note_on_c, 0, 61, 0
2, 114631, Control_c, 0, 64, 0
2, 114748, Note_on_c, 0, 68, 0
2, 115032, Note_on_c, 0, 63, 57
2, 115039, Note_on_c, 0, 67, 57
2, 115072, Note_on_c, 0, 60, 47
2, 115084, Note_on_c, 0, 58, 46
2, 115089, Note_on_c, 0, 56, 39
2, 115094, Note_on_c, 0, 70, 48
2, 115377, Control_c, 0, 64, 127
2, 115996, Note_on_c, 0, 63, 0
2, 116064, Note_on_c, 0, 60, 0
2, 116128, Note_on_c, 0, 67, 0
2, 116133, Note_on_c, 0, 58, 0
2, 116186, Note_on_c, 0, 56, 0
2, 116368, Note_on_c, 0, 58, 44
2, 116407, Note_on_c, 0, 70, 0
2, 116707, Note_on_c, 0, 58, 0
2, 116870, Control_c, 0, 64, 0
2, 116973, Note_on_c, 0, 70, 65
2, 117007, Note_on_c, 0, 46, 57
2, 117470, Control_c, 0, 64, 127
2, 117734, Control_c, 0, 64, 0
2, 117880, Note_on_c, 0, 56, 50
2, 117974, Note_on_c, 0, 56, 0
2, 117998, Control_c, 0, 64, 127
2, 118072, Note_on_c, 0, 46, 0
2, 118190, Note_on_c, 0, 70, 0
2, 118752, Note_on_c, 0, 68, 58
2, 118999, Note_on_c, 0, 68, 0
2, 119080, Control_c, 0, 64, 0
2, 119193, Note_on_c, 0, 39, 35
2, 119208, Note_on_c, 0, 66, 36
2, 119234, Note_on_c, 0, 54, 37
2, 119246, Note_on_c, 0, 46, 31
2, 119256, Note_on_c, 0, 61, 42
2, 120091, Control_c, 0, 64, 127
2, 120177, Note_on_c, 0, 54, 0
2, 120316, Note_on_c, 0, 39, 0
2, 120338, Note_on_c, 0, 61, 0
2, 120398, Note_on_c, 0, 66, 0
2, 120552, Note_on_c, 0, 46, 0
2, 120621, Control_c, 0, 64, 0
2, 120679, Note_on_c, 0, 55, 36
2, 120681, Note_on_c, 0, 67, 45
2, 120710, Note_on_c, 0, 62, 50
2, 120844, Note_on_c, 0, 39, 32
2, 121197, Control_c, 0, 64, 127
2, 121245, Note_on_c, 0, 55, 0
2, 121636, Note_on_c, 0, 46, 52
2, 121723, Note_on_c, 0, 62, 0
2, 121728, Note_on_c, 0, 39, 0
2, 121826, Note_on_c, 0, 67, 0
2, 121843, Note_on_c, 0, 46, 0
2, 122834, Control_c, 0, 64, 0
2, 122894, Note_on_c, 0, 63, 49
2, 122913, Note_on_c, 0, 56, 36
2, 122923, Note_on_c, 0, 67, 35
2, 122937, Note_on_c, 0, 60, 38
2, 123864, Note_on_c, 0, 70, 69
2, 123892, Control_c, 0, 64, 127
2, 123952, Note_on_c, 0, 67, 0
2, 123988, Control_c, 0, 64, 0
2, 124058, Note_on_c, 0, 70, 0
2, 124087, Note_on_c, 0, 56, 0
2, 124123, Note_on_c, 0, 63, 0
2, 124281, Note_on_c, 0, 60, 0
2, 124480, Note_on_c, 0, 70, 55
2, 124576, Note_on_c, 0, 70, 0
2, 124848, Note_on_c, 0, 82, 64
2, 124864, Note_on_c, 0, 56, 50
2, 124867, Note_on_c, 0, 66, 44
2, 124881, Note_on_c, 0, 74, 62
2, 124896, Note_on_c, 0, 62, 36
2, 124917, Note_on_c, 0, 78, 49
2, 125097, Note_on_c, 0, 74, 0
2, 125251, Note_on_c, 0, 78, 0
2, 125258, Note_on_c, 0, 66, 0
2, 125268, Note_on_c, 0, 56, 0
2, 125294, Note_on_c, 0, 82, 0
2, 125400, Note_on_c, 0, 62, 0
2, 125536, Note_on_c, 0, 82, 62
2, 125572, Note_on_c, 0, 66, 40
2, 125589, Note_on_c, 0, 78, 45
2, 125596, Note_on_c, 0, 56, 35
2, 125613, Note_on_c, 0, 74, 48
2, 125719, Note_on_c, 0, 66, 0
2, 125721, Note_on_c, 0, 74, 0
2, 125733, Note_on_c, 0, 78, 0
2, 125808, Note_on_c, 0, 82, 0
2, 125827, Note_on_c, 0, 56, 0
2, 126480, Note_on_c, 0, 80, 52
2, 126504, Note_on_c, 0, 56, 45
2, 126506, Note_on_c, 0, 66, 37
2, 126652, Note_on_c, 0, 66, 0
2, 126717, Note_on_c, 0, 80, 0
2, 126811, Note_on_c, 0, 56, 0
2, 127452, Note_on_c, 0, 78, 60
2, 127464, Note_on_c, 0, 69, 57
2, 127473, Note_on_c, 0, 66, 57
2, 127476, Note_on_c, 0, 74, 56
2, 127557, Note_on_c, 0, 56, 25
2, 127567, Note_on_c, 0, 74, 0
2, 127569, Note_on_c, 0, 69, 0
2, 127665, Note_on_c, 0, 66, 0
2, 127696, Note_on_c, 0, 78, 0
2, 127716, Note_on_c, 0, 56, 0
2, 128752, Control_c, 0, 64, 127
2, 128772, Note_on_c, 0, 79, 50
2, 128779, Note_on_c, 0, 62, 40
2, 128788, Note_on_c, 0, 55, 32
2, 128791, Note_on_c, 0, 74, 50
2, 128846, Note_on_c, 0, 60, 36
2, 128856, Note_on_c, 0, 67, 25
2, 129355, Control_c, 0, 64, 0
2, 129763, Control_c, 0, 64, 127
2, 129770, Note_on_c, 0, 55, 0
2, 129859, Note_on_c, 0, 60, 0
2, 129868, Note_on_c, 0, 62, 0
2, 130065, Note_on_c, 0, 67, 0
2, 130574, Note_on_c, 0, 74, 0
2, 130764, Note_on_c, 0, 79, 0
2, 131373, Note_on_c, 0, 67, 48
2, 131397, Control_c, 0, 64, 0
2, 131409, Note_on_c, 0, 63, 32
2, 131416, Note_on_c, 0, 62, 42
2, 131443, Note_on_c, 0, 60, 36
2, 132547, Note_on_c, 0, 79, 77
2, 132811, Note_on_c, 0, 79, 0
2, 133173, Note_on_c, 0, 81, 85
2, 133305, Note_on_c, 0, 62, 0
2, 133382, Note_on_c, 0, 81, 0
2, 133437, Note_on_c, 0, 67, 0
2, 133492, Note_on_c, 0, 60, 0
2, 133495, Note_on_c, 0, 82, 84
2, 133516, Control_c, 0, 64, 127
2, 133533, Note_on_c, 0, 63, 0
2, 134157, Note_on_c, 0, 82, 0
2, 134284, Control_c, 0, 64, 0
2, 134428, Note_on_c, 0, 67, 54
2, 134431, Note_on_c, 0, 86, 58
2, 134464, Note_on_c, 0, 63, 45
2, 134467, Note_on_c, 0, 82, 43
2, 134472, Note_on_c, 0, 74, 55
2, 134498, Note_on_c, 0, 62, 37
2, 134503, Note_on_c, 0, 58, 34
2, 134510, Note_on_c, 0, 79, 38
2, 134582, Note_on_c, 0, 62, 0
2, 134822, Note_on_c, 0, 74, 0
2, 134824, Note_on_c, 0, 58, 0
2, 134827, Note_on_c, 0, 79, 0
2, 134829, Note_on_c, 0, 82, 0
2, 134860, Note_on_c, 0, 86, 0
2, 134877, Note_on_c, 0, 67, 0
2, 134920, Note_on_c, 0, 63, 0
2, 136449, Note_on_c, 0, 67, 54
2, 136464, Note_on_c, 0, 86, 65
2, 136471, Note_on_c, 0, 82, 48
2, 136473, Note_on_c, 0, 58, 45
2, 136488, Note_on_c, 0, 79, 53
2, 136490, Note_on_c, 0, 74, 54
2, 136495, Note_on_c, 0, 63, 38
2, 136516, Note_on_c, 0, 62, 45
2, 136744, Control_c, 0, 64, 127
2, 137263, Note_on_c, 0, 74, 0
2, 137272, Note_on_c, 0, 86, 0
2, 137359, Note_on_c, 0, 79, 0
2, 137400, Note_on_c, 0, 62, 0
2, 137421, Note_on_c, 0, 82, 0
2, 137556, Note_on_c, 0, 72, 31
2, 137592, Note_on_c, 0, 58, 0
2, 137666, Note_on_c, 0, 72, 0
2, 137676, Note_on_c, 0, 67, 0
2, 137767, Note_on_c, 0, 63, 0
2, 137949, Control_c, 0, 64, 0
2, 138088, Note_on_c, 0, 86, 68
2, 138093, Note_on_c, 0, 63, 44
2, 138096, Note_on_c, 0, 74, 63
2, 138098, Note_on_c, 0, 67, 50
2, 138129, Note_on_c, 0, 62, 40
2, 138144, Note_on_c, 0, 79, 44
2, 138168, Note_on_c, 0, 82, 25
2, 138172, Note_on_c, 0, 57, 28
2, 138213, Note_on_c, 0, 62, 0
2, 138223, Note_on_c, 0, 67, 0
2, 138247, Note_on_c, 0, 79, 0
2, 138252, Note_on_c, 0, 74, 0
2, 138271, Note_on_c, 0, 82, 0
2, 138285, Note_on_c, 0, 57, 0
2, 138292, Note_on_c, 0, 63, 0
2, 138295, Note_on_c, 0, 86, 0
2, 139020, Note_on_c, 0, 84, 73
2, 139032, Note_on_c, 0, 62, 58
2, 139039, Note_on_c, 0, 79, 71
2, 139044, Note_on_c, 0, 67, 68
2, 139046, Note_on_c, 0, 63, 55
2, 139048, Note_on_c, 0, 72, 63
2, 139070, Note_on_c, 0, 57, 62
2, 139368, Control_c, 0, 64, 127
2, 139720, Note_on_c, 0, 84, 0
2, 139800, Note_on_c, 0, 72, 0
2, 139963, Note_on_c, 0, 57, 0
2, 139968, Note_on_c, 0, 67, 0
2, 139996, Note_on_c, 0, 62, 0
2, 140016, Note_on_c, 0, 63, 0
2, 140047, Note_on_c, 0, 79, 0
2, 140136, Control_c, 0, 64, 0
2, 140222, Note_on_c, 0, 86, 62
2, 140246, Note_on_c, 0, 79, 50
2, 140253, Note_on_c, 0, 63, 44
2, 140260, Note_on_c, 0, 67, 53
2, 140272, Note_on_c, 0, 74, 49
2, 140280, Note_on_c, 0, 62, 40
2, 140284, Note_on_c, 0, 57, 45
2, 140304, Note_on_c, 0, 82, 35
2, 140368, Note_on_c, 0, 62, 0
2, 140371, Note_on_c, 0, 74, 0
2, 140433, Note_on_c, 0, 57, 0
2, 140445, Note_on_c, 0, 79, 0
2, 140450, Note_on_c, 0, 86, 0
2, 140462, Note_on_c, 0, 67, 0
2, 140498, Note_on_c, 0, 63, 0
2, 140529, Note_on_c, 0, 82, 0
2, 141110, Note_on_c, 0, 67, 53
2, 141117, Note_on_c, 0, 63, 49
2, 141122, Note_on_c, 0, 87, 64
2, 141136, Note_on_c, 0, 75, 47
2, 141146, Note_on_c, 0, 80, 47
2, 141158, Note_on_c, 0, 57, 44
2, 141264, Note_on_c, 0, 80, 0
2, 141285, Note_on_c, 0, 75, 0
2, 141300, Note_on_c, 0, 67, 0
2, 141415, Note_on_c, 0, 87, 0
2, 141417, Note_on_c, 0, 63, 0
2, 141487, Note_on_c, 0, 57, 0
2, 142144, Note_on_c, 0, 88, 62
2, 142159, Control_c, 0, 64, 127
2, 142161, Note_on_c, 0, 76, 62
2, 142171, Note_on_c, 0, 61, 45
2, 142180, Note_on_c, 0, 85, 39
2, 142212, Note_on_c, 0, 81, 47
2, 142344, Note_on_c, 0, 81, 0
2, 142372, Note_on_c, 0, 76, 0
2, 142452, Note_on_c, 0, 88, 0
2, 142521, Note_on_c, 0, 85, 0
2, 142927, Control_c, 0, 64, 0
2, 143092, Note_on_c, 0, 85, 65
2, 143095, Note_on_c, 0, 91, 75
2, 143109, Note_on_c, 0, 81, 62
2, 143114, Note_on_c, 0, 64, 63
2, 143140, Note_on_c, 0, 61, 0
2, 143570, Note_on_c, 0, 91, 0
2, 143616, Note_on_c, 0, 81, 0
2, 143656, Note_on_c, 0, 64, 0
2, 143673, Note_on_c, 0, 61, 34
2, 143704, Note_on_c, 0, 85, 0
2, 143793, Note_on_c, 0, 89, 56
2, 143868, Note_on_c, 0, 77, 40
2, 143894, Note_on_c, 0, 62, 51
2, 143966, Note_on_c, 0, 61, 0
2, 144028, Note_on_c, 0, 77, 0
2, 144052, Note_on_c, 0, 89, 0
2, 144628, Note_on_c, 0, 62, 0
2, 145555, Note_on_c, 0, 45, 52
2, 145644, Note_on_c, 0, 45, 0
2, 146073, Note_on_c, 0, 75, 61
2, 146078, Note_on_c, 0, 67, 61
2, 146100, Note_on_c, 0, 72, 57
2, 146116, Note_on_c, 0, 63, 76
2, 146685, Control_c, 0, 64, 127
2, 146731, Note_on_c, 0, 63, 0
2, 146851, Note_on_c, 0, 51, 44
2, 146889, Note_on_c, 0, 67, 0
2, 147079, Note_on_c, 0, 72, 0
2, 147252, Note_on_c, 0, 75, 0
2, 147336, Control_c, 0, 64, 0
2, 147338, Note_on_c, 0, 51, 0
2, 147552, Note_on_c, 0, 66, 51
2, 147583, Note_on_c, 0, 74, 57
2, 147597, Note_on_c, 0, 70, 55
2, 147600, Note_on_c, 0, 50, 38
2, 147631, Note_on_c, 0, 60, 36
2, 148080, Control_c, 0, 64, 127
2, 148514, Note_on_c, 0, 54, 49
2, 148562, Control_c, 0, 64, 0
2, 148624, Note_on_c, 0, 50, 0
2, 148670, Note_on_c, 0, 60, 0
2, 148720, Note_on_c, 0, 66, 0
2, 148754, Note_on_c, 0, 70, 0
2, 148768, Note_on_c, 0, 74, 0
2, 148874, Control_c, 0, 64, 127
2, 148876, Note_on_c, 0, 54, 0
2, 148917, Note_on_c, 0, 72, 39
2, 149162, Note_on_c, 0, 72, 0
2, 149620, Control_c, 0, 64, 0
2, 149793, Note_on_c, 0, 63, 56
2, 149805, Note_on_c, 0, 69, 61
2, 149817, Note_on_c, 0, 66, 51
2, 149820, Note_on_c, 0, 54, 56
2, 150290, Note_on_c, 0, 63, 0
2, 150348, Note_on_c, 0, 69, 0
2, 150451, Note_on_c, 0, 72, 55
2, 150465, Note_on_c, 0, 54, 0
2, 150480, Note_on_c, 0, 63, 37
2, 150482, Note_on_c, 0, 57, 58
2, 150744, Note_on_c, 0, 72, 0
2, 150768, Note_on_c, 0, 57, 0
2, 150847, Note_on_c, 0, 66, 0
2, 150880, Note_on_c, 0, 63, 0
2, 150897, Note_on_c, 0, 54, 43
2, 151473, Note_on_c, 0, 70, 52
2, 151476, Note_on_c, 0, 62, 46
2, 151478, Note_on_c, 0, 54, 0
2, 151485, Note_on_c, 0, 55, 41
2, 151500, Note_on_c, 0, 67, 46
2, 151740, Control_c, 0, 64, 127
2, 152383, Note_on_c, 0, 62, 0
2, 152409, Note_on_c, 0, 55, 0
2, 152520, Note_on_c, 0, 67, 0
2, 152548, Note_on_c, 0, 70, 0
2, 152731, Note_on_c, 0, 72, 49
2, 153038, Note_on_c, 0, 72, 0
2, 153278, Control_c, 0, 64, 0
2, 153393, Note_on_c, 0, 74, 60
2, 153412, Note_on_c, 0, 67, 45
2, 153434, Note_on_c, 0, 62, 34
2, 153458, Note_on_c, 0, 58, 39
2, 153487, Note_on_c, 0, 52, 25
2, 154348, Note_on_c, 0, 67, 0
2, 154447, Note_on_c, 0, 74, 0
2, 154528, Control_c, 0, 64, 127
2, 154814, Note_on_c, 0, 58, 0
2, 154840, Note_on_c, 0, 62, 0
2, 155316, Note_on_c, 0, 58, 33
2, 155580, Note_on_c, 0, 86, 87
2, 155582, Note_on_c, 0, 79, 95
2, 156076, Note_on_c, 0, 86, 0
2, 156196, Note_on_c, 0, 79, 0
2, 156211, Note_on_c, 0, 82, 39
2, 156244, Note_on_c, 0, 74, 43
2, 156470, Note_on_c, 0, 52, 0
2, 156482, Note_on_c, 0, 74, 0
2, 156513, Note_on_c, 0, 82, 0
2, 156612, Note_on_c, 0, 86, 72
2, 156614, Note_on_c, 0, 58, 0
2, 156616, Note_on_c, 0, 79, 71
2, 156669, Note_on_c, 0, 82, 47
2, 156763, Note_on_c, 0, 82, 0
2, 157089, Note_on_c, 0, 86, 0
2, 157327, Note_on_c, 0, 79, 0
2, 158956, Control_c, 0, 64, 0
2, 159045, Note_on_c, 0, 82, 62
2, 159067, Note_on_c, 0, 75, 63
2, 159072, Note_on_c, 0, 63, 39
2, 159086, Note_on_c, 0, 70, 57
2, 159098, Note_on_c, 0, 53, 29
2, 159160, Note_on_c, 0, 58, 34
2, 159436, Control_c, 0, 64, 127
2, 159499, Note_on_c, 0, 53, 0
2, 159578, Note_on_c, 0, 58, 0
2, 159626, Note_on_c, 0, 63, 0
2, 159657, Note_on_c, 0, 70, 0
2, 159746, Note_on_c, 0, 82, 0
2, 159770, Note_on_c, 0, 75, 0
2, 160012, Control_c, 0, 64, 0
2, 160039, Note_on_c, 0, 81, 64
2, 160087, Note_on_c, 0, 73, 47
2, 160106, Note_on_c, 0, 65, 60
2, 160108, Note_on_c, 0, 55, 49
2, 160128, Note_on_c, 0, 77, 55
2, 160149, Note_on_c, 0, 61, 48
2, 160526, Control_c, 0, 64, 127
2, 160814, Note_on_c, 0, 81, 0
2, 160881, Note_on_c, 0, 73, 0
2, 160896, Note_on_c, 0, 55, 0
2, 160903, Note_on_c, 0, 77, 0
2, 160941, Note_on_c, 0, 65, 0
2, 161164, Note_on_c, 0, 61, 0
2, 161344, Control_c, 0, 64, 0
2, 161457, Note_on_c, 0, 80, 56
2, 161460, Note_on_c, 0, 64, 52
2, 161476, Note_on_c, 0, 71, 53
2, 161488, Note_on_c, 0, 60, 37
2, 161498, Note_on_c, 0, 75, 47
2, 161508, Note_on_c, 0, 54, 38
2, 161524, Note_on_c, 0, 77, 47
2, 162333, Note_on_c, 0, 71, 0
2, 162398, Note_on_c, 0, 77, 0
2, 162448, Control_c, 0, 64, 127
2, 162453, Note_on_c, 0, 75, 0
2, 162480, Note_on_c, 0, 80, 0
2, 162520, Note_on_c, 0, 60, 0
2, 162528, Note_on_c, 0, 54, 0
2, 162552, Note_on_c, 0, 64, 0
2, 162820, Note_on_c, 0, 85, 19
2, 162907, Note_on_c, 0, 85, 0
2, 162955, Control_c, 0, 64, 0
2, 163044, Note_on_c, 0, 86, 74
2, 163056, Note_on_c, 0, 65, 77
2, 163068, Note_on_c, 0, 60, 66
2, 163075, Note_on_c, 0, 54, 65
2, 163077, Note_on_c, 0, 82, 77
2, 163137, Note_on_c, 0, 74, 36
2, 163156, Note_on_c, 0, 76, 26
2, 163226, Note_on_c, 0, 65, 0
2, 163240, Note_on_c, 0, 74, 0
2, 163260, Note_on_c, 0, 76, 0
2, 163298, Note_on_c, 0, 86, 0
2, 163303, Note_on_c, 0, 82, 0
2, 163312, Note_on_c, 0, 60, 0
2, 163315, Note_on_c, 0, 54, 0
2, 163706, Note_on_c, 0, 86, 70
2, 163708, Note_on_c, 0, 82, 74
2, 163713, Note_on_c, 0, 65, 70
2, 163716, Note_on_c, 0, 54, 67
2, 163720, Note_on_c, 0, 60, 60
2, 163725, Note_on_c, 0, 74, 73
2, 163800, Note_on_c, 0, 76, 35
2, 163924, Note_on_c, 0, 76, 0
2, 163944, Note_on_c, 0, 65, 0
2, 164004, Note_on_c, 0, 86, 0
2, 164040, Note_on_c, 0, 74, 0
2, 164064, Note_on_c, 0, 54, 0
2, 164164, Note_on_c, 0, 60, 0
2, 164174, Note_on_c, 0, 82, 0
2, 164253, Control_c, 0, 64, 127
2, 164347, Note_on_c, 0, 84, 63
2, 164368, Note_on_c, 0, 54, 52
2, 164390, Note_on_c, 0, 65, 47
2, 164397, Note_on_c, 0, 81, 46
2, 164404, Note_on_c, 0, 72, 49
2, 164421, Note_on_c, 0, 60, 32
2, 164496, Note_on_c, 0, 81, 0
2, 164520, Note_on_c, 0, 65, 0
2, 164546, Note_on_c, 0, 60, 0
2, 164560, Note_on_c, 0, 84, 0
2, 164599, Note_on_c, 0, 72, 0
2, 164748, Note_on_c, 0, 54, 0
2, 164928, Control_c, 0, 64, 0
2, 165088, Note_on_c, 0, 69, 60
2, 165091, Note_on_c, 0, 81, 58
2, 165105, Note_on_c, 0, 57, 60
2, 165115, Note_on_c, 0, 62, 46
2, 165122, Note_on_c, 0, 74, 48
2, 165134, Note_on_c, 0, 58, 45
2, 165158, Note_on_c, 0, 55, 36
2, 165165, Note_on_c, 0, 77, 37
2, 165554, Control_c, 0, 64, 127
2, 166156, Note_on_c, 0, 57, 0
2, 166212, Note_on_c, 0, 69, 0
2, 166240, Note_on_c, 0, 81, 0
2, 166252, Note_on_c, 0, 62, 0
2, 166267, Note_on_c, 0, 55, 0
2, 166348, Note_on_c, 0, 77, 0
2, 166358, Note_on_c, 0, 58, 0
2, 166399, Note_on_c, 0, 74, 0
2, 166682, Control_c, 0, 64, 0
2, 166804, Note_on_c, 0, 82, 54
2, 166821, Note_on_c, 0, 70, 46
2, 166824, Note_on_c, 0, 62, 44
2, 166838, Note_on_c, 0, 74, 49
2, 166848, Note_on_c, 0, 58, 47
2, 166860, Note_on_c, 0, 55, 31
2, 166876, Note_on_c, 0, 77, 33
2, 166929, Note_on_c, 0, 57, 34
2, 167186, Control_c, 0, 64, 127
2, 167404, Note_on_c, 0, 57, 0
2, 167548, Note_on_c, 0, 55, 0
2, 167644, Note_on_c, 0, 62, 0
2, 167666, Note_on_c, 0, 58, 0
2, 167985, Note_on_c, 0, 70, 0
2, 167990, Note_on_c, 0, 74, 0
2, 168028, Note_on_c, 0, 77, 0
2, 168055, Control_c, 0, 64, 0
2, 168081, Note_on_c, 0, 82, 0
2, 168093, Note_on_c, 0, 63, 67
2, 168124, Note_on_c, 0, 55, 41
2, 168165, Note_on_c, 0, 60, 37
2, 168168, Note_on_c, 0, 57, 54
2, 169087, Control_c, 0, 64, 127
2, 169317, Note_on_c, 0, 55, 0
2, 169365, Note_on_c, 0, 60, 0
2, 169375, Note_on_c, 0, 57, 0
2, 169442, Note_on_c, 0, 63, 0
2, 170268, Control_c, 0, 64, 0
2, 170577, Note_on_c, 0, 65, 69
2, 170584, Note_on_c, 0, 54, 62
2, 170589, Note_on_c, 0, 60, 56
2, 171583, Note_on_c, 0, 74, 58
2, 171796, Note_on_c, 0, 74, 0
2, 171948, Note_on_c, 0, 86, 74
2, 171996, Note_on_c, 0, 65, 0
2, 172072, Note_on_c, 0, 60, 0
2, 172370, Note_on_c, 0, 86, 0
2, 172408, Note_on_c, 0, 54, 0
2, 172598, Note_on_c, 0, 84, 54
2, 172831, Note_on_c, 0, 84, 0
2, 172836, Note_on_c, 0, 62, 28
2, 172864, Note_on_c, 0, 58, 32
2, 172872, Note_on_c, 0, 57, 33
2, 172936, Note_on_c, 0, 55, 17
2, 172958, Note_on_c, 0, 81, 44
2, 173416, Note_on_c, 0, 81, 0
2, 173592, Note_on_c, 0, 82, 53
2, 173798, Note_on_c, 0, 82, 0
2, 173882, Note_on_c, 0, 57, 0
2, 173896, Note_on_c, 0, 62, 0
2, 173906, Note_on_c, 0, 84, 66
2, 173964, Note_on_c, 0, 58, 0
2, 174021, Note_on_c, 0, 55, 0
2, 174417, Note_on_c, 0, 84, 0
2, 174825, Note_on_c, 0, 82, 57
2, 175197, Note_on_c, 0, 82, 0
2, 175456, Note_on_c, 0, 63, 47
2, 175476, Note_on_c, 0, 58, 49
2, 175665, Note_on_c, 0, 63, 0
2, 175744, Note_on_c, 0, 58, 0
2, 177338, Note_on_c, 0, 63, 52
2, 177348, Note_on_c, 0, 67, 58
2, 177372, Note_on_c, 0, 60, 41
2, 177396, Note_on_c, 0, 56, 32
2, 177468, Note_on_c, 0, 67, 0
2, 177482, Note_on_c, 0, 60, 0
2, 177530, Note_on_c, 0, 56, 0
2, 177540, Note_on_c, 0, 63, 0
2, 178632, Note_on_c, 0, 82, 81
2, 178636, Note_on_c, 0, 66, 62
2, 178644, Control_c, 0, 64, 127
2, 178668, Note_on_c, 0, 74, 68
2, 178672, Note_on_c, 0, 62, 41
2, 178684, Note_on_c, 0, 56, 50
2, 178699, Note_on_c, 0, 60, 41
2, 179400, Note_on_c, 0, 82, 0
2, 179623, Note_on_c, 0, 60, 0
2, 179760, Note_on_c, 0, 66, 0
2, 179774, Note_on_c, 0, 62, 0
2, 179791, Note_on_c, 0, 56, 0
2, 179805, Note_on_c, 0, 74, 0
2, 180127, Note_on_c, 0, 66, 52
2, 180129, Note_on_c, 0, 80, 67
2, 180146, Note_on_c, 0, 56, 49
2, 180244, Note_on_c, 0, 62, 19
2, 180338, Note_on_c, 0, 66, 0
2, 180398, Note_on_c, 0, 80, 0
2, 180415, Note_on_c, 0, 62, 0
2, 180429, Note_on_c, 0, 56, 0
2, 180451, Control_c, 0, 64, 0
2, 180996, Note_on_c, 0, 78, 68
2, 181022, Note_on_c, 0, 66, 59
2, 181024, Note_on_c, 0, 69, 58
2, 181060, Note_on_c, 0, 56, 49
2, 181072, Note_on_c, 0, 74, 49
2, 181104, Note_on_c, 0, 62, 30
2, 181111, Note_on_c, 0, 60, 34
2, 181394, Note_on_c, 0, 66, 0
2, 181396, Note_on_c, 0, 56, 0
2, 181413, Note_on_c, 0, 69, 0
2, 181466, Note_on_c, 0, 60, 0
2, 181468, Note_on_c, 0, 78, 0
2, 181497, Note_on_c, 0, 74, 0
2, 181586, Control_c, 0, 64, 127
2, 181598, Note_on_c, 0, 62, 0
2, 181682, Note_on_c, 0, 78, 47
2, 181699, Note_on_c, 0, 66, 53
2, 181716, Note_on_c, 0, 74, 58
2, 181723, Note_on_c, 0, 56, 55
2, 181728, Note_on_c, 0, 69, 38
2, 182018, Note_on_c, 0, 69, 0
2, 182083, Note_on_c, 0, 74, 0
2, 182092, Note_on_c, 0, 66, 0
2, 182148, Note_on_c, 0, 56, 0
2, 182236, Note_on_c, 0, 78, 0
2, 182260, Control_c, 0, 64, 0
2, 182323, Note_on_c, 0, 74, 55
2, 182344, Note_on_c, 0, 67, 49
2, 182352, Note_on_c, 0, 65, 34
2, 182371, Note_on_c, 0, 62, 1
2, 182373, Note_on_c, 0, 79, 55
2, 182414, Note_on_c, 0, 55, 34
2, 182428, Note_on_c, 0, 60, 34
2, 183511, Control_c, 0, 64, 127
2, 183616, Note_on_c, 0, 62, 0
2, 183684, Note_on_c, 0, 60, 0
2, 183748, Note_on_c, 0, 67, 0
2, 183751, Note_on_c, 0, 55, 0
2, 183830, Note_on_c, 0, 65, 0
2, 184056, Note_on_c, 0, 79, 0
2, 184147, Note_on_c, 0, 74, 0
2, 184375, Control_c, 0, 64, 0
2, 184408, Note_on_c, 0, 70, 44
2, 184411, Note_on_c, 0, 56, 45
2, 184413, Note_on_c, 0, 67, 38
2, 184416, Note_on_c, 0, 63, 40
2, 184466, Note_on_c, 0, 60, 46
2, 184857, Note_on_c, 0, 70, 0
2, 184920, Note_on_c, 0, 67, 0
2, 185018, Note_on_c, 0, 70, 48
2, 185078, Note_on_c, 0, 67, 42
2, 185241, Note_on_c, 0, 70, 0
2, 185340, Control_c, 0, 64, 127
2, 185371, Note_on_c, 0, 70, 40
2, 185577, Note_on_c, 0, 67, 0
2, 185606, Note_on_c, 0, 70, 0
2, 185683, Note_on_c, 0, 56, 0
2, 185829, Note_on_c, 0, 63, 0
2, 185844, Control_c, 0, 64, 0
2, 186043, Note_on_c, 0, 60, 0
2, 186309, Note_on_c, 0, 82, 59
2, 186316, Note_on_c, 0, 66, 37
2, 186348, Note_on_c, 0, 74, 52
2, 186362, Note_on_c, 0, 78, 42
2, 186381, Note_on_c, 0, 56, 34
2, 186566, Note_on_c, 0, 74, 0
2, 186616, Note_on_c, 0, 82, 0
2, 186636, Note_on_c, 0, 66, 0
2, 186655, Note_on_c, 0, 56, 0
2, 186657, Note_on_c, 0, 78, 0
2, 187293, Note_on_c, 0, 80, 53
2, 187312, Note_on_c, 0, 66, 39
2, 187334, Control_c, 0, 64, 127
2, 187372, Note_on_c, 0, 56, 30
2, 187392, Note_on_c, 0, 75, 33
2, 187509, Note_on_c, 0, 75, 0
2, 187562, Note_on_c, 0, 80, 0
2, 187598, Note_on_c, 0, 66, 0
2, 187711, Note_on_c, 0, 56, 0
2, 188080, Control_c, 0, 64, 0
2, 188786, Note_on_c, 0, 78, 53
2, 188805, Note_on_c, 0, 69, 43
2, 188810, Note_on_c, 0, 74, 54
2, 188832, Note_on_c, 0, 63, 51
2, 189194, Note_on_c, 0, 69, 0
2, 189218, Note_on_c, 0, 63, 0
2, 189240, Note_on_c, 0, 78, 0
2, 189242, Note_on_c, 0, 74, 0
2, 189499, Note_on_c, 0, 63, 42
2, 189518, Note_on_c, 0, 78, 45
2, 189540, Note_on_c, 0, 69, 49
2, 189554, Note_on_c, 0, 74, 46
2, 189645, Control_c, 0, 64, 127
2, 189818, Note_on_c, 0, 69, 0
2, 189900, Note_on_c, 0, 74, 0
2, 189938, Note_on_c, 0, 63, 0
2, 190046, Note_on_c, 0, 78, 0
2, 190125, Control_c, 0, 64, 0
2, 190317, Note_on_c, 0, 79, 63
2, 190392, Note_on_c, 0, 70, 27
2, 190917, Note_on_c, 0, 63, 64
2, 190929, Note_on_c, 0, 79, 0
2, 190982, Note_on_c, 0, 70, 0
2, 191114, Note_on_c, 0, 63, 0
2, 191232, Control_c, 0, 64, 127
2, 191978, Control_c, 0, 64, 0
2, 192093, Note_on_c, 0, 51, 46
2, 192122, Note_on_c, 0, 62, 37
2, 192124, Note_on_c, 0, 58, 48
2, 193060, Control_c, 0, 64, 127
2, 193240, Note_on_c, 0, 62, 0
2, 193288, Note_on_c, 0, 58, 0
2, 193744, Note_on_c, 0, 58, 39
2, 193831, Control_c, 0, 64, 0
2, 193980, Note_on_c, 0, 67, 103
2, 193982, Note_on_c, 0, 58, 0
2, 194553, Note_on_c, 0, 67, 0
2, 194560, Note_on_c, 0, 51, 0
2, 194604, Note_on_c, 0, 69, 62
2, 194659, Note_on_c, 0, 58, 28
2, 194774, Note_on_c, 0, 58, 0
2, 194839, Note_on_c, 0, 69, 0
2, 194949, Note_on_c, 0, 70, 71
2, 195482, Note_on_c, 0, 70, 0
2, 195888, Note_on_c, 0, 74, 76
2, 196536, Note_on_c, 0, 62, 47
2, 196764, Note_on_c, 0, 62, 0
2, 197083, Note_on_c, 0, 60, 38
2, 197630, Note_on_c, 0, 60, 0
2, 197786, Note_on_c, 0, 63, 50
2, 197827, Note_on_c, 0, 59, 39
2, 197856, Note_on_c, 0, 67, 41
2, 198535, Note_on_c, 0, 62, 47
2, 198552, Note_on_c, 0, 59, 0
2, 198835, Control_c, 0, 64, 127
2, 198943, Note_on_c, 0, 62, 0
2, 199195, Note_on_c, 0, 60, 37
2, 199377, Note_on_c, 0, 67, 0
2, 199476, Note_on_c, 0, 74, 0
2, 199485, Note_on_c, 0, 60, 0
2, 199610, Note_on_c, 0, 63, 0
2, 199699, Control_c, 0, 64, 0
2, 199862, Note_on_c, 0, 63, 37
2, 199893, Note_on_c, 0, 57, 38
2, 199936, Note_on_c, 0, 72, 41
2, 200508, Note_on_c, 0, 63, 0
2, 200733, Note_on_c, 0, 72, 0
2, 200805, Control_c, 0, 64, 127
2, 201362, Note_on_c, 0, 72, 70
2, 201528, Control_c, 0, 64, 0
2, 201669, Note_on_c, 0, 72, 0
2, 201746, Control_c, 0, 64, 127
2, 201799, Note_on_c, 0, 57, 0
2, 201832, Note_on_c, 0, 74, 87
2, 202250, Control_c, 0, 64, 0
2, 202257, Note_on_c, 0, 74, 0
2, 202677, Note_on_c, 0, 75, 78
2, 202800, Control_c, 0, 64, 127
2, 202999, Note_on_c, 0, 75, 0
2, 203284, Control_c, 0, 64, 0
2, 203599, Note_on_c, 0, 76, 40
2, 203620, Note_on_c, 0, 61, 44
2, 203628, Note_on_c, 0, 70, 39
2, 203637, Note_on_c, 0, 67, 44
2, 204052, Note_on_c, 0, 67, 0
2, 204223, Note_on_c, 0, 61, 0
2, 204278, Note_on_c, 0, 64, 46
2, 204295, Note_on_c, 0, 79, 36
2, 204465, Note_on_c, 0, 76, 0
2, 204494, Note_on_c, 0, 79, 0
2, 204508, Note_on_c, 0, 70, 0
2, 204547, Note_on_c, 0, 64, 0
2, 204583, Note_on_c, 0, 61, 39
2, 205195, Note_on_c, 0, 61, 0
2, 205214, Note_on_c, 0, 77, 49
2, 205228, Note_on_c, 0, 62, 49
2, 205233, Note_on_c, 0, 70, 46
2, 205466, Note_on_c, 0, 77, 0
2, 205557, Note_on_c, 0, 70, 0
2, 206016, Note_on_c, 0, 62, 0
2, 206193, Note_on_c, 0, 79, 59
2, 206227, Note_on_c, 0, 64, 47
2, 206354, Note_on_c, 0, 64, 0
2, 206445, Note_on_c, 0, 79, 0
2, 207153, Note_on_c, 0, 65, 24
2, 207343, Note_on_c, 0, 65, 0
2, 207511, Note_on_c, 0, 66, 71
2, 207540, Note_on_c, 0, 81, 60
2, 207552, Note_on_c, 0, 75, 54
2, 207568, Note_on_c, 0, 78, 49
2, 207573, Note_on_c, 0, 72, 47
2, 207873, Note_on_c, 0, 81, 0
2, 207921, Note_on_c, 0, 72, 0
2, 207952, Note_on_c, 0, 78, 0
2, 207974, Note_on_c, 0, 75, 0
2, 208173, Note_on_c, 0, 75, 65
2, 208178, Note_on_c, 0, 84, 77
2, 208200, Note_on_c, 0, 66, 0
2, 208245, Note_on_c, 0, 69, 68
2, 208461, Note_on_c, 0, 84, 0
2, 208488, Note_on_c, 0, 69, 0
2, 208528, Note_on_c, 0, 75, 0
2, 208608, Note_on_c, 0, 66, 45
2, 209112, Note_on_c, 0, 66, 0
2, 209116, Note_on_c, 0, 82, 62
2, 209143, Note_on_c, 0, 74, 62
2, 209176, Note_on_c, 0, 67, 46
2, 209188, Note_on_c, 0, 79, 50
2, 209443, Control_c, 0, 64, 127
2, 209464, Note_on_c, 0, 74, 0
2, 209493, Note_on_c, 0, 79, 0
2, 209716, Note_on_c, 0, 82, 0
2, 209726, Note_on_c, 0, 67, 0
2, 209803, Control_c, 0, 64, 0
2, 210024, Note_on_c, 0, 69, 54
2, 210028, Note_on_c, 0, 84, 59
2, 210045, Note_on_c, 0, 79, 59
2, 210057, Note_on_c, 0, 72, 51
2, 210134, Note_on_c, 0, 69, 0
2, 210175, Note_on_c, 0, 72, 0
2, 210283, Note_on_c, 0, 79, 0
2, 210333, Control_c, 0, 64, 127
2, 210336, Note_on_c, 0, 84, 0
2, 211104, Control_c, 0, 64, 0
2, 211298, Note_on_c, 0, 86, 65
2, 211312, Note_on_c, 0, 62, 55
2, 211329, Note_on_c, 0, 52, 53
2, 211332, Note_on_c, 0, 79, 58
2, 211334, Note_on_c, 0, 74, 58
2, 211353, Note_on_c, 0, 82, 44
2, 211358, Note_on_c, 0, 58, 46
2, 212234, Control_c, 0, 64, 127
2, 212589, Note_on_c, 0, 62, 0
2, 212676, Note_on_c, 0, 58, 0
2, 212733, Note_on_c, 0, 74, 0
2, 212745, Note_on_c, 0, 52, 0
2, 212757, Note_on_c, 0, 79, 0
2, 212808, Note_on_c, 0, 86, 0
2, 212844, Note_on_c, 0, 82, 0
2, 213273, Note_on_c, 0, 62, 35
2, 213273, Note_on_c, 0, 58, 43
2, 213285, Note_on_c, 0, 52, 30
2, 214053, Note_on_c, 0, 52, 0
2, 214168, Note_on_c, 0, 77, 63
2, 214178, Note_on_c, 0, 58, 0
2, 214180, Note_on_c, 0, 62, 0
2, 214550, Note_on_c, 0, 77, 0
2, 214807, Control_c, 0, 64, 0
2, 215145, Note_on_c, 0, 77, 57
2, 215162, Note_on_c, 0, 70, 39
2, 215164, Note_on_c, 0, 75, 46
2, 215167, Note_on_c, 0, 63, 40
2, 215174, Note_on_c, 0, 67, 39
2, 215176, Note_on_c, 0, 58, 43
2, 215205, Note_on_c, 0, 53, 25
2, 215872, Note_on_c, 0, 63, 0
2, 215872, Control_c, 0, 64, 127
2, 216076, Note_on_c, 0, 67, 0
2, 216247, Note_on_c, 0, 58, 0
2, 216259, Note_on_c, 0, 70, 0
2, 216679, Note_on_c, 0, 77, 0
2, 216736, Note_on_c, 0, 75, 0
2, 216976, Control_c, 0, 64, 0
2, 217058, Note_on_c, 0, 58, 34
2, 217065, Note_on_c, 0, 75, 52
2, 217068, Note_on_c, 0, 65, 57
2, 217075, Note_on_c, 0, 77, 55
2, 217084, Note_on_c, 0, 70, 57
2, 217106, Note_on_c, 0, 63, 39
2, 217730, Note_on_c, 0, 53, 0
2, 217790, Note_on_c, 0, 63, 0
2, 217807, Note_on_c, 0, 58, 0
2, 217881, Note_on_c, 0, 65, 0
2, 217917, Control_c, 0, 64, 127
2, 218016, Note_on_c, 0, 53, 46
2, 218085, Note_on_c, 0, 70, 0
2, 218198, Note_on_c, 0, 77, 0
2, 218287, Note_on_c, 0, 75, 0
2, 218829, Control_c, 0, 64, 0
2, 218968, Note_on_c, 0, 60, 35
2, 218976, Note_on_c, 0, 65, 36
2, 219012, Note_on_c, 0, 62, 33
2, 219900, Note_on_c, 0, 77, 71
2, 220207, Note_on_c, 0, 77, 0
2, 220562, Note_on_c, 0, 79, 46
2, 220764, Note_on_c, 0, 79, 0
2, 220934, Note_on_c, 0, 82, 65
2, 221258, Note_on_c, 0, 82, 0
2, 221760, Note_on_c, 0, 74, 40
2, 222182, Note_on_c, 0, 74, 0
2, 222240, Note_on_c, 0, 53, 0
2, 222374, Note_on_c, 0, 75, 54
2, 222655, Note_on_c, 0, 75, 0
2, 222753, Note_on_c, 0, 77, 60
2, 222888, Note_on_c, 0, 65, 0
2, 222928, Note_on_c, 0, 62, 0
2, 223056, Note_on_c, 0, 77, 0
2, 223063, Note_on_c, 0, 60, 0
2, 223728, Note_on_c, 0, 72, 42
2, 224100, Note_on_c, 0, 72, 0
2, 224275, Note_on_c, 0, 74, 66
2, 224416, Note_on_c, 0, 63, 45
2, 224556, Note_on_c, 0, 74, 0
2, 224664, Note_on_c, 0, 63, 0
2, 224724, Note_on_c, 0, 75, 71
2, 225072, Note_on_c, 0, 75, 0
2, 225280, Note_on_c, 0, 74, 52
2, 225518, Note_on_c, 0, 74, 0
2, 225696, Note_on_c, 0, 72, 32
2, 226072, Note_on_c, 0, 72, 0
2, 226252, Note_on_c, 0, 70, 45
2, 226336, Note_on_c, 0, 70, 0
2, 226617, Note_on_c, 0, 69, 82
2, 227274, Note_on_c, 0, 68, 44
2, 227283, Note_on_c, 0, 69, 0
2, 227389, Note_on_c, 0, 68, 0
2, 227553, Note_on_c, 0, 69, 43
2, 228194, Note_on_c, 0, 69, 0
2, 228493, Note_on_c, 0, 72, 78
2, 229436, Control_c, 0, 64, 127
2, 230070, Note_on_c, 0, 72, 0
2, 230228, Control_c, 0, 64, 0
2, 230384, Note_on_c, 0, 57, 38
2, 230409, Note_on_c, 0, 63, 30
2, 230415, Note_on_c, 0, 55, 34
2, 230476, Note_on_c, 0, 60, 27
2, 231345, Note_on_c, 0, 55, 0
2, 231376, Control_c, 0, 64, 127
2, 231395, Note_on_c, 0, 63, 0
2, 231436, Note_on_c, 0, 67, 44
2, 231453, Note_on_c, 0, 57, 0
2, 231503, Control_c, 0, 64, 0
2, 231543, Note_on_c, 0, 67, 0
2, 231555, Note_on_c, 0, 60, 0
2, 232061, Note_on_c, 0, 72, 92
2, 232244, Note_on_c, 0, 72, 0
2, 232394, Note_on_c, 0, 60, 45
2, 232414, Note_on_c, 0, 54, 52
2, 232427, Note_on_c, 0, 62, 38
2, 232429, Note_on_c, 0, 74, 88
2, 232749, Note_on_c, 0, 62, 0
2, 232772, Note_on_c, 0, 74, 0
2, 233026, Note_on_c, 0, 75, 78
2, 233034, Note_on_c, 0, 60, 0
2, 233259, Note_on_c, 0, 75, 0
2, 233275, Note_on_c, 0, 54, 0
2, 233398, Note_on_c, 0, 77, 81
2, 233645, Note_on_c, 0, 77, 0
2, 233976, Note_on_c, 0, 75, 65
2, 234236, Note_on_c, 0, 75, 0
2, 234276, Note_on_c, 0, 55, 25
2, 234317, Note_on_c, 0, 62, 19
2, 234321, Note_on_c, 0, 58, 34
2, 234361, Note_on_c, 0, 74, 54
2, 234781, Note_on_c, 0, 74, 0
2, 234964, Note_on_c, 0, 72, 51
2, 235187, Note_on_c, 0, 72, 0
2, 235289, Note_on_c, 0, 70, 44
2, 235347, Note_on_c, 0, 62, 0
2, 235794, Note_on_c, 0, 70, 0
2, 236331, Note_on_c, 0, 71, 37
2, 236356, Note_on_c, 0, 58, 0
2, 236443, Note_on_c, 0, 72, 40
2, 236458, Note_on_c, 0, 71, 0
2, 236951, Note_on_c, 0, 58, 39
2, 237050, Note_on_c, 0, 72, 0
2, 237067, Note_on_c, 0, 58, 0
2, 237156, Note_on_c, 0, 55, 0
2, 237173, Note_on_c, 0, 70, 71
2, 237909, Note_on_c, 0, 70, 0
2, 238115, Note_on_c, 0, 63, 36
2, 238124, Note_on_c, 0, 56, 31
2, 238144, Note_on_c, 0, 68, 48
2, 238167, Note_on_c, 0, 60, 33
2, 238592, Note_on_c, 0, 68, 0
2, 238706, Note_on_c, 0, 70, 37
2, 238877, Note_on_c, 0, 70, 0
2, 238891, Note_on_c, 0, 68, 34
2, 238931, Note_on_c, 0, 63, 0
2, 238943, Note_on_c, 0, 56, 0
2, 239137, Note_on_c, 0, 68, 0
2, 239153, Note_on_c, 0, 60, 0
2, 239174, Note_on_c, 0, 67, 33
2, 239407, Note_on_c, 0, 67, 0
2, 239530, Note_on_c, 0, 68, 75
2, 239688, Note_on_c, 0, 66, 39
2, 239696, Note_on_c, 0, 56, 44
2, 239808, Note_on_c, 0, 68, 0
2, 239844, Note_on_c, 0, 70, 60
2, 239958, Note_on_c, 0, 66, 0
2, 240081, Note_on_c, 0, 70, 0
2, 240152, Note_on_c, 0, 72, 70
2, 240387, Note_on_c, 0, 72, 0
2, 240460, Note_on_c, 0, 74, 66
2, 240568, Note_on_c, 0, 66, 36
2, 240711, Note_on_c, 0, 74, 0
2, 240803, Note_on_c, 0, 75, 59
2, 241004, Note_on_c, 0, 75, 0
2, 241156, Note_on_c, 0, 77, 56
2, 241377, Note_on_c, 0, 77, 0
2, 241493, Note_on_c, 0, 79, 44
2, 241518, Note_on_c, 0, 66, 0
2, 241743, Note_on_c, 0, 79, 0
2, 241884, Note_on_c, 0, 82, 55
2, 242094, Note_on_c, 0, 82, 0
2, 242103, Note_on_c, 0, 56, 0
2, 242203, Note_on_c, 0, 86, 67
2, 242535, Note_on_c, 0, 86, 0
2, 242639, Note_on_c, 0, 81, 39
2, 242899, Note_on_c, 0, 81, 0
2, 243186, Note_on_c, 0, 81, 57
2, 243617, Note_on_c, 0, 81, 0
2, 246471, Note_on_c, 0, 67, 41
2, 246479, Note_on_c, 0, 63, 39
2, 246489, Note_on_c, 0, 60, 41
2, 246506, Note_on_c, 0, 56, 31
2, 246660, Note_on_c, 0, 67, 0
2, 246670, Note_on_c, 0, 56, 0
2, 246683, Note_on_c, 0, 63, 0
2, 246735, Note_on_c, 0, 60, 0
2, 247823, Note_on_c, 0, 66, 35
2, 247856, Note_on_c, 0, 56, 37
2, 247902, Note_on_c, 0, 62, 31
2, 247912, Note_on_c, 0, 60, 28
2, 248241, Note_on_c, 0, 60, 0
2, 248255, Note_on_c, 0, 62, 0
2, 248307, Note_on_c, 0, 66, 0
2, 248388, Note_on_c, 0, 56, 0
2, 249327, Note_on_c, 0, 65, 46
2, 249352, Note_on_c, 0, 62, 34
2, 249360, Note_on_c, 0, 60, 33
2, 249433, Note_on_c, 0, 65, 0
2, 249441, Note_on_c, 0, 62, 0
2, 249470, Note_on_c, 0, 60, 0
2, 251246, Note_on_c, 0, 62, 36
2, 251261, Note_on_c, 0, 60, 37
2, 251332, Note_on_c, 0, 62, 0
2, 251365, Note_on_c, 0, 60, 0
2, 251563, Note_on_c, 0, 86, 87
2, 251981, Note_on_c, 0, 86, 0
2, 252093, Note_on_c, 0, 90, 71
2, 252355, Note_on_c, 0, 90, 0
2, 252476, Note_on_c, 0, 91, 84
2, 252505, Note_on_c, 0, 89, 68
2, 252829, Note_on_c, 0, 89, 0
2, 253029, Note_on_c, 0, 91, 0
2, 253125, Note_on_c, 0, 86, 33
2, 253227, Note_on_c, 0, 60, 19
2, 253337, Note_on_c, 0, 60, 0
2, 253345, Note_on_c, 0, 86, 0
2, 253478, Note_on_c, 0, 89, 83
2, 254044, Note_on_c, 0, 87, 62
2, 254094, Note_on_c, 0, 60, 27
2, 254123, Note_on_c, 0, 89, 0
2, 254250, Note_on_c, 0, 60, 0
2, 254535, Note_on_c, 0, 87, 0
2, 254620, Note_on_c, 0, 79, 14
2, 254880, Note_on_c, 0, 79, 0
2, 255024, Note_on_c, 0, 86, 78
2, 255467, Note_on_c, 0, 84, 43
2, 255854, Note_on_c, 0, 86, 0
2, 255939, Note_on_c, 0, 84, 0
2, 255981, Note_on_c, 0, 79, 55
2, 256037, Note_on_c, 0, 65, 32
2, 256045, Note_on_c, 0, 63, 27
2, 256107, Note_on_c, 0, 60, 31
2, 256114, Note_on_c, 0, 63, 0
2, 256130, Note_on_c, 0, 65, 0
2, 256234, Note_on_c, 0, 79, 0
2, 256293, Note_on_c, 0, 60, 0
2, 257278, Note_on_c, 0, 67, 44
2, 257335, Note_on_c, 0, 74, 55
2, 257364, Note_on_c, 0, 58, 20
2, 257370, Note_on_c, 0, 63, 18
2, 257378, Note_on_c, 0, 62, 30
2, 257697, Note_on_c, 0, 62, 0
2, 257734, Note_on_c, 0, 58, 0
2, 257794, Note_on_c, 0, 67, 0
2, 257894, Note_on_c, 0, 74, 0
2, 257975, Note_on_c, 0, 75, 64
2, 258069, Note_on_c, 0, 63, 0
2, 258181, Note_on_c, 0, 75, 0
2, 258314, Note_on_c, 0, 77, 90
2, 258354, Note_on_c, 0, 76, 48
2, 258447, Note_on_c, 0, 76, 0
2, 258830, Note_on_c, 0, 77, 0
2, 258905, Note_on_c, 0, 67, 55
2, 258928, Note_on_c, 0, 74, 56
2, 258972, Note_on_c, 0, 63, 28
2, 258976, Note_on_c, 0, 67, 0
2, 259001, Note_on_c, 0, 62, 28
2, 259086, Note_on_c, 0, 63, 0
2, 259088, Note_on_c, 0, 62, 0
2, 259205, Note_on_c, 0, 74, 0
2, 259327, Note_on_c, 0, 67, 43
2, 259941, Note_on_c, 0, 67, 0
2, 260195, Note_on_c, 0, 67, 41
2, 260762, Note_on_c, 0, 67, 0
2, 261251, Note_on_c, 0, 67, 47
2, 261725, Note_on_c, 0, 67, 0
2, 262782, Note_on_c, 0, 63, 43
2, 262805, Note_on_c, 0, 53, 35
2, 262813, Note_on_c, 0, 60, 41
2, 263107, Note_on_c, 0, 63, 0
2, 263111, Note_on_c, 0, 53, 0
2, 263157, Note_on_c, 0, 60, 0
2, 264983, Note_on_c, 0, 64, 62
2, 265004, Note_on_c, 0, 76, 99
2, 265016, Note_on_c, 0, 58, 55
2, 265521, Note_on_c, 0, 76, 0
2, 265613, Note_on_c, 0, 73, 39
2, 266021, Note_on_c, 0, 58, 0
2, 266025, Note_on_c, 0, 69, 29
2, 266096, Note_on_c, 0, 64, 0
2, 266154, Note_on_c, 0, 73, 0
2, 266482, Note_on_c, 0, 69, 0
2, 266616, Note_on_c, 0, 74, 62
2, 266628, Note_on_c, 0, 65, 51
2, 266674, Note_on_c, 0, 60, 35
2, 266680, Note_on_c, 0, 62, 40
2, 267088, Note_on_c, 0, 65, 0
2, 267556, Note_on_c, 0, 69, 56
2, 267574, Note_on_c, 0, 74, 0
2, 267859, Note_on_c, 0, 60, 0
2, 267878, Note_on_c, 0, 69, 0
2, 267882, Note_on_c, 0, 62, 0
2, 267945, Note_on_c, 0, 65, 45
2, 268500, Note_on_c, 0, 65, 0
2, 268617, Note_on_c, 0, 63, 53
2, 268721, Note_on_c, 0, 60, 30
2, 268773, Note_on_c, 0, 63, 0
2, 268839, Note_on_c, 0, 72, 89
2, 268939, Note_on_c, 0, 60, 0
2, 269284, Note_on_c, 0, 72, 0
2, 269465, Note_on_c, 0, 63, 46
2, 269919, Note_on_c, 0, 60, 30
2, 270270, Note_on_c, 0, 63, 0
2, 270310, Note_on_c, 0, 60, 0
2, 270434, Note_on_c, 0, 66, 79
2, 270767, Note_on_c, 0, 66, 0
2, 270954, Note_on_c, 0, 63, 69
2, 271298, Note_on_c, 0, 63, 0
2, 271427, Note_on_c, 0, 62, 75
2, 271672, Note_on_c, 0, 62, 0
2, 271797, Note_on_c, 0, 60, 54
2, 272340, Note_on_c, 0, 58, 57
2, 272388, Note_on_c, 0, 60, 0
2, 272569, Note_on_c, 0, 58, 0
2, 272637, Note_on_c, 0, 43, 26
2, 272725, Note_on_c, 0, 57, 53
2, 272729, Note_on_c, 0, 50, 27
2, 273490, Note_on_c, 0, 57, 0
2, 273569, Note_on_c, 0, 58, 68
2, 273715, Note_on_c, 0, 50, 0
2, 274143, Note_on_c, 0, 58, 0
2, 274193, Note_on_c, 0, 43, 0
2, 274214, Note_on_c, 0, 54, 49
2, 274237, Note_on_c, 0, 50, 30
2, 274428, Note_on_c, 0, 50, 0
2, 274455, Note_on_c, 0, 54, 0
2, 274549, Note_on_c, 0, 57, 53
2, 275191, Note_on_c, 0, 57, 0
2, 275246, Note_on_c, 0, 54, 25
2, 275429, Note_on_c, 0, 54, 0
2, 275533, Note_on_c, 0, 55, 28
2, 276042, Note_on_c, 0, 55, 0
2, 276123, Note_on_c, 0, 57, 55
2, 276408, Note_on_c, 0, 57, 0
2, 276527, Note_on_c, 0, 58, 44
2, 277011, Note_on_c, 0, 58, 0
2, 277053, Note_on_c, 0, 59, 55
2, 277276, Note_on_c, 0, 59, 0
2, 277394, Note_on_c, 0, 62, 75
2, 277448, Note_on_c, 0, 58, 33
2, 277507, Note_on_c, 0, 52, 37
2, 277808, Note_on_c, 0, 58, 0
2, 277985, Note_on_c, 0, 62, 0
2, 278099, Note_on_c, 0, 59, 36
2, 278334, Note_on_c, 0, 59, 0
2, 278336, Note_on_c, 0, 52, 0
2, 278359, Note_on_c, 0, 60, 53
2, 278848, Note_on_c, 0, 60, 0
2, 278965, Note_on_c, 0, 62, 71
2, 279052, Note_on_c, 0, 58, 36
2, 279058, Note_on_c, 0, 52, 24
2, 279191, Note_on_c, 0, 52, 0
2, 279202, Note_on_c, 0, 58, 0
2, 279229, Note_on_c, 0, 62, 0
2, 279381, Note_on_c, 0, 63, 59
2, 279813, Note_on_c, 0, 63, 0
2, 279882, Note_on_c, 0, 64, 66
2, 280192, Note_on_c, 0, 64, 0
2, 280312, Note_on_c, 0, 65, 54
2, 280699, Note_on_c, 0, 65, 0
2, 281226, Note_on_c, 0, 63, 45
2, 281240, Note_on_c, 0, 67, 42
2, 281251, Note_on_c, 0, 57, 44
2, 281723, Note_on_c, 0, 67, 0
2, 281773, Note_on_c, 0, 63, 0
2, 281775, Note_on_c, 0, 57, 0
2, 282376, Control_c, 0, 64, 127
2, 282417, Control_c, 0, 64, 0
2, 282860, Note_on_c, 0, 61, 54
2, 282873, Note_on_c, 0, 65, 66
2, 282875, Note_on_c, 0, 55, 59
2, 283025, Control_c, 0, 64, 127
2, 283150, Control_c, 0, 64, 0
2, 283193, Control_c, 0, 64, 127
2, 283834, Note_on_c, 0, 55, 0
2, 283844, Note_on_c, 0, 65, 0
2, 284021, Note_on_c, 0, 61, 0
2, 284200, Note_on_c, 0, 86, 79
2, 284204, Note_on_c, 0, 74, 85
2, 284206, Note_on_c, 0, 64, 78
2, 284214, Control_c, 0, 64, 0
2, 284216, Note_on_c, 0, 60, 71
2, 284221, Note_on_c, 0, 54, 77
2, 284397, Note_on_c, 0, 82, 13
2, 284485, Control_c, 0, 64, 127
2, 284678, Note_on_c, 0, 74, 0
2, 284682, Note_on_c, 0, 82, 0
2, 284739, Note_on_c, 0, 86, 0
2, 284795, Note_on_c, 0, 64, 0
2, 284811, Note_on_c, 0, 54, 0
2, 284840, Control_c, 0, 64, 0
2, 284843, Note_on_c, 0, 60, 0
2, 285173, Note_on_c, 0, 89, 84
2, 285180, Note_on_c, 0, 64, 85
2, 285182, Note_on_c, 0, 60, 74
2, 285184, Note_on_c, 0, 77, 87
2, 285188, Note_on_c, 0, 54, 82
2, 285489, Note_on_c, 0, 89, 0
2, 285614, Note_on_c, 0, 77, 0
2, 285681, Note_on_c, 0, 60, 0
2, 285712, Note_on_c, 0, 54, 0
2, 285749, Note_on_c, 0, 64, 0
2, 286143, Note_on_c, 0, 65, 68
2, 286153, Note_on_c, 0, 82, 65
2, 286155, Note_on_c, 0, 86, 68
2, 286161, Note_on_c, 0, 74, 75
2, 286165, Note_on_c, 0, 58, 55
2, 286167, Note_on_c, 0, 60, 50
2, 286170, Note_on_c, 0, 54, 55
2, 286413, Note_on_c, 0, 86, 0
2, 286459, Note_on_c, 0, 82, 0
2, 286531, Note_on_c, 0, 74, 0
2, 286594, Note_on_c, 0, 58, 0
2, 286625, Note_on_c, 0, 60, 0
2, 286629, Note_on_c, 0, 54, 0
2, 286642, Note_on_c, 0, 65, 0
2, 287068, Control_c, 0, 64, 127
2, 287083, Note_on_c, 0, 65, 58
2, 287087, Note_on_c, 0, 54, 55
2, 287097, Note_on_c, 0, 68, 53
2, 287108, Control_c, 0, 64, 0
2, 287110, Note_on_c, 0, 82, 46
2, 287114, Note_on_c, 0, 75, 42
2, 287133, Note_on_c, 0, 80, 33
2, 287135, Note_on_c, 0, 58, 48
2, 287147, Note_on_c, 0, 60, 40
2, 287178, Note_on_c, 0, 82, 0
2, 287409, Note_on_c, 0, 65, 0
2, 287430, Note_on_c, 0, 60, 0
2, 287555, Note_on_c, 0, 80, 0
2, 287601, Note_on_c, 0, 68, 0
2, 287617, Note_on_c, 0, 75, 0
2, 287628, Note_on_c, 0, 54, 0
2, 287800, Note_on_c, 0, 58, 0
2, 288023, Note_on_c, 0, 68, 52
2, 288029, Note_on_c, 0, 80, 38
2, 288058, Note_on_c, 0, 57, 47
2, 288069, Note_on_c, 0, 62, 44
2, 288089, Note_on_c, 0, 58, 34
2, 288096, Note_on_c, 0, 74, 41
2, 288116, Note_on_c, 0, 55, 31
2, 288164, Note_on_c, 0, 68, 0
2, 288166, Note_on_c, 0, 81, 40
2, 288175, Note_on_c, 0, 69, 56
2, 288266, Note_on_c, 0, 80, 0
2, 288838, Note_on_c, 0, 81, 0
2, 288886, Note_on_c, 0, 74, 0
2, 289100, Note_on_c, 0, 57, 0
2, 289104, Note_on_c, 0, 62, 0
2, 289117, Note_on_c, 0, 69, 0
2, 289169, Note_on_c, 0, 58, 0
2, 289229, Note_on_c, 0, 55, 0
2, 289622, Note_on_c, 0, 62, 44
2, 289666, Note_on_c, 0, 57, 35
2, 289672, Note_on_c, 0, 58, 35
2, 289701, Note_on_c, 0, 62, 0
2, 289776, Note_on_c, 0, 58, 0
2, 289803, Note_on_c, 0, 57, 0
2, 289947, Note_on_c, 0, 72, 57
2, 290234, Note_on_c, 0, 72, 0
2, 290240, Note_on_c, 0, 70, 47
2, 290461, Note_on_c, 0, 70, 0
2, 290561, Note_on_c, 0, 69, 62
2, 290729, Note_on_c, 0, 69, 0
2, 291538, Note_on_c, 0, 62, 50
2, 291548, Note_on_c, 0, 58, 46
2, 291571, Note_on_c, 0, 55, 35
2, 291628, Note_on_c, 0, 62, 0
2, 291690, Note_on_c, 0, 55, 0
2, 291719, Note_on_c, 0, 58, 0
2, 291896, Note_on_c, 0, 72, 63
2, 292095, Note_on_c, 0, 72, 0
2, 292173, Note_on_c, 0, 70, 46
2, 292483, Note_on_c, 0, 69, 45
2, 292485, Note_on_c, 0, 70, 0
2, 292580, Note_on_c, 0, 63, 49
2, 292595, Note_on_c, 0, 60, 38
2, 292632, Note_on_c, 0, 69, 0
2, 292757, Note_on_c, 0, 75, 70
2, 292761, Note_on_c, 0, 63, 0
2, 292984, Note_on_c, 0, 60, 0
2, 293040, Note_on_c, 0, 75, 0
2, 293113, Note_on_c, 0, 74, 47
2, 293387, Note_on_c, 0, 74, 0
2, 293408, Note_on_c, 0, 72, 55
2, 293483, Note_on_c, 0, 72, 0
2, 293587, Note_on_c, 0, 63, 51
2, 293691, Note_on_c, 0, 63, 0
2, 294492, Note_on_c, 0, 60, 65
2, 294496, Note_on_c, 0, 65, 75
2, 294498, Note_on_c, 0, 54, 65
2, 295378, Note_on_c, 0, 60, 0
2, 295388, Note_on_c, 0, 65, 0
2, 295586, Note_on_c, 0, 54, 0
2, 295754, Note_on_c, 0, 62, 51
2, 295763, Note_on_c, 0, 57, 53
2, 295777, Note_on_c, 0, 58, 50
2, 296104, Note_on_c, 0, 62, 0
2, 296137, Note_on_c, 0, 58, 0
2, 296239, Note_on_c, 0, 57, 0
2, 297323, Note_on_c, 0, 62, 49
2, 297329, Note_on_c, 0, 57, 55
2, 297350, Note_on_c, 0, 58, 42
2, 297431, Note_on_c, 0, 62, 0
2, 297433, Note_on_c, 0, 57, 0
2, 297547, Note_on_c, 0, 58, 0
2, 297643, Note_on_c, 0, 77, 103
2, 298153, Note_on_c, 0, 77, 0
2, 298211, Note_on_c, 0, 74, 49
2, 298313, Note_on_c, 0, 57, 29
2, 298402, Note_on_c, 0, 74, 0
2, 298465, Note_on_c, 0, 57, 0
2, 298569, Note_on_c, 0, 76, 89
2, 299086, Note_on_c, 0, 76, 0
2, 299172, Note_on_c, 0, 75, 74
2, 299523, Note_on_c, 0, 75, 0
2, 299565, Note_on_c, 0, 73, 37
2, 300124, Note_on_c, 0, 72, 66
2, 300143, Note_on_c, 0, 73, 0
2, 300366, Note_on_c, 0, 72, 0
2, 300582, Note_on_c, 0, 70, 21
2, 301106, Note_on_c, 0, 68, 42
2, 301262, Note_on_c, 0, 70, 0
2, 301335, Note_on_c, 0, 68, 0
2, 301464, Note_on_c, 0, 67, 59
2, 302140, Note_on_c, 0, 62, 24
2, 302171, Note_on_c, 0, 60, 24
2, 302179, Note_on_c, 0, 56, 25
2, 302215, Note_on_c, 0, 67, 0
2, 302225, Note_on_c, 0, 62, 0
2, 302263, Note_on_c, 0, 56, 0
2, 302292, Note_on_c, 0, 60, 0
2, 302323, Note_on_c, 0, 66, 67
2, 302957, Note_on_c, 0, 62, 35
2, 303043, Note_on_c, 0, 62, 0
2, 303097, Note_on_c, 0, 66, 0
2, 303421, Note_on_c, 0, 65, 22
2, 303981, Note_on_c, 0, 62, 32
2, 304022, Note_on_c, 0, 66, 54
2, 304037, Note_on_c, 0, 65, 0
2, 304070, Note_on_c, 0, 62, 0
2, 304214, Note_on_c, 0, 66, 0
2, 304320, Note_on_c, 0, 69, 78
2, 304954, Note_on_c, 0, 66, 37
2, 304981, Note_on_c, 0, 69, 0
2, 305243, Note_on_c, 0, 66, 0
2, 305318, Note_on_c, 0, 67, 49
2, 305855, Note_on_c, 0, 67, 0
2, 305998, Note_on_c, 0, 62, 53
2, 306213, Note_on_c, 0, 62, 0
2, 307895, Note_on_c, 0, 63, 45
2, 307943, Note_on_c, 0, 60, 34
2, 308043, Note_on_c, 0, 60, 0
2, 308045, Note_on_c, 0, 63, 0
2, 308342, Note_on_c, 0, 65, 30
2, 308482, Note_on_c, 0, 65, 0
2, 308640, Note_on_c, 0, 67, 52
2, 308821, Note_on_c, 0, 67, 0
2, 308933, Note_on_c, 0, 68, 71
2, 309004, Note_on_c, 0, 66, 43
2, 309106, Note_on_c, 0, 66, 0
2, 309166, Note_on_c, 0, 68, 0
2, 309306, Note_on_c, 0, 70, 47
2, 309482, Note_on_c, 0, 70, 0
2, 309616, Note_on_c, 0, 72, 60
2, 309807, Note_on_c, 0, 72, 0
2, 309838, Note_on_c, 0, 66, 46
2, 309896, Note_on_c, 0, 56, 31
2, 309917, Note_on_c, 0, 74, 54
2, 310038, Note_on_c, 0, 66, 0
2, 310113, Note_on_c, 0, 74, 0
2, 310194, Note_on_c, 0, 56, 0
2, 310287, Note_on_c, 0, 75, 54
2, 310549, Note_on_c, 0, 75, 0
2, 310608, Note_on_c, 0, 77, 73
2, 310938, Note_on_c, 0, 77, 0
2, 310943, Note_on_c, 0, 74, 74
2, 310974, Note_on_c, 0, 65, 42
2, 311003, Note_on_c, 0, 62, 29
2, 311030, Note_on_c, 0, 60, 26
2, 311076, Note_on_c, 0, 65, 0
2, 311161, Note_on_c, 0, 60, 0
2, 311186, Note_on_c, 0, 62, 0
2, 311263, Note_on_c, 0, 74, 0
2, 311721, Note_on_c, 0, 74, 72
2, 311980, Note_on_c, 0, 74, 0
2, 312295, Note_on_c, 0, 74, 80
2, 312725, Note_on_c, 0, 74, 0
2, 312808, Note_on_c, 0, 75, 71
2, 313149, Note_on_c, 0, 75, 0
2, 313195, Note_on_c, 0, 67, 48
2, 313638, Note_on_c, 0, 67, 0
2, 314038, Note_on_c, 0, 67, 49
2, 314562, Note_on_c, 0, 67, 0
2, 317490, Note_on_c, 0, 65, 45
2, 317547, Note_on_c, 0, 60, 31
2, 317584, Note_on_c, 0, 65, 0
2, 317671, Note_on_c, 0, 60, 0
2, 317935, Note_on_c, 0, 79, 22
2, 318220, Note_on_c, 0, 79, 0
2, 318447, Note_on_c, 0, 82, 74
2, 318726, Note_on_c, 0, 82, 0
2, 318844, Note_on_c, 0, 83, 89
2, 319258, Note_on_c, 0, 83, 0
2, 319391, Note_on_c, 0, 86, 81
2, 319456, Note_on_c, 0, 63, 38
2, 319466, Note_on_c, 0, 67, 43
2, 319483, Note_on_c, 0, 60, 37
2, 319558, Note_on_c, 0, 67, 0
2, 319718, Note_on_c, 0, 63, 0
2, 319722, Note_on_c, 0, 86, 0
2, 319778, Note_on_c, 0, 84, 56
2, 319780, Note_on_c, 0, 60, 0
2, 320221, Note_on_c, 0, 84, 0
2, 320323, Note_on_c, 0, 79, 47
2, 320596, Note_on_c, 0, 79, 0
2, 320762, Note_on_c, 0, 75, 38
2, 321228, Note_on_c, 0, 75, 0
2, 321359, Note_on_c, 0, 74, 41
2, 321424, Note_on_c, 0, 60, 18
2, 321517, Note_on_c, 0, 74, 0
2, 321600, Note_on_c, 0, 60, 0
2, 321663, Note_on_c, 0, 77, 74
2, 322189, Note_on_c, 0, 77, 0
2, 322285, Note_on_c, 0, 74, 47
2, 322345, Note_on_c, 0, 67, 29
2, 322368, Note_on_c, 0, 63, 29
2, 322457, Note_on_c, 0, 74, 0
2, 322459, Note_on_c, 0, 67, 0
2, 322576, Note_on_c, 0, 75, 49
2, 322593, Note_on_c, 0, 63, 0
2, 323283, Note_on_c, 0, 75, 0
2, 323504, Note_on_c, 0, 74, 60
2, 324096, Note_on_c, 0, 74, 0
2, 324157, Note_on_c, 0, 73, 32
2, 324388, Note_on_c, 0, 73, 0
2, 324569, Note_on_c, 0, 72, 24
2, 325182, Note_on_c, 0, 68, 62
2, 325188, Note_on_c, 0, 72, 0
2, 326391, Note_on_c, 0, 68, 0
2, 326472, Note_on_c, 0, 69, 37
2, 328288, Note_on_c, 0, 69, 0
2, 328352, Note_on_c, 0, 70, 52
2, 328920, Note_on_c, 0, 70, 0
2, 329032, Note_on_c, 0, 72, 53
2, 329055, Note_on_c, 0, 60, 35
2, 329240, Note_on_c, 0, 60, 0
2, 329309, Note_on_c, 0, 72, 0
2, 329409, Note_on_c, 0, 73, 70
2, 329846, Note_on_c, 0, 73, 0
2, 330024, Note_on_c, 0, 75, 83
2, 330056, Note_on_c, 0, 63, 47
2, 330078, Note_on_c, 0, 60, 41
2, 330145, Note_on_c, 0, 54, 26
2, 330249, Note_on_c, 0, 63, 0
2, 330322, Note_on_c, 0, 54, 0
2, 330401, Note_on_c, 0, 75, 0
2, 330565, Note_on_c, 0, 73, 36
2, 330796, Note_on_c, 0, 60, 0
2, 330979, Note_on_c, 0, 73, 0
2, 331008, Note_on_c, 0, 74, 66
2, 331229, Note_on_c, 0, 74, 0
2, 332837, Note_on_c, 0, 63, 62
2, 332847, Note_on_c, 0, 52, 52
2, 332870, Note_on_c, 0, 58, 53
2, 332949, Note_on_c, 0, 58, 0
2, 332968, Note_on_c, 0, 52, 0
2, 332986, Note_on_c, 0, 63, 0
2, 334197, Note_on_c, 0, 62, 26
2, 334207, Note_on_c, 0, 58, 37
2, 334209, Note_on_c, 0, 52, 20
2, 334372, Note_on_c, 0, 52, 0
2, 334426, Note_on_c, 0, 62, 0
2, 334465, Note_on_c, 0, 58, 0
2, 335145, Note_on_c, 0, 85, 70
2, 335156, Note_on_c, 0, 73, 59
2, 335661, Note_on_c, 0, 73, 0
2, 335690, Note_on_c, 0, 74, 41
2, 335707, Note_on_c, 0, 85, 0
2, 335909, Note_on_c, 0, 74, 0
2, 336733, Note_on_c, 0, 62, 42
2, 336755, Note_on_c, 0, 58, 36
2, 336789, Note_on_c, 0, 52, 24
2, 336816, Note_on_c, 0, 62, 0
2, 336872, Note_on_c, 0, 58, 0
2, 336899, Note_on_c, 0, 52, 0
2, 337716, Note_on_c, 0, 79, 70
2, 337968, Note_on_c, 0, 79, 0
2, 338249, Note_on_c, 0, 82, 85
2, 338763, Note_on_c, 0, 82, 0
2, 338983, Note_on_c, 0, 63, 52
2, 338991, Note_on_c, 0, 77, 55
2, 339112, Note_on_c, 0, 58, 33
2, 339378, Note_on_c, 0, 77, 0
2, 339476, Note_on_c, 0, 58, 0
2, 339530, Note_on_c, 0, 63, 0
2, 340549, Note_on_c, 0, 63, 54
2, 340578, Note_on_c, 0, 60, 34
2, 340622, Note_on_c, 0, 58, 37
2, 340680, Note_on_c, 0, 60, 0
2, 340724, Note_on_c, 0, 63, 0
2, 340853, Note_on_c, 0, 58, 0
2, 341548, Note_on_c, 0, 75, 83
2, 341814, Note_on_c, 0, 75, 0
2, 341947, Note_on_c, 0, 74, 70
2, 342305, Note_on_c, 0, 74, 0
2, 342459, Note_on_c, 0, 75, 65
2, 342702, Note_on_c, 0, 75, 0
2, 342777, Note_on_c, 0, 77, 82
2, 342787, Note_on_c, 0, 62, 56
2, 342796, Note_on_c, 0, 65, 59
2, 342825, Note_on_c, 0, 60, 46
2, 342860, Note_on_c, 0, 55, 35
2, 343016, Note_on_c, 0, 55, 0
2, 343060, Note_on_c, 0, 65, 0
2, 343147, Note_on_c, 0, 60, 0
2, 343158, Note_on_c, 0, 77, 0
2, 343162, Note_on_c, 0, 62, 0
2, 343688, Note_on_c, 0, 67, 58
2, 344035, Note_on_c, 0, 67, 0
2, 344329, Note_on_c, 0, 65, 49
2, 344347, Note_on_c, 0, 62, 33
2, 344354, Note_on_c, 0, 60, 37
2, 344445, Note_on_c, 0, 65, 0
2, 344453, Note_on_c, 0, 62, 0
2, 344535, Note_on_c, 0, 60, 0
2, 345579, Note_on_c, 0, 63, 52
2, 345629, Note_on_c, 0, 60, 36
2, 345631, Note_on_c, 0, 55, 28
2, 345726, Note_on_c, 0, 57, 26
2, 345909, Note_on_c, 0, 55, 0
2, 345918, Note_on_c, 0, 60, 0
2, 345926, Note_on_c, 0, 63, 0
2, 345982, Note_on_c, 0, 57, 0
2, 347205, Note_on_c, 0, 64, 60
2, 347209, Note_on_c, 0, 60, 49
2, 347218, Note_on_c, 0, 54, 37
2, 347293, Note_on_c, 0, 64, 0
2, 347334, Note_on_c, 0, 60, 0
2, 347411, Note_on_c, 0, 54, 0
2, 347538, Note_on_c, 0, 81, 78
2, 348016, Note_on_c, 0, 81, 0
2, 348166, Note_on_c, 0, 82, 62
2, 348368, Note_on_c, 0, 82, 0
2, 348501, Note_on_c, 0, 84, 85
2, 348896, Note_on_c, 0, 84, 0
2, 349144, Note_on_c, 0, 84, 80
2, 349256, Note_on_c, 0, 62, 37
2, 349333, Note_on_c, 0, 62, 0
2, 349385, Note_on_c, 0, 84, 0
2, 349510, Note_on_c, 0, 84, 78
2, 350221, Note_on_c, 0, 83, 62
2, 350334, Note_on_c, 0, 84, 0
2, 350383, Note_on_c, 0, 82, 67
2, 350421, Note_on_c, 0, 83, 0
2, 350569, Note_on_c, 0, 81, 48
2, 350781, Note_on_c, 0, 82, 0
2, 351024, Note_on_c, 0, 81, 0
2, 351172, Note_on_c, 0, 84, 85
2, 351201, Note_on_c, 0, 62, 36
2, 351284, Note_on_c, 0, 62, 0
2, 351288, Note_on_c, 0, 58, 25
2, 351378, Note_on_c, 0, 58, 0
2, 351744, Note_on_c, 0, 83, 59
2, 351854, Note_on_c, 0, 84, 0
2, 351941, Note_on_c, 0, 82, 44
2, 351995, Note_on_c, 0, 83, 0
2, 352179, Note_on_c, 0, 81, 52
2, 352324, Note_on_c, 0, 82, 0
2, 352351, Note_on_c, 0, 62, 19
2, 352380, Note_on_c, 0, 81, 0
2, 352422, Note_on_c, 0, 62, 0
2, 352488, Note_on_c, 0, 84, 87
2, 353035, Note_on_c, 0, 81, 56
2, 353108, Note_on_c, 0, 84, 0
2, 353287, Note_on_c, 0, 81, 0
2, 353402, Note_on_c, 0, 82, 69
2, 353791, Note_on_c, 0, 82, 0
2, 353955, Note_on_c, 0, 81, 63
2, 353971, Note_on_c, 0, 63, 59
2, 353988, Note_on_c, 0, 55, 36
2, 353996, Note_on_c, 0, 60, 44
2, 354042, Note_on_c, 0, 57, 38
2, 354144, Note_on_c, 0, 63, 0
2, 354265, Note_on_c, 0, 81, 0
2, 354298, Note_on_c, 0, 55, 0
2, 354346, Note_on_c, 0, 57, 0
2, 354398, Note_on_c, 0, 75, 50
2, 354498, Note_on_c, 0, 60, 0
2, 354962, Note_on_c, 0, 75, 0
2, 355009, Note_on_c, 0, 72, 38
2, 355118, Note_on_c, 0, 72, 0
2, 355301, Note_on_c, 0, 74, 71
2, 355862, Note_on_c, 0, 60, 49
2, 355885, Note_on_c, 0, 54, 39
2, 355900, Note_on_c, 0, 62, 24
2, 355945, Note_on_c, 0, 60, 0
2, 355968, Note_on_c, 0, 62, 0
2, 355987, Note_on_c, 0, 54, 0
2, 356767, Note_on_c, 0, 74, 0
2, 356865, Note_on_c, 0, 75, 71
2, 356892, Note_on_c, 0, 62, 57
2, 356931, Note_on_c, 0, 57, 44
2, 356956, Note_on_c, 0, 58, 25
2, 356965, Note_on_c, 0, 62, 0
2, 357029, Note_on_c, 0, 58, 0
2, 357037, Note_on_c, 0, 57, 0
2, 357247, Note_on_c, 0, 74, 68
2, 357372, Note_on_c, 0, 75, 0
2, 357795, Note_on_c, 0, 74, 0
2, 357832, Note_on_c, 0, 72, 60
2, 357851, Note_on_c, 0, 62, 22
2, 357919, Note_on_c, 0, 62, 0
2, 358169, Note_on_c, 0, 72, 0
2, 358186, Note_on_c, 0, 70, 44
2, 358662, Note_on_c, 0, 70, 0
2, 359038, Note_on_c, 0, 70, 52
2, 359577, Note_on_c, 0, 70, 0
2, 359702, Note_on_c, 0, 69, 45
2, 359910, Note_on_c, 0, 69, 0
2, 360078, Note_on_c, 0, 67, 30
2, 360488, Note_on_c, 0, 67, 0
2, 361528, Note_on_c, 0, 67, 38
2, 361555, Note_on_c, 0, 63, 31
2, 361626, Note_on_c, 0, 60, 24
2, 361701, Note_on_c, 0, 67, 0
2, 361799, Note_on_c, 0, 63, 0
2, 361815, Note_on_c, 0, 60, 0
2, 362566, Note_on_c, 0, 62, 30
2, 362608, Note_on_c, 0, 60, 24
2, 362660, Note_on_c, 0, 62, 0
2, 362733, Note_on_c, 0, 60, 0
2, 362945, Note_on_c, 0, 68, 40
2, 363169, Note_on_c, 0, 68, 0
2, 363234, Note_on_c, 0, 67, 43
2, 363569, Note_on_c, 0, 67, 0
2, 363583, Note_on_c, 0, 65, 42
2, 363685, Note_on_c, 0, 65, 0
2, 364349, Note_on_c, 0, 70, 58
2, 364602, Note_on_c, 0, 68, 47
2, 364777, Note_on_c, 0, 70, 0
2, 364958, Note_on_c, 0, 62, 24
2, 364960, Note_on_c, 0, 68, 0
2, 365018, Note_on_c, 0, 67, 26
2, 365129, Note_on_c, 0, 62, 0
2, 365351, Note_on_c, 0, 67, 0
2, 365803, Note_on_c, 0, 74, 70
2, 366150, Note_on_c, 0, 74, 0
2, 366152, Note_on_c, 0, 69, 56
2, 366425, Note_on_c, 0, 62, 30
2, 366456, Note_on_c, 0, 69, 0
2, 366489, Note_on_c, 0, 60, 33
2, 366493, Note_on_c, 0, 66, 38
2, 366566, Note_on_c, 0, 66, 0
2, 366630, Note_on_c, 0, 62, 0
2, 366641, Note_on_c, 0, 60, 0
2, 367306, Note_on_c, 0, 65, 50
2, 367319, Note_on_c, 0, 62, 40
2, 367344, Note_on_c, 0, 60, 34
2, 367388, Note_on_c, 0, 65, 0
2, 367410, Note_on_c, 0, 62, 0
2, 367444, Note_on_c, 0, 60, 0
2, 367635, Note_on_c, 0, 77, 71
2, 367847, Note_on_c, 0, 77, 0
2, 367949, Note_on_c, 0, 74, 48
2, 368209, Note_on_c, 0, 74, 0
2, 368317, Note_on_c, 0, 60, 22
2, 368319, Note_on_c, 0, 70, 50
2, 368438, Note_on_c, 0, 70, 0
2, 368477, Note_on_c, 0, 60, 0
2, 369147, Note_on_c, 0, 63, 48
2, 369178, Note_on_c, 0, 60, 36
2, 369197, Note_on_c, 0, 65, 32
2, 369287, Note_on_c, 0, 65, 0
2, 369293, Note_on_c, 0, 63, 0
2, 369447, Note_on_c, 0, 60, 0
2, 369517, Note_on_c, 0, 79, 68
2, 369711, Note_on_c, 0, 79, 0
2, 369836, Note_on_c, 0, 75, 59
2, 370091, Note_on_c, 0, 75, 0
2, 370200, Note_on_c, 0, 63, 39
2, 370206, Note_on_c, 0, 67, 45
2, 370264, Note_on_c, 0, 72, 35
2, 370291, Note_on_c, 0, 67, 0
2, 370360, Note_on_c, 0, 63, 0
2, 370368, Note_on_c, 0, 72, 0
2, 370944, Note_on_c, 0, 82, 73
2, 371258, Note_on_c, 0, 78, 64
2, 371404, Note_on_c, 0, 82, 0
2, 371525, Note_on_c, 0, 78, 0
2, 371639, Note_on_c, 0, 66, 42
2, 371649, Note_on_c, 0, 74, 39
2, 371687, Note_on_c, 0, 56, 36
2, 371824, Note_on_c, 0, 74, 0
2, 371993, Note_on_c, 0, 66, 0
2, 372126, Note_on_c, 0, 56, 0
2, 373151, Note_on_c, 0, 65, 53
2, 373197, Note_on_c, 0, 62, 27
2, 373249, Note_on_c, 0, 65, 0
2, 373268, Note_on_c, 0, 62, 0
2, 374449, Note_on_c, 0, 81, 83
2, 374470, Note_on_c, 0, 74, 83
2, 374620, Note_on_c, 0, 74, 0
2, 374811, Note_on_c, 0, 78, 60
2, 374851, Note_on_c, 0, 81, 0
2, 375038, Note_on_c, 0, 62, 25
2, 375104, Note_on_c, 0, 78, 0
2, 375156, Note_on_c, 0, 62, 0
2, 375167, Note_on_c, 0, 74, 51
2, 375352, Note_on_c, 0, 74, 0
2, 375579, Note_on_c, 0, 67, 28
2, 375807, Note_on_c, 0, 67, 0
2, 375922, Note_on_c, 0, 79, 74
2, 375974, Note_on_c, 0, 65, 46
2, 376115, Note_on_c, 0, 65, 0
2, 377026, Note_on_c, 0, 65, 22
2, 377035, Note_on_c, 0, 62, 29
2, 377059, Note_on_c, 0, 60, 24
2, 377095, Note_on_c, 0, 65, 0
2, 377120, Note_on_c, 0, 62, 0
2, 377163, Note_on_c, 0, 79, 0
2, 377191, Note_on_c, 0, 60, 0
2, 377297, Note_on_c, 0, 74, 57
2, 377883, Note_on_c, 0, 74, 0
2, 378045, Note_on_c, 0, 67, 33
2, 378156, Note_on_c, 0, 67, 0
2, 378384, Note_on_c, 0, 70, 44
2, 378794, Note_on_c, 0, 70, 0
2, 378944, Note_on_c, 0, 71, 72
2, 378977, Note_on_c, 0, 65, 54
2, 379017, Note_on_c, 0, 62, 40
2, 379069, Note_on_c, 0, 65, 0
2, 379092, Note_on_c, 0, 60, 20
2, 379185, Note_on_c, 0, 62, 0
2, 379189, Note_on_c, 0, 71, 0
2, 379268, Note_on_c, 0, 60, 0
2, 379320, Note_on_c, 0, 74, 85
2, 379764, Note_on_c, 0, 74, 0
2, 379895, Note_on_c, 0, 77, 82
2, 380171, Note_on_c, 0, 77, 0
2, 380354, Note_on_c, 0, 75, 52
2, 380781, Note_on_c, 0, 75, 0
2, 380887, Note_on_c, 0, 63, 42
2, 381122, Note_on_c, 0, 63, 0
2, 381261, Note_on_c, 0, 67, 44
2, 381825, Note_on_c, 0, 74, 68
2, 381902, Note_on_c, 0, 62, 34
2, 382002, Note_on_c, 0, 67, 0
2, 382074, Note_on_c, 0, 62, 0
2, 382110, Note_on_c, 0, 74, 0
2, 382176, Note_on_c, 0, 73, 17
2, 382303, Note_on_c, 0, 73, 0
2, 382322, Note_on_c, 0, 72, 52
2, 383042, Note_on_c, 0, 72, 0
2, 383110, Note_on_c, 0, 63, 60
2, 383913, Note_on_c, 0, 63, 0
2, 384059, Note_on_c, 0, 62, 48
2, 384901, Note_on_c, 0, 62, 0
2, 385016, Note_on_c, 0, 61, 37
2, 386596, Note_on_c, 0, 57, 36
2, 386694, Note_on_c, 0, 57, 0
2, 387597, Note_on_c, 0, 61, 0
2, 388832, Note_on_c, 0, 64, 91
2, 389466, Note_on_c, 0, 61, 54
2, 389479, Note_on_c, 0, 54, 43
2, 389485, Note_on_c, 0, 64, 0
2, 389668, Note_on_c, 0, 54, 0
2, 389777, Note_on_c, 0, 61, 0
2, 389833, Note_on_c, 0, 62, 66
2, 390338, Note_on_c, 0, 62, 0
2, 390463, Note_on_c, 0, 57, 52
2, 390698, Note_on_c, 0, 57, 0
2, 390881, Note_on_c, 0, 58, 34
2, 391303, Note_on_c, 0, 58, 0
2, 391391, Note_on_c, 0, 60, 58
2, 391742, Note_on_c, 0, 60, 0
2, 391790, Note_on_c, 0, 62, 40
2, 392154, Note_on_c, 0, 62, 0
2, 392214, Note_on_c, 0, 63, 63
2, 392347, Note_on_c, 0, 63, 0
2, 392537, Note_on_c, 0, 67, 46
2, 392713, Note_on_c, 0, 67, 0
2, 392905, Note_on_c, 0, 72, 43
2, 393165, Note_on_c, 0, 75, 57
2, 393215, Note_on_c, 0, 72, 0
2, 393267, Note_on_c, 0, 76, 32
2, 393321, Note_on_c, 0, 75, 0
2, 393363, Note_on_c, 0, 76, 0
2, 393506, Note_on_c, 0, 79, 60
2, 393847, Note_on_c, 0, 79, 0
2, 393855, Note_on_c, 0, 84, 58
2, 394109, Note_on_c, 0, 84, 0
2, 394196, Note_on_c, 0, 87, 70
2, 394469, Note_on_c, 0, 87, 0
2, 394511, Note_on_c, 0, 89, 74
2, 394623, Note_on_c, 0, 54, 35
2, 394640, Note_on_c, 0, 64, 34
2, 394831, Note_on_c, 0, 64, 0
2, 394868, Note_on_c, 0, 86, 70
2, 394896, Note_on_c, 0, 89, 0
2, 395178, Note_on_c, 0, 54, 0
2, 395241, Note_on_c, 0, 86, 0
2, 395443, Note_on_c, 0, 62, 38
2, 395468, Note_on_c, 0, 81, 37
2, 395530, Note_on_c, 0, 58, 33
2, 395784, Note_on_c, 0, 81, 0
2, 395944, Note_on_c, 0, 58, 0
2, 396004, Note_on_c, 0, 62, 0
2, 396010, Note_on_c, 0, 84, 71
2, 396412, Note_on_c, 0, 84, 0
2, 396628, Note_on_c, 0, 82, 63
2, 397279, Note_on_c, 0, 82, 0
2, 397283, Note_on_c, 0, 62, 29
2, 397338, Note_on_c, 0, 58, 21
2, 397346, Note_on_c, 0, 84, 53
2, 397371, Note_on_c, 0, 62, 0
2, 397415, Note_on_c, 0, 58, 0
2, 397458, Note_on_c, 0, 82, 56
2, 397537, Note_on_c, 0, 84, 0
2, 397701, Note_on_c, 0, 81, 42
2, 397781, Note_on_c, 0, 82, 0
2, 398172, Note_on_c, 0, 82, 74
2, 398213, Note_on_c, 0, 81, 0
2, 398226, Note_on_c, 0, 62, 32
2, 398338, Note_on_c, 0, 62, 0
2, 398442, Note_on_c, 0, 82, 0
2, 398594, Note_on_c, 0, 84, 65
2, 398947, Note_on_c, 0, 84, 0
2, 399153, Note_on_c, 0, 85, 62
2, 399207, Note_on_c, 0, 62, 33
2, 399243, Note_on_c, 0, 58, 34
2, 399311, Note_on_c, 0, 62, 0
2, 399447, Note_on_c, 0, 58, 0
2, 399522, Note_on_c, 0, 85, 0
2, 399671, Note_on_c, 0, 85, 30
2, 399702, Note_on_c, 0, 75, 32
2, 399856, Note_on_c, 0, 86, 17
2, 399944, Note_on_c, 0, 75, 0
2, 399952, Note_on_c, 0, 85, 0
2, 399975, Note_on_c, 0, 74, 17
2, 400208, Note_on_c, 0, 74, 0
2, 400218, Note_on_c, 0, 86, 0
2, 400447, Note_on_c, 0, 86, 49
2, 400487, Note_on_c, 0, 74, 58
2, 400853, Note_on_c, 0, 86, 0
2, 400898, Note_on_c, 0, 74, 0
2, 401127, Note_on_c, 0, 86, 61
2, 401134, Note_on_c, 0, 74, 57
2, 401150, Note_on_c, 0, 62, 38
2, 401161, Note_on_c, 0, 58, 43
2, 401181, Note_on_c, 0, 52, 24
2, 401445, Note_on_c, 0, 86, 0
2, 401479, Note_on_c, 0, 74, 0
2, 401712, Note_on_c, 0, 86, 44
2, 401747, Note_on_c, 0, 74, 35
2, 401993, Note_on_c, 0, 86, 0
2, 402086, Note_on_c, 0, 74, 0
2, 402334, Note_on_c, 0, 82, 54
2, 402400, Note_on_c, 0, 52, 0
2, 402550, Note_on_c, 0, 62, 0
2, 402585, Note_on_c, 0, 58, 0
2, 402721, Note_on_c, 0, 82, 0
2, 405169, Note_on_c, 0, 62, 60
2, 405173, Note_on_c, 0, 67, 64
2, 405175, Note_on_c, 0, 89, 88
2, 405179, Note_on_c, 0, 63, 51
2, 405183, Note_on_c, 0, 77, 88
2, 405187, Note_on_c, 0, 58, 56
2, 405495, Note_on_c, 0, 89, 0
2, 405572, Note_on_c, 0, 62, 0
2, 405583, Note_on_c, 0, 67, 0
2, 405595, Note_on_c, 0, 58, 0
2, 405624, Note_on_c, 0, 77, 0
2, 405649, Note_on_c, 0, 63, 0
2, 406115, Note_on_c, 0, 86, 72
2, 406128, Note_on_c, 0, 63, 57
2, 406130, Note_on_c, 0, 67, 64
2, 406130, Note_on_c, 0, 74, 78
2, 406134, Note_on_c, 0, 62, 54
2, 406148, Note_on_c, 0, 58, 60
2, 406452, Note_on_c, 0, 62, 0
2, 406481, Note_on_c, 0, 86, 0
2, 406506, Note_on_c, 0, 67, 0
2, 406546, Note_on_c, 0, 63, 0
2, 406600, Note_on_c, 0, 74, 0
2, 406637, Note_on_c, 0, 58, 0
2, 408016, Note_on_c, 0, 60, 53
2, 408018, Note_on_c, 0, 58, 52
2, 408024, Note_on_c, 0, 65, 71
2, 408035, Note_on_c, 0, 54, 62
2, 408039, Note_on_c, 0, 84, 80
2, 408054, Note_on_c, 0, 72, 80
2, 408397, Note_on_c, 0, 84, 0
2, 408513, Note_on_c, 0, 65, 0
2, 408515, Note_on_c, 0, 60, 0
2, 408520, Note_on_c, 0, 54, 0
2, 408544, Note_on_c, 0, 58, 0
2, 408559, Note_on_c, 0, 72, 0
2, 409029, Note_on_c, 0, 65, 67
2, 409046, Note_on_c, 0, 58, 56
2, 409048, Note_on_c, 0, 54, 57
2, 409048, Note_on_c, 0, 80, 67
2, 409056, Note_on_c, 0, 60, 51
2, 409058, Note_on_c, 0, 68, 64
2, 409557, Note_on_c, 0, 80, 0
2, 409595, Note_on_c, 0, 68, 0
2, 409622, Note_on_c, 0, 65, 0
2, 409647, Note_on_c, 0, 60, 0
2, 409730, Note_on_c, 0, 58, 0
2, 409813, Note_on_c, 0, 54, 0
2, 410600, Note_on_c, 0, 57, 66
2, 410610, Note_on_c, 0, 69, 82
2, 410614, Note_on_c, 0, 62, 68
2, 410616, Note_on_c, 0, 81, 76
2, 410620, Note_on_c, 0, 74, 75
2, 410629, Note_on_c, 0, 58, 56
2, 410647, Note_on_c, 0, 55, 36
2, 410914, Note_on_c, 0, 69, 0
2, 410951, Note_on_c, 0, 62, 0
2, 410964, Note_on_c, 0, 74, 0
2, 411018, Note_on_c, 0, 57, 0
2, 411036, Note_on_c, 0, 81, 0
2, 411049, Note_on_c, 0, 58, 0
2, 411055, Note_on_c, 0, 55, 0
2, 411619, Note_on_c, 0, 84, 80
2, 411627, Note_on_c, 0, 72, 82
2, 411629, Note_on_c, 0, 81, 75
2, 411646, Note_on_c, 0, 62, 64
2, 411652, Note_on_c, 0, 57, 57
2, 411660, Note_on_c, 0, 58, 51
2, 411696, Note_on_c, 0, 55, 31
2, 411952, Note_on_c, 0, 62, 0
2, 411972, Note_on_c, 0, 57, 0
2, 411981, Note_on_c, 0, 55, 0
2, 411987, Note_on_c, 0, 81, 0
2, 411999, Note_on_c, 0, 58, 0
2, 412022, Note_on_c, 0, 72, 0
2, 412116, Note_on_c, 0, 84, 0
2, 412603, Note_on_c, 0, 81, 49
2, 412802, Note_on_c, 0, 81, 0
2, 412946, Note_on_c, 0, 62, 53
2, 412948, Note_on_c, 0, 84, 85
2, 412950, Note_on_c, 0, 81, 65
2, 412952, Note_on_c, 0, 72, 79
2, 412956, Note_on_c, 0, 58, 56
2, 412962, Note_on_c, 0, 57, 50
2, 413000, Note_on_c, 0, 55, 44
2, 413291, Note_on_c, 0, 84, 0
2, 413387, Note_on_c, 0, 72, 0
2, 413408, Note_on_c, 0, 81, 0
2, 413424, Note_on_c, 0, 62, 0
2, 413439, Note_on_c, 0, 58, 0
2, 413482, Note_on_c, 0, 57, 0
2, 413532, Note_on_c, 0, 84, 58
2, 413564, Note_on_c, 0, 72, 45
2, 413803, Note_on_c, 0, 84, 0
2, 413817, Note_on_c, 0, 62, 44
2, 413882, Note_on_c, 0, 58, 48
2, 413900, Note_on_c, 0, 81, 54
2, 414142, Note_on_c, 0, 72, 0
2, 414212, Note_on_c, 0, 55, 0
2, 414219, Note_on_c, 0, 58, 0
2, 414269, Note_on_c, 0, 62, 0
2, 414271, Note_on_c, 0, 81, 0
2, 415359, Note_on_c, 0, 63, 58
2, 415363, Note_on_c, 0, 55, 38
2, 415413, Note_on_c, 0, 57, 40
2, 415431, Note_on_c, 0, 60, 29
2, 415531, Note_on_c, 0, 60, 0
2, 415544, Note_on_c, 0, 63, 0
2, 415604, Note_on_c, 0, 55, 0
2, 415635, Note_on_c, 0, 57, 0
2, 416615, Note_on_c, 0, 65, 49
2, 416623, Note_on_c, 0, 54, 45
2, 416644, Note_on_c, 0, 58, 46
2, 416656, Note_on_c, 0, 60, 46
2, 417206, Note_on_c, 0, 60, 0
2, 417224, Note_on_c, 0, 65, 0
2, 417287, Note_on_c, 0, 58, 0
2, 417405, Note_on_c, 0, 54, 0
2, 418264, Note_on_c, 0, 62, 48
2, 418271, Note_on_c, 0, 57, 50
2, 418283, Note_on_c, 0, 58, 38
2, 418345, Note_on_c, 0, 55, 20
2, 418370, Note_on_c, 0, 62, 0
2, 418454, Note_on_c, 0, 58, 0
2, 418487, Note_on_c, 0, 57, 0
2, 418524, Note_on_c, 0, 55, 0
2, 418589, Note_on_c, 0, 72, 19
2, 418718, Note_on_c, 0, 80, 26
2, 418872, Note_on_c, 0, 80, 0
2, 418890, Note_on_c, 0, 81, 59
2, 418963, Note_on_c, 0, 72, 0
2, 419088, Note_on_c, 0, 81, 0
2, 419192, Note_on_c, 0, 72, 80
2, 419196, Note_on_c, 0, 62, 67
2, 419198, Note_on_c, 0, 84, 85
2, 419207, Note_on_c, 0, 58, 62
2, 419217, Note_on_c, 0, 57, 58
2, 419217, Note_on_c, 0, 55, 51
2, 419450, Note_on_c, 0, 72, 0
2, 419471, Note_on_c, 0, 84, 0
2, 419593, Note_on_c, 0, 84, 79
2, 419612, Note_on_c, 0, 72, 74
2, 419883, Note_on_c, 0, 84, 0
2, 419964, Note_on_c, 0, 72, 0
2, 420018, Note_on_c, 0, 58, 0
2, 420020, Note_on_c, 0, 62, 0
2, 420037, Note_on_c, 0, 57, 0
2, 420163, Note_on_c, 0, 55, 0
2, 420178, Note_on_c, 0, 84, 81
2, 420199, Note_on_c, 0, 72, 80
2, 420211, Note_on_c, 0, 62, 51
2, 420243, Note_on_c, 0, 58, 43
2, 420255, Note_on_c, 0, 55, 17
2, 420301, Note_on_c, 0, 57, 25
2, 420371, Note_on_c, 0, 57, 0
2, 420376, Note_on_c, 0, 72, 0
2, 420399, Note_on_c, 0, 84, 0
2, 420421, Note_on_c, 0, 62, 0
2, 420521, Note_on_c, 0, 84, 76
2, 420540, Note_on_c, 0, 62, 34
2, 420548, Note_on_c, 0, 72, 71
2, 420850, Note_on_c, 0, 72, 0
2, 420871, Note_on_c, 0, 84, 0
2, 420885, Note_on_c, 0, 62, 0
2, 420989, Note_on_c, 0, 58, 0
2, 421004, Note_on_c, 0, 55, 0
2, 421131, Note_on_c, 0, 84, 74
2, 421154, Note_on_c, 0, 72, 73
2, 421193, Note_on_c, 0, 55, 24
2, 421201, Note_on_c, 0, 62, 47
2, 421249, Note_on_c, 0, 58, 37
2, 421382, Note_on_c, 0, 72, 0
2, 421451, Note_on_c, 0, 84, 0
2, 421526, Note_on_c, 0, 72, 24
2, 421561, Note_on_c, 0, 81, 40
2, 421669, Note_on_c, 0, 55, 0
2, 421717, Note_on_c, 0, 62, 0
2, 421726, Note_on_c, 0, 58, 0
2, 421778, Note_on_c, 0, 81, 0
2, 422254, Note_on_c, 0, 72, 0
2, 422451, Note_on_c, 0, 63, 65
2, 422456, Note_on_c, 0, 67, 74
2, 422460, Note_on_c, 0, 82, 67
2, 422476, Note_on_c, 0, 60, 57
2, 422479, Note_on_c, 0, 56, 64
2, 422483, Note_on_c, 0, 75, 71
2, 422516, Note_on_c, 0, 79, 49
2, 422755, Note_on_c, 0, 75, 0
2, 422780, Note_on_c, 0, 79, 0
2, 422784, Note_on_c, 0, 60, 0
2, 422811, Note_on_c, 0, 56, 0
2, 422813, Note_on_c, 0, 67, 0
2, 422828, Note_on_c, 0, 82, 0
2, 422855, Note_on_c, 0, 63, 0
2, 423362, Note_on_c, 0, 82, 77
2, 423377, Note_on_c, 0, 63, 64
2, 423383, Note_on_c, 0, 70, 78
2, 423385, Note_on_c, 0, 67, 71
2, 423387, Note_on_c, 0, 75, 72
2, 423392, Note_on_c, 0, 56, 68
2, 423421, Note_on_c, 0, 60, 53
2, 423693, Note_on_c, 0, 70, 0
2, 423783, Note_on_c, 0, 75, 0
2, 423808, Note_on_c, 0, 67, 0
2, 423847, Note_on_c, 0, 82, 0
2, 423851, Note_on_c, 0, 56, 0
2, 423862, Note_on_c, 0, 63, 0
2, 423941, Note_on_c, 0, 60, 0
2, 424972, Note_on_c, 0, 66, 75
2, 424987, Note_on_c, 0, 56, 68
2, 424991, Note_on_c, 0, 83, 79
2, 424999, Note_on_c, 0, 74, 83
2, 425002, Note_on_c, 0, 78, 71
2, 425010, Note_on_c, 0, 62, 49
2, 425083, Note_on_c, 0, 62, 0
2, 425143, Note_on_c, 0, 74, 0
2, 425197, Note_on_c, 0, 78, 0
2, 425210, Note_on_c, 0, 83, 0
2, 425255, Note_on_c, 0, 66, 0
2, 425301, Note_on_c, 0, 56, 0
2, 425682, Note_on_c, 0, 78, 70
2, 425686, Note_on_c, 0, 83, 74
2, 425690, Note_on_c, 0, 74, 75
2, 425700, Note_on_c, 0, 56, 64
2, 425707, Note_on_c, 0, 66, 67
2, 425717, Note_on_c, 0, 62, 47
2, 425883, Note_on_c, 0, 83, 0
2, 425931, Note_on_c, 0, 74, 0
2, 425973, Note_on_c, 0, 78, 0
2, 426060, Note_on_c, 0, 66, 0
2, 426083, Note_on_c, 0, 56, 0
2, 426227, Note_on_c, 0, 62, 0
2, 426426, Note_on_c, 0, 78, 65
2, 426464, Note_on_c, 0, 74, 57
2, 426466, Note_on_c, 0, 62, 57
2, 426468, Note_on_c, 0, 66, 73
2, 426470, Note_on_c, 0, 56, 69
2, 426474, Note_on_c, 0, 69, 53
2, 426524, Note_on_c, 0, 60, 42
2, 426541, Note_on_c, 0, 62, 0
2, 426697, Note_on_c, 0, 62, 9
2, 427423, Note_on_c, 0, 69, 0
2, 427527, Note_on_c, 0, 66, 0
2, 427651, Note_on_c, 0, 74, 0
2, 427691, Note_on_c, 0, 62, 0
2, 427731, Note_on_c, 0, 60, 0
2, 427751, Note_on_c, 0, 56, 0
2, 427791, Note_on_c, 0, 78, 0
2, 427872, Note_on_c, 0, 62, 38
2, 427880, Note_on_c, 0, 81, 68
2, 427891, Note_on_c, 0, 74, 58
2, 427893, Note_on_c, 0, 65, 53
2, 427899, Note_on_c, 0, 69, 49
2, 427903, Note_on_c, 0, 67, 57
2, 427907, Note_on_c, 0, 60, 22
2, 427920, Note_on_c, 0, 55, 38
2, 429008, Note_on_c, 0, 67, 0
2, 429024, Note_on_c, 0, 81, 0
2, 429039, Note_on_c, 0, 69, 0
2, 429047, Note_on_c, 0, 65, 0
2, 429076, Note_on_c, 0, 62, 0
2, 429095, Note_on_c, 0, 74, 0
2, 429178, Note_on_c, 0, 60, 0
2, 429191, Note_on_c, 0, 79, 67
2, 429249, Note_on_c, 0, 65, 36
2, 429278, Note_on_c, 0, 62, 25
2, 429528, Note_on_c, 0, 79, 0
2, 429586, Note_on_c, 0, 62, 0
2, 429638, Note_on_c, 0, 65, 0
2, 429727, Note_on_c, 0, 55, 0
2, 430095, Note_on_c, 0, 70, 56
2, 430538, Note_on_c, 0, 70, 0
2, 430711, Note_on_c, 0, 70, 52
2, 430905, Note_on_c, 0, 70, 0
2, 431061, Note_on_c, 0, 70, 43
2, 431612, Note_on_c, 0, 70, 0
2, 432030, Note_on_c, 0, 66, 39
2, 432049, Note_on_c, 0, 56, 39
2, 432061, Note_on_c, 0, 70, 42
2, 432487, Note_on_c, 0, 66, 0
2, 432506, Note_on_c, 0, 56, 0
2, 432569, Note_on_c, 0, 70, 0
2, 434611, Note_on_c, 0, 62, 24
2, 434673, Note_on_c, 0, 57, 24
2, 434680, Note_on_c, 0, 62, 0
2, 434846, Note_on_c, 0, 74, 85
2, 434852, Note_on_c, 0, 57, 0
2, 434857, Note_on_c, 0, 78, 71
2, 435460, Note_on_c, 0, 74, 0
2, 435487, Note_on_c, 0, 78, 0
2, 435817, Note_on_c, 0, 78, 59
2, 435830, Note_on_c, 0, 74, 68
2, 436317, Note_on_c, 0, 74, 0
2, 436358, Note_on_c, 0, 78, 0
2, 436477, Note_on_c, 0, 74, 60
2, 436516, Note_on_c, 0, 79, 54
2, 436652, Note_on_c, 0, 74, 0
2, 436704, Note_on_c, 0, 79, 0
2, 437432, Note_on_c, 0, 65, 57
2, 437454, Note_on_c, 0, 60, 40
2, 437513, Note_on_c, 0, 65, 0
2, 437552, Note_on_c, 0, 60, 0
2, 438380, Note_on_c, 0, 78, 59
2, 438428, Note_on_c, 0, 66, 80
2, 438449, Note_on_c, 0, 60, 39
2, 438536, Note_on_c, 0, 60, 0
2, 438702, Note_on_c, 0, 78, 0
2, 438796, Note_on_c, 0, 66, 0
2, 438825, Note_on_c, 0, 67, 47
2, 439054, Note_on_c, 0, 67, 0
2, 439156, Note_on_c, 0, 74, 44
2, 439187, Note_on_c, 0, 79, 49
2, 439416, Note_on_c, 0, 79, 0
2, 439447, Note_on_c, 0, 74, 0
2, 439451, Note_on_c, 0, 67, 45
2, 439547, Note_on_c, 0, 67, 0
2, 440383, Note_on_c, 0, 65, 62
2, 440400, Note_on_c, 0, 55, 36
2, 440418, Note_on_c, 0, 61, 37
2, 440456, Note_on_c, 0, 65, 0
2, 440543, Note_on_c, 0, 55, 0
2, 440616, Note_on_c, 0, 61, 0
2, 441402, Note_on_c, 0, 69, 68
2, 441404, Note_on_c, 0, 81, 36
2, 441446, Note_on_c, 0, 83, 34
2, 441540, Note_on_c, 0, 83, 0
2, 441652, Note_on_c, 0, 81, 0
2, 441660, Note_on_c, 0, 69, 0
2, 442176, Note_on_c, 0, 82, 69
2, 442184, Note_on_c, 0, 70, 62
2, 442203, Note_on_c, 0, 67, 48
2, 442216, Note_on_c, 0, 58, 37
2, 442241, Note_on_c, 0, 63, 33
2, 442243, Note_on_c, 0, 62, 42
2, 442303, Note_on_c, 0, 67, 0
2, 442313, Note_on_c, 0, 62, 0
2, 442334, Note_on_c, 0, 63, 0
2, 442336, Note_on_c, 0, 70, 0
2, 442357, Note_on_c, 0, 58, 0
2, 442426, Note_on_c, 0, 82, 0
2, 442802, Note_on_c, 0, 85, 69
2, 442804, Note_on_c, 0, 73, 62
2, 442829, Note_on_c, 0, 82, 52
2, 442833, Note_on_c, 0, 67, 71
2, 442846, Note_on_c, 0, 63, 55
2, 442850, Note_on_c, 0, 58, 60
2, 442858, Note_on_c, 0, 62, 46
2, 442946, Note_on_c, 0, 86, 54
2, 442991, Note_on_c, 0, 73, 0
2, 443008, Note_on_c, 0, 74, 70
2, 443052, Note_on_c, 0, 85, 0
2, 443197, Note_on_c, 0, 58, 0
2, 443218, Note_on_c, 0, 67, 0
2, 443237, Note_on_c, 0, 62, 0
2, 443245, Note_on_c, 0, 74, 0
2, 443285, Note_on_c, 0, 86, 0
2, 443293, Note_on_c, 0, 63, 0
2, 443355, Note_on_c, 0, 82, 0
2, 443478, Note_on_c, 0, 86, 60
2, 443482, Note_on_c, 0, 82, 52
2, 443486, Note_on_c, 0, 74, 64
2, 443516, Note_on_c, 0, 79, 54
2, 443526, Note_on_c, 0, 67, 66
2, 443530, Note_on_c, 0, 63, 48
2, 443538, Note_on_c, 0, 58, 58
2, 443557, Note_on_c, 0, 62, 44
2, 443809, Note_on_c, 0, 74, 0
2, 443813, Note_on_c, 0, 58, 0
2, 443838, Note_on_c, 0, 86, 0
2, 443871, Note_on_c, 0, 79, 0
2, 443890, Note_on_c, 0, 67, 0
2, 443902, Note_on_c, 0, 63, 0
2, 443907, Note_on_c, 0, 62, 0
2, 443975, Note_on_c, 0, 82, 0
2, 444489, Note_on_c, 0, 85, 64
2, 444493, Note_on_c, 0, 73, 59
2, 444516, Note_on_c, 0, 62, 51
2, 444518, Note_on_c, 0, 67, 57
2, 444522, Note_on_c, 0, 79, 55
2, 444522, Note_on_c, 0, 82, 45
2, 444526, Note_on_c, 0, 63, 49
2, 444531, Note_on_c, 0, 58, 59
2, 444676, Note_on_c, 0, 86, 17
2, 444705, Note_on_c, 0, 73, 0
2, 444737, Note_on_c, 0, 74, 57
2, 444745, Note_on_c, 0, 85, 0
2, 444805, Note_on_c, 0, 58, 0
2, 444880, Note_on_c, 0, 67, 0
2, 444899, Note_on_c, 0, 62, 0
2, 444972, Note_on_c, 0, 74, 0
2, 444980, Note_on_c, 0, 86, 0
2, 445032, Note_on_c, 0, 63, 0
2, 445061, Note_on_c, 0, 79, 0
2, 445117, Note_on_c, 0, 82, 0
2, 445238, Note_on_c, 0, 86, 69
2, 445254, Note_on_c, 0, 67, 58
2, 445257, Note_on_c, 0, 58, 60
2, 445261, Note_on_c, 0, 82, 67
2, 445263, Note_on_c, 0, 63, 51
2, 445265, Note_on_c, 0, 79, 58
2, 445269, Note_on_c, 0, 74, 69
2, 445286, Note_on_c, 0, 62, 41
2, 445496, Note_on_c, 0, 62, 0
2, 445529, Note_on_c, 0, 74, 0
2, 445531, Note_on_c, 0, 67, 0
2, 445548, Note_on_c, 0, 79, 0
2, 445598, Note_on_c, 0, 86, 0
2, 445618, Note_on_c, 0, 58, 0
2, 445621, Note_on_c, 0, 63, 0
2, 445627, Note_on_c, 0, 82, 0
2, 445928, Note_on_c, 0, 67, 66
2, 445935, Note_on_c, 0, 86, 70
2, 445943, Note_on_c, 0, 57, 64
2, 445949, Note_on_c, 0, 82, 52
2, 445951, Note_on_c, 0, 79, 65
2, 445956, Note_on_c, 0, 74, 69
2, 445968, Note_on_c, 0, 63, 48
2, 446276, Note_on_c, 0, 74, 0
2, 446332, Note_on_c, 0, 86, 0
2, 446359, Note_on_c, 0, 57, 0
2, 446361, Note_on_c, 0, 67, 0
2, 446374, Note_on_c, 0, 79, 0
2, 446436, Note_on_c, 0, 63, 0
2, 446453, Note_on_c, 0, 82, 0
2, 446586, Note_on_c, 0, 85, 46
2, 446592, Note_on_c, 0, 63, 46
2, 446600, Note_on_c, 0, 73, 40
2, 446615, Note_on_c, 0, 67, 42
2, 446634, Note_on_c, 0, 82, 39
2, 446636, Note_on_c, 0, 79, 36
2, 446640, Note_on_c, 0, 57, 43
2, 446941, Note_on_c, 0, 57, 0
2, 446971, Note_on_c, 0, 79, 0
2, 446996, Note_on_c, 0, 67, 0
2, 447031, Note_on_c, 0, 63, 0
2, 447035, Note_on_c, 0, 73, 0
2, 447056, Note_on_c, 0, 82, 0
2, 447110, Note_on_c, 0, 85, 0
2, 447176, Note_on_c, 0, 84, 61
2, 447185, Note_on_c, 0, 79, 43
2, 447193, Note_on_c, 0, 72, 46
2, 447212, Note_on_c, 0, 63, 52
2, 447212, Note_on_c, 0, 67, 43
2, 447241, Note_on_c, 0, 57, 41
2, 447310, Note_on_c, 0, 72, 0
2, 447359, Note_on_c, 0, 57, 0
2, 447378, Note_on_c, 0, 79, 0
2, 447391, Note_on_c, 0, 84, 0
2, 447422, Note_on_c, 0, 67, 0
2, 447466, Note_on_c, 0, 63, 0
2, 448052, Note_on_c, 0, 63, 55
2, 448067, Note_on_c, 0, 57, 54
2, 448077, Note_on_c, 0, 67, 46
2, 448191, Note_on_c, 0, 67, 0
2, 448279, Note_on_c, 0, 57, 0
2, 448343, Note_on_c, 0, 63, 0
2, 450003, Note_on_c, 0, 73, 30
2, 450226, Note_on_c, 0, 91, 80
2, 450230, Note_on_c, 0, 85, 71
2, 450246, Note_on_c, 0, 82, 64
2, 450278, Note_on_c, 0, 88, 45
2, 450284, Note_on_c, 0, 76, 58
2, 450288, Note_on_c, 0, 73, 0
2, 450390, Note_on_c, 0, 88, 0
2, 450606, Note_on_c, 0, 82, 0
2, 450621, Note_on_c, 0, 91, 0
2, 450731, Note_on_c, 0, 85, 0
2, 450825, Note_on_c, 0, 76, 0
2, 450827, Note_on_c, 0, 82, 25
2, 450858, Note_on_c, 0, 73, 34
2, 450997, Note_on_c, 0, 82, 0
2, 451151, Note_on_c, 0, 73, 0
2, 451183, Note_on_c, 0, 89, 73
2, 451199, Note_on_c, 0, 81, 58
2, 451203, Note_on_c, 0, 74, 50
2, 451628, Note_on_c, 0, 89, 0
2, 451640, Note_on_c, 0, 81, 0
2, 451786, Note_on_c, 0, 74, 0
2, 451800, Note_on_c, 0, 70, 59
2, 451802, Note_on_c, 0, 86, 69
2, 452035, Note_on_c, 0, 70, 0
2, 452058, Note_on_c, 0, 86, 0
2, 452164, Note_on_c, 0, 68, 49
2, 452372, Note_on_c, 0, 68, 0
2, 453845, Note_on_c, 0, 72, 75
2, 453853, Note_on_c, 0, 66, 69
2, 453866, Note_on_c, 0, 60, 73
2, 453872, Note_on_c, 0, 63, 79
2, 454727, Note_on_c, 0, 72, 0
2, 454731, Note_on_c, 0, 60, 0
2, 454793, Note_on_c, 0, 57, 55
2, 454899, Note_on_c, 0, 63, 0
2, 454991, Note_on_c, 0, 57, 0
2, 455049, Note_on_c, 0, 66, 0
2, 455118, Note_on_c, 0, 58, 56
2, 455126, Note_on_c, 0, 70, 58
2, 455134, Note_on_c, 0, 66, 37
2, 455166, Note_on_c, 0, 62, 49
2, 455528, Note_on_c, 0, 62, 0
2, 455536, Note_on_c, 0, 70, 0
2, 455559, Note_on_c, 0, 58, 0
2, 455688, Note_on_c, 0, 66, 0
2, 455704, Note_on_c, 0, 62, 63
2, 455713, Note_on_c, 0, 69, 58
2, 455723, Note_on_c, 0, 57, 44
2, 455921, Note_on_c, 0, 62, 0
2, 455979, Note_on_c, 0, 57, 0
2, 455993, Note_on_c, 0, 69, 0
2, 456018, Note_on_c, 0, 56, 42
2, 456578, Note_on_c, 0, 56, 0
2, 456653, Note_on_c, 0, 54, 42
2, 456875, Note_on_c, 0, 54, 0
2, 457017, Note_on_c, 0, 64, 49
2, 457023, Note_on_c, 0, 57, 41
2, 457027, Note_on_c, 0, 67, 42
2, 457165, Note_on_c, 0, 57, 0
2, 457366, Note_on_c, 0, 67, 0
2, 457512, Note_on_c, 0, 64, 0
2, 457685, Note_on_c, 0, 36, 31
2, 457774, Note_on_c, 0, 36, 0
2, 458660, Note_on_c, 0, 74, 95
2, 458756, Note_on_c, 0, 62, 40
2, 458774, Note_on_c, 0, 58, 37
2, 458826, Note_on_c, 0, 62, 0
2, 458926, Note_on_c, 0, 74, 0
2, 459003, Note_on_c, 0, 58, 0
2, 459082, Note_on_c, 0, 70, 46
2, 459380, Note_on_c, 0, 70, 0
2, 459575, Note_on_c, 0, 74, 74
2, 459636, Note_on_c, 0, 58, 46
2, 459665, Note_on_c, 0, 52, 34
2, 459719, Note_on_c, 0, 70, 40
2, 459750, Note_on_c, 0, 58, 0
2, 459827, Note_on_c, 0, 74, 0
2, 459829, Note_on_c, 0, 52, 0
2, 459989, Note_on_c, 0, 67, 51
2, 460095, Note_on_c, 0, 70, 0
2, 460322, Note_on_c, 0, 67, 0
2, 460370, Note_on_c, 0, 64, 60
2, 460719, Note_on_c, 0, 64, 0
2, 460830, Note_on_c, 0, 63, 64
2, 461048, Note_on_c, 0, 63, 0
2, 461246, Note_on_c, 0, 62, 63
2, 461522, Note_on_c, 0, 62, 0
2, 461655, Note_on_c, 0, 51, 31
2, 461659, Note_on_c, 0, 61, 68
2, 461693, Note_on_c, 0, 41, 31
2, 461884, Note_on_c, 0, 51, 0
2, 462021, Note_on_c, 0, 61, 0
2, 462121, Note_on_c, 0, 59, 27
2, 462177, Note_on_c, 0, 60, 19
2, 462304, Note_on_c, 0, 60, 0
2, 462362, Note_on_c, 0, 41, 0
2, 462435, Note_on_c, 0, 59, 0
2, 462518, Note_on_c, 0, 58, 65
2, 462714, Note_on_c, 0, 58, 0
2, 462895, Note_on_c, 0, 57, 46
2, 463326, Note_on_c, 0, 57, 0
2, 463473, Note_on_c, 0, 58, 62
2, 463504, Note_on_c, 0, 51, 27
2, 463642, Note_on_c, 0, 51, 0
2, 463706, Note_on_c, 0, 58, 0
2, 463818, Note_on_c, 0, 60, 69
2, 464382, Note_on_c, 0, 60, 0
2, 464395, Note_on_c, 0, 57, 50
2, 464474, Note_on_c, 0, 53, 31
2, 464611, Note_on_c, 0, 57, 0
2, 464705, Note_on_c, 0, 60, 66
2, 464730, Note_on_c, 0, 53, 0
2, 465333, Note_on_c, 0, 60, 0
2, 465335, Note_on_c, 0, 57, 38
2, 465597, Note_on_c, 0, 57, 0
2, 465684, Note_on_c, 0, 58, 60
2, 466179, Note_on_c, 0, 58, 0
2, 466283, Note_on_c, 0, 60, 58
2, 466342, Note_on_c, 0, 46, 38
2, 466360, Note_on_c, 0, 57, 34
2, 466483, Note_on_c, 0, 57, 0
2, 466539, Note_on_c, 0, 46, 0
2, 466591, Note_on_c, 0, 60, 0
2, 466699, Note_on_c, 0, 62, 43
2, 467126, Note_on_c, 0, 62, 0
2, 467223, Note_on_c, 0, 63, 63
2, 467434, Note_on_c, 0, 63, 0
2, 467592, Note_on_c, 0, 67, 62
2, 468030, Note_on_c, 0, 67, 0
2, 468182, Note_on_c, 0, 72, 75
2, 468186, Note_on_c, 0, 63, 73
2, 468189, Note_on_c, 0, 55, 47
2, 468245, Note_on_c, 0, 57, 36
2, 468407, Note_on_c, 0, 63, 0
2, 468498, Note_on_c, 0, 57, 0
2, 468580, Note_on_c, 0, 55, 0
2, 468617, Note_on_c, 0, 72, 0
2, 468661, Note_on_c, 0, 75, 68
2, 468985, Note_on_c, 0, 75, 0
2, 469150, Note_on_c, 0, 79, 71
2, 469191, Note_on_c, 0, 55, 48
2, 469324, Note_on_c, 0, 60, 19
2, 469416, Note_on_c, 0, 60, 0
2, 469428, Note_on_c, 0, 55, 0
2, 469453, Note_on_c, 0, 79, 0
2, 469582, Note_on_c, 0, 84, 71
2, 469973, Note_on_c, 0, 84, 0
2, 470110, Note_on_c, 0, 64, 71
2, 470117, Note_on_c, 0, 60, 57
2, 470119, Note_on_c, 0, 54, 62
2, 470133, Note_on_c, 0, 87, 77
2, 470370, Note_on_c, 0, 64, 0
2, 470470, Note_on_c, 0, 54, 0
2, 470481, Note_on_c, 0, 87, 0
2, 470693, Note_on_c, 0, 89, 85
2, 470701, Note_on_c, 0, 60, 0
2, 471051, Note_on_c, 0, 89, 0
2, 471225, Note_on_c, 0, 86, 74
2, 471230, Note_on_c, 0, 54, 54
2, 471257, Note_on_c, 0, 64, 51
2, 471302, Note_on_c, 0, 60, 31
2, 471398, Note_on_c, 0, 64, 0
2, 471406, Note_on_c, 0, 60, 0
2, 471471, Note_on_c, 0, 86, 0
2, 471537, Note_on_c, 0, 54, 0
2, 471633, Note_on_c, 0, 82, 57
2, 471910, Note_on_c, 0, 82, 0
2, 471914, Note_on_c, 0, 81, 64
2, 472103, Note_on_c, 0, 81, 0
2, 472255, Note_on_c, 0, 84, 80
2, 472288, Note_on_c, 0, 58, 45
2, 472294, Note_on_c, 0, 57, 47
2, 472299, Note_on_c, 0, 62, 40
2, 472326, Note_on_c, 0, 55, 38
2, 472710, Note_on_c, 0, 57, 0
2, 472914, Note_on_c, 0, 82, 60
2, 472935, Note_on_c, 0, 84, 0
2, 473122, Note_on_c, 0, 58, 0
2, 473239, Note_on_c, 0, 82, 0
2, 473285, Note_on_c, 0, 81, 40
2, 473299, Note_on_c, 0, 58, 23
2, 473420, Note_on_c, 0, 81, 0
2, 473424, Note_on_c, 0, 62, 0
2, 473468, Note_on_c, 0, 58, 0
2, 473599, Note_on_c, 0, 86, 84
2, 473759, Note_on_c, 0, 55, 0
2, 474102, Note_on_c, 0, 62, 34
2, 474110, Note_on_c, 0, 58, 46
2, 474202, Note_on_c, 0, 62, 0
2, 474264, Note_on_c, 0, 58, 0
2, 474306, Note_on_c, 0, 84, 51
2, 474445, Note_on_c, 0, 86, 0
2, 474564, Note_on_c, 0, 84, 0
2, 474639, Note_on_c, 0, 82, 55
2, 474859, Note_on_c, 0, 82, 0
2, 474988, Note_on_c, 0, 62, 44
2, 475011, Note_on_c, 0, 58, 37
2, 475030, Note_on_c, 0, 87, 77
2, 475055, Note_on_c, 0, 75, 74
2, 475105, Note_on_c, 0, 62, 0
2, 475169, Note_on_c, 0, 58, 0
2, 475577, Note_on_c, 0, 75, 0
2, 475641, Note_on_c, 0, 84, 52
2, 475841, Note_on_c, 0, 87, 0
2, 475932, Note_on_c, 0, 84, 0
2, 475937, Note_on_c, 0, 82, 52
2, 476199, Note_on_c, 0, 82, 0
2, 476265, Note_on_c, 0, 63, 57
2, 476286, Note_on_c, 0, 57, 45
2, 476317, Note_on_c, 0, 55, 36
2, 476365, Note_on_c, 0, 60, 26
2, 476999, Note_on_c, 0, 57, 0
2, 477062, Note_on_c, 0, 63, 0
2, 477255, Note_on_c, 0, 89, 79
2, 477268, Note_on_c, 0, 77, 79
2, 477295, Note_on_c, 0, 60, 0
2, 477301, Note_on_c, 0, 55, 0
2, 477422, Note_on_c, 0, 77, 0
2, 477499, Note_on_c, 0, 89, 0
2, 477613, Note_on_c, 0, 87, 56
2, 477736, Note_on_c, 0, 55, 30
2, 477740, Note_on_c, 0, 60, 43
2, 477869, Note_on_c, 0, 55, 0
2, 477919, Note_on_c, 0, 60, 0
2, 477969, Note_on_c, 0, 87, 0
2, 477990, Note_on_c, 0, 84, 39
2, 478133, Note_on_c, 0, 84, 0
2, 478574, Note_on_c, 0, 91, 77
2, 478584, Note_on_c, 0, 84, 58
2, 478597, Note_on_c, 0, 87, 51
2, 478618, Note_on_c, 0, 79, 47
2, 478624, Note_on_c, 0, 65, 62
2, 478626, Note_on_c, 0, 60, 58
2, 478638, Note_on_c, 0, 54, 54
2, 478672, Note_on_c, 0, 64, 53
2, 478757, Note_on_c, 0, 64, 0
2, 478778, Note_on_c, 0, 87, 0
2, 478803, Note_on_c, 0, 84, 0
2, 478859, Note_on_c, 0, 65, 0
2, 478907, Note_on_c, 0, 79, 0
2, 479054, Note_on_c, 0, 87, 46
2, 479069, Note_on_c, 0, 54, 0
2, 479104, Note_on_c, 0, 91, 0
2, 479235, Note_on_c, 0, 60, 0
2, 479314, Note_on_c, 0, 84, 43
2, 479560, Note_on_c, 0, 84, 0
2, 479562, Note_on_c, 0, 87, 0
2, 480648, Note_on_c, 0, 62, 46
2, 480660, Note_on_c, 0, 58, 37
2, 480666, Note_on_c, 0, 57, 45
2, 480685, Note_on_c, 0, 55, 32
2, 480733, Note_on_c, 0, 62, 0
2, 480771, Note_on_c, 0, 57, 0
2, 480810, Note_on_c, 0, 55, 0
2, 480812, Note_on_c, 0, 58, 0
2, 481713, Note_on_c, 0, 93, 90
2, 481717, Note_on_c, 0, 81, 85
2, 481723, Note_on_c, 0, 62, 60
2, 481725, Note_on_c, 0, 58, 53
2, 481729, Note_on_c, 0, 86, 68
2, 481746, Note_on_c, 0, 90, 45
2, 481761, Note_on_c, 0, 57, 42
2, 481765, Note_on_c, 0, 55, 34
2, 481798, Note_on_c, 0, 86, 0
2, 481817, Note_on_c, 0, 90, 0
2, 481867, Note_on_c, 0, 57, 0
2, 482543, Note_on_c, 0, 58, 0
2, 482603, Note_on_c, 0, 81, 0
2, 482674, Note_on_c, 0, 89, 56
2, 482722, Note_on_c, 0, 93, 0
2, 482836, Note_on_c, 0, 86, 58
2, 482898, Note_on_c, 0, 62, 0
2, 483017, Note_on_c, 0, 89, 0
2, 483123, Note_on_c, 0, 55, 0
2, 483181, Note_on_c, 0, 81, 34
2, 483213, Note_on_c, 0, 86, 0
2, 483385, Note_on_c, 0, 81, 0
2, 483695, Note_on_c, 0, 94, 69
2, 483722, Note_on_c, 0, 82, 72
2, 483726, Note_on_c, 0, 56, 65
2, 483735, Note_on_c, 0, 87, 67
2, 483741, Note_on_c, 0, 63, 61
2, 483743, Note_on_c, 0, 67, 67
2, 483749, Note_on_c, 0, 60, 53
2, 484159, Note_on_c, 0, 87, 0
2, 484284, Note_on_c, 0, 82, 0
2, 484404, Note_on_c, 0, 91, 38
2, 484554, Note_on_c, 0, 94, 0
2, 484564, Note_on_c, 0, 87, 59
2, 484750, Note_on_c, 0, 91, 0
2, 484802, Note_on_c, 0, 56, 0
2, 484822, Note_on_c, 0, 82, 35
2, 484825, Note_on_c, 0, 67, 0
2, 484908, Note_on_c, 0, 82, 0
2, 484914, Note_on_c, 0, 87, 0
2, 485041, Note_on_c, 0, 60, 0
2, 485057, Note_on_c, 0, 63, 0
2, 485261, Note_on_c, 0, 62, 64
2, 485265, Note_on_c, 0, 66, 74
2, 485270, Note_on_c, 0, 60, 54
2, 485276, Note_on_c, 0, 95, 87
2, 485301, Note_on_c, 0, 83, 84
2, 485309, Note_on_c, 0, 56, 61
2, 485777, Note_on_c, 0, 83, 0
2, 485792, Note_on_c, 0, 90, 48
2, 485889, Note_on_c, 0, 66, 0
2, 485948, Note_on_c, 0, 87, 27
2, 486029, Note_on_c, 0, 95, 0
2, 486116, Note_on_c, 0, 56, 0
2, 486154, Note_on_c, 0, 60, 0
2, 486174, Note_on_c, 0, 83, 53
2, 486231, Note_on_c, 0, 62, 0
2, 486330, Note_on_c, 0, 90, 0
2, 486376, Note_on_c, 0, 87, 0
2, 486430, Note_on_c, 0, 83, 0
2, 486653, Note_on_c, 0, 66, 75
2, 486661, Note_on_c, 0, 62, 57
2, 486665, Note_on_c, 0, 96, 80
2, 486678, Note_on_c, 0, 89, 68
2, 486680, Note_on_c, 0, 92, 59
2, 486684, Note_on_c, 0, 56, 61
2, 486686, Note_on_c, 0, 84, 71
2, 486690, Note_on_c, 0, 60, 50
2, 486859, Note_on_c, 0, 92, 0
2, 486942, Note_on_c, 0, 89, 0
2, 487063, Note_on_c, 0, 84, 0
2, 487108, Note_on_c, 0, 60, 0
2, 487162, Note_on_c, 0, 62, 0
2, 487254, Note_on_c, 0, 93, 36
2, 487304, Note_on_c, 0, 66, 0
2, 487310, Note_on_c, 0, 95, 12
2, 487408, Note_on_c, 0, 96, 0
2, 487456, Note_on_c, 0, 89, 46
2, 487555, Note_on_c, 0, 95, 0
2, 487580, Note_on_c, 0, 66, 33
2, 487593, Note_on_c, 0, 62, 33
2, 487651, Note_on_c, 0, 84, 50
2, 487655, Note_on_c, 0, 66, 0
2, 487682, Note_on_c, 0, 89, 0
2, 487739, Note_on_c, 0, 56, 0
2, 487793, Note_on_c, 0, 93, 0
2, 487884, Note_on_c, 0, 65, 68
2, 487909, Note_on_c, 0, 60, 36
2, 487911, Note_on_c, 0, 93, 39
2, 487915, Note_on_c, 0, 98, 55
2, 487922, Note_on_c, 0, 55, 54
2, 487932, Note_on_c, 0, 96, 55
2, 488175, Note_on_c, 0, 84, 0
2, 488179, Note_on_c, 0, 93, 0
2, 488258, Note_on_c, 0, 96, 0
2, 488269, Note_on_c, 0, 86, 1
2, 488439, Note_on_c, 0, 93, 16
2, 489240, Note_on_c, 0, 93, 0
2, 489242, Note_on_c, 0, 86, 0
2, 489265, Note_on_c, 0, 98, 0
2, 489276, Note_on_c, 0, 62, 0
2, 489332, Note_on_c, 0, 65, 0
2, 489386, Note_on_c, 0, 60, 0
2, 489690, Note_on_c, 0, 60, 50
2, 489696, Note_on_c, 0, 65, 53
2, 489700, Note_on_c, 0, 90, 45
2, 489710, Note_on_c, 0, 98, 52
2, 489712, Note_on_c, 0, 93, 58
2, 489714, Note_on_c, 0, 62, 48
2, 489717, Note_on_c, 0, 86, 50
2, 489952, Note_on_c, 0, 98, 0
2, 490049, Note_on_c, 0, 93, 0
2, 490099, Note_on_c, 0, 90, 0
2, 490143, Note_on_c, 0, 86, 0
2, 490214, Note_on_c, 0, 65, 0
2, 490270, Note_on_c, 0, 62, 0
2, 490376, Note_on_c, 0, 60, 0
2, 490574, Note_on_c, 0, 55, 0
2, 491218, Note_on_c, 0, 61, 46
2, 491385, Note_on_c, 0, 61, 0
2, 491510, Note_on_c, 0, 63, 81
2, 491528, Note_on_c, 0, 75, 77
2, 491530, Note_on_c, 0, 68, 77
2, 491557, Note_on_c, 0, 72, 53
2, 491559, Note_on_c, 0, 65, 70
2, 491849, Note_on_c, 0, 65, 0
2, 491882, Note_on_c, 0, 72, 0
2, 491905, Note_on_c, 0, 68, 0
2, 491963, Note_on_c, 0, 75, 0
2, 491975, Note_on_c, 0, 63, 0
2, 492481, Note_on_c, 0, 60, 56
2, 492489, Note_on_c, 0, 68, 64
2, 492506, Note_on_c, 0, 72, 37
2, 492525, Note_on_c, 0, 65, 60
2, 492678, Note_on_c, 0, 60, 0
2, 492824, Note_on_c, 0, 72, 0
2, 492999, Note_on_c, 0, 65, 0
2, 493155, Note_on_c, 0, 68, 0
2, 493469, Note_on_c, 0, 71, 60
2, 493481, Note_on_c, 0, 58, 45
2, 493500, Note_on_c, 0, 67, 62
2, 493517, Note_on_c, 0, 62, 51
2, 493737, Note_on_c, 0, 58, 0
2, 494675, Note_on_c, 0, 62, 0
2, 494840, Note_on_c, 0, 67, 0
2, 494912, Note_on_c, 0, 71, 0
2, 495098, Note_on_c, 0, 54, 42
2, 495256, Note_on_c, 0, 54, 0
2, 495990, Note_on_c, 0, 54, 62
2, 496029, Note_on_c, 0, 66, 36
2, 496063, Note_on_c, 0, 62, 32
2, 496073, Note_on_c, 0, 69, 29
2, 496187, Note_on_c, 0, 62, 0
2, 496260, Note_on_c, 0, 69, 0
2, 496312, Note_on_c, 0, 54, 0
2, 496348, Note_on_c, 0, 57, 50
2, 496387, Note_on_c, 0, 62, 34
2, 496402, Note_on_c, 0, 72, 37
2, 496809, Note_on_c, 0, 72, 0
2, 496882, Note_on_c, 0, 62, 0
2, 496942, Note_on_c, 0, 57, 0
2, 496967, Note_on_c, 0, 66, 0
2, 496992, Note_on_c, 0, 54, 35
2, 497273, Note_on_c, 0, 55, 47
2, 497286, Note_on_c, 0, 62, 54
2, 497288, Note_on_c, 0, 70, 56
2, 497290, Note_on_c, 0, 54, 0
2, 497681, Note_on_c, 0, 62, 0
2, 497741, Note_on_c, 0, 55, 0
2, 497787, Note_on_c, 0, 70, 0
2, 498309, Note_on_c, 0, 67, 71
2, 498927, Note_on_c, 0, 67, 0
2, 499008, Note_on_c, 0, 62, 39
2, 499181, Note_on_c, 0, 62, 0
2, 499287, Note_on_c, 0, 63, 64
2, 499931, Note_on_c, 0, 63, 0
2, 499965, Note_on_c, 0, 55, 24
2, 499971, Note_on_c, 0, 59, 32
2, 500081, Note_on_c, 0, 59, 0
2, 500117, Note_on_c, 0, 55, 0
2, 500169, Note_on_c, 0, 62, 60
2, 500818, Note_on_c, 0, 55, 28
2, 500882, Note_on_c, 0, 57, 30
2, 500976, Note_on_c, 0, 57, 0
2, 500980, Note_on_c, 0, 62, 0
2, 500996, Note_on_c, 0, 55, 0
2, 501098, Note_on_c, 0, 60, 62
2, 501704, Note_on_c, 0, 60, 0
2, 501754, Note_on_c, 0, 55, 38
2, 501964, Note_on_c, 0, 55, 0
2, 502076, Note_on_c, 0, 58, 35
2, 502652, Note_on_c, 0, 58, 0
2, 502731, Note_on_c, 0, 62, 53
2, 502752, Note_on_c, 0, 48, 51
2, 502785, Note_on_c, 0, 55, 31
2, 502962, Note_on_c, 0, 55, 0
2, 503020, Note_on_c, 0, 48, 0
2, 503091, Note_on_c, 0, 62, 0
2, 503241, Note_on_c, 0, 59, 40
2, 503655, Note_on_c, 0, 59, 0
2, 503690, Note_on_c, 0, 60, 68
2, 503933, Note_on_c, 0, 60, 0
2, 504077, Note_on_c, 0, 60, 69
2, 504480, Note_on_c, 0, 60, 0
2, 504636, Note_on_c, 0, 60, 70
2, 504780, Note_on_c, 0, 55, 24
2, 504915, Note_on_c, 0, 55, 0
2, 504948, Note_on_c, 0, 60, 0
2, 505059, Note_on_c, 0, 59, 37
2, 505500, Note_on_c, 0, 59, 0
2, 505566, Note_on_c, 0, 60, 67
2, 505610, Note_on_c, 0, 55, 37
2, 505808, Note_on_c, 0, 60, 0
2, 505845, Note_on_c, 0, 55, 0
2, 505945, Note_on_c, 0, 60, 73
2, 506409, Note_on_c, 0, 60, 0
2, 506565, Note_on_c, 0, 62, 62
2, 506974, Note_on_c, 0, 62, 0
2, 507149, Note_on_c, 0, 63, 74
2, 507846, Note_on_c, 0, 63, 0
2, 507904, Note_on_c, 0, 62, 60
2, 508424, Note_on_c, 0, 62, 0
2, 508516, Note_on_c, 0, 60, 62
2, 510658, Note_on_c, 0, 60, 0
2, 511376, Note_on_c, 0, 53, 37
2, 511486, Note_on_c, 0, 53, 0
2, 511804, Note_on_c, 0, 57, 47
2, 511969, Note_on_c, 0, 57, 0
2, 512077, Note_on_c, 0, 58, 57
2, 512355, Note_on_c, 0, 58, 0
2, 512403, Note_on_c, 0, 60, 65
2, 512422, Note_on_c, 0, 46, 27
2, 512611, Note_on_c, 0, 46, 0
2, 512647, Note_on_c, 0, 60, 0
2, 512834, Note_on_c, 0, 63, 37
2, 513087, Note_on_c, 0, 63, 0
2, 514338, Note_on_c, 0, 60, 68
2, 514535, Note_on_c, 0, 60, 0
2, 514679, Note_on_c, 0, 61, 55
2, 514907, Note_on_c, 0, 61, 0
2, 515032, Note_on_c, 0, 63, 53
2, 515180, Note_on_c, 0, 64, 68
2, 515182, Note_on_c, 0, 63, 0
2, 515380, Note_on_c, 0, 60, 34
2, 515384, Note_on_c, 0, 64, 0
2, 515475, Note_on_c, 0, 60, 0
2, 515515, Note_on_c, 0, 67, 77
2, 516226, Note_on_c, 0, 55, 25
2, 516270, Note_on_c, 0, 67, 0
2, 516299, Note_on_c, 0, 57, 31
2, 516476, Note_on_c, 0, 55, 0
2, 516544, Note_on_c, 0, 57, 0
2, 516555, Note_on_c, 0, 63, 31
2, 516648, Note_on_c, 0, 63, 0
2, 516867, Note_on_c, 0, 67, 58
2, 517091, Note_on_c, 0, 67, 0
2, 517158, Note_on_c, 0, 72, 62
2, 517220, Note_on_c, 0, 64, 55
2, 517233, Note_on_c, 0, 54, 45
2, 517275, Note_on_c, 0, 60, 38
2, 517399, Note_on_c, 0, 64, 0
2, 517476, Note_on_c, 0, 54, 0
2, 517503, Note_on_c, 0, 75, 83
2, 517512, Note_on_c, 0, 60, 0
2, 517589, Note_on_c, 0, 76, 33
2, 517605, Note_on_c, 0, 72, 0
2, 517676, Note_on_c, 0, 76, 0
2, 517815, Note_on_c, 0, 75, 0
2, 517861, Note_on_c, 0, 77, 78
2, 518213, Note_on_c, 0, 74, 72
2, 518267, Note_on_c, 0, 77, 0
2, 518327, Note_on_c, 0, 58, 43
2, 518437, Note_on_c, 0, 74, 0
2, 518537, Note_on_c, 0, 58, 0
2, 518627, Note_on_c, 0, 70, 46
2, 519009, Note_on_c, 0, 70, 0
2, 519055, Note_on_c, 0, 69, 29
2, 519169, Note_on_c, 0, 69, 0
2, 519284, Note_on_c, 0, 58, 25
2, 519303, Note_on_c, 0, 72, 62
2, 519352, Note_on_c, 0, 58, 0
2, 519621, Note_on_c, 0, 69, 50
2, 519635, Note_on_c, 0, 72, 0
2, 519883, Note_on_c, 0, 69, 0
2, 519974, Note_on_c, 0, 70, 68
2, 520211, Note_on_c, 0, 58, 28
2, 520228, Note_on_c, 0, 70, 0
2, 520320, Note_on_c, 0, 58, 0
2, 520330, Note_on_c, 0, 66, 34
2, 520536, Note_on_c, 0, 66, 0
2, 520642, Note_on_c, 0, 69, 50
2, 520964, Note_on_c, 0, 69, 0
2, 520991, Note_on_c, 0, 66, 39
2, 521158, Note_on_c, 0, 62, 30
2, 521172, Note_on_c, 0, 66, 0
2, 521245, Note_on_c, 0, 62, 0
2, 521260, Note_on_c, 0, 67, 60
2, 521462, Note_on_c, 0, 67, 0
2, 521607, Note_on_c, 0, 62, 48
2, 522007, Note_on_c, 0, 62, 0
2, 522175, Note_on_c, 0, 65, 78
2, 522541, Note_on_c, 0, 65, 0
2, 522755, Note_on_c, 0, 67, 66
2, 522990, Note_on_c, 0, 58, 38
2, 523182, Note_on_c, 0, 67, 0
2, 523188, Note_on_c, 0, 58, 0
2, 523292, Note_on_c, 0, 62, 56
2, 523695, Note_on_c, 0, 62, 0
2, 523845, Note_on_c, 0, 63, 71
2, 524230, Note_on_c, 0, 63, 0
2, 524367, Note_on_c, 0, 64, 48
2, 524787, Note_on_c, 0, 64, 0
2, 524829, Note_on_c, 0, 62, 34
2, 524842, Note_on_c, 0, 67, 63
2, 524854, Note_on_c, 0, 58, 39
2, 524902, Note_on_c, 0, 62, 0
2, 525070, Note_on_c, 0, 58, 0
2, 525141, Note_on_c, 0, 67, 0
2, 525195, Note_on_c, 0, 60, 48
2, 525748, Note_on_c, 0, 60, 0
2, 526108, Note_on_c, 0, 60, 51
2, 526539, Note_on_c, 0, 60, 0
2, 527067, Note_on_c, 0, 65, 78
2, 527702, Note_on_c, 0, 65, 0
2, 527706, Note_on_c, 0, 64, 48
2, 527941, Note_on_c, 0, 64, 0
2, 528020, Note_on_c, 0, 65, 55
2, 528494, Note_on_c, 0, 65, 0
2, 528633, Note_on_c, 0, 61, 39
2, 528652, Note_on_c, 0, 65, 55
2, 528654, Note_on_c, 0, 67, 58
2, 528658, Note_on_c, 0, 55, 42
2, 529114, Control_c, 0, 64, 127
2, 529626, Note_on_c, 0, 55, 0
2, 529646, Note_on_c, 0, 65, 0
2, 529694, Note_on_c, 0, 67, 0
2, 529865, Note_on_c, 0, 61, 0
2, 529865, Control_c, 0, 64, 0
2, 529902, Note_on_c, 0, 68, 65
2, 529942, Note_on_c, 0, 60, 50
2, 529952, Note_on_c, 0, 64, 54
2, 529990, Note_on_c, 0, 54, 49
2, 530824, Control_c, 0, 64, 127
2, 530988, Note_on_c, 0, 64, 0
2, 531092, Note_on_c, 0, 60, 0
2, 531161, Note_on_c, 0, 54, 0
2, 531419, Note_on_c, 0, 68, 0
2, 531493, Control_c, 0, 64, 0
2, 531521, Note_on_c, 0, 69, 66
2, 531531, Note_on_c, 0, 60, 55
2, 531541, Note_on_c, 0, 63, 64
2, 531847, Control_c, 0, 64, 127
2, 532375, Note_on_c, 0, 63, 0
2, 532481, Note_on_c, 0, 54, 36
2, 532575, Control_c, 0, 64, 0
2, 532598, Note_on_c, 0, 60, 0
2, 532646, Note_on_c, 0, 69, 0
2, 532752, Note_on_c, 0, 63, 40
2, 532818, Note_on_c, 0, 70, 52
2, 532910, Control_c, 0, 64, 127
2, 532989, Note_on_c, 0, 63, 0
2, 533097, Control_c, 0, 64, 0
2, 533380, Note_on_c, 0, 54, 0
2, 533542, Note_on_c, 0, 70, 0
2, 533759, Note_on_c, 0, 62, 34
2, 533784, Note_on_c, 0, 57, 39
2, 533794, Note_on_c, 0, 58, 39
2, 533806, Note_on_c, 0, 55, 33
2, 533819, Note_on_c, 0, 72, 51
2, 534724, Control_c, 0, 64, 127
2, 535177, Note_on_c, 0, 57, 0
2, 535215, Note_on_c, 0, 62, 0
2, 535292, Note_on_c, 0, 55, 0
2, 535310, Note_on_c, 0, 58, 0
2, 535321, Note_on_c, 0, 72, 0
2, 535681, Control_c, 0, 64, 0
2, 535757, Note_on_c, 0, 70, 59
2, 535789, Note_on_c, 0, 62, 42
2, 535818, Note_on_c, 0, 58, 47
2, 535826, Note_on_c, 0, 57, 41
2, 535868, Note_on_c, 0, 55, 32
2, 536537, Control_c, 0, 64, 127
2, 536829, Note_on_c, 0, 57, 0
2, 536864, Note_on_c, 0, 55, 0
2, 536866, Note_on_c, 0, 62, 0
2, 536887, Note_on_c, 0, 58, 0
2, 536964, Note_on_c, 0, 70, 0
2, 538164, Control_c, 0, 64, 0
2, 538247, Note_on_c, 0, 63, 77
2, 538251, Note_on_c, 0, 86, 77
2, 538264, Note_on_c, 0, 57, 65
2, 538266, Note_on_c, 0, 55, 60
2, 538268, Note_on_c, 0, 74, 83
2, 538272, Note_on_c, 0, 81, 78
2, 538285, Note_on_c, 0, 60, 48
2, 538516, Note_on_c, 0, 74, 0
2, 538551, Note_on_c, 0, 86, 0
2, 538557, Note_on_c, 0, 55, 0
2, 538576, Note_on_c, 0, 63, 0
2, 538603, Note_on_c, 0, 81, 0
2, 538626, Control_c, 0, 64, 127
2, 538707, Note_on_c, 0, 63, 60
2, 538709, Note_on_c, 0, 86, 58
2, 538726, Note_on_c, 0, 81, 70
2, 538730, Note_on_c, 0, 74, 58
2, 538732, Note_on_c, 0, 55, 51
2, 538909, Note_on_c, 0, 74, 0
2, 538959, Note_on_c, 0, 86, 0
2, 539011, Note_on_c, 0, 55, 0
2, 539017, Note_on_c, 0, 81, 0
2, 539021, Note_on_c, 0, 63, 0
2, 539071, Note_on_c, 0, 57, 0
2, 539121, Note_on_c, 0, 60, 0
2, 539273, Note_on_c, 0, 63, 51
2, 539279, Note_on_c, 0, 74, 64
2, 539281, Note_on_c, 0, 86, 64
2, 539291, Note_on_c, 0, 81, 62
2, 539302, Note_on_c, 0, 55, 27
2, 539323, Note_on_c, 0, 60, 46
2, 539354, Note_on_c, 0, 74, 0
2, 539441, Note_on_c, 0, 55, 0
2, 539462, Note_on_c, 0, 81, 0
2, 539468, Note_on_c, 0, 86, 0
2, 539499, Note_on_c, 0, 63, 0
2, 539556, Note_on_c, 0, 60, 0
2, 539674, Control_c, 0, 64, 0
2, 539828, Note_on_c, 0, 58, 61
2, 539843, Note_on_c, 0, 54, 59
2, 539845, Note_on_c, 0, 65, 62
2, 539851, Note_on_c, 0, 86, 68
2, 539853, Note_on_c, 0, 93, 73
2, 539863, Note_on_c, 0, 98, 63
2, 539872, Note_on_c, 0, 60, 44
2, 539920, Note_on_c, 0, 96, 32
2, 540005, Note_on_c, 0, 96, 0
2, 540015, Note_on_c, 0, 65, 0
2, 540051, Note_on_c, 0, 93, 0
2, 540065, Note_on_c, 0, 60, 0
2, 540071, Note_on_c, 0, 86, 0
2, 540073, Note_on_c, 0, 98, 0
2, 540109, Note_on_c, 0, 54, 0
2, 540117, Note_on_c, 0, 58, 0
2, 540591, Note_on_c, 0, 65, 66
2, 540596, Note_on_c, 0, 54, 59
2, 540614, Note_on_c, 0, 96, 69
2, 540616, Note_on_c, 0, 58, 53
2, 540627, Note_on_c, 0, 60, 43
2, 540629, Note_on_c, 0, 91, 69
2, 540637, Note_on_c, 0, 84, 57
2, 540656, Control_c, 0, 64, 127
2, 540878, Note_on_c, 0, 96, 0
2, 540901, Note_on_c, 0, 65, 0
2, 540912, Note_on_c, 0, 91, 0
2, 540957, Note_on_c, 0, 60, 0
2, 541057, Note_on_c, 0, 84, 0
2, 541126, Note_on_c, 0, 54, 0
2, 541134, Note_on_c, 0, 58, 0
2, 541423, Control_c, 0, 64, 0
2, 541575, Note_on_c, 0, 62, 43
2, 541579, Note_on_c, 0, 57, 53
2, 541586, Note_on_c, 0, 55, 40
2, 541606, Note_on_c, 0, 88, 58
2, 541611, Note_on_c, 0, 58, 40
2, 541613, Note_on_c, 0, 93, 64
2, 541617, Note_on_c, 0, 81, 54
2, 541781, Control_c, 0, 64, 127
2, 541873, Note_on_c, 0, 81, 0
2, 541891, Note_on_c, 0, 93, 0
2, 542002, Note_on_c, 0, 62, 0
2, 542010, Note_on_c, 0, 57, 0
2, 542031, Note_on_c, 0, 58, 0
2, 542043, Note_on_c, 0, 88, 0
2, 542047, Note_on_c, 0, 55, 0
2, 542214, Note_on_c, 0, 94, 50
2, 542228, Note_on_c, 0, 82, 40
2, 542237, Note_on_c, 0, 62, 32
2, 542239, Note_on_c, 0, 55, 37
2, 542243, Note_on_c, 0, 58, 35
2, 542245, Note_on_c, 0, 57, 43
2, 542255, Note_on_c, 0, 88, 22
2, 542293, Note_on_c, 0, 94, 0
2, 542322, Note_on_c, 0, 62, 0
2, 542324, Note_on_c, 0, 88, 0
2, 542332, Note_on_c, 0, 57, 0
2, 542341, Note_on_c, 0, 55, 0
2, 542368, Note_on_c, 0, 82, 0
2, 542376, Note_on_c, 0, 58, 0
2, 542409, Control_c, 0, 64, 0
2, 542511, Note_on_c, 0, 55, 55
2, 542524, Note_on_c, 0, 96, 65
2, 542526, Note_on_c, 0, 62, 59
2, 542532, Note_on_c, 0, 84, 71
2, 542542, Note_on_c, 0, 58, 52
2, 542549, Note_on_c, 0, 57, 50
2, 542763, Control_c, 0, 64, 127
2, 542784, Note_on_c, 0, 96, 0
2, 542919, Note_on_c, 0, 84, 0
2, 542923, Note_on_c, 0, 62, 0
2, 542931, Note_on_c, 0, 57, 0
2, 543027, Note_on_c, 0, 58, 0
2, 543037, Note_on_c, 0, 55, 0
2, 543096, Control_c, 0, 64, 0
2, 543206, Note_on_c, 0, 94, 60
2, 543218, Note_on_c, 0, 82, 59
2, 543233, Note_on_c, 0, 89, 56
2, 543243, Note_on_c, 0, 58, 64
2, 543252, Note_on_c, 0, 52, 64
2, 544342, Control_c, 0, 64, 127
2, 544377, Note_on_c, 0, 52, 0
2, 544516, Note_on_c, 0, 58, 0
2, 544545, Note_on_c, 0, 89, 0
2, 544558, Note_on_c, 0, 94, 0
2, 544579, Note_on_c, 0, 82, 0
2, 545261, Control_c, 0, 64, 0
2, 545267, Note_on_c, 0, 82, 44
2, 545286, Note_on_c, 0, 63, 52
2, 545290, Note_on_c, 0, 56, 53
2, 545292, Note_on_c, 0, 67, 60
2, 545315, Note_on_c, 0, 70, 42
2, 545319, Note_on_c, 0, 60, 51
2, 546199, Note_on_c, 0, 70, 0
2, 546264, Control_c, 0, 64, 127
2, 546600, Note_on_c, 0, 67, 0
2, 546607, Note_on_c, 0, 63, 0
2, 546680, Note_on_c, 0, 60, 0
2, 546686, Note_on_c, 0, 82, 0
2, 546719, Note_on_c, 0, 56, 0
2, 547139, Control_c, 0, 64, 0
2, 547224, Note_on_c, 0, 82, 84
2, 547249, Note_on_c, 0, 66, 74
2, 547252, Note_on_c, 0, 56, 68
2, 547256, Note_on_c, 0, 78, 74
2, 547258, Note_on_c, 0, 62, 62
2, 547260, Note_on_c, 0, 74, 87
2, 547279, Note_on_c, 0, 60, 55
2, 547566, Note_on_c, 0, 74, 0
2, 547572, Note_on_c, 0, 66, 0
2, 547576, Note_on_c, 0, 78, 0
2, 547616, Note_on_c, 0, 56, 0
2, 547638, Note_on_c, 0, 60, 0
2, 547655, Note_on_c, 0, 82, 0
2, 547684, Note_on_c, 0, 62, 0
2, 548246, Note_on_c, 0, 66, 67
2, 548256, Note_on_c, 0, 56, 62
2, 548262, Note_on_c, 0, 80, 67
2, 548279, Note_on_c, 0, 62, 48
2, 548281, Note_on_c, 0, 74, 74
2, 548300, Note_on_c, 0, 78, 50
2, 548327, Note_on_c, 0, 60, 36
2, 548456, Note_on_c, 0, 78, 0
2, 548537, Note_on_c, 0, 74, 0
2, 548564, Note_on_c, 0, 80, 0
2, 548618, Note_on_c, 0, 66, 0
2, 548695, Note_on_c, 0, 60, 0
2, 548712, Note_on_c, 0, 56, 0
2, 548797, Note_on_c, 0, 62, 0
2, 549261, Note_on_c, 0, 74, 70
2, 549277, Note_on_c, 0, 78, 54
2, 549280, Note_on_c, 0, 66, 60
2, 549290, Note_on_c, 0, 69, 62
2, 549292, Note_on_c, 0, 62, 44
2, 549311, Note_on_c, 0, 56, 50
2, 549329, Note_on_c, 0, 60, 36
2, 549456, Control_c, 0, 64, 127
2, 550064, Note_on_c, 0, 69, 0
2, 550130, Note_on_c, 0, 60, 0
2, 550143, Note_on_c, 0, 66, 0
2, 550172, Note_on_c, 0, 62, 0
2, 550253, Note_on_c, 0, 56, 0
2, 550270, Note_on_c, 0, 74, 0
2, 550359, Note_on_c, 0, 78, 0
2, 550706, Control_c, 0, 64, 0
2, 550783, Note_on_c, 0, 74, 64
2, 550790, Note_on_c, 0, 79, 60
2, 550794, Note_on_c, 0, 67, 61
2, 550808, Note_on_c, 0, 65, 57
2, 550812, Note_on_c, 0, 62, 38
2, 550844, Note_on_c, 0, 60, 38
2, 550846, Note_on_c, 0, 55, 27
2, 551124, Control_c, 0, 64, 127
2, 551253, Note_on_c, 0, 79, 0
2, 551301, Note_on_c, 0, 74, 0
2, 551305, Note_on_c, 0, 65, 0
2, 551362, Note_on_c, 0, 62, 0
2, 551384, Note_on_c, 0, 60, 0
2, 551432, Note_on_c, 0, 67, 0
2, 551551, Note_on_c, 0, 55, 0
2, 551973, Control_c, 0, 64, 0
2, 552088, Note_on_c, 0, 70, 69
2, 552090, Note_on_c, 0, 58, 63
2, 552106, Note_on_c, 0, 63, 74
2, 552121, Note_on_c, 0, 67, 67
2, 552140, Note_on_c, 0, 60, 66
2, 552474, Note_on_c, 0, 67, 0
2, 552605, Note_on_c, 0, 60, 0
2, 552639, Note_on_c, 0, 63, 0
2, 552682, Note_on_c, 0, 70, 0
2, 552774, Note_on_c, 0, 58, 0
2, 552784, Note_on_c, 0, 63, 49
2, 552791, Note_on_c, 0, 67, 51
2, 552799, Note_on_c, 0, 60, 44
2, 552811, Note_on_c, 0, 53, 47
2, 553032, Note_on_c, 0, 67, 0
2, 553152, Note_on_c, 0, 53, 0
2, 553161, Note_on_c, 0, 60, 0
2, 553202, Note_on_c, 0, 63, 0
2, 553679, Note_on_c, 0, 46, 59
2, 554151, Note_on_c, 0, 46, 0
2, 554698, Note_on_c, 0, 71, 80
2, 554706, Note_on_c, 0, 67, 80
2, 554715, Note_on_c, 0, 62, 82
2, 554721, Note_on_c, 0, 56, 76
2, 555370, Note_on_c, 0, 71, 0
2, 555405, Note_on_c, 0, 67, 0
2, 555503, Note_on_c, 0, 62, 0
2, 555576, Note_on_c, 0, 46, 49
2, 555599, Note_on_c, 0, 56, 0
2, 555898, Note_on_c, 0, 56, 63
2, 555898, Note_on_c, 0, 67, 51
2, 555904, Note_on_c, 0, 59, 53
2, 555913, Note_on_c, 0, 62, 45
2, 555950, Note_on_c, 0, 64, 54
2, 556125, Note_on_c, 0, 56, 0
2, 556200, Note_on_c, 0, 64, 0
2, 556220, Note_on_c, 0, 59, 0
2, 556275, Note_on_c, 0, 62, 0
2, 556277, Note_on_c, 0, 67, 0
2, 556497, Note_on_c, 0, 46, 0
2, 556880, Note_on_c, 0, 50, 46
2, 556901, Note_on_c, 0, 66, 51
2, 556903, Note_on_c, 0, 62, 47
2, 556913, Note_on_c, 0, 57, 60
2, 557878, Control_c, 0, 64, 127
2, 557936, Note_on_c, 0, 57, 0
2, 558151, Note_on_c, 0, 66, 0
2, 558246, Note_on_c, 0, 62, 0
2, 558525, Control_c, 0, 64, 0
2, 558729, Note_on_c, 0, 62, 50
2, 558735, Note_on_c, 0, 67, 49
2, 558737, Note_on_c, 0, 50, 0
2, 558752, Note_on_c, 0, 55, 32
2, 558773, Note_on_c, 0, 51, 49
2, 559068, Control_c, 0, 64, 127
2, 559395, Note_on_c, 0, 55, 0
2, 559686, Note_on_c, 0, 62, 0
2, 559698, Note_on_c, 0, 67, 0
2, 559713, Note_on_c, 0, 51, 0
2, 561275, Control_c, 0, 64, 0
2, 561710, Control_c, 0, 64, 127
2, 562130, Control_c, 0, 64, 0
2, 562319, Note_on_c, 0, 51, 59
2, 562329, Note_on_c, 0, 62, 56
2, 562334, Note_on_c, 0, 79, 57
2, 562336, Note_on_c, 0, 67, 68
2, 562344, Note_on_c, 0, 57, 57
2, 562354, Note_on_c, 0, 74, 57
2, 562438, Note_on_c, 0, 62, 0
2, 562479, Note_on_c, 0, 57, 0
2, 562498, Note_on_c, 0, 67, 0
2, 562519, Note_on_c, 0, 79, 0
2, 562521, Note_on_c, 0, 51, 0
2, 562571, Note_on_c, 0, 74, 0
2, 562795, Note_on_c, 0, 81, 66
2, 562800, Note_on_c, 0, 74, 57
2, 562808, Note_on_c, 0, 69, 50
2, 562837, Note_on_c, 0, 62, 45
2, 562864, Note_on_c, 0, 57, 45
2, 562901, Note_on_c, 0, 51, 23
2, 562908, Note_on_c, 0, 62, 0
2, 562916, Note_on_c, 0, 69, 0
2, 562960, Note_on_c, 0, 74, 0
2, 562962, Note_on_c, 0, 81, 0
2, 562964, Note_on_c, 0, 57, 0
2, 562980, Note_on_c, 0, 51, 0
2, 563582, Note_on_c, 0, 62, 51
2, 563592, Note_on_c, 0, 82, 68
2, 563615, Note_on_c, 0, 70, 44
2, 563669, Note_on_c, 0, 62, 0
2, 563686, Note_on_c, 0, 70, 0
2, 563763, Note_on_c, 0, 82, 0
2, 564522, Note_on_c, 0, 86, 64
2, 564534, Note_on_c, 0, 67, 42
2, 564540, Note_on_c, 0, 82, 40
2, 564543, Note_on_c, 0, 74, 53
2, 564545, Note_on_c, 0, 58, 36
2, 564559, Note_on_c, 0, 79, 40
2, 564570, Note_on_c, 0, 63, 43
2, 564607, Note_on_c, 0, 62, 43
2, 564676, Control_c, 0, 64, 127
2, 564946, Note_on_c, 0, 86, 0
2, 564954, Note_on_c, 0, 62, 0
2, 564957, Note_on_c, 0, 79, 0
2, 564973, Note_on_c, 0, 58, 0
2, 564982, Note_on_c, 0, 74, 0
2, 564988, Note_on_c, 0, 63, 0
2, 564996, Note_on_c, 0, 67, 0
2, 565027, Note_on_c, 0, 82, 0
2, 565196, Note_on_c, 0, 86, 58
2, 565200, Note_on_c, 0, 58, 46
2, 565202, Note_on_c, 0, 63, 40
2, 565206, Note_on_c, 0, 67, 54
2, 565215, Note_on_c, 0, 82, 46
2, 565217, Note_on_c, 0, 74, 39
2, 565231, Note_on_c, 0, 62, 28
2, 565250, Note_on_c, 0, 79, 48
2, 565358, Note_on_c, 0, 62, 0
2, 565362, Control_c, 0, 64, 0
2, 565408, Note_on_c, 0, 67, 0
2, 565414, Note_on_c, 0, 86, 0
2, 565418, Note_on_c, 0, 58, 0
2, 565429, Note_on_c, 0, 79, 0
2, 565439, Note_on_c, 0, 74, 0
2, 565472, Note_on_c, 0, 63, 0
2, 565479, Note_on_c, 0, 82, 0
2, 565591, Note_on_c, 0, 86, 41
2, 565610, Note_on_c, 0, 67, 42
2, 565614, Note_on_c, 0, 63, 33
2, 565616, Note_on_c, 0, 58, 44
2, 565630, Note_on_c, 0, 74, 38
2, 565637, Note_on_c, 0, 82, 45
2, 565653, Note_on_c, 0, 79, 44
2, 565658, Note_on_c, 0, 62, 44
2, 565739, Control_c, 0, 64, 127
2, 565843, Control_c, 0, 64, 0
2, 565942, Note_on_c, 0, 62, 0
2, 565949, Note_on_c, 0, 58, 0
2, 565959, Note_on_c, 0, 79, 0
2, 565961, Note_on_c, 0, 74, 0
2, 565969, Note_on_c, 0, 86, 0
2, 565992, Note_on_c, 0, 67, 0
2, 566005, Note_on_c, 0, 63, 0
2, 566011, Note_on_c, 0, 82, 0
2, 566209, Note_on_c, 0, 86, 59
2, 566217, Note_on_c, 0, 63, 39
2, 566219, Note_on_c, 0, 67, 48
2, 566221, Note_on_c, 0, 58, 56
2, 566236, Note_on_c, 0, 74, 48
2, 566244, Note_on_c, 0, 62, 35
2, 566250, Note_on_c, 0, 82, 39
2, 566257, Note_on_c, 0, 79, 49
2, 566427, Note_on_c, 0, 62, 0
2, 566433, Note_on_c, 0, 86, 0
2, 566435, Note_on_c, 0, 74, 0
2, 566442, Note_on_c, 0, 58, 0
2, 566448, Note_on_c, 0, 67, 0
2, 566450, Note_on_c, 0, 79, 0
2, 566489, Control_c, 0, 64, 127
2, 566508, Note_on_c, 0, 82, 0
2, 566512, Note_on_c, 0, 63, 0
2, 566658, Note_on_c, 0, 86, 60
2, 566687, Note_on_c, 0, 67, 36
2, 566714, Note_on_c, 0, 63, 25
2, 566716, Note_on_c, 0, 58, 37
2, 566731, Note_on_c, 0, 74, 34
2, 566733, Note_on_c, 0, 82, 27
2, 566739, Note_on_c, 0, 79, 45
2, 566760, Control_c, 0, 64, 0
2, 566762, Note_on_c, 0, 62, 37
2, 566947, Note_on_c, 0, 67, 0
2, 566991, Note_on_c, 0, 86, 0
2, 566993, Note_on_c, 0, 62, 0
2, 566997, Note_on_c, 0, 58, 0
2, 567020, Note_on_c, 0, 74, 0
2, 567028, Note_on_c, 0, 79, 0
2, 567080, Note_on_c, 0, 63, 0
2, 567163, Note_on_c, 0, 82, 0
2, 567365, Control_c, 0, 64, 127
2, 567369, Note_on_c, 0, 82, 30
2, 567374, Note_on_c, 0, 84, 34
2, 567384, Note_on_c, 0, 72, 33
2, 567390, Note_on_c, 0, 79, 38
2, 567394, Note_on_c, 0, 67, 40
2, 567400, Note_on_c, 0, 58, 38
2, 567494, Note_on_c, 0, 62, 24
2, 567546, Note_on_c, 0, 72, 0
2, 567584, Note_on_c, 0, 79, 0
2, 567588, Note_on_c, 0, 84, 0
2, 567600, Note_on_c, 0, 62, 0
2, 567615, Note_on_c, 0, 67, 0
2, 567634, Note_on_c, 0, 82, 0
2, 567706, Note_on_c, 0, 58, 0
2, 567825, Control_c, 0, 64, 0
2, 568043, Note_on_c, 0, 86, 60
2, 568052, Note_on_c, 0, 74, 49
2, 568066, Note_on_c, 0, 78, 44
2, 568074, Note_on_c, 0, 67, 36
2, 568079, Note_on_c, 0, 63, 31
2, 568089, Note_on_c, 0, 81, 35
2, 568091, Note_on_c, 0, 62, 46
2, 568101, Note_on_c, 0, 57, 41
2, 568326, Control_c, 0, 64, 127
2, 568332, Note_on_c, 0, 67, 0
2, 568335, Note_on_c, 0, 62, 0
2, 568372, Note_on_c, 0, 57, 0
2, 568376, Note_on_c, 0, 74, 0
2, 568401, Note_on_c, 0, 78, 0
2, 568409, Note_on_c, 0, 86, 0
2, 568411, Note_on_c, 0, 63, 0
2, 568439, Note_on_c, 0, 81, 0
2, 568572, Control_c, 0, 64, 0
2, 569031, Note_on_c, 0, 78, 77
2, 569037, Note_on_c, 0, 81, 70
2, 569046, Note_on_c, 0, 84, 65
2, 569048, Note_on_c, 0, 86, 68
2, 569052, Note_on_c, 0, 72, 74
2, 569058, Note_on_c, 0, 63, 74
2, 569062, Note_on_c, 0, 62, 79
2, 569065, Note_on_c, 0, 74, 61
2, 569075, Note_on_c, 0, 67, 78
2, 569085, Note_on_c, 0, 57, 73
2, 569370, Control_c, 0, 64, 127
2, 569472, Note_on_c, 0, 86, 0
2, 569815, Note_on_c, 0, 84, 0
2, 569926, Note_on_c, 0, 72, 0
2, 569953, Note_on_c, 0, 74, 0
2, 569971, Note_on_c, 0, 57, 0
2, 570030, Note_on_c, 0, 67, 0
2, 570082, Note_on_c, 0, 78, 0
2, 570102, Note_on_c, 0, 62, 0
2, 570115, Note_on_c, 0, 81, 0
2, 570119, Note_on_c, 0, 63, 0
2, 570163, Control_c, 0, 64, 0
2, 570283, Note_on_c, 0, 78, 59
2, 570308, Note_on_c, 0, 86, 63
2, 570321, Note_on_c, 0, 63, 39
2, 570327, Note_on_c, 0, 74, 61
2, 570335, Note_on_c, 0, 81, 36
2, 570342, Note_on_c, 0, 62, 45
2, 570344, Note_on_c, 0, 67, 50
2, 570350, Note_on_c, 0, 57, 52
2, 570491, Note_on_c, 0, 74, 0
2, 570494, Note_on_c, 0, 81, 0
2, 570502, Note_on_c, 0, 67, 0
2, 570510, Note_on_c, 0, 62, 0
2, 570552, Note_on_c, 0, 78, 0
2, 570554, Note_on_c, 0, 63, 0
2, 570562, Note_on_c, 0, 86, 0
2, 570579, Note_on_c, 0, 57, 0
2, 571221, Note_on_c, 0, 63, 49
2, 571242, Note_on_c, 0, 67, 48
2, 571253, Note_on_c, 0, 87, 48
2, 571263, Note_on_c, 0, 57, 47
2, 571278, Note_on_c, 0, 75, 35
2, 571367, Note_on_c, 0, 75, 0
2, 571384, Note_on_c, 0, 67, 0
2, 571409, Note_on_c, 0, 87, 0
2, 571461, Note_on_c, 0, 63, 0
2, 571542, Note_on_c, 0, 57, 0
2, 572877, Note_on_c, 0, 73, 51
2, 572883, Note_on_c, 0, 79, 57
2, 572888, Note_on_c, 0, 70, 62
2, 572915, Note_on_c, 0, 64, 63
2, 573125, Note_on_c, 0, 70, 0
2, 573160, Note_on_c, 0, 79, 0
2, 573198, Note_on_c, 0, 64, 0
2, 573216, Note_on_c, 0, 73, 0
2, 573299, Note_on_c, 0, 61, 45
2, 573360, Note_on_c, 0, 76, 36
2, 573634, Note_on_c, 0, 76, 0
2, 573878, Note_on_c, 0, 70, 52
2, 573882, Note_on_c, 0, 79, 51
2, 573886, Note_on_c, 0, 73, 39
2, 573896, Note_on_c, 0, 64, 61
2, 573975, Note_on_c, 0, 79, 0
2, 574067, Note_on_c, 0, 64, 0
2, 574098, Note_on_c, 0, 70, 0
2, 574136, Note_on_c, 0, 73, 0
2, 574250, Note_on_c, 0, 61, 0
2, 574308, Note_on_c, 0, 67, 37
2, 574310, Note_on_c, 0, 77, 48
2, 574314, Note_on_c, 0, 62, 42
2, 574337, Note_on_c, 0, 70, 18
2, 574533, Note_on_c, 0, 67, 0
2, 574568, Note_on_c, 0, 77, 0
2, 574620, Note_on_c, 0, 70, 0
2, 574624, Note_on_c, 0, 62, 0
2, 576679, Note_on_c, 0, 72, 68
2, 576681, Note_on_c, 0, 63, 80
2, 576686, Note_on_c, 0, 57, 70
2, 576700, Note_on_c, 0, 66, 65
2, 576923, Note_on_c, 0, 66, 0
2, 576933, Note_on_c, 0, 63, 0
2, 576946, Note_on_c, 0, 72, 0
2, 576948, Note_on_c, 0, 57, 0
2, 577029, Note_on_c, 0, 54, 42
2, 577137, Note_on_c, 0, 69, 33
2, 577299, Note_on_c, 0, 69, 0
2, 577574, Note_on_c, 0, 54, 0
2, 577626, Note_on_c, 0, 72, 53
2, 577630, Note_on_c, 0, 63, 63
2, 577632, Note_on_c, 0, 66, 59
2, 577636, Note_on_c, 0, 57, 58
2, 577821, Note_on_c, 0, 72, 0
2, 577836, Note_on_c, 0, 66, 0
2, 577871, Note_on_c, 0, 57, 0
2, 577877, Note_on_c, 0, 63, 0
2, 577990, Note_on_c, 0, 70, 57
2, 577998, Note_on_c, 0, 55, 51
2, 578046, Note_on_c, 0, 65, 31
2, 578050, Note_on_c, 0, 62, 20
2, 578160, Note_on_c, 0, 65, 0
2, 578192, Note_on_c, 0, 55, 0
2, 578194, Note_on_c, 0, 62, 0
2, 578262, Note_on_c, 0, 70, 0
2, 578938, Control_c, 0, 64, 127
2, 579544, Note_on_c, 0, 72, 30
2, 579548, Note_on_c, 0, 74, 31
2, 579652, Note_on_c, 0, 74, 0
2, 579749, Note_on_c, 0, 72, 0
2, 579837, Control_c, 0, 64, 0
2, 579914, Note_on_c, 0, 58, 38
2, 579924, Note_on_c, 0, 62, 40
2, 579933, Note_on_c, 0, 52, 35
2, 579939, Note_on_c, 0, 74, 67
2, 579941, Note_on_c, 0, 67, 62
2, 580671, Control_c, 0, 64, 127
2, 580889, Note_on_c, 0, 62, 0
2, 580983, Note_on_c, 0, 67, 0
2, 581060, Note_on_c, 0, 58, 0
2, 581064, Note_on_c, 0, 52, 0
2, 581324, Note_on_c, 0, 74, 0
2, 581811, Note_on_c, 0, 74, 48
2, 581817, Control_c, 0, 64, 0
2, 581836, Note_on_c, 0, 67, 44
2, 581865, Note_on_c, 0, 62, 25
2, 581881, Note_on_c, 0, 52, 22
2, 581884, Note_on_c, 0, 58, 35
2, 581956, Note_on_c, 0, 62, 0
2, 581983, Control_c, 0, 64, 127
2, 582069, Note_on_c, 0, 67, 0
2, 582137, Note_on_c, 0, 74, 0
2, 582235, Note_on_c, 0, 52, 0
2, 582439, Note_on_c, 0, 58, 0
2, 582832, Note_on_c, 0, 77, 80
2, 583471, Note_on_c, 0, 77, 0
2, 583548, Control_c, 0, 64, 0
2, 583760, Note_on_c, 0, 77, 58
2, 583787, Note_on_c, 0, 70, 49
2, 583801, Note_on_c, 0, 75, 42
2, 583853, Note_on_c, 0, 53, 33
2, 583855, Note_on_c, 0, 67, 29
2, 583903, Control_c, 0, 64, 127
2, 583939, Note_on_c, 0, 67, 0
2, 583966, Note_on_c, 0, 70, 0
2, 584063, Note_on_c, 0, 77, 0
2, 584078, Note_on_c, 0, 75, 0
2, 584746, Note_on_c, 0, 89, 66
2, 585078, Note_on_c, 0, 89, 0
2, 585526, Control_c, 0, 64, 0
2, 585613, Note_on_c, 0, 63, 34
2, 585617, Note_on_c, 0, 89, 52
2, 585650, Note_on_c, 0, 82, 54
2, 585669, Note_on_c, 0, 65, 38
2, 585688, Note_on_c, 0, 77, 49
2, 585819, Control_c, 0, 64, 127
2, 586123, Note_on_c, 0, 77, 0
2, 586127, Note_on_c, 0, 63, 0
2, 586239, Note_on_c, 0, 53, 0
2, 586351, Note_on_c, 0, 89, 0
2, 586362, Note_on_c, 0, 82, 0
2, 586537, Note_on_c, 0, 53, 39
2, 586597, Note_on_c, 0, 86, 74
2, 586832, Note_on_c, 0, 65, 0
2, 587071, Note_on_c, 0, 86, 0
2, 587112, Control_c, 0, 64, 127
2, 587332, Control_c, 0, 64, 0
2, 587445, Control_c, 0, 64, 0
2, 587568, Note_on_c, 0, 86, 71
2, 587601, Note_on_c, 0, 65, 34
2, 587626, Note_on_c, 0, 60, 26
2, 587633, Note_on_c, 0, 62, 32
2, 587801, Control_c, 0, 64, 127
2, 588045, Note_on_c, 0, 86, 0
2, 588138, Note_on_c, 0, 53, 0
2, 588513, Note_on_c, 0, 53, 34
2, 588540, Note_on_c, 0, 81, 60
2, 588901, Note_on_c, 0, 81, 0
2, 588926, Note_on_c, 0, 60, 0
2, 588951, Note_on_c, 0, 65, 0
2, 588985, Note_on_c, 0, 62, 0
2, 589498, Note_on_c, 0, 81, 57
2, 589523, Note_on_c, 0, 62, 34
2, 589525, Note_on_c, 0, 65, 26
2, 589557, Note_on_c, 0, 60, 27
2, 589711, Note_on_c, 0, 81, 0
2, 589937, Note_on_c, 0, 53, 0
2, 590316, Note_on_c, 0, 65, 0
2, 590326, Note_on_c, 0, 60, 0
2, 590432, Note_on_c, 0, 53, 40
2, 590449, Note_on_c, 0, 77, 54
2, 590464, Note_on_c, 0, 62, 0
2, 590728, Note_on_c, 0, 77, 0
2, 591368, Control_c, 0, 64, 0
2, 591391, Note_on_c, 0, 63, 34
2, 591406, Note_on_c, 0, 77, 51
2, 591422, Note_on_c, 0, 58, 35
2, 591454, Note_on_c, 0, 65, 36
2, 591890, Control_c, 0, 64, 127
2, 592142, Note_on_c, 0, 58, 0
2, 592165, Note_on_c, 0, 63, 0
2, 592173, Note_on_c, 0, 53, 0
2, 592307, Control_c, 0, 64, 0
2, 592313, Note_on_c, 0, 70, 49
2, 592369, Note_on_c, 0, 53, 37
2, 592425, Note_on_c, 0, 65, 0
2, 592496, Control_c, 0, 64, 127
2, 592691, Note_on_c, 0, 70, 0
2, 593141, Control_c, 0, 64, 0
2, 593315, Note_on_c, 0, 70, 39
2, 593332, Note_on_c, 0, 58, 30
2, 593338, Note_on_c, 0, 63, 20
2, 593363, Note_on_c, 0, 65, 38
2, 593455, Control_c, 0, 64, 127
2, 593763, Note_on_c, 0, 63, 0
2, 593987, Note_on_c, 0, 53, 0
2, 594058, Note_on_c, 0, 77, 0
2, 594106, Note_on_c, 0, 58, 0
2, 594118, Note_on_c, 0, 70, 0
2, 594297, Note_on_c, 0, 53, 34
2, 594305, Control_c, 0, 64, 0
2, 594307, Note_on_c, 0, 77, 56
2, 594584, Note_on_c, 0, 77, 0
2, 595121, Note_on_c, 0, 65, 0
2, 595160, Note_on_c, 0, 53, 0
2, 595269, Note_on_c, 0, 77, 40
2, 596083, Control_c, 0, 64, 127
2, 596178, Note_on_c, 0, 77, 0
2, 596929, Control_c, 0, 64, 0
2, 597010, Control_c, 0, 64, 127
2, 597103, Note_on_c, 0, 65, 43
2, 597179, Note_on_c, 0, 74, 50
2, 597201, Note_on_c, 0, 62, 27
2, 597252, Note_on_c, 0, 60, 20
2, 597715, Note_on_c, 0, 65, 0
2, 597872, Note_on_c, 0, 74, 0
2, 598087, Note_on_c, 0, 65, 39
2, 598414, Note_on_c, 0, 65, 0
2, 599072, Note_on_c, 0, 53, 28
2, 599088, Control_c, 0, 64, 0
2, 599116, Note_on_c, 0, 65, 34
2, 599866, Note_on_c, 0, 65, 0
2, 600065, Note_on_c, 0, 67, 35
2, 600097, Control_c, 0, 64, 127
2, 600310, Note_on_c, 0, 62, 0
2, 600315, Note_on_c, 0, 60, 0
2, 600516, Note_on_c, 0, 67, 0
2, 600699, Control_c, 0, 64, 0
2, 601017, Note_on_c, 0, 67, 24
2, 601074, Note_on_c, 0, 62, 28
2, 601090, Note_on_c, 0, 65, 20
2, 601515, Control_c, 0, 64, 127
2, 601931, Note_on_c, 0, 69, 38
2, 601952, Note_on_c, 0, 67, 0
2, 602605, Note_on_c, 0, 69, 0
2, 602945, Note_on_c, 0, 69, 27
2, 603552, Note_on_c, 0, 69, 0
2, 603927, Note_on_c, 0, 70, 28
2, 604354, Note_on_c, 0, 70, 0
2, 604887, Note_on_c, 0, 70, 28
2, 605665, Note_on_c, 0, 70, 0
2, 606816, Note_on_c, 0, 72, 1
2, 607610, Note_on_c, 0, 72, 0
2, 607632, Note_on_c, 0, 74, 40
2, 608070, Note_on_c, 0, 74, 0
2, 608540, Note_on_c, 0, 65, 0
2, 608543, Note_on_c, 0, 62, 0
2, 608712, Note_on_c, 0, 74, 24
2, 608823, Note_on_c, 0, 53, 0
2, 609500, Note_on_c, 0, 74, 0
2, 610556, Note_on_c, 0, 75, 25
2, 611353, Note_on_c, 0, 75, 0
2, 612528, Control_c, 0, 64, 0
2, 612528, End_track
3, 0, Start_track
3, 0, Title_t, "Bass(Acoustic or Fretless)"
3, 0, Control_c, 1, 0, 0
3, 0, Control_c, 1, 7, 97
3, 1, Control_c, 1, 32, 2
3, 2, Program_c, 1, 32
3, 103732, Note_on_c, 1, 43, 37
3, 103768, Note_on_c, 1, 43, 47
3, 105249, Note_on_c, 1, 43, 0
3, 105261, Note_on_c, 1, 38, 58
3, 105561, Note_on_c, 1, 38, 0
3, 105765, Control_c, 1, 64, 127
3, 106248, Control_c, 1, 64, 0
3, 106310, Note_on_c, 1, 38, 57
3, 106435, Note_on_c, 1, 38, 0
3, 106545, Note_on_c, 1, 43, 0
3, 106620, Note_on_c, 1, 31, 57
3, 107690, Control_c, 1, 64, 127
3, 108374, Note_on_c, 1, 31, 0
3, 108484, Control_c, 1, 64, 0
3, 108530, Note_on_c, 1, 33, 69
3, 110186, Note_on_c, 1, 38, 69
3, 110356, Note_on_c, 1, 33, 0
3, 111429, Note_on_c, 1, 38, 0
3, 111453, Note_on_c, 1, 43, 64
3, 112082, Note_on_c, 1, 42, 52
3, 112099, Note_on_c, 1, 43, 0
3, 112288, Note_on_c, 1, 42, 0
3, 112387, Note_on_c, 1, 43, 34
3, 114268, Note_on_c, 1, 42, 69
3, 114345, Note_on_c, 1, 43, 0
3, 114914, Note_on_c, 1, 38, 31
3, 114940, Note_on_c, 1, 42, 0
3, 114986, Note_on_c, 1, 41, 71
3, 115034, Note_on_c, 1, 38, 0
3, 117751, Note_on_c, 1, 41, 0
3, 117775, Note_on_c, 1, 34, 70
3, 118929, Note_on_c, 1, 34, 0
3, 119049, Note_on_c, 1, 39, 62
3, 121593, Note_on_c, 1, 53, 75
3, 121730, Note_on_c, 1, 39, 0
3, 122020, Note_on_c, 1, 51, 71
3, 122133, Note_on_c, 1, 53, 0
3, 123451, Note_on_c, 1, 51, 0
3, 123482, Note_on_c, 1, 50, 66
3, 123727, Note_on_c, 1, 50, 0
3, 123849, Note_on_c, 1, 48, 60
3, 125412, Note_on_c, 1, 41, 45
3, 125517, Note_on_c, 1, 41, 0
3, 125625, Note_on_c, 1, 48, 0
3, 125769, Note_on_c, 1, 46, 46
3, 127216, Note_on_c, 1, 46, 0
3, 127356, Note_on_c, 1, 39, 57
3, 127603, Note_on_c, 1, 39, 0
3, 128652, Note_on_c, 1, 39, 61
3, 130159, Note_on_c, 1, 39, 0
3, 130204, Note_on_c, 1, 38, 63
3, 130442, Note_on_c, 1, 38, 0
3, 130608, Note_on_c, 1, 39, 63
3, 133099, Note_on_c, 1, 41, 49
3, 133132, Note_on_c, 1, 39, 0
3, 133365, Note_on_c, 1, 41, 0
3, 133485, Note_on_c, 1, 42, 37
3, 133977, Note_on_c, 1, 42, 0
3, 134131, Note_on_c, 1, 50, 80
3, 134551, Note_on_c, 1, 50, 0
3, 134570, Note_on_c, 1, 48, 71
3, 135189, Note_on_c, 1, 48, 0
3, 135374, Note_on_c, 1, 48, 57
3, 135928, Note_on_c, 1, 48, 0
3, 136346, Note_on_c, 1, 48, 49
3, 136905, Note_on_c, 1, 48, 0
3, 137004, Note_on_c, 1, 43, 34
3, 137241, Note_on_c, 1, 43, 0
3, 137400, Note_on_c, 1, 42, 38
3, 138016, Note_on_c, 1, 42, 0
3, 138069, Note_on_c, 1, 41, 46
3, 140848, Note_on_c, 1, 36, 47
3, 140865, Note_on_c, 1, 41, 0
3, 140944, Note_on_c, 1, 36, 0
3, 141153, Note_on_c, 1, 36, 46
3, 142036, Note_on_c, 1, 36, 0
3, 142173, Note_on_c, 1, 34, 48
3, 144681, Note_on_c, 1, 34, 0
3, 145612, Note_on_c, 1, 46, 61
3, 145965, Note_on_c, 1, 46, 0
3, 145994, Note_on_c, 1, 45, 60
3, 147552, Note_on_c, 1, 39, 46
3, 147612, Note_on_c, 1, 45, 0
3, 147760, Note_on_c, 1, 39, 0
3, 147885, Note_on_c, 1, 38, 50
3, 149388, Note_on_c, 1, 42, 42
3, 149460, Note_on_c, 1, 38, 0
3, 149724, Note_on_c, 1, 42, 0
3, 149767, Note_on_c, 1, 43, 39
3, 151286, Note_on_c, 1, 50, 46
3, 151531, Note_on_c, 1, 50, 0
3, 151737, Note_on_c, 1, 57, 88
3, 152414, Note_on_c, 1, 42, 50
3, 152510, Note_on_c, 1, 57, 0
3, 152568, Note_on_c, 1, 43, 0
3, 152664, Note_on_c, 1, 42, 0
3, 152685, Note_on_c, 1, 56, 85
3, 153456, Note_on_c, 1, 56, 0
3, 153614, Note_on_c, 1, 55, 59
3, 154087, Note_on_c, 1, 55, 0
3, 154204, Note_on_c, 1, 52, 55
3, 154447, Note_on_c, 1, 52, 0
3, 154605, Note_on_c, 1, 48, 51
3, 156170, Note_on_c, 1, 43, 38
3, 156412, Note_on_c, 1, 43, 0
3, 156439, Note_on_c, 1, 48, 0
3, 156547, Note_on_c, 1, 36, 54
3, 158102, Note_on_c, 1, 36, 0
3, 158152, Note_on_c, 1, 41, 81
3, 159403, Note_on_c, 1, 41, 0
3, 159480, Note_on_c, 1, 39, 87
3, 161068, Note_on_c, 1, 37, 46
3, 161186, Note_on_c, 1, 39, 0
3, 161241, Note_on_c, 1, 37, 0
3, 161301, Note_on_c, 1, 38, 74
3, 163178, Note_on_c, 1, 38, 0
3, 163250, Note_on_c, 1, 37, 70
3, 164793, Note_on_c, 1, 32, 58
3, 164836, Note_on_c, 1, 37, 0
3, 165002, Note_on_c, 1, 32, 0
3, 165132, Note_on_c, 1, 31, 57
3, 167704, Note_on_c, 1, 31, 0
3, 167709, Note_on_c, 1, 38, 55
3, 167937, Note_on_c, 1, 38, 0
3, 168050, Note_on_c, 1, 31, 56
3, 168847, Note_on_c, 1, 31, 0
3, 169012, Note_on_c, 1, 33, 69
3, 171480, Note_on_c, 1, 33, 0
3, 171508, Note_on_c, 1, 38, 67
3, 172836, Note_on_c, 1, 43, 55
3, 172855, Note_on_c, 1, 38, 0
3, 173503, Note_on_c, 1, 43, 0
3, 173510, Note_on_c, 1, 42, 43
3, 173560, Note_on_c, 1, 38, 24
3, 173702, Note_on_c, 1, 38, 0
3, 173738, Note_on_c, 1, 42, 0
3, 173817, Note_on_c, 1, 43, 42
3, 174602, Note_on_c, 1, 38, 30
3, 174643, Note_on_c, 1, 43, 0
3, 174741, Note_on_c, 1, 38, 0
3, 174799, Note_on_c, 1, 42, 67
3, 176371, Note_on_c, 1, 38, 49
3, 176479, Note_on_c, 1, 38, 0
3, 176611, Note_on_c, 1, 42, 0
3, 176680, Note_on_c, 1, 41, 58
3, 179217, Note_on_c, 1, 39, 50
3, 179251, Note_on_c, 1, 41, 0
3, 179448, Note_on_c, 1, 39, 0
3, 179558, Note_on_c, 1, 40, 57
3, 180444, Note_on_c, 1, 40, 0
3, 180585, Note_on_c, 1, 39, 69
3, 183012, Note_on_c, 1, 50, 85
3, 183628, Note_on_c, 1, 50, 0
3, 183681, Note_on_c, 1, 51, 74
3, 184036, Note_on_c, 1, 51, 0
3, 184300, Note_on_c, 1, 51, 72
3, 184406, Note_on_c, 1, 39, 0
3, 184960, Note_on_c, 1, 51, 0
3, 185013, Note_on_c, 1, 41, 71
3, 186285, Note_on_c, 1, 46, 79
3, 186295, Note_on_c, 1, 41, 0
3, 188061, Note_on_c, 1, 46, 0
3, 188217, Note_on_c, 1, 39, 69
3, 190958, Note_on_c, 1, 39, 0
3, 191049, Note_on_c, 1, 38, 53
3, 191632, Note_on_c, 1, 38, 0
3, 191712, Note_on_c, 1, 39, 70
3, 194587, Note_on_c, 1, 37, 53
3, 194731, Note_on_c, 1, 39, 0
3, 194863, Note_on_c, 1, 37, 0
3, 194899, Note_on_c, 1, 50, 88
3, 195751, Note_on_c, 1, 50, 0
3, 195868, Note_on_c, 1, 48, 64
3, 197668, Note_on_c, 1, 48, 0
3, 197822, Note_on_c, 1, 43, 38
3, 199380, Note_on_c, 1, 36, 40
3, 199392, Note_on_c, 1, 43, 0
3, 199668, Note_on_c, 1, 41, 46
3, 199675, Note_on_c, 1, 36, 0
3, 201362, Note_on_c, 1, 36, 56
3, 201460, Note_on_c, 1, 36, 0
3, 201480, Note_on_c, 1, 41, 0
3, 201686, Note_on_c, 1, 29, 35
3, 204295, Note_on_c, 1, 29, 0
3, 204537, Note_on_c, 1, 34, 73
3, 206023, Note_on_c, 1, 34, 0
3, 206126, Note_on_c, 1, 36, 50
3, 206337, Note_on_c, 1, 36, 0
3, 206460, Note_on_c, 1, 37, 49
3, 206920, Note_on_c, 1, 37, 0
3, 207086, Note_on_c, 1, 38, 76
3, 210151, Note_on_c, 1, 38, 0
3, 210283, Note_on_c, 1, 37, 40
3, 211051, Note_on_c, 1, 37, 0
3, 211288, Note_on_c, 1, 36, 50
3, 212894, Note_on_c, 1, 50, 95
3, 213151, Note_on_c, 1, 36, 0
3, 213242, Note_on_c, 1, 50, 0
3, 213386, Note_on_c, 1, 48, 88
3, 214226, Note_on_c, 1, 48, 0
3, 214260, Note_on_c, 1, 42, 45
3, 214900, Note_on_c, 1, 42, 0
3, 214917, Note_on_c, 1, 41, 68
3, 216098, Note_on_c, 1, 29, 63
3, 216256, Note_on_c, 1, 41, 0
3, 218025, Note_on_c, 1, 29, 0
3, 218064, Note_on_c, 1, 41, 79
3, 219972, Note_on_c, 1, 29, 76
3, 220173, Note_on_c, 1, 41, 0
3, 221767, Note_on_c, 1, 29, 0
3, 221820, Note_on_c, 1, 41, 85
3, 222691, Note_on_c, 1, 41, 0
3, 222748, Note_on_c, 1, 39, 83
3, 224558, Note_on_c, 1, 39, 0
3, 224623, Note_on_c, 1, 38, 60
3, 225688, Note_on_c, 1, 38, 0
3, 227130, Note_on_c, 1, 43, 48
3, 227334, Note_on_c, 1, 43, 0
3, 228550, Note_on_c, 1, 38, 49
3, 230079, Note_on_c, 1, 38, 0
3, 230099, Note_on_c, 1, 31, 47
3, 231392, Note_on_c, 1, 31, 0
3, 231466, Note_on_c, 1, 33, 57
3, 233010, Note_on_c, 1, 38, 45
3, 233043, Note_on_c, 1, 33, 0
3, 233993, Note_on_c, 1, 34, 34
3, 234100, Note_on_c, 1, 38, 0
3, 234185, Note_on_c, 1, 34, 0
3, 234249, Note_on_c, 1, 43, 48
3, 234571, Note_on_c, 1, 43, 0
3, 234917, Note_on_c, 1, 42, 32
3, 235012, Note_on_c, 1, 38, 19
3, 235147, Note_on_c, 1, 42, 0
3, 235204, Note_on_c, 1, 43, 30
3, 235255, Note_on_c, 1, 38, 0
3, 236730, Note_on_c, 1, 43, 0
3, 236804, Note_on_c, 1, 42, 40
3, 236911, Note_on_c, 1, 38, 27
3, 237001, Note_on_c, 1, 42, 0
3, 237044, Note_on_c, 1, 38, 0
3, 237121, Note_on_c, 1, 43, 32
3, 237738, Note_on_c, 1, 43, 0
3, 237741, Note_on_c, 1, 42, 65
3, 238045, Note_on_c, 1, 42, 0
3, 238071, Note_on_c, 1, 41, 57
3, 239589, Note_on_c, 1, 34, 59
3, 239615, Note_on_c, 1, 41, 0
3, 241537, Note_on_c, 1, 34, 0
3, 241578, Note_on_c, 1, 38, 58
3, 241898, Note_on_c, 1, 38, 0
3, 241952, Note_on_c, 1, 39, 55
3, 242579, Note_on_c, 1, 39, 0
3, 242856, Note_on_c, 1, 39, 53
3, 244786, Note_on_c, 1, 36, 52
3, 244789, Note_on_c, 1, 39, 0
3, 245841, Note_on_c, 1, 41, 43
3, 245851, Note_on_c, 1, 36, 0
3, 246765, Note_on_c, 1, 41, 0
3, 246808, Note_on_c, 1, 46, 69
3, 248393, Note_on_c, 1, 34, 57
3, 248964, Note_on_c, 1, 46, 0
3, 250420, Note_on_c, 1, 38, 30
3, 250566, Note_on_c, 1, 38, 0
3, 250587, Note_on_c, 1, 46, 69
3, 250761, Note_on_c, 1, 34, 0
3, 253073, Note_on_c, 1, 46, 0
3, 253121, Note_on_c, 1, 34, 59
3, 253341, Note_on_c, 1, 34, 0
3, 253567, Note_on_c, 1, 43, 17
3, 255986, Note_on_c, 1, 34, 52
3, 256193, Note_on_c, 1, 43, 0
3, 256209, Note_on_c, 1, 34, 0
3, 256349, Note_on_c, 1, 46, 48
3, 257053, Note_on_c, 1, 36, 38
3, 257181, Note_on_c, 1, 46, 0
3, 257186, Note_on_c, 1, 36, 0
3, 257330, Note_on_c, 1, 48, 75
3, 258817, Note_on_c, 1, 48, 0
3, 258840, Note_on_c, 1, 43, 36
3, 259196, Note_on_c, 1, 43, 0
3, 259242, Note_on_c, 1, 36, 47
3, 259322, Note_on_c, 1, 42, 57
3, 259365, Note_on_c, 1, 36, 0
3, 260179, Note_on_c, 1, 42, 0
3, 260225, Note_on_c, 1, 41, 49
3, 262127, Note_on_c, 1, 29, 62
3, 262178, Note_on_c, 1, 41, 0
3, 263535, Note_on_c, 1, 32, 57
3, 263569, Note_on_c, 1, 29, 0
3, 263848, Note_on_c, 1, 32, 0
3, 263927, Note_on_c, 1, 33, 44
3, 264841, Note_on_c, 1, 33, 0
3, 264938, Note_on_c, 1, 34, 53
3, 266520, Note_on_c, 1, 32, 54
3, 266866, Note_on_c, 1, 34, 0
3, 266879, Note_on_c, 1, 32, 0
3, 266904, Note_on_c, 1, 46, 64
3, 268617, Note_on_c, 1, 38, 50
3, 268686, Note_on_c, 1, 46, 0
3, 268845, Note_on_c, 1, 38, 0
3, 268860, Note_on_c, 1, 45, 77
3, 269646, Note_on_c, 1, 45, 0
3, 269815, Note_on_c, 1, 51, 74
3, 271197, Note_on_c, 1, 51, 0
3, 271371, Note_on_c, 1, 50, 62
3, 271620, Note_on_c, 1, 50, 0
3, 271817, Note_on_c, 1, 48, 36
3, 272116, Note_on_c, 1, 48, 0
3, 272293, Note_on_c, 1, 46, 60
3, 272490, Note_on_c, 1, 46, 0
3, 272657, Note_on_c, 1, 45, 49
3, 273240, Note_on_c, 1, 45, 0
3, 273568, Note_on_c, 1, 44, 59
3, 274131, Note_on_c, 1, 44, 0
3, 274523, Note_on_c, 1, 43, 38
3, 277257, Note_on_c, 1, 43, 0
3, 277498, Note_on_c, 1, 36, 53
3, 277876, Note_on_c, 1, 36, 0
3, 278081, Note_on_c, 1, 36, 50
3, 278278, Note_on_c, 1, 36, 0
3, 278422, Note_on_c, 1, 36, 42
3, 278865, Note_on_c, 1, 36, 0
3, 279098, Note_on_c, 1, 36, 52
3, 279320, Note_on_c, 1, 36, 0
3, 280006, Note_on_c, 1, 41, 65
3, 281962, Note_on_c, 1, 37, 40
3, 282090, Note_on_c, 1, 41, 0
3, 282305, Note_on_c, 1, 39, 50
3, 282321, Note_on_c, 1, 37, 0
3, 283905, Note_on_c, 1, 37, 32
3, 284071, Note_on_c, 1, 39, 0
3, 284102, Note_on_c, 1, 37, 0
3, 284118, Note_on_c, 1, 38, 51
3, 285807, Note_on_c, 1, 50, 90
3, 286025, Note_on_c, 1, 38, 0
3, 286921, Note_on_c, 1, 50, 0
3, 287069, Note_on_c, 1, 48, 67
3, 287737, Note_on_c, 1, 42, 25
3, 287827, Note_on_c, 1, 48, 0
3, 287837, Note_on_c, 1, 42, 0
3, 288093, Note_on_c, 1, 46, 50
3, 288866, Note_on_c, 1, 42, 25
3, 288989, Note_on_c, 1, 42, 0
3, 289419, Note_on_c, 1, 46, 0
3, 289614, Note_on_c, 1, 45, 48
3, 289924, Note_on_c, 1, 45, 0
3, 289988, Note_on_c, 1, 43, 36
3, 291618, Note_on_c, 1, 43, 0
3, 291626, Note_on_c, 1, 38, 38
3, 291741, Note_on_c, 1, 38, 0
3, 291903, Note_on_c, 1, 45, 66
3, 292276, Note_on_c, 1, 45, 0
3, 292850, Note_on_c, 1, 38, 50
3, 295727, Note_on_c, 1, 43, 53
3, 295809, Note_on_c, 1, 38, 0
3, 295994, Note_on_c, 1, 43, 0
3, 296298, Note_on_c, 1, 42, 42
3, 296421, Note_on_c, 1, 38, 28
3, 296541, Note_on_c, 1, 42, 0
3, 296603, Note_on_c, 1, 38, 0
3, 296641, Note_on_c, 1, 43, 34
3, 297181, Note_on_c, 1, 43, 0
3, 297271, Note_on_c, 1, 50, 62
3, 299209, Note_on_c, 1, 50, 0
3, 299211, Note_on_c, 1, 38, 44
3, 299368, Note_on_c, 1, 38, 0
3, 299483, Note_on_c, 1, 41, 42
3, 300074, Note_on_c, 1, 41, 0
3, 300192, Note_on_c, 1, 40, 37
3, 300338, Note_on_c, 1, 40, 0
3, 300548, Note_on_c, 1, 40, 30
3, 300763, Note_on_c, 1, 40, 0
3, 301073, Note_on_c, 1, 38, 44
3, 301188, Note_on_c, 1, 38, 0
3, 301252, Note_on_c, 1, 46, 73
3, 303044, Note_on_c, 1, 38, 51
3, 303200, Note_on_c, 1, 46, 0
3, 303282, Note_on_c, 1, 38, 0
3, 303441, Note_on_c, 1, 39, 53
3, 305123, Note_on_c, 1, 37, 21
3, 305294, Note_on_c, 1, 37, 0
3, 305355, Note_on_c, 1, 46, 78
3, 305358, Note_on_c, 1, 39, 0
3, 307777, Note_on_c, 1, 46, 0
3, 307841, Note_on_c, 1, 53, 59
3, 308310, Note_on_c, 1, 53, 0
3, 308865, Note_on_c, 1, 41, 37
3, 309165, Note_on_c, 1, 41, 0
3, 309339, Note_on_c, 1, 46, 64
3, 310693, Note_on_c, 1, 39, 71
3, 310749, Note_on_c, 1, 46, 0
3, 311845, Note_on_c, 1, 39, 0
3, 312111, Note_on_c, 1, 39, 54
3, 313844, Note_on_c, 1, 39, 0
3, 313878, Note_on_c, 1, 38, 45
3, 314520, Note_on_c, 1, 38, 0
3, 314582, Note_on_c, 1, 39, 57
3, 317459, Note_on_c, 1, 46, 42
3, 317679, Note_on_c, 1, 46, 0
3, 317848, Note_on_c, 1, 47, 38
3, 317912, Note_on_c, 1, 39, 0
3, 318255, Note_on_c, 1, 47, 0
3, 318317, Note_on_c, 1, 50, 61
3, 318611, Note_on_c, 1, 50, 0
3, 318790, Note_on_c, 1, 48, 55
3, 320267, Note_on_c, 1, 48, 0
3, 320296, Note_on_c, 1, 43, 38
3, 322129, Note_on_c, 1, 43, 0
3, 322239, Note_on_c, 1, 42, 38
3, 322538, Note_on_c, 1, 42, 0
3, 322666, Note_on_c, 1, 41, 20
3, 323009, Note_on_c, 1, 41, 0
3, 323209, Note_on_c, 1, 36, 40
3, 323498, Note_on_c, 1, 36, 0
3, 323539, Note_on_c, 1, 29, 31
3, 325359, Note_on_c, 1, 29, 0
3, 325390, Note_on_c, 1, 33, 48
3, 326322, Note_on_c, 1, 33, 0
3, 326417, Note_on_c, 1, 34, 50
3, 328388, Note_on_c, 1, 34, 0
3, 328452, Note_on_c, 1, 33, 48
3, 329919, Note_on_c, 1, 33, 0
3, 329978, Note_on_c, 1, 37, 57
3, 330420, Note_on_c, 1, 38, 68
3, 330446, Note_on_c, 1, 37, 0
3, 332904, Note_on_c, 1, 37, 52
3, 333131, Note_on_c, 1, 38, 0
3, 333211, Note_on_c, 1, 45, 58
3, 333213, Note_on_c, 1, 37, 0
3, 334010, Note_on_c, 1, 45, 0
3, 334184, Note_on_c, 1, 48, 64
3, 335947, Note_on_c, 1, 48, 0
3, 336081, Note_on_c, 1, 36, 48
3, 338042, Note_on_c, 1, 41, 78
3, 338106, Note_on_c, 1, 36, 0
3, 339900, Note_on_c, 1, 29, 40
3, 339903, Note_on_c, 1, 41, 0
3, 341367, Note_on_c, 1, 43, 47
3, 341646, Note_on_c, 1, 43, 0
3, 341723, Note_on_c, 1, 41, 46
3, 341725, Note_on_c, 1, 29, 0
3, 343338, Note_on_c, 1, 29, 50
3, 343343, Note_on_c, 1, 41, 0
3, 344331, Note_on_c, 1, 43, 48
3, 344536, Note_on_c, 1, 29, 0
3, 344603, Note_on_c, 1, 43, 0
3, 344710, Note_on_c, 1, 41, 64
3, 346152, Note_on_c, 1, 41, 0
3, 346203, Note_on_c, 1, 39, 55
3, 346531, Note_on_c, 1, 39, 0
3, 346574, Note_on_c, 1, 38, 58
3, 347967, Note_on_c, 1, 38, 0
3, 348082, Note_on_c, 1, 41, 53
3, 348335, Note_on_c, 1, 41, 0
3, 348461, Note_on_c, 1, 32, 64
3, 349308, Note_on_c, 1, 32, 0
3, 349495, Note_on_c, 1, 31, 65
3, 351336, Note_on_c, 1, 31, 0
3, 351338, Note_on_c, 1, 38, 78
3, 353138, Note_on_c, 1, 38, 0
3, 353330, Note_on_c, 1, 33, 53
3, 353906, Note_on_c, 1, 33, 0
3, 354287, Note_on_c, 1, 39, 71
3, 354735, Note_on_c, 1, 39, 0
3, 354879, Note_on_c, 1, 37, 50
3, 355229, Note_on_c, 1, 37, 0
3, 355260, Note_on_c, 1, 38, 58
3, 356596, Note_on_c, 1, 38, 0
3, 356758, Note_on_c, 1, 45, 57
3, 357101, Note_on_c, 1, 45, 0
3, 357160, Note_on_c, 1, 43, 35
3, 357544, Note_on_c, 1, 43, 0
3, 357723, Note_on_c, 1, 43, 45
3, 357971, Note_on_c, 1, 43, 0
3, 358091, Note_on_c, 1, 43, 37
3, 358688, Note_on_c, 1, 43, 0
3, 359090, Note_on_c, 1, 43, 51
3, 360539, Note_on_c, 1, 43, 0
3, 360608, Note_on_c, 1, 42, 57
3, 360938, Note_on_c, 1, 42, 0
3, 361038, Note_on_c, 1, 41, 46
3, 361363, Note_on_c, 1, 41, 0
3, 361665, Note_on_c, 1, 36, 54
3, 361944, Note_on_c, 1, 36, 0
3, 362515, Note_on_c, 1, 36, 53
3, 362743, Note_on_c, 1, 36, 0
3, 362986, Note_on_c, 1, 36, 43
3, 363803, Note_on_c, 1, 36, 0
3, 363854, Note_on_c, 1, 34, 55
3, 365457, Note_on_c, 1, 39, 61
3, 365664, Note_on_c, 1, 34, 0
3, 365802, Note_on_c, 1, 39, 0
3, 366332, Note_on_c, 1, 38, 48
3, 366550, Note_on_c, 1, 38, 0
3, 366752, Note_on_c, 1, 39, 58
3, 368283, Note_on_c, 1, 39, 0
3, 368285, Note_on_c, 1, 29, 44
3, 369274, Note_on_c, 1, 36, 35
3, 369432, Note_on_c, 1, 29, 0
3, 369481, Note_on_c, 1, 36, 0
3, 369606, Note_on_c, 1, 41, 54
3, 370584, Note_on_c, 1, 34, 49
3, 370674, Note_on_c, 1, 41, 0
3, 372159, Note_on_c, 1, 38, 46
3, 372338, Note_on_c, 1, 38, 0
3, 372558, Note_on_c, 1, 34, 0
3, 372561, Note_on_c, 1, 38, 48
3, 373352, Note_on_c, 1, 38, 0
3, 373531, Note_on_c, 1, 39, 70
3, 376411, Note_on_c, 1, 36, 50
3, 376475, Note_on_c, 1, 39, 0
3, 378277, Note_on_c, 1, 50, 65
3, 378485, Note_on_c, 1, 36, 0
3, 378679, Note_on_c, 1, 50, 0
3, 378902, Note_on_c, 1, 49, 71
3, 379194, Note_on_c, 1, 49, 0
3, 379273, Note_on_c, 1, 48, 43
3, 379811, Note_on_c, 1, 48, 0
3, 380000, Note_on_c, 1, 36, 29
3, 380174, Note_on_c, 1, 36, 0
3, 380248, Note_on_c, 1, 48, 73
3, 381728, Note_on_c, 1, 48, 0
3, 381751, Note_on_c, 1, 43, 45
3, 382127, Note_on_c, 1, 43, 0
3, 382204, Note_on_c, 1, 39, 59
3, 382785, Note_on_c, 1, 36, 38
3, 382837, Note_on_c, 1, 39, 0
3, 382911, Note_on_c, 1, 36, 0
3, 383070, Note_on_c, 1, 39, 43
3, 383620, Note_on_c, 1, 39, 0
3, 383705, Note_on_c, 1, 41, 50
3, 384567, Note_on_c, 1, 41, 0
3, 384639, Note_on_c, 1, 36, 53
3, 384851, Note_on_c, 1, 36, 0
3, 384954, Note_on_c, 1, 29, 37
3, 386943, Note_on_c, 1, 36, 55
3, 387409, Note_on_c, 1, 29, 0
3, 387721, Note_on_c, 1, 36, 0
3, 387905, Note_on_c, 1, 34, 62
3, 392293, Note_on_c, 1, 45, 80
3, 392751, Note_on_c, 1, 34, 0
3, 392964, Note_on_c, 1, 46, 75
3, 393087, Note_on_c, 1, 45, 0
3, 393542, Note_on_c, 1, 46, 0
3, 393691, Note_on_c, 1, 48, 75
3, 394410, Note_on_c, 1, 48, 0
3, 394415, Note_on_c, 1, 38, 58
3, 396130, Note_on_c, 1, 38, 0
3, 396166, Note_on_c, 1, 43, 60
3, 397108, Note_on_c, 1, 43, 0
3, 397119, Note_on_c, 1, 42, 51
3, 397346, Note_on_c, 1, 42, 0
3, 397520, Note_on_c, 1, 43, 43
3, 397997, Note_on_c, 1, 43, 0
3, 398506, Note_on_c, 1, 38, 51
3, 398890, Note_on_c, 1, 38, 0
3, 400424, Note_on_c, 1, 36, 65
3, 401993, Note_on_c, 1, 50, 76
3, 402157, Note_on_c, 1, 36, 0
3, 402935, Note_on_c, 1, 36, 46
3, 403063, Note_on_c, 1, 36, 0
3, 403119, Note_on_c, 1, 50, 0
3, 403293, Note_on_c, 1, 48, 64
3, 404824, Note_on_c, 1, 41, 51
3, 404986, Note_on_c, 1, 48, 0
3, 406091, Note_on_c, 1, 39, 62
3, 406122, Note_on_c, 1, 41, 0
3, 407005, Note_on_c, 1, 39, 0
3, 407046, Note_on_c, 1, 38, 60
3, 409074, Note_on_c, 1, 44, 74
3, 409079, Note_on_c, 1, 38, 0
3, 409855, Note_on_c, 1, 38, 27
3, 409929, Note_on_c, 1, 44, 0
3, 409952, Note_on_c, 1, 42, 53
3, 409983, Note_on_c, 1, 38, 0
3, 410464, Note_on_c, 1, 42, 0
3, 410546, Note_on_c, 1, 43, 46
3, 411531, Note_on_c, 1, 38, 61
3, 411547, Note_on_c, 1, 43, 0
3, 411798, Note_on_c, 1, 38, 0
3, 411926, Note_on_c, 1, 31, 48
3, 413469, Note_on_c, 1, 38, 54
3, 413600, Note_on_c, 1, 31, 0
3, 413731, Note_on_c, 1, 38, 0
3, 413792, Note_on_c, 1, 43, 65
3, 414273, Note_on_c, 1, 43, 0
3, 414332, Note_on_c, 1, 42, 53
3, 414404, Note_on_c, 1, 38, 34
3, 414583, Note_on_c, 1, 42, 0
3, 414637, Note_on_c, 1, 38, 0
3, 414716, Note_on_c, 1, 43, 33
3, 415180, Note_on_c, 1, 43, 0
3, 415300, Note_on_c, 1, 45, 74
3, 415978, Note_on_c, 1, 45, 0
3, 417266, Note_on_c, 1, 38, 64
3, 417496, Note_on_c, 1, 38, 0
3, 417670, Note_on_c, 1, 42, 37
3, 418111, Note_on_c, 1, 42, 0
3, 418205, Note_on_c, 1, 45, 69
3, 418500, Note_on_c, 1, 45, 0
3, 418582, Note_on_c, 1, 43, 40
3, 419209, Note_on_c, 1, 43, 0
3, 419508, Note_on_c, 1, 38, 56
3, 420517, Note_on_c, 1, 42, 67
3, 420520, Note_on_c, 1, 38, 0
3, 422043, Note_on_c, 1, 38, 54
3, 422050, Note_on_c, 1, 42, 0
3, 422194, Note_on_c, 1, 38, 0
3, 422404, Note_on_c, 1, 41, 63
3, 424024, Note_on_c, 1, 34, 78
3, 424201, Note_on_c, 1, 41, 0
3, 425970, Note_on_c, 1, 38, 56
3, 426016, Note_on_c, 1, 34, 0
3, 426065, Note_on_c, 1, 38, 0
3, 426315, Note_on_c, 1, 38, 50
3, 427194, Note_on_c, 1, 38, 0
3, 427260, Note_on_c, 1, 39, 73
3, 428781, Note_on_c, 1, 38, 57
3, 428824, Note_on_c, 1, 39, 0
3, 428883, Note_on_c, 1, 38, 0
3, 429108, Note_on_c, 1, 38, 51
3, 429789, Note_on_c, 1, 34, 30
3, 429917, Note_on_c, 1, 34, 0
3, 429943, Note_on_c, 1, 38, 0
3, 430097, Note_on_c, 1, 39, 62
3, 430829, Note_on_c, 1, 39, 0
3, 431013, Note_on_c, 1, 40, 51
3, 431850, Note_on_c, 1, 40, 0
3, 432011, Note_on_c, 1, 41, 52
3, 432823, Note_on_c, 1, 41, 0
3, 432948, Note_on_c, 1, 34, 52
3, 433816, Note_on_c, 1, 34, 0
3, 433893, Note_on_c, 1, 38, 71
3, 434543, Note_on_c, 1, 34, 32
3, 434643, Note_on_c, 1, 34, 0
3, 434705, Note_on_c, 1, 38, 0
3, 434861, Note_on_c, 1, 39, 74
3, 436504, Note_on_c, 1, 34, 40
3, 436658, Note_on_c, 1, 39, 0
3, 436668, Note_on_c, 1, 34, 0
3, 436781, Note_on_c, 1, 38, 54
3, 437339, Note_on_c, 1, 38, 0
3, 437434, Note_on_c, 1, 39, 65
3, 438498, Note_on_c, 1, 38, 40
3, 438555, Note_on_c, 1, 39, 0
3, 438626, Note_on_c, 1, 38, 0
3, 438729, Note_on_c, 1, 43, 43
3, 439574, Note_on_c, 1, 43, 0
3, 439755, Note_on_c, 1, 46, 54
3, 440506, Note_on_c, 1, 39, 32
3, 440608, Note_on_c, 1, 39, 0
3, 440618, Note_on_c, 1, 46, 0
3, 440713, Note_on_c, 1, 47, 66
3, 441496, Note_on_c, 1, 47, 0
3, 441673, Note_on_c, 1, 48, 68
3, 443094, Note_on_c, 1, 48, 0
3, 443245, Note_on_c, 1, 43, 47
3, 443511, Note_on_c, 1, 43, 0
3, 443659, Note_on_c, 1, 39, 55
3, 444353, Note_on_c, 1, 39, 0
3, 444530, Note_on_c, 1, 42, 60
3, 445060, Note_on_c, 1, 42, 0
3, 445162, Note_on_c, 1, 41, 52
3, 446058, Note_on_c, 1, 41, 0
3, 446094, Note_on_c, 1, 36, 39
3, 446263, Note_on_c, 1, 36, 0
3, 446447, Note_on_c, 1, 29, 36
3, 447937, Note_on_c, 1, 29, 0
3, 447968, Note_on_c, 1, 36, 42
3, 448170, Note_on_c, 1, 36, 0
3, 448252, Note_on_c, 1, 33, 51
3, 449832, Note_on_c, 1, 33, 0
3, 449850, Note_on_c, 1, 41, 59
3, 450031, Note_on_c, 1, 41, 0
3, 450223, Note_on_c, 1, 34, 59
3, 452049, Note_on_c, 1, 34, 0
3, 452205, Note_on_c, 1, 37, 55
3, 452960, Note_on_c, 1, 37, 0
3, 453144, Note_on_c, 1, 38, 65
3, 455771, Note_on_c, 1, 37, 39
3, 456017, Note_on_c, 1, 38, 0
3, 456068, Note_on_c, 1, 42, 61
3, 456109, Note_on_c, 1, 37, 0
3, 456936, Note_on_c, 1, 42, 0
3, 457056, Note_on_c, 1, 48, 71
3, 458753, Note_on_c, 1, 48, 0
3, 458958, Note_on_c, 1, 36, 51
3, 460873, Note_on_c, 1, 41, 63
3, 460876, Note_on_c, 1, 36, 0
3, 462514, Note_on_c, 1, 36, 24
3, 462601, Note_on_c, 1, 41, 0
3, 462678, Note_on_c, 1, 36, 0
3, 462790, Note_on_c, 1, 29, 43
3, 464372, Note_on_c, 1, 29, 0
3, 464401, Note_on_c, 1, 33, 52
3, 464877, Note_on_c, 1, 34, 73
3, 464936, Note_on_c, 1, 33, 0
3, 466282, Note_on_c, 1, 32, 39
3, 466607, Note_on_c, 1, 34, 0
3, 466651, Note_on_c, 1, 43, 69
3, 466656, Note_on_c, 1, 32, 0
3, 468220, Note_on_c, 1, 38, 46
3, 468328, Note_on_c, 1, 38, 0
3, 468351, Note_on_c, 1, 43, 0
3, 468555, Note_on_c, 1, 45, 68
3, 469293, Note_on_c, 1, 45, 0
3, 469500, Note_on_c, 1, 38, 64
3, 470463, Note_on_c, 1, 48, 82
3, 470481, Note_on_c, 1, 38, 0
3, 471996, Note_on_c, 1, 45, 58
3, 472001, Note_on_c, 1, 48, 0
3, 472129, Note_on_c, 1, 38, 34
3, 472247, Note_on_c, 1, 45, 0
3, 472270, Note_on_c, 1, 38, 0
3, 472457, Note_on_c, 1, 46, 68
3, 473253, Note_on_c, 1, 46, 0
3, 473355, Note_on_c, 1, 43, 47
3, 473824, Note_on_c, 1, 43, 0
3, 473990, Note_on_c, 1, 43, 51
3, 474976, Note_on_c, 1, 43, 0
3, 475260, Note_on_c, 1, 38, 62
3, 475997, Note_on_c, 1, 38, 0
3, 476868, Note_on_c, 1, 45, 84
3, 477303, Note_on_c, 1, 45, 0
3, 477710, Note_on_c, 1, 45, 62
3, 478276, Note_on_c, 1, 45, 0
3, 478314, Note_on_c, 1, 38, 60
3, 479586, Note_on_c, 1, 38, 0
3, 479697, Note_on_c, 1, 43, 71
3, 480337, Note_on_c, 1, 43, 0
3, 480600, Note_on_c, 1, 43, 40
3, 480930, Note_on_c, 1, 43, 0
3, 481066, Note_on_c, 1, 38, 66
3, 482405, Note_on_c, 1, 38, 0
3, 482543, Note_on_c, 1, 43, 69
3, 482886, Note_on_c, 1, 43, 0
3, 483273, Note_on_c, 1, 42, 71
3, 483747, Note_on_c, 1, 42, 0
3, 483910, Note_on_c, 1, 41, 57
3, 484725, Note_on_c, 1, 41, 0
3, 484850, Note_on_c, 1, 36, 53
3, 485772, Note_on_c, 1, 36, 0
3, 485830, Note_on_c, 1, 34, 55
3, 487274, Note_on_c, 1, 38, 66
3, 487377, Note_on_c, 1, 34, 0
3, 487484, Note_on_c, 1, 38, 0
3, 487689, Note_on_c, 1, 38, 60
3, 488575, Note_on_c, 1, 38, 0
3, 488623, Note_on_c, 1, 39, 67
3, 490280, Note_on_c, 1, 38, 27
3, 490377, Note_on_c, 1, 38, 0
3, 490469, Note_on_c, 1, 39, 0
3, 490495, Note_on_c, 1, 43, 62
3, 491396, Note_on_c, 1, 43, 0
3, 491532, Note_on_c, 1, 41, 71
3, 492343, Note_on_c, 1, 41, 0
3, 492471, Note_on_c, 1, 29, 40
3, 493339, Note_on_c, 1, 29, 0
3, 493444, Note_on_c, 1, 34, 58
3, 495021, Note_on_c, 1, 38, 64
3, 495249, Note_on_c, 1, 34, 0
3, 495310, Note_on_c, 1, 38, 0
3, 495464, Note_on_c, 1, 38, 68
3, 496050, Note_on_c, 1, 34, 26
3, 496196, Note_on_c, 1, 38, 0
3, 496242, Note_on_c, 1, 34, 0
3, 496342, Note_on_c, 1, 39, 71
3, 498771, Note_on_c, 1, 39, 0
3, 498807, Note_on_c, 1, 38, 62
3, 499040, Note_on_c, 1, 38, 0
3, 499214, Note_on_c, 1, 39, 62
3, 500706, Note_on_c, 1, 41, 47
3, 500709, Note_on_c, 1, 39, 0
3, 500996, Note_on_c, 1, 41, 0
3, 501085, Note_on_c, 1, 43, 58
3, 502020, Note_on_c, 1, 43, 0
3, 502030, Note_on_c, 1, 35, 53
3, 503000, Note_on_c, 1, 35, 0
3, 503062, Note_on_c, 1, 36, 57
3, 504616, Note_on_c, 1, 39, 51
3, 504872, Note_on_c, 1, 39, 0
3, 505099, Note_on_c, 1, 36, 0
3, 505186, Note_on_c, 1, 48, 60
3, 505811, Note_on_c, 1, 48, 0
3, 506036, Note_on_c, 1, 42, 46
3, 506643, Note_on_c, 1, 42, 0
3, 506684, Note_on_c, 1, 41, 56
3, 507606, Note_on_c, 1, 29, 50
3, 507923, Note_on_c, 1, 29, 0
3, 508043, Note_on_c, 1, 29, 66
3, 508205, Note_on_c, 1, 41, 0
3, 508824, Note_on_c, 1, 29, 0
3, 508970, Note_on_c, 1, 29, 62
3, 510442, Note_on_c, 1, 41, 51
3, 510765, Note_on_c, 1, 41, 0
3, 510934, Note_on_c, 1, 41, 59
3, 511000, Note_on_c, 1, 29, 0
3, 511807, Note_on_c, 1, 41, 0
3, 511832, Note_on_c, 1, 29, 62
3, 512337, Note_on_c, 1, 29, 0
3, 512477, Note_on_c, 1, 29, 66
3, 512989, Note_on_c, 1, 29, 0
3, 513322, Note_on_c, 1, 29, 74
3, 513637, Note_on_c, 1, 29, 0
3, 513760, Note_on_c, 1, 29, 77
3, 515012, Note_on_c, 1, 29, 0
3, 515268, Note_on_c, 1, 29, 35
3, 515590, Note_on_c, 1, 29, 0
3, 515595, Note_on_c, 1, 39, 74
3, 516312, Note_on_c, 1, 39, 0
3, 516522, Note_on_c, 1, 38, 65
3, 518035, Note_on_c, 1, 32, 57
3, 518184, Note_on_c, 1, 38, 0
3, 518263, Note_on_c, 1, 32, 0
3, 518422, Note_on_c, 1, 31, 57
3, 520047, Note_on_c, 1, 36, 35
3, 520239, Note_on_c, 1, 31, 0
3, 520329, Note_on_c, 1, 36, 0
3, 520416, Note_on_c, 1, 43, 69
3, 521929, Note_on_c, 1, 36, 55
3, 522026, Note_on_c, 1, 36, 0
3, 522072, Note_on_c, 1, 43, 0
3, 522390, Note_on_c, 1, 36, 66
3, 523854, Note_on_c, 1, 50, 78
3, 524128, Note_on_c, 1, 50, 0
3, 524310, Note_on_c, 1, 48, 77
3, 524678, Note_on_c, 1, 36, 0
3, 525761, Note_on_c, 1, 48, 0
3, 525771, Note_on_c, 1, 36, 34
3, 525912, Note_on_c, 1, 36, 0
3, 526117, Note_on_c, 1, 41, 62
3, 526637, Note_on_c, 1, 41, 0
3, 527090, Note_on_c, 1, 41, 79
3, 528682, Note_on_c, 1, 41, 0
3, 528695, Note_on_c, 1, 39, 77
3, 529670, Note_on_c, 1, 37, 33
3, 529954, Note_on_c, 1, 37, 0
3, 529970, Note_on_c, 1, 39, 0
3, 529993, Note_on_c, 1, 38, 68
3, 531493, Note_on_c, 1, 38, 0
3, 531511, Note_on_c, 1, 32, 73
3, 532865, Note_on_c, 1, 32, 0
3, 532975, Note_on_c, 1, 31, 60
3, 535755, Note_on_c, 1, 38, 64
3, 535761, Note_on_c, 1, 31, 0
3, 537391, Note_on_c, 1, 37, 37
3, 537491, Note_on_c, 1, 37, 0
3, 537645, Note_on_c, 1, 45, 80
3, 537652, Note_on_c, 1, 38, 0
3, 539480, Note_on_c, 1, 45, 0
3, 539560, Note_on_c, 1, 38, 52
3, 541073, Note_on_c, 1, 38, 0
3, 541206, Note_on_c, 1, 45, 66
3, 541428, Note_on_c, 1, 45, 0
3, 541533, Note_on_c, 1, 43, 43
3, 542094, Note_on_c, 1, 43, 0
3, 542145, Note_on_c, 1, 42, 42
3, 542360, Note_on_c, 1, 42, 0
3, 542493, Note_on_c, 1, 43, 34
3, 544052, Note_on_c, 1, 43, 0
3, 544088, Note_on_c, 1, 38, 44
3, 544211, Note_on_c, 1, 38, 0
3, 544347, Note_on_c, 1, 42, 56
3, 545146, Note_on_c, 1, 42, 0
3, 545332, Note_on_c, 1, 41, 54
3, 546945, Note_on_c, 1, 38, 40
3, 547060, Note_on_c, 1, 38, 0
3, 547137, Note_on_c, 1, 41, 0
3, 547270, Note_on_c, 1, 40, 45
3, 548717, Note_on_c, 1, 38, 41
3, 548824, Note_on_c, 1, 38, 0
3, 549065, Note_on_c, 1, 40, 0
3, 549126, Note_on_c, 1, 39, 60
3, 550952, Note_on_c, 1, 39, 0
3, 551057, Note_on_c, 1, 43, 38
3, 551802, Note_on_c, 1, 43, 0
3, 552004, Note_on_c, 1, 46, 62
3, 552795, Note_on_c, 1, 46, 0
3, 553002, Note_on_c, 1, 44, 59
3, 554536, Note_on_c, 1, 41, 39
3, 554625, Note_on_c, 1, 44, 0
3, 554740, Note_on_c, 1, 41, 0
3, 554945, Note_on_c, 1, 46, 70
3, 555665, Note_on_c, 1, 46, 0
3, 555923, Note_on_c, 1, 46, 75
3, 556637, Note_on_c, 1, 46, 0
3, 556896, Note_on_c, 1, 39, 68
3, 560654, Note_on_c, 1, 39, 0
3, 561719, Note_on_c, 1, 36, 74
3, 563176, Note_on_c, 1, 36, 0
3, 563176, Note_on_c, 1, 38, 55
3, 563498, Note_on_c, 1, 38, 0
3, 563606, Note_on_c, 1, 39, 52
3, 564556, Note_on_c, 1, 48, 84
3, 564604, Note_on_c, 1, 39, 0
3, 566107, Note_on_c, 1, 39, 48
3, 566283, Note_on_c, 1, 39, 0
3, 566370, Note_on_c, 1, 48, 0
3, 566473, Note_on_c, 1, 43, 45
3, 568073, Note_on_c, 1, 38, 27
3, 568168, Note_on_c, 1, 43, 0
3, 568180, Note_on_c, 1, 38, 0
3, 568285, Note_on_c, 1, 41, 47
3, 569373, Note_on_c, 1, 41, 0
3, 569407, Note_on_c, 1, 29, 58
3, 571222, Note_on_c, 1, 29, 0
3, 571268, Note_on_c, 1, 33, 55
3, 572207, Note_on_c, 1, 33, 0
3, 572287, Note_on_c, 1, 34, 60
3, 574724, Note_on_c, 1, 34, 0
3, 574760, Note_on_c, 1, 36, 48
3, 575213, Note_on_c, 1, 36, 0
3, 575384, Note_on_c, 1, 37, 60
3, 575986, Note_on_c, 1, 37, 0
3, 576050, Note_on_c, 1, 38, 71
3, 578909, Note_on_c, 1, 38, 0
3, 578948, Note_on_c, 1, 37, 59
3, 579851, Note_on_c, 1, 37, 0
3, 579941, Note_on_c, 1, 36, 51
3, 581682, Note_on_c, 1, 34, 25
3, 581899, Note_on_c, 1, 36, 0
3, 581925, Note_on_c, 1, 48, 77
3, 582007, Note_on_c, 1, 34, 0
3, 583505, Note_on_c, 1, 36, 28
3, 583604, Note_on_c, 1, 36, 0
3, 583835, Note_on_c, 1, 41, 55
3, 583894, Note_on_c, 1, 48, 0
3, 586582, Note_on_c, 1, 29, 50
3, 586602, Note_on_c, 1, 41, 0
3, 594315, Note_on_c, 1, 41, 42
3, 594915, Note_on_c, 1, 29, 0
3, 595903, Note_on_c, 1, 41, 0
3, 596181, Note_on_c, 1, 41, 35
3, 600019, Note_on_c, 1, 53, 28
3, 601591, Note_on_c, 1, 53, 0
3, 601958, Note_on_c, 1, 53, 27
3, 605576, Note_on_c, 1, 53, 0
3, 605777, Note_on_c, 1, 53, 19
3, 607455, Note_on_c, 1, 53, 0
3, 607733, Note_on_c, 1, 53, 15
3, 612090, Note_on_c, 1, 53, 0
3, 612487, Note_on_c, 1, 53, 11
3, 612699, Note_on_c, 1, 53, 0
3, 613461, Note_on_c, 1, 53, 8
3, 615498, Note_on_c, 1, 41, 0
3, 621001, Note_on_c, 1, 53, 0
3, 621001, End_track
4, 0, Start_track
4, 0, Title_t, "Drums"
4, 0, Program_c, 9, 0
4, 0, Control_c, 9, 7, 91
4, 103588, Note_on_c, 9, 59, 40
4, 104692, Note_on_c, 9, 59, 0
4, 105186, Note_on_c, 9, 59, 28
4, 105845, Note_on_c, 9, 59, 0
4, 109402, Note_on_c, 9, 59, 30
4, 109539, Note_on_c, 9, 59, 0
4, 110280, Note_on_c, 9, 59, 66
4, 110712, Note_on_c, 9, 59, 0
4, 110884, Note_on_c, 9, 59, 41
4, 111129, Note_on_c, 9, 59, 0
4, 111284, Note_on_c, 9, 59, 27
4, 111850, Note_on_c, 9, 59, 0
4, 112310, Note_on_c, 9, 59, 33
4, 112709, Note_on_c, 9, 59, 0
4, 114299, Note_on_c, 9, 59, 20
4, 114616, Note_on_c, 9, 59, 0
4, 115256, Note_on_c, 9, 36, 14
4, 115632, Note_on_c, 9, 36, 0
4, 115941, Note_on_c, 9, 44, 21
4, 116293, Note_on_c, 9, 44, 0
4, 118040, Note_on_c, 9, 44, 16
4, 118455, Note_on_c, 9, 44, 0
4, 119950, Note_on_c, 9, 59, 29
4, 120100, Note_on_c, 9, 59, 0
4, 120571, Note_on_c, 9, 59, 33
4, 120861, Note_on_c, 9, 59, 0
4, 121075, Note_on_c, 9, 59, 42
4, 121597, Note_on_c, 9, 59, 0
4, 122484, Note_on_c, 9, 38, 22
4, 122568, Note_on_c, 9, 59, 33
4, 122630, Note_on_c, 9, 38, 0
4, 122720, Note_on_c, 9, 59, 0
4, 122997, Note_on_c, 9, 59, 31
4, 123644, Note_on_c, 9, 59, 0
4, 124757, Note_on_c, 9, 38, 23
4, 125089, Note_on_c, 9, 38, 0
4, 125340, Note_on_c, 9, 36, 26
4, 125546, Note_on_c, 9, 36, 0
4, 125739, Note_on_c, 9, 38, 20
4, 126370, Note_on_c, 9, 38, 0
4, 126454, Note_on_c, 9, 53, 37
4, 126457, Note_on_c, 9, 36, 19
4, 126607, Note_on_c, 9, 36, 0
4, 126677, Note_on_c, 9, 53, 0
4, 126909, Note_on_c, 9, 59, 26
4, 127223, Note_on_c, 9, 59, 0
4, 127715, Note_on_c, 9, 59, 36
4, 128232, Note_on_c, 9, 59, 0
4, 130243, Note_on_c, 9, 53, 26
4, 130383, Note_on_c, 9, 53, 0
4, 130618, Note_on_c, 9, 59, 24
4, 131037, Note_on_c, 9, 59, 0
4, 131332, Note_on_c, 9, 59, 34
4, 131609, Note_on_c, 9, 59, 0
4, 132639, Note_on_c, 9, 59, 31
4, 132956, Note_on_c, 9, 59, 0
4, 133146, Note_on_c, 9, 59, 44
4, 133316, Note_on_c, 9, 59, 0
4, 136915, Note_on_c, 9, 59, 28
4, 137160, Note_on_c, 9, 59, 0
4, 137392, Note_on_c, 9, 59, 18
4, 137670, Note_on_c, 9, 37, 37
4, 137784, Note_on_c, 9, 59, 0
4, 137953, Note_on_c, 9, 59, 74
4, 137955, Note_on_c, 9, 37, 0
4, 138298, Note_on_c, 9, 59, 0
4, 138377, Note_on_c, 9, 37, 33
4, 138430, Note_on_c, 9, 59, 62
4, 138605, Note_on_c, 9, 37, 0
4, 138904, Note_on_c, 9, 59, 0
4, 138967, Note_on_c, 9, 51, 35
4, 139049, Note_on_c, 9, 36, 16
4, 139261, Note_on_c, 9, 51, 0
4, 139293, Note_on_c, 9, 36, 0
4, 139761, Note_on_c, 9, 53, 38
4, 139818, Note_on_c, 9, 36, 19
4, 139993, Note_on_c, 9, 53, 0
4, 140041, Note_on_c, 9, 36, 0
4, 140313, Note_on_c, 9, 36, 19
4, 140417, Note_on_c, 9, 53, 33
4, 140721, Note_on_c, 9, 36, 0
4, 140839, Note_on_c, 9, 53, 0
4, 141191, Note_on_c, 9, 53, 24
4, 141570, Note_on_c, 9, 53, 0
4, 141925, Note_on_c, 9, 53, 17
4, 142202, Note_on_c, 9, 53, 0
4, 146909, Note_on_c, 9, 59, 43
4, 146928, Note_on_c, 9, 44, 21
4, 147226, Note_on_c, 9, 59, 0
4, 147431, Note_on_c, 9, 44, 0
4, 148704, Note_on_c, 9, 44, 36
4, 149061, Note_on_c, 9, 44, 0
4, 150646, Note_on_c, 9, 46, 22
4, 150730, Note_on_c, 9, 44, 21
4, 151157, Note_on_c, 9, 44, 0
4, 151889, Note_on_c, 9, 46, 0
4, 152617, Note_on_c, 9, 59, 36
4, 153057, Note_on_c, 9, 59, 0
4, 153234, Note_on_c, 9, 59, 62
4, 153459, Note_on_c, 9, 59, 0
4, 154237, Note_on_c, 9, 59, 39
4, 154417, Note_on_c, 9, 59, 0
4, 154557, Note_on_c, 9, 59, 18
4, 154889, Note_on_c, 9, 59, 0
4, 155513, Note_on_c, 9, 59, 30
4, 155972, Note_on_c, 9, 59, 0
4, 156127, Note_on_c, 9, 59, 30
4, 156391, Note_on_c, 9, 59, 0
4, 157134, Note_on_c, 9, 38, 14
4, 157291, Note_on_c, 9, 38, 0
4, 158076, Note_on_c, 9, 59, 43
4, 158253, Note_on_c, 9, 59, 0
4, 158476, Note_on_c, 9, 59, 17
4, 158945, Note_on_c, 9, 38, 30
4, 158960, Note_on_c, 9, 59, 0
4, 159062, Note_on_c, 9, 38, 0
4, 159097, Note_on_c, 9, 59, 50
4, 159297, Note_on_c, 9, 59, 0
4, 159391, Note_on_c, 9, 38, 29
4, 159641, Note_on_c, 9, 38, 0
4, 160063, Note_on_c, 9, 36, 15
4, 160120, Note_on_c, 9, 59, 40
4, 160207, Note_on_c, 9, 36, 0
4, 160854, Note_on_c, 9, 59, 0
4, 160958, Note_on_c, 9, 38, 21
4, 161086, Note_on_c, 9, 59, 58
4, 161167, Note_on_c, 9, 38, 0
4, 161413, Note_on_c, 9, 59, 0
4, 161982, Note_on_c, 9, 59, 44
4, 162175, Note_on_c, 9, 59, 0
4, 162264, Note_on_c, 9, 38, 24
4, 162347, Note_on_c, 9, 59, 31
4, 162786, Note_on_c, 9, 59, 0
4, 162859, Note_on_c, 9, 38, 0
4, 163781, Note_on_c, 9, 38, 28
4, 163912, Note_on_c, 9, 38, 0
4, 163974, Note_on_c, 9, 44, 18
4, 164099, Note_on_c, 9, 44, 0
4, 164206, Note_on_c, 9, 59, 46
4, 164536, Note_on_c, 9, 59, 0
4, 164709, Note_on_c, 9, 36, 19
4, 164848, Note_on_c, 9, 36, 0
4, 164848, Note_on_c, 9, 44, 15
4, 164948, Note_on_c, 9, 44, 0
4, 165041, Note_on_c, 9, 36, 33
4, 165182, Note_on_c, 9, 57, 25
4, 165217, Note_on_c, 9, 59, 33
4, 165555, Note_on_c, 9, 36, 0
4, 165584, Note_on_c, 9, 59, 0
4, 165649, Note_on_c, 9, 57, 0
4, 169613, Note_on_c, 9, 59, 36
4, 169753, Note_on_c, 9, 59, 0
4, 169992, Note_on_c, 9, 59, 33
4, 170267, Note_on_c, 9, 59, 0
4, 170504, Note_on_c, 9, 44, 20
4, 170691, Note_on_c, 9, 44, 0
4, 173766, Note_on_c, 9, 59, 47
4, 174063, Note_on_c, 9, 59, 0
4, 175374, Note_on_c, 9, 38, 19
4, 175532, Note_on_c, 9, 38, 0
4, 176277, Note_on_c, 9, 59, 49
4, 176434, Note_on_c, 9, 59, 0
4, 176719, Note_on_c, 9, 59, 30
4, 176791, Note_on_c, 9, 38, 19
4, 177031, Note_on_c, 9, 59, 0
4, 177104, Note_on_c, 9, 38, 0
4, 178173, Note_on_c, 9, 38, 23
4, 178281, Note_on_c, 9, 59, 35
4, 178385, Note_on_c, 9, 38, 0
4, 178419, Note_on_c, 9, 59, 0
4, 178661, Note_on_c, 9, 59, 18
4, 179010, Note_on_c, 9, 59, 0
4, 179364, Note_on_c, 9, 38, 24
4, 179579, Note_on_c, 9, 38, 0
4, 180156, Note_on_c, 9, 38, 22
4, 180297, Note_on_c, 9, 38, 0
4, 180515, Note_on_c, 9, 36, 19
4, 180588, Note_on_c, 9, 59, 46
4, 180836, Note_on_c, 9, 36, 0
4, 180995, Note_on_c, 9, 59, 0
4, 181534, Note_on_c, 9, 59, 51
4, 182083, Note_on_c, 9, 59, 0
4, 183208, Note_on_c, 9, 59, 29
4, 183341, Note_on_c, 9, 59, 0
4, 183523, Note_on_c, 9, 59, 60
4, 184052, Note_on_c, 9, 59, 0
4, 184988, Note_on_c, 9, 59, 48
4, 185150, Note_on_c, 9, 59, 0
4, 185917, Note_on_c, 9, 59, 57
4, 186064, Note_on_c, 9, 59, 0
4, 186276, Note_on_c, 9, 36, 18
4, 186321, Note_on_c, 9, 59, 48
4, 186621, Note_on_c, 9, 59, 0
4, 186627, Note_on_c, 9, 36, 0
4, 186920, Note_on_c, 9, 53, 33
4, 187185, Note_on_c, 9, 53, 0
4, 187849, Note_on_c, 9, 59, 56
4, 188173, Note_on_c, 9, 59, 0
4, 188710, Note_on_c, 9, 59, 40
4, 188854, Note_on_c, 9, 36, 22
4, 188892, Note_on_c, 9, 59, 0
4, 189053, Note_on_c, 9, 36, 0
4, 189109, Note_on_c, 9, 59, 29
4, 189506, Note_on_c, 9, 59, 0
4, 189708, Note_on_c, 9, 53, 32
4, 190003, Note_on_c, 9, 53, 0
4, 190157, Note_on_c, 9, 36, 24
4, 190557, Note_on_c, 9, 36, 0
4, 190691, Note_on_c, 9, 59, 49
4, 191018, Note_on_c, 9, 59, 0
4, 191680, Note_on_c, 9, 59, 33
4, 191680, Note_on_c, 9, 36, 21
4, 191887, Note_on_c, 9, 59, 0
4, 191941, Note_on_c, 9, 36, 0
4, 192052, Note_on_c, 9, 59, 29
4, 192376, Note_on_c, 9, 59, 0
4, 192718, Note_on_c, 9, 53, 22
4, 193003, Note_on_c, 9, 53, 0
4, 193106, Note_on_c, 9, 36, 20
4, 193560, Note_on_c, 9, 36, 0
4, 193599, Note_on_c, 9, 59, 46
4, 193727, Note_on_c, 9, 59, 0
4, 193989, Note_on_c, 9, 59, 36
4, 194323, Note_on_c, 9, 59, 0
4, 194534, Note_on_c, 9, 36, 16
4, 194625, Note_on_c, 9, 53, 37
4, 194691, Note_on_c, 9, 36, 0
4, 194827, Note_on_c, 9, 53, 0
4, 194865, Note_on_c, 9, 36, 12
4, 195358, Note_on_c, 9, 36, 0
4, 195812, Note_on_c, 9, 36, 19
4, 196087, Note_on_c, 9, 36, 0
4, 198404, Note_on_c, 9, 59, 44
4, 198659, Note_on_c, 9, 59, 0
4, 198893, Note_on_c, 9, 59, 34
4, 199093, Note_on_c, 9, 59, 0
4, 199395, Note_on_c, 9, 53, 38
4, 199680, Note_on_c, 9, 53, 0
4, 199922, Note_on_c, 9, 59, 53
4, 200149, Note_on_c, 9, 59, 0
4, 200441, Note_on_c, 9, 59, 54
4, 200718, Note_on_c, 9, 59, 0
4, 200960, Note_on_c, 9, 53, 44
4, 201280, Note_on_c, 9, 53, 0
4, 203588, Note_on_c, 9, 59, 41
4, 203975, Note_on_c, 9, 59, 0
4, 204202, Note_on_c, 9, 59, 35
4, 204352, Note_on_c, 9, 59, 0
4, 204577, Note_on_c, 9, 59, 32
4, 204794, Note_on_c, 9, 59, 0
4, 205163, Note_on_c, 9, 59, 41
4, 205328, Note_on_c, 9, 59, 0
4, 206085, Note_on_c, 9, 38, 27
4, 206124, Note_on_c, 9, 59, 49
4, 206368, Note_on_c, 9, 38, 0
4, 206426, Note_on_c, 9, 59, 0
4, 206581, Note_on_c, 9, 59, 26
4, 206776, Note_on_c, 9, 59, 0
4, 207203, Note_on_c, 9, 59, 51
4, 207385, Note_on_c, 9, 59, 0
4, 207413, Note_on_c, 9, 36, 18
4, 207625, Note_on_c, 9, 36, 0
4, 208081, Note_on_c, 9, 59, 56
4, 208246, Note_on_c, 9, 59, 0
4, 208500, Note_on_c, 9, 59, 34
4, 208688, Note_on_c, 9, 59, 0
4, 208957, Note_on_c, 9, 53, 37
4, 209249, Note_on_c, 9, 53, 0
4, 210133, Note_on_c, 9, 53, 24
4, 210522, Note_on_c, 9, 53, 0
4, 211049, Note_on_c, 9, 53, 37
4, 211174, Note_on_c, 9, 53, 0
4, 213220, Note_on_c, 9, 38, 19
4, 213462, Note_on_c, 9, 38, 0
4, 213919, Note_on_c, 9, 53, 42
4, 214186, Note_on_c, 9, 38, 21
4, 214236, Note_on_c, 9, 53, 0
4, 214550, Note_on_c, 9, 38, 0
4, 215135, Note_on_c, 9, 38, 19
4, 215232, Note_on_c, 9, 53, 34
4, 215423, Note_on_c, 9, 38, 0
4, 215552, Note_on_c, 9, 53, 0
4, 215736, Note_on_c, 9, 36, 15
4, 215965, Note_on_c, 9, 36, 0
4, 216715, Note_on_c, 9, 59, 41
4, 216715, Note_on_c, 9, 38, 19
4, 216845, Note_on_c, 9, 59, 0
4, 216933, Note_on_c, 9, 38, 0
4, 217039, Note_on_c, 9, 59, 40
4, 217269, Note_on_c, 9, 59, 0
4, 217640, Note_on_c, 9, 38, 28
4, 217790, Note_on_c, 9, 38, 0
4, 217910, Note_on_c, 9, 44, 23
4, 218380, Note_on_c, 9, 44, 0
4, 218562, Note_on_c, 9, 38, 25
4, 218826, Note_on_c, 9, 38, 0
4, 219038, Note_on_c, 9, 38, 14
4, 219332, Note_on_c, 9, 38, 0
4, 219566, Note_on_c, 9, 36, 14
4, 219578, Note_on_c, 9, 53, 35
4, 219811, Note_on_c, 9, 36, 0
4, 219827, Note_on_c, 9, 53, 0
4, 220409, Note_on_c, 9, 59, 40
4, 220491, Note_on_c, 9, 38, 30
4, 220638, Note_on_c, 9, 38, 0
4, 220753, Note_on_c, 9, 59, 0
4, 220861, Note_on_c, 9, 59, 32
4, 221168, Note_on_c, 9, 59, 0
4, 221547, Note_on_c, 9, 53, 20
4, 221712, Note_on_c, 9, 53, 0
4, 221823, Note_on_c, 9, 38, 26
4, 222297, Note_on_c, 9, 38, 0
4, 222356, Note_on_c, 9, 59, 54
4, 222583, Note_on_c, 9, 59, 0
4, 223347, Note_on_c, 9, 38, 32
4, 223551, Note_on_c, 9, 38, 0
4, 223706, Note_on_c, 9, 59, 42
4, 224076, Note_on_c, 9, 59, 0
4, 224282, Note_on_c, 9, 38, 34
4, 224283, Note_on_c, 9, 59, 54
4, 224415, Note_on_c, 9, 59, 0
4, 224538, Note_on_c, 9, 38, 0
4, 224647, Note_on_c, 9, 59, 37
4, 224979, Note_on_c, 9, 59, 0
4, 225166, Note_on_c, 9, 44, 30
4, 225232, Note_on_c, 9, 38, 38
4, 225423, Note_on_c, 9, 44, 0
4, 225476, Note_on_c, 9, 38, 0
4, 225603, Note_on_c, 9, 44, 26
4, 225691, Note_on_c, 9, 36, 17
4, 225906, Note_on_c, 9, 36, 0
4, 225970, Note_on_c, 9, 44, 0
4, 226224, Note_on_c, 9, 36, 37
4, 227502, Note_on_c, 9, 59, 54
4, 227516, Note_on_c, 9, 36, 0
4, 227808, Note_on_c, 9, 59, 0
4, 229201, Note_on_c, 9, 59, 60
4, 229394, Note_on_c, 9, 59, 0
4, 229616, Note_on_c, 9, 59, 61
4, 229944, Note_on_c, 9, 59, 0
4, 230518, Note_on_c, 9, 59, 61
4, 230967, Note_on_c, 9, 59, 0
4, 232001, Note_on_c, 9, 59, 46
4, 232128, Note_on_c, 9, 59, 0
4, 232338, Note_on_c, 9, 59, 49
4, 232873, Note_on_c, 9, 59, 0
4, 233016, Note_on_c, 9, 38, 21
4, 233272, Note_on_c, 9, 38, 0
4, 233323, Note_on_c, 9, 59, 71
4, 234135, Note_on_c, 9, 59, 0
4, 234936, Note_on_c, 9, 59, 51
4, 235120, Note_on_c, 9, 59, 0
4, 235278, Note_on_c, 9, 59, 37
4, 235869, Note_on_c, 9, 59, 0
4, 236229, Note_on_c, 9, 59, 59
4, 236897, Note_on_c, 9, 59, 0
4, 237153, Note_on_c, 9, 59, 43
4, 237268, Note_on_c, 9, 44, 15
4, 237618, Note_on_c, 9, 44, 0
4, 237746, Note_on_c, 9, 59, 0
4, 238204, Note_on_c, 9, 59, 31
4, 238631, Note_on_c, 9, 59, 0
4, 239082, Note_on_c, 9, 44, 16
4, 239094, Note_on_c, 9, 59, 87
4, 239484, Note_on_c, 9, 44, 0
4, 240272, Note_on_c, 9, 59, 0
4, 240521, Note_on_c, 9, 44, 27
4, 240566, Note_on_c, 9, 59, 54
4, 240676, Note_on_c, 9, 44, 0
4, 240782, Note_on_c, 9, 59, 0
4, 240955, Note_on_c, 9, 59, 71
4, 242331, Note_on_c, 9, 59, 0
4, 242568, Note_on_c, 9, 59, 45
4, 242712, Note_on_c, 9, 59, 0
4, 242871, Note_on_c, 9, 44, 17
4, 242925, Note_on_c, 9, 59, 58
4, 243243, Note_on_c, 9, 44, 0
4, 243394, Note_on_c, 9, 59, 0
4, 243547, Note_on_c, 9, 53, 43
4, 243696, Note_on_c, 9, 53, 0
4, 243872, Note_on_c, 9, 59, 60
4, 244500, Note_on_c, 9, 59, 0
4, 244826, Note_on_c, 9, 44, 20
4, 245150, Note_on_c, 9, 44, 0
4, 245407, Note_on_c, 9, 53, 48
4, 245583, Note_on_c, 9, 53, 0
4, 245738, Note_on_c, 9, 59, 53
4, 246271, Note_on_c, 9, 59, 0
4, 246404, Note_on_c, 9, 53, 36
4, 246545, Note_on_c, 9, 53, 0
4, 246684, Note_on_c, 9, 44, 23
4, 246752, Note_on_c, 9, 59, 60
4, 247041, Note_on_c, 9, 44, 0
4, 247377, Note_on_c, 9, 59, 0
4, 247723, Note_on_c, 9, 59, 39
4, 248192, Note_on_c, 9, 59, 0
4, 248308, Note_on_c, 9, 36, 15
4, 248477, Note_on_c, 9, 36, 0
4, 248722, Note_on_c, 9, 59, 75
4, 249373, Note_on_c, 9, 59, 0
4, 249606, Note_on_c, 9, 38, 27
4, 249667, Note_on_c, 9, 59, 24
4, 249779, Note_on_c, 9, 59, 0
4, 249818, Note_on_c, 9, 38, 0
4, 250482, Note_on_c, 9, 59, 62
4, 250712, Note_on_c, 9, 59, 0
4, 251167, Note_on_c, 9, 38, 31
4, 251414, Note_on_c, 9, 38, 0
4, 251602, Note_on_c, 9, 59, 66
4, 251861, Note_on_c, 9, 59, 0
4, 252143, Note_on_c, 9, 36, 33
4, 252377, Note_on_c, 9, 36, 0
4, 252549, Note_on_c, 9, 38, 28
4, 252550, Note_on_c, 9, 59, 64
4, 252826, Note_on_c, 9, 59, 0
4, 253098, Note_on_c, 9, 38, 0
4, 253186, Note_on_c, 9, 59, 49
4, 253345, Note_on_c, 9, 59, 0
4, 253529, Note_on_c, 9, 59, 62
4, 254010, Note_on_c, 9, 59, 0
4, 254020, Note_on_c, 9, 38, 33
4, 254325, Note_on_c, 9, 38, 0
4, 254396, Note_on_c, 9, 59, 71
4, 254713, Note_on_c, 9, 59, 0
4, 255055, Note_on_c, 9, 59, 48
4, 255208, Note_on_c, 9, 59, 0
4, 255391, Note_on_c, 9, 38, 31
4, 255418, Note_on_c, 9, 59, 64
4, 255796, Note_on_c, 9, 38, 0
4, 255931, Note_on_c, 9, 59, 0
4, 256371, Note_on_c, 9, 59, 74
4, 256898, Note_on_c, 9, 38, 25
4, 257005, Note_on_c, 9, 59, 0
4, 257085, Note_on_c, 9, 38, 0
4, 257339, Note_on_c, 9, 59, 60
4, 257349, Note_on_c, 9, 36, 22
4, 257895, Note_on_c, 9, 59, 0
4, 258310, Note_on_c, 9, 59, 65
4, 258687, Note_on_c, 9, 59, 0
4, 258726, Note_on_c, 9, 36, 0
4, 258969, Note_on_c, 9, 59, 37
4, 259142, Note_on_c, 9, 59, 0
4, 259306, Note_on_c, 9, 59, 56
4, 260536, Note_on_c, 9, 59, 0
4, 260787, Note_on_c, 9, 59, 53
4, 260971, Note_on_c, 9, 59, 0
4, 261187, Note_on_c, 9, 59, 66
4, 262520, Note_on_c, 9, 59, 0
4, 262782, Note_on_c, 9, 59, 46
4, 262975, Note_on_c, 9, 59, 0
4, 263180, Note_on_c, 9, 59, 45
4, 263649, Note_on_c, 9, 59, 0
4, 264073, Note_on_c, 9, 59, 67
4, 264738, Note_on_c, 9, 59, 0
4, 264916, Note_on_c, 9, 51, 38
4, 265000, Note_on_c, 9, 53, 20
4, 265351, Note_on_c, 9, 51, 0
4, 265423, Note_on_c, 9, 53, 0
4, 265976, Note_on_c, 9, 59, 34
4, 266356, Note_on_c, 9, 59, 0
4, 266575, Note_on_c, 9, 51, 58
4, 266595, Note_on_c, 9, 53, 49
4, 267076, Note_on_c, 9, 53, 0
4, 267169, Note_on_c, 9, 51, 0
4, 267920, Note_on_c, 9, 59, 71
4, 268704, Note_on_c, 9, 59, 0
4, 268750, Note_on_c, 9, 51, 36
4, 268767, Note_on_c, 9, 53, 31
4, 268891, Note_on_c, 9, 51, 0
4, 268925, Note_on_c, 9, 53, 0
4, 269453, Note_on_c, 9, 38, 29
4, 269562, Note_on_c, 9, 59, 70
4, 269652, Note_on_c, 9, 38, 0
4, 269838, Note_on_c, 9, 59, 0
4, 270419, Note_on_c, 9, 38, 22
4, 270434, Note_on_c, 9, 51, 56
4, 270460, Note_on_c, 9, 53, 46
4, 270555, Note_on_c, 9, 38, 0
4, 270584, Note_on_c, 9, 53, 0
4, 270662, Note_on_c, 9, 51, 0
4, 270802, Note_on_c, 9, 38, 23
4, 270841, Note_on_c, 9, 59, 69
4, 271355, Note_on_c, 9, 38, 0
4, 271442, Note_on_c, 9, 59, 0
4, 271531, Note_on_c, 9, 36, 15
4, 271706, Note_on_c, 9, 36, 0
4, 272416, Note_on_c, 9, 53, 55
4, 272419, Note_on_c, 9, 51, 56
4, 272580, Note_on_c, 9, 53, 0
4, 272643, Note_on_c, 9, 51, 0
4, 272773, Note_on_c, 9, 59, 58
4, 272848, Note_on_c, 9, 36, 19
4, 273163, Note_on_c, 9, 36, 0
4, 273168, Note_on_c, 9, 59, 0
4, 273300, Note_on_c, 9, 51, 59
4, 273306, Note_on_c, 9, 53, 49
4, 273427, Note_on_c, 9, 53, 0
4, 273507, Note_on_c, 9, 51, 0
4, 273669, Note_on_c, 9, 59, 64
4, 274250, Note_on_c, 9, 59, 0
4, 274284, Note_on_c, 9, 36, 21
4, 274447, Note_on_c, 9, 36, 0
4, 274605, Note_on_c, 9, 59, 49
4, 274898, Note_on_c, 9, 59, 0
4, 275497, Note_on_c, 9, 59, 78
4, 275568, Note_on_c, 9, 36, 18
4, 275813, Note_on_c, 9, 36, 0
4, 276848, Note_on_c, 9, 59, 0
4, 277079, Note_on_c, 9, 59, 55
4, 277335, Note_on_c, 9, 59, 0
4, 277531, Note_on_c, 9, 59, 68
4, 277940, Note_on_c, 9, 59, 0
4, 278107, Note_on_c, 9, 59, 80
4, 278640, Note_on_c, 9, 59, 0
4, 279054, Note_on_c, 9, 59, 66
4, 279293, Note_on_c, 9, 59, 0
4, 279446, Note_on_c, 9, 59, 70
4, 279855, Note_on_c, 9, 59, 0
4, 280379, Note_on_c, 9, 59, 79
4, 280782, Note_on_c, 9, 59, 0
4, 281315, Note_on_c, 9, 53, 58
4, 281563, Note_on_c, 9, 53, 0
4, 282923, Note_on_c, 9, 38, 17
4, 283072, Note_on_c, 9, 38, 0
4, 283288, Note_on_c, 9, 59, 72
4, 283755, Note_on_c, 9, 38, 22
4, 283870, Note_on_c, 9, 59, 0
4, 283948, Note_on_c, 9, 38, 0
4, 284291, Note_on_c, 9, 36, 14
4, 284432, Note_on_c, 9, 36, 0
4, 284886, Note_on_c, 9, 53, 37
4, 285016, Note_on_c, 9, 53, 0
4, 285762, Note_on_c, 9, 38, 24
4, 285793, Note_on_c, 9, 59, 65
4, 286015, Note_on_c, 9, 38, 0
4, 286107, Note_on_c, 9, 59, 0
4, 286739, Note_on_c, 9, 59, 46
4, 286763, Note_on_c, 9, 38, 34
4, 286790, Note_on_c, 9, 53, 36
4, 286859, Note_on_c, 9, 59, 0
4, 286920, Note_on_c, 9, 53, 0
4, 286924, Note_on_c, 9, 38, 0
4, 287697, Note_on_c, 9, 59, 63
4, 287723, Note_on_c, 9, 57, 38
4, 287724, Note_on_c, 9, 38, 26
4, 288039, Note_on_c, 9, 38, 0
4, 288140, Note_on_c, 9, 57, 26
4, 288164, Note_on_c, 9, 36, 30
4, 289411, Note_on_c, 9, 57, 0
4, 289610, Note_on_c, 9, 59, 0
4, 289633, Note_on_c, 9, 53, 38
4, 289751, Note_on_c, 9, 53, 0
4, 290062, Note_on_c, 9, 59, 36
4, 290523, Note_on_c, 9, 59, 0
4, 290661, Note_on_c, 9, 57, 0
4, 290946, Note_on_c, 9, 59, 51
4, 291377, Note_on_c, 9, 36, 0
4, 292204, Note_on_c, 9, 59, 0
4, 292413, Note_on_c, 9, 38, 24
4, 292767, Note_on_c, 9, 38, 0
4, 293745, Note_on_c, 9, 59, 44
4, 294192, Note_on_c, 9, 59, 0
4, 294361, Note_on_c, 9, 38, 16
4, 294613, Note_on_c, 9, 38, 0
4, 294704, Note_on_c, 9, 59, 51
4, 295179, Note_on_c, 9, 59, 0
4, 295631, Note_on_c, 9, 38, 20
4, 295770, Note_on_c, 9, 59, 36
4, 295925, Note_on_c, 9, 59, 0
4, 296248, Note_on_c, 9, 38, 0
4, 296726, Note_on_c, 9, 59, 34
4, 296893, Note_on_c, 9, 59, 0
4, 297178, Note_on_c, 9, 38, 25
4, 297377, Note_on_c, 9, 59, 58
4, 297527, Note_on_c, 9, 38, 0
4, 297535, Note_on_c, 9, 59, 0
4, 297777, Note_on_c, 9, 59, 57
4, 298215, Note_on_c, 9, 59, 0
4, 298522, Note_on_c, 9, 38, 24
4, 298946, Note_on_c, 9, 38, 0
4, 299171, Note_on_c, 9, 59, 53
4, 299399, Note_on_c, 9, 59, 0
4, 299571, Note_on_c, 9, 59, 42
4, 299972, Note_on_c, 9, 59, 0
4, 301112, Note_on_c, 9, 59, 46
4, 301282, Note_on_c, 9, 59, 0
4, 301484, Note_on_c, 9, 59, 38
4, 301783, Note_on_c, 9, 59, 0
4, 302011, Note_on_c, 9, 53, 54
4, 302253, Note_on_c, 9, 53, 0
4, 302391, Note_on_c, 9, 59, 43
4, 302889, Note_on_c, 9, 59, 0
4, 303015, Note_on_c, 9, 37, 25
4, 303143, Note_on_c, 9, 37, 0
4, 303355, Note_on_c, 9, 37, 33
4, 303742, Note_on_c, 9, 37, 0
4, 303943, Note_on_c, 9, 53, 50
4, 304014, Note_on_c, 9, 36, 13
4, 304050, Note_on_c, 9, 53, 0
4, 304218, Note_on_c, 9, 36, 0
4, 304329, Note_on_c, 9, 59, 44
4, 304853, Note_on_c, 9, 59, 0
4, 304933, Note_on_c, 9, 37, 30
4, 305083, Note_on_c, 9, 37, 0
4, 305317, Note_on_c, 9, 37, 28
4, 305366, Note_on_c, 9, 59, 51
4, 305727, Note_on_c, 9, 37, 0
4, 305870, Note_on_c, 9, 59, 0
4, 305980, Note_on_c, 9, 36, 16
4, 306143, Note_on_c, 9, 36, 0
4, 306305, Note_on_c, 9, 59, 55
4, 306711, Note_on_c, 9, 59, 0
4, 306878, Note_on_c, 9, 37, 37
4, 306941, Note_on_c, 9, 59, 52
4, 307101, Note_on_c, 9, 37, 0
4, 307120, Note_on_c, 9, 59, 0
4, 307281, Note_on_c, 9, 59, 38
4, 307866, Note_on_c, 9, 59, 0
4, 308222, Note_on_c, 9, 37, 37
4, 308793, Note_on_c, 9, 37, 0
4, 308862, Note_on_c, 9, 59, 46
4, 309015, Note_on_c, 9, 59, 0
4, 309219, Note_on_c, 9, 59, 53
4, 309728, Note_on_c, 9, 37, 38
4, 309781, Note_on_c, 9, 59, 0
4, 309968, Note_on_c, 9, 37, 0
4, 310766, Note_on_c, 9, 59, 43
4, 310907, Note_on_c, 9, 59, 0
4, 311106, Note_on_c, 9, 59, 60
4, 311170, Note_on_c, 9, 37, 33
4, 311393, Note_on_c, 9, 37, 0
4, 311737, Note_on_c, 9, 59, 0
4, 312644, Note_on_c, 9, 59, 42
4, 312788, Note_on_c, 9, 59, 0
4, 312992, Note_on_c, 9, 59, 60
4, 313479, Note_on_c, 9, 59, 0
4, 314591, Note_on_c, 9, 59, 41
4, 314772, Note_on_c, 9, 59, 0
4, 314979, Note_on_c, 9, 59, 58
4, 315432, Note_on_c, 9, 59, 0
4, 316555, Note_on_c, 9, 59, 41
4, 316707, Note_on_c, 9, 59, 0
4, 316898, Note_on_c, 9, 59, 52
4, 317283, Note_on_c, 9, 59, 0
4, 317888, Note_on_c, 9, 59, 82
4, 318482, Note_on_c, 9, 59, 0
4, 318925, Note_on_c, 9, 59, 41
4, 319052, Note_on_c, 9, 59, 0
4, 319772, Note_on_c, 9, 59, 68
4, 320123, Note_on_c, 9, 59, 0
4, 320765, Note_on_c, 9, 59, 53
4, 321177, Note_on_c, 9, 59, 0
4, 321621, Note_on_c, 9, 51, 51
4, 321742, Note_on_c, 9, 59, 37
4, 321989, Note_on_c, 9, 59, 0
4, 322116, Note_on_c, 9, 51, 0
4, 322652, Note_on_c, 9, 59, 37
4, 323043, Note_on_c, 9, 59, 0
4, 323510, Note_on_c, 9, 51, 45
4, 323513, Note_on_c, 9, 59, 56
4, 324034, Note_on_c, 9, 59, 0
4, 324037, Note_on_c, 9, 51, 0
4, 324515, Note_on_c, 9, 51, 38
4, 324544, Note_on_c, 9, 36, 12
4, 324567, Note_on_c, 9, 59, 39
4, 324909, Note_on_c, 9, 36, 0
4, 325034, Note_on_c, 9, 59, 0
4, 325173, Note_on_c, 9, 36, 21
4, 325244, Note_on_c, 9, 51, 0
4, 325529, Note_on_c, 9, 36, 0
4, 326183, Note_on_c, 9, 59, 48
4, 326318, Note_on_c, 9, 59, 0
4, 326497, Note_on_c, 9, 51, 40
4, 326548, Note_on_c, 9, 59, 51
4, 326560, Note_on_c, 9, 36, 21
4, 326868, Note_on_c, 9, 59, 0
4, 326954, Note_on_c, 9, 36, 0
4, 327026, Note_on_c, 9, 51, 0
4, 327358, Note_on_c, 9, 51, 39
4, 327401, Note_on_c, 9, 59, 64
4, 327770, Note_on_c, 9, 59, 0
4, 327908, Note_on_c, 9, 51, 0
4, 328965, Note_on_c, 9, 51, 32
4, 328985, Note_on_c, 9, 59, 36
4, 329077, Note_on_c, 9, 51, 0
4, 329132, Note_on_c, 9, 59, 0
4, 329279, Note_on_c, 9, 51, 49
4, 329328, Note_on_c, 9, 59, 59
4, 329846, Note_on_c, 9, 59, 0
4, 329958, Note_on_c, 9, 51, 0
4, 330877, Note_on_c, 9, 59, 53
4, 331073, Note_on_c, 9, 59, 0
4, 331312, Note_on_c, 9, 59, 54
4, 331727, Note_on_c, 9, 59, 0
4, 331971, Note_on_c, 9, 51, 31
4, 332156, Note_on_c, 9, 51, 0
4, 332242, Note_on_c, 9, 59, 80
4, 332922, Note_on_c, 9, 59, 0
4, 333170, Note_on_c, 9, 51, 67
4, 333947, Note_on_c, 9, 51, 0
4, 334235, Note_on_c, 9, 59, 34
4, 334420, Note_on_c, 9, 59, 0
4, 335151, Note_on_c, 9, 59, 52
4, 335577, Note_on_c, 9, 59, 0
4, 336113, Note_on_c, 9, 59, 64
4, 336142, Note_on_c, 9, 51, 50
4, 336148, Note_on_c, 9, 53, 50
4, 336634, Note_on_c, 9, 59, 0
4, 336796, Note_on_c, 9, 53, 0
4, 336966, Note_on_c, 9, 51, 0
4, 337072, Note_on_c, 9, 59, 33
4, 337092, Note_on_c, 9, 44, 22
4, 337282, Note_on_c, 9, 59, 0
4, 337486, Note_on_c, 9, 44, 0
4, 337654, Note_on_c, 9, 59, 68
4, 337657, Note_on_c, 9, 51, 53
4, 337688, Note_on_c, 9, 53, 36
4, 338063, Note_on_c, 9, 53, 0
4, 338123, Note_on_c, 9, 59, 0
4, 338158, Note_on_c, 9, 51, 0
4, 338653, Note_on_c, 9, 59, 41
4, 338826, Note_on_c, 9, 59, 0
4, 338966, Note_on_c, 9, 44, 21
4, 339051, Note_on_c, 9, 51, 55
4, 339059, Note_on_c, 9, 59, 54
4, 339085, Note_on_c, 9, 53, 45
4, 339417, Note_on_c, 9, 44, 0
4, 339693, Note_on_c, 9, 59, 0
4, 339900, Note_on_c, 9, 53, 0
4, 339932, Note_on_c, 9, 51, 0
4, 340563, Note_on_c, 9, 51, 59
4, 340568, Note_on_c, 9, 59, 60
4, 340617, Note_on_c, 9, 53, 45
4, 340796, Note_on_c, 9, 53, 0
4, 340851, Note_on_c, 9, 44, 21
4, 340888, Note_on_c, 9, 51, 0
4, 340980, Note_on_c, 9, 59, 0
4, 341275, Note_on_c, 9, 44, 0
4, 341527, Note_on_c, 9, 59, 44
4, 341749, Note_on_c, 9, 59, 0
4, 341951, Note_on_c, 9, 53, 62
4, 341954, Note_on_c, 9, 51, 56
4, 341971, Note_on_c, 9, 59, 65
4, 342400, Note_on_c, 9, 59, 0
4, 342541, Note_on_c, 9, 51, 0
4, 342636, Note_on_c, 9, 53, 0
4, 343376, Note_on_c, 9, 59, 64
4, 343391, Note_on_c, 9, 51, 64
4, 343428, Note_on_c, 9, 53, 51
4, 343587, Note_on_c, 9, 53, 0
4, 343670, Note_on_c, 9, 51, 0
4, 343725, Note_on_c, 9, 59, 0
4, 344263, Note_on_c, 9, 59, 48
4, 344422, Note_on_c, 9, 59, 0
4, 344664, Note_on_c, 9, 51, 57
4, 344683, Note_on_c, 9, 44, 30
4, 344693, Note_on_c, 9, 59, 62
4, 344695, Note_on_c, 9, 53, 37
4, 345004, Note_on_c, 9, 44, 0
4, 345024, Note_on_c, 9, 53, 0
4, 345090, Note_on_c, 9, 59, 0
4, 345254, Note_on_c, 9, 51, 0
4, 346207, Note_on_c, 9, 59, 69
4, 346210, Note_on_c, 9, 51, 57
4, 346239, Note_on_c, 9, 53, 51
4, 346409, Note_on_c, 9, 53, 0
4, 346481, Note_on_c, 9, 51, 0
4, 346536, Note_on_c, 9, 59, 0
4, 346576, Note_on_c, 9, 44, 25
4, 346704, Note_on_c, 9, 44, 0
4, 347140, Note_on_c, 9, 59, 56
4, 347256, Note_on_c, 9, 59, 0
4, 347466, Note_on_c, 9, 51, 38
4, 347480, Note_on_c, 9, 53, 27
4, 347496, Note_on_c, 9, 38, 33
4, 347575, Note_on_c, 9, 59, 64
4, 347904, Note_on_c, 9, 38, 0
4, 348071, Note_on_c, 9, 51, 0
4, 348159, Note_on_c, 9, 38, 31
4, 348249, Note_on_c, 9, 59, 0
4, 348391, Note_on_c, 9, 38, 0
4, 348393, Note_on_c, 9, 51, 35
4, 348526, Note_on_c, 9, 53, 0
4, 348552, Note_on_c, 9, 51, 0
4, 349041, Note_on_c, 9, 59, 73
4, 349044, Note_on_c, 9, 57, 44
4, 349071, Note_on_c, 9, 38, 40
4, 349096, Note_on_c, 9, 53, 60
4, 349110, Note_on_c, 9, 51, 48
4, 349275, Note_on_c, 9, 38, 0
4, 349511, Note_on_c, 9, 36, 30
4, 350292, Note_on_c, 9, 36, 0
4, 350959, Note_on_c, 9, 57, 0
4, 350962, Note_on_c, 9, 59, 0
4, 351639, Note_on_c, 9, 51, 0
4, 351679, Note_on_c, 9, 53, 0
4, 351984, Note_on_c, 9, 38, 27
4, 352002, Note_on_c, 9, 59, 66
4, 352270, Note_on_c, 9, 59, 0
4, 352294, Note_on_c, 9, 38, 0
4, 352381, Note_on_c, 9, 36, 18
4, 352417, Note_on_c, 9, 51, 57
4, 352425, Note_on_c, 9, 53, 51
4, 352428, Note_on_c, 9, 57, 40
4, 352448, Note_on_c, 9, 59, 74
4, 352906, Note_on_c, 9, 36, 0
4, 353327, Note_on_c, 9, 36, 21
4, 353646, Note_on_c, 9, 36, 0
4, 354516, Note_on_c, 9, 57, 0
4, 354594, Note_on_c, 9, 51, 0
4, 354640, Note_on_c, 9, 53, 0
4, 354686, Note_on_c, 9, 59, 0
4, 354865, Note_on_c, 9, 51, 37
4, 354994, Note_on_c, 9, 51, 0
4, 355207, Note_on_c, 9, 59, 57
4, 355654, Note_on_c, 9, 59, 0
4, 356155, Note_on_c, 9, 59, 58
4, 356650, Note_on_c, 9, 59, 0
4, 357183, Note_on_c, 9, 59, 50
4, 357439, Note_on_c, 9, 59, 0
4, 358156, Note_on_c, 9, 59, 66
4, 358467, Note_on_c, 9, 59, 0
4, 358819, Note_on_c, 9, 59, 45
4, 358951, Note_on_c, 9, 59, 0
4, 359150, Note_on_c, 9, 59, 54
4, 359579, Note_on_c, 9, 59, 0
4, 360642, Note_on_c, 9, 59, 43
4, 360726, Note_on_c, 9, 36, 14
4, 360783, Note_on_c, 9, 59, 0
4, 360832, Note_on_c, 9, 36, 0
4, 360982, Note_on_c, 9, 59, 57
4, 361082, Note_on_c, 9, 36, 10
4, 361354, Note_on_c, 9, 36, 0
4, 361428, Note_on_c, 9, 59, 0
4, 361964, Note_on_c, 9, 59, 72
4, 362526, Note_on_c, 9, 36, 15
4, 362646, Note_on_c, 9, 36, 0
4, 362669, Note_on_c, 9, 59, 0
4, 363015, Note_on_c, 9, 59, 46
4, 363225, Note_on_c, 9, 59, 0
4, 363896, Note_on_c, 9, 59, 75
4, 364314, Note_on_c, 9, 59, 0
4, 364536, Note_on_c, 9, 59, 51
4, 364697, Note_on_c, 9, 59, 0
4, 364919, Note_on_c, 9, 59, 61
4, 365400, Note_on_c, 9, 59, 0
4, 365846, Note_on_c, 9, 59, 67
4, 366174, Note_on_c, 9, 59, 0
4, 366359, Note_on_c, 9, 36, 21
4, 366484, Note_on_c, 9, 36, 0
4, 366491, Note_on_c, 9, 59, 40
4, 366652, Note_on_c, 9, 59, 0
4, 366693, Note_on_c, 9, 36, 22
4, 366799, Note_on_c, 9, 59, 49
4, 367009, Note_on_c, 9, 36, 0
4, 367179, Note_on_c, 9, 59, 0
4, 367675, Note_on_c, 9, 59, 36
4, 367686, Note_on_c, 9, 36, 20
4, 367855, Note_on_c, 9, 36, 0
4, 368087, Note_on_c, 9, 59, 0
4, 368154, Note_on_c, 9, 36, 21
4, 368314, Note_on_c, 9, 59, 54
4, 368377, Note_on_c, 9, 36, 0
4, 368452, Note_on_c, 9, 59, 0
4, 368614, Note_on_c, 9, 59, 54
4, 369095, Note_on_c, 9, 59, 0
4, 369166, Note_on_c, 9, 36, 14
4, 369258, Note_on_c, 9, 36, 0
4, 369490, Note_on_c, 9, 36, 24
4, 369550, Note_on_c, 9, 59, 58
4, 369791, Note_on_c, 9, 36, 0
4, 369800, Note_on_c, 9, 59, 0
4, 370195, Note_on_c, 9, 59, 55
4, 370365, Note_on_c, 9, 59, 0
4, 370538, Note_on_c, 9, 59, 53
4, 371019, Note_on_c, 9, 59, 0
4, 371572, Note_on_c, 9, 59, 53
4, 371992, Note_on_c, 9, 59, 0
4, 372597, Note_on_c, 9, 59, 59
4, 372658, Note_on_c, 9, 38, 24
4, 372789, Note_on_c, 9, 38, 0
4, 372979, Note_on_c, 9, 38, 14
4, 373020, Note_on_c, 9, 59, 0
4, 373240, Note_on_c, 9, 38, 0
4, 373349, Note_on_c, 9, 38, 22
4, 373466, Note_on_c, 9, 38, 0
4, 373570, Note_on_c, 9, 59, 59
4, 373887, Note_on_c, 9, 59, 0
4, 374163, Note_on_c, 9, 38, 26
4, 374262, Note_on_c, 9, 59, 32
4, 374411, Note_on_c, 9, 59, 0
4, 374587, Note_on_c, 9, 59, 64
4, 374753, Note_on_c, 9, 38, 0
4, 374891, Note_on_c, 9, 38, 26
4, 374982, Note_on_c, 9, 59, 0
4, 375183, Note_on_c, 9, 38, 0
4, 376053, Note_on_c, 9, 59, 43
4, 376197, Note_on_c, 9, 59, 0
4, 376416, Note_on_c, 9, 59, 57
4, 376876, Note_on_c, 9, 59, 0
4, 377959, Note_on_c, 9, 59, 46
4, 378115, Note_on_c, 9, 59, 0
4, 378322, Note_on_c, 9, 59, 64
4, 378671, Note_on_c, 9, 59, 0
4, 379250, Note_on_c, 9, 59, 79
4, 379921, Note_on_c, 9, 59, 0
4, 380197, Note_on_c, 9, 59, 32
4, 380477, Note_on_c, 9, 59, 0
4, 381171, Note_on_c, 9, 59, 83
4, 381732, Note_on_c, 9, 59, 0
4, 382202, Note_on_c, 9, 59, 42
4, 382392, Note_on_c, 9, 59, 0
4, 383060, Note_on_c, 9, 59, 72
4, 383575, Note_on_c, 9, 59, 0
4, 383996, Note_on_c, 9, 59, 47
4, 384153, Note_on_c, 9, 36, 19
4, 384261, Note_on_c, 9, 59, 0
4, 384436, Note_on_c, 9, 36, 0
4, 385001, Note_on_c, 9, 59, 76
4, 385462, Note_on_c, 9, 59, 0
4, 385689, Note_on_c, 9, 59, 48
4, 385882, Note_on_c, 9, 59, 0
4, 386052, Note_on_c, 9, 59, 55
4, 386677, Note_on_c, 9, 59, 0
4, 387576, Note_on_c, 9, 59, 59
4, 387760, Note_on_c, 9, 59, 0
4, 387933, Note_on_c, 9, 59, 58
4, 388472, Note_on_c, 9, 36, 26
4, 388517, Note_on_c, 9, 59, 0
4, 388592, Note_on_c, 9, 36, 0
4, 389465, Note_on_c, 9, 59, 54
4, 389530, Note_on_c, 9, 36, 18
4, 389669, Note_on_c, 9, 36, 0
4, 389669, Note_on_c, 9, 59, 0
4, 389828, Note_on_c, 9, 59, 53
4, 389908, Note_on_c, 9, 36, 27
4, 390172, Note_on_c, 9, 36, 0
4, 390418, Note_on_c, 9, 59, 0
4, 391350, Note_on_c, 9, 36, 24
4, 391377, Note_on_c, 9, 59, 49
4, 391475, Note_on_c, 9, 36, 0
4, 391513, Note_on_c, 9, 59, 0
4, 391729, Note_on_c, 9, 59, 58
4, 392210, Note_on_c, 9, 59, 0
4, 392296, Note_on_c, 9, 51, 69
4, 392872, Note_on_c, 9, 51, 0
4, 393278, Note_on_c, 9, 51, 59
4, 393311, Note_on_c, 9, 38, 20
4, 393447, Note_on_c, 9, 38, 0
4, 393569, Note_on_c, 9, 51, 0
4, 393673, Note_on_c, 9, 59, 69
4, 394303, Note_on_c, 9, 59, 0
4, 394353, Note_on_c, 9, 38, 22
4, 394639, Note_on_c, 9, 38, 0
4, 395183, Note_on_c, 9, 38, 30
4, 395193, Note_on_c, 9, 59, 58
4, 395343, Note_on_c, 9, 38, 0
4, 395398, Note_on_c, 9, 59, 0
4, 395591, Note_on_c, 9, 59, 62
4, 396052, Note_on_c, 9, 59, 0
4, 397127, Note_on_c, 9, 38, 19
4, 397229, Note_on_c, 9, 59, 53
4, 397348, Note_on_c, 9, 38, 0
4, 397388, Note_on_c, 9, 59, 0
4, 397592, Note_on_c, 9, 59, 44
4, 398041, Note_on_c, 9, 38, 14
4, 398056, Note_on_c, 9, 59, 0
4, 398196, Note_on_c, 9, 38, 0
4, 398468, Note_on_c, 9, 44, 17
4, 398808, Note_on_c, 9, 44, 0
4, 399083, Note_on_c, 9, 44, 20
4, 399124, Note_on_c, 9, 59, 43
4, 399306, Note_on_c, 9, 44, 0
4, 399821, Note_on_c, 9, 59, 0
4, 400132, Note_on_c, 9, 51, 42
4, 400176, Note_on_c, 9, 53, 34
4, 400320, Note_on_c, 9, 53, 0
4, 400400, Note_on_c, 9, 51, 0
4, 401535, Note_on_c, 9, 59, 67
4, 402157, Note_on_c, 9, 59, 0
4, 403969, Note_on_c, 9, 59, 64
4, 404213, Note_on_c, 9, 59, 0
4, 404861, Note_on_c, 9, 59, 60
4, 405043, Note_on_c, 9, 59, 0
4, 405271, Note_on_c, 9, 59, 66
4, 405630, Note_on_c, 9, 59, 0
4, 406734, Note_on_c, 9, 59, 58
4, 406984, Note_on_c, 9, 59, 0
4, 407687, Note_on_c, 9, 59, 66
4, 407932, Note_on_c, 9, 59, 0
4, 408035, Note_on_c, 9, 38, 22
4, 408116, Note_on_c, 9, 59, 60
4, 408320, Note_on_c, 9, 38, 0
4, 408404, Note_on_c, 9, 59, 0
4, 409038, Note_on_c, 9, 38, 34
4, 409330, Note_on_c, 9, 38, 0
4, 409607, Note_on_c, 9, 38, 28
4, 409616, Note_on_c, 9, 59, 62
4, 409841, Note_on_c, 9, 38, 0
4, 409876, Note_on_c, 9, 59, 0
4, 410008, Note_on_c, 9, 59, 43
4, 410072, Note_on_c, 9, 36, 22
4, 410208, Note_on_c, 9, 36, 0
4, 410279, Note_on_c, 9, 59, 0
4, 410649, Note_on_c, 9, 36, 41
4, 410930, Note_on_c, 9, 59, 69
4, 411125, Note_on_c, 9, 36, 0
4, 411264, Note_on_c, 9, 59, 0
4, 411854, Note_on_c, 9, 59, 67
4, 412151, Note_on_c, 9, 59, 0
4, 412519, Note_on_c, 9, 59, 42
4, 412669, Note_on_c, 9, 59, 0
4, 412877, Note_on_c, 9, 59, 64
4, 413170, Note_on_c, 9, 59, 0
4, 413545, Note_on_c, 9, 38, 27
4, 413687, Note_on_c, 9, 38, 0
4, 413818, Note_on_c, 9, 59, 71
4, 413823, Note_on_c, 9, 36, 22
4, 414019, Note_on_c, 9, 36, 0
4, 414161, Note_on_c, 9, 59, 0
4, 414475, Note_on_c, 9, 59, 47
4, 414616, Note_on_c, 9, 59, 0
4, 414832, Note_on_c, 9, 59, 57
4, 415241, Note_on_c, 9, 59, 0
4, 415439, Note_on_c, 9, 38, 26
4, 415561, Note_on_c, 9, 38, 0
4, 416272, Note_on_c, 9, 59, 51
4, 416401, Note_on_c, 9, 38, 34
4, 416416, Note_on_c, 9, 59, 0
4, 416630, Note_on_c, 9, 38, 0
4, 416649, Note_on_c, 9, 59, 56
4, 416972, Note_on_c, 9, 59, 0
4, 417269, Note_on_c, 9, 38, 32
4, 417443, Note_on_c, 9, 38, 0
4, 418176, Note_on_c, 9, 59, 49
4, 418197, Note_on_c, 9, 38, 24
4, 418311, Note_on_c, 9, 59, 0
4, 418384, Note_on_c, 9, 38, 0
4, 418562, Note_on_c, 9, 59, 50
4, 418855, Note_on_c, 9, 59, 0
4, 419247, Note_on_c, 9, 36, 29
4, 419526, Note_on_c, 9, 59, 66
4, 419576, Note_on_c, 9, 36, 0
4, 419768, Note_on_c, 9, 59, 0
4, 420500, Note_on_c, 9, 59, 71
4, 420568, Note_on_c, 9, 36, 20
4, 420786, Note_on_c, 9, 36, 0
4, 420972, Note_on_c, 9, 59, 0
4, 421450, Note_on_c, 9, 59, 51
4, 421675, Note_on_c, 9, 59, 0
4, 422438, Note_on_c, 9, 59, 72
4, 422492, Note_on_c, 9, 38, 16
4, 422749, Note_on_c, 9, 59, 0
4, 422856, Note_on_c, 9, 38, 0
4, 423033, Note_on_c, 9, 38, 33
4, 423308, Note_on_c, 9, 38, 0
4, 423432, Note_on_c, 9, 51, 44
4, 423509, Note_on_c, 9, 38, 19
4, 423732, Note_on_c, 9, 38, 0
4, 423740, Note_on_c, 9, 51, 0
4, 423990, Note_on_c, 9, 38, 31
4, 424295, Note_on_c, 9, 38, 0
4, 424414, Note_on_c, 9, 59, 66
4, 424510, Note_on_c, 9, 38, 20
4, 424643, Note_on_c, 9, 38, 0
4, 424777, Note_on_c, 9, 59, 0
4, 424934, Note_on_c, 9, 38, 29
4, 425184, Note_on_c, 9, 38, 0
4, 425284, Note_on_c, 9, 51, 55
4, 425328, Note_on_c, 9, 36, 24
4, 425612, Note_on_c, 9, 51, 0
4, 425674, Note_on_c, 9, 36, 0
4, 426329, Note_on_c, 9, 59, 64
4, 426414, Note_on_c, 9, 36, 19
4, 426697, Note_on_c, 9, 36, 0
4, 426798, Note_on_c, 9, 59, 0
4, 427230, Note_on_c, 9, 51, 54
4, 427262, Note_on_c, 9, 53, 40
4, 427510, Note_on_c, 9, 53, 0
4, 427619, Note_on_c, 9, 51, 0
4, 428285, Note_on_c, 9, 59, 38
4, 428572, Note_on_c, 9, 59, 0
4, 429140, Note_on_c, 9, 51, 42
4, 429160, Note_on_c, 9, 53, 32
4, 429609, Note_on_c, 9, 51, 0
4, 429629, Note_on_c, 9, 53, 0
4, 430217, Note_on_c, 9, 59, 34
4, 430565, Note_on_c, 9, 59, 0
4, 431084, Note_on_c, 9, 53, 46
4, 431087, Note_on_c, 9, 51, 51
4, 431593, Note_on_c, 9, 38, 25
4, 431605, Note_on_c, 9, 53, 0
4, 431715, Note_on_c, 9, 38, 0
4, 431950, Note_on_c, 9, 51, 0
4, 431984, Note_on_c, 9, 38, 16
4, 432083, Note_on_c, 9, 59, 36
4, 432278, Note_on_c, 9, 38, 0
4, 432567, Note_on_c, 9, 59, 0
4, 432645, Note_on_c, 9, 36, 18
4, 432803, Note_on_c, 9, 36, 0
4, 433051, Note_on_c, 9, 51, 46
4, 433062, Note_on_c, 9, 53, 38
4, 433584, Note_on_c, 9, 38, 25
4, 433701, Note_on_c, 9, 38, 0
4, 433702, Note_on_c, 9, 51, 0
4, 433791, Note_on_c, 9, 53, 0
4, 434016, Note_on_c, 9, 59, 34
4, 434252, Note_on_c, 9, 59, 0
4, 434549, Note_on_c, 9, 38, 21
4, 434710, Note_on_c, 9, 38, 0
4, 434926, Note_on_c, 9, 51, 45
4, 434957, Note_on_c, 9, 53, 35
4, 435519, Note_on_c, 9, 51, 0
4, 435531, Note_on_c, 9, 38, 24
4, 435551, Note_on_c, 9, 53, 0
4, 435675, Note_on_c, 9, 38, 0
4, 435915, Note_on_c, 9, 38, 27
4, 436078, Note_on_c, 9, 38, 0
4, 436407, Note_on_c, 9, 36, 16
4, 436584, Note_on_c, 9, 36, 0
4, 436755, Note_on_c, 9, 59, 62
4, 437204, Note_on_c, 9, 59, 0
4, 437751, Note_on_c, 9, 59, 27
4, 438039, Note_on_c, 9, 59, 0
4, 438360, Note_on_c, 9, 38, 20
4, 438425, Note_on_c, 9, 51, 33
4, 438515, Note_on_c, 9, 38, 0
4, 438669, Note_on_c, 9, 51, 0
4, 438701, Note_on_c, 9, 59, 74
4, 439102, Note_on_c, 9, 59, 0
4, 439375, Note_on_c, 9, 59, 51
4, 439620, Note_on_c, 9, 59, 0
4, 439690, Note_on_c, 9, 38, 23
4, 439781, Note_on_c, 9, 59, 58
4, 440030, Note_on_c, 9, 38, 0
4, 440245, Note_on_c, 9, 59, 0
4, 440373, Note_on_c, 9, 36, 20
4, 440620, Note_on_c, 9, 36, 0
4, 441245, Note_on_c, 9, 59, 45
4, 441414, Note_on_c, 9, 59, 0
4, 441619, Note_on_c, 9, 59, 66
4, 441755, Note_on_c, 9, 36, 18
4, 441910, Note_on_c, 9, 36, 0
4, 442065, Note_on_c, 9, 59, 0
4, 442581, Note_on_c, 9, 59, 46
4, 442996, Note_on_c, 9, 59, 0
4, 443214, Note_on_c, 9, 59, 49
4, 443459, Note_on_c, 9, 59, 0
4, 443618, Note_on_c, 9, 59, 44
4, 443937, Note_on_c, 9, 59, 0
4, 444519, Note_on_c, 9, 59, 65
4, 444859, Note_on_c, 9, 59, 0
4, 445130, Note_on_c, 9, 59, 43
4, 445349, Note_on_c, 9, 59, 0
4, 445524, Note_on_c, 9, 59, 49
4, 445899, Note_on_c, 9, 59, 0
4, 446987, Note_on_c, 9, 59, 53
4, 447203, Note_on_c, 9, 59, 0
4, 447363, Note_on_c, 9, 38, 22
4, 447425, Note_on_c, 9, 59, 57
4, 447611, Note_on_c, 9, 38, 0
4, 447871, Note_on_c, 9, 59, 0
4, 448051, Note_on_c, 9, 38, 31
4, 448261, Note_on_c, 9, 38, 0
4, 448769, Note_on_c, 9, 38, 27
4, 448969, Note_on_c, 9, 59, 48
4, 449071, Note_on_c, 9, 38, 0
4, 449139, Note_on_c, 9, 59, 0
4, 449375, Note_on_c, 9, 59, 56
4, 449439, Note_on_c, 9, 38, 26
4, 449709, Note_on_c, 9, 59, 0
4, 449721, Note_on_c, 9, 38, 0
4, 449955, Note_on_c, 9, 36, 19
4, 450230, Note_on_c, 9, 36, 0
4, 450270, Note_on_c, 9, 59, 77
4, 450565, Note_on_c, 9, 36, 30
4, 450599, Note_on_c, 9, 59, 0
4, 450869, Note_on_c, 9, 36, 0
4, 451196, Note_on_c, 9, 36, 21
4, 451198, Note_on_c, 9, 59, 63
4, 451593, Note_on_c, 9, 36, 0
4, 451731, Note_on_c, 9, 59, 0
4, 452148, Note_on_c, 9, 59, 60
4, 452514, Note_on_c, 9, 59, 0
4, 452739, Note_on_c, 9, 59, 47
4, 452992, Note_on_c, 9, 59, 0
4, 453122, Note_on_c, 9, 59, 35
4, 453539, Note_on_c, 9, 59, 0
4, 454069, Note_on_c, 9, 59, 67
4, 454510, Note_on_c, 9, 59, 0
4, 454769, Note_on_c, 9, 59, 33
4, 454956, Note_on_c, 9, 59, 0
4, 455172, Note_on_c, 9, 59, 60
4, 455515, Note_on_c, 9, 59, 0
4, 456062, Note_on_c, 9, 59, 76
4, 456668, Note_on_c, 9, 38, 18
4, 456793, Note_on_c, 9, 38, 0
4, 457053, Note_on_c, 9, 59, 0
4, 457601, Note_on_c, 9, 38, 21
4, 457661, Note_on_c, 9, 59, 42
4, 457748, Note_on_c, 9, 38, 0
4, 457808, Note_on_c, 9, 59, 0
4, 458012, Note_on_c, 9, 59, 64
4, 458487, Note_on_c, 9, 59, 0
4, 458931, Note_on_c, 9, 59, 80
4, 458956, Note_on_c, 9, 38, 22
4, 459271, Note_on_c, 9, 38, 0
4, 460172, Note_on_c, 9, 59, 0
4, 460509, Note_on_c, 9, 59, 51
4, 460520, Note_on_c, 9, 38, 29
4, 460667, Note_on_c, 9, 59, 0
4, 460805, Note_on_c, 9, 38, 0
4, 460860, Note_on_c, 9, 59, 61
4, 462079, Note_on_c, 9, 59, 0
4, 462378, Note_on_c, 9, 59, 45
4, 462568, Note_on_c, 9, 59, 0
4, 462770, Note_on_c, 9, 59, 68
4, 464014, Note_on_c, 9, 59, 0
4, 464233, Note_on_c, 9, 59, 52
4, 464495, Note_on_c, 9, 59, 0
4, 464699, Note_on_c, 9, 59, 68
4, 465981, Note_on_c, 9, 59, 0
4, 466252, Note_on_c, 9, 59, 46
4, 466468, Note_on_c, 9, 59, 0
4, 466655, Note_on_c, 9, 59, 56
4, 467951, Note_on_c, 9, 59, 0
4, 468152, Note_on_c, 9, 51, 61
4, 468155, Note_on_c, 9, 53, 60
4, 468435, Note_on_c, 9, 53, 0
4, 468458, Note_on_c, 9, 51, 0
4, 469151, Note_on_c, 9, 38, 21
4, 469181, Note_on_c, 9, 51, 59
4, 469195, Note_on_c, 9, 53, 50
4, 469287, Note_on_c, 9, 38, 0
4, 469414, Note_on_c, 9, 51, 0
4, 469420, Note_on_c, 9, 53, 0
4, 470137, Note_on_c, 9, 51, 50
4, 470140, Note_on_c, 9, 53, 45
4, 470258, Note_on_c, 9, 53, 0
4, 470266, Note_on_c, 9, 51, 0
4, 470524, Note_on_c, 9, 38, 21
4, 470528, Note_on_c, 9, 59, 71
4, 470875, Note_on_c, 9, 38, 0
4, 471044, Note_on_c, 9, 59, 0
4, 471352, Note_on_c, 9, 51, 64
4, 471381, Note_on_c, 9, 53, 50
4, 471885, Note_on_c, 9, 53, 0
4, 471891, Note_on_c, 9, 51, 0
4, 472080, Note_on_c, 9, 38, 31
4, 472333, Note_on_c, 9, 38, 0
4, 472429, Note_on_c, 9, 51, 71
4, 472974, Note_on_c, 9, 51, 0
4, 473437, Note_on_c, 9, 38, 27
4, 473449, Note_on_c, 9, 51, 39
4, 473573, Note_on_c, 9, 51, 0
4, 473780, Note_on_c, 9, 38, 0
4, 474090, Note_on_c, 9, 36, 18
4, 474174, Note_on_c, 9, 51, 55
4, 474272, Note_on_c, 9, 51, 0
4, 474278, Note_on_c, 9, 36, 0
4, 474468, Note_on_c, 9, 51, 51
4, 474768, Note_on_c, 9, 51, 0
4, 475004, Note_on_c, 9, 36, 29
4, 475246, Note_on_c, 9, 36, 0
4, 475911, Note_on_c, 9, 51, 62
4, 476118, Note_on_c, 9, 51, 0
4, 476311, Note_on_c, 9, 51, 62
4, 476369, Note_on_c, 9, 36, 27
4, 476660, Note_on_c, 9, 36, 0
4, 476795, Note_on_c, 9, 51, 0
4, 477795, Note_on_c, 9, 51, 67
4, 478011, Note_on_c, 9, 51, 0
4, 478181, Note_on_c, 9, 51, 64
4, 478676, Note_on_c, 9, 51, 0
4, 479664, Note_on_c, 9, 51, 68
4, 479860, Note_on_c, 9, 51, 0
4, 480038, Note_on_c, 9, 51, 56
4, 480153, Note_on_c, 9, 38, 25
4, 480281, Note_on_c, 9, 38, 0
4, 480485, Note_on_c, 9, 51, 0
4, 480957, Note_on_c, 9, 51, 67
4, 481383, Note_on_c, 9, 51, 0
4, 481922, Note_on_c, 9, 51, 64
4, 482308, Note_on_c, 9, 51, 0
4, 482881, Note_on_c, 9, 51, 67
4, 483261, Note_on_c, 9, 51, 0
4, 483503, Note_on_c, 9, 51, 42
4, 483689, Note_on_c, 9, 38, 34
4, 483690, Note_on_c, 9, 51, 0
4, 483811, Note_on_c, 9, 38, 0
4, 483851, Note_on_c, 9, 51, 54
4, 484303, Note_on_c, 9, 51, 0
4, 484641, Note_on_c, 9, 38, 21
4, 484776, Note_on_c, 9, 51, 69
4, 484777, Note_on_c, 9, 38, 0
4, 484981, Note_on_c, 9, 38, 19
4, 485109, Note_on_c, 9, 38, 0
4, 485156, Note_on_c, 9, 51, 0
4, 485467, Note_on_c, 9, 51, 45
4, 485620, Note_on_c, 9, 51, 0
4, 485634, Note_on_c, 9, 38, 40
4, 485800, Note_on_c, 9, 38, 0
4, 485818, Note_on_c, 9, 51, 63
4, 486227, Note_on_c, 9, 51, 0
4, 486428, Note_on_c, 9, 38, 21
4, 486594, Note_on_c, 9, 38, 0
4, 486700, Note_on_c, 9, 51, 71
4, 486738, Note_on_c, 9, 38, 14
4, 486858, Note_on_c, 9, 38, 0
4, 487034, Note_on_c, 9, 51, 0
4, 487604, Note_on_c, 9, 51, 67
4, 488085, Note_on_c, 9, 51, 0
4, 488661, Note_on_c, 9, 51, 70
4, 489021, Note_on_c, 9, 51, 0
4, 489387, Note_on_c, 9, 38, 17
4, 489507, Note_on_c, 9, 38, 0
4, 489663, Note_on_c, 9, 51, 67
4, 490234, Note_on_c, 9, 51, 0
4, 490274, Note_on_c, 9, 38, 23
4, 490413, Note_on_c, 9, 38, 0
4, 490691, Note_on_c, 9, 51, 59
4, 491026, Note_on_c, 9, 51, 0
4, 491599, Note_on_c, 9, 51, 57
4, 491667, Note_on_c, 9, 38, 30
4, 491993, Note_on_c, 9, 51, 0
4, 492064, Note_on_c, 9, 38, 0
4, 492546, Note_on_c, 9, 51, 65
4, 492886, Note_on_c, 9, 51, 0
4, 493103, Note_on_c, 9, 38, 29
4, 493162, Note_on_c, 9, 51, 54
4, 493334, Note_on_c, 9, 38, 0
4, 493364, Note_on_c, 9, 51, 0
4, 493522, Note_on_c, 9, 51, 62
4, 493954, Note_on_c, 9, 51, 0
4, 494022, Note_on_c, 9, 36, 21
4, 494204, Note_on_c, 9, 36, 0
4, 494400, Note_on_c, 9, 36, 22
4, 494424, Note_on_c, 9, 51, 69
4, 494804, Note_on_c, 9, 51, 0
4, 494939, Note_on_c, 9, 36, 0
4, 495112, Note_on_c, 9, 51, 42
4, 495225, Note_on_c, 9, 51, 0
4, 495377, Note_on_c, 9, 36, 23
4, 495409, Note_on_c, 9, 51, 53
4, 495831, Note_on_c, 9, 36, 0
4, 495896, Note_on_c, 9, 51, 0
4, 496964, Note_on_c, 9, 51, 67
4, 497168, Note_on_c, 9, 51, 0
4, 497338, Note_on_c, 9, 51, 54
4, 497742, Note_on_c, 9, 51, 0
4, 498873, Note_on_c, 9, 51, 58
4, 498977, Note_on_c, 9, 51, 0
4, 499262, Note_on_c, 9, 51, 57
4, 499501, Note_on_c, 9, 51, 0
4, 499732, Note_on_c, 9, 51, 53
4, 499789, Note_on_c, 9, 53, 56
4, 500305, Note_on_c, 9, 51, 0
4, 500440, Note_on_c, 9, 53, 0
4, 500806, Note_on_c, 9, 51, 45
4, 500915, Note_on_c, 9, 51, 0
4, 501244, Note_on_c, 9, 53, 52
4, 501267, Note_on_c, 9, 51, 59
4, 501820, Note_on_c, 9, 51, 0
4, 501840, Note_on_c, 9, 53, 0
4, 502658, Note_on_c, 9, 51, 58
4, 502897, Note_on_c, 9, 51, 0
4, 503671, Note_on_c, 9, 51, 44
4, 503795, Note_on_c, 9, 51, 0
4, 503988, Note_on_c, 9, 44, 19
4, 504057, Note_on_c, 9, 51, 53
4, 504080, Note_on_c, 9, 53, 59
4, 504519, Note_on_c, 9, 44, 0
4, 504605, Note_on_c, 9, 51, 0
4, 504639, Note_on_c, 9, 53, 0
4, 505729, Note_on_c, 9, 38, 11
4, 505941, Note_on_c, 9, 44, 22
4, 506031, Note_on_c, 9, 38, 0
4, 506401, Note_on_c, 9, 44, 0
4, 506543, Note_on_c, 9, 51, 59
4, 506695, Note_on_c, 9, 51, 0
4, 506882, Note_on_c, 9, 38, 13
4, 506949, Note_on_c, 9, 51, 54
4, 506952, Note_on_c, 9, 53, 60
4, 507154, Note_on_c, 9, 38, 0
4, 507525, Note_on_c, 9, 51, 0
4, 507559, Note_on_c, 9, 53, 0
4, 507913, Note_on_c, 9, 44, 18
4, 508112, Note_on_c, 9, 44, 0
4, 508490, Note_on_c, 9, 51, 55
4, 508611, Note_on_c, 9, 51, 0
4, 508876, Note_on_c, 9, 51, 52
4, 509095, Note_on_c, 9, 51, 0
4, 509439, Note_on_c, 9, 38, 34
4, 509695, Note_on_c, 9, 38, 0
4, 509835, Note_on_c, 9, 51, 71
4, 509872, Note_on_c, 9, 38, 19
4, 510032, Note_on_c, 9, 38, 0
4, 510766, Note_on_c, 9, 38, 27
4, 510785, Note_on_c, 9, 51, 0
4, 511264, Note_on_c, 9, 38, 0
4, 511373, Note_on_c, 9, 51, 56
4, 511591, Note_on_c, 9, 51, 0
4, 511779, Note_on_c, 9, 51, 65
4, 512133, Note_on_c, 9, 51, 0
4, 512712, Note_on_c, 9, 51, 83
4, 513970, Note_on_c, 9, 51, 0
4, 514304, Note_on_c, 9, 51, 39
4, 514480, Note_on_c, 9, 51, 0
4, 514679, Note_on_c, 9, 51, 64
4, 515203, Note_on_c, 9, 51, 0
4, 516145, Note_on_c, 9, 51, 63
4, 516401, Note_on_c, 9, 51, 0
4, 517098, Note_on_c, 9, 51, 62
4, 517360, Note_on_c, 9, 51, 0
4, 517968, Note_on_c, 9, 51, 61
4, 518181, Note_on_c, 9, 51, 0
4, 518383, Note_on_c, 9, 51, 55
4, 518915, Note_on_c, 9, 51, 0
4, 519938, Note_on_c, 9, 51, 50
4, 520122, Note_on_c, 9, 51, 0
4, 520315, Note_on_c, 9, 51, 64
4, 520747, Note_on_c, 9, 51, 0
4, 521315, Note_on_c, 9, 37, 60
4, 521717, Note_on_c, 9, 37, 0
4, 521876, Note_on_c, 9, 51, 53
4, 522046, Note_on_c, 9, 51, 0
4, 522253, Note_on_c, 9, 51, 57
4, 522760, Note_on_c, 9, 51, 0
4, 523246, Note_on_c, 9, 37, 57
4, 523684, Note_on_c, 9, 37, 0
4, 523927, Note_on_c, 9, 51, 52
4, 524053, Note_on_c, 9, 51, 0
4, 524292, Note_on_c, 9, 51, 59
4, 524960, Note_on_c, 9, 51, 0
4, 525177, Note_on_c, 9, 37, 46
4, 525528, Note_on_c, 9, 37, 0
4, 525862, Note_on_c, 9, 51, 55
4, 526038, Note_on_c, 9, 51, 0
4, 526225, Note_on_c, 9, 51, 51
4, 526544, Note_on_c, 9, 51, 0
4, 526736, Note_on_c, 9, 37, 49
4, 526836, Note_on_c, 9, 37, 0
4, 527132, Note_on_c, 9, 51, 69
4, 527175, Note_on_c, 9, 53, 53
4, 527731, Note_on_c, 9, 37, 53
4, 527916, Note_on_c, 9, 37, 0
4, 528117, Note_on_c, 9, 37, 55
4, 528555, Note_on_c, 9, 37, 0
4, 529119, Note_on_c, 9, 51, 0
4, 529231, Note_on_c, 9, 53, 0
4, 529537, Note_on_c, 9, 37, 59
4, 529589, Note_on_c, 9, 51, 55
4, 529790, Note_on_c, 9, 37, 0
4, 529807, Note_on_c, 9, 51, 0
4, 530003, Note_on_c, 9, 51, 56
4, 530032, Note_on_c, 9, 53, 56
4, 530601, Note_on_c, 9, 37, 51
4, 530693, Note_on_c, 9, 37, 0
4, 531001, Note_on_c, 9, 37, 51
4, 531227, Note_on_c, 9, 51, 0
4, 531334, Note_on_c, 9, 53, 0
4, 531335, Note_on_c, 9, 37, 0
4, 531564, Note_on_c, 9, 51, 44
4, 531703, Note_on_c, 9, 51, 0
4, 531921, Note_on_c, 9, 51, 51
4, 531947, Note_on_c, 9, 53, 54
4, 532397, Note_on_c, 9, 53, 0
4, 532405, Note_on_c, 9, 51, 0
4, 532486, Note_on_c, 9, 37, 57
4, 532728, Note_on_c, 9, 37, 0
4, 532857, Note_on_c, 9, 51, 69
4, 533148, Note_on_c, 9, 51, 0
4, 533408, Note_on_c, 9, 36, 31
4, 533517, Note_on_c, 9, 36, 0
4, 533799, Note_on_c, 9, 36, 36
4, 533819, Note_on_c, 9, 51, 76
4, 534205, Note_on_c, 9, 36, 0
4, 535317, Note_on_c, 9, 51, 0
4, 535559, Note_on_c, 9, 51, 47
4, 535720, Note_on_c, 9, 51, 0
4, 535919, Note_on_c, 9, 51, 57
4, 536351, Note_on_c, 9, 37, 42
4, 536446, Note_on_c, 9, 37, 0
4, 537252, Note_on_c, 9, 51, 0
4, 537443, Note_on_c, 9, 51, 49
4, 537656, Note_on_c, 9, 51, 0
4, 537831, Note_on_c, 9, 51, 60
4, 537833, Note_on_c, 9, 36, 12
4, 537945, Note_on_c, 9, 36, 0
4, 538720, Note_on_c, 9, 36, 23
4, 539011, Note_on_c, 9, 36, 0
4, 539110, Note_on_c, 9, 51, 0
4, 539260, Note_on_c, 9, 51, 47
4, 539430, Note_on_c, 9, 51, 0
4, 539631, Note_on_c, 9, 51, 57
4, 540861, Note_on_c, 9, 51, 0
4, 541054, Note_on_c, 9, 51, 58
4, 541250, Note_on_c, 9, 51, 0
4, 541457, Note_on_c, 9, 51, 56
4, 542822, Note_on_c, 9, 51, 0
4, 543018, Note_on_c, 9, 51, 52
4, 543154, Note_on_c, 9, 51, 0
4, 543398, Note_on_c, 9, 51, 47
4, 543967, Note_on_c, 9, 38, 29
4, 544103, Note_on_c, 9, 38, 0
4, 544789, Note_on_c, 9, 51, 0
4, 545048, Note_on_c, 9, 51, 37
4, 545279, Note_on_c, 9, 51, 0
4, 545316, Note_on_c, 9, 38, 29
4, 545440, Note_on_c, 9, 51, 50
4, 545724, Note_on_c, 9, 38, 0
4, 546687, Note_on_c, 9, 51, 0
4, 546866, Note_on_c, 9, 51, 47
4, 546885, Note_on_c, 9, 38, 21
4, 546964, Note_on_c, 9, 51, 0
4, 547021, Note_on_c, 9, 38, 0
4, 547234, Note_on_c, 9, 51, 37
4, 548139, Note_on_c, 9, 38, 22
4, 548398, Note_on_c, 9, 38, 0
4, 548553, Note_on_c, 9, 51, 0
4, 548769, Note_on_c, 9, 51, 42
4, 548827, Note_on_c, 9, 38, 31
4, 548888, Note_on_c, 9, 51, 0
4, 548955, Note_on_c, 9, 38, 0
4, 549178, Note_on_c, 9, 51, 45
4, 549850, Note_on_c, 9, 36, 33
4, 550302, Note_on_c, 9, 36, 0
4, 550546, Note_on_c, 9, 51, 0
4, 550777, Note_on_c, 9, 51, 35
4, 550886, Note_on_c, 9, 51, 0
4, 551117, Note_on_c, 9, 51, 38
4, 551208, Note_on_c, 9, 36, 30
4, 551534, Note_on_c, 9, 51, 0
4, 551594, Note_on_c, 9, 36, 0
4, 552090, Note_on_c, 9, 51, 58
4, 552133, Note_on_c, 9, 53, 34
4, 553271, Note_on_c, 9, 51, 0
4, 553360, Note_on_c, 9, 53, 0
4, 553614, Note_on_c, 9, 51, 37
4, 553717, Note_on_c, 9, 51, 0
4, 554017, Note_on_c, 9, 51, 43
4, 554025, Note_on_c, 9, 53, 50
4, 555088, Note_on_c, 9, 51, 0
4, 555189, Note_on_c, 9, 53, 0
4, 555402, Note_on_c, 9, 51, 48
4, 555598, Note_on_c, 9, 37, 53
4, 555647, Note_on_c, 9, 51, 0
4, 555807, Note_on_c, 9, 37, 0
4, 556335, Note_on_c, 9, 51, 52
4, 556537, Note_on_c, 9, 51, 0
4, 556851, Note_on_c, 9, 51, 31
4, 556944, Note_on_c, 9, 37, 53
4, 557360, Note_on_c, 9, 37, 0
4, 557453, Note_on_c, 9, 51, 0
4, 558325, Note_on_c, 9, 51, 37
4, 558432, Note_on_c, 9, 37, 49
4, 558435, Note_on_c, 9, 51, 0
4, 558685, Note_on_c, 9, 37, 0
4, 558714, Note_on_c, 9, 51, 33
4, 559293, Note_on_c, 9, 51, 0
4, 559457, Note_on_c, 9, 37, 46
4, 559631, Note_on_c, 9, 37, 0
4, 560266, Note_on_c, 9, 51, 38
4, 560382, Note_on_c, 9, 51, 0
4, 560398, Note_on_c, 9, 36, 20
4, 560578, Note_on_c, 9, 36, 0
4, 560693, Note_on_c, 9, 51, 30
4, 560795, Note_on_c, 9, 37, 39
4, 560822, Note_on_c, 9, 51, 0
4, 561086, Note_on_c, 9, 37, 0
4, 561372, Note_on_c, 9, 36, 21
4, 561554, Note_on_c, 9, 36, 0
4, 561591, Note_on_c, 9, 51, 59
4, 561822, Note_on_c, 9, 51, 0
4, 562237, Note_on_c, 9, 36, 24
4, 562539, Note_on_c, 9, 36, 0
4, 562608, Note_on_c, 9, 51, 37
4, 562708, Note_on_c, 9, 36, 29
4, 562763, Note_on_c, 9, 51, 0
4, 563126, Note_on_c, 9, 36, 0
4, 563555, Note_on_c, 9, 51, 68
4, 563728, Note_on_c, 9, 36, 32
4, 563832, Note_on_c, 9, 51, 0
4, 564029, Note_on_c, 9, 36, 0
4, 564552, Note_on_c, 9, 51, 53
4, 564857, Note_on_c, 9, 51, 0
4, 565505, Note_on_c, 9, 51, 35
4, 565753, Note_on_c, 9, 51, 0
4, 566479, Note_on_c, 9, 51, 37
4, 566775, Note_on_c, 9, 51, 0
4, 567438, Note_on_c, 9, 51, 34
4, 567777, Note_on_c, 9, 51, 0
4, 568376, Note_on_c, 9, 51, 38
4, 568647, Note_on_c, 9, 51, 0
4, 568920, Note_on_c, 9, 38, 18
4, 569048, Note_on_c, 9, 38, 0
4, 569315, Note_on_c, 9, 51, 71
4, 570261, Note_on_c, 9, 38, 24
4, 570601, Note_on_c, 9, 38, 0
4, 570776, Note_on_c, 9, 51, 0
4, 570934, Note_on_c, 9, 51, 47
4, 571127, Note_on_c, 9, 51, 0
4, 571329, Note_on_c, 9, 51, 62
4, 571706, Note_on_c, 9, 51, 0
4, 571855, Note_on_c, 9, 38, 22
4, 571999, Note_on_c, 9, 38, 0
4, 572236, Note_on_c, 9, 51, 64
4, 572602, Note_on_c, 9, 51, 0
4, 573687, Note_on_c, 9, 51, 51
4, 573805, Note_on_c, 9, 51, 0
4, 574076, Note_on_c, 9, 51, 55
4, 574494, Note_on_c, 9, 51, 0
4, 575735, Note_on_c, 9, 51, 43
4, 575868, Note_on_c, 9, 51, 0
4, 576109, Note_on_c, 9, 51, 47
4, 576562, Note_on_c, 9, 51, 0
4, 577653, Note_on_c, 9, 51, 48
4, 577771, Note_on_c, 9, 51, 0
4, 578002, Note_on_c, 9, 51, 47
4, 578338, Note_on_c, 9, 51, 0
4, 578543, Note_on_c, 9, 37, 36
4, 578652, Note_on_c, 9, 37, 0
4, 579554, Note_on_c, 9, 51, 56
4, 579704, Note_on_c, 9, 51, 0
4, 579882, Note_on_c, 9, 51, 61
4, 579944, Note_on_c, 9, 37, 35
4, 580153, Note_on_c, 9, 51, 0
4, 580271, Note_on_c, 9, 37, 0
4, 580870, Note_on_c, 9, 51, 75
4, 581454, Note_on_c, 9, 36, 15
4, 581554, Note_on_c, 9, 36, 0
4, 582071, Note_on_c, 9, 51, 0
4, 582419, Note_on_c, 9, 51, 27
4, 582543, Note_on_c, 9, 51, 0
4, 582814, Note_on_c, 9, 51, 50
4, 584081, Note_on_c, 9, 51, 0
4, 584345, Note_on_c, 9, 38, 20
4, 584479, Note_on_c, 9, 38, 0
4, 584741, Note_on_c, 9, 51, 40
4, 584801, Note_on_c, 9, 53, 36
4, 585795, Note_on_c, 9, 38, 22
4, 586086, Note_on_c, 9, 38, 0
4, 586086, Note_on_c, 9, 51, 0
4, 586114, Note_on_c, 9, 53, 0
4, 586653, Note_on_c, 9, 53, 36
4, 586662, Note_on_c, 9, 51, 29
4, 587909, Note_on_c, 9, 51, 0
4, 587955, Note_on_c, 9, 53, 0
4, 588559, Note_on_c, 9, 36, 19
4, 588603, Note_on_c, 9, 51, 20
4, 588629, Note_on_c, 9, 53, 28
4, 588882, Note_on_c, 9, 36, 0
4, 589824, Note_on_c, 9, 53, 0
4, 589847, Note_on_c, 9, 51, 0
4, 590443, Note_on_c, 9, 51, 29
4, 590504, Note_on_c, 9, 53, 32
4, 591681, Note_on_c, 9, 51, 0
4, 591705, Note_on_c, 9, 53, 0
4, 592347, Note_on_c, 9, 51, 29
4, 592413, Note_on_c, 9, 53, 33
4, 592418, Note_on_c, 9, 36, 12
4, 592791, Note_on_c, 9, 36, 0
4, 593427, Note_on_c, 9, 36, 13
4, 593548, Note_on_c, 9, 51, 0
4, 593562, Note_on_c, 9, 53, 0
4, 594181, Note_on_c, 9, 36, 0
4, 594265, Note_on_c, 9, 51, 25
4, 594340, Note_on_c, 9, 53, 31
4, 595495, Note_on_c, 9, 53, 0
4, 595503, Note_on_c, 9, 51, 0
4, 595894, Note_on_c, 9, 36, 13
4, 596063, Note_on_c, 9, 36, 0
4, 596226, Note_on_c, 9, 51, 25
4, 596310, Note_on_c, 9, 53, 27
4, 597271, Note_on_c, 9, 36, 15
4, 597470, Note_on_c, 9, 53, 0
4, 597499, Note_on_c, 9, 51, 0
4, 597632, Note_on_c, 9, 36, 0
4, 598066, Note_on_c, 9, 51, 27
4, 598150, Note_on_c, 9, 53, 30
4, 599483, Note_on_c, 9, 53, 0
4, 599486, Note_on_c, 9, 51, 0
4, 600045, Note_on_c, 9, 51, 25
4, 600116, Note_on_c, 9, 36, 17
4, 600154, Note_on_c, 9, 53, 25
4, 600420, Note_on_c, 9, 36, 0
4, 601151, Note_on_c, 9, 51, 0
4, 601191, Note_on_c, 9, 53, 0
4, 601865, Note_on_c, 9, 51, 32
4, 602001, Note_on_c, 9, 53, 24
4, 602985, Note_on_c, 9, 51, 0
4, 603078, Note_on_c, 9, 53, 0
4, 603850, Note_on_c, 9, 59, 43
4, 604449, Note_on_c, 9, 59, 0
4, 605809, Note_on_c, 9, 59, 34
4, 606576, Note_on_c, 9, 59, 0
4, 607658, Note_on_c, 9, 59, 29
4, 608374, Note_on_c, 9, 59, 0
4, 609671, Note_on_c, 9, 59, 30
4, 610351, Note_on_c, 9, 59, 0
4, 611611, Note_on_c, 9, 59, 29
4, 612019, Note_on_c, 9, 59, 0
4, 613425, Note_on_c, 9, 59, 25
4, 614864, Note_on_c, 9, 59, 0
4, 615397, Note_on_c, 9, 59, 24
4, 618389, Note_on_c, 9, 59, 0
4, 619267, Note_on_c, 9, 59, 22
4, 622387, Note_on_c, 9, 59, 0
4, 623029, Note_on_c, 9, 59, 26
4, 625246, Note_on_c, 9, 59, 0
4, 625246, End_track
0, 0, End_of_file
