0, 0, Header, 1, 5, 120
1, 0, Start_track
1, 0, Title_t, "untitled"
1, 0, Copyright_t, "Copyright © 1999 by Doug McKenzie"
1, 0, Text_t, "Doug McKenzie\012"
1, 0, Time_signature, 4, 2, 24, 8
1, 0, Key_signature, 0, "major"
1, 0, Tempo, 400000
1, 0, End_track
2, 0, Start_track
2, 0, MIDI_port, 0
2, 0, Title_t, ""
2, 0, Program_c, 0, 0
2, 0, Control_c, 0, 7, 100
2, 14, Note_on_c, 0, 64, 71
2, 14, Note_on_c, 0, 60, 58
2, 15, Note_on_c, 0, 54, 62
2, 16, Note_on_c, 0, 88, 84
2, 17, Note_on_c, 0, 76, 79
2, 98, Note_on_c, 0, 88, 0
2, 104, Note_on_c, 0, 64, 0
2, 109, Note_on_c, 0, 76, 0
2, 115, Note_on_c, 0, 54, 0
2, 123, Note_on_c, 0, 60, 0
2, 133, Note_on_c, 0, 54, 20
2, 134, Note_on_c, 0, 60, 18
2, 135, Note_on_c, 0, 64, 40
2, 189, Note_on_c, 0, 60, 0
2, 192, Note_on_c, 0, 64, 0
2, 213, Note_on_c, 0, 54, 0
2, 225, Note_on_c, 0, 84, 85
2, 226, Note_on_c, 0, 72, 90
2, 243, Note_on_c, 0, 72, 0
2, 249, Note_on_c, 0, 84, 0
2, 254, Note_on_c, 0, 64, 44
2, 255, Note_on_c, 0, 57, 44
2, 259, Note_on_c, 0, 60, 44
2, 343, Note_on_c, 0, 57, 0
2, 343, Note_on_c, 0, 54, 67
2, 345, Note_on_c, 0, 60, 0
2, 348, Note_on_c, 0, 64, 0
2, 386, Note_on_c, 0, 57, 49
2, 391, Note_on_c, 0, 64, 44
2, 392, Note_on_c, 0, 60, 31
2, 427, Note_on_c, 0, 64, 0
2, 444, Note_on_c, 0, 60, 0
2, 446, Note_on_c, 0, 54, 0
2, 448, Note_on_c, 0, 57, 0
2, 459, Note_on_c, 0, 53, 76
2, 460, Note_on_c, 0, 60, 74
2, 461, Note_on_c, 0, 64, 83
2, 461, Note_on_c, 0, 57, 67
2, 461, Note_on_c, 0, 75, 91
2, 462, Note_on_c, 0, 81, 81
2, 464, Note_on_c, 0, 84, 68
2, 466, Note_on_c, 0, 88, 78
2, 471, Note_on_c, 0, 86, 51
2, 481, Note_on_c, 0, 86, 0
2, 490, Note_on_c, 0, 76, 66
2, 491, Note_on_c, 0, 75, 0
2, 518, Note_on_c, 0, 86, 3
2, 522, Control_c, 0, 64, 127
2, 562, Note_on_c, 0, 84, 0
2, 566, Note_on_c, 0, 81, 0
2, 568, Note_on_c, 0, 88, 0
2, 578, Note_on_c, 0, 86, 0
2, 588, Note_on_c, 0, 64, 0
2, 589, Note_on_c, 0, 76, 0
2, 590, Note_on_c, 0, 53, 0
2, 595, Note_on_c, 0, 57, 0
2, 598, Note_on_c, 0, 60, 0
2, 613, Control_c, 0, 64, 0
2, 617, Note_on_c, 0, 57, 70
2, 617, Note_on_c, 0, 53, 55
2, 619, Note_on_c, 0, 60, 67
2, 620, Note_on_c, 0, 64, 67
2, 620, Note_on_c, 0, 84, 82
2, 621, Note_on_c, 0, 72, 64
2, 623, Note_on_c, 0, 79, 66
2, 627, Note_on_c, 0, 74, 41
2, 635, Note_on_c, 0, 74, 0
2, 661, Note_on_c, 0, 72, 0
2, 671, Note_on_c, 0, 84, 0
2, 671, Note_on_c, 0, 79, 0
2, 675, Note_on_c, 0, 60, 0
2, 677, Note_on_c, 0, 64, 0
2, 686, Note_on_c, 0, 53, 0
2, 687, Note_on_c, 0, 57, 0
2, 743, Note_on_c, 0, 82, 79
2, 745, Note_on_c, 0, 59, 73
2, 745, Note_on_c, 0, 64, 85
2, 745, Note_on_c, 0, 53, 77
2, 745, Note_on_c, 0, 88, 71
2, 745, Note_on_c, 0, 75, 78
2, 748, Note_on_c, 0, 85, 47
2, 752, Note_on_c, 0, 86, 45
2, 760, Note_on_c, 0, 75, 0
2, 762, Note_on_c, 0, 86, 0
2, 763, Note_on_c, 0, 76, 53
2, 769, Note_on_c, 0, 82, 0
2, 772, Note_on_c, 0, 83, 59
2, 780, Note_on_c, 0, 83, 0
2, 785, Note_on_c, 0, 76, 0
2, 796, Note_on_c, 0, 85, 0
2, 799, Note_on_c, 0, 53, 0
2, 799, Note_on_c, 0, 88, 0
2, 801, Note_on_c, 0, 64, 0
2, 803, Note_on_c, 0, 59, 0
2, 857, Note_on_c, 0, 84, 81
2, 859, Note_on_c, 0, 72, 79
2, 859, Note_on_c, 0, 59, 74
2, 859, Note_on_c, 0, 53, 77
2, 859, Note_on_c, 0, 79, 70
2, 861, Note_on_c, 0, 64, 80
2, 876, Note_on_c, 0, 79, 0
2, 898, Note_on_c, 0, 72, 0
2, 908, Note_on_c, 0, 84, 0
2, 908, Note_on_c, 0, 64, 0
2, 911, Note_on_c, 0, 53, 0
2, 911, Control_c, 0, 64, 127
2, 926, Note_on_c, 0, 59, 0
2, 942, Control_c, 0, 64, 0
2, 977, Note_on_c, 0, 59, 68
2, 979, Note_on_c, 0, 55, 72
2, 981, Note_on_c, 0, 88, 88
2, 981, Note_on_c, 0, 52, 73
2, 981, Note_on_c, 0, 62, 85
2, 982, Note_on_c, 0, 76, 85
2, 982, Note_on_c, 0, 83, 81
2, 987, Control_c, 0, 64, 127
2, 1084, Note_on_c, 0, 62, 0
2, 1084, Note_on_c, 0, 88, 0
2, 1088, Note_on_c, 0, 59, 0
2, 1090, Note_on_c, 0, 83, 0
2, 1096, Note_on_c, 0, 55, 0
2, 1099, Note_on_c, 0, 76, 0
2, 1111, Note_on_c, 0, 52, 0
2, 1183, Note_on_c, 0, 46, 27
2, 1190, Note_on_c, 0, 47, 38
2, 1191, Note_on_c, 0, 49, 62
2, 1195, Note_on_c, 0, 48, 29
2, 1203, Note_on_c, 0, 48, 0
2, 1206, Note_on_c, 0, 47, 0
2, 1211, Note_on_c, 0, 46, 0
2, 1213, Control_c, 0, 64, 0
2, 1217, Note_on_c, 0, 65, 95
2, 1218, Note_on_c, 0, 60, 96
2, 1218, Note_on_c, 0, 57, 96
2, 1220, Note_on_c, 0, 50, 87
2, 1226, Note_on_c, 0, 48, 42
2, 1234, Note_on_c, 0, 48, 0
2, 1235, Note_on_c, 0, 49, 0
2, 1281, Control_c, 0, 64, 127
2, 1284, Note_on_c, 0, 65, 0
2, 1291, Control_c, 0, 64, 0
2, 1291, Note_on_c, 0, 64, 24
2, 1298, Note_on_c, 0, 57, 0
2, 1301, Note_on_c, 0, 60, 0
2, 1310, Note_on_c, 0, 64, 0
2, 1331, Note_on_c, 0, 51, 73
2, 1333, Note_on_c, 0, 66, 77
2, 1333, Note_on_c, 0, 58, 77
2, 1334, Note_on_c, 0, 61, 81
2, 1342, Note_on_c, 0, 50, 0
2, 1344, Note_on_c, 0, 57, 34
2, 1349, Control_c, 0, 64, 127
2, 1352, Note_on_c, 0, 57, 0
2, 1388, Note_on_c, 0, 58, 0
2, 1401, Note_on_c, 0, 61, 0
2, 1405, Note_on_c, 0, 66, 0
2, 1417, Control_c, 0, 64, 0
2, 1418, Note_on_c, 0, 62, 91
2, 1419, Note_on_c, 0, 67, 83
2, 1420, Note_on_c, 0, 59, 88
2, 1420, Note_on_c, 0, 52, 92
2, 1434, Note_on_c, 0, 51, 0
2, 1504, Control_c, 0, 64, 127
2, 1624, Note_on_c, 0, 62, 0
2, 1637, Note_on_c, 0, 67, 0
2, 1642, Note_on_c, 0, 59, 0
2, 1655, Note_on_c, 0, 52, 0
2, 1656, Note_on_c, 0, 51, 52
2, 1690, Control_c, 0, 64, 0
2, 1691, Note_on_c, 0, 51, 0
2, 1694, Note_on_c, 0, 67, 80
2, 1695, Note_on_c, 0, 65, 87
2, 1695, Note_on_c, 0, 60, 94
2, 1696, Note_on_c, 0, 57, 96
2, 1698, Note_on_c, 0, 55, 69
2, 1699, Note_on_c, 0, 53, 76
2, 1720, Note_on_c, 0, 53, 0
2, 1750, Note_on_c, 0, 57, 0
2, 1752, Note_on_c, 0, 60, 0
2, 1752, Note_on_c, 0, 67, 0
2, 1760, Note_on_c, 0, 65, 0
2, 1765, Note_on_c, 0, 55, 0
2, 1812, Note_on_c, 0, 65, 77
2, 1813, Note_on_c, 0, 60, 84
2, 1813, Note_on_c, 0, 51, 74
2, 1813, Note_on_c, 0, 67, 68
2, 1815, Note_on_c, 0, 61, 51
2, 1815, Note_on_c, 0, 57, 79
2, 1823, Note_on_c, 0, 61, 0
2, 1865, Note_on_c, 0, 60, 0
2, 1865, Note_on_c, 0, 57, 0
2, 1871, Note_on_c, 0, 67, 0
2, 1888, Note_on_c, 0, 65, 0
2, 1898, Note_on_c, 0, 49, 36
2, 1921, Note_on_c, 0, 51, 0
2, 1928, Note_on_c, 0, 49, 0
2, 1932, Note_on_c, 0, 52, 78
2, 1937, Note_on_c, 0, 58, 79
2, 1939, Note_on_c, 0, 62, 73
2, 1939, Note_on_c, 0, 67, 68
2, 1939, Note_on_c, 0, 64, 68
2, 1949, Control_c, 0, 64, 127
2, 1962, Note_on_c, 0, 58, 0
2, 1979, Note_on_c, 0, 64, 0
2, 1980, Note_on_c, 0, 62, 0
2, 1990, Note_on_c, 0, 67, 0
2, 2011, Control_c, 0, 64, 0
2, 2019, Note_on_c, 0, 64, 78
2, 2043, Note_on_c, 0, 64, 0
2, 2045, Note_on_c, 0, 52, 0
2, 2065, Note_on_c, 0, 64, 55
2, 2131, Note_on_c, 0, 64, 0
2, 2145, Note_on_c, 0, 64, 83
2, 2146, Note_on_c, 0, 62, 82
2, 2148, Note_on_c, 0, 58, 71
2, 2153, Note_on_c, 0, 52, 59
2, 2160, Note_on_c, 0, 52, 0
2, 2162, Note_on_c, 0, 62, 0
2, 2175, Note_on_c, 0, 58, 0
2, 2272, Note_on_c, 0, 59, 36
2, 2285, Note_on_c, 0, 59, 0
2, 2340, Note_on_c, 0, 64, 0
2, 2374, Note_on_c, 0, 55, 71
2, 2376, Note_on_c, 0, 61, 67
2, 2376, Note_on_c, 0, 65, 76
2, 2502, Note_on_c, 0, 67, 40
2, 2509, Note_on_c, 0, 65, 0
2, 2510, Note_on_c, 0, 67, 0
2, 2532, Note_on_c, 0, 69, 101
2, 2570, Note_on_c, 0, 61, 0
2, 2594, Note_on_c, 0, 69, 0
2, 2602, Note_on_c, 0, 70, 52
2, 2618, Note_on_c, 0, 69, 57
2, 2633, Note_on_c, 0, 70, 0
2, 2645, Note_on_c, 0, 69, 0
2, 2647, Note_on_c, 0, 67, 54
2, 2652, Note_on_c, 0, 55, 0
2, 2723, Note_on_c, 0, 69, 83
2, 2730, Note_on_c, 0, 67, 0
2, 2731, Note_on_c, 0, 65, 67
2, 2732, Note_on_c, 0, 61, 60
2, 2733, Note_on_c, 0, 55, 64
2, 2740, Note_on_c, 0, 65, 0
2, 2742, Note_on_c, 0, 55, 0
2, 2758, Note_on_c, 0, 69, 0
2, 2762, Note_on_c, 0, 61, 0
2, 2768, Note_on_c, 0, 70, 52
2, 2821, Note_on_c, 0, 70, 0
2, 2837, Note_on_c, 0, 72, 61
2, 2852, Note_on_c, 0, 64, 71
2, 2853, Note_on_c, 0, 54, 64
2, 2855, Note_on_c, 0, 60, 50
2, 2860, Note_on_c, 0, 72, 0
2, 2878, Note_on_c, 0, 81, 72
2, 2885, Note_on_c, 0, 69, 52
2, 2890, Note_on_c, 0, 60, 0
2, 2952, Note_on_c, 0, 81, 0
2, 2966, Note_on_c, 0, 69, 0
2, 2969, Note_on_c, 0, 64, 0
2, 2973, Note_on_c, 0, 54, 0
2, 2973, Note_on_c, 0, 60, 37
2, 2984, Note_on_c, 0, 60, 0
2, 3000, Note_on_c, 0, 81, 90
2, 3001, Note_on_c, 0, 69, 94
2, 3003, Note_on_c, 0, 60, 48
2, 3003, Note_on_c, 0, 64, 71
2, 3006, Note_on_c, 0, 54, 68
2, 3068, Note_on_c, 0, 60, 0
2, 3097, Note_on_c, 0, 81, 0
2, 3106, Note_on_c, 0, 60, 28
2, 3116, Note_on_c, 0, 69, 0
2, 3127, Note_on_c, 0, 81, 68
2, 3128, Note_on_c, 0, 69, 38
2, 3128, Note_on_c, 0, 75, 69
2, 3160, Note_on_c, 0, 60, 0
2, 3160, Note_on_c, 0, 54, 0
2, 3173, Note_on_c, 0, 64, 0
2, 3173, Note_on_c, 0, 69, 0
2, 3186, Note_on_c, 0, 75, 0
2, 3187, Note_on_c, 0, 81, 0
2, 3193, Note_on_c, 0, 76, 33
2, 3202, Note_on_c, 0, 76, 0
2, 3217, Note_on_c, 0, 54, 60
2, 3218, Note_on_c, 0, 64, 55
2, 3221, Note_on_c, 0, 60, 32
2, 3228, Note_on_c, 0, 64, 0
2, 3232, Note_on_c, 0, 60, 0
2, 3244, Note_on_c, 0, 54, 0
2, 3255, Control_c, 0, 64, 127
2, 3318, Control_c, 0, 64, 0
2, 3326, Note_on_c, 0, 60, 90
2, 3327, Note_on_c, 0, 57, 85
2, 3328, Note_on_c, 0, 53, 85
2, 3328, Note_on_c, 0, 64, 103
2, 3328, Note_on_c, 0, 87, 99
2, 3329, Note_on_c, 0, 81, 101
2, 3330, Note_on_c, 0, 93, 105
2, 3334, Note_on_c, 0, 90, 40
2, 3340, Note_on_c, 0, 91, 26
2, 3343, Note_on_c, 0, 90, 0
2, 3349, Note_on_c, 0, 91, 0
2, 3368, Note_on_c, 0, 88, 66
2, 3376, Control_c, 0, 64, 127
2, 3377, Note_on_c, 0, 87, 0
2, 3448, Note_on_c, 0, 93, 0
2, 3452, Note_on_c, 0, 53, 0
2, 3458, Note_on_c, 0, 81, 0
2, 3461, Note_on_c, 0, 88, 0
2, 3463, Note_on_c, 0, 64, 0
2, 3466, Note_on_c, 0, 57, 0
2, 3468, Note_on_c, 0, 60, 0
2, 3469, Control_c, 0, 64, 0
2, 3487, Note_on_c, 0, 64, 72
2, 3488, Note_on_c, 0, 60, 67
2, 3488, Note_on_c, 0, 57, 76
2, 3489, Note_on_c, 0, 53, 76
2, 3489, Note_on_c, 0, 92, 83
2, 3490, Note_on_c, 0, 87, 79
2, 3490, Note_on_c, 0, 80, 76
2, 3511, Control_c, 0, 64, 127
2, 3542, Note_on_c, 0, 60, 0
2, 3562, Note_on_c, 0, 53, 0
2, 3564, Note_on_c, 0, 64, 0
2, 3568, Note_on_c, 0, 92, 0
2, 3568, Note_on_c, 0, 87, 0
2, 3573, Note_on_c, 0, 80, 0
2, 3574, Note_on_c, 0, 57, 0
2, 3587, Control_c, 0, 64, 0
2, 3603, Note_on_c, 0, 64, 80
2, 3605, Note_on_c, 0, 91, 73
2, 3605, Note_on_c, 0, 59, 72
2, 3606, Note_on_c, 0, 86, 74
2, 3608, Note_on_c, 0, 79, 71
2, 3612, Note_on_c, 0, 89, 48
2, 3620, Note_on_c, 0, 53, 26
2, 3621, Note_on_c, 0, 64, 0
2, 3623, Note_on_c, 0, 91, 0
2, 3625, Note_on_c, 0, 89, 0
2, 3627, Note_on_c, 0, 86, 0
2, 3627, Control_c, 0, 64, 127
2, 3632, Note_on_c, 0, 59, 0
2, 3639, Note_on_c, 0, 53, 0
2, 3639, Note_on_c, 0, 79, 0
2, 3698, Note_on_c, 0, 45, 56
2, 3710, Note_on_c, 0, 45, 0
2, 3724, Control_c, 0, 64, 0
2, 3730, Note_on_c, 0, 47, 82
2, 3762, Control_c, 0, 64, 127
2, 3784, Note_on_c, 0, 46, 37
2, 3803, Note_on_c, 0, 46, 0
2, 3803, Control_c, 0, 64, 0
2, 3809, Note_on_c, 0, 60, 91
2, 3809, Note_on_c, 0, 55, 94
2, 3810, Note_on_c, 0, 50, 91
2, 3811, Note_on_c, 0, 47, 0
2, 3812, Note_on_c, 0, 48, 90
2, 3823, Note_on_c, 0, 59, 30
2, 3836, Note_on_c, 0, 59, 0
2, 3855, Control_c, 0, 64, 127
2, 3863, Control_c, 0, 64, 0
2, 3880, Control_c, 0, 64, 127
2, 3925, Control_c, 0, 64, 0
2, 3938, Note_on_c, 0, 48, 0
2, 3938, Note_on_c, 0, 47, 60
2, 3941, Note_on_c, 0, 50, 0
2, 3944, Note_on_c, 0, 60, 0
2, 3952, Note_on_c, 0, 55, 0
2, 3970, Note_on_c, 0, 60, 64
2, 3971, Note_on_c, 0, 55, 70
2, 3972, Note_on_c, 0, 48, 75
2, 3972, Note_on_c, 0, 50, 69
2, 3973, Note_on_c, 0, 47, 0
2, 4014, Note_on_c, 0, 50, 0
2, 4020, Control_c, 0, 64, 127
2, 4032, Note_on_c, 0, 55, 0
2, 4036, Note_on_c, 0, 60, 0
2, 4070, Note_on_c, 0, 50, 58
2, 4080, Control_c, 0, 64, 0
2, 4084, Note_on_c, 0, 48, 0
2, 4092, Note_on_c, 0, 57, 78
2, 4093, Note_on_c, 0, 50, 0
2, 4093, Note_on_c, 0, 67, 61
2, 4093, Note_on_c, 0, 62, 71
2, 4093, Note_on_c, 0, 52, 78
2, 4160, Note_on_c, 0, 67, 0
2, 4161, Note_on_c, 0, 62, 0
2, 4162, Note_on_c, 0, 57, 0
2, 4173, Note_on_c, 0, 52, 0
2, 4207, Note_on_c, 0, 52, 69
2, 4207, Note_on_c, 0, 67, 75
2, 4210, Note_on_c, 0, 62, 80
2, 4210, Note_on_c, 0, 57, 66
2, 4233, Control_c, 0, 64, 127
2, 4279, Note_on_c, 0, 67, 0
2, 4283, Note_on_c, 0, 52, 0
2, 4286, Note_on_c, 0, 62, 0
2, 4287, Note_on_c, 0, 48, 41
2, 4290, Note_on_c, 0, 57, 0
2, 4303, Control_c, 0, 64, 0
2, 4319, Note_on_c, 0, 48, 0
2, 4325, Note_on_c, 0, 65, 71
2, 4327, Note_on_c, 0, 53, 60
2, 4328, Note_on_c, 0, 60, 68
2, 4328, Note_on_c, 0, 57, 65
2, 4358, Note_on_c, 0, 57, 0
2, 4383, Note_on_c, 0, 60, 0
2, 4388, Note_on_c, 0, 65, 0
2, 4400, Note_on_c, 0, 53, 0
2, 4410, Note_on_c, 0, 41, 73
2, 4430, Note_on_c, 0, 41, 0
2, 4444, Control_c, 0, 64, 127
2, 4485, Control_c, 0, 64, 0
2, 4526, Note_on_c, 0, 53, 80
2, 4526, Note_on_c, 0, 59, 81
2, 4528, Note_on_c, 0, 64, 91
2, 4529, Note_on_c, 0, 82, 90
2, 4531, Note_on_c, 0, 76, 85
2, 4532, Note_on_c, 0, 88, 91
2, 4537, Note_on_c, 0, 57, 29
2, 4542, Note_on_c, 0, 86, 29
2, 4546, Note_on_c, 0, 57, 0
2, 4552, Note_on_c, 0, 82, 0
2, 4552, Note_on_c, 0, 83, 65
2, 4553, Note_on_c, 0, 64, 0
2, 4556, Note_on_c, 0, 85, 6
2, 4566, Note_on_c, 0, 59, 0
2, 4568, Note_on_c, 0, 53, 0
2, 4569, Note_on_c, 0, 76, 0
2, 4569, Note_on_c, 0, 85, 0
2, 4572, Note_on_c, 0, 86, 0
2, 4578, Note_on_c, 0, 83, 0
2, 4584, Note_on_c, 0, 88, 0
2, 4648, Note_on_c, 0, 74, 89
2, 4648, Note_on_c, 0, 82, 80
2, 4649, Note_on_c, 0, 86, 84
2, 4649, Note_on_c, 0, 59, 76
2, 4650, Note_on_c, 0, 53, 82
2, 4651, Note_on_c, 0, 64, 92
2, 4652, Note_on_c, 0, 80, 53
2, 4661, Note_on_c, 0, 80, 0
2, 4706, Note_on_c, 0, 83, 40
2, 4716, Note_on_c, 0, 82, 0
2, 4764, Note_on_c, 0, 64, 0
2, 4768, Note_on_c, 0, 53, 0
2, 4781, Note_on_c, 0, 86, 0
2, 4781, Note_on_c, 0, 83, 0
2, 4786, Note_on_c, 0, 74, 0
2, 4806, Note_on_c, 0, 62, 55
2, 4808, Note_on_c, 0, 84, 53
2, 4808, Note_on_c, 0, 52, 48
2, 4811, Note_on_c, 0, 55, 54
2, 4813, Note_on_c, 0, 79, 57
2, 4817, Note_on_c, 0, 72, 55
2, 4838, Note_on_c, 0, 72, 0
2, 4853, Note_on_c, 0, 55, 0
2, 4854, Note_on_c, 0, 79, 0
2, 4857, Note_on_c, 0, 84, 0
2, 4860, Note_on_c, 0, 52, 0
2, 4860, Note_on_c, 0, 62, 0
2, 4866, Note_on_c, 0, 59, 0
2, 4928, Note_on_c, 0, 59, 50
2, 4928, Note_on_c, 0, 83, 68
2, 4928, Note_on_c, 0, 71, 66
2, 4929, Note_on_c, 0, 62, 68
2, 4931, Note_on_c, 0, 55, 46
2, 4931, Note_on_c, 0, 52, 50
2, 4972, Note_on_c, 0, 55, 0
2, 4976, Note_on_c, 0, 52, 0
2, 4977, Note_on_c, 0, 71, 0
2, 4977, Note_on_c, 0, 62, 0
2, 4985, Note_on_c, 0, 59, 0
2, 4988, Note_on_c, 0, 83, 0
2, 5047, Note_on_c, 0, 62, 77
2, 5048, Note_on_c, 0, 59, 58
2, 5049, Note_on_c, 0, 84, 82
2, 5050, Note_on_c, 0, 72, 80
2, 5050, Note_on_c, 0, 55, 64
2, 5082, Note_on_c, 0, 84, 0
2, 5097, Note_on_c, 0, 72, 0
2, 5105, Note_on_c, 0, 62, 0
2, 5108, Note_on_c, 0, 55, 0
2, 5119, Note_on_c, 0, 59, 0
2, 5128, Note_on_c, 0, 52, 79
2, 5152, Note_on_c, 0, 52, 0
2, 5256, Note_on_c, 0, 64, 60
2, 5257, Note_on_c, 0, 65, 78
2, 5258, Note_on_c, 0, 62, 66
2, 5294, Note_on_c, 0, 65, 0
2, 5343, Note_on_c, 0, 64, 0
2, 5356, Note_on_c, 0, 64, 25
2, 5368, Note_on_c, 0, 69, 83
2, 5376, Note_on_c, 0, 61, 15
2, 5396, Note_on_c, 0, 64, 0
2, 5401, Note_on_c, 0, 69, 0
2, 5408, Note_on_c, 0, 62, 0
2, 5411, Note_on_c, 0, 61, 0
2, 5420, Note_on_c, 0, 74, 51
2, 5471, Note_on_c, 0, 74, 0
2, 5484, Note_on_c, 0, 62, 56
2, 5486, Note_on_c, 0, 67, 81
2, 5487, Note_on_c, 0, 77, 91
2, 5488, Note_on_c, 0, 56, 71
2, 5527, Note_on_c, 0, 77, 0
2, 5546, Note_on_c, 0, 76, 65
2, 5576, Note_on_c, 0, 67, 0
2, 5597, Note_on_c, 0, 76, 0
2, 5607, Note_on_c, 0, 74, 85
2, 5616, Note_on_c, 0, 62, 0
2, 5645, Note_on_c, 0, 74, 0
2, 5659, Note_on_c, 0, 72, 53
2, 5708, Note_on_c, 0, 72, 0
2, 5710, Note_on_c, 0, 56, 0
2, 5721, Note_on_c, 0, 71, 62
2, 5750, Note_on_c, 0, 60, 41
2, 5750, Note_on_c, 0, 57, 24
2, 5753, Note_on_c, 0, 64, 38
2, 5754, Note_on_c, 0, 71, 0
2, 5763, Note_on_c, 0, 70, 36
2, 5772, Note_on_c, 0, 70, 0
2, 5776, Note_on_c, 0, 68, 52
2, 5829, Note_on_c, 0, 60, 0
2, 5838, Note_on_c, 0, 68, 0
2, 5842, Note_on_c, 0, 60, 27
2, 5846, Note_on_c, 0, 70, 56
2, 5858, Note_on_c, 0, 71, 44
2, 5865, Note_on_c, 0, 70, 0
2, 5875, Note_on_c, 0, 71, 0
2, 5884, Note_on_c, 0, 64, 0
2, 5893, Note_on_c, 0, 72, 90
2, 5962, Note_on_c, 0, 72, 0
2, 5985, Note_on_c, 0, 57, 0
2, 6008, Note_on_c, 0, 64, 55
2, 6017, Note_on_c, 0, 71, 60
2, 6018, Note_on_c, 0, 64, 0
2, 6083, Note_on_c, 0, 71, 0
2, 6088, Note_on_c, 0, 55, 78
2, 6124, Control_c, 0, 64, 127
2, 6181, Note_on_c, 0, 55, 0
2, 6233, Control_c, 0, 64, 0
2, 6252, Note_on_c, 0, 54, 71
2, 6293, Control_c, 0, 64, 127
2, 6313, Note_on_c, 0, 60, 0
2, 6332, Control_c, 0, 64, 0
2, 6339, Note_on_c, 0, 54, 0
2, 6370, Note_on_c, 0, 66, 42
2, 6386, Control_c, 0, 64, 127
2, 6404, Note_on_c, 0, 66, 0
2, 6445, Note_on_c, 0, 71, 74
2, 6445, Note_on_c, 0, 63, 79
2, 6448, Note_on_c, 0, 66, 69
2, 6449, Note_on_c, 0, 57, 73
2, 6454, Note_on_c, 0, 47, 40
2, 6456, Control_c, 0, 64, 0
2, 6457, Note_on_c, 0, 60, 28
2, 6460, Note_on_c, 0, 57, 0
2, 6465, Note_on_c, 0, 60, 0
2, 6479, Note_on_c, 0, 47, 0
2, 6503, Control_c, 0, 64, 127
2, 6510, Note_on_c, 0, 60, 2
2, 6552, Note_on_c, 0, 71, 0
2, 6562, Note_on_c, 0, 60, 0
2, 6577, Note_on_c, 0, 63, 0
2, 6581, Note_on_c, 0, 66, 0
2, 6589, Control_c, 0, 64, 0
2, 6603, Note_on_c, 0, 69, 55
2, 6604, Note_on_c, 0, 63, 53
2, 6605, Note_on_c, 0, 66, 51
2, 6613, Note_on_c, 0, 59, 33
2, 6629, Note_on_c, 0, 59, 0
2, 6639, Control_c, 0, 64, 127
2, 6680, Note_on_c, 0, 69, 0
2, 6690, Note_on_c, 0, 63, 0
2, 6698, Note_on_c, 0, 66, 0
2, 6713, Control_c, 0, 64, 0
2, 6721, Note_on_c, 0, 68, 65
2, 6724, Note_on_c, 0, 59, 64
2, 6734, Note_on_c, 0, 64, 30
2, 6851, Control_c, 0, 64, 127
2, 6900, Note_on_c, 0, 64, 0
2, 6914, Note_on_c, 0, 59, 0
2, 6952, Note_on_c, 0, 68, 0
2, 6957, Control_c, 0, 64, 0
2, 6961, Note_on_c, 0, 57, 68
2, 6963, Note_on_c, 0, 61, 64
2, 6964, Note_on_c, 0, 64, 42
2, 7007, Control_c, 0, 64, 127
2, 7044, Control_c, 0, 64, 0
2, 7093, Control_c, 0, 64, 127
2, 7134, Note_on_c, 0, 57, 0
2, 7174, Note_on_c, 0, 61, 0
2, 7181, Note_on_c, 0, 64, 0
2, 7200, Control_c, 0, 64, 0
2, 7227, Control_c, 0, 64, 127
2, 7285, Control_c, 0, 64, 0
2, 7286, Note_on_c, 0, 61, 71
2, 7289, Note_on_c, 0, 57, 58
2, 7290, Note_on_c, 0, 68, 54
2, 7297, Note_on_c, 0, 57, 0
2, 7298, Note_on_c, 0, 68, 0
2, 7298, Note_on_c, 0, 61, 0
2, 7338, Control_c, 0, 64, 127
2, 7358, Note_on_c, 0, 54, 37
2, 7379, Note_on_c, 0, 54, 0
2, 7385, Control_c, 0, 64, 0
2, 7397, Note_on_c, 0, 55, 82
2, 7401, Note_on_c, 0, 61, 74
2, 7402, Note_on_c, 0, 65, 83
2, 7402, Note_on_c, 0, 72, 95
2, 7403, Note_on_c, 0, 84, 91
2, 7407, Note_on_c, 0, 80, 51
2, 7416, Note_on_c, 0, 80, 0
2, 7424, Note_on_c, 0, 65, 0
2, 7425, Control_c, 0, 64, 127
2, 7431, Note_on_c, 0, 72, 0
2, 7444, Note_on_c, 0, 55, 0
2, 7446, Note_on_c, 0, 84, 0
2, 7447, Note_on_c, 0, 61, 0
2, 7519, Note_on_c, 0, 55, 90
2, 7519, Note_on_c, 0, 61, 81
2, 7522, Note_on_c, 0, 65, 91
2, 7522, Note_on_c, 0, 89, 90
2, 7522, Note_on_c, 0, 77, 92
2, 7526, Control_c, 0, 64, 0
2, 7545, Note_on_c, 0, 77, 0
2, 7551, Control_c, 0, 64, 127
2, 7553, Note_on_c, 0, 65, 0
2, 7554, Note_on_c, 0, 89, 0
2, 7565, Note_on_c, 0, 55, 0
2, 7587, Note_on_c, 0, 92, 31
2, 7591, Note_on_c, 0, 61, 0
2, 7601, Note_on_c, 0, 92, 0
2, 7613, Control_c, 0, 64, 0
2, 7622, Note_on_c, 0, 55, 82
2, 7623, Note_on_c, 0, 61, 82
2, 7623, Note_on_c, 0, 93, 87
2, 7624, Note_on_c, 0, 81, 87
2, 7626, Note_on_c, 0, 65, 83
2, 7655, Note_on_c, 0, 81, 0
2, 7667, Note_on_c, 0, 93, 0
2, 7667, Note_on_c, 0, 65, 0
2, 7670, Note_on_c, 0, 55, 0
2, 7695, Note_on_c, 0, 61, 0
2, 7708, Note_on_c, 0, 87, 79
2, 7709, Note_on_c, 0, 99, 84
2, 7710, Note_on_c, 0, 64, 84
2, 7711, Note_on_c, 0, 92, 45
2, 7711, Note_on_c, 0, 60, 79
2, 7712, Note_on_c, 0, 54, 88
2, 7719, Note_on_c, 0, 92, 0
2, 7756, Note_on_c, 0, 87, 0
2, 7760, Note_on_c, 0, 88, 46
2, 7772, Note_on_c, 0, 88, 0
2, 7772, Note_on_c, 0, 93, 28
2, 7774, Note_on_c, 0, 99, 0
2, 7777, Note_on_c, 0, 54, 0
2, 7781, Note_on_c, 0, 93, 0
2, 7782, Note_on_c, 0, 64, 0
2, 7793, Note_on_c, 0, 60, 0
2, 7803, Note_on_c, 0, 64, 71
2, 7805, Note_on_c, 0, 54, 68
2, 7805, Note_on_c, 0, 60, 37
2, 7808, Note_on_c, 0, 93, 66
2, 7810, Note_on_c, 0, 81, 66
2, 7848, Note_on_c, 0, 81, 0
2, 7860, Note_on_c, 0, 93, 0
2, 7865, Note_on_c, 0, 54, 0
2, 7868, Note_on_c, 0, 64, 0
2, 7878, Note_on_c, 0, 60, 0
2, 7888, Note_on_c, 0, 84, 81
2, 7888, Note_on_c, 0, 96, 82
2, 7889, Note_on_c, 0, 64, 69
2, 7891, Note_on_c, 0, 54, 68
2, 7892, Note_on_c, 0, 60, 54
2, 8012, Note_on_c, 0, 96, 0
2, 8029, Note_on_c, 0, 84, 0
2, 8106, Note_on_c, 0, 64, 0
2, 8121, Note_on_c, 0, 60, 0
2, 8124, Note_on_c, 0, 54, 0
2, 8130, Note_on_c, 0, 60, 39
2, 8132, Note_on_c, 0, 64, 78
2, 8133, Note_on_c, 0, 53, 77
2, 8133, Note_on_c, 0, 57, 81
2, 8257, Note_on_c, 0, 89, 110
2, 8264, Note_on_c, 0, 93, 50
2, 8273, Note_on_c, 0, 91, 25
2, 8279, Note_on_c, 0, 93, 0
2, 8299, Note_on_c, 0, 91, 0
2, 8315, Note_on_c, 0, 89, 0
2, 8327, Note_on_c, 0, 64, 0
2, 8329, Note_on_c, 0, 60, 0
2, 8353, Note_on_c, 0, 53, 0
2, 8363, Note_on_c, 0, 57, 0
2, 8376, Note_on_c, 0, 87, 97
2, 8376, Note_on_c, 0, 91, 94
2, 8380, Note_on_c, 0, 59, 71
2, 8380, Note_on_c, 0, 64, 72
2, 8382, Note_on_c, 0, 53, 50
2, 8437, Note_on_c, 0, 87, 0
2, 8449, Note_on_c, 0, 89, 50
2, 8453, Note_on_c, 0, 59, 0
2, 8459, Note_on_c, 0, 88, 61
2, 8476, Note_on_c, 0, 91, 0
2, 8486, Note_on_c, 0, 84, 58
2, 8492, Note_on_c, 0, 89, 0
2, 8493, Note_on_c, 0, 88, 0
2, 8506, Note_on_c, 0, 64, 0
2, 8510, Note_on_c, 0, 84, 0
2, 8510, Note_on_c, 0, 59, 53
2, 8515, Note_on_c, 0, 79, 71
2, 8532, Note_on_c, 0, 79, 0
2, 8549, Note_on_c, 0, 77, 67
2, 8549, Note_on_c, 0, 64, 58
2, 8552, Note_on_c, 0, 83, 45
2, 8557, Note_on_c, 0, 84, 25
2, 8567, Note_on_c, 0, 84, 0
2, 8594, Note_on_c, 0, 83, 0
2, 8604, Note_on_c, 0, 64, 0
2, 8611, Note_on_c, 0, 53, 0
2, 8621, Note_on_c, 0, 77, 0
2, 8629, Note_on_c, 0, 75, 79
2, 8642, Note_on_c, 0, 62, 47
2, 8645, Note_on_c, 0, 52, 35
2, 8656, Note_on_c, 0, 55, 36
2, 8667, Note_on_c, 0, 75, 0
2, 8673, Note_on_c, 0, 76, 43
2, 8707, Note_on_c, 0, 59, 0
2, 8718, Note_on_c, 0, 76, 0
2, 8738, Note_on_c, 0, 76, 75
2, 8746, Note_on_c, 0, 59, 36
2, 8770, Note_on_c, 0, 76, 0
2, 8782, Note_on_c, 0, 62, 0
2, 8788, Note_on_c, 0, 67, 50
2, 8806, Note_on_c, 0, 59, 0
2, 8840, Note_on_c, 0, 67, 0
2, 8856, Note_on_c, 0, 59, 40
2, 8860, Note_on_c, 0, 67, 65
2, 8875, Note_on_c, 0, 59, 0
2, 8885, Note_on_c, 0, 67, 0
2, 8886, Note_on_c, 0, 55, 0
2, 8897, Note_on_c, 0, 52, 0
2, 8906, Note_on_c, 0, 65, 71
2, 8958, Note_on_c, 0, 65, 0
2, 8978, Note_on_c, 0, 65, 74
2, 8984, Note_on_c, 0, 57, 43
2, 9005, Note_on_c, 0, 57, 0
2, 9007, Note_on_c, 0, 65, 0
2, 9018, Note_on_c, 0, 62, 55
2, 9064, Note_on_c, 0, 62, 0
2, 9091, Note_on_c, 0, 62, 49
2, 9095, Note_on_c, 0, 57, 50
2, 9105, Note_on_c, 0, 57, 0
2, 9121, Note_on_c, 0, 62, 0
2, 9134, Note_on_c, 0, 64, 58
2, 9198, Note_on_c, 0, 64, 0
2, 9212, Note_on_c, 0, 59, 40
2, 9213, Note_on_c, 0, 62, 51
2, 9214, Note_on_c, 0, 67, 52
2, 9218, Note_on_c, 0, 55, 35
2, 9222, Note_on_c, 0, 62, 0
2, 9228, Note_on_c, 0, 59, 0
2, 9230, Note_on_c, 0, 55, 0
2, 9235, Note_on_c, 0, 67, 0
2, 9246, Note_on_c, 0, 62, 57
2, 9248, Note_on_c, 0, 52, 27
2, 9251, Note_on_c, 0, 69, 77
2, 9251, Note_on_c, 0, 59, 45
2, 9254, Control_c, 0, 64, 127
2, 9254, Note_on_c, 0, 55, 50
2, 9275, Note_on_c, 0, 62, 0
2, 9276, Note_on_c, 0, 59, 0
2, 9277, Note_on_c, 0, 55, 0
2, 9278, Note_on_c, 0, 52, 0
2, 9327, Note_on_c, 0, 69, 0
2, 9333, Note_on_c, 0, 67, 75
2, 9333, Control_c, 0, 64, 0
2, 9336, Note_on_c, 0, 54, 51
2, 9336, Note_on_c, 0, 58, 49
2, 9337, Note_on_c, 0, 64, 78
2, 9340, Note_on_c, 0, 53, 39
2, 9343, Note_on_c, 0, 55, 36
2, 9343, Note_on_c, 0, 60, 54
2, 9348, Note_on_c, 0, 56, 29
2, 9351, Note_on_c, 0, 54, 0
2, 9356, Note_on_c, 0, 56, 0
2, 9357, Note_on_c, 0, 64, 0
2, 9361, Note_on_c, 0, 67, 0
2, 9362, Note_on_c, 0, 53, 0
2, 9367, Note_on_c, 0, 55, 0
2, 9369, Note_on_c, 0, 60, 0
2, 9383, Note_on_c, 0, 58, 0
2, 9391, Control_c, 0, 64, 127
2, 9447, Control_c, 0, 64, 0
2, 9456, Note_on_c, 0, 85, 87
2, 9456, Note_on_c, 0, 53, 80
2, 9456, Note_on_c, 0, 91, 84
2, 9457, Note_on_c, 0, 59, 80
2, 9458, Note_on_c, 0, 79, 78
2, 9458, Note_on_c, 0, 64, 94
2, 9462, Note_on_c, 0, 89, 57
2, 9471, Note_on_c, 0, 89, 0
2, 9492, Note_on_c, 0, 85, 0
2, 9500, Note_on_c, 0, 86, 32
2, 9504, Control_c, 0, 64, 127
2, 9566, Note_on_c, 0, 59, 0
2, 9570, Note_on_c, 0, 64, 0
2, 9578, Note_on_c, 0, 79, 0
2, 9579, Note_on_c, 0, 53, 0
2, 9580, Note_on_c, 0, 86, 0
2, 9586, Note_on_c, 0, 91, 0
2, 9610, Control_c, 0, 64, 0
2, 9611, Note_on_c, 0, 56, 51
2, 9620, Note_on_c, 0, 56, 0
2, 9620, Note_on_c, 0, 62, 71
2, 9622, Note_on_c, 0, 51, 63
2, 9624, Note_on_c, 0, 52, 64
2, 9626, Note_on_c, 0, 91, 65
2, 9627, Note_on_c, 0, 79, 68
2, 9629, Note_on_c, 0, 51, 0
2, 9630, Note_on_c, 0, 86, 60
2, 9633, Note_on_c, 0, 55, 45
2, 9648, Note_on_c, 0, 55, 0
2, 9654, Note_on_c, 0, 91, 0
2, 9656, Note_on_c, 0, 86, 0
2, 9668, Note_on_c, 0, 79, 0
2, 9675, Note_on_c, 0, 52, 0
2, 9675, Note_on_c, 0, 62, 0
2, 9809, Note_on_c, 0, 62, 77
2, 9810, Note_on_c, 0, 58, 65
2, 9819, Note_on_c, 0, 52, 32
2, 9827, Note_on_c, 0, 62, 0
2, 9830, Note_on_c, 0, 52, 0
2, 9834, Note_on_c, 0, 58, 0
2, 9932, Note_on_c, 0, 67, 42
2, 9941, Note_on_c, 0, 67, 0
2, 9966, Note_on_c, 0, 69, 103
2, 10026, Note_on_c, 0, 69, 0
2, 10038, Note_on_c, 0, 70, 56
2, 10055, Note_on_c, 0, 69, 64
2, 10064, Note_on_c, 0, 61, 43
2, 10070, Note_on_c, 0, 70, 0
2, 10085, Note_on_c, 0, 61, 0
2, 10086, Note_on_c, 0, 69, 0
2, 10088, Note_on_c, 0, 67, 43
2, 10148, Note_on_c, 0, 67, 0
2, 10165, Note_on_c, 0, 65, 74
2, 10169, Note_on_c, 0, 61, 52
2, 10178, Note_on_c, 0, 55, 37
2, 10187, Note_on_c, 0, 61, 0
2, 10190, Note_on_c, 0, 55, 0
2, 10202, Note_on_c, 0, 65, 0
2, 10218, Note_on_c, 0, 64, 31
2, 10278, Note_on_c, 0, 64, 0
2, 10285, Note_on_c, 0, 62, 68
2, 10298, Note_on_c, 0, 45, 39
2, 10301, Note_on_c, 0, 55, 40
2, 10318, Note_on_c, 0, 62, 0
2, 10322, Note_on_c, 0, 55, 0
2, 10338, Note_on_c, 0, 61, 39
2, 10404, Note_on_c, 0, 49, 43
2, 10408, Note_on_c, 0, 45, 0
2, 10415, Note_on_c, 0, 61, 0
2, 10430, Note_on_c, 0, 49, 0
2, 10441, Note_on_c, 0, 51, 56
2, 10443, Note_on_c, 0, 64, 66
2, 10488, Note_on_c, 0, 64, 0
2, 10520, Note_on_c, 0, 49, 38
2, 10539, Note_on_c, 0, 51, 0
2, 10546, Note_on_c, 0, 49, 0
2, 10557, Note_on_c, 0, 50, 58
2, 10560, Note_on_c, 0, 64, 70
2, 10562, Note_on_c, 0, 54, 61
2, 10566, Note_on_c, 0, 60, 50
2, 10587, Control_c, 0, 64, 127
2, 10604, Note_on_c, 0, 54, 0
2, 10622, Note_on_c, 0, 60, 0
2, 10634, Note_on_c, 0, 64, 0
2, 10640, Note_on_c, 0, 38, 71
2, 10643, Control_c, 0, 64, 0
2, 10658, Note_on_c, 0, 50, 0
2, 10660, Note_on_c, 0, 38, 0
2, 10668, Control_c, 0, 64, 127
2, 10765, Note_on_c, 0, 74, 72
2, 10765, Note_on_c, 0, 81, 79
2, 10766, Note_on_c, 0, 69, 79
2, 10766, Note_on_c, 0, 60, 70
2, 10767, Note_on_c, 0, 64, 81
2, 10768, Note_on_c, 0, 54, 69
2, 10768, Note_on_c, 0, 57, 61
2, 10769, Note_on_c, 0, 77, 50
2, 10775, Note_on_c, 0, 69, 0
2, 10778, Control_c, 0, 64, 0
2, 10779, Note_on_c, 0, 77, 0
2, 10782, Note_on_c, 0, 74, 0
2, 10787, Note_on_c, 0, 64, 0
2, 10791, Note_on_c, 0, 81, 0
2, 10796, Note_on_c, 0, 54, 0
2, 10806, Note_on_c, 0, 57, 0
2, 10809, Note_on_c, 0, 60, 0
2, 10819, Control_c, 0, 64, 127
2, 10826, Note_on_c, 0, 54, 61
2, 10828, Note_on_c, 0, 64, 62
2, 10829, Note_on_c, 0, 86, 66
2, 10829, Note_on_c, 0, 79, 48
2, 10830, Note_on_c, 0, 57, 44
2, 10831, Note_on_c, 0, 74, 58
2, 10832, Note_on_c, 0, 60, 58
2, 10840, Note_on_c, 0, 83, 24
2, 10841, Note_on_c, 0, 64, 0
2, 10853, Note_on_c, 0, 74, 0
2, 10855, Note_on_c, 0, 79, 0
2, 10857, Note_on_c, 0, 83, 0
2, 10865, Note_on_c, 0, 86, 0
2, 10865, Note_on_c, 0, 54, 0
2, 10870, Note_on_c, 0, 60, 0
2, 10870, Note_on_c, 0, 57, 0
2, 10899, Control_c, 0, 64, 0
2, 10903, Note_on_c, 0, 77, 75
2, 10903, Note_on_c, 0, 54, 77
2, 10903, Note_on_c, 0, 83, 74
2, 10904, Note_on_c, 0, 89, 77
2, 10905, Note_on_c, 0, 64, 78
2, 10907, Note_on_c, 0, 86, 53
2, 10907, Note_on_c, 0, 60, 62
2, 10910, Note_on_c, 0, 57, 55
2, 10915, Note_on_c, 0, 86, 0
2, 10920, Note_on_c, 0, 77, 0
2, 10922, Note_on_c, 0, 83, 0
2, 10925, Note_on_c, 0, 64, 0
2, 10928, Note_on_c, 0, 54, 0
2, 10932, Note_on_c, 0, 60, 0
2, 10932, Control_c, 0, 64, 127
2, 10934, Note_on_c, 0, 89, 0
2, 10943, Note_on_c, 0, 57, 0
2, 10985, Control_c, 0, 64, 0
2, 11010, Note_on_c, 0, 60, 83
2, 11011, Note_on_c, 0, 53, 79
2, 11012, Note_on_c, 0, 87, 91
2, 11012, Note_on_c, 0, 57, 73
2, 11013, Note_on_c, 0, 64, 95
2, 11013, Note_on_c, 0, 93, 90
2, 11013, Note_on_c, 0, 81, 87
2, 11017, Note_on_c, 0, 90, 49
2, 11017, Note_on_c, 0, 56, 48
2, 11024, Note_on_c, 0, 90, 0
2, 11025, Note_on_c, 0, 56, 0
2, 11045, Note_on_c, 0, 87, 0
2, 11050, Note_on_c, 0, 88, 51
2, 11053, Note_on_c, 0, 64, 0
2, 11060, Note_on_c, 0, 88, 0
2, 11064, Note_on_c, 0, 81, 0
2, 11067, Note_on_c, 0, 53, 0
2, 11068, Note_on_c, 0, 60, 0
2, 11068, Note_on_c, 0, 57, 0
2, 11069, Note_on_c, 0, 93, 0
2, 11134, Note_on_c, 0, 60, 80
2, 11137, Note_on_c, 0, 57, 74
2, 11137, Note_on_c, 0, 64, 92
2, 11137, Note_on_c, 0, 89, 80
2, 11137, Note_on_c, 0, 84, 80
2, 11138, Note_on_c, 0, 53, 76
2, 11138, Note_on_c, 0, 77, 74
2, 11248, Note_on_c, 0, 60, 0
2, 11251, Note_on_c, 0, 77, 0
2, 11258, Note_on_c, 0, 84, 0
2, 11264, Note_on_c, 0, 64, 0
2, 11265, Note_on_c, 0, 53, 0
2, 11267, Note_on_c, 0, 89, 0
2, 11271, Note_on_c, 0, 57, 0
2, 11288, Note_on_c, 0, 64, 71
2, 11289, Note_on_c, 0, 53, 55
2, 11289, Note_on_c, 0, 59, 72
2, 11293, Note_on_c, 0, 91, 77
2, 11293, Note_on_c, 0, 85, 74
2, 11295, Note_on_c, 0, 79, 63
2, 11327, Note_on_c, 0, 85, 0
2, 11334, Note_on_c, 0, 86, 31
2, 11344, Note_on_c, 0, 86, 0
2, 11346, Note_on_c, 0, 91, 0
2, 11350, Note_on_c, 0, 79, 0
2, 11353, Note_on_c, 0, 64, 0
2, 11355, Note_on_c, 0, 59, 0
2, 11358, Note_on_c, 0, 53, 0
2, 11409, Note_on_c, 0, 59, 67
2, 11410, Note_on_c, 0, 87, 75
2, 11410, Note_on_c, 0, 53, 71
2, 11411, Note_on_c, 0, 82, 64
2, 11412, Note_on_c, 0, 64, 75
2, 11412, Note_on_c, 0, 75, 73
2, 11449, Note_on_c, 0, 75, 0
2, 11467, Note_on_c, 0, 87, 0
2, 11470, Note_on_c, 0, 59, 0
2, 11472, Note_on_c, 0, 64, 0
2, 11482, Note_on_c, 0, 82, 0
2, 11493, Note_on_c, 0, 53, 0
2, 11523, Note_on_c, 0, 84, 65
2, 11526, Note_on_c, 0, 78, 61
2, 11526, Note_on_c, 0, 72, 51
2, 11528, Note_on_c, 0, 62, 71
2, 11530, Note_on_c, 0, 52, 67
2, 11530, Note_on_c, 0, 57, 66
2, 11579, Note_on_c, 0, 78, 0
2, 11591, Note_on_c, 0, 72, 0
2, 11593, Note_on_c, 0, 84, 0
2, 11595, Note_on_c, 0, 52, 0
2, 11598, Note_on_c, 0, 62, 0
2, 11601, Note_on_c, 0, 57, 0
2, 11648, Note_on_c, 0, 78, 74
2, 11650, Note_on_c, 0, 84, 76
2, 11651, Note_on_c, 0, 72, 71
2, 11651, Note_on_c, 0, 62, 78
2, 11651, Note_on_c, 0, 57, 71
2, 11652, Note_on_c, 0, 52, 74
2, 11668, Note_on_c, 0, 62, 0
2, 11682, Control_c, 0, 64, 127
2, 11683, Note_on_c, 0, 57, 0
2, 11686, Note_on_c, 0, 78, 0
2, 11691, Note_on_c, 0, 79, 50
2, 11699, Note_on_c, 0, 52, 0
2, 11700, Note_on_c, 0, 84, 0
2, 11701, Note_on_c, 0, 79, 0
2, 11714, Note_on_c, 0, 72, 0
2, 11743, Control_c, 0, 64, 0
2, 11793, Control_c, 0, 64, 127
2, 11860, Note_on_c, 0, 67, 75
2, 11860, Note_on_c, 0, 52, 76
2, 11861, Note_on_c, 0, 57, 83
2, 11861, Note_on_c, 0, 62, 76
2, 11865, Note_on_c, 0, 51, 34
2, 11875, Note_on_c, 0, 51, 0
2, 11879, Note_on_c, 0, 57, 0
2, 11880, Control_c, 0, 64, 0
2, 11885, Note_on_c, 0, 62, 0
2, 11892, Note_on_c, 0, 67, 0
2, 11904, Note_on_c, 0, 51, 52
2, 11915, Note_on_c, 0, 52, 0
2, 11938, Control_c, 0, 64, 127
2, 11996, Note_on_c, 0, 51, 0
2, 11996, Note_on_c, 0, 52, 66
2, 12003, Control_c, 0, 64, 0
2, 12025, Note_on_c, 0, 69, 65
2, 12025, Note_on_c, 0, 53, 76
2, 12027, Note_on_c, 0, 64, 75
2, 12028, Note_on_c, 0, 52, 0
2, 12028, Note_on_c, 0, 60, 71
2, 12119, Note_on_c, 0, 51, 35
2, 12121, Note_on_c, 0, 53, 0
2, 12133, Note_on_c, 0, 53, 49
2, 12139, Control_c, 0, 64, 127
2, 12141, Note_on_c, 0, 60, 0
2, 12152, Note_on_c, 0, 51, 0
2, 12168, Note_on_c, 0, 69, 0
2, 12170, Note_on_c, 0, 64, 0
2, 12218, Note_on_c, 0, 54, 90
2, 12219, Note_on_c, 0, 53, 0
2, 12221, Note_on_c, 0, 66, 79
2, 12221, Note_on_c, 0, 69, 85
2, 12221, Note_on_c, 0, 63, 86
2, 12221, Control_c, 0, 64, 0
2, 12223, Note_on_c, 0, 60, 90
2, 12282, Control_c, 0, 64, 127
2, 12335, Note_on_c, 0, 51, 40
2, 12336, Note_on_c, 0, 54, 0
2, 12337, Note_on_c, 0, 60, 0
2, 12345, Note_on_c, 0, 69, 0
2, 12345, Control_c, 0, 64, 0
2, 12347, Note_on_c, 0, 63, 0
2, 12352, Note_on_c, 0, 66, 0
2, 12372, Note_on_c, 0, 54, 74
2, 12376, Note_on_c, 0, 63, 62
2, 12377, Note_on_c, 0, 69, 66
2, 12378, Note_on_c, 0, 66, 44
2, 12378, Note_on_c, 0, 60, 68
2, 12382, Note_on_c, 0, 51, 0
2, 12384, Control_c, 0, 64, 127
2, 12421, Note_on_c, 0, 60, 0
2, 12435, Note_on_c, 0, 69, 0
2, 12438, Note_on_c, 0, 66, 0
2, 12442, Note_on_c, 0, 63, 0
2, 12458, Control_c, 0, 64, 0
2, 12458, Note_on_c, 0, 67, 68
2, 12460, Note_on_c, 0, 62, 80
2, 12460, Note_on_c, 0, 55, 81
2, 12464, Note_on_c, 0, 54, 0
2, 12464, Note_on_c, 0, 57, 66
2, 12485, Note_on_c, 0, 57, 0
2, 12493, Control_c, 0, 64, 127
2, 12506, Note_on_c, 0, 62, 0
2, 12528, Note_on_c, 0, 67, 0
2, 12560, Control_c, 0, 64, 0
2, 12573, Note_on_c, 0, 54, 56
2, 12580, Note_on_c, 0, 51, 33
2, 12590, Note_on_c, 0, 54, 0
2, 12592, Note_on_c, 0, 55, 0
2, 12595, Note_on_c, 0, 51, 0
2, 12612, Note_on_c, 0, 83, 74
2, 12676, Note_on_c, 0, 83, 0
2, 12692, Note_on_c, 0, 62, 39
2, 12694, Note_on_c, 0, 57, 66
2, 12694, Note_on_c, 0, 86, 89
2, 12695, Note_on_c, 0, 63, 64
2, 12698, Note_on_c, 0, 67, 71
2, 12732, Note_on_c, 0, 86, 0
2, 12757, Note_on_c, 0, 83, 62
2, 12791, Note_on_c, 0, 83, 0
2, 12816, Note_on_c, 0, 79, 71
2, 12831, Note_on_c, 0, 67, 0
2, 12845, Note_on_c, 0, 62, 0
2, 12848, Note_on_c, 0, 79, 0
2, 12850, Note_on_c, 0, 63, 0
2, 12861, Note_on_c, 0, 75, 56
2, 12862, Note_on_c, 0, 57, 0
2, 12932, Note_on_c, 0, 67, 50
2, 12945, Note_on_c, 0, 67, 0
2, 12946, Note_on_c, 0, 75, 0
2, 12968, Note_on_c, 0, 58, 42
2, 12971, Note_on_c, 0, 62, 46
2, 12974, Note_on_c, 0, 74, 64
2, 12975, Note_on_c, 0, 52, 44
2, 13028, Note_on_c, 0, 74, 0
2, 13047, Note_on_c, 0, 76, 40
2, 13052, Note_on_c, 0, 77, 29
2, 13060, Note_on_c, 0, 77, 0
2, 13060, Note_on_c, 0, 74, 42
2, 13067, Note_on_c, 0, 52, 0
2, 13073, Note_on_c, 0, 76, 0
2, 13086, Note_on_c, 0, 58, 0
2, 13100, Note_on_c, 0, 73, 42
2, 13101, Note_on_c, 0, 74, 0
2, 13110, Note_on_c, 0, 62, 0
2, 13154, Note_on_c, 0, 73, 0
2, 13169, Note_on_c, 0, 74, 67
2, 13172, Note_on_c, 0, 61, 56
2, 13175, Note_on_c, 0, 65, 58
2, 13176, Note_on_c, 0, 55, 48
2, 13208, Note_on_c, 0, 74, 0
2, 13231, Note_on_c, 0, 65, 0
2, 13231, Note_on_c, 0, 75, 44
2, 13261, Note_on_c, 0, 61, 0
2, 13278, Note_on_c, 0, 75, 0
2, 13292, Note_on_c, 0, 76, 68
2, 13292, Note_on_c, 0, 61, 55
2, 13293, Note_on_c, 0, 65, 64
2, 13302, Note_on_c, 0, 65, 0
2, 13324, Note_on_c, 0, 76, 0
2, 13336, Note_on_c, 0, 55, 0
2, 13337, Note_on_c, 0, 61, 0
2, 13340, Note_on_c, 0, 77, 46
2, 13390, Note_on_c, 0, 77, 0
2, 13408, Note_on_c, 0, 80, 64
2, 13414, Note_on_c, 0, 60, 40
2, 13415, Note_on_c, 0, 50, 47
2, 13417, Note_on_c, 0, 57, 53
2, 13419, Note_on_c, 0, 53, 40
2, 13423, Note_on_c, 0, 60, 0
2, 13431, Note_on_c, 0, 80, 0
2, 13448, Note_on_c, 0, 57, 0
2, 13460, Note_on_c, 0, 53, 0
2, 13460, Note_on_c, 0, 80, 46
2, 13489, Note_on_c, 0, 81, 60
2, 13493, Note_on_c, 0, 80, 0
2, 13513, Note_on_c, 0, 81, 0
2, 13531, Note_on_c, 0, 84, 85
2, 13533, Note_on_c, 0, 72, 84
2, 13533, Note_on_c, 0, 60, 54
2, 13536, Note_on_c, 0, 57, 54
2, 13538, Note_on_c, 0, 82, 37
2, 13539, Note_on_c, 0, 53, 40
2, 13541, Note_on_c, 0, 60, 0
2, 13547, Note_on_c, 0, 82, 0
2, 13567, Note_on_c, 0, 84, 0
2, 13572, Note_on_c, 0, 72, 0
2, 13584, Note_on_c, 0, 57, 0
2, 13586, Note_on_c, 0, 53, 0
2, 13592, Note_on_c, 0, 80, 38
2, 13619, Note_on_c, 0, 80, 0
2, 13619, Note_on_c, 0, 50, 0
2, 13626, Note_on_c, 0, 81, 46
2, 13640, Note_on_c, 0, 81, 0
2, 13655, Note_on_c, 0, 84, 88
2, 13658, Note_on_c, 0, 60, 65
2, 13658, Note_on_c, 0, 72, 76
2, 13663, Note_on_c, 0, 57, 49
2, 13666, Note_on_c, 0, 60, 0
2, 13668, Note_on_c, 0, 53, 38
2, 13688, Note_on_c, 0, 57, 0
2, 13696, Note_on_c, 0, 53, 0
2, 13698, Note_on_c, 0, 84, 0
2, 13716, Note_on_c, 0, 72, 0
2, 13722, Note_on_c, 0, 80, 18
2, 13746, Note_on_c, 0, 80, 0
2, 13749, Note_on_c, 0, 81, 50
2, 13760, Note_on_c, 0, 81, 0
2, 13776, Note_on_c, 0, 84, 82
2, 13778, Note_on_c, 0, 60, 70
2, 13780, Note_on_c, 0, 72, 76
2, 13780, Note_on_c, 0, 57, 60
2, 13782, Note_on_c, 0, 53, 44
2, 13785, Note_on_c, 0, 50, 36
2, 13787, Note_on_c, 0, 80, 26
2, 13796, Note_on_c, 0, 80, 0
2, 13797, Note_on_c, 0, 60, 0
2, 13812, Note_on_c, 0, 84, 0
2, 13814, Note_on_c, 0, 50, 0
2, 13816, Note_on_c, 0, 57, 0
2, 13821, Note_on_c, 0, 53, 0
2, 13836, Note_on_c, 0, 80, 27
2, 13838, Note_on_c, 0, 72, 0
2, 13858, Note_on_c, 0, 80, 0
2, 13866, Note_on_c, 0, 81, 27
2, 13880, Note_on_c, 0, 81, 0
2, 13894, Note_on_c, 0, 58, 29
2, 13898, Note_on_c, 0, 84, 72
2, 13900, Note_on_c, 0, 59, 55
2, 13901, Note_on_c, 0, 81, 24
2, 13903, Note_on_c, 0, 58, 0
2, 13911, Note_on_c, 0, 81, 0
2, 13913, Note_on_c, 0, 59, 0
2, 13914, Note_on_c, 0, 84, 0
2, 13932, Note_on_c, 0, 53, 71
2, 13934, Note_on_c, 0, 59, 68
2, 13934, Note_on_c, 0, 64, 81
2, 13936, Note_on_c, 0, 75, 74
2, 13938, Note_on_c, 0, 87, 80
2, 13938, Note_on_c, 0, 57, 73
2, 13995, Note_on_c, 0, 53, 0
2, 13998, Note_on_c, 0, 87, 0
2, 14001, Note_on_c, 0, 75, 0
2, 14002, Note_on_c, 0, 64, 0
2, 14002, Note_on_c, 0, 57, 0
2, 14015, Note_on_c, 0, 53, 58
2, 14016, Note_on_c, 0, 76, 66
2, 14016, Note_on_c, 0, 88, 66
2, 14017, Note_on_c, 0, 64, 63
2, 14020, Note_on_c, 0, 57, 48
2, 14023, Note_on_c, 0, 82, 42
2, 14025, Note_on_c, 0, 86, 33
2, 14032, Note_on_c, 0, 82, 0
2, 14033, Note_on_c, 0, 88, 0
2, 14035, Note_on_c, 0, 86, 0
2, 14035, Note_on_c, 0, 76, 0
2, 14036, Note_on_c, 0, 53, 0
2, 14046, Note_on_c, 0, 53, 45
2, 14050, Note_on_c, 0, 77, 68
2, 14053, Note_on_c, 0, 89, 74
2, 14094, Note_on_c, 0, 89, 0
2, 14095, Note_on_c, 0, 53, 0
2, 14097, Note_on_c, 0, 57, 0
2, 14100, Note_on_c, 0, 59, 0
2, 14101, Note_on_c, 0, 64, 0
2, 14101, Note_on_c, 0, 77, 0
2, 14125, Note_on_c, 0, 59, 62
2, 14128, Note_on_c, 0, 57, 61
2, 14129, Note_on_c, 0, 90, 56
2, 14131, Note_on_c, 0, 53, 50
2, 14134, Note_on_c, 0, 78, 60
2, 14139, Note_on_c, 0, 53, 0
2, 14150, Note_on_c, 0, 57, 0
2, 14150, Note_on_c, 0, 78, 0
2, 14156, Note_on_c, 0, 59, 0
2, 14157, Note_on_c, 0, 90, 0
2, 14167, Note_on_c, 0, 53, 71
2, 14168, Note_on_c, 0, 59, 59
2, 14168, Note_on_c, 0, 64, 77
2, 14170, Note_on_c, 0, 57, 75
2, 14172, Note_on_c, 0, 78, 56
2, 14173, Note_on_c, 0, 90, 25
2, 14178, Note_on_c, 0, 91, 70
2, 14185, Note_on_c, 0, 90, 0
2, 14186, Note_on_c, 0, 89, 36
2, 14190, Note_on_c, 0, 79, 64
2, 14193, Note_on_c, 0, 78, 0
2, 14209, Note_on_c, 0, 91, 0
2, 14211, Note_on_c, 0, 89, 0
2, 14217, Note_on_c, 0, 79, 0
2, 14229, Note_on_c, 0, 64, 0
2, 14231, Note_on_c, 0, 53, 0
2, 14235, Note_on_c, 0, 57, 0
2, 14240, Note_on_c, 0, 59, 0
2, 14253, Note_on_c, 0, 87, 76
2, 14254, Note_on_c, 0, 75, 80
2, 14259, Note_on_c, 0, 57, 64
2, 14259, Note_on_c, 0, 53, 66
2, 14259, Note_on_c, 0, 64, 71
2, 14260, Note_on_c, 0, 59, 77
2, 14301, Note_on_c, 0, 87, 0
2, 14311, Note_on_c, 0, 75, 0
2, 14314, Note_on_c, 0, 59, 0
2, 14317, Note_on_c, 0, 57, 0
2, 14322, Note_on_c, 0, 64, 0
2, 14342, Note_on_c, 0, 53, 0
2, 14376, Note_on_c, 0, 78, 80
2, 14377, Note_on_c, 0, 84, 81
2, 14377, Note_on_c, 0, 72, 84
2, 14377, Note_on_c, 0, 57, 75
2, 14378, Note_on_c, 0, 62, 83
2, 14380, Note_on_c, 0, 52, 79
2, 14384, Note_on_c, 0, 83, 36
2, 14393, Note_on_c, 0, 83, 0
2, 14405, Note_on_c, 0, 62, 0
2, 14412, Note_on_c, 0, 57, 0
2, 14429, Note_on_c, 0, 52, 0
2, 14445, Note_on_c, 0, 78, 0
2, 14448, Note_on_c, 0, 79, 41
2, 14461, Note_on_c, 0, 79, 0
2, 14470, Note_on_c, 0, 84, 0
2, 14488, Note_on_c, 0, 72, 0
2, 14498, Note_on_c, 0, 54, 97
2, 14500, Note_on_c, 0, 55, 103
2, 14538, Note_on_c, 0, 54, 0
2, 14732, Note_on_c, 0, 50, 48
2, 14742, Note_on_c, 0, 55, 0
2, 14759, Note_on_c, 0, 50, 0
2, 14763, Note_on_c, 0, 51, 67
2, 14765, Note_on_c, 0, 66, 70
2, 14766, Note_on_c, 0, 58, 67
2, 14767, Note_on_c, 0, 61, 71
2, 14848, Note_on_c, 0, 49, 45
2, 14858, Note_on_c, 0, 58, 0
2, 14863, Note_on_c, 0, 61, 0
2, 14870, Note_on_c, 0, 66, 0
2, 14879, Note_on_c, 0, 51, 0
2, 14884, Note_on_c, 0, 49, 0
2, 14889, Note_on_c, 0, 52, 68
2, 14889, Note_on_c, 0, 67, 62
2, 14892, Note_on_c, 0, 62, 57
2, 14892, Note_on_c, 0, 59, 61
2, 14971, Note_on_c, 0, 52, 0
2, 14974, Note_on_c, 0, 46, 73
2, 14986, Note_on_c, 0, 62, 0
2, 14995, Note_on_c, 0, 59, 0
2, 15002, Note_on_c, 0, 67, 0
2, 15087, Note_on_c, 0, 58, 74
2, 15087, Note_on_c, 0, 61, 74
2, 15088, Note_on_c, 0, 64, 80
2, 15090, Note_on_c, 0, 46, 0
2, 15094, Note_on_c, 0, 45, 69
2, 15106, Note_on_c, 0, 58, 0
2, 15123, Note_on_c, 0, 61, 0
2, 15130, Note_on_c, 0, 64, 0
2, 15214, Note_on_c, 0, 52, 69
2, 15226, Note_on_c, 0, 45, 0
2, 15234, Note_on_c, 0, 52, 0
2, 15243, Note_on_c, 0, 79, 34
2, 15271, Note_on_c, 0, 80, 27
2, 15298, Note_on_c, 0, 80, 0
2, 15303, Note_on_c, 0, 81, 59
2, 15312, Note_on_c, 0, 79, 0
2, 15325, Note_on_c, 0, 81, 0
2, 15342, Note_on_c, 0, 84, 87
2, 15343, Note_on_c, 0, 72, 83
2, 15377, Note_on_c, 0, 72, 0
2, 15387, Note_on_c, 0, 84, 0
2, 15389, Note_on_c, 0, 79, 37
2, 15407, Note_on_c, 0, 80, 30
2, 15446, Note_on_c, 0, 79, 0
2, 15458, Note_on_c, 0, 80, 0
2, 15467, Note_on_c, 0, 84, 80
2, 15503, Note_on_c, 0, 77, 47
2, 15589, Note_on_c, 0, 84, 0
2, 15594, Note_on_c, 0, 77, 0
2, 15614, Note_on_c, 0, 72, 62
2, 15676, Note_on_c, 0, 72, 0
2, 15728, Note_on_c, 0, 72, 74
2, 15824, Note_on_c, 0, 72, 0
2, 15852, Note_on_c, 0, 72, 69
2, 15922, Note_on_c, 0, 72, 0
2, 15931, Note_on_c, 0, 59, 64
2, 15932, Note_on_c, 0, 53, 68
2, 15932, Note_on_c, 0, 64, 75
2, 16061, Note_on_c, 0, 64, 0
2, 16067, Note_on_c, 0, 53, 0
2, 16073, Note_on_c, 0, 59, 0
2, 16096, Note_on_c, 0, 59, 64
2, 16099, Note_on_c, 0, 63, 77
2, 16102, Note_on_c, 0, 53, 65
2, 16103, Note_on_c, 0, 56, 33
2, 16112, Note_on_c, 0, 56, 0
2, 16235, Note_on_c, 0, 63, 0
2, 16236, Note_on_c, 0, 53, 0
2, 16268, Note_on_c, 0, 59, 0
2, 16285, Note_on_c, 0, 59, 34
2, 16288, Note_on_c, 0, 62, 71
2, 16292, Note_on_c, 0, 55, 46
2, 16294, Note_on_c, 0, 52, 48
2, 16364, Note_on_c, 0, 59, 0
2, 16411, Note_on_c, 0, 59, 28
2, 16426, Note_on_c, 0, 71, 38
2, 16432, Note_on_c, 0, 62, 0
2, 16437, Note_on_c, 0, 71, 0
2, 16458, Note_on_c, 0, 74, 89
2, 16460, Note_on_c, 0, 59, 0
2, 16464, Note_on_c, 0, 55, 0
2, 16479, Note_on_c, 0, 52, 0
2, 16526, Note_on_c, 0, 74, 0
2, 16539, Note_on_c, 0, 71, 42
2, 16564, Note_on_c, 0, 71, 0
2, 16577, Note_on_c, 0, 72, 65
2, 16651, Note_on_c, 0, 72, 0
2, 16658, Note_on_c, 0, 74, 63
2, 16666, Note_on_c, 0, 60, 68
2, 16679, Note_on_c, 0, 60, 0
2, 16684, Note_on_c, 0, 74, 0
2, 16698, Note_on_c, 0, 67, 60
2, 16778, Note_on_c, 0, 67, 0
2, 16786, Note_on_c, 0, 69, 53
2, 16791, Note_on_c, 0, 57, 20
2, 16799, Note_on_c, 0, 69, 0
2, 16802, Note_on_c, 0, 55, 27
2, 16803, Note_on_c, 0, 57, 0
2, 16811, Note_on_c, 0, 55, 0
2, 16818, Note_on_c, 0, 71, 83
2, 16889, Note_on_c, 0, 71, 0
2, 16914, Note_on_c, 0, 56, 25
2, 16923, Note_on_c, 0, 56, 0
2, 16945, Note_on_c, 0, 67, 24
2, 16950, Note_on_c, 0, 65, 24
2, 16995, Note_on_c, 0, 65, 0
2, 16995, Note_on_c, 0, 67, 0
2, 17026, Note_on_c, 0, 57, 37
2, 17036, Note_on_c, 0, 57, 0
2, 17130, Note_on_c, 0, 61, 56
2, 17137, Note_on_c, 0, 54, 77
2, 17138, Note_on_c, 0, 65, 55
2, 17146, Note_on_c, 0, 64, 28
2, 17147, Note_on_c, 0, 65, 0
2, 17155, Note_on_c, 0, 64, 0
2, 17160, Note_on_c, 0, 61, 0
2, 17162, Note_on_c, 0, 54, 0
2, 17245, Note_on_c, 0, 56, 67
2, 17247, Note_on_c, 0, 62, 66
2, 17247, Note_on_c, 0, 58, 57
2, 17248, Note_on_c, 0, 52, 65
2, 17253, Note_on_c, 0, 56, 0
2, 17268, Note_on_c, 0, 57, 15
2, 17333, Note_on_c, 0, 58, 0
2, 17365, Note_on_c, 0, 58, 48
2, 17379, Note_on_c, 0, 66, 40
2, 17380, Note_on_c, 0, 62, 0
2, 17388, Note_on_c, 0, 66, 0
2, 17391, Note_on_c, 0, 58, 0
2, 17410, Note_on_c, 0, 69, 91
2, 17430, Note_on_c, 0, 57, 0
2, 17442, Note_on_c, 0, 69, 0
2, 17446, Note_on_c, 0, 66, 49
2, 17450, Note_on_c, 0, 52, 0
2, 17464, Note_on_c, 0, 66, 0
2, 17485, Note_on_c, 0, 67, 24
2, 17487, Note_on_c, 0, 58, 30
2, 17503, Note_on_c, 0, 58, 0
2, 17503, Note_on_c, 0, 67, 0
2, 17507, Note_on_c, 0, 69, 57
2, 17529, Note_on_c, 0, 69, 0
2, 17536, Note_on_c, 0, 70, 51
2, 17552, Note_on_c, 0, 70, 0
2, 17566, Note_on_c, 0, 72, 60
2, 17588, Note_on_c, 0, 72, 0
2, 17598, Note_on_c, 0, 73, 59
2, 17611, Note_on_c, 0, 58, 48
2, 17613, Note_on_c, 0, 62, 30
2, 17621, Note_on_c, 0, 73, 0
2, 17625, Note_on_c, 0, 62, 0
2, 17641, Note_on_c, 0, 58, 0
2, 17658, Note_on_c, 0, 77, 43
2, 17681, Note_on_c, 0, 77, 0
2, 17692, Note_on_c, 0, 81, 73
2, 17711, Note_on_c, 0, 81, 0
2, 17728, Note_on_c, 0, 84, 96
2, 17746, Note_on_c, 0, 61, 44
2, 17754, Note_on_c, 0, 84, 0
2, 17767, Note_on_c, 0, 82, 71
2, 17772, Note_on_c, 0, 61, 0
2, 17800, Note_on_c, 0, 78, 52
2, 17809, Note_on_c, 0, 82, 0
2, 17827, Note_on_c, 0, 78, 0
2, 17829, Note_on_c, 0, 76, 54
2, 17844, Note_on_c, 0, 76, 0
2, 17855, Note_on_c, 0, 61, 46
2, 17856, Note_on_c, 0, 81, 87
2, 17888, Note_on_c, 0, 79, 67
2, 17893, Note_on_c, 0, 61, 0
2, 17898, Note_on_c, 0, 81, 0
2, 17917, Note_on_c, 0, 79, 0
2, 17923, Note_on_c, 0, 75, 46
2, 17946, Note_on_c, 0, 75, 0
2, 17955, Note_on_c, 0, 73, 47
2, 17969, Note_on_c, 0, 73, 0
2, 17974, Note_on_c, 0, 61, 51
2, 17977, Note_on_c, 0, 66, 38
2, 17986, Note_on_c, 0, 66, 0
2, 17988, Note_on_c, 0, 78, 72
2, 18011, Note_on_c, 0, 61, 0
2, 18021, Note_on_c, 0, 76, 59
2, 18030, Note_on_c, 0, 78, 0
2, 18048, Note_on_c, 0, 76, 0
2, 18058, Note_on_c, 0, 73, 34
2, 18081, Note_on_c, 0, 73, 0
2, 18088, Note_on_c, 0, 71, 38
2, 18094, Note_on_c, 0, 61, 56
2, 18096, Note_on_c, 0, 66, 57
2, 18101, Note_on_c, 0, 71, 0
2, 18103, Note_on_c, 0, 55, 41
2, 18105, Note_on_c, 0, 66, 0
2, 18112, Note_on_c, 0, 55, 0
2, 18121, Note_on_c, 0, 76, 75
2, 18124, Note_on_c, 0, 61, 0
2, 18147, Note_on_c, 0, 76, 0
2, 18159, Note_on_c, 0, 74, 34
2, 18167, Note_on_c, 0, 70, 40
2, 18174, Note_on_c, 0, 74, 0
2, 18187, Note_on_c, 0, 70, 0
2, 18212, Note_on_c, 0, 50, 43
2, 18219, Note_on_c, 0, 57, 50
2, 18225, Note_on_c, 0, 50, 0
2, 18227, Note_on_c, 0, 57, 0
2, 18246, Note_on_c, 0, 76, 74
2, 18249, Note_on_c, 0, 64, 47
2, 18251, Note_on_c, 0, 72, 54
2, 18251, Note_on_c, 0, 69, 60
2, 18284, Note_on_c, 0, 64, 0
2, 18288, Note_on_c, 0, 74, 10
2, 18292, Note_on_c, 0, 76, 0
2, 18310, Note_on_c, 0, 74, 0
2, 18312, Note_on_c, 0, 72, 0
2, 18316, Note_on_c, 0, 69, 0
2, 18334, Note_on_c, 0, 75, 69
2, 18336, Note_on_c, 0, 63, 80
2, 18337, Note_on_c, 0, 69, 71
2, 18341, Note_on_c, 0, 72, 48
2, 18342, Note_on_c, 0, 57, 46
2, 18361, Note_on_c, 0, 57, 0
2, 18371, Note_on_c, 0, 69, 0
2, 18372, Note_on_c, 0, 63, 0
2, 18379, Note_on_c, 0, 75, 0
2, 18384, Note_on_c, 0, 76, 50
2, 18386, Note_on_c, 0, 69, 22
2, 18392, Note_on_c, 0, 64, 32
2, 18401, Note_on_c, 0, 74, 6
2, 18415, Note_on_c, 0, 76, 0
2, 18424, Note_on_c, 0, 64, 0
2, 18440, Note_on_c, 0, 74, 0
2, 18448, Note_on_c, 0, 69, 0
2, 18449, Note_on_c, 0, 72, 0
2, 18462, Note_on_c, 0, 75, 62
2, 18463, Note_on_c, 0, 63, 72
2, 18466, Note_on_c, 0, 60, 49
2, 18469, Note_on_c, 0, 69, 55
2, 18471, Note_on_c, 0, 57, 41
2, 18472, Note_on_c, 0, 72, 27
2, 18474, Note_on_c, 0, 60, 0
2, 18481, Note_on_c, 0, 69, 0
2, 18491, Note_on_c, 0, 69, 19
2, 18495, Note_on_c, 0, 63, 0
2, 18498, Note_on_c, 0, 75, 0
2, 18502, Note_on_c, 0, 57, 0
2, 18504, Note_on_c, 0, 76, 41
2, 18510, Note_on_c, 0, 64, 27
2, 18531, Note_on_c, 0, 76, 0
2, 18544, Note_on_c, 0, 72, 0
2, 18554, Note_on_c, 0, 69, 0
2, 18560, Note_on_c, 0, 64, 0
2, 18580, Note_on_c, 0, 72, 60
2, 18584, Note_on_c, 0, 57, 58
2, 18584, Note_on_c, 0, 50, 59
2, 18586, Note_on_c, 0, 60, 69
2, 18600, Note_on_c, 0, 57, 0
2, 18613, Note_on_c, 0, 50, 0
2, 18619, Note_on_c, 0, 72, 0
2, 18621, Note_on_c, 0, 69, 54
2, 18625, Note_on_c, 0, 60, 0
2, 18708, Note_on_c, 0, 50, 38
2, 18714, Note_on_c, 0, 69, 0
2, 18725, Note_on_c, 0, 50, 0
2, 18738, Note_on_c, 0, 60, 78
2, 18738, Note_on_c, 0, 72, 68
2, 18738, Note_on_c, 0, 65, 71
2, 18740, Note_on_c, 0, 53, 59
2, 18750, Note_on_c, 0, 69, 19
2, 18796, Note_on_c, 0, 69, 0
2, 18841, Note_on_c, 0, 65, 0
2, 18844, Note_on_c, 0, 43, 50
2, 18845, Note_on_c, 0, 60, 0
2, 18854, Note_on_c, 0, 43, 0
2, 18859, Control_c, 0, 64, 127
2, 18861, Note_on_c, 0, 72, 0
2, 18870, Note_on_c, 0, 53, 0
2, 18871, Note_on_c, 0, 69, 28
2, 18906, Note_on_c, 0, 69, 0
2, 18932, Note_on_c, 0, 59, 60
2, 18932, Note_on_c, 0, 53, 66
2, 18934, Note_on_c, 0, 64, 82
2, 18937, Control_c, 0, 64, 0
2, 18940, Note_on_c, 0, 57, 42
2, 18948, Note_on_c, 0, 57, 0
2, 19026, Note_on_c, 0, 59, 0
2, 19056, Note_on_c, 0, 59, 41
2, 19079, Note_on_c, 0, 64, 0
2, 19091, Note_on_c, 0, 74, 115
2, 19100, Note_on_c, 0, 53, 0
2, 19153, Note_on_c, 0, 59, 0
2, 19173, Note_on_c, 0, 74, 0
2, 19174, Note_on_c, 0, 59, 20
2, 19175, Note_on_c, 0, 71, 40
2, 19188, Note_on_c, 0, 55, 34
2, 19210, Note_on_c, 0, 59, 0
2, 19211, Note_on_c, 0, 71, 0
2, 19218, Note_on_c, 0, 72, 53
2, 19256, Note_on_c, 0, 55, 0
2, 19264, Note_on_c, 0, 72, 0
2, 19301, Note_on_c, 0, 57, 48
2, 19313, Note_on_c, 0, 57, 0
2, 19329, Note_on_c, 0, 71, 78
2, 19415, Note_on_c, 0, 67, 33
2, 19417, Note_on_c, 0, 71, 0
2, 19425, Note_on_c, 0, 57, 32
2, 19436, Note_on_c, 0, 67, 0
2, 19445, Note_on_c, 0, 57, 0
2, 19451, Note_on_c, 0, 69, 60
2, 19531, Note_on_c, 0, 69, 0
2, 19541, Note_on_c, 0, 57, 41
2, 19542, Note_on_c, 0, 64, 33
2, 19551, Note_on_c, 0, 57, 0
2, 19555, Note_on_c, 0, 64, 0
2, 19568, Note_on_c, 0, 67, 58
2, 19646, Note_on_c, 0, 67, 0
2, 19665, Note_on_c, 0, 57, 31
2, 19691, Note_on_c, 0, 65, 65
2, 19705, Note_on_c, 0, 57, 0
2, 19752, Note_on_c, 0, 65, 0
2, 19771, Note_on_c, 0, 67, 31
2, 19777, Note_on_c, 0, 65, 57
2, 19781, Note_on_c, 0, 57, 38
2, 19787, Note_on_c, 0, 67, 0
2, 19804, Note_on_c, 0, 57, 0
2, 19810, Note_on_c, 0, 65, 0
2, 19824, Note_on_c, 0, 62, 18
2, 19850, Note_on_c, 0, 62, 0
2, 19893, Note_on_c, 0, 59, 65
2, 19894, Note_on_c, 0, 64, 74
2, 19896, Note_on_c, 0, 53, 45
2, 19918, Note_on_c, 0, 64, 0
2, 19925, Note_on_c, 0, 53, 0
2, 19932, Note_on_c, 0, 59, 0
2, 20014, Note_on_c, 0, 59, 69
2, 20015, Note_on_c, 0, 62, 80
2, 20016, Note_on_c, 0, 53, 73
2, 20127, Note_on_c, 0, 53, 0
2, 20132, Note_on_c, 0, 62, 0
2, 20152, Note_on_c, 0, 59, 0
2, 20164, Note_on_c, 0, 59, 24
2, 20167, Note_on_c, 0, 62, 51
2, 20172, Note_on_c, 0, 55, 50
2, 20172, Note_on_c, 0, 52, 49
2, 20302, Note_on_c, 0, 62, 0
2, 20309, Note_on_c, 0, 59, 0
2, 20339, Note_on_c, 0, 55, 0
2, 20369, Note_on_c, 0, 62, 71
2, 20372, Note_on_c, 0, 59, 51
2, 20376, Note_on_c, 0, 55, 37
2, 20400, Note_on_c, 0, 62, 0
2, 20427, Note_on_c, 0, 59, 0
2, 20453, Note_on_c, 0, 55, 0
2, 20455, Note_on_c, 0, 81, 89
2, 20465, Note_on_c, 0, 52, 0
2, 20490, Note_on_c, 0, 59, 45
2, 20495, Note_on_c, 0, 79, 68
2, 20504, Note_on_c, 0, 55, 33
2, 20509, Note_on_c, 0, 81, 0
2, 20522, Note_on_c, 0, 59, 0
2, 20527, Note_on_c, 0, 55, 0
2, 20533, Note_on_c, 0, 79, 0
2, 20537, Note_on_c, 0, 76, 50
2, 20570, Note_on_c, 0, 76, 0
2, 20580, Note_on_c, 0, 71, 45
2, 20592, Note_on_c, 0, 71, 0
2, 20615, Note_on_c, 0, 77, 78
2, 20654, Note_on_c, 0, 77, 0
2, 20661, Note_on_c, 0, 76, 66
2, 20699, Note_on_c, 0, 76, 0
2, 20702, Note_on_c, 0, 72, 53
2, 20724, Note_on_c, 0, 72, 0
2, 20736, Note_on_c, 0, 65, 44
2, 20748, Note_on_c, 0, 65, 0
2, 20848, Note_on_c, 0, 62, 68
2, 20849, Note_on_c, 0, 57, 52
2, 20850, Note_on_c, 0, 65, 53
2, 20859, Note_on_c, 0, 65, 0
2, 20860, Note_on_c, 0, 57, 0
2, 20869, Note_on_c, 0, 62, 0
2, 20890, Note_on_c, 0, 69, 50
2, 20901, Note_on_c, 0, 69, 0
2, 20927, Note_on_c, 0, 74, 73
2, 20949, Note_on_c, 0, 74, 0
2, 20965, Note_on_c, 0, 62, 76
2, 20966, Note_on_c, 0, 56, 77
2, 20966, Note_on_c, 0, 67, 83
2, 20968, Note_on_c, 0, 77, 94
2, 21006, Note_on_c, 0, 77, 0
2, 21014, Note_on_c, 0, 76, 66
2, 21022, Note_on_c, 0, 67, 0
2, 21029, Note_on_c, 0, 62, 0
2, 21053, Note_on_c, 0, 74, 64
2, 21069, Note_on_c, 0, 76, 0
2, 21077, Note_on_c, 0, 56, 0
2, 21084, Note_on_c, 0, 74, 0
2, 21094, Note_on_c, 0, 72, 73
2, 21115, Note_on_c, 0, 72, 0
2, 21122, Note_on_c, 0, 57, 44
2, 21122, Note_on_c, 0, 64, 56
2, 21125, Note_on_c, 0, 60, 56
2, 21142, Note_on_c, 0, 71, 36
2, 21147, Note_on_c, 0, 69, 33
2, 21156, Note_on_c, 0, 69, 0
2, 21180, Note_on_c, 0, 60, 0
2, 21196, Note_on_c, 0, 71, 0
2, 21205, Note_on_c, 0, 72, 58
2, 21210, Note_on_c, 0, 60, 33
2, 21218, Note_on_c, 0, 64, 0
2, 21219, Note_on_c, 0, 71, 46
2, 21220, Note_on_c, 0, 72, 0
2, 21240, Note_on_c, 0, 60, 0
2, 21255, Note_on_c, 0, 71, 0
2, 21257, Note_on_c, 0, 57, 0
2, 21259, Note_on_c, 0, 70, 40
2, 21318, Note_on_c, 0, 70, 0
2, 21335, Note_on_c, 0, 71, 56
2, 21365, Note_on_c, 0, 71, 0
2, 21372, Note_on_c, 0, 64, 53
2, 21373, Note_on_c, 0, 56, 43
2, 21381, Note_on_c, 0, 72, 58
2, 21382, Note_on_c, 0, 60, 35
2, 21410, Note_on_c, 0, 60, 0
2, 21433, Note_on_c, 0, 56, 0
2, 21465, Note_on_c, 0, 72, 0
2, 21465, Note_on_c, 0, 64, 0
2, 21488, Note_on_c, 0, 64, 16
2, 21491, Note_on_c, 0, 69, 68
2, 21492, Note_on_c, 0, 55, 52
2, 21495, Note_on_c, 0, 60, 34
2, 21562, Note_on_c, 0, 64, 0
2, 21565, Note_on_c, 0, 55, 0
2, 21584, Note_on_c, 0, 60, 0
2, 21607, Note_on_c, 0, 54, 64
2, 21610, Note_on_c, 0, 64, 58
2, 21612, Note_on_c, 0, 60, 33
2, 21632, Control_c, 0, 64, 127
2, 21633, Note_on_c, 0, 64, 0
2, 21648, Note_on_c, 0, 60, 0
2, 21686, Note_on_c, 0, 69, 0
2, 21702, Control_c, 0, 64, 0
2, 21712, Note_on_c, 0, 54, 0
2, 21729, Control_c, 0, 64, 127
2, 21811, Note_on_c, 0, 51, 71
2, 21812, Note_on_c, 0, 75, 74
2, 21812, Note_on_c, 0, 83, 80
2, 21813, Note_on_c, 0, 71, 75
2, 21813, Note_on_c, 0, 57, 71
2, 21813, Note_on_c, 0, 78, 58
2, 21813, Note_on_c, 0, 62, 69
2, 21814, Control_c, 0, 64, 0
2, 21820, Note_on_c, 0, 75, 0
2, 21821, Note_on_c, 0, 71, 0
2, 21823, Note_on_c, 0, 78, 0
2, 21826, Note_on_c, 0, 62, 0
2, 21833, Note_on_c, 0, 83, 0
2, 21834, Note_on_c, 0, 57, 0
2, 21838, Note_on_c, 0, 51, 0
2, 21932, Note_on_c, 0, 51, 68
2, 21934, Note_on_c, 0, 57, 75
2, 21935, Note_on_c, 0, 78, 71
2, 21935, Note_on_c, 0, 71, 80
2, 21936, Note_on_c, 0, 83, 76
2, 21936, Note_on_c, 0, 75, 77
2, 21937, Note_on_c, 0, 62, 80
2, 21981, Control_c, 0, 64, 127
2, 22057, Note_on_c, 0, 62, 0
2, 22060, Note_on_c, 0, 71, 0
2, 22060, Note_on_c, 0, 57, 0
2, 22060, Note_on_c, 0, 83, 0
2, 22069, Note_on_c, 0, 75, 0
2, 22070, Note_on_c, 0, 78, 0
2, 22071, Note_on_c, 0, 51, 0
2, 22095, Control_c, 0, 64, 0
2, 22102, Control_c, 0, 64, 127
2, 22205, Control_c, 0, 64, 0
2, 22217, Note_on_c, 0, 63, 81
2, 22217, Note_on_c, 0, 71, 72
2, 22218, Note_on_c, 0, 68, 69
2, 22218, Note_on_c, 0, 59, 82
2, 22225, Note_on_c, 0, 69, 55
2, 22233, Note_on_c, 0, 69, 0
2, 22271, Note_on_c, 0, 59, 0
2, 22272, Note_on_c, 0, 63, 0
2, 22277, Note_on_c, 0, 71, 0
2, 22278, Note_on_c, 0, 68, 0
2, 22298, Note_on_c, 0, 68, 59
2, 22298, Note_on_c, 0, 71, 64
2, 22299, Note_on_c, 0, 52, 72
2, 22299, Note_on_c, 0, 63, 68
2, 22300, Note_on_c, 0, 59, 68
2, 22326, Note_on_c, 0, 59, 0
2, 22328, Note_on_c, 0, 63, 0
2, 22331, Note_on_c, 0, 71, 0
2, 22333, Note_on_c, 0, 68, 0
2, 22342, Note_on_c, 0, 71, 31
2, 22342, Note_on_c, 0, 59, 36
2, 22343, Note_on_c, 0, 63, 45
2, 22343, Note_on_c, 0, 68, 32
2, 22352, Control_c, 0, 64, 127
2, 22391, Note_on_c, 0, 63, 0
2, 22399, Note_on_c, 0, 59, 0
2, 22399, Note_on_c, 0, 68, 0
2, 22406, Note_on_c, 0, 71, 0
2, 22414, Note_on_c, 0, 52, 0
2, 22421, Note_on_c, 0, 54, 83
2, 22423, Note_on_c, 0, 71, 68
2, 22423, Note_on_c, 0, 59, 62
2, 22425, Note_on_c, 0, 66, 64
2, 22426, Note_on_c, 0, 64, 77
2, 22428, Control_c, 0, 64, 0
2, 22493, Control_c, 0, 64, 127
2, 22517, Note_on_c, 0, 66, 0
2, 22528, Note_on_c, 0, 64, 0
2, 22537, Note_on_c, 0, 54, 0
2, 22539, Note_on_c, 0, 59, 0
2, 22556, Note_on_c, 0, 71, 0
2, 22576, Control_c, 0, 64, 0
2, 22579, Note_on_c, 0, 63, 77
2, 22579, Note_on_c, 0, 68, 77
2, 22580, Note_on_c, 0, 71, 59
2, 22581, Note_on_c, 0, 59, 75
2, 22582, Note_on_c, 0, 56, 65
2, 22590, Note_on_c, 0, 69, 30
2, 22600, Note_on_c, 0, 69, 0
2, 22696, Note_on_c, 0, 59, 0
2, 22698, Control_c, 0, 64, 127
2, 22706, Note_on_c, 0, 71, 0
2, 22711, Note_on_c, 0, 56, 0
2, 22717, Note_on_c, 0, 63, 0
2, 22718, Note_on_c, 0, 68, 0
2, 22777, Control_c, 0, 64, 0
2, 22779, Note_on_c, 0, 65, 84
2, 22779, Note_on_c, 0, 72, 80
2, 22780, Note_on_c, 0, 61, 78
2, 22781, Note_on_c, 0, 69, 69
2, 22781, Note_on_c, 0, 45, 74
2, 22784, Note_on_c, 0, 55, 74
2, 22808, Note_on_c, 0, 45, 0
2, 22814, Note_on_c, 0, 61, 0
2, 22817, Control_c, 0, 64, 127
2, 22818, Note_on_c, 0, 55, 0
2, 22820, Note_on_c, 0, 65, 0
2, 22829, Note_on_c, 0, 69, 0
2, 22838, Note_on_c, 0, 72, 0
2, 22872, Note_on_c, 0, 58, 25
2, 22880, Note_on_c, 0, 58, 0
2, 22897, Control_c, 0, 64, 0
2, 22899, Note_on_c, 0, 55, 79
2, 22901, Note_on_c, 0, 72, 88
2, 22901, Note_on_c, 0, 84, 89
2, 22902, Note_on_c, 0, 61, 73
2, 22902, Note_on_c, 0, 65, 82
2, 22904, Note_on_c, 0, 80, 46
2, 22904, Note_on_c, 0, 74, 69
2, 22912, Note_on_c, 0, 80, 0
2, 22913, Note_on_c, 0, 74, 0
2, 22998, Note_on_c, 0, 84, 0
2, 22999, Note_on_c, 0, 72, 0
2, 23017, Note_on_c, 0, 55, 0
2, 23021, Note_on_c, 0, 65, 0
2, 23045, Note_on_c, 0, 61, 0
2, 23050, Note_on_c, 0, 87, 69
2, 23053, Note_on_c, 0, 54, 76
2, 23053, Note_on_c, 0, 75, 67
2, 23053, Note_on_c, 0, 64, 72
2, 23056, Note_on_c, 0, 60, 58
2, 23056, Note_on_c, 0, 84, 43
2, 23059, Note_on_c, 0, 81, 48
2, 23119, Note_on_c, 0, 75, 0
2, 23122, Note_on_c, 0, 76, 47
2, 23124, Note_on_c, 0, 87, 0
2, 23133, Note_on_c, 0, 84, 0
2, 23135, Note_on_c, 0, 76, 0
2, 23142, Note_on_c, 0, 64, 0
2, 23142, Note_on_c, 0, 54, 0
2, 23143, Note_on_c, 0, 81, 0
2, 23152, Note_on_c, 0, 60, 0
2, 23170, Note_on_c, 0, 54, 53
2, 23171, Note_on_c, 0, 64, 49
2, 23176, Note_on_c, 0, 69, 66
2, 23177, Note_on_c, 0, 60, 53
2, 23181, Note_on_c, 0, 81, 46
2, 23236, Note_on_c, 0, 69, 0
2, 23245, Note_on_c, 0, 64, 0
2, 23249, Note_on_c, 0, 81, 0
2, 23252, Note_on_c, 0, 60, 0
2, 23253, Note_on_c, 0, 54, 0
2, 23286, Note_on_c, 0, 54, 51
2, 23289, Note_on_c, 0, 72, 63
2, 23289, Note_on_c, 0, 84, 66
2, 23290, Note_on_c, 0, 64, 45
2, 23290, Note_on_c, 0, 60, 42
2, 23332, Note_on_c, 0, 60, 0
2, 23339, Note_on_c, 0, 84, 0
2, 23342, Note_on_c, 0, 72, 0
2, 23354, Note_on_c, 0, 54, 0
2, 23354, Note_on_c, 0, 64, 0
2, 23380, Note_on_c, 0, 60, 30
2, 23389, Note_on_c, 0, 60, 0
2, 23404, Note_on_c, 0, 58, 73
2, 23407, Note_on_c, 0, 60, 85
2, 23407, Note_on_c, 0, 87, 81
2, 23408, Note_on_c, 0, 54, 91
2, 23408, Note_on_c, 0, 75, 91
2, 23409, Note_on_c, 0, 64, 89
2, 23410, Note_on_c, 0, 81, 76
2, 23413, Note_on_c, 0, 84, 61
2, 23421, Note_on_c, 0, 84, 0
2, 23430, Note_on_c, 0, 84, 24
2, 23458, Note_on_c, 0, 88, 62
2, 23467, Note_on_c, 0, 87, 0
2, 23475, Note_on_c, 0, 75, 0
2, 23481, Note_on_c, 0, 88, 0
2, 23489, Note_on_c, 0, 64, 0
2, 23492, Note_on_c, 0, 84, 0
2, 23494, Note_on_c, 0, 58, 0
2, 23499, Note_on_c, 0, 81, 0
2, 23502, Note_on_c, 0, 54, 0
2, 23525, Note_on_c, 0, 57, 54
2, 23527, Note_on_c, 0, 64, 36
2, 23527, Note_on_c, 0, 53, 48
2, 23534, Note_on_c, 0, 81, 64
2, 23535, Note_on_c, 0, 69, 62
2, 23591, Note_on_c, 0, 69, 0
2, 23598, Note_on_c, 0, 64, 0
2, 23599, Note_on_c, 0, 53, 0
2, 23599, Note_on_c, 0, 81, 0
2, 23608, Note_on_c, 0, 57, 0
2, 23616, Note_on_c, 0, 60, 0
2, 23648, Note_on_c, 0, 60, 43
2, 23648, Note_on_c, 0, 57, 58
2, 23649, Note_on_c, 0, 64, 48
2, 23652, Note_on_c, 0, 53, 35
2, 23655, Note_on_c, 0, 72, 59
2, 23655, Note_on_c, 0, 84, 57
2, 23690, Note_on_c, 0, 72, 0
2, 23692, Note_on_c, 0, 84, 0
2, 23701, Note_on_c, 0, 60, 0
2, 23710, Note_on_c, 0, 53, 0
2, 23711, Note_on_c, 0, 64, 0
2, 23716, Note_on_c, 0, 57, 0
2, 23769, Note_on_c, 0, 87, 85
2, 23769, Note_on_c, 0, 75, 90
2, 23773, Note_on_c, 0, 59, 72
2, 23775, Note_on_c, 0, 64, 84
2, 23775, Note_on_c, 0, 81, 64
2, 23777, Note_on_c, 0, 53, 77
2, 23785, Note_on_c, 0, 81, 0
2, 23794, Note_on_c, 0, 81, 24
2, 23831, Note_on_c, 0, 88, 40
2, 23842, Note_on_c, 0, 75, 0
2, 23845, Note_on_c, 0, 76, 59
2, 23849, Note_on_c, 0, 87, 0
2, 23858, Note_on_c, 0, 53, 0
2, 23863, Note_on_c, 0, 88, 0
2, 23868, Note_on_c, 0, 64, 0
2, 23868, Note_on_c, 0, 76, 0
2, 23870, Note_on_c, 0, 81, 0
2, 23892, Note_on_c, 0, 53, 48
2, 23894, Note_on_c, 0, 64, 46
2, 23909, Note_on_c, 0, 69, 41
2, 23914, Note_on_c, 0, 81, 24
2, 23945, Note_on_c, 0, 69, 0
2, 23951, Note_on_c, 0, 81, 0
2, 23958, Note_on_c, 0, 64, 0
2, 23960, Note_on_c, 0, 53, 0
2, 24008, Note_on_c, 0, 62, 45
2, 24011, Note_on_c, 0, 84, 53
2, 24012, Note_on_c, 0, 55, 47
2, 24012, Note_on_c, 0, 72, 55
2, 24016, Note_on_c, 0, 52, 29
2, 24044, Note_on_c, 0, 84, 0
2, 24052, Note_on_c, 0, 55, 0
2, 24055, Note_on_c, 0, 62, 0
2, 24060, Note_on_c, 0, 52, 0
2, 24064, Note_on_c, 0, 59, 0
2, 24065, Note_on_c, 0, 72, 0
2, 24233, Note_on_c, 0, 48, 38
2, 24244, Note_on_c, 0, 48, 0
2, 24252, Note_on_c, 0, 65, 58
2, 24253, Note_on_c, 0, 50, 70
2, 24253, Note_on_c, 0, 60, 57
2, 24256, Note_on_c, 0, 57, 40
2, 24318, Note_on_c, 0, 65, 0
2, 24328, Note_on_c, 0, 57, 0
2, 24331, Note_on_c, 0, 60, 0
2, 24349, Note_on_c, 0, 49, 31
2, 24362, Note_on_c, 0, 50, 0
2, 24369, Note_on_c, 0, 49, 0
2, 24370, Note_on_c, 0, 51, 55
2, 24374, Note_on_c, 0, 66, 52
2, 24379, Note_on_c, 0, 61, 48
2, 24431, Note_on_c, 0, 66, 0
2, 24435, Note_on_c, 0, 61, 0
2, 24462, Note_on_c, 0, 67, 48
2, 24464, Note_on_c, 0, 51, 0
2, 24465, Note_on_c, 0, 52, 57
2, 24465, Note_on_c, 0, 62, 44
2, 24475, Note_on_c, 0, 62, 0
2, 24479, Note_on_c, 0, 52, 0
2, 24483, Note_on_c, 0, 67, 0
2, 24693, Note_on_c, 0, 60, 66
2, 24694, Note_on_c, 0, 64, 64
2, 24694, Note_on_c, 0, 57, 62
2, 24703, Note_on_c, 0, 64, 0
2, 24712, Note_on_c, 0, 60, 0
2, 24731, Note_on_c, 0, 79, 38
2, 24733, Note_on_c, 0, 57, 0
2, 24759, Note_on_c, 0, 80, 38
2, 24781, Note_on_c, 0, 80, 0
2, 24784, Note_on_c, 0, 81, 61
2, 24785, Note_on_c, 0, 79, 0
2, 24795, Note_on_c, 0, 81, 0
2, 24812, Note_on_c, 0, 84, 80
2, 24813, Note_on_c, 0, 72, 74
2, 24821, Note_on_c, 0, 57, 55
2, 24825, Note_on_c, 0, 60, 28
2, 24834, Note_on_c, 0, 60, 0
2, 24843, Note_on_c, 0, 72, 0
2, 24848, Note_on_c, 0, 84, 0
2, 24849, Note_on_c, 0, 57, 0
2, 24865, Note_on_c, 0, 79, 26
2, 24887, Note_on_c, 0, 80, 33
2, 24907, Note_on_c, 0, 80, 0
2, 24908, Note_on_c, 0, 81, 57
2, 24926, Note_on_c, 0, 79, 0
2, 24931, Note_on_c, 0, 81, 0
2, 24939, Note_on_c, 0, 84, 79
2, 24945, Note_on_c, 0, 57, 58
2, 24945, Note_on_c, 0, 62, 46
2, 24946, Note_on_c, 0, 58, 47
2, 24955, Note_on_c, 0, 62, 0
2, 24961, Note_on_c, 0, 84, 0
2, 24966, Note_on_c, 0, 58, 0
2, 24971, Note_on_c, 0, 57, 0
2, 24984, Note_on_c, 0, 81, 36
2, 25006, Note_on_c, 0, 81, 0
2, 25014, Note_on_c, 0, 82, 47
2, 25045, Note_on_c, 0, 81, 62
2, 25054, Note_on_c, 0, 82, 0
2, 25061, Note_on_c, 0, 58, 32
2, 25068, Note_on_c, 0, 81, 0
2, 25069, Note_on_c, 0, 79, 65
2, 25077, Note_on_c, 0, 58, 0
2, 25090, Note_on_c, 0, 79, 0
2, 25102, Note_on_c, 0, 77, 36
2, 25181, Note_on_c, 0, 76, 63
2, 25182, Note_on_c, 0, 77, 0
2, 25184, Note_on_c, 0, 58, 35
2, 25185, Note_on_c, 0, 62, 25
2, 25194, Note_on_c, 0, 62, 0
2, 25204, Note_on_c, 0, 76, 0
2, 25212, Note_on_c, 0, 58, 0
2, 25227, Note_on_c, 0, 74, 31
2, 25285, Note_on_c, 0, 74, 0
2, 25306, Note_on_c, 0, 62, 39
2, 25309, Note_on_c, 0, 57, 42
2, 25313, Note_on_c, 0, 58, 33
2, 25317, Note_on_c, 0, 62, 0
2, 25320, Note_on_c, 0, 57, 0
2, 25329, Note_on_c, 0, 58, 0
2, 25332, Note_on_c, 0, 73, 78
2, 25403, Note_on_c, 0, 73, 0
2, 25412, Note_on_c, 0, 76, 65
2, 25425, Note_on_c, 0, 61, 28
2, 25443, Note_on_c, 0, 61, 0
2, 25443, Note_on_c, 0, 76, 0
2, 25461, Note_on_c, 0, 70, 50
2, 25525, Note_on_c, 0, 70, 0
2, 25537, Note_on_c, 0, 76, 68
2, 25544, Note_on_c, 0, 61, 54
2, 25546, Note_on_c, 0, 64, 38
2, 25556, Note_on_c, 0, 64, 0
2, 25569, Note_on_c, 0, 61, 0
2, 25573, Note_on_c, 0, 76, 0
2, 25592, Note_on_c, 0, 69, 28
2, 25651, Note_on_c, 0, 69, 0
2, 25659, Note_on_c, 0, 76, 62
2, 25662, Note_on_c, 0, 64, 58
2, 25665, Note_on_c, 0, 61, 49
2, 25670, Note_on_c, 0, 64, 0
2, 25687, Note_on_c, 0, 61, 0
2, 25698, Note_on_c, 0, 76, 0
2, 25710, Note_on_c, 0, 67, 27
2, 25778, Note_on_c, 0, 61, 58
2, 25784, Note_on_c, 0, 58, 33
2, 25787, Note_on_c, 0, 67, 0
2, 25791, Note_on_c, 0, 55, 29
2, 25792, Note_on_c, 0, 61, 0
2, 25800, Note_on_c, 0, 55, 0
2, 25804, Note_on_c, 0, 58, 0
2, 25810, Note_on_c, 0, 72, 69
2, 25812, Note_on_c, 0, 66, 75
2, 25887, Note_on_c, 0, 66, 0
2, 25890, Note_on_c, 0, 72, 0
2, 25895, Note_on_c, 0, 60, 58
2, 25901, Note_on_c, 0, 54, 46
2, 25902, Note_on_c, 0, 60, 0
2, 25904, Note_on_c, 0, 50, 31
2, 25919, Note_on_c, 0, 50, 0
2, 25926, Note_on_c, 0, 54, 0
2, 25933, Note_on_c, 0, 64, 79
2, 25944, Note_on_c, 0, 72, 32
2, 25975, Note_on_c, 0, 72, 0
2, 26003, Note_on_c, 0, 64, 0
2, 26009, Note_on_c, 0, 49, 74
2, 26012, Note_on_c, 0, 50, 85
2, 26026, Note_on_c, 0, 49, 0
2, 26138, Note_on_c, 0, 49, 47
2, 26146, Note_on_c, 0, 49, 0
2, 26172, Note_on_c, 0, 55, 51
2, 26172, Note_on_c, 0, 56, 37
2, 26226, Note_on_c, 0, 56, 0
2, 26229, Note_on_c, 0, 55, 0
2, 26232, Note_on_c, 0, 57, 44
2, 26257, Note_on_c, 0, 49, 46
2, 26273, Note_on_c, 0, 57, 0
2, 26284, Note_on_c, 0, 50, 0
2, 26287, Note_on_c, 0, 49, 0
2, 26287, Note_on_c, 0, 60, 95
2, 26361, Note_on_c, 0, 43, 66
2, 26367, Note_on_c, 0, 55, 74
2, 26369, Note_on_c, 0, 60, 0
2, 26404, Control_c, 0, 64, 127
2, 26405, Note_on_c, 0, 43, 0
2, 26410, Note_on_c, 0, 55, 0
2, 26485, Note_on_c, 0, 68, 79
2, 26486, Note_on_c, 0, 65, 81
2, 26487, Note_on_c, 0, 54, 80
2, 26487, Note_on_c, 0, 80, 74
2, 26488, Control_c, 0, 64, 0
2, 26488, Note_on_c, 0, 60, 58
2, 26495, Note_on_c, 0, 78, 32
2, 26511, Note_on_c, 0, 68, 0
2, 26516, Note_on_c, 0, 80, 0
2, 26517, Note_on_c, 0, 78, 0
2, 26519, Note_on_c, 0, 65, 0
2, 26529, Note_on_c, 0, 60, 0
2, 26530, Note_on_c, 0, 54, 0
2, 26538, Note_on_c, 0, 69, 35
2, 26541, Note_on_c, 0, 81, 53
2, 26554, Note_on_c, 0, 69, 0
2, 26564, Note_on_c, 0, 81, 0
2, 26602, Note_on_c, 0, 54, 67
2, 26602, Note_on_c, 0, 60, 64
2, 26603, Note_on_c, 0, 65, 70
2, 26611, Note_on_c, 0, 84, 74
2, 26612, Note_on_c, 0, 65, 0
2, 26613, Note_on_c, 0, 72, 52
2, 26619, Note_on_c, 0, 84, 0
2, 26621, Note_on_c, 0, 72, 0
2, 26623, Note_on_c, 0, 54, 0
2, 26625, Note_on_c, 0, 60, 0
2, 26667, Note_on_c, 0, 75, 55
2, 26668, Note_on_c, 0, 87, 43
2, 26669, Note_on_c, 0, 64, 70
2, 26670, Note_on_c, 0, 59, 57
2, 26672, Note_on_c, 0, 53, 60
2, 26680, Note_on_c, 0, 85, 36
2, 26703, Note_on_c, 0, 87, 0
2, 26704, Note_on_c, 0, 75, 0
2, 26706, Note_on_c, 0, 76, 57
2, 26709, Note_on_c, 0, 88, 51
2, 26713, Note_on_c, 0, 85, 0
2, 26714, Note_on_c, 0, 76, 0
2, 26718, Note_on_c, 0, 88, 0
2, 26721, Note_on_c, 0, 53, 0
2, 26722, Note_on_c, 0, 64, 0
2, 26729, Note_on_c, 0, 59, 0
2, 26741, Note_on_c, 0, 53, 74
2, 26742, Note_on_c, 0, 64, 71
2, 26744, Note_on_c, 0, 59, 60
2, 26744, Note_on_c, 0, 89, 62
2, 26745, Note_on_c, 0, 76, 43
2, 26746, Note_on_c, 0, 77, 47
2, 26747, Note_on_c, 0, 87, 50
2, 26755, Note_on_c, 0, 76, 0
2, 26757, Note_on_c, 0, 89, 0
2, 26758, Note_on_c, 0, 87, 0
2, 26760, Note_on_c, 0, 53, 0
2, 26761, Note_on_c, 0, 64, 0
2, 26761, Note_on_c, 0, 77, 0
2, 26774, Note_on_c, 0, 59, 0
2, 26782, Note_on_c, 0, 53, 64
2, 26785, Note_on_c, 0, 59, 34
2, 26786, Note_on_c, 0, 64, 54
2, 26789, Note_on_c, 0, 90, 61
2, 26789, Note_on_c, 0, 78, 52
2, 26802, Note_on_c, 0, 64, 0
2, 26803, Note_on_c, 0, 78, 0
2, 26815, Note_on_c, 0, 53, 0
2, 26816, Note_on_c, 0, 90, 0
2, 26829, Note_on_c, 0, 59, 0
2, 26847, Note_on_c, 0, 53, 42
2, 26850, Note_on_c, 0, 59, 71
2, 26852, Note_on_c, 0, 64, 69
2, 26857, Note_on_c, 0, 79, 76
2, 26858, Note_on_c, 0, 91, 65
2, 26860, Note_on_c, 0, 90, 49
2, 26862, Note_on_c, 0, 64, 0
2, 26868, Note_on_c, 0, 89, 24
2, 26872, Note_on_c, 0, 53, 0
2, 26873, Note_on_c, 0, 91, 0
2, 26876, Note_on_c, 0, 79, 0
2, 26877, Note_on_c, 0, 59, 0
2, 26877, Note_on_c, 0, 89, 0
2, 26880, Note_on_c, 0, 90, 0
2, 26907, Note_on_c, 0, 59, 57
2, 26908, Note_on_c, 0, 62, 74
2, 26910, Note_on_c, 0, 52, 62
2, 26911, Note_on_c, 0, 80, 62
2, 26912, Note_on_c, 0, 92, 70
2, 26914, Note_on_c, 0, 55, 59
2, 26921, Note_on_c, 0, 86, 33
2, 26933, Note_on_c, 0, 93, 65
2, 26934, Note_on_c, 0, 88, 19
2, 26936, Note_on_c, 0, 80, 0
2, 26937, Note_on_c, 0, 92, 0
2, 26938, Note_on_c, 0, 81, 68
2, 26939, Note_on_c, 0, 91, 40
2, 26952, Note_on_c, 0, 91, 0
2, 26954, Note_on_c, 0, 93, 0
2, 26960, Note_on_c, 0, 81, 0
2, 26966, Note_on_c, 0, 52, 0
2, 26967, Note_on_c, 0, 62, 0
2, 26969, Note_on_c, 0, 86, 0
2, 26972, Note_on_c, 0, 88, 0
2, 26972, Note_on_c, 0, 55, 0
2, 26979, Note_on_c, 0, 59, 0
2, 27009, Note_on_c, 0, 59, 48
2, 27012, Note_on_c, 0, 62, 73
2, 27013, Note_on_c, 0, 91, 62
2, 27013, Note_on_c, 0, 55, 58
2, 27015, Note_on_c, 0, 52, 53
2, 27015, Note_on_c, 0, 85, 57
2, 27016, Note_on_c, 0, 87, 55
2, 27017, Note_on_c, 0, 79, 65
2, 27019, Note_on_c, 0, 89, 40
2, 27026, Note_on_c, 0, 87, 0
2, 27027, Note_on_c, 0, 85, 0
2, 27028, Note_on_c, 0, 89, 0
2, 27037, Note_on_c, 0, 91, 0
2, 27046, Note_on_c, 0, 79, 0
2, 27067, Note_on_c, 0, 62, 0
2, 27070, Note_on_c, 0, 52, 0
2, 27077, Note_on_c, 0, 55, 0
2, 27084, Note_on_c, 0, 59, 0
2, 27122, Note_on_c, 0, 87, 69
2, 27122, Note_on_c, 0, 80, 52
2, 27123, Note_on_c, 0, 59, 62
2, 27124, Note_on_c, 0, 75, 65
2, 27126, Note_on_c, 0, 62, 65
2, 27127, Note_on_c, 0, 55, 58
2, 27127, Note_on_c, 0, 52, 64
2, 27142, Note_on_c, 0, 81, 26
2, 27143, Note_on_c, 0, 80, 0
2, 27155, Note_on_c, 0, 87, 0
2, 27158, Note_on_c, 0, 75, 0
2, 27158, Note_on_c, 0, 76, 62
2, 27163, Note_on_c, 0, 88, 33
2, 27164, Note_on_c, 0, 86, 34
2, 27173, Note_on_c, 0, 88, 0
2, 27173, Note_on_c, 0, 62, 0
2, 27176, Note_on_c, 0, 86, 0
2, 27177, Note_on_c, 0, 52, 0
2, 27184, Note_on_c, 0, 76, 0
2, 27185, Note_on_c, 0, 81, 0
2, 27190, Note_on_c, 0, 55, 0
2, 27196, Note_on_c, 0, 59, 0
2, 27208, Note_on_c, 0, 59, 32
2, 27209, Note_on_c, 0, 84, 43
2, 27211, Note_on_c, 0, 52, 53
2, 27214, Note_on_c, 0, 62, 61
2, 27216, Note_on_c, 0, 55, 34
2, 27217, Note_on_c, 0, 71, 56
2, 27234, Note_on_c, 0, 71, 0
2, 27235, Note_on_c, 0, 84, 0
2, 27241, Note_on_c, 0, 55, 0
2, 27245, Note_on_c, 0, 52, 0
2, 27251, Note_on_c, 0, 59, 0
2, 27258, Note_on_c, 0, 62, 0
2, 27324, Note_on_c, 0, 64, 84
2, 27325, Note_on_c, 0, 57, 62
2, 27325, Note_on_c, 0, 60, 66
2, 27327, Note_on_c, 0, 53, 49
2, 27337, Note_on_c, 0, 53, 0
2, 27343, Note_on_c, 0, 64, 0
2, 27360, Note_on_c, 0, 60, 0
2, 27376, Note_on_c, 0, 57, 0
2, 27474, Note_on_c, 0, 60, 40
2, 27475, Note_on_c, 0, 57, 45
2, 27482, Note_on_c, 0, 60, 0
2, 27488, Note_on_c, 0, 57, 0
2, 27492, Note_on_c, 0, 77, 96
2, 27559, Note_on_c, 0, 77, 0
2, 27579, Note_on_c, 0, 77, 78
2, 27601, Note_on_c, 0, 63, 46
2, 27609, Note_on_c, 0, 60, 32
2, 27613, Note_on_c, 0, 63, 0
2, 27614, Note_on_c, 0, 54, 18
2, 27617, Note_on_c, 0, 57, 25
2, 27619, Note_on_c, 0, 77, 0
2, 27633, Note_on_c, 0, 76, 40
2, 27670, Note_on_c, 0, 60, 0
2, 27689, Note_on_c, 0, 76, 0
2, 27698, Note_on_c, 0, 77, 62
2, 27706, Note_on_c, 0, 63, 32
2, 27709, Note_on_c, 0, 60, 29
2, 27715, Note_on_c, 0, 63, 0
2, 27729, Note_on_c, 0, 77, 0
2, 27737, Note_on_c, 0, 60, 0
2, 27740, Note_on_c, 0, 57, 0
2, 27750, Note_on_c, 0, 78, 53
2, 27753, Note_on_c, 0, 54, 0
2, 27803, Note_on_c, 0, 78, 0
2, 27818, Note_on_c, 0, 64, 72
2, 27820, Note_on_c, 0, 55, 68
2, 27821, Note_on_c, 0, 81, 91
2, 27822, Note_on_c, 0, 60, 58
2, 27838, Note_on_c, 0, 64, 0
2, 27866, Note_on_c, 0, 81, 0
2, 27887, Note_on_c, 0, 79, 66
2, 27894, Note_on_c, 0, 60, 0
2, 27922, Note_on_c, 0, 55, 0
2, 27923, Note_on_c, 0, 79, 0
2, 27939, Note_on_c, 0, 55, 33
2, 27943, Note_on_c, 0, 64, 55
2, 27945, Note_on_c, 0, 76, 69
2, 27949, Note_on_c, 0, 60, 48
2, 27957, Note_on_c, 0, 64, 0
2, 27970, Note_on_c, 0, 60, 0
2, 27976, Note_on_c, 0, 76, 0
2, 27976, Note_on_c, 0, 55, 0
2, 27996, Note_on_c, 0, 72, 51
2, 28048, Note_on_c, 0, 72, 0
2, 28061, Note_on_c, 0, 67, 45
2, 28067, Note_on_c, 0, 58, 54
2, 28070, Note_on_c, 0, 67, 0
2, 28082, Note_on_c, 0, 59, 28
2, 28091, Note_on_c, 0, 59, 0
2, 28102, Note_on_c, 0, 62, 73
2, 28102, Note_on_c, 0, 74, 67
2, 28111, Note_on_c, 0, 58, 0
2, 28113, Note_on_c, 0, 63, 39
2, 28114, Note_on_c, 0, 67, 43
2, 28170, Note_on_c, 0, 67, 0
2, 28176, Note_on_c, 0, 62, 0
2, 28177, Note_on_c, 0, 63, 0
2, 28184, Note_on_c, 0, 74, 0
2, 28184, Note_on_c, 0, 58, 42
2, 28205, Note_on_c, 0, 58, 0
2, 28211, Note_on_c, 0, 72, 68
2, 28212, Note_on_c, 0, 63, 62
2, 28213, Note_on_c, 0, 67, 63
2, 28214, Note_on_c, 0, 60, 64
2, 28282, Note_on_c, 0, 72, 0
2, 28289, Note_on_c, 0, 67, 0
2, 28299, Note_on_c, 0, 63, 0
2, 28314, Note_on_c, 0, 60, 0
2, 28327, Note_on_c, 0, 58, 67
2, 28328, Note_on_c, 0, 70, 62
2, 28329, Note_on_c, 0, 67, 50
2, 28330, Note_on_c, 0, 62, 64
2, 28355, Note_on_c, 0, 58, 0
2, 28416, Note_on_c, 0, 67, 0
2, 28416, Note_on_c, 0, 46, 29
2, 28417, Note_on_c, 0, 45, 66
2, 28430, Note_on_c, 0, 70, 0
2, 28431, Note_on_c, 0, 62, 0
2, 28446, Note_on_c, 0, 45, 0
2, 28463, Note_on_c, 0, 51, 20
2, 28473, Note_on_c, 0, 51, 0
2, 28490, Note_on_c, 0, 46, 0
2, 28528, Note_on_c, 0, 61, 71
2, 28528, Note_on_c, 0, 58, 69
2, 28528, Note_on_c, 0, 64, 74
2, 28529, Note_on_c, 0, 45, 57
2, 28533, Note_on_c, 0, 55, 66
2, 28582, Note_on_c, 0, 58, 0
2, 28606, Note_on_c, 0, 61, 0
2, 28615, Note_on_c, 0, 64, 0
2, 28621, Note_on_c, 0, 55, 0
2, 28649, Note_on_c, 0, 52, 85
2, 28665, Note_on_c, 0, 45, 0
2, 28675, Note_on_c, 0, 75, 102
2, 28676, Note_on_c, 0, 52, 0
2, 28679, Note_on_c, 0, 87, 84
2, 28681, Note_on_c, 0, 80, 64
2, 28681, Note_on_c, 0, 85, 62
2, 28688, Note_on_c, 0, 80, 0
2, 28690, Note_on_c, 0, 85, 0
2, 28754, Note_on_c, 0, 87, 0
2, 28765, Note_on_c, 0, 75, 0
2, 28773, Note_on_c, 0, 88, 73
2, 28774, Note_on_c, 0, 76, 61
2, 28776, Note_on_c, 0, 81, 65
2, 28778, Note_on_c, 0, 64, 65
2, 28778, Note_on_c, 0, 84, 53
2, 28779, Note_on_c, 0, 60, 57
2, 28780, Note_on_c, 0, 54, 60
2, 28784, Note_on_c, 0, 86, 33
2, 28790, Note_on_c, 0, 76, 0
2, 28792, Note_on_c, 0, 88, 0
2, 28801, Note_on_c, 0, 86, 0
2, 28812, Note_on_c, 0, 84, 0
2, 28812, Note_on_c, 0, 81, 0
2, 28828, Note_on_c, 0, 87, 62
2, 28829, Note_on_c, 0, 75, 52
2, 28832, Note_on_c, 0, 64, 0
2, 28845, Note_on_c, 0, 81, 20
2, 28862, Note_on_c, 0, 81, 0
2, 28869, Note_on_c, 0, 87, 0
2, 28884, Note_on_c, 0, 75, 0
2, 28884, Note_on_c, 0, 54, 0
2, 28886, Note_on_c, 0, 60, 0
2, 28895, Note_on_c, 0, 87, 49
2, 28901, Note_on_c, 0, 88, 75
2, 28902, Note_on_c, 0, 76, 31
2, 28904, Note_on_c, 0, 81, 51
2, 28909, Note_on_c, 0, 88, 0
2, 28912, Note_on_c, 0, 64, 45
2, 28913, Note_on_c, 0, 87, 0
2, 28914, Note_on_c, 0, 76, 0
2, 28916, Note_on_c, 0, 81, 0
2, 28916, Note_on_c, 0, 54, 48
2, 28916, Note_on_c, 0, 60, 26
2, 28939, Note_on_c, 0, 84, 64
2, 28944, Note_on_c, 0, 72, 46
2, 28966, Note_on_c, 0, 60, 0
2, 29011, Note_on_c, 0, 72, 0
2, 29012, Note_on_c, 0, 84, 0
2, 29015, Note_on_c, 0, 64, 0
2, 29025, Note_on_c, 0, 54, 0
2, 29035, Note_on_c, 0, 81, 30
2, 29046, Note_on_c, 0, 81, 0
2, 29050, Note_on_c, 0, 64, 47
2, 29051, Note_on_c, 0, 54, 54
2, 29052, Note_on_c, 0, 60, 1
2, 29053, Note_on_c, 0, 84, 59
2, 29054, Note_on_c, 0, 72, 55
2, 29096, Note_on_c, 0, 64, 0
2, 29101, Note_on_c, 0, 54, 0
2, 29106, Note_on_c, 0, 72, 0
2, 29113, Note_on_c, 0, 60, 0
2, 29127, Note_on_c, 0, 84, 0
2, 29130, Note_on_c, 0, 54, 74
2, 29134, Note_on_c, 0, 60, 59
2, 29136, Note_on_c, 0, 64, 55
2, 29163, Control_c, 0, 64, 127
2, 29167, Note_on_c, 0, 60, 0
2, 29182, Note_on_c, 0, 64, 0
2, 29198, Note_on_c, 0, 54, 0
2, 29244, Note_on_c, 0, 59, 84
2, 29245, Note_on_c, 0, 87, 86
2, 29245, Note_on_c, 0, 53, 88
2, 29245, Note_on_c, 0, 64, 95
2, 29246, Note_on_c, 0, 75, 92
2, 29251, Note_on_c, 0, 88, 71
2, 29253, Note_on_c, 0, 82, 39
2, 29254, Control_c, 0, 64, 0
2, 29257, Note_on_c, 0, 85, 25
2, 29259, Note_on_c, 0, 88, 0
2, 29265, Note_on_c, 0, 82, 0
2, 29268, Note_on_c, 0, 88, 34
2, 29281, Control_c, 0, 64, 127
2, 29322, Note_on_c, 0, 88, 0
2, 29330, Note_on_c, 0, 53, 0
2, 29335, Note_on_c, 0, 64, 0
2, 29339, Note_on_c, 0, 75, 0
2, 29341, Note_on_c, 0, 87, 0
2, 29345, Note_on_c, 0, 85, 0
2, 29347, Note_on_c, 0, 59, 0
2, 29365, Note_on_c, 0, 59, 74
2, 29366, Note_on_c, 0, 88, 78
2, 29366, Note_on_c, 0, 53, 80
2, 29366, Note_on_c, 0, 76, 70
2, 29366, Note_on_c, 0, 64, 76
2, 29372, Note_on_c, 0, 82, 51
2, 29374, Note_on_c, 0, 86, 40
2, 29382, Control_c, 0, 64, 0
2, 29385, Note_on_c, 0, 86, 0
2, 29392, Note_on_c, 0, 76, 0
2, 29392, Note_on_c, 0, 82, 0
2, 29398, Note_on_c, 0, 88, 0
2, 29404, Note_on_c, 0, 64, 0
2, 29405, Note_on_c, 0, 53, 0
2, 29420, Note_on_c, 0, 53, 51
2, 29422, Note_on_c, 0, 64, 70
2, 29424, Note_on_c, 0, 77, 68
2, 29425, Note_on_c, 0, 89, 73
2, 29430, Note_on_c, 0, 64, 0
2, 29454, Note_on_c, 0, 89, 0
2, 29458, Note_on_c, 0, 53, 0
2, 29464, Note_on_c, 0, 77, 0
2, 29477, Note_on_c, 0, 59, 0
2, 29491, Note_on_c, 0, 90, 64
2, 29492, Note_on_c, 0, 78, 83
2, 29492, Note_on_c, 0, 59, 66
2, 29494, Note_on_c, 0, 53, 74
2, 29495, Note_on_c, 0, 64, 76
2, 29519, Note_on_c, 0, 53, 0
2, 29519, Note_on_c, 0, 78, 0
2, 29520, Note_on_c, 0, 64, 0
2, 29530, Note_on_c, 0, 90, 0
2, 29539, Note_on_c, 0, 59, 0
2, 29549, Note_on_c, 0, 59, 27
2, 29550, Note_on_c, 0, 53, 64
2, 29551, Note_on_c, 0, 64, 60
2, 29554, Note_on_c, 0, 78, 64
2, 29559, Note_on_c, 0, 91, 71
2, 29563, Note_on_c, 0, 85, 36
2, 29565, Note_on_c, 0, 79, 64
2, 29566, Note_on_c, 0, 89, 42
2, 29569, Note_on_c, 0, 78, 0
2, 29575, Note_on_c, 0, 85, 0
2, 29586, Note_on_c, 0, 91, 0
2, 29590, Note_on_c, 0, 89, 0
2, 29592, Note_on_c, 0, 64, 0
2, 29594, Note_on_c, 0, 79, 0
2, 29594, Note_on_c, 0, 53, 0
2, 29607, Note_on_c, 0, 59, 0
2, 29626, Note_on_c, 0, 87, 72
2, 29629, Note_on_c, 0, 75, 67
2, 29632, Note_on_c, 0, 59, 62
2, 29634, Note_on_c, 0, 53, 66
2, 29635, Note_on_c, 0, 64, 72
2, 29640, Note_on_c, 0, 75, 0
2, 29641, Note_on_c, 0, 88, 68
2, 29647, Note_on_c, 0, 76, 29
2, 29652, Note_on_c, 0, 77, 27
2, 29660, Note_on_c, 0, 77, 0
2, 29661, Note_on_c, 0, 88, 0
2, 29664, Note_on_c, 0, 87, 0
2, 29664, Note_on_c, 0, 76, 0
2, 29669, Note_on_c, 0, 64, 0
2, 29690, Note_on_c, 0, 59, 0
2, 29703, Note_on_c, 0, 59, 32
2, 29704, Note_on_c, 0, 83, 47
2, 29704, Note_on_c, 0, 71, 63
2, 29705, Note_on_c, 0, 64, 56
2, 29726, Note_on_c, 0, 71, 0
2, 29730, Note_on_c, 0, 64, 0
2, 29731, Note_on_c, 0, 83, 0
2, 29740, Note_on_c, 0, 53, 0
2, 29757, Note_on_c, 0, 59, 0
2, 29779, Note_on_c, 0, 59, 35
2, 29782, Note_on_c, 0, 62, 53
2, 29784, Note_on_c, 0, 86, 75
2, 29784, Note_on_c, 0, 74, 61
2, 29785, Note_on_c, 0, 52, 39
2, 29787, Note_on_c, 0, 55, 54
2, 29787, Note_on_c, 0, 85, 47
2, 29789, Note_on_c, 0, 76, 57
2, 29797, Note_on_c, 0, 76, 0
2, 29798, Note_on_c, 0, 85, 0
2, 29818, Note_on_c, 0, 86, 0
2, 29822, Note_on_c, 0, 62, 0
2, 29834, Note_on_c, 0, 52, 0
2, 29835, Note_on_c, 0, 55, 0
2, 29838, Note_on_c, 0, 74, 0
2, 29841, Note_on_c, 0, 59, 0
2, 29866, Note_on_c, 0, 84, 64
2, 29870, Note_on_c, 0, 59, 36
2, 29870, Note_on_c, 0, 62, 65
2, 29872, Note_on_c, 0, 72, 70
2, 29874, Note_on_c, 0, 55, 44
2, 29876, Note_on_c, 0, 52, 31
2, 29888, Note_on_c, 0, 84, 0
2, 29893, Note_on_c, 0, 72, 0
2, 29893, Note_on_c, 0, 62, 0
2, 29898, Note_on_c, 0, 55, 0
2, 29907, Note_on_c, 0, 59, 0
2, 29908, Note_on_c, 0, 52, 0
2, 29935, Note_on_c, 0, 79, 46
2, 29939, Note_on_c, 0, 62, 65
2, 29939, Note_on_c, 0, 67, 58
2, 29939, Note_on_c, 0, 59, 45
2, 29946, Note_on_c, 0, 55, 44
2, 29947, Note_on_c, 0, 77, 32
2, 29977, Note_on_c, 0, 67, 0
2, 29977, Note_on_c, 0, 74, 51
2, 29994, Note_on_c, 0, 79, 0
2, 29996, Note_on_c, 0, 77, 0
2, 30001, Note_on_c, 0, 62, 0
2, 30007, Note_on_c, 0, 74, 0
2, 30018, Note_on_c, 0, 79, 54
2, 30019, Note_on_c, 0, 67, 62
2, 30021, Note_on_c, 0, 62, 68
2, 30021, Note_on_c, 0, 52, 55
2, 30024, Note_on_c, 0, 74, 67
2, 30066, Note_on_c, 0, 74, 0
2, 30070, Note_on_c, 0, 79, 0
2, 30084, Note_on_c, 0, 62, 0
2, 30085, Note_on_c, 0, 67, 0
2, 30088, Note_on_c, 0, 59, 0
2, 30116, Note_on_c, 0, 52, 0
2, 30124, Note_on_c, 0, 59, 80
2, 30125, Note_on_c, 0, 74, 56
2, 30126, Note_on_c, 0, 71, 66
2, 30127, Note_on_c, 0, 57, 74
2, 30128, Note_on_c, 0, 67, 73
2, 30129, Note_on_c, 0, 64, 78
2, 30133, Note_on_c, 0, 55, 0
2, 30155, Note_on_c, 0, 57, 0
2, 30243, Note_on_c, 0, 71, 0
2, 30246, Note_on_c, 0, 67, 0
2, 30255, Note_on_c, 0, 74, 0
2, 30270, Note_on_c, 0, 64, 0
2, 30281, Note_on_c, 0, 53, 22
2, 30319, Note_on_c, 0, 59, 0
2, 30321, Note_on_c, 0, 54, 44
2, 30329, Note_on_c, 0, 56, 33
2, 30331, Note_on_c, 0, 72, 68
2, 30332, Note_on_c, 0, 65, 78
2, 30332, Note_on_c, 0, 61, 71
2, 30333, Note_on_c, 0, 69, 63
2, 30339, Note_on_c, 0, 53, 0
2, 30342, Note_on_c, 0, 57, 63
2, 30355, Note_on_c, 0, 54, 0
2, 30357, Note_on_c, 0, 56, 0
2, 30390, Note_on_c, 0, 61, 0
2, 30400, Note_on_c, 0, 65, 0
2, 30419, Note_on_c, 0, 69, 0
2, 30431, Note_on_c, 0, 72, 0
2, 30455, Note_on_c, 0, 54, 59
2, 30495, Note_on_c, 0, 54, 0
2, 30504, Note_on_c, 0, 84, 65
2, 30548, Note_on_c, 0, 84, 0
2, 30578, Note_on_c, 0, 54, 52
2, 30578, Note_on_c, 0, 93, 78
2, 30604, Note_on_c, 0, 93, 0
2, 30616, Note_on_c, 0, 57, 0
2, 30621, Note_on_c, 0, 86, 24
2, 30623, Note_on_c, 0, 54, 0
2, 30653, Note_on_c, 0, 87, 20
2, 30672, Note_on_c, 0, 87, 0
2, 30674, Note_on_c, 0, 88, 67
2, 30689, Note_on_c, 0, 86, 0
2, 30701, Note_on_c, 0, 88, 0
2, 30709, Note_on_c, 0, 93, 78
2, 30714, Note_on_c, 0, 64, 43
2, 30721, Note_on_c, 0, 60, 34
2, 30725, Note_on_c, 0, 64, 0
2, 30738, Note_on_c, 0, 60, 0
2, 30741, Note_on_c, 0, 93, 0
2, 30741, Note_on_c, 0, 86, 60
2, 30769, Note_on_c, 0, 87, 42
2, 30781, Note_on_c, 0, 86, 0
2, 30786, Note_on_c, 0, 93, 32
2, 30797, Note_on_c, 0, 87, 0
2, 30800, Note_on_c, 0, 88, 38
2, 30811, Note_on_c, 0, 86, 33
2, 30820, Note_on_c, 0, 88, 0
2, 30822, Note_on_c, 0, 93, 0
2, 30839, Note_on_c, 0, 86, 0
2, 30840, Note_on_c, 0, 84, 57
2, 30857, Note_on_c, 0, 84, 0
2, 30864, Note_on_c, 0, 86, 69
2, 30866, Note_on_c, 0, 93, 82
2, 30923, Note_on_c, 0, 93, 0
2, 30938, Note_on_c, 0, 86, 0
2, 30947, Note_on_c, 0, 81, 53
2, 30956, Note_on_c, 0, 60, 24
2, 30958, Note_on_c, 0, 81, 0
2, 30974, Note_on_c, 0, 60, 0
2, 30982, Note_on_c, 0, 84, 56
2, 31017, Note_on_c, 0, 84, 0
2, 31057, Note_on_c, 0, 58, 46
2, 31059, Note_on_c, 0, 64, 60
2, 31061, Note_on_c, 0, 60, 48
2, 31062, Note_on_c, 0, 54, 52
2, 31169, Note_on_c, 0, 54, 0
2, 31174, Note_on_c, 0, 64, 0
2, 31181, Note_on_c, 0, 60, 0
2, 31183, Note_on_c, 0, 58, 0
2, 31204, Note_on_c, 0, 65, 74
2, 31206, Note_on_c, 0, 55, 54
2, 31209, Note_on_c, 0, 57, 58
2, 31209, Note_on_c, 0, 60, 65
2, 31335, Note_on_c, 0, 65, 0
2, 31339, Note_on_c, 0, 60, 0
2, 31368, Note_on_c, 0, 55, 0
2, 31371, Note_on_c, 0, 57, 0
2, 31396, Note_on_c, 0, 64, 66
2, 31397, Note_on_c, 0, 59, 74
2, 31410, Note_on_c, 0, 53, 35
2, 31418, Note_on_c, 0, 64, 0
2, 31443, Note_on_c, 0, 82, 86
2, 31477, Note_on_c, 0, 80, 65
2, 31478, Note_on_c, 0, 59, 0
2, 31490, Note_on_c, 0, 82, 0
2, 31498, Note_on_c, 0, 53, 0
2, 31507, Note_on_c, 0, 78, 42
2, 31530, Note_on_c, 0, 80, 0
2, 31530, Note_on_c, 0, 59, 41
2, 31530, Note_on_c, 0, 64, 53
2, 31533, Note_on_c, 0, 53, 48
2, 31541, Note_on_c, 0, 75, 56
2, 31544, Note_on_c, 0, 64, 0
2, 31544, Note_on_c, 0, 78, 0
2, 31563, Note_on_c, 0, 75, 0
2, 31571, Note_on_c, 0, 59, 0
2, 31573, Note_on_c, 0, 71, 48
2, 31585, Note_on_c, 0, 53, 0
2, 31590, Note_on_c, 0, 71, 0
2, 31607, Note_on_c, 0, 70, 28
2, 31616, Note_on_c, 0, 70, 0
2, 31633, Note_on_c, 0, 69, 36
2, 31660, Note_on_c, 0, 69, 0
2, 31665, Note_on_c, 0, 68, 54
2, 31672, Note_on_c, 0, 57, 48
2, 31680, Note_on_c, 0, 52, 40
2, 31685, Note_on_c, 0, 68, 0
2, 31699, Note_on_c, 0, 67, 39
2, 31712, Note_on_c, 0, 57, 0
2, 31738, Note_on_c, 0, 67, 0
2, 31746, Note_on_c, 0, 52, 0
2, 31752, Note_on_c, 0, 64, 62
2, 31763, Note_on_c, 0, 64, 0
2, 31780, Note_on_c, 0, 57, 42
2, 31797, Note_on_c, 0, 57, 0
2, 31819, Note_on_c, 0, 64, 70
2, 31898, Note_on_c, 0, 57, 32
2, 31903, Note_on_c, 0, 53, 44
2, 31906, Note_on_c, 0, 64, 0
2, 31925, Note_on_c, 0, 57, 0
2, 31931, Note_on_c, 0, 65, 80
2, 31940, Note_on_c, 0, 53, 0
2, 31958, Note_on_c, 0, 65, 0
2, 31981, Note_on_c, 0, 62, 76
2, 32011, Note_on_c, 0, 62, 0
2, 32026, Note_on_c, 0, 60, 28
2, 32030, Note_on_c, 0, 57, 45
2, 32030, Note_on_c, 0, 53, 34
2, 32035, Note_on_c, 0, 60, 0
2, 32052, Note_on_c, 0, 62, 63
2, 32057, Note_on_c, 0, 53, 0
2, 32057, Note_on_c, 0, 57, 0
2, 32100, Note_on_c, 0, 62, 0
2, 32112, Note_on_c, 0, 67, 82
2, 32134, Note_on_c, 0, 62, 36
2, 32138, Note_on_c, 0, 59, 42
2, 32140, Note_on_c, 0, 67, 0
2, 32143, Note_on_c, 0, 55, 62
2, 32144, Note_on_c, 0, 62, 0
2, 32148, Note_on_c, 0, 54, 25
2, 32168, Note_on_c, 0, 54, 0
2, 32182, Note_on_c, 0, 64, 75
2, 32190, Note_on_c, 0, 59, 0
2, 32194, Note_on_c, 0, 55, 0
2, 32200, Note_on_c, 0, 64, 0
2, 32218, Note_on_c, 0, 64, 80
2, 32250, Note_on_c, 0, 64, 0
2, 32262, Note_on_c, 0, 62, 60
2, 32265, Note_on_c, 0, 59, 38
2, 32267, Note_on_c, 0, 52, 35
2, 32269, Note_on_c, 0, 55, 53
2, 32272, Note_on_c, 0, 62, 0
2, 32290, Note_on_c, 0, 52, 0
2, 32297, Note_on_c, 0, 69, 82
2, 32298, Note_on_c, 0, 55, 0
2, 32299, Note_on_c, 0, 67, 80
2, 32303, Note_on_c, 0, 59, 0
2, 32308, Note_on_c, 0, 67, 0
2, 32321, Note_on_c, 0, 69, 0
2, 32338, Note_on_c, 0, 69, 80
2, 32363, Note_on_c, 0, 69, 0
2, 32386, Note_on_c, 0, 64, 83
2, 32387, Note_on_c, 0, 60, 72
2, 32388, Note_on_c, 0, 53, 62
2, 32390, Note_on_c, 0, 57, 72
2, 32504, Note_on_c, 0, 65, 64
2, 32508, Note_on_c, 0, 64, 0
2, 32522, Note_on_c, 0, 65, 0
2, 32537, Note_on_c, 0, 53, 0
2, 32543, Note_on_c, 0, 60, 0
2, 32550, Note_on_c, 0, 69, 50
2, 32551, Note_on_c, 0, 57, 0
2, 32610, Note_on_c, 0, 69, 0
2, 32618, Note_on_c, 0, 76, 79
2, 32622, Note_on_c, 0, 62, 72
2, 32622, Note_on_c, 0, 58, 49
2, 32623, Note_on_c, 0, 57, 59
2, 32651, Note_on_c, 0, 76, 0
2, 32667, Note_on_c, 0, 70, 42
2, 32683, Note_on_c, 0, 52, 1
2, 32719, Note_on_c, 0, 52, 0
2, 32730, Note_on_c, 0, 57, 0
2, 32738, Note_on_c, 0, 58, 0
2, 32739, Note_on_c, 0, 62, 0
2, 32742, Note_on_c, 0, 70, 0
2, 32751, Note_on_c, 0, 67, 45
2, 32760, Note_on_c, 0, 67, 0
2, 32858, Note_on_c, 0, 67, 52
2, 32861, Note_on_c, 0, 56, 35
2, 32862, Note_on_c, 0, 62, 45
2, 32865, Note_on_c, 0, 60, 36
2, 32868, Note_on_c, 0, 67, 0
2, 32878, Note_on_c, 0, 60, 0
2, 32884, Note_on_c, 0, 56, 0
2, 32890, Note_on_c, 0, 62, 0
2, 32946, Note_on_c, 0, 72, 72
2, 32979, Note_on_c, 0, 72, 0
2, 32979, Note_on_c, 0, 76, 66
2, 32986, Note_on_c, 0, 62, 53
2, 32988, Note_on_c, 0, 67, 35
2, 32996, Note_on_c, 0, 60, 30
2, 32999, Note_on_c, 0, 67, 0
2, 33004, Note_on_c, 0, 56, 15
2, 33005, Note_on_c, 0, 76, 0
2, 33012, Note_on_c, 0, 62, 0
2, 33020, Note_on_c, 0, 60, 0
2, 33031, Note_on_c, 0, 56, 0
2, 33051, Note_on_c, 0, 89, 73
2, 33062, Note_on_c, 0, 89, 0
2, 33089, Note_on_c, 0, 93, 90
2, 33092, Note_on_c, 0, 61, 67
2, 33093, Note_on_c, 0, 60, 66
2, 33095, Note_on_c, 0, 65, 74
2, 33098, Note_on_c, 0, 58, 38
2, 33100, Note_on_c, 0, 55, 56
2, 33104, Note_on_c, 0, 65, 0
2, 33109, Note_on_c, 0, 55, 0
2, 33113, Note_on_c, 0, 58, 0
2, 33114, Note_on_c, 0, 93, 0
2, 33116, Note_on_c, 0, 60, 0
2, 33118, Note_on_c, 0, 61, 0
2, 33130, Note_on_c, 0, 55, 44
2, 33131, Note_on_c, 0, 61, 53
2, 33132, Note_on_c, 0, 65, 78
2, 33133, Note_on_c, 0, 96, 94
2, 33133, Note_on_c, 0, 60, 59
2, 33134, Note_on_c, 0, 84, 79
2, 33138, Note_on_c, 0, 58, 37
2, 33201, Note_on_c, 0, 96, 0
2, 33207, Note_on_c, 0, 55, 0
2, 33211, Note_on_c, 0, 65, 0
2, 33215, Note_on_c, 0, 84, 0
2, 33217, Note_on_c, 0, 61, 0
2, 33217, Note_on_c, 0, 60, 0
2, 33218, Note_on_c, 0, 58, 0
2, 33248, Note_on_c, 0, 65, 58
2, 33250, Note_on_c, 0, 61, 45
2, 33250, Note_on_c, 0, 60, 46
2, 33250, Note_on_c, 0, 94, 60
2, 33252, Note_on_c, 0, 55, 42
2, 33253, Note_on_c, 0, 82, 57
2, 33258, Note_on_c, 0, 58, 30
2, 33331, Note_on_c, 0, 94, 0
2, 33334, Note_on_c, 0, 55, 0
2, 33340, Note_on_c, 0, 65, 0
2, 33342, Note_on_c, 0, 82, 0
2, 33347, Note_on_c, 0, 60, 0
2, 33347, Note_on_c, 0, 58, 0
2, 33369, Note_on_c, 0, 92, 50
2, 33370, Note_on_c, 0, 80, 44
2, 33373, Note_on_c, 0, 65, 58
2, 33375, Note_on_c, 0, 60, 46
2, 33375, Note_on_c, 0, 55, 56
2, 33412, Note_on_c, 0, 92, 0
2, 33419, Note_on_c, 0, 80, 0
2, 33421, Note_on_c, 0, 81, 54
2, 33428, Note_on_c, 0, 55, 0
2, 33435, Note_on_c, 0, 81, 0
2, 33459, Note_on_c, 0, 55, 54
2, 33521, Note_on_c, 0, 60, 0
2, 33524, Note_on_c, 0, 55, 0
2, 33525, Note_on_c, 0, 65, 0
2, 33546, Note_on_c, 0, 61, 0
2, 33569, Note_on_c, 0, 64, 57
2, 33571, Note_on_c, 0, 60, 50
2, 33577, Note_on_c, 0, 54, 43
2, 33658, Note_on_c, 0, 60, 0
2, 33687, Note_on_c, 0, 60, 30
2, 33697, Note_on_c, 0, 93, 82
2, 33711, Note_on_c, 0, 64, 0
2, 33725, Note_on_c, 0, 93, 0
2, 33737, Note_on_c, 0, 86, 38
2, 33759, Note_on_c, 0, 60, 0
2, 33769, Note_on_c, 0, 87, 56
2, 33770, Note_on_c, 0, 54, 0
2, 33787, Note_on_c, 0, 86, 0
2, 33800, Note_on_c, 0, 88, 62
2, 33801, Note_on_c, 0, 87, 0
2, 33824, Note_on_c, 0, 88, 0
2, 33827, Note_on_c, 0, 86, 29
2, 33830, Note_on_c, 0, 60, 24
2, 33838, Note_on_c, 0, 86, 0
2, 33853, Note_on_c, 0, 60, 0
2, 33923, Note_on_c, 0, 54, 51
2, 33924, Note_on_c, 0, 60, 50
2, 33925, Note_on_c, 0, 64, 48
2, 34006, Note_on_c, 0, 64, 0
2, 34025, Note_on_c, 0, 60, 0
2, 34025, Note_on_c, 0, 54, 0
2, 34047, Note_on_c, 0, 84, 67
2, 34048, Note_on_c, 0, 64, 62
2, 34051, Note_on_c, 0, 60, 45
2, 34055, Note_on_c, 0, 57, 49
2, 34057, Note_on_c, 0, 53, 33
2, 34058, Note_on_c, 0, 64, 0
2, 34062, Note_on_c, 0, 84, 0
2, 34090, Note_on_c, 0, 86, 37
2, 34101, Note_on_c, 0, 60, 0
2, 34108, Note_on_c, 0, 57, 0
2, 34120, Note_on_c, 0, 53, 0
2, 34125, Note_on_c, 0, 87, 36
2, 34139, Note_on_c, 0, 86, 0
2, 34149, Note_on_c, 0, 88, 64
2, 34153, Note_on_c, 0, 87, 0
2, 34170, Note_on_c, 0, 88, 0
2, 34178, Note_on_c, 0, 91, 75
2, 34180, Note_on_c, 0, 64, 53
2, 34188, Note_on_c, 0, 60, 33
2, 34189, Note_on_c, 0, 64, 0
2, 34189, Note_on_c, 0, 57, 32
2, 34207, Note_on_c, 0, 60, 0
2, 34207, Note_on_c, 0, 91, 0
2, 34215, Note_on_c, 0, 86, 25
2, 34218, Note_on_c, 0, 57, 0
2, 34242, Note_on_c, 0, 87, 35
2, 34268, Note_on_c, 0, 87, 0
2, 34268, Note_on_c, 0, 88, 65
2, 34288, Note_on_c, 0, 86, 0
2, 34291, Note_on_c, 0, 88, 0
2, 34299, Note_on_c, 0, 91, 73
2, 34304, Note_on_c, 0, 59, 62
2, 34305, Note_on_c, 0, 64, 53
2, 34312, Note_on_c, 0, 53, 32
2, 34315, Note_on_c, 0, 64, 0
2, 34342, Note_on_c, 0, 87, 65
2, 34348, Note_on_c, 0, 91, 0
2, 34348, Note_on_c, 0, 53, 0
2, 34348, Note_on_c, 0, 59, 0
2, 34369, Note_on_c, 0, 87, 0
2, 34373, Note_on_c, 0, 86, 53
2, 34407, Note_on_c, 0, 86, 0
2, 34410, Note_on_c, 0, 84, 53
2, 34435, Note_on_c, 0, 84, 0
2, 34441, Note_on_c, 0, 79, 54
2, 34448, Note_on_c, 0, 59, 39
2, 34451, Note_on_c, 0, 64, 37
2, 34463, Note_on_c, 0, 53, 28
2, 34471, Note_on_c, 0, 79, 0
2, 34473, Note_on_c, 0, 77, 66
2, 34502, Note_on_c, 0, 64, 0
2, 34512, Note_on_c, 0, 53, 0
2, 34526, Note_on_c, 0, 77, 0
2, 34531, Note_on_c, 0, 59, 0
2, 34544, Note_on_c, 0, 59, 17
2, 34548, Note_on_c, 0, 75, 77
2, 34549, Note_on_c, 0, 62, 42
2, 34559, Note_on_c, 0, 55, 36
2, 34566, Note_on_c, 0, 62, 0
2, 34581, Note_on_c, 0, 52, 2
2, 34585, Note_on_c, 0, 75, 0
2, 34597, Note_on_c, 0, 59, 0
2, 34600, Note_on_c, 0, 76, 44
2, 34620, Note_on_c, 0, 55, 0
2, 34637, Note_on_c, 0, 76, 0
2, 34646, Note_on_c, 0, 77, 60
2, 34687, Note_on_c, 0, 76, 55
2, 34703, Note_on_c, 0, 77, 0
2, 34714, Note_on_c, 0, 52, 0
2, 34756, Note_on_c, 0, 76, 0
2, 34770, Note_on_c, 0, 72, 59
2, 34778, Note_on_c, 0, 59, 43
2, 34797, Note_on_c, 0, 59, 0
2, 34800, Note_on_c, 0, 72, 0
2, 34819, Note_on_c, 0, 67, 43
2, 34888, Note_on_c, 0, 67, 0
2, 34905, Note_on_c, 0, 59, 33
2, 34921, Note_on_c, 0, 59, 0
2, 34927, Note_on_c, 0, 64, 51
2, 34991, Note_on_c, 0, 64, 0
2, 35006, Note_on_c, 0, 51, 40
2, 35037, Note_on_c, 0, 51, 0
2, 35050, Note_on_c, 0, 65, 49
2, 35051, Note_on_c, 0, 55, 46
2, 35053, Note_on_c, 0, 60, 46
2, 35053, Note_on_c, 0, 53, 52
2, 35125, Note_on_c, 0, 65, 0
2, 35126, Note_on_c, 0, 55, 0
2, 35128, Note_on_c, 0, 53, 0
2, 35129, Note_on_c, 0, 60, 0
2, 35140, Note_on_c, 0, 52, 40
2, 35168, Note_on_c, 0, 52, 0
2, 35172, Note_on_c, 0, 65, 58
2, 35172, Note_on_c, 0, 53, 49
2, 35176, Note_on_c, 0, 60, 53
2, 35177, Note_on_c, 0, 55, 42
2, 35199, Control_c, 0, 64, 127
2, 35220, Note_on_c, 0, 55, 0
2, 35226, Note_on_c, 0, 65, 0
2, 35227, Note_on_c, 0, 60, 0
2, 35232, Note_on_c, 0, 53, 0
2, 35261, Note_on_c, 0, 67, 62
2, 35262, Control_c, 0, 64, 0
2, 35262, Note_on_c, 0, 57, 56
2, 35263, Note_on_c, 0, 62, 61
2, 35265, Note_on_c, 0, 43, 63
2, 35271, Note_on_c, 0, 57, 0
2, 35275, Note_on_c, 0, 43, 0
2, 35278, Note_on_c, 0, 62, 0
2, 35285, Note_on_c, 0, 67, 0
2, 35316, Control_c, 0, 64, 127
2, 35372, Control_c, 0, 64, 0
2, 35378, Note_on_c, 0, 73, 85
2, 35379, Note_on_c, 0, 53, 71
2, 35379, Note_on_c, 0, 59, 76
2, 35380, Note_on_c, 0, 79, 79
2, 35381, Note_on_c, 0, 67, 79
2, 35382, Note_on_c, 0, 64, 82
2, 35389, Note_on_c, 0, 57, 36
2, 35398, Note_on_c, 0, 57, 0
2, 35411, Note_on_c, 0, 73, 0
2, 35414, Note_on_c, 0, 74, 52
2, 35426, Note_on_c, 0, 67, 0
2, 35430, Note_on_c, 0, 74, 0
2, 35438, Note_on_c, 0, 79, 0
2, 35442, Note_on_c, 0, 64, 0
2, 35448, Note_on_c, 0, 53, 0
2, 35453, Note_on_c, 0, 59, 0
2, 35473, Note_on_c, 0, 59, 71
2, 35478, Note_on_c, 0, 62, 83
2, 35478, Note_on_c, 0, 71, 85
2, 35478, Note_on_c, 0, 83, 88
2, 35479, Note_on_c, 0, 76, 81
2, 35480, Note_on_c, 0, 52, 74
2, 35483, Note_on_c, 0, 55, 55
2, 35524, Note_on_c, 0, 71, 0
2, 35529, Note_on_c, 0, 76, 0
2, 35529, Note_on_c, 0, 62, 0
2, 35529, Note_on_c, 0, 52, 0
2, 35532, Note_on_c, 0, 83, 0
2, 35537, Note_on_c, 0, 55, 0
2, 35539, Note_on_c, 0, 59, 0
2, 35558, Note_on_c, 0, 79, 64
2, 35559, Note_on_c, 0, 62, 49
2, 35559, Note_on_c, 0, 52, 54
2, 35561, Note_on_c, 0, 59, 58
2, 35563, Note_on_c, 0, 67, 49
2, 35564, Note_on_c, 0, 74, 47
2, 35564, Note_on_c, 0, 55, 53
2, 35613, Note_on_c, 0, 67, 0
2, 35613, Note_on_c, 0, 62, 0
2, 35614, Note_on_c, 0, 79, 0
2, 35615, Note_on_c, 0, 52, 0
2, 35616, Note_on_c, 0, 74, 0
2, 35619, Note_on_c, 0, 55, 0
2, 35622, Note_on_c, 0, 59, 0
2, 35633, Note_on_c, 0, 79, 50
2, 35634, Note_on_c, 0, 62, 62
2, 35636, Note_on_c, 0, 67, 53
2, 35636, Note_on_c, 0, 74, 62
2, 35640, Note_on_c, 0, 59, 33
2, 35644, Note_on_c, 0, 55, 48
2, 35648, Note_on_c, 0, 74, 0
2, 35649, Note_on_c, 0, 67, 0
2, 35653, Note_on_c, 0, 79, 0
2, 35655, Note_on_c, 0, 62, 0
2, 35671, Note_on_c, 0, 59, 0
2, 35676, Note_on_c, 0, 55, 0
2, 35751, Note_on_c, 0, 59, 60
2, 35751, Note_on_c, 0, 62, 70
2, 35755, Note_on_c, 0, 55, 54
2, 35760, Note_on_c, 0, 62, 0
2, 35768, Note_on_c, 0, 55, 0
2, 35774, Note_on_c, 0, 59, 0
2, 35869, Note_on_c, 0, 60, 58
2, 35871, Note_on_c, 0, 55, 39
2, 35872, Note_on_c, 0, 59, 42
2, 35877, Note_on_c, 0, 60, 0
2, 35882, Note_on_c, 0, 55, 0
2, 35883, Note_on_c, 0, 59, 0
2, 35908, Note_on_c, 0, 69, 46
2, 35965, Note_on_c, 0, 69, 0
2, 35980, Note_on_c, 0, 77, 78
2, 35983, Note_on_c, 0, 62, 58
2, 35984, Note_on_c, 0, 65, 60
2, 35988, Note_on_c, 0, 57, 51
2, 35993, Note_on_c, 0, 65, 0
2, 36020, Note_on_c, 0, 77, 0
2, 36030, Note_on_c, 0, 74, 33
2, 36046, Note_on_c, 0, 62, 0
2, 36052, Note_on_c, 0, 57, 0
2, 36086, Note_on_c, 0, 74, 0
2, 36095, Note_on_c, 0, 69, 74
2, 36101, Note_on_c, 0, 62, 53
2, 36102, Note_on_c, 0, 57, 59
2, 36102, Note_on_c, 0, 65, 61
2, 36110, Note_on_c, 0, 65, 0
2, 36118, Note_on_c, 0, 69, 0
2, 36152, Note_on_c, 0, 62, 0
2, 36182, Note_on_c, 0, 69, 1
2, 36184, Note_on_c, 0, 57, 0
2, 36209, Note_on_c, 0, 69, 0
2, 36219, Note_on_c, 0, 64, 20
2, 36223, Note_on_c, 0, 62, 24
2, 36230, Note_on_c, 0, 64, 0
2, 36251, Note_on_c, 0, 56, 60
2, 36254, Note_on_c, 0, 74, 81
2, 36284, Note_on_c, 0, 62, 0
2, 36338, Note_on_c, 0, 62, 47
2, 36343, Note_on_c, 0, 74, 0
2, 36364, Note_on_c, 0, 62, 0
2, 36371, Note_on_c, 0, 71, 81
2, 36423, Note_on_c, 0, 56, 0
2, 36441, Note_on_c, 0, 71, 0
2, 36454, Note_on_c, 0, 74, 74
2, 36457, Note_on_c, 0, 57, 40
2, 36459, Note_on_c, 0, 64, 55
2, 36459, Note_on_c, 0, 60, 53
2, 36487, Note_on_c, 0, 74, 0
2, 36509, Note_on_c, 0, 64, 0
2, 36511, Note_on_c, 0, 72, 53
2, 36536, Note_on_c, 0, 60, 0
2, 36557, Note_on_c, 0, 72, 0
2, 36577, Note_on_c, 0, 69, 67
2, 36582, Note_on_c, 0, 64, 35
2, 36586, Note_on_c, 0, 60, 36
2, 36592, Note_on_c, 0, 64, 0
2, 36608, Note_on_c, 0, 69, 0
2, 36629, Note_on_c, 0, 64, 19
2, 36661, Note_on_c, 0, 57, 0
2, 36676, Note_on_c, 0, 60, 0
2, 36693, Note_on_c, 0, 56, 62
2, 36696, Note_on_c, 0, 64, 0
2, 36723, Note_on_c, 0, 56, 0
2, 36732, Note_on_c, 0, 64, 71
2, 36733, Note_on_c, 0, 60, 41
2, 36734, Note_on_c, 0, 55, 62
2, 36798, Note_on_c, 0, 55, 0
2, 36800, Note_on_c, 0, 64, 0
2, 36803, Note_on_c, 0, 60, 0
2, 36847, Note_on_c, 0, 55, 56
2, 36848, Note_on_c, 0, 63, 64
2, 36855, Note_on_c, 0, 60, 42
2, 36899, Note_on_c, 0, 55, 0
2, 36913, Note_on_c, 0, 63, 0
2, 36934, Note_on_c, 0, 64, 58
2, 36941, Note_on_c, 0, 60, 0
2, 36956, Note_on_c, 0, 64, 0
2, 36961, Note_on_c, 0, 60, 18
2, 36968, Note_on_c, 0, 54, 38
2, 36974, Note_on_c, 0, 69, 74
2, 37022, Note_on_c, 0, 54, 0
2, 37031, Note_on_c, 0, 60, 0
2, 37044, Note_on_c, 0, 69, 0
2, 37061, Note_on_c, 0, 54, 59
2, 37063, Note_on_c, 0, 60, 33
2, 37074, Note_on_c, 0, 60, 0
2, 37091, Note_on_c, 0, 54, 0
2, 37093, Note_on_c, 0, 69, 78
2, 37161, Note_on_c, 0, 69, 0
2, 37170, Note_on_c, 0, 66, 53
2, 37175, Note_on_c, 0, 63, 57
2, 37176, Note_on_c, 0, 59, 58
2, 37178, Note_on_c, 0, 57, 53
2, 37181, Note_on_c, 0, 47, 40
2, 37247, Note_on_c, 0, 57, 0
2, 37290, Note_on_c, 0, 49, 32
2, 37300, Note_on_c, 0, 47, 0
2, 37323, Note_on_c, 0, 51, 57
2, 37350, Note_on_c, 0, 66, 0
2, 37357, Note_on_c, 0, 63, 0
2, 37377, Note_on_c, 0, 49, 0
2, 37394, Note_on_c, 0, 59, 0
2, 37416, Note_on_c, 0, 51, 0
2, 37450, Note_on_c, 0, 59, 72
2, 37452, Note_on_c, 0, 71, 63
2, 37452, Note_on_c, 0, 63, 58
2, 37452, Note_on_c, 0, 68, 50
2, 37535, Note_on_c, 0, 56, 64
2, 37556, Note_on_c, 0, 59, 0
2, 37570, Control_c, 0, 64, 127
2, 37571, Note_on_c, 0, 63, 0
2, 37582, Note_on_c, 0, 68, 0
2, 37583, Note_on_c, 0, 56, 0
2, 37591, Note_on_c, 0, 71, 0
2, 37669, Control_c, 0, 64, 0
2, 37689, Note_on_c, 0, 54, 37
2, 37689, Note_on_c, 0, 61, 42
2, 37689, Note_on_c, 0, 64, 50
2, 37689, Note_on_c, 0, 57, 47
2, 37692, Control_c, 0, 64, 127
2, 37692, Note_on_c, 0, 81, 40
2, 37692, Note_on_c, 0, 69, 50
2, 37696, Note_on_c, 0, 67, 26
2, 37699, Note_on_c, 0, 79, 24
2, 37704, Note_on_c, 0, 67, 0
2, 37721, Note_on_c, 0, 79, 0
2, 37721, Note_on_c, 0, 64, 0
2, 37721, Note_on_c, 0, 69, 0
2, 37731, Note_on_c, 0, 81, 0
2, 37733, Note_on_c, 0, 61, 0
2, 37734, Note_on_c, 0, 54, 0
2, 37737, Note_on_c, 0, 57, 0
2, 37773, Note_on_c, 0, 71, 64
2, 37774, Note_on_c, 0, 83, 72
2, 37779, Note_on_c, 0, 61, 37
2, 37781, Note_on_c, 0, 57, 37
2, 37784, Note_on_c, 0, 82, 45
2, 37785, Note_on_c, 0, 71, 0
2, 37786, Note_on_c, 0, 83, 0
2, 37788, Note_on_c, 0, 61, 0
2, 37792, Note_on_c, 0, 57, 0
2, 37793, Control_c, 0, 64, 0
2, 37799, Note_on_c, 0, 82, 0
2, 37811, Note_on_c, 0, 64, 70
2, 37811, Note_on_c, 0, 54, 64
2, 37812, Note_on_c, 0, 61, 53
2, 37814, Note_on_c, 0, 57, 75
2, 37817, Note_on_c, 0, 73, 82
2, 37817, Note_on_c, 0, 85, 84
2, 37822, Control_c, 0, 64, 127
2, 37864, Note_on_c, 0, 61, 0
2, 37865, Note_on_c, 0, 64, 0
2, 37871, Note_on_c, 0, 73, 0
2, 37875, Note_on_c, 0, 85, 0
2, 37876, Note_on_c, 0, 54, 0
2, 37883, Note_on_c, 0, 57, 0
2, 37897, Control_c, 0, 64, 0
2, 37902, Note_on_c, 0, 75, 77
2, 37902, Note_on_c, 0, 87, 83
2, 37905, Note_on_c, 0, 63, 62
2, 37905, Note_on_c, 0, 54, 42
2, 37907, Note_on_c, 0, 57, 50
2, 37908, Note_on_c, 0, 59, 55
2, 37943, Note_on_c, 0, 63, 0
2, 37947, Note_on_c, 0, 57, 0
2, 37954, Note_on_c, 0, 54, 0
2, 37959, Note_on_c, 0, 75, 0
2, 37959, Note_on_c, 0, 59, 0
2, 37962, Note_on_c, 0, 87, 0
2, 37980, Note_on_c, 0, 54, 34
2, 37981, Note_on_c, 0, 63, 46
2, 37983, Note_on_c, 0, 88, 69
2, 37984, Note_on_c, 0, 76, 66
2, 37988, Note_on_c, 0, 59, 54
2, 37991, Note_on_c, 0, 86, 32
2, 37997, Note_on_c, 0, 57, 24
2, 38001, Note_on_c, 0, 86, 0
2, 38011, Note_on_c, 0, 59, 0
2, 38011, Note_on_c, 0, 57, 0
2, 38015, Note_on_c, 0, 76, 0
2, 38020, Note_on_c, 0, 88, 0
2, 38024, Note_on_c, 0, 63, 0
2, 38024, Note_on_c, 0, 54, 0
2, 38053, Note_on_c, 0, 64, 68
2, 38055, Note_on_c, 0, 61, 55
2, 38057, Note_on_c, 0, 54, 32
2, 38059, Note_on_c, 0, 57, 51
2, 38059, Note_on_c, 0, 78, 67
2, 38063, Note_on_c, 0, 90, 58
2, 38093, Note_on_c, 0, 64, 0
2, 38103, Note_on_c, 0, 78, 0
2, 38104, Note_on_c, 0, 90, 0
2, 38112, Note_on_c, 0, 54, 0
2, 38113, Note_on_c, 0, 57, 0
2, 38117, Note_on_c, 0, 61, 0
2, 38137, Note_on_c, 0, 61, 57
2, 38138, Note_on_c, 0, 54, 69
2, 38142, Note_on_c, 0, 64, 62
2, 38142, Note_on_c, 0, 80, 73
2, 38143, Note_on_c, 0, 92, 72
2, 38145, Note_on_c, 0, 57, 41
2, 38156, Note_on_c, 0, 57, 0
2, 38160, Note_on_c, 0, 64, 0
2, 38173, Note_on_c, 0, 54, 0
2, 38180, Note_on_c, 0, 61, 0
2, 38190, Note_on_c, 0, 80, 0
2, 38191, Note_on_c, 0, 92, 0
2, 38216, Note_on_c, 0, 55, 68
2, 38217, Note_on_c, 0, 61, 49
2, 38219, Note_on_c, 0, 66, 67
2, 38221, Note_on_c, 0, 93, 71
2, 38222, Note_on_c, 0, 81, 75
2, 38228, Note_on_c, 0, 91, 40
2, 38237, Note_on_c, 0, 91, 0
2, 38250, Note_on_c, 0, 93, 0
2, 38252, Note_on_c, 0, 81, 0
2, 38256, Note_on_c, 0, 55, 0
2, 38269, Note_on_c, 0, 66, 0
2, 38284, Note_on_c, 0, 61, 0
2, 38298, Note_on_c, 0, 55, 68
2, 38298, Note_on_c, 0, 61, 53
2, 38300, Note_on_c, 0, 66, 57
2, 38301, Note_on_c, 0, 94, 74
2, 38302, Note_on_c, 0, 82, 77
2, 38331, Note_on_c, 0, 66, 0
2, 38334, Note_on_c, 0, 55, 0
2, 38353, Note_on_c, 0, 94, 0
2, 38354, Note_on_c, 0, 82, 0
2, 38365, Note_on_c, 0, 61, 0
2, 38380, Note_on_c, 0, 54, 52
2, 38381, Note_on_c, 0, 57, 48
2, 38381, Note_on_c, 0, 64, 57
2, 38381, Note_on_c, 0, 83, 64
2, 38382, Note_on_c, 0, 95, 66
2, 38384, Note_on_c, 0, 60, 50
2, 38416, Note_on_c, 0, 95, 0
2, 38419, Note_on_c, 0, 83, 0
2, 38430, Note_on_c, 0, 64, 0
2, 38433, Note_on_c, 0, 54, 0
2, 38438, Note_on_c, 0, 57, 0
2, 38439, Note_on_c, 0, 60, 0
2, 38460, Note_on_c, 0, 96, 75
2, 38462, Note_on_c, 0, 54, 32
2, 38462, Note_on_c, 0, 64, 38
2, 38464, Note_on_c, 0, 57, 44
2, 38466, Note_on_c, 0, 60, 48
2, 38505, Note_on_c, 0, 96, 0
2, 38510, Note_on_c, 0, 60, 0
2, 38531, Note_on_c, 0, 60, 17
2, 38535, Note_on_c, 0, 92, 59
2, 38542, Note_on_c, 0, 64, 0
2, 38556, Note_on_c, 0, 60, 0
2, 38559, Note_on_c, 0, 54, 0
2, 38569, Note_on_c, 0, 57, 0
2, 38583, Note_on_c, 0, 93, 61
2, 38584, Note_on_c, 0, 92, 0
2, 38607, Note_on_c, 0, 93, 0
2, 38623, Note_on_c, 0, 84, 51
2, 38628, Note_on_c, 0, 60, 20
2, 38640, Note_on_c, 0, 60, 0
2, 38656, Note_on_c, 0, 84, 0
2, 38729, Note_on_c, 0, 65, 60
2, 38729, Note_on_c, 0, 60, 51
2, 38732, Note_on_c, 0, 54, 39
2, 38735, Note_on_c, 0, 58, 45
2, 38814, Note_on_c, 0, 65, 0
2, 38817, Note_on_c, 0, 60, 0
2, 38867, Note_on_c, 0, 58, 0
2, 38871, Note_on_c, 0, 54, 0
2, 38881, Note_on_c, 0, 53, 51
2, 38882, Note_on_c, 0, 64, 48
2, 38884, Note_on_c, 0, 59, 49
2, 39039, Note_on_c, 0, 64, 0
2, 39069, Note_on_c, 0, 59, 0
2, 39096, Note_on_c, 0, 59, 55
2, 39098, Note_on_c, 0, 64, 34
2, 39099, Note_on_c, 0, 93, 105
2, 39114, Note_on_c, 0, 64, 0
2, 39139, Note_on_c, 0, 93, 0
2, 39159, Note_on_c, 0, 53, 0
2, 39175, Note_on_c, 0, 59, 0
2, 39178, Note_on_c, 0, 87, 84
2, 39219, Note_on_c, 0, 59, 46
2, 39226, Note_on_c, 0, 87, 0
2, 39244, Note_on_c, 0, 59, 0
2, 39258, Note_on_c, 0, 84, 68
2, 39319, Note_on_c, 0, 84, 0
2, 39339, Note_on_c, 0, 81, 71
2, 39340, Note_on_c, 0, 59, 56
2, 39342, Note_on_c, 0, 64, 38
2, 39353, Note_on_c, 0, 64, 0
2, 39373, Note_on_c, 0, 81, 0
2, 39374, Note_on_c, 0, 59, 0
2, 39419, Note_on_c, 0, 75, 76
2, 39437, Note_on_c, 0, 81, 32
2, 39460, Note_on_c, 0, 62, 34
2, 39465, Note_on_c, 0, 57, 51
2, 39469, Note_on_c, 0, 62, 0
2, 39474, Note_on_c, 0, 57, 0
2, 39482, Note_on_c, 0, 75, 0
2, 39483, Note_on_c, 0, 81, 0
2, 39499, Note_on_c, 0, 72, 59
2, 39542, Note_on_c, 0, 72, 0
2, 39569, Note_on_c, 0, 54, 70
2, 39573, Note_on_c, 0, 55, 74
2, 39577, Note_on_c, 0, 69, 74
2, 39586, Note_on_c, 0, 54, 0
2, 39600, Note_on_c, 0, 69, 0
2, 39655, Note_on_c, 0, 63, 64
2, 39724, Note_on_c, 0, 63, 0
2, 39734, Note_on_c, 0, 55, 0
2, 39739, Note_on_c, 0, 51, 19
2, 39742, Note_on_c, 0, 60, 61
2, 39757, Note_on_c, 0, 51, 0
2, 39798, Note_on_c, 0, 60, 0
2, 39824, Note_on_c, 0, 57, 40
2, 39880, Note_on_c, 0, 57, 0
2, 39898, Note_on_c, 0, 55, 31
2, 39949, Note_on_c, 0, 55, 0
2, 39974, Note_on_c, 0, 60, 51
2, 39975, Note_on_c, 0, 53, 60
2, 40015, Note_on_c, 0, 60, 0
2, 40053, Note_on_c, 0, 53, 0
2, 40053, Note_on_c, 0, 51, 58
2, 40086, Note_on_c, 0, 51, 0
2, 40106, Note_on_c, 0, 52, 37
2, 40120, Control_c, 0, 64, 127
2, 40127, Note_on_c, 0, 52, 0
2, 40168, Control_c, 0, 64, 0
2, 40173, Note_on_c, 0, 47, 64
2, 40183, Note_on_c, 0, 47, 0
2, 40208, Control_c, 0, 64, 127
2, 40268, Control_c, 0, 64, 0
2, 40286, Note_on_c, 0, 73, 83
2, 40287, Note_on_c, 0, 79, 78
2, 40287, Note_on_c, 0, 67, 83
2, 40289, Note_on_c, 0, 52, 57
2, 40289, Note_on_c, 0, 58, 60
2, 40290, Note_on_c, 0, 62, 75
2, 40291, Note_on_c, 0, 57, 72
2, 40299, Note_on_c, 0, 77, 24
2, 40307, Note_on_c, 0, 77, 0
2, 40325, Note_on_c, 0, 73, 0
2, 40332, Note_on_c, 0, 74, 37
2, 40417, Note_on_c, 0, 62, 0
2, 40422, Note_on_c, 0, 58, 0
2, 40423, Note_on_c, 0, 67, 0
2, 40433, Note_on_c, 0, 74, 0
2, 40437, Note_on_c, 0, 79, 0
2, 40447, Note_on_c, 0, 62, 27
2, 40448, Note_on_c, 0, 67, 51
2, 40449, Note_on_c, 0, 76, 49
2, 40452, Note_on_c, 0, 58, 40
2, 40503, Note_on_c, 0, 58, 0
2, 40505, Note_on_c, 0, 62, 0
2, 40507, Note_on_c, 0, 67, 0
2, 40513, Note_on_c, 0, 52, 0
2, 40515, Note_on_c, 0, 57, 0
2, 40518, Note_on_c, 0, 76, 0
2, 40565, Note_on_c, 0, 57, 44
2, 40567, Note_on_c, 0, 62, 41
2, 40569, Note_on_c, 0, 58, 36
2, 40570, Note_on_c, 0, 76, 47
2, 40575, Note_on_c, 0, 52, 38
2, 40576, Note_on_c, 0, 67, 43
2, 40599, Note_on_c, 0, 67, 0
2, 40599, Note_on_c, 0, 62, 0
2, 40599, Note_on_c, 0, 58, 0
2, 40606, Note_on_c, 0, 57, 0
2, 40608, Note_on_c, 0, 52, 0
2, 40622, Note_on_c, 0, 76, 0
2, 40771, Note_on_c, 0, 87, 81
2, 40772, Note_on_c, 0, 61, 65
2, 40773, Note_on_c, 0, 60, 62
2, 40775, Note_on_c, 0, 65, 78
2, 40775, Note_on_c, 0, 55, 68
2, 40776, Note_on_c, 0, 91, 65
2, 40777, Note_on_c, 0, 89, 73
2, 40777, Note_on_c, 0, 79, 55
2, 40778, Note_on_c, 0, 77, 64
2, 40778, Note_on_c, 0, 58, 48
2, 40781, Note_on_c, 0, 85, 48
2, 40790, Note_on_c, 0, 77, 0
2, 40791, Note_on_c, 0, 79, 0
2, 40794, Note_on_c, 0, 85, 0
2, 40803, Note_on_c, 0, 65, 0
2, 40808, Note_on_c, 0, 89, 0
2, 40811, Note_on_c, 0, 91, 0
2, 40813, Note_on_c, 0, 55, 0
2, 40813, Note_on_c, 0, 87, 0
2, 40819, Note_on_c, 0, 58, 0
2, 40820, Note_on_c, 0, 60, 0
2, 40825, Note_on_c, 0, 61, 0
2, 40847, Note_on_c, 0, 91, 74
2, 40848, Note_on_c, 0, 61, 50
2, 40851, Note_on_c, 0, 85, 65
2, 40851, Note_on_c, 0, 79, 59
2, 40851, Note_on_c, 0, 60, 57
2, 40854, Note_on_c, 0, 55, 62
2, 40854, Note_on_c, 0, 88, 54
2, 40854, Note_on_c, 0, 65, 68
2, 40860, Note_on_c, 0, 58, 33
2, 40862, Note_on_c, 0, 88, 0
2, 40875, Note_on_c, 0, 85, 0
2, 40877, Note_on_c, 0, 91, 0
2, 40880, Note_on_c, 0, 65, 0
2, 40882, Note_on_c, 0, 79, 0
2, 40886, Note_on_c, 0, 55, 0
2, 40890, Note_on_c, 0, 60, 0
2, 40897, Note_on_c, 0, 61, 0
2, 40899, Note_on_c, 0, 58, 0
2, 40935, Note_on_c, 0, 76, 53
2, 40935, Note_on_c, 0, 61, 55
2, 40936, Note_on_c, 0, 65, 64
2, 40936, Note_on_c, 0, 88, 49
2, 40937, Note_on_c, 0, 60, 49
2, 40939, Note_on_c, 0, 55, 48
2, 40942, Note_on_c, 0, 58, 33
2, 40963, Note_on_c, 0, 65, 0
2, 40972, Note_on_c, 0, 60, 0
2, 40975, Note_on_c, 0, 55, 0
2, 40981, Note_on_c, 0, 61, 0
2, 40982, Note_on_c, 0, 76, 0
2, 40984, Note_on_c, 0, 58, 0
2, 40988, Note_on_c, 0, 88, 0
2, 41014, Note_on_c, 0, 76, 50
2, 41016, Note_on_c, 0, 88, 36
2, 41018, Note_on_c, 0, 65, 66
2, 41020, Note_on_c, 0, 61, 44
2, 41021, Note_on_c, 0, 60, 49
2, 41024, Note_on_c, 0, 84, 29
2, 41024, Note_on_c, 0, 58, 29
2, 41025, Note_on_c, 0, 76, 0
2, 41028, Note_on_c, 0, 65, 0
2, 41031, Note_on_c, 0, 60, 0
2, 41032, Note_on_c, 0, 84, 0
2, 41042, Note_on_c, 0, 88, 0
2, 41042, Note_on_c, 0, 61, 0
2, 41049, Note_on_c, 0, 58, 0
2, 41129, Note_on_c, 0, 60, 70
2, 41129, Note_on_c, 0, 61, 64
2, 41131, Note_on_c, 0, 79, 73
2, 41132, Note_on_c, 0, 87, 67
2, 41132, Note_on_c, 0, 65, 79
2, 41132, Note_on_c, 0, 91, 66
2, 41135, Note_on_c, 0, 58, 37
2, 41140, Note_on_c, 0, 55, 33
2, 41141, Note_on_c, 0, 65, 0
2, 41141, Note_on_c, 0, 89, 27
2, 41146, Note_on_c, 0, 79, 0
2, 41150, Note_on_c, 0, 87, 0
2, 41150, Note_on_c, 0, 60, 0
2, 41154, Note_on_c, 0, 89, 0
2, 41159, Note_on_c, 0, 61, 0
2, 41163, Note_on_c, 0, 55, 0
2, 41164, Note_on_c, 0, 91, 0
2, 41169, Note_on_c, 0, 58, 0
2, 41249, Note_on_c, 0, 93, 92
2, 41249, Note_on_c, 0, 57, 74
2, 41249, Note_on_c, 0, 60, 81
2, 41250, Note_on_c, 0, 64, 90
2, 41250, Note_on_c, 0, 81, 91
2, 41250, Note_on_c, 0, 89, 82
2, 41251, Note_on_c, 0, 54, 84
2, 41256, Note_on_c, 0, 91, 45
2, 41266, Note_on_c, 0, 91, 0
2, 41332, Note_on_c, 0, 93, 0
2, 41333, Note_on_c, 0, 89, 0
2, 41348, Note_on_c, 0, 81, 0
2, 41380, Note_on_c, 0, 54, 0
2, 41382, Note_on_c, 0, 64, 0
2, 41390, Note_on_c, 0, 57, 0
2, 41395, Note_on_c, 0, 60, 0
2, 41406, Note_on_c, 0, 64, 58
2, 41407, Note_on_c, 0, 54, 48
2, 41408, Note_on_c, 0, 86, 57
2, 41412, Note_on_c, 0, 60, 34
2, 41412, Note_on_c, 0, 57, 49
2, 41413, Note_on_c, 0, 74, 44
2, 41414, Note_on_c, 0, 81, 56
2, 41472, Note_on_c, 0, 81, 0
2, 41473, Note_on_c, 0, 74, 0
2, 41475, Note_on_c, 0, 64, 0
2, 41478, Note_on_c, 0, 86, 0
2, 41479, Note_on_c, 0, 54, 0
2, 41485, Note_on_c, 0, 57, 0
2, 41487, Note_on_c, 0, 60, 0
2, 41527, Note_on_c, 0, 54, 42
2, 41528, Note_on_c, 0, 64, 55
2, 41530, Note_on_c, 0, 86, 55
2, 41532, Note_on_c, 0, 57, 48
2, 41533, Note_on_c, 0, 74, 36
2, 41533, Note_on_c, 0, 60, 53
2, 41535, Note_on_c, 0, 81, 50
2, 41557, Note_on_c, 0, 86, 0
2, 41557, Note_on_c, 0, 64, 0
2, 41562, Note_on_c, 0, 81, 0
2, 41564, Note_on_c, 0, 60, 0
2, 41569, Note_on_c, 0, 57, 0
2, 41570, Note_on_c, 0, 74, 0
2, 41578, Note_on_c, 0, 54, 0
2, 41642, Note_on_c, 0, 56, 76
2, 41642, Note_on_c, 0, 72, 63
2, 41643, Note_on_c, 0, 57, 84
2, 41645, Note_on_c, 0, 65, 77
2, 41646, Note_on_c, 0, 62, 75
2, 41647, Note_on_c, 0, 69, 63
2, 41660, Note_on_c, 0, 56, 0
2, 41677, Note_on_c, 0, 65, 0
2, 41683, Note_on_c, 0, 69, 0
2, 41685, Note_on_c, 0, 57, 0
2, 41687, Note_on_c, 0, 62, 0
2, 41689, Note_on_c, 0, 72, 0
2, 41759, Note_on_c, 0, 50, 16
2, 41767, Note_on_c, 0, 69, 66
2, 41769, Note_on_c, 0, 65, 69
2, 41769, Note_on_c, 0, 53, 66
2, 41769, Note_on_c, 0, 60, 66
2, 41778, Note_on_c, 0, 50, 0
2, 41826, Note_on_c, 0, 60, 0
2, 41833, Note_on_c, 0, 65, 0
2, 41838, Note_on_c, 0, 69, 0
2, 41838, Note_on_c, 0, 53, 0
2, 41890, Note_on_c, 0, 43, 51
2, 41892, Note_on_c, 0, 68, 71
2, 41893, Note_on_c, 0, 53, 55
2, 41897, Note_on_c, 0, 59, 68
2, 41902, Note_on_c, 0, 64, 48
2, 41951, Note_on_c, 0, 53, 0
2, 41953, Note_on_c, 0, 64, 0
2, 41957, Note_on_c, 0, 59, 0
2, 41966, Note_on_c, 0, 68, 0
2, 41969, Note_on_c, 0, 43, 0
2, 41974, Note_on_c, 0, 50, 36
2, 41996, Note_on_c, 0, 50, 0
2, 42013, Note_on_c, 0, 67, 54
2, 42013, Note_on_c, 0, 64, 59
2, 42014, Note_on_c, 0, 53, 60
2, 42016, Note_on_c, 0, 59, 57
2, 42086, Note_on_c, 0, 53, 0
2, 42092, Note_on_c, 0, 46, 49
2, 42101, Note_on_c, 0, 67, 0
2, 42102, Note_on_c, 0, 64, 0
2, 42115, Note_on_c, 0, 59, 0
2, 42119, Note_on_c, 0, 46, 0
2, 42139, Note_on_c, 0, 47, 56
2, 42214, Note_on_c, 0, 47, 0
2, 42215, Note_on_c, 0, 60, 65
2, 42217, Note_on_c, 0, 48, 50
2, 42218, Note_on_c, 0, 55, 54
2, 42218, Note_on_c, 0, 57, 52
2, 42270, Note_on_c, 0, 55, 0
2, 42277, Note_on_c, 0, 57, 0
2, 42281, Note_on_c, 0, 60, 0
2, 42281, Control_c, 0, 64, 127
2, 42282, Note_on_c, 0, 48, 0
2, 42361, Control_c, 0, 64, 0
2, 42375, Note_on_c, 0, 57, 67
2, 42376, Note_on_c, 0, 67, 73
2, 42376, Note_on_c, 0, 72, 74
2, 42376, Note_on_c, 0, 62, 77
2, 42453, Note_on_c, 0, 72, 0
2, 42454, Note_on_c, 0, 62, 0
2, 42459, Note_on_c, 0, 67, 0
2, 42461, Note_on_c, 0, 57, 0
2, 42467, Note_on_c, 0, 56, 53
2, 42495, Note_on_c, 0, 72, 69
2, 42498, Note_on_c, 0, 67, 65
2, 42499, Note_on_c, 0, 62, 68
2, 42499, Note_on_c, 0, 57, 72
2, 42504, Note_on_c, 0, 56, 0
2, 42559, Note_on_c, 0, 72, 0
2, 42562, Note_on_c, 0, 57, 0
2, 42563, Note_on_c, 0, 62, 0
2, 42566, Note_on_c, 0, 67, 0
2, 42582, Note_on_c, 0, 57, 66
2, 42583, Note_on_c, 0, 72, 53
2, 42583, Note_on_c, 0, 62, 75
2, 42585, Note_on_c, 0, 67, 74
2, 42598, Note_on_c, 0, 62, 0
2, 42604, Note_on_c, 0, 57, 0
2, 42606, Note_on_c, 0, 67, 0
2, 42612, Note_on_c, 0, 72, 0
2, 42730, Note_on_c, 0, 62, 53
2, 42732, Note_on_c, 0, 53, 41
2, 42734, Note_on_c, 0, 77, 67
2, 42734, Note_on_c, 0, 60, 28
2, 42735, Note_on_c, 0, 65, 71
2, 42736, Note_on_c, 0, 57, 48
2, 42740, Note_on_c, 0, 72, 50
2, 42848, Note_on_c, 0, 65, 0
2, 42848, Control_c, 0, 64, 127
2, 42857, Note_on_c, 0, 72, 0
2, 42865, Note_on_c, 0, 77, 0
2, 42874, Note_on_c, 0, 60, 0
2, 42875, Note_on_c, 0, 62, 0
2, 42882, Note_on_c, 0, 57, 0
2, 42884, Note_on_c, 0, 53, 0
2, 42959, Control_c, 0, 64, 0
2, 42967, Note_on_c, 0, 54, 79
2, 42969, Note_on_c, 0, 63, 86
2, 42970, Note_on_c, 0, 81, 92
2, 42971, Note_on_c, 0, 75, 88
2, 42971, Note_on_c, 0, 57, 66
2, 42972, Note_on_c, 0, 69, 94
2, 42973, Note_on_c, 0, 60, 65
2, 43023, Note_on_c, 0, 60, 0
2, 43041, Note_on_c, 0, 75, 0
2, 43043, Note_on_c, 0, 69, 0
2, 43050, Note_on_c, 0, 63, 0
2, 43053, Note_on_c, 0, 81, 0
2, 43063, Note_on_c, 0, 60, 41
2, 43067, Note_on_c, 0, 54, 0
2, 43075, Note_on_c, 0, 60, 0
2, 43088, Note_on_c, 0, 54, 60
2, 43090, Note_on_c, 0, 63, 75
2, 43096, Note_on_c, 0, 81, 78
2, 43098, Note_on_c, 0, 78, 59
2, 43099, Note_on_c, 0, 75, 73
2, 43099, Note_on_c, 0, 60, 30
2, 43099, Note_on_c, 0, 69, 75
2, 43141, Note_on_c, 0, 57, 0
2, 43146, Note_on_c, 0, 81, 0
2, 43150, Note_on_c, 0, 75, 0
2, 43153, Note_on_c, 0, 54, 0
2, 43156, Note_on_c, 0, 69, 0
2, 43160, Note_on_c, 0, 78, 0
2, 43160, Note_on_c, 0, 63, 0
2, 43167, Note_on_c, 0, 60, 0
2, 43179, Note_on_c, 0, 79, 57
2, 43183, Note_on_c, 0, 76, 64
2, 43184, Note_on_c, 0, 64, 71
2, 43185, Note_on_c, 0, 55, 63
2, 43186, Note_on_c, 0, 60, 44
2, 43186, Note_on_c, 0, 67, 67
2, 43188, Note_on_c, 0, 72, 62
2, 43284, Control_c, 0, 64, 127
2, 43305, Note_on_c, 0, 67, 0
2, 43311, Note_on_c, 0, 60, 0
2, 43314, Note_on_c, 0, 55, 0
2, 43318, Note_on_c, 0, 72, 0
2, 43330, Note_on_c, 0, 76, 0
2, 43331, Note_on_c, 0, 79, 0
2, 43332, Note_on_c, 0, 64, 0
2, 43449, Note_on_c, 0, 63, 52
2, 43450, Control_c, 0, 64, 0
2, 43450, Note_on_c, 0, 62, 48
2, 43451, Note_on_c, 0, 78, 72
2, 43452, Note_on_c, 0, 67, 62
2, 43453, Note_on_c, 0, 86, 62
2, 43453, Note_on_c, 0, 74, 56
2, 43455, Note_on_c, 0, 82, 48
2, 43458, Note_on_c, 0, 57, 49
2, 43482, Note_on_c, 0, 78, 0
2, 43482, Note_on_c, 0, 79, 41
2, 43533, Control_c, 0, 64, 127
2, 43550, Note_on_c, 0, 67, 0
2, 43550, Note_on_c, 0, 62, 0
2, 43558, Note_on_c, 0, 63, 0
2, 43567, Note_on_c, 0, 57, 0
2, 43585, Note_on_c, 0, 82, 0
2, 43601, Note_on_c, 0, 74, 0
2, 43603, Note_on_c, 0, 79, 0
2, 43633, Note_on_c, 0, 86, 0
2, 43688, Control_c, 0, 64, 0
2, 43690, Note_on_c, 0, 58, 55
2, 43691, Note_on_c, 0, 82, 45
2, 43693, Note_on_c, 0, 74, 29
2, 43693, Note_on_c, 0, 62, 58
2, 43695, Note_on_c, 0, 79, 40
2, 43699, Note_on_c, 0, 52, 50
2, 43743, Control_c, 0, 64, 127
2, 43777, Note_on_c, 0, 52, 0
2, 43784, Note_on_c, 0, 74, 0
2, 43786, Note_on_c, 0, 79, 0
2, 43790, Note_on_c, 0, 58, 0
2, 43796, Note_on_c, 0, 62, 0
2, 43800, Note_on_c, 0, 82, 0
2, 43894, Control_c, 0, 64, 0
2, 43926, Note_on_c, 0, 61, 52
2, 43927, Note_on_c, 0, 55, 64
2, 43927, Note_on_c, 0, 76, 48
2, 43928, Note_on_c, 0, 65, 59
2, 43928, Note_on_c, 0, 82, 49
2, 43929, Note_on_c, 0, 88, 58
2, 43960, Note_on_c, 0, 65, 0
2, 43963, Note_on_c, 0, 55, 0
2, 43967, Note_on_c, 0, 82, 0
2, 43974, Note_on_c, 0, 61, 0
2, 43975, Note_on_c, 0, 76, 0
2, 43989, Note_on_c, 0, 88, 0
2, 44047, Note_on_c, 0, 76, 49
2, 44048, Note_on_c, 0, 82, 56
2, 44051, Note_on_c, 0, 88, 53
2, 44051, Note_on_c, 0, 61, 53
2, 44053, Note_on_c, 0, 55, 63
2, 44053, Note_on_c, 0, 65, 57
2, 44087, Note_on_c, 0, 82, 0
2, 44093, Note_on_c, 0, 65, 0
2, 44100, Note_on_c, 0, 76, 0
2, 44101, Note_on_c, 0, 55, 0
2, 44105, Note_on_c, 0, 88, 0
2, 44133, Note_on_c, 0, 61, 0
2, 44170, Note_on_c, 0, 82, 69
2, 44173, Note_on_c, 0, 60, 56
2, 44173, Note_on_c, 0, 88, 75
2, 44173, Note_on_c, 0, 64, 62
2, 44174, Note_on_c, 0, 76, 55
2, 44174, Note_on_c, 0, 54, 59
2, 44193, Note_on_c, 0, 76, 0
2, 44199, Note_on_c, 0, 82, 0
2, 44243, Note_on_c, 0, 88, 0
2, 44256, Note_on_c, 0, 84, 55
2, 44279, Note_on_c, 0, 84, 0
2, 44296, Note_on_c, 0, 86, 74
2, 44299, Note_on_c, 0, 64, 0
2, 44325, Note_on_c, 0, 60, 0
2, 44329, Note_on_c, 0, 54, 0
2, 44362, Note_on_c, 0, 86, 0
2, 44377, Note_on_c, 0, 54, 57
2, 44377, Note_on_c, 0, 84, 71
2, 44377, Note_on_c, 0, 60, 46
2, 44378, Note_on_c, 0, 64, 49
2, 44535, Note_on_c, 0, 60, 0
2, 44544, Note_on_c, 0, 64, 0
2, 44553, Note_on_c, 0, 84, 0
2, 44597, Note_on_c, 0, 54, 0
2, 44621, Note_on_c, 0, 59, 36
2, 44632, Note_on_c, 0, 59, 0
2, 44649, Note_on_c, 0, 59, 83
2, 44650, Note_on_c, 0, 53, 87
2, 44651, Note_on_c, 0, 64, 90
2, 44651, Note_on_c, 0, 90, 78
2, 44652, Note_on_c, 0, 83, 89
2, 44652, Note_on_c, 0, 95, 92
2, 44692, Note_on_c, 0, 91, 56
2, 44709, Note_on_c, 0, 93, 17
2, 44720, Note_on_c, 0, 83, 0
2, 44722, Note_on_c, 0, 90, 0
2, 44723, Note_on_c, 0, 93, 0
2, 44723, Note_on_c, 0, 91, 0
2, 44725, Note_on_c, 0, 95, 0
2, 44739, Note_on_c, 0, 53, 0
2, 44746, Note_on_c, 0, 64, 0
2, 44755, Note_on_c, 0, 59, 0
2, 44770, Note_on_c, 0, 79, 78
2, 44770, Note_on_c, 0, 64, 72
2, 44771, Note_on_c, 0, 91, 75
2, 44771, Note_on_c, 0, 59, 67
2, 44771, Note_on_c, 0, 87, 76
2, 44772, Note_on_c, 0, 53, 71
2, 44776, Note_on_c, 0, 85, 51
2, 44785, Note_on_c, 0, 85, 0
2, 44813, Note_on_c, 0, 88, 59
2, 44816, Note_on_c, 0, 79, 0
2, 44817, Note_on_c, 0, 87, 0
2, 44822, Note_on_c, 0, 88, 0
2, 44829, Note_on_c, 0, 91, 0
2, 44829, Control_c, 0, 64, 127
2, 44849, Note_on_c, 0, 53, 0
2, 44853, Note_on_c, 0, 64, 0
2, 44853, Control_c, 0, 64, 0
2, 44869, Note_on_c, 0, 59, 0
2, 44887, Note_on_c, 0, 87, 68
2, 44890, Note_on_c, 0, 75, 68
2, 44891, Note_on_c, 0, 59, 49
2, 44892, Note_on_c, 0, 53, 57
2, 44893, Note_on_c, 0, 64, 64
2, 44902, Control_c, 0, 64, 127
2, 44902, Note_on_c, 0, 85, 26
2, 44923, Note_on_c, 0, 81, 13
2, 44933, Note_on_c, 0, 75, 0
2, 44933, Note_on_c, 0, 87, 0
2, 44943, Note_on_c, 0, 81, 0
2, 44950, Note_on_c, 0, 85, 0
2, 44955, Note_on_c, 0, 53, 0
2, 44956, Note_on_c, 0, 64, 0
2, 44976, Note_on_c, 0, 59, 0
2, 44987, Control_c, 0, 64, 0
2, 45004, Note_on_c, 0, 53, 41
2, 45004, Note_on_c, 0, 59, 41
2, 45010, Note_on_c, 0, 67, 56
2, 45014, Control_c, 0, 64, 127
2, 45018, Note_on_c, 0, 67, 0
2, 45020, Note_on_c, 0, 59, 0
2, 45036, Note_on_c, 0, 53, 0
2, 45128, Note_on_c, 0, 67, 62
2, 45128, Note_on_c, 0, 62, 69
2, 45130, Note_on_c, 0, 57, 68
2, 45132, Note_on_c, 0, 66, 35
2, 45133, Note_on_c, 0, 51, 46
2, 45134, Note_on_c, 0, 52, 74
2, 45139, Control_c, 0, 64, 0
2, 45141, Note_on_c, 0, 51, 0
2, 45141, Note_on_c, 0, 66, 0
2, 45180, Note_on_c, 0, 57, 0
2, 45186, Note_on_c, 0, 67, 0
2, 45200, Note_on_c, 0, 62, 0
2, 45219, Note_on_c, 0, 51, 51
2, 45220, Note_on_c, 0, 66, 53
2, 45221, Note_on_c, 0, 56, 61
2, 45224, Note_on_c, 0, 52, 0
2, 45230, Note_on_c, 0, 61, 28
2, 45240, Note_on_c, 0, 56, 0
2, 45247, Note_on_c, 0, 66, 0
2, 45252, Note_on_c, 0, 61, 0
2, 45261, Note_on_c, 0, 51, 0
2, 45262, Note_on_c, 0, 62, 36
2, 45263, Note_on_c, 0, 52, 55
2, 45263, Note_on_c, 0, 57, 55
2, 45265, Note_on_c, 0, 67, 37
2, 45273, Control_c, 0, 64, 127
2, 45290, Note_on_c, 0, 57, 0
2, 45308, Note_on_c, 0, 62, 0
2, 45311, Note_on_c, 0, 52, 0
2, 45314, Note_on_c, 0, 67, 0
2, 45360, Control_c, 0, 64, 0
2, 45378, Note_on_c, 0, 57, 54
2, 45381, Note_on_c, 0, 72, 57
2, 45383, Note_on_c, 0, 62, 55
2, 45385, Note_on_c, 0, 67, 53
2, 45449, Note_on_c, 0, 67, 0
2, 45451, Note_on_c, 0, 62, 0
2, 45453, Note_on_c, 0, 72, 0
2, 45457, Note_on_c, 0, 57, 0
2, 45465, Note_on_c, 0, 56, 35
2, 45498, Note_on_c, 0, 56, 0
2, 45500, Note_on_c, 0, 57, 54
2, 45501, Note_on_c, 0, 72, 49
2, 45502, Note_on_c, 0, 67, 49
2, 45503, Control_c, 0, 64, 127
2, 45504, Note_on_c, 0, 62, 48
2, 45525, Note_on_c, 0, 62, 0
2, 45525, Note_on_c, 0, 57, 0
2, 45538, Note_on_c, 0, 67, 0
2, 45543, Note_on_c, 0, 72, 0
2, 45617, Note_on_c, 0, 64, 45
2, 45619, Control_c, 0, 64, 0
2, 45623, Note_on_c, 0, 79, 50
2, 45624, Note_on_c, 0, 69, 49
2, 45630, Note_on_c, 0, 74, 34
2, 45674, Control_c, 0, 64, 127
2, 45687, Note_on_c, 0, 74, 0
2, 45691, Note_on_c, 0, 69, 0
2, 45691, Note_on_c, 0, 64, 0
2, 45694, Note_on_c, 0, 63, 43
2, 45695, Note_on_c, 0, 79, 0
2, 45696, Control_c, 0, 64, 0
2, 45731, Note_on_c, 0, 63, 0
2, 45735, Note_on_c, 0, 79, 50
2, 45736, Note_on_c, 0, 69, 48
2, 45737, Note_on_c, 0, 74, 46
2, 45739, Note_on_c, 0, 64, 46
2, 45746, Control_c, 0, 64, 127
2, 45754, Note_on_c, 0, 69, 0
2, 45765, Note_on_c, 0, 74, 0
2, 45768, Note_on_c, 0, 64, 0
2, 45770, Note_on_c, 0, 79, 0
2, 45839, Control_c, 0, 64, 0
2, 45848, Note_on_c, 0, 69, 56
2, 45851, Note_on_c, 0, 84, 52
2, 45855, Note_on_c, 0, 74, 30
2, 45856, Note_on_c, 0, 79, 41
2, 45925, Note_on_c, 0, 84, 0
2, 45925, Note_on_c, 0, 69, 0
2, 45926, Note_on_c, 0, 68, 53
2, 45927, Note_on_c, 0, 74, 0
2, 45927, Note_on_c, 0, 79, 0
2, 45962, Note_on_c, 0, 68, 0
2, 45963, Note_on_c, 0, 74, 31
2, 45964, Note_on_c, 0, 84, 53
2, 45966, Note_on_c, 0, 69, 60
2, 45967, Note_on_c, 0, 79, 37
2, 45998, Note_on_c, 0, 74, 0
2, 46005, Control_c, 0, 64, 127
2, 46006, Note_on_c, 0, 69, 0
2, 46010, Note_on_c, 0, 79, 0
2, 46014, Note_on_c, 0, 84, 0
2, 46064, Control_c, 0, 64, 0
2, 46083, Note_on_c, 0, 76, 44
2, 46089, Note_on_c, 0, 81, 45
2, 46089, Note_on_c, 0, 91, 44
2, 46091, Note_on_c, 0, 86, 53
2, 46155, Note_on_c, 0, 81, 0
2, 46156, Note_on_c, 0, 86, 0
2, 46158, Note_on_c, 0, 76, 0
2, 46159, Note_on_c, 0, 91, 0
2, 46162, Note_on_c, 0, 75, 43
2, 46198, Note_on_c, 0, 75, 0
2, 46204, Note_on_c, 0, 76, 58
2, 46207, Note_on_c, 0, 81, 47
2, 46208, Note_on_c, 0, 91, 49
2, 46208, Note_on_c, 0, 86, 53
2, 46234, Note_on_c, 0, 81, 0
2, 46245, Note_on_c, 0, 86, 0
2, 46249, Note_on_c, 0, 91, 0
2, 46258, Note_on_c, 0, 76, 0
2, 46323, Note_on_c, 0, 81, 53
2, 46326, Note_on_c, 0, 96, 54
2, 46329, Note_on_c, 0, 86, 36
2, 46330, Note_on_c, 0, 91, 38
2, 46382, Note_on_c, 0, 91, 0
2, 46386, Note_on_c, 0, 96, 0
2, 46390, Note_on_c, 0, 86, 0
2, 46393, Note_on_c, 0, 81, 0
2, 46400, Note_on_c, 0, 80, 38
2, 46437, Note_on_c, 0, 80, 0
2, 46439, Note_on_c, 0, 81, 62
2, 46441, Note_on_c, 0, 86, 43
2, 46443, Note_on_c, 0, 96, 53
2, 46447, Note_on_c, 0, 91, 42
2, 46454, Note_on_c, 0, 86, 0
2, 46457, Note_on_c, 0, 91, 0
2, 46468, Note_on_c, 0, 96, 0
2, 46468, Note_on_c, 0, 81, 0
2, 46563, Note_on_c, 0, 86, 54
2, 46564, Note_on_c, 0, 103, 64
2, 46567, Note_on_c, 0, 98, 54
2, 46569, Note_on_c, 0, 93, 50
2, 46575, Note_on_c, 0, 86, 0
2, 46584, Note_on_c, 0, 93, 0
2, 46588, Note_on_c, 0, 103, 0
2, 46589, Note_on_c, 0, 98, 0
2, 46766, Note_on_c, 0, 36, 69
2, 46770, Note_on_c, 0, 24, 55
2, 47111, Note_on_c, 0, 24, 0
2, 47147, Note_on_c, 0, 36, 0
2, 47147, End_track
3, 0, Start_track
3, 0, MIDI_port, 1
3, 0, Title_t, ""
3, 0, Program_c, 1, 32
3, 0, Control_c, 1, 7, 102
3, 8, Note_on_c, 1, 38, 74
3, 138, Note_on_c, 1, 50, 79
3, 151, Note_on_c, 1, 38, 0
3, 227, Note_on_c, 1, 38, 28
3, 238, Note_on_c, 1, 38, 0
3, 251, Note_on_c, 1, 50, 0
3, 258, Note_on_c, 1, 45, 53
3, 344, Note_on_c, 1, 38, 34
3, 359, Note_on_c, 1, 38, 0
3, 368, Note_on_c, 1, 45, 0
3, 377, Note_on_c, 1, 42, 53
3, 498, Note_on_c, 1, 31, 50
3, 502, Note_on_c, 1, 42, 0
3, 587, Note_on_c, 1, 36, 22
3, 600, Note_on_c, 1, 36, 0
3, 616, Note_on_c, 1, 45, 97
3, 628, Note_on_c, 1, 31, 0
3, 730, Note_on_c, 1, 45, 0
3, 732, Note_on_c, 1, 43, 65
3, 823, Note_on_c, 1, 31, 46
3, 837, Note_on_c, 1, 31, 0
3, 845, Note_on_c, 1, 43, 0
3, 860, Note_on_c, 1, 31, 21
3, 864, Note_on_c, 1, 35, 65
3, 867, Note_on_c, 1, 33, 51
3, 871, Note_on_c, 1, 31, 0
3, 876, Note_on_c, 1, 33, 0
3, 967, Note_on_c, 1, 35, 0
3, 978, Note_on_c, 1, 36, 92
3, 1096, Note_on_c, 1, 31, 73
3, 1098, Note_on_c, 1, 36, 0
3, 1219, Note_on_c, 1, 29, 70
3, 1229, Note_on_c, 1, 31, 0
3, 1325, Note_on_c, 1, 29, 0
3, 1337, Note_on_c, 1, 29, 71
3, 1458, Note_on_c, 1, 40, 88
3, 1467, Note_on_c, 1, 29, 0
3, 1573, Note_on_c, 1, 34, 50
3, 1578, Note_on_c, 1, 40, 0
3, 1664, Note_on_c, 1, 32, 18
3, 1678, Note_on_c, 1, 34, 0
3, 1691, Note_on_c, 1, 32, 0
3, 1696, Note_on_c, 1, 38, 70
3, 1777, Note_on_c, 1, 33, 66
3, 1785, Note_on_c, 1, 38, 0
3, 1898, Note_on_c, 1, 32, 37
3, 1922, Note_on_c, 1, 32, 0
3, 1936, Note_on_c, 1, 40, 80
3, 1938, Note_on_c, 1, 33, 0
3, 2037, Note_on_c, 1, 40, 0
3, 2051, Note_on_c, 1, 34, 44
3, 2169, Note_on_c, 1, 34, 0
3, 2169, Note_on_c, 1, 31, 51
3, 2247, Note_on_c, 1, 31, 0
3, 2257, Note_on_c, 1, 32, 64
3, 2281, Note_on_c, 1, 32, 0
3, 2300, Note_on_c, 1, 33, 90
3, 2414, Note_on_c, 1, 44, 60
3, 2419, Note_on_c, 1, 45, 80
3, 2423, Note_on_c, 1, 33, 0
3, 2508, Note_on_c, 1, 32, 14
3, 2521, Note_on_c, 1, 45, 0
3, 2522, Note_on_c, 1, 32, 0
3, 2530, Note_on_c, 1, 40, 43
3, 2534, Note_on_c, 1, 44, 0
3, 2616, Note_on_c, 1, 33, 42
3, 2630, Note_on_c, 1, 33, 0
3, 2649, Note_on_c, 1, 37, 51
3, 2666, Note_on_c, 1, 40, 0
3, 2730, Note_on_c, 1, 33, 48
3, 2733, Note_on_c, 1, 37, 0
3, 2748, Note_on_c, 1, 33, 0
3, 2766, Note_on_c, 1, 39, 67
3, 2845, Note_on_c, 1, 33, 47
3, 2858, Note_on_c, 1, 33, 0
3, 2876, Note_on_c, 1, 39, 0
3, 2888, Note_on_c, 1, 38, 47
3, 2895, Note_on_c, 1, 38, 0
3, 2931, Note_on_c, 1, 33, 59
3, 2948, Note_on_c, 1, 33, 0
3, 2971, Note_on_c, 1, 30, 69
3, 3012, Note_on_c, 1, 30, 0
3, 3014, Note_on_c, 1, 33, 76
3, 3122, Note_on_c, 1, 33, 0
3, 3129, Note_on_c, 1, 30, 66
3, 3247, Note_on_c, 1, 30, 0
3, 3255, Note_on_c, 1, 30, 73
3, 3373, Note_on_c, 1, 31, 68
3, 3375, Note_on_c, 1, 30, 0
3, 3457, Note_on_c, 1, 30, 37
3, 3486, Note_on_c, 1, 30, 0
3, 3491, Note_on_c, 1, 45, 74
3, 3498, Note_on_c, 1, 31, 0
3, 3599, Note_on_c, 1, 45, 0
3, 3608, Note_on_c, 1, 43, 55
3, 3721, Note_on_c, 1, 35, 66
3, 3742, Note_on_c, 1, 43, 0
3, 3841, Note_on_c, 1, 35, 0
3, 3848, Note_on_c, 1, 36, 45
3, 3934, Note_on_c, 1, 34, 34
3, 3960, Note_on_c, 1, 36, 0
3, 3963, Note_on_c, 1, 45, 61
3, 3970, Note_on_c, 1, 34, 0
3, 4071, Note_on_c, 1, 45, 0
3, 4082, Note_on_c, 1, 43, 49
3, 4167, Note_on_c, 1, 43, 0
3, 4172, Note_on_c, 1, 40, 77
3, 4297, Note_on_c, 1, 36, 39
3, 4315, Note_on_c, 1, 40, 0
3, 4317, Note_on_c, 1, 36, 0
3, 4327, Note_on_c, 1, 41, 77
3, 4423, Note_on_c, 1, 41, 0
3, 4444, Note_on_c, 1, 36, 63
3, 4561, Note_on_c, 1, 36, 0
3, 4561, Note_on_c, 1, 31, 60
3, 4636, Note_on_c, 1, 31, 0
3, 4644, Note_on_c, 1, 34, 63
3, 4665, Note_on_c, 1, 34, 0
3, 4682, Note_on_c, 1, 35, 53
3, 4759, Note_on_c, 1, 34, 23
3, 4780, Note_on_c, 1, 34, 0
3, 4791, Note_on_c, 1, 35, 0
3, 4797, Note_on_c, 1, 36, 54
3, 4886, Note_on_c, 1, 35, 29
3, 4913, Note_on_c, 1, 35, 0
3, 4917, Note_on_c, 1, 36, 0
3, 4921, Note_on_c, 1, 41, 104
3, 5012, Note_on_c, 1, 35, 16
3, 5027, Note_on_c, 1, 35, 0
3, 5041, Note_on_c, 1, 41, 0
3, 5048, Note_on_c, 1, 40, 63
3, 5128, Note_on_c, 1, 36, 85
3, 5136, Note_on_c, 1, 40, 0
3, 5238, Note_on_c, 1, 36, 0
3, 5251, Note_on_c, 1, 35, 83
3, 5386, Note_on_c, 1, 32, 8
3, 5395, Note_on_c, 1, 32, 0
3, 5413, Note_on_c, 1, 41, 99
3, 5423, Note_on_c, 1, 35, 0
3, 5495, Note_on_c, 1, 35, 39
3, 5512, Note_on_c, 1, 35, 0
3, 5517, Note_on_c, 1, 41, 0
3, 5532, Note_on_c, 1, 40, 60
3, 5609, Note_on_c, 1, 35, 64
3, 5612, Note_on_c, 1, 40, 0
3, 5643, Note_on_c, 1, 35, 0
3, 5647, Note_on_c, 1, 34, 69
3, 5747, Note_on_c, 1, 32, 29
3, 5766, Note_on_c, 1, 32, 0
3, 5767, Note_on_c, 1, 33, 62
3, 5769, Note_on_c, 1, 34, 0
3, 5856, Note_on_c, 1, 32, 23
3, 5883, Note_on_c, 1, 33, 0
3, 5888, Note_on_c, 1, 40, 68
3, 5892, Note_on_c, 1, 32, 0
3, 5994, Note_on_c, 1, 40, 0
3, 6010, Note_on_c, 1, 43, 74
3, 6118, Note_on_c, 1, 43, 0
3, 6130, Note_on_c, 1, 40, 57
3, 6210, Note_on_c, 1, 36, 44
3, 6221, Note_on_c, 1, 36, 0
3, 6228, Note_on_c, 1, 40, 0
3, 6246, Note_on_c, 1, 42, 68
3, 6360, Note_on_c, 1, 36, 81
3, 6376, Note_on_c, 1, 42, 0
3, 6473, Note_on_c, 1, 36, 0
3, 6483, Note_on_c, 1, 35, 71
3, 6597, Note_on_c, 1, 47, 80
3, 6603, Note_on_c, 1, 35, 0
3, 6685, Note_on_c, 1, 35, 57
3, 6697, Note_on_c, 1, 47, 0
3, 6706, Note_on_c, 1, 35, 0
3, 6719, Note_on_c, 1, 47, 66
3, 6818, Note_on_c, 1, 35, 27
3, 6821, Note_on_c, 1, 47, 0
3, 6835, Note_on_c, 1, 35, 0
3, 6844, Note_on_c, 1, 47, 66
3, 6960, Note_on_c, 1, 35, 73
3, 6973, Note_on_c, 1, 47, 0
3, 7043, Note_on_c, 1, 34, 48
3, 7062, Note_on_c, 1, 34, 0
3, 7081, Note_on_c, 1, 47, 92
3, 7110, Note_on_c, 1, 35, 0
3, 7164, Note_on_c, 1, 35, 25
3, 7180, Note_on_c, 1, 47, 0
3, 7205, Note_on_c, 1, 47, 83
3, 7212, Note_on_c, 1, 35, 0
3, 7280, Note_on_c, 1, 35, 85
3, 7316, Note_on_c, 1, 47, 0
3, 7402, Note_on_c, 1, 45, 104
3, 7421, Note_on_c, 1, 35, 0
3, 7526, Note_on_c, 1, 35, 47
3, 7543, Note_on_c, 1, 45, 0
3, 7549, Note_on_c, 1, 35, 0
3, 7561, Note_on_c, 1, 39, 71
3, 7650, Note_on_c, 1, 35, 33
3, 7662, Note_on_c, 1, 39, 0
3, 7682, Note_on_c, 1, 35, 0
3, 7686, Note_on_c, 1, 38, 51
3, 7801, Note_on_c, 1, 33, 56
3, 7804, Note_on_c, 1, 38, 0
3, 7897, Note_on_c, 1, 38, 35
3, 7901, Note_on_c, 1, 33, 0
3, 7923, Note_on_c, 1, 45, 60
3, 7992, Note_on_c, 1, 38, 0
3, 8031, Note_on_c, 1, 45, 0
3, 8045, Note_on_c, 1, 44, 64
3, 8129, Note_on_c, 1, 38, 25
3, 8141, Note_on_c, 1, 38, 0
3, 8149, Note_on_c, 1, 44, 0
3, 8163, Note_on_c, 1, 43, 43
3, 8247, Note_on_c, 1, 38, 57
3, 8249, Note_on_c, 1, 43, 0
3, 8271, Note_on_c, 1, 38, 0
3, 8289, Note_on_c, 1, 34, 49
3, 8402, Note_on_c, 1, 34, 0
3, 8408, Note_on_c, 1, 35, 53
3, 8518, Note_on_c, 1, 35, 0
3, 8533, Note_on_c, 1, 35, 65
3, 8645, Note_on_c, 1, 35, 0
3, 8648, Note_on_c, 1, 36, 55
3, 8734, Note_on_c, 1, 34, 29
3, 8753, Note_on_c, 1, 36, 0
3, 8770, Note_on_c, 1, 42, 63
3, 8776, Note_on_c, 1, 34, 0
3, 8853, Note_on_c, 1, 36, 18
3, 8864, Note_on_c, 1, 36, 0
3, 8875, Note_on_c, 1, 42, 0
3, 8892, Note_on_c, 1, 41, 57
3, 8968, Note_on_c, 1, 36, 38
3, 8977, Note_on_c, 1, 36, 0
3, 8982, Note_on_c, 1, 41, 0
3, 9011, Note_on_c, 1, 41, 60
3, 9098, Note_on_c, 1, 41, 0
3, 9123, Note_on_c, 1, 40, 57
3, 9167, Pitch_bend_c, 1, 8192
3, 9168, Pitch_bend_c, 1, 8192
3, 9169, Pitch_bend_c, 1, 8192
3, 9170, Pitch_bend_c, 1, 8842
3, 9173, Pitch_bend_c, 1, 9102
3, 9174, Pitch_bend_c, 1, 9492
3, 9176, Pitch_bend_c, 1, 9752
3, 9177, Pitch_bend_c, 1, 10142
3, 9179, Pitch_bend_c, 1, 10402
3, 9182, Pitch_bend_c, 1, 10792
3, 9183, Pitch_bend_c, 1, 11052
3, 9185, Pitch_bend_c, 1, 11442
3, 9186, Pitch_bend_c, 1, 11572
3, 9188, Pitch_bend_c, 1, 11702
3, 9190, Pitch_bend_c, 1, 11832
3, 9193, Pitch_bend_c, 1, 11962
3, 9198, Pitch_bend_c, 1, 11832
3, 9200, Pitch_bend_c, 1, 11572
3, 9201, Pitch_bend_c, 1, 11442
3, 9204, Pitch_bend_c, 1, 10922
3, 9206, Pitch_bend_c, 1, 10532
3, 9207, Pitch_bend_c, 1, 10012
3, 9209, Pitch_bend_c, 1, 9492
3, 9210, Pitch_bend_c, 1, 8842
3, 9213, Pitch_bend_c, 1, 8192
3, 9214, Pitch_bend_c, 1, 8192
3, 9228, Pitch_bend_c, 1, 8192
3, 9231, Pitch_bend_c, 1, 8192
3, 9235, Pitch_bend_c, 1, 8192
3, 9250, Pitch_bend_c, 1, 8192
3, 9252, Pitch_bend_c, 1, 8712
3, 9253, Pitch_bend_c, 1, 9232
3, 9256, Pitch_bend_c, 1, 9752
3, 9257, Pitch_bend_c, 1, 10142
3, 9259, Pitch_bend_c, 1, 10792
3, 9261, Pitch_bend_c, 1, 11312
3, 9262, Pitch_bend_c, 1, 11702
3, 9265, Pitch_bend_c, 1, 12092
3, 9266, Pitch_bend_c, 1, 12482
3, 9268, Pitch_bend_c, 1, 12742
3, 9269, Pitch_bend_c, 1, 12872
3, 9272, Pitch_bend_c, 1, 13132
3, 9278, Pitch_bend_c, 1, 12222
3, 9280, Pitch_bend_c, 1, 11312
3, 9282, Pitch_bend_c, 1, 9882
3, 9284, Pitch_bend_c, 1, 8192
3, 9285, Pitch_bend_c, 1, 8192
3, 9378, Note_on_c, 1, 38, 58
3, 9380, Note_on_c, 1, 40, 0
3, 9489, Note_on_c, 1, 39, 56
3, 9504, Note_on_c, 1, 38, 0
3, 9570, Note_on_c, 1, 34, 22
3, 9576, Note_on_c, 1, 36, 17
3, 9582, Note_on_c, 1, 34, 0
3, 9585, Note_on_c, 1, 36, 0
3, 9598, Note_on_c, 1, 39, 0
3, 9605, Note_on_c, 1, 40, 44
3, 9711, Note_on_c, 1, 40, 0
3, 9718, Note_on_c, 1, 46, 71
3, 9837, Note_on_c, 1, 46, 0
3, 9842, Note_on_c, 1, 43, 45
3, 9926, Note_on_c, 1, 43, 0
3, 9927, Note_on_c, 1, 34, 63
3, 9944, Note_on_c, 1, 34, 0
3, 9964, Note_on_c, 1, 32, 66
3, 10077, Note_on_c, 1, 32, 0
3, 10084, Note_on_c, 1, 33, 79
3, 10205, Note_on_c, 1, 35, 71
3, 10218, Note_on_c, 1, 33, 0
3, 10322, Note_on_c, 1, 36, 74
3, 10338, Note_on_c, 1, 35, 0
3, 10424, Note_on_c, 1, 34, 38
3, 10437, Note_on_c, 1, 36, 0
3, 10447, Note_on_c, 1, 37, 60
3, 10462, Note_on_c, 1, 34, 0
3, 10552, Note_on_c, 1, 34, 8
3, 10555, Note_on_c, 1, 37, 0
3, 10562, Note_on_c, 1, 38, 69
3, 10584, Note_on_c, 1, 34, 0
3, 10651, Note_on_c, 1, 37, 48
3, 10683, Note_on_c, 1, 38, 0
3, 10686, Note_on_c, 1, 47, 78
3, 10698, Note_on_c, 1, 37, 0
3, 10761, Note_on_c, 1, 38, 26
3, 10793, Note_on_c, 1, 47, 0
3, 10794, Note_on_c, 1, 38, 0
3, 10807, Note_on_c, 1, 45, 57
3, 10897, Note_on_c, 1, 38, 39
3, 10907, Note_on_c, 1, 38, 0
3, 10918, Note_on_c, 1, 45, 0
3, 10927, Note_on_c, 1, 44, 61
3, 11079, Note_on_c, 1, 44, 0
3, 11085, Note_on_c, 1, 43, 43
3, 11098, Note_on_c, 1, 43, 0
3, 11128, Note_on_c, 1, 38, 50
3, 11151, Note_on_c, 1, 38, 0
3, 11169, Note_on_c, 1, 32, 59
3, 11279, Note_on_c, 1, 32, 0
3, 11285, Note_on_c, 1, 31, 64
3, 11291, Note_on_c, 1, 32, 7
3, 11301, Note_on_c, 1, 32, 0
3, 11403, Note_on_c, 1, 35, 69
3, 11404, Note_on_c, 1, 31, 0
3, 11490, Note_on_c, 1, 34, 22
3, 11521, Note_on_c, 1, 35, 0
3, 11526, Note_on_c, 1, 34, 0
3, 11534, Note_on_c, 1, 36, 67
3, 11605, Note_on_c, 1, 31, 53
3, 11614, Note_on_c, 1, 36, 0
3, 11634, Note_on_c, 1, 31, 0
3, 11651, Note_on_c, 1, 28, 79
3, 11770, Note_on_c, 1, 28, 0
3, 11780, Note_on_c, 1, 28, 78
3, 11882, Note_on_c, 1, 28, 0
3, 11901, Note_on_c, 1, 28, 69
3, 12010, Note_on_c, 1, 28, 0
3, 12020, Note_on_c, 1, 29, 68
3, 12122, Note_on_c, 1, 29, 0
3, 12134, Note_on_c, 1, 29, 77
3, 12230, Note_on_c, 1, 29, 0
3, 12255, Note_on_c, 1, 30, 71
3, 12360, Note_on_c, 1, 30, 0
3, 12372, Note_on_c, 1, 30, 72
3, 12465, Note_on_c, 1, 27, 24
3, 12485, Note_on_c, 1, 31, 66
3, 12489, Note_on_c, 1, 27, 0
3, 12494, Note_on_c, 1, 30, 0
3, 12571, Note_on_c, 1, 30, 45
3, 12605, Note_on_c, 1, 31, 0
3, 12607, Note_on_c, 1, 43, 73
3, 12613, Note_on_c, 1, 30, 0
3, 12682, Note_on_c, 1, 31, 31
3, 12697, Note_on_c, 1, 31, 0
3, 12718, Note_on_c, 1, 43, 0
3, 12730, Note_on_c, 1, 41, 55
3, 12816, Note_on_c, 1, 31, 46
3, 12828, Note_on_c, 1, 41, 0
3, 12839, Note_on_c, 1, 31, 0
3, 12845, Note_on_c, 1, 41, 61
3, 12946, Note_on_c, 1, 41, 0
3, 12959, Note_on_c, 1, 40, 51
3, 13041, Note_on_c, 1, 34, 52
3, 13063, Note_on_c, 1, 34, 0
3, 13064, Note_on_c, 1, 40, 0
3, 13076, Note_on_c, 1, 46, 69
3, 13191, Note_on_c, 1, 46, 0
3, 13201, Note_on_c, 1, 45, 46
3, 13223, Note_on_c, 1, 45, 0
3, 13280, Note_on_c, 1, 40, 60
3, 13304, Note_on_c, 1, 40, 0
3, 13319, Note_on_c, 1, 37, 58
3, 13395, Note_on_c, 1, 34, 19
3, 13420, Note_on_c, 1, 37, 0
3, 13434, Note_on_c, 1, 34, 0
3, 13435, Note_on_c, 1, 38, 51
3, 13523, Note_on_c, 1, 48, 81
3, 13526, Note_on_c, 1, 47, 44
3, 13529, Note_on_c, 1, 38, 0
3, 13534, Note_on_c, 1, 47, 0
3, 13563, Note_on_c, 1, 48, 0
3, 13576, Note_on_c, 1, 45, 40
3, 13652, Note_on_c, 1, 38, 49
3, 13666, Note_on_c, 1, 38, 0
3, 13668, Note_on_c, 1, 45, 0
3, 13691, Note_on_c, 1, 41, 63
3, 13771, Note_on_c, 1, 41, 0
3, 13771, Note_on_c, 1, 32, 72
3, 13925, Note_on_c, 1, 32, 0
3, 13930, Note_on_c, 1, 31, 57
3, 14036, Note_on_c, 1, 31, 0
3, 14043, Note_on_c, 1, 32, 65
3, 14160, Note_on_c, 1, 32, 0
3, 14160, Note_on_c, 1, 33, 58
3, 14243, Note_on_c, 1, 34, 46
3, 14255, Note_on_c, 1, 33, 0
3, 14272, Note_on_c, 1, 34, 0
3, 14280, Note_on_c, 1, 35, 51
3, 14360, Note_on_c, 1, 34, 24
3, 14385, Note_on_c, 1, 34, 0
3, 14398, Note_on_c, 1, 35, 0
3, 14402, Note_on_c, 1, 36, 53
3, 14486, Note_on_c, 1, 34, 27
3, 14521, Note_on_c, 1, 36, 0
3, 14523, Note_on_c, 1, 43, 61
3, 14532, Note_on_c, 1, 34, 0
3, 14604, Note_on_c, 1, 36, 39
3, 14625, Note_on_c, 1, 36, 0
3, 14638, Note_on_c, 1, 43, 0
3, 14643, Note_on_c, 1, 40, 48
3, 14754, Note_on_c, 1, 40, 0
3, 14758, Note_on_c, 1, 39, 66
3, 14872, Note_on_c, 1, 39, 0
3, 14877, Note_on_c, 1, 40, 53
3, 14953, Note_on_c, 1, 40, 0
3, 14962, Note_on_c, 1, 34, 72
3, 15118, Note_on_c, 1, 34, 0
3, 15128, Note_on_c, 1, 33, 51
3, 15208, Note_on_c, 1, 33, 0
3, 15211, Note_on_c, 1, 37, 67
3, 15320, Note_on_c, 1, 34, 42
3, 15354, Note_on_c, 1, 37, 0
3, 15358, Note_on_c, 1, 34, 0
3, 15360, Note_on_c, 1, 38, 55
3, 15444, Note_on_c, 1, 52, 79
3, 15465, Note_on_c, 1, 38, 0
3, 15480, Note_on_c, 1, 52, 0
3, 15490, Note_on_c, 1, 51, 35
3, 15574, Note_on_c, 1, 38, 44
3, 15594, Note_on_c, 1, 38, 0
3, 15603, Note_on_c, 1, 51, 0
3, 15609, Note_on_c, 1, 50, 53
3, 15687, Note_on_c, 1, 38, 22
3, 15697, Note_on_c, 1, 38, 0
3, 15714, Note_on_c, 1, 50, 0
3, 15723, Note_on_c, 1, 48, 52
3, 15812, Note_on_c, 1, 42, 16
3, 15834, Note_on_c, 1, 48, 0
3, 15838, Note_on_c, 1, 42, 0
3, 15848, Note_on_c, 1, 47, 47
3, 15954, Note_on_c, 1, 47, 0
3, 15966, Note_on_c, 1, 44, 42
3, 16045, Note_on_c, 1, 42, 27
3, 16080, Note_on_c, 1, 44, 0
3, 16084, Note_on_c, 1, 42, 0
3, 16085, Note_on_c, 1, 43, 38
3, 16168, Note_on_c, 1, 42, 22
3, 16205, Note_on_c, 1, 53, 85
3, 16207, Note_on_c, 1, 43, 0
3, 16215, Note_on_c, 1, 42, 0
3, 16292, Note_on_c, 1, 43, 23
3, 16305, Note_on_c, 1, 43, 0
3, 16316, Note_on_c, 1, 53, 0
3, 16325, Note_on_c, 1, 52, 58
3, 16420, Note_on_c, 1, 43, 21
3, 16431, Note_on_c, 1, 43, 0
3, 16431, Note_on_c, 1, 52, 0
3, 16446, Note_on_c, 1, 50, 63
3, 16534, Note_on_c, 1, 43, 31
3, 16545, Note_on_c, 1, 43, 0
3, 16557, Note_on_c, 1, 50, 0
3, 16569, Note_on_c, 1, 48, 51
3, 16684, Note_on_c, 1, 48, 0
3, 16686, Note_on_c, 1, 43, 53
3, 16762, Note_on_c, 1, 37, 17
3, 16791, Note_on_c, 1, 37, 0
3, 16792, Note_on_c, 1, 43, 0
3, 16804, Note_on_c, 1, 40, 38
3, 16910, Note_on_c, 1, 40, 0
3, 16921, Note_on_c, 1, 36, 50
3, 17035, Note_on_c, 1, 36, 0
3, 17042, Note_on_c, 1, 38, 52
3, 17151, Note_on_c, 1, 38, 0
3, 17163, Note_on_c, 1, 39, 73
3, 17276, Note_on_c, 1, 39, 0
3, 17286, Note_on_c, 1, 40, 55
3, 17403, Note_on_c, 1, 46, 73
3, 17412, Note_on_c, 1, 40, 0
3, 17521, Note_on_c, 1, 46, 0
3, 17523, Note_on_c, 1, 43, 53
3, 17611, Note_on_c, 1, 43, 0
3, 17611, Note_on_c, 1, 40, 53
3, 17632, Note_on_c, 1, 40, 0
3, 17646, Note_on_c, 1, 34, 66
3, 17762, Note_on_c, 1, 34, 0
3, 17770, Note_on_c, 1, 33, 83
3, 17884, Note_on_c, 1, 33, 0
3, 17884, Note_on_c, 1, 35, 74
3, 18006, Note_on_c, 1, 36, 70
3, 18018, Note_on_c, 1, 35, 0
3, 18121, Note_on_c, 1, 37, 67
3, 18130, Note_on_c, 1, 36, 0
3, 18207, Note_on_c, 1, 34, 31
3, 18243, Note_on_c, 1, 38, 65
3, 18251, Note_on_c, 1, 37, 0
3, 18261, Note_on_c, 1, 34, 0
3, 18332, Note_on_c, 1, 37, 21
3, 18363, Note_on_c, 1, 37, 0
3, 18363, Note_on_c, 1, 38, 0
3, 18363, Note_on_c, 1, 40, 60
3, 18453, Note_on_c, 1, 38, 35
3, 18458, Note_on_c, 1, 37, 21
3, 18469, Note_on_c, 1, 37, 0
3, 18471, Note_on_c, 1, 40, 0
3, 18481, Note_on_c, 1, 41, 60
3, 18498, Note_on_c, 1, 38, 0
3, 18562, Note_on_c, 1, 37, 28
3, 18580, Note_on_c, 1, 41, 0
3, 18583, Note_on_c, 1, 37, 0
3, 18600, Note_on_c, 1, 42, 66
3, 18799, Note_on_c, 1, 42, 0
3, 18805, Note_on_c, 1, 43, 71
3, 18925, Note_on_c, 1, 38, 66
3, 18939, Note_on_c, 1, 43, 0
3, 19044, Note_on_c, 1, 38, 0
3, 19045, Note_on_c, 1, 34, 57
3, 19074, Note_on_c, 1, 34, 0
3, 19080, Note_on_c, 1, 35, 60
3, 19162, Note_on_c, 1, 34, 26
3, 19188, Note_on_c, 1, 35, 0
3, 19195, Note_on_c, 1, 34, 0
3, 19199, Note_on_c, 1, 36, 63
3, 19307, Note_on_c, 1, 36, 0
3, 19318, Note_on_c, 1, 28, 60
3, 19428, Note_on_c, 1, 28, 0
3, 19444, Note_on_c, 1, 28, 79
3, 19551, Note_on_c, 1, 28, 0
3, 19564, Note_on_c, 1, 28, 73
3, 19676, Note_on_c, 1, 28, 0
3, 19686, Note_on_c, 1, 29, 64
3, 19792, Note_on_c, 1, 29, 0
3, 19806, Note_on_c, 1, 29, 69
3, 19890, Note_on_c, 1, 27, 38
3, 19899, Note_on_c, 1, 27, 0
3, 19924, Note_on_c, 1, 31, 60
3, 19925, Note_on_c, 1, 29, 0
3, 20039, Note_on_c, 1, 35, 69
3, 20042, Note_on_c, 1, 31, 0
3, 20114, Note_on_c, 1, 34, 22
3, 20151, Note_on_c, 1, 34, 0
3, 20153, Note_on_c, 1, 35, 0
3, 20163, Note_on_c, 1, 36, 69
3, 20247, Note_on_c, 1, 34, 36
3, 20276, Note_on_c, 1, 36, 0
3, 20281, Note_on_c, 1, 45, 85
3, 20283, Note_on_c, 1, 34, 0
3, 20394, Note_on_c, 1, 45, 0
3, 20401, Note_on_c, 1, 43, 56
3, 20526, Note_on_c, 1, 34, 64
3, 20527, Note_on_c, 1, 43, 0
3, 20608, Note_on_c, 1, 32, 20
3, 20636, Note_on_c, 1, 32, 0
3, 20642, Note_on_c, 1, 35, 62
3, 20645, Note_on_c, 1, 34, 0
3, 20734, Note_on_c, 1, 34, 33
3, 20751, Note_on_c, 1, 34, 0
3, 20765, Note_on_c, 1, 35, 0
3, 20767, Note_on_c, 1, 47, 92
3, 20858, Note_on_c, 1, 35, 17
3, 20875, Note_on_c, 1, 35, 0
3, 20877, Note_on_c, 1, 47, 0
3, 20893, Note_on_c, 1, 44, 56
3, 20976, Note_on_c, 1, 34, 56
3, 20985, Note_on_c, 1, 44, 0
3, 21008, Note_on_c, 1, 34, 0
3, 21009, Note_on_c, 1, 46, 61
3, 21092, Note_on_c, 1, 34, 14
3, 21103, Note_on_c, 1, 34, 0
3, 21116, Note_on_c, 1, 46, 0
3, 21130, Note_on_c, 1, 45, 51
3, 21213, Note_on_c, 1, 40, 56
3, 21218, Note_on_c, 1, 45, 0
3, 21233, Note_on_c, 1, 40, 0
3, 21252, Note_on_c, 1, 36, 61
3, 21357, Note_on_c, 1, 36, 0
3, 21364, Note_on_c, 1, 31, 58
3, 21461, Note_on_c, 1, 31, 0
3, 21483, Note_on_c, 1, 31, 76
3, 21590, Note_on_c, 1, 31, 0
3, 21603, Note_on_c, 1, 30, 66
3, 21706, Note_on_c, 1, 30, 0
3, 21725, Note_on_c, 1, 30, 65
3, 21847, Note_on_c, 1, 30, 0
3, 21849, Note_on_c, 1, 35, 76
3, 21956, Note_on_c, 1, 35, 0
3, 21975, Note_on_c, 1, 35, 69
3, 22081, Note_on_c, 1, 35, 0
3, 22095, Note_on_c, 1, 35, 76
3, 22194, Note_on_c, 1, 35, 0
3, 22210, Note_on_c, 1, 35, 63
3, 22331, Note_on_c, 1, 47, 80
3, 22437, Note_on_c, 1, 47, 0
3, 22456, Note_on_c, 1, 47, 76
3, 22471, Note_on_c, 1, 35, 0
3, 22651, Note_on_c, 1, 34, 56
3, 22679, Note_on_c, 1, 47, 0
3, 22681, Note_on_c, 1, 34, 0
3, 22687, Note_on_c, 1, 35, 73
3, 22874, Note_on_c, 1, 35, 0
3, 22883, Note_on_c, 1, 45, 92
3, 22914, Note_on_c, 1, 45, 0
3, 22923, Note_on_c, 1, 39, 65
3, 22997, Note_on_c, 1, 37, 48
3, 23017, Note_on_c, 1, 39, 0
3, 23038, Note_on_c, 1, 37, 0
3, 23043, Note_on_c, 1, 38, 63
3, 23120, Note_on_c, 1, 52, 79
3, 23140, Note_on_c, 1, 38, 0
3, 23152, Note_on_c, 1, 52, 0
3, 23169, Note_on_c, 1, 51, 38
3, 23245, Note_on_c, 1, 37, 35
3, 23271, Note_on_c, 1, 37, 0
3, 23274, Note_on_c, 1, 51, 0
3, 23293, Note_on_c, 1, 50, 50
3, 23390, Note_on_c, 1, 50, 0
3, 23406, Note_on_c, 1, 44, 50
3, 23493, Note_on_c, 1, 42, 15
3, 23505, Note_on_c, 1, 42, 0
3, 23510, Note_on_c, 1, 44, 0
3, 23520, Note_on_c, 1, 43, 49
3, 23637, Note_on_c, 1, 43, 0
3, 23644, Note_on_c, 1, 31, 62
3, 23757, Note_on_c, 1, 31, 0
3, 23763, Note_on_c, 1, 33, 55
3, 23883, Note_on_c, 1, 35, 55
3, 23888, Note_on_c, 1, 33, 0
3, 23997, Note_on_c, 1, 35, 0
3, 24010, Note_on_c, 1, 36, 47
3, 24097, Note_on_c, 1, 31, 65
3, 24106, Note_on_c, 1, 36, 0
3, 24126, Note_on_c, 1, 31, 0
3, 24129, Note_on_c, 1, 28, 70
3, 24253, Note_on_c, 1, 29, 65
3, 24258, Note_on_c, 1, 28, 0
3, 24352, Note_on_c, 1, 29, 0
3, 24371, Note_on_c, 1, 30, 66
3, 24478, Note_on_c, 1, 30, 0
3, 24488, Note_on_c, 1, 31, 59
3, 24563, Note_on_c, 1, 30, 38
3, 24588, Note_on_c, 1, 30, 0
3, 24603, Note_on_c, 1, 43, 69
3, 24604, Note_on_c, 1, 31, 0
3, 24713, Note_on_c, 1, 43, 0
3, 24724, Note_on_c, 1, 41, 50
3, 24835, Note_on_c, 1, 41, 0
3, 24838, Note_on_c, 1, 38, 65
3, 24922, Note_on_c, 1, 38, 0
3, 24923, Note_on_c, 1, 39, 67
3, 24959, Note_on_c, 1, 39, 0
3, 24968, Note_on_c, 1, 40, 46
3, 25056, Note_on_c, 1, 34, 38
3, 25064, Note_on_c, 1, 34, 0
3, 25090, Note_on_c, 1, 46, 67
3, 25091, Note_on_c, 1, 40, 0
3, 25210, Note_on_c, 1, 46, 0
3, 25210, Note_on_c, 1, 40, 49
3, 25327, Note_on_c, 1, 40, 0
3, 25327, Note_on_c, 1, 34, 72
3, 25413, Note_on_c, 1, 32, 34
3, 25438, Note_on_c, 1, 34, 0
3, 25447, Note_on_c, 1, 32, 0
3, 25454, Note_on_c, 1, 33, 83
3, 25567, Note_on_c, 1, 33, 0
3, 25576, Note_on_c, 1, 33, 76
3, 25781, Note_on_c, 1, 34, 50
3, 25805, Note_on_c, 1, 33, 0
3, 25807, Note_on_c, 1, 34, 0
3, 25822, Note_on_c, 1, 37, 59
3, 25900, Note_on_c, 1, 34, 18
3, 25904, Note_on_c, 1, 32, 26
3, 25910, Note_on_c, 1, 34, 0
3, 25927, Note_on_c, 1, 32, 0
3, 25934, Note_on_c, 1, 37, 0
3, 25935, Note_on_c, 1, 38, 57
3, 26031, Note_on_c, 1, 35, 34
3, 26051, Note_on_c, 1, 35, 0
3, 26051, Note_on_c, 1, 38, 0
3, 26052, Note_on_c, 1, 40, 56
3, 26139, Note_on_c, 1, 35, 31
3, 26157, Note_on_c, 1, 40, 0
3, 26167, Note_on_c, 1, 41, 53
3, 26169, Note_on_c, 1, 35, 0
3, 26252, Note_on_c, 1, 35, 40
3, 26269, Note_on_c, 1, 35, 0
3, 26270, Note_on_c, 1, 41, 0
3, 26285, Note_on_c, 1, 42, 62
3, 26440, Note_on_c, 1, 42, 0
3, 26440, Note_on_c, 1, 43, 69
3, 26460, Note_on_c, 1, 43, 0
3, 26478, Note_on_c, 1, 38, 61
3, 26505, Note_on_c, 1, 38, 0
3, 26520, Note_on_c, 1, 31, 83
3, 26637, Note_on_c, 1, 31, 0
3, 26642, Note_on_c, 1, 33, 68
3, 26749, Note_on_c, 1, 33, 0
3, 26755, Note_on_c, 1, 34, 63
3, 26816, Note_on_c, 1, 34, 0
3, 26839, Note_on_c, 1, 35, 68
3, 26864, Note_on_c, 1, 35, 0
3, 26881, Note_on_c, 1, 36, 65
3, 26987, Note_on_c, 1, 36, 0
3, 27003, Note_on_c, 1, 36, 74
3, 27119, Note_on_c, 1, 36, 0
3, 27122, Note_on_c, 1, 40, 60
3, 27242, Note_on_c, 1, 28, 60
3, 27248, Note_on_c, 1, 40, 0
3, 27364, Note_on_c, 1, 28, 0
3, 27368, Note_on_c, 1, 29, 63
3, 27478, Note_on_c, 1, 29, 0
3, 27490, Note_on_c, 1, 29, 67
3, 27595, Note_on_c, 1, 29, 0
3, 27605, Note_on_c, 1, 30, 72
3, 27715, Note_on_c, 1, 30, 0
3, 27729, Note_on_c, 1, 30, 67
3, 27835, Note_on_c, 1, 30, 0
3, 27842, Note_on_c, 1, 31, 71
3, 27948, Note_on_c, 1, 31, 0
3, 27964, Note_on_c, 1, 31, 80
3, 28068, Note_on_c, 1, 31, 0
3, 28082, Note_on_c, 1, 29, 69
3, 28186, Note_on_c, 1, 29, 0
3, 28201, Note_on_c, 1, 29, 68
3, 28306, Note_on_c, 1, 29, 0
3, 28317, Note_on_c, 1, 28, 81
3, 28436, Note_on_c, 1, 28, 0
3, 28442, Note_on_c, 1, 34, 81
3, 28552, Note_on_c, 1, 34, 0
3, 28567, Note_on_c, 1, 33, 71
3, 28652, Note_on_c, 1, 31, 66
3, 28671, Note_on_c, 1, 33, 0
3, 28680, Note_on_c, 1, 31, 0
3, 28683, Note_on_c, 1, 40, 69
3, 28771, Note_on_c, 1, 35, 29
3, 28781, Note_on_c, 1, 35, 0
3, 28797, Note_on_c, 1, 40, 0
3, 28801, Note_on_c, 1, 38, 60
3, 28888, Note_on_c, 1, 35, 55
3, 28903, Note_on_c, 1, 38, 0
3, 28912, Note_on_c, 1, 35, 0
3, 28920, Note_on_c, 1, 48, 74
3, 28996, Note_on_c, 1, 38, 44
3, 29005, Note_on_c, 1, 38, 0
3, 29033, Note_on_c, 1, 48, 0
3, 29042, Note_on_c, 1, 45, 63
3, 29113, Note_on_c, 1, 45, 0
3, 29122, Note_on_c, 1, 41, 67
3, 29141, Note_on_c, 1, 41, 0
3, 29154, Note_on_c, 1, 32, 74
3, 29270, Note_on_c, 1, 32, 0
3, 29279, Note_on_c, 1, 31, 67
3, 29287, Note_on_c, 1, 32, 6
3, 29295, Note_on_c, 1, 32, 0
3, 29351, Note_on_c, 1, 31, 0
3, 29366, Note_on_c, 1, 31, 63
3, 29398, Note_on_c, 1, 31, 0
3, 29400, Note_on_c, 1, 33, 63
3, 29511, Note_on_c, 1, 33, 0
3, 29517, Note_on_c, 1, 34, 66
3, 29633, Note_on_c, 1, 34, 0
3, 29639, Note_on_c, 1, 35, 62
3, 29722, Note_on_c, 1, 34, 34
3, 29753, Note_on_c, 1, 34, 0
3, 29760, Note_on_c, 1, 35, 0
3, 29762, Note_on_c, 1, 36, 66
3, 29846, Note_on_c, 1, 34, 24
3, 29882, Note_on_c, 1, 45, 92
3, 29883, Note_on_c, 1, 36, 0
3, 29890, Note_on_c, 1, 34, 0
3, 30004, Note_on_c, 1, 45, 0
3, 30005, Note_on_c, 1, 43, 63
3, 30126, Note_on_c, 1, 39, 71
3, 30127, Note_on_c, 1, 43, 0
3, 30246, Note_on_c, 1, 40, 68
3, 30251, Note_on_c, 1, 39, 0
3, 30328, Note_on_c, 1, 39, 39
3, 30342, Note_on_c, 1, 39, 0
3, 30357, Note_on_c, 1, 40, 0
3, 30363, Note_on_c, 1, 46, 74
3, 30477, Note_on_c, 1, 46, 0
3, 30486, Note_on_c, 1, 45, 61
3, 30568, Note_on_c, 1, 36, 56
3, 30577, Note_on_c, 1, 45, 0
3, 30585, Note_on_c, 1, 36, 0
3, 30602, Note_on_c, 1, 37, 53
3, 30694, Note_on_c, 1, 34, 10
3, 30721, Note_on_c, 1, 34, 0
3, 30726, Note_on_c, 1, 37, 0
3, 30726, Note_on_c, 1, 38, 63
3, 30808, Note_on_c, 1, 54, 83
3, 30939, Note_on_c, 1, 37, 41
3, 30964, Note_on_c, 1, 38, 0
3, 30974, Note_on_c, 1, 37, 0
3, 31040, Note_on_c, 1, 50, 63
3, 31054, Note_on_c, 1, 54, 0
3, 31067, Note_on_c, 1, 50, 0
3, 31080, Note_on_c, 1, 44, 62
3, 31269, Note_on_c, 1, 44, 0
3, 31276, Note_on_c, 1, 43, 60
3, 31310, Note_on_c, 1, 43, 0
3, 31318, Note_on_c, 1, 38, 54
3, 31434, Note_on_c, 1, 31, 40
3, 31436, Note_on_c, 1, 38, 0
3, 31517, Note_on_c, 1, 34, 41
3, 31534, Note_on_c, 1, 31, 0
3, 31546, Note_on_c, 1, 34, 0
3, 31557, Note_on_c, 1, 35, 57
3, 31640, Note_on_c, 1, 34, 14
3, 31664, Note_on_c, 1, 35, 0
3, 31668, Note_on_c, 1, 34, 0
3, 31679, Note_on_c, 1, 36, 48
3, 31785, Note_on_c, 1, 34, 17
3, 31790, Note_on_c, 1, 36, 0
3, 31807, Note_on_c, 1, 36, 71
3, 31812, Note_on_c, 1, 34, 0
3, 31887, Note_on_c, 1, 34, 28
3, 31898, Note_on_c, 1, 36, 0
3, 31925, Note_on_c, 1, 38, 53
3, 31938, Note_on_c, 1, 34, 0
3, 32022, Note_on_c, 1, 34, 22
3, 32028, Note_on_c, 1, 38, 0
3, 32046, Note_on_c, 1, 38, 63
3, 32051, Note_on_c, 1, 34, 0
3, 32133, Note_on_c, 1, 38, 0
3, 32139, Note_on_c, 1, 34, 8
3, 32155, Note_on_c, 1, 34, 0
3, 32167, Note_on_c, 1, 40, 46
3, 32250, Note_on_c, 1, 28, 63
3, 32343, Note_on_c, 1, 40, 0
3, 32409, Note_on_c, 1, 28, 0
3, 32413, Note_on_c, 1, 29, 40
3, 32527, Note_on_c, 1, 29, 0
3, 32532, Note_on_c, 1, 30, 56
3, 32599, Note_on_c, 1, 30, 0
3, 32620, Note_on_c, 1, 34, 42
3, 32630, Note_on_c, 1, 32, 14
3, 32642, Note_on_c, 1, 34, 0
3, 32644, Note_on_c, 1, 32, 0
3, 32650, Note_on_c, 1, 40, 67
3, 32755, Note_on_c, 1, 40, 0
3, 32771, Note_on_c, 1, 34, 64
3, 32880, Note_on_c, 1, 34, 0
3, 32889, Note_on_c, 1, 31, 51
3, 32992, Note_on_c, 1, 31, 0
3, 33009, Note_on_c, 1, 34, 59
3, 33084, Note_on_c, 1, 32, 31
3, 33123, Note_on_c, 1, 32, 0
3, 33123, Note_on_c, 1, 34, 0
3, 33125, Note_on_c, 1, 33, 55
3, 33217, Note_on_c, 1, 32, 17
3, 33247, Note_on_c, 1, 33, 0
3, 33250, Note_on_c, 1, 40, 84
3, 33253, Note_on_c, 1, 32, 0
3, 33325, Note_on_c, 1, 32, 26
3, 33351, Note_on_c, 1, 32, 0
3, 33360, Note_on_c, 1, 40, 0
3, 33369, Note_on_c, 1, 37, 51
3, 33454, Note_on_c, 1, 33, 49
3, 33466, Note_on_c, 1, 37, 0
3, 33470, Note_on_c, 1, 33, 0
3, 33487, Note_on_c, 1, 39, 72
3, 33594, Note_on_c, 1, 39, 0
3, 33607, Note_on_c, 1, 38, 63
3, 33684, Note_on_c, 1, 33, 84
3, 33696, Note_on_c, 1, 38, 0
3, 33842, Note_on_c, 1, 30, 72
3, 33848, Note_on_c, 1, 33, 0
3, 33955, Note_on_c, 1, 30, 0
3, 33967, Note_on_c, 1, 30, 75
3, 34074, Note_on_c, 1, 30, 0
3, 34083, Note_on_c, 1, 31, 63
3, 34196, Note_on_c, 1, 31, 0
3, 34207, Note_on_c, 1, 31, 77
3, 34329, Note_on_c, 1, 31, 0
3, 34333, Note_on_c, 1, 33, 57
3, 34443, Note_on_c, 1, 35, 72
3, 34455, Note_on_c, 1, 33, 0
3, 34523, Note_on_c, 1, 34, 26
3, 34557, Note_on_c, 1, 35, 0
3, 34565, Note_on_c, 1, 36, 69
3, 34578, Note_on_c, 1, 34, 0
3, 34668, Note_on_c, 1, 34, 9
3, 34669, Note_on_c, 1, 36, 0
3, 34681, Note_on_c, 1, 34, 0
3, 34685, Note_on_c, 1, 36, 71
3, 34776, Note_on_c, 1, 33, 23
3, 34789, Note_on_c, 1, 33, 0
3, 34804, Note_on_c, 1, 36, 0
3, 34807, Note_on_c, 1, 40, 62
3, 34808, Note_on_c, 1, 41, 63
3, 34872, Note_on_c, 1, 41, 0
3, 34895, Note_on_c, 1, 28, 80
3, 34914, Note_on_c, 1, 40, 0
3, 35057, Note_on_c, 1, 28, 0
3, 35062, Note_on_c, 1, 29, 67
3, 35166, Note_on_c, 1, 29, 0
3, 35179, Note_on_c, 1, 29, 77
3, 35304, Note_on_c, 1, 29, 0
3, 35304, Note_on_c, 1, 31, 64
3, 35405, Note_on_c, 1, 31, 0
3, 35421, Note_on_c, 1, 31, 60
3, 35503, Note_on_c, 1, 31, 0
3, 35507, Note_on_c, 1, 35, 47
3, 35542, Note_on_c, 1, 38, 71
3, 35543, Note_on_c, 1, 36, 76
3, 35556, Note_on_c, 1, 35, 0
3, 35573, Note_on_c, 1, 38, 0
3, 35740, Note_on_c, 1, 31, 58
3, 35760, Note_on_c, 1, 36, 0
3, 35770, Note_on_c, 1, 31, 0
3, 35779, Note_on_c, 1, 28, 68
3, 35976, Note_on_c, 1, 29, 38
3, 35994, Note_on_c, 1, 28, 0
3, 35998, Note_on_c, 1, 29, 0
3, 36007, Note_on_c, 1, 35, 78
3, 36119, Note_on_c, 1, 35, 0
3, 36124, Note_on_c, 1, 29, 56
3, 36230, Note_on_c, 1, 29, 0
3, 36241, Note_on_c, 1, 28, 52
3, 36320, Note_on_c, 1, 30, 39
3, 36337, Note_on_c, 1, 28, 0
3, 36349, Note_on_c, 1, 30, 0
3, 36369, Note_on_c, 1, 32, 76
3, 36444, Note_on_c, 1, 30, 25
3, 36481, Note_on_c, 1, 32, 0
3, 36481, Note_on_c, 1, 33, 53
3, 36482, Note_on_c, 1, 30, 0
3, 36579, Note_on_c, 1, 33, 0
3, 36582, Note_on_c, 1, 32, 12
3, 36598, Note_on_c, 1, 33, 55
3, 36610, Note_on_c, 1, 32, 0
3, 36694, Note_on_c, 1, 32, 42
3, 36728, Note_on_c, 1, 32, 0
3, 36731, Note_on_c, 1, 50, 44
3, 36739, Note_on_c, 1, 50, 0
3, 36845, Note_on_c, 1, 43, 73
3, 36846, Note_on_c, 1, 33, 0
3, 37044, Note_on_c, 1, 36, 57
3, 37054, Note_on_c, 1, 36, 0
3, 37073, Note_on_c, 1, 43, 0
3, 37080, Note_on_c, 1, 42, 64
3, 37198, Note_on_c, 1, 35, 63
3, 37205, Note_on_c, 1, 42, 0
3, 37280, Note_on_c, 1, 34, 33
3, 37313, Note_on_c, 1, 34, 0
3, 37318, Note_on_c, 1, 43, 61
3, 37323, Note_on_c, 1, 35, 0
3, 37404, Note_on_c, 1, 35, 26
3, 37422, Note_on_c, 1, 43, 0
3, 37423, Note_on_c, 1, 35, 0
3, 37442, Note_on_c, 1, 47, 73
3, 37560, Note_on_c, 1, 47, 0
3, 37561, Note_on_c, 1, 35, 83
3, 37799, Note_on_c, 1, 47, 81
3, 37921, Note_on_c, 1, 35, 0
3, 38047, Note_on_c, 1, 35, 79
3, 38049, Note_on_c, 1, 47, 0
3, 38245, Note_on_c, 1, 33, 46
3, 38272, Note_on_c, 1, 33, 0
3, 38276, Note_on_c, 1, 35, 0
3, 38282, Note_on_c, 1, 45, 64
3, 38348, Note_on_c, 1, 45, 0
3, 38366, Note_on_c, 1, 37, 63
3, 38398, Note_on_c, 1, 37, 0
3, 38408, Note_on_c, 1, 38, 56
3, 38489, Note_on_c, 1, 45, 69
3, 38499, Note_on_c, 1, 38, 0
3, 38517, Note_on_c, 1, 45, 0
3, 38532, Note_on_c, 1, 42, 38
3, 38611, Note_on_c, 1, 32, 40
3, 38627, Note_on_c, 1, 32, 0
3, 38633, Note_on_c, 1, 42, 0
3, 38649, Note_on_c, 1, 38, 42
3, 38728, Note_on_c, 1, 32, 64
3, 38741, Note_on_c, 1, 38, 0
3, 38880, Note_on_c, 1, 32, 0
3, 38888, Note_on_c, 1, 31, 65
3, 38896, Note_on_c, 1, 32, 23
3, 38914, Note_on_c, 1, 32, 0
3, 38998, Note_on_c, 1, 31, 0
3, 39011, Note_on_c, 1, 31, 72
3, 39129, Note_on_c, 1, 33, 57
3, 39130, Note_on_c, 1, 31, 0
3, 39220, Note_on_c, 1, 34, 66
3, 39229, Note_on_c, 1, 33, 0
3, 39250, Note_on_c, 1, 34, 0
3, 39257, Note_on_c, 1, 35, 55
3, 39332, Note_on_c, 1, 34, 27
3, 39362, Note_on_c, 1, 35, 0
3, 39364, Note_on_c, 1, 34, 0
3, 39372, Note_on_c, 1, 36, 68
3, 39454, Note_on_c, 1, 34, 31
3, 39488, Note_on_c, 1, 45, 57
3, 39506, Note_on_c, 1, 34, 0
3, 39525, Note_on_c, 1, 36, 0
3, 39571, Note_on_c, 1, 37, 31
3, 39583, Note_on_c, 1, 45, 0
3, 39613, Note_on_c, 1, 38, 58
3, 39619, Note_on_c, 1, 37, 0
3, 39695, Note_on_c, 1, 37, 40
3, 39728, Note_on_c, 1, 48, 64
3, 39735, Note_on_c, 1, 37, 0
3, 39769, Note_on_c, 1, 38, 0
3, 39818, Note_on_c, 1, 38, 31
3, 39832, Note_on_c, 1, 48, 0
3, 39840, Note_on_c, 1, 38, 0
3, 39850, Note_on_c, 1, 47, 72
3, 39928, Note_on_c, 1, 43, 57
3, 39933, Note_on_c, 1, 47, 0
3, 39952, Note_on_c, 1, 43, 0
3, 39968, Note_on_c, 1, 40, 57
3, 40056, Note_on_c, 1, 37, 33
3, 40060, Note_on_c, 1, 40, 0
3, 40080, Note_on_c, 1, 37, 0
3, 40083, Note_on_c, 1, 38, 59
3, 40191, Note_on_c, 1, 38, 0
3, 40199, Note_on_c, 1, 34, 46
3, 40207, Note_on_c, 1, 34, 0
3, 40218, Note_on_c, 1, 35, 8
3, 40234, Note_on_c, 1, 35, 0
3, 40291, Note_on_c, 1, 34, 44
3, 40312, Note_on_c, 1, 34, 0
3, 40328, Note_on_c, 1, 40, 59
3, 40344, Note_on_c, 1, 28, 44
3, 40353, Note_on_c, 1, 28, 0
3, 40411, Note_on_c, 1, 28, 81
3, 40424, Note_on_c, 1, 40, 0
3, 40652, Note_on_c, 1, 31, 55
3, 40669, Note_on_c, 1, 28, 0
3, 40692, Note_on_c, 1, 32, 66
3, 40698, Note_on_c, 1, 31, 0
3, 40780, Note_on_c, 1, 30, 27
3, 40812, Note_on_c, 1, 33, 57
3, 40816, Note_on_c, 1, 30, 0
3, 40818, Note_on_c, 1, 32, 0
3, 40901, Note_on_c, 1, 32, 33
3, 40908, Note_on_c, 1, 33, 0
3, 40929, Note_on_c, 1, 35, 71
3, 40938, Note_on_c, 1, 32, 0
3, 41023, Note_on_c, 1, 34, 45
3, 41035, Note_on_c, 1, 35, 0
3, 41051, Note_on_c, 1, 36, 73
3, 41062, Note_on_c, 1, 34, 0
3, 41163, Note_on_c, 1, 37, 73
3, 41170, Note_on_c, 1, 36, 0
3, 41252, Note_on_c, 1, 34, 37
3, 41279, Note_on_c, 1, 37, 0
3, 41284, Note_on_c, 1, 34, 0
3, 41286, Note_on_c, 1, 38, 63
3, 41366, Note_on_c, 1, 37, 33
3, 41396, Note_on_c, 1, 38, 0
3, 41408, Note_on_c, 1, 45, 74
3, 41410, Note_on_c, 1, 37, 0
3, 41478, Note_on_c, 1, 37, 24
3, 41487, Note_on_c, 1, 37, 0
3, 41516, Note_on_c, 1, 45, 0
3, 41521, Note_on_c, 1, 42, 53
3, 41641, Note_on_c, 1, 42, 0
3, 41642, Note_on_c, 1, 32, 76
3, 41756, Note_on_c, 1, 32, 0
3, 41768, Note_on_c, 1, 31, 63
3, 41868, Note_on_c, 1, 31, 0
3, 41886, Note_on_c, 1, 31, 45
3, 41890, Note_on_c, 1, 33, 56
3, 41921, Note_on_c, 1, 33, 0
3, 41992, Note_on_c, 1, 31, 0
3, 42003, Note_on_c, 1, 34, 63
3, 42107, Note_on_c, 1, 34, 0
3, 42123, Note_on_c, 1, 35, 55
3, 42228, Note_on_c, 1, 35, 0
3, 42246, Note_on_c, 1, 36, 74
3, 42415, Note_on_c, 1, 31, 67
3, 42418, Note_on_c, 1, 36, 0
3, 42441, Note_on_c, 1, 31, 0
3, 42458, Note_on_c, 1, 28, 66
3, 42476, Note_on_c, 1, 28, 0
3, 42496, Note_on_c, 1, 28, 74
3, 42504, Note_on_c, 1, 29, 20
3, 42513, Note_on_c, 1, 29, 0
3, 42734, Note_on_c, 1, 29, 72
3, 42748, Note_on_c, 1, 28, 0
3, 42936, Note_on_c, 1, 27, 34
3, 42944, Note_on_c, 1, 29, 0
3, 42969, Note_on_c, 1, 30, 77
3, 42982, Note_on_c, 1, 27, 0
3, 43173, Note_on_c, 1, 27, 28
3, 43203, Note_on_c, 1, 31, 78
3, 43205, Note_on_c, 1, 27, 0
3, 43216, Note_on_c, 1, 30, 0
3, 43417, Note_on_c, 1, 29, 41
3, 43433, Note_on_c, 1, 31, 0
3, 43446, Note_on_c, 1, 41, 79
3, 43448, Note_on_c, 1, 29, 0
3, 43448, Note_on_c, 1, 40, 66
3, 43456, Note_on_c, 1, 40, 0
3, 43640, Note_on_c, 1, 32, 33
3, 43644, Note_on_c, 1, 34, 46
3, 43649, Note_on_c, 1, 32, 0
3, 43652, Note_on_c, 1, 34, 0
3, 43674, Note_on_c, 1, 41, 0
3, 43679, Note_on_c, 1, 40, 61
3, 43703, Note_on_c, 1, 40, 0
3, 43775, Note_on_c, 1, 34, 25
3, 43784, Note_on_c, 1, 34, 0
3, 43810, Note_on_c, 1, 32, 74
3, 43913, Note_on_c, 1, 32, 0
3, 43926, Note_on_c, 1, 33, 61
3, 44004, Note_on_c, 1, 32, 46
3, 44026, Note_on_c, 1, 32, 0
3, 44033, Note_on_c, 1, 33, 0
3, 44044, Note_on_c, 1, 39, 66
3, 44129, Note_on_c, 1, 39, 0
3, 44131, Note_on_c, 1, 38, 68
3, 44257, Note_on_c, 1, 33, 47
3, 44273, Note_on_c, 1, 33, 0
3, 44276, Note_on_c, 1, 38, 0
3, 44289, Note_on_c, 1, 48, 73
3, 44481, Note_on_c, 1, 48, 0
3, 44485, Note_on_c, 1, 45, 60
3, 44610, Note_on_c, 1, 38, 40
3, 44619, Note_on_c, 1, 38, 0
3, 44639, Note_on_c, 1, 45, 0
3, 44646, Note_on_c, 1, 47, 66
3, 44734, Note_on_c, 1, 31, 81
3, 44753, Note_on_c, 1, 47, 0
3, 45118, Note_on_c, 1, 31, 0
3, 45120, Note_on_c, 1, 36, 69
3, 45760, Note_on_c, 1, 36, 0
3, 45760, End_track
4, 0, Start_track
4, 0, MIDI_port, 0
4, 0, Title_t, ""
4, 0, Program_c, 9, 0
4, 0, Control_c, 9, 7, 80
4, 11, Note_on_c, 9, 51, 77
4, 65, Note_on_c, 9, 51, 0
4, 130, Note_on_c, 9, 51, 73
4, 214, Note_on_c, 9, 51, 0
4, 255, Note_on_c, 9, 51, 56
4, 305, Note_on_c, 9, 51, 0
4, 348, Note_on_c, 9, 51, 57
4, 368, Note_on_c, 9, 51, 0
4, 382, Note_on_c, 9, 51, 49
4, 461, Note_on_c, 9, 51, 0
4, 499, Note_on_c, 9, 51, 62
4, 592, Note_on_c, 9, 51, 0
4, 618, Note_on_c, 9, 51, 54
4, 691, Note_on_c, 9, 51, 0
4, 714, Note_on_c, 9, 51, 24
4, 724, Note_on_c, 9, 51, 0
4, 740, Note_on_c, 9, 51, 62
4, 820, Note_on_c, 9, 51, 0
4, 851, Note_on_c, 9, 51, 58
4, 920, Note_on_c, 9, 51, 0
4, 975, Note_on_c, 9, 51, 63
4, 1025, Note_on_c, 9, 51, 0
4, 1092, Note_on_c, 9, 51, 59
4, 1139, Note_on_c, 9, 51, 0
4, 1191, Note_on_c, 9, 51, 39
4, 1205, Note_on_c, 9, 51, 0
4, 1218, Note_on_c, 9, 51, 35
4, 1305, Note_on_c, 9, 51, 0
4, 1345, Note_on_c, 9, 51, 62
4, 1408, Note_on_c, 9, 51, 0
4, 1431, Note_on_c, 9, 51, 28
4, 1443, Note_on_c, 9, 51, 0
4, 1463, Note_on_c, 9, 51, 54
4, 1545, Note_on_c, 9, 51, 0
4, 1577, Note_on_c, 9, 51, 58
4, 1664, Note_on_c, 9, 51, 0
4, 1701, Note_on_c, 9, 51, 56
4, 1764, Note_on_c, 9, 51, 0
4, 1788, Note_on_c, 9, 51, 29
4, 1799, Note_on_c, 9, 51, 0
4, 1820, Note_on_c, 9, 51, 53
4, 1908, Note_on_c, 9, 51, 0
4, 1938, Note_on_c, 9, 51, 55
4, 2025, Note_on_c, 9, 51, 0
4, 2057, Note_on_c, 9, 51, 56
4, 2151, Note_on_c, 9, 51, 0
4, 2180, Note_on_c, 9, 51, 49
4, 2227, Note_on_c, 9, 51, 0
4, 2263, Note_on_c, 9, 51, 48
4, 2275, Note_on_c, 9, 51, 0
4, 2294, Note_on_c, 9, 51, 64
4, 2391, Note_on_c, 9, 51, 0
4, 2414, Note_on_c, 9, 51, 53
4, 2512, Note_on_c, 9, 51, 0
4, 2530, Note_on_c, 9, 51, 58
4, 2583, Note_on_c, 9, 51, 0
4, 2628, Note_on_c, 9, 51, 30
4, 2638, Note_on_c, 9, 51, 0
4, 2655, Note_on_c, 9, 51, 54
4, 2743, Note_on_c, 9, 51, 0
4, 2767, Note_on_c, 9, 51, 50
4, 2820, Note_on_c, 9, 51, 0
4, 2856, Note_on_c, 9, 51, 31
4, 2866, Note_on_c, 9, 51, 0
4, 2883, Note_on_c, 9, 51, 55
4, 2970, Note_on_c, 9, 51, 0
4, 3001, Note_on_c, 9, 51, 56
4, 3096, Note_on_c, 9, 51, 0
4, 3122, Note_on_c, 9, 51, 42
4, 3216, Note_on_c, 9, 51, 0
4, 3248, Note_on_c, 9, 51, 54
4, 3344, Note_on_c, 9, 51, 0
4, 3369, Note_on_c, 9, 51, 52
4, 3452, Note_on_c, 9, 51, 0
4, 3486, Note_on_c, 9, 51, 56
4, 3552, Note_on_c, 9, 51, 0
4, 3577, Note_on_c, 9, 51, 33
4, 3592, Note_on_c, 9, 51, 0
4, 3612, Note_on_c, 9, 51, 59
4, 3702, Note_on_c, 9, 51, 0
4, 3731, Note_on_c, 9, 51, 57
4, 3794, Note_on_c, 9, 51, 0
4, 3814, Note_on_c, 9, 51, 45
4, 3834, Note_on_c, 9, 51, 0
4, 3851, Note_on_c, 9, 51, 47
4, 3940, Note_on_c, 9, 51, 0
4, 3970, Note_on_c, 9, 51, 59
4, 4058, Note_on_c, 9, 51, 0
4, 4102, Note_on_c, 9, 51, 37
4, 4175, Note_on_c, 9, 51, 0
4, 4216, Note_on_c, 9, 51, 64
4, 4293, Note_on_c, 9, 51, 0
4, 4328, Note_on_c, 9, 51, 32
4, 4412, Note_on_c, 9, 51, 0
4, 4448, Note_on_c, 9, 51, 59
4, 4505, Note_on_c, 9, 51, 0
4, 4532, Note_on_c, 9, 51, 31
4, 4546, Note_on_c, 9, 51, 0
4, 4567, Note_on_c, 9, 51, 47
4, 4635, Note_on_c, 9, 51, 0
4, 4677, Note_on_c, 9, 51, 67
4, 4759, Note_on_c, 9, 51, 0
4, 4781, Note_on_c, 9, 51, 25
4, 4802, Note_on_c, 9, 51, 0
4, 4815, Note_on_c, 9, 51, 48
4, 4890, Note_on_c, 9, 51, 0
4, 4924, Note_on_c, 9, 51, 62
4, 4988, Note_on_c, 9, 51, 0
4, 5017, Note_on_c, 9, 51, 15
4, 5028, Note_on_c, 9, 51, 0
4, 5046, Note_on_c, 9, 51, 49
4, 5117, Note_on_c, 9, 51, 0
4, 5167, Note_on_c, 9, 51, 73
4, 5244, Note_on_c, 9, 51, 0
4, 5287, Note_on_c, 9, 51, 52
4, 5356, Note_on_c, 9, 51, 0
4, 5373, Note_on_c, 9, 53, 56
4, 5482, Note_on_c, 9, 53, 0
4, 5485, Note_on_c, 9, 51, 49
4, 5509, Note_on_c, 9, 51, 0
4, 5528, Note_on_c, 9, 51, 44
4, 5618, Note_on_c, 9, 51, 0
4, 5648, Note_on_c, 9, 51, 47
4, 5708, Note_on_c, 9, 51, 0
4, 5736, Note_on_c, 9, 51, 19
4, 5745, Note_on_c, 9, 51, 0
4, 5765, Note_on_c, 9, 51, 49
4, 5838, Note_on_c, 9, 51, 0
4, 5882, Note_on_c, 9, 51, 75
4, 5956, Note_on_c, 9, 51, 0
4, 6002, Note_on_c, 9, 51, 41
4, 6086, Note_on_c, 9, 51, 0
4, 6127, Note_on_c, 9, 51, 57
4, 6173, Note_on_c, 9, 51, 0
4, 6244, Note_on_c, 9, 51, 47
4, 6332, Note_on_c, 9, 51, 0
4, 6365, Note_on_c, 9, 51, 54
4, 6447, Note_on_c, 9, 51, 0
4, 6481, Note_on_c, 9, 51, 39
4, 6526, Note_on_c, 9, 51, 0
4, 6560, Note_on_c, 9, 51, 54
4, 6581, Note_on_c, 9, 51, 0
4, 6599, Note_on_c, 9, 51, 59
4, 6600, Note_on_c, 9, 57, 73
4, 6659, Note_on_c, 9, 57, 0
4, 6675, Note_on_c, 9, 51, 0
4, 6697, Note_on_c, 9, 51, 37
4, 6756, Note_on_c, 9, 51, 0
4, 6797, Note_on_c, 9, 51, 63
4, 6840, Note_on_c, 9, 51, 0
4, 6922, Note_on_c, 9, 51, 44
4, 6933, Note_on_c, 9, 51, 0
4, 6965, Note_on_c, 9, 51, 64
4, 7040, Note_on_c, 9, 51, 0
4, 7078, Note_on_c, 9, 51, 21
4, 7112, Note_on_c, 9, 51, 0
4, 7156, Note_on_c, 9, 51, 72
4, 7245, Note_on_c, 9, 51, 0
4, 7283, Note_on_c, 9, 51, 48
4, 7302, Note_on_c, 9, 51, 0
4, 7329, Note_on_c, 9, 51, 67
4, 7420, Note_on_c, 9, 51, 0
4, 7446, Note_on_c, 9, 51, 15
4, 7481, Note_on_c, 9, 51, 0
4, 7524, Note_on_c, 9, 51, 73
4, 7615, Note_on_c, 9, 51, 0
4, 7649, Note_on_c, 9, 51, 35
4, 7662, Note_on_c, 9, 51, 0
4, 7688, Note_on_c, 9, 51, 62
4, 7785, Note_on_c, 9, 51, 0
4, 7814, Note_on_c, 9, 51, 23
4, 7829, Note_on_c, 9, 51, 0
4, 7885, Note_on_c, 9, 51, 77
4, 7960, Note_on_c, 9, 51, 0
4, 8018, Note_on_c, 9, 51, 18
4, 8033, Note_on_c, 9, 51, 0
4, 8052, Note_on_c, 9, 51, 68
4, 8140, Note_on_c, 9, 51, 0
4, 8172, Note_on_c, 9, 51, 35
4, 8220, Note_on_c, 9, 51, 0
4, 8247, Note_on_c, 9, 51, 68
4, 8334, Note_on_c, 9, 51, 0
4, 8370, Note_on_c, 9, 51, 27
4, 8402, Note_on_c, 9, 51, 0
4, 8418, Note_on_c, 9, 51, 61
4, 8501, Note_on_c, 9, 51, 0
4, 8533, Note_on_c, 9, 51, 64
4, 8613, Note_on_c, 9, 51, 0
4, 8660, Note_on_c, 9, 51, 40
4, 8735, Note_on_c, 9, 51, 0
4, 8775, Note_on_c, 9, 51, 66
4, 8829, Note_on_c, 9, 51, 0
4, 8862, Note_on_c, 9, 51, 27
4, 8874, Note_on_c, 9, 51, 0
4, 8892, Note_on_c, 9, 51, 54
4, 8975, Note_on_c, 9, 51, 0
4, 9012, Note_on_c, 9, 51, 63
4, 9070, Note_on_c, 9, 51, 0
4, 9097, Note_on_c, 9, 51, 28
4, 9114, Note_on_c, 9, 51, 0
4, 9132, Note_on_c, 9, 51, 60
4, 9212, Note_on_c, 9, 51, 0
4, 9246, Note_on_c, 9, 51, 56
4, 9307, Note_on_c, 9, 51, 0
4, 9335, Note_on_c, 9, 51, 32
4, 9356, Note_on_c, 9, 51, 0
4, 9368, Note_on_c, 9, 51, 35
4, 9430, Note_on_c, 9, 51, 0
4, 9449, Note_on_c, 9, 53, 56
4, 9502, Note_on_c, 9, 51, 53
4, 9503, Note_on_c, 9, 53, 0
4, 9530, Note_on_c, 9, 51, 0
4, 9580, Note_on_c, 9, 51, 45
4, 9598, Note_on_c, 9, 51, 0
4, 9612, Note_on_c, 9, 51, 46
4, 9701, Note_on_c, 9, 51, 0
4, 9732, Note_on_c, 9, 51, 52
4, 9795, Note_on_c, 9, 51, 0
4, 9823, Note_on_c, 9, 51, 23
4, 9834, Note_on_c, 9, 51, 0
4, 9851, Note_on_c, 9, 51, 57
4, 9933, Note_on_c, 9, 51, 0
4, 9966, Note_on_c, 9, 51, 63
4, 10051, Note_on_c, 9, 51, 0
4, 10082, Note_on_c, 9, 51, 44
4, 10160, Note_on_c, 9, 51, 0
4, 10201, Note_on_c, 9, 51, 62
4, 10267, Note_on_c, 9, 51, 0
4, 10326, Note_on_c, 9, 51, 58
4, 10385, Note_on_c, 9, 51, 0
4, 10442, Note_on_c, 9, 51, 54
4, 10494, Note_on_c, 9, 51, 0
4, 10529, Note_on_c, 9, 51, 28
4, 10551, Note_on_c, 9, 51, 0
4, 10565, Note_on_c, 9, 51, 45
4, 10641, Note_on_c, 9, 51, 0
4, 10679, Note_on_c, 9, 51, 73
4, 10742, Note_on_c, 9, 51, 0
4, 10768, Note_on_c, 9, 51, 29
4, 10785, Note_on_c, 9, 51, 0
4, 10804, Note_on_c, 9, 51, 56
4, 10880, Note_on_c, 9, 51, 0
4, 10922, Note_on_c, 9, 51, 68
4, 10981, Note_on_c, 9, 51, 0
4, 11011, Note_on_c, 9, 51, 42
4, 11032, Note_on_c, 9, 51, 0
4, 11048, Note_on_c, 9, 51, 63
4, 11124, Note_on_c, 9, 51, 0
4, 11167, Note_on_c, 9, 51, 64
4, 11234, Note_on_c, 9, 51, 0
4, 11255, Note_on_c, 9, 51, 42
4, 11270, Note_on_c, 9, 51, 0
4, 11295, Note_on_c, 9, 51, 52
4, 11364, Note_on_c, 9, 51, 0
4, 11412, Note_on_c, 9, 51, 67
4, 11497, Note_on_c, 9, 51, 0
4, 11533, Note_on_c, 9, 51, 25
4, 11601, Note_on_c, 9, 51, 0
4, 11648, Note_on_c, 9, 51, 65
4, 11727, Note_on_c, 9, 51, 0
4, 11774, Note_on_c, 9, 51, 19
4, 11823, Note_on_c, 9, 51, 0
4, 11892, Note_on_c, 9, 51, 61
4, 11944, Note_on_c, 9, 51, 0
4, 11969, Note_on_c, 9, 51, 27
4, 11990, Note_on_c, 9, 51, 0
4, 12009, Note_on_c, 9, 51, 52
4, 12082, Note_on_c, 9, 51, 0
4, 12138, Note_on_c, 9, 51, 63
4, 12199, Note_on_c, 9, 51, 0
4, 12222, Note_on_c, 9, 51, 31
4, 12232, Note_on_c, 9, 51, 0
4, 12255, Note_on_c, 9, 51, 46
4, 12327, Note_on_c, 9, 51, 0
4, 12372, Note_on_c, 9, 51, 62
4, 12436, Note_on_c, 9, 51, 0
4, 12463, Note_on_c, 9, 51, 21
4, 12479, Note_on_c, 9, 51, 0
4, 12498, Note_on_c, 9, 51, 53
4, 12566, Note_on_c, 9, 51, 0
4, 12606, Note_on_c, 9, 51, 68
4, 12690, Note_on_c, 9, 51, 0
4, 12729, Note_on_c, 9, 51, 35
4, 12792, Note_on_c, 9, 51, 0
4, 12841, Note_on_c, 9, 51, 68
4, 12912, Note_on_c, 9, 51, 0
4, 12973, Note_on_c, 9, 51, 17
4, 13037, Note_on_c, 9, 51, 0
4, 13086, Note_on_c, 9, 51, 68
4, 13160, Note_on_c, 9, 51, 0
4, 13204, Note_on_c, 9, 51, 47
4, 13282, Note_on_c, 9, 51, 0
4, 13322, Note_on_c, 9, 51, 60
4, 13384, Note_on_c, 9, 51, 0
4, 13408, Note_on_c, 9, 51, 31
4, 13424, Note_on_c, 9, 51, 0
4, 13445, Note_on_c, 9, 51, 49
4, 13529, Note_on_c, 9, 51, 0
4, 13559, Note_on_c, 9, 51, 55
4, 13635, Note_on_c, 9, 51, 0
4, 13681, Note_on_c, 9, 51, 56
4, 13766, Note_on_c, 9, 51, 0
4, 13799, Note_on_c, 9, 51, 46
4, 13800, Note_on_c, 9, 53, 57
4, 13839, Note_on_c, 9, 53, 0
4, 13891, Note_on_c, 9, 51, 0
4, 13923, Note_on_c, 9, 51, 32
4, 13987, Note_on_c, 9, 51, 0
4, 14021, Note_on_c, 9, 51, 56
4, 14040, Note_on_c, 9, 51, 0
4, 14056, Note_on_c, 9, 51, 67
4, 14109, Note_on_c, 9, 51, 0
4, 14134, Note_on_c, 9, 51, 52
4, 14209, Note_on_c, 9, 51, 0
4, 14256, Note_on_c, 9, 51, 31
4, 14267, Note_on_c, 9, 51, 0
4, 14295, Note_on_c, 9, 51, 61
4, 14374, Note_on_c, 9, 51, 0
4, 14407, Note_on_c, 9, 51, 21
4, 14418, Note_on_c, 9, 51, 0
4, 14491, Note_on_c, 9, 51, 77
4, 14572, Note_on_c, 9, 51, 0
4, 14617, Note_on_c, 9, 51, 37
4, 14630, Note_on_c, 9, 51, 0
4, 14670, Note_on_c, 9, 51, 73
4, 14744, Note_on_c, 9, 51, 0
4, 14772, Note_on_c, 9, 51, 22
4, 14785, Note_on_c, 9, 51, 0
4, 14848, Note_on_c, 9, 51, 68
4, 14922, Note_on_c, 9, 51, 0
4, 15017, Note_on_c, 9, 53, 67
4, 15087, Note_on_c, 9, 53, 0
4, 15119, Note_on_c, 9, 51, 41
4, 15132, Note_on_c, 9, 51, 0
4, 15201, Note_on_c, 9, 59, 80
4, 15293, Note_on_c, 9, 59, 0
4, 15327, Note_on_c, 9, 59, 35
4, 15338, Note_on_c, 9, 59, 0
4, 15363, Note_on_c, 9, 59, 69
4, 15455, Note_on_c, 9, 59, 0
4, 15485, Note_on_c, 9, 59, 58
4, 15552, Note_on_c, 9, 59, 0
4, 15610, Note_on_c, 9, 59, 54
4, 15661, Note_on_c, 9, 59, 0
4, 15726, Note_on_c, 9, 59, 61
4, 15782, Note_on_c, 9, 59, 0
4, 15849, Note_on_c, 9, 59, 56
4, 15897, Note_on_c, 9, 59, 0
4, 15969, Note_on_c, 9, 59, 57
4, 16018, Note_on_c, 9, 59, 0
4, 16055, Note_on_c, 9, 59, 36
4, 16068, Note_on_c, 9, 59, 0
4, 16090, Note_on_c, 9, 59, 48
4, 16150, Note_on_c, 9, 59, 0
4, 16207, Note_on_c, 9, 59, 69
4, 16279, Note_on_c, 9, 59, 0
4, 16303, Note_on_c, 9, 59, 40
4, 16313, Note_on_c, 9, 59, 0
4, 16332, Note_on_c, 9, 59, 54
4, 16407, Note_on_c, 9, 59, 0
4, 16448, Note_on_c, 9, 59, 72
4, 16521, Note_on_c, 9, 59, 0
4, 16552, Note_on_c, 9, 59, 37
4, 16564, Note_on_c, 9, 59, 0
4, 16582, Note_on_c, 9, 59, 51
4, 16626, Note_on_c, 9, 59, 0
4, 16685, Note_on_c, 9, 59, 75
4, 16761, Note_on_c, 9, 59, 0
4, 16807, Note_on_c, 9, 59, 58
4, 16877, Note_on_c, 9, 59, 0
4, 16928, Note_on_c, 9, 59, 60
4, 16988, Note_on_c, 9, 59, 0
4, 17011, Note_on_c, 9, 59, 44
4, 17021, Note_on_c, 9, 59, 0
4, 17051, Note_on_c, 9, 59, 47
4, 17087, Note_on_c, 9, 59, 0
4, 17130, Note_on_c, 9, 59, 76
4, 17229, Note_on_c, 9, 59, 0
4, 17256, Note_on_c, 9, 59, 18
4, 17269, Note_on_c, 9, 59, 0
4, 17295, Note_on_c, 9, 59, 68
4, 17369, Note_on_c, 9, 59, 0
4, 17413, Note_on_c, 9, 59, 21
4, 17428, Note_on_c, 9, 59, 0
4, 17487, Note_on_c, 9, 59, 74
4, 17546, Note_on_c, 9, 59, 0
4, 17656, Note_on_c, 9, 59, 73
4, 17734, Note_on_c, 9, 59, 0
4, 17769, Note_on_c, 9, 59, 48
4, 17824, Note_on_c, 9, 59, 0
4, 17882, Note_on_c, 9, 59, 73
4, 17943, Note_on_c, 9, 59, 0
4, 17973, Note_on_c, 9, 59, 19
4, 17986, Note_on_c, 9, 59, 0
4, 18003, Note_on_c, 9, 59, 56
4, 18080, Note_on_c, 9, 59, 0
4, 18120, Note_on_c, 9, 59, 67
4, 18175, Note_on_c, 9, 59, 0
4, 18203, Note_on_c, 9, 59, 31
4, 18218, Note_on_c, 9, 59, 0
4, 18241, Note_on_c, 9, 59, 63
4, 18325, Note_on_c, 9, 59, 0
4, 18364, Note_on_c, 9, 59, 67
4, 18455, Note_on_c, 9, 59, 0
4, 18481, Note_on_c, 9, 59, 53
4, 18563, Note_on_c, 9, 59, 0
4, 18603, Note_on_c, 9, 59, 57
4, 18669, Note_on_c, 9, 59, 0
4, 18692, Note_on_c, 9, 59, 47
4, 18713, Note_on_c, 9, 59, 0
4, 18728, Note_on_c, 9, 59, 58
4, 18817, Note_on_c, 9, 59, 0
4, 18850, Note_on_c, 9, 59, 62
4, 18914, Note_on_c, 9, 59, 0
4, 18939, Note_on_c, 9, 59, 38
4, 18952, Note_on_c, 9, 59, 0
4, 18972, Note_on_c, 9, 59, 67
4, 19059, Note_on_c, 9, 59, 0
4, 19090, Note_on_c, 9, 59, 64
4, 19156, Note_on_c, 9, 59, 0
4, 19180, Note_on_c, 9, 59, 35
4, 19191, Note_on_c, 9, 59, 0
4, 19210, Note_on_c, 9, 59, 62
4, 19295, Note_on_c, 9, 59, 0
4, 19328, Note_on_c, 9, 59, 67
4, 19406, Note_on_c, 9, 59, 0
4, 19450, Note_on_c, 9, 59, 56
4, 19527, Note_on_c, 9, 59, 0
4, 19569, Note_on_c, 9, 59, 58
4, 19631, Note_on_c, 9, 59, 0
4, 19654, Note_on_c, 9, 59, 43
4, 19668, Note_on_c, 9, 59, 0
4, 19689, Note_on_c, 9, 59, 56
4, 19772, Note_on_c, 9, 59, 0
4, 19804, Note_on_c, 9, 59, 65
4, 19872, Note_on_c, 9, 59, 0
4, 19894, Note_on_c, 9, 59, 53
4, 19904, Note_on_c, 9, 59, 0
4, 19929, Note_on_c, 9, 59, 54
4, 20019, Note_on_c, 9, 59, 0
4, 20046, Note_on_c, 9, 59, 67
4, 20114, Note_on_c, 9, 59, 0
4, 20140, Note_on_c, 9, 59, 26
4, 20152, Note_on_c, 9, 59, 0
4, 20169, Note_on_c, 9, 59, 56
4, 20253, Note_on_c, 9, 59, 0
4, 20285, Note_on_c, 9, 59, 69
4, 20371, Note_on_c, 9, 59, 0
4, 20402, Note_on_c, 9, 59, 42
4, 20466, Note_on_c, 9, 59, 0
4, 20490, Note_on_c, 9, 59, 42
4, 20500, Note_on_c, 9, 59, 0
4, 20525, Note_on_c, 9, 59, 63
4, 20613, Note_on_c, 9, 59, 0
4, 20649, Note_on_c, 9, 59, 25
4, 20706, Note_on_c, 9, 59, 0
4, 20727, Note_on_c, 9, 59, 60
4, 20748, Note_on_c, 9, 59, 0
4, 20763, Note_on_c, 9, 59, 70
4, 20858, Note_on_c, 9, 59, 0
4, 20889, Note_on_c, 9, 59, 56
4, 20965, Note_on_c, 9, 59, 0
4, 20985, Note_on_c, 9, 59, 58
4, 21070, Note_on_c, 9, 59, 0
4, 21130, Note_on_c, 9, 59, 65
4, 21215, Note_on_c, 9, 59, 0
4, 21253, Note_on_c, 9, 59, 63
4, 21309, Note_on_c, 9, 59, 0
4, 21332, Note_on_c, 9, 59, 37
4, 21345, Note_on_c, 9, 59, 0
4, 21367, Note_on_c, 9, 59, 63
4, 21451, Note_on_c, 9, 59, 0
4, 21492, Note_on_c, 9, 59, 76
4, 21557, Note_on_c, 9, 59, 0
4, 21581, Note_on_c, 9, 59, 38
4, 21593, Note_on_c, 9, 59, 0
4, 21614, Note_on_c, 9, 59, 49
4, 21687, Note_on_c, 9, 59, 0
4, 21728, Note_on_c, 9, 59, 76
4, 21791, Note_on_c, 9, 59, 0
4, 21818, Note_on_c, 9, 59, 28
4, 21831, Note_on_c, 9, 59, 0
4, 21852, Note_on_c, 9, 59, 63
4, 21925, Note_on_c, 9, 59, 0
4, 21971, Note_on_c, 9, 59, 75
4, 22036, Note_on_c, 9, 59, 0
4, 22091, Note_on_c, 9, 59, 56
4, 22164, Note_on_c, 9, 59, 0
4, 22208, Note_on_c, 9, 59, 74
4, 22279, Note_on_c, 9, 59, 0
4, 22304, Note_on_c, 9, 59, 38
4, 22315, Note_on_c, 9, 59, 0
4, 22335, Note_on_c, 9, 59, 54
4, 22389, Note_on_c, 9, 59, 0
4, 22419, Note_on_c, 9, 59, 74
4, 22512, Note_on_c, 9, 59, 0
4, 22541, Note_on_c, 9, 59, 18
4, 22553, Note_on_c, 9, 59, 0
4, 22586, Note_on_c, 9, 59, 74
4, 22662, Note_on_c, 9, 59, 0
4, 22699, Note_on_c, 9, 59, 25
4, 22728, Note_on_c, 9, 59, 0
4, 22770, Note_on_c, 9, 59, 76
4, 22852, Note_on_c, 9, 59, 0
4, 22897, Note_on_c, 9, 59, 18
4, 22914, Note_on_c, 9, 59, 0
4, 22941, Note_on_c, 9, 59, 73
4, 23004, Note_on_c, 9, 59, 0
4, 23043, Note_on_c, 9, 59, 1
4, 23065, Note_on_c, 9, 59, 0
4, 23129, Note_on_c, 9, 59, 73
4, 23175, Note_on_c, 9, 59, 0
4, 23252, Note_on_c, 9, 59, 42
4, 23264, Note_on_c, 9, 59, 0
4, 23291, Note_on_c, 9, 59, 66
4, 23373, Note_on_c, 9, 59, 0
4, 23406, Note_on_c, 9, 59, 65
4, 23466, Note_on_c, 9, 59, 0
4, 23495, Note_on_c, 9, 59, 19
4, 23508, Note_on_c, 9, 59, 0
4, 23532, Note_on_c, 9, 59, 49
4, 23599, Note_on_c, 9, 59, 0
4, 23646, Note_on_c, 9, 59, 79
4, 23700, Note_on_c, 9, 59, 0
4, 23741, Note_on_c, 9, 59, 33
4, 23752, Note_on_c, 9, 59, 0
4, 23783, Note_on_c, 9, 59, 42
4, 23796, Note_on_c, 9, 59, 0
4, 23850, Note_on_c, 9, 59, 81
4, 23913, Note_on_c, 9, 59, 0
4, 23952, Note_on_c, 9, 59, 27
4, 23965, Note_on_c, 9, 59, 0
4, 23996, Note_on_c, 9, 59, 47
4, 24006, Note_on_c, 9, 59, 0
4, 24033, Note_on_c, 9, 59, 69
4, 24099, Note_on_c, 9, 59, 0
4, 24129, Note_on_c, 9, 59, 38
4, 24163, Note_on_c, 9, 59, 0
4, 24204, Note_on_c, 9, 59, 84
4, 24270, Note_on_c, 9, 59, 0
4, 24330, Note_on_c, 9, 59, 44
4, 24340, Note_on_c, 9, 59, 0
4, 24372, Note_on_c, 9, 59, 67
4, 24442, Note_on_c, 9, 59, 0
4, 24496, Note_on_c, 9, 59, 50
4, 24566, Note_on_c, 9, 59, 0
4, 24610, Note_on_c, 9, 59, 64
4, 24663, Note_on_c, 9, 59, 0
4, 24689, Note_on_c, 9, 59, 36
4, 24708, Note_on_c, 9, 59, 0
4, 24726, Note_on_c, 9, 59, 45
4, 24778, Note_on_c, 9, 59, 0
4, 24839, Note_on_c, 9, 59, 79
4, 24897, Note_on_c, 9, 59, 0
4, 24923, Note_on_c, 9, 59, 40
4, 24940, Note_on_c, 9, 59, 0
4, 24963, Note_on_c, 9, 59, 68
4, 25032, Note_on_c, 9, 59, 0
4, 25077, Note_on_c, 9, 59, 70
4, 25162, Note_on_c, 9, 59, 0
4, 25206, Note_on_c, 9, 59, 43
4, 25270, Note_on_c, 9, 59, 0
4, 25327, Note_on_c, 9, 59, 58
4, 25400, Note_on_c, 9, 59, 0
4, 25454, Note_on_c, 9, 59, 30
4, 25510, Note_on_c, 9, 59, 0
4, 25564, Note_on_c, 9, 59, 63
4, 25635, Note_on_c, 9, 59, 0
4, 25681, Note_on_c, 9, 59, 28
4, 25750, Note_on_c, 9, 59, 0
4, 25809, Note_on_c, 9, 59, 60
4, 25887, Note_on_c, 9, 59, 0
4, 25939, Note_on_c, 9, 59, 40
4, 25999, Note_on_c, 9, 59, 0
4, 26053, Note_on_c, 9, 59, 62
4, 26112, Note_on_c, 9, 59, 0
4, 26137, Note_on_c, 9, 59, 38
4, 26159, Note_on_c, 9, 59, 0
4, 26172, Note_on_c, 9, 59, 35
4, 26253, Note_on_c, 9, 59, 0
4, 26291, Note_on_c, 9, 59, 61
4, 26352, Note_on_c, 9, 59, 0
4, 26378, Note_on_c, 9, 59, 31
4, 26390, Note_on_c, 9, 59, 0
4, 26414, Note_on_c, 9, 59, 44
4, 26473, Note_on_c, 9, 59, 0
4, 26520, Note_on_c, 9, 59, 53
4, 26584, Note_on_c, 9, 59, 0
4, 26633, Note_on_c, 9, 59, 52
4, 26695, Note_on_c, 9, 59, 0
4, 26757, Note_on_c, 9, 59, 47
4, 26819, Note_on_c, 9, 59, 0
4, 26883, Note_on_c, 9, 59, 50
4, 26946, Note_on_c, 9, 59, 0
4, 27003, Note_on_c, 9, 59, 54
4, 27062, Note_on_c, 9, 59, 0
4, 27090, Note_on_c, 9, 59, 40
4, 27109, Note_on_c, 9, 59, 0
4, 27127, Note_on_c, 9, 59, 27
4, 27192, Note_on_c, 9, 59, 0
4, 27243, Note_on_c, 9, 59, 53
4, 27297, Note_on_c, 9, 59, 0
4, 27361, Note_on_c, 9, 59, 59
4, 27424, Note_on_c, 9, 59, 0
4, 27480, Note_on_c, 9, 59, 56
4, 27531, Note_on_c, 9, 59, 0
4, 27575, Note_on_c, 9, 59, 42
4, 27586, Note_on_c, 9, 59, 0
4, 27610, Note_on_c, 9, 59, 53
4, 27666, Note_on_c, 9, 59, 0
4, 27727, Note_on_c, 9, 59, 61
4, 27780, Note_on_c, 9, 59, 0
4, 27813, Note_on_c, 9, 59, 33
4, 27827, Note_on_c, 9, 59, 0
4, 27852, Note_on_c, 9, 59, 51
4, 27889, Note_on_c, 9, 59, 0
4, 27937, Note_on_c, 9, 59, 63
4, 28034, Note_on_c, 9, 59, 0
4, 28059, Note_on_c, 9, 59, 44
4, 28071, Note_on_c, 9, 59, 0
4, 28097, Note_on_c, 9, 59, 64
4, 28166, Note_on_c, 9, 59, 0
4, 28215, Note_on_c, 9, 59, 27
4, 28227, Note_on_c, 9, 59, 0
4, 28285, Note_on_c, 9, 59, 73
4, 28334, Note_on_c, 9, 59, 0
4, 28418, Note_on_c, 9, 59, 40
4, 28433, Note_on_c, 9, 59, 0
4, 28460, Note_on_c, 9, 59, 67
4, 28515, Note_on_c, 9, 59, 0
4, 28555, Note_on_c, 9, 59, 30
4, 28581, Note_on_c, 9, 59, 0
4, 28643, Note_on_c, 9, 59, 68
4, 28681, Note_on_c, 9, 59, 0
4, 28756, Note_on_c, 9, 59, 1
4, 28788, Note_on_c, 9, 59, 0
4, 28795, Note_on_c, 9, 59, 25
4, 28865, Note_on_c, 9, 59, 0
4, 28926, Note_on_c, 9, 59, 56
4, 28971, Note_on_c, 9, 59, 0
4, 29008, Note_on_c, 9, 59, 22
4, 29021, Note_on_c, 9, 59, 0
4, 29042, Note_on_c, 9, 59, 52
4, 29112, Note_on_c, 9, 59, 0
4, 29167, Note_on_c, 9, 59, 59
4, 29210, Note_on_c, 9, 59, 0
4, 29248, Note_on_c, 9, 59, 44
4, 29259, Note_on_c, 9, 59, 0
4, 29285, Note_on_c, 9, 59, 58
4, 29330, Note_on_c, 9, 59, 0
4, 29402, Note_on_c, 9, 59, 67
4, 29471, Note_on_c, 9, 59, 0
4, 29517, Note_on_c, 9, 59, 51
4, 29527, Note_on_c, 9, 59, 0
4, 29559, Note_on_c, 9, 59, 62
4, 29587, Note_on_c, 9, 59, 0
4, 29656, Note_on_c, 9, 59, 73
4, 29720, Note_on_c, 9, 59, 0
4, 29742, Note_on_c, 9, 59, 53
4, 29764, Note_on_c, 9, 59, 0
4, 29784, Note_on_c, 9, 59, 72
4, 29808, Note_on_c, 9, 59, 0
4, 29887, Note_on_c, 9, 59, 74
4, 29970, Note_on_c, 9, 59, 0
4, 30003, Note_on_c, 9, 59, 56
4, 30069, Note_on_c, 9, 59, 0
4, 30124, Note_on_c, 9, 59, 64
4, 30196, Note_on_c, 9, 59, 0
4, 30246, Note_on_c, 9, 59, 63
4, 30323, Note_on_c, 9, 59, 0
4, 30372, Note_on_c, 9, 59, 72
4, 30443, Note_on_c, 9, 59, 0
4, 30455, Note_on_c, 9, 51, 63
4, 30543, Note_on_c, 9, 51, 0
4, 30578, Note_on_c, 9, 51, 79
4, 30660, Note_on_c, 9, 51, 0
4, 30703, Note_on_c, 9, 51, 75
4, 30735, Note_on_c, 9, 51, 0
4, 30748, Note_on_c, 9, 51, 49
4, 30825, Note_on_c, 9, 51, 0
4, 30857, Note_on_c, 9, 51, 61
4, 30945, Note_on_c, 9, 51, 0
4, 30989, Note_on_c, 9, 51, 37
4, 31004, Note_on_c, 9, 51, 0
4, 31065, Note_on_c, 9, 51, 56
4, 31083, Note_on_c, 9, 51, 0
4, 31101, Note_on_c, 9, 51, 65
4, 31171, Note_on_c, 9, 51, 0
4, 31284, Note_on_c, 9, 51, 61
4, 31348, Note_on_c, 9, 51, 0
4, 31416, Note_on_c, 9, 51, 14
4, 31426, Note_on_c, 9, 51, 0
4, 31450, Note_on_c, 9, 51, 52
4, 31530, Note_on_c, 9, 51, 0
4, 31561, Note_on_c, 9, 51, 21
4, 31589, Note_on_c, 9, 51, 0
4, 31636, Note_on_c, 9, 51, 59
4, 31674, Note_on_c, 9, 51, 0
4, 31681, Note_on_c, 9, 51, 16
4, 31697, Note_on_c, 9, 51, 0
4, 31799, Note_on_c, 9, 51, 50
4, 31856, Note_on_c, 9, 51, 0
4, 31884, Note_on_c, 9, 51, 20
4, 31901, Note_on_c, 9, 51, 0
4, 31924, Note_on_c, 9, 51, 41
4, 31993, Note_on_c, 9, 51, 0
4, 32043, Note_on_c, 9, 51, 54
4, 32108, Note_on_c, 9, 51, 0
4, 32136, Note_on_c, 9, 51, 20
4, 32147, Note_on_c, 9, 51, 0
4, 32168, Note_on_c, 9, 51, 50
4, 32241, Note_on_c, 9, 51, 0
4, 32282, Note_on_c, 9, 51, 57
4, 32351, Note_on_c, 9, 51, 0
4, 32486, Note_on_c, 9, 51, 57
4, 32508, Note_on_c, 9, 51, 0
4, 32529, Note_on_c, 9, 51, 45
4, 32599, Note_on_c, 9, 51, 0
4, 32650, Note_on_c, 9, 51, 58
4, 32734, Note_on_c, 9, 51, 0
4, 32773, Note_on_c, 9, 51, 56
4, 32837, Note_on_c, 9, 51, 0
4, 32862, Note_on_c, 9, 51, 29
4, 32876, Note_on_c, 9, 51, 0
4, 32896, Note_on_c, 9, 51, 49
4, 32973, Note_on_c, 9, 51, 0
4, 33006, Note_on_c, 9, 51, 59
4, 33059, Note_on_c, 9, 51, 0
4, 33135, Note_on_c, 9, 51, 53
4, 33210, Note_on_c, 9, 51, 0
4, 33247, Note_on_c, 9, 51, 62
4, 33329, Note_on_c, 9, 51, 0
4, 33372, Note_on_c, 9, 51, 21
4, 33431, Note_on_c, 9, 51, 0
4, 33456, Note_on_c, 9, 51, 41
4, 33478, Note_on_c, 9, 51, 0
4, 33495, Note_on_c, 9, 51, 59
4, 33576, Note_on_c, 9, 51, 0
4, 33618, Note_on_c, 9, 51, 49
4, 33690, Note_on_c, 9, 51, 0
4, 33732, Note_on_c, 9, 51, 54
4, 33793, Note_on_c, 9, 51, 0
4, 33817, Note_on_c, 9, 51, 32
4, 33830, Note_on_c, 9, 51, 0
4, 33850, Note_on_c, 9, 51, 47
4, 33939, Note_on_c, 9, 51, 0
4, 33970, Note_on_c, 9, 51, 52
4, 34032, Note_on_c, 9, 51, 0
4, 34053, Note_on_c, 9, 51, 34
4, 34066, Note_on_c, 9, 51, 0
4, 34087, Note_on_c, 9, 51, 50
4, 34170, Note_on_c, 9, 51, 0
4, 34206, Note_on_c, 9, 51, 54
4, 34269, Note_on_c, 9, 51, 0
4, 34293, Note_on_c, 9, 51, 35
4, 34311, Note_on_c, 9, 51, 0
4, 34334, Note_on_c, 9, 51, 53
4, 34416, Note_on_c, 9, 51, 0
4, 34448, Note_on_c, 9, 51, 59
4, 34506, Note_on_c, 9, 51, 0
4, 34533, Note_on_c, 9, 51, 27
4, 34545, Note_on_c, 9, 51, 0
4, 34568, Note_on_c, 9, 51, 42
4, 34654, Note_on_c, 9, 51, 0
4, 34692, Note_on_c, 9, 51, 61
4, 34775, Note_on_c, 9, 51, 0
4, 34808, Note_on_c, 9, 51, 50
4, 34884, Note_on_c, 9, 51, 0
4, 34926, Note_on_c, 9, 51, 59
4, 34987, Note_on_c, 9, 51, 0
4, 35018, Note_on_c, 9, 51, 19
4, 35029, Note_on_c, 9, 51, 0
4, 35049, Note_on_c, 9, 51, 54
4, 35135, Note_on_c, 9, 51, 0
4, 35163, Note_on_c, 9, 51, 56
4, 35222, Note_on_c, 9, 51, 0
4, 35283, Note_on_c, 9, 51, 61
4, 35350, Note_on_c, 9, 51, 0
4, 35376, Note_on_c, 9, 51, 22
4, 35391, Note_on_c, 9, 51, 0
4, 35411, Note_on_c, 9, 51, 58
4, 35502, Note_on_c, 9, 51, 0
4, 35531, Note_on_c, 9, 51, 48
4, 35599, Note_on_c, 9, 51, 0
4, 35638, Note_on_c, 9, 51, 17
4, 35648, Note_on_c, 9, 51, 0
4, 35665, Note_on_c, 9, 51, 58
4, 35748, Note_on_c, 9, 51, 0
4, 35778, Note_on_c, 9, 51, 45
4, 35851, Note_on_c, 9, 51, 0
4, 35872, Note_on_c, 9, 51, 28
4, 35882, Note_on_c, 9, 51, 0
4, 35901, Note_on_c, 9, 51, 42
4, 35985, Note_on_c, 9, 51, 0
4, 36024, Note_on_c, 9, 51, 57
4, 36098, Note_on_c, 9, 51, 0
4, 36138, Note_on_c, 9, 51, 59
4, 36204, Note_on_c, 9, 51, 0
4, 36255, Note_on_c, 9, 51, 55
4, 36328, Note_on_c, 9, 51, 0
4, 36370, Note_on_c, 9, 51, 58
4, 36424, Note_on_c, 9, 51, 0
4, 36459, Note_on_c, 9, 51, 24
4, 36469, Note_on_c, 9, 51, 0
4, 36487, Note_on_c, 9, 51, 44
4, 36545, Note_on_c, 9, 51, 0
4, 36575, Note_on_c, 9, 51, 45
4, 36582, Note_on_c, 9, 53, 42
4, 36660, Note_on_c, 9, 51, 0
4, 36664, Note_on_c, 9, 53, 0
4, 36687, Note_on_c, 9, 51, 41
4, 36708, Note_on_c, 9, 51, 0
4, 36733, Note_on_c, 9, 51, 48
4, 36755, Note_on_c, 9, 53, 38
4, 36782, Note_on_c, 9, 53, 0
4, 36815, Note_on_c, 9, 51, 0
4, 36852, Note_on_c, 9, 51, 29
4, 36887, Note_on_c, 9, 51, 0
4, 36924, Note_on_c, 9, 51, 61
4, 37009, Note_on_c, 9, 51, 0
4, 37052, Note_on_c, 9, 51, 25
4, 37062, Note_on_c, 9, 51, 0
4, 37086, Note_on_c, 9, 51, 42
4, 37176, Note_on_c, 9, 51, 0
4, 37209, Note_on_c, 9, 51, 30
4, 37248, Note_on_c, 9, 51, 0
4, 37284, Note_on_c, 9, 59, 62
4, 37286, Note_on_c, 9, 51, 65
4, 37296, Note_on_c, 9, 58, 27
4, 37306, Note_on_c, 9, 58, 0
4, 37343, Note_on_c, 9, 51, 0
4, 37349, Note_on_c, 9, 59, 0
4, 37405, Note_on_c, 9, 51, 25
4, 37422, Note_on_c, 9, 51, 0
4, 37459, Note_on_c, 9, 51, 63
4, 37523, Note_on_c, 9, 51, 0
4, 37570, Note_on_c, 9, 51, 31
4, 37608, Note_on_c, 9, 51, 0
4, 37641, Note_on_c, 9, 51, 65
4, 37720, Note_on_c, 9, 51, 0
4, 37764, Note_on_c, 9, 51, 31
4, 37777, Note_on_c, 9, 51, 0
4, 37804, Note_on_c, 9, 51, 50
4, 37881, Note_on_c, 9, 51, 0
4, 37928, Note_on_c, 9, 51, 27
4, 37964, Note_on_c, 9, 51, 0
4, 38007, Note_on_c, 9, 59, 59
4, 38009, Note_on_c, 9, 51, 56
4, 38060, Note_on_c, 9, 59, 0
4, 38078, Note_on_c, 9, 51, 0
4, 38128, Note_on_c, 9, 51, 20
4, 38140, Note_on_c, 9, 51, 0
4, 38177, Note_on_c, 9, 59, 66
4, 38180, Note_on_c, 9, 51, 67
4, 38246, Note_on_c, 9, 51, 0
4, 38255, Note_on_c, 9, 59, 0
4, 38291, Note_on_c, 9, 51, 22
4, 38320, Note_on_c, 9, 51, 0
4, 38367, Note_on_c, 9, 59, 65
4, 38368, Note_on_c, 9, 51, 68
4, 38377, Note_on_c, 9, 58, 34
4, 38386, Note_on_c, 9, 58, 0
4, 38417, Note_on_c, 9, 59, 0
4, 38444, Note_on_c, 9, 51, 0
4, 38496, Note_on_c, 9, 51, 27
4, 38511, Note_on_c, 9, 51, 0
4, 38535, Note_on_c, 9, 51, 47
4, 38614, Note_on_c, 9, 51, 0
4, 38648, Note_on_c, 9, 51, 48
4, 38720, Note_on_c, 9, 51, 0
4, 38762, Note_on_c, 9, 51, 59
4, 38820, Note_on_c, 9, 51, 0
4, 38854, Note_on_c, 9, 51, 22
4, 38867, Note_on_c, 9, 51, 0
4, 38890, Note_on_c, 9, 51, 58
4, 38958, Note_on_c, 9, 51, 0
4, 39005, Note_on_c, 9, 51, 62
4, 39066, Note_on_c, 9, 51, 0
4, 39097, Note_on_c, 9, 51, 24
4, 39110, Note_on_c, 9, 51, 0
4, 39132, Note_on_c, 9, 51, 53
4, 39206, Note_on_c, 9, 51, 0
4, 39246, Note_on_c, 9, 51, 67
4, 39318, Note_on_c, 9, 51, 0
4, 39340, Note_on_c, 9, 51, 33
4, 39351, Note_on_c, 9, 51, 0
4, 39373, Note_on_c, 9, 51, 48
4, 39448, Note_on_c, 9, 51, 0
4, 39487, Note_on_c, 9, 51, 68
4, 39554, Note_on_c, 9, 51, 0
4, 39577, Note_on_c, 9, 51, 27
4, 39590, Note_on_c, 9, 51, 0
4, 39612, Note_on_c, 9, 51, 54
4, 39695, Note_on_c, 9, 51, 0
4, 39735, Note_on_c, 9, 51, 62
4, 39829, Note_on_c, 9, 51, 0
4, 39861, Note_on_c, 9, 51, 34
4, 39927, Note_on_c, 9, 51, 0
4, 39968, Note_on_c, 9, 51, 59
4, 40054, Note_on_c, 9, 51, 0
4, 40090, Note_on_c, 9, 51, 45
4, 40164, Note_on_c, 9, 51, 0
4, 40211, Note_on_c, 9, 51, 56
4, 40275, Note_on_c, 9, 51, 0
4, 40305, Note_on_c, 9, 51, 35
4, 40327, Note_on_c, 9, 51, 0
4, 40338, Note_on_c, 9, 51, 27
4, 40393, Note_on_c, 9, 51, 0
4, 40451, Note_on_c, 9, 51, 62
4, 40493, Note_on_c, 9, 51, 0
4, 40571, Note_on_c, 9, 51, 57
4, 40633, Note_on_c, 9, 51, 0
4, 40695, Note_on_c, 9, 51, 62
4, 40761, Note_on_c, 9, 51, 0
4, 40813, Note_on_c, 9, 51, 44
4, 40892, Note_on_c, 9, 51, 0
4, 40924, Note_on_c, 9, 51, 61
4, 40996, Note_on_c, 9, 51, 0
4, 41054, Note_on_c, 9, 51, 46
4, 41139, Note_on_c, 9, 51, 0
4, 41173, Note_on_c, 9, 51, 64
4, 41232, Note_on_c, 9, 51, 0
4, 41256, Note_on_c, 9, 51, 50
4, 41280, Note_on_c, 9, 51, 0
4, 41298, Note_on_c, 9, 51, 59
4, 41379, Note_on_c, 9, 51, 0
4, 41410, Note_on_c, 9, 51, 54
4, 41469, Note_on_c, 9, 51, 0
4, 41499, Note_on_c, 9, 51, 48
4, 41520, Note_on_c, 9, 51, 0
4, 41536, Note_on_c, 9, 51, 61
4, 41614, Note_on_c, 9, 51, 0
4, 41646, Note_on_c, 9, 51, 54
4, 41704, Note_on_c, 9, 51, 0
4, 41729, Note_on_c, 9, 51, 42
4, 41752, Note_on_c, 9, 51, 0
4, 41769, Note_on_c, 9, 51, 61
4, 41857, Note_on_c, 9, 51, 0
4, 41888, Note_on_c, 9, 51, 63
4, 41973, Note_on_c, 9, 51, 0
4, 42014, Note_on_c, 9, 51, 60
4, 42068, Note_on_c, 9, 51, 0
4, 42105, Note_on_c, 9, 51, 67
4, 42131, Note_on_c, 9, 51, 0
4, 42220, Note_on_c, 9, 52, 67
4, 42256, Note_on_c, 9, 52, 0
4, 42344, Note_on_c, 9, 51, 49
4, 42367, Note_on_c, 9, 51, 0
4, 42385, Note_on_c, 9, 51, 54
4, 42447, Note_on_c, 9, 51, 0
4, 42499, Note_on_c, 9, 51, 56
4, 42557, Note_on_c, 9, 51, 0
4, 42611, Note_on_c, 9, 51, 62
4, 42665, Note_on_c, 9, 51, 0
4, 42707, Note_on_c, 9, 51, 18
4, 42719, Note_on_c, 9, 51, 0
4, 42739, Note_on_c, 9, 51, 49
4, 42815, Note_on_c, 9, 51, 0
4, 42851, Note_on_c, 9, 51, 66
4, 42914, Note_on_c, 9, 51, 0
4, 42945, Note_on_c, 9, 51, 21
4, 42961, Note_on_c, 9, 51, 0
4, 42981, Note_on_c, 9, 51, 59
4, 43061, Note_on_c, 9, 51, 0
4, 43096, Note_on_c, 9, 51, 65
4, 43163, Note_on_c, 9, 51, 0
4, 43185, Note_on_c, 9, 51, 49
4, 43199, Note_on_c, 9, 51, 0
4, 43221, Note_on_c, 9, 51, 50
4, 43301, Note_on_c, 9, 51, 0
4, 43334, Note_on_c, 9, 51, 66
4, 43410, Note_on_c, 9, 51, 0
4, 43424, Note_on_c, 9, 51, 32
4, 43436, Note_on_c, 9, 51, 0
4, 43457, Note_on_c, 9, 51, 48
4, 43533, Note_on_c, 9, 51, 0
4, 43573, Note_on_c, 9, 51, 72
4, 43637, Note_on_c, 9, 51, 0
4, 43659, Note_on_c, 9, 51, 42
4, 43673, Note_on_c, 9, 51, 0
4, 43695, Note_on_c, 9, 51, 52
4, 43739, Note_on_c, 9, 51, 0
4, 43773, Note_on_c, 9, 51, 73
4, 43870, Note_on_c, 9, 51, 0
4, 43899, Note_on_c, 9, 51, 21
4, 43909, Note_on_c, 9, 51, 0
4, 43940, Note_on_c, 9, 51, 62
4, 44022, Note_on_c, 9, 51, 0
4, 44061, Note_on_c, 9, 51, 16
4, 44088, Note_on_c, 9, 51, 0
4, 44131, Note_on_c, 9, 51, 65
4, 44205, Note_on_c, 9, 51, 0
4, 44253, Note_on_c, 9, 51, 20
4, 44267, Note_on_c, 9, 51, 0
4, 44294, Note_on_c, 9, 51, 42
4, 44348, Note_on_c, 9, 51, 0
4, 44487, Note_on_c, 9, 51, 48
4, 44501, Note_on_c, 9, 51, 0
4, 44531, Note_on_c, 9, 51, 35
4, 44547, Note_on_c, 9, 51, 0
4, 44655, Note_on_c, 9, 51, 76
4, 44679, Note_on_c, 9, 51, 0
4, 44779, Note_on_c, 9, 51, 38
4, 44789, Note_on_c, 9, 51, 0
4, 44853, Note_on_c, 9, 51, 71
4, 44929, Note_on_c, 9, 51, 0
4, 45029, Note_on_c, 9, 51, 68
4, 45095, Note_on_c, 9, 51, 0
4, 45211, Note_on_c, 9, 51, 49
4, 45216, Note_on_c, 9, 53, 49
4, 45247, Note_on_c, 9, 53, 0
4, 45250, Note_on_c, 9, 51, 0
4, 45333, Note_on_c, 9, 51, 29
4, 45348, Note_on_c, 9, 51, 0
4, 45388, Note_on_c, 9, 51, 55
4, 45397, Note_on_c, 9, 53, 48
4, 45445, Note_on_c, 9, 51, 0
4, 45456, Note_on_c, 9, 53, 0
4, 45508, Note_on_c, 9, 51, 28
4, 45529, Note_on_c, 9, 51, 0
4, 45582, Note_on_c, 9, 51, 59
4, 45590, Note_on_c, 9, 53, 43
4, 45640, Note_on_c, 9, 51, 0
4, 45647, Note_on_c, 9, 53, 0
4, 45711, Note_on_c, 9, 51, 34
4, 45722, Note_on_c, 9, 51, 0
4, 45764, Note_on_c, 9, 51, 54
4, 45775, Note_on_c, 9, 53, 30
4, 45810, Note_on_c, 9, 51, 0
4, 45831, Note_on_c, 9, 53, 0
4, 45866, Note_on_c, 9, 51, 38
4, 45894, Note_on_c, 9, 51, 0
4, 45946, Note_on_c, 9, 51, 44
4, 45972, Note_on_c, 9, 51, 0
4, 46040, Note_on_c, 9, 51, 36
4, 46060, Note_on_c, 9, 51, 0
4, 46087, Note_on_c, 9, 51, 42
4, 46150, Note_on_c, 9, 51, 0
4, 46203, Note_on_c, 9, 59, 44
4, 46206, Note_on_c, 9, 51, 48
4, 46238, Note_on_c, 9, 59, 0
4, 46251, Note_on_c, 9, 51, 0
4, 46281, Note_on_c, 9, 51, 31
4, 46308, Note_on_c, 9, 51, 0
4, 46389, Note_on_c, 9, 51, 44
4, 46391, Note_on_c, 9, 59, 40
4, 46415, Note_on_c, 9, 51, 0
4, 46419, Note_on_c, 9, 59, 0
4, 46450, Note_on_c, 9, 51, 15
4, 46480, Note_on_c, 9, 51, 0
4, 46575, Note_on_c, 9, 59, 53
4, 46575, Note_on_c, 9, 51, 48
4, 46665, Note_on_c, 9, 51, 0
4, 46677, Note_on_c, 9, 59, 0
4, 46772, Note_on_c, 9, 51, 38
4, 46776, Note_on_c, 9, 57, 50
4, 47193, Note_on_c, 9, 51, 0
4, 47202, Note_on_c, 9, 57, 0
4, 47202, End_track
5, 0, Start_track
5, 0, MIDI_port, 0
5, 0, Title_t, ""
5, 0, Program_c, 9, 0
5, 0, Note_on_c, 9, 35, 53
5, 0, Note_on_c, 9, 35, 0
5, 12, Note_on_c, 9, 35, 47
5, 73, Note_on_c, 9, 35, 0
5, 208, Note_on_c, 9, 35, 64
5, 218, Note_on_c, 9, 35, 0
5, 736, Note_on_c, 9, 40, 30
5, 798, Note_on_c, 9, 40, 0
5, 817, Note_on_c, 9, 40, 31
5, 841, Note_on_c, 9, 40, 0
5, 885, Note_on_c, 9, 35, 28
5, 902, Note_on_c, 9, 35, 0
5, 1107, Note_on_c, 9, 40, 24
5, 1132, Note_on_c, 9, 40, 0
5, 1173, Note_on_c, 9, 40, 72
5, 1203, Note_on_c, 9, 40, 0
5, 1224, Note_on_c, 9, 40, 55
5, 1236, Note_on_c, 9, 40, 0
5, 1290, Note_on_c, 9, 35, 47
5, 1305, Note_on_c, 9, 35, 0
5, 1529, Note_on_c, 9, 38, 45
5, 1540, Note_on_c, 9, 38, 0
5, 1776, Note_on_c, 9, 35, 24
5, 1788, Note_on_c, 9, 35, 0
5, 1892, Note_on_c, 9, 35, 63
5, 1917, Note_on_c, 9, 35, 0
5, 1934, Note_on_c, 9, 35, 41
5, 1992, Note_on_c, 9, 35, 0
5, 2014, Note_on_c, 9, 35, 38
5, 2027, Note_on_c, 9, 35, 0
5, 2377, Note_on_c, 9, 35, 33
5, 2397, Note_on_c, 9, 35, 0
5, 2488, Note_on_c, 9, 40, 57
5, 2499, Note_on_c, 9, 40, 0
5, 2534, Note_on_c, 9, 35, 24
5, 2548, Note_on_c, 9, 35, 0
5, 2606, Note_on_c, 9, 40, 68
5, 2617, Note_on_c, 9, 40, 0
5, 2725, Note_on_c, 9, 39, 23
5, 2730, Note_on_c, 9, 40, 47
5, 2735, Note_on_c, 9, 39, 0
5, 2742, Note_on_c, 9, 40, 0
5, 2766, Note_on_c, 9, 35, 31
5, 2788, Note_on_c, 9, 35, 0
5, 2845, Note_on_c, 9, 35, 68
5, 2875, Note_on_c, 9, 35, 0
5, 2883, Note_on_c, 9, 35, 30
5, 2941, Note_on_c, 9, 35, 0
5, 3204, Note_on_c, 9, 40, 66
5, 3215, Note_on_c, 9, 40, 0
5, 3234, Note_on_c, 9, 35, 43
5, 3256, Note_on_c, 9, 35, 0
5, 3570, Note_on_c, 9, 35, 52
5, 3585, Note_on_c, 9, 35, 0
5, 3682, Note_on_c, 9, 35, 60
5, 3703, Note_on_c, 9, 35, 0
5, 3796, Note_on_c, 9, 35, 74
5, 3821, Note_on_c, 9, 35, 0
5, 4189, Note_on_c, 9, 35, 22
5, 4203, Note_on_c, 9, 35, 0
5, 4416, Note_on_c, 9, 35, 32
5, 4431, Note_on_c, 9, 35, 0
5, 4530, Note_on_c, 9, 35, 49
5, 4542, Note_on_c, 9, 35, 0
5, 4648, Note_on_c, 9, 35, 64
5, 4667, Note_on_c, 9, 35, 0
5, 4782, Note_on_c, 9, 40, 73
5, 4802, Note_on_c, 9, 40, 0
5, 4813, Note_on_c, 9, 35, 56
5, 4845, Note_on_c, 9, 35, 0
5, 5611, Note_on_c, 9, 34, 56
5, 5625, Note_on_c, 9, 34, 0
5, 5724, Note_on_c, 9, 34, 57
5, 5748, Note_on_c, 9, 34, 0
5, 5768, Note_on_c, 9, 35, 33
5, 5821, Note_on_c, 9, 35, 0
5, 6083, Note_on_c, 9, 40, 33
5, 6096, Note_on_c, 9, 40, 0
5, 6200, Note_on_c, 9, 36, 67
5, 6221, Note_on_c, 9, 36, 0
5, 6560, Note_on_c, 9, 40, 67
5, 6570, Note_on_c, 9, 40, 0
5, 6601, Note_on_c, 9, 36, 32
5, 6644, Note_on_c, 9, 36, 0
5, 6686, Note_on_c, 9, 40, 41
5, 6698, Note_on_c, 9, 40, 0
5, 7019, Note_on_c, 9, 40, 54
5, 7035, Note_on_c, 9, 40, 0
5, 7054, Note_on_c, 9, 40, 46
5, 7071, Note_on_c, 9, 40, 0
5, 7097, Note_on_c, 9, 36, 54
5, 7111, Note_on_c, 9, 36, 0
5, 7208, Note_on_c, 9, 40, 46
5, 7220, Note_on_c, 9, 40, 0
5, 7245, Note_on_c, 9, 40, 55
5, 7262, Note_on_c, 9, 40, 0
5, 7292, Note_on_c, 9, 36, 42
5, 7306, Note_on_c, 9, 36, 0
5, 7384, Note_on_c, 9, 40, 44
5, 7395, Note_on_c, 9, 40, 0
5, 7419, Note_on_c, 9, 40, 48
5, 7433, Note_on_c, 9, 40, 0
5, 7458, Note_on_c, 9, 36, 54
5, 7471, Note_on_c, 9, 36, 0
5, 7554, Note_on_c, 9, 40, 55
5, 7566, Note_on_c, 9, 40, 0
5, 7595, Note_on_c, 9, 40, 30
5, 7607, Note_on_c, 9, 40, 0
5, 7616, Note_on_c, 9, 36, 24
5, 7632, Note_on_c, 9, 36, 0
5, 7659, Note_on_c, 9, 47, 58
5, 7660, Note_on_c, 9, 45, 60
5, 7662, Note_on_c, 9, 34, 64
5, 7669, Note_on_c, 9, 47, 0
5, 7684, Note_on_c, 9, 45, 0
5, 7688, Note_on_c, 9, 34, 0
5, 8004, Note_on_c, 9, 40, 55
5, 8013, Note_on_c, 9, 40, 0
5, 8542, Note_on_c, 9, 36, 28
5, 8558, Note_on_c, 9, 36, 0
5, 9210, Note_on_c, 9, 36, 68
5, 9222, Note_on_c, 9, 36, 0
5, 9373, Note_on_c, 9, 36, 58
5, 9397, Note_on_c, 9, 36, 0
5, 9570, Note_on_c, 9, 36, 38
5, 9583, Note_on_c, 9, 36, 0
5, 10094, Note_on_c, 9, 40, 46
5, 10122, Note_on_c, 9, 40, 0
5, 10174, Note_on_c, 9, 40, 57
5, 10186, Note_on_c, 9, 40, 0
5, 10416, Note_on_c, 9, 36, 48
5, 10427, Note_on_c, 9, 36, 0
5, 10444, Note_on_c, 9, 40, 55
5, 10488, Note_on_c, 9, 40, 0
5, 10522, Note_on_c, 9, 40, 57
5, 10543, Note_on_c, 9, 40, 0
5, 10760, Note_on_c, 9, 36, 46
5, 10772, Note_on_c, 9, 36, 0
5, 10805, Note_on_c, 9, 36, 51
5, 10862, Note_on_c, 9, 36, 0
5, 10899, Note_on_c, 9, 36, 38
5, 10913, Note_on_c, 9, 36, 0
5, 11135, Note_on_c, 9, 36, 49
5, 11146, Note_on_c, 9, 36, 0
5, 11895, Note_on_c, 9, 37, 82
5, 11948, Note_on_c, 9, 37, 0
5, 12223, Note_on_c, 9, 36, 62
5, 12236, Note_on_c, 9, 36, 0
5, 12264, Note_on_c, 9, 36, 53
5, 12303, Note_on_c, 9, 36, 0
5, 12805, Note_on_c, 9, 40, 55
5, 12816, Note_on_c, 9, 40, 0
5, 12931, Note_on_c, 9, 40, 64
5, 12942, Note_on_c, 9, 40, 0
5, 13050, Note_on_c, 9, 40, 64
5, 13060, Note_on_c, 9, 40, 0
5, 13171, Note_on_c, 9, 40, 62
5, 13191, Note_on_c, 9, 40, 0
5, 13284, Note_on_c, 9, 40, 71
5, 13298, Note_on_c, 9, 40, 0
5, 13400, Note_on_c, 9, 36, 54
5, 13410, Note_on_c, 9, 36, 0
5, 13427, Note_on_c, 9, 34, 60
5, 13444, Note_on_c, 9, 57, 60
5, 13450, Note_on_c, 9, 36, 79
5, 13452, Note_on_c, 9, 34, 0
5, 13455, Note_on_c, 9, 57, 0
5, 13473, Note_on_c, 9, 36, 0
5, 13879, Note_on_c, 9, 40, 58
5, 13890, Note_on_c, 9, 40, 0
5, 13917, Note_on_c, 9, 36, 49
5, 13929, Note_on_c, 9, 36, 0
5, 14492, Note_on_c, 9, 40, 60
5, 14502, Note_on_c, 9, 40, 0
5, 14612, Note_on_c, 9, 40, 66
5, 14624, Note_on_c, 9, 40, 0
5, 14727, Note_on_c, 9, 40, 68
5, 14741, Note_on_c, 9, 40, 0
5, 14969, Note_on_c, 9, 38, 63
5, 14979, Note_on_c, 9, 38, 0
5, 15080, Note_on_c, 9, 36, 57
5, 15091, Note_on_c, 9, 36, 0
5, 15205, Note_on_c, 9, 34, 49
5, 15235, Note_on_c, 9, 34, 0
5, 15322, Note_on_c, 9, 34, 56
5, 15345, Note_on_c, 9, 34, 0
5, 15363, Note_on_c, 9, 57, 68
5, 15370, Note_on_c, 9, 36, 55
5, 15391, Note_on_c, 9, 57, 0
5, 15407, Note_on_c, 9, 36, 0
5, 15687, Note_on_c, 9, 34, 51
5, 15709, Note_on_c, 9, 34, 0
5, 15731, Note_on_c, 9, 59, 47
5, 15731, Note_on_c, 9, 57, 55
5, 15732, Note_on_c, 9, 36, 60
5, 15741, Note_on_c, 9, 59, 0
5, 15746, Note_on_c, 9, 57, 0
5, 15776, Note_on_c, 9, 36, 0
5, 15976, Note_on_c, 9, 42, 25
5, 16013, Note_on_c, 9, 42, 0
5, 16093, Note_on_c, 9, 38, 33
5, 16110, Note_on_c, 9, 38, 0
5, 16612, Note_on_c, 9, 38, 43
5, 16626, Note_on_c, 9, 38, 0
5, 16652, Note_on_c, 9, 38, 32
5, 16665, Note_on_c, 9, 38, 0
5, 17009, Note_on_c, 9, 38, 55
5, 17020, Note_on_c, 9, 38, 0
5, 17128, Note_on_c, 9, 38, 58
5, 17149, Note_on_c, 9, 38, 0
5, 17236, Note_on_c, 9, 38, 59
5, 17247, Note_on_c, 9, 38, 0
5, 17281, Note_on_c, 9, 36, 38
5, 17302, Note_on_c, 9, 36, 0
5, 18090, Note_on_c, 9, 36, 30
5, 18105, Note_on_c, 9, 36, 0
5, 18132, Note_on_c, 9, 40, 44
5, 18165, Note_on_c, 9, 40, 0
5, 18203, Note_on_c, 9, 40, 62
5, 18242, Note_on_c, 9, 40, 0
5, 18283, Note_on_c, 9, 40, 54
5, 18318, Note_on_c, 9, 40, 0
5, 18373, Note_on_c, 9, 40, 62
5, 18404, Note_on_c, 9, 40, 0
5, 18452, Note_on_c, 9, 40, 51
5, 18467, Note_on_c, 9, 40, 0
5, 18491, Note_on_c, 9, 36, 39
5, 18504, Note_on_c, 9, 36, 0
5, 18549, Note_on_c, 9, 36, 42
5, 18564, Note_on_c, 9, 36, 0
5, 18636, Note_on_c, 9, 36, 56
5, 18667, Note_on_c, 9, 36, 0
5, 18715, Note_on_c, 9, 36, 61
5, 18744, Note_on_c, 9, 36, 0
5, 19293, Note_on_c, 9, 36, 51
5, 19305, Note_on_c, 9, 36, 0
5, 19455, Note_on_c, 9, 36, 30
5, 19473, Note_on_c, 9, 36, 0
5, 19654, Note_on_c, 9, 36, 25
5, 19665, Note_on_c, 9, 36, 0
5, 19804, Note_on_c, 9, 44, 39
5, 19894, Note_on_c, 9, 44, 0
5, 19923, Note_on_c, 9, 44, 51
5, 20014, Note_on_c, 9, 44, 0
5, 20043, Note_on_c, 9, 44, 61
5, 20135, Note_on_c, 9, 44, 0
5, 20163, Note_on_c, 9, 44, 57
5, 20253, Note_on_c, 9, 44, 0
5, 20280, Note_on_c, 9, 44, 57
5, 20346, Note_on_c, 9, 44, 0
5, 20371, Note_on_c, 9, 36, 78
5, 20394, Note_on_c, 9, 36, 0
5, 20417, Note_on_c, 9, 36, 64
5, 20451, Note_on_c, 9, 36, 0
5, 20932, Note_on_c, 9, 44, 55
5, 20948, Note_on_c, 9, 44, 0
5, 21017, Note_on_c, 9, 44, 49
5, 21027, Note_on_c, 9, 44, 0
5, 21658, Note_on_c, 9, 40, 64
5, 21669, Note_on_c, 9, 40, 0
5, 21699, Note_on_c, 9, 40, 30
5, 21710, Note_on_c, 9, 40, 0
5, 21991, Note_on_c, 9, 40, 28
5, 22002, Note_on_c, 9, 40, 0
5, 22259, Note_on_c, 9, 40, 24
5, 22281, Note_on_c, 9, 40, 0
5, 22492, Note_on_c, 9, 40, 35
5, 22505, Note_on_c, 9, 40, 0
5, 22604, Note_on_c, 9, 40, 41
5, 22619, Note_on_c, 9, 40, 0
5, 22632, Note_on_c, 9, 40, 24
5, 22651, Note_on_c, 9, 40, 0
5, 22724, Note_on_c, 9, 40, 62
5, 22764, Note_on_c, 9, 40, 0
5, 22834, Note_on_c, 9, 40, 55
5, 22845, Note_on_c, 9, 40, 0
5, 22904, Note_on_c, 9, 40, 70
5, 22915, Note_on_c, 9, 40, 0
5, 23019, Note_on_c, 9, 36, 58
5, 23032, Note_on_c, 9, 36, 0
5, 23057, Note_on_c, 9, 34, 67
5, 23059, Note_on_c, 9, 57, 69
5, 23072, Note_on_c, 9, 57, 0
5, 23081, Note_on_c, 9, 36, 68
5, 23084, Note_on_c, 9, 34, 0
5, 23101, Note_on_c, 9, 36, 0
5, 23365, Note_on_c, 9, 34, 62
5, 23375, Note_on_c, 9, 34, 0
5, 23411, Note_on_c, 9, 40, 60
5, 23437, Note_on_c, 9, 40, 0
5, 24101, Note_on_c, 9, 36, 38
5, 24113, Note_on_c, 9, 36, 0
5, 24138, Note_on_c, 9, 36, 53
5, 24184, Note_on_c, 9, 36, 0
5, 24220, Note_on_c, 9, 36, 64
5, 24243, Note_on_c, 9, 36, 0
5, 24604, Note_on_c, 9, 40, 54
5, 24679, Note_on_c, 9, 40, 0
5, 24812, Note_on_c, 9, 40, 61
5, 24829, Note_on_c, 9, 40, 0
5, 24929, Note_on_c, 9, 34, 46
5, 24951, Note_on_c, 9, 34, 0
5, 24969, Note_on_c, 9, 57, 40
5, 24972, Note_on_c, 9, 36, 48
5, 24983, Note_on_c, 9, 57, 0
5, 24999, Note_on_c, 9, 36, 0
5, 25285, Note_on_c, 9, 40, 57
5, 25296, Note_on_c, 9, 40, 0
5, 25326, Note_on_c, 9, 36, 31
5, 25377, Note_on_c, 9, 36, 0
5, 26052, Note_on_c, 9, 40, 26
5, 26064, Note_on_c, 9, 40, 0
5, 26134, Note_on_c, 9, 40, 31
5, 26158, Note_on_c, 9, 40, 0
5, 26249, Note_on_c, 9, 36, 51
5, 26265, Note_on_c, 9, 36, 0
5, 26411, Note_on_c, 9, 40, 43
5, 26453, Note_on_c, 9, 40, 0
5, 26488, Note_on_c, 9, 40, 40
5, 26508, Note_on_c, 9, 40, 0
5, 26605, Note_on_c, 9, 36, 40
5, 26619, Note_on_c, 9, 36, 0
5, 26755, Note_on_c, 9, 37, 52
5, 26814, Note_on_c, 9, 37, 0
5, 27012, Note_on_c, 9, 40, 26
5, 27025, Note_on_c, 9, 40, 0
5, 27746, Note_on_c, 9, 40, 24
5, 27760, Note_on_c, 9, 40, 0
5, 27815, Note_on_c, 9, 40, 49
5, 27826, Note_on_c, 9, 40, 0
5, 27894, Note_on_c, 9, 40, 51
5, 27910, Note_on_c, 9, 40, 0
5, 27981, Note_on_c, 9, 40, 44
5, 27998, Note_on_c, 9, 40, 0
5, 28053, Note_on_c, 9, 36, 53
5, 28067, Note_on_c, 9, 36, 0
5, 28099, Note_on_c, 9, 36, 68
5, 28179, Note_on_c, 9, 36, 0
5, 28396, Note_on_c, 9, 40, 47
5, 28407, Note_on_c, 9, 40, 0
5, 28517, Note_on_c, 9, 40, 64
5, 28528, Note_on_c, 9, 40, 0
5, 28640, Note_on_c, 9, 40, 62
5, 28661, Note_on_c, 9, 40, 0
5, 28689, Note_on_c, 9, 36, 39
5, 28707, Note_on_c, 9, 36, 0
5, 29010, Note_on_c, 9, 40, 54
5, 29020, Note_on_c, 9, 40, 0
5, 29360, Note_on_c, 9, 40, 58
5, 29370, Note_on_c, 9, 40, 0
5, 29606, Note_on_c, 9, 40, 50
5, 29619, Note_on_c, 9, 40, 0
5, 30246, Note_on_c, 9, 40, 44
5, 30258, Note_on_c, 9, 40, 0
5, 30370, Note_on_c, 9, 40, 54
5, 30403, Note_on_c, 9, 40, 0
5, 30577, Note_on_c, 9, 34, 62
5, 30598, Note_on_c, 9, 34, 0
5, 30700, Note_on_c, 9, 57, 84
5, 30701, Note_on_c, 9, 36, 78
5, 30714, Note_on_c, 9, 57, 0
5, 30723, Note_on_c, 9, 36, 0
5, 31065, Note_on_c, 9, 34, 59
5, 31086, Note_on_c, 9, 34, 0
5, 32163, Note_on_c, 9, 40, 38
5, 32177, Note_on_c, 9, 40, 0
5, 32204, Note_on_c, 9, 40, 46
5, 32217, Note_on_c, 9, 40, 0
5, 32411, Note_on_c, 9, 40, 34
5, 32424, Note_on_c, 9, 40, 0
5, 32444, Note_on_c, 9, 40, 33
5, 32459, Note_on_c, 9, 40, 0
5, 32531, Note_on_c, 9, 40, 58
5, 32543, Note_on_c, 9, 40, 0
5, 32571, Note_on_c, 9, 40, 39
5, 32583, Note_on_c, 9, 40, 0
5, 32854, Note_on_c, 9, 40, 48
5, 32865, Note_on_c, 9, 40, 0
5, 32964, Note_on_c, 9, 36, 53
5, 32975, Note_on_c, 9, 36, 0
5, 33027, Note_on_c, 9, 36, 25
5, 33066, Note_on_c, 9, 36, 0
5, 33203, Note_on_c, 9, 36, 35
5, 33216, Note_on_c, 9, 36, 0
5, 33571, Note_on_c, 9, 40, 54
5, 33597, Note_on_c, 9, 40, 0
5, 33689, Note_on_c, 9, 36, 37
5, 33703, Note_on_c, 9, 36, 0
5, 33977, Note_on_c, 9, 40, 33
5, 34018, Note_on_c, 9, 40, 0
5, 34048, Note_on_c, 9, 38, 51
5, 34058, Note_on_c, 9, 38, 0
5, 34284, Note_on_c, 9, 40, 72
5, 34308, Note_on_c, 9, 40, 0
5, 34341, Note_on_c, 9, 38, 17
5, 34358, Note_on_c, 9, 38, 0
5, 34413, Note_on_c, 9, 40, 58
5, 34448, Note_on_c, 9, 40, 0
5, 34518, Note_on_c, 9, 36, 46
5, 34530, Note_on_c, 9, 36, 0
5, 34563, Note_on_c, 9, 40, 46
5, 34592, Note_on_c, 9, 40, 0
5, 34765, Note_on_c, 9, 36, 62
5, 34776, Note_on_c, 9, 36, 0
5, 35905, Note_on_c, 9, 45, 31
5, 35916, Note_on_c, 9, 45, 0
5, 35943, Note_on_c, 9, 45, 55
5, 35958, Note_on_c, 9, 45, 0
5, 36215, Note_on_c, 9, 40, 31
5, 36228, Note_on_c, 9, 40, 0
5, 36261, Note_on_c, 9, 43, 77
5, 36299, Note_on_c, 9, 43, 0
5, 36335, Note_on_c, 9, 40, 71
5, 36354, Note_on_c, 9, 40, 0
5, 36453, Note_on_c, 9, 36, 90
5, 36455, Note_on_c, 9, 57, 94
5, 36481, Note_on_c, 9, 57, 0
5, 36487, Note_on_c, 9, 36, 0
5, 36813, Note_on_c, 9, 40, 26
5, 36829, Note_on_c, 9, 40, 0
5, 37405, Note_on_c, 9, 40, 57
5, 37416, Note_on_c, 9, 40, 0
5, 37767, Note_on_c, 9, 40, 56
5, 37777, Note_on_c, 9, 40, 0
5, 37811, Note_on_c, 9, 40, 35
5, 37825, Note_on_c, 9, 40, 0
5, 38005, Note_on_c, 9, 40, 43
5, 38017, Note_on_c, 9, 40, 0
5, 38044, Note_on_c, 9, 40, 24
5, 38055, Note_on_c, 9, 40, 0
5, 38241, Note_on_c, 9, 40, 54
5, 38252, Note_on_c, 9, 40, 0
5, 38282, Note_on_c, 9, 40, 24
5, 38297, Note_on_c, 9, 40, 0
5, 38600, Note_on_c, 9, 40, 44
5, 38612, Note_on_c, 9, 40, 0
5, 38883, Note_on_c, 9, 40, 39
5, 38933, Note_on_c, 9, 40, 0
5, 38962, Note_on_c, 9, 40, 45
5, 38973, Note_on_c, 9, 40, 0
5, 39216, Note_on_c, 9, 40, 49
5, 39227, Note_on_c, 9, 40, 0
5, 39458, Note_on_c, 9, 40, 30
5, 39471, Note_on_c, 9, 40, 0
5, 39693, Note_on_c, 9, 40, 49
5, 39704, Note_on_c, 9, 40, 0
5, 39743, Note_on_c, 9, 52, 29
5, 39768, Note_on_c, 9, 52, 0
5, 39820, Note_on_c, 9, 52, 34
5, 39832, Note_on_c, 9, 52, 0
5, 40060, Note_on_c, 9, 37, 53
5, 40078, Note_on_c, 9, 37, 0
5, 40177, Note_on_c, 9, 37, 55
5, 40202, Note_on_c, 9, 37, 0
5, 40344, Note_on_c, 9, 40, 44
5, 40374, Note_on_c, 9, 40, 0
5, 40651, Note_on_c, 9, 40, 73
5, 40674, Note_on_c, 9, 40, 0
5, 40716, Note_on_c, 9, 36, 14
5, 40756, Note_on_c, 9, 36, 0
5, 40812, Note_on_c, 9, 36, 46
5, 40848, Note_on_c, 9, 36, 0
5, 41008, Note_on_c, 9, 36, 29
5, 41018, Note_on_c, 9, 36, 0
5, 41135, Note_on_c, 9, 40, 39
5, 41148, Note_on_c, 9, 40, 0
5, 41261, Note_on_c, 9, 36, 38
5, 41293, Note_on_c, 9, 36, 0
5, 41305, Note_on_c, 9, 36, 35
5, 41353, Note_on_c, 9, 36, 0
5, 41494, Note_on_c, 9, 36, 48
5, 41505, Note_on_c, 9, 36, 0
5, 41976, Note_on_c, 9, 40, 27
5, 41988, Note_on_c, 9, 40, 0
5, 42577, Note_on_c, 9, 36, 67
5, 42674, Note_on_c, 9, 36, 0
5, 42704, Note_on_c, 9, 36, 59
5, 42716, Note_on_c, 9, 36, 0
5, 43175, Note_on_c, 9, 40, 36
5, 43188, Note_on_c, 9, 40, 0
5, 43213, Note_on_c, 9, 36, 35
5, 43234, Note_on_c, 9, 36, 0
5, 43296, Note_on_c, 9, 40, 48
5, 43308, Note_on_c, 9, 40, 0
5, 43354, Note_on_c, 9, 36, 40
5, 43380, Note_on_c, 9, 36, 0
5, 43466, Note_on_c, 9, 36, 57
5, 43492, Note_on_c, 9, 36, 0
5, 43652, Note_on_c, 9, 36, 38
5, 43665, Note_on_c, 9, 36, 0
5, 44008, Note_on_c, 9, 40, 60
5, 44020, Note_on_c, 9, 40, 0
5, 44056, Note_on_c, 9, 36, 29
5, 44074, Note_on_c, 9, 36, 0
5, 44132, Note_on_c, 9, 36, 49
5, 44164, Note_on_c, 9, 36, 0
5, 44174, Note_on_c, 9, 36, 20
5, 44224, Note_on_c, 9, 36, 0
5, 44607, Note_on_c, 9, 40, 34
5, 44621, Note_on_c, 9, 40, 0
5, 44853, Note_on_c, 9, 40, 50
5, 44864, Note_on_c, 9, 40, 0
5, 45214, Note_on_c, 9, 40, 49
5, 45225, Note_on_c, 9, 40, 0
5, 45459, Note_on_c, 9, 36, 34
5, 45472, Note_on_c, 9, 36, 0
5, 45513, Note_on_c, 9, 40, 41
5, 45550, Note_on_c, 9, 40, 0
5, 45583, Note_on_c, 9, 40, 55
5, 45599, Note_on_c, 9, 40, 0
5, 45712, Note_on_c, 9, 36, 32
5, 45724, Note_on_c, 9, 36, 0
5, 45757, Note_on_c, 9, 40, 50
5, 45788, Note_on_c, 9, 40, 0
5, 45826, Note_on_c, 9, 40, 58
5, 45841, Note_on_c, 9, 40, 0
5, 45945, Note_on_c, 9, 36, 41
5, 45956, Note_on_c, 9, 36, 0
5, 45986, Note_on_c, 9, 40, 45
5, 46018, Note_on_c, 9, 40, 0
5, 46057, Note_on_c, 9, 40, 57
5, 46070, Note_on_c, 9, 40, 0
5, 46171, Note_on_c, 9, 36, 31
5, 46182, Note_on_c, 9, 36, 0
5, 46219, Note_on_c, 9, 40, 44
5, 46240, Note_on_c, 9, 40, 0
5, 46288, Note_on_c, 9, 40, 49
5, 46300, Note_on_c, 9, 40, 0
5, 46410, Note_on_c, 9, 36, 53
5, 46422, Note_on_c, 9, 36, 0
5, 46508, Note_on_c, 9, 34, 56
5, 46532, Note_on_c, 9, 34, 0
5, 46594, Note_on_c, 9, 34, 67
5, 46618, Note_on_c, 9, 34, 0
5, 47288, Note_on_c, 9, 40, 57
5, 47314, Note_on_c, 9, 40, 0
5, 47336, Note_on_c, 9, 40, 40
5, 47351, Note_on_c, 9, 40, 0
5, 47400, Note_on_c, 9, 34, 52
5, 47453, Note_on_c, 9, 34, 0
5, 47475, Note_on_c, 9, 57, 62
5, 47476, Note_on_c, 9, 36, 61
5, 47676, Note_on_c, 9, 57, 0
5, 47866, Note_on_c, 9, 36, 0
5, 47866, End_track
0, 0, End_of_file
