0, 0, Header, 0, 1, 384
1, 0, Start_track
1, 0, Sequencer_specific, 21, 67, 115, 10, 0, 5, 75, 79, 79, 79, 79, 79, 79, 79, 79, 79, 79, 79, 79, 79, 79, 79
1, 0, SMPTE_offset, 96, 0, 0, 0, 0
1, 0, Time_signature, 4, 2, 24, 8
1, 0, Tempo, 550458
1, 0, Sequencer_specific, 6, 67, 115, 10, 0, 4, 1
1, 0, Sequencer_specific, 9, 67, 123, 0, 88, 70, 48, 50, 0, 0
1, 0, System_exclusive, 5, 126, 127, 9, 1, 247
1, 384, System_exclusive, 8, 67, 16, 76, 0, 0, 126, 0, 247
1, 384, System_exclusive, 8, 67, 16, 76, 8, 15, 0, 1, 247
1, 384, System_exclusive, 8, 67, 16, 76, 8, 14, 0, 1, 247
1, 384, System_exclusive, 8, 67, 16, 76, 8, 13, 0, 1, 247
1, 384, System_exclusive, 8, 67, 16, 76, 8, 12, 0, 1, 247
1, 384, System_exclusive, 8, 67, 16, 76, 8, 11, 0, 1, 247
1, 384, System_exclusive, 8, 67, 16, 76, 8, 10, 0, 1, 247
1, 384, System_exclusive, 8, 67, 16, 76, 8, 9, 0, 0, 247
1, 384, System_exclusive, 8, 67, 16, 76, 8, 8, 0, 1, 247
1, 384, System_exclusive, 8, 67, 16, 76, 8, 7, 0, 1, 247
1, 384, System_exclusive, 8, 67, 16, 76, 8, 6, 0, 1, 247
1, 384, System_exclusive, 8, 67, 16, 76, 8, 5, 0, 1, 247
1, 384, System_exclusive, 8, 67, 16, 76, 8, 4, 0, 2, 247
1, 384, System_exclusive, 8, 67, 16, 76, 8, 3, 0, 2, 247
1, 384, System_exclusive, 8, 67, 16, 76, 8, 2, 0, 4, 247
1, 384, System_exclusive, 8, 67, 16, 76, 8, 1, 0, 4, 247
1, 384, System_exclusive, 8, 67, 16, 76, 8, 0, 0, 8, 247
1, 384, System_exclusive, 8, 67, 16, 76, 8, 0, 7, 0, 247
1, 384, System_exclusive, 8, 67, 16, 76, 8, 1, 7, 0, 247
1, 384, System_exclusive, 8, 67, 16, 76, 8, 2, 7, 0, 247
1, 384, System_exclusive, 8, 67, 16, 76, 8, 3, 7, 0, 247
1, 384, System_exclusive, 8, 67, 16, 76, 8, 4, 7, 0, 247
1, 384, System_exclusive, 8, 67, 16, 76, 8, 5, 7, 0, 247
1, 384, System_exclusive, 8, 67, 16, 76, 8, 6, 7, 0, 247
1, 384, System_exclusive, 8, 67, 16, 76, 8, 7, 7, 0, 247
1, 384, System_exclusive, 8, 67, 16, 76, 8, 8, 7, 0, 247
1, 384, System_exclusive, 8, 67, 16, 76, 8, 9, 7, 2, 247
1, 384, System_exclusive, 8, 67, 16, 76, 8, 10, 7, 0, 247
1, 384, System_exclusive, 8, 67, 16, 76, 8, 11, 7, 0, 247
1, 384, System_exclusive, 8, 67, 16, 76, 8, 12, 7, 0, 247
1, 384, System_exclusive, 8, 67, 16, 76, 8, 13, 7, 0, 247
1, 384, System_exclusive, 8, 67, 16, 76, 8, 14, 7, 0, 247
1, 384, System_exclusive, 8, 67, 16, 76, 8, 15, 7, 0, 247
1, 384, System_exclusive, 9, 67, 16, 76, 2, 1, 0, 1, 19, 247
1, 384, System_exclusive, 9, 67, 16, 76, 2, 1, 32, 65, 8, 247
1, 384, System_exclusive, 9, 67, 16, 76, 2, 1, 64, 5, 0, 247
1, 384, System_exclusive, 9, 67, 16, 76, 3, 0, 0, 3, 18, 247
1, 384, System_exclusive, 8, 67, 16, 76, 3, 0, 11, 5, 247
1, 384, System_exclusive, 8, 67, 16, 76, 3, 0, 12, 0, 247
1, 384, System_exclusive, 8, 67, 16, 76, 8, 0, 114, 64, 247
1, 384, System_exclusive, 8, 67, 16, 76, 8, 0, 115, 95, 247
1, 384, System_exclusive, 8, 67, 16, 76, 8, 0, 119, 46, 247
1, 768, Control_c, 0, 7, 107
1, 768, Control_c, 0, 0, 0
1, 768, Control_c, 0, 32, 122
1, 768, Program_c, 0, 0
1, 768, Control_c, 0, 10, 64
1, 768, Control_c, 0, 11, 127
1, 768, Control_c, 0, 91, 10
1, 768, Control_c, 0, 93, 0
1, 768, Control_c, 0, 94, 0
1, 768, Control_c, 0, 101, 0
1, 768, Control_c, 0, 100, 1
1, 768, Control_c, 0, 6, 64
1, 768, Control_c, 0, 38, 0
1, 768, Pitch_bend_c, 0, 8192
1, 768, Control_c, 0, 71, 43
1, 768, Control_c, 0, 74, 46
1, 768, Control_c, 0, 64, 0
1, 1536, Note_on_c, 0, 65, 82
1, 1536, Note_on_c, 0, 61, 85
1, 1536, Note_on_c, 0, 72, 90
1, 1544, Note_on_c, 0, 60, 72
1, 1672, Control_c, 0, 64, 127
1, 1940, Note_on_c, 0, 48, 59
1, 2116, Note_on_c, 0, 60, 0
1, 2168, Note_on_c, 0, 61, 0
1, 2248, Note_on_c, 0, 61, 74
1, 2256, Note_on_c, 0, 60, 66
1, 2272, Control_c, 0, 64, 0
1, 2352, Control_c, 0, 64, 127
1, 2424, Note_on_c, 0, 48, 0
1, 2528, Note_on_c, 0, 60, 0
1, 2552, Note_on_c, 0, 48, 67
1, 2620, Note_on_c, 0, 48, 0
1, 2900, Note_on_c, 0, 65, 0
1, 2944, Note_on_c, 0, 24, 74
1, 2948, Note_on_c, 0, 61, 0
1, 2952, Note_on_c, 0, 72, 0
1, 2972, Control_c, 0, 64, 0
1, 3036, Control_c, 0, 64, 127
1, 3112, Note_on_c, 0, 24, 0
1, 3700, Note_on_c, 0, 87, 73
1, 3708, Note_on_c, 0, 76, 66
1, 3708, Note_on_c, 0, 80, 59
1, 3712, Note_on_c, 0, 75, 60
1, 3712, Note_on_c, 0, 84, 56
1, 3896, Note_on_c, 0, 75, 0
1, 4248, Note_on_c, 0, 84, 0
1, 4300, Note_on_c, 0, 87, 0
1, 4388, Note_on_c, 0, 80, 0
1, 4408, Note_on_c, 0, 76, 0
1, 5072, Note_on_c, 0, 70, 81
1, 5076, Note_on_c, 0, 61, 81
1, 5076, Note_on_c, 0, 55, 63
1, 5084, Note_on_c, 0, 64, 65
1, 5100, Control_c, 0, 64, 0
1, 5108, Note_on_c, 0, 64, 0
1, 5168, Note_on_c, 0, 64, 24
1, 5196, Control_c, 0, 64, 127
1, 5444, Note_on_c, 0, 55, 0
1, 5532, Note_on_c, 0, 70, 0
1, 5576, Note_on_c, 0, 69, 68
1, 5688, Note_on_c, 0, 64, 0
1, 5700, Note_on_c, 0, 69, 0
1, 5704, Note_on_c, 0, 61, 0
1, 6152, Control_c, 0, 64, 0
1, 6164, Note_on_c, 0, 59, 56
1, 6168, Note_on_c, 0, 68, 54
1, 6172, Note_on_c, 0, 49, 45
1, 6180, Note_on_c, 0, 41, 44
1, 6188, Note_on_c, 0, 64, 46
1, 6224, Note_on_c, 0, 66, 26
1, 6252, Control_c, 0, 64, 127
1, 6348, Note_on_c, 0, 59, 0
1, 6368, Note_on_c, 0, 64, 0
1, 6396, Note_on_c, 0, 68, 0
1, 6428, Note_on_c, 0, 66, 0
1, 6512, Note_on_c, 0, 69, 58
1, 6520, Note_on_c, 0, 49, 0
1, 6520, Note_on_c, 0, 57, 50
1, 6532, Note_on_c, 0, 50, 53
1, 6532, Note_on_c, 0, 62, 53
1, 6544, Control_c, 0, 64, 0
1, 6564, Note_on_c, 0, 41, 0
1, 6648, Control_c, 0, 64, 127
1, 6776, Control_c, 0, 64, 0
1, 6792, Note_on_c, 0, 52, 64
1, 6808, Note_on_c, 0, 69, 0
1, 6820, Note_on_c, 0, 62, 0
1, 6824, Note_on_c, 0, 50, 0
1, 6832, Control_c, 0, 64, 127
1, 6924, Note_on_c, 0, 57, 0
1, 7036, Note_on_c, 0, 53, 73
1, 7044, Note_on_c, 0, 52, 0
1, 7228, Note_on_c, 0, 53, 0
1, 7364, Note_on_c, 0, 64, 73
1, 7364, Note_on_c, 0, 60, 68
1, 7368, Note_on_c, 0, 55, 68
1, 7368, Note_on_c, 0, 57, 64
1, 7416, Control_c, 0, 64, 0
1, 7492, Control_c, 0, 64, 127
1, 7544, Note_on_c, 0, 57, 0
1, 7628, Note_on_c, 0, 55, 0
1, 7660, Note_on_c, 0, 55, 52
1, 7664, Note_on_c, 0, 45, 60
1, 7668, Note_on_c, 0, 64, 0
1, 7680, Control_c, 0, 64, 0
1, 7704, Control_c, 0, 64, 127
1, 7784, Note_on_c, 0, 60, 0
1, 7784, Note_on_c, 0, 45, 0
1, 7876, Note_on_c, 0, 55, 0
1, 7992, Note_on_c, 0, 26, 56
1, 8000, Note_on_c, 0, 54, 56
1, 8008, Control_c, 0, 64, 0
1, 8020, Note_on_c, 0, 38, 31
1, 8088, Control_c, 0, 64, 127
1, 8096, Note_on_c, 0, 54, 0
1, 8096, Note_on_c, 0, 38, 0
1, 8108, Note_on_c, 0, 26, 0
1, 8536, Note_on_c, 0, 77, 54
1, 8544, Note_on_c, 0, 70, 46
1, 8544, Note_on_c, 0, 65, 36
1, 8544, Note_on_c, 0, 54, 45
1, 8548, Note_on_c, 0, 60, 39
1, 8548, Note_on_c, 0, 74, 57
1, 9208, Note_on_c, 0, 60, 0
1, 9224, Note_on_c, 0, 74, 0
1, 9228, Note_on_c, 0, 77, 0
1, 9300, Note_on_c, 0, 54, 0
1, 9316, Note_on_c, 0, 70, 0
1, 9324, Note_on_c, 0, 65, 0
1, 9820, Note_on_c, 0, 62, 94
1, 10056, Note_on_c, 0, 61, 50
1, 10100, Note_on_c, 0, 62, 0
1, 10120, Note_on_c, 0, 60, 57
1, 10164, Note_on_c, 0, 61, 0
1, 10184, Note_on_c, 0, 60, 0
1, 10196, Note_on_c, 0, 59, 56
1, 10264, Note_on_c, 0, 59, 0
1, 10268, Note_on_c, 0, 58, 60
1, 10348, Note_on_c, 0, 58, 0
1, 10356, Note_on_c, 0, 57, 72
1, 10372, Note_on_c, 0, 43, 59
1, 10392, Control_c, 0, 64, 0
1, 10596, Control_c, 0, 64, 127
1, 10680, Note_on_c, 0, 50, 58
1, 10716, Note_on_c, 0, 57, 0
1, 10932, Note_on_c, 0, 43, 0
1, 10944, Note_on_c, 0, 50, 0
1, 10948, Note_on_c, 0, 53, 60
1, 11180, Note_on_c, 0, 53, 0
1, 11212, Note_on_c, 0, 57, 60
1, 11464, Note_on_c, 0, 70, 55
1, 11464, Note_on_c, 0, 62, 52
1, 11468, Note_on_c, 0, 65, 57
1, 11472, Note_on_c, 0, 57, 0
1, 11476, Note_on_c, 0, 58, 57
1, 11476, Control_c, 0, 64, 0
1, 11588, Control_c, 0, 64, 127
1, 11672, Note_on_c, 0, 70, 0
1, 11692, Note_on_c, 0, 62, 0
1, 11728, Note_on_c, 0, 72, 75
1, 11736, Note_on_c, 0, 60, 59
1, 11792, Note_on_c, 0, 58, 0
1, 11824, Note_on_c, 0, 72, 0
1, 11848, Note_on_c, 0, 65, 0
1, 11952, Note_on_c, 0, 60, 0
1, 11964, Note_on_c, 0, 74, 85
1, 12008, Note_on_c, 0, 60, 36
1, 12044, Note_on_c, 0, 60, 0
1, 12064, Note_on_c, 0, 74, 0
1, 12164, Note_on_c, 0, 75, 85
1, 12328, Note_on_c, 0, 75, 0
1, 12408, Note_on_c, 0, 76, 61
1, 12408, Note_on_c, 0, 58, 42
1, 12412, Note_on_c, 0, 64, 55
1, 12416, Control_c, 0, 64, 0
1, 12416, Note_on_c, 0, 73, 50
1, 12424, Note_on_c, 0, 48, 39
1, 12532, Control_c, 0, 64, 127
1, 12548, Note_on_c, 0, 76, 0
1, 12588, Note_on_c, 0, 64, 0
1, 12592, Note_on_c, 0, 73, 0
1, 12656, Note_on_c, 0, 58, 0
1, 12656, Note_on_c, 0, 77, 66
1, 12668, Note_on_c, 0, 55, 41
1, 12688, Note_on_c, 0, 48, 0
1, 12716, Note_on_c, 0, 55, 0
1, 12736, Note_on_c, 0, 77, 0
1, 12904, Note_on_c, 0, 78, 66
1, 12908, Note_on_c, 0, 58, 48
1, 12912, Note_on_c, 0, 66, 52
1, 12940, Note_on_c, 0, 73, 41
1, 13080, Note_on_c, 0, 73, 0
1, 13096, Note_on_c, 0, 78, 0
1, 13104, Note_on_c, 0, 66, 0
1, 13184, Note_on_c, 0, 79, 62
1, 13192, Note_on_c, 0, 67, 49
1, 13208, Note_on_c, 0, 64, 43
1, 13288, Note_on_c, 0, 67, 0
1, 13332, Note_on_c, 0, 58, 0
1, 13352, Note_on_c, 0, 79, 0
1, 13392, Note_on_c, 0, 64, 0
1, 13584, Note_on_c, 0, 87, 76
1, 13596, Note_on_c, 0, 80, 61
1, 13600, Note_on_c, 0, 76, 57
1, 13604, Note_on_c, 0, 84, 56
1, 13612, Note_on_c, 0, 73, 48
1, 13644, Note_on_c, 0, 73, 0
1, 13688, Note_on_c, 0, 84, 0
1, 13696, Note_on_c, 0, 87, 0
1, 13696, Note_on_c, 0, 80, 0
1, 13708, Note_on_c, 0, 76, 0
1, 13888, Note_on_c, 0, 84, 75
1, 13896, Note_on_c, 0, 76, 66
1, 13900, Note_on_c, 0, 73, 51
1, 13908, Note_on_c, 0, 82, 48
1, 13924, Note_on_c, 0, 69, 41
1, 13932, Note_on_c, 0, 82, 0
1, 13964, Note_on_c, 0, 76, 0
1, 13968, Note_on_c, 0, 69, 0
1, 13972, Note_on_c, 0, 84, 0
1, 14024, Note_on_c, 0, 73, 0
1, 14172, Note_on_c, 0, 70, 56
1, 14172, Note_on_c, 0, 81, 66
1, 14172, Note_on_c, 0, 73, 60
1, 14196, Note_on_c, 0, 76, 57
1, 14196, Note_on_c, 0, 66, 49
1, 14196, Note_on_c, 0, 80, 28
1, 14224, Note_on_c, 0, 76, 0
1, 14236, Note_on_c, 0, 80, 0
1, 14244, Note_on_c, 0, 81, 0
1, 14260, Note_on_c, 0, 73, 0
1, 14264, Note_on_c, 0, 70, 0
1, 14392, Note_on_c, 0, 66, 0
1, 14464, Note_on_c, 0, 78, 63
1, 14488, Note_on_c, 0, 70, 56
1, 14492, Note_on_c, 0, 67, 33
1, 14492, Note_on_c, 0, 63, 43
1, 14504, Note_on_c, 0, 73, 39
1, 14544, Note_on_c, 0, 73, 0
1, 14568, Note_on_c, 0, 67, 0
1, 14572, Note_on_c, 0, 78, 0
1, 14640, Note_on_c, 0, 70, 0
1, 14744, Note_on_c, 0, 63, 0
1, 14780, Note_on_c, 0, 62, 46
1, 14784, Note_on_c, 0, 76, 61
1, 14784, Note_on_c, 0, 67, 52
1, 14792, Note_on_c, 0, 72, 51
1, 14796, Note_on_c, 0, 69, 55
1, 14820, Control_c, 0, 64, 0
1, 14860, Control_c, 0, 64, 127
1, 14948, Note_on_c, 0, 76, 0
1, 14972, Note_on_c, 0, 67, 0
1, 14992, Note_on_c, 0, 72, 0
1, 15012, Note_on_c, 0, 69, 0
1, 15028, Note_on_c, 0, 62, 0
1, 15072, Control_c, 0, 64, 0
1, 15084, Note_on_c, 0, 74, 62
1, 15084, Note_on_c, 0, 69, 51
1, 15084, Note_on_c, 0, 58, 51
1, 15112, Note_on_c, 0, 64, 37
1, 15120, Control_c, 0, 64, 127
1, 15128, Note_on_c, 0, 65, 27
1, 15156, Note_on_c, 0, 65, 0
1, 15228, Note_on_c, 0, 74, 0
1, 15236, Note_on_c, 0, 69, 0
1, 15284, Note_on_c, 0, 64, 0
1, 15356, Note_on_c, 0, 58, 0
1, 15360, Control_c, 0, 64, 0
1, 15372, Note_on_c, 0, 72, 50
1, 15380, Note_on_c, 0, 67, 53
1, 15384, Note_on_c, 0, 57, 49
1, 15396, Note_on_c, 0, 62, 38
1, 15404, Control_c, 0, 64, 127
1, 15468, Note_on_c, 0, 72, 0
1, 15476, Note_on_c, 0, 67, 0
1, 15544, Note_on_c, 0, 62, 0
1, 15632, Note_on_c, 0, 57, 0
1, 15648, Note_on_c, 0, 69, 63
1, 15660, Note_on_c, 0, 64, 61
1, 15668, Note_on_c, 0, 53, 42
1, 15668, Note_on_c, 0, 60, 44
1, 15728, Note_on_c, 0, 69, 0
1, 15728, Note_on_c, 0, 64, 0
1, 15732, Note_on_c, 0, 53, 0
1, 15740, Note_on_c, 0, 60, 0
1, 15988, Note_on_c, 0, 48, 39
1, 16004, Note_on_c, 0, 64, 49
1, 16004, Note_on_c, 0, 60, 48
1, 16008, Note_on_c, 0, 47, 55
1, 16008, Note_on_c, 0, 55, 38
1, 16012, Note_on_c, 0, 57, 46
1, 16032, Control_c, 0, 64, 0
1, 16072, Note_on_c, 0, 47, 0
1, 16224, Control_c, 0, 64, 127
1, 16276, Note_on_c, 0, 60, 0
1, 16524, Note_on_c, 0, 57, 0
1, 16552, Note_on_c, 0, 55, 0
1, 16664, Note_on_c, 0, 64, 0
1, 16720, Note_on_c, 0, 56, 79
1, 16804, Control_c, 0, 64, 0
1, 16880, Note_on_c, 0, 56, 0
1, 16900, Control_c, 0, 64, 127
1, 16912, Note_on_c, 0, 57, 83
1, 17040, Note_on_c, 0, 48, 0
1, 17076, Note_on_c, 0, 57, 0
1, 17128, Note_on_c, 0, 60, 77
1, 17224, Note_on_c, 0, 60, 0
1, 17956, Note_on_c, 0, 71, 71
1, 17956, Note_on_c, 0, 64, 70
1, 17964, Control_c, 0, 64, 0
1, 17964, Note_on_c, 0, 55, 42
1, 17976, Note_on_c, 0, 45, 39
1, 18100, Note_on_c, 0, 71, 0
1, 18104, Control_c, 0, 64, 127
1, 18116, Note_on_c, 0, 64, 0
1, 18144, Note_on_c, 0, 60, 57
1, 18152, Note_on_c, 0, 55, 0
1, 18152, Note_on_c, 0, 67, 52
1, 18180, Note_on_c, 0, 52, 42
1, 18232, Note_on_c, 0, 60, 0
1, 18268, Note_on_c, 0, 67, 0
1, 18372, Note_on_c, 0, 76, 84
1, 18384, Note_on_c, 0, 52, 0
1, 18392, Note_on_c, 0, 55, 37
1, 18476, Note_on_c, 0, 45, 0
1, 18524, Note_on_c, 0, 76, 0
1, 18568, Note_on_c, 0, 55, 0
1, 18580, Note_on_c, 0, 74, 72
1, 18644, Note_on_c, 0, 74, 0
1, 18832, Note_on_c, 0, 60, 42
1, 18840, Note_on_c, 0, 64, 46
1, 18844, Note_on_c, 0, 54, 42
1, 18844, Note_on_c, 0, 68, 24
1, 18860, Note_on_c, 0, 50, 39
1, 18864, Control_c, 0, 64, 0
1, 19072, Control_c, 0, 64, 127
1, 19084, Note_on_c, 0, 60, 0
1, 19088, Note_on_c, 0, 68, 0
1, 19116, Note_on_c, 0, 57, 48
1, 19128, Note_on_c, 0, 71, 56
1, 19272, Note_on_c, 0, 64, 0
1, 19488, Note_on_c, 0, 64, 41
1, 19644, Note_on_c, 0, 57, 0
1, 19656, Note_on_c, 0, 71, 0
1, 19732, Note_on_c, 0, 54, 0
1, 19760, Note_on_c, 0, 50, 0
1, 19772, Note_on_c, 0, 64, 0
1, 19836, Note_on_c, 0, 60, 32
1, 20084, Note_on_c, 0, 60, 0
1, 20160, Control_c, 0, 64, 0
1, 20164, Note_on_c, 0, 60, 49
1, 20172, Note_on_c, 0, 43, 39
1, 20252, Control_c, 0, 64, 127
1, 20320, Note_on_c, 0, 60, 0
1, 20412, Note_on_c, 0, 43, 0
1, 20456, Note_on_c, 0, 72, 72
1, 20600, Note_on_c, 0, 72, 0
1, 20684, Note_on_c, 0, 72, 59
1, 20696, Control_c, 0, 64, 0
1, 20708, Note_on_c, 0, 61, 75
1, 20716, Note_on_c, 0, 60, 65
1, 20772, Control_c, 0, 64, 127
1, 20924, Note_on_c, 0, 72, 0
1, 20932, Note_on_c, 0, 61, 0
1, 20940, Note_on_c, 0, 60, 0
1, 20992, Note_on_c, 0, 72, 45
1, 21028, Note_on_c, 0, 61, 59
1, 21032, Note_on_c, 0, 60, 52
1, 21176, Note_on_c, 0, 72, 0
1, 21204, Note_on_c, 0, 60, 0
1, 21216, Note_on_c, 0, 61, 0
1, 21316, Note_on_c, 0, 72, 45
1, 21336, Note_on_c, 0, 61, 59
1, 21344, Note_on_c, 0, 60, 45
1, 21520, Note_on_c, 0, 60, 0
1, 21544, Note_on_c, 0, 72, 0
1, 21564, Note_on_c, 0, 61, 0
1, 21660, Note_on_c, 0, 72, 45
1, 21660, Note_on_c, 0, 60, 44
1, 21664, Note_on_c, 0, 61, 46
1, 21768, Note_on_c, 0, 72, 0
1, 21860, Note_on_c, 0, 61, 0
1, 21888, Note_on_c, 0, 60, 0
1, 22032, Note_on_c, 0, 60, 83
1, 22096, Note_on_c, 0, 61, 53
1, 22100, Note_on_c, 0, 60, 0
1, 22152, Note_on_c, 0, 61, 0
1, 22156, Note_on_c, 0, 60, 61
1, 22208, Note_on_c, 0, 60, 0
1, 22220, Note_on_c, 0, 61, 45
1, 22252, Note_on_c, 0, 61, 0
1, 22268, Note_on_c, 0, 60, 50
1, 22324, Note_on_c, 0, 60, 0
1, 22332, Note_on_c, 0, 61, 41
1, 22368, Note_on_c, 0, 61, 0
1, 22392, Note_on_c, 0, 60, 49
1, 22428, Note_on_c, 0, 60, 0
1, 22444, Note_on_c, 0, 61, 42
1, 22488, Note_on_c, 0, 61, 0
1, 22512, Note_on_c, 0, 60, 52
1, 22564, Note_on_c, 0, 60, 0
1, 22572, Note_on_c, 0, 61, 39
1, 22604, Note_on_c, 0, 61, 0
1, 22624, Note_on_c, 0, 60, 40
1, 22688, Note_on_c, 0, 60, 0
1, 22692, Note_on_c, 0, 61, 39
1, 22728, Note_on_c, 0, 61, 0
1, 22752, Note_on_c, 0, 60, 43
1, 22804, Note_on_c, 0, 60, 0
1, 22812, Note_on_c, 0, 61, 38
1, 22848, Note_on_c, 0, 61, 0
1, 22876, Note_on_c, 0, 60, 48
1, 22924, Note_on_c, 0, 60, 0
1, 22936, Note_on_c, 0, 61, 37
1, 22972, Note_on_c, 0, 61, 0
1, 22996, Note_on_c, 0, 60, 54
1, 23040, Note_on_c, 0, 61, 43
1, 23048, Note_on_c, 0, 60, 0
1, 23096, Note_on_c, 0, 58, 85
1, 23104, Control_c, 0, 64, 40
1, 23104, Note_on_c, 0, 60, 67
1, 23108, Note_on_c, 0, 61, 0
1, 23108, Control_c, 0, 64, 0
1, 23172, Note_on_c, 0, 61, 47
1, 23180, Note_on_c, 0, 60, 0
1, 23236, Note_on_c, 0, 61, 0
1, 23240, Note_on_c, 0, 60, 56
1, 23300, Note_on_c, 0, 61, 50
1, 23304, Note_on_c, 0, 60, 0
1, 23356, Note_on_c, 0, 61, 0
1, 23372, Note_on_c, 0, 60, 52
1, 23380, Control_c, 0, 64, 127
1, 23428, Note_on_c, 0, 60, 0
1, 23428, Note_on_c, 0, 61, 46
1, 23476, Note_on_c, 0, 61, 0
1, 23496, Note_on_c, 0, 60, 57
1, 23560, Note_on_c, 0, 60, 0
1, 23560, Note_on_c, 0, 61, 52
1, 23572, Note_on_c, 0, 58, 0
1, 23584, Note_on_c, 0, 57, 67
1, 23592, Control_c, 0, 64, 0
1, 23608, Note_on_c, 0, 61, 0
1, 23616, Note_on_c, 0, 60, 54
1, 23672, Control_c, 0, 64, 127
1, 23684, Note_on_c, 0, 60, 0
1, 23684, Note_on_c, 0, 61, 44
1, 23720, Note_on_c, 0, 61, 0
1, 23740, Note_on_c, 0, 60, 47
1, 23808, Note_on_c, 0, 60, 0
1, 23832, Note_on_c, 0, 61, 38
1, 23868, Note_on_c, 0, 61, 0
1, 23868, Control_c, 0, 64, 0
1, 23868, Note_on_c, 0, 60, 68
1, 23884, Note_on_c, 0, 56, 76
1, 23892, Note_on_c, 0, 57, 0
1, 23944, Note_on_c, 0, 60, 0
1, 23948, Note_on_c, 0, 61, 42
1, 23976, Control_c, 0, 64, 127
1, 23980, Note_on_c, 0, 61, 0
1, 24004, Note_on_c, 0, 60, 52
1, 24068, Note_on_c, 0, 60, 0
1, 24088, Note_on_c, 0, 61, 40
1, 24116, Note_on_c, 0, 61, 0
1, 24132, Note_on_c, 0, 60, 58
1, 24176, Control_c, 0, 64, 0
1, 24192, Note_on_c, 0, 57, 75
1, 24212, Note_on_c, 0, 56, 0
1, 24224, Note_on_c, 0, 60, 0
1, 24224, Note_on_c, 0, 61, 48
1, 24252, Note_on_c, 0, 61, 0
1, 24260, Control_c, 0, 64, 127
1, 24276, Note_on_c, 0, 60, 56
1, 24348, Note_on_c, 0, 60, 0
1, 24404, Note_on_c, 0, 60, 44
1, 24476, Note_on_c, 0, 60, 0
1, 24544, Note_on_c, 0, 60, 43
1, 24612, Note_on_c, 0, 60, 0
1, 24640, Note_on_c, 0, 61, 36
1, 24676, Note_on_c, 0, 61, 0
1, 24684, Note_on_c, 0, 60, 52
1, 24752, Note_on_c, 0, 60, 0
1, 24768, Note_on_c, 0, 61, 36
1, 24780, Note_on_c, 0, 57, 0
1, 24784, Note_on_c, 0, 53, 46
1, 24800, Note_on_c, 0, 61, 0
1, 24816, Note_on_c, 0, 60, 46
1, 24860, Note_on_c, 0, 53, 0
1, 24880, Note_on_c, 0, 60, 0
1, 24880, Note_on_c, 0, 61, 41
1, 24928, Note_on_c, 0, 61, 0
1, 24956, Note_on_c, 0, 60, 44
1, 25048, Note_on_c, 0, 61, 44
1, 25052, Note_on_c, 0, 60, 0
1, 25128, Note_on_c, 0, 61, 0
1, 25144, Note_on_c, 0, 35, 43
1, 25160, Note_on_c, 0, 47, 46
1, 25160, Control_c, 0, 64, 0
1, 25164, Note_on_c, 0, 62, 47
1, 25168, Note_on_c, 0, 57, 56
1, 25252, Control_c, 0, 64, 127
1, 25412, Note_on_c, 0, 57, 0
1, 25448, Note_on_c, 0, 35, 0
1, 25472, Note_on_c, 0, 66, 61
1, 25488, Note_on_c, 0, 62, 0
1, 25512, Note_on_c, 0, 47, 0
1, 25540, Note_on_c, 0, 66, 0
1, 25632, Note_on_c, 0, 73, 57
1, 25648, Note_on_c, 0, 74, 80
1, 25652, Note_on_c, 0, 73, 0
1, 25748, Note_on_c, 0, 74, 0
1, 25780, Note_on_c, 0, 78, 85
1, 25888, Note_on_c, 0, 78, 0
1, 25960, Note_on_c, 0, 76, 68
1, 25960, Note_on_c, 0, 72, 45
1, 25964, Note_on_c, 0, 67, 57
1, 25972, Note_on_c, 0, 62, 46
1, 25976, Note_on_c, 0, 56, 51
1, 25988, Control_c, 0, 64, 0
1, 26104, Control_c, 0, 64, 127
1, 26120, Note_on_c, 0, 67, 0
1, 26148, Note_on_c, 0, 76, 0
1, 26164, Note_on_c, 0, 72, 0
1, 26168, Note_on_c, 0, 79, 75
1, 26228, Note_on_c, 0, 79, 0
1, 26420, Note_on_c, 0, 88, 71
1, 26540, Note_on_c, 0, 88, 0
1, 26696, Note_on_c, 0, 95, 64
1, 26708, Note_on_c, 0, 96, 42
1, 27152, Note_on_c, 0, 62, 0
1, 27164, Note_on_c, 0, 96, 0
1, 27236, Note_on_c, 0, 56, 0
1, 27252, Note_on_c, 0, 95, 0
1, 27656, Control_c, 0, 64, 0
1, 27664, Note_on_c, 0, 88, 107
1, 27672, Note_on_c, 0, 45, 57
1, 27684, Note_on_c, 0, 52, 49
1, 27736, Control_c, 0, 64, 127
1, 27772, Note_on_c, 0, 45, 0
1, 27808, Note_on_c, 0, 52, 0
1, 27872, Note_on_c, 0, 88, 0
1, 27876, Note_on_c, 0, 83, 72
1, 28020, Note_on_c, 0, 83, 0
1, 28060, Note_on_c, 0, 61, 49
1, 28064, Note_on_c, 0, 85, 72
1, 28076, Note_on_c, 0, 64, 49
1, 28080, Note_on_c, 0, 54, 45
1, 28080, Note_on_c, 0, 59, 47
1, 28132, Control_c, 0, 64, 0
1, 28196, Note_on_c, 0, 80, 51
1, 28200, Control_c, 0, 64, 127
1, 28212, Note_on_c, 0, 85, 0
1, 28316, Note_on_c, 0, 80, 0
1, 28352, Note_on_c, 0, 77, 25
1, 28436, Note_on_c, 0, 77, 0
1, 28600, Note_on_c, 0, 83, 78
1, 28716, Note_on_c, 0, 83, 0
1, 28740, Note_on_c, 0, 76, 54
1, 28824, Note_on_c, 0, 76, 0
1, 28888, Note_on_c, 0, 80, 73
1, 29080, Note_on_c, 0, 77, 32
1, 29092, Note_on_c, 0, 76, 37
1, 29104, Note_on_c, 0, 80, 0
1, 29116, Note_on_c, 0, 77, 0
1, 29136, Note_on_c, 0, 76, 0
1, 29220, Note_on_c, 0, 73, 57
1, 29292, Note_on_c, 0, 64, 0
1, 29292, Note_on_c, 0, 59, 0
1, 29312, Note_on_c, 0, 61, 0
1, 29360, Note_on_c, 0, 73, 0
1, 29364, Note_on_c, 0, 54, 0
1, 29384, Note_on_c, 0, 71, 46
1, 29528, Note_on_c, 0, 71, 0
1, 29556, Note_on_c, 0, 78, 73
1, 29576, Note_on_c, 0, 47, 44
1, 29588, Control_c, 0, 64, 0
1, 29700, Control_c, 0, 64, 127
1, 29716, Note_on_c, 0, 71, 58
1, 29764, Note_on_c, 0, 57, 35
1, 29768, Note_on_c, 0, 47, 0
1, 29788, Note_on_c, 0, 78, 0
1, 29832, Note_on_c, 0, 71, 0
1, 29864, Note_on_c, 0, 57, 0
1, 29888, Note_on_c, 0, 69, 41
1, 30000, Note_on_c, 0, 69, 0
1, 30056, Note_on_c, 0, 66, 36
1, 30188, Note_on_c, 0, 66, 0
1, 30236, Note_on_c, 0, 64, 39
1, 30248, Note_on_c, 0, 60, 31
1, 30296, Note_on_c, 0, 60, 0
1, 30380, Note_on_c, 0, 64, 0
1, 30392, Note_on_c, 0, 74, 67
1, 30552, Note_on_c, 0, 74, 0
1, 30600, Note_on_c, 0, 72, 60
1, 30640, Control_c, 0, 64, 0
1, 30700, Note_on_c, 0, 56, 1
1, 30840, Note_on_c, 0, 68, 61
1, 30848, Note_on_c, 0, 62, 46
1, 30856, Control_c, 0, 64, 127
1, 30872, Note_on_c, 0, 72, 0
1, 31020, Note_on_c, 0, 56, 0
1, 31064, Note_on_c, 0, 71, 68
1, 31068, Note_on_c, 0, 62, 0
1, 31084, Note_on_c, 0, 68, 0
1, 31256, Note_on_c, 0, 71, 0
1, 31324, Note_on_c, 0, 64, 64
1, 31580, Note_on_c, 0, 62, 56
1, 31608, Note_on_c, 0, 64, 0
1, 31788, Note_on_c, 0, 61, 57
1, 31804, Note_on_c, 0, 62, 0
1, 31964, Note_on_c, 0, 61, 0
1, 31980, Note_on_c, 0, 64, 56
1, 31988, Note_on_c, 0, 45, 42
1, 32008, Control_c, 0, 64, 0
1, 32176, Note_on_c, 0, 56, 43
1, 32220, Control_c, 0, 64, 127
1, 32232, Note_on_c, 0, 64, 0
1, 32372, Note_on_c, 0, 56, 0
1, 32396, Note_on_c, 0, 59, 54
1, 32416, Note_on_c, 0, 52, 40
1, 32604, Note_on_c, 0, 59, 0
1, 32612, Note_on_c, 0, 61, 54
1, 32908, Note_on_c, 0, 61, 0
1, 32920, Note_on_c, 0, 64, 68
1, 33092, Note_on_c, 0, 64, 0
1, 33100, Note_on_c, 0, 66, 75
1, 33196, Note_on_c, 0, 45, 0
1, 33252, Note_on_c, 0, 66, 0
1, 33380, Note_on_c, 0, 68, 80
1, 33520, Note_on_c, 0, 68, 0
1, 33580, Note_on_c, 0, 71, 83
1, 33588, Note_on_c, 0, 52, 0
1, 33744, Note_on_c, 0, 71, 0
1, 33824, Note_on_c, 0, 64, 61
1, 33824, Note_on_c, 0, 61, 51
1, 33840, Note_on_c, 0, 59, 50
1, 33876, Control_c, 0, 64, 24
1, 33880, Control_c, 0, 64, 0
1, 34028, Control_c, 0, 64, 127
1, 34044, Note_on_c, 0, 58, 62
1, 34072, Note_on_c, 0, 59, 0
1, 34176, Note_on_c, 0, 64, 0
1, 34220, Note_on_c, 0, 61, 0
1, 34292, Control_c, 0, 64, 0
1, 34296, Note_on_c, 0, 61, 50
1, 34304, Note_on_c, 0, 58, 0
1, 34308, Note_on_c, 0, 64, 52
1, 34308, Note_on_c, 0, 57, 54
1, 34560, Control_c, 0, 64, 127
1, 34564, Note_on_c, 0, 56, 55
1, 34616, Note_on_c, 0, 57, 0
1, 34632, Note_on_c, 0, 64, 0
1, 34684, Note_on_c, 0, 61, 0
1, 34804, Note_on_c, 0, 61, 47
1, 34828, Note_on_c, 0, 64, 48
1, 35056, Note_on_c, 0, 54, 60
1, 35080, Control_c, 0, 64, 0
1, 35096, Note_on_c, 0, 64, 0
1, 35100, Note_on_c, 0, 56, 0
1, 35156, Note_on_c, 0, 61, 0
1, 35180, Control_c, 0, 64, 127
1, 35308, Note_on_c, 0, 61, 49
1, 35324, Note_on_c, 0, 64, 50
1, 35364, Note_on_c, 0, 54, 0
1, 35528, Note_on_c, 0, 64, 0
1, 35576, Note_on_c, 0, 54, 43
1, 35580, Note_on_c, 0, 44, 54
1, 35604, Note_on_c, 0, 61, 0
1, 35776, Note_on_c, 0, 54, 0
1, 35816, Note_on_c, 0, 44, 0
1, 35832, Control_c, 0, 64, 0
1, 35876, Note_on_c, 0, 58, 54
1, 35888, Note_on_c, 0, 62, 56
1, 35896, Note_on_c, 0, 53, 43
1, 35900, Note_on_c, 0, 43, 43
1, 35920, Control_c, 0, 64, 127
1, 35980, Note_on_c, 0, 43, 0
1, 35992, Note_on_c, 0, 58, 0
1, 35996, Note_on_c, 0, 62, 0
1, 36036, Note_on_c, 0, 53, 0
1, 36164, Note_on_c, 0, 77, 107
1, 36304, Note_on_c, 0, 77, 0
1, 36448, Note_on_c, 0, 77, 90
1, 36460, Note_on_c, 0, 74, 77
1, 36464, Note_on_c, 0, 70, 87
1, 36476, Note_on_c, 0, 62, 69
1, 36484, Note_on_c, 0, 65, 61
1, 36496, Note_on_c, 0, 76, 31
1, 36508, Note_on_c, 0, 65, 0
1, 36528, Note_on_c, 0, 76, 0
1, 36536, Note_on_c, 0, 65, 26
1, 36584, Note_on_c, 0, 74, 0
1, 36588, Note_on_c, 0, 77, 0
1, 36620, Note_on_c, 0, 70, 0
1, 36652, Note_on_c, 0, 65, 0
1, 36704, Note_on_c, 0, 74, 89
1, 36720, Note_on_c, 0, 58, 71
1, 36740, Note_on_c, 0, 62, 0
1, 36836, Note_on_c, 0, 74, 0
1, 36860, Note_on_c, 0, 58, 0
1, 36912, Note_on_c, 0, 74, 71
1, 36920, Note_on_c, 0, 58, 57
1, 36976, Note_on_c, 0, 74, 0
1, 37004, Note_on_c, 0, 58, 0
1, 37168, Note_on_c, 0, 58, 59
1, 37176, Note_on_c, 0, 65, 58
1, 37180, Note_on_c, 0, 62, 57
1, 37188, Note_on_c, 0, 53, 56
1, 37308, Note_on_c, 0, 65, 0
1, 37332, Note_on_c, 0, 58, 0
1, 37352, Note_on_c, 0, 62, 0
1, 37356, Note_on_c, 0, 53, 0
1, 37424, Note_on_c, 0, 58, 52
1, 37432, Note_on_c, 0, 62, 49
1, 37432, Note_on_c, 0, 65, 60
1, 37432, Note_on_c, 0, 53, 45
1, 37448, Note_on_c, 0, 58, 0
1, 37456, Note_on_c, 0, 62, 0
1, 37464, Note_on_c, 0, 53, 0
1, 37492, Note_on_c, 0, 65, 0
1, 37692, Note_on_c, 0, 77, 87
1, 37696, Note_on_c, 0, 64, 40
1, 37732, Note_on_c, 0, 64, 0
1, 37812, Note_on_c, 0, 77, 0
1, 38044, Control_c, 0, 64, 0
1, 38048, Note_on_c, 0, 77, 75
1, 38052, Note_on_c, 0, 36, 50
1, 38056, Note_on_c, 0, 70, 60
1, 38060, Note_on_c, 0, 65, 56
1, 38124, Note_on_c, 0, 36, 0
1, 38128, Control_c, 0, 64, 127
1, 38180, Note_on_c, 0, 77, 0
1, 38192, Note_on_c, 0, 65, 0
1, 38220, Note_on_c, 0, 70, 0
1, 38384, Note_on_c, 0, 76, 75
1, 38396, Note_on_c, 0, 64, 56
1, 38396, Note_on_c, 0, 68, 55
1, 38396, Note_on_c, 0, 58, 54
1, 38400, Note_on_c, 0, 73, 55
1, 38572, Note_on_c, 0, 58, 0
1, 38592, Note_on_c, 0, 68, 0
1, 38600, Note_on_c, 0, 76, 0
1, 38600, Note_on_c, 0, 64, 0
1, 38600, Note_on_c, 0, 73, 0
1, 38756, Note_on_c, 0, 76, 59
1, 38756, Note_on_c, 0, 68, 55
1, 38760, Note_on_c, 0, 64, 52
1, 38760, Note_on_c, 0, 73, 52
1, 38764, Note_on_c, 0, 58, 46
1, 39192, Note_on_c, 0, 64, 0
1, 39204, Note_on_c, 0, 76, 0
1, 39204, Note_on_c, 0, 58, 0
1, 39236, Note_on_c, 0, 68, 0
1, 39284, Note_on_c, 0, 73, 0
1, 39404, Control_c, 0, 64, 0
1, 39408, Note_on_c, 0, 68, 89
1, 39408, Note_on_c, 0, 76, 90
1, 39408, Note_on_c, 0, 73, 80
1, 39408, Note_on_c, 0, 64, 89
1, 39416, Note_on_c, 0, 58, 70
1, 39552, Control_c, 0, 64, 127
1, 39612, Note_on_c, 0, 76, 0
1, 39648, Note_on_c, 0, 73, 0
1, 39676, Note_on_c, 0, 58, 0
1, 39688, Note_on_c, 0, 74, 84
1, 39708, Note_on_c, 0, 73, 50
1, 39736, Note_on_c, 0, 73, 0
1, 39816, Note_on_c, 0, 74, 0
1, 39852, Note_on_c, 0, 68, 0
1, 39864, Note_on_c, 0, 64, 0
1, 39924, Control_c, 0, 64, 0
1, 39936, Note_on_c, 0, 48, 50
1, 39944, Note_on_c, 0, 74, 69
1, 39944, Note_on_c, 0, 58, 41
1, 39948, Note_on_c, 0, 68, 68
1, 39956, Note_on_c, 0, 64, 47
1, 40000, Control_c, 0, 64, 127
1, 40040, Note_on_c, 0, 58, 0
1, 40060, Note_on_c, 0, 48, 0
1, 40392, Note_on_c, 0, 64, 0
1, 40448, Note_on_c, 0, 74, 0
1, 40488, Note_on_c, 0, 72, 66
1, 40664, Note_on_c, 0, 72, 0
1, 40680, Note_on_c, 0, 68, 0
1, 41016, Control_c, 0, 64, 0
1, 41020, Note_on_c, 0, 61, 51
1, 41020, Note_on_c, 0, 76, 69
1, 41024, Note_on_c, 0, 53, 48
1, 41024, Note_on_c, 0, 73, 56
1, 41028, Note_on_c, 0, 69, 59
1, 41032, Note_on_c, 0, 64, 56
1, 41120, Control_c, 0, 64, 127
1, 41256, Note_on_c, 0, 64, 0
1, 41280, Note_on_c, 0, 76, 0
1, 41284, Note_on_c, 0, 73, 0
1, 41300, Note_on_c, 0, 69, 0
1, 41352, Note_on_c, 0, 61, 0
1, 41372, Note_on_c, 0, 62, 41
1, 41380, Control_c, 0, 64, 0
1, 41384, Note_on_c, 0, 74, 56
1, 41432, Control_c, 0, 64, 127
1, 41544, Note_on_c, 0, 74, 0
1, 41632, Note_on_c, 0, 62, 0
1, 41672, Note_on_c, 0, 72, 58
1, 41684, Note_on_c, 0, 67, 50
1, 41692, Control_c, 0, 64, 0
1, 41696, Note_on_c, 0, 58, 39
1, 41696, Note_on_c, 0, 62, 42
1, 41732, Control_c, 0, 64, 127
1, 41800, Note_on_c, 0, 72, 0
1, 41800, Note_on_c, 0, 67, 0
1, 41860, Note_on_c, 0, 62, 0
1, 41948, Note_on_c, 0, 53, 0
1, 41952, Note_on_c, 0, 58, 0
1, 41952, Note_on_c, 0, 69, 56
1, 41964, Note_on_c, 0, 64, 46
1, 41968, Note_on_c, 0, 57, 57
1, 41972, Note_on_c, 0, 60, 32
1, 42056, Note_on_c, 0, 64, 0
1, 42064, Note_on_c, 0, 69, 0
1, 42096, Note_on_c, 0, 60, 0
1, 42104, Note_on_c, 0, 57, 0
1, 42280, Note_on_c, 0, 64, 60
1, 42288, Note_on_c, 0, 60, 56
1, 42292, Note_on_c, 0, 48, 45
1, 42292, Note_on_c, 0, 63, 46
1, 42308, Note_on_c, 0, 55, 43
1, 42312, Control_c, 0, 64, 0
1, 42368, Control_c, 0, 64, 127
1, 42476, Note_on_c, 0, 60, 0
1, 42504, Note_on_c, 0, 55, 0
1, 42568, Note_on_c, 0, 64, 0
1, 42600, Note_on_c, 0, 60, 54
1, 42616, Note_on_c, 0, 55, 46
1, 42852, Note_on_c, 0, 55, 0
1, 42872, Note_on_c, 0, 48, 0
1, 42972, Note_on_c, 0, 60, 0
1, 43640, Note_on_c, 0, 63, 0
1, 43768, Note_on_c, 0, 57, 68
1, 43772, Note_on_c, 0, 47, 57
1, 43780, Note_on_c, 0, 62, 58
1, 43800, Control_c, 0, 64, 24
1, 43804, Control_c, 0, 64, 0
1, 43824, Control_c, 0, 64, 127
1, 43912, Note_on_c, 0, 57, 0
1, 43980, Control_c, 0, 64, 0
1, 44000, Note_on_c, 0, 56, 57
1, 44000, Note_on_c, 0, 61, 61
1, 44012, Note_on_c, 0, 47, 0
1, 44012, Note_on_c, 0, 46, 55
1, 44024, Note_on_c, 0, 62, 0
1, 44024, Control_c, 0, 64, 127
1, 44184, Note_on_c, 0, 61, 0
1, 44192, Note_on_c, 0, 56, 0
1, 44216, Note_on_c, 0, 46, 0
1, 44220, Control_c, 0, 64, 0
1, 44244, Note_on_c, 0, 60, 63
1, 44244, Note_on_c, 0, 55, 61
1, 44244, Note_on_c, 0, 45, 56
1, 44300, Control_c, 0, 64, 127
1, 44352, Note_on_c, 0, 55, 0
1, 44424, Note_on_c, 0, 60, 0
1, 44468, Note_on_c, 0, 33, 68
1, 44476, Note_on_c, 0, 45, 0
1, 44492, Note_on_c, 0, 33, 0
1, 44756, Note_on_c, 0, 87, 96
1, 44760, Note_on_c, 0, 75, 94
1, 44760, Note_on_c, 0, 63, 79
1, 44760, Note_on_c, 0, 55, 72
1, 44768, Note_on_c, 0, 84, 72
1, 44772, Note_on_c, 0, 82, 64
1, 44772, Note_on_c, 0, 60, 63
1, 44784, Note_on_c, 0, 57, 57
1, 44796, Note_on_c, 0, 82, 0
1, 44856, Note_on_c, 0, 63, 0
1, 44864, Note_on_c, 0, 57, 0
1, 44876, Note_on_c, 0, 60, 0
1, 44896, Note_on_c, 0, 55, 0
1, 44900, Note_on_c, 0, 84, 0
1, 44924, Note_on_c, 0, 75, 0
1, 44956, Note_on_c, 0, 87, 0
1, 45036, Note_on_c, 0, 89, 102
1, 45252, Control_c, 0, 64, 0
1, 45276, Note_on_c, 0, 89, 0
1, 45284, Note_on_c, 0, 38, 82
1, 45324, Control_c, 0, 64, 127
1, 45360, Note_on_c, 0, 38, 0
1, 45568, Note_on_c, 0, 54, 68
1, 45884, Note_on_c, 0, 82, 68
1, 45884, Note_on_c, 0, 65, 58
1, 45892, Note_on_c, 0, 86, 63
1, 45896, Note_on_c, 0, 74, 55
1, 45904, Note_on_c, 0, 60, 42
1, 46072, Note_on_c, 0, 74, 0
1, 46108, Note_on_c, 0, 86, 0
1, 46120, Note_on_c, 0, 82, 0
1, 46988, Note_on_c, 0, 65, 0
1, 47068, Note_on_c, 0, 60, 0
1, 47152, Note_on_c, 0, 54, 0
1, 47264, Note_on_c, 0, 84, 72
1, 47272, Note_on_c, 0, 81, 74
1, 47388, Note_on_c, 0, 84, 0
1, 47400, Note_on_c, 0, 81, 0
1, 47464, Note_on_c, 0, 82, 63
1, 47468, Note_on_c, 0, 79, 58
1, 47588, Note_on_c, 0, 79, 0
1, 47660, Note_on_c, 0, 82, 0
1, 47660, Note_on_c, 0, 77, 60
1, 47660, Note_on_c, 0, 81, 62
1, 47720, Note_on_c, 0, 81, 0
1, 47748, Note_on_c, 0, 77, 0
1, 48060, Note_on_c, 0, 74, 41
1, 48064, Note_on_c, 0, 79, 54
1, 48080, Note_on_c, 0, 43, 49
1, 48092, Control_c, 0, 64, 0
1, 48160, Control_c, 0, 64, 127
1, 48248, Note_on_c, 0, 79, 0
1, 48264, Note_on_c, 0, 74, 0
1, 48288, Note_on_c, 0, 43, 0
1, 48328, Note_on_c, 0, 55, 54
1, 48628, Note_on_c, 0, 55, 0
1, 48632, Note_on_c, 0, 58, 52
1, 48632, Note_on_c, 0, 62, 57
1, 48640, Note_on_c, 0, 59, 40
1, 48700, Note_on_c, 0, 59, 0
1, 48860, Note_on_c, 0, 62, 0
1, 48868, Note_on_c, 0, 58, 0
1, 48884, Note_on_c, 0, 69, 68
1, 48896, Note_on_c, 0, 59, 56
1, 48956, Note_on_c, 0, 69, 0
1, 49172, Note_on_c, 0, 59, 0
1, 49172, Note_on_c, 0, 74, 72
1, 49180, Note_on_c, 0, 65, 55
1, 49184, Note_on_c, 0, 62, 56
1, 49188, Note_on_c, 0, 69, 54
1, 49252, Note_on_c, 0, 65, 0
1, 49268, Note_on_c, 0, 69, 0
1, 49276, Note_on_c, 0, 74, 0
1, 49452, Note_on_c, 0, 62, 0
1, 49460, Control_c, 0, 64, 0
1, 49464, Note_on_c, 0, 76, 61
1, 49464, Note_on_c, 0, 61, 56
1, 49468, Note_on_c, 0, 69, 56
1, 49472, Note_on_c, 0, 65, 46
1, 49476, Note_on_c, 0, 73, 56
1, 49532, Control_c, 0, 64, 127
1, 49668, Note_on_c, 0, 76, 0
1, 49672, Note_on_c, 0, 65, 0
1, 49712, Note_on_c, 0, 69, 0
1, 49736, Note_on_c, 0, 73, 0
1, 49788, Note_on_c, 0, 77, 70
1, 49796, Note_on_c, 0, 62, 51
1, 49800, Note_on_c, 0, 61, 0
1, 49960, Note_on_c, 0, 77, 0
1, 50112, Note_on_c, 0, 79, 65
1, 50124, Note_on_c, 0, 64, 51
1, 50132, Note_on_c, 0, 62, 0
1, 50156, Note_on_c, 0, 64, 0
1, 50224, Note_on_c, 0, 79, 0
1, 50468, Note_on_c, 0, 81, 61
1, 50468, Control_c, 0, 64, 24
1, 50472, Control_c, 0, 64, 0
1, 50472, Note_on_c, 0, 58, 40
1, 50476, Note_on_c, 0, 48, 46
1, 50480, Note_on_c, 0, 69, 38
1, 50480, Note_on_c, 0, 74, 52
1, 50548, Control_c, 0, 64, 127
1, 50632, Note_on_c, 0, 69, 0
1, 50660, Note_on_c, 0, 74, 0
1, 50696, Note_on_c, 0, 81, 0
1, 50776, Note_on_c, 0, 48, 0
1, 50784, Note_on_c, 0, 58, 0
1, 50800, Note_on_c, 0, 84, 49
1, 50824, Note_on_c, 0, 55, 34
1, 50932, Note_on_c, 0, 84, 0
1, 51160, Note_on_c, 0, 86, 57
1, 51176, Note_on_c, 0, 55, 0
1, 51184, Note_on_c, 0, 74, 42
1, 51192, Note_on_c, 0, 60, 40
1, 51304, Note_on_c, 0, 74, 0
1, 51320, Note_on_c, 0, 86, 0
1, 51468, Note_on_c, 0, 60, 0
1, 51476, Note_on_c, 0, 88, 68
1, 51484, Note_on_c, 0, 58, 46
1, 51484, Note_on_c, 0, 76, 57
1, 51512, Note_on_c, 0, 58, 0
1, 51560, Note_on_c, 0, 76, 0
1, 51564, Note_on_c, 0, 88, 0
1, 52408, Note_on_c, 0, 91, 61
1, 52416, Note_on_c, 0, 24, 47
1, 52424, Note_on_c, 0, 79, 40
1, 52436, Control_c, 0, 64, 0
1, 52480, Control_c, 0, 64, 127
1, 52492, Note_on_c, 0, 79, 0
1, 52520, Note_on_c, 0, 24, 0
1, 52556, Note_on_c, 0, 91, 0
1, 52824, Note_on_c, 0, 58, 45
1, 52832, Note_on_c, 0, 93, 55
1, 52840, Note_on_c, 0, 81, 49
1, 52900, Note_on_c, 0, 81, 0
1, 52940, Note_on_c, 0, 93, 0
1, 53268, Note_on_c, 0, 96, 58
1, 53284, Note_on_c, 0, 84, 47
1, 53292, Note_on_c, 0, 64, 41
1, 53408, Note_on_c, 0, 96, 0
1, 53508, Note_on_c, 0, 84, 0
1, 53788, Note_on_c, 0, 64, 0
1, 54020, Note_on_c, 0, 58, 0
1, 54092, Note_on_c, 0, 84, 81
1, 54360, Note_on_c, 0, 84, 0
1, 54404, Note_on_c, 0, 82, 60
1, 54472, Note_on_c, 0, 82, 0
1, 54484, Control_c, 0, 64, 0
1, 54512, Note_on_c, 0, 77, 60
1, 54580, Note_on_c, 0, 77, 0
1, 54604, Note_on_c, 0, 73, 54
1, 54680, Note_on_c, 0, 73, 0
1, 54724, Note_on_c, 0, 72, 41
1, 54784, Note_on_c, 0, 72, 0
1, 54840, Note_on_c, 0, 70, 50
1, 54928, Note_on_c, 0, 70, 0
1, 54968, Note_on_c, 0, 66, 59
1, 55040, Note_on_c, 0, 66, 0
1, 55080, Note_on_c, 0, 65, 45
1, 55172, Note_on_c, 0, 65, 0
1, 55184, Note_on_c, 0, 60, 52
1, 55260, Note_on_c, 0, 60, 0
1, 55372, Note_on_c, 0, 61, 55
1, 55964, Note_on_c, 0, 60, 53
1, 55968, Note_on_c, 0, 61, 0
1, 56104, Note_on_c, 0, 60, 0
1, 56112, Note_on_c, 0, 48, 42
1, 56208, Note_on_c, 0, 48, 0
1, 56260, Note_on_c, 0, 36, 49
1, 56300, Note_on_c, 0, 36, 0
1, 56420, Note_on_c, 0, 58, 59
1, 56456, Control_c, 0, 64, 127
1, 56568, Note_on_c, 0, 58, 0
1, 56568, Note_on_c, 0, 55, 48
1, 56704, Control_c, 0, 64, 0
1, 56720, Note_on_c, 0, 55, 0
1, 56744, Note_on_c, 0, 24, 43
1, 56744, Note_on_c, 0, 61, 54
1, 56808, Control_c, 0, 64, 127
1, 56916, Note_on_c, 0, 24, 0
1, 57212, Note_on_c, 0, 61, 0
1, 57740, Note_on_c, 0, 85, 73
1, 57972, Note_on_c, 0, 85, 0
1, 58020, Note_on_c, 0, 84, 63
1, 58020, Note_on_c, 0, 58, 40
1, 58036, Note_on_c, 0, 48, 37
1, 58048, Control_c, 0, 64, 0
1, 58116, Control_c, 0, 64, 127
1, 58236, Note_on_c, 0, 58, 0
1, 58248, Note_on_c, 0, 48, 0
1, 58276, Note_on_c, 0, 84, 0
1, 58300, Note_on_c, 0, 82, 66
1, 58540, Note_on_c, 0, 82, 0
1, 58604, Note_on_c, 0, 80, 66
1, 58616, Note_on_c, 0, 41, 44
1, 58620, Control_c, 0, 64, 0
1, 58684, Control_c, 0, 64, 127
1, 58800, Note_on_c, 0, 80, 0
1, 58852, Note_on_c, 0, 81, 63
1, 58852, Note_on_c, 0, 48, 48
1, 58908, Note_on_c, 0, 81, 0
1, 58912, Note_on_c, 0, 41, 0
1, 59068, Note_on_c, 0, 48, 0
1, 59092, Note_on_c, 0, 57, 60
1, 59188, Note_on_c, 0, 57, 0
1, 59348, Note_on_c, 0, 58, 81
1, 59584, Note_on_c, 0, 59, 72
1, 59592, Note_on_c, 0, 58, 0
1, 59624, Control_c, 0, 64, 0
1, 59632, Note_on_c, 0, 76, 85
1, 59636, Note_on_c, 0, 67, 85
1, 59636, Note_on_c, 0, 69, 81
1, 59636, Note_on_c, 0, 60, 74
1, 59640, Note_on_c, 0, 72, 63
1, 59668, Note_on_c, 0, 59, 0
1, 59708, Control_c, 0, 64, 127
1, 59772, Note_on_c, 0, 76, 0
1, 59776, Note_on_c, 0, 72, 0
1, 59796, Note_on_c, 0, 69, 0
1, 59808, Note_on_c, 0, 67, 0
1, 59820, Note_on_c, 0, 60, 0
1, 59880, Control_c, 0, 64, 0
1, 59896, Note_on_c, 0, 72, 75
1, 59908, Note_on_c, 0, 57, 63
1, 59908, Note_on_c, 0, 64, 70
1, 59908, Note_on_c, 0, 67, 77
1, 59936, Control_c, 0, 64, 127
1, 59980, Note_on_c, 0, 67, 0
1, 59988, Note_on_c, 0, 72, 0
1, 60028, Note_on_c, 0, 64, 0
1, 60140, Note_on_c, 0, 57, 0
1, 60140, Note_on_c, 0, 69, 54
1, 60148, Note_on_c, 0, 52, 66
1, 60152, Note_on_c, 0, 60, 34
1, 60156, Note_on_c, 0, 64, 49
1, 60248, Note_on_c, 0, 64, 0
1, 60252, Note_on_c, 0, 60, 0
1, 60264, Note_on_c, 0, 69, 0
1, 60372, Note_on_c, 0, 45, 66
1, 60400, Note_on_c, 0, 52, 0
1, 60488, Note_on_c, 0, 45, 0
1, 60640, Control_c, 0, 64, 0
1, 60640, Note_on_c, 0, 63, 61
1, 60640, Note_on_c, 0, 55, 65
1, 60648, Note_on_c, 0, 60, 60
1, 60648, Note_on_c, 0, 45, 58
1, 60848, Note_on_c, 0, 45, 0
1, 60900, Note_on_c, 0, 40, 55
1, 60928, Note_on_c, 0, 40, 0
1, 61124, Note_on_c, 0, 36, 51
1, 61188, Note_on_c, 0, 36, 0
1, 61300, Control_c, 0, 64, 127
1, 61328, Note_on_c, 0, 27, 57
1, 61360, Note_on_c, 0, 55, 0
1, 61484, Note_on_c, 0, 63, 0
1, 61500, Note_on_c, 0, 27, 0
1, 61500, Control_c, 0, 64, 0
1, 61536, Note_on_c, 0, 60, 0
1, 61552, Note_on_c, 0, 54, 61
1, 61560, Note_on_c, 0, 26, 58
1, 61636, Note_on_c, 0, 26, 0
1, 61792, Note_on_c, 0, 54, 0
1, 61828, Note_on_c, 0, 26, 72
1, 61840, Control_c, 0, 64, 127
1, 61876, Note_on_c, 0, 26, 0
1, 62180, Note_on_c, 0, 66, 63
1, 62184, Note_on_c, 0, 63, 68
1, 62188, Note_on_c, 0, 74, 79
1, 62188, Control_c, 0, 64, 0
1, 62200, Note_on_c, 0, 64, 56
1, 62204, Note_on_c, 0, 69, 42
1, 62224, Note_on_c, 0, 64, 0
1, 62284, Control_c, 0, 64, 127
1, 62412, Note_on_c, 0, 74, 0
1, 62420, Note_on_c, 0, 69, 0
1, 62424, Note_on_c, 0, 63, 0
1, 62432, Note_on_c, 0, 66, 0
1, 62520, Note_on_c, 0, 63, 57
1, 62528, Note_on_c, 0, 66, 50
1, 62532, Note_on_c, 0, 72, 51
1, 62540, Note_on_c, 0, 60, 46
1, 62540, Note_on_c, 0, 69, 36
1, 62568, Note_on_c, 0, 60, 0
1, 62628, Note_on_c, 0, 72, 0
1, 62660, Note_on_c, 0, 69, 0
1, 62844, Note_on_c, 0, 63, 0
1, 62952, Note_on_c, 0, 66, 0
1, 63100, Control_c, 0, 64, 0
1, 63140, Note_on_c, 0, 73, 72
1, 63144, Note_on_c, 0, 65, 72
1, 63148, Note_on_c, 0, 62, 66
1, 63156, Note_on_c, 0, 43, 57
1, 63164, Note_on_c, 0, 53, 46
1, 63164, Note_on_c, 0, 69, 46
1, 63192, Control_c, 0, 64, 127
1, 63216, Note_on_c, 0, 43, 0
1, 63244, Note_on_c, 0, 65, 0
1, 63244, Note_on_c, 0, 62, 0
1, 63260, Note_on_c, 0, 53, 0
1, 63260, Note_on_c, 0, 69, 0
1, 63336, Note_on_c, 0, 73, 0
1, 63452, Note_on_c, 0, 74, 82
1, 63456, Note_on_c, 0, 65, 77
1, 63456, Note_on_c, 0, 59, 57
1, 63464, Note_on_c, 0, 53, 49
1, 63476, Note_on_c, 0, 69, 43
1, 63508, Note_on_c, 0, 69, 0
1, 63520, Note_on_c, 0, 59, 0
1, 63532, Note_on_c, 0, 74, 0
1, 63548, Note_on_c, 0, 65, 0
1, 63568, Note_on_c, 0, 53, 0
1, 63828, Note_on_c, 0, 49, 55
1, 63832, Control_c, 0, 64, 0
1, 63840, Note_on_c, 0, 58, 52
1, 63840, Note_on_c, 0, 55, 57
1, 63840, Note_on_c, 0, 62, 60
1, 63844, Note_on_c, 0, 53, 62
1, 63844, Note_on_c, 0, 50, 61
1, 63908, Note_on_c, 0, 49, 0
1, 63908, Control_c, 0, 64, 127
1, 63968, Note_on_c, 0, 55, 0
1, 63976, Note_on_c, 0, 62, 0
1, 64008, Note_on_c, 0, 53, 0
1, 64012, Note_on_c, 0, 58, 0
1, 64124, Note_on_c, 0, 50, 0
1, 64172, Note_on_c, 0, 65, 73
1, 64176, Note_on_c, 0, 53, 58
1, 64180, Control_c, 0, 64, 0
1, 64212, Note_on_c, 0, 60, 39
1, 64236, Control_c, 0, 64, 127
1, 64268, Note_on_c, 0, 60, 0
1, 64292, Note_on_c, 0, 65, 0
1, 64360, Note_on_c, 0, 53, 0
1, 64456, Note_on_c, 0, 55, 61
1, 64480, Control_c, 0, 64, 0
1, 64492, Note_on_c, 0, 69, 67
1, 64492, Note_on_c, 0, 58, 61
1, 64500, Note_on_c, 0, 57, 57
1, 64500, Note_on_c, 0, 62, 55
1, 64516, Note_on_c, 0, 65, 47
1, 64548, Note_on_c, 0, 55, 0
1, 64624, Control_c, 0, 64, 127
1, 64768, Note_on_c, 0, 69, 0
1, 64844, Note_on_c, 0, 69, 59
1, 64880, Note_on_c, 0, 57, 0
1, 65088, Note_on_c, 0, 69, 0
1, 65100, Note_on_c, 0, 62, 0
1, 65100, Note_on_c, 0, 65, 0
1, 65128, Note_on_c, 0, 58, 0
1, 65348, Control_c, 0, 64, 0
1, 65352, Note_on_c, 0, 58, 41
1, 65356, Note_on_c, 0, 69, 52
1, 65364, Note_on_c, 0, 36, 39
1, 65372, Note_on_c, 0, 61, 39
1, 65384, Note_on_c, 0, 52, 31
1, 65396, Note_on_c, 0, 64, 38
1, 65460, Control_c, 0, 64, 127
1, 65920, Note_on_c, 0, 69, 0
1, 65924, Note_on_c, 0, 58, 0
1, 65960, Note_on_c, 0, 64, 0
1, 66008, Note_on_c, 0, 61, 0
1, 66168, Note_on_c, 0, 60, 51
1, 66212, Note_on_c, 0, 60, 0
1, 66272, Control_c, 0, 64, 0
1, 66280, Note_on_c, 0, 36, 0
1, 66280, Note_on_c, 0, 62, 43
1, 66492, Note_on_c, 0, 62, 0
1, 66504, Note_on_c, 0, 65, 63
1, 66536, Control_c, 0, 64, 127
1, 66540, Note_on_c, 0, 52, 0
1, 66624, Control_c, 0, 64, 0
1, 66772, Note_on_c, 0, 46, 31
1, 66780, Note_on_c, 0, 60, 45
1, 66812, Note_on_c, 0, 65, 0
1, 66816, Note_on_c, 0, 46, 0
1, 66828, Note_on_c, 0, 47, 40
1, 66840, Note_on_c, 0, 48, 44
1, 66856, Note_on_c, 0, 60, 0
1, 66856, Note_on_c, 0, 47, 0
1, 66896, Note_on_c, 0, 62, 34
1, 67088, Note_on_c, 0, 62, 0
1, 67104, Note_on_c, 0, 65, 54
1, 67372, Note_on_c, 0, 46, 39
1, 67388, Note_on_c, 0, 60, 43
1, 67408, Note_on_c, 0, 48, 0
1, 67436, Note_on_c, 0, 65, 0
1, 67444, Note_on_c, 0, 46, 0
1, 67448, Note_on_c, 0, 47, 46
1, 67452, Note_on_c, 0, 60, 0
1, 67468, Note_on_c, 0, 48, 35
1, 67488, Note_on_c, 0, 47, 0
1, 67488, Note_on_c, 0, 62, 41
1, 67692, Note_on_c, 0, 65, 63
1, 67712, Note_on_c, 0, 62, 0
1, 67940, Note_on_c, 0, 46, 49
1, 67952, Note_on_c, 0, 48, 0
1, 67988, Note_on_c, 0, 60, 46
1, 68004, Note_on_c, 0, 47, 41
1, 68012, Note_on_c, 0, 65, 0
1, 68012, Note_on_c, 0, 46, 0
1, 68028, Note_on_c, 0, 48, 48
1, 68036, Note_on_c, 0, 47, 0
1, 68040, Note_on_c, 0, 60, 0
1, 68088, Note_on_c, 0, 62, 30
1, 68232, Note_on_c, 0, 48, 0
1, 68256, Note_on_c, 0, 42, 39
1, 68272, Note_on_c, 0, 65, 61
1, 68276, Note_on_c, 0, 44, 41
1, 68292, Note_on_c, 0, 42, 0
1, 68304, Note_on_c, 0, 62, 0
1, 68320, Note_on_c, 0, 44, 0
1, 68328, Note_on_c, 0, 45, 41
1, 68584, Note_on_c, 0, 45, 0
1, 68584, Note_on_c, 0, 42, 46
1, 68628, Note_on_c, 0, 42, 0
1, 68664, Note_on_c, 0, 65, 0
1, 68680, Note_on_c, 0, 44, 45
1, 68900, Note_on_c, 0, 42, 43
1, 68928, Note_on_c, 0, 44, 0
1, 68932, Note_on_c, 0, 42, 0
1, 68976, Note_on_c, 0, 43, 48
1, 68976, Note_on_c, 0, 73, 58
1, 69056, Note_on_c, 0, 72, 47
1, 69100, Note_on_c, 0, 73, 0
1, 69172, Note_on_c, 0, 72, 0
1, 69216, Note_on_c, 0, 61, 53
1, 69240, Note_on_c, 0, 61, 0
1, 69260, Note_on_c, 0, 43, 0
1, 69284, Note_on_c, 0, 38, 43
1, 69540, Note_on_c, 0, 38, 0
1, 69592, Note_on_c, 0, 34, 35
1, 69904, Note_on_c, 0, 34, 0
1, 69924, Note_on_c, 0, 35, 50
1, 70144, Note_on_c, 0, 34, 46
1, 70204, Note_on_c, 0, 35, 0
1, 70224, Note_on_c, 0, 34, 0
1, 70232, Note_on_c, 0, 36, 61
1, 70256, Note_on_c, 0, 48, 80
1, 70452, Note_on_c, 0, 48, 0
1, 70484, Note_on_c, 0, 48, 68
1, 70528, Note_on_c, 0, 48, 0
1, 70548, Note_on_c, 0, 24, 55
1, 70636, Note_on_c, 0, 36, 0
1, 70788, Note_on_c, 0, 31, 45
1, 70820, Note_on_c, 0, 31, 0
1, 70848, Note_on_c, 0, 36, 57
1, 70868, Note_on_c, 0, 24, 0
1, 71112, Note_on_c, 0, 27, 57
1, 71128, Note_on_c, 0, 36, 0
1, 71180, Note_on_c, 0, 27, 0
1, 71184, Note_on_c, 0, 62, 79
1, 71184, Note_on_c, 0, 70, 79
1, 71200, Note_on_c, 0, 28, 58
1, 71412, Note_on_c, 0, 70, 0
1, 71420, Note_on_c, 0, 62, 0
1, 71424, Note_on_c, 0, 27, 43
1, 71476, Note_on_c, 0, 28, 0
1, 71484, Note_on_c, 0, 27, 0
1, 71500, Note_on_c, 0, 29, 48
1, 71556, Note_on_c, 0, 68, 41
1, 71564, Note_on_c, 0, 60, 39
1, 71764, Note_on_c, 0, 60, 0
1, 71780, Note_on_c, 0, 29, 0
1, 71820, Note_on_c, 0, 33, 50
1, 71824, Note_on_c, 0, 68, 0
1, 71824, Note_on_c, 0, 60, 68
1, 71836, Note_on_c, 0, 69, 61
1, 72020, Note_on_c, 0, 32, 46
1, 72084, Note_on_c, 0, 33, 0
1, 72128, Note_on_c, 0, 32, 0
1, 72128, Note_on_c, 0, 40, 68
1, 72136, Note_on_c, 0, 69, 0
1, 72176, Note_on_c, 0, 60, 0
1, 72388, Note_on_c, 0, 37, 49
1, 72404, Note_on_c, 0, 40, 0
1, 72460, Note_on_c, 0, 38, 63
1, 72468, Note_on_c, 0, 37, 0
1, 72708, Note_on_c, 0, 34, 52
1, 72716, Note_on_c, 0, 38, 0
1, 72764, Note_on_c, 0, 34, 0
1, 72780, Note_on_c, 0, 36, 60
1, 73016, Note_on_c, 0, 64, 56
1, 73020, Note_on_c, 0, 60, 56
1, 73020, Note_on_c, 0, 57, 60
1, 73028, Note_on_c, 0, 55, 57
1, 73052, Note_on_c, 0, 36, 0
1, 73060, Note_on_c, 0, 33, 57
1, 73400, Note_on_c, 0, 33, 0
1, 73464, Note_on_c, 0, 32, 78
1, 73512, Note_on_c, 0, 64, 0
1, 73544, Note_on_c, 0, 55, 0
1, 73552, Note_on_c, 0, 57, 0
1, 73724, Note_on_c, 0, 60, 0
1, 73756, Note_on_c, 0, 32, 0
1, 73776, Note_on_c, 0, 30, 58
1, 73776, Note_on_c, 0, 54, 64
1, 73776, Note_on_c, 0, 63, 59
1, 73784, Note_on_c, 0, 58, 61
1, 73788, Note_on_c, 0, 60, 43
1, 73972, Note_on_c, 0, 63, 0
1, 73980, Note_on_c, 0, 58, 0
1, 73992, Note_on_c, 0, 54, 0
1, 73992, Note_on_c, 0, 60, 0
1, 74016, Note_on_c, 0, 62, 63
1, 74024, Note_on_c, 0, 53, 63
1, 74036, Note_on_c, 0, 58, 60
1, 74040, Note_on_c, 0, 30, 0
1, 74056, Note_on_c, 0, 31, 56
1, 74080, Note_on_c, 0, 53, 0
1, 74108, Note_on_c, 0, 58, 0
1, 74128, Note_on_c, 0, 62, 0
1, 74324, Note_on_c, 0, 31, 0
1, 74328, Note_on_c, 0, 69, 80
1, 74328, Note_on_c, 0, 58, 85
1, 74328, Note_on_c, 0, 62, 76
1, 74344, Note_on_c, 0, 65, 56
1, 74364, Note_on_c, 0, 34, 43
1, 74400, Note_on_c, 0, 58, 0
1, 74420, Note_on_c, 0, 69, 0
1, 74428, Note_on_c, 0, 62, 0
1, 74432, Note_on_c, 0, 65, 0
1, 74460, Note_on_c, 0, 58, 46
1, 74484, Note_on_c, 0, 69, 31
1, 74488, Note_on_c, 0, 62, 39
1, 74508, Note_on_c, 0, 65, 31
1, 74556, Note_on_c, 0, 69, 0
1, 74580, Note_on_c, 0, 58, 0
1, 74588, Note_on_c, 0, 65, 0
1, 74596, Note_on_c, 0, 62, 0
1, 74632, Note_on_c, 0, 38, 62
1, 74664, Note_on_c, 0, 58, 70
1, 74668, Note_on_c, 0, 69, 62
1, 74668, Note_on_c, 0, 62, 60
1, 74680, Note_on_c, 0, 65, 45
1, 74724, Note_on_c, 0, 58, 0
1, 74724, Note_on_c, 0, 43, 49
1, 74736, Note_on_c, 0, 69, 0
1, 74744, Note_on_c, 0, 38, 0
1, 74752, Note_on_c, 0, 34, 0
1, 74756, Note_on_c, 0, 62, 0
1, 74776, Note_on_c, 0, 65, 0
1, 74820, Note_on_c, 0, 58, 38
1, 74860, Note_on_c, 0, 68, 24
1, 74964, Note_on_c, 0, 58, 0
1, 74988, Note_on_c, 0, 68, 0
1, 75048, Note_on_c, 0, 43, 0
1, 75072, Note_on_c, 0, 34, 54
1, 75072, Note_on_c, 0, 58, 57
1, 75264, Note_on_c, 0, 58, 0
1, 75304, Note_on_c, 0, 35, 48
1, 75332, Note_on_c, 0, 34, 0
1, 75372, Note_on_c, 0, 35, 0
1, 75376, Note_on_c, 0, 36, 49
1, 75396, Note_on_c, 0, 58, 58
1, 75404, Note_on_c, 0, 69, 57
1, 75412, Note_on_c, 0, 68, 21
1, 75416, Note_on_c, 0, 61, 46
1, 75432, Note_on_c, 0, 64, 42
1, 75524, Note_on_c, 0, 68, 0
1, 75532, Note_on_c, 0, 69, 0
1, 75552, Note_on_c, 0, 58, 0
1, 75560, Note_on_c, 0, 61, 0
1, 75560, Note_on_c, 0, 64, 0
1, 75616, Note_on_c, 0, 58, 56
1, 75624, Note_on_c, 0, 24, 60
1, 75624, Note_on_c, 0, 69, 48
1, 75624, Note_on_c, 0, 61, 54
1, 75652, Note_on_c, 0, 64, 39
1, 75684, Note_on_c, 0, 69, 0
1, 75688, Note_on_c, 0, 58, 0
1, 75688, Note_on_c, 0, 64, 0
1, 75696, Note_on_c, 0, 61, 0
1, 75708, Control_c, 0, 64, 127
1, 75732, Note_on_c, 0, 58, 39
1, 75748, Note_on_c, 0, 69, 48
1, 75768, Note_on_c, 0, 61, 26
1, 75840, Note_on_c, 0, 61, 0
1, 75840, Control_c, 0, 64, 0
1, 75844, Note_on_c, 0, 36, 0
1, 75844, Note_on_c, 0, 69, 0
1, 75848, Note_on_c, 0, 58, 0
1, 75940, Note_on_c, 0, 69, 55
1, 75944, Note_on_c, 0, 58, 45
1, 75952, Note_on_c, 0, 68, 30
1, 75960, Note_on_c, 0, 61, 41
1, 75992, Note_on_c, 0, 64, 29
1, 75996, Note_on_c, 0, 68, 0
1, 75996, Note_on_c, 0, 61, 0
1, 76004, Note_on_c, 0, 69, 0
1, 76016, Note_on_c, 0, 58, 0
1, 76028, Note_on_c, 0, 64, 0
1, 76076, Note_on_c, 0, 24, 0
1, 76076, Note_on_c, 0, 58, 37
1, 76076, Note_on_c, 0, 36, 48
1, 76096, Note_on_c, 0, 67, 37
1, 76124, Note_on_c, 0, 61, 26
1, 76172, Note_on_c, 0, 58, 0
1, 76204, Note_on_c, 0, 67, 0
1, 76204, Note_on_c, 0, 61, 0
1, 76380, Control_c, 0, 64, 127
1, 76384, Note_on_c, 0, 24, 57
1, 76400, Note_on_c, 0, 65, 61
1, 76404, Note_on_c, 0, 58, 51
1, 76412, Note_on_c, 0, 36, 0
1, 76540, Note_on_c, 0, 65, 0
1, 76556, Note_on_c, 0, 58, 0
1, 76672, Control_c, 0, 64, 0
1, 76708, Note_on_c, 0, 36, 76
1, 76760, Note_on_c, 0, 24, 0
1, 76936, Note_on_c, 0, 53, 90
1, 76944, Note_on_c, 0, 62, 78
1, 76944, Note_on_c, 0, 60, 79
1, 76948, Note_on_c, 0, 57, 78
1, 77020, Note_on_c, 0, 24, 48
1, 77052, Control_c, 0, 64, 127
1, 77080, Note_on_c, 0, 24, 0
1, 77132, Note_on_c, 0, 36, 0
1, 77320, Control_c, 0, 64, 0
1, 77400, Note_on_c, 0, 50, 98
1, 77624, Note_on_c, 0, 49, 83
1, 77652, Note_on_c, 0, 50, 0
1, 77748, Note_on_c, 0, 48, 61
1, 77752, Note_on_c, 0, 49, 0
1, 78056, Note_on_c, 0, 48, 0
1, 78072, Note_on_c, 0, 45, 61
1, 78368, Note_on_c, 0, 45, 0
1, 78396, Note_on_c, 0, 41, 62
1, 78696, Note_on_c, 0, 41, 0
1, 78716, Note_on_c, 0, 44, 63
1, 78764, Note_on_c, 0, 53, 0
1, 78768, Note_on_c, 0, 57, 0
1, 78816, Note_on_c, 0, 62, 0
1, 78912, Note_on_c, 0, 60, 0
1, 78948, Note_on_c, 0, 44, 0
1, 78948, Note_on_c, 0, 39, 42
1, 79032, Note_on_c, 0, 39, 0
1, 79044, Note_on_c, 0, 42, 58
1, 79276, Note_on_c, 0, 72, 102
1, 79284, Note_on_c, 0, 42, 0
1, 79312, Note_on_c, 0, 43, 52
1, 79356, Note_on_c, 0, 72, 0
1, 79412, Note_on_c, 0, 70, 54
1, 79616, Note_on_c, 0, 61, 57
1, 79636, Note_on_c, 0, 43, 0
1, 79636, Note_on_c, 0, 70, 0
1, 79660, Note_on_c, 0, 37, 41
1, 79692, Note_on_c, 0, 61, 0
1, 79748, Note_on_c, 0, 60, 37
1, 79872, Note_on_c, 0, 60, 0
1, 79932, Note_on_c, 0, 58, 51
1, 79996, Note_on_c, 0, 37, 0
1, 80004, Note_on_c, 0, 31, 42
1, 80028, Note_on_c, 0, 58, 0
1, 80064, Note_on_c, 0, 49, 69
1, 80084, Note_on_c, 0, 58, 20
1, 80260, Note_on_c, 0, 58, 0
1, 80288, Note_on_c, 0, 49, 0
1, 80300, Note_on_c, 0, 31, 0
1, 80336, Note_on_c, 0, 34, 50
1, 80580, Note_on_c, 0, 34, 0
1, 80588, Note_on_c, 0, 35, 43
1, 80664, Note_on_c, 0, 35, 0
1, 80688, Note_on_c, 0, 36, 49
1, 80908, Note_on_c, 0, 31, 47
1, 80944, Note_on_c, 0, 31, 0
1, 80944, Note_on_c, 0, 48, 82
1, 81020, Note_on_c, 0, 48, 0
1, 81020, Note_on_c, 0, 24, 41
1, 81048, Note_on_c, 0, 47, 56
1, 81080, Note_on_c, 0, 47, 0
1, 81132, Note_on_c, 0, 36, 0
1, 81148, Note_on_c, 0, 48, 60
1, 81228, Note_on_c, 0, 48, 0
1, 81240, Note_on_c, 0, 56, 77
1, 81300, Note_on_c, 0, 36, 48
1, 81304, Note_on_c, 0, 57, 42
1, 81336, Note_on_c, 0, 57, 0
1, 81348, Note_on_c, 0, 48, 42
1, 81376, Note_on_c, 0, 56, 0
1, 81448, Note_on_c, 0, 24, 0
1, 81476, Note_on_c, 0, 48, 0
1, 81480, Note_on_c, 0, 47, 68
1, 81532, Note_on_c, 0, 47, 0
1, 81572, Note_on_c, 0, 48, 78
1, 81584, Note_on_c, 0, 36, 0
1, 81584, Note_on_c, 0, 31, 48
1, 81604, Note_on_c, 0, 48, 0
1, 81652, Note_on_c, 0, 57, 73
1, 81688, Note_on_c, 0, 54, 33
1, 81732, Note_on_c, 0, 54, 0
1, 81760, Note_on_c, 0, 57, 0
1, 81764, Note_on_c, 0, 48, 40
1, 81788, Note_on_c, 0, 31, 0
1, 81840, Note_on_c, 0, 28, 46
1, 81872, Note_on_c, 0, 48, 0
1, 81888, Note_on_c, 0, 47, 55
1, 81912, Note_on_c, 0, 47, 0
1, 81916, Note_on_c, 0, 28, 0
1, 81928, Note_on_c, 0, 29, 49
1, 81984, Note_on_c, 0, 57, 58
1, 82008, Note_on_c, 0, 59, 38
1, 82044, Note_on_c, 0, 59, 0
1, 82124, Note_on_c, 0, 29, 0
1, 82172, Note_on_c, 0, 57, 0
1, 82216, Note_on_c, 0, 48, 48
1, 82232, Note_on_c, 0, 50, 33
1, 82244, Note_on_c, 0, 48, 0
1, 82268, Note_on_c, 0, 50, 0
1, 82280, Note_on_c, 0, 36, 38
1, 82480, Note_on_c, 0, 34, 54
1, 82524, Note_on_c, 0, 34, 0
1, 82548, Note_on_c, 0, 36, 0
1, 82592, Note_on_c, 0, 45, 60
1, 82896, Note_on_c, 0, 45, 0
1, 82900, Note_on_c, 0, 44, 58
1, 83068, Note_on_c, 0, 44, 0
1, 83108, Note_on_c, 0, 44, 51
1, 83188, Note_on_c, 0, 44, 0
1, 83224, Note_on_c, 0, 47, 54
1, 83484, Note_on_c, 0, 47, 0
1, 83528, Note_on_c, 0, 41, 44
1, 83752, Note_on_c, 0, 62, 115
1, 83768, Note_on_c, 0, 41, 0
1, 83784, Note_on_c, 0, 39, 46
1, 83888, Note_on_c, 0, 39, 0
1, 83892, Note_on_c, 0, 59, 55
1, 83900, Note_on_c, 0, 62, 0
1, 83912, Note_on_c, 0, 40, 46
1, 84056, Note_on_c, 0, 59, 0
1, 84096, Note_on_c, 0, 60, 68
1, 84208, Note_on_c, 0, 32, 31
1, 84236, Note_on_c, 0, 61, 58
1, 84244, Note_on_c, 0, 60, 0
1, 84372, Note_on_c, 0, 61, 0
1, 84420, Note_on_c, 0, 32, 0
1, 84420, Note_on_c, 0, 62, 85
1, 84436, Note_on_c, 0, 40, 0
1, 84448, Note_on_c, 0, 33, 57
1, 84532, Note_on_c, 0, 62, 0
1, 84580, Note_on_c, 0, 64, 82
1, 84692, Note_on_c, 0, 64, 0
1, 84744, Note_on_c, 0, 61, 68
1, 84764, Note_on_c, 0, 33, 0
1, 84796, Note_on_c, 0, 40, 45
1, 84856, Note_on_c, 0, 61, 0
1, 84880, Note_on_c, 0, 56, 37
1, 85048, Note_on_c, 0, 56, 0
1, 85076, Note_on_c, 0, 52, 39
1, 85100, Note_on_c, 0, 45, 36
1, 85104, Note_on_c, 0, 40, 0
1, 85172, Note_on_c, 0, 52, 0
1, 85200, Note_on_c, 0, 49, 53
1, 85392, Note_on_c, 0, 49, 0
1, 85488, Note_on_c, 0, 40, 49
1, 85496, Note_on_c, 0, 45, 0
1, 85780, Note_on_c, 0, 40, 0
1, 85804, Note_on_c, 0, 35, 50
1, 85812, Note_on_c, 0, 66, 94
1, 85948, Note_on_c, 0, 66, 0
1, 86020, Note_on_c, 0, 62, 68
1, 86032, Note_on_c, 0, 42, 45
1, 86056, Note_on_c, 0, 35, 0
1, 86088, Note_on_c, 0, 62, 0
1, 86188, Note_on_c, 0, 57, 27
1, 86324, Note_on_c, 0, 54, 55
1, 86336, Note_on_c, 0, 42, 0
1, 86344, Note_on_c, 0, 47, 41
1, 86348, Note_on_c, 0, 57, 0
1, 86384, Note_on_c, 0, 54, 0
1, 86460, Note_on_c, 0, 64, 89
1, 86468, Note_on_c, 0, 40, 61
1, 86612, Note_on_c, 0, 64, 0
1, 86616, Note_on_c, 0, 47, 0
1, 86656, Note_on_c, 0, 56, 67
1, 86680, Note_on_c, 0, 40, 0
1, 86684, Note_on_c, 0, 46, 49
1, 86744, Note_on_c, 0, 56, 0
1, 86824, Note_on_c, 0, 52, 36
1, 86940, Note_on_c, 0, 52, 0
1, 86956, Note_on_c, 0, 44, 49
1, 86980, Note_on_c, 0, 62, 69
1, 86996, Note_on_c, 0, 46, 0
1, 87012, Note_on_c, 0, 44, 0
1, 87048, Note_on_c, 0, 45, 41
1, 87072, Note_on_c, 0, 62, 0
1, 87156, Note_on_c, 0, 61, 49
1, 87276, Note_on_c, 0, 61, 0
1, 87312, Note_on_c, 0, 56, 65
1, 87364, Note_on_c, 0, 33, 39
1, 87368, Note_on_c, 0, 45, 0
1, 87400, Note_on_c, 0, 56, 0
1, 87440, Note_on_c, 0, 52, 45
1, 87580, Note_on_c, 0, 52, 0
1, 87636, Note_on_c, 0, 49, 46
1, 87648, Note_on_c, 0, 33, 0
1, 87676, Note_on_c, 0, 49, 0
1, 87684, Note_on_c, 0, 40, 42
1, 87748, Note_on_c, 0, 47, 52
1, 87948, Note_on_c, 0, 47, 0
1, 88048, Note_on_c, 0, 44, 56
1, 88092, Note_on_c, 0, 40, 0
1, 88308, Note_on_c, 0, 40, 40
1, 88328, Note_on_c, 0, 44, 0
1, 88376, Note_on_c, 0, 40, 0
1, 88384, Note_on_c, 0, 45, 60
1, 88672, Note_on_c, 0, 45, 0
1, 88684, Note_on_c, 0, 44, 57
1, 88916, Note_on_c, 0, 42, 40
1, 88964, Note_on_c, 0, 42, 0
1, 88992, Note_on_c, 0, 44, 0
1, 89000, Note_on_c, 0, 45, 50
1, 89020, Note_on_c, 0, 49, 63
1, 89136, Note_on_c, 0, 49, 0
1, 89140, Note_on_c, 0, 50, 57
1, 89216, Note_on_c, 0, 50, 0
1, 89252, Note_on_c, 0, 51, 60
1, 89272, Note_on_c, 0, 45, 0
1, 89280, Note_on_c, 0, 44, 46
1, 89324, Note_on_c, 0, 51, 0
1, 89360, Note_on_c, 0, 52, 49
1, 89420, Note_on_c, 0, 52, 0
1, 89532, Note_on_c, 0, 54, 54
1, 89532, Note_on_c, 0, 42, 41
1, 89552, Note_on_c, 0, 44, 0
1, 89596, Note_on_c, 0, 55, 70
1, 89604, Note_on_c, 0, 54, 0
1, 89632, Note_on_c, 0, 42, 0
1, 89652, Note_on_c, 0, 55, 0
1, 89668, Note_on_c, 0, 43, 52
1, 89680, Note_on_c, 0, 57, 88
1, 89812, Note_on_c, 0, 57, 0
1, 89816, Note_on_c, 0, 53, 66
1, 89912, Note_on_c, 0, 53, 0
1, 89952, Note_on_c, 0, 43, 0
1, 89964, Note_on_c, 0, 50, 58
1, 89988, Note_on_c, 0, 38, 39
1, 90036, Note_on_c, 0, 50, 0
1, 90088, Note_on_c, 0, 46, 39
1, 90176, Note_on_c, 0, 46, 0
1, 90192, Note_on_c, 0, 45, 46
1, 90228, Note_on_c, 0, 45, 0
1, 90280, Note_on_c, 0, 38, 0
1, 90284, Note_on_c, 0, 31, 47
1, 90292, Note_on_c, 0, 46, 48
1, 90316, Note_on_c, 0, 46, 0
1, 90388, Note_on_c, 0, 50, 45
1, 90420, Note_on_c, 0, 50, 0
1, 90516, Note_on_c, 0, 53, 37
1, 90536, Note_on_c, 0, 31, 0
1, 90548, Note_on_c, 0, 53, 0
1, 90548, Note_on_c, 0, 34, 33
1, 90568, Note_on_c, 0, 57, 58
1, 90592, Note_on_c, 0, 34, 0
1, 90604, Note_on_c, 0, 57, 0
1, 90624, Note_on_c, 0, 38, 43
1, 90632, Note_on_c, 0, 60, 79
1, 90700, Note_on_c, 0, 60, 0
1, 90740, Note_on_c, 0, 57, 40
1, 90792, Note_on_c, 0, 57, 0
1, 90808, Note_on_c, 0, 38, 0
1, 90844, Note_on_c, 0, 34, 41
1, 90844, Note_on_c, 0, 58, 46
1, 90868, Note_on_c, 0, 58, 0
1, 90912, Note_on_c, 0, 60, 67
1, 90924, Note_on_c, 0, 34, 0
1, 90940, Note_on_c, 0, 60, 0
1, 90948, Note_on_c, 0, 36, 44
1, 91012, Note_on_c, 0, 61, 43
1, 91068, Note_on_c, 0, 61, 0
1, 91096, Note_on_c, 0, 63, 43
1, 91124, Note_on_c, 0, 63, 0
1, 91168, Note_on_c, 0, 64, 66
1, 91224, Note_on_c, 0, 64, 0
1, 91252, Note_on_c, 0, 24, 54
1, 91256, Note_on_c, 0, 66, 57
1, 91280, Note_on_c, 0, 66, 0
1, 91284, Note_on_c, 0, 36, 0
1, 91328, Note_on_c, 0, 67, 53
1, 91360, Note_on_c, 0, 67, 0
1, 91448, Note_on_c, 0, 69, 38
1, 91484, Note_on_c, 0, 69, 0
1, 91492, Note_on_c, 0, 70, 54
1, 91528, Note_on_c, 0, 70, 0
1, 91540, Note_on_c, 0, 71, 54
1, 91580, Note_on_c, 0, 24, 0
1, 91596, Note_on_c, 0, 71, 0
1, 91616, Note_on_c, 0, 74, 117
1, 91636, Note_on_c, 0, 36, 55
1, 91724, Note_on_c, 0, 72, 82
1, 91736, Note_on_c, 0, 36, 0
1, 91824, Note_on_c, 0, 74, 0
1, 91852, Note_on_c, 0, 72, 0
1, 91892, Note_on_c, 0, 69, 78
1, 91976, Note_on_c, 0, 69, 0
1, 92036, Note_on_c, 0, 56, 21
1, 92184, Note_on_c, 0, 56, 0
1, 92208, Note_on_c, 0, 51, 46
1, 92224, Note_on_c, 0, 62, 41
1, 92252, Note_on_c, 0, 62, 0
1, 92296, Note_on_c, 0, 51, 0
1, 92304, Note_on_c, 0, 57, 58
1, 92312, Note_on_c, 0, 72, 59
1, 92312, Note_on_c, 0, 62, 62
1, 92324, Note_on_c, 0, 67, 60
1, 92328, Control_c, 0, 64, 127
1, 92396, Note_on_c, 0, 67, 0
1, 92400, Note_on_c, 0, 72, 0
1, 92456, Note_on_c, 0, 62, 0
1, 92472, Note_on_c, 0, 57, 0
1, 92512, Note_on_c, 0, 69, 72
1, 92528, Note_on_c, 0, 64, 56
1, 92532, Note_on_c, 0, 60, 48
1, 92568, Control_c, 0, 64, 0
1, 92572, Note_on_c, 0, 55, 49
1, 92596, Note_on_c, 0, 64, 0
1, 92612, Note_on_c, 0, 69, 0
1, 92636, Note_on_c, 0, 60, 0
1, 92688, Note_on_c, 0, 55, 0
1, 92712, Note_on_c, 0, 52, 36
1, 92832, Note_on_c, 0, 67, 69
1, 92844, Note_on_c, 0, 52, 0
1, 92844, Note_on_c, 0, 60, 72
1, 92856, Note_on_c, 0, 57, 52
1, 92884, Note_on_c, 0, 52, 38
1, 92900, Note_on_c, 0, 60, 0
1, 92912, Note_on_c, 0, 67, 0
1, 92936, Note_on_c, 0, 57, 0
1, 92988, Note_on_c, 0, 64, 61
1, 93004, Note_on_c, 0, 57, 49
1, 93012, Note_on_c, 0, 55, 39
1, 93132, Note_on_c, 0, 52, 0
1, 93148, Note_on_c, 0, 64, 0
1, 93156, Note_on_c, 0, 46, 50
1, 93160, Note_on_c, 0, 57, 0
1, 93188, Note_on_c, 0, 55, 0
1, 93228, Note_on_c, 0, 46, 0
1, 93252, Note_on_c, 0, 48, 55
1, 93268, Note_on_c, 0, 55, 49
1, 93268, Note_on_c, 0, 60, 57
1, 93440, Note_on_c, 0, 55, 0
1, 93452, Note_on_c, 0, 48, 0
1, 93480, Note_on_c, 0, 42, 46
1, 93552, Note_on_c, 0, 60, 0
1, 93564, Note_on_c, 0, 42, 0
1, 93580, Note_on_c, 0, 45, 55
1, 93596, Note_on_c, 0, 52, 48
1, 93596, Note_on_c, 0, 57, 49
1, 93596, Note_on_c, 0, 55, 41
1, 93800, Note_on_c, 0, 45, 0
1, 93816, Note_on_c, 0, 39, 66
1, 93928, Note_on_c, 0, 55, 0
1, 93932, Note_on_c, 0, 57, 0
1, 94016, Note_on_c, 0, 52, 0
1, 94136, Note_on_c, 0, 37, 43
1, 94168, Note_on_c, 0, 40, 83
1, 94172, Note_on_c, 0, 37, 0
1, 94200, Note_on_c, 0, 39, 0
1, 94468, Note_on_c, 0, 36, 68
1, 94480, Note_on_c, 0, 40, 0
1, 94576, Note_on_c, 0, 34, 63
1, 94580, Note_on_c, 0, 36, 0
1, 94808, Note_on_c, 0, 32, 60
1, 94828, Note_on_c, 0, 34, 0
1, 94888, Note_on_c, 0, 32, 0
1, 94928, Note_on_c, 0, 33, 54
1, 95136, Note_on_c, 0, 34, 45
1, 95156, Note_on_c, 0, 33, 0
1, 95156, Note_on_c, 0, 63, 86
1, 95168, Note_on_c, 0, 34, 0
1, 95168, Note_on_c, 0, 37, 36
1, 95204, Note_on_c, 0, 37, 0
1, 95224, Note_on_c, 0, 39, 54
1, 95276, Note_on_c, 0, 63, 0
1, 95300, Note_on_c, 0, 55, 43
1, 95428, Note_on_c, 0, 55, 0
1, 95488, Note_on_c, 0, 60, 72
1, 95524, Note_on_c, 0, 39, 0
1, 95552, Note_on_c, 0, 36, 44
1, 95588, Note_on_c, 0, 60, 0
1, 95640, Note_on_c, 0, 63, 57
1, 95716, Note_on_c, 0, 63, 0
1, 95800, Note_on_c, 0, 67, 74
1, 95804, Note_on_c, 0, 36, 0
1, 95852, Note_on_c, 0, 34, 39
1, 95884, Note_on_c, 0, 67, 0
1, 95948, Note_on_c, 0, 72, 58
1, 96060, Note_on_c, 0, 72, 0
1, 96112, Note_on_c, 0, 37, 68
1, 96120, Note_on_c, 0, 75, 87
1, 96140, Note_on_c, 0, 34, 0
1, 96220, Note_on_c, 0, 75, 0
1, 96240, Note_on_c, 0, 37, 0
1, 96248, Note_on_c, 0, 38, 66
1, 96260, Note_on_c, 0, 77, 99
1, 96384, Note_on_c, 0, 77, 0
1, 96448, Note_on_c, 0, 75, 83
1, 96476, Note_on_c, 0, 26, 55
1, 96492, Note_on_c, 0, 38, 0
1, 96552, Note_on_c, 0, 75, 0
1, 96612, Note_on_c, 0, 74, 51
1, 96712, Note_on_c, 0, 74, 0
1, 96780, Note_on_c, 0, 72, 71
1, 96804, Note_on_c, 0, 38, 48
1, 96884, Note_on_c, 0, 72, 0
1, 96936, Note_on_c, 0, 70, 53
1, 97020, Note_on_c, 0, 70, 0
1, 97096, Note_on_c, 0, 38, 0
1, 97100, Note_on_c, 0, 26, 0
1, 97104, Note_on_c, 0, 69, 75
1, 97136, Note_on_c, 0, 33, 44
1, 97196, Note_on_c, 0, 69, 0
1, 97244, Note_on_c, 0, 67, 47
1, 97340, Note_on_c, 0, 67, 0
1, 97424, Note_on_c, 0, 30, 57
1, 97432, Note_on_c, 0, 33, 0
1, 97520, Note_on_c, 0, 30, 0
1, 97536, Note_on_c, 0, 31, 48
1, 97548, Note_on_c, 0, 68, 73
1, 97716, Note_on_c, 0, 68, 0
1, 97736, Note_on_c, 0, 69, 59
1, 97812, Note_on_c, 0, 69, 0
1, 97852, Note_on_c, 0, 43, 57
1, 97856, Note_on_c, 0, 74, 102
1, 98004, Note_on_c, 0, 74, 0
1, 98064, Note_on_c, 0, 74, 82
1, 98068, Note_on_c, 0, 68, 86
1, 98076, Note_on_c, 0, 43, 0
1, 98112, Note_on_c, 0, 38, 48
1, 98168, Note_on_c, 0, 68, 0
1, 98196, Note_on_c, 0, 67, 42
1, 98304, Note_on_c, 0, 74, 0
1, 98360, Note_on_c, 0, 31, 0
1, 98360, Note_on_c, 0, 38, 0
1, 98388, Note_on_c, 0, 67, 0
1, 98404, Note_on_c, 0, 34, 42
1, 98404, Note_on_c, 0, 65, 68
1, 98464, Note_on_c, 0, 65, 0
1, 98528, Note_on_c, 0, 34, 0
1, 98528, Note_on_c, 0, 62, 31
1, 98528, Note_on_c, 0, 35, 39
1, 98732, Note_on_c, 0, 34, 41
1, 98756, Note_on_c, 0, 62, 0
1, 98804, Note_on_c, 0, 35, 0
1, 98808, Note_on_c, 0, 34, 0
1, 98820, Note_on_c, 0, 36, 56
1, 98828, Note_on_c, 0, 58, 57
1, 98832, Note_on_c, 0, 62, 43
1, 98840, Note_on_c, 0, 65, 49
1, 99040, Control_c, 0, 64, 127
1, 99052, Note_on_c, 0, 24, 77
1, 99076, Note_on_c, 0, 58, 0
1, 99092, Note_on_c, 0, 62, 0
1, 99112, Note_on_c, 0, 65, 0
1, 99120, Note_on_c, 0, 36, 0
1, 99172, Note_on_c, 0, 24, 0
1, 99520, Note_on_c, 0, 72, 88
1, 99524, Note_on_c, 0, 64, 87
1, 99524, Note_on_c, 0, 68, 81
1, 99528, Note_on_c, 0, 58, 84
1, 99728, Note_on_c, 0, 72, 0
1, 99728, Note_on_c, 0, 64, 0
1, 99764, Note_on_c, 0, 68, 0
1, 99764, Note_on_c, 0, 58, 0
1, 99824, Control_c, 0, 64, 0
1, 99848, Note_on_c, 0, 74, 88
1, 99852, Note_on_c, 0, 58, 80
1, 99852, Note_on_c, 0, 68, 87
1, 99860, Note_on_c, 0, 64, 73
1, 99880, Note_on_c, 0, 65, 49
1, 99896, Control_c, 0, 64, 127
1, 99904, Note_on_c, 0, 65, 0
1, 100024, Note_on_c, 0, 74, 0
1, 100052, Note_on_c, 0, 68, 0
1, 100056, Note_on_c, 0, 64, 0
1, 100080, Note_on_c, 0, 58, 0
1, 100176, Control_c, 0, 64, 0
1, 100180, Note_on_c, 0, 72, 81
1, 100188, Note_on_c, 0, 65, 79
1, 100192, Note_on_c, 0, 61, 81
1, 100196, Note_on_c, 0, 57, 78
1, 100476, Note_on_c, 0, 57, 0
1, 100484, Control_c, 0, 64, 127
1, 100524, Note_on_c, 0, 43, 58
1, 100556, Note_on_c, 0, 72, 0
1, 100556, Note_on_c, 0, 65, 0
1, 100588, Note_on_c, 0, 61, 0
1, 100868, Note_on_c, 0, 65, 72
1, 100872, Note_on_c, 0, 43, 0
1, 100872, Note_on_c, 0, 58, 76
1, 100872, Note_on_c, 0, 61, 72
1, 100888, Note_on_c, 0, 55, 66
1, 100916, Note_on_c, 0, 55, 0
1, 101164, Control_c, 0, 64, 0
1, 101188, Control_c, 0, 64, 127
1, 101328, Note_on_c, 0, 65, 0
1, 101348, Note_on_c, 0, 58, 0
1, 101372, Note_on_c, 0, 61, 0
1, 101436, Note_on_c, 0, 58, 65
1, 101436, Note_on_c, 0, 61, 56
1, 101456, Note_on_c, 0, 64, 55
1, 101460, Note_on_c, 0, 58, 0
1, 101468, Note_on_c, 0, 61, 0
1, 101472, Control_c, 0, 64, 0
1, 101480, Note_on_c, 0, 64, 0
1, 101540, Note_on_c, 0, 36, 46
1, 101560, Control_c, 0, 64, 127
1, 101584, Note_on_c, 0, 52, 34
1, 101604, Note_on_c, 0, 36, 0
1, 101668, Note_on_c, 0, 52, 0
1, 101776, Note_on_c, 0, 72, 75
1, 101788, Note_on_c, 0, 64, 58
1, 101788, Note_on_c, 0, 67, 56
1, 101812, Note_on_c, 0, 64, 0
1, 101812, Note_on_c, 0, 67, 0
1, 101836, Note_on_c, 0, 72, 0
1, 101880, Note_on_c, 0, 56, 50
1, 101908, Note_on_c, 0, 58, 32
1, 101956, Note_on_c, 0, 58, 0
1, 101980, Note_on_c, 0, 56, 0
1, 102100, Control_c, 0, 64, 0
1, 102108, Note_on_c, 0, 70, 82
1, 102112, Note_on_c, 0, 61, 84
1, 102120, Note_on_c, 0, 64, 75
1, 102132, Note_on_c, 0, 67, 60
1, 102136, Note_on_c, 0, 58, 67
1, 102200, Control_c, 0, 64, 127
1, 102480, Note_on_c, 0, 67, 0
1, 102484, Note_on_c, 0, 61, 0
1, 102492, Note_on_c, 0, 70, 0
1, 102496, Note_on_c, 0, 64, 0
1, 102504, Note_on_c, 0, 58, 0
1, 102516, Control_c, 0, 64, 0
1, 102544, Note_on_c, 0, 48, 56
1, 102548, Note_on_c, 0, 61, 57
1, 102564, Note_on_c, 0, 64, 57
1, 102568, Note_on_c, 0, 69, 57
1, 102604, Control_c, 0, 64, 127
1, 102648, Note_on_c, 0, 69, 0
1, 102656, Note_on_c, 0, 48, 0
1, 102664, Note_on_c, 0, 61, 0
1, 102668, Note_on_c, 0, 64, 0
1, 102860, Control_c, 0, 64, 0
1, 102892, Note_on_c, 0, 40, 50
1, 102896, Note_on_c, 0, 63, 60
1, 102900, Note_on_c, 0, 68, 56
1, 102900, Note_on_c, 0, 56, 54
1, 102900, Note_on_c, 0, 47, 50
1, 102956, Control_c, 0, 64, 127
1, 103032, Note_on_c, 0, 40, 0
1, 103052, Note_on_c, 0, 47, 0
1, 103092, Note_on_c, 0, 56, 0
1, 103112, Note_on_c, 0, 68, 0
1, 103116, Note_on_c, 0, 63, 0
1, 103196, Control_c, 0, 64, 0
1, 103240, Note_on_c, 0, 69, 65
1, 103244, Note_on_c, 0, 57, 60
1, 103248, Note_on_c, 0, 64, 58
1, 103252, Note_on_c, 0, 48, 56
1, 103256, Note_on_c, 0, 41, 49
1, 103268, Control_c, 0, 64, 127
1, 103344, Note_on_c, 0, 41, 0
1, 103356, Note_on_c, 0, 57, 0
1, 103368, Note_on_c, 0, 69, 0
1, 103372, Note_on_c, 0, 64, 0
1, 103568, Note_on_c, 0, 48, 0
1, 103584, Note_on_c, 0, 72, 75
1, 103592, Note_on_c, 0, 60, 67
1, 103592, Note_on_c, 0, 57, 61
1, 103592, Note_on_c, 0, 67, 66
1, 103652, Note_on_c, 0, 60, 0
1, 103684, Note_on_c, 0, 57, 0
1, 103704, Note_on_c, 0, 72, 0
1, 103704, Note_on_c, 0, 67, 0
1, 103920, Note_on_c, 0, 76, 89
1, 103924, Note_on_c, 0, 69, 86
1, 103924, Note_on_c, 0, 60, 70
1, 103928, Note_on_c, 0, 67, 82
1, 103932, Note_on_c, 0, 72, 61
1, 103968, Note_on_c, 0, 74, 26
1, 104020, Note_on_c, 0, 67, 0
1, 104044, Note_on_c, 0, 60, 0
1, 104048, Note_on_c, 0, 69, 0
1, 104060, Note_on_c, 0, 72, 0
1, 104072, Note_on_c, 0, 74, 0
1, 104080, Note_on_c, 0, 76, 0
1, 104252, Note_on_c, 0, 79, 85
1, 104256, Note_on_c, 0, 63, 84
1, 104256, Note_on_c, 0, 75, 75
1, 104256, Note_on_c, 0, 67, 89
1, 104256, Note_on_c, 0, 72, 74
1, 104256, Note_on_c, 0, 77, 89
1, 104260, Note_on_c, 0, 71, 82
1, 104264, Control_c, 0, 64, 0
1, 104280, Note_on_c, 0, 75, 0
1, 104316, Control_c, 0, 64, 127
1, 104376, Note_on_c, 0, 79, 0
1, 104376, Note_on_c, 0, 71, 0
1, 104380, Note_on_c, 0, 72, 0
1, 104384, Note_on_c, 0, 63, 0
1, 104404, Note_on_c, 0, 77, 0
1, 104416, Note_on_c, 0, 67, 0
1, 104508, Control_c, 0, 64, 0
1, 104584, Note_on_c, 0, 60, 66
1, 104584, Note_on_c, 0, 50, 61
1, 104588, Note_on_c, 0, 77, 69
1, 104592, Note_on_c, 0, 66, 61
1, 104592, Note_on_c, 0, 72, 67
1, 104664, Note_on_c, 0, 60, 0
1, 104672, Note_on_c, 0, 77, 0
1, 104684, Note_on_c, 0, 72, 0
1, 104700, Note_on_c, 0, 50, 0
1, 104716, Note_on_c, 0, 66, 0
1, 104932, Note_on_c, 0, 70, 77
1, 104940, Note_on_c, 0, 44, 63
1, 104940, Note_on_c, 0, 60, 66
1, 104940, Note_on_c, 0, 54, 57
1, 104976, Note_on_c, 0, 64, 34
1, 104976, Note_on_c, 0, 66, 36
1, 105164, Note_on_c, 0, 64, 0
1, 105188, Note_on_c, 0, 70, 0
1, 105188, Note_on_c, 0, 66, 0
1, 105192, Note_on_c, 0, 60, 0
1, 105204, Note_on_c, 0, 44, 0
1, 105256, Note_on_c, 0, 44, 62
1, 105268, Note_on_c, 0, 60, 52
1, 105288, Note_on_c, 0, 66, 38
1, 105288, Note_on_c, 0, 69, 45
1, 105308, Note_on_c, 0, 64, 34
1, 105360, Note_on_c, 0, 64, 0
1, 105396, Note_on_c, 0, 60, 0
1, 105416, Note_on_c, 0, 66, 0
1, 105420, Note_on_c, 0, 69, 0
1, 105432, Note_on_c, 0, 54, 0
1, 105460, Note_on_c, 0, 44, 0
1, 105508, Note_on_c, 0, 43, 51
1, 105512, Note_on_c, 0, 53, 55
1, 105524, Note_on_c, 0, 64, 54
1, 105524, Note_on_c, 0, 67, 57
1, 105524, Note_on_c, 0, 59, 55
1, 105708, Note_on_c, 0, 64, 0
1, 105760, Note_on_c, 0, 59, 0
1, 105804, Note_on_c, 0, 67, 0
1, 105848, Note_on_c, 0, 53, 0
1, 105848, Note_on_c, 0, 51, 55
1, 105848, Note_on_c, 0, 63, 50
1, 105856, Note_on_c, 0, 66, 46
1, 105864, Note_on_c, 0, 59, 38
1, 105904, Note_on_c, 0, 59, 0
1, 105908, Note_on_c, 0, 66, 0
1, 105936, Note_on_c, 0, 63, 0
1, 105956, Note_on_c, 0, 51, 0
1, 105980, Note_on_c, 0, 53, 47
1, 106000, Note_on_c, 0, 67, 40
1, 106000, Note_on_c, 0, 59, 42
1, 106016, Note_on_c, 0, 53, 0
1, 106032, Note_on_c, 0, 67, 0
1, 106080, Note_on_c, 0, 59, 0
1, 106216, Note_on_c, 0, 46, 40
1, 106268, Note_on_c, 0, 49, 37
1, 106276, Note_on_c, 0, 58, 46
1, 106304, Note_on_c, 0, 58, 0
1, 106308, Note_on_c, 0, 50, 57
1, 106312, Note_on_c, 0, 62, 57
1, 106316, Note_on_c, 0, 53, 45
1, 106320, Note_on_c, 0, 46, 0
1, 106320, Note_on_c, 0, 49, 0
1, 106340, Note_on_c, 0, 59, 47
1, 106460, Note_on_c, 0, 53, 0
1, 106468, Note_on_c, 0, 43, 0
1, 106476, Note_on_c, 0, 62, 0
1, 106476, Note_on_c, 0, 59, 0
1, 106532, Note_on_c, 0, 53, 55
1, 106536, Note_on_c, 0, 59, 52
1, 106544, Note_on_c, 0, 62, 57
1, 106556, Note_on_c, 0, 53, 0
1, 106588, Note_on_c, 0, 46, 31
1, 106596, Note_on_c, 0, 59, 0
1, 106596, Note_on_c, 0, 62, 0
1, 106628, Note_on_c, 0, 46, 0
1, 106744, Note_on_c, 0, 50, 0
1, 106760, Note_on_c, 0, 46, 52
1, 106760, Note_on_c, 0, 44, 31
1, 106812, Note_on_c, 0, 44, 0
1, 106844, Note_on_c, 0, 65, 57
1, 106852, Note_on_c, 0, 46, 0
1, 106852, Note_on_c, 0, 55, 58
1, 106852, Note_on_c, 0, 62, 50
1, 106860, Note_on_c, 0, 58, 53
1, 106864, Note_on_c, 0, 48, 56
1, 106976, Note_on_c, 0, 55, 0
1, 106980, Note_on_c, 0, 65, 0
1, 106988, Note_on_c, 0, 58, 0
1, 106996, Note_on_c, 0, 62, 0
1, 107060, Note_on_c, 0, 55, 49
1, 107060, Note_on_c, 0, 58, 54
1, 107064, Note_on_c, 0, 65, 46
1, 107072, Note_on_c, 0, 62, 48
1, 107120, Note_on_c, 0, 65, 0
1, 107124, Note_on_c, 0, 55, 0
1, 107132, Note_on_c, 0, 58, 0
1, 107140, Note_on_c, 0, 62, 0
1, 107316, Note_on_c, 0, 58, 57
1, 107316, Note_on_c, 0, 55, 63
1, 107320, Note_on_c, 0, 65, 50
1, 107332, Note_on_c, 0, 62, 49
1, 107512, Note_on_c, 0, 55, 0
1, 107544, Note_on_c, 0, 62, 0
1, 107544, Note_on_c, 0, 36, 75
1, 107548, Note_on_c, 0, 58, 0
1, 107568, Note_on_c, 0, 65, 0
1, 107764, Note_on_c, 0, 65, 49
1, 107772, Note_on_c, 0, 55, 47
1, 107772, Note_on_c, 0, 58, 49
1, 107776, Note_on_c, 0, 61, 49
1, 107820, Note_on_c, 0, 55, 0
1, 107828, Note_on_c, 0, 58, 0
1, 107836, Note_on_c, 0, 65, 0
1, 107852, Note_on_c, 0, 61, 0
1, 108012, Note_on_c, 0, 65, 60
1, 108016, Note_on_c, 0, 58, 58
1, 108020, Note_on_c, 0, 61, 53
1, 108020, Note_on_c, 0, 55, 57
1, 108104, Note_on_c, 0, 48, 0
1, 108212, Note_on_c, 0, 55, 0
1, 108244, Note_on_c, 0, 48, 96
1, 108268, Note_on_c, 0, 58, 0
1, 108284, Note_on_c, 0, 61, 0
1, 108292, Note_on_c, 0, 65, 0
1, 108456, Note_on_c, 0, 65, 61
1, 108460, Note_on_c, 0, 57, 55
1, 108464, Note_on_c, 0, 60, 57
1, 108516, Note_on_c, 0, 57, 0
1, 108524, Note_on_c, 0, 65, 0
1, 108540, Note_on_c, 0, 60, 0
1, 108700, Note_on_c, 0, 65, 79
1, 108704, Note_on_c, 0, 57, 81
1, 108708, Note_on_c, 0, 60, 74
1, 108848, Note_on_c, 0, 65, 0
1, 108852, Note_on_c, 0, 57, 0
1, 108860, Note_on_c, 0, 48, 0
1, 108872, Note_on_c, 0, 60, 0
1, 108916, Note_on_c, 0, 65, 61
1, 108916, Note_on_c, 0, 48, 83
1, 108924, Note_on_c, 0, 57, 72
1, 108928, Note_on_c, 0, 60, 85
1, 109184, Note_on_c, 0, 36, 0
1, 109236, Note_on_c, 0, 36, 90
1, 109396, Control_c, 0, 64, 127
1, 109540, Control_c, 0, 64, 0
1, 109576, Note_on_c, 0, 57, 0
1, 109616, Note_on_c, 0, 48, 0
1, 109628, Note_on_c, 0, 65, 0
1, 109632, Note_on_c, 0, 60, 0
1, 109632, Note_on_c, 0, 44, 49
1, 109664, Note_on_c, 0, 64, 61
1, 109668, Note_on_c, 0, 36, 0
1, 109672, Note_on_c, 0, 60, 63
1, 109672, Note_on_c, 0, 55, 69
1, 109680, Note_on_c, 0, 45, 82
1, 109716, Note_on_c, 0, 44, 0
1, 110012, Control_c, 0, 64, 127
1, 110108, Note_on_c, 0, 55, 0
1, 110112, Note_on_c, 0, 64, 0
1, 110208, Note_on_c, 0, 60, 0
1, 110252, Note_on_c, 0, 54, 58
1, 110252, Note_on_c, 0, 63, 56
1, 110260, Control_c, 0, 64, 0
1, 110272, Note_on_c, 0, 60, 42
1, 110308, Note_on_c, 0, 44, 49
1, 110312, Note_on_c, 0, 45, 0
1, 110536, Note_on_c, 0, 44, 0
1, 110588, Note_on_c, 0, 41, 55
1, 110676, Note_on_c, 0, 41, 0
1, 110712, Note_on_c, 0, 42, 44
1, 110720, Note_on_c, 0, 60, 0
1, 110768, Note_on_c, 0, 54, 0
1, 110876, Note_on_c, 0, 63, 0
1, 110936, Note_on_c, 0, 39, 42
1, 111016, Note_on_c, 0, 42, 0
1, 111028, Note_on_c, 0, 39, 0
1, 111044, Note_on_c, 0, 58, 52
1, 111048, Note_on_c, 0, 43, 49
1, 111052, Note_on_c, 0, 62, 42
1, 111076, Control_c, 0, 64, 127
1, 111112, Note_on_c, 0, 58, 0
1, 111152, Note_on_c, 0, 62, 0
1, 111300, Control_c, 0, 64, 0
1, 111364, Note_on_c, 0, 31, 48
1, 111368, Note_on_c, 0, 43, 0
1, 111376, Note_on_c, 0, 84, 99
1, 111392, Note_on_c, 0, 31, 0
1, 111412, Control_c, 0, 64, 127
1, 111668, Control_c, 0, 64, 0
1, 111700, Note_on_c, 0, 73, 62
1, 111728, Note_on_c, 0, 48, 53
1, 111748, Control_c, 0, 64, 127
1, 111756, Note_on_c, 0, 48, 0
1, 112008, Control_c, 0, 64, 0
1, 112068, Control_c, 0, 64, 127
1, 112236, Note_on_c, 0, 84, 0
1, 112248, Note_on_c, 0, 73, 0
1, 112276, Control_c, 0, 64, 0
1, 112284, Note_on_c, 0, 72, 60
1, 112348, Note_on_c, 0, 36, 27
1, 112356, Note_on_c, 0, 52, 48
1, 112364, Control_c, 0, 64, 127
1, 112380, Note_on_c, 0, 36, 0
1, 112420, Note_on_c, 0, 52, 0
1, 112696, Note_on_c, 0, 58, 51
1, 112700, Note_on_c, 0, 64, 47
1, 112728, Note_on_c, 0, 64, 0
1, 112740, Note_on_c, 0, 58, 0
1, 112904, Note_on_c, 0, 72, 0
1, 112904, Control_c, 0, 64, 0
1, 112940, Note_on_c, 0, 75, 72
1, 113008, Note_on_c, 0, 58, 56
1, 113028, Note_on_c, 0, 75, 0
1, 113040, Control_c, 0, 64, 127
1, 113056, Note_on_c, 0, 58, 0
1, 113056, Note_on_c, 0, 48, 23
1, 113088, Note_on_c, 0, 48, 0
1, 113132, Note_on_c, 0, 84, 85
1, 113320, Note_on_c, 0, 84, 0
1, 113352, Note_on_c, 0, 42, 53
1, 113364, Note_on_c, 0, 82, 78
1, 113368, Note_on_c, 0, 52, 42
1, 113524, Control_c, 0, 64, 0
1, 113532, Note_on_c, 0, 42, 0
1, 113540, Note_on_c, 0, 82, 0
1, 113548, Note_on_c, 0, 52, 0
1, 113600, Note_on_c, 0, 81, 82
1, 113648, Note_on_c, 0, 41, 50
1, 113656, Control_c, 0, 64, 127
1, 113688, Note_on_c, 0, 81, 0
1, 113692, Note_on_c, 0, 41, 0
1, 113928, Note_on_c, 0, 72, 62
1, 113992, Note_on_c, 0, 72, 0
1, 114024, Control_c, 0, 64, 0
1, 114040, Note_on_c, 0, 72, 82
1, 114044, Note_on_c, 0, 79, 81
1, 114052, Note_on_c, 0, 69, 72
1, 114052, Note_on_c, 0, 64, 67
1, 114152, Note_on_c, 0, 69, 0
1, 114172, Note_on_c, 0, 79, 0
1, 114192, Note_on_c, 0, 64, 0
1, 114196, Note_on_c, 0, 72, 0
1, 114244, Note_on_c, 0, 79, 61
1, 114256, Note_on_c, 0, 64, 60
1, 114260, Note_on_c, 0, 72, 64
1, 114264, Note_on_c, 0, 69, 68
1, 114316, Note_on_c, 0, 79, 0
1, 114320, Note_on_c, 0, 69, 0
1, 114324, Note_on_c, 0, 72, 0
1, 114380, Note_on_c, 0, 77, 52
1, 114388, Note_on_c, 0, 64, 0
1, 114392, Note_on_c, 0, 72, 50
1, 114412, Note_on_c, 0, 69, 21
1, 114448, Note_on_c, 0, 69, 0
1, 114452, Note_on_c, 0, 77, 0
1, 114468, Note_on_c, 0, 72, 0
1, 114512, Control_c, 0, 64, 127
1, 114536, Control_c, 0, 64, 0
1, 114572, Note_on_c, 0, 77, 74
1, 114580, Note_on_c, 0, 62, 55
1, 114580, Note_on_c, 0, 69, 70
1, 114580, Note_on_c, 0, 72, 62
1, 114608, Note_on_c, 0, 72, 0
1, 114628, Note_on_c, 0, 69, 0
1, 114632, Note_on_c, 0, 77, 0
1, 114648, Note_on_c, 0, 62, 0
1, 114700, Note_on_c, 0, 76, 61
1, 114708, Note_on_c, 0, 60, 46
1, 114720, Note_on_c, 0, 67, 33
1, 114732, Note_on_c, 0, 69, 36
1, 114760, Note_on_c, 0, 60, 0
1, 114760, Note_on_c, 0, 67, 0
1, 114768, Note_on_c, 0, 69, 0
1, 114780, Note_on_c, 0, 76, 0
1, 114904, Note_on_c, 0, 60, 47
1, 114904, Note_on_c, 0, 76, 48
1, 114908, Note_on_c, 0, 67, 66
1, 114912, Note_on_c, 0, 69, 58
1, 114932, Note_on_c, 0, 76, 0
1, 114936, Note_on_c, 0, 69, 0
1, 114948, Note_on_c, 0, 67, 0
1, 114996, Note_on_c, 0, 60, 0
1, 115024, Note_on_c, 0, 67, 46
1, 115028, Note_on_c, 0, 72, 63
1, 115032, Note_on_c, 0, 64, 50
1, 115036, Note_on_c, 0, 57, 55
1, 115040, Control_c, 0, 64, 88
1, 115044, Control_c, 0, 64, 127
1, 115140, Note_on_c, 0, 67, 0
1, 115152, Note_on_c, 0, 72, 0
1, 115180, Note_on_c, 0, 57, 0
1, 115236, Note_on_c, 0, 64, 0
1, 115320, Control_c, 0, 64, 0
1, 115360, Note_on_c, 0, 53, 51
1, 115364, Note_on_c, 0, 69, 61
1, 115368, Note_on_c, 0, 64, 58
1, 115376, Control_c, 0, 64, 127
1, 115400, Note_on_c, 0, 60, 29
1, 115468, Note_on_c, 0, 53, 0
1, 115488, Note_on_c, 0, 64, 0
1, 115492, Note_on_c, 0, 60, 0
1, 115516, Note_on_c, 0, 69, 0
1, 115648, Control_c, 0, 64, 0
1, 115680, Note_on_c, 0, 54, 44
1, 115692, Note_on_c, 0, 66, 50
1, 115696, Note_on_c, 0, 63, 56
1, 115704, Note_on_c, 0, 59, 54
1, 115796, Control_c, 0, 64, 127
1, 115928, Note_on_c, 0, 63, 0
1, 115936, Note_on_c, 0, 59, 0
1, 115984, Note_on_c, 0, 66, 0
1, 116008, Note_on_c, 0, 63, 44
1, 116012, Note_on_c, 0, 44, 51
1, 116112, Note_on_c, 0, 54, 0
1, 116172, Note_on_c, 0, 63, 0
1, 116192, Note_on_c, 0, 44, 0
1, 116216, Control_c, 0, 64, 0
1, 116256, Note_on_c, 0, 58, 48
1, 116264, Note_on_c, 0, 53, 46
1, 116264, Note_on_c, 0, 43, 48
1, 116268, Note_on_c, 0, 62, 48
1, 116300, Note_on_c, 0, 65, 31
1, 116324, Control_c, 0, 64, 127
1, 116452, Note_on_c, 0, 62, 0
1, 116468, Note_on_c, 0, 65, 0
1, 116504, Note_on_c, 0, 58, 0
1, 116608, Note_on_c, 0, 57, 57
1, 116684, Note_on_c, 0, 57, 0
1, 116700, Control_c, 0, 64, 0
1, 116704, Note_on_c, 0, 58, 53
1, 116736, Note_on_c, 0, 58, 0
1, 116796, Note_on_c, 0, 43, 0
1, 116836, Note_on_c, 0, 62, 40
1, 116864, Note_on_c, 0, 53, 0
1, 116900, Note_on_c, 0, 62, 0
1, 116900, Note_on_c, 0, 66, 57
1, 116968, Note_on_c, 0, 66, 0
1, 116992, Note_on_c, 0, 69, 60
1, 117064, Note_on_c, 0, 66, 36
1, 117072, Note_on_c, 0, 69, 0
1, 117124, Note_on_c, 0, 66, 0
1, 117156, Note_on_c, 0, 67, 46
1, 117216, Note_on_c, 0, 67, 0
1, 117240, Note_on_c, 0, 69, 58
1, 117324, Note_on_c, 0, 69, 0
1, 117332, Note_on_c, 0, 70, 72
1, 117356, Note_on_c, 0, 62, 37
1, 117364, Note_on_c, 0, 55, 24
1, 117364, Note_on_c, 0, 58, 40
1, 117392, Note_on_c, 0, 70, 0
1, 117392, Note_on_c, 0, 62, 0
1, 117408, Note_on_c, 0, 58, 0
1, 117412, Note_on_c, 0, 72, 54
1, 117444, Note_on_c, 0, 55, 0
1, 117472, Note_on_c, 0, 72, 0
1, 117500, Note_on_c, 0, 73, 54
1, 117576, Note_on_c, 0, 75, 65
1, 117596, Note_on_c, 0, 73, 0
1, 117648, Note_on_c, 0, 75, 0
1, 117660, Note_on_c, 0, 76, 68
1, 117724, Note_on_c, 0, 76, 0
1, 117764, Note_on_c, 0, 77, 40
1, 117804, Note_on_c, 0, 77, 0
1, 117924, Note_on_c, 0, 80, 49
1, 117952, Note_on_c, 0, 80, 0
1, 118040, Note_on_c, 0, 84, 111
1, 118044, Note_on_c, 0, 69, 54
1, 118052, Note_on_c, 0, 64, 55
1, 118060, Note_on_c, 0, 58, 38
1, 118068, Note_on_c, 0, 69, 0
1, 118092, Note_on_c, 0, 64, 0
1, 118136, Note_on_c, 0, 58, 0
1, 118168, Note_on_c, 0, 73, 81
1, 118192, Note_on_c, 0, 84, 0
1, 118236, Note_on_c, 0, 84, 23
1, 118320, Note_on_c, 0, 84, 0
1, 118324, Note_on_c, 0, 73, 0
1, 118364, Note_on_c, 0, 73, 78
1, 118476, Note_on_c, 0, 73, 0
1, 118524, Note_on_c, 0, 72, 63
1, 118532, Note_on_c, 0, 82, 18
1, 118608, Note_on_c, 0, 82, 0
1, 118672, Note_on_c, 0, 72, 0
1, 118692, Note_on_c, 0, 63, 51
1, 118700, Note_on_c, 0, 70, 68
1, 118708, Note_on_c, 0, 58, 43
1, 118720, Note_on_c, 0, 52, 42
1, 118836, Note_on_c, 0, 70, 0
1, 118848, Note_on_c, 0, 69, 32
1, 118944, Note_on_c, 0, 69, 0
1, 118968, Note_on_c, 0, 58, 0
1, 118980, Note_on_c, 0, 63, 0
1, 119056, Note_on_c, 0, 56, 49
1, 119072, Note_on_c, 0, 52, 0
1, 119128, Note_on_c, 0, 58, 49
1, 119136, Note_on_c, 0, 56, 0
1, 119140, Note_on_c, 0, 64, 49
1, 119140, Note_on_c, 0, 69, 61
1, 119144, Note_on_c, 0, 74, 61
1, 119348, Note_on_c, 0, 69, 0
1, 119368, Note_on_c, 0, 74, 0
1, 119376, Note_on_c, 0, 54, 46
1, 119380, Note_on_c, 0, 58, 0
1, 119404, Note_on_c, 0, 64, 0
1, 119424, Note_on_c, 0, 56, 31
1, 119460, Note_on_c, 0, 56, 0
1, 119460, Control_c, 0, 64, 127
1, 119464, Note_on_c, 0, 72, 55
1, 119472, Note_on_c, 0, 54, 0
1, 119472, Note_on_c, 0, 57, 61
1, 119492, Note_on_c, 0, 67, 49
1, 119492, Note_on_c, 0, 62, 43
1, 119588, Note_on_c, 0, 72, 0
1, 119596, Note_on_c, 0, 67, 0
1, 119644, Note_on_c, 0, 62, 0
1, 119672, Control_c, 0, 64, 0
1, 119724, Note_on_c, 0, 69, 70
1, 119736, Note_on_c, 0, 64, 62
1, 119736, Note_on_c, 0, 53, 57
1, 119736, Note_on_c, 0, 60, 57
1, 119744, Note_on_c, 0, 57, 0
1, 119780, Control_c, 0, 64, 127
1, 119844, Note_on_c, 0, 64, 0
1, 119860, Note_on_c, 0, 69, 0
1, 119868, Note_on_c, 0, 53, 0
1, 119880, Note_on_c, 0, 60, 0
1, 120016, Control_c, 0, 64, 0
1, 120024, Note_on_c, 0, 63, 55
1, 120036, Note_on_c, 0, 52, 63
1, 120052, Note_on_c, 0, 60, 63
1, 120064, Note_on_c, 0, 64, 67
1, 120076, Note_on_c, 0, 55, 33
1, 120088, Note_on_c, 0, 63, 0
1, 120128, Control_c, 0, 64, 127
1, 120244, Note_on_c, 0, 52, 0
1, 120304, Note_on_c, 0, 55, 0
1, 120328, Note_on_c, 0, 60, 0
1, 120476, Note_on_c, 0, 64, 0
1, 120476, Note_on_c, 0, 60, 63
1, 120480, Note_on_c, 0, 55, 51
1, 120656, Control_c, 0, 64, 0
1, 120708, Note_on_c, 0, 45, 74
1, 120772, Note_on_c, 0, 45, 0
1, 120864, Note_on_c, 0, 40, 49
1, 121008, Note_on_c, 0, 40, 0
1, 121068, Note_on_c, 0, 33, 66
1, 121152, Note_on_c, 0, 33, 0
1, 121208, Note_on_c, 0, 55, 0
1, 121252, Note_on_c, 0, 60, 0
1, 121388, Note_on_c, 0, 44, 76
1, 121472, Note_on_c, 0, 44, 0
1, 121548, Note_on_c, 0, 39, 46
1, 121732, Note_on_c, 0, 39, 0
1, 121760, Note_on_c, 0, 32, 57
1, 121828, Note_on_c, 0, 32, 0
1, 121884, Control_c, 0, 64, 127
1, 121884, Note_on_c, 0, 58, 58
1, 121888, Note_on_c, 0, 62, 56
1, 121888, Note_on_c, 0, 31, 54
1, 121896, Note_on_c, 0, 53, 46
1, 121916, Note_on_c, 0, 31, 0
1, 121980, Note_on_c, 0, 53, 0
1, 122088, Note_on_c, 0, 58, 0
1, 122208, Note_on_c, 0, 51, 64
1, 122208, Note_on_c, 0, 49, 52
1, 122268, Note_on_c, 0, 51, 0
1, 122284, Note_on_c, 0, 49, 0
1, 122436, Control_c, 0, 64, 0
1, 122440, Note_on_c, 0, 62, 0
1, 122444, Note_on_c, 0, 58, 71
1, 122444, Note_on_c, 0, 53, 75
1, 122488, Note_on_c, 0, 53, 0
1, 122496, Note_on_c, 0, 50, 39
1, 122540, Control_c, 0, 64, 127
1, 122548, Note_on_c, 0, 58, 0
1, 122764, Note_on_c, 0, 50, 0
1, 122768, Note_on_c, 0, 43, 67
1, 122844, Note_on_c, 0, 43, 0
1, 122864, Note_on_c, 0, 37, 65
1, 122880, Note_on_c, 0, 84, 83
1, 122884, Control_c, 0, 64, 0
1, 122944, Note_on_c, 0, 37, 0
1, 122948, Note_on_c, 0, 84, 0
1, 122956, Note_on_c, 0, 81, 57
1, 122988, Note_on_c, 0, 81, 0
1, 123032, Note_on_c, 0, 82, 67
1, 123052, Note_on_c, 0, 82, 0
1, 123060, Note_on_c, 0, 83, 55
1, 123096, Note_on_c, 0, 36, 57
1, 123100, Note_on_c, 0, 79, 70
1, 123116, Note_on_c, 0, 83, 0
1, 123128, Note_on_c, 0, 36, 0
1, 123164, Note_on_c, 0, 79, 0
1, 123176, Note_on_c, 0, 76, 57
1, 123212, Note_on_c, 0, 76, 0
1, 123260, Note_on_c, 0, 74, 61
1, 123324, Note_on_c, 0, 74, 0
1, 123336, Note_on_c, 0, 72, 58
1, 123372, Note_on_c, 0, 72, 0
1, 123420, Note_on_c, 0, 69, 60
1, 123452, Note_on_c, 0, 69, 0
1, 123460, Note_on_c, 0, 56, 39
1, 123492, Note_on_c, 0, 70, 67
1, 123496, Note_on_c, 0, 56, 0
1, 123592, Note_on_c, 0, 67, 55
1, 123604, Note_on_c, 0, 70, 0
1, 123652, Note_on_c, 0, 67, 0
1, 123684, Note_on_c, 0, 64, 42
1, 123720, Note_on_c, 0, 64, 0
1, 123728, Note_on_c, 0, 56, 67
1, 123744, Note_on_c, 0, 46, 39
1, 123760, Note_on_c, 0, 56, 0
1, 123780, Note_on_c, 0, 46, 0
1, 123808, Note_on_c, 0, 62, 16
1, 123852, Note_on_c, 0, 62, 0
1, 123868, Note_on_c, 0, 61, 43
1, 123948, Note_on_c, 0, 61, 0
1, 123968, Note_on_c, 0, 60, 61
1, 124024, Note_on_c, 0, 60, 0
1, 124036, Note_on_c, 0, 54, 48
1, 124036, Note_on_c, 0, 59, 75
1, 124072, Note_on_c, 0, 54, 0
1, 124096, Note_on_c, 0, 59, 0
1, 124124, Note_on_c, 0, 58, 54
1, 124148, Note_on_c, 0, 58, 0
1, 124212, Note_on_c, 0, 57, 29
1, 124260, Note_on_c, 0, 57, 0
1, 124320, Note_on_c, 0, 53, 38
1, 124328, Note_on_c, 0, 49, 38
1, 124388, Note_on_c, 0, 53, 0
1, 124392, Note_on_c, 0, 56, 56
1, 124444, Note_on_c, 0, 56, 0
1, 124452, Note_on_c, 0, 57, 61
1, 124464, Note_on_c, 0, 49, 0
1, 124472, Note_on_c, 0, 41, 50
1, 124492, Note_on_c, 0, 48, 37
1, 124520, Control_c, 0, 64, 127
1, 124644, Note_on_c, 0, 57, 0
1, 124668, Control_c, 0, 64, 0
1, 124692, Note_on_c, 0, 55, 60
1, 124700, Note_on_c, 0, 60, 58
1, 124716, Note_on_c, 0, 55, 0
1, 124716, Note_on_c, 0, 50, 63
1, 124724, Note_on_c, 0, 48, 0
1, 124732, Note_on_c, 0, 60, 0
1, 124740, Note_on_c, 0, 41, 0
1, 124740, Note_on_c, 0, 50, 0
1, 124788, Note_on_c, 0, 64, 79
1, 124808, Note_on_c, 0, 57, 57
1, 124808, Note_on_c, 0, 52, 67
1, 124816, Note_on_c, 0, 55, 45
1, 124820, Control_c, 0, 64, 127
1, 124892, Note_on_c, 0, 60, 17
1, 124896, Note_on_c, 0, 57, 0
1, 124900, Note_on_c, 0, 55, 0
1, 124936, Note_on_c, 0, 60, 0
1, 124948, Note_on_c, 0, 64, 0
1, 124956, Note_on_c, 0, 52, 0
1, 124996, Control_c, 0, 64, 0
1, 125016, Note_on_c, 0, 67, 87
1, 125024, Note_on_c, 0, 60, 77
1, 125028, Note_on_c, 0, 55, 82
1, 125028, Note_on_c, 0, 57, 67
1, 125048, Note_on_c, 0, 64, 42
1, 125048, Note_on_c, 0, 59, 46
1, 125076, Note_on_c, 0, 59, 0
1, 125132, Control_c, 0, 64, 127
1, 125304, Note_on_c, 0, 57, 0
1, 125308, Note_on_c, 0, 67, 0
1, 125320, Note_on_c, 0, 64, 0
1, 125336, Note_on_c, 0, 60, 0
1, 125448, Note_on_c, 0, 57, 62
1, 125456, Note_on_c, 0, 60, 56
1, 125456, Note_on_c, 0, 53, 56
1, 125460, Note_on_c, 0, 67, 41
1, 125468, Note_on_c, 0, 55, 0
1, 125476, Note_on_c, 0, 65, 38
1, 125532, Note_on_c, 0, 57, 0
1, 125608, Note_on_c, 0, 60, 0
1, 125636, Note_on_c, 0, 65, 0
1, 125644, Control_c, 0, 64, 0
1, 125684, Note_on_c, 0, 67, 0
1, 125688, Note_on_c, 0, 47, 79
1, 125696, Note_on_c, 0, 53, 0
1, 125720, Control_c, 0, 64, 127
1, 125764, Note_on_c, 0, 47, 0
1, 126016, Note_on_c, 0, 57, 72
1, 126016, Note_on_c, 0, 66, 80
1, 126028, Note_on_c, 0, 62, 65
1, 126028, Control_c, 0, 64, 0
1, 126172, Note_on_c, 0, 83, 88
1, 126280, Note_on_c, 0, 78, 70
1, 126308, Note_on_c, 0, 83, 0
1, 126388, Note_on_c, 0, 76, 64
1, 126396, Note_on_c, 0, 78, 0
1, 126480, Note_on_c, 0, 57, 0
1, 126488, Note_on_c, 0, 66, 0
1, 126512, Note_on_c, 0, 76, 0
1, 126564, Note_on_c, 0, 62, 0
1, 126588, Note_on_c, 0, 81, 85
1, 126616, Note_on_c, 0, 67, 63
1, 126620, Note_on_c, 0, 80, 48
1, 126628, Note_on_c, 0, 56, 51
1, 126628, Note_on_c, 0, 62, 41
1, 126644, Note_on_c, 0, 80, 0
1, 126712, Note_on_c, 0, 76, 63
1, 126740, Note_on_c, 0, 81, 0
1, 126756, Note_on_c, 0, 67, 0
1, 126804, Note_on_c, 0, 76, 0
1, 126828, Note_on_c, 0, 74, 56
1, 126960, Note_on_c, 0, 62, 0
1, 126960, Note_on_c, 0, 74, 0
1, 126984, Note_on_c, 0, 56, 0
1, 127060, Note_on_c, 0, 61, 56
1, 127060, Note_on_c, 0, 79, 102
1, 127068, Note_on_c, 0, 64, 50
1, 127088, Note_on_c, 0, 59, 38
1, 127108, Note_on_c, 0, 64, 0
1, 127132, Note_on_c, 0, 59, 0
1, 127140, Note_on_c, 0, 61, 0
1, 127176, Note_on_c, 0, 78, 70
1, 127212, Note_on_c, 0, 79, 0
1, 127288, Note_on_c, 0, 73, 72
1, 127332, Control_c, 0, 64, 127
1, 127340, Note_on_c, 0, 45, 39
1, 127372, Note_on_c, 0, 45, 0
1, 127408, Note_on_c, 0, 78, 0
1, 127440, Note_on_c, 0, 71, 57
1, 127444, Note_on_c, 0, 73, 0
1, 127508, Note_on_c, 0, 71, 0
1, 127544, Note_on_c, 0, 76, 85
1, 127660, Note_on_c, 0, 73, 72
1, 127684, Note_on_c, 0, 76, 0
1, 127684, Note_on_c, 0, 61, 48
1, 127688, Note_on_c, 0, 64, 43
1, 127692, Control_c, 0, 64, 0
1, 127716, Note_on_c, 0, 64, 0
1, 127724, Note_on_c, 0, 61, 0
1, 127776, Note_on_c, 0, 68, 54
1, 127792, Note_on_c, 0, 73, 0
1, 127840, Note_on_c, 0, 68, 0
1, 127892, Note_on_c, 0, 64, 39
1, 127968, Note_on_c, 0, 64, 0
1, 127984, Note_on_c, 0, 61, 57
1, 128092, Control_c, 0, 64, 127
1, 128104, Note_on_c, 0, 61, 0
1, 128116, Note_on_c, 0, 59, 49
1, 128220, Note_on_c, 0, 59, 0
1, 128296, Note_on_c, 0, 55, 54
1, 128336, Note_on_c, 0, 54, 25
1, 128356, Note_on_c, 0, 47, 39
1, 128368, Control_c, 0, 64, 0
1, 128372, Note_on_c, 0, 55, 0
1, 128396, Note_on_c, 0, 63, 54
1, 128416, Note_on_c, 0, 64, 76
1, 128420, Note_on_c, 0, 63, 0
1, 128428, Note_on_c, 0, 57, 61
1, 128460, Note_on_c, 0, 54, 0
1, 128556, Note_on_c, 0, 57, 0
1, 128624, Note_on_c, 0, 57, 56
1, 128636, Note_on_c, 0, 62, 63
1, 128668, Note_on_c, 0, 59, 31
1, 128672, Note_on_c, 0, 64, 0
1, 128688, Note_on_c, 0, 47, 0
1, 128704, Note_on_c, 0, 57, 0
1, 128712, Note_on_c, 0, 59, 0
1, 128724, Note_on_c, 0, 51, 63
1, 128740, Note_on_c, 0, 62, 0
1, 128944, Note_on_c, 0, 49, 50
1, 128956, Note_on_c, 0, 56, 65
1, 128960, Note_on_c, 0, 62, 71
1, 128976, Note_on_c, 0, 59, 54
1, 128980, Note_on_c, 0, 49, 0
1, 129004, Note_on_c, 0, 51, 0
1, 129008, Note_on_c, 0, 52, 54
1, 129096, Control_c, 0, 64, 127
1, 129236, Control_c, 0, 64, 0
1, 129268, Note_on_c, 0, 52, 0
1, 129276, Note_on_c, 0, 40, 72
1, 129300, Note_on_c, 0, 59, 0
1, 129316, Note_on_c, 0, 56, 0
1, 129364, Control_c, 0, 64, 127
1, 129380, Note_on_c, 0, 40, 0
1, 129400, Note_on_c, 0, 55, 43
1, 129404, Note_on_c, 0, 62, 0
1, 129568, Note_on_c, 0, 55, 0
1, 129616, Note_on_c, 0, 56, 79
1, 129644, Note_on_c, 0, 45, 55
1, 129648, Control_c, 0, 64, 0
1, 129768, Note_on_c, 0, 56, 0
1, 129780, Note_on_c, 0, 58, 46
1, 129852, Note_on_c, 0, 56, 46
1, 129888, Note_on_c, 0, 58, 0
1, 129960, Note_on_c, 0, 55, 54
1, 129964, Note_on_c, 0, 56, 0
1, 129972, Note_on_c, 0, 52, 41
1, 130028, Note_on_c, 0, 55, 0
1, 130068, Note_on_c, 0, 54, 50
1, 130248, Note_on_c, 0, 54, 0
1, 130276, Note_on_c, 0, 56, 59
1, 130304, Note_on_c, 0, 52, 0
1, 130308, Note_on_c, 0, 55, 43
1, 130380, Note_on_c, 0, 56, 0
1, 130416, Note_on_c, 0, 57, 35
1, 130432, Note_on_c, 0, 45, 0
1, 130560, Note_on_c, 0, 57, 0
1, 130588, Note_on_c, 0, 59, 69
1, 130668, Note_on_c, 0, 55, 0
1, 130672, Note_on_c, 0, 52, 40
1, 130688, Note_on_c, 0, 59, 0
1, 130732, Note_on_c, 0, 61, 52
1, 130868, Note_on_c, 0, 61, 0
1, 130900, Note_on_c, 0, 64, 64
1, 130928, Note_on_c, 0, 45, 57
1, 130960, Note_on_c, 0, 45, 0
1, 130968, Note_on_c, 0, 52, 0
1, 130992, Control_c, 0, 64, 127
1, 131008, Note_on_c, 0, 64, 0
1, 131052, Note_on_c, 0, 66, 53
1, 131180, Note_on_c, 0, 66, 0
1, 131216, Note_on_c, 0, 69, 68
1, 131260, Control_c, 0, 64, 0
1, 131272, Note_on_c, 0, 64, 49
1, 131284, Note_on_c, 0, 61, 39
1, 131296, Note_on_c, 0, 64, 0
1, 131308, Note_on_c, 0, 69, 0
1, 131328, Note_on_c, 0, 61, 0
1, 131376, Note_on_c, 0, 71, 37
1, 131496, Note_on_c, 0, 71, 0
1, 131524, Note_on_c, 0, 73, 72
1, 131604, Note_on_c, 0, 45, 43
1, 131612, Note_on_c, 0, 73, 0
1, 131624, Control_c, 0, 64, 127
1, 131640, Note_on_c, 0, 45, 0
1, 131660, Note_on_c, 0, 76, 53
1, 131776, Note_on_c, 0, 76, 0
1, 131824, Note_on_c, 0, 78, 67
1, 131904, Control_c, 0, 64, 0
1, 131920, Note_on_c, 0, 78, 0
1, 131944, Note_on_c, 0, 54, 42
1, 131948, Note_on_c, 0, 44, 41
1, 131980, Note_on_c, 0, 79, 57
1, 132100, Note_on_c, 0, 79, 0
1, 132148, Note_on_c, 0, 54, 0
1, 132152, Note_on_c, 0, 81, 85
1, 132176, Note_on_c, 0, 44, 0
1, 132216, Note_on_c, 0, 43, 57
1, 132240, Note_on_c, 0, 43, 0
1, 132244, Note_on_c, 0, 81, 0
1, 132244, Note_on_c, 0, 53, 37
1, 132268, Note_on_c, 0, 53, 0
1, 132292, Control_c, 0, 64, 127
1, 132300, Note_on_c, 0, 82, 66
1, 132396, Note_on_c, 0, 82, 0
1, 132468, Control_c, 0, 64, 0
1, 132472, Note_on_c, 0, 83, 78
1, 132544, Note_on_c, 0, 62, 56
1, 132544, Note_on_c, 0, 58, 49
1, 132552, Note_on_c, 0, 83, 0
1, 132564, Note_on_c, 0, 62, 0
1, 132572, Note_on_c, 0, 53, 30
1, 132600, Note_on_c, 0, 84, 88
1, 132604, Note_on_c, 0, 58, 0
1, 132608, Note_on_c, 0, 72, 75
1, 132624, Note_on_c, 0, 53, 0
1, 132628, Control_c, 0, 64, 127
1, 132732, Note_on_c, 0, 84, 0
1, 132744, Note_on_c, 0, 72, 0
1, 132784, Note_on_c, 0, 84, 77
1, 132792, Control_c, 0, 64, 0
1, 132796, Note_on_c, 0, 72, 72
1, 132860, Note_on_c, 0, 50, 50
1, 132888, Note_on_c, 0, 84, 0
1, 132900, Note_on_c, 0, 72, 0
1, 132900, Control_c, 0, 64, 127
1, 132976, Note_on_c, 0, 84, 60
1, 132984, Note_on_c, 0, 72, 62
1, 133012, Note_on_c, 0, 50, 0
1, 133080, Note_on_c, 0, 84, 0
1, 133084, Note_on_c, 0, 72, 0
1, 133156, Note_on_c, 0, 51, 46
1, 133188, Note_on_c, 0, 85, 75
1, 133192, Note_on_c, 0, 51, 0
1, 133200, Note_on_c, 0, 73, 57
1, 133228, Note_on_c, 0, 79, 35
1, 133268, Note_on_c, 0, 79, 0
1, 133324, Note_on_c, 0, 73, 0
1, 133352, Note_on_c, 0, 85, 0
1, 133368, Control_c, 0, 64, 0
1, 133408, Note_on_c, 0, 74, 70
1, 133408, Note_on_c, 0, 82, 53
1, 133412, Note_on_c, 0, 86, 65
1, 133416, Note_on_c, 0, 79, 63
1, 133448, Note_on_c, 0, 84, 33
1, 133476, Note_on_c, 0, 36, 42
1, 133476, Control_c, 0, 64, 127
1, 133488, Note_on_c, 0, 79, 0
1, 133496, Note_on_c, 0, 74, 0
1, 133500, Note_on_c, 0, 52, 50
1, 133504, Note_on_c, 0, 36, 0
1, 133508, Note_on_c, 0, 84, 0
1, 133524, Note_on_c, 0, 86, 0
1, 133528, Note_on_c, 0, 82, 0
1, 133556, Note_on_c, 0, 52, 0
1, 133616, Note_on_c, 0, 88, 81
1, 133624, Note_on_c, 0, 76, 67
1, 133628, Note_on_c, 0, 84, 63
1, 133760, Note_on_c, 0, 88, 0
1, 133768, Note_on_c, 0, 76, 0
1, 133800, Note_on_c, 0, 84, 0
1, 133832, Note_on_c, 0, 58, 55
1, 133844, Note_on_c, 0, 56, 52
1, 133848, Note_on_c, 0, 62, 37
1, 133852, Note_on_c, 0, 88, 78
1, 133856, Note_on_c, 0, 58, 0
1, 133860, Note_on_c, 0, 84, 68
1, 133860, Note_on_c, 0, 76, 68
1, 133868, Note_on_c, 0, 56, 0
1, 133884, Note_on_c, 0, 62, 0
1, 133952, Note_on_c, 0, 76, 0
1, 133976, Note_on_c, 0, 84, 0
1, 133992, Note_on_c, 0, 88, 0
1, 134056, Control_c, 0, 64, 0
1, 134068, Note_on_c, 0, 89, 84
1, 134072, Note_on_c, 0, 82, 80
1, 134076, Note_on_c, 0, 77, 72
1, 134092, Note_on_c, 0, 86, 60
1, 134108, Note_on_c, 0, 58, 67
1, 134112, Note_on_c, 0, 48, 56
1, 134180, Note_on_c, 0, 77, 0
1, 134180, Note_on_c, 0, 58, 0
1, 134192, Control_c, 0, 64, 127
1, 134204, Note_on_c, 0, 89, 0
1, 134204, Note_on_c, 0, 82, 0
1, 134216, Note_on_c, 0, 86, 0
1, 134216, Note_on_c, 0, 48, 0
1, 134316, Note_on_c, 0, 90, 74
1, 134328, Note_on_c, 0, 78, 72
1, 134336, Note_on_c, 0, 85, 66
1, 134360, Note_on_c, 0, 85, 0
1, 134404, Control_c, 0, 64, 0
1, 134444, Note_on_c, 0, 42, 54
1, 134448, Note_on_c, 0, 52, 41
1, 134456, Note_on_c, 0, 78, 0
1, 134460, Note_on_c, 0, 49, 49
1, 134460, Control_c, 0, 64, 127
1, 134468, Note_on_c, 0, 90, 0
1, 134512, Note_on_c, 0, 52, 0
1, 134528, Note_on_c, 0, 91, 80
1, 134532, Note_on_c, 0, 79, 76
1, 134540, Note_on_c, 0, 86, 67
1, 134560, Note_on_c, 0, 49, 0
1, 134568, Note_on_c, 0, 89, 31
1, 134608, Note_on_c, 0, 42, 0
1, 134608, Note_on_c, 0, 79, 0
1, 134612, Note_on_c, 0, 91, 0
1, 134620, Note_on_c, 0, 89, 0
1, 134660, Note_on_c, 0, 86, 0
1, 134672, Control_c, 0, 64, 0
1, 134716, Note_on_c, 0, 92, 78
1, 134720, Note_on_c, 0, 86, 68
1, 134732, Note_on_c, 0, 80, 66
1, 134732, Note_on_c, 0, 41, 49
1, 134744, Note_on_c, 0, 48, 52
1, 134760, Note_on_c, 0, 41, 0
1, 134776, Control_c, 0, 64, 127
1, 134804, Note_on_c, 0, 48, 0
1, 134868, Note_on_c, 0, 86, 0
1, 134872, Note_on_c, 0, 80, 0
1, 134884, Note_on_c, 0, 92, 0
1, 134936, Note_on_c, 0, 93, 72
1, 134940, Note_on_c, 0, 86, 67
1, 134944, Note_on_c, 0, 89, 62
1, 134948, Note_on_c, 0, 81, 57
1, 134976, Note_on_c, 0, 91, 37
1, 135024, Note_on_c, 0, 81, 0
1, 135040, Note_on_c, 0, 91, 0
1, 135048, Note_on_c, 0, 93, 0
1, 135056, Note_on_c, 0, 86, 0
1, 135056, Note_on_c, 0, 62, 63
1, 135064, Control_c, 0, 64, 0
1, 135068, Note_on_c, 0, 89, 0
1, 135068, Note_on_c, 0, 60, 55
1, 135080, Note_on_c, 0, 62, 0
1, 135084, Note_on_c, 0, 53, 48
1, 135100, Note_on_c, 0, 57, 29
1, 135104, Note_on_c, 0, 60, 0
1, 135104, Control_c, 0, 64, 127
1, 135120, Note_on_c, 0, 93, 66
1, 135124, Note_on_c, 0, 86, 60
1, 135128, Note_on_c, 0, 89, 68
1, 135136, Note_on_c, 0, 57, 0
1, 135136, Note_on_c, 0, 81, 64
1, 135168, Note_on_c, 0, 53, 0
1, 135240, Note_on_c, 0, 81, 0
1, 135244, Note_on_c, 0, 93, 0
1, 135264, Note_on_c, 0, 86, 0
1, 135272, Note_on_c, 0, 89, 0
1, 135276, Control_c, 0, 64, 0
1, 135308, Note_on_c, 0, 93, 63
1, 135320, Note_on_c, 0, 81, 59
1, 135320, Note_on_c, 0, 86, 61
1, 135324, Note_on_c, 0, 89, 60
1, 135340, Note_on_c, 0, 36, 64
1, 135376, Control_c, 0, 64, 127
1, 135404, Note_on_c, 0, 36, 0
1, 135424, Note_on_c, 0, 81, 0
1, 135444, Note_on_c, 0, 93, 0
1, 135448, Note_on_c, 0, 86, 0
1, 135460, Note_on_c, 0, 89, 0
1, 135508, Note_on_c, 0, 93, 71
1, 135512, Note_on_c, 0, 81, 51
1, 135520, Note_on_c, 0, 86, 58
1, 135520, Note_on_c, 0, 89, 71
1, 135616, Note_on_c, 0, 81, 0
1, 135628, Note_on_c, 0, 93, 0
1, 135636, Note_on_c, 0, 86, 0
1, 135656, Note_on_c, 0, 89, 0
1, 135688, Note_on_c, 0, 62, 57
1, 135696, Note_on_c, 0, 60, 49
1, 135708, Note_on_c, 0, 93, 66
1, 135712, Note_on_c, 0, 62, 0
1, 135716, Note_on_c, 0, 86, 57
1, 135720, Note_on_c, 0, 60, 0
1, 135720, Note_on_c, 0, 53, 42
1, 135720, Note_on_c, 0, 89, 63
1, 135728, Note_on_c, 0, 81, 60
1, 135760, Note_on_c, 0, 53, 0
1, 135772, Note_on_c, 0, 91, 22
1, 135820, Note_on_c, 0, 86, 0
1, 135844, Note_on_c, 0, 93, 0
1, 135848, Note_on_c, 0, 81, 0
1, 135852, Note_on_c, 0, 89, 0
1, 135868, Note_on_c, 0, 91, 0
1, 135876, Control_c, 0, 64, 0
1, 135920, Note_on_c, 0, 91, 78
1, 135932, Note_on_c, 0, 88, 56
1, 135932, Note_on_c, 0, 84, 72
1, 135932, Note_on_c, 0, 79, 60
1, 135948, Note_on_c, 0, 41, 69
1, 135988, Control_c, 0, 64, 127
1, 136020, Note_on_c, 0, 41, 0
1, 136036, Note_on_c, 0, 88, 0
1, 136056, Note_on_c, 0, 91, 0
1, 136056, Note_on_c, 0, 84, 0
1, 136088, Note_on_c, 0, 79, 0
1, 136208, Note_on_c, 0, 88, 81
1, 136216, Note_on_c, 0, 85, 39
1, 136224, Note_on_c, 0, 81, 71
1, 136232, Note_on_c, 0, 76, 54
1, 136232, Note_on_c, 0, 84, 50
1, 136244, Note_on_c, 0, 77, 46
1, 136248, Note_on_c, 0, 85, 0
1, 136248, Control_c, 0, 64, 0
1, 136272, Note_on_c, 0, 77, 0
1, 136288, Note_on_c, 0, 84, 0
1, 136292, Note_on_c, 0, 62, 56
1, 136296, Note_on_c, 0, 81, 0
1, 136300, Control_c, 0, 64, 127
1, 136300, Note_on_c, 0, 60, 50
1, 136304, Note_on_c, 0, 88, 0
1, 136312, Note_on_c, 0, 76, 0
1, 136320, Note_on_c, 0, 53, 39
1, 136324, Note_on_c, 0, 62, 0
1, 136328, Note_on_c, 0, 60, 0
1, 136396, Note_on_c, 0, 53, 0
1, 136416, Note_on_c, 0, 84, 63
1, 136424, Note_on_c, 0, 79, 76
1, 136432, Note_on_c, 0, 72, 63
1, 136532, Note_on_c, 0, 79, 0
1, 136536, Note_on_c, 0, 84, 0
1, 136568, Note_on_c, 0, 72, 0
1, 136588, Control_c, 0, 64, 0
1, 136628, Note_on_c, 0, 45, 56
1, 136648, Note_on_c, 0, 81, 65
1, 136648, Note_on_c, 0, 79, 70
1, 136648, Note_on_c, 0, 55, 52
1, 136660, Note_on_c, 0, 45, 0
1, 136660, Note_on_c, 0, 69, 57
1, 136672, Control_c, 0, 64, 127
1, 136684, Note_on_c, 0, 55, 0
1, 136688, Note_on_c, 0, 69, 0
1, 136712, Note_on_c, 0, 81, 0
1, 136712, Note_on_c, 0, 73, 18
1, 136744, Note_on_c, 0, 73, 0
1, 136796, Note_on_c, 0, 79, 0
1, 136832, Control_c, 0, 64, 0
1, 136860, Note_on_c, 0, 76, 80
1, 136868, Note_on_c, 0, 67, 66
1, 136872, Note_on_c, 0, 72, 58
1, 136904, Note_on_c, 0, 62, 48
1, 136912, Note_on_c, 0, 60, 46
1, 136932, Note_on_c, 0, 62, 0
1, 136936, Control_c, 0, 64, 127
1, 136948, Note_on_c, 0, 60, 0
1, 136960, Note_on_c, 0, 72, 0
1, 136968, Note_on_c, 0, 67, 0
1, 137020, Note_on_c, 0, 76, 0
1, 137048, Note_on_c, 0, 72, 63
1, 137124, Note_on_c, 0, 72, 0
1, 137164, Note_on_c, 0, 67, 47
1, 137164, Note_on_c, 0, 46, 63
1, 137192, Note_on_c, 0, 46, 0
1, 137196, Note_on_c, 0, 67, 0
1, 137228, Control_c, 0, 64, 0
1, 137272, Note_on_c, 0, 75, 68
1, 137272, Note_on_c, 0, 67, 63
1, 137292, Note_on_c, 0, 55, 60
1, 137292, Note_on_c, 0, 72, 60
1, 137300, Note_on_c, 0, 45, 54
1, 137324, Control_c, 0, 64, 127
1, 137356, Note_on_c, 0, 45, 0
1, 137364, Note_on_c, 0, 55, 0
1, 137616, Note_on_c, 0, 60, 68
1, 137680, Note_on_c, 0, 72, 0
1, 137736, Note_on_c, 0, 75, 0
1, 137752, Note_on_c, 0, 67, 0
1, 137760, Note_on_c, 0, 60, 0
1, 137952, Note_on_c, 0, 61, 80
1, 137952, Note_on_c, 0, 60, 76
1, 137956, Control_c, 0, 64, 0
1, 137956, Note_on_c, 0, 65, 81
1, 137964, Note_on_c, 0, 55, 70
1, 137964, Note_on_c, 0, 64, 78
1, 137972, Note_on_c, 0, 58, 50
1, 137988, Note_on_c, 0, 64, 0
1, 138000, Note_on_c, 0, 58, 0
1, 138056, Note_on_c, 0, 58, 20
1, 138280, Note_on_c, 0, 87, 90
1, 138288, Note_on_c, 0, 75, 94
1, 138304, Control_c, 0, 64, 127
1, 138452, Note_on_c, 0, 65, 0
1, 138452, Note_on_c, 0, 55, 0
1, 138464, Note_on_c, 0, 75, 0
1, 138468, Note_on_c, 0, 87, 0
1, 138472, Note_on_c, 0, 58, 0
1, 138476, Note_on_c, 0, 60, 0
1, 138492, Control_c, 0, 64, 0
1, 138512, Note_on_c, 0, 61, 0
1, 138532, Note_on_c, 0, 86, 69
1, 138536, Note_on_c, 0, 74, 78
1, 138536, Note_on_c, 0, 60, 63
1, 138544, Note_on_c, 0, 64, 69
1, 138544, Note_on_c, 0, 54, 61
1, 138548, Note_on_c, 0, 85, 51
1, 138572, Note_on_c, 0, 85, 0
1, 138580, Control_c, 0, 64, 127
1, 138780, Note_on_c, 0, 64, 0
1, 138800, Note_on_c, 0, 60, 0
1, 138836, Note_on_c, 0, 54, 0
1, 138840, Note_on_c, 0, 86, 0
1, 138860, Note_on_c, 0, 74, 0
1, 138912, Control_c, 0, 64, 0
1, 138940, Note_on_c, 0, 50, 58
1, 138948, Note_on_c, 0, 84, 74
1, 138952, Note_on_c, 0, 60, 41
1, 138960, Note_on_c, 0, 72, 76
1, 138964, Note_on_c, 0, 54, 45
1, 139008, Control_c, 0, 64, 127
1, 139108, Note_on_c, 0, 84, 0
1, 139164, Note_on_c, 0, 72, 0
1, 139268, Note_on_c, 0, 50, 0
1, 139300, Note_on_c, 0, 54, 0
1, 139308, Note_on_c, 0, 60, 0
1, 139460, Note_on_c, 0, 80, 68
1, 139464, Note_on_c, 0, 68, 77
1, 139468, Control_c, 0, 64, 0
1, 139476, Note_on_c, 0, 74, 61
1, 139480, Note_on_c, 0, 54, 56
1, 139492, Note_on_c, 0, 60, 45
1, 139496, Note_on_c, 0, 65, 37
1, 139508, Note_on_c, 0, 64, 31
1, 139520, Note_on_c, 0, 81, 44
1, 139524, Note_on_c, 0, 68, 0
1, 139572, Note_on_c, 0, 65, 0
1, 139588, Note_on_c, 0, 74, 0
1, 139596, Note_on_c, 0, 80, 0
1, 139608, Note_on_c, 0, 60, 0
1, 139608, Note_on_c, 0, 64, 0
1, 139608, Note_on_c, 0, 81, 0
1, 139636, Note_on_c, 0, 77, 61
1, 139664, Control_c, 0, 64, 127
1, 139700, Note_on_c, 0, 77, 0
1, 139816, Note_on_c, 0, 58, 31
1, 139824, Note_on_c, 0, 54, 0
1, 139832, Control_c, 0, 64, 0
1, 139852, Note_on_c, 0, 58, 0
1, 139884, Note_on_c, 0, 65, 71
1, 139884, Note_on_c, 0, 76, 67
1, 139888, Note_on_c, 0, 73, 53
1, 139892, Note_on_c, 0, 64, 61
1, 139892, Note_on_c, 0, 69, 68
1, 139976, Note_on_c, 0, 65, 0
1, 139988, Note_on_c, 0, 69, 0
1, 140012, Note_on_c, 0, 76, 0
1, 140012, Note_on_c, 0, 64, 0
1, 140032, Note_on_c, 0, 73, 0
1, 140032, Note_on_c, 0, 63, 46
1, 140068, Note_on_c, 0, 63, 0
1, 140112, Note_on_c, 0, 62, 45
1, 140168, Note_on_c, 0, 62, 0
1, 140188, Note_on_c, 0, 61, 51
1, 140212, Note_on_c, 0, 61, 0
1, 140260, Note_on_c, 0, 73, 60
1, 140260, Note_on_c, 0, 59, 68
1, 140268, Note_on_c, 0, 65, 57
1, 140280, Note_on_c, 0, 69, 56
1, 140456, Note_on_c, 0, 65, 0
1, 140460, Note_on_c, 0, 69, 0
1, 140512, Note_on_c, 0, 73, 0
1, 140548, Note_on_c, 0, 59, 0
1, 140576, Note_on_c, 0, 62, 57
1, 140580, Note_on_c, 0, 74, 72
1, 140584, Note_on_c, 0, 65, 63
1, 140608, Note_on_c, 0, 69, 36
1, 140636, Control_c, 0, 64, 127
1, 140644, Note_on_c, 0, 69, 0
1, 140752, Note_on_c, 0, 65, 0
1, 140764, Control_c, 0, 64, 0
1, 140784, Note_on_c, 0, 74, 0
1, 140808, Note_on_c, 0, 62, 0
1, 140816, Note_on_c, 0, 65, 57
1, 140816, Note_on_c, 0, 59, 50
1, 140816, Note_on_c, 0, 68, 51
1, 140840, Note_on_c, 0, 71, 47
1, 140860, Control_c, 0, 64, 127
1, 140928, Note_on_c, 0, 71, 0
1, 140936, Note_on_c, 0, 59, 0
1, 140944, Note_on_c, 0, 65, 0
1, 140956, Note_on_c, 0, 68, 0
1, 141076, Control_c, 0, 64, 0
1, 141124, Note_on_c, 0, 62, 51
1, 141124, Note_on_c, 0, 65, 62
1, 141124, Note_on_c, 0, 58, 63
1, 141184, Control_c, 0, 64, 127
1, 141224, Note_on_c, 0, 58, 0
1, 141432, Note_on_c, 0, 48, 69
1, 141492, Note_on_c, 0, 48, 0
1, 141704, Note_on_c, 0, 36, 70
1, 141716, Control_c, 0, 64, 0
1, 141812, Control_c, 0, 64, 127
1, 141912, Note_on_c, 0, 24, 85
1, 142072, Control_c, 0, 64, 0
1, 142104, Note_on_c, 0, 24, 0
1, 142160, Note_on_c, 0, 24, 86
1, 142172, Control_c, 0, 64, 127
1, 142320, Note_on_c, 0, 24, 0
1, 142348, Control_c, 0, 64, 0
1, 142420, Control_c, 0, 64, 127
1, 142420, Note_on_c, 0, 24, 102
1, 142496, Note_on_c, 0, 62, 0
1, 142516, Note_on_c, 0, 65, 0
1, 142540, Note_on_c, 0, 24, 0
1, 142564, Note_on_c, 0, 36, 0
1, 142848, Control_c, 0, 64, 104
1, 142848, Control_c, 0, 64, 0
1, 142868, Note_on_c, 0, 72, 90
1, 142868, Note_on_c, 0, 65, 88
1, 142868, Note_on_c, 0, 61, 99
1, 142868, Note_on_c, 0, 60, 99
1, 142944, Control_c, 0, 64, 127
1, 143392, Control_c, 0, 64, 0
1, 143400, Note_on_c, 0, 60, 0
1, 143412, Note_on_c, 0, 48, 72
1, 143460, Note_on_c, 0, 72, 0
1, 143480, Note_on_c, 0, 65, 0
1, 143496, Control_c, 0, 64, 127
1, 143536, Note_on_c, 0, 61, 0
1, 143640, Note_on_c, 0, 48, 0
1, 143804, Control_c, 0, 64, 0
1, 143816, Note_on_c, 0, 46, 28
1, 143856, Note_on_c, 0, 61, 54
1, 143856, Note_on_c, 0, 58, 58
1, 143860, Note_on_c, 0, 52, 57
1, 143868, Note_on_c, 0, 46, 0
1, 144092, Note_on_c, 0, 48, 59
1, 144112, Control_c, 0, 64, 127
1, 144128, Note_on_c, 0, 52, 0
1, 144136, Note_on_c, 0, 48, 0
1, 144204, Note_on_c, 0, 58, 0
1, 144208, Note_on_c, 0, 61, 0
1, 144468, Control_c, 0, 64, 0
1, 144512, Note_on_c, 0, 70, 60
1, 144516, Note_on_c, 0, 61, 56
1, 144516, Note_on_c, 0, 55, 47
1, 144536, Note_on_c, 0, 64, 45
1, 144596, Note_on_c, 0, 61, 0
1, 144628, Note_on_c, 0, 64, 0
1, 144652, Note_on_c, 0, 55, 0
1, 144676, Note_on_c, 0, 70, 0
1, 144824, Note_on_c, 0, 61, 50
1, 144828, Note_on_c, 0, 64, 56
1, 144828, Note_on_c, 0, 53, 48
1, 144832, Note_on_c, 0, 69, 54
1, 144928, Note_on_c, 0, 69, 0
1, 144944, Note_on_c, 0, 64, 0
1, 144960, Note_on_c, 0, 61, 0
1, 144960, Note_on_c, 0, 53, 0
1, 145156, Note_on_c, 0, 68, 48
1, 145164, Note_on_c, 0, 63, 51
1, 145164, Note_on_c, 0, 52, 44
1, 145168, Note_on_c, 0, 60, 40
1, 145248, Control_c, 0, 64, 127
1, 145312, Note_on_c, 0, 60, 0
1, 145360, Note_on_c, 0, 63, 0
1, 145380, Note_on_c, 0, 52, 0
1, 145396, Note_on_c, 0, 60, 54
1, 145404, Note_on_c, 0, 64, 48
1, 145408, Note_on_c, 0, 53, 52
1, 145416, Note_on_c, 0, 69, 46
1, 145424, Note_on_c, 0, 68, 0
1, 145444, Note_on_c, 0, 69, 0
1, 145448, Note_on_c, 0, 64, 0
1, 145500, Note_on_c, 0, 60, 0
1, 145644, Note_on_c, 0, 53, 0
1, 145684, Control_c, 0, 64, 0
1, 145712, Note_on_c, 0, 65, 51
1, 145716, Note_on_c, 0, 60, 61
1, 145728, Note_on_c, 0, 48, 48
1, 145728, Note_on_c, 0, 55, 34
1, 145764, Note_on_c, 0, 48, 0
1, 145984, Note_on_c, 0, 55, 0
1, 146004, Note_on_c, 0, 34, 64
1, 146028, Note_on_c, 0, 65, 0
1, 146040, Note_on_c, 0, 60, 0
1, 146264, Note_on_c, 0, 34, 0
1, 146296, Note_on_c, 0, 63, 68
1, 146308, Note_on_c, 0, 60, 63
1, 146308, Note_on_c, 0, 55, 66
1, 146316, Note_on_c, 0, 45, 56
1, 146576, Note_on_c, 0, 45, 0
1, 146592, Note_on_c, 0, 37, 51
1, 146688, Note_on_c, 0, 37, 0
1, 146716, Note_on_c, 0, 55, 0
1, 146720, Note_on_c, 0, 39, 53
1, 146808, Note_on_c, 0, 63, 0
1, 146820, Note_on_c, 0, 60, 0
1, 146888, Note_on_c, 0, 39, 0
1, 146924, Note_on_c, 0, 54, 61
1, 146924, Note_on_c, 0, 62, 63
1, 146932, Note_on_c, 0, 38, 54
1, 146944, Note_on_c, 0, 57, 46
1, 146956, Note_on_c, 0, 54, 0
1, 146980, Note_on_c, 0, 57, 0
1, 147028, Note_on_c, 0, 62, 0
1, 147204, Control_c, 0, 64, 127
1, 147212, Note_on_c, 0, 38, 0
1, 147220, Note_on_c, 0, 26, 81
1, 147276, Note_on_c, 0, 26, 0
1, 147652, Control_c, 0, 64, 0
1, 147680, Note_on_c, 0, 73, 68
1, 147680, Note_on_c, 0, 58, 57
1, 147692, Note_on_c, 0, 64, 63
1, 147692, Note_on_c, 0, 69, 61
1, 147792, Note_on_c, 0, 64, 0
1, 147848, Note_on_c, 0, 69, 0
1, 147912, Note_on_c, 0, 73, 0
1, 147980, Note_on_c, 0, 58, 0
1, 148016, Note_on_c, 0, 59, 63
1, 148024, Note_on_c, 0, 69, 79
1, 148032, Note_on_c, 0, 74, 74
1, 148160, Control_c, 0, 64, 127
1, 148272, Note_on_c, 0, 74, 0
1, 148284, Note_on_c, 0, 69, 0
1, 148496, Note_on_c, 0, 59, 0
1, 148556, Note_on_c, 0, 62, 54
1, 148580, Note_on_c, 0, 50, 36
1, 148600, Note_on_c, 0, 62, 0
1, 148612, Note_on_c, 0, 50, 0
1, 148668, Note_on_c, 0, 65, 54
1, 148804, Note_on_c, 0, 65, 0
1, 148820, Control_c, 0, 64, 0
1, 148868, Note_on_c, 0, 50, 43
1, 148876, Note_on_c, 0, 58, 50
1, 148884, Note_on_c, 0, 69, 45
1, 148892, Note_on_c, 0, 65, 45
1, 148896, Note_on_c, 0, 50, 0
1, 148896, Note_on_c, 0, 62, 48
1, 148908, Note_on_c, 0, 53, 41
1, 148988, Control_c, 0, 64, 127
1, 149168, Note_on_c, 0, 53, 0
1, 149172, Note_on_c, 0, 43, 58
1, 149236, Note_on_c, 0, 43, 0
1, 149316, Note_on_c, 0, 62, 0
1, 149332, Note_on_c, 0, 65, 0
1, 149348, Note_on_c, 0, 58, 0
1, 149348, Note_on_c, 0, 69, 0
1, 149452, Control_c, 0, 64, 0
1, 149476, Note_on_c, 0, 58, 59
1, 149492, Note_on_c, 0, 61, 47
1, 149492, Note_on_c, 0, 64, 49
1, 149492, Note_on_c, 0, 67, 51
1, 149508, Note_on_c, 0, 46, 55
1, 149624, Control_c, 0, 64, 127
1, 149696, Note_on_c, 0, 58, 0
1, 149756, Note_on_c, 0, 67, 0
1, 149764, Note_on_c, 0, 61, 0
1, 149784, Note_on_c, 0, 34, 60
1, 149792, Note_on_c, 0, 64, 0
1, 149884, Note_on_c, 0, 46, 0
1, 149948, Note_on_c, 0, 34, 0
1, 150036, Control_c, 0, 64, 0
1, 150088, Note_on_c, 0, 33, 73
1, 150136, Control_c, 0, 64, 127
1, 150152, Note_on_c, 0, 33, 0
1, 150708, Note_on_c, 0, 55, 63
1, 150716, Note_on_c, 0, 64, 72
1, 150716, Note_on_c, 0, 57, 55
1, 150716, Note_on_c, 0, 60, 64
1, 150720, Control_c, 0, 64, 0
1, 150796, Control_c, 0, 64, 127
1, 151012, Note_on_c, 0, 86, 98
1, 151016, Note_on_c, 0, 74, 98
1, 151076, Note_on_c, 0, 74, 0
1, 151108, Note_on_c, 0, 86, 0
1, 151212, Note_on_c, 0, 87, 96
1, 151216, Note_on_c, 0, 75, 92
1, 151292, Note_on_c, 0, 64, 0
1, 151296, Note_on_c, 0, 55, 0
1, 151312, Note_on_c, 0, 57, 0
1, 151320, Note_on_c, 0, 60, 0
1, 151348, Note_on_c, 0, 75, 0
1, 151360, Note_on_c, 0, 87, 0
1, 151396, Control_c, 0, 64, 40
1, 151396, Control_c, 0, 64, 0
1, 151420, Note_on_c, 0, 54, 78
1, 151420, Note_on_c, 0, 60, 61
1, 151420, Note_on_c, 0, 65, 85
1, 151424, Note_on_c, 0, 89, 115
1, 151428, Note_on_c, 0, 77, 96
1, 151508, Control_c, 0, 64, 127
1, 151792, Note_on_c, 0, 89, 0
1, 151820, Note_on_c, 0, 77, 0
1, 151828, Note_on_c, 0, 65, 0
1, 151868, Note_on_c, 0, 54, 0
1, 151868, Note_on_c, 0, 60, 0
1, 151948, Note_on_c, 0, 87, 85
1, 151952, Note_on_c, 0, 54, 66
1, 151952, Note_on_c, 0, 75, 85
1, 151956, Note_on_c, 0, 64, 72
1, 151960, Note_on_c, 0, 60, 57
1, 152024, Control_c, 0, 64, 0
1, 152072, Note_on_c, 0, 64, 0
1, 152092, Note_on_c, 0, 87, 0
1, 152096, Control_c, 0, 64, 127
1, 152112, Note_on_c, 0, 75, 0
1, 152140, Note_on_c, 0, 86, 75
1, 152148, Note_on_c, 0, 64, 42
1, 152152, Note_on_c, 0, 74, 57
1, 152184, Note_on_c, 0, 64, 0
1, 152276, Note_on_c, 0, 86, 0
1, 152280, Note_on_c, 0, 74, 0
1, 152312, Note_on_c, 0, 54, 0
1, 152344, Note_on_c, 0, 84, 56
1, 152344, Note_on_c, 0, 54, 27
1, 152360, Note_on_c, 0, 72, 62
1, 152376, Note_on_c, 0, 64, 42
1, 152412, Note_on_c, 0, 64, 0
1, 152432, Note_on_c, 0, 72, 0
1, 152440, Note_on_c, 0, 60, 0
1, 152440, Note_on_c, 0, 84, 0
1, 152528, Note_on_c, 0, 54, 0
1, 152528, Control_c, 0, 64, 0
1, 152608, Control_c, 0, 64, 127
1, 152612, Note_on_c, 0, 85, 75
1, 152612, Note_on_c, 0, 64, 56
1, 152616, Note_on_c, 0, 73, 68
1, 152620, Note_on_c, 0, 53, 48
1, 152624, Note_on_c, 0, 59, 55
1, 152644, Note_on_c, 0, 64, 0
1, 152676, Note_on_c, 0, 59, 0
1, 152720, Note_on_c, 0, 53, 0
1, 152796, Note_on_c, 0, 73, 0
1, 152812, Note_on_c, 0, 85, 0
1, 152868, Control_c, 0, 64, 0
1, 152904, Note_on_c, 0, 43, 67
1, 152904, Note_on_c, 0, 86, 72
1, 152912, Note_on_c, 0, 74, 56
1, 152968, Control_c, 0, 64, 56
1, 152968, Control_c, 0, 64, 127
1, 152988, Note_on_c, 0, 86, 0
1, 153028, Note_on_c, 0, 74, 0
1, 153232, Note_on_c, 0, 46, 36
1, 153260, Control_c, 0, 64, 0
1, 153276, Note_on_c, 0, 49, 38
1, 153284, Note_on_c, 0, 46, 0
1, 153312, Note_on_c, 0, 62, 46
1, 153316, Note_on_c, 0, 49, 0
1, 153316, Note_on_c, 0, 53, 55
1, 153320, Note_on_c, 0, 50, 49
1, 153328, Note_on_c, 0, 43, 0
1, 153332, Note_on_c, 0, 58, 45
1, 153336, Note_on_c, 0, 55, 36
1, 153372, Note_on_c, 0, 55, 0
1, 153392, Note_on_c, 0, 62, 0
1, 153404, Note_on_c, 0, 58, 0
1, 153452, Note_on_c, 0, 53, 0
1, 153496, Note_on_c, 0, 50, 0
1, 153620, Note_on_c, 0, 52, 39
1, 153620, Note_on_c, 0, 65, 61
1, 153624, Note_on_c, 0, 58, 57
1, 153632, Note_on_c, 0, 55, 52
1, 153640, Note_on_c, 0, 53, 50
1, 153648, Note_on_c, 0, 52, 0
1, 153688, Note_on_c, 0, 55, 0
1, 153708, Note_on_c, 0, 58, 0
1, 153708, Note_on_c, 0, 53, 0
1, 153712, Note_on_c, 0, 65, 0
1, 153872, Note_on_c, 0, 46, 33
1, 153912, Note_on_c, 0, 46, 0
1, 153924, Note_on_c, 0, 47, 44
1, 153952, Note_on_c, 0, 47, 0
1, 153956, Note_on_c, 0, 58, 55
1, 153956, Note_on_c, 0, 48, 49
1, 153964, Note_on_c, 0, 69, 57
1, 153980, Note_on_c, 0, 62, 45
1, 153984, Note_on_c, 0, 65, 45
1, 154196, Note_on_c, 0, 36, 59
1, 154200, Note_on_c, 0, 48, 0
1, 154256, Control_c, 0, 64, 127
1, 154276, Note_on_c, 0, 62, 0
1, 154296, Note_on_c, 0, 65, 0
1, 154360, Note_on_c, 0, 58, 0
1, 154376, Note_on_c, 0, 69, 0
1, 154624, Control_c, 0, 64, 0
1, 154656, Note_on_c, 0, 58, 61
1, 154664, Note_on_c, 0, 61, 55
1, 154672, Note_on_c, 0, 48, 51
1, 154672, Note_on_c, 0, 69, 41
1, 154688, Note_on_c, 0, 64, 46
1, 154720, Note_on_c, 0, 69, 0
1, 154724, Note_on_c, 0, 58, 0
1, 154732, Note_on_c, 0, 64, 0
1, 154764, Control_c, 0, 64, 56
1, 154768, Control_c, 0, 64, 127
1, 154776, Note_on_c, 0, 61, 0
1, 154840, Control_c, 0, 64, 0
1, 154888, Note_on_c, 0, 60, 46
1, 154908, Note_on_c, 0, 36, 0
1, 154920, Note_on_c, 0, 60, 0
1, 154956, Note_on_c, 0, 48, 0
1, 154992, Note_on_c, 0, 62, 55
1, 155164, Note_on_c, 0, 62, 0
1, 155216, Note_on_c, 0, 65, 60
1, 155272, Control_c, 0, 64, 127
1, 155444, Control_c, 0, 64, 24
1, 155444, Control_c, 0, 64, 0
1, 155496, Note_on_c, 0, 47, 49
1, 155508, Note_on_c, 0, 57, 39
1, 155508, Note_on_c, 0, 62, 44
1, 155564, Note_on_c, 0, 47, 0
1, 155588, Note_on_c, 0, 57, 0
1, 155632, Note_on_c, 0, 65, 0
1, 155684, Note_on_c, 0, 62, 0
1, 155692, Note_on_c, 0, 56, 41
1, 155696, Note_on_c, 0, 61, 49
1, 155696, Note_on_c, 0, 46, 39
1, 155708, Note_on_c, 0, 65, 18
1, 155784, Note_on_c, 0, 46, 0
1, 155840, Note_on_c, 0, 56, 0
1, 155848, Note_on_c, 0, 65, 0
1, 155852, Note_on_c, 0, 61, 0
1, 155892, Note_on_c, 0, 65, 21
1, 155912, Note_on_c, 0, 45, 45
1, 155912, Note_on_c, 0, 60, 55
1, 155916, Note_on_c, 0, 55, 41
1, 155976, Note_on_c, 0, 45, 0
1, 155988, Note_on_c, 0, 55, 0
1, 156024, Note_on_c, 0, 60, 0
1, 156040, Note_on_c, 0, 65, 0
1, 156176, Note_on_c, 0, 54, 54
1, 156184, Note_on_c, 0, 65, 35
1, 156188, Note_on_c, 0, 32, 39
1, 156192, Note_on_c, 0, 44, 34
1, 156192, Note_on_c, 0, 59, 52
1, 156260, Note_on_c, 0, 54, 0
1, 156260, Note_on_c, 0, 44, 0
1, 156260, Note_on_c, 0, 59, 0
1, 156292, Note_on_c, 0, 32, 0
1, 156400, Note_on_c, 0, 43, 39
1, 156408, Note_on_c, 0, 58, 46
1, 156412, Note_on_c, 0, 31, 31
1, 156412, Note_on_c, 0, 53, 31
1, 156464, Note_on_c, 0, 43, 0
1, 156464, Note_on_c, 0, 31, 0
1, 156480, Note_on_c, 0, 53, 0
1, 156516, Note_on_c, 0, 58, 0
1, 156568, Note_on_c, 0, 65, 0
1, 156696, Note_on_c, 0, 42, 42
1, 156696, Note_on_c, 0, 58, 53
1, 156700, Note_on_c, 0, 30, 42
1, 156700, Note_on_c, 0, 65, 33
1, 156708, Note_on_c, 0, 53, 36
1, 156712, Control_c, 0, 64, 127
1, 157708, Note_on_c, 0, 53, 0
1, 157732, Note_on_c, 0, 42, 0
1, 157808, Note_on_c, 0, 30, 0
1, 157924, Note_on_c, 0, 65, 0
1, 157952, Note_on_c, 0, 58, 0
1, 158168, Note_on_c, 0, 35, 74
1, 158172, Note_on_c, 0, 59, 96
1, 158204, Control_c, 0, 64, 0
1, 158296, Note_on_c, 0, 35, 0
1, 158304, Note_on_c, 0, 59, 0
1, 158308, Note_on_c, 0, 36, 57
1, 158328, Note_on_c, 0, 60, 53
1, 158504, Note_on_c, 0, 60, 0
1, 158512, Note_on_c, 0, 36, 0
1, 158532, Note_on_c, 0, 53, 61
1, 158540, Note_on_c, 0, 29, 52
1, 158556, Control_c, 0, 64, 127
1, 158608, Note_on_c, 0, 53, 0
1, 158636, Control_c, 0, 64, 0
1, 158672, Note_on_c, 0, 29, 0
1, 159576, Note_on_c, 0, 101, 48
1, 159596, Note_on_c, 0, 29, 31
1, 159640, Note_on_c, 0, 101, 0
1, 159680, Note_on_c, 0, 29, 0
1, 163044, End_track
0, 0, End_of_file
