0, 0, Header, 0, 1, 384
1, 0, Start_track
1, 0, Title_t, "I'm Old Fashioned - "
1, 0, Title_t, "Bass"
1, 0, Text_t, "dougmck@tpg.com.au Two piano duet - followed by jazz piano trio\012"
1, 0, Text_t, "HiHat\012"
1, 0, System_exclusive, 5, 126, 127, 9, 1, 247
1, 1, System_exclusive, 8, 67, 16, 76, 0, 0, 126, 0, 247
1, 1, System_exclusive, 8, 67, 16, 76, 8, 15, 0, 1, 247
1, 1, System_exclusive, 8, 67, 16, 76, 8, 14, 0, 1, 247
1, 1, System_exclusive, 8, 67, 16, 76, 8, 13, 0, 1, 247
1, 1, System_exclusive, 8, 67, 16, 76, 8, 12, 0, 1, 247
1, 1, System_exclusive, 8, 67, 16, 76, 8, 11, 0, 1, 247
1, 1, System_exclusive, 8, 67, 16, 76, 8, 10, 0, 1, 247
1, 1, System_exclusive, 8, 67, 16, 76, 8, 9, 0, 0, 247
1, 1, System_exclusive, 8, 67, 16, 76, 8, 8, 0, 1, 247
1, 1, System_exclusive, 8, 67, 16, 76, 8, 7, 0, 1, 247
1, 1, System_exclusive, 8, 67, 16, 76, 8, 6, 0, 1, 247
1, 1, System_exclusive, 8, 67, 16, 76, 8, 5, 0, 1, 247
1, 1, System_exclusive, 8, 67, 16, 76, 8, 4, 0, 2, 247
1, 1, System_exclusive, 8, 67, 16, 76, 8, 3, 0, 2, 247
1, 1, System_exclusive, 8, 67, 16, 76, 8, 2, 0, 4, 247
1, 1, System_exclusive, 8, 67, 16, 76, 8, 1, 0, 4, 247
1, 1, System_exclusive, 8, 67, 16, 76, 8, 0, 0, 8, 247
1, 1, System_exclusive, 8, 67, 16, 76, 8, 0, 7, 0, 247
1, 1, System_exclusive, 8, 67, 16, 76, 8, 1, 7, 0, 247
1, 1, System_exclusive, 8, 67, 16, 76, 8, 2, 7, 0, 247
1, 1, System_exclusive, 8, 67, 16, 76, 8, 3, 7, 0, 247
1, 1, System_exclusive, 8, 67, 16, 76, 8, 4, 7, 0, 247
1, 1, System_exclusive, 8, 67, 16, 76, 8, 5, 7, 0, 247
1, 1, System_exclusive, 8, 67, 16, 76, 8, 6, 7, 0, 247
1, 1, System_exclusive, 8, 67, 16, 76, 8, 7, 7, 0, 247
1, 1, System_exclusive, 8, 67, 16, 76, 8, 8, 7, 0, 247
1, 1, System_exclusive, 8, 67, 16, 76, 8, 9, 7, 2, 247
1, 1, System_exclusive, 8, 67, 16, 76, 8, 10, 7, 0, 247
1, 1, System_exclusive, 8, 67, 16, 76, 8, 11, 7, 0, 247
1, 1, System_exclusive, 8, 67, 16, 76, 8, 12, 7, 0, 247
1, 1, System_exclusive, 8, 67, 16, 76, 8, 13, 7, 0, 247
1, 1, System_exclusive, 8, 67, 16, 76, 8, 14, 7, 0, 247
1, 1, System_exclusive, 8, 67, 16, 76, 8, 15, 7, 0, 247
1, 1, System_exclusive, 9, 67, 16, 76, 2, 1, 0, 1, 0, 247
1, 1, System_exclusive, 9, 67, 16, 76, 2, 1, 32, 65, 0, 247
1, 1, System_exclusive, 9, 67, 16, 76, 2, 1, 64, 5, 0, 247
1, 1, System_exclusive, 8, 67, 16, 76, 8, 1, 32, 16, 247
1, 1, System_exclusive, 8, 67, 16, 76, 8, 9, 32, 16, 247
1, 1, System_exclusive, 9, 67, 16, 76, 3, 0, 0, 3, 18, 247
1, 1, System_exclusive, 8, 67, 16, 76, 3, 0, 11, 5, 247
1, 1, System_exclusive, 8, 67, 16, 76, 3, 0, 12, 0, 247
1, 1, System_exclusive, 8, 67, 16, 76, 8, 0, 114, 64, 247
1, 1, System_exclusive, 8, 67, 16, 76, 8, 0, 115, 95, 247
1, 1, System_exclusive, 8, 67, 16, 76, 8, 0, 119, 46, 247
1, 1, Time_signature, 4, 2, 24, 8
1, 1, Key_signature, 0, "major"
1, 1, Tempo, 447761
1, 1, Sequencer_specific, 21, 67, 115, 10, 0, 5, 75, 90, 79, 79, 79, 79, 79, 79, 79, 90, 79, 79, 79, 79, 79, 79
1, 1, Sequencer_specific, 6, 67, 115, 10, 0, 4, 1
1, 1, Sequencer_specific, 9, 67, 123, 0, 88, 70, 48, 50, 0, 0
1, 385, Control_c, 0, 0, 0
1, 385, Control_c, 0, 32, 122
1, 385, Program_c, 0, 0
1, 386, Control_c, 0, 7, 107
1, 386, Control_c, 0, 10, 64
1, 386, Control_c, 0, 91, 10
1, 386, Control_c, 0, 93, 0
1, 387, Control_c, 1, 0, 0
1, 387, Control_c, 1, 32, 122
1, 387, Program_c, 1, 32
1, 388, Control_c, 1, 7, 88
1, 403, Program_c, 9, 0
1, 404, Control_c, 9, 7, 90
1, 6592, Control_c, 0, 11, 127
1, 6592, Control_c, 0, 94, 0
1, 6592, Control_c, 0, 101, 0
1, 6593, Control_c, 0, 100, 1
1, 6594, Control_c, 0, 6, 64
1, 6595, Control_c, 0, 38, 0
1, 6595, Pitch_bend_c, 0, 8192
1, 6595, Control_c, 0, 71, 43
1, 6595, Control_c, 0, 74, 46
1, 7360, Note_on_c, 0, 77, 63
1, 7392, Note_on_c, 0, 57, 39
1, 7404, Note_on_c, 0, 65, 36
1, 7408, Note_on_c, 0, 60, 46
1, 7416, Note_on_c, 0, 69, 28
1, 7480, Control_c, 0, 64, 127
1, 8112, Note_on_c, 0, 60, 0
1, 8436, Note_on_c, 0, 60, 39
1, 8516, Note_on_c, 0, 77, 0
1, 8840, Note_on_c, 0, 69, 0
1, 9344, Note_on_c, 0, 65, 0
1, 9436, Note_on_c, 0, 60, 0
1, 9444, Note_on_c, 0, 72, 76
1, 9532, Note_on_c, 0, 57, 0
1, 9664, Note_on_c, 0, 72, 0
1, 9880, Note_on_c, 0, 72, 63
1, 9924, Note_on_c, 0, 67, 66
1, 9940, Control_c, 0, 64, 0
1, 9940, Note_on_c, 0, 58, 42
1, 9964, Note_on_c, 0, 64, 42
1, 10152, Control_c, 0, 64, 127
1, 10308, Note_on_c, 0, 72, 0
1, 10448, Note_on_c, 0, 72, 57
1, 10720, Note_on_c, 0, 58, 0
1, 10740, Note_on_c, 0, 72, 0
1, 10808, Note_on_c, 0, 67, 0
1, 10844, Note_on_c, 0, 64, 0
1, 11032, Note_on_c, 0, 72, 40
1, 11048, Note_on_c, 0, 58, 36
1, 11060, Note_on_c, 0, 67, 42
1, 11072, Note_on_c, 0, 64, 22
1, 11716, Note_on_c, 0, 64, 0
1, 11812, Note_on_c, 0, 67, 0
1, 11832, Note_on_c, 0, 72, 0
1, 12304, Note_on_c, 0, 72, 98
1, 12620, Note_on_c, 0, 72, 0
1, 12704, Note_on_c, 0, 72, 85
1, 12936, Note_on_c, 0, 72, 0
1, 13092, Note_on_c, 0, 72, 72
1, 13116, Note_on_c, 0, 58, 0
1, 13368, Note_on_c, 0, 72, 0
1, 13472, Note_on_c, 0, 72, 57
1, 13692, Note_on_c, 0, 72, 0
1, 13836, Note_on_c, 0, 72, 55
1, 14088, Note_on_c, 0, 72, 0
1, 14176, Note_on_c, 0, 72, 38
1, 14288, Note_on_c, 0, 72, 0
1, 14408, Note_on_c, 0, 72, 58
1, 14524, Note_on_c, 0, 72, 0
1, 14588, Note_on_c, 0, 72, 57
1, 14688, Note_on_c, 0, 72, 0
1, 14756, Note_on_c, 0, 72, 68
1, 14852, Note_on_c, 0, 72, 0
1, 14924, Note_on_c, 0, 72, 72
1, 15008, Note_on_c, 0, 72, 0
1, 15104, Note_on_c, 0, 72, 69
1, 15216, Note_on_c, 0, 72, 0
1, 15284, Note_on_c, 0, 72, 77
1, 15440, Note_on_c, 0, 72, 0
1, 15524, Note_on_c, 0, 81, 60
1, 15528, Note_on_c, 0, 57, 46
1, 15528, Note_on_c, 0, 60, 43
1, 15536, Note_on_c, 0, 65, 42
1, 15616, Control_c, 0, 64, 0
1, 15792, Control_c, 0, 64, 127
1, 15936, Note_on_c, 0, 60, 0
1, 16072, Note_on_c, 0, 60, 30
1, 16076, Note_on_c, 0, 65, 0
1, 16084, Note_on_c, 0, 81, 0
1, 16568, Note_on_c, 0, 65, 25
1, 16592, Note_on_c, 0, 69, 13
1, 16856, Note_on_c, 0, 69, 0
1, 16988, Note_on_c, 0, 65, 0
1, 17072, Note_on_c, 0, 72, 52
1, 17116, Note_on_c, 0, 60, 0
1, 17276, Note_on_c, 0, 57, 0
1, 17292, Note_on_c, 0, 72, 0
1, 17660, Note_on_c, 0, 72, 51
1, 17700, Note_on_c, 0, 67, 39
1, 17704, Note_on_c, 0, 64, 35
1, 17716, Note_on_c, 0, 58, 41
1, 17724, Control_c, 0, 64, 0
1, 17956, Control_c, 0, 64, 127
1, 18092, Note_on_c, 0, 72, 0
1, 18188, Note_on_c, 0, 72, 74
1, 18460, Note_on_c, 0, 64, 0
1, 18464, Note_on_c, 0, 72, 0
1, 18516, Note_on_c, 0, 67, 0
1, 18652, Note_on_c, 0, 58, 0
1, 18656, Note_on_c, 0, 72, 47
1, 18704, Note_on_c, 0, 67, 56
1, 18728, Note_on_c, 0, 64, 52
1, 18788, Note_on_c, 0, 58, 38
1, 19148, Note_on_c, 0, 72, 0
1, 19692, Note_on_c, 0, 58, 0
1, 19788, Note_on_c, 0, 72, 56
1, 20108, Note_on_c, 0, 67, 0
1, 20156, Note_on_c, 0, 72, 0
1, 20192, Note_on_c, 0, 64, 0
1, 20796, Note_on_c, 0, 70, 78
1, 20828, Note_on_c, 0, 62, 51
1, 20828, Note_on_c, 0, 53, 39
1, 20844, Note_on_c, 0, 41, 39
1, 20852, Control_c, 0, 64, 0
1, 21008, Control_c, 0, 64, 127
1, 21368, Note_on_c, 0, 53, 0
1, 21372, Note_on_c, 0, 48, 49
1, 21588, Note_on_c, 0, 70, 0
1, 21596, Note_on_c, 0, 62, 0
1, 21944, Note_on_c, 0, 69, 82
1, 21980, Note_on_c, 0, 57, 56
1, 21980, Note_on_c, 0, 60, 66
1, 22428, Note_on_c, 0, 48, 0
1, 23436, Note_on_c, 0, 57, 0
1, 23500, Note_on_c, 0, 48, 40
1, 23708, Note_on_c, 0, 69, 0
1, 23720, Note_on_c, 0, 41, 0
1, 23788, Note_on_c, 0, 60, 0
1, 23984, Note_on_c, 0, 48, 0
1, 24376, Control_c, 0, 64, 0
1, 24384, Note_on_c, 0, 60, 47
1, 24392, Note_on_c, 0, 52, 46
1, 24392, Note_on_c, 0, 55, 48
1, 24396, Note_on_c, 0, 48, 36
1, 24400, Note_on_c, 0, 57, 47
1, 24580, Control_c, 0, 64, 127
1, 24848, Note_on_c, 0, 60, 0
1, 24980, Note_on_c, 0, 57, 0
1, 24992, Note_on_c, 0, 52, 0
1, 25040, Note_on_c, 0, 60, 78
1, 25116, Note_on_c, 0, 55, 0
1, 25228, Note_on_c, 0, 60, 0
1, 25396, Note_on_c, 0, 60, 81
1, 25436, Note_on_c, 0, 48, 0
1, 25480, Note_on_c, 0, 60, 0
1, 25656, Note_on_c, 0, 69, 90
1, 25904, Note_on_c, 0, 69, 0
1, 25928, Note_on_c, 0, 40, 34
1, 25960, Control_c, 0, 64, 0
1, 25964, Note_on_c, 0, 67, 82
1, 25988, Note_on_c, 0, 55, 36
1, 26096, Control_c, 0, 64, 127
1, 26220, Note_on_c, 0, 55, 0
1, 26236, Note_on_c, 0, 40, 0
1, 26496, Note_on_c, 0, 57, 54
1, 26504, Note_on_c, 0, 62, 54
1, 26524, Note_on_c, 0, 58, 46
1, 26532, Note_on_c, 0, 67, 0
1, 26848, Note_on_c, 0, 69, 81
1, 27004, Note_on_c, 0, 70, 85
1, 27028, Note_on_c, 0, 69, 0
1, 27096, Note_on_c, 0, 70, 0
1, 27180, Note_on_c, 0, 74, 94
1, 27216, Note_on_c, 0, 57, 0
1, 27240, Note_on_c, 0, 58, 0
1, 27264, Note_on_c, 0, 62, 0
1, 27272, Note_on_c, 0, 74, 0
1, 27356, Note_on_c, 0, 77, 115
1, 27460, Note_on_c, 0, 77, 0
1, 27560, Note_on_c, 0, 81, 122
1, 27680, Note_on_c, 0, 81, 0
1, 27768, Note_on_c, 0, 82, 115
1, 27940, Note_on_c, 0, 82, 0
1, 28028, Note_on_c, 0, 61, 60
1, 28028, Note_on_c, 0, 84, 122
1, 28028, Note_on_c, 0, 55, 63
1, 28028, Note_on_c, 0, 66, 61
1, 28080, Control_c, 0, 64, 0
1, 28324, Note_on_c, 0, 82, 82
1, 28552, Note_on_c, 0, 84, 0
1, 28600, Note_on_c, 0, 82, 0
1, 28624, Note_on_c, 0, 84, 68
1, 28632, Note_on_c, 0, 82, 42
1, 28636, Note_on_c, 0, 73, 74
1, 28668, Note_on_c, 0, 75, 45
1, 28704, Note_on_c, 0, 75, 0
1, 29108, Control_c, 0, 64, 127
1, 29272, Note_on_c, 0, 73, 0
1, 29276, Note_on_c, 0, 84, 0
1, 29312, Note_on_c, 0, 82, 0
1, 29356, Note_on_c, 0, 84, 50
1, 29368, Note_on_c, 0, 82, 43
1, 29368, Note_on_c, 0, 72, 50
1, 29628, Note_on_c, 0, 72, 0
1, 29768, Note_on_c, 0, 84, 0
1, 29892, Note_on_c, 0, 70, 49
1, 29900, Note_on_c, 0, 66, 0
1, 30092, Note_on_c, 0, 61, 0
1, 30180, Note_on_c, 0, 70, 0
1, 30188, Note_on_c, 0, 82, 0
1, 30308, Note_on_c, 0, 69, 51
1, 30680, Note_on_c, 0, 69, 0
1, 30752, Note_on_c, 0, 55, 0
1, 30776, Note_on_c, 0, 67, 33
1, 31632, Note_on_c, 0, 67, 0
1, 31668, Note_on_c, 0, 65, 32
1, 32188, Note_on_c, 0, 65, 0
1, 32216, Note_on_c, 0, 38, 36
1, 32220, Note_on_c, 0, 67, 41
1, 32224, Control_c, 0, 64, 0
1, 32328, Control_c, 0, 64, 127
1, 32512, Note_on_c, 0, 67, 0
1, 32516, Note_on_c, 0, 45, 46
1, 32640, Note_on_c, 0, 38, 0
1, 32712, Note_on_c, 0, 45, 0
1, 32744, Note_on_c, 0, 52, 54
1, 32908, Note_on_c, 0, 52, 0
1, 32944, Note_on_c, 0, 53, 53
1, 32960, Note_on_c, 0, 55, 36
1, 33000, Note_on_c, 0, 55, 0
1, 33120, Note_on_c, 0, 57, 72
1, 33236, Note_on_c, 0, 57, 0
1, 33288, Note_on_c, 0, 60, 78
1, 33344, Note_on_c, 0, 57, 37
1, 33452, Note_on_c, 0, 60, 0
1, 33472, Note_on_c, 0, 67, 78
1, 33556, Note_on_c, 0, 67, 0
1, 33572, Note_on_c, 0, 53, 0
1, 33664, Note_on_c, 0, 72, 76
1, 33696, Note_on_c, 0, 57, 0
1, 33832, Note_on_c, 0, 72, 0
1, 33884, Note_on_c, 0, 76, 82
1, 34072, Note_on_c, 0, 76, 0
1, 34108, Note_on_c, 0, 79, 79
1, 34240, Note_on_c, 0, 79, 0
1, 34404, Note_on_c, 0, 81, 87
1, 34656, Note_on_c, 0, 81, 0
1, 34716, Note_on_c, 0, 77, 69
1, 35012, Note_on_c, 0, 77, 0
1, 35068, Control_c, 0, 64, 0
1, 35072, Note_on_c, 0, 59, 39
1, 35072, Note_on_c, 0, 76, 53
1, 35076, Note_on_c, 0, 64, 38
1, 35092, Note_on_c, 0, 53, 37
1, 35188, Control_c, 0, 64, 127
1, 35316, Note_on_c, 0, 76, 0
1, 35496, Note_on_c, 0, 76, 45
1, 35500, Note_on_c, 0, 64, 0
1, 35544, Note_on_c, 0, 59, 0
1, 35588, Note_on_c, 0, 53, 0
1, 35792, Note_on_c, 0, 76, 0
1, 35932, Note_on_c, 0, 76, 52
1, 35944, Note_on_c, 0, 43, 31
1, 35944, Note_on_c, 0, 65, 38
1, 35948, Note_on_c, 0, 31, 36
1, 35952, Note_on_c, 0, 69, 41
1, 35996, Note_on_c, 0, 65, 0
1, 36032, Note_on_c, 0, 69, 0
1, 36036, Note_on_c, 0, 31, 0
1, 36064, Note_on_c, 0, 43, 0
1, 36100, Note_on_c, 0, 76, 0
1, 36672, Note_on_c, 0, 88, 51
1, 36688, Note_on_c, 0, 77, 31
1, 36700, Note_on_c, 0, 59, 40
1, 36700, Note_on_c, 0, 64, 32
1, 36708, Note_on_c, 0, 81, 40
1, 36724, Note_on_c, 0, 53, 31
1, 37084, Note_on_c, 0, 88, 0
1, 37128, Note_on_c, 0, 81, 0
1, 37172, Note_on_c, 0, 77, 0
1, 37204, Note_on_c, 0, 64, 0
1, 37380, Note_on_c, 0, 53, 0
1, 37476, Note_on_c, 0, 59, 0
1, 37900, Note_on_c, 0, 62, 99
1, 38216, Note_on_c, 0, 62, 0
1, 38220, Note_on_c, 0, 64, 63
1, 38328, Note_on_c, 0, 62, 66
1, 38336, Note_on_c, 0, 64, 0
1, 38472, Note_on_c, 0, 61, 66
1, 38488, Note_on_c, 0, 62, 0
1, 38580, Note_on_c, 0, 61, 0
1, 38752, Note_on_c, 0, 62, 68
1, 38960, Note_on_c, 0, 62, 0
1, 38980, Note_on_c, 0, 63, 75
1, 39084, Note_on_c, 0, 63, 0
1, 39092, Note_on_c, 0, 64, 75
1, 39188, Note_on_c, 0, 65, 60
1, 39196, Note_on_c, 0, 64, 0
1, 39284, Note_on_c, 0, 66, 68
1, 39304, Note_on_c, 0, 65, 0
1, 39404, Note_on_c, 0, 66, 0
1, 39432, Note_on_c, 0, 67, 86
1, 39496, Note_on_c, 0, 60, 38
1, 39516, Note_on_c, 0, 50, 43
1, 39588, Control_c, 0, 64, 0
1, 39600, Note_on_c, 0, 67, 1
1, 39824, Control_c, 0, 64, 127
1, 39944, Note_on_c, 0, 60, 0
1, 39972, Note_on_c, 0, 57, 45
1, 40228, Note_on_c, 0, 67, 0
1, 40284, Note_on_c, 0, 69, 66
1, 40288, Note_on_c, 0, 65, 68
1, 40292, Note_on_c, 0, 60, 48
1, 40312, Note_on_c, 0, 67, 0
1, 40484, Note_on_c, 0, 57, 0
1, 40544, Note_on_c, 0, 69, 0
1, 40560, Note_on_c, 0, 65, 0
1, 40588, Note_on_c, 0, 60, 0
1, 40596, Note_on_c, 0, 67, 70
1, 40596, Note_on_c, 0, 64, 75
1, 40604, Note_on_c, 0, 57, 39
1, 40732, Note_on_c, 0, 50, 0
1, 40824, Note_on_c, 0, 67, 0
1, 40852, Note_on_c, 0, 64, 0
1, 40928, Note_on_c, 0, 65, 68
1, 40932, Note_on_c, 0, 62, 67
1, 40940, Note_on_c, 0, 57, 0
1, 40940, Note_on_c, 0, 50, 52
1, 40996, Note_on_c, 0, 62, 0
1, 41004, Note_on_c, 0, 65, 0
1, 41012, Note_on_c, 0, 50, 0
1, 41336, Control_c, 0, 64, 0
1, 41372, Note_on_c, 0, 64, 59
1, 41384, Note_on_c, 0, 61, 54
1, 41388, Note_on_c, 0, 53, 49
1, 41388, Note_on_c, 0, 57, 55
1, 41396, Note_on_c, 0, 43, 46
1, 41396, Note_on_c, 0, 31, 41
1, 41432, Note_on_c, 0, 53, 0
1, 41456, Control_c, 0, 64, 127
1, 41472, Note_on_c, 0, 31, 0
1, 41480, Note_on_c, 0, 57, 0
1, 41512, Note_on_c, 0, 61, 0
1, 41528, Note_on_c, 0, 43, 0
1, 41532, Note_on_c, 0, 64, 0
1, 41880, Note_on_c, 0, 65, 54
1, 41880, Note_on_c, 0, 76, 60
1, 41880, Note_on_c, 0, 73, 54
1, 41884, Note_on_c, 0, 69, 57
1, 41892, Note_on_c, 0, 59, 43
1, 42168, Note_on_c, 0, 65, 0
1, 42176, Note_on_c, 0, 69, 0
1, 42212, Note_on_c, 0, 73, 0
1, 42224, Note_on_c, 0, 76, 0
1, 42240, Note_on_c, 0, 59, 0
1, 42448, Note_on_c, 0, 76, 55
1, 42448, Note_on_c, 0, 73, 47
1, 42448, Note_on_c, 0, 69, 48
1, 42452, Note_on_c, 0, 65, 40
1, 42452, Note_on_c, 0, 59, 41
1, 42768, Note_on_c, 0, 59, 0
1, 42768, Note_on_c, 0, 76, 0
1, 42788, Note_on_c, 0, 65, 0
1, 42808, Note_on_c, 0, 73, 0
1, 42832, Note_on_c, 0, 69, 0
1, 43416, Note_on_c, 0, 74, 55
1, 43520, Note_on_c, 0, 74, 0
1, 44216, Note_on_c, 0, 70, 72
1, 44228, Note_on_c, 0, 58, 57
1, 44240, Control_c, 0, 64, 0
1, 44240, Note_on_c, 0, 53, 38
1, 44240, Note_on_c, 0, 62, 50
1, 44240, Note_on_c, 0, 43, 41
1, 44396, Note_on_c, 0, 62, 0
1, 44408, Control_c, 0, 64, 127
1, 44556, Note_on_c, 0, 49, 48
1, 44560, Note_on_c, 0, 61, 63
1, 44600, Note_on_c, 0, 53, 0
1, 44600, Note_on_c, 0, 70, 0
1, 44736, Note_on_c, 0, 49, 0
1, 44768, Note_on_c, 0, 58, 0
1, 44804, Note_on_c, 0, 50, 65
1, 44812, Note_on_c, 0, 61, 0
1, 44816, Note_on_c, 0, 62, 76
1, 44824, Note_on_c, 0, 43, 0
1, 44904, Note_on_c, 0, 62, 0
1, 45108, Note_on_c, 0, 50, 0
1, 45116, Note_on_c, 0, 45, 62
1, 45116, Note_on_c, 0, 72, 76
1, 45124, Control_c, 0, 64, 0
1, 45128, Note_on_c, 0, 60, 67
1, 45128, Note_on_c, 0, 55, 61
1, 45276, Control_c, 0, 64, 127
1, 45392, Control_c, 0, 64, 0
1, 45420, Control_c, 0, 64, 127
1, 45468, Note_on_c, 0, 63, 62
1, 45472, Note_on_c, 0, 51, 64
1, 45516, Note_on_c, 0, 55, 0
1, 45672, Note_on_c, 0, 72, 0
1, 45700, Note_on_c, 0, 63, 0
1, 45716, Note_on_c, 0, 60, 0
1, 45764, Note_on_c, 0, 51, 0
1, 45764, Note_on_c, 0, 64, 64
1, 45784, Note_on_c, 0, 52, 64
1, 45808, Note_on_c, 0, 45, 0
1, 45868, Note_on_c, 0, 64, 0
1, 46092, Note_on_c, 0, 52, 0
1, 46124, Note_on_c, 0, 74, 81
1, 46128, Control_c, 0, 64, 0
1, 46128, Note_on_c, 0, 46, 58
1, 46156, Note_on_c, 0, 62, 37
1, 46252, Control_c, 0, 64, 127
1, 46440, Note_on_c, 0, 62, 0
1, 46508, Note_on_c, 0, 66, 59
1, 46516, Note_on_c, 0, 54, 43
1, 46528, Note_on_c, 0, 62, 22
1, 46764, Note_on_c, 0, 62, 0
1, 46792, Note_on_c, 0, 66, 0
1, 46800, Note_on_c, 0, 54, 0
1, 46836, Note_on_c, 0, 74, 0
1, 46856, Note_on_c, 0, 67, 50
1, 47092, Note_on_c, 0, 53, 1
1, 47116, Note_on_c, 0, 46, 0
1, 47236, Note_on_c, 0, 67, 0
1, 47260, Note_on_c, 0, 53, 0
1, 47292, Note_on_c, 0, 74, 57
1, 47308, Note_on_c, 0, 47, 39
1, 47336, Control_c, 0, 64, 0
1, 47480, Control_c, 0, 64, 127
1, 47808, Note_on_c, 0, 57, 33
1, 48548, Note_on_c, 0, 62, 45
1, 49084, Note_on_c, 0, 74, 0
1, 49248, Note_on_c, 0, 69, 48
1, 49368, Note_on_c, 0, 57, 0
1, 49440, Note_on_c, 0, 47, 0
1, 49648, Note_on_c, 0, 69, 0
1, 49832, Note_on_c, 0, 72, 56
1, 49840, Note_on_c, 0, 62, 0
1, 49856, Control_c, 0, 64, 0
1, 49860, Note_on_c, 0, 37, 37
1, 50004, Control_c, 0, 64, 127
1, 50144, Note_on_c, 0, 37, 0
1, 50164, Note_on_c, 0, 44, 54
1, 50284, Note_on_c, 0, 44, 0
1, 50396, Note_on_c, 0, 53, 56
1, 50576, Note_on_c, 0, 53, 0
1, 50596, Note_on_c, 0, 56, 46
1, 50752, Note_on_c, 0, 60, 63
1, 50872, Note_on_c, 0, 72, 0
1, 50900, Note_on_c, 0, 63, 45
1, 50924, Note_on_c, 0, 65, 50
1, 50992, Note_on_c, 0, 65, 0
1, 51000, Note_on_c, 0, 68, 50
1, 51088, Note_on_c, 0, 70, 63
1, 51092, Note_on_c, 0, 68, 0
1, 51116, Note_on_c, 0, 70, 0
1, 51176, Note_on_c, 0, 72, 69
1, 51228, Note_on_c, 0, 72, 0
1, 51264, Note_on_c, 0, 75, 66
1, 51296, Note_on_c, 0, 75, 0
1, 51376, Note_on_c, 0, 77, 67
1, 51412, Note_on_c, 0, 77, 0
1, 51448, Note_on_c, 0, 80, 66
1, 51540, Note_on_c, 0, 80, 0
1, 51544, Note_on_c, 0, 82, 68
1, 51576, Note_on_c, 0, 82, 0
1, 51640, Note_on_c, 0, 84, 68
1, 51672, Note_on_c, 0, 84, 0
1, 51728, Note_on_c, 0, 87, 60
1, 51756, Note_on_c, 0, 87, 0
1, 51856, Note_on_c, 0, 89, 46
1, 51888, Note_on_c, 0, 89, 0
1, 51932, Note_on_c, 0, 92, 65
1, 51980, Note_on_c, 0, 92, 0
1, 52048, Note_on_c, 0, 94, 56
1, 52076, Note_on_c, 0, 94, 0
1, 52148, Note_on_c, 0, 96, 67
1, 52188, Note_on_c, 0, 96, 0
1, 52256, Note_on_c, 0, 99, 58
1, 52288, Note_on_c, 0, 99, 0
1, 52400, Note_on_c, 0, 101, 49
1, 52436, Note_on_c, 0, 101, 0
1, 52504, Note_on_c, 0, 104, 66
1, 52564, Note_on_c, 0, 104, 0
1, 52672, Note_on_c, 0, 106, 79
1, 52708, Note_on_c, 0, 106, 0
1, 53068, Note_on_c, 0, 63, 0
1, 53092, Note_on_c, 0, 60, 0
1, 53176, Note_on_c, 0, 56, 0
1, 53412, Note_on_c, 0, 72, 58
1, 53592, Note_on_c, 0, 72, 0
1, 53864, Note_on_c, 0, 72, 48
1, 53872, Note_on_c, 0, 65, 36
1, 53876, Control_c, 0, 64, 0
1, 53892, Note_on_c, 0, 62, 45
1, 53896, Note_on_c, 0, 48, 37
1, 53896, Note_on_c, 0, 58, 31
1, 53984, Note_on_c, 0, 62, 0
1, 53992, Control_c, 0, 64, 127
1, 53996, Note_on_c, 0, 65, 0
1, 54044, Note_on_c, 0, 72, 0
1, 54084, Note_on_c, 0, 48, 0
1, 54140, Note_on_c, 0, 58, 0
1, 54372, Note_on_c, 0, 72, 51
1, 54408, Note_on_c, 0, 60, 32
1, 54420, Note_on_c, 0, 72, 0
1, 54424, Note_on_c, 0, 84, 48
1, 54516, Note_on_c, 0, 60, 0
1, 54544, Note_on_c, 0, 84, 0
1, 55012, Note_on_c, 0, 84, 45
1, 55040, Note_on_c, 0, 96, 51
1, 55048, Note_on_c, 0, 72, 39
1, 55256, Note_on_c, 0, 72, 0
1, 55288, Note_on_c, 0, 96, 0
1, 55500, Note_on_c, 0, 84, 0
1, 56156, Note_on_c, 0, 74, 74
1, 56324, Note_on_c, 0, 74, 0
1, 56488, Control_c, 0, 64, 0
1, 56516, Note_on_c, 0, 74, 89
1, 56528, Note_on_c, 0, 65, 84
1, 56528, Note_on_c, 0, 58, 65
1, 56612, Control_c, 0, 64, 127
1, 56796, Note_on_c, 0, 74, 0
1, 56824, Note_on_c, 0, 65, 0
1, 57108, Note_on_c, 0, 72, 68
1, 57112, Note_on_c, 0, 58, 0
1, 57112, Note_on_c, 0, 65, 66
1, 57132, Control_c, 0, 64, 0
1, 57140, Note_on_c, 0, 57, 48
1, 57248, Control_c, 0, 64, 127
1, 57644, Note_on_c, 0, 65, 0
1, 58244, Note_on_c, 0, 65, 51
1, 58364, Note_on_c, 0, 72, 0
1, 58396, Note_on_c, 0, 57, 0
1, 58464, Note_on_c, 0, 65, 0
1, 59044, Note_on_c, 0, 65, 46
1, 59048, Control_c, 0, 64, 0
1, 59060, Note_on_c, 0, 58, 45
1, 59064, Note_on_c, 0, 43, 36
1, 59068, Note_on_c, 0, 57, 39
1, 59076, Note_on_c, 0, 62, 46
1, 59088, Note_on_c, 0, 53, 31
1, 59176, Control_c, 0, 64, 127
1, 59352, Note_on_c, 0, 65, 0
1, 59536, Note_on_c, 0, 65, 54
1, 59564, Note_on_c, 0, 43, 0
1, 59688, Note_on_c, 0, 53, 0
1, 59760, Note_on_c, 0, 57, 0
1, 59848, Note_on_c, 0, 58, 0
1, 59852, Note_on_c, 0, 62, 0
1, 59896, Note_on_c, 0, 65, 0
1, 61096, Note_on_c, 0, 76, 69
1, 61108, Note_on_c, 0, 72, 62
1, 61112, Note_on_c, 0, 58, 46
1, 61120, Control_c, 0, 64, 0
1, 61120, Note_on_c, 0, 67, 63
1, 61252, Control_c, 0, 64, 127
1, 61436, Note_on_c, 0, 76, 0
1, 61572, Note_on_c, 0, 76, 66
1, 61604, Note_on_c, 0, 67, 0
1, 61660, Note_on_c, 0, 72, 0
1, 61684, Note_on_c, 0, 76, 0
1, 61984, Note_on_c, 0, 58, 0
1, 62056, Note_on_c, 0, 81, 77
1, 62060, Control_c, 0, 64, 72
1, 62064, Control_c, 0, 64, 0
1, 62068, Note_on_c, 0, 57, 49
1, 62080, Note_on_c, 0, 72, 67
1, 62096, Note_on_c, 0, 62, 42
1, 62168, Control_c, 0, 64, 127
1, 62492, Note_on_c, 0, 62, 0
1, 62732, Note_on_c, 0, 81, 0
1, 62764, Note_on_c, 0, 64, 44
1, 62780, Note_on_c, 0, 72, 0
1, 63240, Note_on_c, 0, 65, 31
1, 63244, Note_on_c, 0, 69, 55
1, 63448, Note_on_c, 0, 64, 0
1, 63500, Note_on_c, 0, 65, 0
1, 63656, Note_on_c, 0, 64, 63
1, 63732, Note_on_c, 0, 64, 0
1, 63732, Note_on_c, 0, 69, 0
1, 63792, Note_on_c, 0, 57, 0
1, 64172, Note_on_c, 0, 76, 68
1, 64172, Note_on_c, 0, 69, 65
1, 64180, Note_on_c, 0, 47, 49
1, 64180, Note_on_c, 0, 62, 50
1, 64184, Control_c, 0, 64, 0
1, 64188, Note_on_c, 0, 57, 46
1, 64332, Control_c, 0, 64, 127
1, 64428, Note_on_c, 0, 62, 0
1, 64488, Note_on_c, 0, 69, 0
1, 64520, Note_on_c, 0, 76, 0
1, 64792, Note_on_c, 0, 88, 85
1, 64808, Note_on_c, 0, 53, 43
1, 64832, Note_on_c, 0, 57, 0
1, 64848, Note_on_c, 0, 53, 0
1, 64880, Note_on_c, 0, 47, 0
1, 65368, Note_on_c, 0, 28, 81
1, 65392, Control_c, 0, 64, 0
1, 65408, Note_on_c, 0, 88, 0
1, 65516, Control_c, 0, 64, 127
1, 65660, Note_on_c, 0, 28, 0
1, 67092, Note_on_c, 0, 74, 83
1, 67108, Note_on_c, 0, 68, 74
1, 67108, Note_on_c, 0, 65, 70
1, 67108, Note_on_c, 0, 71, 72
1, 67116, Note_on_c, 0, 56, 51
1, 67120, Note_on_c, 0, 62, 56
1, 67280, Note_on_c, 0, 62, 0
1, 67384, Note_on_c, 0, 56, 0
1, 67468, Note_on_c, 0, 74, 0
1, 67512, Note_on_c, 0, 65, 0
1, 67548, Note_on_c, 0, 71, 0
1, 67624, Note_on_c, 0, 68, 0
1, 68700, Control_c, 0, 64, 0
1, 68716, Note_on_c, 0, 61, 63
1, 68732, Note_on_c, 0, 57, 64
1, 68736, Note_on_c, 0, 52, 45
1, 68840, Control_c, 0, 64, 127
1, 69048, Note_on_c, 0, 61, 0
1, 69116, Note_on_c, 0, 61, 71
1, 69172, Note_on_c, 0, 57, 0
1, 69196, Note_on_c, 0, 52, 0
1, 69268, Note_on_c, 0, 61, 0
1, 69484, Control_c, 0, 64, 0
1, 69500, Note_on_c, 0, 62, 68
1, 69500, Note_on_c, 0, 54, 55
1, 69508, Note_on_c, 0, 52, 47
1, 69520, Note_on_c, 0, 59, 58
1, 69616, Control_c, 0, 64, 127
1, 69704, Note_on_c, 0, 62, 0
1, 69884, Note_on_c, 0, 59, 0
1, 69900, Note_on_c, 0, 62, 66
1, 69912, Note_on_c, 0, 52, 0
1, 70032, Note_on_c, 0, 54, 0
1, 70532, Note_on_c, 0, 62, 0
1, 71096, Control_c, 0, 64, 0
1, 71132, Note_on_c, 0, 64, 57
1, 71132, Note_on_c, 0, 61, 56
1, 71144, Note_on_c, 0, 52, 41
1, 71212, Control_c, 0, 64, 127
1, 71276, Note_on_c, 0, 64, 0
1, 71380, Note_on_c, 0, 61, 0
1, 71396, Note_on_c, 0, 52, 0
1, 71428, Note_on_c, 0, 64, 63
1, 71436, Note_on_c, 0, 61, 40
1, 71512, Note_on_c, 0, 64, 0
1, 71544, Note_on_c, 0, 61, 0
1, 71724, Note_on_c, 0, 66, 66
1, 71736, Note_on_c, 0, 57, 57
1, 71740, Note_on_c, 0, 62, 62
1, 71752, Control_c, 0, 64, 0
1, 71768, Note_on_c, 0, 52, 39
1, 71860, Control_c, 0, 64, 127
1, 71916, Note_on_c, 0, 66, 0
1, 72040, Note_on_c, 0, 66, 76
1, 72072, Note_on_c, 0, 52, 0
1, 72076, Note_on_c, 0, 62, 0
1, 72080, Note_on_c, 0, 57, 0
1, 72172, Note_on_c, 0, 66, 0
1, 72364, Note_on_c, 0, 68, 69
1, 72388, Note_on_c, 0, 64, 67
1, 72396, Control_c, 0, 64, 0
1, 72404, Note_on_c, 0, 59, 57
1, 72412, Note_on_c, 0, 52, 41
1, 72420, Note_on_c, 0, 66, 35
1, 72484, Note_on_c, 0, 66, 0
1, 72512, Control_c, 0, 64, 127
1, 72588, Note_on_c, 0, 68, 0
1, 72740, Note_on_c, 0, 68, 79
1, 72768, Note_on_c, 0, 66, 42
1, 72796, Note_on_c, 0, 64, 0
1, 72796, Note_on_c, 0, 59, 0
1, 72812, Note_on_c, 0, 66, 0
1, 72912, Note_on_c, 0, 68, 0
1, 73060, Note_on_c, 0, 52, 0
1, 73096, Note_on_c, 0, 69, 72
1, 73100, Note_on_c, 0, 51, 43
1, 73116, Note_on_c, 0, 63, 60
1, 73116, Note_on_c, 0, 66, 60
1, 73116, Note_on_c, 0, 60, 61
1, 73128, Control_c, 0, 64, 0
1, 73300, Control_c, 0, 64, 56
1, 73304, Control_c, 0, 64, 127
1, 73364, Note_on_c, 0, 69, 0
1, 73480, Note_on_c, 0, 66, 0
1, 73492, Note_on_c, 0, 69, 80
1, 73520, Note_on_c, 0, 60, 0
1, 73600, Note_on_c, 0, 69, 0
1, 73724, Note_on_c, 0, 63, 0
1, 73792, Note_on_c, 0, 51, 0
1, 73908, Note_on_c, 0, 70, 72
1, 73916, Note_on_c, 0, 58, 63
1, 73924, Note_on_c, 0, 62, 63
1, 73928, Note_on_c, 0, 50, 48
1, 73928, Control_c, 0, 64, 0
1, 73944, Note_on_c, 0, 65, 47
1, 74044, Control_c, 0, 64, 127
1, 74212, Note_on_c, 0, 70, 0
1, 74276, Note_on_c, 0, 65, 0
1, 74404, Note_on_c, 0, 58, 0
1, 74464, Note_on_c, 0, 62, 0
1, 74480, Note_on_c, 0, 50, 0
1, 74492, Note_on_c, 0, 49, 52
1, 74504, Note_on_c, 0, 70, 66
1, 74552, Control_c, 0, 64, 0
1, 74624, Control_c, 0, 64, 127
1, 74632, Note_on_c, 0, 49, 0
1, 74760, Note_on_c, 0, 70, 0
1, 75320, Note_on_c, 0, 60, 52
1, 75332, Control_c, 0, 64, 0
1, 75340, Note_on_c, 0, 72, 56
1, 75348, Note_on_c, 0, 36, 37
1, 75352, Note_on_c, 0, 52, 43
1, 75436, Note_on_c, 0, 60, 0
1, 75440, Control_c, 0, 64, 127
1, 75484, Note_on_c, 0, 36, 0
1, 75584, Note_on_c, 0, 52, 0
1, 75588, Note_on_c, 0, 72, 0
1, 76268, Note_on_c, 0, 84, 53
1, 76312, Note_on_c, 0, 72, 40
1, 76312, Note_on_c, 0, 96, 45
1, 76736, Note_on_c, 0, 96, 0
1, 76764, Note_on_c, 0, 72, 0
1, 76900, Note_on_c, 0, 84, 0
1, 78760, Note_on_c, 0, 77, 52
1, 78776, Note_on_c, 0, 65, 26
1, 78788, Note_on_c, 0, 69, 39
1, 78804, Note_on_c, 0, 60, 31
1, 78808, Control_c, 0, 64, 0
1, 78868, Control_c, 0, 64, 127
1, 79068, Note_on_c, 0, 65, 0
1, 79184, Note_on_c, 0, 53, 45
1, 79496, Note_on_c, 0, 60, 0
1, 79516, Note_on_c, 0, 77, 0
1, 79568, Note_on_c, 0, 65, 52
1, 79640, Note_on_c, 0, 69, 0
1, 80116, Note_on_c, 0, 65, 0
1, 80148, Note_on_c, 0, 72, 61
1, 80272, Note_on_c, 0, 53, 0
1, 80388, Note_on_c, 0, 72, 0
1, 80692, Note_on_c, 0, 72, 57
1, 80696, Note_on_c, 0, 65, 48
1, 80704, Control_c, 0, 64, 0
1, 80704, Note_on_c, 0, 62, 48
1, 80708, Note_on_c, 0, 58, 42
1, 80712, Note_on_c, 0, 48, 39
1, 80856, Control_c, 0, 64, 127
1, 81040, Note_on_c, 0, 72, 0
1, 81128, Note_on_c, 0, 62, 0
1, 81140, Note_on_c, 0, 58, 0
1, 81172, Note_on_c, 0, 65, 0
1, 81172, Note_on_c, 0, 55, 44
1, 81172, Note_on_c, 0, 72, 58
1, 81476, Note_on_c, 0, 48, 0
1, 81480, Note_on_c, 0, 72, 0
1, 81660, Note_on_c, 0, 72, 73
1, 81672, Note_on_c, 0, 67, 66
1, 81672, Note_on_c, 0, 64, 65
1, 81684, Note_on_c, 0, 60, 65
1, 81684, Control_c, 0, 64, 0
1, 81692, Note_on_c, 0, 58, 54
1, 81700, Note_on_c, 0, 55, 0
1, 81792, Control_c, 0, 64, 127
1, 82012, Note_on_c, 0, 72, 0
1, 82144, Note_on_c, 0, 60, 0
1, 82224, Note_on_c, 0, 72, 69
1, 82500, Note_on_c, 0, 64, 0
1, 82500, Note_on_c, 0, 67, 0
1, 82604, Note_on_c, 0, 58, 0
1, 82812, Note_on_c, 0, 69, 75
1, 82820, Control_c, 0, 64, 0
1, 82820, Note_on_c, 0, 65, 63
1, 82832, Note_on_c, 0, 60, 61
1, 82836, Note_on_c, 0, 57, 49
1, 82844, Note_on_c, 0, 48, 34
1, 82996, Control_c, 0, 64, 127
1, 83000, Note_on_c, 0, 72, 0
1, 83160, Note_on_c, 0, 48, 0
1, 83288, Note_on_c, 0, 48, 84
1, 83536, Note_on_c, 0, 60, 0
1, 83604, Note_on_c, 0, 57, 0
1, 83716, Note_on_c, 0, 65, 0
1, 83740, Note_on_c, 0, 69, 0
1, 83752, Note_on_c, 0, 57, 81
1, 84140, Note_on_c, 0, 48, 0
1, 84224, Note_on_c, 0, 60, 120
1, 84236, Note_on_c, 0, 48, 55
1, 84284, Note_on_c, 0, 57, 0
1, 84392, Note_on_c, 0, 48, 0
1, 84564, Note_on_c, 0, 60, 0
1, 84852, Note_on_c, 0, 58, 85
1, 84852, Note_on_c, 0, 24, 57
1, 84852, Note_on_c, 0, 36, 52
1, 84852, Note_on_c, 0, 60, 83
1, 84856, Control_c, 0, 64, 0
1, 84860, Note_on_c, 0, 53, 84
1, 85032, Control_c, 0, 64, 127
1, 85224, Note_on_c, 0, 24, 0
1, 85344, Note_on_c, 0, 53, 0
1, 85344, Note_on_c, 0, 36, 0
1, 85352, Note_on_c, 0, 60, 0
1, 85424, Note_on_c, 0, 58, 0
1, 85504, Note_on_c, 0, 60, 81
1, 86212, Note_on_c, 0, 60, 0
1, 87036, Note_on_c, 0, 60, 70
1, 87424, Note_on_c, 0, 61, 61
1, 87432, Note_on_c, 0, 60, 0
1, 87572, Note_on_c, 0, 61, 0
1, 87588, Note_on_c, 0, 62, 68
1, 87664, Note_on_c, 0, 62, 0
1, 87692, Note_on_c, 0, 63, 73
1, 87772, Note_on_c, 0, 63, 0
1, 87796, Note_on_c, 0, 64, 75
1, 87880, Note_on_c, 0, 65, 71
1, 87884, Note_on_c, 0, 64, 0
1, 87948, Note_on_c, 0, 66, 76
1, 87968, Note_on_c, 0, 65, 0
1, 88020, Note_on_c, 0, 66, 0
1, 88048, Note_on_c, 0, 67, 81
1, 88108, Note_on_c, 0, 67, 0
1, 88140, Note_on_c, 0, 68, 74
1, 88172, Note_on_c, 0, 68, 0
1, 88224, Note_on_c, 0, 69, 63
1, 88252, Note_on_c, 0, 69, 0
1, 88288, Note_on_c, 0, 70, 61
1, 88392, Note_on_c, 0, 71, 74
1, 88396, Note_on_c, 0, 70, 0
1, 88468, Note_on_c, 0, 71, 0
1, 88468, Control_c, 0, 64, 0
1, 88488, Note_on_c, 0, 72, 89
1, 88492, Note_on_c, 0, 48, 60
1, 88496, Note_on_c, 0, 58, 52
1, 88704, Control_c, 0, 64, 127
1, 88860, Note_on_c, 0, 58, 0
1, 88880, Note_on_c, 0, 55, 56
1, 88888, Note_on_c, 0, 48, 0
1, 89168, Note_on_c, 0, 72, 0
1, 89208, Note_on_c, 0, 62, 54
1, 89212, Note_on_c, 0, 67, 62
1, 89212, Note_on_c, 0, 63, 55
1, 89372, Note_on_c, 0, 55, 0
1, 89484, Note_on_c, 0, 62, 0
1, 89500, Note_on_c, 0, 63, 0
1, 89528, Note_on_c, 0, 74, 90
1, 89532, Note_on_c, 0, 55, 42
1, 89564, Note_on_c, 0, 67, 0
1, 89568, Note_on_c, 0, 55, 0
1, 89824, Note_on_c, 0, 74, 0
1, 89920, Control_c, 0, 64, 0
1, 89944, Note_on_c, 0, 29, 57
1, 89948, Note_on_c, 0, 72, 63
1, 89952, Note_on_c, 0, 62, 56
1, 89952, Note_on_c, 0, 66, 55
1, 89972, Note_on_c, 0, 69, 57
1, 89976, Note_on_c, 0, 29, 0
1, 90024, Control_c, 0, 64, 127
1, 90280, Note_on_c, 0, 62, 0
1, 90320, Note_on_c, 0, 69, 0
1, 90352, Note_on_c, 0, 72, 0
1, 90368, Note_on_c, 0, 66, 0
1, 90396, Note_on_c, 0, 51, 55
1, 90888, Note_on_c, 0, 74, 50
1, 90892, Note_on_c, 0, 81, 52
1, 90892, Note_on_c, 0, 69, 46
1, 90904, Note_on_c, 0, 78, 50
1, 90912, Note_on_c, 0, 57, 45
1, 91284, Note_on_c, 0, 78, 0
1, 91376, Note_on_c, 0, 69, 0
1, 91400, Note_on_c, 0, 81, 0
1, 91456, Note_on_c, 0, 77, 67
1, 91520, Note_on_c, 0, 57, 0
1, 91620, Note_on_c, 0, 74, 0
1, 91668, Note_on_c, 0, 77, 0
1, 91740, Note_on_c, 0, 51, 0
1, 92996, Note_on_c, 0, 69, 66
1, 93004, Note_on_c, 0, 62, 51
1, 93008, Note_on_c, 0, 64, 58
1, 93012, Control_c, 0, 64, 0
1, 93012, Note_on_c, 0, 46, 48
1, 93020, Note_on_c, 0, 57, 42
1, 93028, Note_on_c, 0, 53, 43
1, 93208, Control_c, 0, 64, 127
1, 93328, Note_on_c, 0, 57, 0
1, 93332, Note_on_c, 0, 64, 0
1, 93336, Control_c, 0, 64, 0
1, 93380, Note_on_c, 0, 53, 0
1, 93380, Note_on_c, 0, 54, 49
1, 93404, Note_on_c, 0, 62, 56
1, 93424, Note_on_c, 0, 62, 0
1, 93452, Control_c, 0, 64, 127
1, 93692, Note_on_c, 0, 54, 0
1, 93692, Note_on_c, 0, 62, 0
1, 93708, Note_on_c, 0, 69, 0
1, 93724, Control_c, 0, 64, 0
1, 93748, Note_on_c, 0, 62, 40
1, 93756, Note_on_c, 0, 65, 57
1, 93768, Note_on_c, 0, 55, 45
1, 93776, Note_on_c, 0, 46, 0
1, 93784, Note_on_c, 0, 57, 30
1, 93796, Control_c, 0, 64, 127
1, 94032, Note_on_c, 0, 57, 0
1, 94292, Note_on_c, 0, 65, 0
1, 94304, Note_on_c, 0, 62, 0
1, 94404, Note_on_c, 0, 56, 56
1, 94440, Note_on_c, 0, 55, 0
1, 94836, Note_on_c, 0, 61, 50
1, 94836, Note_on_c, 0, 65, 58
1, 94844, Note_on_c, 0, 69, 56
1, 94848, Note_on_c, 0, 60, 58
1, 94852, Control_c, 0, 64, 0
1, 95032, Control_c, 0, 64, 127
1, 95236, Note_on_c, 0, 69, 0
1, 95260, Note_on_c, 0, 60, 0
1, 95272, Note_on_c, 0, 56, 0
1, 95284, Note_on_c, 0, 70, 67
1, 95596, Note_on_c, 0, 65, 0
1, 95632, Note_on_c, 0, 61, 0
1, 95744, Note_on_c, 0, 70, 0
1, 95796, Note_on_c, 0, 61, 39
1, 95808, Note_on_c, 0, 65, 48
1, 95812, Note_on_c, 0, 72, 42
1, 95828, Control_c, 0, 64, 0
1, 95840, Note_on_c, 0, 39, 36
1, 95848, Note_on_c, 0, 69, 36
1, 95952, Control_c, 0, 64, 127
1, 96016, Note_on_c, 0, 69, 0
1, 96088, Note_on_c, 0, 72, 0
1, 96204, Note_on_c, 0, 65, 0
1, 96248, Note_on_c, 0, 61, 0
1, 96252, Note_on_c, 0, 39, 0
1, 96400, Note_on_c, 0, 61, 43
1, 96408, Note_on_c, 0, 46, 31
1, 96416, Note_on_c, 0, 67, 47
1, 96480, Note_on_c, 0, 46, 0
1, 96628, Note_on_c, 0, 61, 0
1, 96636, Note_on_c, 0, 67, 0
1, 96944, Control_c, 0, 64, 0
1, 96976, Note_on_c, 0, 72, 75
1, 96984, Note_on_c, 0, 67, 75
1, 96984, Note_on_c, 0, 60, 69
1, 97000, Note_on_c, 0, 55, 37
1, 97004, Note_on_c, 0, 45, 46
1, 97056, Control_c, 0, 64, 127
1, 97108, Note_on_c, 0, 60, 0
1, 97160, Note_on_c, 0, 72, 0
1, 97324, Note_on_c, 0, 55, 0
1, 97336, Note_on_c, 0, 67, 0
1, 97364, Note_on_c, 0, 52, 48
1, 97364, Note_on_c, 0, 74, 96
1, 97396, Note_on_c, 0, 45, 0
1, 97452, Note_on_c, 0, 52, 0
1, 97544, Note_on_c, 0, 74, 0
1, 97744, Control_c, 0, 64, 0
1, 97764, Note_on_c, 0, 72, 82
1, 97768, Note_on_c, 0, 65, 84
1, 97776, Note_on_c, 0, 60, 58
1, 97776, Note_on_c, 0, 50, 54
1, 97920, Control_c, 0, 64, 127
1, 98132, Note_on_c, 0, 65, 0
1, 98256, Note_on_c, 0, 57, 49
1, 98620, Note_on_c, 0, 72, 0
1, 98684, Note_on_c, 0, 60, 0
1, 98840, Note_on_c, 0, 57, 0
1, 98860, Note_on_c, 0, 65, 82
1, 98920, Note_on_c, 0, 50, 0
1, 99020, Note_on_c, 0, 65, 0
1, 99256, Control_c, 0, 64, 0
1, 99316, Note_on_c, 0, 69, 81
1, 99320, Note_on_c, 0, 62, 85
1, 99324, Note_on_c, 0, 47, 61
1, 99336, Note_on_c, 0, 57, 56
1, 99352, Control_c, 0, 64, 127
1, 99428, Note_on_c, 0, 47, 0
1, 99444, Note_on_c, 0, 62, 0
1, 99472, Note_on_c, 0, 57, 0
1, 99476, Note_on_c, 0, 69, 0
1, 99908, Note_on_c, 0, 81, 99
1, 99912, Note_on_c, 0, 74, 89
1, 99916, Note_on_c, 0, 69, 82
1, 99924, Note_on_c, 0, 57, 68
1, 99924, Note_on_c, 0, 65, 68
1, 99932, Note_on_c, 0, 62, 54
1, 100304, Note_on_c, 0, 65, 0
1, 100308, Note_on_c, 0, 62, 0
1, 100344, Note_on_c, 0, 69, 0
1, 100364, Note_on_c, 0, 57, 0
1, 100388, Note_on_c, 0, 74, 0
1, 100444, Note_on_c, 0, 81, 0
1, 100660, Control_c, 0, 64, 0
1, 100672, Note_on_c, 0, 34, 75
1, 100752, Control_c, 0, 64, 127
1, 100872, Note_on_c, 0, 34, 0
1, 101572, Note_on_c, 0, 79, 52
1, 101572, Note_on_c, 0, 73, 48
1, 101572, Note_on_c, 0, 56, 45
1, 101572, Note_on_c, 0, 65, 44
1, 101576, Note_on_c, 0, 67, 39
1, 101580, Note_on_c, 0, 61, 48
1, 101968, Note_on_c, 0, 60, 1
1, 102292, Note_on_c, 0, 65, 0
1, 102360, Note_on_c, 0, 61, 0
1, 102360, Note_on_c, 0, 60, 0
1, 102364, Note_on_c, 0, 79, 0
1, 102432, Note_on_c, 0, 67, 0
1, 102436, Note_on_c, 0, 56, 0
1, 102504, Note_on_c, 0, 73, 0
1, 103360, Control_c, 0, 64, 0
1, 103360, Note_on_c, 0, 72, 62
1, 103368, Note_on_c, 0, 60, 57
1, 103372, Note_on_c, 0, 67, 57
1, 103384, Note_on_c, 0, 55, 37
1, 103388, Note_on_c, 0, 45, 44
1, 103456, Note_on_c, 0, 60, 0
1, 103456, Control_c, 0, 64, 127
1, 103532, Note_on_c, 0, 67, 0
1, 103564, Note_on_c, 0, 72, 0
1, 103652, Note_on_c, 0, 45, 0
1, 103708, Note_on_c, 0, 55, 0
1, 103836, Note_on_c, 0, 84, 90
1, 103852, Note_on_c, 0, 79, 87
1, 103856, Note_on_c, 0, 72, 77
1, 103996, Note_on_c, 0, 84, 0
1, 104000, Note_on_c, 0, 79, 0
1, 104044, Note_on_c, 0, 72, 0
1, 104460, Note_on_c, 0, 72, 66
1, 104468, Note_on_c, 0, 67, 65
1, 104476, Note_on_c, 0, 60, 38
1, 104496, Note_on_c, 0, 57, 46
1, 104668, Note_on_c, 0, 60, 0
1, 104704, Note_on_c, 0, 57, 0
1, 104764, Note_on_c, 0, 67, 0
1, 104872, Note_on_c, 0, 72, 0
1, 104920, Note_on_c, 0, 67, 58
1, 104932, Note_on_c, 0, 60, 63
1, 105028, Note_on_c, 0, 67, 0
1, 105100, Note_on_c, 0, 60, 0
1, 105520, Control_c, 0, 64, 0
1, 105528, Note_on_c, 0, 53, 52
1, 105536, Note_on_c, 0, 57, 49
1, 105536, Note_on_c, 0, 60, 54
1, 105548, Note_on_c, 0, 38, 46
1, 105648, Control_c, 0, 64, 127
1, 105680, Note_on_c, 0, 53, 0
1, 105708, Note_on_c, 0, 57, 0
1, 105716, Note_on_c, 0, 38, 0
1, 105724, Note_on_c, 0, 60, 0
1, 106072, Note_on_c, 0, 65, 58
1, 106080, Note_on_c, 0, 72, 52
1, 106088, Note_on_c, 0, 62, 54
1, 106096, Note_on_c, 0, 50, 47
1, 106104, Note_on_c, 0, 60, 42
1, 106428, Note_on_c, 0, 62, 0
1, 106456, Note_on_c, 0, 65, 0
1, 106496, Note_on_c, 0, 72, 0
1, 106592, Note_on_c, 0, 60, 0
1, 106628, Note_on_c, 0, 72, 45
1, 106628, Note_on_c, 0, 57, 36
1, 106640, Note_on_c, 0, 65, 46
1, 106644, Note_on_c, 0, 62, 37
1, 106880, Note_on_c, 0, 72, 0
1, 107176, Note_on_c, 0, 60, 40
1, 107176, Note_on_c, 0, 72, 57
1, 107184, Note_on_c, 0, 62, 0
1, 107224, Note_on_c, 0, 60, 0
1, 107252, Note_on_c, 0, 57, 0
1, 107268, Note_on_c, 0, 65, 0
1, 107348, Note_on_c, 0, 50, 0
1, 107528, Note_on_c, 0, 72, 0
1, 108180, Note_on_c, 0, 43, 48
1, 108232, Note_on_c, 0, 58, 32
1, 108332, Note_on_c, 0, 65, 49
1, 108344, Note_on_c, 0, 58, 0
1, 108344, Note_on_c, 0, 53, 38
1, 108364, Note_on_c, 0, 72, 63
1, 108368, Control_c, 0, 64, 0
1, 108500, Control_c, 0, 64, 127
1, 108700, Note_on_c, 0, 65, 0
1, 108908, Note_on_c, 0, 72, 0
1, 109548, Note_on_c, 0, 81, 68
1, 109632, Note_on_c, 0, 43, 0
1, 109656, Note_on_c, 0, 53, 0
1, 109884, Note_on_c, 0, 81, 0
1, 110216, Note_on_c, 0, 81, 60
1, 110572, Note_on_c, 0, 81, 0
1, 111244, Note_on_c, 0, 81, 57
1, 111388, Note_on_c, 0, 81, 0
1, 113048, Control_c, 0, 64, 0
1, 113056, Note_on_c, 0, 58, 39
1, 113056, Note_on_c, 0, 81, 46
1, 113056, Note_on_c, 0, 74, 55
1, 113056, Note_on_c, 0, 69, 39
1, 113068, Note_on_c, 0, 48, 41
1, 113176, Control_c, 0, 64, 127
1, 113460, Note_on_c, 0, 58, 0
1, 113556, Note_on_c, 0, 48, 0
1, 113624, Note_on_c, 0, 55, 42
1, 113696, Note_on_c, 0, 55, 0
1, 113720, Note_on_c, 0, 81, 0
1, 113744, Note_on_c, 0, 74, 0
1, 113744, Note_on_c, 0, 69, 0
1, 114496, Control_c, 0, 64, 0
1, 114500, Note_on_c, 0, 73, 42
1, 114508, Note_on_c, 0, 79, 42
1, 114516, Note_on_c, 0, 61, 31
1, 114520, Note_on_c, 0, 67, 33
1, 114528, Note_on_c, 0, 58, 39
1, 114536, Note_on_c, 0, 64, 29
1, 116737, Note_on_c, 9, 38, 19
1, 116817, Note_on_c, 9, 49, 22
1, 116827, Note_on_c, 9, 38, 42
1, 116847, Note_on_c, 9, 36, 42
1, 117001, Note_on_c, 1, 41, 88
1, 117001, Note_on_c, 9, 36, 40
1, 117127, Note_on_c, 9, 38, 0
1, 117205, Note_on_c, 9, 36, 1
1, 117207, Note_on_c, 9, 49, 0
1, 117217, Note_on_c, 9, 38, 0
1, 117237, Note_on_c, 9, 36, 0
1, 117277, Note_on_c, 1, 41, 0
1, 117287, Note_on_c, 9, 36, 0
1, 117288, Note_on_c, 0, 64, 0
1, 117308, Note_on_c, 0, 61, 0
1, 117324, Note_on_c, 0, 58, 0
1, 117375, Note_on_c, 9, 36, 0
1, 117431, Note_on_c, 9, 44, 29
1, 117444, Note_on_c, 0, 67, 0
1, 117464, Note_on_c, 0, 79, 0
1, 117468, Note_on_c, 0, 73, 0
1, 117551, Note_on_c, 9, 44, 0
1, 117709, Note_on_c, 0, 65, 68
1, 117709, Note_on_c, 1, 39, 90
1, 117713, Note_on_c, 0, 58, 68
1, 117725, Note_on_c, 0, 46, 56
1, 117729, Note_on_c, 0, 55, 49
1, 117733, Note_on_c, 0, 39, 56
1, 117753, Note_on_c, 9, 59, 30
1, 117779, Note_on_c, 9, 36, 8
1, 117823, Note_on_c, 9, 59, 0
1, 117825, Note_on_c, 0, 55, 0
1, 117841, Note_on_c, 0, 39, 0
1, 117845, Note_on_c, 0, 58, 0
1, 117849, Note_on_c, 0, 65, 0
1, 117853, Note_on_c, 0, 46, 0
1, 117861, Note_on_c, 9, 36, 0
1, 118153, Note_on_c, 9, 44, 54
1, 118321, Note_on_c, 9, 44, 0
1, 118321, Note_on_c, 1, 39, 0
1, 118387, Note_on_c, 9, 36, 14
1, 118429, Note_on_c, 0, 56, 58
1, 118433, Note_on_c, 0, 65, 56
1, 118433, Note_on_c, 1, 37, 78
1, 118433, Note_on_c, 9, 59, 37
1, 118437, Note_on_c, 0, 37, 48
1, 118437, Note_on_c, 0, 44, 45
1, 118453, Note_on_c, 0, 53, 53
1, 118605, Control_c, 0, 64, 127
1, 118689, Note_on_c, 0, 53, 0
1, 118745, Note_on_c, 0, 56, 0
1, 118765, Note_on_c, 0, 65, 0
1, 118917, Note_on_c, 9, 44, 54
1, 119125, Note_on_c, 9, 44, 0
1, 119217, Note_on_c, 0, 84, 56
1, 119217, Note_on_c, 0, 72, 63
1, 119249, Note_on_c, 0, 72, 0
1, 119309, Note_on_c, 0, 84, 0
1, 119377, Note_on_c, 9, 59, 0
1, 119525, Note_on_c, 0, 44, 0
1, 119533, Note_on_c, 0, 37, 0
1, 119617, Note_on_c, 0, 93, 74
1, 119637, Note_on_c, 0, 81, 68
1, 119677, Note_on_c, 9, 44, 46
1, 119693, Note_on_c, 0, 92, 22
1, 119709, Note_on_c, 0, 81, 0
1, 119745, Note_on_c, 0, 93, 0
1, 119749, Note_on_c, 0, 92, 0
1, 119785, Note_on_c, 9, 36, 0
1, 119887, Note_on_c, 9, 44, 0
1, 120021, Note_on_c, 0, 96, 63
1, 120033, Note_on_c, 0, 84, 42
1, 120045, Note_on_c, 0, 96, 0
1, 120069, Note_on_c, 0, 84, 0
1, 120181, Note_on_c, 1, 37, 0
1, 120417, Note_on_c, 0, 60, 85
1, 120433, Note_on_c, 0, 65, 72
1, 120433, Note_on_c, 1, 41, 96
1, 120441, Note_on_c, 0, 48, 77
1, 120457, Note_on_c, 0, 57, 40
1, 120465, Note_on_c, 0, 65, 0
1, 120469, Control_c, 0, 64, 0
1, 120473, Note_on_c, 0, 48, 0
1, 120473, Note_on_c, 0, 41, 40
1, 120477, Note_on_c, 0, 60, 0
1, 120493, Note_on_c, 0, 57, 0
1, 120505, Note_on_c, 1, 41, 0
1, 120513, Note_on_c, 0, 41, 0
1, 120522, Note_on_c, 9, 36, 5
1, 120585, Note_on_c, 9, 36, 0
1, 120849, Note_on_c, 1, 39, 78
1, 120859, Note_on_c, 9, 36, 18
1, 120867, Note_on_c, 9, 59, 42
1, 120913, Note_on_c, 0, 65, 72
1, 120925, Note_on_c, 0, 55, 59
1, 120925, Note_on_c, 0, 58, 66
1, 120925, Note_on_c, 0, 46, 61
1, 120937, Note_on_c, 0, 39, 57
1, 120965, Note_on_c, 0, 55, 0
1, 120977, Note_on_c, 0, 39, 0
1, 121013, Note_on_c, 0, 65, 0
1, 121013, Note_on_c, 0, 46, 0
1, 121021, Note_on_c, 0, 58, 0
1, 121033, Note_on_c, 9, 36, 0
1, 121035, Note_on_c, 9, 59, 0
1, 121237, Note_on_c, 9, 44, 49
1, 121341, Control_c, 0, 64, 127
1, 121373, Note_on_c, 9, 44, 0
1, 121441, Note_on_c, 1, 39, 0
1, 121505, Note_on_c, 9, 59, 53
1, 121518, Note_on_c, 1, 37, 77
1, 121533, Control_c, 0, 64, 0
1, 121541, Note_on_c, 9, 59, 0
1, 121541, Note_on_c, 9, 36, 18
1, 121549, Note_on_c, 0, 44, 50
1, 121553, Note_on_c, 0, 65, 56
1, 121561, Note_on_c, 0, 56, 56
1, 121565, Note_on_c, 0, 37, 44
1, 121569, Note_on_c, 0, 53, 45
1, 121595, Note_on_c, 9, 36, 0
1, 121597, Note_on_c, 0, 63, 36
1, 121645, Note_on_c, 0, 53, 0
1, 121685, Note_on_c, 0, 56, 0
1, 121685, Note_on_c, 0, 65, 0
1, 121705, Note_on_c, 0, 63, 0
1, 121925, Note_on_c, 0, 58, 68
1, 121933, Note_on_c, 0, 59, 81
1, 121953, Note_on_c, 0, 58, 0
1, 121961, Note_on_c, 9, 44, 51
1, 121973, Note_on_c, 0, 60, 62
1, 122067, Note_on_c, 9, 44, 0
1, 122069, Note_on_c, 0, 59, 0
1, 122085, Note_on_c, 0, 60, 0
1, 122201, Note_on_c, 0, 63, 90
1, 122293, Note_on_c, 0, 63, 0
1, 122441, Note_on_c, 0, 60, 72
1, 122521, Note_on_c, 0, 59, 51
1, 122557, Note_on_c, 0, 60, 0
1, 122557, Note_on_c, 0, 58, 40
1, 122587, Note_on_c, 9, 36, 4
1, 122605, Note_on_c, 0, 59, 0
1, 122651, Note_on_c, 9, 36, 0
1, 122669, Note_on_c, 0, 56, 48
1, 122701, Note_on_c, 0, 58, 0
1, 122729, Note_on_c, 9, 36, 5
1, 122747, Note_on_c, 0, 53, 45
1, 122747, Note_on_c, 9, 46, 40
1, 122773, Note_on_c, 0, 56, 0
1, 122797, Note_on_c, 0, 53, 0
1, 122803, Note_on_c, 9, 36, 0
1, 122805, Note_on_c, 9, 46, 0
1, 122845, Note_on_c, 0, 44, 0
1, 122845, Note_on_c, 0, 58, 82
1, 122877, Note_on_c, 0, 37, 0
1, 122981, Note_on_c, 9, 36, 17
1, 123053, Note_on_c, 9, 36, 0
1, 123093, Note_on_c, 1, 37, 0
1, 123101, Note_on_c, 0, 56, 74
1, 123133, Note_on_c, 0, 58, 0
1, 123177, Note_on_c, 0, 56, 0
1, 123257, Note_on_c, 0, 53, 48
1, 123397, Note_on_c, 0, 53, 0
1, 123481, Note_on_c, 0, 55, 74
1, 123481, Note_on_c, 0, 65, 66
1, 123481, Note_on_c, 1, 41, 94
1, 123481, Note_on_c, 1, 57, 107
1, 123481, Note_on_c, 9, 36, 23
1, 123481, Note_on_c, 9, 59, 59
1, 123485, Note_on_c, 0, 48, 64
1, 123485, Note_on_c, 0, 60, 77
1, 123493, Note_on_c, 9, 44, 42
1, 123513, Note_on_c, 0, 60, 0
1, 123513, Note_on_c, 0, 65, 0
1, 123513, Note_on_c, 0, 41, 36
1, 123515, Note_on_c, 9, 59, 0
1, 123517, Note_on_c, 0, 48, 0
1, 123521, Note_on_c, 0, 55, 0
1, 123541, Note_on_c, 1, 57, 0
1, 123547, Note_on_c, 9, 36, 0
1, 123557, Note_on_c, 0, 41, 0
1, 123565, Note_on_c, 1, 41, 0
1, 123615, Note_on_c, 9, 44, 0
1, 123811, Note_on_c, 9, 36, 1
1, 123839, Note_on_c, 9, 36, 0
1, 123921, Note_on_c, 1, 39, 77
1, 123945, Note_on_c, 0, 58, 81
1, 123945, Note_on_c, 0, 65, 68
1, 123945, Note_on_c, 1, 55, 72
1, 123949, Note_on_c, 9, 36, 17
1, 123951, Note_on_c, 9, 59, 60
1, 123957, Note_on_c, 0, 46, 63
1, 123961, Note_on_c, 0, 39, 58
1, 123965, Note_on_c, 0, 53, 54
1, 123997, Note_on_c, 0, 53, 0
1, 124025, Note_on_c, 0, 39, 0
1, 124047, Note_on_c, 9, 59, 0
1, 124049, Note_on_c, 0, 46, 0
1, 124063, Note_on_c, 1, 39, 0
1, 124065, Note_on_c, 9, 36, 0
1, 124065, Note_on_c, 0, 65, 0
1, 124067, Note_on_c, 1, 55, 0
1, 124089, Note_on_c, 0, 58, 0
1, 124293, Note_on_c, 9, 44, 46
1, 124413, Note_on_c, 9, 44, 0
1, 124569, Note_on_c, 0, 44, 52
1, 124569, Note_on_c, 0, 56, 57
1, 124569, Note_on_c, 0, 37, 48
1, 124569, Note_on_c, 0, 65, 46
1, 124569, Note_on_c, 1, 37, 79
1, 124569, Note_on_c, 1, 53, 53
1, 124569, Note_on_c, 9, 36, 14
1, 124569, Note_on_c, 9, 59, 54
1, 124593, Note_on_c, 0, 53, 34
1, 124629, Note_on_c, 0, 63, 29
1, 124637, Note_on_c, 0, 53, 0
1, 124645, Note_on_c, 9, 59, 0
1, 124665, Control_c, 0, 64, 127
1, 124693, Note_on_c, 0, 56, 0
1, 124717, Note_on_c, 0, 63, 0
1, 124725, Note_on_c, 0, 65, 0
1, 124731, Note_on_c, 9, 36, 0
1, 124977, Control_c, 0, 64, 0
1, 125063, Note_on_c, 9, 44, 50
1, 125069, Note_on_c, 0, 56, 45
1, 125149, Note_on_c, 0, 56, 0
1, 125167, Note_on_c, 9, 44, 0
1, 125173, Note_on_c, 0, 58, 52
1, 125209, Note_on_c, 0, 58, 0
1, 125293, Note_on_c, 0, 60, 75
1, 125373, Note_on_c, 0, 60, 0
1, 125421, Note_on_c, 0, 63, 57
1, 125505, Note_on_c, 0, 63, 0
1, 125561, Note_on_c, 0, 65, 65
1, 125613, Note_on_c, 0, 44, 0
1, 125645, Note_on_c, 0, 65, 0
1, 125693, Note_on_c, 0, 68, 81
1, 125823, Note_on_c, 9, 44, 47
1, 125825, Note_on_c, 0, 70, 75
1, 125841, Note_on_c, 0, 68, 0
1, 125845, Note_on_c, 0, 37, 0
1, 125909, Note_on_c, 0, 70, 0
1, 125931, Note_on_c, 9, 44, 0
1, 125969, Note_on_c, 0, 72, 75
1, 126049, Note_on_c, 0, 72, 0
1, 126081, Note_on_c, 9, 36, 19
1, 126105, Note_on_c, 0, 75, 84
1, 126149, Note_on_c, 9, 36, 0
1, 126197, Note_on_c, 0, 75, 0
1, 126237, Note_on_c, 9, 36, 1
1, 126249, Note_on_c, 0, 77, 82
1, 126269, Note_on_c, 9, 36, 0
1, 126305, Note_on_c, 0, 77, 0
1, 126355, Note_on_c, 1, 53, 0
1, 126481, Note_on_c, 9, 59, 64
1, 126489, Note_on_c, 1, 57, 109
1, 126491, Note_on_c, 9, 36, 20
1, 126495, Note_on_c, 1, 41, 95
1, 126501, Note_on_c, 1, 37, 0
1, 126509, Note_on_c, 0, 60, 82
1, 126509, Note_on_c, 0, 65, 72
1, 126529, Note_on_c, 0, 48, 49
1, 126541, Note_on_c, 0, 65, 0
1, 126541, Note_on_c, 0, 60, 0
1, 126541, Note_on_c, 0, 41, 39
1, 126543, Note_on_c, 9, 59, 0
1, 126553, Note_on_c, 1, 57, 0
1, 126557, Note_on_c, 9, 36, 0
1, 126557, Note_on_c, 0, 48, 0
1, 126581, Note_on_c, 0, 41, 0
1, 126581, Note_on_c, 1, 41, 0
1, 126593, Note_on_c, 9, 44, 50
1, 126709, Note_on_c, 9, 44, 0
1, 126999, Note_on_c, 1, 55, 86
1, 127011, Note_on_c, 9, 59, 58
1, 127013, Note_on_c, 9, 36, 15
1, 127015, Note_on_c, 1, 39, 72
1, 127057, Note_on_c, 0, 39, 51
1, 127057, Note_on_c, 0, 46, 50
1, 127061, Note_on_c, 1, 55, 0
1, 127061, Note_on_c, 0, 58, 63
1, 127061, Note_on_c, 0, 65, 57
1, 127091, Note_on_c, 9, 36, 0
1, 127093, Note_on_c, 0, 39, 0
1, 127097, Note_on_c, 0, 46, 0
1, 127097, Note_on_c, 1, 39, 0
1, 127101, Note_on_c, 9, 59, 0
1, 127121, Note_on_c, 0, 58, 0
1, 127121, Note_on_c, 0, 65, 0
1, 127373, Note_on_c, 9, 44, 43
1, 127515, Note_on_c, 9, 44, 0
1, 127589, Note_on_c, 1, 53, 58
1, 127599, Note_on_c, 1, 37, 75
1, 127629, Note_on_c, 0, 44, 45
1, 127629, Note_on_c, 1, 37, 111
1, 127637, Note_on_c, 0, 56, 50
1, 127641, Note_on_c, 0, 65, 49
1, 127643, Note_on_c, 9, 36, 17
1, 127645, Note_on_c, 9, 59, 65
1, 127653, Note_on_c, 0, 37, 36
1, 127707, Note_on_c, 9, 59, 0
1, 127715, Note_on_c, 9, 36, 0
1, 127717, Control_c, 0, 64, 127
1, 127729, Note_on_c, 0, 56, 0
1, 127737, Note_on_c, 0, 65, 0
1, 127921, Note_on_c, 0, 44, 0
1, 128013, Note_on_c, 1, 37, 0
1, 128113, Control_c, 0, 64, 0
1, 128129, Note_on_c, 9, 44, 47
1, 128133, Note_on_c, 0, 47, 38
1, 128139, Note_on_c, 1, 53, 0
1, 128157, Note_on_c, 0, 37, 0
1, 128173, Note_on_c, 0, 47, 0
1, 128189, Note_on_c, 0, 48, 56
1, 128229, Note_on_c, 0, 48, 0
1, 128257, Note_on_c, 0, 50, 54
1, 128267, Note_on_c, 9, 44, 0
1, 128285, Note_on_c, 0, 50, 0
1, 128321, Note_on_c, 0, 52, 54
1, 128349, Note_on_c, 0, 52, 0
1, 128381, Note_on_c, 0, 53, 45
1, 128409, Note_on_c, 0, 53, 0
1, 128429, Note_on_c, 0, 55, 56
1, 128457, Note_on_c, 0, 55, 0
1, 128493, Note_on_c, 0, 57, 52
1, 128517, Note_on_c, 0, 57, 0
1, 128541, Note_on_c, 0, 59, 57
1, 128569, Note_on_c, 0, 59, 0
1, 128601, Note_on_c, 0, 60, 48
1, 128633, Note_on_c, 0, 60, 0
1, 128649, Note_on_c, 0, 62, 55
1, 128677, Note_on_c, 0, 62, 0
1, 128697, Note_on_c, 0, 64, 54
1, 128725, Note_on_c, 0, 64, 0
1, 128741, Note_on_c, 0, 65, 58
1, 128755, Note_on_c, 1, 39, 94
1, 128765, Note_on_c, 9, 36, 20
1, 128773, Note_on_c, 0, 65, 0
1, 128805, Note_on_c, 0, 67, 46
1, 128837, Note_on_c, 0, 67, 0
1, 128857, Note_on_c, 0, 69, 47
1, 128861, Note_on_c, 9, 36, 0
1, 128861, Note_on_c, 1, 39, 0
1, 128869, Note_on_c, 9, 44, 42
1, 128889, Note_on_c, 0, 69, 0
1, 128895, Note_on_c, 1, 40, 88
1, 128905, Note_on_c, 0, 71, 48
1, 128917, Control_c, 0, 64, 127
1, 128941, Note_on_c, 0, 71, 0
1, 128949, Note_on_c, 0, 72, 54
1, 128973, Note_on_c, 9, 44, 0
1, 128977, Note_on_c, 0, 72, 0
1, 129001, Note_on_c, 0, 74, 52
1, 129029, Note_on_c, 0, 74, 0
1, 129037, Note_on_c, 1, 37, 0
1, 129045, Note_on_c, 0, 76, 56
1, 129073, Note_on_c, 0, 76, 0
1, 129089, Note_on_c, 0, 77, 57
1, 129117, Note_on_c, 0, 77, 0
1, 129141, Note_on_c, 0, 79, 46
1, 129169, Note_on_c, 0, 79, 0
1, 129189, Note_on_c, 0, 81, 40
1, 129191, Note_on_c, 1, 40, 0
1, 129193, Note_on_c, 9, 57, 1
1, 129225, Note_on_c, 0, 81, 0
1, 129233, Note_on_c, 0, 83, 43
1, 129257, Note_on_c, 1, 41, 100
1, 129257, Control_c, 1, 64, 127
1, 129257, Control_c, 1, 64, 0
1, 129265, Note_on_c, 0, 83, 0
1, 129273, Note_on_c, 0, 84, 41
1, 129309, Note_on_c, 0, 84, 0
1, 129313, Note_on_c, 0, 86, 36
1, 129325, Note_on_c, 0, 88, 46
1, 129341, Control_c, 0, 64, 0
1, 129345, Note_on_c, 0, 89, 81
1, 129353, Note_on_c, 0, 86, 0
1, 129357, Note_on_c, 0, 88, 0
1, 129361, Note_on_c, 0, 65, 57
1, 129361, Note_on_c, 0, 62, 63
1, 129373, Note_on_c, 0, 60, 64
1, 129565, Note_on_c, 1, 41, 0
1, 129651, Note_on_c, 9, 44, 42
1, 129667, Note_on_c, 1, 36, 61
1, 129721, Control_c, 0, 64, 127
1, 129773, Note_on_c, 0, 65, 0
1, 129785, Note_on_c, 0, 62, 0
1, 129801, Note_on_c, 0, 60, 0
1, 129859, Note_on_c, 9, 57, 0
1, 129913, Note_on_c, 9, 59, 35
1, 129933, Note_on_c, 9, 44, 0
1, 129977, Note_on_c, 1, 34, 51
1, 130035, Note_on_c, 1, 34, 0
1, 130039, Note_on_c, 1, 36, 0
1, 130059, Note_on_c, 1, 38, 60
1, 130065, Control_c, 0, 64, 0
1, 130097, Note_on_c, 0, 57, 49
1, 130105, Note_on_c, 0, 62, 28
1, 130109, Note_on_c, 0, 60, 44
1, 130141, Note_on_c, 0, 57, 0
1, 130149, Note_on_c, 0, 62, 0
1, 130157, Note_on_c, 0, 60, 0
1, 130269, Note_on_c, 9, 59, 0
1, 130389, Note_on_c, 1, 38, 0
1, 130413, Note_on_c, 1, 32, 69
1, 130423, Note_on_c, 9, 44, 44
1, 130581, Note_on_c, 9, 44, 0
1, 130593, Note_on_c, 0, 89, 0
1, 130685, Note_on_c, 0, 84, 70
1, 130691, Note_on_c, 9, 59, 49
1, 130729, Note_on_c, 0, 58, 49
1, 130765, Note_on_c, 9, 59, 0
1, 130769, Note_on_c, 0, 84, 0
1, 130773, Note_on_c, 0, 83, 61
1, 130777, Note_on_c, 0, 58, 0
1, 130797, Note_on_c, 1, 32, 0
1, 130801, Note_on_c, 1, 31, 73
1, 130823, Note_on_c, 9, 59, 34
1, 130845, Note_on_c, 0, 83, 0
1, 130893, Note_on_c, 0, 84, 65
1, 131073, Note_on_c, 9, 59, 0
1, 131085, Note_on_c, 0, 84, 0
1, 131109, Note_on_c, 1, 32, 55
1, 131129, Note_on_c, 0, 84, 62
1, 131165, Note_on_c, 0, 84, 0
1, 131169, Note_on_c, 9, 44, 46
1, 131179, Note_on_c, 1, 43, 78
1, 131187, Note_on_c, 9, 59, 65
1, 131197, Note_on_c, 1, 32, 0
1, 131211, Note_on_c, 1, 31, 0
1, 131287, Note_on_c, 9, 44, 0
1, 131491, Note_on_c, 9, 59, 0
1, 131499, Note_on_c, 1, 36, 50
1, 131533, Note_on_c, 1, 43, 0
1, 131543, Note_on_c, 1, 36, 0
1, 131565, Note_on_c, 1, 48, 77
1, 131587, Note_on_c, 9, 59, 18
1, 131601, Note_on_c, 0, 62, 52
1, 131609, Note_on_c, 0, 58, 49
1, 131633, Note_on_c, 0, 62, 0
1, 131645, Note_on_c, 0, 58, 0
1, 131755, Note_on_c, 9, 59, 0
1, 131835, Note_on_c, 9, 59, 34
1, 131911, Note_on_c, 9, 59, 0
1, 131919, Note_on_c, 9, 38, 5
1, 131943, Note_on_c, 9, 46, 45
1, 131947, Note_on_c, 9, 59, 36
1, 131959, Note_on_c, 1, 40, 75
1, 131961, Note_on_c, 1, 48, 0
1, 132203, Note_on_c, 9, 38, 0
1, 132233, Note_on_c, 0, 72, 73
1, 132267, Note_on_c, 9, 59, 0
1, 132331, Note_on_c, 9, 59, 57
1, 132333, Note_on_c, 0, 72, 0
1, 132337, Note_on_c, 1, 40, 0
1, 132339, Note_on_c, 9, 38, 6
1, 132343, Note_on_c, 1, 41, 75
1, 132425, Note_on_c, 0, 80, 58
1, 132453, Note_on_c, 9, 46, 0
1, 132453, Note_on_c, 0, 68, 79
1, 132469, Note_on_c, 0, 77, 38
1, 132513, Note_on_c, 0, 77, 0
1, 132573, Note_on_c, 0, 80, 0
1, 132581, Note_on_c, 0, 68, 0
1, 132583, Note_on_c, 9, 38, 0
1, 132593, Note_on_c, 0, 69, 57
1, 132613, Note_on_c, 9, 36, 9
1, 132645, Note_on_c, 9, 59, 0
1, 132685, Note_on_c, 0, 69, 0
1, 132699, Note_on_c, 9, 44, 35
1, 132721, Note_on_c, 0, 81, 57
1, 132725, Note_on_c, 9, 59, 52
1, 132743, Note_on_c, 1, 51, 97
1, 132765, Note_on_c, 1, 41, 0
1, 132777, Note_on_c, 0, 69, 44
1, 132793, Note_on_c, 0, 81, 0
1, 132869, Note_on_c, 9, 36, 0
1, 132915, Note_on_c, 9, 44, 0
1, 132917, Note_on_c, 0, 69, 0
1, 132917, Note_on_c, 0, 81, 42
1, 132977, Note_on_c, 9, 59, 0
1, 133005, Note_on_c, 0, 81, 0
1, 133025, Note_on_c, 0, 62, 49
1, 133025, Note_on_c, 9, 59, 26
1, 133033, Note_on_c, 0, 60, 42
1, 133033, Note_on_c, 0, 69, 50
1, 133057, Note_on_c, 0, 62, 0
1, 133065, Note_on_c, 0, 53, 24
1, 133069, Note_on_c, 0, 60, 0
1, 133081, Note_on_c, 9, 59, 0
1, 133103, Note_on_c, 1, 51, 0
1, 133119, Note_on_c, 1, 50, 80
1, 133125, Note_on_c, 0, 53, 0
1, 133133, Note_on_c, 9, 59, 58
1, 133149, Note_on_c, 0, 81, 47
1, 133159, Note_on_c, 9, 36, 6
1, 133161, Note_on_c, 0, 69, 0
1, 133225, Note_on_c, 0, 81, 0
1, 133341, Note_on_c, 9, 36, 0
1, 133409, Note_on_c, 0, 60, 52
1, 133433, Note_on_c, 0, 57, 40
1, 133437, Note_on_c, 9, 59, 0
1, 133441, Note_on_c, 0, 60, 0
1, 133441, Note_on_c, 0, 53, 36
1, 133475, Note_on_c, 9, 44, 34
1, 133481, Note_on_c, 0, 53, 0
1, 133489, Note_on_c, 0, 57, 0
1, 133491, Note_on_c, 1, 50, 0
1, 133501, Note_on_c, 1, 44, 61
1, 133517, Note_on_c, 9, 59, 64
1, 133749, Note_on_c, 9, 44, 0
1, 133767, Note_on_c, 9, 59, 0
1, 133801, Note_on_c, 9, 59, 37
1, 133813, Note_on_c, 0, 71, 75
1, 133829, Note_on_c, 0, 62, 61
1, 133833, Note_on_c, 0, 58, 57
1, 133859, Note_on_c, 9, 59, 0
1, 133861, Note_on_c, 0, 62, 0
1, 133877, Note_on_c, 1, 44, 0
1, 133891, Note_on_c, 0, 58, 0
1, 133891, Note_on_c, 1, 43, 68
1, 133905, Note_on_c, 0, 71, 0
1, 133907, Note_on_c, 9, 59, 70
1, 133949, Note_on_c, 0, 72, 79
1, 134149, Note_on_c, 0, 72, 0
1, 134185, Note_on_c, 0, 74, 77
1, 134195, Note_on_c, 9, 59, 0
1, 134259, Note_on_c, 1, 43, 0
1, 134267, Note_on_c, 1, 37, 68
1, 134267, Note_on_c, 9, 44, 34
1, 134277, Note_on_c, 9, 59, 67
1, 134293, Note_on_c, 0, 74, 0
1, 134301, Note_on_c, 0, 72, 50
1, 134395, Note_on_c, 9, 44, 0
1, 134483, Note_on_c, 9, 59, 0
1, 134561, Note_on_c, 0, 72, 0
1, 134563, Note_on_c, 9, 59, 64
1, 134581, Note_on_c, 0, 71, 53
1, 134597, Note_on_c, 0, 58, 54
1, 134601, Note_on_c, 0, 62, 49
1, 134621, Note_on_c, 0, 71, 0
1, 134629, Note_on_c, 0, 62, 0
1, 134629, Note_on_c, 9, 59, 0
1, 134631, Note_on_c, 1, 37, 0
1, 134641, Note_on_c, 0, 58, 0
1, 134651, Note_on_c, 1, 36, 79
1, 134661, Note_on_c, 9, 59, 58
1, 134709, Note_on_c, 0, 72, 56
1, 134905, Note_on_c, 0, 72, 0
1, 134949, Note_on_c, 0, 72, 46
1, 134951, Note_on_c, 1, 34, 68
1, 134989, Note_on_c, 0, 72, 0
1, 134991, Note_on_c, 9, 59, 0
1, 135025, Note_on_c, 1, 36, 0
1, 135031, Note_on_c, 9, 44, 37
1, 135033, Note_on_c, 1, 40, 90
1, 135051, Note_on_c, 9, 59, 62
1, 135075, Note_on_c, 1, 34, 0
1, 135193, Note_on_c, 9, 44, 0
1, 135267, Note_on_c, 9, 59, 0
1, 135331, Note_on_c, 9, 59, 52
1, 135361, Note_on_c, 0, 56, 48
1, 135383, Note_on_c, 9, 38, 14
1, 135393, Note_on_c, 9, 59, 0
1, 135397, Note_on_c, 0, 56, 0
1, 135399, Note_on_c, 1, 40, 0
1, 135427, Note_on_c, 1, 41, 84
1, 135437, Note_on_c, 9, 38, 0
1, 135439, Note_on_c, 9, 59, 70
1, 135441, Note_on_c, 0, 74, 82
1, 135441, Note_on_c, 0, 82, 82
1, 135453, Note_on_c, 0, 58, 77
1, 135521, Note_on_c, 9, 38, 3
1, 135583, Note_on_c, 9, 38, 0
1, 135721, Note_on_c, 0, 82, 0
1, 135725, Note_on_c, 0, 74, 0
1, 135725, Note_on_c, 0, 58, 0
1, 135773, Note_on_c, 9, 59, 0
1, 135781, Note_on_c, 9, 44, 37
1, 135807, Note_on_c, 1, 34, 76
1, 135825, Note_on_c, 0, 81, 81
1, 135825, Note_on_c, 0, 57, 80
1, 135825, Note_on_c, 0, 72, 80
1, 135825, Note_on_c, 9, 59, 59
1, 135843, Note_on_c, 1, 41, 0
1, 135927, Note_on_c, 9, 44, 0
1, 135961, Note_on_c, 0, 81, 0
1, 135985, Note_on_c, 0, 57, 0
1, 136029, Note_on_c, 0, 72, 0
1, 136051, Note_on_c, 9, 59, 0
1, 136057, Note_on_c, 9, 36, 18
1, 136105, Note_on_c, 9, 36, 0
1, 136113, Note_on_c, 9, 59, 47
1, 136165, Note_on_c, 9, 59, 0
1, 136177, Note_on_c, 1, 34, 0
1, 136193, Note_on_c, 1, 29, 68
1, 136205, Note_on_c, 9, 36, 9
1, 136209, Note_on_c, 9, 59, 56
1, 136221, Note_on_c, 0, 41, 57
1, 136253, Note_on_c, 0, 41, 0
1, 136365, Note_on_c, 9, 36, 0
1, 136495, Note_on_c, 1, 34, 51
1, 136527, Note_on_c, 9, 59, 0
1, 136537, Note_on_c, 1, 34, 0
1, 136543, Note_on_c, 1, 29, 0
1, 136545, Note_on_c, 9, 44, 37
1, 136587, Note_on_c, 1, 40, 70
1, 136589, Note_on_c, 9, 59, 61
1, 136591, Note_on_c, 1, 38, 74
1, 136609, Note_on_c, 0, 58, 72
1, 136609, Note_on_c, 0, 68, 107
1, 136613, Note_on_c, 0, 74, 102
1, 136617, Note_on_c, 0, 64, 94
1, 136621, Note_on_c, 0, 56, 72
1, 136681, Note_on_c, 1, 38, 0
1, 136681, Note_on_c, 9, 44, 0
1, 136797, Note_on_c, 0, 74, 0
1, 136799, Note_on_c, 9, 59, 0
1, 136805, Note_on_c, 0, 56, 0
1, 136849, Note_on_c, 0, 58, 0
1, 136849, Note_on_c, 0, 64, 0
1, 136869, Note_on_c, 0, 68, 0
1, 136885, Note_on_c, 9, 59, 45
1, 136901, Note_on_c, 0, 72, 75
1, 136909, Note_on_c, 0, 67, 80
1, 136913, Note_on_c, 0, 57, 80
1, 136917, Note_on_c, 0, 62, 72
1, 136935, Note_on_c, 9, 59, 0
1, 136959, Note_on_c, 1, 41, 87
1, 136973, Note_on_c, 0, 72, 0
1, 136985, Note_on_c, 0, 57, 0
1, 136985, Note_on_c, 9, 59, 65
1, 136997, Note_on_c, 0, 67, 0
1, 137011, Note_on_c, 1, 40, 0
1, 137013, Note_on_c, 0, 62, 0
1, 137273, Note_on_c, 0, 53, 68
1, 137273, Note_on_c, 0, 64, 81
1, 137273, Note_on_c, 0, 69, 75
1, 137283, Note_on_c, 9, 59, 0
1, 137289, Note_on_c, 0, 60, 58
1, 137317, Note_on_c, 0, 60, 0
1, 137331, Note_on_c, 1, 29, 69
1, 137349, Note_on_c, 0, 53, 0
1, 137353, Note_on_c, 9, 44, 42
1, 137361, Note_on_c, 9, 59, 61
1, 137379, Note_on_c, 1, 41, 0
1, 137389, Note_on_c, 0, 64, 0
1, 137389, Note_on_c, 0, 69, 0
1, 137397, Note_on_c, 0, 60, 60
1, 137479, Note_on_c, 9, 44, 0
1, 137579, Note_on_c, 9, 59, 0
1, 137647, Note_on_c, 9, 59, 43
1, 137677, Note_on_c, 0, 48, 46
1, 137697, Note_on_c, 0, 60, 0
1, 137701, Note_on_c, 9, 59, 0
1, 137727, Note_on_c, 1, 41, 96
1, 137763, Note_on_c, 9, 59, 58
1, 137771, Note_on_c, 1, 29, 0
1, 137781, Note_on_c, 0, 48, 0
1, 137797, Note_on_c, 0, 67, 67
1, 137805, Note_on_c, 0, 57, 71
1, 137809, Note_on_c, 0, 52, 63
1, 137809, Note_on_c, 0, 60, 54
1, 137829, Note_on_c, 0, 64, 44
1, 137973, Note_on_c, 0, 64, 0
1, 138013, Note_on_c, 9, 53, 50
1, 138039, Note_on_c, 9, 59, 0
1, 138069, Note_on_c, 0, 57, 0
1, 138073, Note_on_c, 0, 67, 0
1, 138097, Note_on_c, 0, 49, 36
1, 138117, Note_on_c, 0, 60, 0
1, 138119, Note_on_c, 1, 39, 96
1, 138121, Note_on_c, 0, 52, 0
1, 138123, Note_on_c, 1, 41, 0
1, 138123, Note_on_c, 9, 44, 36
1, 138141, Note_on_c, 0, 49, 0
1, 138145, Note_on_c, 9, 59, 22
1, 138165, Note_on_c, 0, 57, 48
1, 138165, Note_on_c, 9, 53, 0
1, 138177, Note_on_c, 0, 65, 57
1, 138181, Note_on_c, 0, 51, 58
1, 138247, Note_on_c, 9, 44, 0
1, 138273, Note_on_c, 0, 57, 0
1, 138381, Note_on_c, 9, 53, 52
1, 138425, Note_on_c, 0, 65, 0
1, 138425, Note_on_c, 9, 59, 0
1, 138433, Note_on_c, 0, 51, 0
1, 138441, Note_on_c, 0, 58, 63
1, 138441, Note_on_c, 0, 67, 65
1, 138445, Note_on_c, 0, 62, 70
1, 138461, Note_on_c, 0, 52, 65
1, 138475, Note_on_c, 1, 39, 0
1, 138493, Note_on_c, 1, 40, 79
1, 138517, Note_on_c, 9, 59, 26
1, 138537, Note_on_c, 9, 53, 0
1, 138637, Note_on_c, 0, 67, 0
1, 138661, Note_on_c, 0, 62, 0
1, 138673, Note_on_c, 0, 58, 0
1, 138717, Note_on_c, 0, 52, 0
1, 138765, Note_on_c, 0, 55, 60
1, 138797, Note_on_c, 9, 59, 0
1, 138801, Note_on_c, 0, 40, 50
1, 138825, Note_on_c, 0, 55, 0
1, 138837, Note_on_c, 0, 40, 0
1, 138849, Note_on_c, 1, 40, 0
1, 138855, Note_on_c, 1, 28, 66
1, 138863, Note_on_c, 9, 46, 36
1, 138869, Note_on_c, 0, 57, 57
1, 138887, Note_on_c, 9, 59, 57
1, 138933, Note_on_c, 0, 57, 0
1, 138945, Note_on_c, 0, 58, 58
1, 138973, Note_on_c, 0, 58, 0
1, 139009, Note_on_c, 9, 46, 0
1, 139041, Note_on_c, 0, 62, 62
1, 139085, Note_on_c, 0, 62, 0
1, 139125, Note_on_c, 0, 66, 61
1, 139157, Note_on_c, 0, 66, 0
1, 139175, Note_on_c, 9, 59, 0
1, 139201, Note_on_c, 0, 69, 68
1, 139241, Note_on_c, 1, 28, 0
1, 139245, Note_on_c, 1, 34, 85
1, 139263, Note_on_c, 9, 59, 52
1, 139273, Note_on_c, 0, 66, 49
1, 139281, Note_on_c, 0, 69, 0
1, 139321, Note_on_c, 0, 66, 0
1, 139349, Note_on_c, 0, 67, 63
1, 139413, Note_on_c, 0, 67, 0
1, 139465, Note_on_c, 0, 69, 57
1, 139495, Note_on_c, 9, 59, 0
1, 139505, Note_on_c, 0, 69, 0
1, 139533, Note_on_c, 0, 70, 57
1, 139547, Note_on_c, 9, 59, 26
1, 139561, Note_on_c, 0, 70, 0
1, 139595, Note_on_c, 9, 59, 0
1, 139609, Note_on_c, 0, 72, 66
1, 139615, Note_on_c, 0, 58, 49
1, 139615, Note_on_c, 9, 44, 38
1, 139625, Note_on_c, 0, 62, 45
1, 139627, Note_on_c, 1, 34, 0
1, 139641, Note_on_c, 1, 31, 70
1, 139647, Note_on_c, 9, 59, 64
1, 139665, Note_on_c, 0, 72, 0
1, 139669, Note_on_c, 0, 62, 0
1, 139701, Note_on_c, 0, 73, 49
1, 139709, Note_on_c, 0, 58, 0
1, 139733, Note_on_c, 0, 73, 0
1, 139749, Note_on_c, 9, 44, 0
1, 139761, Note_on_c, 0, 75, 62
1, 139789, Note_on_c, 0, 75, 0
1, 139837, Note_on_c, 0, 76, 66
1, 139901, Note_on_c, 0, 76, 0
1, 139947, Note_on_c, 9, 59, 0
1, 139977, Note_on_c, 0, 64, 37
1, 139977, Note_on_c, 0, 61, 49
1, 139993, Note_on_c, 0, 79, 66
1, 140001, Note_on_c, 0, 55, 38
1, 140019, Note_on_c, 1, 31, 0
1, 140027, Note_on_c, 9, 59, 61
1, 140035, Note_on_c, 1, 33, 81
1, 140073, Note_on_c, 0, 79, 0
1, 140073, Note_on_c, 0, 81, 61
1, 140153, Note_on_c, 0, 81, 0
1, 140161, Note_on_c, 0, 61, 0
1, 140165, Note_on_c, 0, 82, 49
1, 140169, Note_on_c, 0, 64, 0
1, 140193, Note_on_c, 0, 82, 0
1, 140225, Note_on_c, 0, 84, 56
1, 140255, Note_on_c, 1, 33, 0
1, 140293, Note_on_c, 0, 84, 0
1, 140293, Note_on_c, 0, 85, 57
1, 140295, Note_on_c, 1, 33, 95
1, 140325, Note_on_c, 9, 59, 0
1, 140333, Note_on_c, 0, 55, 0
1, 140361, Note_on_c, 0, 85, 0
1, 140373, Note_on_c, 0, 87, 56
1, 140375, Note_on_c, 1, 33, 0
1, 140401, Note_on_c, 1, 35, 90
1, 140409, Note_on_c, 9, 59, 61
1, 140413, Note_on_c, 0, 87, 0
1, 140417, Note_on_c, 9, 44, 39
1, 140433, Note_on_c, 0, 88, 63
1, 140509, Note_on_c, 0, 88, 0
1, 140521, Note_on_c, 0, 91, 102
1, 140543, Note_on_c, 9, 44, 0
1, 140645, Note_on_c, 0, 91, 0
1, 140681, Note_on_c, 9, 59, 0
1, 140697, Note_on_c, 0, 89, 107
1, 140723, Note_on_c, 9, 59, 43
1, 140757, Note_on_c, 1, 35, 0
1, 140773, Note_on_c, 9, 59, 0
1, 140775, Note_on_c, 1, 36, 79
1, 140797, Note_on_c, 0, 89, 0
1, 140825, Note_on_c, 9, 59, 72
1, 140849, Note_on_c, 0, 88, 83
1, 140873, Note_on_c, 0, 64, 55
1, 140873, Note_on_c, 0, 61, 48
1, 140893, Note_on_c, 0, 58, 40
1, 140917, Note_on_c, 0, 64, 0
1, 140933, Note_on_c, 0, 58, 0
1, 140949, Note_on_c, 0, 88, 0
1, 140949, Note_on_c, 0, 61, 0
1, 141013, Note_on_c, 0, 85, 81
1, 141039, Note_on_c, 1, 33, 76
1, 141051, Note_on_c, 1, 36, 0
1, 141079, Note_on_c, 9, 38, 8
1, 141101, Note_on_c, 0, 85, 0
1, 141119, Note_on_c, 9, 38, 0
1, 141121, Note_on_c, 9, 59, 0
1, 141121, Note_on_c, 1, 33, 0
1, 141155, Note_on_c, 1, 37, 91
1, 141157, Note_on_c, 9, 46, 37
1, 141173, Note_on_c, 0, 88, 89
1, 141179, Note_on_c, 9, 59, 63
1, 141195, Note_on_c, 9, 38, 9
1, 141333, Note_on_c, 0, 87, 87
1, 141361, Note_on_c, 0, 88, 0
1, 141373, Note_on_c, 9, 38, 0
1, 141409, Note_on_c, 0, 87, 0
1, 141415, Note_on_c, 9, 59, 0
1, 141451, Note_on_c, 9, 46, 0
1, 141461, Note_on_c, 0, 86, 77
1, 141467, Note_on_c, 9, 59, 47
1, 141505, Note_on_c, 9, 59, 0
1, 141523, Note_on_c, 1, 37, 0
1, 141537, Note_on_c, 0, 60, 47
1, 141541, Note_on_c, 1, 38, 90
1, 141549, Note_on_c, 0, 86, 0
1, 141557, Note_on_c, 0, 57, 48
1, 141569, Note_on_c, 0, 53, 40
1, 141569, Note_on_c, 9, 59, 63
1, 141585, Note_on_c, 0, 85, 74
1, 141589, Note_on_c, 0, 50, 28
1, 141595, Note_on_c, 9, 38, 10
1, 141661, Note_on_c, 0, 60, 0
1, 141685, Note_on_c, 0, 85, 0
1, 141721, Note_on_c, 0, 84, 59
1, 141749, Note_on_c, 0, 57, 0
1, 141767, Note_on_c, 9, 38, 0
1, 141817, Note_on_c, 0, 53, 0
1, 141817, Note_on_c, 0, 84, 0
1, 141825, Note_on_c, 9, 38, 19
1, 141835, Note_on_c, 9, 59, 0
1, 141843, Note_on_c, 0, 81, 57
1, 141843, Note_on_c, 1, 33, 58
1, 141891, Note_on_c, 9, 38, 0
1, 141893, Note_on_c, 0, 50, 0
1, 141897, Note_on_c, 1, 33, 0
1, 141899, Note_on_c, 1, 38, 0
1, 141901, Note_on_c, 0, 81, 0
1, 141919, Note_on_c, 1, 40, 84
1, 141937, Note_on_c, 9, 59, 65
1, 141939, Note_on_c, 9, 44, 39
1, 141969, Note_on_c, 0, 79, 60
1, 142081, Note_on_c, 0, 79, 0
1, 142089, Note_on_c, 9, 44, 0
1, 142089, Note_on_c, 0, 77, 63
1, 142155, Note_on_c, 9, 59, 0
1, 142161, Note_on_c, 0, 77, 0
1, 142201, Note_on_c, 0, 76, 49
1, 142213, Note_on_c, 9, 59, 42
1, 142265, Note_on_c, 9, 59, 0
1, 142277, Note_on_c, 1, 40, 0
1, 142293, Note_on_c, 0, 76, 0
1, 142293, Note_on_c, 0, 60, 25
1, 142301, Note_on_c, 9, 38, 9
1, 142305, Note_on_c, 1, 41, 88
1, 142319, Note_on_c, 9, 59, 68
1, 142329, Note_on_c, 0, 79, 56
1, 142341, Note_on_c, 0, 60, 0
1, 142413, Note_on_c, 0, 76, 40
1, 142421, Note_on_c, 0, 79, 0
1, 142497, Note_on_c, 0, 76, 0
1, 142509, Note_on_c, 9, 38, 0
1, 142541, Note_on_c, 0, 77, 79
1, 142557, Note_on_c, 9, 59, 0
1, 142563, Note_on_c, 9, 36, 15
1, 142567, Note_on_c, 1, 38, 66
1, 142629, Note_on_c, 0, 77, 0
1, 142635, Note_on_c, 1, 41, 0
1, 142669, Note_on_c, 9, 44, 43
1, 142677, Note_on_c, 1, 42, 86
1, 142677, Note_on_c, 1, 38, 0
1, 142705, Note_on_c, 9, 59, 63
1, 142725, Note_on_c, 9, 36, 0
1, 142737, Note_on_c, 0, 69, 57
1, 142781, Note_on_c, 0, 69, 0
1, 142797, Note_on_c, 9, 44, 0
1, 142951, Note_on_c, 9, 59, 0
1, 142969, Note_on_c, 0, 69, 55
1, 142987, Note_on_c, 9, 59, 28
1, 143001, Note_on_c, 0, 69, 0
1, 143055, Note_on_c, 1, 42, 0
1, 143057, Note_on_c, 9, 59, 0
1, 143057, Note_on_c, 9, 36, 18
1, 143065, Note_on_c, 0, 64, 39
1, 143069, Note_on_c, 1, 43, 79
1, 143081, Note_on_c, 0, 59, 46
1, 143099, Note_on_c, 9, 59, 54
1, 143101, Note_on_c, 0, 53, 23
1, 143109, Note_on_c, 0, 64, 0
1, 143109, Note_on_c, 0, 71, 57
1, 143173, Note_on_c, 0, 53, 0
1, 143197, Note_on_c, 0, 59, 0
1, 143223, Note_on_c, 9, 36, 0
1, 143305, Note_on_c, 0, 71, 0
1, 143349, Note_on_c, 9, 59, 0
1, 143369, Note_on_c, 1, 38, 72
1, 143373, Note_on_c, 0, 73, 58
1, 143405, Note_on_c, 0, 73, 0
1, 143411, Note_on_c, 1, 43, 0
1, 143415, Note_on_c, 1, 38, 0
1, 143445, Note_on_c, 9, 44, 37
1, 143461, Note_on_c, 1, 51, 55
1, 143471, Note_on_c, 1, 52, 83
1, 143471, Note_on_c, 9, 59, 61
1, 143493, Note_on_c, 0, 76, 107
1, 143571, Note_on_c, 9, 44, 0
1, 143719, Note_on_c, 1, 42, 51
1, 143729, Note_on_c, 0, 76, 0
1, 143745, Note_on_c, 1, 42, 0
1, 143763, Note_on_c, 9, 59, 0
1, 143765, Note_on_c, 9, 53, 40
1, 143769, Note_on_c, 0, 69, 43
1, 143793, Note_on_c, 1, 52, 0
1, 143815, Note_on_c, 1, 51, 0
1, 143827, Note_on_c, 1, 50, 83
1, 143837, Note_on_c, 0, 59, 37
1, 143845, Note_on_c, 0, 69, 0
1, 143853, Note_on_c, 0, 64, 24
1, 143857, Note_on_c, 0, 53, 45
1, 143867, Note_on_c, 9, 53, 0
1, 143875, Note_on_c, 9, 59, 54
1, 143881, Note_on_c, 0, 73, 58
1, 143905, Note_on_c, 0, 64, 0
1, 143905, Control_c, 0, 64, 127
1, 143985, Note_on_c, 0, 59, 0
1, 143997, Note_on_c, 0, 53, 0
1, 144105, Control_c, 0, 64, 0
1, 144147, Note_on_c, 1, 50, 0
1, 144147, Note_on_c, 1, 44, 46
1, 144149, Note_on_c, 9, 53, 50
1, 144153, Note_on_c, 0, 64, 60
1, 144159, Note_on_c, 9, 59, 0
1, 144173, Note_on_c, 0, 59, 51
1, 144185, Note_on_c, 1, 44, 0
1, 144201, Note_on_c, 1, 49, 85
1, 144205, Note_on_c, 0, 64, 0
1, 144209, Note_on_c, 9, 46, 45
1, 144217, Note_on_c, 0, 53, 21
1, 144237, Note_on_c, 9, 53, 0
1, 144241, Note_on_c, 0, 73, 0
1, 144261, Note_on_c, 9, 59, 44
1, 144265, Note_on_c, 0, 59, 0
1, 144277, Note_on_c, 0, 53, 0
1, 144487, Note_on_c, 9, 59, 0
1, 144517, Note_on_c, 9, 46, 0
1, 144529, Note_on_c, 9, 59, 31
1, 144595, Note_on_c, 1, 49, 0
1, 144607, Note_on_c, 1, 50, 87
1, 144609, Note_on_c, 9, 59, 0
1, 144625, Control_c, 0, 64, 127
1, 144649, Note_on_c, 9, 59, 45
1, 144897, Note_on_c, 0, 64, 69
1, 144897, Note_on_c, 0, 60, 63
1, 144901, Note_on_c, 0, 67, 77
1, 144901, Note_on_c, 0, 53, 43
1, 144901, Note_on_c, 0, 79, 72
1, 144905, Note_on_c, 9, 59, 0
1, 144913, Note_on_c, 0, 72, 62
1, 144913, Note_on_c, 0, 54, 33
1, 144917, Note_on_c, 0, 76, 57
1, 144917, Note_on_c, 0, 57, 50
1, 144933, Note_on_c, 0, 64, 0
1, 144949, Note_on_c, 0, 67, 0
1, 144957, Note_on_c, 0, 72, 0
1, 144961, Note_on_c, 0, 54, 0
1, 144969, Note_on_c, 0, 79, 0
1, 144969, Note_on_c, 0, 53, 0
1, 144975, Note_on_c, 9, 44, 34
1, 144989, Note_on_c, 0, 57, 0
1, 144997, Note_on_c, 0, 60, 0
1, 145001, Note_on_c, 0, 76, 0
1, 145001, Control_c, 0, 64, 0
1, 145001, Note_on_c, 1, 45, 89
1, 145005, Note_on_c, 1, 50, 0
1, 145009, Note_on_c, 9, 59, 55
1, 145041, Note_on_c, 0, 53, 55
1, 145041, Note_on_c, 0, 64, 77
1, 145049, Note_on_c, 0, 74, 82
1, 145049, Note_on_c, 0, 60, 60
1, 145053, Note_on_c, 0, 81, 77
1, 145053, Note_on_c, 0, 57, 69
1, 145053, Note_on_c, 0, 77, 68
1, 145053, Note_on_c, 0, 83, 79
1, 145065, Note_on_c, 0, 69, 70
1, 145069, Note_on_c, 0, 71, 64
1, 145089, Note_on_c, 0, 83, 0
1, 145121, Control_c, 0, 64, 127
1, 145123, Note_on_c, 9, 44, 0
1, 145189, Note_on_c, 0, 71, 0
1, 145197, Note_on_c, 0, 69, 0
1, 145213, Note_on_c, 0, 64, 0
1, 145213, Note_on_c, 0, 81, 0
1, 145213, Note_on_c, 0, 53, 0
1, 145217, Note_on_c, 0, 74, 0
1, 145229, Note_on_c, 0, 77, 0
1, 145237, Note_on_c, 0, 57, 0
1, 145245, Note_on_c, 0, 60, 0
1, 145249, Note_on_c, 9, 59, 0
1, 145285, Note_on_c, 0, 81, 81
1, 145297, Note_on_c, 0, 53, 61
1, 145297, Note_on_c, 0, 64, 74
1, 145301, Note_on_c, 0, 74, 75
1, 145309, Note_on_c, 0, 57, 66
1, 145309, Note_on_c, 0, 60, 75
1, 145311, Note_on_c, 9, 59, 41
1, 145313, Note_on_c, 0, 69, 69
1, 145313, Note_on_c, 0, 77, 53
1, 145321, Control_c, 0, 64, 0
1, 145345, Note_on_c, 0, 69, 0
1, 145349, Note_on_c, 0, 77, 0
1, 145365, Note_on_c, 0, 64, 0
1, 145365, Note_on_c, 9, 59, 0
1, 145377, Note_on_c, 0, 53, 0
1, 145381, Note_on_c, 0, 81, 0
1, 145389, Note_on_c, 0, 74, 0
1, 145389, Note_on_c, 0, 60, 0
1, 145393, Note_on_c, 0, 57, 0
1, 145397, Note_on_c, 1, 41, 70
1, 145399, Note_on_c, 1, 45, 0
1, 145419, Note_on_c, 9, 59, 48
1, 145441, Note_on_c, 0, 64, 63
1, 145441, Note_on_c, 0, 53, 45
1, 145441, Note_on_c, 0, 79, 54
1, 145457, Note_on_c, 0, 60, 45
1, 145465, Note_on_c, 0, 57, 58
1, 145465, Note_on_c, 0, 74, 45
1, 145473, Note_on_c, 0, 77, 33
1, 145485, Note_on_c, 0, 67, 31
1, 145521, Note_on_c, 0, 77, 0
1, 145573, Control_c, 0, 64, 127
1, 145589, Note_on_c, 0, 67, 0
1, 145593, Note_on_c, 0, 74, 0
1, 145601, Note_on_c, 0, 79, 0
1, 145609, Note_on_c, 0, 64, 0
1, 145617, Note_on_c, 0, 53, 0
1, 145621, Note_on_c, 0, 57, 0
1, 145625, Note_on_c, 0, 60, 0
1, 145627, Note_on_c, 9, 38, 5
1, 145637, Control_c, 0, 64, 0
1, 145671, Note_on_c, 9, 38, 0
1, 145685, Note_on_c, 0, 79, 70
1, 145687, Note_on_c, 9, 59, 0
1, 145689, Note_on_c, 0, 53, 65
1, 145693, Note_on_c, 0, 74, 75
1, 145693, Note_on_c, 0, 67, 72
1, 145693, Note_on_c, 0, 64, 71
1, 145693, Note_on_c, 0, 60, 63
1, 145693, Note_on_c, 0, 57, 57
1, 145713, Note_on_c, 0, 77, 45
1, 145749, Note_on_c, 0, 77, 0
1, 145751, Note_on_c, 1, 41, 0
1, 145753, Note_on_c, 0, 79, 0
1, 145753, Note_on_c, 0, 74, 0
1, 145753, Note_on_c, 0, 64, 0
1, 145759, Note_on_c, 0, 67, 0
1, 145759, Note_on_c, 9, 44, 30
1, 145763, Note_on_c, 1, 42, 68
1, 145769, Note_on_c, 9, 59, 61
1, 145773, Note_on_c, 0, 53, 0
1, 145777, Note_on_c, 0, 60, 0
1, 145785, Note_on_c, 0, 57, 0
1, 145813, Note_on_c, 0, 77, 66
1, 145825, Note_on_c, 0, 72, 63
1, 145833, Note_on_c, 0, 53, 45
1, 145833, Note_on_c, 0, 65, 49
1, 145841, Note_on_c, 0, 60, 47
1, 145841, Note_on_c, 0, 64, 46
1, 145845, Control_c, 0, 64, 127
1, 145853, Note_on_c, 0, 57, 42
1, 145915, Note_on_c, 9, 44, 0
1, 145925, Note_on_c, 0, 64, 0
1, 145941, Note_on_c, 0, 77, 0
1, 145945, Note_on_c, 0, 65, 0
1, 145949, Note_on_c, 0, 72, 0
1, 145953, Note_on_c, 0, 53, 0
1, 145977, Note_on_c, 0, 57, 0
1, 145989, Note_on_c, 0, 60, 0
1, 146007, Note_on_c, 9, 59, 0
1, 146017, Note_on_c, 9, 36, 13
1, 146049, Note_on_c, 9, 59, 38
1, 146073, Note_on_c, 9, 36, 0
1, 146077, Note_on_c, 0, 77, 75
1, 146077, Note_on_c, 0, 72, 72
1, 146085, Note_on_c, 0, 57, 43
1, 146093, Note_on_c, 0, 65, 52
1, 146093, Note_on_c, 0, 53, 40
1, 146109, Note_on_c, 0, 56, 37
1, 146113, Note_on_c, 9, 59, 0
1, 146117, Note_on_c, 0, 77, 0
1, 146121, Note_on_c, 0, 72, 0
1, 146125, Note_on_c, 0, 65, 0
1, 146129, Note_on_c, 0, 53, 0
1, 146129, Control_c, 0, 64, 0
1, 146151, Note_on_c, 9, 38, 6
1, 146153, Note_on_c, 0, 56, 0
1, 146153, Note_on_c, 1, 43, 66
1, 146157, Note_on_c, 0, 57, 0
1, 146161, Note_on_c, 1, 42, 0
1, 146163, Note_on_c, 9, 59, 58
1, 146209, Note_on_c, 0, 65, 66
1, 146213, Note_on_c, 0, 76, 60
1, 146221, Note_on_c, 0, 53, 48
1, 146229, Note_on_c, 0, 69, 61
1, 146229, Note_on_c, 0, 73, 40
1, 146241, Note_on_c, 0, 59, 48
1, 146241, Note_on_c, 0, 64, 39
1, 146385, Note_on_c, 9, 38, 0
1, 146397, Note_on_c, 0, 69, 0
1, 146401, Note_on_c, 0, 53, 0
1, 146409, Note_on_c, 0, 65, 0
1, 146413, Note_on_c, 0, 73, 0
1, 146413, Note_on_c, 0, 64, 0
1, 146429, Note_on_c, 0, 76, 0
1, 146429, Note_on_c, 0, 59, 0
1, 146447, Note_on_c, 9, 59, 0
1, 146461, Note_on_c, 1, 42, 57
1, 146521, Note_on_c, 9, 44, 34
1, 146531, Note_on_c, 1, 57, 96
1, 146547, Note_on_c, 9, 59, 61
1, 146567, Note_on_c, 1, 42, 0
1, 146589, Note_on_c, 0, 64, 50
1, 146593, Note_on_c, 0, 59, 52
1, 146597, Note_on_c, 0, 65, 43
1, 146597, Note_on_c, 0, 76, 44
1, 146597, Note_on_c, 0, 73, 42
1, 146597, Note_on_c, 0, 53, 46
1, 146597, Note_on_c, 0, 69, 55
1, 146671, Note_on_c, 9, 44, 0
1, 146779, Note_on_c, 9, 38, 14
1, 146793, Note_on_c, 0, 65, 0
1, 146801, Note_on_c, 0, 53, 0
1, 146805, Note_on_c, 0, 69, 0
1, 146809, Note_on_c, 0, 76, 0
1, 146817, Note_on_c, 0, 64, 0
1, 146821, Note_on_c, 0, 59, 0
1, 146825, Note_on_c, 9, 59, 0
1, 146827, Note_on_c, 1, 43, 0
1, 146829, Note_on_c, 0, 73, 0
1, 146841, Note_on_c, 9, 38, 0
1, 146919, Note_on_c, 1, 56, 91
1, 146921, Note_on_c, 9, 59, 60
1, 146933, Note_on_c, 1, 57, 0
1, 146949, Note_on_c, 0, 76, 56
1, 146949, Note_on_c, 0, 59, 51
1, 146949, Note_on_c, 0, 53, 49
1, 146957, Note_on_c, 0, 73, 50
1, 146957, Note_on_c, 0, 65, 52
1, 146961, Note_on_c, 0, 64, 46
1, 146965, Note_on_c, 0, 69, 61
1, 147073, Note_on_c, 0, 64, 0
1, 147101, Note_on_c, 0, 53, 0
1, 147109, Note_on_c, 0, 65, 0
1, 147129, Note_on_c, 0, 69, 0
1, 147133, Note_on_c, 0, 73, 0
1, 147149, Note_on_c, 0, 76, 0
1, 147155, Note_on_c, 9, 59, 0
1, 147167, Note_on_c, 9, 36, 16
1, 147169, Note_on_c, 0, 59, 0
1, 147195, Note_on_c, 1, 43, 64
1, 147209, Note_on_c, 9, 59, 32
1, 147221, Note_on_c, 0, 64, 56
1, 147221, Note_on_c, 0, 59, 42
1, 147237, Note_on_c, 0, 74, 57
1, 147241, Note_on_c, 0, 53, 38
1, 147253, Note_on_c, 0, 64, 0
1, 147257, Note_on_c, 1, 43, 0
1, 147267, Note_on_c, 9, 59, 0
1, 147279, Note_on_c, 1, 56, 0
1, 147281, Note_on_c, 1, 54, 86
1, 147291, Note_on_c, 9, 44, 23
1, 147297, Note_on_c, 9, 36, 0
1, 147297, Note_on_c, 0, 53, 0
1, 147301, Note_on_c, 0, 59, 0
1, 147307, Note_on_c, 9, 59, 54
1, 147309, Note_on_c, 0, 74, 0
1, 147311, Note_on_c, 9, 38, 5
1, 147381, Control_c, 0, 64, 127
1, 147435, Note_on_c, 9, 44, 0
1, 147517, Control_c, 0, 64, 0
1, 147527, Note_on_c, 9, 38, 0
1, 147573, Note_on_c, 0, 53, 73
1, 147573, Note_on_c, 0, 82, 96
1, 147573, Note_on_c, 0, 58, 78
1, 147573, Note_on_c, 0, 70, 92
1, 147573, Note_on_c, 0, 77, 99
1, 147573, Note_on_c, 0, 62, 79
1, 147597, Note_on_c, 0, 57, 58
1, 147599, Note_on_c, 9, 59, 0
1, 147641, Note_on_c, 1, 54, 0
1, 147661, Control_c, 0, 64, 127
1, 147683, Note_on_c, 1, 55, 80
1, 147685, Note_on_c, 9, 59, 58
1, 147849, Note_on_c, 0, 62, 0
1, 147885, Note_on_c, 0, 57, 0
1, 147897, Note_on_c, 0, 58, 0
1, 147901, Note_on_c, 0, 82, 0
1, 147925, Note_on_c, 0, 77, 0
1, 147949, Note_on_c, 0, 53, 0
1, 147957, Note_on_c, 9, 59, 0
1, 147973, Note_on_c, 0, 70, 0
1, 148051, Note_on_c, 9, 59, 64
1, 148057, Note_on_c, 9, 44, 36
1, 148069, Note_on_c, 1, 50, 79
1, 148085, Note_on_c, 1, 55, 0
1, 148187, Note_on_c, 9, 44, 0
1, 148307, Note_on_c, 9, 59, 0
1, 148359, Note_on_c, 9, 59, 34
1, 148407, Note_on_c, 9, 59, 0
1, 148439, Note_on_c, 1, 50, 0
1, 148449, Control_c, 0, 64, 0
1, 148453, Note_on_c, 9, 59, 63
1, 148477, Note_on_c, 0, 64, 102
1, 148477, Note_on_c, 0, 60, 102
1, 148477, Note_on_c, 0, 55, 107
1, 148485, Note_on_c, 0, 52, 82
1, 148485, Note_on_c, 0, 45, 81
1, 148485, Note_on_c, 1, 46, 69
1, 148493, Note_on_c, 0, 63, 39
1, 148661, Control_c, 0, 64, 127
1, 148763, Note_on_c, 9, 59, 0
1, 148823, Note_on_c, 9, 59, 65
1, 148823, Note_on_c, 1, 46, 0
1, 148829, Note_on_c, 9, 44, 56
1, 148835, Note_on_c, 1, 43, 71
1, 148905, Note_on_c, 0, 45, 0
1, 148933, Note_on_c, 0, 52, 0
1, 148957, Note_on_c, 9, 44, 0
1, 148989, Note_on_c, 0, 55, 0
1, 149057, Note_on_c, 0, 60, 0
1, 149065, Note_on_c, 0, 63, 0
1, 149073, Note_on_c, 9, 59, 0
1, 149077, Note_on_c, 0, 64, 0
1, 149125, Note_on_c, 9, 59, 40
1, 149191, Note_on_c, 9, 59, 0
1, 149225, Note_on_c, 1, 43, 0
1, 149225, Control_c, 0, 64, 0
1, 149233, Note_on_c, 9, 59, 38
1, 149249, Note_on_c, 1, 45, 107
1, 149267, Note_on_c, 0, 65, 86
1, 149267, Note_on_c, 0, 58, 92
1, 149267, Note_on_c, 0, 46, 75
1, 149267, Note_on_c, 0, 53, 66
1, 149267, Note_on_c, 1, 43, 42
1, 149277, Note_on_c, 0, 62, 75
1, 149295, Note_on_c, 1, 43, 0
1, 149421, Control_c, 0, 64, 127
1, 149511, Note_on_c, 9, 59, 0
1, 149571, Note_on_c, 1, 45, 0
1, 149601, Note_on_c, 0, 62, 0
1, 149613, Note_on_c, 9, 44, 48
1, 149621, Note_on_c, 1, 45, 97
1, 149627, Note_on_c, 9, 59, 73
1, 149633, Note_on_c, 0, 46, 0
1, 149649, Note_on_c, 0, 58, 0
1, 149689, Note_on_c, 0, 65, 0
1, 149755, Note_on_c, 9, 44, 0
1, 149821, Note_on_c, 0, 53, 0
1, 149877, Note_on_c, 9, 59, 0
1, 149883, Note_on_c, 9, 38, 6
1, 149925, Note_on_c, 9, 59, 38
1, 149931, Note_on_c, 9, 38, 0
1, 149975, Note_on_c, 9, 59, 0
1, 149987, Note_on_c, 1, 46, 95
1, 149993, Note_on_c, 1, 45, 0
1, 149997, Control_c, 0, 64, 0
1, 150039, Note_on_c, 9, 59, 41
1, 150049, Note_on_c, 0, 56, 46
1, 150053, Note_on_c, 0, 62, 61
1, 150061, Note_on_c, 0, 59, 54
1, 150065, Note_on_c, 0, 47, 41
1, 150225, Control_c, 0, 64, 127
1, 150269, Note_on_c, 1, 45, 66
1, 150279, Note_on_c, 9, 38, 9
1, 150309, Note_on_c, 1, 45, 0
1, 150321, Note_on_c, 9, 59, 0
1, 150351, Note_on_c, 9, 38, 0
1, 150359, Note_on_c, 1, 46, 0
1, 150365, Note_on_c, 0, 47, 0
1, 150369, Note_on_c, 1, 47, 83
1, 150377, Note_on_c, 9, 44, 45
1, 150405, Note_on_c, 9, 59, 67
1, 150421, Note_on_c, 0, 56, 0
1, 150429, Note_on_c, 0, 59, 0
1, 150519, Note_on_c, 9, 44, 0
1, 150541, Note_on_c, 0, 62, 0
1, 150609, Note_on_c, 9, 59, 0
1, 150675, Note_on_c, 9, 59, 38
1, 150717, Note_on_c, 1, 47, 0
1, 150725, Note_on_c, 9, 59, 0
1, 150759, Note_on_c, 1, 48, 92
1, 150791, Note_on_c, 9, 59, 52
1, 151031, Note_on_c, 9, 53, 61
1, 151077, Note_on_c, 9, 59, 0
1, 151147, Note_on_c, 9, 46, 33
1, 151151, Note_on_c, 1, 36, 100
1, 151157, Note_on_c, 9, 59, 30
1, 151183, Note_on_c, 9, 53, 0
1, 151207, Note_on_c, 1, 48, 0
1, 151229, Control_c, 0, 64, 0
1, 151247, Note_on_c, 9, 46, 0
1, 151341, Note_on_c, 9, 59, 0
1, 151401, Note_on_c, 9, 38, 9
1, 151431, Note_on_c, 9, 53, 42
1, 151459, Note_on_c, 9, 53, 0
1, 151485, Note_on_c, 9, 38, 0
1, 151557, Note_on_c, 9, 59, 66
1, 151585, Note_on_c, 0, 65, 58
1, 151779, Note_on_c, 9, 36, 10
1, 151785, Note_on_c, 0, 65, 0
1, 151809, Note_on_c, 9, 53, 35
1, 151813, Note_on_c, 1, 43, 54
1, 151813, Note_on_c, 9, 36, 0
1, 151823, Note_on_c, 9, 59, 0
1, 151841, Note_on_c, 9, 53, 0
1, 151845, Note_on_c, 0, 67, 58
1, 151853, Note_on_c, 0, 58, 43
1, 151863, Note_on_c, 1, 43, 0
1, 151893, Note_on_c, 0, 67, 0
1, 151895, Note_on_c, 1, 48, 111
1, 151897, Note_on_c, 0, 58, 0
1, 151903, Note_on_c, 9, 44, 42
1, 151957, Note_on_c, 0, 70, 88
1, 151973, Note_on_c, 9, 59, 16
1, 152031, Note_on_c, 9, 44, 0
1, 152115, Note_on_c, 9, 59, 0
1, 152167, Note_on_c, 9, 38, 11
1, 152185, Note_on_c, 9, 59, 65
1, 152205, Note_on_c, 0, 70, 0
1, 152209, Note_on_c, 9, 38, 0
1, 152217, Note_on_c, 0, 68, 46
1, 152261, Note_on_c, 0, 58, 30
1, 152269, Note_on_c, 9, 59, 0
1, 152309, Note_on_c, 0, 58, 0
1, 152321, Note_on_c, 9, 59, 61
1, 152325, Note_on_c, 0, 68, 0
1, 152365, Note_on_c, 0, 69, 46
1, 152561, Note_on_c, 0, 69, 0
1, 152569, Note_on_c, 9, 38, 5
1, 152575, Note_on_c, 9, 59, 0
1, 152575, Note_on_c, 9, 53, 21
1, 152577, Note_on_c, 0, 70, 66
1, 152589, Note_on_c, 0, 58, 58
1, 152597, Note_on_c, 0, 62, 39
1, 152607, Note_on_c, 9, 38, 0
1, 152615, Note_on_c, 9, 53, 0
1, 152621, Note_on_c, 0, 58, 0
1, 152637, Note_on_c, 0, 62, 0
1, 152663, Note_on_c, 1, 48, 0
1, 152671, Note_on_c, 9, 46, 37
1, 152685, Note_on_c, 1, 49, 101
1, 152697, Note_on_c, 0, 70, 0
1, 152709, Note_on_c, 9, 59, 43
1, 152729, Note_on_c, 0, 71, 53
1, 152819, Note_on_c, 9, 46, 0
1, 152865, Note_on_c, 9, 59, 0
1, 152927, Note_on_c, 9, 59, 70
1, 152933, Note_on_c, 0, 71, 0
1, 152943, Note_on_c, 9, 47, 74
1, 152945, Note_on_c, 0, 72, 72
1, 152965, Note_on_c, 0, 58, 72
1, 152985, Note_on_c, 0, 48, 45
1, 152991, Note_on_c, 1, 36, 0
1, 152993, Note_on_c, 0, 58, 0
1, 153025, Note_on_c, 0, 48, 0
1, 153041, Note_on_c, 9, 59, 0
1, 153059, Note_on_c, 9, 47, 0
1, 153061, Note_on_c, 0, 72, 0
1, 153105, Note_on_c, 9, 59, 30
1, 153121, Note_on_c, 9, 45, 38
1, 153125, Note_on_c, 0, 73, 50
1, 153257, Note_on_c, 9, 45, 0
1, 153275, Note_on_c, 9, 59, 0
1, 153309, Note_on_c, 0, 73, 0
1, 153323, Note_on_c, 1, 48, 99
1, 153323, Note_on_c, 9, 53, 38
1, 153333, Note_on_c, 0, 74, 81
1, 153337, Note_on_c, 9, 38, 21
1, 153367, Note_on_c, 1, 49, 0
1, 153381, Note_on_c, 1, 48, 0
1, 153383, Note_on_c, 9, 38, 0
1, 153397, Note_on_c, 9, 53, 0
1, 153421, Note_on_c, 0, 74, 0
1, 153437, Note_on_c, 9, 44, 38
1, 153449, Note_on_c, 1, 40, 75
1, 153451, Note_on_c, 9, 59, 62
1, 153475, Note_on_c, 9, 43, 35
1, 153481, Note_on_c, 0, 75, 47
1, 153555, Note_on_c, 9, 44, 0
1, 153587, Note_on_c, 9, 43, 0
1, 153625, Note_on_c, 0, 75, 0
1, 153629, Note_on_c, 9, 59, 0
1, 153683, Note_on_c, 9, 53, 31
1, 153711, Note_on_c, 0, 76, 68
1, 153711, Note_on_c, 9, 36, 20
1, 153723, Note_on_c, 9, 53, 0
1, 153745, Note_on_c, 9, 36, 0
1, 153775, Note_on_c, 9, 57, 10
1, 153781, Note_on_c, 9, 59, 45
1, 153797, Note_on_c, 0, 76, 0
1, 153811, Note_on_c, 1, 40, 0
1, 153825, Note_on_c, 9, 36, 23
1, 153827, Note_on_c, 0, 48, 46
1, 153827, Note_on_c, 9, 57, 12
1, 153833, Note_on_c, 0, 79, 99
1, 153833, Note_on_c, 0, 41, 49
1, 153833, Note_on_c, 1, 41, 71
1, 153841, Note_on_c, 0, 57, 46
1, 153945, Note_on_c, 0, 41, 0
1, 153961, Note_on_c, 0, 48, 0
1, 154025, Note_on_c, 0, 57, 0
1, 154033, Note_on_c, 0, 79, 0
1, 154065, Note_on_c, 9, 57, 0
1, 154095, Note_on_c, 9, 59, 0
1, 154109, Note_on_c, 0, 76, 47
1, 154151, Note_on_c, 1, 37, 63
1, 154155, Note_on_c, 1, 41, 0
1, 154169, Note_on_c, 0, 76, 0
1, 154183, Note_on_c, 1, 37, 0
1, 154185, Note_on_c, 9, 59, 34
1, 154217, Note_on_c, 9, 44, 40
1, 154223, Note_on_c, 1, 39, 81
1, 154229, Note_on_c, 0, 77, 66
1, 154305, Note_on_c, 9, 44, 0
1, 154359, Note_on_c, 9, 59, 0
1, 154425, Note_on_c, 0, 77, 0
1, 154475, Note_on_c, 9, 59, 25
1, 154493, Note_on_c, 0, 74, 62
1, 154493, Note_on_c, 9, 57, 0
1, 154493, Note_on_c, 0, 62, 46
1, 154521, Note_on_c, 0, 60, 39
1, 154529, Note_on_c, 0, 62, 0
1, 154549, Note_on_c, 1, 37, 51
1, 154557, Note_on_c, 0, 57, 29
1, 154563, Note_on_c, 9, 59, 0
1, 154581, Note_on_c, 0, 60, 0
1, 154583, Note_on_c, 1, 39, 0
1, 154585, Note_on_c, 1, 37, 0
1, 154593, Note_on_c, 0, 74, 0
1, 154603, Note_on_c, 9, 59, 15
1, 154613, Note_on_c, 1, 38, 70
1, 154629, Note_on_c, 0, 57, 0
1, 154641, Note_on_c, 0, 65, 57
1, 154861, Note_on_c, 9, 59, 0
1, 154871, Note_on_c, 9, 36, 0
1, 154875, Note_on_c, 9, 38, 21
1, 154913, Note_on_c, 9, 38, 0
1, 154913, Note_on_c, 0, 65, 0
1, 154965, Note_on_c, 9, 59, 64
1, 154977, Note_on_c, 1, 44, 96
1, 154985, Note_on_c, 9, 44, 33
1, 154993, Note_on_c, 0, 65, 59
1, 155005, Note_on_c, 1, 38, 0
1, 155009, Note_on_c, 9, 36, 35
1, 155017, Note_on_c, 9, 57, 14
1, 155101, Note_on_c, 9, 44, 0
1, 155161, Note_on_c, 9, 57, 0
1, 155217, Note_on_c, 0, 65, 0
1, 155219, Note_on_c, 9, 59, 0
1, 155281, Note_on_c, 9, 59, 27
1, 155341, Note_on_c, 9, 59, 0
1, 155359, Note_on_c, 1, 44, 0
1, 155369, Note_on_c, 0, 60, 49
1, 155371, Note_on_c, 9, 59, 19
1, 155373, Note_on_c, 1, 43, 69
1, 155385, Note_on_c, 0, 57, 38
1, 155397, Note_on_c, 0, 53, 41
1, 155405, Note_on_c, 0, 50, 30
1, 155501, Note_on_c, 0, 53, 0
1, 155505, Note_on_c, 0, 57, 0
1, 155521, Note_on_c, 0, 60, 0
1, 155529, Note_on_c, 0, 50, 0
1, 155655, Note_on_c, 9, 59, 0
1, 155749, Note_on_c, 9, 44, 43
1, 155751, Note_on_c, 1, 43, 0
1, 155753, Note_on_c, 9, 59, 58
1, 155759, Note_on_c, 1, 31, 70
1, 155781, Note_on_c, 9, 36, 0
1, 155895, Note_on_c, 9, 44, 0
1, 156015, Note_on_c, 9, 59, 0
1, 156049, Note_on_c, 0, 62, 67
1, 156051, Note_on_c, 9, 59, 30
1, 156053, Note_on_c, 0, 58, 56
1, 156065, Note_on_c, 0, 57, 42
1, 156081, Note_on_c, 0, 62, 0
1, 156097, Note_on_c, 0, 57, 0
1, 156105, Note_on_c, 0, 58, 0
1, 156111, Note_on_c, 9, 59, 0
1, 156119, Note_on_c, 1, 31, 0
1, 156143, Note_on_c, 1, 36, 71
1, 156163, Note_on_c, 9, 59, 60
1, 156253, Note_on_c, 0, 73, 17
1, 156325, Note_on_c, 0, 73, 0
1, 156349, Note_on_c, 0, 74, 49
1, 156389, Note_on_c, 0, 74, 0
1, 156433, Note_on_c, 0, 77, 86
1, 156441, Note_on_c, 9, 59, 0
1, 156469, Note_on_c, 0, 65, 65
1, 156497, Note_on_c, 1, 36, 0
1, 156501, Note_on_c, 0, 57, 36
1, 156525, Note_on_c, 1, 30, 78
1, 156525, Note_on_c, 9, 44, 39
1, 156541, Note_on_c, 0, 57, 0
1, 156541, Note_on_c, 9, 59, 60
1, 156561, Note_on_c, 0, 77, 0
1, 156617, Note_on_c, 0, 65, 0
1, 156617, Note_on_c, 0, 73, 27
1, 156665, Note_on_c, 0, 73, 0
1, 156665, Note_on_c, 9, 44, 0
1, 156721, Note_on_c, 0, 74, 50
1, 156773, Note_on_c, 9, 59, 0
1, 156801, Note_on_c, 0, 74, 0
1, 156821, Note_on_c, 9, 59, 43
1, 156829, Note_on_c, 0, 77, 92
1, 156869, Note_on_c, 0, 62, 42
1, 156875, Note_on_c, 1, 30, 0
1, 156889, Note_on_c, 1, 29, 70
1, 156895, Note_on_c, 9, 59, 0
1, 156901, Note_on_c, 0, 57, 37
1, 156909, Note_on_c, 0, 62, 0
1, 156931, Note_on_c, 9, 59, 51
1, 156945, Note_on_c, 0, 57, 0
1, 156961, Note_on_c, 0, 77, 0
1, 156973, Note_on_c, 0, 76, 60
1, 157199, Note_on_c, 9, 59, 0
1, 157225, Note_on_c, 0, 72, 71
1, 157249, Note_on_c, 0, 76, 0
1, 157275, Note_on_c, 1, 29, 0
1, 157289, Note_on_c, 1, 39, 97
1, 157295, Note_on_c, 9, 59, 57
1, 157311, Note_on_c, 9, 44, 37
1, 157317, Note_on_c, 0, 72, 0
1, 157377, Note_on_c, 0, 69, 41
1, 157401, Note_on_c, 9, 44, 0
1, 157533, Note_on_c, 0, 69, 0
1, 157587, Note_on_c, 9, 59, 0
1, 157601, Note_on_c, 0, 65, 60
1, 157653, Note_on_c, 1, 39, 0
1, 157669, Note_on_c, 9, 59, 55
1, 157673, Note_on_c, 1, 38, 88
1, 157713, Note_on_c, 0, 65, 0
1, 157765, Note_on_c, 0, 64, 36
1, 157905, Note_on_c, 9, 59, 0
1, 157965, Note_on_c, 9, 59, 38
1, 158005, Note_on_c, 0, 64, 0
1, 158021, Note_on_c, 9, 59, 0
1, 158063, Note_on_c, 9, 44, 63
1, 158069, Note_on_c, 9, 59, 59
1, 158085, Note_on_c, 0, 64, 59
1, 158215, Note_on_c, 9, 44, 0
1, 158245, Note_on_c, 0, 64, 0
1, 158283, Note_on_c, 1, 34, 81
1, 158313, Note_on_c, 1, 38, 0
1, 158385, Note_on_c, 1, 34, 0
1, 158387, Note_on_c, 9, 59, 0
1, 158427, Note_on_c, 1, 35, 86
1, 158465, Note_on_c, 9, 59, 57
1, 158469, Note_on_c, 0, 57, 48
1, 158469, Note_on_c, 0, 47, 47
1, 158505, Note_on_c, 0, 47, 0
1, 158509, Note_on_c, 0, 57, 0
1, 158741, Note_on_c, 9, 59, 0
1, 158815, Note_on_c, 1, 47, 102
1, 158827, Note_on_c, 9, 44, 31
1, 158839, Note_on_c, 9, 59, 55
1, 158845, Note_on_c, 1, 35, 0
1, 158845, Note_on_c, 0, 76, 96
1, 158925, Note_on_c, 0, 76, 0
1, 158929, Note_on_c, 9, 44, 0
1, 158937, Note_on_c, 0, 77, 66
1, 159025, Note_on_c, 0, 77, 0
1, 159037, Note_on_c, 0, 76, 54
1, 159071, Note_on_c, 9, 59, 0
1, 159095, Note_on_c, 1, 35, 59
1, 159121, Note_on_c, 9, 59, 37
1, 159149, Note_on_c, 1, 35, 0
1, 159149, Note_on_c, 0, 76, 0
1, 159149, Note_on_c, 0, 75, 63
1, 159209, Note_on_c, 0, 75, 0
1, 159215, Note_on_c, 1, 40, 81
1, 159235, Note_on_c, 1, 47, 0
1, 159237, Note_on_c, 0, 65, 44
1, 159245, Note_on_c, 0, 56, 39
1, 159257, Note_on_c, 0, 62, 48
1, 159269, Note_on_c, 0, 76, 66
1, 159465, Note_on_c, 1, 35, 54
1, 159477, Note_on_c, 0, 76, 0
1, 159481, Note_on_c, 9, 59, 0
1, 159501, Note_on_c, 0, 77, 88
1, 159507, Note_on_c, 1, 40, 0
1, 159557, Note_on_c, 1, 35, 0
1, 159573, Note_on_c, 0, 62, 0
1, 159575, Note_on_c, 9, 44, 34
1, 159581, Note_on_c, 1, 28, 79
1, 159589, Note_on_c, 0, 65, 0
1, 159615, Note_on_c, 0, 77, 0
1, 159615, Note_on_c, 9, 59, 64
1, 159653, Note_on_c, 0, 76, 57
1, 159657, Note_on_c, 0, 56, 0
1, 159689, Note_on_c, 9, 44, 0
1, 159857, Note_on_c, 9, 59, 0
1, 159881, Note_on_c, 0, 76, 0
1, 159881, Note_on_c, 0, 74, 73
1, 159903, Note_on_c, 9, 59, 29
1, 159919, Note_on_c, 1, 28, 0
1, 159951, Note_on_c, 9, 59, 0
1, 159961, Note_on_c, 1, 33, 90
1, 159973, Note_on_c, 0, 74, 0
1, 160001, Note_on_c, 0, 61, 40
1, 160005, Note_on_c, 9, 59, 62
1, 160013, Note_on_c, 0, 64, 27
1, 160013, Note_on_c, 0, 54, 35
1, 160021, Note_on_c, 0, 59, 45
1, 160033, Note_on_c, 0, 73, 50
1, 160219, Note_on_c, 9, 59, 0
1, 160225, Note_on_c, 9, 38, 9
1, 160267, Note_on_c, 9, 38, 0
1, 160271, Note_on_c, 1, 33, 0
1, 160289, Note_on_c, 0, 59, 0
1, 160297, Note_on_c, 0, 64, 0
1, 160297, Control_c, 0, 64, 127
1, 160325, Note_on_c, 9, 44, 35
1, 160337, Note_on_c, 0, 61, 0
1, 160343, Note_on_c, 1, 33, 101
1, 160353, Note_on_c, 0, 54, 0
1, 160355, Note_on_c, 9, 59, 64
1, 160425, Note_on_c, 0, 73, 0
1, 160433, Note_on_c, 9, 44, 0
1, 160609, Note_on_c, 9, 59, 0
1, 160725, Control_c, 0, 64, 0
1, 160737, Note_on_c, 1, 33, 0
1, 160741, Note_on_c, 9, 59, 66
1, 160743, Note_on_c, 1, 35, 93
1, 160759, Note_on_c, 9, 38, 5
1, 160773, Note_on_c, 0, 54, 48
1, 160849, Note_on_c, 0, 54, 0
1, 160953, Note_on_c, 9, 38, 0
1, 160981, Note_on_c, 9, 59, 0
1, 161005, Note_on_c, 0, 66, 78
1, 161009, Note_on_c, 0, 54, 68
1, 161009, Note_on_c, 0, 57, 75
1, 161017, Note_on_c, 0, 62, 64
1, 161031, Note_on_c, 9, 59, 33
1, 161081, Note_on_c, 1, 35, 0
1, 161093, Note_on_c, 0, 62, 0
1, 161093, Note_on_c, 0, 57, 0
1, 161099, Note_on_c, 9, 59, 0
1, 161121, Note_on_c, 0, 66, 0
1, 161123, Note_on_c, 1, 35, 106
1, 161131, Note_on_c, 9, 44, 36
1, 161139, Note_on_c, 9, 59, 50
1, 161149, Note_on_c, 0, 54, 0
1, 161177, Note_on_c, 0, 47, 37
1, 161185, Note_on_c, 0, 54, 29
1, 161201, Note_on_c, 0, 57, 28
1, 161205, Note_on_c, 0, 64, 42
1, 161241, Note_on_c, 9, 44, 0
1, 161281, Note_on_c, 0, 57, 0
1, 161333, Note_on_c, 0, 54, 0
1, 161337, Note_on_c, 0, 64, 0
1, 161391, Note_on_c, 0, 47, 0
1, 161391, Note_on_c, 9, 38, 11
1, 161393, Note_on_c, 9, 59, 0
1, 161417, Note_on_c, 0, 54, 55
1, 161417, Note_on_c, 0, 66, 73
1, 161433, Note_on_c, 0, 57, 39
1, 161437, Note_on_c, 0, 62, 50
1, 161457, Note_on_c, 9, 38, 0
1, 161469, Note_on_c, 0, 57, 0
1, 161485, Note_on_c, 0, 62, 0
1, 161499, Note_on_c, 1, 37, 81
1, 161517, Note_on_c, 0, 54, 0
1, 161533, Note_on_c, 9, 59, 65
1, 161541, Note_on_c, 0, 66, 0
1, 161543, Note_on_c, 1, 35, 0
1, 161593, Note_on_c, 0, 49, 50
1, 161593, Note_on_c, 0, 68, 72
1, 161597, Note_on_c, 0, 59, 63
1, 161601, Note_on_c, 0, 64, 54
1, 161821, Note_on_c, 9, 59, 0
1, 161829, Note_on_c, 1, 37, 0
1, 161841, Note_on_c, 0, 59, 0
1, 161849, Note_on_c, 0, 68, 0
1, 161861, Note_on_c, 0, 64, 0
1, 161879, Note_on_c, 1, 37, 96
1, 161893, Note_on_c, 9, 38, 10
1, 161897, Note_on_c, 9, 44, 35
1, 161905, Note_on_c, 0, 64, 50
1, 161911, Note_on_c, 0, 56, 54
1, 161911, Note_on_c, 9, 59, 58
1, 161921, Note_on_c, 0, 59, 48
1, 161973, Note_on_c, 0, 59, 0
1, 162035, Note_on_c, 9, 44, 0
1, 162073, Note_on_c, 9, 38, 0
1, 162085, Note_on_c, 0, 64, 0
1, 162129, Note_on_c, 0, 56, 0
1, 162141, Note_on_c, 9, 59, 0
1, 162181, Note_on_c, 0, 69, 79
1, 162185, Note_on_c, 0, 66, 68
1, 162185, Note_on_c, 0, 62, 81
1, 162189, Note_on_c, 9, 59, 44
1, 162197, Note_on_c, 0, 57, 74
1, 162205, Note_on_c, 0, 49, 0
1, 162235, Note_on_c, 1, 37, 0
1, 162251, Note_on_c, 9, 59, 0
1, 162267, Note_on_c, 1, 38, 94
1, 162295, Note_on_c, 9, 59, 58
1, 162525, Control_c, 0, 64, 127
1, 162531, Note_on_c, 9, 38, 12
1, 162563, Note_on_c, 9, 59, 0
1, 162583, Note_on_c, 1, 38, 0
1, 162601, Note_on_c, 0, 62, 0
1, 162621, Note_on_c, 9, 38, 0
1, 162629, Note_on_c, 1, 38, 102
1, 162641, Note_on_c, 0, 69, 0
1, 162653, Note_on_c, 9, 44, 30
1, 162657, Note_on_c, 0, 66, 0
1, 162657, Note_on_c, 9, 36, 16
1, 162669, Note_on_c, 0, 57, 0
1, 162681, Note_on_c, 9, 59, 68
1, 162765, Note_on_c, 9, 44, 0
1, 162879, Note_on_c, 9, 36, 0
1, 162897, Note_on_c, 9, 59, 0
1, 162939, Note_on_c, 1, 35, 48
1, 162943, Note_on_c, 1, 38, 0
1, 162945, Note_on_c, 0, 56, 38
1, 162963, Note_on_c, 9, 59, 38
1, 162965, Control_c, 0, 64, 0
1, 163003, Note_on_c, 1, 35, 0
1, 163009, Note_on_c, 0, 59, 25
1, 163013, Note_on_c, 1, 40, 92
1, 163019, Note_on_c, 9, 59, 0
1, 163049, Note_on_c, 0, 71, 82
1, 163067, Note_on_c, 9, 59, 61
1, 163079, Note_on_c, 9, 38, 13
1, 163241, Note_on_c, 0, 71, 0
1, 163259, Note_on_c, 9, 38, 0
1, 163297, Note_on_c, 0, 68, 50
1, 163319, Note_on_c, 9, 36, 17
1, 163331, Note_on_c, 9, 59, 0
1, 163343, Note_on_c, 1, 40, 0
1, 163361, Note_on_c, 0, 59, 0
1, 163377, Note_on_c, 0, 56, 0
1, 163407, Note_on_c, 1, 40, 90
1, 163415, Note_on_c, 9, 44, 35
1, 163425, Note_on_c, 0, 68, 0
1, 163441, Note_on_c, 9, 59, 65
1, 163449, Note_on_c, 9, 36, 0
1, 163461, Note_on_c, 0, 69, 58
1, 163549, Note_on_c, 9, 44, 0
1, 163651, Note_on_c, 9, 59, 0
1, 163661, Note_on_c, 0, 69, 0
1, 163693, Note_on_c, 0, 70, 70
1, 163697, Note_on_c, 0, 63, 51
1, 163697, Note_on_c, 9, 38, 19
1, 163705, Note_on_c, 0, 54, 48
1, 163717, Note_on_c, 0, 60, 41
1, 163717, Note_on_c, 9, 59, 40
1, 163767, Note_on_c, 1, 40, 0
1, 163779, Note_on_c, 9, 59, 0
1, 163799, Note_on_c, 1, 42, 88
1, 163813, Note_on_c, 9, 38, 0
1, 163833, Note_on_c, 0, 70, 0
1, 163837, Note_on_c, 9, 59, 69
1, 163849, Note_on_c, 0, 63, 0
1, 163889, Note_on_c, 0, 71, 50
1, 163889, Note_on_c, 9, 36, 8
1, 164005, Note_on_c, 0, 60, 0
1, 164021, Note_on_c, 9, 59, 0
1, 164025, Note_on_c, 0, 71, 0
1, 164083, Note_on_c, 9, 36, 0
1, 164089, Note_on_c, 0, 72, 80
1, 164125, Note_on_c, 1, 42, 0
1, 164183, Note_on_c, 1, 42, 83
1, 164183, Note_on_c, 9, 44, 47
1, 164185, Note_on_c, 0, 72, 0
1, 164199, Note_on_c, 0, 54, 0
1, 164199, Note_on_c, 9, 59, 70
1, 164237, Note_on_c, 9, 38, 20
1, 164261, Note_on_c, 0, 73, 56
1, 164289, Note_on_c, 9, 44, 0
1, 164405, Note_on_c, 9, 38, 0
1, 164421, Note_on_c, 0, 73, 0
1, 164461, Note_on_c, 0, 74, 67
1, 164461, Note_on_c, 0, 58, 63
1, 164465, Note_on_c, 0, 57, 56
1, 164471, Note_on_c, 9, 36, 14
1, 164477, Note_on_c, 0, 62, 58
1, 164493, Note_on_c, 9, 59, 0
1, 164501, Note_on_c, 0, 62, 0
1, 164509, Note_on_c, 0, 57, 0
1, 164549, Note_on_c, 1, 42, 0
1, 164553, Note_on_c, 0, 58, 0
1, 164567, Note_on_c, 9, 59, 36
1, 164573, Note_on_c, 1, 43, 87
1, 164581, Note_on_c, 0, 74, 0
1, 164609, Note_on_c, 9, 36, 0
1, 164615, Note_on_c, 9, 59, 0
1, 164649, Note_on_c, 0, 77, 44
1, 164693, Note_on_c, 9, 59, 58
1, 164789, Note_on_c, 0, 77, 0
1, 164841, Note_on_c, 9, 59, 0
1, 164845, Note_on_c, 9, 38, 20
1, 164849, Note_on_c, 0, 81, 90
1, 164907, Note_on_c, 1, 42, 51
1, 164923, Note_on_c, 1, 43, 0
1, 164937, Note_on_c, 0, 81, 0
1, 164947, Note_on_c, 9, 38, 0
1, 164969, Note_on_c, 1, 43, 100
1, 164975, Note_on_c, 9, 59, 72
1, 164981, Note_on_c, 9, 44, 46
1, 164991, Note_on_c, 1, 42, 0
1, 165001, Note_on_c, 0, 84, 98
1, 165013, Note_on_c, 0, 72, 84
1, 165077, Note_on_c, 9, 44, 0
1, 165117, Note_on_c, 0, 84, 0
1, 165121, Note_on_c, 0, 82, 51
1, 165125, Note_on_c, 0, 72, 0
1, 165157, Note_on_c, 0, 82, 0
1, 165203, Note_on_c, 9, 59, 0
1, 165223, Note_on_c, 9, 38, 25
1, 165229, Note_on_c, 0, 85, 86
1, 165229, Note_on_c, 0, 58, 66
1, 165229, Note_on_c, 0, 73, 78
1, 165229, Note_on_c, 0, 63, 75
1, 165231, Note_on_c, 1, 50, 109
1, 165251, Note_on_c, 9, 59, 41
1, 165253, Note_on_c, 0, 52, 53
1, 165265, Note_on_c, 0, 63, 0
1, 165279, Note_on_c, 1, 43, 0
1, 165289, Note_on_c, 0, 52, 0
1, 165295, Note_on_c, 9, 59, 0
1, 165309, Note_on_c, 9, 38, 0
1, 165331, Note_on_c, 1, 50, 0
1, 165341, Note_on_c, 0, 73, 0
1, 165349, Note_on_c, 0, 85, 0
1, 165373, Note_on_c, 1, 48, 76
1, 165393, Note_on_c, 0, 58, 0
1, 165465, Note_on_c, 0, 87, 94
1, 165477, Note_on_c, 0, 75, 92
1, 165485, Note_on_c, 9, 59, 64
1, 165557, Note_on_c, 9, 59, 0
1, 165603, Note_on_c, 9, 38, 27
1, 165641, Note_on_c, 0, 87, 0
1, 165649, Note_on_c, 0, 75, 0
1, 165655, Note_on_c, 9, 53, 45
1, 165705, Note_on_c, 9, 46, 50
1, 165711, Note_on_c, 9, 38, 0
1, 165713, Note_on_c, 9, 53, 0
1, 165721, Note_on_c, 1, 40, 86
1, 165737, Note_on_c, 0, 85, 76
1, 165739, Note_on_c, 9, 59, 71
1, 165745, Note_on_c, 0, 73, 75
1, 165773, Control_c, 0, 64, 127
1, 165837, Note_on_c, 9, 46, 0
1, 165879, Note_on_c, 9, 59, 0
1, 165897, Note_on_c, 0, 85, 0
1, 165901, Note_on_c, 0, 73, 0
1, 165909, Control_c, 0, 64, 0
1, 165987, Note_on_c, 9, 59, 67
1, 165989, Note_on_c, 0, 41, 53
1, 165989, Note_on_c, 9, 57, 16
1, 165989, Note_on_c, 9, 38, 20
1, 165997, Note_on_c, 0, 48, 41
1, 165997, Note_on_c, 0, 84, 75
1, 165997, Note_on_c, 0, 79, 79
1, 165997, Note_on_c, 0, 72, 70
1, 166005, Note_on_c, 1, 48, 0
1, 166017, Note_on_c, 0, 57, 56
1, 166061, Note_on_c, 9, 38, 0
1, 166095, Note_on_c, 1, 40, 0
1, 166111, Note_on_c, 1, 41, 91
1, 166127, Note_on_c, 9, 36, 35
1, 166131, Note_on_c, 9, 57, 14
1, 166133, Control_c, 0, 64, 127
1, 166209, Note_on_c, 0, 84, 0
1, 166213, Note_on_c, 0, 79, 0
1, 166269, Note_on_c, 0, 41, 0
1, 166309, Note_on_c, 0, 48, 0
1, 166349, Note_on_c, 0, 57, 0
1, 166361, Note_on_c, 0, 72, 0
1, 166369, Note_on_c, 9, 57, 0
1, 166413, Note_on_c, 9, 59, 0
1, 166465, Note_on_c, 1, 41, 0
1, 166481, Note_on_c, 9, 44, 38
1, 166485, Note_on_c, 1, 39, 86
1, 166495, Note_on_c, 9, 59, 33
1, 166533, Control_c, 0, 64, 0
1, 166557, Note_on_c, 0, 64, 96
1, 166561, Note_on_c, 0, 79, 120
1, 166561, Note_on_c, 0, 69, 115
1, 166561, Note_on_c, 0, 72, 99
1, 166561, Note_on_c, 0, 76, 87
1, 166587, Note_on_c, 9, 44, 0
1, 166593, Note_on_c, 0, 78, 34
1, 166617, Note_on_c, 0, 77, 33
1, 166657, Note_on_c, 0, 77, 0
1, 166657, Note_on_c, 0, 78, 0
1, 166693, Note_on_c, 9, 59, 0
1, 166737, Note_on_c, 0, 76, 0
1, 166753, Note_on_c, 0, 64, 0
1, 166753, Note_on_c, 9, 59, 34
1, 166757, Note_on_c, 0, 79, 0
1, 166769, Note_on_c, 0, 69, 0
1, 166777, Note_on_c, 0, 72, 0
1, 166793, Note_on_c, 9, 57, 0
1, 166821, Note_on_c, 0, 72, 77
1, 166821, Note_on_c, 0, 77, 82
1, 166829, Note_on_c, 0, 69, 75
1, 166833, Note_on_c, 0, 62, 82
1, 166837, Note_on_c, 9, 59, 0
1, 166879, Note_on_c, 1, 38, 84
1, 166879, Note_on_c, 9, 59, 34
1, 166881, Note_on_c, 1, 39, 0
1, 166933, Control_c, 0, 64, 127
1, 167013, Note_on_c, 0, 77, 0
1, 167013, Note_on_c, 0, 72, 0
1, 167069, Note_on_c, 9, 36, 0
1, 167081, Note_on_c, 0, 69, 0
1, 167155, Note_on_c, 9, 59, 0
1, 167165, Note_on_c, 9, 38, 4
1, 167183, Note_on_c, 1, 37, 70
1, 167203, Note_on_c, 9, 38, 0
1, 167239, Note_on_c, 1, 38, 0
1, 167245, Note_on_c, 9, 44, 37
1, 167255, Note_on_c, 9, 59, 54
1, 167271, Note_on_c, 1, 48, 111
1, 167313, Note_on_c, 0, 62, 0
1, 167313, Note_on_c, 1, 37, 0
1, 167329, Note_on_c, 0, 61, 57
1, 167329, Note_on_c, 0, 76, 73
1, 167337, Note_on_c, 0, 69, 72
1, 167343, Note_on_c, 9, 44, 0
1, 167345, Note_on_c, 0, 65, 60
1, 167433, Note_on_c, 0, 76, 0
1, 167445, Control_c, 0, 64, 0
1, 167503, Note_on_c, 9, 59, 0
1, 167509, Note_on_c, 0, 69, 0
1, 167513, Note_on_c, 0, 65, 0
1, 167565, Note_on_c, 9, 59, 27
1, 167573, Note_on_c, 0, 61, 0
1, 167577, Note_on_c, 0, 74, 66
1, 167581, Note_on_c, 0, 65, 61
1, 167581, Note_on_c, 0, 69, 74
1, 167593, Note_on_c, 0, 60, 63
1, 167621, Note_on_c, 1, 48, 0
1, 167625, Note_on_c, 9, 59, 0
1, 167641, Note_on_c, 1, 46, 77
1, 167655, Note_on_c, 9, 59, 20
1, 167677, Control_c, 0, 64, 127
1, 167749, Note_on_c, 0, 69, 0
1, 167765, Note_on_c, 0, 74, 0
1, 167797, Note_on_c, 0, 60, 0
1, 167821, Note_on_c, 0, 65, 0
1, 167945, Note_on_c, 9, 59, 0
1, 167945, Control_c, 0, 64, 0
1, 167977, Note_on_c, 0, 54, 38
1, 167995, Note_on_c, 1, 46, 0
1, 168015, Note_on_c, 1, 38, 84
1, 168029, Note_on_c, 0, 54, 0
1, 168029, Note_on_c, 9, 44, 39
1, 168035, Note_on_c, 9, 59, 54
1, 168053, Note_on_c, 0, 72, 64
1, 168069, Note_on_c, 0, 65, 63
1, 168069, Note_on_c, 0, 57, 54
1, 168069, Note_on_c, 0, 62, 59
1, 168073, Control_c, 0, 64, 127
1, 168135, Note_on_c, 9, 44, 0
1, 168229, Control_c, 0, 64, 0
1, 168233, Note_on_c, 0, 65, 0
1, 168265, Note_on_c, 0, 62, 0
1, 168269, Note_on_c, 9, 59, 0
1, 168273, Note_on_c, 0, 72, 0
1, 168273, Note_on_c, 0, 57, 0
1, 168333, Note_on_c, 9, 59, 25
1, 168341, Note_on_c, 0, 70, 68
1, 168345, Note_on_c, 0, 62, 59
1, 168345, Note_on_c, 0, 65, 60
1, 168365, Note_on_c, 0, 55, 54
1, 168391, Note_on_c, 9, 59, 0
1, 168405, Note_on_c, 1, 38, 0
1, 168427, Note_on_c, 1, 36, 70
1, 168427, Note_on_c, 9, 59, 32
1, 168445, Note_on_c, 0, 65, 0
1, 168449, Note_on_c, 0, 70, 0
1, 168449, Control_c, 0, 64, 127
1, 168497, Note_on_c, 0, 62, 0
1, 168683, Note_on_c, 9, 59, 0
1, 168703, Note_on_c, 1, 38, 68
1, 168717, Note_on_c, 0, 51, 25
1, 168721, Note_on_c, 0, 55, 0
1, 168737, Control_c, 0, 64, 0
1, 168771, Note_on_c, 1, 38, 0
1, 168781, Note_on_c, 0, 51, 0
1, 168789, Note_on_c, 9, 46, 39
1, 168801, Note_on_c, 1, 36, 0
1, 168803, Note_on_c, 9, 59, 77
1, 168807, Note_on_c, 1, 48, 103
1, 168825, Note_on_c, 0, 58, 57
1, 168833, Note_on_c, 0, 69, 43
1, 168857, Note_on_c, 0, 52, 48
1, 168857, Note_on_c, 0, 64, 48
1, 168873, Control_c, 0, 64, 127
1, 168873, Note_on_c, 0, 61, 37
1, 168893, Note_on_c, 0, 69, 0
1, 168895, Note_on_c, 9, 46, 0
1, 168925, Note_on_c, 0, 61, 0
1, 168973, Note_on_c, 0, 58, 0
1, 169009, Note_on_c, 0, 64, 0
1, 169033, Control_c, 0, 64, 0
1, 169065, Note_on_c, 0, 52, 0
1, 169085, Note_on_c, 0, 67, 66
1, 169101, Note_on_c, 0, 53, 57
1, 169101, Note_on_c, 0, 57, 52
1, 169101, Note_on_c, 0, 60, 57
1, 169109, Note_on_c, 0, 66, 41
1, 169119, Note_on_c, 9, 59, 0
1, 169139, Note_on_c, 1, 48, 0
1, 169149, Note_on_c, 0, 66, 0
1, 169157, Note_on_c, 0, 57, 0
1, 169157, Note_on_c, 0, 53, 0
1, 169169, Note_on_c, 0, 67, 0
1, 169177, Note_on_c, 0, 60, 0
1, 169187, Note_on_c, 9, 59, 33
1, 169189, Note_on_c, 1, 41, 89
1, 169329, Note_on_c, 9, 59, 0
1, 169449, Note_on_c, 0, 65, 69
1, 169457, Note_on_c, 9, 59, 41
1, 169461, Note_on_c, 0, 60, 66
1, 169465, Note_on_c, 0, 57, 63
1, 169465, Note_on_c, 0, 52, 66
1, 169517, Note_on_c, 0, 57, 0
1, 169527, Note_on_c, 1, 41, 0
1, 169535, Note_on_c, 9, 59, 0
1, 169555, Note_on_c, 9, 44, 46
1, 169557, Note_on_c, 1, 37, 94
1, 169561, Note_on_c, 0, 52, 0
1, 169569, Note_on_c, 9, 59, 49
1, 169577, Note_on_c, 0, 57, 32
1, 169581, Note_on_c, 0, 65, 0
1, 169581, Note_on_c, 0, 60, 0
1, 169613, Note_on_c, 0, 48, 41
1, 169639, Note_on_c, 1, 38, 55
1, 169669, Note_on_c, 9, 44, 0
1, 169781, Note_on_c, 0, 57, 0
1, 169837, Note_on_c, 9, 59, 0
1, 169861, Note_on_c, 0, 46, 47
1, 169869, Note_on_c, 1, 38, 0
1, 169927, Note_on_c, 1, 37, 0
1, 169929, Note_on_c, 0, 48, 0
1, 169939, Note_on_c, 9, 59, 61
1, 169949, Note_on_c, 1, 38, 87
1, 169961, Note_on_c, 0, 52, 57
1, 169973, Note_on_c, 0, 46, 0
1, 169973, Note_on_c, 0, 53, 55
1, 169981, Note_on_c, 0, 64, 43
1, 169989, Note_on_c, 0, 61, 48
1, 169997, Note_on_c, 0, 57, 51
1, 170225, Note_on_c, 0, 53, 0
1, 170233, Note_on_c, 9, 59, 0
1, 170233, Note_on_c, 0, 52, 0
1, 170249, Note_on_c, 0, 57, 0
1, 170253, Note_on_c, 0, 49, 46
1, 170265, Note_on_c, 0, 64, 0
1, 170277, Note_on_c, 0, 61, 0
1, 170317, Note_on_c, 9, 44, 42
1, 170323, Note_on_c, 9, 59, 64
1, 170331, Note_on_c, 1, 38, 0
1, 170345, Note_on_c, 0, 62, 60
1, 170349, Note_on_c, 0, 53, 37
1, 170353, Note_on_c, 0, 50, 54
1, 170353, Note_on_c, 1, 32, 88
1, 170361, Note_on_c, 0, 49, 0
1, 170369, Note_on_c, 0, 57, 30
1, 170415, Note_on_c, 9, 44, 0
1, 170425, Note_on_c, 0, 57, 0
1, 170537, Note_on_c, 0, 53, 0
1, 170565, Note_on_c, 9, 59, 0
1, 170595, Note_on_c, 9, 38, 6
1, 170625, Note_on_c, 0, 62, 0
1, 170633, Note_on_c, 9, 59, 39
1, 170653, Note_on_c, 9, 38, 0
1, 170669, Note_on_c, 0, 50, 0
1, 170699, Note_on_c, 9, 59, 0
1, 170713, Note_on_c, 1, 32, 0
1, 170725, Note_on_c, 0, 43, 49
1, 170725, Note_on_c, 1, 31, 76
1, 170733, Note_on_c, 0, 58, 51
1, 170737, Note_on_c, 0, 53, 51
1, 170741, Note_on_c, 9, 59, 34
1, 170745, Note_on_c, 0, 60, 51
1, 170753, Note_on_c, 9, 38, 4
1, 170845, Note_on_c, 9, 38, 0
1, 170881, Control_c, 0, 64, 127
1, 170953, Note_on_c, 0, 53, 0
1, 170971, Note_on_c, 9, 36, 8
1, 170989, Note_on_c, 9, 53, 49
1, 171017, Note_on_c, 9, 59, 0
1, 171045, Note_on_c, 0, 43, 0
1, 171067, Note_on_c, 9, 36, 0
1, 171089, Note_on_c, 1, 31, 0
1, 171089, Note_on_c, 0, 60, 0
1, 171097, Note_on_c, 9, 46, 48
1, 171123, Note_on_c, 1, 37, 89
1, 171139, Note_on_c, 9, 59, 31
1, 171157, Note_on_c, 0, 58, 0
1, 171215, Note_on_c, 9, 46, 0
1, 171271, Note_on_c, 9, 53, 0
1, 171357, Note_on_c, 9, 59, 0
1, 171361, Control_c, 0, 64, 0
1, 171375, Note_on_c, 9, 38, 12
1, 171397, Note_on_c, 0, 55, 56
1, 171405, Note_on_c, 0, 48, 52
1, 171423, Note_on_c, 9, 38, 0
1, 171423, Note_on_c, 9, 59, 32
1, 171429, Note_on_c, 0, 55, 0
1, 171449, Note_on_c, 0, 48, 0
1, 171465, Note_on_c, 9, 59, 0
1, 171483, Note_on_c, 1, 37, 0
1, 171509, Note_on_c, 1, 36, 77
1, 171525, Control_c, 0, 64, 127
1, 171527, Note_on_c, 9, 59, 58
1, 171755, Note_on_c, 9, 53, 36
1, 171767, Note_on_c, 9, 36, 11
1, 171771, Note_on_c, 9, 59, 0
1, 171789, Note_on_c, 0, 67, 73
1, 171821, Note_on_c, 9, 53, 0
1, 171837, Control_c, 0, 64, 0
1, 171845, Note_on_c, 9, 36, 0
1, 171861, Note_on_c, 0, 67, 0
1, 171863, Note_on_c, 1, 36, 0
1, 171881, Note_on_c, 9, 44, 51
1, 171889, Note_on_c, 1, 35, 88
1, 171895, Note_on_c, 9, 59, 61
1, 171933, Note_on_c, 0, 69, 75
1, 171989, Note_on_c, 9, 44, 0
1, 172095, Note_on_c, 9, 59, 0
1, 172097, Note_on_c, 0, 69, 0
1, 172153, Note_on_c, 0, 58, 52
1, 172153, Note_on_c, 0, 70, 86
1, 172161, Note_on_c, 0, 67, 57
1, 172165, Note_on_c, 0, 62, 56
1, 172173, Note_on_c, 0, 63, 50
1, 172197, Note_on_c, 9, 53, 47
1, 172229, Note_on_c, 1, 34, 47
1, 172257, Note_on_c, 1, 34, 0
1, 172265, Note_on_c, 0, 70, 0
1, 172273, Note_on_c, 1, 36, 82
1, 172281, Note_on_c, 9, 59, 60
1, 172283, Note_on_c, 1, 35, 0
1, 172333, Note_on_c, 0, 71, 77
1, 172453, Note_on_c, 0, 67, 0
1, 172493, Note_on_c, 0, 63, 0
1, 172501, Note_on_c, 0, 71, 0
1, 172549, Note_on_c, 0, 74, 89
1, 172553, Note_on_c, 0, 67, 51
1, 172569, Note_on_c, 9, 59, 0
1, 172573, Note_on_c, 0, 63, 42
1, 172621, Note_on_c, 0, 67, 0
1, 172625, Note_on_c, 1, 43, 75
1, 172629, Note_on_c, 1, 36, 0
1, 172631, Note_on_c, 9, 44, 39
1, 172665, Note_on_c, 0, 74, 0
1, 172679, Note_on_c, 9, 59, 36
1, 172681, Note_on_c, 9, 53, 0
1, 172713, Note_on_c, 0, 71, 40
1, 172739, Note_on_c, 9, 44, 0
1, 172741, Note_on_c, 0, 62, 0
1, 172801, Note_on_c, 0, 63, 0
1, 172831, Note_on_c, 9, 59, 0
1, 172881, Note_on_c, 0, 71, 0
1, 172895, Note_on_c, 9, 38, 14
1, 172913, Note_on_c, 9, 59, 56
1, 172919, Note_on_c, 9, 53, 52
1, 172933, Note_on_c, 9, 38, 0
1, 172939, Note_on_c, 1, 36, 62
1, 172945, Note_on_c, 0, 72, 79
1, 172949, Note_on_c, 0, 58, 0
1, 172969, Note_on_c, 0, 67, 57
1, 172977, Note_on_c, 0, 63, 43
1, 172997, Note_on_c, 1, 43, 0
1, 172997, Note_on_c, 1, 36, 0
1, 173013, Note_on_c, 0, 57, 38
1, 173029, Note_on_c, 1, 53, 85
1, 173037, Note_on_c, 9, 38, 6
1, 173041, Note_on_c, 0, 67, 0
1, 173061, Note_on_c, 0, 72, 0
1, 173075, Note_on_c, 9, 59, 0
1, 173121, Note_on_c, 9, 59, 18
1, 173133, Note_on_c, 0, 74, 50
1, 173169, Note_on_c, 0, 63, 0
1, 173189, Note_on_c, 9, 53, 0
1, 173243, Note_on_c, 9, 38, 0
1, 173277, Note_on_c, 0, 74, 0
1, 173279, Note_on_c, 9, 36, 16
1, 173289, Note_on_c, 9, 59, 0
1, 173299, Note_on_c, 1, 36, 63
1, 173329, Note_on_c, 0, 75, 73
1, 173337, Note_on_c, 0, 67, 56
1, 173337, Note_on_c, 0, 63, 54
1, 173343, Note_on_c, 1, 36, 0
1, 173363, Note_on_c, 9, 36, 0
1, 173373, Note_on_c, 0, 67, 0
1, 173383, Note_on_c, 1, 53, 0
1, 173385, Note_on_c, 9, 44, 44
1, 173393, Note_on_c, 1, 46, 79
1, 173397, Note_on_c, 0, 75, 0
1, 173403, Note_on_c, 9, 53, 46
1, 173433, Note_on_c, 9, 59, 64
1, 173469, Note_on_c, 0, 57, 0
1, 173487, Note_on_c, 9, 44, 0
1, 173493, Note_on_c, 0, 77, 41
1, 173545, Note_on_c, 0, 63, 0
1, 173629, Note_on_c, 0, 77, 0
1, 173643, Note_on_c, 9, 53, 0
1, 173659, Note_on_c, 9, 38, 20
1, 173685, Note_on_c, 9, 59, 0
1, 173713, Note_on_c, 0, 81, 90
1, 173725, Note_on_c, 0, 65, 58
1, 173727, Note_on_c, 0, 55, 56
1, 173727, Note_on_c, 9, 59, 27
1, 173741, Note_on_c, 0, 62, 46
1, 173749, Note_on_c, 0, 60, 48
1, 173767, Note_on_c, 1, 46, 0
1, 173775, Note_on_c, 9, 59, 0
1, 173789, Note_on_c, 1, 41, 75
1, 173805, Note_on_c, 0, 81, 0
1, 173849, Note_on_c, 0, 72, 76
1, 173849, Note_on_c, 0, 84, 87
1, 173857, Note_on_c, 9, 59, 45
1, 173949, Note_on_c, 0, 62, 0
1, 173989, Note_on_c, 0, 60, 0
1, 173989, Note_on_c, 9, 38, 0
1, 173997, Note_on_c, 0, 65, 0
1, 174037, Note_on_c, 9, 36, 20
1, 174041, Note_on_c, 0, 72, 0
1, 174053, Note_on_c, 0, 84, 0
1, 174089, Note_on_c, 1, 39, 59
1, 174097, Note_on_c, 0, 81, 63
1, 174107, Note_on_c, 9, 36, 0
1, 174121, Note_on_c, 0, 55, 0
1, 174121, Note_on_c, 0, 62, 46
1, 174127, Note_on_c, 9, 59, 0
1, 174133, Note_on_c, 0, 81, 0
1, 174133, Note_on_c, 0, 60, 48
1, 174135, Note_on_c, 1, 41, 0
1, 174153, Note_on_c, 9, 44, 43
1, 174171, Note_on_c, 9, 38, 16
1, 174183, Note_on_c, 1, 39, 0
1, 174185, Note_on_c, 1, 50, 84
1, 174191, Note_on_c, 9, 59, 63
1, 174201, Note_on_c, 0, 62, 0
1, 174209, Note_on_c, 0, 84, 98
1, 174221, Note_on_c, 0, 72, 82
1, 174237, Note_on_c, 9, 44, 0
1, 174349, Note_on_c, 0, 84, 0
1, 174367, Note_on_c, 9, 38, 0
1, 174385, Note_on_c, 0, 72, 0
1, 174427, Note_on_c, 9, 38, 23
1, 174437, Note_on_c, 0, 60, 0
1, 174441, Note_on_c, 9, 59, 0
1, 174481, Note_on_c, 0, 81, 68
1, 174485, Note_on_c, 0, 83, 56
1, 174485, Note_on_c, 0, 60, 26
1, 174489, Note_on_c, 0, 65, 60
1, 174493, Note_on_c, 0, 61, 54
1, 174497, Note_on_c, 0, 69, 48
1, 174497, Note_on_c, 0, 55, 49
1, 174501, Note_on_c, 0, 71, 46
1, 174501, Note_on_c, 9, 59, 24
1, 174503, Note_on_c, 9, 38, 0
1, 174551, Note_on_c, 9, 59, 0
1, 174559, Note_on_c, 1, 39, 93
1, 174575, Note_on_c, 1, 50, 0
1, 174581, Note_on_c, 0, 83, 0
1, 174581, Note_on_c, 9, 59, 30
1, 174665, Note_on_c, 0, 71, 0
1, 174789, Note_on_c, 0, 61, 0
1, 174837, Note_on_c, 0, 81, 0
1, 174841, Note_on_c, 0, 61, 25
1, 174845, Note_on_c, 9, 36, 5
1, 174857, Note_on_c, 0, 69, 0
1, 174873, Note_on_c, 9, 59, 0
1, 174881, Note_on_c, 0, 65, 0
1, 174895, Note_on_c, 1, 39, 0
1, 174899, Note_on_c, 9, 36, 0
1, 174919, Note_on_c, 9, 44, 53
1, 174937, Note_on_c, 0, 60, 0
1, 174951, Note_on_c, 1, 39, 88
1, 174975, Note_on_c, 9, 59, 69
1, 174981, Note_on_c, 0, 67, 53
1, 174985, Note_on_c, 0, 61, 0
1, 174989, Note_on_c, 0, 79, 41
1, 175049, Note_on_c, 0, 67, 0
1, 175049, Note_on_c, 9, 44, 0
1, 175093, Note_on_c, 0, 79, 0
1, 175101, Note_on_c, 0, 55, 0
1, 175215, Note_on_c, 9, 59, 0
1, 175259, Note_on_c, 9, 59, 28
1, 175311, Note_on_c, 9, 59, 0
1, 175335, Note_on_c, 1, 45, 97
1, 175341, Note_on_c, 1, 39, 0
1, 175363, Note_on_c, 9, 59, 53
1, 175373, Note_on_c, 0, 64, 43
1, 175377, Note_on_c, 0, 57, 50
1, 175381, Note_on_c, 0, 84, 68
1, 175385, Note_on_c, 0, 72, 55
1, 175389, Note_on_c, 0, 60, 45
1, 175389, Note_on_c, 0, 79, 61
1, 175413, Control_c, 0, 64, 127
1, 175521, Note_on_c, 0, 60, 0
1, 175537, Note_on_c, 0, 64, 0
1, 175541, Note_on_c, 0, 84, 0
1, 175545, Note_on_c, 0, 72, 0
1, 175549, Note_on_c, 0, 57, 0
1, 175553, Note_on_c, 0, 79, 0
1, 175607, Note_on_c, 9, 59, 0
1, 175641, Note_on_c, 0, 84, 56
1, 175649, Note_on_c, 0, 79, 66
1, 175649, Note_on_c, 0, 57, 48
1, 175649, Note_on_c, 0, 72, 57
1, 175649, Note_on_c, 0, 64, 48
1, 175657, Note_on_c, 0, 60, 51
1, 175681, Note_on_c, 0, 72, 0
1, 175685, Note_on_c, 0, 84, 0
1, 175685, Note_on_c, 0, 64, 0
1, 175689, Note_on_c, 0, 60, 0
1, 175701, Note_on_c, 0, 57, 0
1, 175701, Note_on_c, 1, 45, 0
1, 175717, Note_on_c, 0, 79, 0
1, 175717, Control_c, 0, 64, 88
1, 175717, Control_c, 0, 64, 0
1, 175725, Note_on_c, 1, 39, 85
1, 175731, Note_on_c, 9, 44, 44
1, 175735, Note_on_c, 9, 59, 72
1, 175765, Control_c, 0, 64, 127
1, 175769, Note_on_c, 0, 86, 88
1, 175773, Note_on_c, 0, 64, 60
1, 175773, Note_on_c, 0, 74, 73
1, 175773, Note_on_c, 0, 79, 80
1, 175773, Note_on_c, 0, 57, 73
1, 175773, Note_on_c, 0, 82, 57
1, 175785, Note_on_c, 0, 60, 54
1, 175829, Note_on_c, 9, 44, 0
1, 175885, Note_on_c, 0, 64, 0
1, 175909, Note_on_c, 0, 82, 0
1, 175909, Note_on_c, 0, 74, 0
1, 175921, Note_on_c, 0, 60, 0
1, 175925, Note_on_c, 0, 79, 0
1, 175933, Note_on_c, 0, 86, 0
1, 176005, Note_on_c, 9, 59, 0
1, 176013, Note_on_c, 0, 60, 54
1, 176033, Note_on_c, 0, 57, 0
1, 176033, Note_on_c, 0, 86, 58
1, 176035, Note_on_c, 0, 74, 70
1, 176035, Note_on_c, 1, 37, 47
1, 176037, Note_on_c, 0, 60, 0
1, 176041, Note_on_c, 0, 79, 66
1, 176061, Note_on_c, 0, 86, 0
1, 176077, Control_c, 0, 64, 0
1, 176079, Note_on_c, 1, 37, 0
1, 176081, Note_on_c, 0, 74, 0
1, 176093, Note_on_c, 1, 39, 0
1, 176111, Note_on_c, 1, 38, 82
1, 176117, Note_on_c, 0, 79, 0
1, 176129, Note_on_c, 9, 59, 40
1, 176153, Note_on_c, 0, 79, 60
1, 176157, Note_on_c, 0, 84, 68
1, 176169, Note_on_c, 0, 50, 61
1, 176169, Note_on_c, 0, 72, 63
1, 176169, Note_on_c, 0, 54, 29
1, 176173, Note_on_c, 0, 57, 51
1, 176233, Note_on_c, 0, 84, 0
1, 176241, Note_on_c, 0, 79, 0
1, 176273, Note_on_c, 0, 72, 0
1, 176295, Note_on_c, 9, 59, 0
1, 176329, Note_on_c, 0, 57, 0
1, 176345, Note_on_c, 0, 50, 0
1, 176349, Note_on_c, 0, 54, 0
1, 176411, Note_on_c, 9, 59, 71
1, 176429, Note_on_c, 0, 77, 61
1, 176433, Note_on_c, 0, 72, 66
1, 176433, Note_on_c, 0, 65, 66
1, 176453, Note_on_c, 0, 57, 53
1, 176461, Note_on_c, 0, 65, 0
1, 176461, Note_on_c, 0, 77, 0
1, 176461, Note_on_c, 0, 60, 38
1, 176461, Note_on_c, 0, 53, 56
1, 176465, Note_on_c, 0, 72, 0
1, 176475, Note_on_c, 1, 38, 0
1, 176491, Note_on_c, 9, 46, 37
1, 176493, Note_on_c, 1, 36, 78
1, 176497, Note_on_c, 0, 53, 0
1, 176499, Note_on_c, 9, 59, 0
1, 176501, Note_on_c, 0, 60, 0
1, 176513, Note_on_c, 0, 57, 0
1, 176541, Note_on_c, 9, 59, 48
1, 176643, Note_on_c, 9, 46, 0
1, 176653, Note_on_c, 9, 59, 0
1, 176775, Note_on_c, 9, 59, 78
1, 176805, Note_on_c, 0, 81, 85
1, 176809, Note_on_c, 0, 47, 72
1, 176809, Note_on_c, 0, 74, 83
1, 176813, Note_on_c, 0, 69, 83
1, 176821, Note_on_c, 1, 36, 0
1, 176821, Note_on_c, 0, 57, 58
1, 176821, Note_on_c, 0, 77, 63
1, 176825, Note_on_c, 0, 79, 60
1, 176833, Note_on_c, 0, 55, 57
1, 176853, Note_on_c, 0, 79, 0
1, 176861, Note_on_c, 0, 55, 0
1, 176869, Note_on_c, 0, 77, 0
1, 176873, Note_on_c, 1, 35, 83
1, 176885, Note_on_c, 0, 57, 0
1, 176893, Note_on_c, 0, 81, 0
1, 176893, Note_on_c, 0, 69, 0
1, 176901, Note_on_c, 0, 74, 0
1, 176925, Note_on_c, 0, 47, 0
1, 177109, Note_on_c, 9, 59, 0
1, 177159, Note_on_c, 9, 59, 22
1, 177185, Note_on_c, 0, 72, 72
1, 177197, Note_on_c, 0, 67, 36
1, 177201, Note_on_c, 0, 62, 46
1, 177201, Note_on_c, 0, 65, 57
1, 177205, Note_on_c, 0, 57, 80
1, 177207, Note_on_c, 1, 35, 0
1, 177209, Note_on_c, 0, 47, 75
1, 177213, Note_on_c, 9, 59, 0
1, 177229, Note_on_c, 0, 67, 0
1, 177229, Note_on_c, 0, 64, 31
1, 177237, Note_on_c, 0, 66, 26
1, 177255, Note_on_c, 9, 44, 47
1, 177257, Note_on_c, 1, 35, 95
1, 177269, Note_on_c, 0, 64, 0
1, 177277, Note_on_c, 0, 65, 0
1, 177279, Note_on_c, 9, 59, 48
1, 177285, Note_on_c, 0, 66, 0
1, 177325, Control_c, 0, 64, 127
1, 177401, Note_on_c, 9, 44, 0
1, 177505, Note_on_c, 0, 62, 0
1, 177521, Note_on_c, 0, 47, 0
1, 177529, Note_on_c, 9, 59, 0
1, 177533, Note_on_c, 9, 38, 14
1, 177553, Note_on_c, 0, 57, 0
1, 177577, Note_on_c, 0, 53, 42
1, 177595, Note_on_c, 1, 35, 0
1, 177609, Control_c, 0, 64, 0
1, 177609, Note_on_c, 9, 38, 0
1, 177661, Note_on_c, 1, 34, 104
1, 177671, Note_on_c, 9, 38, 5
1, 177673, Note_on_c, 0, 46, 56
1, 177673, Note_on_c, 0, 61, 60
1, 177673, Note_on_c, 0, 65, 63
1, 177673, Note_on_c, 9, 59, 70
1, 177685, Note_on_c, 0, 53, 0
1, 177685, Note_on_c, 0, 56, 54
1, 177883, Note_on_c, 9, 59, 0
1, 177887, Note_on_c, 9, 38, 0
1, 177893, Note_on_c, 0, 72, 0
1, 177897, Note_on_c, 0, 65, 0
1, 177905, Note_on_c, 0, 46, 0
1, 177917, Note_on_c, 0, 56, 0
1, 177925, Note_on_c, 0, 61, 0
1, 177927, Note_on_c, 9, 36, 14
1, 177945, Note_on_c, 0, 53, 43
1, 177949, Note_on_c, 9, 59, 35
1, 177981, Note_on_c, 1, 34, 0
1, 178027, Note_on_c, 9, 36, 0
1, 178027, Note_on_c, 9, 44, 39
1, 178031, Note_on_c, 9, 59, 0
1, 178041, Note_on_c, 0, 53, 0
1, 178041, Note_on_c, 0, 46, 54
1, 178041, Note_on_c, 1, 34, 100
1, 178049, Note_on_c, 0, 56, 56
1, 178063, Note_on_c, 0, 61, 60
1, 178063, Note_on_c, 9, 38, 7
1, 178069, Note_on_c, 9, 59, 40
1, 178073, Note_on_c, 0, 65, 66
1, 178181, Note_on_c, 9, 44, 0
1, 178221, Note_on_c, 9, 59, 0
1, 178237, Note_on_c, 9, 38, 0
1, 178245, Note_on_c, 0, 65, 0
1, 178261, Note_on_c, 0, 56, 0
1, 178277, Note_on_c, 0, 61, 0
1, 178289, Note_on_c, 0, 46, 0
1, 178305, Note_on_c, 9, 38, 14
1, 178327, Note_on_c, 9, 59, 70
1, 178333, Note_on_c, 0, 64, 69
1, 178341, Note_on_c, 0, 60, 59
1, 178361, Note_on_c, 0, 55, 42
1, 178361, Note_on_c, 0, 45, 59
1, 178381, Note_on_c, 1, 34, 0
1, 178389, Note_on_c, 9, 38, 0
1, 178401, Note_on_c, 9, 59, 0
1, 178423, Note_on_c, 1, 33, 84
1, 178445, Note_on_c, 0, 60, 0
1, 178449, Note_on_c, 0, 55, 0
1, 178455, Note_on_c, 0, 64, 0
1, 178455, Note_on_c, 9, 59, 64
1, 178517, Control_c, 0, 64, 127
1, 178665, Control_c, 0, 64, 0
1, 178671, Note_on_c, 9, 59, 0
1, 178709, Note_on_c, 0, 67, 98
1, 178709, Note_on_c, 0, 72, 90
1, 178711, Note_on_c, 9, 59, 41
1, 178717, Note_on_c, 0, 55, 92
1, 178717, Note_on_c, 0, 60, 96
1, 178761, Note_on_c, 9, 59, 0
1, 178783, Note_on_c, 1, 45, 106
1, 178795, Note_on_c, 9, 44, 38
1, 178801, Note_on_c, 1, 33, 0
1, 178809, Note_on_c, 0, 55, 0
1, 178813, Control_c, 0, 64, 127
1, 178869, Note_on_c, 0, 72, 0
1, 178901, Note_on_c, 0, 67, 0
1, 178953, Note_on_c, 9, 44, 0
1, 178973, Note_on_c, 0, 60, 0
1, 179075, Note_on_c, 9, 59, 75
1, 179097, Note_on_c, 0, 48, 54
1, 179101, Note_on_c, 0, 45, 0
1, 179155, Note_on_c, 1, 45, 0
1, 179169, Control_c, 0, 64, 0
1, 179175, Note_on_c, 1, 38, 83
1, 179193, Note_on_c, 0, 49, 49
1, 179201, Note_on_c, 0, 48, 0
1, 179209, Note_on_c, 0, 50, 66
1, 179217, Note_on_c, 0, 53, 67
1, 179225, Note_on_c, 0, 60, 62
1, 179225, Note_on_c, 0, 57, 60
1, 179249, Note_on_c, 0, 49, 0
1, 179391, Note_on_c, 9, 59, 0
1, 179415, Note_on_c, 1, 37, 72
1, 179449, Note_on_c, 0, 53, 0
1, 179453, Note_on_c, 0, 50, 0
1, 179461, Note_on_c, 9, 59, 41
1, 179473, Note_on_c, 0, 57, 0
1, 179481, Note_on_c, 0, 60, 0
1, 179485, Note_on_c, 0, 48, 43
1, 179509, Note_on_c, 0, 49, 48
1, 179517, Note_on_c, 1, 37, 0
1, 179521, Note_on_c, 9, 59, 0
1, 179537, Note_on_c, 0, 48, 0
1, 179551, Note_on_c, 1, 50, 111
1, 179577, Note_on_c, 9, 44, 39
1, 179589, Note_on_c, 1, 38, 0
1, 179601, Note_on_c, 0, 50, 54
1, 179605, Note_on_c, 0, 60, 66
1, 179605, Note_on_c, 0, 57, 65
1, 179605, Note_on_c, 0, 53, 63
1, 179607, Note_on_c, 9, 59, 39
1, 179657, Note_on_c, 0, 49, 0
1, 179659, Note_on_c, 9, 59, 0
1, 179687, Note_on_c, 9, 44, 0
1, 179741, Note_on_c, 0, 57, 0
1, 179829, Note_on_c, 0, 53, 0
1, 179829, Note_on_c, 1, 38, 56
1, 179837, Note_on_c, 0, 60, 0
1, 179841, Note_on_c, 0, 50, 0
1, 179841, Note_on_c, 9, 59, 84
1, 179869, Note_on_c, 0, 49, 31
1, 179877, Note_on_c, 1, 38, 0
1, 179893, Note_on_c, 1, 50, 0
1, 179893, Note_on_c, 0, 43, 52
1, 179925, Note_on_c, 0, 49, 0
1, 179933, Note_on_c, 1, 43, 77
1, 179955, Note_on_c, 9, 59, 0
1, 179977, Note_on_c, 0, 50, 50
1, 179977, Note_on_c, 0, 58, 68
1, 179981, Note_on_c, 0, 60, 68
1, 179985, Note_on_c, 0, 53, 65
1, 180213, Note_on_c, 9, 59, 73
1, 180277, Note_on_c, 1, 43, 0
1, 180313, Note_on_c, 1, 37, 82
1, 180315, Note_on_c, 9, 59, 0
1, 180315, Note_on_c, 9, 44, 40
1, 180375, Note_on_c, 9, 59, 33
1, 180425, Note_on_c, 0, 53, 0
1, 180429, Note_on_c, 9, 44, 0
1, 180433, Note_on_c, 9, 59, 0
1, 180433, Note_on_c, 0, 60, 0
1, 180441, Note_on_c, 0, 50, 0
1, 180477, Control_c, 0, 64, 127
1, 180497, Note_on_c, 0, 58, 0
1, 180561, Control_c, 0, 64, 0
1, 180605, Note_on_c, 0, 58, 81
1, 180605, Note_on_c, 0, 61, 71
1, 180605, Note_on_c, 9, 59, 44
1, 180613, Note_on_c, 0, 43, 0
1, 180613, Note_on_c, 0, 55, 72
1, 180625, Note_on_c, 0, 48, 62
1, 180633, Note_on_c, 0, 46, 34
1, 180661, Note_on_c, 9, 59, 0
1, 180677, Note_on_c, 0, 46, 0
1, 180709, Note_on_c, 1, 36, 82
1, 180721, Note_on_c, 1, 37, 0
1, 180725, Note_on_c, 9, 59, 56
1, 180917, Note_on_c, 9, 59, 0
1, 180985, Note_on_c, 9, 59, 44
1, 181029, Note_on_c, 9, 59, 0
1, 181041, Note_on_c, 0, 55, 0
1, 181067, Note_on_c, 1, 36, 0
1, 181077, Note_on_c, 9, 46, 37
1, 181081, Note_on_c, 0, 58, 0
1, 181085, Note_on_c, 0, 61, 0
1, 181113, Note_on_c, 0, 58, 48
1, 181113, Note_on_c, 0, 55, 72
1, 181117, Note_on_c, 0, 61, 35
1, 181131, Note_on_c, 9, 59, 39
1, 181153, Note_on_c, 0, 48, 0
1, 181173, Note_on_c, 9, 59, 0
1, 181215, Note_on_c, 9, 46, 0
1, 181277, Note_on_c, 0, 55, 0
1, 181317, Note_on_c, 0, 58, 0
1, 181341, Note_on_c, 0, 61, 0
1, 181345, Note_on_c, 9, 38, 15
1, 181365, Note_on_c, 9, 59, 51
1, 181387, Note_on_c, 9, 38, 0
1, 181399, Note_on_c, 9, 59, 0
1, 181703, Note_on_c, 9, 38, 20
1, 181713, Note_on_c, 1, 41, 100
1, 181731, Note_on_c, 9, 59, 65
1, 181743, Note_on_c, 9, 38, 0
1, 181745, Note_on_c, 0, 65, 54
1, 181745, Note_on_c, 0, 60, 62
1, 181745, Note_on_c, 0, 55, 52
1, 181769, Note_on_c, 0, 48, 54
1, 181781, Note_on_c, 0, 41, 46
1, 181789, Note_on_c, 1, 41, 0
1, 181793, Note_on_c, 0, 55, 0
1, 181797, Note_on_c, 0, 65, 0
1, 181799, Note_on_c, 9, 59, 0
1, 181805, Note_on_c, 0, 48, 0
1, 181821, Note_on_c, 0, 41, 0
1, 181825, Note_on_c, 0, 60, 0
1, 181841, Note_on_c, 9, 44, 46
1, 181979, Note_on_c, 9, 44, 0
1, 182271, Note_on_c, 9, 36, 6
1, 182281, Note_on_c, 0, 58, 56
1, 182281, Note_on_c, 1, 39, 94
1, 182285, Note_on_c, 0, 65, 41
1, 182285, Note_on_c, 0, 39, 45
1, 182289, Note_on_c, 9, 59, 60
1, 182293, Note_on_c, 0, 46, 38
1, 182309, Note_on_c, 0, 53, 36
1, 182343, Note_on_c, 9, 36, 0
1, 182353, Note_on_c, 0, 53, 0
1, 182363, Note_on_c, 1, 39, 0
1, 182369, Note_on_c, 0, 46, 0
1, 182393, Note_on_c, 0, 39, 0
1, 182413, Note_on_c, 0, 58, 0
1, 182421, Note_on_c, 0, 65, 0
1, 182433, Note_on_c, 9, 59, 0
1, 182597, Note_on_c, 9, 44, 35
1, 182741, Note_on_c, 9, 44, 0
1, 182879, Note_on_c, 1, 37, 87
1, 182901, Note_on_c, 9, 59, 55
1, 182905, Note_on_c, 0, 44, 48
1, 182913, Note_on_c, 0, 37, 41
1, 182949, Note_on_c, 0, 44, 0
1, 182961, Note_on_c, 0, 37, 0
1, 183041, Note_on_c, 0, 53, 47
1, 183077, Note_on_c, 0, 53, 0
1, 183103, Note_on_c, 9, 59, 0
1, 183149, Note_on_c, 0, 56, 50
1, 183217, Note_on_c, 0, 56, 0
1, 183273, Note_on_c, 0, 58, 57
1, 183279, Note_on_c, 9, 53, 26
1, 183321, Note_on_c, 0, 58, 0
1, 183347, Note_on_c, 9, 53, 0
1, 183393, Note_on_c, 9, 44, 33
1, 183409, Note_on_c, 0, 60, 48
1, 183437, Note_on_c, 0, 60, 0
1, 183513, Note_on_c, 9, 44, 0
1, 183517, Note_on_c, 0, 63, 47
1, 183557, Note_on_c, 0, 63, 0
1, 183661, Note_on_c, 0, 65, 64
1, 183663, Note_on_c, 9, 53, 26
1, 183721, Note_on_c, 0, 65, 0
1, 183751, Note_on_c, 9, 53, 0
1, 183789, Note_on_c, 0, 68, 59
1, 183817, Note_on_c, 0, 68, 0
1, 183921, Note_on_c, 0, 70, 62
1, 183953, Note_on_c, 0, 70, 0
1, 184045, Note_on_c, 0, 72, 80
1, 184065, Note_on_c, 9, 53, 21
1, 184109, Note_on_c, 0, 72, 0
1, 184165, Note_on_c, 0, 75, 64
1, 184169, Note_on_c, 9, 53, 0
1, 184241, Note_on_c, 0, 75, 0
1, 184305, Note_on_c, 0, 77, 79
1, 184361, Note_on_c, 0, 77, 0
1, 184429, Note_on_c, 0, 80, 85
1, 184439, Note_on_c, 9, 53, 26
1, 184455, Note_on_c, 9, 36, 22
1, 184495, Note_on_c, 9, 53, 0
1, 184497, Note_on_c, 0, 80, 0
1, 184547, Note_on_c, 9, 36, 0
1, 184565, Note_on_c, 0, 82, 84
1, 184603, Note_on_c, 1, 37, 0
1, 184603, Note_on_c, 9, 36, 6
1, 184713, Note_on_c, 0, 82, 0
1, 184779, Note_on_c, 9, 36, 0
1, 184793, Note_on_c, 0, 80, 67
1, 184805, Note_on_c, 1, 41, 104
1, 184829, Note_on_c, 0, 81, 73
1, 184837, Note_on_c, 0, 48, 41
1, 184837, Note_on_c, 0, 57, 26
1, 184837, Note_on_c, 9, 59, 55
1, 184885, Note_on_c, 0, 57, 0
1, 184885, Note_on_c, 1, 41, 0
1, 184905, Note_on_c, 0, 80, 0
1, 184917, Note_on_c, 0, 48, 0
1, 184919, Note_on_c, 9, 44, 37
1, 184957, Note_on_c, 9, 59, 0
1, 185025, Note_on_c, 0, 77, 46
1, 185057, Note_on_c, 9, 44, 0
1, 185089, Note_on_c, 0, 81, 0
1, 185105, Note_on_c, 0, 77, 0
1, 185363, Note_on_c, 1, 39, 95
1, 185375, Note_on_c, 9, 59, 56
1, 185439, Note_on_c, 1, 39, 0
1, 185503, Note_on_c, 9, 59, 0
1, 185645, Note_on_c, 0, 46, 56
1, 185649, Note_on_c, 0, 39, 47
1, 185677, Note_on_c, 0, 46, 0
1, 185681, Note_on_c, 0, 39, 0
1, 185699, Note_on_c, 9, 44, 30
1, 185821, Note_on_c, 9, 44, 0
1, 185961, Note_on_c, 1, 37, 96
1, 185971, Note_on_c, 9, 59, 50
1, 186021, Note_on_c, 0, 44, 51
1, 186021, Note_on_c, 0, 37, 43
1, 186377, Note_on_c, 0, 53, 49
1, 186409, Note_on_c, 0, 53, 0
1, 186463, Note_on_c, 9, 44, 33
1, 186497, Note_on_c, 0, 56, 65
1, 186557, Note_on_c, 0, 56, 0
1, 186585, Note_on_c, 9, 44, 0
1, 186753, Note_on_c, 0, 56, 85
1, 186785, Note_on_c, 9, 59, 0
1, 186813, Note_on_c, 0, 56, 0
1, 186889, Note_on_c, 0, 58, 89
1, 186969, Note_on_c, 0, 58, 0
1, 187103, Note_on_c, 9, 36, 32
1, 187141, Note_on_c, 0, 58, 90
1, 187221, Note_on_c, 0, 58, 0
1, 187227, Note_on_c, 9, 44, 36
1, 187321, Note_on_c, 0, 37, 0
1, 187321, Note_on_c, 0, 44, 0
1, 187325, Note_on_c, 0, 59, 66
1, 187341, Note_on_c, 9, 44, 0
1, 187405, Note_on_c, 9, 36, 0
1, 187421, Note_on_c, 0, 58, 57
1, 187441, Note_on_c, 0, 59, 0
1, 187503, Note_on_c, 9, 36, 37
1, 187509, Note_on_c, 0, 58, 0
1, 187509, Note_on_c, 0, 56, 50
1, 187585, Note_on_c, 0, 53, 41
1, 187601, Note_on_c, 0, 56, 0
1, 187617, Note_on_c, 0, 53, 0
1, 187629, Note_on_c, 9, 36, 0
1, 187653, Note_on_c, 0, 58, 70
1, 187879, Note_on_c, 1, 37, 0
1, 187905, Note_on_c, 9, 59, 41
1, 187913, Note_on_c, 0, 56, 69
1, 187921, Note_on_c, 9, 36, 44
1, 187925, Note_on_c, 0, 58, 0
1, 187949, Note_on_c, 1, 41, 100
1, 187971, Note_on_c, 9, 59, 0
1, 187995, Note_on_c, 9, 44, 31
1, 187997, Note_on_c, 0, 56, 0
1, 188015, Note_on_c, 9, 36, 0
1, 188033, Note_on_c, 0, 53, 60
1, 188043, Note_on_c, 1, 41, 0
1, 188059, Note_on_c, 9, 59, 23
1, 188123, Note_on_c, 9, 44, 0
1, 188129, Note_on_c, 9, 59, 0
1, 188245, Note_on_c, 0, 53, 0
1, 188313, Note_on_c, 0, 53, 67
1, 188431, Note_on_c, 1, 39, 89
1, 188439, Note_on_c, 9, 59, 60
1, 188515, Note_on_c, 9, 59, 0
1, 188519, Note_on_c, 1, 39, 0
1, 188685, Note_on_c, 0, 46, 56
1, 188717, Note_on_c, 0, 46, 0
1, 188775, Note_on_c, 9, 44, 38
1, 188885, Note_on_c, 9, 44, 0
1, 189039, Note_on_c, 1, 37, 95
1, 189047, Note_on_c, 9, 59, 57
1, 189069, Note_on_c, 0, 44, 60
1, 189085, Note_on_c, 0, 37, 50
1, 189123, Note_on_c, 9, 59, 0
1, 189213, Note_on_c, 0, 53, 0
1, 189427, Note_on_c, 9, 53, 30
1, 189463, Note_on_c, 9, 53, 0
1, 189535, Note_on_c, 9, 46, 36
1, 189809, Note_on_c, 0, 58, 66
1, 189817, Note_on_c, 0, 59, 82
1, 189829, Note_on_c, 0, 60, 75
1, 189833, Note_on_c, 9, 46, 0
1, 189837, Note_on_c, 0, 58, 0
1, 189901, Note_on_c, 0, 59, 0
1, 189941, Note_on_c, 0, 60, 0
1, 189975, Note_on_c, 9, 53, 21
1, 190029, Note_on_c, 0, 63, 92
1, 190105, Note_on_c, 9, 53, 0
1, 190133, Note_on_c, 0, 63, 0
1, 190167, Note_on_c, 9, 38, 20
1, 190259, Note_on_c, 9, 38, 0
1, 190277, Note_on_c, 9, 44, 42
1, 190305, Note_on_c, 0, 60, 81
1, 190335, Note_on_c, 9, 36, 8
1, 190369, Note_on_c, 0, 59, 55
1, 190387, Note_on_c, 9, 44, 0
1, 190393, Note_on_c, 0, 44, 0
1, 190393, Note_on_c, 0, 58, 60
1, 190409, Note_on_c, 0, 37, 0
1, 190417, Note_on_c, 0, 60, 0
1, 190441, Note_on_c, 9, 36, 0
1, 190449, Note_on_c, 0, 59, 0
1, 190501, Note_on_c, 0, 56, 49
1, 190545, Note_on_c, 0, 58, 0
1, 190569, Note_on_c, 9, 36, 20
1, 190629, Note_on_c, 0, 56, 0
1, 190629, Note_on_c, 0, 53, 42
1, 190631, Note_on_c, 9, 36, 0
1, 190665, Note_on_c, 0, 53, 0
1, 190713, Note_on_c, 0, 58, 79
1, 190767, Note_on_c, 9, 36, 14
1, 190827, Note_on_c, 9, 36, 0
1, 190933, Note_on_c, 1, 37, 0
1, 190945, Note_on_c, 9, 59, 43
1, 190949, Note_on_c, 0, 58, 0
1, 190959, Note_on_c, 1, 41, 100
1, 190977, Note_on_c, 0, 53, 71
1, 190989, Note_on_c, 0, 48, 57
1, 190997, Note_on_c, 0, 41, 57
1, 191009, Note_on_c, 9, 59, 0
1, 191013, Note_on_c, 0, 53, 0
1, 191037, Note_on_c, 1, 41, 0
1, 191069, Note_on_c, 0, 58, 29
1, 191091, Note_on_c, 9, 59, 30
1, 191113, Note_on_c, 0, 58, 0
1, 191113, Note_on_c, 0, 48, 0
1, 191161, Note_on_c, 0, 41, 0
1, 191229, Note_on_c, 9, 59, 0
1, 191481, Note_on_c, 9, 59, 63
1, 191517, Note_on_c, 0, 46, 56
1, 191521, Note_on_c, 0, 39, 54
1, 191521, Note_on_c, 1, 39, 72
1, 191595, Note_on_c, 1, 39, 0
1, 191679, Note_on_c, 9, 59, 0
1, 191737, Note_on_c, 0, 46, 0
1, 191737, Note_on_c, 9, 59, 28
1, 191773, Note_on_c, 0, 39, 0
1, 191781, Note_on_c, 9, 59, 0
1, 191857, Note_on_c, 9, 44, 36
1, 191969, Note_on_c, 9, 44, 0
1, 192105, Note_on_c, 1, 37, 82
1, 192115, Note_on_c, 9, 59, 70
1, 192137, Note_on_c, 0, 37, 59
1, 192137, Note_on_c, 0, 44, 64
1, 192237, Note_on_c, 9, 59, 0
1, 192619, Note_on_c, 9, 44, 40
1, 192681, Note_on_c, 0, 48, 56
1, 192697, Note_on_c, 9, 44, 0
1, 192709, Note_on_c, 0, 48, 0
1, 192713, Note_on_c, 0, 44, 0
1, 192733, Note_on_c, 0, 50, 53
1, 192761, Note_on_c, 0, 50, 0
1, 192805, Note_on_c, 0, 52, 46
1, 192833, Note_on_c, 0, 52, 0
1, 192861, Note_on_c, 0, 53, 50
1, 192865, Note_on_c, 0, 37, 0
1, 192887, Note_on_c, 9, 38, 23
1, 192893, Note_on_c, 0, 53, 0
1, 192927, Note_on_c, 9, 38, 0
1, 192929, Note_on_c, 0, 55, 45
1, 192957, Note_on_c, 0, 55, 0
1, 192981, Note_on_c, 0, 57, 50
1, 193013, Note_on_c, 0, 57, 0
1, 193057, Note_on_c, 0, 59, 46
1, 193085, Note_on_c, 0, 59, 0
1, 193109, Note_on_c, 0, 60, 50
1, 193137, Note_on_c, 0, 60, 0
1, 193177, Note_on_c, 0, 62, 43
1, 193209, Note_on_c, 0, 62, 0
1, 193233, Note_on_c, 0, 64, 47
1, 193265, Note_on_c, 0, 64, 0
1, 193269, Note_on_c, 1, 39, 89
1, 193283, Note_on_c, 9, 38, 28
1, 193289, Note_on_c, 0, 65, 45
1, 193295, Note_on_c, 1, 37, 0
1, 193321, Note_on_c, 0, 65, 0
1, 193357, Note_on_c, 1, 39, 0
1, 193361, Note_on_c, 9, 38, 0
1, 193361, Note_on_c, 0, 67, 42
1, 193385, Note_on_c, 9, 46, 54
1, 193393, Note_on_c, 0, 67, 0
1, 193407, Note_on_c, 1, 40, 82
1, 193421, Note_on_c, 0, 69, 45
1, 193457, Note_on_c, 0, 69, 0
1, 193489, Note_on_c, 0, 71, 44
1, 193491, Note_on_c, 9, 46, 0
1, 193519, Note_on_c, 1, 40, 0
1, 193521, Note_on_c, 0, 71, 0
1, 193565, Note_on_c, 0, 72, 45
1, 193597, Note_on_c, 0, 72, 0
1, 193641, Note_on_c, 0, 74, 43
1, 193649, Note_on_c, 9, 59, 62
1, 193655, Note_on_c, 9, 57, 11
1, 193669, Note_on_c, 0, 74, 0
1, 193677, Note_on_c, 9, 38, 27
1, 193709, Note_on_c, 0, 76, 49
1, 193737, Note_on_c, 0, 76, 0
1, 193747, Note_on_c, 9, 38, 0
1, 193757, Note_on_c, 0, 77, 63
1, 193785, Note_on_c, 0, 77, 0
1, 193817, Note_on_c, 9, 36, 16
1, 193873, Note_on_c, 0, 77, 37
1, 193939, Note_on_c, 9, 36, 0
1, 194021, Note_on_c, 1, 41, 102
1, 194097, Note_on_c, 9, 57, 0
1, 194105, Note_on_c, 9, 59, 0
1, 194119, Note_on_c, 1, 41, 0
1, 194143, Note_on_c, 9, 44, 57
1, 194169, Note_on_c, 1, 38, 94
1, 194173, Note_on_c, 9, 59, 40
1, 194427, Note_on_c, 9, 44, 0
1, 194429, Note_on_c, 0, 77, 0
1, 194449, Note_on_c, 0, 79, 66
1, 194465, Note_on_c, 0, 60, 35
1, 194497, Note_on_c, 9, 59, 0
1, 194505, Note_on_c, 0, 60, 0
1, 194505, Note_on_c, 0, 77, 72
1, 194509, Note_on_c, 0, 79, 0
1, 194567, Note_on_c, 9, 59, 41
1, 194589, Note_on_c, 0, 77, 0
1, 194629, Note_on_c, 0, 76, 33
1, 194809, Note_on_c, 0, 76, 0
1, 194821, Note_on_c, 0, 77, 66
1, 194849, Note_on_c, 9, 59, 0
1, 194853, Note_on_c, 1, 38, 0
1, 194899, Note_on_c, 9, 44, 37
1, 194901, Note_on_c, 0, 77, 0
1, 194921, Note_on_c, 1, 32, 38
1, 194937, Note_on_c, 9, 59, 41
1, 194945, Note_on_c, 0, 81, 99
1, 195033, Note_on_c, 9, 44, 0
1, 195157, Note_on_c, 0, 81, 0
1, 195179, Note_on_c, 9, 59, 0
1, 195189, Note_on_c, 0, 62, 69
1, 195193, Note_on_c, 0, 58, 66
1, 195201, Note_on_c, 0, 84, 90
1, 195205, Note_on_c, 0, 57, 54
1, 195225, Note_on_c, 0, 62, 0
1, 195233, Note_on_c, 0, 57, 0
1, 195233, Note_on_c, 9, 59, 25
1, 195263, Note_on_c, 1, 32, 0
1, 195277, Note_on_c, 0, 58, 0
1, 195293, Note_on_c, 9, 59, 0
1, 195295, Note_on_c, 1, 31, 71
1, 195325, Note_on_c, 0, 84, 0
1, 195325, Note_on_c, 9, 59, 25
1, 195365, Note_on_c, 0, 82, 57
1, 195597, Note_on_c, 0, 74, 75
1, 195605, Note_on_c, 0, 82, 0
1, 195619, Note_on_c, 9, 59, 0
1, 195621, Note_on_c, 0, 57, 35
1, 195629, Note_on_c, 0, 74, 0
1, 195661, Note_on_c, 0, 57, 0
1, 195667, Note_on_c, 9, 44, 33
1, 195689, Note_on_c, 9, 59, 48
1, 195709, Note_on_c, 1, 43, 71
1, 195799, Note_on_c, 9, 44, 0
1, 195945, Note_on_c, 9, 59, 0
1, 196003, Note_on_c, 9, 59, 23
1, 196017, Note_on_c, 1, 36, 50
1, 196085, Note_on_c, 1, 50, 79
1, 196097, Note_on_c, 1, 36, 0
1, 196099, Note_on_c, 1, 43, 0
1, 196115, Note_on_c, 1, 31, 0
1, 196153, Control_c, 0, 64, 127
1, 196325, Note_on_c, 9, 59, 0
1, 196369, Note_on_c, 0, 86, 68
1, 196369, Note_on_c, 0, 62, 67
1, 196369, Note_on_c, 0, 58, 61
1, 196369, Note_on_c, 0, 74, 61
1, 196381, Note_on_c, 0, 79, 56
1, 196385, Note_on_c, 0, 82, 46
1, 196389, Note_on_c, 0, 52, 42
1, 196405, Note_on_c, 0, 74, 0
1, 196405, Note_on_c, 0, 62, 0
1, 196413, Note_on_c, 0, 79, 0
1, 196417, Note_on_c, 0, 82, 0
1, 196421, Note_on_c, 0, 52, 0
1, 196425, Note_on_c, 0, 58, 0
1, 196433, Control_c, 0, 64, 0
1, 196437, Note_on_c, 0, 86, 0
1, 196437, Note_on_c, 9, 44, 35
1, 196467, Note_on_c, 9, 59, 68
1, 196477, Note_on_c, 1, 48, 70
1, 196477, Note_on_c, 1, 50, 0
1, 196493, Note_on_c, 0, 52, 67
1, 196497, Note_on_c, 0, 62, 67
1, 196497, Note_on_c, 0, 88, 85
1, 196497, Note_on_c, 0, 76, 78
1, 196497, Note_on_c, 0, 58, 68
1, 196505, Note_on_c, 0, 83, 79
1, 196557, Control_c, 0, 64, 127
1, 196601, Note_on_c, 0, 76, 0
1, 196609, Note_on_c, 9, 44, 0
1, 196629, Note_on_c, 0, 83, 0
1, 196645, Note_on_c, 0, 62, 0
1, 196649, Note_on_c, 0, 88, 0
1, 196661, Note_on_c, 0, 52, 0
1, 196693, Note_on_c, 0, 58, 0
1, 196745, Note_on_c, 0, 52, 60
1, 196749, Note_on_c, 0, 58, 82
1, 196749, Note_on_c, 0, 62, 73
1, 196751, Note_on_c, 9, 59, 0
1, 196761, Note_on_c, 0, 91, 90
1, 196761, Note_on_c, 0, 86, 90
1, 196769, Note_on_c, 0, 79, 81
1, 196773, Note_on_c, 0, 52, 0
1, 196783, Note_on_c, 1, 41, 71
1, 196797, Note_on_c, 0, 79, 0
1, 196821, Note_on_c, 0, 62, 0
1, 196825, Note_on_c, 0, 86, 0
1, 196825, Note_on_c, 1, 41, 0
1, 196829, Note_on_c, 0, 91, 0
1, 196837, Note_on_c, 0, 58, 0
1, 196861, Control_c, 0, 64, 0
1, 196875, Note_on_c, 9, 59, 31
1, 196883, Note_on_c, 1, 45, 76
1, 196891, Note_on_c, 1, 48, 0
1, 196917, Note_on_c, 0, 64, 86
1, 196917, Note_on_c, 0, 88, 96
1, 196917, Note_on_c, 0, 93, 99
1, 196917, Note_on_c, 0, 53, 77
1, 196917, Note_on_c, 0, 81, 98
1, 196917, Note_on_c, 0, 60, 73
1, 196917, Note_on_c, 0, 90, 73
1, 196929, Note_on_c, 0, 57, 71
1, 196949, Note_on_c, 0, 90, 0
1, 196949, Note_on_c, 0, 56, 41
1, 196963, Note_on_c, 9, 59, 0
1, 197069, Note_on_c, 0, 81, 0
1, 197101, Note_on_c, 0, 56, 0
1, 197105, Note_on_c, 0, 93, 0
1, 197105, Note_on_c, 0, 88, 0
1, 197109, Note_on_c, 0, 53, 0
1, 197121, Note_on_c, 0, 64, 0
1, 197137, Note_on_c, 0, 57, 0
1, 197145, Note_on_c, 0, 60, 0
1, 197189, Note_on_c, 0, 96, 115
1, 197189, Note_on_c, 0, 91, 96
1, 197197, Note_on_c, 0, 84, 85
1, 197197, Note_on_c, 0, 64, 74
1, 197197, Note_on_c, 0, 53, 72
1, 197205, Note_on_c, 0, 57, 75
1, 197209, Note_on_c, 0, 60, 79
1, 197209, Note_on_c, 9, 44, 35
1, 197233, Note_on_c, 9, 59, 74
1, 197261, Note_on_c, 1, 40, 73
1, 197301, Control_c, 0, 64, 127
1, 197313, Note_on_c, 1, 45, 0
1, 197377, Note_on_c, 9, 59, 0
1, 197385, Note_on_c, 0, 96, 0
1, 197385, Note_on_c, 0, 64, 0
1, 197385, Note_on_c, 0, 60, 0
1, 197387, Note_on_c, 9, 44, 0
1, 197405, Note_on_c, 0, 57, 0
1, 197413, Note_on_c, 0, 91, 0
1, 197429, Note_on_c, 0, 53, 0
1, 197441, Note_on_c, 0, 84, 0
1, 197509, Control_c, 0, 64, 0
1, 197543, Note_on_c, 9, 59, 37
1, 197549, Note_on_c, 0, 93, 86
1, 197549, Note_on_c, 0, 88, 87
1, 197549, Note_on_c, 0, 60, 78
1, 197557, Note_on_c, 0, 50, 61
1, 197561, Note_on_c, 0, 81, 77
1, 197561, Note_on_c, 0, 57, 68
1, 197561, Note_on_c, 0, 53, 63
1, 197581, Note_on_c, 9, 59, 0
1, 197639, Note_on_c, 1, 41, 74
1, 197641, Note_on_c, 1, 40, 0
1, 197643, Note_on_c, 9, 59, 56
1, 197705, Note_on_c, 0, 93, 0
1, 197717, Note_on_c, 0, 88, 0
1, 197753, Note_on_c, 0, 81, 0
1, 197773, Control_c, 0, 64, 127
1, 197797, Note_on_c, 0, 53, 0
1, 197805, Note_on_c, 0, 50, 0
1, 197809, Note_on_c, 0, 60, 0
1, 197809, Note_on_c, 0, 57, 0
1, 197855, Note_on_c, 9, 59, 0
1, 197877, Control_c, 0, 64, 0
1, 197945, Note_on_c, 0, 76, 61
1, 197949, Note_on_c, 0, 88, 49
1, 197949, Note_on_c, 0, 83, 56
1, 197953, Note_on_c, 0, 60, 72
1, 197953, Note_on_c, 0, 82, 33
1, 197953, Note_on_c, 0, 57, 58
1, 197953, Note_on_c, 0, 50, 54
1, 197965, Note_on_c, 0, 86, 43
1, 197965, Note_on_c, 0, 53, 57
1, 197997, Note_on_c, 9, 59, 64
1, 197999, Note_on_c, 9, 44, 37
1, 198005, Note_on_c, 0, 82, 0
1, 198009, Note_on_c, 0, 86, 0
1, 198025, Note_on_c, 1, 32, 74
1, 198037, Note_on_c, 0, 50, 0
1, 198037, Note_on_c, 0, 76, 0
1, 198037, Note_on_c, 1, 41, 0
1, 198045, Note_on_c, 0, 60, 0
1, 198061, Note_on_c, 0, 83, 0
1, 198065, Note_on_c, 0, 53, 0
1, 198073, Note_on_c, 0, 88, 0
1, 198077, Note_on_c, 0, 57, 0
1, 198109, Control_c, 0, 64, 127
1, 198177, Note_on_c, 9, 44, 0
1, 198225, Control_c, 0, 64, 0
1, 198229, Note_on_c, 9, 59, 0
1, 198293, Note_on_c, 9, 59, 36
1, 198309, Note_on_c, 0, 53, 63
1, 198309, Note_on_c, 0, 57, 67
1, 198309, Note_on_c, 0, 91, 81
1, 198309, Note_on_c, 0, 58, 66
1, 198309, Note_on_c, 0, 62, 63
1, 198321, Note_on_c, 0, 86, 76
1, 198325, Note_on_c, 0, 79, 68
1, 198341, Note_on_c, 9, 59, 0
1, 198373, Note_on_c, 1, 31, 73
1, 198387, Note_on_c, 1, 32, 0
1, 198403, Note_on_c, 9, 59, 57
1, 198429, Note_on_c, 0, 91, 0
1, 198429, Control_c, 0, 64, 127
1, 198433, Note_on_c, 0, 86, 0
1, 198453, Note_on_c, 0, 79, 0
1, 198497, Note_on_c, 0, 58, 0
1, 198509, Note_on_c, 0, 62, 0
1, 198513, Note_on_c, 0, 57, 0
1, 198525, Note_on_c, 0, 53, 0
1, 198623, Note_on_c, 9, 59, 0
1, 198637, Control_c, 0, 64, 0
1, 198701, Note_on_c, 0, 84, 56
1, 198701, Note_on_c, 0, 62, 62
1, 198705, Note_on_c, 0, 72, 48
1, 198709, Note_on_c, 0, 74, 51
1, 198713, Note_on_c, 0, 80, 36
1, 198713, Note_on_c, 0, 86, 41
1, 198713, Note_on_c, 0, 58, 56
1, 198713, Note_on_c, 0, 57, 56
1, 198725, Note_on_c, 0, 53, 39
1, 198741, Note_on_c, 0, 74, 0
1, 198749, Note_on_c, 0, 72, 0
1, 198749, Note_on_c, 0, 86, 0
1, 198753, Note_on_c, 0, 80, 0
1, 198761, Note_on_c, 9, 44, 39
1, 198761, Note_on_c, 1, 31, 0
1, 198763, Note_on_c, 1, 37, 72
1, 198765, Note_on_c, 0, 57, 0
1, 198769, Note_on_c, 0, 62, 0
1, 198783, Note_on_c, 9, 59, 61
1, 198785, Note_on_c, 0, 84, 0
1, 198793, Note_on_c, 0, 58, 0
1, 198805, Note_on_c, 0, 53, 0
1, 198857, Control_c, 0, 64, 127
1, 198935, Note_on_c, 9, 44, 0
1, 198991, Note_on_c, 9, 59, 0
1, 199013, Control_c, 0, 64, 0
1, 199065, Note_on_c, 0, 58, 66
1, 199069, Note_on_c, 0, 89, 72
1, 199069, Note_on_c, 0, 62, 68
1, 199069, Note_on_c, 0, 87, 63
1, 199069, Note_on_c, 0, 52, 68
1, 199071, Note_on_c, 0, 84, 70
1, 199071, Note_on_c, 9, 59, 32
1, 199093, Note_on_c, 0, 77, 50
1, 199103, Note_on_c, 1, 34, 64
1, 199105, Note_on_c, 0, 87, 0
1, 199109, Note_on_c, 0, 89, 0
1, 199109, Note_on_c, 0, 52, 0
1, 199113, Note_on_c, 0, 62, 0
1, 199119, Note_on_c, 1, 37, 0
1, 199121, Note_on_c, 0, 77, 0
1, 199129, Note_on_c, 9, 59, 0
1, 199137, Note_on_c, 0, 84, 0
1, 199167, Note_on_c, 1, 36, 60
1, 199169, Note_on_c, 0, 58, 0
1, 199189, Note_on_c, 9, 59, 47
1, 199209, Note_on_c, 1, 34, 0
1, 199415, Note_on_c, 9, 59, 0
1, 199421, Note_on_c, 9, 53, 39
1, 199429, Note_on_c, 0, 82, 66
1, 199433, Note_on_c, 0, 70, 68
1, 199449, Note_on_c, 0, 58, 66
1, 199449, Note_on_c, 0, 62, 69
1, 199453, Note_on_c, 0, 52, 66
1, 199481, Note_on_c, 1, 34, 61
1, 199493, Note_on_c, 9, 53, 0
1, 199521, Note_on_c, 9, 44, 37
1, 199533, Note_on_c, 9, 59, 28
1, 199539, Note_on_c, 1, 41, 84
1, 199557, Note_on_c, 9, 38, 1
1, 199577, Note_on_c, 1, 34, 0
1, 199585, Note_on_c, 1, 36, 0
1, 199661, Note_on_c, 9, 44, 0
1, 199701, Note_on_c, 0, 52, 0
1, 199703, Note_on_c, 9, 59, 0
1, 199725, Note_on_c, 0, 58, 0
1, 199743, Note_on_c, 9, 38, 0
1, 199745, Control_c, 0, 64, 127
1, 199757, Note_on_c, 0, 82, 0
1, 199785, Note_on_c, 0, 70, 0
1, 199789, Note_on_c, 9, 59, 36
1, 199793, Note_on_c, 0, 62, 0
1, 199817, Note_on_c, 9, 38, 6
1, 199837, Control_c, 0, 64, 0
1, 199839, Note_on_c, 1, 36, 60
1, 199853, Note_on_c, 9, 59, 0
1, 199869, Note_on_c, 1, 41, 0
1, 199903, Note_on_c, 1, 36, 0
1, 199911, Note_on_c, 9, 38, 0
1, 199915, Note_on_c, 9, 59, 57
1, 199925, Note_on_c, 0, 69, 54
1, 199925, Note_on_c, 0, 81, 45
1, 199925, Note_on_c, 0, 62, 53
1, 199937, Note_on_c, 0, 57, 49
1, 199953, Note_on_c, 0, 60, 41
1, 199957, Note_on_c, 0, 69, 0
1, 199959, Note_on_c, 1, 53, 75
1, 199965, Note_on_c, 0, 53, 33
1, 199981, Note_on_c, 1, 55, 53
1, 200007, Note_on_c, 1, 55, 0
1, 200021, Note_on_c, 0, 81, 0
1, 200057, Note_on_c, 0, 60, 0
1, 200195, Note_on_c, 9, 36, 11
1, 200207, Note_on_c, 9, 59, 0
1, 200225, Note_on_c, 0, 62, 0
1, 200235, Note_on_c, 1, 41, 50
1, 200241, Note_on_c, 0, 60, 39
1, 200275, Note_on_c, 1, 53, 0
1, 200285, Note_on_c, 9, 36, 0
1, 200289, Note_on_c, 0, 60, 0
1, 200295, Note_on_c, 1, 41, 0
1, 200297, Note_on_c, 9, 59, 51
1, 200303, Note_on_c, 9, 44, 35
1, 200329, Note_on_c, 1, 53, 90
1, 200337, Note_on_c, 0, 82, 94
1, 200385, Note_on_c, 0, 53, 0
1, 200403, Note_on_c, 9, 44, 0
1, 200405, Note_on_c, 0, 57, 0
1, 200477, Note_on_c, 0, 82, 0
1, 200515, Note_on_c, 9, 59, 0
1, 200591, Note_on_c, 9, 59, 38
1, 200641, Note_on_c, 0, 57, 34
1, 200659, Note_on_c, 9, 59, 0
1, 200663, Note_on_c, 1, 53, 0
1, 200685, Note_on_c, 1, 41, 73
1, 200701, Note_on_c, 0, 57, 0
1, 200715, Note_on_c, 9, 59, 59
1, 200719, Note_on_c, 9, 36, 1
1, 200741, Note_on_c, 0, 82, 92
1, 200835, Note_on_c, 9, 36, 0
1, 200933, Note_on_c, 0, 82, 0
1, 200963, Note_on_c, 9, 59, 0
1, 200985, Note_on_c, 0, 81, 78
1, 201017, Note_on_c, 0, 60, 33
1, 201021, Note_on_c, 1, 41, 0
1, 201037, Note_on_c, 0, 57, 38
1, 201061, Note_on_c, 9, 46, 33
1, 201065, Note_on_c, 0, 60, 0
1, 201069, Note_on_c, 9, 59, 60
1, 201077, Note_on_c, 1, 40, 75
1, 201093, Note_on_c, 0, 57, 0
1, 201101, Note_on_c, 0, 81, 0
1, 201149, Note_on_c, 0, 79, 50
1, 201267, Note_on_c, 9, 46, 0
1, 201321, Note_on_c, 9, 59, 0
1, 201333, Note_on_c, 9, 36, 13
1, 201357, Note_on_c, 0, 79, 0
1, 201361, Note_on_c, 0, 62, 48
1, 201393, Note_on_c, 0, 62, 0
1, 201393, Note_on_c, 0, 58, 39
1, 201429, Note_on_c, 0, 58, 0
1, 201429, Note_on_c, 9, 36, 0
1, 201435, Note_on_c, 1, 40, 0
1, 201449, Note_on_c, 9, 59, 60
1, 201455, Note_on_c, 1, 41, 71
1, 201497, Note_on_c, 0, 81, 120
1, 201701, Note_on_c, 9, 59, 0
1, 201725, Note_on_c, 0, 81, 0
1, 201769, Note_on_c, 9, 59, 37
1, 201811, Note_on_c, 9, 59, 0
1, 201817, Note_on_c, 9, 44, 36
1, 201839, Note_on_c, 1, 36, 90
1, 201865, Note_on_c, 1, 41, 0
1, 201865, Note_on_c, 9, 59, 59
1, 201869, Note_on_c, 0, 81, 111
1, 201895, Note_on_c, 9, 36, 5
1, 202031, Note_on_c, 9, 44, 0
1, 202041, Note_on_c, 9, 36, 0
1, 202069, Note_on_c, 0, 81, 0
1, 202125, Note_on_c, 0, 79, 70
1, 202149, Note_on_c, 9, 59, 0
1, 202157, Note_on_c, 0, 58, 49
1, 202193, Note_on_c, 0, 58, 0
1, 202215, Note_on_c, 1, 33, 86
1, 202217, Note_on_c, 1, 36, 0
1, 202237, Note_on_c, 9, 59, 54
1, 202277, Note_on_c, 0, 79, 0
1, 202285, Note_on_c, 0, 77, 42
1, 202457, Note_on_c, 0, 77, 0
1, 202485, Note_on_c, 9, 59, 0
1, 202497, Note_on_c, 1, 36, 81
1, 202583, Note_on_c, 1, 36, 0
1, 202595, Note_on_c, 1, 39, 97
1, 202597, Note_on_c, 9, 44, 43
1, 202633, Note_on_c, 9, 59, 64
1, 202635, Note_on_c, 1, 33, 0
1, 202839, Note_on_c, 9, 59, 0
1, 202865, Note_on_c, 9, 44, 0
1, 202885, Note_on_c, 0, 79, 127
1, 202901, Note_on_c, 0, 62, 68
1, 202905, Note_on_c, 0, 58, 56
1, 202909, Note_on_c, 0, 57, 52
1, 202913, Note_on_c, 9, 59, 28
1, 202917, Note_on_c, 0, 54, 41
1, 202917, Note_on_c, 0, 52, 57
1, 202957, Note_on_c, 0, 54, 0
1, 202983, Note_on_c, 1, 39, 0
1, 202985, Note_on_c, 1, 40, 86
1, 202991, Note_on_c, 9, 59, 0
1, 203015, Note_on_c, 9, 59, 22
1, 203189, Note_on_c, 0, 58, 0
1, 203253, Note_on_c, 9, 59, 0
1, 203273, Note_on_c, 0, 79, 0
1, 203293, Note_on_c, 0, 58, 36
1, 203341, Note_on_c, 0, 62, 0
1, 203359, Note_on_c, 1, 40, 0
1, 203365, Note_on_c, 1, 46, 97
1, 203377, Note_on_c, 9, 59, 61
1, 203389, Note_on_c, 0, 79, 120
1, 203397, Note_on_c, 0, 58, 0
1, 203557, Note_on_c, 0, 79, 0
1, 203581, Note_on_c, 9, 59, 0
1, 203625, Note_on_c, 0, 52, 0
1, 203645, Note_on_c, 0, 77, 80
1, 203649, Note_on_c, 0, 58, 57
1, 203665, Note_on_c, 9, 59, 19
1, 203685, Note_on_c, 0, 62, 32
1, 203723, Note_on_c, 9, 59, 0
1, 203729, Note_on_c, 0, 62, 0
1, 203733, Note_on_c, 0, 57, 0
1, 203741, Note_on_c, 0, 58, 0
1, 203749, Note_on_c, 1, 34, 78
1, 203759, Note_on_c, 1, 46, 0
1, 203767, Note_on_c, 9, 59, 43
1, 203793, Note_on_c, 0, 77, 0
1, 203801, Note_on_c, 0, 76, 36
1, 203925, Note_on_c, 9, 59, 0
1, 204033, Note_on_c, 0, 76, 0
1, 204033, Note_on_c, 0, 61, 51
1, 204033, Note_on_c, 9, 59, 78
1, 204045, Note_on_c, 0, 55, 36
1, 204081, Note_on_c, 0, 61, 0
1, 204093, Note_on_c, 0, 55, 0
1, 204133, Note_on_c, 9, 44, 50
1, 204141, Note_on_c, 1, 32, 90
1, 204145, Note_on_c, 1, 34, 0
1, 204149, Note_on_c, 0, 77, 120
1, 204291, Note_on_c, 9, 44, 0
1, 204401, Note_on_c, 0, 61, 47
1, 204409, Note_on_c, 0, 77, 0
1, 204425, Note_on_c, 9, 59, 0
1, 204457, Note_on_c, 0, 61, 0
1, 204521, Note_on_c, 1, 32, 0
1, 204529, Note_on_c, 0, 77, 99
1, 204533, Note_on_c, 9, 59, 42
1, 204543, Note_on_c, 1, 33, 84
1, 204745, Note_on_c, 0, 77, 0
1, 204777, Note_on_c, 0, 76, 74
1, 204779, Note_on_c, 9, 59, 0
1, 204789, Note_on_c, 0, 61, 56
1, 204789, Note_on_c, 0, 64, 55
1, 204821, Note_on_c, 0, 64, 0
1, 204861, Note_on_c, 0, 61, 0
1, 204881, Note_on_c, 0, 76, 0
1, 204905, Note_on_c, 9, 46, 35
1, 204907, Note_on_c, 9, 59, 65
1, 204911, Note_on_c, 1, 48, 111
1, 204925, Note_on_c, 0, 74, 63
1, 205125, Note_on_c, 0, 74, 0
1, 205151, Note_on_c, 9, 59, 0
1, 205165, Note_on_c, 0, 73, 66
1, 205169, Note_on_c, 0, 61, 51
1, 205189, Note_on_c, 9, 46, 0
1, 205201, Note_on_c, 9, 59, 34
1, 205205, Note_on_c, 0, 61, 0
1, 205253, Note_on_c, 9, 59, 0
1, 205277, Note_on_c, 0, 73, 0
1, 205291, Note_on_c, 1, 48, 0
1, 205309, Note_on_c, 1, 49, 89
1, 205309, Note_on_c, 9, 59, 59
1, 205361, Note_on_c, 0, 70, 43
1, 205513, Note_on_c, 0, 70, 0
1, 205557, Note_on_c, 9, 45, 58
1, 205573, Note_on_c, 0, 61, 57
1, 205573, Note_on_c, 0, 69, 82
1, 205581, Note_on_c, 0, 64, 50
1, 205581, Note_on_c, 0, 58, 52
1, 205605, Note_on_c, 9, 59, 0
1, 205605, Note_on_c, 0, 55, 34
1, 205609, Note_on_c, 0, 64, 0
1, 205645, Note_on_c, 0, 55, 0
1, 205649, Note_on_c, 0, 61, 0
1, 205657, Note_on_c, 0, 58, 0
1, 205657, Note_on_c, 9, 44, 44
1, 205661, Note_on_c, 1, 33, 0
1, 205667, Note_on_c, 9, 45, 0
1, 205675, Note_on_c, 1, 37, 78
1, 205683, Note_on_c, 9, 59, 67
1, 205685, Note_on_c, 0, 69, 0
1, 205689, Note_on_c, 1, 49, 0
1, 205707, Note_on_c, 9, 45, 14
1, 205729, Note_on_c, 0, 67, 52
1, 205851, Note_on_c, 9, 44, 0
1, 205881, Note_on_c, 0, 67, 0
1, 205909, Note_on_c, 9, 36, 20
1, 205911, Note_on_c, 9, 45, 0
1, 205927, Note_on_c, 9, 59, 0
1, 205953, Note_on_c, 0, 65, 66
1, 205961, Note_on_c, 0, 59, 57
1, 205983, Note_on_c, 9, 59, 38
1, 205989, Note_on_c, 0, 59, 0
1, 205989, Note_on_c, 0, 57, 44
1, 205999, Note_on_c, 0, 53, 44
1, 205999, Note_on_c, 1, 34, 51
1, 206009, Note_on_c, 0, 50, 21
1, 206023, Note_on_c, 9, 59, 0
1, 206061, Note_on_c, 9, 36, 0
1, 206065, Note_on_c, 0, 57, 0
1, 206077, Note_on_c, 0, 50, 0
1, 206077, Note_on_c, 0, 65, 0
1, 206077, Note_on_c, 1, 38, 67
1, 206079, Note_on_c, 0, 53, 0
1, 206079, Note_on_c, 1, 37, 0
1, 206079, Note_on_c, 9, 59, 54
1, 206087, Note_on_c, 1, 34, 0
1, 206133, Note_on_c, 0, 64, 55
1, 206301, Note_on_c, 0, 64, 0
1, 206351, Note_on_c, 9, 59, 0
1, 206357, Note_on_c, 0, 67, 74
1, 206361, Note_on_c, 0, 59, 58
1, 206389, Note_on_c, 0, 59, 0
1, 206413, Note_on_c, 0, 57, 29
1, 206429, Note_on_c, 0, 53, 29
1, 206433, Note_on_c, 9, 44, 37
1, 206435, Note_on_c, 9, 59, 52
1, 206445, Note_on_c, 1, 52, 88
1, 206465, Note_on_c, 0, 67, 0
1, 206481, Note_on_c, 0, 57, 0
1, 206505, Note_on_c, 0, 53, 0
1, 206521, Note_on_c, 1, 38, 0
1, 206533, Note_on_c, 0, 64, 48
1, 206585, Note_on_c, 9, 44, 0
1, 206671, Note_on_c, 9, 59, 0
1, 206681, Note_on_c, 0, 64, 0
1, 206731, Note_on_c, 1, 38, 54
1, 206733, Note_on_c, 0, 65, 72
1, 206749, Note_on_c, 0, 59, 62
1, 206777, Note_on_c, 0, 59, 0
1, 206789, Note_on_c, 0, 57, 36
1, 206797, Note_on_c, 0, 53, 30
1, 206813, Note_on_c, 0, 65, 0
1, 206817, Note_on_c, 1, 38, 0
1, 206819, Note_on_c, 1, 52, 0
1, 206821, Note_on_c, 9, 59, 58
1, 206833, Note_on_c, 0, 57, 0
1, 206845, Note_on_c, 0, 53, 0
1, 206847, Note_on_c, 1, 50, 65
1, 206901, Note_on_c, 0, 69, 55
1, 207033, Note_on_c, 9, 59, 0
1, 207105, Note_on_c, 9, 59, 33
1, 207109, Note_on_c, 0, 69, 0
1, 207117, Note_on_c, 0, 72, 74
1, 207141, Note_on_c, 0, 59, 36
1, 207151, Note_on_c, 9, 59, 0
1, 207185, Note_on_c, 0, 59, 0
1, 207185, Note_on_c, 9, 44, 46
1, 207193, Note_on_c, 0, 72, 0
1, 207211, Note_on_c, 9, 59, 60
1, 207233, Note_on_c, 1, 44, 73
1, 207243, Note_on_c, 1, 50, 0
1, 207261, Note_on_c, 0, 73, 67
1, 207347, Note_on_c, 9, 44, 0
1, 207445, Note_on_c, 0, 73, 0
1, 207465, Note_on_c, 9, 59, 0
1, 207505, Note_on_c, 0, 76, 63
1, 207509, Note_on_c, 0, 59, 48
1, 207513, Note_on_c, 0, 64, 38
1, 207569, Note_on_c, 0, 64, 0
1, 207569, Note_on_c, 0, 53, 26
1, 207583, Note_on_c, 9, 59, 27
1, 207593, Note_on_c, 1, 43, 48
1, 207609, Note_on_c, 1, 44, 0
1, 207613, Note_on_c, 0, 76, 0
1, 207625, Note_on_c, 0, 53, 0
1, 207637, Note_on_c, 0, 59, 0
1, 207657, Note_on_c, 0, 81, 67
1, 207757, Note_on_c, 0, 81, 0
1, 207781, Note_on_c, 0, 85, 75
1, 207805, Note_on_c, 9, 59, 0
1, 207853, Note_on_c, 0, 85, 0
1, 207859, Note_on_c, 9, 40, 24
1, 207869, Note_on_c, 0, 64, 37
1, 207873, Note_on_c, 0, 59, 52
1, 207907, Note_on_c, 9, 40, 0
1, 207917, Note_on_c, 0, 64, 0
1, 207933, Note_on_c, 0, 88, 58
1, 207933, Note_on_c, 0, 86, 50
1, 207957, Note_on_c, 9, 44, 46
1, 207965, Note_on_c, 0, 86, 0
1, 207965, Note_on_c, 9, 59, 74
1, 207989, Note_on_c, 0, 59, 0
1, 208019, Note_on_c, 9, 40, 12
1, 208021, Note_on_c, 1, 31, 61
1, 208033, Note_on_c, 0, 88, 0
1, 208049, Note_on_c, 0, 93, 54
1, 208093, Note_on_c, 9, 44, 0
1, 208141, Note_on_c, 0, 93, 0
1, 208169, Note_on_c, 0, 97, 72
1, 208175, Note_on_c, 1, 43, 0
1, 208191, Note_on_c, 9, 59, 0
1, 208193, Note_on_c, 9, 40, 0
1, 208241, Note_on_c, 9, 36, 15
1, 208257, Note_on_c, 0, 97, 0
1, 208265, Note_on_c, 9, 59, 34
1, 208277, Note_on_c, 0, 100, 87
1, 208281, Note_on_c, 0, 64, 70
1, 208281, Note_on_c, 0, 88, 69
1, 208289, Note_on_c, 0, 59, 66
1, 208305, Note_on_c, 0, 53, 61
1, 208337, Note_on_c, 9, 59, 0
1, 208339, Note_on_c, 9, 36, 0
1, 208397, Note_on_c, 1, 43, 67
1, 208405, Note_on_c, 9, 59, 24
1, 208407, Note_on_c, 9, 40, 15
1, 208429, Note_on_c, 0, 88, 0
1, 208441, Note_on_c, 0, 53, 0
1, 208449, Note_on_c, 0, 64, 0
1, 208449, Note_on_c, 0, 100, 0
1, 208475, Note_on_c, 9, 59, 0
1, 208477, Note_on_c, 0, 59, 0
1, 208517, Note_on_c, 0, 100, 76
1, 208533, Note_on_c, 0, 88, 69
1, 208541, Note_on_c, 0, 64, 63
1, 208553, Note_on_c, 0, 59, 64
1, 208557, Note_on_c, 0, 53, 53
1, 208577, Note_on_c, 9, 40, 0
1, 208633, Note_on_c, 9, 40, 21
1, 208681, Note_on_c, 9, 40, 0
1, 208685, Note_on_c, 0, 53, 0
1, 208685, Note_on_c, 9, 59, 68
1, 208689, Note_on_c, 0, 100, 0
1, 208697, Note_on_c, 0, 88, 0
1, 208705, Note_on_c, 0, 64, 0
1, 208729, Note_on_c, 0, 59, 0
1, 208729, Note_on_c, 1, 43, 0
1, 208733, Note_on_c, 9, 44, 47
1, 208737, Note_on_c, 9, 36, 11
1, 208789, Note_on_c, 0, 100, 82
1, 208793, Note_on_c, 0, 88, 78
1, 208793, Note_on_c, 0, 64, 61
1, 208793, Note_on_c, 1, 43, 89
1, 208801, Note_on_c, 0, 53, 60
1, 208805, Note_on_c, 0, 59, 68
1, 208851, Note_on_c, 1, 31, 0
1, 208915, Note_on_c, 9, 44, 0
1, 208949, Note_on_c, 9, 59, 0
1, 208961, Note_on_c, 0, 53, 0
1, 208961, Note_on_c, 0, 64, 0
1, 208973, Note_on_c, 0, 100, 0
1, 208973, Note_on_c, 0, 88, 0
1, 209003, Note_on_c, 9, 36, 0
1, 209007, Note_on_c, 9, 40, 26
1, 209013, Note_on_c, 0, 59, 0
1, 209019, Note_on_c, 9, 59, 46
1, 209057, Note_on_c, 0, 100, 79
1, 209065, Note_on_c, 0, 64, 72
1, 209069, Note_on_c, 0, 59, 67
1, 209069, Note_on_c, 0, 53, 69
1, 209069, Note_on_c, 0, 88, 66
1, 209071, Note_on_c, 9, 59, 0
1, 209081, Note_on_c, 0, 97, 54
1, 209085, Note_on_c, 0, 93, 56
1, 209095, Note_on_c, 9, 40, 0
1, 209139, Note_on_c, 9, 59, 56
1, 209139, Note_on_c, 9, 40, 16
1, 209167, Note_on_c, 1, 31, 79
1, 209201, Note_on_c, 0, 100, 0
1, 209205, Note_on_c, 0, 97, 0
1, 209213, Note_on_c, 1, 43, 0
1, 209225, Note_on_c, 0, 93, 0
1, 209253, Note_on_c, 0, 59, 0
1, 209269, Note_on_c, 0, 64, 0
1, 209273, Note_on_c, 0, 88, 0
1, 209277, Note_on_c, 0, 53, 0
1, 209347, Note_on_c, 9, 40, 0
1, 209379, Note_on_c, 9, 36, 14
1, 209427, Note_on_c, 9, 59, 0
1, 209433, Note_on_c, 1, 43, 75
1, 209519, Note_on_c, 1, 43, 0
1, 209521, Note_on_c, 9, 36, 0
1, 209521, Note_on_c, 9, 44, 37
1, 209531, Note_on_c, 9, 59, 52
1, 209547, Note_on_c, 1, 31, 0
1, 209555, Note_on_c, 1, 50, 108
1, 209681, Note_on_c, 9, 44, 0
1, 209765, Note_on_c, 9, 59, 0
1, 209867, Note_on_c, 1, 50, 0
1, 209871, Note_on_c, 1, 38, 56
1, 209927, Note_on_c, 1, 50, 94
1, 209935, Note_on_c, 1, 38, 0
1, 209939, Note_on_c, 9, 59, 62
1, 209941, Note_on_c, 0, 79, 87
1, 209949, Note_on_c, 0, 53, 63
1, 209949, Note_on_c, 0, 67, 76
1, 209949, Note_on_c, 0, 72, 74
1, 209949, Note_on_c, 0, 76, 71
1, 209957, Note_on_c, 0, 60, 61
1, 209965, Note_on_c, 0, 64, 68
1, 209965, Note_on_c, 0, 75, 43
1, 209985, Note_on_c, 0, 57, 50
1, 210097, Note_on_c, 0, 64, 0
1, 210101, Note_on_c, 0, 79, 0
1, 210105, Note_on_c, 0, 67, 0
1, 210121, Note_on_c, 0, 53, 0
1, 210137, Note_on_c, 0, 57, 0
1, 210145, Note_on_c, 0, 60, 0
1, 210161, Note_on_c, 0, 75, 0
1, 210165, Note_on_c, 0, 72, 0
1, 210165, Note_on_c, 0, 76, 0
1, 210187, Note_on_c, 9, 59, 0
1, 210213, Note_on_c, 0, 81, 87
1, 210217, Note_on_c, 0, 53, 60
1, 210221, Note_on_c, 0, 60, 64
1, 210229, Note_on_c, 0, 64, 65
1, 210237, Note_on_c, 0, 57, 48
1, 210237, Note_on_c, 0, 74, 56
1, 210261, Note_on_c, 0, 64, 0
1, 210265, Note_on_c, 0, 74, 0
1, 210283, Note_on_c, 9, 44, 44
1, 210285, Note_on_c, 1, 50, 0
1, 210297, Note_on_c, 1, 42, 74
1, 210305, Note_on_c, 0, 60, 0
1, 210305, Note_on_c, 0, 57, 0
1, 210309, Note_on_c, 0, 81, 0
1, 210327, Note_on_c, 9, 59, 46
1, 210365, Note_on_c, 0, 79, 68
1, 210369, Note_on_c, 0, 64, 52
1, 210373, Note_on_c, 0, 60, 42
1, 210389, Note_on_c, 0, 57, 37
1, 210421, Note_on_c, 9, 44, 0
1, 210485, Note_on_c, 0, 64, 0
1, 210493, Note_on_c, 0, 60, 0
1, 210501, Note_on_c, 0, 79, 0
1, 210509, Note_on_c, 0, 53, 0
1, 210527, Note_on_c, 9, 59, 0
1, 210529, Note_on_c, 0, 57, 0
1, 210605, Note_on_c, 0, 53, 60
1, 210609, Note_on_c, 0, 73, 68
1, 210609, Note_on_c, 0, 76, 79
1, 210613, Note_on_c, 0, 64, 74
1, 210613, Note_on_c, 0, 69, 67
1, 210621, Note_on_c, 0, 59, 67
1, 210669, Note_on_c, 1, 42, 0
1, 210675, Note_on_c, 1, 43, 66
1, 210695, Note_on_c, 9, 59, 61
1, 210705, Note_on_c, 0, 69, 0
1, 210709, Note_on_c, 0, 64, 0
1, 210725, Note_on_c, 0, 53, 0
1, 210737, Note_on_c, 0, 73, 0
1, 210745, Note_on_c, 0, 59, 0
1, 210761, Note_on_c, 0, 76, 0
1, 210865, Note_on_c, 0, 53, 66
1, 210869, Note_on_c, 0, 64, 67
1, 210869, Note_on_c, 0, 59, 63
1, 210869, Note_on_c, 0, 76, 76
1, 210869, Note_on_c, 0, 73, 68
1, 210877, Note_on_c, 0, 69, 71
1, 210889, Note_on_c, 9, 59, 0
1, 210953, Note_on_c, 9, 59, 40
1, 211017, Note_on_c, 0, 53, 0
1, 211021, Note_on_c, 0, 69, 0
1, 211021, Note_on_c, 9, 59, 0
1, 211025, Note_on_c, 0, 64, 0
1, 211037, Note_on_c, 0, 73, 0
1, 211057, Note_on_c, 0, 76, 0
1, 211061, Note_on_c, 0, 59, 0
1, 211069, Note_on_c, 9, 44, 42
1, 211071, Note_on_c, 1, 31, 72
1, 211075, Note_on_c, 9, 59, 49
1, 211127, Note_on_c, 1, 43, 0
1, 211141, Note_on_c, 0, 73, 73
1, 211141, Note_on_c, 0, 76, 71
1, 211145, Note_on_c, 0, 69, 76
1, 211145, Note_on_c, 0, 64, 75
1, 211145, Note_on_c, 0, 59, 62
1, 211153, Note_on_c, 0, 53, 72
1, 211233, Note_on_c, 9, 44, 0
1, 211257, Control_c, 0, 64, 127
1, 211313, Note_on_c, 0, 53, 0
1, 211315, Note_on_c, 9, 59, 0
1, 211321, Note_on_c, 0, 69, 0
1, 211325, Control_c, 0, 64, 0
1, 211329, Note_on_c, 0, 64, 0
1, 211337, Note_on_c, 0, 73, 0
1, 211353, Note_on_c, 0, 59, 0
1, 211353, Note_on_c, 0, 76, 0
1, 211401, Note_on_c, 0, 73, 68
1, 211405, Note_on_c, 0, 53, 60
1, 211409, Note_on_c, 0, 64, 70
1, 211409, Note_on_c, 0, 69, 70
1, 211409, Note_on_c, 0, 76, 87
1, 211417, Note_on_c, 0, 59, 74
1, 211443, Note_on_c, 9, 59, 65
1, 211447, Note_on_c, 1, 31, 0
1, 211459, Note_on_c, 1, 38, 84
1, 211493, Note_on_c, 0, 69, 0
1, 211517, Note_on_c, 0, 64, 0
1, 211521, Note_on_c, 0, 73, 0
1, 211521, Note_on_c, 0, 76, 0
1, 211533, Note_on_c, 0, 53, 0
1, 211541, Note_on_c, 0, 59, 0
1, 211671, Note_on_c, 9, 59, 0
1, 211727, Note_on_c, 9, 59, 29
1, 211749, Note_on_c, 9, 38, 18
1, 211757, Note_on_c, 0, 53, 76
1, 211757, Note_on_c, 0, 73, 87
1, 211757, Note_on_c, 0, 59, 73
1, 211757, Note_on_c, 0, 64, 81
1, 211757, Note_on_c, 0, 76, 85
1, 211757, Note_on_c, 0, 69, 82
1, 211771, Note_on_c, 9, 59, 0
1, 211827, Note_on_c, 1, 42, 85
1, 211827, Note_on_c, 9, 44, 51
1, 211829, Note_on_c, 9, 59, 56
1, 211835, Note_on_c, 9, 38, 0
1, 211869, Note_on_c, 1, 38, 0
1, 211957, Note_on_c, 0, 76, 0
1, 211981, Note_on_c, 9, 44, 0
1, 211981, Note_on_c, 0, 69, 0
1, 211997, Note_on_c, 0, 59, 0
1, 212005, Note_on_c, 0, 64, 0
1, 212013, Note_on_c, 0, 73, 0
1, 212029, Control_c, 0, 64, 127
1, 212065, Note_on_c, 1, 38, 62
1, 212089, Note_on_c, 0, 53, 0
1, 212089, Note_on_c, 9, 36, 14
1, 212091, Note_on_c, 9, 59, 0
1, 212113, Note_on_c, 1, 38, 0
1, 212149, Control_c, 0, 64, 0
1, 212157, Note_on_c, 9, 36, 0
1, 212201, Note_on_c, 9, 59, 58
1, 212203, Note_on_c, 1, 42, 0
1, 212211, Note_on_c, 1, 43, 75
1, 212235, Note_on_c, 9, 38, 10
1, 212253, Note_on_c, 0, 82, 82
1, 212257, Note_on_c, 0, 53, 62
1, 212257, Note_on_c, 0, 74, 81
1, 212261, Note_on_c, 0, 70, 81
1, 212261, Note_on_c, 0, 58, 68
1, 212261, Note_on_c, 0, 62, 63
1, 212261, Note_on_c, 0, 55, 57
1, 212289, Note_on_c, 0, 80, 43
1, 212305, Control_c, 0, 64, 127
1, 212353, Note_on_c, 0, 74, 0
1, 212357, Control_c, 0, 64, 0
1, 212381, Note_on_c, 0, 62, 0
1, 212385, Note_on_c, 0, 53, 0
1, 212409, Note_on_c, 0, 80, 0
1, 212409, Note_on_c, 0, 70, 0
1, 212409, Control_c, 0, 64, 127
1, 212413, Note_on_c, 0, 55, 0
1, 212417, Note_on_c, 0, 82, 0
1, 212433, Note_on_c, 0, 58, 0
1, 212459, Note_on_c, 9, 38, 0
1, 212477, Note_on_c, 9, 59, 0
1, 212509, Note_on_c, 0, 84, 90
1, 212509, Note_on_c, 0, 62, 75
1, 212509, Note_on_c, 0, 58, 58
1, 212513, Note_on_c, 0, 72, 77
1, 212513, Note_on_c, 0, 55, 52
1, 212533, Note_on_c, 0, 53, 42
1, 212537, Control_c, 0, 64, 0
1, 212541, Note_on_c, 0, 74, 52
1, 212563, Note_on_c, 1, 43, 0
1, 212565, Note_on_c, 0, 53, 0
1, 212569, Note_on_c, 0, 74, 0
1, 212569, Note_on_c, 0, 62, 0
1, 212573, Note_on_c, 0, 84, 0
1, 212581, Note_on_c, 0, 72, 0
1, 212585, Note_on_c, 0, 55, 0
1, 212585, Note_on_c, 1, 31, 79
1, 212591, Note_on_c, 9, 44, 56
1, 212597, Note_on_c, 0, 58, 0
1, 212627, Note_on_c, 9, 59, 62
1, 212645, Note_on_c, 0, 82, 74
1, 212645, Note_on_c, 0, 70, 78
1, 212645, Note_on_c, 0, 53, 50
1, 212645, Note_on_c, 0, 62, 59
1, 212657, Note_on_c, 0, 58, 66
1, 212665, Note_on_c, 0, 55, 45
1, 212697, Control_c, 0, 64, 127
1, 212727, Note_on_c, 9, 44, 0
1, 212785, Note_on_c, 0, 55, 0
1, 212785, Note_on_c, 0, 53, 0
1, 212797, Note_on_c, 0, 82, 0
1, 212809, Note_on_c, 0, 70, 0
1, 212833, Note_on_c, 0, 58, 0
1, 212841, Note_on_c, 0, 62, 0
1, 212867, Note_on_c, 9, 59, 0
1, 212917, Control_c, 0, 64, 0
1, 212951, Note_on_c, 1, 31, 0
1, 212995, Note_on_c, 1, 33, 90
1, 213005, Note_on_c, 9, 59, 54
1, 213013, Note_on_c, 0, 76, 82
1, 213013, Note_on_c, 0, 55, 63
1, 213013, Note_on_c, 0, 64, 77
1, 213013, Note_on_c, 0, 57, 60
1, 213013, Note_on_c, 0, 81, 82
1, 213021, Note_on_c, 0, 60, 68
1, 213021, Note_on_c, 0, 69, 80
1, 213049, Note_on_c, 0, 56, 36
1, 213093, Note_on_c, 0, 56, 0
1, 213259, Note_on_c, 9, 59, 0
1, 213269, Note_on_c, 9, 36, 6
1, 213277, Note_on_c, 9, 53, 31
1, 213279, Note_on_c, 1, 36, 54
1, 213339, Note_on_c, 9, 36, 0
1, 213353, Note_on_c, 0, 64, 0
1, 213357, Note_on_c, 1, 36, 0
1, 213359, Note_on_c, 9, 44, 57
1, 213363, Note_on_c, 1, 45, 111
1, 213377, Note_on_c, 0, 60, 0
1, 213377, Note_on_c, 0, 81, 0
1, 213379, Note_on_c, 9, 53, 0
1, 213379, Note_on_c, 9, 59, 37
1, 213389, Note_on_c, 0, 76, 0
1, 213399, Note_on_c, 9, 38, 9
1, 213409, Note_on_c, 0, 55, 0
1, 213409, Note_on_c, 0, 57, 0
1, 213425, Note_on_c, 0, 69, 0
1, 213429, Note_on_c, 1, 33, 0
1, 213533, Control_c, 0, 64, 127
1, 213557, Note_on_c, 9, 59, 0
1, 213571, Note_on_c, 9, 44, 0
1, 213607, Note_on_c, 9, 38, 0
1, 213633, Note_on_c, 9, 59, 38
1, 213645, Note_on_c, 9, 36, 13
1, 213681, Control_c, 0, 64, 0
1, 213703, Note_on_c, 9, 59, 0
1, 213723, Note_on_c, 1, 45, 0
1, 213749, Note_on_c, 9, 36, 0
1, 213753, Note_on_c, 1, 46, 97
1, 213761, Note_on_c, 0, 46, 77
1, 213767, Note_on_c, 9, 59, 55
1, 213773, Note_on_c, 0, 55, 70
1, 213773, Note_on_c, 0, 77, 82
1, 213777, Note_on_c, 0, 74, 74
1, 213777, Note_on_c, 0, 70, 81
1, 213777, Note_on_c, 0, 65, 84
1, 213797, Control_c, 0, 64, 127
1, 213805, Note_on_c, 0, 76, 48
1, 213817, Note_on_c, 9, 38, 12
1, 213909, Note_on_c, 0, 74, 0
1, 213925, Note_on_c, 0, 77, 0
1, 213933, Note_on_c, 0, 76, 0
1, 213961, Note_on_c, 0, 70, 0
1, 213969, Note_on_c, 0, 65, 0
1, 213979, Note_on_c, 9, 38, 0
1, 214025, Note_on_c, 9, 38, 11
1, 214029, Note_on_c, 9, 53, 38
1, 214039, Note_on_c, 9, 59, 0
1, 214093, Note_on_c, 9, 38, 0
1, 214105, Note_on_c, 0, 46, 0
1, 214109, Note_on_c, 0, 55, 0
1, 214125, Note_on_c, 1, 46, 0
1, 214143, Note_on_c, 1, 34, 86
1, 214143, Note_on_c, 9, 44, 52
1, 214155, Note_on_c, 9, 53, 0
1, 214173, Note_on_c, 9, 59, 28
1, 214221, Note_on_c, 0, 71, 82
1, 214233, Note_on_c, 0, 62, 78
1, 214237, Note_on_c, 0, 67, 69
1, 214269, Note_on_c, 0, 56, 76
1, 214277, Note_on_c, 9, 59, 0
1, 214323, Note_on_c, 9, 44, 0
1, 214381, Note_on_c, 0, 62, 0
1, 214381, Control_c, 0, 64, 0
1, 214409, Note_on_c, 9, 59, 44
1, 214421, Note_on_c, 0, 67, 0
1, 214433, Note_on_c, 0, 71, 0
1, 214477, Note_on_c, 0, 64, 81
1, 214477, Note_on_c, 0, 74, 88
1, 214489, Note_on_c, 0, 70, 68
1, 214489, Note_on_c, 0, 59, 80
1, 214491, Note_on_c, 9, 59, 0
1, 214505, Note_on_c, 0, 56, 0
1, 214513, Note_on_c, 1, 34, 0
1, 214535, Note_on_c, 1, 35, 94
1, 214555, Note_on_c, 9, 59, 44
1, 214561, Control_c, 0, 64, 127
1, 214633, Note_on_c, 0, 64, 0
1, 214649, Note_on_c, 0, 74, 0
1, 214653, Note_on_c, 0, 70, 0
1, 214757, Note_on_c, 0, 59, 0
1, 214771, Note_on_c, 9, 59, 0
1, 214813, Note_on_c, 0, 77, 77
1, 214821, Note_on_c, 0, 62, 83
1, 214825, Note_on_c, 0, 74, 78
1, 214829, Note_on_c, 0, 68, 84
1, 214877, Note_on_c, 1, 35, 0
1, 214891, Note_on_c, 9, 44, 51
1, 214913, Note_on_c, 1, 35, 97
1, 214929, Note_on_c, 9, 59, 62
1, 214945, Note_on_c, 0, 62, 0
1, 215049, Note_on_c, 0, 74, 0
1, 215065, Note_on_c, 0, 77, 0
1, 215065, Note_on_c, 9, 44, 0
1, 215065, Note_on_c, 0, 68, 0
1, 215091, Note_on_c, 9, 59, 0
1, 215181, Note_on_c, 9, 59, 33
1, 215247, Note_on_c, 9, 59, 0
1, 215261, Note_on_c, 1, 35, 0
1, 215291, Note_on_c, 1, 36, 89
1, 215305, Control_c, 0, 64, 0
1, 215315, Note_on_c, 9, 59, 50
1, 215369, Control_c, 0, 64, 127
1, 215409, Note_on_c, 9, 38, 10
1, 215447, Note_on_c, 9, 38, 0
1, 215543, Note_on_c, 9, 53, 50
1, 215565, Note_on_c, 9, 59, 0
1, 215573, Note_on_c, 0, 56, 50
1, 215585, Note_on_c, 0, 49, 39
1, 215593, Control_c, 0, 64, 0
1, 215605, Note_on_c, 0, 56, 0
1, 215617, Note_on_c, 1, 36, 0
1, 215617, Note_on_c, 9, 53, 0
1, 215633, Note_on_c, 0, 49, 0
1, 215671, Note_on_c, 9, 44, 51
1, 215673, Note_on_c, 1, 36, 88
1, 215687, Note_on_c, 9, 53, 34
1, 215693, Note_on_c, 9, 38, 18
1, 215855, Note_on_c, 9, 44, 0
1, 215859, Note_on_c, 9, 53, 0
1, 215883, Note_on_c, 9, 38, 0
1, 215947, Note_on_c, 9, 36, 17
1, 215953, Note_on_c, 0, 60, 73
1, 216027, Note_on_c, 9, 36, 0
1, 216057, Note_on_c, 0, 60, 0
1, 216069, Note_on_c, 1, 38, 105
1, 216079, Note_on_c, 9, 59, 60
1, 216111, Note_on_c, 1, 36, 0
1, 216133, Note_on_c, 0, 61, 42
1, 216165, Note_on_c, 9, 36, 27
1, 216259, Note_on_c, 9, 59, 0
1, 216285, Note_on_c, 0, 61, 0
1, 216289, Note_on_c, 9, 36, 0
1, 216325, Note_on_c, 9, 53, 41
1, 216341, Note_on_c, 0, 62, 77
1, 216349, Note_on_c, 0, 58, 63
1, 216397, Note_on_c, 1, 38, 0
1, 216399, Note_on_c, 9, 53, 0
1, 216405, Note_on_c, 0, 58, 0
1, 216439, Note_on_c, 9, 44, 49
1, 216441, Note_on_c, 0, 62, 0
1, 216441, Note_on_c, 1, 38, 109
1, 216445, Note_on_c, 9, 36, 20
1, 216473, Note_on_c, 9, 53, 34
1, 216509, Note_on_c, 0, 65, 63
1, 216579, Note_on_c, 9, 44, 0
1, 216595, Note_on_c, 9, 36, 0
1, 216595, Note_on_c, 9, 53, 0
1, 216669, Note_on_c, 0, 65, 0
1, 216697, Note_on_c, 9, 36, 23
1, 216715, Note_on_c, 9, 59, 70
1, 216729, Note_on_c, 0, 63, 81
1, 216737, Note_on_c, 0, 69, 83
1, 216737, Note_on_c, 0, 52, 70
1, 216745, Note_on_c, 0, 58, 59
1, 216807, Note_on_c, 1, 38, 0
1, 216809, Note_on_c, 9, 36, 0
1, 216843, Note_on_c, 1, 39, 111
1, 216857, Note_on_c, 0, 69, 0
1, 216921, Note_on_c, 0, 70, 63
1, 217037, Note_on_c, 9, 59, 0
1, 217071, Note_on_c, 9, 53, 54
1, 217081, Note_on_c, 0, 70, 0
1, 217113, Note_on_c, 0, 72, 75
1, 217149, Note_on_c, 0, 52, 0
1, 217157, Note_on_c, 0, 63, 0
1, 217169, Note_on_c, 1, 39, 0
1, 217171, Note_on_c, 9, 53, 0
1, 217209, Note_on_c, 9, 46, 46
1, 217213, Note_on_c, 0, 72, 0
1, 217221, Note_on_c, 1, 39, 100
1, 217225, Note_on_c, 9, 59, 43
1, 217241, Note_on_c, 0, 58, 0
1, 217285, Note_on_c, 0, 73, 49
1, 217353, Note_on_c, 9, 46, 0
1, 217379, Note_on_c, 9, 59, 0
1, 217461, Note_on_c, 0, 73, 0
1, 217481, Note_on_c, 0, 52, 56
1, 217489, Note_on_c, 0, 76, 75
1, 217489, Note_on_c, 9, 53, 61
1, 217497, Note_on_c, 0, 60, 49
1, 217501, Note_on_c, 0, 58, 42
1, 217533, Note_on_c, 0, 60, 0
1, 217569, Note_on_c, 1, 39, 0
1, 217585, Note_on_c, 9, 53, 0
1, 217601, Note_on_c, 1, 40, 100
1, 217613, Note_on_c, 0, 52, 0
1, 217613, Note_on_c, 0, 58, 0
1, 217633, Note_on_c, 0, 76, 0
1, 217641, Note_on_c, 9, 59, 47
1, 217673, Note_on_c, 0, 78, 57
1, 217787, Note_on_c, 9, 59, 0
1, 217805, Note_on_c, 0, 78, 0
1, 217845, Note_on_c, 9, 38, 17
1, 217857, Note_on_c, 0, 49, 31
1, 217857, Note_on_c, 0, 80, 73
1, 217861, Note_on_c, 9, 53, 61
1, 217905, Note_on_c, 9, 38, 0
1, 217957, Note_on_c, 9, 53, 0
1, 217965, Note_on_c, 1, 36, 81
1, 217969, Note_on_c, 9, 36, 12
1, 217973, Note_on_c, 1, 40, 0
1, 217973, Note_on_c, 9, 44, 50
1, 217997, Note_on_c, 0, 80, 0
1, 218007, Note_on_c, 9, 59, 38
1, 218021, Note_on_c, 0, 81, 75
1, 218057, Note_on_c, 0, 49, 0
1, 218089, Note_on_c, 9, 36, 0
1, 218101, Note_on_c, 9, 44, 0
1, 218167, Note_on_c, 9, 59, 0
1, 218173, Note_on_c, 0, 81, 0
1, 218243, Note_on_c, 9, 53, 56
1, 218245, Note_on_c, 9, 36, 12
1, 218253, Note_on_c, 0, 82, 78
1, 218265, Note_on_c, 0, 41, 49
1, 218273, Note_on_c, 0, 48, 47
1, 218273, Note_on_c, 0, 57, 39
1, 218305, Note_on_c, 9, 53, 0
1, 218349, Note_on_c, 0, 41, 0
1, 218351, Note_on_c, 1, 41, 87
1, 218353, Note_on_c, 1, 36, 0
1, 218355, Note_on_c, 9, 36, 0
1, 218371, Note_on_c, 9, 59, 50
1, 218373, Note_on_c, 0, 57, 0
1, 218375, Note_on_c, 9, 57, 8
1, 218389, Note_on_c, 9, 38, 9
1, 218397, Note_on_c, 0, 82, 0
1, 218417, Note_on_c, 0, 48, 0
1, 218421, Note_on_c, 0, 83, 57
1, 218585, Note_on_c, 0, 83, 0
1, 218633, Note_on_c, 0, 86, 89
1, 218635, Note_on_c, 9, 38, 0
1, 218635, Note_on_c, 9, 36, 14
1, 218645, Note_on_c, 0, 62, 51
1, 218647, Note_on_c, 9, 59, 0
1, 218651, Note_on_c, 1, 38, 83
1, 218657, Note_on_c, 0, 60, 35
1, 218661, Note_on_c, 9, 57, 0
1, 218677, Note_on_c, 0, 62, 0
1, 218697, Note_on_c, 0, 57, 39
1, 218713, Note_on_c, 1, 41, 0
1, 218713, Note_on_c, 0, 60, 0
1, 218733, Note_on_c, 0, 86, 0
1, 218733, Note_on_c, 9, 36, 0
1, 218737, Note_on_c, 1, 55, 98
1, 218745, Note_on_c, 1, 38, 0
1, 218747, Note_on_c, 9, 44, 42
1, 218765, Note_on_c, 0, 57, 0
1, 218793, Note_on_c, 0, 84, 54
1, 218901, Note_on_c, 9, 44, 0
1, 218969, Note_on_c, 0, 84, 0
1, 218987, Note_on_c, 1, 40, 59
1, 219005, Note_on_c, 9, 59, 36
1, 219011, Note_on_c, 9, 36, 29
1, 219021, Note_on_c, 0, 81, 75
1, 219031, Note_on_c, 1, 40, 0
1, 219053, Note_on_c, 9, 59, 0
1, 219085, Note_on_c, 1, 55, 0
1, 219111, Note_on_c, 1, 50, 79
1, 219117, Note_on_c, 0, 81, 0
1, 219127, Note_on_c, 9, 59, 45
1, 219177, Note_on_c, 0, 84, 32
1, 219181, Note_on_c, 0, 77, 55
1, 219257, Note_on_c, 9, 36, 0
1, 219369, Note_on_c, 9, 59, 0
1, 219377, Note_on_c, 0, 84, 0
1, 219409, Note_on_c, 0, 60, 57
1, 219425, Note_on_c, 0, 57, 54
1, 219437, Note_on_c, 0, 60, 0
1, 219441, Note_on_c, 0, 53, 43
1, 219453, Note_on_c, 0, 77, 0
1, 219473, Note_on_c, 9, 59, 57
1, 219475, Note_on_c, 9, 44, 46
1, 219485, Note_on_c, 1, 50, 0
1, 219505, Note_on_c, 1, 42, 71
1, 219517, Note_on_c, 0, 57, 0
1, 219517, Note_on_c, 0, 74, 50
1, 219529, Note_on_c, 0, 53, 0
1, 219631, Note_on_c, 9, 44, 0
1, 219649, Note_on_c, 9, 59, 0
1, 219765, Note_on_c, 0, 74, 0
1, 219771, Note_on_c, 9, 59, 28
1, 219829, Note_on_c, 9, 59, 0
1, 219865, Note_on_c, 1, 42, 0
1, 219875, Note_on_c, 1, 43, 66
1, 219879, Note_on_c, 9, 59, 36
1, 219905, Note_on_c, 0, 77, 82
1, 219905, Note_on_c, 0, 58, 48
1, 219909, Note_on_c, 0, 62, 43
1, 219921, Note_on_c, 0, 57, 43
1, 219929, Note_on_c, 0, 53, 33
1, 220085, Note_on_c, 0, 77, 0
1, 220109, Note_on_c, 0, 58, 0
1, 220123, Note_on_c, 9, 38, 12
1, 220131, Note_on_c, 9, 59, 0
1, 220157, Note_on_c, 0, 62, 0
1, 220245, Note_on_c, 9, 38, 0
1, 220249, Note_on_c, 9, 44, 47
1, 220255, Note_on_c, 9, 59, 58
1, 220269, Note_on_c, 1, 43, 0
1, 220269, Note_on_c, 0, 57, 0
1, 220271, Note_on_c, 1, 37, 81
1, 220285, Note_on_c, 0, 74, 66
1, 220293, Note_on_c, 0, 53, 0
1, 220383, Note_on_c, 9, 44, 0
1, 220485, Note_on_c, 0, 74, 0
1, 220495, Note_on_c, 9, 59, 0
1, 220553, Note_on_c, 9, 59, 29
1, 220613, Note_on_c, 9, 59, 0
1, 220645, Note_on_c, 1, 36, 75
1, 220645, Note_on_c, 1, 37, 0
1, 220661, Note_on_c, 0, 58, 48
1, 220661, Note_on_c, 9, 59, 45
1, 220665, Note_on_c, 0, 62, 45
1, 220673, Note_on_c, 0, 77, 85
1, 220681, Note_on_c, 0, 52, 41
1, 220865, Note_on_c, 0, 77, 0
1, 220907, Note_on_c, 9, 59, 0
1, 220941, Note_on_c, 0, 79, 63
1, 221017, Note_on_c, 0, 52, 0
1, 221027, Note_on_c, 9, 44, 46
1, 221029, Note_on_c, 1, 34, 78
1, 221029, Note_on_c, 1, 36, 0
1, 221037, Note_on_c, 9, 59, 62
1, 221041, Note_on_c, 0, 79, 0
1, 221049, Note_on_c, 0, 58, 0
1, 221049, Note_on_c, 0, 77, 48
1, 221089, Note_on_c, 0, 62, 0
1, 221145, Note_on_c, 9, 44, 0
1, 221241, Note_on_c, 9, 59, 0
1, 221249, Note_on_c, 0, 77, 0
1, 221319, Note_on_c, 9, 59, 30
1, 221325, Note_on_c, 0, 76, 75
1, 221329, Note_on_c, 0, 53, 38
1, 221333, Note_on_c, 0, 64, 42
1, 221333, Note_on_c, 0, 60, 45
1, 221341, Note_on_c, 0, 57, 39
1, 221401, Note_on_c, 9, 59, 0
1, 221417, Note_on_c, 1, 34, 0
1, 221431, Note_on_c, 1, 33, 81
1, 221437, Note_on_c, 9, 59, 32
1, 221445, Note_on_c, 0, 76, 0
1, 221581, Note_on_c, 0, 72, 68
1, 221589, Note_on_c, 0, 60, 0
1, 221657, Note_on_c, 9, 59, 0
1, 221701, Note_on_c, 0, 60, 44
1, 221713, Note_on_c, 0, 64, 0
1, 221741, Note_on_c, 0, 60, 0
1, 221773, Note_on_c, 0, 57, 0
1, 221785, Note_on_c, 0, 72, 0
1, 221797, Note_on_c, 0, 53, 0
1, 221799, Note_on_c, 9, 44, 39
1, 221817, Note_on_c, 1, 39, 94
1, 221819, Note_on_c, 9, 59, 65
1, 221851, Note_on_c, 1, 33, 0
1, 221853, Note_on_c, 0, 69, 59
1, 221909, Note_on_c, 9, 44, 0
1, 222023, Note_on_c, 9, 59, 0
1, 222029, Note_on_c, 0, 69, 0
1, 222109, Note_on_c, 0, 65, 68
1, 222125, Note_on_c, 0, 60, 45
1, 222125, Note_on_c, 0, 57, 46
1, 222149, Note_on_c, 0, 53, 40
1, 222161, Note_on_c, 0, 50, 22
1, 222215, Note_on_c, 1, 38, 71
1, 222219, Note_on_c, 9, 59, 77
1, 222219, Note_on_c, 1, 39, 0
1, 222509, Note_on_c, 0, 60, 0
1, 222511, Note_on_c, 9, 59, 0
1, 222545, Note_on_c, 0, 57, 0
1, 222579, Note_on_c, 9, 44, 47
1, 222589, Note_on_c, 0, 53, 0
1, 222589, Note_on_c, 1, 32, 88
1, 222613, Note_on_c, 0, 50, 0
1, 222625, Note_on_c, 9, 59, 59
1, 222681, Note_on_c, 0, 65, 0
1, 222721, Note_on_c, 9, 44, 0
1, 222767, Note_on_c, 9, 59, 0
1, 222829, Control_c, 0, 64, 127
1, 222865, Note_on_c, 0, 57, 76
1, 222865, Note_on_c, 0, 47, 79
1, 222869, Control_c, 0, 64, 0
1, 222889, Note_on_c, 0, 57, 0
1, 222889, Note_on_c, 9, 59, 58
1, 222945, Note_on_c, 1, 38, 0
1, 222955, Note_on_c, 1, 32, 0
1, 222957, Note_on_c, 9, 59, 0
1, 222965, Note_on_c, 1, 35, 93
1, 223003, Note_on_c, 0, 47, 0
1, 223003, Note_on_c, 9, 59, 68
1, 223017, Note_on_c, 0, 55, 33
1, 223029, Note_on_c, 0, 57, 60
1, 223057, Note_on_c, 0, 55, 0
1, 223089, Note_on_c, 0, 57, 0
1, 223113, Note_on_c, 0, 59, 52
1, 223157, Note_on_c, 0, 59, 0
1, 223177, Note_on_c, 0, 60, 51
1, 223225, Note_on_c, 0, 60, 0
1, 223241, Note_on_c, 0, 62, 57
1, 223257, Note_on_c, 1, 32, 75
1, 223285, Note_on_c, 9, 59, 0
1, 223293, Note_on_c, 0, 62, 0
1, 223305, Note_on_c, 0, 64, 56
1, 223323, Note_on_c, 1, 35, 0
1, 223349, Note_on_c, 9, 44, 47
1, 223351, Note_on_c, 1, 47, 105
1, 223359, Note_on_c, 1, 32, 0
1, 223373, Note_on_c, 0, 64, 0
1, 223373, Note_on_c, 0, 65, 56
1, 223373, Note_on_c, 9, 59, 54
1, 223437, Note_on_c, 0, 65, 0
1, 223441, Note_on_c, 0, 67, 55
1, 223473, Note_on_c, 9, 44, 0
1, 223505, Note_on_c, 0, 67, 0
1, 223509, Note_on_c, 0, 69, 56
1, 223549, Note_on_c, 0, 69, 0
1, 223555, Note_on_c, 9, 59, 0
1, 223569, Note_on_c, 0, 71, 50
1, 223597, Note_on_c, 0, 71, 0
1, 223611, Note_on_c, 9, 36, 8
1, 223629, Note_on_c, 0, 72, 49
1, 223655, Note_on_c, 9, 59, 38
1, 223657, Note_on_c, 0, 72, 0
1, 223659, Note_on_c, 9, 36, 0
1, 223681, Note_on_c, 0, 74, 45
1, 223713, Note_on_c, 0, 74, 0
1, 223719, Note_on_c, 9, 59, 0
1, 223723, Note_on_c, 1, 47, 0
1, 223733, Note_on_c, 0, 76, 75
1, 223733, Note_on_c, 1, 40, 88
1, 223749, Note_on_c, 0, 56, 64
1, 223757, Note_on_c, 0, 67, 63
1, 223761, Note_on_c, 0, 62, 65
1, 223779, Note_on_c, 9, 59, 69
1, 223987, Note_on_c, 9, 59, 0
1, 224025, Note_on_c, 9, 59, 68
1, 224057, Note_on_c, 0, 76, 0
1, 224077, Note_on_c, 0, 67, 0
1, 224089, Note_on_c, 1, 40, 0
1, 224095, Note_on_c, 9, 44, 46
1, 224101, Note_on_c, 1, 34, 84
1, 224129, Note_on_c, 0, 74, 75
1, 224229, Note_on_c, 0, 62, 0
1, 224233, Note_on_c, 9, 44, 0
1, 224233, Note_on_c, 0, 74, 0
1, 224237, Note_on_c, 0, 76, 71
1, 224313, Note_on_c, 0, 74, 60
1, 224329, Note_on_c, 0, 76, 0
1, 224361, Note_on_c, 0, 56, 0
1, 224387, Note_on_c, 9, 59, 0
1, 224389, Note_on_c, 0, 73, 57
1, 224415, Note_on_c, 1, 34, 0
1, 224421, Note_on_c, 0, 74, 0
1, 224431, Note_on_c, 9, 59, 39
1, 224465, Note_on_c, 0, 73, 0
1, 224487, Note_on_c, 1, 33, 83
1, 224491, Note_on_c, 9, 59, 0
1, 224517, Note_on_c, 0, 74, 74
1, 224545, Note_on_c, 9, 59, 68
1, 224553, Note_on_c, 0, 64, 26
1, 224609, Note_on_c, 0, 64, 0
1, 224745, Note_on_c, 1, 33, 0
1, 224749, Note_on_c, 0, 74, 0
1, 224767, Note_on_c, 1, 40, 88
1, 224777, Note_on_c, 0, 64, 41
1, 224789, Note_on_c, 0, 61, 40
1, 224813, Note_on_c, 0, 73, 85
1, 224813, Note_on_c, 9, 59, 0
1, 224817, Note_on_c, 0, 64, 0
1, 224833, Note_on_c, 0, 61, 0
1, 224833, Note_on_c, 0, 74, 66
1, 224857, Note_on_c, 9, 44, 40
1, 224875, Note_on_c, 9, 36, 18
1, 224879, Note_on_c, 9, 59, 65
1, 224921, Note_on_c, 0, 74, 0
1, 224973, Note_on_c, 0, 69, 72
1, 224999, Note_on_c, 9, 44, 0
1, 225077, Note_on_c, 9, 36, 0
1, 225125, Note_on_c, 9, 59, 0
1, 225177, Note_on_c, 9, 59, 30
1, 225217, Note_on_c, 0, 69, 0
1, 225217, Note_on_c, 0, 73, 0
1, 225225, Note_on_c, 9, 59, 0
1, 225257, Note_on_c, 1, 40, 0
1, 225263, Note_on_c, 9, 44, 20
1, 225277, Note_on_c, 9, 59, 70
1, 225297, Note_on_c, 0, 69, 75
1, 225301, Note_on_c, 1, 40, 95
1, 225421, Note_on_c, 9, 44, 0
1, 225497, Note_on_c, 9, 59, 0
1, 225515, Note_on_c, 9, 38, 7
1, 225545, Note_on_c, 9, 59, 78
1, 225569, Note_on_c, 9, 38, 0
1, 225589, Note_on_c, 0, 47, 63
1, 225637, Note_on_c, 9, 44, 34
1, 225639, Note_on_c, 9, 36, 11
1, 225793, Note_on_c, 0, 69, 0
1, 225801, Note_on_c, 9, 36, 0
1, 225855, Note_on_c, 9, 44, 0
1, 225907, Note_on_c, 9, 59, 0
1, 225923, Note_on_c, 9, 36, 15
1, 225935, Note_on_c, 1, 39, 88
1, 225935, Note_on_c, 9, 59, 27
1, 225955, Note_on_c, 1, 40, 0
1, 225995, Note_on_c, 9, 59, 0
1, 226031, Note_on_c, 9, 44, 27
1, 226035, Note_on_c, 1, 39, 0
1, 226045, Note_on_c, 9, 36, 0
1, 226057, Note_on_c, 9, 59, 73
1, 226073, Note_on_c, 1, 40, 94
1, 226093, Note_on_c, 9, 38, 9
1, 226207, Note_on_c, 9, 44, 0
1, 226265, Note_on_c, 9, 38, 0
1, 226317, Note_on_c, 9, 36, 17
1, 226355, Note_on_c, 1, 40, 0
1, 226355, Note_on_c, 9, 59, 0
1, 226369, Note_on_c, 9, 36, 0
1, 226401, Note_on_c, 9, 44, 36
1, 226409, Note_on_c, 0, 51, 28
1, 226417, Note_on_c, 9, 59, 68
1, 226425, Note_on_c, 1, 40, 90
1, 226465, Note_on_c, 0, 51, 0
1, 226477, Note_on_c, 0, 61, 85
1, 226611, Note_on_c, 9, 44, 0
1, 226663, Note_on_c, 9, 59, 0
1, 226673, Note_on_c, 9, 38, 19
1, 226713, Note_on_c, 9, 59, 47
1, 226733, Note_on_c, 0, 47, 0
1, 226733, Note_on_c, 0, 61, 0
1, 226745, Note_on_c, 0, 54, 26
1, 226749, Note_on_c, 0, 59, 43
1, 226755, Note_on_c, 9, 38, 0
1, 226773, Note_on_c, 9, 59, 0
1, 226785, Note_on_c, 0, 54, 0
1, 226785, Note_on_c, 9, 44, 25
1, 226803, Note_on_c, 9, 38, 11
1, 226831, Note_on_c, 9, 59, 70
1, 226865, Note_on_c, 0, 59, 0
1, 226869, Note_on_c, 0, 61, 63
1, 226893, Note_on_c, 9, 38, 0
1, 226975, Note_on_c, 9, 44, 0
1, 227023, Note_on_c, 1, 39, 86
1, 227033, Note_on_c, 0, 61, 0
1, 227039, Note_on_c, 1, 40, 0
1, 227047, Note_on_c, 9, 59, 0
1, 227071, Note_on_c, 9, 36, 16
1, 227103, Note_on_c, 9, 59, 74
1, 227105, Note_on_c, 0, 61, 70
1, 227131, Note_on_c, 1, 39, 0
1, 227147, Note_on_c, 9, 36, 0
1, 227161, Note_on_c, 0, 61, 0
1, 227169, Note_on_c, 1, 40, 100
1, 227181, Note_on_c, 9, 44, 52
1, 227391, Note_on_c, 9, 44, 0
1, 227429, Note_on_c, 9, 59, 0
1, 227441, Note_on_c, 9, 38, 19
1, 227471, Note_on_c, 9, 59, 39
1, 227505, Note_on_c, 0, 64, 61
1, 227533, Note_on_c, 9, 59, 0
1, 227545, Note_on_c, 0, 64, 0
1, 227545, Note_on_c, 9, 44, 36
1, 227547, Note_on_c, 9, 38, 0
1, 227589, Note_on_c, 9, 59, 74
1, 227693, Note_on_c, 0, 65, 36
1, 227697, Note_on_c, 1, 40, 0
1, 227737, Note_on_c, 0, 65, 0
1, 227805, Note_on_c, 9, 44, 0
1, 227819, Note_on_c, 9, 36, 24
1, 227827, Note_on_c, 1, 40, 107
1, 227841, Note_on_c, 0, 67, 86
1, 227887, Note_on_c, 9, 36, 0
1, 227901, Note_on_c, 9, 59, 0
1, 227927, Note_on_c, 9, 44, 49
1, 227941, Note_on_c, 0, 67, 0
1, 227967, Note_on_c, 9, 59, 70
1, 227973, Note_on_c, 9, 36, 27
1, 228013, Note_on_c, 0, 68, 59
1, 228115, Note_on_c, 9, 36, 0
1, 228167, Note_on_c, 9, 44, 0
1, 228173, Note_on_c, 0, 68, 0
1, 228187, Note_on_c, 9, 59, 0
1, 228221, Note_on_c, 0, 69, 82
1, 228233, Note_on_c, 0, 60, 60
1, 228235, Note_on_c, 0, 63, 64
1, 228235, Note_on_c, 9, 59, 50
1, 228257, Note_on_c, 0, 57, 44
1, 228261, Note_on_c, 0, 54, 28
1, 228309, Note_on_c, 9, 59, 0
1, 228313, Note_on_c, 9, 44, 28
1, 228323, Note_on_c, 1, 40, 0
1, 228353, Note_on_c, 0, 69, 0
1, 228353, Note_on_c, 9, 59, 69
1, 228353, Note_on_c, 1, 42, 91
1, 228401, Note_on_c, 0, 70, 54
1, 228533, Note_on_c, 9, 44, 0
1, 228589, Note_on_c, 0, 70, 0
1, 228617, Note_on_c, 0, 71, 75
1, 228619, Note_on_c, 9, 59, 0
1, 228689, Note_on_c, 0, 63, 0
1, 228693, Note_on_c, 9, 44, 56
1, 228717, Note_on_c, 0, 60, 0
1, 228717, Note_on_c, 0, 71, 0
1, 228723, Note_on_c, 9, 59, 77
1, 228753, Note_on_c, 0, 57, 0
1, 228785, Note_on_c, 0, 72, 58
1, 228897, Note_on_c, 0, 54, 0
1, 228903, Note_on_c, 9, 44, 0
1, 228961, Note_on_c, 0, 72, 0
1, 228989, Note_on_c, 0, 73, 82
1, 228989, Note_on_c, 9, 38, 25
1, 229001, Note_on_c, 0, 57, 52
1, 229013, Note_on_c, 0, 58, 52
1, 229013, Note_on_c, 0, 62, 56
1, 229017, Note_on_c, 1, 39, 58
1, 229053, Note_on_c, 0, 53, 28
1, 229057, Note_on_c, 9, 59, 0
1, 229059, Note_on_c, 9, 38, 0
1, 229087, Note_on_c, 9, 44, 35
1, 229089, Note_on_c, 0, 73, 0
1, 229111, Note_on_c, 1, 42, 0
1, 229121, Note_on_c, 1, 43, 88
1, 229123, Note_on_c, 1, 39, 0
1, 229129, Note_on_c, 9, 38, 5
1, 229145, Note_on_c, 9, 59, 32
1, 229161, Note_on_c, 0, 74, 58
1, 229243, Note_on_c, 9, 44, 0
1, 229271, Note_on_c, 9, 38, 0
1, 229285, Note_on_c, 0, 58, 0
1, 229301, Note_on_c, 0, 74, 0
1, 229321, Note_on_c, 9, 59, 0
1, 229363, Note_on_c, 9, 36, 19
1, 229373, Note_on_c, 0, 58, 41
1, 229373, Note_on_c, 0, 77, 80
1, 229381, Note_on_c, 9, 59, 70
1, 229409, Note_on_c, 0, 62, 0
1, 229417, Note_on_c, 9, 36, 0
1, 229449, Note_on_c, 0, 77, 0
1, 229461, Note_on_c, 9, 59, 0
1, 229467, Note_on_c, 9, 44, 59
1, 229469, Note_on_c, 0, 57, 0
1, 229469, Note_on_c, 0, 58, 0
1, 229509, Note_on_c, 0, 53, 0
1, 229511, Note_on_c, 9, 59, 62
1, 229521, Note_on_c, 0, 81, 60
1, 229679, Note_on_c, 9, 44, 0
1, 229693, Note_on_c, 9, 59, 0
1, 229697, Note_on_c, 0, 81, 0
1, 229745, Note_on_c, 0, 84, 77
1, 229751, Note_on_c, 9, 38, 18
1, 229753, Note_on_c, 1, 43, 0
1, 229753, Note_on_c, 0, 58, 68
1, 229753, Note_on_c, 0, 62, 74
1, 229753, Note_on_c, 0, 72, 68
1, 229757, Note_on_c, 1, 50, 100
1, 229761, Note_on_c, 0, 52, 66
1, 229771, Note_on_c, 9, 59, 73
1, 229787, Note_on_c, 9, 38, 0
1, 229787, Note_on_c, 1, 51, 54
1, 229797, Note_on_c, 0, 52, 0
1, 229809, Note_on_c, 0, 84, 0
1, 229813, Note_on_c, 0, 72, 0
1, 229817, Note_on_c, 0, 62, 0
1, 229823, Note_on_c, 1, 51, 0
1, 229855, Note_on_c, 1, 50, 0
1, 229857, Note_on_c, 9, 44, 32
1, 229881, Note_on_c, 0, 52, 22
1, 229897, Note_on_c, 1, 48, 87
1, 229905, Note_on_c, 0, 62, 41
1, 229925, Note_on_c, 0, 73, 61
1, 229933, Note_on_c, 0, 85, 63
1, 230061, Note_on_c, 0, 58, 0
1, 230067, Note_on_c, 9, 44, 0
1, 230093, Note_on_c, 0, 85, 0
1, 230093, Note_on_c, 0, 73, 0
1, 230103, Note_on_c, 9, 59, 0
1, 230111, Note_on_c, 1, 48, 0
1, 230129, Note_on_c, 9, 38, 30
1, 230129, Note_on_c, 1, 39, 83
1, 230137, Note_on_c, 0, 62, 0
1, 230137, Note_on_c, 0, 58, 53
1, 230141, Note_on_c, 0, 54, 21
1, 230153, Note_on_c, 9, 59, 39
1, 230197, Note_on_c, 0, 54, 0
1, 230203, Note_on_c, 9, 38, 0
1, 230205, Note_on_c, 0, 52, 0
1, 230209, Note_on_c, 9, 59, 0
1, 230217, Note_on_c, 1, 39, 0
1, 230247, Note_on_c, 9, 46, 51
1, 230253, Note_on_c, 0, 52, 36
1, 230263, Note_on_c, 1, 40, 66
1, 230265, Note_on_c, 0, 62, 73
1, 230265, Note_on_c, 0, 87, 85
1, 230269, Note_on_c, 0, 75, 82
1, 230273, Note_on_c, 9, 59, 70
1, 230301, Note_on_c, 0, 81, 52
1, 230393, Note_on_c, 0, 52, 0
1, 230421, Note_on_c, 0, 81, 0
1, 230429, Note_on_c, 0, 58, 0
1, 230453, Note_on_c, 0, 62, 0
1, 230453, Note_on_c, 0, 87, 0
1, 230461, Note_on_c, 9, 46, 0
1, 230461, Note_on_c, 0, 75, 0
1, 230491, Note_on_c, 9, 36, 38
1, 230529, Note_on_c, 1, 39, 56
1, 230537, Note_on_c, 0, 53, 68
1, 230549, Note_on_c, 0, 88, 83
1, 230549, Note_on_c, 0, 81, 81
1, 230549, Note_on_c, 0, 57, 70
1, 230549, Note_on_c, 0, 60, 72
1, 230549, Note_on_c, 0, 76, 81
1, 230549, Note_on_c, 0, 64, 75
1, 230551, Note_on_c, 9, 59, 0
1, 230561, Note_on_c, 0, 84, 69
1, 230563, Note_on_c, 9, 36, 0
1, 230601, Note_on_c, 1, 40, 0
1, 230609, Note_on_c, 1, 39, 0
1, 230621, Control_c, 0, 64, 127
1, 230627, Note_on_c, 9, 57, 10
1, 230629, Note_on_c, 1, 41, 84
1, 230633, Note_on_c, 9, 36, 22
1, 230649, Note_on_c, 9, 59, 56
1, 230713, Note_on_c, 0, 86, 11
1, 230741, Note_on_c, 0, 76, 0
1, 230745, Note_on_c, 0, 81, 0
1, 230777, Note_on_c, 0, 64, 0
1, 230789, Note_on_c, 0, 84, 0
1, 230789, Note_on_c, 0, 53, 0
1, 230789, Note_on_c, 0, 88, 0
1, 230801, Note_on_c, 0, 57, 0
1, 230805, Note_on_c, 0, 86, 0
1, 230813, Note_on_c, 0, 60, 0
1, 230891, Note_on_c, 9, 59, 0
1, 230897, Note_on_c, 0, 91, 98
1, 230909, Note_on_c, 0, 84, 78
1, 230909, Note_on_c, 0, 79, 78
1, 230921, Note_on_c, 0, 64, 77
1, 230925, Note_on_c, 0, 53, 71
1, 230929, Note_on_c, 0, 60, 58
1, 230933, Note_on_c, 0, 87, 39
1, 230933, Note_on_c, 0, 88, 39
1, 230937, Note_on_c, 0, 57, 59
1, 230939, Note_on_c, 1, 37, 46
1, 230951, Note_on_c, 1, 41, 0
1, 230973, Note_on_c, 0, 88, 0
1, 230981, Note_on_c, 1, 37, 0
1, 230993, Note_on_c, 9, 44, 42
1, 230995, Note_on_c, 1, 39, 90
1, 231013, Note_on_c, 0, 64, 0
1, 231021, Note_on_c, 0, 87, 0
1, 231041, Note_on_c, 0, 91, 0
1, 231041, Note_on_c, 0, 57, 0
1, 231041, Note_on_c, 0, 60, 0
1, 231043, Note_on_c, 9, 59, 52
1, 231053, Note_on_c, 0, 84, 0
1, 231061, Note_on_c, 0, 79, 0
1, 231081, Note_on_c, 0, 53, 0
1, 231163, Note_on_c, 9, 44, 0
1, 231257, Note_on_c, 0, 84, 77
1, 231257, Note_on_c, 0, 50, 72
1, 231261, Note_on_c, 0, 82, 66
1, 231265, Note_on_c, 9, 59, 0
1, 231265, Note_on_c, 0, 72, 66
1, 231265, Note_on_c, 0, 60, 79
1, 231269, Note_on_c, 0, 57, 68
1, 231269, Note_on_c, 0, 53, 68
1, 231269, Note_on_c, 0, 79, 74
1, 231305, Control_c, 0, 64, 0
1, 231341, Note_on_c, 0, 82, 0
1, 231351, Note_on_c, 9, 57, 0
1, 231359, Note_on_c, 1, 39, 0
1, 231375, Note_on_c, 1, 38, 77
1, 231409, Note_on_c, 0, 84, 0
1, 231409, Note_on_c, 9, 59, 49
1, 231421, Note_on_c, 0, 50, 0
1, 231421, Note_on_c, 0, 72, 0
1, 231429, Note_on_c, 0, 60, 0
1, 231429, Control_c, 0, 64, 127
1, 231433, Note_on_c, 0, 79, 0
1, 231437, Note_on_c, 0, 53, 0
1, 231449, Note_on_c, 0, 57, 0
1, 231481, Note_on_c, 0, 60, 52
1, 231489, Note_on_c, 0, 72, 60
1, 231489, Note_on_c, 0, 84, 68
1, 231497, Note_on_c, 0, 50, 50
1, 231501, Note_on_c, 0, 79, 78
1, 231505, Note_on_c, 0, 57, 39
1, 231509, Note_on_c, 0, 53, 57
1, 231573, Note_on_c, 0, 72, 0
1, 231609, Note_on_c, 0, 83, 22
1, 231613, Note_on_c, 0, 79, 0
1, 231637, Note_on_c, 0, 84, 0
1, 231645, Note_on_c, 0, 83, 0
1, 231649, Note_on_c, 0, 60, 0
1, 231665, Note_on_c, 0, 57, 0
1, 231669, Note_on_c, 0, 50, 0
1, 231677, Note_on_c, 0, 53, 0
1, 231691, Note_on_c, 9, 59, 0
1, 231705, Control_c, 0, 64, 0
1, 231735, Note_on_c, 0, 88, 85
1, 231735, Note_on_c, 9, 44, 37
1, 231741, Note_on_c, 0, 50, 63
1, 231745, Note_on_c, 0, 60, 68
1, 231747, Note_on_c, 1, 38, 0
1, 231749, Note_on_c, 0, 83, 68
1, 231757, Note_on_c, 0, 57, 54
1, 231757, Note_on_c, 0, 76, 60
1, 231769, Note_on_c, 1, 32, 88
1, 231777, Note_on_c, 0, 83, 0
1, 231785, Note_on_c, 0, 76, 0
1, 231785, Note_on_c, 0, 53, 24
1, 231785, Note_on_c, 9, 59, 46
1, 231797, Note_on_c, 0, 88, 0
1, 231797, Control_c, 0, 64, 127
1, 231813, Note_on_c, 0, 60, 0
1, 231817, Note_on_c, 0, 50, 0
1, 231821, Note_on_c, 0, 57, 0
1, 231825, Note_on_c, 0, 53, 0
1, 231843, Note_on_c, 9, 36, 0
1, 231897, Note_on_c, 9, 44, 0
1, 231985, Control_c, 0, 64, 0
1, 231997, Note_on_c, 9, 59, 0
1, 232013, Note_on_c, 0, 53, 58
1, 232013, Note_on_c, 0, 57, 63
1, 232013, Note_on_c, 0, 62, 69
1, 232013, Note_on_c, 0, 81, 75
1, 232013, Note_on_c, 0, 58, 66
1, 232013, Note_on_c, 0, 69, 75
1, 232013, Note_on_c, 0, 76, 75
1, 232061, Note_on_c, 9, 59, 37
1, 232143, Note_on_c, 9, 59, 0
1, 232143, Note_on_c, 1, 32, 0
1, 232151, Note_on_c, 1, 31, 72
1, 232157, Note_on_c, 0, 69, 0
1, 232165, Control_c, 0, 64, 127
1, 232169, Note_on_c, 0, 81, 0
1, 232181, Note_on_c, 9, 59, 31
1, 232201, Note_on_c, 0, 76, 0
1, 232209, Note_on_c, 0, 62, 0
1, 232221, Note_on_c, 0, 58, 0
1, 232253, Note_on_c, 0, 81, 59
1, 232257, Note_on_c, 0, 69, 57
1, 232261, Note_on_c, 0, 62, 60
1, 232261, Note_on_c, 0, 76, 63
1, 232273, Note_on_c, 0, 58, 46
1, 232329, Note_on_c, 0, 69, 0
1, 232365, Note_on_c, 0, 76, 0
1, 232369, Note_on_c, 0, 62, 0
1, 232381, Note_on_c, 0, 81, 0
1, 232417, Note_on_c, 0, 53, 0
1, 232425, Note_on_c, 0, 58, 0
1, 232437, Note_on_c, 0, 57, 0
1, 232447, Note_on_c, 9, 59, 0
1, 232469, Control_c, 0, 64, 0
1, 232485, Note_on_c, 0, 84, 75
1, 232497, Note_on_c, 0, 58, 59
1, 232501, Note_on_c, 0, 53, 56
1, 232501, Note_on_c, 0, 62, 61
1, 232501, Note_on_c, 0, 79, 66
1, 232513, Note_on_c, 0, 84, 0
1, 232517, Note_on_c, 0, 57, 45
1, 232529, Note_on_c, 0, 62, 0
1, 232529, Note_on_c, 1, 31, 0
1, 232529, Note_on_c, 0, 79, 0
1, 232541, Note_on_c, 1, 37, 82
1, 232541, Note_on_c, 9, 44, 28
1, 232549, Note_on_c, 0, 57, 0
1, 232555, Note_on_c, 9, 59, 47
1, 232573, Control_c, 0, 64, 127
1, 232581, Note_on_c, 0, 58, 0
1, 232609, Note_on_c, 0, 53, 0
1, 232689, Note_on_c, 9, 44, 0
1, 232709, Control_c, 0, 64, 0
1, 232773, Note_on_c, 0, 76, 64
1, 232777, Note_on_c, 0, 58, 61
1, 232779, Note_on_c, 9, 59, 0
1, 232785, Note_on_c, 0, 64, 54
1, 232789, Note_on_c, 0, 52, 61
1, 232793, Note_on_c, 0, 62, 56
1, 232793, Note_on_c, 0, 71, 48
1, 232841, Note_on_c, 0, 62, 0
1, 232877, Control_c, 0, 64, 127
1, 232879, Note_on_c, 1, 34, 49
1, 232885, Note_on_c, 0, 64, 0
1, 232893, Note_on_c, 0, 76, 0
1, 232893, Note_on_c, 0, 71, 0
1, 232919, Note_on_c, 1, 34, 0
1, 232931, Note_on_c, 1, 36, 73
1, 232933, Note_on_c, 0, 52, 0
1, 232937, Note_on_c, 0, 58, 0
1, 232947, Note_on_c, 9, 59, 45
1, 232951, Note_on_c, 1, 37, 0
1, 232989, Note_on_c, 0, 76, 60
1, 232997, Note_on_c, 0, 71, 57
1, 233001, Note_on_c, 0, 52, 36
1, 233001, Note_on_c, 0, 64, 36
1, 233013, Note_on_c, 0, 58, 57
1, 233019, Note_on_c, 9, 59, 0
1, 233029, Note_on_c, 0, 62, 41
1, 233049, Note_on_c, 0, 64, 0
1, 233055, Note_on_c, 9, 53, 37
1, 233065, Note_on_c, 0, 62, 0
1, 233073, Note_on_c, 0, 71, 0
1, 233085, Note_on_c, 0, 76, 0
1, 233125, Note_on_c, 0, 52, 0
1, 233125, Note_on_c, 0, 58, 0
1, 233195, Note_on_c, 9, 38, 10
1, 233201, Control_c, 0, 64, 0
1, 233213, Note_on_c, 0, 52, 59
1, 233225, Note_on_c, 0, 74, 68
1, 233225, Note_on_c, 0, 58, 60
1, 233233, Note_on_c, 0, 79, 57
1, 233233, Note_on_c, 9, 38, 0
1, 233241, Note_on_c, 0, 62, 45
1, 233241, Note_on_c, 1, 34, 55
1, 233261, Note_on_c, 0, 74, 0
1, 233261, Note_on_c, 0, 79, 0
1, 233277, Note_on_c, 0, 62, 0
1, 233285, Note_on_c, 9, 44, 45
1, 233301, Note_on_c, 1, 50, 111
1, 233313, Note_on_c, 9, 53, 0
1, 233317, Note_on_c, 1, 36, 0
1, 233341, Control_c, 0, 64, 127
1, 233349, Note_on_c, 0, 58, 0
1, 233357, Note_on_c, 9, 59, 58
1, 233363, Note_on_c, 1, 34, 0
1, 233483, Note_on_c, 9, 44, 0
1, 233497, Note_on_c, 0, 52, 0
1, 233561, Note_on_c, 9, 36, 20
1, 233621, Note_on_c, 0, 54, 45
1, 233627, Note_on_c, 9, 36, 0
1, 233649, Control_c, 0, 64, 0
1, 233655, Note_on_c, 9, 59, 0
1, 233665, Note_on_c, 1, 50, 0
1, 233677, Note_on_c, 0, 53, 23
1, 233699, Note_on_c, 1, 48, 86
1, 233699, Note_on_c, 9, 38, 9
1, 233705, Note_on_c, 0, 56, 32
1, 233717, Note_on_c, 0, 53, 0
1, 233717, Note_on_c, 0, 69, 61
1, 233723, Note_on_c, 9, 59, 41
1, 233725, Note_on_c, 0, 54, 0
1, 233725, Note_on_c, 0, 57, 66
1, 233725, Note_on_c, 0, 64, 60
1, 233725, Note_on_c, 0, 60, 59
1, 233757, Note_on_c, 0, 56, 0
1, 233873, Note_on_c, 0, 64, 0
1, 233889, Note_on_c, 9, 38, 0
1, 233901, Note_on_c, 0, 69, 0
1, 233921, Note_on_c, 0, 60, 0
1, 233943, Note_on_c, 9, 36, 10
1, 233985, Note_on_c, 0, 57, 0
1, 233985, Note_on_c, 0, 68, 43
1, 233989, Note_on_c, 0, 56, 48
1, 233993, Note_on_c, 9, 59, 0
1, 234007, Note_on_c, 9, 36, 0
1, 234037, Note_on_c, 0, 68, 0
1, 234073, Note_on_c, 9, 44, 37
1, 234091, Note_on_c, 1, 46, 83
1, 234095, Note_on_c, 9, 59, 44
1, 234097, Note_on_c, 1, 48, 0
1, 234109, Note_on_c, 0, 60, 28
1, 234113, Note_on_c, 0, 56, 0
1, 234117, Note_on_c, 0, 64, 39
1, 234117, Note_on_c, 0, 69, 55
1, 234117, Note_on_c, 0, 57, 52
1, 234197, Note_on_c, 0, 69, 0
1, 234197, Note_on_c, 0, 60, 0
1, 234205, Note_on_c, 0, 64, 0
1, 234247, Note_on_c, 9, 44, 0
1, 234285, Note_on_c, 0, 57, 0
1, 234317, Note_on_c, 0, 58, 52
1, 234345, Note_on_c, 9, 36, 9
1, 234369, Note_on_c, 0, 72, 70
1, 234375, Note_on_c, 9, 59, 0
1, 234385, Note_on_c, 0, 62, 49
1, 234393, Note_on_c, 0, 65, 45
1, 234397, Note_on_c, 0, 58, 0
1, 234405, Note_on_c, 0, 60, 66
1, 234413, Note_on_c, 0, 69, 41
1, 234417, Note_on_c, 0, 62, 0
1, 234419, Note_on_c, 9, 36, 0
1, 234429, Note_on_c, 0, 65, 0
1, 234445, Note_on_c, 0, 72, 0
1, 234445, Note_on_c, 0, 69, 0
1, 234461, Note_on_c, 0, 60, 0
1, 234467, Note_on_c, 1, 46, 0
1, 234475, Note_on_c, 1, 45, 85
1, 234485, Note_on_c, 9, 59, 40
1, 234529, Note_on_c, 0, 76, 75
1, 234533, Note_on_c, 0, 65, 60
1, 234533, Note_on_c, 0, 64, 68
1, 234541, Note_on_c, 0, 69, 49
1, 234545, Note_on_c, 0, 72, 41
1, 234567, Note_on_c, 9, 59, 0
1, 234611, Note_on_c, 9, 53, 40
1, 234645, Note_on_c, 0, 65, 0
1, 234661, Note_on_c, 0, 69, 0
1, 234669, Note_on_c, 0, 76, 0
1, 234685, Note_on_c, 0, 72, 0
1, 234717, Note_on_c, 0, 64, 0
1, 234729, Note_on_c, 9, 53, 0
1, 234757, Note_on_c, 0, 67, 79
1, 234761, Note_on_c, 0, 79, 92
1, 234777, Note_on_c, 0, 72, 52
1, 234781, Note_on_c, 0, 69, 50
1, 234801, Note_on_c, 0, 78, 30
1, 234813, Note_on_c, 0, 69, 0
1, 234833, Note_on_c, 0, 72, 0
1, 234833, Note_on_c, 9, 44, 42
1, 234841, Note_on_c, 0, 78, 0
1, 234853, Note_on_c, 1, 45, 0
1, 234853, Note_on_c, 0, 79, 0
1, 234857, Note_on_c, 0, 67, 0
1, 234863, Note_on_c, 1, 42, 93
1, 234897, Note_on_c, 0, 65, 70
1, 234919, Note_on_c, 9, 53, 20
1, 234921, Note_on_c, 0, 69, 37
1, 234945, Note_on_c, 0, 72, 29
1, 234949, Note_on_c, 0, 75, 47
1, 234949, Note_on_c, 0, 79, 31
1, 234963, Note_on_c, 9, 44, 0
1, 234989, Note_on_c, 0, 75, 0
1, 235017, Note_on_c, 0, 77, 14
1, 235037, Note_on_c, 0, 79, 0
1, 235037, Note_on_c, 0, 72, 0
1, 235069, Note_on_c, 0, 65, 0
1, 235073, Note_on_c, 0, 77, 0
1, 235081, Note_on_c, 0, 61, 41
1, 235089, Note_on_c, 0, 69, 0
1, 235117, Note_on_c, 0, 61, 0
1, 235117, Note_on_c, 9, 53, 0
1, 235129, Note_on_c, 9, 59, 56
1, 235165, Note_on_c, 0, 70, 78
1, 235189, Note_on_c, 0, 67, 52
1, 235197, Note_on_c, 0, 74, 50
1, 235209, Note_on_c, 0, 60, 54
1, 235213, Note_on_c, 0, 73, 33
1, 235229, Note_on_c, 0, 67, 0
1, 235251, Note_on_c, 1, 42, 0
1, 235261, Note_on_c, 1, 43, 88
1, 235273, Note_on_c, 0, 73, 0
1, 235277, Note_on_c, 0, 74, 0
1, 235285, Note_on_c, 0, 70, 0
1, 235329, Note_on_c, 0, 60, 0
1, 235377, Note_on_c, 0, 77, 78
1, 235381, Note_on_c, 0, 65, 72
1, 235381, Note_on_c, 0, 74, 63
1, 235381, Note_on_c, 0, 70, 62
1, 235385, Note_on_c, 0, 67, 60
1, 235485, Note_on_c, 9, 59, 0
1, 235529, Note_on_c, 9, 59, 40
1, 235537, Note_on_c, 0, 74, 0
1, 235583, Note_on_c, 9, 59, 0
1, 235593, Note_on_c, 0, 67, 0
1, 235597, Note_on_c, 0, 70, 0
1, 235605, Note_on_c, 0, 65, 0
1, 235613, Note_on_c, 0, 77, 0
1, 235623, Note_on_c, 9, 44, 34
1, 235627, Note_on_c, 1, 43, 0
1, 235637, Note_on_c, 1, 37, 90
1, 235647, Note_on_c, 9, 59, 58
1, 235669, Note_on_c, 0, 70, 58
1, 235669, Note_on_c, 0, 67, 52
1, 235673, Note_on_c, 0, 62, 62
1, 235701, Note_on_c, 0, 74, 42
1, 235757, Note_on_c, 0, 74, 0
1, 235781, Note_on_c, 9, 44, 0
1, 235821, Note_on_c, 0, 67, 0
1, 235833, Note_on_c, 0, 70, 0
1, 235901, Note_on_c, 9, 38, 14
1, 235933, Note_on_c, 0, 76, 79
1, 235937, Note_on_c, 0, 70, 74
1, 235941, Note_on_c, 0, 67, 66
1, 235945, Note_on_c, 0, 62, 0
1, 235945, Note_on_c, 0, 64, 68
1, 235947, Note_on_c, 9, 38, 0
1, 235949, Note_on_c, 9, 59, 0
1, 236011, Note_on_c, 9, 59, 47
1, 236017, Note_on_c, 1, 37, 0
1, 236025, Note_on_c, 1, 36, 80
1, 236041, Control_c, 0, 64, 127
1, 236117, Control_c, 0, 64, 0
1, 236129, Note_on_c, 0, 67, 0
1, 236173, Note_on_c, 0, 70, 0
1, 236201, Note_on_c, 0, 76, 0
1, 236221, Control_c, 0, 64, 127
1, 236261, Note_on_c, 9, 38, 14
1, 236273, Note_on_c, 9, 53, 42
1, 236283, Note_on_c, 9, 59, 0
1, 236321, Note_on_c, 0, 64, 0
1, 236325, Note_on_c, 0, 60, 45
1, 236325, Note_on_c, 9, 38, 0
1, 236357, Note_on_c, 0, 60, 0
1, 236357, Control_c, 0, 64, 0
1, 236363, Note_on_c, 9, 53, 0
1, 236393, Note_on_c, 9, 46, 36
1, 236409, Note_on_c, 9, 59, 22
1, 236409, Note_on_c, 1, 35, 92
1, 236411, Note_on_c, 1, 36, 0
1, 236581, Note_on_c, 9, 59, 0
1, 236591, Note_on_c, 9, 46, 0
1, 236593, Control_c, 0, 64, 127
1, 236633, Note_on_c, 9, 38, 11
1, 236653, Control_c, 0, 64, 0
1, 236671, Note_on_c, 9, 53, 35
1, 236681, Note_on_c, 0, 72, 79
1, 236681, Note_on_c, 0, 67, 72
1, 236693, Note_on_c, 0, 58, 46
1, 236697, Note_on_c, 0, 63, 54
1, 236697, Note_on_c, 0, 62, 58
1, 236717, Note_on_c, 9, 38, 0
1, 236727, Note_on_c, 9, 53, 0
1, 236777, Note_on_c, 9, 59, 39
1, 236787, Note_on_c, 1, 35, 0
1, 236789, Note_on_c, 1, 36, 81
1, 236933, Note_on_c, 0, 72, 0
1, 236977, Note_on_c, 0, 74, 74
1, 237065, Note_on_c, 0, 74, 0
1, 237065, Note_on_c, 9, 59, 0
1, 237077, Note_on_c, 0, 67, 0
1, 237097, Note_on_c, 0, 75, 72
1, 237125, Note_on_c, 0, 75, 0
1, 237129, Note_on_c, 1, 34, 52
1, 237143, Note_on_c, 9, 44, 35
1, 237145, Note_on_c, 9, 59, 35
1, 237177, Note_on_c, 1, 36, 0
1, 237177, Note_on_c, 1, 42, 91
1, 237219, Note_on_c, 1, 34, 0
1, 237241, Note_on_c, 0, 79, 57
1, 237253, Note_on_c, 0, 62, 0
1, 237277, Note_on_c, 0, 63, 0
1, 237277, Note_on_c, 0, 79, 0
1, 237295, Note_on_c, 9, 44, 0
1, 237373, Note_on_c, 0, 82, 54
1, 237381, Note_on_c, 9, 59, 0
1, 237445, Note_on_c, 0, 82, 0
1, 237453, Note_on_c, 0, 58, 0
1, 237453, Note_on_c, 9, 59, 50
1, 237457, Note_on_c, 0, 83, 66
1, 237505, Note_on_c, 9, 59, 0
1, 237541, Note_on_c, 0, 83, 0
1, 237561, Note_on_c, 1, 41, 89
1, 237567, Note_on_c, 1, 42, 0
1, 237567, Note_on_c, 9, 59, 50
1, 237585, Note_on_c, 0, 56, 52
1, 237597, Note_on_c, 0, 86, 117
1, 237613, Note_on_c, 0, 56, 0
1, 237629, Note_on_c, 0, 67, 30
1, 237633, Note_on_c, 0, 63, 48
1, 237645, Note_on_c, 0, 57, 39
1, 237813, Note_on_c, 0, 86, 0
1, 237829, Note_on_c, 0, 63, 0
1, 237841, Note_on_c, 0, 83, 86
1, 237853, Note_on_c, 0, 67, 0
1, 237867, Note_on_c, 9, 59, 0
1, 237907, Note_on_c, 9, 44, 40
1, 237925, Note_on_c, 0, 63, 33
1, 237933, Note_on_c, 1, 29, 81
1, 237935, Note_on_c, 1, 41, 0
1, 237937, Note_on_c, 0, 83, 0
1, 237947, Note_on_c, 9, 59, 52
1, 238001, Note_on_c, 0, 84, 85
1, 238037, Note_on_c, 0, 57, 0
1, 238041, Note_on_c, 0, 63, 0
1, 238045, Note_on_c, 9, 44, 0
1, 238125, Note_on_c, 0, 84, 0
1, 238169, Note_on_c, 9, 59, 0
1, 238213, Note_on_c, 0, 81, 82
1, 238229, Note_on_c, 0, 62, 48
1, 238233, Note_on_c, 0, 60, 49
1, 238237, Note_on_c, 0, 65, 41
1, 238237, Note_on_c, 0, 55, 42
1, 238237, Note_on_c, 9, 59, 32
1, 238285, Note_on_c, 0, 65, 0
1, 238301, Note_on_c, 9, 59, 0
1, 238311, Note_on_c, 1, 29, 0
1, 238313, Note_on_c, 1, 34, 82
1, 238321, Note_on_c, 0, 81, 0
1, 238341, Note_on_c, 9, 59, 33
1, 238365, Note_on_c, 0, 62, 0
1, 238385, Note_on_c, 0, 60, 0
1, 238393, Note_on_c, 0, 55, 0
1, 238397, Note_on_c, 0, 77, 42
1, 238609, Note_on_c, 0, 74, 74
1, 238613, Note_on_c, 0, 77, 0
1, 238613, Note_on_c, 9, 59, 0
1, 238617, Note_on_c, 0, 62, 51
1, 238621, Note_on_c, 0, 65, 46
1, 238629, Note_on_c, 0, 60, 55
1, 238653, Note_on_c, 0, 65, 0
1, 238705, Note_on_c, 0, 74, 0
1, 238705, Note_on_c, 9, 44, 40
1, 238707, Note_on_c, 9, 59, 55
1, 238707, Note_on_c, 1, 41, 91
1, 238713, Note_on_c, 0, 62, 0
1, 238723, Note_on_c, 1, 34, 0
1, 238769, Note_on_c, 0, 70, 58
1, 238805, Note_on_c, 0, 60, 0
1, 238895, Note_on_c, 9, 44, 0
1, 238983, Note_on_c, 9, 59, 0
1, 238993, Note_on_c, 0, 70, 0
1, 239005, Note_on_c, 0, 69, 52
1, 239029, Note_on_c, 0, 61, 50
1, 239033, Note_on_c, 0, 65, 24
1, 239041, Note_on_c, 0, 69, 0
1, 239065, Note_on_c, 0, 65, 0
1, 239069, Note_on_c, 0, 55, 26
1, 239089, Note_on_c, 1, 39, 86
1, 239101, Note_on_c, 9, 59, 52
1, 239101, Note_on_c, 1, 41, 0
1, 239125, Note_on_c, 0, 72, 80
1, 239141, Note_on_c, 0, 61, 0
1, 239193, Note_on_c, 0, 55, 0
1, 239285, Note_on_c, 0, 72, 0
1, 239343, Note_on_c, 9, 38, 7
1, 239357, Note_on_c, 0, 70, 84
1, 239361, Note_on_c, 9, 59, 0
1, 239367, Note_on_c, 9, 53, 38
1, 239381, Note_on_c, 0, 61, 61
1, 239389, Note_on_c, 0, 55, 51
1, 239431, Note_on_c, 9, 53, 0
1, 239439, Note_on_c, 9, 38, 0
1, 239457, Note_on_c, 0, 61, 0
1, 239465, Note_on_c, 0, 70, 0
1, 239481, Note_on_c, 0, 55, 0
1, 239481, Note_on_c, 9, 59, 38
1, 239495, Note_on_c, 9, 44, 47
1, 239513, Note_on_c, 0, 69, 57
1, 239633, Note_on_c, 0, 69, 0
1, 239647, Note_on_c, 9, 44, 0
1, 239703, Note_on_c, 9, 38, 17
1, 239723, Note_on_c, 1, 46, 94
1, 239729, Note_on_c, 0, 65, 57
1, 239733, Note_on_c, 9, 59, 0
1, 239737, Note_on_c, 0, 52, 50
1, 239813, Note_on_c, 9, 38, 0
1, 239829, Note_on_c, 0, 65, 0
1, 239845, Note_on_c, 1, 39, 0
1, 239847, Note_on_c, 9, 59, 52
1, 239849, Note_on_c, 1, 46, 0
1, 239849, Note_on_c, 0, 52, 0
1, 239869, Note_on_c, 0, 61, 63
1, 239875, Note_on_c, 1, 45, 86
1, 239885, Note_on_c, 0, 55, 32
1, 239989, Note_on_c, 0, 61, 0
1, 240013, Note_on_c, 0, 60, 46
1, 240095, Note_on_c, 9, 36, 17
1, 240115, Note_on_c, 9, 59, 0
1, 240145, Note_on_c, 0, 60, 0
1, 240177, Note_on_c, 0, 45, 33
1, 240185, Note_on_c, 9, 36, 0
1, 240213, Note_on_c, 0, 55, 0
1, 240229, Note_on_c, 9, 36, 9
1, 240233, Note_on_c, 9, 59, 52
1, 240239, Note_on_c, 9, 44, 38
1, 240241, Note_on_c, 1, 45, 0
1, 240245, Note_on_c, 0, 45, 0
1, 240253, Note_on_c, 0, 60, 75
1, 240257, Note_on_c, 1, 40, 76
1, 240403, Note_on_c, 9, 44, 0
1, 240441, Note_on_c, 0, 45, 1
1, 240475, Note_on_c, 9, 36, 0
1, 240503, Note_on_c, 9, 59, 0
1, 240509, Note_on_c, 0, 60, 0
1, 240509, Note_on_c, 0, 45, 0
1, 240513, Note_on_c, 0, 48, 48
1, 240599, Note_on_c, 1, 40, 0
1, 240601, Note_on_c, 0, 48, 0
1, 240619, Note_on_c, 9, 36, 15
1, 240625, Note_on_c, 0, 49, 33
1, 240627, Note_on_c, 1, 38, 75
1, 240633, Note_on_c, 0, 50, 53
1, 240633, Note_on_c, 9, 59, 55
1, 240649, Note_on_c, 0, 57, 63
1, 240653, Note_on_c, 0, 65, 57
1, 240657, Note_on_c, 0, 60, 58
1, 240681, Note_on_c, 0, 49, 0
1, 240821, Note_on_c, 0, 65, 0
1, 240853, Note_on_c, 0, 50, 0
1, 240861, Note_on_c, 0, 57, 0
1, 240873, Note_on_c, 0, 60, 0
1, 240883, Note_on_c, 9, 59, 0
1, 240901, Note_on_c, 9, 36, 0
1, 240913, Note_on_c, 0, 65, 61
1, 240925, Note_on_c, 0, 50, 60
1, 240925, Note_on_c, 0, 60, 54
1, 240929, Note_on_c, 0, 57, 66
1, 240965, Note_on_c, 0, 57, 0
1, 241001, Note_on_c, 0, 60, 0
1, 241001, Note_on_c, 9, 44, 42
1, 241009, Note_on_c, 0, 65, 0
1, 241015, Note_on_c, 0, 50, 0
1, 241015, Note_on_c, 1, 36, 83
1, 241025, Note_on_c, 9, 59, 53
1, 241053, Note_on_c, 1, 38, 0
1, 241171, Note_on_c, 9, 44, 0
1, 241237, Note_on_c, 9, 59, 0
1, 241279, Note_on_c, 9, 36, 11
1, 241301, Note_on_c, 0, 47, 79
1, 241301, Note_on_c, 0, 69, 84
1, 241303, Note_on_c, 0, 62, 87
1, 241303, Note_on_c, 9, 59, 45
1, 241309, Note_on_c, 0, 57, 96
1, 241313, Note_on_c, 0, 65, 73
1, 241367, Note_on_c, 9, 36, 0
1, 241373, Note_on_c, 9, 59, 0
1, 241403, Note_on_c, 1, 36, 0
1, 241407, Note_on_c, 1, 35, 93
1, 241413, Note_on_c, 0, 57, 0
1, 241419, Note_on_c, 9, 36, 4
1, 241423, Note_on_c, 9, 59, 47
1, 241445, Note_on_c, 0, 69, 0
1, 241445, Note_on_c, 0, 62, 0
1, 241449, Note_on_c, 0, 47, 0
1, 241457, Note_on_c, 0, 65, 0
1, 241659, Note_on_c, 9, 36, 0
1, 241679, Note_on_c, 9, 59, 0
1, 241689, Note_on_c, 0, 47, 84
1, 241701, Note_on_c, 0, 69, 83
1, 241705, Note_on_c, 0, 62, 85
1, 241705, Note_on_c, 0, 57, 96
1, 241709, Note_on_c, 0, 65, 68
1, 241781, Note_on_c, 9, 44, 42
1, 241785, Note_on_c, 0, 57, 0
1, 241791, Note_on_c, 9, 59, 59
1, 241801, Note_on_c, 1, 47, 111
1, 241817, Note_on_c, 0, 62, 0
1, 241829, Note_on_c, 0, 47, 0
1, 241829, Note_on_c, 0, 65, 0
1, 241837, Note_on_c, 0, 69, 0
1, 241851, Note_on_c, 1, 35, 0
1, 241961, Note_on_c, 9, 44, 0
1, 242029, Note_on_c, 9, 59, 0
1, 242069, Note_on_c, 0, 46, 77
1, 242071, Note_on_c, 9, 36, 8
1, 242077, Note_on_c, 0, 72, 88
1, 242077, Note_on_c, 0, 61, 90
1, 242081, Note_on_c, 0, 56, 84
1, 242083, Note_on_c, 0, 65, 65
1, 242083, Note_on_c, 9, 59, 44
1, 242093, Note_on_c, 0, 64, 74
1, 242097, Note_on_c, 0, 68, 56
1, 242103, Note_on_c, 1, 35, 43
1, 242125, Note_on_c, 0, 64, 0
1, 242129, Note_on_c, 0, 68, 0
1, 242155, Note_on_c, 9, 59, 0
1, 242165, Note_on_c, 1, 35, 0
1, 242181, Note_on_c, 1, 47, 0
1, 242199, Note_on_c, 1, 46, 95
1, 242203, Note_on_c, 9, 59, 61
1, 242213, Note_on_c, 0, 61, 0
1, 242213, Note_on_c, 0, 72, 0
1, 242217, Note_on_c, 0, 56, 0
1, 242229, Note_on_c, 0, 65, 0
1, 242241, Note_on_c, 0, 46, 0
1, 242277, Note_on_c, 0, 46, 56
1, 242281, Note_on_c, 0, 72, 76
1, 242281, Note_on_c, 0, 56, 68
1, 242293, Note_on_c, 0, 61, 67
1, 242293, Note_on_c, 0, 65, 76
1, 242457, Note_on_c, 9, 36, 0
1, 242461, Note_on_c, 0, 72, 0
1, 242471, Note_on_c, 9, 59, 0
1, 242473, Note_on_c, 0, 46, 0
1, 242493, Note_on_c, 0, 56, 0
1, 242497, Note_on_c, 0, 61, 0
1, 242501, Note_on_c, 0, 65, 0
1, 242557, Note_on_c, 1, 46, 0
1, 242571, Note_on_c, 1, 34, 82
1, 242575, Note_on_c, 9, 44, 40
1, 242581, Note_on_c, 9, 59, 60
1, 242593, Note_on_c, 0, 61, 65
1, 242597, Note_on_c, 0, 46, 72
1, 242601, Note_on_c, 0, 56, 55
1, 242601, Note_on_c, 0, 70, 72
1, 242733, Note_on_c, 9, 44, 0
1, 242741, Control_c, 0, 64, 127
1, 242749, Note_on_c, 0, 56, 0
1, 242753, Control_c, 0, 64, 0
1, 242765, Note_on_c, 0, 61, 0
1, 242793, Note_on_c, 9, 59, 0
1, 242797, Note_on_c, 0, 46, 0
1, 242805, Note_on_c, 0, 70, 0
1, 242863, Note_on_c, 9, 59, 44
1, 242881, Note_on_c, 0, 45, 71
1, 242881, Note_on_c, 0, 64, 81
1, 242889, Note_on_c, 0, 55, 74
1, 242893, Note_on_c, 0, 60, 79
1, 242921, Note_on_c, 1, 34, 0
1, 242929, Note_on_c, 0, 66, 30
1, 242943, Note_on_c, 9, 59, 0
1, 242959, Note_on_c, 1, 33, 90
1, 242965, Note_on_c, 0, 66, 0
1, 242975, Note_on_c, 9, 59, 45
1, 242987, Note_on_c, 9, 36, 11
1, 243145, Note_on_c, 0, 64, 0
1, 243153, Note_on_c, 9, 36, 0
1, 243165, Note_on_c, 0, 60, 0
1, 243211, Note_on_c, 9, 59, 0
1, 243255, Note_on_c, 9, 38, 14
1, 243265, Note_on_c, 0, 55, 0
1, 243299, Note_on_c, 1, 33, 0
1, 243321, Note_on_c, 0, 49, 45
1, 243329, Note_on_c, 0, 45, 0
1, 243339, Note_on_c, 9, 59, 65
1, 243345, Note_on_c, 1, 33, 101
1, 243347, Note_on_c, 9, 46, 45
1, 243359, Note_on_c, 9, 38, 0
1, 243365, Note_on_c, 0, 49, 0
1, 243385, Note_on_c, 0, 51, 81
1, 243393, Note_on_c, 0, 69, 78
1, 243393, Note_on_c, 0, 64, 79
1, 243397, Note_on_c, 0, 60, 81
1, 243467, Note_on_c, 9, 46, 0
1, 243557, Note_on_c, 0, 69, 0
1, 243569, Note_on_c, 9, 59, 0
1, 243569, Note_on_c, 0, 64, 0
1, 243629, Note_on_c, 9, 59, 38
1, 243633, Note_on_c, 0, 60, 0
1, 243657, Note_on_c, 0, 49, 55
1, 243659, Note_on_c, 9, 38, 7
1, 243689, Note_on_c, 9, 59, 0
1, 243699, Note_on_c, 1, 33, 0
1, 243713, Note_on_c, 1, 38, 100
1, 243733, Note_on_c, 0, 51, 0
1, 243741, Note_on_c, 9, 59, 52
1, 243747, Note_on_c, 9, 38, 0
1, 243749, Note_on_c, 0, 49, 0
1, 243777, Note_on_c, 0, 65, 74
1, 243777, Note_on_c, 0, 50, 70
1, 243781, Note_on_c, 0, 60, 75
1, 243781, Note_on_c, 0, 57, 75
1, 243865, Note_on_c, 9, 38, 14
1, 243941, Control_c, 0, 64, 127
1, 244005, Note_on_c, 0, 57, 0
1, 244007, Note_on_c, 9, 38, 0
1, 244023, Note_on_c, 9, 59, 0
1, 244049, Note_on_c, 0, 38, 79
1, 244065, Note_on_c, 0, 60, 0
1, 244065, Note_on_c, 0, 65, 0
1, 244071, Note_on_c, 1, 38, 0
1, 244099, Note_on_c, 9, 44, 43
1, 244105, Note_on_c, 0, 50, 0
1, 244107, Note_on_c, 1, 38, 100
1, 244109, Note_on_c, 9, 38, 14
1, 244109, Note_on_c, 9, 59, 57
1, 244121, Note_on_c, 0, 38, 0
1, 244235, Note_on_c, 9, 44, 0
1, 244237, Note_on_c, 9, 38, 0
1, 244327, Note_on_c, 9, 59, 0
1, 244377, Note_on_c, 9, 36, 23
1, 244401, Note_on_c, 9, 59, 42
1, 244455, Note_on_c, 9, 59, 0
1, 244463, Note_on_c, 1, 38, 0
1, 244475, Note_on_c, 1, 31, 84
1, 244485, Control_c, 0, 64, 0
1, 244511, Note_on_c, 9, 59, 56
1, 244529, Note_on_c, 9, 36, 0
1, 244537, Note_on_c, 0, 53, 81
1, 244537, Note_on_c, 0, 62, 83
1, 244537, Note_on_c, 0, 84, 107
1, 244537, Note_on_c, 0, 58, 72
1, 244537, Note_on_c, 0, 72, 102
1, 244537, Note_on_c, 0, 57, 65
1, 244537, Note_on_c, 0, 79, 96
1, 244557, Note_on_c, 0, 56, 62
1, 244589, Note_on_c, 0, 56, 0
1, 244705, Note_on_c, 0, 72, 0
1, 244713, Note_on_c, 0, 53, 0
1, 244713, Note_on_c, 0, 84, 0
1, 244725, Note_on_c, 0, 62, 0
1, 244733, Control_c, 0, 64, 127
1, 244737, Note_on_c, 0, 79, 0
1, 244755, Note_on_c, 9, 59, 0
1, 244757, Note_on_c, 0, 57, 0
1, 244761, Note_on_c, 0, 58, 0
1, 244797, Note_on_c, 1, 31, 0
1, 244801, Note_on_c, 0, 62, 77
1, 244801, Note_on_c, 0, 57, 41
1, 244801, Control_c, 0, 64, 0
1, 244801, Note_on_c, 0, 53, 59
1, 244809, Note_on_c, 0, 84, 76
1, 244809, Note_on_c, 0, 79, 81
1, 244813, Note_on_c, 0, 72, 75
1, 244817, Note_on_c, 0, 58, 72
1, 244861, Note_on_c, 1, 31, 71
1, 244869, Note_on_c, 9, 46, 37
1, 244877, Note_on_c, 0, 53, 0
1, 244881, Note_on_c, 0, 84, 0
1, 244881, Note_on_c, 0, 62, 0
1, 244881, Note_on_c, 9, 59, 65
1, 244893, Note_on_c, 0, 72, 0
1, 244913, Note_on_c, 0, 79, 0
1, 244913, Note_on_c, 0, 58, 0
1, 244941, Note_on_c, 0, 84, 57
1, 244949, Note_on_c, 0, 62, 60
1, 244949, Note_on_c, 0, 79, 54
1, 244949, Note_on_c, 0, 72, 40
1, 244949, Note_on_c, 0, 53, 57
1, 244969, Note_on_c, 0, 58, 49
1, 245045, Note_on_c, 0, 62, 0
1, 245053, Note_on_c, 0, 72, 0
1, 245065, Note_on_c, 0, 84, 0
1, 245081, Control_c, 0, 64, 127
1, 245085, Note_on_c, 0, 58, 0
1, 245085, Note_on_c, 0, 79, 0
1, 245091, Note_on_c, 9, 59, 0
1, 245101, Note_on_c, 0, 53, 0
1, 245103, Note_on_c, 9, 46, 0
1, 245129, Note_on_c, 0, 57, 0
1, 245173, Control_c, 0, 64, 0
1, 245177, Note_on_c, 9, 59, 37
1, 245213, Note_on_c, 0, 62, 75
1, 245213, Note_on_c, 9, 38, 9
1, 245217, Note_on_c, 0, 52, 75
1, 245217, Note_on_c, 0, 84, 90
1, 245219, Note_on_c, 9, 59, 0
1, 245221, Note_on_c, 0, 72, 87
1, 245221, Note_on_c, 0, 78, 86
1, 245229, Note_on_c, 1, 31, 0
1, 245229, Note_on_c, 0, 58, 77
1, 245237, Note_on_c, 0, 56, 49
1, 245241, Note_on_c, 1, 36, 97
1, 245251, Note_on_c, 9, 38, 0
1, 245265, Note_on_c, 0, 56, 0
1, 245275, Note_on_c, 9, 59, 61
1, 245361, Note_on_c, 0, 72, 0
1, 245389, Note_on_c, 0, 78, 0
1, 245401, Note_on_c, 0, 62, 0
1, 245425, Note_on_c, 0, 52, 0
1, 245425, Note_on_c, 0, 79, 31
1, 245449, Note_on_c, 0, 84, 0
1, 245461, Note_on_c, 0, 58, 0
1, 245465, Note_on_c, 0, 79, 0
1, 245539, Note_on_c, 9, 38, 12
1, 245559, Note_on_c, 9, 59, 0
1, 245565, Note_on_c, 0, 78, 87
1, 245565, Note_on_c, 0, 52, 81
1, 245565, Note_on_c, 0, 84, 86
1, 245569, Note_on_c, 0, 62, 84
1, 245569, Note_on_c, 0, 58, 80
1, 245569, Note_on_c, 0, 72, 75
1, 245577, Note_on_c, 9, 38, 0
1, 245583, Note_on_c, 1, 36, 0
1, 245597, Note_on_c, 0, 82, 46
1, 245623, Note_on_c, 9, 44, 46
1, 245629, Note_on_c, 1, 36, 100
1, 245633, Note_on_c, 0, 82, 0
1, 245645, Note_on_c, 9, 59, 58
1, 245677, Note_on_c, 0, 78, 0
1, 245677, Note_on_c, 0, 79, 60
1, 245677, Note_on_c, 0, 82, 27
1, 245721, Note_on_c, 0, 62, 0
1, 245749, Note_on_c, 0, 82, 0
1, 245755, Note_on_c, 9, 44, 0
1, 245777, Note_on_c, 0, 58, 0
1, 245785, Note_on_c, 0, 72, 0
1, 245813, Note_on_c, 0, 52, 0
1, 245813, Note_on_c, 0, 84, 0
1, 245821, Note_on_c, 0, 79, 0
1, 245829, Note_on_c, 1, 36, 0
1, 245847, Note_on_c, 9, 59, 0
1, 245899, Note_on_c, 9, 59, 70
1, 245919, Note_on_c, 9, 36, 23
1, 245981, Note_on_c, 9, 59, 0
1, 246007, Note_on_c, 9, 36, 0
1, 246087, Note_on_c, 9, 36, 12
1, 246165, Note_on_c, 9, 36, 0
1, 246263, Note_on_c, 9, 59, 62
1, 246277, Note_on_c, 1, 41, 111
1, 246305, Note_on_c, 0, 65, 46
1, 246313, Note_on_c, 0, 60, 52
1, 246313, Note_on_c, 0, 48, 46
1, 246321, Note_on_c, 0, 41, 45
1, 246329, Note_on_c, 9, 59, 0
1, 246365, Note_on_c, 0, 65, 0
1, 246381, Note_on_c, 0, 48, 0
1, 246383, Note_on_c, 1, 41, 0
1, 246387, Note_on_c, 9, 44, 46
1, 246401, Note_on_c, 0, 41, 0
1, 246409, Note_on_c, 0, 60, 0
1, 246475, Note_on_c, 9, 44, 0
1, 246813, Note_on_c, 9, 59, 48
1, 246815, Note_on_c, 1, 39, 111
1, 246837, Note_on_c, 0, 58, 52
1, 246841, Note_on_c, 0, 65, 45
1, 246845, Note_on_c, 0, 46, 41
1, 246849, Note_on_c, 0, 39, 39
1, 246873, Note_on_c, 0, 53, 28
1, 246939, Note_on_c, 9, 59, 0
1, 246993, Note_on_c, 0, 53, 0
1, 247009, Note_on_c, 0, 65, 0
1, 247017, Note_on_c, 0, 46, 0
1, 247021, Note_on_c, 0, 58, 0
1, 247037, Note_on_c, 0, 39, 0
1, 247157, Note_on_c, 9, 44, 35
1, 247237, Control_c, 0, 64, 127
1, 247255, Note_on_c, 9, 44, 0
1, 247393, Control_c, 0, 64, 0
1, 247393, Note_on_c, 9, 59, 40
1, 247399, Note_on_c, 1, 39, 0
1, 247417, Note_on_c, 1, 37, 103
1, 247437, Note_on_c, 0, 53, 52
1, 247453, Note_on_c, 0, 44, 48
1, 247457, Note_on_c, 0, 37, 43
1, 247521, Note_on_c, 0, 53, 0
1, 247609, Note_on_c, 0, 56, 63
1, 247653, Note_on_c, 0, 56, 0
1, 247845, Note_on_c, 0, 56, 71
1, 247917, Note_on_c, 0, 56, 0
1, 247927, Note_on_c, 9, 44, 25
1, 247997, Note_on_c, 0, 56, 53
1, 248047, Note_on_c, 9, 44, 0
1, 248129, Note_on_c, 0, 56, 0
1, 248233, Note_on_c, 0, 56, 66
1, 248309, Note_on_c, 0, 56, 0
1, 248377, Note_on_c, 0, 56, 57
1, 248561, Note_on_c, 0, 56, 0
1, 248583, Note_on_c, 1, 39, 91
1, 248607, Note_on_c, 1, 37, 0
1, 248613, Note_on_c, 0, 58, 64
1, 248629, Note_on_c, 9, 38, 21
1, 248685, Note_on_c, 1, 39, 0
1, 248701, Note_on_c, 9, 38, 0
1, 248709, Note_on_c, 0, 58, 0
1, 248729, Note_on_c, 0, 44, 0
1, 248735, Note_on_c, 1, 40, 86
1, 248773, Note_on_c, 0, 56, 52
1, 248797, Note_on_c, 0, 37, 0
1, 248865, Note_on_c, 1, 40, 0
1, 248951, Note_on_c, 9, 38, 17
1, 249001, Note_on_c, 0, 56, 0
1, 249013, Note_on_c, 0, 53, 66
1, 249073, Note_on_c, 9, 38, 0
1, 249113, Note_on_c, 0, 53, 0
1, 249127, Note_on_c, 9, 59, 0
1, 249181, Note_on_c, 0, 51, 38
1, 249325, Note_on_c, 9, 59, 36
1, 249329, Note_on_c, 1, 41, 111
1, 249339, Note_on_c, 9, 38, 18
1, 249377, Note_on_c, 0, 51, 0
1, 249385, Note_on_c, 9, 59, 0
1, 249397, Note_on_c, 0, 53, 63
1, 249431, Note_on_c, 9, 44, 35
1, 249437, Note_on_c, 1, 41, 0
1, 249443, Note_on_c, 9, 38, 0
1, 249469, Note_on_c, 0, 53, 0
1, 249483, Note_on_c, 9, 59, 14
1, 249507, Note_on_c, 9, 36, 8
1, 249525, Note_on_c, 9, 59, 0
1, 249555, Note_on_c, 9, 44, 0
1, 249689, Note_on_c, 9, 36, 0
1, 249851, Note_on_c, 9, 59, 53
1, 249865, Note_on_c, 1, 39, 102
1, 249901, Note_on_c, 0, 39, 57
1, 249903, Note_on_c, 9, 36, 15
1, 249913, Note_on_c, 0, 46, 46
1, 249953, Note_on_c, 9, 59, 0
1, 250057, Note_on_c, 0, 46, 0
1, 250093, Note_on_c, 0, 39, 0
1, 250111, Note_on_c, 9, 36, 0
1, 250125, Note_on_c, 9, 59, 32
1, 250165, Note_on_c, 1, 39, 0
1, 250171, Note_on_c, 9, 59, 0
1, 250223, Note_on_c, 9, 44, 35
1, 250351, Note_on_c, 9, 44, 0
1, 250467, Note_on_c, 9, 36, 20
1, 250477, Note_on_c, 1, 37, 103
1, 250497, Note_on_c, 9, 59, 59
1, 250505, Note_on_c, 0, 44, 57
1, 250505, Note_on_c, 0, 37, 54
1, 250569, Note_on_c, 9, 59, 0
1, 250757, Note_on_c, 9, 36, 0
1, 251021, Note_on_c, 0, 72, 69
1, 251021, Note_on_c, 0, 70, 27
1, 251029, Note_on_c, 0, 71, 32
1, 251057, Note_on_c, 0, 70, 0
1, 251069, Note_on_c, 0, 71, 0
1, 251101, Note_on_c, 0, 72, 0
1, 251289, Note_on_c, 0, 75, 81
1, 251373, Note_on_c, 0, 75, 0
1, 251541, Note_on_c, 0, 77, 117
1, 251615, Note_on_c, 1, 39, 79
1, 251633, Note_on_c, 9, 53, 28
1, 251679, Note_on_c, 9, 53, 0
1, 251699, Note_on_c, 1, 37, 0
1, 251711, Note_on_c, 1, 39, 0
1, 251761, Note_on_c, 1, 40, 76
1, 251769, Note_on_c, 0, 77, 0
1, 251771, Note_on_c, 9, 53, 27
1, 251773, Note_on_c, 0, 37, 0
1, 251777, Note_on_c, 0, 44, 0
1, 251817, Note_on_c, 0, 75, 79
1, 251829, Note_on_c, 9, 53, 0
1, 251857, Note_on_c, 0, 77, 36
1, 251901, Note_on_c, 0, 77, 0
1, 251947, Note_on_c, 1, 40, 0
1, 251957, Note_on_c, 9, 36, 12
1, 252017, Note_on_c, 0, 75, 0
1, 252019, Note_on_c, 9, 53, 27
1, 252067, Note_on_c, 9, 36, 0
1, 252069, Note_on_c, 0, 72, 75
1, 252073, Note_on_c, 0, 48, 45
1, 252079, Note_on_c, 9, 53, 0
1, 252085, Note_on_c, 0, 41, 40
1, 252127, Note_on_c, 9, 36, 20
1, 252165, Note_on_c, 0, 72, 0
1, 252201, Note_on_c, 0, 48, 0
1, 252237, Note_on_c, 9, 36, 0
1, 252265, Note_on_c, 0, 41, 0
1, 252309, Note_on_c, 0, 70, 57
1, 252337, Note_on_c, 0, 70, 0
1, 252375, Note_on_c, 1, 41, 90
1, 252379, Note_on_c, 1, 57, 98
1, 252383, Note_on_c, 9, 59, 37
1, 252393, Note_on_c, 9, 36, 20
1, 252423, Note_on_c, 9, 59, 0
1, 252487, Note_on_c, 9, 36, 0
1, 252491, Note_on_c, 9, 44, 34
1, 252501, Note_on_c, 0, 48, 33
1, 252509, Note_on_c, 1, 57, 0
1, 252541, Note_on_c, 1, 41, 0
1, 252545, Note_on_c, 0, 48, 0
1, 252569, Note_on_c, 0, 65, 58
1, 252623, Note_on_c, 9, 44, 0
1, 252745, Note_on_c, 0, 65, 0
1, 252805, Note_on_c, 0, 63, 57
1, 252893, Note_on_c, 0, 63, 0
1, 252937, Note_on_c, 0, 39, 47
1, 252941, Note_on_c, 9, 59, 49
1, 252945, Note_on_c, 0, 65, 60
1, 252945, Note_on_c, 0, 46, 43
1, 252953, Note_on_c, 1, 39, 74
1, 252957, Note_on_c, 9, 36, 3
1, 252963, Note_on_c, 1, 55, 53
1, 253005, Note_on_c, 9, 59, 0
1, 253069, Note_on_c, 9, 36, 0
1, 253129, Note_on_c, 1, 55, 0
1, 253145, Note_on_c, 1, 39, 0
1, 253293, Note_on_c, 0, 46, 0
1, 253295, Note_on_c, 9, 46, 32
1, 253345, Note_on_c, 0, 39, 0
1, 253389, Note_on_c, 9, 46, 0
1, 253551, Note_on_c, 1, 37, 66
1, 253553, Note_on_c, 9, 59, 48
1, 253563, Note_on_c, 1, 53, 50
1, 253569, Note_on_c, 0, 37, 52
1, 253577, Note_on_c, 0, 44, 54
1, 253633, Note_on_c, 0, 65, 0
1, 253939, Note_on_c, 9, 38, 15
1, 253987, Note_on_c, 9, 38, 0
1, 254031, Note_on_c, 9, 44, 35
1, 254217, Note_on_c, 9, 44, 0
1, 254449, Note_on_c, 9, 38, 14
1, 254565, Note_on_c, 9, 38, 0
1, 254681, Note_on_c, 0, 77, 87
1, 254693, Note_on_c, 1, 39, 63
1, 254721, Note_on_c, 1, 37, 0
1, 254761, Note_on_c, 0, 77, 0
1, 254801, Note_on_c, 1, 39, 0
1, 254853, Note_on_c, 1, 40, 67
1, 254859, Note_on_c, 9, 59, 0
1, 254933, Note_on_c, 0, 75, 43
1, 254937, Note_on_c, 0, 44, 0
1, 254973, Note_on_c, 0, 37, 0
1, 254977, Note_on_c, 0, 75, 0
1, 255049, Note_on_c, 1, 53, 0
1, 255053, Note_on_c, 9, 38, 11
1, 255073, Note_on_c, 9, 59, 18
1, 255099, Note_on_c, 1, 40, 0
1, 255105, Note_on_c, 0, 72, 61
1, 255111, Note_on_c, 9, 38, 0
1, 255113, Note_on_c, 1, 41, 75
1, 255145, Note_on_c, 9, 59, 0
1, 255153, Note_on_c, 1, 41, 0
1, 255153, Note_on_c, 0, 72, 0
1, 255231, Note_on_c, 9, 36, 9
1, 255257, Note_on_c, 0, 77, 83
1, 255327, Note_on_c, 9, 36, 0
1, 255365, Note_on_c, 0, 77, 0
1, 255459, Note_on_c, 1, 57, 99
1, 255479, Note_on_c, 9, 38, 14
1, 255481, Note_on_c, 1, 41, 96
1, 255487, Note_on_c, 9, 53, 29
1, 255493, Note_on_c, 0, 41, 56
1, 255497, Note_on_c, 0, 75, 68
1, 255497, Note_on_c, 0, 48, 49
1, 255519, Note_on_c, 9, 38, 0
1, 255519, Note_on_c, 1, 57, 0
1, 255525, Note_on_c, 0, 41, 0
1, 255527, Note_on_c, 9, 53, 0
1, 255533, Note_on_c, 0, 48, 0
1, 255541, Note_on_c, 0, 75, 0
1, 255553, Note_on_c, 1, 41, 0
1, 255587, Note_on_c, 9, 44, 37
1, 255619, Note_on_c, 9, 59, 48
1, 255677, Note_on_c, 9, 44, 0
1, 255701, Note_on_c, 9, 59, 0
1, 255991, Note_on_c, 9, 38, 12
1, 256003, Note_on_c, 1, 55, 59
1, 256005, Note_on_c, 0, 39, 60
1, 256007, Note_on_c, 1, 39, 72
1, 256013, Note_on_c, 0, 46, 57
1, 256017, Note_on_c, 9, 59, 55
1, 256055, Note_on_c, 9, 38, 0
1, 256101, Note_on_c, 1, 55, 0
1, 256107, Note_on_c, 1, 39, 0
1, 256137, Note_on_c, 9, 59, 0
1, 256189, Note_on_c, 0, 46, 0
1, 256237, Note_on_c, 0, 39, 0
1, 256369, Note_on_c, 9, 44, 34
1, 256439, Note_on_c, 9, 44, 0
1, 256625, Note_on_c, 1, 37, 61
1, 256631, Note_on_c, 1, 53, 48
1, 256631, Note_on_c, 9, 59, 58
1, 256637, Note_on_c, 9, 57, 2
1, 256645, Note_on_c, 0, 60, 58
1, 256645, Note_on_c, 0, 65, 47
1, 256645, Note_on_c, 9, 36, 13
1, 256649, Note_on_c, 0, 53, 41
1, 256657, Note_on_c, 0, 44, 48
1, 256661, Note_on_c, 0, 37, 43
1, 256677, Control_c, 0, 64, 127
1, 256695, Note_on_c, 9, 46, 30
1, 256873, Note_on_c, 0, 53, 0
1, 256913, Note_on_c, 0, 65, 0
1, 256953, Note_on_c, 0, 60, 0
1, 257029, Note_on_c, 0, 53, 43
1, 257101, Note_on_c, 0, 53, 0
1, 257149, Note_on_c, 0, 56, 45
1, 257161, Note_on_c, 9, 46, 0
1, 257233, Note_on_c, 0, 56, 0
1, 257265, Note_on_c, 0, 58, 50
1, 257293, Note_on_c, 0, 58, 0
1, 257369, Note_on_c, 0, 60, 63
1, 257433, Note_on_c, 0, 60, 0
1, 257485, Note_on_c, 0, 61, 57
1, 257573, Note_on_c, 0, 61, 0
1, 257601, Note_on_c, 0, 63, 49
1, 257641, Note_on_c, 0, 63, 0
1, 257709, Note_on_c, 9, 57, 0
1, 257721, Note_on_c, 0, 65, 49
1, 257801, Note_on_c, 0, 65, 0
1, 257829, Note_on_c, 0, 67, 42
1, 257901, Note_on_c, 0, 68, 42
1, 257905, Note_on_c, 0, 67, 0
1, 257981, Note_on_c, 0, 70, 61
1, 257985, Note_on_c, 0, 68, 0
1, 258013, Note_on_c, 0, 70, 0
1, 258081, Note_on_c, 0, 72, 63
1, 258121, Note_on_c, 0, 72, 0
1, 258145, Note_on_c, 0, 73, 66
1, 258213, Note_on_c, 0, 75, 72
1, 258229, Note_on_c, 0, 73, 0
1, 258245, Note_on_c, 0, 75, 0
1, 258253, Note_on_c, 9, 36, 0
1, 258301, Note_on_c, 0, 77, 81
1, 258385, Note_on_c, 0, 79, 78
1, 258397, Note_on_c, 0, 77, 0
1, 258433, Note_on_c, 0, 80, 66
1, 258481, Note_on_c, 0, 79, 0
1, 258505, Note_on_c, 0, 82, 71
1, 258521, Note_on_c, 0, 80, 0
1, 258541, Note_on_c, 0, 82, 0
1, 258593, Note_on_c, 0, 84, 81
1, 258665, Note_on_c, 0, 85, 81
1, 258673, Note_on_c, 0, 84, 0
1, 258745, Note_on_c, 0, 87, 81
1, 258769, Note_on_c, 0, 85, 0
1, 258809, Note_on_c, 0, 87, 0
1, 258841, Note_on_c, 0, 89, 77
1, 258929, Note_on_c, 0, 91, 80
1, 258969, Note_on_c, 0, 89, 0
1, 259021, Note_on_c, 0, 92, 75
1, 259041, Note_on_c, 0, 91, 0
1, 259081, Note_on_c, 0, 94, 70
1, 259101, Note_on_c, 0, 92, 0
1, 259145, Note_on_c, 0, 94, 0
1, 259193, Note_on_c, 0, 96, 80
1, 259289, Note_on_c, 0, 97, 78
1, 259297, Note_on_c, 0, 96, 0
1, 259381, Note_on_c, 0, 99, 75
1, 259397, Note_on_c, 0, 97, 0
1, 259441, Note_on_c, 0, 99, 0
1, 259505, Note_on_c, 0, 101, 77
1, 259625, Note_on_c, 0, 103, 70
1, 259637, Note_on_c, 0, 101, 0
1, 259745, Note_on_c, 0, 104, 73
1, 259781, Note_on_c, 0, 103, 0
1, 259893, Note_on_c, 0, 104, 0
1, 259909, Note_on_c, 0, 106, 82
1, 260159, Note_on_c, 1, 53, 0
1, 260297, Note_on_c, 9, 59, 0
1, 260417, Note_on_c, 1, 37, 0
1, 261257, Note_on_c, 0, 106, 0
1, 261497, Note_on_c, 0, 44, 0
1, 261537, Note_on_c, 0, 37, 0
1, 262581, Control_c, 0, 64, 0
1, 262581, End_track
0, 0, End_of_file
