0, 0, Header, 0, 1, 384
1, 0, Start_track
1, 0, Title_t, "InASentimentalMood"
1, 0, Title_t, "Track 1"
1, 0, Text_t, "dougmck@pipeline.com.au             \012"
1, 0, Text_t, "Track 2\012"
1, 0, Text_t, "Track 3\012"
1, 0, Text_t, "Track 4\012"
1, 0, Text_t, "Track 5\012"
1, 0, Text_t, "Track 6\012"
1, 0, Text_t, "Track 7\012"
1, 0, System_exclusive, 5, 126, 127, 9, 1, 247
1, 0, Time_signature, 4, 2, 24, 8
1, 0, Key_signature, -1, "major"
1, 0, Tempo, 1034483
1, 0, Sequencer_specific, 21, 67, 115, 10, 0, 5, 75, 90, 79, 79, 79, 79, 79, 79, 79, 90, 79, 79, 79, 79, 79, 79
1, 0, Sequencer_specific, 6, 67, 115, 10, 0, 4, 1
1, 0, Sequencer_specific, 9, 67, 123, 0, 88, 70, 48, 50, 0, 0
1, 384, Control_c, 0, 0, 121
1, 384, Control_c, 0, 32, 0
1, 384, Program_c, 0, 0
1, 385, Control_c, 0, 7, 124
1, 385, Control_c, 0, 10, 64
1, 385, Control_c, 0, 91, 0
1, 385, Control_c, 0, 93, 0
1, 386, Program_c, 1, 32
1, 387, Control_c, 1, 7, 88
1, 402, Program_c, 9, 32
1, 403, Control_c, 9, 7, 78
1, 1536, Note_on_c, 0, 49, 76
1, 1536, Note_on_c, 0, 37, 75
1, 1560, Control_c, 0, 64, 127
1, 1632, Note_on_c, 0, 37, 0
1, 1632, Note_on_c, 0, 49, 0
1, 1964, Control_c, 0, 64, 0
1, 1968, Note_on_c, 0, 72, 81
1, 1968, Note_on_c, 0, 77, 77
1, 1968, Note_on_c, 0, 84, 82
1, 1972, Note_on_c, 0, 80, 65
1, 1972, Note_on_c, 0, 60, 58
1, 1972, Note_on_c, 0, 53, 61
1, 1972, Note_on_c, 0, 63, 59
1, 1976, Note_on_c, 0, 58, 54
1, 2008, Control_c, 0, 64, 56
1, 2012, Control_c, 0, 64, 127
1, 2088, Note_on_c, 0, 72, 0
1, 2096, Note_on_c, 0, 84, 0
1, 2104, Note_on_c, 0, 53, 0
1, 2112, Note_on_c, 0, 63, 0
1, 2120, Note_on_c, 0, 80, 0
1, 2124, Note_on_c, 0, 58, 0
1, 2124, Note_on_c, 0, 60, 0
1, 2128, Note_on_c, 0, 77, 0
1, 2156, Note_on_c, 0, 82, 79
1, 2160, Note_on_c, 0, 60, 58
1, 2160, Note_on_c, 0, 77, 72
1, 2160, Note_on_c, 0, 70, 72
1, 2164, Note_on_c, 0, 58, 46
1, 2164, Note_on_c, 0, 63, 70
1, 2168, Note_on_c, 0, 53, 63
1, 2208, Note_on_c, 0, 70, 0
1, 2212, Note_on_c, 0, 53, 0
1, 2216, Note_on_c, 0, 82, 0
1, 2216, Note_on_c, 0, 63, 0
1, 2224, Note_on_c, 0, 77, 0
1, 2232, Note_on_c, 0, 58, 0
1, 2236, Note_on_c, 0, 60, 0
1, 2300, Note_on_c, 0, 63, 72
1, 2300, Note_on_c, 0, 84, 75
1, 2304, Note_on_c, 0, 60, 56
1, 2304, Note_on_c, 0, 80, 65
1, 2304, Note_on_c, 0, 77, 72
1, 2304, Note_on_c, 0, 72, 66
1, 2312, Note_on_c, 0, 58, 42
1, 2316, Note_on_c, 0, 60, 0
1, 2316, Note_on_c, 0, 53, 36
1, 2324, Note_on_c, 0, 63, 0
1, 2328, Note_on_c, 0, 58, 0
1, 2332, Note_on_c, 0, 72, 0
1, 2336, Note_on_c, 0, 53, 0
1, 2340, Note_on_c, 0, 77, 0
1, 2352, Note_on_c, 0, 80, 0
1, 2356, Note_on_c, 0, 84, 0
1, 2472, Control_c, 0, 64, 0
1, 2480, Note_on_c, 0, 34, 68
1, 2480, Note_on_c, 0, 87, 84
1, 2484, Note_on_c, 0, 46, 49
1, 2488, Note_on_c, 0, 80, 72
1, 2488, Note_on_c, 0, 75, 71
1, 2500, Note_on_c, 0, 80, 0
1, 2516, Control_c, 0, 64, 127
1, 2520, Note_on_c, 0, 34, 0
1, 2528, Note_on_c, 0, 80, 24
1, 2536, Note_on_c, 0, 46, 0
1, 2616, Note_on_c, 0, 75, 0
1, 2616, Note_on_c, 0, 87, 0
1, 2624, Note_on_c, 0, 80, 0
1, 2688, Note_on_c, 0, 80, 66
1, 2688, Note_on_c, 0, 85, 72
1, 2688, Note_on_c, 0, 65, 60
1, 2688, Note_on_c, 0, 56, 50
1, 2688, Note_on_c, 0, 73, 57
1, 2688, Note_on_c, 0, 61, 54
1, 2700, Note_on_c, 0, 60, 44
1, 2776, Note_on_c, 0, 60, 0
1, 2776, Note_on_c, 0, 80, 0
1, 2788, Note_on_c, 0, 85, 0
1, 2788, Note_on_c, 0, 65, 0
1, 2792, Note_on_c, 0, 61, 0
1, 2792, Note_on_c, 0, 73, 0
1, 2796, Note_on_c, 0, 56, 0
1, 2876, Note_on_c, 0, 84, 58
1, 2888, Note_on_c, 0, 72, 42
1, 2888, Note_on_c, 0, 65, 57
1, 2888, Note_on_c, 0, 79, 57
1, 2892, Note_on_c, 0, 61, 48
1, 2896, Note_on_c, 0, 56, 39
1, 2900, Note_on_c, 0, 60, 43
1, 2976, Note_on_c, 0, 61, 0
1, 3008, Note_on_c, 0, 65, 0
1, 3012, Note_on_c, 0, 56, 0
1, 3020, Note_on_c, 0, 79, 0
1, 3020, Note_on_c, 0, 60, 0
1, 3028, Note_on_c, 0, 84, 0
1, 3032, Note_on_c, 0, 72, 0
1, 3136, Note_on_c, 0, 82, 60
1, 3144, Note_on_c, 0, 65, 42
1, 3144, Note_on_c, 0, 70, 40
1, 3152, Note_on_c, 0, 61, 41
1, 3164, Note_on_c, 0, 65, 0
1, 3172, Note_on_c, 0, 61, 0
1, 3216, Note_on_c, 0, 82, 0
1, 3244, Note_on_c, 0, 70, 0
1, 3396, Note_on_c, 0, 27, 71
1, 3408, Control_c, 0, 64, 0
1, 3444, Control_c, 0, 64, 127
1, 3520, Note_on_c, 0, 27, 0
1, 3732, Note_on_c, 0, 63, 80
1, 3736, Note_on_c, 0, 77, 89
1, 3740, Note_on_c, 0, 65, 81
1, 3740, Note_on_c, 0, 70, 87
1, 3740, Note_on_c, 0, 73, 74
1, 3740, Note_on_c, 0, 66, 83
1, 3748, Control_c, 0, 64, 0
1, 3756, Note_on_c, 0, 63, 0
1, 3760, Note_on_c, 0, 64, 63
1, 3772, Note_on_c, 0, 64, 0
1, 3844, Control_c, 0, 64, 127
1, 3916, Note_on_c, 0, 77, 0
1, 3924, Note_on_c, 0, 66, 0
1, 3932, Note_on_c, 0, 70, 0
1, 3940, Control_c, 0, 64, 0
1, 3944, Note_on_c, 0, 73, 0
1, 3952, Note_on_c, 0, 66, 69
1, 3956, Note_on_c, 0, 70, 52
1, 3956, Note_on_c, 0, 75, 68
1, 3956, Note_on_c, 0, 63, 67
1, 3964, Note_on_c, 0, 73, 27
1, 3972, Note_on_c, 0, 65, 0
1, 4016, Control_c, 0, 64, 127
1, 4088, Note_on_c, 0, 73, 0
1, 4096, Note_on_c, 0, 66, 0
1, 4104, Note_on_c, 0, 70, 0
1, 4120, Note_on_c, 0, 75, 0
1, 4172, Note_on_c, 0, 65, 37
1, 4188, Note_on_c, 0, 65, 0
1, 4344, Control_c, 0, 64, 0
1, 4352, Note_on_c, 0, 66, 68
1, 4352, Note_on_c, 0, 77, 68
1, 4352, Note_on_c, 0, 70, 66
1, 4356, Note_on_c, 0, 63, 0
1, 4356, Note_on_c, 0, 62, 57
1, 4360, Note_on_c, 0, 73, 55
1, 4400, Control_c, 0, 64, 127
1, 4452, Note_on_c, 0, 77, 0
1, 4488, Note_on_c, 0, 73, 0
1, 4504, Note_on_c, 0, 70, 0
1, 4504, Note_on_c, 0, 66, 0
1, 4548, Control_c, 0, 64, 72
1, 4548, Control_c, 0, 64, 0
1, 4556, Note_on_c, 0, 78, 63
1, 4560, Note_on_c, 0, 62, 0
1, 4560, Note_on_c, 0, 70, 54
1, 4560, Note_on_c, 0, 66, 56
1, 4564, Note_on_c, 0, 61, 48
1, 4564, Note_on_c, 0, 73, 49
1, 4600, Control_c, 0, 64, 127
1, 4612, Note_on_c, 0, 66, 0
1, 4620, Note_on_c, 0, 73, 0
1, 4628, Note_on_c, 0, 70, 0
1, 4640, Note_on_c, 0, 78, 0
1, 4788, Note_on_c, 0, 68, 50
1, 4788, Note_on_c, 0, 80, 60
1, 4800, Note_on_c, 0, 72, 46
1, 4840, Note_on_c, 0, 72, 0
1, 4840, Note_on_c, 0, 80, 0
1, 4868, Note_on_c, 0, 68, 0
1, 4888, Note_on_c, 0, 61, 0
1, 5024, Control_c, 0, 64, 0
1, 5032, Note_on_c, 0, 77, 66
1, 5036, Note_on_c, 0, 66, 48
1, 5036, Note_on_c, 0, 54, 43
1, 5036, Note_on_c, 0, 60, 39
1, 5040, Note_on_c, 0, 69, 48
1, 5044, Note_on_c, 0, 64, 47
1, 5052, Note_on_c, 0, 72, 31
1, 5088, Control_c, 0, 64, 127
1, 5360, Note_on_c, 0, 64, 0
1, 5504, Note_on_c, 0, 77, 0
1, 5612, Note_on_c, 0, 60, 0
1, 5624, Note_on_c, 0, 72, 0
1, 5684, Note_on_c, 0, 75, 49
1, 5688, Note_on_c, 0, 69, 0
1, 5732, Note_on_c, 0, 54, 0
1, 5760, Note_on_c, 0, 66, 0
1, 5860, Note_on_c, 0, 75, 0
1, 5868, Control_c, 0, 64, 0
1, 5876, Note_on_c, 0, 56, 48
1, 5880, Note_on_c, 0, 68, 49
1, 5884, Note_on_c, 0, 65, 46
1, 5888, Note_on_c, 0, 63, 26
1, 5892, Note_on_c, 0, 53, 36
1, 5936, Control_c, 0, 64, 127
1, 6024, Note_on_c, 0, 65, 0
1, 6040, Note_on_c, 0, 63, 0
1, 6040, Note_on_c, 0, 68, 0
1, 6052, Note_on_c, 0, 60, 55
1, 6220, Note_on_c, 0, 63, 48
1, 6220, Note_on_c, 0, 68, 52
1, 6224, Note_on_c, 0, 72, 56
1, 6256, Note_on_c, 0, 53, 0
1, 6296, Note_on_c, 0, 63, 0
1, 6360, Note_on_c, 0, 56, 0
1, 6416, Note_on_c, 0, 60, 0
1, 6440, Note_on_c, 0, 53, 21
1, 6460, Note_on_c, 0, 80, 74
1, 6536, Note_on_c, 0, 53, 0
1, 6932, Note_on_c, 0, 72, 0
1, 6932, Control_c, 0, 64, 0
1, 6932, Note_on_c, 0, 22, 57
1, 6936, Note_on_c, 0, 68, 0
1, 6960, Note_on_c, 0, 80, 0
1, 6980, Control_c, 0, 64, 127
1, 7084, Note_on_c, 0, 22, 0
1, 7472, Note_on_c, 0, 79, 51
1, 7476, Note_on_c, 0, 71, 34
1, 7476, Note_on_c, 0, 70, 43
1, 7476, Note_on_c, 0, 68, 45
1, 7480, Note_on_c, 0, 74, 49
1, 7480, Note_on_c, 0, 76, 51
1, 7584, Note_on_c, 0, 70, 0
1, 7588, Note_on_c, 0, 68, 0
1, 7588, Note_on_c, 0, 79, 0
1, 7588, Note_on_c, 0, 71, 0
1, 7592, Note_on_c, 0, 74, 0
1, 7596, Note_on_c, 0, 76, 0
1, 7704, Note_on_c, 0, 70, 40
1, 7708, Note_on_c, 0, 76, 49
1, 7708, Note_on_c, 0, 68, 42
1, 7712, Note_on_c, 0, 74, 42
1, 7712, Note_on_c, 0, 71, 24
1, 7712, Note_on_c, 0, 79, 37
1, 7788, Note_on_c, 0, 70, 0
1, 7804, Note_on_c, 0, 68, 0
1, 7824, Note_on_c, 0, 74, 0
1, 7824, Note_on_c, 0, 76, 0
1, 7824, Note_on_c, 0, 71, 0
1, 7828, Note_on_c, 0, 79, 0
1, 7980, Note_on_c, 0, 70, 36
1, 7984, Note_on_c, 0, 79, 33
1, 7984, Note_on_c, 0, 68, 39
1, 7984, Note_on_c, 0, 71, 22
1, 7988, Note_on_c, 0, 74, 40
1, 7992, Note_on_c, 0, 76, 38
1, 8048, Note_on_c, 0, 70, 0
1, 8056, Note_on_c, 0, 68, 0
1, 8064, Note_on_c, 0, 76, 0
1, 8072, Note_on_c, 0, 71, 0
1, 8096, Note_on_c, 0, 74, 0
1, 8144, Note_on_c, 0, 79, 0
1, 8480, Control_c, 0, 64, 0
1, 8504, Note_on_c, 0, 39, 52
1, 8508, Note_on_c, 0, 87, 51
1, 8520, Note_on_c, 0, 85, 48
1, 8524, Note_on_c, 0, 39, 0
1, 8528, Control_c, 0, 64, 127
1, 8528, Control_c, 0, 64, 72
1, 8544, Note_on_c, 0, 85, 0
1, 8544, Note_on_c, 0, 87, 0
1, 8604, Note_on_c, 0, 87, 51
1, 8608, Note_on_c, 0, 85, 42
1, 8644, Note_on_c, 0, 87, 0
1, 8648, Note_on_c, 0, 85, 0
1, 8716, Note_on_c, 0, 61, 46
1, 8716, Note_on_c, 0, 79, 48
1, 8716, Note_on_c, 0, 81, 56
1, 8720, Note_on_c, 0, 66, 36
1, 8728, Note_on_c, 0, 55, 34
1, 8784, Note_on_c, 0, 79, 0
1, 8788, Note_on_c, 0, 81, 0
1, 8904, Note_on_c, 0, 81, 51
1, 8904, Note_on_c, 0, 79, 43
1, 9112, Note_on_c, 0, 81, 0
1, 9112, Note_on_c, 0, 66, 0
1, 9116, Note_on_c, 0, 55, 0
1, 9140, Note_on_c, 0, 61, 0
1, 9140, Note_on_c, 0, 79, 0
1, 9532, Control_c, 0, 64, 0
1, 9548, Note_on_c, 0, 80, 56
1, 9552, Note_on_c, 0, 32, 41
1, 9552, Note_on_c, 0, 78, 57
1, 9576, Control_c, 0, 64, 127
1, 9584, Note_on_c, 0, 78, 0
1, 9588, Note_on_c, 0, 80, 0
1, 9592, Note_on_c, 0, 32, 0
1, 9648, Note_on_c, 0, 78, 49
1, 9648, Note_on_c, 0, 80, 50
1, 9692, Note_on_c, 0, 80, 0
1, 9692, Note_on_c, 0, 78, 0
1, 9780, Note_on_c, 0, 72, 43
1, 9784, Note_on_c, 0, 74, 52
1, 9792, Note_on_c, 0, 65, 29
1, 9792, Note_on_c, 0, 54, 34
1, 9792, Note_on_c, 0, 60, 39
1, 9912, Note_on_c, 0, 65, 0
1, 9916, Note_on_c, 0, 60, 0
1, 9924, Note_on_c, 0, 74, 0
1, 9928, Note_on_c, 0, 54, 0
1, 9936, Note_on_c, 0, 72, 0
1, 10072, Note_on_c, 0, 72, 39
1, 10072, Note_on_c, 0, 65, 35
1, 10072, Note_on_c, 0, 74, 52
1, 10072, Note_on_c, 0, 54, 34
1, 10072, Note_on_c, 0, 60, 39
1, 10276, Note_on_c, 0, 72, 0
1, 10296, Note_on_c, 0, 75, 83
1, 10312, Note_on_c, 0, 74, 0
1, 10444, Note_on_c, 0, 75, 0
1, 10460, Note_on_c, 0, 76, 82
1, 10580, Note_on_c, 0, 65, 0
1, 10604, Note_on_c, 0, 76, 0
1, 10612, Note_on_c, 0, 77, 80
1, 10640, Note_on_c, 0, 60, 0
1, 10664, Note_on_c, 0, 54, 0
1, 10784, Note_on_c, 0, 68, 57
1, 10792, Control_c, 0, 64, 0
1, 10796, Note_on_c, 0, 72, 57
1, 10800, Note_on_c, 0, 63, 39
1, 10812, Note_on_c, 0, 53, 39
1, 10876, Control_c, 0, 64, 127
1, 11016, Note_on_c, 0, 60, 55
1, 11028, Note_on_c, 0, 77, 0
1, 11032, Note_on_c, 0, 63, 0
1, 11040, Note_on_c, 0, 72, 0
1, 11052, Note_on_c, 0, 68, 0
1, 11348, Note_on_c, 0, 72, 82
1, 11352, Note_on_c, 0, 68, 79
1, 11356, Note_on_c, 0, 63, 49
1, 11444, Note_on_c, 0, 63, 0
1, 11448, Note_on_c, 0, 72, 0
1, 11452, Note_on_c, 0, 53, 0
1, 11460, Note_on_c, 0, 68, 0
1, 11468, Note_on_c, 0, 70, 75
1, 11480, Note_on_c, 0, 60, 0
1, 11544, Note_on_c, 0, 70, 0
1, 11560, Note_on_c, 0, 72, 77
1, 11576, Note_on_c, 0, 70, 54
1, 11588, Note_on_c, 0, 70, 0
1, 11608, Note_on_c, 0, 72, 0
1, 11676, Control_c, 0, 64, 0
1, 11692, Note_on_c, 0, 75, 83
1, 11692, Note_on_c, 0, 46, 62
1, 11724, Control_c, 0, 64, 127
1, 11740, Note_on_c, 0, 46, 0
1, 11836, Note_on_c, 0, 75, 0
1, 11856, Note_on_c, 0, 60, 56
1, 11856, Note_on_c, 0, 73, 79
1, 11860, Note_on_c, 0, 61, 57
1, 11864, Note_on_c, 0, 65, 54
1, 11952, Note_on_c, 0, 60, 0
1, 11956, Note_on_c, 0, 61, 0
1, 11960, Note_on_c, 0, 65, 0
1, 12004, Note_on_c, 0, 73, 0
1, 12024, Note_on_c, 0, 72, 77
1, 12028, Note_on_c, 0, 65, 55
1, 12028, Note_on_c, 0, 61, 57
1, 12032, Note_on_c, 0, 60, 49
1, 12108, Note_on_c, 0, 60, 0
1, 12108, Note_on_c, 0, 61, 0
1, 12112, Note_on_c, 0, 65, 0
1, 12144, Note_on_c, 0, 72, 0
1, 12200, Note_on_c, 0, 65, 54
1, 12204, Note_on_c, 0, 70, 75
1, 12204, Note_on_c, 0, 61, 56
1, 12216, Note_on_c, 0, 65, 0
1, 12240, Note_on_c, 0, 61, 0
1, 12248, Note_on_c, 0, 70, 0
1, 12420, Control_c, 0, 64, 0
1, 12420, Note_on_c, 0, 27, 81
1, 12460, Control_c, 0, 64, 127
1, 12512, Note_on_c, 0, 27, 0
1, 12676, Note_on_c, 0, 89, 102
1, 12676, Note_on_c, 0, 82, 89
1, 12680, Note_on_c, 0, 54, 66
1, 12680, Note_on_c, 0, 77, 87
1, 12680, Note_on_c, 0, 58, 70
1, 12680, Note_on_c, 0, 65, 79
1, 12680, Note_on_c, 0, 61, 68
1, 12680, Note_on_c, 0, 85, 75
1, 12700, Note_on_c, 0, 88, 29
1, 12724, Note_on_c, 0, 88, 0
1, 12788, Note_on_c, 0, 89, 0
1, 12800, Note_on_c, 0, 77, 0
1, 12812, Note_on_c, 0, 85, 0
1, 12820, Note_on_c, 0, 54, 0
1, 12820, Note_on_c, 0, 65, 0
1, 12828, Note_on_c, 0, 58, 0
1, 12836, Note_on_c, 0, 82, 0
1, 12840, Note_on_c, 0, 61, 0
1, 12884, Note_on_c, 0, 87, 76
1, 12884, Note_on_c, 0, 75, 72
1, 12888, Note_on_c, 0, 82, 71
1, 12892, Note_on_c, 0, 65, 71
1, 12892, Note_on_c, 0, 61, 67
1, 12892, Note_on_c, 0, 58, 67
1, 12892, Note_on_c, 0, 54, 63
1, 12900, Note_on_c, 0, 85, 47
1, 12952, Note_on_c, 0, 85, 0
1, 12964, Note_on_c, 0, 87, 0
1, 12968, Note_on_c, 0, 75, 0
1, 12976, Note_on_c, 0, 82, 0
1, 12996, Note_on_c, 0, 61, 0
1, 12996, Note_on_c, 0, 58, 0
1, 13000, Note_on_c, 0, 65, 0
1, 13008, Note_on_c, 0, 54, 0
1, 13104, Note_on_c, 0, 65, 73
1, 13104, Note_on_c, 0, 82, 69
1, 13104, Note_on_c, 0, 89, 71
1, 13104, Note_on_c, 0, 85, 66
1, 13104, Note_on_c, 0, 77, 71
1, 13104, Note_on_c, 0, 61, 61
1, 13112, Note_on_c, 0, 58, 61
1, 13112, Note_on_c, 0, 54, 60
1, 13132, Note_on_c, 0, 65, 0
1, 13156, Note_on_c, 0, 61, 0
1, 13164, Note_on_c, 0, 58, 0
1, 13172, Note_on_c, 0, 54, 0
1, 13200, Note_on_c, 0, 89, 0
1, 13204, Note_on_c, 0, 77, 0
1, 13212, Note_on_c, 0, 85, 0
1, 13216, Note_on_c, 0, 82, 0
1, 13348, Control_c, 0, 64, 0
1, 13360, Note_on_c, 0, 85, 76
1, 13360, Note_on_c, 0, 32, 77
1, 13360, Note_on_c, 0, 90, 83
1, 13360, Note_on_c, 0, 78, 79
1, 13360, Note_on_c, 0, 44, 67
1, 13396, Control_c, 0, 64, 127
1, 13416, Note_on_c, 0, 32, 0
1, 13436, Note_on_c, 0, 44, 0
1, 13444, Note_on_c, 0, 78, 0
1, 13464, Note_on_c, 0, 85, 0
1, 13468, Note_on_c, 0, 90, 0
1, 13672, Note_on_c, 0, 92, 73
1, 13676, Note_on_c, 0, 83, 58
1, 13680, Note_on_c, 0, 88, 66
1, 13680, Note_on_c, 0, 54, 54
1, 13684, Control_c, 0, 64, 0
1, 13688, Note_on_c, 0, 64, 42
1, 13688, Note_on_c, 0, 60, 48
1, 13724, Control_c, 0, 64, 127
1, 13796, Note_on_c, 0, 88, 0
1, 13804, Note_on_c, 0, 92, 0
1, 13820, Note_on_c, 0, 83, 0
1, 13844, Note_on_c, 0, 64, 0
1, 13844, Note_on_c, 0, 60, 0
1, 13992, Note_on_c, 0, 89, 52
1, 14008, Note_on_c, 0, 81, 41
1, 14008, Note_on_c, 0, 64, 39
1, 14008, Note_on_c, 0, 78, 31
1, 14012, Note_on_c, 0, 60, 39
1, 14020, Note_on_c, 0, 84, 27
1, 14348, Note_on_c, 0, 89, 0
1, 14532, Note_on_c, 0, 84, 0
1, 14552, Note_on_c, 0, 81, 0
1, 14556, Note_on_c, 0, 87, 50
1, 14564, Note_on_c, 0, 60, 0
1, 14576, Note_on_c, 0, 64, 0
1, 14588, Note_on_c, 0, 54, 0
1, 14632, Note_on_c, 0, 87, 0
1, 14660, Note_on_c, 0, 78, 0
1, 14828, Note_on_c, 0, 84, 73
1, 14852, Note_on_c, 0, 77, 57
1, 14904, Note_on_c, 0, 73, 51
1, 14940, Note_on_c, 0, 72, 52
1, 15104, Note_on_c, 0, 72, 0
1, 15212, Note_on_c, 0, 72, 40
1, 15312, Note_on_c, 0, 72, 0
1, 15412, Note_on_c, 0, 72, 47
1, 15428, Note_on_c, 0, 84, 0
1, 15520, Note_on_c, 0, 72, 0
1, 15568, Note_on_c, 0, 77, 0
1, 15580, Note_on_c, 0, 84, 48
1, 15588, Note_on_c, 0, 73, 0
1, 15624, Note_on_c, 0, 77, 57
1, 15660, Note_on_c, 0, 73, 46
1, 15700, Note_on_c, 0, 72, 50
1, 15804, Note_on_c, 0, 72, 0
1, 15904, Note_on_c, 0, 72, 41
1, 16020, Note_on_c, 0, 72, 0
1, 16176, Note_on_c, 0, 72, 25
1, 16280, Note_on_c, 0, 72, 0
1, 16288, Note_on_c, 0, 84, 0
1, 16416, Note_on_c, 0, 84, 43
1, 16592, Note_on_c, 0, 77, 0
1, 16620, Note_on_c, 0, 84, 0
1, 16620, Note_on_c, 0, 82, 49
1, 16628, Note_on_c, 0, 73, 0
1, 16664, Note_on_c, 0, 77, 41
1, 16736, Note_on_c, 0, 73, 46
1, 16780, Note_on_c, 0, 77, 0
1, 16832, Note_on_c, 0, 73, 0
1, 16848, Control_c, 0, 64, 0
1, 16848, Note_on_c, 0, 72, 42
1, 16860, Note_on_c, 0, 48, 38
1, 16880, Control_c, 0, 64, 127
1, 16936, Note_on_c, 0, 82, 0
1, 16956, Note_on_c, 0, 48, 0
1, 17000, Note_on_c, 0, 72, 0
1, 17088, Note_on_c, 0, 58, 34
1, 17544, Note_on_c, 0, 58, 0
1, 17900, Control_c, 0, 64, 0
1, 17920, Control_c, 0, 64, 127
1, 17920, Note_on_c, 0, 65, 49
1, 17920, Note_on_c, 0, 57, 52
1, 17924, Note_on_c, 0, 50, 46
1, 17924, Note_on_c, 0, 60, 54
1, 17960, Note_on_c, 0, 65, 0
1, 17988, Note_on_c, 0, 60, 0
1, 18008, Note_on_c, 0, 57, 0
1, 18084, Control_c, 0, 64, 0
1, 18088, Note_on_c, 0, 67, 68
1, 18092, Note_on_c, 0, 58, 68
1, 18096, Note_on_c, 0, 61, 63
1, 18100, Note_on_c, 0, 50, 0
1, 18100, Note_on_c, 0, 52, 59
1, 18104, Control_c, 0, 64, 127
1, 18144, Note_on_c, 0, 67, 0
1, 18164, Note_on_c, 0, 58, 0
1, 18188, Note_on_c, 0, 61, 0
1, 18236, Control_c, 0, 64, 0
1, 18252, Note_on_c, 0, 69, 64
1, 18256, Note_on_c, 0, 52, 0
1, 18256, Note_on_c, 0, 60, 58
1, 18260, Note_on_c, 0, 62, 54
1, 18260, Note_on_c, 0, 53, 57
1, 18264, Control_c, 0, 64, 127
1, 18284, Note_on_c, 0, 62, 0
1, 18292, Note_on_c, 0, 69, 0
1, 18304, Note_on_c, 0, 60, 0
1, 18420, Note_on_c, 0, 53, 0
1, 18440, Control_c, 0, 64, 0
1, 18440, Note_on_c, 0, 72, 63
1, 18444, Note_on_c, 0, 65, 51
1, 18444, Note_on_c, 0, 62, 47
1, 18452, Note_on_c, 0, 57, 50
1, 18472, Control_c, 0, 64, 127
1, 18540, Note_on_c, 0, 65, 0
1, 18548, Note_on_c, 0, 62, 0
1, 18556, Note_on_c, 0, 72, 0
1, 18716, Note_on_c, 0, 57, 0
1, 18716, Note_on_c, 0, 65, 53
1, 18720, Note_on_c, 0, 74, 57
1, 18724, Note_on_c, 0, 69, 50
1, 18728, Note_on_c, 0, 61, 39
1, 18732, Control_c, 0, 64, 0
1, 18760, Control_c, 0, 64, 127
1, 18872, Note_on_c, 0, 69, 0
1, 18876, Note_on_c, 0, 65, 0
1, 18884, Note_on_c, 0, 61, 0
1, 18896, Note_on_c, 0, 74, 0
1, 19236, Note_on_c, 0, 69, 48
1, 19236, Note_on_c, 0, 62, 44
1, 19236, Note_on_c, 0, 77, 52
1, 19240, Note_on_c, 0, 72, 45
1, 19316, Note_on_c, 0, 69, 0
1, 19328, Note_on_c, 0, 72, 0
1, 19332, Note_on_c, 0, 62, 0
1, 19336, Note_on_c, 0, 77, 0
1, 19654, Control_c, 0, 64, 0
1, 19738, Note_on_c, 0, 69, 80
1, 19738, Note_on_c, 0, 79, 75
1, 19738, Note_on_c, 0, 74, 69
1, 19738, Note_on_c, 1, 50, 64
1, 19738, Note_on_c, 9, 40, 41
1, 19738, Note_on_c, 9, 35, 17
1, 19750, Note_on_c, 0, 62, 54
1, 19770, Note_on_c, 9, 35, 0
1, 19838, Control_c, 0, 64, 127
1, 20018, Note_on_c, 0, 74, 0
1, 20022, Note_on_c, 0, 69, 0
1, 20030, Note_on_c, 0, 62, 0
1, 20070, Note_on_c, 9, 40, 0
1, 20110, Note_on_c, 9, 40, 44
1, 20122, Note_on_c, 9, 44, 74
1, 20150, Note_on_c, 0, 79, 0
1, 20158, Note_on_c, 0, 74, 50
1, 20166, Note_on_c, 0, 69, 41
1, 20166, Note_on_c, 0, 62, 36
1, 20270, Note_on_c, 9, 44, 0
1, 20330, Note_on_c, 0, 62, 0
1, 20398, Note_on_c, 0, 74, 0
1, 20418, Note_on_c, 9, 40, 0
1, 20442, Note_on_c, 0, 69, 0
1, 20442, Note_on_c, 1, 45, 72
1, 20454, Note_on_c, 9, 40, 30
1, 20474, Note_on_c, 9, 40, 0
1, 20486, Note_on_c, 1, 45, 0
1, 20506, Note_on_c, 1, 38, 88
1, 20506, Note_on_c, 9, 40, 41
1, 20550, Note_on_c, 0, 69, 45
1, 20554, Note_on_c, 0, 73, 48
1, 20554, Note_on_c, 0, 79, 52
1, 20554, Control_c, 0, 64, 0
1, 20554, Note_on_c, 0, 61, 45
1, 20554, Note_on_c, 0, 64, 40
1, 20650, Control_c, 0, 64, 127
1, 20762, Note_on_c, 0, 64, 0
1, 20766, Note_on_c, 0, 61, 0
1, 20794, Note_on_c, 0, 69, 0
1, 20802, Note_on_c, 0, 73, 0
1, 20826, Note_on_c, 1, 45, 48
1, 20826, Note_on_c, 9, 35, 19
1, 20858, Note_on_c, 9, 35, 0
1, 20858, Note_on_c, 1, 45, 0
1, 20862, Note_on_c, 1, 50, 0
1, 20870, Note_on_c, 9, 40, 0
1, 20890, Note_on_c, 1, 49, 90
1, 20890, Note_on_c, 9, 44, 63
1, 20890, Note_on_c, 9, 35, 21
1, 20898, Note_on_c, 9, 40, 62
1, 20910, Note_on_c, 0, 69, 45
1, 20914, Note_on_c, 0, 73, 46
1, 20914, Note_on_c, 0, 61, 39
1, 20918, Note_on_c, 0, 64, 34
1, 20978, Note_on_c, 9, 35, 0
1, 21022, Note_on_c, 9, 44, 0
1, 21034, Note_on_c, 9, 39, 44
1, 21038, Note_on_c, 9, 40, 0
1, 21078, Note_on_c, 9, 39, 0
1, 21082, Note_on_c, 9, 40, 25
1, 21094, Note_on_c, 0, 79, 0
1, 21094, Note_on_c, 0, 64, 0
1, 21106, Note_on_c, 0, 61, 0
1, 21106, Note_on_c, 0, 69, 0
1, 21158, Note_on_c, 0, 73, 0
1, 21210, Note_on_c, 1, 45, 45
1, 21242, Note_on_c, 1, 45, 0
1, 21266, Note_on_c, 9, 40, 0
1, 21274, Note_on_c, 1, 48, 90
1, 21274, Note_on_c, 9, 35, 18
1, 21286, Note_on_c, 1, 49, 0
1, 21294, Note_on_c, 9, 40, 52
1, 21298, Control_c, 0, 64, 0
1, 21302, Note_on_c, 0, 79, 38
1, 21306, Note_on_c, 0, 60, 36
1, 21306, Note_on_c, 0, 64, 24
1, 21310, Note_on_c, 9, 35, 0
1, 21310, Note_on_c, 0, 72, 41
1, 21310, Note_on_c, 0, 69, 28
1, 21346, Note_on_c, 1, 38, 0
1, 21350, Control_c, 0, 64, 127
1, 21394, Note_on_c, 0, 69, 0
1, 21410, Note_on_c, 0, 72, 0
1, 21446, Note_on_c, 0, 64, 0
1, 21450, Note_on_c, 0, 60, 0
1, 21494, Note_on_c, 0, 79, 0
1, 21626, Note_on_c, 9, 40, 0
1, 21658, Note_on_c, 9, 44, 62
1, 21666, Note_on_c, 9, 40, 53
1, 21786, Control_c, 0, 64, 0
1, 21786, Note_on_c, 1, 45, 61
1, 21802, Note_on_c, 9, 44, 0
1, 21806, Note_on_c, 0, 64, 61
1, 21806, Note_on_c, 0, 60, 54
1, 21810, Note_on_c, 0, 89, 66
1, 21814, Note_on_c, 0, 53, 38
1, 21814, Note_on_c, 0, 77, 57
1, 21814, Note_on_c, 0, 84, 56
1, 21818, Note_on_c, 0, 64, 0
1, 21818, Note_on_c, 1, 45, 0
1, 21822, Note_on_c, 0, 60, 0
1, 21822, Note_on_c, 0, 57, 36
1, 21826, Note_on_c, 0, 84, 0
1, 21826, Note_on_c, 0, 77, 0
1, 21826, Note_on_c, 0, 89, 0
1, 21830, Note_on_c, 0, 53, 0
1, 21842, Note_on_c, 0, 57, 0
1, 21850, Note_on_c, 1, 38, 90
1, 21906, Control_c, 0, 64, 127
1, 21938, Note_on_c, 0, 91, 87
1, 21938, Note_on_c, 0, 60, 60
1, 21942, Note_on_c, 0, 64, 69
1, 21942, Note_on_c, 0, 79, 72
1, 21942, Note_on_c, 0, 86, 76
1, 21946, Note_on_c, 0, 53, 56
1, 21946, Note_on_c, 0, 57, 59
1, 21958, Note_on_c, 9, 40, 0
1, 21986, Note_on_c, 9, 40, 53
1, 21998, Note_on_c, 0, 60, 0
1, 22006, Note_on_c, 0, 91, 0
1, 22006, Note_on_c, 9, 40, 0
1, 22006, Note_on_c, 0, 86, 0
1, 22014, Note_on_c, 0, 53, 0
1, 22018, Note_on_c, 0, 64, 0
1, 22022, Note_on_c, 0, 57, 0
1, 22022, Note_on_c, 1, 48, 0
1, 22022, Note_on_c, 0, 79, 0
1, 22038, Note_on_c, 9, 40, 54
1, 22046, Control_c, 0, 64, 0
1, 22066, Note_on_c, 0, 89, 65
1, 22070, Note_on_c, 0, 77, 61
1, 22070, Note_on_c, 0, 59, 57
1, 22070, Note_on_c, 0, 84, 63
1, 22070, Note_on_c, 0, 64, 50
1, 22070, Note_on_c, 0, 53, 41
1, 22106, Control_c, 0, 64, 127
1, 22162, Note_on_c, 0, 89, 0
1, 22166, Note_on_c, 0, 77, 0
1, 22170, Note_on_c, 0, 84, 0
1, 22170, Note_on_c, 0, 53, 0
1, 22170, Note_on_c, 0, 64, 0
1, 22190, Note_on_c, 0, 59, 0
1, 22202, Note_on_c, 0, 88, 66
1, 22202, Note_on_c, 0, 64, 55
1, 22206, Note_on_c, 0, 59, 29
1, 22206, Note_on_c, 0, 53, 48
1, 22206, Note_on_c, 0, 83, 62
1, 22206, Control_c, 0, 64, 0
1, 22206, Note_on_c, 0, 76, 54
1, 22246, Note_on_c, 0, 64, 0
1, 22258, Control_c, 0, 64, 72
1, 22258, Control_c, 0, 64, 127
1, 22270, Note_on_c, 0, 64, 13
1, 22350, Note_on_c, 0, 88, 0
1, 22354, Note_on_c, 0, 64, 0
1, 22358, Note_on_c, 0, 53, 0
1, 22358, Note_on_c, 0, 83, 0
1, 22362, Note_on_c, 0, 76, 0
1, 22386, Note_on_c, 9, 40, 0
1, 22402, Note_on_c, 0, 59, 0
1, 22422, Note_on_c, 9, 40, 57
1, 22426, Note_on_c, 1, 47, 89
1, 22426, Note_on_c, 9, 44, 64
1, 22430, Note_on_c, 1, 38, 0
1, 22434, Note_on_c, 0, 86, 48
1, 22438, Note_on_c, 0, 74, 42
1, 22442, Note_on_c, 0, 59, 26
1, 22442, Note_on_c, 0, 81, 57
1, 22450, Note_on_c, 0, 53, 38
1, 22450, Note_on_c, 0, 64, 38
1, 22542, Note_on_c, 9, 44, 0
1, 22546, Note_on_c, 0, 86, 0
1, 22550, Note_on_c, 0, 53, 0
1, 22558, Note_on_c, 0, 64, 0
1, 22566, Note_on_c, 0, 74, 0
1, 22566, Note_on_c, 0, 81, 0
1, 22606, Note_on_c, 0, 59, 0
1, 22638, Note_on_c, 9, 35, 26
1, 22678, Note_on_c, 9, 35, 0
1, 22722, Note_on_c, 0, 84, 61
1, 22726, Note_on_c, 0, 59, 49
1, 22726, Note_on_c, 0, 53, 50
1, 22730, Note_on_c, 0, 72, 48
1, 22734, Note_on_c, 0, 64, 38
1, 22738, Note_on_c, 0, 84, 0
1, 22746, Note_on_c, 0, 59, 0
1, 22746, Note_on_c, 0, 72, 0
1, 22746, Note_on_c, 1, 38, 57
1, 22754, Note_on_c, 0, 64, 0
1, 22770, Note_on_c, 0, 53, 0
1, 22778, Note_on_c, 9, 40, 0
1, 22782, Note_on_c, 1, 47, 0
1, 22798, Note_on_c, 1, 38, 0
1, 22810, Note_on_c, 1, 31, 77
1, 22818, Note_on_c, 9, 40, 55
1, 22830, Control_c, 0, 64, 0
1, 22834, Note_on_c, 9, 35, 22
1, 22850, Note_on_c, 0, 53, 31
1, 22850, Note_on_c, 0, 73, 42
1, 22854, Note_on_c, 0, 62, 42
1, 22854, Note_on_c, 0, 58, 54
1, 22854, Note_on_c, 0, 69, 46
1, 22858, Note_on_c, 0, 57, 42
1, 22858, Note_on_c, 0, 81, 34
1, 22870, Note_on_c, 0, 77, 45
1, 22894, Note_on_c, 0, 74, 39
1, 22902, Note_on_c, 0, 73, 0
1, 22914, Control_c, 0, 64, 127
1, 22922, Note_on_c, 9, 35, 0
1, 22986, Note_on_c, 0, 69, 0
1, 22986, Note_on_c, 0, 74, 0
1, 22998, Note_on_c, 0, 81, 0
1, 22998, Note_on_c, 0, 77, 0
1, 22998, Note_on_c, 0, 62, 0
1, 22998, Note_on_c, 0, 58, 0
1, 23022, Note_on_c, 0, 53, 0
1, 23034, Note_on_c, 0, 81, 60
1, 23034, Note_on_c, 0, 69, 43
1, 23038, Note_on_c, 0, 62, 48
1, 23042, Note_on_c, 0, 77, 49
1, 23042, Note_on_c, 0, 58, 39
1, 23042, Note_on_c, 0, 74, 47
1, 23074, Control_c, 0, 64, 0
1, 23090, Control_c, 0, 64, 127
1, 23118, Note_on_c, 0, 81, 0
1, 23118, Note_on_c, 9, 40, 0
1, 23126, Note_on_c, 0, 74, 0
1, 23126, Note_on_c, 0, 69, 0
1, 23126, Note_on_c, 0, 77, 0
1, 23130, Note_on_c, 0, 62, 0
1, 23134, Note_on_c, 0, 58, 0
1, 23142, Note_on_c, 9, 40, 52
1, 23158, Note_on_c, 9, 40, 0
1, 23166, Note_on_c, 0, 81, 80
1, 23170, Note_on_c, 0, 62, 49
1, 23178, Note_on_c, 0, 58, 50
1, 23194, Note_on_c, 9, 44, 59
1, 23206, Note_on_c, 9, 40, 63
1, 23238, Note_on_c, 0, 58, 0
1, 23242, Note_on_c, 0, 81, 0
1, 23246, Note_on_c, 0, 62, 0
1, 23266, Control_c, 0, 64, 0
1, 23282, Note_on_c, 0, 69, 52
1, 23286, Note_on_c, 0, 73, 59
1, 23286, Note_on_c, 0, 58, 43
1, 23286, Note_on_c, 0, 62, 46
1, 23294, Note_on_c, 0, 81, 42
1, 23298, Note_on_c, 0, 77, 52
1, 23306, Note_on_c, 9, 44, 0
1, 23318, Control_c, 0, 64, 127
1, 23326, Note_on_c, 0, 73, 0
1, 23326, Note_on_c, 0, 74, 56
1, 23382, Note_on_c, 0, 62, 0
1, 23382, Note_on_c, 0, 69, 0
1, 23382, Note_on_c, 0, 58, 0
1, 23386, Note_on_c, 0, 81, 0
1, 23386, Note_on_c, 1, 43, 86
1, 23390, Note_on_c, 0, 74, 0
1, 23398, Note_on_c, 0, 77, 0
1, 23422, Note_on_c, 0, 81, 62
1, 23422, Note_on_c, 0, 62, 48
1, 23426, Note_on_c, 0, 58, 42
1, 23430, Note_on_c, 0, 69, 58
1, 23430, Note_on_c, 0, 74, 56
1, 23434, Note_on_c, 0, 77, 53
1, 23462, Note_on_c, 0, 62, 0
1, 23478, Note_on_c, 0, 69, 0
1, 23478, Note_on_c, 0, 58, 0
1, 23482, Note_on_c, 0, 74, 0
1, 23490, Note_on_c, 0, 81, 0
1, 23510, Note_on_c, 0, 57, 0
1, 23510, Note_on_c, 0, 77, 0
1, 23546, Note_on_c, 9, 40, 0
1, 23558, Note_on_c, 0, 57, 31
1, 23566, Note_on_c, 0, 81, 81
1, 23566, Note_on_c, 0, 62, 56
1, 23566, Note_on_c, 0, 58, 54
1, 23574, Note_on_c, 0, 78, 58
1, 23578, Note_on_c, 1, 42, 88
1, 23582, Note_on_c, 1, 43, 0
1, 23586, Note_on_c, 0, 78, 0
1, 23586, Note_on_c, 9, 40, 60
1, 23610, Note_on_c, 0, 62, 0
1, 23614, Note_on_c, 0, 81, 0
1, 23626, Note_on_c, 0, 58, 0
1, 23642, Note_on_c, 0, 57, 0
1, 23678, Note_on_c, 0, 81, 81
1, 23682, Note_on_c, 0, 58, 54
1, 23686, Note_on_c, 0, 62, 55
1, 23690, Note_on_c, 0, 74, 69
1, 23694, Note_on_c, 0, 69, 55
1, 23710, Note_on_c, 0, 69, 0
1, 23726, Note_on_c, 0, 74, 0
1, 23750, Note_on_c, 0, 81, 0
1, 23766, Note_on_c, 0, 62, 0
1, 23774, Note_on_c, 0, 58, 0
1, 23774, Control_c, 0, 64, 0
1, 23790, Note_on_c, 0, 86, 88
1, 23790, Note_on_c, 0, 54, 51
1, 23790, Note_on_c, 0, 62, 48
1, 23790, Note_on_c, 0, 58, 31
1, 23822, Note_on_c, 0, 86, 0
1, 23834, Note_on_c, 0, 54, 0
1, 23842, Note_on_c, 0, 62, 0
1, 23842, Note_on_c, 0, 58, 0
1, 23886, Control_c, 0, 64, 127
1, 23902, Note_on_c, 0, 75, 54
1, 23906, Note_on_c, 0, 81, 68
1, 23918, Note_on_c, 9, 40, 0
1, 23918, Note_on_c, 0, 54, 45
1, 23918, Note_on_c, 0, 69, 42
1, 23918, Note_on_c, 0, 62, 47
1, 23922, Note_on_c, 0, 58, 49
1, 23938, Note_on_c, 0, 75, 0
1, 23954, Note_on_c, 9, 40, 50
1, 23962, Note_on_c, 0, 69, 0
1, 23962, Note_on_c, 9, 44, 67
1, 23970, Note_on_c, 0, 62, 0
1, 23974, Note_on_c, 0, 81, 0
1, 23978, Note_on_c, 0, 58, 0
1, 23986, Note_on_c, 0, 54, 0
1, 23994, Control_c, 0, 64, 0
1, 24030, Note_on_c, 0, 69, 55
1, 24030, Note_on_c, 0, 81, 59
1, 24030, Control_c, 0, 64, 127
1, 24034, Note_on_c, 0, 54, 39
1, 24034, Note_on_c, 0, 74, 57
1, 24038, Note_on_c, 0, 62, 48
1, 24038, Note_on_c, 0, 78, 51
1, 24042, Note_on_c, 0, 58, 55
1, 24058, Note_on_c, 9, 44, 0
1, 24082, Note_on_c, 9, 25, 70
1, 24086, Note_on_c, 9, 40, 0
1, 24122, Note_on_c, 9, 25, 0
1, 24130, Note_on_c, 1, 31, 0
1, 24154, Note_on_c, 1, 31, 67
1, 24154, Note_on_c, 9, 40, 34
1, 24154, Note_on_c, 9, 35, 32
1, 24218, Note_on_c, 9, 35, 0
1, 24218, Note_on_c, 0, 58, 0
1, 24234, Note_on_c, 0, 69, 0
1, 24238, Note_on_c, 0, 74, 0
1, 24250, Note_on_c, 9, 40, 0
1, 24254, Note_on_c, 0, 62, 0
1, 24278, Note_on_c, 0, 54, 0
1, 24278, Note_on_c, 9, 40, 40
1, 24286, Note_on_c, 0, 78, 0
1, 24290, Note_on_c, 0, 81, 0
1, 24318, Note_on_c, 9, 40, 0
1, 24326, Note_on_c, 1, 42, 0
1, 24342, Note_on_c, 9, 35, 28
1, 24346, Note_on_c, 1, 41, 90
1, 24350, Control_c, 0, 64, 0
1, 24350, Note_on_c, 0, 81, 47
1, 24350, Note_on_c, 0, 58, 45
1, 24350, Note_on_c, 0, 69, 48
1, 24350, Note_on_c, 9, 40, 54
1, 24354, Note_on_c, 0, 62, 36
1, 24354, Note_on_c, 0, 53, 42
1, 24358, Note_on_c, 0, 74, 49
1, 24434, Control_c, 0, 64, 127
1, 24494, Note_on_c, 1, 31, 0
1, 24570, Note_on_c, 0, 69, 0
1, 24582, Note_on_c, 0, 62, 0
1, 24598, Note_on_c, 0, 58, 0
1, 24614, Note_on_c, 0, 74, 0
1, 24658, Note_on_c, 9, 40, 0
1, 24662, Note_on_c, 0, 81, 0
1, 24730, Note_on_c, 9, 44, 64
1, 24730, Note_on_c, 9, 40, 57
1, 24742, Note_on_c, 0, 62, 39
1, 24746, Note_on_c, 0, 58, 46
1, 24750, Note_on_c, 9, 35, 0
1, 24750, Control_c, 0, 64, 0
1, 24830, Note_on_c, 9, 44, 0
1, 24974, Note_on_c, 0, 80, 27
1, 25006, Note_on_c, 0, 80, 0
1, 25022, Note_on_c, 0, 81, 35
1, 25030, Note_on_c, 0, 62, 0
1, 25030, Note_on_c, 0, 53, 0
1, 25034, Note_on_c, 9, 40, 0
1, 25054, Note_on_c, 9, 35, 23
1, 25062, Note_on_c, 0, 81, 0
1, 25070, Note_on_c, 9, 35, 0
1, 25070, Note_on_c, 9, 40, 53
1, 25078, Note_on_c, 0, 58, 0
1, 25082, Note_on_c, 0, 84, 102
1, 25110, Note_on_c, 9, 40, 0
1, 25114, Note_on_c, 1, 40, 81
1, 25118, Note_on_c, 1, 41, 0
1, 25122, Note_on_c, 9, 35, 23
1, 25138, Note_on_c, 0, 84, 0
1, 25142, Note_on_c, 9, 40, 62
1, 25162, Note_on_c, 0, 86, 122
1, 25170, Note_on_c, 0, 62, 51
1, 25174, Note_on_c, 0, 58, 49
1, 25174, Note_on_c, 0, 52, 48
1, 25182, Note_on_c, 0, 84, 37
1, 25198, Note_on_c, 0, 84, 0
1, 25250, Note_on_c, 0, 86, 0
1, 25290, Note_on_c, 0, 84, 78
1, 25330, Note_on_c, 0, 84, 0
1, 25370, Note_on_c, 0, 58, 0
1, 25378, Note_on_c, 0, 62, 0
1, 25394, Note_on_c, 0, 52, 0
1, 25486, Note_on_c, 1, 40, 0
1, 25490, Note_on_c, 9, 40, 0
1, 25498, Note_on_c, 1, 33, 74
1, 25498, Note_on_c, 9, 46, 55
1, 25506, Note_on_c, 9, 25, 36
1, 25506, Note_on_c, 9, 38, 58
1, 25518, Note_on_c, 9, 35, 0
1, 25598, Note_on_c, 9, 46, 0
1, 25646, Note_on_c, 0, 79, 88
1, 25650, Note_on_c, 0, 86, 74
1, 25658, Note_on_c, 0, 65, 55
1, 25658, Note_on_c, 0, 61, 50
1, 25658, Note_on_c, 0, 80, 55
1, 25662, Note_on_c, 0, 55, 52
1, 25674, Note_on_c, 0, 79, 0
1, 25698, Note_on_c, 0, 86, 0
1, 25722, Note_on_c, 0, 80, 0
1, 25730, Note_on_c, 0, 79, 60
1, 25766, Note_on_c, 0, 79, 0
1, 25766, Note_on_c, 0, 65, 0
1, 25798, Note_on_c, 0, 61, 0
1, 25806, Note_on_c, 0, 55, 0
1, 25818, Note_on_c, 9, 40, 46
1, 25838, Note_on_c, 9, 35, 15
1, 25846, Note_on_c, 9, 25, 0
1, 25850, Note_on_c, 9, 38, 0
1, 25854, Note_on_c, 0, 77, 54
1, 25858, Note_on_c, 9, 35, 0
1, 25862, Note_on_c, 9, 40, 0
1, 25878, Note_on_c, 0, 77, 0
1, 25882, Note_on_c, 1, 33, 0
1, 25882, Note_on_c, 1, 38, 79
1, 25890, Note_on_c, 9, 40, 53
1, 25894, Note_on_c, 9, 35, 27
1, 25902, Note_on_c, 9, 47, 33
1, 25926, Note_on_c, 9, 47, 0
1, 25934, Note_on_c, 9, 35, 0
1, 25966, Note_on_c, 0, 79, 66
1, 25966, Note_on_c, 0, 76, 39
1, 25990, Note_on_c, 0, 76, 0
1, 26006, Note_on_c, 0, 79, 0
1, 26078, Note_on_c, 0, 64, 50
1, 26082, Note_on_c, 0, 79, 34
1, 26094, Note_on_c, 0, 64, 0
1, 26106, Note_on_c, 0, 79, 0
1, 26206, Note_on_c, 0, 76, 68
1, 26206, Note_on_c, 0, 65, 59
1, 26218, Note_on_c, 0, 61, 49
1, 26218, Note_on_c, 0, 69, 56
1, 26222, Note_on_c, 0, 65, 0
1, 26234, Note_on_c, 0, 69, 0
1, 26238, Note_on_c, 9, 40, 0
1, 26242, Note_on_c, 0, 76, 0
1, 26266, Note_on_c, 9, 44, 63
1, 26274, Note_on_c, 0, 61, 0
1, 26274, Note_on_c, 0, 58, 54
1, 26278, Note_on_c, 9, 40, 47
1, 26310, Note_on_c, 0, 58, 0
1, 26338, Note_on_c, 0, 74, 68
1, 26338, Note_on_c, 0, 65, 56
1, 26346, Note_on_c, 0, 60, 42
1, 26362, Note_on_c, 9, 44, 0
1, 26406, Control_c, 0, 64, 127
1, 26494, Note_on_c, 0, 74, 0
1, 26510, Note_on_c, 0, 65, 0
1, 26550, Note_on_c, 0, 60, 0
1, 26574, Note_on_c, 9, 40, 0
1, 26614, Note_on_c, 9, 40, 44
1, 26650, Note_on_c, 9, 40, 0
1, 26678, Note_on_c, 0, 62, 50
1, 26682, Control_c, 0, 64, 0
1, 26686, Note_on_c, 9, 40, 42
1, 26690, Note_on_c, 0, 69, 45
1, 26690, Note_on_c, 0, 57, 45
1, 26694, Note_on_c, 0, 65, 39
1, 26714, Control_c, 0, 64, 127
1, 26798, Note_on_c, 9, 40, 0
1, 26798, Note_on_c, 9, 39, 42
1, 26838, Note_on_c, 9, 39, 0
1, 26838, Note_on_c, 0, 62, 0
1, 26850, Note_on_c, 0, 69, 0
1, 26858, Note_on_c, 0, 65, 0
1, 26866, Note_on_c, 0, 57, 0
1, 26866, Note_on_c, 9, 40, 42
1, 27022, Note_on_c, 9, 40, 0
1, 27034, Control_c, 0, 64, 0
1, 27034, Note_on_c, 9, 44, 71
1, 27054, Note_on_c, 0, 65, 57
1, 27066, Note_on_c, 0, 57, 36
1, 27070, Note_on_c, 0, 65, 0
1, 27070, Note_on_c, 0, 50, 48
1, 27070, Note_on_c, 0, 60, 37
1, 27070, Note_on_c, 9, 40, 48
1, 27074, Control_c, 0, 64, 127
1, 27086, Note_on_c, 0, 60, 0
1, 27086, Note_on_c, 0, 57, 0
1, 27098, Note_on_c, 1, 45, 108
1, 27138, Note_on_c, 9, 44, 0
1, 27158, Note_on_c, 0, 50, 0
1, 27178, Note_on_c, 0, 69, 66
1, 27178, Note_on_c, 0, 60, 58
1, 27182, Note_on_c, 0, 53, 57
1, 27186, Note_on_c, 0, 62, 57
1, 27190, Note_on_c, 0, 60, 0
1, 27198, Note_on_c, 0, 62, 0
1, 27214, Note_on_c, 0, 69, 0
1, 27242, Note_on_c, 0, 53, 0
1, 27262, Note_on_c, 0, 72, 82
1, 27262, Note_on_c, 0, 57, 65
1, 27266, Control_c, 0, 64, 0
1, 27270, Note_on_c, 0, 65, 55
1, 27270, Note_on_c, 0, 64, 57
1, 27270, Note_on_c, 0, 62, 36
1, 27282, Note_on_c, 0, 64, 0
1, 27282, Note_on_c, 0, 65, 0
1, 27290, Note_on_c, 0, 62, 0
1, 27302, Note_on_c, 0, 72, 0
1, 27334, Control_c, 0, 64, 127
1, 27342, Note_on_c, 0, 57, 0
1, 27366, Note_on_c, 9, 40, 0
1, 27378, Note_on_c, 0, 76, 80
1, 27378, Note_on_c, 0, 74, 75
1, 27378, Note_on_c, 0, 60, 72
1, 27402, Note_on_c, 9, 35, 31
1, 27414, Note_on_c, 0, 74, 0
1, 27418, Note_on_c, 0, 76, 0
1, 27418, Note_on_c, 1, 50, 88
1, 27418, Note_on_c, 9, 40, 62
1, 27422, Note_on_c, 9, 35, 0
1, 27430, Note_on_c, 0, 60, 0
1, 27438, Note_on_c, 1, 38, 0
1, 27442, Note_on_c, 1, 45, 0
1, 27462, Control_c, 0, 64, 56
1, 27466, Control_c, 0, 64, 0
1, 27470, Note_on_c, 9, 35, 35
1, 27474, Note_on_c, 0, 70, 72
1, 27478, Note_on_c, 0, 60, 50
1, 27478, Note_on_c, 0, 68, 57
1, 27478, Note_on_c, 0, 64, 63
1, 27478, Note_on_c, 0, 54, 56
1, 27478, Note_on_c, 9, 46, 44
1, 27482, Note_on_c, 0, 76, 66
1, 27486, Note_on_c, 0, 70, 0
1, 27486, Note_on_c, 0, 71, 62
1, 27510, Note_on_c, 0, 74, 22
1, 27606, Note_on_c, 0, 64, 0
1, 27618, Note_on_c, 0, 76, 0
1, 27618, Note_on_c, 0, 54, 0
1, 27622, Note_on_c, 0, 71, 0
1, 27622, Note_on_c, 0, 68, 0
1, 27626, Note_on_c, 0, 60, 0
1, 27630, Note_on_c, 0, 74, 0
1, 27630, Control_c, 0, 64, 127
1, 27662, Note_on_c, 0, 54, 45
1, 27666, Note_on_c, 0, 68, 45
1, 27666, Note_on_c, 0, 76, 56
1, 27666, Note_on_c, 0, 71, 52
1, 27666, Note_on_c, 0, 64, 49
1, 27670, Note_on_c, 0, 60, 50
1, 27774, Note_on_c, 9, 40, 0
1, 27778, Note_on_c, 0, 54, 0
1, 27782, Note_on_c, 0, 64, 0
1, 27782, Note_on_c, 0, 71, 0
1, 27782, Note_on_c, 0, 60, 0
1, 27786, Note_on_c, 0, 68, 0
1, 27786, Note_on_c, 0, 76, 0
1, 27802, Note_on_c, 9, 44, 62
1, 27814, Note_on_c, 9, 40, 50
1, 27846, Note_on_c, 0, 64, 52
1, 27846, Note_on_c, 0, 54, 46
1, 27846, Note_on_c, 0, 76, 49
1, 27850, Note_on_c, 0, 68, 44
1, 27854, Note_on_c, 0, 71, 47
1, 27862, Note_on_c, 0, 60, 25
1, 27898, Note_on_c, 0, 76, 0
1, 27914, Note_on_c, 0, 64, 0
1, 27922, Note_on_c, 0, 60, 0
1, 27938, Note_on_c, 9, 44, 0
1, 27942, Note_on_c, 0, 71, 0
1, 27942, Note_on_c, 0, 54, 0
1, 27950, Note_on_c, 0, 68, 0
1, 28022, Note_on_c, 0, 75, 54
1, 28030, Note_on_c, 0, 63, 45
1, 28030, Note_on_c, 0, 54, 48
1, 28030, Note_on_c, 0, 68, 50
1, 28038, Note_on_c, 0, 60, 39
1, 28090, Note_on_c, 0, 60, 0
1, 28106, Note_on_c, 0, 63, 0
1, 28106, Note_on_c, 0, 75, 0
1, 28110, Note_on_c, 9, 40, 0
1, 28114, Note_on_c, 0, 68, 0
1, 28118, Note_on_c, 0, 54, 0
1, 28142, Note_on_c, 9, 40, 33
1, 28170, Note_on_c, 9, 40, 0
1, 28186, Note_on_c, 1, 38, 84
1, 28198, Control_c, 0, 64, 0
1, 28202, Note_on_c, 9, 40, 38
1, 28210, Note_on_c, 9, 46, 0
1, 28214, Note_on_c, 0, 62, 48
1, 28214, Note_on_c, 0, 74, 57
1, 28222, Note_on_c, 0, 54, 35
1, 28222, Note_on_c, 0, 60, 32
1, 28254, Note_on_c, 1, 50, 0
1, 28266, Note_on_c, 9, 35, 0
1, 28266, Control_c, 0, 64, 127
1, 28310, Note_on_c, 9, 40, 0
1, 28314, Note_on_c, 0, 62, 0
1, 28322, Note_on_c, 9, 38, 52
1, 28326, Note_on_c, 9, 25, 35
1, 28354, Note_on_c, 9, 38, 0
1, 28358, Note_on_c, 9, 25, 0
1, 28378, Note_on_c, 0, 74, 0
1, 28378, Note_on_c, 1, 54, 69
1, 28390, Note_on_c, 9, 40, 46
1, 28482, Note_on_c, 0, 60, 0
1, 28514, Note_on_c, 0, 72, 48
1, 28530, Note_on_c, 0, 72, 0
1, 28550, Note_on_c, 9, 40, 0
1, 28570, Control_c, 0, 64, 0
1, 28570, Note_on_c, 9, 44, 62
1, 28574, Note_on_c, 0, 60, 22
1, 28578, Note_on_c, 0, 64, 49
1, 28582, Note_on_c, 0, 81, 92
1, 28582, Note_on_c, 9, 40, 54
1, 28614, Note_on_c, 0, 64, 0
1, 28618, Note_on_c, 0, 81, 0
1, 28622, Note_on_c, 0, 84, 75
1, 28634, Note_on_c, 0, 60, 0
1, 28662, Note_on_c, 0, 81, 57
1, 28678, Note_on_c, 9, 44, 0
1, 28686, Note_on_c, 9, 40, 0
1, 28686, Note_on_c, 0, 84, 0
1, 28698, Note_on_c, 0, 81, 0
1, 28702, Note_on_c, 0, 77, 72
1, 28718, Note_on_c, 9, 40, 29
1, 28730, Note_on_c, 0, 77, 0
1, 28734, Note_on_c, 9, 40, 0
1, 28738, Note_on_c, 0, 72, 67
1, 28758, Note_on_c, 0, 72, 0
1, 28762, Note_on_c, 9, 40, 50
1, 28762, Note_on_c, 9, 35, 29
1, 28766, Note_on_c, 0, 54, 0
1, 28782, Note_on_c, 0, 71, 72
1, 28786, Note_on_c, 0, 77, 64
1, 28822, Note_on_c, 9, 35, 0
1, 28854, Note_on_c, 0, 77, 0
1, 28858, Note_on_c, 9, 40, 0
1, 28882, Note_on_c, 0, 71, 0
1, 28894, Note_on_c, 9, 40, 34
1, 28902, Note_on_c, 0, 65, 57
1, 28922, Note_on_c, 0, 65, 0
1, 28930, Note_on_c, 9, 40, 0
1, 28954, Note_on_c, 1, 43, 89
1, 28954, Note_on_c, 9, 40, 55
1, 28958, Note_on_c, 9, 46, 36
1, 28958, Note_on_c, 9, 35, 29
1, 28966, Note_on_c, 1, 38, 0
1, 28966, Note_on_c, 0, 62, 45
1, 28966, Note_on_c, 0, 58, 44
1, 28966, Note_on_c, 0, 70, 60
1, 28966, Note_on_c, 0, 74, 64
1, 28978, Note_on_c, 1, 54, 0
1, 29010, Note_on_c, 0, 57, 5
1, 29058, Note_on_c, 0, 70, 0
1, 29062, Note_on_c, 0, 74, 0
1, 29090, Note_on_c, 0, 62, 0
1, 29094, Note_on_c, 0, 70, 53
1, 29098, Note_on_c, 0, 65, 61
1, 29166, Note_on_c, 0, 65, 0
1, 29170, Note_on_c, 0, 62, 43
1, 29202, Control_c, 0, 64, 127
1, 29210, Note_on_c, 0, 58, 0
1, 29274, Note_on_c, 0, 62, 0
1, 29306, Note_on_c, 0, 70, 0
1, 29310, Note_on_c, 9, 40, 0
1, 29326, Note_on_c, 9, 40, 43
1, 29338, Note_on_c, 1, 31, 85
1, 29338, Note_on_c, 9, 44, 67
1, 29346, Control_c, 0, 64, 0
1, 29354, Note_on_c, 0, 70, 49
1, 29362, Note_on_c, 0, 58, 46
1, 29362, Note_on_c, 0, 62, 42
1, 29362, Note_on_c, 0, 65, 45
1, 29370, Control_c, 0, 64, 127
1, 29378, Note_on_c, 9, 46, 0
1, 29402, Note_on_c, 9, 35, 0
1, 29434, Note_on_c, 9, 44, 0
1, 29474, Note_on_c, 0, 57, 0
1, 29490, Note_on_c, 0, 62, 0
1, 29514, Note_on_c, 0, 58, 0
1, 29518, Note_on_c, 0, 65, 0
1, 29542, Note_on_c, 9, 35, 22
1, 29558, Note_on_c, 0, 70, 0
1, 29586, Note_on_c, 9, 35, 0
1, 29634, Note_on_c, 9, 40, 0
1, 29666, Note_on_c, 9, 40, 50
1, 29702, Note_on_c, 9, 40, 0
1, 29718, Control_c, 0, 64, 0
1, 29722, Note_on_c, 1, 42, 95
1, 29722, Note_on_c, 9, 46, 48
1, 29722, Note_on_c, 9, 54, 49
1, 29722, Note_on_c, 9, 35, 32
1, 29730, Note_on_c, 0, 75, 90
1, 29730, Note_on_c, 0, 64, 111
1, 29730, Note_on_c, 0, 68, 87
1, 29734, Note_on_c, 0, 72, 78
1, 29734, Note_on_c, 9, 40, 62
1, 29738, Note_on_c, 0, 63, 86
1, 29742, Note_on_c, 0, 73, 34
1, 29770, Note_on_c, 0, 73, 0
1, 29770, Note_on_c, 1, 43, 0
1, 29774, Note_on_c, 1, 31, 0
1, 29834, Note_on_c, 0, 64, 0
1, 29846, Note_on_c, 9, 46, 0
1, 29846, Note_on_c, 9, 54, 0
1, 29850, Note_on_c, 0, 63, 0
1, 29854, Note_on_c, 0, 68, 0
1, 29854, Note_on_c, 0, 72, 0
1, 29854, Note_on_c, 0, 75, 0
1, 29878, Note_on_c, 0, 61, 57
1, 29930, Note_on_c, 0, 61, 0
1, 29930, Note_on_c, 0, 75, 81
1, 29930, Note_on_c, 0, 68, 81
1, 29934, Note_on_c, 0, 64, 82
1, 29938, Note_on_c, 0, 72, 68
1, 29938, Note_on_c, 0, 63, 80
1, 30034, Note_on_c, 0, 64, 0
1, 30042, Note_on_c, 0, 72, 0
1, 30050, Note_on_c, 0, 75, 0
1, 30050, Note_on_c, 0, 68, 0
1, 30058, Note_on_c, 0, 63, 0
1, 30066, Note_on_c, 9, 40, 0
1, 30070, Note_on_c, 0, 61, 52
1, 30106, Note_on_c, 9, 44, 57
1, 30110, Note_on_c, 9, 40, 53
1, 30126, Note_on_c, 0, 61, 0
1, 30126, Note_on_c, 0, 63, 76
1, 30126, Note_on_c, 0, 75, 77
1, 30130, Note_on_c, 0, 68, 74
1, 30130, Note_on_c, 0, 64, 80
1, 30134, Note_on_c, 9, 35, 0
1, 30134, Note_on_c, 0, 72, 66
1, 30142, Control_c, 0, 64, 127
1, 30210, Note_on_c, 0, 72, 0
1, 30210, Note_on_c, 0, 64, 0
1, 30218, Note_on_c, 9, 44, 0
1, 30230, Note_on_c, 0, 75, 0
1, 30230, Note_on_c, 0, 68, 0
1, 30234, Note_on_c, 9, 39, 62
1, 30238, Note_on_c, 9, 40, 0
1, 30238, Note_on_c, 0, 63, 0
1, 30254, Note_on_c, 0, 73, 66
1, 30254, Note_on_c, 0, 64, 57
1, 30258, Note_on_c, 0, 68, 70
1, 30258, Note_on_c, 0, 61, 62
1, 30274, Note_on_c, 9, 39, 0
1, 30302, Note_on_c, 0, 64, 0
1, 30302, Note_on_c, 9, 40, 36
1, 30310, Note_on_c, 9, 35, 29
1, 30318, Note_on_c, 0, 61, 0
1, 30322, Control_c, 0, 64, 0
1, 30330, Note_on_c, 9, 35, 0
1, 30330, Note_on_c, 0, 60, 49
1, 30342, Note_on_c, 0, 64, 39
1, 30342, Control_c, 0, 64, 127
1, 30362, Note_on_c, 0, 73, 0
1, 30402, Note_on_c, 0, 64, 0
1, 30414, Note_on_c, 0, 68, 0
1, 30434, Note_on_c, 0, 60, 0
1, 30450, Note_on_c, 9, 40, 0
1, 30450, Note_on_c, 0, 58, 50
1, 30450, Note_on_c, 0, 70, 40
1, 30454, Control_c, 0, 64, 0
1, 30486, Note_on_c, 0, 70, 0
1, 30490, Note_on_c, 1, 41, 90
1, 30494, Note_on_c, 9, 54, 62
1, 30494, Note_on_c, 9, 46, 60
1, 30498, Note_on_c, 9, 40, 48
1, 30498, Note_on_c, 9, 35, 37
1, 30502, Note_on_c, 0, 58, 0
1, 30506, Note_on_c, 1, 42, 0
1, 30510, Note_on_c, 0, 62, 54
1, 30510, Control_c, 0, 64, 127
1, 30510, Note_on_c, 0, 57, 58
1, 30510, Note_on_c, 0, 72, 46
1, 30510, Note_on_c, 0, 67, 57
1, 30546, Note_on_c, 9, 54, 0
1, 30546, Note_on_c, 9, 46, 0
1, 30554, Note_on_c, 9, 35, 0
1, 30646, Note_on_c, 0, 72, 0
1, 30650, Note_on_c, 0, 67, 0
1, 30650, Note_on_c, 0, 57, 0
1, 30674, Note_on_c, 0, 62, 0
1, 30826, Note_on_c, 9, 40, 0
1, 30862, Control_c, 0, 64, 0
1, 30866, Note_on_c, 9, 40, 49
1, 30874, Note_on_c, 9, 44, 63
1, 30890, Note_on_c, 0, 65, 70
1, 30894, Note_on_c, 0, 60, 75
1, 30898, Note_on_c, 0, 55, 59
1, 30898, Note_on_c, 0, 50, 63
1, 30906, Control_c, 0, 64, 127
1, 30962, Note_on_c, 0, 65, 0
1, 30970, Note_on_c, 9, 44, 0
1, 30974, Note_on_c, 0, 50, 0
1, 30982, Note_on_c, 0, 55, 0
1, 30994, Note_on_c, 0, 60, 0
1, 31022, Note_on_c, 0, 55, 44
1, 31022, Note_on_c, 0, 60, 42
1, 31022, Note_on_c, 0, 65, 45
1, 31034, Note_on_c, 0, 50, 59
1, 31038, Note_on_c, 0, 55, 0
1, 31042, Note_on_c, 0, 65, 0
1, 31054, Note_on_c, 0, 60, 0
1, 31058, Note_on_c, 9, 35, 30
1, 31074, Control_c, 0, 64, 0
1, 31094, Note_on_c, 0, 67, 63
1, 31094, Note_on_c, 0, 62, 49
1, 31098, Note_on_c, 0, 52, 77
1, 31098, Note_on_c, 0, 59, 47
1, 31106, Note_on_c, 0, 50, 0
1, 31110, Note_on_c, 9, 35, 0
1, 31122, Control_c, 0, 64, 127
1, 31154, Note_on_c, 0, 67, 0
1, 31166, Note_on_c, 0, 59, 0
1, 31170, Note_on_c, 9, 40, 0
1, 31182, Note_on_c, 0, 62, 0
1, 31202, Note_on_c, 9, 40, 45
1, 31226, Note_on_c, 9, 40, 0
1, 31226, Control_c, 0, 64, 0
1, 31234, Note_on_c, 0, 66, 77
1, 31242, Note_on_c, 0, 62, 75
1, 31242, Note_on_c, 0, 60, 77
1, 31246, Note_on_c, 0, 52, 0
1, 31246, Note_on_c, 0, 69, 69
1, 31250, Note_on_c, 0, 53, 69
1, 31258, Note_on_c, 0, 68, 37
1, 31262, Note_on_c, 9, 40, 53
1, 31270, Note_on_c, 0, 65, 48
1, 31270, Control_c, 0, 64, 127
1, 31274, Note_on_c, 0, 68, 0
1, 31274, Note_on_c, 0, 66, 0
1, 31282, Note_on_c, 0, 65, 0
1, 31294, Note_on_c, 0, 62, 0
1, 31298, Note_on_c, 0, 69, 0
1, 31302, Note_on_c, 0, 60, 0
1, 31370, Note_on_c, 0, 53, 0
1, 31386, Control_c, 0, 64, 0
1, 31390, Note_on_c, 0, 72, 74
1, 31390, Note_on_c, 0, 62, 76
1, 31390, Note_on_c, 0, 65, 80
1, 31390, Note_on_c, 0, 57, 87
1, 31390, Note_on_c, 0, 69, 72
1, 31418, Control_c, 0, 64, 127
1, 31446, Note_on_c, 0, 62, 0
1, 31450, Note_on_c, 1, 33, 96
1, 31454, Note_on_c, 0, 72, 0
1, 31462, Note_on_c, 0, 65, 0
1, 31462, Note_on_c, 0, 69, 0
1, 31466, Note_on_c, 0, 57, 0
1, 31494, Note_on_c, 1, 41, 0
1, 31498, Note_on_c, 0, 72, 76
1, 31498, Note_on_c, 0, 65, 76
1, 31498, Note_on_c, 0, 57, 73
1, 31502, Note_on_c, 0, 62, 76
1, 31514, Note_on_c, 0, 69, 33
1, 31530, Note_on_c, 0, 71, 31
1, 31538, Note_on_c, 0, 62, 0
1, 31538, Note_on_c, 0, 65, 0
1, 31542, Note_on_c, 0, 69, 0
1, 31558, Note_on_c, 0, 71, 0
1, 31562, Note_on_c, 0, 72, 0
1, 31562, Note_on_c, 9, 40, 0
1, 31594, Note_on_c, 9, 40, 36
1, 31614, Note_on_c, 9, 40, 0
1, 31638, Note_on_c, 0, 57, 0
1, 31638, Control_c, 0, 64, 0
1, 31642, Note_on_c, 1, 45, 102
1, 31642, Note_on_c, 9, 46, 38
1, 31646, Note_on_c, 0, 74, 79
1, 31646, Note_on_c, 9, 40, 43
1, 31646, Note_on_c, 9, 35, 37
1, 31650, Note_on_c, 0, 69, 76
1, 31654, Note_on_c, 0, 65, 72
1, 31654, Note_on_c, 0, 62, 64
1, 31674, Control_c, 0, 64, 127
1, 31682, Note_on_c, 9, 35, 0
1, 31730, Note_on_c, 0, 62, 0
1, 31730, Note_on_c, 1, 33, 0
1, 31734, Note_on_c, 0, 65, 0
1, 31734, Note_on_c, 0, 69, 0
1, 31738, Note_on_c, 9, 46, 0
1, 31742, Note_on_c, 0, 74, 0
1, 31778, Note_on_c, 0, 69, 66
1, 31778, Note_on_c, 0, 74, 61
1, 31778, Note_on_c, 0, 65, 60
1, 31786, Note_on_c, 0, 62, 62
1, 31794, Note_on_c, 0, 65, 0
1, 31810, Note_on_c, 0, 69, 0
1, 31814, Note_on_c, 0, 74, 0
1, 31834, Note_on_c, 1, 33, 87
1, 31878, Note_on_c, 1, 45, 0
1, 31878, Note_on_c, 0, 62, 0
1, 31902, Note_on_c, 0, 77, 77
1, 31906, Note_on_c, 0, 70, 64
1, 31906, Note_on_c, 0, 61, 63
1, 31906, Note_on_c, 0, 73, 58
1, 31906, Note_on_c, 0, 67, 50
1, 31930, Note_on_c, 9, 40, 0
1, 31942, Note_on_c, 0, 67, 0
1, 31950, Note_on_c, 0, 70, 0
1, 31950, Note_on_c, 0, 73, 0
1, 31954, Note_on_c, 0, 77, 0
1, 31954, Note_on_c, 9, 35, 32
1, 31958, Note_on_c, 9, 40, 41
1, 31970, Note_on_c, 9, 35, 0
1, 31978, Note_on_c, 0, 61, 0
1, 31982, Note_on_c, 9, 40, 0
1, 32018, Note_on_c, 9, 40, 49
1, 32018, Note_on_c, 9, 54, 63
1, 32022, Note_on_c, 9, 46, 62
1, 32026, Note_on_c, 1, 38, 94
1, 32030, Control_c, 0, 64, 0
1, 32030, Note_on_c, 9, 35, 44
1, 32038, Note_on_c, 0, 69, 57
1, 32038, Note_on_c, 0, 79, 64
1, 32042, Note_on_c, 1, 33, 0
1, 32042, Note_on_c, 0, 72, 61
1, 32046, Note_on_c, 0, 64, 57
1, 32066, Note_on_c, 0, 79, 0
1, 32118, Control_c, 0, 64, 127
1, 32142, Note_on_c, 0, 69, 0
1, 32150, Note_on_c, 0, 72, 0
1, 32158, Note_on_c, 0, 64, 0
1, 32182, Note_on_c, 9, 54, 0
1, 32182, Note_on_c, 9, 46, 0
1, 32186, Note_on_c, 0, 72, 57
1, 32186, Note_on_c, 0, 79, 74
1, 32190, Note_on_c, 0, 69, 60
1, 32190, Note_on_c, 0, 64, 62
1, 32194, Control_c, 0, 64, 0
1, 32198, Control_c, 0, 64, 127
1, 32234, Note_on_c, 9, 35, 0
1, 32246, Note_on_c, 0, 79, 0
1, 32266, Note_on_c, 0, 72, 0
1, 32274, Note_on_c, 0, 69, 0
1, 32298, Note_on_c, 0, 64, 0
1, 32318, Note_on_c, 0, 77, 63
1, 32318, Note_on_c, 0, 72, 57
1, 32318, Note_on_c, 0, 69, 42
1, 32326, Note_on_c, 0, 62, 55
1, 32358, Note_on_c, 0, 69, 0
1, 32362, Note_on_c, 0, 72, 0
1, 32366, Note_on_c, 0, 77, 0
1, 32378, Note_on_c, 9, 40, 0
1, 32410, Note_on_c, 0, 62, 0
1, 32410, Note_on_c, 9, 44, 58
1, 32410, Note_on_c, 9, 40, 51
1, 32434, Note_on_c, 0, 79, 67
1, 32434, Note_on_c, 0, 72, 57
1, 32434, Note_on_c, 0, 69, 54
1, 32434, Note_on_c, 0, 64, 52
1, 32438, Control_c, 0, 64, 0
1, 32478, Control_c, 0, 64, 127
1, 32502, Note_on_c, 0, 79, 0
1, 32506, Note_on_c, 0, 72, 0
1, 32506, Note_on_c, 9, 44, 0
1, 32514, Note_on_c, 0, 69, 0
1, 32514, Note_on_c, 0, 64, 0
1, 32562, Note_on_c, 0, 64, 54
1, 32562, Note_on_c, 0, 79, 62
1, 32570, Note_on_c, 0, 69, 40
1, 32570, Note_on_c, 0, 72, 48
1, 32598, Note_on_c, 0, 64, 0
1, 32622, Note_on_c, 9, 35, 11
1, 32626, Note_on_c, 0, 69, 0
1, 32634, Note_on_c, 0, 72, 0
1, 32642, Note_on_c, 0, 79, 0
1, 32678, Note_on_c, 0, 77, 61
1, 32686, Note_on_c, 9, 35, 0
1, 32714, Note_on_c, 0, 77, 0
1, 32774, Note_on_c, 9, 40, 0
1, 32790, Control_c, 0, 64, 0
1, 32794, Note_on_c, 0, 81, 68
1, 32802, Note_on_c, 0, 49, 42
1, 32802, Note_on_c, 0, 69, 41
1, 32806, Note_on_c, 0, 57, 42
1, 32806, Note_on_c, 9, 40, 55
1, 32806, Note_on_c, 9, 35, 25
1, 32810, Note_on_c, 0, 73, 42
1, 32862, Control_c, 0, 64, 127
1, 32890, Note_on_c, 9, 35, 0
1, 32938, Note_on_c, 0, 81, 0
1, 32950, Note_on_c, 0, 73, 0
1, 32958, Note_on_c, 0, 69, 0
1, 32974, Note_on_c, 0, 57, 0
1, 32986, Note_on_c, 1, 50, 104
1, 33126, Note_on_c, 0, 57, 52
1, 33158, Note_on_c, 0, 57, 0
1, 33158, Note_on_c, 9, 40, 0
1, 33174, Note_on_c, 1, 50, 0
1, 33178, Note_on_c, 1, 49, 88
1, 33178, Note_on_c, 9, 44, 60
1, 33190, Note_on_c, 9, 40, 55
1, 33194, Note_on_c, 0, 61, 45
1, 33198, Control_c, 0, 64, 0
1, 33206, Note_on_c, 0, 57, 38
1, 33210, Note_on_c, 0, 61, 0
1, 33238, Note_on_c, 1, 38, 0
1, 33274, Note_on_c, 9, 44, 0
1, 33314, Note_on_c, 0, 69, 64
1, 33354, Note_on_c, 0, 49, 0
1, 33354, Note_on_c, 0, 57, 0
1, 33358, Note_on_c, 0, 69, 0
1, 33366, Note_on_c, 9, 25, 50
1, 33370, Note_on_c, 1, 38, 81
1, 33374, Note_on_c, 0, 73, 84
1, 33390, Note_on_c, 0, 49, 45
1, 33394, Note_on_c, 0, 57, 36
1, 33398, Note_on_c, 9, 25, 0
1, 33426, Note_on_c, 0, 73, 0
1, 33446, Note_on_c, 0, 76, 77
1, 33458, Note_on_c, 0, 57, 0
1, 33474, Note_on_c, 0, 76, 0
1, 33502, Note_on_c, 0, 81, 117
1, 33514, Note_on_c, 9, 40, 0
1, 33526, Note_on_c, 1, 49, 0
1, 33534, Note_on_c, 0, 49, 0
1, 33558, Note_on_c, 9, 40, 53
1, 33562, Note_on_c, 1, 48, 88
1, 33566, Note_on_c, 0, 85, 87
1, 33566, Note_on_c, 0, 57, 51
1, 33574, Note_on_c, 0, 48, 47
1, 33586, Note_on_c, 0, 81, 0
1, 33598, Note_on_c, 1, 38, 0
1, 33626, Note_on_c, 0, 85, 0
1, 33634, Note_on_c, 0, 88, 81
1, 33682, Note_on_c, 0, 88, 0
1, 33698, Note_on_c, 0, 86, 75
1, 33750, Note_on_c, 0, 86, 0
1, 33754, Note_on_c, 0, 57, 0
1, 33778, Note_on_c, 0, 81, 50
1, 33814, Note_on_c, 0, 81, 0
1, 33906, Note_on_c, 0, 77, 58
1, 33918, Note_on_c, 9, 40, 0
1, 33938, Note_on_c, 0, 77, 0
1, 33946, Note_on_c, 9, 44, 63
1, 33950, Note_on_c, 9, 40, 52
1, 33966, Control_c, 0, 64, 127
1, 33978, Note_on_c, 0, 57, 39
1, 33994, Note_on_c, 0, 74, 47
1, 34042, Note_on_c, 9, 44, 0
1, 34106, Note_on_c, 0, 74, 0
1, 34138, Note_on_c, 9, 40, 0
1, 34138, Note_on_c, 9, 25, 42
1, 34150, Note_on_c, 9, 38, 40
1, 34182, Note_on_c, 0, 69, 28
1, 34206, Note_on_c, 0, 69, 0
1, 34250, Note_on_c, 0, 48, 0
1, 34330, Note_on_c, 1, 47, 82
1, 34330, Note_on_c, 9, 40, 57
1, 34334, Note_on_c, 1, 48, 0
1, 34334, Control_c, 0, 64, 0
1, 34346, Note_on_c, 9, 25, 0
1, 34346, Note_on_c, 0, 57, 0
1, 34350, Note_on_c, 0, 47, 57
1, 34354, Note_on_c, 9, 38, 0
1, 34362, Note_on_c, 0, 47, 0
1, 34374, Control_c, 0, 64, 127
1, 34474, Note_on_c, 0, 62, 57
1, 34478, Note_on_c, 0, 77, 65
1, 34478, Note_on_c, 0, 67, 54
1, 34486, Note_on_c, 0, 72, 51
1, 34494, Note_on_c, 0, 67, 0
1, 34498, Note_on_c, 0, 72, 0
1, 34514, Note_on_c, 0, 77, 0
1, 34530, Note_on_c, 0, 62, 0
1, 34538, Control_c, 0, 64, 0
1, 34558, Note_on_c, 0, 64, 50
1, 34558, Note_on_c, 0, 74, 75
1, 34558, Note_on_c, 0, 79, 77
1, 34558, Note_on_c, 0, 69, 68
1, 34594, Control_c, 0, 64, 40
1, 34594, Control_c, 0, 64, 127
1, 34622, Note_on_c, 0, 79, 0
1, 34622, Note_on_c, 0, 74, 0
1, 34634, Note_on_c, 0, 69, 0
1, 34654, Control_c, 0, 64, 0
1, 34662, Note_on_c, 0, 64, 0
1, 34674, Note_on_c, 0, 77, 70
1, 34674, Note_on_c, 0, 72, 66
1, 34678, Note_on_c, 0, 67, 61
1, 34678, Note_on_c, 0, 62, 61
1, 34690, Note_on_c, 9, 40, 0
1, 34714, Note_on_c, 9, 44, 62
1, 34718, Note_on_c, 9, 40, 52
1, 34734, Note_on_c, 0, 77, 0
1, 34742, Control_c, 0, 64, 127
1, 34750, Note_on_c, 0, 72, 0
1, 34762, Note_on_c, 0, 67, 0
1, 34798, Note_on_c, 0, 71, 61
1, 34802, Note_on_c, 0, 62, 0
1, 34802, Note_on_c, 0, 76, 64
1, 34802, Note_on_c, 0, 65, 57
1, 34806, Note_on_c, 0, 60, 52
1, 34814, Note_on_c, 9, 44, 0
1, 34842, Note_on_c, 1, 47, 0
1, 34842, Note_on_c, 1, 38, 79
1, 34842, Note_on_c, 9, 32, 35
1, 34850, Note_on_c, 0, 71, 0
1, 34858, Note_on_c, 0, 76, 0
1, 34874, Note_on_c, 0, 65, 0
1, 34874, Note_on_c, 1, 38, 0
1, 34894, Control_c, 0, 64, 0
1, 34902, Note_on_c, 9, 32, 0
1, 34918, Note_on_c, 0, 60, 0
1, 34926, Note_on_c, 0, 74, 68
1, 34930, Note_on_c, 0, 64, 52
1, 34934, Note_on_c, 0, 69, 54
1, 34934, Note_on_c, 0, 58, 53
1, 34934, Control_c, 0, 64, 127
1, 34954, Note_on_c, 0, 69, 0
1, 34954, Control_c, 0, 64, 0
1, 34970, Note_on_c, 1, 42, 94
1, 34974, Note_on_c, 0, 74, 0
1, 34990, Note_on_c, 9, 32, 36
1, 34994, Note_on_c, 0, 64, 0
1, 35006, Control_c, 0, 64, 127
1, 35018, Note_on_c, 9, 40, 0
1, 35034, Note_on_c, 0, 58, 0
1, 35042, Note_on_c, 0, 72, 65
1, 35050, Note_on_c, 0, 67, 56
1, 35050, Note_on_c, 0, 57, 56
1, 35050, Note_on_c, 9, 40, 33
1, 35066, Note_on_c, 9, 32, 0
1, 35066, Note_on_c, 0, 62, 25
1, 35070, Note_on_c, 9, 40, 0
1, 35074, Note_on_c, 1, 42, 0
1, 35078, Note_on_c, 0, 67, 0
1, 35086, Note_on_c, 0, 57, 0
1, 35086, Note_on_c, 0, 62, 0
1, 35098, Note_on_c, 1, 43, 86
1, 35098, Note_on_c, 9, 40, 56
1, 35114, Note_on_c, 0, 72, 0
1, 35122, Note_on_c, 9, 35, 25
1, 35138, Control_c, 0, 64, 0
1, 35170, Note_on_c, 0, 69, 68
1, 35178, Note_on_c, 0, 62, 45
1, 35226, Note_on_c, 0, 62, 0
1, 35234, Note_on_c, 9, 35, 0
1, 35238, Note_on_c, 0, 69, 0
1, 35318, Note_on_c, 0, 69, 65
1, 35318, Note_on_c, 0, 62, 40
1, 35330, Note_on_c, 0, 58, 36
1, 35350, Note_on_c, 0, 55, 30
1, 35426, Note_on_c, 9, 40, 0
1, 35450, Note_on_c, 0, 58, 0
1, 35450, Note_on_c, 0, 62, 0
1, 35474, Note_on_c, 0, 55, 0
1, 35478, Note_on_c, 9, 40, 57
1, 35482, Note_on_c, 9, 44, 63
1, 35498, Note_on_c, 0, 62, 45
1, 35502, Note_on_c, 0, 58, 37
1, 35510, Note_on_c, 0, 55, 22
1, 35514, Note_on_c, 0, 57, 27
1, 35578, Note_on_c, 9, 44, 0
1, 35618, Note_on_c, 0, 58, 0
1, 35626, Note_on_c, 0, 57, 0
1, 35626, Note_on_c, 0, 62, 0
1, 35634, Note_on_c, 0, 55, 0
1, 35690, Note_on_c, 0, 62, 47
1, 35694, Note_on_c, 0, 58, 41
1, 35698, Note_on_c, 0, 55, 43
1, 35794, Note_on_c, 9, 40, 0
1, 35802, Note_on_c, 1, 31, 73
1, 35810, Note_on_c, 0, 62, 0
1, 35818, Note_on_c, 0, 55, 0
1, 35822, Note_on_c, 9, 40, 35
1, 35834, Note_on_c, 0, 58, 0
1, 35842, Note_on_c, 9, 40, 0
1, 35866, Note_on_c, 1, 42, 74
1, 35870, Note_on_c, 9, 40, 45
1, 35882, Note_on_c, 1, 43, 0
1, 35882, Note_on_c, 0, 62, 46
1, 35882, Note_on_c, 0, 58, 39
1, 35886, Note_on_c, 0, 54, 38
1, 35910, Note_on_c, 9, 35, 17
1, 35926, Note_on_c, 9, 35, 0
1, 35966, Note_on_c, 0, 54, 0
1, 35970, Note_on_c, 0, 62, 0
1, 35970, Note_on_c, 0, 58, 0
1, 35998, Note_on_c, 9, 40, 0
1, 36002, Note_on_c, 9, 39, 69
1, 36034, Note_on_c, 9, 39, 0
1, 36050, Note_on_c, 0, 69, 0
1, 36050, Note_on_c, 1, 31, 0
1, 36066, Note_on_c, 9, 40, 27
1, 36074, Note_on_c, 0, 54, 47
1, 36074, Note_on_c, 0, 62, 49
1, 36078, Note_on_c, 0, 58, 49
1, 36214, Note_on_c, 9, 40, 0
1, 36250, Note_on_c, 9, 44, 67
1, 36258, Note_on_c, 0, 69, 51
1, 36258, Note_on_c, 9, 40, 45
1, 36294, Note_on_c, 0, 58, 0
1, 36302, Note_on_c, 0, 62, 0
1, 36338, Note_on_c, 0, 69, 0
1, 36346, Note_on_c, 9, 44, 0
1, 36378, Note_on_c, 0, 70, 62
1, 36406, Note_on_c, 0, 70, 0
1, 36438, Note_on_c, 9, 35, 23
1, 36446, Note_on_c, 0, 58, 47
1, 36450, Note_on_c, 0, 62, 39
1, 36450, Note_on_c, 0, 72, 52
1, 36450, Note_on_c, 0, 74, 70
1, 36462, Note_on_c, 0, 72, 0
1, 36482, Note_on_c, 0, 62, 0
1, 36502, Note_on_c, 0, 74, 0
1, 36502, Note_on_c, 9, 35, 0
1, 36506, Note_on_c, 0, 58, 0
1, 36566, Note_on_c, 0, 86, 77
1, 36574, Note_on_c, 0, 54, 0
1, 36594, Note_on_c, 9, 40, 0
1, 36614, Note_on_c, 0, 86, 0
1, 36630, Note_on_c, 0, 58, 49
1, 36638, Note_on_c, 0, 62, 33
1, 36642, Note_on_c, 0, 53, 38
1, 36642, Note_on_c, 0, 81, 54
1, 36642, Note_on_c, 9, 40, 53
1, 36642, Note_on_c, 9, 35, 32
1, 36686, Note_on_c, 1, 42, 0
1, 36694, Note_on_c, 9, 35, 0
1, 36698, Note_on_c, 1, 41, 83
1, 36746, Note_on_c, 0, 62, 0
1, 36754, Note_on_c, 0, 81, 0
1, 36754, Note_on_c, 0, 53, 0
1, 36770, Note_on_c, 0, 58, 0
1, 36822, Note_on_c, 0, 81, 54
1, 36826, Note_on_c, 0, 58, 43
1, 36826, Note_on_c, 0, 62, 40
1, 36830, Note_on_c, 0, 53, 43
1, 36934, Note_on_c, 0, 53, 0
1, 36938, Note_on_c, 0, 62, 0
1, 36950, Note_on_c, 9, 40, 0
1, 36950, Note_on_c, 0, 58, 0
1, 36958, Note_on_c, 0, 81, 0
1, 37006, Note_on_c, 9, 40, 54
1, 37018, Note_on_c, 9, 44, 63
1, 37022, Control_c, 0, 64, 127
1, 37034, Note_on_c, 0, 81, 66
1, 37034, Note_on_c, 0, 62, 41
1, 37034, Note_on_c, 0, 58, 48
1, 37034, Note_on_c, 0, 53, 43
1, 37118, Note_on_c, 9, 44, 0
1, 37226, Note_on_c, 0, 58, 0
1, 37254, Note_on_c, 0, 53, 0
1, 37286, Note_on_c, 0, 62, 0
1, 37354, Note_on_c, 0, 81, 0
1, 37354, Note_on_c, 9, 40, 0
1, 37354, Note_on_c, 9, 39, 61
1, 37390, Note_on_c, 9, 39, 0
1, 37402, Control_c, 0, 64, 0
1, 37402, Note_on_c, 1, 40, 81
1, 37414, Note_on_c, 0, 58, 46
1, 37414, Note_on_c, 0, 62, 42
1, 37418, Note_on_c, 1, 41, 0
1, 37418, Note_on_c, 0, 52, 45
1, 37418, Note_on_c, 9, 40, 53
1, 37502, Control_c, 0, 64, 127
1, 37554, Control_c, 0, 64, 0
1, 37622, Note_on_c, 0, 80, 37
1, 37626, Note_on_c, 0, 52, 0
1, 37634, Note_on_c, 0, 58, 0
1, 37690, Note_on_c, 0, 62, 0
1, 37694, Note_on_c, 0, 80, 0
1, 37746, Note_on_c, 9, 40, 0
1, 37746, Note_on_c, 0, 81, 86
1, 37786, Note_on_c, 1, 39, 83
1, 37786, Note_on_c, 1, 38, 54
1, 37786, Note_on_c, 9, 44, 67
1, 37790, Note_on_c, 9, 40, 54
1, 37802, Note_on_c, 0, 81, 0
1, 37802, Note_on_c, 1, 40, 0
1, 37822, Note_on_c, 0, 84, 94
1, 37838, Note_on_c, 0, 61, 35
1, 37846, Note_on_c, 1, 38, 0
1, 37862, Note_on_c, 0, 61, 0
1, 37874, Note_on_c, 0, 84, 0
1, 37898, Note_on_c, 9, 44, 0
1, 37942, Note_on_c, 0, 82, 72
1, 37954, Note_on_c, 0, 61, 47
1, 37954, Note_on_c, 0, 65, 39
1, 37954, Note_on_c, 0, 55, 42
1, 37994, Note_on_c, 0, 82, 0
1, 37998, Note_on_c, 0, 65, 0
1, 38026, Note_on_c, 0, 81, 64
1, 38038, Note_on_c, 0, 55, 0
1, 38058, Note_on_c, 0, 61, 0
1, 38086, Note_on_c, 9, 40, 0
1, 38098, Note_on_c, 0, 81, 0
1, 38114, Note_on_c, 9, 35, 24
1, 38118, Note_on_c, 9, 40, 43
1, 38134, Note_on_c, 9, 35, 0
1, 38142, Note_on_c, 0, 79, 55
1, 38154, Note_on_c, 9, 40, 0
1, 38158, Note_on_c, 0, 79, 0
1, 38170, Note_on_c, 1, 38, 83
1, 38174, Note_on_c, 9, 40, 45
1, 38182, Note_on_c, 1, 39, 0
1, 38186, Note_on_c, 9, 46, 37
1, 38190, Note_on_c, 9, 35, 23
1, 38222, Note_on_c, 0, 79, 57
1, 38226, Note_on_c, 9, 46, 0
1, 38226, Note_on_c, 0, 69, 43
1, 38226, Note_on_c, 0, 64, 40
1, 38230, Note_on_c, 0, 72, 39
1, 38254, Note_on_c, 9, 35, 0
1, 38262, Note_on_c, 0, 72, 0
1, 38270, Note_on_c, 0, 79, 0
1, 38278, Note_on_c, 0, 64, 0
1, 38286, Note_on_c, 0, 69, 0
1, 38334, Note_on_c, 0, 63, 57
1, 38394, Note_on_c, 0, 63, 0
1, 38402, Note_on_c, 0, 69, 58
1, 38402, Note_on_c, 0, 77, 66
1, 38406, Note_on_c, 0, 72, 55
1, 38410, Note_on_c, 0, 62, 55
1, 38458, Note_on_c, 0, 77, 0
1, 38462, Note_on_c, 0, 72, 0
1, 38474, Note_on_c, 0, 69, 0
1, 38478, Note_on_c, 0, 62, 0
1, 38522, Note_on_c, 9, 40, 0
1, 38522, Note_on_c, 0, 61, 49
1, 38554, Note_on_c, 9, 44, 64
1, 38558, Note_on_c, 9, 40, 52
1, 38570, Note_on_c, 0, 61, 0
1, 38582, Note_on_c, 0, 76, 57
1, 38582, Note_on_c, 0, 65, 46
1, 38590, Note_on_c, 0, 69, 51
1, 38594, Note_on_c, 0, 60, 49
1, 38638, Note_on_c, 0, 76, 0
1, 38650, Note_on_c, 0, 69, 0
1, 38658, Note_on_c, 0, 65, 0
1, 38666, Note_on_c, 9, 44, 0
1, 38678, Note_on_c, 0, 60, 0
1, 38702, Control_c, 0, 64, 127
1, 38706, Note_on_c, 0, 65, 48
1, 38706, Note_on_c, 0, 69, 46
1, 38710, Note_on_c, 0, 74, 52
1, 38710, Note_on_c, 0, 57, 48
1, 38754, Note_on_c, 0, 69, 0
1, 38762, Note_on_c, 0, 65, 0
1, 38766, Note_on_c, 0, 74, 0
1, 38766, Note_on_c, 0, 57, 0
1, 38862, Note_on_c, 9, 40, 0
1, 38870, Control_c, 0, 64, 0
1, 38874, Note_on_c, 1, 45, 72
1, 38890, Note_on_c, 0, 72, 57
1, 38890, Note_on_c, 9, 40, 51
1, 38894, Note_on_c, 0, 69, 54
1, 38894, Note_on_c, 0, 65, 55
1, 38894, Note_on_c, 0, 62, 45
1, 38894, Note_on_c, 0, 57, 51
1, 38914, Control_c, 0, 64, 127
1, 38926, Note_on_c, 9, 40, 0
1, 38938, Note_on_c, 1, 53, 90
1, 38946, Note_on_c, 9, 40, 37
1, 38950, Note_on_c, 1, 45, 0
1, 38978, Note_on_c, 0, 69, 0
1, 38986, Note_on_c, 0, 72, 0
1, 38990, Note_on_c, 0, 65, 0
1, 39002, Note_on_c, 0, 57, 0
1, 39018, Note_on_c, 0, 62, 0
1, 39082, Note_on_c, 0, 52, 52
1, 39082, Control_c, 0, 64, 0
1, 39126, Note_on_c, 0, 52, 0
1, 39138, Note_on_c, 0, 67, 68
1, 39142, Note_on_c, 0, 57, 56
1, 39146, Note_on_c, 0, 60, 49
1, 39150, Note_on_c, 0, 55, 58
1, 39194, Note_on_c, 0, 67, 0
1, 39214, Note_on_c, 0, 57, 0
1, 39222, Note_on_c, 0, 60, 0
1, 39246, Note_on_c, 0, 55, 0
1, 39254, Note_on_c, 0, 66, 61
1, 39258, Note_on_c, 0, 57, 53
1, 39258, Note_on_c, 0, 60, 48
1, 39262, Note_on_c, 0, 54, 57
1, 39266, Note_on_c, 0, 66, 0
1, 39282, Note_on_c, 9, 40, 0
1, 39298, Note_on_c, 0, 57, 0
1, 39306, Note_on_c, 0, 60, 0
1, 39306, Note_on_c, 0, 54, 0
1, 39322, Note_on_c, 0, 57, 45
1, 39322, Note_on_c, 9, 44, 67
1, 39326, Note_on_c, 0, 65, 50
1, 39330, Note_on_c, 9, 40, 57
1, 39334, Note_on_c, 0, 60, 24
1, 39334, Note_on_c, 0, 53, 50
1, 39382, Note_on_c, 0, 60, 0
1, 39386, Note_on_c, 1, 50, 76
1, 39406, Note_on_c, 0, 57, 0
1, 39414, Note_on_c, 0, 65, 0
1, 39422, Note_on_c, 1, 53, 0
1, 39430, Note_on_c, 1, 38, 0
1, 39434, Note_on_c, 0, 53, 0
1, 39434, Control_c, 0, 64, 127
1, 39442, Note_on_c, 9, 44, 0
1, 39446, Note_on_c, 1, 50, 0
1, 39450, Note_on_c, 1, 45, 79
1, 39454, Note_on_c, 0, 57, 58
1, 39454, Note_on_c, 0, 60, 62
1, 39462, Note_on_c, 0, 50, 56
1, 39482, Note_on_c, 0, 50, 0
1, 39494, Note_on_c, 1, 45, 0
1, 39514, Note_on_c, 1, 38, 90
1, 39518, Note_on_c, 0, 60, 0
1, 39570, Note_on_c, 0, 57, 0
1, 39586, Note_on_c, 9, 40, 0
1, 39630, Note_on_c, 9, 40, 44
1, 39650, Note_on_c, 1, 38, 0
1, 39662, Note_on_c, 9, 40, 0
1, 39690, Control_c, 0, 64, 0
1, 39694, Note_on_c, 9, 40, 56
1, 39706, Note_on_c, 1, 38, 89
1, 39706, Note_on_c, 9, 35, 23
1, 39718, Note_on_c, 0, 26, 58
1, 39718, Note_on_c, 0, 38, 53
1, 39742, Control_c, 0, 64, 127
1, 39762, Note_on_c, 9, 35, 0
1, 39802, Note_on_c, 0, 26, 0
1, 39830, Note_on_c, 0, 38, 0
1, 40046, Note_on_c, 9, 40, 0
1, 40078, Note_on_c, 9, 40, 49
1, 40090, Note_on_c, 9, 44, 69
1, 40190, Note_on_c, 9, 44, 0
1, 40198, Note_on_c, 9, 40, 0
1, 40202, Note_on_c, 9, 39, 42
1, 40206, Note_on_c, 0, 65, 64
1, 40210, Note_on_c, 0, 74, 60
1, 40214, Note_on_c, 0, 70, 55
1, 40218, Note_on_c, 0, 60, 41
1, 40222, Note_on_c, 0, 54, 36
1, 40230, Note_on_c, 0, 74, 0
1, 40230, Note_on_c, 0, 65, 0
1, 40238, Note_on_c, 0, 60, 0
1, 40242, Note_on_c, 0, 54, 0
1, 40250, Note_on_c, 0, 70, 0
1, 40258, Note_on_c, 9, 39, 0
1, 40266, Control_c, 0, 64, 0
1, 40266, Note_on_c, 9, 53, 41
1, 40270, Note_on_c, 9, 40, 38
1, 40274, Note_on_c, 0, 63, 71
1, 40278, Note_on_c, 0, 72, 55
1, 40286, Note_on_c, 0, 63, 0
1, 40294, Note_on_c, 9, 53, 0
1, 40294, Note_on_c, 0, 60, 30
1, 40294, Note_on_c, 0, 54, 36
1, 40314, Note_on_c, 0, 72, 0
1, 40330, Note_on_c, 0, 74, 66
1, 40334, Note_on_c, 0, 70, 57
1, 40334, Note_on_c, 0, 65, 60
1, 40390, Note_on_c, 9, 40, 0
1, 40394, Note_on_c, 9, 39, 50
1, 40398, Note_on_c, 0, 65, 0
1, 40410, Note_on_c, 0, 74, 0
1, 40410, Note_on_c, 1, 45, 45
1, 40422, Note_on_c, 0, 54, 0
1, 40426, Note_on_c, 0, 60, 0
1, 40426, Note_on_c, 0, 70, 0
1, 40430, Note_on_c, 9, 39, 0
1, 40446, Note_on_c, 0, 63, 61
1, 40450, Note_on_c, 0, 68, 58
1, 40450, Note_on_c, 0, 72, 57
1, 40458, Note_on_c, 9, 40, 39
1, 40462, Note_on_c, 0, 54, 38
1, 40470, Note_on_c, 0, 60, 40
1, 40474, Note_on_c, 1, 45, 0
1, 40474, Note_on_c, 1, 54, 81
1, 40478, Control_c, 0, 64, 127
1, 40594, Note_on_c, 0, 54, 0
1, 40614, Note_on_c, 0, 60, 0
1, 40638, Note_on_c, 9, 35, 33
1, 40694, Note_on_c, 9, 35, 0
1, 40698, Note_on_c, 0, 63, 0
1, 40794, Note_on_c, 1, 54, 0
1, 40794, Note_on_c, 1, 45, 82
1, 40814, Note_on_c, 0, 72, 0
1, 40814, Note_on_c, 9, 40, 0
1, 40822, Note_on_c, 0, 68, 0
1, 40838, Note_on_c, 1, 45, 0
1, 40842, Control_c, 0, 64, 0
1, 40850, Note_on_c, 0, 65, 50
1, 40850, Note_on_c, 9, 40, 49
1, 40858, Note_on_c, 0, 74, 54
1, 40858, Note_on_c, 0, 70, 53
1, 40858, Note_on_c, 0, 54, 40
1, 40858, Note_on_c, 1, 42, 53
1, 40858, Note_on_c, 9, 44, 68
1, 40862, Note_on_c, 0, 60, 43
1, 40894, Note_on_c, 1, 38, 0
1, 40898, Control_c, 0, 64, 127
1, 40970, Note_on_c, 9, 44, 0
1, 40982, Note_on_c, 9, 40, 0
1, 40990, Note_on_c, 9, 39, 43
1, 41010, Note_on_c, 9, 39, 0
1, 41010, Note_on_c, 0, 60, 0
1, 41050, Note_on_c, 9, 40, 46
1, 41066, Note_on_c, 0, 54, 0
1, 41078, Note_on_c, 0, 74, 0
1, 41082, Note_on_c, 0, 65, 0
1, 41094, Note_on_c, 0, 70, 0
1, 41114, Note_on_c, 1, 38, 62
1, 41154, Note_on_c, 1, 38, 0
1, 41178, Note_on_c, 1, 32, 70
1, 41186, Note_on_c, 9, 35, 24
1, 41202, Note_on_c, 9, 40, 0
1, 41214, Note_on_c, 1, 42, 0
1, 41214, Note_on_c, 9, 35, 0
1, 41238, Note_on_c, 0, 65, 55
1, 41242, Note_on_c, 1, 32, 0
1, 41242, Control_c, 0, 64, 0
1, 41242, Note_on_c, 1, 31, 104
1, 41242, Note_on_c, 9, 40, 49
1, 41246, Note_on_c, 0, 58, 46
1, 41250, Note_on_c, 0, 55, 34
1, 41254, Note_on_c, 0, 66, 44
1, 41258, Note_on_c, 0, 62, 32
1, 41262, Note_on_c, 9, 35, 29
1, 41274, Note_on_c, 0, 66, 0
1, 41294, Note_on_c, 0, 65, 0
1, 41294, Note_on_c, 0, 67, 52
1, 41350, Note_on_c, 9, 35, 0
1, 41366, Note_on_c, 0, 67, 0
1, 41386, Note_on_c, 0, 70, 79
1, 41418, Note_on_c, 0, 70, 0
1, 41442, Note_on_c, 0, 70, 94
1, 41446, Note_on_c, 0, 57, 1
1, 41450, Note_on_c, 9, 35, 31
1, 41518, Note_on_c, 0, 62, 0
1, 41526, Note_on_c, 9, 35, 0
1, 41538, Note_on_c, 0, 58, 0
1, 41586, Note_on_c, 0, 70, 0
1, 41594, Note_on_c, 9, 40, 0
1, 41626, Note_on_c, 1, 43, 80
1, 41626, Note_on_c, 9, 44, 69
1, 41634, Note_on_c, 0, 62, 38
1, 41634, Note_on_c, 0, 58, 40
1, 41634, Note_on_c, 9, 40, 51
1, 41642, Note_on_c, 0, 70, 77
1, 41642, Note_on_c, 9, 46, 33
1, 41646, Control_c, 0, 64, 127
1, 41646, Note_on_c, 9, 53, 38
1, 41650, Note_on_c, 1, 31, 0
1, 41702, Note_on_c, 9, 46, 0
1, 41714, Note_on_c, 9, 53, 0
1, 41718, Note_on_c, 0, 58, 0
1, 41718, Note_on_c, 0, 62, 0
1, 41726, Note_on_c, 0, 57, 0
1, 41746, Note_on_c, 9, 44, 0
1, 41750, Note_on_c, 0, 70, 0
1, 41782, Note_on_c, 0, 72, 74
1, 41790, Note_on_c, 0, 62, 37
1, 41794, Note_on_c, 0, 58, 39
1, 41874, Note_on_c, 0, 62, 0
1, 41878, Note_on_c, 0, 55, 0
1, 41894, Note_on_c, 0, 72, 0
1, 41894, Note_on_c, 0, 58, 0
1, 41914, Note_on_c, 9, 40, 0
1, 41946, Note_on_c, 1, 31, 68
1, 41966, Note_on_c, 9, 40, 55
1, 41966, Note_on_c, 9, 35, 23
1, 41990, Note_on_c, 9, 35, 0
1, 41990, Note_on_c, 1, 31, 0
1, 42002, Control_c, 0, 64, 0
1, 42006, Note_on_c, 9, 40, 0
1, 42010, Note_on_c, 1, 42, 81
1, 42018, Note_on_c, 0, 73, 56
1, 42026, Note_on_c, 0, 64, 45
1, 42030, Note_on_c, 0, 61, 49
1, 42030, Note_on_c, 0, 68, 48
1, 42030, Note_on_c, 0, 70, 46
1, 42030, Note_on_c, 9, 40, 70
1, 42034, Note_on_c, 1, 43, 0
1, 42034, Note_on_c, 0, 58, 31
1, 42038, Note_on_c, 9, 35, 29
1, 42098, Note_on_c, 0, 64, 0
1, 42102, Note_on_c, 0, 68, 0
1, 42110, Note_on_c, 0, 73, 0
1, 42114, Note_on_c, 0, 61, 0
1, 42118, Note_on_c, 0, 70, 0
1, 42130, Note_on_c, 0, 58, 0
1, 42154, Note_on_c, 0, 75, 68
1, 42158, Note_on_c, 0, 63, 61
1, 42158, Note_on_c, 0, 64, 63
1, 42158, Note_on_c, 0, 68, 58
1, 42166, Note_on_c, 0, 72, 50
1, 42194, Note_on_c, 0, 63, 0
1, 42202, Note_on_c, 0, 75, 0
1, 42202, Note_on_c, 0, 64, 0
1, 42206, Note_on_c, 9, 35, 0
1, 42210, Note_on_c, 0, 72, 0
1, 42218, Note_on_c, 0, 68, 0
1, 42238, Note_on_c, 0, 75, 52
1, 42242, Note_on_c, 0, 63, 39
1, 42246, Note_on_c, 0, 64, 48
1, 42246, Note_on_c, 0, 68, 49
1, 42250, Note_on_c, 0, 72, 43
1, 42306, Note_on_c, 0, 72, 0
1, 42310, Note_on_c, 0, 64, 0
1, 42318, Note_on_c, 0, 68, 0
1, 42322, Note_on_c, 0, 75, 0
1, 42322, Note_on_c, 0, 63, 0
1, 42354, Note_on_c, 0, 61, 42
1, 42366, Note_on_c, 9, 40, 0
1, 42394, Note_on_c, 9, 44, 64
1, 42398, Note_on_c, 0, 61, 0
1, 42402, Note_on_c, 9, 40, 51
1, 42402, Note_on_c, 9, 53, 43
1, 42402, Note_on_c, 9, 46, 35
1, 42410, Control_c, 0, 64, 127
1, 42418, Note_on_c, 0, 75, 60
1, 42422, Note_on_c, 0, 68, 56
1, 42422, Note_on_c, 0, 63, 55
1, 42422, Note_on_c, 0, 64, 54
1, 42426, Note_on_c, 0, 72, 46
1, 42462, Note_on_c, 9, 53, 0
1, 42478, Note_on_c, 9, 46, 0
1, 42486, Note_on_c, 0, 72, 0
1, 42498, Note_on_c, 0, 64, 0
1, 42506, Note_on_c, 0, 63, 0
1, 42510, Note_on_c, 0, 68, 0
1, 42514, Note_on_c, 9, 44, 0
1, 42518, Note_on_c, 0, 75, 0
1, 42530, Note_on_c, 9, 25, 48
1, 42534, Note_on_c, 9, 40, 0
1, 42550, Note_on_c, 0, 68, 55
1, 42550, Note_on_c, 0, 61, 48
1, 42550, Note_on_c, 0, 73, 57
1, 42554, Note_on_c, 0, 64, 46
1, 42566, Note_on_c, 9, 25, 0
1, 42594, Note_on_c, 9, 40, 46
1, 42602, Note_on_c, 0, 61, 0
1, 42670, Note_on_c, 0, 73, 0
1, 42686, Note_on_c, 0, 64, 0
1, 42714, Note_on_c, 0, 68, 0
1, 42714, Note_on_c, 1, 30, 78
1, 42714, Note_on_c, 9, 35, 25
1, 42730, Note_on_c, 9, 35, 0
1, 42750, Note_on_c, 0, 56, 37
1, 42758, Note_on_c, 9, 40, 0
1, 42774, Note_on_c, 0, 56, 0
1, 42774, Note_on_c, 1, 30, 0
1, 42774, Control_c, 0, 64, 0
1, 42778, Note_on_c, 1, 29, 100
1, 42786, Note_on_c, 9, 35, 37
1, 42790, Note_on_c, 9, 40, 57
1, 42794, Note_on_c, 0, 57, 50
1, 42798, Note_on_c, 0, 62, 54
1, 42802, Note_on_c, 0, 67, 51
1, 42802, Note_on_c, 0, 72, 48
1, 42818, Note_on_c, 1, 42, 0
1, 42830, Control_c, 0, 64, 127
1, 42838, Note_on_c, 9, 35, 0
1, 43034, Note_on_c, 0, 67, 0
1, 43058, Note_on_c, 0, 57, 0
1, 43078, Note_on_c, 0, 72, 0
1, 43082, Note_on_c, 0, 62, 0
1, 43122, Note_on_c, 9, 40, 0
1, 43154, Note_on_c, 9, 40, 53
1, 43162, Note_on_c, 9, 44, 67
1, 43178, Note_on_c, 9, 46, 33
1, 43178, Note_on_c, 9, 53, 47
1, 43190, Note_on_c, 0, 62, 45
1, 43190, Note_on_c, 0, 72, 47
1, 43190, Note_on_c, 0, 57, 43
1, 43198, Note_on_c, 0, 67, 46
1, 43222, Note_on_c, 0, 57, 0
1, 43226, Note_on_c, 9, 53, 0
1, 43230, Note_on_c, 9, 46, 0
1, 43290, Note_on_c, 9, 44, 0
1, 43354, Note_on_c, 1, 41, 91
1, 43382, Note_on_c, 0, 67, 0
1, 43394, Note_on_c, 0, 72, 0
1, 43398, Note_on_c, 1, 29, 0
1, 43406, Note_on_c, 0, 62, 0
1, 43446, Note_on_c, 9, 40, 0
1, 43482, Note_on_c, 9, 35, 23
1, 43490, Note_on_c, 9, 40, 44
1, 43506, Note_on_c, 9, 35, 0
1, 43526, Note_on_c, 9, 40, 0
1, 43546, Note_on_c, 1, 44, 100
1, 43546, Note_on_c, 9, 40, 38
1, 43550, Note_on_c, 1, 41, 0
1, 43550, Note_on_c, 9, 35, 31
1, 43570, Note_on_c, 0, 44, 58
1, 43578, Control_c, 0, 64, 0
1, 43594, Note_on_c, 9, 35, 0
1, 43642, Note_on_c, 0, 53, 57
1, 43674, Note_on_c, 0, 54, 52
1, 43678, Note_on_c, 0, 53, 0
1, 43686, Pitch_bend_c, 1, 8192
1, 43690, Pitch_bend_c, 1, 8192
1, 43698, Pitch_bend_c, 1, 8192
1, 43714, Note_on_c, 0, 56, 48
1, 43722, Pitch_bend_c, 1, 8192
1, 43726, Note_on_c, 0, 54, 0
1, 43726, Pitch_bend_c, 1, 8842
1, 43730, Pitch_bend_c, 1, 8972
1, 43734, Note_on_c, 0, 56, 0
1, 43734, Note_on_c, 0, 58, 54
1, 43734, Pitch_bend_c, 1, 9102
1, 43734, Pitch_bend_c, 1, 9232
1, 43742, Pitch_bend_c, 1, 9492
1, 43746, Pitch_bend_c, 1, 9622
1, 43750, Note_on_c, 0, 58, 0
1, 43750, Pitch_bend_c, 1, 9882
1, 43758, Pitch_bend_c, 1, 10012
1, 43762, Pitch_bend_c, 1, 10272
1, 43762, Pitch_bend_c, 1, 10402
1, 43766, Pitch_bend_c, 1, 10532
1, 43770, Pitch_bend_c, 1, 10662
1, 43774, Note_on_c, 0, 60, 62
1, 43794, Note_on_c, 0, 60, 0
1, 43802, Note_on_c, 0, 61, 57
1, 43806, Pitch_bend_c, 1, 10532
1, 43810, Pitch_bend_c, 1, 10402
1, 43814, Pitch_bend_c, 1, 10142
1, 43818, Pitch_bend_c, 1, 10012
1, 43818, Pitch_bend_c, 1, 9882
1, 43822, Note_on_c, 0, 44, 0
1, 43822, Pitch_bend_c, 1, 9752
1, 43822, Pitch_bend_c, 1, 9622
1, 43826, Pitch_bend_c, 1, 9492
1, 43830, Pitch_bend_c, 1, 9362
1, 43830, Pitch_bend_c, 1, 9232
1, 43834, Pitch_bend_c, 1, 9102
1, 43838, Note_on_c, 0, 63, 59
1, 43838, Pitch_bend_c, 1, 8842
1, 43838, Pitch_bend_c, 1, 8712
1, 43842, Note_on_c, 0, 61, 0
1, 43842, Note_on_c, 9, 40, 0
1, 43846, Pitch_bend_c, 1, 8192
1, 43850, Pitch_bend_c, 1, 8192
1, 43854, Pitch_bend_c, 1, 8192
1, 43862, Pitch_bend_c, 1, 8192
1, 43866, Note_on_c, 0, 63, 0
1, 43866, Control_c, 0, 64, 127
1, 43866, Control_c, 0, 64, 72
1, 43866, Control_c, 0, 64, 127
1, 43870, Note_on_c, 9, 40, 49
1, 43882, Note_on_c, 0, 65, 68
1, 43894, Note_on_c, 9, 40, 0
1, 43894, Control_c, 0, 64, 0
1, 43894, Pitch_bend_c, 1, 8192
1, 43898, Pitch_bend_c, 1, 8192
1, 43906, Note_on_c, 0, 65, 0
1, 43906, Pitch_bend_c, 1, 8712
1, 43906, Pitch_bend_c, 1, 8842
1, 43910, Pitch_bend_c, 1, 8972
1, 43910, Pitch_bend_c, 1, 9102
1, 43914, Note_on_c, 0, 66, 54
1, 43914, Pitch_bend_c, 1, 9232
1, 43918, Pitch_bend_c, 1, 9362
1, 43918, Note_on_c, 9, 46, 29
1, 43922, Pitch_bend_c, 1, 9492
1, 43922, Pitch_bend_c, 1, 9622
1, 43922, Note_on_c, 9, 53, 42
1, 43926, Pitch_bend_c, 1, 9752
1, 43930, Pitch_bend_c, 1, 9882
1, 43930, Note_on_c, 9, 46, 50
1, 43930, Note_on_c, 9, 40, 50
1, 43934, Pitch_bend_c, 1, 10012
1, 43942, Note_on_c, 0, 68, 52
1, 43942, Pitch_bend_c, 1, 10142
1, 43946, Note_on_c, 0, 54, 44
1, 43954, Note_on_c, 0, 60, 39
1, 43962, Note_on_c, 9, 53, 0
1, 43962, Note_on_c, 0, 66, 0
1, 43970, Note_on_c, 9, 46, 0
1, 43970, Note_on_c, 0, 70, 56
1, 43970, Note_on_c, 0, 65, 10
1, 43974, Pitch_bend_c, 1, 10012
1, 43978, Pitch_bend_c, 1, 9882
1, 43982, Note_on_c, 0, 70, 0
1, 43982, Note_on_c, 0, 68, 0
1, 43982, Pitch_bend_c, 1, 9752
1, 43982, Pitch_bend_c, 1, 9492
1, 43986, Pitch_bend_c, 1, 9362
1, 43986, Pitch_bend_c, 1, 9102
1, 43990, Pitch_bend_c, 1, 8972
1, 43990, Pitch_bend_c, 1, 8712
1, 43994, Pitch_bend_c, 1, 8192
1, 43994, Pitch_bend_c, 1, 8192
1, 43998, Pitch_bend_c, 1, 8192
1, 44006, Note_on_c, 0, 72, 65
1, 44030, Note_on_c, 0, 72, 0
1, 44030, Note_on_c, 9, 46, 0
1, 44034, Note_on_c, 0, 73, 62
1, 44074, Note_on_c, 0, 73, 0
1, 44074, Note_on_c, 0, 65, 0
1, 44078, Note_on_c, 0, 75, 58
1, 44090, Note_on_c, 0, 75, 0
1, 44114, Note_on_c, 0, 77, 63
1, 44138, Note_on_c, 0, 77, 0
1, 44150, Note_on_c, 0, 78, 43
1, 44178, Note_on_c, 0, 80, 38
1, 44182, Note_on_c, 0, 78, 0
1, 44198, Note_on_c, 0, 54, 0
1, 44210, Note_on_c, 0, 80, 0
1, 44210, Note_on_c, 0, 82, 47
1, 44218, Note_on_c, 9, 40, 0
1, 44226, Note_on_c, 0, 82, 0
1, 44250, Note_on_c, 0, 84, 56
1, 44258, Note_on_c, 9, 40, 38
1, 44262, Note_on_c, 9, 35, 15
1, 44270, Note_on_c, 0, 84, 0
1, 44278, Note_on_c, 9, 35, 0
1, 44282, Note_on_c, 9, 40, 0
1, 44290, Note_on_c, 0, 63, 41
1, 44302, Note_on_c, 0, 87, 66
1, 44306, Note_on_c, 0, 56, 43
1, 44310, Note_on_c, 0, 53, 39
1, 44314, Note_on_c, 0, 87, 0
1, 44314, Note_on_c, 1, 37, 76
1, 44322, Note_on_c, 1, 44, 0
1, 44322, Note_on_c, 9, 40, 56
1, 44326, Note_on_c, 9, 35, 24
1, 44334, Note_on_c, 0, 87, 47
1, 44366, Note_on_c, 0, 85, 50
1, 44370, Note_on_c, 0, 87, 0
1, 44378, Note_on_c, 0, 84, 71
1, 44382, Note_on_c, 0, 85, 0
1, 44386, Note_on_c, 9, 35, 0
1, 44446, Control_c, 0, 64, 127
1, 44510, Note_on_c, 0, 84, 0
1, 44522, Note_on_c, 0, 63, 0
1, 44546, Note_on_c, 0, 60, 0
1, 44550, Note_on_c, 0, 56, 0
1, 44650, Note_on_c, 9, 40, 0
1, 44690, Note_on_c, 0, 77, 66
1, 44694, Note_on_c, 0, 63, 36
1, 44698, Note_on_c, 0, 56, 39
1, 44698, Note_on_c, 9, 44, 64
1, 44698, Note_on_c, 9, 40, 60
1, 44706, Note_on_c, 0, 60, 39
1, 44794, Note_on_c, 9, 44, 0
1, 44818, Note_on_c, 9, 40, 0
1, 44818, Note_on_c, 9, 39, 57
1, 44846, Note_on_c, 9, 39, 0
1, 44878, Note_on_c, 0, 53, 0
1, 44878, Note_on_c, 0, 60, 0
1, 44882, Note_on_c, 9, 40, 44
1, 44890, Note_on_c, 0, 56, 0
1, 44902, Note_on_c, 9, 35, 14
1, 44906, Note_on_c, 0, 63, 0
1, 44922, Note_on_c, 0, 77, 0
1, 44946, Note_on_c, 9, 35, 0
1, 45030, Note_on_c, 9, 40, 0
1, 45078, Note_on_c, 9, 40, 51
1, 45078, Note_on_c, 9, 35, 29
1, 45082, Note_on_c, 1, 34, 71
1, 45114, Note_on_c, 1, 37, 0
1, 45138, Note_on_c, 9, 35, 0
1, 45198, Control_c, 0, 64, 0
1, 45214, Note_on_c, 0, 99, 99
1, 45214, Note_on_c, 0, 87, 102
1, 45218, Note_on_c, 0, 65, 89
1, 45218, Note_on_c, 0, 92, 85
1, 45218, Note_on_c, 0, 56, 80
1, 45218, Note_on_c, 0, 61, 67
1, 45218, Note_on_c, 0, 96, 78
1, 45218, Note_on_c, 0, 60, 78
1, 45230, Note_on_c, 0, 92, 0
1, 45234, Note_on_c, 0, 96, 0
1, 45242, Note_on_c, 0, 92, 33
1, 45242, Note_on_c, 0, 96, 36
1, 45278, Control_c, 0, 64, 127
1, 45318, Note_on_c, 0, 87, 0
1, 45318, Note_on_c, 0, 99, 0
1, 45318, Note_on_c, 0, 65, 0
1, 45322, Note_on_c, 0, 56, 0
1, 45330, Note_on_c, 0, 61, 0
1, 45330, Note_on_c, 0, 92, 0
1, 45330, Note_on_c, 0, 96, 0
1, 45330, Note_on_c, 0, 60, 0
1, 45362, Note_on_c, 0, 97, 90
1, 45366, Note_on_c, 0, 65, 83
1, 45366, Note_on_c, 0, 85, 86
1, 45366, Note_on_c, 0, 92, 81
1, 45366, Note_on_c, 0, 61, 63
1, 45370, Note_on_c, 0, 56, 76
1, 45370, Note_on_c, 0, 60, 64
1, 45422, Note_on_c, 9, 40, 0
1, 45458, Note_on_c, 0, 56, 0
1, 45458, Note_on_c, 9, 40, 53
1, 45462, Note_on_c, 0, 65, 0
1, 45462, Note_on_c, 0, 92, 0
1, 45466, Note_on_c, 0, 61, 0
1, 45466, Note_on_c, 0, 85, 0
1, 45466, Note_on_c, 0, 97, 0
1, 45466, Note_on_c, 1, 49, 86
1, 45466, Note_on_c, 9, 44, 67
1, 45470, Note_on_c, 0, 60, 0
1, 45482, Control_c, 0, 64, 0
1, 45502, Note_on_c, 0, 96, 79
1, 45502, Control_c, 0, 64, 127
1, 45506, Note_on_c, 0, 65, 71
1, 45506, Note_on_c, 0, 84, 74
1, 45506, Note_on_c, 0, 61, 54
1, 45506, Note_on_c, 0, 91, 75
1, 45506, Note_on_c, 0, 56, 61
1, 45506, Note_on_c, 0, 60, 58
1, 45510, Note_on_c, 1, 34, 0
1, 45562, Note_on_c, 0, 96, 0
1, 45574, Note_on_c, 0, 91, 0
1, 45578, Note_on_c, 9, 44, 0
1, 45582, Note_on_c, 0, 84, 0
1, 45586, Note_on_c, 0, 65, 0
1, 45590, Note_on_c, 0, 56, 0
1, 45606, Note_on_c, 0, 61, 0
1, 45606, Note_on_c, 0, 60, 0
1, 45634, Note_on_c, 0, 94, 76
1, 45642, Note_on_c, 0, 82, 72
1, 45642, Note_on_c, 0, 61, 57
1, 45642, Note_on_c, 0, 56, 61
1, 45642, Note_on_c, 0, 65, 66
1, 45650, Note_on_c, 0, 60, 54
1, 45714, Note_on_c, 0, 94, 0
1, 45726, Note_on_c, 0, 60, 0
1, 45726, Note_on_c, 0, 82, 0
1, 45726, Note_on_c, 0, 65, 0
1, 45746, Note_on_c, 0, 61, 0
1, 45750, Note_on_c, 0, 56, 0
1, 45786, Note_on_c, 1, 34, 63
1, 45822, Control_c, 0, 64, 0
1, 45826, Note_on_c, 9, 40, 0
1, 45838, Note_on_c, 1, 34, 0
1, 45850, Note_on_c, 1, 39, 84
1, 45858, Note_on_c, 0, 54, 49
1, 45862, Note_on_c, 0, 58, 52
1, 45862, Note_on_c, 0, 89, 57
1, 45862, Note_on_c, 0, 77, 57
1, 45862, Note_on_c, 0, 61, 50
1, 45862, Note_on_c, 0, 65, 34
1, 45862, Note_on_c, 9, 40, 52
1, 45870, Note_on_c, 0, 82, 50
1, 45870, Note_on_c, 0, 85, 48
1, 45870, Note_on_c, 9, 46, 31
1, 45874, Note_on_c, 1, 49, 0
1, 45874, Note_on_c, 9, 35, 22
1, 45898, Control_c, 0, 64, 127
1, 45902, Note_on_c, 9, 46, 0
1, 45914, Note_on_c, 9, 35, 0
1, 45922, Note_on_c, 0, 89, 0
1, 45922, Note_on_c, 0, 77, 0
1, 45934, Note_on_c, 0, 65, 0
1, 45938, Note_on_c, 0, 54, 0
1, 45942, Note_on_c, 0, 85, 0
1, 45946, Note_on_c, 0, 82, 0
1, 45946, Note_on_c, 0, 58, 0
1, 45950, Note_on_c, 0, 61, 0
1, 45994, Note_on_c, 0, 87, 56
1, 45998, Pitch_bend_c, 1, 8192
1, 46002, Note_on_c, 0, 75, 46
1, 46002, Pitch_bend_c, 1, 8192
1, 46006, Note_on_c, 0, 65, 47
1, 46006, Pitch_bend_c, 1, 8712
1, 46006, Pitch_bend_c, 1, 8972
1, 46010, Note_on_c, 0, 58, 47
1, 46010, Pitch_bend_c, 1, 9232
1, 46010, Pitch_bend_c, 1, 9492
1, 46014, Note_on_c, 0, 61, 49
1, 46014, Note_on_c, 0, 54, 35
1, 46014, Pitch_bend_c, 1, 9752
1, 46014, Pitch_bend_c, 1, 10012
1, 46018, Note_on_c, 0, 75, 0
1, 46018, Pitch_bend_c, 1, 10142
1, 46022, Pitch_bend_c, 1, 10532
1, 46022, Pitch_bend_c, 1, 10792
1, 46026, Pitch_bend_c, 1, 10922
1, 46026, Pitch_bend_c, 1, 11312
1, 46030, Note_on_c, 0, 65, 0
1, 46030, Note_on_c, 0, 87, 0
1, 46030, Control_c, 0, 64, 0
1, 46030, Pitch_bend_c, 1, 11442
1, 46030, Pitch_bend_c, 1, 11702
1, 46034, Note_on_c, 0, 54, 0
1, 46034, Note_on_c, 0, 61, 0
1, 46034, Pitch_bend_c, 1, 11832
1, 46038, Pitch_bend_c, 1, 12092
1, 46038, Pitch_bend_c, 1, 12222
1, 46042, Pitch_bend_c, 1, 12352
1, 46042, Pitch_bend_c, 1, 12482
1, 46046, Pitch_bend_c, 1, 12612
1, 46050, Note_on_c, 0, 58, 0
1, 46050, Pitch_bend_c, 1, 12742
1, 46058, Control_c, 0, 64, 127
1, 46058, Pitch_bend_c, 1, 12872
1, 46070, Note_on_c, 0, 89, 57
1, 46070, Pitch_bend_c, 1, 12742
1, 46074, Note_on_c, 0, 65, 51
1, 46074, Note_on_c, 0, 82, 48
1, 46074, Pitch_bend_c, 1, 12612
1, 46078, Note_on_c, 0, 77, 50
1, 46078, Pitch_bend_c, 1, 12482
1, 46082, Note_on_c, 0, 54, 30
1, 46082, Note_on_c, 0, 61, 44
1, 46082, Pitch_bend_c, 1, 12352
1, 46082, Pitch_bend_c, 1, 12092
1, 46086, Note_on_c, 0, 58, 46
1, 46086, Note_on_c, 0, 85, 47
1, 46086, Pitch_bend_c, 1, 11962
1, 46086, Pitch_bend_c, 1, 11832
1, 46090, Pitch_bend_c, 1, 11702
1, 46090, Pitch_bend_c, 1, 11442
1, 46094, Pitch_bend_c, 1, 11052
1, 46098, Pitch_bend_c, 1, 10922
1, 46098, Pitch_bend_c, 1, 10662
1, 46102, Pitch_bend_c, 1, 10402
1, 46102, Pitch_bend_c, 1, 10142
1, 46106, Pitch_bend_c, 1, 9882
1, 46110, Pitch_bend_c, 1, 9622
1, 46110, Pitch_bend_c, 1, 9362
1, 46114, Pitch_bend_c, 1, 9102
1, 46114, Pitch_bend_c, 1, 8842
1, 46118, Pitch_bend_c, 1, 8712
1, 46118, Pitch_bend_c, 1, 8192
1, 46122, Pitch_bend_c, 1, 8192
1, 46122, Pitch_bend_c, 1, 8192
1, 46126, Note_on_c, 0, 89, 0
1, 46130, Note_on_c, 0, 77, 0
1, 46150, Note_on_c, 0, 85, 0
1, 46150, Note_on_c, 0, 65, 0
1, 46150, Note_on_c, 0, 54, 0
1, 46154, Note_on_c, 0, 61, 0
1, 46158, Note_on_c, 0, 58, 0
1, 46158, Note_on_c, 0, 82, 0
1, 46190, Note_on_c, 9, 40, 0
1, 46194, Pitch_bend_c, 1, 8192
1, 46194, Pitch_bend_c, 1, 8192
1, 46198, Note_on_c, 0, 87, 65
1, 46198, Note_on_c, 0, 75, 58
1, 46198, Pitch_bend_c, 1, 8712
1, 46202, Pitch_bend_c, 1, 8842
1, 46202, Pitch_bend_c, 1, 9102
1, 46206, Note_on_c, 0, 87, 0
1, 46206, Note_on_c, 0, 65, 49
1, 46206, Note_on_c, 0, 58, 40
1, 46206, Note_on_c, 0, 61, 39
1, 46206, Note_on_c, 0, 54, 38
1, 46206, Pitch_bend_c, 1, 9232
1, 46206, Pitch_bend_c, 1, 9492
1, 46210, Note_on_c, 0, 75, 0
1, 46210, Pitch_bend_c, 1, 9752
1, 46210, Pitch_bend_c, 1, 9882
1, 46214, Pitch_bend_c, 1, 10012
1, 46218, Pitch_bend_c, 1, 10272
1, 46218, Pitch_bend_c, 1, 10402
1, 46222, Note_on_c, 0, 65, 0
1, 46222, Pitch_bend_c, 1, 10662
1, 46222, Pitch_bend_c, 1, 10792
1, 46226, Pitch_bend_c, 1, 10922
1, 46226, Pitch_bend_c, 1, 11052
1, 46230, Note_on_c, 0, 61, 0
1, 46230, Note_on_c, 0, 54, 0
1, 46234, Pitch_bend_c, 1, 11442
1, 46234, Note_on_c, 9, 44, 64
1, 46238, Note_on_c, 0, 58, 0
1, 46238, Pitch_bend_c, 1, 11572
1, 46242, Pitch_bend_c, 1, 11702
1, 46246, Note_on_c, 9, 40, 55
1, 46266, Note_on_c, 0, 89, 46
1, 46266, Note_on_c, 0, 65, 45
1, 46266, Note_on_c, 0, 77, 50
1, 46266, Note_on_c, 0, 54, 41
1, 46266, Note_on_c, 0, 82, 41
1, 46266, Note_on_c, 0, 61, 43
1, 46266, Note_on_c, 0, 58, 44
1, 46266, Pitch_bend_c, 1, 11572
1, 46270, Pitch_bend_c, 1, 11442
1, 46270, Pitch_bend_c, 1, 11312
1, 46274, Pitch_bend_c, 1, 10922
1, 46278, Pitch_bend_c, 1, 10792
1, 46282, Note_on_c, 0, 85, 50
1, 46282, Pitch_bend_c, 1, 10662
1, 46282, Pitch_bend_c, 1, 10402
1, 46286, Pitch_bend_c, 1, 10272
1, 46286, Pitch_bend_c, 1, 10012
1, 46290, Pitch_bend_c, 1, 9752
1, 46294, Pitch_bend_c, 1, 9492
1, 46294, Pitch_bend_c, 1, 9232
1, 46298, Pitch_bend_c, 1, 9102
1, 46298, Pitch_bend_c, 1, 8842
1, 46302, Pitch_bend_c, 1, 8192
1, 46302, Pitch_bend_c, 1, 8192
1, 46306, Pitch_bend_c, 1, 8192
1, 46310, Note_on_c, 0, 65, 0
1, 46310, Note_on_c, 0, 89, 0
1, 46314, Note_on_c, 0, 77, 0
1, 46318, Note_on_c, 0, 82, 0
1, 46326, Note_on_c, 0, 61, 0
1, 46326, Note_on_c, 0, 85, 0
1, 46334, Note_on_c, 0, 54, 0
1, 46338, Note_on_c, 0, 58, 0
1, 46346, Note_on_c, 9, 44, 0
1, 46394, Note_on_c, 0, 90, 59
1, 46398, Note_on_c, 0, 54, 48
1, 46402, Note_on_c, 0, 58, 50
1, 46402, Note_on_c, 0, 65, 45
1, 46402, Note_on_c, 0, 85, 55
1, 46402, Note_on_c, 0, 78, 42
1, 46402, Note_on_c, 0, 61, 46
1, 46458, Note_on_c, 9, 35, 31
1, 46510, Note_on_c, 9, 35, 0
1, 46510, Note_on_c, 0, 58, 0
1, 46518, Note_on_c, 0, 54, 0
1, 46518, Note_on_c, 0, 65, 0
1, 46530, Note_on_c, 0, 61, 0
1, 46542, Note_on_c, 0, 78, 0
1, 46546, Note_on_c, 0, 85, 0
1, 46550, Note_on_c, 1, 39, 0
1, 46562, Note_on_c, 0, 90, 0
1, 46586, Note_on_c, 9, 40, 0
1, 46618, Note_on_c, 1, 32, 100
1, 46622, Control_c, 0, 64, 0
1, 46626, Note_on_c, 9, 40, 53
1, 46642, Note_on_c, 0, 80, 58
1, 46642, Note_on_c, 0, 92, 57
1, 46642, Note_on_c, 0, 64, 57
1, 46642, Note_on_c, 0, 58, 15
1, 46642, Note_on_c, 0, 87, 54
1, 46642, Note_on_c, 0, 54, 46
1, 46658, Note_on_c, 0, 60, 52
1, 46658, Note_on_c, 9, 35, 31
1, 46690, Control_c, 0, 64, 127
1, 46694, Note_on_c, 9, 35, 0
1, 46842, Note_on_c, 0, 54, 0
1, 46862, Note_on_c, 0, 64, 0
1, 46894, Note_on_c, 0, 58, 0
1, 46898, Note_on_c, 0, 60, 0
1, 46898, Note_on_c, 0, 87, 0
1, 46902, Note_on_c, 0, 80, 0
1, 46918, Note_on_c, 0, 92, 0
1, 46974, Note_on_c, 9, 40, 0
1, 47002, Note_on_c, 1, 48, 92
1, 47002, Note_on_c, 9, 44, 63
1, 47006, Note_on_c, 9, 40, 47
1, 47014, Control_c, 0, 64, 0
1, 47014, Note_on_c, 0, 64, 62
1, 47018, Note_on_c, 0, 93, 74
1, 47018, Note_on_c, 0, 54, 51
1, 47018, Note_on_c, 0, 87, 66
1, 47022, Note_on_c, 0, 58, 53
1, 47022, Note_on_c, 0, 81, 59
1, 47022, Note_on_c, 0, 60, 57
1, 47054, Control_c, 0, 64, 127
1, 47098, Note_on_c, 9, 44, 0
1, 47118, Note_on_c, 9, 40, 0
1, 47122, Note_on_c, 9, 39, 39
1, 47150, Note_on_c, 9, 39, 0
1, 47182, Note_on_c, 9, 40, 44
1, 47210, Note_on_c, 0, 81, 0
1, 47214, Note_on_c, 0, 93, 0
1, 47234, Note_on_c, 0, 64, 0
1, 47238, Note_on_c, 0, 58, 0
1, 47242, Note_on_c, 0, 60, 0
1, 47266, Note_on_c, 0, 54, 0
1, 47270, Note_on_c, 0, 87, 0
1, 47282, Note_on_c, 1, 32, 0
1, 47322, Note_on_c, 1, 32, 54
1, 47350, Note_on_c, 9, 40, 0
1, 47366, Note_on_c, 1, 32, 0
1, 47370, Control_c, 0, 64, 0
1, 47386, Note_on_c, 1, 37, 88
1, 47390, Note_on_c, 9, 40, 47
1, 47398, Note_on_c, 0, 63, 75
1, 47398, Note_on_c, 0, 94, 94
1, 47398, Note_on_c, 0, 60, 64
1, 47398, Note_on_c, 0, 82, 89
1, 47398, Note_on_c, 0, 53, 62
1, 47398, Note_on_c, 0, 87, 88
1, 47402, Note_on_c, 0, 56, 56
1, 47410, Note_on_c, 1, 48, 0
1, 47426, Control_c, 0, 64, 127
1, 47494, Note_on_c, 0, 53, 0
1, 47498, Note_on_c, 0, 63, 0
1, 47502, Note_on_c, 0, 82, 0
1, 47506, Note_on_c, 0, 94, 0
1, 47514, Note_on_c, 0, 56, 0
1, 47514, Note_on_c, 0, 60, 0
1, 47518, Note_on_c, 0, 87, 0
1, 47546, Note_on_c, 0, 63, 57
1, 47546, Note_on_c, 0, 94, 70
1, 47550, Note_on_c, 0, 87, 59
1, 47550, Note_on_c, 0, 56, 47
1, 47554, Note_on_c, 0, 60, 60
1, 47554, Note_on_c, 0, 82, 63
1, 47554, Note_on_c, 0, 53, 52
1, 47606, Note_on_c, 0, 53, 0
1, 47614, Note_on_c, 0, 94, 0
1, 47618, Note_on_c, 0, 63, 0
1, 47618, Note_on_c, 0, 82, 0
1, 47630, Note_on_c, 0, 56, 0
1, 47630, Note_on_c, 0, 60, 0
1, 47638, Note_on_c, 0, 87, 0
1, 47682, Note_on_c, 0, 92, 67
1, 47686, Note_on_c, 0, 80, 61
1, 47686, Note_on_c, 0, 87, 56
1, 47686, Note_on_c, 0, 63, 50
1, 47694, Note_on_c, 0, 56, 50
1, 47694, Note_on_c, 0, 60, 45
1, 47694, Note_on_c, 0, 53, 39
1, 47702, Note_on_c, 0, 87, 0
1, 47718, Note_on_c, 9, 40, 0
1, 47722, Note_on_c, 0, 53, 0
1, 47722, Note_on_c, 0, 63, 0
1, 47722, Note_on_c, 0, 92, 0
1, 47726, Note_on_c, 0, 80, 0
1, 47750, Note_on_c, 0, 60, 0
1, 47750, Note_on_c, 0, 56, 0
1, 47762, Note_on_c, 9, 40, 50
1, 47770, Note_on_c, 9, 44, 63
1, 47806, Note_on_c, 0, 89, 65
1, 47806, Note_on_c, 0, 63, 49
1, 47810, Note_on_c, 0, 84, 58
1, 47814, Note_on_c, 0, 56, 49
1, 47814, Note_on_c, 0, 77, 34
1, 47814, Note_on_c, 0, 60, 40
1, 47826, Note_on_c, 0, 53, 34
1, 47866, Note_on_c, 9, 44, 0
1, 47902, Note_on_c, 0, 89, 0
1, 47922, Note_on_c, 0, 84, 0
1, 47926, Note_on_c, 0, 53, 0
1, 47934, Note_on_c, 0, 60, 0
1, 47934, Note_on_c, 0, 63, 0
1, 47938, Note_on_c, 9, 40, 0
1, 47946, Note_on_c, 0, 56, 0
1, 47954, Note_on_c, 9, 35, 24
1, 47962, Note_on_c, 0, 77, 0
1, 47966, Note_on_c, 9, 40, 50
1, 47994, Note_on_c, 9, 35, 0
1, 48086, Note_on_c, 9, 40, 0
1, 48106, Note_on_c, 9, 40, 41
1, 48138, Note_on_c, 9, 40, 0
1, 48150, Control_c, 0, 64, 0
1, 48162, Note_on_c, 9, 35, 23
1, 48166, Note_on_c, 0, 34, 85
1, 48166, Note_on_c, 9, 40, 64
1, 48190, Control_c, 0, 64, 127
1, 48210, Note_on_c, 0, 34, 0
1, 48262, Note_on_c, 9, 35, 0
1, 48482, Note_on_c, 9, 40, 0
1, 48538, Note_on_c, 9, 44, 63
1, 48538, Note_on_c, 9, 40, 58
1, 48566, Control_c, 0, 64, 0
1, 48578, Note_on_c, 0, 61, 82
1, 48578, Note_on_c, 0, 70, 74
1, 48578, Note_on_c, 0, 66, 74
1, 48582, Note_on_c, 0, 56, 66
1, 48614, Control_c, 0, 64, 127
1, 48638, Note_on_c, 9, 44, 0
1, 48686, Note_on_c, 0, 61, 0
1, 48686, Note_on_c, 0, 56, 0
1, 48710, Note_on_c, 0, 66, 0
1, 48718, Note_on_c, 0, 70, 0
1, 48730, Note_on_c, 1, 37, 0
1, 48730, Control_c, 0, 64, 0
1, 48730, Note_on_c, 1, 34, 83
1, 48734, Note_on_c, 0, 71, 66
1, 48734, Note_on_c, 0, 62, 67
1, 48734, Note_on_c, 0, 67, 63
1, 48742, Note_on_c, 0, 56, 65
1, 48774, Control_c, 0, 64, 127
1, 48778, Note_on_c, 0, 62, 0
1, 48802, Note_on_c, 0, 67, 0
1, 48814, Note_on_c, 0, 71, 0
1, 48814, Note_on_c, 0, 56, 0
1, 48834, Note_on_c, 9, 40, 0
1, 48866, Note_on_c, 9, 40, 43
1, 48886, Note_on_c, 9, 40, 0
1, 48922, Note_on_c, 1, 39, 96
1, 48926, Note_on_c, 9, 40, 51
1, 48930, Note_on_c, 1, 34, 0
1, 48930, Note_on_c, 9, 35, 22
1, 49014, Note_on_c, 9, 35, 0
1, 49270, Note_on_c, 9, 40, 0
1, 49302, Control_c, 0, 64, 0
1, 49306, Note_on_c, 9, 44, 62
1, 49314, Note_on_c, 9, 40, 57
1, 49318, Note_on_c, 0, 71, 82
1, 49322, Note_on_c, 0, 63, 68
1, 49322, Note_on_c, 0, 61, 61
1, 49322, Note_on_c, 0, 66, 66
1, 49330, Note_on_c, 0, 55, 60
1, 49330, Control_c, 1, 1, 2
1, 49330, Control_c, 1, 1, 3
1, 49330, Control_c, 1, 1, 4
1, 49334, Control_c, 1, 1, 5
1, 49334, Control_c, 1, 1, 7
1, 49334, Control_c, 1, 1, 8
1, 49338, Control_c, 1, 1, 9
1, 49338, Control_c, 1, 1, 10
1, 49338, Control_c, 1, 1, 12
1, 49338, Control_c, 1, 1, 13
1, 49342, Control_c, 1, 1, 14
1, 49342, Control_c, 1, 1, 15
1, 49342, Control_c, 1, 1, 16
1, 49346, Control_c, 1, 1, 18
1, 49346, Control_c, 1, 1, 20
1, 49350, Control_c, 1, 1, 23
1, 49350, Control_c, 1, 1, 24
1, 49350, Control_c, 1, 1, 26
1, 49354, Control_c, 1, 1, 27
1, 49354, Control_c, 1, 1, 28
1, 49354, Control_c, 1, 1, 29
1, 49358, Control_c, 1, 1, 31
1, 49358, Control_c, 1, 1, 32
1, 49358, Control_c, 1, 1, 34
1, 49362, Control_c, 1, 1, 37
1, 49362, Control_c, 1, 1, 38
1, 49366, Control_c, 0, 64, 127
1, 49366, Control_c, 1, 1, 39
1, 49366, Control_c, 1, 1, 41
1, 49366, Control_c, 1, 1, 42
1, 49370, Control_c, 1, 1, 43
1, 49370, Control_c, 1, 1, 44
1, 49370, Control_c, 1, 1, 46
1, 49370, Control_c, 1, 1, 47
1, 49374, Control_c, 1, 1, 48
1, 49374, Control_c, 1, 1, 49
1, 49374, Control_c, 1, 1, 50
1, 49378, Control_c, 1, 1, 51
1, 49378, Control_c, 1, 1, 52
1, 49378, Control_c, 1, 1, 54
1, 49378, Control_c, 1, 1, 55
1, 49382, Control_c, 1, 1, 56
1, 49382, Control_c, 1, 1, 57
1, 49382, Control_c, 1, 1, 58
1, 49386, Control_c, 1, 1, 59
1, 49390, Control_c, 1, 1, 62
1, 49390, Control_c, 1, 1, 63
1, 49390, Control_c, 1, 1, 64
1, 49390, Control_c, 1, 1, 65
1, 49394, Control_c, 1, 1, 66
1, 49394, Control_c, 1, 1, 67
1, 49394, Control_c, 1, 1, 68
1, 49398, Control_c, 1, 1, 70
1, 49398, Control_c, 1, 1, 71
1, 49402, Note_on_c, 9, 44, 0
1, 49402, Control_c, 1, 1, 73
1, 49402, Control_c, 1, 1, 74
1, 49402, Control_c, 1, 1, 75
1, 49406, Control_c, 1, 1, 76
1, 49406, Control_c, 1, 1, 77
1, 49406, Control_c, 1, 1, 78
1, 49410, Control_c, 1, 1, 80
1, 49410, Control_c, 1, 1, 81
1, 49414, Note_on_c, 0, 61, 0
1, 49414, Control_c, 1, 1, 82
1, 49414, Control_c, 1, 1, 83
1, 49414, Control_c, 1, 1, 84
1, 49418, Control_c, 1, 1, 86
1, 49418, Control_c, 1, 1, 87
1, 49422, Control_c, 1, 1, 88
1, 49426, Control_c, 1, 1, 89
1, 49426, Control_c, 1, 1, 91
1, 49430, Note_on_c, 0, 63, 0
1, 49430, Control_c, 1, 1, 93
1, 49434, Control_c, 1, 1, 94
1, 49438, Note_on_c, 0, 55, 0
1, 49438, Control_c, 1, 1, 96
1, 49442, Control_c, 1, 1, 98
1, 49442, Control_c, 1, 1, 99
1, 49446, Note_on_c, 0, 66, 0
1, 49446, Control_c, 1, 1, 101
1, 49450, Note_on_c, 0, 71, 0
1, 49450, Control_c, 1, 1, 102
1, 49466, Control_c, 1, 1, 101
1, 49470, Control_c, 1, 1, 99
1, 49470, Control_c, 1, 1, 98
1, 49470, Control_c, 1, 1, 97
1, 49474, Control_c, 1, 1, 96
1, 49474, Control_c, 1, 1, 95
1, 49474, Control_c, 1, 1, 94
1, 49478, Control_c, 1, 1, 92
1, 49478, Control_c, 1, 1, 91
1, 49478, Control_c, 1, 1, 90
1, 49482, Control_c, 1, 1, 88
1, 49482, Control_c, 1, 1, 87
1, 49482, Control_c, 1, 1, 85
1, 49482, Control_c, 1, 1, 83
1, 49486, Control_c, 1, 1, 82
1, 49486, Control_c, 1, 1, 80
1, 49486, Control_c, 1, 1, 78
1, 49490, Control_c, 1, 1, 76
1, 49490, Control_c, 1, 1, 74
1, 49490, Control_c, 1, 1, 72
1, 49494, Control_c, 1, 1, 70
1, 49494, Control_c, 1, 1, 68
1, 49494, Control_c, 1, 1, 66
1, 49494, Control_c, 1, 1, 63
1, 49498, Control_c, 1, 1, 61
1, 49498, Control_c, 1, 1, 58
1, 49498, Control_c, 1, 1, 55
1, 49502, Control_c, 1, 1, 53
1, 49502, Control_c, 1, 1, 50
1, 49502, Control_c, 1, 1, 47
1, 49506, Control_c, 1, 1, 44
1, 49506, Control_c, 1, 1, 40
1, 49506, Control_c, 1, 1, 37
1, 49506, Control_c, 1, 1, 33
1, 49510, Control_c, 1, 1, 29
1, 49510, Control_c, 1, 1, 25
1, 49510, Control_c, 1, 1, 21
1, 49514, Control_c, 1, 1, 17
1, 49514, Control_c, 1, 1, 13
1, 49514, Control_c, 1, 1, 9
1, 49518, Control_c, 1, 1, 6
1, 49518, Control_c, 1, 1, 2
1, 49518, Control_c, 1, 1, 1
1, 49594, Note_on_c, 0, 72, 72
1, 49606, Note_on_c, 9, 40, 0
1, 49606, Note_on_c, 0, 61, 50
1, 49622, Note_on_c, 0, 61, 0
1, 49622, Note_on_c, 0, 55, 37
1, 49634, Note_on_c, 0, 72, 0
1, 49642, Note_on_c, 0, 55, 0
1, 49642, Note_on_c, 9, 40, 36
1, 49674, Note_on_c, 9, 40, 0
1, 49674, Note_on_c, 0, 61, 62
1, 49674, Note_on_c, 0, 75, 90
1, 49686, Note_on_c, 0, 55, 36
1, 49690, Note_on_c, 1, 32, 82
1, 49694, Note_on_c, 0, 54, 31
1, 49702, Note_on_c, 0, 55, 0
1, 49702, Note_on_c, 0, 61, 0
1, 49714, Note_on_c, 9, 40, 54
1, 49718, Note_on_c, 1, 39, 0
1, 49722, Note_on_c, 0, 54, 0
1, 49722, Note_on_c, 9, 35, 29
1, 49726, Note_on_c, 0, 75, 0
1, 49742, Control_c, 0, 64, 0
1, 49758, Note_on_c, 9, 35, 0
1, 49790, Note_on_c, 0, 76, 72
1, 49798, Note_on_c, 0, 54, 50
1, 49798, Note_on_c, 0, 67, 57
1, 49802, Note_on_c, 0, 60, 53
1, 49806, Note_on_c, 0, 72, 36
1, 49814, Note_on_c, 0, 67, 0
1, 49826, Note_on_c, 0, 72, 0
1, 49850, Note_on_c, 0, 76, 0
1, 49866, Note_on_c, 0, 60, 0
1, 49870, Note_on_c, 0, 54, 0
1, 49882, Note_on_c, 1, 48, 81
1, 49918, Note_on_c, 0, 76, 70
1, 49922, Note_on_c, 0, 71, 68
1, 49926, Note_on_c, 0, 68, 60
1, 49930, Note_on_c, 0, 60, 61
1, 49930, Note_on_c, 0, 54, 54
1, 49938, Note_on_c, 0, 64, 37
1, 49954, Control_c, 0, 64, 127
1, 49998, Note_on_c, 0, 64, 0
1, 50010, Note_on_c, 0, 68, 0
1, 50014, Note_on_c, 0, 60, 0
1, 50018, Note_on_c, 0, 71, 0
1, 50022, Note_on_c, 0, 76, 0
1, 50026, Note_on_c, 9, 40, 0
1, 50026, Note_on_c, 0, 54, 0
1, 50062, Note_on_c, 0, 76, 66
1, 50066, Note_on_c, 0, 68, 61
1, 50070, Note_on_c, 0, 64, 56
1, 50074, Note_on_c, 0, 71, 53
1, 50074, Note_on_c, 9, 44, 67
1, 50078, Note_on_c, 0, 54, 46
1, 50078, Note_on_c, 0, 60, 54
1, 50082, Note_on_c, 9, 40, 55
1, 50090, Note_on_c, 0, 71, 0
1, 50094, Note_on_c, 0, 64, 0
1, 50106, Note_on_c, 0, 60, 0
1, 50106, Note_on_c, 0, 68, 0
1, 50122, Note_on_c, 0, 76, 0
1, 50126, Note_on_c, 0, 54, 0
1, 50170, Note_on_c, 9, 44, 0
1, 50170, Note_on_c, 0, 54, 49
1, 50174, Note_on_c, 0, 60, 57
1, 50174, Note_on_c, 0, 77, 83
1, 50178, Note_on_c, 0, 65, 63
1, 50222, Note_on_c, 0, 60, 0
1, 50226, Note_on_c, 0, 77, 0
1, 50238, Note_on_c, 0, 54, 0
1, 50242, Note_on_c, 0, 65, 0
1, 50274, Note_on_c, 0, 77, 68
1, 50274, Note_on_c, 0, 65, 66
1, 50278, Note_on_c, 0, 54, 49
1, 50282, Note_on_c, 0, 60, 55
1, 50306, Note_on_c, 0, 65, 0
1, 50318, Note_on_c, 0, 77, 0
1, 50318, Note_on_c, 0, 60, 0
1, 50330, Note_on_c, 0, 54, 0
1, 50374, Note_on_c, 0, 80, 72
1, 50374, Note_on_c, 0, 60, 57
1, 50378, Note_on_c, 0, 54, 46
1, 50382, Note_on_c, 0, 68, 56
1, 50382, Note_on_c, 0, 72, 54
1, 50394, Note_on_c, 0, 54, 0
1, 50394, Note_on_c, 0, 75, 37
1, 50402, Note_on_c, 0, 60, 0
1, 50410, Note_on_c, 9, 40, 0
1, 50418, Note_on_c, 0, 75, 0
1, 50422, Note_on_c, 0, 72, 0
1, 50426, Note_on_c, 0, 68, 0
1, 50434, Note_on_c, 0, 80, 0
1, 50450, Note_on_c, 9, 40, 52
1, 50454, Note_on_c, 1, 48, 0
1, 50454, Note_on_c, 1, 32, 0
1, 50458, Note_on_c, 1, 37, 100
1, 50462, Control_c, 0, 64, 0
1, 50462, Note_on_c, 9, 35, 38
1, 50482, Note_on_c, 0, 63, 61
1, 50482, Note_on_c, 0, 80, 74
1, 50482, Note_on_c, 0, 60, 66
1, 50482, Note_on_c, 0, 53, 58
1, 50486, Note_on_c, 9, 35, 0
1, 50486, Note_on_c, 0, 68, 60
1, 50486, Note_on_c, 0, 72, 60
1, 50498, Note_on_c, 0, 58, 42
1, 50530, Control_c, 0, 64, 127
1, 50590, Note_on_c, 0, 72, 0
1, 50606, Note_on_c, 0, 68, 0
1, 50622, Note_on_c, 0, 63, 0
1, 50622, Note_on_c, 0, 53, 0
1, 50642, Note_on_c, 0, 80, 0
1, 50642, Note_on_c, 0, 58, 0
1, 50654, Note_on_c, 0, 60, 0
1, 50770, Note_on_c, 0, 84, 85
1, 50770, Note_on_c, 0, 63, 73
1, 50778, Note_on_c, 0, 80, 76
1, 50778, Note_on_c, 0, 77, 84
1, 50782, Note_on_c, 0, 60, 58
1, 50782, Note_on_c, 0, 72, 80
1, 50782, Note_on_c, 0, 53, 57
1, 50782, Note_on_c, 0, 58, 54
1, 50806, Note_on_c, 9, 40, 0
1, 50834, Note_on_c, 0, 53, 0
1, 50834, Note_on_c, 0, 72, 0
1, 50838, Note_on_c, 0, 63, 0
1, 50842, Note_on_c, 0, 77, 0
1, 50842, Note_on_c, 9, 44, 60
1, 50850, Note_on_c, 0, 60, 0
1, 50850, Note_on_c, 9, 40, 45
1, 50854, Note_on_c, 0, 80, 0
1, 50858, Note_on_c, 0, 58, 0
1, 50858, Note_on_c, 0, 84, 0
1, 50874, Control_c, 0, 64, 0
1, 50886, Control_c, 0, 64, 127
1, 50890, Note_on_c, 0, 63, 70
1, 50890, Note_on_c, 0, 84, 77
1, 50890, Note_on_c, 0, 60, 48
1, 50890, Note_on_c, 0, 58, 47
1, 50898, Note_on_c, 0, 80, 61
1, 50898, Note_on_c, 0, 72, 73
1, 50898, Note_on_c, 0, 53, 57
1, 50898, Note_on_c, 0, 77, 70
1, 50946, Note_on_c, 0, 72, 0
1, 50946, Note_on_c, 9, 44, 0
1, 50950, Note_on_c, 0, 84, 0
1, 50954, Note_on_c, 0, 63, 0
1, 50966, Note_on_c, 0, 60, 0
1, 50970, Note_on_c, 0, 53, 0
1, 50970, Note_on_c, 1, 49, 102
1, 50974, Note_on_c, 0, 80, 0
1, 50978, Note_on_c, 0, 77, 0
1, 50978, Note_on_c, 0, 58, 0
1, 51014, Note_on_c, 0, 82, 68
1, 51018, Note_on_c, 0, 70, 59
1, 51022, Note_on_c, 0, 77, 50
1, 51022, Note_on_c, 0, 63, 60
1, 51026, Note_on_c, 0, 60, 55
1, 51030, Note_on_c, 0, 58, 35
1, 51034, Note_on_c, 9, 35, 29
1, 51042, Note_on_c, 0, 60, 0
1, 51042, Note_on_c, 0, 77, 0
1, 51050, Note_on_c, 0, 70, 0
1, 51054, Note_on_c, 9, 35, 0
1, 51058, Note_on_c, 0, 63, 0
1, 51062, Note_on_c, 0, 58, 0
1, 51070, Note_on_c, 0, 82, 0
1, 51094, Note_on_c, 1, 49, 0
1, 51098, Note_on_c, 1, 48, 93
1, 51158, Note_on_c, 0, 87, 86
1, 51166, Note_on_c, 9, 40, 0
1, 51166, Note_on_c, 0, 65, 69
1, 51170, Note_on_c, 0, 56, 56
1, 51170, Note_on_c, 0, 60, 57
1, 51174, Note_on_c, 0, 61, 54
1, 51174, Note_on_c, 0, 84, 66
1, 51174, Note_on_c, 0, 80, 63
1, 51182, Note_on_c, 0, 85, 32
1, 51182, Note_on_c, 0, 75, 49
1, 51202, Note_on_c, 0, 85, 0
1, 51214, Note_on_c, 9, 40, 49
1, 51218, Note_on_c, 0, 65, 0
1, 51218, Note_on_c, 1, 37, 0
1, 51222, Note_on_c, 0, 75, 0
1, 51222, Note_on_c, 9, 46, 48
1, 51226, Note_on_c, 0, 87, 0
1, 51226, Note_on_c, 0, 56, 0
1, 51226, Note_on_c, 0, 60, 0
1, 51226, Note_on_c, 9, 35, 31
1, 51230, Note_on_c, 0, 80, 0
1, 51234, Note_on_c, 0, 84, 0
1, 51234, Note_on_c, 0, 61, 0
1, 51246, Note_on_c, 1, 48, 0
1, 51250, Note_on_c, 9, 46, 0
1, 51254, Note_on_c, 9, 35, 0
1, 51254, Control_c, 0, 64, 0
1, 51266, Note_on_c, 0, 87, 72
1, 51278, Note_on_c, 0, 84, 61
1, 51282, Note_on_c, 0, 56, 52
1, 51282, Note_on_c, 0, 65, 62
1, 51282, Note_on_c, 0, 61, 48
1, 51286, Note_on_c, 0, 80, 66
1, 51290, Note_on_c, 0, 60, 48
1, 51290, Note_on_c, 1, 46, 90
1, 51294, Note_on_c, 0, 75, 51
1, 51310, Note_on_c, 0, 60, 0
1, 51314, Control_c, 0, 64, 127
1, 51358, Note_on_c, 0, 56, 0
1, 51358, Note_on_c, 0, 84, 0
1, 51366, Note_on_c, 0, 65, 0
1, 51366, Note_on_c, 0, 61, 0
1, 51370, Note_on_c, 0, 87, 0
1, 51378, Note_on_c, 0, 75, 0
1, 51378, Note_on_c, 0, 80, 0
1, 51410, Note_on_c, 9, 40, 0
1, 51410, Note_on_c, 9, 38, 50
1, 51414, Note_on_c, 0, 85, 56
1, 51414, Note_on_c, 9, 25, 36
1, 51426, Note_on_c, 0, 65, 57
1, 51430, Note_on_c, 0, 73, 57
1, 51430, Note_on_c, 0, 78, 56
1, 51434, Note_on_c, 0, 61, 43
1, 51438, Note_on_c, 0, 56, 36
1, 51446, Note_on_c, 0, 60, 26
1, 51454, Note_on_c, 0, 82, 22
1, 51470, Note_on_c, 0, 73, 0
1, 51478, Note_on_c, 0, 82, 0
1, 51478, Note_on_c, 0, 65, 0
1, 51482, Note_on_c, 0, 56, 0
1, 51482, Note_on_c, 0, 60, 0
1, 51482, Note_on_c, 0, 78, 0
1, 51486, Note_on_c, 0, 61, 0
1, 51498, Note_on_c, 0, 85, 0
1, 51610, Note_on_c, 9, 44, 63
1, 51614, Note_on_c, 9, 40, 50
1, 51618, Note_on_c, 9, 38, 0
1, 51618, Note_on_c, 9, 25, 0
1, 51674, Note_on_c, 0, 65, 54
1, 51678, Note_on_c, 0, 56, 42
1, 51682, Note_on_c, 0, 61, 46
1, 51690, Note_on_c, 0, 60, 36
1, 51718, Note_on_c, 0, 60, 0
1, 51722, Note_on_c, 0, 65, 0
1, 51730, Note_on_c, 0, 56, 0
1, 51730, Note_on_c, 9, 44, 0
1, 51738, Note_on_c, 0, 61, 0
1, 51770, Note_on_c, 9, 40, 0
1, 51810, Note_on_c, 9, 40, 50
1, 51930, Note_on_c, 1, 38, 88
1, 51942, Note_on_c, 0, 92, 76
1, 51946, Note_on_c, 0, 80, 66
1, 51946, Note_on_c, 0, 65, 65
1, 51946, Note_on_c, 0, 56, 56
1, 51950, Note_on_c, 0, 61, 55
1, 51950, Note_on_c, 0, 84, 52
1, 51950, Note_on_c, 0, 87, 50
1, 51966, Note_on_c, 0, 84, 0
1, 51970, Note_on_c, 0, 87, 0
1, 51970, Note_on_c, 9, 40, 0
1, 51974, Note_on_c, 0, 65, 0
1, 51978, Note_on_c, 0, 80, 0
1, 51994, Note_on_c, 0, 61, 0
1, 51994, Note_on_c, 0, 56, 0
1, 51994, Note_on_c, 1, 39, 92
1, 51998, Note_on_c, 1, 38, 0
1, 52002, Note_on_c, 0, 92, 0
1, 52006, Note_on_c, 9, 40, 55
1, 52018, Note_on_c, 9, 35, 36
1, 52026, Note_on_c, 1, 46, 0
1, 52058, Note_on_c, 9, 35, 0
1, 52058, Control_c, 0, 64, 0
1, 52066, Note_on_c, 0, 92, 70
1, 52066, Note_on_c, 0, 65, 57
1, 52070, Note_on_c, 0, 80, 60
1, 52070, Note_on_c, 0, 54, 50
1, 52074, Note_on_c, 0, 61, 48
1, 52074, Note_on_c, 0, 58, 54
1, 52074, Note_on_c, 0, 85, 62
1, 52102, Control_c, 0, 64, 127
1, 52130, Note_on_c, 0, 85, 0
1, 52134, Note_on_c, 0, 80, 0
1, 52138, Note_on_c, 0, 92, 0
1, 52146, Note_on_c, 0, 65, 0
1, 52146, Note_on_c, 0, 61, 0
1, 52150, Note_on_c, 0, 54, 0
1, 52154, Note_on_c, 0, 58, 0
1, 52186, Note_on_c, 0, 89, 60
1, 52194, Note_on_c, 0, 84, 55
1, 52194, Note_on_c, 0, 77, 41
1, 52194, Note_on_c, 0, 65, 52
1, 52194, Note_on_c, 0, 58, 43
1, 52194, Note_on_c, 0, 54, 43
1, 52194, Note_on_c, 0, 61, 46
1, 52318, Note_on_c, 0, 65, 0
1, 52322, Note_on_c, 0, 61, 0
1, 52322, Note_on_c, 0, 58, 0
1, 52322, Note_on_c, 0, 84, 0
1, 52326, Note_on_c, 0, 77, 0
1, 52326, Note_on_c, 0, 54, 0
1, 52342, Note_on_c, 0, 89, 0
1, 52350, Note_on_c, 9, 40, 0
1, 52378, Note_on_c, 9, 44, 60
1, 52382, Note_on_c, 9, 40, 51
1, 52406, Note_on_c, 0, 89, 48
1, 52410, Note_on_c, 0, 77, 48
1, 52410, Note_on_c, 0, 54, 39
1, 52410, Note_on_c, 0, 65, 42
1, 52410, Note_on_c, 0, 84, 46
1, 52410, Note_on_c, 0, 61, 44
1, 52410, Note_on_c, 0, 58, 42
1, 52418, Note_on_c, 0, 89, 0
1, 52430, Note_on_c, 0, 84, 0
1, 52438, Note_on_c, 0, 65, 0
1, 52446, Note_on_c, 0, 77, 0
1, 52462, Note_on_c, 0, 61, 0
1, 52462, Note_on_c, 0, 54, 0
1, 52466, Note_on_c, 0, 58, 0
1, 52474, Note_on_c, 9, 44, 0
1, 52490, Note_on_c, 9, 40, 0
1, 52490, Note_on_c, 9, 25, 53
1, 52494, Note_on_c, 9, 38, 59
1, 52506, Note_on_c, 1, 46, 100
1, 52538, Note_on_c, 0, 85, 44
1, 52538, Note_on_c, 0, 73, 41
1, 52542, Note_on_c, 9, 38, 0
1, 52542, Note_on_c, 0, 54, 45
1, 52542, Note_on_c, 0, 65, 46
1, 52546, Note_on_c, 9, 25, 0
1, 52546, Note_on_c, 0, 61, 46
1, 52546, Note_on_c, 0, 80, 49
1, 52546, Note_on_c, 0, 58, 49
1, 52558, Note_on_c, 9, 40, 45
1, 52610, Note_on_c, 1, 46, 0
1, 52614, Note_on_c, 0, 80, 0
1, 52634, Note_on_c, 0, 73, 0
1, 52634, Note_on_c, 0, 65, 0
1, 52634, Note_on_c, 1, 45, 98
1, 52646, Note_on_c, 0, 54, 0
1, 52654, Note_on_c, 0, 85, 0
1, 52662, Note_on_c, 0, 61, 0
1, 52698, Note_on_c, 1, 39, 0
1, 52710, Note_on_c, 0, 58, 0
1, 52714, Note_on_c, 9, 40, 0
1, 52746, Note_on_c, 9, 35, 30
1, 52754, Control_c, 0, 64, 0
1, 52754, Note_on_c, 9, 40, 45
1, 52762, Note_on_c, 0, 72, 47
1, 52762, Note_on_c, 1, 44, 79
1, 52766, Note_on_c, 1, 45, 0
1, 52766, Note_on_c, 0, 54, 44
1, 52766, Note_on_c, 0, 64, 42
1, 52766, Note_on_c, 0, 84, 46
1, 52766, Note_on_c, 0, 80, 42
1, 52766, Note_on_c, 0, 60, 46
1, 52774, Note_on_c, 0, 77, 49
1, 52814, Note_on_c, 9, 35, 0
1, 52850, Control_c, 0, 64, 127
1, 52950, Note_on_c, 9, 35, 29
1, 52954, Note_on_c, 0, 64, 0
1, 52954, Note_on_c, 1, 32, 90
1, 53002, Note_on_c, 0, 54, 0
1, 53014, Note_on_c, 9, 35, 0
1, 53020, Note_on_c, 0, 60, 0
1, 53022, Note_on_c, 0, 84, 0
1, 53026, Note_on_c, 0, 72, 0
1, 53038, Note_on_c, 0, 80, 0
1, 53046, Note_on_c, 0, 77, 0
1, 53114, Note_on_c, 9, 40, 0
1, 53142, Note_on_c, 9, 46, 23
1, 53142, Note_on_c, 9, 53, 35
1, 53146, Note_on_c, 0, 54, 46
1, 53146, Note_on_c, 0, 60, 48
1, 53146, Note_on_c, 9, 46, 56
1, 53146, Note_on_c, 9, 40, 50
1, 53154, Note_on_c, 0, 64, 40
1, 53190, Note_on_c, 9, 46, 0
1, 53202, Note_on_c, 9, 53, 0
1, 53242, Note_on_c, 9, 40, 0
1, 53246, Note_on_c, 9, 46, 0
1, 53262, Note_on_c, 9, 39, 38
1, 53266, Note_on_c, 9, 38, 39
1, 53306, Note_on_c, 9, 39, 0
1, 53318, Note_on_c, 9, 38, 0
1, 53338, Note_on_c, 1, 38, 99
1, 53338, Note_on_c, 9, 40, 35
1, 53342, Note_on_c, 1, 32, 0
1, 53346, Note_on_c, 0, 60, 0
1, 53350, Note_on_c, 0, 64, 0
1, 53354, Note_on_c, 0, 54, 0
1, 53354, Note_on_c, 1, 44, 0
1, 53438, Note_on_c, 9, 40, 0
1, 53450, Note_on_c, 0, 82, 54
1, 53450, Note_on_c, 9, 38, 64
1, 53450, Note_on_c, 9, 39, 56
1, 53470, Note_on_c, 9, 35, 13
1, 53482, Note_on_c, 9, 38, 0
1, 53486, Note_on_c, 9, 39, 0
1, 53486, Note_on_c, 9, 35, 0
1, 53490, Note_on_c, 0, 82, 0
1, 53522, Note_on_c, 1, 38, 0
1, 53526, Note_on_c, 9, 40, 46
1, 53530, Note_on_c, 1, 43, 109
1, 53534, Note_on_c, 9, 35, 23
1, 53550, Note_on_c, 0, 84, 70
1, 53550, Note_on_c, 0, 77, 65
1, 53554, Note_on_c, 0, 72, 56
1, 53558, Control_c, 0, 64, 0
1, 53558, Note_on_c, 0, 73, 64
1, 53582, Note_on_c, 0, 72, 0
1, 53586, Note_on_c, 0, 77, 0
1, 53594, Note_on_c, 0, 73, 0
1, 53610, Note_on_c, 0, 84, 0
1, 53622, Note_on_c, 9, 35, 0
1, 53674, Note_on_c, 0, 84, 60
1, 53678, Note_on_c, 0, 77, 58
1, 53678, Note_on_c, 0, 73, 63
1, 53678, Note_on_c, 0, 72, 47
1, 53710, Note_on_c, 0, 72, 0
1, 53714, Note_on_c, 0, 77, 0
1, 53714, Note_on_c, 0, 73, 0
1, 53722, Note_on_c, 0, 84, 0
1, 53722, Note_on_c, 9, 35, 32
1, 53778, Note_on_c, 0, 84, 58
1, 53778, Note_on_c, 0, 73, 51
1, 53786, Note_on_c, 0, 72, 42
1, 53790, Note_on_c, 0, 77, 54
1, 53810, Note_on_c, 9, 35, 0
1, 53814, Note_on_c, 0, 73, 0
1, 53818, Note_on_c, 0, 72, 0
1, 53834, Note_on_c, 0, 84, 0
1, 53838, Note_on_c, 0, 77, 0
1, 53854, Note_on_c, 9, 40, 0
1, 53874, Note_on_c, 0, 82, 42
1, 53894, Note_on_c, 9, 40, 42
1, 53902, Note_on_c, 0, 82, 0
1, 53914, Note_on_c, 9, 44, 59
1, 53942, Note_on_c, 0, 73, 50
1, 53942, Note_on_c, 0, 84, 57
1, 53946, Note_on_c, 0, 72, 37
1, 53950, Note_on_c, 0, 77, 42
1, 53978, Note_on_c, 0, 73, 0
1, 53990, Note_on_c, 0, 72, 0
1, 53994, Note_on_c, 0, 77, 0
1, 53998, Note_on_c, 0, 84, 0
1, 54010, Note_on_c, 9, 44, 0
1, 54014, Note_on_c, 9, 40, 0
1, 54042, Note_on_c, 0, 84, 58
1, 54050, Note_on_c, 0, 72, 45
1, 54058, Note_on_c, 0, 77, 44
1, 54058, Note_on_c, 0, 73, 50
1, 54074, Note_on_c, 0, 77, 0
1, 54082, Note_on_c, 0, 72, 0
1, 54090, Note_on_c, 0, 73, 0
1, 54090, Note_on_c, 9, 40, 55
1, 54094, Note_on_c, 0, 84, 0
1, 54134, Note_on_c, 0, 84, 56
1, 54142, Note_on_c, 0, 72, 48
1, 54142, Note_on_c, 0, 73, 45
1, 54142, Note_on_c, 0, 77, 54
1, 54182, Note_on_c, 0, 73, 0
1, 54182, Note_on_c, 0, 72, 0
1, 54190, Note_on_c, 0, 84, 0
1, 54198, Note_on_c, 0, 77, 0
1, 54230, Note_on_c, 0, 82, 57
1, 54258, Note_on_c, 9, 40, 0
1, 54266, Note_on_c, 0, 82, 0
1, 54290, Note_on_c, 9, 40, 51
1, 54298, Note_on_c, 0, 73, 46
1, 54298, Note_on_c, 9, 35, 18
1, 54302, Note_on_c, 0, 84, 63
1, 54302, Note_on_c, 0, 72, 50
1, 54306, Control_c, 0, 64, 127
1, 54310, Note_on_c, 0, 77, 49
1, 54338, Note_on_c, 0, 72, 0
1, 54350, Note_on_c, 0, 73, 0
1, 54350, Note_on_c, 0, 84, 0
1, 54354, Note_on_c, 9, 35, 0
1, 54366, Note_on_c, 0, 77, 0
1, 54390, Control_c, 0, 64, 0
1, 54418, Note_on_c, 0, 85, 72
1, 54434, Note_on_c, 0, 77, 26
1, 54454, Note_on_c, 0, 77, 0
1, 54462, Note_on_c, 0, 85, 0
1, 54502, Note_on_c, 0, 84, 68
1, 54502, Note_on_c, 0, 72, 60
1, 54502, Note_on_c, 0, 73, 57
1, 54514, Note_on_c, 0, 77, 26
1, 54526, Note_on_c, 0, 73, 0
1, 54530, Note_on_c, 0, 77, 0
1, 54534, Note_on_c, 0, 84, 0
1, 54538, Note_on_c, 0, 72, 0
1, 54558, Note_on_c, 0, 82, 56
1, 54598, Note_on_c, 0, 82, 0
1, 54618, Note_on_c, 0, 84, 63
1, 54622, Note_on_c, 0, 77, 58
1, 54626, Note_on_c, 0, 72, 52
1, 54626, Note_on_c, 0, 73, 63
1, 54630, Note_on_c, 9, 40, 0
1, 54662, Control_c, 0, 64, 127
1, 54666, Note_on_c, 9, 40, 50
1, 54682, Note_on_c, 9, 44, 60
1, 54770, Note_on_c, 9, 40, 0
1, 54778, Note_on_c, 9, 44, 0
1, 54778, Note_on_c, 9, 39, 46
1, 54790, Note_on_c, 9, 38, 31
1, 54818, Note_on_c, 0, 73, 0
1, 54822, Note_on_c, 9, 38, 0
1, 54834, Note_on_c, 9, 39, 0
1, 54854, Note_on_c, 9, 40, 41
1, 54866, Note_on_c, 9, 35, 23
1, 54870, Note_on_c, 0, 84, 0
1, 54874, Note_on_c, 1, 31, 63
1, 54890, Note_on_c, 0, 72, 0
1, 54890, Note_on_c, 0, 77, 0
1, 54910, Note_on_c, 9, 35, 0
1, 54962, Note_on_c, 9, 40, 0
1, 54986, Note_on_c, 9, 40, 30
1, 55014, Note_on_c, 9, 40, 0
1, 55046, Note_on_c, 1, 31, 0
1, 55050, Note_on_c, 1, 43, 0
1, 55054, Note_on_c, 9, 40, 49
1, 55054, Note_on_c, 9, 35, 32
1, 55066, Note_on_c, 1, 36, 100
1, 55090, Note_on_c, 9, 35, 0
1, 55274, Note_on_c, 0, 48, 49
1, 55410, Note_on_c, 9, 40, 0
1, 55426, Note_on_c, 0, 48, 0
1, 55442, Note_on_c, 9, 40, 60
1, 55450, Note_on_c, 9, 44, 62
1, 55546, Note_on_c, 9, 44, 0
1, 55566, Note_on_c, 9, 39, 55
1, 55574, Note_on_c, 9, 40, 0
1, 55598, Note_on_c, 0, 65, 67
1, 55606, Note_on_c, 0, 53, 62
1, 55658, Note_on_c, 9, 35, 23
1, 55666, Note_on_c, 0, 65, 0
1, 55674, Control_c, 0, 64, 0
1, 55686, Note_on_c, 0, 53, 0
1, 55686, Note_on_c, 0, 67, 83
1, 55694, Note_on_c, 0, 55, 80
1, 55710, Note_on_c, 9, 35, 0
1, 55734, Note_on_c, 9, 39, 0
1, 55742, Note_on_c, 9, 40, 45
1, 55774, Note_on_c, 9, 40, 0
1, 55786, Note_on_c, 0, 67, 0
1, 55802, Note_on_c, 0, 69, 98
1, 55814, Note_on_c, 0, 55, 0
1, 55814, Note_on_c, 0, 57, 78
1, 55814, Note_on_c, 9, 40, 50
1, 55826, Control_c, 0, 64, 127
1, 55838, Note_on_c, 9, 35, 31
1, 55898, Note_on_c, 9, 35, 0
1, 55930, Note_on_c, 0, 69, 0
1, 55946, Note_on_c, 0, 57, 0
1, 55954, Note_on_c, 0, 72, 89
1, 55958, Note_on_c, 0, 60, 82
1, 56070, Note_on_c, 0, 72, 0
1, 56090, Note_on_c, 0, 60, 0
1, 56094, Note_on_c, 0, 74, 102
1, 56102, Note_on_c, 0, 62, 82
1, 56138, Note_on_c, 9, 40, 0
1, 56186, Note_on_c, 0, 62, 0
1, 56186, Control_c, 0, 64, 24
1, 56186, Control_c, 0, 64, 0
1, 56190, Note_on_c, 0, 74, 0
1, 56210, Control_c, 0, 64, 127
1, 56214, Note_on_c, 0, 74, 84
1, 56214, Note_on_c, 9, 40, 45
1, 56218, Note_on_c, 0, 62, 70
1, 56218, Note_on_c, 9, 44, 64
1, 56218, Note_on_c, 9, 53, 44
1, 56222, Note_on_c, 9, 46, 39
1, 56266, Note_on_c, 9, 53, 0
1, 56270, Note_on_c, 9, 46, 0
1, 56310, Note_on_c, 0, 74, 0
1, 56310, Note_on_c, 0, 62, 0
1, 56334, Note_on_c, 9, 44, 0
1, 56342, Note_on_c, 9, 39, 40
1, 56346, Note_on_c, 0, 77, 82
1, 56350, Note_on_c, 9, 38, 36
1, 56354, Note_on_c, 0, 65, 64
1, 56362, Note_on_c, 9, 40, 0
1, 56390, Note_on_c, 0, 65, 0
1, 56410, Note_on_c, 1, 45, 85
1, 56502, Note_on_c, 1, 36, 0
1, 56530, Note_on_c, 9, 35, 29
1, 56550, Note_on_c, 9, 35, 0
1, 56554, Note_on_c, 0, 77, 0
1, 56598, Note_on_c, 1, 45, 0
1, 56598, Note_on_c, 9, 35, 31
1, 56602, Note_on_c, 9, 39, 0
1, 56602, Note_on_c, 1, 47, 103
1, 56606, Note_on_c, 9, 38, 0
1, 56610, Note_on_c, 9, 40, 54
1, 56618, Control_c, 0, 64, 0
1, 56694, Note_on_c, 9, 35, 0
1, 56698, Control_c, 0, 64, 127
1, 56782, Control_c, 0, 64, 0
1, 56794, Note_on_c, 9, 35, 37
1, 56814, Note_on_c, 0, 79, 51
1, 56822, Note_on_c, 0, 74, 54
1, 56822, Note_on_c, 0, 69, 39
1, 56826, Note_on_c, 0, 59, 41
1, 56850, Control_c, 0, 64, 127
1, 56866, Note_on_c, 9, 35, 0
1, 56874, Note_on_c, 0, 69, 0
1, 56878, Note_on_c, 0, 59, 0
1, 56902, Note_on_c, 0, 74, 0
1, 56918, Note_on_c, 0, 79, 0
1, 56974, Note_on_c, 9, 40, 0
1, 56986, Note_on_c, 9, 44, 69
1, 57006, Note_on_c, 9, 40, 48
1, 57082, Note_on_c, 9, 44, 0
1, 57214, Note_on_c, 0, 89, 72
1, 57218, Note_on_c, 0, 65, 60
1, 57218, Note_on_c, 0, 81, 73
1, 57218, Note_on_c, 0, 86, 72
1, 57222, Note_on_c, 0, 57, 50
1, 57222, Note_on_c, 0, 62, 46
1, 57290, Note_on_c, 9, 35, 27
1, 57302, Note_on_c, 9, 40, 0
1, 57314, Note_on_c, 9, 35, 0
1, 57322, Note_on_c, 0, 57, 0
1, 57326, Note_on_c, 0, 81, 0
1, 57330, Note_on_c, 9, 40, 41
1, 57342, Note_on_c, 0, 62, 0
1, 57342, Note_on_c, 0, 65, 0
1, 57346, Note_on_c, 0, 89, 0
1, 57346, Note_on_c, 0, 86, 0
1, 57346, Note_on_c, 9, 40, 0
1, 57362, Note_on_c, 9, 53, 55
1, 57366, Note_on_c, 9, 46, 30
1, 57370, Note_on_c, 1, 46, 84
1, 57386, Note_on_c, 1, 47, 0
1, 57386, Note_on_c, 9, 40, 51
1, 57434, Control_c, 0, 64, 0
1, 57434, Note_on_c, 0, 67, 68
1, 57438, Note_on_c, 0, 56, 57
1, 57442, Note_on_c, 0, 79, 67
1, 57442, Note_on_c, 0, 62, 55
1, 57442, Note_on_c, 0, 91, 75
1, 57442, Note_on_c, 0, 84, 63
1, 57498, Control_c, 0, 64, 127
1, 57530, Note_on_c, 0, 79, 0
1, 57534, Note_on_c, 0, 84, 0
1, 57542, Note_on_c, 0, 91, 0
1, 57550, Note_on_c, 9, 53, 0
1, 57550, Note_on_c, 0, 67, 0
1, 57554, Note_on_c, 0, 56, 0
1, 57562, Note_on_c, 0, 62, 0
1, 57570, Note_on_c, 9, 46, 0
1, 57598, Note_on_c, 0, 91, 77
1, 57602, Note_on_c, 0, 84, 63
1, 57602, Note_on_c, 0, 67, 60
1, 57602, Note_on_c, 0, 56, 54
1, 57606, Note_on_c, 0, 79, 56
1, 57606, Note_on_c, 0, 62, 56
1, 57670, Note_on_c, 0, 79, 0
1, 57678, Note_on_c, 0, 67, 0
1, 57682, Note_on_c, 0, 56, 0
1, 57686, Note_on_c, 0, 62, 0
1, 57686, Note_on_c, 0, 84, 0
1, 57694, Note_on_c, 0, 91, 0
1, 57722, Note_on_c, 9, 40, 0
1, 57726, Note_on_c, 0, 89, 59
1, 57726, Note_on_c, 0, 67, 46
1, 57734, Note_on_c, 0, 56, 37
1, 57734, Note_on_c, 0, 62, 47
1, 57750, Note_on_c, 9, 40, 53
1, 57754, Note_on_c, 9, 44, 61
1, 57770, Note_on_c, 0, 67, 0
1, 57770, Note_on_c, 9, 53, 44
1, 57770, Note_on_c, 9, 46, 29
1, 57774, Note_on_c, 0, 56, 0
1, 57786, Note_on_c, 0, 62, 0
1, 57814, Note_on_c, 0, 89, 0
1, 57826, Note_on_c, 9, 53, 0
1, 57834, Note_on_c, 9, 46, 0
1, 57850, Note_on_c, 0, 91, 63
1, 57850, Note_on_c, 0, 56, 52
1, 57854, Note_on_c, 0, 79, 48
1, 57854, Note_on_c, 0, 67, 48
1, 57854, Note_on_c, 0, 84, 45
1, 57858, Note_on_c, 0, 62, 52
1, 57870, Note_on_c, 9, 44, 0
1, 57922, Note_on_c, 0, 91, 0
1, 57922, Note_on_c, 0, 67, 0
1, 57922, Note_on_c, 0, 79, 0
1, 57926, Note_on_c, 0, 84, 0
1, 57926, Note_on_c, 0, 56, 0
1, 57938, Note_on_c, 0, 62, 0
1, 57974, Note_on_c, 0, 91, 66
1, 57978, Note_on_c, 9, 35, 18
1, 57982, Note_on_c, 0, 56, 39
1, 57986, Note_on_c, 0, 84, 44
1, 57986, Note_on_c, 0, 79, 40
1, 57986, Note_on_c, 0, 67, 30
1, 57990, Note_on_c, 0, 62, 46
1, 58002, Note_on_c, 9, 35, 0
1, 58006, Note_on_c, 0, 62, 0
1, 58006, Note_on_c, 0, 67, 0
1, 58038, Note_on_c, 0, 79, 0
1, 58050, Note_on_c, 9, 40, 0
1, 58054, Note_on_c, 0, 84, 0
1, 58062, Note_on_c, 0, 91, 0
1, 58070, Note_on_c, 0, 56, 0
1, 58086, Note_on_c, 0, 89, 58
1, 58090, Note_on_c, 9, 40, 42
1, 58106, Note_on_c, 9, 40, 0
1, 58138, Note_on_c, 1, 45, 86
1, 58142, Note_on_c, 9, 40, 51
1, 58154, Note_on_c, 1, 46, 0
1, 58158, Note_on_c, 0, 89, 0
1, 58158, Note_on_c, 9, 35, 33
1, 58190, Control_c, 0, 64, 0
1, 58194, Note_on_c, 9, 35, 0
1, 58194, Note_on_c, 0, 91, 63
1, 58198, Note_on_c, 0, 79, 48
1, 58198, Note_on_c, 0, 64, 38
1, 58202, Note_on_c, 0, 60, 46
1, 58202, Note_on_c, 0, 59, 48
1, 58206, Note_on_c, 0, 84, 41
1, 58210, Note_on_c, 0, 55, 28
1, 58242, Control_c, 0, 64, 127
1, 58258, Note_on_c, 9, 40, 0
1, 58262, Note_on_c, 9, 39, 50
1, 58270, Note_on_c, 9, 38, 46
1, 58290, Note_on_c, 9, 38, 0
1, 58302, Note_on_c, 9, 39, 0
1, 58334, Note_on_c, 9, 40, 39
1, 58390, Note_on_c, 0, 64, 0
1, 58394, Note_on_c, 0, 60, 0
1, 58406, Note_on_c, 0, 59, 0
1, 58450, Note_on_c, 0, 55, 0
1, 58450, Note_on_c, 0, 79, 0
1, 58450, Note_on_c, 0, 91, 0
1, 58466, Note_on_c, 0, 84, 0
1, 58490, Note_on_c, 9, 40, 0
1, 58522, Note_on_c, 9, 44, 59
1, 58522, Note_on_c, 9, 40, 49
1, 58538, Note_on_c, 9, 46, 42
1, 58538, Note_on_c, 9, 53, 40
1, 58590, Note_on_c, 9, 53, 0
1, 58594, Note_on_c, 9, 46, 0
1, 58618, Note_on_c, 9, 44, 0
1, 58662, Note_on_c, 0, 89, 82
1, 58662, Note_on_c, 0, 77, 78
1, 58662, Note_on_c, 0, 84, 72
1, 58662, Note_on_c, 0, 64, 66
1, 58666, Note_on_c, 0, 60, 58
1, 58666, Note_on_c, 0, 55, 61
1, 58666, Note_on_c, 0, 59, 55
1, 58710, Note_on_c, 0, 55, 0
1, 58710, Note_on_c, 0, 77, 0
1, 58714, Note_on_c, 0, 64, 0
1, 58722, Note_on_c, 0, 84, 0
1, 58726, Note_on_c, 0, 89, 0
1, 58730, Note_on_c, 0, 59, 0
1, 58734, Note_on_c, 0, 60, 0
1, 58794, Note_on_c, 0, 91, 107
1, 58794, Note_on_c, 0, 79, 96
1, 58794, Note_on_c, 0, 55, 68
1, 58798, Note_on_c, 0, 64, 68
1, 58798, Note_on_c, 0, 60, 60
1, 58806, Note_on_c, 0, 59, 50
1, 58806, Note_on_c, 0, 84, 52
1, 58814, Note_on_c, 9, 40, 0
1, 58818, Note_on_c, 0, 84, 0
1, 58818, Note_on_c, 0, 59, 0
1, 58834, Note_on_c, 9, 35, 25
1, 58842, Note_on_c, 0, 60, 0
1, 58846, Note_on_c, 0, 55, 0
1, 58846, Note_on_c, 0, 64, 0
1, 58854, Note_on_c, 9, 35, 0
1, 58854, Note_on_c, 0, 91, 0
1, 58854, Note_on_c, 9, 40, 24
1, 58858, Note_on_c, 0, 79, 0
1, 58870, Note_on_c, 9, 40, 0
1, 58902, Note_on_c, 9, 40, 62
1, 58906, Control_c, 0, 64, 0
1, 58906, Note_on_c, 1, 44, 83
1, 58910, Note_on_c, 9, 35, 29
1, 58922, Note_on_c, 0, 89, 90
1, 58922, Note_on_c, 0, 65, 80
1, 58926, Note_on_c, 0, 54, 64
1, 58926, Note_on_c, 0, 77, 82
1, 58926, Note_on_c, 0, 60, 60
1, 58926, Note_on_c, 0, 84, 72
1, 58930, Note_on_c, 1, 45, 0
1, 58930, Note_on_c, 0, 58, 54
1, 58942, Note_on_c, 0, 87, 25
1, 58946, Note_on_c, 0, 58, 0
1, 58946, Control_c, 0, 64, 127
1, 58954, Note_on_c, 9, 35, 0
1, 58958, Note_on_c, 0, 87, 0
1, 58966, Note_on_c, 0, 58, 15
1, 59002, Note_on_c, 0, 58, 0
1, 59002, Note_on_c, 0, 89, 0
1, 59014, Note_on_c, 0, 77, 0
1, 59014, Note_on_c, 0, 84, 0
1, 59014, Note_on_c, 0, 65, 0
1, 59026, Note_on_c, 0, 54, 0
1, 59030, Note_on_c, 0, 60, 0
1, 59062, Note_on_c, 0, 88, 68
1, 59066, Note_on_c, 0, 54, 57
1, 59066, Note_on_c, 0, 76, 65
1, 59066, Note_on_c, 0, 83, 64
1, 59070, Note_on_c, 0, 65, 63
1, 59070, Control_c, 0, 64, 0
1, 59070, Note_on_c, 0, 60, 53
1, 59086, Control_c, 0, 64, 127
1, 59166, Note_on_c, 0, 65, 0
1, 59182, Note_on_c, 0, 83, 0
1, 59182, Note_on_c, 0, 88, 0
1, 59198, Note_on_c, 0, 60, 0
1, 59206, Note_on_c, 0, 76, 0
1, 59218, Note_on_c, 0, 54, 0
1, 59254, Note_on_c, 9, 40, 0
1, 59290, Note_on_c, 9, 44, 63
1, 59294, Note_on_c, 9, 40, 56
1, 59298, Note_on_c, 9, 53, 45
1, 59302, Note_on_c, 9, 46, 30
1, 59310, Note_on_c, 0, 54, 41
1, 59310, Note_on_c, 0, 86, 56
1, 59310, Note_on_c, 0, 64, 39
1, 59314, Note_on_c, 0, 74, 46
1, 59314, Note_on_c, 0, 81, 58
1, 59322, Note_on_c, 0, 60, 41
1, 59350, Note_on_c, 9, 53, 0
1, 59354, Note_on_c, 9, 46, 0
1, 59370, Note_on_c, 0, 81, 0
1, 59378, Note_on_c, 0, 86, 0
1, 59386, Note_on_c, 0, 64, 0
1, 59390, Note_on_c, 0, 74, 0
1, 59390, Note_on_c, 9, 44, 0
1, 59410, Note_on_c, 0, 60, 0
1, 59418, Note_on_c, 0, 54, 0
1, 59494, Note_on_c, 9, 35, 31
1, 59558, Note_on_c, 9, 35, 0
1, 59566, Note_on_c, 9, 40, 0
1, 59610, Note_on_c, 9, 40, 37
1, 59626, Note_on_c, 9, 40, 0
1, 59638, Note_on_c, 0, 84, 74
1, 59662, Note_on_c, 9, 40, 55
1, 59674, Note_on_c, 1, 43, 87
1, 59682, Control_c, 0, 64, 40
1, 59682, Control_c, 0, 64, 0
1, 59686, Note_on_c, 0, 84, 0
1, 59690, Note_on_c, 1, 44, 0
1, 59690, Note_on_c, 9, 35, 25
1, 59694, Note_on_c, 0, 58, 44
1, 59702, Note_on_c, 0, 62, 27
1, 59706, Note_on_c, 0, 53, 29
1, 59706, Note_on_c, 0, 79, 40
1, 59706, Note_on_c, 0, 57, 35
1, 59714, Note_on_c, 9, 35, 0
1, 59746, Note_on_c, 0, 80, 37
1, 59766, Note_on_c, 0, 80, 0
1, 59778, Note_on_c, 0, 79, 0
1, 59790, Note_on_c, 0, 81, 45
1, 59802, Note_on_c, 0, 58, 0
1, 59806, Note_on_c, 0, 62, 0
1, 59814, Note_on_c, 0, 81, 0
1, 59838, Note_on_c, 0, 86, 72
1, 59862, Note_on_c, 0, 53, 0
1, 59862, Note_on_c, 0, 62, 30
1, 59862, Note_on_c, 0, 58, 41
1, 59878, Note_on_c, 0, 86, 0
1, 59890, Note_on_c, 0, 62, 0
1, 59894, Note_on_c, 0, 58, 0
1, 59910, Note_on_c, 0, 79, 31
1, 59974, Note_on_c, 0, 79, 0
1, 59990, Note_on_c, 0, 81, 45
1, 60010, Note_on_c, 0, 81, 0
1, 60014, Note_on_c, 9, 40, 0
1, 60022, Note_on_c, 0, 57, 0
1, 60046, Note_on_c, 9, 40, 54
1, 60058, Note_on_c, 9, 46, 43
1, 60154, Note_on_c, 9, 46, 0
1, 60350, Note_on_c, 9, 40, 0
1, 60378, Note_on_c, 1, 31, 86
1, 60382, Note_on_c, 9, 40, 44
1, 60406, Note_on_c, 9, 40, 0
1, 60434, Note_on_c, 9, 35, 22
1, 60442, Note_on_c, 0, 62, 38
1, 60442, Note_on_c, 1, 42, 91
1, 60446, Note_on_c, 0, 54, 35
1, 60446, Note_on_c, 0, 58, 44
1, 60446, Note_on_c, 9, 40, 57
1, 60470, Note_on_c, 1, 43, 0
1, 60478, Note_on_c, 9, 35, 0
1, 60482, Note_on_c, 1, 31, 0
1, 60506, Note_on_c, 0, 58, 0
1, 60534, Note_on_c, 0, 62, 0
1, 60534, Note_on_c, 0, 54, 0
1, 60642, Note_on_c, 0, 78, 80
1, 60646, Note_on_c, 0, 86, 74
1, 60650, Note_on_c, 9, 35, 23
1, 60714, Note_on_c, 0, 78, 0
1, 60718, Note_on_c, 0, 86, 0
1, 60742, Note_on_c, 9, 35, 0
1, 60770, Note_on_c, 0, 74, 66
1, 60790, Note_on_c, 0, 74, 0
1, 60806, Note_on_c, 9, 40, 0
1, 60826, Note_on_c, 9, 44, 59
1, 60838, Note_on_c, 9, 40, 57
1, 60922, Note_on_c, 9, 44, 0
1, 60946, Note_on_c, 9, 32, 36
1, 60974, Note_on_c, 0, 62, 51
1, 60978, Note_on_c, 9, 32, 0
1, 60978, Note_on_c, 0, 54, 36
1, 60982, Note_on_c, 0, 58, 39
1, 60990, Note_on_c, 0, 62, 0
1, 61002, Note_on_c, 0, 54, 0
1, 61002, Note_on_c, 0, 58, 0
1, 61042, Control_c, 0, 64, 127
1, 61042, Note_on_c, 0, 69, 52
1, 61042, Note_on_c, 9, 35, 13
1, 61098, Note_on_c, 9, 35, 0
1, 61134, Note_on_c, 0, 69, 0
1, 61150, Note_on_c, 9, 40, 0
1, 61154, Note_on_c, 9, 39, 48
1, 61154, Note_on_c, 9, 38, 53
1, 61166, Note_on_c, 0, 66, 54
1, 61170, Note_on_c, 9, 38, 0
1, 61174, Note_on_c, 9, 39, 0
1, 61210, Control_c, 0, 64, 0
1, 61210, Note_on_c, 1, 41, 90
1, 61214, Note_on_c, 9, 40, 51
1, 61218, Note_on_c, 0, 58, 42
1, 61222, Note_on_c, 0, 66, 0
1, 61222, Note_on_c, 9, 35, 31
1, 61226, Note_on_c, 0, 53, 41
1, 61226, Note_on_c, 0, 62, 23
1, 61234, Note_on_c, 1, 42, 0
1, 61234, Note_on_c, 0, 65, 56
1, 61266, Note_on_c, 9, 35, 0
1, 61302, Note_on_c, 0, 62, 0
1, 61358, Note_on_c, 0, 65, 0
1, 61366, Note_on_c, 0, 62, 50
1, 61366, Control_c, 0, 64, 127
1, 61446, Note_on_c, 0, 58, 0
1, 61450, Note_on_c, 0, 62, 0
1, 61482, Note_on_c, 0, 53, 0
1, 61550, Note_on_c, 9, 40, 0
1, 61566, Note_on_c, 0, 56, 35
1, 61582, Note_on_c, 0, 56, 0
1, 61582, Note_on_c, 9, 40, 52
1, 61586, Control_c, 0, 64, 0
1, 61594, Note_on_c, 9, 44, 60
1, 61606, Note_on_c, 0, 69, 48
1, 61606, Note_on_c, 0, 58, 57
1, 61610, Note_on_c, 0, 57, 48
1, 61614, Control_c, 0, 64, 127
1, 61618, Note_on_c, 0, 62, 45
1, 61618, Note_on_c, 0, 64, 42
1, 61642, Note_on_c, 0, 62, 0
1, 61646, Note_on_c, 0, 64, 0
1, 61658, Note_on_c, 0, 58, 0
1, 61670, Note_on_c, 0, 69, 0
1, 61686, Note_on_c, 0, 57, 0
1, 61706, Note_on_c, 9, 44, 0
1, 61738, Note_on_c, 0, 72, 68
1, 61750, Note_on_c, 0, 60, 57
1, 61758, Control_c, 0, 64, 0
1, 61762, Note_on_c, 0, 67, 31
1, 61778, Note_on_c, 0, 60, 0
1, 61790, Note_on_c, 0, 72, 0
1, 61790, Note_on_c, 0, 67, 0
1, 61830, Control_c, 0, 64, 127
1, 61870, Note_on_c, 9, 40, 0
1, 61898, Control_c, 0, 64, 0
1, 61914, Note_on_c, 9, 40, 36
1, 61926, Note_on_c, 0, 74, 72
1, 61930, Note_on_c, 0, 67, 58
1, 61930, Note_on_c, 0, 65, 62
1, 61930, Note_on_c, 0, 70, 57
1, 61930, Note_on_c, 0, 62, 60
1, 61934, Note_on_c, 9, 40, 0
1, 61958, Note_on_c, 0, 70, 0
1, 61958, Note_on_c, 0, 74, 0
1, 61958, Note_on_c, 0, 67, 0
1, 61958, Note_on_c, 0, 62, 0
1, 61962, Note_on_c, 0, 65, 0
1, 61962, Note_on_c, 9, 35, 28
1, 61966, Note_on_c, 9, 40, 51
1, 61978, Note_on_c, 1, 40, 86
1, 61990, Note_on_c, 9, 35, 0
1, 61990, Note_on_c, 1, 41, 0
1, 62022, Note_on_c, 0, 70, 44
1, 62038, Note_on_c, 0, 70, 0
1, 62266, Note_on_c, 9, 40, 0
1, 62294, Note_on_c, 9, 40, 45
1, 62302, Note_on_c, 0, 68, 66
1, 62306, Note_on_c, 0, 56, 57
1, 62306, Note_on_c, 0, 58, 66
1, 62310, Note_on_c, 9, 40, 0
1, 62310, Note_on_c, 0, 60, 66
1, 62318, Note_on_c, 0, 64, 44
1, 62326, Note_on_c, 0, 66, 36
1, 62338, Note_on_c, 0, 58, 0
1, 62342, Note_on_c, 0, 64, 0
1, 62346, Note_on_c, 0, 68, 0
1, 62346, Note_on_c, 9, 40, 46
1, 62358, Note_on_c, 0, 60, 0
1, 62362, Note_on_c, 0, 56, 0
1, 62362, Note_on_c, 0, 66, 0
1, 62362, Note_on_c, 1, 33, 87
1, 62362, Note_on_c, 9, 46, 42
1, 62390, Note_on_c, 0, 67, 40
1, 62398, Note_on_c, 0, 60, 29
1, 62398, Note_on_c, 0, 55, 28
1, 62402, Note_on_c, 0, 58, 13
1, 62410, Note_on_c, 0, 67, 0
1, 62414, Note_on_c, 1, 40, 0
1, 62446, Note_on_c, 0, 60, 0
1, 62450, Note_on_c, 0, 58, 0
1, 62458, Note_on_c, 9, 46, 0
1, 62462, Note_on_c, 0, 55, 0
1, 62506, Note_on_c, 0, 60, 57
1, 62510, Note_on_c, 0, 53, 54
1, 62514, Note_on_c, 0, 65, 42
1, 62522, Note_on_c, 0, 62, 45
1, 62538, Note_on_c, 0, 53, 0
1, 62546, Note_on_c, 0, 62, 0
1, 62550, Note_on_c, 0, 65, 0
1, 62554, Note_on_c, 1, 39, 91
1, 62558, Note_on_c, 0, 60, 0
1, 62566, Note_on_c, 9, 35, 27
1, 62578, Note_on_c, 0, 50, 48
1, 62578, Note_on_c, 0, 57, 46
1, 62606, Note_on_c, 1, 33, 0
1, 62618, Note_on_c, 9, 35, 0
1, 62646, Note_on_c, 9, 40, 0
1, 62646, Note_on_c, 0, 57, 0
1, 62670, Note_on_c, 0, 50, 0
1, 62682, Note_on_c, 9, 40, 39
1, 62698, Note_on_c, 0, 49, 47
1, 62702, Note_on_c, 9, 40, 0
1, 62738, Note_on_c, 0, 49, 0
1, 62738, Note_on_c, 9, 40, 43
1, 62746, Note_on_c, 1, 38, 97
1, 62754, Note_on_c, 1, 39, 0
1, 62754, Note_on_c, 0, 53, 48
1, 62758, Note_on_c, 0, 57, 57
1, 62758, Note_on_c, 0, 64, 49
1, 62758, Note_on_c, 0, 52, 57
1, 62762, Note_on_c, 0, 60, 50
1, 62762, Note_on_c, 9, 35, 26
1, 62814, Note_on_c, 9, 35, 0
1, 62818, Note_on_c, 0, 52, 0
1, 62826, Note_on_c, 0, 53, 0
1, 62834, Note_on_c, 0, 57, 0
1, 62838, Note_on_c, 0, 64, 0
1, 62838, Note_on_c, 0, 60, 0
1, 62886, Note_on_c, 0, 45, 50
1, 62902, Note_on_c, 0, 45, 0
1, 62938, Note_on_c, 0, 53, 55
1, 62950, Note_on_c, 0, 57, 48
1, 62950, Note_on_c, 0, 50, 48
1, 62954, Note_on_c, 0, 62, 47
1, 62954, Note_on_c, 0, 60, 44
1, 62962, Note_on_c, 9, 35, 25
1, 62982, Note_on_c, 0, 50, 0
1, 63002, Note_on_c, 9, 35, 0
1, 63014, Note_on_c, 0, 53, 0
1, 63014, Note_on_c, 0, 60, 0
1, 63018, Note_on_c, 0, 57, 0
1, 63034, Note_on_c, 0, 62, 0
1, 63066, Note_on_c, 0, 38, 41
1, 63070, Note_on_c, 9, 40, 0
1, 63086, Note_on_c, 0, 38, 0
1, 63110, Note_on_c, 9, 40, 45
1, 63122, Note_on_c, 0, 49, 50
1, 63126, Note_on_c, 0, 53, 48
1, 63130, Note_on_c, 0, 61, 40
1, 63130, Note_on_c, 9, 44, 61
1, 63142, Note_on_c, 0, 57, 37
1, 63150, Note_on_c, 9, 46, 32
1, 63158, Note_on_c, 9, 53, 34
1, 63190, Note_on_c, 9, 53, 0
1, 63190, Note_on_c, 9, 46, 0
1, 63210, Note_on_c, 0, 49, 0
1, 63214, Note_on_c, 0, 57, 0
1, 63222, Note_on_c, 0, 53, 0
1, 63226, Note_on_c, 9, 44, 0
1, 63234, Note_on_c, 0, 61, 0
1, 63242, Note_on_c, 9, 39, 56
1, 63246, Note_on_c, 9, 40, 0
1, 63262, Note_on_c, 0, 44, 57
1, 63274, Note_on_c, 0, 44, 0
1, 63282, Note_on_c, 9, 39, 0
1, 63306, Note_on_c, 9, 40, 43
1, 63322, Note_on_c, 0, 53, 65
1, 63326, Note_on_c, 0, 57, 52
1, 63326, Note_on_c, 0, 52, 54
1, 63326, Note_on_c, 0, 61, 49
1, 63326, Note_on_c, 0, 64, 42
1, 63406, Note_on_c, 0, 52, 0
1, 63406, Note_on_c, 0, 53, 0
1, 63410, Note_on_c, 0, 57, 0
1, 63410, Note_on_c, 0, 64, 0
1, 63422, Note_on_c, 0, 61, 0
1, 63466, Note_on_c, 9, 40, 0
1, 63478, Note_on_c, 0, 45, 35
1, 63506, Note_on_c, 0, 45, 0
1, 63506, Note_on_c, 9, 40, 46
1, 63514, Note_on_c, 1, 45, 102
1, 63522, Note_on_c, 0, 53, 63
1, 63522, Note_on_c, 9, 35, 32
1, 63530, Note_on_c, 0, 62, 51
1, 63534, Note_on_c, 0, 57, 41
1, 63538, Note_on_c, 0, 50, 50
1, 63558, Note_on_c, 9, 35, 0
1, 63594, Note_on_c, 0, 50, 0
1, 63602, Note_on_c, 1, 38, 0
1, 63718, Note_on_c, 0, 53, 0
1, 63730, Note_on_c, 0, 57, 0
1, 63730, Control_c, 0, 64, 127
1, 63762, Note_on_c, 0, 62, 0
1, 63850, Note_on_c, 0, 50, 48
1, 63862, Note_on_c, 9, 40, 0
1, 63874, Control_c, 0, 64, 0
1, 63878, Note_on_c, 0, 50, 0
1, 63890, Note_on_c, 9, 40, 52
1, 63898, Note_on_c, 9, 44, 64
1, 63994, Note_on_c, 9, 44, 0
1, 64098, Note_on_c, 0, 85, 60
1, 64098, Note_on_c, 0, 73, 60
1, 64138, Note_on_c, 0, 73, 0
1, 64142, Note_on_c, 0, 85, 0
1, 64166, Note_on_c, 0, 74, 39
1, 64170, Note_on_c, 0, 86, 56
1, 64178, Note_on_c, 9, 40, 0
1, 64186, Note_on_c, 0, 86, 0
1, 64190, Note_on_c, 0, 84, 25
1, 64198, Note_on_c, 0, 74, 0
1, 64210, Note_on_c, 0, 84, 0
1, 64210, Note_on_c, 9, 35, 23
1, 64222, Note_on_c, 9, 40, 48
1, 64226, Note_on_c, 0, 86, 68
1, 64226, Note_on_c, 0, 74, 63
1, 64238, Note_on_c, 9, 40, 0
1, 64238, Note_on_c, 9, 35, 0
1, 64250, Note_on_c, 0, 84, 32
1, 64254, Note_on_c, 0, 74, 0
1, 64254, Note_on_c, 0, 86, 0
1, 64270, Note_on_c, 0, 84, 0
1, 64274, Note_on_c, 9, 40, 63
1, 64282, Note_on_c, 1, 38, 99
1, 64286, Note_on_c, 9, 35, 23
1, 64294, Note_on_c, 0, 73, 55
1, 64298, Note_on_c, 0, 85, 54
1, 64298, Note_on_c, 0, 64, 32
1, 64298, Note_on_c, 0, 54, 43
1, 64310, Note_on_c, 0, 60, 26
1, 64326, Note_on_c, 1, 45, 0
1, 64334, Note_on_c, 0, 73, 0
1, 64334, Note_on_c, 0, 64, 0
1, 64338, Note_on_c, 0, 85, 0
1, 64346, Note_on_c, 0, 54, 0
1, 64358, Note_on_c, 9, 35, 0
1, 64362, Note_on_c, 0, 86, 58
1, 64366, Note_on_c, 0, 60, 0
1, 64370, Note_on_c, 0, 74, 41
1, 64390, Note_on_c, 0, 74, 0
1, 64402, Note_on_c, 0, 86, 0
1, 64422, Note_on_c, 0, 86, 50
1, 64426, Note_on_c, 0, 74, 55
1, 64430, Note_on_c, 0, 82, 63
1, 64446, Note_on_c, 0, 74, 0
1, 64450, Note_on_c, 0, 86, 0
1, 64450, Note_on_c, 0, 84, 39
1, 64462, Note_on_c, 0, 84, 0
1, 64474, Note_on_c, 0, 82, 0
1, 64486, Note_on_c, 9, 35, 30
1, 64490, Note_on_c, 0, 85, 60
1, 64494, Note_on_c, 0, 73, 57
1, 64510, Note_on_c, 0, 73, 0
1, 64530, Note_on_c, 9, 35, 0
1, 64534, Note_on_c, 0, 85, 0
1, 64550, Note_on_c, 0, 86, 58
1, 64554, Note_on_c, 0, 74, 48
1, 64570, Note_on_c, 0, 84, 25
1, 64582, Note_on_c, 0, 74, 0
1, 64590, Note_on_c, 0, 86, 0
1, 64590, Note_on_c, 0, 84, 0
1, 64606, Note_on_c, 0, 86, 56
1, 64610, Note_on_c, 0, 74, 70
1, 64614, Note_on_c, 0, 82, 61
1, 64626, Note_on_c, 9, 40, 0
1, 64626, Note_on_c, 0, 84, 42
1, 64634, Note_on_c, 0, 86, 0
1, 64638, Note_on_c, 0, 74, 0
1, 64642, Note_on_c, 0, 84, 0
1, 64662, Note_on_c, 9, 40, 55
1, 64666, Note_on_c, 9, 44, 64
1, 64670, Note_on_c, 0, 54, 46
1, 64674, Note_on_c, 0, 73, 54
1, 64674, Note_on_c, 0, 85, 50
1, 64674, Note_on_c, 0, 64, 37
1, 64678, Note_on_c, 0, 60, 39
1, 64706, Note_on_c, 0, 64, 0
1, 64710, Note_on_c, 0, 54, 0
1, 64710, Note_on_c, 0, 82, 0
1, 64714, Note_on_c, 0, 73, 0
1, 64714, Note_on_c, 0, 85, 0
1, 64730, Note_on_c, 0, 74, 54
1, 64730, Note_on_c, 0, 86, 49
1, 64734, Note_on_c, 0, 60, 0
1, 64750, Note_on_c, 0, 84, 21
1, 64758, Note_on_c, 0, 86, 0
1, 64762, Note_on_c, 0, 74, 0
1, 64762, Note_on_c, 9, 44, 0
1, 64770, Note_on_c, 0, 84, 0
1, 64786, Note_on_c, 0, 86, 68
1, 64790, Note_on_c, 0, 74, 75
1, 64806, Note_on_c, 0, 81, 43
1, 64806, Note_on_c, 0, 84, 31
1, 64810, Note_on_c, 0, 74, 0
1, 64814, Note_on_c, 0, 86, 0
1, 64818, Note_on_c, 0, 81, 0
1, 64826, Note_on_c, 0, 84, 0
1, 64846, Note_on_c, 0, 85, 66
1, 64850, Note_on_c, 0, 73, 67
1, 64850, Note_on_c, 0, 81, 59
1, 64858, Note_on_c, 0, 60, 48
1, 64862, Note_on_c, 0, 54, 39
1, 64862, Note_on_c, 0, 64, 36
1, 64866, Note_on_c, 0, 81, 0
1, 64886, Note_on_c, 0, 64, 0
1, 64886, Note_on_c, 0, 54, 0
1, 64890, Note_on_c, 0, 73, 0
1, 64890, Note_on_c, 0, 85, 0
1, 64906, Note_on_c, 0, 74, 67
1, 64906, Note_on_c, 0, 86, 64
1, 64914, Note_on_c, 0, 60, 0
1, 64918, Note_on_c, 0, 81, 48
1, 64926, Note_on_c, 0, 84, 28
1, 64934, Note_on_c, 0, 81, 0
1, 64934, Note_on_c, 0, 74, 0
1, 64942, Note_on_c, 0, 86, 0
1, 64946, Note_on_c, 0, 84, 0
1, 64958, Note_on_c, 9, 40, 0
1, 64966, Note_on_c, 0, 74, 75
1, 64966, Note_on_c, 0, 86, 73
1, 64970, Note_on_c, 0, 81, 68
1, 64978, Note_on_c, 0, 84, 62
1, 64994, Note_on_c, 0, 84, 0
1, 64994, Note_on_c, 9, 40, 49
1, 64998, Note_on_c, 0, 74, 0
1, 65002, Note_on_c, 0, 86, 0
1, 65010, Note_on_c, 9, 40, 0
1, 65018, Note_on_c, 0, 81, 0
1, 65034, Note_on_c, 0, 64, 51
1, 65034, Note_on_c, 0, 54, 48
1, 65038, Note_on_c, 0, 60, 50
1, 65042, Note_on_c, 0, 85, 59
1, 65046, Control_c, 0, 64, 127
1, 65046, Note_on_c, 9, 40, 51
1, 65050, Note_on_c, 0, 73, 56
1, 65050, Note_on_c, 1, 54, 90
1, 65054, Note_on_c, 0, 81, 63
1, 65066, Note_on_c, 9, 35, 32
1, 65070, Note_on_c, 0, 86, 55
1, 65082, Control_c, 0, 64, 0
1, 65086, Note_on_c, 0, 85, 0
1, 65086, Note_on_c, 0, 84, 41
1, 65090, Note_on_c, 0, 73, 0
1, 65090, Note_on_c, 0, 74, 60
1, 65094, Note_on_c, 9, 35, 0
1, 65122, Control_c, 0, 64, 127
1, 65158, Note_on_c, 0, 64, 0
1, 65170, Note_on_c, 0, 54, 0
1, 65174, Note_on_c, 0, 81, 0
1, 65178, Note_on_c, 0, 74, 0
1, 65182, Note_on_c, 0, 86, 0
1, 65190, Note_on_c, 0, 84, 0
1, 65194, Note_on_c, 0, 60, 0
1, 65242, Note_on_c, 0, 86, 67
1, 65242, Note_on_c, 0, 54, 52
1, 65246, Note_on_c, 0, 64, 49
1, 65246, Note_on_c, 0, 60, 45
1, 65246, Note_on_c, 0, 74, 58
1, 65246, Note_on_c, 0, 81, 61
1, 65254, Note_on_c, 9, 35, 34
1, 65294, Note_on_c, 9, 35, 0
1, 65294, Note_on_c, 0, 81, 0
1, 65306, Note_on_c, 0, 86, 0
1, 65322, Note_on_c, 0, 74, 0
1, 65322, Note_on_c, 0, 64, 0
1, 65330, Note_on_c, 9, 40, 0
1, 65358, Note_on_c, 0, 60, 0
1, 65362, Note_on_c, 0, 54, 0
1, 65362, Note_on_c, 9, 40, 44
1, 65382, Note_on_c, 9, 40, 0
1, 65418, Note_on_c, 9, 40, 52
1, 65422, Control_c, 0, 64, 0
1, 65434, Note_on_c, 0, 81, 59
1, 65434, Note_on_c, 9, 44, 67
1, 65438, Note_on_c, 0, 69, 46
1, 65442, Note_on_c, 0, 54, 48
1, 65446, Note_on_c, 0, 64, 49
1, 65446, Note_on_c, 0, 60, 47
1, 65446, Note_on_c, 0, 74, 44
1, 65454, Note_on_c, 0, 77, 46
1, 65470, Control_c, 0, 64, 127
1, 65506, Note_on_c, 0, 69, 0
1, 65514, Note_on_c, 0, 77, 0
1, 65514, Note_on_c, 0, 74, 0
1, 65530, Note_on_c, 0, 81, 0
1, 65530, Note_on_c, 9, 44, 0
1, 65534, Note_on_c, 0, 64, 0
1, 65534, Note_on_c, 0, 60, 0
1, 65546, Note_on_c, 1, 54, 0
1, 65554, Note_on_c, 0, 54, 0
1, 65554, Note_on_c, 1, 38, 0
1, 65562, Note_on_c, 1, 45, 85
1, 65594, Note_on_c, 1, 45, 0
1, 65626, Note_on_c, 1, 44, 84
1, 65658, Note_on_c, 1, 44, 0
1, 65738, Note_on_c, 9, 35, 17
1, 65746, Note_on_c, 9, 40, 0
1, 65750, Note_on_c, 9, 39, 68
1, 65754, Note_on_c, 9, 35, 0
1, 65754, Note_on_c, 1, 42, 86
1, 65758, Note_on_c, 0, 86, 84
1, 65758, Note_on_c, 0, 54, 67
1, 65758, Note_on_c, 0, 74, 83
1, 65762, Note_on_c, 0, 64, 60
1, 65762, Note_on_c, 0, 82, 60
1, 65770, Note_on_c, 0, 80, 42
1, 65770, Note_on_c, 0, 60, 41
1, 65774, Note_on_c, 9, 39, 0
1, 65774, Note_on_c, 0, 58, 36
1, 65782, Note_on_c, 0, 60, 0
1, 65782, Note_on_c, 0, 80, 0
1, 65782, Note_on_c, 0, 64, 0
1, 65786, Note_on_c, 1, 42, 0
1, 65794, Note_on_c, 0, 58, 0
1, 65806, Note_on_c, 0, 86, 0
1, 65810, Note_on_c, 0, 74, 0
1, 65814, Note_on_c, 0, 82, 0
1, 65814, Note_on_c, 9, 40, 53
1, 65818, Note_on_c, 1, 43, 76
1, 65818, Note_on_c, 9, 35, 20
1, 65826, Note_on_c, 0, 54, 0
1, 65838, Control_c, 0, 64, 24
1, 65838, Control_c, 0, 64, 0
1, 65850, Note_on_c, 0, 62, 53
1, 65854, Note_on_c, 1, 43, 0
1, 65854, Note_on_c, 0, 84, 55
1, 65858, Note_on_c, 9, 35, 0
1, 65858, Note_on_c, 0, 81, 60
1, 65858, Note_on_c, 0, 57, 52
1, 65858, Note_on_c, 0, 72, 54
1, 65858, Note_on_c, 0, 58, 54
1, 65862, Note_on_c, 0, 53, 45
1, 65898, Control_c, 0, 64, 127
1, 65946, Note_on_c, 1, 38, 75
1, 65986, Note_on_c, 1, 38, 0
1, 65986, Note_on_c, 0, 58, 0
1, 65986, Note_on_c, 0, 84, 0
1, 65986, Note_on_c, 0, 81, 0
1, 65986, Note_on_c, 0, 72, 0
1, 65990, Note_on_c, 0, 62, 0
1, 65990, Note_on_c, 0, 53, 0
1, 65994, Note_on_c, 0, 57, 0
1, 66002, Note_on_c, 9, 35, 25
1, 66010, Note_on_c, 1, 34, 88
1, 66022, Note_on_c, 0, 62, 66
1, 66022, Note_on_c, 0, 58, 64
1, 66026, Note_on_c, 0, 82, 75
1, 66026, Note_on_c, 0, 53, 50
1, 66030, Note_on_c, 0, 57, 66
1, 66034, Note_on_c, 0, 70, 58
1, 66078, Note_on_c, 9, 35, 0
1, 66134, Note_on_c, 0, 82, 0
1, 66138, Note_on_c, 0, 70, 0
1, 66146, Note_on_c, 0, 62, 0
1, 66146, Note_on_c, 0, 53, 0
1, 66162, Note_on_c, 0, 58, 0
1, 66162, Note_on_c, 0, 57, 0
1, 66170, Note_on_c, 9, 40, 0
1, 66194, Control_c, 0, 64, 0
1, 66202, Note_on_c, 9, 44, 57
1, 66202, Note_on_c, 9, 40, 51
1, 66214, Note_on_c, 0, 58, 46
1, 66214, Note_on_c, 0, 69, 63
1, 66218, Note_on_c, 0, 62, 55
1, 66218, Note_on_c, 0, 81, 66
1, 66222, Note_on_c, 0, 53, 45
1, 66226, Note_on_c, 0, 57, 39
1, 66274, Control_c, 0, 64, 127
1, 66298, Note_on_c, 9, 44, 0
1, 66322, Note_on_c, 0, 69, 0
1, 66322, Note_on_c, 0, 62, 0
1, 66346, Note_on_c, 0, 81, 0
1, 66386, Note_on_c, 0, 72, 58
1, 66438, Note_on_c, 0, 72, 0
1, 66438, Note_on_c, 0, 58, 0
1, 66446, Note_on_c, 0, 57, 0
1, 66458, Note_on_c, 1, 38, 77
1, 66466, Note_on_c, 0, 53, 0
1, 66470, Note_on_c, 1, 34, 0
1, 66490, Note_on_c, 1, 38, 0
1, 66522, Note_on_c, 9, 40, 0
1, 66522, Note_on_c, 1, 35, 80
1, 66522, Note_on_c, 9, 39, 64
1, 66530, Note_on_c, 0, 58, 42
1, 66550, Note_on_c, 9, 39, 0
1, 66562, Note_on_c, 0, 58, 0
1, 66578, Note_on_c, 1, 35, 0
1, 66582, Control_c, 0, 64, 0
1, 66582, Note_on_c, 9, 40, 49
1, 66582, Note_on_c, 9, 35, 14
1, 66586, Note_on_c, 0, 75, 58
1, 66586, Note_on_c, 1, 36, 96
1, 66590, Note_on_c, 0, 68, 49
1, 66590, Note_on_c, 0, 64, 46
1, 66598, Note_on_c, 0, 72, 48
1, 66602, Note_on_c, 0, 63, 54
1, 66610, Note_on_c, 9, 35, 0
1, 66738, Note_on_c, 0, 64, 0
1, 66746, Note_on_c, 0, 72, 0
1, 66754, Note_on_c, 0, 68, 0
1, 66762, Note_on_c, 0, 75, 0
1, 66782, Note_on_c, 0, 63, 0
1, 66782, Note_on_c, 0, 64, 43
1, 66786, Note_on_c, 0, 73, 53
1, 66786, Note_on_c, 0, 68, 57
1, 66786, Note_on_c, 0, 61, 48
1, 66814, Control_c, 0, 64, 127
1, 66894, Note_on_c, 0, 64, 0
1, 66898, Note_on_c, 0, 73, 0
1, 66902, Note_on_c, 0, 68, 0
1, 66930, Control_c, 0, 64, 0
1, 66934, Note_on_c, 9, 40, 0
1, 66938, Note_on_c, 0, 58, 39
1, 66942, Note_on_c, 0, 61, 0
1, 66958, Note_on_c, 0, 58, 0
1, 66966, Note_on_c, 9, 40, 55
1, 66970, Note_on_c, 1, 48, 97
1, 66970, Note_on_c, 9, 44, 62
1, 66974, Note_on_c, 0, 72, 54
1, 66974, Note_on_c, 0, 64, 45
1, 66982, Note_on_c, 0, 67, 38
1, 66982, Note_on_c, 0, 60, 46
1, 66998, Control_c, 0, 64, 127
1, 67002, Control_c, 0, 64, 0
1, 67002, Control_c, 0, 64, 127
1, 67014, Control_c, 0, 64, 0
1, 67042, Control_c, 0, 64, 127
1, 67066, Note_on_c, 9, 44, 0
1, 67078, Note_on_c, 0, 67, 0
1, 67078, Note_on_c, 0, 64, 0
1, 67114, Note_on_c, 0, 72, 0
1, 67126, Note_on_c, 0, 60, 0
1, 67162, Note_on_c, 0, 70, 61
1, 67170, Note_on_c, 0, 58, 46
1, 67170, Note_on_c, 0, 64, 49
1, 67170, Note_on_c, 9, 35, 30
1, 67206, Note_on_c, 0, 70, 0
1, 67210, Note_on_c, 9, 35, 0
1, 67218, Note_on_c, 0, 58, 0
1, 67238, Note_on_c, 0, 64, 0
1, 67274, Note_on_c, 9, 40, 0
1, 67290, Note_on_c, 1, 34, 44
1, 67306, Note_on_c, 9, 40, 44
1, 67322, Note_on_c, 9, 40, 0
1, 67338, Note_on_c, 1, 36, 0
1, 67342, Note_on_c, 1, 34, 0
1, 67354, Note_on_c, 1, 41, 85
1, 67358, Control_c, 0, 64, 0
1, 67362, Note_on_c, 9, 40, 51
1, 67362, Note_on_c, 9, 35, 43
1, 67366, Note_on_c, 1, 48, 0
1, 67366, Note_on_c, 0, 60, 52
1, 67370, Note_on_c, 0, 69, 49
1, 67370, Note_on_c, 0, 64, 50
1, 67398, Note_on_c, 9, 35, 0
1, 67410, Note_on_c, 0, 60, 0
1, 67494, Note_on_c, 0, 64, 0
1, 67502, Note_on_c, 0, 48, 72
1, 67506, Note_on_c, 0, 47, 72
1, 67534, Note_on_c, 0, 47, 0
1, 67610, Note_on_c, 0, 69, 0
1, 67658, Note_on_c, 9, 40, 0
1, 67738, Note_on_c, 9, 44, 60
1, 67742, Note_on_c, 9, 40, 64
1, 67834, Note_on_c, 9, 44, 0
1, 68066, Note_on_c, 9, 39, 61
1, 68070, Note_on_c, 9, 40, 0
1, 68094, Note_on_c, 9, 39, 0
1, 68122, Note_on_c, 9, 40, 53
1, 68450, Note_on_c, 9, 40, 0
1, 68454, Note_on_c, 0, 65, 67
1, 68490, Note_on_c, 0, 65, 0
1, 68506, Note_on_c, 1, 33, 64
1, 68506, Note_on_c, 9, 44, 59
1, 68514, Note_on_c, 9, 40, 57
1, 68526, Note_on_c, 1, 41, 0
1, 68530, Note_on_c, 0, 67, 48
1, 68538, Note_on_c, 0, 48, 0
1, 68614, Note_on_c, 9, 44, 0
1, 68622, Note_on_c, 0, 67, 0
1, 68642, Note_on_c, 9, 25, 45
1, 68650, Note_on_c, 9, 40, 0
1, 68650, Note_on_c, 0, 69, 66
1, 68670, Note_on_c, 9, 25, 0
1, 68698, Note_on_c, 1, 39, 58
1, 68702, Note_on_c, 0, 69, 0
1, 68702, Note_on_c, 1, 33, 0
1, 68706, Note_on_c, 9, 40, 49
1, 68718, Note_on_c, 0, 72, 57
1, 68822, Note_on_c, 0, 72, 0
1, 68826, Note_on_c, 1, 33, 39
1, 68830, Note_on_c, 9, 25, 59
1, 68838, Note_on_c, 0, 76, 89
1, 68842, Note_on_c, 9, 40, 0
1, 68842, Note_on_c, 1, 39, 0
1, 68858, Note_on_c, 9, 25, 0
1, 68874, Note_on_c, 1, 33, 0
1, 68890, Note_on_c, 1, 38, 51
1, 68894, Note_on_c, 0, 76, 0
1, 68894, Note_on_c, 9, 40, 49
1, 68906, Note_on_c, 0, 79, 98
1, 68914, Note_on_c, 0, 78, 63
1, 68926, Note_on_c, 0, 78, 0
1, 69034, Note_on_c, 0, 79, 0
1, 69042, Note_on_c, 0, 76, 52
1, 69050, Note_on_c, 9, 40, 0
1, 69078, Note_on_c, 9, 40, 62
1, 69082, Note_on_c, 0, 76, 0
1, 69082, Note_on_c, 9, 44, 53
1, 69082, Note_on_c, 9, 64, 56
1, 69098, Note_on_c, 0, 77, 56
1, 69122, Note_on_c, 9, 64, 0
1, 69174, Note_on_c, 0, 77, 0
1, 69178, Note_on_c, 9, 44, 0
1, 69210, Note_on_c, 1, 45, 51
1, 69210, Note_on_c, 9, 64, 62
1, 69254, Note_on_c, 9, 64, 0
1, 69254, Note_on_c, 1, 45, 0
1, 69274, Note_on_c, 1, 50, 85
1, 69290, Note_on_c, 0, 65, 46
1, 69290, Note_on_c, 0, 69, 55
1, 69294, Note_on_c, 0, 64, 40
1, 69314, Note_on_c, 1, 38, 0
1, 69374, Note_on_c, 0, 69, 0
1, 69374, Note_on_c, 0, 64, 0
1, 69378, Note_on_c, 0, 65, 0
1, 69422, Note_on_c, 9, 40, 0
1, 69466, Note_on_c, 0, 65, 44
1, 69466, Note_on_c, 9, 44, 56
1, 69466, Note_on_c, 9, 62, 71
1, 69470, Note_on_c, 0, 69, 48
1, 69470, Note_on_c, 0, 64, 39
1, 69478, Note_on_c, 9, 40, 57
1, 69498, Note_on_c, 9, 62, 0
1, 69526, Note_on_c, 1, 50, 0
1, 69530, Note_on_c, 1, 45, 74
1, 69546, Note_on_c, 0, 65, 0
1, 69558, Note_on_c, 0, 69, 0
1, 69562, Note_on_c, 9, 44, 0
1, 69562, Note_on_c, 1, 45, 0
1, 69594, Note_on_c, 0, 64, 0
1, 69594, Note_on_c, 1, 38, 73
1, 69618, Note_on_c, 9, 40, 0
1, 69658, Note_on_c, 1, 49, 66
1, 69658, Note_on_c, 9, 40, 50
1, 69750, Note_on_c, 1, 38, 0
1, 69786, Note_on_c, 9, 62, 26
1, 69846, Note_on_c, 9, 62, 0
1, 69850, Note_on_c, 9, 44, 58
1, 69850, Note_on_c, 9, 64, 55
1, 69886, Note_on_c, 0, 64, 22
1, 69886, Note_on_c, 0, 61, 31
1, 69938, Note_on_c, 0, 61, 0
1, 69942, Note_on_c, 0, 64, 0
1, 69946, Note_on_c, 9, 44, 0
1, 69950, Note_on_c, 9, 40, 0
1, 69974, Note_on_c, 9, 64, 0
1, 69978, Note_on_c, 1, 45, 70
1, 69978, Note_on_c, 9, 64, 44
1, 69986, Note_on_c, 9, 40, 33
1, 70006, Note_on_c, 9, 40, 0
1, 70018, Note_on_c, 1, 45, 0
1, 70030, Note_on_c, 1, 49, 0
1, 70042, Note_on_c, 1, 41, 67
1, 70042, Note_on_c, 9, 40, 54
1, 70158, Note_on_c, 9, 64, 0
1, 70182, Note_on_c, 0, 61, 54
1, 70182, Note_on_c, 0, 64, 47
1, 70198, Note_on_c, 0, 64, 0
1, 70222, Note_on_c, 0, 61, 0
1, 70234, Note_on_c, 9, 44, 55
1, 70234, Note_on_c, 9, 62, 88
1, 70246, Note_on_c, 0, 85, 55
1, 70290, Note_on_c, 0, 85, 0
1, 70298, Note_on_c, 1, 38, 55
1, 70310, Note_on_c, 0, 86, 50
1, 70330, Note_on_c, 9, 44, 0
1, 70330, Note_on_c, 9, 40, 0
1, 70346, Note_on_c, 9, 62, 0
1, 70346, Note_on_c, 0, 86, 0
1, 70358, Note_on_c, 1, 38, 0
1, 70362, Note_on_c, 1, 37, 55
1, 70366, Note_on_c, 0, 88, 84
1, 70366, Note_on_c, 9, 40, 41
1, 70370, Note_on_c, 1, 41, 0
1, 70390, Note_on_c, 9, 40, 0
1, 70418, Note_on_c, 0, 88, 0
1, 70426, Note_on_c, 1, 37, 0
1, 70426, Note_on_c, 1, 38, 78
1, 70426, Note_on_c, 9, 40, 56
1, 70430, Note_on_c, 0, 57, 45
1, 70430, Note_on_c, 0, 62, 35
1, 70446, Note_on_c, 0, 85, 41
1, 70474, Note_on_c, 0, 85, 0
1, 70494, Note_on_c, 0, 62, 0
1, 70498, Note_on_c, 0, 57, 0
1, 70506, Note_on_c, 0, 86, 42
1, 70534, Note_on_c, 0, 86, 0
1, 70542, Note_on_c, 9, 39, 57
1, 70550, Note_on_c, 9, 40, 0
1, 70562, Note_on_c, 0, 88, 76
1, 70570, Note_on_c, 9, 39, 0
1, 70602, Note_on_c, 0, 57, 45
1, 70606, Note_on_c, 0, 88, 0
1, 70606, Note_on_c, 0, 62, 31
1, 70606, Note_on_c, 9, 40, 49
1, 70618, Note_on_c, 9, 44, 57
1, 70618, Note_on_c, 9, 64, 44
1, 70626, Note_on_c, 0, 62, 0
1, 70646, Note_on_c, 0, 84, 48
1, 70650, Note_on_c, 0, 57, 0
1, 70706, Note_on_c, 9, 64, 0
1, 70714, Note_on_c, 9, 44, 0
1, 70746, Note_on_c, 0, 84, 0
1, 70746, Note_on_c, 1, 37, 45
1, 70746, Note_on_c, 9, 64, 64
1, 70774, Note_on_c, 9, 40, 0
1, 70786, Note_on_c, 1, 38, 0
1, 70790, Note_on_c, 9, 64, 0
1, 70798, Note_on_c, 1, 37, 0
1, 70810, Note_on_c, 1, 45, 79
1, 70810, Note_on_c, 9, 40, 49
1, 70938, Note_on_c, 9, 63, 80
1, 70942, Note_on_c, 0, 62, 49
1, 70942, Note_on_c, 0, 57, 58
1, 70954, Note_on_c, 0, 62, 0
1, 70970, Note_on_c, 9, 63, 0
1, 70990, Note_on_c, 0, 57, 0
1, 71002, Note_on_c, 9, 44, 67
1, 71002, Note_on_c, 9, 62, 44
1, 71006, Note_on_c, 0, 85, 47
1, 71062, Note_on_c, 0, 85, 0
1, 71066, Note_on_c, 1, 41, 66
1, 71074, Note_on_c, 0, 86, 50
1, 71078, Note_on_c, 1, 45, 0
1, 71094, Note_on_c, 9, 62, 0
1, 71098, Note_on_c, 1, 41, 0
1, 71098, Note_on_c, 9, 44, 0
1, 71110, Note_on_c, 9, 40, 0
1, 71114, Note_on_c, 0, 86, 0
1, 71130, Note_on_c, 1, 37, 75
1, 71130, Note_on_c, 9, 62, 57
1, 71138, Note_on_c, 0, 88, 89
1, 71142, Note_on_c, 9, 40, 51
1, 71162, Note_on_c, 9, 62, 0
1, 71162, Note_on_c, 0, 64, 39
1, 71162, Note_on_c, 0, 59, 48
1, 71166, Note_on_c, 9, 40, 0
1, 71182, Note_on_c, 0, 64, 0
1, 71186, Note_on_c, 0, 59, 0
1, 71186, Note_on_c, 0, 88, 0
1, 71190, Note_on_c, 1, 37, 0
1, 71194, Note_on_c, 1, 38, 81
1, 71202, Note_on_c, 9, 40, 48
1, 71218, Note_on_c, 0, 85, 38
1, 71250, Note_on_c, 0, 85, 0
1, 71270, Note_on_c, 0, 86, 57
1, 71306, Note_on_c, 0, 86, 0
1, 71338, Note_on_c, 0, 88, 83
1, 71342, Note_on_c, 0, 64, 56
1, 71350, Note_on_c, 0, 59, 55
1, 71358, Note_on_c, 0, 64, 0
1, 71362, Note_on_c, 0, 53, 26
1, 71378, Note_on_c, 0, 53, 0
1, 71386, Note_on_c, 9, 44, 59
1, 71386, Note_on_c, 9, 64, 54
1, 71390, Note_on_c, 0, 88, 0
1, 71398, Note_on_c, 0, 59, 0
1, 71430, Note_on_c, 0, 83, 40
1, 71462, Note_on_c, 0, 83, 0
1, 71482, Note_on_c, 9, 44, 0
1, 71486, Note_on_c, 9, 40, 0
1, 71502, Note_on_c, 9, 64, 0
1, 71514, Note_on_c, 9, 40, 20
1, 71514, Note_on_c, 9, 64, 90
1, 71534, Note_on_c, 0, 59, 36
1, 71546, Note_on_c, 9, 40, 0
1, 71550, Note_on_c, 0, 59, 0
1, 71570, Note_on_c, 9, 40, 35
1, 71582, Note_on_c, 9, 64, 0
1, 71702, Note_on_c, 0, 64, 75
1, 71706, Note_on_c, 0, 58, 66
1, 71706, Note_on_c, 1, 48, 88
1, 71710, Note_on_c, 0, 57, 50
1, 71718, Note_on_c, 0, 64, 0
1, 71718, Note_on_c, 9, 40, 0
1, 71726, Note_on_c, 0, 57, 0
1, 71738, Note_on_c, 1, 48, 0
1, 71746, Note_on_c, 0, 58, 0
1, 71770, Note_on_c, 1, 45, 66
1, 71770, Note_on_c, 9, 46, 51
1, 71770, Note_on_c, 9, 40, 66
1, 71770, Note_on_c, 9, 62, 77
1, 71782, Note_on_c, 0, 81, 68
1, 71810, Note_on_c, 1, 38, 0
1, 71814, Note_on_c, 0, 81, 0
1, 71846, Note_on_c, 0, 82, 80
1, 71866, Note_on_c, 9, 62, 0
1, 71866, Note_on_c, 9, 46, 0
1, 71886, Note_on_c, 0, 82, 0
1, 71898, Note_on_c, 1, 38, 64
1, 71902, Note_on_c, 0, 84, 102
1, 71914, Note_on_c, 1, 45, 0
1, 71914, Note_on_c, 0, 62, 63
1, 71914, Note_on_c, 0, 58, 57
1, 71918, Note_on_c, 0, 57, 48
1, 71922, Note_on_c, 0, 53, 45
1, 71938, Note_on_c, 9, 40, 0
1, 71946, Note_on_c, 1, 38, 0
1, 71962, Note_on_c, 1, 43, 77
1, 71966, Note_on_c, 0, 84, 0
1, 71966, Note_on_c, 9, 40, 64
1, 71970, Note_on_c, 0, 81, 71
1, 72018, Note_on_c, 0, 81, 0
1, 72042, Note_on_c, 0, 77, 66
1, 72082, Note_on_c, 0, 77, 0
1, 72094, Note_on_c, 0, 74, 60
1, 72110, Note_on_c, 9, 40, 0
1, 72130, Note_on_c, 0, 74, 0
1, 72150, Note_on_c, 0, 70, 59
1, 72154, Note_on_c, 9, 44, 62
1, 72154, Note_on_c, 9, 40, 53
1, 72154, Note_on_c, 9, 64, 34
1, 72186, Note_on_c, 0, 62, 0
1, 72194, Note_on_c, 0, 58, 0
1, 72218, Note_on_c, 0, 70, 0
1, 72238, Note_on_c, 0, 57, 0
1, 72242, Note_on_c, 0, 53, 0
1, 72250, Note_on_c, 9, 44, 0
1, 72258, Note_on_c, 9, 64, 0
1, 72282, Note_on_c, 9, 40, 0
1, 72282, Note_on_c, 1, 38, 66
1, 72282, Note_on_c, 9, 64, 54
1, 72298, Note_on_c, 9, 40, 17
1, 72314, Note_on_c, 9, 64, 0
1, 72314, Note_on_c, 1, 38, 0
1, 72322, Note_on_c, 9, 40, 0
1, 72346, Note_on_c, 1, 34, 66
1, 72346, Note_on_c, 9, 40, 59
1, 72426, Control_c, 0, 64, 127
1, 72434, Control_c, 0, 64, 0
1, 72470, Note_on_c, 0, 58, 57
1, 72470, Note_on_c, 0, 62, 56
1, 72474, Note_on_c, 0, 57, 50
1, 72478, Note_on_c, 0, 53, 42
1, 72498, Note_on_c, 0, 53, 0
1, 72506, Note_on_c, 0, 62, 0
1, 72538, Note_on_c, 9, 44, 61
1, 72538, Note_on_c, 9, 62, 76
1, 72546, Note_on_c, 0, 69, 49
1, 72566, Note_on_c, 0, 69, 0
1, 72566, Note_on_c, 0, 57, 0
1, 72606, Note_on_c, 0, 70, 69
1, 72634, Note_on_c, 9, 44, 0
1, 72642, Note_on_c, 9, 40, 0
1, 72642, Note_on_c, 9, 62, 0
1, 72646, Note_on_c, 0, 70, 0
1, 72650, Note_on_c, 1, 34, 0
1, 72666, Note_on_c, 0, 58, 0
1, 72666, Note_on_c, 0, 72, 111
1, 72666, Note_on_c, 1, 33, 69
1, 72666, Note_on_c, 9, 62, 103
1, 72670, Note_on_c, 9, 40, 51
1, 72686, Note_on_c, 9, 40, 0
1, 72690, Note_on_c, 1, 43, 0
1, 72710, Note_on_c, 1, 33, 0
1, 72722, Note_on_c, 0, 62, 46
1, 72722, Note_on_c, 0, 58, 46
1, 72722, Note_on_c, 9, 40, 54
1, 72730, Note_on_c, 1, 31, 78
1, 72734, Note_on_c, 0, 69, 68
1, 72742, Note_on_c, 9, 62, 0
1, 72750, Note_on_c, 0, 72, 0
1, 72770, Note_on_c, 0, 62, 0
1, 72778, Note_on_c, 0, 69, 0
1, 72810, Note_on_c, 0, 58, 0
1, 72862, Note_on_c, 0, 54, 52
1, 72870, Note_on_c, 0, 58, 39
1, 72882, Note_on_c, 0, 54, 0
1, 72890, Note_on_c, 0, 58, 0
1, 72922, Note_on_c, 9, 44, 61
1, 72922, Note_on_c, 9, 64, 44
1, 72962, Note_on_c, 0, 62, 26
1, 72978, Note_on_c, 0, 62, 0
1, 72994, Note_on_c, 9, 40, 0
1, 73018, Note_on_c, 9, 44, 0
1, 73030, Note_on_c, 9, 64, 0
1, 73034, Note_on_c, 9, 40, 61
1, 73050, Note_on_c, 1, 38, 61
1, 73050, Note_on_c, 9, 64, 58
1, 73054, Note_on_c, 0, 54, 45
1, 73054, Note_on_c, 0, 58, 49
1, 73070, Note_on_c, 9, 40, 0
1, 73078, Note_on_c, 0, 54, 0
1, 73082, Note_on_c, 9, 64, 0
1, 73082, Note_on_c, 1, 38, 0
1, 73098, Note_on_c, 0, 58, 0
1, 73102, Note_on_c, 9, 40, 48
1, 73114, Note_on_c, 1, 46, 84
1, 73138, Note_on_c, 0, 62, 36
1, 73158, Note_on_c, 0, 62, 0
1, 73226, Note_on_c, 9, 40, 0
1, 73226, Note_on_c, 9, 39, 55
1, 73238, Note_on_c, 0, 62, 68
1, 73242, Note_on_c, 0, 54, 60
1, 73242, Note_on_c, 0, 58, 57
1, 73270, Note_on_c, 0, 62, 0
1, 73282, Note_on_c, 0, 54, 0
1, 73290, Note_on_c, 9, 39, 0
1, 73290, Note_on_c, 1, 46, 0
1, 73294, Note_on_c, 9, 40, 36
1, 73306, Note_on_c, 1, 42, 81
1, 73306, Note_on_c, 9, 44, 59
1, 73306, Note_on_c, 9, 62, 32
1, 73314, Note_on_c, 0, 58, 0
1, 73378, Note_on_c, 0, 69, 54
1, 73394, Note_on_c, 9, 62, 0
1, 73402, Note_on_c, 9, 44, 0
1, 73410, Note_on_c, 0, 69, 0
1, 73430, Note_on_c, 1, 31, 0
1, 73430, Note_on_c, 0, 72, 117
1, 73434, Note_on_c, 1, 38, 43
1, 73434, Note_on_c, 9, 62, 52
1, 73466, Note_on_c, 9, 62, 0
1, 73466, Note_on_c, 1, 38, 0
1, 73470, Note_on_c, 9, 40, 0
1, 73478, Note_on_c, 0, 72, 0
1, 73482, Note_on_c, 0, 62, 56
1, 73482, Note_on_c, 0, 58, 58
1, 73486, Note_on_c, 1, 42, 0
1, 73494, Note_on_c, 0, 62, 0
1, 73494, Note_on_c, 0, 53, 38
1, 73494, Note_on_c, 0, 70, 81
1, 73498, Note_on_c, 1, 41, 55
1, 73498, Note_on_c, 9, 40, 49
1, 73514, Note_on_c, 0, 53, 0
1, 73554, Note_on_c, 0, 58, 0
1, 73558, Note_on_c, 0, 65, 61
1, 73566, Note_on_c, 0, 70, 0
1, 73602, Note_on_c, 0, 65, 0
1, 73618, Note_on_c, 0, 62, 63
1, 73634, Note_on_c, 0, 53, 44
1, 73650, Note_on_c, 0, 53, 0
1, 73666, Note_on_c, 0, 62, 0
1, 73690, Note_on_c, 9, 44, 56
1, 73690, Note_on_c, 9, 64, 46
1, 73694, Note_on_c, 0, 58, 39
1, 73738, Note_on_c, 0, 58, 0
1, 73754, Note_on_c, 0, 57, 55
1, 73778, Note_on_c, 9, 64, 0
1, 73786, Note_on_c, 9, 44, 0
1, 73786, Note_on_c, 0, 57, 0
1, 73810, Note_on_c, 9, 39, 60
1, 73818, Note_on_c, 9, 64, 54
1, 73822, Note_on_c, 9, 40, 0
1, 73822, Note_on_c, 0, 58, 58
1, 73834, Note_on_c, 0, 53, 53
1, 73850, Note_on_c, 0, 53, 0
1, 73850, Note_on_c, 9, 64, 0
1, 73858, Note_on_c, 9, 39, 0
1, 73862, Note_on_c, 0, 58, 0
1, 73878, Note_on_c, 9, 40, 54
1, 73882, Note_on_c, 1, 38, 63
1, 73894, Note_on_c, 0, 62, 39
1, 73926, Note_on_c, 0, 62, 0
1, 73946, Note_on_c, 9, 63, 64
1, 73950, Note_on_c, 0, 66, 56
1, 73982, Note_on_c, 0, 66, 0
1, 73990, Note_on_c, 9, 63, 0
1, 74006, Note_on_c, 0, 69, 89
1, 74010, Note_on_c, 0, 58, 62
1, 74010, Note_on_c, 9, 63, 45
1, 74014, Note_on_c, 0, 62, 56
1, 74026, Note_on_c, 0, 53, 36
1, 74030, Note_on_c, 0, 62, 0
1, 74042, Note_on_c, 9, 63, 0
1, 74046, Note_on_c, 0, 53, 0
1, 74066, Note_on_c, 0, 69, 0
1, 74074, Note_on_c, 0, 58, 0
1, 74074, Note_on_c, 9, 44, 60
1, 74074, Note_on_c, 9, 62, 73
1, 74078, Note_on_c, 0, 66, 52
1, 74106, Note_on_c, 0, 66, 0
1, 74126, Note_on_c, 9, 62, 0
1, 74126, Note_on_c, 0, 67, 41
1, 74170, Note_on_c, 0, 67, 0
1, 74170, Note_on_c, 9, 44, 0
1, 74170, Note_on_c, 0, 69, 72
1, 74194, Note_on_c, 0, 58, 41
1, 74202, Note_on_c, 1, 34, 48
1, 74206, Note_on_c, 0, 69, 0
1, 74218, Note_on_c, 0, 58, 0
1, 74218, Note_on_c, 0, 70, 57
1, 74222, Note_on_c, 1, 41, 0
1, 74230, Note_on_c, 0, 70, 0
1, 74238, Note_on_c, 9, 40, 0
1, 74250, Note_on_c, 1, 34, 0
1, 74250, Note_on_c, 0, 72, 63
1, 74258, Note_on_c, 1, 38, 0
1, 74266, Note_on_c, 0, 72, 0
1, 74266, Note_on_c, 1, 40, 78
1, 74282, Note_on_c, 9, 40, 33
1, 74290, Note_on_c, 0, 73, 45
1, 74310, Note_on_c, 0, 73, 0
1, 74318, Note_on_c, 0, 75, 61
1, 74330, Note_on_c, 0, 75, 0
1, 74354, Note_on_c, 0, 76, 72
1, 74390, Note_on_c, 0, 76, 0
1, 74394, Note_on_c, 0, 78, 63
1, 74394, Note_on_c, 1, 35, 72
1, 74406, Note_on_c, 0, 78, 0
1, 74414, Note_on_c, 0, 63, 39
1, 74414, Note_on_c, 0, 58, 42
1, 74430, Note_on_c, 0, 52, 38
1, 74434, Note_on_c, 1, 35, 0
1, 74434, Note_on_c, 9, 40, 0
1, 74438, Note_on_c, 0, 63, 0
1, 74438, Note_on_c, 1, 40, 0
1, 74438, Note_on_c, 0, 79, 57
1, 74450, Note_on_c, 0, 52, 0
1, 74458, Note_on_c, 1, 34, 61
1, 74458, Note_on_c, 9, 44, 62
1, 74458, Note_on_c, 9, 40, 66
1, 74458, Note_on_c, 9, 64, 45
1, 74462, Note_on_c, 0, 79, 0
1, 74466, Note_on_c, 0, 58, 0
1, 74466, Note_on_c, 0, 81, 62
1, 74498, Note_on_c, 0, 81, 0
1, 74502, Note_on_c, 0, 82, 50
1, 74518, Note_on_c, 0, 82, 0
1, 74538, Note_on_c, 0, 84, 66
1, 74554, Note_on_c, 9, 44, 0
1, 74558, Note_on_c, 0, 84, 0
1, 74562, Note_on_c, 1, 34, 0
1, 74562, Note_on_c, 9, 64, 0
1, 74566, Note_on_c, 0, 85, 56
1, 74582, Note_on_c, 9, 40, 0
1, 74586, Note_on_c, 0, 85, 0
1, 74586, Note_on_c, 1, 32, 70
1, 74586, Note_on_c, 9, 64, 76
1, 74594, Note_on_c, 9, 40, 31
1, 74602, Note_on_c, 0, 87, 49
1, 74614, Note_on_c, 0, 87, 0
1, 74618, Note_on_c, 9, 40, 0
1, 74622, Note_on_c, 0, 88, 66
1, 74642, Note_on_c, 1, 32, 0
1, 74650, Note_on_c, 0, 88, 0
1, 74650, Note_on_c, 1, 33, 70
1, 74650, Note_on_c, 9, 40, 54
1, 74662, Note_on_c, 9, 64, 0
1, 74662, Note_on_c, 0, 91, 117
1, 74670, Note_on_c, 0, 63, 60
1, 74670, Note_on_c, 0, 58, 56
1, 74678, Note_on_c, 0, 52, 48
1, 74718, Note_on_c, 0, 89, 86
1, 74742, Note_on_c, 0, 91, 0
1, 74758, Note_on_c, 0, 63, 0
1, 74762, Note_on_c, 0, 89, 0
1, 74778, Note_on_c, 0, 58, 0
1, 74790, Note_on_c, 0, 88, 82
1, 74790, Note_on_c, 0, 89, 77
1, 74806, Note_on_c, 0, 89, 0
1, 74818, Note_on_c, 9, 40, 0
1, 74822, Note_on_c, 0, 88, 0
1, 74838, Note_on_c, 0, 58, 32
1, 74842, Note_on_c, 9, 46, 29
1, 74846, Note_on_c, 9, 40, 55
1, 74870, Note_on_c, 0, 85, 77
1, 74874, Note_on_c, 0, 52, 0
1, 74894, Note_on_c, 0, 58, 0
1, 74906, Note_on_c, 0, 85, 0
1, 74906, Note_on_c, 1, 40, 79
1, 74926, Note_on_c, 0, 88, 83
1, 74930, Note_on_c, 1, 33, 0
1, 74938, Note_on_c, 1, 40, 0
1, 74938, Note_on_c, 9, 46, 0
1, 74970, Note_on_c, 1, 37, 81
1, 74974, Note_on_c, 9, 40, 0
1, 74974, Note_on_c, 9, 39, 49
1, 74990, Note_on_c, 0, 86, 76
1, 74998, Note_on_c, 9, 39, 0
1, 75002, Note_on_c, 0, 88, 0
1, 75010, Note_on_c, 1, 37, 0
1, 75018, Note_on_c, 0, 50, 34
1, 75022, Note_on_c, 0, 53, 37
1, 75026, Note_on_c, 0, 57, 31
1, 75026, Note_on_c, 9, 40, 51
1, 75034, Note_on_c, 0, 86, 0
1, 75034, Note_on_c, 1, 38, 81
1, 75062, Note_on_c, 0, 81, 49
1, 75070, Control_c, 0, 64, 127
1, 75102, Control_c, 0, 64, 0
1, 75110, Note_on_c, 0, 81, 0
1, 75110, Note_on_c, 0, 57, 0
1, 75126, Note_on_c, 0, 79, 64
1, 75170, Note_on_c, 0, 57, 31
1, 75174, Note_on_c, 0, 79, 0
1, 75194, Note_on_c, 0, 77, 60
1, 75214, Note_on_c, 0, 57, 0
1, 75226, Note_on_c, 0, 77, 0
1, 75226, Note_on_c, 9, 44, 60
1, 75226, Note_on_c, 9, 64, 54
1, 75234, Note_on_c, 0, 50, 0
1, 75234, Note_on_c, 0, 53, 0
1, 75234, Control_c, 0, 64, 127
1, 75254, Note_on_c, 0, 76, 66
1, 75262, Control_c, 0, 64, 0
1, 75322, Note_on_c, 9, 44, 0
1, 75334, Note_on_c, 9, 40, 0
1, 75342, Note_on_c, 9, 64, 0
1, 75346, Note_on_c, 0, 76, 0
1, 75354, Note_on_c, 1, 37, 40
1, 75354, Note_on_c, 9, 64, 69
1, 75362, Note_on_c, 0, 57, 42
1, 75362, Note_on_c, 9, 40, 47
1, 75366, Note_on_c, 0, 53, 28
1, 75378, Note_on_c, 0, 57, 0
1, 75382, Note_on_c, 9, 40, 0
1, 75382, Note_on_c, 0, 53, 0
1, 75410, Note_on_c, 9, 64, 0
1, 75418, Note_on_c, 1, 38, 0
1, 75418, Note_on_c, 1, 45, 83
1, 75418, Note_on_c, 9, 40, 53
1, 75430, Note_on_c, 1, 37, 0
1, 75434, Note_on_c, 0, 69, 57
1, 75434, Note_on_c, 0, 64, 63
1, 75438, Note_on_c, 0, 72, 56
1, 75438, Note_on_c, 0, 79, 63
1, 75498, Note_on_c, 0, 79, 0
1, 75498, Note_on_c, 0, 69, 0
1, 75498, Note_on_c, 0, 72, 0
1, 75502, Note_on_c, 0, 64, 0
1, 75562, Note_on_c, 0, 77, 76
1, 75562, Note_on_c, 0, 64, 68
1, 75566, Note_on_c, 0, 72, 72
1, 75566, Note_on_c, 0, 69, 59
1, 75578, Note_on_c, 0, 63, 33
1, 75586, Note_on_c, 0, 64, 0
1, 75594, Note_on_c, 0, 77, 0
1, 75598, Note_on_c, 0, 69, 0
1, 75598, Note_on_c, 0, 72, 0
1, 75598, Note_on_c, 0, 63, 0
1, 75610, Note_on_c, 9, 44, 58
1, 75610, Note_on_c, 9, 62, 95
1, 75634, Note_on_c, 0, 62, 54
1, 75642, Note_on_c, 0, 76, 63
1, 75646, Note_on_c, 0, 69, 61
1, 75674, Note_on_c, 9, 62, 0
1, 75706, Note_on_c, 9, 44, 0
1, 75722, Note_on_c, 0, 69, 0
1, 75734, Note_on_c, 0, 76, 0
1, 75742, Note_on_c, 0, 62, 0
1, 75758, Note_on_c, 0, 61, 50
1, 75766, Note_on_c, 9, 40, 0
1, 75802, Note_on_c, 1, 53, 76
1, 75806, Note_on_c, 9, 40, 47
1, 75810, Note_on_c, 0, 61, 0
1, 75814, Note_on_c, 1, 45, 0
1, 75826, Control_c, 0, 64, 127
1, 75826, Note_on_c, 0, 60, 49
1, 75830, Note_on_c, 0, 65, 54
1, 75838, Note_on_c, 0, 69, 48
1, 75846, Note_on_c, 0, 74, 25
1, 75854, Note_on_c, 0, 69, 0
1, 75866, Note_on_c, 0, 74, 0
1, 75882, Note_on_c, 0, 65, 0
1, 75942, Note_on_c, 9, 39, 21
1, 75946, Note_on_c, 0, 60, 0
1, 75946, Note_on_c, 9, 40, 0
1, 75954, Note_on_c, 9, 39, 0
1, 75958, Note_on_c, 0, 72, 57
1, 75966, Note_on_c, 0, 62, 49
1, 75966, Note_on_c, 0, 65, 45
1, 75966, Note_on_c, 0, 57, 46
1, 75994, Note_on_c, 9, 44, 60
1, 75994, Note_on_c, 9, 40, 47
1, 75994, Note_on_c, 9, 64, 50
1, 76082, Note_on_c, 9, 64, 0
1, 76086, Note_on_c, 0, 65, 0
1, 76090, Note_on_c, 9, 44, 0
1, 76102, Note_on_c, 0, 62, 0
1, 76122, Note_on_c, 9, 64, 51
1, 76166, Note_on_c, 0, 72, 0
1, 76174, Note_on_c, 9, 40, 0
1, 76186, Note_on_c, 9, 64, 0
1, 76186, Note_on_c, 0, 57, 0
1, 76198, Note_on_c, 9, 40, 55
1, 76202, Note_on_c, 0, 62, 52
1, 76206, Note_on_c, 0, 65, 55
1, 76238, Note_on_c, 0, 62, 0
1, 76266, Note_on_c, 0, 65, 0
1, 76290, Note_on_c, 1, 53, 0
1, 76314, Note_on_c, 1, 50, 79
1, 76326, Note_on_c, 0, 60, 66
1, 76326, Note_on_c, 9, 39, 55
1, 76334, Note_on_c, 9, 40, 0
1, 76338, Note_on_c, 0, 53, 44
1, 76342, Note_on_c, 0, 60, 0
1, 76346, Note_on_c, 9, 39, 0
1, 76354, Note_on_c, 1, 50, 0
1, 76370, Note_on_c, 0, 53, 0
1, 76378, Note_on_c, 1, 45, 68
1, 76378, Note_on_c, 9, 44, 62
1, 76378, Note_on_c, 9, 62, 67
1, 76378, Note_on_c, 9, 37, 49
1, 76386, Note_on_c, 9, 40, 48
1, 76410, Note_on_c, 1, 45, 0
1, 76426, Note_on_c, 9, 37, 0
1, 76446, Note_on_c, 9, 62, 0
1, 76478, Note_on_c, 9, 44, 0
1, 76506, Note_on_c, 1, 39, 74
1, 76522, Note_on_c, 0, 77, 72
1, 76522, Note_on_c, 0, 64, 64
1, 76526, Note_on_c, 0, 86, 63
1, 76526, Note_on_c, 0, 54, 55
1, 76526, Note_on_c, 0, 82, 55
1, 76526, Note_on_c, 0, 60, 54
1, 76538, Note_on_c, 0, 86, 0
1, 76538, Note_on_c, 0, 64, 0
1, 76538, Note_on_c, 0, 77, 0
1, 76538, Note_on_c, 1, 39, 0
1, 76542, Note_on_c, 0, 82, 0
1, 76542, Note_on_c, 0, 60, 0
1, 76542, Note_on_c, 0, 54, 0
1, 76546, Note_on_c, 9, 40, 0
1, 76562, Control_c, 0, 64, 0
1, 76570, Note_on_c, 1, 38, 62
1, 76578, Note_on_c, 9, 40, 44
1, 76586, Note_on_c, 0, 86, 60
1, 76586, Note_on_c, 0, 77, 52
1, 76590, Note_on_c, 0, 82, 57
1, 76594, Note_on_c, 0, 64, 54
1, 76594, Note_on_c, 0, 54, 46
1, 76610, Note_on_c, 0, 54, 0
1, 76610, Note_on_c, 0, 64, 0
1, 76614, Note_on_c, 0, 77, 0
1, 76618, Note_on_c, 0, 86, 0
1, 76622, Note_on_c, 0, 82, 0
1, 76658, Note_on_c, 0, 82, 50
1, 76662, Note_on_c, 0, 54, 49
1, 76662, Note_on_c, 0, 64, 49
1, 76666, Note_on_c, 1, 38, 0
1, 76666, Note_on_c, 0, 60, 46
1, 76682, Note_on_c, 0, 60, 0
1, 76682, Note_on_c, 0, 64, 0
1, 76682, Note_on_c, 0, 54, 0
1, 76682, Note_on_c, 0, 82, 0
1, 76698, Note_on_c, 1, 38, 67
1, 76726, Note_on_c, 0, 80, 78
1, 76726, Note_on_c, 0, 84, 70
1, 76726, Note_on_c, 0, 75, 68
1, 76734, Note_on_c, 1, 38, 0
1, 76734, Note_on_c, 0, 64, 71
1, 76738, Note_on_c, 0, 54, 68
1, 76742, Note_on_c, 0, 60, 59
1, 76762, Note_on_c, 1, 40, 75
1, 76762, Note_on_c, 9, 44, 63
1, 76762, Note_on_c, 9, 64, 39
1, 76846, Note_on_c, 0, 64, 0
1, 76850, Control_c, 0, 64, 127
1, 76850, Control_c, 0, 64, 72
1, 76854, Note_on_c, 0, 60, 0
1, 76854, Note_on_c, 0, 54, 0
1, 76854, Control_c, 0, 64, 127
1, 76858, Note_on_c, 9, 44, 0
1, 76862, Note_on_c, 9, 64, 0
1, 76882, Note_on_c, 9, 40, 0
1, 76886, Note_on_c, 0, 64, 49
1, 76886, Note_on_c, 9, 39, 53
1, 76890, Note_on_c, 0, 54, 49
1, 76890, Note_on_c, 0, 60, 49
1, 76890, Note_on_c, 9, 64, 62
1, 76906, Note_on_c, 0, 60, 0
1, 76910, Note_on_c, 0, 64, 0
1, 76910, Note_on_c, 0, 75, 0
1, 76914, Note_on_c, 0, 84, 0
1, 76922, Note_on_c, 0, 80, 0
1, 76926, Note_on_c, 0, 54, 0
1, 76942, Note_on_c, 1, 40, 0
1, 76942, Note_on_c, 9, 64, 0
1, 76942, Control_c, 0, 64, 0
1, 76946, Note_on_c, 9, 39, 0
1, 76950, Note_on_c, 9, 40, 54
1, 76954, Note_on_c, 1, 42, 78
1, 76962, Note_on_c, 0, 77, 68
1, 76962, Note_on_c, 0, 64, 58
1, 76962, Note_on_c, 0, 86, 63
1, 76962, Note_on_c, 0, 54, 49
1, 76970, Note_on_c, 0, 82, 45
1, 76978, Note_on_c, 0, 64, 0
1, 76978, Note_on_c, 0, 77, 0
1, 76978, Note_on_c, 0, 60, 34
1, 76986, Note_on_c, 0, 86, 0
1, 76986, Note_on_c, 0, 82, 0
1, 76994, Note_on_c, 0, 54, 0
1, 76994, Note_on_c, 0, 60, 0
1, 77022, Note_on_c, 0, 86, 62
1, 77026, Note_on_c, 0, 77, 42
1, 77026, Note_on_c, 0, 82, 57
1, 77034, Note_on_c, 0, 54, 55
1, 77042, Note_on_c, 0, 64, 38
1, 77042, Note_on_c, 0, 60, 33
1, 77046, Note_on_c, 0, 54, 0
1, 77046, Note_on_c, 0, 77, 0
1, 77054, Note_on_c, 0, 86, 0
1, 77058, Note_on_c, 0, 82, 0
1, 77062, Note_on_c, 0, 60, 0
1, 77062, Note_on_c, 0, 64, 0
1, 77082, Note_on_c, 9, 63, 74
1, 77086, Note_on_c, 0, 80, 62
1, 77090, Note_on_c, 0, 84, 57
1, 77090, Note_on_c, 0, 75, 51
1, 77090, Note_on_c, 0, 64, 60
1, 77098, Note_on_c, 0, 54, 60
1, 77098, Note_on_c, 0, 60, 49
1, 77118, Note_on_c, 9, 63, 0
1, 77146, Note_on_c, 9, 44, 65
1, 77146, Note_on_c, 9, 62, 28
1, 77154, Control_c, 0, 64, 127
1, 77170, Note_on_c, 0, 84, 0
1, 77178, Note_on_c, 0, 80, 0
1, 77182, Note_on_c, 0, 75, 0
1, 77198, Note_on_c, 0, 60, 0
1, 77198, Note_on_c, 0, 64, 0
1, 77210, Note_on_c, 0, 54, 0
1, 77242, Note_on_c, 9, 62, 0
1, 77242, Note_on_c, 9, 44, 0
1, 77274, Note_on_c, 0, 54, 43
1, 77274, Note_on_c, 9, 62, 74
1, 77278, Note_on_c, 9, 39, 26
1, 77290, Note_on_c, 9, 40, 0
1, 77298, Note_on_c, 0, 54, 0
1, 77314, Note_on_c, 9, 62, 0
1, 77318, Note_on_c, 9, 39, 0
1, 77318, Control_c, 0, 64, 0
1, 77338, Note_on_c, 1, 38, 68
1, 77338, Note_on_c, 9, 40, 54
1, 77342, Note_on_c, 1, 42, 0
1, 77342, Note_on_c, 0, 68, 51
1, 77342, Note_on_c, 0, 54, 53
1, 77342, Note_on_c, 0, 64, 56
1, 77346, Note_on_c, 0, 76, 56
1, 77346, Note_on_c, 0, 60, 47
1, 77354, Note_on_c, 0, 71, 48
1, 77426, Control_c, 0, 64, 127
1, 77438, Note_on_c, 0, 76, 0
1, 77442, Note_on_c, 0, 71, 0
1, 77450, Note_on_c, 0, 60, 0
1, 77454, Note_on_c, 0, 54, 0
1, 77454, Note_on_c, 0, 64, 0
1, 77462, Note_on_c, 0, 68, 0
1, 77470, Control_c, 0, 64, 0
1, 77530, Note_on_c, 0, 68, 51
1, 77530, Note_on_c, 9, 44, 65
1, 77530, Note_on_c, 9, 64, 38
1, 77534, Note_on_c, 0, 64, 49
1, 77534, Note_on_c, 0, 54, 52
1, 77538, Note_on_c, 0, 74, 42
1, 77538, Note_on_c, 0, 60, 50
1, 77618, Note_on_c, 9, 64, 0
1, 77626, Note_on_c, 9, 44, 0
1, 77630, Note_on_c, 0, 74, 0
1, 77654, Note_on_c, 0, 60, 0
1, 77658, Note_on_c, 0, 64, 0
1, 77658, Note_on_c, 0, 68, 0
1, 77658, Note_on_c, 0, 54, 0
1, 77658, Note_on_c, 1, 34, 46
1, 77658, Note_on_c, 9, 64, 61
1, 77670, Note_on_c, 9, 39, 20
1, 77674, Note_on_c, 9, 40, 0
1, 77694, Note_on_c, 1, 38, 0
1, 77702, Note_on_c, 9, 64, 0
1, 77702, Note_on_c, 1, 34, 0
1, 77702, Note_on_c, 9, 39, 0
1, 77718, Control_c, 0, 64, 127
1, 77722, Note_on_c, 1, 50, 96
1, 77722, Note_on_c, 9, 40, 47
1, 77730, Note_on_c, 0, 73, 49
1, 77730, Note_on_c, 0, 64, 49
1, 77730, Note_on_c, 0, 68, 42
1, 77734, Note_on_c, 0, 54, 45
1, 77742, Note_on_c, 0, 60, 43
1, 77786, Note_on_c, 0, 64, 0
1, 77802, Note_on_c, 0, 68, 0
1, 77810, Note_on_c, 0, 73, 0
1, 77830, Note_on_c, 0, 60, 0
1, 77850, Note_on_c, 1, 38, 51
1, 77854, Note_on_c, 0, 62, 66
1, 77854, Note_on_c, 0, 74, 55
1, 77866, Note_on_c, 0, 74, 0
1, 77866, Note_on_c, 0, 70, 31
1, 77866, Note_on_c, 0, 64, 36
1, 77866, Note_on_c, 0, 67, 33
1, 77870, Note_on_c, 0, 62, 0
1, 77870, Note_on_c, 0, 65, 32
1, 77882, Note_on_c, 0, 67, 0
1, 77882, Note_on_c, 1, 38, 0
1, 77882, Note_on_c, 0, 70, 0
1, 77886, Note_on_c, 0, 65, 0
1, 77886, Note_on_c, 1, 50, 0
1, 77886, Note_on_c, 0, 64, 0
1, 77906, Control_c, 0, 64, 0
1, 77910, Note_on_c, 0, 54, 0
1, 77914, Note_on_c, 1, 42, 76
1, 77914, Note_on_c, 9, 44, 67
1, 77914, Note_on_c, 9, 63, 75
1, 77914, Note_on_c, 9, 62, 73
1, 77946, Control_c, 0, 64, 127
1, 77982, Note_on_c, 9, 62, 0
1, 77986, Note_on_c, 9, 63, 0
1, 77998, Control_c, 0, 64, 0
1, 78010, Note_on_c, 9, 44, 0
1, 78022, Note_on_c, 0, 53, 40
1, 78038, Note_on_c, 0, 53, 0
1, 78038, Note_on_c, 0, 54, 61
1, 78042, Note_on_c, 1, 34, 36
1, 78046, Note_on_c, 0, 55, 71
1, 78046, Note_on_c, 0, 70, 75
1, 78046, Note_on_c, 0, 65, 74
1, 78046, Note_on_c, 9, 39, 29
1, 78050, Note_on_c, 0, 60, 67
1, 78054, Note_on_c, 9, 40, 0
1, 78074, Note_on_c, 1, 34, 0
1, 78074, Note_on_c, 0, 54, 0
1, 78090, Note_on_c, 9, 39, 0
1, 78102, Note_on_c, 1, 42, 0
1, 78106, Note_on_c, 1, 43, 81
1, 78106, Note_on_c, 9, 40, 60
1, 78174, Note_on_c, 0, 70, 0
1, 78178, Note_on_c, 0, 65, 0
1, 78186, Note_on_c, 0, 60, 0
1, 78238, Note_on_c, 0, 54, 60
1, 78242, Note_on_c, 0, 55, 0
1, 78242, Note_on_c, 0, 64, 59
1, 78246, Note_on_c, 0, 69, 31
1, 78262, Note_on_c, 0, 69, 0
1, 78278, Note_on_c, 0, 64, 0
1, 78298, Note_on_c, 9, 44, 62
1, 78298, Note_on_c, 9, 64, 45
1, 78310, Note_on_c, 0, 70, 67
1, 78310, Note_on_c, 0, 65, 61
1, 78314, Note_on_c, 0, 60, 54
1, 78314, Note_on_c, 0, 55, 60
1, 78326, Note_on_c, 0, 54, 0
1, 78382, Note_on_c, 0, 65, 0
1, 78386, Note_on_c, 0, 70, 0
1, 78390, Note_on_c, 0, 60, 0
1, 78394, Note_on_c, 9, 64, 0
1, 78394, Note_on_c, 9, 44, 0
1, 78426, Note_on_c, 1, 38, 66
1, 78426, Note_on_c, 9, 64, 57
1, 78430, Note_on_c, 0, 55, 0
1, 78442, Note_on_c, 0, 54, 54
1, 78458, Note_on_c, 1, 38, 0
1, 78458, Note_on_c, 9, 40, 0
1, 78474, Note_on_c, 9, 64, 0
1, 78490, Note_on_c, 0, 70, 65
1, 78490, Note_on_c, 1, 34, 80
1, 78490, Note_on_c, 9, 40, 49
1, 78494, Note_on_c, 0, 54, 0
1, 78494, Note_on_c, 0, 65, 59
1, 78494, Note_on_c, 0, 60, 54
1, 78506, Note_on_c, 0, 55, 55
1, 78618, Note_on_c, 9, 63, 78
1, 78618, Note_on_c, 9, 62, 64
1, 78650, Note_on_c, 9, 63, 0
1, 78650, Note_on_c, 1, 43, 0
1, 78666, Note_on_c, 9, 62, 0
1, 78682, Note_on_c, 9, 44, 64
1, 78682, Note_on_c, 9, 63, 75
1, 78686, Control_c, 0, 64, 127
1, 78722, Note_on_c, 1, 34, 0
1, 78722, Note_on_c, 0, 55, 0
1, 78726, Note_on_c, 0, 60, 0
1, 78746, Note_on_c, 1, 34, 70
1, 78746, Note_on_c, 9, 62, 75
1, 78754, Note_on_c, 9, 63, 0
1, 78754, Note_on_c, 0, 65, 0
1, 78778, Note_on_c, 9, 44, 0
1, 78778, Note_on_c, 9, 62, 0
1, 78786, Note_on_c, 0, 70, 0
1, 78798, Note_on_c, 1, 34, 0
1, 78810, Note_on_c, 1, 35, 77
1, 78810, Note_on_c, 9, 39, 40
1, 78822, Note_on_c, 9, 40, 0
1, 78850, Note_on_c, 1, 35, 0
1, 78854, Note_on_c, 9, 39, 0
1, 78870, Note_on_c, 9, 40, 54
1, 78874, Note_on_c, 1, 36, 82
1, 78882, Note_on_c, 0, 72, 58
1, 78886, Note_on_c, 0, 64, 56
1, 78886, Note_on_c, 0, 58, 47
1, 78886, Note_on_c, 0, 68, 54
1, 78938, Note_on_c, 0, 72, 0
1, 78946, Note_on_c, 0, 64, 0
1, 78954, Note_on_c, 0, 68, 0
1, 78954, Control_c, 0, 64, 0
1, 79002, Note_on_c, 0, 58, 0
1, 79002, Note_on_c, 0, 73, 68
1, 79002, Note_on_c, 1, 49, 79
1, 79014, Note_on_c, 0, 64, 63
1, 79014, Note_on_c, 0, 61, 63
1, 79014, Note_on_c, 0, 68, 57
1, 79014, Note_on_c, 0, 70, 61
1, 79034, Note_on_c, 0, 64, 0
1, 79042, Note_on_c, 0, 73, 0
1, 79050, Note_on_c, 0, 68, 0
1, 79054, Note_on_c, 0, 70, 0
1, 79066, Note_on_c, 9, 44, 64
1, 79066, Note_on_c, 9, 64, 60
1, 79078, Note_on_c, 0, 64, 65
1, 79078, Note_on_c, 0, 68, 75
1, 79078, Note_on_c, 0, 63, 68
1, 79078, Note_on_c, 0, 75, 75
1, 79082, Note_on_c, 0, 61, 0
1, 79082, Note_on_c, 0, 70, 66
1, 79162, Note_on_c, 0, 70, 0
1, 79162, Note_on_c, 9, 44, 0
1, 79162, Note_on_c, 9, 64, 0
1, 79170, Note_on_c, 0, 68, 0
1, 79174, Note_on_c, 0, 64, 0
1, 79186, Note_on_c, 0, 63, 0
1, 79186, Note_on_c, 0, 75, 0
1, 79194, Note_on_c, 9, 39, 37
1, 79194, Note_on_c, 9, 64, 59
1, 79202, Note_on_c, 9, 40, 0
1, 79210, Note_on_c, 0, 61, 57
1, 79234, Note_on_c, 9, 39, 0
1, 79234, Note_on_c, 1, 49, 0
1, 79238, Note_on_c, 9, 64, 0
1, 79250, Note_on_c, 9, 40, 60
1, 79258, Note_on_c, 0, 61, 0
1, 79258, Note_on_c, 1, 48, 85
1, 79270, Note_on_c, 0, 75, 89
1, 79270, Note_on_c, 0, 63, 75
1, 79270, Note_on_c, 0, 68, 79
1, 79270, Note_on_c, 0, 64, 81
1, 79274, Note_on_c, 0, 70, 66
1, 79302, Note_on_c, 1, 36, 0
1, 79346, Note_on_c, 0, 70, 0
1, 79358, Note_on_c, 0, 68, 0
1, 79358, Note_on_c, 0, 64, 0
1, 79362, Note_on_c, 0, 75, 0
1, 79374, Note_on_c, 0, 63, 0
1, 79386, Note_on_c, 0, 61, 58
1, 79386, Note_on_c, 1, 36, 60
1, 79394, Note_on_c, 0, 73, 57
1, 79394, Note_on_c, 0, 68, 55
1, 79398, Note_on_c, 0, 64, 58
1, 79410, Note_on_c, 0, 70, 36
1, 79418, Note_on_c, 1, 36, 0
1, 79430, Note_on_c, 0, 70, 0
1, 79430, Note_on_c, 0, 73, 0
1, 79430, Note_on_c, 0, 64, 0
1, 79446, Note_on_c, 0, 61, 0
1, 79450, Note_on_c, 1, 42, 69
1, 79450, Note_on_c, 9, 44, 67
1, 79450, Note_on_c, 9, 63, 47
1, 79450, Note_on_c, 9, 62, 42
1, 79454, Note_on_c, 0, 68, 0
1, 79454, Note_on_c, 1, 48, 0
1, 79454, Note_on_c, 0, 60, 52
1, 79466, Note_on_c, 0, 72, 59
1, 79470, Note_on_c, 0, 64, 35
1, 79482, Note_on_c, 9, 63, 0
1, 79486, Note_on_c, 9, 62, 0
1, 79490, Note_on_c, 0, 64, 0
1, 79502, Note_on_c, 0, 72, 0
1, 79510, Note_on_c, 0, 60, 0
1, 79526, Note_on_c, 0, 58, 49
1, 79546, Note_on_c, 9, 44, 0
1, 79566, Note_on_c, 0, 58, 0
1, 79570, Note_on_c, 0, 72, 74
1, 79574, Note_on_c, 0, 67, 72
1, 79574, Note_on_c, 0, 62, 70
1, 79578, Note_on_c, 1, 34, 47
1, 79582, Note_on_c, 0, 57, 68
1, 79594, Note_on_c, 9, 40, 0
1, 79594, Note_on_c, 9, 39, 23
1, 79610, Note_on_c, 1, 34, 0
1, 79622, Note_on_c, 9, 39, 0
1, 79638, Note_on_c, 1, 42, 0
1, 79638, Control_c, 0, 64, 127
1, 79642, Note_on_c, 1, 41, 81
1, 79642, Note_on_c, 9, 40, 49
1, 79674, Note_on_c, 0, 67, 0
1, 79674, Note_on_c, 0, 72, 0
1, 79710, Note_on_c, 0, 62, 0
1, 79710, Note_on_c, 0, 57, 0
1, 79762, Control_c, 0, 64, 0
1, 79766, Note_on_c, 0, 60, 74
1, 79766, Note_on_c, 0, 69, 67
1, 79766, Note_on_c, 0, 64, 66
1, 79770, Note_on_c, 0, 53, 66
1, 79834, Note_on_c, 9, 44, 65
1, 79834, Note_on_c, 9, 64, 44
1, 79842, Control_c, 0, 64, 127
1, 79874, Note_on_c, 0, 69, 0
1, 79882, Note_on_c, 0, 64, 0
1, 79926, Note_on_c, 9, 64, 0
1, 79930, Note_on_c, 0, 60, 0
1, 79930, Note_on_c, 9, 44, 0
1, 79962, Note_on_c, 9, 64, 96
1, 80006, Note_on_c, 9, 40, 0
1, 80006, Note_on_c, 0, 53, 0
1, 80014, Control_c, 0, 64, 0
1, 80018, Note_on_c, 1, 41, 0
1, 80022, Note_on_c, 9, 64, 0
1, 80026, Note_on_c, 1, 36, 95
1, 80030, Note_on_c, 0, 60, 66
1, 80030, Note_on_c, 0, 65, 57
1, 80030, Note_on_c, 0, 57, 60
1, 80030, Note_on_c, 9, 40, 62
1, 80034, Note_on_c, 0, 53, 36
1, 80106, Control_c, 0, 64, 127
1, 80126, Note_on_c, 0, 53, 0
1, 80126, Control_c, 0, 64, 0
1, 80162, Note_on_c, 0, 53, 68
1, 80170, Note_on_c, 0, 50, 68
1, 80218, Note_on_c, 9, 44, 60
1, 80218, Note_on_c, 9, 62, 64
1, 80226, Control_c, 0, 64, 127
1, 80270, Note_on_c, 9, 62, 0
1, 80274, Note_on_c, 1, 36, 0
1, 80282, Note_on_c, 1, 35, 63
1, 80298, Note_on_c, 0, 50, 0
1, 80314, Note_on_c, 1, 35, 0
1, 80314, Note_on_c, 9, 44, 0
1, 80342, Note_on_c, 9, 39, 50
1, 80346, Note_on_c, 1, 34, 71
1, 80358, Note_on_c, 9, 40, 0
1, 80378, Note_on_c, 1, 34, 0
1, 80386, Note_on_c, 9, 39, 0
1, 80406, Note_on_c, 9, 40, 58
1, 80410, Note_on_c, 1, 33, 78
1, 80426, Note_on_c, 0, 57, 0
1, 80430, Note_on_c, 0, 65, 0
1, 80430, Note_on_c, 0, 60, 0
1, 80434, Note_on_c, 0, 53, 0
1, 80538, Control_c, 0, 64, 0
1, 80542, Note_on_c, 0, 69, 85
1, 80546, Note_on_c, 0, 58, 81
1, 80546, Note_on_c, 0, 62, 73
1, 80554, Note_on_c, 0, 57, 75
1, 80566, Note_on_c, 0, 64, 35
1, 80590, Note_on_c, 0, 64, 0
1, 80602, Note_on_c, 9, 44, 59
1, 80602, Note_on_c, 9, 64, 38
1, 80610, Note_on_c, 0, 69, 0
1, 80618, Note_on_c, 0, 58, 0
1, 80622, Note_on_c, 0, 57, 0
1, 80626, Note_on_c, 0, 62, 0
1, 80630, Note_on_c, 0, 52, 51
1, 80630, Note_on_c, 0, 67, 61
1, 80662, Note_on_c, 9, 64, 0
1, 80686, Note_on_c, 0, 67, 0
1, 80698, Note_on_c, 9, 44, 0
1, 80730, Note_on_c, 1, 45, 104
1, 80730, Note_on_c, 9, 64, 45
1, 80738, Note_on_c, 0, 52, 0
1, 80738, Note_on_c, 0, 70, 89
1, 80738, Note_on_c, 0, 61, 90
1, 80742, Note_on_c, 0, 55, 74
1, 80742, Note_on_c, 0, 45, 72
1, 80742, Note_on_c, 0, 66, 78
1, 80762, Note_on_c, 9, 40, 0
1, 80766, Note_on_c, 1, 45, 0
1, 80782, Note_on_c, 9, 64, 0
1, 80790, Note_on_c, 9, 40, 55
1, 80794, Note_on_c, 1, 45, 84
1, 80802, Control_c, 0, 64, 127
1, 80822, Note_on_c, 1, 33, 0
1, 80922, Note_on_c, 1, 33, 57
1, 80922, Note_on_c, 9, 63, 85
1, 80926, Note_on_c, 9, 40, 0
1, 80926, Note_on_c, 9, 39, 42
1, 80934, Note_on_c, 0, 52, 54
1, 80942, Note_on_c, 0, 66, 0
1, 80950, Note_on_c, 0, 61, 0
1, 80954, Note_on_c, 0, 70, 0
1, 80958, Note_on_c, 1, 33, 0
1, 80962, Note_on_c, 0, 45, 0
1, 80966, Note_on_c, 1, 45, 0
1, 80966, Note_on_c, 9, 39, 0
1, 80970, Note_on_c, 9, 63, 0
1, 80978, Note_on_c, 9, 40, 46
1, 80982, Note_on_c, 0, 52, 0
1, 80986, Note_on_c, 1, 39, 86
1, 80986, Note_on_c, 9, 44, 64
1, 80986, Note_on_c, 9, 62, 40
1, 80990, Control_c, 0, 64, 0
1, 80994, Note_on_c, 0, 65, 84
1, 80994, Note_on_c, 0, 69, 80
1, 80998, Note_on_c, 0, 55, 0
1, 81034, Control_c, 0, 64, 127
1, 81082, Note_on_c, 9, 62, 0
1, 81082, Note_on_c, 9, 44, 0
1, 81114, Note_on_c, 9, 40, 0
1, 81114, Note_on_c, 9, 62, 52
1, 81118, Note_on_c, 9, 39, 25
1, 81138, Note_on_c, 9, 39, 0
1, 81146, Note_on_c, 1, 39, 0
1, 81146, Note_on_c, 0, 65, 0
1, 81146, Note_on_c, 0, 69, 0
1, 81146, Note_on_c, 9, 62, 0
1, 81158, Control_c, 0, 64, 0
1, 81166, Note_on_c, 9, 40, 66
1, 81178, Control_c, 1, 7, 111
1, 81178, Control_c, 1, 1, 0
1, 81178, Note_on_c, 1, 38, 74
1, 81182, Note_on_c, 0, 64, 58
1, 81186, Note_on_c, 0, 57, 48
1, 81186, Note_on_c, 0, 67, 63
1, 81194, Note_on_c, 0, 50, 36
1, 81198, Note_on_c, 0, 53, 47
1, 81258, Note_on_c, 0, 64, 0
1, 81294, Note_on_c, 0, 57, 0
1, 81310, Note_on_c, 0, 67, 0
1, 81326, Note_on_c, 0, 62, 48
1, 81330, Note_on_c, 0, 65, 40
1, 81342, Note_on_c, 0, 62, 0
1, 81350, Note_on_c, 0, 57, 32
1, 81354, Note_on_c, 0, 65, 0
1, 81370, Note_on_c, 9, 44, 64
1, 81370, Note_on_c, 9, 64, 42
1, 81378, Note_on_c, 0, 57, 0
1, 81382, Note_on_c, 0, 64, 49
1, 81386, Note_on_c, 0, 67, 51
1, 81418, Note_on_c, 0, 53, 0
1, 81450, Note_on_c, 0, 64, 0
1, 81458, Note_on_c, 9, 64, 0
1, 81466, Note_on_c, 9, 44, 0
1, 81490, Note_on_c, 0, 53, 32
1, 81498, Note_on_c, 9, 64, 60
1, 81514, Note_on_c, 0, 67, 0
1, 81514, Note_on_c, 0, 62, 50
1, 81518, Note_on_c, 9, 40, 0
1, 81530, Note_on_c, 0, 62, 0
1, 81530, Note_on_c, 0, 65, 44
1, 81538, Note_on_c, 9, 64, 0
1, 81550, Note_on_c, 0, 65, 0
1, 81558, Note_on_c, 0, 53, 0
1, 81558, Note_on_c, 9, 40, 55
1, 81562, Note_on_c, 0, 57, 57
1, 81574, Note_on_c, 0, 67, 59
1, 81582, Note_on_c, 0, 64, 45
1, 81634, Note_on_c, 0, 64, 0
1, 81634, Note_on_c, 0, 57, 0
1, 81690, Note_on_c, 0, 67, 0
1, 81702, Note_on_c, 0, 65, 57
1, 81702, Note_on_c, 0, 57, 53
1, 81702, Note_on_c, 0, 62, 55
1, 81754, Note_on_c, 0, 62, 0
1, 81754, Note_on_c, 9, 44, 62
1, 81754, Note_on_c, 9, 63, 33
1, 81770, Control_c, 0, 64, 127
1, 81778, Note_on_c, 0, 50, 0
1, 81790, Note_on_c, 0, 57, 0
1, 81794, Note_on_c, 9, 63, 0
1, 81850, Note_on_c, 9, 44, 0
1, 81858, Note_on_c, 0, 65, 0
1, 81870, Control_c, 0, 64, 0
1, 81878, Note_on_c, 9, 39, 42
1, 81886, Note_on_c, 0, 64, 57
1, 81890, Note_on_c, 9, 40, 0
1, 81890, Note_on_c, 0, 57, 57
1, 81890, Note_on_c, 0, 67, 58
1, 81890, Note_on_c, 0, 49, 49
1, 81918, Note_on_c, 9, 39, 0
1, 81938, Note_on_c, 9, 40, 55
1, 81946, Note_on_c, 1, 50, 80
1, 81958, Note_on_c, 1, 38, 0
1, 81994, Note_on_c, 0, 64, 0
1, 82002, Note_on_c, 0, 67, 0
1, 82054, Note_on_c, 0, 57, 0
1, 82078, Note_on_c, 0, 67, 68
1, 82082, Note_on_c, 0, 68, 74
1, 82090, Note_on_c, 0, 57, 40
1, 82106, Note_on_c, 0, 67, 0
1, 82114, Note_on_c, 0, 68, 0
1, 82114, Note_on_c, 0, 69, 69
1, 82138, Note_on_c, 9, 44, 64
1, 82138, Note_on_c, 9, 64, 35
1, 82218, Note_on_c, 0, 57, 0
1, 82234, Note_on_c, 9, 40, 0
1, 82234, Note_on_c, 9, 44, 0
1, 82242, Note_on_c, 0, 69, 0
1, 82242, Note_on_c, 9, 64, 0
1, 82246, Note_on_c, 0, 67, 72
1, 82258, Note_on_c, 9, 40, 51
1, 82266, Note_on_c, 0, 57, 38
1, 82266, Note_on_c, 1, 38, 57
1, 82266, Note_on_c, 9, 64, 54
1, 82274, Note_on_c, 9, 40, 0
1, 82282, Note_on_c, 0, 67, 0
1, 82290, Note_on_c, 0, 65, 57
1, 82294, Note_on_c, 0, 57, 0
1, 82306, Note_on_c, 1, 38, 0
1, 82306, Note_on_c, 9, 64, 0
1, 82318, Note_on_c, 0, 65, 0
1, 82318, Note_on_c, 9, 40, 59
1, 82330, Note_on_c, 1, 49, 81
1, 82346, Note_on_c, 1, 50, 0
1, 82346, Note_on_c, 0, 57, 46
1, 82350, Note_on_c, 0, 67, 74
1, 82438, Note_on_c, 0, 49, 0
1, 82454, Note_on_c, 0, 57, 0
1, 82458, Note_on_c, 9, 63, 46
1, 82470, Note_on_c, 0, 67, 0
1, 82470, Note_on_c, 0, 65, 57
1, 82486, Note_on_c, 0, 49, 44
1, 82490, Note_on_c, 0, 57, 52
1, 82494, Note_on_c, 9, 63, 0
1, 82522, Note_on_c, 9, 46, 46
1, 82522, Note_on_c, 9, 37, 50
1, 82522, Note_on_c, 9, 62, 37
1, 82566, Note_on_c, 9, 37, 0
1, 82578, Note_on_c, 9, 62, 0
1, 82582, Note_on_c, 0, 57, 0
1, 82586, Note_on_c, 1, 45, 77
1, 82610, Note_on_c, 1, 49, 0
1, 82614, Note_on_c, 0, 65, 0
1, 82618, Note_on_c, 9, 46, 0
1, 82618, Note_on_c, 1, 45, 0
1, 82626, Note_on_c, 0, 49, 0
1, 82646, Note_on_c, 0, 67, 73
1, 82646, Note_on_c, 9, 39, 57
1, 82650, Note_on_c, 1, 37, 70
1, 82654, Note_on_c, 0, 57, 51
1, 82658, Note_on_c, 9, 40, 0
1, 82658, Note_on_c, 0, 48, 53
1, 82670, Note_on_c, 9, 39, 0
1, 82710, Note_on_c, 1, 37, 0
1, 82710, Note_on_c, 9, 40, 49
1, 82714, Note_on_c, 1, 38, 69
1, 82814, Note_on_c, 0, 57, 0
1, 82826, Note_on_c, 0, 67, 0
1, 82866, Note_on_c, 0, 57, 27
1, 82878, Note_on_c, 9, 40, 0
1, 82902, Note_on_c, 9, 40, 66
1, 82906, Note_on_c, 9, 44, 68
1, 82906, Note_on_c, 9, 64, 38
1, 82914, Note_on_c, 0, 67, 64
1, 82970, Note_on_c, 0, 57, 0
1, 82990, Note_on_c, 9, 64, 0
1, 83002, Note_on_c, 9, 44, 0
1, 83022, Note_on_c, 0, 67, 0
1, 83034, Note_on_c, 9, 64, 55
1, 83046, Note_on_c, 0, 65, 41
1, 83050, Note_on_c, 0, 57, 31
1, 83070, Note_on_c, 9, 64, 0
1, 83074, Note_on_c, 0, 65, 0
1, 83098, Note_on_c, 1, 45, 92
1, 83114, Note_on_c, 0, 67, 56
1, 83118, Note_on_c, 0, 57, 0
1, 83122, Note_on_c, 1, 38, 0
1, 83198, Note_on_c, 0, 67, 0
1, 83202, Note_on_c, 9, 40, 0
1, 83226, Note_on_c, 9, 63, 32
1, 83230, Note_on_c, 0, 68, 55
1, 83234, Note_on_c, 0, 66, 41
1, 83234, Note_on_c, 0, 57, 56
1, 83234, Note_on_c, 9, 40, 22
1, 83258, Note_on_c, 0, 66, 0
1, 83258, Note_on_c, 9, 63, 0
1, 83262, Note_on_c, 9, 40, 0
1, 83278, Note_on_c, 0, 68, 0
1, 83286, Note_on_c, 9, 40, 59
1, 83290, Note_on_c, 9, 44, 67
1, 83290, Note_on_c, 9, 37, 71
1, 83290, Note_on_c, 9, 62, 76
1, 83310, Note_on_c, 0, 69, 44
1, 83346, Note_on_c, 9, 37, 0
1, 83362, Note_on_c, 0, 48, 0
1, 83378, Note_on_c, 0, 69, 0
1, 83378, Note_on_c, 9, 62, 0
1, 83386, Note_on_c, 9, 44, 0
1, 83386, Note_on_c, 0, 57, 0
1, 83414, Note_on_c, 0, 72, 77
1, 83418, Note_on_c, 1, 37, 56
1, 83458, Note_on_c, 0, 72, 0
1, 83470, Note_on_c, 1, 45, 0
1, 83482, Note_on_c, 1, 38, 58
1, 83486, Note_on_c, 1, 37, 0
1, 83494, Note_on_c, 0, 77, 74
1, 83582, Note_on_c, 0, 77, 0
1, 83590, Note_on_c, 9, 40, 0
1, 83606, Note_on_c, 0, 81, 96
1, 83622, Note_on_c, 9, 40, 44
1, 83638, Note_on_c, 9, 40, 0
1, 83658, Note_on_c, 0, 81, 0
1, 83670, Note_on_c, 9, 40, 38
1, 83674, Note_on_c, 9, 44, 62
1, 83674, Note_on_c, 9, 64, 36
1, 83702, Note_on_c, 0, 79, 63
1, 83714, Note_on_c, 1, 38, 0
1, 83738, Note_on_c, 1, 47, 96
1, 83742, Note_on_c, 0, 79, 0
1, 83766, Note_on_c, 9, 64, 0
1, 83770, Note_on_c, 9, 44, 0
1, 83798, Note_on_c, 0, 57, 63
1, 83802, Note_on_c, 0, 47, 54
1, 83802, Note_on_c, 9, 39, 57
1, 83802, Note_on_c, 9, 64, 77
1, 83810, Note_on_c, 0, 57, 0
1, 83810, Note_on_c, 9, 40, 0
1, 83818, Note_on_c, 0, 47, 0
1, 83834, Note_on_c, 9, 39, 0
1, 83866, Note_on_c, 9, 64, 0
1, 83870, Note_on_c, 9, 40, 37
1, 83978, Note_on_c, 9, 40, 0
1, 83994, Note_on_c, 0, 57, 70
1, 83994, Note_on_c, 9, 25, 62
1, 83994, Note_on_c, 9, 63, 82
1, 83998, Note_on_c, 0, 47, 53
1, 84010, Note_on_c, 0, 47, 0
1, 84022, Note_on_c, 0, 57, 0
1, 84030, Note_on_c, 9, 25, 0
1, 84046, Note_on_c, 9, 63, 0
1, 84058, Note_on_c, 9, 44, 64
1, 84058, Note_on_c, 9, 40, 46
1, 84070, Note_on_c, 0, 78, 61
1, 84110, Note_on_c, 0, 78, 0
1, 84122, Note_on_c, 9, 62, 16
1, 84134, Note_on_c, 0, 79, 52
1, 84150, Note_on_c, 0, 79, 0
1, 84154, Note_on_c, 9, 44, 0
1, 84162, Note_on_c, 9, 62, 0
1, 84166, Note_on_c, 9, 40, 0
1, 84186, Note_on_c, 9, 62, 82
1, 84194, Note_on_c, 0, 81, 83
1, 84198, Note_on_c, 0, 55, 60
1, 84198, Note_on_c, 0, 62, 57
1, 84198, Note_on_c, 9, 40, 31
1, 84202, Note_on_c, 0, 58, 52
1, 84234, Note_on_c, 9, 40, 0
1, 84242, Note_on_c, 1, 47, 0
1, 84242, Note_on_c, 9, 62, 0
1, 84242, Note_on_c, 0, 81, 0
1, 84250, Note_on_c, 1, 31, 63
1, 84254, Note_on_c, 9, 40, 46
1, 84266, Note_on_c, 0, 82, 70
1, 84298, Note_on_c, 0, 62, 0
1, 84302, Note_on_c, 0, 82, 0
1, 84306, Note_on_c, 0, 58, 0
1, 84310, Note_on_c, 0, 55, 0
1, 84334, Note_on_c, 0, 84, 94
1, 84398, Note_on_c, 0, 84, 0
1, 84414, Note_on_c, 9, 40, 0
1, 84426, Note_on_c, 0, 58, 24
1, 84438, Note_on_c, 0, 58, 0
1, 84442, Note_on_c, 9, 44, 65
1, 84442, Note_on_c, 9, 40, 52
1, 84442, Note_on_c, 9, 64, 42
1, 84538, Note_on_c, 9, 44, 0
1, 84550, Note_on_c, 9, 64, 0
1, 84570, Note_on_c, 9, 64, 43
1, 84574, Note_on_c, 9, 40, 0
1, 84574, Note_on_c, 9, 25, 53
1, 84578, Note_on_c, 0, 62, 56
1, 84578, Note_on_c, 0, 58, 56
1, 84578, Note_on_c, 9, 38, 61
1, 84582, Note_on_c, 0, 55, 52
1, 84602, Note_on_c, 0, 62, 0
1, 84606, Note_on_c, 9, 25, 0
1, 84618, Note_on_c, 0, 55, 0
1, 84622, Note_on_c, 0, 58, 0
1, 84630, Note_on_c, 9, 38, 0
1, 84630, Note_on_c, 9, 64, 0
1, 84642, Note_on_c, 0, 78, 48
1, 84642, Note_on_c, 9, 40, 46
1, 84678, Note_on_c, 0, 78, 0
1, 84702, Note_on_c, 0, 79, 59
1, 84730, Note_on_c, 0, 79, 0
1, 84762, Note_on_c, 0, 81, 98
1, 84762, Note_on_c, 1, 38, 45
1, 84762, Note_on_c, 9, 63, 88
1, 84770, Note_on_c, 0, 58, 57
1, 84770, Note_on_c, 0, 62, 56
1, 84774, Note_on_c, 0, 55, 55
1, 84790, Note_on_c, 9, 40, 0
1, 84794, Note_on_c, 1, 38, 0
1, 84806, Note_on_c, 0, 81, 0
1, 84814, Note_on_c, 0, 62, 0
1, 84822, Note_on_c, 9, 40, 50
1, 84826, Note_on_c, 9, 63, 0
1, 84826, Note_on_c, 1, 46, 92
1, 84826, Note_on_c, 9, 44, 64
1, 84826, Note_on_c, 9, 62, 54
1, 84834, Note_on_c, 0, 82, 80
1, 84850, Note_on_c, 0, 55, 0
1, 84874, Note_on_c, 0, 82, 0
1, 84886, Note_on_c, 0, 58, 0
1, 84898, Note_on_c, 0, 84, 98
1, 84922, Note_on_c, 9, 44, 0
1, 84926, Note_on_c, 9, 62, 0
1, 84946, Note_on_c, 0, 84, 0
1, 84954, Note_on_c, 1, 38, 60
1, 84954, Note_on_c, 9, 62, 71
1, 84958, Note_on_c, 9, 38, 65
1, 84962, Note_on_c, 0, 82, 89
1, 84962, Note_on_c, 9, 25, 42
1, 84966, Note_on_c, 9, 40, 0
1, 84986, Note_on_c, 9, 25, 0
1, 84986, Note_on_c, 1, 38, 0
1, 84986, Note_on_c, 0, 58, 52
1, 84990, Note_on_c, 1, 31, 0
1, 84990, Note_on_c, 0, 62, 52
1, 84990, Note_on_c, 0, 54, 52
1, 84994, Note_on_c, 0, 82, 0
1, 84998, Note_on_c, 9, 62, 0
1, 85002, Note_on_c, 9, 38, 0
1, 85010, Note_on_c, 1, 46, 0
1, 85018, Note_on_c, 1, 42, 81
1, 85022, Note_on_c, 9, 40, 47
1, 85034, Note_on_c, 0, 81, 49
1, 85074, Note_on_c, 0, 81, 0
1, 85098, Note_on_c, 0, 78, 57
1, 85110, Note_on_c, 0, 62, 0
1, 85118, Note_on_c, 0, 58, 0
1, 85138, Note_on_c, 0, 78, 0
1, 85146, Note_on_c, 0, 58, 29
1, 85150, Note_on_c, 9, 40, 0
1, 85158, Note_on_c, 0, 74, 56
1, 85194, Note_on_c, 0, 74, 0
1, 85210, Note_on_c, 9, 44, 65
1, 85210, Note_on_c, 9, 64, 55
1, 85214, Note_on_c, 9, 40, 55
1, 85250, Note_on_c, 0, 58, 0
1, 85278, Note_on_c, 0, 54, 0
1, 85286, Note_on_c, 9, 64, 0
1, 85306, Note_on_c, 9, 44, 0
1, 85338, Note_on_c, 1, 38, 79
1, 85338, Note_on_c, 9, 64, 44
1, 85350, Note_on_c, 1, 42, 0
1, 85350, Note_on_c, 0, 62, 45
1, 85350, Note_on_c, 0, 58, 50
1, 85350, Note_on_c, 0, 54, 41
1, 85370, Note_on_c, 1, 38, 0
1, 85374, Note_on_c, 9, 40, 0
1, 85390, Note_on_c, 9, 64, 0
1, 85402, Note_on_c, 1, 31, 64
1, 85410, Note_on_c, 9, 40, 51
1, 85442, Note_on_c, 0, 62, 0
1, 85462, Note_on_c, 0, 58, 0
1, 85506, Note_on_c, 1, 31, 0
1, 85530, Note_on_c, 1, 31, 93
1, 85530, Note_on_c, 9, 63, 23
1, 85534, Note_on_c, 9, 25, 40
1, 85538, Note_on_c, 9, 40, 0
1, 85538, Note_on_c, 9, 38, 53
1, 85542, Note_on_c, 0, 58, 53
1, 85542, Note_on_c, 0, 62, 43
1, 85558, Note_on_c, 9, 25, 0
1, 85562, Note_on_c, 9, 63, 0
1, 85562, Note_on_c, 1, 31, 0
1, 85566, Note_on_c, 0, 62, 0
1, 85574, Note_on_c, 9, 38, 0
1, 85594, Note_on_c, 9, 44, 65
1, 85594, Note_on_c, 9, 40, 42
1, 85594, Note_on_c, 9, 62, 69
1, 85618, Note_on_c, 0, 78, 35
1, 85638, Note_on_c, 0, 78, 0
1, 85662, Note_on_c, 0, 58, 0
1, 85674, Note_on_c, 0, 79, 61
1, 85690, Note_on_c, 9, 44, 0
1, 85706, Note_on_c, 9, 62, 0
1, 85706, Note_on_c, 0, 79, 0
1, 85710, Note_on_c, 0, 54, 0
1, 85722, Note_on_c, 1, 30, 65
1, 85722, Note_on_c, 9, 62, 78
1, 85730, Note_on_c, 0, 81, 98
1, 85734, Note_on_c, 9, 40, 0
1, 85774, Note_on_c, 0, 81, 0
1, 85778, Note_on_c, 9, 40, 56
1, 85786, Note_on_c, 1, 31, 73
1, 85790, Note_on_c, 9, 62, 0
1, 85790, Note_on_c, 0, 82, 75
1, 85794, Note_on_c, 0, 58, 48
1, 85798, Note_on_c, 1, 30, 0
1, 85802, Note_on_c, 0, 62, 37
1, 85806, Note_on_c, 0, 53, 40
1, 85838, Note_on_c, 0, 82, 0
1, 85866, Note_on_c, 0, 81, 76
1, 85914, Note_on_c, 0, 58, 0
1, 85918, Note_on_c, 0, 81, 0
1, 85950, Note_on_c, 0, 62, 0
1, 85950, Note_on_c, 0, 58, 54
1, 85970, Note_on_c, 0, 58, 0
1, 85978, Note_on_c, 9, 44, 64
1, 85978, Note_on_c, 9, 64, 34
1, 85986, Note_on_c, 0, 77, 66
1, 86062, Note_on_c, 9, 64, 0
1, 86070, Note_on_c, 9, 40, 0
1, 86074, Note_on_c, 9, 44, 0
1, 86094, Note_on_c, 0, 77, 0
1, 86106, Note_on_c, 9, 40, 48
1, 86106, Note_on_c, 9, 64, 54
1, 86110, Note_on_c, 0, 74, 68
1, 86118, Note_on_c, 0, 58, 51
1, 86122, Note_on_c, 9, 40, 0
1, 86154, Note_on_c, 9, 64, 0
1, 86158, Note_on_c, 0, 74, 0
1, 86166, Note_on_c, 9, 40, 53
1, 86170, Note_on_c, 1, 41, 90
1, 86174, Note_on_c, 0, 58, 0
1, 86194, Note_on_c, 1, 31, 0
1, 86198, Note_on_c, 0, 70, 48
1, 86298, Note_on_c, 9, 63, 34
1, 86302, Note_on_c, 0, 70, 0
1, 86318, Note_on_c, 0, 67, 31
1, 86330, Note_on_c, 0, 58, 34
1, 86334, Note_on_c, 9, 63, 0
1, 86342, Note_on_c, 0, 67, 0
1, 86354, Note_on_c, 0, 53, 0
1, 86354, Note_on_c, 0, 58, 0
1, 86362, Note_on_c, 9, 44, 64
1, 86362, Note_on_c, 9, 62, 57
1, 86362, Note_on_c, 9, 37, 32
1, 86374, Note_on_c, 0, 69, 48
1, 86422, Note_on_c, 0, 69, 0
1, 86442, Note_on_c, 9, 62, 0
1, 86442, Note_on_c, 9, 37, 0
1, 86442, Note_on_c, 0, 70, 57
1, 86458, Note_on_c, 9, 44, 0
1, 86482, Note_on_c, 0, 70, 0
1, 86486, Note_on_c, 9, 39, 64
1, 86490, Note_on_c, 1, 39, 73
1, 86490, Note_on_c, 9, 62, 84
1, 86490, Note_on_c, 9, 37, 80
1, 86498, Note_on_c, 9, 40, 0
1, 86502, Note_on_c, 1, 41, 0
1, 86502, Note_on_c, 0, 72, 73
1, 86510, Note_on_c, 9, 39, 0
1, 86534, Note_on_c, 0, 61, 38
1, 86534, Note_on_c, 0, 64, 38
1, 86542, Note_on_c, 9, 40, 36
1, 86546, Note_on_c, 0, 72, 0
1, 86546, Note_on_c, 0, 55, 38
1, 86554, Note_on_c, 9, 62, 0
1, 86554, Note_on_c, 1, 40, 74
1, 86558, Note_on_c, 9, 37, 0
1, 86570, Note_on_c, 1, 39, 0
1, 86574, Note_on_c, 0, 73, 61
1, 86622, Note_on_c, 0, 73, 0
1, 86630, Note_on_c, 0, 64, 0
1, 86634, Note_on_c, 0, 75, 63
1, 86682, Note_on_c, 0, 75, 0
1, 86698, Note_on_c, 0, 76, 68
1, 86714, Note_on_c, 0, 55, 0
1, 86730, Note_on_c, 0, 61, 0
1, 86746, Note_on_c, 0, 76, 0
1, 86746, Note_on_c, 9, 44, 65
1, 86746, Note_on_c, 9, 64, 36
1, 86818, Note_on_c, 9, 64, 0
1, 86842, Note_on_c, 9, 44, 0
1, 86866, Note_on_c, 0, 66, 68
1, 86866, Note_on_c, 9, 39, 46
1, 86874, Note_on_c, 0, 61, 46
1, 86874, Note_on_c, 0, 55, 45
1, 86874, Note_on_c, 1, 34, 65
1, 86874, Note_on_c, 9, 64, 57
1, 86878, Note_on_c, 0, 66, 0
1, 86878, Note_on_c, 9, 40, 0
1, 86890, Note_on_c, 0, 55, 0
1, 86918, Note_on_c, 9, 39, 0
1, 86922, Note_on_c, 1, 40, 0
1, 86930, Note_on_c, 9, 64, 0
1, 86930, Note_on_c, 9, 40, 62
1, 86934, Note_on_c, 0, 73, 72
1, 86938, Note_on_c, 1, 33, 63
1, 86950, Note_on_c, 1, 34, 0
1, 86978, Note_on_c, 0, 73, 0
1, 86990, Note_on_c, 0, 61, 0
1, 86994, Note_on_c, 0, 75, 68
1, 87042, Note_on_c, 0, 75, 0
1, 87058, Note_on_c, 0, 61, 48
1, 87066, Note_on_c, 0, 67, 63
1, 87066, Note_on_c, 9, 63, 34
1, 87082, Note_on_c, 0, 55, 23
1, 87106, Note_on_c, 9, 63, 0
1, 87106, Note_on_c, 0, 67, 0
1, 87110, Note_on_c, 0, 55, 0
1, 87114, Note_on_c, 0, 61, 0
1, 87130, Note_on_c, 0, 69, 58
1, 87130, Note_on_c, 1, 45, 95
1, 87130, Note_on_c, 9, 46, 59
1, 87130, Note_on_c, 9, 62, 20
1, 87162, Note_on_c, 1, 33, 0
1, 87166, Note_on_c, 0, 69, 0
1, 87174, Note_on_c, 9, 62, 0
1, 87226, Note_on_c, 9, 46, 0
1, 87230, Note_on_c, 1, 45, 0
1, 87254, Note_on_c, 9, 39, 38
1, 87258, Note_on_c, 1, 37, 72
1, 87258, Note_on_c, 9, 62, 78
1, 87262, Note_on_c, 9, 40, 0
1, 87294, Note_on_c, 9, 39, 0
1, 87302, Note_on_c, 9, 62, 0
1, 87314, Note_on_c, 9, 40, 57
1, 87322, Note_on_c, 0, 64, 60
1, 87338, Note_on_c, 1, 37, 0
1, 87370, Note_on_c, 0, 64, 0
1, 87386, Note_on_c, 1, 38, 67
1, 87398, Note_on_c, 0, 67, 94
1, 87418, Note_on_c, 0, 55, 54
1, 87438, Note_on_c, 0, 55, 0
1, 87442, Note_on_c, 0, 67, 0
1, 87514, Note_on_c, 9, 44, 63
1, 87522, Note_on_c, 0, 60, 73
1, 87554, Note_on_c, 0, 60, 0
1, 87594, Note_on_c, 0, 48, 55
1, 87610, Note_on_c, 9, 44, 0
1, 87642, Note_on_c, 1, 45, 47
1, 87642, Note_on_c, 9, 64, 35
1, 87646, Note_on_c, 0, 48, 0
1, 87650, Note_on_c, 9, 40, 0
1, 87654, Note_on_c, 9, 39, 31
1, 87662, Note_on_c, 0, 64, 77
1, 87666, Note_on_c, 0, 63, 47
1, 87666, Note_on_c, 0, 53, 68
1, 87670, Note_on_c, 0, 57, 66
1, 87674, Note_on_c, 0, 52, 65
1, 87678, Note_on_c, 0, 63, 0
1, 87682, Note_on_c, 9, 64, 0
1, 87682, Note_on_c, 9, 39, 0
1, 87682, Note_on_c, 1, 45, 0
1, 87706, Note_on_c, 1, 55, 94
1, 87706, Note_on_c, 9, 40, 47
1, 87758, Note_on_c, 0, 64, 0
1, 87758, Note_on_c, 0, 53, 0
1, 87762, Note_on_c, 0, 57, 0
1, 87766, Note_on_c, 0, 52, 0
1, 87790, Note_on_c, 0, 49, 56
1, 87874, Note_on_c, 0, 46, 60
1, 87886, Note_on_c, 0, 49, 0
1, 87890, Note_on_c, 1, 55, 0
1, 87898, Note_on_c, 1, 53, 81
1, 87898, Note_on_c, 9, 44, 64
1, 87898, Note_on_c, 9, 63, 23
1, 87918, Note_on_c, 1, 38, 0
1, 87934, Note_on_c, 0, 46, 0
1, 87938, Note_on_c, 9, 63, 0
1, 87938, Note_on_c, 0, 62, 63
1, 87938, Note_on_c, 0, 53, 60
1, 87938, Note_on_c, 0, 57, 57
1, 87942, Note_on_c, 0, 50, 57
1, 87994, Note_on_c, 9, 44, 0
1, 88026, Note_on_c, 9, 63, 45
1, 88038, Note_on_c, 9, 40, 0
1, 88074, Note_on_c, 9, 63, 0
1, 88078, Control_c, 0, 64, 127
1, 88090, Note_on_c, 9, 40, 56
1, 88110, Note_on_c, 0, 50, 0
1, 88158, Note_on_c, 0, 53, 0
1, 88182, Note_on_c, 0, 57, 0
1, 88218, Note_on_c, 1, 38, 54
1, 88234, Note_on_c, 0, 53, 52
1, 88238, Note_on_c, 0, 62, 0
1, 88238, Note_on_c, 0, 57, 48
1, 88242, Note_on_c, 0, 60, 49
1, 88250, Note_on_c, 1, 38, 0
1, 88250, Control_c, 0, 64, 0
1, 88258, Note_on_c, 1, 53, 0
1, 88282, Note_on_c, 1, 52, 82
1, 88282, Note_on_c, 9, 44, 67
1, 88290, Control_c, 0, 64, 127
1, 88306, Note_on_c, 0, 53, 0
1, 88334, Note_on_c, 0, 57, 0
1, 88354, Note_on_c, 0, 60, 0
1, 88366, Note_on_c, 9, 40, 0
1, 88378, Note_on_c, 9, 44, 0
1, 88410, Note_on_c, 9, 40, 64
1, 88426, Note_on_c, 0, 45, 68
1, 88438, Note_on_c, 9, 40, 0
1, 88470, Control_c, 0, 64, 0
1, 88474, Note_on_c, 9, 40, 48
1, 88602, Note_on_c, 1, 37, 59
1, 88610, Note_on_c, 0, 82, 74
1, 88618, Note_on_c, 0, 42, 43
1, 88634, Note_on_c, 0, 42, 0
1, 88634, Note_on_c, 1, 37, 0
1, 88642, Note_on_c, 0, 45, 0
1, 88654, Note_on_c, 1, 52, 0
1, 88662, Note_on_c, 0, 82, 0
1, 88666, Note_on_c, 1, 50, 80
1, 88666, Note_on_c, 9, 44, 67
1, 88666, Note_on_c, 9, 64, 42
1, 88682, Note_on_c, 0, 83, 49
1, 88698, Note_on_c, 1, 50, 0
1, 88730, Note_on_c, 0, 83, 0
1, 88730, Note_on_c, 1, 38, 80
1, 88746, Note_on_c, 0, 84, 66
1, 88754, Note_on_c, 9, 64, 0
1, 88762, Note_on_c, 1, 38, 0
1, 88762, Note_on_c, 9, 44, 0
1, 88790, Note_on_c, 9, 39, 42
1, 88794, Note_on_c, 9, 40, 0
1, 88794, Note_on_c, 0, 84, 0
1, 88794, Note_on_c, 1, 37, 79
1, 88794, Note_on_c, 9, 64, 43
1, 88810, Note_on_c, 0, 86, 77
1, 88822, Note_on_c, 9, 39, 0
1, 88834, Note_on_c, 1, 37, 0
1, 88850, Note_on_c, 9, 40, 60
1, 88858, Note_on_c, 1, 38, 87
1, 88866, Note_on_c, 0, 54, 45
1, 88866, Note_on_c, 0, 64, 36
1, 88874, Note_on_c, 0, 60, 37
1, 88882, Note_on_c, 0, 82, 54
1, 88902, Note_on_c, 9, 64, 0
1, 88910, Note_on_c, 0, 82, 0
1, 88934, Note_on_c, 0, 83, 29
1, 88954, Note_on_c, 0, 60, 0
1, 88954, Note_on_c, 0, 84, 29
1, 88982, Note_on_c, 0, 83, 0
1, 89002, Note_on_c, 0, 60, 36
1, 89026, Note_on_c, 0, 86, 0
1, 89050, Note_on_c, 9, 44, 67
1, 89050, Note_on_c, 9, 63, 69
1, 89054, Note_on_c, 0, 76, 60
1, 89106, Note_on_c, 0, 60, 0
1, 89142, Note_on_c, 9, 63, 0
1, 89146, Note_on_c, 9, 44, 0
1, 89178, Note_on_c, 9, 40, 0
1, 89178, Note_on_c, 1, 45, 52
1, 89178, Note_on_c, 9, 39, 31
1, 89186, Note_on_c, 0, 76, 0
1, 89186, Note_on_c, 0, 64, 0
1, 89194, Note_on_c, 0, 60, 31
1, 89202, Note_on_c, 0, 84, 0
1, 89206, Note_on_c, 9, 39, 0
1, 89210, Note_on_c, 1, 45, 0
1, 89214, Note_on_c, 0, 54, 0
1, 89218, Note_on_c, 0, 60, 0
1, 89230, Note_on_c, 9, 40, 61
1, 89242, Note_on_c, 1, 54, 86
1, 89250, Note_on_c, 0, 76, 49
1, 89254, Note_on_c, 0, 54, 48
1, 89266, Note_on_c, 0, 64, 28
1, 89266, Note_on_c, 0, 60, 29
1, 89302, Control_c, 0, 64, 72
1, 89302, Control_c, 0, 64, 127
1, 89330, Note_on_c, 0, 60, 0
1, 89334, Note_on_c, 0, 64, 0
1, 89342, Note_on_c, 0, 54, 0
1, 89346, Note_on_c, 0, 76, 0
1, 89434, Note_on_c, 9, 44, 70
1, 89530, Note_on_c, 9, 44, 0
1, 89558, Note_on_c, 9, 39, 29
1, 89562, Note_on_c, 9, 40, 0
1, 89562, Note_on_c, 1, 37, 42
1, 89582, Note_on_c, 1, 38, 0
1, 89582, Note_on_c, 0, 60, 54
1, 89590, Note_on_c, 0, 54, 26
1, 89594, Note_on_c, 0, 60, 0
1, 89594, Note_on_c, 9, 39, 0
1, 89594, Note_on_c, 1, 37, 0
1, 89594, Control_c, 0, 64, 0
1, 89602, Note_on_c, 1, 54, 0
1, 89606, Note_on_c, 0, 54, 0
1, 89614, Note_on_c, 9, 40, 60
1, 89626, Note_on_c, 1, 45, 77
1, 89638, Note_on_c, 0, 54, 66
1, 89638, Note_on_c, 0, 100, 69
1, 89638, Note_on_c, 0, 88, 68
1, 89638, Note_on_c, 0, 92, 61
1, 89642, Note_on_c, 0, 64, 68
1, 89646, Note_on_c, 0, 95, 57
1, 89646, Note_on_c, 0, 60, 57
1, 89658, Note_on_c, 0, 95, 0
1, 89662, Note_on_c, 0, 92, 0
1, 89662, Note_on_c, 0, 88, 0
1, 89670, Note_on_c, 0, 100, 0
1, 89670, Note_on_c, 0, 64, 0
1, 89690, Note_on_c, 0, 100, 43
1, 89690, Note_on_c, 0, 64, 48
1, 89690, Note_on_c, 0, 92, 55
1, 89694, Note_on_c, 0, 88, 51
1, 89698, Note_on_c, 0, 95, 66
1, 89722, Note_on_c, 0, 95, 0
1, 89726, Note_on_c, 0, 88, 0
1, 89730, Note_on_c, 0, 92, 0
1, 89730, Note_on_c, 0, 100, 0
1, 89730, Note_on_c, 0, 64, 0
1, 89738, Note_on_c, 0, 54, 0
1, 89742, Note_on_c, 0, 60, 0
1, 89814, Control_c, 0, 64, 127
1, 89818, Note_on_c, 0, 95, 57
1, 89818, Note_on_c, 9, 44, 62
1, 89818, Note_on_c, 9, 62, 71
1, 89822, Note_on_c, 0, 92, 34
1, 89826, Note_on_c, 0, 83, 48
1, 89826, Note_on_c, 0, 88, 52
1, 89826, Note_on_c, 0, 54, 62
1, 89826, Note_on_c, 0, 64, 61
1, 89830, Note_on_c, 0, 60, 57
1, 89842, Note_on_c, 0, 92, 0
1, 89862, Note_on_c, 0, 64, 0
1, 89862, Note_on_c, 0, 83, 0
1, 89862, Note_on_c, 9, 62, 0
1, 89866, Note_on_c, 0, 88, 0
1, 89866, Note_on_c, 0, 54, 0
1, 89870, Note_on_c, 0, 60, 0
1, 89890, Note_on_c, 0, 88, 46
1, 89890, Note_on_c, 0, 83, 28
1, 89902, Note_on_c, 0, 54, 48
1, 89902, Note_on_c, 0, 64, 41
1, 89914, Note_on_c, 0, 83, 0
1, 89914, Note_on_c, 9, 44, 0
1, 89914, Note_on_c, 0, 60, 25
1, 89922, Note_on_c, 0, 64, 0
1, 89922, Note_on_c, 0, 88, 0
1, 89922, Note_on_c, 0, 54, 0
1, 89922, Control_c, 0, 64, 0
1, 89934, Note_on_c, 0, 60, 0
1, 89938, Note_on_c, 0, 95, 0
1, 89938, Note_on_c, 9, 39, 39
1, 89946, Note_on_c, 1, 37, 44
1, 89950, Note_on_c, 9, 40, 0
1, 89978, Note_on_c, 1, 37, 0
1, 89982, Note_on_c, 9, 39, 0
1, 90002, Note_on_c, 1, 45, 0
1, 90006, Note_on_c, 9, 40, 44
1, 90010, Note_on_c, 1, 42, 56
1, 90022, Control_c, 0, 64, 127
1, 90038, Note_on_c, 0, 94, 39
1, 90050, Note_on_c, 1, 42, 0
1, 90054, Note_on_c, 0, 94, 0
1, 90134, Control_c, 0, 64, 0
1, 90138, Note_on_c, 1, 38, 48
1, 90146, Note_on_c, 0, 54, 85
1, 90150, Note_on_c, 0, 100, 94
1, 90150, Note_on_c, 0, 88, 89
1, 90150, Note_on_c, 0, 60, 75
1, 90150, Note_on_c, 0, 64, 80
1, 90150, Note_on_c, 0, 95, 87
1, 90170, Note_on_c, 1, 38, 0
1, 90178, Note_on_c, 0, 88, 0
1, 90182, Note_on_c, 0, 100, 0
1, 90182, Note_on_c, 0, 64, 0
1, 90186, Note_on_c, 0, 95, 0
1, 90194, Note_on_c, 0, 60, 0
1, 90194, Note_on_c, 0, 54, 0
1, 90202, Note_on_c, 1, 32, 65
1, 90202, Note_on_c, 9, 44, 59
1, 90202, Note_on_c, 9, 64, 50
1, 90210, Control_c, 0, 64, 127
1, 90214, Note_on_c, 0, 100, 72
1, 90214, Note_on_c, 0, 95, 75
1, 90218, Note_on_c, 0, 54, 76
1, 90222, Note_on_c, 0, 64, 57
1, 90222, Note_on_c, 0, 88, 52
1, 90226, Note_on_c, 0, 60, 63
1, 90238, Note_on_c, 0, 60, 0
1, 90238, Note_on_c, 0, 88, 0
1, 90246, Note_on_c, 0, 95, 0
1, 90246, Note_on_c, 0, 64, 0
1, 90246, Note_on_c, 0, 100, 0
1, 90254, Note_on_c, 0, 54, 0
1, 90278, Note_on_c, 0, 100, 61
1, 90282, Note_on_c, 0, 95, 58
1, 90282, Note_on_c, 0, 88, 58
1, 90286, Note_on_c, 0, 54, 55
1, 90286, Note_on_c, 0, 64, 55
1, 90290, Note_on_c, 0, 60, 31
1, 90298, Note_on_c, 0, 54, 0
1, 90298, Note_on_c, 0, 88, 0
1, 90298, Note_on_c, 9, 44, 0
1, 90298, Note_on_c, 0, 100, 0
1, 90302, Note_on_c, 0, 64, 0
1, 90302, Note_on_c, 0, 95, 0
1, 90310, Note_on_c, 0, 60, 0
1, 90318, Note_on_c, 9, 64, 0
1, 90326, Note_on_c, 9, 39, 39
1, 90330, Note_on_c, 9, 64, 84
1, 90338, Note_on_c, 9, 40, 0
1, 90338, Note_on_c, 0, 95, 75
1, 90338, Note_on_c, 0, 100, 74
1, 90338, Note_on_c, 0, 64, 63
1, 90338, Note_on_c, 0, 88, 68
1, 90338, Note_on_c, 0, 54, 63
1, 90350, Note_on_c, 0, 60, 45
1, 90354, Note_on_c, 0, 64, 0
1, 90354, Note_on_c, 0, 58, 39
1, 90358, Note_on_c, 0, 88, 0
1, 90362, Note_on_c, 0, 60, 0
1, 90366, Control_c, 0, 64, 0
1, 90370, Note_on_c, 0, 95, 0
1, 90370, Note_on_c, 0, 100, 0
1, 90374, Note_on_c, 0, 58, 0
1, 90378, Note_on_c, 9, 39, 0
1, 90378, Note_on_c, 0, 54, 0
1, 90390, Note_on_c, 1, 32, 0
1, 90394, Note_on_c, 1, 31, 67
1, 90394, Note_on_c, 9, 40, 40
1, 90398, Note_on_c, 9, 59, 45
1, 90406, Note_on_c, 0, 62, 83
1, 90406, Note_on_c, 0, 101, 87
1, 90406, Note_on_c, 0, 96, 85
1, 90406, Note_on_c, 0, 58, 54
1, 90406, Note_on_c, 0, 89, 80
1, 90406, Note_on_c, 0, 53, 68
1, 90406, Note_on_c, 0, 57, 69
1, 90410, Note_on_c, 9, 64, 0
1, 90426, Note_on_c, 0, 101, 0
1, 90430, Control_c, 0, 64, 127
1, 90434, Note_on_c, 9, 59, 0
1, 90446, Note_on_c, 0, 62, 0
1, 90450, Note_on_c, 0, 89, 0
1, 90454, Note_on_c, 0, 96, 0
1, 90454, Note_on_c, 0, 58, 0
1, 90454, Note_on_c, 0, 57, 0
1, 90458, Note_on_c, 0, 53, 0
1, 90474, Note_on_c, 0, 96, 64
1, 90474, Note_on_c, 0, 89, 68
1, 90478, Note_on_c, 0, 62, 61
1, 90478, Note_on_c, 0, 53, 31
1, 90482, Note_on_c, 0, 58, 56
1, 90486, Note_on_c, 0, 57, 41
1, 90502, Note_on_c, 0, 57, 0
1, 90502, Note_on_c, 0, 58, 0
1, 90502, Note_on_c, 0, 89, 0
1, 90502, Note_on_c, 0, 53, 0
1, 90506, Note_on_c, 0, 96, 0
1, 90506, Note_on_c, 0, 62, 0
1, 90514, Control_c, 0, 64, 0
1, 90522, Note_on_c, 9, 63, 36
1, 90542, Note_on_c, 0, 62, 75
1, 90542, Note_on_c, 0, 57, 63
1, 90542, Note_on_c, 0, 100, 60
1, 90542, Note_on_c, 0, 98, 69
1, 90542, Note_on_c, 0, 53, 55
1, 90542, Note_on_c, 0, 58, 60
1, 90546, Note_on_c, 0, 88, 57
1, 90546, Note_on_c, 0, 95, 42
1, 90558, Note_on_c, 0, 93, 37
1, 90562, Note_on_c, 0, 53, 0
1, 90566, Note_on_c, 9, 63, 0
1, 90570, Note_on_c, 0, 62, 0
1, 90570, Note_on_c, 0, 88, 0
1, 90574, Note_on_c, 0, 95, 0
1, 90574, Note_on_c, 0, 93, 0
1, 90574, Note_on_c, 0, 100, 0
1, 90578, Note_on_c, 0, 57, 0
1, 90582, Note_on_c, 0, 98, 0
1, 90586, Note_on_c, 0, 58, 0
1, 90586, Note_on_c, 9, 44, 59
1, 90586, Note_on_c, 9, 62, 24
1, 90606, Note_on_c, 0, 98, 57
1, 90606, Note_on_c, 0, 62, 49
1, 90606, Note_on_c, 0, 86, 51
1, 90610, Note_on_c, 0, 93, 49
1, 90614, Note_on_c, 0, 57, 24
1, 90614, Note_on_c, 0, 58, 40
1, 90618, Note_on_c, 0, 53, 19
1, 90626, Note_on_c, 0, 86, 0
1, 90634, Note_on_c, 0, 53, 0
1, 90634, Note_on_c, 0, 93, 0
1, 90634, Note_on_c, 0, 57, 0
1, 90634, Note_on_c, 0, 62, 0
1, 90638, Note_on_c, 0, 58, 0
1, 90638, Note_on_c, 0, 98, 0
1, 90674, Note_on_c, 0, 101, 85
1, 90674, Note_on_c, 0, 89, 77
1, 90674, Note_on_c, 0, 62, 75
1, 90674, Note_on_c, 0, 96, 77
1, 90678, Note_on_c, 0, 57, 63
1, 90678, Note_on_c, 0, 58, 64
1, 90682, Note_on_c, 9, 44, 0
1, 90686, Note_on_c, 0, 53, 48
1, 90694, Note_on_c, 9, 39, 36
1, 90698, Note_on_c, 0, 53, 0
1, 90702, Note_on_c, 0, 101, 0
1, 90702, Note_on_c, 9, 62, 0
1, 90702, Note_on_c, 0, 62, 0
1, 90702, Note_on_c, 9, 40, 0
1, 90702, Note_on_c, 0, 89, 0
1, 90706, Note_on_c, 0, 57, 0
1, 90706, Note_on_c, 0, 96, 0
1, 90714, Note_on_c, 9, 62, 77
1, 90718, Note_on_c, 0, 58, 0
1, 90734, Note_on_c, 0, 101, 72
1, 90738, Note_on_c, 9, 39, 0
1, 90738, Note_on_c, 0, 96, 73
1, 90738, Note_on_c, 0, 89, 66
1, 90742, Note_on_c, 0, 62, 57
1, 90746, Note_on_c, 0, 58, 57
1, 90750, Note_on_c, 0, 57, 48
1, 90754, Note_on_c, 0, 53, 31
1, 90762, Note_on_c, 0, 57, 0
1, 90762, Note_on_c, 9, 62, 0
1, 90762, Note_on_c, 0, 101, 0
1, 90766, Note_on_c, 0, 96, 0
1, 90766, Note_on_c, 9, 40, 63
1, 90770, Note_on_c, 0, 62, 0
1, 90770, Note_on_c, 0, 53, 0
1, 90770, Note_on_c, 0, 89, 0
1, 90770, Note_on_c, 0, 58, 0
1, 90778, Note_on_c, 1, 34, 65
1, 90798, Note_on_c, 1, 31, 0
1, 90802, Note_on_c, 0, 62, 61
1, 90802, Note_on_c, 0, 98, 70
1, 90806, Note_on_c, 0, 93, 66
1, 90806, Note_on_c, 0, 58, 66
1, 90810, Note_on_c, 0, 57, 49
1, 90810, Note_on_c, 0, 86, 54
1, 90810, Note_on_c, 0, 53, 44
1, 90826, Note_on_c, 0, 53, 0
1, 90826, Note_on_c, 0, 86, 0
1, 90826, Note_on_c, 0, 57, 0
1, 90826, Note_on_c, 0, 93, 0
1, 90842, Note_on_c, 0, 98, 0
1, 90842, Note_on_c, 0, 62, 0
1, 90842, Note_on_c, 0, 58, 0
1, 90870, Note_on_c, 0, 98, 65
1, 90870, Note_on_c, 0, 86, 52
1, 90874, Note_on_c, 0, 93, 65
1, 90878, Note_on_c, 0, 62, 56
1, 90886, Note_on_c, 0, 86, 0
1, 90886, Note_on_c, 0, 58, 43
1, 90894, Note_on_c, 0, 57, 29
1, 90898, Note_on_c, 0, 98, 0
1, 90898, Note_on_c, 0, 62, 0
1, 90902, Note_on_c, 0, 93, 0
1, 90902, Note_on_c, 0, 58, 0
1, 90914, Note_on_c, 0, 57, 0
1, 90930, Note_on_c, 0, 62, 81
1, 90930, Note_on_c, 0, 96, 89
1, 90930, Note_on_c, 0, 53, 71
1, 90930, Note_on_c, 0, 101, 92
1, 90930, Note_on_c, 0, 58, 66
1, 90930, Note_on_c, 0, 89, 76
1, 90938, Note_on_c, 0, 57, 72
1, 90946, Note_on_c, 0, 91, 43
1, 90962, Note_on_c, 0, 91, 0
1, 90970, Note_on_c, 9, 44, 64
1, 90970, Note_on_c, 9, 64, 38
1, 90994, Control_c, 0, 64, 127
1, 91054, Note_on_c, 0, 58, 0
1, 91066, Note_on_c, 9, 64, 0
1, 91066, Note_on_c, 9, 44, 0
1, 91094, Note_on_c, 0, 96, 0
1, 91094, Note_on_c, 9, 39, 36
1, 91098, Note_on_c, 1, 35, 63
1, 91098, Note_on_c, 9, 64, 68
1, 91102, Note_on_c, 0, 89, 0
1, 91102, Note_on_c, 1, 34, 0
1, 91102, Note_on_c, 9, 40, 0
1, 91102, Note_on_c, 0, 58, 40
1, 91106, Note_on_c, 0, 53, 0
1, 91110, Note_on_c, 0, 57, 0
1, 91110, Note_on_c, 0, 101, 0
1, 91110, Note_on_c, 0, 62, 0
1, 91126, Note_on_c, 0, 58, 0
1, 91134, Note_on_c, 9, 64, 0
1, 91138, Note_on_c, 9, 39, 0
1, 91150, Note_on_c, 9, 59, 43
1, 91162, Control_c, 0, 64, 0
1, 91162, Note_on_c, 1, 36, 70
1, 91162, Note_on_c, 9, 40, 44
1, 91166, Note_on_c, 9, 59, 0
1, 91174, Note_on_c, 1, 35, 0
1, 91178, Note_on_c, 0, 102, 88
1, 91178, Note_on_c, 0, 90, 85
1, 91182, Note_on_c, 0, 63, 88
1, 91182, Note_on_c, 0, 97, 81
1, 91186, Note_on_c, 0, 58, 70
1, 91186, Note_on_c, 0, 52, 72
1, 91334, Control_c, 0, 64, 127
1, 91354, Note_on_c, 1, 48, 85
1, 91354, Note_on_c, 9, 44, 62
1, 91354, Note_on_c, 9, 62, 30
1, 91374, Note_on_c, 1, 36, 0
1, 91394, Note_on_c, 0, 63, 0
1, 91418, Note_on_c, 0, 52, 0
1, 91438, Note_on_c, 0, 58, 0
1, 91450, Note_on_c, 9, 44, 0
1, 91450, Note_on_c, 9, 62, 0
1, 91470, Note_on_c, 0, 90, 0
1, 91474, Note_on_c, 0, 97, 0
1, 91482, Note_on_c, 9, 39, 28
1, 91482, Note_on_c, 9, 62, 51
1, 91486, Note_on_c, 9, 40, 0
1, 91490, Note_on_c, 0, 102, 0
1, 91514, Note_on_c, 9, 62, 0
1, 91526, Note_on_c, 9, 39, 0
1, 91530, Control_c, 0, 64, 0
1, 91538, Note_on_c, 9, 40, 61
1, 91550, Note_on_c, 0, 63, 72
1, 91554, Note_on_c, 0, 104, 83
1, 91554, Note_on_c, 0, 58, 63
1, 91554, Note_on_c, 0, 92, 80
1, 91558, Note_on_c, 0, 52, 62
1, 91562, Note_on_c, 0, 99, 69
1, 91650, Note_on_c, 0, 52, 0
1, 91654, Note_on_c, 0, 58, 0
1, 91658, Note_on_c, 0, 63, 0
1, 91658, Note_on_c, 0, 92, 0
1, 91662, Note_on_c, 0, 104, 0
1, 91666, Note_on_c, 0, 99, 0
1, 91674, Note_on_c, 1, 35, 55
1, 91714, Note_on_c, 1, 48, 0
1, 91718, Note_on_c, 1, 35, 0
1, 91734, Control_c, 0, 64, 127
1, 91738, Note_on_c, 1, 42, 64
1, 91738, Note_on_c, 9, 44, 77
1, 91742, Note_on_c, 0, 104, 71
1, 91742, Note_on_c, 0, 92, 63
1, 91742, Note_on_c, 0, 63, 65
1, 91746, Note_on_c, 0, 99, 63
1, 91746, Note_on_c, 0, 58, 56
1, 91750, Note_on_c, 0, 52, 54
1, 91798, Note_on_c, 0, 52, 0
1, 91822, Note_on_c, 0, 58, 0
1, 91822, Note_on_c, 0, 63, 0
1, 91830, Note_on_c, 0, 92, 0
1, 91834, Note_on_c, 0, 99, 0
1, 91842, Note_on_c, 0, 104, 0
1, 91862, Note_on_c, 9, 44, 0
1, 91866, Note_on_c, 9, 40, 0
1, 91866, Control_c, 0, 64, 0
1, 91866, Note_on_c, 9, 39, 34
1, 91886, Note_on_c, 0, 64, 81
1, 91886, Note_on_c, 0, 105, 74
1, 91886, Note_on_c, 0, 100, 77
1, 91886, Note_on_c, 0, 93, 75
1, 91886, Note_on_c, 0, 60, 68
1, 91890, Note_on_c, 0, 53, 63
1, 91894, Note_on_c, 0, 57, 68
1, 91902, Note_on_c, 9, 39, 0
1, 91918, Note_on_c, 1, 42, 0
1, 91918, Control_c, 0, 64, 127
1, 91922, Note_on_c, 9, 40, 57
1, 91930, Note_on_c, 1, 41, 77
1, 92122, Note_on_c, 0, 60, 0
1, 92122, Note_on_c, 9, 44, 64
1, 92126, Note_on_c, 0, 57, 0
1, 92126, Note_on_c, 0, 64, 0
1, 92174, Note_on_c, 0, 53, 0
1, 92186, Note_on_c, 0, 93, 0
1, 92194, Note_on_c, 0, 105, 0
1, 92202, Note_on_c, 0, 100, 0
1, 92218, Note_on_c, 9, 44, 0
1, 92250, Note_on_c, 0, 64, 83
1, 92250, Note_on_c, 0, 60, 78
1, 92250, Note_on_c, 1, 34, 47
1, 92250, Note_on_c, 9, 39, 38
1, 92254, Note_on_c, 9, 40, 0
1, 92254, Note_on_c, 0, 53, 75
1, 92258, Note_on_c, 0, 57, 66
1, 92262, Note_on_c, 0, 62, 49
1, 92278, Note_on_c, 0, 62, 0
1, 92282, Note_on_c, 9, 39, 0
1, 92286, Note_on_c, 1, 34, 0
1, 92306, Note_on_c, 9, 40, 58
1, 92314, Note_on_c, 1, 36, 77
1, 92358, Note_on_c, 0, 64, 0
1, 92382, Note_on_c, 0, 57, 0
1, 92386, Note_on_c, 0, 60, 0
1, 92430, Note_on_c, 0, 53, 0
1, 92506, Note_on_c, 9, 44, 62
1, 92566, Note_on_c, 1, 41, 0
1, 92570, Note_on_c, 1, 36, 0
1, 92570, Note_on_c, 1, 34, 65
1, 92602, Note_on_c, 9, 44, 0
1, 92610, Note_on_c, 1, 34, 0
1, 92634, Note_on_c, 9, 40, 0
1, 92634, Note_on_c, 1, 33, 49
1, 92634, Note_on_c, 9, 39, 25
1, 92634, Note_on_c, 9, 34, 50
1, 92658, Note_on_c, 9, 39, 0
1, 92666, Note_on_c, 9, 34, 0
1, 92666, Note_on_c, 1, 33, 0
1, 92686, Note_on_c, 9, 40, 74
1, 92698, Note_on_c, 1, 32, 73
1, 92826, Note_on_c, 0, 44, 111
1, 92830, Note_on_c, 0, 32, 85
1, 92846, Note_on_c, 0, 34, 31
1, 92846, Control_c, 0, 64, 0
1, 92866, Note_on_c, 0, 34, 0
1, 92874, Note_on_c, 0, 32, 0
1, 92890, Note_on_c, 9, 44, 67
1, 92918, Note_on_c, 0, 53, 63
1, 92954, Control_c, 0, 64, 127
1, 92958, Note_on_c, 0, 53, 0
1, 92958, Note_on_c, 0, 54, 55
1, 92986, Note_on_c, 9, 44, 0
1, 92990, Note_on_c, 0, 56, 55
1, 93014, Note_on_c, 0, 54, 0
1, 93014, Note_on_c, 9, 39, 45
1, 93018, Note_on_c, 1, 36, 66
1, 93018, Note_on_c, 9, 34, 43
1, 93022, Note_on_c, 9, 40, 0
1, 93022, Note_on_c, 0, 58, 61
1, 93038, Note_on_c, 0, 58, 0
1, 93038, Note_on_c, 0, 56, 0
1, 93050, Note_on_c, 1, 36, 0
1, 93050, Note_on_c, 1, 32, 0
1, 93050, Note_on_c, 9, 34, 0
1, 93054, Note_on_c, 9, 39, 0
1, 93054, Note_on_c, 0, 60, 68
1, 93074, Note_on_c, 0, 60, 0
1, 93078, Note_on_c, 9, 40, 78
1, 93082, Note_on_c, 1, 48, 97
1, 93086, Note_on_c, 0, 44, 0
1, 93090, Note_on_c, 0, 61, 56
1, 93118, Note_on_c, 0, 63, 60
1, 93126, Note_on_c, 0, 61, 0
1, 93146, Note_on_c, 0, 63, 0
1, 93162, Note_on_c, 0, 65, 77
1, 93194, Note_on_c, 0, 65, 0
1, 93194, Note_on_c, 0, 66, 64
1, 93210, Note_on_c, 1, 48, 0
1, 93210, Note_on_c, 1, 35, 73
1, 93222, Note_on_c, 0, 68, 59
1, 93242, Note_on_c, 1, 35, 0
1, 93246, Note_on_c, 0, 66, 0
1, 93250, Note_on_c, 0, 70, 58
1, 93258, Note_on_c, 0, 68, 0
1, 93262, Note_on_c, 0, 70, 0
1, 93274, Note_on_c, 1, 35, 70
1, 93274, Note_on_c, 9, 46, 57
1, 93282, Note_on_c, 0, 72, 78
1, 93314, Note_on_c, 0, 72, 0
1, 93314, Note_on_c, 0, 73, 65
1, 93338, Note_on_c, 9, 33, 62
1, 93350, Note_on_c, 0, 73, 0
1, 93370, Note_on_c, 9, 46, 0
1, 93370, Note_on_c, 0, 75, 60
1, 93378, Note_on_c, 9, 33, 0
1, 93394, Note_on_c, 1, 35, 0
1, 93402, Note_on_c, 0, 76, 78
1, 93402, Note_on_c, 1, 36, 83
1, 93402, Note_on_c, 9, 34, 72
1, 93402, Note_on_c, 9, 34, 37
1, 93406, Note_on_c, 0, 75, 0
1, 93410, Note_on_c, 9, 25, 37
1, 93434, Note_on_c, 0, 76, 0
1, 93434, Note_on_c, 9, 39, 67
1, 93438, Note_on_c, 0, 77, 83
1, 93442, Note_on_c, 9, 34, 0
1, 93442, Note_on_c, 9, 40, 0
1, 93442, Note_on_c, 9, 25, 0
1, 93446, Note_on_c, 1, 36, 0
1, 93446, Control_c, 0, 64, 0
1, 93450, Note_on_c, 9, 34, 0
1, 93450, Note_on_c, 0, 63, 89
1, 93458, Note_on_c, 9, 39, 0
1, 93458, Note_on_c, 0, 56, 72
1, 93462, Note_on_c, 0, 53, 72
1, 93466, Note_on_c, 1, 37, 77
1, 93466, Note_on_c, 9, 35, 54
1, 93466, Note_on_c, 9, 69, 70
1, 93468, Note_on_c, 9, 35, 40
1, 93474, Note_on_c, 0, 59, 42
1, 93474, Note_on_c, 9, 57, 22
1, 93474, Note_on_c, 9, 51, 80
1, 93482, Note_on_c, 9, 69, 0
1, 93494, Note_on_c, 0, 72, 86
1, 93496, Note_on_c, 9, 35, 0
1, 93530, Note_on_c, 0, 59, 0
1, 93570, Note_on_c, 9, 35, 0
1, 93614, Note_on_c, 0, 60, 54
1, 93630, Note_on_c, 0, 63, 0
1, 93646, Note_on_c, 0, 72, 0
1, 93658, Note_on_c, 0, 68, 75
1, 93658, Note_on_c, 1, 41, 76
1, 93658, Note_on_c, 9, 44, 58
1, 93662, Control_c, 0, 64, 127
1, 93674, Note_on_c, 1, 37, 0
1, 93690, Note_on_c, 9, 51, 0
1, 93702, Note_on_c, 0, 60, 0
1, 93706, Note_on_c, 9, 51, 37
1, 93710, Note_on_c, 9, 57, 0
1, 93730, Note_on_c, 0, 77, 0
1, 93734, Note_on_c, 0, 56, 0
1, 93750, Note_on_c, 9, 51, 0
1, 93754, Note_on_c, 0, 68, 0
1, 93754, Note_on_c, 9, 44, 0
1, 93786, Note_on_c, 1, 37, 51
1, 93786, Note_on_c, 9, 35, 52
1, 93806, Note_on_c, 0, 65, 67
1, 93810, Note_on_c, 0, 63, 55
1, 93810, Note_on_c, 0, 60, 49
1, 93810, Note_on_c, 0, 56, 1
1, 93818, Note_on_c, 9, 35, 0
1, 93818, Note_on_c, 1, 37, 0
1, 93818, Control_c, 0, 64, 0
1, 93822, Note_on_c, 0, 63, 0
1, 93826, Note_on_c, 1, 41, 0
1, 93826, Note_on_c, 0, 65, 0
1, 93826, Note_on_c, 0, 60, 0
1, 93830, Note_on_c, 0, 53, 0
1, 93850, Note_on_c, 1, 49, 68
1, 93850, Note_on_c, 9, 51, 64
1, 93866, Note_on_c, 0, 68, 78
1, 93866, Control_c, 0, 64, 127
1, 93882, Note_on_c, 0, 60, 28
1, 93922, Note_on_c, 0, 56, 0
1, 93926, Note_on_c, 0, 60, 0
1, 93966, Note_on_c, 0, 68, 0
1, 93978, Note_on_c, 9, 51, 0
1, 93978, Note_on_c, 1, 37, 42
1, 93990, Note_on_c, 0, 63, 80
1, 93994, Note_on_c, 0, 68, 82
1, 93994, Note_on_c, 0, 60, 62
1, 93994, Note_on_c, 0, 72, 71
1, 93998, Note_on_c, 0, 53, 50
1, 93998, Note_on_c, 0, 65, 66
1, 94002, Note_on_c, 0, 56, 45
1, 94018, Note_on_c, 1, 37, 0
1, 94018, Note_on_c, 1, 49, 0
1, 94030, Note_on_c, 0, 65, 0
1, 94034, Note_on_c, 0, 53, 0
1, 94034, Note_on_c, 9, 51, 94
1, 94042, Note_on_c, 1, 48, 62
1, 94042, Note_on_c, 9, 44, 67
1, 94046, Note_on_c, 0, 60, 0
1, 94054, Note_on_c, 0, 63, 0
1, 94058, Note_on_c, 0, 72, 0
1, 94058, Note_on_c, 0, 56, 0
1, 94058, Note_on_c, 0, 68, 0
1, 94138, Note_on_c, 9, 44, 0
1, 94150, Note_on_c, 9, 51, 0
1, 94170, Note_on_c, 1, 37, 44
1, 94170, Note_on_c, 9, 35, 23
1, 94174, Control_c, 0, 64, 0
1, 94174, Note_on_c, 9, 51, 52
1, 94178, Note_on_c, 0, 87, 98
1, 94178, Note_on_c, 0, 65, 117
1, 94178, Note_on_c, 0, 75, 111
1, 94178, Note_on_c, 0, 82, 98
1, 94178, Note_on_c, 0, 56, 85
1, 94178, Note_on_c, 0, 60, 84
1, 94182, Note_on_c, 0, 61, 76
1, 94202, Note_on_c, 9, 51, 0
1, 94202, Note_on_c, 9, 35, 0
1, 94202, Note_on_c, 1, 37, 0
1, 94226, Note_on_c, 9, 51, 77
1, 94230, Note_on_c, 1, 48, 0
1, 94234, Note_on_c, 1, 46, 52
1, 94234, Note_on_c, 9, 35, 33
1, 94250, Control_c, 0, 64, 127
1, 94290, Note_on_c, 9, 35, 0
1, 94326, Note_on_c, 0, 56, 0
1, 94326, Note_on_c, 0, 87, 0
1, 94330, Note_on_c, 0, 75, 0
1, 94334, Note_on_c, 0, 65, 0
1, 94338, Note_on_c, 0, 61, 0
1, 94338, Note_on_c, 0, 60, 0
1, 94346, Note_on_c, 0, 82, 0
1, 94374, Note_on_c, 0, 87, 82
1, 94378, Note_on_c, 0, 75, 81
1, 94378, Note_on_c, 0, 65, 79
1, 94378, Note_on_c, 0, 82, 72
1, 94382, Note_on_c, 9, 51, 0
1, 94382, Note_on_c, 0, 56, 68
1, 94382, Note_on_c, 0, 61, 60
1, 94382, Note_on_c, 0, 60, 58
1, 94402, Note_on_c, 0, 60, 0
1, 94402, Note_on_c, 0, 75, 0
1, 94402, Note_on_c, 0, 87, 0
1, 94410, Note_on_c, 0, 65, 0
1, 94410, Note_on_c, 0, 56, 0
1, 94422, Note_on_c, 0, 82, 0
1, 94422, Control_c, 0, 64, 0
1, 94422, Note_on_c, 9, 51, 78
1, 94426, Note_on_c, 1, 41, 69
1, 94426, Note_on_c, 9, 44, 68
1, 94434, Note_on_c, 0, 61, 0
1, 94434, Note_on_c, 1, 46, 0
1, 94442, Note_on_c, 0, 56, 38
1, 94446, Note_on_c, 0, 65, 64
1, 94450, Note_on_c, 0, 61, 39
1, 94450, Note_on_c, 0, 85, 57
1, 94454, Note_on_c, 0, 60, 45
1, 94454, Note_on_c, 0, 73, 46
1, 94470, Note_on_c, 0, 80, 57
1, 94474, Control_c, 0, 64, 127
1, 94522, Note_on_c, 9, 44, 0
1, 94526, Note_on_c, 0, 80, 0
1, 94530, Note_on_c, 0, 56, 0
1, 94530, Note_on_c, 0, 65, 0
1, 94530, Note_on_c, 0, 73, 0
1, 94534, Note_on_c, 0, 85, 0
1, 94538, Note_on_c, 0, 61, 0
1, 94542, Note_on_c, 0, 60, 0
1, 94554, Note_on_c, 1, 34, 42
1, 94562, Note_on_c, 0, 85, 66
1, 94566, Note_on_c, 0, 73, 68
1, 94570, Note_on_c, 0, 65, 72
1, 94574, Note_on_c, 0, 61, 58
1, 94574, Note_on_c, 0, 80, 60
1, 94574, Note_on_c, 0, 60, 60
1, 94578, Note_on_c, 0, 56, 54
1, 94590, Note_on_c, 0, 60, 0
1, 94590, Note_on_c, 0, 80, 0
1, 94594, Note_on_c, 9, 51, 0
1, 94594, Control_c, 0, 64, 0
1, 94602, Note_on_c, 1, 34, 0
1, 94610, Note_on_c, 0, 85, 0
1, 94610, Note_on_c, 0, 56, 0
1, 94614, Note_on_c, 0, 65, 0
1, 94618, Note_on_c, 0, 73, 0
1, 94618, Note_on_c, 1, 37, 68
1, 94622, Note_on_c, 9, 51, 69
1, 94638, Note_on_c, 0, 65, 54
1, 94642, Note_on_c, 0, 56, 31
1, 94642, Control_c, 0, 64, 127
1, 94646, Note_on_c, 0, 84, 47
1, 94650, Note_on_c, 0, 72, 37
1, 94654, Note_on_c, 0, 60, 41
1, 94654, Note_on_c, 0, 79, 47
1, 94682, Note_on_c, 9, 34, 54
1, 94702, Note_on_c, 0, 79, 0
1, 94702, Note_on_c, 0, 84, 0
1, 94706, Note_on_c, 0, 72, 0
1, 94706, Note_on_c, 0, 56, 0
1, 94710, Note_on_c, 0, 65, 0
1, 94714, Note_on_c, 0, 61, 0
1, 94714, Note_on_c, 9, 34, 0
1, 94718, Note_on_c, 0, 60, 0
1, 94746, Note_on_c, 9, 34, 77
1, 94750, Note_on_c, 0, 84, 58
1, 94754, Note_on_c, 0, 72, 51
1, 94758, Note_on_c, 1, 41, 0
1, 94758, Note_on_c, 0, 79, 72
1, 94766, Note_on_c, 0, 65, 74
1, 94766, Note_on_c, 0, 60, 57
1, 94766, Note_on_c, 0, 61, 60
1, 94770, Note_on_c, 0, 56, 44
1, 94774, Note_on_c, 0, 84, 0
1, 94778, Note_on_c, 9, 51, 0
1, 94778, Note_on_c, 9, 34, 0
1, 94778, Note_on_c, 0, 65, 0
1, 94782, Note_on_c, 0, 60, 0
1, 94782, Note_on_c, 0, 72, 0
1, 94786, Note_on_c, 0, 56, 0
1, 94790, Control_c, 0, 64, 0
1, 94794, Note_on_c, 0, 79, 0
1, 94810, Note_on_c, 0, 61, 0
1, 94810, Control_c, 0, 64, 127
1, 94810, Note_on_c, 1, 40, 90
1, 94810, Note_on_c, 9, 44, 67
1, 94810, Note_on_c, 9, 59, 76
1, 94810, Note_on_c, 9, 51, 59
1, 94810, Note_on_c, 9, 35, 36
1, 94822, Note_on_c, 1, 37, 0
1, 94830, Note_on_c, 0, 65, 55
1, 94830, Note_on_c, 0, 82, 54
1, 94830, Note_on_c, 0, 70, 53
1, 94834, Note_on_c, 0, 61, 47
1, 94834, Note_on_c, 0, 56, 42
1, 94842, Note_on_c, 0, 60, 32
1, 94862, Note_on_c, 0, 60, 0
1, 94862, Note_on_c, 0, 70, 0
1, 94874, Note_on_c, 0, 82, 0
1, 94874, Note_on_c, 0, 65, 0
1, 94898, Note_on_c, 0, 61, 0
1, 94898, Note_on_c, 0, 56, 0
1, 94898, Note_on_c, 9, 35, 0
1, 94906, Note_on_c, 9, 44, 0
1, 94938, Note_on_c, 1, 34, 54
1, 94942, Control_c, 0, 64, 0
1, 94946, Note_on_c, 0, 82, 96
1, 94946, Note_on_c, 0, 77, 102
1, 94946, Note_on_c, 0, 89, 84
1, 94946, Note_on_c, 0, 65, 111
1, 94946, Note_on_c, 0, 54, 84
1, 94946, Note_on_c, 0, 58, 82
1, 94946, Note_on_c, 0, 88, 79
1, 94946, Note_on_c, 0, 61, 80
1, 94950, Note_on_c, 9, 59, 0
1, 94950, Note_on_c, 9, 51, 0
1, 94958, Note_on_c, 0, 85, 41
1, 94966, Note_on_c, 0, 88, 0
1, 94974, Note_on_c, 1, 34, 0
1, 94974, Note_on_c, 0, 58, 0
1, 94982, Note_on_c, 0, 85, 0
1, 94982, Note_on_c, 1, 40, 0
1, 94998, Note_on_c, 0, 85, 23
1, 95002, Note_on_c, 1, 39, 70
1, 95002, Note_on_c, 9, 51, 57
1, 95010, Control_c, 0, 64, 127
1, 95086, Note_on_c, 0, 82, 0
1, 95086, Note_on_c, 0, 77, 0
1, 95094, Note_on_c, 0, 65, 0
1, 95094, Note_on_c, 0, 54, 0
1, 95098, Note_on_c, 0, 89, 0
1, 95106, Note_on_c, 0, 85, 0
1, 95110, Note_on_c, 0, 61, 0
1, 95130, Note_on_c, 0, 89, 75
1, 95138, Note_on_c, 0, 85, 68
1, 95138, Note_on_c, 0, 82, 76
1, 95138, Note_on_c, 0, 77, 75
1, 95138, Note_on_c, 0, 65, 80
1, 95142, Note_on_c, 0, 61, 57
1, 95142, Note_on_c, 0, 58, 68
1, 95146, Note_on_c, 0, 54, 63
1, 95146, Note_on_c, 0, 88, 40
1, 95158, Note_on_c, 9, 51, 0
1, 95162, Note_on_c, 0, 88, 0
1, 95170, Note_on_c, 0, 77, 0
1, 95170, Note_on_c, 0, 89, 0
1, 95178, Note_on_c, 0, 65, 0
1, 95190, Note_on_c, 0, 82, 0
1, 95190, Note_on_c, 0, 54, 0
1, 95194, Note_on_c, 0, 61, 0
1, 95194, Note_on_c, 0, 58, 0
1, 95194, Note_on_c, 1, 39, 0
1, 95194, Note_on_c, 0, 85, 0
1, 95194, Note_on_c, 1, 34, 67
1, 95194, Note_on_c, 9, 44, 71
1, 95194, Note_on_c, 9, 51, 59
1, 95198, Control_c, 0, 64, 0
1, 95218, Note_on_c, 0, 54, 30
1, 95222, Note_on_c, 0, 58, 38
1, 95222, Note_on_c, 0, 65, 53
1, 95222, Note_on_c, 0, 87, 53
1, 95222, Note_on_c, 0, 82, 53
1, 95222, Note_on_c, 0, 75, 42
1, 95226, Note_on_c, 0, 61, 54
1, 95230, Control_c, 0, 64, 127
1, 95282, Note_on_c, 0, 65, 0
1, 95286, Note_on_c, 0, 82, 0
1, 95286, Note_on_c, 9, 51, 0
1, 95286, Note_on_c, 0, 54, 0
1, 95290, Note_on_c, 9, 44, 0
1, 95294, Note_on_c, 0, 87, 0
1, 95298, Note_on_c, 0, 61, 0
1, 95302, Note_on_c, 0, 75, 0
1, 95306, Note_on_c, 0, 58, 0
1, 95322, Note_on_c, 9, 35, 39
1, 95334, Note_on_c, 0, 87, 72
1, 95338, Note_on_c, 0, 58, 60
1, 95338, Note_on_c, 0, 65, 75
1, 95338, Note_on_c, 0, 75, 68
1, 95338, Note_on_c, 0, 54, 66
1, 95338, Note_on_c, 0, 61, 54
1, 95338, Note_on_c, 9, 51, 29
1, 95346, Control_c, 0, 64, 0
1, 95346, Note_on_c, 0, 82, 67
1, 95354, Note_on_c, 9, 51, 0
1, 95354, Note_on_c, 9, 35, 0
1, 95366, Note_on_c, 0, 65, 0
1, 95378, Note_on_c, 1, 34, 0
1, 95378, Note_on_c, 0, 75, 0
1, 95386, Note_on_c, 0, 87, 0
1, 95386, Note_on_c, 0, 61, 0
1, 95386, Note_on_c, 0, 54, 0
1, 95386, Note_on_c, 1, 30, 65
1, 95386, Note_on_c, 9, 35, 31
1, 95390, Note_on_c, 9, 53, 76
1, 95394, Note_on_c, 0, 58, 0
1, 95398, Note_on_c, 0, 82, 0
1, 95406, Control_c, 0, 64, 127
1, 95418, Note_on_c, 0, 54, 40
1, 95418, Note_on_c, 0, 85, 67
1, 95422, Note_on_c, 0, 65, 47
1, 95422, Note_on_c, 0, 61, 57
1, 95422, Note_on_c, 0, 73, 56
1, 95422, Note_on_c, 0, 58, 52
1, 95438, Note_on_c, 9, 35, 0
1, 95450, Note_on_c, 0, 80, 28
1, 95454, Note_on_c, 0, 65, 0
1, 95478, Note_on_c, 0, 54, 0
1, 95478, Note_on_c, 0, 80, 0
1, 95478, Note_on_c, 0, 73, 0
1, 95478, Note_on_c, 0, 61, 0
1, 95482, Note_on_c, 0, 58, 0
1, 95490, Note_on_c, 0, 85, 0
1, 95522, Note_on_c, 0, 85, 63
1, 95530, Note_on_c, 0, 73, 71
1, 95534, Note_on_c, 0, 65, 73
1, 95538, Note_on_c, 0, 80, 48
1, 95538, Note_on_c, 0, 61, 58
1, 95538, Note_on_c, 0, 58, 63
1, 95538, Note_on_c, 0, 54, 50
1, 95542, Note_on_c, 9, 53, 0
1, 95550, Note_on_c, 0, 65, 0
1, 95550, Control_c, 0, 64, 0
1, 95554, Note_on_c, 0, 54, 0
1, 95554, Note_on_c, 0, 80, 0
1, 95562, Note_on_c, 0, 58, 0
1, 95562, Note_on_c, 0, 61, 0
1, 95570, Note_on_c, 0, 73, 0
1, 95574, Note_on_c, 0, 85, 0
1, 95574, Note_on_c, 9, 53, 41
1, 95578, Note_on_c, 1, 31, 79
1, 95578, Note_on_c, 9, 44, 69
1, 95582, Note_on_c, 9, 51, 52
1, 95586, Note_on_c, 1, 30, 0
1, 95594, Control_c, 0, 64, 127
1, 95606, Note_on_c, 9, 53, 0
1, 95606, Note_on_c, 0, 65, 61
1, 95606, Note_on_c, 0, 84, 52
1, 95606, Note_on_c, 0, 54, 57
1, 95610, Note_on_c, 0, 61, 52
1, 95610, Note_on_c, 0, 58, 53
1, 95614, Note_on_c, 0, 72, 28
1, 95630, Note_on_c, 0, 72, 0
1, 95630, Note_on_c, 0, 65, 0
1, 95638, Note_on_c, 0, 84, 0
1, 95646, Note_on_c, 0, 61, 0
1, 95650, Note_on_c, 0, 54, 0
1, 95670, Note_on_c, 0, 58, 0
1, 95674, Note_on_c, 9, 44, 0
1, 95714, Control_c, 0, 64, 0
1, 95718, Note_on_c, 0, 92, 111
1, 95718, Note_on_c, 0, 80, 120
1, 95718, Note_on_c, 0, 60, 87
1, 95718, Note_on_c, 0, 87, 96
1, 95718, Note_on_c, 0, 64, 98
1, 95718, Note_on_c, 0, 54, 84
1, 95722, Note_on_c, 0, 58, 73
1, 95738, Note_on_c, 0, 58, 0
1, 95742, Note_on_c, 9, 51, 0
1, 95750, Note_on_c, 0, 58, 25
1, 95770, Note_on_c, 1, 32, 76
1, 95770, Note_on_c, 9, 51, 62
1, 95774, Note_on_c, 1, 31, 0
1, 95786, Control_c, 0, 64, 127
1, 95854, Note_on_c, 1, 32, 0
1, 95866, Note_on_c, 0, 64, 0
1, 95874, Note_on_c, 0, 54, 0
1, 95878, Note_on_c, 0, 80, 0
1, 95882, Note_on_c, 0, 92, 0
1, 95886, Note_on_c, 0, 60, 0
1, 95886, Note_on_c, 0, 58, 0
1, 95886, Note_on_c, 0, 87, 0
1, 95898, Note_on_c, 1, 32, 65
1, 95910, Note_on_c, 0, 92, 69
1, 95914, Note_on_c, 9, 51, 0
1, 95914, Note_on_c, 0, 80, 72
1, 95918, Note_on_c, 0, 87, 70
1, 95918, Note_on_c, 0, 60, 73
1, 95918, Note_on_c, 0, 64, 81
1, 95918, Note_on_c, 0, 58, 63
1, 95922, Note_on_c, 0, 54, 69
1, 95942, Note_on_c, 1, 32, 0
1, 95950, Note_on_c, 0, 64, 0
1, 95950, Note_on_c, 0, 80, 0
1, 95950, Control_c, 0, 64, 0
1, 95958, Note_on_c, 0, 92, 0
1, 95958, Note_on_c, 9, 51, 84
1, 95962, Note_on_c, 0, 87, 0
1, 95962, Note_on_c, 1, 34, 52
1, 95962, Note_on_c, 9, 44, 67
1, 95966, Note_on_c, 0, 54, 0
1, 95974, Note_on_c, 0, 60, 0
1, 95974, Note_on_c, 0, 58, 0
1, 95990, Note_on_c, 0, 90, 61
1, 95994, Note_on_c, 0, 64, 58
1, 95998, Note_on_c, 0, 54, 51
1, 95998, Note_on_c, 0, 78, 39
1, 96002, Note_on_c, 0, 60, 48
1, 96002, Note_on_c, 0, 85, 54
1, 96006, Note_on_c, 0, 58, 48
1, 96010, Control_c, 0, 64, 127
1, 96050, Note_on_c, 0, 64, 0
1, 96058, Note_on_c, 0, 85, 0
1, 96058, Note_on_c, 9, 44, 0
1, 96058, Note_on_c, 0, 78, 0
1, 96058, Note_on_c, 0, 54, 0
1, 96062, Note_on_c, 0, 90, 0
1, 96066, Note_on_c, 0, 58, 0
1, 96070, Note_on_c, 0, 60, 0
1, 96086, Note_on_c, 9, 51, 0
1, 96098, Note_on_c, 0, 90, 57
1, 96102, Note_on_c, 0, 78, 66
1, 96110, Note_on_c, 0, 64, 69
1, 96110, Note_on_c, 0, 54, 64
1, 96114, Note_on_c, 0, 60, 55
1, 96114, Note_on_c, 0, 58, 49
1, 96114, Note_on_c, 9, 51, 45
1, 96118, Note_on_c, 0, 85, 51
1, 96126, Note_on_c, 9, 51, 0
1, 96126, Control_c, 0, 64, 0
1, 96130, Note_on_c, 0, 85, 0
1, 96150, Note_on_c, 0, 78, 0
1, 96150, Note_on_c, 9, 51, 64
1, 96154, Note_on_c, 0, 64, 0
1, 96154, Note_on_c, 0, 90, 0
1, 96154, Note_on_c, 1, 36, 70
1, 96158, Note_on_c, 1, 34, 0
1, 96178, Note_on_c, 0, 64, 28
1, 96182, Control_c, 0, 64, 127
1, 96182, Note_on_c, 0, 89, 59
1, 96198, Note_on_c, 0, 77, 41
1, 96218, Note_on_c, 0, 64, 0
1, 96218, Note_on_c, 9, 31, 56
1, 96234, Note_on_c, 0, 89, 0
1, 96234, Note_on_c, 0, 58, 0
1, 96238, Note_on_c, 0, 54, 0
1, 96238, Note_on_c, 0, 60, 0
1, 96246, Note_on_c, 0, 77, 0
1, 96250, Note_on_c, 9, 31, 0
1, 96282, Note_on_c, 0, 89, 52
1, 96282, Note_on_c, 0, 77, 60
1, 96282, Note_on_c, 1, 34, 51
1, 96282, Note_on_c, 9, 31, 58
1, 96290, Note_on_c, 0, 84, 65
1, 96290, Note_on_c, 0, 54, 66
1, 96294, Note_on_c, 9, 51, 0
1, 96294, Note_on_c, 0, 64, 63
1, 96294, Note_on_c, 0, 58, 56
1, 96294, Note_on_c, 0, 60, 60
1, 96310, Note_on_c, 0, 89, 0
1, 96310, Control_c, 0, 64, 0
1, 96314, Note_on_c, 1, 34, 0
1, 96314, Note_on_c, 0, 77, 0
1, 96314, Note_on_c, 9, 31, 0
1, 96322, Note_on_c, 0, 84, 0
1, 96330, Note_on_c, 1, 36, 0
1, 96342, Note_on_c, 9, 51, 80
1, 96346, Control_c, 0, 64, 127
1, 96346, Note_on_c, 1, 38, 62
1, 96346, Note_on_c, 9, 46, 53
1, 96346, Note_on_c, 9, 31, 67
1, 96362, Note_on_c, 0, 87, 54
1, 96366, Note_on_c, 0, 64, 0
1, 96370, Note_on_c, 0, 58, 0
1, 96378, Note_on_c, 9, 31, 0
1, 96410, Note_on_c, 9, 31, 68
1, 96414, Note_on_c, 0, 87, 0
1, 96426, Note_on_c, 0, 54, 0
1, 96438, Note_on_c, 0, 60, 0
1, 96442, Note_on_c, 9, 46, 0
1, 96442, Note_on_c, 9, 31, 0
1, 96474, Note_on_c, 1, 35, 60
1, 96474, Note_on_c, 9, 35, 58
1, 96478, Note_on_c, 0, 87, 58
1, 96482, Note_on_c, 0, 60, 56
1, 96482, Note_on_c, 0, 75, 68
1, 96486, Note_on_c, 0, 63, 70
1, 96494, Note_on_c, 0, 53, 46
1, 96498, Note_on_c, 0, 56, 43
1, 96502, Note_on_c, 0, 75, 0
1, 96506, Note_on_c, 1, 35, 0
1, 96506, Note_on_c, 9, 51, 0
1, 96510, Note_on_c, 0, 87, 0
1, 96522, Note_on_c, 1, 38, 0
1, 96522, Note_on_c, 9, 35, 0
1, 96526, Control_c, 0, 64, 0
1, 96538, Note_on_c, 1, 37, 75
1, 96538, Note_on_c, 9, 51, 67
1, 96546, Note_on_c, 0, 63, 0
1, 96562, Note_on_c, 0, 85, 49
1, 96570, Note_on_c, 0, 73, 31
1, 96614, Note_on_c, 0, 60, 0
1, 96618, Control_c, 0, 64, 127
1, 96630, Note_on_c, 0, 56, 0
1, 96666, Note_on_c, 0, 85, 0
1, 96678, Note_on_c, 0, 73, 0
1, 96678, Control_c, 0, 64, 0
1, 96678, Note_on_c, 0, 60, 41
1, 96682, Note_on_c, 0, 56, 31
1, 96698, Note_on_c, 9, 51, 0
1, 96726, Note_on_c, 1, 37, 0
1, 96730, Note_on_c, 0, 84, 71
1, 96730, Note_on_c, 0, 72, 60
1, 96730, Note_on_c, 1, 41, 71
1, 96730, Note_on_c, 9, 44, 60
1, 96730, Note_on_c, 9, 51, 64
1, 96754, Control_c, 0, 64, 127
1, 96778, Note_on_c, 0, 60, 0
1, 96790, Note_on_c, 0, 56, 0
1, 96802, Note_on_c, 0, 84, 0
1, 96802, Note_on_c, 0, 72, 0
1, 96818, Note_on_c, 0, 53, 0
1, 96826, Note_on_c, 9, 44, 0
1, 96846, Note_on_c, 9, 51, 0
1, 96862, Note_on_c, 0, 82, 43
1, 96878, Note_on_c, 0, 60, 35
1, 96878, Control_c, 0, 64, 0
1, 96886, Note_on_c, 0, 56, 34
1, 96890, Note_on_c, 0, 82, 0
1, 96890, Note_on_c, 9, 51, 37
1, 96902, Note_on_c, 9, 51, 0
1, 96910, Note_on_c, 1, 41, 0
1, 96922, Note_on_c, 1, 44, 73
1, 96926, Note_on_c, 0, 84, 71
1, 96926, Note_on_c, 0, 72, 66
1, 96930, Note_on_c, 0, 60, 0
1, 96930, Note_on_c, 9, 51, 60
1, 96942, Control_c, 0, 64, 24
1, 96942, Control_c, 0, 64, 127
1, 96958, Note_on_c, 0, 56, 0
1, 96978, Note_on_c, 0, 84, 0
1, 96994, Note_on_c, 0, 72, 0
1, 97050, Note_on_c, 1, 36, 46
1, 97058, Note_on_c, 0, 63, 62
1, 97058, Note_on_c, 0, 85, 72
1, 97062, Note_on_c, 0, 60, 50
1, 97066, Note_on_c, 0, 73, 66
1, 97066, Control_c, 0, 64, 0
1, 97070, Note_on_c, 0, 56, 45
1, 97078, Note_on_c, 9, 51, 0
1, 97078, Note_on_c, 0, 53, 23
1, 97082, Note_on_c, 1, 44, 0
1, 97082, Note_on_c, 1, 36, 0
1, 97094, Note_on_c, 0, 85, 0
1, 97094, Note_on_c, 0, 73, 0
1, 97114, Note_on_c, 0, 53, 0
1, 97114, Note_on_c, 1, 45, 61
1, 97114, Note_on_c, 9, 44, 64
1, 97114, Note_on_c, 9, 51, 71
1, 97130, Note_on_c, 0, 60, 0
1, 97142, Note_on_c, 0, 73, 58
1, 97142, Note_on_c, 0, 85, 54
1, 97154, Note_on_c, 0, 56, 0
1, 97194, Note_on_c, 0, 85, 0
1, 97206, Note_on_c, 0, 73, 0
1, 97210, Note_on_c, 9, 44, 0
1, 97218, Note_on_c, 9, 51, 0
1, 97222, Note_on_c, 0, 74, 35
1, 97230, Note_on_c, 0, 63, 0
1, 97258, Note_on_c, 0, 74, 0
1, 97258, Note_on_c, 0, 86, 40
1, 97258, Note_on_c, 9, 51, 37
1, 97270, Note_on_c, 9, 51, 0
1, 97282, Note_on_c, 1, 45, 0
1, 97294, Note_on_c, 0, 86, 0
1, 97298, Note_on_c, 0, 74, 51
1, 97306, Note_on_c, 1, 46, 68
1, 97306, Note_on_c, 9, 51, 54
1, 97338, Note_on_c, 0, 74, 0
1, 97342, Note_on_c, 0, 86, 43
1, 97386, Note_on_c, 0, 86, 0
1, 97386, Note_on_c, 0, 74, 45
1, 97434, Note_on_c, 1, 37, 76
1, 97438, Note_on_c, 0, 74, 0
1, 97442, Note_on_c, 1, 46, 0
1, 97442, Note_on_c, 0, 86, 33
1, 97450, Note_on_c, 9, 51, 0
1, 97462, Note_on_c, 0, 86, 0
1, 97462, Note_on_c, 0, 66, 66
1, 97466, Note_on_c, 0, 62, 57
1, 97466, Note_on_c, 0, 56, 56
1, 97486, Note_on_c, 1, 37, 0
1, 97494, Note_on_c, 9, 53, 64
1, 97498, Note_on_c, 1, 38, 66
1, 97498, Note_on_c, 9, 44, 64
1, 97498, Note_on_c, 9, 51, 65
1, 97594, Note_on_c, 9, 44, 0
1, 97598, Note_on_c, 0, 62, 0
1, 97626, Note_on_c, 1, 37, 51
1, 97626, Note_on_c, 9, 31, 65
1, 97630, Note_on_c, 9, 51, 0
1, 97642, Note_on_c, 9, 53, 0
1, 97658, Note_on_c, 1, 37, 0
1, 97658, Note_on_c, 9, 31, 0
1, 97662, Note_on_c, 0, 62, 41
1, 97678, Note_on_c, 1, 38, 0
1, 97682, Note_on_c, 0, 66, 0
1, 97690, Note_on_c, 1, 50, 85
1, 97690, Note_on_c, 9, 51, 55
1, 97690, Note_on_c, 9, 35, 25
1, 97750, Note_on_c, 0, 56, 0
1, 97778, Note_on_c, 0, 62, 0
1, 97794, Note_on_c, 9, 35, 0
1, 97818, Note_on_c, 9, 35, 38
1, 97826, Note_on_c, 9, 51, 0
1, 97830, Note_on_c, 0, 66, 79
1, 97830, Note_on_c, 0, 56, 68
1, 97834, Note_on_c, 0, 62, 48
1, 97838, Note_on_c, 0, 86, 107
1, 97850, Note_on_c, 9, 35, 0
1, 97870, Note_on_c, 1, 50, 0
1, 97882, Note_on_c, 1, 46, 66
1, 97882, Note_on_c, 9, 44, 59
1, 97882, Note_on_c, 9, 51, 57
1, 97898, Note_on_c, 0, 62, 0
1, 97918, Note_on_c, 0, 66, 0
1, 97922, Note_on_c, 0, 87, 49
1, 97954, Note_on_c, 0, 86, 0
1, 97962, Note_on_c, 9, 51, 0
1, 97970, Note_on_c, 0, 88, 63
1, 97978, Note_on_c, 9, 44, 0
1, 97978, Note_on_c, 0, 87, 0
1, 97986, Note_on_c, 0, 56, 0
1, 98010, Note_on_c, 0, 88, 0
1, 98010, Note_on_c, 1, 38, 55
1, 98010, Note_on_c, 9, 59, 80
1, 98014, Note_on_c, 9, 51, 70
1, 98022, Note_on_c, 0, 89, 85
1, 98042, Note_on_c, 1, 38, 0
1, 98054, Note_on_c, 1, 46, 0
1, 98058, Note_on_c, 9, 59, 0
1, 98062, Note_on_c, 9, 51, 0
1, 98070, Note_on_c, 0, 89, 0
1, 98074, Note_on_c, 1, 39, 68
1, 98082, Note_on_c, 9, 51, 32
1, 98090, Note_on_c, 0, 65, 65
1, 98094, Note_on_c, 0, 87, 73
1, 98098, Note_on_c, 0, 61, 46
1, 98122, Note_on_c, 0, 58, 19
1, 98134, Note_on_c, 0, 55, 46
1, 98206, Note_on_c, 9, 51, 0
1, 98254, Note_on_c, 0, 87, 0
1, 98258, Note_on_c, 9, 51, 60
1, 98262, Note_on_c, 0, 65, 0
1, 98266, Note_on_c, 1, 51, 92
1, 98266, Note_on_c, 9, 44, 56
1, 98282, Note_on_c, 0, 85, 81
1, 98290, Note_on_c, 1, 39, 0
1, 98310, Note_on_c, 0, 61, 0
1, 98350, Note_on_c, 0, 58, 0
1, 98362, Note_on_c, 9, 44, 0
1, 98374, Note_on_c, 0, 55, 0
1, 98390, Note_on_c, 9, 51, 0
1, 98394, Note_on_c, 0, 85, 0
1, 98394, Note_on_c, 1, 39, 54
1, 98406, Note_on_c, 0, 58, 40
1, 98406, Note_on_c, 0, 61, 43
1, 98434, Note_on_c, 0, 61, 0
1, 98434, Note_on_c, 1, 39, 0
1, 98438, Note_on_c, 1, 51, 0
1, 98450, Note_on_c, 0, 58, 0
1, 98450, Note_on_c, 9, 51, 67
1, 98458, Note_on_c, 1, 46, 74
1, 98458, Note_on_c, 9, 34, 58
1, 98490, Note_on_c, 9, 34, 0
1, 98522, Note_on_c, 9, 34, 55
1, 98554, Note_on_c, 9, 34, 0
1, 98586, Note_on_c, 1, 39, 50
1, 98590, Note_on_c, 0, 61, 74
1, 98590, Note_on_c, 0, 65, 78
1, 98594, Note_on_c, 9, 51, 0
1, 98594, Note_on_c, 0, 58, 63
1, 98598, Note_on_c, 0, 55, 60
1, 98610, Note_on_c, 0, 55, 0
1, 98618, Note_on_c, 1, 39, 0
1, 98626, Note_on_c, 1, 46, 0
1, 98638, Note_on_c, 0, 55, 22
1, 98642, Note_on_c, 9, 51, 57
1, 98650, Note_on_c, 1, 44, 80
1, 98650, Note_on_c, 9, 44, 59
1, 98662, Note_on_c, 0, 84, 72
1, 98686, Control_c, 0, 64, 127
1, 98694, Note_on_c, 0, 55, 0
1, 98702, Control_c, 0, 64, 0
1, 98706, Note_on_c, 0, 65, 0
1, 98710, Control_c, 0, 64, 127
1, 98738, Note_on_c, 0, 84, 0
1, 98738, Note_on_c, 9, 51, 0
1, 98746, Note_on_c, 9, 44, 0
1, 98750, Note_on_c, 0, 61, 0
1, 98766, Note_on_c, 0, 58, 0
1, 98766, Control_c, 0, 64, 0
1, 98786, Note_on_c, 9, 51, 33
1, 98794, Note_on_c, 0, 65, 85
1, 98794, Note_on_c, 0, 83, 111
1, 98794, Note_on_c, 0, 54, 74
1, 98798, Note_on_c, 0, 60, 67
1, 98802, Note_on_c, 9, 51, 0
1, 98806, Note_on_c, 0, 58, 34
1, 98818, Note_on_c, 1, 44, 0
1, 98822, Note_on_c, 0, 58, 0
1, 98830, Note_on_c, 9, 51, 51
1, 98842, Note_on_c, 1, 44, 83
1, 98842, Note_on_c, 9, 34, 60
1, 98854, Control_c, 0, 64, 127
1, 98874, Note_on_c, 9, 34, 0
1, 98906, Note_on_c, 9, 34, 53
1, 98938, Note_on_c, 9, 34, 0
1, 98938, Note_on_c, 0, 60, 0
1, 98958, Note_on_c, 0, 83, 0
1, 98970, Note_on_c, 9, 35, 48
1, 98974, Note_on_c, 0, 54, 0
1, 98986, Note_on_c, 0, 65, 0
1, 98986, Note_on_c, 9, 51, 0
1, 98986, Note_on_c, 0, 60, 44
1, 99006, Control_c, 0, 64, 0
1, 99014, Note_on_c, 1, 44, 0
1, 99014, Note_on_c, 9, 35, 0
1, 99022, Note_on_c, 0, 60, 0
1, 99034, Note_on_c, 1, 43, 70
1, 99034, Note_on_c, 9, 44, 55
1, 99034, Note_on_c, 9, 51, 58
1, 99046, Note_on_c, 0, 64, 65
1, 99046, Note_on_c, 0, 82, 77
1, 99050, Note_on_c, 0, 54, 55
1, 99054, Note_on_c, 0, 70, 65
1, 99054, Note_on_c, 0, 60, 50
1, 99062, Control_c, 0, 64, 127
1, 99130, Note_on_c, 9, 44, 0
1, 99162, Note_on_c, 0, 60, 0
1, 99162, Note_on_c, 9, 34, 59
1, 99162, Note_on_c, 9, 34, 63
1, 99170, Note_on_c, 9, 51, 0
1, 99182, Note_on_c, 0, 64, 0
1, 99186, Control_c, 0, 64, 0
1, 99190, Note_on_c, 1, 43, 0
1, 99190, Note_on_c, 0, 82, 0
1, 99190, Note_on_c, 0, 54, 0
1, 99194, Note_on_c, 9, 34, 0
1, 99202, Note_on_c, 0, 70, 0
1, 99226, Note_on_c, 1, 44, 72
1, 99226, Note_on_c, 9, 59, 68
1, 99226, Note_on_c, 9, 57, 21
1, 99226, Note_on_c, 9, 35, 47
1, 99230, Note_on_c, 9, 51, 68
1, 99234, Note_on_c, 9, 34, 0
1, 99238, Note_on_c, 0, 54, 56
1, 99238, Note_on_c, 0, 64, 62
1, 99246, Note_on_c, 0, 60, 56
1, 99246, Note_on_c, 0, 69, 66
1, 99246, Note_on_c, 0, 81, 65
1, 99262, Control_c, 0, 64, 127
1, 99266, Note_on_c, 0, 75, 34
1, 99278, Note_on_c, 9, 57, 0
1, 99298, Note_on_c, 9, 35, 0
1, 99330, Note_on_c, 0, 60, 0
1, 99346, Note_on_c, 0, 81, 0
1, 99350, Note_on_c, 0, 64, 0
1, 99354, Note_on_c, 9, 59, 0
1, 99354, Note_on_c, 1, 33, 64
1, 99362, Note_on_c, 0, 69, 0
1, 99366, Note_on_c, 0, 54, 0
1, 99382, Note_on_c, 0, 75, 0
1, 99386, Note_on_c, 9, 51, 0
1, 99386, Note_on_c, 1, 33, 0
1, 99418, Note_on_c, 1, 38, 75
1, 99418, Note_on_c, 9, 44, 62
1, 99418, Note_on_c, 9, 51, 57
1, 99418, Note_on_c, 9, 34, 39
1, 99426, Note_on_c, 0, 54, 57
1, 99430, Note_on_c, 0, 80, 58
1, 99430, Note_on_c, 0, 64, 50
1, 99434, Note_on_c, 0, 68, 63
1, 99438, Note_on_c, 0, 60, 56
1, 99450, Note_on_c, 0, 64, 0
1, 99450, Note_on_c, 9, 34, 0
1, 99482, Note_on_c, 9, 34, 67
1, 99498, Note_on_c, 0, 80, 0
1, 99514, Note_on_c, 9, 44, 0
1, 99526, Note_on_c, 0, 68, 0
1, 99530, Note_on_c, 9, 34, 0
1, 99530, Note_on_c, 0, 54, 0
1, 99534, Note_on_c, 9, 51, 0
1, 99546, Note_on_c, 1, 44, 0
1, 99546, Note_on_c, 1, 34, 48
1, 99546, Note_on_c, 9, 57, 24
1, 99546, Note_on_c, 9, 35, 50
1, 99554, Note_on_c, 1, 38, 0
1, 99562, Note_on_c, 9, 51, 49
1, 99566, Note_on_c, 0, 60, 0
1, 99578, Note_on_c, 9, 57, 0
1, 99578, Control_c, 0, 64, 0
1, 99586, Note_on_c, 9, 51, 0
1, 99590, Note_on_c, 1, 34, 0
1, 99610, Note_on_c, 0, 63, 52
1, 99610, Note_on_c, 0, 77, 63
1, 99610, Note_on_c, 1, 37, 77
1, 99610, Note_on_c, 9, 51, 69
1, 99614, Note_on_c, 0, 60, 52
1, 99618, Note_on_c, 0, 65, 49
1, 99618, Note_on_c, 0, 72, 57
1, 99622, Note_on_c, 0, 56, 45
1, 99626, Note_on_c, 0, 53, 38
1, 99630, Control_c, 0, 64, 127
1, 99650, Note_on_c, 9, 35, 0
1, 99662, Note_on_c, 0, 77, 0
1, 99666, Note_on_c, 0, 72, 0
1, 99690, Note_on_c, 0, 53, 0
1, 99694, Note_on_c, 0, 63, 0
1, 99702, Note_on_c, 0, 65, 0
1, 99702, Note_on_c, 0, 60, 0
1, 99738, Note_on_c, 0, 56, 0
1, 99746, Note_on_c, 0, 75, 77
1, 99746, Note_on_c, 0, 63, 74
1, 99750, Note_on_c, 0, 68, 61
1, 99754, Note_on_c, 0, 65, 63
1, 99754, Note_on_c, 0, 72, 58
1, 99770, Note_on_c, 9, 51, 0
1, 99778, Control_c, 0, 64, 0
1, 99790, Note_on_c, 0, 65, 0
1, 99794, Note_on_c, 0, 75, 0
1, 99794, Note_on_c, 0, 72, 0
1, 99798, Note_on_c, 0, 68, 0
1, 99798, Note_on_c, 0, 63, 0
1, 99802, Note_on_c, 1, 44, 76
1, 99802, Note_on_c, 9, 44, 62
1, 99802, Note_on_c, 9, 51, 68
1, 99810, Note_on_c, 0, 61, 48
1, 99838, Note_on_c, 1, 37, 0
1, 99898, Note_on_c, 9, 44, 0
1, 99926, Note_on_c, 0, 61, 0
1, 99930, Note_on_c, 9, 51, 0
1, 99930, Note_on_c, 1, 37, 58
1, 99938, Note_on_c, 0, 63, 69
1, 99942, Note_on_c, 0, 75, 75
1, 99942, Note_on_c, 0, 68, 66
1, 99946, Note_on_c, 0, 65, 72
1, 99950, Note_on_c, 0, 72, 49
1, 99970, Note_on_c, 0, 72, 0
1, 99974, Note_on_c, 1, 44, 0
1, 99982, Note_on_c, 1, 37, 0
1, 99986, Note_on_c, 0, 65, 0
1, 99990, Note_on_c, 0, 63, 0
1, 99990, Note_on_c, 0, 68, 0
1, 99994, Note_on_c, 0, 75, 0
1, 99994, Note_on_c, 1, 53, 73
1, 100002, Note_on_c, 9, 51, 60
1, 100010, Note_on_c, 0, 61, 47
1, 100018, Control_c, 0, 64, 127
1, 100114, Note_on_c, 0, 61, 0
1, 100134, Note_on_c, 0, 72, 72
1, 100138, Note_on_c, 0, 61, 75
1, 100142, Note_on_c, 0, 65, 61
1, 100146, Control_c, 0, 64, 0
1, 100146, Note_on_c, 0, 60, 60
1, 100150, Note_on_c, 9, 51, 0
1, 100154, Note_on_c, 0, 65, 0
1, 100154, Note_on_c, 1, 53, 0
1, 100166, Note_on_c, 0, 61, 0
1, 100174, Note_on_c, 0, 72, 0
1, 100186, Note_on_c, 1, 51, 70
1, 100186, Note_on_c, 9, 46, 51
1, 100190, Note_on_c, 9, 51, 67
1, 100194, Note_on_c, 0, 60, 0
1, 100214, Note_on_c, 0, 58, 48
1, 100282, Note_on_c, 9, 46, 0
1, 100314, Note_on_c, 9, 35, 39
1, 100330, Note_on_c, 0, 58, 0
1, 100330, Note_on_c, 0, 60, 63
1, 100334, Note_on_c, 0, 61, 71
1, 100334, Note_on_c, 0, 72, 65
1, 100338, Note_on_c, 9, 51, 0
1, 100338, Note_on_c, 0, 65, 66
1, 100346, Note_on_c, 0, 68, 51
1, 100358, Note_on_c, 0, 68, 0
1, 100362, Note_on_c, 1, 51, 0
1, 100362, Note_on_c, 9, 35, 0
1, 100366, Note_on_c, 0, 61, 0
1, 100366, Note_on_c, 0, 72, 0
1, 100366, Note_on_c, 0, 65, 0
1, 100378, Note_on_c, 1, 49, 69
1, 100378, Note_on_c, 9, 35, 33
1, 100382, Note_on_c, 0, 60, 0
1, 100386, Note_on_c, 9, 51, 46
1, 100410, Note_on_c, 0, 58, 57
1, 100438, Note_on_c, 9, 35, 0
1, 100490, Note_on_c, 0, 58, 0
1, 100518, Note_on_c, 0, 70, 61
1, 100522, Note_on_c, 0, 61, 75
1, 100526, Note_on_c, 0, 56, 72
1, 100526, Note_on_c, 0, 65, 61
1, 100530, Note_on_c, 9, 51, 0
1, 100538, Note_on_c, 0, 65, 0
1, 100554, Note_on_c, 1, 49, 0
1, 100562, Note_on_c, 0, 61, 0
1, 100570, Note_on_c, 0, 70, 0
1, 100570, Note_on_c, 1, 44, 67
1, 100570, Note_on_c, 9, 44, 59
1, 100570, Note_on_c, 9, 53, 81
1, 100602, Note_on_c, 0, 61, 28
1, 100610, Note_on_c, 0, 68, 32
1, 100614, Note_on_c, 0, 56, 0
1, 100634, Note_on_c, 0, 65, 20
1, 100666, Note_on_c, 9, 44, 0
1, 100678, Note_on_c, 0, 61, 0
1, 100682, Note_on_c, 0, 65, 0
1, 100690, Note_on_c, 0, 68, 0
1, 100722, Note_on_c, 9, 53, 0
1, 100754, Note_on_c, 0, 58, 61
1, 100758, Note_on_c, 1, 44, 0
1, 100762, Note_on_c, 1, 41, 68
1, 100762, Note_on_c, 9, 37, 71
1, 100766, Note_on_c, 0, 61, 57
1, 100766, Note_on_c, 9, 51, 38
1, 100770, Note_on_c, 0, 70, 59
1, 100770, Note_on_c, 0, 65, 58
1, 100802, Note_on_c, 9, 37, 0
1, 100830, Note_on_c, 0, 58, 0
1, 100830, Control_c, 0, 64, 127
1, 100850, Note_on_c, 0, 61, 0
1, 100862, Note_on_c, 9, 51, 0
1, 100862, Note_on_c, 0, 65, 0
1, 100874, Note_on_c, 0, 70, 0
1, 100898, Note_on_c, 0, 61, 57
1, 100898, Note_on_c, 0, 56, 63
1, 100898, Note_on_c, 0, 65, 57
1, 100898, Note_on_c, 0, 68, 58
1, 100930, Note_on_c, 0, 56, 0
1, 100946, Note_on_c, 9, 51, 55
1, 100954, Note_on_c, 0, 61, 0
1, 100954, Note_on_c, 1, 37, 71
1, 100954, Note_on_c, 9, 44, 61
1, 100962, Note_on_c, 1, 41, 0
1, 100966, Note_on_c, 0, 65, 0
1, 100978, Note_on_c, 0, 68, 0
1, 101050, Note_on_c, 9, 44, 0
1, 101074, Note_on_c, 9, 51, 0
1, 101078, Control_c, 0, 64, 0
1, 101086, Note_on_c, 0, 54, 60
1, 101086, Note_on_c, 0, 68, 79
1, 101086, Note_on_c, 0, 39, 57
1, 101090, Note_on_c, 0, 61, 80
1, 101090, Note_on_c, 0, 65, 76
1, 101102, Note_on_c, 9, 51, 47
1, 101114, Note_on_c, 9, 51, 0
1, 101134, Control_c, 0, 64, 127
1, 101138, Note_on_c, 1, 37, 0
1, 101142, Note_on_c, 9, 51, 57
1, 101146, Note_on_c, 1, 39, 65
1, 101146, Note_on_c, 9, 35, 17
1, 101154, Note_on_c, 0, 65, 0
1, 101162, Note_on_c, 0, 68, 0
1, 101166, Note_on_c, 0, 61, 0
1, 101194, Note_on_c, 0, 54, 0
1, 101206, Note_on_c, 9, 35, 0
1, 101274, Note_on_c, 0, 48, 50
1, 101298, Note_on_c, 0, 48, 0
1, 101302, Control_c, 0, 64, 0
1, 101306, Note_on_c, 9, 51, 0
1, 101306, Note_on_c, 0, 49, 49
1, 101338, Note_on_c, 1, 42, 87
1, 101338, Note_on_c, 9, 44, 64
1, 101346, Note_on_c, 0, 51, 61
1, 101346, Note_on_c, 9, 51, 77
1, 101350, Note_on_c, 0, 49, 0
1, 101362, Note_on_c, 0, 51, 0
1, 101366, Note_on_c, 1, 39, 0
1, 101382, Note_on_c, 0, 53, 70
1, 101394, Note_on_c, 0, 53, 0
1, 101414, Note_on_c, 0, 54, 49
1, 101434, Note_on_c, 9, 44, 0
1, 101450, Note_on_c, 0, 56, 42
1, 101466, Note_on_c, 1, 39, 55
1, 101470, Note_on_c, 0, 54, 0
1, 101474, Note_on_c, 0, 58, 56
1, 101478, Note_on_c, 9, 51, 0
1, 101482, Note_on_c, 0, 56, 0
1, 101482, Note_on_c, 0, 39, 0
1, 101486, Note_on_c, 1, 42, 0
1, 101490, Note_on_c, 0, 58, 0
1, 101490, Note_on_c, 0, 46, 26
1, 101498, Note_on_c, 1, 39, 0
1, 101506, Note_on_c, 0, 60, 67
1, 101510, Note_on_c, 0, 46, 0
1, 101522, Note_on_c, 0, 60, 0
1, 101526, Note_on_c, 9, 51, 62
1, 101530, Note_on_c, 1, 46, 76
1, 101530, Note_on_c, 9, 35, 17
1, 101546, Note_on_c, 0, 61, 40
1, 101570, Note_on_c, 0, 61, 0
1, 101574, Note_on_c, 0, 63, 48
1, 101582, Note_on_c, 9, 35, 0
1, 101590, Note_on_c, 0, 63, 0
1, 101622, Note_on_c, 0, 65, 60
1, 101634, Note_on_c, 0, 65, 0
1, 101638, Note_on_c, 9, 51, 0
1, 101658, Note_on_c, 0, 66, 46
1, 101662, Note_on_c, 9, 51, 56
1, 101682, Note_on_c, 9, 51, 0
1, 101682, Note_on_c, 0, 68, 53
1, 101698, Note_on_c, 0, 66, 0
1, 101702, Note_on_c, 0, 68, 0
1, 101702, Note_on_c, 0, 70, 54
1, 101714, Note_on_c, 1, 46, 0
1, 101714, Note_on_c, 9, 51, 56
1, 101718, Note_on_c, 0, 70, 0
1, 101722, Note_on_c, 1, 42, 74
1, 101722, Note_on_c, 9, 44, 69
1, 101722, Note_on_c, 9, 37, 59
1, 101754, Note_on_c, 1, 42, 0
1, 101774, Note_on_c, 9, 37, 0
1, 101774, Note_on_c, 0, 73, 51
1, 101786, Note_on_c, 1, 34, 63
1, 101806, Note_on_c, 0, 73, 0
1, 101814, Note_on_c, 0, 75, 54
1, 101818, Note_on_c, 1, 34, 0
1, 101818, Note_on_c, 9, 44, 0
1, 101830, Note_on_c, 0, 75, 0
1, 101850, Note_on_c, 1, 33, 83
1, 101850, Note_on_c, 9, 35, 23
1, 101858, Note_on_c, 0, 76, 61
1, 101870, Note_on_c, 0, 76, 0
1, 101874, Note_on_c, 9, 51, 0
1, 101882, Note_on_c, 9, 35, 0
1, 101882, Note_on_c, 1, 33, 0
1, 101910, Note_on_c, 9, 51, 62
1, 101914, Note_on_c, 1, 32, 78
1, 101914, Note_on_c, 9, 35, 23
1, 101918, Note_on_c, 0, 60, 57
1, 101918, Note_on_c, 0, 65, 50
1, 101922, Note_on_c, 0, 54, 42
1, 101970, Note_on_c, 9, 35, 0
1, 101998, Note_on_c, 0, 77, 68
1, 102034, Note_on_c, 0, 77, 0
1, 102054, Note_on_c, 0, 78, 74
1, 102070, Note_on_c, 9, 51, 0
1, 102090, Note_on_c, 0, 65, 0
1, 102102, Note_on_c, 0, 78, 0
1, 102106, Note_on_c, 1, 39, 76
1, 102106, Note_on_c, 9, 44, 64
1, 102106, Note_on_c, 9, 51, 64
1, 102118, Note_on_c, 0, 80, 75
1, 102122, Note_on_c, 1, 32, 0
1, 102154, Note_on_c, 0, 80, 0
1, 102154, Control_c, 0, 64, 127
1, 102162, Note_on_c, 0, 60, 0
1, 102182, Note_on_c, 0, 82, 66
1, 102190, Note_on_c, 0, 60, 39
1, 102194, Note_on_c, 0, 65, 39
1, 102202, Note_on_c, 9, 44, 0
1, 102210, Note_on_c, 0, 65, 0
1, 102218, Note_on_c, 0, 82, 0
1, 102218, Note_on_c, 9, 51, 0
1, 102234, Note_on_c, 1, 32, 62
1, 102238, Note_on_c, 0, 60, 0
1, 102238, Note_on_c, 1, 39, 0
1, 102246, Note_on_c, 0, 84, 69
1, 102250, Note_on_c, 9, 51, 37
1, 102254, Note_on_c, 0, 54, 0
1, 102274, Note_on_c, 9, 51, 0
1, 102290, Note_on_c, 0, 84, 0
1, 102290, Control_c, 0, 64, 0
1, 102298, Note_on_c, 1, 50, 71
1, 102298, Note_on_c, 9, 51, 62
1, 102306, Note_on_c, 1, 32, 0
1, 102310, Note_on_c, 0, 85, 72
1, 102330, Note_on_c, 0, 54, 50
1, 102330, Note_on_c, 0, 60, 52
1, 102334, Note_on_c, 0, 64, 39
1, 102354, Note_on_c, 0, 85, 0
1, 102362, Note_on_c, 9, 34, 59
1, 102366, Note_on_c, 0, 64, 0
1, 102378, Note_on_c, 0, 87, 63
1, 102390, Note_on_c, 1, 50, 0
1, 102394, Note_on_c, 9, 34, 0
1, 102410, Note_on_c, 0, 87, 0
1, 102426, Note_on_c, 1, 32, 56
1, 102426, Note_on_c, 9, 34, 67
1, 102430, Note_on_c, 0, 60, 0
1, 102434, Note_on_c, 0, 89, 79
1, 102438, Note_on_c, 9, 51, 0
1, 102466, Note_on_c, 1, 32, 0
1, 102470, Note_on_c, 9, 34, 0
1, 102478, Note_on_c, 0, 89, 0
1, 102482, Note_on_c, 0, 60, 40
1, 102482, Note_on_c, 0, 64, 42
1, 102490, Note_on_c, 1, 39, 75
1, 102490, Note_on_c, 9, 44, 67
1, 102490, Note_on_c, 9, 35, 40
1, 102494, Note_on_c, 0, 90, 63
1, 102498, Note_on_c, 9, 51, 55
1, 102502, Note_on_c, 0, 64, 0
1, 102502, Note_on_c, 0, 60, 0
1, 102510, Control_c, 0, 64, 127
1, 102534, Note_on_c, 0, 90, 0
1, 102546, Note_on_c, 0, 54, 0
1, 102554, Note_on_c, 0, 91, 77
1, 102574, Note_on_c, 9, 51, 0
1, 102582, Note_on_c, 9, 35, 0
1, 102586, Note_on_c, 9, 44, 0
1, 102590, Note_on_c, 0, 91, 0
1, 102602, Note_on_c, 0, 93, 68
1, 102618, Note_on_c, 1, 32, 58
1, 102630, Note_on_c, 0, 92, 29
1, 102630, Note_on_c, 9, 51, 53
1, 102638, Note_on_c, 0, 93, 0
1, 102646, Note_on_c, 1, 39, 0
1, 102646, Control_c, 0, 64, 0
1, 102650, Note_on_c, 0, 92, 0
1, 102650, Note_on_c, 1, 32, 0
1, 102650, Note_on_c, 0, 94, 61
1, 102670, Note_on_c, 9, 51, 0
1, 102682, Note_on_c, 1, 43, 77
1, 102682, Note_on_c, 9, 51, 45
1, 102686, Note_on_c, 0, 62, 31
1, 102686, Note_on_c, 0, 58, 46
1, 102686, Note_on_c, 0, 53, 33
1, 102690, Note_on_c, 0, 94, 0
1, 102694, Note_on_c, 0, 95, 64
1, 102694, Note_on_c, 0, 55, 47
1, 102730, Note_on_c, 0, 95, 0
1, 102738, Note_on_c, 0, 96, 75
1, 102742, Note_on_c, 0, 84, 57
1, 102802, Note_on_c, 0, 62, 0
1, 102806, Note_on_c, 0, 84, 0
1, 102806, Note_on_c, 0, 58, 0
1, 102806, Note_on_c, 0, 96, 0
1, 102810, Note_on_c, 9, 51, 0
1, 102810, Note_on_c, 9, 34, 31
1, 102834, Note_on_c, 0, 96, 72
1, 102838, Note_on_c, 0, 84, 75
1, 102838, Note_on_c, 0, 62, 63
1, 102838, Note_on_c, 0, 58, 55
1, 102842, Note_on_c, 9, 34, 0
1, 102870, Note_on_c, 9, 51, 71
1, 102874, Note_on_c, 9, 44, 65
1, 102874, Note_on_c, 9, 35, 39
1, 102878, Control_c, 0, 64, 127
1, 102894, Note_on_c, 0, 96, 0
1, 102894, Note_on_c, 0, 62, 0
1, 102898, Note_on_c, 0, 84, 0
1, 102914, Note_on_c, 0, 53, 0
1, 102922, Note_on_c, 0, 58, 0
1, 102922, Note_on_c, 0, 55, 0
1, 102962, Note_on_c, 0, 96, 81
1, 102966, Note_on_c, 9, 35, 0
1, 102966, Note_on_c, 0, 58, 50
1, 102966, Note_on_c, 0, 62, 56
1, 102966, Note_on_c, 0, 84, 70
1, 102966, Note_on_c, 0, 53, 48
1, 102970, Note_on_c, 9, 44, 0
1, 102970, Note_on_c, 0, 55, 49
1, 102990, Note_on_c, 9, 51, 0
1, 103002, Note_on_c, 1, 38, 59
1, 103002, Note_on_c, 9, 35, 36
1, 103018, Note_on_c, 9, 51, 50
1, 103034, Note_on_c, 9, 51, 0
1, 103034, Note_on_c, 9, 35, 0
1, 103034, Note_on_c, 0, 53, 0
1, 103034, Note_on_c, 1, 38, 0
1, 103038, Note_on_c, 0, 84, 0
1, 103042, Note_on_c, 0, 96, 0
1, 103046, Note_on_c, 0, 62, 0
1, 103050, Note_on_c, 0, 58, 0
1, 103050, Note_on_c, 0, 55, 0
1, 103062, Note_on_c, 9, 51, 62
1, 103066, Note_on_c, 1, 31, 82
1, 103086, Note_on_c, 0, 96, 68
1, 103090, Note_on_c, 0, 58, 49
1, 103090, Note_on_c, 0, 62, 46
1, 103094, Note_on_c, 0, 84, 66
1, 103094, Note_on_c, 0, 55, 49
1, 103094, Note_on_c, 0, 53, 45
1, 103150, Note_on_c, 0, 53, 0
1, 103154, Note_on_c, 0, 84, 0
1, 103154, Note_on_c, 0, 62, 0
1, 103154, Note_on_c, 0, 96, 0
1, 103162, Note_on_c, 0, 58, 0
1, 103166, Note_on_c, 0, 55, 0
1, 103218, Note_on_c, 9, 51, 0
1, 103218, Note_on_c, 0, 97, 76
1, 103222, Control_c, 0, 64, 0
1, 103222, Note_on_c, 0, 58, 63
1, 103222, Note_on_c, 0, 85, 63
1, 103222, Note_on_c, 0, 62, 52
1, 103226, Note_on_c, 0, 53, 56
1, 103226, Note_on_c, 0, 55, 54
1, 103230, Note_on_c, 0, 91, 53
1, 103258, Note_on_c, 9, 44, 64
1, 103262, Note_on_c, 9, 51, 71
1, 103278, Control_c, 0, 64, 127
1, 103318, Note_on_c, 0, 91, 0
1, 103326, Note_on_c, 0, 53, 0
1, 103330, Note_on_c, 0, 62, 0
1, 103346, Note_on_c, 0, 97, 0
1, 103346, Note_on_c, 0, 85, 0
1, 103350, Note_on_c, 0, 55, 0
1, 103350, Note_on_c, 0, 58, 0
1, 103354, Note_on_c, 9, 44, 0
1, 103362, Control_c, 0, 64, 0
1, 103370, Note_on_c, 9, 51, 0
1, 103398, Note_on_c, 0, 96, 74
1, 103402, Note_on_c, 0, 55, 50
1, 103402, Note_on_c, 0, 84, 55
1, 103402, Note_on_c, 0, 91, 64
1, 103402, Note_on_c, 0, 62, 57
1, 103402, Note_on_c, 0, 53, 57
1, 103402, Note_on_c, 0, 58, 63
1, 103402, Note_on_c, 9, 51, 37
1, 103410, Note_on_c, 1, 43, 0
1, 103418, Note_on_c, 9, 51, 0
1, 103446, Note_on_c, 9, 51, 51
1, 103450, Note_on_c, 1, 46, 79
1, 103450, Note_on_c, 9, 35, 38
1, 103458, Control_c, 0, 64, 127
1, 103482, Note_on_c, 0, 96, 0
1, 103494, Note_on_c, 0, 91, 0
1, 103498, Note_on_c, 9, 35, 0
1, 103510, Note_on_c, 0, 84, 0
1, 103510, Note_on_c, 0, 62, 0
1, 103514, Note_on_c, 0, 58, 0
1, 103518, Note_on_c, 0, 53, 0
1, 103542, Note_on_c, 0, 55, 0
1, 103546, Note_on_c, 9, 51, 0
1, 103578, Note_on_c, 9, 53, 76
1, 103598, Note_on_c, 0, 62, 57
1, 103598, Note_on_c, 0, 58, 57
1, 103602, Note_on_c, 0, 55, 50
1, 103602, Note_on_c, 0, 53, 48
1, 103618, Note_on_c, 0, 53, 0
1, 103622, Note_on_c, 9, 53, 0
1, 103626, Note_on_c, 0, 62, 0
1, 103634, Note_on_c, 0, 55, 0
1, 103638, Note_on_c, 1, 46, 0
1, 103642, Note_on_c, 0, 58, 0
1, 103642, Note_on_c, 1, 43, 67
1, 103642, Note_on_c, 9, 44, 63
1, 103642, Note_on_c, 9, 51, 52
1, 103738, Note_on_c, 9, 44, 0
1, 103770, Note_on_c, 9, 35, 40
1, 103778, Note_on_c, 9, 51, 0
1, 103782, Note_on_c, 0, 72, 77
1, 103782, Note_on_c, 0, 84, 58
1, 103786, Note_on_c, 0, 55, 72
1, 103786, Note_on_c, 0, 58, 75
1, 103786, Note_on_c, 0, 62, 81
1, 103790, Note_on_c, 0, 53, 68
1, 103798, Note_on_c, 0, 79, 51
1, 103802, Note_on_c, 0, 53, 0
1, 103802, Note_on_c, 0, 72, 0
1, 103802, Note_on_c, 9, 35, 0
1, 103810, Note_on_c, 0, 62, 0
1, 103810, Note_on_c, 0, 79, 0
1, 103830, Note_on_c, 0, 58, 0
1, 103830, Note_on_c, 9, 51, 62
1, 103834, Note_on_c, 0, 55, 0
1, 103834, Note_on_c, 0, 84, 0
1, 103874, Note_on_c, 0, 55, 21
1, 103910, Note_on_c, 0, 55, 0
1, 103958, Note_on_c, 1, 31, 0
1, 103962, Note_on_c, 1, 38, 54
1, 103962, Note_on_c, 9, 31, 66
1, 103978, Note_on_c, 9, 51, 0
1, 103982, Note_on_c, 0, 55, 64
1, 103982, Note_on_c, 0, 60, 60
1, 103990, Note_on_c, 0, 53, 40
1, 103994, Note_on_c, 0, 60, 0
1, 103994, Note_on_c, 9, 31, 0
1, 103994, Note_on_c, 1, 38, 0
1, 103998, Note_on_c, 0, 55, 0
1, 104002, Control_c, 0, 64, 0
1, 104006, Note_on_c, 0, 53, 0
1, 104018, Note_on_c, 9, 46, 53
1, 104018, Note_on_c, 9, 51, 55
1, 104026, Note_on_c, 1, 34, 52
1, 104026, Note_on_c, 9, 44, 63
1, 104026, Note_on_c, 9, 31, 61
1, 104038, Note_on_c, 0, 53, 66
1, 104038, Note_on_c, 0, 55, 72
1, 104038, Note_on_c, 0, 96, 117
1, 104042, Note_on_c, 0, 84, 98
1, 104042, Note_on_c, 0, 91, 88
1, 104046, Note_on_c, 0, 62, 72
1, 104046, Note_on_c, 0, 58, 68
1, 104058, Note_on_c, 9, 31, 0
1, 104066, Control_c, 0, 64, 127
1, 104070, Note_on_c, 0, 62, 0
1, 104098, Note_on_c, 0, 84, 0
1, 104106, Note_on_c, 0, 96, 0
1, 104106, Note_on_c, 0, 55, 0
1, 104106, Note_on_c, 0, 91, 0
1, 104110, Note_on_c, 0, 53, 0
1, 104114, Note_on_c, 0, 58, 0
1, 104118, Note_on_c, 1, 43, 0
1, 104122, Note_on_c, 9, 44, 0
1, 104142, Note_on_c, 1, 34, 0
1, 104154, Note_on_c, 1, 35, 70
1, 104154, Note_on_c, 9, 31, 77
1, 104158, Note_on_c, 9, 46, 0
1, 104162, Note_on_c, 9, 51, 0
1, 104162, Note_on_c, 0, 62, 83
1, 104162, Note_on_c, 0, 58, 79
1, 104166, Note_on_c, 0, 52, 78
1, 104166, Note_on_c, 0, 96, 88
1, 104170, Note_on_c, 0, 84, 85
1, 104170, Note_on_c, 0, 91, 86
1, 104178, Control_c, 0, 64, 0
1, 104186, Note_on_c, 9, 31, 0
1, 104194, Note_on_c, 0, 52, 0
1, 104198, Note_on_c, 1, 35, 0
1, 104198, Note_on_c, 0, 62, 0
1, 104210, Note_on_c, 0, 96, 0
1, 104210, Note_on_c, 9, 51, 65
1, 104214, Note_on_c, 0, 84, 0
1, 104218, Note_on_c, 1, 36, 76
1, 104226, Note_on_c, 0, 91, 0
1, 104226, Note_on_c, 0, 52, 37
1, 104230, Control_c, 0, 64, 127
1, 104230, Note_on_c, 0, 62, 45
1, 104238, Note_on_c, 0, 96, 70
1, 104246, Note_on_c, 0, 84, 61
1, 104250, Note_on_c, 0, 91, 55
1, 104286, Note_on_c, 0, 62, 0
1, 104290, Note_on_c, 0, 52, 0
1, 104290, Note_on_c, 0, 84, 0
1, 104294, Note_on_c, 0, 96, 0
1, 104306, Note_on_c, 0, 58, 0
1, 104310, Note_on_c, 0, 91, 0
1, 104346, Note_on_c, 9, 35, 39
1, 104354, Note_on_c, 0, 97, 71
1, 104354, Note_on_c, 0, 85, 67
1, 104358, Note_on_c, 0, 62, 68
1, 104358, Note_on_c, 0, 58, 62
1, 104362, Note_on_c, 0, 52, 57
1, 104362, Note_on_c, 0, 91, 47
1, 104366, Note_on_c, 9, 51, 0
1, 104374, Control_c, 0, 64, 0
1, 104378, Note_on_c, 0, 91, 0
1, 104378, Note_on_c, 9, 35, 0
1, 104382, Note_on_c, 0, 52, 0
1, 104386, Note_on_c, 0, 62, 0
1, 104398, Note_on_c, 9, 51, 57
1, 104406, Note_on_c, 0, 85, 0
1, 104406, Note_on_c, 9, 46, 46
1, 104410, Note_on_c, 9, 44, 64
1, 104410, Note_on_c, 9, 35, 42
1, 104414, Note_on_c, 0, 52, 30
1, 104418, Note_on_c, 0, 97, 0
1, 104426, Note_on_c, 0, 62, 51
1, 104426, Note_on_c, 0, 96, 64
1, 104434, Note_on_c, 0, 91, 43
1, 104438, Note_on_c, 0, 84, 40
1, 104442, Control_c, 0, 64, 127
1, 104470, Note_on_c, 0, 62, 0
1, 104474, Note_on_c, 0, 52, 0
1, 104478, Note_on_c, 0, 96, 0
1, 104482, Note_on_c, 9, 35, 0
1, 104486, Note_on_c, 0, 84, 0
1, 104490, Note_on_c, 0, 58, 0
1, 104506, Note_on_c, 9, 44, 0
1, 104506, Note_on_c, 0, 91, 0
1, 104538, Note_on_c, 0, 85, 75
1, 104538, Note_on_c, 0, 97, 80
1, 104538, Note_on_c, 0, 58, 67
1, 104538, Note_on_c, 1, 34, 38
1, 104538, Note_on_c, 9, 35, 46
1, 104542, Note_on_c, 9, 46, 0
1, 104542, Note_on_c, 0, 62, 62
1, 104542, Note_on_c, 0, 52, 57
1, 104546, Note_on_c, 9, 51, 0
1, 104546, Note_on_c, 0, 91, 51
1, 104554, Note_on_c, 0, 52, 0
1, 104554, Note_on_c, 0, 62, 0
1, 104554, Control_c, 0, 64, 0
1, 104562, Note_on_c, 0, 91, 0
1, 104570, Note_on_c, 9, 35, 0
1, 104574, Note_on_c, 1, 34, 0
1, 104578, Note_on_c, 0, 58, 0
1, 104578, Note_on_c, 1, 36, 0
1, 104590, Note_on_c, 0, 85, 0
1, 104594, Note_on_c, 9, 51, 64
1, 104602, Note_on_c, 0, 52, 57
1, 104602, Note_on_c, 1, 38, 71
1, 104606, Note_on_c, 0, 97, 0
1, 104606, Note_on_c, 0, 58, 48
1, 104606, Note_on_c, 0, 62, 56
1, 104610, Control_c, 0, 64, 127
1, 104610, Note_on_c, 9, 46, 48
1, 104618, Note_on_c, 0, 96, 59
1, 104618, Note_on_c, 0, 91, 36
1, 104626, Note_on_c, 0, 84, 39
1, 104678, Note_on_c, 0, 84, 0
1, 104678, Note_on_c, 0, 62, 0
1, 104690, Note_on_c, 0, 52, 0
1, 104698, Note_on_c, 0, 91, 0
1, 104698, Note_on_c, 0, 58, 0
1, 104702, Note_on_c, 0, 96, 0
1, 104738, Note_on_c, 9, 51, 0
1, 104738, Note_on_c, 9, 46, 0
1, 104738, Control_c, 0, 64, 0
1, 104770, Note_on_c, 1, 38, 0
1, 104786, Control_c, 0, 64, 127
1, 104786, Note_on_c, 9, 51, 58
1, 104794, Note_on_c, 1, 39, 76
1, 104794, Note_on_c, 9, 44, 64
1, 104890, Note_on_c, 9, 44, 0
1, 104910, Note_on_c, 9, 51, 0
1, 104914, Control_c, 0, 64, 0
1, 104922, Note_on_c, 1, 34, 44
1, 104926, Note_on_c, 0, 96, 71
1, 104926, Note_on_c, 0, 58, 72
1, 104926, Note_on_c, 0, 91, 78
1, 104926, Note_on_c, 0, 62, 72
1, 104926, Note_on_c, 0, 84, 72
1, 104930, Note_on_c, 0, 52, 68
1, 104938, Note_on_c, 0, 95, 36
1, 104938, Note_on_c, 9, 51, 61
1, 104954, Note_on_c, 1, 34, 0
1, 104962, Control_c, 0, 64, 127
1, 104966, Note_on_c, 9, 51, 0
1, 104966, Note_on_c, 1, 39, 0
1, 104970, Note_on_c, 0, 96, 0
1, 104978, Note_on_c, 0, 95, 0
1, 104982, Note_on_c, 0, 91, 0
1, 104986, Note_on_c, 1, 40, 62
1, 104986, Note_on_c, 9, 51, 67
1, 105006, Note_on_c, 0, 84, 0
1, 105010, Note_on_c, 0, 52, 0
1, 105018, Note_on_c, 0, 58, 0
1, 105022, Note_on_c, 0, 62, 0
1, 105118, Note_on_c, 9, 51, 0
1, 105170, Control_c, 0, 64, 0
1, 105170, Note_on_c, 9, 53, 69
1, 105174, Note_on_c, 9, 51, 55
1, 105178, Note_on_c, 1, 48, 84
1, 105178, Note_on_c, 9, 44, 62
1, 105182, Note_on_c, 0, 81, 89
1, 105186, Note_on_c, 0, 70, 88
1, 105186, Note_on_c, 0, 73, 79
1, 105186, Note_on_c, 0, 69, 88
1, 105190, Note_on_c, 0, 76, 71
1, 105198, Note_on_c, 1, 40, 0
1, 105238, Note_on_c, 1, 48, 0
1, 105270, Note_on_c, 0, 81, 0
1, 105274, Note_on_c, 9, 44, 0
1, 105278, Note_on_c, 0, 70, 0
1, 105282, Note_on_c, 0, 73, 0
1, 105286, Note_on_c, 0, 76, 0
1, 105298, Note_on_c, 0, 69, 0
1, 105306, Note_on_c, 1, 46, 78
1, 105310, Note_on_c, 0, 70, 68
1, 105314, Note_on_c, 9, 51, 0
1, 105314, Note_on_c, 0, 68, 70
1, 105314, Note_on_c, 0, 79, 77
1, 105318, Note_on_c, 0, 73, 49
1, 105330, Note_on_c, 0, 76, 46
1, 105350, Note_on_c, 9, 53, 0
1, 105350, Note_on_c, 1, 46, 0
1, 105370, Note_on_c, 0, 70, 0
1, 105370, Note_on_c, 0, 76, 0
1, 105370, Note_on_c, 1, 45, 65
1, 105370, Note_on_c, 9, 51, 53
1, 105374, Note_on_c, 0, 73, 0
1, 105386, Note_on_c, 0, 68, 0
1, 105394, Note_on_c, 0, 79, 0
1, 105406, Note_on_c, 0, 67, 57
1, 105418, Note_on_c, 1, 45, 0
1, 105434, Note_on_c, 9, 31, 76
1, 105470, Note_on_c, 0, 67, 0
1, 105474, Note_on_c, 9, 31, 0
1, 105474, Note_on_c, 9, 51, 0
1, 105490, Note_on_c, 9, 51, 74
1, 105498, Note_on_c, 1, 40, 74
1, 105498, Note_on_c, 9, 31, 72
1, 105522, Note_on_c, 0, 64, 61
1, 105522, Note_on_c, 0, 69, 36
1, 105530, Note_on_c, 1, 40, 0
1, 105542, Note_on_c, 0, 69, 0
1, 105542, Note_on_c, 9, 31, 0
1, 105546, Note_on_c, 9, 51, 0
1, 105554, Note_on_c, 9, 53, 60
1, 105562, Note_on_c, 0, 64, 0
1, 105562, Note_on_c, 1, 37, 68
1, 105562, Note_on_c, 9, 46, 57
1, 105562, Note_on_c, 9, 31, 31
1, 105562, Note_on_c, 9, 34, 83
1, 105562, Note_on_c, 9, 30, 33
1, 105574, Note_on_c, 0, 79, 83
1, 105574, Note_on_c, 0, 69, 72
1, 105578, Note_on_c, 0, 72, 76
1, 105582, Note_on_c, 0, 67, 74
1, 105594, Note_on_c, 9, 31, 0
1, 105598, Note_on_c, 9, 30, 0
1, 105614, Note_on_c, 9, 34, 0
1, 105638, Note_on_c, 0, 79, 0
1, 105642, Note_on_c, 0, 69, 0
1, 105654, Note_on_c, 0, 72, 0
1, 105658, Note_on_c, 9, 46, 0
1, 105662, Note_on_c, 0, 67, 0
1, 105682, Note_on_c, 9, 53, 0
1, 105690, Note_on_c, 0, 78, 77
1, 105690, Note_on_c, 0, 72, 60
1, 105690, Note_on_c, 9, 51, 87
1, 105690, Note_on_c, 9, 34, 83
1, 105694, Note_on_c, 0, 66, 70
1, 105698, Note_on_c, 0, 69, 63
1, 105742, Note_on_c, 0, 69, 0
1, 105742, Note_on_c, 1, 37, 0
1, 105746, Note_on_c, 0, 78, 0
1, 105750, Note_on_c, 9, 34, 0
1, 105750, Note_on_c, 0, 66, 0
1, 105750, Note_on_c, 9, 57, 18
1, 105754, Note_on_c, 1, 38, 73
1, 105754, Note_on_c, 9, 57, 23
1, 105754, Note_on_c, 9, 35, 52
1, 105766, Note_on_c, 0, 65, 63
1, 105766, Note_on_c, 0, 69, 42
1, 105770, Note_on_c, 0, 77, 57
1, 105834, Note_on_c, 0, 77, 0
1, 105842, Note_on_c, 0, 72, 0
1, 105858, Note_on_c, 0, 65, 0
1, 105858, Note_on_c, 9, 57, 0
1, 105866, Note_on_c, 9, 57, 0
1, 105874, Note_on_c, 0, 69, 0
1, 105882, Note_on_c, 1, 37, 49
1, 105886, Note_on_c, 9, 35, 0
1, 105898, Note_on_c, 0, 60, 54
1, 105914, Note_on_c, 9, 51, 0
1, 105926, Note_on_c, 1, 37, 0
1, 105938, Note_on_c, 1, 38, 0
1, 105938, Note_on_c, 0, 60, 0
1, 105938, Note_on_c, 9, 51, 51
1, 105946, Note_on_c, 1, 50, 100
1, 105946, Note_on_c, 9, 44, 63
1, 105950, Note_on_c, 0, 76, 78
1, 105954, Note_on_c, 0, 65, 65
1, 105954, Note_on_c, 0, 64, 66
1, 105958, Note_on_c, 0, 69, 66
1, 106030, Note_on_c, 0, 76, 0
1, 106038, Note_on_c, 0, 69, 0
1, 106042, Note_on_c, 0, 65, 0
1, 106042, Note_on_c, 9, 44, 0
1, 106074, Note_on_c, 0, 64, 0
1, 106074, Note_on_c, 0, 75, 72
1, 106078, Note_on_c, 0, 65, 55
1, 106082, Note_on_c, 0, 63, 61
1, 106086, Note_on_c, 0, 69, 49
1, 106090, Note_on_c, 9, 51, 0
1, 106114, Note_on_c, 0, 65, 0
1, 106138, Note_on_c, 0, 63, 0
1, 106142, Note_on_c, 9, 51, 52
1, 106146, Note_on_c, 0, 65, 50
1, 106150, Note_on_c, 0, 75, 0
1, 106154, Note_on_c, 0, 62, 55
1, 106154, Note_on_c, 0, 74, 51
1, 106166, Control_c, 0, 64, 127
1, 106174, Note_on_c, 0, 73, 34
1, 106202, Note_on_c, 9, 34, 70
1, 106214, Note_on_c, 0, 74, 0
1, 106222, Note_on_c, 0, 69, 0
1, 106238, Note_on_c, 0, 73, 0
1, 106246, Note_on_c, 9, 34, 0
1, 106262, Note_on_c, 0, 65, 0
1, 106262, Note_on_c, 0, 62, 0
1, 106266, Note_on_c, 1, 38, 63
1, 106266, Note_on_c, 9, 34, 63
1, 106274, Note_on_c, 9, 51, 0
1, 106290, Control_c, 0, 64, 0
1, 106290, Note_on_c, 0, 57, 52
1, 106298, Note_on_c, 1, 38, 0
1, 106326, Note_on_c, 9, 51, 68
1, 106330, Note_on_c, 9, 34, 0
1, 106330, Note_on_c, 1, 45, 79
1, 106330, Note_on_c, 9, 44, 67
1, 106330, Note_on_c, 9, 57, 19
1, 106330, Note_on_c, 9, 35, 44
1, 106334, Note_on_c, 0, 57, 0
1, 106342, Note_on_c, 0, 72, 55
1, 106346, Note_on_c, 0, 62, 44
1, 106350, Note_on_c, 0, 60, 56
1, 106350, Note_on_c, 0, 65, 42
1, 106354, Note_on_c, 0, 69, 39
1, 106394, Note_on_c, 0, 65, 0
1, 106402, Note_on_c, 0, 62, 0
1, 106410, Note_on_c, 9, 57, 0
1, 106414, Note_on_c, 0, 72, 0
1, 106418, Note_on_c, 0, 69, 0
1, 106426, Note_on_c, 9, 44, 0
1, 106426, Note_on_c, 9, 35, 0
1, 106446, Note_on_c, 9, 51, 0
1, 106458, Note_on_c, 1, 38, 52
1, 106462, Note_on_c, 1, 45, 0
1, 106462, Note_on_c, 0, 60, 0
1, 106474, Note_on_c, 9, 51, 39
1, 106482, Note_on_c, 0, 57, 56
1, 106486, Note_on_c, 9, 51, 0
1, 106490, Note_on_c, 1, 38, 0
1, 106514, Note_on_c, 0, 57, 0
1, 106518, Note_on_c, 9, 51, 59
1, 106534, Note_on_c, 0, 73, 65
1, 106538, Note_on_c, 0, 65, 67
1, 106538, Note_on_c, 0, 61, 65
1, 106606, Note_on_c, 0, 73, 0
1, 106614, Note_on_c, 0, 65, 0
1, 106626, Note_on_c, 0, 61, 0
1, 106650, Note_on_c, 1, 38, 83
1, 106658, Note_on_c, 0, 76, 79
1, 106658, Note_on_c, 0, 65, 65
1, 106662, Note_on_c, 0, 69, 70
1, 106662, Note_on_c, 0, 64, 78
1, 106670, Note_on_c, 9, 51, 0
1, 106694, Note_on_c, 1, 50, 0
1, 106698, Note_on_c, 0, 65, 0
1, 106702, Note_on_c, 0, 76, 0
1, 106702, Note_on_c, 0, 64, 0
1, 106714, Note_on_c, 0, 69, 0
1, 106714, Note_on_c, 9, 44, 68
1, 106718, Note_on_c, 9, 51, 74
1, 106734, Note_on_c, 0, 74, 66
1, 106734, Note_on_c, 0, 62, 61
1, 106734, Note_on_c, 0, 65, 37
1, 106742, Note_on_c, 0, 69, 54
1, 106782, Note_on_c, 0, 69, 0
1, 106802, Note_on_c, 0, 74, 0
1, 106810, Note_on_c, 9, 44, 0
1, 106814, Note_on_c, 0, 65, 0
1, 106834, Note_on_c, 0, 62, 0
1, 106854, Note_on_c, 9, 51, 0
1, 106854, Note_on_c, 0, 73, 56
1, 106858, Note_on_c, 0, 61, 65
1, 106862, Note_on_c, 0, 65, 48
1, 106862, Note_on_c, 0, 69, 58
1, 106878, Note_on_c, 0, 69, 0
1, 106906, Note_on_c, 0, 73, 0
1, 106910, Note_on_c, 0, 65, 0
1, 106914, Note_on_c, 0, 61, 0
1, 106918, Note_on_c, 9, 51, 68
1, 106974, Note_on_c, 0, 59, 38
1, 106982, Note_on_c, 0, 57, 34
1, 107010, Note_on_c, 0, 57, 0
1, 107034, Note_on_c, 1, 37, 52
1, 107042, Note_on_c, 0, 59, 0
1, 107066, Note_on_c, 9, 51, 0
1, 107086, Note_on_c, 1, 37, 0
1, 107098, Control_c, 0, 64, 127
1, 107098, Note_on_c, 0, 65, 52
1, 107098, Note_on_c, 1, 49, 90
1, 107098, Note_on_c, 9, 44, 64
1, 107102, Note_on_c, 0, 57, 57
1, 107106, Note_on_c, 0, 62, 46
1, 107106, Note_on_c, 9, 51, 62
1, 107114, Note_on_c, 1, 38, 0
1, 107154, Note_on_c, 0, 62, 0
1, 107162, Note_on_c, 0, 57, 0
1, 107170, Note_on_c, 0, 65, 0
1, 107194, Note_on_c, 9, 44, 0
1, 107210, Note_on_c, 9, 51, 0
1, 107226, Control_c, 0, 64, 40
1, 107226, Control_c, 0, 64, 0
1, 107226, Note_on_c, 1, 37, 55
1, 107246, Note_on_c, 0, 62, 57
1, 107246, Note_on_c, 0, 60, 49
1, 107250, Note_on_c, 9, 51, 38
1, 107258, Note_on_c, 0, 50, 38
1, 107258, Note_on_c, 0, 57, 42
1, 107262, Note_on_c, 9, 51, 0
1, 107262, Note_on_c, 1, 49, 0
1, 107262, Note_on_c, 0, 53, 41
1, 107274, Note_on_c, 1, 37, 0
1, 107290, Note_on_c, 1, 38, 77
1, 107290, Note_on_c, 9, 35, 24
1, 107294, Control_c, 0, 64, 127
1, 107294, Note_on_c, 9, 51, 58
1, 107382, Note_on_c, 9, 35, 0
1, 107438, Note_on_c, 9, 51, 0
1, 107470, Note_on_c, 1, 38, 0
1, 107482, Note_on_c, 1, 45, 90
1, 107482, Note_on_c, 9, 44, 65
1, 107482, Note_on_c, 9, 51, 77
1, 107494, Note_on_c, 0, 60, 0
1, 107518, Note_on_c, 0, 57, 0
1, 107550, Note_on_c, 0, 53, 0
1, 107578, Note_on_c, 9, 44, 0
1, 107590, Note_on_c, 9, 51, 0
1, 107610, Note_on_c, 9, 35, 39
1, 107622, Note_on_c, 0, 60, 56
1, 107634, Note_on_c, 0, 53, 27
1, 107634, Note_on_c, 0, 57, 45
1, 107634, Note_on_c, 9, 51, 31
1, 107642, Note_on_c, 9, 35, 0
1, 107642, Note_on_c, 0, 62, 0
1, 107646, Note_on_c, 9, 51, 0
1, 107674, Note_on_c, 9, 51, 54
1, 107706, Note_on_c, 0, 60, 0
1, 107714, Note_on_c, 0, 57, 0
1, 107802, Note_on_c, 1, 41, 76
1, 107806, Note_on_c, 1, 45, 0
1, 107810, Note_on_c, 0, 60, 50
1, 107814, Note_on_c, 0, 57, 51
1, 107822, Note_on_c, 0, 60, 0
1, 107822, Note_on_c, 9, 51, 0
1, 107830, Note_on_c, 0, 57, 0
1, 107834, Note_on_c, 1, 41, 0
1, 107838, Control_c, 0, 64, 0
1, 107854, Note_on_c, 0, 62, 54
1, 107866, Note_on_c, 1, 37, 69
1, 107866, Note_on_c, 9, 44, 63
1, 107866, Note_on_c, 9, 51, 74
1, 107874, Note_on_c, 0, 62, 0
1, 107894, Note_on_c, 0, 64, 52
1, 107918, Note_on_c, 0, 64, 0
1, 107938, Note_on_c, 0, 64, 50
1, 107962, Note_on_c, 9, 44, 0
1, 107982, Note_on_c, 0, 64, 0
1, 107986, Note_on_c, 0, 65, 73
1, 107998, Note_on_c, 9, 51, 0
1, 108014, Note_on_c, 0, 65, 0
1, 108034, Note_on_c, 0, 65, 75
1, 108054, Note_on_c, 1, 37, 0
1, 108054, Note_on_c, 9, 51, 59
1, 108058, Note_on_c, 1, 38, 78
1, 108058, Note_on_c, 9, 35, 23
1, 108070, Note_on_c, 0, 65, 0
1, 108074, Note_on_c, 0, 67, 67
1, 108090, Note_on_c, 9, 35, 0
1, 108110, Note_on_c, 0, 67, 0
1, 108126, Note_on_c, 0, 67, 50
1, 108154, Note_on_c, 0, 67, 0
1, 108154, Note_on_c, 0, 53, 0
1, 108166, Note_on_c, 9, 51, 0
1, 108170, Note_on_c, 0, 69, 66
1, 108182, Note_on_c, 0, 69, 0
1, 108182, Note_on_c, 9, 53, 74
1, 108206, Note_on_c, 0, 69, 51
1, 108230, Note_on_c, 9, 53, 0
1, 108238, Note_on_c, 0, 69, 0
1, 108250, Note_on_c, 9, 44, 63
1, 108254, Note_on_c, 9, 51, 35
1, 108346, Note_on_c, 9, 44, 0
1, 108354, Note_on_c, 0, 57, 54
1, 108370, Note_on_c, 0, 53, 40
1, 108378, Note_on_c, 0, 50, 0
1, 108394, Note_on_c, 0, 57, 0
1, 108394, Note_on_c, 9, 51, 0
1, 108406, Note_on_c, 0, 53, 0
1, 108434, Note_on_c, 0, 67, 43
1, 108434, Note_on_c, 9, 51, 63
1, 108442, Note_on_c, 1, 33, 75
1, 108446, Note_on_c, 1, 38, 0
1, 108450, Note_on_c, 0, 67, 0
1, 108506, Note_on_c, 9, 34, 36
1, 108538, Note_on_c, 9, 34, 0
1, 108558, Note_on_c, 0, 68, 76
1, 108562, Note_on_c, 0, 59, 70
1, 108566, Note_on_c, 0, 57, 57
1, 108570, Note_on_c, 9, 35, 25
1, 108578, Note_on_c, 0, 50, 39
1, 108586, Note_on_c, 0, 59, 0
1, 108586, Note_on_c, 9, 51, 0
1, 108594, Note_on_c, 0, 50, 0
1, 108602, Note_on_c, 9, 35, 0
1, 108602, Note_on_c, 0, 68, 0
1, 108614, Note_on_c, 1, 33, 0
1, 108618, Note_on_c, 0, 57, 0
1, 108634, Note_on_c, 0, 69, 42
1, 108634, Note_on_c, 1, 32, 63
1, 108634, Note_on_c, 9, 44, 63
1, 108634, Note_on_c, 9, 51, 69
1, 108634, Note_on_c, 9, 34, 52
1, 108654, Note_on_c, 0, 69, 0
1, 108670, Note_on_c, 9, 34, 0
1, 108694, Note_on_c, 0, 74, 46
1, 108714, Note_on_c, 0, 74, 0
1, 108730, Note_on_c, 9, 44, 0
1, 108754, Note_on_c, 0, 77, 75
1, 108762, Note_on_c, 9, 35, 35
1, 108774, Note_on_c, 9, 51, 0
1, 108794, Note_on_c, 9, 35, 0
1, 108802, Note_on_c, 0, 77, 0
1, 108818, Note_on_c, 0, 62, 73
1, 108818, Note_on_c, 0, 58, 61
1, 108822, Note_on_c, 1, 32, 0
1, 108826, Note_on_c, 0, 81, 90
1, 108826, Note_on_c, 0, 53, 49
1, 108826, Note_on_c, 0, 69, 88
1, 108826, Note_on_c, 1, 31, 67
1, 108826, Note_on_c, 9, 51, 62
1, 108826, Note_on_c, 9, 35, 31
1, 108830, Note_on_c, 0, 77, 72
1, 108830, Note_on_c, 0, 74, 80
1, 108834, Note_on_c, 0, 57, 45
1, 108838, Note_on_c, 0, 79, 45
1, 108842, Note_on_c, 0, 78, 31
1, 108858, Note_on_c, 9, 35, 0
1, 108870, Note_on_c, 0, 78, 0
1, 108966, Note_on_c, 9, 51, 0
1, 108970, Note_on_c, 0, 77, 0
1, 108978, Note_on_c, 0, 79, 0
1, 108994, Note_on_c, 0, 74, 0
1, 108994, Note_on_c, 0, 69, 0
1, 109010, Note_on_c, 0, 81, 0
1, 109014, Note_on_c, 9, 51, 64
1, 109018, Note_on_c, 0, 62, 0
1, 109018, Note_on_c, 9, 44, 63
1, 109030, Note_on_c, 0, 77, 55
1, 109034, Note_on_c, 0, 58, 0
1, 109034, Note_on_c, 0, 69, 44
1, 109046, Note_on_c, 0, 74, 38
1, 109110, Note_on_c, 0, 74, 0
1, 109114, Note_on_c, 9, 44, 0
1, 109122, Note_on_c, 0, 69, 0
1, 109142, Note_on_c, 9, 51, 0
1, 109146, Note_on_c, 1, 38, 55
1, 109146, Note_on_c, 9, 35, 33
1, 109154, Note_on_c, 0, 77, 0
1, 109166, Note_on_c, 0, 74, 49
1, 109170, Note_on_c, 0, 69, 48
1, 109174, Note_on_c, 0, 62, 51
1, 109178, Note_on_c, 1, 38, 0
1, 109178, Note_on_c, 9, 35, 0
1, 109178, Note_on_c, 0, 58, 49
1, 109206, Note_on_c, 9, 51, 57
1, 109210, Note_on_c, 1, 46, 67
1, 109214, Control_c, 0, 64, 127
1, 109250, Note_on_c, 0, 62, 0
1, 109282, Note_on_c, 0, 53, 0
1, 109282, Note_on_c, 0, 58, 0
1, 109290, Note_on_c, 0, 69, 0
1, 109302, Note_on_c, 0, 57, 0
1, 109326, Note_on_c, 9, 51, 0
1, 109326, Note_on_c, 0, 74, 0
1, 109338, Note_on_c, 1, 38, 50
1, 109338, Note_on_c, 9, 53, 65
1, 109354, Note_on_c, 0, 68, 81
1, 109362, Note_on_c, 0, 62, 58
1, 109362, Note_on_c, 0, 58, 56
1, 109366, Control_c, 0, 64, 0
1, 109366, Note_on_c, 0, 57, 39
1, 109366, Note_on_c, 0, 53, 43
1, 109370, Note_on_c, 9, 53, 0
1, 109370, Note_on_c, 1, 38, 0
1, 109382, Note_on_c, 1, 46, 0
1, 109398, Note_on_c, 9, 53, 58
1, 109402, Note_on_c, 1, 45, 57
1, 109402, Note_on_c, 9, 44, 62
1, 109418, Note_on_c, 0, 68, 0
1, 109426, Note_on_c, 0, 53, 0
1, 109442, Note_on_c, 0, 69, 39
1, 109446, Note_on_c, 0, 62, 0
1, 109458, Note_on_c, 0, 57, 0
1, 109466, Note_on_c, 0, 69, 0
1, 109486, Note_on_c, 0, 58, 0
1, 109498, Note_on_c, 9, 44, 0
1, 109498, Note_on_c, 0, 74, 49
1, 109522, Note_on_c, 9, 53, 0
1, 109530, Note_on_c, 9, 51, 51
1, 109534, Note_on_c, 0, 74, 0
1, 109546, Note_on_c, 0, 78, 66
1, 109566, Note_on_c, 9, 51, 0
1, 109570, Note_on_c, 1, 45, 0
1, 109590, Note_on_c, 9, 51, 45
1, 109594, Note_on_c, 0, 78, 0
1, 109594, Note_on_c, 1, 43, 69
1, 109594, Note_on_c, 9, 31, 8
1, 109618, Note_on_c, 0, 69, 89
1, 109618, Note_on_c, 0, 81, 85
1, 109618, Note_on_c, 0, 54, 63
1, 109618, Note_on_c, 0, 74, 81
1, 109618, Note_on_c, 0, 62, 68
1, 109618, Note_on_c, 0, 78, 68
1, 109622, Note_on_c, 0, 58, 68
1, 109650, Note_on_c, 9, 31, 0
1, 109710, Note_on_c, 9, 51, 0
1, 109722, Note_on_c, 9, 35, 23
1, 109726, Note_on_c, 9, 53, 71
1, 109742, Note_on_c, 0, 58, 0
1, 109746, Note_on_c, 1, 31, 0
1, 109754, Note_on_c, 9, 35, 0
1, 109762, Note_on_c, 9, 53, 0
1, 109766, Note_on_c, 0, 78, 0
1, 109770, Note_on_c, 0, 81, 0
1, 109774, Note_on_c, 0, 58, 38
1, 109778, Note_on_c, 1, 43, 0
1, 109782, Note_on_c, 0, 69, 0
1, 109786, Note_on_c, 1, 42, 71
1, 109786, Note_on_c, 9, 44, 64
1, 109786, Note_on_c, 9, 53, 53
1, 109798, Note_on_c, 0, 62, 0
1, 109798, Note_on_c, 0, 74, 0
1, 109802, Control_c, 0, 64, 24
1, 109802, Control_c, 0, 64, 127
1, 109814, Note_on_c, 0, 78, 57
1, 109818, Note_on_c, 0, 69, 54
1, 109842, Note_on_c, 0, 58, 0
1, 109882, Note_on_c, 9, 44, 0
1, 109890, Note_on_c, 0, 69, 0
1, 109898, Note_on_c, 9, 53, 0
1, 109910, Note_on_c, 9, 51, 67
1, 109942, Note_on_c, 0, 78, 0
1, 109942, Note_on_c, 0, 74, 61
1, 109946, Note_on_c, 0, 58, 49
1, 109946, Note_on_c, 0, 69, 49
1, 109946, Note_on_c, 0, 62, 31
1, 109950, Note_on_c, 9, 51, 0
1, 109974, Note_on_c, 9, 51, 48
1, 109978, Note_on_c, 9, 35, 21
1, 110030, Note_on_c, 0, 62, 0
1, 110038, Note_on_c, 0, 54, 0
1, 110046, Note_on_c, 0, 58, 0
1, 110046, Note_on_c, 0, 69, 0
1, 110066, Note_on_c, 9, 35, 0
1, 110094, Note_on_c, 0, 74, 0
1, 110106, Note_on_c, 9, 35, 29
1, 110130, Note_on_c, 9, 51, 0
1, 110130, Note_on_c, 0, 54, 59
1, 110134, Note_on_c, 0, 58, 61
1, 110134, Note_on_c, 0, 62, 57
1, 110138, Note_on_c, 9, 35, 0
1, 110146, Control_c, 0, 64, 0
1, 110166, Note_on_c, 9, 51, 54
1, 110170, Note_on_c, 9, 44, 70
1, 110234, Note_on_c, 1, 42, 0
1, 110234, Note_on_c, 1, 38, 76
1, 110266, Note_on_c, 1, 38, 0
1, 110266, Note_on_c, 9, 44, 0
1, 110298, Note_on_c, 1, 30, 75
1, 110298, Note_on_c, 9, 35, 32
1, 110314, Note_on_c, 9, 51, 0
1, 110322, Note_on_c, 0, 62, 0
1, 110330, Note_on_c, 1, 30, 0
1, 110330, Note_on_c, 9, 35, 0
1, 110338, Note_on_c, 0, 54, 0
1, 110346, Note_on_c, 0, 58, 0
1, 110358, Note_on_c, 9, 51, 56
1, 110362, Note_on_c, 1, 31, 90
1, 110366, Note_on_c, 0, 58, 26
1, 110366, Note_on_c, 0, 62, 43
1, 110370, Note_on_c, 0, 53, 49
1, 110470, Note_on_c, 0, 69, 68
1, 110482, Note_on_c, 9, 51, 0
1, 110510, Note_on_c, 0, 69, 0
1, 110530, Note_on_c, 0, 70, 58
1, 110542, Note_on_c, 0, 70, 0
1, 110554, Note_on_c, 9, 44, 65
1, 110554, Note_on_c, 9, 51, 56
1, 110554, Note_on_c, 9, 35, 18
1, 110578, Note_on_c, 0, 62, 0
1, 110594, Note_on_c, 0, 74, 58
1, 110614, Note_on_c, 0, 74, 0
1, 110618, Note_on_c, 9, 35, 0
1, 110650, Note_on_c, 9, 44, 0
1, 110650, Note_on_c, 0, 78, 77
1, 110658, Note_on_c, 0, 58, 0
1, 110682, Note_on_c, 0, 78, 0
1, 110682, Note_on_c, 9, 35, 26
1, 110698, Note_on_c, 9, 51, 0
1, 110702, Note_on_c, 0, 81, 87
1, 110714, Note_on_c, 9, 35, 0
1, 110734, Note_on_c, 1, 31, 0
1, 110742, Note_on_c, 0, 62, 31
1, 110746, Note_on_c, 1, 38, 75
1, 110754, Note_on_c, 0, 81, 0
1, 110754, Note_on_c, 9, 59, 62
1, 110758, Note_on_c, 0, 58, 26
1, 110762, Note_on_c, 0, 62, 0
1, 110762, Note_on_c, 9, 51, 49
1, 110778, Note_on_c, 0, 58, 0
1, 110782, Note_on_c, 0, 78, 41
1, 110810, Note_on_c, 9, 35, 15
1, 110818, Note_on_c, 0, 78, 0
1, 110842, Note_on_c, 9, 35, 0
1, 110882, Note_on_c, 9, 59, 0
1, 110902, Note_on_c, 9, 51, 0
1, 110902, Note_on_c, 0, 58, 39
1, 110918, Note_on_c, 0, 58, 0
1, 110938, Note_on_c, 9, 44, 69
1, 110942, Note_on_c, 9, 51, 35
1, 110942, Note_on_c, 9, 59, 54
1, 110950, Note_on_c, 0, 53, 0
1, 111034, Note_on_c, 9, 44, 0
1, 111066, Note_on_c, 1, 30, 67
1, 111066, Note_on_c, 9, 35, 40
1, 111070, Note_on_c, 9, 59, 0
1, 111074, Note_on_c, 0, 58, 58
1, 111078, Note_on_c, 0, 62, 55
1, 111082, Note_on_c, 9, 51, 0
1, 111082, Note_on_c, 0, 52, 57
1, 111098, Note_on_c, 9, 35, 0
1, 111098, Note_on_c, 1, 30, 0
1, 111130, Note_on_c, 1, 31, 69
1, 111134, Note_on_c, 1, 38, 0
1, 111134, Note_on_c, 9, 51, 45
1, 111134, Note_on_c, 9, 59, 55
1, 111150, Note_on_c, 0, 75, 60
1, 111190, Note_on_c, 0, 75, 0
1, 111214, Note_on_c, 0, 76, 58
1, 111218, Note_on_c, 9, 51, 0
1, 111222, Note_on_c, 9, 59, 0
1, 111238, Note_on_c, 0, 76, 0
1, 111258, Note_on_c, 9, 51, 64
1, 111266, Note_on_c, 0, 79, 75
1, 111274, Note_on_c, 0, 52, 0
1, 111286, Note_on_c, 0, 58, 0
1, 111294, Note_on_c, 9, 51, 0
1, 111298, Note_on_c, 0, 79, 0
1, 111310, Note_on_c, 0, 62, 0
1, 111318, Note_on_c, 1, 31, 0
1, 111322, Note_on_c, 1, 34, 72
1, 111322, Note_on_c, 9, 44, 68
1, 111326, Note_on_c, 0, 81, 88
1, 111330, Note_on_c, 9, 51, 36
1, 111358, Note_on_c, 0, 81, 0
1, 111382, Note_on_c, 0, 82, 90
1, 111418, Note_on_c, 9, 44, 0
1, 111426, Note_on_c, 0, 82, 0
1, 111450, Note_on_c, 1, 34, 0
1, 111450, Note_on_c, 0, 84, 99
1, 111450, Note_on_c, 1, 32, 69
1, 111462, Note_on_c, 9, 51, 0
1, 111470, Note_on_c, 0, 66, 64
1, 111474, Note_on_c, 0, 61, 50
1, 111482, Note_on_c, 0, 55, 39
1, 111494, Note_on_c, 0, 84, 0
1, 111498, Note_on_c, 1, 32, 0
1, 111510, Note_on_c, 9, 51, 70
1, 111514, Note_on_c, 0, 82, 74
1, 111514, Note_on_c, 1, 33, 65
1, 111534, Note_on_c, 0, 66, 0
1, 111558, Note_on_c, 0, 82, 0
1, 111570, Note_on_c, 0, 79, 68
1, 111578, Note_on_c, 0, 61, 0
1, 111602, Note_on_c, 0, 79, 0
1, 111630, Note_on_c, 0, 61, 45
1, 111630, Note_on_c, 0, 73, 68
1, 111642, Note_on_c, 1, 32, 61
1, 111642, Note_on_c, 9, 34, 59
1, 111654, Note_on_c, 0, 73, 0
1, 111666, Note_on_c, 9, 51, 0
1, 111674, Note_on_c, 1, 32, 0
1, 111678, Note_on_c, 1, 33, 0
1, 111694, Note_on_c, 0, 72, 53
1, 111706, Note_on_c, 1, 40, 70
1, 111706, Note_on_c, 9, 46, 42
1, 111706, Note_on_c, 9, 51, 58
1, 111706, Note_on_c, 9, 57, 17
1, 111706, Note_on_c, 9, 35, 26
1, 111714, Note_on_c, 9, 34, 0
1, 111722, Note_on_c, 0, 61, 0
1, 111730, Note_on_c, 0, 55, 0
1, 111734, Note_on_c, 0, 72, 0
1, 111738, Note_on_c, 9, 57, 0
1, 111758, Note_on_c, 0, 70, 65
1, 111778, Note_on_c, 9, 35, 0
1, 111802, Note_on_c, 9, 46, 0
1, 111806, Note_on_c, 9, 51, 0
1, 111806, Note_on_c, 0, 70, 0
1, 111822, Note_on_c, 0, 69, 76
1, 111826, Note_on_c, 1, 40, 0
1, 111834, Note_on_c, 1, 37, 56
1, 111834, Note_on_c, 9, 35, 44
1, 111846, Note_on_c, 9, 51, 37
1, 111862, Note_on_c, 9, 51, 0
1, 111874, Note_on_c, 0, 69, 0
1, 111878, Note_on_c, 1, 37, 0
1, 111886, Note_on_c, 0, 57, 46
1, 111890, Note_on_c, 0, 50, 35
1, 111894, Note_on_c, 0, 60, 30
1, 111894, Note_on_c, 0, 67, 57
1, 111894, Note_on_c, 9, 51, 56
1, 111898, Note_on_c, 1, 38, 68
1, 111998, Note_on_c, 0, 67, 0
1, 112018, Note_on_c, 0, 65, 58
1, 112038, Note_on_c, 0, 60, 0
1, 112046, Note_on_c, 9, 51, 0
1, 112074, Note_on_c, 9, 35, 0
1, 112074, Note_on_c, 0, 65, 0
1, 112086, Note_on_c, 9, 51, 67
1, 112090, Note_on_c, 0, 64, 52
1, 112090, Note_on_c, 9, 44, 63
1, 112126, Note_on_c, 0, 57, 0
1, 112186, Note_on_c, 9, 44, 0
1, 112194, Note_on_c, 0, 64, 0
1, 112210, Note_on_c, 9, 51, 0
1, 112218, Note_on_c, 1, 45, 60
1, 112226, Note_on_c, 0, 65, 57
1, 112238, Note_on_c, 0, 57, 45
1, 112246, Note_on_c, 9, 51, 23
1, 112250, Note_on_c, 1, 45, 0
1, 112262, Note_on_c, 9, 51, 0
1, 112274, Note_on_c, 1, 38, 0
1, 112282, Note_on_c, 1, 53, 94
1, 112286, Note_on_c, 9, 51, 67
1, 112294, Note_on_c, 0, 65, 0
1, 112306, Note_on_c, 0, 57, 0
1, 112306, Note_on_c, 0, 62, 46
1, 112366, Note_on_c, 1, 53, 0
1, 112378, Note_on_c, 0, 62, 0
1, 112410, Note_on_c, 0, 65, 81
1, 112410, Note_on_c, 1, 53, 93
1, 112426, Note_on_c, 9, 51, 0
1, 112430, Note_on_c, 0, 57, 38
1, 112442, Note_on_c, 1, 53, 0
1, 112474, Note_on_c, 1, 52, 72
1, 112474, Note_on_c, 9, 44, 67
1, 112474, Note_on_c, 9, 51, 75
1, 112486, Note_on_c, 0, 65, 0
1, 112498, Note_on_c, 0, 57, 0
1, 112510, Note_on_c, 0, 64, 45
1, 112570, Note_on_c, 9, 44, 0
1, 112594, Note_on_c, 9, 51, 0
1, 112602, Note_on_c, 0, 64, 0
1, 112602, Note_on_c, 9, 35, 32
1, 112610, Note_on_c, 0, 50, 0
1, 112618, Note_on_c, 0, 65, 75
1, 112626, Note_on_c, 9, 51, 37
1, 112642, Note_on_c, 9, 51, 0
1, 112642, Note_on_c, 9, 35, 0
1, 112654, Note_on_c, 1, 52, 0
1, 112666, Note_on_c, 1, 50, 81
1, 112666, Note_on_c, 9, 51, 65
1, 112666, Note_on_c, 9, 35, 25
1, 112682, Note_on_c, 0, 65, 0
1, 112698, Note_on_c, 9, 35, 0
1, 112706, Note_on_c, 0, 62, 50
1, 112762, Note_on_c, 0, 62, 0
1, 112806, Note_on_c, 9, 51, 0
1, 112806, Note_on_c, 0, 65, 79
1, 112822, Note_on_c, 0, 55, 39
1, 112838, Note_on_c, 0, 55, 0
1, 112838, Note_on_c, 1, 50, 0
1, 112858, Note_on_c, 1, 45, 74
1, 112858, Note_on_c, 9, 44, 70
1, 112858, Note_on_c, 9, 51, 75
1, 112870, Note_on_c, 0, 65, 0
1, 112886, Note_on_c, 0, 64, 57
1, 112954, Note_on_c, 9, 44, 0
1, 112978, Note_on_c, 0, 64, 0
1, 112998, Note_on_c, 1, 45, 0
1, 113002, Note_on_c, 9, 51, 0
1, 113002, Note_on_c, 0, 65, 72
1, 113006, Note_on_c, 0, 55, 57
1, 113042, Note_on_c, 0, 55, 0
1, 113042, Note_on_c, 0, 65, 0
1, 113050, Note_on_c, 1, 41, 56
1, 113050, Note_on_c, 9, 51, 75
1, 113078, Note_on_c, 0, 50, 52
1, 113078, Note_on_c, 0, 62, 51
1, 113122, Note_on_c, 0, 50, 0
1, 113146, Note_on_c, 0, 62, 0
1, 113178, Note_on_c, 1, 41, 0
1, 113178, Note_on_c, 1, 38, 81
1, 113186, Note_on_c, 9, 51, 0
1, 113186, Note_on_c, 0, 55, 61
1, 113190, Note_on_c, 0, 65, 80
1, 113210, Note_on_c, 1, 38, 0
1, 113230, Note_on_c, 0, 55, 0
1, 113234, Note_on_c, 9, 51, 74
1, 113242, Note_on_c, 1, 37, 54
1, 113242, Note_on_c, 9, 44, 62
1, 113246, Note_on_c, 0, 65, 0
1, 113266, Note_on_c, 0, 53, 45
1, 113274, Note_on_c, 0, 64, 61
1, 113278, Note_on_c, 0, 53, 0
1, 113290, Note_on_c, 0, 65, 41
1, 113314, Note_on_c, 0, 64, 0
1, 113338, Note_on_c, 9, 44, 0
1, 113338, Note_on_c, 0, 65, 0
1, 113350, Control_c, 0, 64, 127
1, 113362, Note_on_c, 9, 51, 0
1, 113370, Note_on_c, 1, 34, 39
1, 113370, Note_on_c, 9, 35, 42
1, 113378, Note_on_c, 0, 65, 48
1, 113386, Note_on_c, 9, 51, 55
1, 113394, Note_on_c, 0, 49, 32
1, 113402, Note_on_c, 9, 35, 0
1, 113402, Note_on_c, 1, 37, 0
1, 113406, Note_on_c, 9, 51, 0
1, 113410, Note_on_c, 1, 34, 0
1, 113414, Note_on_c, 0, 49, 0
1, 113414, Note_on_c, 0, 65, 0
1, 113430, Note_on_c, 9, 51, 74
1, 113434, Control_c, 0, 64, 0
1, 113434, Note_on_c, 1, 38, 63
1, 113458, Note_on_c, 0, 50, 67
1, 113466, Note_on_c, 0, 54, 64
1, 113474, Note_on_c, 0, 60, 58
1, 113474, Note_on_c, 0, 65, 49
1, 113490, Note_on_c, 0, 65, 0
1, 113526, Note_on_c, 0, 54, 0
1, 113530, Note_on_c, 0, 60, 0
1, 113542, Note_on_c, 0, 50, 0
1, 113566, Note_on_c, 9, 51, 0
1, 113574, Note_on_c, 0, 65, 76
1, 113578, Note_on_c, 0, 54, 76
1, 113578, Note_on_c, 0, 60, 68
1, 113622, Note_on_c, 0, 54, 0
1, 113622, Note_on_c, 0, 65, 0
1, 113626, Note_on_c, 0, 60, 0
1, 113626, Note_on_c, 1, 45, 81
1, 113626, Note_on_c, 9, 44, 69
1, 113626, Note_on_c, 9, 51, 77
1, 113662, Note_on_c, 0, 63, 45
1, 113666, Note_on_c, 0, 51, 27
1, 113682, Note_on_c, 0, 60, 29
1, 113686, Note_on_c, 0, 51, 0
1, 113706, Note_on_c, 0, 60, 0
1, 113722, Note_on_c, 9, 44, 0
1, 113738, Note_on_c, 0, 63, 0
1, 113746, Note_on_c, 9, 51, 0
1, 113758, Note_on_c, 0, 51, 39
1, 113762, Note_on_c, 0, 65, 73
1, 113766, Note_on_c, 0, 54, 72
1, 113770, Note_on_c, 1, 38, 0
1, 113770, Note_on_c, 0, 60, 58
1, 113770, Note_on_c, 0, 53, 57
1, 113774, Note_on_c, 9, 51, 35
1, 113778, Note_on_c, 0, 51, 0
1, 113782, Note_on_c, 0, 60, 0
1, 113786, Note_on_c, 1, 45, 0
1, 113786, Note_on_c, 0, 53, 0
1, 113790, Note_on_c, 9, 51, 0
1, 113794, Note_on_c, 0, 65, 0
1, 113802, Note_on_c, 0, 54, 0
1, 113814, Note_on_c, 9, 51, 62
1, 113818, Note_on_c, 1, 54, 90
1, 113842, Note_on_c, 0, 50, 52
1, 113854, Note_on_c, 0, 54, 36
1, 113858, Note_on_c, 0, 62, 39
1, 113894, Note_on_c, 0, 54, 0
1, 113922, Note_on_c, 0, 62, 0
1, 113946, Note_on_c, 9, 51, 0
1, 113946, Note_on_c, 9, 34, 36
1, 113950, Note_on_c, 0, 38, 67
1, 113954, Note_on_c, 0, 65, 83
1, 113954, Note_on_c, 0, 54, 80
1, 113962, Note_on_c, 0, 38, 0
1, 113962, Note_on_c, 0, 60, 63
1, 113970, Note_on_c, 0, 50, 0
1, 113978, Note_on_c, 1, 54, 0
1, 113978, Note_on_c, 9, 34, 0
1, 113986, Note_on_c, 0, 65, 0
1, 113994, Note_on_c, 0, 54, 0
1, 114002, Note_on_c, 9, 51, 76
1, 114006, Note_on_c, 0, 60, 0
1, 114010, Note_on_c, 1, 52, 82
1, 114010, Note_on_c, 9, 44, 59
1, 114010, Note_on_c, 9, 35, 23
1, 114026, Note_on_c, 0, 53, 56
1, 114042, Note_on_c, 0, 63, 41
1, 114046, Note_on_c, 9, 35, 0
1, 114054, Note_on_c, 0, 54, 14
1, 114086, Note_on_c, 0, 54, 0
1, 114094, Note_on_c, 0, 53, 0
1, 114106, Note_on_c, 9, 44, 0
1, 114114, Note_on_c, 0, 63, 0
1, 114122, Note_on_c, 9, 51, 0
1, 114138, Note_on_c, 1, 37, 45
1, 114142, Note_on_c, 0, 65, 61
1, 114146, Note_on_c, 0, 54, 63
1, 114146, Note_on_c, 0, 60, 58
1, 114150, Note_on_c, 0, 51, 43
1, 114150, Note_on_c, 0, 53, 58
1, 114154, Note_on_c, 0, 54, 0
1, 114154, Note_on_c, 0, 65, 0
1, 114154, Note_on_c, 9, 51, 31
1, 114158, Note_on_c, 0, 63, 40
1, 114166, Note_on_c, 0, 53, 0
1, 114170, Note_on_c, 1, 37, 0
1, 114170, Note_on_c, 9, 51, 0
1, 114174, Note_on_c, 1, 52, 0
1, 114178, Note_on_c, 0, 63, 0
1, 114178, Note_on_c, 0, 51, 0
1, 114190, Note_on_c, 0, 60, 0
1, 114194, Note_on_c, 9, 51, 64
1, 114202, Note_on_c, 1, 45, 74
1, 114210, Note_on_c, 0, 54, 74
1, 114214, Note_on_c, 0, 66, 75
1, 114214, Note_on_c, 0, 60, 67
1, 114274, Note_on_c, 0, 66, 0
1, 114290, Note_on_c, 0, 54, 0
1, 114302, Note_on_c, 0, 60, 0
1, 114338, Note_on_c, 9, 51, 0
1, 114338, Note_on_c, 0, 51, 61
1, 114370, Note_on_c, 0, 51, 0
1, 114378, Note_on_c, 1, 45, 0
1, 114382, Note_on_c, 9, 51, 81
1, 114394, Note_on_c, 1, 42, 71
1, 114394, Note_on_c, 9, 44, 60
1, 114402, Note_on_c, 0, 54, 83
1, 114402, Note_on_c, 0, 65, 77
1, 114406, Note_on_c, 0, 60, 74
1, 114406, Note_on_c, 0, 53, 59
1, 114490, Note_on_c, 9, 44, 0
1, 114498, Note_on_c, 9, 51, 0
1, 114506, Note_on_c, 0, 65, 0
1, 114510, Note_on_c, 0, 54, 0
1, 114522, Note_on_c, 0, 60, 0
1, 114522, Note_on_c, 1, 34, 56
1, 114534, Note_on_c, 0, 53, 0
1, 114534, Note_on_c, 9, 51, 29
1, 114542, Note_on_c, 0, 49, 57
1, 114546, Note_on_c, 9, 51, 0
1, 114554, Note_on_c, 1, 34, 0
1, 114578, Note_on_c, 9, 51, 56
1, 114582, Note_on_c, 1, 42, 0
1, 114582, Note_on_c, 0, 49, 0
1, 114586, Note_on_c, 1, 38, 73
1, 114594, Note_on_c, 0, 63, 66
1, 114594, Note_on_c, 0, 50, 66
1, 114598, Note_on_c, 0, 60, 63
1, 114610, Note_on_c, 0, 54, 24
1, 114662, Note_on_c, 0, 54, 0
1, 114682, Note_on_c, 1, 38, 0
1, 114682, Note_on_c, 0, 50, 0
1, 114706, Note_on_c, 0, 60, 0
1, 114714, Note_on_c, 9, 51, 0
1, 114714, Note_on_c, 1, 33, 73
1, 114726, Note_on_c, 0, 63, 0
1, 114730, Note_on_c, 0, 50, 40
1, 114746, Note_on_c, 1, 33, 0
1, 114754, Note_on_c, 0, 50, 0
1, 114770, Note_on_c, 0, 54, 56
1, 114778, Note_on_c, 0, 44, 57
1, 114778, Note_on_c, 1, 32, 74
1, 114778, Note_on_c, 9, 44, 62
1, 114778, Note_on_c, 9, 51, 74
1, 114794, Note_on_c, 0, 62, 54
1, 114798, Control_c, 0, 64, 127
1, 114838, Note_on_c, 0, 62, 0
1, 114858, Note_on_c, 0, 54, 0
1, 114874, Note_on_c, 9, 44, 0
1, 114882, Note_on_c, 0, 44, 0
1, 114882, Note_on_c, 9, 51, 0
1, 114898, Control_c, 0, 64, 0
1, 114906, Note_on_c, 0, 58, 74
1, 114906, Note_on_c, 9, 53, 70
1, 114906, Note_on_c, 9, 31, 41
1, 114910, Note_on_c, 0, 53, 58
1, 114910, Note_on_c, 0, 57, 63
1, 114914, Note_on_c, 0, 43, 58
1, 114934, Note_on_c, 1, 32, 0
1, 114938, Note_on_c, 9, 31, 0
1, 114950, Note_on_c, 9, 53, 0
1, 114962, Control_c, 0, 64, 127
1, 114970, Note_on_c, 1, 31, 71
1, 114970, Note_on_c, 9, 35, 19
1, 114978, Note_on_c, 9, 51, 38
1, 115026, Note_on_c, 9, 35, 0
1, 115046, Note_on_c, 0, 57, 0
1, 115098, Note_on_c, 9, 35, 29
1, 115106, Note_on_c, 0, 43, 0
1, 115106, Note_on_c, 0, 58, 0
1, 115110, Note_on_c, 0, 46, 66
1, 115114, Note_on_c, 9, 51, 0
1, 115114, Note_on_c, 0, 57, 72
1, 115118, Note_on_c, 0, 53, 0
1, 115130, Note_on_c, 9, 35, 0
1, 115142, Control_c, 0, 64, 0
1, 115158, Note_on_c, 0, 57, 0
1, 115162, Note_on_c, 9, 44, 63
1, 115162, Note_on_c, 9, 51, 73
1, 115186, Note_on_c, 0, 58, 41
1, 115186, Note_on_c, 0, 50, 68
1, 115202, Note_on_c, 0, 58, 0
1, 115202, Note_on_c, 0, 46, 0
1, 115202, Control_c, 0, 64, 127
1, 115222, Note_on_c, 0, 50, 0
1, 115258, Note_on_c, 9, 44, 0
1, 115290, Note_on_c, 9, 51, 0
1, 115298, Control_c, 0, 64, 0
1, 115302, Note_on_c, 1, 31, 0
1, 115302, Note_on_c, 0, 72, 82
1, 115302, Note_on_c, 0, 65, 85
1, 115302, Note_on_c, 0, 62, 88
1, 115306, Note_on_c, 0, 69, 79
1, 115306, Note_on_c, 0, 60, 85
1, 115354, Control_c, 0, 64, 127
1, 115354, Note_on_c, 1, 38, 74
1, 115358, Note_on_c, 9, 51, 60
1, 115382, Note_on_c, 0, 69, 0
1, 115386, Note_on_c, 0, 72, 0
1, 115390, Note_on_c, 0, 65, 0
1, 115390, Note_on_c, 0, 60, 0
1, 115398, Note_on_c, 0, 62, 0
1, 115474, Control_c, 0, 64, 0
1, 115478, Note_on_c, 1, 38, 0
1, 115482, Note_on_c, 1, 34, 58
1, 115490, Note_on_c, 0, 58, 82
1, 115490, Note_on_c, 0, 62, 71
1, 115494, Note_on_c, 0, 57, 82
1, 115494, Note_on_c, 0, 65, 63
1, 115494, Note_on_c, 0, 69, 66
1, 115498, Note_on_c, 9, 51, 0
1, 115514, Note_on_c, 1, 34, 0
1, 115534, Control_c, 0, 64, 127
1, 115546, Note_on_c, 1, 35, 72
1, 115546, Note_on_c, 9, 44, 62
1, 115546, Note_on_c, 9, 51, 74
1, 115550, Note_on_c, 0, 58, 0
1, 115554, Note_on_c, 0, 57, 0
1, 115562, Note_on_c, 0, 62, 0
1, 115562, Note_on_c, 0, 65, 0
1, 115570, Note_on_c, 0, 69, 0
1, 115642, Note_on_c, 9, 44, 0
1, 115650, Note_on_c, 9, 51, 0
1, 115674, Note_on_c, 1, 34, 40
1, 115674, Note_on_c, 9, 35, 31
1, 115678, Note_on_c, 0, 75, 94
1, 115682, Note_on_c, 0, 64, 98
1, 115682, Control_c, 0, 64, 0
1, 115686, Note_on_c, 0, 63, 86
1, 115686, Note_on_c, 9, 51, 42
1, 115690, Note_on_c, 0, 67, 58
1, 115698, Note_on_c, 1, 35, 0
1, 115698, Note_on_c, 0, 70, 31
1, 115706, Note_on_c, 9, 51, 0
1, 115706, Note_on_c, 9, 35, 0
1, 115710, Note_on_c, 1, 34, 0
1, 115718, Note_on_c, 0, 70, 0
1, 115734, Note_on_c, 9, 51, 55
1, 115738, Note_on_c, 1, 36, 71
1, 115766, Control_c, 0, 64, 127
1, 115790, Note_on_c, 0, 67, 0
1, 115798, Note_on_c, 0, 64, 0
1, 115826, Note_on_c, 0, 75, 0
1, 115846, Note_on_c, 0, 63, 0
1, 115858, Note_on_c, 0, 73, 74
1, 115862, Note_on_c, 0, 64, 73
1, 115866, Note_on_c, 0, 67, 63
1, 115866, Note_on_c, 0, 61, 72
1, 115866, Note_on_c, 0, 70, 60
1, 115870, Control_c, 0, 64, 0
1, 115890, Note_on_c, 9, 51, 0
1, 115906, Note_on_c, 0, 67, 0
1, 115906, Note_on_c, 0, 64, 0
1, 115906, Control_c, 0, 64, 127
1, 115918, Note_on_c, 1, 36, 0
1, 115918, Note_on_c, 0, 61, 0
1, 115922, Note_on_c, 0, 70, 0
1, 115922, Note_on_c, 9, 51, 70
1, 115926, Note_on_c, 0, 73, 0
1, 115930, Note_on_c, 1, 40, 74
1, 115930, Note_on_c, 9, 44, 64
1, 116026, Note_on_c, 9, 44, 0
1, 116038, Note_on_c, 9, 51, 0
1, 116038, Control_c, 0, 64, 0
1, 116050, Note_on_c, 0, 81, 76
1, 116050, Note_on_c, 0, 70, 66
1, 116054, Note_on_c, 0, 73, 61
1, 116062, Note_on_c, 0, 69, 68
1, 116062, Note_on_c, 0, 76, 49
1, 116074, Note_on_c, 9, 51, 37
1, 116086, Note_on_c, 1, 40, 0
1, 116090, Note_on_c, 9, 51, 0
1, 116102, Control_c, 0, 64, 127
1, 116118, Note_on_c, 9, 51, 59
1, 116122, Note_on_c, 1, 48, 83
1, 116154, Note_on_c, 0, 73, 0
1, 116158, Note_on_c, 0, 76, 0
1, 116162, Note_on_c, 0, 70, 0
1, 116190, Note_on_c, 0, 81, 0
1, 116234, Note_on_c, 0, 69, 0
1, 116242, Note_on_c, 0, 70, 61
1, 116246, Note_on_c, 0, 67, 57
1, 116246, Note_on_c, 0, 73, 55
1, 116250, Note_on_c, 1, 36, 59
1, 116250, Note_on_c, 9, 34, 29
1, 116258, Note_on_c, 0, 79, 44
1, 116274, Note_on_c, 9, 51, 0
1, 116278, Note_on_c, 0, 76, 27
1, 116282, Note_on_c, 9, 34, 0
1, 116282, Note_on_c, 1, 36, 0
1, 116290, Note_on_c, 0, 67, 0
1, 116302, Note_on_c, 0, 79, 0
1, 116306, Note_on_c, 0, 76, 0
1, 116310, Note_on_c, 0, 70, 0
1, 116314, Note_on_c, 1, 40, 59
1, 116314, Note_on_c, 9, 44, 64
1, 116314, Note_on_c, 9, 51, 72
1, 116326, Note_on_c, 0, 73, 0
1, 116410, Note_on_c, 9, 44, 0
1, 116434, Note_on_c, 9, 51, 0
1, 116438, Control_c, 0, 64, 40
1, 116438, Control_c, 0, 64, 0
1, 116442, Note_on_c, 9, 35, 21
1, 116446, Note_on_c, 1, 48, 0
1, 116446, Note_on_c, 0, 72, 63
1, 116446, Note_on_c, 0, 79, 68
1, 116450, Note_on_c, 0, 69, 63
1, 116454, Note_on_c, 0, 64, 57
1, 116458, Note_on_c, 9, 51, 42
1, 116474, Note_on_c, 9, 51, 0
1, 116474, Note_on_c, 9, 35, 0
1, 116482, Note_on_c, 1, 40, 0
1, 116506, Control_c, 0, 64, 127
1, 116506, Note_on_c, 1, 48, 95
1, 116510, Note_on_c, 9, 51, 62
1, 116542, Note_on_c, 0, 79, 0
1, 116570, Note_on_c, 0, 72, 0
1, 116574, Note_on_c, 0, 69, 0
1, 116614, Note_on_c, 0, 64, 0
1, 116634, Control_c, 0, 64, 0
1, 116642, Note_on_c, 0, 77, 74
1, 116642, Note_on_c, 0, 72, 73
1, 116642, Note_on_c, 0, 62, 68
1, 116646, Note_on_c, 0, 69, 67
1, 116658, Note_on_c, 9, 51, 0
1, 116674, Note_on_c, 1, 48, 0
1, 116694, Control_c, 0, 64, 127
1, 116698, Note_on_c, 1, 36, 103
1, 116698, Note_on_c, 9, 44, 64
1, 116706, Note_on_c, 9, 51, 76
1, 116790, Note_on_c, 0, 77, 0
1, 116794, Note_on_c, 0, 72, 0
1, 116794, Note_on_c, 9, 44, 0
1, 116814, Note_on_c, 0, 69, 0
1, 116842, Note_on_c, 9, 51, 0
1, 116870, Note_on_c, 0, 62, 0
1, 116882, Control_c, 0, 64, 0
1, 116894, Note_on_c, 9, 51, 71
1, 116902, Note_on_c, 0, 76, 54
1, 116906, Note_on_c, 0, 60, 53
1, 116906, Note_on_c, 0, 67, 41
1, 116906, Note_on_c, 0, 71, 52
1, 116954, Note_on_c, 0, 71, 0
1, 116954, Note_on_c, 0, 67, 0
1, 117010, Note_on_c, 0, 76, 0
1, 117014, Note_on_c, 9, 51, 0
1, 117018, Note_on_c, 1, 34, 44
1, 117042, Note_on_c, 0, 60, 0
1, 117050, Note_on_c, 1, 36, 0
1, 117058, Note_on_c, 1, 34, 0
1, 117078, Note_on_c, 9, 51, 76
1, 117082, Note_on_c, 1, 48, 111
1, 117082, Note_on_c, 9, 44, 67
1, 117086, Note_on_c, 0, 57, 53
1, 117090, Note_on_c, 0, 67, 48
1, 117094, Note_on_c, 0, 74, 62
1, 117094, Note_on_c, 0, 71, 51
1, 117106, Control_c, 0, 64, 127
1, 117130, Note_on_c, 0, 57, 0
1, 117142, Note_on_c, 0, 71, 0
1, 117146, Note_on_c, 0, 67, 0
1, 117154, Note_on_c, 0, 74, 0
1, 117178, Note_on_c, 9, 44, 0
1, 117206, Note_on_c, 9, 51, 0
1, 117230, Note_on_c, 9, 51, 59
1, 117250, Control_c, 0, 64, 0
1, 117262, Note_on_c, 9, 51, 0
1, 117274, Note_on_c, 0, 73, 66
1, 117282, Note_on_c, 0, 55, 52
1, 117282, Note_on_c, 9, 51, 70
1, 117294, Note_on_c, 0, 64, 34
1, 117318, Note_on_c, 0, 73, 0
1, 117342, Note_on_c, 0, 64, 0
1, 117422, Note_on_c, 0, 55, 0
1, 117426, Note_on_c, 9, 51, 0
1, 117462, Note_on_c, 0, 72, 65
1, 117466, Note_on_c, 1, 36, 79
1, 117466, Note_on_c, 9, 44, 68
1, 117466, Note_on_c, 9, 51, 71
1, 117470, Note_on_c, 0, 65, 57
1, 117474, Note_on_c, 0, 61, 58
1, 117478, Note_on_c, 0, 45, 50
1, 117478, Note_on_c, 0, 55, 43
1, 117526, Note_on_c, 1, 36, 0
1, 117562, Note_on_c, 9, 51, 0
1, 117562, Note_on_c, 9, 44, 0
1, 117594, Note_on_c, 0, 72, 0
1, 117594, Note_on_c, 0, 61, 0
1, 117594, Note_on_c, 1, 36, 64
1, 117606, Note_on_c, 0, 65, 0
1, 117610, Note_on_c, 0, 55, 0
1, 117626, Note_on_c, 1, 36, 0
1, 117634, Note_on_c, 1, 48, 0
1, 117658, Note_on_c, 1, 37, 72
1, 117658, Note_on_c, 9, 51, 63
1, 117670, Note_on_c, 0, 70, 66
1, 117670, Note_on_c, 0, 61, 57
1, 117678, Note_on_c, 0, 65, 57
1, 117678, Note_on_c, 0, 55, 54
1, 117686, Control_c, 0, 64, 127
1, 117694, Note_on_c, 0, 45, 0
1, 117730, Note_on_c, 0, 55, 0
1, 117774, Note_on_c, 0, 65, 0
1, 117782, Note_on_c, 0, 61, 0
1, 117782, Note_on_c, 9, 51, 0
1, 117786, Note_on_c, 0, 70, 0
1, 117850, Note_on_c, 9, 46, 59
1, 117850, Note_on_c, 9, 59, 74
1, 117850, Note_on_c, 9, 35, 15
1, 117854, Note_on_c, 9, 51, 60
1, 117858, Control_c, 0, 64, 0
1, 117858, Note_on_c, 0, 51, 54
1, 117862, Note_on_c, 0, 61, 54
1, 117866, Note_on_c, 0, 69, 60
1, 117866, Note_on_c, 0, 58, 46
1, 117866, Note_on_c, 0, 65, 55
1, 117894, Note_on_c, 9, 35, 0
1, 117902, Note_on_c, 1, 37, 0
1, 117914, Note_on_c, 1, 52, 77
1, 117918, Note_on_c, 0, 61, 0
1, 117946, Note_on_c, 1, 52, 0
1, 117946, Note_on_c, 9, 46, 0
1, 117978, Note_on_c, 9, 51, 0
1, 117978, Note_on_c, 9, 59, 0
1, 117978, Note_on_c, 1, 37, 69
1, 117978, Note_on_c, 9, 35, 36
1, 117986, Note_on_c, 0, 69, 0
1, 117986, Note_on_c, 0, 65, 0
1, 117998, Note_on_c, 0, 58, 0
1, 117998, Note_on_c, 9, 49, 19
1, 118006, Note_on_c, 0, 51, 0
1, 118006, Note_on_c, 0, 67, 63
1, 118006, Note_on_c, 0, 64, 48
1, 118010, Note_on_c, 1, 37, 0
1, 118010, Note_on_c, 9, 35, 0
1, 118022, Note_on_c, 9, 49, 0
1, 118022, Note_on_c, 0, 50, 52
1, 118026, Note_on_c, 0, 57, 48
1, 118042, Note_on_c, 1, 50, 92
1, 118042, Note_on_c, 9, 51, 51
1, 118042, Note_on_c, 9, 59, 66
1, 118170, Note_on_c, 1, 38, 51
1, 118182, Note_on_c, 0, 64, 0
1, 118186, Note_on_c, 9, 59, 0
1, 118198, Note_on_c, 1, 50, 0
1, 118202, Note_on_c, 1, 38, 0
1, 118210, Note_on_c, 9, 51, 0
1, 118218, Note_on_c, 0, 67, 0
1, 118234, Note_on_c, 0, 62, 56
1, 118234, Note_on_c, 1, 45, 45
1, 118234, Note_on_c, 1, 47, 44
1, 118234, Note_on_c, 9, 44, 67
1, 118234, Note_on_c, 9, 48, 29
1, 118238, Note_on_c, 0, 65, 48
1, 118238, Note_on_c, 9, 51, 56
1, 118238, Note_on_c, 9, 59, 63
1, 118266, Note_on_c, 1, 47, 0
1, 118286, Note_on_c, 0, 57, 0
1, 118302, Note_on_c, 0, 62, 0
1, 118330, Note_on_c, 9, 44, 0
1, 118334, Note_on_c, 9, 48, 0
1, 118350, Note_on_c, 0, 65, 0
1, 118362, Note_on_c, 9, 48, 36
1, 118366, Note_on_c, 0, 64, 62
1, 118370, Note_on_c, 0, 67, 63
1, 118374, Note_on_c, 0, 57, 48
1, 118378, Note_on_c, 9, 59, 0
1, 118386, Note_on_c, 9, 51, 0
1, 118394, Note_on_c, 9, 48, 0
1, 118406, Note_on_c, 0, 64, 0
1, 118414, Note_on_c, 0, 67, 0
1, 118418, Note_on_c, 9, 59, 56
1, 118426, Note_on_c, 1, 45, 0
1, 118426, Note_on_c, 1, 41, 67
1, 118426, Note_on_c, 9, 51, 47
1, 118446, Note_on_c, 0, 65, 39
1, 118450, Note_on_c, 0, 62, 32
1, 118470, Note_on_c, 0, 57, 0
1, 118506, Note_on_c, 0, 62, 0
1, 118510, Note_on_c, 0, 50, 0
1, 118518, Note_on_c, 0, 65, 0
1, 118562, Note_on_c, 9, 59, 0
1, 118574, Note_on_c, 9, 51, 0
1, 118574, Note_on_c, 0, 57, 57
1, 118578, Note_on_c, 0, 50, 40
1, 118602, Note_on_c, 0, 57, 0
1, 118610, Note_on_c, 0, 50, 0
1, 118610, Note_on_c, 9, 51, 44
1, 118610, Note_on_c, 9, 59, 60
1, 118618, Note_on_c, 1, 38, 69
1, 118618, Note_on_c, 9, 44, 68
1, 118618, Note_on_c, 9, 37, 82
1, 118690, Note_on_c, 9, 37, 0
1, 118714, Note_on_c, 9, 44, 0
1, 118730, Note_on_c, 1, 41, 0
1, 118730, Note_on_c, 9, 51, 0
1, 118734, Note_on_c, 9, 59, 0
1, 118742, Note_on_c, 9, 50, 44
1, 118746, Note_on_c, 1, 34, 51
1, 118758, Note_on_c, 0, 49, 46
1, 118762, Note_on_c, 0, 57, 40
1, 118774, Note_on_c, 9, 50, 0
1, 118794, Note_on_c, 1, 38, 0
1, 118794, Note_on_c, 1, 34, 0
1, 118802, Note_on_c, 9, 59, 58
1, 118806, Note_on_c, 9, 51, 48
1, 118810, Note_on_c, 1, 49, 91
1, 118914, Note_on_c, 0, 57, 0
1, 118938, Note_on_c, 9, 59, 0
1, 118962, Note_on_c, 9, 51, 0
1, 119002, Note_on_c, 9, 44, 67
1, 119002, Note_on_c, 9, 59, 62
1, 119002, Note_on_c, 9, 48, 22
1, 119006, Note_on_c, 0, 86, 81
1, 119006, Note_on_c, 9, 51, 42
1, 119010, Note_on_c, 0, 79, 68
1, 119030, Note_on_c, 0, 79, 0
1, 119046, Note_on_c, 0, 86, 0
1, 119066, Note_on_c, 1, 49, 0
1, 119066, Note_on_c, 1, 45, 81
1, 119098, Note_on_c, 1, 45, 0
1, 119098, Note_on_c, 9, 44, 0
1, 119122, Note_on_c, 9, 48, 0
1, 119130, Note_on_c, 9, 59, 0
1, 119130, Note_on_c, 1, 41, 81
1, 119130, Note_on_c, 9, 48, 31
1, 119142, Note_on_c, 9, 51, 0
1, 119142, Note_on_c, 0, 79, 72
1, 119142, Note_on_c, 0, 86, 64
1, 119158, Note_on_c, 0, 57, 46
1, 119162, Note_on_c, 1, 41, 0
1, 119178, Note_on_c, 0, 79, 0
1, 119178, Note_on_c, 9, 48, 0
1, 119182, Note_on_c, 0, 86, 0
1, 119186, Note_on_c, 9, 59, 61
1, 119194, Note_on_c, 1, 38, 79
1, 119194, Note_on_c, 9, 51, 46
1, 119218, Note_on_c, 0, 77, 45
1, 119258, Note_on_c, 0, 49, 0
1, 119266, Note_on_c, 0, 77, 0
1, 119278, Note_on_c, 0, 57, 0
1, 119302, Note_on_c, 9, 59, 0
1, 119314, Note_on_c, 9, 51, 0
1, 119330, Note_on_c, 0, 77, 57
1, 119346, Note_on_c, 0, 77, 0
1, 119346, Note_on_c, 0, 49, 41
1, 119378, Note_on_c, 9, 59, 61
1, 119382, Note_on_c, 9, 51, 49
1, 119386, Note_on_c, 1, 41, 43
1, 119386, Note_on_c, 9, 44, 65
1, 119386, Note_on_c, 9, 37, 78
1, 119394, Note_on_c, 0, 79, 74
1, 119394, Note_on_c, 0, 86, 73
1, 119410, Note_on_c, 0, 57, 29
1, 119418, Note_on_c, 1, 41, 0
1, 119450, Note_on_c, 0, 57, 0
1, 119454, Note_on_c, 0, 79, 0
1, 119458, Note_on_c, 9, 51, 0
1, 119458, Note_on_c, 0, 86, 0
1, 119474, Note_on_c, 9, 37, 0
1, 119478, Note_on_c, 9, 59, 0
1, 119482, Note_on_c, 9, 44, 0
1, 119506, Note_on_c, 0, 49, 0
1, 119506, Note_on_c, 1, 38, 0
1, 119510, Note_on_c, 9, 51, 57
1, 119514, Note_on_c, 1, 37, 64
1, 119518, Note_on_c, 0, 86, 75
1, 119522, Note_on_c, 0, 79, 75
1, 119530, Note_on_c, 9, 51, 0
1, 119550, Note_on_c, 1, 37, 0
1, 119566, Note_on_c, 9, 59, 71
1, 119566, Note_on_c, 9, 51, 67
1, 119574, Note_on_c, 0, 79, 0
1, 119574, Note_on_c, 0, 48, 41
1, 119574, Note_on_c, 0, 57, 35
1, 119578, Note_on_c, 1, 38, 70
1, 119594, Note_on_c, 0, 77, 57
1, 119634, Note_on_c, 0, 77, 0
1, 119654, Note_on_c, 0, 86, 0
1, 119698, Note_on_c, 9, 59, 0
1, 119706, Note_on_c, 1, 48, 107
1, 119706, Note_on_c, 9, 35, 36
1, 119710, Note_on_c, 9, 51, 0
1, 119714, Note_on_c, 0, 77, 69
1, 119738, Note_on_c, 9, 35, 0
1, 119750, Note_on_c, 0, 77, 0
1, 119766, Note_on_c, 9, 59, 58
1, 119770, Note_on_c, 9, 44, 62
1, 119770, Note_on_c, 9, 51, 48
1, 119770, Note_on_c, 9, 48, 20
1, 119782, Note_on_c, 0, 74, 47
1, 119794, Note_on_c, 1, 38, 0
1, 119798, Note_on_c, 0, 57, 0
1, 119830, Note_on_c, 1, 48, 0
1, 119834, Note_on_c, 1, 45, 69
1, 119858, Note_on_c, 0, 74, 0
1, 119866, Note_on_c, 9, 44, 0
1, 119866, Note_on_c, 1, 45, 0
1, 119874, Note_on_c, 9, 59, 0
1, 119878, Note_on_c, 9, 51, 0
1, 119882, Note_on_c, 9, 48, 0
1, 119898, Note_on_c, 1, 38, 79
1, 119898, Note_on_c, 9, 48, 39
1, 119902, Note_on_c, 0, 74, 63
1, 119910, Note_on_c, 0, 57, 38
1, 119922, Note_on_c, 0, 55, 39
1, 119942, Note_on_c, 0, 55, 0
1, 119942, Note_on_c, 0, 74, 0
1, 119950, Note_on_c, 1, 38, 0
1, 119950, Note_on_c, 0, 57, 0
1, 119954, Note_on_c, 9, 59, 61
1, 119958, Note_on_c, 9, 51, 45
1, 119962, Note_on_c, 1, 41, 82
1, 119966, Note_on_c, 9, 48, 0
1, 119974, Note_on_c, 0, 69, 43
1, 119990, Note_on_c, 0, 48, 0
1, 120054, Note_on_c, 0, 69, 0
1, 120066, Note_on_c, 9, 59, 0
1, 120078, Note_on_c, 9, 51, 0
1, 120094, Note_on_c, 0, 69, 57
1, 120110, Note_on_c, 0, 48, 46
1, 120114, Note_on_c, 0, 57, 45
1, 120126, Note_on_c, 0, 69, 0
1, 120150, Note_on_c, 1, 41, 0
1, 120150, Note_on_c, 9, 59, 64
1, 120154, Control_c, 0, 64, 127
1, 120154, Note_on_c, 1, 38, 64
1, 120154, Note_on_c, 9, 44, 57
1, 120154, Note_on_c, 9, 51, 40
1, 120154, Note_on_c, 9, 37, 74
1, 120202, Note_on_c, 9, 37, 0
1, 120222, Note_on_c, 9, 59, 0
1, 120226, Note_on_c, 9, 51, 0
1, 120238, Note_on_c, 0, 48, 0
1, 120250, Note_on_c, 9, 44, 0
1, 120250, Note_on_c, 0, 57, 0
1, 120274, Note_on_c, 1, 38, 0
1, 120290, Note_on_c, 0, 47, 75
1, 120294, Control_c, 0, 64, 40
1, 120294, Note_on_c, 0, 57, 55
1, 120294, Control_c, 0, 64, 0
1, 120294, Note_on_c, 9, 51, 56
1, 120298, Note_on_c, 9, 59, 60
1, 120314, Note_on_c, 9, 59, 0
1, 120314, Note_on_c, 9, 51, 0
1, 120342, Note_on_c, 9, 51, 58
1, 120346, Note_on_c, 1, 47, 87
1, 120346, Note_on_c, 9, 59, 62
1, 120426, Note_on_c, 0, 57, 0
1, 120462, Note_on_c, 9, 59, 0
1, 120466, Note_on_c, 9, 51, 0
1, 120482, Note_on_c, 0, 57, 48
1, 120498, Note_on_c, 0, 53, 37
1, 120522, Note_on_c, 0, 53, 0
1, 120522, Note_on_c, 0, 57, 0
1, 120534, Note_on_c, 0, 65, 52
1, 120534, Note_on_c, 9, 59, 61
1, 120538, Note_on_c, 9, 44, 60
1, 120538, Note_on_c, 9, 51, 39
1, 120538, Note_on_c, 9, 48, 22
1, 120558, Note_on_c, 0, 65, 0
1, 120562, Note_on_c, 0, 67, 47
1, 120590, Note_on_c, 0, 68, 49
1, 120614, Note_on_c, 9, 59, 0
1, 120618, Note_on_c, 9, 51, 0
1, 120626, Note_on_c, 0, 68, 0
1, 120626, Note_on_c, 0, 67, 0
1, 120634, Note_on_c, 9, 44, 0
1, 120634, Note_on_c, 0, 69, 43
1, 120638, Note_on_c, 1, 47, 0
1, 120646, Note_on_c, 9, 48, 0
1, 120654, Note_on_c, 0, 69, 0
1, 120666, Note_on_c, 1, 45, 67
1, 120666, Note_on_c, 9, 48, 36
1, 120674, Note_on_c, 9, 51, 31
1, 120674, Note_on_c, 9, 59, 40
1, 120690, Note_on_c, 9, 59, 0
1, 120690, Note_on_c, 9, 51, 0
1, 120698, Note_on_c, 9, 48, 0
1, 120702, Note_on_c, 1, 45, 0
1, 120702, Note_on_c, 0, 53, 34
1, 120718, Note_on_c, 9, 51, 48
1, 120718, Note_on_c, 9, 59, 66
1, 120730, Note_on_c, 0, 53, 0
1, 120730, Note_on_c, 1, 41, 71
1, 120734, Note_on_c, 0, 67, 66
1, 120758, Note_on_c, 0, 68, 43
1, 120778, Note_on_c, 1, 41, 0
1, 120798, Note_on_c, 0, 68, 0
1, 120814, Note_on_c, 0, 69, 39
1, 120826, Note_on_c, 0, 67, 0
1, 120850, Note_on_c, 9, 59, 0
1, 120854, Note_on_c, 9, 51, 0
1, 120858, Note_on_c, 0, 69, 0
1, 120858, Note_on_c, 0, 57, 52
1, 120858, Note_on_c, 1, 38, 73
1, 120858, Note_on_c, 9, 37, 57
1, 120878, Note_on_c, 0, 53, 37
1, 120890, Note_on_c, 9, 37, 0
1, 120890, Note_on_c, 1, 38, 0
1, 120898, Note_on_c, 0, 53, 0
1, 120902, Note_on_c, 0, 47, 0
1, 120910, Note_on_c, 9, 59, 58
1, 120910, Note_on_c, 9, 51, 55
1, 120918, Note_on_c, 0, 65, 75
1, 120922, Note_on_c, 1, 33, 77
1, 120922, Note_on_c, 9, 44, 62
1, 120922, Note_on_c, 9, 37, 82
1, 120954, Note_on_c, 1, 33, 0
1, 120986, Note_on_c, 0, 57, 0
1, 121010, Note_on_c, 9, 59, 0
1, 121018, Note_on_c, 9, 44, 0
1, 121018, Note_on_c, 9, 37, 0
1, 121046, Note_on_c, 0, 65, 0
1, 121050, Note_on_c, 9, 51, 0
1, 121050, Note_on_c, 1, 32, 74
1, 121050, Note_on_c, 9, 53, 68
1, 121050, Note_on_c, 9, 37, 71
1, 121062, Note_on_c, 0, 62, 48
1, 121074, Note_on_c, 9, 53, 0
1, 121086, Note_on_c, 1, 32, 0
1, 121086, Note_on_c, 0, 62, 0
1, 121090, Note_on_c, 9, 37, 0
1, 121102, Note_on_c, 9, 51, 51
1, 121110, Note_on_c, 0, 55, 40
1, 121114, Note_on_c, 0, 65, 49
1, 121114, Note_on_c, 0, 58, 45
1, 121114, Note_on_c, 1, 31, 65
1, 121114, Note_on_c, 9, 59, 57
1, 121202, Note_on_c, 0, 65, 0
1, 121238, Note_on_c, 9, 59, 0
1, 121246, Note_on_c, 9, 51, 0
1, 121274, Note_on_c, 0, 58, 0
1, 121302, Note_on_c, 0, 65, 71
1, 121306, Note_on_c, 1, 38, 43
1, 121306, Note_on_c, 9, 44, 64
1, 121306, Note_on_c, 9, 48, 24
1, 121310, Note_on_c, 9, 51, 55
1, 121310, Note_on_c, 9, 59, 60
1, 121378, Note_on_c, 1, 38, 0
1, 121378, Note_on_c, 0, 55, 0
1, 121402, Note_on_c, 9, 44, 0
1, 121410, Note_on_c, 9, 48, 0
1, 121426, Note_on_c, 0, 65, 0
1, 121434, Note_on_c, 9, 59, 0
1, 121434, Note_on_c, 9, 51, 0
1, 121434, Note_on_c, 1, 38, 50
1, 121434, Note_on_c, 9, 48, 34
1, 121454, Note_on_c, 0, 62, 51
1, 121466, Note_on_c, 1, 38, 0
1, 121466, Note_on_c, 0, 58, 33
1, 121470, Note_on_c, 0, 55, 31
1, 121474, Note_on_c, 0, 62, 0
1, 121494, Note_on_c, 0, 58, 0
1, 121498, Note_on_c, 1, 45, 70
1, 121506, Note_on_c, 9, 51, 58
1, 121506, Note_on_c, 9, 59, 58
1, 121510, Note_on_c, 0, 65, 56
1, 121570, Note_on_c, 0, 55, 0
1, 121582, Note_on_c, 9, 59, 0
1, 121602, Note_on_c, 0, 65, 0
1, 121614, Note_on_c, 9, 51, 0
1, 121626, Note_on_c, 1, 38, 55
1, 121634, Note_on_c, 0, 55, 56
1, 121634, Note_on_c, 0, 58, 59
1, 121634, Note_on_c, 9, 53, 75
1, 121638, Note_on_c, 0, 62, 57
1, 121646, Note_on_c, 9, 59, 49
1, 121658, Note_on_c, 9, 59, 0
1, 121658, Note_on_c, 1, 38, 0
1, 121658, Note_on_c, 1, 45, 0
1, 121662, Note_on_c, 9, 48, 0
1, 121666, Note_on_c, 9, 53, 0
1, 121690, Note_on_c, 1, 42, 53
1, 121690, Note_on_c, 9, 44, 65
1, 121690, Note_on_c, 9, 51, 60
1, 121690, Note_on_c, 9, 37, 74
1, 121738, Note_on_c, 9, 37, 0
1, 121786, Note_on_c, 9, 44, 0
1, 121786, Note_on_c, 1, 42, 0
1, 121806, Note_on_c, 0, 55, 0
1, 121810, Note_on_c, 9, 51, 0
1, 121818, Note_on_c, 1, 43, 87
1, 121838, Note_on_c, 0, 62, 0
1, 121854, Note_on_c, 1, 43, 0
1, 121866, Note_on_c, 0, 58, 0
1, 121874, Note_on_c, 9, 59, 66
1, 121882, Note_on_c, 1, 42, 40
1, 121882, Note_on_c, 9, 51, 48
1, 121890, Note_on_c, 0, 54, 49
1, 121890, Note_on_c, 0, 62, 45
1, 121894, Note_on_c, 0, 58, 60
1, 121898, Note_on_c, 1, 31, 0
1, 121986, Note_on_c, 9, 59, 0
1, 121990, Note_on_c, 9, 51, 0
1, 121994, Note_on_c, 0, 58, 0
1, 122026, Note_on_c, 0, 58, 51
1, 122062, Note_on_c, 0, 62, 0
1, 122062, Note_on_c, 1, 42, 0
1, 122062, Note_on_c, 9, 51, 57
1, 122066, Note_on_c, 9, 59, 66
1, 122074, Note_on_c, 1, 38, 69
1, 122074, Note_on_c, 9, 44, 62
1, 122074, Note_on_c, 9, 48, 27
1, 122102, Note_on_c, 0, 58, 0
1, 122118, Note_on_c, 0, 85, 23
1, 122142, Note_on_c, 0, 85, 0
1, 122150, Note_on_c, 9, 59, 0
1, 122154, Note_on_c, 9, 51, 0
1, 122154, Note_on_c, 0, 86, 48
1, 122170, Note_on_c, 9, 44, 0
1, 122186, Note_on_c, 9, 48, 0
1, 122194, Note_on_c, 0, 86, 0
1, 122202, Note_on_c, 9, 48, 38
1, 122218, Note_on_c, 0, 91, 122
1, 122218, Note_on_c, 9, 51, 31
1, 122234, Note_on_c, 9, 51, 0
1, 122238, Note_on_c, 9, 48, 0
1, 122242, Note_on_c, 0, 58, 54
1, 122246, Note_on_c, 1, 38, 0
1, 122258, Note_on_c, 9, 51, 51
1, 122262, Note_on_c, 9, 59, 64
1, 122266, Note_on_c, 0, 91, 0
1, 122266, Note_on_c, 1, 31, 75
1, 122290, Note_on_c, 0, 85, 75
1, 122338, Note_on_c, 0, 58, 0
1, 122342, Note_on_c, 0, 85, 0
1, 122342, Note_on_c, 0, 91, 63
1, 122386, Note_on_c, 9, 59, 0
1, 122390, Note_on_c, 0, 85, 45
1, 122394, Note_on_c, 1, 38, 55
1, 122398, Note_on_c, 9, 51, 0
1, 122402, Note_on_c, 0, 91, 0
1, 122426, Note_on_c, 1, 38, 0
1, 122434, Note_on_c, 0, 58, 50
1, 122438, Note_on_c, 0, 85, 0
1, 122446, Note_on_c, 0, 62, 29
1, 122454, Note_on_c, 9, 59, 71
1, 122454, Note_on_c, 9, 51, 62
1, 122458, Note_on_c, 1, 42, 82
1, 122458, Note_on_c, 9, 44, 58
1, 122458, Note_on_c, 9, 37, 74
1, 122466, Note_on_c, 1, 31, 0
1, 122478, Note_on_c, 0, 91, 77
1, 122482, Note_on_c, 0, 84, 75
1, 122486, Note_on_c, 0, 62, 0
1, 122502, Note_on_c, 9, 37, 0
1, 122546, Note_on_c, 9, 59, 0
1, 122550, Note_on_c, 0, 91, 0
1, 122550, Note_on_c, 9, 51, 0
1, 122554, Note_on_c, 9, 44, 0
1, 122586, Note_on_c, 1, 31, 54
1, 122594, Note_on_c, 9, 51, 43
1, 122602, Note_on_c, 9, 59, 36
1, 122606, Note_on_c, 0, 84, 0
1, 122610, Note_on_c, 9, 51, 0
1, 122610, Note_on_c, 1, 42, 0
1, 122610, Note_on_c, 0, 79, 45
1, 122618, Note_on_c, 1, 31, 0
1, 122618, Note_on_c, 9, 59, 0
1, 122626, Note_on_c, 0, 54, 0
1, 122630, Note_on_c, 0, 79, 0
1, 122646, Note_on_c, 9, 59, 64
1, 122650, Note_on_c, 1, 41, 56
1, 122650, Note_on_c, 9, 51, 59
1, 122662, Note_on_c, 0, 62, 41
1, 122666, Note_on_c, 0, 82, 61
1, 122666, Note_on_c, 0, 53, 44
1, 122758, Note_on_c, 9, 59, 0
1, 122766, Note_on_c, 9, 51, 0
1, 122778, Note_on_c, 0, 82, 0
1, 122794, Note_on_c, 0, 74, 56
1, 122834, Note_on_c, 9, 51, 69
1, 122838, Note_on_c, 1, 41, 0
1, 122838, Control_c, 0, 64, 127
1, 122838, Note_on_c, 9, 59, 64
1, 122842, Note_on_c, 1, 38, 61
1, 122842, Note_on_c, 9, 44, 60
1, 122842, Note_on_c, 9, 48, 27
1, 122898, Note_on_c, 0, 62, 0
1, 122910, Note_on_c, 0, 58, 0
1, 122914, Note_on_c, 0, 53, 0
1, 122938, Note_on_c, 9, 44, 0
1, 122938, Note_on_c, 9, 51, 0
1, 122938, Note_on_c, 9, 59, 0
1, 122950, Note_on_c, 9, 48, 0
1, 122970, Note_on_c, 9, 48, 41
1, 122982, Note_on_c, 0, 62, 51
1, 122982, Note_on_c, 0, 58, 55
1, 122990, Control_c, 0, 64, 0
1, 122998, Note_on_c, 0, 62, 0
1, 123006, Note_on_c, 9, 48, 0
1, 123010, Note_on_c, 0, 74, 0
1, 123018, Note_on_c, 0, 58, 0
1, 123030, Note_on_c, 9, 51, 50
1, 123030, Note_on_c, 9, 59, 68
1, 123034, Note_on_c, 1, 31, 64
1, 123046, Note_on_c, 1, 38, 0
1, 123050, Note_on_c, 0, 79, 65
1, 123086, Note_on_c, 0, 79, 0
1, 123110, Note_on_c, 0, 81, 82
1, 123126, Note_on_c, 9, 59, 0
1, 123146, Note_on_c, 0, 81, 0
1, 123162, Note_on_c, 9, 51, 0
1, 123162, Note_on_c, 1, 38, 54
1, 123166, Note_on_c, 9, 53, 74
1, 123174, Note_on_c, 0, 82, 98
1, 123178, Note_on_c, 0, 58, 63
1, 123182, Note_on_c, 0, 62, 62
1, 123186, Note_on_c, 0, 53, 57
1, 123194, Note_on_c, 1, 38, 0
1, 123198, Note_on_c, 9, 53, 0
1, 123222, Note_on_c, 9, 51, 52
1, 123226, Note_on_c, 0, 82, 0
1, 123226, Note_on_c, 1, 31, 0
1, 123226, Note_on_c, 1, 41, 94
1, 123226, Note_on_c, 9, 44, 57
1, 123226, Note_on_c, 9, 37, 79
1, 123230, Note_on_c, 9, 59, 53
1, 123234, Note_on_c, 0, 53, 0
1, 123242, Note_on_c, 0, 84, 92
1, 123250, Note_on_c, 0, 58, 0
1, 123290, Note_on_c, 0, 84, 0
1, 123290, Note_on_c, 9, 37, 0
1, 123294, Note_on_c, 0, 62, 0
1, 123306, Note_on_c, 0, 82, 81
1, 123322, Note_on_c, 9, 44, 0
1, 123346, Note_on_c, 9, 59, 0
1, 123358, Note_on_c, 9, 51, 0
1, 123374, Note_on_c, 0, 82, 0
1, 123382, Note_on_c, 0, 77, 52
1, 123382, Note_on_c, 0, 76, 52
1, 123386, Note_on_c, 1, 41, 0
1, 123386, Note_on_c, 0, 61, 46
1, 123390, Note_on_c, 0, 65, 39
1, 123394, Note_on_c, 0, 76, 0
1, 123398, Note_on_c, 0, 55, 33
1, 123410, Note_on_c, 0, 77, 0
1, 123418, Note_on_c, 1, 40, 93
1, 123418, Note_on_c, 9, 59, 70
1, 123422, Note_on_c, 9, 51, 60
1, 123466, Pitch_bend_c, 1, 8192
1, 123510, Note_on_c, 0, 65, 0
1, 123518, Note_on_c, 0, 61, 0
1, 123526, Note_on_c, 9, 59, 0
1, 123530, Note_on_c, 9, 51, 0
1, 123558, Note_on_c, 0, 61, 43
1, 123566, Note_on_c, 0, 65, 29
1, 123582, Note_on_c, 0, 65, 0
1, 123606, Note_on_c, 9, 51, 60
1, 123606, Note_on_c, 9, 59, 70
1, 123610, Note_on_c, 0, 61, 0
1, 123610, Note_on_c, 9, 44, 67
1, 123610, Note_on_c, 9, 48, 33
1, 123614, Note_on_c, 0, 55, 0
1, 123650, Pitch_bend_c, 1, 8192
1, 123682, Note_on_c, 9, 51, 0
1, 123706, Note_on_c, 9, 44, 0
1, 123710, Note_on_c, 9, 59, 0
1, 123710, Note_on_c, 9, 48, 0
1, 123734, Note_on_c, 9, 51, 57
1, 123738, Note_on_c, 9, 48, 33
1, 123754, Note_on_c, 0, 61, 60
1, 123778, Note_on_c, 9, 51, 0
1, 123790, Note_on_c, 9, 59, 70
1, 123802, Note_on_c, 1, 34, 70
1, 123806, Note_on_c, 0, 61, 0
1, 123806, Note_on_c, 9, 48, 0
1, 123806, Note_on_c, 9, 51, 73
1, 123826, Note_on_c, 1, 40, 0
1, 123834, Note_on_c, 1, 34, 0
1, 123846, Note_on_c, 0, 73, 36
1, 123850, Note_on_c, 0, 61, 39
1, 123866, Note_on_c, 0, 73, 0
1, 123866, Note_on_c, 1, 33, 66
1, 123874, Note_on_c, 0, 76, 28
1, 123894, Note_on_c, 0, 76, 0
1, 123902, Note_on_c, 0, 61, 0
1, 123910, Note_on_c, 0, 73, 72
1, 123910, Note_on_c, 0, 79, 78
1, 123914, Note_on_c, 0, 70, 72
1, 123918, Note_on_c, 9, 59, 0
1, 123918, Note_on_c, 0, 64, 79
1, 123922, Note_on_c, 0, 79, 0
1, 123926, Note_on_c, 0, 70, 0
1, 123934, Note_on_c, 9, 51, 0
1, 123942, Note_on_c, 0, 73, 0
1, 123962, Note_on_c, 0, 64, 0
1, 123970, Note_on_c, 0, 73, 72
1, 123970, Note_on_c, 0, 78, 82
1, 123974, Note_on_c, 0, 70, 82
1, 123974, Note_on_c, 0, 63, 81
1, 123994, Note_on_c, 1, 32, 44
1, 123994, Note_on_c, 1, 45, 81
1, 123994, Note_on_c, 9, 46, 47
1, 123994, Note_on_c, 9, 37, 75
1, 123998, Note_on_c, 1, 33, 0
1, 123998, Note_on_c, 9, 51, 67
1, 124002, Note_on_c, 0, 70, 0
1, 124002, Note_on_c, 0, 73, 0
1, 124002, Note_on_c, 9, 59, 71
1, 124014, Note_on_c, 0, 78, 0
1, 124022, Note_on_c, 0, 63, 0
1, 124026, Note_on_c, 1, 32, 0
1, 124030, Note_on_c, 0, 69, 68
1, 124030, Note_on_c, 0, 77, 69
1, 124038, Note_on_c, 0, 72, 57
1, 124038, Note_on_c, 0, 62, 63
1, 124042, Note_on_c, 9, 37, 0
1, 124050, Note_on_c, 0, 72, 0
1, 124058, Note_on_c, 0, 77, 0
1, 124066, Note_on_c, 0, 69, 0
1, 124090, Note_on_c, 0, 62, 0
1, 124090, Note_on_c, 9, 46, 0
1, 124098, Note_on_c, 9, 59, 0
1, 124110, Note_on_c, 9, 51, 0
1, 124122, Note_on_c, 0, 58, 29
1, 124122, Note_on_c, 1, 37, 48
1, 124154, Note_on_c, 0, 58, 0
1, 124154, Note_on_c, 0, 76, 82
1, 124154, Note_on_c, 0, 69, 82
1, 124158, Note_on_c, 0, 65, 75
1, 124162, Note_on_c, 0, 61, 74
1, 124182, Note_on_c, 1, 45, 0
1, 124186, Note_on_c, 1, 38, 76
1, 124190, Note_on_c, 9, 51, 64
1, 124190, Note_on_c, 9, 59, 70
1, 124194, Note_on_c, 1, 37, 0
1, 124238, Note_on_c, 0, 76, 0
1, 124242, Note_on_c, 0, 65, 0
1, 124246, Note_on_c, 0, 69, 0
1, 124258, Note_on_c, 0, 61, 0
1, 124274, Note_on_c, 0, 69, 74
1, 124274, Note_on_c, 0, 65, 64
1, 124274, Note_on_c, 0, 60, 63
1, 124274, Note_on_c, 0, 74, 78
1, 124294, Note_on_c, 9, 59, 0
1, 124302, Note_on_c, 9, 51, 0
1, 124326, Note_on_c, 0, 69, 0
1, 124338, Note_on_c, 0, 74, 0
1, 124354, Note_on_c, 0, 65, 0
1, 124378, Note_on_c, 9, 44, 64
1, 124378, Note_on_c, 9, 51, 59
1, 124378, Note_on_c, 9, 48, 27
1, 124382, Note_on_c, 0, 60, 0
1, 124382, Note_on_c, 9, 59, 69
1, 124394, Note_on_c, 0, 72, 54
1, 124394, Control_c, 0, 64, 127
1, 124398, Note_on_c, 0, 57, 57
1, 124398, Note_on_c, 0, 65, 49
1, 124426, Note_on_c, 0, 65, 0
1, 124426, Note_on_c, 0, 72, 0
1, 124458, Note_on_c, 9, 59, 0
1, 124462, Note_on_c, 9, 51, 0
1, 124474, Note_on_c, 9, 44, 0
1, 124494, Note_on_c, 0, 57, 0
1, 124494, Note_on_c, 9, 48, 0
1, 124494, Control_c, 0, 64, 0
1, 124506, Note_on_c, 9, 48, 32
1, 124518, Note_on_c, 9, 51, 39
1, 124526, Note_on_c, 0, 69, 58
1, 124526, Note_on_c, 0, 53, 57
1, 124526, Note_on_c, 9, 59, 38
1, 124530, Note_on_c, 0, 62, 51
1, 124530, Note_on_c, 0, 65, 44
1, 124534, Note_on_c, 9, 51, 0
1, 124534, Note_on_c, 0, 60, 41
1, 124538, Note_on_c, 9, 48, 0
1, 124542, Note_on_c, 9, 59, 0
1, 124570, Note_on_c, 1, 53, 83
1, 124570, Note_on_c, 9, 51, 55
1, 124570, Note_on_c, 9, 59, 58
1, 124574, Note_on_c, 0, 69, 0
1, 124578, Note_on_c, 0, 65, 0
1, 124590, Note_on_c, 0, 53, 0
1, 124590, Note_on_c, 0, 62, 0
1, 124598, Note_on_c, 0, 60, 0
1, 124662, Note_on_c, 0, 48, 23
1, 124698, Note_on_c, 9, 59, 0
1, 124698, Note_on_c, 1, 37, 40
1, 124698, Note_on_c, 9, 35, 25
1, 124706, Note_on_c, 9, 51, 0
1, 124706, Note_on_c, 0, 48, 0
1, 124722, Note_on_c, 0, 50, 1
1, 124734, Note_on_c, 1, 53, 0
1, 124734, Note_on_c, 1, 38, 0
1, 124734, Note_on_c, 9, 35, 0
1, 124738, Note_on_c, 0, 50, 0
1, 124762, Note_on_c, 1, 37, 0
1, 124762, Note_on_c, 1, 52, 72
1, 124762, Note_on_c, 9, 44, 64
1, 124762, Note_on_c, 9, 37, 77
1, 124766, Note_on_c, 0, 67, 61
1, 124766, Note_on_c, 9, 51, 55
1, 124770, Note_on_c, 0, 57, 51
1, 124770, Note_on_c, 9, 59, 71
1, 124774, Note_on_c, 0, 55, 60
1, 124778, Note_on_c, 0, 60, 46
1, 124818, Note_on_c, 0, 67, 0
1, 124826, Note_on_c, 9, 37, 0
1, 124846, Note_on_c, 9, 51, 0
1, 124846, Note_on_c, 0, 57, 0
1, 124850, Note_on_c, 0, 60, 0
1, 124850, Note_on_c, 9, 59, 0
1, 124858, Note_on_c, 9, 44, 0
1, 124882, Note_on_c, 0, 55, 0
1, 124886, Note_on_c, 0, 66, 48
1, 124890, Note_on_c, 0, 57, 39
1, 124894, Note_on_c, 0, 54, 51
1, 124898, Note_on_c, 0, 60, 34
1, 124914, Note_on_c, 9, 51, 30
1, 124926, Note_on_c, 9, 51, 0
1, 124926, Note_on_c, 0, 66, 0
1, 124930, Note_on_c, 1, 52, 0
1, 124930, Note_on_c, 0, 60, 0
1, 124942, Note_on_c, 0, 57, 0
1, 124950, Note_on_c, 0, 54, 0
1, 124954, Note_on_c, 1, 50, 72
1, 124958, Note_on_c, 9, 59, 66
1, 124958, Note_on_c, 9, 51, 52
1, 124970, Note_on_c, 0, 57, 39
1, 124982, Note_on_c, 0, 53, 41
1, 124986, Note_on_c, 0, 60, 31
1, 124986, Note_on_c, 0, 65, 31
1, 125050, Note_on_c, 0, 57, 0
1, 125054, Note_on_c, 0, 60, 0
1, 125082, Note_on_c, 0, 65, 0
1, 125090, Note_on_c, 9, 59, 0
1, 125094, Note_on_c, 9, 51, 0
1, 125094, Note_on_c, 0, 57, 48
1, 125098, Note_on_c, 0, 60, 57
1, 125110, Note_on_c, 0, 57, 0
1, 125118, Note_on_c, 0, 50, 23
1, 125130, Note_on_c, 0, 60, 0
1, 125142, Note_on_c, 0, 50, 0
1, 125146, Note_on_c, 9, 44, 60
1, 125146, Note_on_c, 9, 51, 60
1, 125146, Note_on_c, 9, 48, 34
1, 125150, Note_on_c, 9, 59, 71
1, 125218, Note_on_c, 9, 59, 0
1, 125242, Note_on_c, 9, 44, 0
1, 125254, Note_on_c, 9, 48, 0
1, 125274, Note_on_c, 9, 51, 0
1, 125274, Note_on_c, 0, 53, 0
1, 125274, Note_on_c, 1, 37, 44
1, 125274, Note_on_c, 9, 48, 39
1, 125278, Note_on_c, 0, 50, 54
1, 125294, Note_on_c, 1, 50, 0
1, 125306, Note_on_c, 1, 37, 0
1, 125306, Note_on_c, 0, 50, 0
1, 125310, Note_on_c, 9, 48, 0
1, 125338, Note_on_c, 1, 45, 79
1, 125338, Note_on_c, 9, 51, 52
1, 125346, Note_on_c, 9, 59, 71
1, 125370, Note_on_c, 1, 45, 0
1, 125386, Note_on_c, 9, 51, 0
1, 125418, Note_on_c, 9, 59, 0
1, 125466, Note_on_c, 1, 38, 79
1, 125466, Note_on_c, 9, 35, 39
1, 125478, Note_on_c, 0, 50, 66
1, 125494, Note_on_c, 0, 50, 0
1, 125498, Note_on_c, 1, 38, 0
1, 125514, Note_on_c, 9, 35, 0
1, 125530, Note_on_c, 1, 36, 55
1, 125530, Note_on_c, 9, 44, 64
1, 125530, Note_on_c, 9, 37, 55
1, 125534, Note_on_c, 9, 51, 62
1, 125534, Note_on_c, 9, 59, 62
1, 125562, Note_on_c, 1, 36, 0
1, 125578, Note_on_c, 9, 37, 0
1, 125622, Note_on_c, 9, 59, 0
1, 125626, Note_on_c, 9, 51, 0
1, 125626, Note_on_c, 9, 44, 0
1, 125658, Note_on_c, 0, 64, 50
1, 125658, Note_on_c, 1, 37, 70
1, 125666, Note_on_c, 0, 60, 46
1, 125674, Note_on_c, 0, 64, 0
1, 125682, Note_on_c, 0, 60, 0
1, 125702, Note_on_c, 1, 37, 0
1, 125722, Note_on_c, 0, 83, 57
1, 125722, Note_on_c, 1, 38, 69
1, 125730, Note_on_c, 9, 51, 71
1, 125734, Note_on_c, 9, 59, 68
1, 125782, Note_on_c, 0, 83, 0
1, 125814, Note_on_c, 9, 59, 0
1, 125818, Note_on_c, 9, 51, 0
1, 125850, Note_on_c, 1, 37, 42
1, 125858, Note_on_c, 0, 86, 61
1, 125862, Note_on_c, 0, 74, 57
1, 125874, Note_on_c, 0, 64, 42
1, 125878, Note_on_c, 0, 54, 36
1, 125882, Note_on_c, 1, 37, 0
1, 125882, Note_on_c, 1, 38, 0
1, 125882, Note_on_c, 0, 60, 38
1, 125894, Note_on_c, 0, 74, 0
1, 125894, Note_on_c, 0, 86, 0
1, 125902, Note_on_c, 0, 60, 0
1, 125910, Note_on_c, 0, 64, 0
1, 125914, Note_on_c, 1, 45, 68
1, 125914, Note_on_c, 9, 44, 57
1, 125914, Note_on_c, 9, 48, 23
1, 125922, Note_on_c, 0, 54, 0
1, 125922, Note_on_c, 9, 51, 73
1, 125926, Note_on_c, 9, 59, 64
1, 125934, Note_on_c, 0, 86, 34
1, 125990, Note_on_c, 9, 59, 0
1, 125998, Note_on_c, 9, 51, 0
1, 126010, Note_on_c, 9, 44, 0
1, 126014, Note_on_c, 9, 48, 0
1, 126026, Note_on_c, 0, 86, 0
1, 126042, Note_on_c, 1, 37, 40
1, 126042, Note_on_c, 9, 48, 29
1, 126062, Note_on_c, 0, 83, 38
1, 126074, Note_on_c, 1, 37, 0
1, 126074, Note_on_c, 1, 45, 0
1, 126082, Note_on_c, 9, 48, 0
1, 126086, Note_on_c, 0, 83, 0
1, 126106, Note_on_c, 0, 86, 48
1, 126106, Note_on_c, 1, 54, 82
1, 126110, Note_on_c, 9, 51, 44
1, 126114, Note_on_c, 0, 74, 39
1, 126114, Note_on_c, 9, 59, 51
1, 126150, Note_on_c, 0, 74, 0
1, 126154, Note_on_c, 0, 86, 0
1, 126194, Note_on_c, 9, 59, 0
1, 126206, Note_on_c, 9, 51, 0
1, 126234, Note_on_c, 9, 35, 30
1, 126242, Note_on_c, 9, 53, 71
1, 126246, Note_on_c, 9, 59, 55
1, 126266, Note_on_c, 9, 35, 0
1, 126270, Note_on_c, 1, 54, 0
1, 126274, Note_on_c, 9, 59, 0
1, 126286, Note_on_c, 9, 53, 0
1, 126298, Note_on_c, 0, 66, 63
1, 126298, Note_on_c, 0, 55, 54
1, 126298, Note_on_c, 1, 52, 77
1, 126298, Note_on_c, 9, 44, 65
1, 126298, Note_on_c, 9, 37, 71
1, 126302, Note_on_c, 0, 61, 48
1, 126302, Note_on_c, 9, 51, 52
1, 126338, Note_on_c, 9, 37, 0
1, 126394, Note_on_c, 9, 44, 0
1, 126406, Note_on_c, 0, 55, 0
1, 126406, Note_on_c, 9, 51, 0
1, 126434, Note_on_c, 0, 66, 0
1, 126450, Note_on_c, 0, 61, 0
1, 126466, Note_on_c, 1, 52, 0
1, 126486, Note_on_c, 9, 59, 66
1, 126490, Note_on_c, 0, 65, 57
1, 126490, Note_on_c, 1, 50, 76
1, 126490, Note_on_c, 9, 51, 51
1, 126494, Note_on_c, 0, 54, 49
1, 126498, Note_on_c, 0, 60, 49
1, 126578, Note_on_c, 9, 59, 0
1, 126586, Note_on_c, 9, 51, 0
1, 126654, Note_on_c, 1, 50, 0
1, 126678, Note_on_c, 9, 59, 58
1, 126682, Note_on_c, 1, 48, 76
1, 126682, Note_on_c, 9, 44, 67
1, 126682, Note_on_c, 9, 51, 43
1, 126682, Note_on_c, 9, 48, 36
1, 126702, Control_c, 0, 64, 127
1, 126722, Note_on_c, 0, 65, 0
1, 126734, Control_c, 0, 64, 0
1, 126750, Note_on_c, 0, 60, 0
1, 126762, Note_on_c, 0, 54, 0
1, 126770, Note_on_c, 9, 59, 0
1, 126778, Note_on_c, 9, 44, 0
1, 126778, Note_on_c, 9, 51, 0
1, 126786, Note_on_c, 9, 48, 0
1, 126810, Note_on_c, 1, 36, 52
1, 126810, Note_on_c, 9, 48, 39
1, 126818, Note_on_c, 0, 64, 61
1, 126818, Note_on_c, 0, 54, 56
1, 126826, Note_on_c, 0, 60, 56
1, 126842, Note_on_c, 9, 48, 0
1, 126842, Note_on_c, 1, 36, 0
1, 126866, Note_on_c, 1, 48, 0
1, 126874, Note_on_c, 1, 44, 76
1, 126874, Note_on_c, 9, 51, 46
1, 126874, Note_on_c, 9, 59, 52
1, 126958, Note_on_c, 9, 59, 0
1, 126974, Note_on_c, 9, 51, 0
1, 127002, Note_on_c, 0, 64, 0
1, 127002, Note_on_c, 1, 34, 61
1, 127002, Note_on_c, 9, 59, 47
1, 127002, Note_on_c, 9, 53, 68
1, 127002, Note_on_c, 9, 35, 18
1, 127026, Note_on_c, 0, 54, 0
1, 127034, Note_on_c, 1, 34, 0
1, 127034, Note_on_c, 1, 44, 0
1, 127034, Note_on_c, 9, 35, 0
1, 127038, Note_on_c, 9, 59, 0
1, 127042, Note_on_c, 0, 60, 0
1, 127042, Note_on_c, 9, 53, 0
1, 127066, Note_on_c, 1, 48, 79
1, 127066, Note_on_c, 9, 44, 65
1, 127066, Note_on_c, 9, 59, 32
1, 127074, Note_on_c, 0, 62, 46
1, 127078, Note_on_c, 0, 54, 35
1, 127078, Note_on_c, 9, 51, 20
1, 127090, Note_on_c, 0, 60, 30
1, 127094, Note_on_c, 0, 58, 39
1, 127134, Note_on_c, 0, 60, 0
1, 127150, Note_on_c, 9, 59, 0
1, 127162, Note_on_c, 9, 44, 0
1, 127166, Note_on_c, 9, 51, 0
1, 127170, Note_on_c, 0, 62, 0
1, 127178, Note_on_c, 0, 58, 0
1, 127186, Note_on_c, 0, 54, 0
1, 127194, Note_on_c, 1, 42, 61
1, 127206, Note_on_c, 0, 62, 50
1, 127210, Note_on_c, 0, 53, 44
1, 127210, Note_on_c, 0, 58, 57
1, 127210, Note_on_c, 0, 57, 49
1, 127214, Note_on_c, 1, 48, 0
1, 127230, Note_on_c, 1, 42, 0
1, 127250, Note_on_c, 9, 59, 52
1, 127250, Note_on_c, 9, 51, 46
1, 127258, Note_on_c, 1, 43, 76
1, 127290, Note_on_c, 1, 43, 0
1, 127302, Note_on_c, 0, 80, 41
1, 127322, Note_on_c, 1, 38, 76
1, 127326, Note_on_c, 9, 59, 0
1, 127334, Note_on_c, 0, 58, 0
1, 127334, Note_on_c, 9, 51, 0
1, 127338, Note_on_c, 0, 80, 0
1, 127346, Note_on_c, 0, 81, 54
1, 127354, Note_on_c, 1, 38, 0
1, 127386, Note_on_c, 1, 34, 57
1, 127390, Note_on_c, 0, 81, 0
1, 127390, Note_on_c, 0, 58, 50
1, 127410, Note_on_c, 0, 86, 82
1, 127414, Note_on_c, 0, 74, 78
1, 127430, Note_on_c, 0, 85, 36
1, 127434, Note_on_c, 9, 59, 56
1, 127438, Note_on_c, 0, 58, 0
1, 127438, Note_on_c, 9, 51, 46
1, 127442, Note_on_c, 9, 46, 45
1, 127446, Note_on_c, 1, 34, 0
1, 127450, Note_on_c, 0, 85, 0
1, 127450, Note_on_c, 0, 62, 0
1, 127450, Note_on_c, 1, 33, 84
1, 127450, Note_on_c, 9, 44, 65
1, 127450, Note_on_c, 9, 48, 23
1, 127462, Note_on_c, 0, 86, 0
1, 127470, Note_on_c, 0, 74, 0
1, 127502, Note_on_c, 9, 46, 0
1, 127518, Note_on_c, 9, 59, 0
1, 127522, Note_on_c, 9, 51, 0
1, 127522, Note_on_c, 0, 80, 49
1, 127546, Note_on_c, 9, 44, 0
1, 127554, Note_on_c, 9, 48, 0
1, 127558, Note_on_c, 0, 80, 0
1, 127566, Note_on_c, 0, 81, 64
1, 127578, Note_on_c, 0, 62, 41
1, 127578, Note_on_c, 9, 48, 33
1, 127582, Note_on_c, 0, 58, 48
1, 127610, Note_on_c, 0, 62, 0
1, 127610, Note_on_c, 0, 81, 0
1, 127618, Note_on_c, 1, 33, 0
1, 127626, Note_on_c, 0, 58, 0
1, 127634, Note_on_c, 9, 48, 0
1, 127634, Note_on_c, 9, 46, 44
1, 127638, Note_on_c, 9, 51, 56
1, 127638, Note_on_c, 9, 59, 62
1, 127642, Note_on_c, 1, 31, 58
1, 127650, Note_on_c, 0, 74, 57
1, 127658, Note_on_c, 0, 53, 0
1, 127666, Note_on_c, 9, 46, 0
1, 127674, Note_on_c, 0, 57, 0
1, 127726, Note_on_c, 9, 59, 0
1, 127738, Note_on_c, 9, 51, 0
1, 127742, Note_on_c, 0, 74, 0
1, 127770, Note_on_c, 1, 36, 43
1, 127778, Note_on_c, 0, 74, 63
1, 127790, Note_on_c, 0, 58, 48
1, 127794, Note_on_c, 0, 62, 37
1, 127794, Note_on_c, 0, 57, 35
1, 127802, Note_on_c, 1, 36, 0
1, 127806, Note_on_c, 0, 53, 30
1, 127814, Control_c, 0, 64, 127
1, 127834, Note_on_c, 1, 48, 91
1, 127834, Note_on_c, 9, 44, 64
1, 127834, Note_on_c, 9, 51, 53
1, 127834, Note_on_c, 9, 37, 91
1, 127838, Note_on_c, 9, 59, 57
1, 127882, Note_on_c, 9, 37, 0
1, 127890, Note_on_c, 0, 57, 0
1, 127898, Note_on_c, 0, 62, 0
1, 127898, Note_on_c, 0, 53, 0
1, 127918, Note_on_c, 0, 58, 0
1, 127918, Note_on_c, 9, 59, 0
1, 127926, Note_on_c, 9, 51, 0
1, 127930, Note_on_c, 9, 44, 0
1, 127970, Note_on_c, 1, 31, 0
1, 127986, Note_on_c, 0, 74, 0
1, 128006, Note_on_c, 1, 48, 0
1, 128026, Note_on_c, 1, 42, 68
1, 128030, Note_on_c, 9, 59, 66
1, 128034, Note_on_c, 9, 51, 54
1, 128110, Note_on_c, 9, 59, 0
1, 128118, Note_on_c, 9, 51, 0
1, 128154, Note_on_c, 1, 42, 0
1, 128154, Note_on_c, 1, 37, 59
1, 128162, Control_c, 0, 64, 40
1, 128162, Control_c, 0, 64, 0
1, 128170, Note_on_c, 0, 62, 42
1, 128170, Note_on_c, 0, 52, 54
1, 128170, Note_on_c, 0, 58, 49
1, 128186, Note_on_c, 1, 37, 0
1, 128218, Note_on_c, 1, 30, 72
1, 128218, Note_on_c, 9, 44, 64
1, 128218, Note_on_c, 9, 48, 26
1, 128222, Note_on_c, 9, 51, 64
1, 128222, Note_on_c, 9, 59, 64
1, 128306, Note_on_c, 9, 59, 0
1, 128314, Note_on_c, 9, 44, 0
1, 128326, Note_on_c, 9, 51, 0
1, 128338, Note_on_c, 9, 48, 0
1, 128346, Note_on_c, 9, 48, 38
1, 128350, Note_on_c, 9, 59, 55
1, 128358, Note_on_c, 0, 62, 0
1, 128358, Note_on_c, 9, 53, 57
1, 128358, Note_on_c, 9, 52, 57
1, 128366, Note_on_c, 0, 52, 0
1, 128378, Note_on_c, 9, 48, 0
1, 128390, Note_on_c, 0, 58, 0
1, 128394, Note_on_c, 9, 53, 0
1, 128394, Note_on_c, 9, 52, 0
1, 128398, Note_on_c, 9, 59, 0
1, 128410, Note_on_c, 9, 59, 26
1, 128414, Note_on_c, 0, 63, 79
1, 128414, Note_on_c, 0, 52, 63
1, 128414, Note_on_c, 9, 51, 50
1, 128418, Note_on_c, 0, 58, 60
1, 128422, Note_on_c, 0, 76, 71
1, 128422, Note_on_c, 0, 82, 68
1, 128426, Note_on_c, 0, 77, 67
1, 128426, Note_on_c, 0, 88, 49
1, 128426, Note_on_c, 0, 89, 48
1, 128426, Note_on_c, 0, 87, 42
1, 128438, Note_on_c, 0, 77, 0
1, 128442, Note_on_c, 0, 89, 0
1, 128462, Note_on_c, 0, 88, 0
1, 128498, Note_on_c, 0, 82, 0
1, 128510, Note_on_c, 0, 87, 0
1, 128526, Note_on_c, 0, 76, 0
1, 128530, Note_on_c, 0, 52, 0
1, 128538, Note_on_c, 1, 37, 56
1, 128542, Note_on_c, 0, 63, 0
1, 128542, Note_on_c, 9, 59, 0
1, 128550, Note_on_c, 0, 58, 0
1, 128554, Note_on_c, 9, 51, 0
1, 128570, Note_on_c, 1, 37, 0
1, 128602, Note_on_c, 0, 63, 66
1, 128602, Note_on_c, 1, 42, 75
1, 128602, Note_on_c, 9, 44, 61
1, 128602, Note_on_c, 9, 37, 85
1, 128606, Note_on_c, 0, 87, 60
1, 128606, Note_on_c, 0, 80, 58
1, 128606, Note_on_c, 0, 58, 59
1, 128606, Note_on_c, 0, 76, 52
1, 128606, Note_on_c, 0, 52, 56
1, 128606, Note_on_c, 9, 59, 62
1, 128606, Note_on_c, 9, 51, 48
1, 128618, Note_on_c, 1, 30, 0
1, 128650, Note_on_c, 9, 37, 0
1, 128654, Control_c, 0, 64, 127
1, 128694, Note_on_c, 0, 52, 0
1, 128698, Note_on_c, 9, 44, 0
1, 128710, Note_on_c, 0, 58, 0
1, 128714, Note_on_c, 0, 87, 0
1, 128722, Note_on_c, 9, 59, 0
1, 128730, Note_on_c, 0, 63, 0
1, 128730, Note_on_c, 0, 76, 0
1, 128730, Note_on_c, 1, 37, 56
1, 128738, Note_on_c, 9, 51, 0
1, 128750, Note_on_c, 0, 80, 0
1, 128754, Control_c, 0, 64, 0
1, 128762, Note_on_c, 1, 37, 0
1, 128766, Note_on_c, 1, 42, 0
1, 128794, Note_on_c, 1, 41, 79
1, 128798, Note_on_c, 0, 64, 58
1, 128802, Note_on_c, 0, 84, 64
1, 128802, Note_on_c, 0, 74, 63
1, 128806, Note_on_c, 0, 60, 49
1, 128806, Note_on_c, 0, 79, 59
1, 128806, Note_on_c, 0, 53, 40
1, 128806, Note_on_c, 9, 51, 53
1, 128806, Note_on_c, 9, 59, 56
1, 128814, Note_on_c, 0, 57, 40
1, 128822, Control_c, 0, 64, 127
1, 128890, Note_on_c, 0, 79, 0
1, 128890, Note_on_c, 0, 74, 0
1, 128898, Note_on_c, 0, 84, 0
1, 128906, Note_on_c, 9, 59, 0
1, 128914, Note_on_c, 0, 53, 0
1, 128914, Note_on_c, 9, 51, 0
1, 128914, Note_on_c, 0, 64, 0
1, 128918, Note_on_c, 0, 60, 0
1, 128918, Note_on_c, 0, 57, 0
1, 128942, Control_c, 0, 64, 0
1, 128986, Note_on_c, 0, 64, 61
1, 128986, Note_on_c, 9, 44, 64
1, 128986, Note_on_c, 9, 48, 27
1, 128990, Note_on_c, 0, 73, 58
1, 128990, Note_on_c, 9, 59, 60
1, 128994, Note_on_c, 0, 60, 48
1, 128994, Note_on_c, 0, 53, 42
1, 128994, Note_on_c, 0, 78, 57
1, 128994, Note_on_c, 9, 51, 47
1, 128998, Note_on_c, 0, 83, 46
1, 128998, Note_on_c, 0, 57, 46
1, 129010, Control_c, 0, 64, 127
1, 129062, Note_on_c, 0, 64, 0
1, 129066, Note_on_c, 0, 53, 0
1, 129078, Note_on_c, 0, 83, 0
1, 129078, Note_on_c, 0, 57, 0
1, 129078, Note_on_c, 0, 60, 0
1, 129078, Note_on_c, 9, 59, 0
1, 129082, Note_on_c, 9, 44, 0
1, 129082, Control_c, 0, 64, 0
1, 129090, Note_on_c, 0, 78, 0
1, 129090, Note_on_c, 0, 73, 0
1, 129094, Note_on_c, 9, 48, 0
1, 129102, Note_on_c, 9, 51, 0
1, 129114, Note_on_c, 9, 48, 38
1, 129122, Note_on_c, 0, 64, 70
1, 129122, Note_on_c, 0, 53, 63
1, 129122, Note_on_c, 0, 84, 75
1, 129126, Note_on_c, 0, 60, 57
1, 129126, Note_on_c, 0, 74, 76
1, 129126, Note_on_c, 0, 79, 71
1, 129126, Note_on_c, 0, 57, 54
1, 129150, Note_on_c, 9, 48, 0
1, 129150, Control_c, 0, 64, 127
1, 129174, Note_on_c, 1, 41, 0
1, 129178, Note_on_c, 1, 36, 84
1, 129182, Note_on_c, 9, 59, 60
1, 129182, Note_on_c, 9, 51, 47
1, 129258, Note_on_c, 9, 59, 0
1, 129286, Note_on_c, 9, 51, 0
1, 129294, Note_on_c, 0, 60, 0
1, 129306, Note_on_c, 0, 64, 0
1, 129314, Note_on_c, 9, 53, 56
1, 129318, Note_on_c, 0, 84, 0
1, 129322, Note_on_c, 0, 57, 0
1, 129322, Note_on_c, 0, 79, 0
1, 129334, Note_on_c, 0, 53, 0
1, 129346, Note_on_c, 9, 53, 0
1, 129350, Note_on_c, 0, 74, 0
1, 129370, Note_on_c, 9, 44, 69
1, 129370, Note_on_c, 9, 59, 58
1, 129370, Note_on_c, 9, 37, 79
1, 129374, Note_on_c, 9, 51, 36
1, 129430, Note_on_c, 9, 37, 0
1, 129450, Note_on_c, 9, 59, 0
1, 129466, Note_on_c, 9, 44, 0
1, 129478, Note_on_c, 9, 51, 0
1, 129538, Control_c, 0, 64, 0
1, 129550, Note_on_c, 1, 36, 0
1, 129554, Note_on_c, 0, 81, 96
1, 129554, Note_on_c, 9, 59, 57
1, 129558, Note_on_c, 0, 74, 87
1, 129558, Note_on_c, 0, 70, 90
1, 129558, Note_on_c, 9, 51, 37
1, 129562, Note_on_c, 0, 69, 99
1, 129562, Note_on_c, 0, 76, 66
1, 129562, Note_on_c, 1, 33, 79
1, 129646, Note_on_c, 0, 81, 0
1, 129654, Note_on_c, 0, 70, 0
1, 129662, Note_on_c, 9, 59, 0
1, 129666, Note_on_c, 0, 76, 0
1, 129674, Note_on_c, 9, 51, 0
1, 129674, Note_on_c, 0, 74, 0
1, 129686, Control_c, 0, 64, 127
1, 129698, Note_on_c, 0, 69, 0
1, 129698, Note_on_c, 0, 70, 68
1, 129698, Note_on_c, 0, 67, 74
1, 129698, Note_on_c, 0, 74, 58
1, 129698, Note_on_c, 0, 79, 71
1, 129706, Note_on_c, 0, 76, 61
1, 129750, Note_on_c, 9, 51, 47
1, 129754, Note_on_c, 0, 76, 0
1, 129754, Note_on_c, 0, 79, 0
1, 129754, Note_on_c, 9, 44, 64
1, 129754, Note_on_c, 9, 59, 47
1, 129754, Note_on_c, 9, 48, 47
1, 129758, Note_on_c, 0, 74, 0
1, 129762, Note_on_c, 0, 67, 0
1, 129786, Note_on_c, 0, 70, 0
1, 129794, Note_on_c, 9, 59, 0
1, 129818, Note_on_c, 9, 51, 0
1, 129850, Note_on_c, 9, 44, 0
1, 129866, Note_on_c, 9, 48, 0
1, 129866, Control_c, 0, 64, 0
1, 129878, Note_on_c, 0, 77, 79
1, 129878, Note_on_c, 0, 70, 79
1, 129878, Note_on_c, 0, 73, 65
1, 129882, Note_on_c, 0, 67, 73
1, 129882, Note_on_c, 0, 65, 79
1, 129882, Note_on_c, 9, 48, 39
1, 129934, Note_on_c, 9, 48, 0
1, 129938, Note_on_c, 1, 33, 0
1, 129942, Note_on_c, 9, 59, 57
1, 129946, Note_on_c, 0, 77, 0
1, 129946, Note_on_c, 1, 37, 69
1, 129946, Note_on_c, 9, 51, 67
1, 129966, Note_on_c, 0, 65, 0
1, 129970, Note_on_c, 0, 73, 0
1, 129978, Note_on_c, 0, 70, 0
1, 129978, Note_on_c, 1, 37, 0
1, 129982, Note_on_c, 0, 67, 0
1, 130006, Control_c, 0, 64, 127
1, 130006, Note_on_c, 0, 70, 58
1, 130010, Note_on_c, 0, 76, 67
1, 130010, Note_on_c, 0, 64, 67
1, 130010, Note_on_c, 0, 67, 63
1, 130014, Note_on_c, 9, 59, 0
1, 130014, Note_on_c, 0, 73, 49
1, 130030, Note_on_c, 9, 51, 0
1, 130058, Note_on_c, 0, 73, 0
1, 130066, Note_on_c, 0, 67, 0
1, 130074, Note_on_c, 1, 36, 80
1, 130074, Note_on_c, 9, 35, 21
1, 130090, Note_on_c, 0, 76, 0
1, 130106, Note_on_c, 9, 35, 0
1, 130110, Note_on_c, 0, 70, 0
1, 130114, Note_on_c, 1, 36, 0
1, 130118, Control_c, 0, 64, 0
1, 130122, Note_on_c, 0, 64, 0
1, 130138, Note_on_c, 1, 40, 69
1, 130138, Note_on_c, 9, 44, 69
1, 130138, Note_on_c, 9, 51, 71
1, 130138, Note_on_c, 9, 59, 67
1, 130138, Note_on_c, 9, 37, 79
1, 130146, Note_on_c, 0, 61, 61
1, 130146, Note_on_c, 0, 70, 60
1, 130146, Note_on_c, 0, 67, 51
1, 130170, Note_on_c, 1, 40, 0
1, 130218, Note_on_c, 9, 59, 0
1, 130226, Note_on_c, 9, 51, 0
1, 130234, Note_on_c, 9, 44, 0
1, 130238, Note_on_c, 0, 67, 0
1, 130250, Note_on_c, 9, 37, 0
1, 130258, Note_on_c, 0, 70, 0
1, 130266, Note_on_c, 1, 37, 72
1, 130278, Note_on_c, 0, 61, 0
1, 130278, Note_on_c, 0, 76, 81
1, 130282, Note_on_c, 0, 69, 77
1, 130282, Note_on_c, 0, 65, 72
1, 130282, Note_on_c, 0, 64, 80
1, 130306, Note_on_c, 1, 37, 0
1, 130330, Note_on_c, 1, 38, 63
1, 130334, Note_on_c, 9, 51, 59
1, 130338, Note_on_c, 9, 59, 37
1, 130354, Note_on_c, 0, 76, 0
1, 130370, Note_on_c, 0, 64, 0
1, 130374, Note_on_c, 0, 65, 0
1, 130374, Note_on_c, 0, 69, 0
1, 130410, Note_on_c, 9, 59, 0
1, 130410, Note_on_c, 0, 65, 61
1, 130414, Note_on_c, 0, 74, 69
1, 130414, Note_on_c, 0, 69, 59
1, 130414, Note_on_c, 0, 62, 63
1, 130430, Note_on_c, 9, 51, 0
1, 130434, Note_on_c, 0, 73, 31
1, 130454, Note_on_c, 0, 73, 0
1, 130458, Note_on_c, 0, 69, 0
1, 130458, Note_on_c, 1, 40, 76
1, 130474, Note_on_c, 0, 74, 0
1, 130482, Note_on_c, 0, 65, 0
1, 130490, Note_on_c, 1, 40, 0
1, 130498, Note_on_c, 0, 62, 0
1, 130522, Note_on_c, 1, 41, 72
1, 130522, Note_on_c, 9, 44, 65
1, 130522, Note_on_c, 9, 59, 58
1, 130522, Note_on_c, 9, 48, 61
1, 130526, Note_on_c, 9, 51, 52
1, 130538, Note_on_c, 0, 72, 60
1, 130542, Note_on_c, 0, 60, 61
1, 130546, Note_on_c, 0, 65, 54
1, 130550, Note_on_c, 0, 62, 61
1, 130554, Note_on_c, 0, 69, 48
1, 130582, Note_on_c, 9, 59, 0
1, 130586, Note_on_c, 0, 69, 0
1, 130590, Note_on_c, 0, 72, 0
1, 130590, Note_on_c, 9, 51, 0
1, 130594, Note_on_c, 0, 65, 0
1, 130614, Note_on_c, 0, 62, 0
1, 130618, Note_on_c, 9, 44, 0
1, 130626, Note_on_c, 9, 48, 0
1, 130634, Note_on_c, 1, 38, 0
1, 130650, Note_on_c, 9, 48, 55
1, 130654, Note_on_c, 0, 60, 0
1, 130666, Note_on_c, 9, 51, 39
1, 130670, Note_on_c, 0, 69, 64
1, 130674, Note_on_c, 0, 62, 57
1, 130678, Note_on_c, 9, 51, 0
1, 130678, Note_on_c, 0, 57, 57
1, 130682, Note_on_c, 0, 65, 41
1, 130686, Note_on_c, 0, 60, 45
1, 130702, Note_on_c, 1, 41, 0
1, 130714, Note_on_c, 1, 38, 39
1, 130714, Note_on_c, 9, 59, 61
1, 130714, Note_on_c, 9, 51, 56
1, 130754, Note_on_c, 0, 62, 0
1, 130758, Note_on_c, 0, 57, 0
1, 130758, Note_on_c, 0, 60, 0
1, 130766, Note_on_c, 0, 65, 0
1, 130774, Note_on_c, 0, 69, 0
1, 130782, Note_on_c, 0, 52, 72
1, 130814, Note_on_c, 9, 48, 0
1, 130822, Note_on_c, 9, 59, 0
1, 130830, Note_on_c, 9, 51, 0
1, 130878, Note_on_c, 1, 38, 0
1, 130906, Note_on_c, 1, 38, 75
1, 130906, Note_on_c, 9, 44, 63
1, 130906, Note_on_c, 9, 51, 72
1, 130906, Note_on_c, 9, 37, 62
1, 130910, Note_on_c, 0, 52, 0
1, 130910, Note_on_c, 0, 67, 65
1, 130910, Note_on_c, 9, 59, 68
1, 130918, Note_on_c, 0, 60, 63
1, 130918, Note_on_c, 0, 57, 55
1, 130918, Note_on_c, 0, 55, 61
1, 130978, Note_on_c, 9, 51, 0
1, 130982, Note_on_c, 9, 59, 0
1, 130990, Note_on_c, 0, 67, 0
1, 131002, Note_on_c, 9, 37, 0
1, 131002, Note_on_c, 9, 44, 0
1, 131010, Note_on_c, 0, 57, 0
1, 131014, Note_on_c, 0, 60, 0
1, 131034, Note_on_c, 1, 34, 54
1, 131046, Note_on_c, 1, 38, 0
1, 131046, Note_on_c, 0, 65, 55
1, 131050, Note_on_c, 0, 55, 0
1, 131050, Note_on_c, 0, 57, 52
1, 131050, Note_on_c, 0, 60, 50
1, 131050, Note_on_c, 9, 51, 57
1, 131058, Note_on_c, 0, 53, 50
1, 131058, Note_on_c, 9, 59, 28
1, 131066, Note_on_c, 1, 34, 0
1, 131074, Note_on_c, 9, 51, 0
1, 131074, Note_on_c, 9, 59, 0
1, 131098, Control_c, 0, 64, 127
1, 131098, Note_on_c, 1, 38, 90
1, 131102, Note_on_c, 9, 51, 46
1, 131102, Note_on_c, 9, 59, 64
1, 131110, Note_on_c, 0, 60, 0
1, 131110, Note_on_c, 0, 57, 0
1, 131122, Note_on_c, 0, 53, 0
1, 131130, Note_on_c, 0, 65, 0
1, 131182, Note_on_c, 0, 64, 56
1, 131182, Note_on_c, 0, 55, 54
1, 131182, Note_on_c, 0, 58, 55
1, 131186, Note_on_c, 0, 52, 50
1, 131198, Note_on_c, 9, 59, 0
1, 131198, Control_c, 0, 64, 0
1, 131210, Note_on_c, 9, 51, 0
1, 131246, Note_on_c, 0, 55, 0
1, 131254, Note_on_c, 0, 58, 0
1, 131282, Note_on_c, 1, 38, 0
1, 131290, Note_on_c, 0, 64, 0
1, 131290, Note_on_c, 1, 41, 62
1, 131290, Note_on_c, 9, 44, 65
1, 131290, Note_on_c, 9, 51, 70
1, 131290, Note_on_c, 9, 59, 64
1, 131290, Note_on_c, 9, 48, 55
1, 131310, Note_on_c, 0, 52, 0
1, 131310, Note_on_c, 0, 55, 42
1, 131314, Note_on_c, 0, 58, 20
1, 131318, Note_on_c, 0, 49, 39
1, 131322, Note_on_c, 0, 61, 26
1, 131358, Control_c, 0, 64, 127
1, 131370, Note_on_c, 9, 59, 0
1, 131374, Note_on_c, 9, 48, 0
1, 131378, Note_on_c, 9, 51, 0
1, 131386, Note_on_c, 9, 44, 0
1, 131410, Note_on_c, 0, 55, 0
1, 131418, Note_on_c, 0, 61, 0
1, 131418, Control_c, 0, 64, 0
1, 131418, Note_on_c, 1, 38, 41
1, 131418, Note_on_c, 9, 48, 63
1, 131422, Note_on_c, 0, 58, 0
1, 131434, Note_on_c, 0, 49, 0
1, 131450, Note_on_c, 1, 38, 0
1, 131454, Note_on_c, 1, 41, 0
1, 131482, Note_on_c, 1, 49, 69
1, 131482, Note_on_c, 9, 51, 69
1, 131486, Note_on_c, 9, 59, 64
1, 131506, Control_c, 0, 64, 127
1, 131534, Note_on_c, 9, 48, 0
1, 131562, Note_on_c, 9, 59, 0
1, 131566, Note_on_c, 9, 51, 0
1, 131614, Note_on_c, 9, 59, 53
1, 131618, Note_on_c, 9, 53, 62
1, 131658, Note_on_c, 9, 59, 0
1, 131658, Control_c, 0, 64, 0
1, 131666, Note_on_c, 9, 53, 0
1, 131674, Note_on_c, 1, 41, 68
1, 131674, Note_on_c, 9, 44, 64
1, 131674, Note_on_c, 9, 37, 68
1, 131678, Note_on_c, 9, 51, 50
1, 131694, Control_c, 0, 64, 127
1, 131698, Note_on_c, 0, 49, 48
1, 131698, Note_on_c, 9, 59, 22
1, 131718, Note_on_c, 0, 49, 0
1, 131738, Note_on_c, 9, 37, 0
1, 131770, Note_on_c, 9, 44, 0
1, 131770, Note_on_c, 1, 49, 0
1, 131782, Note_on_c, 9, 59, 0
1, 131794, Note_on_c, 9, 51, 0
1, 131798, Note_on_c, 1, 41, 0
1, 131802, Note_on_c, 1, 37, 63
1, 131814, Control_c, 0, 64, 24
1, 131814, Control_c, 0, 64, 0
1, 131822, Note_on_c, 0, 65, 56
1, 131822, Note_on_c, 0, 53, 54
1, 131822, Note_on_c, 0, 57, 57
1, 131826, Note_on_c, 0, 60, 56
1, 131834, Note_on_c, 1, 37, 0
1, 131838, Note_on_c, 0, 62, 41
1, 131858, Note_on_c, 9, 59, 61
1, 131862, Note_on_c, 9, 51, 50
1, 131866, Note_on_c, 1, 38, 69
1, 131890, Control_c, 0, 64, 127
1, 131902, Note_on_c, 0, 62, 0
1, 131902, Note_on_c, 0, 57, 0
1, 131906, Note_on_c, 0, 53, 0
1, 131922, Note_on_c, 0, 65, 0
1, 131922, Note_on_c, 0, 60, 0
1, 131954, Note_on_c, 9, 59, 0
1, 131954, Note_on_c, 9, 51, 0
1, 131994, Note_on_c, 1, 37, 47
1, 132014, Note_on_c, 1, 38, 0
1, 132026, Note_on_c, 1, 37, 0
1, 132050, Note_on_c, 9, 59, 65
1, 132054, Control_c, 0, 64, 0
1, 132054, Note_on_c, 9, 51, 51
1, 132058, Note_on_c, 1, 41, 79
1, 132058, Note_on_c, 9, 44, 68
1, 132058, Note_on_c, 9, 48, 32
1, 132070, Note_on_c, 0, 68, 81
1, 132074, Note_on_c, 0, 56, 81
1, 132078, Note_on_c, 0, 62, 69
1, 132078, Note_on_c, 0, 60, 76
1, 132134, Note_on_c, 0, 60, 0
1, 132146, Note_on_c, 0, 62, 0
1, 132154, Note_on_c, 9, 59, 0
1, 132154, Note_on_c, 9, 44, 0
1, 132162, Note_on_c, 9, 51, 0
1, 132162, Note_on_c, 0, 68, 0
1, 132166, Note_on_c, 0, 56, 0
1, 132170, Note_on_c, 9, 48, 0
1, 132174, Control_c, 0, 64, 127
1, 132186, Note_on_c, 0, 60, 81
1, 132186, Note_on_c, 9, 48, 42
1, 132190, Note_on_c, 0, 69, 76
1, 132190, Note_on_c, 0, 62, 60
1, 132194, Note_on_c, 0, 57, 81
1, 132198, Note_on_c, 1, 41, 0
1, 132214, Note_on_c, 0, 62, 0
1, 132222, Note_on_c, 0, 69, 0
1, 132222, Note_on_c, 0, 60, 0
1, 132246, Control_c, 0, 64, 0
1, 132246, Note_on_c, 9, 59, 64
1, 132250, Note_on_c, 1, 48, 78
1, 132254, Note_on_c, 9, 51, 50
1, 132262, Note_on_c, 0, 57, 0
1, 132270, Note_on_c, 0, 72, 72
1, 132278, Note_on_c, 0, 62, 50
1, 132278, Note_on_c, 0, 60, 69
1, 132290, Note_on_c, 0, 62, 0
1, 132294, Control_c, 0, 64, 127
1, 132318, Note_on_c, 0, 72, 0
1, 132338, Note_on_c, 9, 59, 0
1, 132346, Note_on_c, 9, 51, 0
1, 132346, Note_on_c, 0, 60, 0
1, 132382, Note_on_c, 0, 76, 78
1, 132390, Note_on_c, 0, 65, 44
1, 132394, Note_on_c, 0, 64, 68
1, 132394, Note_on_c, 0, 69, 35
1, 132406, Note_on_c, 0, 65, 0
1, 132414, Note_on_c, 0, 76, 0
1, 132414, Note_on_c, 0, 69, 0
1, 132422, Note_on_c, 9, 48, 0
1, 132434, Control_c, 0, 64, 0
1, 132438, Note_on_c, 0, 64, 0
1, 132438, Note_on_c, 9, 59, 65
1, 132442, Note_on_c, 9, 44, 67
1, 132442, Note_on_c, 9, 37, 75
1, 132446, Note_on_c, 9, 51, 50
1, 132450, Note_on_c, 0, 79, 107
1, 132454, Note_on_c, 0, 72, 89
1, 132454, Note_on_c, 0, 69, 84
1, 132458, Note_on_c, 0, 67, 78
1, 132478, Note_on_c, 1, 48, 0
1, 132490, Note_on_c, 9, 37, 0
1, 132506, Note_on_c, 1, 45, 77
1, 132530, Note_on_c, 9, 59, 0
1, 132530, Note_on_c, 0, 79, 0
1, 132534, Note_on_c, 9, 51, 0
1, 132538, Note_on_c, 1, 45, 0
1, 132538, Note_on_c, 9, 44, 0
1, 132542, Note_on_c, 0, 67, 0
1, 132542, Note_on_c, 0, 69, 0
1, 132550, Note_on_c, 0, 72, 0
1, 132570, Note_on_c, 0, 65, 68
1, 132570, Note_on_c, 1, 37, 67
1, 132574, Note_on_c, 0, 77, 68
1, 132574, Note_on_c, 0, 72, 69
1, 132574, Note_on_c, 0, 69, 63
1, 132602, Note_on_c, 1, 37, 0
1, 132606, Note_on_c, 0, 72, 0
1, 132614, Note_on_c, 0, 77, 0
1, 132622, Note_on_c, 0, 65, 0
1, 132622, Note_on_c, 0, 69, 0
1, 132630, Note_on_c, 9, 59, 70
1, 132634, Note_on_c, 1, 38, 76
1, 132634, Note_on_c, 9, 51, 50
1, 132666, Note_on_c, 0, 76, 67
1, 132666, Note_on_c, 0, 64, 60
1, 132670, Note_on_c, 0, 65, 49
1, 132670, Note_on_c, 0, 69, 50
1, 132714, Control_c, 0, 64, 127
1, 132718, Note_on_c, 9, 59, 0
1, 132726, Note_on_c, 9, 51, 0
1, 132754, Control_c, 0, 64, 0
1, 132762, Note_on_c, 1, 37, 39
1, 132762, Note_on_c, 9, 35, 53
1, 132766, Note_on_c, 0, 76, 0
1, 132782, Note_on_c, 0, 65, 0
1, 132786, Note_on_c, 0, 69, 0
1, 132794, Note_on_c, 1, 37, 0
1, 132794, Note_on_c, 9, 35, 0
1, 132802, Note_on_c, 0, 64, 0
1, 132814, Note_on_c, 1, 38, 0
1, 132822, Note_on_c, 9, 59, 64
1, 132826, Control_c, 0, 64, 127
1, 132826, Note_on_c, 1, 41, 75
1, 132826, Note_on_c, 9, 44, 65
1, 132826, Note_on_c, 9, 51, 50
1, 132826, Note_on_c, 9, 48, 33
1, 132830, Note_on_c, 0, 65, 51
1, 132830, Note_on_c, 0, 69, 60
1, 132830, Note_on_c, 0, 62, 57
1, 132834, Note_on_c, 0, 74, 57
1, 132838, Note_on_c, 0, 71, 46
1, 132858, Note_on_c, 0, 71, 0
1, 132874, Note_on_c, 0, 62, 0
1, 132882, Note_on_c, 0, 69, 0
1, 132890, Note_on_c, 0, 65, 0
1, 132890, Note_on_c, 9, 51, 0
1, 132902, Note_on_c, 0, 74, 0
1, 132910, Note_on_c, 9, 59, 0
1, 132922, Note_on_c, 9, 44, 0
1, 132938, Note_on_c, 9, 48, 0
1, 132954, Note_on_c, 9, 48, 45
1, 132970, Note_on_c, 1, 41, 0
1, 132994, Control_c, 0, 64, 0
1, 133018, Note_on_c, 1, 47, 76
1, 133018, Note_on_c, 9, 59, 68
1, 133022, Note_on_c, 0, 65, 57
1, 133022, Note_on_c, 0, 69, 56
1, 133022, Note_on_c, 9, 51, 53
1, 133026, Note_on_c, 0, 60, 57
1, 133026, Note_on_c, 0, 62, 50
1, 133042, Control_c, 0, 64, 127
1, 133050, Note_on_c, 0, 60, 0
1, 133086, Note_on_c, 9, 51, 0
1, 133090, Note_on_c, 9, 59, 0
1, 133090, Note_on_c, 0, 69, 0
1, 133130, Note_on_c, 0, 62, 0
1, 133142, Note_on_c, 0, 65, 0
1, 133146, Note_on_c, 1, 38, 67
1, 133162, Note_on_c, 1, 47, 0
1, 133162, Note_on_c, 0, 50, 52
1, 133178, Note_on_c, 1, 38, 0
1, 133182, Control_c, 0, 64, 0
1, 133186, Note_on_c, 0, 50, 0
1, 133210, Note_on_c, 9, 48, 0
1, 133210, Note_on_c, 1, 33, 58
1, 133210, Note_on_c, 9, 44, 67
1, 133210, Note_on_c, 9, 37, 84
1, 133214, Note_on_c, 0, 54, 54
1, 133214, Note_on_c, 9, 59, 64
1, 133218, Note_on_c, 0, 44, 56
1, 133218, Note_on_c, 9, 51, 49
1, 133234, Control_c, 0, 64, 127
1, 133246, Note_on_c, 1, 33, 0
1, 133258, Note_on_c, 9, 37, 0
1, 133278, Note_on_c, 9, 51, 0
1, 133282, Note_on_c, 9, 59, 0
1, 133306, Note_on_c, 9, 44, 0
1, 133306, Note_on_c, 0, 54, 0
1, 133314, Note_on_c, 0, 44, 0
1, 133338, Control_c, 0, 64, 0
1, 133338, Note_on_c, 1, 32, 65
1, 133350, Note_on_c, 0, 58, 57
1, 133350, Note_on_c, 9, 59, 52
1, 133350, Note_on_c, 9, 53, 68
1, 133358, Note_on_c, 0, 43, 49
1, 133358, Note_on_c, 0, 62, 56
1, 133358, Note_on_c, 0, 55, 41
1, 133370, Note_on_c, 1, 32, 0
1, 133390, Note_on_c, 9, 59, 0
1, 133394, Note_on_c, 0, 43, 0
1, 133394, Note_on_c, 9, 53, 0
1, 133398, Control_c, 0, 64, 127
1, 133402, Note_on_c, 1, 31, 74
1, 133406, Note_on_c, 9, 51, 43
1, 133414, Note_on_c, 0, 58, 0
1, 133430, Note_on_c, 0, 62, 0
1, 133430, Note_on_c, 9, 59, 22
1, 133438, Note_on_c, 0, 55, 0
1, 133498, Note_on_c, 9, 59, 0
1, 133510, Note_on_c, 9, 51, 0
1, 133530, Note_on_c, 9, 35, 40
1, 133562, Note_on_c, 9, 35, 0
1, 133578, Note_on_c, 0, 62, 37
1, 133582, Note_on_c, 0, 58, 44
1, 133590, Note_on_c, 0, 57, 36
1, 133594, Control_c, 0, 64, 0
1, 133594, Note_on_c, 9, 44, 65
1, 133594, Note_on_c, 9, 59, 64
1, 133594, Note_on_c, 9, 48, 33
1, 133598, Note_on_c, 9, 51, 46
1, 133618, Note_on_c, 0, 69, 66
1, 133650, Note_on_c, 0, 69, 0
1, 133658, Note_on_c, 1, 38, 67
1, 133678, Note_on_c, 0, 58, 0
1, 133678, Note_on_c, 0, 67, 44
1, 133690, Note_on_c, 1, 38, 0
1, 133690, Note_on_c, 9, 44, 0
1, 133690, Note_on_c, 9, 59, 0
1, 133694, Note_on_c, 9, 51, 0
1, 133694, Note_on_c, 0, 62, 0
1, 133702, Note_on_c, 0, 67, 0
1, 133710, Note_on_c, 9, 48, 0
1, 133722, Note_on_c, 1, 38, 51
1, 133722, Note_on_c, 9, 48, 42
1, 133730, Note_on_c, 0, 69, 65
1, 133754, Note_on_c, 1, 38, 0
1, 133766, Note_on_c, 0, 62, 36
1, 133770, Note_on_c, 0, 58, 38
1, 133778, Note_on_c, 0, 69, 0
1, 133782, Note_on_c, 9, 59, 66
1, 133786, Note_on_c, 1, 46, 94
1, 133786, Note_on_c, 9, 51, 53
1, 133802, Note_on_c, 0, 67, 37
1, 133822, Note_on_c, 0, 67, 0
1, 133826, Note_on_c, 9, 51, 0
1, 133834, Note_on_c, 9, 59, 0
1, 133854, Note_on_c, 0, 69, 46
1, 133866, Note_on_c, 0, 62, 0
1, 133878, Note_on_c, 0, 57, 0
1, 133894, Note_on_c, 0, 69, 0
1, 133914, Note_on_c, 0, 74, 81
1, 133926, Note_on_c, 0, 58, 0
1, 133966, Note_on_c, 0, 74, 0
1, 133970, Note_on_c, 9, 48, 0
1, 133978, Note_on_c, 1, 43, 68
1, 133978, Note_on_c, 9, 44, 65
1, 133978, Note_on_c, 9, 37, 77
1, 133986, Note_on_c, 1, 46, 0
1, 133986, Note_on_c, 9, 51, 68
1, 133986, Note_on_c, 9, 59, 61
1, 133990, Note_on_c, 0, 69, 66
1, 134010, Note_on_c, 1, 43, 0
1, 134018, Note_on_c, 9, 51, 0
1, 134018, Note_on_c, 9, 37, 0
1, 134038, Note_on_c, 9, 59, 0
1, 134042, Note_on_c, 1, 38, 70
1, 134046, Note_on_c, 1, 31, 0
1, 134074, Note_on_c, 9, 44, 0
1, 134074, Note_on_c, 1, 38, 0
1, 134082, Note_on_c, 0, 69, 0
1, 134106, Note_on_c, 1, 31, 100
1, 134170, Note_on_c, 0, 62, 45
1, 134170, Note_on_c, 0, 54, 42
1, 134170, Note_on_c, 0, 58, 45
1, 134170, Note_on_c, 1, 31, 77
1, 134178, Note_on_c, 1, 31, 0
1, 134182, Note_on_c, 9, 51, 51
1, 134182, Note_on_c, 9, 59, 59
1, 134262, Note_on_c, 9, 59, 0
1, 134262, Note_on_c, 9, 51, 0
1, 134278, Note_on_c, 0, 69, 56
1, 134314, Note_on_c, 0, 69, 0
1, 134326, Note_on_c, 0, 67, 41
1, 134346, Note_on_c, 0, 67, 0
1, 134362, Note_on_c, 9, 44, 63
1, 134362, Note_on_c, 9, 48, 51
1, 134370, Note_on_c, 9, 59, 62
1, 134370, Note_on_c, 9, 51, 49
1, 134382, Note_on_c, 0, 69, 58
1, 134398, Note_on_c, 0, 62, 0
1, 134422, Note_on_c, 0, 58, 0
1, 134430, Note_on_c, 0, 69, 0
1, 134434, Note_on_c, 9, 59, 0
1, 134442, Note_on_c, 9, 51, 0
1, 134442, Note_on_c, 0, 70, 68
1, 134458, Note_on_c, 9, 44, 0
1, 134470, Note_on_c, 0, 70, 0
1, 134478, Note_on_c, 9, 48, 0
1, 134490, Note_on_c, 1, 38, 46
1, 134490, Note_on_c, 9, 48, 48
1, 134506, Note_on_c, 0, 74, 70
1, 134518, Note_on_c, 0, 76, 40
1, 134522, Note_on_c, 1, 38, 0
1, 134530, Note_on_c, 0, 76, 0
1, 134534, Note_on_c, 0, 62, 42
1, 134534, Note_on_c, 0, 58, 50
1, 134542, Note_on_c, 0, 74, 0
1, 134562, Note_on_c, 0, 62, 0
1, 134562, Note_on_c, 9, 48, 0
1, 134562, Note_on_c, 9, 51, 51
1, 134562, Note_on_c, 9, 59, 66
1, 134566, Note_on_c, 0, 78, 90
1, 134610, Note_on_c, 0, 78, 0
1, 134614, Note_on_c, 9, 51, 0
1, 134614, Note_on_c, 9, 59, 0
1, 134626, Note_on_c, 0, 81, 82
1, 134658, Note_on_c, 0, 54, 0
1, 134678, Note_on_c, 0, 58, 0
1, 134678, Note_on_c, 0, 81, 0
1, 134682, Note_on_c, 1, 38, 60
1, 134694, Note_on_c, 0, 78, 77
1, 134714, Note_on_c, 1, 38, 0
1, 134730, Note_on_c, 0, 78, 0
1, 134742, Note_on_c, 9, 51, 53
1, 134746, Note_on_c, 0, 79, 68
1, 134746, Note_on_c, 1, 42, 95
1, 134746, Note_on_c, 9, 44, 69
1, 134746, Note_on_c, 9, 59, 66
1, 134746, Note_on_c, 9, 37, 52
1, 134746, Note_on_c, 9, 31, 37
1, 134754, Note_on_c, 0, 54, 48
1, 134758, Note_on_c, 0, 62, 41
1, 134762, Note_on_c, 0, 58, 41
1, 134778, Note_on_c, 9, 31, 0
1, 134782, Note_on_c, 9, 37, 0
1, 134786, Note_on_c, 0, 79, 0
1, 134802, Note_on_c, 0, 62, 0
1, 134802, Note_on_c, 9, 51, 0
1, 134802, Note_on_c, 9, 59, 0
1, 134810, Note_on_c, 0, 81, 69
1, 134838, Note_on_c, 0, 58, 0
1, 134842, Note_on_c, 9, 44, 0
1, 134850, Note_on_c, 0, 54, 0
1, 134850, Note_on_c, 0, 81, 0
1, 134874, Note_on_c, 1, 31, 0
1, 134874, Note_on_c, 0, 82, 75
1, 134874, Note_on_c, 1, 38, 76
1, 134886, Note_on_c, 0, 58, 57
1, 134890, Note_on_c, 0, 62, 68
1, 134894, Note_on_c, 0, 53, 59
1, 134910, Note_on_c, 0, 82, 0
1, 134914, Note_on_c, 1, 42, 0
1, 134922, Note_on_c, 1, 38, 0
1, 134938, Note_on_c, 1, 31, 90
1, 134938, Note_on_c, 9, 51, 57
1, 134942, Note_on_c, 9, 59, 77
1, 134950, Note_on_c, 0, 86, 56
1, 134978, Note_on_c, 0, 86, 0
1, 135006, Note_on_c, 0, 90, 74
1, 135026, Note_on_c, 9, 51, 0
1, 135026, Note_on_c, 9, 59, 0
1, 135042, Note_on_c, 0, 62, 0
1, 135050, Note_on_c, 0, 90, 0
1, 135070, Note_on_c, 0, 93, 90
1, 135086, Note_on_c, 0, 58, 0
1, 135114, Note_on_c, 0, 93, 0
1, 135126, Note_on_c, 9, 59, 66
1, 135126, Note_on_c, 9, 51, 49
1, 135130, Note_on_c, 9, 44, 69
1, 135130, Note_on_c, 9, 48, 42
1, 135138, Note_on_c, 0, 58, 39
1, 135138, Note_on_c, 0, 62, 65
1, 135138, Note_on_c, 0, 98, 111
1, 135142, Note_on_c, 0, 86, 72
1, 135146, Note_on_c, 0, 88, 82
1, 135178, Control_c, 0, 64, 127
1, 135194, Note_on_c, 0, 88, 0
1, 135202, Note_on_c, 9, 51, 0
1, 135206, Note_on_c, 9, 59, 0
1, 135226, Note_on_c, 9, 44, 0
1, 135230, Note_on_c, 0, 98, 0
1, 135234, Note_on_c, 0, 62, 0
1, 135234, Note_on_c, 0, 53, 0
1, 135234, Note_on_c, 0, 86, 0
1, 135234, Note_on_c, 9, 48, 0
1, 135254, Note_on_c, 0, 58, 0
1, 135258, Note_on_c, 0, 98, 79
1, 135258, Note_on_c, 9, 48, 40
1, 135262, Note_on_c, 0, 86, 75
1, 135266, Note_on_c, 0, 53, 62
1, 135266, Note_on_c, 0, 58, 25
1, 135270, Note_on_c, 0, 62, 55
1, 135282, Control_c, 0, 64, 0
1, 135290, Note_on_c, 9, 48, 0
1, 135302, Note_on_c, 0, 98, 0
1, 135314, Note_on_c, 0, 86, 0
1, 135318, Note_on_c, 0, 53, 0
1, 135318, Note_on_c, 0, 62, 0
1, 135318, Note_on_c, 9, 51, 52
1, 135322, Note_on_c, 1, 43, 77
1, 135322, Note_on_c, 9, 59, 66
1, 135342, Note_on_c, 0, 58, 0
1, 135350, Note_on_c, 0, 96, 64
1, 135350, Note_on_c, 0, 53, 41
1, 135350, Note_on_c, 0, 84, 56
1, 135358, Note_on_c, 0, 62, 50
1, 135358, Note_on_c, 0, 58, 29
1, 135382, Note_on_c, 0, 84, 0
1, 135386, Note_on_c, 0, 96, 0
1, 135390, Note_on_c, 9, 59, 0
1, 135390, Note_on_c, 9, 51, 0
1, 135402, Note_on_c, 0, 62, 0
1, 135430, Note_on_c, 1, 31, 0
1, 135430, Note_on_c, 0, 53, 0
1, 135434, Note_on_c, 0, 58, 0
1, 135450, Note_on_c, 1, 38, 64
1, 135454, Note_on_c, 9, 50, 57
1, 135462, Note_on_c, 0, 96, 68
1, 135462, Note_on_c, 0, 84, 72
1, 135470, Note_on_c, 9, 50, 0
1, 135474, Note_on_c, 0, 53, 46
1, 135478, Note_on_c, 0, 58, 44
1, 135482, Note_on_c, 1, 38, 0
1, 135490, Note_on_c, 0, 96, 0
1, 135494, Note_on_c, 0, 84, 0
1, 135498, Note_on_c, 0, 53, 0
1, 135502, Note_on_c, 9, 51, 56
1, 135510, Note_on_c, 9, 59, 72
1, 135514, Note_on_c, 1, 34, 64
1, 135514, Note_on_c, 9, 44, 67
1, 135514, Note_on_c, 9, 37, 72
1, 135526, Note_on_c, 0, 53, 37
1, 135534, Note_on_c, 0, 94, 52
1, 135538, Note_on_c, 0, 62, 49
1, 135546, Note_on_c, 0, 82, 32
1, 135550, Note_on_c, 9, 37, 0
1, 135562, Control_c, 0, 64, 127
1, 135566, Note_on_c, 0, 82, 0
1, 135566, Note_on_c, 0, 62, 0
1, 135574, Note_on_c, 0, 94, 0
1, 135598, Note_on_c, 0, 58, 0
1, 135610, Note_on_c, 9, 44, 0
1, 135614, Note_on_c, 9, 59, 0
1, 135622, Note_on_c, 9, 51, 0
1, 135638, Note_on_c, 0, 58, 51
1, 135646, Note_on_c, 0, 62, 30
1, 135646, Note_on_c, 0, 82, 62
1, 135650, Note_on_c, 0, 94, 52
1, 135662, Note_on_c, 0, 53, 0
1, 135662, Control_c, 0, 64, 0
1, 135666, Note_on_c, 0, 62, 0
1, 135670, Note_on_c, 1, 43, 0
1, 135674, Note_on_c, 0, 94, 0
1, 135678, Note_on_c, 1, 34, 0
1, 135682, Note_on_c, 0, 82, 0
1, 135686, Note_on_c, 0, 58, 0
1, 135698, Note_on_c, 9, 51, 58
1, 135702, Note_on_c, 9, 59, 68
1, 135706, Note_on_c, 1, 33, 63
1, 135718, Note_on_c, 0, 58, 45
1, 135718, Note_on_c, 0, 62, 48
1, 135722, Note_on_c, 0, 52, 52
1, 135726, Note_on_c, 0, 93, 57
1, 135726, Note_on_c, 0, 81, 52
1, 135758, Note_on_c, 0, 62, 0
1, 135770, Note_on_c, 0, 52, 0
1, 135774, Note_on_c, 0, 93, 0
1, 135778, Note_on_c, 0, 58, 0
1, 135786, Note_on_c, 9, 59, 0
1, 135786, Note_on_c, 9, 51, 0
1, 135790, Note_on_c, 0, 81, 0
1, 135890, Note_on_c, 9, 51, 57
1, 135894, Note_on_c, 9, 59, 66
1, 135898, Note_on_c, 9, 44, 67
1, 135898, Note_on_c, 9, 48, 26
1, 135906, Note_on_c, 0, 58, 52
1, 135910, Note_on_c, 0, 91, 72
1, 135910, Note_on_c, 0, 62, 51
1, 135914, Note_on_c, 0, 52, 42
1, 135914, Note_on_c, 0, 79, 62
1, 135930, Control_c, 0, 64, 127
1, 135942, Note_on_c, 0, 52, 0
1, 135958, Note_on_c, 1, 33, 0
1, 135962, Note_on_c, 1, 38, 65
1, 135970, Note_on_c, 0, 58, 0
1, 135978, Note_on_c, 9, 51, 0
1, 135978, Note_on_c, 0, 91, 0
1, 135982, Note_on_c, 9, 59, 0
1, 135994, Note_on_c, 9, 44, 0
1, 135994, Note_on_c, 0, 79, 0
1, 135994, Note_on_c, 1, 38, 0
1, 136002, Note_on_c, 0, 62, 0
1, 136006, Note_on_c, 9, 48, 0
1, 136026, Note_on_c, 1, 33, 70
1, 136026, Note_on_c, 9, 48, 36
1, 136058, Note_on_c, 1, 33, 0
1, 136062, Note_on_c, 9, 48, 0
1, 136066, Control_c, 0, 64, 0
1, 136082, Note_on_c, 9, 59, 63
1, 136086, Note_on_c, 9, 51, 56
1, 136090, Note_on_c, 1, 37, 81
1, 136098, Note_on_c, 0, 88, 62
1, 136102, Note_on_c, 0, 58, 51
1, 136106, Note_on_c, 0, 82, 57
1, 136106, Note_on_c, 0, 64, 53
1, 136106, Note_on_c, 0, 61, 44
1, 136106, Note_on_c, 0, 76, 40
1, 136114, Note_on_c, 0, 55, 36
1, 136138, Control_c, 0, 64, 104
1, 136138, Control_c, 0, 64, 127
1, 136158, Note_on_c, 0, 88, 0
1, 136162, Note_on_c, 0, 61, 0
1, 136166, Note_on_c, 0, 76, 0
1, 136166, Note_on_c, 9, 59, 0
1, 136166, Note_on_c, 0, 64, 0
1, 136170, Note_on_c, 9, 51, 0
1, 136174, Note_on_c, 0, 82, 0
1, 136194, Note_on_c, 0, 58, 0
1, 136210, Note_on_c, 0, 55, 0
1, 136246, Control_c, 0, 64, 0
1, 136278, Note_on_c, 1, 37, 0
1, 136278, Note_on_c, 9, 51, 56
1, 136282, Note_on_c, 0, 61, 58
1, 136282, Note_on_c, 1, 40, 78
1, 136282, Note_on_c, 9, 46, 53
1, 136282, Note_on_c, 9, 59, 62
1, 136282, Note_on_c, 9, 37, 70
1, 136286, Control_c, 0, 64, 127
1, 136290, Note_on_c, 0, 68, 51
1, 136294, Note_on_c, 0, 58, 40
1, 136314, Note_on_c, 1, 40, 0
1, 136330, Note_on_c, 9, 37, 0
1, 136346, Note_on_c, 0, 68, 0
1, 136346, Note_on_c, 1, 37, 65
1, 136362, Note_on_c, 9, 59, 0
1, 136366, Note_on_c, 0, 58, 0
1, 136366, Note_on_c, 9, 51, 0
1, 136378, Note_on_c, 1, 37, 0
1, 136378, Note_on_c, 9, 46, 0
1, 136386, Note_on_c, 0, 61, 0
1, 136410, Note_on_c, 1, 37, 81
1, 136450, Note_on_c, 1, 37, 0
1, 136450, Control_c, 0, 64, 0
1, 136466, Note_on_c, 9, 51, 57
1, 136470, Note_on_c, 9, 59, 65
1, 136474, Note_on_c, 0, 79, 78
1, 136474, Note_on_c, 1, 38, 73
1, 136478, Note_on_c, 0, 70, 74
1, 136482, Note_on_c, 0, 64, 61
1, 136486, Note_on_c, 0, 72, 59
1, 136550, Note_on_c, 9, 59, 0
1, 136550, Note_on_c, 9, 51, 0
1, 136554, Note_on_c, 0, 79, 0
1, 136586, Note_on_c, 0, 72, 0
1, 136590, Note_on_c, 0, 70, 0
1, 136602, Note_on_c, 1, 37, 38
1, 136610, Note_on_c, 0, 64, 0
1, 136650, Note_on_c, 1, 37, 0
1, 136658, Note_on_c, 9, 51, 61
1, 136662, Note_on_c, 9, 59, 65
1, 136666, Note_on_c, 1, 45, 56
1, 136666, Note_on_c, 9, 44, 59
1, 136666, Note_on_c, 9, 48, 30
1, 136670, Note_on_c, 0, 69, 53
1, 136670, Note_on_c, 0, 77, 63
1, 136670, Note_on_c, 0, 62, 54
1, 136674, Note_on_c, 0, 72, 53
1, 136722, Note_on_c, 9, 59, 0
1, 136750, Note_on_c, 0, 77, 0
1, 136762, Note_on_c, 9, 44, 0
1, 136770, Note_on_c, 0, 72, 0
1, 136770, Note_on_c, 9, 51, 0
1, 136774, Note_on_c, 9, 48, 0
1, 136794, Note_on_c, 0, 69, 0
1, 136794, Note_on_c, 1, 37, 45
1, 136794, Note_on_c, 9, 53, 59
1, 136794, Note_on_c, 9, 48, 36
1, 136822, Note_on_c, 9, 53, 0
1, 136830, Note_on_c, 9, 48, 0
1, 136834, Note_on_c, 1, 38, 0
1, 136842, Note_on_c, 1, 45, 0
1, 136846, Note_on_c, 1, 37, 0
1, 136850, Note_on_c, 0, 62, 0
1, 136854, Note_on_c, 9, 51, 52
1, 136854, Note_on_c, 9, 59, 62
1, 136858, Note_on_c, 0, 61, 59
1, 136858, Note_on_c, 0, 76, 60
1, 136858, Note_on_c, 0, 70, 61
1, 136858, Note_on_c, 1, 53, 74
1, 136866, Note_on_c, 0, 67, 47
1, 136934, Note_on_c, 0, 76, 0
1, 136958, Note_on_c, 9, 59, 0
1, 136962, Note_on_c, 9, 51, 0
1, 136962, Note_on_c, 0, 67, 0
1, 136974, Note_on_c, 0, 70, 0
1, 137002, Note_on_c, 0, 61, 0
1, 137002, Note_on_c, 0, 74, 68
1, 137006, Note_on_c, 0, 65, 63
1, 137006, Note_on_c, 0, 69, 60
1, 137010, Note_on_c, 0, 60, 61
1, 137022, Control_c, 0, 64, 127
1, 137042, Note_on_c, 9, 51, 55
1, 137046, Note_on_c, 9, 59, 66
1, 137050, Note_on_c, 9, 44, 65
1, 137050, Note_on_c, 9, 37, 90
1, 137054, Note_on_c, 0, 69, 0
1, 137066, Note_on_c, 0, 74, 0
1, 137078, Note_on_c, 0, 65, 0
1, 137094, Note_on_c, 9, 37, 0
1, 137106, Note_on_c, 0, 60, 0
1, 137122, Note_on_c, 9, 51, 0
1, 137126, Note_on_c, 9, 59, 0
1, 137146, Note_on_c, 9, 44, 0
1, 137166, Control_c, 0, 64, 0
1, 137178, Note_on_c, 1, 52, 81
1, 137182, Note_on_c, 1, 53, 0
1, 137182, Note_on_c, 0, 72, 75
1, 137190, Note_on_c, 0, 65, 77
1, 137190, Note_on_c, 0, 69, 63
1, 137190, Note_on_c, 0, 62, 75
1, 137190, Note_on_c, 0, 57, 82
1, 137222, Note_on_c, 1, 52, 0
1, 137238, Control_c, 0, 64, 127
1, 137238, Note_on_c, 9, 51, 53
1, 137238, Note_on_c, 9, 59, 63
1, 137242, Note_on_c, 1, 50, 65
1, 137246, Note_on_c, 0, 69, 0
1, 137254, Note_on_c, 0, 72, 0
1, 137254, Note_on_c, 0, 65, 0
1, 137290, Note_on_c, 0, 62, 0
1, 137318, Note_on_c, 9, 51, 0
1, 137322, Note_on_c, 9, 59, 0
1, 137350, Control_c, 0, 64, 0
1, 137362, Note_on_c, 1, 50, 0
1, 137370, Note_on_c, 0, 57, 0
1, 137370, Note_on_c, 0, 69, 75
1, 137370, Note_on_c, 1, 45, 80
1, 137374, Note_on_c, 0, 62, 76
1, 137374, Note_on_c, 0, 53, 76
1, 137374, Note_on_c, 0, 65, 61
1, 137374, Note_on_c, 0, 60, 73
1, 137414, Note_on_c, 1, 45, 0
1, 137418, Control_c, 0, 64, 127
1, 137422, Note_on_c, 0, 69, 0
1, 137426, Note_on_c, 0, 65, 0
1, 137426, Note_on_c, 9, 51, 54
1, 137430, Note_on_c, 0, 62, 0
1, 137430, Note_on_c, 9, 59, 69
1, 137434, Note_on_c, 1, 41, 73
1, 137434, Note_on_c, 9, 44, 68
1, 137434, Note_on_c, 9, 48, 20
1, 137446, Note_on_c, 0, 60, 0
1, 137446, Note_on_c, 0, 53, 0
1, 137510, Note_on_c, 9, 51, 0
1, 137514, Note_on_c, 9, 59, 0
1, 137530, Note_on_c, 9, 44, 0
1, 137534, Note_on_c, 9, 48, 0
1, 137534, Control_c, 0, 64, 0
1, 137554, Note_on_c, 0, 65, 71
1, 137554, Note_on_c, 0, 57, 78
1, 137558, Note_on_c, 0, 60, 78
1, 137558, Note_on_c, 0, 62, 68
1, 137562, Note_on_c, 0, 50, 73
1, 137562, Note_on_c, 1, 34, 56
1, 137562, Note_on_c, 9, 48, 30
1, 137594, Note_on_c, 1, 34, 0
1, 137594, Note_on_c, 0, 50, 0
1, 137598, Note_on_c, 1, 41, 0
1, 137602, Control_c, 0, 64, 127
1, 137618, Note_on_c, 9, 51, 57
1, 137626, Note_on_c, 1, 38, 68
1, 137626, Note_on_c, 9, 59, 73
1, 137662, Note_on_c, 9, 48, 0
1, 137674, Note_on_c, 0, 62, 0
1, 137678, Note_on_c, 0, 60, 0
1, 137682, Note_on_c, 0, 65, 0
1, 137686, Note_on_c, 0, 57, 0
1, 137718, Note_on_c, 9, 51, 0
1, 137722, Note_on_c, 9, 59, 0
1, 137754, Note_on_c, 1, 33, 54
1, 137754, Note_on_c, 9, 37, 59
1, 137758, Note_on_c, 0, 44, 63
1, 137770, Note_on_c, 0, 44, 0
1, 137786, Note_on_c, 1, 38, 0
1, 137786, Note_on_c, 1, 33, 0
1, 137790, Control_c, 0, 64, 0
1, 137806, Note_on_c, 9, 37, 0
1, 137814, Note_on_c, 0, 39, 66
1, 137814, Note_on_c, 9, 51, 47
1, 137814, Note_on_c, 9, 59, 64
1, 137818, Note_on_c, 0, 55, 99
1, 137818, Note_on_c, 1, 37, 50
1, 137818, Note_on_c, 9, 44, 69
1, 137822, Note_on_c, 0, 49, 54
1, 137854, Control_c, 0, 64, 127
1, 137858, Note_on_c, 9, 59, 0
1, 137858, Note_on_c, 9, 51, 0
1, 137898, Note_on_c, 0, 49, 0
1, 137902, Control_c, 0, 64, 0
1, 137914, Note_on_c, 9, 44, 0
1, 137918, Note_on_c, 0, 39, 0
1, 137950, Note_on_c, 0, 54, 88
1, 137954, Note_on_c, 0, 50, 75
1, 137954, Note_on_c, 0, 38, 73
1, 137954, Note_on_c, 9, 51, 47
1, 137954, Note_on_c, 9, 59, 68
1, 137966, Note_on_c, 9, 51, 0
1, 137974, Note_on_c, 9, 59, 0
1, 137978, Note_on_c, 1, 37, 0
1, 137982, Note_on_c, 0, 55, 0
1, 137994, Control_c, 0, 64, 127
1, 138006, Note_on_c, 9, 51, 57
1, 138010, Note_on_c, 1, 38, 68
1, 138010, Note_on_c, 9, 59, 64
1, 138030, Note_on_c, 0, 54, 0
1, 138050, Note_on_c, 0, 38, 0
1, 138078, Note_on_c, 0, 50, 0
1, 138158, Note_on_c, 1, 38, 0
1, 138202, Control_c, 0, 64, 0
1, 138202, Note_on_c, 1, 38, 43
1, 138202, Note_on_c, 1, 42, 71
1, 138202, Note_on_c, 9, 44, 68
1, 138202, Note_on_c, 9, 48, 30
1, 138210, Note_on_c, 0, 85, 75
1, 138210, Note_on_c, 0, 55, 68
1, 138214, Note_on_c, 0, 66, 70
1, 138214, Note_on_c, 0, 61, 61
1, 138214, Note_on_c, 0, 80, 75
1, 138218, Note_on_c, 0, 73, 59
1, 138246, Control_c, 0, 64, 127
1, 138254, Note_on_c, 9, 51, 0
1, 138258, Note_on_c, 9, 59, 0
1, 138274, Note_on_c, 1, 42, 0
1, 138294, Note_on_c, 0, 66, 0
1, 138298, Note_on_c, 9, 44, 0
1, 138298, Note_on_c, 0, 55, 0
1, 138298, Note_on_c, 0, 80, 0
1, 138306, Note_on_c, 9, 48, 0
1, 138310, Note_on_c, 0, 85, 0
1, 138314, Control_c, 0, 64, 0
1, 138318, Note_on_c, 0, 73, 0
1, 138326, Note_on_c, 9, 51, 62
1, 138330, Note_on_c, 9, 48, 33
1, 138334, Note_on_c, 0, 61, 0
1, 138334, Note_on_c, 9, 59, 63
1, 138350, Note_on_c, 0, 72, 68
1, 138350, Note_on_c, 0, 84, 66
1, 138350, Note_on_c, 0, 79, 61
1, 138354, Note_on_c, 0, 54, 58
1, 138354, Note_on_c, 0, 64, 59
1, 138358, Note_on_c, 9, 59, 0
1, 138362, Note_on_c, 9, 51, 0
1, 138362, Note_on_c, 0, 60, 54
1, 138370, Note_on_c, 1, 38, 0
1, 138382, Control_c, 0, 64, 127
1, 138390, Note_on_c, 9, 51, 51
1, 138394, Note_on_c, 1, 52, 69
1, 138394, Note_on_c, 9, 59, 56
1, 138434, Note_on_c, 9, 48, 0
1, 138438, Note_on_c, 0, 72, 0
1, 138462, Note_on_c, 0, 79, 0
1, 138466, Note_on_c, 0, 60, 0
1, 138486, Note_on_c, 0, 84, 0
1, 138490, Note_on_c, 0, 54, 0
1, 138490, Note_on_c, 0, 64, 0
1, 138510, Note_on_c, 9, 59, 0
1, 138526, Note_on_c, 9, 51, 0
1, 138530, Note_on_c, 9, 53, 62
1, 138542, Note_on_c, 1, 52, 0
1, 138554, Note_on_c, 0, 61, 25
1, 138570, Note_on_c, 0, 61, 0
1, 138570, Note_on_c, 9, 53, 0
1, 138570, Control_c, 0, 64, 0
1, 138582, Note_on_c, 9, 51, 38
1, 138586, Note_on_c, 0, 66, 61
1, 138586, Note_on_c, 1, 51, 68
1, 138586, Note_on_c, 9, 44, 69
1, 138586, Note_on_c, 9, 54, 43
1, 138594, Note_on_c, 0, 55, 54
1, 138594, Note_on_c, 0, 85, 72
1, 138594, Note_on_c, 0, 97, 60
1, 138594, Note_on_c, 0, 61, 39
1, 138606, Note_on_c, 0, 97, 0
1, 138618, Note_on_c, 9, 54, 0
1, 138638, Control_c, 0, 64, 127
1, 138654, Note_on_c, 0, 55, 0
1, 138658, Note_on_c, 0, 66, 0
1, 138682, Note_on_c, 9, 44, 0
1, 138690, Note_on_c, 0, 85, 0
1, 138690, Control_c, 0, 64, 0
1, 138706, Note_on_c, 0, 61, 0
1, 138706, Note_on_c, 9, 51, 0
1, 138726, Note_on_c, 0, 96, 39
1, 138726, Note_on_c, 0, 54, 49
1, 138730, Note_on_c, 0, 84, 49
1, 138730, Note_on_c, 0, 64, 46
1, 138734, Note_on_c, 0, 91, 52
1, 138738, Note_on_c, 0, 60, 51
1, 138750, Note_on_c, 1, 51, 0
1, 138766, Control_c, 0, 64, 127
1, 138774, Note_on_c, 0, 84, 0
1, 138778, Note_on_c, 1, 50, 73
1, 138778, Note_on_c, 9, 59, 57
1, 138782, Note_on_c, 9, 51, 37
1, 138786, Note_on_c, 0, 91, 0
1, 138790, Note_on_c, 0, 64, 0
1, 138802, Note_on_c, 0, 96, 0
1, 138802, Note_on_c, 0, 54, 0
1, 138810, Note_on_c, 0, 60, 0
1, 138870, Note_on_c, 9, 51, 0
1, 138870, Note_on_c, 9, 59, 0
1, 138906, Note_on_c, 1, 38, 54
1, 138918, Note_on_c, 0, 101, 57
1, 138922, Control_c, 0, 64, 0
1, 138926, Note_on_c, 0, 54, 52
1, 138926, Note_on_c, 0, 98, 54
1, 138926, Note_on_c, 0, 64, 50
1, 138926, Note_on_c, 0, 89, 29
1, 138926, Note_on_c, 0, 60, 56
1, 138938, Note_on_c, 1, 38, 0
1, 138958, Control_c, 0, 64, 127
1, 138962, Note_on_c, 1, 50, 0
1, 138970, Note_on_c, 1, 44, 72
1, 138970, Note_on_c, 9, 44, 67
1, 138970, Note_on_c, 9, 51, 50
1, 138970, Note_on_c, 9, 48, 29
1, 138974, Note_on_c, 9, 59, 57
1, 139050, Note_on_c, 0, 60, 0
1, 139054, Note_on_c, 0, 64, 0
1, 139058, Note_on_c, 9, 59, 0
1, 139062, Note_on_c, 9, 51, 0
1, 139066, Note_on_c, 9, 44, 0
1, 139070, Note_on_c, 0, 54, 0
1, 139078, Note_on_c, 0, 98, 0
1, 139082, Note_on_c, 9, 48, 0
1, 139086, Note_on_c, 0, 89, 0
1, 139086, Note_on_c, 0, 101, 0
1, 139098, Note_on_c, 9, 48, 33
1, 139154, Note_on_c, 1, 44, 0
1, 139158, Control_c, 0, 64, 0
1, 139162, Note_on_c, 0, 54, 47
1, 139162, Note_on_c, 1, 39, 56
1, 139166, Note_on_c, 0, 101, 45
1, 139166, Note_on_c, 9, 51, 51
1, 139166, Note_on_c, 9, 59, 67
1, 139170, Note_on_c, 0, 89, 48
1, 139170, Note_on_c, 0, 64, 34
1, 139174, Note_on_c, 0, 60, 43
1, 139202, Note_on_c, 0, 101, 0
1, 139214, Note_on_c, 0, 64, 0
1, 139226, Note_on_c, 0, 89, 0
1, 139230, Note_on_c, 0, 60, 0
1, 139250, Note_on_c, 9, 51, 0
1, 139254, Note_on_c, 0, 54, 0
1, 139266, Note_on_c, 9, 59, 0
1, 139282, Note_on_c, 9, 48, 0
1, 139290, Note_on_c, 1, 36, 59
1, 139298, Note_on_c, 0, 60, 54
1, 139322, Note_on_c, 1, 36, 0
1, 139330, Note_on_c, 1, 39, 0
1, 139350, Note_on_c, 9, 51, 40
1, 139354, Note_on_c, 1, 32, 75
1, 139354, Note_on_c, 9, 44, 64
1, 139354, Note_on_c, 9, 59, 58
1, 139354, Note_on_c, 9, 37, 90
1, 139362, Note_on_c, 0, 54, 52
1, 139362, Note_on_c, 0, 92, 59
1, 139362, Note_on_c, 0, 64, 46
1, 139370, Note_on_c, 0, 98, 48
1, 139390, Note_on_c, 0, 64, 0
1, 139394, Note_on_c, 9, 59, 0
1, 139394, Note_on_c, 9, 51, 0
1, 139394, Note_on_c, 0, 60, 0
1, 139414, Note_on_c, 0, 92, 0
1, 139418, Note_on_c, 9, 37, 0
1, 139430, Note_on_c, 0, 98, 0
1, 139430, Note_on_c, 0, 93, 38
1, 139446, Note_on_c, 0, 93, 0
1, 139450, Note_on_c, 9, 44, 0
1, 139474, Note_on_c, 0, 54, 0
1, 139490, Note_on_c, 0, 92, 72
1, 139490, Note_on_c, 0, 98, 66
1, 139490, Note_on_c, 9, 51, 34
1, 139494, Note_on_c, 9, 59, 47
1, 139502, Note_on_c, 9, 51, 0
1, 139510, Note_on_c, 9, 59, 0
1, 139514, Note_on_c, 0, 58, 42
1, 139514, Note_on_c, 0, 62, 37
1, 139522, Note_on_c, 0, 53, 35
1, 139534, Note_on_c, 0, 57, 35
1, 139538, Note_on_c, 0, 92, 0
1, 139542, Note_on_c, 1, 32, 0
1, 139542, Note_on_c, 9, 51, 55
1, 139546, Note_on_c, 0, 98, 0
1, 139546, Note_on_c, 1, 31, 67
1, 139546, Note_on_c, 9, 59, 62
1, 139578, Note_on_c, 0, 86, 50
1, 139594, Note_on_c, 0, 58, 0
1, 139646, Note_on_c, 0, 62, 0
1, 139654, Note_on_c, 0, 86, 0
1, 139694, Note_on_c, 0, 86, 53
1, 139702, Note_on_c, 0, 62, 40
1, 139702, Note_on_c, 0, 58, 46
1, 139706, Note_on_c, 0, 86, 0
1, 139714, Note_on_c, 0, 53, 0
1, 139722, Note_on_c, 0, 62, 0
1, 139734, Note_on_c, 0, 58, 0
1, 139734, Note_on_c, 0, 57, 0
1, 139738, Note_on_c, 1, 38, 74
1, 139738, Note_on_c, 9, 44, 65
1, 139738, Note_on_c, 9, 48, 29
1, 139762, Note_on_c, 0, 98, 57
1, 139762, Note_on_c, 0, 92, 61
1, 139794, Note_on_c, 9, 51, 0
1, 139802, Note_on_c, 9, 59, 0
1, 139834, Note_on_c, 0, 92, 0
1, 139834, Note_on_c, 9, 44, 0
1, 139834, Note_on_c, 0, 98, 0
1, 139842, Note_on_c, 9, 48, 0
1, 139846, Note_on_c, 0, 93, 37
1, 139862, Note_on_c, 0, 93, 0
1, 139866, Note_on_c, 9, 51, 56
1, 139866, Note_on_c, 9, 48, 35
1, 139874, Note_on_c, 9, 59, 54
1, 139882, Note_on_c, 0, 58, 49
1, 139882, Note_on_c, 0, 62, 43
1, 139890, Note_on_c, 9, 59, 0
1, 139890, Note_on_c, 9, 51, 0
1, 139890, Note_on_c, 1, 31, 0
1, 139890, Note_on_c, 0, 98, 68
1, 139894, Note_on_c, 0, 92, 74
1, 139894, Note_on_c, 0, 57, 29
1, 139906, Note_on_c, 9, 48, 0
1, 139906, Note_on_c, 1, 38, 0
1, 139930, Note_on_c, 0, 62, 0
1, 139930, Note_on_c, 1, 46, 55
1, 139930, Note_on_c, 9, 59, 70
1, 139934, Note_on_c, 9, 51, 72
1, 139942, Note_on_c, 0, 58, 0
1, 139954, Note_on_c, 0, 92, 0
1, 139958, Note_on_c, 0, 98, 0
1, 139966, Note_on_c, 0, 57, 0
1, 139978, Note_on_c, 0, 86, 51
1, 140050, Note_on_c, 0, 86, 0
1, 140058, Note_on_c, 9, 59, 0
1, 140058, Note_on_c, 1, 34, 55
1, 140070, Note_on_c, 9, 51, 0
1, 140086, Note_on_c, 0, 62, 33
1, 140086, Note_on_c, 0, 58, 45
1, 140090, Note_on_c, 1, 46, 0
1, 140090, Note_on_c, 0, 86, 57
1, 140098, Note_on_c, 1, 34, 0
1, 140102, Note_on_c, 0, 57, 20
1, 140106, Note_on_c, 0, 86, 0
1, 140114, Note_on_c, 0, 53, 16
1, 140118, Note_on_c, 0, 62, 0
1, 140122, Note_on_c, 1, 35, 64
1, 140122, Note_on_c, 9, 44, 64
1, 140122, Note_on_c, 9, 59, 61
1, 140122, Note_on_c, 9, 37, 72
1, 140126, Note_on_c, 9, 51, 49
1, 140142, Note_on_c, 0, 58, 0
1, 140150, Note_on_c, 0, 53, 0
1, 140154, Note_on_c, 0, 92, 54
1, 140158, Note_on_c, 0, 57, 0
1, 140158, Note_on_c, 0, 98, 46
1, 140186, Note_on_c, 0, 92, 0
1, 140202, Note_on_c, 9, 37, 0
1, 140206, Note_on_c, 0, 93, 40
1, 140218, Note_on_c, 9, 44, 0
1, 140226, Note_on_c, 9, 59, 0
1, 140226, Note_on_c, 9, 51, 0
1, 140226, Note_on_c, 0, 98, 0
1, 140238, Note_on_c, 0, 93, 0
1, 140250, Note_on_c, 1, 34, 50
1, 140266, Note_on_c, 0, 98, 67
1, 140270, Note_on_c, 0, 62, 50
1, 140270, Note_on_c, 0, 58, 47
1, 140274, Note_on_c, 0, 92, 72
1, 140278, Note_on_c, 1, 35, 0
1, 140278, Note_on_c, 0, 52, 50
1, 140302, Note_on_c, 1, 34, 0
1, 140314, Note_on_c, 1, 36, 59
1, 140318, Note_on_c, 0, 62, 0
1, 140318, Note_on_c, 9, 59, 65
1, 140318, Note_on_c, 9, 51, 51
1, 140326, Note_on_c, 0, 92, 0
1, 140330, Note_on_c, 0, 93, 43
1, 140334, Note_on_c, 0, 98, 0
1, 140342, Note_on_c, 0, 93, 0
1, 140366, Note_on_c, 0, 58, 0
1, 140366, Note_on_c, 0, 86, 52
1, 140398, Note_on_c, 0, 52, 0
1, 140402, Note_on_c, 9, 59, 0
1, 140426, Note_on_c, 0, 86, 0
1, 140434, Note_on_c, 9, 51, 0
1, 140442, Note_on_c, 1, 42, 100
1, 140466, Note_on_c, 0, 86, 50
1, 140466, Note_on_c, 0, 58, 46
1, 140474, Note_on_c, 1, 36, 0
1, 140490, Note_on_c, 0, 86, 0
1, 140502, Note_on_c, 9, 59, 63
1, 140502, Note_on_c, 9, 51, 47
1, 140506, Note_on_c, 9, 44, 67
1, 140506, Note_on_c, 9, 48, 38
1, 140522, Note_on_c, 0, 58, 0
1, 140534, Note_on_c, 0, 92, 49
1, 140542, Note_on_c, 0, 98, 31
1, 140570, Note_on_c, 9, 59, 0
1, 140574, Note_on_c, 0, 92, 0
1, 140590, Note_on_c, 9, 51, 0
1, 140590, Note_on_c, 0, 93, 45
1, 140602, Note_on_c, 9, 44, 0
1, 140602, Note_on_c, 0, 98, 0
1, 140614, Note_on_c, 0, 93, 0
1, 140614, Note_on_c, 9, 48, 0
1, 140634, Note_on_c, 9, 48, 35
1, 140642, Note_on_c, 0, 62, 56
1, 140642, Note_on_c, 0, 58, 52
1, 140646, Note_on_c, 0, 98, 72
1, 140646, Note_on_c, 0, 52, 48
1, 140650, Note_on_c, 0, 92, 74
1, 140674, Note_on_c, 0, 62, 0
1, 140698, Note_on_c, 9, 51, 47
1, 140698, Note_on_c, 9, 59, 51
1, 140706, Note_on_c, 0, 92, 0
1, 140726, Note_on_c, 0, 58, 0
1, 140726, Note_on_c, 0, 52, 0
1, 140738, Note_on_c, 9, 51, 0
1, 140742, Note_on_c, 0, 98, 0
1, 140742, Note_on_c, 0, 86, 48
1, 140750, Note_on_c, 9, 48, 0
1, 140762, Note_on_c, 9, 59, 0
1, 140786, Note_on_c, 0, 86, 0
1, 140826, Note_on_c, 1, 37, 55
1, 140838, Note_on_c, 0, 58, 54
1, 140842, Note_on_c, 0, 52, 51
1, 140842, Note_on_c, 0, 86, 57
1, 140850, Note_on_c, 0, 62, 30
1, 140858, Note_on_c, 1, 37, 0
1, 140862, Note_on_c, 0, 86, 0
1, 140870, Note_on_c, 0, 62, 0
1, 140890, Note_on_c, 1, 30, 66
1, 140890, Note_on_c, 9, 44, 62
1, 140890, Note_on_c, 9, 51, 70
1, 140890, Note_on_c, 9, 37, 71
1, 140906, Note_on_c, 0, 92, 60
1, 140906, Note_on_c, 0, 98, 61
1, 140914, Note_on_c, 0, 62, 37
1, 140938, Note_on_c, 0, 62, 0
1, 140946, Note_on_c, 0, 92, 0
1, 140962, Note_on_c, 0, 93, 34
1, 140970, Note_on_c, 9, 37, 0
1, 140970, Note_on_c, 0, 98, 0
1, 140974, Note_on_c, 0, 58, 0
1, 140986, Note_on_c, 9, 44, 0
1, 140986, Note_on_c, 0, 93, 0
1, 141002, Note_on_c, 0, 52, 0
1, 141010, Note_on_c, 9, 51, 0
1, 141014, Note_on_c, 0, 62, 41
1, 141014, Note_on_c, 0, 98, 64
1, 141018, Note_on_c, 1, 37, 44
1, 141030, Note_on_c, 0, 93, 51
1, 141034, Note_on_c, 0, 62, 0
1, 141042, Note_on_c, 1, 30, 0
1, 141042, Note_on_c, 0, 93, 0
1, 141046, Note_on_c, 1, 42, 0
1, 141046, Note_on_c, 0, 98, 0
1, 141066, Note_on_c, 1, 37, 0
1, 141078, Note_on_c, 0, 53, 50
1, 141078, Note_on_c, 0, 64, 50
1, 141082, Note_on_c, 0, 96, 63
1, 141082, Note_on_c, 1, 29, 77
1, 141086, Note_on_c, 0, 57, 49
1, 141090, Note_on_c, 0, 84, 48
1, 141090, Note_on_c, 9, 51, 58
1, 141094, Control_c, 0, 64, 127
1, 141094, Note_on_c, 0, 60, 54
1, 141194, Note_on_c, 9, 51, 0
1, 141246, Note_on_c, 0, 64, 0
1, 141254, Note_on_c, 0, 57, 0
1, 141258, Note_on_c, 0, 96, 0
1, 141270, Note_on_c, 0, 53, 0
1, 141274, Note_on_c, 9, 44, 68
1, 141274, Note_on_c, 9, 48, 30
1, 141278, Note_on_c, 9, 51, 63
1, 141286, Note_on_c, 0, 84, 0
1, 141310, Note_on_c, 0, 60, 0
1, 141370, Note_on_c, 9, 44, 0
1, 141382, Note_on_c, 9, 48, 0
1, 141394, Note_on_c, 9, 51, 0
1, 141402, Note_on_c, 1, 36, 50
1, 141402, Note_on_c, 9, 48, 38
1, 141434, Note_on_c, 1, 36, 0
1, 141466, Note_on_c, 1, 41, 90
1, 141478, Note_on_c, 0, 64, 75
1, 141478, Note_on_c, 9, 51, 57
1, 141482, Note_on_c, 0, 60, 57
1, 141482, Note_on_c, 0, 93, 85
1, 141482, Note_on_c, 0, 53, 55
1, 141482, Note_on_c, 0, 81, 83
1, 141482, Note_on_c, 0, 88, 81
1, 141490, Note_on_c, 0, 57, 52
1, 141578, Note_on_c, 0, 93, 0
1, 141598, Note_on_c, 0, 88, 0
1, 141610, Note_on_c, 0, 53, 0
1, 141618, Note_on_c, 0, 64, 0
1, 141622, Note_on_c, 0, 81, 0
1, 141622, Note_on_c, 0, 57, 0
1, 141622, Note_on_c, 0, 60, 0
1, 141642, Note_on_c, 9, 48, 0
1, 141658, Note_on_c, 9, 44, 64
1, 141658, Note_on_c, 9, 37, 58
1, 141726, Note_on_c, 9, 51, 0
1, 141734, Note_on_c, 9, 37, 0
1, 141754, Note_on_c, 9, 44, 0
1, 141790, Note_on_c, 9, 51, 57
1, 141814, Note_on_c, 9, 51, 0
1, 141838, Note_on_c, 1, 29, 0
1, 141846, Note_on_c, 1, 41, 0
1, 141846, Note_on_c, 9, 51, 55
1, 141850, Note_on_c, 1, 32, 90
1, 141862, Note_on_c, 0, 54, 60
1, 141866, Note_on_c, 0, 58, 57
1, 141938, Note_on_c, 0, 54, 0
1, 141946, Note_on_c, 0, 58, 0
1, 141966, Note_on_c, 0, 61, 82
1, 141966, Note_on_c, 0, 65, 80
1, 141974, Note_on_c, 0, 54, 48
1, 141974, Note_on_c, 0, 58, 72
1, 142018, Note_on_c, 0, 61, 0
1, 142022, Note_on_c, 0, 54, 0
1, 142030, Note_on_c, 0, 65, 0
1, 142042, Note_on_c, 0, 66, 79
1, 142042, Note_on_c, 9, 44, 67
1, 142046, Note_on_c, 0, 63, 71
1, 142054, Note_on_c, 0, 54, 55
1, 142086, Note_on_c, 9, 51, 0
1, 142106, Note_on_c, 0, 54, 0
1, 142114, Note_on_c, 0, 63, 0
1, 142126, Note_on_c, 0, 58, 0
1, 142130, Note_on_c, 0, 66, 0
1, 142138, Note_on_c, 9, 44, 0
1, 142150, Note_on_c, 0, 68, 82
1, 142154, Note_on_c, 0, 65, 76
1, 142158, Note_on_c, 0, 61, 60
1, 142158, Note_on_c, 0, 54, 52
1, 142158, Note_on_c, 0, 58, 65
1, 142158, Note_on_c, 0, 66, 54
1, 142174, Note_on_c, 0, 66, 0
1, 142182, Note_on_c, 9, 51, 49
1, 142190, Note_on_c, 0, 65, 0
1, 142198, Note_on_c, 0, 54, 0
1, 142210, Note_on_c, 9, 51, 0
1, 142222, Note_on_c, 0, 61, 0
1, 142226, Note_on_c, 0, 58, 0
1, 142226, Note_on_c, 0, 68, 0
1, 142230, Control_c, 0, 64, 0
1, 142234, Note_on_c, 1, 48, 100
1, 142238, Note_on_c, 9, 51, 51
1, 142250, Note_on_c, 0, 70, 78
1, 142250, Note_on_c, 0, 54, 61
1, 142254, Note_on_c, 0, 66, 61
1, 142254, Note_on_c, 0, 60, 66
1, 142266, Note_on_c, 1, 32, 0
1, 142278, Control_c, 0, 64, 127
1, 142286, Note_on_c, 0, 66, 0
1, 142302, Note_on_c, 0, 70, 0
1, 142322, Note_on_c, 0, 54, 0
1, 142330, Note_on_c, 0, 60, 0
1, 142346, Note_on_c, 0, 72, 68
1, 142350, Note_on_c, 0, 54, 68
1, 142358, Note_on_c, 0, 64, 61
1, 142362, Note_on_c, 0, 60, 61
1, 142362, Note_on_c, 9, 34, 46
1, 142386, Note_on_c, 0, 72, 0
1, 142390, Note_on_c, 0, 64, 0
1, 142398, Note_on_c, 9, 34, 0
1, 142426, Note_on_c, 9, 46, 58
1, 142442, Note_on_c, 0, 73, 63
1, 142446, Note_on_c, 0, 64, 36
1, 142466, Note_on_c, 0, 64, 0
1, 142482, Note_on_c, 0, 54, 0
1, 142486, Note_on_c, 9, 51, 0
1, 142490, Note_on_c, 0, 73, 0
1, 142502, Note_on_c, 0, 60, 0
1, 142522, Note_on_c, 9, 46, 0
1, 142534, Note_on_c, 0, 54, 49
1, 142542, Note_on_c, 0, 75, 87
1, 142542, Note_on_c, 0, 60, 45
1, 142546, Note_on_c, 0, 54, 0
1, 142554, Note_on_c, 1, 36, 58
1, 142554, Note_on_c, 9, 34, 44
1, 142570, Note_on_c, 9, 51, 46
1, 142586, Note_on_c, 9, 34, 0
1, 142586, Note_on_c, 0, 60, 0
1, 142594, Note_on_c, 0, 75, 0
1, 142602, Note_on_c, 1, 36, 0
1, 142606, Note_on_c, 9, 51, 0
1, 142610, Control_c, 0, 64, 0
1, 142618, Note_on_c, 1, 37, 90
1, 142622, Note_on_c, 1, 48, 0
1, 142626, Note_on_c, 0, 68, 75
1, 142626, Note_on_c, 0, 72, 78
1, 142626, Note_on_c, 0, 60, 66
1, 142626, Note_on_c, 0, 53, 63
1, 142626, Note_on_c, 0, 63, 74
1, 142626, Note_on_c, 0, 65, 75
1, 142630, Note_on_c, 9, 51, 62
1, 142634, Note_on_c, 0, 56, 57
1, 142682, Control_c, 0, 64, 127
1, 142682, Note_on_c, 9, 35, 31
1, 142794, Note_on_c, 0, 63, 0
1, 142886, Note_on_c, 0, 60, 0
1, 142898, Note_on_c, 0, 56, 0
1, 142918, Note_on_c, 0, 65, 0
1, 142938, Note_on_c, 0, 68, 0
1, 142958, Note_on_c, 9, 51, 0
1, 143002, Note_on_c, 1, 44, 77
1, 143002, Note_on_c, 9, 44, 68
1, 143006, Note_on_c, 9, 51, 71
1, 143022, Note_on_c, 0, 72, 0
1, 143030, Note_on_c, 0, 63, 39
1, 143034, Note_on_c, 0, 65, 46
1, 143038, Note_on_c, 9, 35, 0
1, 143038, Note_on_c, 0, 56, 35
1, 143038, Note_on_c, 0, 60, 41
1, 143038, Note_on_c, 0, 68, 39
1, 143046, Note_on_c, 1, 37, 0
1, 143126, Note_on_c, 9, 44, 0
1, 143130, Note_on_c, 1, 37, 45
1, 143158, Note_on_c, 0, 65, 0
1, 143166, Note_on_c, 1, 37, 0
1, 143182, Note_on_c, 1, 44, 0
1, 143194, Note_on_c, 1, 45, 78
1, 143198, Note_on_c, 0, 53, 0
1, 143202, Note_on_c, 0, 60, 0
1, 143210, Note_on_c, 0, 56, 0
1, 143210, Note_on_c, 0, 68, 0
1, 143214, Note_on_c, 0, 63, 0
1, 143298, Note_on_c, 9, 51, 0
1, 143322, Note_on_c, 9, 35, 29
1, 143350, Note_on_c, 9, 51, 39
1, 143362, Note_on_c, 9, 35, 0
1, 143366, Note_on_c, 9, 51, 0
1, 143374, Note_on_c, 1, 45, 0
1, 143386, Note_on_c, 1, 46, 67
1, 143386, Note_on_c, 9, 35, 31
1, 143402, Note_on_c, 9, 51, 61
1, 143406, Note_on_c, 0, 65, 41
1, 143410, Note_on_c, 0, 61, 46
1, 143414, Note_on_c, 0, 56, 36
1, 143414, Note_on_c, 0, 60, 46
1, 143430, Control_c, 0, 64, 0
1, 143486, Control_c, 0, 64, 127
1, 143518, Note_on_c, 9, 35, 0
1, 143534, Note_on_c, 0, 82, 98
1, 143610, Note_on_c, 0, 65, 0
1, 143614, Note_on_c, 0, 56, 0
1, 143618, Note_on_c, 0, 60, 0
1, 143622, Note_on_c, 0, 61, 0
1, 143630, Note_on_c, 0, 82, 0
1, 143654, Note_on_c, 0, 84, 107
1, 143654, Note_on_c, 0, 65, 69
1, 143654, Note_on_c, 0, 61, 56
1, 143658, Note_on_c, 0, 56, 57
1, 143658, Note_on_c, 0, 60, 58
1, 143682, Note_on_c, 9, 51, 0
1, 143718, Note_on_c, 9, 51, 45
1, 143726, Note_on_c, 0, 56, 0
1, 143734, Note_on_c, 0, 65, 0
1, 143742, Note_on_c, 0, 84, 0
1, 143742, Note_on_c, 9, 51, 0
1, 143746, Note_on_c, 0, 60, 0
1, 143746, Note_on_c, 0, 61, 0
1, 143766, Note_on_c, 1, 46, 0
1, 143766, Control_c, 0, 64, 0
1, 143770, Note_on_c, 1, 41, 70
1, 143770, Note_on_c, 9, 44, 65
1, 143774, Note_on_c, 9, 51, 62
1, 143790, Note_on_c, 0, 87, 94
1, 143790, Note_on_c, 0, 82, 92
1, 143794, Note_on_c, 0, 75, 88
1, 143794, Note_on_c, 0, 65, 82
1, 143794, Note_on_c, 0, 56, 71
1, 143794, Note_on_c, 0, 61, 67
1, 143798, Note_on_c, 0, 60, 65
1, 143818, Control_c, 0, 64, 127
1, 143874, Note_on_c, 0, 87, 0
1, 143878, Note_on_c, 9, 44, 0
1, 143882, Note_on_c, 0, 56, 0
1, 143882, Note_on_c, 0, 65, 0
1, 143886, Note_on_c, 0, 60, 0
1, 143890, Note_on_c, 0, 75, 0
1, 143894, Note_on_c, 0, 61, 0
1, 143898, Note_on_c, 0, 82, 0
1, 143922, Note_on_c, 0, 85, 81
1, 143922, Note_on_c, 0, 65, 67
1, 143922, Note_on_c, 0, 56, 60
1, 143922, Note_on_c, 0, 61, 70
1, 143922, Note_on_c, 0, 73, 77
1, 143926, Note_on_c, 0, 60, 58
1, 143942, Note_on_c, 0, 80, 36
1, 143966, Note_on_c, 0, 80, 0
1, 143974, Note_on_c, 0, 56, 0
1, 143978, Note_on_c, 0, 85, 0
1, 143982, Note_on_c, 0, 65, 0
1, 143982, Note_on_c, 0, 73, 0
1, 143990, Note_on_c, 0, 60, 0
1, 144014, Note_on_c, 0, 84, 72
1, 144018, Note_on_c, 0, 72, 73
1, 144042, Note_on_c, 9, 51, 0
1, 144050, Note_on_c, 0, 84, 0
1, 144050, Note_on_c, 0, 72, 0
1, 144074, Note_on_c, 0, 61, 0
1, 144082, Note_on_c, 9, 53, 71
1, 144090, Note_on_c, 1, 38, 53
1, 144090, Note_on_c, 9, 35, 17
1, 144094, Note_on_c, 0, 56, 27
1, 144106, Note_on_c, 0, 65, 48
1, 144110, Note_on_c, 0, 82, 64
1, 144110, Note_on_c, 0, 61, 56
1, 144114, Note_on_c, 0, 70, 66
1, 144122, Note_on_c, 0, 65, 0
1, 144122, Note_on_c, 1, 38, 0
1, 144122, Note_on_c, 9, 35, 0
1, 144122, Note_on_c, 9, 53, 0
1, 144134, Note_on_c, 1, 41, 0
1, 144138, Note_on_c, 0, 56, 0
1, 144146, Note_on_c, 0, 70, 0
1, 144146, Note_on_c, 0, 82, 0
1, 144150, Note_on_c, 9, 51, 39
1, 144154, Note_on_c, 0, 61, 0
1, 144154, Note_on_c, 1, 39, 81
1, 144154, Note_on_c, 9, 35, 21
1, 144186, Note_on_c, 9, 35, 0
1, 144198, Control_c, 0, 64, 0
1, 144238, Control_c, 0, 64, 127
1, 144246, Control_c, 0, 64, 0
1, 144282, Note_on_c, 9, 37, 49
1, 144302, Note_on_c, 0, 77, 68
1, 144306, Note_on_c, 0, 54, 56
1, 144306, Note_on_c, 0, 65, 46
1, 144306, Note_on_c, 0, 61, 56
1, 144314, Note_on_c, 9, 37, 0
1, 144314, Note_on_c, 0, 70, 42
1, 144314, Note_on_c, 0, 58, 56
1, 144318, Note_on_c, 0, 73, 43
1, 144346, Note_on_c, 9, 37, 30
1, 144350, Note_on_c, 0, 70, 0
1, 144354, Note_on_c, 0, 65, 0
1, 144358, Note_on_c, 0, 54, 0
1, 144358, Note_on_c, 0, 77, 0
1, 144358, Note_on_c, 0, 61, 0
1, 144362, Note_on_c, 0, 73, 0
1, 144366, Note_on_c, 0, 58, 0
1, 144390, Control_c, 0, 64, 127
1, 144394, Note_on_c, 9, 37, 0
1, 144414, Note_on_c, 9, 51, 0
1, 144422, Note_on_c, 0, 77, 61
1, 144426, Note_on_c, 0, 70, 60
1, 144426, Note_on_c, 0, 73, 51
1, 144426, Note_on_c, 0, 65, 59
1, 144426, Note_on_c, 0, 54, 46
1, 144430, Note_on_c, 0, 58, 48
1, 144430, Note_on_c, 0, 61, 50
1, 144478, Note_on_c, 0, 65, 0
1, 144482, Note_on_c, 0, 61, 0
1, 144482, Note_on_c, 0, 70, 0
1, 144482, Note_on_c, 9, 51, 33
1, 144490, Note_on_c, 0, 73, 0
1, 144490, Note_on_c, 0, 58, 0
1, 144494, Note_on_c, 0, 54, 0
1, 144494, Note_on_c, 0, 77, 0
1, 144494, Note_on_c, 9, 51, 0
1, 144526, Note_on_c, 1, 39, 0
1, 144526, Control_c, 0, 64, 0
1, 144538, Note_on_c, 1, 34, 75
1, 144538, Note_on_c, 9, 44, 67
1, 144538, Note_on_c, 9, 51, 60
1, 144538, Note_on_c, 9, 35, 23
1, 144550, Control_c, 0, 64, 72
1, 144550, Control_c, 0, 64, 127
1, 144558, Note_on_c, 0, 77, 63
1, 144558, Note_on_c, 0, 54, 40
1, 144562, Note_on_c, 0, 58, 47
1, 144562, Note_on_c, 0, 61, 47
1, 144562, Note_on_c, 0, 65, 52
1, 144566, Note_on_c, 0, 70, 53
1, 144570, Note_on_c, 0, 73, 44
1, 144598, Note_on_c, 0, 77, 0
1, 144610, Note_on_c, 0, 65, 0
1, 144614, Note_on_c, 9, 35, 0
1, 144618, Note_on_c, 0, 61, 0
1, 144622, Note_on_c, 0, 58, 0
1, 144630, Note_on_c, 0, 70, 0
1, 144630, Note_on_c, 0, 73, 0
1, 144630, Note_on_c, 0, 54, 0
1, 144634, Note_on_c, 9, 44, 0
1, 144670, Control_c, 0, 64, 0
1, 144682, Note_on_c, 0, 75, 56
1, 144690, Note_on_c, 0, 61, 49
1, 144690, Note_on_c, 0, 54, 45
1, 144690, Note_on_c, 0, 58, 48
1, 144690, Note_on_c, 0, 63, 52
1, 144694, Note_on_c, 0, 70, 52
1, 144710, Note_on_c, 0, 70, 0
1, 144718, Note_on_c, 0, 63, 0
1, 144718, Control_c, 0, 64, 127
1, 144726, Note_on_c, 0, 54, 0
1, 144730, Note_on_c, 0, 61, 0
1, 144734, Note_on_c, 0, 75, 0
1, 144738, Note_on_c, 0, 58, 0
1, 144806, Note_on_c, 0, 70, 56
1, 144806, Note_on_c, 0, 77, 48
1, 144806, Note_on_c, 0, 65, 51
1, 144810, Note_on_c, 0, 61, 49
1, 144814, Note_on_c, 0, 73, 48
1, 144814, Note_on_c, 0, 58, 49
1, 144818, Note_on_c, 0, 54, 41
1, 144822, Note_on_c, 0, 65, 0
1, 144826, Note_on_c, 9, 51, 0
1, 144830, Note_on_c, 0, 77, 0
1, 144834, Note_on_c, 0, 73, 0
1, 144838, Note_on_c, 0, 54, 0
1, 144842, Note_on_c, 0, 70, 0
1, 144854, Note_on_c, 1, 34, 0
1, 144858, Note_on_c, 0, 61, 0
1, 144858, Note_on_c, 1, 33, 68
1, 144906, Note_on_c, 0, 58, 0
1, 144914, Control_c, 0, 64, 0
1, 144918, Note_on_c, 1, 33, 0
1, 144922, Note_on_c, 1, 32, 66
1, 144934, Note_on_c, 0, 78, 61
1, 144934, Note_on_c, 0, 66, 54
1, 144938, Note_on_c, 9, 51, 62
1, 144942, Note_on_c, 0, 54, 45
1, 144942, Note_on_c, 0, 73, 55
1, 144942, Note_on_c, 0, 64, 42
1, 144946, Note_on_c, 0, 60, 47
1, 144962, Control_c, 0, 64, 127
1, 145002, Note_on_c, 0, 66, 0
1, 145010, Note_on_c, 0, 64, 0
1, 145010, Note_on_c, 0, 78, 0
1, 145014, Note_on_c, 0, 73, 0
1, 145022, Note_on_c, 0, 60, 0
1, 145022, Note_on_c, 0, 54, 0
1, 145050, Note_on_c, 9, 31, 36
1, 145062, Control_c, 0, 64, 0
1, 145066, Note_on_c, 0, 80, 66
1, 145070, Note_on_c, 0, 68, 54
1, 145074, Note_on_c, 0, 54, 47
1, 145074, Note_on_c, 0, 60, 43
1, 145074, Note_on_c, 0, 75, 52
1, 145078, Note_on_c, 0, 64, 41
1, 145094, Note_on_c, 9, 31, 0
1, 145106, Control_c, 0, 64, 127
1, 145114, Note_on_c, 1, 48, 93
1, 145114, Note_on_c, 9, 35, 19
1, 145126, Note_on_c, 0, 64, 0
1, 145150, Note_on_c, 0, 80, 0
1, 145162, Note_on_c, 0, 75, 0
1, 145182, Note_on_c, 0, 68, 0
1, 145194, Note_on_c, 0, 60, 0
1, 145214, Note_on_c, 9, 35, 0
1, 145226, Note_on_c, 0, 54, 0
1, 145238, Note_on_c, 9, 51, 0
1, 145242, Note_on_c, 9, 35, 31
1, 145254, Note_on_c, 9, 53, 60
1, 145274, Note_on_c, 9, 35, 0
1, 145286, Note_on_c, 9, 53, 0
1, 145298, Control_c, 0, 64, 0
1, 145306, Note_on_c, 9, 44, 71
1, 145314, Note_on_c, 0, 77, 61
1, 145314, Note_on_c, 9, 51, 38
1, 145318, Note_on_c, 0, 54, 43
1, 145318, Note_on_c, 0, 65, 55
1, 145318, Note_on_c, 0, 72, 54
1, 145322, Note_on_c, 0, 60, 43
1, 145338, Control_c, 0, 64, 127
1, 145382, Note_on_c, 9, 51, 0
1, 145402, Note_on_c, 9, 44, 0
1, 145434, Note_on_c, 9, 53, 76
1, 145478, Note_on_c, 9, 53, 0
1, 145498, Note_on_c, 1, 32, 0
1, 145498, Note_on_c, 1, 36, 79
1, 145502, Note_on_c, 1, 48, 0
1, 145510, Note_on_c, 0, 60, 0
1, 145522, Note_on_c, 9, 51, 13
1, 145546, Note_on_c, 0, 77, 0
1, 145566, Note_on_c, 0, 54, 0
1, 145590, Note_on_c, 0, 65, 0
1, 145594, Note_on_c, 9, 51, 0
1, 145614, Note_on_c, 0, 75, 49
1, 145618, Note_on_c, 0, 72, 0
1, 145626, Note_on_c, 9, 51, 46
1, 145626, Note_on_c, 9, 32, 34
1, 145642, Note_on_c, 0, 75, 0
1, 145646, Note_on_c, 9, 51, 0
1, 145658, Note_on_c, 9, 32, 0
1, 145678, Note_on_c, 1, 36, 0
1, 145686, Note_on_c, 9, 51, 54
1, 145690, Note_on_c, 1, 37, 84
1, 145690, Note_on_c, 9, 35, 19
1, 145698, Control_c, 0, 64, 0
1, 145714, Note_on_c, 0, 73, 47
1, 145714, Note_on_c, 0, 65, 29
1, 145718, Note_on_c, 0, 61, 27
1, 145722, Note_on_c, 0, 58, 38
1, 145722, Note_on_c, 0, 56, 35
1, 145722, Note_on_c, 0, 53, 32
1, 145726, Note_on_c, 0, 70, 40
1, 145726, Note_on_c, 0, 68, 31
1, 145746, Note_on_c, 0, 68, 0
1, 145746, Note_on_c, 0, 70, 0
1, 145746, Note_on_c, 0, 65, 0
1, 145750, Note_on_c, 0, 53, 0
1, 145754, Note_on_c, 0, 73, 0
1, 145754, Note_on_c, 0, 56, 0
1, 145754, Note_on_c, 0, 61, 0
1, 145762, Note_on_c, 0, 58, 0
1, 145794, Note_on_c, 9, 35, 0
1, 145818, Note_on_c, 9, 35, 24
1, 145822, Note_on_c, 0, 61, 41
1, 145822, Note_on_c, 0, 73, 45
1, 145826, Note_on_c, 0, 65, 36
1, 145826, Note_on_c, 0, 68, 39
1, 145830, Note_on_c, 0, 70, 42
1, 145834, Note_on_c, 0, 58, 39
1, 145846, Note_on_c, 0, 56, 22
1, 145850, Note_on_c, 0, 70, 0
1, 145850, Note_on_c, 0, 68, 0
1, 145854, Note_on_c, 0, 58, 0
1, 145854, Note_on_c, 0, 65, 0
1, 145854, Note_on_c, 9, 35, 0
1, 145862, Note_on_c, 0, 73, 0
1, 145862, Note_on_c, 0, 61, 0
1, 145866, Note_on_c, 0, 56, 0
1, 145910, Note_on_c, 0, 61, 42
1, 145910, Note_on_c, 0, 73, 39
1, 145914, Note_on_c, 0, 65, 39
1, 145914, Note_on_c, 0, 68, 39
1, 145922, Note_on_c, 0, 70, 40
1, 145922, Note_on_c, 0, 56, 25
1, 145926, Note_on_c, 0, 58, 36
1, 145942, Note_on_c, 0, 70, 0
1, 145942, Note_on_c, 9, 51, 0
1, 145942, Note_on_c, 0, 65, 0
1, 145946, Note_on_c, 0, 58, 0
1, 145946, Note_on_c, 0, 68, 0
1, 145950, Note_on_c, 0, 73, 0
1, 145950, Note_on_c, 0, 61, 0
1, 145954, Note_on_c, 0, 56, 0
1, 146006, Note_on_c, 9, 51, 39
1, 146022, Note_on_c, 0, 61, 52
1, 146022, Note_on_c, 0, 65, 47
1, 146022, Note_on_c, 0, 73, 45
1, 146026, Note_on_c, 0, 68, 41
1, 146030, Note_on_c, 0, 58, 39
1, 146034, Note_on_c, 9, 51, 0
1, 146034, Note_on_c, 0, 70, 44
1, 146038, Note_on_c, 0, 56, 35
1, 146050, Note_on_c, 0, 70, 0
1, 146054, Note_on_c, 0, 61, 0
1, 146054, Note_on_c, 0, 58, 0
1, 146058, Note_on_c, 0, 56, 0
1, 146058, Note_on_c, 0, 65, 0
1, 146058, Note_on_c, 0, 68, 0
1, 146062, Note_on_c, 0, 73, 0
1, 146062, Note_on_c, 9, 51, 67
1, 146074, Note_on_c, 9, 44, 71
1, 146090, Control_c, 0, 64, 127
1, 146098, Note_on_c, 1, 37, 0
1, 146114, Note_on_c, 0, 61, 44
1, 146118, Note_on_c, 0, 73, 38
1, 146118, Note_on_c, 0, 65, 36
1, 146122, Note_on_c, 0, 68, 39
1, 146130, Note_on_c, 0, 58, 37
1, 146134, Note_on_c, 0, 70, 40
1, 146146, Note_on_c, 0, 56, 18
1, 146170, Note_on_c, 0, 56, 0
1, 146170, Note_on_c, 0, 58, 0
1, 146170, Note_on_c, 9, 44, 0
1, 146174, Note_on_c, 0, 61, 0
1, 146202, Note_on_c, 1, 37, 70
1, 146266, Note_on_c, 9, 35, 23
1, 146290, Note_on_c, 1, 37, 0
1, 146330, Note_on_c, 1, 36, 80
1, 146334, Note_on_c, 9, 51, 0
1, 146334, Note_on_c, 9, 35, 0
1, 146354, Note_on_c, 0, 65, 0
1, 146362, Note_on_c, 1, 36, 0
1, 146374, Note_on_c, 0, 73, 0
1, 146386, Note_on_c, 0, 68, 0
1, 146390, Note_on_c, 0, 70, 0
1, 146390, Note_on_c, 9, 51, 44
1, 146394, Note_on_c, 1, 35, 70
1, 146394, Note_on_c, 9, 35, 32
1, 146422, Note_on_c, 9, 51, 0
1, 146426, Note_on_c, 9, 35, 0
1, 146442, Note_on_c, 1, 35, 0
1, 146442, Control_c, 0, 64, 0
1, 146446, Note_on_c, 9, 51, 65
1, 146458, Note_on_c, 1, 34, 76
1, 146466, Note_on_c, 0, 34, 58
1, 146470, Note_on_c, 0, 46, 60
1, 146478, Note_on_c, 0, 34, 0
1, 146482, Control_c, 0, 64, 127
1, 146502, Note_on_c, 0, 46, 0
1, 146518, Pitch_bend_c, 1, 8192
1, 146522, Pitch_bend_c, 1, 8192
1, 146522, Pitch_bend_c, 1, 8192
1, 146526, Pitch_bend_c, 1, 7424
1, 146530, Pitch_bend_c, 1, 7168
1, 146534, Pitch_bend_c, 1, 6912
1, 146534, Pitch_bend_c, 1, 6528
1, 146538, Pitch_bend_c, 1, 6272
1, 146538, Pitch_bend_c, 1, 6016
1, 146542, Pitch_bend_c, 1, 5760
1, 146542, Pitch_bend_c, 1, 5504
1, 146546, Pitch_bend_c, 1, 5120
1, 146550, Pitch_bend_c, 1, 4864
1, 146550, Pitch_bend_c, 1, 4736
1, 146554, Pitch_bend_c, 1, 4608
1, 146554, Pitch_bend_c, 1, 4480
1, 146562, Pitch_bend_c, 1, 4352
1, 146582, Pitch_bend_c, 1, 4480
1, 146586, Pitch_bend_c, 1, 4736
1, 146586, Pitch_bend_c, 1, 4864
1, 146590, Pitch_bend_c, 1, 5120
1, 146590, Pitch_bend_c, 1, 5504
1, 146594, Pitch_bend_c, 1, 5888
1, 146594, Pitch_bend_c, 1, 6272
1, 146598, Note_on_c, 0, 56, 56
1, 146598, Pitch_bend_c, 1, 6656
1, 146602, Pitch_bend_c, 1, 7040
1, 146602, Pitch_bend_c, 1, 7552
1, 146606, Note_on_c, 0, 58, 57
1, 146606, Pitch_bend_c, 1, 8192
1, 146606, Pitch_bend_c, 1, 8192
1, 146606, Pitch_bend_c, 1, 8192
1, 146622, Note_on_c, 0, 58, 0
1, 146634, Note_on_c, 0, 59, 63
1, 146638, Note_on_c, 0, 56, 0
1, 146658, Note_on_c, 0, 62, 55
1, 146658, Pitch_bend_c, 1, 8192
1, 146658, Pitch_bend_c, 1, 8192
1, 146662, Pitch_bend_c, 1, 7680
1, 146666, Pitch_bend_c, 1, 7424
1, 146666, Pitch_bend_c, 1, 7168
1, 146670, Pitch_bend_c, 1, 6784
1, 146670, Pitch_bend_c, 1, 6528
1, 146674, Note_on_c, 0, 59, 0
1, 146674, Pitch_bend_c, 1, 6272
1, 146674, Pitch_bend_c, 1, 5888
1, 146678, Pitch_bend_c, 1, 5632
1, 146682, Pitch_bend_c, 1, 5376
1, 146682, Pitch_bend_c, 1, 4992
1, 146686, Note_on_c, 0, 64, 57
1, 146686, Pitch_bend_c, 1, 4736
1, 146686, Pitch_bend_c, 1, 4608
1, 146690, Pitch_bend_c, 1, 4480
1, 146690, Pitch_bend_c, 1, 4224
1, 146694, Pitch_bend_c, 1, 4096
1, 146698, Pitch_bend_c, 1, 3840
1, 146706, Pitch_bend_c, 1, 3712
1, 146710, Pitch_bend_c, 1, 3968
1, 146714, Note_on_c, 0, 62, 0
1, 146714, Pitch_bend_c, 1, 4096
1, 146714, Pitch_bend_c, 1, 4352
1, 146718, Control_c, 0, 64, 0
1, 146718, Pitch_bend_c, 1, 4480
1, 146718, Pitch_bend_c, 1, 4864
1, 146722, Note_on_c, 0, 64, 0
1, 146722, Note_on_c, 0, 67, 52
1, 146722, Pitch_bend_c, 1, 5376
1, 146722, Pitch_bend_c, 1, 5760
1, 146726, Note_on_c, 9, 51, 0
1, 146726, Pitch_bend_c, 1, 6144
1, 146730, Pitch_bend_c, 1, 6656
1, 146730, Pitch_bend_c, 1, 7296
1, 146734, Note_on_c, 0, 67, 0
1, 146734, Pitch_bend_c, 1, 8192
1, 146734, Pitch_bend_c, 1, 8192
1, 146734, Pitch_bend_c, 1, 8192
1, 146742, Note_on_c, 0, 68, 57
1, 146754, Control_c, 0, 64, 127
1, 146758, Note_on_c, 0, 68, 0
1, 146766, Note_on_c, 0, 70, 29
1, 146770, Note_on_c, 0, 71, 75
1, 146778, Note_on_c, 9, 51, 42
1, 146778, Note_on_c, 9, 31, 34
1, 146782, Pitch_bend_c, 1, 8192
1, 146786, Note_on_c, 0, 70, 0
1, 146786, Pitch_bend_c, 1, 8192
1, 146790, Note_on_c, 9, 51, 0
1, 146790, Pitch_bend_c, 1, 7680
1, 146790, Pitch_bend_c, 1, 7424
1, 146794, Pitch_bend_c, 1, 7040
1, 146794, Pitch_bend_c, 1, 6784
1, 146798, Pitch_bend_c, 1, 6528
1, 146802, Note_on_c, 0, 71, 0
1, 146802, Pitch_bend_c, 1, 6144
1, 146802, Pitch_bend_c, 1, 5888
1, 146806, Pitch_bend_c, 1, 5632
1, 146806, Pitch_bend_c, 1, 5376
1, 146810, Note_on_c, 9, 31, 0
1, 146810, Note_on_c, 0, 74, 57
1, 146810, Pitch_bend_c, 1, 5120
1, 146810, Pitch_bend_c, 1, 4864
1, 146814, Pitch_bend_c, 1, 4736
1, 146818, Pitch_bend_c, 1, 4608
1, 146818, Pitch_bend_c, 1, 4480
1, 146822, Pitch_bend_c, 1, 4224
1, 146822, Pitch_bend_c, 1, 4096
1, 146826, Note_on_c, 0, 76, 48
1, 146826, Pitch_bend_c, 1, 3968
1, 146834, Pitch_bend_c, 1, 4352
1, 146834, Note_on_c, 9, 51, 65
1, 146838, Pitch_bend_c, 1, 4736
1, 146842, Note_on_c, 0, 76, 0
1, 146842, Note_on_c, 0, 74, 0
1, 146842, Pitch_bend_c, 1, 5504
1, 146842, Pitch_bend_c, 1, 6400
1, 146842, Note_on_c, 9, 44, 74
1, 146842, Note_on_c, 9, 35, 23
1, 146846, Note_on_c, 0, 79, 57
1, 146846, Pitch_bend_c, 1, 7424
1, 146846, Pitch_bend_c, 1, 8192
1, 146858, Note_on_c, 0, 79, 0
1, 146894, Note_on_c, 0, 83, 58
1, 146934, Note_on_c, 0, 86, 51
1, 146938, Note_on_c, 9, 44, 0
1, 146946, Note_on_c, 0, 88, 63
1, 146958, Note_on_c, 0, 83, 0
1, 146986, Note_on_c, 0, 91, 86
1, 146990, Note_on_c, 9, 35, 0
1, 146994, Note_on_c, 0, 83, 31
1, 147018, Note_on_c, 0, 83, 0
1, 147026, Note_on_c, 0, 88, 0
1, 147034, Note_on_c, 0, 86, 0
1, 147034, Note_on_c, 0, 91, 0
1, 147098, Note_on_c, 1, 37, 47
1, 147114, Note_on_c, 9, 51, 0
1, 147118, Note_on_c, 1, 34, 0
1, 147154, Note_on_c, 1, 37, 0
1, 147162, Note_on_c, 1, 38, 63
1, 147186, Note_on_c, 9, 51, 30
1, 147198, Note_on_c, 9, 51, 0
1, 147226, Note_on_c, 1, 39, 99
1, 147234, Note_on_c, 1, 38, 0
1, 147234, Note_on_c, 9, 51, 57
1, 147298, Note_on_c, 0, 44, 22
1, 147310, Note_on_c, 0, 44, 0
1, 147502, Note_on_c, 9, 51, 0
1, 147542, Note_on_c, 0, 44, 64
1, 147546, Note_on_c, 9, 35, 17
1, 147554, Note_on_c, 9, 51, 39
1, 147566, Note_on_c, 9, 51, 0
1, 147578, Note_on_c, 0, 44, 0
1, 147582, Control_c, 0, 64, 0
1, 147594, Note_on_c, 9, 35, 0
1, 147602, Note_on_c, 9, 51, 51
1, 147610, Note_on_c, 9, 44, 73
1, 147610, Note_on_c, 9, 35, 30
1, 147670, Note_on_c, 9, 35, 0
1, 147710, Note_on_c, 9, 51, 0
1, 147726, Note_on_c, 9, 44, 0
1, 147734, Note_on_c, 9, 53, 36
1, 147746, Note_on_c, 0, 75, 82
1, 147750, Note_on_c, 0, 67, 80
1, 147750, Note_on_c, 0, 54, 58
1, 147754, Note_on_c, 0, 70, 68
1, 147758, Note_on_c, 0, 73, 49
1, 147766, Note_on_c, 0, 70, 0
1, 147766, Note_on_c, 9, 53, 0
1, 147766, Note_on_c, 0, 67, 0
1, 147770, Note_on_c, 0, 54, 0
1, 147774, Note_on_c, 0, 73, 0
1, 147778, Note_on_c, 0, 75, 0
1, 147786, Note_on_c, 9, 51, 34
1, 147858, Control_c, 0, 64, 127
1, 147870, Note_on_c, 0, 54, 61
1, 147874, Note_on_c, 0, 75, 71
1, 147882, Note_on_c, 0, 70, 73
1, 147886, Note_on_c, 0, 54, 0
1, 147886, Note_on_c, 0, 73, 48
1, 147898, Note_on_c, 0, 67, 35
1, 147902, Note_on_c, 0, 73, 0
1, 147910, Note_on_c, 0, 75, 0
1, 147914, Note_on_c, 0, 70, 0
1, 147914, Note_on_c, 0, 67, 0
1, 147946, Note_on_c, 9, 51, 0
1, 147982, Note_on_c, 9, 51, 61
1, 147986, Control_c, 0, 64, 0
1, 147994, Note_on_c, 9, 35, 26
1, 148006, Note_on_c, 0, 72, 70
1, 148010, Note_on_c, 0, 61, 68
1, 148010, Note_on_c, 0, 65, 68
1, 148010, Note_on_c, 0, 54, 58
1, 148014, Note_on_c, 0, 44, 48
1, 148034, Note_on_c, 0, 44, 0
1, 148034, Control_c, 0, 64, 127
1, 148038, Note_on_c, 0, 61, 0
1, 148054, Note_on_c, 0, 65, 0
1, 148054, Note_on_c, 0, 54, 0
1, 148066, Note_on_c, 9, 35, 0
1, 148074, Note_on_c, 0, 72, 0
1, 148158, Note_on_c, 0, 77, 76
1, 148158, Note_on_c, 0, 84, 75
1, 148158, Note_on_c, 0, 72, 72
1, 148162, Note_on_c, 0, 65, 68
1, 148166, Note_on_c, 0, 54, 48
1, 148170, Note_on_c, 0, 60, 56
1, 148178, Note_on_c, 0, 58, 46
1, 148186, Note_on_c, 1, 44, 98
1, 148198, Note_on_c, 1, 39, 0
1, 148254, Note_on_c, 0, 72, 0
1, 148262, Note_on_c, 0, 60, 0
1, 148266, Note_on_c, 0, 58, 0
1, 148266, Note_on_c, 9, 51, 0
1, 148266, Note_on_c, 0, 77, 0
1, 148270, Note_on_c, 0, 65, 0
1, 148290, Note_on_c, 0, 84, 0
1, 148290, Note_on_c, 0, 54, 0
1, 148322, Note_on_c, 9, 51, 50
1, 148338, Note_on_c, 9, 51, 0
1, 148378, Control_c, 0, 64, 0
1, 148378, Note_on_c, 9, 46, 58
1, 148378, Note_on_c, 9, 51, 65
1, 148390, Note_on_c, 0, 92, 61
1, 148394, Note_on_c, 0, 87, 66
1, 148394, Note_on_c, 0, 80, 56
1, 148402, Note_on_c, 0, 65, 68
1, 148402, Note_on_c, 0, 54, 55
1, 148402, Note_on_c, 0, 60, 59
1, 148414, Control_c, 0, 64, 127
1, 148470, Note_on_c, 0, 80, 0
1, 148474, Note_on_c, 0, 65, 0
1, 148474, Note_on_c, 9, 46, 0
1, 148482, Note_on_c, 0, 54, 0
1, 148482, Note_on_c, 0, 92, 0
1, 148486, Note_on_c, 0, 60, 0
1, 148490, Note_on_c, 0, 87, 0
1, 148502, Note_on_c, 9, 51, 0
1, 148506, Note_on_c, 9, 34, 30
1, 148510, Note_on_c, 9, 53, 61
1, 148534, Control_c, 0, 64, 0
1, 148538, Note_on_c, 9, 34, 0
1, 148538, Note_on_c, 0, 54, 61
1, 148538, Note_on_c, 0, 94, 73
1, 148538, Note_on_c, 0, 65, 66
1, 148542, Note_on_c, 0, 60, 57
1, 148542, Note_on_c, 0, 82, 58
1, 148546, Note_on_c, 0, 87, 63
1, 148554, Note_on_c, 9, 53, 0
1, 148570, Note_on_c, 9, 35, 14
1, 148574, Control_c, 0, 64, 127
1, 148586, Note_on_c, 9, 51, 21
1, 148590, Note_on_c, 0, 65, 0
1, 148606, Note_on_c, 0, 87, 0
1, 148606, Note_on_c, 0, 82, 0
1, 148614, Note_on_c, 0, 60, 0
1, 148618, Note_on_c, 0, 54, 0
1, 148626, Note_on_c, 0, 94, 0
1, 148654, Note_on_c, 9, 35, 0
1, 148662, Note_on_c, 9, 51, 0
1, 148662, Note_on_c, 0, 87, 61
1, 148666, Note_on_c, 0, 95, 68
1, 148670, Note_on_c, 0, 83, 63
1, 148670, Note_on_c, 0, 54, 66
1, 148674, Note_on_c, 0, 65, 52
1, 148678, Note_on_c, 0, 60, 56
1, 148690, Note_on_c, 0, 65, 0
1, 148698, Note_on_c, 1, 38, 88
1, 148698, Note_on_c, 9, 51, 55
1, 148698, Note_on_c, 9, 34, 43
1, 148702, Note_on_c, 1, 44, 0
1, 148702, Note_on_c, 0, 83, 0
1, 148718, Note_on_c, 0, 87, 0
1, 148722, Note_on_c, 0, 95, 0
1, 148730, Note_on_c, 9, 51, 0
1, 148730, Note_on_c, 0, 54, 0
1, 148750, Note_on_c, 0, 60, 0
1, 148750, Note_on_c, 9, 34, 0
1, 148758, Note_on_c, 9, 51, 57
1, 148762, Note_on_c, 1, 37, 90
1, 148762, Note_on_c, 9, 35, 29
1, 148766, Control_c, 0, 64, 0
1, 148778, Note_on_c, 1, 38, 0
1, 148782, Note_on_c, 0, 96, 87
1, 148782, Note_on_c, 0, 63, 84
1, 148782, Note_on_c, 0, 84, 73
1, 148782, Note_on_c, 0, 89, 75
1, 148782, Note_on_c, 0, 92, 66
1, 148782, Note_on_c, 0, 53, 75
1, 148782, Note_on_c, 0, 60, 76
1, 148790, Note_on_c, 0, 56, 66
1, 148822, Control_c, 0, 64, 127
1, 148850, Control_c, 1, 1, 3
1, 148854, Control_c, 1, 1, 4
1, 148854, Control_c, 1, 1, 6
1, 148854, Control_c, 1, 1, 7
1, 148858, Control_c, 1, 1, 8
1, 148858, Control_c, 1, 1, 10
1, 148858, Control_c, 1, 1, 11
1, 148862, Control_c, 1, 1, 12
1, 148862, Control_c, 1, 1, 13
1, 148862, Control_c, 1, 1, 15
1, 148862, Control_c, 1, 1, 16
1, 148866, Control_c, 1, 1, 18
1, 148870, Control_c, 1, 1, 19
1, 148870, Control_c, 1, 1, 20
1, 148874, Control_c, 1, 1, 22
1, 148878, Control_c, 1, 1, 24
1, 148878, Control_c, 1, 1, 25
1, 148882, Control_c, 1, 1, 27
1, 148886, Note_on_c, 9, 35, 0
1, 148886, Control_c, 1, 1, 28
1, 148886, Control_c, 1, 1, 29
1, 148894, Control_c, 1, 1, 30
1, 148894, Control_c, 1, 1, 31
1, 148902, Control_c, 1, 1, 32
1, 148906, Control_c, 1, 1, 33
1, 148910, Control_c, 1, 1, 34
1, 148914, Control_c, 1, 1, 35
1, 148918, Control_c, 1, 1, 37
1, 148922, Control_c, 1, 1, 38
1, 148926, Control_c, 1, 1, 39
1, 148930, Control_c, 1, 1, 40
1, 148934, Control_c, 1, 1, 41
1, 148942, Control_c, 1, 1, 42
1, 148954, Control_c, 1, 1, 43
1, 148958, Control_c, 1, 1, 45
1, 148962, Control_c, 1, 1, 46
1, 148966, Control_c, 1, 1, 47
1, 148970, Note_on_c, 0, 53, 0
1, 148970, Control_c, 1, 1, 49
1, 148974, Control_c, 1, 1, 50
1, 148978, Control_c, 1, 1, 52
1, 148982, Note_on_c, 0, 63, 0
1, 148982, Control_c, 1, 1, 53
1, 148982, Control_c, 1, 1, 55
1, 148990, Control_c, 1, 1, 56
1, 148990, Control_c, 1, 1, 58
1, 148994, Control_c, 1, 1, 59
1, 148998, Control_c, 1, 1, 61
1, 149002, Control_c, 1, 1, 62
1, 149006, Control_c, 1, 1, 63
1, 149022, Note_on_c, 0, 60, 0
1, 149034, Control_c, 1, 1, 62
1, 149038, Note_on_c, 0, 96, 0
1, 149042, Control_c, 1, 1, 61
1, 149042, Control_c, 1, 1, 59
1, 149050, Note_on_c, 0, 84, 0
1, 149050, Control_c, 1, 1, 58
1, 149050, Control_c, 1, 1, 56
1, 149054, Note_on_c, 0, 56, 0
1, 149054, Note_on_c, 9, 51, 0
1, 149054, Control_c, 1, 1, 55
1, 149058, Control_c, 1, 1, 53
1, 149062, Note_on_c, 0, 92, 0
1, 149062, Control_c, 1, 1, 52
1, 149066, Control_c, 1, 1, 50
1, 149070, Control_c, 1, 1, 48
1, 149074, Control_c, 1, 1, 47
1, 149078, Control_c, 1, 1, 45
1, 149078, Control_c, 1, 1, 44
1, 149082, Control_c, 1, 1, 43
1, 149082, Control_c, 1, 1, 41
1, 149086, Note_on_c, 0, 89, 0
1, 149086, Control_c, 1, 1, 39
1, 149086, Note_on_c, 9, 51, 36
1, 149090, Control_c, 1, 1, 38
1, 149090, Control_c, 1, 1, 37
1, 149094, Control_c, 1, 1, 35
1, 149098, Control_c, 1, 1, 33
1, 149098, Control_c, 1, 1, 31
1, 149102, Control_c, 1, 1, 30
1, 149106, Control_c, 1, 1, 28
1, 149106, Control_c, 1, 1, 25
1, 149110, Control_c, 1, 1, 24
1, 149114, Note_on_c, 9, 51, 0
1, 149114, Control_c, 1, 1, 22
1, 149114, Control_c, 1, 1, 20
1, 149118, Control_c, 1, 1, 17
1, 149122, Control_c, 1, 1, 16
1, 149122, Control_c, 1, 1, 13
1, 149126, Control_c, 1, 1, 11
1, 149130, Control_c, 1, 1, 10
1, 149130, Control_c, 1, 1, 8
1, 149130, Control_c, 1, 1, 7
1, 149130, Control_c, 1, 1, 6
1, 149134, Control_c, 1, 1, 5
1, 149138, Control_c, 1, 1, 2
1, 149138, Control_c, 1, 1, 1
1, 149142, Note_on_c, 9, 51, 60
1, 149146, Note_on_c, 9, 44, 67
1, 149166, Note_on_c, 0, 63, 56
1, 149166, Note_on_c, 0, 94, 60
1, 149170, Control_c, 0, 64, 0
1, 149174, Note_on_c, 0, 60, 48
1, 149174, Note_on_c, 0, 82, 46
1, 149178, Note_on_c, 0, 56, 50
1, 149182, Note_on_c, 0, 53, 36
1, 149186, Note_on_c, 0, 89, 46
1, 149190, Control_c, 0, 64, 127
1, 149222, Note_on_c, 0, 89, 0
1, 149234, Note_on_c, 0, 53, 0
1, 149242, Note_on_c, 9, 44, 0
1, 149242, Note_on_c, 0, 82, 0
1, 149242, Note_on_c, 0, 94, 0
1, 149246, Note_on_c, 0, 63, 0
1, 149246, Note_on_c, 0, 56, 0
1, 149250, Note_on_c, 0, 60, 0
1, 149298, Note_on_c, 0, 96, 69
1, 149302, Note_on_c, 0, 89, 68
1, 149302, Note_on_c, 0, 63, 66
1, 149306, Note_on_c, 0, 84, 56
1, 149310, Note_on_c, 0, 60, 60
1, 149310, Note_on_c, 0, 53, 49
1, 149310, Note_on_c, 0, 56, 53
1, 149366, Note_on_c, 0, 53, 0
1, 149378, Note_on_c, 0, 60, 0
1, 149382, Note_on_c, 0, 84, 0
1, 149390, Note_on_c, 0, 56, 0
1, 149390, Note_on_c, 0, 89, 0
1, 149394, Note_on_c, 0, 63, 0
1, 149402, Note_on_c, 1, 36, 76
1, 149406, Note_on_c, 0, 96, 0
1, 149410, Note_on_c, 1, 37, 0
1, 149430, Note_on_c, 9, 51, 0
1, 149446, Note_on_c, 1, 36, 0
1, 149466, Note_on_c, 1, 35, 66
1, 149466, Note_on_c, 9, 35, 19
1, 149478, Note_on_c, 9, 51, 44
1, 149494, Note_on_c, 9, 51, 0
1, 149502, Note_on_c, 9, 35, 0
1, 149522, Control_c, 0, 64, 0
1, 149526, Note_on_c, 1, 35, 0
1, 149526, Note_on_c, 9, 51, 54
1, 149530, Note_on_c, 1, 34, 83
1, 149530, Note_on_c, 9, 35, 35
1, 149542, Note_on_c, 0, 65, 73
1, 149542, Note_on_c, 0, 56, 58
1, 149542, Note_on_c, 0, 99, 75
1, 149542, Note_on_c, 0, 61, 61
1, 149546, Note_on_c, 0, 87, 66
1, 149546, Note_on_c, 0, 94, 72
1, 149546, Note_on_c, 0, 60, 61
1, 149554, Control_c, 0, 64, 127
1, 149610, Pitch_bend_c, 1, 8192
1, 149610, Pitch_bend_c, 1, 8192
1, 149614, Pitch_bend_c, 1, 8192
1, 149618, Note_on_c, 0, 87, 0
1, 149618, Pitch_bend_c, 1, 7552
1, 149622, Note_on_c, 0, 94, 0
1, 149622, Pitch_bend_c, 1, 7296
1, 149622, Pitch_bend_c, 1, 7040
1, 149626, Pitch_bend_c, 1, 6784
1, 149626, Pitch_bend_c, 1, 6656
1, 149630, Note_on_c, 0, 99, 0
1, 149630, Note_on_c, 0, 65, 0
1, 149630, Note_on_c, 0, 60, 0
1, 149630, Note_on_c, 0, 56, 0
1, 149630, Pitch_bend_c, 1, 6400
1, 149634, Pitch_bend_c, 1, 6144
1, 149634, Pitch_bend_c, 1, 5888
1, 149638, Note_on_c, 0, 61, 0
1, 149638, Pitch_bend_c, 1, 5632
1, 149638, Pitch_bend_c, 1, 5504
1, 149642, Pitch_bend_c, 1, 5376
1, 149642, Pitch_bend_c, 1, 5120
1, 149650, Pitch_bend_c, 1, 4864
1, 149658, Pitch_bend_c, 1, 4736
1, 149666, Note_on_c, 9, 35, 0
1, 149670, Pitch_bend_c, 1, 4992
1, 149674, Pitch_bend_c, 1, 5120
1, 149678, Note_on_c, 0, 101, 75
1, 149678, Pitch_bend_c, 1, 5376
1, 149678, Pitch_bend_c, 1, 5504
1, 149682, Note_on_c, 0, 56, 59
1, 149682, Control_c, 0, 64, 0
1, 149682, Note_on_c, 0, 65, 72
1, 149682, Note_on_c, 0, 61, 50
1, 149682, Note_on_c, 0, 89, 57
1, 149682, Note_on_c, 0, 96, 60
1, 149682, Pitch_bend_c, 1, 5632
1, 149682, Pitch_bend_c, 1, 5888
1, 149686, Note_on_c, 0, 60, 51
1, 149686, Pitch_bend_c, 1, 6144
1, 149690, Pitch_bend_c, 1, 6528
1, 149690, Pitch_bend_c, 1, 6784
1, 149694, Pitch_bend_c, 1, 7168
1, 149694, Pitch_bend_c, 1, 7424
1, 149698, Pitch_bend_c, 1, 8192
1, 149698, Pitch_bend_c, 1, 8192
1, 149698, Pitch_bend_c, 1, 8192
1, 149702, Pitch_bend_c, 1, 8192
1, 149718, Control_c, 0, 64, 127
1, 149754, Pitch_bend_c, 1, 8192
1, 149754, Pitch_bend_c, 1, 8192
1, 149758, Pitch_bend_c, 1, 7552
1, 149762, Pitch_bend_c, 1, 7296
1, 149762, Pitch_bend_c, 1, 7168
1, 149766, Pitch_bend_c, 1, 6912
1, 149766, Pitch_bend_c, 1, 6656
1, 149770, Pitch_bend_c, 1, 6400
1, 149774, Note_on_c, 0, 101, 0
1, 149774, Pitch_bend_c, 1, 6144
1, 149774, Pitch_bend_c, 1, 5888
1, 149778, Pitch_bend_c, 1, 5632
1, 149778, Pitch_bend_c, 1, 5504
1, 149782, Pitch_bend_c, 1, 5120
1, 149782, Pitch_bend_c, 1, 4864
1, 149786, Pitch_bend_c, 1, 4736
1, 149790, Note_on_c, 0, 96, 0
1, 149790, Pitch_bend_c, 1, 4480
1, 149790, Pitch_bend_c, 1, 4352
1, 149794, Pitch_bend_c, 1, 4224
1, 149794, Pitch_bend_c, 1, 4096
1, 149798, Pitch_bend_c, 1, 3968
1, 149802, Note_on_c, 0, 89, 0
1, 149810, Pitch_bend_c, 1, 4096
1, 149814, Pitch_bend_c, 1, 4352
1, 149814, Pitch_bend_c, 1, 4480
1, 149818, Pitch_bend_c, 1, 4736
1, 149818, Pitch_bend_c, 1, 5120
1, 149822, Note_on_c, 0, 61, 0
1, 149822, Note_on_c, 0, 65, 0
1, 149822, Note_on_c, 9, 51, 0
1, 149822, Pitch_bend_c, 1, 5504
1, 149822, Pitch_bend_c, 1, 5760
1, 149826, Note_on_c, 0, 56, 0
1, 149826, Pitch_bend_c, 1, 6144
1, 149830, Note_on_c, 0, 60, 0
1, 149830, Pitch_bend_c, 1, 6528
1, 149830, Pitch_bend_c, 1, 6912
1, 149834, Pitch_bend_c, 1, 7296
1, 149834, Pitch_bend_c, 1, 7552
1, 149838, Pitch_bend_c, 1, 8192
1, 149838, Pitch_bend_c, 1, 8192
1, 149838, Pitch_bend_c, 1, 8192
1, 149842, Pitch_bend_c, 1, 8192
1, 149854, Note_on_c, 9, 51, 38
1, 149882, Note_on_c, 9, 51, 0
1, 149886, Pitch_bend_c, 1, 8192
1, 149890, Pitch_bend_c, 1, 8192
1, 149890, Pitch_bend_c, 1, 8192
1, 149894, Pitch_bend_c, 1, 7424
1, 149898, Pitch_bend_c, 1, 7168
1, 149902, Pitch_bend_c, 1, 7040
1, 149902, Pitch_bend_c, 1, 6784
1, 149906, Pitch_bend_c, 1, 6528
1, 149906, Pitch_bend_c, 1, 6272
1, 149910, Pitch_bend_c, 1, 6016
1, 149910, Pitch_bend_c, 1, 5760
1, 149910, Note_on_c, 9, 51, 61
1, 149914, Pitch_bend_c, 1, 5504
1, 149914, Note_on_c, 9, 44, 70
1, 149918, Pitch_bend_c, 1, 5120
1, 149918, Pitch_bend_c, 1, 4864
1, 149922, Control_c, 0, 64, 0
1, 149922, Note_on_c, 0, 65, 57
1, 149922, Pitch_bend_c, 1, 4736
1, 149922, Pitch_bend_c, 1, 4608
1, 149926, Note_on_c, 0, 97, 60
1, 149926, Pitch_bend_c, 1, 4352
1, 149926, Pitch_bend_c, 1, 4096
1, 149930, Note_on_c, 0, 56, 41
1, 149930, Note_on_c, 0, 92, 57
1, 149930, Note_on_c, 0, 61, 52
1, 149930, Note_on_c, 0, 85, 39
1, 149930, Note_on_c, 0, 60, 47
1, 149930, Pitch_bend_c, 1, 3968
1, 149934, Pitch_bend_c, 1, 3840
1, 149946, Pitch_bend_c, 1, 3968
1, 149950, Pitch_bend_c, 1, 4224
1, 149950, Pitch_bend_c, 1, 4480
1, 149954, Pitch_bend_c, 1, 4864
1, 149954, Pitch_bend_c, 1, 5376
1, 149958, Pitch_bend_c, 1, 5760
1, 149958, Pitch_bend_c, 1, 6272
1, 149962, Pitch_bend_c, 1, 6784
1, 149966, Control_c, 0, 64, 127
1, 149966, Pitch_bend_c, 1, 7296
1, 149966, Pitch_bend_c, 1, 7680
1, 149970, Pitch_bend_c, 1, 8192
1, 149970, Pitch_bend_c, 1, 8192
1, 150010, Note_on_c, 9, 44, 0
1, 150106, Note_on_c, 9, 35, 29
1, 150118, Note_on_c, 0, 65, 0
1, 150126, Note_on_c, 0, 61, 0
1, 150130, Note_on_c, 0, 60, 0
1, 150154, Note_on_c, 0, 85, 0
1, 150154, Note_on_c, 0, 92, 0
1, 150158, Note_on_c, 0, 97, 0
1, 150162, Note_on_c, 0, 56, 0
1, 150198, Note_on_c, 9, 35, 0
1, 150214, Note_on_c, 9, 51, 0
1, 150234, Note_on_c, 1, 41, 79
1, 150254, Note_on_c, 9, 51, 32
1, 150274, Note_on_c, 1, 34, 0
1, 150282, Control_c, 0, 64, 0
1, 150286, Note_on_c, 9, 51, 0
1, 150298, Note_on_c, 1, 39, 80
1, 150298, Note_on_c, 9, 35, 36
1, 150306, Note_on_c, 1, 41, 0
1, 150306, Note_on_c, 0, 96, 87
1, 150306, Note_on_c, 0, 90, 85
1, 150306, Note_on_c, 0, 58, 75
1, 150306, Note_on_c, 0, 65, 82
1, 150306, Note_on_c, 0, 84, 83
1, 150310, Note_on_c, 0, 61, 66
1, 150310, Note_on_c, 0, 54, 68
1, 150310, Note_on_c, 9, 51, 67
1, 150314, Note_on_c, 0, 92, 59
1, 150326, Note_on_c, 0, 92, 0
1, 150334, Control_c, 0, 64, 127
1, 150358, Note_on_c, 9, 35, 0
1, 150374, Note_on_c, 0, 96, 0
1, 150386, Note_on_c, 0, 84, 0
1, 150390, Note_on_c, 0, 90, 0
1, 150402, Note_on_c, 0, 65, 0
1, 150406, Note_on_c, 0, 54, 0
1, 150414, Pitch_bend_c, 1, 8192
1, 150418, Note_on_c, 0, 61, 0
1, 150418, Pitch_bend_c, 1, 8192
1, 150422, Note_on_c, 0, 58, 0
1, 150422, Pitch_bend_c, 1, 8192
1, 150426, Pitch_bend_c, 1, 8712
1, 150430, Pitch_bend_c, 1, 8842
1, 150430, Pitch_bend_c, 1, 8972
1, 150434, Pitch_bend_c, 1, 9102
1, 150438, Control_c, 0, 64, 72
1, 150438, Control_c, 0, 64, 0
1, 150438, Pitch_bend_c, 1, 9232
1, 150438, Pitch_bend_c, 1, 9362
1, 150442, Note_on_c, 0, 97, 81
1, 150442, Pitch_bend_c, 1, 9492
1, 150442, Pitch_bend_c, 1, 9752
1, 150446, Note_on_c, 0, 92, 76
1, 150446, Note_on_c, 0, 85, 71
1, 150446, Pitch_bend_c, 1, 9882
1, 150446, Pitch_bend_c, 1, 10012
1, 150450, Note_on_c, 0, 58, 63
1, 150450, Pitch_bend_c, 1, 10142
1, 150454, Note_on_c, 0, 54, 68
1, 150454, Note_on_c, 0, 61, 58
1, 150454, Note_on_c, 0, 65, 73
1, 150454, Pitch_bend_c, 1, 10402
1, 150454, Pitch_bend_c, 1, 10532
1, 150458, Pitch_bend_c, 1, 10792
1, 150458, Pitch_bend_c, 1, 10922
1, 150462, Pitch_bend_c, 1, 11052
1, 150462, Pitch_bend_c, 1, 11312
1, 150466, Pitch_bend_c, 1, 11442
1, 150474, Pitch_bend_c, 1, 11572
1, 150478, Control_c, 0, 64, 127
1, 150490, Pitch_bend_c, 1, 11442
1, 150498, Pitch_bend_c, 1, 11312
1, 150498, Pitch_bend_c, 1, 11052
1, 150502, Pitch_bend_c, 1, 10922
1, 150502, Pitch_bend_c, 1, 10792
1, 150506, Pitch_bend_c, 1, 10662
1, 150506, Pitch_bend_c, 1, 10402
1, 150510, Pitch_bend_c, 1, 10142
1, 150514, Pitch_bend_c, 1, 10012
1, 150514, Pitch_bend_c, 1, 9752
1, 150518, Pitch_bend_c, 1, 9492
1, 150518, Pitch_bend_c, 1, 9232
1, 150522, Pitch_bend_c, 1, 9102
1, 150522, Pitch_bend_c, 1, 8842
1, 150526, Pitch_bend_c, 1, 8712
1, 150530, Pitch_bend_c, 1, 8192
1, 150530, Pitch_bend_c, 1, 8192
1, 150530, Pitch_bend_c, 1, 8192
1, 150566, Note_on_c, 0, 97, 0
1, 150578, Note_on_c, 0, 92, 0
1, 150586, Note_on_c, 0, 85, 0
1, 150594, Note_on_c, 0, 65, 0
1, 150598, Note_on_c, 0, 61, 0
1, 150602, Note_on_c, 0, 58, 0
1, 150614, Note_on_c, 9, 51, 0
1, 150618, Note_on_c, 0, 54, 0
1, 150642, Note_on_c, 9, 51, 35
1, 150658, Note_on_c, 9, 51, 0
1, 150682, Note_on_c, 9, 44, 71
1, 150698, Control_c, 0, 64, 0
1, 150702, Note_on_c, 9, 51, 60
1, 150706, Note_on_c, 0, 65, 65
1, 150706, Note_on_c, 0, 94, 69
1, 150710, Note_on_c, 0, 54, 53
1, 150710, Note_on_c, 0, 61, 55
1, 150710, Note_on_c, 0, 58, 58
1, 150710, Note_on_c, 0, 82, 58
1, 150714, Note_on_c, 0, 87, 54
1, 150726, Control_c, 0, 64, 127
1, 150778, Note_on_c, 9, 44, 0
1, 150810, Note_on_c, 9, 35, 23
1, 150842, Note_on_c, 9, 35, 0
1, 150874, Note_on_c, 1, 34, 59
1, 150874, Note_on_c, 9, 35, 16
1, 150894, Note_on_c, 1, 39, 0
1, 150946, Note_on_c, 0, 94, 0
1, 150950, Note_on_c, 0, 54, 0
1, 150958, Note_on_c, 0, 82, 0
1, 150958, Note_on_c, 0, 58, 0
1, 150962, Note_on_c, 0, 65, 0
1, 150978, Note_on_c, 9, 35, 0
1, 150982, Note_on_c, 0, 61, 0
1, 150990, Note_on_c, 0, 87, 0
1, 150990, Note_on_c, 9, 51, 0
1, 151002, Note_on_c, 1, 33, 74
1, 151002, Note_on_c, 9, 34, 33
1, 151006, Note_on_c, 1, 34, 0
1, 151014, Note_on_c, 9, 51, 49
1, 151034, Note_on_c, 9, 51, 0
1, 151034, Note_on_c, 9, 34, 0
1, 151058, Note_on_c, 1, 33, 0
1, 151066, Note_on_c, 1, 32, 65
1, 151066, Note_on_c, 9, 35, 23
1, 151070, Note_on_c, 9, 51, 55
1, 151086, Control_c, 0, 64, 0
1, 151098, Note_on_c, 0, 93, 57
1, 151098, Note_on_c, 0, 54, 48
1, 151098, Note_on_c, 0, 64, 51
1, 151098, Note_on_c, 0, 87, 54
1, 151102, Note_on_c, 0, 81, 48
1, 151102, Note_on_c, 0, 60, 54
1, 151126, Note_on_c, 0, 58, 26
1, 151142, Note_on_c, 9, 35, 0
1, 151166, Note_on_c, 0, 81, 0
1, 151166, Note_on_c, 0, 93, 0
1, 151170, Note_on_c, 0, 58, 0
1, 151174, Note_on_c, 0, 64, 0
1, 151182, Note_on_c, 0, 60, 0
1, 151186, Note_on_c, 0, 87, 0
1, 151190, Note_on_c, 0, 54, 0
1, 151194, Note_on_c, 1, 48, 70
1, 151194, Note_on_c, 9, 35, 29
1, 151226, Note_on_c, 9, 35, 0
1, 151286, Note_on_c, 0, 94, 71
1, 151290, Note_on_c, 0, 82, 55
1, 151290, Note_on_c, 0, 54, 55
1, 151290, Note_on_c, 0, 64, 56
1, 151294, Note_on_c, 0, 87, 56
1, 151298, Note_on_c, 0, 60, 46
1, 151374, Note_on_c, 9, 51, 0
1, 151398, Note_on_c, 0, 82, 0
1, 151398, Note_on_c, 0, 64, 0
1, 151402, Note_on_c, 0, 60, 0
1, 151402, Note_on_c, 0, 94, 0
1, 151410, Note_on_c, 0, 87, 0
1, 151410, Note_on_c, 0, 54, 0
1, 151450, Note_on_c, 9, 44, 69
1, 151450, Note_on_c, 9, 51, 64
1, 151466, Control_c, 0, 64, 127
1, 151482, Note_on_c, 0, 64, 58
1, 151486, Note_on_c, 0, 54, 53
1, 151486, Note_on_c, 0, 92, 52
1, 151486, Note_on_c, 0, 87, 57
1, 151486, Note_on_c, 0, 80, 43
1, 151490, Note_on_c, 0, 60, 51
1, 151530, Note_on_c, 1, 32, 0
1, 151546, Note_on_c, 9, 44, 0
1, 151562, Note_on_c, 0, 80, 0
1, 151566, Note_on_c, 0, 87, 0
1, 151566, Note_on_c, 0, 92, 0
1, 151574, Note_on_c, 0, 64, 0
1, 151578, Note_on_c, 1, 33, 76
1, 151590, Note_on_c, 0, 60, 0
1, 151598, Note_on_c, 0, 54, 0
1, 151610, Note_on_c, 1, 33, 0
1, 151642, Note_on_c, 1, 32, 73
1, 151658, Note_on_c, 1, 48, 0
1, 151754, Note_on_c, 9, 51, 0
1, 151770, Note_on_c, 9, 35, 33
1, 151782, Note_on_c, 0, 54, 52
1, 151782, Note_on_c, 9, 51, 26
1, 151794, Note_on_c, 9, 51, 0
1, 151802, Note_on_c, 9, 35, 0
1, 151830, Note_on_c, 1, 32, 0
1, 151830, Note_on_c, 9, 51, 50
1, 151834, Note_on_c, 1, 31, 75
1, 151834, Note_on_c, 9, 35, 36
1, 151838, Note_on_c, 0, 54, 0
1, 151854, Control_c, 0, 64, 0
1, 151862, Note_on_c, 0, 62, 55
1, 151870, Note_on_c, 0, 58, 50
1, 151874, Note_on_c, 0, 55, 60
1, 151874, Note_on_c, 0, 53, 36
1, 151994, Note_on_c, 9, 35, 0
1, 152034, Note_on_c, 0, 84, 60
1, 152038, Note_on_c, 0, 77, 61
1, 152070, Note_on_c, 0, 62, 0
1, 152110, Note_on_c, 0, 58, 0
1, 152130, Note_on_c, 0, 84, 0
1, 152138, Note_on_c, 9, 51, 0
1, 152142, Note_on_c, 0, 77, 0
1, 152162, Note_on_c, 9, 51, 25
1, 152166, Note_on_c, 0, 82, 52
1, 152178, Note_on_c, 9, 51, 0
1, 152206, Note_on_c, 0, 82, 0
1, 152218, Note_on_c, 1, 43, 115
1, 152218, Note_on_c, 9, 44, 73
1, 152218, Note_on_c, 9, 51, 62
1, 152226, Note_on_c, 0, 58, 40
1, 152226, Note_on_c, 0, 62, 39
1, 152234, Note_on_c, 0, 77, 57
1, 152238, Note_on_c, 0, 84, 57
1, 152278, Control_c, 0, 64, 127
1, 152310, Note_on_c, 0, 84, 0
1, 152314, Note_on_c, 9, 44, 0
1, 152330, Note_on_c, 0, 77, 0
1, 152350, Note_on_c, 0, 84, 56
1, 152394, Note_on_c, 0, 84, 0
1, 152410, Note_on_c, 9, 35, 36
1, 152418, Control_c, 0, 64, 0
1, 152434, Note_on_c, 0, 82, 44
1, 152446, Note_on_c, 0, 62, 0
1, 152466, Note_on_c, 0, 58, 0
1, 152490, Note_on_c, 9, 51, 0
1, 152506, Note_on_c, 9, 35, 0
1, 152514, Note_on_c, 0, 82, 0
1, 152546, Note_on_c, 0, 84, 63
1, 152550, Note_on_c, 0, 62, 45
1, 152550, Note_on_c, 0, 77, 51
1, 152550, Note_on_c, 9, 51, 34
1, 152554, Note_on_c, 0, 58, 44
1, 152554, Note_on_c, 0, 72, 35
1, 152562, Note_on_c, 9, 51, 0
1, 152566, Control_c, 0, 64, 127
1, 152598, Note_on_c, 0, 72, 0
1, 152602, Note_on_c, 0, 62, 0
1, 152602, Note_on_c, 9, 35, 38
1, 152606, Note_on_c, 0, 84, 0
1, 152610, Note_on_c, 9, 51, 73
1, 152614, Note_on_c, 0, 58, 0
1, 152614, Note_on_c, 0, 77, 0
1, 152646, Note_on_c, 0, 84, 56
1, 152646, Note_on_c, 0, 62, 48
1, 152646, Note_on_c, 0, 77, 54
1, 152654, Note_on_c, 0, 72, 35
1, 152654, Note_on_c, 0, 58, 43
1, 152682, Note_on_c, 9, 35, 0
1, 152722, Note_on_c, 0, 72, 0
1, 152726, Note_on_c, 0, 62, 0
1, 152738, Note_on_c, 0, 58, 0
1, 152738, Note_on_c, 0, 84, 0
1, 152774, Note_on_c, 0, 62, 50
1, 152774, Note_on_c, 0, 82, 50
1, 152778, Note_on_c, 0, 58, 48
1, 152838, Note_on_c, 0, 77, 0
1, 152858, Note_on_c, 0, 62, 0
1, 152862, Note_on_c, 0, 58, 0
1, 152886, Note_on_c, 0, 82, 0
1, 152938, Note_on_c, 9, 51, 0
1, 152938, Control_c, 0, 64, 0
1, 152942, Note_on_c, 0, 72, 54
1, 152946, Note_on_c, 0, 77, 52
1, 152946, Note_on_c, 0, 82, 57
1, 152946, Note_on_c, 0, 84, 49
1, 152954, Note_on_c, 0, 58, 54
1, 152954, Note_on_c, 0, 62, 43
1, 152982, Note_on_c, 9, 51, 73
1, 152986, Control_c, 0, 64, 127
1, 152986, Note_on_c, 9, 44, 72
1, 152998, Note_on_c, 0, 62, 0
1, 153018, Note_on_c, 0, 58, 0
1, 153034, Note_on_c, 0, 55, 0
1, 153038, Note_on_c, 0, 53, 0
1, 153082, Note_on_c, 9, 44, 0
1, 153114, Note_on_c, 9, 35, 25
1, 153146, Note_on_c, 9, 35, 0
1, 153178, Note_on_c, 1, 34, 61
1, 153178, Note_on_c, 9, 34, 35
1, 153194, Note_on_c, 1, 31, 0
1, 153226, Note_on_c, 9, 34, 0
1, 153230, Note_on_c, 1, 34, 0
1, 153290, Note_on_c, 9, 51, 0
1, 153298, Note_on_c, 0, 84, 0
1, 153298, Note_on_c, 0, 72, 0
1, 153306, Note_on_c, 1, 35, 79
1, 153310, Note_on_c, 9, 53, 63
1, 153326, Note_on_c, 0, 77, 0
1, 153334, Note_on_c, 0, 82, 0
1, 153350, Note_on_c, 1, 35, 0
1, 153350, Note_on_c, 9, 53, 0
1, 153370, Note_on_c, 1, 36, 82
1, 153370, Note_on_c, 9, 55, 41
1, 153370, Note_on_c, 9, 35, 24
1, 153374, Control_c, 0, 64, 0
1, 153378, Note_on_c, 0, 24, 80
1, 153378, Note_on_c, 0, 36, 78
1, 153382, Note_on_c, 9, 51, 43
1, 153398, Note_on_c, 1, 43, 0
1, 153410, Note_on_c, 9, 35, 0
1, 153414, Note_on_c, 9, 55, 0
1, 153430, Control_c, 0, 64, 127
1, 153510, Note_on_c, 0, 24, 0
1, 153526, Note_on_c, 0, 36, 0
1, 153586, Note_on_c, 9, 51, 0
1, 153754, Note_on_c, 1, 45, 102
1, 153754, Note_on_c, 9, 44, 69
1, 153754, Note_on_c, 9, 57, 17
1, 153754, Note_on_c, 9, 35, 22
1, 153762, Note_on_c, 1, 36, 0
1, 153762, Note_on_c, 9, 51, 78
1, 153850, Note_on_c, 9, 44, 0
1, 153874, Note_on_c, 9, 57, 0
1, 153902, Note_on_c, 0, 65, 90
1, 153906, Note_on_c, 0, 53, 87
1, 153910, Note_on_c, 9, 35, 0
1, 153946, Note_on_c, 1, 43, 92
1, 153950, Note_on_c, 1, 45, 0
1, 153954, Note_on_c, 9, 51, 0
1, 153990, Note_on_c, 0, 65, 0
1, 154026, Note_on_c, 0, 53, 0
1, 154030, Note_on_c, 0, 67, 115
1, 154034, Note_on_c, 0, 55, 92
1, 154074, Note_on_c, 9, 34, 33
1, 154106, Note_on_c, 0, 67, 0
1, 154134, Note_on_c, 9, 34, 0
1, 154138, Control_c, 0, 64, 0
1, 154138, Note_on_c, 1, 41, 94
1, 154138, Note_on_c, 9, 57, 15
1, 154138, Note_on_c, 9, 35, 29
1, 154142, Note_on_c, 1, 43, 0
1, 154154, Note_on_c, 0, 69, 117
1, 154154, Note_on_c, 9, 51, 80
1, 154166, Note_on_c, 0, 57, 83
1, 154170, Note_on_c, 0, 55, 0
1, 154178, Control_c, 0, 64, 40
1, 154182, Control_c, 0, 64, 127
1, 154270, Note_on_c, 9, 57, 0
1, 154282, Note_on_c, 9, 35, 0
1, 154306, Note_on_c, 0, 57, 0
1, 154310, Note_on_c, 0, 69, 0
1, 154330, Note_on_c, 1, 40, 89
1, 154334, Note_on_c, 1, 41, 0
1, 154338, Note_on_c, 0, 72, 111
1, 154338, Control_c, 0, 64, 0
1, 154338, Note_on_c, 0, 60, 88
1, 154358, Control_c, 0, 64, 127
1, 154402, Note_on_c, 9, 51, 0
1, 154458, Note_on_c, 9, 34, 33
1, 154478, Note_on_c, 9, 51, 47
1, 154494, Note_on_c, 9, 51, 0
1, 154494, Note_on_c, 9, 34, 0
1, 154498, Note_on_c, 0, 72, 0
1, 154502, Control_c, 0, 64, 0
1, 154522, Note_on_c, 1, 38, 90
1, 154522, Note_on_c, 9, 46, 64
1, 154522, Note_on_c, 9, 57, 15
1, 154522, Note_on_c, 9, 35, 27
1, 154526, Note_on_c, 1, 40, 0
1, 154526, Note_on_c, 0, 74, 86
1, 154530, Note_on_c, 9, 51, 65
1, 154534, Control_c, 0, 64, 127
1, 154534, Note_on_c, 0, 62, 63
1, 154538, Note_on_c, 0, 60, 0
1, 154610, Note_on_c, 0, 74, 0
1, 154618, Note_on_c, 9, 46, 0
1, 154642, Note_on_c, 9, 57, 0
1, 154682, Note_on_c, 9, 35, 0
1, 154698, Note_on_c, 0, 62, 0
1, 154714, Note_on_c, 1, 36, 89
1, 154722, Note_on_c, 1, 38, 0
1, 154806, Note_on_c, 9, 51, 0
1, 154830, Note_on_c, 9, 51, 55
1, 154838, Note_on_c, 0, 77, 66
1, 154842, Note_on_c, 0, 61, 50
1, 154842, Note_on_c, 9, 34, 35
1, 154854, Note_on_c, 9, 51, 0
1, 154874, Note_on_c, 9, 34, 0
1, 154874, Note_on_c, 0, 77, 0
1, 154898, Note_on_c, 9, 51, 74
1, 154906, Note_on_c, 1, 36, 0
1, 154906, Note_on_c, 1, 35, 99
1, 154906, Note_on_c, 9, 57, 20
1, 154906, Note_on_c, 9, 35, 34
1, 154930, Control_c, 0, 64, 0
1, 154942, Note_on_c, 0, 61, 0
1, 154946, Note_on_c, 9, 57, 0
1, 154950, Note_on_c, 0, 79, 71
1, 154950, Note_on_c, 0, 72, 61
1, 154954, Note_on_c, 0, 62, 51
1, 154958, Note_on_c, 0, 67, 58
1, 154966, Note_on_c, 9, 35, 0
1, 154994, Control_c, 0, 64, 127
1, 155094, Note_on_c, 0, 67, 0
1, 155114, Note_on_c, 0, 72, 0
1, 155114, Note_on_c, 0, 79, 0
1, 155114, Note_on_c, 0, 62, 0
1, 155134, Note_on_c, 0, 50, 50
1, 155154, Note_on_c, 0, 50, 0
1, 155250, Note_on_c, 9, 51, 0
1, 155290, Note_on_c, 9, 44, 70
1, 155298, Control_c, 0, 64, 0
1, 155302, Note_on_c, 9, 51, 72
1, 155314, Note_on_c, 0, 69, 66
1, 155314, Note_on_c, 0, 74, 72
1, 155314, Note_on_c, 0, 79, 68
1, 155330, Note_on_c, 0, 59, 21
1, 155362, Control_c, 0, 64, 127
1, 155386, Note_on_c, 9, 44, 0
1, 155482, Note_on_c, 9, 35, 38
1, 155494, Note_on_c, 0, 69, 0
1, 155502, Note_on_c, 0, 47, 49
1, 155514, Note_on_c, 0, 74, 0
1, 155522, Note_on_c, 0, 59, 0
1, 155530, Note_on_c, 0, 47, 0
1, 155538, Note_on_c, 0, 79, 0
1, 155546, Note_on_c, 1, 47, 83
1, 155582, Note_on_c, 9, 35, 0
1, 155590, Note_on_c, 1, 35, 0
1, 155606, Note_on_c, 1, 47, 0
1, 155610, Note_on_c, 1, 35, 81
1, 155642, Note_on_c, 9, 51, 0
1, 155666, Control_c, 0, 64, 0
1, 155674, Note_on_c, 9, 35, 40
1, 155686, Note_on_c, 9, 51, 74
1, 155698, Note_on_c, 0, 79, 57
1, 155698, Note_on_c, 0, 46, 49
1, 155702, Note_on_c, 0, 67, 48
1, 155702, Note_on_c, 0, 58, 46
1, 155702, Note_on_c, 0, 72, 48
1, 155702, Note_on_c, 0, 76, 49
1, 155706, Control_c, 0, 64, 127
1, 155718, Note_on_c, 1, 35, 0
1, 155726, Note_on_c, 0, 46, 0
1, 155738, Note_on_c, 1, 34, 92
1, 155742, Note_on_c, 0, 67, 0
1, 155746, Note_on_c, 0, 58, 0
1, 155758, Note_on_c, 9, 35, 0
1, 155766, Note_on_c, 0, 72, 0
1, 155790, Note_on_c, 0, 76, 0
1, 155806, Note_on_c, 0, 79, 0
1, 155998, Note_on_c, 9, 51, 0
1, 156050, Note_on_c, 9, 51, 72
1, 156058, Note_on_c, 9, 44, 73
1, 156106, Note_on_c, 0, 67, 51
1, 156110, Note_on_c, 0, 56, 42
1, 156110, Note_on_c, 0, 91, 47
1, 156114, Note_on_c, 0, 79, 39
1, 156118, Note_on_c, 0, 84, 39
1, 156118, Note_on_c, 0, 88, 46
1, 156122, Note_on_c, 0, 62, 46
1, 156154, Note_on_c, 9, 44, 0
1, 156222, Note_on_c, 0, 91, 0
1, 156230, Note_on_c, 0, 88, 0
1, 156230, Note_on_c, 0, 67, 0
1, 156234, Note_on_c, 0, 62, 0
1, 156242, Note_on_c, 0, 84, 0
1, 156266, Note_on_c, 0, 79, 0
1, 156270, Note_on_c, 0, 56, 0
1, 156346, Note_on_c, 9, 51, 0
1, 156378, Note_on_c, 9, 35, 35
1, 156418, Note_on_c, 9, 35, 0
1, 156426, Note_on_c, 9, 51, 73
1, 156442, Note_on_c, 1, 33, 90
1, 156442, Note_on_c, 9, 35, 37
1, 156458, Control_c, 0, 64, 0
1, 156466, Note_on_c, 0, 45, 58
1, 156470, Note_on_c, 1, 34, 0
1, 156498, Control_c, 0, 64, 127
1, 156634, Note_on_c, 9, 35, 0
1, 156742, Note_on_c, 0, 45, 0
1, 156762, Note_on_c, 9, 51, 0
1, 156826, Note_on_c, 9, 44, 74
1, 156826, Note_on_c, 9, 51, 67
1, 156826, Note_on_c, 9, 35, 17
1, 156890, Note_on_c, 9, 36, 28
1, 156922, Note_on_c, 9, 36, 0
1, 156922, Note_on_c, 9, 51, 0
1, 156922, Note_on_c, 9, 44, 0
1, 156942, Note_on_c, 9, 53, 57
1, 156954, Note_on_c, 1, 48, 84
1, 156982, Note_on_c, 9, 53, 0
1, 157014, Note_on_c, 9, 51, 28
1, 157030, Control_c, 0, 64, 0
1, 157038, Note_on_c, 0, 77, 61
1, 157042, Note_on_c, 0, 72, 57
1, 157042, Note_on_c, 0, 62, 45
1, 157042, Note_on_c, 0, 67, 36
1, 157058, Note_on_c, 0, 72, 0
1, 157058, Note_on_c, 1, 33, 0
1, 157062, Note_on_c, 0, 67, 0
1, 157062, Note_on_c, 0, 62, 0
1, 157070, Note_on_c, 0, 77, 0
1, 157078, Note_on_c, 9, 35, 0
1, 157146, Note_on_c, 1, 33, 66
1, 157146, Note_on_c, 9, 34, 28
1, 157158, Note_on_c, 0, 64, 65
1, 157158, Note_on_c, 0, 79, 76
1, 157162, Note_on_c, 0, 69, 56
1, 157162, Note_on_c, 0, 74, 68
1, 157170, Note_on_c, 9, 51, 0
1, 157174, Note_on_c, 0, 71, 36
1, 157190, Note_on_c, 0, 71, 0
1, 157194, Note_on_c, 0, 79, 0
1, 157198, Note_on_c, 0, 74, 0
1, 157202, Note_on_c, 9, 34, 0
1, 157202, Note_on_c, 0, 69, 0
1, 157210, Note_on_c, 1, 32, 89
1, 157210, Note_on_c, 9, 35, 30
1, 157218, Note_on_c, 9, 51, 62
1, 157226, Note_on_c, 0, 64, 0
1, 157226, Control_c, 0, 64, 127
1, 157238, Note_on_c, 0, 77, 65
1, 157238, Note_on_c, 0, 72, 54
1, 157242, Note_on_c, 1, 33, 0
1, 157242, Note_on_c, 0, 67, 51
1, 157246, Note_on_c, 0, 62, 55
1, 157254, Note_on_c, 1, 48, 0
1, 157298, Note_on_c, 0, 77, 0
1, 157298, Note_on_c, 0, 72, 0
1, 157310, Note_on_c, 0, 67, 0
1, 157346, Note_on_c, 0, 62, 0
1, 157358, Control_c, 0, 64, 0
1, 157362, Note_on_c, 0, 76, 57
1, 157362, Note_on_c, 0, 71, 54
1, 157362, Note_on_c, 0, 65, 48
1, 157370, Note_on_c, 0, 60, 48
1, 157498, Note_on_c, 0, 76, 0
1, 157498, Control_c, 0, 64, 127
1, 157510, Note_on_c, 0, 71, 0
1, 157530, Note_on_c, 9, 51, 0
1, 157542, Note_on_c, 0, 65, 0
1, 157562, Control_c, 0, 64, 0
1, 157586, Note_on_c, 0, 60, 0
1, 157590, Note_on_c, 9, 51, 67
1, 157594, Note_on_c, 0, 74, 60
1, 157594, Note_on_c, 9, 44, 73
1, 157602, Note_on_c, 0, 58, 44
1, 157606, Note_on_c, 0, 64, 40
1, 157606, Note_on_c, 0, 69, 49
1, 157618, Control_c, 0, 64, 127
1, 157634, Note_on_c, 0, 69, 0
1, 157638, Note_on_c, 9, 35, 0
1, 157650, Note_on_c, 0, 74, 0
1, 157650, Note_on_c, 0, 64, 0
1, 157690, Note_on_c, 9, 44, 0
1, 157694, Note_on_c, 0, 58, 0
1, 157722, Note_on_c, 1, 48, 96
1, 157786, Note_on_c, 0, 72, 56
1, 157786, Note_on_c, 9, 35, 30
1, 157790, Note_on_c, 0, 67, 54
1, 157790, Note_on_c, 0, 62, 41
1, 157822, Note_on_c, 1, 32, 0
1, 157826, Note_on_c, 0, 67, 0
1, 157830, Note_on_c, 9, 35, 0
1, 157830, Note_on_c, 0, 72, 0
1, 157850, Note_on_c, 1, 42, 70
1, 157854, Note_on_c, 9, 51, 0
1, 157862, Note_on_c, 0, 62, 0
1, 157882, Note_on_c, 1, 48, 0
1, 157898, Note_on_c, 1, 42, 0
1, 157914, Note_on_c, 1, 32, 86
1, 157918, Note_on_c, 9, 51, 49
1, 157934, Note_on_c, 9, 51, 0
1, 157970, Control_c, 0, 64, 0
1, 157974, Note_on_c, 9, 51, 67
1, 157978, Note_on_c, 1, 43, 89
1, 157978, Note_on_c, 9, 35, 33
1, 157986, Note_on_c, 0, 58, 57
1, 157986, Note_on_c, 0, 69, 59
1, 157990, Note_on_c, 0, 43, 46
1, 157994, Note_on_c, 1, 32, 0
1, 157994, Note_on_c, 0, 62, 48
1, 157998, Note_on_c, 0, 65, 45
1, 158002, Note_on_c, 0, 50, 39
1, 158014, Note_on_c, 9, 35, 0
1, 158050, Control_c, 0, 64, 127
1, 158154, Note_on_c, 0, 58, 0
1, 158154, Note_on_c, 0, 62, 0
1, 158190, Note_on_c, 0, 58, 37
1, 158202, Note_on_c, 0, 62, 48
1, 158206, Note_on_c, 0, 65, 0
1, 158278, Note_on_c, 0, 62, 0
1, 158290, Note_on_c, 0, 58, 0
1, 158310, Note_on_c, 9, 51, 0
1, 158346, Note_on_c, 9, 51, 58
1, 158362, Note_on_c, 9, 44, 70
1, 158378, Note_on_c, 0, 58, 49
1, 158394, Note_on_c, 0, 62, 41
1, 158458, Note_on_c, 9, 44, 0
1, 158502, Note_on_c, 0, 43, 0
1, 158510, Note_on_c, 0, 58, 0
1, 158514, Note_on_c, 0, 62, 0
1, 158562, Note_on_c, 0, 50, 0
1, 158574, Note_on_c, 0, 58, 56
1, 158582, Note_on_c, 0, 57, 65
1, 158582, Note_on_c, 0, 55, 66
1, 158586, Note_on_c, 0, 62, 48
1, 158602, Control_c, 0, 64, 0
1, 158614, Note_on_c, 0, 55, 0
1, 158630, Control_c, 0, 64, 127
1, 158658, Note_on_c, 9, 51, 0
1, 158698, Note_on_c, 9, 51, 40
1, 158702, Note_on_c, 0, 57, 0
1, 158710, Note_on_c, 0, 58, 0
1, 158714, Note_on_c, 0, 62, 0
1, 158722, Note_on_c, 9, 51, 0
1, 158738, Note_on_c, 0, 69, 0
1, 158746, Note_on_c, 1, 42, 96
1, 158750, Note_on_c, 9, 51, 59
1, 158762, Control_c, 0, 64, 0
1, 158762, Note_on_c, 0, 69, 39
1, 158762, Note_on_c, 0, 58, 65
1, 158770, Note_on_c, 1, 43, 0
1, 158770, Note_on_c, 0, 62, 54
1, 158770, Note_on_c, 0, 54, 59
1, 158866, Note_on_c, 0, 62, 0
1, 158874, Note_on_c, 0, 58, 0
1, 158950, Note_on_c, 0, 58, 48
1, 158966, Note_on_c, 0, 62, 48
1, 159038, Note_on_c, 0, 62, 0
1, 159050, Note_on_c, 0, 58, 0
1, 159082, Note_on_c, 9, 51, 0
1, 159126, Note_on_c, 9, 51, 60
1, 159130, Note_on_c, 9, 44, 71
1, 159146, Note_on_c, 0, 58, 48
1, 159154, Control_c, 0, 64, 127
1, 159158, Note_on_c, 0, 62, 48
1, 159222, Note_on_c, 0, 54, 0
1, 159226, Note_on_c, 9, 44, 0
1, 159334, Note_on_c, 0, 54, 53
1, 159374, Note_on_c, 0, 62, 0
1, 159406, Note_on_c, 0, 58, 0
1, 159422, Note_on_c, 9, 51, 0
1, 159450, Note_on_c, 9, 37, 45
1, 159470, Note_on_c, 0, 69, 0
1, 159478, Note_on_c, 9, 51, 38
1, 159482, Note_on_c, 9, 37, 0
1, 159490, Note_on_c, 9, 51, 0
1, 159490, Control_c, 0, 64, 0
1, 159506, Note_on_c, 0, 54, 0
1, 159514, Note_on_c, 1, 41, 91
1, 159514, Note_on_c, 9, 35, 21
1, 159518, Note_on_c, 0, 58, 56
1, 159526, Note_on_c, 0, 53, 47
1, 159530, Note_on_c, 0, 62, 49
1, 159534, Control_c, 0, 64, 127
1, 159534, Note_on_c, 9, 51, 64
1, 159538, Note_on_c, 1, 42, 0
1, 159562, Note_on_c, 9, 35, 0
1, 159586, Note_on_c, 0, 58, 0
1, 159606, Note_on_c, 0, 62, 0
1, 159618, Note_on_c, 0, 53, 0
1, 159642, Note_on_c, 9, 35, 25
1, 159674, Note_on_c, 9, 35, 0
1, 159834, Note_on_c, 9, 37, 36
1, 159854, Note_on_c, 9, 51, 0
1, 159862, Note_on_c, 0, 56, 57
1, 159866, Note_on_c, 9, 37, 0
1, 159898, Note_on_c, 9, 44, 72
1, 159898, Note_on_c, 9, 51, 62
1, 159898, Note_on_c, 9, 35, 23
1, 159902, Note_on_c, 0, 67, 59
1, 159906, Note_on_c, 0, 56, 0
1, 159910, Control_c, 0, 64, 0
1, 159918, Note_on_c, 0, 68, 57
1, 159930, Note_on_c, 0, 57, 63
1, 159938, Note_on_c, 9, 35, 0
1, 159942, Note_on_c, 0, 67, 0
1, 159946, Note_on_c, 0, 68, 0
1, 159946, Note_on_c, 0, 69, 62
1, 159982, Note_on_c, 0, 69, 0
1, 159994, Note_on_c, 9, 44, 0
1, 160038, Note_on_c, 0, 72, 122
1, 160042, Note_on_c, 0, 57, 0
1, 160042, Note_on_c, 0, 60, 78
1, 160086, Note_on_c, 0, 72, 0
1, 160110, Note_on_c, 0, 74, 120
1, 160158, Control_c, 0, 64, 127
1, 160178, Note_on_c, 0, 60, 0
1, 160250, Note_on_c, 9, 51, 0
1, 160266, Control_c, 0, 64, 0
1, 160274, Note_on_c, 1, 41, 0
1, 160282, Note_on_c, 1, 40, 87
1, 160282, Note_on_c, 9, 35, 28
1, 160294, Note_on_c, 0, 58, 46
1, 160294, Note_on_c, 0, 62, 44
1, 160298, Note_on_c, 9, 51, 67
1, 160302, Note_on_c, 0, 52, 39
1, 160342, Note_on_c, 9, 35, 0
1, 160474, Note_on_c, 0, 62, 0
1, 160486, Note_on_c, 0, 68, 58
1, 160502, Note_on_c, 0, 58, 0
1, 160514, Note_on_c, 0, 52, 0
1, 160578, Note_on_c, 9, 51, 0
1, 160602, Note_on_c, 9, 35, 31
1, 160618, Note_on_c, 9, 51, 36
1, 160630, Note_on_c, 0, 74, 0
1, 160630, Note_on_c, 0, 68, 0
1, 160634, Note_on_c, 9, 51, 0
1, 160638, Note_on_c, 9, 35, 0
1, 160666, Note_on_c, 1, 40, 0
1, 160666, Note_on_c, 0, 45, 53
1, 160666, Note_on_c, 1, 33, 87
1, 160666, Note_on_c, 9, 46, 56
1, 160666, Note_on_c, 9, 35, 29
1, 160670, Note_on_c, 9, 51, 64
1, 160678, Note_on_c, 0, 67, 55
1, 160686, Control_c, 0, 64, 127
1, 160686, Note_on_c, 0, 74, 37
1, 160686, Note_on_c, 0, 55, 47
1, 160734, Note_on_c, 9, 35, 0
1, 160762, Note_on_c, 9, 46, 0
1, 160770, Note_on_c, 0, 74, 0
1, 160806, Note_on_c, 0, 65, 56
1, 160810, Note_on_c, 0, 67, 0
1, 160830, Note_on_c, 0, 45, 0
1, 160874, Note_on_c, 0, 55, 0
1, 160890, Note_on_c, 0, 65, 0
1, 160934, Note_on_c, 0, 62, 41
1, 160954, Note_on_c, 9, 51, 0
1, 160978, Note_on_c, 0, 62, 0
1, 160986, Note_on_c, 9, 34, 20
1, 160990, Note_on_c, 9, 51, 33
1, 160994, Note_on_c, 0, 60, 38
1, 161010, Note_on_c, 9, 51, 0
1, 161014, Control_c, 0, 64, 0
1, 161018, Note_on_c, 0, 60, 0
1, 161034, Note_on_c, 9, 34, 0
1, 161042, Note_on_c, 1, 33, 0
1, 161050, Note_on_c, 0, 62, 53
1, 161050, Note_on_c, 1, 38, 88
1, 161050, Note_on_c, 9, 51, 67
1, 161050, Note_on_c, 9, 57, 11
1, 161050, Note_on_c, 9, 35, 25
1, 161054, Note_on_c, 0, 50, 45
1, 161058, Note_on_c, 0, 57, 41
1, 161070, Control_c, 0, 64, 127
1, 161106, Note_on_c, 9, 57, 0
1, 161154, Note_on_c, 9, 35, 0
1, 161170, Note_on_c, 0, 62, 0
1, 161258, Note_on_c, 0, 50, 0
1, 161306, Note_on_c, 0, 57, 0
1, 161354, Note_on_c, 0, 76, 67
1, 161378, Note_on_c, 9, 51, 0
1, 161414, Note_on_c, 0, 76, 0
1, 161414, Note_on_c, 9, 51, 44
1, 161434, Note_on_c, 9, 44, 70
1, 161438, Note_on_c, 0, 69, 61
1, 161442, Note_on_c, 0, 65, 51
1, 161442, Control_c, 0, 64, 0
1, 161442, Note_on_c, 0, 64, 50
1, 161486, Control_c, 0, 64, 127
1, 161530, Note_on_c, 9, 44, 0
1, 161626, Note_on_c, 1, 45, 82
1, 161670, Note_on_c, 9, 51, 0
1, 161674, Note_on_c, 0, 64, 0
1, 161694, Note_on_c, 0, 65, 0
1, 161726, Note_on_c, 0, 76, 61
1, 161742, Note_on_c, 0, 69, 0
1, 161770, Note_on_c, 9, 51, 32
1, 161782, Control_c, 0, 64, 0
1, 161786, Note_on_c, 9, 51, 0
1, 161786, Note_on_c, 0, 76, 0
1, 161818, Note_on_c, 0, 65, 51
1, 161818, Note_on_c, 1, 53, 90
1, 161818, Note_on_c, 9, 35, 34
1, 161822, Note_on_c, 0, 69, 56
1, 161822, Note_on_c, 0, 62, 43
1, 161822, Note_on_c, 0, 74, 57
1, 161830, Note_on_c, 9, 51, 69
1, 161838, Control_c, 0, 64, 127
1, 161866, Note_on_c, 9, 35, 0
1, 162026, Note_on_c, 0, 62, 0
1, 162082, Note_on_c, 0, 69, 0
1, 162090, Note_on_c, 0, 65, 0
1, 162126, Note_on_c, 1, 53, 0
1, 162138, Note_on_c, 1, 52, 77
1, 162142, Note_on_c, 9, 51, 0
1, 162170, Note_on_c, 1, 45, 0
1, 162198, Note_on_c, 1, 52, 0
1, 162202, Note_on_c, 1, 50, 76
1, 162202, Note_on_c, 9, 44, 67
1, 162206, Note_on_c, 0, 65, 53
1, 162210, Note_on_c, 0, 61, 50
1, 162210, Note_on_c, 0, 69, 54
1, 162214, Note_on_c, 9, 51, 68
1, 162298, Note_on_c, 9, 44, 0
1, 162334, Note_on_c, 0, 61, 0
1, 162410, Note_on_c, 0, 57, 48
1, 162414, Note_on_c, 1, 38, 0
1, 162434, Note_on_c, 0, 65, 0
1, 162438, Note_on_c, 0, 69, 0
1, 162454, Note_on_c, 0, 57, 0
1, 162458, Note_on_c, 1, 45, 76
1, 162474, Note_on_c, 1, 50, 0
1, 162490, Note_on_c, 1, 45, 0
1, 162498, Note_on_c, 0, 74, 0
1, 162506, Note_on_c, 9, 51, 0
1, 162522, Note_on_c, 1, 39, 82
1, 162522, Note_on_c, 9, 34, 71
1, 162550, Note_on_c, 9, 51, 46
1, 162562, Note_on_c, 9, 51, 0
1, 162562, Note_on_c, 9, 34, 0
1, 162578, Note_on_c, 1, 39, 0
1, 162578, Control_c, 0, 64, 0
1, 162586, Note_on_c, 1, 38, 88
1, 162586, Note_on_c, 9, 35, 46
1, 162598, Note_on_c, 0, 50, 49
1, 162602, Note_on_c, 0, 68, 52
1, 162606, Note_on_c, 0, 64, 48
1, 162606, Note_on_c, 0, 60, 40
1, 162610, Note_on_c, 0, 71, 45
1, 162614, Note_on_c, 9, 51, 69
1, 162618, Control_c, 0, 64, 127
1, 162626, Note_on_c, 0, 64, 0
1, 162642, Note_on_c, 0, 71, 0
1, 162646, Note_on_c, 0, 68, 0
1, 162718, Note_on_c, 0, 60, 0
1, 162766, Note_on_c, 9, 35, 0
1, 162794, Note_on_c, 0, 76, 66
1, 162798, Note_on_c, 0, 88, 61
1, 162798, Note_on_c, 0, 80, 57
1, 162802, Note_on_c, 0, 60, 55
1, 162806, Note_on_c, 0, 54, 50
1, 162810, Note_on_c, 0, 83, 37
1, 162818, Note_on_c, 0, 76, 0
1, 162826, Note_on_c, 0, 83, 0
1, 162826, Note_on_c, 0, 50, 0
1, 162830, Note_on_c, 0, 80, 0
1, 162830, Note_on_c, 0, 60, 0
1, 162850, Note_on_c, 0, 88, 0
1, 162850, Note_on_c, 0, 54, 0
1, 162894, Note_on_c, 9, 51, 0
1, 162970, Note_on_c, 9, 44, 69
1, 162970, Note_on_c, 9, 51, 72
1, 162994, Note_on_c, 0, 92, 77
1, 162994, Note_on_c, 0, 54, 69
1, 162998, Note_on_c, 0, 88, 76
1, 162998, Note_on_c, 0, 100, 85
1, 162998, Note_on_c, 0, 64, 73
1, 162998, Note_on_c, 0, 95, 74
1, 163002, Note_on_c, 0, 60, 67
1, 163066, Note_on_c, 9, 44, 0
1, 163098, Note_on_c, 0, 64, 0
1, 163098, Note_on_c, 0, 100, 0
1, 163098, Note_on_c, 0, 88, 0
1, 163106, Note_on_c, 0, 92, 0
1, 163106, Note_on_c, 0, 54, 0
1, 163106, Note_on_c, 0, 60, 0
1, 163110, Note_on_c, 0, 95, 0
1, 163162, Note_on_c, 1, 45, 95
1, 163162, Note_on_c, 9, 35, 36
1, 163186, Note_on_c, 0, 92, 85
1, 163190, Note_on_c, 0, 54, 82
1, 163190, Note_on_c, 0, 100, 94
1, 163190, Note_on_c, 0, 88, 88
1, 163190, Note_on_c, 0, 64, 85
1, 163190, Note_on_c, 0, 95, 74
1, 163194, Note_on_c, 0, 60, 75
1, 163210, Note_on_c, 9, 35, 0
1, 163242, Note_on_c, 9, 51, 0
1, 163274, Note_on_c, 0, 88, 0
1, 163282, Note_on_c, 0, 64, 0
1, 163282, Note_on_c, 0, 92, 0
1, 163282, Note_on_c, 0, 100, 0
1, 163290, Note_on_c, 0, 95, 0
1, 163290, Note_on_c, 0, 60, 0
1, 163294, Note_on_c, 0, 54, 0
1, 163346, Note_on_c, 1, 45, 0
1, 163354, Note_on_c, 1, 50, 94
1, 163354, Note_on_c, 9, 35, 39
1, 163362, Note_on_c, 9, 51, 74
1, 163374, Note_on_c, 0, 54, 85
1, 163378, Note_on_c, 0, 92, 89
1, 163378, Note_on_c, 0, 95, 90
1, 163378, Note_on_c, 0, 64, 85
1, 163378, Note_on_c, 0, 100, 96
1, 163378, Note_on_c, 0, 88, 94
1, 163378, Note_on_c, 0, 60, 77
1, 163390, Note_on_c, 0, 98, 43
1, 163406, Note_on_c, 9, 35, 0
1, 163482, Note_on_c, 0, 88, 0
1, 163486, Note_on_c, 0, 64, 0
1, 163486, Note_on_c, 0, 100, 0
1, 163486, Note_on_c, 0, 92, 0
1, 163490, Note_on_c, 0, 98, 0
1, 163498, Note_on_c, 0, 54, 0
1, 163498, Note_on_c, 0, 95, 0
1, 163502, Note_on_c, 0, 60, 0
1, 163542, Note_on_c, 1, 50, 0
1, 163546, Note_on_c, 1, 42, 92
1, 163546, Note_on_c, 9, 35, 44
1, 163570, Note_on_c, 1, 38, 0
1, 163570, Note_on_c, 0, 92, 88
1, 163570, Note_on_c, 0, 95, 88
1, 163570, Note_on_c, 0, 100, 96
1, 163570, Note_on_c, 0, 88, 87
1, 163570, Note_on_c, 0, 54, 86
1, 163570, Note_on_c, 0, 64, 85
1, 163570, Note_on_c, 0, 60, 75
1, 163586, Note_on_c, 9, 51, 0
1, 163670, Note_on_c, 0, 92, 0
1, 163670, Note_on_c, 0, 88, 0
1, 163674, Note_on_c, 0, 100, 0
1, 163678, Note_on_c, 0, 64, 0
1, 163678, Note_on_c, 0, 95, 0
1, 163686, Note_on_c, 9, 51, 56
1, 163690, Note_on_c, 0, 60, 0
1, 163690, Note_on_c, 0, 54, 0
1, 163706, Note_on_c, 9, 51, 0
1, 163738, Note_on_c, 9, 35, 0
1, 163738, Note_on_c, 1, 38, 70
1, 163738, Note_on_c, 9, 44, 69
1, 163742, Note_on_c, 9, 51, 68
1, 163758, Note_on_c, 0, 92, 82
1, 163758, Note_on_c, 0, 95, 83
1, 163758, Note_on_c, 0, 100, 82
1, 163758, Note_on_c, 0, 88, 79
1, 163758, Note_on_c, 0, 54, 82
1, 163758, Note_on_c, 0, 64, 85
1, 163766, Note_on_c, 0, 60, 75
1, 163826, Note_on_c, 0, 64, 0
1, 163826, Note_on_c, 0, 100, 0
1, 163834, Note_on_c, 9, 44, 0
1, 163838, Note_on_c, 0, 88, 0
1, 163838, Note_on_c, 0, 95, 0
1, 163842, Note_on_c, 0, 54, 0
1, 163846, Note_on_c, 0, 92, 0
1, 163846, Note_on_c, 0, 60, 0
1, 163918, Note_on_c, 1, 42, 0
1, 163926, Note_on_c, 1, 38, 0
1, 163930, Note_on_c, 1, 32, 87
1, 163930, Note_on_c, 9, 35, 42
1, 163946, Note_on_c, 0, 54, 78
1, 163950, Note_on_c, 0, 64, 80
1, 163950, Note_on_c, 0, 98, 94
1, 163954, Note_on_c, 9, 51, 0
1, 163954, Note_on_c, 0, 60, 64
1, 163954, Note_on_c, 0, 93, 94
1, 163954, Note_on_c, 0, 86, 85
1, 163958, Note_on_c, 0, 58, 49
1, 163974, Note_on_c, 0, 58, 0
1, 163974, Note_on_c, 9, 35, 0
1, 163982, Note_on_c, 0, 64, 0
1, 163990, Note_on_c, 0, 60, 0
1, 163994, Note_on_c, 0, 98, 0
1, 163994, Note_on_c, 0, 93, 0
1, 164014, Note_on_c, 0, 86, 0
1, 164026, Note_on_c, 0, 54, 0
1, 164050, Note_on_c, 9, 51, 45
1, 164078, Note_on_c, 9, 51, 0
1, 164114, Control_c, 0, 64, 72
1, 164114, Control_c, 0, 64, 0
1, 164118, Note_on_c, 9, 51, 45
1, 164122, Note_on_c, 1, 31, 91
1, 164122, Note_on_c, 9, 49, 33
1, 164122, Note_on_c, 9, 57, 21
1, 164122, Note_on_c, 9, 35, 58
1, 164134, Note_on_c, 1, 32, 0
1, 164142, Note_on_c, 0, 94, 84
1, 164142, Note_on_c, 0, 58, 82
1, 164142, Note_on_c, 0, 82, 82
1, 164142, Note_on_c, 0, 62, 84
1, 164142, Note_on_c, 0, 53, 75
1, 164142, Note_on_c, 0, 86, 83
1, 164142, Note_on_c, 0, 55, 72
1, 164142, Note_on_c, 0, 89, 68
1, 164154, Control_c, 0, 64, 127
1, 164202, Note_on_c, 9, 35, 0
1, 164238, Note_on_c, 0, 94, 0
1, 164250, Note_on_c, 0, 89, 0
1, 164258, Note_on_c, 0, 86, 0
1, 164278, Note_on_c, 0, 82, 0
1, 164290, Note_on_c, 0, 62, 0
1, 164306, Note_on_c, 0, 58, 0
1, 164314, Note_on_c, 0, 53, 0
1, 164314, Note_on_c, 9, 35, 48
1, 164326, Note_on_c, 0, 55, 0
1, 164506, Note_on_c, 1, 43, 93
1, 164506, Note_on_c, 9, 44, 68
1, 164562, Note_on_c, 0, 70, 80
1, 164566, Note_on_c, 0, 58, 85
1, 164566, Note_on_c, 0, 62, 80
1, 164574, Note_on_c, 0, 53, 75
1, 164574, Note_on_c, 0, 65, 63
1, 164582, Note_on_c, 9, 49, 0
1, 164582, Note_on_c, 9, 35, 0
1, 164602, Note_on_c, 9, 44, 0
1, 164610, Note_on_c, 9, 51, 0
1, 164622, Note_on_c, 0, 53, 0
1, 164638, Note_on_c, 9, 57, 0
1, 164686, Note_on_c, 1, 31, 0
1, 164698, Note_on_c, 9, 35, 51
1, 164702, Note_on_c, 9, 51, 67
1, 164742, Note_on_c, 9, 51, 0
1, 164750, Note_on_c, 0, 58, 0
1, 164766, Note_on_c, 0, 62, 0
1, 164770, Note_on_c, 0, 65, 0
1, 164774, Note_on_c, 9, 35, 0
1, 164798, Note_on_c, 0, 70, 0
1, 164810, Note_on_c, 9, 51, 54
1, 164842, Note_on_c, 9, 51, 0
1, 164890, Note_on_c, 1, 36, 102
1, 164890, Note_on_c, 9, 35, 62
1, 164902, Note_on_c, 9, 51, 55
1, 164906, Note_on_c, 9, 57, 18
1, 164906, Note_on_c, 9, 49, 26
1, 164914, Control_c, 0, 64, 0
1, 164918, Note_on_c, 1, 43, 0
1, 164922, Note_on_c, 0, 36, 89
1, 164922, Note_on_c, 0, 24, 94
1, 164966, Control_c, 0, 64, 127
1, 164998, Note_on_c, 9, 35, 0
1, 165006, Note_on_c, 0, 24, 0
1, 165026, Note_on_c, 0, 36, 0
1, 165082, Note_on_c, 9, 35, 60
1, 165242, Note_on_c, 9, 51, 0
1, 165274, Note_on_c, 1, 48, 99
1, 165274, Note_on_c, 9, 46, 61
1, 165322, Note_on_c, 1, 36, 0
1, 165322, Note_on_c, 0, 70, 94
1, 165326, Note_on_c, 0, 76, 88
1, 165326, Note_on_c, 0, 64, 92
1, 165326, Note_on_c, 0, 61, 83
1, 165326, Note_on_c, 0, 58, 82
1, 165330, Note_on_c, 9, 35, 0
1, 165330, Note_on_c, 0, 73, 72
1, 165370, Note_on_c, 9, 46, 0
1, 165382, Note_on_c, 0, 61, 0
1, 165386, Note_on_c, 9, 51, 62
1, 165394, Note_on_c, 9, 57, 0
1, 165398, Note_on_c, 0, 58, 0
1, 165402, Note_on_c, 9, 49, 0
1, 165418, Note_on_c, 9, 51, 0
1, 165466, Note_on_c, 9, 35, 58
1, 165494, Note_on_c, 0, 76, 0
1, 165502, Note_on_c, 0, 64, 0
1, 165510, Note_on_c, 0, 73, 0
1, 165514, Note_on_c, 0, 70, 0
1, 165550, Note_on_c, 9, 35, 0
1, 165550, Note_on_c, 9, 51, 58
1, 165582, Note_on_c, 9, 51, 0
1, 165658, Note_on_c, 1, 29, 79
1, 165658, Note_on_c, 9, 44, 73
1, 165658, Note_on_c, 9, 35, 65
1, 165670, Note_on_c, 9, 51, 51
1, 165670, Note_on_c, 9, 49, 32
1, 165674, Note_on_c, 9, 57, 3
1, 165694, Control_c, 0, 64, 56
1, 165694, Control_c, 0, 64, 0
1, 165706, Note_on_c, 0, 65, 81
1, 165706, Note_on_c, 0, 60, 83
1, 165706, Note_on_c, 0, 48, 84
1, 165710, Note_on_c, 0, 55, 85
1, 165710, Note_on_c, 0, 41, 82
1, 165750, Control_c, 0, 64, 127
1, 165758, Note_on_c, 0, 55, 0
1, 165758, Note_on_c, 9, 44, 0
1, 165762, Note_on_c, 0, 41, 0
1, 165778, Note_on_c, 1, 48, 0
1, 165782, Note_on_c, 0, 60, 0
1, 165786, Note_on_c, 0, 65, 0
1, 165786, Note_on_c, 0, 48, 0
1, 165934, Note_on_c, 0, 79, 111
1, 165938, Note_on_c, 0, 69, 102
1, 165938, Note_on_c, 0, 74, 96
1, 165938, Note_on_c, 0, 64, 88
1, 165954, Note_on_c, 9, 57, 0
1, 165966, Note_on_c, 9, 51, 0
1, 165970, Note_on_c, 9, 49, 0
1, 165986, Note_on_c, 0, 64, 0
1, 166006, Note_on_c, 0, 74, 0
1, 166006, Note_on_c, 0, 79, 0
1, 166010, Note_on_c, 9, 35, 0
1, 166014, Note_on_c, 0, 69, 0
1, 166082, Note_on_c, 0, 73, 26
1, 166098, Note_on_c, 0, 73, 0
1, 166138, Control_c, 0, 64, 0
1, 166142, Note_on_c, 0, 74, 83
1, 166142, Note_on_c, 0, 69, 82
1, 166146, Note_on_c, 0, 58, 85
1, 166146, Note_on_c, 0, 64, 75
1, 166170, Control_c, 0, 64, 127
1, 166230, Note_on_c, 0, 69, 0
1, 166234, Note_on_c, 0, 74, 0
1, 166262, Note_on_c, 0, 64, 0
1, 166338, Control_c, 0, 64, 0
1, 166342, Note_on_c, 0, 58, 0
1, 166342, Note_on_c, 0, 72, 72
1, 166346, Note_on_c, 0, 67, 75
1, 166346, Note_on_c, 0, 62, 70
1, 166350, Note_on_c, 0, 57, 72
1, 166358, Control_c, 0, 64, 127
1, 166414, Note_on_c, 0, 72, 0
1, 166418, Note_on_c, 0, 67, 0
1, 166450, Note_on_c, 0, 62, 0
1, 166526, Note_on_c, 0, 57, 0
1, 166550, Note_on_c, 0, 69, 68
1, 166550, Note_on_c, 0, 64, 72
1, 166550, Note_on_c, 0, 60, 71
1, 166554, Control_c, 0, 64, 0
1, 166554, Note_on_c, 0, 53, 64
1, 166558, Control_c, 0, 64, 127
1, 166602, Note_on_c, 0, 53, 0
1, 166602, Note_on_c, 0, 69, 0
1, 166606, Note_on_c, 0, 64, 0
1, 166626, Note_on_c, 0, 60, 0
1, 166762, Note_on_c, 0, 64, 68
1, 166762, Control_c, 0, 64, 0
1, 166766, Note_on_c, 0, 48, 66
1, 166766, Note_on_c, 0, 55, 68
1, 166766, Note_on_c, 0, 57, 72
1, 166782, Note_on_c, 0, 60, 37
1, 166786, Control_c, 0, 64, 127
1, 166818, Note_on_c, 0, 48, 0
1, 166826, Note_on_c, 0, 64, 0
1, 166846, Note_on_c, 0, 57, 0
1, 166846, Note_on_c, 0, 60, 0
1, 166850, Note_on_c, 0, 55, 0
1, 166982, Control_c, 0, 64, 0
1, 166994, Note_on_c, 0, 46, 57
1, 166994, Note_on_c, 0, 62, 64
1, 166994, Note_on_c, 0, 57, 68
1, 166994, Note_on_c, 0, 34, 57
1, 166998, Note_on_c, 0, 52, 61
1, 167022, Control_c, 0, 64, 127
1, 167050, Note_on_c, 0, 46, 0
1, 167058, Note_on_c, 0, 34, 0
1, 167070, Note_on_c, 0, 62, 0
1, 167078, Note_on_c, 0, 57, 0
1, 167102, Note_on_c, 0, 52, 0
1, 167226, Control_c, 0, 64, 0
1, 167242, Note_on_c, 0, 60, 57
1, 167246, Note_on_c, 0, 55, 58
1, 167246, Note_on_c, 0, 50, 49
1, 167250, Note_on_c, 0, 45, 45
1, 167250, Note_on_c, 0, 33, 49
1, 167258, Control_c, 0, 64, 127
1, 167274, Note_on_c, 0, 45, 0
1, 167302, Note_on_c, 0, 33, 0
1, 167330, Note_on_c, 0, 60, 0
1, 167334, Note_on_c, 0, 55, 0
1, 167362, Note_on_c, 0, 50, 0
1, 167638, Control_c, 0, 64, 0
1, 167642, Note_on_c, 0, 29, 52
1, 167646, Note_on_c, 0, 48, 55
1, 167654, Note_on_c, 0, 41, 39
1, 167654, Note_on_c, 0, 57, 52
1, 167654, Note_on_c, 0, 50, 52
1, 167658, Note_on_c, 0, 53, 40
1, 167714, Control_c, 0, 64, 127
1, 167722, Note_on_c, 0, 50, 0
1, 167722, Note_on_c, 0, 48, 0
1, 167726, Note_on_c, 0, 53, 0
1, 167734, Note_on_c, 0, 57, 0
1, 167762, Note_on_c, 0, 29, 0
1, 167782, Note_on_c, 0, 41, 0
1, 167962, Note_on_c, 1, 29, 0
1, 168794, Note_on_c, 0, 96, 47
1, 168798, Note_on_c, 0, 86, 37
1, 168798, Note_on_c, 0, 91, 53
1, 168806, Note_on_c, 0, 81, 38
1, 168966, Note_on_c, 0, 81, 0
1, 169498, Note_on_c, 0, 29, 31
1, 169718, Note_on_c, 0, 86, 0
1, 169726, Note_on_c, 0, 91, 0
1, 169734, Note_on_c, 0, 96, 0
1, 169874, Note_on_c, 0, 29, 0
1, 169874, End_track
0, 0, End_of_file
