0, 0, Header, 1, 8, 384
1, 0, Start_track
1, 0, Title_t, "InASentimentalMood"
1, 0, Text_t, "dougmck@pipeline.com.au             \012"
1, 0, MIDI_port, 0
1, 0, System_exclusive, 5, 126, 127, 9, 1, 247
1, 0, System_exclusive, 8, 67, 115, 1, 17, 15, 89, 0, 247
1, 0, MIDI_port, 0
1, 0, Time_signature, 4, 2, 24, 8
1, 0, Key_signature, -1, "major"
1, 0, Tempo, 1034483
1, 0, End_track
2, 0, Start_track
2, 0, MIDI_port, 1
2, 0, Title_t, ""
2, 0, Program_c, 1, 32
2, 0, Control_c, 1, 7, 110
2, 0, Program_c, 1, 32
2, 1536, Control_c, 1, 7, 120
2, 1536, Note_on_c, 1, 50, 45
2, 2240, Note_on_c, 1, 45, 53
2, 2284, Note_on_c, 1, 45, 0
2, 2304, Note_on_c, 1, 38, 69
2, 2624, Note_on_c, 1, 45, 29
2, 2656, Note_on_c, 1, 45, 0
2, 2660, Note_on_c, 1, 50, 0
2, 2688, Note_on_c, 1, 49, 71
2, 3008, Note_on_c, 1, 45, 26
2, 3040, Note_on_c, 1, 45, 0
2, 3072, Note_on_c, 1, 48, 71
2, 3084, Note_on_c, 1, 49, 0
2, 3144, Note_on_c, 1, 38, 0
2, 3584, Note_on_c, 1, 45, 42
2, 3616, Note_on_c, 1, 45, 0
2, 3648, Note_on_c, 1, 38, 71
2, 3820, Note_on_c, 1, 48, 0
2, 4224, Note_on_c, 1, 47, 70
2, 4228, Note_on_c, 1, 38, 0
2, 4544, Note_on_c, 1, 38, 38
2, 4580, Note_on_c, 1, 47, 0
2, 4596, Note_on_c, 1, 38, 0
2, 4608, Note_on_c, 1, 31, 58
2, 5184, Note_on_c, 1, 43, 67
2, 5376, Note_on_c, 1, 42, 69
2, 5380, Note_on_c, 1, 43, 0
2, 5928, Note_on_c, 1, 31, 0
2, 5952, Note_on_c, 1, 31, 48
2, 6124, Note_on_c, 1, 42, 0
2, 6144, Note_on_c, 1, 41, 71
2, 6292, Note_on_c, 1, 31, 0
2, 6912, Note_on_c, 1, 40, 62
2, 6916, Note_on_c, 1, 41, 0
2, 7284, Note_on_c, 1, 40, 0
2, 7296, Note_on_c, 1, 33, 55
2, 7680, Note_on_c, 1, 33, 0
2, 7680, Note_on_c, 1, 38, 60
2, 8896, Note_on_c, 1, 45, 89
2, 9216, Note_on_c, 1, 50, 69
2, 9236, Note_on_c, 1, 38, 0
2, 9240, Note_on_c, 1, 45, 0
2, 9984, Note_on_c, 1, 38, 65
2, 10052, Note_on_c, 1, 50, 0
2, 10176, Note_on_c, 1, 54, 50
2, 10752, Note_on_c, 1, 43, 70
2, 10764, Note_on_c, 1, 38, 0
2, 10776, Note_on_c, 1, 54, 0
2, 11136, Note_on_c, 1, 31, 66
2, 11520, Note_on_c, 1, 42, 76
2, 11568, Note_on_c, 1, 43, 0
2, 11572, Note_on_c, 1, 31, 0
2, 12288, Note_on_c, 1, 41, 71
2, 12304, Note_on_c, 1, 42, 0
2, 13248, Note_on_c, 1, 33, 77
2, 13292, Note_on_c, 1, 41, 0
2, 13440, Note_on_c, 1, 45, 83
2, 13528, Note_on_c, 1, 33, 0
2, 13632, Note_on_c, 1, 33, 68
2, 13676, Note_on_c, 1, 45, 0
2, 13824, Note_on_c, 1, 38, 75
2, 13840, Note_on_c, 1, 33, 0
2, 14784, Note_on_c, 1, 50, 85
2, 14972, Note_on_c, 1, 50, 0
2, 14976, Note_on_c, 1, 49, 69
2, 15036, Note_on_c, 1, 38, 0
2, 15168, Note_on_c, 1, 38, 62
2, 15324, Note_on_c, 1, 49, 0
2, 15360, Note_on_c, 1, 48, 69
2, 15396, Note_on_c, 1, 38, 0
2, 16128, Note_on_c, 1, 47, 63
2, 16132, Note_on_c, 1, 48, 0
2, 16640, Note_on_c, 1, 47, 0
2, 16640, Note_on_c, 1, 38, 60
2, 16672, Note_on_c, 1, 38, 0
2, 16768, Note_on_c, 1, 42, 75
2, 16872, Note_on_c, 1, 42, 0
2, 16896, Note_on_c, 1, 43, 67
2, 17600, Note_on_c, 1, 31, 54
2, 17664, Note_on_c, 1, 42, 55
2, 17680, Note_on_c, 1, 43, 0
2, 17848, Note_on_c, 1, 31, 0
2, 18484, Note_on_c, 1, 42, 0
2, 18496, Note_on_c, 1, 41, 64
2, 19200, Note_on_c, 1, 40, 62
2, 19216, Note_on_c, 1, 41, 0
2, 19584, Note_on_c, 1, 39, 64
2, 19584, Note_on_c, 1, 38, 35
2, 19600, Note_on_c, 1, 40, 0
2, 19644, Note_on_c, 1, 38, 0
2, 19968, Note_on_c, 1, 38, 64
2, 19980, Note_on_c, 1, 39, 0
2, 20672, Note_on_c, 1, 45, 53
2, 20736, Note_on_c, 1, 53, 71
2, 20748, Note_on_c, 1, 45, 0
2, 21184, Note_on_c, 1, 50, 57
2, 21220, Note_on_c, 1, 53, 0
2, 21228, Note_on_c, 1, 38, 0
2, 21244, Note_on_c, 1, 50, 0
2, 21248, Note_on_c, 1, 45, 60
2, 21292, Note_on_c, 1, 45, 0
2, 21312, Note_on_c, 1, 38, 71
2, 21448, Note_on_c, 1, 38, 0
2, 21504, Note_on_c, 1, 38, 70
2, 22208, Note_on_c, 1, 45, 26
2, 22272, Note_on_c, 1, 45, 0
2, 22272, Note_on_c, 1, 54, 62
2, 22592, Note_on_c, 1, 54, 0
2, 22592, Note_on_c, 1, 45, 63
2, 22636, Note_on_c, 1, 45, 0
2, 22656, Note_on_c, 1, 42, 34
2, 22692, Note_on_c, 1, 38, 0
2, 22912, Note_on_c, 1, 38, 43
2, 22952, Note_on_c, 1, 38, 0
2, 22976, Note_on_c, 1, 32, 51
2, 23012, Note_on_c, 1, 42, 0
2, 23040, Note_on_c, 1, 32, 0
2, 23040, Note_on_c, 1, 31, 85
2, 23424, Note_on_c, 1, 43, 61
2, 23448, Note_on_c, 1, 31, 0
2, 23744, Note_on_c, 1, 31, 49
2, 23788, Note_on_c, 1, 31, 0
2, 23808, Note_on_c, 1, 42, 62
2, 23832, Note_on_c, 1, 43, 0
2, 24512, Note_on_c, 1, 30, 59
2, 24572, Note_on_c, 1, 30, 0
2, 24576, Note_on_c, 1, 29, 81
2, 24616, Note_on_c, 1, 42, 0
2, 25152, Note_on_c, 1, 41, 72
2, 25196, Note_on_c, 1, 29, 0
2, 25344, Note_on_c, 1, 44, 81
2, 25348, Note_on_c, 1, 41, 0
2, 25484, Pitch_bend_c, 1, 8192
2, 25488, Pitch_bend_c, 1, 8192
2, 25496, Pitch_bend_c, 1, 8192
2, 25520, Pitch_bend_c, 1, 8192
2, 25524, Pitch_bend_c, 1, 8842
2, 25528, Pitch_bend_c, 1, 8972
2, 25532, Pitch_bend_c, 1, 9102
2, 25532, Pitch_bend_c, 1, 9232
2, 25540, Pitch_bend_c, 1, 9492
2, 25544, Pitch_bend_c, 1, 9622
2, 25548, Pitch_bend_c, 1, 9882
2, 25556, Pitch_bend_c, 1, 10012
2, 25560, Pitch_bend_c, 1, 10272
2, 25560, Pitch_bend_c, 1, 10402
2, 25564, Pitch_bend_c, 1, 10532
2, 25568, Pitch_bend_c, 1, 10662
2, 25604, Pitch_bend_c, 1, 10532
2, 25608, Pitch_bend_c, 1, 10402
2, 25612, Pitch_bend_c, 1, 10142
2, 25616, Pitch_bend_c, 1, 10012
2, 25616, Pitch_bend_c, 1, 9882
2, 25620, Pitch_bend_c, 1, 9752
2, 25620, Pitch_bend_c, 1, 9622
2, 25624, Pitch_bend_c, 1, 9492
2, 25628, Pitch_bend_c, 1, 9362
2, 25628, Pitch_bend_c, 1, 9232
2, 25632, Pitch_bend_c, 1, 9102
2, 25636, Pitch_bend_c, 1, 8842
2, 25636, Pitch_bend_c, 1, 8712
2, 25644, Pitch_bend_c, 1, 8192
2, 25648, Pitch_bend_c, 1, 8192
2, 25652, Pitch_bend_c, 1, 8192
2, 25660, Pitch_bend_c, 1, 8192
2, 25692, Pitch_bend_c, 1, 8192
2, 25696, Pitch_bend_c, 1, 8192
2, 25704, Pitch_bend_c, 1, 8712
2, 25704, Pitch_bend_c, 1, 8842
2, 25708, Pitch_bend_c, 1, 8972
2, 25708, Pitch_bend_c, 1, 9102
2, 25712, Pitch_bend_c, 1, 9232
2, 25716, Pitch_bend_c, 1, 9362
2, 25720, Pitch_bend_c, 1, 9492
2, 25720, Pitch_bend_c, 1, 9622
2, 25724, Pitch_bend_c, 1, 9752
2, 25728, Pitch_bend_c, 1, 9882
2, 25732, Pitch_bend_c, 1, 10012
2, 25740, Pitch_bend_c, 1, 10142
2, 25772, Pitch_bend_c, 1, 10012
2, 25776, Pitch_bend_c, 1, 9882
2, 25780, Pitch_bend_c, 1, 9752
2, 25780, Pitch_bend_c, 1, 9492
2, 25784, Pitch_bend_c, 1, 9362
2, 25784, Pitch_bend_c, 1, 9102
2, 25788, Pitch_bend_c, 1, 8972
2, 25788, Pitch_bend_c, 1, 8712
2, 25792, Pitch_bend_c, 1, 8192
2, 25792, Pitch_bend_c, 1, 8192
2, 25796, Pitch_bend_c, 1, 8192
2, 26112, Note_on_c, 1, 37, 57
2, 26120, Note_on_c, 1, 44, 0
2, 26880, Note_on_c, 1, 34, 52
2, 26912, Note_on_c, 1, 37, 0
2, 27264, Note_on_c, 1, 49, 67
2, 27308, Note_on_c, 1, 34, 0
2, 27584, Note_on_c, 1, 34, 44
2, 27636, Note_on_c, 1, 34, 0
2, 27672, Note_on_c, 1, 49, 0
2, 27712, Note_on_c, 1, 39, 65
2, 27796, Pitch_bend_c, 1, 8192
2, 27800, Pitch_bend_c, 1, 8192
2, 27804, Pitch_bend_c, 1, 8712
2, 27804, Pitch_bend_c, 1, 8972
2, 27808, Pitch_bend_c, 1, 9232
2, 27808, Pitch_bend_c, 1, 9492
2, 27812, Pitch_bend_c, 1, 9752
2, 27812, Pitch_bend_c, 1, 10012
2, 27816, Pitch_bend_c, 1, 10142
2, 27820, Pitch_bend_c, 1, 10532
2, 27820, Pitch_bend_c, 1, 10792
2, 27824, Pitch_bend_c, 1, 10922
2, 27824, Pitch_bend_c, 1, 11312
2, 27828, Pitch_bend_c, 1, 11442
2, 27828, Pitch_bend_c, 1, 11702
2, 27832, Pitch_bend_c, 1, 11832
2, 27836, Pitch_bend_c, 1, 12092
2, 27836, Pitch_bend_c, 1, 12222
2, 27840, Pitch_bend_c, 1, 12352
2, 27840, Pitch_bend_c, 1, 12482
2, 27844, Pitch_bend_c, 1, 12612
2, 27848, Pitch_bend_c, 1, 12742
2, 27856, Pitch_bend_c, 1, 12872
2, 27868, Pitch_bend_c, 1, 12742
2, 27872, Pitch_bend_c, 1, 12612
2, 27876, Pitch_bend_c, 1, 12482
2, 27880, Pitch_bend_c, 1, 12352
2, 27880, Pitch_bend_c, 1, 12092
2, 27884, Pitch_bend_c, 1, 11962
2, 27884, Pitch_bend_c, 1, 11832
2, 27888, Pitch_bend_c, 1, 11702
2, 27888, Pitch_bend_c, 1, 11442
2, 27892, Pitch_bend_c, 1, 11052
2, 27896, Pitch_bend_c, 1, 10922
2, 27896, Pitch_bend_c, 1, 10662
2, 27900, Pitch_bend_c, 1, 10402
2, 27900, Pitch_bend_c, 1, 10142
2, 27904, Pitch_bend_c, 1, 9882
2, 27908, Pitch_bend_c, 1, 9622
2, 27908, Pitch_bend_c, 1, 9362
2, 27912, Pitch_bend_c, 1, 9102
2, 27912, Pitch_bend_c, 1, 8842
2, 27916, Pitch_bend_c, 1, 8712
2, 27916, Pitch_bend_c, 1, 8192
2, 27920, Pitch_bend_c, 1, 8192
2, 27920, Pitch_bend_c, 1, 8192
2, 27992, Pitch_bend_c, 1, 8192
2, 27992, Pitch_bend_c, 1, 8192
2, 27996, Pitch_bend_c, 1, 8712
2, 28000, Pitch_bend_c, 1, 8842
2, 28000, Pitch_bend_c, 1, 9102
2, 28004, Pitch_bend_c, 1, 9232
2, 28004, Pitch_bend_c, 1, 9492
2, 28008, Pitch_bend_c, 1, 9752
2, 28008, Pitch_bend_c, 1, 9882
2, 28012, Pitch_bend_c, 1, 10012
2, 28016, Pitch_bend_c, 1, 10272
2, 28016, Pitch_bend_c, 1, 10402
2, 28020, Pitch_bend_c, 1, 10662
2, 28020, Pitch_bend_c, 1, 10792
2, 28024, Pitch_bend_c, 1, 10922
2, 28024, Pitch_bend_c, 1, 11052
2, 28032, Pitch_bend_c, 1, 11442
2, 28036, Pitch_bend_c, 1, 11572
2, 28040, Pitch_bend_c, 1, 11702
2, 28064, Pitch_bend_c, 1, 11572
2, 28068, Pitch_bend_c, 1, 11442
2, 28068, Pitch_bend_c, 1, 11312
2, 28072, Pitch_bend_c, 1, 10922
2, 28076, Pitch_bend_c, 1, 10792
2, 28080, Pitch_bend_c, 1, 10662
2, 28080, Pitch_bend_c, 1, 10402
2, 28084, Pitch_bend_c, 1, 10272
2, 28084, Pitch_bend_c, 1, 10012
2, 28088, Pitch_bend_c, 1, 9752
2, 28092, Pitch_bend_c, 1, 9492
2, 28092, Pitch_bend_c, 1, 9232
2, 28096, Pitch_bend_c, 1, 9102
2, 28096, Pitch_bend_c, 1, 8842
2, 28100, Pitch_bend_c, 1, 8192
2, 28100, Pitch_bend_c, 1, 8192
2, 28104, Pitch_bend_c, 1, 8192
2, 28412, Note_on_c, 1, 39, 0
2, 28416, Note_on_c, 1, 32, 81
2, 28800, Note_on_c, 1, 48, 73
2, 29080, Note_on_c, 1, 32, 0
2, 29120, Note_on_c, 1, 32, 35
2, 29164, Note_on_c, 1, 32, 0
2, 29184, Note_on_c, 1, 37, 69
2, 29208, Note_on_c, 1, 48, 0
2, 30528, Note_on_c, 1, 37, 0
2, 30528, Note_on_c, 1, 34, 64
2, 30720, Note_on_c, 1, 39, 77
2, 30728, Note_on_c, 1, 34, 0
2, 31128, Control_c, 1, 1, 2
2, 31128, Control_c, 1, 1, 3
2, 31128, Control_c, 1, 1, 4
2, 31132, Control_c, 1, 1, 5
2, 31132, Control_c, 1, 1, 7
2, 31132, Control_c, 1, 1, 8
2, 31136, Control_c, 1, 1, 9
2, 31136, Control_c, 1, 1, 10
2, 31136, Control_c, 1, 1, 12
2, 31136, Control_c, 1, 1, 13
2, 31140, Control_c, 1, 1, 14
2, 31140, Control_c, 1, 1, 15
2, 31140, Control_c, 1, 1, 16
2, 31144, Control_c, 1, 1, 18
2, 31144, Control_c, 1, 1, 20
2, 31148, Control_c, 1, 1, 23
2, 31148, Control_c, 1, 1, 24
2, 31148, Control_c, 1, 1, 26
2, 31152, Control_c, 1, 1, 27
2, 31152, Control_c, 1, 1, 28
2, 31152, Control_c, 1, 1, 29
2, 31156, Control_c, 1, 1, 31
2, 31156, Control_c, 1, 1, 32
2, 31156, Control_c, 1, 1, 34
2, 31160, Control_c, 1, 1, 37
2, 31160, Control_c, 1, 1, 38
2, 31164, Control_c, 1, 1, 39
2, 31164, Control_c, 1, 1, 41
2, 31164, Control_c, 1, 1, 42
2, 31168, Control_c, 1, 1, 43
2, 31168, Control_c, 1, 1, 44
2, 31168, Control_c, 1, 1, 46
2, 31168, Control_c, 1, 1, 47
2, 31172, Control_c, 1, 1, 48
2, 31172, Control_c, 1, 1, 49
2, 31172, Control_c, 1, 1, 50
2, 31176, Control_c, 1, 1, 51
2, 31176, Control_c, 1, 1, 52
2, 31176, Control_c, 1, 1, 54
2, 31176, Control_c, 1, 1, 55
2, 31180, Control_c, 1, 1, 56
2, 31180, Control_c, 1, 1, 57
2, 31180, Control_c, 1, 1, 58
2, 31184, Control_c, 1, 1, 59
2, 31188, Control_c, 1, 1, 62
2, 31188, Control_c, 1, 1, 63
2, 31188, Control_c, 1, 1, 64
2, 31188, Control_c, 1, 1, 65
2, 31192, Control_c, 1, 1, 66
2, 31192, Control_c, 1, 1, 67
2, 31192, Control_c, 1, 1, 68
2, 31196, Control_c, 1, 1, 70
2, 31196, Control_c, 1, 1, 71
2, 31200, Control_c, 1, 1, 73
2, 31200, Control_c, 1, 1, 74
2, 31200, Control_c, 1, 1, 75
2, 31204, Control_c, 1, 1, 76
2, 31204, Control_c, 1, 1, 77
2, 31204, Control_c, 1, 1, 78
2, 31208, Control_c, 1, 1, 80
2, 31208, Control_c, 1, 1, 81
2, 31212, Control_c, 1, 1, 82
2, 31212, Control_c, 1, 1, 83
2, 31212, Control_c, 1, 1, 84
2, 31216, Control_c, 1, 1, 86
2, 31216, Control_c, 1, 1, 87
2, 31220, Control_c, 1, 1, 88
2, 31224, Control_c, 1, 1, 89
2, 31224, Control_c, 1, 1, 91
2, 31228, Control_c, 1, 1, 93
2, 31232, Control_c, 1, 1, 94
2, 31236, Control_c, 1, 1, 96
2, 31240, Control_c, 1, 1, 98
2, 31240, Control_c, 1, 1, 99
2, 31244, Control_c, 1, 1, 101
2, 31248, Control_c, 1, 1, 102
2, 31264, Control_c, 1, 1, 101
2, 31268, Control_c, 1, 1, 99
2, 31268, Control_c, 1, 1, 98
2, 31268, Control_c, 1, 1, 97
2, 31272, Control_c, 1, 1, 96
2, 31272, Control_c, 1, 1, 95
2, 31272, Control_c, 1, 1, 94
2, 31276, Control_c, 1, 1, 92
2, 31276, Control_c, 1, 1, 91
2, 31276, Control_c, 1, 1, 90
2, 31280, Control_c, 1, 1, 88
2, 31280, Control_c, 1, 1, 87
2, 31280, Control_c, 1, 1, 85
2, 31280, Control_c, 1, 1, 83
2, 31284, Control_c, 1, 1, 82
2, 31284, Control_c, 1, 1, 80
2, 31284, Control_c, 1, 1, 78
2, 31288, Control_c, 1, 1, 76
2, 31288, Control_c, 1, 1, 74
2, 31288, Control_c, 1, 1, 72
2, 31292, Control_c, 1, 1, 70
2, 31292, Control_c, 1, 1, 68
2, 31292, Control_c, 1, 1, 66
2, 31292, Control_c, 1, 1, 63
2, 31296, Control_c, 1, 1, 61
2, 31296, Control_c, 1, 1, 58
2, 31296, Control_c, 1, 1, 55
2, 31300, Control_c, 1, 1, 53
2, 31300, Control_c, 1, 1, 50
2, 31300, Control_c, 1, 1, 47
2, 31304, Control_c, 1, 1, 44
2, 31304, Control_c, 1, 1, 40
2, 31304, Control_c, 1, 1, 37
2, 31304, Control_c, 1, 1, 33
2, 31308, Control_c, 1, 1, 29
2, 31308, Control_c, 1, 1, 25
2, 31308, Control_c, 1, 1, 21
2, 31312, Control_c, 1, 1, 17
2, 31312, Control_c, 1, 1, 13
2, 31312, Control_c, 1, 1, 9
2, 31316, Control_c, 1, 1, 6
2, 31316, Control_c, 1, 1, 2
2, 31316, Control_c, 1, 1, 1
2, 31488, Note_on_c, 1, 32, 63
2, 31516, Note_on_c, 1, 39, 0
2, 31680, Note_on_c, 1, 48, 62
2, 32252, Note_on_c, 1, 48, 0
2, 32252, Note_on_c, 1, 32, 0
2, 32256, Note_on_c, 1, 37, 81
2, 32768, Note_on_c, 1, 49, 83
2, 32892, Note_on_c, 1, 49, 0
2, 32896, Note_on_c, 1, 48, 74
2, 33016, Note_on_c, 1, 37, 0
2, 33044, Note_on_c, 1, 48, 0
2, 33088, Note_on_c, 1, 46, 71
2, 33728, Note_on_c, 1, 38, 69
2, 33792, Note_on_c, 1, 39, 73
2, 33796, Note_on_c, 1, 38, 0
2, 33824, Note_on_c, 1, 46, 0
2, 34304, Note_on_c, 1, 46, 81
2, 34408, Note_on_c, 1, 46, 0
2, 34432, Note_on_c, 1, 45, 79
2, 34496, Note_on_c, 1, 39, 0
2, 34560, Note_on_c, 1, 44, 60
2, 34564, Note_on_c, 1, 45, 0
2, 34752, Note_on_c, 1, 32, 71
2, 35136, Note_on_c, 1, 38, 80
2, 35140, Note_on_c, 1, 32, 0
2, 35152, Note_on_c, 1, 44, 0
2, 35320, Note_on_c, 1, 38, 0
2, 35328, Note_on_c, 1, 43, 90
2, 36672, Note_on_c, 1, 31, 44
2, 36844, Note_on_c, 1, 31, 0
2, 36848, Note_on_c, 1, 43, 0
2, 36864, Note_on_c, 1, 36, 81
2, 38208, Note_on_c, 1, 45, 66
2, 38300, Note_on_c, 1, 36, 0
2, 38396, Note_on_c, 1, 45, 0
2, 38400, Note_on_c, 1, 47, 84
2, 39168, Note_on_c, 1, 46, 65
2, 39184, Note_on_c, 1, 47, 0
2, 39936, Note_on_c, 1, 45, 67
2, 39952, Note_on_c, 1, 46, 0
2, 40704, Note_on_c, 1, 44, 64
2, 40728, Note_on_c, 1, 45, 0
2, 41472, Note_on_c, 1, 43, 68
2, 41488, Note_on_c, 1, 44, 0
2, 42176, Note_on_c, 1, 31, 67
2, 42240, Note_on_c, 1, 42, 72
2, 42268, Note_on_c, 1, 43, 0
2, 42280, Note_on_c, 1, 31, 0
2, 43008, Note_on_c, 1, 41, 71
2, 43032, Note_on_c, 1, 42, 0
2, 43776, Note_on_c, 1, 40, 67
2, 43788, Note_on_c, 1, 41, 0
2, 44160, Note_on_c, 1, 33, 68
2, 44212, Note_on_c, 1, 40, 0
2, 44352, Note_on_c, 1, 39, 72
2, 44404, Note_on_c, 1, 33, 0
2, 44544, Note_on_c, 1, 38, 78
2, 44552, Note_on_c, 1, 39, 0
2, 45312, Note_on_c, 1, 45, 83
2, 45400, Note_on_c, 1, 38, 0
2, 46080, Note_on_c, 1, 38, 80
2, 46124, Note_on_c, 1, 45, 0
2, 46848, Note_on_c, 1, 54, 71
2, 47344, Note_on_c, 1, 54, 0
2, 47352, Note_on_c, 1, 38, 0
2, 47360, Note_on_c, 1, 45, 66
2, 47392, Note_on_c, 1, 45, 0
2, 47424, Note_on_c, 1, 44, 65
2, 47456, Note_on_c, 1, 44, 0
2, 47552, Note_on_c, 1, 42, 67
2, 47584, Note_on_c, 1, 42, 0
2, 47616, Note_on_c, 1, 43, 57
2, 47652, Note_on_c, 1, 43, 0
2, 47744, Note_on_c, 1, 38, 56
2, 47784, Note_on_c, 1, 38, 0
2, 47808, Note_on_c, 1, 34, 69
2, 48256, Note_on_c, 1, 38, 58
2, 48268, Note_on_c, 1, 34, 0
2, 48288, Note_on_c, 1, 38, 0
2, 48320, Note_on_c, 1, 35, 61
2, 48376, Note_on_c, 1, 35, 0
2, 48384, Note_on_c, 1, 36, 77
2, 48768, Note_on_c, 1, 48, 78
2, 49088, Note_on_c, 1, 34, 25
2, 49136, Note_on_c, 1, 36, 0
2, 49140, Note_on_c, 1, 34, 0
2, 49152, Note_on_c, 1, 41, 66
2, 49164, Note_on_c, 1, 48, 0
2, 50304, Note_on_c, 1, 33, 45
2, 50324, Note_on_c, 1, 41, 0
2, 50496, Note_on_c, 1, 39, 39
2, 50500, Note_on_c, 1, 33, 0
2, 50624, Note_on_c, 1, 33, 20
2, 50640, Note_on_c, 1, 39, 0
2, 50672, Note_on_c, 1, 33, 0
2, 50688, Note_on_c, 1, 38, 32
2, 51008, Note_on_c, 1, 45, 32
2, 51052, Note_on_c, 1, 45, 0
2, 51072, Note_on_c, 1, 50, 66
2, 51112, Note_on_c, 1, 38, 0
2, 51324, Note_on_c, 1, 50, 0
2, 51328, Note_on_c, 1, 45, 55
2, 51360, Note_on_c, 1, 45, 0
2, 51392, Note_on_c, 1, 38, 54
2, 51456, Note_on_c, 1, 49, 47
2, 51548, Note_on_c, 1, 38, 0
2, 51776, Note_on_c, 1, 45, 51
2, 51816, Note_on_c, 1, 45, 0
2, 51828, Note_on_c, 1, 49, 0
2, 51840, Note_on_c, 1, 41, 48
2, 52096, Note_on_c, 1, 38, 36
2, 52156, Note_on_c, 1, 38, 0
2, 52160, Note_on_c, 1, 37, 36
2, 52168, Note_on_c, 1, 41, 0
2, 52224, Note_on_c, 1, 37, 0
2, 52224, Note_on_c, 1, 38, 59
2, 52544, Note_on_c, 1, 37, 26
2, 52584, Note_on_c, 1, 38, 0
2, 52596, Note_on_c, 1, 37, 0
2, 52608, Note_on_c, 1, 45, 60
2, 52864, Note_on_c, 1, 41, 47
2, 52876, Note_on_c, 1, 45, 0
2, 52896, Note_on_c, 1, 41, 0
2, 52928, Note_on_c, 1, 37, 56
2, 52988, Note_on_c, 1, 37, 0
2, 52992, Note_on_c, 1, 38, 62
2, 53504, Note_on_c, 1, 48, 69
2, 53536, Note_on_c, 1, 48, 0
2, 53568, Note_on_c, 1, 45, 47
2, 53608, Note_on_c, 1, 38, 0
2, 53696, Note_on_c, 1, 38, 45
2, 53712, Note_on_c, 1, 45, 0
2, 53744, Note_on_c, 1, 38, 0
2, 53760, Note_on_c, 1, 43, 58
2, 54080, Note_on_c, 1, 38, 47
2, 54112, Note_on_c, 1, 38, 0
2, 54144, Note_on_c, 1, 34, 47
2, 54448, Note_on_c, 1, 34, 0
2, 54464, Note_on_c, 1, 33, 50
2, 54488, Note_on_c, 1, 43, 0
2, 54508, Note_on_c, 1, 33, 0
2, 54528, Note_on_c, 1, 31, 59
2, 54848, Note_on_c, 1, 38, 42
2, 54880, Note_on_c, 1, 38, 0
2, 54912, Note_on_c, 1, 46, 65
2, 55088, Note_on_c, 1, 46, 0
2, 55104, Note_on_c, 1, 42, 62
2, 55228, Note_on_c, 1, 31, 0
2, 55232, Note_on_c, 1, 38, 24
2, 55264, Note_on_c, 1, 38, 0
2, 55284, Note_on_c, 1, 42, 0
2, 55296, Note_on_c, 1, 41, 36
2, 55680, Note_on_c, 1, 38, 44
2, 56000, Note_on_c, 1, 34, 29
2, 56020, Note_on_c, 1, 41, 0
2, 56048, Note_on_c, 1, 34, 0
2, 56056, Note_on_c, 1, 38, 0
2, 56064, Note_on_c, 1, 40, 59
2, 56192, Note_on_c, 1, 35, 53
2, 56232, Note_on_c, 1, 35, 0
2, 56236, Note_on_c, 1, 40, 0
2, 56256, Note_on_c, 1, 34, 42
2, 56360, Note_on_c, 1, 34, 0
2, 56384, Note_on_c, 1, 32, 51
2, 56440, Note_on_c, 1, 32, 0
2, 56448, Note_on_c, 1, 33, 51
2, 56704, Note_on_c, 1, 40, 60
2, 56728, Note_on_c, 1, 33, 0
2, 56736, Note_on_c, 1, 40, 0
2, 56768, Note_on_c, 1, 37, 62
2, 56808, Note_on_c, 1, 37, 0
2, 56832, Note_on_c, 1, 38, 62
2, 57152, Note_on_c, 1, 37, 21
2, 57216, Note_on_c, 1, 38, 0
2, 57216, Note_on_c, 1, 45, 64
2, 57228, Note_on_c, 1, 37, 0
2, 57600, Note_on_c, 1, 53, 57
2, 57612, Note_on_c, 1, 45, 0
2, 58088, Note_on_c, 1, 53, 0
2, 58112, Note_on_c, 1, 50, 60
2, 58152, Note_on_c, 1, 50, 0
2, 58176, Note_on_c, 1, 45, 49
2, 58208, Note_on_c, 1, 45, 0
2, 58304, Note_on_c, 1, 39, 55
2, 58336, Note_on_c, 1, 39, 0
2, 58368, Note_on_c, 1, 38, 43
2, 58464, Note_on_c, 1, 38, 0
2, 58496, Note_on_c, 1, 38, 48
2, 58532, Note_on_c, 1, 38, 0
2, 58560, Note_on_c, 1, 40, 56
2, 58740, Note_on_c, 1, 40, 0
2, 58752, Note_on_c, 1, 42, 59
2, 59136, Note_on_c, 1, 38, 49
2, 59140, Note_on_c, 1, 42, 0
2, 59456, Note_on_c, 1, 34, 27
2, 59492, Note_on_c, 1, 38, 0
2, 59500, Note_on_c, 1, 34, 0
2, 59520, Note_on_c, 1, 50, 77
2, 59648, Note_on_c, 1, 38, 32
2, 59680, Note_on_c, 1, 38, 0
2, 59684, Note_on_c, 1, 50, 0
2, 59712, Note_on_c, 1, 42, 57
2, 59840, Note_on_c, 1, 34, 17
2, 59872, Note_on_c, 1, 34, 0
2, 59900, Note_on_c, 1, 42, 0
2, 59904, Note_on_c, 1, 43, 62
2, 60224, Note_on_c, 1, 38, 47
2, 60256, Note_on_c, 1, 38, 0
2, 60288, Note_on_c, 1, 34, 61
2, 60448, Note_on_c, 1, 43, 0
2, 60520, Note_on_c, 1, 34, 0
2, 60544, Note_on_c, 1, 34, 51
2, 60596, Note_on_c, 1, 34, 0
2, 60608, Note_on_c, 1, 35, 58
2, 60648, Note_on_c, 1, 35, 0
2, 60672, Note_on_c, 1, 36, 63
2, 60800, Note_on_c, 1, 49, 60
2, 61032, Note_on_c, 1, 49, 0
2, 61056, Note_on_c, 1, 48, 66
2, 61100, Note_on_c, 1, 36, 0
2, 61184, Note_on_c, 1, 36, 41
2, 61216, Note_on_c, 1, 36, 0
2, 61248, Note_on_c, 1, 42, 50
2, 61252, Note_on_c, 1, 48, 0
2, 61376, Note_on_c, 1, 34, 28
2, 61408, Note_on_c, 1, 34, 0
2, 61436, Note_on_c, 1, 42, 0
2, 61440, Note_on_c, 1, 41, 62
2, 61816, Note_on_c, 1, 41, 0
2, 61824, Note_on_c, 1, 36, 76
2, 62072, Note_on_c, 1, 36, 0
2, 62080, Note_on_c, 1, 35, 44
2, 62112, Note_on_c, 1, 35, 0
2, 62144, Note_on_c, 1, 34, 52
2, 62176, Note_on_c, 1, 34, 0
2, 62208, Note_on_c, 1, 33, 59
2, 62528, Note_on_c, 1, 45, 85
2, 62564, Note_on_c, 1, 45, 0
2, 62592, Note_on_c, 1, 45, 65
2, 62620, Note_on_c, 1, 33, 0
2, 62720, Note_on_c, 1, 33, 38
2, 62756, Note_on_c, 1, 33, 0
2, 62764, Note_on_c, 1, 45, 0
2, 62784, Note_on_c, 1, 39, 67
2, 62944, Note_on_c, 1, 39, 0
2, 62976, Control_c, 1, 7, 111
2, 62976, Control_c, 1, 1, 0
2, 62976, Note_on_c, 1, 38, 55
2, 63744, Note_on_c, 1, 50, 61
2, 63756, Note_on_c, 1, 38, 0
2, 64064, Note_on_c, 1, 38, 38
2, 64104, Note_on_c, 1, 38, 0
2, 64128, Note_on_c, 1, 49, 62
2, 64144, Note_on_c, 1, 50, 0
2, 64384, Note_on_c, 1, 45, 58
2, 64408, Note_on_c, 1, 49, 0
2, 64416, Note_on_c, 1, 45, 0
2, 64448, Note_on_c, 1, 37, 51
2, 64508, Note_on_c, 1, 37, 0
2, 64512, Note_on_c, 1, 38, 50
2, 64896, Note_on_c, 1, 45, 73
2, 64920, Note_on_c, 1, 38, 0
2, 65216, Note_on_c, 1, 37, 37
2, 65268, Note_on_c, 1, 45, 0
2, 65280, Note_on_c, 1, 38, 39
2, 65284, Note_on_c, 1, 37, 0
2, 65512, Note_on_c, 1, 38, 0
2, 65536, Note_on_c, 1, 47, 77
2, 66040, Note_on_c, 1, 47, 0
2, 66048, Note_on_c, 1, 31, 44
2, 66560, Note_on_c, 1, 38, 26
2, 66592, Note_on_c, 1, 38, 0
2, 66624, Note_on_c, 1, 46, 73
2, 66752, Note_on_c, 1, 38, 41
2, 66784, Note_on_c, 1, 38, 0
2, 66788, Note_on_c, 1, 31, 0
2, 66808, Note_on_c, 1, 46, 0
2, 66816, Note_on_c, 1, 42, 62
2, 67136, Note_on_c, 1, 38, 60
2, 67148, Note_on_c, 1, 42, 0
2, 67168, Note_on_c, 1, 38, 0
2, 67200, Note_on_c, 1, 31, 45
2, 67304, Note_on_c, 1, 31, 0
2, 67328, Note_on_c, 1, 31, 74
2, 67360, Note_on_c, 1, 31, 0
2, 67520, Note_on_c, 1, 30, 46
2, 67584, Note_on_c, 1, 31, 54
2, 67596, Note_on_c, 1, 30, 0
2, 67968, Note_on_c, 1, 41, 71
2, 67992, Note_on_c, 1, 31, 0
2, 68288, Note_on_c, 1, 39, 54
2, 68300, Note_on_c, 1, 41, 0
2, 68352, Note_on_c, 1, 40, 55
2, 68368, Note_on_c, 1, 39, 0
2, 68672, Note_on_c, 1, 34, 46
2, 68720, Note_on_c, 1, 40, 0
2, 68736, Note_on_c, 1, 33, 44
2, 68748, Note_on_c, 1, 34, 0
2, 68928, Note_on_c, 1, 45, 76
2, 68960, Note_on_c, 1, 33, 0
2, 69028, Note_on_c, 1, 45, 0
2, 69056, Note_on_c, 1, 37, 53
2, 69136, Note_on_c, 1, 37, 0
2, 69184, Note_on_c, 1, 38, 48
2, 69440, Note_on_c, 1, 45, 28
2, 69480, Note_on_c, 1, 45, 0
2, 69504, Note_on_c, 1, 55, 75
2, 69688, Note_on_c, 1, 55, 0
2, 69696, Note_on_c, 1, 53, 62
2, 69716, Note_on_c, 1, 38, 0
2, 70016, Note_on_c, 1, 38, 35
2, 70048, Note_on_c, 1, 38, 0
2, 70056, Note_on_c, 1, 53, 0
2, 70080, Note_on_c, 1, 52, 63
2, 70400, Note_on_c, 1, 37, 40
2, 70432, Note_on_c, 1, 37, 0
2, 70452, Note_on_c, 1, 52, 0
2, 70464, Note_on_c, 1, 50, 61
2, 70496, Note_on_c, 1, 50, 0
2, 70528, Note_on_c, 1, 38, 61
2, 70560, Note_on_c, 1, 38, 0
2, 70592, Note_on_c, 1, 37, 60
2, 70632, Note_on_c, 1, 37, 0
2, 70656, Note_on_c, 1, 38, 68
2, 70976, Note_on_c, 1, 45, 33
2, 71008, Note_on_c, 1, 45, 0
2, 71040, Note_on_c, 1, 54, 67
2, 71360, Note_on_c, 1, 37, 23
2, 71380, Note_on_c, 1, 38, 0
2, 71392, Note_on_c, 1, 37, 0
2, 71400, Note_on_c, 1, 54, 0
2, 71424, Note_on_c, 1, 45, 58
2, 71744, Note_on_c, 1, 37, 25
2, 71776, Note_on_c, 1, 37, 0
2, 71800, Note_on_c, 1, 45, 0
2, 71808, Note_on_c, 1, 42, 37
2, 71848, Note_on_c, 1, 42, 0
2, 71936, Note_on_c, 1, 38, 29
2, 71968, Note_on_c, 1, 38, 0
2, 72000, Note_on_c, 1, 32, 46
2, 72188, Note_on_c, 1, 32, 0
2, 72192, Note_on_c, 1, 31, 48
2, 72576, Note_on_c, 1, 34, 46
2, 72596, Note_on_c, 1, 31, 0
2, 72896, Note_on_c, 1, 35, 44
2, 72900, Note_on_c, 1, 34, 0
2, 72960, Note_on_c, 1, 36, 51
2, 72972, Note_on_c, 1, 35, 0
2, 73152, Note_on_c, 1, 48, 66
2, 73172, Note_on_c, 1, 36, 0
2, 73472, Note_on_c, 1, 35, 36
2, 73512, Note_on_c, 1, 48, 0
2, 73516, Note_on_c, 1, 35, 0
2, 73536, Note_on_c, 1, 42, 45
2, 73716, Note_on_c, 1, 42, 0
2, 73728, Note_on_c, 1, 41, 58
2, 74048, Note_on_c, 1, 34, 28
2, 74084, Note_on_c, 1, 34, 0
2, 74112, Note_on_c, 1, 36, 58
2, 74364, Note_on_c, 1, 41, 0
2, 74368, Note_on_c, 1, 36, 0
2, 74368, Note_on_c, 1, 34, 46
2, 74408, Note_on_c, 1, 34, 0
2, 74432, Note_on_c, 1, 33, 30
2, 74464, Note_on_c, 1, 33, 0
2, 74496, Note_on_c, 1, 32, 54
2, 74816, Note_on_c, 1, 36, 47
2, 74848, Note_on_c, 1, 36, 0
2, 74848, Note_on_c, 1, 32, 0
2, 74880, Note_on_c, 1, 48, 78
2, 75008, Note_on_c, 1, 48, 0
2, 75008, Note_on_c, 1, 35, 54
2, 75040, Note_on_c, 1, 35, 0
2, 75072, Note_on_c, 1, 35, 51
2, 75192, Note_on_c, 1, 35, 0
2, 75200, Note_on_c, 1, 36, 64
2, 75244, Note_on_c, 1, 36, 0
2, 75264, Note_on_c, 1, 37, 58
2, 75456, Note_on_c, 1, 41, 57
2, 75472, Note_on_c, 1, 37, 0
2, 75584, Note_on_c, 1, 37, 32
2, 75616, Note_on_c, 1, 37, 0
2, 75624, Note_on_c, 1, 41, 0
2, 75648, Note_on_c, 1, 49, 49
2, 75776, Note_on_c, 1, 37, 23
2, 75816, Note_on_c, 1, 37, 0
2, 75816, Note_on_c, 1, 49, 0
2, 75840, Note_on_c, 1, 48, 43
2, 75968, Note_on_c, 1, 37, 25
2, 76000, Note_on_c, 1, 37, 0
2, 76028, Note_on_c, 1, 48, 0
2, 76032, Note_on_c, 1, 46, 33
2, 76224, Note_on_c, 1, 41, 50
2, 76232, Note_on_c, 1, 46, 0
2, 76352, Note_on_c, 1, 34, 23
2, 76400, Note_on_c, 1, 34, 0
2, 76416, Note_on_c, 1, 37, 49
2, 76556, Note_on_c, 1, 41, 0
2, 76608, Note_on_c, 1, 40, 71
2, 76620, Note_on_c, 1, 37, 0
2, 76736, Note_on_c, 1, 34, 35
2, 76772, Note_on_c, 1, 34, 0
2, 76780, Note_on_c, 1, 40, 0
2, 76800, Note_on_c, 1, 39, 51
2, 76992, Note_on_c, 1, 39, 0
2, 76992, Note_on_c, 1, 34, 48
2, 77176, Note_on_c, 1, 34, 0
2, 77184, Note_on_c, 1, 30, 46
2, 77376, Note_on_c, 1, 31, 60
2, 77384, Note_on_c, 1, 30, 0
2, 77568, Note_on_c, 1, 32, 57
2, 77572, Note_on_c, 1, 31, 0
2, 77652, Note_on_c, 1, 32, 0
2, 77696, Note_on_c, 1, 32, 46
2, 77740, Note_on_c, 1, 32, 0
2, 77760, Note_on_c, 1, 34, 33
2, 77952, Note_on_c, 1, 36, 51
2, 77956, Note_on_c, 1, 34, 0
2, 78080, Note_on_c, 1, 34, 32
2, 78112, Note_on_c, 1, 34, 0
2, 78128, Note_on_c, 1, 36, 0
2, 78144, Note_on_c, 1, 38, 43
2, 78272, Note_on_c, 1, 35, 41
2, 78304, Note_on_c, 1, 35, 0
2, 78320, Note_on_c, 1, 38, 0
2, 78336, Note_on_c, 1, 37, 56
2, 78524, Note_on_c, 1, 37, 0
2, 78528, Note_on_c, 1, 41, 52
2, 78708, Note_on_c, 1, 41, 0
2, 78720, Note_on_c, 1, 44, 54
2, 78848, Note_on_c, 1, 36, 27
2, 78880, Note_on_c, 1, 36, 0
2, 78880, Note_on_c, 1, 44, 0
2, 78912, Note_on_c, 1, 45, 42
2, 79080, Note_on_c, 1, 45, 0
2, 79104, Note_on_c, 1, 46, 49
2, 79232, Note_on_c, 1, 37, 57
2, 79240, Note_on_c, 1, 46, 0
2, 79284, Note_on_c, 1, 37, 0
2, 79296, Note_on_c, 1, 38, 47
2, 79424, Note_on_c, 1, 37, 32
2, 79456, Note_on_c, 1, 37, 0
2, 79476, Note_on_c, 1, 38, 0
2, 79488, Note_on_c, 1, 50, 66
2, 79668, Note_on_c, 1, 50, 0
2, 79680, Note_on_c, 1, 46, 47
2, 79808, Note_on_c, 1, 38, 36
2, 79840, Note_on_c, 1, 38, 0
2, 79852, Note_on_c, 1, 46, 0
2, 79872, Note_on_c, 1, 39, 49
2, 80064, Note_on_c, 1, 51, 73
2, 80088, Note_on_c, 1, 39, 0
2, 80192, Note_on_c, 1, 39, 35
2, 80232, Note_on_c, 1, 39, 0
2, 80236, Note_on_c, 1, 51, 0
2, 80256, Note_on_c, 1, 46, 55
2, 80384, Note_on_c, 1, 39, 31
2, 80416, Note_on_c, 1, 39, 0
2, 80424, Note_on_c, 1, 46, 0
2, 80448, Note_on_c, 1, 44, 61
2, 80616, Note_on_c, 1, 44, 0
2, 80640, Note_on_c, 1, 44, 64
2, 80812, Note_on_c, 1, 44, 0
2, 80832, Note_on_c, 1, 43, 51
2, 80988, Note_on_c, 1, 43, 0
2, 81024, Note_on_c, 1, 44, 53
2, 81152, Note_on_c, 1, 33, 45
2, 81184, Note_on_c, 1, 33, 0
2, 81216, Note_on_c, 1, 38, 56
2, 81344, Note_on_c, 1, 44, 0
2, 81344, Note_on_c, 1, 34, 29
2, 81352, Note_on_c, 1, 38, 0
2, 81388, Note_on_c, 1, 34, 0
2, 81408, Note_on_c, 1, 37, 58
2, 81600, Note_on_c, 1, 44, 57
2, 81636, Note_on_c, 1, 37, 0
2, 81728, Note_on_c, 1, 37, 39
2, 81772, Note_on_c, 1, 44, 0
2, 81780, Note_on_c, 1, 37, 0
2, 81792, Note_on_c, 1, 53, 54
2, 81952, Note_on_c, 1, 53, 0
2, 81984, Note_on_c, 1, 51, 51
2, 82160, Note_on_c, 1, 51, 0
2, 82176, Note_on_c, 1, 49, 50
2, 82352, Note_on_c, 1, 49, 0
2, 82368, Note_on_c, 1, 44, 48
2, 82556, Note_on_c, 1, 44, 0
2, 82560, Note_on_c, 1, 41, 49
2, 82752, Note_on_c, 1, 37, 52
2, 82760, Note_on_c, 1, 41, 0
2, 82936, Note_on_c, 1, 37, 0
2, 82944, Note_on_c, 1, 39, 46
2, 83136, Note_on_c, 1, 42, 68
2, 83164, Note_on_c, 1, 39, 0
2, 83264, Note_on_c, 1, 39, 36
2, 83284, Note_on_c, 1, 42, 0
2, 83296, Note_on_c, 1, 39, 0
2, 83328, Note_on_c, 1, 46, 57
2, 83512, Note_on_c, 1, 46, 0
2, 83520, Note_on_c, 1, 42, 55
2, 83552, Note_on_c, 1, 42, 0
2, 83584, Note_on_c, 1, 34, 44
2, 83616, Note_on_c, 1, 34, 0
2, 83648, Note_on_c, 1, 33, 64
2, 83680, Note_on_c, 1, 33, 0
2, 83712, Note_on_c, 1, 32, 59
2, 83904, Note_on_c, 1, 39, 57
2, 83920, Note_on_c, 1, 32, 0
2, 84032, Note_on_c, 1, 32, 43
2, 84036, Note_on_c, 1, 39, 0
2, 84096, Note_on_c, 1, 50, 52
2, 84104, Note_on_c, 1, 32, 0
2, 84188, Note_on_c, 1, 50, 0
2, 84224, Note_on_c, 1, 32, 37
2, 84264, Note_on_c, 1, 32, 0
2, 84288, Note_on_c, 1, 39, 56
2, 84416, Note_on_c, 1, 32, 39
2, 84444, Note_on_c, 1, 39, 0
2, 84448, Note_on_c, 1, 32, 0
2, 84480, Note_on_c, 1, 43, 58
2, 84800, Note_on_c, 1, 38, 40
2, 84832, Note_on_c, 1, 38, 0
2, 84864, Note_on_c, 1, 31, 63
2, 85208, Note_on_c, 1, 43, 0
2, 85248, Note_on_c, 1, 46, 60
2, 85436, Note_on_c, 1, 46, 0
2, 85440, Note_on_c, 1, 43, 48
2, 85756, Note_on_c, 1, 31, 0
2, 85760, Note_on_c, 1, 38, 35
2, 85792, Note_on_c, 1, 38, 0
2, 85824, Note_on_c, 1, 34, 33
2, 85916, Note_on_c, 1, 43, 0
2, 85940, Note_on_c, 1, 34, 0
2, 85952, Note_on_c, 1, 35, 51
2, 85996, Note_on_c, 1, 35, 0
2, 86016, Note_on_c, 1, 36, 57
2, 86336, Note_on_c, 1, 34, 19
2, 86372, Note_on_c, 1, 34, 0
2, 86376, Note_on_c, 1, 36, 0
2, 86400, Note_on_c, 1, 38, 52
2, 86568, Note_on_c, 1, 38, 0
2, 86592, Note_on_c, 1, 39, 57
2, 86720, Note_on_c, 1, 34, 25
2, 86752, Note_on_c, 1, 34, 0
2, 86764, Note_on_c, 1, 39, 0
2, 86784, Note_on_c, 1, 40, 43
2, 86976, Note_on_c, 1, 48, 65
2, 86996, Note_on_c, 1, 40, 0
2, 87036, Note_on_c, 1, 48, 0
2, 87104, Note_on_c, 1, 46, 59
2, 87148, Note_on_c, 1, 46, 0
2, 87168, Note_on_c, 1, 45, 46
2, 87216, Note_on_c, 1, 45, 0
2, 87296, Note_on_c, 1, 40, 55
2, 87328, Note_on_c, 1, 40, 0
2, 87360, Note_on_c, 1, 37, 49
2, 87540, Note_on_c, 1, 37, 0
2, 87552, Note_on_c, 1, 38, 54
2, 87680, Note_on_c, 1, 37, 30
2, 87724, Note_on_c, 1, 37, 0
2, 87736, Note_on_c, 1, 38, 0
2, 87744, Note_on_c, 1, 50, 81
2, 88064, Note_on_c, 1, 38, 44
2, 88096, Note_on_c, 1, 38, 0
2, 88128, Note_on_c, 1, 45, 60
2, 88256, Note_on_c, 1, 38, 33
2, 88260, Note_on_c, 1, 45, 0
2, 88288, Note_on_c, 1, 38, 0
2, 88448, Note_on_c, 1, 38, 64
2, 88492, Note_on_c, 1, 50, 0
2, 88832, Note_on_c, 1, 37, 33
2, 88884, Note_on_c, 1, 37, 0
2, 88896, Note_on_c, 1, 49, 71
2, 88912, Note_on_c, 1, 38, 0
2, 89024, Note_on_c, 1, 37, 36
2, 89060, Note_on_c, 1, 49, 0
2, 89072, Note_on_c, 1, 37, 0
2, 89088, Note_on_c, 1, 38, 58
2, 89268, Note_on_c, 1, 38, 0
2, 89280, Note_on_c, 1, 45, 71
2, 89600, Note_on_c, 1, 41, 57
2, 89604, Note_on_c, 1, 45, 0
2, 89632, Note_on_c, 1, 41, 0
2, 89664, Note_on_c, 1, 37, 50
2, 89852, Note_on_c, 1, 37, 0
2, 89856, Note_on_c, 1, 38, 59
2, 90240, Note_on_c, 1, 33, 56
2, 90244, Note_on_c, 1, 38, 0
2, 90412, Note_on_c, 1, 33, 0
2, 90432, Note_on_c, 1, 32, 44
2, 90620, Note_on_c, 1, 32, 0
2, 90624, Note_on_c, 1, 31, 48
2, 90944, Note_on_c, 1, 38, 36
2, 90976, Note_on_c, 1, 38, 0
2, 91008, Note_on_c, 1, 46, 48
2, 91136, Note_on_c, 1, 38, 31
2, 91168, Note_on_c, 1, 38, 0
2, 91180, Note_on_c, 1, 46, 0
2, 91200, Note_on_c, 1, 45, 38
2, 91368, Note_on_c, 1, 45, 0
2, 91392, Note_on_c, 1, 43, 50
2, 91544, Note_on_c, 1, 31, 0
2, 91576, Note_on_c, 1, 43, 0
2, 91584, Note_on_c, 1, 42, 52
2, 92032, Note_on_c, 1, 42, 0
2, 92032, Note_on_c, 1, 38, 57
2, 92064, Note_on_c, 1, 38, 0
2, 92096, Note_on_c, 1, 30, 56
2, 92128, Note_on_c, 1, 30, 0
2, 92160, Note_on_c, 1, 31, 71
2, 92532, Note_on_c, 1, 31, 0
2, 92544, Note_on_c, 1, 38, 56
2, 92864, Note_on_c, 1, 30, 48
2, 92896, Note_on_c, 1, 30, 0
2, 92928, Note_on_c, 1, 31, 50
2, 92932, Note_on_c, 1, 38, 0
2, 93116, Note_on_c, 1, 31, 0
2, 93120, Note_on_c, 1, 34, 53
2, 93248, Note_on_c, 1, 34, 0
2, 93248, Note_on_c, 1, 32, 50
2, 93296, Note_on_c, 1, 32, 0
2, 93312, Note_on_c, 1, 33, 46
2, 93440, Note_on_c, 1, 32, 42
2, 93472, Note_on_c, 1, 32, 0
2, 93476, Note_on_c, 1, 33, 0
2, 93504, Note_on_c, 1, 40, 51
2, 93624, Note_on_c, 1, 40, 0
2, 93632, Note_on_c, 1, 37, 37
2, 93676, Note_on_c, 1, 37, 0
2, 93696, Note_on_c, 1, 38, 49
2, 94016, Note_on_c, 1, 45, 41
2, 94048, Note_on_c, 1, 45, 0
2, 94072, Note_on_c, 1, 38, 0
2, 94080, Note_on_c, 1, 53, 75
2, 94164, Note_on_c, 1, 53, 0
2, 94208, Note_on_c, 1, 53, 74
2, 94240, Note_on_c, 1, 53, 0
2, 94272, Note_on_c, 1, 52, 53
2, 94452, Note_on_c, 1, 52, 0
2, 94464, Note_on_c, 1, 50, 62
2, 94636, Note_on_c, 1, 50, 0
2, 94656, Note_on_c, 1, 45, 55
2, 94796, Note_on_c, 1, 45, 0
2, 94848, Note_on_c, 1, 41, 37
2, 94976, Note_on_c, 1, 41, 0
2, 94976, Note_on_c, 1, 38, 62
2, 95008, Note_on_c, 1, 38, 0
2, 95040, Note_on_c, 1, 37, 35
2, 95168, Note_on_c, 1, 34, 20
2, 95200, Note_on_c, 1, 37, 0
2, 95208, Note_on_c, 1, 34, 0
2, 95232, Note_on_c, 1, 38, 44
2, 95424, Note_on_c, 1, 45, 62
2, 95568, Note_on_c, 1, 38, 0
2, 95584, Note_on_c, 1, 45, 0
2, 95616, Note_on_c, 1, 54, 71
2, 95776, Note_on_c, 1, 54, 0
2, 95808, Note_on_c, 1, 52, 63
2, 95936, Note_on_c, 1, 37, 26
2, 95968, Note_on_c, 1, 37, 0
2, 95972, Note_on_c, 1, 52, 0
2, 96000, Note_on_c, 1, 45, 55
2, 96176, Note_on_c, 1, 45, 0
2, 96192, Note_on_c, 1, 42, 52
2, 96320, Note_on_c, 1, 34, 37
2, 96352, Note_on_c, 1, 34, 0
2, 96380, Note_on_c, 1, 42, 0
2, 96384, Note_on_c, 1, 38, 54
2, 96480, Note_on_c, 1, 38, 0
2, 96512, Note_on_c, 1, 33, 54
2, 96544, Note_on_c, 1, 33, 0
2, 96576, Note_on_c, 1, 32, 55
2, 96732, Note_on_c, 1, 32, 0
2, 96768, Note_on_c, 1, 31, 52
2, 97100, Note_on_c, 1, 31, 0
2, 97152, Note_on_c, 1, 38, 55
2, 97276, Note_on_c, 1, 38, 0
2, 97280, Note_on_c, 1, 34, 39
2, 97312, Note_on_c, 1, 34, 0
2, 97344, Note_on_c, 1, 35, 53
2, 97472, Note_on_c, 1, 34, 21
2, 97496, Note_on_c, 1, 35, 0
2, 97508, Note_on_c, 1, 34, 0
2, 97536, Note_on_c, 1, 36, 52
2, 97716, Note_on_c, 1, 36, 0
2, 97728, Note_on_c, 1, 40, 55
2, 97884, Note_on_c, 1, 40, 0
2, 97920, Note_on_c, 1, 48, 64
2, 98048, Note_on_c, 1, 36, 40
2, 98080, Note_on_c, 1, 36, 0
2, 98112, Note_on_c, 1, 40, 40
2, 98244, Note_on_c, 1, 48, 0
2, 98280, Note_on_c, 1, 40, 0
2, 98304, Note_on_c, 1, 48, 76
2, 98472, Note_on_c, 1, 48, 0
2, 98496, Note_on_c, 1, 36, 84
2, 98816, Note_on_c, 1, 34, 25
2, 98848, Note_on_c, 1, 36, 0
2, 98856, Note_on_c, 1, 34, 0
2, 98880, Note_on_c, 1, 48, 92
2, 99264, Note_on_c, 1, 36, 60
2, 99324, Note_on_c, 1, 36, 0
2, 99392, Note_on_c, 1, 36, 45
2, 99424, Note_on_c, 1, 36, 0
2, 99432, Note_on_c, 1, 48, 0
2, 99456, Note_on_c, 1, 37, 53
2, 99700, Note_on_c, 1, 37, 0
2, 99712, Note_on_c, 1, 52, 58
2, 99744, Note_on_c, 1, 52, 0
2, 99776, Note_on_c, 1, 37, 50
2, 99808, Note_on_c, 1, 37, 0
2, 99840, Note_on_c, 1, 50, 73
2, 99968, Note_on_c, 1, 38, 32
2, 99996, Note_on_c, 1, 50, 0
2, 100000, Note_on_c, 1, 38, 0
2, 100032, Note_on_c, 1, 45, 26
2, 100032, Note_on_c, 1, 47, 25
2, 100064, Note_on_c, 1, 47, 0
2, 100224, Note_on_c, 1, 45, 0
2, 100224, Note_on_c, 1, 41, 48
2, 100416, Note_on_c, 1, 38, 50
2, 100528, Note_on_c, 1, 41, 0
2, 100544, Note_on_c, 1, 34, 32
2, 100592, Note_on_c, 1, 34, 0
2, 100592, Note_on_c, 1, 38, 0
2, 100608, Note_on_c, 1, 49, 72
2, 100864, Note_on_c, 1, 49, 0
2, 100864, Note_on_c, 1, 45, 62
2, 100896, Note_on_c, 1, 45, 0
2, 100928, Note_on_c, 1, 41, 62
2, 100960, Note_on_c, 1, 41, 0
2, 100992, Note_on_c, 1, 38, 60
2, 101184, Note_on_c, 1, 41, 24
2, 101216, Note_on_c, 1, 41, 0
2, 101304, Note_on_c, 1, 38, 0
2, 101312, Note_on_c, 1, 37, 45
2, 101348, Note_on_c, 1, 37, 0
2, 101376, Note_on_c, 1, 38, 51
2, 101504, Note_on_c, 1, 48, 88
2, 101592, Note_on_c, 1, 38, 0
2, 101628, Note_on_c, 1, 48, 0
2, 101632, Note_on_c, 1, 45, 50
2, 101664, Note_on_c, 1, 45, 0
2, 101696, Note_on_c, 1, 38, 60
2, 101748, Note_on_c, 1, 38, 0
2, 101760, Note_on_c, 1, 41, 63
2, 101948, Note_on_c, 1, 41, 0
2, 101952, Note_on_c, 1, 38, 45
2, 102072, Note_on_c, 1, 38, 0
2, 102144, Note_on_c, 1, 47, 68
2, 102436, Note_on_c, 1, 47, 0
2, 102464, Note_on_c, 1, 45, 48
2, 102500, Note_on_c, 1, 45, 0
2, 102528, Note_on_c, 1, 41, 52
2, 102576, Note_on_c, 1, 41, 0
2, 102656, Note_on_c, 1, 38, 54
2, 102688, Note_on_c, 1, 38, 0
2, 102720, Note_on_c, 1, 33, 58
2, 102752, Note_on_c, 1, 33, 0
2, 102848, Note_on_c, 1, 32, 55
2, 102884, Note_on_c, 1, 32, 0
2, 102912, Note_on_c, 1, 31, 46
2, 103104, Note_on_c, 1, 38, 24
2, 103176, Note_on_c, 1, 38, 0
2, 103232, Note_on_c, 1, 38, 31
2, 103264, Note_on_c, 1, 38, 0
2, 103296, Note_on_c, 1, 45, 51
2, 103424, Note_on_c, 1, 38, 36
2, 103456, Note_on_c, 1, 38, 0
2, 103456, Note_on_c, 1, 45, 0
2, 103488, Note_on_c, 1, 42, 34
2, 103584, Note_on_c, 1, 42, 0
2, 103616, Note_on_c, 1, 43, 68
2, 103652, Note_on_c, 1, 43, 0
2, 103680, Note_on_c, 1, 42, 21
2, 103696, Note_on_c, 1, 31, 0
2, 103860, Note_on_c, 1, 42, 0
2, 103872, Note_on_c, 1, 38, 50
2, 104044, Note_on_c, 1, 38, 0
2, 104064, Note_on_c, 1, 31, 56
2, 104192, Note_on_c, 1, 38, 36
2, 104224, Note_on_c, 1, 38, 0
2, 104256, Note_on_c, 1, 42, 63
2, 104264, Note_on_c, 1, 31, 0
2, 104384, Note_on_c, 1, 31, 35
2, 104408, Note_on_c, 1, 42, 0
2, 104416, Note_on_c, 1, 31, 0
2, 104448, Note_on_c, 1, 41, 37
2, 104636, Note_on_c, 1, 41, 0
2, 104640, Note_on_c, 1, 38, 42
2, 104832, Note_on_c, 1, 31, 45
2, 104844, Note_on_c, 1, 38, 0
2, 104960, Note_on_c, 1, 38, 35
2, 104992, Note_on_c, 1, 38, 0
2, 105024, Note_on_c, 1, 31, 0
2, 105024, Note_on_c, 1, 41, 75
2, 105184, Note_on_c, 1, 41, 0
2, 105216, Note_on_c, 1, 40, 74
2, 105264, Pitch_bend_c, 1, 8192
2, 105268, Pitch_bend_c, 1, 8192
2, 105268, Pitch_bend_c, 1, 8712
2, 105272, Pitch_bend_c, 1, 9102
2, 105272, Pitch_bend_c, 1, 9362
2, 105276, Pitch_bend_c, 1, 9752
2, 105276, Pitch_bend_c, 1, 10142
2, 105280, Pitch_bend_c, 1, 10532
2, 105284, Pitch_bend_c, 1, 10922
2, 105284, Pitch_bend_c, 1, 11442
2, 105288, Pitch_bend_c, 1, 11702
2, 105288, Pitch_bend_c, 1, 12092
2, 105292, Pitch_bend_c, 1, 12222
2, 105292, Pitch_bend_c, 1, 12482
2, 105300, Pitch_bend_c, 1, 12612
2, 105304, Pitch_bend_c, 1, 12352
2, 105308, Pitch_bend_c, 1, 12222
2, 105308, Pitch_bend_c, 1, 11962
2, 105312, Pitch_bend_c, 1, 11572
2, 105312, Pitch_bend_c, 1, 11052
2, 105316, Pitch_bend_c, 1, 10532
2, 105320, Pitch_bend_c, 1, 9882
2, 105320, Pitch_bend_c, 1, 9362
2, 105324, Pitch_bend_c, 1, 8712
2, 105324, Pitch_bend_c, 1, 8192
2, 105376, Pitch_bend_c, 1, 8192
2, 105380, Pitch_bend_c, 1, 8712
2, 105380, Pitch_bend_c, 1, 9232
2, 105384, Pitch_bend_c, 1, 9492
2, 105384, Pitch_bend_c, 1, 9882
2, 105388, Pitch_bend_c, 1, 10142
2, 105392, Pitch_bend_c, 1, 10272
2, 105392, Pitch_bend_c, 1, 10402
2, 105396, Pitch_bend_c, 1, 10532
2, 105396, Pitch_bend_c, 1, 10662
2, 105404, Pitch_bend_c, 1, 10792
2, 105408, Pitch_bend_c, 1, 10922
2, 105412, Pitch_bend_c, 1, 11312
2, 105412, Pitch_bend_c, 1, 11572
2, 105416, Pitch_bend_c, 1, 11832
2, 105416, Pitch_bend_c, 1, 12092
2, 105420, Pitch_bend_c, 1, 12352
2, 105424, Pitch_bend_c, 1, 12742
2, 105424, Pitch_bend_c, 1, 13002
2, 105428, Pitch_bend_c, 1, 13132
2, 105428, Pitch_bend_c, 1, 13392
2, 105432, Pitch_bend_c, 1, 13522
2, 105436, Pitch_bend_c, 1, 13132
2, 105440, Pitch_bend_c, 1, 12482
2, 105440, Pitch_bend_c, 1, 11702
2, 105444, Pitch_bend_c, 1, 10532
2, 105444, Pitch_bend_c, 1, 9232
2, 105448, Pitch_bend_c, 1, 8192
2, 105600, Note_on_c, 1, 34, 51
2, 105624, Note_on_c, 1, 40, 0
2, 105632, Note_on_c, 1, 34, 0
2, 105664, Note_on_c, 1, 33, 47
2, 105792, Note_on_c, 1, 32, 25
2, 105792, Note_on_c, 1, 45, 62
2, 105796, Note_on_c, 1, 33, 0
2, 105824, Note_on_c, 1, 32, 0
2, 105920, Note_on_c, 1, 37, 29
2, 105980, Note_on_c, 1, 45, 0
2, 105984, Note_on_c, 1, 38, 57
2, 105992, Note_on_c, 1, 37, 0
2, 106368, Note_on_c, 1, 53, 64
2, 106496, Note_on_c, 1, 37, 21
2, 106532, Note_on_c, 1, 53, 0
2, 106532, Note_on_c, 1, 38, 0
2, 106560, Note_on_c, 1, 37, 0
2, 106560, Note_on_c, 1, 52, 53
2, 106728, Note_on_c, 1, 52, 0
2, 106752, Note_on_c, 1, 50, 53
2, 107072, Note_on_c, 1, 37, 25
2, 107092, Note_on_c, 1, 50, 0
2, 107104, Note_on_c, 1, 37, 0
2, 107136, Note_on_c, 1, 45, 60
2, 107168, Note_on_c, 1, 45, 0
2, 107264, Note_on_c, 1, 38, 60
2, 107296, Note_on_c, 1, 38, 0
2, 107328, Note_on_c, 1, 36, 36
2, 107360, Note_on_c, 1, 36, 0
2, 107456, Note_on_c, 1, 37, 51
2, 107500, Note_on_c, 1, 37, 0
2, 107520, Note_on_c, 1, 38, 50
2, 107648, Note_on_c, 1, 37, 23
2, 107680, Note_on_c, 1, 37, 0
2, 107680, Note_on_c, 1, 38, 0
2, 107712, Note_on_c, 1, 45, 49
2, 107840, Note_on_c, 1, 37, 21
2, 107872, Note_on_c, 1, 37, 0
2, 107872, Note_on_c, 1, 45, 0
2, 107904, Note_on_c, 1, 54, 63
2, 108068, Note_on_c, 1, 54, 0
2, 108096, Note_on_c, 1, 52, 58
2, 108264, Note_on_c, 1, 52, 0
2, 108288, Note_on_c, 1, 50, 57
2, 108452, Note_on_c, 1, 50, 0
2, 108480, Note_on_c, 1, 48, 57
2, 108608, Note_on_c, 1, 36, 33
2, 108640, Note_on_c, 1, 36, 0
2, 108664, Note_on_c, 1, 48, 0
2, 108672, Note_on_c, 1, 44, 57
2, 108800, Note_on_c, 1, 34, 42
2, 108832, Note_on_c, 1, 34, 0
2, 108832, Note_on_c, 1, 44, 0
2, 108864, Note_on_c, 1, 48, 60
2, 108992, Note_on_c, 1, 42, 42
2, 109012, Note_on_c, 1, 48, 0
2, 109028, Note_on_c, 1, 42, 0
2, 109056, Note_on_c, 1, 43, 57
2, 109088, Note_on_c, 1, 43, 0
2, 109120, Note_on_c, 1, 38, 57
2, 109152, Note_on_c, 1, 38, 0
2, 109184, Note_on_c, 1, 34, 38
2, 109244, Note_on_c, 1, 34, 0
2, 109248, Note_on_c, 1, 33, 65
2, 109416, Note_on_c, 1, 33, 0
2, 109440, Note_on_c, 1, 31, 39
2, 109568, Note_on_c, 1, 36, 24
2, 109600, Note_on_c, 1, 36, 0
2, 109632, Note_on_c, 1, 48, 72
2, 109768, Note_on_c, 1, 31, 0
2, 109804, Note_on_c, 1, 48, 0
2, 109824, Note_on_c, 1, 42, 49
2, 109952, Note_on_c, 1, 42, 0
2, 109952, Note_on_c, 1, 37, 40
2, 109984, Note_on_c, 1, 37, 0
2, 110016, Note_on_c, 1, 30, 53
2, 110336, Note_on_c, 1, 37, 37
2, 110368, Note_on_c, 1, 37, 0
2, 110400, Note_on_c, 1, 42, 56
2, 110416, Note_on_c, 1, 30, 0
2, 110528, Note_on_c, 1, 37, 37
2, 110560, Note_on_c, 1, 37, 0
2, 110564, Note_on_c, 1, 42, 0
2, 110592, Note_on_c, 1, 41, 60
2, 110972, Note_on_c, 1, 41, 0
2, 110976, Note_on_c, 1, 36, 65
2, 111348, Note_on_c, 1, 36, 0
2, 111360, Note_on_c, 1, 33, 60
2, 111736, Note_on_c, 1, 33, 0
2, 111744, Note_on_c, 1, 37, 50
2, 111776, Note_on_c, 1, 37, 0
2, 111872, Note_on_c, 1, 36, 61
2, 111912, Note_on_c, 1, 36, 0
2, 111936, Note_on_c, 1, 40, 50
2, 111968, Note_on_c, 1, 40, 0
2, 112064, Note_on_c, 1, 37, 53
2, 112104, Note_on_c, 1, 37, 0
2, 112128, Note_on_c, 1, 38, 44
2, 112256, Note_on_c, 1, 40, 57
2, 112288, Note_on_c, 1, 40, 0
2, 112320, Note_on_c, 1, 41, 53
2, 112432, Note_on_c, 1, 38, 0
2, 112500, Note_on_c, 1, 41, 0
2, 112512, Note_on_c, 1, 38, 20
2, 112676, Note_on_c, 1, 38, 0
2, 112704, Note_on_c, 1, 38, 56
2, 112832, Note_on_c, 1, 34, 35
2, 112844, Note_on_c, 1, 38, 0
2, 112864, Note_on_c, 1, 34, 0
2, 112896, Note_on_c, 1, 38, 71
2, 113080, Note_on_c, 1, 38, 0
2, 113088, Note_on_c, 1, 41, 43
2, 113216, Note_on_c, 1, 38, 22
2, 113248, Note_on_c, 1, 38, 0
2, 113252, Note_on_c, 1, 41, 0
2, 113280, Note_on_c, 1, 49, 50
2, 113472, Note_on_c, 1, 41, 49
2, 113568, Note_on_c, 1, 49, 0
2, 113596, Note_on_c, 1, 41, 0
2, 113600, Note_on_c, 1, 37, 44
2, 113632, Note_on_c, 1, 37, 0
2, 113664, Note_on_c, 1, 38, 50
2, 113792, Note_on_c, 1, 37, 28
2, 113812, Note_on_c, 1, 38, 0
2, 113824, Note_on_c, 1, 37, 0
2, 113856, Note_on_c, 1, 41, 60
2, 113996, Note_on_c, 1, 41, 0
2, 114048, Note_on_c, 1, 48, 59
2, 114276, Note_on_c, 1, 48, 0
2, 114304, Note_on_c, 1, 45, 58
2, 114336, Note_on_c, 1, 45, 0
2, 114368, Note_on_c, 1, 37, 48
2, 114400, Note_on_c, 1, 37, 0
2, 114432, Note_on_c, 1, 38, 57
2, 114560, Note_on_c, 1, 37, 20
2, 114592, Note_on_c, 1, 37, 0
2, 114612, Note_on_c, 1, 38, 0
2, 114624, Note_on_c, 1, 41, 56
2, 114768, Note_on_c, 1, 41, 0
2, 114816, Note_on_c, 1, 47, 57
2, 114944, Note_on_c, 1, 38, 48
2, 114960, Note_on_c, 1, 47, 0
2, 114976, Note_on_c, 1, 38, 0
2, 115008, Note_on_c, 1, 33, 39
2, 115044, Note_on_c, 1, 33, 0
2, 115136, Note_on_c, 1, 32, 46
2, 115168, Note_on_c, 1, 32, 0
2, 115200, Note_on_c, 1, 31, 55
2, 115456, Note_on_c, 1, 38, 48
2, 115488, Note_on_c, 1, 38, 0
2, 115520, Note_on_c, 1, 38, 32
2, 115552, Note_on_c, 1, 38, 0
2, 115584, Note_on_c, 1, 46, 75
2, 115776, Note_on_c, 1, 43, 49
2, 115784, Note_on_c, 1, 46, 0
2, 115808, Note_on_c, 1, 43, 0
2, 115840, Note_on_c, 1, 38, 51
2, 115844, Note_on_c, 1, 31, 0
2, 115872, Note_on_c, 1, 38, 0
2, 115904, Note_on_c, 1, 31, 81
2, 115968, Note_on_c, 1, 31, 58
2, 115976, Note_on_c, 1, 31, 0
2, 116288, Note_on_c, 1, 38, 27
2, 116320, Note_on_c, 1, 38, 0
2, 116480, Note_on_c, 1, 38, 41
2, 116512, Note_on_c, 1, 38, 0
2, 116544, Note_on_c, 1, 42, 76
2, 116672, Note_on_c, 1, 31, 0
2, 116672, Note_on_c, 1, 38, 57
2, 116712, Note_on_c, 1, 42, 0
2, 116720, Note_on_c, 1, 38, 0
2, 116736, Note_on_c, 1, 31, 71
2, 117120, Note_on_c, 1, 43, 58
2, 117228, Note_on_c, 1, 31, 0
2, 117248, Note_on_c, 1, 38, 45
2, 117280, Note_on_c, 1, 38, 0
2, 117312, Note_on_c, 1, 34, 45
2, 117468, Note_on_c, 1, 43, 0
2, 117476, Note_on_c, 1, 34, 0
2, 117504, Note_on_c, 1, 33, 44
2, 117756, Note_on_c, 1, 33, 0
2, 117760, Note_on_c, 1, 38, 46
2, 117792, Note_on_c, 1, 38, 0
2, 117824, Note_on_c, 1, 33, 51
2, 117856, Note_on_c, 1, 33, 0
2, 117888, Note_on_c, 1, 37, 62
2, 118076, Note_on_c, 1, 37, 0
2, 118080, Note_on_c, 1, 40, 59
2, 118112, Note_on_c, 1, 40, 0
2, 118144, Note_on_c, 1, 37, 46
2, 118176, Note_on_c, 1, 37, 0
2, 118208, Note_on_c, 1, 37, 62
2, 118248, Note_on_c, 1, 37, 0
2, 118272, Note_on_c, 1, 38, 54
2, 118400, Note_on_c, 1, 37, 19
2, 118448, Note_on_c, 1, 37, 0
2, 118464, Note_on_c, 1, 45, 37
2, 118592, Note_on_c, 1, 37, 26
2, 118632, Note_on_c, 1, 38, 0
2, 118640, Note_on_c, 1, 45, 0
2, 118644, Note_on_c, 1, 37, 0
2, 118656, Note_on_c, 1, 53, 55
2, 118976, Note_on_c, 1, 52, 62
2, 118980, Note_on_c, 1, 53, 0
2, 119020, Note_on_c, 1, 52, 0
2, 119040, Note_on_c, 1, 50, 46
2, 119160, Note_on_c, 1, 50, 0
2, 119168, Note_on_c, 1, 45, 61
2, 119212, Note_on_c, 1, 45, 0
2, 119232, Note_on_c, 1, 41, 54
2, 119360, Note_on_c, 1, 34, 37
2, 119392, Note_on_c, 1, 34, 0
2, 119396, Note_on_c, 1, 41, 0
2, 119424, Note_on_c, 1, 38, 49
2, 119552, Note_on_c, 1, 33, 35
2, 119584, Note_on_c, 1, 33, 0
2, 119584, Note_on_c, 1, 38, 0
2, 119616, Note_on_c, 1, 37, 31
2, 119776, Note_on_c, 1, 37, 0
2, 119808, Note_on_c, 1, 38, 49
2, 119956, Note_on_c, 1, 38, 0
2, 120000, Note_on_c, 1, 38, 24
2, 120000, Note_on_c, 1, 42, 52
2, 120072, Note_on_c, 1, 42, 0
2, 120168, Note_on_c, 1, 38, 0
2, 120192, Note_on_c, 1, 52, 50
2, 120340, Note_on_c, 1, 52, 0
2, 120384, Note_on_c, 1, 51, 49
2, 120548, Note_on_c, 1, 51, 0
2, 120576, Note_on_c, 1, 50, 54
2, 120704, Note_on_c, 1, 38, 35
2, 120736, Note_on_c, 1, 38, 0
2, 120760, Note_on_c, 1, 50, 0
2, 120768, Note_on_c, 1, 44, 53
2, 120952, Note_on_c, 1, 44, 0
2, 120960, Note_on_c, 1, 39, 37
2, 121088, Note_on_c, 1, 36, 40
2, 121120, Note_on_c, 1, 36, 0
2, 121128, Note_on_c, 1, 39, 0
2, 121152, Note_on_c, 1, 32, 56
2, 121340, Note_on_c, 1, 32, 0
2, 121344, Note_on_c, 1, 31, 48
2, 121536, Note_on_c, 1, 38, 55
2, 121688, Note_on_c, 1, 31, 0
2, 121704, Note_on_c, 1, 38, 0
2, 121728, Note_on_c, 1, 46, 36
2, 121856, Note_on_c, 1, 34, 36
2, 121888, Note_on_c, 1, 46, 0
2, 121896, Note_on_c, 1, 34, 0
2, 121920, Note_on_c, 1, 35, 45
2, 122048, Note_on_c, 1, 34, 31
2, 122076, Note_on_c, 1, 35, 0
2, 122100, Note_on_c, 1, 34, 0
2, 122112, Note_on_c, 1, 36, 40
2, 122240, Note_on_c, 1, 42, 81
2, 122272, Note_on_c, 1, 36, 0
2, 122624, Note_on_c, 1, 37, 36
2, 122656, Note_on_c, 1, 37, 0
2, 122688, Note_on_c, 1, 30, 47
2, 122816, Note_on_c, 1, 37, 25
2, 122840, Note_on_c, 1, 30, 0
2, 122844, Note_on_c, 1, 42, 0
2, 122864, Note_on_c, 1, 37, 0
2, 122880, Note_on_c, 1, 29, 58
2, 123200, Note_on_c, 1, 36, 31
2, 123232, Note_on_c, 1, 36, 0
2, 123264, Note_on_c, 1, 41, 71
2, 123636, Note_on_c, 1, 29, 0
2, 123644, Note_on_c, 1, 41, 0
2, 123648, Note_on_c, 1, 32, 71
2, 124032, Note_on_c, 1, 48, 81
2, 124064, Note_on_c, 1, 32, 0
2, 124352, Note_on_c, 1, 36, 39
2, 124400, Note_on_c, 1, 36, 0
2, 124416, Note_on_c, 1, 37, 71
2, 124420, Note_on_c, 1, 48, 0
2, 124800, Note_on_c, 1, 44, 58
2, 124844, Note_on_c, 1, 37, 0
2, 124928, Note_on_c, 1, 37, 26
2, 124964, Note_on_c, 1, 37, 0
2, 124980, Note_on_c, 1, 44, 0
2, 124992, Note_on_c, 1, 45, 59
2, 125172, Note_on_c, 1, 45, 0
2, 125184, Note_on_c, 1, 46, 48
2, 125564, Note_on_c, 1, 46, 0
2, 125568, Note_on_c, 1, 41, 51
2, 125888, Note_on_c, 1, 38, 34
2, 125920, Note_on_c, 1, 38, 0
2, 125932, Note_on_c, 1, 41, 0
2, 125952, Note_on_c, 1, 39, 62
2, 126324, Note_on_c, 1, 39, 0
2, 126336, Note_on_c, 1, 34, 56
2, 126652, Note_on_c, 1, 34, 0
2, 126656, Note_on_c, 1, 33, 49
2, 126716, Note_on_c, 1, 33, 0
2, 126720, Note_on_c, 1, 32, 47
2, 126912, Note_on_c, 1, 48, 74
2, 127296, Note_on_c, 1, 32, 0
2, 127296, Note_on_c, 1, 36, 60
2, 127300, Note_on_c, 1, 48, 0
2, 127476, Note_on_c, 1, 36, 0
2, 127488, Note_on_c, 1, 37, 65
2, 127896, Note_on_c, 1, 37, 0
2, 128000, Note_on_c, 1, 37, 51
2, 128088, Note_on_c, 1, 37, 0
2, 128128, Note_on_c, 1, 36, 61
2, 128160, Note_on_c, 1, 36, 0
2, 128192, Note_on_c, 1, 35, 51
2, 128240, Note_on_c, 1, 35, 0
2, 128256, Note_on_c, 1, 34, 57
2, 128316, Pitch_bend_c, 1, 8192
2, 128320, Pitch_bend_c, 1, 8192
2, 128320, Pitch_bend_c, 1, 8192
2, 128324, Pitch_bend_c, 1, 7424
2, 128328, Pitch_bend_c, 1, 7168
2, 128332, Pitch_bend_c, 1, 6912
2, 128332, Pitch_bend_c, 1, 6528
2, 128336, Pitch_bend_c, 1, 6272
2, 128336, Pitch_bend_c, 1, 6016
2, 128340, Pitch_bend_c, 1, 5760
2, 128340, Pitch_bend_c, 1, 5504
2, 128344, Pitch_bend_c, 1, 5120
2, 128348, Pitch_bend_c, 1, 4864
2, 128348, Pitch_bend_c, 1, 4736
2, 128352, Pitch_bend_c, 1, 4608
2, 128352, Pitch_bend_c, 1, 4480
2, 128360, Pitch_bend_c, 1, 4352
2, 128380, Pitch_bend_c, 1, 4480
2, 128384, Pitch_bend_c, 1, 4736
2, 128384, Pitch_bend_c, 1, 4864
2, 128388, Pitch_bend_c, 1, 5120
2, 128388, Pitch_bend_c, 1, 5504
2, 128392, Pitch_bend_c, 1, 5888
2, 128392, Pitch_bend_c, 1, 6272
2, 128396, Pitch_bend_c, 1, 6656
2, 128400, Pitch_bend_c, 1, 7040
2, 128400, Pitch_bend_c, 1, 7552
2, 128404, Pitch_bend_c, 1, 8192
2, 128404, Pitch_bend_c, 1, 8192
2, 128404, Pitch_bend_c, 1, 8192
2, 128456, Pitch_bend_c, 1, 8192
2, 128456, Pitch_bend_c, 1, 8192
2, 128460, Pitch_bend_c, 1, 7680
2, 128464, Pitch_bend_c, 1, 7424
2, 128464, Pitch_bend_c, 1, 7168
2, 128468, Pitch_bend_c, 1, 6784
2, 128468, Pitch_bend_c, 1, 6528
2, 128472, Pitch_bend_c, 1, 6272
2, 128472, Pitch_bend_c, 1, 5888
2, 128476, Pitch_bend_c, 1, 5632
2, 128480, Pitch_bend_c, 1, 5376
2, 128480, Pitch_bend_c, 1, 4992
2, 128484, Pitch_bend_c, 1, 4736
2, 128484, Pitch_bend_c, 1, 4608
2, 128488, Pitch_bend_c, 1, 4480
2, 128488, Pitch_bend_c, 1, 4224
2, 128492, Pitch_bend_c, 1, 4096
2, 128496, Pitch_bend_c, 1, 3840
2, 128504, Pitch_bend_c, 1, 3712
2, 128508, Pitch_bend_c, 1, 3968
2, 128512, Pitch_bend_c, 1, 4096
2, 128512, Pitch_bend_c, 1, 4352
2, 128516, Pitch_bend_c, 1, 4480
2, 128516, Pitch_bend_c, 1, 4864
2, 128520, Pitch_bend_c, 1, 5376
2, 128520, Pitch_bend_c, 1, 5760
2, 128524, Pitch_bend_c, 1, 6144
2, 128528, Pitch_bend_c, 1, 6656
2, 128528, Pitch_bend_c, 1, 7296
2, 128532, Pitch_bend_c, 1, 8192
2, 128532, Pitch_bend_c, 1, 8192
2, 128532, Pitch_bend_c, 1, 8192
2, 128580, Pitch_bend_c, 1, 8192
2, 128584, Pitch_bend_c, 1, 8192
2, 128588, Pitch_bend_c, 1, 7680
2, 128588, Pitch_bend_c, 1, 7424
2, 128592, Pitch_bend_c, 1, 7040
2, 128592, Pitch_bend_c, 1, 6784
2, 128596, Pitch_bend_c, 1, 6528
2, 128600, Pitch_bend_c, 1, 6144
2, 128600, Pitch_bend_c, 1, 5888
2, 128604, Pitch_bend_c, 1, 5632
2, 128604, Pitch_bend_c, 1, 5376
2, 128608, Pitch_bend_c, 1, 5120
2, 128608, Pitch_bend_c, 1, 4864
2, 128612, Pitch_bend_c, 1, 4736
2, 128616, Pitch_bend_c, 1, 4608
2, 128616, Pitch_bend_c, 1, 4480
2, 128620, Pitch_bend_c, 1, 4224
2, 128620, Pitch_bend_c, 1, 4096
2, 128624, Pitch_bend_c, 1, 3968
2, 128632, Pitch_bend_c, 1, 4352
2, 128636, Pitch_bend_c, 1, 4736
2, 128640, Pitch_bend_c, 1, 5504
2, 128640, Pitch_bend_c, 1, 6400
2, 128644, Pitch_bend_c, 1, 7424
2, 128644, Pitch_bend_c, 1, 8192
2, 128896, Note_on_c, 1, 37, 28
2, 128916, Note_on_c, 1, 34, 0
2, 128952, Note_on_c, 1, 37, 0
2, 128960, Note_on_c, 1, 38, 44
2, 129024, Note_on_c, 1, 39, 80
2, 129032, Note_on_c, 1, 38, 0
2, 129984, Note_on_c, 1, 44, 79
2, 129996, Note_on_c, 1, 39, 0
2, 130496, Note_on_c, 1, 38, 69
2, 130500, Note_on_c, 1, 44, 0
2, 130560, Note_on_c, 1, 37, 71
2, 130576, Note_on_c, 1, 38, 0
2, 130648, Control_c, 1, 1, 3
2, 130652, Control_c, 1, 1, 4
2, 130652, Control_c, 1, 1, 6
2, 130652, Control_c, 1, 1, 7
2, 130656, Control_c, 1, 1, 8
2, 130656, Control_c, 1, 1, 10
2, 130656, Control_c, 1, 1, 11
2, 130660, Control_c, 1, 1, 12
2, 130660, Control_c, 1, 1, 13
2, 130660, Control_c, 1, 1, 15
2, 130660, Control_c, 1, 1, 16
2, 130664, Control_c, 1, 1, 18
2, 130668, Control_c, 1, 1, 19
2, 130668, Control_c, 1, 1, 20
2, 130672, Control_c, 1, 1, 22
2, 130676, Control_c, 1, 1, 24
2, 130676, Control_c, 1, 1, 25
2, 130680, Control_c, 1, 1, 27
2, 130684, Control_c, 1, 1, 28
2, 130684, Control_c, 1, 1, 29
2, 130692, Control_c, 1, 1, 30
2, 130692, Control_c, 1, 1, 31
2, 130700, Control_c, 1, 1, 32
2, 130704, Control_c, 1, 1, 33
2, 130708, Control_c, 1, 1, 34
2, 130712, Control_c, 1, 1, 35
2, 130716, Control_c, 1, 1, 37
2, 130720, Control_c, 1, 1, 38
2, 130724, Control_c, 1, 1, 39
2, 130728, Control_c, 1, 1, 40
2, 130732, Control_c, 1, 1, 41
2, 130740, Control_c, 1, 1, 42
2, 130752, Control_c, 1, 1, 43
2, 130756, Control_c, 1, 1, 45
2, 130760, Control_c, 1, 1, 46
2, 130764, Control_c, 1, 1, 47
2, 130768, Control_c, 1, 1, 49
2, 130772, Control_c, 1, 1, 50
2, 130776, Control_c, 1, 1, 52
2, 130780, Control_c, 1, 1, 53
2, 130780, Control_c, 1, 1, 55
2, 130788, Control_c, 1, 1, 56
2, 130788, Control_c, 1, 1, 58
2, 130792, Control_c, 1, 1, 59
2, 130796, Control_c, 1, 1, 61
2, 130800, Control_c, 1, 1, 62
2, 130804, Control_c, 1, 1, 63
2, 130832, Control_c, 1, 1, 62
2, 130840, Control_c, 1, 1, 61
2, 130840, Control_c, 1, 1, 59
2, 130848, Control_c, 1, 1, 58
2, 130848, Control_c, 1, 1, 56
2, 130852, Control_c, 1, 1, 55
2, 130856, Control_c, 1, 1, 53
2, 130860, Control_c, 1, 1, 52
2, 130864, Control_c, 1, 1, 50
2, 130868, Control_c, 1, 1, 48
2, 130872, Control_c, 1, 1, 47
2, 130876, Control_c, 1, 1, 45
2, 130876, Control_c, 1, 1, 44
2, 130880, Control_c, 1, 1, 43
2, 130880, Control_c, 1, 1, 41
2, 130884, Control_c, 1, 1, 39
2, 130888, Control_c, 1, 1, 38
2, 130888, Control_c, 1, 1, 37
2, 130892, Control_c, 1, 1, 35
2, 130896, Control_c, 1, 1, 33
2, 130896, Control_c, 1, 1, 31
2, 130900, Control_c, 1, 1, 30
2, 130904, Control_c, 1, 1, 28
2, 130904, Control_c, 1, 1, 25
2, 130908, Control_c, 1, 1, 24
2, 130912, Control_c, 1, 1, 22
2, 130912, Control_c, 1, 1, 20
2, 130916, Control_c, 1, 1, 17
2, 130920, Control_c, 1, 1, 16
2, 130920, Control_c, 1, 1, 13
2, 130924, Control_c, 1, 1, 11
2, 130928, Control_c, 1, 1, 10
2, 130928, Control_c, 1, 1, 8
2, 130928, Control_c, 1, 1, 7
2, 130928, Control_c, 1, 1, 6
2, 130932, Control_c, 1, 1, 5
2, 130936, Control_c, 1, 1, 2
2, 130936, Control_c, 1, 1, 1
2, 131200, Note_on_c, 1, 36, 57
2, 131208, Note_on_c, 1, 37, 0
2, 131244, Note_on_c, 1, 36, 0
2, 131264, Note_on_c, 1, 35, 47
2, 131324, Note_on_c, 1, 35, 0
2, 131328, Note_on_c, 1, 34, 64
2, 131408, Pitch_bend_c, 1, 8192
2, 131408, Pitch_bend_c, 1, 8192
2, 131412, Pitch_bend_c, 1, 8192
2, 131416, Pitch_bend_c, 1, 7552
2, 131420, Pitch_bend_c, 1, 7296
2, 131420, Pitch_bend_c, 1, 7040
2, 131424, Pitch_bend_c, 1, 6784
2, 131424, Pitch_bend_c, 1, 6656
2, 131428, Pitch_bend_c, 1, 6400
2, 131432, Pitch_bend_c, 1, 6144
2, 131432, Pitch_bend_c, 1, 5888
2, 131436, Pitch_bend_c, 1, 5632
2, 131436, Pitch_bend_c, 1, 5504
2, 131440, Pitch_bend_c, 1, 5376
2, 131440, Pitch_bend_c, 1, 5120
2, 131448, Pitch_bend_c, 1, 4864
2, 131456, Pitch_bend_c, 1, 4736
2, 131468, Pitch_bend_c, 1, 4992
2, 131472, Pitch_bend_c, 1, 5120
2, 131476, Pitch_bend_c, 1, 5376
2, 131476, Pitch_bend_c, 1, 5504
2, 131480, Pitch_bend_c, 1, 5632
2, 131480, Pitch_bend_c, 1, 5888
2, 131484, Pitch_bend_c, 1, 6144
2, 131488, Pitch_bend_c, 1, 6528
2, 131488, Pitch_bend_c, 1, 6784
2, 131492, Pitch_bend_c, 1, 7168
2, 131492, Pitch_bend_c, 1, 7424
2, 131496, Pitch_bend_c, 1, 8192
2, 131496, Pitch_bend_c, 1, 8192
2, 131496, Pitch_bend_c, 1, 8192
2, 131500, Pitch_bend_c, 1, 8192
2, 131552, Pitch_bend_c, 1, 8192
2, 131552, Pitch_bend_c, 1, 8192
2, 131556, Pitch_bend_c, 1, 7552
2, 131560, Pitch_bend_c, 1, 7296
2, 131560, Pitch_bend_c, 1, 7168
2, 131564, Pitch_bend_c, 1, 6912
2, 131564, Pitch_bend_c, 1, 6656
2, 131568, Pitch_bend_c, 1, 6400
2, 131572, Pitch_bend_c, 1, 6144
2, 131572, Pitch_bend_c, 1, 5888
2, 131576, Pitch_bend_c, 1, 5632
2, 131576, Pitch_bend_c, 1, 5504
2, 131580, Pitch_bend_c, 1, 5120
2, 131580, Pitch_bend_c, 1, 4864
2, 131584, Pitch_bend_c, 1, 4736
2, 131588, Pitch_bend_c, 1, 4480
2, 131588, Pitch_bend_c, 1, 4352
2, 131592, Pitch_bend_c, 1, 4224
2, 131592, Pitch_bend_c, 1, 4096
2, 131596, Pitch_bend_c, 1, 3968
2, 131608, Pitch_bend_c, 1, 4096
2, 131612, Pitch_bend_c, 1, 4352
2, 131612, Pitch_bend_c, 1, 4480
2, 131616, Pitch_bend_c, 1, 4736
2, 131616, Pitch_bend_c, 1, 5120
2, 131620, Pitch_bend_c, 1, 5504
2, 131620, Pitch_bend_c, 1, 5760
2, 131624, Pitch_bend_c, 1, 6144
2, 131628, Pitch_bend_c, 1, 6528
2, 131628, Pitch_bend_c, 1, 6912
2, 131632, Pitch_bend_c, 1, 7296
2, 131632, Pitch_bend_c, 1, 7552
2, 131636, Pitch_bend_c, 1, 8192
2, 131636, Pitch_bend_c, 1, 8192
2, 131636, Pitch_bend_c, 1, 8192
2, 131640, Pitch_bend_c, 1, 8192
2, 131684, Pitch_bend_c, 1, 8192
2, 131688, Pitch_bend_c, 1, 8192
2, 131688, Pitch_bend_c, 1, 8192
2, 131692, Pitch_bend_c, 1, 7424
2, 131696, Pitch_bend_c, 1, 7168
2, 131700, Pitch_bend_c, 1, 7040
2, 131700, Pitch_bend_c, 1, 6784
2, 131704, Pitch_bend_c, 1, 6528
2, 131704, Pitch_bend_c, 1, 6272
2, 131708, Pitch_bend_c, 1, 6016
2, 131708, Pitch_bend_c, 1, 5760
2, 131712, Pitch_bend_c, 1, 5504
2, 131716, Pitch_bend_c, 1, 5120
2, 131716, Pitch_bend_c, 1, 4864
2, 131720, Pitch_bend_c, 1, 4736
2, 131720, Pitch_bend_c, 1, 4608
2, 131724, Pitch_bend_c, 1, 4352
2, 131724, Pitch_bend_c, 1, 4096
2, 131728, Pitch_bend_c, 1, 3968
2, 131732, Pitch_bend_c, 1, 3840
2, 131744, Pitch_bend_c, 1, 3968
2, 131748, Pitch_bend_c, 1, 4224
2, 131748, Pitch_bend_c, 1, 4480
2, 131752, Pitch_bend_c, 1, 4864
2, 131752, Pitch_bend_c, 1, 5376
2, 131756, Pitch_bend_c, 1, 5760
2, 131756, Pitch_bend_c, 1, 6272
2, 131760, Pitch_bend_c, 1, 6784
2, 131764, Pitch_bend_c, 1, 7296
2, 131764, Pitch_bend_c, 1, 7680
2, 131768, Pitch_bend_c, 1, 8192
2, 131768, Pitch_bend_c, 1, 8192
2, 132032, Note_on_c, 1, 41, 60
2, 132072, Note_on_c, 1, 34, 0
2, 132096, Note_on_c, 1, 39, 61
2, 132104, Note_on_c, 1, 41, 0
2, 132212, Pitch_bend_c, 1, 8192
2, 132216, Pitch_bend_c, 1, 8192
2, 132220, Pitch_bend_c, 1, 8192
2, 132224, Pitch_bend_c, 1, 8712
2, 132228, Pitch_bend_c, 1, 8842
2, 132228, Pitch_bend_c, 1, 8972
2, 132232, Pitch_bend_c, 1, 9102
2, 132236, Pitch_bend_c, 1, 9232
2, 132236, Pitch_bend_c, 1, 9362
2, 132240, Pitch_bend_c, 1, 9492
2, 132240, Pitch_bend_c, 1, 9752
2, 132244, Pitch_bend_c, 1, 9882
2, 132244, Pitch_bend_c, 1, 10012
2, 132248, Pitch_bend_c, 1, 10142
2, 132252, Pitch_bend_c, 1, 10402
2, 132252, Pitch_bend_c, 1, 10532
2, 132256, Pitch_bend_c, 1, 10792
2, 132256, Pitch_bend_c, 1, 10922
2, 132260, Pitch_bend_c, 1, 11052
2, 132260, Pitch_bend_c, 1, 11312
2, 132264, Pitch_bend_c, 1, 11442
2, 132272, Pitch_bend_c, 1, 11572
2, 132288, Pitch_bend_c, 1, 11442
2, 132296, Pitch_bend_c, 1, 11312
2, 132296, Pitch_bend_c, 1, 11052
2, 132300, Pitch_bend_c, 1, 10922
2, 132300, Pitch_bend_c, 1, 10792
2, 132304, Pitch_bend_c, 1, 10662
2, 132304, Pitch_bend_c, 1, 10402
2, 132308, Pitch_bend_c, 1, 10142
2, 132312, Pitch_bend_c, 1, 10012
2, 132312, Pitch_bend_c, 1, 9752
2, 132316, Pitch_bend_c, 1, 9492
2, 132316, Pitch_bend_c, 1, 9232
2, 132320, Pitch_bend_c, 1, 9102
2, 132320, Pitch_bend_c, 1, 8842
2, 132324, Pitch_bend_c, 1, 8712
2, 132328, Pitch_bend_c, 1, 8192
2, 132328, Pitch_bend_c, 1, 8192
2, 132328, Pitch_bend_c, 1, 8192
2, 132672, Note_on_c, 1, 34, 40
2, 132692, Note_on_c, 1, 39, 0
2, 132800, Note_on_c, 1, 33, 55
2, 132804, Note_on_c, 1, 34, 0
2, 132856, Note_on_c, 1, 33, 0
2, 132864, Note_on_c, 1, 32, 46
2, 132992, Note_on_c, 1, 48, 51
2, 133328, Note_on_c, 1, 32, 0
2, 133376, Note_on_c, 1, 33, 57
2, 133408, Note_on_c, 1, 33, 0
2, 133440, Note_on_c, 1, 32, 54
2, 133456, Note_on_c, 1, 48, 0
2, 133628, Note_on_c, 1, 32, 0
2, 133632, Note_on_c, 1, 31, 56
2, 134016, Note_on_c, 1, 43, 96
2, 134976, Note_on_c, 1, 34, 42
2, 134992, Note_on_c, 1, 31, 0
2, 135028, Note_on_c, 1, 34, 0
2, 135104, Note_on_c, 1, 35, 60
2, 135148, Note_on_c, 1, 35, 0
2, 135168, Note_on_c, 1, 36, 63
2, 135196, Note_on_c, 1, 43, 0
2, 135552, Note_on_c, 1, 45, 83
2, 135560, Note_on_c, 1, 36, 0
2, 135744, Note_on_c, 1, 43, 73
2, 135748, Note_on_c, 1, 45, 0
2, 135936, Note_on_c, 1, 41, 75
2, 135940, Note_on_c, 1, 43, 0
2, 136128, Note_on_c, 1, 40, 70
2, 136132, Note_on_c, 1, 41, 0
2, 136320, Note_on_c, 1, 38, 71
2, 136324, Note_on_c, 1, 40, 0
2, 136512, Note_on_c, 1, 36, 70
2, 136520, Note_on_c, 1, 38, 0
2, 136704, Note_on_c, 1, 36, 0
2, 136704, Note_on_c, 1, 35, 80
2, 137344, Note_on_c, 1, 47, 64
2, 137388, Note_on_c, 1, 35, 0
2, 137404, Note_on_c, 1, 47, 0
2, 137408, Note_on_c, 1, 35, 62
2, 137516, Note_on_c, 1, 35, 0
2, 137536, Note_on_c, 1, 34, 73
2, 138240, Note_on_c, 1, 33, 71
2, 138268, Note_on_c, 1, 34, 0
2, 138752, Note_on_c, 1, 48, 65
2, 138856, Note_on_c, 1, 33, 0
2, 138944, Note_on_c, 1, 33, 47
2, 139008, Note_on_c, 1, 32, 70
2, 139040, Note_on_c, 1, 33, 0
2, 139052, Note_on_c, 1, 48, 0
2, 139520, Note_on_c, 1, 48, 77
2, 139620, Note_on_c, 1, 32, 0
2, 139648, Note_on_c, 1, 42, 51
2, 139680, Note_on_c, 1, 48, 0
2, 139696, Note_on_c, 1, 42, 0
2, 139712, Note_on_c, 1, 32, 67
2, 139776, Note_on_c, 1, 43, 70
2, 139792, Note_on_c, 1, 32, 0
2, 140544, Note_on_c, 1, 42, 77
2, 140568, Note_on_c, 1, 43, 0
2, 141312, Note_on_c, 1, 41, 72
2, 141336, Note_on_c, 1, 42, 0
2, 142072, Note_on_c, 1, 41, 0
2, 142080, Note_on_c, 1, 40, 68
2, 142464, Note_on_c, 1, 40, 0
2, 142464, Note_on_c, 1, 33, 68
2, 142840, Note_on_c, 1, 33, 0
2, 142848, Note_on_c, 1, 38, 69
2, 143424, Note_on_c, 1, 45, 63
2, 143616, Note_on_c, 1, 53, 71
2, 143924, Note_on_c, 1, 53, 0
2, 143936, Note_on_c, 1, 52, 58
2, 143968, Note_on_c, 1, 45, 0
2, 143996, Note_on_c, 1, 52, 0
2, 144000, Note_on_c, 1, 50, 57
2, 144212, Note_on_c, 1, 38, 0
2, 144256, Note_on_c, 1, 45, 57
2, 144272, Note_on_c, 1, 50, 0
2, 144288, Note_on_c, 1, 45, 0
2, 144320, Note_on_c, 1, 39, 63
2, 144376, Note_on_c, 1, 39, 0
2, 144384, Note_on_c, 1, 38, 69
2, 144960, Note_on_c, 1, 45, 76
2, 145144, Note_on_c, 1, 45, 0
2, 145152, Note_on_c, 1, 50, 75
2, 145340, Note_on_c, 1, 50, 0
2, 145344, Note_on_c, 1, 42, 73
2, 145368, Note_on_c, 1, 38, 0
2, 145536, Note_on_c, 1, 38, 51
2, 145716, Note_on_c, 1, 42, 0
2, 145724, Note_on_c, 1, 38, 0
2, 145728, Note_on_c, 1, 32, 68
2, 145920, Note_on_c, 1, 31, 72
2, 145932, Note_on_c, 1, 32, 0
2, 146304, Note_on_c, 1, 43, 74
2, 146484, Note_on_c, 1, 31, 0
2, 146688, Note_on_c, 1, 36, 83
2, 146716, Note_on_c, 1, 43, 0
2, 147072, Note_on_c, 1, 48, 80
2, 147120, Note_on_c, 1, 36, 0
2, 147576, Note_on_c, 1, 48, 0
2, 147576, End_track
3, 0, Start_track
3, 0, MIDI_port, 0
3, 0, Title_t, ""
3, 0, Program_c, 0, 0
3, 0, Control_c, 0, 7, 84
3, 397, Note_on_c, 0, 65, 81
3, 400, Note_on_c, 0, 53, 65
3, 504, Control_c, 0, 64, 127
3, 592, Note_on_c, 0, 65, 0
3, 592, Note_on_c, 0, 67, 78
3, 597, Control_c, 0, 64, 0
3, 601, Note_on_c, 0, 55, 74
3, 619, Note_on_c, 0, 53, 0
3, 665, Control_c, 0, 64, 127
3, 750, Control_c, 0, 64, 0
3, 781, Note_on_c, 0, 69, 80
3, 791, Note_on_c, 0, 57, 68
3, 794, Note_on_c, 0, 55, 0
3, 799, Note_on_c, 0, 67, 0
3, 805, Control_c, 0, 64, 127
3, 964, Note_on_c, 0, 69, 0
3, 970, Control_c, 0, 64, 0
3, 970, Note_on_c, 0, 72, 72
3, 973, Note_on_c, 0, 60, 74
3, 985, Note_on_c, 0, 57, 0
3, 1025, Control_c, 0, 64, 127
3, 1155, Control_c, 0, 64, 0
3, 1156, Note_on_c, 0, 72, 0
3, 1168, Note_on_c, 0, 74, 58
3, 1175, Note_on_c, 0, 60, 0
3, 1177, Note_on_c, 0, 62, 61
3, 1200, Control_c, 0, 64, 127
3, 1353, Note_on_c, 0, 62, 0
3, 1436, Note_on_c, 0, 74, 0
3, 1450, Note_on_c, 0, 77, 60
3, 1533, Note_on_c, 0, 77, 0
3, 1559, Note_on_c, 0, 79, 63
3, 1567, Note_on_c, 0, 50, 40
3, 1573, Control_c, 0, 64, 0
3, 1647, Control_c, 0, 64, 127
3, 1782, Note_on_c, 0, 57, 32
3, 1786, Note_on_c, 0, 79, 0
3, 1874, Note_on_c, 0, 50, 0
3, 1981, Note_on_c, 0, 69, 32
3, 1985, Note_on_c, 0, 65, 24
3, 1991, Note_on_c, 0, 64, 22
3, 2149, Note_on_c, 0, 65, 0
3, 2174, Note_on_c, 0, 69, 0
3, 2233, Note_on_c, 0, 57, 0
3, 2315, Note_on_c, 0, 64, 0
3, 2471, Note_on_c, 0, 81, 91
3, 2570, Note_on_c, 0, 73, 55
3, 2571, Note_on_c, 0, 69, 42
3, 2621, Note_on_c, 0, 69, 0
3, 2622, Note_on_c, 0, 73, 0
3, 2721, Note_on_c, 0, 73, 42
3, 2723, Note_on_c, 0, 69, 40
3, 2728, Note_on_c, 0, 61, 30
3, 2734, Note_on_c, 0, 64, 20
3, 2762, Note_on_c, 0, 69, 0
3, 2777, Note_on_c, 0, 73, 0
3, 2866, Note_on_c, 0, 73, 37
3, 2870, Note_on_c, 0, 69, 40
3, 2921, Note_on_c, 0, 69, 0
3, 2924, Note_on_c, 0, 73, 0
3, 2977, Note_on_c, 0, 64, 0
3, 3000, Note_on_c, 0, 69, 40
3, 3003, Note_on_c, 0, 73, 43
3, 3017, Note_on_c, 0, 61, 0
3, 3037, Note_on_c, 0, 81, 0
3, 3054, Note_on_c, 0, 69, 0
3, 3079, Note_on_c, 0, 73, 0
3, 3121, Note_on_c, 0, 72, 40
3, 3121, Note_on_c, 0, 60, 34
3, 3122, Note_on_c, 0, 64, 24
3, 3123, Note_on_c, 0, 69, 25
3, 3150, Control_c, 0, 64, 0
3, 3307, Control_c, 0, 64, 127
3, 3480, Note_on_c, 0, 69, 0
3, 3499, Note_on_c, 0, 72, 0
3, 3614, Note_on_c, 0, 60, 0
3, 3630, Note_on_c, 0, 64, 0
3, 3714, Note_on_c, 0, 89, 91
3, 3715, Note_on_c, 0, 77, 94
3, 3754, Note_on_c, 0, 77, 0
3, 3771, Note_on_c, 0, 89, 0
3, 3825, Note_on_c, 0, 91, 83
3, 3827, Note_on_c, 0, 79, 88
3, 3901, Note_on_c, 0, 91, 0
3, 3902, Note_on_c, 0, 79, 0
3, 3939, Control_c, 0, 64, 0
3, 3940, Note_on_c, 0, 64, 37
3, 3944, Note_on_c, 0, 59, 30
3, 3946, Note_on_c, 0, 60, 37
3, 3953, Note_on_c, 0, 89, 82
3, 3955, Note_on_c, 0, 77, 71
3, 4021, Control_c, 0, 64, 127
3, 4042, Note_on_c, 0, 89, 0
3, 4061, Note_on_c, 0, 77, 0
3, 4096, Note_on_c, 0, 88, 67
3, 4097, Note_on_c, 0, 76, 59
3, 4099, Control_c, 0, 64, 0
3, 4128, Control_c, 0, 64, 127
3, 4183, Note_on_c, 0, 88, 0
3, 4212, Note_on_c, 0, 76, 0
3, 4284, Note_on_c, 0, 86, 64
3, 4287, Note_on_c, 0, 74, 55
3, 4304, Note_on_c, 0, 64, 0
3, 4308, Note_on_c, 0, 60, 0
3, 4313, Note_on_c, 0, 59, 0
3, 4368, Note_on_c, 0, 86, 0
3, 4395, Note_on_c, 0, 74, 0
3, 4520, Note_on_c, 0, 84, 57
3, 4528, Note_on_c, 0, 72, 32
3, 4534, Note_on_c, 0, 84, 0
3, 4544, Note_on_c, 0, 72, 0
3, 4656, Note_on_c, 0, 69, 54
3, 4662, Note_on_c, 0, 81, 36
3, 4662, Note_on_c, 0, 57, 32
3, 4664, Note_on_c, 0, 62, 33
3, 4670, Note_on_c, 0, 58, 32
3, 4676, Control_c, 0, 64, 0
3, 4795, Control_c, 0, 64, 127
3, 4895, Note_on_c, 0, 62, 0
3, 4896, Note_on_c, 0, 58, 0
3, 5011, Note_on_c, 0, 69, 0
3, 5060, Note_on_c, 0, 81, 0
3, 5061, Note_on_c, 0, 62, 17
3, 5117, Note_on_c, 0, 58, 1
3, 5249, Note_on_c, 0, 93, 80
3, 5253, Note_on_c, 0, 86, 71
3, 5267, Note_on_c, 0, 62, 0
3, 5285, Note_on_c, 0, 93, 0
3, 5299, Note_on_c, 0, 86, 0
3, 5317, Note_on_c, 0, 81, 44
3, 5319, Note_on_c, 0, 90, 51
3, 5326, Note_on_c, 0, 57, 0
3, 5337, Note_on_c, 0, 81, 0
3, 5359, Note_on_c, 0, 90, 0
3, 5379, Note_on_c, 0, 58, 0
3, 5392, Note_on_c, 0, 86, 53
3, 5393, Note_on_c, 0, 93, 64
3, 5428, Note_on_c, 0, 93, 0
3, 5437, Note_on_c, 0, 86, 0
3, 5450, Control_c, 0, 64, 0
3, 5457, Note_on_c, 0, 81, 42
3, 5464, Note_on_c, 0, 58, 18
3, 5464, Note_on_c, 0, 62, 27
3, 5468, Note_on_c, 0, 90, 38
3, 5475, Note_on_c, 0, 54, 35
3, 5501, Note_on_c, 0, 81, 0
3, 5518, Note_on_c, 0, 90, 0
3, 5543, Note_on_c, 0, 86, 44
3, 5546, Note_on_c, 0, 93, 52
3, 5554, Control_c, 0, 64, 127
3, 5588, Note_on_c, 0, 93, 0
3, 5594, Note_on_c, 0, 86, 0
3, 5624, Note_on_c, 0, 90, 31
3, 5631, Note_on_c, 0, 81, 22
3, 5661, Note_on_c, 0, 62, 0
3, 5673, Note_on_c, 0, 90, 0
3, 5689, Note_on_c, 0, 81, 0
3, 5690, Note_on_c, 0, 58, 0
3, 5949, Note_on_c, 0, 81, 47
3, 5958, Note_on_c, 0, 69, 24
3, 6069, Note_on_c, 0, 69, 0
3, 6081, Note_on_c, 0, 54, 0
3, 6085, Note_on_c, 0, 81, 0
3, 6147, Note_on_c, 0, 81, 34
3, 6151, Note_on_c, 0, 69, 30
3, 6151, Note_on_c, 0, 58, 25
3, 6154, Note_on_c, 0, 62, 29
3, 6155, Note_on_c, 0, 53, 34
3, 6164, Control_c, 0, 64, 0
3, 6290, Control_c, 0, 64, 127
3, 6571, Note_on_c, 0, 53, 0
3, 6572, Note_on_c, 0, 62, 0
3, 6592, Note_on_c, 0, 81, 0
3, 6595, Note_on_c, 0, 69, 0
3, 6674, Note_on_c, 0, 58, 0
3, 6677, Note_on_c, 0, 81, 85
3, 6679, Note_on_c, 0, 69, 92
3, 6680, Note_on_c, 0, 58, 69
3, 6680, Note_on_c, 0, 62, 76
3, 6681, Note_on_c, 0, 53, 75
3, 6714, Note_on_c, 0, 69, 0
3, 6731, Note_on_c, 0, 62, 0
3, 6739, Note_on_c, 0, 81, 0
3, 6741, Note_on_c, 0, 53, 0
3, 6743, Note_on_c, 0, 58, 0
3, 6807, Note_on_c, 0, 84, 94
3, 6808, Note_on_c, 0, 72, 91
3, 6810, Note_on_c, 0, 53, 79
3, 6812, Note_on_c, 0, 62, 73
3, 6813, Note_on_c, 0, 58, 68
3, 6878, Note_on_c, 0, 62, 0
3, 6881, Note_on_c, 0, 72, 0
3, 6890, Note_on_c, 0, 53, 0
3, 6892, Note_on_c, 0, 84, 0
3, 6902, Note_on_c, 0, 58, 0
3, 6950, Control_c, 0, 64, 0
3, 6953, Note_on_c, 0, 62, 91
3, 6953, Note_on_c, 0, 58, 83
3, 6954, Note_on_c, 0, 86, 87
3, 6956, Note_on_c, 0, 52, 90
3, 6956, Note_on_c, 0, 79, 79
3, 6956, Note_on_c, 0, 74, 84
3, 7039, Control_c, 0, 64, 127
3, 7072, Note_on_c, 0, 86, 0
3, 7086, Note_on_c, 0, 79, 0
3, 7092, Note_on_c, 0, 74, 0
3, 7155, Note_on_c, 0, 52, 0
3, 7170, Note_on_c, 0, 58, 0
3, 7176, Note_on_c, 0, 62, 0
3, 7233, Note_on_c, 0, 80, 67
3, 7237, Note_on_c, 0, 68, 72
3, 7281, Note_on_c, 0, 68, 0
3, 7292, Note_on_c, 0, 80, 0
3, 7348, Note_on_c, 0, 65, 54
3, 7349, Note_on_c, 0, 73, 45
3, 7350, Note_on_c, 0, 61, 48
3, 7353, Note_on_c, 0, 79, 44
3, 7354, Note_on_c, 0, 67, 48
3, 7355, Control_c, 0, 64, 0
3, 7360, Note_on_c, 0, 76, 32
3, 7364, Note_on_c, 0, 55, 19
3, 7371, Note_on_c, 0, 65, 0
3, 7373, Note_on_c, 0, 73, 0
3, 7374, Note_on_c, 0, 67, 0
3, 7376, Note_on_c, 0, 76, 0
3, 7376, Note_on_c, 0, 55, 0
3, 7382, Note_on_c, 0, 61, 0
3, 7386, Note_on_c, 0, 79, 0
3, 7485, Note_on_c, 0, 77, 49
3, 7491, Note_on_c, 0, 65, 50
3, 7492, Note_on_c, 0, 61, 43
3, 7497, Note_on_c, 0, 55, 42
3, 7498, Note_on_c, 0, 72, 36
3, 7498, Note_on_c, 0, 67, 20
3, 7556, Control_c, 0, 64, 127
3, 7576, Note_on_c, 0, 77, 0
3, 7582, Note_on_c, 0, 72, 0
3, 7593, Note_on_c, 0, 65, 0
3, 7601, Note_on_c, 0, 67, 0
3, 7619, Note_on_c, 0, 61, 0
3, 7643, Note_on_c, 0, 55, 0
3, 7726, Note_on_c, 0, 73, 43
3, 7727, Note_on_c, 0, 61, 49
3, 7728, Note_on_c, 0, 65, 44
3, 7731, Note_on_c, 0, 69, 48
3, 7732, Note_on_c, 0, 76, 42
3, 7734, Control_c, 0, 64, 0
3, 7821, Control_c, 0, 64, 127
3, 7825, Note_on_c, 0, 65, 0
3, 7828, Note_on_c, 0, 69, 0
3, 7847, Note_on_c, 0, 73, 0
3, 7861, Note_on_c, 0, 76, 0
3, 7865, Control_c, 0, 64, 0
3, 7868, Note_on_c, 0, 69, 45
3, 7870, Note_on_c, 0, 74, 43
3, 7872, Note_on_c, 0, 61, 0
3, 7873, Note_on_c, 0, 65, 27
3, 7877, Note_on_c, 0, 60, 49
3, 7965, Control_c, 0, 64, 127
3, 8082, Note_on_c, 0, 69, 0
3, 8110, Note_on_c, 0, 65, 0
3, 8160, Note_on_c, 0, 74, 0
3, 8307, Note_on_c, 0, 60, 0
3, 8473, Note_on_c, 0, 69, 46
3, 8474, Note_on_c, 0, 60, 35
3, 8478, Note_on_c, 0, 65, 35
3, 8483, Control_c, 0, 64, 0
3, 8484, Note_on_c, 0, 57, 31
3, 8484, Note_on_c, 0, 50, 33
3, 8546, Control_c, 0, 64, 127
3, 8647, Note_on_c, 0, 60, 0
3, 8677, Note_on_c, 0, 69, 0
3, 8681, Note_on_c, 0, 65, 0
3, 8723, Note_on_c, 0, 57, 0
3, 8783, Note_on_c, 0, 65, 65
3, 8826, Note_on_c, 0, 65, 0
3, 8864, Note_on_c, 0, 50, 0
3, 8866, Control_c, 0, 64, 0
3, 8875, Note_on_c, 0, 69, 62
3, 8878, Note_on_c, 0, 65, 53
3, 8878, Note_on_c, 0, 60, 58
3, 8881, Note_on_c, 0, 53, 53
3, 8900, Note_on_c, 0, 60, 0
3, 8909, Note_on_c, 0, 65, 0
3, 8911, Control_c, 0, 64, 127
3, 8920, Note_on_c, 0, 69, 0
3, 9004, Note_on_c, 0, 53, 0
3, 9005, Note_on_c, 0, 69, 71
3, 9006, Note_on_c, 0, 72, 62
3, 9007, Note_on_c, 0, 62, 66
3, 9009, Note_on_c, 0, 57, 72
3, 9011, Note_on_c, 0, 65, 66
3, 9011, Control_c, 0, 64, 0
3, 9071, Control_c, 0, 64, 127
3, 9086, Note_on_c, 0, 62, 0
3, 9100, Note_on_c, 0, 65, 0
3, 9115, Note_on_c, 0, 69, 0
3, 9115, Note_on_c, 0, 72, 0
3, 9115, Note_on_c, 0, 57, 0
3, 9258, Note_on_c, 0, 76, 87
3, 9259, Note_on_c, 0, 68, 88
3, 9259, Note_on_c, 0, 71, 83
3, 9260, Note_on_c, 0, 64, 92
3, 9261, Note_on_c, 0, 60, 85
3, 9264, Note_on_c, 0, 54, 85
3, 9265, Note_on_c, 0, 74, 64
3, 9272, Control_c, 0, 64, 0
3, 9279, Note_on_c, 0, 74, 0
3, 9405, Control_c, 0, 64, 127
3, 9539, Note_on_c, 0, 74, 1
3, 9573, Note_on_c, 0, 64, 0
3, 9574, Note_on_c, 0, 60, 0
3, 9578, Note_on_c, 0, 68, 0
3, 9581, Note_on_c, 0, 71, 0
3, 9661, Note_on_c, 0, 68, 37
3, 9665, Note_on_c, 0, 71, 39
3, 9666, Note_on_c, 0, 64, 42
3, 9672, Note_on_c, 0, 60, 36
3, 9715, Note_on_c, 0, 64, 0
3, 9735, Note_on_c, 0, 68, 0
3, 9741, Note_on_c, 0, 71, 0
3, 9754, Note_on_c, 0, 60, 0
3, 9758, Note_on_c, 0, 64, 33
3, 9797, Note_on_c, 0, 68, 35
3, 9811, Note_on_c, 0, 64, 0
3, 9832, Note_on_c, 0, 68, 0
3, 9845, Note_on_c, 0, 64, 32
3, 9891, Note_on_c, 0, 68, 39
3, 9898, Note_on_c, 0, 64, 0
3, 9927, Note_on_c, 0, 68, 0
3, 9928, Note_on_c, 0, 60, 17
3, 9941, Note_on_c, 0, 64, 40
3, 9957, Note_on_c, 0, 60, 0
3, 9985, Note_on_c, 0, 64, 0
3, 9985, Note_on_c, 0, 68, 37
3, 10020, Note_on_c, 0, 68, 0
3, 10028, Note_on_c, 0, 64, 40
3, 10070, Note_on_c, 0, 68, 38
3, 10078, Note_on_c, 0, 64, 0
3, 10105, Note_on_c, 0, 68, 0
3, 10120, Note_on_c, 0, 64, 40
3, 10159, Note_on_c, 0, 68, 36
3, 10164, Note_on_c, 0, 64, 0
3, 10191, Note_on_c, 0, 68, 0
3, 10204, Note_on_c, 0, 64, 42
3, 10241, Note_on_c, 0, 68, 32
3, 10251, Note_on_c, 0, 64, 0
3, 10270, Note_on_c, 0, 68, 0
3, 10287, Note_on_c, 0, 64, 24
3, 10325, Note_on_c, 0, 68, 25
3, 10357, Note_on_c, 0, 68, 0
3, 10388, Note_on_c, 0, 64, 0
3, 10395, Note_on_c, 0, 68, 30
3, 10423, Note_on_c, 0, 76, 0
3, 10425, Note_on_c, 0, 74, 0
3, 10524, Note_on_c, 0, 68, 0
3, 10529, Note_on_c, 0, 54, 0
3, 10702, Note_on_c, 0, 74, 54
3, 10744, Note_on_c, 0, 74, 0
3, 10793, Note_on_c, 0, 65, 42
3, 10798, Note_on_c, 0, 58, 33
3, 10799, Note_on_c, 0, 70, 46
3, 10802, Note_on_c, 0, 62, 27
3, 10802, Note_on_c, 0, 55, 32
3, 10803, Note_on_c, 0, 67, 36
3, 10809, Control_c, 0, 64, 0
3, 10940, Control_c, 0, 64, 127
3, 11004, Note_on_c, 0, 62, 0
3, 11022, Note_on_c, 0, 67, 0
3, 11033, Note_on_c, 0, 58, 0
3, 11043, Note_on_c, 0, 65, 0
3, 11177, Note_on_c, 0, 62, 25
3, 11179, Note_on_c, 0, 58, 25
3, 11224, Note_on_c, 0, 70, 0
3, 11310, Note_on_c, 0, 55, 0
3, 11327, Note_on_c, 0, 62, 0
3, 11348, Note_on_c, 0, 58, 0
3, 11459, Note_on_c, 0, 88, 94
3, 11535, Note_on_c, 0, 88, 0
3, 11578, Note_on_c, 0, 80, 57
3, 11579, Note_on_c, 0, 88, 66
3, 11580, Note_on_c, 0, 76, 64
3, 11582, Note_on_c, 0, 85, 61
3, 11582, Note_on_c, 0, 58, 38
3, 11585, Note_on_c, 0, 61, 42
3, 11587, Control_c, 0, 64, 0
3, 11589, Note_on_c, 0, 64, 34
3, 11665, Control_c, 0, 64, 127
3, 11712, Note_on_c, 0, 88, 0
3, 11721, Note_on_c, 0, 85, 0
3, 11730, Note_on_c, 0, 76, 0
3, 11733, Note_on_c, 0, 80, 0
3, 11771, Note_on_c, 0, 64, 0
3, 11821, Note_on_c, 0, 61, 0
3, 11876, Note_on_c, 0, 58, 0
3, 11939, Note_on_c, 0, 68, 77
3, 11940, Note_on_c, 0, 76, 74
3, 11940, Note_on_c, 0, 73, 65
3, 11941, Note_on_c, 0, 64, 77
3, 11944, Note_on_c, 0, 58, 56
3, 11947, Note_on_c, 0, 61, 49
3, 11959, Control_c, 0, 64, 0
3, 12011, Control_c, 0, 64, 127
3, 12052, Note_on_c, 0, 76, 0
3, 12063, Note_on_c, 0, 64, 0
3, 12067, Note_on_c, 0, 73, 0
3, 12079, Note_on_c, 0, 61, 0
3, 12087, Note_on_c, 0, 68, 0
3, 12098, Note_on_c, 0, 58, 0
3, 12141, Note_on_c, 0, 63, 69
3, 12142, Note_on_c, 0, 73, 65
3, 12143, Note_on_c, 0, 68, 76
3, 12146, Note_on_c, 0, 58, 64
3, 12153, Control_c, 0, 64, 0
3, 12186, Control_c, 0, 64, 127
3, 12261, Note_on_c, 0, 73, 0
3, 12270, Note_on_c, 0, 63, 0
3, 12275, Note_on_c, 0, 68, 0
3, 12305, Note_on_c, 0, 58, 0
3, 12312, Control_c, 0, 64, 0
3, 12315, Note_on_c, 0, 67, 54
3, 12316, Note_on_c, 0, 72, 58
3, 12317, Note_on_c, 0, 62, 53
3, 12323, Note_on_c, 0, 57, 49
3, 12376, Control_c, 0, 64, 127
3, 12431, Note_on_c, 0, 62, 0
3, 12446, Note_on_c, 0, 67, 0
3, 12455, Note_on_c, 0, 72, 0
3, 12482, Note_on_c, 0, 57, 0
3, 12523, Note_on_c, 0, 65, 87
3, 12524, Note_on_c, 0, 53, 89
3, 12525, Note_on_c, 0, 77, 83
3, 12547, Control_c, 0, 64, 0
3, 12595, Control_c, 0, 64, 127
3, 12665, Note_on_c, 0, 77, 0
3, 12669, Note_on_c, 0, 65, 0
3, 12682, Note_on_c, 0, 53, 0
3, 12706, Note_on_c, 0, 53, 89
3, 12711, Note_on_c, 0, 77, 82
3, 12711, Note_on_c, 0, 65, 85
3, 12717, Control_c, 0, 64, 0
3, 12763, Control_c, 0, 64, 127
3, 12839, Note_on_c, 0, 65, 0
3, 12845, Note_on_c, 0, 77, 0
3, 12896, Note_on_c, 0, 67, 88
3, 12896, Note_on_c, 0, 79, 82
3, 12898, Note_on_c, 0, 55, 89
3, 12900, Note_on_c, 0, 53, 0
3, 12904, Control_c, 0, 64, 0
3, 12956, Control_c, 0, 64, 127
3, 13006, Note_on_c, 0, 67, 0
3, 13008, Note_on_c, 0, 79, 0
3, 13083, Control_c, 0, 64, 0
3, 13090, Note_on_c, 0, 81, 85
3, 13091, Note_on_c, 0, 69, 88
3, 13095, Note_on_c, 0, 55, 0
3, 13095, Note_on_c, 0, 57, 73
3, 13138, Control_c, 0, 64, 127
3, 13147, Note_on_c, 0, 69, 0
3, 13168, Note_on_c, 0, 81, 0
3, 13259, Note_on_c, 0, 57, 0
3, 13280, Note_on_c, 0, 84, 87
3, 13281, Note_on_c, 0, 72, 88
3, 13283, Note_on_c, 0, 60, 83
3, 13284, Control_c, 0, 64, 0
3, 13340, Control_c, 0, 64, 127
3, 13404, Note_on_c, 0, 72, 0
3, 13406, Note_on_c, 0, 84, 0
3, 13466, Control_c, 0, 64, 0
3, 13468, Note_on_c, 0, 74, 77
3, 13468, Note_on_c, 0, 86, 76
3, 13469, Note_on_c, 0, 60, 0
3, 13472, Note_on_c, 0, 62, 71
3, 13510, Control_c, 0, 64, 127
3, 13517, Note_on_c, 0, 74, 0
3, 13535, Note_on_c, 0, 86, 0
3, 13660, Note_on_c, 0, 89, 77
3, 13663, Note_on_c, 0, 62, 0
3, 13663, Note_on_c, 0, 77, 62
3, 13668, Note_on_c, 0, 65, 36
3, 13685, Note_on_c, 0, 65, 0
3, 13716, Note_on_c, 0, 77, 0
3, 13736, Note_on_c, 0, 89, 0
3, 13846, Control_c, 0, 64, 0
3, 13847, Note_on_c, 0, 91, 58
3, 13850, Note_on_c, 0, 79, 51
3, 13853, Note_on_c, 0, 53, 35
3, 13858, Note_on_c, 0, 57, 30
3, 13861, Note_on_c, 0, 50, 41
3, 13935, Control_c, 0, 64, 127
3, 14042, Note_on_c, 0, 91, 0
3, 14046, Note_on_c, 0, 79, 0
3, 14307, Control_c, 0, 64, 0
3, 14433, Note_on_c, 0, 79, 92
3, 14440, Note_on_c, 0, 50, 0
3, 14443, Note_on_c, 0, 53, 0
3, 14444, Note_on_c, 0, 57, 0
3, 14522, Note_on_c, 0, 79, 0
3, 14530, Note_on_c, 0, 77, 80
3, 14599, Note_on_c, 0, 77, 0
3, 14651, Note_on_c, 0, 79, 83
3, 14759, Note_on_c, 0, 79, 0
3, 14760, Note_on_c, 0, 77, 66
3, 14864, Note_on_c, 0, 73, 59
3, 15076, Control_c, 0, 64, 127
3, 15327, Note_on_c, 0, 73, 0
3, 15368, Note_on_c, 0, 72, 29
3, 15372, Note_on_c, 0, 69, 50
3, 15377, Note_on_c, 0, 60, 36
3, 15378, Note_on_c, 0, 57, 29
3, 15383, Note_on_c, 0, 50, 36
3, 15385, Control_c, 0, 64, 0
3, 15483, Control_c, 0, 64, 127
3, 15611, Note_on_c, 0, 69, 0
3, 15664, Note_on_c, 0, 77, 0
3, 15671, Note_on_c, 0, 72, 0
3, 15782, Note_on_c, 0, 60, 0
3, 15810, Note_on_c, 0, 57, 0
3, 15828, Note_on_c, 0, 50, 0
3, 15979, Note_on_c, 0, 77, 81
3, 15981, Note_on_c, 0, 65, 82
3, 15983, Note_on_c, 0, 72, 71
3, 15993, Note_on_c, 0, 75, 29
3, 16006, Note_on_c, 0, 75, 0
3, 16022, Note_on_c, 0, 65, 0
3, 16034, Note_on_c, 0, 77, 0
3, 16040, Note_on_c, 0, 72, 0
3, 16070, Note_on_c, 0, 79, 87
3, 16116, Note_on_c, 0, 79, 0
3, 16171, Note_on_c, 0, 77, 78
3, 16174, Note_on_c, 0, 65, 70
3, 16175, Note_on_c, 0, 72, 65
3, 16177, Note_on_c, 0, 59, 56
3, 16178, Control_c, 0, 64, 0
3, 16185, Note_on_c, 0, 50, 37
3, 16194, Note_on_c, 0, 65, 0
3, 16200, Note_on_c, 0, 59, 0
3, 16201, Note_on_c, 0, 50, 0
3, 16201, Note_on_c, 0, 72, 0
3, 16210, Note_on_c, 0, 77, 0
3, 16325, Note_on_c, 0, 76, 53
3, 16333, Note_on_c, 0, 71, 44
3, 16336, Note_on_c, 0, 65, 25
3, 16341, Note_on_c, 0, 59, 30
3, 16345, Note_on_c, 0, 57, 28
3, 16345, Note_on_c, 0, 50, 36
3, 16439, Control_c, 0, 64, 127
3, 16632, Note_on_c, 0, 50, 0
3, 16648, Note_on_c, 0, 59, 0
3, 16651, Note_on_c, 0, 57, 0
3, 16748, Note_on_c, 0, 65, 0
3, 16764, Note_on_c, 0, 76, 0
3, 16771, Note_on_c, 0, 71, 0
3, 16805, Note_on_c, 0, 74, 65
3, 16860, Note_on_c, 0, 74, 0
3, 16945, Note_on_c, 0, 62, 49
3, 16945, Note_on_c, 0, 57, 48
3, 16948, Note_on_c, 0, 58, 50
3, 16952, Control_c, 0, 64, 0
3, 16954, Note_on_c, 0, 72, 74
3, 17090, Note_on_c, 0, 71, 66
3, 17104, Note_on_c, 0, 72, 0
3, 17122, Note_on_c, 0, 70, 69
3, 17132, Note_on_c, 0, 71, 0
3, 17171, Note_on_c, 0, 69, 49
3, 17177, Note_on_c, 0, 70, 0
3, 17295, Control_c, 0, 64, 127
3, 17411, Control_c, 0, 64, 0
3, 17425, Note_on_c, 0, 70, 69
3, 17432, Note_on_c, 0, 69, 0
3, 17475, Note_on_c, 0, 70, 0
3, 17481, Note_on_c, 0, 71, 66
3, 17528, Note_on_c, 0, 71, 0
3, 17533, Note_on_c, 0, 72, 30
3, 17558, Note_on_c, 0, 73, 78
3, 17566, Note_on_c, 0, 72, 0
3, 17610, Note_on_c, 0, 74, 82
3, 17622, Note_on_c, 0, 73, 0
3, 17678, Control_c, 0, 64, 127
3, 17806, Note_on_c, 0, 74, 0
3, 17863, Note_on_c, 0, 73, 57
3, 17893, Note_on_c, 0, 73, 0
3, 17902, Note_on_c, 0, 72, 52
3, 17905, Control_c, 0, 64, 0
3, 17906, Note_on_c, 0, 62, 0
3, 17910, Note_on_c, 0, 57, 0
3, 17913, Note_on_c, 0, 58, 0
3, 17945, Note_on_c, 0, 72, 0
3, 17945, Note_on_c, 0, 71, 48
3, 17982, Note_on_c, 0, 71, 0
3, 17984, Note_on_c, 0, 70, 55
3, 18016, Note_on_c, 0, 69, 53
3, 18019, Note_on_c, 0, 70, 0
3, 18147, Note_on_c, 0, 62, 36
3, 18147, Note_on_c, 0, 58, 37
3, 18155, Note_on_c, 0, 54, 36
3, 18194, Note_on_c, 0, 58, 0
3, 18195, Note_on_c, 0, 54, 0
3, 18200, Note_on_c, 0, 62, 0
3, 18285, Note_on_c, 0, 54, 45
3, 18286, Note_on_c, 0, 62, 32
3, 18296, Note_on_c, 0, 58, 31
3, 18348, Control_c, 0, 64, 127
3, 18380, Note_on_c, 0, 62, 0
3, 18391, Note_on_c, 0, 58, 0
3, 18397, Note_on_c, 0, 54, 0
3, 18434, Control_c, 0, 64, 0
3, 18438, Note_on_c, 0, 62, 31
3, 18445, Note_on_c, 0, 58, 25
3, 18449, Note_on_c, 0, 53, 34
3, 18527, Control_c, 0, 64, 127
3, 18698, Note_on_c, 0, 69, 0
3, 18713, Note_on_c, 0, 53, 0
3, 18717, Note_on_c, 0, 62, 0
3, 18735, Note_on_c, 0, 58, 0
3, 18858, Note_on_c, 0, 81, 91
3, 18860, Note_on_c, 0, 69, 94
3, 18867, Note_on_c, 0, 58, 77
3, 18867, Note_on_c, 0, 62, 84
3, 18869, Note_on_c, 0, 53, 80
3, 18916, Note_on_c, 0, 69, 0
3, 18931, Note_on_c, 0, 81, 0
3, 18955, Note_on_c, 0, 53, 0
3, 18964, Note_on_c, 0, 58, 0
3, 18965, Note_on_c, 0, 62, 0
3, 19049, Note_on_c, 0, 84, 89
3, 19051, Control_c, 0, 64, 0
3, 19052, Note_on_c, 0, 72, 88
3, 19053, Note_on_c, 0, 58, 74
3, 19055, Note_on_c, 0, 53, 83
3, 19055, Note_on_c, 0, 62, 82
3, 19101, Control_c, 0, 64, 127
3, 19138, Note_on_c, 0, 72, 0
3, 19140, Note_on_c, 0, 53, 0
3, 19143, Note_on_c, 0, 84, 0
3, 19165, Note_on_c, 0, 62, 0
3, 19182, Note_on_c, 0, 58, 0
3, 19234, Control_c, 0, 64, 0
3, 19244, Note_on_c, 0, 58, 72
3, 19246, Note_on_c, 0, 62, 74
3, 19246, Note_on_c, 0, 52, 79
3, 19247, Note_on_c, 0, 86, 84
3, 19248, Note_on_c, 0, 74, 83
3, 19250, Note_on_c, 0, 79, 73
3, 19251, Note_on_c, 0, 82, 64
3, 19301, Control_c, 0, 64, 127
3, 19308, Note_on_c, 0, 86, 0
3, 19312, Note_on_c, 0, 79, 0
3, 19316, Note_on_c, 0, 82, 0
3, 19326, Note_on_c, 0, 74, 0
3, 19357, Note_on_c, 0, 52, 0
3, 19374, Note_on_c, 0, 58, 0
3, 19379, Note_on_c, 0, 62, 0
3, 19535, Control_c, 0, 64, 0
3, 19539, Note_on_c, 0, 80, 69
3, 19541, Note_on_c, 0, 68, 78
3, 19546, Control_c, 0, 64, 127
3, 19547, Note_on_c, 0, 75, 60
3, 19547, Note_on_c, 0, 58, 69
3, 19549, Note_on_c, 0, 62, 67
3, 19555, Note_on_c, 0, 52, 48
3, 19559, Note_on_c, 0, 75, 0
3, 19565, Note_on_c, 0, 62, 0
3, 19569, Note_on_c, 0, 52, 0
3, 19581, Note_on_c, 0, 68, 0
3, 19581, Note_on_c, 0, 80, 0
3, 19612, Note_on_c, 0, 58, 0
3, 19617, Control_c, 0, 64, 0
3, 19645, Note_on_c, 0, 79, 64
3, 19646, Note_on_c, 0, 73, 60
3, 19647, Note_on_c, 0, 67, 62
3, 19651, Note_on_c, 0, 76, 55
3, 19652, Note_on_c, 0, 61, 67
3, 19657, Note_on_c, 0, 77, 41
3, 19671, Note_on_c, 0, 77, 0
3, 19685, Note_on_c, 0, 76, 0
3, 19691, Control_c, 0, 64, 127
3, 19706, Note_on_c, 0, 79, 0
3, 19710, Note_on_c, 0, 73, 0
3, 19719, Note_on_c, 0, 67, 0
3, 19720, Note_on_c, 0, 61, 0
3, 19766, Control_c, 0, 64, 0
3, 19772, Note_on_c, 0, 77, 55
3, 19775, Note_on_c, 0, 61, 53
3, 19779, Note_on_c, 0, 72, 54
3, 19780, Note_on_c, 0, 67, 44
3, 19828, Note_on_c, 0, 77, 0
3, 19832, Note_on_c, 0, 72, 0
3, 19840, Control_c, 0, 64, 127
3, 19868, Note_on_c, 0, 67, 0
3, 19899, Note_on_c, 0, 61, 0
3, 19925, Note_on_c, 0, 76, 49
3, 19929, Note_on_c, 0, 65, 48
3, 19933, Note_on_c, 0, 69, 51
3, 19940, Note_on_c, 0, 60, 46
3, 19948, Control_c, 0, 64, 0
3, 20034, Control_c, 0, 64, 127
3, 20190, Note_on_c, 0, 76, 0
3, 20192, Note_on_c, 0, 69, 0
3, 20212, Note_on_c, 0, 65, 0
3, 20218, Note_on_c, 0, 60, 0
3, 20356, Note_on_c, 0, 72, 44
3, 20358, Note_on_c, 0, 69, 52
3, 20359, Note_on_c, 0, 65, 46
3, 20363, Note_on_c, 0, 60, 41
3, 20369, Control_c, 0, 64, 0
3, 20369, Note_on_c, 0, 57, 28
3, 20425, Control_c, 0, 64, 127
3, 20541, Note_on_c, 0, 69, 0
3, 20558, Note_on_c, 0, 60, 0
3, 20569, Note_on_c, 0, 72, 0
3, 20629, Note_on_c, 0, 57, 0
3, 20631, Note_on_c, 0, 65, 0
3, 20747, Note_on_c, 0, 65, 33
3, 20751, Note_on_c, 0, 60, 40
3, 20763, Note_on_c, 0, 65, 0
3, 20779, Note_on_c, 0, 60, 0
3, 21063, Note_on_c, 0, 65, 68
3, 21065, Control_c, 0, 64, 0
3, 21066, Note_on_c, 0, 57, 71
3, 21066, Note_on_c, 0, 60, 73
3, 21067, Note_on_c, 0, 50, 63
3, 21085, Note_on_c, 0, 64, 29
3, 21094, Control_c, 0, 64, 127
3, 21151, Note_on_c, 0, 57, 0
3, 21153, Note_on_c, 0, 65, 0
3, 21155, Note_on_c, 0, 60, 0
3, 21173, Note_on_c, 0, 64, 0
3, 21226, Note_on_c, 0, 67, 68
3, 21229, Control_c, 0, 64, 0
3, 21230, Note_on_c, 0, 61, 74
3, 21230, Note_on_c, 0, 58, 74
3, 21235, Note_on_c, 0, 50, 0
3, 21238, Note_on_c, 0, 64, 59
3, 21240, Note_on_c, 0, 52, 73
3, 21244, Note_on_c, 0, 65, 35
3, 21263, Note_on_c, 0, 65, 0
3, 21273, Control_c, 0, 64, 127
3, 21291, Note_on_c, 0, 67, 0
3, 21291, Note_on_c, 0, 64, 0
3, 21293, Note_on_c, 0, 58, 0
3, 21308, Note_on_c, 0, 61, 0
3, 21355, Control_c, 0, 64, 0
3, 21366, Note_on_c, 0, 69, 78
3, 21368, Note_on_c, 0, 60, 81
3, 21370, Note_on_c, 0, 62, 71
3, 21371, Note_on_c, 0, 65, 67
3, 21379, Note_on_c, 0, 53, 69
3, 21382, Note_on_c, 0, 52, 0
3, 21397, Note_on_c, 0, 60, 0
3, 21402, Note_on_c, 0, 62, 0
3, 21407, Control_c, 0, 64, 127
3, 21411, Note_on_c, 0, 65, 0
3, 21420, Note_on_c, 0, 69, 0
3, 21421, Note_on_c, 0, 53, 0
3, 21497, Control_c, 0, 64, 0
3, 21506, Note_on_c, 0, 72, 72
3, 21508, Note_on_c, 0, 69, 69
3, 21508, Note_on_c, 0, 62, 71
3, 21510, Note_on_c, 0, 65, 72
3, 21515, Note_on_c, 0, 57, 59
3, 21549, Note_on_c, 0, 65, 0
3, 21550, Note_on_c, 0, 62, 0
3, 21553, Control_c, 0, 64, 127
3, 21564, Note_on_c, 0, 69, 0
3, 21570, Note_on_c, 0, 57, 0
3, 21573, Note_on_c, 0, 72, 0
3, 21664, Control_c, 0, 64, 0
3, 21669, Note_on_c, 0, 76, 66
3, 21674, Note_on_c, 0, 68, 71
3, 21680, Note_on_c, 0, 71, 49
3, 21681, Note_on_c, 0, 64, 64
3, 21681, Note_on_c, 0, 65, 64
3, 21695, Note_on_c, 0, 74, 24
3, 21738, Control_c, 0, 64, 127
3, 21768, Note_on_c, 0, 74, 0
3, 21772, Note_on_c, 0, 68, 0
3, 21772, Note_on_c, 0, 65, 0
3, 21779, Note_on_c, 0, 71, 0
3, 21781, Note_on_c, 0, 76, 0
3, 21783, Note_on_c, 0, 64, 0
3, 21806, Control_c, 0, 64, 0
3, 21820, Note_on_c, 0, 76, 61
3, 21823, Note_on_c, 0, 68, 54
3, 21824, Note_on_c, 0, 65, 53
3, 21824, Note_on_c, 0, 71, 52
3, 21830, Note_on_c, 0, 64, 49
3, 21840, Note_on_c, 0, 74, 22
3, 21865, Control_c, 0, 64, 127
3, 21901, Note_on_c, 0, 65, 0
3, 21904, Note_on_c, 0, 68, 0
3, 21909, Note_on_c, 0, 71, 0
3, 21909, Note_on_c, 0, 64, 0
3, 21912, Note_on_c, 0, 76, 0
3, 21915, Note_on_c, 0, 74, 0
3, 21954, Note_on_c, 0, 76, 57
3, 21961, Note_on_c, 0, 68, 50
3, 21962, Note_on_c, 0, 65, 61
3, 21964, Note_on_c, 0, 64, 35
3, 21967, Note_on_c, 0, 71, 49
3, 21992, Note_on_c, 0, 76, 0
3, 22006, Note_on_c, 0, 71, 0
3, 22008, Note_on_c, 0, 65, 0
3, 22014, Note_on_c, 0, 68, 0
3, 22041, Note_on_c, 0, 64, 0
3, 22055, Control_c, 0, 64, 0
3, 22061, Note_on_c, 0, 75, 59
3, 22069, Note_on_c, 0, 63, 38
3, 22072, Note_on_c, 0, 68, 33
3, 22073, Note_on_c, 0, 65, 48
3, 22077, Control_c, 0, 64, 127
3, 22085, Note_on_c, 0, 63, 0
3, 22108, Note_on_c, 0, 65, 0
3, 22110, Note_on_c, 0, 68, 0
3, 22114, Note_on_c, 0, 75, 0
3, 22181, Control_c, 0, 64, 0
3, 22185, Note_on_c, 0, 71, 40
3, 22187, Note_on_c, 0, 74, 51
3, 22187, Note_on_c, 0, 64, 52
3, 22189, Note_on_c, 0, 68, 50
3, 22198, Note_on_c, 0, 54, 37
3, 22206, Note_on_c, 0, 60, 33
3, 22289, Control_c, 0, 64, 127
3, 22489, Note_on_c, 0, 60, 0
3, 22532, Note_on_c, 0, 71, 0
3, 22555, Note_on_c, 0, 68, 0
3, 22560, Note_on_c, 0, 64, 0
3, 22641, Note_on_c, 0, 74, 0
3, 22653, Note_on_c, 0, 68, 35
3, 22659, Note_on_c, 0, 71, 24
3, 22660, Note_on_c, 0, 64, 32
3, 22660, Note_on_c, 0, 60, 32
3, 22742, Note_on_c, 0, 64, 0
3, 22761, Note_on_c, 0, 68, 0
3, 22766, Note_on_c, 0, 71, 0
3, 22847, Note_on_c, 0, 60, 0
3, 22853, Note_on_c, 0, 54, 0
3, 22981, Note_on_c, 0, 84, 75
3, 22986, Note_on_c, 0, 72, 61
3, 23012, Note_on_c, 0, 84, 0
3, 23017, Note_on_c, 0, 72, 0
3, 23059, Control_c, 0, 64, 0
3, 23060, Note_on_c, 0, 58, 29
3, 23060, Note_on_c, 0, 62, 24
3, 23062, Note_on_c, 0, 53, 24
3, 23063, Note_on_c, 0, 82, 57
3, 23064, Note_on_c, 0, 70, 55
3, 23065, Note_on_c, 0, 57, 26
3, 23081, Note_on_c, 0, 70, 0
3, 23086, Note_on_c, 0, 57, 0
3, 23092, Note_on_c, 0, 62, 0
3, 23092, Note_on_c, 0, 82, 0
3, 23097, Note_on_c, 0, 53, 0
3, 23099, Note_on_c, 0, 58, 0
3, 23189, Note_on_c, 0, 82, 67
3, 23193, Note_on_c, 0, 70, 52
3, 23193, Note_on_c, 0, 58, 34
3, 23197, Note_on_c, 0, 62, 29
3, 23199, Note_on_c, 0, 57, 29
3, 23201, Note_on_c, 0, 53, 33
3, 23217, Note_on_c, 0, 70, 0
3, 23221, Note_on_c, 0, 57, 0
3, 23223, Note_on_c, 0, 62, 0
3, 23224, Note_on_c, 0, 82, 0
3, 23228, Note_on_c, 0, 53, 0
3, 23237, Note_on_c, 0, 58, 0
3, 23281, Note_on_c, 0, 82, 37
3, 23282, Note_on_c, 0, 58, 19
3, 23283, Note_on_c, 0, 70, 27
3, 23296, Note_on_c, 0, 70, 0
3, 23296, Note_on_c, 0, 82, 0
3, 23318, Note_on_c, 0, 58, 0
3, 23395, Note_on_c, 0, 70, 52
3, 23395, Note_on_c, 0, 82, 49
3, 23396, Note_on_c, 0, 62, 32
3, 23398, Note_on_c, 0, 58, 32
3, 23402, Note_on_c, 0, 57, 31
3, 23403, Note_on_c, 0, 53, 25
3, 23421, Note_on_c, 0, 57, 0
3, 23424, Note_on_c, 0, 70, 0
3, 23426, Note_on_c, 0, 82, 0
3, 23426, Note_on_c, 0, 62, 0
3, 23426, Note_on_c, 0, 53, 0
3, 23432, Note_on_c, 0, 58, 0
3, 23470, Control_c, 0, 64, 127
3, 23480, Note_on_c, 0, 82, 56
3, 23481, Note_on_c, 0, 58, 30
3, 23482, Note_on_c, 0, 70, 44
3, 23483, Note_on_c, 0, 62, 24
3, 23486, Note_on_c, 0, 53, 22
3, 23491, Note_on_c, 0, 57, 28
3, 23510, Note_on_c, 0, 57, 0
3, 23511, Note_on_c, 0, 70, 0
3, 23518, Note_on_c, 0, 82, 0
3, 23520, Note_on_c, 0, 53, 0
3, 23525, Note_on_c, 0, 62, 0
3, 23525, Note_on_c, 0, 58, 0
3, 23581, Note_on_c, 0, 84, 65
3, 23587, Note_on_c, 0, 72, 40
3, 23601, Note_on_c, 0, 72, 0
3, 23610, Note_on_c, 0, 84, 0
3, 23652, Control_c, 0, 64, 0
3, 23661, Note_on_c, 0, 82, 59
3, 23663, Note_on_c, 0, 70, 50
3, 23666, Note_on_c, 0, 62, 29
3, 23669, Note_on_c, 0, 58, 30
3, 23673, Note_on_c, 0, 53, 24
3, 23676, Note_on_c, 0, 57, 26
3, 23682, Control_c, 0, 64, 127
3, 23723, Note_on_c, 0, 82, 0
3, 23731, Note_on_c, 0, 57, 0
3, 23744, Note_on_c, 0, 70, 0
3, 23747, Note_on_c, 0, 53, 0
3, 23759, Note_on_c, 0, 62, 0
3, 23764, Note_on_c, 0, 58, 0
3, 23943, Note_on_c, 0, 64, 60
3, 23945, Note_on_c, 0, 76, 45
3, 23945, Note_on_c, 0, 73, 39
3, 23949, Note_on_c, 0, 68, 46
3, 23951, Control_c, 0, 64, 0
3, 23951, Note_on_c, 0, 58, 46
3, 23952, Note_on_c, 0, 61, 50
3, 23961, Note_on_c, 0, 68, 0
3, 23964, Note_on_c, 0, 64, 0
3, 23967, Note_on_c, 0, 76, 0
3, 23970, Note_on_c, 0, 61, 0
3, 23973, Note_on_c, 0, 73, 0
3, 23981, Note_on_c, 0, 58, 0
3, 24085, Note_on_c, 0, 76, 56
3, 24086, Note_on_c, 0, 73, 48
3, 24087, Note_on_c, 0, 64, 58
3, 24090, Note_on_c, 0, 68, 53
3, 24094, Note_on_c, 0, 61, 51
3, 24095, Note_on_c, 0, 58, 44
3, 24121, Control_c, 0, 64, 127
3, 24141, Note_on_c, 0, 68, 0
3, 24145, Note_on_c, 0, 64, 0
3, 24152, Note_on_c, 0, 61, 0
3, 24158, Note_on_c, 0, 76, 0
3, 24158, Note_on_c, 0, 73, 0
3, 24163, Note_on_c, 0, 58, 0
3, 24210, Control_c, 0, 64, 0
3, 24232, Note_on_c, 0, 76, 56
3, 24234, Note_on_c, 0, 73, 56
3, 24236, Note_on_c, 0, 64, 53
3, 24239, Note_on_c, 0, 61, 48
3, 24241, Note_on_c, 0, 68, 56
3, 24243, Note_on_c, 0, 58, 43
3, 24281, Control_c, 0, 64, 127
3, 24421, Note_on_c, 0, 64, 0
3, 24429, Note_on_c, 0, 68, 0
3, 24460, Note_on_c, 0, 73, 0
3, 24467, Note_on_c, 0, 76, 0
3, 24479, Note_on_c, 0, 61, 0
3, 24527, Note_on_c, 0, 58, 0
3, 24593, Note_on_c, 0, 57, 47
3, 24595, Note_on_c, 0, 67, 47
3, 24595, Note_on_c, 0, 77, 51
3, 24598, Note_on_c, 0, 62, 38
3, 24598, Note_on_c, 0, 72, 48
3, 24601, Control_c, 0, 64, 0
3, 24724, Control_c, 0, 64, 127
3, 24849, Note_on_c, 0, 62, 0
3, 24856, Note_on_c, 0, 67, 0
3, 24869, Note_on_c, 0, 72, 0
3, 24991, Note_on_c, 0, 72, 44
3, 24993, Note_on_c, 0, 67, 35
3, 24998, Note_on_c, 0, 62, 29
3, 25065, Note_on_c, 0, 67, 0
3, 25080, Note_on_c, 0, 72, 0
3, 25097, Note_on_c, 0, 77, 0
3, 25106, Note_on_c, 0, 57, 0
3, 25122, Note_on_c, 0, 62, 0
3, 25356, Control_c, 0, 64, 0
3, 25366, Note_on_c, 0, 61, 73
3, 25366, Note_on_c, 0, 58, 71
3, 25366, Note_on_c, 0, 65, 83
3, 25366, Note_on_c, 0, 82, 83
3, 25367, Note_on_c, 0, 85, 78
3, 25368, Note_on_c, 0, 54, 79
3, 25369, Note_on_c, 0, 77, 88
3, 25369, Note_on_c, 0, 89, 89
3, 25418, Control_c, 0, 64, 127
3, 25529, Note_on_c, 0, 77, 0
3, 25551, Note_on_c, 0, 82, 0
3, 25554, Note_on_c, 0, 85, 0
3, 25563, Note_on_c, 0, 89, 0
3, 25609, Note_on_c, 0, 65, 0
3, 25634, Note_on_c, 0, 54, 0
3, 25668, Note_on_c, 0, 61, 0
3, 25691, Note_on_c, 0, 58, 0
3, 25871, Note_on_c, 0, 88, 78
3, 25872, Note_on_c, 0, 93, 82
3, 25872, Note_on_c, 0, 81, 78
3, 25878, Note_on_c, 0, 64, 65
3, 25879, Note_on_c, 0, 60, 70
3, 25882, Note_on_c, 0, 54, 64
3, 25892, Control_c, 0, 64, 0
3, 25904, Note_on_c, 0, 81, 0
3, 25911, Control_c, 0, 64, 127
3, 25924, Note_on_c, 0, 88, 0
3, 25930, Note_on_c, 0, 93, 0
3, 25943, Note_on_c, 0, 54, 0
3, 25945, Note_on_c, 0, 64, 0
3, 25950, Note_on_c, 0, 60, 0
3, 26005, Note_on_c, 0, 85, 74
3, 26005, Note_on_c, 0, 97, 73
3, 26006, Note_on_c, 0, 92, 71
3, 26011, Note_on_c, 0, 64, 52
3, 26012, Note_on_c, 0, 60, 62
3, 26012, Note_on_c, 0, 54, 60
3, 26043, Note_on_c, 0, 64, 0
3, 26046, Note_on_c, 0, 60, 0
3, 26052, Note_on_c, 0, 92, 0
3, 26067, Note_on_c, 0, 97, 0
3, 26070, Note_on_c, 0, 85, 0
3, 26077, Note_on_c, 0, 54, 0
3, 26133, Note_on_c, 0, 84, 68
3, 26135, Note_on_c, 0, 92, 45
3, 26136, Note_on_c, 0, 63, 64
3, 26138, Note_on_c, 0, 96, 48
3, 26140, Note_on_c, 0, 53, 60
3, 26144, Note_on_c, 0, 58, 57
3, 26155, Control_c, 0, 64, 0
3, 26223, Control_c, 0, 64, 127
3, 26264, Note_on_c, 0, 96, 0
3, 26291, Note_on_c, 0, 92, 0
3, 26295, Note_on_c, 0, 84, 0
3, 26415, Note_on_c, 0, 58, 0
3, 26426, Note_on_c, 0, 63, 0
3, 26511, Note_on_c, 0, 63, 44
3, 26515, Note_on_c, 0, 58, 43
3, 26668, Note_on_c, 0, 53, 0
3, 26696, Note_on_c, 0, 58, 0
3, 26700, Note_on_c, 0, 63, 0
3, 26768, Note_on_c, 0, 70, 62
3, 26813, Note_on_c, 0, 70, 0
3, 26915, Control_c, 0, 64, 0
3, 27001, Note_on_c, 0, 68, 63
3, 27003, Note_on_c, 0, 72, 61
3, 27004, Note_on_c, 0, 75, 53
3, 27007, Note_on_c, 0, 61, 49
3, 27009, Note_on_c, 0, 63, 40
3, 27012, Note_on_c, 0, 65, 40
3, 27013, Note_on_c, 0, 68, 0
3, 27016, Note_on_c, 0, 72, 0
3, 27018, Note_on_c, 0, 75, 0
3, 27025, Note_on_c, 0, 65, 0
3, 27037, Note_on_c, 0, 63, 0
3, 27041, Note_on_c, 0, 61, 0
3, 27128, Note_on_c, 0, 75, 70
3, 27130, Note_on_c, 0, 68, 74
3, 27132, Note_on_c, 0, 72, 68
3, 27136, Note_on_c, 0, 63, 49
3, 27138, Note_on_c, 0, 61, 48
3, 27141, Note_on_c, 0, 65, 53
3, 27142, Control_c, 0, 64, 127
3, 27218, Note_on_c, 0, 72, 0
3, 27218, Note_on_c, 0, 68, 0
3, 27223, Note_on_c, 0, 65, 0
3, 27224, Note_on_c, 0, 75, 0
3, 27229, Note_on_c, 0, 63, 0
3, 27232, Note_on_c, 0, 61, 0
3, 27257, Control_c, 0, 64, 0
3, 27268, Note_on_c, 0, 68, 69
3, 27268, Note_on_c, 0, 75, 67
3, 27270, Note_on_c, 0, 72, 73
3, 27273, Note_on_c, 0, 61, 42
3, 27274, Note_on_c, 0, 63, 43
3, 27275, Note_on_c, 0, 65, 58
3, 27305, Control_c, 0, 64, 127
3, 27339, Note_on_c, 0, 75, 0
3, 27359, Note_on_c, 0, 72, 0
3, 27379, Note_on_c, 0, 68, 0
3, 27400, Note_on_c, 0, 73, 71
3, 27405, Note_on_c, 0, 68, 42
3, 27414, Note_on_c, 0, 65, 0
3, 27429, Note_on_c, 0, 63, 0
3, 27439, Note_on_c, 0, 68, 0
3, 27444, Note_on_c, 0, 61, 0
3, 27460, Note_on_c, 0, 73, 0
3, 27521, Note_on_c, 0, 72, 62
3, 27564, Note_on_c, 0, 72, 0
3, 27593, Note_on_c, 0, 70, 52
3, 27641, Control_c, 0, 64, 0
3, 27646, Note_on_c, 0, 70, 0
3, 27672, Note_on_c, 0, 65, 34
3, 27719, Note_on_c, 0, 65, 0
3, 27787, Note_on_c, 0, 65, 51
3, 27792, Note_on_c, 0, 61, 38
3, 27798, Note_on_c, 0, 58, 33
3, 27806, Note_on_c, 0, 54, 25
3, 27839, Note_on_c, 0, 65, 0
3, 27846, Note_on_c, 0, 54, 0
3, 27846, Note_on_c, 0, 58, 0
3, 27848, Note_on_c, 0, 61, 0
3, 27867, Control_c, 0, 64, 127
3, 27868, Note_on_c, 0, 61, 15
3, 27869, Note_on_c, 0, 63, 50
3, 27869, Note_on_c, 0, 58, 25
3, 27872, Note_on_c, 0, 54, 13
3, 27967, Note_on_c, 0, 61, 0
3, 27981, Note_on_c, 0, 54, 0
3, 27986, Note_on_c, 0, 58, 0
3, 28026, Note_on_c, 0, 63, 0
3, 28057, Note_on_c, 0, 65, 44
3, 28057, Note_on_c, 0, 61, 40
3, 28059, Note_on_c, 0, 58, 32
3, 28063, Note_on_c, 0, 54, 36
3, 28065, Control_c, 0, 64, 0
3, 28124, Control_c, 0, 64, 127
3, 28270, Note_on_c, 0, 54, 0
3, 28319, Note_on_c, 0, 58, 0
3, 28355, Note_on_c, 0, 65, 0
3, 28366, Note_on_c, 0, 63, 45
3, 28368, Note_on_c, 0, 54, 39
3, 28372, Note_on_c, 0, 58, 17
3, 28397, Note_on_c, 0, 63, 0
3, 28399, Note_on_c, 0, 54, 0
3, 28415, Note_on_c, 0, 61, 0
3, 28415, Note_on_c, 0, 58, 0
3, 28440, Control_c, 0, 64, 0
3, 28447, Note_on_c, 0, 66, 74
3, 28451, Note_on_c, 0, 60, 60
3, 28455, Note_on_c, 0, 54, 48
3, 28489, Control_c, 0, 64, 127
3, 28538, Note_on_c, 0, 54, 0
3, 28557, Note_on_c, 0, 60, 0
3, 28567, Note_on_c, 0, 66, 0
3, 28585, Note_on_c, 0, 54, 59
3, 28586, Note_on_c, 0, 69, 82
3, 28587, Note_on_c, 0, 65, 57
3, 28590, Note_on_c, 0, 60, 60
3, 28605, Control_c, 0, 64, 0
3, 28690, Control_c, 0, 64, 127
3, 28895, Note_on_c, 0, 54, 0
3, 28900, Note_on_c, 0, 65, 0
3, 28907, Note_on_c, 0, 60, 0
3, 28941, Note_on_c, 0, 68, 65
3, 28947, Note_on_c, 0, 65, 42
3, 28947, Note_on_c, 0, 60, 58
3, 28949, Note_on_c, 0, 54, 39
3, 28961, Note_on_c, 0, 69, 0
3, 28969, Control_c, 0, 64, 0
3, 28980, Control_c, 0, 64, 127
3, 29008, Note_on_c, 0, 65, 0
3, 29009, Note_on_c, 0, 54, 0
3, 29017, Note_on_c, 0, 60, 0
3, 29046, Note_on_c, 0, 68, 0
3, 29072, Note_on_c, 0, 66, 47
3, 29077, Note_on_c, 0, 60, 38
3, 29077, Note_on_c, 0, 54, 48
3, 29099, Note_on_c, 0, 60, 0
3, 29143, Note_on_c, 0, 54, 0
3, 29169, Note_on_c, 0, 66, 0
3, 29199, Note_on_c, 0, 53, 40
3, 29200, Control_c, 0, 64, 0
3, 29200, Note_on_c, 0, 63, 35
3, 29201, Note_on_c, 0, 65, 48
3, 29201, Note_on_c, 0, 58, 42
3, 29263, Control_c, 0, 64, 127
3, 29319, Note_on_c, 0, 72, 52
3, 29493, Note_on_c, 0, 65, 0
3, 29497, Note_on_c, 0, 63, 0
3, 29503, Note_on_c, 0, 58, 0
3, 29587, Note_on_c, 0, 65, 47
3, 29592, Note_on_c, 0, 58, 33
3, 29596, Note_on_c, 0, 63, 25
3, 29740, Note_on_c, 0, 53, 0
3, 29751, Note_on_c, 0, 63, 0
3, 29754, Note_on_c, 0, 65, 0
3, 29755, Note_on_c, 0, 58, 0
3, 29772, Note_on_c, 0, 72, 0
3, 29951, Control_c, 0, 64, 0
3, 29961, Note_on_c, 0, 56, 49
3, 29966, Note_on_c, 0, 78, 65
3, 29968, Note_on_c, 0, 66, 60
3, 29972, Note_on_c, 0, 62, 29
3, 29996, Control_c, 0, 64, 127
3, 30071, Note_on_c, 0, 56, 0
3, 30083, Note_on_c, 0, 62, 0
3, 30101, Note_on_c, 0, 66, 0
3, 30102, Note_on_c, 0, 78, 0
3, 30163, Control_c, 0, 64, 0
3, 30170, Note_on_c, 0, 79, 74
3, 30171, Note_on_c, 0, 67, 73
3, 30173, Note_on_c, 0, 62, 62
3, 30174, Note_on_c, 0, 56, 68
3, 30175, Note_on_c, 0, 66, 64
3, 30212, Control_c, 0, 64, 127
3, 30333, Note_on_c, 0, 66, 0
3, 30336, Note_on_c, 0, 67, 0
3, 30341, Note_on_c, 0, 79, 0
3, 30345, Note_on_c, 0, 62, 0
3, 30386, Note_on_c, 0, 56, 0
3, 30543, Note_on_c, 0, 82, 76
3, 30545, Note_on_c, 0, 70, 78
3, 30552, Note_on_c, 0, 66, 73
3, 30553, Note_on_c, 0, 56, 70
3, 30553, Note_on_c, 0, 62, 64
3, 30563, Control_c, 0, 64, 0
3, 30604, Control_c, 0, 64, 127
3, 30632, Note_on_c, 0, 62, 0
3, 30652, Note_on_c, 0, 66, 0
3, 30664, Note_on_c, 0, 70, 0
3, 30674, Note_on_c, 0, 82, 0
3, 30674, Note_on_c, 0, 56, 0
3, 30741, Control_c, 0, 64, 0
3, 30743, Note_on_c, 0, 60, 58
3, 30745, Note_on_c, 0, 65, 66
3, 30746, Note_on_c, 0, 61, 57
3, 30748, Note_on_c, 0, 83, 81
3, 30749, Note_on_c, 0, 71, 80
3, 30750, Note_on_c, 0, 55, 58
3, 30754, Note_on_c, 0, 58, 33
3, 30790, Control_c, 0, 64, 127
3, 30841, Note_on_c, 0, 55, 0
3, 30847, Note_on_c, 0, 83, 0
3, 30849, Note_on_c, 0, 71, 0
3, 30852, Note_on_c, 0, 60, 0
3, 30854, Note_on_c, 0, 65, 0
3, 30855, Note_on_c, 0, 58, 0
3, 30855, Note_on_c, 0, 61, 0
3, 30944, Note_on_c, 0, 60, 55
3, 30944, Note_on_c, 0, 61, 48
3, 30945, Note_on_c, 0, 72, 75
3, 30945, Note_on_c, 0, 84, 80
3, 30948, Note_on_c, 0, 65, 62
3, 30954, Note_on_c, 0, 55, 51
3, 30957, Control_c, 0, 64, 0
3, 30991, Control_c, 0, 64, 127
3, 31093, Note_on_c, 0, 55, 0
3, 31106, Note_on_c, 0, 72, 0
3, 31111, Note_on_c, 0, 65, 0
3, 31116, Note_on_c, 0, 61, 0
3, 31122, Note_on_c, 0, 84, 0
3, 31167, Note_on_c, 0, 60, 0
3, 31288, Control_c, 0, 64, 0
3, 31298, Note_on_c, 0, 61, 37
3, 31301, Note_on_c, 0, 65, 38
3, 31301, Note_on_c, 0, 87, 64
3, 31302, Note_on_c, 0, 60, 34
3, 31305, Note_on_c, 0, 55, 38
3, 31306, Note_on_c, 0, 75, 46
3, 31311, Note_on_c, 0, 82, 50
3, 31336, Control_c, 0, 64, 127
3, 31359, Note_on_c, 0, 60, 0
3, 31378, Note_on_c, 0, 55, 0
3, 31384, Note_on_c, 0, 65, 0
3, 31394, Note_on_c, 0, 61, 0
3, 31405, Note_on_c, 0, 75, 0
3, 31408, Note_on_c, 0, 87, 0
3, 31418, Note_on_c, 0, 82, 0
3, 31475, Control_c, 0, 64, 0
3, 31496, Note_on_c, 0, 76, 44
3, 31496, Note_on_c, 0, 65, 45
3, 31498, Note_on_c, 0, 88, 47
3, 31501, Note_on_c, 0, 83, 45
3, 31502, Note_on_c, 0, 58, 32
3, 31505, Note_on_c, 0, 60, 44
3, 31505, Note_on_c, 0, 54, 36
3, 31527, Control_c, 0, 64, 127
3, 31559, Note_on_c, 0, 76, 0
3, 31571, Note_on_c, 0, 60, 0
3, 31574, Note_on_c, 0, 83, 0
3, 31577, Note_on_c, 0, 88, 0
3, 31584, Note_on_c, 0, 58, 0
3, 31585, Note_on_c, 0, 65, 0
3, 31588, Note_on_c, 0, 54, 0
3, 31683, Note_on_c, 0, 89, 56
3, 31686, Note_on_c, 0, 54, 42
3, 31688, Note_on_c, 0, 65, 38
3, 31689, Note_on_c, 0, 60, 47
3, 31691, Note_on_c, 0, 84, 50
3, 31693, Note_on_c, 0, 77, 33
3, 31767, Note_on_c, 0, 77, 0
3, 31776, Note_on_c, 0, 54, 0
3, 31779, Note_on_c, 0, 65, 0
3, 31781, Note_on_c, 0, 84, 0
3, 31785, Note_on_c, 0, 89, 0
3, 31789, Note_on_c, 0, 60, 0
3, 31988, Note_on_c, 0, 92, 56
3, 31994, Note_on_c, 0, 80, 38
3, 31994, Note_on_c, 0, 65, 48
3, 31995, Note_on_c, 0, 54, 45
3, 31998, Note_on_c, 0, 87, 51
3, 31998, Note_on_c, 0, 60, 47
3, 32036, Note_on_c, 0, 80, 0
3, 32037, Note_on_c, 0, 65, 0
3, 32042, Note_on_c, 0, 92, 0
3, 32046, Note_on_c, 0, 60, 0
3, 32048, Note_on_c, 0, 87, 0
3, 32056, Note_on_c, 0, 54, 0
3, 32126, Note_on_c, 0, 94, 62
3, 32129, Note_on_c, 0, 60, 49
3, 32130, Note_on_c, 0, 87, 54
3, 32132, Note_on_c, 0, 54, 45
3, 32135, Note_on_c, 0, 82, 31
3, 32159, Note_on_c, 0, 87, 0
3, 32171, Note_on_c, 0, 82, 0
3, 32171, Note_on_c, 0, 60, 0
3, 32176, Note_on_c, 0, 94, 0
3, 32203, Note_on_c, 0, 54, 0
3, 32259, Note_on_c, 0, 63, 48
3, 32262, Note_on_c, 0, 96, 68
3, 32264, Note_on_c, 0, 84, 56
3, 32265, Note_on_c, 0, 92, 36
3, 32266, Note_on_c, 0, 58, 51
3, 32267, Note_on_c, 0, 89, 58
3, 32269, Note_on_c, 0, 53, 40
3, 32282, Control_c, 0, 64, 0
3, 32338, Control_c, 0, 64, 127
3, 32415, Note_on_c, 0, 96, 0
3, 32427, Note_on_c, 0, 89, 0
3, 32443, Note_on_c, 0, 92, 0
3, 32447, Note_on_c, 0, 84, 0
3, 32539, Note_on_c, 0, 63, 0
3, 32559, Note_on_c, 0, 58, 0
3, 32577, Note_on_c, 0, 53, 0
3, 32758, Note_on_c, 0, 82, 60
3, 32762, Note_on_c, 0, 70, 59
3, 32768, Note_on_c, 0, 63, 39
3, 32771, Note_on_c, 0, 58, 35
3, 32774, Note_on_c, 0, 75, 37
3, 32787, Note_on_c, 0, 75, 0
3, 32789, Note_on_c, 0, 63, 0
3, 32799, Note_on_c, 0, 70, 0
3, 32815, Note_on_c, 0, 82, 0
3, 32823, Note_on_c, 0, 58, 0
3, 32894, Note_on_c, 0, 84, 65
3, 32899, Note_on_c, 0, 72, 62
3, 32903, Note_on_c, 0, 63, 50
3, 32904, Note_on_c, 0, 58, 43
3, 32921, Note_on_c, 0, 84, 0
3, 32929, Note_on_c, 0, 72, 0
3, 32940, Note_on_c, 0, 63, 0
3, 32945, Note_on_c, 0, 58, 0
3, 33040, Note_on_c, 0, 75, 76
3, 33044, Note_on_c, 0, 65, 80
3, 33044, Note_on_c, 0, 68, 76
3, 33045, Note_on_c, 0, 72, 77
3, 33051, Note_on_c, 0, 63, 84
3, 33053, Control_c, 0, 64, 0
3, 33121, Control_c, 0, 64, 127
3, 33157, Note_on_c, 0, 68, 0
3, 33161, Note_on_c, 0, 65, 0
3, 33162, Note_on_c, 0, 75, 0
3, 33164, Note_on_c, 0, 63, 0
3, 33165, Note_on_c, 0, 72, 0
3, 33192, Note_on_c, 0, 75, 51
3, 33199, Note_on_c, 0, 63, 57
3, 33200, Note_on_c, 0, 68, 67
3, 33200, Note_on_c, 0, 65, 67
3, 33201, Note_on_c, 0, 72, 52
3, 33202, Control_c, 0, 64, 0
3, 33258, Control_c, 0, 64, 127
3, 33285, Note_on_c, 0, 65, 0
3, 33288, Note_on_c, 0, 68, 0
3, 33290, Note_on_c, 0, 72, 0
3, 33293, Note_on_c, 0, 75, 0
3, 33329, Note_on_c, 0, 63, 0
3, 33329, Note_on_c, 0, 73, 64
3, 33333, Note_on_c, 0, 65, 50
3, 33333, Note_on_c, 0, 68, 57
3, 33334, Note_on_c, 0, 61, 61
3, 33397, Note_on_c, 0, 68, 0
3, 33398, Note_on_c, 0, 65, 0
3, 33407, Note_on_c, 0, 61, 0
3, 33409, Note_on_c, 0, 73, 0
3, 33444, Control_c, 0, 64, 0
3, 33445, Note_on_c, 0, 73, 55
3, 33449, Note_on_c, 0, 68, 64
3, 33453, Note_on_c, 0, 65, 64
3, 33455, Note_on_c, 0, 61, 51
3, 33467, Control_c, 0, 64, 127
3, 33482, Note_on_c, 0, 68, 0
3, 33485, Note_on_c, 0, 73, 0
3, 33487, Note_on_c, 0, 65, 0
3, 33544, Note_on_c, 0, 61, 0
3, 33568, Note_on_c, 0, 72, 61
3, 33572, Note_on_c, 0, 65, 68
3, 33573, Note_on_c, 0, 68, 53
3, 33573, Note_on_c, 0, 61, 51
3, 33574, Control_c, 0, 64, 0
3, 33587, Note_on_c, 0, 60, 50
3, 33630, Control_c, 0, 64, 127
3, 33639, Note_on_c, 0, 65, 0
3, 33647, Note_on_c, 0, 72, 0
3, 33648, Note_on_c, 0, 61, 0
3, 33650, Note_on_c, 0, 68, 0
3, 33672, Note_on_c, 0, 60, 0
3, 33694, Note_on_c, 0, 70, 58
3, 33696, Note_on_c, 0, 68, 36
3, 33697, Note_on_c, 0, 61, 34
3, 33703, Note_on_c, 0, 65, 47
3, 33707, Note_on_c, 0, 58, 33
3, 33726, Note_on_c, 0, 65, 0
3, 33731, Note_on_c, 0, 61, 0
3, 33733, Note_on_c, 0, 58, 0
3, 33764, Note_on_c, 0, 68, 0
3, 33773, Note_on_c, 0, 70, 0
3, 33819, Note_on_c, 0, 65, 61
3, 33824, Note_on_c, 0, 61, 46
3, 33827, Control_c, 0, 64, 0
3, 33828, Note_on_c, 0, 58, 52
3, 33830, Note_on_c, 0, 64, 25
3, 33843, Note_on_c, 0, 64, 0
3, 33856, Note_on_c, 0, 65, 0
3, 33863, Note_on_c, 0, 61, 0
3, 33873, Note_on_c, 0, 58, 0
3, 33954, Note_on_c, 0, 65, 56
3, 33958, Note_on_c, 0, 61, 34
3, 33962, Note_on_c, 0, 54, 32
3, 33966, Note_on_c, 0, 58, 31
3, 34029, Control_c, 0, 64, 127
3, 34150, Note_on_c, 0, 61, 0
3, 34158, Note_on_c, 0, 54, 0
3, 34160, Note_on_c, 0, 65, 0
3, 34160, Note_on_c, 0, 58, 0
3, 34216, Note_on_c, 0, 54, 37
3, 34217, Note_on_c, 0, 61, 29
3, 34217, Note_on_c, 0, 63, 53
3, 34218, Control_c, 0, 64, 0
3, 34229, Note_on_c, 0, 58, 21
3, 34245, Note_on_c, 0, 63, 0
3, 34249, Note_on_c, 0, 65, 62
3, 34258, Note_on_c, 0, 61, 0
3, 34285, Note_on_c, 0, 63, 39
3, 34290, Note_on_c, 0, 65, 0
3, 34311, Note_on_c, 0, 63, 0
3, 34337, Control_c, 0, 64, 127
3, 34348, Note_on_c, 0, 62, 48
3, 34383, Note_on_c, 0, 62, 0
3, 34384, Note_on_c, 0, 61, 10
3, 34397, Control_c, 0, 64, 0
3, 34412, Note_on_c, 0, 63, 50
3, 34442, Note_on_c, 0, 54, 0
3, 34447, Note_on_c, 0, 63, 0
3, 34461, Note_on_c, 0, 65, 53
3, 34464, Note_on_c, 0, 61, 0
3, 34502, Note_on_c, 0, 65, 0
3, 34502, Note_on_c, 0, 63, 36
3, 34512, Control_c, 0, 64, 127
3, 34526, Note_on_c, 0, 58, 0
3, 34547, Note_on_c, 0, 63, 0
3, 34553, Note_on_c, 0, 62, 31
3, 34582, Note_on_c, 0, 62, 0
3, 34583, Control_c, 0, 64, 0
3, 34602, Note_on_c, 0, 60, 30
3, 34606, Note_on_c, 0, 54, 34
3, 34622, Note_on_c, 0, 65, 30
3, 34772, Control_c, 0, 64, 127
3, 34807, Note_on_c, 0, 60, 0
3, 34815, Note_on_c, 0, 54, 0
3, 34843, Note_on_c, 0, 65, 0
3, 34881, Note_on_c, 0, 68, 67
3, 34886, Note_on_c, 0, 64, 36
3, 34887, Note_on_c, 0, 60, 38
3, 34892, Note_on_c, 0, 54, 26
3, 34900, Control_c, 0, 64, 0
3, 34955, Control_c, 0, 64, 127
3, 34975, Note_on_c, 0, 64, 0
3, 34975, Note_on_c, 0, 68, 0
3, 34986, Note_on_c, 0, 60, 0
3, 35031, Note_on_c, 0, 65, 48
3, 35037, Note_on_c, 0, 60, 22
3, 35094, Note_on_c, 0, 65, 0
3, 35118, Note_on_c, 0, 60, 0
3, 35151, Note_on_c, 0, 63, 57
3, 35170, Note_on_c, 0, 54, 0
3, 35223, Note_on_c, 0, 63, 0
3, 35327, Control_c, 0, 64, 0
3, 35332, Note_on_c, 0, 60, 57
3, 35340, Note_on_c, 0, 55, 34
3, 35342, Note_on_c, 0, 58, 37
3, 35395, Control_c, 0, 64, 127
3, 35410, Note_on_c, 0, 60, 0
3, 35471, Note_on_c, 0, 72, 69
3, 35496, Note_on_c, 0, 58, 0
3, 35542, Note_on_c, 0, 55, 0
3, 35560, Note_on_c, 0, 72, 0
3, 35604, Note_on_c, 0, 60, 65
3, 35617, Note_on_c, 0, 60, 0
3, 36211, Note_on_c, 0, 55, 71
3, 36236, Note_on_c, 0, 62, 31
3, 36240, Note_on_c, 0, 70, 62
3, 36252, Note_on_c, 0, 77, 68
3, 36257, Control_c, 0, 64, 0
3, 36261, Note_on_c, 0, 69, 62
3, 36265, Note_on_c, 0, 84, 71
3, 36309, Control_c, 0, 64, 127
3, 36369, Note_on_c, 0, 84, 0
3, 36409, Note_on_c, 0, 70, 0
3, 36415, Note_on_c, 0, 84, 80
3, 36506, Note_on_c, 0, 84, 0
3, 36564, Note_on_c, 0, 84, 78
3, 36574, Note_on_c, 0, 69, 0
3, 36626, Note_on_c, 0, 84, 0
3, 36644, Note_on_c, 0, 62, 0
3, 36668, Note_on_c, 0, 55, 0
3, 36680, Note_on_c, 0, 77, 0
3, 36686, Note_on_c, 0, 84, 66
3, 36755, Note_on_c, 0, 84, 0
3, 36849, Note_on_c, 0, 84, 65
3, 36850, Note_on_c, 0, 76, 50
3, 36855, Note_on_c, 0, 80, 52
3, 36858, Note_on_c, 0, 58, 44
3, 36859, Note_on_c, 0, 64, 32
3, 36860, Control_c, 0, 64, 0
3, 36946, Control_c, 0, 64, 127
3, 36991, Note_on_c, 0, 84, 0
3, 37046, Note_on_c, 0, 76, 0
3, 37058, Note_on_c, 0, 64, 0
3, 37058, Note_on_c, 0, 80, 0
3, 37099, Note_on_c, 0, 58, 0
3, 37255, Control_c, 0, 64, 0
3, 37292, Control_c, 0, 64, 127
3, 37631, Note_on_c, 0, 77, 80
3, 37632, Note_on_c, 0, 65, 85
3, 37634, Control_c, 0, 64, 0
3, 37640, Note_on_c, 0, 53, 77
3, 37671, Control_c, 0, 64, 127
3, 37756, Note_on_c, 0, 77, 0
3, 37757, Note_on_c, 0, 65, 0
3, 37821, Control_c, 0, 64, 0
3, 37822, Note_on_c, 0, 67, 89
3, 37822, Note_on_c, 0, 79, 83
3, 37824, Note_on_c, 0, 53, 0
3, 37825, Note_on_c, 0, 55, 83
3, 37843, Control_c, 0, 64, 127
3, 37899, Note_on_c, 0, 67, 0
3, 37909, Note_on_c, 0, 79, 0
3, 37965, Control_c, 0, 64, 0
3, 37988, Control_c, 0, 64, 127
3, 37989, Note_on_c, 0, 55, 0
3, 37993, Note_on_c, 0, 69, 79
3, 37994, Note_on_c, 0, 81, 75
3, 37995, Note_on_c, 0, 57, 69
3, 38020, Note_on_c, 0, 69, 0
3, 38039, Note_on_c, 0, 81, 0
3, 38083, Note_on_c, 0, 57, 0
3, 38133, Note_on_c, 0, 72, 80
3, 38134, Note_on_c, 0, 84, 81
3, 38139, Note_on_c, 0, 62, 44
3, 38140, Note_on_c, 0, 60, 49
3, 38152, Note_on_c, 0, 62, 0
3, 38155, Note_on_c, 0, 60, 0
3, 38172, Note_on_c, 0, 72, 0
3, 38187, Note_on_c, 0, 84, 0
3, 38259, Note_on_c, 0, 74, 75
3, 38260, Note_on_c, 0, 86, 74
3, 38285, Note_on_c, 0, 74, 0
3, 38292, Note_on_c, 0, 86, 0
3, 38340, Note_on_c, 0, 77, 73
3, 38341, Note_on_c, 0, 89, 74
3, 38366, Note_on_c, 0, 77, 0
3, 38380, Note_on_c, 0, 89, 0
3, 38446, Note_on_c, 0, 91, 83
3, 38448, Note_on_c, 0, 77, 73
3, 38449, Note_on_c, 0, 62, 41
3, 38450, Note_on_c, 0, 65, 54
3, 38450, Control_c, 0, 64, 0
3, 38452, Note_on_c, 0, 57, 45
3, 38524, Control_c, 0, 64, 127
3, 38553, Note_on_c, 0, 91, 0
3, 38557, Note_on_c, 0, 77, 0
3, 38595, Note_on_c, 0, 79, 66
3, 38597, Note_on_c, 0, 91, 53
3, 38673, Note_on_c, 0, 91, 0
3, 38673, Note_on_c, 0, 79, 0
3, 38688, Note_on_c, 0, 65, 0
3, 38692, Note_on_c, 0, 57, 0
3, 38695, Note_on_c, 0, 62, 0
3, 38743, Note_on_c, 0, 91, 56
3, 38744, Note_on_c, 0, 62, 37
3, 38747, Note_on_c, 0, 57, 42
3, 38748, Note_on_c, 0, 65, 45
3, 38750, Note_on_c, 0, 79, 42
3, 38757, Note_on_c, 0, 86, 34
3, 38777, Note_on_c, 0, 86, 0
3, 38790, Note_on_c, 0, 79, 0
3, 38801, Note_on_c, 0, 91, 0
3, 38806, Note_on_c, 0, 65, 0
3, 38809, Note_on_c, 0, 57, 0
3, 38812, Note_on_c, 0, 62, 0
3, 38873, Note_on_c, 0, 91, 44
3, 38876, Note_on_c, 0, 57, 38
3, 38877, Note_on_c, 0, 79, 44
3, 38879, Note_on_c, 0, 65, 44
3, 38880, Note_on_c, 0, 62, 36
3, 38883, Note_on_c, 0, 86, 46
3, 38911, Note_on_c, 0, 86, 0
3, 38920, Note_on_c, 0, 91, 0
3, 38920, Note_on_c, 0, 65, 0
3, 38921, Note_on_c, 0, 79, 0
3, 38930, Note_on_c, 0, 57, 0
3, 38932, Note_on_c, 0, 62, 0
3, 39004, Note_on_c, 0, 91, 58
3, 39005, Note_on_c, 0, 62, 46
3, 39005, Note_on_c, 0, 57, 52
3, 39005, Note_on_c, 0, 79, 57
3, 39007, Note_on_c, 0, 65, 46
3, 39012, Note_on_c, 0, 86, 47
3, 39027, Note_on_c, 0, 86, 0
3, 39027, Note_on_c, 0, 65, 0
3, 39036, Note_on_c, 0, 91, 0
3, 39040, Note_on_c, 0, 62, 0
3, 39040, Note_on_c, 0, 79, 0
3, 39047, Note_on_c, 0, 57, 0
3, 39098, Note_on_c, 0, 91, 65
3, 39100, Note_on_c, 0, 79, 46
3, 39103, Note_on_c, 0, 65, 33
3, 39104, Note_on_c, 0, 57, 18
3, 39111, Note_on_c, 0, 62, 24
3, 39116, Note_on_c, 0, 86, 20
3, 39129, Note_on_c, 0, 86, 0
3, 39130, Note_on_c, 0, 79, 0
3, 39136, Note_on_c, 0, 62, 0
3, 39140, Note_on_c, 0, 65, 0
3, 39141, Note_on_c, 0, 57, 0
3, 39142, Note_on_c, 0, 91, 0
3, 39170, Note_on_c, 0, 89, 54
3, 39191, Note_on_c, 0, 89, 0
3, 39239, Note_on_c, 0, 67, 53
3, 39239, Note_on_c, 0, 62, 48
3, 39240, Note_on_c, 0, 56, 56
3, 39241, Note_on_c, 0, 79, 61
3, 39242, Note_on_c, 0, 88, 64
3, 39243, Control_c, 0, 64, 0
3, 39245, Note_on_c, 0, 91, 53
3, 39317, Control_c, 0, 64, 127
3, 39437, Note_on_c, 0, 62, 0
3, 39442, Note_on_c, 0, 79, 0
3, 39456, Note_on_c, 0, 67, 0
3, 39457, Note_on_c, 0, 56, 0
3, 39495, Note_on_c, 0, 88, 0
3, 39515, Note_on_c, 0, 91, 0
3, 39559, Note_on_c, 0, 79, 49
3, 39563, Note_on_c, 0, 67, 36
3, 39564, Note_on_c, 0, 62, 46
3, 39564, Note_on_c, 0, 84, 55
3, 39564, Note_on_c, 0, 56, 37
3, 39707, Note_on_c, 0, 62, 0
3, 39729, Note_on_c, 0, 67, 0
3, 39757, Note_on_c, 0, 56, 0
3, 39808, Note_on_c, 0, 84, 0
3, 39833, Note_on_c, 0, 79, 0
3, 39966, Note_on_c, 0, 91, 57
3, 39969, Note_on_c, 0, 84, 60
3, 39970, Note_on_c, 0, 79, 49
3, 39973, Note_on_c, 0, 61, 46
3, 39977, Note_on_c, 0, 60, 43
3, 39977, Note_on_c, 0, 55, 50
3, 39979, Control_c, 0, 64, 0
3, 39981, Note_on_c, 0, 65, 42
3, 39986, Note_on_c, 0, 58, 30
3, 40057, Control_c, 0, 64, 127
3, 40121, Note_on_c, 0, 91, 0
3, 40131, Note_on_c, 0, 84, 0
3, 40160, Note_on_c, 0, 79, 0
3, 40238, Note_on_c, 0, 60, 0
3, 40243, Note_on_c, 0, 65, 0
3, 40247, Note_on_c, 0, 55, 0
3, 40254, Note_on_c, 0, 58, 0
3, 40267, Note_on_c, 0, 61, 0
3, 40344, Note_on_c, 0, 61, 48
3, 40350, Note_on_c, 0, 65, 44
3, 40352, Note_on_c, 0, 60, 47
3, 40356, Note_on_c, 0, 55, 40
3, 40415, Note_on_c, 0, 55, 0
3, 40416, Note_on_c, 0, 65, 0
3, 40417, Note_on_c, 0, 60, 0
3, 40428, Note_on_c, 0, 61, 0
3, 40482, Note_on_c, 0, 89, 89
3, 40484, Note_on_c, 0, 77, 88
3, 40485, Note_on_c, 0, 84, 85
3, 40485, Note_on_c, 0, 61, 67
3, 40487, Note_on_c, 0, 60, 76
3, 40487, Note_on_c, 0, 65, 78
3, 40489, Note_on_c, 0, 55, 73
3, 40551, Note_on_c, 0, 77, 0
3, 40555, Note_on_c, 0, 65, 0
3, 40560, Note_on_c, 0, 84, 0
3, 40560, Note_on_c, 0, 55, 0
3, 40562, Note_on_c, 0, 60, 0
3, 40568, Note_on_c, 0, 89, 0
3, 40572, Note_on_c, 0, 61, 0
3, 40606, Note_on_c, 0, 61, 61
3, 40613, Note_on_c, 0, 65, 77
3, 40613, Note_on_c, 0, 60, 66
3, 40615, Note_on_c, 0, 91, 79
3, 40615, Note_on_c, 0, 55, 78
3, 40616, Note_on_c, 0, 86, 83
3, 40616, Note_on_c, 0, 79, 79
3, 40628, Note_on_c, 0, 58, 28
3, 40662, Note_on_c, 0, 60, 0
3, 40669, Note_on_c, 0, 86, 0
3, 40671, Note_on_c, 0, 91, 0
3, 40673, Note_on_c, 0, 79, 0
3, 40678, Note_on_c, 0, 65, 0
3, 40686, Note_on_c, 0, 55, 0
3, 40688, Note_on_c, 0, 58, 0
3, 40704, Note_on_c, 0, 61, 0
3, 40742, Note_on_c, 0, 89, 76
3, 40743, Note_on_c, 0, 65, 80
3, 40743, Note_on_c, 0, 58, 65
3, 40745, Note_on_c, 0, 77, 71
3, 40746, Note_on_c, 0, 86, 75
3, 40746, Note_on_c, 0, 60, 73
3, 40746, Note_on_c, 0, 54, 74
3, 40754, Control_c, 0, 64, 0
3, 40798, Control_c, 0, 64, 127
3, 40824, Note_on_c, 0, 86, 0
3, 40827, Note_on_c, 0, 89, 0
3, 40850, Note_on_c, 0, 77, 0
3, 40857, Note_on_c, 0, 65, 0
3, 40857, Note_on_c, 0, 54, 0
3, 40868, Note_on_c, 0, 60, 0
3, 40870, Note_on_c, 0, 58, 0
3, 40894, Note_on_c, 0, 88, 78
3, 40897, Note_on_c, 0, 65, 64
3, 40898, Note_on_c, 0, 54, 69
3, 40899, Note_on_c, 0, 58, 52
3, 40899, Note_on_c, 0, 76, 70
3, 40899, Note_on_c, 0, 60, 74
3, 40904, Note_on_c, 0, 85, 49
3, 40913, Control_c, 0, 64, 0
3, 40916, Note_on_c, 0, 85, 0
3, 40947, Control_c, 0, 64, 127
3, 41020, Note_on_c, 0, 88, 0
3, 41045, Note_on_c, 0, 65, 0
3, 41047, Note_on_c, 0, 76, 0
3, 41049, Note_on_c, 0, 60, 0
3, 41053, Note_on_c, 0, 54, 0
3, 41059, Note_on_c, 0, 58, 0
3, 41115, Note_on_c, 0, 86, 63
3, 41118, Control_c, 0, 64, 0
3, 41121, Note_on_c, 0, 74, 51
3, 41122, Note_on_c, 0, 54, 53
3, 41122, Note_on_c, 0, 65, 59
3, 41124, Note_on_c, 0, 81, 61
3, 41125, Note_on_c, 0, 60, 56
3, 41127, Note_on_c, 0, 58, 42
3, 41144, Control_c, 0, 64, 127
3, 41191, Note_on_c, 0, 86, 0
3, 41192, Note_on_c, 0, 81, 0
3, 41216, Note_on_c, 0, 74, 0
3, 41221, Note_on_c, 0, 65, 0
3, 41226, Note_on_c, 0, 58, 0
3, 41227, Note_on_c, 0, 60, 0
3, 41236, Note_on_c, 0, 54, 0
3, 41406, Note_on_c, 0, 54, 55
3, 41412, Note_on_c, 0, 84, 73
3, 41413, Note_on_c, 0, 65, 28
3, 41413, Note_on_c, 0, 60, 48
3, 41414, Note_on_c, 0, 58, 43
3, 41419, Note_on_c, 0, 72, 40
3, 41424, Note_on_c, 0, 79, 30
3, 41429, Note_on_c, 0, 60, 0
3, 41435, Note_on_c, 0, 65, 0
3, 41438, Note_on_c, 0, 79, 0
3, 41444, Note_on_c, 0, 72, 0
3, 41444, Note_on_c, 0, 84, 0
3, 41473, Note_on_c, 0, 54, 0
3, 41493, Note_on_c, 0, 58, 0
3, 41520, Note_on_c, 0, 58, 31
3, 41524, Note_on_c, 0, 81, 60
3, 41529, Note_on_c, 0, 53, 42
3, 41530, Note_on_c, 0, 62, 41
3, 41531, Note_on_c, 0, 69, 44
3, 41531, Note_on_c, 0, 57, 51
3, 41531, Note_on_c, 0, 74, 52
3, 41532, Control_c, 0, 64, 0
3, 41533, Note_on_c, 0, 77, 45
3, 41599, Control_c, 0, 64, 127
3, 41715, Note_on_c, 0, 62, 0
3, 41738, Note_on_c, 0, 57, 0
3, 41749, Note_on_c, 0, 58, 0
3, 41753, Note_on_c, 0, 74, 0
3, 41766, Note_on_c, 0, 69, 0
3, 41781, Note_on_c, 0, 77, 0
3, 41877, Note_on_c, 0, 57, 24
3, 41881, Note_on_c, 0, 74, 34
3, 41884, Note_on_c, 0, 62, 32
3, 41885, Note_on_c, 0, 58, 33
3, 41885, Note_on_c, 0, 69, 40
3, 41905, Note_on_c, 0, 81, 0
3, 42016, Note_on_c, 0, 74, 0
3, 42038, Note_on_c, 0, 69, 0
3, 42076, Note_on_c, 0, 53, 0
3, 42103, Note_on_c, 0, 62, 0
3, 42124, Note_on_c, 0, 57, 0
3, 42194, Note_on_c, 0, 58, 0
3, 42252, Note_on_c, 0, 54, 43
3, 42253, Note_on_c, 0, 58, 44
3, 42257, Note_on_c, 0, 62, 36
3, 42269, Control_c, 0, 64, 0
3, 42343, Control_c, 0, 64, 127
3, 42478, Note_on_c, 0, 81, 72
3, 42482, Note_on_c, 0, 74, 73
3, 42525, Note_on_c, 0, 81, 0
3, 42527, Note_on_c, 0, 62, 0
3, 42532, Note_on_c, 0, 74, 0
3, 42542, Note_on_c, 0, 69, 47
3, 42557, Note_on_c, 0, 69, 0
3, 42593, Control_c, 0, 64, 0
3, 42612, Note_on_c, 0, 81, 68
3, 42615, Note_on_c, 0, 74, 62
3, 42636, Note_on_c, 0, 62, 20
3, 42663, Note_on_c, 0, 81, 0
3, 42667, Note_on_c, 0, 74, 0
3, 42679, Note_on_c, 0, 62, 0
3, 42686, Note_on_c, 0, 69, 34
3, 42690, Control_c, 0, 64, 127
3, 42690, Note_on_c, 0, 78, 32
3, 42726, Note_on_c, 0, 69, 0
3, 42736, Note_on_c, 0, 78, 0
3, 42765, Note_on_c, 0, 74, 57
3, 42767, Note_on_c, 0, 81, 61
3, 42779, Note_on_c, 0, 62, 33
3, 42810, Note_on_c, 0, 81, 0
3, 42811, Note_on_c, 0, 74, 0
3, 42841, Note_on_c, 0, 78, 46
3, 42844, Note_on_c, 0, 69, 43
3, 42866, Note_on_c, 0, 54, 0
3, 42879, Note_on_c, 0, 69, 0
3, 42890, Note_on_c, 0, 78, 0
3, 42902, Note_on_c, 0, 62, 0
3, 42921, Note_on_c, 0, 81, 64
3, 42931, Note_on_c, 0, 54, 34
3, 42931, Note_on_c, 0, 74, 45
3, 42966, Note_on_c, 0, 74, 0
3, 42972, Note_on_c, 0, 81, 0
3, 42992, Note_on_c, 0, 69, 28
3, 42995, Note_on_c, 0, 78, 33
3, 43012, Note_on_c, 0, 58, 0
3, 43021, Note_on_c, 0, 54, 0
3, 43023, Note_on_c, 0, 69, 0
3, 43042, Note_on_c, 0, 78, 0
3, 43062, Control_c, 0, 64, 0
3, 43063, Note_on_c, 0, 58, 17
3, 43068, Note_on_c, 0, 53, 40
3, 43069, Note_on_c, 0, 81, 48
3, 43074, Note_on_c, 0, 62, 30
3, 43075, Note_on_c, 0, 74, 46
3, 43075, Note_on_c, 0, 69, 25
3, 43147, Control_c, 0, 64, 127
3, 43250, Note_on_c, 0, 62, 0
3, 43286, Note_on_c, 0, 58, 0
3, 43300, Note_on_c, 0, 69, 0
3, 43304, Note_on_c, 0, 74, 0
3, 43350, Note_on_c, 0, 81, 0
3, 43403, Note_on_c, 0, 74, 38
3, 43407, Note_on_c, 0, 58, 34
3, 43408, Note_on_c, 0, 69, 40
3, 43415, Note_on_c, 0, 62, 28
3, 43442, Note_on_c, 0, 74, 0
3, 43460, Note_on_c, 0, 69, 0
3, 43585, Note_on_c, 0, 62, 0
3, 43611, Note_on_c, 0, 53, 0
3, 43651, Note_on_c, 0, 58, 0
3, 43710, Note_on_c, 0, 65, 53
3, 43744, Note_on_c, 0, 65, 0
3, 43771, Note_on_c, 0, 58, 34
3, 43778, Note_on_c, 0, 62, 29
3, 43779, Note_on_c, 0, 52, 48
3, 43784, Control_c, 0, 64, 0
3, 43788, Note_on_c, 0, 69, 60
3, 43808, Note_on_c, 0, 69, 0
3, 43934, Note_on_c, 0, 70, 70
3, 43959, Note_on_c, 0, 70, 0
3, 44078, Note_on_c, 0, 72, 74
3, 44089, Control_c, 0, 64, 127
3, 44139, Note_on_c, 0, 62, 0
3, 44162, Note_on_c, 0, 58, 0
3, 44162, Note_on_c, 0, 72, 0
3, 44397, Note_on_c, 0, 68, 69
3, 44425, Control_c, 0, 64, 0
3, 44429, Note_on_c, 0, 68, 0
3, 44439, Note_on_c, 0, 67, 43
3, 44460, Note_on_c, 0, 52, 0
3, 44491, Note_on_c, 0, 67, 0
3, 44507, Note_on_c, 0, 65, 47
3, 44510, Control_c, 0, 64, 127
3, 44550, Note_on_c, 0, 65, 0
3, 44550, Note_on_c, 0, 62, 50
3, 44584, Note_on_c, 0, 62, 0
3, 44610, Control_c, 0, 64, 0
3, 44612, Note_on_c, 0, 65, 58
3, 44619, Note_on_c, 0, 57, 31
3, 44619, Note_on_c, 0, 60, 38
3, 44622, Note_on_c, 0, 50, 34
3, 44662, Note_on_c, 0, 65, 0
3, 44682, Note_on_c, 0, 67, 53
3, 44728, Note_on_c, 0, 67, 0
3, 44762, Note_on_c, 0, 65, 47
3, 44818, Control_c, 0, 64, 127
3, 44896, Note_on_c, 0, 60, 0
3, 44927, Note_on_c, 0, 57, 0
3, 44951, Note_on_c, 0, 65, 0
3, 44957, Note_on_c, 0, 62, 36
3, 44969, Note_on_c, 0, 60, 35
3, 44976, Note_on_c, 0, 57, 22
3, 45117, Note_on_c, 0, 62, 0
3, 45144, Note_on_c, 0, 57, 0
3, 45145, Note_on_c, 0, 50, 0
3, 45150, Note_on_c, 0, 60, 0
3, 45298, Note_on_c, 0, 79, 78
3, 45302, Note_on_c, 0, 73, 77
3, 45303, Note_on_c, 0, 69, 74
3, 45308, Note_on_c, 0, 64, 56
3, 45310, Control_c, 0, 64, 0
3, 45351, Control_c, 0, 64, 127
3, 45391, Note_on_c, 0, 79, 0
3, 45401, Note_on_c, 0, 73, 0
3, 45412, Note_on_c, 0, 69, 0
3, 45422, Note_on_c, 0, 64, 0
3, 45431, Note_on_c, 0, 77, 60
3, 45434, Note_on_c, 0, 62, 45
3, 45436, Note_on_c, 0, 69, 58
3, 45439, Note_on_c, 0, 72, 55
3, 45444, Control_c, 0, 64, 0
3, 45507, Control_c, 0, 64, 127
3, 45579, Note_on_c, 0, 72, 0
3, 45584, Note_on_c, 0, 77, 0
3, 45600, Note_on_c, 0, 69, 0
3, 45682, Control_c, 0, 64, 0
3, 45689, Note_on_c, 0, 76, 53
3, 45690, Note_on_c, 0, 62, 0
3, 45697, Note_on_c, 0, 65, 33
3, 45698, Note_on_c, 0, 61, 56
3, 45700, Note_on_c, 0, 69, 51
3, 45712, Control_c, 0, 64, 127
3, 45764, Note_on_c, 0, 69, 0
3, 45776, Note_on_c, 0, 65, 0
3, 45799, Note_on_c, 0, 76, 0
3, 45830, Note_on_c, 0, 74, 57
3, 45837, Note_on_c, 0, 61, 0
3, 45837, Note_on_c, 0, 65, 43
3, 45838, Control_c, 0, 64, 0
3, 45841, Note_on_c, 0, 69, 51
3, 45845, Note_on_c, 0, 60, 40
3, 45898, Control_c, 0, 64, 127
3, 45948, Note_on_c, 0, 69, 0
3, 45970, Note_on_c, 0, 74, 0
3, 45994, Note_on_c, 0, 65, 0
3, 45994, Note_on_c, 0, 60, 0
3, 46081, Control_c, 0, 64, 0
3, 46087, Note_on_c, 0, 71, 55
3, 46089, Note_on_c, 0, 64, 44
3, 46090, Note_on_c, 0, 68, 49
3, 46092, Note_on_c, 0, 54, 45
3, 46099, Note_on_c, 0, 60, 27
3, 46136, Control_c, 0, 64, 127
3, 46179, Note_on_c, 0, 60, 0
3, 46182, Note_on_c, 0, 64, 0
3, 46195, Note_on_c, 0, 54, 0
3, 46205, Note_on_c, 0, 68, 0
3, 46209, Note_on_c, 0, 71, 0
3, 46226, Note_on_c, 0, 54, 18
3, 46230, Note_on_c, 0, 60, 40
3, 46231, Note_on_c, 0, 69, 48
3, 46235, Note_on_c, 0, 64, 15
3, 46237, Control_c, 0, 64, 0
3, 46285, Control_c, 0, 64, 127
3, 46301, Note_on_c, 0, 60, 0
3, 46337, Note_on_c, 0, 69, 0
3, 46340, Note_on_c, 0, 54, 0
3, 46345, Note_on_c, 0, 64, 0
3, 46464, Control_c, 0, 64, 0
3, 46467, Note_on_c, 0, 68, 38
3, 46474, Note_on_c, 0, 60, 32
3, 46475, Note_on_c, 0, 63, 33
3, 46481, Note_on_c, 0, 66, 36
3, 46492, Note_on_c, 0, 49, 37
3, 46512, Control_c, 0, 64, 127
3, 46568, Note_on_c, 0, 63, 0
3, 46572, Note_on_c, 0, 60, 0
3, 46582, Note_on_c, 0, 68, 0
3, 46591, Note_on_c, 0, 66, 0
3, 46603, Note_on_c, 0, 49, 0
3, 46605, Note_on_c, 0, 60, 47
3, 46606, Note_on_c, 0, 69, 50
3, 46610, Note_on_c, 0, 50, 49
3, 46611, Note_on_c, 0, 64, 41
3, 46620, Control_c, 0, 64, 0
3, 46623, Note_on_c, 0, 66, 19
3, 46641, Note_on_c, 0, 50, 0
3, 46657, Control_c, 0, 64, 127
3, 46847, Control_c, 0, 64, 0
3, 46856, Note_on_c, 0, 26, 53
3, 46862, Note_on_c, 0, 38, 34
3, 46899, Control_c, 0, 64, 127
3, 46965, Note_on_c, 0, 26, 0
3, 46975, Note_on_c, 0, 60, 0
3, 46986, Note_on_c, 0, 38, 0
3, 47006, Note_on_c, 0, 64, 0
3, 47026, Note_on_c, 0, 66, 0
3, 47041, Note_on_c, 0, 69, 0
3, 47248, Note_on_c, 0, 65, 51
3, 47252, Note_on_c, 0, 60, 48
3, 47257, Note_on_c, 0, 54, 38
3, 47259, Note_on_c, 0, 58, 33
3, 47366, Note_on_c, 0, 85, 82
3, 47367, Note_on_c, 0, 73, 97
3, 47379, Note_on_c, 0, 86, 66
3, 47379, Control_c, 0, 64, 0
3, 47383, Note_on_c, 0, 80, 26
3, 47389, Note_on_c, 0, 84, 34
3, 47395, Note_on_c, 0, 80, 0
3, 47397, Note_on_c, 0, 85, 0
3, 47404, Note_on_c, 0, 73, 0
3, 47406, Note_on_c, 0, 74, 68
3, 47438, Control_c, 0, 64, 127
3, 47513, Note_on_c, 0, 60, 0
3, 47517, Note_on_c, 0, 65, 0
3, 47518, Note_on_c, 0, 86, 0
3, 47519, Note_on_c, 0, 84, 0
3, 47541, Note_on_c, 0, 74, 0
3, 47578, Note_on_c, 0, 54, 0
3, 47619, Note_on_c, 0, 57, 34
3, 47620, Note_on_c, 0, 82, 38
3, 47620, Note_on_c, 0, 62, 35
3, 47624, Note_on_c, 0, 53, 35
3, 47625, Control_c, 0, 64, 0
3, 47628, Note_on_c, 0, 70, 34
3, 47705, Note_on_c, 0, 82, 0
3, 47709, Note_on_c, 0, 62, 0
3, 47710, Note_on_c, 0, 70, 0
3, 47721, Note_on_c, 0, 58, 0
3, 47724, Note_on_c, 0, 57, 0
3, 47749, Note_on_c, 0, 82, 54
3, 47755, Note_on_c, 0, 70, 49
3, 47759, Note_on_c, 0, 62, 29
3, 47761, Note_on_c, 0, 58, 33
3, 47773, Note_on_c, 0, 57, 20
3, 47778, Note_on_c, 0, 70, 0
3, 47787, Note_on_c, 0, 57, 0
3, 47790, Note_on_c, 0, 82, 0
3, 47795, Note_on_c, 0, 62, 0
3, 47805, Note_on_c, 0, 58, 0
3, 47825, Note_on_c, 0, 82, 44
3, 47854, Note_on_c, 0, 82, 0
3, 47857, Note_on_c, 0, 53, 0
3, 48015, Note_on_c, 0, 58, 31
3, 48016, Note_on_c, 0, 82, 59
3, 48018, Note_on_c, 0, 62, 30
3, 48018, Note_on_c, 0, 70, 49
3, 48025, Note_on_c, 0, 57, 25
3, 48026, Note_on_c, 0, 53, 30
3, 48041, Control_c, 0, 64, 127
3, 48183, Note_on_c, 0, 82, 0
3, 48197, Note_on_c, 0, 70, 0
3, 48231, Note_on_c, 0, 57, 0
3, 48252, Note_on_c, 0, 62, 0
3, 48253, Note_on_c, 0, 53, 0
3, 48276, Note_on_c, 0, 58, 0
3, 48387, Control_c, 0, 64, 0
3, 48388, Note_on_c, 0, 73, 53
3, 48389, Note_on_c, 0, 76, 57
3, 48389, Note_on_c, 0, 64, 58
3, 48389, Note_on_c, 0, 68, 54
3, 48413, Note_on_c, 0, 68, 0
3, 48414, Note_on_c, 0, 64, 0
3, 48420, Note_on_c, 0, 76, 0
3, 48422, Note_on_c, 0, 73, 0
3, 48518, Note_on_c, 0, 61, 59
3, 48521, Note_on_c, 0, 73, 71
3, 48522, Note_on_c, 0, 68, 73
3, 48524, Note_on_c, 0, 64, 72
3, 48529, Note_on_c, 0, 76, 44
3, 48544, Note_on_c, 0, 64, 0
3, 48545, Note_on_c, 0, 76, 0
3, 48547, Note_on_c, 0, 68, 0
3, 48553, Note_on_c, 0, 61, 0
3, 48554, Note_on_c, 0, 73, 0
3, 48623, Note_on_c, 0, 64, 54
3, 48624, Note_on_c, 0, 68, 48
3, 48625, Note_on_c, 0, 73, 39
3, 48628, Note_on_c, 0, 61, 50
3, 48631, Note_on_c, 0, 76, 24
3, 48646, Note_on_c, 0, 76, 0
3, 48646, Note_on_c, 0, 64, 0
3, 48647, Note_on_c, 0, 68, 0
3, 48654, Note_on_c, 0, 73, 0
3, 48659, Note_on_c, 0, 61, 0
3, 48692, Control_c, 0, 64, 127
3, 48732, Note_on_c, 0, 64, 69
3, 48732, Note_on_c, 0, 61, 53
3, 48733, Note_on_c, 0, 76, 60
3, 48733, Note_on_c, 0, 73, 51
3, 48734, Note_on_c, 0, 68, 58
3, 48749, Control_c, 0, 64, 0
3, 48759, Note_on_c, 0, 68, 0
3, 48761, Note_on_c, 0, 64, 0
3, 48762, Note_on_c, 0, 76, 0
3, 48763, Note_on_c, 0, 61, 0
3, 48767, Note_on_c, 0, 73, 0
3, 48813, Control_c, 0, 64, 127
3, 48821, Note_on_c, 0, 61, 42
3, 48821, Note_on_c, 0, 76, 38
3, 48827, Note_on_c, 0, 68, 46
3, 48827, Note_on_c, 0, 64, 48
3, 48830, Note_on_c, 0, 73, 33
3, 48857, Note_on_c, 0, 76, 0
3, 48893, Note_on_c, 0, 73, 0
3, 48904, Note_on_c, 0, 64, 0
3, 48907, Note_on_c, 0, 68, 0
3, 48937, Note_on_c, 0, 61, 0
3, 48954, Control_c, 0, 64, 0
3, 48965, Control_c, 0, 64, 127
3, 48966, Note_on_c, 0, 73, 50
3, 48967, Note_on_c, 0, 68, 57
3, 48968, Note_on_c, 0, 64, 43
3, 48978, Note_on_c, 0, 58, 36
3, 49043, Note_on_c, 0, 73, 0
3, 49047, Note_on_c, 0, 64, 0
3, 49065, Note_on_c, 0, 68, 0
3, 49077, Control_c, 0, 64, 0
3, 49096, Note_on_c, 0, 58, 0
3, 49096, Note_on_c, 0, 72, 60
3, 49098, Note_on_c, 0, 62, 53
3, 49098, Note_on_c, 0, 67, 53
3, 49105, Note_on_c, 0, 57, 40
3, 49151, Control_c, 0, 64, 127
3, 49262, Note_on_c, 0, 67, 0
3, 49274, Note_on_c, 0, 62, 0
3, 49282, Note_on_c, 0, 72, 0
3, 49353, Note_on_c, 0, 71, 30
3, 49353, Note_on_c, 0, 61, 37
3, 49354, Note_on_c, 0, 66, 47
3, 49359, Note_on_c, 0, 56, 35
3, 49363, Note_on_c, 0, 57, 0
3, 49390, Control_c, 0, 64, 0
3, 49419, Control_c, 0, 64, 127
3, 49477, Note_on_c, 0, 61, 0
3, 49482, Note_on_c, 0, 71, 0
3, 49489, Note_on_c, 0, 66, 0
3, 49493, Control_c, 0, 64, 0
3, 49539, Note_on_c, 0, 62, 53
3, 49542, Note_on_c, 0, 67, 47
3, 49543, Note_on_c, 0, 72, 51
3, 49549, Note_on_c, 0, 56, 0
3, 49549, Note_on_c, 0, 57, 46
3, 49576, Control_c, 0, 64, 127
3, 49637, Note_on_c, 0, 62, 0
3, 49663, Note_on_c, 0, 57, 0
3, 49753, Note_on_c, 0, 67, 0
3, 49920, Note_on_c, 0, 61, 56
3, 49921, Note_on_c, 0, 60, 56
3, 49922, Note_on_c, 0, 65, 62
3, 49926, Control_c, 0, 64, 0
3, 49926, Note_on_c, 0, 55, 59
3, 49948, Note_on_c, 0, 72, 0
3, 50015, Control_c, 0, 64, 127
3, 50205, Note_on_c, 0, 61, 0
3, 50227, Note_on_c, 0, 65, 0
3, 50305, Note_on_c, 0, 61, 34
3, 50311, Note_on_c, 0, 65, 40
3, 50384, Note_on_c, 0, 87, 83
3, 50406, Note_on_c, 0, 65, 0
3, 50420, Note_on_c, 0, 87, 0
3, 50425, Note_on_c, 0, 60, 0
3, 50432, Note_on_c, 0, 61, 0
3, 50443, Note_on_c, 0, 87, 51
3, 50448, Note_on_c, 0, 88, 92
3, 50450, Note_on_c, 0, 55, 0
3, 50456, Note_on_c, 0, 87, 0
3, 50465, Control_c, 0, 64, 0
3, 50492, Note_on_c, 0, 88, 0
3, 50519, Note_on_c, 0, 91, 84
3, 50563, Note_on_c, 0, 91, 0
3, 50586, Note_on_c, 0, 89, 84
3, 50595, Note_on_c, 0, 91, 32
3, 50609, Note_on_c, 0, 91, 0
3, 50639, Note_on_c, 0, 89, 0
3, 50655, Note_on_c, 0, 85, 70
3, 50660, Note_on_c, 0, 57, 28
3, 50670, Note_on_c, 0, 60, 25
3, 50675, Note_on_c, 0, 50, 31
3, 50675, Note_on_c, 0, 53, 30
3, 50713, Note_on_c, 0, 85, 0
3, 50731, Note_on_c, 0, 88, 76
3, 50793, Note_on_c, 0, 88, 0
3, 50802, Note_on_c, 0, 86, 64
3, 50847, Note_on_c, 0, 86, 0
3, 50856, Note_on_c, 0, 60, 0
3, 50869, Note_on_c, 0, 81, 58
3, 50903, Note_on_c, 0, 81, 0
3, 50938, Note_on_c, 0, 79, 64
3, 50986, Control_c, 0, 64, 127
3, 51001, Note_on_c, 0, 79, 0
3, 51006, Note_on_c, 0, 77, 53
3, 51052, Note_on_c, 0, 77, 0
3, 51060, Control_c, 0, 64, 0
3, 51076, Note_on_c, 0, 76, 56
3, 51128, Note_on_c, 0, 76, 0
3, 51139, Note_on_c, 0, 79, 70
3, 51194, Note_on_c, 0, 79, 0
3, 51212, Note_on_c, 0, 77, 73
3, 51216, Control_c, 0, 64, 127
3, 51257, Note_on_c, 0, 77, 0
3, 51268, Control_c, 0, 64, 0
3, 51289, Note_on_c, 0, 73, 60
3, 51337, Note_on_c, 0, 73, 0
3, 51349, Note_on_c, 0, 53, 0
3, 51351, Note_on_c, 0, 76, 66
3, 51357, Note_on_c, 0, 57, 0
3, 51360, Note_on_c, 0, 50, 0
3, 51414, Control_c, 0, 64, 127
3, 51420, Note_on_c, 0, 74, 61
3, 51421, Note_on_c, 0, 76, 0
3, 51448, Control_c, 0, 64, 0
3, 51469, Note_on_c, 0, 74, 0
3, 51491, Note_on_c, 0, 69, 46
3, 51535, Note_on_c, 0, 69, 0
3, 51581, Note_on_c, 0, 67, 24
3, 51605, Note_on_c, 0, 67, 0
3, 51680, Note_on_c, 0, 65, 34
3, 51730, Note_on_c, 0, 65, 0
3, 51820, Note_on_c, 0, 64, 50
3, 51820, Note_on_c, 0, 64, 0
3, 51938, Control_c, 0, 64, 127
3, 51973, Note_on_c, 0, 64, 73
3, 51987, Control_c, 0, 64, 0
3, 52033, Note_on_c, 0, 64, 0
3, 52050, Note_on_c, 0, 61, 32
3, 52147, Control_c, 0, 64, 127
3, 52166, Note_on_c, 0, 57, 44
3, 52173, Note_on_c, 0, 61, 0
3, 52190, Note_on_c, 0, 57, 0
3, 52202, Control_c, 0, 64, 0
3, 52231, Note_on_c, 0, 62, 34
3, 52237, Note_on_c, 0, 57, 24
3, 52243, Note_on_c, 0, 50, 24
3, 52289, Note_on_c, 0, 57, 0
3, 52316, Note_on_c, 0, 50, 0
3, 52336, Note_on_c, 0, 62, 0
3, 52361, Note_on_c, 0, 57, 36
3, 52379, Note_on_c, 0, 57, 0
3, 52522, Control_c, 0, 64, 127
3, 52546, Control_c, 0, 64, 0
3, 52631, Control_c, 0, 64, 127
3, 52738, Control_c, 0, 64, 0
3, 52741, Note_on_c, 0, 57, 42
3, 52742, Note_on_c, 0, 60, 35
3, 52743, Note_on_c, 0, 64, 31
3, 52757, Note_on_c, 0, 60, 0
3, 52761, Note_on_c, 0, 64, 0
3, 52775, Note_on_c, 0, 57, 0
3, 52910, Control_c, 0, 64, 127
3, 52954, Control_c, 0, 64, 0
3, 52991, Note_on_c, 0, 64, 31
3, 52994, Note_on_c, 0, 59, 38
3, 52998, Note_on_c, 0, 53, 30
3, 53001, Note_on_c, 0, 57, 35
3, 53018, Control_c, 0, 64, 127
3, 53214, Note_on_c, 0, 64, 0
3, 53222, Note_on_c, 0, 53, 0
3, 53228, Note_on_c, 0, 57, 0
3, 53229, Note_on_c, 0, 59, 0
3, 53314, Note_on_c, 0, 59, 68
3, 53314, Note_on_c, 0, 89, 88
3, 53316, Control_c, 0, 64, 0
3, 53316, Note_on_c, 0, 77, 90
3, 53317, Note_on_c, 0, 53, 68
3, 53318, Note_on_c, 0, 64, 75
3, 53319, Note_on_c, 0, 57, 63
3, 53367, Note_on_c, 0, 89, 0
3, 53375, Note_on_c, 0, 77, 0
3, 53381, Note_on_c, 0, 64, 0
3, 53389, Control_c, 0, 64, 127
3, 53408, Note_on_c, 0, 64, 57
3, 53408, Note_on_c, 0, 76, 60
3, 53408, Note_on_c, 0, 88, 64
3, 53467, Note_on_c, 0, 76, 0
3, 53471, Note_on_c, 0, 88, 0
3, 53476, Note_on_c, 0, 53, 0
3, 53479, Note_on_c, 0, 64, 0
3, 53483, Note_on_c, 0, 57, 0
3, 53484, Note_on_c, 0, 59, 0
3, 53516, Note_on_c, 0, 89, 79
3, 53516, Note_on_c, 0, 77, 74
3, 53518, Note_on_c, 0, 57, 53
3, 53519, Note_on_c, 0, 59, 57
3, 53520, Note_on_c, 0, 53, 52
3, 53522, Note_on_c, 0, 64, 49
3, 53550, Control_c, 0, 64, 0
3, 53551, Note_on_c, 0, 77, 0
3, 53552, Note_on_c, 0, 64, 0
3, 53553, Note_on_c, 0, 89, 0
3, 53559, Note_on_c, 0, 53, 0
3, 53567, Note_on_c, 0, 57, 0
3, 53568, Note_on_c, 0, 59, 0
3, 53594, Note_on_c, 0, 88, 50
3, 53598, Note_on_c, 0, 76, 43
3, 53599, Note_on_c, 0, 59, 40
3, 53604, Note_on_c, 0, 57, 38
3, 53621, Note_on_c, 0, 57, 0
3, 53624, Note_on_c, 0, 88, 0
3, 53624, Note_on_c, 0, 76, 0
3, 53630, Note_on_c, 0, 59, 0
3, 53683, Control_c, 0, 64, 127
3, 53702, Note_on_c, 0, 74, 71
3, 53703, Note_on_c, 0, 86, 74
3, 53706, Note_on_c, 0, 57, 50
3, 53706, Note_on_c, 0, 53, 34
3, 53736, Note_on_c, 0, 74, 0
3, 53740, Note_on_c, 0, 86, 0
3, 53749, Note_on_c, 0, 57, 0
3, 53750, Note_on_c, 0, 53, 0
3, 53774, Control_c, 0, 64, 0
3, 53784, Note_on_c, 0, 57, 31
3, 53787, Note_on_c, 0, 84, 60
3, 53787, Note_on_c, 0, 62, 38
3, 53790, Note_on_c, 0, 72, 49
3, 53790, Note_on_c, 0, 53, 25
3, 53794, Note_on_c, 0, 58, 48
3, 53822, Control_c, 0, 64, 127
3, 53840, Note_on_c, 0, 84, 0
3, 53871, Note_on_c, 0, 72, 0
3, 53875, Note_on_c, 0, 62, 0
3, 53891, Note_on_c, 0, 57, 0
3, 53891, Note_on_c, 0, 58, 0
3, 53893, Note_on_c, 0, 53, 0
3, 53937, Control_c, 0, 64, 0
3, 53947, Note_on_c, 0, 80, 53
3, 53948, Note_on_c, 0, 68, 56
3, 53954, Note_on_c, 0, 58, 38
3, 53957, Note_on_c, 0, 62, 38
3, 53958, Note_on_c, 0, 53, 31
3, 53959, Note_on_c, 0, 57, 40
3, 53974, Note_on_c, 0, 68, 0
3, 53980, Note_on_c, 0, 69, 56
3, 53981, Control_c, 0, 64, 127
3, 53985, Note_on_c, 0, 74, 15
3, 53991, Note_on_c, 0, 81, 20
3, 54010, Note_on_c, 0, 81, 0
3, 54024, Note_on_c, 0, 80, 0
3, 54049, Note_on_c, 0, 74, 0
3, 54078, Note_on_c, 0, 53, 0
3, 54078, Note_on_c, 0, 69, 0
3, 54081, Note_on_c, 0, 62, 0
3, 54097, Note_on_c, 0, 58, 0
3, 54099, Note_on_c, 0, 57, 0
3, 54134, Control_c, 0, 64, 0
3, 54144, Note_on_c, 0, 77, 50
3, 54152, Note_on_c, 0, 65, 33
3, 54153, Note_on_c, 0, 58, 36
3, 54156, Note_on_c, 0, 57, 30
3, 54156, Note_on_c, 0, 62, 34
3, 54159, Note_on_c, 0, 53, 34
3, 54190, Control_c, 0, 64, 127
3, 54353, Note_on_c, 0, 57, 0
3, 54354, Note_on_c, 0, 53, 0
3, 54371, Note_on_c, 0, 62, 0
3, 54444, Note_on_c, 0, 58, 0
3, 54517, Note_on_c, 0, 77, 0
3, 54532, Note_on_c, 0, 62, 36
3, 54532, Note_on_c, 0, 58, 37
3, 54536, Note_on_c, 0, 65, 0
3, 54539, Note_on_c, 0, 54, 38
3, 54543, Control_c, 0, 64, 0
3, 54577, Control_c, 0, 64, 127
3, 54722, Control_c, 0, 64, 0
3, 54727, Note_on_c, 0, 66, 53
3, 54764, Note_on_c, 0, 66, 0
3, 54783, Note_on_c, 0, 67, 61
3, 54789, Note_on_c, 0, 62, 0
3, 54818, Note_on_c, 0, 58, 0
3, 54823, Note_on_c, 0, 67, 0
3, 54841, Control_c, 0, 64, 127
3, 54850, Note_on_c, 0, 69, 83
3, 54876, Note_on_c, 0, 58, 36
3, 54889, Control_c, 0, 64, 0
3, 54892, Note_on_c, 0, 69, 0
3, 54926, Note_on_c, 0, 66, 62
3, 54927, Note_on_c, 0, 58, 0
3, 55009, Control_c, 0, 64, 127
3, 55023, Note_on_c, 0, 66, 0
3, 55055, Note_on_c, 0, 62, 34
3, 55059, Note_on_c, 0, 58, 25
3, 55064, Control_c, 0, 64, 0
3, 55135, Control_c, 0, 64, 127
3, 55162, Note_on_c, 0, 54, 0
3, 55217, Note_on_c, 0, 58, 0
3, 55225, Note_on_c, 0, 62, 0
3, 55237, Note_on_c, 0, 54, 40
3, 55264, Note_on_c, 0, 54, 0
3, 55284, Control_c, 0, 64, 0
3, 55297, Note_on_c, 0, 53, 35
3, 55299, Note_on_c, 0, 58, 1
3, 55303, Note_on_c, 0, 62, 35
3, 55510, Note_on_c, 0, 62, 0
3, 55515, Control_c, 0, 64, 127
3, 55553, Note_on_c, 0, 58, 0
3, 55619, Note_on_c, 0, 58, 38
3, 55620, Note_on_c, 0, 62, 34
3, 55650, Note_on_c, 0, 62, 0
3, 55652, Control_c, 0, 64, 0
3, 55674, Note_on_c, 0, 58, 0
3, 55790, Control_c, 0, 64, 127
3, 55816, Note_on_c, 0, 74, 90
3, 55816, Note_on_c, 0, 58, 38
3, 55817, Note_on_c, 0, 62, 40
3, 55840, Note_on_c, 0, 62, 0
3, 55857, Control_c, 0, 64, 0
3, 55865, Note_on_c, 0, 74, 0
3, 55882, Note_on_c, 0, 69, 68
3, 55888, Note_on_c, 0, 58, 0
3, 55918, Note_on_c, 0, 69, 0
3, 55933, Note_on_c, 0, 53, 0
3, 55940, Note_on_c, 0, 72, 81
3, 55995, Control_c, 0, 64, 127
3, 56000, Note_on_c, 0, 70, 79
3, 56012, Note_on_c, 0, 72, 0
3, 56029, Note_on_c, 0, 58, 26
3, 56041, Note_on_c, 0, 70, 0
3, 56045, Note_on_c, 0, 58, 0
3, 56069, Control_c, 0, 64, 0
3, 56071, Note_on_c, 0, 66, 52
3, 56113, Note_on_c, 0, 66, 0
3, 56132, Note_on_c, 0, 69, 77
3, 56194, Note_on_c, 0, 67, 71
3, 56199, Control_c, 0, 64, 127
3, 56203, Note_on_c, 0, 62, 53
3, 56206, Note_on_c, 0, 69, 0
3, 56207, Note_on_c, 0, 58, 44
3, 56219, Note_on_c, 0, 62, 0
3, 56222, Note_on_c, 0, 52, 31
3, 56240, Control_c, 0, 64, 0
3, 56242, Note_on_c, 0, 67, 0
3, 56243, Note_on_c, 0, 52, 0
3, 56249, Note_on_c, 0, 58, 0
3, 56265, Note_on_c, 0, 62, 45
3, 56355, Note_on_c, 0, 62, 0
3, 56375, Control_c, 0, 64, 127
3, 56390, Note_on_c, 0, 62, 53
3, 56392, Note_on_c, 0, 60, 60
3, 56398, Note_on_c, 0, 45, 49
3, 56405, Note_on_c, 0, 55, 38
3, 56415, Note_on_c, 0, 62, 0
3, 56418, Note_on_c, 0, 60, 0
3, 56434, Control_c, 0, 64, 0
3, 56453, Note_on_c, 0, 55, 0
3, 56465, Note_on_c, 0, 61, 62
3, 56490, Note_on_c, 0, 61, 0
3, 56580, Note_on_c, 0, 64, 74
3, 56584, Note_on_c, 0, 55, 54
3, 56597, Note_on_c, 0, 55, 0
3, 56628, Note_on_c, 0, 64, 0
3, 56649, Note_on_c, 0, 45, 0
3, 56673, Note_on_c, 0, 60, 42
3, 56744, Note_on_c, 0, 60, 0
3, 56762, Control_c, 0, 64, 127
3, 56770, Note_on_c, 0, 57, 60
3, 56774, Note_on_c, 0, 45, 40
3, 56813, Note_on_c, 0, 57, 0
3, 56821, Control_c, 0, 64, 0
3, 56824, Note_on_c, 0, 45, 0
3, 56842, Note_on_c, 0, 62, 37
3, 56843, Note_on_c, 0, 56, 58
3, 56860, Note_on_c, 0, 38, 22
3, 56866, Note_on_c, 0, 56, 0
3, 56877, Note_on_c, 0, 55, 55
3, 56896, Note_on_c, 0, 62, 0
3, 56927, Note_on_c, 0, 55, 0
3, 56935, Note_on_c, 0, 53, 49
3, 56971, Note_on_c, 0, 53, 0
3, 56997, Note_on_c, 0, 50, 50
3, 57021, Note_on_c, 0, 50, 0
3, 57050, Note_on_c, 0, 53, 52
3, 57158, Note_on_c, 0, 53, 0
3, 57162, Note_on_c, 0, 55, 71
3, 57205, Note_on_c, 0, 55, 0
3, 57229, Note_on_c, 0, 53, 45
3, 57294, Note_on_c, 0, 38, 0
3, 57320, Control_c, 0, 64, 127
3, 57327, Note_on_c, 0, 53, 0
3, 57350, Note_on_c, 0, 50, 64
3, 57357, Control_c, 0, 64, 0
3, 57369, Note_on_c, 0, 50, 0
3, 57424, Control_c, 0, 64, 127
3, 57588, Control_c, 0, 64, 0
3, 57695, Control_c, 0, 64, 127
3, 57758, Control_c, 0, 64, 0
3, 57790, Note_on_c, 0, 65, 79
3, 57790, Note_on_c, 0, 55, 78
3, 57793, Note_on_c, 0, 60, 80
3, 57848, Note_on_c, 0, 60, 0
3, 57849, Note_on_c, 0, 65, 0
3, 57863, Note_on_c, 0, 55, 0
3, 57993, Control_c, 0, 64, 127
3, 58114, Note_on_c, 0, 62, 53
3, 58115, Note_on_c, 0, 52, 65
3, 58116, Control_c, 0, 64, 0
3, 58122, Note_on_c, 0, 57, 53
3, 58163, Note_on_c, 0, 57, 0
3, 58164, Note_on_c, 0, 62, 0
3, 58167, Note_on_c, 0, 52, 0
3, 58378, Note_on_c, 0, 64, 44
3, 58380, Note_on_c, 0, 59, 57
3, 58382, Note_on_c, 0, 54, 45
3, 58455, Control_c, 0, 64, 127
3, 58592, Note_on_c, 0, 59, 0
3, 58615, Note_on_c, 0, 54, 0
3, 58626, Note_on_c, 0, 64, 0
3, 58749, Control_c, 0, 64, 0
3, 58753, Note_on_c, 0, 54, 80
3, 58756, Note_on_c, 0, 64, 66
3, 58760, Note_on_c, 0, 60, 64
3, 58760, Note_on_c, 0, 76, 87
3, 58761, Note_on_c, 0, 88, 87
3, 58763, Note_on_c, 0, 81, 75
3, 58764, Note_on_c, 0, 84, 72
3, 58776, Note_on_c, 0, 81, 0
3, 58790, Note_on_c, 0, 81, 18
3, 58805, Control_c, 0, 64, 127
3, 58833, Note_on_c, 0, 88, 0
3, 58838, Note_on_c, 0, 76, 0
3, 58839, Note_on_c, 0, 81, 0
3, 58843, Note_on_c, 0, 84, 0
3, 58857, Note_on_c, 0, 64, 0
3, 58868, Note_on_c, 0, 54, 0
3, 58869, Note_on_c, 0, 60, 0
3, 58909, Control_c, 0, 64, 0
3, 58937, Note_on_c, 0, 87, 64
3, 58938, Note_on_c, 0, 75, 62
3, 58943, Note_on_c, 0, 54, 59
3, 58944, Note_on_c, 0, 84, 53
3, 58944, Note_on_c, 0, 60, 55
3, 58945, Note_on_c, 0, 81, 51
3, 58945, Note_on_c, 0, 64, 48
3, 58981, Control_c, 0, 64, 127
3, 59023, Note_on_c, 0, 81, 0
3, 59029, Note_on_c, 0, 84, 0
3, 59036, Note_on_c, 0, 64, 0
3, 59038, Note_on_c, 0, 54, 0
3, 59038, Note_on_c, 0, 87, 0
3, 59041, Note_on_c, 0, 75, 0
3, 59047, Note_on_c, 0, 60, 0
3, 59077, Note_on_c, 0, 81, 57
3, 59081, Control_c, 0, 64, 0
3, 59082, Note_on_c, 0, 74, 43
3, 59083, Note_on_c, 0, 86, 58
3, 59089, Note_on_c, 0, 64, 32
3, 59090, Note_on_c, 0, 60, 50
3, 59090, Note_on_c, 0, 54, 44
3, 59099, Note_on_c, 0, 85, 25
3, 59113, Note_on_c, 0, 85, 0
3, 59140, Control_c, 0, 64, 127
3, 59262, Note_on_c, 0, 86, 0
3, 59273, Note_on_c, 0, 81, 0
3, 59283, Note_on_c, 0, 74, 0
3, 59313, Note_on_c, 0, 54, 0
3, 59344, Note_on_c, 0, 64, 0
3, 59378, Note_on_c, 0, 60, 0
3, 59461, Note_on_c, 0, 60, 61
3, 59465, Note_on_c, 0, 54, 51
3, 59466, Note_on_c, 0, 86, 85
3, 59466, Note_on_c, 0, 64, 45
3, 59471, Control_c, 0, 64, 0
3, 59505, Note_on_c, 0, 86, 0
3, 59539, Note_on_c, 0, 79, 42
3, 59563, Note_on_c, 0, 64, 0
3, 59564, Note_on_c, 0, 80, 40
3, 59586, Note_on_c, 0, 79, 0
3, 59598, Note_on_c, 0, 80, 0
3, 59603, Note_on_c, 0, 81, 57
3, 59621, Note_on_c, 0, 60, 0
3, 59629, Note_on_c, 0, 81, 0
3, 59658, Note_on_c, 0, 86, 78
3, 59660, Note_on_c, 0, 60, 22
3, 59663, Note_on_c, 0, 64, 36
3, 59688, Note_on_c, 0, 64, 0
3, 59692, Note_on_c, 0, 86, 0
3, 59695, Note_on_c, 0, 60, 0
3, 59726, Note_on_c, 0, 79, 27
3, 59764, Note_on_c, 0, 80, 27
3, 59781, Note_on_c, 0, 54, 0
3, 59787, Note_on_c, 0, 79, 0
3, 59801, Note_on_c, 0, 81, 63
3, 59802, Note_on_c, 0, 80, 0
3, 59836, Note_on_c, 0, 81, 0
3, 59853, Note_on_c, 0, 86, 68
3, 59865, Note_on_c, 0, 58, 37
3, 59869, Note_on_c, 0, 62, 28
3, 59874, Note_on_c, 0, 57, 28
3, 59876, Note_on_c, 0, 53, 39
3, 59890, Note_on_c, 0, 86, 0
3, 59909, Note_on_c, 0, 80, 45
3, 59949, Note_on_c, 0, 58, 0
3, 59960, Note_on_c, 0, 80, 0
3, 59969, Note_on_c, 0, 79, 38
3, 59990, Note_on_c, 0, 62, 0
3, 60006, Note_on_c, 0, 79, 0
3, 60014, Note_on_c, 0, 77, 39
3, 60058, Note_on_c, 0, 77, 0
3, 60063, Note_on_c, 0, 74, 45
3, 60092, Note_on_c, 0, 74, 0
3, 60119, Note_on_c, 0, 77, 68
3, 60214, Note_on_c, 0, 77, 0
3, 60230, Note_on_c, 0, 79, 57
3, 60255, Note_on_c, 0, 77, 48
3, 60267, Note_on_c, 0, 79, 0
3, 60279, Note_on_c, 0, 53, 0
3, 60297, Note_on_c, 0, 57, 0
3, 60310, Note_on_c, 0, 77, 0
3, 60314, Note_on_c, 0, 74, 26
3, 60375, Note_on_c, 0, 74, 0
3, 60387, Control_c, 0, 64, 127
3, 60430, Note_on_c, 0, 77, 71
3, 60433, Note_on_c, 0, 58, 52
3, 60435, Note_on_c, 0, 62, 46
3, 60437, Note_on_c, 0, 57, 44
3, 60442, Control_c, 0, 64, 0
3, 60449, Note_on_c, 0, 62, 0
3, 60450, Note_on_c, 0, 57, 0
3, 60462, Note_on_c, 0, 58, 0
3, 60462, Note_on_c, 0, 77, 0
3, 60515, Note_on_c, 0, 79, 65
3, 60569, Control_c, 0, 64, 127
3, 60593, Note_on_c, 0, 79, 0
3, 60623, Note_on_c, 0, 77, 64
3, 60652, Note_on_c, 0, 77, 0
3, 60670, Control_c, 0, 64, 0
3, 60672, Note_on_c, 0, 82, 64
3, 60705, Note_on_c, 0, 82, 0
3, 60718, Note_on_c, 0, 70, 65
3, 60741, Note_on_c, 0, 70, 0
3, 60745, Control_c, 0, 64, 127
3, 60768, Note_on_c, 0, 82, 74
3, 60802, Note_on_c, 0, 82, 0
3, 60815, Note_on_c, 0, 70, 74
3, 60817, Note_on_c, 0, 69, 55
3, 60819, Note_on_c, 0, 61, 37
3, 60820, Note_on_c, 0, 64, 42
3, 60829, Note_on_c, 0, 69, 0
3, 60829, Note_on_c, 0, 58, 21
3, 60830, Control_c, 0, 64, 0
3, 60836, Note_on_c, 0, 64, 0
3, 60843, Note_on_c, 0, 70, 0
3, 60856, Note_on_c, 0, 61, 0
3, 60862, Note_on_c, 0, 58, 0
3, 60916, Note_on_c, 0, 80, 67
3, 60923, Note_on_c, 0, 66, 38
3, 60937, Note_on_c, 0, 66, 0
3, 60940, Note_on_c, 0, 80, 0
3, 60960, Control_c, 0, 64, 127
3, 61010, Note_on_c, 0, 63, 57
3, 61013, Note_on_c, 0, 66, 69
3, 61013, Note_on_c, 0, 78, 58
3, 61014, Note_on_c, 0, 58, 45
3, 61041, Note_on_c, 0, 63, 0
3, 61046, Note_on_c, 0, 66, 0
3, 61047, Note_on_c, 0, 78, 0
3, 61050, Control_c, 0, 64, 0
3, 61068, Note_on_c, 0, 58, 0
3, 61099, Note_on_c, 0, 75, 48
3, 61099, Note_on_c, 0, 58, 33
3, 61102, Note_on_c, 0, 63, 44
3, 61104, Note_on_c, 0, 52, 40
3, 61116, Control_c, 0, 64, 127
3, 61148, Note_on_c, 0, 52, 0
3, 61156, Note_on_c, 0, 63, 0
3, 61157, Note_on_c, 0, 75, 0
3, 61159, Note_on_c, 0, 58, 0
3, 61194, Note_on_c, 0, 75, 48
3, 61201, Note_on_c, 0, 63, 51
3, 61207, Note_on_c, 0, 58, 47
3, 61213, Note_on_c, 0, 52, 52
3, 61226, Note_on_c, 0, 63, 0
3, 61228, Note_on_c, 0, 75, 0
3, 61239, Control_c, 0, 64, 0
3, 61243, Note_on_c, 0, 58, 0
3, 61255, Note_on_c, 0, 52, 0
3, 61264, Note_on_c, 0, 73, 44
3, 61274, Note_on_c, 0, 61, 36
3, 61290, Note_on_c, 0, 73, 0
3, 61299, Control_c, 0, 64, 127
3, 61311, Note_on_c, 0, 61, 0
3, 61374, Note_on_c, 0, 70, 43
3, 61380, Note_on_c, 0, 58, 57
3, 61390, Note_on_c, 0, 66, 38
3, 61393, Note_on_c, 0, 51, 37
3, 61404, Note_on_c, 0, 66, 0
3, 61416, Note_on_c, 0, 51, 0
3, 61417, Note_on_c, 0, 70, 0
3, 61431, Note_on_c, 0, 58, 0
3, 61440, Control_c, 0, 64, 0
3, 61457, Note_on_c, 0, 64, 42
3, 61457, Note_on_c, 0, 69, 55
3, 61460, Note_on_c, 0, 57, 25
3, 61511, Control_c, 0, 64, 127
3, 61585, Control_c, 0, 64, 0
3, 61626, Note_on_c, 0, 64, 0
3, 61638, Control_c, 0, 64, 127
3, 61653, Note_on_c, 0, 69, 0
3, 61675, Note_on_c, 0, 57, 0
3, 61779, Note_on_c, 0, 51, 17
3, 61796, Note_on_c, 0, 52, 36
3, 61808, Control_c, 0, 64, 0
3, 61813, Note_on_c, 0, 52, 0
3, 61813, Note_on_c, 0, 51, 0
3, 61822, Note_on_c, 0, 65, 58
3, 61829, Note_on_c, 0, 60, 53
3, 61830, Note_on_c, 0, 53, 41
3, 61833, Note_on_c, 0, 62, 28
3, 61834, Note_on_c, 0, 57, 41
3, 61857, Control_c, 0, 64, 127
3, 61870, Note_on_c, 0, 65, 0
3, 61875, Note_on_c, 0, 62, 0
3, 61895, Note_on_c, 0, 60, 0
3, 61915, Note_on_c, 0, 57, 0
3, 61935, Note_on_c, 0, 53, 0
3, 62150, Note_on_c, 0, 72, 85
3, 62154, Note_on_c, 0, 61, 83
3, 62154, Note_on_c, 0, 65, 80
3, 62154, Note_on_c, 0, 60, 91
3, 62155, Control_c, 0, 64, 0
3, 62168, Note_on_c, 0, 69, 31
3, 62193, Note_on_c, 0, 69, 0
3, 62218, Note_on_c, 0, 65, 0
3, 62218, Control_c, 0, 64, 127
3, 62221, Note_on_c, 0, 58, 60
3, 62232, Note_on_c, 0, 60, 0
3, 62243, Note_on_c, 0, 72, 0
3, 62251, Note_on_c, 0, 71, 36
3, 62265, Note_on_c, 0, 61, 0
3, 62276, Note_on_c, 0, 71, 0
3, 62349, Note_on_c, 0, 75, 81
3, 62351, Note_on_c, 0, 67, 70
3, 62353, Note_on_c, 0, 64, 73
3, 62355, Note_on_c, 0, 70, 64
3, 62363, Control_c, 0, 64, 0
3, 62364, Note_on_c, 0, 63, 73
3, 62368, Note_on_c, 0, 58, 0
3, 62394, Note_on_c, 0, 70, 0
3, 62412, Note_on_c, 0, 67, 0
3, 62422, Control_c, 0, 64, 127
3, 62423, Note_on_c, 0, 64, 0
3, 62427, Note_on_c, 0, 61, 55
3, 62431, Note_on_c, 0, 75, 0
3, 62433, Note_on_c, 0, 73, 51
3, 62434, Note_on_c, 0, 63, 0
3, 62466, Note_on_c, 0, 73, 0
3, 62475, Note_on_c, 0, 61, 0
3, 62551, Note_on_c, 0, 63, 37
3, 62586, Control_c, 0, 64, 0
3, 62601, Note_on_c, 0, 63, 0
3, 62623, Control_c, 0, 64, 127
3, 62718, Note_on_c, 0, 81, 72
3, 62721, Note_on_c, 0, 70, 71
3, 62721, Note_on_c, 0, 73, 67
3, 62727, Note_on_c, 0, 76, 47
3, 62729, Note_on_c, 0, 69, 69
3, 62743, Control_c, 0, 64, 0
3, 62747, Note_on_c, 0, 76, 0
3, 62765, Note_on_c, 0, 81, 0
3, 62771, Note_on_c, 0, 73, 0
3, 62774, Note_on_c, 0, 69, 0
3, 62781, Note_on_c, 0, 70, 0
3, 62786, Note_on_c, 0, 67, 37
3, 62795, Note_on_c, 0, 79, 44
3, 62800, Note_on_c, 0, 67, 0
3, 62803, Control_c, 0, 64, 127
3, 62809, Note_on_c, 0, 79, 0
3, 62914, Note_on_c, 0, 51, 56
3, 62914, Note_on_c, 0, 61, 50
3, 62939, Note_on_c, 0, 61, 0
3, 62953, Note_on_c, 0, 51, 0
3, 62981, Control_c, 0, 64, 0
3, 62983, Note_on_c, 0, 82, 55
3, 62989, Note_on_c, 0, 60, 55
3, 62991, Note_on_c, 0, 84, 55
3, 62992, Note_on_c, 0, 72, 43
3, 62993, Note_on_c, 0, 50, 49
3, 62993, Note_on_c, 0, 57, 32
3, 63004, Note_on_c, 0, 72, 0
3, 63004, Note_on_c, 0, 84, 0
3, 63005, Note_on_c, 0, 82, 0
3, 63008, Note_on_c, 0, 60, 0
3, 63013, Note_on_c, 0, 57, 0
3, 63036, Note_on_c, 0, 50, 0
3, 63167, Note_on_c, 0, 68, 52
3, 63167, Note_on_c, 0, 80, 34
3, 63183, Note_on_c, 0, 77, 37
3, 63184, Note_on_c, 0, 57, 33
3, 63184, Note_on_c, 0, 60, 48
3, 63185, Note_on_c, 0, 50, 35
3, 63188, Note_on_c, 0, 74, 25
3, 63192, Note_on_c, 0, 81, 47
3, 63197, Note_on_c, 0, 68, 0
3, 63200, Note_on_c, 0, 79, 30
3, 63200, Note_on_c, 0, 69, 66
3, 63210, Note_on_c, 0, 80, 0
3, 63222, Note_on_c, 0, 79, 0
3, 63242, Control_c, 0, 64, 127
3, 63269, Note_on_c, 0, 81, 0
3, 63283, Note_on_c, 0, 77, 0
3, 63286, Note_on_c, 0, 74, 0
3, 63301, Note_on_c, 0, 69, 0
3, 63304, Note_on_c, 0, 60, 0
3, 63313, Note_on_c, 0, 57, 0
3, 63327, Note_on_c, 0, 50, 0
3, 63351, Control_c, 0, 64, 0
3, 63364, Note_on_c, 0, 77, 59
3, 63374, Note_on_c, 0, 65, 48
3, 63377, Note_on_c, 0, 60, 46
3, 63379, Note_on_c, 0, 57, 42
3, 63380, Note_on_c, 0, 50, 33
3, 63421, Control_c, 0, 64, 127
3, 63439, Note_on_c, 0, 77, 0
3, 63453, Note_on_c, 0, 65, 0
3, 63544, Note_on_c, 0, 60, 0
3, 63555, Note_on_c, 0, 74, 55
3, 63557, Note_on_c, 0, 62, 53
3, 63623, Note_on_c, 0, 62, 0
3, 63631, Note_on_c, 0, 50, 0
3, 63632, Note_on_c, 0, 74, 0
3, 63634, Note_on_c, 0, 57, 0
3, 63737, Control_c, 0, 64, 0
3, 63747, Note_on_c, 0, 76, 64
3, 63753, Note_on_c, 0, 49, 37
3, 63754, Note_on_c, 0, 57, 40
3, 63756, Note_on_c, 0, 69, 40
3, 63756, Note_on_c, 0, 64, 41
3, 63794, Note_on_c, 0, 57, 0
3, 63796, Note_on_c, 0, 69, 0
3, 63799, Note_on_c, 0, 64, 0
3, 63803, Note_on_c, 0, 76, 0
3, 63806, Note_on_c, 0, 49, 0
3, 63930, Note_on_c, 0, 73, 55
3, 63935, Control_c, 0, 64, 127
3, 63939, Note_on_c, 0, 57, 49
3, 63941, Note_on_c, 0, 64, 41
3, 63944, Note_on_c, 0, 49, 35
3, 63948, Note_on_c, 0, 69, 31
3, 63977, Note_on_c, 0, 69, 0
3, 63986, Note_on_c, 0, 73, 0
3, 64027, Note_on_c, 0, 64, 0
3, 64045, Note_on_c, 0, 57, 0
3, 64066, Note_on_c, 0, 49, 0
3, 64124, Control_c, 0, 64, 0
3, 64127, Note_on_c, 0, 69, 64
3, 64134, Note_on_c, 0, 57, 49
3, 64136, Note_on_c, 0, 64, 39
3, 64137, Note_on_c, 0, 61, 36
3, 64139, Note_on_c, 0, 49, 33
3, 64181, Control_c, 0, 64, 127
3, 64203, Note_on_c, 0, 57, 0
3, 64220, Note_on_c, 0, 64, 0
3, 64241, Note_on_c, 0, 61, 0
3, 64249, Note_on_c, 0, 49, 0
3, 64259, Note_on_c, 0, 69, 0
3, 64327, Note_on_c, 0, 61, 40
3, 64327, Note_on_c, 0, 49, 46
3, 64327, Note_on_c, 0, 64, 42
3, 64327, Note_on_c, 0, 57, 44
3, 64396, Note_on_c, 0, 57, 0
3, 64415, Note_on_c, 0, 64, 0
3, 64426, Note_on_c, 0, 61, 0
3, 64448, Note_on_c, 0, 49, 0
3, 64522, Control_c, 0, 64, 0
3, 64523, Note_on_c, 0, 48, 47
3, 64524, Note_on_c, 0, 57, 32
3, 64529, Note_on_c, 0, 65, 26
3, 64541, Note_on_c, 0, 60, 19
3, 64567, Note_on_c, 0, 60, 0
3, 64579, Note_on_c, 0, 57, 0
3, 64586, Note_on_c, 0, 65, 0
3, 64598, Note_on_c, 0, 48, 0
3, 64702, Note_on_c, 0, 60, 56
3, 64706, Note_on_c, 0, 57, 41
3, 64707, Note_on_c, 0, 48, 51
3, 64727, Control_c, 0, 64, 127
3, 64782, Note_on_c, 0, 57, 0
3, 64830, Note_on_c, 0, 60, 0
3, 64894, Control_c, 0, 64, 0
3, 64936, Note_on_c, 0, 62, 35
3, 64958, Note_on_c, 0, 62, 0
3, 64968, Note_on_c, 0, 64, 58
3, 64980, Note_on_c, 0, 64, 0
3, 65007, Note_on_c, 0, 67, 72
3, 65039, Note_on_c, 0, 67, 0
3, 65046, Note_on_c, 0, 69, 69
3, 65058, Note_on_c, 0, 69, 0
3, 65093, Note_on_c, 0, 72, 52
3, 65125, Note_on_c, 0, 74, 54
3, 65132, Note_on_c, 0, 72, 0
3, 65166, Note_on_c, 0, 74, 0
3, 65172, Note_on_c, 0, 76, 51
3, 65200, Note_on_c, 0, 76, 0
3, 65220, Note_on_c, 0, 79, 82
3, 65258, Note_on_c, 0, 79, 0
3, 65281, Note_on_c, 0, 76, 80
3, 65301, Note_on_c, 0, 48, 0
3, 65310, Note_on_c, 0, 76, 0
3, 65407, Note_on_c, 0, 74, 84
3, 65425, Note_on_c, 0, 48, 25
3, 65440, Note_on_c, 0, 74, 0
3, 65456, Note_on_c, 0, 48, 0
3, 65492, Note_on_c, 0, 72, 34
3, 65626, Note_on_c, 0, 72, 0
3, 65691, Control_c, 0, 64, 127
3, 65788, Note_on_c, 0, 57, 44
3, 65795, Note_on_c, 0, 48, 32
3, 65803, Note_on_c, 0, 57, 0
3, 65808, Note_on_c, 0, 48, 0
3, 65825, Control_c, 0, 64, 0
3, 65853, Note_on_c, 0, 69, 56
3, 65869, Note_on_c, 0, 69, 0
3, 65917, Note_on_c, 0, 70, 65
3, 65944, Note_on_c, 0, 70, 0
3, 65982, Note_on_c, 0, 72, 76
3, 66003, Note_on_c, 0, 62, 40
3, 66009, Note_on_c, 0, 58, 36
3, 66014, Note_on_c, 0, 57, 27
3, 66019, Note_on_c, 0, 72, 0
3, 66056, Note_on_c, 0, 69, 57
3, 66099, Note_on_c, 0, 69, 0
3, 66102, Note_on_c, 0, 62, 0
3, 66115, Note_on_c, 0, 58, 0
3, 66120, Note_on_c, 0, 65, 38
3, 66143, Note_on_c, 0, 65, 0
3, 66184, Note_on_c, 0, 67, 60
3, 66209, Note_on_c, 0, 62, 26
3, 66216, Note_on_c, 0, 58, 33
3, 66230, Note_on_c, 0, 67, 0
3, 66237, Note_on_c, 0, 62, 0
3, 66256, Note_on_c, 0, 69, 57
3, 66258, Note_on_c, 0, 58, 0
3, 66293, Note_on_c, 0, 69, 0
3, 66307, Note_on_c, 0, 57, 0
3, 66384, Note_on_c, 0, 65, 66
3, 66387, Note_on_c, 0, 58, 34
3, 66395, Note_on_c, 0, 57, 20
3, 66415, Note_on_c, 0, 57, 0
3, 66428, Note_on_c, 0, 65, 0
3, 66431, Note_on_c, 0, 58, 0
3, 66464, Note_on_c, 0, 62, 37
3, 66518, Control_c, 0, 64, 127
3, 66540, Note_on_c, 0, 62, 0
3, 66573, Note_on_c, 0, 62, 62
3, 66596, Control_c, 0, 64, 0
3, 66598, Note_on_c, 0, 62, 0
3, 66662, Control_c, 0, 64, 127
3, 66800, Control_c, 0, 64, 0
3, 66817, Note_on_c, 0, 62, 40
3, 66817, Note_on_c, 0, 58, 46
3, 66818, Note_on_c, 0, 54, 46
3, 66908, Control_c, 0, 64, 127
3, 66921, Note_on_c, 0, 58, 0
3, 66946, Note_on_c, 0, 58, 13
3, 66993, Note_on_c, 0, 62, 0
3, 67001, Control_c, 0, 64, 0
3, 67020, Note_on_c, 0, 66, 60
3, 67063, Note_on_c, 0, 66, 0
3, 67142, Note_on_c, 0, 58, 0
3, 67146, Control_c, 0, 64, 127
3, 67172, Note_on_c, 0, 58, 15
3, 67183, Control_c, 0, 64, 0
3, 67205, Note_on_c, 0, 66, 39
3, 67235, Note_on_c, 0, 58, 0
3, 67246, Note_on_c, 0, 66, 0
3, 67251, Note_on_c, 0, 67, 41
3, 67281, Note_on_c, 0, 68, 60
3, 67297, Note_on_c, 0, 67, 0
3, 67322, Note_on_c, 0, 68, 0
3, 67330, Note_on_c, 0, 69, 55
3, 67365, Note_on_c, 0, 69, 0
3, 67395, Note_on_c, 0, 67, 48
3, 67433, Note_on_c, 0, 67, 0
3, 67449, Note_on_c, 0, 66, 23
3, 67480, Note_on_c, 0, 54, 0
3, 67487, Note_on_c, 0, 66, 0
3, 67544, Note_on_c, 0, 54, 49
3, 67548, Note_on_c, 0, 58, 34
3, 67549, Note_on_c, 0, 62, 34
3, 67582, Note_on_c, 0, 62, 0
3, 67599, Note_on_c, 0, 54, 0
3, 67633, Note_on_c, 0, 62, 28
3, 67642, Note_on_c, 0, 53, 38
3, 67788, Note_on_c, 0, 62, 0
3, 67828, Note_on_c, 0, 58, 0
3, 67860, Control_c, 0, 64, 127
3, 67862, Note_on_c, 0, 53, 0
3, 67912, Note_on_c, 0, 58, 44
3, 67914, Note_on_c, 0, 62, 45
3, 67921, Note_on_c, 0, 53, 26
3, 67930, Note_on_c, 0, 62, 0
3, 67931, Control_c, 0, 64, 0
3, 67935, Note_on_c, 0, 53, 0
3, 67946, Note_on_c, 0, 58, 0
3, 68041, Note_on_c, 0, 65, 62
3, 68062, Note_on_c, 0, 65, 0
3, 68088, Control_c, 0, 64, 127
3, 68100, Note_on_c, 0, 67, 71
3, 68110, Note_on_c, 0, 58, 36
3, 68113, Note_on_c, 0, 62, 30
3, 68128, Note_on_c, 0, 62, 0
3, 68128, Control_c, 0, 64, 0
3, 68137, Note_on_c, 0, 67, 0
3, 68153, Note_on_c, 0, 58, 0
3, 68171, Note_on_c, 0, 69, 75
3, 68219, Note_on_c, 0, 69, 0
3, 68229, Control_c, 0, 64, 127
3, 68290, Note_on_c, 0, 58, 50
3, 68292, Note_on_c, 0, 70, 71
3, 68331, Note_on_c, 0, 58, 0
3, 68333, Control_c, 0, 64, 0
3, 68338, Note_on_c, 0, 70, 0
3, 68364, Note_on_c, 0, 61, 64
3, 68369, Note_on_c, 0, 72, 56
3, 68370, Note_on_c, 0, 65, 57
3, 68374, Note_on_c, 0, 60, 59
3, 68379, Note_on_c, 0, 69, 38
3, 68407, Control_c, 0, 64, 127
3, 68438, Note_on_c, 0, 69, 0
3, 68439, Note_on_c, 0, 65, 0
3, 68451, Note_on_c, 0, 61, 0
3, 68455, Note_on_c, 0, 72, 0
3, 68455, Note_on_c, 0, 60, 0
3, 68504, Control_c, 0, 64, 0
3, 68536, Note_on_c, 0, 70, 62
3, 68537, Note_on_c, 0, 63, 68
3, 68537, Note_on_c, 0, 75, 73
3, 68539, Note_on_c, 0, 64, 63
3, 68540, Note_on_c, 0, 67, 57
3, 68579, Control_c, 0, 64, 127
3, 68609, Note_on_c, 0, 67, 0
3, 68610, Note_on_c, 0, 64, 0
3, 68622, Note_on_c, 0, 70, 0
3, 68632, Note_on_c, 0, 75, 0
3, 68638, Note_on_c, 0, 63, 0
3, 68705, Control_c, 0, 64, 0
3, 68730, Note_on_c, 0, 78, 64
3, 68733, Note_on_c, 0, 67, 40
3, 68736, Note_on_c, 0, 70, 46
3, 68737, Note_on_c, 0, 66, 60
3, 68749, Note_on_c, 0, 70, 0
3, 68756, Note_on_c, 0, 67, 0
3, 68765, Control_c, 0, 64, 127
3, 68770, Note_on_c, 0, 78, 0
3, 68867, Note_on_c, 0, 79, 56
3, 68871, Note_on_c, 0, 69, 60
3, 68883, Note_on_c, 0, 66, 0
3, 68884, Note_on_c, 0, 69, 0
3, 68888, Control_c, 0, 64, 0
3, 68911, Note_on_c, 0, 79, 0
3, 68929, Note_on_c, 0, 76, 71
3, 68929, Note_on_c, 0, 73, 77
3, 68930, Note_on_c, 0, 84, 81
3, 68936, Note_on_c, 0, 72, 72
3, 68940, Note_on_c, 0, 79, 57
3, 68946, Note_on_c, 0, 82, 39
3, 68947, Control_c, 0, 64, 127
3, 68995, Note_on_c, 0, 84, 0
3, 69001, Note_on_c, 0, 79, 0
3, 69002, Note_on_c, 0, 82, 0
3, 69005, Note_on_c, 0, 76, 0
3, 69007, Note_on_c, 0, 73, 0
3, 69025, Note_on_c, 0, 72, 0
3, 69056, Note_on_c, 0, 82, 53
3, 69057, Note_on_c, 0, 70, 64
3, 69060, Note_on_c, 0, 73, 67
3, 69066, Note_on_c, 0, 76, 58
3, 69094, Note_on_c, 0, 76, 0
3, 69100, Note_on_c, 0, 82, 0
3, 69108, Note_on_c, 0, 73, 0
3, 69113, Note_on_c, 0, 70, 0
3, 69114, Control_c, 0, 64, 0
3, 69158, Note_on_c, 0, 69, 41
3, 69160, Note_on_c, 0, 81, 48
3, 69166, Note_on_c, 0, 72, 40
3, 69174, Note_on_c, 0, 76, 31
3, 69187, Note_on_c, 0, 81, 0
3, 69189, Note_on_c, 0, 76, 0
3, 69189, Control_c, 0, 64, 127
3, 69193, Note_on_c, 0, 69, 0
3, 69209, Note_on_c, 0, 72, 0
3, 69279, Control_c, 0, 64, 0
3, 69304, Note_on_c, 0, 67, 31
3, 69305, Note_on_c, 0, 79, 46
3, 69305, Note_on_c, 0, 69, 39
3, 69307, Note_on_c, 0, 76, 34
3, 69315, Note_on_c, 0, 72, 44
3, 69334, Control_c, 0, 64, 127
3, 69359, Note_on_c, 0, 67, 0
3, 69367, Note_on_c, 0, 76, 0
3, 69370, Note_on_c, 0, 79, 0
3, 69382, Note_on_c, 0, 72, 0
3, 69384, Note_on_c, 0, 69, 0
3, 69440, Note_on_c, 0, 65, 44
3, 69441, Note_on_c, 0, 77, 51
3, 69444, Note_on_c, 0, 69, 57
3, 69445, Note_on_c, 0, 72, 45
3, 69450, Control_c, 0, 64, 0
3, 69465, Note_on_c, 0, 72, 0
3, 69472, Note_on_c, 0, 77, 0
3, 69477, Note_on_c, 0, 69, 0
3, 69483, Note_on_c, 0, 65, 0
3, 69539, Control_c, 0, 64, 127
3, 69552, Note_on_c, 0, 76, 55
3, 69560, Note_on_c, 0, 69, 53
3, 69560, Note_on_c, 0, 64, 32
3, 69561, Note_on_c, 0, 65, 41
3, 69647, Note_on_c, 0, 65, 0
3, 69647, Note_on_c, 0, 69, 0
3, 69663, Control_c, 0, 64, 0
3, 69670, Note_on_c, 0, 76, 0
3, 69678, Note_on_c, 0, 64, 0
3, 69697, Note_on_c, 0, 74, 43
3, 69700, Note_on_c, 0, 65, 37
3, 69700, Note_on_c, 0, 61, 49
3, 69700, Note_on_c, 0, 69, 47
3, 69712, Control_c, 0, 64, 127
3, 69746, Note_on_c, 0, 69, 0
3, 69787, Note_on_c, 0, 65, 0
3, 69830, Note_on_c, 0, 74, 0
3, 69851, Note_on_c, 0, 61, 0
3, 69864, Control_c, 0, 64, 0
3, 69882, Note_on_c, 0, 65, 36
3, 69884, Note_on_c, 0, 72, 45
3, 69886, Note_on_c, 0, 69, 45
3, 69888, Note_on_c, 0, 60, 53
3, 69961, Control_c, 0, 64, 127
3, 70048, Note_on_c, 0, 69, 0
3, 70057, Note_on_c, 0, 65, 0
3, 70076, Note_on_c, 0, 60, 0
3, 70100, Note_on_c, 0, 72, 0
3, 70241, Control_c, 0, 64, 0
3, 70263, Note_on_c, 0, 62, 39
3, 70263, Note_on_c, 0, 69, 50
3, 70269, Note_on_c, 0, 60, 36
3, 70270, Note_on_c, 0, 65, 40
3, 70282, Note_on_c, 0, 57, 27
3, 70284, Note_on_c, 0, 50, 30
3, 70330, Control_c, 0, 64, 127
3, 70416, Note_on_c, 0, 62, 0
3, 70455, Note_on_c, 0, 65, 0
3, 70469, Note_on_c, 0, 69, 0
3, 70483, Note_on_c, 0, 60, 0
3, 70527, Note_on_c, 0, 57, 0
3, 70536, Note_on_c, 0, 50, 0
3, 70609, Control_c, 0, 64, 0
3, 70639, Note_on_c, 0, 50, 40
3, 70641, Note_on_c, 0, 60, 38
3, 70644, Note_on_c, 0, 54, 39
3, 70833, Note_on_c, 0, 60, 0
3, 70837, Note_on_c, 0, 50, 0
3, 70846, Note_on_c, 0, 86, 71
3, 70870, Note_on_c, 0, 86, 0
3, 70877, Note_on_c, 0, 54, 0
3, 70878, Note_on_c, 0, 87, 57
3, 70908, Note_on_c, 0, 86, 48
3, 70932, Note_on_c, 0, 87, 0
3, 70969, Note_on_c, 0, 85, 57
3, 70976, Note_on_c, 0, 86, 0
3, 71008, Note_on_c, 0, 85, 0
3, 71022, Note_on_c, 0, 84, 47
3, 71050, Note_on_c, 0, 84, 0
3, 71138, Note_on_c, 0, 82, 75
3, 71151, Note_on_c, 0, 60, 40
3, 71171, Note_on_c, 0, 60, 0
3, 71179, Note_on_c, 0, 82, 0
3, 71213, Note_on_c, 0, 78, 60
3, 71258, Note_on_c, 0, 78, 0
3, 71277, Note_on_c, 0, 77, 43
3, 71306, Note_on_c, 0, 77, 0
3, 71341, Note_on_c, 0, 75, 60
3, 71347, Note_on_c, 0, 60, 39
3, 71352, Note_on_c, 0, 54, 28
3, 71366, Note_on_c, 0, 60, 0
3, 71379, Note_on_c, 0, 75, 0
3, 71387, Note_on_c, 0, 54, 0
3, 71408, Note_on_c, 0, 74, 55
3, 71447, Note_on_c, 0, 74, 0
3, 71469, Note_on_c, 0, 73, 63
3, 71509, Note_on_c, 0, 73, 0
3, 71523, Note_on_c, 0, 72, 63
3, 71533, Note_on_c, 0, 60, 46
3, 71540, Note_on_c, 0, 54, 32
3, 71547, Note_on_c, 0, 60, 0
3, 71552, Note_on_c, 0, 72, 0
3, 71574, Note_on_c, 0, 54, 0
3, 71585, Note_on_c, 0, 70, 67
3, 71635, Note_on_c, 0, 70, 0
3, 71643, Note_on_c, 0, 68, 58
3, 71685, Note_on_c, 0, 68, 0
3, 71690, Note_on_c, 0, 66, 46
3, 71721, Note_on_c, 0, 54, 36
3, 71729, Note_on_c, 0, 66, 0
3, 71743, Note_on_c, 0, 65, 42
3, 71769, Note_on_c, 0, 54, 0
3, 71771, Note_on_c, 0, 65, 0
3, 71797, Note_on_c, 0, 63, 31
3, 71837, Note_on_c, 0, 62, 48
3, 71845, Note_on_c, 0, 63, 0
3, 71872, Note_on_c, 0, 62, 0
3, 71887, Note_on_c, 0, 61, 53
3, 71916, Note_on_c, 0, 61, 0
3, 71924, Note_on_c, 0, 60, 62
3, 71963, Note_on_c, 0, 60, 0
3, 71964, Note_on_c, 0, 44, 32
3, 71973, Note_on_c, 0, 59, 53
3, 71974, Note_on_c, 0, 54, 27
3, 72004, Note_on_c, 0, 59, 0
3, 72027, Note_on_c, 0, 58, 37
3, 72044, Note_on_c, 0, 58, 0
3, 72053, Note_on_c, 0, 54, 0
3, 72073, Note_on_c, 0, 57, 32
3, 72102, Note_on_c, 0, 57, 0
3, 72136, Note_on_c, 0, 55, 44
3, 72146, Note_on_c, 0, 50, 53
3, 72167, Note_on_c, 0, 55, 0
3, 72176, Note_on_c, 0, 44, 0
3, 72189, Note_on_c, 0, 50, 0
3, 72198, Note_on_c, 0, 53, 37
3, 72200, Note_on_c, 0, 60, 69
3, 72204, Note_on_c, 0, 43, 36
3, 72267, Note_on_c, 0, 53, 0
3, 72268, Note_on_c, 0, 60, 0
3, 72277, Note_on_c, 0, 57, 57
3, 72302, Note_on_c, 0, 57, 0
3, 72330, Note_on_c, 0, 58, 64
3, 72349, Note_on_c, 0, 50, 24
3, 72374, Note_on_c, 0, 58, 0
3, 72380, Note_on_c, 0, 50, 0
3, 72402, Note_on_c, 0, 54, 32
3, 72469, Note_on_c, 0, 54, 0
3, 72529, Note_on_c, 0, 55, 64
3, 72541, Note_on_c, 0, 53, 24
3, 72556, Note_on_c, 0, 53, 0
3, 72578, Note_on_c, 0, 55, 0
3, 72616, Note_on_c, 0, 57, 36
3, 72625, Note_on_c, 0, 43, 0
3, 72674, Control_c, 0, 64, 127
3, 72691, Note_on_c, 0, 57, 0
3, 72712, Note_on_c, 0, 58, 55
3, 72722, Control_c, 0, 64, 0
3, 72757, Note_on_c, 0, 58, 0
3, 72792, Note_on_c, 0, 60, 57
3, 72827, Control_c, 0, 64, 127
3, 72875, Note_on_c, 0, 60, 0
3, 72903, Note_on_c, 0, 62, 60
3, 72920, Note_on_c, 0, 58, 45
3, 72923, Control_c, 0, 64, 0
3, 72949, Note_on_c, 0, 58, 0
3, 72955, Note_on_c, 0, 62, 0
3, 72994, Note_on_c, 0, 64, 44
3, 73050, Control_c, 0, 64, 127
3, 73066, Note_on_c, 0, 64, 0
3, 73094, Note_on_c, 0, 58, 44
3, 73096, Note_on_c, 0, 65, 61
3, 73101, Note_on_c, 0, 52, 34
3, 73109, Control_c, 0, 64, 0
3, 73117, Note_on_c, 0, 52, 0
3, 73134, Note_on_c, 0, 58, 0
3, 73147, Note_on_c, 0, 65, 0
3, 73183, Note_on_c, 0, 67, 35
3, 73229, Control_c, 0, 64, 127
3, 73258, Note_on_c, 0, 67, 0
3, 73289, Note_on_c, 0, 69, 75
3, 73290, Note_on_c, 0, 63, 52
3, 73292, Note_on_c, 0, 58, 45
3, 73295, Note_on_c, 0, 52, 50
3, 73307, Control_c, 0, 64, 0
3, 73315, Note_on_c, 0, 52, 0
3, 73317, Note_on_c, 0, 63, 0
3, 73330, Note_on_c, 0, 58, 0
3, 73333, Note_on_c, 0, 69, 0
3, 73367, Note_on_c, 0, 52, 36
3, 73370, Control_c, 0, 64, 127
3, 73373, Note_on_c, 0, 58, 32
3, 73384, Note_on_c, 0, 70, 57
3, 73410, Note_on_c, 0, 52, 0
3, 73416, Note_on_c, 0, 58, 0
3, 73450, Note_on_c, 0, 70, 0
3, 73484, Note_on_c, 0, 72, 64
3, 73488, Note_on_c, 0, 58, 50
3, 73489, Note_on_c, 0, 60, 68
3, 73496, Note_on_c, 0, 52, 44
3, 73505, Note_on_c, 0, 60, 0
3, 73512, Note_on_c, 0, 72, 0
3, 73515, Control_c, 0, 64, 0
3, 73518, Note_on_c, 0, 52, 0
3, 73521, Note_on_c, 0, 58, 0
3, 73560, Note_on_c, 0, 52, 40
3, 73564, Note_on_c, 0, 58, 33
3, 73568, Note_on_c, 0, 73, 48
3, 73568, Note_on_c, 0, 61, 44
3, 73582, Control_c, 0, 64, 127
3, 73583, Note_on_c, 0, 73, 0
3, 73590, Note_on_c, 0, 61, 0
3, 73597, Note_on_c, 0, 52, 0
3, 73616, Note_on_c, 0, 58, 0
3, 73667, Note_on_c, 0, 62, 71
3, 73667, Note_on_c, 0, 74, 62
3, 73673, Note_on_c, 0, 60, 50
3, 73674, Note_on_c, 0, 57, 51
3, 73677, Note_on_c, 0, 53, 40
3, 73688, Note_on_c, 0, 60, 0
3, 73694, Note_on_c, 0, 53, 0
3, 73694, Note_on_c, 0, 62, 0
3, 73698, Note_on_c, 0, 74, 0
3, 73701, Note_on_c, 0, 57, 0
3, 73717, Control_c, 0, 64, 0
3, 73755, Note_on_c, 0, 57, 41
3, 73757, Note_on_c, 0, 63, 49
3, 73758, Note_on_c, 0, 75, 57
3, 73760, Note_on_c, 0, 60, 31
3, 73765, Note_on_c, 0, 53, 26
3, 73778, Note_on_c, 0, 60, 0
3, 73780, Control_c, 0, 64, 127
3, 73793, Note_on_c, 0, 53, 0
3, 73795, Note_on_c, 0, 57, 0
3, 73816, Note_on_c, 0, 75, 0
3, 73817, Note_on_c, 0, 63, 0
3, 73856, Note_on_c, 0, 60, 60
3, 73859, Note_on_c, 0, 64, 68
3, 73859, Note_on_c, 0, 76, 61
3, 73863, Note_on_c, 0, 57, 49
3, 73866, Note_on_c, 0, 53, 36
3, 73887, Control_c, 0, 64, 0
3, 73888, Note_on_c, 0, 64, 0
3, 73889, Note_on_c, 0, 53, 0
3, 73889, Note_on_c, 0, 76, 0
3, 73892, Note_on_c, 0, 60, 0
3, 73899, Note_on_c, 0, 57, 0
3, 73934, Note_on_c, 0, 65, 64
3, 73935, Note_on_c, 0, 77, 64
3, 73938, Note_on_c, 0, 60, 48
3, 73943, Control_c, 0, 64, 127
3, 73944, Note_on_c, 0, 53, 25
3, 73944, Note_on_c, 0, 57, 30
3, 73950, Note_on_c, 0, 64, 30
3, 73967, Note_on_c, 0, 65, 0
3, 73982, Note_on_c, 0, 64, 0
3, 73983, Note_on_c, 0, 77, 0
3, 73985, Note_on_c, 0, 60, 0
3, 73991, Note_on_c, 0, 53, 0
3, 73994, Note_on_c, 0, 57, 0
3, 74050, Note_on_c, 0, 79, 67
3, 74050, Note_on_c, 0, 67, 68
3, 74055, Note_on_c, 0, 57, 56
3, 74056, Note_on_c, 0, 60, 61
3, 74056, Note_on_c, 0, 53, 52
3, 74057, Note_on_c, 0, 64, 57
3, 74067, Note_on_c, 0, 77, 33
3, 74077, Control_c, 0, 64, 0
3, 74079, Note_on_c, 0, 67, 0
3, 74082, Note_on_c, 0, 64, 0
3, 74083, Note_on_c, 0, 79, 0
3, 74088, Note_on_c, 0, 77, 0
3, 74091, Note_on_c, 0, 60, 0
3, 74097, Note_on_c, 0, 53, 0
3, 74102, Note_on_c, 0, 57, 0
3, 74129, Control_c, 0, 64, 127
3, 74135, Note_on_c, 0, 80, 60
3, 74137, Note_on_c, 0, 57, 53
3, 74138, Note_on_c, 0, 68, 54
3, 74139, Note_on_c, 0, 53, 32
3, 74140, Note_on_c, 0, 60, 43
3, 74143, Note_on_c, 0, 64, 24
3, 74168, Note_on_c, 0, 64, 0
3, 74183, Note_on_c, 0, 68, 0
3, 74192, Note_on_c, 0, 60, 0
3, 74192, Note_on_c, 0, 80, 0
3, 74196, Note_on_c, 0, 57, 0
3, 74197, Note_on_c, 0, 53, 0
3, 74239, Note_on_c, 0, 81, 66
3, 74241, Note_on_c, 0, 69, 76
3, 74241, Note_on_c, 0, 53, 48
3, 74242, Note_on_c, 0, 75, 67
3, 74245, Note_on_c, 0, 60, 54
3, 74246, Note_on_c, 0, 57, 50
3, 74249, Note_on_c, 0, 64, 38
3, 74254, Note_on_c, 0, 78, 28
3, 74260, Note_on_c, 0, 69, 0
3, 74265, Note_on_c, 0, 64, 0
3, 74266, Note_on_c, 0, 81, 0
3, 74270, Control_c, 0, 64, 0
3, 74271, Note_on_c, 0, 78, 0
3, 74273, Note_on_c, 0, 75, 0
3, 74278, Note_on_c, 0, 60, 0
3, 74280, Note_on_c, 0, 53, 0
3, 74287, Note_on_c, 0, 57, 0
3, 74310, Note_on_c, 0, 53, 29
3, 74312, Control_c, 0, 64, 127
3, 74314, Note_on_c, 0, 64, 47
3, 74314, Note_on_c, 0, 60, 54
3, 74318, Note_on_c, 0, 57, 57
3, 74319, Note_on_c, 0, 82, 77
3, 74321, Note_on_c, 0, 70, 69
3, 74358, Note_on_c, 0, 53, 0
3, 74362, Note_on_c, 0, 57, 0
3, 74369, Note_on_c, 0, 60, 0
3, 74370, Note_on_c, 0, 64, 0
3, 74383, Note_on_c, 0, 82, 0
3, 74384, Note_on_c, 0, 70, 0
3, 74429, Note_on_c, 0, 65, 79
3, 74429, Note_on_c, 0, 84, 78
3, 74431, Note_on_c, 0, 61, 68
3, 74433, Note_on_c, 0, 58, 59
3, 74433, Note_on_c, 0, 54, 67
3, 74433, Note_on_c, 0, 72, 77
3, 74434, Control_c, 0, 64, 0
3, 74479, Note_on_c, 0, 84, 0
3, 74481, Note_on_c, 0, 72, 0
3, 74494, Note_on_c, 0, 65, 0
3, 74494, Control_c, 0, 64, 127
3, 74499, Note_on_c, 0, 58, 0
3, 74500, Note_on_c, 0, 54, 0
3, 74501, Note_on_c, 0, 61, 0
3, 74532, Note_on_c, 0, 65, 55
3, 74533, Note_on_c, 0, 85, 76
3, 74534, Note_on_c, 0, 61, 46
3, 74536, Note_on_c, 0, 54, 56
3, 74537, Note_on_c, 0, 73, 68
3, 74538, Note_on_c, 0, 58, 49
3, 74586, Note_on_c, 0, 73, 0
3, 74586, Note_on_c, 0, 85, 0
3, 74589, Note_on_c, 0, 65, 0
3, 74595, Note_on_c, 0, 54, 0
3, 74595, Note_on_c, 0, 61, 0
3, 74599, Note_on_c, 0, 58, 0
3, 74629, Note_on_c, 0, 75, 74
3, 74631, Note_on_c, 0, 87, 74
3, 74631, Note_on_c, 0, 61, 53
3, 74632, Note_on_c, 0, 58, 52
3, 74634, Note_on_c, 0, 54, 54
3, 74635, Note_on_c, 0, 65, 62
3, 74658, Note_on_c, 0, 65, 0
3, 74670, Note_on_c, 0, 75, 0
3, 74672, Note_on_c, 0, 87, 0
3, 74673, Note_on_c, 0, 61, 0
3, 74676, Note_on_c, 0, 54, 0
3, 74679, Note_on_c, 0, 58, 0
3, 74687, Control_c, 0, 64, 0
3, 74707, Note_on_c, 0, 54, 48
3, 74709, Note_on_c, 0, 61, 54
3, 74709, Note_on_c, 0, 89, 77
3, 74710, Note_on_c, 0, 77, 74
3, 74711, Note_on_c, 0, 58, 37
3, 74713, Note_on_c, 0, 65, 50
3, 74725, Control_c, 0, 64, 127
3, 74744, Note_on_c, 0, 65, 0
3, 74745, Note_on_c, 0, 89, 0
3, 74746, Note_on_c, 0, 77, 0
3, 74757, Note_on_c, 0, 54, 0
3, 74765, Note_on_c, 0, 58, 0
3, 74766, Note_on_c, 0, 61, 0
3, 74805, Note_on_c, 0, 61, 45
3, 74809, Note_on_c, 0, 54, 59
3, 74811, Note_on_c, 0, 58, 48
3, 74812, Note_on_c, 0, 65, 48
3, 74817, Note_on_c, 0, 78, 74
3, 74817, Note_on_c, 0, 90, 75
3, 74825, Note_on_c, 0, 65, 0
3, 74844, Note_on_c, 0, 90, 0
3, 74848, Note_on_c, 0, 61, 0
3, 74849, Note_on_c, 0, 78, 0
3, 74852, Note_on_c, 0, 54, 0
3, 74867, Note_on_c, 0, 58, 0
3, 74867, Control_c, 0, 64, 0
3, 74893, Note_on_c, 0, 64, 45
3, 74893, Note_on_c, 0, 54, 49
3, 74894, Note_on_c, 0, 80, 60
3, 74895, Note_on_c, 0, 92, 68
3, 74903, Note_on_c, 0, 60, 46
3, 74904, Control_c, 0, 64, 127
3, 74954, Note_on_c, 0, 64, 0
3, 74955, Note_on_c, 0, 92, 0
3, 74957, Note_on_c, 0, 60, 0
3, 74958, Note_on_c, 0, 54, 0
3, 74965, Note_on_c, 0, 80, 0
3, 75002, Note_on_c, 0, 93, 72
3, 75005, Note_on_c, 0, 54, 67
3, 75005, Note_on_c, 0, 81, 58
3, 75008, Note_on_c, 0, 64, 57
3, 75008, Note_on_c, 0, 60, 55
3, 75009, Note_on_c, 0, 87, 42
3, 75018, Note_on_c, 0, 81, 0
3, 75021, Note_on_c, 0, 87, 0
3, 75027, Note_on_c, 0, 64, 0
3, 75029, Note_on_c, 0, 60, 0
3, 75030, Note_on_c, 0, 93, 0
3, 75036, Note_on_c, 0, 54, 0
3, 75053, Control_c, 0, 64, 0
3, 75068, Control_c, 0, 64, 127
3, 75072, Note_on_c, 0, 64, 52
3, 75072, Note_on_c, 0, 54, 64
3, 75074, Note_on_c, 0, 96, 80
3, 75074, Note_on_c, 0, 84, 74
3, 75076, Note_on_c, 0, 60, 53
3, 75088, Note_on_c, 0, 84, 0
3, 75099, Note_on_c, 0, 96, 0
3, 75105, Note_on_c, 0, 64, 0
3, 75113, Note_on_c, 0, 60, 0
3, 75114, Note_on_c, 0, 54, 0
3, 75181, Note_on_c, 0, 54, 74
3, 75190, Note_on_c, 0, 99, 87
3, 75193, Note_on_c, 0, 87, 93
3, 75220, Note_on_c, 0, 87, 0
3, 75225, Note_on_c, 0, 99, 0
3, 75231, Note_on_c, 0, 54, 0
3, 75261, Note_on_c, 0, 63, 80
3, 75263, Note_on_c, 0, 53, 78
3, 75267, Note_on_c, 0, 58, 70
3, 75268, Note_on_c, 0, 96, 89
3, 75270, Note_on_c, 0, 84, 83
3, 75287, Control_c, 0, 64, 0
3, 75336, Control_c, 0, 64, 127
3, 75467, Note_on_c, 0, 63, 0
3, 75473, Note_on_c, 0, 96, 0
3, 75503, Note_on_c, 0, 84, 0
3, 75519, Note_on_c, 0, 53, 0
3, 75559, Note_on_c, 0, 58, 0
3, 75644, Control_c, 0, 64, 0
3, 75651, Note_on_c, 0, 92, 73
3, 75653, Note_on_c, 0, 63, 72
3, 75653, Note_on_c, 0, 53, 72
3, 75654, Note_on_c, 0, 58, 67
3, 75655, Note_on_c, 0, 80, 65
3, 75657, Note_on_c, 0, 87, 73
3, 75705, Control_c, 0, 64, 127
3, 75803, Note_on_c, 0, 53, 0
3, 75827, Note_on_c, 0, 58, 0
3, 75829, Note_on_c, 0, 63, 0
3, 75831, Note_on_c, 0, 80, 0
3, 75845, Note_on_c, 0, 87, 0
3, 75849, Note_on_c, 0, 92, 0
3, 76021, Control_c, 0, 64, 0
3, 76041, Note_on_c, 0, 56, 84
3, 76042, Note_on_c, 0, 61, 79
3, 76042, Note_on_c, 0, 65, 88
3, 76043, Note_on_c, 0, 87, 102
3, 76044, Note_on_c, 0, 99, 94
3, 76045, Note_on_c, 0, 60, 77
3, 76047, Note_on_c, 0, 94, 85
3, 76062, Control_c, 0, 64, 127
3, 76131, Note_on_c, 0, 65, 0
3, 76135, Note_on_c, 0, 56, 0
3, 76138, Note_on_c, 0, 99, 0
3, 76138, Note_on_c, 0, 87, 0
3, 76139, Note_on_c, 0, 60, 0
3, 76143, Note_on_c, 0, 94, 0
3, 76151, Note_on_c, 0, 61, 0
3, 76177, Note_on_c, 0, 99, 72
3, 76178, Note_on_c, 0, 61, 59
3, 76181, Note_on_c, 0, 87, 64
3, 76182, Note_on_c, 0, 56, 69
3, 76183, Note_on_c, 0, 65, 69
3, 76186, Note_on_c, 0, 94, 67
3, 76186, Note_on_c, 0, 60, 62
3, 76199, Control_c, 0, 64, 0
3, 76206, Note_on_c, 0, 87, 0
3, 76207, Note_on_c, 0, 99, 0
3, 76219, Note_on_c, 0, 94, 0
3, 76219, Note_on_c, 0, 65, 0
3, 76219, Note_on_c, 0, 60, 0
3, 76244, Note_on_c, 0, 97, 53
3, 76244, Note_on_c, 0, 65, 32
3, 76250, Note_on_c, 0, 60, 36
3, 76252, Note_on_c, 0, 85, 31
3, 76260, Note_on_c, 0, 92, 45
3, 76332, Note_on_c, 0, 60, 0
3, 76333, Note_on_c, 0, 92, 0
3, 76336, Note_on_c, 0, 65, 0
3, 76339, Note_on_c, 0, 85, 0
3, 76345, Note_on_c, 0, 56, 0
3, 76353, Note_on_c, 0, 61, 0
3, 76355, Note_on_c, 0, 97, 0
3, 76433, Note_on_c, 0, 56, 61
3, 76434, Note_on_c, 0, 61, 55
3, 76436, Note_on_c, 0, 84, 58
3, 76436, Note_on_c, 0, 65, 61
3, 76437, Note_on_c, 0, 96, 33
3, 76440, Note_on_c, 0, 60, 60
3, 76504, Note_on_c, 0, 96, 0
3, 76517, Note_on_c, 0, 84, 0
3, 76524, Note_on_c, 0, 60, 0
3, 76526, Note_on_c, 0, 65, 0
3, 76527, Note_on_c, 0, 56, 0
3, 76531, Note_on_c, 0, 61, 0
3, 76608, Note_on_c, 0, 97, 64
3, 76612, Note_on_c, 0, 61, 55
3, 76612, Note_on_c, 0, 85, 56
3, 76612, Note_on_c, 0, 56, 60
3, 76613, Note_on_c, 0, 65, 60
3, 76618, Note_on_c, 0, 94, 45
3, 76618, Note_on_c, 0, 91, 45
3, 76626, Note_on_c, 0, 60, 24
3, 76638, Note_on_c, 0, 60, 0
3, 76667, Note_on_c, 0, 65, 0
3, 76669, Note_on_c, 0, 91, 0
3, 76674, Note_on_c, 0, 85, 0
3, 76683, Note_on_c, 0, 94, 0
3, 76689, Note_on_c, 0, 61, 0
3, 76690, Note_on_c, 0, 56, 0
3, 76692, Note_on_c, 0, 97, 0
3, 76811, Note_on_c, 0, 99, 83
3, 76812, Note_on_c, 0, 58, 68
3, 76812, Note_on_c, 0, 65, 78
3, 76812, Note_on_c, 0, 87, 85
3, 76814, Note_on_c, 0, 61, 60
3, 76815, Note_on_c, 0, 54, 77
3, 76815, Note_on_c, 0, 94, 77
3, 76996, Control_c, 0, 64, 127
3, 77019, Note_on_c, 0, 54, 0
3, 77026, Note_on_c, 0, 99, 0
3, 77030, Note_on_c, 0, 94, 0
3, 77033, Note_on_c, 0, 65, 0
3, 77038, Note_on_c, 0, 87, 0
3, 77054, Note_on_c, 0, 61, 0
3, 77054, Note_on_c, 0, 58, 0
3, 77126, Note_on_c, 0, 97, 74
3, 77128, Note_on_c, 0, 85, 69
3, 77129, Note_on_c, 0, 58, 62
3, 77129, Note_on_c, 0, 54, 72
3, 77129, Note_on_c, 0, 61, 60
3, 77130, Note_on_c, 0, 92, 71
3, 77131, Note_on_c, 0, 65, 70
3, 77143, Control_c, 0, 64, 0
3, 77195, Control_c, 0, 64, 127
3, 77239, Note_on_c, 0, 85, 0
3, 77244, Note_on_c, 0, 92, 0
3, 77245, Note_on_c, 0, 54, 0
3, 77248, Note_on_c, 0, 97, 0
3, 77263, Note_on_c, 0, 58, 0
3, 77284, Note_on_c, 0, 61, 0
3, 77295, Note_on_c, 0, 65, 0
3, 77327, Note_on_c, 0, 58, 37
3, 77355, Note_on_c, 0, 58, 0
3, 77370, Control_c, 0, 64, 0
3, 77381, Note_on_c, 0, 90, 84
3, 77381, Note_on_c, 0, 98, 90
3, 77382, Note_on_c, 0, 86, 82
3, 77383, Note_on_c, 0, 93, 83
3, 77383, Note_on_c, 0, 64, 87
3, 77384, Note_on_c, 0, 54, 91
3, 77385, Note_on_c, 0, 60, 83
3, 77392, Note_on_c, 0, 58, 42
3, 77404, Note_on_c, 0, 58, 0
3, 77448, Control_c, 0, 64, 127
3, 77572, Note_on_c, 0, 93, 0
3, 77574, Note_on_c, 0, 98, 0
3, 77578, Note_on_c, 0, 90, 0
3, 77582, Note_on_c, 0, 54, 0
3, 77583, Note_on_c, 0, 86, 0
3, 77595, Note_on_c, 0, 64, 0
3, 77613, Note_on_c, 0, 60, 0
3, 77693, Note_on_c, 0, 93, 68
3, 77696, Note_on_c, 0, 81, 53
3, 77697, Note_on_c, 0, 86, 59
3, 77698, Note_on_c, 0, 89, 56
3, 77702, Note_on_c, 0, 60, 66
3, 77702, Note_on_c, 0, 54, 69
3, 77703, Note_on_c, 0, 64, 58
3, 77712, Control_c, 0, 64, 0
3, 77768, Control_c, 0, 64, 127
3, 77808, Note_on_c, 0, 81, 0
3, 77812, Note_on_c, 0, 86, 0
3, 77814, Note_on_c, 0, 89, 0
3, 77828, Note_on_c, 0, 93, 0
3, 77857, Note_on_c, 0, 60, 0
3, 77865, Note_on_c, 0, 64, 0
3, 77873, Note_on_c, 0, 54, 0
3, 77942, Note_on_c, 0, 96, 71
3, 77944, Note_on_c, 0, 54, 55
3, 77946, Note_on_c, 0, 64, 53
3, 77947, Note_on_c, 0, 60, 57
3, 77948, Note_on_c, 0, 84, 58
3, 77951, Control_c, 0, 64, 0
3, 77954, Note_on_c, 0, 96, 0
3, 77960, Note_on_c, 0, 60, 0
3, 77963, Note_on_c, 0, 84, 0
3, 77964, Note_on_c, 0, 64, 0
3, 77980, Note_on_c, 0, 54, 0
3, 78028, Control_c, 0, 64, 127
3, 78069, Control_c, 0, 64, 0
3, 78129, Note_on_c, 0, 89, 56
3, 78134, Note_on_c, 0, 77, 49
3, 78136, Control_c, 0, 64, 127
3, 78137, Note_on_c, 0, 60, 46
3, 78139, Note_on_c, 0, 54, 42
3, 78141, Note_on_c, 0, 64, 33
3, 78144, Note_on_c, 0, 84, 39
3, 78164, Note_on_c, 0, 64, 0
3, 78164, Note_on_c, 0, 77, 0
3, 78169, Note_on_c, 0, 84, 0
3, 78174, Note_on_c, 0, 89, 0
3, 78177, Note_on_c, 0, 60, 0
3, 78211, Note_on_c, 0, 54, 0
3, 78315, Control_c, 0, 64, 0
3, 78330, Note_on_c, 0, 63, 44
3, 78332, Note_on_c, 0, 92, 55
3, 78336, Note_on_c, 0, 87, 46
3, 78337, Note_on_c, 0, 80, 34
3, 78337, Note_on_c, 0, 58, 39
3, 78341, Note_on_c, 0, 53, 36
3, 78342, Note_on_c, 0, 84, 40
3, 78356, Control_c, 0, 64, 127
3, 78375, Note_on_c, 0, 92, 0
3, 78382, Note_on_c, 0, 84, 0
3, 78389, Note_on_c, 0, 87, 0
3, 78400, Note_on_c, 0, 80, 0
3, 78509, Note_on_c, 0, 53, 0
3, 78510, Note_on_c, 0, 63, 0
3, 78523, Note_on_c, 0, 58, 0
3, 78720, Note_on_c, 0, 61, 61
3, 78723, Note_on_c, 0, 64, 80
3, 78724, Note_on_c, 0, 72, 80
3, 78733, Control_c, 0, 64, 0
3, 78779, Note_on_c, 0, 64, 0
3, 78787, Note_on_c, 0, 60, 64
3, 78788, Note_on_c, 0, 61, 0
3, 78807, Note_on_c, 0, 72, 0
3, 78833, Note_on_c, 0, 60, 0
3, 78856, Note_on_c, 0, 64, 74
3, 78861, Note_on_c, 0, 72, 69
3, 78864, Note_on_c, 0, 61, 63
3, 78921, Note_on_c, 0, 61, 0
3, 78921, Note_on_c, 0, 64, 0
3, 78933, Note_on_c, 0, 60, 67
3, 78942, Note_on_c, 0, 72, 0
3, 78961, Note_on_c, 0, 60, 0
3, 78999, Note_on_c, 0, 64, 43
3, 78999, Note_on_c, 0, 67, 39
3, 79001, Note_on_c, 0, 72, 44
3, 79007, Note_on_c, 0, 61, 50
3, 79038, Control_c, 0, 64, 127
3, 79043, Note_on_c, 0, 61, 0
3, 79053, Note_on_c, 0, 64, 0
3, 79059, Note_on_c, 0, 67, 0
3, 79067, Note_on_c, 0, 60, 64
3, 79071, Note_on_c, 0, 72, 0
3, 79080, Note_on_c, 0, 60, 0
3, 79090, Control_c, 0, 64, 0
3, 79246, Note_on_c, 0, 46, 60
3, 79276, Note_on_c, 0, 46, 0
3, 79428, Note_on_c, 0, 46, 54
3, 79459, Note_on_c, 0, 46, 0
3, 79489, Note_on_c, 0, 67, 60
3, 79491, Note_on_c, 0, 63, 55
3, 79492, Note_on_c, 0, 59, 69
3, 79493, Note_on_c, 0, 61, 57
3, 79503, Note_on_c, 0, 56, 50
3, 79565, Note_on_c, 0, 61, 0
3, 79572, Note_on_c, 0, 63, 0
3, 79575, Note_on_c, 0, 64, 31
3, 79584, Note_on_c, 0, 62, 20
3, 79594, Note_on_c, 0, 56, 0
3, 79601, Note_on_c, 0, 67, 0
3, 79604, Note_on_c, 0, 59, 0
3, 79608, Note_on_c, 0, 62, 0
3, 79619, Note_on_c, 0, 64, 0
3, 79644, Note_on_c, 0, 56, 33
3, 79674, Note_on_c, 0, 56, 0
3, 79677, Note_on_c, 0, 67, 56
3, 79680, Note_on_c, 0, 59, 59
3, 79680, Note_on_c, 0, 63, 52
3, 79684, Note_on_c, 0, 61, 46
3, 79723, Note_on_c, 0, 61, 0
3, 79756, Control_c, 0, 64, 127
3, 79761, Note_on_c, 0, 59, 0
3, 79782, Note_on_c, 0, 63, 0
3, 79798, Note_on_c, 0, 67, 0
3, 79853, Control_c, 0, 64, 0
3, 79881, Note_on_c, 0, 61, 60
3, 79881, Note_on_c, 0, 51, 53
3, 79883, Note_on_c, 0, 70, 55
3, 79889, Note_on_c, 0, 58, 34
3, 79907, Note_on_c, 0, 58, 0
3, 79921, Note_on_c, 0, 61, 0
3, 79922, Note_on_c, 0, 51, 0
3, 79928, Note_on_c, 0, 70, 0
3, 80206, Note_on_c, 0, 61, 51
3, 80207, Note_on_c, 0, 60, 60
3, 80210, Note_on_c, 0, 65, 55
3, 80221, Note_on_c, 0, 60, 0
3, 80223, Note_on_c, 0, 65, 0
3, 80235, Note_on_c, 0, 61, 0
3, 80326, Note_on_c, 0, 82, 71
3, 80333, Note_on_c, 0, 71, 58
3, 80334, Note_on_c, 0, 69, 42
3, 80336, Note_on_c, 0, 80, 45
3, 80339, Note_on_c, 0, 82, 0
3, 80343, Note_on_c, 0, 83, 61
3, 80346, Note_on_c, 0, 69, 0
3, 80389, Note_on_c, 0, 80, 0
3, 80394, Note_on_c, 0, 71, 0
3, 80403, Note_on_c, 0, 83, 0
3, 80415, Note_on_c, 0, 61, 35
3, 80428, Note_on_c, 0, 61, 0
3, 80451, Note_on_c, 0, 84, 80
3, 80455, Note_on_c, 0, 72, 68
3, 80516, Note_on_c, 0, 84, 0
3, 80517, Note_on_c, 0, 72, 0
3, 80575, Note_on_c, 0, 65, 60
3, 80577, Note_on_c, 0, 85, 61
3, 80578, Note_on_c, 0, 73, 56
3, 80581, Note_on_c, 0, 60, 53
3, 80583, Note_on_c, 0, 58, 36
3, 80590, Note_on_c, 0, 65, 0
3, 80591, Note_on_c, 0, 54, 23
3, 80594, Note_on_c, 0, 60, 0
3, 80604, Note_on_c, 0, 54, 0
3, 80628, Note_on_c, 0, 73, 0
3, 80633, Note_on_c, 0, 58, 0
3, 80635, Note_on_c, 0, 85, 0
3, 80701, Note_on_c, 0, 75, 61
3, 80702, Note_on_c, 0, 87, 65
3, 80774, Note_on_c, 0, 87, 0
3, 80774, Note_on_c, 0, 75, 0
3, 80829, Note_on_c, 0, 89, 71
3, 80833, Note_on_c, 0, 65, 58
3, 80834, Note_on_c, 0, 77, 49
3, 80838, Note_on_c, 0, 58, 36
3, 80841, Note_on_c, 0, 60, 50
3, 80845, Note_on_c, 0, 54, 46
3, 80912, Note_on_c, 0, 77, 0
3, 80920, Note_on_c, 0, 89, 0
3, 80930, Note_on_c, 0, 65, 0
3, 80934, Note_on_c, 0, 54, 0
3, 80941, Note_on_c, 0, 60, 0
3, 80950, Note_on_c, 0, 58, 0
3, 80977, Note_on_c, 0, 90, 70
3, 80980, Note_on_c, 0, 78, 51
3, 80982, Note_on_c, 0, 60, 57
3, 80983, Note_on_c, 0, 64, 34
3, 80985, Note_on_c, 0, 54, 30
3, 81002, Note_on_c, 0, 64, 0
3, 81003, Note_on_c, 0, 60, 0
3, 81005, Note_on_c, 0, 78, 0
3, 81019, Note_on_c, 0, 90, 0
3, 81022, Note_on_c, 0, 54, 0
3, 81029, Control_c, 0, 64, 127
3, 81091, Note_on_c, 0, 54, 67
3, 81092, Note_on_c, 0, 64, 56
3, 81093, Note_on_c, 0, 91, 69
3, 81094, Note_on_c, 0, 79, 74
3, 81095, Note_on_c, 0, 60, 58
3, 81110, Note_on_c, 0, 89, 31
3, 81141, Note_on_c, 0, 79, 0
3, 81145, Note_on_c, 0, 89, 0
3, 81148, Note_on_c, 0, 91, 0
3, 81153, Note_on_c, 0, 64, 0
3, 81164, Note_on_c, 0, 54, 0
3, 81164, Note_on_c, 0, 60, 0
3, 81196, Control_c, 0, 64, 0
3, 81219, Note_on_c, 0, 54, 63
3, 81223, Note_on_c, 0, 92, 67
3, 81224, Note_on_c, 0, 60, 43
3, 81226, Note_on_c, 0, 80, 60
3, 81229, Note_on_c, 0, 64, 24
3, 81229, Control_c, 0, 64, 127
3, 81233, Note_on_c, 0, 87, 49
3, 81238, Note_on_c, 0, 60, 0
3, 81241, Note_on_c, 0, 64, 0
3, 81247, Note_on_c, 0, 87, 0
3, 81257, Note_on_c, 0, 80, 0
3, 81273, Note_on_c, 0, 92, 0
3, 81284, Note_on_c, 0, 54, 0
3, 81350, Note_on_c, 0, 94, 76
3, 81351, Note_on_c, 0, 63, 64
3, 81353, Note_on_c, 0, 82, 65
3, 81353, Note_on_c, 0, 87, 73
3, 81354, Note_on_c, 0, 58, 52
3, 81355, Note_on_c, 0, 53, 61
3, 81364, Control_c, 0, 64, 0
3, 81406, Note_on_c, 0, 94, 0
3, 81412, Note_on_c, 0, 82, 0
3, 81415, Note_on_c, 0, 53, 0
3, 81416, Control_c, 0, 64, 127
3, 81421, Note_on_c, 0, 87, 0
3, 81422, Note_on_c, 0, 63, 0
3, 81438, Note_on_c, 0, 58, 0
3, 81480, Note_on_c, 0, 89, 65
3, 81484, Note_on_c, 0, 63, 56
3, 81489, Note_on_c, 0, 58, 38
3, 81492, Note_on_c, 0, 77, 18
3, 81494, Note_on_c, 0, 53, 48
3, 81534, Note_on_c, 0, 77, 0
3, 81541, Note_on_c, 0, 53, 0
3, 81546, Note_on_c, 0, 89, 0
3, 81547, Note_on_c, 0, 63, 0
3, 81558, Note_on_c, 0, 58, 0
3, 81598, Control_c, 0, 64, 0
3, 81606, Note_on_c, 0, 63, 56
3, 81608, Note_on_c, 0, 79, 57
3, 81608, Note_on_c, 0, 91, 48
3, 81611, Note_on_c, 0, 58, 42
3, 81614, Note_on_c, 0, 84, 48
3, 81615, Note_on_c, 0, 87, 31
3, 81617, Note_on_c, 0, 53, 43
3, 81630, Note_on_c, 0, 84, 0
3, 81634, Note_on_c, 0, 91, 0
3, 81638, Note_on_c, 0, 87, 0
3, 81639, Note_on_c, 0, 79, 0
3, 81643, Control_c, 0, 64, 127
3, 81653, Note_on_c, 0, 53, 0
3, 81659, Note_on_c, 0, 63, 0
3, 81665, Note_on_c, 0, 58, 0
3, 81735, Note_on_c, 0, 84, 47
3, 81736, Note_on_c, 0, 72, 51
3, 81741, Note_on_c, 0, 63, 55
3, 81745, Note_on_c, 0, 58, 46
3, 81750, Note_on_c, 0, 53, 41
3, 81755, Control_c, 0, 64, 0
3, 81806, Control_c, 0, 64, 127
3, 81848, Note_on_c, 0, 53, 0
3, 81857, Note_on_c, 0, 58, 0
3, 81865, Note_on_c, 0, 72, 0
3, 81867, Note_on_c, 0, 84, 0
3, 81871, Note_on_c, 0, 63, 0
3, 81931, Note_on_c, 0, 58, 51
3, 81967, Control_c, 0, 64, 0
3, 81985, Note_on_c, 0, 87, 78
3, 81986, Note_on_c, 0, 75, 83
3, 81989, Note_on_c, 0, 82, 73
3, 81990, Note_on_c, 0, 63, 71
3, 81998, Note_on_c, 0, 53, 37
3, 82011, Control_c, 0, 64, 127
3, 82012, Note_on_c, 0, 53, 0
3, 82035, Note_on_c, 0, 58, 0
3, 82043, Note_on_c, 0, 87, 0
3, 82052, Note_on_c, 0, 82, 0
3, 82057, Note_on_c, 0, 63, 0
3, 82061, Note_on_c, 0, 75, 0
3, 82120, Note_on_c, 0, 85, 77
3, 82123, Note_on_c, 0, 73, 77
3, 82125, Note_on_c, 0, 80, 70
3, 82126, Note_on_c, 0, 65, 68
3, 82129, Note_on_c, 0, 60, 66
3, 82130, Note_on_c, 0, 56, 46
3, 82130, Note_on_c, 0, 61, 54
3, 82137, Control_c, 0, 64, 0
3, 82159, Note_on_c, 0, 65, 0
3, 82166, Note_on_c, 0, 60, 0
3, 82178, Note_on_c, 0, 73, 0
3, 82180, Note_on_c, 0, 56, 0
3, 82184, Note_on_c, 0, 61, 0
3, 82186, Note_on_c, 0, 80, 0
3, 82186, Note_on_c, 0, 85, 0
3, 82197, Control_c, 0, 64, 127
3, 82218, Note_on_c, 0, 56, 38
3, 82220, Note_on_c, 0, 65, 47
3, 82222, Note_on_c, 0, 61, 27
3, 82222, Note_on_c, 0, 84, 62
3, 82227, Note_on_c, 0, 60, 38
3, 82231, Note_on_c, 0, 72, 44
3, 82243, Note_on_c, 0, 79, 24
3, 82288, Note_on_c, 0, 84, 0
3, 82302, Note_on_c, 0, 79, 0
3, 82304, Note_on_c, 0, 72, 0
3, 82311, Note_on_c, 0, 65, 0
3, 82311, Note_on_c, 0, 60, 0
3, 82323, Note_on_c, 0, 56, 0
3, 82331, Note_on_c, 0, 61, 0
3, 82365, Control_c, 0, 64, 0
3, 82372, Note_on_c, 0, 56, 37
3, 82372, Note_on_c, 0, 61, 39
3, 82373, Note_on_c, 0, 65, 47
3, 82374, Note_on_c, 0, 82, 56
3, 82377, Note_on_c, 0, 70, 60
3, 82379, Note_on_c, 0, 60, 47
3, 82394, Control_c, 0, 64, 127
3, 82395, Note_on_c, 0, 60, 0
3, 82441, Note_on_c, 0, 82, 0
3, 82456, Note_on_c, 0, 70, 0
3, 82457, Note_on_c, 0, 65, 0
3, 82481, Note_on_c, 0, 61, 0
3, 82492, Note_on_c, 0, 56, 0
3, 82547, Control_c, 0, 64, 0
3, 82557, Note_on_c, 0, 56, 37
3, 82558, Note_on_c, 0, 77, 54
3, 82562, Note_on_c, 0, 61, 43
3, 82562, Note_on_c, 0, 72, 44
3, 82565, Note_on_c, 0, 65, 40
3, 82570, Note_on_c, 0, 60, 42
3, 82596, Control_c, 0, 64, 127
3, 82637, Note_on_c, 0, 56, 0
3, 82659, Note_on_c, 0, 60, 0
3, 82695, Note_on_c, 0, 72, 0
3, 82710, Note_on_c, 0, 65, 0
3, 82742, Note_on_c, 0, 56, 48
3, 82749, Note_on_c, 0, 72, 51
3, 82793, Note_on_c, 0, 61, 0
3, 82797, Note_on_c, 0, 56, 0
3, 82804, Note_on_c, 0, 72, 0
3, 82844, Note_on_c, 0, 77, 0
3, 82886, Note_on_c, 0, 77, 53
3, 82889, Note_on_c, 0, 70, 53
3, 82889, Control_c, 0, 64, 0
3, 82890, Note_on_c, 0, 66, 51
3, 82890, Note_on_c, 0, 61, 46
3, 82892, Note_on_c, 0, 73, 51
3, 82896, Note_on_c, 0, 65, 53
3, 82896, Note_on_c, 0, 58, 42
3, 82900, Note_on_c, 0, 54, 42
3, 82938, Control_c, 0, 64, 127
3, 82998, Note_on_c, 0, 77, 0
3, 83004, Note_on_c, 0, 65, 0
3, 83015, Note_on_c, 0, 73, 0
3, 83020, Note_on_c, 0, 70, 0
3, 83023, Note_on_c, 0, 66, 0
3, 83030, Note_on_c, 0, 61, 0
3, 83042, Note_on_c, 0, 58, 0
3, 83050, Note_on_c, 0, 54, 0
3, 83285, Note_on_c, 0, 51, 53
3, 83323, Note_on_c, 0, 51, 0
3, 83335, Note_on_c, 0, 65, 74
3, 83336, Control_c, 0, 64, 0
3, 83336, Note_on_c, 0, 54, 78
3, 83337, Note_on_c, 0, 58, 73
3, 83339, Note_on_c, 0, 61, 62
3, 83343, Note_on_c, 0, 53, 76
3, 83459, Note_on_c, 0, 65, 0
3, 83465, Note_on_c, 0, 54, 0
3, 83467, Note_on_c, 0, 61, 0
3, 83469, Note_on_c, 0, 58, 0
3, 83482, Note_on_c, 0, 53, 0
3, 83483, Note_on_c, 0, 51, 53
3, 83526, Note_on_c, 0, 58, 71
3, 83526, Note_on_c, 0, 54, 75
3, 83527, Note_on_c, 0, 65, 64
3, 83528, Note_on_c, 0, 61, 55
3, 83536, Note_on_c, 0, 51, 0
3, 83540, Note_on_c, 0, 53, 67
3, 83559, Control_c, 0, 64, 127
3, 83620, Note_on_c, 0, 61, 0
3, 83650, Note_on_c, 0, 54, 0
3, 83658, Note_on_c, 0, 65, 0
3, 83673, Note_on_c, 0, 53, 0
3, 83677, Note_on_c, 0, 58, 0
3, 83682, Note_on_c, 0, 51, 33
3, 83693, Control_c, 0, 64, 0
3, 83701, Note_on_c, 0, 51, 0
3, 83713, Note_on_c, 0, 62, 46
3, 83714, Note_on_c, 0, 57, 71
3, 83715, Note_on_c, 0, 54, 64
3, 83716, Note_on_c, 0, 65, 62
3, 83722, Note_on_c, 0, 53, 53
3, 83840, Note_on_c, 0, 54, 0
3, 83843, Note_on_c, 0, 65, 0
3, 83849, Note_on_c, 0, 57, 0
3, 83857, Note_on_c, 0, 53, 0
3, 83862, Note_on_c, 0, 51, 44
3, 83866, Note_on_c, 0, 62, 0
3, 83901, Note_on_c, 0, 65, 63
3, 83902, Note_on_c, 0, 62, 53
3, 83903, Note_on_c, 0, 54, 72
3, 83904, Note_on_c, 0, 57, 70
3, 83914, Note_on_c, 0, 53, 64
3, 83921, Note_on_c, 0, 51, 0
3, 83984, Control_c, 0, 64, 127
3, 84036, Control_c, 0, 64, 0
3, 84039, Note_on_c, 0, 54, 0
3, 84043, Note_on_c, 0, 62, 0
3, 84045, Note_on_c, 0, 57, 0
3, 84067, Note_on_c, 0, 65, 0
3, 84084, Note_on_c, 0, 53, 0
3, 84091, Note_on_c, 0, 63, 21
3, 84093, Note_on_c, 0, 51, 49
3, 84097, Note_on_c, 0, 54, 47
3, 84111, Note_on_c, 0, 57, 30
3, 84143, Control_c, 0, 64, 127
3, 84158, Note_on_c, 0, 57, 0
3, 84168, Note_on_c, 0, 54, 0
3, 84192, Note_on_c, 0, 63, 0
3, 84223, Note_on_c, 0, 54, 78
3, 84224, Note_on_c, 0, 65, 71
3, 84226, Note_on_c, 0, 57, 64
3, 84228, Note_on_c, 0, 53, 68
3, 84230, Note_on_c, 0, 63, 34
3, 84232, Control_c, 0, 64, 0
3, 84244, Note_on_c, 0, 54, 0
3, 84247, Note_on_c, 0, 53, 0
3, 84247, Note_on_c, 0, 51, 0
3, 84255, Note_on_c, 0, 57, 0
3, 84256, Note_on_c, 0, 65, 0
3, 84260, Note_on_c, 0, 63, 0
3, 84308, Control_c, 0, 64, 127
3, 84404, Control_c, 0, 64, 0
3, 84414, Note_on_c, 0, 60, 52
3, 84415, Note_on_c, 0, 53, 61
3, 84419, Note_on_c, 0, 57, 38
3, 84420, Note_on_c, 0, 43, 54
3, 84420, Note_on_c, 0, 50, 53
3, 84426, Note_on_c, 0, 53, 0
3, 84432, Note_on_c, 0, 43, 0
3, 84433, Note_on_c, 0, 57, 0
3, 84439, Note_on_c, 0, 50, 0
3, 84443, Note_on_c, 0, 60, 0
3, 84478, Control_c, 0, 64, 127
3, 84489, Control_c, 0, 64, 0
3, 84493, Control_c, 0, 64, 127
3, 84569, Note_on_c, 0, 84, 74
3, 84617, Note_on_c, 0, 84, 0
3, 84619, Note_on_c, 0, 72, 68
3, 84628, Control_c, 0, 64, 0
3, 84637, Note_on_c, 0, 72, 0
3, 84678, Note_on_c, 0, 72, 54
3, 84692, Note_on_c, 0, 72, 0
3, 84766, Note_on_c, 0, 84, 85
3, 84805, Note_on_c, 0, 84, 0
3, 84821, Note_on_c, 0, 72, 64
3, 84838, Note_on_c, 0, 72, 0
3, 84887, Note_on_c, 0, 72, 54
3, 84902, Note_on_c, 0, 72, 0
3, 84951, Note_on_c, 0, 84, 80
3, 84963, Note_on_c, 0, 58, 52
3, 84970, Note_on_c, 0, 62, 34
3, 84981, Note_on_c, 0, 84, 0
3, 84984, Note_on_c, 0, 62, 0
3, 84998, Note_on_c, 0, 58, 0
3, 85013, Note_on_c, 0, 72, 57
3, 85028, Note_on_c, 0, 72, 0
3, 85083, Note_on_c, 0, 72, 55
3, 85096, Note_on_c, 0, 72, 0
3, 85260, Control_c, 0, 64, 127
3, 85375, Control_c, 0, 64, 0
3, 85379, Note_on_c, 0, 58, 52
3, 85382, Note_on_c, 0, 62, 50
3, 85395, Note_on_c, 0, 62, 0
3, 85410, Note_on_c, 0, 58, 0
3, 85536, Control_c, 0, 64, 127
3, 85550, Control_c, 0, 64, 0
3, 85569, Note_on_c, 0, 58, 72
3, 85571, Note_on_c, 0, 84, 89
3, 85575, Note_on_c, 0, 57, 65
3, 85575, Note_on_c, 0, 62, 68
3, 85589, Note_on_c, 0, 53, 26
3, 85593, Note_on_c, 0, 62, 0
3, 85602, Note_on_c, 0, 53, 0
3, 85605, Note_on_c, 0, 57, 0
3, 85615, Note_on_c, 0, 84, 0
3, 85617, Note_on_c, 0, 58, 0
3, 85642, Note_on_c, 0, 72, 57
3, 85656, Note_on_c, 0, 72, 0
3, 85757, Note_on_c, 0, 72, 57
3, 85788, Note_on_c, 0, 72, 0
3, 85823, Note_on_c, 0, 84, 76
3, 85826, Note_on_c, 0, 58, 36
3, 85827, Note_on_c, 0, 62, 35
3, 85828, Note_on_c, 0, 57, 30
3, 85841, Note_on_c, 0, 62, 0
3, 85844, Note_on_c, 0, 57, 0
3, 85850, Note_on_c, 0, 84, 0
3, 85853, Note_on_c, 0, 58, 0
3, 85922, Control_c, 0, 64, 127
3, 85956, Note_on_c, 0, 58, 39
3, 85965, Note_on_c, 0, 72, 47
3, 85969, Note_on_c, 0, 58, 0
3, 85978, Note_on_c, 0, 72, 0
3, 85985, Control_c, 0, 64, 0
3, 86025, Note_on_c, 0, 62, 66
3, 86027, Note_on_c, 0, 85, 69
3, 86028, Note_on_c, 0, 58, 56
3, 86029, Note_on_c, 0, 73, 63
3, 86031, Note_on_c, 0, 52, 62
3, 86046, Control_c, 0, 64, 127
3, 86147, Note_on_c, 0, 73, 0
3, 86153, Note_on_c, 0, 62, 0
3, 86157, Note_on_c, 0, 52, 0
3, 86161, Note_on_c, 0, 85, 0
3, 86174, Note_on_c, 0, 58, 0
3, 86198, Control_c, 0, 64, 0
3, 86212, Note_on_c, 0, 58, 52
3, 86213, Note_on_c, 0, 75, 71
3, 86213, Note_on_c, 0, 87, 70
3, 86217, Note_on_c, 0, 82, 55
3, 86218, Note_on_c, 0, 52, 62
3, 86220, Note_on_c, 0, 62, 53
3, 86250, Control_c, 0, 64, 127
3, 86322, Note_on_c, 0, 62, 0
3, 86328, Note_on_c, 0, 82, 0
3, 86332, Note_on_c, 0, 52, 0
3, 86351, Note_on_c, 0, 58, 0
3, 86355, Note_on_c, 0, 75, 0
3, 86365, Note_on_c, 0, 87, 0
3, 86392, Control_c, 0, 64, 0
3, 86414, Control_c, 0, 64, 127
3, 86531, Note_on_c, 0, 77, 70
3, 86533, Note_on_c, 0, 89, 71
3, 86534, Note_on_c, 0, 84, 65
3, 86536, Control_c, 0, 64, 0
3, 86538, Note_on_c, 0, 58, 60
3, 86541, Note_on_c, 0, 62, 66
3, 86542, Note_on_c, 0, 52, 66
3, 86558, Note_on_c, 0, 62, 0
3, 86565, Note_on_c, 0, 52, 0
3, 86569, Note_on_c, 0, 77, 0
3, 86572, Note_on_c, 0, 84, 0
3, 86573, Note_on_c, 0, 58, 0
3, 86586, Note_on_c, 0, 89, 0
3, 86588, Control_c, 0, 64, 127
3, 86665, Note_on_c, 0, 58, 73
3, 86665, Note_on_c, 0, 79, 79
3, 86665, Note_on_c, 0, 91, 74
3, 86667, Note_on_c, 0, 52, 72
3, 86667, Note_on_c, 0, 86, 74
3, 86668, Note_on_c, 0, 62, 71
3, 86702, Note_on_c, 0, 52, 0
3, 86717, Note_on_c, 0, 79, 0
3, 86725, Note_on_c, 0, 86, 0
3, 86728, Note_on_c, 0, 62, 0
3, 86731, Note_on_c, 0, 58, 0
3, 86739, Note_on_c, 0, 91, 0
3, 86786, Control_c, 0, 64, 0
3, 86803, Note_on_c, 0, 55, 76
3, 86804, Note_on_c, 0, 61, 64
3, 86805, Note_on_c, 0, 93, 85
3, 86806, Note_on_c, 0, 81, 80
3, 86806, Note_on_c, 0, 64, 69
3, 86807, Note_on_c, 0, 88, 75
3, 86838, Control_c, 0, 64, 127
3, 86958, Note_on_c, 0, 81, 0
3, 86973, Note_on_c, 0, 88, 0
3, 86975, Note_on_c, 0, 64, 0
3, 86981, Note_on_c, 0, 93, 0
3, 86986, Note_on_c, 0, 61, 0
3, 87035, Note_on_c, 0, 55, 0
3, 87143, Control_c, 0, 64, 0
3, 87167, Note_on_c, 0, 61, 71
3, 87168, Note_on_c, 0, 58, 60
3, 87170, Note_on_c, 0, 64, 72
3, 87171, Note_on_c, 0, 55, 73
3, 87172, Note_on_c, 0, 96, 85
3, 87173, Note_on_c, 0, 91, 74
3, 87176, Note_on_c, 0, 84, 80
3, 87184, Control_c, 0, 64, 127
3, 87215, Note_on_c, 0, 84, 0
3, 87234, Note_on_c, 0, 91, 0
3, 87235, Note_on_c, 0, 64, 0
3, 87241, Note_on_c, 0, 55, 0
3, 87244, Note_on_c, 0, 58, 0
3, 87245, Note_on_c, 0, 96, 0
3, 87247, Note_on_c, 0, 61, 0
3, 87438, Note_on_c, 0, 88, 72
3, 87440, Note_on_c, 0, 100, 71
3, 87444, Note_on_c, 0, 61, 47
3, 87451, Note_on_c, 0, 88, 0
3, 87453, Note_on_c, 0, 100, 0
3, 87455, Note_on_c, 0, 55, 26
3, 87469, Note_on_c, 0, 55, 0
3, 87473, Note_on_c, 0, 61, 0
3, 87499, Note_on_c, 0, 101, 74
3, 87500, Note_on_c, 0, 89, 74
3, 87504, Note_on_c, 0, 96, 62
3, 87513, Note_on_c, 0, 89, 0
3, 87517, Note_on_c, 0, 96, 0
3, 87526, Note_on_c, 0, 101, 0
3, 87566, Note_on_c, 0, 50, 68
3, 87567, Note_on_c, 0, 60, 78
3, 87568, Note_on_c, 0, 103, 84
3, 87570, Note_on_c, 0, 53, 64
3, 87570, Note_on_c, 0, 91, 73
3, 87571, Note_on_c, 0, 57, 59
3, 87571, Note_on_c, 0, 98, 80
3, 87575, Control_c, 0, 64, 0
3, 87631, Control_c, 0, 64, 127
3, 87695, Note_on_c, 0, 100, 19
3, 87713, Note_on_c, 0, 100, 0
3, 87713, Note_on_c, 0, 103, 0
3, 87725, Note_on_c, 0, 98, 0
3, 87737, Note_on_c, 0, 91, 0
3, 87830, Note_on_c, 0, 60, 0
3, 87884, Note_on_c, 0, 50, 0
3, 87917, Note_on_c, 0, 53, 0
3, 87946, Note_on_c, 0, 76, 80
3, 87949, Note_on_c, 0, 64, 66
3, 87949, Note_on_c, 0, 65, 79
3, 87953, Note_on_c, 0, 69, 69
3, 87955, Control_c, 0, 64, 0
3, 87966, Note_on_c, 0, 69, 0
3, 87974, Note_on_c, 0, 65, 0
3, 87981, Control_c, 0, 64, 127
3, 87986, Note_on_c, 0, 64, 0
3, 87998, Note_on_c, 0, 76, 0
3, 87998, Note_on_c, 0, 53, 1
3, 88020, Note_on_c, 0, 74, 45
3, 88053, Note_on_c, 0, 74, 0
3, 88080, Note_on_c, 0, 76, 85
3, 88082, Note_on_c, 0, 69, 84
3, 88083, Note_on_c, 0, 65, 80
3, 88086, Control_c, 0, 64, 0
3, 88087, Note_on_c, 0, 64, 71
3, 88145, Control_c, 0, 64, 127
3, 88178, Note_on_c, 0, 65, 0
3, 88183, Note_on_c, 0, 76, 0
3, 88189, Note_on_c, 0, 69, 0
3, 88196, Note_on_c, 0, 64, 0
3, 88209, Note_on_c, 0, 76, 72
3, 88217, Note_on_c, 0, 69, 66
3, 88218, Note_on_c, 0, 65, 60
3, 88254, Note_on_c, 0, 69, 0
3, 88255, Note_on_c, 0, 65, 0
3, 88277, Note_on_c, 0, 74, 51
3, 88288, Note_on_c, 0, 76, 0
3, 88320, Note_on_c, 0, 74, 0
3, 88343, Control_c, 0, 64, 0
3, 88343, Note_on_c, 0, 76, 60
3, 88343, Note_on_c, 0, 65, 63
3, 88346, Note_on_c, 0, 73, 60
3, 88347, Note_on_c, 0, 69, 63
3, 88348, Note_on_c, 0, 61, 64
3, 88356, Note_on_c, 0, 74, 35
3, 88370, Note_on_c, 0, 74, 0
3, 88480, Control_c, 0, 64, 127
3, 88538, Note_on_c, 0, 61, 0
3, 88605, Note_on_c, 0, 69, 0
3, 88607, Note_on_c, 0, 65, 0
3, 88632, Note_on_c, 0, 73, 0
3, 88708, Note_on_c, 0, 69, 48
3, 88711, Control_c, 0, 64, 0
3, 88713, Note_on_c, 0, 53, 0
3, 88713, Note_on_c, 0, 65, 36
3, 88763, Control_c, 0, 64, 127
3, 88841, Control_c, 0, 64, 0
3, 88842, Note_on_c, 0, 61, 76
3, 88894, Control_c, 0, 64, 127
3, 88901, Note_on_c, 0, 57, 0
3, 88963, Note_on_c, 0, 57, 59
3, 89003, Note_on_c, 0, 69, 0
3, 89005, Note_on_c, 0, 65, 0
3, 89015, Note_on_c, 0, 61, 0
3, 89027, Note_on_c, 0, 50, 57
3, 89066, Note_on_c, 0, 57, 0
3, 89077, Note_on_c, 0, 76, 0
3, 89098, Note_on_c, 0, 57, 24
3, 89100, Note_on_c, 0, 65, 42
3, 89101, Note_on_c, 0, 69, 50
3, 89106, Note_on_c, 0, 60, 60
3, 89109, Control_c, 0, 64, 0
3, 89243, Control_c, 0, 64, 127
3, 89305, Note_on_c, 0, 65, 0
3, 89386, Note_on_c, 0, 69, 0
3, 89409, Note_on_c, 0, 50, 0
3, 89416, Note_on_c, 0, 57, 0
3, 89419, Note_on_c, 0, 60, 0
3, 89593, Control_c, 0, 64, 0
3, 89597, Note_on_c, 0, 77, 85
3, 89598, Note_on_c, 0, 67, 90
3, 89599, Note_on_c, 0, 72, 85
3, 89603, Note_on_c, 0, 62, 80
3, 89645, Control_c, 0, 64, 127
3, 89662, Note_on_c, 0, 67, 0
3, 89674, Note_on_c, 0, 72, 0
3, 89683, Note_on_c, 0, 77, 0
3, 89711, Note_on_c, 0, 62, 0
3, 89719, Control_c, 0, 64, 0
3, 89723, Note_on_c, 0, 79, 80
3, 89724, Note_on_c, 0, 64, 68
3, 89725, Note_on_c, 0, 74, 83
3, 89725, Note_on_c, 0, 69, 82
3, 89738, Control_c, 0, 64, 127
3, 89785, Note_on_c, 0, 79, 0
3, 89797, Note_on_c, 0, 74, 0
3, 89799, Note_on_c, 0, 69, 0
3, 89849, Control_c, 0, 64, 0
3, 89858, Note_on_c, 0, 64, 0
3, 89867, Note_on_c, 0, 77, 66
3, 89873, Note_on_c, 0, 72, 61
3, 89875, Note_on_c, 0, 67, 43
3, 89878, Note_on_c, 0, 62, 51
3, 89894, Control_c, 0, 64, 127
3, 89920, Note_on_c, 0, 77, 0
3, 89928, Note_on_c, 0, 72, 0
3, 89950, Note_on_c, 0, 67, 0
3, 89994, Control_c, 0, 64, 0
3, 89999, Note_on_c, 0, 76, 60
3, 90001, Note_on_c, 0, 71, 59
3, 90006, Note_on_c, 0, 65, 51
3, 90007, Note_on_c, 0, 62, 0
3, 90009, Note_on_c, 0, 61, 51
3, 90046, Control_c, 0, 64, 127
3, 90063, Note_on_c, 0, 76, 0
3, 90085, Note_on_c, 0, 71, 0
3, 90086, Note_on_c, 0, 65, 0
3, 90130, Note_on_c, 0, 61, 0
3, 90133, Control_c, 0, 64, 0
3, 90135, Note_on_c, 0, 74, 43
3, 90138, Note_on_c, 0, 65, 37
3, 90146, Note_on_c, 0, 60, 43
3, 90147, Note_on_c, 0, 69, 37
3, 90151, Note_on_c, 0, 71, 25
3, 90163, Note_on_c, 0, 71, 0
3, 90173, Control_c, 0, 64, 127
3, 90192, Note_on_c, 0, 74, 0
3, 90194, Note_on_c, 0, 69, 0
3, 90207, Note_on_c, 0, 65, 0
3, 90262, Control_c, 0, 64, 0
3, 90265, Note_on_c, 0, 60, 0
3, 90268, Note_on_c, 0, 72, 44
3, 90279, Note_on_c, 0, 62, 42
3, 90280, Note_on_c, 0, 65, 36
3, 90282, Note_on_c, 0, 69, 42
3, 90283, Note_on_c, 0, 68, 23
3, 90285, Note_on_c, 0, 58, 35
3, 90301, Note_on_c, 0, 69, 0
3, 90307, Control_c, 0, 64, 127
3, 90310, Note_on_c, 0, 65, 0
3, 90314, Note_on_c, 0, 68, 0
3, 90317, Note_on_c, 0, 72, 0
3, 90329, Note_on_c, 0, 62, 0
3, 90381, Note_on_c, 0, 58, 0
3, 90399, Note_on_c, 0, 69, 42
3, 90401, Control_c, 0, 64, 0
3, 90404, Note_on_c, 0, 60, 40
3, 90405, Note_on_c, 0, 62, 36
3, 90405, Note_on_c, 0, 65, 43
3, 90411, Note_on_c, 0, 57, 35
3, 90445, Note_on_c, 0, 57, 0
3, 90508, Control_c, 0, 64, 127
3, 90513, Note_on_c, 0, 60, 0
3, 90518, Note_on_c, 0, 50, 34
3, 90519, Note_on_c, 0, 62, 0
3, 90530, Note_on_c, 0, 65, 0
3, 90542, Note_on_c, 0, 69, 0
3, 90576, Note_on_c, 0, 44, 51
3, 90628, Note_on_c, 0, 50, 0
3, 90629, Note_on_c, 0, 44, 0
3, 90649, Note_on_c, 0, 43, 47
3, 90651, Note_on_c, 0, 58, 42
3, 90653, Note_on_c, 0, 62, 46
3, 90656, Note_on_c, 0, 50, 24
3, 90657, Control_c, 0, 64, 0
3, 90739, Control_c, 0, 64, 127
3, 90818, Note_on_c, 0, 43, 0
3, 90822, Note_on_c, 0, 50, 0
3, 90884, Note_on_c, 0, 58, 0
3, 90941, Note_on_c, 0, 62, 0
3, 91013, Note_on_c, 0, 57, 31
3, 91015, Note_on_c, 0, 58, 37
3, 91015, Note_on_c, 0, 62, 36
3, 91098, Note_on_c, 0, 66, 58
3, 91124, Note_on_c, 0, 66, 0
3, 91137, Control_c, 0, 64, 0
3, 91150, Note_on_c, 0, 69, 56
3, 91168, Note_on_c, 0, 69, 0
3, 91190, Note_on_c, 0, 66, 45
3, 91207, Note_on_c, 0, 66, 0
3, 91215, Note_on_c, 0, 62, 0
3, 91238, Note_on_c, 0, 67, 32
3, 91255, Note_on_c, 0, 57, 0
3, 91273, Note_on_c, 0, 67, 0
3, 91279, Note_on_c, 0, 69, 39
3, 91312, Note_on_c, 0, 69, 0
3, 91325, Note_on_c, 0, 70, 56
3, 91337, Note_on_c, 0, 70, 0
3, 91372, Note_on_c, 0, 72, 47
3, 91380, Note_on_c, 0, 62, 37
3, 91385, Note_on_c, 0, 72, 0
3, 91400, Note_on_c, 0, 54, 27
3, 91421, Note_on_c, 0, 76, 35
3, 91421, Note_on_c, 0, 74, 37
3, 91436, Note_on_c, 0, 76, 0
3, 91450, Note_on_c, 0, 74, 0
3, 91464, Note_on_c, 0, 78, 49
3, 91481, Note_on_c, 0, 62, 0
3, 91495, Note_on_c, 0, 78, 0
3, 91497, Note_on_c, 0, 69, 54
3, 91527, Note_on_c, 0, 69, 0
3, 91530, Note_on_c, 0, 74, 54
3, 91554, Note_on_c, 0, 74, 0
3, 91563, Note_on_c, 0, 78, 35
3, 91576, Note_on_c, 0, 78, 0
3, 91597, Note_on_c, 0, 81, 70
3, 91611, Note_on_c, 0, 81, 0
3, 91655, Note_on_c, 0, 86, 36
3, 91666, Note_on_c, 0, 90, 64
3, 91671, Note_on_c, 0, 86, 0
3, 91685, Note_on_c, 0, 58, 0
3, 91693, Note_on_c, 0, 90, 0
3, 91710, Note_on_c, 0, 93, 80
3, 91750, Note_on_c, 0, 93, 0
3, 91753, Note_on_c, 0, 90, 67
3, 91770, Note_on_c, 0, 90, 0
3, 91815, Note_on_c, 0, 54, 0
3, 91904, Note_on_c, 0, 90, 80
3, 91938, Note_on_c, 0, 90, 0
3, 91960, Note_on_c, 0, 54, 32
3, 91982, Note_on_c, 0, 90, 79
3, 92032, Note_on_c, 0, 86, 67
3, 92041, Note_on_c, 0, 90, 0
3, 92052, Note_on_c, 0, 86, 0
3, 92069, Note_on_c, 0, 54, 0
3, 92089, Note_on_c, 0, 86, 68
3, 92119, Note_on_c, 0, 86, 0
3, 92148, Note_on_c, 0, 81, 68
3, 92151, Note_on_c, 0, 58, 37
3, 92155, Note_on_c, 0, 62, 32
3, 92168, Note_on_c, 0, 53, 24
3, 92182, Note_on_c, 0, 81, 0
3, 92221, Note_on_c, 0, 81, 53
3, 92242, Note_on_c, 0, 81, 0
3, 92399, Note_on_c, 0, 62, 0
3, 92409, Note_on_c, 0, 53, 0
3, 92422, Note_on_c, 0, 58, 0
3, 92471, Note_on_c, 0, 81, 57
3, 92475, Note_on_c, 0, 62, 36
3, 92476, Note_on_c, 0, 58, 33
3, 92483, Note_on_c, 0, 53, 32
3, 92489, Note_on_c, 0, 81, 0
3, 92521, Note_on_c, 0, 62, 0
3, 92570, Note_on_c, 0, 83, 53
3, 92586, Note_on_c, 0, 83, 0
3, 92593, Note_on_c, 0, 58, 0
3, 92605, Note_on_c, 0, 84, 63
3, 92614, Note_on_c, 0, 53, 0
3, 92645, Note_on_c, 0, 83, 58
3, 92669, Note_on_c, 0, 84, 0
3, 92688, Note_on_c, 0, 82, 46
3, 92695, Note_on_c, 0, 83, 0
3, 92736, Note_on_c, 0, 82, 0
3, 92741, Note_on_c, 0, 81, 44
3, 92825, Note_on_c, 0, 81, 0
3, 92864, Note_on_c, 0, 78, 60
3, 92870, Note_on_c, 0, 62, 36
3, 92877, Note_on_c, 0, 58, 25
3, 92887, Note_on_c, 0, 62, 0
3, 92894, Note_on_c, 0, 58, 0
3, 92906, Note_on_c, 0, 78, 0
3, 92938, Note_on_c, 0, 81, 59
3, 92962, Note_on_c, 0, 81, 0
3, 93055, Note_on_c, 0, 62, 45
3, 93057, Note_on_c, 0, 79, 73
3, 93057, Note_on_c, 0, 58, 37
3, 93071, Note_on_c, 0, 62, 0
3, 93092, Note_on_c, 0, 79, 0
3, 93093, Note_on_c, 0, 58, 0
3, 93128, Note_on_c, 0, 74, 38
3, 93204, Note_on_c, 0, 74, 0
3, 93314, Note_on_c, 0, 73, 59
3, 93355, Note_on_c, 0, 73, 0
3, 93378, Note_on_c, 0, 76, 74
3, 93412, Note_on_c, 0, 76, 0
3, 93444, Note_on_c, 0, 61, 55
3, 93447, Note_on_c, 0, 64, 41
3, 93457, Note_on_c, 0, 55, 32
3, 93460, Note_on_c, 0, 64, 0
3, 93475, Note_on_c, 0, 61, 0
3, 93478, Note_on_c, 0, 55, 0
3, 93507, Note_on_c, 0, 70, 69
3, 93554, Note_on_c, 0, 70, 0
3, 93569, Note_on_c, 0, 67, 56
3, 93584, Note_on_c, 0, 67, 0
3, 93639, Note_on_c, 0, 60, 40
3, 93641, Note_on_c, 0, 69, 77
3, 93651, Note_on_c, 0, 57, 27
3, 93657, Note_on_c, 0, 60, 0
3, 93657, Note_on_c, 0, 53, 27
3, 93671, Note_on_c, 0, 57, 0
3, 93678, Note_on_c, 0, 69, 0
3, 93689, Note_on_c, 0, 53, 0
3, 93715, Note_on_c, 0, 64, 43
3, 93743, Note_on_c, 0, 64, 0
3, 93781, Note_on_c, 0, 67, 72
3, 93825, Note_on_c, 0, 67, 0
3, 93902, Note_on_c, 0, 65, 66
3, 94038, Note_on_c, 0, 65, 0
3, 94044, Note_on_c, 0, 62, 49
3, 94063, Note_on_c, 0, 62, 0
3, 94131, Note_on_c, 0, 64, 60
3, 94253, Note_on_c, 0, 64, 0
3, 94270, Note_on_c, 0, 60, 52
3, 94282, Control_c, 0, 64, 127
3, 94348, Note_on_c, 0, 60, 0
3, 94398, Note_on_c, 0, 62, 57
3, 94457, Note_on_c, 0, 62, 0
3, 94598, Note_on_c, 0, 60, 83
3, 94599, Note_on_c, 0, 62, 84
3, 94599, Note_on_c, 0, 55, 84
3, 94609, Control_c, 0, 64, 0
3, 94680, Control_c, 0, 64, 127
3, 94955, Note_on_c, 0, 55, 0
3, 94956, Note_on_c, 0, 62, 0
3, 94956, Note_on_c, 0, 60, 0
3, 95022, Control_c, 0, 64, 0
3, 95037, Note_on_c, 0, 62, 48
3, 95038, Note_on_c, 0, 55, 59
3, 95042, Note_on_c, 0, 60, 55
3, 95067, Control_c, 0, 64, 127
3, 95115, Note_on_c, 0, 60, 0
3, 95121, Note_on_c, 0, 62, 0
3, 95122, Note_on_c, 0, 55, 0
3, 95375, Note_on_c, 0, 59, 60
3, 95375, Note_on_c, 0, 60, 72
3, 95379, Note_on_c, 0, 54, 64
3, 95384, Control_c, 0, 64, 0
3, 95454, Control_c, 0, 64, 127
3, 95580, Control_c, 0, 64, 0
3, 95621, Note_on_c, 0, 74, 101
3, 95655, Control_c, 0, 64, 127
3, 95732, Note_on_c, 0, 74, 0
3, 95747, Note_on_c, 0, 70, 46
3, 95774, Control_c, 0, 64, 0
3, 95783, Note_on_c, 0, 70, 0
3, 95818, Note_on_c, 0, 72, 77
3, 95825, Note_on_c, 0, 60, 0
3, 95827, Note_on_c, 0, 59, 0
3, 95856, Note_on_c, 0, 54, 0
3, 95904, Control_c, 0, 64, 127
3, 95938, Control_c, 0, 64, 0
3, 95938, Note_on_c, 0, 66, 43
3, 95942, Note_on_c, 0, 54, 51
3, 95943, Note_on_c, 0, 60, 51
3, 95956, Note_on_c, 0, 60, 0
3, 95974, Note_on_c, 0, 54, 0
3, 95980, Note_on_c, 0, 66, 0
3, 95985, Note_on_c, 0, 72, 0
3, 96046, Control_c, 0, 64, 127
3, 96054, Note_on_c, 0, 50, 62
3, 96060, Note_on_c, 0, 49, 47
3, 96086, Note_on_c, 0, 49, 0
3, 96157, Control_c, 0, 64, 0
3, 96180, Note_on_c, 0, 50, 0
3, 96193, Note_on_c, 0, 38, 57
3, 96208, Note_on_c, 0, 38, 0
3, 96209, Control_c, 0, 64, 127
3, 96326, Note_on_c, 0, 64, 51
3, 96328, Note_on_c, 0, 54, 46
3, 96328, Control_c, 0, 64, 0
3, 96331, Note_on_c, 0, 56, 51
3, 96332, Note_on_c, 0, 60, 50
3, 96462, Control_c, 0, 64, 127
3, 96525, Control_c, 0, 64, 0
3, 96565, Note_on_c, 0, 56, 0
3, 96570, Note_on_c, 0, 54, 0
3, 96575, Note_on_c, 0, 44, 36
3, 96585, Note_on_c, 0, 60, 0
3, 96600, Control_c, 0, 64, 127
3, 96675, Note_on_c, 0, 64, 0
3, 96680, Note_on_c, 0, 44, 0
3, 96697, Control_c, 0, 64, 0
3, 96706, Note_on_c, 0, 57, 39
3, 96709, Note_on_c, 0, 60, 42
3, 96713, Note_on_c, 0, 58, 34
3, 96714, Note_on_c, 0, 43, 51
3, 96721, Note_on_c, 0, 57, 0
3, 96732, Note_on_c, 0, 43, 0
3, 96738, Note_on_c, 0, 60, 0
3, 96739, Note_on_c, 0, 58, 0
3, 96749, Control_c, 0, 64, 127
3, 96896, Note_on_c, 0, 82, 53
3, 96900, Note_on_c, 0, 70, 60
3, 96910, Note_on_c, 0, 58, 42
3, 96911, Note_on_c, 0, 62, 44
3, 96916, Note_on_c, 0, 57, 33
3, 96918, Note_on_c, 0, 53, 36
3, 96920, Control_c, 0, 64, 0
3, 96972, Control_c, 0, 64, 127
3, 97047, Note_on_c, 0, 70, 0
3, 97050, Note_on_c, 0, 82, 0
3, 97066, Note_on_c, 0, 62, 0
3, 97069, Note_on_c, 0, 53, 0
3, 97077, Note_on_c, 0, 57, 0
3, 97084, Note_on_c, 0, 58, 0
3, 97133, Control_c, 0, 64, 0
3, 97153, Note_on_c, 0, 84, 62
3, 97155, Note_on_c, 0, 62, 35
3, 97156, Note_on_c, 0, 58, 39
3, 97160, Note_on_c, 0, 72, 41
3, 97163, Note_on_c, 0, 53, 29
3, 97167, Note_on_c, 0, 57, 24
3, 97176, Note_on_c, 0, 62, 0
3, 97180, Note_on_c, 0, 57, 0
3, 97185, Note_on_c, 0, 53, 0
3, 97187, Note_on_c, 0, 84, 0
3, 97193, Note_on_c, 0, 58, 0
3, 97193, Note_on_c, 0, 72, 0
3, 97339, Note_on_c, 0, 58, 38
3, 97343, Note_on_c, 0, 82, 47
3, 97344, Note_on_c, 0, 62, 29
3, 97348, Note_on_c, 0, 70, 38
3, 97366, Note_on_c, 0, 62, 0
3, 97379, Note_on_c, 0, 70, 0
3, 97389, Note_on_c, 0, 58, 0
3, 97404, Note_on_c, 0, 82, 0
3, 97416, Control_c, 0, 64, 127
3, 97490, Control_c, 0, 64, 0
3, 97560, Control_c, 0, 64, 127
3, 97713, Control_c, 0, 64, 0
3, 97724, Note_on_c, 0, 82, 50
3, 97725, Note_on_c, 0, 70, 49
3, 97732, Note_on_c, 0, 61, 38
3, 97734, Note_on_c, 0, 58, 46
3, 97738, Note_on_c, 0, 64, 34
3, 97758, Control_c, 0, 64, 127
3, 97810, Note_on_c, 0, 70, 0
3, 97815, Note_on_c, 0, 64, 0
3, 97823, Note_on_c, 0, 61, 0
3, 97824, Note_on_c, 0, 82, 0
3, 97827, Note_on_c, 0, 58, 0
3, 97867, Note_on_c, 0, 85, 81
3, 97868, Note_on_c, 0, 73, 74
3, 97869, Control_c, 0, 64, 0
3, 97874, Note_on_c, 0, 61, 62
3, 97874, Note_on_c, 0, 58, 60
3, 97874, Note_on_c, 0, 64, 62
3, 97925, Control_c, 0, 64, 127
3, 97978, Note_on_c, 0, 58, 0
3, 97978, Note_on_c, 0, 61, 0
3, 97985, Note_on_c, 0, 64, 0
3, 97993, Note_on_c, 0, 85, 0
3, 98019, Note_on_c, 0, 73, 0
3, 98066, Control_c, 0, 64, 0
3, 98106, Note_on_c, 0, 82, 61
3, 98107, Control_c, 0, 64, 127
3, 98107, Note_on_c, 0, 61, 49
3, 98109, Note_on_c, 0, 70, 55
3, 98111, Note_on_c, 0, 58, 39
3, 98167, Note_on_c, 0, 82, 0
3, 98179, Note_on_c, 0, 61, 0
3, 98179, Note_on_c, 0, 70, 0
3, 98179, Note_on_c, 0, 58, 0
3, 98226, Control_c, 0, 64, 0
3, 98235, Note_on_c, 0, 81, 55
3, 98237, Note_on_c, 0, 64, 42
3, 98239, Note_on_c, 0, 76, 44
3, 98240, Note_on_c, 0, 60, 43
3, 98242, Note_on_c, 0, 57, 40
3, 98243, Note_on_c, 0, 69, 50
3, 98244, Note_on_c, 0, 53, 36
3, 98286, Control_c, 0, 64, 127
3, 98328, Note_on_c, 0, 69, 0
3, 98340, Note_on_c, 0, 64, 0
3, 98341, Note_on_c, 0, 76, 0
3, 98346, Note_on_c, 0, 53, 0
3, 98351, Note_on_c, 0, 81, 0
3, 98351, Note_on_c, 0, 60, 0
3, 98355, Note_on_c, 0, 57, 0
3, 98461, Control_c, 0, 64, 0
3, 98482, Note_on_c, 0, 60, 40
3, 98486, Note_on_c, 0, 64, 48
3, 98487, Note_on_c, 0, 57, 42
3, 98488, Note_on_c, 0, 84, 62
3, 98491, Note_on_c, 0, 72, 50
3, 98493, Note_on_c, 0, 53, 32
3, 98496, Note_on_c, 0, 79, 36
3, 98510, Control_c, 0, 64, 127
3, 98522, Note_on_c, 0, 72, 0
3, 98522, Note_on_c, 0, 64, 0
3, 98523, Note_on_c, 0, 60, 0
3, 98532, Note_on_c, 0, 79, 0
3, 98542, Note_on_c, 0, 57, 0
3, 98542, Note_on_c, 0, 53, 0
3, 98546, Note_on_c, 0, 84, 0
3, 98659, Control_c, 0, 64, 0
3, 98686, Note_on_c, 0, 91, 76
3, 98686, Note_on_c, 0, 60, 67
3, 98687, Note_on_c, 0, 57, 63
3, 98689, Note_on_c, 0, 64, 71
3, 98689, Note_on_c, 0, 79, 72
3, 98690, Note_on_c, 0, 86, 72
3, 98691, Note_on_c, 0, 53, 64
3, 98744, Control_c, 0, 64, 127
3, 98775, Note_on_c, 0, 64, 0
3, 98779, Note_on_c, 0, 79, 0
3, 98781, Note_on_c, 0, 91, 0
3, 98785, Note_on_c, 0, 86, 0
3, 98785, Note_on_c, 0, 53, 0
3, 98787, Note_on_c, 0, 57, 0
3, 98790, Note_on_c, 0, 60, 0
3, 98827, Control_c, 0, 64, 0
3, 98881, Note_on_c, 0, 60, 62
3, 98881, Note_on_c, 0, 64, 64
3, 98882, Note_on_c, 0, 53, 58
3, 98885, Note_on_c, 0, 57, 49
3, 98885, Note_on_c, 0, 89, 77
3, 98888, Note_on_c, 0, 77, 60
3, 98892, Note_on_c, 0, 84, 68
3, 98893, Note_on_c, 0, 79, 51
3, 98905, Note_on_c, 0, 79, 0
3, 98942, Control_c, 0, 64, 127
3, 99045, Note_on_c, 0, 53, 0
3, 99053, Note_on_c, 0, 64, 0
3, 99054, Note_on_c, 0, 57, 0
3, 99056, Note_on_c, 0, 60, 0
3, 99074, Note_on_c, 0, 89, 0
3, 99083, Note_on_c, 0, 84, 0
3, 99084, Note_on_c, 0, 77, 0
3, 99243, Control_c, 0, 64, 0
3, 99263, Note_on_c, 0, 61, 80
3, 99265, Note_on_c, 0, 88, 91
3, 99266, Note_on_c, 0, 60, 83
3, 99266, Note_on_c, 0, 76, 94
3, 99266, Note_on_c, 0, 65, 87
3, 99268, Note_on_c, 0, 83, 89
3, 99269, Note_on_c, 0, 55, 71
3, 99274, Note_on_c, 0, 85, 48
3, 99276, Note_on_c, 0, 58, 34
3, 99285, Note_on_c, 0, 85, 0
3, 99290, Note_on_c, 0, 58, 0
3, 99422, Control_c, 0, 64, 127
3, 99427, Note_on_c, 0, 88, 0
3, 99435, Note_on_c, 0, 83, 0
3, 99458, Note_on_c, 0, 65, 0
3, 99461, Note_on_c, 0, 76, 0
3, 99486, Note_on_c, 0, 61, 0
3, 99507, Note_on_c, 0, 55, 0
3, 99516, Note_on_c, 0, 60, 0
3, 99622, Control_c, 0, 64, 0
3, 99643, Note_on_c, 0, 85, 69
3, 99645, Note_on_c, 0, 61, 37
3, 99646, Note_on_c, 0, 73, 67
3, 99649, Note_on_c, 0, 80, 54
3, 99649, Note_on_c, 0, 65, 36
3, 99664, Note_on_c, 0, 65, 0
3, 99665, Note_on_c, 0, 55, 24
3, 99667, Control_c, 0, 64, 127
3, 99690, Note_on_c, 0, 61, 0
3, 99697, Note_on_c, 0, 55, 0
3, 99723, Note_on_c, 0, 85, 0
3, 99734, Note_on_c, 0, 80, 0
3, 99741, Note_on_c, 0, 73, 0
3, 100027, Note_on_c, 0, 76, 78
3, 100030, Note_on_c, 0, 65, 71
3, 100031, Note_on_c, 0, 64, 61
3, 100033, Control_c, 0, 64, 0
3, 100033, Note_on_c, 0, 69, 72
3, 100114, Control_c, 0, 64, 127
3, 100131, Note_on_c, 0, 65, 0
3, 100142, Note_on_c, 0, 69, 0
3, 100147, Note_on_c, 0, 64, 0
3, 100152, Note_on_c, 0, 76, 0
3, 100166, Note_on_c, 0, 74, 50
3, 100167, Note_on_c, 0, 62, 42
3, 100169, Note_on_c, 0, 65, 45
3, 100170, Control_c, 0, 64, 0
3, 100170, Note_on_c, 0, 69, 59
3, 100212, Note_on_c, 0, 65, 0
3, 100214, Note_on_c, 0, 69, 0
3, 100237, Note_on_c, 0, 74, 0
3, 100280, Note_on_c, 0, 62, 0
3, 100290, Note_on_c, 0, 76, 64
3, 100297, Note_on_c, 0, 69, 60
3, 100298, Note_on_c, 0, 65, 36
3, 100300, Note_on_c, 0, 64, 41
3, 100319, Control_c, 0, 64, 127
3, 100372, Note_on_c, 0, 65, 0
3, 100381, Note_on_c, 0, 69, 0
3, 100393, Control_c, 0, 64, 0
3, 100396, Note_on_c, 0, 76, 0
3, 100414, Note_on_c, 0, 64, 0
3, 100418, Note_on_c, 0, 62, 36
3, 100422, Note_on_c, 0, 74, 40
3, 100427, Note_on_c, 0, 65, 31
3, 100429, Note_on_c, 0, 69, 40
3, 100438, Control_c, 0, 64, 127
3, 100447, Note_on_c, 0, 65, 0
3, 100452, Note_on_c, 0, 69, 0
3, 100484, Note_on_c, 0, 74, 0
3, 100535, Note_on_c, 0, 62, 0
3, 100544, Note_on_c, 0, 76, 57
3, 100550, Note_on_c, 0, 65, 57
3, 100550, Note_on_c, 0, 69, 61
3, 100553, Control_c, 0, 64, 0
3, 100556, Note_on_c, 0, 61, 43
3, 100560, Note_on_c, 0, 73, 34
3, 100573, Note_on_c, 0, 73, 0
3, 100593, Note_on_c, 0, 65, 0
3, 100605, Note_on_c, 0, 69, 0
3, 100620, Note_on_c, 0, 76, 0
3, 100634, Note_on_c, 0, 61, 0
3, 100657, Control_c, 0, 64, 127
3, 100666, Note_on_c, 0, 74, 53
3, 100666, Note_on_c, 0, 65, 35
3, 100673, Note_on_c, 0, 69, 40
3, 100674, Note_on_c, 0, 61, 38
3, 100721, Note_on_c, 0, 69, 0
3, 100729, Note_on_c, 0, 65, 0
3, 100753, Note_on_c, 0, 74, 0
3, 100757, Note_on_c, 0, 61, 0
3, 100772, Control_c, 0, 64, 0
3, 100804, Note_on_c, 0, 76, 61
3, 100812, Note_on_c, 0, 69, 51
3, 100814, Note_on_c, 0, 65, 36
3, 100818, Note_on_c, 0, 61, 36
3, 100835, Control_c, 0, 64, 127
3, 100884, Note_on_c, 0, 65, 0
3, 100887, Note_on_c, 0, 69, 0
3, 100903, Note_on_c, 0, 61, 0
3, 100907, Note_on_c, 0, 76, 0
3, 100940, Note_on_c, 0, 65, 37
3, 100940, Note_on_c, 0, 74, 37
3, 100940, Control_c, 0, 64, 0
3, 100941, Note_on_c, 0, 61, 34
3, 100944, Note_on_c, 0, 69, 45
3, 100978, Note_on_c, 0, 69, 0
3, 100979, Note_on_c, 0, 65, 0
3, 101002, Note_on_c, 0, 74, 0
3, 101004, Note_on_c, 0, 61, 0
3, 101048, Control_c, 0, 64, 127
3, 101056, Note_on_c, 0, 76, 57
3, 101063, Note_on_c, 0, 69, 44
3, 101064, Note_on_c, 0, 61, 47
3, 101067, Note_on_c, 0, 65, 33
3, 101087, Note_on_c, 0, 65, 0
3, 101096, Note_on_c, 0, 69, 0
3, 101113, Note_on_c, 0, 76, 0
3, 101124, Note_on_c, 0, 61, 0
3, 101182, Control_c, 0, 64, 0
3, 101192, Note_on_c, 0, 79, 80
3, 101195, Note_on_c, 0, 73, 64
3, 101195, Note_on_c, 0, 61, 60
3, 101196, Note_on_c, 0, 69, 68
3, 101234, Control_c, 0, 64, 127
3, 101241, Note_on_c, 0, 73, 0
3, 101242, Note_on_c, 0, 79, 0
3, 101248, Note_on_c, 0, 69, 0
3, 101272, Note_on_c, 0, 61, 0
3, 101325, Note_on_c, 0, 76, 54
3, 101331, Note_on_c, 0, 65, 36
3, 101331, Note_on_c, 0, 61, 52
3, 101332, Note_on_c, 0, 69, 52
3, 101334, Control_c, 0, 64, 0
3, 101386, Note_on_c, 0, 65, 0
3, 101390, Note_on_c, 0, 69, 0
3, 101394, Note_on_c, 0, 61, 0
3, 101394, Note_on_c, 0, 76, 0
3, 101426, Note_on_c, 0, 74, 53
3, 101431, Note_on_c, 0, 65, 34
3, 101432, Note_on_c, 0, 60, 40
3, 101443, Control_c, 0, 64, 127
3, 101446, Note_on_c, 0, 69, 24
3, 101491, Note_on_c, 0, 69, 0
3, 101498, Note_on_c, 0, 65, 0
3, 101504, Note_on_c, 0, 60, 0
3, 101514, Note_on_c, 0, 74, 0
3, 101521, Control_c, 0, 64, 0
3, 101557, Note_on_c, 0, 76, 60
3, 101561, Note_on_c, 0, 69, 60
3, 101563, Note_on_c, 0, 65, 49
3, 101564, Note_on_c, 0, 60, 47
3, 101573, Control_c, 0, 64, 127
3, 101604, Note_on_c, 0, 65, 0
3, 101606, Note_on_c, 0, 69, 0
3, 101619, Note_on_c, 0, 60, 0
3, 101621, Note_on_c, 0, 76, 0
3, 101698, Note_on_c, 0, 79, 74
3, 101707, Note_on_c, 0, 60, 69
3, 101726, Note_on_c, 0, 79, 0
3, 101732, Control_c, 0, 64, 0
3, 101738, Note_on_c, 0, 60, 0
3, 101800, Control_c, 0, 64, 127
3, 101816, Note_on_c, 0, 76, 56
3, 101823, Note_on_c, 0, 65, 51
3, 101824, Note_on_c, 0, 69, 57
3, 101827, Note_on_c, 0, 60, 58
3, 101894, Note_on_c, 0, 65, 0
3, 101904, Note_on_c, 0, 69, 0
3, 101919, Control_c, 0, 64, 0
3, 101920, Note_on_c, 0, 76, 0
3, 101921, Note_on_c, 0, 60, 0
3, 101949, Note_on_c, 0, 59, 52
3, 101955, Note_on_c, 0, 74, 40
3, 101955, Note_on_c, 0, 65, 35
3, 101959, Note_on_c, 0, 69, 24
3, 101960, Control_c, 0, 64, 127
3, 101980, Note_on_c, 0, 59, 0
3, 101983, Note_on_c, 0, 69, 0
3, 101989, Note_on_c, 0, 65, 0
3, 102028, Note_on_c, 0, 74, 0
3, 102076, Note_on_c, 0, 76, 55
3, 102079, Control_c, 0, 64, 0
3, 102081, Note_on_c, 0, 65, 46
3, 102081, Note_on_c, 0, 71, 51
3, 102081, Note_on_c, 0, 69, 57
3, 102095, Note_on_c, 0, 59, 46
3, 102194, Control_c, 0, 64, 127
3, 102382, Note_on_c, 0, 59, 0
3, 102390, Note_on_c, 0, 69, 0
3, 102393, Note_on_c, 0, 71, 0
3, 102393, Note_on_c, 0, 65, 0
3, 102421, Note_on_c, 0, 76, 0
3, 102467, Note_on_c, 0, 65, 60
3, 102467, Note_on_c, 0, 74, 30
3, 102476, Note_on_c, 0, 71, 36
3, 102476, Note_on_c, 0, 69, 50
3, 102488, Note_on_c, 0, 69, 0
3, 102489, Note_on_c, 0, 71, 0
3, 102491, Note_on_c, 0, 59, 46
3, 102494, Note_on_c, 0, 74, 0
3, 102495, Note_on_c, 0, 65, 0
3, 102496, Control_c, 0, 64, 0
3, 102717, Note_on_c, 0, 69, 73
3, 102738, Note_on_c, 0, 59, 0
3, 102824, Note_on_c, 0, 69, 0
3, 102850, Note_on_c, 0, 65, 51
3, 102861, Note_on_c, 0, 58, 36
3, 102862, Note_on_c, 0, 62, 35
3, 102868, Note_on_c, 0, 57, 22
3, 102890, Note_on_c, 0, 65, 0
3, 102895, Note_on_c, 0, 62, 0
3, 102910, Note_on_c, 0, 58, 0
3, 102913, Note_on_c, 0, 67, 44
3, 102926, Note_on_c, 0, 57, 0
3, 103030, Note_on_c, 0, 67, 0
3, 103054, Note_on_c, 0, 62, 35
3, 103090, Note_on_c, 0, 62, 0
3, 103110, Note_on_c, 0, 65, 62
3, 103244, Note_on_c, 0, 50, 43
3, 103245, Note_on_c, 0, 65, 0
3, 103259, Note_on_c, 0, 50, 0
3, 103284, Note_on_c, 0, 57, 34
3, 103409, Note_on_c, 0, 57, 0
3, 103462, Note_on_c, 0, 57, 42
3, 103669, Note_on_c, 0, 43, 37
3, 103678, Note_on_c, 0, 50, 32
3, 103700, Note_on_c, 0, 50, 0
3, 103718, Note_on_c, 0, 43, 0
3, 103752, Note_on_c, 0, 57, 0
3, 103803, Note_on_c, 0, 54, 67
3, 103814, Note_on_c, 0, 50, 33
3, 103829, Note_on_c, 0, 54, 0
3, 103850, Note_on_c, 0, 50, 0
3, 103860, Note_on_c, 0, 57, 61
3, 103899, Note_on_c, 0, 57, 0
3, 103914, Note_on_c, 0, 54, 45
3, 103940, Note_on_c, 0, 54, 0
3, 103963, Note_on_c, 0, 55, 57
3, 104009, Note_on_c, 0, 55, 0
3, 104012, Note_on_c, 0, 57, 57
3, 104017, Note_on_c, 0, 50, 32
3, 104021, Note_on_c, 0, 43, 24
3, 104039, Note_on_c, 0, 43, 0
3, 104052, Note_on_c, 0, 50, 0
3, 104054, Note_on_c, 0, 57, 0
3, 104068, Note_on_c, 0, 58, 52
3, 104097, Note_on_c, 0, 58, 0
3, 104124, Note_on_c, 0, 60, 54
3, 104158, Note_on_c, 0, 60, 0
3, 104170, Note_on_c, 0, 62, 65
3, 104226, Note_on_c, 0, 62, 0
3, 104242, Note_on_c, 0, 66, 47
3, 104254, Note_on_c, 0, 66, 0
3, 104378, Note_on_c, 0, 58, 54
3, 104379, Note_on_c, 0, 62, 59
3, 104388, Note_on_c, 0, 54, 36
3, 104392, Note_on_c, 0, 62, 0
3, 104402, Note_on_c, 0, 58, 0
3, 104405, Note_on_c, 0, 54, 0
3, 104537, Note_on_c, 0, 66, 76
3, 104562, Note_on_c, 0, 66, 0
3, 104593, Note_on_c, 0, 69, 77
3, 104642, Note_on_c, 0, 69, 0
3, 104660, Note_on_c, 0, 66, 39
3, 104686, Note_on_c, 0, 66, 0
3, 104710, Note_on_c, 0, 67, 39
3, 104737, Note_on_c, 0, 67, 0
3, 104948, Note_on_c, 0, 62, 53
3, 104951, Note_on_c, 0, 53, 50
3, 104954, Note_on_c, 0, 58, 36
3, 104960, Note_on_c, 0, 62, 0
3, 104965, Note_on_c, 0, 53, 0
3, 104966, Note_on_c, 0, 58, 0
3, 105030, Note_on_c, 0, 67, 33
3, 105044, Note_on_c, 0, 67, 0
3, 105097, Note_on_c, 0, 69, 44
3, 105121, Note_on_c, 0, 69, 0
3, 105145, Note_on_c, 0, 58, 54
3, 105148, Note_on_c, 0, 70, 70
3, 105149, Note_on_c, 0, 62, 55
3, 105161, Note_on_c, 0, 62, 0
3, 105161, Note_on_c, 0, 52, 31
3, 105174, Note_on_c, 0, 52, 0
3, 105175, Note_on_c, 0, 70, 0
3, 105181, Note_on_c, 0, 58, 0
3, 105228, Note_on_c, 0, 74, 26
3, 105244, Note_on_c, 0, 74, 0
3, 105281, Note_on_c, 0, 78, 49
3, 105303, Note_on_c, 0, 78, 0
3, 105339, Note_on_c, 0, 81, 79
3, 105345, Note_on_c, 0, 58, 54
3, 105349, Note_on_c, 0, 62, 51
3, 105363, Note_on_c, 0, 62, 0
3, 105380, Note_on_c, 0, 81, 0
3, 105386, Note_on_c, 0, 58, 0
3, 105437, Note_on_c, 0, 78, 29
3, 105447, Note_on_c, 0, 78, 0
3, 105469, Note_on_c, 0, 79, 36
3, 105496, Note_on_c, 0, 79, 0
3, 105525, Note_on_c, 0, 81, 77
3, 105530, Note_on_c, 0, 61, 53
3, 105533, Note_on_c, 0, 64, 52
3, 105545, Note_on_c, 0, 55, 36
3, 105549, Note_on_c, 0, 64, 0
3, 105561, Note_on_c, 0, 81, 0
3, 105562, Note_on_c, 0, 55, 0
3, 105568, Note_on_c, 0, 61, 0
3, 105598, Note_on_c, 0, 82, 56
3, 105628, Note_on_c, 0, 82, 0
3, 105661, Note_on_c, 0, 84, 71
3, 105684, Note_on_c, 0, 84, 0
3, 105715, Note_on_c, 0, 61, 60
3, 105719, Note_on_c, 0, 85, 82
3, 105725, Note_on_c, 0, 64, 33
3, 105738, Note_on_c, 0, 55, 28
3, 105740, Note_on_c, 0, 64, 0
3, 105746, Note_on_c, 0, 61, 0
3, 105749, Note_on_c, 0, 85, 0
3, 105753, Note_on_c, 0, 55, 0
3, 105786, Note_on_c, 0, 87, 67
3, 105807, Note_on_c, 0, 87, 0
3, 105849, Note_on_c, 0, 88, 80
3, 105877, Note_on_c, 0, 88, 0
3, 105917, Note_on_c, 0, 91, 92
3, 105918, Note_on_c, 0, 57, 58
3, 105922, Note_on_c, 0, 60, 57
3, 105922, Note_on_c, 0, 50, 48
3, 105923, Note_on_c, 0, 53, 37
3, 105934, Note_on_c, 0, 60, 0
3, 105948, Note_on_c, 0, 57, 0
3, 105957, Note_on_c, 0, 91, 0
3, 105968, Note_on_c, 0, 53, 0
3, 105971, Note_on_c, 0, 50, 0
3, 105986, Note_on_c, 0, 89, 75
3, 106028, Note_on_c, 0, 89, 0
3, 106052, Note_on_c, 0, 85, 58
3, 106076, Note_on_c, 0, 85, 0
3, 106110, Note_on_c, 0, 88, 90
3, 106112, Note_on_c, 0, 57, 57
3, 106116, Note_on_c, 0, 61, 55
3, 106137, Note_on_c, 0, 61, 0
3, 106155, Note_on_c, 0, 57, 0
3, 106178, Note_on_c, 0, 86, 57
3, 106208, Note_on_c, 0, 88, 0
3, 106227, Note_on_c, 0, 86, 0
3, 106250, Note_on_c, 0, 81, 46
3, 106286, Note_on_c, 0, 81, 0
3, 106315, Note_on_c, 0, 79, 53
3, 106326, Note_on_c, 0, 57, 22
3, 106357, Note_on_c, 0, 57, 0
3, 106361, Note_on_c, 0, 79, 0
3, 106379, Note_on_c, 0, 77, 36
3, 106428, Note_on_c, 0, 77, 0
3, 106447, Note_on_c, 0, 76, 55
3, 106481, Note_on_c, 0, 76, 0
3, 106504, Note_on_c, 0, 79, 83
3, 106523, Note_on_c, 0, 57, 45
3, 106539, Note_on_c, 0, 57, 0
3, 106572, Note_on_c, 0, 76, 67
3, 106583, Note_on_c, 0, 79, 0
3, 106611, Note_on_c, 0, 76, 0
3, 106630, Note_on_c, 0, 77, 72
3, 106681, Note_on_c, 0, 77, 0
3, 106697, Note_on_c, 0, 74, 48
3, 106715, Note_on_c, 0, 74, 0
3, 106883, Note_on_c, 0, 64, 55
3, 106896, Note_on_c, 0, 64, 0
3, 106942, Note_on_c, 0, 76, 65
3, 106948, Note_on_c, 0, 65, 52
3, 106954, Note_on_c, 0, 69, 49
3, 106968, Note_on_c, 0, 69, 0
3, 106968, Note_on_c, 0, 65, 0
3, 106975, Note_on_c, 0, 76, 0
3, 107011, Note_on_c, 0, 76, 54
3, 107017, Note_on_c, 0, 65, 49
3, 107017, Note_on_c, 0, 69, 56
3, 107031, Note_on_c, 0, 69, 0
3, 107031, Note_on_c, 0, 65, 0
3, 107042, Note_on_c, 0, 76, 0
3, 107267, Note_on_c, 0, 60, 48
3, 107280, Note_on_c, 0, 60, 0
3, 107324, Note_on_c, 0, 65, 60
3, 107325, Note_on_c, 0, 72, 61
3, 107329, Note_on_c, 0, 69, 55
3, 107376, Note_on_c, 0, 65, 0
3, 107398, Control_c, 0, 64, 127
3, 107409, Note_on_c, 0, 69, 0
3, 107418, Note_on_c, 0, 72, 0
3, 107460, Note_on_c, 0, 71, 49
3, 107461, Note_on_c, 0, 68, 52
3, 107466, Note_on_c, 0, 64, 36
3, 107470, Note_on_c, 0, 60, 46
3, 107472, Control_c, 0, 64, 0
3, 107478, Note_on_c, 0, 54, 39
3, 107558, Control_c, 0, 64, 127
3, 107588, Note_on_c, 0, 64, 0
3, 107605, Note_on_c, 0, 68, 0
3, 107633, Note_on_c, 0, 71, 0
3, 107638, Note_on_c, 0, 60, 0
3, 107643, Note_on_c, 0, 54, 0
3, 107871, Control_c, 0, 64, 0
3, 107905, Note_on_c, 0, 89, 96
3, 107908, Note_on_c, 0, 65, 53
3, 107908, Note_on_c, 0, 60, 56
3, 107912, Note_on_c, 0, 54, 49
3, 107943, Note_on_c, 0, 89, 0
3, 107974, Note_on_c, 0, 87, 53
3, 107987, Note_on_c, 0, 65, 0
3, 108000, Note_on_c, 0, 54, 0
3, 108003, Note_on_c, 0, 87, 0
3, 108007, Note_on_c, 0, 60, 0
3, 108043, Note_on_c, 0, 89, 94
3, 108045, Note_on_c, 0, 54, 52
3, 108047, Note_on_c, 0, 65, 53
3, 108051, Note_on_c, 0, 60, 64
3, 108089, Note_on_c, 0, 65, 0
3, 108101, Control_c, 0, 64, 127
3, 108108, Note_on_c, 0, 87, 74
3, 108121, Note_on_c, 0, 89, 0
3, 108136, Note_on_c, 0, 60, 0
3, 108145, Note_on_c, 0, 54, 0
3, 108170, Note_on_c, 0, 82, 74
3, 108193, Note_on_c, 0, 60, 55
3, 108193, Note_on_c, 0, 65, 44
3, 108194, Note_on_c, 0, 54, 46
3, 108198, Control_c, 0, 64, 0
3, 108201, Note_on_c, 0, 87, 0
3, 108210, Note_on_c, 0, 65, 0
3, 108229, Note_on_c, 0, 82, 0
3, 108241, Note_on_c, 0, 77, 50
3, 108251, Note_on_c, 0, 65, 46
3, 108263, Note_on_c, 0, 77, 0
3, 108271, Note_on_c, 0, 65, 0
3, 108284, Note_on_c, 0, 60, 0
3, 108303, Note_on_c, 0, 54, 0
3, 108409, Note_on_c, 0, 65, 64
3, 108413, Note_on_c, 0, 60, 62
3, 108413, Note_on_c, 0, 54, 54
3, 108424, Note_on_c, 0, 65, 0
3, 108428, Note_on_c, 0, 60, 0
3, 108441, Note_on_c, 0, 54, 0
3, 108557, Note_on_c, 0, 77, 92
3, 108600, Note_on_c, 0, 77, 0
3, 108620, Note_on_c, 0, 75, 62
3, 108649, Note_on_c, 0, 75, 0
3, 108681, Note_on_c, 0, 77, 81
3, 108682, Note_on_c, 0, 60, 53
3, 108682, Note_on_c, 0, 65, 55
3, 108683, Note_on_c, 0, 54, 55
3, 108707, Note_on_c, 0, 65, 0
3, 108721, Note_on_c, 0, 60, 0
3, 108722, Note_on_c, 0, 77, 0
3, 108741, Note_on_c, 0, 75, 69
3, 108764, Note_on_c, 0, 54, 0
3, 108801, Note_on_c, 0, 70, 47
3, 108813, Note_on_c, 0, 75, 0
3, 108839, Note_on_c, 0, 70, 0
3, 108847, Note_on_c, 0, 65, 41
3, 108865, Note_on_c, 0, 65, 0
3, 108871, Note_on_c, 0, 58, 26
3, 108876, Note_on_c, 0, 62, 17
3, 108895, Note_on_c, 0, 72, 66
3, 108899, Note_on_c, 0, 62, 0
3, 108922, Note_on_c, 0, 58, 0
3, 108940, Note_on_c, 0, 72, 0
3, 108948, Note_on_c, 0, 69, 51
3, 108964, Note_on_c, 0, 69, 0
3, 108998, Note_on_c, 0, 70, 79
3, 109015, Note_on_c, 0, 58, 36
3, 109032, Note_on_c, 0, 70, 0
3, 109055, Note_on_c, 0, 66, 50
3, 109059, Note_on_c, 0, 58, 0
3, 109068, Note_on_c, 0, 66, 0
3, 109095, Note_on_c, 0, 69, 75
3, 109145, Note_on_c, 0, 69, 0
3, 109196, Note_on_c, 0, 67, 65
3, 109234, Note_on_c, 0, 67, 0
3, 109257, Note_on_c, 0, 62, 62
3, 109297, Note_on_c, 0, 62, 0
3, 109393, Note_on_c, 0, 62, 64
3, 109404, Note_on_c, 0, 58, 37
3, 109413, Note_on_c, 0, 62, 0
3, 109424, Note_on_c, 0, 58, 0
3, 109462, Note_on_c, 0, 62, 46
3, 109489, Note_on_c, 0, 62, 0
3, 109577, Note_on_c, 0, 58, 33
3, 109583, Note_on_c, 0, 57, 27
3, 109589, Note_on_c, 0, 55, 36
3, 109593, Note_on_c, 0, 58, 0
3, 109602, Note_on_c, 0, 57, 0
3, 109634, Note_on_c, 0, 55, 0
3, 109682, Note_on_c, 0, 67, 51
3, 109720, Note_on_c, 0, 65, 48
3, 109726, Note_on_c, 0, 67, 0
3, 109765, Note_on_c, 0, 65, 0
3, 109769, Note_on_c, 0, 62, 47
3, 109779, Note_on_c, 0, 58, 42
3, 109803, Note_on_c, 0, 62, 0
3, 109813, Note_on_c, 0, 58, 0
3, 109848, Note_on_c, 0, 66, 47
3, 109873, Note_on_c, 0, 66, 0
3, 109892, Note_on_c, 0, 68, 59
3, 109931, Note_on_c, 0, 66, 35
3, 109932, Note_on_c, 0, 68, 0
3, 109975, Note_on_c, 0, 58, 27
3, 109976, Note_on_c, 0, 66, 0
3, 109988, Note_on_c, 0, 58, 0
3, 110144, Note_on_c, 0, 47, 60
3, 110150, Note_on_c, 0, 48, 81
3, 110156, Note_on_c, 0, 47, 0
3, 110190, Note_on_c, 0, 48, 0
3, 110247, Note_on_c, 0, 36, 63
3, 110262, Note_on_c, 0, 36, 0
3, 110408, Control_c, 0, 64, 127
3, 110414, Note_on_c, 0, 60, 35
3, 110459, Note_on_c, 0, 60, 0
3, 110526, Note_on_c, 0, 59, 54
3, 110529, Note_on_c, 0, 64, 54
3, 110531, Note_on_c, 0, 69, 49
3, 110535, Control_c, 0, 64, 0
3, 110540, Note_on_c, 0, 59, 0
3, 110560, Note_on_c, 0, 64, 0
3, 110564, Note_on_c, 0, 69, 0
3, 110634, Note_on_c, 0, 72, 61
3, 110641, Note_on_c, 0, 62, 32
3, 110643, Note_on_c, 0, 67, 34
3, 110646, Note_on_c, 0, 64, 28
3, 110651, Note_on_c, 0, 57, 34
3, 110672, Control_c, 0, 64, 127
3, 110673, Note_on_c, 0, 64, 0
3, 110682, Note_on_c, 0, 62, 0
3, 110683, Note_on_c, 0, 57, 0
3, 110688, Note_on_c, 0, 67, 0
3, 110695, Note_on_c, 0, 72, 0
3, 110747, Control_c, 0, 64, 0
3, 110784, Note_on_c, 0, 73, 70
3, 110784, Note_on_c, 0, 63, 65
3, 110790, Note_on_c, 0, 58, 49
3, 110790, Note_on_c, 0, 68, 63
3, 110807, Control_c, 0, 64, 127
3, 110856, Note_on_c, 0, 63, 0
3, 110873, Note_on_c, 0, 73, 0
3, 110876, Note_on_c, 0, 68, 0
3, 110882, Note_on_c, 0, 58, 0
3, 110916, Note_on_c, 0, 72, 66
3, 110916, Note_on_c, 0, 62, 61
3, 110920, Note_on_c, 0, 67, 55
3, 110920, Note_on_c, 0, 57, 61
3, 110925, Control_c, 0, 64, 0
3, 110992, Control_c, 0, 64, 127
3, 111073, Note_on_c, 0, 62, 0
3, 111109, Note_on_c, 0, 67, 0
3, 111121, Note_on_c, 0, 72, 0
3, 111124, Note_on_c, 0, 57, 0
3, 111308, Note_on_c, 0, 61, 62
3, 111310, Note_on_c, 0, 65, 70
3, 111311, Note_on_c, 0, 77, 69
3, 111323, Note_on_c, 0, 65, 0
3, 111327, Note_on_c, 0, 77, 0
3, 111330, Note_on_c, 0, 61, 0
3, 111365, Control_c, 0, 64, 0
3, 111382, Note_on_c, 0, 61, 30
3, 111382, Note_on_c, 0, 65, 37
3, 111383, Note_on_c, 0, 67, 43
3, 111384, Note_on_c, 0, 79, 53
3, 111394, Note_on_c, 0, 61, 0
3, 111396, Note_on_c, 0, 65, 0
3, 111396, Note_on_c, 0, 67, 0
3, 111396, Note_on_c, 0, 79, 0
3, 111564, Note_on_c, 0, 60, 67
3, 111565, Note_on_c, 0, 65, 63
3, 111567, Note_on_c, 0, 81, 74
3, 111569, Note_on_c, 0, 69, 71
3, 111577, Note_on_c, 0, 60, 0
3, 111578, Note_on_c, 0, 65, 0
3, 111585, Note_on_c, 0, 69, 0
3, 111604, Note_on_c, 0, 81, 0
3, 111759, Note_on_c, 0, 84, 78
3, 111762, Note_on_c, 0, 72, 71
3, 111762, Note_on_c, 0, 60, 56
3, 111764, Note_on_c, 0, 65, 43
3, 111774, Control_c, 0, 64, 127
3, 111778, Note_on_c, 0, 65, 0
3, 111804, Note_on_c, 0, 72, 0
3, 111810, Note_on_c, 0, 60, 0
3, 111813, Note_on_c, 0, 84, 0
3, 111900, Note_on_c, 0, 74, 65
3, 111902, Note_on_c, 0, 86, 62
3, 111903, Note_on_c, 0, 60, 51
3, 111905, Note_on_c, 0, 65, 39
3, 111912, Note_on_c, 0, 74, 0
3, 111915, Note_on_c, 0, 86, 0
3, 111916, Note_on_c, 0, 60, 0
3, 111920, Note_on_c, 0, 65, 0
3, 111927, Control_c, 0, 64, 0
3, 111950, Note_on_c, 0, 60, 68
3, 111954, Note_on_c, 0, 77, 87
3, 111955, Note_on_c, 0, 65, 56
3, 111955, Note_on_c, 0, 89, 85
3, 111983, Control_c, 0, 64, 127
3, 112038, Note_on_c, 0, 65, 0
3, 112062, Note_on_c, 0, 60, 0
3, 112062, Note_on_c, 0, 77, 0
3, 112070, Note_on_c, 0, 89, 0
3, 112113, Control_c, 0, 64, 0
3, 112146, Note_on_c, 0, 91, 74
3, 112147, Note_on_c, 0, 79, 77
3, 112194, Control_c, 0, 64, 127
3, 112245, Note_on_c, 0, 79, 0
3, 112248, Note_on_c, 0, 91, 0
3, 112266, Control_c, 0, 64, 0
3, 112330, Note_on_c, 0, 91, 68
3, 112331, Note_on_c, 0, 79, 70
3, 112333, Control_c, 0, 64, 127
3, 112338, Note_on_c, 0, 86, 53
3, 112390, Note_on_c, 0, 86, 0
3, 112392, Note_on_c, 0, 79, 0
3, 112392, Note_on_c, 0, 91, 0
3, 112459, Note_on_c, 0, 77, 47
3, 112460, Note_on_c, 0, 89, 40
3, 112473, Note_on_c, 0, 77, 0
3, 112475, Note_on_c, 0, 89, 0
3, 112484, Control_c, 0, 64, 0
3, 112513, Note_on_c, 0, 91, 68
3, 112514, Note_on_c, 0, 79, 60
3, 112523, Control_c, 0, 64, 127
3, 112571, Note_on_c, 0, 91, 0
3, 112585, Note_on_c, 0, 79, 0
3, 112637, Note_on_c, 0, 89, 60
3, 112644, Note_on_c, 0, 77, 44
3, 112648, Note_on_c, 0, 65, 43
3, 112651, Note_on_c, 0, 89, 0
3, 112651, Note_on_c, 0, 62, 34
3, 112659, Note_on_c, 0, 77, 0
3, 112661, Note_on_c, 0, 65, 0
3, 112663, Control_c, 0, 64, 0
3, 112666, Note_on_c, 0, 62, 0
3, 112715, Control_c, 0, 64, 127
3, 112872, Control_c, 0, 64, 0
3, 112902, Control_c, 0, 64, 127
3, 113038, Note_on_c, 0, 79, 68
3, 113040, Note_on_c, 0, 73, 64
3, 113041, Note_on_c, 0, 76, 54
3, 113043, Control_c, 0, 64, 0
3, 113046, Note_on_c, 0, 67, 58
3, 113049, Note_on_c, 0, 69, 50
3, 113050, Note_on_c, 0, 64, 66
3, 113062, Note_on_c, 0, 69, 0
3, 113125, Control_c, 0, 64, 127
3, 113133, Note_on_c, 0, 67, 0
3, 113140, Note_on_c, 0, 76, 0
3, 113152, Note_on_c, 0, 73, 0
3, 113153, Note_on_c, 0, 79, 0
3, 113162, Note_on_c, 0, 77, 42
3, 113165, Note_on_c, 0, 73, 25
3, 113166, Note_on_c, 0, 67, 49
3, 113172, Note_on_c, 0, 62, 46
3, 113184, Note_on_c, 0, 64, 0
3, 113224, Note_on_c, 0, 67, 0
3, 113234, Note_on_c, 0, 73, 0
3, 113253, Note_on_c, 0, 77, 0
3, 113266, Control_c, 0, 64, 0
3, 113295, Note_on_c, 0, 73, 51
3, 113295, Note_on_c, 0, 79, 64
3, 113298, Note_on_c, 0, 76, 48
3, 113301, Note_on_c, 0, 62, 0
3, 113301, Note_on_c, 0, 67, 32
3, 113301, Note_on_c, 0, 64, 47
3, 113359, Control_c, 0, 64, 127
3, 113371, Note_on_c, 0, 67, 0
3, 113383, Note_on_c, 0, 76, 0
3, 113388, Note_on_c, 0, 73, 0
3, 113396, Note_on_c, 0, 79, 0
3, 113411, Control_c, 0, 64, 0
3, 113413, Note_on_c, 0, 73, 55
3, 113417, Note_on_c, 0, 67, 40
3, 113420, Note_on_c, 0, 77, 62
3, 113422, Note_on_c, 0, 64, 0
3, 113422, Note_on_c, 0, 62, 40
3, 113430, Note_on_c, 0, 67, 0
3, 113439, Note_on_c, 0, 73, 0
3, 113439, Note_on_c, 0, 62, 0
3, 113442, Note_on_c, 0, 77, 0
3, 113534, Control_c, 0, 64, 127
3, 113832, Control_c, 0, 64, 0
3, 113854, Note_on_c, 0, 76, 66
3, 113855, Note_on_c, 0, 73, 62
3, 113857, Note_on_c, 0, 61, 62
3, 113858, Note_on_c, 0, 70, 61
3, 113946, Note_on_c, 0, 70, 0
3, 113951, Control_c, 0, 64, 127
3, 113967, Note_on_c, 0, 76, 0
3, 113980, Note_on_c, 0, 79, 78
3, 113983, Note_on_c, 0, 70, 70
3, 113985, Note_on_c, 0, 64, 68
3, 114024, Note_on_c, 0, 64, 0
3, 114030, Note_on_c, 0, 79, 0
3, 114030, Control_c, 0, 64, 0
3, 114040, Note_on_c, 0, 73, 0
3, 114041, Note_on_c, 0, 70, 0
3, 114051, Note_on_c, 0, 61, 0
3, 114071, Note_on_c, 0, 69, 53
3, 114071, Note_on_c, 0, 77, 64
3, 114072, Note_on_c, 0, 62, 50
3, 114079, Note_on_c, 0, 72, 41
3, 114093, Control_c, 0, 64, 127
3, 114113, Note_on_c, 0, 72, 0
3, 114118, Note_on_c, 0, 77, 0
3, 114140, Note_on_c, 0, 69, 0
3, 114186, Note_on_c, 0, 62, 0
3, 114226, Note_on_c, 0, 76, 52
3, 114227, Control_c, 0, 64, 0
3, 114233, Note_on_c, 0, 69, 59
3, 114234, Note_on_c, 0, 65, 44
3, 114234, Note_on_c, 0, 60, 54
3, 114280, Note_on_c, 0, 76, 0
3, 114282, Control_c, 0, 64, 127
3, 114286, Note_on_c, 0, 69, 0
3, 114299, Note_on_c, 0, 65, 0
3, 114320, Note_on_c, 0, 60, 0
3, 114378, Note_on_c, 0, 72, 59
3, 114383, Note_on_c, 0, 62, 48
3, 114384, Note_on_c, 0, 57, 47
3, 114385, Note_on_c, 0, 69, 54
3, 114388, Note_on_c, 0, 65, 44
3, 114398, Control_c, 0, 64, 0
3, 114406, Note_on_c, 0, 65, 0
3, 114418, Note_on_c, 0, 69, 0
3, 114428, Note_on_c, 0, 72, 0
3, 114440, Note_on_c, 0, 62, 0
3, 114451, Note_on_c, 0, 57, 0
3, 114483, Control_c, 0, 64, 127
3, 114509, Note_on_c, 0, 69, 36
3, 114513, Note_on_c, 0, 53, 54
3, 114519, Note_on_c, 0, 59, 24
3, 114567, Note_on_c, 0, 59, 0
3, 114575, Note_on_c, 0, 69, 0
3, 114603, Control_c, 0, 64, 0
3, 114608, Note_on_c, 0, 53, 0
3, 114630, Note_on_c, 0, 59, 40
3, 114636, Note_on_c, 0, 50, 41
3, 114647, Note_on_c, 0, 59, 0
3, 114647, Control_c, 0, 64, 127
3, 114698, Note_on_c, 0, 50, 0
3, 114761, Note_on_c, 0, 71, 35
3, 114763, Note_on_c, 0, 62, 37
3, 114765, Note_on_c, 0, 53, 48
3, 114766, Control_c, 0, 64, 0
3, 114767, Note_on_c, 0, 65, 44
3, 114769, Note_on_c, 0, 67, 29
3, 114785, Note_on_c, 0, 65, 0
3, 114786, Note_on_c, 0, 67, 0
3, 114787, Note_on_c, 0, 62, 0
3, 114793, Note_on_c, 0, 71, 0
3, 114795, Note_on_c, 0, 53, 0
3, 114878, Control_c, 0, 64, 127
3, 114927, Control_c, 0, 64, 0
3, 114941, Note_on_c, 0, 70, 55
3, 114943, Note_on_c, 0, 61, 52
3, 114946, Note_on_c, 0, 66, 55
3, 114948, Note_on_c, 0, 51, 57
3, 114999, Note_on_c, 0, 51, 0
3, 115007, Control_c, 0, 64, 127
3, 115015, Note_on_c, 0, 66, 0
3, 115045, Note_on_c, 0, 61, 0
3, 115056, Note_on_c, 0, 70, 0
3, 115140, Note_on_c, 0, 50, 38
3, 115172, Control_c, 0, 64, 0
3, 115186, Note_on_c, 0, 43, 39
3, 115189, Note_on_c, 0, 50, 0
3, 115195, Note_on_c, 0, 58, 44
3, 115198, Note_on_c, 0, 62, 47
3, 115205, Note_on_c, 0, 69, 26
3, 115208, Note_on_c, 0, 55, 31
3, 115214, Note_on_c, 0, 43, 0
3, 115214, Note_on_c, 0, 65, 32
3, 115217, Control_c, 0, 64, 127
3, 115222, Note_on_c, 0, 55, 0
3, 115227, Note_on_c, 0, 58, 0
3, 115227, Note_on_c, 0, 62, 0
3, 115231, Note_on_c, 0, 65, 0
3, 115252, Note_on_c, 0, 69, 0
3, 115391, Control_c, 0, 64, 0
3, 115392, Note_on_c, 0, 58, 44
3, 115394, Note_on_c, 0, 62, 36
3, 115396, Note_on_c, 0, 81, 71
3, 115399, Note_on_c, 0, 69, 63
3, 115399, Note_on_c, 0, 53, 32
3, 115403, Note_on_c, 0, 57, 34
3, 115420, Note_on_c, 0, 57, 0
3, 115421, Note_on_c, 0, 53, 0
3, 115422, Note_on_c, 0, 69, 0
3, 115423, Note_on_c, 0, 62, 0
3, 115429, Note_on_c, 0, 58, 0
3, 115430, Note_on_c, 0, 81, 0
3, 115460, Note_on_c, 0, 79, 47
3, 115469, Control_c, 0, 64, 127
3, 115490, Note_on_c, 0, 79, 0
3, 115511, Control_c, 0, 64, 0
3, 115527, Note_on_c, 0, 69, 68
3, 115528, Note_on_c, 0, 81, 68
3, 115529, Note_on_c, 0, 74, 57
3, 115529, Note_on_c, 0, 58, 39
3, 115531, Note_on_c, 0, 62, 36
3, 115531, Note_on_c, 0, 57, 36
3, 115532, Note_on_c, 0, 53, 40
3, 115588, Control_c, 0, 64, 127
3, 115712, Note_on_c, 0, 62, 0
3, 115716, Note_on_c, 0, 69, 0
3, 115717, Note_on_c, 0, 74, 0
3, 115721, Note_on_c, 0, 58, 0
3, 115778, Note_on_c, 0, 69, 54
3, 115778, Note_on_c, 0, 74, 33
3, 115784, Note_on_c, 0, 62, 30
3, 115788, Note_on_c, 0, 58, 23
3, 115825, Note_on_c, 0, 53, 0
3, 115857, Note_on_c, 0, 81, 0
3, 115884, Note_on_c, 0, 57, 0
3, 115896, Note_on_c, 0, 62, 0
3, 115920, Note_on_c, 0, 74, 0
3, 115923, Note_on_c, 0, 69, 0
3, 115937, Note_on_c, 0, 58, 0
3, 115964, Note_on_c, 0, 62, 41
3, 115966, Note_on_c, 0, 58, 25
3, 115968, Control_c, 0, 64, 0
3, 115970, Note_on_c, 0, 54, 38
3, 116088, Note_on_c, 0, 58, 0
3, 116127, Note_on_c, 0, 58, 37
3, 116166, Note_on_c, 0, 69, 77
3, 116168, Note_on_c, 0, 62, 0
3, 116188, Note_on_c, 0, 58, 0
3, 116194, Note_on_c, 0, 69, 0
3, 116196, Note_on_c, 0, 68, 51
3, 116235, Note_on_c, 0, 67, 30
3, 116240, Note_on_c, 0, 68, 0
3, 116283, Note_on_c, 0, 67, 0
3, 116294, Note_on_c, 0, 66, 36
3, 116319, Note_on_c, 0, 66, 0
3, 116320, Note_on_c, 0, 58, 18
3, 116335, Note_on_c, 0, 62, 15
3, 116356, Note_on_c, 0, 58, 0
3, 116362, Note_on_c, 0, 69, 73
3, 116372, Note_on_c, 0, 62, 0
3, 116421, Note_on_c, 0, 69, 0
3, 116445, Note_on_c, 0, 66, 74
3, 116486, Note_on_c, 0, 66, 0
3, 116506, Note_on_c, 0, 67, 73
3, 116551, Note_on_c, 0, 67, 0
3, 116569, Note_on_c, 0, 62, 39
3, 116599, Note_on_c, 0, 54, 0
3, 116618, Note_on_c, 0, 62, 0
3, 116664, Note_on_c, 0, 62, 52
3, 116702, Note_on_c, 0, 62, 0
3, 116783, Note_on_c, 0, 58, 1
3, 116859, Note_on_c, 0, 58, 0
3, 116870, Note_on_c, 0, 55, 35
3, 116890, Note_on_c, 0, 55, 0
3, 116921, Note_on_c, 0, 57, 69
3, 117053, Note_on_c, 0, 57, 0
3, 117069, Note_on_c, 0, 58, 42
3, 117089, Note_on_c, 0, 57, 51
3, 117097, Note_on_c, 0, 58, 0
3, 117121, Note_on_c, 0, 55, 53
3, 117122, Note_on_c, 0, 57, 0
3, 117228, Note_on_c, 0, 55, 0
3, 117508, Note_on_c, 0, 62, 55
3, 117508, Note_on_c, 0, 58, 52
3, 117518, Note_on_c, 0, 52, 34
3, 117525, Note_on_c, 0, 62, 0
3, 117532, Note_on_c, 0, 52, 0
3, 117540, Note_on_c, 0, 58, 0
3, 117828, Note_on_c, 0, 66, 74
3, 117836, Note_on_c, 0, 61, 52
3, 117839, Note_on_c, 0, 55, 44
3, 117853, Note_on_c, 0, 66, 0
3, 117854, Note_on_c, 0, 55, 0
3, 117880, Note_on_c, 0, 61, 0
3, 117904, Note_on_c, 0, 72, 105
3, 117986, Note_on_c, 0, 72, 0
3, 118027, Note_on_c, 0, 70, 74
3, 118078, Note_on_c, 0, 70, 0
3, 118112, Note_on_c, 0, 65, 43
3, 118197, Note_on_c, 0, 65, 0
3, 118223, Note_on_c, 0, 57, 35
3, 118226, Note_on_c, 0, 61, 58
3, 118233, Note_on_c, 0, 50, 33
3, 118241, Note_on_c, 0, 57, 0
3, 118254, Note_on_c, 0, 50, 0
3, 118287, Note_on_c, 0, 61, 0
3, 118308, Note_on_c, 0, 60, 46
3, 118411, Note_on_c, 0, 60, 0
3, 118432, Note_on_c, 0, 61, 27
3, 118434, Note_on_c, 0, 57, 24
3, 118451, Note_on_c, 0, 57, 0
3, 118457, Note_on_c, 0, 61, 0
3, 118477, Note_on_c, 0, 64, 75
3, 118612, Note_on_c, 0, 64, 0
3, 118617, Note_on_c, 0, 61, 46
3, 118626, Note_on_c, 0, 53, 24
3, 118643, Note_on_c, 0, 53, 0
3, 118669, Note_on_c, 0, 62, 58
3, 118672, Note_on_c, 0, 61, 0
3, 118767, Note_on_c, 0, 62, 0
3, 118801, Note_on_c, 0, 57, 56
3, 118816, Note_on_c, 0, 57, 0
3, 119046, Note_on_c, 0, 60, 60
3, 119050, Note_on_c, 0, 57, 52
3, 119051, Note_on_c, 0, 50, 41
3, 119058, Note_on_c, 0, 60, 0
3, 119067, Note_on_c, 0, 50, 0
3, 119081, Note_on_c, 0, 57, 0
3, 119246, Control_c, 0, 64, 127
3, 119374, Note_on_c, 0, 64, 69
3, 119378, Note_on_c, 0, 57, 49
3, 119386, Note_on_c, 0, 64, 0
3, 119388, Control_c, 0, 64, 0
3, 119396, Note_on_c, 0, 57, 0
3, 119439, Note_on_c, 0, 75, 69
3, 119443, Note_on_c, 0, 87, 64
3, 119444, Control_c, 0, 64, 127
3, 119455, Control_c, 0, 64, 0
3, 119541, Note_on_c, 0, 87, 0
3, 119544, Note_on_c, 0, 75, 0
3, 119564, Note_on_c, 0, 88, 68
3, 119566, Note_on_c, 0, 76, 58
3, 119585, Note_on_c, 0, 85, 25
3, 119587, Note_on_c, 0, 86, 30
3, 119605, Note_on_c, 0, 86, 0
3, 119605, Note_on_c, 0, 76, 0
3, 119608, Note_on_c, 0, 88, 0
3, 119613, Note_on_c, 0, 85, 0
3, 119646, Note_on_c, 0, 88, 57
3, 119653, Note_on_c, 0, 76, 39
3, 119708, Note_on_c, 0, 76, 0
3, 119709, Note_on_c, 0, 88, 0
3, 119753, Note_on_c, 0, 76, 69
3, 119756, Note_on_c, 0, 88, 75
3, 119761, Note_on_c, 0, 60, 71
3, 119762, Note_on_c, 0, 64, 72
3, 119764, Note_on_c, 0, 54, 60
3, 119773, Note_on_c, 0, 60, 0
3, 119781, Note_on_c, 0, 64, 0
3, 119790, Note_on_c, 0, 88, 0
3, 119793, Note_on_c, 0, 54, 0
3, 119797, Note_on_c, 0, 76, 0
3, 119848, Note_on_c, 0, 87, 43
3, 119851, Note_on_c, 0, 75, 48
3, 119922, Note_on_c, 0, 87, 0
3, 119928, Note_on_c, 0, 75, 0
3, 119950, Note_on_c, 0, 88, 68
3, 119950, Note_on_c, 0, 76, 67
3, 119955, Note_on_c, 0, 84, 58
3, 119957, Note_on_c, 0, 81, 59
3, 119960, Note_on_c, 0, 86, 49
3, 119976, Note_on_c, 0, 86, 0
3, 119984, Note_on_c, 0, 76, 0
3, 119988, Note_on_c, 0, 81, 0
3, 119991, Note_on_c, 0, 88, 0
3, 119995, Note_on_c, 0, 84, 0
3, 120027, Note_on_c, 0, 88, 48
3, 120036, Note_on_c, 0, 84, 35
3, 120037, Note_on_c, 0, 81, 30
3, 120062, Note_on_c, 0, 81, 0
3, 120063, Note_on_c, 0, 88, 0
3, 120072, Note_on_c, 0, 84, 0
3, 120133, Note_on_c, 0, 88, 70
3, 120137, Note_on_c, 0, 54, 65
3, 120137, Note_on_c, 0, 76, 68
3, 120138, Note_on_c, 0, 64, 74
3, 120141, Note_on_c, 0, 81, 60
3, 120142, Note_on_c, 0, 60, 65
3, 120150, Note_on_c, 0, 86, 22
3, 120151, Note_on_c, 0, 84, 33
3, 120153, Note_on_c, 0, 60, 0
3, 120155, Note_on_c, 0, 81, 0
3, 120161, Note_on_c, 0, 64, 0
3, 120162, Note_on_c, 0, 84, 0
3, 120162, Note_on_c, 0, 76, 0
3, 120164, Note_on_c, 0, 86, 0
3, 120165, Note_on_c, 0, 88, 0
3, 120168, Note_on_c, 0, 54, 0
3, 120212, Note_on_c, 0, 84, 57
3, 120219, Note_on_c, 0, 72, 42
3, 120254, Note_on_c, 0, 84, 0
3, 120274, Note_on_c, 0, 72, 0
3, 120353, Note_on_c, 0, 60, 42
3, 120366, Note_on_c, 0, 60, 0
3, 120384, Note_on_c, 0, 80, 55
3, 120384, Note_on_c, 0, 68, 57
3, 120403, Note_on_c, 0, 77, 45
3, 120406, Note_on_c, 0, 74, 37
3, 120413, Note_on_c, 0, 81, 63
3, 120416, Note_on_c, 0, 68, 0
3, 120416, Note_on_c, 0, 69, 76
3, 120419, Note_on_c, 0, 80, 0
3, 120503, Note_on_c, 0, 81, 0
3, 120513, Note_on_c, 0, 77, 0
3, 120518, Note_on_c, 0, 74, 0
3, 120528, Note_on_c, 0, 69, 0
3, 120537, Note_on_c, 0, 54, 37
3, 120581, Note_on_c, 0, 77, 58
3, 120583, Note_on_c, 0, 65, 54
3, 120585, Note_on_c, 0, 54, 0
3, 120592, Note_on_c, 0, 74, 35
3, 120663, Note_on_c, 0, 77, 0
3, 120664, Note_on_c, 0, 74, 0
3, 120695, Note_on_c, 0, 65, 0
3, 120714, Note_on_c, 0, 60, 31
3, 120726, Note_on_c, 0, 60, 0
3, 120761, Note_on_c, 0, 61, 64
3, 120762, Note_on_c, 0, 73, 49
3, 120778, Note_on_c, 0, 66, 26
3, 120784, Note_on_c, 0, 61, 0
3, 120790, Note_on_c, 0, 62, 53
3, 120795, Note_on_c, 0, 74, 41
3, 120801, Note_on_c, 0, 69, 15
3, 120804, Note_on_c, 0, 73, 0
3, 120848, Note_on_c, 0, 69, 0
3, 120868, Note_on_c, 0, 62, 0
3, 120911, Note_on_c, 0, 66, 0
3, 120914, Note_on_c, 0, 54, 35
3, 120915, Note_on_c, 0, 60, 27
3, 120933, Note_on_c, 0, 74, 0
3, 120935, Note_on_c, 0, 60, 0
3, 120959, Note_on_c, 0, 64, 53
3, 120963, Note_on_c, 0, 70, 70
3, 120964, Note_on_c, 0, 65, 62
3, 120977, Control_c, 0, 64, 127
3, 121044, Note_on_c, 0, 65, 0
3, 121051, Note_on_c, 0, 54, 0
3, 121059, Note_on_c, 0, 64, 0
3, 121087, Note_on_c, 0, 60, 22
3, 121104, Note_on_c, 0, 60, 0
3, 121112, Note_on_c, 0, 70, 0
3, 121130, Control_c, 0, 64, 0
3, 121145, Note_on_c, 0, 62, 40
3, 121146, Note_on_c, 0, 65, 55
3, 121153, Note_on_c, 0, 54, 52
3, 121164, Note_on_c, 0, 60, 26
3, 121171, Control_c, 0, 64, 127
3, 121181, Note_on_c, 0, 60, 0
3, 121278, Note_on_c, 0, 62, 0
3, 121284, Note_on_c, 0, 54, 0
3, 121288, Note_on_c, 0, 65, 0
3, 121330, Control_c, 0, 64, 0
3, 121340, Note_on_c, 0, 53, 25
3, 121342, Note_on_c, 0, 62, 44
3, 121342, Note_on_c, 0, 58, 29
3, 121345, Note_on_c, 0, 57, 34
3, 121379, Control_c, 0, 64, 127
3, 121407, Note_on_c, 0, 58, 0
3, 121431, Note_on_c, 0, 57, 0
3, 121442, Note_on_c, 0, 62, 0
3, 121497, Note_on_c, 0, 53, 0
3, 121520, Control_c, 0, 64, 0
3, 121532, Note_on_c, 0, 70, 74
3, 121536, Note_on_c, 0, 60, 72
3, 121537, Note_on_c, 0, 65, 71
3, 121538, Note_on_c, 0, 55, 62
3, 121587, Control_c, 0, 64, 127
3, 121656, Note_on_c, 0, 60, 0
3, 121668, Note_on_c, 0, 65, 0
3, 121702, Note_on_c, 0, 70, 0
3, 121714, Control_c, 0, 64, 0
3, 121720, Note_on_c, 0, 55, 0
3, 121735, Note_on_c, 0, 57, 57
3, 121736, Note_on_c, 0, 72, 69
3, 121737, Note_on_c, 0, 62, 59
3, 121739, Note_on_c, 0, 65, 60
3, 121781, Control_c, 0, 64, 127
3, 121819, Note_on_c, 0, 62, 0
3, 121831, Note_on_c, 0, 65, 0
3, 121842, Note_on_c, 0, 72, 0
3, 121870, Control_c, 0, 64, 0
3, 121873, Note_on_c, 0, 62, 59
3, 121873, Note_on_c, 0, 70, 65
3, 121886, Note_on_c, 0, 55, 60
3, 121888, Note_on_c, 0, 68, 28
3, 121893, Note_on_c, 0, 62, 0
3, 121894, Note_on_c, 0, 57, 0
3, 121902, Note_on_c, 0, 55, 0
3, 121909, Note_on_c, 0, 68, 0
3, 121927, Note_on_c, 0, 70, 0
3, 121934, Control_c, 0, 64, 127
3, 122056, Note_on_c, 0, 75, 78
3, 122059, Note_on_c, 0, 70, 80
3, 122060, Note_on_c, 0, 68, 74
3, 122061, Note_on_c, 0, 64, 78
3, 122067, Note_on_c, 0, 63, 91
3, 122079, Control_c, 0, 64, 0
3, 122160, Control_c, 0, 64, 127
3, 122275, Note_on_c, 0, 64, 0
3, 122279, Note_on_c, 0, 68, 0
3, 122291, Control_c, 0, 64, 0
3, 122294, Note_on_c, 0, 70, 0
3, 122298, Note_on_c, 0, 75, 0
3, 122316, Note_on_c, 0, 70, 38
3, 122317, Note_on_c, 0, 64, 50
3, 122318, Note_on_c, 0, 68, 48
3, 122318, Note_on_c, 0, 73, 56
3, 122318, Note_on_c, 0, 61, 53
3, 122327, Note_on_c, 0, 63, 0
3, 122339, Control_c, 0, 64, 127
3, 122340, Note_on_c, 0, 61, 0
3, 122444, Note_on_c, 0, 64, 0
3, 122458, Note_on_c, 0, 68, 0
3, 122469, Control_c, 0, 64, 0
3, 122470, Note_on_c, 0, 73, 0
3, 122476, Note_on_c, 0, 70, 0
3, 122506, Note_on_c, 0, 70, 58
3, 122507, Note_on_c, 0, 75, 72
3, 122510, Note_on_c, 0, 68, 62
3, 122512, Note_on_c, 0, 61, 54
3, 122514, Note_on_c, 0, 64, 47
3, 122544, Control_c, 0, 64, 127
3, 122590, Note_on_c, 0, 68, 0
3, 122603, Note_on_c, 0, 64, 0
3, 122603, Note_on_c, 0, 70, 0
3, 122616, Note_on_c, 0, 75, 0
3, 122637, Note_on_c, 0, 73, 57
3, 122638, Note_on_c, 0, 70, 63
3, 122639, Note_on_c, 0, 64, 62
3, 122640, Note_on_c, 0, 68, 60
3, 122642, Control_c, 0, 64, 0
3, 122644, Note_on_c, 0, 61, 0
3, 122645, Note_on_c, 0, 58, 42
3, 122673, Note_on_c, 0, 64, 0
3, 122677, Note_on_c, 0, 68, 0
3, 122678, Note_on_c, 0, 73, 0
3, 122678, Note_on_c, 0, 70, 0
3, 122700, Control_c, 0, 64, 127
3, 122774, Note_on_c, 0, 56, 47
3, 122787, Note_on_c, 0, 58, 0
3, 122816, Note_on_c, 0, 56, 0
3, 122816, Note_on_c, 0, 72, 68
3, 122816, Note_on_c, 0, 62, 77
3, 122817, Note_on_c, 0, 67, 71
3, 122820, Note_on_c, 0, 57, 71
3, 122827, Control_c, 0, 64, 0
3, 122901, Control_c, 0, 64, 127
3, 122997, Note_on_c, 0, 62, 0
3, 122998, Note_on_c, 0, 67, 0
3, 123022, Note_on_c, 0, 72, 0
3, 123050, Control_c, 0, 64, 0
3, 123077, Note_on_c, 0, 71, 32
3, 123077, Note_on_c, 0, 56, 43
3, 123084, Note_on_c, 0, 57, 0
3, 123084, Note_on_c, 0, 61, 47
3, 123087, Note_on_c, 0, 66, 48
3, 123095, Control_c, 0, 64, 127
3, 123145, Note_on_c, 0, 61, 0
3, 123147, Note_on_c, 0, 66, 0
3, 123165, Note_on_c, 0, 71, 0
3, 123206, Control_c, 0, 64, 0
3, 123209, Note_on_c, 0, 72, 58
3, 123211, Note_on_c, 0, 66, 72
3, 123218, Note_on_c, 0, 57, 62
3, 123218, Note_on_c, 0, 62, 65
3, 123223, Note_on_c, 0, 56, 0
3, 123254, Control_c, 0, 64, 127
3, 123279, Note_on_c, 0, 72, 0
3, 123302, Note_on_c, 0, 66, 0
3, 123310, Note_on_c, 0, 62, 0
3, 123333, Note_on_c, 0, 57, 0
3, 123456, Control_c, 0, 64, 0
3, 123472, Note_on_c, 0, 48, 20
3, 123491, Note_on_c, 0, 48, 0
3, 123496, Note_on_c, 0, 49, 36
3, 123515, Control_c, 0, 64, 127
3, 123528, Note_on_c, 0, 51, 55
3, 123538, Note_on_c, 0, 49, 0
3, 123556, Note_on_c, 0, 51, 0
3, 123566, Note_on_c, 0, 52, 39
3, 123593, Control_c, 0, 64, 0
3, 123603, Note_on_c, 0, 52, 0
3, 123634, Note_on_c, 0, 56, 35
3, 123669, Note_on_c, 0, 58, 47
3, 123670, Note_on_c, 0, 56, 0
3, 123682, Note_on_c, 0, 32, 46
3, 123701, Note_on_c, 0, 58, 0
3, 123709, Control_c, 0, 64, 127
3, 123713, Note_on_c, 0, 32, 0
3, 123735, Note_on_c, 0, 60, 62
3, 123763, Note_on_c, 0, 60, 0
3, 123768, Note_on_c, 0, 61, 45
3, 123804, Note_on_c, 0, 63, 59
3, 123807, Note_on_c, 0, 61, 0
3, 123818, Note_on_c, 0, 63, 0
3, 123837, Note_on_c, 0, 65, 67
3, 123866, Note_on_c, 0, 65, 0
3, 123871, Note_on_c, 0, 66, 56
3, 123894, Note_on_c, 0, 68, 54
3, 123899, Note_on_c, 0, 66, 0
3, 123920, Note_on_c, 0, 68, 0
3, 123921, Note_on_c, 0, 70, 52
3, 123934, Note_on_c, 0, 70, 0
3, 123958, Note_on_c, 0, 72, 53
3, 123982, Note_on_c, 0, 72, 0
3, 123987, Note_on_c, 0, 73, 63
3, 124022, Note_on_c, 0, 75, 60
3, 124023, Note_on_c, 0, 73, 0
3, 124045, Note_on_c, 0, 75, 0
3, 124058, Note_on_c, 0, 77, 65
3, 124066, Control_c, 0, 64, 0
3, 124068, Note_on_c, 0, 65, 45
3, 124071, Note_on_c, 0, 60, 48
3, 124076, Note_on_c, 0, 58, 27
3, 124082, Note_on_c, 0, 54, 40
3, 124089, Note_on_c, 0, 77, 0
3, 124096, Note_on_c, 0, 78, 55
3, 124128, Note_on_c, 0, 78, 0
3, 124134, Note_on_c, 0, 80, 32
3, 124155, Note_on_c, 0, 80, 0
3, 124161, Note_on_c, 0, 82, 46
3, 124174, Note_on_c, 0, 82, 0
3, 124198, Note_on_c, 0, 58, 0
3, 124198, Note_on_c, 0, 84, 65
3, 124227, Note_on_c, 0, 84, 0
3, 124238, Note_on_c, 0, 85, 59
3, 124266, Note_on_c, 0, 85, 0
3, 124275, Note_on_c, 0, 87, 34
3, 124285, Note_on_c, 0, 65, 0
3, 124287, Note_on_c, 0, 87, 0
3, 124312, Note_on_c, 0, 89, 54
3, 124323, Note_on_c, 0, 60, 0
3, 124326, Note_on_c, 0, 89, 0
3, 124357, Note_on_c, 0, 92, 45
3, 124394, Note_on_c, 0, 54, 0
3, 124395, Note_on_c, 0, 93, 47
3, 124421, Note_on_c, 0, 94, 42
3, 124422, Note_on_c, 0, 92, 0
3, 124439, Note_on_c, 0, 93, 0
3, 124458, Note_on_c, 0, 94, 0
3, 124463, Note_on_c, 0, 95, 64
3, 124466, Note_on_c, 0, 53, 36
3, 124472, Note_on_c, 0, 63, 30
3, 124473, Note_on_c, 0, 58, 38
3, 124498, Note_on_c, 0, 95, 0
3, 124512, Note_on_c, 0, 96, 66
3, 124613, Control_c, 0, 64, 127
3, 124623, Note_on_c, 0, 84, 50
3, 124698, Note_on_c, 0, 58, 0
3, 124726, Note_on_c, 0, 63, 0
3, 124779, Note_on_c, 0, 96, 0
3, 124805, Note_on_c, 0, 84, 0
3, 124833, Note_on_c, 0, 63, 39
3, 124842, Note_on_c, 0, 58, 36
3, 124987, Note_on_c, 0, 53, 0
3, 125001, Note_on_c, 0, 63, 0
3, 125024, Note_on_c, 0, 58, 0
3, 125087, Note_on_c, 0, 82, 55
3, 125088, Note_on_c, 0, 70, 56
3, 125108, Note_on_c, 0, 70, 0
3, 125115, Note_on_c, 0, 82, 0
3, 125158, Note_on_c, 0, 84, 90
3, 125158, Note_on_c, 0, 72, 89
3, 125166, Note_on_c, 0, 65, 66
3, 125166, Note_on_c, 0, 61, 50
3, 125167, Note_on_c, 0, 56, 51
3, 125168, Note_on_c, 0, 60, 60
3, 125168, Note_on_c, 0, 83, 46
3, 125182, Note_on_c, 0, 83, 0
3, 125199, Note_on_c, 0, 65, 0
3, 125200, Note_on_c, 0, 72, 0
3, 125205, Note_on_c, 0, 84, 0
3, 125208, Note_on_c, 0, 60, 0
3, 125212, Note_on_c, 0, 56, 0
3, 125220, Note_on_c, 0, 61, 0
3, 125246, Control_c, 0, 64, 0
3, 125266, Note_on_c, 0, 56, 74
3, 125269, Note_on_c, 0, 65, 76
3, 125270, Note_on_c, 0, 61, 64
3, 125270, Note_on_c, 0, 75, 87
3, 125270, Note_on_c, 0, 60, 68
3, 125271, Note_on_c, 0, 87, 88
3, 125301, Control_c, 0, 64, 127
3, 125350, Note_on_c, 0, 65, 0
3, 125351, Note_on_c, 0, 56, 0
3, 125352, Note_on_c, 0, 87, 0
3, 125355, Note_on_c, 0, 75, 0
3, 125361, Note_on_c, 0, 60, 0
3, 125370, Note_on_c, 0, 61, 0
3, 125379, Control_c, 0, 64, 0
3, 125390, Note_on_c, 0, 85, 64
3, 125392, Note_on_c, 0, 61, 46
3, 125393, Note_on_c, 0, 56, 53
3, 125395, Note_on_c, 0, 65, 56
3, 125395, Note_on_c, 0, 73, 67
3, 125399, Note_on_c, 0, 60, 60
3, 125451, Control_c, 0, 64, 127
3, 125536, Note_on_c, 0, 65, 0
3, 125537, Note_on_c, 0, 73, 0
3, 125538, Note_on_c, 0, 60, 0
3, 125540, Note_on_c, 0, 85, 0
3, 125540, Note_on_c, 0, 61, 0
3, 125541, Note_on_c, 0, 56, 0
3, 125592, Control_c, 0, 64, 0
3, 125598, Note_on_c, 0, 61, 42
3, 125599, Note_on_c, 0, 65, 43
3, 125600, Note_on_c, 0, 84, 58
3, 125601, Note_on_c, 0, 56, 31
3, 125603, Note_on_c, 0, 72, 47
3, 125608, Note_on_c, 0, 60, 43
3, 125640, Control_c, 0, 64, 127
3, 125654, Note_on_c, 0, 84, 0
3, 125673, Note_on_c, 0, 60, 0
3, 125676, Note_on_c, 0, 72, 0
3, 125680, Note_on_c, 0, 65, 0
3, 125688, Note_on_c, 0, 56, 0
3, 125693, Note_on_c, 0, 61, 0
3, 125730, Note_on_c, 0, 82, 57
3, 125734, Note_on_c, 0, 61, 34
3, 125734, Note_on_c, 0, 56, 36
3, 125735, Note_on_c, 0, 70, 50
3, 125741, Control_c, 0, 64, 0
3, 125742, Note_on_c, 0, 65, 37
3, 125750, Note_on_c, 0, 60, 29
3, 125782, Control_c, 0, 64, 127
3, 125819, Note_on_c, 0, 82, 0
3, 125822, Note_on_c, 0, 60, 0
3, 125828, Note_on_c, 0, 65, 0
3, 125835, Note_on_c, 0, 70, 0
3, 125851, Note_on_c, 0, 61, 0
3, 125859, Note_on_c, 0, 56, 0
3, 125973, Note_on_c, 0, 77, 51
3, 125978, Control_c, 0, 64, 0
3, 125979, Note_on_c, 0, 65, 38
3, 125980, Note_on_c, 0, 73, 44
3, 125980, Note_on_c, 0, 61, 38
3, 125982, Note_on_c, 0, 70, 40
3, 125990, Note_on_c, 0, 54, 37
3, 125992, Note_on_c, 0, 58, 32
3, 126039, Control_c, 0, 64, 127
3, 126184, Note_on_c, 0, 65, 0
3, 126214, Note_on_c, 0, 70, 0
3, 126229, Note_on_c, 0, 73, 0
3, 126233, Note_on_c, 0, 58, 0
3, 126238, Note_on_c, 0, 77, 0
3, 126241, Note_on_c, 0, 61, 0
3, 126276, Note_on_c, 0, 54, 0
3, 126348, Note_on_c, 0, 87, 73
3, 126348, Note_on_c, 0, 61, 58
3, 126350, Note_on_c, 0, 75, 74
3, 126351, Note_on_c, 0, 58, 56
3, 126352, Note_on_c, 0, 65, 63
3, 126352, Note_on_c, 0, 54, 64
3, 126353, Note_on_c, 0, 82, 71
3, 126390, Note_on_c, 0, 82, 0
3, 126421, Note_on_c, 0, 65, 0
3, 126426, Note_on_c, 0, 87, 0
3, 126427, Note_on_c, 0, 75, 0
3, 126428, Note_on_c, 0, 54, 0
3, 126438, Note_on_c, 0, 58, 0
3, 126440, Note_on_c, 0, 61, 0
3, 126478, Note_on_c, 0, 87, 60
3, 126482, Note_on_c, 0, 75, 58
3, 126485, Note_on_c, 0, 61, 62
3, 126486, Note_on_c, 0, 54, 73
3, 126486, Note_on_c, 0, 58, 62
3, 126486, Note_on_c, 0, 82, 59
3, 126487, Note_on_c, 0, 65, 68
3, 126524, Note_on_c, 0, 65, 0
3, 126536, Note_on_c, 0, 75, 0
3, 126543, Note_on_c, 0, 82, 0
3, 126547, Note_on_c, 0, 54, 0
3, 126552, Note_on_c, 0, 87, 0
3, 126556, Note_on_c, 0, 61, 0
3, 126556, Note_on_c, 0, 58, 0
3, 126603, Note_on_c, 0, 61, 64
3, 126603, Note_on_c, 0, 89, 73
3, 126607, Note_on_c, 0, 54, 70
3, 126607, Note_on_c, 0, 84, 68
3, 126607, Note_on_c, 0, 77, 61
3, 126609, Note_on_c, 0, 65, 64
3, 126609, Note_on_c, 0, 58, 56
3, 126651, Note_on_c, 0, 77, 0
3, 126654, Note_on_c, 0, 65, 0
3, 126662, Note_on_c, 0, 89, 0
3, 126667, Note_on_c, 0, 84, 0
3, 126680, Note_on_c, 0, 54, 0
3, 126686, Note_on_c, 0, 61, 0
3, 126711, Note_on_c, 0, 58, 0
3, 126720, Control_c, 0, 64, 0
3, 126741, Note_on_c, 0, 90, 59
3, 126744, Note_on_c, 0, 78, 48
3, 126744, Note_on_c, 0, 64, 54
3, 126745, Note_on_c, 0, 54, 57
3, 126745, Note_on_c, 0, 85, 60
3, 126749, Note_on_c, 0, 60, 51
3, 126756, Note_on_c, 0, 58, 26
3, 126772, Control_c, 0, 64, 127
3, 126805, Note_on_c, 0, 85, 0
3, 126805, Note_on_c, 0, 78, 0
3, 126817, Note_on_c, 0, 64, 0
3, 126817, Note_on_c, 0, 58, 0
3, 126818, Note_on_c, 0, 90, 0
3, 126821, Note_on_c, 0, 54, 0
3, 126828, Note_on_c, 0, 60, 0
3, 126867, Note_on_c, 0, 92, 63
3, 126871, Note_on_c, 0, 80, 43
3, 126872, Note_on_c, 0, 54, 60
3, 126872, Note_on_c, 0, 87, 59
3, 126875, Note_on_c, 0, 60, 48
3, 126876, Note_on_c, 0, 64, 49
3, 126950, Note_on_c, 0, 92, 0
3, 126955, Note_on_c, 0, 87, 0
3, 126975, Note_on_c, 0, 80, 0
3, 126986, Note_on_c, 0, 54, 0
3, 126987, Note_on_c, 0, 64, 0
3, 127021, Note_on_c, 0, 60, 0
3, 127096, Control_c, 0, 64, 0
3, 127107, Note_on_c, 0, 89, 50
3, 127110, Note_on_c, 0, 54, 51
3, 127110, Note_on_c, 0, 60, 46
3, 127112, Note_on_c, 0, 64, 42
3, 127115, Note_on_c, 0, 84, 45
3, 127116, Note_on_c, 0, 77, 24
3, 127152, Control_c, 0, 64, 127
3, 127241, Note_on_c, 0, 89, 0
3, 127257, Note_on_c, 0, 84, 0
3, 127264, Note_on_c, 0, 77, 0
3, 127289, Note_on_c, 0, 64, 0
3, 127296, Note_on_c, 0, 54, 0
3, 127339, Note_on_c, 0, 60, 0
3, 127413, Note_on_c, 0, 60, 53
3, 127417, Note_on_c, 0, 54, 53
3, 127423, Note_on_c, 0, 87, 55
3, 127424, Note_on_c, 0, 75, 54
3, 127433, Note_on_c, 0, 82, 39
3, 127443, Note_on_c, 0, 60, 0
3, 127460, Note_on_c, 0, 87, 0
3, 127461, Note_on_c, 0, 82, 0
3, 127463, Note_on_c, 0, 75, 0
3, 127473, Note_on_c, 0, 54, 0
3, 127529, Note_on_c, 0, 63, 43
3, 127532, Note_on_c, 0, 58, 45
3, 127532, Note_on_c, 0, 85, 46
3, 127533, Note_on_c, 0, 73, 35
3, 127535, Control_c, 0, 64, 0
3, 127537, Note_on_c, 0, 53, 32
3, 127598, Control_c, 0, 64, 127
3, 127616, Note_on_c, 0, 85, 0
3, 127622, Note_on_c, 0, 73, 0
3, 127789, Note_on_c, 0, 58, 0
3, 127811, Note_on_c, 0, 63, 0
3, 127892, Note_on_c, 0, 63, 40
3, 127893, Note_on_c, 0, 58, 42
3, 128023, Note_on_c, 0, 53, 0
3, 128041, Note_on_c, 0, 58, 0
3, 128047, Note_on_c, 0, 63, 0
3, 128257, Control_c, 0, 64, 0
3, 128261, Note_on_c, 0, 66, 47
3, 128264, Note_on_c, 0, 62, 37
3, 128265, Note_on_c, 0, 56, 40
3, 128266, Note_on_c, 0, 78, 46
3, 128268, Note_on_c, 0, 90, 53
3, 128271, Note_on_c, 0, 85, 50
3, 128320, Note_on_c, 0, 66, 0
3, 128322, Note_on_c, 0, 85, 0
3, 128324, Note_on_c, 0, 78, 0
3, 128324, Note_on_c, 0, 90, 0
3, 128324, Note_on_c, 0, 56, 0
3, 128329, Note_on_c, 0, 62, 0
3, 128442, Note_on_c, 0, 86, 47
3, 128446, Note_on_c, 0, 62, 37
3, 128447, Note_on_c, 0, 91, 40
3, 128448, Note_on_c, 0, 66, 47
3, 128448, Note_on_c, 0, 79, 37
3, 128450, Note_on_c, 0, 56, 44
3, 128479, Control_c, 0, 64, 127
3, 128505, Note_on_c, 0, 79, 0
3, 128517, Note_on_c, 0, 91, 0
3, 128522, Note_on_c, 0, 86, 0
3, 128525, Note_on_c, 0, 66, 0
3, 128528, Note_on_c, 0, 56, 0
3, 128537, Note_on_c, 0, 62, 0
3, 128624, Control_c, 0, 64, 0
3, 128645, Note_on_c, 0, 62, 49
3, 128645, Note_on_c, 0, 66, 48
3, 128646, Note_on_c, 0, 82, 55
3, 128646, Note_on_c, 0, 56, 48
3, 128647, Note_on_c, 0, 94, 60
3, 128671, Control_c, 0, 64, 127
3, 128838, Note_on_c, 0, 62, 0
3, 128852, Note_on_c, 0, 66, 0
3, 128860, Note_on_c, 0, 82, 0
3, 128867, Note_on_c, 0, 94, 0
3, 128892, Note_on_c, 0, 56, 0
3, 129024, Control_c, 0, 64, 0
3, 129046, Control_c, 0, 64, 127
3, 129048, Note_on_c, 0, 61, 50
3, 129048, Note_on_c, 0, 95, 73
3, 129049, Note_on_c, 0, 60, 48
3, 129050, Note_on_c, 0, 65, 58
3, 129050, Note_on_c, 0, 83, 72
3, 129051, Note_on_c, 0, 90, 60
3, 129059, Note_on_c, 0, 55, 46
3, 129097, Note_on_c, 0, 90, 0
3, 129099, Note_on_c, 0, 83, 0
3, 129102, Note_on_c, 0, 65, 0
3, 129107, Note_on_c, 0, 55, 0
3, 129109, Note_on_c, 0, 60, 0
3, 129112, Note_on_c, 0, 95, 0
3, 129120, Note_on_c, 0, 61, 0
3, 129175, Note_on_c, 0, 61, 62
3, 129175, Note_on_c, 0, 60, 72
3, 129175, Note_on_c, 0, 95, 76
3, 129178, Note_on_c, 0, 83, 76
3, 129179, Note_on_c, 0, 90, 69
3, 129179, Note_on_c, 0, 65, 72
3, 129180, Note_on_c, 0, 55, 66
3, 129191, Note_on_c, 0, 58, 26
3, 129205, Note_on_c, 0, 83, 0
3, 129212, Note_on_c, 0, 65, 0
3, 129215, Note_on_c, 0, 58, 0
3, 129217, Note_on_c, 0, 55, 0
3, 129222, Note_on_c, 0, 95, 0
3, 129222, Note_on_c, 0, 90, 0
3, 129227, Note_on_c, 0, 60, 0
3, 129230, Note_on_c, 0, 61, 0
3, 129264, Note_on_c, 0, 60, 68
3, 129264, Note_on_c, 0, 61, 55
3, 129264, Note_on_c, 0, 96, 81
3, 129267, Note_on_c, 0, 65, 71
3, 129268, Note_on_c, 0, 84, 76
3, 129268, Note_on_c, 0, 55, 69
3, 129271, Note_on_c, 0, 93, 69
3, 129326, Note_on_c, 0, 93, 0
3, 129329, Note_on_c, 0, 84, 0
3, 129330, Note_on_c, 0, 65, 0
3, 129337, Note_on_c, 0, 96, 0
3, 129337, Note_on_c, 0, 55, 0
3, 129341, Note_on_c, 0, 60, 0
3, 129341, Note_on_c, 0, 61, 0
3, 129369, Note_on_c, 0, 96, 71
3, 129373, Note_on_c, 0, 84, 65
3, 129374, Note_on_c, 0, 61, 55
3, 129375, Note_on_c, 0, 93, 71
3, 129376, Note_on_c, 0, 60, 68
3, 129380, Note_on_c, 0, 65, 64
3, 129382, Note_on_c, 0, 55, 50
3, 129387, Note_on_c, 0, 84, 0
3, 129387, Note_on_c, 0, 95, 38
3, 129393, Note_on_c, 0, 65, 0
3, 129402, Note_on_c, 0, 55, 0
3, 129403, Note_on_c, 0, 95, 0
3, 129405, Note_on_c, 0, 93, 0
3, 129408, Note_on_c, 0, 96, 0
3, 129412, Note_on_c, 0, 60, 0
3, 129425, Note_on_c, 0, 61, 0
3, 129449, Control_c, 0, 64, 0
3, 129457, Note_on_c, 0, 60, 62
3, 129457, Note_on_c, 0, 61, 50
3, 129457, Note_on_c, 0, 99, 73
3, 129459, Note_on_c, 0, 87, 63
3, 129460, Control_c, 0, 64, 127
3, 129461, Note_on_c, 0, 65, 66
3, 129462, Note_on_c, 0, 55, 69
3, 129529, Note_on_c, 0, 87, 0
3, 129532, Note_on_c, 0, 55, 0
3, 129533, Note_on_c, 0, 65, 0
3, 129538, Note_on_c, 0, 99, 0
3, 129543, Note_on_c, 0, 60, 0
3, 129546, Note_on_c, 0, 61, 0
3, 129572, Note_on_c, 0, 99, 52
3, 129575, Note_on_c, 0, 87, 60
3, 129576, Note_on_c, 0, 61, 56
3, 129581, Note_on_c, 0, 94, 52
3, 129583, Note_on_c, 0, 60, 51
3, 129583, Note_on_c, 0, 65, 63
3, 129585, Note_on_c, 0, 55, 66
3, 129601, Note_on_c, 0, 58, 23
3, 129605, Note_on_c, 0, 60, 0
3, 129616, Note_on_c, 0, 65, 0
3, 129620, Note_on_c, 0, 94, 0
3, 129625, Note_on_c, 0, 87, 0
3, 129629, Note_on_c, 0, 58, 0
3, 129637, Note_on_c, 0, 55, 0
3, 129639, Note_on_c, 0, 61, 0
3, 129641, Note_on_c, 0, 99, 0
3, 129727, Note_on_c, 0, 100, 80
3, 129728, Note_on_c, 0, 88, 78
3, 129728, Note_on_c, 0, 95, 76
3, 129728, Note_on_c, 0, 58, 63
3, 129729, Note_on_c, 0, 65, 80
3, 129730, Note_on_c, 0, 60, 74
3, 129730, Note_on_c, 0, 54, 79
3, 129735, Control_c, 0, 64, 0
3, 129788, Note_on_c, 0, 58, 0
3, 129788, Note_on_c, 0, 88, 0
3, 129788, Control_c, 0, 64, 127
3, 129792, Note_on_c, 0, 100, 0
3, 129793, Note_on_c, 0, 65, 0
3, 129793, Note_on_c, 0, 95, 0
3, 129802, Note_on_c, 0, 54, 0
3, 129803, Note_on_c, 0, 60, 0
3, 129840, Note_on_c, 0, 100, 63
3, 129843, Note_on_c, 0, 54, 69
3, 129843, Note_on_c, 0, 95, 71
3, 129844, Note_on_c, 0, 65, 64
3, 129845, Note_on_c, 0, 88, 57
3, 129846, Note_on_c, 0, 60, 61
3, 129886, Note_on_c, 0, 88, 0
3, 129893, Note_on_c, 0, 65, 0
3, 129900, Note_on_c, 0, 95, 0
3, 129906, Note_on_c, 0, 100, 0
3, 129909, Note_on_c, 0, 54, 0
3, 129912, Note_on_c, 0, 60, 0
3, 129955, Note_on_c, 0, 54, 70
3, 129956, Control_c, 0, 64, 0
3, 129956, Note_on_c, 0, 101, 68
3, 129957, Note_on_c, 0, 60, 59
3, 129957, Note_on_c, 0, 65, 57
3, 129958, Note_on_c, 0, 96, 65
3, 129961, Note_on_c, 0, 89, 53
3, 130005, Control_c, 0, 64, 127
3, 130042, Note_on_c, 0, 89, 0
3, 130056, Note_on_c, 0, 96, 0
3, 130060, Note_on_c, 0, 101, 0
3, 130092, Note_on_c, 0, 65, 0
3, 130095, Note_on_c, 0, 54, 0
3, 130116, Note_on_c, 0, 60, 0
3, 130184, Note_on_c, 0, 104, 64
3, 130186, Note_on_c, 0, 60, 60
3, 130186, Note_on_c, 0, 65, 63
3, 130188, Note_on_c, 0, 99, 55
3, 130189, Note_on_c, 0, 92, 37
3, 130189, Note_on_c, 0, 54, 60
3, 130191, Control_c, 0, 64, 0
3, 130216, Control_c, 0, 64, 127
3, 130255, Note_on_c, 0, 92, 0
3, 130263, Note_on_c, 0, 104, 0
3, 130264, Note_on_c, 0, 65, 0
3, 130270, Note_on_c, 0, 54, 0
3, 130270, Note_on_c, 0, 99, 0
3, 130284, Note_on_c, 0, 60, 0
3, 130316, Note_on_c, 0, 54, 55
3, 130317, Note_on_c, 0, 104, 60
3, 130319, Note_on_c, 0, 65, 49
3, 130320, Note_on_c, 0, 60, 61
3, 130320, Note_on_c, 0, 92, 48
3, 130321, Note_on_c, 0, 99, 52
3, 130335, Note_on_c, 0, 92, 0
3, 130337, Note_on_c, 0, 65, 0
3, 130348, Note_on_c, 0, 104, 0
3, 130350, Note_on_c, 0, 99, 0
3, 130350, Note_on_c, 0, 60, 0
3, 130351, Note_on_c, 0, 54, 0
3, 130373, Control_c, 0, 64, 0
3, 130382, Note_on_c, 0, 54, 67
3, 130383, Note_on_c, 0, 65, 55
3, 130384, Note_on_c, 0, 106, 70
3, 130384, Control_c, 0, 64, 127
3, 130386, Note_on_c, 0, 99, 50
3, 130388, Note_on_c, 0, 94, 50
3, 130388, Note_on_c, 0, 60, 68
3, 130440, Note_on_c, 0, 99, 0
3, 130440, Note_on_c, 0, 65, 0
3, 130453, Note_on_c, 0, 60, 0
3, 130457, Note_on_c, 0, 94, 0
3, 130461, Note_on_c, 0, 106, 0
3, 130485, Note_on_c, 0, 54, 0
3, 130559, Note_on_c, 0, 108, 76
3, 130563, Note_on_c, 0, 63, 48
3, 130563, Note_on_c, 0, 96, 53
3, 130565, Note_on_c, 0, 101, 36
3, 130566, Note_on_c, 0, 58, 54
3, 130566, Note_on_c, 0, 53, 48
3, 130586, Control_c, 0, 64, 0
3, 130676, Control_c, 0, 64, 127
3, 130718, Note_on_c, 0, 108, 0
3, 130733, Note_on_c, 0, 101, 0
3, 130750, Note_on_c, 0, 96, 0
3, 130783, Note_on_c, 0, 63, 0
3, 130864, Note_on_c, 0, 58, 0
3, 130953, Note_on_c, 0, 63, 32
3, 130955, Note_on_c, 0, 58, 34
3, 130965, Control_c, 0, 64, 0
3, 130967, Note_on_c, 0, 70, 51
3, 130985, Note_on_c, 0, 70, 0
3, 130993, Note_on_c, 0, 72, 56
3, 131030, Note_on_c, 0, 70, 42
3, 131040, Note_on_c, 0, 72, 0
3, 131080, Note_on_c, 0, 70, 0
3, 131085, Note_on_c, 0, 69, 48
3, 131101, Note_on_c, 0, 69, 0
3, 131257, Note_on_c, 0, 53, 0
3, 131274, Note_on_c, 0, 58, 0
3, 131298, Note_on_c, 0, 63, 0
3, 131316, Control_c, 0, 64, 127
3, 131353, Control_c, 0, 64, 0
3, 131371, Note_on_c, 0, 65, 38
3, 131376, Note_on_c, 0, 56, 25
3, 131379, Note_on_c, 0, 61, 33
3, 131380, Note_on_c, 0, 60, 33
3, 131497, Note_on_c, 0, 70, 53
3, 131532, Note_on_c, 0, 70, 0
3, 131553, Note_on_c, 0, 71, 43
3, 131576, Note_on_c, 0, 71, 0
3, 131588, Note_on_c, 0, 72, 36
3, 131634, Note_on_c, 0, 73, 42
3, 131638, Note_on_c, 0, 72, 0
3, 131649, Note_on_c, 0, 73, 0
3, 131656, Note_on_c, 0, 74, 42
3, 131707, Note_on_c, 0, 74, 0
3, 131707, Note_on_c, 0, 75, 68
3, 131804, Note_on_c, 0, 65, 0
3, 131875, Note_on_c, 0, 74, 54
3, 131889, Note_on_c, 0, 75, 0
3, 131902, Note_on_c, 0, 73, 64
3, 131913, Note_on_c, 0, 74, 0
3, 131946, Note_on_c, 0, 72, 51
3, 131950, Note_on_c, 0, 73, 0
3, 132024, Note_on_c, 0, 60, 0
3, 132067, Control_c, 0, 64, 127
3, 132080, Note_on_c, 0, 61, 0
3, 132098, Note_on_c, 0, 56, 0
3, 132157, Control_c, 0, 64, 0
3, 132171, Note_on_c, 0, 70, 23
3, 132200, Note_on_c, 0, 72, 0
3, 132505, Note_on_c, 0, 65, 50
3, 132510, Note_on_c, 0, 61, 26
3, 132519, Note_on_c, 0, 58, 25
3, 132520, Note_on_c, 0, 54, 31
3, 132587, Note_on_c, 0, 70, 0
3, 132592, Control_c, 0, 64, 127
3, 132697, Note_on_c, 0, 65, 0
3, 132699, Note_on_c, 0, 63, 46
3, 132705, Note_on_c, 0, 54, 0
3, 132725, Control_c, 0, 64, 0
3, 132762, Note_on_c, 0, 58, 0
3, 132782, Note_on_c, 0, 63, 0
3, 132808, Note_on_c, 0, 65, 65
3, 132812, Note_on_c, 0, 54, 44
3, 132815, Note_on_c, 0, 58, 25
3, 132823, Control_c, 0, 64, 127
3, 132850, Note_on_c, 0, 54, 0
3, 132850, Note_on_c, 0, 65, 0
3, 132854, Note_on_c, 0, 61, 0
3, 132864, Control_c, 0, 64, 0
3, 132871, Note_on_c, 0, 58, 0
3, 132889, Note_on_c, 0, 54, 46
3, 132900, Note_on_c, 0, 66, 49
3, 132903, Note_on_c, 0, 64, 22
3, 132904, Note_on_c, 0, 60, 38
3, 132934, Control_c, 0, 64, 127
3, 132964, Note_on_c, 0, 64, 0
3, 132975, Note_on_c, 0, 54, 0
3, 132981, Note_on_c, 0, 60, 0
3, 133010, Note_on_c, 0, 68, 64
3, 133014, Note_on_c, 0, 54, 40
3, 133018, Note_on_c, 0, 64, 26
3, 133020, Note_on_c, 0, 66, 0
3, 133020, Note_on_c, 0, 60, 36
3, 133030, Control_c, 0, 64, 0
3, 133091, Control_c, 0, 64, 127
3, 133181, Note_on_c, 0, 64, 0
3, 133184, Note_on_c, 0, 60, 0
3, 133195, Note_on_c, 0, 54, 0
3, 133224, Control_c, 0, 64, 0
3, 133250, Control_c, 0, 64, 127
3, 133268, Note_on_c, 0, 68, 0
3, 133380, Note_on_c, 0, 65, 62
3, 133385, Control_c, 0, 64, 0
3, 133389, Note_on_c, 0, 54, 33
3, 133392, Note_on_c, 0, 60, 25
3, 133399, Note_on_c, 0, 58, 25
3, 133410, Note_on_c, 0, 60, 0
3, 133450, Note_on_c, 0, 58, 0
3, 133452, Control_c, 0, 64, 127
3, 133454, Note_on_c, 0, 54, 0
3, 133493, Note_on_c, 0, 65, 0
3, 133506, Note_on_c, 0, 63, 49
3, 133626, Control_c, 0, 64, 0
3, 133632, Note_on_c, 0, 63, 0
3, 133637, Note_on_c, 0, 53, 36
3, 133638, Note_on_c, 0, 60, 52
3, 133647, Note_on_c, 0, 58, 19
3, 133656, Note_on_c, 0, 55, 22
3, 133765, Note_on_c, 0, 72, 66
3, 133786, Note_on_c, 0, 60, 0
3, 133849, Note_on_c, 0, 60, 45
3, 133875, Control_c, 0, 64, 127
3, 133933, Note_on_c, 0, 60, 0
3, 133970, Note_on_c, 0, 53, 0
3, 133974, Note_on_c, 0, 60, 55
3, 134004, Note_on_c, 0, 60, 0
3, 134021, Note_on_c, 0, 58, 0
3, 134042, Note_on_c, 0, 55, 0
3, 134062, Note_on_c, 0, 60, 64
3, 134114, Note_on_c, 0, 60, 0
3, 134207, Control_c, 0, 64, 0
3, 134235, Note_on_c, 0, 58, 84
3, 134237, Note_on_c, 0, 53, 89
3, 134238, Note_on_c, 0, 60, 91
3, 134319, Control_c, 0, 64, 127
3, 134339, Note_on_c, 0, 60, 0
3, 134347, Note_on_c, 0, 53, 0
3, 134351, Note_on_c, 0, 58, 0
3, 134370, Control_c, 0, 64, 0
3, 134377, Note_on_c, 0, 53, 71
3, 134377, Note_on_c, 0, 58, 69
3, 134379, Note_on_c, 0, 60, 57
3, 134413, Note_on_c, 0, 60, 0
3, 134425, Note_on_c, 0, 53, 0
3, 134434, Note_on_c, 0, 58, 0
3, 134511, Note_on_c, 0, 58, 50
3, 134513, Note_on_c, 0, 53, 53
3, 134515, Note_on_c, 0, 60, 55
3, 134527, Note_on_c, 0, 60, 0
3, 134530, Note_on_c, 0, 53, 0
3, 134541, Note_on_c, 0, 58, 0
3, 134639, Note_on_c, 0, 58, 53
3, 134642, Note_on_c, 0, 60, 62
3, 134642, Note_on_c, 0, 53, 60
3, 134705, Control_c, 0, 64, 127
3, 134728, Control_c, 0, 64, 0
3, 134748, Note_on_c, 0, 60, 0
3, 134755, Note_on_c, 0, 53, 0
3, 134760, Note_on_c, 0, 58, 0
3, 134809, Note_on_c, 0, 53, 35
3, 134810, Note_on_c, 0, 58, 42
3, 134812, Note_on_c, 0, 60, 41
3, 134825, Note_on_c, 0, 60, 0
3, 134829, Note_on_c, 0, 53, 0
3, 134838, Note_on_c, 0, 58, 0
3, 134941, Note_on_c, 0, 58, 55
3, 134943, Note_on_c, 0, 60, 63
3, 134945, Note_on_c, 0, 53, 53
3, 134955, Note_on_c, 0, 60, 0
3, 134960, Note_on_c, 0, 53, 0
3, 134970, Note_on_c, 0, 58, 0
3, 135072, Note_on_c, 0, 58, 56
3, 135076, Note_on_c, 0, 53, 59
3, 135077, Note_on_c, 0, 60, 55
3, 135085, Control_c, 0, 64, 127
3, 135092, Note_on_c, 0, 60, 0
3, 135114, Note_on_c, 0, 53, 0
3, 135133, Note_on_c, 0, 58, 0
3, 135193, Control_c, 0, 64, 0
3, 135200, Note_on_c, 0, 52, 49
3, 135204, Note_on_c, 0, 57, 52
3, 135208, Note_on_c, 0, 58, 33
3, 135371, Note_on_c, 0, 72, 0
3, 135375, Control_c, 0, 64, 127
3, 135416, Note_on_c, 0, 58, 0
3, 135545, Note_on_c, 0, 52, 0
3, 135548, Note_on_c, 0, 57, 0
3, 135561, Control_c, 0, 64, 0
3, 135578, Note_on_c, 0, 77, 87
3, 135578, Note_on_c, 0, 53, 73
3, 135579, Note_on_c, 0, 65, 91
3, 135610, Control_c, 0, 64, 127
3, 135704, Note_on_c, 0, 65, 0
3, 135715, Note_on_c, 0, 77, 0
3, 135768, Note_on_c, 0, 53, 0
3, 135774, Note_on_c, 0, 55, 77
3, 135774, Note_on_c, 0, 79, 85
3, 135775, Note_on_c, 0, 67, 87
3, 135781, Control_c, 0, 64, 0
3, 135837, Control_c, 0, 64, 127
3, 135883, Note_on_c, 0, 67, 0
3, 135899, Note_on_c, 0, 79, 0
3, 135948, Control_c, 0, 64, 0
3, 135952, Note_on_c, 0, 55, 0
3, 135958, Note_on_c, 0, 81, 85
3, 135959, Note_on_c, 0, 69, 85
3, 135959, Note_on_c, 0, 57, 73
3, 135990, Control_c, 0, 64, 127
3, 135999, Note_on_c, 0, 57, 0
3, 136011, Note_on_c, 0, 69, 0
3, 136030, Note_on_c, 0, 81, 0
3, 136263, Note_on_c, 0, 60, 80
3, 136267, Note_on_c, 0, 84, 90
3, 136267, Note_on_c, 0, 72, 84
3, 136316, Note_on_c, 0, 72, 0
3, 136317, Control_c, 0, 64, 0
3, 136328, Note_on_c, 0, 84, 0
3, 136353, Note_on_c, 0, 60, 0
3, 136369, Control_c, 0, 64, 127
3, 136374, Note_on_c, 0, 62, 71
3, 136376, Note_on_c, 0, 86, 83
3, 136377, Note_on_c, 0, 74, 83
3, 136419, Note_on_c, 0, 74, 0
3, 136433, Note_on_c, 0, 86, 0
3, 136496, Note_on_c, 0, 62, 0
3, 136631, Note_on_c, 0, 89, 71
3, 136631, Note_on_c, 0, 77, 60
3, 136657, Note_on_c, 0, 77, 0
3, 136674, Note_on_c, 0, 89, 0
3, 136723, Note_on_c, 0, 65, 46
3, 136724, Note_on_c, 0, 62, 34
3, 136727, Note_on_c, 0, 57, 46
3, 136728, Note_on_c, 0, 91, 64
3, 136730, Note_on_c, 0, 79, 60
3, 136733, Control_c, 0, 64, 0
3, 136823, Control_c, 0, 64, 127
3, 136888, Note_on_c, 0, 91, 0
3, 136918, Note_on_c, 0, 79, 0
3, 136936, Note_on_c, 0, 91, 71
3, 136951, Note_on_c, 0, 79, 30
3, 136969, Note_on_c, 0, 79, 0
3, 136993, Note_on_c, 0, 65, 0
3, 137006, Note_on_c, 0, 62, 0
3, 137048, Note_on_c, 0, 91, 0
3, 137103, Note_on_c, 0, 57, 0
3, 137120, Note_on_c, 0, 57, 27
3, 137124, Note_on_c, 0, 62, 46
3, 137125, Note_on_c, 0, 91, 64
3, 137126, Note_on_c, 0, 65, 54
3, 137128, Note_on_c, 0, 86, 62
3, 137131, Note_on_c, 0, 79, 51
3, 137186, Note_on_c, 0, 86, 0
3, 137188, Note_on_c, 0, 79, 0
3, 137189, Note_on_c, 0, 91, 0
3, 137206, Note_on_c, 0, 65, 0
3, 137213, Note_on_c, 0, 57, 0
3, 137216, Note_on_c, 0, 62, 0
3, 137272, Note_on_c, 0, 57, 68
3, 137275, Note_on_c, 0, 62, 53
3, 137275, Note_on_c, 0, 65, 68
3, 137275, Note_on_c, 0, 91, 77
3, 137280, Note_on_c, 0, 79, 79
3, 137281, Note_on_c, 0, 86, 78
3, 137316, Note_on_c, 0, 65, 0
3, 137317, Note_on_c, 0, 79, 0
3, 137326, Note_on_c, 0, 86, 0
3, 137329, Note_on_c, 0, 91, 0
3, 137331, Note_on_c, 0, 62, 0
3, 137331, Note_on_c, 0, 57, 0
3, 137387, Note_on_c, 0, 91, 75
3, 137391, Note_on_c, 0, 57, 66
3, 137392, Note_on_c, 0, 86, 72
3, 137394, Note_on_c, 0, 79, 64
3, 137394, Note_on_c, 0, 62, 46
3, 137395, Note_on_c, 0, 65, 63
3, 137422, Note_on_c, 0, 79, 0
3, 137427, Note_on_c, 0, 86, 0
3, 137440, Note_on_c, 0, 91, 0
3, 137459, Note_on_c, 0, 88, 63
3, 137465, Note_on_c, 0, 57, 0
3, 137479, Note_on_c, 0, 65, 0
3, 137491, Note_on_c, 0, 62, 0
3, 137494, Note_on_c, 0, 88, 0
3, 137519, Note_on_c, 0, 88, 80
3, 137520, Note_on_c, 0, 91, 81
3, 137523, Note_on_c, 0, 56, 83
3, 137523, Note_on_c, 0, 79, 82
3, 137523, Note_on_c, 0, 62, 80
3, 137524, Note_on_c, 0, 67, 83
3, 137526, Control_c, 0, 64, 0
3, 137531, Note_on_c, 0, 84, 68
3, 137597, Control_c, 0, 64, 127
3, 137765, Note_on_c, 0, 56, 0
3, 137767, Note_on_c, 0, 67, 0
3, 137829, Note_on_c, 0, 79, 0
3, 137837, Note_on_c, 0, 62, 0
3, 137838, Note_on_c, 0, 84, 0
3, 137841, Note_on_c, 0, 88, 0
3, 137890, Note_on_c, 0, 91, 0
3, 137931, Note_on_c, 0, 62, 45
3, 137932, Note_on_c, 0, 88, 51
3, 137934, Note_on_c, 0, 56, 47
3, 137935, Note_on_c, 0, 67, 37
3, 137938, Note_on_c, 0, 79, 37
3, 137941, Note_on_c, 0, 84, 43
3, 138135, Note_on_c, 0, 56, 0
3, 138158, Note_on_c, 0, 79, 0
3, 138161, Note_on_c, 0, 67, 0
3, 138169, Note_on_c, 0, 84, 0
3, 138191, Note_on_c, 0, 88, 0
3, 138204, Note_on_c, 0, 62, 0
3, 138215, Note_on_c, 0, 56, 31
3, 138239, Note_on_c, 0, 56, 0
3, 138282, Note_on_c, 0, 60, 28
3, 138288, Note_on_c, 0, 91, 45
3, 138289, Note_on_c, 0, 65, 50
3, 138290, Note_on_c, 0, 79, 36
3, 138291, Note_on_c, 0, 84, 57
3, 138296, Note_on_c, 0, 61, 37
3, 138301, Note_on_c, 0, 55, 41
3, 138307, Control_c, 0, 64, 0
3, 138394, Control_c, 0, 64, 127
3, 138520, Note_on_c, 0, 65, 0
3, 138525, Note_on_c, 0, 60, 0
3, 138561, Note_on_c, 0, 61, 0
3, 138578, Note_on_c, 0, 55, 0
3, 138627, Note_on_c, 0, 61, 40
3, 138631, Note_on_c, 0, 60, 44
3, 138632, Note_on_c, 0, 55, 38
3, 138633, Note_on_c, 0, 65, 46
3, 138650, Note_on_c, 0, 79, 0
3, 138656, Note_on_c, 0, 91, 0
3, 138680, Note_on_c, 0, 84, 0
3, 138688, Note_on_c, 0, 65, 0
3, 138693, Note_on_c, 0, 60, 0
3, 138695, Note_on_c, 0, 55, 0
3, 138695, Note_on_c, 0, 61, 0
3, 138767, Note_on_c, 0, 89, 88
3, 138768, Note_on_c, 0, 77, 88
3, 138769, Note_on_c, 0, 84, 88
3, 138773, Note_on_c, 0, 61, 74
3, 138774, Note_on_c, 0, 60, 78
3, 138777, Note_on_c, 0, 65, 80
3, 138778, Note_on_c, 0, 55, 71
3, 138823, Note_on_c, 0, 65, 0
3, 138826, Note_on_c, 0, 77, 0
3, 138832, Note_on_c, 0, 84, 0
3, 138837, Note_on_c, 0, 55, 0
3, 138838, Note_on_c, 0, 89, 0
3, 138848, Note_on_c, 0, 60, 0
3, 138857, Note_on_c, 0, 61, 0
3, 138891, Note_on_c, 0, 61, 67
3, 138892, Note_on_c, 0, 91, 84
3, 138893, Note_on_c, 0, 84, 89
3, 138894, Note_on_c, 0, 79, 82
3, 138896, Note_on_c, 0, 55, 76
3, 138897, Note_on_c, 0, 65, 76
3, 138910, Note_on_c, 0, 58, 28
3, 138947, Note_on_c, 0, 84, 0
3, 138954, Note_on_c, 0, 91, 0
3, 138959, Note_on_c, 0, 65, 0
3, 138960, Note_on_c, 0, 55, 0
3, 138963, Note_on_c, 0, 79, 0
3, 138964, Note_on_c, 0, 58, 0
3, 138978, Note_on_c, 0, 61, 0
3, 139011, Control_c, 0, 64, 0
3, 139013, Note_on_c, 0, 89, 84
3, 139013, Note_on_c, 0, 82, 75
3, 139016, Note_on_c, 0, 77, 80
3, 139016, Note_on_c, 0, 86, 73
3, 139017, Note_on_c, 0, 65, 78
3, 139019, Note_on_c, 0, 60, 71
3, 139019, Note_on_c, 0, 54, 75
3, 139022, Note_on_c, 0, 58, 51
3, 139074, Control_c, 0, 64, 127
3, 139114, Note_on_c, 0, 89, 0
3, 139115, Note_on_c, 0, 77, 0
3, 139119, Note_on_c, 0, 86, 0
3, 139120, Note_on_c, 0, 65, 0
3, 139123, Note_on_c, 0, 54, 0
3, 139125, Note_on_c, 0, 82, 0
3, 139134, Note_on_c, 0, 60, 0
3, 139137, Note_on_c, 0, 58, 0
3, 139166, Note_on_c, 0, 88, 75
3, 139170, Note_on_c, 0, 82, 77
3, 139171, Note_on_c, 0, 76, 70
3, 139172, Note_on_c, 0, 60, 58
3, 139172, Note_on_c, 0, 65, 70
3, 139173, Note_on_c, 0, 58, 57
3, 139173, Note_on_c, 0, 54, 70
3, 139184, Control_c, 0, 64, 0
3, 139232, Control_c, 0, 64, 127
3, 139322, Note_on_c, 0, 88, 0
3, 139336, Note_on_c, 0, 65, 0
3, 139343, Note_on_c, 0, 58, 0
3, 139352, Note_on_c, 0, 54, 0
3, 139354, Note_on_c, 0, 60, 0
3, 139356, Note_on_c, 0, 82, 0
3, 139364, Note_on_c, 0, 76, 0
3, 139399, Control_c, 0, 64, 0
3, 139417, Note_on_c, 0, 86, 60
3, 139417, Note_on_c, 0, 65, 65
3, 139418, Note_on_c, 0, 81, 66
3, 139420, Note_on_c, 0, 74, 51
3, 139420, Note_on_c, 0, 54, 53
3, 139421, Note_on_c, 0, 60, 59
3, 139423, Note_on_c, 0, 58, 40
3, 139437, Control_c, 0, 64, 127
3, 139473, Note_on_c, 0, 81, 0
3, 139474, Note_on_c, 0, 86, 0
3, 139503, Note_on_c, 0, 74, 0
3, 139503, Note_on_c, 0, 65, 0
3, 139514, Note_on_c, 0, 54, 0
3, 139515, Note_on_c, 0, 58, 0
3, 139520, Note_on_c, 0, 60, 0
3, 139555, Note_on_c, 0, 84, 56
3, 139560, Note_on_c, 0, 79, 62
3, 139561, Note_on_c, 0, 72, 51
3, 139561, Note_on_c, 0, 54, 58
3, 139563, Control_c, 0, 64, 0
3, 139563, Note_on_c, 0, 65, 57
3, 139564, Note_on_c, 0, 60, 59
3, 139566, Note_on_c, 0, 58, 39
3, 139607, Control_c, 0, 64, 127
3, 139625, Note_on_c, 0, 84, 0
3, 139631, Note_on_c, 0, 79, 0
3, 139638, Note_on_c, 0, 65, 0
3, 139639, Note_on_c, 0, 54, 0
3, 139646, Note_on_c, 0, 58, 0
3, 139653, Note_on_c, 0, 72, 0
3, 139655, Note_on_c, 0, 60, 0
3, 139714, Note_on_c, 0, 54, 60
3, 139726, Note_on_c, 0, 58, 31
3, 139755, Note_on_c, 0, 54, 0
3, 139772, Note_on_c, 0, 58, 0
3, 139791, Note_on_c, 0, 73, 69
3, 139794, Note_on_c, 0, 58, 27
3, 139794, Note_on_c, 0, 69, 70
3, 139795, Note_on_c, 0, 81, 65
3, 139797, Control_c, 0, 64, 0
3, 139798, Note_on_c, 0, 62, 52
3, 139798, Note_on_c, 0, 77, 54
3, 139799, Note_on_c, 0, 53, 53
3, 139800, Note_on_c, 0, 57, 55
3, 139833, Note_on_c, 0, 73, 0
3, 139835, Note_on_c, 0, 74, 49
3, 139861, Note_on_c, 0, 69, 0
3, 139880, Control_c, 0, 64, 127
3, 139898, Note_on_c, 0, 69, 34
3, 139913, Note_on_c, 0, 58, 0
3, 139913, Note_on_c, 0, 77, 0
3, 139914, Note_on_c, 0, 81, 0
3, 139920, Note_on_c, 0, 74, 0
3, 139935, Note_on_c, 0, 81, 13
3, 139944, Note_on_c, 0, 69, 0
3, 139952, Note_on_c, 0, 74, 28
3, 139953, Note_on_c, 0, 77, 35
3, 139977, Note_on_c, 0, 74, 0
3, 139980, Note_on_c, 0, 81, 0
3, 139981, Note_on_c, 0, 69, 45
3, 139986, Note_on_c, 0, 77, 0
3, 140019, Note_on_c, 0, 69, 0
3, 140026, Note_on_c, 0, 62, 0
3, 140027, Note_on_c, 0, 77, 37
3, 140033, Note_on_c, 0, 74, 26
3, 140049, Note_on_c, 0, 74, 0
3, 140054, Note_on_c, 0, 77, 0
3, 140056, Note_on_c, 0, 69, 46
3, 140094, Note_on_c, 0, 69, 0
3, 140102, Note_on_c, 0, 81, 24
3, 140111, Note_on_c, 0, 77, 28
3, 140115, Note_on_c, 0, 74, 24
3, 140138, Note_on_c, 0, 74, 0
3, 140139, Note_on_c, 0, 69, 37
3, 140141, Note_on_c, 0, 77, 0
3, 140146, Note_on_c, 0, 81, 0
3, 140178, Note_on_c, 0, 69, 0
3, 140183, Note_on_c, 0, 81, 17
3, 140192, Note_on_c, 0, 77, 40
3, 140194, Note_on_c, 0, 74, 29
3, 140201, Note_on_c, 0, 58, 35
3, 140202, Note_on_c, 0, 62, 43
3, 140221, Note_on_c, 0, 74, 0
3, 140223, Note_on_c, 0, 81, 0
3, 140228, Note_on_c, 0, 77, 0
3, 140228, Note_on_c, 0, 69, 39
3, 140263, Note_on_c, 0, 69, 0
3, 140265, Note_on_c, 0, 62, 0
3, 140278, Note_on_c, 0, 58, 0
3, 140280, Note_on_c, 0, 77, 29
3, 140284, Note_on_c, 0, 74, 24
3, 140312, Note_on_c, 0, 69, 30
3, 140317, Note_on_c, 0, 77, 0
3, 140326, Note_on_c, 0, 74, 0
3, 140359, Note_on_c, 0, 69, 0
3, 140401, Note_on_c, 0, 62, 24
3, 140444, Note_on_c, 0, 62, 0
3, 140515, Note_on_c, 0, 86, 51
3, 140517, Note_on_c, 0, 62, 31
3, 140519, Note_on_c, 0, 58, 28
3, 140521, Note_on_c, 0, 74, 38
3, 140529, Note_on_c, 0, 86, 0
3, 140532, Note_on_c, 0, 53, 0
3, 140541, Note_on_c, 0, 74, 0
3, 140557, Note_on_c, 0, 57, 0
3, 140566, Note_on_c, 0, 62, 0
3, 140619, Note_on_c, 0, 81, 58
3, 140622, Note_on_c, 0, 69, 47
3, 140622, Note_on_c, 0, 62, 39
3, 140628, Control_c, 0, 64, 0
3, 140628, Note_on_c, 0, 74, 51
3, 140798, Note_on_c, 0, 54, 52
3, 140817, Control_c, 0, 64, 127
3, 140912, Note_on_c, 0, 58, 0
3, 140915, Note_on_c, 0, 74, 0
3, 140923, Note_on_c, 0, 62, 0
3, 140927, Note_on_c, 0, 69, 0
3, 141000, Note_on_c, 0, 58, 30
3, 141001, Note_on_c, 0, 69, 35
3, 141003, Note_on_c, 0, 62, 30
3, 141003, Note_on_c, 0, 74, 24
3, 141179, Note_on_c, 0, 69, 0
3, 141180, Note_on_c, 0, 54, 0
3, 141180, Note_on_c, 0, 74, 0
3, 141187, Note_on_c, 0, 81, 0
3, 141273, Note_on_c, 0, 54, 38
3, 141318, Note_on_c, 0, 62, 0
3, 141322, Note_on_c, 0, 54, 0
3, 141353, Control_c, 0, 64, 0
3, 141360, Note_on_c, 0, 70, 37
3, 141360, Note_on_c, 0, 62, 38
3, 141362, Note_on_c, 0, 65, 32
3, 141367, Note_on_c, 0, 53, 34
3, 141432, Control_c, 0, 64, 127
3, 141533, Note_on_c, 0, 65, 0
3, 141551, Note_on_c, 0, 70, 0
3, 141592, Note_on_c, 0, 62, 0
3, 141611, Note_on_c, 0, 58, 0
3, 141708, Note_on_c, 0, 62, 35
3, 141712, Note_on_c, 0, 58, 31
3, 141829, Note_on_c, 0, 81, 69
3, 141831, Note_on_c, 0, 69, 66
3, 141858, Note_on_c, 0, 69, 0
3, 141872, Note_on_c, 0, 81, 0
3, 141892, Note_on_c, 0, 53, 0
3, 141906, Note_on_c, 0, 62, 0
3, 141938, Note_on_c, 0, 58, 0
3, 141957, Note_on_c, 0, 53, 53
3, 141959, Note_on_c, 0, 62, 36
3, 141959, Note_on_c, 0, 84, 79
3, 141960, Note_on_c, 0, 58, 15
3, 141961, Note_on_c, 0, 72, 70
3, 142017, Note_on_c, 0, 72, 0
3, 142018, Note_on_c, 0, 62, 0
3, 142022, Note_on_c, 0, 84, 0
3, 142031, Note_on_c, 0, 53, 0
3, 142057, Note_on_c, 0, 58, 0
3, 142087, Control_c, 0, 64, 0
3, 142098, Note_on_c, 0, 58, 42
3, 142099, Note_on_c, 0, 86, 64
3, 142099, Note_on_c, 0, 74, 62
3, 142100, Note_on_c, 0, 62, 47
3, 142102, Note_on_c, 0, 52, 65
3, 142103, Note_on_c, 0, 79, 45
3, 142139, Control_c, 0, 64, 127
3, 142182, Note_on_c, 0, 82, 3
3, 142204, Note_on_c, 0, 86, 0
3, 142215, Note_on_c, 0, 79, 0
3, 142225, Note_on_c, 0, 82, 0
3, 142239, Note_on_c, 0, 74, 0
3, 142248, Note_on_c, 0, 62, 0
3, 142278, Note_on_c, 0, 58, 0
3, 142402, Note_on_c, 0, 52, 0
3, 142421, Note_on_c, 0, 54, 36
3, 142435, Note_on_c, 0, 55, 48
3, 142453, Note_on_c, 0, 68, 67
3, 142457, Note_on_c, 0, 55, 0
3, 142463, Note_on_c, 0, 62, 37
3, 142463, Note_on_c, 0, 65, 43
3, 142465, Note_on_c, 0, 54, 0
3, 142465, Note_on_c, 0, 59, 37
3, 142466, Note_on_c, 0, 56, 54
3, 142467, Control_c, 0, 64, 0
3, 142483, Note_on_c, 0, 62, 0
3, 142484, Note_on_c, 0, 65, 0
3, 142485, Note_on_c, 0, 59, 0
3, 142496, Note_on_c, 0, 68, 0
3, 142498, Note_on_c, 0, 56, 0
3, 142563, Control_c, 0, 64, 127
3, 142595, Note_on_c, 0, 67, 67
3, 142605, Control_c, 0, 64, 0
3, 142606, Note_on_c, 0, 58, 46
3, 142607, Note_on_c, 0, 61, 42
3, 142609, Note_on_c, 0, 55, 48
3, 142667, Note_on_c, 0, 58, 0
3, 142668, Note_on_c, 0, 67, 0
3, 142668, Note_on_c, 0, 61, 0
3, 142670, Note_on_c, 0, 55, 0
3, 142715, Note_on_c, 0, 61, 50
3, 142715, Note_on_c, 0, 58, 48
3, 142716, Note_on_c, 0, 65, 63
3, 142716, Note_on_c, 0, 52, 41
3, 142731, Control_c, 0, 64, 127
3, 142748, Note_on_c, 0, 52, 0
3, 142770, Note_on_c, 0, 58, 0
3, 142771, Note_on_c, 0, 65, 0
3, 142778, Note_on_c, 0, 61, 0
3, 142866, Control_c, 0, 64, 0
3, 142944, Control_c, 0, 64, 127
3, 142992, Note_on_c, 0, 49, 25
3, 143003, Note_on_c, 0, 61, 50
3, 143005, Note_on_c, 0, 53, 47
3, 143010, Note_on_c, 0, 64, 30
3, 143011, Control_c, 0, 64, 0
3, 143013, Note_on_c, 0, 57, 53
3, 143036, Note_on_c, 0, 57, 0
3, 143036, Note_on_c, 0, 53, 0
3, 143051, Note_on_c, 0, 64, 0
3, 143055, Note_on_c, 0, 61, 0
3, 143084, Note_on_c, 0, 49, 0
3, 143103, Note_on_c, 0, 57, 69
3, 143104, Note_on_c, 0, 67, 61
3, 143115, Note_on_c, 0, 52, 50
3, 143166, Note_on_c, 0, 67, 0
3, 143180, Note_on_c, 0, 57, 0
3, 143182, Note_on_c, 0, 52, 0
3, 143182, Control_c, 0, 64, 127
3, 143215, Note_on_c, 0, 49, 31
3, 143230, Control_c, 0, 64, 0
3, 143265, Note_on_c, 0, 49, 0
3, 143278, Note_on_c, 0, 65, 46
3, 143281, Note_on_c, 0, 57, 40
3, 143284, Note_on_c, 0, 60, 44
3, 143285, Note_on_c, 0, 50, 41
3, 143318, Note_on_c, 0, 60, 0
3, 143319, Control_c, 0, 64, 127
3, 143320, Note_on_c, 0, 65, 0
3, 143339, Note_on_c, 0, 57, 0
3, 143391, Control_c, 0, 64, 0
3, 143398, Note_on_c, 0, 38, 42
3, 143400, Note_on_c, 0, 64, 50
3, 143406, Note_on_c, 0, 57, 42
3, 143410, Note_on_c, 0, 53, 38
3, 143426, Note_on_c, 0, 53, 0
3, 143429, Note_on_c, 0, 57, 0
3, 143439, Note_on_c, 0, 64, 0
3, 143439, Note_on_c, 0, 50, 0
3, 143444, Note_on_c, 0, 38, 0
3, 143634, Note_on_c, 0, 62, 35
3, 143637, Note_on_c, 0, 53, 37
3, 143642, Note_on_c, 0, 60, 44
3, 143643, Note_on_c, 0, 57, 38
3, 143644, Note_on_c, 0, 50, 36
3, 143777, Control_c, 0, 64, 127
3, 143816, Note_on_c, 0, 53, 0
3, 143838, Note_on_c, 0, 57, 0
3, 143851, Note_on_c, 0, 60, 0
3, 143865, Note_on_c, 0, 62, 0
3, 143921, Note_on_c, 0, 50, 0
3, 144003, Note_on_c, 0, 65, 85
3, 144005, Note_on_c, 0, 53, 69
3, 144101, Note_on_c, 0, 65, 0
3, 144136, Note_on_c, 0, 53, 0
3, 144143, Note_on_c, 0, 69, 90
3, 144149, Note_on_c, 0, 57, 70
3, 144217, Note_on_c, 0, 69, 0
3, 144265, Note_on_c, 0, 57, 0
3, 144267, Note_on_c, 0, 72, 88
3, 144277, Note_on_c, 0, 60, 60
3, 144323, Note_on_c, 0, 72, 0
3, 144348, Note_on_c, 0, 60, 0
3, 144405, Note_on_c, 0, 76, 56
3, 144407, Note_on_c, 0, 68, 53
3, 144410, Note_on_c, 0, 71, 56
3, 144411, Note_on_c, 0, 64, 55
3, 144414, Control_c, 0, 64, 0
3, 144415, Note_on_c, 0, 54, 55
3, 144416, Note_on_c, 0, 60, 47
3, 144417, Note_on_c, 0, 74, 38
3, 144540, Control_c, 0, 64, 127
3, 144722, Note_on_c, 0, 60, 0
3, 144724, Note_on_c, 0, 64, 0
3, 144730, Note_on_c, 0, 68, 0
3, 144774, Note_on_c, 0, 71, 0
3, 144798, Note_on_c, 0, 69, 47
3, 144799, Note_on_c, 0, 64, 45
3, 144800, Note_on_c, 0, 60, 34
3, 145070, Note_on_c, 0, 60, 0
3, 145071, Note_on_c, 0, 69, 0
3, 145091, Note_on_c, 0, 64, 0
3, 145178, Note_on_c, 0, 64, 46
3, 145179, Note_on_c, 0, 67, 48
3, 145180, Note_on_c, 0, 60, 43
3, 145183, Control_c, 0, 64, 0
3, 145248, Control_c, 0, 64, 127
3, 145393, Note_on_c, 0, 76, 0
3, 145425, Note_on_c, 0, 60, 0
3, 145441, Note_on_c, 0, 64, 0
3, 145450, Note_on_c, 0, 67, 0
3, 145499, Note_on_c, 0, 74, 0
3, 145549, Note_on_c, 0, 66, 45
3, 145550, Note_on_c, 0, 64, 32
3, 145553, Control_c, 0, 64, 0
3, 145555, Note_on_c, 0, 60, 35
3, 145593, Control_c, 0, 64, 127
3, 145699, Note_on_c, 0, 64, 0
3, 145760, Note_on_c, 0, 54, 0
3, 145789, Note_on_c, 0, 60, 0
3, 145823, Note_on_c, 0, 66, 0
3, 145849, Note_on_c, 0, 74, 55
3, 145937, Note_on_c, 0, 74, 0
3, 145955, Note_on_c, 0, 70, 37
3, 145959, Note_on_c, 0, 62, 34
3, 145960, Note_on_c, 0, 65, 35
3, 145963, Note_on_c, 0, 58, 30
3, 145964, Note_on_c, 0, 67, 37
3, 145965, Note_on_c, 0, 60, 36
3, 145969, Control_c, 0, 64, 0
3, 146070, Control_c, 0, 64, 127
3, 146170, Note_on_c, 0, 60, 0
3, 146178, Note_on_c, 0, 62, 0
3, 146216, Note_on_c, 0, 65, 0
3, 146221, Note_on_c, 0, 67, 0
3, 146242, Note_on_c, 0, 58, 0
3, 146247, Note_on_c, 0, 70, 0
3, 146333, Note_on_c, 0, 70, 65
3, 146333, Note_on_c, 0, 65, 60
3, 146340, Note_on_c, 0, 62, 43
3, 146344, Note_on_c, 0, 58, 40
3, 146448, Note_on_c, 0, 70, 0
3, 146477, Note_on_c, 0, 65, 0
3, 146519, Note_on_c, 0, 70, 62
3, 146554, Note_on_c, 0, 62, 0
3, 146557, Note_on_c, 0, 70, 0
3, 146578, Note_on_c, 0, 58, 0
3, 146660, Note_on_c, 0, 58, 56
3, 146706, Note_on_c, 0, 64, 62
3, 146707, Note_on_c, 0, 68, 74
3, 146711, Note_on_c, 0, 61, 56
3, 146714, Control_c, 0, 64, 0
3, 146717, Note_on_c, 0, 73, 71
3, 146723, Note_on_c, 0, 76, 75
3, 146780, Control_c, 0, 64, 127
3, 146829, Note_on_c, 0, 76, 0
3, 146899, Note_on_c, 0, 76, 78
3, 146958, Note_on_c, 0, 68, 0
3, 146980, Note_on_c, 0, 61, 0
3, 146980, Note_on_c, 0, 64, 0
3, 147002, Note_on_c, 0, 73, 0
3, 147013, Note_on_c, 0, 76, 0
3, 147081, Note_on_c, 0, 64, 54
3, 147087, Note_on_c, 0, 68, 68
3, 147087, Note_on_c, 0, 61, 45
3, 147092, Note_on_c, 0, 73, 64
3, 147100, Note_on_c, 0, 76, 67
3, 147120, Note_on_c, 0, 61, 0
3, 147131, Note_on_c, 0, 58, 0
3, 147199, Note_on_c, 0, 76, 0
3, 147227, Note_on_c, 0, 64, 0
3, 147243, Note_on_c, 0, 73, 0
3, 147280, Note_on_c, 0, 76, 58
3, 147283, Note_on_c, 0, 64, 37
3, 147298, Note_on_c, 0, 64, 0
3, 147328, Note_on_c, 0, 76, 0
3, 147328, Note_on_c, 0, 68, 0
3, 147474, Note_on_c, 0, 41, 47
3, 147476, Control_c, 0, 64, 0
3, 147477, Note_on_c, 0, 67, 63
3, 147478, Note_on_c, 0, 77, 62
3, 147480, Note_on_c, 0, 69, 70
3, 147481, Note_on_c, 0, 72, 60
3, 147484, Note_on_c, 0, 57, 58
3, 147521, Note_on_c, 0, 67, 0
3, 147525, Control_c, 0, 64, 127
3, 147530, Note_on_c, 0, 69, 0
3, 147541, Note_on_c, 0, 72, 0
3, 147561, Note_on_c, 0, 77, 0
3, 147677, Note_on_c, 0, 57, 0
3, 147688, Note_on_c, 0, 48, 58
3, 147696, Note_on_c, 0, 41, 0
3, 147705, Note_on_c, 0, 48, 0
3, 147892, Note_on_c, 0, 86, 85
3, 147893, Note_on_c, 0, 76, 82
3, 147896, Note_on_c, 0, 81, 80
3, 147896, Note_on_c, 0, 70, 76
3, 147990, Note_on_c, 0, 86, 0
3, 147992, Note_on_c, 0, 81, 0
3, 148022, Note_on_c, 0, 76, 0
3, 148054, Note_on_c, 0, 70, 0
3, 148089, Note_on_c, 0, 84, 66
3, 148093, Note_on_c, 0, 79, 66
3, 148094, Note_on_c, 0, 74, 56
3, 148097, Note_on_c, 0, 69, 53
3, 148140, Note_on_c, 0, 84, 0
3, 148141, Note_on_c, 0, 69, 0
3, 148149, Note_on_c, 0, 79, 0
3, 148161, Note_on_c, 0, 74, 0
3, 148288, Note_on_c, 0, 79, 54
3, 148293, Note_on_c, 0, 74, 53
3, 148294, Note_on_c, 0, 69, 54
3, 148303, Note_on_c, 0, 64, 35
3, 148313, Control_c, 0, 64, 0
3, 148325, Control_c, 0, 64, 127
3, 148374, Note_on_c, 0, 74, 0
3, 148377, Note_on_c, 0, 79, 0
3, 148404, Note_on_c, 0, 69, 0
3, 148462, Note_on_c, 0, 64, 0
3, 148476, Note_on_c, 0, 77, 51
3, 148480, Note_on_c, 0, 67, 36
3, 148482, Note_on_c, 0, 72, 58
3, 148482, Note_on_c, 0, 62, 36
3, 148500, Control_c, 0, 64, 0
3, 148507, Control_c, 0, 64, 127
3, 148532, Note_on_c, 0, 77, 0
3, 148536, Note_on_c, 0, 62, 0
3, 148540, Note_on_c, 0, 72, 0
3, 148555, Note_on_c, 0, 67, 0
3, 148668, Note_on_c, 0, 74, 39
3, 148674, Note_on_c, 0, 64, 39
3, 148676, Note_on_c, 0, 69, 59
3, 148679, Note_on_c, 0, 58, 42
3, 148685, Control_c, 0, 64, 0
3, 148723, Control_c, 0, 64, 127
3, 148760, Note_on_c, 0, 69, 0
3, 148764, Note_on_c, 0, 74, 0
3, 148793, Note_on_c, 0, 64, 0
3, 148818, Note_on_c, 0, 58, 0
3, 148864, Note_on_c, 0, 72, 41
3, 148871, Note_on_c, 0, 62, 34
3, 148872, Note_on_c, 0, 67, 38
3, 148877, Note_on_c, 0, 57, 40
3, 148916, Note_on_c, 0, 57, 0
3, 148923, Note_on_c, 0, 72, 0
3, 148934, Note_on_c, 0, 67, 0
3, 148952, Note_on_c, 0, 62, 0
3, 149081, Note_on_c, 0, 67, 38
3, 149082, Note_on_c, 0, 57, 43
3, 149084, Note_on_c, 0, 62, 46
3, 149092, Note_on_c, 0, 52, 36
3, 149099, Control_c, 0, 64, 0
3, 149132, Control_c, 0, 64, 127
3, 149175, Note_on_c, 0, 62, 0
3, 149182, Note_on_c, 0, 67, 0
3, 149206, Note_on_c, 0, 57, 0
3, 149282, Note_on_c, 0, 52, 0
3, 149300, Note_on_c, 0, 64, 36
3, 149302, Note_on_c, 0, 55, 31
3, 149309, Note_on_c, 0, 48, 36
3, 149312, Note_on_c, 0, 60, 35
3, 149315, Note_on_c, 0, 57, 29
3, 149331, Note_on_c, 0, 48, 0
3, 149366, Note_on_c, 0, 60, 0
3, 149366, Note_on_c, 0, 64, 0
3, 149376, Note_on_c, 0, 55, 0
3, 149394, Note_on_c, 0, 57, 0
3, 149515, Note_on_c, 0, 57, 39
3, 149516, Note_on_c, 0, 52, 41
3, 149521, Note_on_c, 0, 62, 28
3, 149534, Control_c, 0, 64, 0
3, 149556, Control_c, 0, 64, 127
3, 149570, Note_on_c, 0, 45, 1
3, 149663, Note_on_c, 0, 45, 0
3, 149741, Note_on_c, 0, 36, 44
3, 149808, Note_on_c, 0, 52, 0
3, 149849, Note_on_c, 0, 57, 0
3, 149877, Note_on_c, 0, 62, 0
3, 150022, Note_on_c, 0, 36, 0
3, 150080, Note_on_c, 0, 29, 36
3, 150094, Note_on_c, 0, 45, 49
3, 150100, Control_c, 0, 64, 0
3, 150190, Control_c, 0, 64, 127
3, 150339, Note_on_c, 0, 29, 0
3, 150380, Note_on_c, 0, 45, 0
3, 151719, Control_c, 0, 64, 0
3, 151719, End_track
4, 0, Start_track
4, 0, MIDI_port, 0
4, 0, Title_t, ""
4, 0, End_track
5, 0, Start_track
5, 0, MIDI_port, 0
5, 0, Title_t, ""
5, 0, Control_c, 2, 7, 127
5, 0, End_track
6, 0, Start_track
6, 0, MIDI_port, 0
6, 0, Title_t, ""
6, 0, End_track
7, 0, Start_track
7, 0, MIDI_port, 0
7, 0, Title_t, ""
7, 0, Program_c, 9, 32
7, 0, Control_c, 9, 7, 78
7, 0, Note_on_c, 9, 37, 59
7, 48, Note_on_c, 9, 37, 0
7, 390, Note_on_c, 9, 37, 68
7, 438, Note_on_c, 9, 37, 0
7, 768, Note_on_c, 9, 37, 66
7, 816, Note_on_c, 9, 37, 0
7, 1152, Note_on_c, 9, 37, 72
7, 1200, Note_on_c, 9, 37, 0
7, 1536, Note_on_c, 9, 28, 41
7, 1536, Note_on_c, 9, 35, 26
7, 1568, Note_on_c, 9, 35, 0
7, 1868, Note_on_c, 9, 28, 0
7, 1908, Note_on_c, 9, 28, 44
7, 1920, Note_on_c, 9, 44, 74
7, 2068, Note_on_c, 9, 44, 0
7, 2216, Note_on_c, 9, 28, 0
7, 2252, Note_on_c, 9, 28, 30
7, 2272, Note_on_c, 9, 28, 0
7, 2304, Note_on_c, 9, 28, 41
7, 2624, Note_on_c, 9, 35, 29
7, 2656, Note_on_c, 9, 35, 0
7, 2668, Note_on_c, 9, 28, 0
7, 2688, Note_on_c, 9, 44, 63
7, 2688, Note_on_c, 9, 35, 33
7, 2696, Note_on_c, 9, 28, 62
7, 2776, Note_on_c, 9, 35, 0
7, 2820, Note_on_c, 9, 44, 0
7, 2832, Note_on_c, 9, 27, 44
7, 2836, Note_on_c, 9, 28, 0
7, 2876, Note_on_c, 9, 27, 0
7, 2880, Note_on_c, 9, 28, 25
7, 3064, Note_on_c, 9, 28, 0
7, 3072, Note_on_c, 9, 35, 28
7, 3092, Note_on_c, 9, 28, 52
7, 3108, Note_on_c, 9, 35, 0
7, 3424, Note_on_c, 9, 28, 0
7, 3456, Note_on_c, 9, 44, 62
7, 3464, Note_on_c, 9, 28, 53
7, 3600, Note_on_c, 9, 44, 0
7, 3756, Note_on_c, 9, 28, 0
7, 3784, Note_on_c, 9, 28, 53
7, 3804, Note_on_c, 9, 28, 0
7, 3836, Note_on_c, 9, 28, 54
7, 4184, Note_on_c, 9, 28, 0
7, 4220, Note_on_c, 9, 28, 57
7, 4224, Note_on_c, 9, 44, 64
7, 4340, Note_on_c, 9, 44, 0
7, 4436, Note_on_c, 9, 35, 40
7, 4476, Note_on_c, 9, 35, 0
7, 4576, Note_on_c, 9, 28, 0
7, 4616, Note_on_c, 9, 28, 55
7, 4632, Note_on_c, 9, 35, 34
7, 4720, Note_on_c, 9, 35, 0
7, 4916, Note_on_c, 9, 28, 0
7, 4940, Note_on_c, 9, 28, 52
7, 4956, Note_on_c, 9, 28, 0
7, 4992, Note_on_c, 9, 44, 59
7, 5004, Note_on_c, 9, 28, 63
7, 5104, Note_on_c, 9, 44, 0
7, 5344, Note_on_c, 9, 28, 0
7, 5384, Note_on_c, 9, 28, 60
7, 5716, Note_on_c, 9, 28, 0
7, 5752, Note_on_c, 9, 28, 50
7, 5760, Note_on_c, 9, 44, 67
7, 5856, Note_on_c, 9, 44, 0
7, 5880, Note_on_c, 9, 25, 70
7, 5884, Note_on_c, 9, 28, 0
7, 5920, Note_on_c, 9, 25, 0
7, 5952, Note_on_c, 9, 28, 34
7, 5952, Note_on_c, 9, 35, 49
7, 6016, Note_on_c, 9, 35, 0
7, 6048, Note_on_c, 9, 28, 0
7, 6076, Note_on_c, 9, 28, 40
7, 6116, Note_on_c, 9, 28, 0
7, 6140, Note_on_c, 9, 35, 43
7, 6148, Note_on_c, 9, 28, 54
7, 6456, Note_on_c, 9, 28, 0
7, 6528, Note_on_c, 9, 44, 64
7, 6528, Note_on_c, 9, 28, 57
7, 6548, Note_on_c, 9, 35, 0
7, 6628, Note_on_c, 9, 44, 0
7, 6832, Note_on_c, 9, 28, 0
7, 6852, Note_on_c, 9, 35, 35
7, 6868, Note_on_c, 9, 35, 0
7, 6868, Note_on_c, 9, 28, 53
7, 6908, Note_on_c, 9, 28, 0
7, 6920, Note_on_c, 9, 35, 35
7, 6940, Note_on_c, 9, 28, 62
7, 7288, Note_on_c, 9, 28, 0
7, 7296, Note_on_c, 9, 46, 55
7, 7304, Note_on_c, 9, 25, 36
7, 7304, Note_on_c, 9, 26, 58
7, 7316, Note_on_c, 9, 35, 0
7, 7396, Note_on_c, 9, 46, 0
7, 7616, Note_on_c, 9, 28, 46
7, 7636, Note_on_c, 9, 35, 24
7, 7644, Note_on_c, 9, 25, 0
7, 7648, Note_on_c, 9, 26, 0
7, 7656, Note_on_c, 9, 35, 0
7, 7660, Note_on_c, 9, 28, 0
7, 7688, Note_on_c, 9, 28, 53
7, 7692, Note_on_c, 9, 35, 41
7, 7700, Note_on_c, 9, 47, 33
7, 7724, Note_on_c, 9, 47, 0
7, 7732, Note_on_c, 9, 35, 0
7, 8036, Note_on_c, 9, 28, 0
7, 8064, Note_on_c, 9, 44, 63
7, 8076, Note_on_c, 9, 28, 47
7, 8160, Note_on_c, 9, 44, 0
7, 8372, Note_on_c, 9, 28, 0
7, 8412, Note_on_c, 9, 28, 44
7, 8448, Note_on_c, 9, 28, 0
7, 8484, Note_on_c, 9, 28, 42
7, 8596, Note_on_c, 9, 28, 0
7, 8596, Note_on_c, 9, 27, 42
7, 8636, Note_on_c, 9, 27, 0
7, 8664, Note_on_c, 9, 28, 42
7, 8820, Note_on_c, 9, 28, 0
7, 8832, Note_on_c, 9, 44, 71
7, 8868, Note_on_c, 9, 28, 48
7, 8936, Note_on_c, 9, 44, 0
7, 9164, Note_on_c, 9, 28, 0
7, 9200, Note_on_c, 9, 35, 47
7, 9216, Note_on_c, 9, 28, 62
7, 9220, Note_on_c, 9, 35, 0
7, 9268, Note_on_c, 9, 35, 54
7, 9276, Note_on_c, 9, 46, 44
7, 9572, Note_on_c, 9, 28, 0
7, 9600, Note_on_c, 9, 44, 62
7, 9612, Note_on_c, 9, 28, 50
7, 9736, Note_on_c, 9, 44, 0
7, 9908, Note_on_c, 9, 28, 0
7, 9940, Note_on_c, 9, 28, 33
7, 9968, Note_on_c, 9, 28, 0
7, 10000, Note_on_c, 9, 28, 38
7, 10008, Note_on_c, 9, 46, 0
7, 10064, Note_on_c, 9, 35, 0
7, 10108, Note_on_c, 9, 28, 0
7, 10120, Note_on_c, 9, 26, 52
7, 10124, Note_on_c, 9, 25, 35
7, 10152, Note_on_c, 9, 26, 0
7, 10156, Note_on_c, 9, 25, 0
7, 10188, Note_on_c, 9, 28, 46
7, 10348, Note_on_c, 9, 28, 0
7, 10368, Note_on_c, 9, 44, 62
7, 10380, Note_on_c, 9, 28, 54
7, 10476, Note_on_c, 9, 44, 0
7, 10484, Note_on_c, 9, 28, 0
7, 10516, Note_on_c, 9, 28, 29
7, 10532, Note_on_c, 9, 28, 0
7, 10560, Note_on_c, 9, 28, 50
7, 10560, Note_on_c, 9, 35, 44
7, 10620, Note_on_c, 9, 35, 0
7, 10656, Note_on_c, 9, 28, 0
7, 10692, Note_on_c, 9, 28, 34
7, 10728, Note_on_c, 9, 28, 0
7, 10752, Note_on_c, 9, 28, 55
7, 10756, Note_on_c, 9, 46, 36
7, 10756, Note_on_c, 9, 35, 44
7, 11108, Note_on_c, 9, 28, 0
7, 11124, Note_on_c, 9, 28, 43
7, 11136, Note_on_c, 9, 44, 67
7, 11176, Note_on_c, 9, 46, 0
7, 11200, Note_on_c, 9, 35, 0
7, 11232, Note_on_c, 9, 44, 0
7, 11340, Note_on_c, 9, 35, 34
7, 11384, Note_on_c, 9, 35, 0
7, 11432, Note_on_c, 9, 28, 0
7, 11464, Note_on_c, 9, 28, 50
7, 11500, Note_on_c, 9, 28, 0
7, 11520, Note_on_c, 9, 46, 48
7, 11520, Note_on_c, 9, 54, 49
7, 11520, Note_on_c, 9, 35, 49
7, 11532, Note_on_c, 9, 28, 62
7, 11644, Note_on_c, 9, 54, 0
7, 11644, Note_on_c, 9, 46, 0
7, 11864, Note_on_c, 9, 28, 0
7, 11904, Note_on_c, 9, 44, 57
7, 11908, Note_on_c, 9, 28, 53
7, 11932, Note_on_c, 9, 35, 0
7, 12016, Note_on_c, 9, 44, 0
7, 12032, Note_on_c, 9, 27, 62
7, 12036, Note_on_c, 9, 28, 0
7, 12072, Note_on_c, 9, 27, 0
7, 12100, Note_on_c, 9, 28, 36
7, 12108, Note_on_c, 9, 35, 45
7, 12128, Note_on_c, 9, 35, 0
7, 12248, Note_on_c, 9, 28, 0
7, 12292, Note_on_c, 9, 54, 62
7, 12292, Note_on_c, 9, 46, 60
7, 12296, Note_on_c, 9, 28, 48
7, 12296, Note_on_c, 9, 35, 57
7, 12344, Note_on_c, 9, 46, 0
7, 12344, Note_on_c, 9, 54, 0
7, 12352, Note_on_c, 9, 35, 0
7, 12624, Note_on_c, 9, 28, 0
7, 12664, Note_on_c, 9, 28, 49
7, 12672, Note_on_c, 9, 44, 63
7, 12768, Note_on_c, 9, 44, 0
7, 12856, Note_on_c, 9, 35, 46
7, 12908, Note_on_c, 9, 35, 0
7, 12968, Note_on_c, 9, 28, 0
7, 13000, Note_on_c, 9, 28, 45
7, 13024, Note_on_c, 9, 28, 0
7, 13060, Note_on_c, 9, 28, 53
7, 13360, Note_on_c, 9, 28, 0
7, 13392, Note_on_c, 9, 28, 36
7, 13412, Note_on_c, 9, 28, 0
7, 13440, Note_on_c, 9, 46, 38
7, 13444, Note_on_c, 9, 28, 43
7, 13444, Note_on_c, 9, 35, 57
7, 13480, Note_on_c, 9, 35, 0
7, 13536, Note_on_c, 9, 46, 0
7, 13728, Note_on_c, 9, 28, 0
7, 13752, Note_on_c, 9, 35, 49
7, 13756, Note_on_c, 9, 28, 41
7, 13768, Note_on_c, 9, 35, 0
7, 13780, Note_on_c, 9, 28, 0
7, 13816, Note_on_c, 9, 28, 49
7, 13816, Note_on_c, 9, 54, 63
7, 13820, Note_on_c, 9, 46, 62
7, 13828, Note_on_c, 9, 35, 67
7, 13980, Note_on_c, 9, 46, 0
7, 13980, Note_on_c, 9, 54, 0
7, 14032, Note_on_c, 9, 35, 0
7, 14176, Note_on_c, 9, 28, 0
7, 14208, Note_on_c, 9, 44, 58
7, 14208, Note_on_c, 9, 28, 51
7, 14304, Note_on_c, 9, 44, 0
7, 14420, Note_on_c, 9, 35, 17
7, 14484, Note_on_c, 9, 35, 0
7, 14572, Note_on_c, 9, 28, 0
7, 14604, Note_on_c, 9, 28, 55
7, 14604, Note_on_c, 9, 35, 39
7, 14688, Note_on_c, 9, 35, 0
7, 14956, Note_on_c, 9, 28, 0
7, 14976, Note_on_c, 9, 44, 60
7, 14988, Note_on_c, 9, 28, 55
7, 15072, Note_on_c, 9, 44, 0
7, 15164, Note_on_c, 9, 25, 50
7, 15196, Note_on_c, 9, 25, 0
7, 15312, Note_on_c, 9, 28, 0
7, 15356, Note_on_c, 9, 28, 53
7, 15716, Note_on_c, 9, 28, 0
7, 15744, Note_on_c, 9, 44, 63
7, 15748, Note_on_c, 9, 28, 52
7, 15840, Note_on_c, 9, 44, 0
7, 15936, Note_on_c, 9, 28, 0
7, 15936, Note_on_c, 9, 25, 42
7, 15948, Note_on_c, 9, 26, 40
7, 16128, Note_on_c, 9, 28, 57
7, 16144, Note_on_c, 9, 25, 0
7, 16152, Note_on_c, 9, 26, 0
7, 16488, Note_on_c, 9, 28, 0
7, 16512, Note_on_c, 9, 44, 62
7, 16516, Note_on_c, 9, 28, 52
7, 16612, Note_on_c, 9, 44, 0
7, 16640, Note_on_c, 9, 32, 35
7, 16700, Note_on_c, 9, 32, 0
7, 16788, Note_on_c, 9, 32, 36
7, 16816, Note_on_c, 9, 28, 0
7, 16848, Note_on_c, 9, 28, 33
7, 16864, Note_on_c, 9, 32, 0
7, 16868, Note_on_c, 9, 28, 0
7, 16896, Note_on_c, 9, 28, 56
7, 16920, Note_on_c, 9, 35, 39
7, 17032, Note_on_c, 9, 35, 0
7, 17224, Note_on_c, 9, 28, 0
7, 17276, Note_on_c, 9, 28, 57
7, 17280, Note_on_c, 9, 44, 63
7, 17376, Note_on_c, 9, 44, 0
7, 17592, Note_on_c, 9, 28, 0
7, 17620, Note_on_c, 9, 28, 35
7, 17640, Note_on_c, 9, 28, 0
7, 17668, Note_on_c, 9, 28, 45
7, 17708, Note_on_c, 9, 35, 26
7, 17724, Note_on_c, 9, 35, 0
7, 17796, Note_on_c, 9, 28, 0
7, 17800, Note_on_c, 9, 27, 69
7, 17832, Note_on_c, 9, 27, 0
7, 17864, Note_on_c, 9, 28, 27
7, 18012, Note_on_c, 9, 28, 0
7, 18048, Note_on_c, 9, 44, 67
7, 18056, Note_on_c, 9, 28, 45
7, 18144, Note_on_c, 9, 44, 0
7, 18236, Note_on_c, 9, 35, 36
7, 18300, Note_on_c, 9, 35, 0
7, 18392, Note_on_c, 9, 28, 0
7, 18440, Note_on_c, 9, 28, 53
7, 18440, Note_on_c, 9, 35, 49
7, 18492, Note_on_c, 9, 35, 0
7, 18748, Note_on_c, 9, 28, 0
7, 18804, Note_on_c, 9, 28, 54
7, 18816, Note_on_c, 9, 44, 63
7, 18916, Note_on_c, 9, 44, 0
7, 19152, Note_on_c, 9, 28, 0
7, 19152, Note_on_c, 9, 27, 61
7, 19188, Note_on_c, 9, 27, 0
7, 19216, Note_on_c, 9, 28, 53
7, 19544, Note_on_c, 9, 28, 0
7, 19584, Note_on_c, 9, 44, 67
7, 19588, Note_on_c, 9, 28, 54
7, 19696, Note_on_c, 9, 44, 0
7, 19884, Note_on_c, 9, 28, 0
7, 19912, Note_on_c, 9, 35, 37
7, 19916, Note_on_c, 9, 28, 43
7, 19932, Note_on_c, 9, 35, 0
7, 19952, Note_on_c, 9, 28, 0
7, 19972, Note_on_c, 9, 28, 45
7, 19984, Note_on_c, 9, 46, 37
7, 19988, Note_on_c, 9, 35, 35
7, 20024, Note_on_c, 9, 46, 0
7, 20052, Note_on_c, 9, 35, 0
7, 20320, Note_on_c, 9, 28, 0
7, 20352, Note_on_c, 9, 44, 64
7, 20356, Note_on_c, 9, 28, 52
7, 20464, Note_on_c, 9, 44, 0
7, 20660, Note_on_c, 9, 28, 0
7, 20688, Note_on_c, 9, 28, 51
7, 20724, Note_on_c, 9, 28, 0
7, 20744, Note_on_c, 9, 28, 37
7, 21080, Note_on_c, 9, 28, 0
7, 21120, Note_on_c, 9, 44, 67
7, 21128, Note_on_c, 9, 28, 57
7, 21240, Note_on_c, 9, 44, 0
7, 21384, Note_on_c, 9, 28, 0
7, 21428, Note_on_c, 9, 28, 44
7, 21460, Note_on_c, 9, 28, 0
7, 21492, Note_on_c, 9, 28, 56
7, 21504, Note_on_c, 9, 35, 35
7, 21560, Note_on_c, 9, 35, 0
7, 21844, Note_on_c, 9, 28, 0
7, 21876, Note_on_c, 9, 28, 49
7, 21888, Note_on_c, 9, 44, 69
7, 21988, Note_on_c, 9, 44, 0
7, 21996, Note_on_c, 9, 28, 0
7, 22000, Note_on_c, 9, 27, 42
7, 22056, Note_on_c, 9, 27, 0
7, 22064, Note_on_c, 9, 53, 41
7, 22068, Note_on_c, 9, 28, 38
7, 22092, Note_on_c, 9, 53, 0
7, 22188, Note_on_c, 9, 28, 0
7, 22192, Note_on_c, 9, 27, 50
7, 22228, Note_on_c, 9, 27, 0
7, 22256, Note_on_c, 9, 28, 39
7, 22436, Note_on_c, 9, 35, 51
7, 22492, Note_on_c, 9, 35, 0
7, 22612, Note_on_c, 9, 28, 0
7, 22648, Note_on_c, 9, 28, 49
7, 22656, Note_on_c, 9, 44, 68
7, 22768, Note_on_c, 9, 44, 0
7, 22780, Note_on_c, 9, 28, 0
7, 22788, Note_on_c, 9, 27, 43
7, 22808, Note_on_c, 9, 27, 0
7, 22848, Note_on_c, 9, 28, 46
7, 22984, Note_on_c, 9, 35, 37
7, 23000, Note_on_c, 9, 28, 0
7, 23012, Note_on_c, 9, 35, 0
7, 23040, Note_on_c, 9, 28, 49
7, 23060, Note_on_c, 9, 35, 44
7, 23148, Note_on_c, 9, 35, 0
7, 23248, Note_on_c, 9, 35, 47
7, 23324, Note_on_c, 9, 35, 0
7, 23392, Note_on_c, 9, 28, 0
7, 23424, Note_on_c, 9, 44, 69
7, 23432, Note_on_c, 9, 28, 51
7, 23440, Note_on_c, 9, 46, 33
7, 23444, Note_on_c, 9, 53, 38
7, 23500, Note_on_c, 9, 46, 0
7, 23512, Note_on_c, 9, 53, 0
7, 23544, Note_on_c, 9, 44, 0
7, 23712, Note_on_c, 9, 28, 0
7, 23764, Note_on_c, 9, 28, 55
7, 23764, Note_on_c, 9, 35, 36
7, 23788, Note_on_c, 9, 35, 0
7, 23804, Note_on_c, 9, 28, 0
7, 23828, Note_on_c, 9, 28, 70
7, 23836, Note_on_c, 9, 35, 44
7, 24004, Note_on_c, 9, 35, 0
7, 24164, Note_on_c, 9, 28, 0
7, 24192, Note_on_c, 9, 44, 64
7, 24200, Note_on_c, 9, 28, 51
7, 24200, Note_on_c, 9, 53, 43
7, 24200, Note_on_c, 9, 46, 35
7, 24260, Note_on_c, 9, 53, 0
7, 24276, Note_on_c, 9, 46, 0
7, 24312, Note_on_c, 9, 44, 0
7, 24328, Note_on_c, 9, 25, 48
7, 24332, Note_on_c, 9, 28, 0
7, 24364, Note_on_c, 9, 25, 0
7, 24392, Note_on_c, 9, 28, 46
7, 24512, Note_on_c, 9, 35, 38
7, 24528, Note_on_c, 9, 35, 0
7, 24556, Note_on_c, 9, 28, 0
7, 24584, Note_on_c, 9, 35, 57
7, 24588, Note_on_c, 9, 28, 57
7, 24636, Note_on_c, 9, 35, 0
7, 24920, Note_on_c, 9, 28, 0
7, 24952, Note_on_c, 9, 28, 53
7, 24960, Note_on_c, 9, 44, 67
7, 24976, Note_on_c, 9, 46, 33
7, 24976, Note_on_c, 9, 53, 47
7, 25024, Note_on_c, 9, 53, 0
7, 25028, Note_on_c, 9, 46, 0
7, 25088, Note_on_c, 9, 44, 0
7, 25244, Note_on_c, 9, 28, 0
7, 25280, Note_on_c, 9, 35, 35
7, 25288, Note_on_c, 9, 28, 44
7, 25304, Note_on_c, 9, 35, 0
7, 25324, Note_on_c, 9, 28, 0
7, 25344, Note_on_c, 9, 28, 38
7, 25348, Note_on_c, 9, 35, 47
7, 25392, Note_on_c, 9, 35, 0
7, 25640, Note_on_c, 9, 28, 0
7, 25668, Note_on_c, 9, 28, 49
7, 25692, Note_on_c, 9, 28, 0
7, 25716, Note_on_c, 9, 46, 29
7, 25720, Note_on_c, 9, 53, 42
7, 25728, Note_on_c, 9, 46, 50
7, 25728, Note_on_c, 9, 28, 50
7, 25760, Note_on_c, 9, 53, 0
7, 25768, Note_on_c, 9, 46, 0
7, 25828, Note_on_c, 9, 46, 0
7, 26016, Note_on_c, 9, 28, 0
7, 26056, Note_on_c, 9, 28, 38
7, 26060, Note_on_c, 9, 35, 24
7, 26076, Note_on_c, 9, 35, 0
7, 26080, Note_on_c, 9, 28, 0
7, 26120, Note_on_c, 9, 28, 56
7, 26124, Note_on_c, 9, 35, 37
7, 26184, Note_on_c, 9, 35, 0
7, 26448, Note_on_c, 9, 28, 0
7, 26496, Note_on_c, 9, 44, 64
7, 26496, Note_on_c, 9, 28, 60
7, 26592, Note_on_c, 9, 44, 0
7, 26616, Note_on_c, 9, 28, 0
7, 26616, Note_on_c, 9, 27, 57
7, 26644, Note_on_c, 9, 27, 0
7, 26680, Note_on_c, 9, 28, 44
7, 26700, Note_on_c, 9, 35, 22
7, 26744, Note_on_c, 9, 35, 0
7, 26828, Note_on_c, 9, 28, 0
7, 26876, Note_on_c, 9, 28, 51
7, 26876, Note_on_c, 9, 35, 44
7, 26936, Note_on_c, 9, 35, 0
7, 27220, Note_on_c, 9, 28, 0
7, 27256, Note_on_c, 9, 28, 53
7, 27264, Note_on_c, 9, 44, 67
7, 27376, Note_on_c, 9, 44, 0
7, 27624, Note_on_c, 9, 28, 0
7, 27660, Note_on_c, 9, 28, 52
7, 27668, Note_on_c, 9, 46, 31
7, 27672, Note_on_c, 9, 35, 34
7, 27700, Note_on_c, 9, 46, 0
7, 27712, Note_on_c, 9, 35, 0
7, 27988, Note_on_c, 9, 28, 0
7, 28032, Note_on_c, 9, 44, 64
7, 28044, Note_on_c, 9, 28, 55
7, 28144, Note_on_c, 9, 44, 0
7, 28256, Note_on_c, 9, 35, 47
7, 28308, Note_on_c, 9, 35, 0
7, 28384, Note_on_c, 9, 28, 0
7, 28424, Note_on_c, 9, 28, 53
7, 28456, Note_on_c, 9, 35, 47
7, 28492, Note_on_c, 9, 35, 0
7, 28772, Note_on_c, 9, 28, 0
7, 28800, Note_on_c, 9, 44, 63
7, 28804, Note_on_c, 9, 28, 47
7, 28896, Note_on_c, 9, 44, 0
7, 28916, Note_on_c, 9, 28, 0
7, 28920, Note_on_c, 9, 27, 39
7, 28948, Note_on_c, 9, 27, 0
7, 28980, Note_on_c, 9, 28, 44
7, 29148, Note_on_c, 9, 28, 0
7, 29188, Note_on_c, 9, 28, 47
7, 29516, Note_on_c, 9, 28, 0
7, 29560, Note_on_c, 9, 28, 50
7, 29568, Note_on_c, 9, 44, 63
7, 29664, Note_on_c, 9, 44, 0
7, 29736, Note_on_c, 9, 28, 0
7, 29752, Note_on_c, 9, 35, 37
7, 29764, Note_on_c, 9, 28, 50
7, 29792, Note_on_c, 9, 35, 0
7, 29884, Note_on_c, 9, 28, 0
7, 29904, Note_on_c, 9, 28, 41
7, 29936, Note_on_c, 9, 28, 0
7, 29960, Note_on_c, 9, 35, 35
7, 29964, Note_on_c, 9, 28, 64
7, 30060, Note_on_c, 9, 35, 0
7, 30280, Note_on_c, 9, 28, 0
7, 30336, Note_on_c, 9, 44, 63
7, 30336, Note_on_c, 9, 28, 58
7, 30436, Note_on_c, 9, 44, 0
7, 30632, Note_on_c, 9, 28, 0
7, 30664, Note_on_c, 9, 28, 43
7, 30684, Note_on_c, 9, 28, 0
7, 30724, Note_on_c, 9, 28, 51
7, 30728, Note_on_c, 9, 35, 34
7, 30812, Note_on_c, 9, 35, 0
7, 31068, Note_on_c, 9, 28, 0
7, 31104, Note_on_c, 9, 44, 62
7, 31112, Note_on_c, 9, 28, 57
7, 31200, Note_on_c, 9, 44, 0
7, 31404, Note_on_c, 9, 28, 0
7, 31440, Note_on_c, 9, 28, 36
7, 31472, Note_on_c, 9, 28, 0
7, 31512, Note_on_c, 9, 28, 54
7, 31520, Note_on_c, 9, 35, 44
7, 31556, Note_on_c, 9, 35, 0
7, 31824, Note_on_c, 9, 28, 0
7, 31872, Note_on_c, 9, 44, 67
7, 31880, Note_on_c, 9, 28, 55
7, 31968, Note_on_c, 9, 44, 0
7, 32208, Note_on_c, 9, 28, 0
7, 32248, Note_on_c, 9, 28, 52
7, 32260, Note_on_c, 9, 35, 58
7, 32284, Note_on_c, 9, 35, 0
7, 32604, Note_on_c, 9, 28, 0
7, 32640, Note_on_c, 9, 44, 60
7, 32648, Note_on_c, 9, 28, 45
7, 32744, Note_on_c, 9, 44, 0
7, 32832, Note_on_c, 9, 35, 44
7, 32852, Note_on_c, 9, 35, 0
7, 32964, Note_on_c, 9, 28, 0
7, 33012, Note_on_c, 9, 28, 49
7, 33020, Note_on_c, 9, 46, 48
7, 33024, Note_on_c, 9, 35, 47
7, 33048, Note_on_c, 9, 46, 0
7, 33052, Note_on_c, 9, 35, 0
7, 33208, Note_on_c, 9, 28, 0
7, 33208, Note_on_c, 9, 26, 50
7, 33212, Note_on_c, 9, 25, 36
7, 33408, Note_on_c, 9, 44, 63
7, 33412, Note_on_c, 9, 28, 50
7, 33416, Note_on_c, 9, 25, 0
7, 33416, Note_on_c, 9, 26, 0
7, 33528, Note_on_c, 9, 44, 0
7, 33568, Note_on_c, 9, 28, 0
7, 33608, Note_on_c, 9, 28, 50
7, 33768, Note_on_c, 9, 28, 0
7, 33804, Note_on_c, 9, 28, 55
7, 33816, Note_on_c, 9, 35, 56
7, 33856, Note_on_c, 9, 35, 0
7, 34148, Note_on_c, 9, 28, 0
7, 34176, Note_on_c, 9, 44, 60
7, 34180, Note_on_c, 9, 28, 51
7, 34272, Note_on_c, 9, 44, 0
7, 34288, Note_on_c, 9, 28, 0
7, 34288, Note_on_c, 9, 25, 53
7, 34292, Note_on_c, 9, 26, 59
7, 34340, Note_on_c, 9, 26, 0
7, 34344, Note_on_c, 9, 25, 0
7, 34356, Note_on_c, 9, 28, 45
7, 34512, Note_on_c, 9, 28, 0
7, 34544, Note_on_c, 9, 35, 46
7, 34552, Note_on_c, 9, 28, 45
7, 34612, Note_on_c, 9, 35, 0
7, 34748, Note_on_c, 9, 35, 45
7, 34812, Note_on_c, 9, 35, 0
7, 34912, Note_on_c, 9, 28, 0
7, 34940, Note_on_c, 9, 46, 23
7, 34940, Note_on_c, 9, 53, 35
7, 34944, Note_on_c, 9, 46, 56
7, 34944, Note_on_c, 9, 28, 50
7, 34988, Note_on_c, 9, 46, 0
7, 35000, Note_on_c, 9, 53, 0
7, 35040, Note_on_c, 9, 28, 0
7, 35044, Note_on_c, 9, 46, 0
7, 35060, Note_on_c, 9, 27, 38
7, 35064, Note_on_c, 9, 26, 39
7, 35104, Note_on_c, 9, 27, 0
7, 35116, Note_on_c, 9, 26, 0
7, 35136, Note_on_c, 9, 28, 35
7, 35236, Note_on_c, 9, 28, 0
7, 35248, Note_on_c, 9, 26, 64
7, 35248, Note_on_c, 9, 27, 56
7, 35268, Note_on_c, 9, 35, 20
7, 35280, Note_on_c, 9, 26, 0
7, 35284, Note_on_c, 9, 35, 0
7, 35284, Note_on_c, 9, 27, 0
7, 35324, Note_on_c, 9, 28, 46
7, 35332, Note_on_c, 9, 35, 36
7, 35420, Note_on_c, 9, 35, 0
7, 35520, Note_on_c, 9, 35, 49
7, 35608, Note_on_c, 9, 35, 0
7, 35652, Note_on_c, 9, 28, 0
7, 35692, Note_on_c, 9, 28, 42
7, 35712, Note_on_c, 9, 44, 59
7, 35808, Note_on_c, 9, 44, 0
7, 35812, Note_on_c, 9, 28, 0
7, 35888, Note_on_c, 9, 28, 55
7, 36056, Note_on_c, 9, 28, 0
7, 36088, Note_on_c, 9, 28, 51
7, 36096, Note_on_c, 9, 35, 28
7, 36152, Note_on_c, 9, 35, 0
7, 36428, Note_on_c, 9, 28, 0
7, 36464, Note_on_c, 9, 28, 50
7, 36480, Note_on_c, 9, 44, 60
7, 36568, Note_on_c, 9, 28, 0
7, 36576, Note_on_c, 9, 44, 0
7, 36576, Note_on_c, 9, 27, 46
7, 36588, Note_on_c, 9, 26, 31
7, 36620, Note_on_c, 9, 26, 0
7, 36632, Note_on_c, 9, 27, 0
7, 36652, Note_on_c, 9, 28, 41
7, 36664, Note_on_c, 9, 35, 35
7, 36708, Note_on_c, 9, 35, 0
7, 36760, Note_on_c, 9, 28, 0
7, 36784, Note_on_c, 9, 28, 30
7, 36812, Note_on_c, 9, 28, 0
7, 36852, Note_on_c, 9, 28, 49
7, 36852, Note_on_c, 9, 35, 49
7, 36888, Note_on_c, 9, 35, 0
7, 37208, Note_on_c, 9, 28, 0
7, 37240, Note_on_c, 9, 28, 60
7, 37248, Note_on_c, 9, 44, 62
7, 37344, Note_on_c, 9, 44, 0
7, 37364, Note_on_c, 9, 27, 55
7, 37372, Note_on_c, 9, 28, 0
7, 37456, Note_on_c, 9, 35, 35
7, 37508, Note_on_c, 9, 35, 0
7, 37532, Note_on_c, 9, 27, 0
7, 37540, Note_on_c, 9, 28, 45
7, 37572, Note_on_c, 9, 28, 0
7, 37612, Note_on_c, 9, 28, 50
7, 37636, Note_on_c, 9, 35, 47
7, 37696, Note_on_c, 9, 35, 0
7, 37936, Note_on_c, 9, 28, 0
7, 38012, Note_on_c, 9, 28, 45
7, 38016, Note_on_c, 9, 44, 64
7, 38016, Note_on_c, 9, 53, 44
7, 38020, Note_on_c, 9, 46, 39
7, 38064, Note_on_c, 9, 53, 0
7, 38068, Note_on_c, 9, 46, 0
7, 38132, Note_on_c, 9, 44, 0
7, 38140, Note_on_c, 9, 27, 40
7, 38148, Note_on_c, 9, 26, 36
7, 38160, Note_on_c, 9, 28, 0
7, 38328, Note_on_c, 9, 35, 45
7, 38348, Note_on_c, 9, 35, 0
7, 38396, Note_on_c, 9, 35, 48
7, 38400, Note_on_c, 9, 27, 0
7, 38404, Note_on_c, 9, 26, 0
7, 38408, Note_on_c, 9, 28, 54
7, 38492, Note_on_c, 9, 35, 0
7, 38592, Note_on_c, 9, 35, 57
7, 38664, Note_on_c, 9, 35, 0
7, 38772, Note_on_c, 9, 28, 0
7, 38784, Note_on_c, 9, 44, 69
7, 38804, Note_on_c, 9, 28, 48
7, 38880, Note_on_c, 9, 44, 0
7, 39088, Note_on_c, 9, 35, 42
7, 39100, Note_on_c, 9, 28, 0
7, 39112, Note_on_c, 9, 35, 0
7, 39128, Note_on_c, 9, 28, 41
7, 39144, Note_on_c, 9, 28, 0
7, 39160, Note_on_c, 9, 53, 55
7, 39164, Note_on_c, 9, 46, 30
7, 39184, Note_on_c, 9, 28, 51
7, 39348, Note_on_c, 9, 53, 0
7, 39368, Note_on_c, 9, 46, 0
7, 39520, Note_on_c, 9, 28, 0
7, 39548, Note_on_c, 9, 28, 53
7, 39552, Note_on_c, 9, 44, 61
7, 39568, Note_on_c, 9, 53, 44
7, 39568, Note_on_c, 9, 46, 29
7, 39624, Note_on_c, 9, 53, 0
7, 39632, Note_on_c, 9, 46, 0
7, 39668, Note_on_c, 9, 44, 0
7, 39776, Note_on_c, 9, 35, 28
7, 39800, Note_on_c, 9, 35, 0
7, 39848, Note_on_c, 9, 28, 0
7, 39888, Note_on_c, 9, 28, 42
7, 39904, Note_on_c, 9, 28, 0
7, 39940, Note_on_c, 9, 28, 51
7, 39956, Note_on_c, 9, 35, 51
7, 39992, Note_on_c, 9, 35, 0
7, 40056, Note_on_c, 9, 28, 0
7, 40060, Note_on_c, 9, 27, 50
7, 40068, Note_on_c, 9, 26, 46
7, 40088, Note_on_c, 9, 26, 0
7, 40100, Note_on_c, 9, 27, 0
7, 40132, Note_on_c, 9, 28, 39
7, 40288, Note_on_c, 9, 28, 0
7, 40320, Note_on_c, 9, 44, 59
7, 40320, Note_on_c, 9, 28, 49
7, 40336, Note_on_c, 9, 46, 42
7, 40336, Note_on_c, 9, 53, 40
7, 40388, Note_on_c, 9, 53, 0
7, 40392, Note_on_c, 9, 46, 0
7, 40416, Note_on_c, 9, 44, 0
7, 40612, Note_on_c, 9, 28, 0
7, 40632, Note_on_c, 9, 35, 38
7, 40652, Note_on_c, 9, 35, 0
7, 40652, Note_on_c, 9, 28, 24
7, 40668, Note_on_c, 9, 28, 0
7, 40700, Note_on_c, 9, 28, 62
7, 40708, Note_on_c, 9, 35, 45
7, 40752, Note_on_c, 9, 35, 0
7, 41052, Note_on_c, 9, 28, 0
7, 41088, Note_on_c, 9, 44, 63
7, 41092, Note_on_c, 9, 28, 56
7, 41096, Note_on_c, 9, 53, 45
7, 41100, Note_on_c, 9, 46, 30
7, 41148, Note_on_c, 9, 53, 0
7, 41152, Note_on_c, 9, 46, 0
7, 41188, Note_on_c, 9, 44, 0
7, 41292, Note_on_c, 9, 35, 48
7, 41356, Note_on_c, 9, 35, 0
7, 41364, Note_on_c, 9, 28, 0
7, 41408, Note_on_c, 9, 28, 37
7, 41424, Note_on_c, 9, 28, 0
7, 41460, Note_on_c, 9, 28, 55
7, 41488, Note_on_c, 9, 35, 38
7, 41512, Note_on_c, 9, 35, 0
7, 41812, Note_on_c, 9, 28, 0
7, 41844, Note_on_c, 9, 28, 54
7, 41856, Note_on_c, 9, 46, 43
7, 41952, Note_on_c, 9, 46, 0
7, 42148, Note_on_c, 9, 28, 0
7, 42180, Note_on_c, 9, 28, 44
7, 42204, Note_on_c, 9, 28, 0
7, 42232, Note_on_c, 9, 35, 34
7, 42244, Note_on_c, 9, 28, 57
7, 42276, Note_on_c, 9, 35, 0
7, 42448, Note_on_c, 9, 35, 35
7, 42540, Note_on_c, 9, 35, 0
7, 42604, Note_on_c, 9, 28, 0
7, 42624, Note_on_c, 9, 44, 59
7, 42636, Note_on_c, 9, 28, 57
7, 42720, Note_on_c, 9, 44, 0
7, 42744, Note_on_c, 9, 32, 36
7, 42776, Note_on_c, 9, 32, 0
7, 42840, Note_on_c, 9, 35, 20
7, 42896, Note_on_c, 9, 35, 0
7, 42948, Note_on_c, 9, 28, 0
7, 42952, Note_on_c, 9, 27, 48
7, 42952, Note_on_c, 9, 26, 53
7, 42968, Note_on_c, 9, 26, 0
7, 42972, Note_on_c, 9, 27, 0
7, 43012, Note_on_c, 9, 28, 51
7, 43020, Note_on_c, 9, 35, 47
7, 43064, Note_on_c, 9, 35, 0
7, 43348, Note_on_c, 9, 28, 0
7, 43380, Note_on_c, 9, 28, 52
7, 43392, Note_on_c, 9, 44, 60
7, 43504, Note_on_c, 9, 44, 0
7, 43668, Note_on_c, 9, 28, 0
7, 43712, Note_on_c, 9, 28, 36
7, 43732, Note_on_c, 9, 28, 0
7, 43760, Note_on_c, 9, 35, 43
7, 43764, Note_on_c, 9, 28, 51
7, 43788, Note_on_c, 9, 35, 0
7, 44064, Note_on_c, 9, 28, 0
7, 44092, Note_on_c, 9, 28, 45
7, 44108, Note_on_c, 9, 28, 0
7, 44144, Note_on_c, 9, 28, 46
7, 44160, Note_on_c, 9, 46, 42
7, 44256, Note_on_c, 9, 46, 0
7, 44364, Note_on_c, 9, 35, 41
7, 44416, Note_on_c, 9, 35, 0
7, 44444, Note_on_c, 9, 28, 0
7, 44480, Note_on_c, 9, 28, 39
7, 44500, Note_on_c, 9, 28, 0
7, 44536, Note_on_c, 9, 28, 43
7, 44560, Note_on_c, 9, 35, 40
7, 44612, Note_on_c, 9, 35, 0
7, 44760, Note_on_c, 9, 35, 38
7, 44800, Note_on_c, 9, 35, 0
7, 44868, Note_on_c, 9, 28, 0
7, 44908, Note_on_c, 9, 28, 45
7, 44928, Note_on_c, 9, 44, 61
7, 44948, Note_on_c, 9, 46, 32
7, 44956, Note_on_c, 9, 53, 34
7, 44988, Note_on_c, 9, 53, 0
7, 44988, Note_on_c, 9, 46, 0
7, 45024, Note_on_c, 9, 44, 0
7, 45040, Note_on_c, 9, 27, 56
7, 45044, Note_on_c, 9, 28, 0
7, 45080, Note_on_c, 9, 27, 0
7, 45104, Note_on_c, 9, 28, 43
7, 45264, Note_on_c, 9, 28, 0
7, 45304, Note_on_c, 9, 28, 46
7, 45320, Note_on_c, 9, 35, 49
7, 45356, Note_on_c, 9, 35, 0
7, 45660, Note_on_c, 9, 28, 0
7, 45688, Note_on_c, 9, 28, 52
7, 45696, Note_on_c, 9, 44, 64
7, 45792, Note_on_c, 9, 44, 0
7, 45976, Note_on_c, 9, 28, 0
7, 46008, Note_on_c, 9, 35, 36
7, 46020, Note_on_c, 9, 28, 48
7, 46036, Note_on_c, 9, 28, 0
7, 46036, Note_on_c, 9, 35, 0
7, 46072, Note_on_c, 9, 28, 63
7, 46084, Note_on_c, 9, 35, 35
7, 46156, Note_on_c, 9, 35, 0
7, 46284, Note_on_c, 9, 35, 46
7, 46328, Note_on_c, 9, 35, 0
7, 46424, Note_on_c, 9, 28, 0
7, 46460, Note_on_c, 9, 28, 55
7, 46464, Note_on_c, 9, 44, 64
7, 46560, Note_on_c, 9, 44, 0
7, 46756, Note_on_c, 9, 28, 0
7, 46792, Note_on_c, 9, 28, 49
7, 46808, Note_on_c, 9, 28, 0
7, 46844, Note_on_c, 9, 28, 51
7, 46864, Note_on_c, 9, 35, 49
7, 46892, Note_on_c, 9, 35, 0
7, 47052, Note_on_c, 9, 35, 53
7, 47092, Note_on_c, 9, 35, 0
7, 47128, Note_on_c, 9, 28, 0
7, 47160, Note_on_c, 9, 28, 44
7, 47180, Note_on_c, 9, 28, 0
7, 47216, Note_on_c, 9, 28, 52
7, 47232, Note_on_c, 9, 44, 67
7, 47328, Note_on_c, 9, 44, 0
7, 47536, Note_on_c, 9, 35, 26
7, 47544, Note_on_c, 9, 28, 0
7, 47548, Note_on_c, 9, 27, 68
7, 47552, Note_on_c, 9, 35, 0
7, 47572, Note_on_c, 9, 27, 0
7, 47612, Note_on_c, 9, 28, 53
7, 47616, Note_on_c, 9, 35, 31
7, 47656, Note_on_c, 9, 35, 0
7, 47800, Note_on_c, 9, 35, 39
7, 47876, Note_on_c, 9, 35, 0
7, 47968, Note_on_c, 9, 28, 0
7, 48000, Note_on_c, 9, 44, 57
7, 48000, Note_on_c, 9, 28, 51
7, 48096, Note_on_c, 9, 44, 0
7, 48320, Note_on_c, 9, 28, 0
7, 48320, Note_on_c, 9, 27, 64
7, 48348, Note_on_c, 9, 27, 0
7, 48380, Note_on_c, 9, 28, 49
7, 48380, Note_on_c, 9, 35, 22
7, 48408, Note_on_c, 9, 35, 0
7, 48732, Note_on_c, 9, 28, 0
7, 48764, Note_on_c, 9, 28, 55
7, 48768, Note_on_c, 9, 44, 62
7, 48864, Note_on_c, 9, 44, 0
7, 48968, Note_on_c, 9, 35, 46
7, 49008, Note_on_c, 9, 35, 0
7, 49072, Note_on_c, 9, 28, 0
7, 49104, Note_on_c, 9, 28, 44
7, 49120, Note_on_c, 9, 28, 0
7, 49160, Note_on_c, 9, 28, 51
7, 49160, Note_on_c, 9, 35, 66
7, 49196, Note_on_c, 9, 35, 0
7, 49456, Note_on_c, 9, 28, 0
7, 49536, Note_on_c, 9, 44, 60
7, 49540, Note_on_c, 9, 28, 64
7, 49632, Note_on_c, 9, 44, 0
7, 49864, Note_on_c, 9, 27, 61
7, 49868, Note_on_c, 9, 28, 0
7, 49892, Note_on_c, 9, 27, 0
7, 49920, Note_on_c, 9, 28, 53
7, 50248, Note_on_c, 9, 28, 0
7, 50304, Note_on_c, 9, 44, 59
7, 50312, Note_on_c, 9, 28, 57
7, 50412, Note_on_c, 9, 44, 0
7, 50440, Note_on_c, 9, 25, 45
7, 50448, Note_on_c, 9, 28, 0
7, 50468, Note_on_c, 9, 25, 0
7, 50504, Note_on_c, 9, 28, 49
7, 50628, Note_on_c, 9, 25, 59
7, 50640, Note_on_c, 9, 28, 0
7, 50656, Note_on_c, 9, 25, 0
7, 50692, Note_on_c, 9, 28, 49
7, 50848, Note_on_c, 9, 28, 0
7, 50876, Note_on_c, 9, 28, 62
7, 50880, Note_on_c, 9, 44, 53
7, 50880, Note_on_c, 9, 64, 56
7, 50920, Note_on_c, 9, 64, 0
7, 50976, Note_on_c, 9, 44, 0
7, 51008, Note_on_c, 9, 64, 62
7, 51052, Note_on_c, 9, 64, 0
7, 51220, Note_on_c, 9, 28, 0
7, 51264, Note_on_c, 9, 44, 56
7, 51264, Note_on_c, 9, 62, 71
7, 51276, Note_on_c, 9, 28, 57
7, 51296, Note_on_c, 9, 62, 0
7, 51360, Note_on_c, 9, 44, 0
7, 51416, Note_on_c, 9, 28, 0
7, 51456, Note_on_c, 9, 28, 50
7, 51584, Note_on_c, 9, 62, 26
7, 51644, Note_on_c, 9, 62, 0
7, 51648, Note_on_c, 9, 44, 58
7, 51648, Note_on_c, 9, 64, 55
7, 51744, Note_on_c, 9, 44, 0
7, 51748, Note_on_c, 9, 28, 0
7, 51772, Note_on_c, 9, 64, 0
7, 51776, Note_on_c, 9, 64, 44
7, 51784, Note_on_c, 9, 28, 33
7, 51804, Note_on_c, 9, 28, 0
7, 51840, Note_on_c, 9, 28, 54
7, 51956, Note_on_c, 9, 64, 0
7, 52032, Note_on_c, 9, 44, 55
7, 52032, Note_on_c, 9, 62, 88
7, 52128, Note_on_c, 9, 44, 0
7, 52128, Note_on_c, 9, 28, 0
7, 52144, Note_on_c, 9, 62, 0
7, 52164, Note_on_c, 9, 28, 41
7, 52188, Note_on_c, 9, 28, 0
7, 52224, Note_on_c, 9, 28, 56
7, 52340, Note_on_c, 9, 27, 57
7, 52348, Note_on_c, 9, 28, 0
7, 52368, Note_on_c, 9, 27, 0
7, 52404, Note_on_c, 9, 28, 49
7, 52416, Note_on_c, 9, 44, 57
7, 52416, Note_on_c, 9, 64, 44
7, 52504, Note_on_c, 9, 64, 0
7, 52512, Note_on_c, 9, 44, 0
7, 52544, Note_on_c, 9, 64, 64
7, 52572, Note_on_c, 9, 28, 0
7, 52588, Note_on_c, 9, 64, 0
7, 52608, Note_on_c, 9, 28, 49
7, 52736, Note_on_c, 9, 63, 80
7, 52768, Note_on_c, 9, 63, 0
7, 52800, Note_on_c, 9, 44, 67
7, 52800, Note_on_c, 9, 62, 44
7, 52892, Note_on_c, 9, 62, 0
7, 52896, Note_on_c, 9, 44, 0
7, 52908, Note_on_c, 9, 28, 0
7, 52928, Note_on_c, 9, 62, 57
7, 52940, Note_on_c, 9, 28, 51
7, 52960, Note_on_c, 9, 62, 0
7, 52964, Note_on_c, 9, 28, 0
7, 53000, Note_on_c, 9, 28, 48
7, 53184, Note_on_c, 9, 44, 59
7, 53184, Note_on_c, 9, 64, 54
7, 53280, Note_on_c, 9, 44, 0
7, 53284, Note_on_c, 9, 28, 0
7, 53300, Note_on_c, 9, 64, 0
7, 53312, Note_on_c, 9, 28, 20
7, 53312, Note_on_c, 9, 64, 90
7, 53344, Note_on_c, 9, 28, 0
7, 53368, Note_on_c, 9, 28, 35
7, 53380, Note_on_c, 9, 64, 0
7, 53516, Note_on_c, 9, 28, 0
7, 53568, Note_on_c, 9, 46, 51
7, 53568, Note_on_c, 9, 28, 66
7, 53568, Note_on_c, 9, 62, 77
7, 53664, Note_on_c, 9, 62, 0
7, 53664, Note_on_c, 9, 46, 0
7, 53736, Note_on_c, 9, 28, 0
7, 53764, Note_on_c, 9, 28, 64
7, 53908, Note_on_c, 9, 28, 0
7, 53952, Note_on_c, 9, 44, 62
7, 53952, Note_on_c, 9, 28, 53
7, 53952, Note_on_c, 9, 64, 34
7, 54048, Note_on_c, 9, 44, 0
7, 54056, Note_on_c, 9, 64, 0
7, 54080, Note_on_c, 9, 28, 0
7, 54080, Note_on_c, 9, 64, 54
7, 54096, Note_on_c, 9, 28, 17
7, 54112, Note_on_c, 9, 64, 0
7, 54120, Note_on_c, 9, 28, 0
7, 54144, Note_on_c, 9, 28, 59
7, 54336, Note_on_c, 9, 44, 61
7, 54336, Note_on_c, 9, 62, 76
7, 54432, Note_on_c, 9, 44, 0
7, 54440, Note_on_c, 9, 62, 0
7, 54440, Note_on_c, 9, 28, 0
7, 54464, Note_on_c, 9, 62, 103
7, 54468, Note_on_c, 9, 28, 51
7, 54484, Note_on_c, 9, 28, 0
7, 54520, Note_on_c, 9, 28, 54
7, 54540, Note_on_c, 9, 62, 0
7, 54720, Note_on_c, 9, 44, 61
7, 54720, Note_on_c, 9, 64, 44
7, 54792, Note_on_c, 9, 28, 0
7, 54816, Note_on_c, 9, 44, 0
7, 54828, Note_on_c, 9, 64, 0
7, 54832, Note_on_c, 9, 28, 61
7, 54848, Note_on_c, 9, 64, 58
7, 54868, Note_on_c, 9, 28, 0
7, 54880, Note_on_c, 9, 64, 0
7, 54900, Note_on_c, 9, 28, 48
7, 55024, Note_on_c, 9, 28, 0
7, 55024, Note_on_c, 9, 27, 55
7, 55088, Note_on_c, 9, 27, 0
7, 55092, Note_on_c, 9, 28, 36
7, 55104, Note_on_c, 9, 44, 59
7, 55104, Note_on_c, 9, 62, 32
7, 55192, Note_on_c, 9, 62, 0
7, 55200, Note_on_c, 9, 44, 0
7, 55232, Note_on_c, 9, 62, 52
7, 55264, Note_on_c, 9, 62, 0
7, 55268, Note_on_c, 9, 28, 0
7, 55296, Note_on_c, 9, 28, 49
7, 55488, Note_on_c, 9, 44, 56
7, 55488, Note_on_c, 9, 64, 46
7, 55576, Note_on_c, 9, 64, 0
7, 55584, Note_on_c, 9, 44, 0
7, 55608, Note_on_c, 9, 27, 60
7, 55616, Note_on_c, 9, 64, 54
7, 55620, Note_on_c, 9, 28, 0
7, 55648, Note_on_c, 9, 64, 0
7, 55656, Note_on_c, 9, 27, 0
7, 55676, Note_on_c, 9, 28, 54
7, 55744, Note_on_c, 9, 63, 64
7, 55788, Note_on_c, 9, 63, 0
7, 55808, Note_on_c, 9, 63, 45
7, 55840, Note_on_c, 9, 63, 0
7, 55872, Note_on_c, 9, 44, 60
7, 55872, Note_on_c, 9, 62, 73
7, 55924, Note_on_c, 9, 62, 0
7, 55968, Note_on_c, 9, 44, 0
7, 56036, Note_on_c, 9, 28, 0
7, 56080, Note_on_c, 9, 28, 33
7, 56232, Note_on_c, 9, 28, 0
7, 56256, Note_on_c, 9, 44, 62
7, 56256, Note_on_c, 9, 28, 66
7, 56256, Note_on_c, 9, 64, 45
7, 56352, Note_on_c, 9, 44, 0
7, 56360, Note_on_c, 9, 64, 0
7, 56380, Note_on_c, 9, 28, 0
7, 56384, Note_on_c, 9, 64, 76
7, 56392, Note_on_c, 9, 28, 31
7, 56416, Note_on_c, 9, 28, 0
7, 56448, Note_on_c, 9, 28, 54
7, 56460, Note_on_c, 9, 64, 0
7, 56616, Note_on_c, 9, 28, 0
7, 56640, Note_on_c, 9, 46, 29
7, 56644, Note_on_c, 9, 28, 55
7, 56736, Note_on_c, 9, 46, 0
7, 56772, Note_on_c, 9, 28, 0
7, 56772, Note_on_c, 9, 27, 49
7, 56796, Note_on_c, 9, 27, 0
7, 56824, Note_on_c, 9, 28, 51
7, 57024, Note_on_c, 9, 44, 60
7, 57024, Note_on_c, 9, 64, 54
7, 57120, Note_on_c, 9, 44, 0
7, 57132, Note_on_c, 9, 28, 0
7, 57140, Note_on_c, 9, 64, 0
7, 57152, Note_on_c, 9, 64, 69
7, 57160, Note_on_c, 9, 28, 47
7, 57180, Note_on_c, 9, 28, 0
7, 57208, Note_on_c, 9, 64, 0
7, 57216, Note_on_c, 9, 28, 53
7, 57408, Note_on_c, 9, 44, 58
7, 57408, Note_on_c, 9, 62, 95
7, 57472, Note_on_c, 9, 62, 0
7, 57504, Note_on_c, 9, 44, 0
7, 57564, Note_on_c, 9, 28, 0
7, 57604, Note_on_c, 9, 28, 47
7, 57740, Note_on_c, 9, 27, 21
7, 57744, Note_on_c, 9, 28, 0
7, 57752, Note_on_c, 9, 27, 0
7, 57792, Note_on_c, 9, 44, 60
7, 57792, Note_on_c, 9, 28, 47
7, 57792, Note_on_c, 9, 64, 50
7, 57880, Note_on_c, 9, 64, 0
7, 57888, Note_on_c, 9, 44, 0
7, 57920, Note_on_c, 9, 64, 51
7, 57972, Note_on_c, 9, 28, 0
7, 57984, Note_on_c, 9, 64, 0
7, 57996, Note_on_c, 9, 28, 55
7, 58124, Note_on_c, 9, 27, 55
7, 58132, Note_on_c, 9, 28, 0
7, 58144, Note_on_c, 9, 27, 0
7, 58176, Note_on_c, 9, 44, 62
7, 58176, Note_on_c, 9, 62, 67
7, 58176, Note_on_c, 9, 37, 49
7, 58184, Note_on_c, 9, 28, 48
7, 58224, Note_on_c, 9, 37, 0
7, 58244, Note_on_c, 9, 62, 0
7, 58276, Note_on_c, 9, 44, 0
7, 58344, Note_on_c, 9, 28, 0
7, 58376, Note_on_c, 9, 28, 44
7, 58560, Note_on_c, 9, 44, 63
7, 58560, Note_on_c, 9, 64, 39
7, 58656, Note_on_c, 9, 44, 0
7, 58660, Note_on_c, 9, 64, 0
7, 58680, Note_on_c, 9, 28, 0
7, 58684, Note_on_c, 9, 27, 53
7, 58688, Note_on_c, 9, 64, 62
7, 58740, Note_on_c, 9, 64, 0
7, 58744, Note_on_c, 9, 27, 0
7, 58748, Note_on_c, 9, 28, 54
7, 58880, Note_on_c, 9, 63, 74
7, 58916, Note_on_c, 9, 63, 0
7, 58944, Note_on_c, 9, 44, 65
7, 58944, Note_on_c, 9, 62, 28
7, 59040, Note_on_c, 9, 62, 0
7, 59040, Note_on_c, 9, 44, 0
7, 59072, Note_on_c, 9, 62, 74
7, 59076, Note_on_c, 9, 27, 26
7, 59088, Note_on_c, 9, 28, 0
7, 59112, Note_on_c, 9, 62, 0
7, 59116, Note_on_c, 9, 27, 0
7, 59136, Note_on_c, 9, 28, 54
7, 59328, Note_on_c, 9, 44, 65
7, 59328, Note_on_c, 9, 64, 38
7, 59416, Note_on_c, 9, 64, 0
7, 59424, Note_on_c, 9, 44, 0
7, 59456, Note_on_c, 9, 64, 61
7, 59468, Note_on_c, 9, 27, 20
7, 59472, Note_on_c, 9, 28, 0
7, 59500, Note_on_c, 9, 27, 0
7, 59500, Note_on_c, 9, 64, 0
7, 59520, Note_on_c, 9, 28, 47
7, 59712, Note_on_c, 9, 44, 67
7, 59712, Note_on_c, 9, 63, 75
7, 59712, Note_on_c, 9, 62, 73
7, 59780, Note_on_c, 9, 62, 0
7, 59784, Note_on_c, 9, 63, 0
7, 59808, Note_on_c, 9, 44, 0
7, 59844, Note_on_c, 9, 27, 29
7, 59852, Note_on_c, 9, 28, 0
7, 59888, Note_on_c, 9, 27, 0
7, 59904, Note_on_c, 9, 28, 60
7, 60096, Note_on_c, 9, 44, 62
7, 60096, Note_on_c, 9, 64, 45
7, 60192, Note_on_c, 9, 64, 0
7, 60192, Note_on_c, 9, 44, 0
7, 60224, Note_on_c, 9, 64, 57
7, 60256, Note_on_c, 9, 28, 0
7, 60272, Note_on_c, 9, 64, 0
7, 60288, Note_on_c, 9, 28, 49
7, 60416, Note_on_c, 9, 63, 78
7, 60416, Note_on_c, 9, 62, 64
7, 60448, Note_on_c, 9, 63, 0
7, 60464, Note_on_c, 9, 62, 0
7, 60480, Note_on_c, 9, 44, 64
7, 60480, Note_on_c, 9, 63, 75
7, 60544, Note_on_c, 9, 62, 75
7, 60552, Note_on_c, 9, 63, 0
7, 60576, Note_on_c, 9, 62, 0
7, 60576, Note_on_c, 9, 44, 0
7, 60608, Note_on_c, 9, 27, 40
7, 60620, Note_on_c, 9, 28, 0
7, 60652, Note_on_c, 9, 27, 0
7, 60668, Note_on_c, 9, 28, 54
7, 60864, Note_on_c, 9, 44, 64
7, 60864, Note_on_c, 9, 64, 60
7, 60960, Note_on_c, 9, 64, 0
7, 60960, Note_on_c, 9, 44, 0
7, 60992, Note_on_c, 9, 27, 37
7, 60992, Note_on_c, 9, 64, 59
7, 61000, Note_on_c, 9, 28, 0
7, 61032, Note_on_c, 9, 27, 0
7, 61036, Note_on_c, 9, 64, 0
7, 61048, Note_on_c, 9, 28, 60
7, 61248, Note_on_c, 9, 44, 67
7, 61248, Note_on_c, 9, 63, 47
7, 61248, Note_on_c, 9, 62, 42
7, 61280, Note_on_c, 9, 63, 0
7, 61284, Note_on_c, 9, 62, 0
7, 61344, Note_on_c, 9, 44, 0
7, 61392, Note_on_c, 9, 28, 0
7, 61392, Note_on_c, 9, 27, 23
7, 61420, Note_on_c, 9, 27, 0
7, 61440, Note_on_c, 9, 28, 49
7, 61632, Note_on_c, 9, 44, 65
7, 61632, Note_on_c, 9, 64, 44
7, 61724, Note_on_c, 9, 64, 0
7, 61728, Note_on_c, 9, 44, 0
7, 61760, Note_on_c, 9, 64, 96
7, 61804, Note_on_c, 9, 28, 0
7, 61820, Note_on_c, 9, 64, 0
7, 61828, Note_on_c, 9, 28, 62
7, 62016, Note_on_c, 9, 44, 60
7, 62016, Note_on_c, 9, 62, 64
7, 62068, Note_on_c, 9, 62, 0
7, 62112, Note_on_c, 9, 44, 0
7, 62140, Note_on_c, 9, 27, 50
7, 62156, Note_on_c, 9, 28, 0
7, 62184, Note_on_c, 9, 27, 0
7, 62204, Note_on_c, 9, 28, 58
7, 62400, Note_on_c, 9, 44, 59
7, 62400, Note_on_c, 9, 64, 38
7, 62460, Note_on_c, 9, 64, 0
7, 62496, Note_on_c, 9, 44, 0
7, 62528, Note_on_c, 9, 64, 45
7, 62560, Note_on_c, 9, 28, 0
7, 62580, Note_on_c, 9, 64, 0
7, 62588, Note_on_c, 9, 28, 55
7, 62720, Note_on_c, 9, 63, 85
7, 62724, Note_on_c, 9, 28, 0
7, 62724, Note_on_c, 9, 27, 42
7, 62764, Note_on_c, 9, 27, 0
7, 62768, Note_on_c, 9, 63, 0
7, 62776, Note_on_c, 9, 28, 46
7, 62784, Note_on_c, 9, 44, 64
7, 62784, Note_on_c, 9, 62, 40
7, 62880, Note_on_c, 9, 62, 0
7, 62880, Note_on_c, 9, 44, 0
7, 62912, Note_on_c, 9, 28, 0
7, 62912, Note_on_c, 9, 62, 52
7, 62916, Note_on_c, 9, 27, 25
7, 62936, Note_on_c, 9, 27, 0
7, 62944, Note_on_c, 9, 62, 0
7, 62964, Note_on_c, 9, 28, 66
7, 63168, Note_on_c, 9, 44, 64
7, 63168, Note_on_c, 9, 64, 42
7, 63256, Note_on_c, 9, 64, 0
7, 63264, Note_on_c, 9, 44, 0
7, 63296, Note_on_c, 9, 64, 60
7, 63316, Note_on_c, 9, 28, 0
7, 63336, Note_on_c, 9, 64, 0
7, 63356, Note_on_c, 9, 28, 55
7, 63552, Note_on_c, 9, 44, 62
7, 63552, Note_on_c, 9, 63, 33
7, 63592, Note_on_c, 9, 63, 0
7, 63648, Note_on_c, 9, 44, 0
7, 63676, Note_on_c, 9, 27, 42
7, 63688, Note_on_c, 9, 28, 0
7, 63716, Note_on_c, 9, 27, 0
7, 63736, Note_on_c, 9, 28, 55
7, 63936, Note_on_c, 9, 44, 64
7, 63936, Note_on_c, 9, 64, 35
7, 64032, Note_on_c, 9, 44, 0
7, 64032, Note_on_c, 9, 28, 0
7, 64040, Note_on_c, 9, 64, 0
7, 64056, Note_on_c, 9, 28, 51
7, 64064, Note_on_c, 9, 64, 54
7, 64072, Note_on_c, 9, 28, 0
7, 64104, Note_on_c, 9, 64, 0
7, 64116, Note_on_c, 9, 28, 59
7, 64256, Note_on_c, 9, 63, 46
7, 64292, Note_on_c, 9, 63, 0
7, 64320, Note_on_c, 9, 46, 46
7, 64320, Note_on_c, 9, 37, 50
7, 64320, Note_on_c, 9, 62, 37
7, 64364, Note_on_c, 9, 37, 0
7, 64376, Note_on_c, 9, 62, 0
7, 64416, Note_on_c, 9, 46, 0
7, 64444, Note_on_c, 9, 27, 57
7, 64456, Note_on_c, 9, 28, 0
7, 64468, Note_on_c, 9, 27, 0
7, 64508, Note_on_c, 9, 28, 49
7, 64676, Note_on_c, 9, 28, 0
7, 64700, Note_on_c, 9, 28, 66
7, 64704, Note_on_c, 9, 44, 68
7, 64704, Note_on_c, 9, 64, 38
7, 64788, Note_on_c, 9, 64, 0
7, 64800, Note_on_c, 9, 44, 0
7, 64832, Note_on_c, 9, 64, 55
7, 64868, Note_on_c, 9, 64, 0
7, 65000, Note_on_c, 9, 28, 0
7, 65024, Note_on_c, 9, 63, 32
7, 65032, Note_on_c, 9, 28, 22
7, 65056, Note_on_c, 9, 63, 0
7, 65060, Note_on_c, 9, 28, 0
7, 65084, Note_on_c, 9, 28, 59
7, 65088, Note_on_c, 9, 44, 67
7, 65088, Note_on_c, 9, 37, 71
7, 65088, Note_on_c, 9, 62, 76
7, 65144, Note_on_c, 9, 37, 0
7, 65176, Note_on_c, 9, 62, 0
7, 65184, Note_on_c, 9, 44, 0
7, 65388, Note_on_c, 9, 28, 0
7, 65420, Note_on_c, 9, 28, 44
7, 65436, Note_on_c, 9, 28, 0
7, 65468, Note_on_c, 9, 28, 38
7, 65472, Note_on_c, 9, 44, 62
7, 65472, Note_on_c, 9, 64, 36
7, 65564, Note_on_c, 9, 64, 0
7, 65568, Note_on_c, 9, 44, 0
7, 65600, Note_on_c, 9, 27, 57
7, 65600, Note_on_c, 9, 64, 77
7, 65608, Note_on_c, 9, 28, 0
7, 65632, Note_on_c, 9, 27, 0
7, 65664, Note_on_c, 9, 64, 0
7, 65668, Note_on_c, 9, 28, 37
7, 65776, Note_on_c, 9, 28, 0
7, 65792, Note_on_c, 9, 25, 62
7, 65792, Note_on_c, 9, 63, 82
7, 65828, Note_on_c, 9, 25, 0
7, 65844, Note_on_c, 9, 63, 0
7, 65856, Note_on_c, 9, 44, 64
7, 65856, Note_on_c, 9, 28, 46
7, 65920, Note_on_c, 9, 62, 16
7, 65952, Note_on_c, 9, 44, 0
7, 65960, Note_on_c, 9, 62, 0
7, 65964, Note_on_c, 9, 28, 0
7, 65984, Note_on_c, 9, 62, 82
7, 65996, Note_on_c, 9, 28, 31
7, 66032, Note_on_c, 9, 28, 0
7, 66040, Note_on_c, 9, 62, 0
7, 66052, Note_on_c, 9, 28, 46
7, 66212, Note_on_c, 9, 28, 0
7, 66240, Note_on_c, 9, 44, 65
7, 66240, Note_on_c, 9, 28, 52
7, 66240, Note_on_c, 9, 64, 42
7, 66336, Note_on_c, 9, 44, 0
7, 66348, Note_on_c, 9, 64, 0
7, 66368, Note_on_c, 9, 64, 43
7, 66372, Note_on_c, 9, 28, 0
7, 66372, Note_on_c, 9, 25, 53
7, 66376, Note_on_c, 9, 26, 61
7, 66404, Note_on_c, 9, 25, 0
7, 66428, Note_on_c, 9, 26, 0
7, 66428, Note_on_c, 9, 64, 0
7, 66440, Note_on_c, 9, 28, 46
7, 66560, Note_on_c, 9, 63, 88
7, 66588, Note_on_c, 9, 28, 0
7, 66620, Note_on_c, 9, 28, 50
7, 66624, Note_on_c, 9, 63, 0
7, 66624, Note_on_c, 9, 44, 64
7, 66624, Note_on_c, 9, 62, 54
7, 66720, Note_on_c, 9, 44, 0
7, 66724, Note_on_c, 9, 62, 0
7, 66752, Note_on_c, 9, 62, 71
7, 66756, Note_on_c, 9, 26, 65
7, 66760, Note_on_c, 9, 25, 42
7, 66764, Note_on_c, 9, 28, 0
7, 66784, Note_on_c, 9, 25, 0
7, 66796, Note_on_c, 9, 62, 0
7, 66800, Note_on_c, 9, 26, 0
7, 66820, Note_on_c, 9, 28, 47
7, 66948, Note_on_c, 9, 28, 0
7, 67008, Note_on_c, 9, 44, 65
7, 67008, Note_on_c, 9, 64, 55
7, 67012, Note_on_c, 9, 28, 55
7, 67084, Note_on_c, 9, 64, 0
7, 67104, Note_on_c, 9, 44, 0
7, 67136, Note_on_c, 9, 64, 44
7, 67172, Note_on_c, 9, 28, 0
7, 67188, Note_on_c, 9, 64, 0
7, 67208, Note_on_c, 9, 28, 51
7, 67328, Note_on_c, 9, 63, 23
7, 67332, Note_on_c, 9, 25, 40
7, 67336, Note_on_c, 9, 28, 0
7, 67336, Note_on_c, 9, 26, 53
7, 67356, Note_on_c, 9, 25, 0
7, 67360, Note_on_c, 9, 63, 0
7, 67372, Note_on_c, 9, 26, 0
7, 67392, Note_on_c, 9, 44, 65
7, 67392, Note_on_c, 9, 28, 42
7, 67392, Note_on_c, 9, 62, 69
7, 67488, Note_on_c, 9, 44, 0
7, 67504, Note_on_c, 9, 62, 0
7, 67520, Note_on_c, 9, 62, 78
7, 67532, Note_on_c, 9, 28, 0
7, 67576, Note_on_c, 9, 28, 56
7, 67588, Note_on_c, 9, 62, 0
7, 67776, Note_on_c, 9, 44, 64
7, 67776, Note_on_c, 9, 64, 34
7, 67860, Note_on_c, 9, 64, 0
7, 67868, Note_on_c, 9, 28, 0
7, 67872, Note_on_c, 9, 44, 0
7, 67904, Note_on_c, 9, 28, 48
7, 67904, Note_on_c, 9, 64, 54
7, 67920, Note_on_c, 9, 28, 0
7, 67952, Note_on_c, 9, 64, 0
7, 67964, Note_on_c, 9, 28, 53
7, 68096, Note_on_c, 9, 63, 34
7, 68132, Note_on_c, 9, 63, 0
7, 68160, Note_on_c, 9, 44, 64
7, 68160, Note_on_c, 9, 62, 57
7, 68160, Note_on_c, 9, 37, 32
7, 68240, Note_on_c, 9, 37, 0
7, 68240, Note_on_c, 9, 62, 0
7, 68256, Note_on_c, 9, 44, 0
7, 68284, Note_on_c, 9, 27, 64
7, 68288, Note_on_c, 9, 62, 84
7, 68288, Note_on_c, 9, 37, 80
7, 68296, Note_on_c, 9, 28, 0
7, 68308, Note_on_c, 9, 27, 0
7, 68340, Note_on_c, 9, 28, 36
7, 68352, Note_on_c, 9, 62, 0
7, 68356, Note_on_c, 9, 37, 0
7, 68544, Note_on_c, 9, 44, 65
7, 68544, Note_on_c, 9, 64, 36
7, 68616, Note_on_c, 9, 64, 0
7, 68640, Note_on_c, 9, 44, 0
7, 68664, Note_on_c, 9, 27, 46
7, 68672, Note_on_c, 9, 64, 57
7, 68676, Note_on_c, 9, 28, 0
7, 68716, Note_on_c, 9, 27, 0
7, 68728, Note_on_c, 9, 64, 0
7, 68728, Note_on_c, 9, 28, 62
7, 68864, Note_on_c, 9, 63, 34
7, 68904, Note_on_c, 9, 63, 0
7, 68928, Note_on_c, 9, 46, 59
7, 68928, Note_on_c, 9, 62, 20
7, 68972, Note_on_c, 9, 62, 0
7, 69024, Note_on_c, 9, 46, 0
7, 69052, Note_on_c, 9, 27, 38
7, 69056, Note_on_c, 9, 62, 78
7, 69060, Note_on_c, 9, 28, 0
7, 69092, Note_on_c, 9, 27, 0
7, 69100, Note_on_c, 9, 62, 0
7, 69112, Note_on_c, 9, 28, 57
7, 69312, Note_on_c, 9, 44, 63
7, 69408, Note_on_c, 9, 44, 0
7, 69440, Note_on_c, 9, 64, 35
7, 69448, Note_on_c, 9, 28, 0
7, 69452, Note_on_c, 9, 27, 31
7, 69480, Note_on_c, 9, 27, 0
7, 69480, Note_on_c, 9, 64, 0
7, 69504, Note_on_c, 9, 28, 47
7, 69696, Note_on_c, 9, 44, 64
7, 69696, Note_on_c, 9, 63, 23
7, 69736, Note_on_c, 9, 63, 0
7, 69792, Note_on_c, 9, 44, 0
7, 69824, Note_on_c, 9, 63, 45
7, 69836, Note_on_c, 9, 28, 0
7, 69872, Note_on_c, 9, 63, 0
7, 69888, Note_on_c, 9, 28, 56
7, 70080, Note_on_c, 9, 44, 67
7, 70164, Note_on_c, 9, 28, 0
7, 70176, Note_on_c, 9, 44, 0
7, 70208, Note_on_c, 9, 28, 64
7, 70236, Note_on_c, 9, 28, 0
7, 70272, Note_on_c, 9, 28, 48
7, 70464, Note_on_c, 9, 44, 67
7, 70464, Note_on_c, 9, 64, 42
7, 70552, Note_on_c, 9, 64, 0
7, 70560, Note_on_c, 9, 44, 0
7, 70588, Note_on_c, 9, 27, 42
7, 70592, Note_on_c, 9, 28, 0
7, 70592, Note_on_c, 9, 64, 43
7, 70620, Note_on_c, 9, 27, 0
7, 70648, Note_on_c, 9, 28, 60
7, 70700, Note_on_c, 9, 64, 0
7, 70848, Note_on_c, 9, 44, 67
7, 70848, Note_on_c, 9, 63, 69
7, 70940, Note_on_c, 9, 63, 0
7, 70944, Note_on_c, 9, 44, 0
7, 70976, Note_on_c, 9, 28, 0
7, 70976, Note_on_c, 9, 27, 31
7, 71004, Note_on_c, 9, 27, 0
7, 71028, Note_on_c, 9, 28, 61
7, 71232, Note_on_c, 9, 44, 70
7, 71328, Note_on_c, 9, 44, 0
7, 71356, Note_on_c, 9, 27, 29
7, 71360, Note_on_c, 9, 28, 0
7, 71392, Note_on_c, 9, 27, 0
7, 71412, Note_on_c, 9, 28, 60
7, 71616, Note_on_c, 9, 44, 62
7, 71616, Note_on_c, 9, 62, 71
7, 71660, Note_on_c, 9, 62, 0
7, 71712, Note_on_c, 9, 44, 0
7, 71736, Note_on_c, 9, 27, 39
7, 71748, Note_on_c, 9, 28, 0
7, 71780, Note_on_c, 9, 27, 0
7, 71804, Note_on_c, 9, 28, 44
7, 72000, Note_on_c, 9, 44, 59
7, 72000, Note_on_c, 9, 64, 50
7, 72096, Note_on_c, 9, 44, 0
7, 72116, Note_on_c, 9, 64, 0
7, 72124, Note_on_c, 9, 27, 39
7, 72128, Note_on_c, 9, 64, 84
7, 72136, Note_on_c, 9, 28, 0
7, 72176, Note_on_c, 9, 27, 0
7, 72192, Note_on_c, 9, 28, 40
7, 72196, Note_on_c, 9, 59, 45
7, 72208, Note_on_c, 9, 64, 0
7, 72232, Note_on_c, 9, 59, 0
7, 72320, Note_on_c, 9, 63, 36
7, 72364, Note_on_c, 9, 63, 0
7, 72384, Note_on_c, 9, 44, 59
7, 72384, Note_on_c, 9, 62, 24
7, 72480, Note_on_c, 9, 44, 0
7, 72492, Note_on_c, 9, 27, 36
7, 72500, Note_on_c, 9, 62, 0
7, 72500, Note_on_c, 9, 28, 0
7, 72512, Note_on_c, 9, 62, 77
7, 72536, Note_on_c, 9, 27, 0
7, 72560, Note_on_c, 9, 62, 0
7, 72564, Note_on_c, 9, 28, 63
7, 72768, Note_on_c, 9, 44, 64
7, 72768, Note_on_c, 9, 64, 38
7, 72864, Note_on_c, 9, 64, 0
7, 72864, Note_on_c, 9, 44, 0
7, 72892, Note_on_c, 9, 27, 36
7, 72896, Note_on_c, 9, 64, 68
7, 72900, Note_on_c, 9, 28, 0
7, 72932, Note_on_c, 9, 64, 0
7, 72936, Note_on_c, 9, 27, 0
7, 72948, Note_on_c, 9, 59, 43
7, 72960, Note_on_c, 9, 28, 44
7, 72964, Note_on_c, 9, 59, 0
7, 73152, Note_on_c, 9, 44, 62
7, 73152, Note_on_c, 9, 62, 30
7, 73248, Note_on_c, 9, 62, 0
7, 73248, Note_on_c, 9, 44, 0
7, 73280, Note_on_c, 9, 27, 28
7, 73280, Note_on_c, 9, 62, 51
7, 73284, Note_on_c, 9, 28, 0
7, 73312, Note_on_c, 9, 62, 0
7, 73324, Note_on_c, 9, 27, 0
7, 73336, Note_on_c, 9, 28, 61
7, 73536, Note_on_c, 9, 44, 77
7, 73660, Note_on_c, 9, 44, 0
7, 73664, Note_on_c, 9, 28, 0
7, 73664, Note_on_c, 9, 27, 34
7, 73700, Note_on_c, 9, 27, 0
7, 73720, Note_on_c, 9, 28, 57
7, 73920, Note_on_c, 9, 44, 64
7, 74016, Note_on_c, 9, 44, 0
7, 74043, Note_on_c, 9, 29, 77
7, 74048, Note_on_c, 9, 27, 38
7, 74052, Note_on_c, 9, 28, 0
7, 74080, Note_on_c, 9, 27, 0
7, 74104, Note_on_c, 9, 28, 58
7, 74304, Note_on_c, 9, 44, 62
7, 74400, Note_on_c, 9, 44, 0
7, 74432, Note_on_c, 9, 28, 0
7, 74432, Note_on_c, 9, 27, 25
7, 74432, Note_on_c, 9, 34, 50
7, 74456, Note_on_c, 9, 27, 0
7, 74464, Note_on_c, 9, 34, 0
7, 74484, Note_on_c, 9, 28, 74
7, 74688, Note_on_c, 9, 44, 67
7, 74784, Note_on_c, 9, 44, 0
7, 74812, Note_on_c, 9, 27, 45
7, 74816, Note_on_c, 9, 34, 43
7, 74820, Note_on_c, 9, 28, 0
7, 74848, Note_on_c, 9, 34, 0
7, 74852, Note_on_c, 9, 27, 0
7, 74876, Note_on_c, 9, 28, 78
7, 75072, Note_on_c, 9, 46, 57
7, 75136, Note_on_c, 9, 33, 62
7, 75168, Note_on_c, 9, 46, 0
7, 75176, Note_on_c, 9, 33, 0
7, 75200, Note_on_c, 9, 34, 72
7, 75200, Note_on_c, 9, 34, 37
7, 75208, Note_on_c, 9, 25, 37
7, 75232, Note_on_c, 9, 27, 67
7, 75236, Note_on_c, 9, 29, 0
7, 75240, Note_on_c, 9, 25, 0
7, 75240, Note_on_c, 9, 34, 0
7, 75240, Note_on_c, 9, 28, 0
7, 75248, Note_on_c, 9, 34, 0
7, 75256, Note_on_c, 9, 27, 0
7, 75264, Note_on_c, 9, 35, 82
7, 75264, Note_on_c, 9, 69, 70
7, 75266, Note_on_c, 9, 35, 62
7, 75272, Note_on_c, 9, 57, 75
7, 75272, Note_on_c, 9, 51, 80
7, 75281, Note_on_c, 9, 69, 0
7, 75295, Note_on_c, 9, 35, 0
7, 75368, Note_on_c, 9, 35, 0
7, 75456, Note_on_c, 9, 44, 58
7, 75488, Note_on_c, 9, 51, 0
7, 75504, Note_on_c, 9, 51, 37
7, 75508, Note_on_c, 9, 57, 0
7, 75548, Note_on_c, 9, 51, 0
7, 75552, Note_on_c, 9, 44, 0
7, 75584, Note_on_c, 9, 35, 80
7, 75616, Note_on_c, 9, 35, 0
7, 75648, Note_on_c, 9, 51, 64
7, 75776, Note_on_c, 9, 51, 0
7, 75832, Note_on_c, 9, 51, 94
7, 75840, Note_on_c, 9, 44, 67
7, 75936, Note_on_c, 9, 44, 0
7, 75948, Note_on_c, 9, 51, 0
7, 75968, Note_on_c, 9, 35, 36
7, 75972, Note_on_c, 9, 51, 52
7, 76000, Note_on_c, 9, 51, 0
7, 76000, Note_on_c, 9, 35, 0
7, 76024, Note_on_c, 9, 51, 77
7, 76032, Note_on_c, 9, 35, 51
7, 76088, Note_on_c, 9, 35, 0
7, 76180, Note_on_c, 9, 51, 0
7, 76220, Note_on_c, 9, 51, 78
7, 76224, Note_on_c, 9, 44, 68
7, 76320, Note_on_c, 9, 44, 0
7, 76392, Note_on_c, 9, 51, 0
7, 76420, Note_on_c, 9, 51, 69
7, 76480, Note_on_c, 9, 34, 54
7, 76512, Note_on_c, 9, 34, 0
7, 76544, Note_on_c, 9, 34, 77
7, 76576, Note_on_c, 9, 34, 0
7, 76576, Note_on_c, 9, 51, 0
7, 76608, Note_on_c, 9, 44, 67
7, 76608, Note_on_c, 9, 59, 76
7, 76608, Note_on_c, 9, 51, 59
7, 76608, Note_on_c, 9, 35, 55
7, 76696, Note_on_c, 9, 35, 0
7, 76704, Note_on_c, 9, 44, 0
7, 76748, Note_on_c, 9, 51, 0
7, 76748, Note_on_c, 9, 59, 0
7, 76800, Note_on_c, 9, 51, 57
7, 76956, Note_on_c, 9, 51, 0
7, 76992, Note_on_c, 9, 44, 71
7, 76992, Note_on_c, 9, 51, 59
7, 77084, Note_on_c, 9, 51, 0
7, 77088, Note_on_c, 9, 44, 0
7, 77120, Note_on_c, 9, 35, 60
7, 77136, Note_on_c, 9, 51, 29
7, 77152, Note_on_c, 9, 51, 0
7, 77152, Note_on_c, 9, 35, 0
7, 77184, Note_on_c, 9, 35, 47
7, 77188, Note_on_c, 9, 53, 76
7, 77236, Note_on_c, 9, 35, 0
7, 77340, Note_on_c, 9, 53, 0
7, 77372, Note_on_c, 9, 53, 41
7, 77376, Note_on_c, 9, 44, 69
7, 77380, Note_on_c, 9, 51, 52
7, 77404, Note_on_c, 9, 53, 0
7, 77472, Note_on_c, 9, 44, 0
7, 77540, Note_on_c, 9, 51, 0
7, 77568, Note_on_c, 9, 51, 62
7, 77712, Note_on_c, 9, 51, 0
7, 77756, Note_on_c, 9, 51, 84
7, 77760, Note_on_c, 9, 44, 67
7, 77856, Note_on_c, 9, 44, 0
7, 77884, Note_on_c, 9, 51, 0
7, 77912, Note_on_c, 9, 51, 45
7, 77924, Note_on_c, 9, 51, 0
7, 77948, Note_on_c, 9, 51, 64
7, 78016, Note_on_c, 9, 31, 56
7, 78048, Note_on_c, 9, 31, 0
7, 78080, Note_on_c, 9, 31, 58
7, 78092, Note_on_c, 9, 51, 0
7, 78112, Note_on_c, 9, 31, 0
7, 78140, Note_on_c, 9, 51, 80
7, 78144, Note_on_c, 9, 46, 53
7, 78144, Note_on_c, 9, 31, 67
7, 78176, Note_on_c, 9, 31, 0
7, 78208, Note_on_c, 9, 31, 68
7, 78240, Note_on_c, 9, 31, 0
7, 78240, Note_on_c, 9, 46, 0
7, 78272, Note_on_c, 9, 35, 88
7, 78304, Note_on_c, 9, 51, 0
7, 78320, Note_on_c, 9, 35, 0
7, 78336, Note_on_c, 9, 51, 67
7, 78496, Note_on_c, 9, 51, 0
7, 78528, Note_on_c, 9, 44, 60
7, 78528, Note_on_c, 9, 51, 64
7, 78624, Note_on_c, 9, 44, 0
7, 78644, Note_on_c, 9, 51, 0
7, 78688, Note_on_c, 9, 51, 37
7, 78700, Note_on_c, 9, 51, 0
7, 78728, Note_on_c, 9, 51, 60
7, 78876, Note_on_c, 9, 51, 0
7, 78912, Note_on_c, 9, 44, 64
7, 78912, Note_on_c, 9, 51, 71
7, 79008, Note_on_c, 9, 44, 0
7, 79016, Note_on_c, 9, 51, 0
7, 79056, Note_on_c, 9, 51, 37
7, 79068, Note_on_c, 9, 51, 0
7, 79104, Note_on_c, 9, 51, 54
7, 79248, Note_on_c, 9, 51, 0
7, 79292, Note_on_c, 9, 53, 64
7, 79296, Note_on_c, 9, 44, 64
7, 79296, Note_on_c, 9, 51, 65
7, 79392, Note_on_c, 9, 44, 0
7, 79424, Note_on_c, 9, 31, 65
7, 79428, Note_on_c, 9, 51, 0
7, 79440, Note_on_c, 9, 53, 0
7, 79456, Note_on_c, 9, 31, 0
7, 79488, Note_on_c, 9, 51, 55
7, 79488, Note_on_c, 9, 35, 39
7, 79592, Note_on_c, 9, 35, 0
7, 79616, Note_on_c, 9, 35, 59
7, 79624, Note_on_c, 9, 51, 0
7, 79648, Note_on_c, 9, 35, 0
7, 79680, Note_on_c, 9, 44, 59
7, 79680, Note_on_c, 9, 51, 57
7, 79760, Note_on_c, 9, 51, 0
7, 79776, Note_on_c, 9, 44, 0
7, 79808, Note_on_c, 9, 59, 80
7, 79812, Note_on_c, 9, 51, 70
7, 79856, Note_on_c, 9, 59, 0
7, 79860, Note_on_c, 9, 51, 0
7, 79880, Note_on_c, 9, 51, 32
7, 80004, Note_on_c, 9, 51, 0
7, 80056, Note_on_c, 9, 51, 60
7, 80064, Note_on_c, 9, 44, 56
7, 80160, Note_on_c, 9, 44, 0
7, 80188, Note_on_c, 9, 51, 0
7, 80248, Note_on_c, 9, 51, 67
7, 80256, Note_on_c, 9, 34, 58
7, 80288, Note_on_c, 9, 34, 0
7, 80320, Note_on_c, 9, 34, 55
7, 80352, Note_on_c, 9, 34, 0
7, 80392, Note_on_c, 9, 51, 0
7, 80440, Note_on_c, 9, 51, 57
7, 80448, Note_on_c, 9, 44, 59
7, 80536, Note_on_c, 9, 51, 0
7, 80544, Note_on_c, 9, 44, 0
7, 80584, Note_on_c, 9, 51, 33
7, 80600, Note_on_c, 9, 51, 0
7, 80628, Note_on_c, 9, 51, 51
7, 80640, Note_on_c, 9, 34, 60
7, 80672, Note_on_c, 9, 34, 0
7, 80704, Note_on_c, 9, 34, 53
7, 80736, Note_on_c, 9, 34, 0
7, 80768, Note_on_c, 9, 35, 74
7, 80784, Note_on_c, 9, 51, 0
7, 80812, Note_on_c, 9, 35, 0
7, 80832, Note_on_c, 9, 44, 55
7, 80832, Note_on_c, 9, 51, 58
7, 80928, Note_on_c, 9, 44, 0
7, 80960, Note_on_c, 9, 34, 59
7, 80960, Note_on_c, 9, 34, 63
7, 80968, Note_on_c, 9, 51, 0
7, 80992, Note_on_c, 9, 34, 0
7, 81024, Note_on_c, 9, 59, 68
7, 81024, Note_on_c, 9, 57, 71
7, 81024, Note_on_c, 9, 35, 72
7, 81028, Note_on_c, 9, 51, 68
7, 81032, Note_on_c, 9, 34, 0
7, 81076, Note_on_c, 9, 57, 0
7, 81096, Note_on_c, 9, 35, 0
7, 81152, Note_on_c, 9, 59, 0
7, 81184, Note_on_c, 9, 51, 0
7, 81216, Note_on_c, 9, 44, 62
7, 81216, Note_on_c, 9, 51, 57
7, 81216, Note_on_c, 9, 34, 39
7, 81248, Note_on_c, 9, 34, 0
7, 81280, Note_on_c, 9, 34, 67
7, 81312, Note_on_c, 9, 44, 0
7, 81328, Note_on_c, 9, 34, 0
7, 81332, Note_on_c, 9, 51, 0
7, 81344, Note_on_c, 9, 57, 80
7, 81344, Note_on_c, 9, 35, 77
7, 81360, Note_on_c, 9, 51, 49
7, 81376, Note_on_c, 9, 57, 0
7, 81384, Note_on_c, 9, 51, 0
7, 81408, Note_on_c, 9, 51, 69
7, 81448, Note_on_c, 9, 35, 0
7, 81568, Note_on_c, 9, 51, 0
7, 81600, Note_on_c, 9, 44, 62
7, 81600, Note_on_c, 9, 51, 68
7, 81696, Note_on_c, 9, 44, 0
7, 81728, Note_on_c, 9, 51, 0
7, 81800, Note_on_c, 9, 51, 60
7, 81948, Note_on_c, 9, 51, 0
7, 81984, Note_on_c, 9, 46, 51
7, 81988, Note_on_c, 9, 51, 67
7, 82080, Note_on_c, 9, 46, 0
7, 82112, Note_on_c, 9, 35, 60
7, 82136, Note_on_c, 9, 51, 0
7, 82160, Note_on_c, 9, 35, 0
7, 82176, Note_on_c, 9, 35, 50
7, 82184, Note_on_c, 9, 51, 46
7, 82236, Note_on_c, 9, 35, 0
7, 82328, Note_on_c, 9, 51, 0
7, 82368, Note_on_c, 9, 44, 59
7, 82368, Note_on_c, 9, 53, 81
7, 82464, Note_on_c, 9, 44, 0
7, 82520, Note_on_c, 9, 53, 0
7, 82560, Note_on_c, 9, 37, 71
7, 82564, Note_on_c, 9, 51, 38
7, 82600, Note_on_c, 9, 37, 0
7, 82660, Note_on_c, 9, 51, 0
7, 82744, Note_on_c, 9, 51, 55
7, 82752, Note_on_c, 9, 44, 61
7, 82848, Note_on_c, 9, 44, 0
7, 82872, Note_on_c, 9, 51, 0
7, 82900, Note_on_c, 9, 51, 47
7, 82912, Note_on_c, 9, 51, 0
7, 82940, Note_on_c, 9, 51, 57
7, 82944, Note_on_c, 9, 35, 26
7, 83004, Note_on_c, 9, 35, 0
7, 83104, Note_on_c, 9, 51, 0
7, 83136, Note_on_c, 9, 44, 64
7, 83144, Note_on_c, 9, 51, 77
7, 83232, Note_on_c, 9, 44, 0
7, 83276, Note_on_c, 9, 51, 0
7, 83324, Note_on_c, 9, 51, 62
7, 83328, Note_on_c, 9, 35, 27
7, 83380, Note_on_c, 9, 35, 0
7, 83436, Note_on_c, 9, 51, 0
7, 83460, Note_on_c, 9, 51, 56
7, 83480, Note_on_c, 9, 51, 0
7, 83512, Note_on_c, 9, 51, 56
7, 83520, Note_on_c, 9, 44, 69
7, 83520, Note_on_c, 9, 37, 59
7, 83572, Note_on_c, 9, 37, 0
7, 83616, Note_on_c, 9, 44, 0
7, 83648, Note_on_c, 9, 35, 35
7, 83672, Note_on_c, 9, 51, 0
7, 83680, Note_on_c, 9, 35, 0
7, 83708, Note_on_c, 9, 51, 62
7, 83712, Note_on_c, 9, 35, 35
7, 83768, Note_on_c, 9, 35, 0
7, 83868, Note_on_c, 9, 51, 0
7, 83904, Note_on_c, 9, 44, 64
7, 83904, Note_on_c, 9, 51, 64
7, 84000, Note_on_c, 9, 44, 0
7, 84016, Note_on_c, 9, 51, 0
7, 84048, Note_on_c, 9, 51, 37
7, 84072, Note_on_c, 9, 51, 0
7, 84096, Note_on_c, 9, 51, 62
7, 84160, Note_on_c, 9, 34, 59
7, 84192, Note_on_c, 9, 34, 0
7, 84224, Note_on_c, 9, 34, 67
7, 84236, Note_on_c, 9, 51, 0
7, 84268, Note_on_c, 9, 34, 0
7, 84288, Note_on_c, 9, 44, 67
7, 84288, Note_on_c, 9, 35, 61
7, 84296, Note_on_c, 9, 51, 55
7, 84372, Note_on_c, 9, 51, 0
7, 84380, Note_on_c, 9, 35, 0
7, 84384, Note_on_c, 9, 44, 0
7, 84428, Note_on_c, 9, 51, 53
7, 84468, Note_on_c, 9, 51, 0
7, 84480, Note_on_c, 9, 51, 45
7, 84608, Note_on_c, 9, 51, 0
7, 84608, Note_on_c, 9, 34, 31
7, 84640, Note_on_c, 9, 34, 0
7, 84668, Note_on_c, 9, 51, 71
7, 84672, Note_on_c, 9, 44, 65
7, 84672, Note_on_c, 9, 35, 60
7, 84764, Note_on_c, 9, 35, 0
7, 84768, Note_on_c, 9, 44, 0
7, 84788, Note_on_c, 9, 51, 0
7, 84800, Note_on_c, 9, 35, 55
7, 84816, Note_on_c, 9, 51, 50
7, 84832, Note_on_c, 9, 51, 0
7, 84832, Note_on_c, 9, 35, 0
7, 84860, Note_on_c, 9, 51, 62
7, 85016, Note_on_c, 9, 51, 0
7, 85056, Note_on_c, 9, 44, 64
7, 85060, Note_on_c, 9, 51, 71
7, 85152, Note_on_c, 9, 44, 0
7, 85168, Note_on_c, 9, 51, 0
7, 85200, Note_on_c, 9, 51, 37
7, 85216, Note_on_c, 9, 51, 0
7, 85244, Note_on_c, 9, 51, 51
7, 85248, Note_on_c, 9, 35, 58
7, 85296, Note_on_c, 9, 35, 0
7, 85344, Note_on_c, 9, 51, 0
7, 85376, Note_on_c, 9, 53, 76
7, 85420, Note_on_c, 9, 53, 0
7, 85440, Note_on_c, 9, 44, 63
7, 85440, Note_on_c, 9, 51, 52
7, 85536, Note_on_c, 9, 44, 0
7, 85568, Note_on_c, 9, 35, 61
7, 85576, Note_on_c, 9, 51, 0
7, 85600, Note_on_c, 9, 35, 0
7, 85628, Note_on_c, 9, 51, 62
7, 85760, Note_on_c, 9, 31, 66
7, 85776, Note_on_c, 9, 51, 0
7, 85792, Note_on_c, 9, 31, 0
7, 85816, Note_on_c, 9, 46, 53
7, 85816, Note_on_c, 9, 51, 55
7, 85824, Note_on_c, 9, 44, 63
7, 85824, Note_on_c, 9, 31, 61
7, 85856, Note_on_c, 9, 31, 0
7, 85920, Note_on_c, 9, 44, 0
7, 85952, Note_on_c, 9, 31, 77
7, 85956, Note_on_c, 9, 46, 0
7, 85960, Note_on_c, 9, 51, 0
7, 85984, Note_on_c, 9, 31, 0
7, 86008, Note_on_c, 9, 51, 65
7, 86144, Note_on_c, 9, 35, 60
7, 86164, Note_on_c, 9, 51, 0
7, 86176, Note_on_c, 9, 35, 0
7, 86196, Note_on_c, 9, 51, 57
7, 86204, Note_on_c, 9, 46, 46
7, 86208, Note_on_c, 9, 44, 64
7, 86208, Note_on_c, 9, 35, 64
7, 86280, Note_on_c, 9, 35, 0
7, 86304, Note_on_c, 9, 44, 0
7, 86336, Note_on_c, 9, 35, 71
7, 86340, Note_on_c, 9, 46, 0
7, 86344, Note_on_c, 9, 51, 0
7, 86368, Note_on_c, 9, 35, 0
7, 86392, Note_on_c, 9, 51, 64
7, 86408, Note_on_c, 9, 46, 48
7, 86536, Note_on_c, 9, 46, 0
7, 86536, Note_on_c, 9, 51, 0
7, 86584, Note_on_c, 9, 51, 58
7, 86592, Note_on_c, 9, 44, 64
7, 86688, Note_on_c, 9, 44, 0
7, 86708, Note_on_c, 9, 51, 0
7, 86736, Note_on_c, 9, 51, 61
7, 86764, Note_on_c, 9, 51, 0
7, 86784, Note_on_c, 9, 51, 67
7, 86916, Note_on_c, 9, 51, 0
7, 86968, Note_on_c, 9, 53, 69
7, 86972, Note_on_c, 9, 51, 55
7, 86976, Note_on_c, 9, 44, 62
7, 87072, Note_on_c, 9, 44, 0
7, 87112, Note_on_c, 9, 51, 0
7, 87148, Note_on_c, 9, 53, 0
7, 87168, Note_on_c, 9, 51, 53
7, 87232, Note_on_c, 9, 31, 76
7, 87272, Note_on_c, 9, 31, 0
7, 87272, Note_on_c, 9, 51, 0
7, 87288, Note_on_c, 9, 51, 74
7, 87296, Note_on_c, 9, 31, 72
7, 87340, Note_on_c, 9, 31, 0
7, 87344, Note_on_c, 9, 51, 0
7, 87352, Note_on_c, 9, 53, 60
7, 87360, Note_on_c, 9, 46, 57
7, 87360, Note_on_c, 9, 31, 31
7, 87360, Note_on_c, 9, 34, 83
7, 87360, Note_on_c, 9, 30, 33
7, 87392, Note_on_c, 9, 31, 0
7, 87396, Note_on_c, 9, 30, 0
7, 87412, Note_on_c, 9, 34, 0
7, 87456, Note_on_c, 9, 46, 0
7, 87480, Note_on_c, 9, 53, 0
7, 87488, Note_on_c, 9, 51, 87
7, 87488, Note_on_c, 9, 34, 83
7, 87548, Note_on_c, 9, 34, 0
7, 87548, Note_on_c, 9, 57, 60
7, 87552, Note_on_c, 9, 57, 77
7, 87552, Note_on_c, 9, 35, 79
7, 87656, Note_on_c, 9, 57, 0
7, 87664, Note_on_c, 9, 57, 0
7, 87684, Note_on_c, 9, 35, 0
7, 87712, Note_on_c, 9, 51, 0
7, 87736, Note_on_c, 9, 51, 51
7, 87744, Note_on_c, 9, 44, 63
7, 87840, Note_on_c, 9, 44, 0
7, 87888, Note_on_c, 9, 51, 0
7, 87940, Note_on_c, 9, 51, 52
7, 88000, Note_on_c, 9, 34, 70
7, 88044, Note_on_c, 9, 34, 0
7, 88064, Note_on_c, 9, 34, 63
7, 88072, Note_on_c, 9, 51, 0
7, 88124, Note_on_c, 9, 51, 68
7, 88128, Note_on_c, 9, 34, 0
7, 88128, Note_on_c, 9, 44, 67
7, 88128, Note_on_c, 9, 57, 64
7, 88128, Note_on_c, 9, 35, 68
7, 88208, Note_on_c, 9, 57, 0
7, 88224, Note_on_c, 9, 35, 0
7, 88224, Note_on_c, 9, 44, 0
7, 88244, Note_on_c, 9, 51, 0
7, 88272, Note_on_c, 9, 51, 39
7, 88284, Note_on_c, 9, 51, 0
7, 88316, Note_on_c, 9, 51, 59
7, 88468, Note_on_c, 9, 51, 0
7, 88512, Note_on_c, 9, 44, 68
7, 88516, Note_on_c, 9, 51, 74
7, 88608, Note_on_c, 9, 44, 0
7, 88652, Note_on_c, 9, 51, 0
7, 88716, Note_on_c, 9, 51, 68
7, 88864, Note_on_c, 9, 51, 0
7, 88896, Note_on_c, 9, 44, 64
7, 88904, Note_on_c, 9, 51, 62
7, 88992, Note_on_c, 9, 44, 0
7, 89008, Note_on_c, 9, 51, 0
7, 89048, Note_on_c, 9, 51, 38
7, 89060, Note_on_c, 9, 51, 0
7, 89088, Note_on_c, 9, 35, 37
7, 89092, Note_on_c, 9, 51, 58
7, 89180, Note_on_c, 9, 35, 0
7, 89236, Note_on_c, 9, 51, 0
7, 89280, Note_on_c, 9, 44, 65
7, 89280, Note_on_c, 9, 51, 77
7, 89376, Note_on_c, 9, 44, 0
7, 89388, Note_on_c, 9, 51, 0
7, 89408, Note_on_c, 9, 35, 60
7, 89432, Note_on_c, 9, 51, 31
7, 89440, Note_on_c, 9, 35, 0
7, 89444, Note_on_c, 9, 51, 0
7, 89472, Note_on_c, 9, 51, 54
7, 89620, Note_on_c, 9, 51, 0
7, 89664, Note_on_c, 9, 44, 63
7, 89664, Note_on_c, 9, 51, 74
7, 89760, Note_on_c, 9, 44, 0
7, 89796, Note_on_c, 9, 51, 0
7, 89852, Note_on_c, 9, 51, 59
7, 89856, Note_on_c, 9, 35, 36
7, 89888, Note_on_c, 9, 35, 0
7, 89964, Note_on_c, 9, 51, 0
7, 89980, Note_on_c, 9, 53, 74
7, 90028, Note_on_c, 9, 53, 0
7, 90048, Note_on_c, 9, 44, 63
7, 90052, Note_on_c, 9, 51, 35
7, 90144, Note_on_c, 9, 44, 0
7, 90192, Note_on_c, 9, 51, 0
7, 90232, Note_on_c, 9, 51, 63
7, 90304, Note_on_c, 9, 34, 36
7, 90336, Note_on_c, 9, 34, 0
7, 90368, Note_on_c, 9, 35, 39
7, 90384, Note_on_c, 9, 51, 0
7, 90400, Note_on_c, 9, 35, 0
7, 90432, Note_on_c, 9, 44, 63
7, 90432, Note_on_c, 9, 51, 69
7, 90432, Note_on_c, 9, 34, 52
7, 90468, Note_on_c, 9, 34, 0
7, 90528, Note_on_c, 9, 44, 0
7, 90560, Note_on_c, 9, 35, 54
7, 90572, Note_on_c, 9, 51, 0
7, 90592, Note_on_c, 9, 35, 0
7, 90624, Note_on_c, 9, 51, 62
7, 90624, Note_on_c, 9, 35, 47
7, 90656, Note_on_c, 9, 35, 0
7, 90764, Note_on_c, 9, 51, 0
7, 90812, Note_on_c, 9, 51, 64
7, 90816, Note_on_c, 9, 44, 63
7, 90912, Note_on_c, 9, 44, 0
7, 90940, Note_on_c, 9, 51, 0
7, 90944, Note_on_c, 9, 35, 51
7, 90976, Note_on_c, 9, 35, 0
7, 91004, Note_on_c, 9, 51, 57
7, 91124, Note_on_c, 9, 51, 0
7, 91136, Note_on_c, 9, 53, 65
7, 91168, Note_on_c, 9, 53, 0
7, 91196, Note_on_c, 9, 53, 58
7, 91200, Note_on_c, 9, 44, 62
7, 91296, Note_on_c, 9, 44, 0
7, 91320, Note_on_c, 9, 53, 0
7, 91328, Note_on_c, 9, 51, 51
7, 91328, Note_on_c, 9, 29, 30
7, 91364, Note_on_c, 9, 51, 0
7, 91376, Note_on_c, 9, 29, 0
7, 91388, Note_on_c, 9, 51, 45
7, 91392, Note_on_c, 9, 31, 8
7, 91448, Note_on_c, 9, 31, 0
7, 91508, Note_on_c, 9, 51, 0
7, 91520, Note_on_c, 9, 35, 35
7, 91524, Note_on_c, 9, 53, 71
7, 91552, Note_on_c, 9, 35, 0
7, 91560, Note_on_c, 9, 53, 0
7, 91584, Note_on_c, 9, 44, 64
7, 91584, Note_on_c, 9, 53, 53
7, 91680, Note_on_c, 9, 44, 0
7, 91696, Note_on_c, 9, 53, 0
7, 91708, Note_on_c, 9, 51, 67
7, 91712, Note_on_c, 9, 29, 60
7, 91748, Note_on_c, 9, 29, 0
7, 91748, Note_on_c, 9, 51, 0
7, 91772, Note_on_c, 9, 51, 48
7, 91776, Note_on_c, 9, 35, 32
7, 91864, Note_on_c, 9, 35, 0
7, 91904, Note_on_c, 9, 35, 44
7, 91928, Note_on_c, 9, 51, 0
7, 91936, Note_on_c, 9, 35, 0
7, 91964, Note_on_c, 9, 51, 54
7, 91968, Note_on_c, 9, 44, 70
7, 91968, Note_on_c, 9, 29, 48
7, 92004, Note_on_c, 9, 29, 0
7, 92064, Note_on_c, 9, 44, 0
7, 92096, Note_on_c, 9, 35, 49
7, 92112, Note_on_c, 9, 51, 0
7, 92128, Note_on_c, 9, 35, 0
7, 92156, Note_on_c, 9, 51, 56
7, 92280, Note_on_c, 9, 51, 0
7, 92288, Note_on_c, 9, 29, 64
7, 92320, Note_on_c, 9, 29, 0
7, 92352, Note_on_c, 9, 44, 65
7, 92352, Note_on_c, 9, 51, 56
7, 92352, Note_on_c, 9, 35, 28
7, 92416, Note_on_c, 9, 35, 0
7, 92448, Note_on_c, 9, 44, 0
7, 92480, Note_on_c, 9, 35, 40
7, 92496, Note_on_c, 9, 51, 0
7, 92512, Note_on_c, 9, 35, 0
7, 92544, Note_on_c, 9, 29, 50
7, 92552, Note_on_c, 9, 59, 62
7, 92560, Note_on_c, 9, 51, 49
7, 92584, Note_on_c, 9, 29, 0
7, 92608, Note_on_c, 9, 35, 24
7, 92640, Note_on_c, 9, 35, 0
7, 92680, Note_on_c, 9, 59, 0
7, 92700, Note_on_c, 9, 51, 0
7, 92736, Note_on_c, 9, 44, 69
7, 92740, Note_on_c, 9, 51, 35
7, 92740, Note_on_c, 9, 59, 54
7, 92832, Note_on_c, 9, 44, 0
7, 92864, Note_on_c, 9, 35, 62
7, 92868, Note_on_c, 9, 59, 0
7, 92880, Note_on_c, 9, 51, 0
7, 92896, Note_on_c, 9, 35, 0
7, 92932, Note_on_c, 9, 51, 45
7, 92932, Note_on_c, 9, 59, 55
7, 93016, Note_on_c, 9, 51, 0
7, 93020, Note_on_c, 9, 59, 0
7, 93056, Note_on_c, 9, 51, 64
7, 93092, Note_on_c, 9, 51, 0
7, 93120, Note_on_c, 9, 44, 68
7, 93128, Note_on_c, 9, 51, 36
7, 93216, Note_on_c, 9, 44, 0
7, 93260, Note_on_c, 9, 51, 0
7, 93308, Note_on_c, 9, 51, 70
7, 93440, Note_on_c, 9, 34, 59
7, 93464, Note_on_c, 9, 51, 0
7, 93504, Note_on_c, 9, 46, 42
7, 93504, Note_on_c, 9, 51, 58
7, 93504, Note_on_c, 9, 57, 57
7, 93504, Note_on_c, 9, 35, 40
7, 93512, Note_on_c, 9, 34, 0
7, 93536, Note_on_c, 9, 57, 0
7, 93576, Note_on_c, 9, 35, 0
7, 93600, Note_on_c, 9, 46, 0
7, 93604, Note_on_c, 9, 51, 0
7, 93632, Note_on_c, 9, 35, 68
7, 93644, Note_on_c, 9, 51, 37
7, 93660, Note_on_c, 9, 51, 0
7, 93692, Note_on_c, 9, 51, 56
7, 93844, Note_on_c, 9, 51, 0
7, 93872, Note_on_c, 9, 35, 0
7, 93884, Note_on_c, 9, 51, 67
7, 93888, Note_on_c, 9, 44, 63
7, 93984, Note_on_c, 9, 44, 0
7, 94008, Note_on_c, 9, 51, 0
7, 94044, Note_on_c, 9, 51, 23
7, 94060, Note_on_c, 9, 51, 0
7, 94084, Note_on_c, 9, 51, 67
7, 94224, Note_on_c, 9, 51, 0
7, 94272, Note_on_c, 9, 44, 67
7, 94272, Note_on_c, 9, 51, 75
7, 94368, Note_on_c, 9, 44, 0
7, 94392, Note_on_c, 9, 51, 0
7, 94400, Note_on_c, 9, 35, 49
7, 94424, Note_on_c, 9, 51, 37
7, 94440, Note_on_c, 9, 51, 0
7, 94440, Note_on_c, 9, 35, 0
7, 94464, Note_on_c, 9, 51, 65
7, 94464, Note_on_c, 9, 35, 39
7, 94496, Note_on_c, 9, 35, 0
7, 94604, Note_on_c, 9, 51, 0
7, 94656, Note_on_c, 9, 44, 70
7, 94656, Note_on_c, 9, 51, 75
7, 94752, Note_on_c, 9, 44, 0
7, 94800, Note_on_c, 9, 51, 0
7, 94848, Note_on_c, 9, 51, 75
7, 94984, Note_on_c, 9, 51, 0
7, 95032, Note_on_c, 9, 51, 74
7, 95040, Note_on_c, 9, 44, 62
7, 95136, Note_on_c, 9, 44, 0
7, 95160, Note_on_c, 9, 51, 0
7, 95168, Note_on_c, 9, 35, 65
7, 95184, Note_on_c, 9, 51, 55
7, 95200, Note_on_c, 9, 35, 0
7, 95204, Note_on_c, 9, 51, 0
7, 95228, Note_on_c, 9, 51, 74
7, 95364, Note_on_c, 9, 51, 0
7, 95424, Note_on_c, 9, 44, 69
7, 95424, Note_on_c, 9, 51, 77
7, 95520, Note_on_c, 9, 44, 0
7, 95544, Note_on_c, 9, 51, 0
7, 95572, Note_on_c, 9, 51, 35
7, 95588, Note_on_c, 9, 51, 0
7, 95612, Note_on_c, 9, 51, 62
7, 95744, Note_on_c, 9, 51, 0
7, 95744, Note_on_c, 9, 34, 36
7, 95776, Note_on_c, 9, 34, 0
7, 95800, Note_on_c, 9, 51, 76
7, 95808, Note_on_c, 9, 44, 59
7, 95808, Note_on_c, 9, 35, 35
7, 95844, Note_on_c, 9, 35, 0
7, 95904, Note_on_c, 9, 44, 0
7, 95920, Note_on_c, 9, 51, 0
7, 95952, Note_on_c, 9, 51, 31
7, 95968, Note_on_c, 9, 51, 0
7, 95992, Note_on_c, 9, 51, 64
7, 96136, Note_on_c, 9, 51, 0
7, 96180, Note_on_c, 9, 51, 81
7, 96192, Note_on_c, 9, 44, 60
7, 96288, Note_on_c, 9, 44, 0
7, 96296, Note_on_c, 9, 51, 0
7, 96332, Note_on_c, 9, 51, 29
7, 96344, Note_on_c, 9, 51, 0
7, 96376, Note_on_c, 9, 51, 56
7, 96512, Note_on_c, 9, 51, 0
7, 96576, Note_on_c, 9, 44, 62
7, 96576, Note_on_c, 9, 51, 74
7, 96672, Note_on_c, 9, 44, 0
7, 96680, Note_on_c, 9, 51, 0
7, 96704, Note_on_c, 9, 53, 70
7, 96704, Note_on_c, 9, 31, 41
7, 96736, Note_on_c, 9, 31, 0
7, 96748, Note_on_c, 9, 53, 0
7, 96768, Note_on_c, 9, 35, 30
7, 96776, Note_on_c, 9, 51, 38
7, 96824, Note_on_c, 9, 35, 0
7, 96896, Note_on_c, 9, 35, 44
7, 96912, Note_on_c, 9, 51, 0
7, 96928, Note_on_c, 9, 35, 0
7, 96960, Note_on_c, 9, 44, 63
7, 96960, Note_on_c, 9, 51, 73
7, 97056, Note_on_c, 9, 44, 0
7, 97088, Note_on_c, 9, 51, 0
7, 97156, Note_on_c, 9, 51, 60
7, 97296, Note_on_c, 9, 51, 0
7, 97344, Note_on_c, 9, 44, 62
7, 97344, Note_on_c, 9, 51, 74
7, 97440, Note_on_c, 9, 44, 0
7, 97448, Note_on_c, 9, 51, 0
7, 97472, Note_on_c, 9, 35, 47
7, 97484, Note_on_c, 9, 51, 42
7, 97504, Note_on_c, 9, 51, 0
7, 97504, Note_on_c, 9, 35, 0
7, 97532, Note_on_c, 9, 51, 55
7, 97688, Note_on_c, 9, 51, 0
7, 97720, Note_on_c, 9, 51, 70
7, 97728, Note_on_c, 9, 44, 64
7, 97824, Note_on_c, 9, 44, 0
7, 97836, Note_on_c, 9, 51, 0
7, 97872, Note_on_c, 9, 51, 37
7, 97888, Note_on_c, 9, 51, 0
7, 97916, Note_on_c, 9, 51, 59
7, 98048, Note_on_c, 9, 34, 29
7, 98072, Note_on_c, 9, 51, 0
7, 98080, Note_on_c, 9, 34, 0
7, 98112, Note_on_c, 9, 44, 64
7, 98112, Note_on_c, 9, 51, 72
7, 98208, Note_on_c, 9, 44, 0
7, 98232, Note_on_c, 9, 51, 0
7, 98240, Note_on_c, 9, 35, 33
7, 98256, Note_on_c, 9, 51, 42
7, 98272, Note_on_c, 9, 51, 0
7, 98272, Note_on_c, 9, 35, 0
7, 98308, Note_on_c, 9, 51, 62
7, 98456, Note_on_c, 9, 51, 0
7, 98496, Note_on_c, 9, 44, 64
7, 98504, Note_on_c, 9, 51, 76
7, 98592, Note_on_c, 9, 44, 0
7, 98640, Note_on_c, 9, 51, 0
7, 98692, Note_on_c, 9, 51, 71
7, 98812, Note_on_c, 9, 51, 0
7, 98876, Note_on_c, 9, 51, 76
7, 98880, Note_on_c, 9, 44, 67
7, 98976, Note_on_c, 9, 44, 0
7, 99004, Note_on_c, 9, 51, 0
7, 99028, Note_on_c, 9, 51, 59
7, 99060, Note_on_c, 9, 51, 0
7, 99080, Note_on_c, 9, 51, 70
7, 99224, Note_on_c, 9, 51, 0
7, 99264, Note_on_c, 9, 44, 68
7, 99264, Note_on_c, 9, 51, 71
7, 99360, Note_on_c, 9, 51, 0
7, 99360, Note_on_c, 9, 44, 0
7, 99456, Note_on_c, 9, 51, 63
7, 99580, Note_on_c, 9, 51, 0
7, 99648, Note_on_c, 9, 46, 59
7, 99648, Note_on_c, 9, 59, 74
7, 99648, Note_on_c, 9, 35, 24
7, 99652, Note_on_c, 9, 51, 60
7, 99692, Note_on_c, 9, 35, 0
7, 99744, Note_on_c, 9, 46, 0
7, 99776, Note_on_c, 9, 59, 0
7, 99776, Note_on_c, 9, 51, 0
7, 99776, Note_on_c, 9, 35, 56
7, 99796, Note_on_c, 9, 49, 33
7, 99808, Note_on_c, 9, 35, 0
7, 99820, Note_on_c, 9, 49, 0
7, 99840, Note_on_c, 9, 51, 51
7, 99840, Note_on_c, 9, 59, 66
7, 99984, Note_on_c, 9, 59, 0
7, 100008, Note_on_c, 9, 51, 0
7, 100032, Note_on_c, 9, 44, 67
7, 100032, Note_on_c, 9, 48, 53
7, 100036, Note_on_c, 9, 51, 56
7, 100036, Note_on_c, 9, 59, 63
7, 100128, Note_on_c, 9, 44, 0
7, 100132, Note_on_c, 9, 48, 0
7, 100160, Note_on_c, 9, 48, 64
7, 100176, Note_on_c, 9, 59, 0
7, 100184, Note_on_c, 9, 51, 0
7, 100192, Note_on_c, 9, 48, 0
7, 100216, Note_on_c, 9, 59, 56
7, 100224, Note_on_c, 9, 51, 47
7, 100360, Note_on_c, 9, 59, 0
7, 100372, Note_on_c, 9, 51, 0
7, 100408, Note_on_c, 9, 51, 44
7, 100408, Note_on_c, 9, 59, 60
7, 100416, Note_on_c, 9, 44, 68
7, 100416, Note_on_c, 9, 37, 82
7, 100488, Note_on_c, 9, 37, 0
7, 100512, Note_on_c, 9, 44, 0
7, 100528, Note_on_c, 9, 51, 0
7, 100532, Note_on_c, 9, 59, 0
7, 100540, Note_on_c, 9, 50, 44
7, 100572, Note_on_c, 9, 50, 0
7, 100600, Note_on_c, 9, 59, 58
7, 100604, Note_on_c, 9, 51, 48
7, 100736, Note_on_c, 9, 59, 0
7, 100760, Note_on_c, 9, 51, 0
7, 100800, Note_on_c, 9, 44, 67
7, 100800, Note_on_c, 9, 59, 62
7, 100800, Note_on_c, 9, 48, 41
7, 100804, Note_on_c, 9, 51, 42
7, 100896, Note_on_c, 9, 44, 0
7, 100920, Note_on_c, 9, 48, 0
7, 100928, Note_on_c, 9, 59, 0
7, 100928, Note_on_c, 9, 48, 57
7, 100940, Note_on_c, 9, 51, 0
7, 100976, Note_on_c, 9, 48, 0
7, 100984, Note_on_c, 9, 59, 61
7, 100992, Note_on_c, 9, 51, 46
7, 101100, Note_on_c, 9, 59, 0
7, 101112, Note_on_c, 9, 51, 0
7, 101176, Note_on_c, 9, 59, 61
7, 101180, Note_on_c, 9, 51, 49
7, 101184, Note_on_c, 9, 44, 65
7, 101184, Note_on_c, 9, 37, 78
7, 101256, Note_on_c, 9, 51, 0
7, 101272, Note_on_c, 9, 37, 0
7, 101276, Note_on_c, 9, 59, 0
7, 101280, Note_on_c, 9, 44, 0
7, 101308, Note_on_c, 9, 51, 57
7, 101328, Note_on_c, 9, 51, 0
7, 101364, Note_on_c, 9, 59, 71
7, 101364, Note_on_c, 9, 51, 67
7, 101496, Note_on_c, 9, 59, 0
7, 101504, Note_on_c, 9, 35, 55
7, 101508, Note_on_c, 9, 51, 0
7, 101536, Note_on_c, 9, 35, 0
7, 101564, Note_on_c, 9, 59, 58
7, 101568, Note_on_c, 9, 44, 62
7, 101568, Note_on_c, 9, 51, 48
7, 101568, Note_on_c, 9, 48, 36
7, 101664, Note_on_c, 9, 44, 0
7, 101672, Note_on_c, 9, 59, 0
7, 101676, Note_on_c, 9, 51, 0
7, 101680, Note_on_c, 9, 48, 0
7, 101696, Note_on_c, 9, 48, 71
7, 101752, Note_on_c, 9, 59, 61
7, 101756, Note_on_c, 9, 51, 45
7, 101764, Note_on_c, 9, 48, 0
7, 101864, Note_on_c, 9, 59, 0
7, 101876, Note_on_c, 9, 51, 0
7, 101948, Note_on_c, 9, 59, 64
7, 101952, Note_on_c, 9, 44, 57
7, 101952, Note_on_c, 9, 51, 40
7, 101952, Note_on_c, 9, 37, 74
7, 102000, Note_on_c, 9, 37, 0
7, 102020, Note_on_c, 9, 59, 0
7, 102024, Note_on_c, 9, 51, 0
7, 102048, Note_on_c, 9, 44, 0
7, 102092, Note_on_c, 9, 51, 56
7, 102096, Note_on_c, 9, 59, 60
7, 102112, Note_on_c, 9, 59, 0
7, 102112, Note_on_c, 9, 51, 0
7, 102140, Note_on_c, 9, 51, 58
7, 102144, Note_on_c, 9, 59, 62
7, 102260, Note_on_c, 9, 59, 0
7, 102264, Note_on_c, 9, 51, 0
7, 102332, Note_on_c, 9, 59, 61
7, 102336, Note_on_c, 9, 44, 60
7, 102336, Note_on_c, 9, 51, 39
7, 102336, Note_on_c, 9, 48, 40
7, 102412, Note_on_c, 9, 59, 0
7, 102416, Note_on_c, 9, 51, 0
7, 102432, Note_on_c, 9, 44, 0
7, 102444, Note_on_c, 9, 48, 0
7, 102464, Note_on_c, 9, 48, 64
7, 102472, Note_on_c, 9, 51, 31
7, 102472, Note_on_c, 9, 59, 40
7, 102488, Note_on_c, 9, 59, 0
7, 102488, Note_on_c, 9, 51, 0
7, 102496, Note_on_c, 9, 48, 0
7, 102516, Note_on_c, 9, 51, 48
7, 102516, Note_on_c, 9, 59, 66
7, 102648, Note_on_c, 9, 59, 0
7, 102652, Note_on_c, 9, 51, 0
7, 102656, Note_on_c, 9, 37, 57
7, 102688, Note_on_c, 9, 37, 0
7, 102708, Note_on_c, 9, 59, 58
7, 102708, Note_on_c, 9, 51, 55
7, 102720, Note_on_c, 9, 44, 62
7, 102720, Note_on_c, 9, 37, 82
7, 102808, Note_on_c, 9, 59, 0
7, 102816, Note_on_c, 9, 37, 0
7, 102816, Note_on_c, 9, 44, 0
7, 102848, Note_on_c, 9, 51, 0
7, 102848, Note_on_c, 9, 53, 68
7, 102848, Note_on_c, 9, 37, 71
7, 102872, Note_on_c, 9, 53, 0
7, 102888, Note_on_c, 9, 37, 0
7, 102900, Note_on_c, 9, 51, 51
7, 102912, Note_on_c, 9, 59, 57
7, 103036, Note_on_c, 9, 59, 0
7, 103044, Note_on_c, 9, 51, 0
7, 103104, Note_on_c, 9, 44, 64
7, 103104, Note_on_c, 9, 48, 44
7, 103108, Note_on_c, 9, 51, 55
7, 103108, Note_on_c, 9, 59, 60
7, 103200, Note_on_c, 9, 44, 0
7, 103208, Note_on_c, 9, 48, 0
7, 103232, Note_on_c, 9, 51, 0
7, 103232, Note_on_c, 9, 59, 0
7, 103232, Note_on_c, 9, 48, 62
7, 103304, Note_on_c, 9, 51, 58
7, 103304, Note_on_c, 9, 59, 58
7, 103380, Note_on_c, 9, 59, 0
7, 103412, Note_on_c, 9, 51, 0
7, 103432, Note_on_c, 9, 53, 75
7, 103444, Note_on_c, 9, 59, 49
7, 103456, Note_on_c, 9, 59, 0
7, 103460, Note_on_c, 9, 48, 0
7, 103464, Note_on_c, 9, 53, 0
7, 103488, Note_on_c, 9, 44, 65
7, 103488, Note_on_c, 9, 51, 60
7, 103488, Note_on_c, 9, 37, 74
7, 103536, Note_on_c, 9, 37, 0
7, 103584, Note_on_c, 9, 44, 0
7, 103608, Note_on_c, 9, 51, 0
7, 103672, Note_on_c, 9, 59, 66
7, 103680, Note_on_c, 9, 51, 48
7, 103784, Note_on_c, 9, 59, 0
7, 103788, Note_on_c, 9, 51, 0
7, 103860, Note_on_c, 9, 51, 57
7, 103864, Note_on_c, 9, 59, 66
7, 103872, Note_on_c, 9, 44, 62
7, 103872, Note_on_c, 9, 48, 49
7, 103948, Note_on_c, 9, 59, 0
7, 103952, Note_on_c, 9, 51, 0
7, 103968, Note_on_c, 9, 44, 0
7, 103984, Note_on_c, 9, 48, 0
7, 104000, Note_on_c, 9, 48, 68
7, 104016, Note_on_c, 9, 51, 31
7, 104032, Note_on_c, 9, 51, 0
7, 104036, Note_on_c, 9, 48, 0
7, 104056, Note_on_c, 9, 51, 51
7, 104060, Note_on_c, 9, 59, 64
7, 104184, Note_on_c, 9, 59, 0
7, 104196, Note_on_c, 9, 51, 0
7, 104252, Note_on_c, 9, 59, 71
7, 104252, Note_on_c, 9, 51, 62
7, 104256, Note_on_c, 9, 44, 58
7, 104256, Note_on_c, 9, 37, 74
7, 104300, Note_on_c, 9, 37, 0
7, 104344, Note_on_c, 9, 59, 0
7, 104348, Note_on_c, 9, 51, 0
7, 104352, Note_on_c, 9, 44, 0
7, 104392, Note_on_c, 9, 51, 43
7, 104400, Note_on_c, 9, 59, 36
7, 104408, Note_on_c, 9, 51, 0
7, 104416, Note_on_c, 9, 59, 0
7, 104444, Note_on_c, 9, 59, 64
7, 104448, Note_on_c, 9, 51, 59
7, 104556, Note_on_c, 9, 59, 0
7, 104564, Note_on_c, 9, 51, 0
7, 104632, Note_on_c, 9, 51, 69
7, 104636, Note_on_c, 9, 59, 64
7, 104640, Note_on_c, 9, 44, 60
7, 104640, Note_on_c, 9, 48, 50
7, 104736, Note_on_c, 9, 44, 0
7, 104736, Note_on_c, 9, 51, 0
7, 104736, Note_on_c, 9, 59, 0
7, 104748, Note_on_c, 9, 48, 0
7, 104768, Note_on_c, 9, 48, 74
7, 104804, Note_on_c, 9, 48, 0
7, 104828, Note_on_c, 9, 51, 50
7, 104828, Note_on_c, 9, 59, 68
7, 104924, Note_on_c, 9, 59, 0
7, 104960, Note_on_c, 9, 51, 0
7, 104964, Note_on_c, 9, 53, 74
7, 104996, Note_on_c, 9, 53, 0
7, 105020, Note_on_c, 9, 51, 52
7, 105024, Note_on_c, 9, 44, 57
7, 105024, Note_on_c, 9, 37, 79
7, 105028, Note_on_c, 9, 59, 53
7, 105088, Note_on_c, 9, 37, 0
7, 105120, Note_on_c, 9, 44, 0
7, 105144, Note_on_c, 9, 59, 0
7, 105156, Note_on_c, 9, 51, 0
7, 105216, Note_on_c, 9, 59, 70
7, 105220, Note_on_c, 9, 51, 60
7, 105324, Note_on_c, 9, 59, 0
7, 105328, Note_on_c, 9, 51, 0
7, 105404, Note_on_c, 9, 51, 60
7, 105404, Note_on_c, 9, 59, 70
7, 105408, Note_on_c, 9, 44, 67
7, 105408, Note_on_c, 9, 48, 60
7, 105480, Note_on_c, 9, 51, 0
7, 105504, Note_on_c, 9, 44, 0
7, 105508, Note_on_c, 9, 59, 0
7, 105508, Note_on_c, 9, 48, 0
7, 105532, Note_on_c, 9, 51, 57
7, 105536, Note_on_c, 9, 48, 60
7, 105576, Note_on_c, 9, 51, 0
7, 105588, Note_on_c, 9, 59, 70
7, 105604, Note_on_c, 9, 48, 0
7, 105604, Note_on_c, 9, 51, 73
7, 105716, Note_on_c, 9, 59, 0
7, 105732, Note_on_c, 9, 51, 0
7, 105792, Note_on_c, 9, 46, 47
7, 105792, Note_on_c, 9, 37, 75
7, 105796, Note_on_c, 9, 51, 67
7, 105800, Note_on_c, 9, 59, 71
7, 105840, Note_on_c, 9, 37, 0
7, 105888, Note_on_c, 9, 46, 0
7, 105896, Note_on_c, 9, 59, 0
7, 105908, Note_on_c, 9, 51, 0
7, 105988, Note_on_c, 9, 51, 64
7, 105988, Note_on_c, 9, 59, 70
7, 106092, Note_on_c, 9, 59, 0
7, 106100, Note_on_c, 9, 51, 0
7, 106176, Note_on_c, 9, 44, 64
7, 106176, Note_on_c, 9, 51, 59
7, 106176, Note_on_c, 9, 48, 48
7, 106180, Note_on_c, 9, 59, 69
7, 106256, Note_on_c, 9, 59, 0
7, 106260, Note_on_c, 9, 51, 0
7, 106272, Note_on_c, 9, 44, 0
7, 106292, Note_on_c, 9, 48, 0
7, 106304, Note_on_c, 9, 48, 58
7, 106316, Note_on_c, 9, 51, 39
7, 106324, Note_on_c, 9, 59, 38
7, 106332, Note_on_c, 9, 51, 0
7, 106336, Note_on_c, 9, 48, 0
7, 106340, Note_on_c, 9, 59, 0
7, 106368, Note_on_c, 9, 51, 55
7, 106368, Note_on_c, 9, 59, 58
7, 106496, Note_on_c, 9, 59, 0
7, 106496, Note_on_c, 9, 35, 38
7, 106504, Note_on_c, 9, 51, 0
7, 106532, Note_on_c, 9, 35, 0
7, 106560, Note_on_c, 9, 44, 64
7, 106560, Note_on_c, 9, 37, 77
7, 106564, Note_on_c, 9, 51, 55
7, 106568, Note_on_c, 9, 59, 71
7, 106624, Note_on_c, 9, 37, 0
7, 106644, Note_on_c, 9, 51, 0
7, 106648, Note_on_c, 9, 59, 0
7, 106656, Note_on_c, 9, 44, 0
7, 106712, Note_on_c, 9, 51, 30
7, 106724, Note_on_c, 9, 51, 0
7, 106756, Note_on_c, 9, 59, 66
7, 106756, Note_on_c, 9, 51, 52
7, 106888, Note_on_c, 9, 59, 0
7, 106892, Note_on_c, 9, 51, 0
7, 106944, Note_on_c, 9, 44, 60
7, 106944, Note_on_c, 9, 51, 60
7, 106944, Note_on_c, 9, 48, 62
7, 106948, Note_on_c, 9, 59, 71
7, 107016, Note_on_c, 9, 59, 0
7, 107040, Note_on_c, 9, 44, 0
7, 107052, Note_on_c, 9, 48, 0
7, 107072, Note_on_c, 9, 51, 0
7, 107072, Note_on_c, 9, 48, 71
7, 107108, Note_on_c, 9, 48, 0
7, 107136, Note_on_c, 9, 51, 52
7, 107144, Note_on_c, 9, 59, 71
7, 107184, Note_on_c, 9, 51, 0
7, 107216, Note_on_c, 9, 59, 0
7, 107264, Note_on_c, 9, 35, 60
7, 107312, Note_on_c, 9, 35, 0
7, 107328, Note_on_c, 9, 44, 64
7, 107328, Note_on_c, 9, 37, 55
7, 107332, Note_on_c, 9, 51, 62
7, 107332, Note_on_c, 9, 59, 62
7, 107376, Note_on_c, 9, 37, 0
7, 107420, Note_on_c, 9, 59, 0
7, 107424, Note_on_c, 9, 51, 0
7, 107424, Note_on_c, 9, 44, 0
7, 107528, Note_on_c, 9, 51, 71
7, 107532, Note_on_c, 9, 59, 68
7, 107612, Note_on_c, 9, 59, 0
7, 107616, Note_on_c, 9, 51, 0
7, 107712, Note_on_c, 9, 44, 57
7, 107712, Note_on_c, 9, 48, 42
7, 107720, Note_on_c, 9, 51, 73
7, 107724, Note_on_c, 9, 59, 64
7, 107788, Note_on_c, 9, 59, 0
7, 107796, Note_on_c, 9, 51, 0
7, 107808, Note_on_c, 9, 44, 0
7, 107812, Note_on_c, 9, 48, 0
7, 107840, Note_on_c, 9, 48, 53
7, 107880, Note_on_c, 9, 48, 0
7, 107908, Note_on_c, 9, 51, 44
7, 107912, Note_on_c, 9, 59, 51
7, 107992, Note_on_c, 9, 59, 0
7, 108004, Note_on_c, 9, 51, 0
7, 108032, Note_on_c, 9, 35, 46
7, 108040, Note_on_c, 9, 53, 71
7, 108044, Note_on_c, 9, 59, 55
7, 108064, Note_on_c, 9, 35, 0
7, 108072, Note_on_c, 9, 59, 0
7, 108084, Note_on_c, 9, 53, 0
7, 108096, Note_on_c, 9, 44, 65
7, 108096, Note_on_c, 9, 37, 71
7, 108100, Note_on_c, 9, 51, 52
7, 108136, Note_on_c, 9, 37, 0
7, 108192, Note_on_c, 9, 44, 0
7, 108204, Note_on_c, 9, 51, 0
7, 108284, Note_on_c, 9, 59, 66
7, 108288, Note_on_c, 9, 51, 51
7, 108376, Note_on_c, 9, 59, 0
7, 108384, Note_on_c, 9, 51, 0
7, 108476, Note_on_c, 9, 59, 58
7, 108480, Note_on_c, 9, 44, 67
7, 108480, Note_on_c, 9, 51, 43
7, 108480, Note_on_c, 9, 48, 66
7, 108568, Note_on_c, 9, 59, 0
7, 108576, Note_on_c, 9, 44, 0
7, 108576, Note_on_c, 9, 51, 0
7, 108584, Note_on_c, 9, 48, 0
7, 108608, Note_on_c, 9, 48, 71
7, 108640, Note_on_c, 9, 48, 0
7, 108672, Note_on_c, 9, 51, 46
7, 108672, Note_on_c, 9, 59, 52
7, 108756, Note_on_c, 9, 59, 0
7, 108772, Note_on_c, 9, 51, 0
7, 108800, Note_on_c, 9, 59, 47
7, 108800, Note_on_c, 9, 53, 68
7, 108800, Note_on_c, 9, 35, 28
7, 108832, Note_on_c, 9, 35, 0
7, 108836, Note_on_c, 9, 59, 0
7, 108840, Note_on_c, 9, 53, 0
7, 108864, Note_on_c, 9, 44, 65
7, 108864, Note_on_c, 9, 59, 32
7, 108876, Note_on_c, 9, 51, 20
7, 108948, Note_on_c, 9, 59, 0
7, 108960, Note_on_c, 9, 44, 0
7, 108964, Note_on_c, 9, 51, 0
7, 109048, Note_on_c, 9, 59, 52
7, 109048, Note_on_c, 9, 51, 46
7, 109124, Note_on_c, 9, 59, 0
7, 109132, Note_on_c, 9, 51, 0
7, 109232, Note_on_c, 9, 59, 56
7, 109236, Note_on_c, 9, 51, 46
7, 109240, Note_on_c, 9, 46, 45
7, 109248, Note_on_c, 9, 44, 65
7, 109248, Note_on_c, 9, 48, 42
7, 109300, Note_on_c, 9, 46, 0
7, 109316, Note_on_c, 9, 59, 0
7, 109320, Note_on_c, 9, 51, 0
7, 109344, Note_on_c, 9, 44, 0
7, 109352, Note_on_c, 9, 48, 0
7, 109376, Note_on_c, 9, 48, 60
7, 109432, Note_on_c, 9, 48, 0
7, 109432, Note_on_c, 9, 46, 44
7, 109436, Note_on_c, 9, 51, 56
7, 109436, Note_on_c, 9, 59, 62
7, 109464, Note_on_c, 9, 46, 0
7, 109524, Note_on_c, 9, 59, 0
7, 109536, Note_on_c, 9, 51, 0
7, 109632, Note_on_c, 9, 44, 64
7, 109632, Note_on_c, 9, 51, 53
7, 109632, Note_on_c, 9, 37, 91
7, 109636, Note_on_c, 9, 59, 57
7, 109680, Note_on_c, 9, 37, 0
7, 109716, Note_on_c, 9, 59, 0
7, 109724, Note_on_c, 9, 51, 0
7, 109728, Note_on_c, 9, 44, 0
7, 109828, Note_on_c, 9, 59, 66
7, 109832, Note_on_c, 9, 51, 54
7, 109908, Note_on_c, 9, 59, 0
7, 109916, Note_on_c, 9, 51, 0
7, 110016, Note_on_c, 9, 44, 64
7, 110016, Note_on_c, 9, 48, 47
7, 110020, Note_on_c, 9, 51, 64
7, 110020, Note_on_c, 9, 59, 64
7, 110104, Note_on_c, 9, 59, 0
7, 110112, Note_on_c, 9, 44, 0
7, 110124, Note_on_c, 9, 51, 0
7, 110136, Note_on_c, 9, 48, 0
7, 110144, Note_on_c, 9, 48, 68
7, 110148, Note_on_c, 9, 59, 55
7, 110156, Note_on_c, 9, 53, 57
7, 110156, Note_on_c, 9, 52, 57
7, 110176, Note_on_c, 9, 48, 0
7, 110192, Note_on_c, 9, 52, 0
7, 110192, Note_on_c, 9, 53, 0
7, 110196, Note_on_c, 9, 59, 0
7, 110208, Note_on_c, 9, 59, 26
7, 110212, Note_on_c, 9, 51, 50
7, 110340, Note_on_c, 9, 59, 0
7, 110352, Note_on_c, 9, 51, 0
7, 110400, Note_on_c, 9, 44, 61
7, 110400, Note_on_c, 9, 37, 85
7, 110404, Note_on_c, 9, 59, 62
7, 110404, Note_on_c, 9, 51, 48
7, 110448, Note_on_c, 9, 37, 0
7, 110496, Note_on_c, 9, 44, 0
7, 110520, Note_on_c, 9, 59, 0
7, 110536, Note_on_c, 9, 51, 0
7, 110604, Note_on_c, 9, 51, 53
7, 110604, Note_on_c, 9, 59, 56
7, 110704, Note_on_c, 9, 59, 0
7, 110712, Note_on_c, 9, 51, 0
7, 110784, Note_on_c, 9, 44, 64
7, 110784, Note_on_c, 9, 48, 49
7, 110788, Note_on_c, 9, 59, 60
7, 110792, Note_on_c, 9, 51, 47
7, 110876, Note_on_c, 9, 59, 0
7, 110880, Note_on_c, 9, 44, 0
7, 110892, Note_on_c, 9, 48, 0
7, 110900, Note_on_c, 9, 51, 0
7, 110912, Note_on_c, 9, 48, 68
7, 110948, Note_on_c, 9, 48, 0
7, 110980, Note_on_c, 9, 59, 60
7, 110980, Note_on_c, 9, 51, 47
7, 111056, Note_on_c, 9, 59, 0
7, 111084, Note_on_c, 9, 51, 0
7, 111112, Note_on_c, 9, 53, 56
7, 111144, Note_on_c, 9, 53, 0
7, 111168, Note_on_c, 9, 44, 69
7, 111168, Note_on_c, 9, 59, 58
7, 111168, Note_on_c, 9, 37, 79
7, 111172, Note_on_c, 9, 51, 36
7, 111228, Note_on_c, 9, 37, 0
7, 111248, Note_on_c, 9, 59, 0
7, 111264, Note_on_c, 9, 44, 0
7, 111276, Note_on_c, 9, 51, 0
7, 111352, Note_on_c, 9, 59, 57
7, 111356, Note_on_c, 9, 51, 37
7, 111460, Note_on_c, 9, 59, 0
7, 111472, Note_on_c, 9, 51, 0
7, 111548, Note_on_c, 9, 51, 47
7, 111552, Note_on_c, 9, 44, 64
7, 111552, Note_on_c, 9, 59, 47
7, 111552, Note_on_c, 9, 48, 85
7, 111592, Note_on_c, 9, 59, 0
7, 111616, Note_on_c, 9, 51, 0
7, 111648, Note_on_c, 9, 44, 0
7, 111664, Note_on_c, 9, 48, 0
7, 111680, Note_on_c, 9, 48, 70
7, 111732, Note_on_c, 9, 48, 0
7, 111740, Note_on_c, 9, 59, 57
7, 111744, Note_on_c, 9, 51, 67
7, 111812, Note_on_c, 9, 59, 0
7, 111828, Note_on_c, 9, 51, 0
7, 111872, Note_on_c, 9, 35, 33
7, 111904, Note_on_c, 9, 35, 0
7, 111936, Note_on_c, 9, 44, 69
7, 111936, Note_on_c, 9, 51, 71
7, 111936, Note_on_c, 9, 59, 67
7, 111936, Note_on_c, 9, 37, 79
7, 112016, Note_on_c, 9, 59, 0
7, 112024, Note_on_c, 9, 51, 0
7, 112032, Note_on_c, 9, 44, 0
7, 112048, Note_on_c, 9, 37, 0
7, 112132, Note_on_c, 9, 51, 59
7, 112136, Note_on_c, 9, 59, 37
7, 112208, Note_on_c, 9, 59, 0
7, 112228, Note_on_c, 9, 51, 0
7, 112320, Note_on_c, 9, 44, 65
7, 112320, Note_on_c, 9, 59, 58
7, 112320, Note_on_c, 9, 48, 110
7, 112324, Note_on_c, 9, 51, 52
7, 112380, Note_on_c, 9, 59, 0
7, 112388, Note_on_c, 9, 51, 0
7, 112416, Note_on_c, 9, 44, 0
7, 112424, Note_on_c, 9, 48, 0
7, 112448, Note_on_c, 9, 48, 99
7, 112464, Note_on_c, 9, 51, 39
7, 112476, Note_on_c, 9, 51, 0
7, 112512, Note_on_c, 9, 59, 61
7, 112512, Note_on_c, 9, 51, 56
7, 112612, Note_on_c, 9, 48, 0
7, 112620, Note_on_c, 9, 59, 0
7, 112628, Note_on_c, 9, 51, 0
7, 112704, Note_on_c, 9, 44, 63
7, 112704, Note_on_c, 9, 51, 72
7, 112704, Note_on_c, 9, 37, 62
7, 112708, Note_on_c, 9, 59, 68
7, 112776, Note_on_c, 9, 51, 0
7, 112780, Note_on_c, 9, 59, 0
7, 112800, Note_on_c, 9, 37, 0
7, 112800, Note_on_c, 9, 44, 0
7, 112848, Note_on_c, 9, 51, 57
7, 112856, Note_on_c, 9, 59, 28
7, 112872, Note_on_c, 9, 59, 0
7, 112872, Note_on_c, 9, 51, 0
7, 112900, Note_on_c, 9, 51, 46
7, 112900, Note_on_c, 9, 59, 64
7, 112996, Note_on_c, 9, 59, 0
7, 113008, Note_on_c, 9, 51, 0
7, 113088, Note_on_c, 9, 44, 65
7, 113088, Note_on_c, 9, 51, 70
7, 113088, Note_on_c, 9, 59, 64
7, 113088, Note_on_c, 9, 48, 99
7, 113168, Note_on_c, 9, 59, 0
7, 113172, Note_on_c, 9, 48, 0
7, 113176, Note_on_c, 9, 51, 0
7, 113184, Note_on_c, 9, 44, 0
7, 113216, Note_on_c, 9, 48, 113
7, 113280, Note_on_c, 9, 51, 69
7, 113284, Note_on_c, 9, 59, 64
7, 113332, Note_on_c, 9, 48, 0
7, 113360, Note_on_c, 9, 59, 0
7, 113364, Note_on_c, 9, 51, 0
7, 113412, Note_on_c, 9, 59, 53
7, 113416, Note_on_c, 9, 53, 62
7, 113456, Note_on_c, 9, 59, 0
7, 113464, Note_on_c, 9, 53, 0
7, 113472, Note_on_c, 9, 44, 64
7, 113472, Note_on_c, 9, 37, 68
7, 113476, Note_on_c, 9, 51, 50
7, 113496, Note_on_c, 9, 59, 22
7, 113536, Note_on_c, 9, 37, 0
7, 113568, Note_on_c, 9, 44, 0
7, 113580, Note_on_c, 9, 59, 0
7, 113592, Note_on_c, 9, 51, 0
7, 113656, Note_on_c, 9, 59, 61
7, 113660, Note_on_c, 9, 51, 50
7, 113752, Note_on_c, 9, 51, 0
7, 113752, Note_on_c, 9, 59, 0
7, 113848, Note_on_c, 9, 59, 65
7, 113852, Note_on_c, 9, 51, 51
7, 113856, Note_on_c, 9, 44, 68
7, 113856, Note_on_c, 9, 48, 58
7, 113952, Note_on_c, 9, 44, 0
7, 113952, Note_on_c, 9, 59, 0
7, 113960, Note_on_c, 9, 51, 0
7, 113968, Note_on_c, 9, 48, 0
7, 113984, Note_on_c, 9, 48, 77
7, 114044, Note_on_c, 9, 59, 64
7, 114052, Note_on_c, 9, 51, 50
7, 114136, Note_on_c, 9, 59, 0
7, 114144, Note_on_c, 9, 51, 0
7, 114220, Note_on_c, 9, 48, 0
7, 114236, Note_on_c, 9, 59, 65
7, 114240, Note_on_c, 9, 44, 67
7, 114240, Note_on_c, 9, 37, 75
7, 114244, Note_on_c, 9, 51, 50
7, 114288, Note_on_c, 9, 37, 0
7, 114328, Note_on_c, 9, 59, 0
7, 114332, Note_on_c, 9, 51, 0
7, 114336, Note_on_c, 9, 44, 0
7, 114428, Note_on_c, 9, 59, 70
7, 114432, Note_on_c, 9, 51, 50
7, 114516, Note_on_c, 9, 59, 0
7, 114524, Note_on_c, 9, 51, 0
7, 114560, Note_on_c, 9, 35, 81
7, 114592, Note_on_c, 9, 35, 0
7, 114620, Note_on_c, 9, 59, 64
7, 114624, Note_on_c, 9, 44, 65
7, 114624, Note_on_c, 9, 51, 50
7, 114624, Note_on_c, 9, 48, 60
7, 114688, Note_on_c, 9, 51, 0
7, 114708, Note_on_c, 9, 59, 0
7, 114720, Note_on_c, 9, 44, 0
7, 114736, Note_on_c, 9, 48, 0
7, 114752, Note_on_c, 9, 48, 80
7, 114816, Note_on_c, 9, 59, 68
7, 114820, Note_on_c, 9, 51, 53
7, 114884, Note_on_c, 9, 51, 0
7, 114888, Note_on_c, 9, 59, 0
7, 115008, Note_on_c, 9, 48, 0
7, 115008, Note_on_c, 9, 44, 67
7, 115008, Note_on_c, 9, 37, 84
7, 115012, Note_on_c, 9, 59, 64
7, 115016, Note_on_c, 9, 51, 49
7, 115056, Note_on_c, 9, 37, 0
7, 115076, Note_on_c, 9, 51, 0
7, 115080, Note_on_c, 9, 59, 0
7, 115104, Note_on_c, 9, 44, 0
7, 115148, Note_on_c, 9, 59, 52
7, 115148, Note_on_c, 9, 53, 68
7, 115188, Note_on_c, 9, 59, 0
7, 115192, Note_on_c, 9, 53, 0
7, 115204, Note_on_c, 9, 51, 43
7, 115228, Note_on_c, 9, 59, 22
7, 115296, Note_on_c, 9, 59, 0
7, 115308, Note_on_c, 9, 51, 0
7, 115328, Note_on_c, 9, 35, 61
7, 115360, Note_on_c, 9, 35, 0
7, 115392, Note_on_c, 9, 44, 65
7, 115392, Note_on_c, 9, 59, 64
7, 115392, Note_on_c, 9, 48, 60
7, 115396, Note_on_c, 9, 51, 46
7, 115488, Note_on_c, 9, 59, 0
7, 115488, Note_on_c, 9, 44, 0
7, 115492, Note_on_c, 9, 51, 0
7, 115508, Note_on_c, 9, 48, 0
7, 115520, Note_on_c, 9, 48, 77
7, 115580, Note_on_c, 9, 59, 66
7, 115584, Note_on_c, 9, 51, 53
7, 115624, Note_on_c, 9, 51, 0
7, 115632, Note_on_c, 9, 59, 0
7, 115768, Note_on_c, 9, 48, 0
7, 115776, Note_on_c, 9, 44, 65
7, 115776, Note_on_c, 9, 37, 77
7, 115784, Note_on_c, 9, 51, 68
7, 115784, Note_on_c, 9, 59, 61
7, 115816, Note_on_c, 9, 51, 0
7, 115816, Note_on_c, 9, 37, 0
7, 115836, Note_on_c, 9, 59, 0
7, 115872, Note_on_c, 9, 44, 0
7, 115980, Note_on_c, 9, 51, 51
7, 115980, Note_on_c, 9, 59, 59
7, 116060, Note_on_c, 9, 59, 0
7, 116060, Note_on_c, 9, 51, 0
7, 116160, Note_on_c, 9, 44, 63
7, 116160, Note_on_c, 9, 48, 92
7, 116168, Note_on_c, 9, 59, 62
7, 116168, Note_on_c, 9, 51, 49
7, 116232, Note_on_c, 9, 59, 0
7, 116240, Note_on_c, 9, 51, 0
7, 116256, Note_on_c, 9, 44, 0
7, 116276, Note_on_c, 9, 48, 0
7, 116288, Note_on_c, 9, 48, 87
7, 116360, Note_on_c, 9, 48, 0
7, 116360, Note_on_c, 9, 51, 51
7, 116360, Note_on_c, 9, 59, 66
7, 116412, Note_on_c, 9, 59, 0
7, 116412, Note_on_c, 9, 51, 0
7, 116540, Note_on_c, 9, 51, 53
7, 116544, Note_on_c, 9, 44, 69
7, 116544, Note_on_c, 9, 59, 66
7, 116544, Note_on_c, 9, 37, 52
7, 116544, Note_on_c, 9, 31, 37
7, 116576, Note_on_c, 9, 31, 0
7, 116580, Note_on_c, 9, 37, 0
7, 116600, Note_on_c, 9, 59, 0
7, 116600, Note_on_c, 9, 51, 0
7, 116640, Note_on_c, 9, 44, 0
7, 116736, Note_on_c, 9, 51, 57
7, 116740, Note_on_c, 9, 59, 77
7, 116824, Note_on_c, 9, 59, 0
7, 116824, Note_on_c, 9, 51, 0
7, 116924, Note_on_c, 9, 59, 66
7, 116924, Note_on_c, 9, 51, 49
7, 116928, Note_on_c, 9, 44, 69
7, 116928, Note_on_c, 9, 48, 77
7, 117000, Note_on_c, 9, 51, 0
7, 117004, Note_on_c, 9, 59, 0
7, 117024, Note_on_c, 9, 44, 0
7, 117032, Note_on_c, 9, 48, 0
7, 117056, Note_on_c, 9, 48, 72
7, 117088, Note_on_c, 9, 48, 0
7, 117116, Note_on_c, 9, 51, 52
7, 117120, Note_on_c, 9, 59, 66
7, 117188, Note_on_c, 9, 59, 0
7, 117188, Note_on_c, 9, 51, 0
7, 117252, Note_on_c, 9, 50, 57
7, 117268, Note_on_c, 9, 50, 0
7, 117300, Note_on_c, 9, 51, 56
7, 117308, Note_on_c, 9, 59, 72
7, 117312, Note_on_c, 9, 44, 67
7, 117312, Note_on_c, 9, 37, 72
7, 117348, Note_on_c, 9, 37, 0
7, 117408, Note_on_c, 9, 44, 0
7, 117412, Note_on_c, 9, 59, 0
7, 117420, Note_on_c, 9, 51, 0
7, 117496, Note_on_c, 9, 51, 58
7, 117500, Note_on_c, 9, 59, 68
7, 117584, Note_on_c, 9, 59, 0
7, 117584, Note_on_c, 9, 51, 0
7, 117688, Note_on_c, 9, 51, 57
7, 117692, Note_on_c, 9, 59, 66
7, 117696, Note_on_c, 9, 44, 67
7, 117696, Note_on_c, 9, 48, 47
7, 117776, Note_on_c, 9, 51, 0
7, 117780, Note_on_c, 9, 59, 0
7, 117792, Note_on_c, 9, 44, 0
7, 117804, Note_on_c, 9, 48, 0
7, 117824, Note_on_c, 9, 48, 66
7, 117860, Note_on_c, 9, 48, 0
7, 117880, Note_on_c, 9, 59, 63
7, 117884, Note_on_c, 9, 51, 56
7, 117964, Note_on_c, 9, 59, 0
7, 117968, Note_on_c, 9, 51, 0
7, 118076, Note_on_c, 9, 51, 56
7, 118080, Note_on_c, 9, 46, 53
7, 118080, Note_on_c, 9, 59, 62
7, 118080, Note_on_c, 9, 37, 70
7, 118128, Note_on_c, 9, 37, 0
7, 118160, Note_on_c, 9, 59, 0
7, 118164, Note_on_c, 9, 51, 0
7, 118176, Note_on_c, 9, 46, 0
7, 118264, Note_on_c, 9, 51, 57
7, 118268, Note_on_c, 9, 59, 65
7, 118348, Note_on_c, 9, 59, 0
7, 118348, Note_on_c, 9, 51, 0
7, 118456, Note_on_c, 9, 51, 61
7, 118460, Note_on_c, 9, 59, 65
7, 118464, Note_on_c, 9, 44, 59
7, 118464, Note_on_c, 9, 48, 54
7, 118520, Note_on_c, 9, 59, 0
7, 118560, Note_on_c, 9, 44, 0
7, 118568, Note_on_c, 9, 51, 0
7, 118572, Note_on_c, 9, 48, 0
7, 118592, Note_on_c, 9, 53, 59
7, 118592, Note_on_c, 9, 48, 66
7, 118620, Note_on_c, 9, 53, 0
7, 118628, Note_on_c, 9, 48, 0
7, 118652, Note_on_c, 9, 51, 52
7, 118652, Note_on_c, 9, 59, 62
7, 118756, Note_on_c, 9, 59, 0
7, 118760, Note_on_c, 9, 51, 0
7, 118840, Note_on_c, 9, 51, 55
7, 118844, Note_on_c, 9, 59, 66
7, 118848, Note_on_c, 9, 44, 65
7, 118848, Note_on_c, 9, 37, 90
7, 118892, Note_on_c, 9, 37, 0
7, 118920, Note_on_c, 9, 51, 0
7, 118924, Note_on_c, 9, 59, 0
7, 118944, Note_on_c, 9, 44, 0
7, 119036, Note_on_c, 9, 51, 53
7, 119036, Note_on_c, 9, 59, 63
7, 119116, Note_on_c, 9, 51, 0
7, 119120, Note_on_c, 9, 59, 0
7, 119224, Note_on_c, 9, 51, 54
7, 119228, Note_on_c, 9, 59, 69
7, 119232, Note_on_c, 9, 44, 68
7, 119232, Note_on_c, 9, 48, 37
7, 119308, Note_on_c, 9, 51, 0
7, 119312, Note_on_c, 9, 59, 0
7, 119328, Note_on_c, 9, 44, 0
7, 119332, Note_on_c, 9, 48, 0
7, 119360, Note_on_c, 9, 48, 54
7, 119416, Note_on_c, 9, 51, 57
7, 119424, Note_on_c, 9, 59, 73
7, 119460, Note_on_c, 9, 48, 0
7, 119516, Note_on_c, 9, 51, 0
7, 119520, Note_on_c, 9, 59, 0
7, 119552, Note_on_c, 9, 37, 59
7, 119604, Note_on_c, 9, 37, 0
7, 119612, Note_on_c, 9, 51, 47
7, 119612, Note_on_c, 9, 59, 64
7, 119616, Note_on_c, 9, 44, 69
7, 119656, Note_on_c, 9, 59, 0
7, 119656, Note_on_c, 9, 51, 0
7, 119712, Note_on_c, 9, 44, 0
7, 119752, Note_on_c, 9, 51, 47
7, 119752, Note_on_c, 9, 59, 68
7, 119764, Note_on_c, 9, 51, 0
7, 119772, Note_on_c, 9, 59, 0
7, 119804, Note_on_c, 9, 51, 57
7, 119808, Note_on_c, 9, 59, 64
7, 120000, Note_on_c, 9, 44, 68
7, 120000, Note_on_c, 9, 48, 55
7, 120052, Note_on_c, 9, 51, 0
7, 120056, Note_on_c, 9, 59, 0
7, 120096, Note_on_c, 9, 44, 0
7, 120104, Note_on_c, 9, 48, 0
7, 120124, Note_on_c, 9, 51, 62
7, 120128, Note_on_c, 9, 48, 61
7, 120132, Note_on_c, 9, 59, 63
7, 120156, Note_on_c, 9, 59, 0
7, 120160, Note_on_c, 9, 51, 0
7, 120188, Note_on_c, 9, 51, 51
7, 120192, Note_on_c, 9, 59, 56
7, 120232, Note_on_c, 9, 48, 0
7, 120308, Note_on_c, 9, 59, 0
7, 120324, Note_on_c, 9, 51, 0
7, 120328, Note_on_c, 9, 53, 62
7, 120368, Note_on_c, 9, 53, 0
7, 120380, Note_on_c, 9, 51, 38
7, 120384, Note_on_c, 9, 44, 69
7, 120384, Note_on_c, 9, 54, 43
7, 120416, Note_on_c, 9, 54, 0
7, 120480, Note_on_c, 9, 44, 0
7, 120504, Note_on_c, 9, 51, 0
7, 120576, Note_on_c, 9, 59, 57
7, 120580, Note_on_c, 9, 51, 37
7, 120668, Note_on_c, 9, 51, 0
7, 120668, Note_on_c, 9, 59, 0
7, 120768, Note_on_c, 9, 44, 67
7, 120768, Note_on_c, 9, 51, 50
7, 120768, Note_on_c, 9, 48, 53
7, 120772, Note_on_c, 9, 59, 57
7, 120856, Note_on_c, 9, 59, 0
7, 120860, Note_on_c, 9, 51, 0
7, 120864, Note_on_c, 9, 44, 0
7, 120880, Note_on_c, 9, 48, 0
7, 120896, Note_on_c, 9, 48, 60
7, 120964, Note_on_c, 9, 51, 51
7, 120964, Note_on_c, 9, 59, 67
7, 121048, Note_on_c, 9, 51, 0
7, 121064, Note_on_c, 9, 59, 0
7, 121080, Note_on_c, 9, 48, 0
7, 121148, Note_on_c, 9, 51, 40
7, 121152, Note_on_c, 9, 44, 64
7, 121152, Note_on_c, 9, 59, 58
7, 121152, Note_on_c, 9, 37, 90
7, 121192, Note_on_c, 9, 59, 0
7, 121192, Note_on_c, 9, 51, 0
7, 121216, Note_on_c, 9, 37, 0
7, 121248, Note_on_c, 9, 44, 0
7, 121288, Note_on_c, 9, 51, 34
7, 121292, Note_on_c, 9, 59, 47
7, 121300, Note_on_c, 9, 51, 0
7, 121308, Note_on_c, 9, 59, 0
7, 121340, Note_on_c, 9, 51, 55
7, 121344, Note_on_c, 9, 59, 62
7, 121536, Note_on_c, 9, 44, 65
7, 121536, Note_on_c, 9, 48, 52
7, 121592, Note_on_c, 9, 51, 0
7, 121600, Note_on_c, 9, 59, 0
7, 121632, Note_on_c, 9, 44, 0
7, 121640, Note_on_c, 9, 48, 0
7, 121664, Note_on_c, 9, 51, 56
7, 121664, Note_on_c, 9, 48, 63
7, 121672, Note_on_c, 9, 59, 54
7, 121688, Note_on_c, 9, 59, 0
7, 121688, Note_on_c, 9, 51, 0
7, 121704, Note_on_c, 9, 48, 0
7, 121728, Note_on_c, 9, 59, 70
7, 121732, Note_on_c, 9, 51, 72
7, 121856, Note_on_c, 9, 59, 0
7, 121868, Note_on_c, 9, 51, 0
7, 121920, Note_on_c, 9, 44, 64
7, 121920, Note_on_c, 9, 59, 61
7, 121920, Note_on_c, 9, 37, 72
7, 121924, Note_on_c, 9, 51, 49
7, 122000, Note_on_c, 9, 37, 0
7, 122016, Note_on_c, 9, 44, 0
7, 122024, Note_on_c, 9, 59, 0
7, 122024, Note_on_c, 9, 51, 0
7, 122116, Note_on_c, 9, 59, 65
7, 122116, Note_on_c, 9, 51, 51
7, 122200, Note_on_c, 9, 59, 0
7, 122232, Note_on_c, 9, 51, 0
7, 122300, Note_on_c, 9, 59, 63
7, 122300, Note_on_c, 9, 51, 47
7, 122304, Note_on_c, 9, 44, 67
7, 122304, Note_on_c, 9, 48, 68
7, 122368, Note_on_c, 9, 59, 0
7, 122388, Note_on_c, 9, 51, 0
7, 122400, Note_on_c, 9, 44, 0
7, 122412, Note_on_c, 9, 48, 0
7, 122432, Note_on_c, 9, 48, 63
7, 122496, Note_on_c, 9, 51, 47
7, 122496, Note_on_c, 9, 59, 51
7, 122536, Note_on_c, 9, 51, 0
7, 122548, Note_on_c, 9, 48, 0
7, 122560, Note_on_c, 9, 59, 0
7, 122688, Note_on_c, 9, 44, 62
7, 122688, Note_on_c, 9, 51, 70
7, 122688, Note_on_c, 9, 37, 71
7, 122768, Note_on_c, 9, 37, 0
7, 122784, Note_on_c, 9, 44, 0
7, 122808, Note_on_c, 9, 51, 0
7, 122888, Note_on_c, 9, 51, 58
7, 122992, Note_on_c, 9, 51, 0
7, 123072, Note_on_c, 9, 44, 68
7, 123072, Note_on_c, 9, 48, 54
7, 123076, Note_on_c, 9, 51, 63
7, 123168, Note_on_c, 9, 44, 0
7, 123180, Note_on_c, 9, 48, 0
7, 123192, Note_on_c, 9, 51, 0
7, 123200, Note_on_c, 9, 48, 68
7, 123276, Note_on_c, 9, 51, 57
7, 123440, Note_on_c, 9, 48, 0
7, 123456, Note_on_c, 9, 44, 64
7, 123456, Note_on_c, 9, 37, 58
7, 123524, Note_on_c, 9, 51, 0
7, 123532, Note_on_c, 9, 37, 0
7, 123552, Note_on_c, 9, 44, 0
7, 123588, Note_on_c, 9, 51, 57
7, 123612, Note_on_c, 9, 51, 0
7, 123644, Note_on_c, 9, 51, 55
7, 123840, Note_on_c, 9, 44, 67
7, 123884, Note_on_c, 9, 51, 0
7, 123936, Note_on_c, 9, 44, 0
7, 123980, Note_on_c, 9, 51, 49
7, 124008, Note_on_c, 9, 51, 0
7, 124036, Note_on_c, 9, 51, 51
7, 124160, Note_on_c, 9, 34, 46
7, 124196, Note_on_c, 9, 34, 0
7, 124224, Note_on_c, 9, 46, 58
7, 124284, Note_on_c, 9, 51, 0
7, 124320, Note_on_c, 9, 46, 0
7, 124352, Note_on_c, 9, 34, 44
7, 124368, Note_on_c, 9, 51, 46
7, 124384, Note_on_c, 9, 34, 0
7, 124404, Note_on_c, 9, 51, 0
7, 124428, Note_on_c, 9, 51, 62
7, 124480, Note_on_c, 9, 35, 48
7, 124756, Note_on_c, 9, 51, 0
7, 124800, Note_on_c, 9, 44, 68
7, 124804, Note_on_c, 9, 51, 71
7, 124836, Note_on_c, 9, 35, 0
7, 124924, Note_on_c, 9, 44, 0
7, 125096, Note_on_c, 9, 51, 0
7, 125120, Note_on_c, 9, 35, 44
7, 125148, Note_on_c, 9, 51, 39
7, 125160, Note_on_c, 9, 35, 0
7, 125164, Note_on_c, 9, 51, 0
7, 125184, Note_on_c, 9, 35, 48
7, 125200, Note_on_c, 9, 51, 61
7, 125316, Note_on_c, 9, 35, 0
7, 125480, Note_on_c, 9, 51, 0
7, 125516, Note_on_c, 9, 51, 45
7, 125540, Note_on_c, 9, 51, 0
7, 125568, Note_on_c, 9, 44, 65
7, 125572, Note_on_c, 9, 51, 62
7, 125676, Note_on_c, 9, 44, 0
7, 125840, Note_on_c, 9, 51, 0
7, 125880, Note_on_c, 9, 53, 71
7, 125888, Note_on_c, 9, 35, 26
7, 125920, Note_on_c, 9, 35, 0
7, 125920, Note_on_c, 9, 53, 0
7, 125948, Note_on_c, 9, 51, 39
7, 125952, Note_on_c, 9, 35, 33
7, 125984, Note_on_c, 9, 35, 0
7, 126080, Note_on_c, 9, 37, 49
7, 126112, Note_on_c, 9, 37, 0
7, 126144, Note_on_c, 9, 37, 30
7, 126192, Note_on_c, 9, 37, 0
7, 126212, Note_on_c, 9, 51, 0
7, 126280, Note_on_c, 9, 51, 33
7, 126292, Note_on_c, 9, 51, 0
7, 126336, Note_on_c, 9, 44, 67
7, 126336, Note_on_c, 9, 51, 60
7, 126336, Note_on_c, 9, 35, 36
7, 126412, Note_on_c, 9, 35, 0
7, 126432, Note_on_c, 9, 44, 0
7, 126624, Note_on_c, 9, 51, 0
7, 126736, Note_on_c, 9, 51, 62
7, 126848, Note_on_c, 9, 31, 36
7, 126892, Note_on_c, 9, 31, 0
7, 126912, Note_on_c, 9, 35, 29
7, 127012, Note_on_c, 9, 35, 0
7, 127036, Note_on_c, 9, 51, 0
7, 127040, Note_on_c, 9, 35, 48
7, 127052, Note_on_c, 9, 53, 60
7, 127072, Note_on_c, 9, 35, 0
7, 127084, Note_on_c, 9, 53, 0
7, 127104, Note_on_c, 9, 44, 71
7, 127112, Note_on_c, 9, 51, 38
7, 127180, Note_on_c, 9, 51, 0
7, 127200, Note_on_c, 9, 44, 0
7, 127232, Note_on_c, 9, 53, 76
7, 127276, Note_on_c, 9, 53, 0
7, 127320, Note_on_c, 9, 51, 13
7, 127392, Note_on_c, 9, 51, 0
7, 127424, Note_on_c, 9, 51, 46
7, 127424, Note_on_c, 9, 32, 34
7, 127444, Note_on_c, 9, 51, 0
7, 127456, Note_on_c, 9, 32, 0
7, 127484, Note_on_c, 9, 51, 54
7, 127488, Note_on_c, 9, 35, 30
7, 127592, Note_on_c, 9, 35, 0
7, 127616, Note_on_c, 9, 35, 37
7, 127652, Note_on_c, 9, 35, 0
7, 127740, Note_on_c, 9, 51, 0
7, 127804, Note_on_c, 9, 51, 39
7, 127832, Note_on_c, 9, 51, 0
7, 127860, Note_on_c, 9, 51, 67
7, 127872, Note_on_c, 9, 44, 71
7, 127968, Note_on_c, 9, 44, 0
7, 128000, Note_on_c, 9, 29, 30
7, 128032, Note_on_c, 9, 29, 0
7, 128064, Note_on_c, 9, 35, 36
7, 128132, Note_on_c, 9, 35, 0
7, 128132, Note_on_c, 9, 51, 0
7, 128188, Note_on_c, 9, 51, 44
7, 128192, Note_on_c, 9, 35, 49
7, 128220, Note_on_c, 9, 51, 0
7, 128224, Note_on_c, 9, 35, 0
7, 128244, Note_on_c, 9, 51, 65
7, 128524, Note_on_c, 9, 51, 0
7, 128576, Note_on_c, 9, 51, 42
7, 128576, Note_on_c, 9, 31, 34
7, 128588, Note_on_c, 9, 51, 0
7, 128608, Note_on_c, 9, 31, 0
7, 128632, Note_on_c, 9, 51, 65
7, 128640, Note_on_c, 9, 44, 74
7, 128640, Note_on_c, 9, 35, 35
7, 128736, Note_on_c, 9, 44, 0
7, 128788, Note_on_c, 9, 35, 0
7, 128912, Note_on_c, 9, 51, 0
7, 128984, Note_on_c, 9, 51, 30
7, 128996, Note_on_c, 9, 51, 0
7, 129032, Note_on_c, 9, 51, 57
7, 129300, Note_on_c, 9, 51, 0
7, 129344, Note_on_c, 9, 35, 26
7, 129352, Note_on_c, 9, 51, 39
7, 129364, Note_on_c, 9, 51, 0
7, 129392, Note_on_c, 9, 35, 0
7, 129400, Note_on_c, 9, 51, 51
7, 129408, Note_on_c, 9, 44, 73
7, 129408, Note_on_c, 9, 35, 46
7, 129468, Note_on_c, 9, 35, 0
7, 129508, Note_on_c, 9, 51, 0
7, 129524, Note_on_c, 9, 44, 0
7, 129532, Note_on_c, 9, 53, 36
7, 129564, Note_on_c, 9, 53, 0
7, 129584, Note_on_c, 9, 51, 34
7, 129744, Note_on_c, 9, 51, 0
7, 129780, Note_on_c, 9, 51, 61
7, 129792, Note_on_c, 9, 35, 40
7, 129864, Note_on_c, 9, 35, 0
7, 130064, Note_on_c, 9, 51, 0
7, 130120, Note_on_c, 9, 51, 50
7, 130136, Note_on_c, 9, 51, 0
7, 130176, Note_on_c, 9, 46, 58
7, 130176, Note_on_c, 9, 51, 65
7, 130272, Note_on_c, 9, 46, 0
7, 130300, Note_on_c, 9, 51, 0
7, 130304, Note_on_c, 9, 34, 30
7, 130308, Note_on_c, 9, 53, 61
7, 130336, Note_on_c, 9, 34, 0
7, 130352, Note_on_c, 9, 53, 0
7, 130368, Note_on_c, 9, 35, 22
7, 130384, Note_on_c, 9, 51, 21
7, 130452, Note_on_c, 9, 35, 0
7, 130460, Note_on_c, 9, 51, 0
7, 130496, Note_on_c, 9, 51, 55
7, 130496, Note_on_c, 9, 34, 43
7, 130528, Note_on_c, 9, 51, 0
7, 130548, Note_on_c, 9, 34, 0
7, 130556, Note_on_c, 9, 51, 57
7, 130560, Note_on_c, 9, 35, 44
7, 130684, Note_on_c, 9, 35, 0
7, 130852, Note_on_c, 9, 51, 0
7, 130884, Note_on_c, 9, 51, 36
7, 130912, Note_on_c, 9, 51, 0
7, 130940, Note_on_c, 9, 51, 60
7, 130944, Note_on_c, 9, 44, 67
7, 131040, Note_on_c, 9, 44, 0
7, 131228, Note_on_c, 9, 51, 0
7, 131264, Note_on_c, 9, 35, 30
7, 131276, Note_on_c, 9, 51, 44
7, 131292, Note_on_c, 9, 51, 0
7, 131300, Note_on_c, 9, 35, 0
7, 131324, Note_on_c, 9, 51, 54
7, 131328, Note_on_c, 9, 35, 54
7, 131464, Note_on_c, 9, 35, 0
7, 131620, Note_on_c, 9, 51, 0
7, 131652, Note_on_c, 9, 51, 38
7, 131680, Note_on_c, 9, 51, 0
7, 131708, Note_on_c, 9, 51, 61
7, 131712, Note_on_c, 9, 44, 70
7, 131808, Note_on_c, 9, 44, 0
7, 131904, Note_on_c, 9, 35, 45
7, 131996, Note_on_c, 9, 35, 0
7, 132012, Note_on_c, 9, 51, 0
7, 132052, Note_on_c, 9, 51, 32
7, 132084, Note_on_c, 9, 51, 0
7, 132096, Note_on_c, 9, 35, 56
7, 132108, Note_on_c, 9, 51, 67
7, 132156, Note_on_c, 9, 35, 0
7, 132412, Note_on_c, 9, 51, 0
7, 132440, Note_on_c, 9, 51, 35
7, 132456, Note_on_c, 9, 51, 0
7, 132480, Note_on_c, 9, 44, 71
7, 132500, Note_on_c, 9, 51, 60
7, 132576, Note_on_c, 9, 44, 0
7, 132608, Note_on_c, 9, 35, 36
7, 132640, Note_on_c, 9, 35, 0
7, 132672, Note_on_c, 9, 35, 25
7, 132776, Note_on_c, 9, 35, 0
7, 132788, Note_on_c, 9, 51, 0
7, 132800, Note_on_c, 9, 34, 33
7, 132812, Note_on_c, 9, 51, 49
7, 132832, Note_on_c, 9, 51, 0
7, 132832, Note_on_c, 9, 34, 0
7, 132864, Note_on_c, 9, 35, 36
7, 132868, Note_on_c, 9, 51, 55
7, 132940, Note_on_c, 9, 35, 0
7, 132992, Note_on_c, 9, 35, 44
7, 133024, Note_on_c, 9, 35, 0
7, 133172, Note_on_c, 9, 51, 0
7, 133248, Note_on_c, 9, 44, 69
7, 133248, Note_on_c, 9, 51, 64
7, 133344, Note_on_c, 9, 44, 0
7, 133552, Note_on_c, 9, 51, 0
7, 133568, Note_on_c, 9, 35, 50
7, 133580, Note_on_c, 9, 51, 26
7, 133592, Note_on_c, 9, 51, 0
7, 133600, Note_on_c, 9, 35, 0
7, 133628, Note_on_c, 9, 51, 50
7, 133632, Note_on_c, 9, 35, 56
7, 133792, Note_on_c, 9, 35, 0
7, 133936, Note_on_c, 9, 51, 0
7, 133960, Note_on_c, 9, 51, 25
7, 133976, Note_on_c, 9, 51, 0
7, 134016, Note_on_c, 9, 44, 73
7, 134016, Note_on_c, 9, 51, 62
7, 134112, Note_on_c, 9, 44, 0
7, 134208, Note_on_c, 9, 35, 56
7, 134288, Note_on_c, 9, 51, 0
7, 134304, Note_on_c, 9, 35, 0
7, 134348, Note_on_c, 9, 51, 34
7, 134360, Note_on_c, 9, 51, 0
7, 134400, Note_on_c, 9, 35, 58
7, 134408, Note_on_c, 9, 51, 73
7, 134480, Note_on_c, 9, 35, 0
7, 134736, Note_on_c, 9, 51, 0
7, 134780, Note_on_c, 9, 51, 73
7, 134784, Note_on_c, 9, 44, 72
7, 134880, Note_on_c, 9, 44, 0
7, 134912, Note_on_c, 9, 35, 39
7, 134944, Note_on_c, 9, 35, 0
7, 134976, Note_on_c, 9, 34, 35
7, 135024, Note_on_c, 9, 34, 0
7, 135088, Note_on_c, 9, 51, 0
7, 135108, Note_on_c, 9, 53, 63
7, 135148, Note_on_c, 9, 53, 0
7, 135168, Note_on_c, 9, 55, 41
7, 135168, Note_on_c, 9, 35, 37
7, 135180, Note_on_c, 9, 51, 43
7, 135208, Note_on_c, 9, 35, 0
7, 135212, Note_on_c, 9, 55, 0
7, 135384, Note_on_c, 9, 51, 0
7, 135552, Note_on_c, 9, 44, 69
7, 135552, Note_on_c, 9, 57, 58
7, 135552, Note_on_c, 9, 35, 34
7, 135560, Note_on_c, 9, 51, 78
7, 135648, Note_on_c, 9, 44, 0
7, 135672, Note_on_c, 9, 57, 0
7, 135708, Note_on_c, 9, 35, 0
7, 135752, Note_on_c, 9, 51, 0
7, 135872, Note_on_c, 9, 34, 33
7, 135932, Note_on_c, 9, 34, 0
7, 135936, Note_on_c, 9, 57, 51
7, 135936, Note_on_c, 9, 35, 45
7, 135952, Note_on_c, 9, 51, 80
7, 136068, Note_on_c, 9, 57, 0
7, 136080, Note_on_c, 9, 35, 0
7, 136200, Note_on_c, 9, 51, 0
7, 136256, Note_on_c, 9, 34, 33
7, 136276, Note_on_c, 9, 51, 47
7, 136292, Note_on_c, 9, 51, 0
7, 136292, Note_on_c, 9, 34, 0
7, 136320, Note_on_c, 9, 46, 64
7, 136320, Note_on_c, 9, 57, 53
7, 136320, Note_on_c, 9, 35, 42
7, 136328, Note_on_c, 9, 51, 65
7, 136416, Note_on_c, 9, 46, 0
7, 136440, Note_on_c, 9, 57, 0
7, 136480, Note_on_c, 9, 35, 0
7, 136604, Note_on_c, 9, 51, 0
7, 136628, Note_on_c, 9, 51, 55
7, 136640, Note_on_c, 9, 34, 35
7, 136652, Note_on_c, 9, 51, 0
7, 136672, Note_on_c, 9, 34, 0
7, 136696, Note_on_c, 9, 51, 74
7, 136704, Note_on_c, 9, 57, 68
7, 136704, Note_on_c, 9, 35, 53
7, 136744, Note_on_c, 9, 57, 0
7, 136764, Note_on_c, 9, 35, 0
7, 137048, Note_on_c, 9, 51, 0
7, 137088, Note_on_c, 9, 44, 70
7, 137100, Note_on_c, 9, 51, 72
7, 137184, Note_on_c, 9, 44, 0
7, 137280, Note_on_c, 9, 35, 58
7, 137380, Note_on_c, 9, 35, 0
7, 137440, Note_on_c, 9, 51, 0
7, 137472, Note_on_c, 9, 35, 62
7, 137484, Note_on_c, 9, 51, 74
7, 137556, Note_on_c, 9, 35, 0
7, 137796, Note_on_c, 9, 51, 0
7, 137848, Note_on_c, 9, 51, 72
7, 137856, Note_on_c, 9, 44, 73
7, 137952, Note_on_c, 9, 44, 0
7, 138144, Note_on_c, 9, 51, 0
7, 138176, Note_on_c, 9, 35, 54
7, 138216, Note_on_c, 9, 35, 0
7, 138224, Note_on_c, 9, 51, 73
7, 138240, Note_on_c, 9, 35, 57
7, 138432, Note_on_c, 9, 35, 0
7, 138560, Note_on_c, 9, 51, 0
7, 138624, Note_on_c, 9, 44, 74
7, 138624, Note_on_c, 9, 51, 67
7, 138624, Note_on_c, 9, 35, 26
7, 138688, Note_on_c, 9, 36, 28
7, 138720, Note_on_c, 9, 36, 0
7, 138720, Note_on_c, 9, 44, 0
7, 138720, Note_on_c, 9, 51, 0
7, 138740, Note_on_c, 9, 53, 57
7, 138780, Note_on_c, 9, 53, 0
7, 138812, Note_on_c, 9, 51, 28
7, 138876, Note_on_c, 9, 35, 0
7, 138944, Note_on_c, 9, 34, 28
7, 138968, Note_on_c, 9, 51, 0
7, 139000, Note_on_c, 9, 34, 0
7, 139008, Note_on_c, 9, 35, 46
7, 139016, Note_on_c, 9, 51, 62
7, 139328, Note_on_c, 9, 51, 0
7, 139388, Note_on_c, 9, 51, 67
7, 139392, Note_on_c, 9, 44, 73
7, 139436, Note_on_c, 9, 35, 0
7, 139488, Note_on_c, 9, 44, 0
7, 139584, Note_on_c, 9, 35, 46
7, 139628, Note_on_c, 9, 35, 0
7, 139652, Note_on_c, 9, 51, 0
7, 139716, Note_on_c, 9, 51, 49
7, 139732, Note_on_c, 9, 51, 0
7, 139772, Note_on_c, 9, 51, 67
7, 139776, Note_on_c, 9, 35, 50
7, 139812, Note_on_c, 9, 35, 0
7, 140108, Note_on_c, 9, 51, 0
7, 140144, Note_on_c, 9, 51, 58
7, 140160, Note_on_c, 9, 44, 70
7, 140256, Note_on_c, 9, 44, 0
7, 140456, Note_on_c, 9, 51, 0
7, 140496, Note_on_c, 9, 51, 40
7, 140520, Note_on_c, 9, 51, 0
7, 140548, Note_on_c, 9, 51, 59
7, 140880, Note_on_c, 9, 51, 0
7, 140924, Note_on_c, 9, 51, 60
7, 140928, Note_on_c, 9, 44, 71
7, 141024, Note_on_c, 9, 44, 0
7, 141220, Note_on_c, 9, 51, 0
7, 141248, Note_on_c, 9, 37, 45
7, 141276, Note_on_c, 9, 51, 38
7, 141280, Note_on_c, 9, 37, 0
7, 141288, Note_on_c, 9, 51, 0
7, 141312, Note_on_c, 9, 35, 33
7, 141332, Note_on_c, 9, 51, 64
7, 141360, Note_on_c, 9, 35, 0
7, 141440, Note_on_c, 9, 35, 39
7, 141472, Note_on_c, 9, 35, 0
7, 141632, Note_on_c, 9, 37, 36
7, 141652, Note_on_c, 9, 51, 0
7, 141664, Note_on_c, 9, 37, 0
7, 141696, Note_on_c, 9, 44, 72
7, 141696, Note_on_c, 9, 51, 62
7, 141696, Note_on_c, 9, 35, 35
7, 141736, Note_on_c, 9, 35, 0
7, 141792, Note_on_c, 9, 44, 0
7, 142048, Note_on_c, 9, 51, 0
7, 142080, Note_on_c, 9, 35, 43
7, 142096, Note_on_c, 9, 51, 67
7, 142140, Note_on_c, 9, 35, 0
7, 142376, Note_on_c, 9, 51, 0
7, 142400, Note_on_c, 9, 35, 48
7, 142416, Note_on_c, 9, 51, 36
7, 142432, Note_on_c, 9, 51, 0
7, 142436, Note_on_c, 9, 35, 0
7, 142464, Note_on_c, 9, 46, 56
7, 142464, Note_on_c, 9, 35, 45
7, 142468, Note_on_c, 9, 51, 64
7, 142532, Note_on_c, 9, 35, 0
7, 142560, Note_on_c, 9, 46, 0
7, 142752, Note_on_c, 9, 51, 0
7, 142784, Note_on_c, 9, 34, 20
7, 142788, Note_on_c, 9, 51, 33
7, 142808, Note_on_c, 9, 51, 0
7, 142832, Note_on_c, 9, 34, 0
7, 142848, Note_on_c, 9, 51, 67
7, 142848, Note_on_c, 9, 57, 38
7, 142848, Note_on_c, 9, 35, 38
7, 142904, Note_on_c, 9, 57, 0
7, 142952, Note_on_c, 9, 35, 0
7, 143176, Note_on_c, 9, 51, 0
7, 143212, Note_on_c, 9, 51, 44
7, 143232, Note_on_c, 9, 44, 70
7, 143328, Note_on_c, 9, 44, 0
7, 143468, Note_on_c, 9, 51, 0
7, 143568, Note_on_c, 9, 51, 32
7, 143584, Note_on_c, 9, 51, 0
7, 143616, Note_on_c, 9, 35, 53
7, 143628, Note_on_c, 9, 51, 69
7, 143664, Note_on_c, 9, 35, 0
7, 143940, Note_on_c, 9, 51, 0
7, 144000, Note_on_c, 9, 44, 67
7, 144012, Note_on_c, 9, 51, 68
7, 144096, Note_on_c, 9, 44, 0
7, 144304, Note_on_c, 9, 51, 0
7, 144320, Note_on_c, 9, 34, 71
7, 144348, Note_on_c, 9, 51, 46
7, 144360, Note_on_c, 9, 51, 0
7, 144360, Note_on_c, 9, 34, 0
7, 144384, Note_on_c, 9, 35, 71
7, 144412, Note_on_c, 9, 51, 69
7, 144564, Note_on_c, 9, 35, 0
7, 144692, Note_on_c, 9, 51, 0
7, 144768, Note_on_c, 9, 44, 69
7, 144768, Note_on_c, 9, 51, 72
7, 144864, Note_on_c, 9, 44, 0
7, 144960, Note_on_c, 9, 35, 55
7, 145008, Note_on_c, 9, 35, 0
7, 145040, Note_on_c, 9, 51, 0
7, 145152, Note_on_c, 9, 35, 60
7, 145160, Note_on_c, 9, 51, 74
7, 145204, Note_on_c, 9, 35, 0
7, 145344, Note_on_c, 9, 35, 68
7, 145384, Note_on_c, 9, 51, 0
7, 145484, Note_on_c, 9, 51, 56
7, 145504, Note_on_c, 9, 51, 0
7, 145536, Note_on_c, 9, 35, 0
7, 145536, Note_on_c, 9, 44, 69
7, 145540, Note_on_c, 9, 51, 68
7, 145632, Note_on_c, 9, 44, 0
7, 145728, Note_on_c, 9, 35, 64
7, 145752, Note_on_c, 9, 51, 0
7, 145772, Note_on_c, 9, 35, 0
7, 145848, Note_on_c, 9, 51, 45
7, 145876, Note_on_c, 9, 51, 0
7, 145916, Note_on_c, 9, 51, 45
7, 145920, Note_on_c, 9, 49, 55
7, 145920, Note_on_c, 9, 57, 71
7, 145920, Note_on_c, 9, 35, 89
7, 146000, Note_on_c, 9, 35, 0
7, 146112, Note_on_c, 9, 35, 74
7, 146304, Note_on_c, 9, 44, 68
7, 146380, Note_on_c, 9, 35, 0
7, 146380, Note_on_c, 9, 49, 0
7, 146400, Note_on_c, 9, 44, 0
7, 146408, Note_on_c, 9, 51, 0
7, 146436, Note_on_c, 9, 57, 0
7, 146496, Note_on_c, 9, 35, 78
7, 146500, Note_on_c, 9, 51, 67
7, 146540, Note_on_c, 9, 51, 0
7, 146572, Note_on_c, 9, 35, 0
7, 146608, Note_on_c, 9, 51, 54
7, 146640, Note_on_c, 9, 51, 0
7, 146688, Note_on_c, 9, 35, 94
7, 146700, Note_on_c, 9, 51, 55
7, 146704, Note_on_c, 9, 57, 61
7, 146704, Note_on_c, 9, 49, 44
7, 146796, Note_on_c, 9, 35, 0
7, 146880, Note_on_c, 9, 35, 91
7, 147040, Note_on_c, 9, 51, 0
7, 147072, Note_on_c, 9, 46, 61
7, 147128, Note_on_c, 9, 35, 0
7, 147168, Note_on_c, 9, 46, 0
7, 147184, Note_on_c, 9, 51, 62
7, 147192, Note_on_c, 9, 57, 0
7, 147200, Note_on_c, 9, 49, 0
7, 147216, Note_on_c, 9, 51, 0
7, 147264, Note_on_c, 9, 35, 88
7, 147348, Note_on_c, 9, 35, 0
7, 147348, Note_on_c, 9, 51, 58
7, 147380, Note_on_c, 9, 51, 0
7, 147456, Note_on_c, 9, 44, 73
7, 147456, Note_on_c, 9, 35, 99
7, 147468, Note_on_c, 9, 51, 51
7, 147468, Note_on_c, 9, 49, 54
7, 147472, Note_on_c, 9, 57, 63
7, 147556, Note_on_c, 9, 44, 0
7, 147752, Note_on_c, 9, 57, 0
7, 147764, Note_on_c, 9, 51, 0
7, 147768, Note_on_c, 9, 49, 0
7, 147808, Note_on_c, 9, 35, 0
7, 147808, End_track
8, 0, Start_track
8, 0, MIDI_port, 0
8, 0, Title_t, ""
8, 0, End_track
0, 0, End_of_file
