0, 0, Header, 1, 4, 480
1, 0, Start_track
1, 0, Title_t, "I Never Knew"
1, 0, Text_t, "Gus Kahn and Ted Fiorito\012"
1, 0, System_exclusive, 10, 65, 16, 66, 18, 64, 0, 127, 0, 65, 247
1, 0, Time_signature, 4, 2, 24, 8
1, 0, Key_signature, -1, "major"
1, 0, Tempo, 324324
1, 0, End_track
2, 0, Start_track
2, 0, Title_t, "dougmck@pipeline.com.au"
2, 11, Control_c, 0, 64, 127
2, 11, Control_c, 0, 64, 0
2, 482, Program_c, 0, 0
2, 1937, Note_on_c, 0, 72, 60
2, 1938, Note_on_c, 0, 67, 49
2, 1946, Note_on_c, 0, 62, 51
2, 1954, Note_on_c, 0, 57, 57
2, 2146, Control_c, 0, 64, 127
2, 2676, Note_on_c, 0, 62, 0
2, 2774, Note_on_c, 0, 67, 0
2, 2803, Note_on_c, 0, 72, 0
2, 3247, Note_on_c, 0, 57, 0
2, 3619, Note_on_c, 0, 77, 36
2, 3666, Note_on_c, 0, 77, 0
2, 3806, Note_on_c, 0, 81, 84
2, 3925, Note_on_c, 0, 81, 0
2, 3978, Control_c, 0, 64, 0
2, 4043, Note_on_c, 0, 82, 80
2, 4045, Note_on_c, 0, 61, 49
2, 4054, Note_on_c, 0, 58, 42
2, 4064, Note_on_c, 0, 55, 51
2, 4072, Note_on_c, 0, 53, 34
2, 4833, Control_c, 0, 64, 127
2, 5311, Note_on_c, 0, 55, 0
2, 5355, Note_on_c, 0, 58, 0
2, 5392, Note_on_c, 0, 61, 0
2, 5421, Note_on_c, 0, 53, 0
2, 5567, Note_on_c, 0, 82, 0
2, 5608, Note_on_c, 0, 81, 45
2, 5720, Note_on_c, 0, 81, 0
2, 5731, Control_c, 0, 64, 0
2, 5787, Note_on_c, 0, 53, 24
2, 5790, Note_on_c, 0, 60, 36
2, 5798, Note_on_c, 0, 64, 33
2, 5809, Note_on_c, 0, 57, 31
2, 5873, Note_on_c, 0, 84, 57
2, 6316, Control_c, 0, 64, 127
2, 6999, Note_on_c, 0, 84, 0
2, 7078, Note_on_c, 0, 81, 54
2, 7111, Note_on_c, 0, 57, 0
2, 7130, Note_on_c, 0, 53, 0
2, 7134, Note_on_c, 0, 60, 0
2, 7204, Note_on_c, 0, 64, 0
2, 7226, Control_c, 0, 64, 0
2, 7227, Note_on_c, 0, 81, 0
2, 7363, Note_on_c, 0, 77, 38
2, 7406, Control_c, 0, 64, 127
2, 7507, Control_c, 0, 64, 0
2, 7575, Note_on_c, 0, 77, 0
2, 7641, Note_on_c, 0, 79, 46
2, 7644, Note_on_c, 0, 61, 27
2, 7646, Note_on_c, 0, 65, 39
2, 7661, Note_on_c, 0, 60, 30
2, 7687, Note_on_c, 0, 55, 37
2, 8192, Control_c, 0, 64, 127
2, 8613, Note_on_c, 0, 79, 0
2, 8763, Note_on_c, 0, 65, 0
2, 8771, Note_on_c, 0, 60, 0
2, 8817, Note_on_c, 0, 55, 0
2, 8833, Note_on_c, 0, 61, 0
2, 9048, Note_on_c, 0, 65, 49
2, 9055, Note_on_c, 0, 61, 35
2, 9086, Note_on_c, 0, 65, 0
2, 9106, Note_on_c, 0, 61, 0
2, 9113, Control_c, 0, 64, 0
2, 9356, Note_on_c, 0, 69, 61
2, 9394, Note_on_c, 0, 69, 0
2, 9443, Note_on_c, 0, 56, 31
2, 9506, Control_c, 0, 64, 127
2, 9580, Note_on_c, 0, 56, 0
2, 9640, Control_c, 0, 64, 0
2, 9730, Note_on_c, 0, 72, 68
2, 9731, Note_on_c, 0, 67, 60
2, 9752, Note_on_c, 0, 62, 45
2, 9758, Note_on_c, 0, 57, 65
2, 9759, Note_on_c, 0, 60, 39
2, 9871, Note_on_c, 0, 62, 0
2, 10123, Control_c, 0, 64, 127
2, 10223, Note_on_c, 0, 72, 0
2, 10227, Note_on_c, 0, 67, 0
2, 10424, Note_on_c, 0, 60, 0
2, 10551, Control_c, 0, 64, 0
2, 10587, Note_on_c, 0, 57, 0
2, 10590, Note_on_c, 0, 60, 36
2, 10592, Note_on_c, 0, 69, 45
2, 10598, Note_on_c, 0, 65, 47
2, 10624, Note_on_c, 0, 50, 40
2, 10955, Control_c, 0, 64, 127
2, 11023, Note_on_c, 0, 65, 0
2, 11030, Note_on_c, 0, 69, 0
2, 11125, Note_on_c, 0, 60, 0
2, 11394, Note_on_c, 0, 51, 34
2, 11483, Control_c, 0, 64, 0
2, 11485, Note_on_c, 0, 51, 0
2, 11520, Note_on_c, 0, 62, 45
2, 11525, Note_on_c, 0, 50, 0
2, 11526, Note_on_c, 0, 65, 48
2, 11536, Note_on_c, 0, 55, 36
2, 11539, Note_on_c, 0, 58, 37
2, 11547, Note_on_c, 0, 53, 32
2, 11991, Control_c, 0, 64, 127
2, 11992, Note_on_c, 0, 55, 0
2, 12010, Note_on_c, 0, 62, 0
2, 12033, Note_on_c, 0, 58, 0
2, 12036, Note_on_c, 0, 65, 0
2, 12186, Note_on_c, 0, 53, 0
2, 12395, Control_c, 0, 64, 0
2, 12453, Note_on_c, 0, 58, 87
2, 12455, Note_on_c, 0, 62, 82
2, 12463, Note_on_c, 0, 65, 75
2, 12464, Note_on_c, 0, 69, 66
2, 12480, Note_on_c, 0, 57, 81
2, 12530, Note_on_c, 0, 58, 0
2, 12535, Note_on_c, 0, 62, 0
2, 12555, Note_on_c, 0, 57, 0
2, 12558, Note_on_c, 0, 65, 0
2, 12584, Note_on_c, 0, 69, 0
2, 12957, Note_on_c, 0, 73, 69
2, 12961, Note_on_c, 0, 68, 87
2, 12968, Note_on_c, 0, 64, 90
2, 12971, Note_on_c, 0, 70, 75
2, 12972, Note_on_c, 0, 58, 80
2, 13356, Note_on_c, 0, 58, 0
2, 13379, Note_on_c, 0, 64, 0
2, 13405, Note_on_c, 0, 73, 0
2, 13407, Note_on_c, 0, 68, 0
2, 13408, Note_on_c, 0, 70, 0
2, 13461, Note_on_c, 0, 67, 74
2, 13463, Note_on_c, 0, 72, 76
2, 13466, Note_on_c, 0, 62, 72
2, 13470, Note_on_c, 0, 57, 74
2, 13799, Control_c, 0, 64, 127
2, 13986, Note_on_c, 0, 62, 0
2, 14002, Note_on_c, 0, 67, 0
2, 14067, Note_on_c, 0, 57, 0
2, 14342, Note_on_c, 0, 72, 0
2, 14371, Control_c, 0, 64, 0
2, 14395, Note_on_c, 0, 60, 55
2, 14401, Note_on_c, 0, 69, 59
2, 14414, Note_on_c, 0, 65, 47
2, 14425, Note_on_c, 0, 57, 36
2, 14426, Note_on_c, 0, 50, 35
2, 14844, Control_c, 0, 64, 127
2, 14864, Note_on_c, 0, 60, 0
2, 14878, Note_on_c, 0, 57, 0
2, 14882, Note_on_c, 0, 69, 0
2, 14943, Note_on_c, 0, 65, 0
2, 15302, Note_on_c, 0, 50, 0
2, 15338, Control_c, 0, 64, 0
2, 15339, Note_on_c, 0, 58, 61
2, 15341, Note_on_c, 0, 62, 68
2, 15350, Note_on_c, 0, 65, 67
2, 15352, Note_on_c, 0, 57, 60
2, 15884, Note_on_c, 0, 62, 0
2, 15894, Note_on_c, 0, 65, 0
2, 15910, Control_c, 0, 64, 127
2, 15968, Note_on_c, 0, 57, 0
2, 16000, Note_on_c, 0, 58, 0
2, 16181, Note_on_c, 0, 58, 52
2, 16187, Note_on_c, 0, 61, 53
2, 16190, Note_on_c, 0, 64, 59
2, 16202, Control_c, 0, 64, 0
2, 16263, Note_on_c, 0, 58, 0
2, 16289, Note_on_c, 0, 61, 0
2, 16310, Note_on_c, 0, 64, 0
2, 16629, Control_c, 0, 64, 127
2, 16671, Note_on_c, 0, 48, 57
2, 16707, Control_c, 0, 64, 0
2, 16709, Note_on_c, 0, 48, 0
2, 16815, Note_on_c, 0, 60, 127
2, 17085, Note_on_c, 0, 60, 0
2, 17145, Note_on_c, 0, 60, 78
2, 17263, Note_on_c, 0, 60, 0
2, 17303, Note_on_c, 0, 60, 46
2, 17544, Note_on_c, 0, 60, 0
2, 17628, Note_on_c, 0, 60, 71
2, 17704, Note_on_c, 0, 60, 0
2, 17777, Note_on_c, 0, 60, 71
2, 18156, Note_on_c, 0, 53, 26
2, 18160, Note_on_c, 0, 60, 0
2, 18196, Note_on_c, 0, 53, 0
2, 18268, Note_on_c, 0, 60, 68
2, 18517, Note_on_c, 0, 60, 0
2, 18600, Note_on_c, 0, 65, 61
2, 18646, Note_on_c, 0, 65, 0
2, 18756, Note_on_c, 0, 69, 92
2, 19076, Note_on_c, 0, 69, 0
2, 19226, Note_on_c, 0, 65, 87
2, 19229, Note_on_c, 0, 72, 84
2, 19233, Note_on_c, 0, 61, 78
2, 19281, Note_on_c, 0, 60, 49
2, 19626, Note_on_c, 0, 61, 0
2, 19627, Note_on_c, 0, 72, 0
2, 19636, Note_on_c, 0, 65, 0
2, 19712, Note_on_c, 0, 60, 0
2, 19723, Note_on_c, 0, 70, 61
2, 19734, Note_on_c, 0, 61, 39
2, 19742, Note_on_c, 0, 65, 58
2, 19964, Note_on_c, 0, 65, 0
2, 19982, Note_on_c, 0, 61, 0
2, 20062, Note_on_c, 0, 65, 79
2, 20087, Note_on_c, 0, 70, 0
2, 20897, Control_c, 0, 64, 127
2, 20993, Note_on_c, 0, 61, 56
2, 21043, Control_c, 0, 64, 0
2, 21049, Note_on_c, 0, 65, 0
2, 21114, Note_on_c, 0, 61, 0
2, 21261, Note_on_c, 0, 60, 43
2, 21628, Note_on_c, 0, 60, 0
2, 21740, Control_c, 0, 64, 127
2, 21886, Control_c, 0, 64, 0
2, 21968, Note_on_c, 0, 72, 80
2, 21974, Note_on_c, 0, 57, 84
2, 21975, Note_on_c, 0, 67, 76
2, 21978, Note_on_c, 0, 62, 78
2, 22059, Note_on_c, 0, 62, 0
2, 22077, Note_on_c, 0, 67, 0
2, 22116, Note_on_c, 0, 72, 0
2, 22129, Note_on_c, 0, 57, 0
2, 22191, Note_on_c, 0, 56, 44
2, 22357, Note_on_c, 0, 56, 0
2, 22380, Note_on_c, 0, 72, 81
2, 22384, Note_on_c, 0, 67, 81
2, 22387, Note_on_c, 0, 62, 83
2, 22396, Note_on_c, 0, 57, 80
2, 22740, Control_c, 0, 64, 127
2, 22742, Note_on_c, 0, 72, 0
2, 22748, Note_on_c, 0, 67, 0
2, 22873, Note_on_c, 0, 62, 0
2, 23066, Control_c, 0, 64, 0
2, 23089, Note_on_c, 0, 57, 0
2, 23571, Note_on_c, 0, 67, 80
2, 23572, Note_on_c, 0, 61, 75
2, 23578, Note_on_c, 0, 58, 73
2, 23582, Note_on_c, 0, 65, 77
2, 24098, Control_c, 0, 64, 127
2, 24319, Note_on_c, 0, 58, 0
2, 24331, Note_on_c, 0, 51, 53
2, 24442, Note_on_c, 0, 51, 0
2, 24447, Control_c, 0, 64, 0
2, 24491, Note_on_c, 0, 67, 0
2, 24507, Note_on_c, 0, 65, 0
2, 24519, Note_on_c, 0, 52, 53
2, 24563, Note_on_c, 0, 61, 0
2, 24603, Control_c, 0, 64, 127
2, 24750, Control_c, 0, 64, 0
2, 24788, Note_on_c, 0, 52, 0
2, 24816, Note_on_c, 0, 65, 66
2, 24822, Note_on_c, 0, 60, 71
2, 24823, Note_on_c, 0, 57, 59
2, 24831, Note_on_c, 0, 53, 53
2, 24860, Note_on_c, 0, 57, 0
2, 24881, Note_on_c, 0, 60, 0
2, 24894, Note_on_c, 0, 53, 0
2, 24922, Note_on_c, 0, 65, 0
2, 25288, Note_on_c, 0, 67, 84
2, 25291, Note_on_c, 0, 72, 78
2, 25295, Note_on_c, 0, 57, 74
2, 25297, Note_on_c, 0, 69, 73
2, 25298, Note_on_c, 0, 64, 81
2, 25479, Control_c, 0, 64, 127
2, 25589, Note_on_c, 0, 69, 0
2, 25605, Note_on_c, 0, 72, 0
2, 25644, Note_on_c, 0, 67, 0
2, 25707, Note_on_c, 0, 64, 0
2, 25874, Control_c, 0, 64, 0
2, 25914, Note_on_c, 0, 69, 68
2, 25940, Note_on_c, 0, 62, 60
2, 25942, Note_on_c, 0, 60, 58
2, 25945, Note_on_c, 0, 65, 59
2, 25951, Note_on_c, 0, 50, 50
2, 25952, Note_on_c, 0, 57, 0
2, 25979, Note_on_c, 0, 60, 0
2, 25983, Note_on_c, 0, 65, 0
2, 26006, Note_on_c, 0, 62, 0
2, 26026, Note_on_c, 0, 69, 0
2, 26064, Note_on_c, 0, 50, 0
2, 26402, Note_on_c, 0, 44, 36
2, 26403, Note_on_c, 0, 65, 44
2, 26406, Note_on_c, 0, 62, 36
2, 26407, Note_on_c, 0, 60, 46
2, 26415, Note_on_c, 0, 54, 28
2, 26454, Note_on_c, 0, 65, 0
2, 26455, Note_on_c, 0, 60, 0
2, 26467, Note_on_c, 0, 62, 0
2, 26532, Note_on_c, 0, 54, 0
2, 26603, Note_on_c, 0, 44, 0
2, 26882, Note_on_c, 0, 62, 52
2, 26891, Note_on_c, 0, 58, 42
2, 26910, Note_on_c, 0, 53, 40
2, 26915, Note_on_c, 0, 55, 46
2, 26922, Note_on_c, 0, 43, 34
2, 27010, Note_on_c, 0, 55, 0
2, 27018, Control_c, 0, 64, 127
2, 27045, Note_on_c, 0, 43, 0
2, 27117, Note_on_c, 0, 62, 0
2, 27118, Note_on_c, 0, 53, 0
2, 27119, Note_on_c, 0, 58, 0
2, 27255, Control_c, 0, 64, 0
2, 27369, Note_on_c, 0, 62, 78
2, 27372, Note_on_c, 0, 58, 80
2, 27379, Note_on_c, 0, 57, 74
2, 27380, Note_on_c, 0, 65, 71
2, 27627, Note_on_c, 0, 62, 0
2, 27663, Note_on_c, 0, 58, 0
2, 27669, Note_on_c, 0, 65, 0
2, 27775, Note_on_c, 0, 57, 0
2, 27862, Note_on_c, 0, 64, 57
2, 27868, Note_on_c, 0, 55, 59
2, 27869, Note_on_c, 0, 61, 50
2, 27871, Note_on_c, 0, 58, 57
2, 27984, Note_on_c, 0, 58, 0
2, 27987, Control_c, 0, 64, 127
2, 28007, Note_on_c, 0, 61, 0
2, 28032, Note_on_c, 0, 64, 0
2, 28106, Note_on_c, 0, 55, 0
2, 28224, Note_on_c, 0, 55, 48
2, 28246, Control_c, 0, 64, 0
2, 28319, Note_on_c, 0, 73, 46
2, 28329, Note_on_c, 0, 68, 67
2, 28338, Note_on_c, 0, 63, 53
2, 28355, Note_on_c, 0, 58, 72
2, 28387, Note_on_c, 0, 55, 0
2, 28532, Note_on_c, 0, 63, 0
2, 28576, Note_on_c, 0, 68, 0
2, 28588, Note_on_c, 0, 73, 0
2, 28606, Note_on_c, 0, 58, 0
2, 28663, Note_on_c, 0, 72, 71
2, 28668, Note_on_c, 0, 67, 74
2, 28674, Note_on_c, 0, 62, 72
2, 28705, Note_on_c, 0, 57, 74
2, 29073, Note_on_c, 0, 62, 0
2, 29099, Note_on_c, 0, 67, 0
2, 29108, Note_on_c, 0, 72, 0
2, 29274, Note_on_c, 0, 56, 53
2, 29277, Note_on_c, 0, 57, 0
2, 29287, Note_on_c, 0, 66, 48
2, 29305, Note_on_c, 0, 61, 34
2, 29320, Note_on_c, 0, 71, 24
2, 29499, Note_on_c, 0, 71, 0
2, 29505, Note_on_c, 0, 61, 0
2, 29516, Note_on_c, 0, 66, 0
2, 29629, Note_on_c, 0, 67, 75
2, 29631, Note_on_c, 0, 72, 71
2, 29642, Note_on_c, 0, 57, 68
2, 29645, Note_on_c, 0, 62, 70
2, 29671, Note_on_c, 0, 56, 0
2, 31187, Note_on_c, 0, 62, 0
2, 31233, Note_on_c, 0, 57, 0
2, 31260, Note_on_c, 0, 67, 0
2, 31335, Control_c, 0, 64, 127
2, 31349, Note_on_c, 0, 72, 0
2, 31603, Control_c, 0, 64, 0
2, 31675, Note_on_c, 0, 62, 68
2, 31680, Note_on_c, 0, 57, 68
2, 31689, Note_on_c, 0, 67, 63
2, 31709, Note_on_c, 0, 65, 62
2, 31747, Note_on_c, 0, 65, 0
2, 31869, Note_on_c, 0, 67, 0
2, 31879, Note_on_c, 0, 57, 0
2, 31943, Note_on_c, 0, 62, 0
2, 32137, Note_on_c, 0, 65, 75
2, 32138, Note_on_c, 0, 62, 64
2, 32144, Note_on_c, 0, 56, 64
2, 32311, Note_on_c, 0, 62, 0
2, 32340, Note_on_c, 0, 65, 0
2, 32497, Note_on_c, 0, 56, 0
2, 32625, Note_on_c, 0, 57, 59
2, 32628, Note_on_c, 0, 64, 53
2, 32667, Note_on_c, 0, 60, 42
2, 33055, Note_on_c, 0, 64, 0
2, 33328, Note_on_c, 0, 60, 0
2, 33458, Note_on_c, 0, 60, 28
2, 33459, Note_on_c, 0, 64, 50
2, 33509, Note_on_c, 0, 64, 0
2, 33623, Note_on_c, 0, 69, 74
2, 33655, Note_on_c, 0, 60, 0
2, 33820, Note_on_c, 0, 69, 0
2, 33955, Note_on_c, 0, 72, 80
2, 33972, Note_on_c, 0, 64, 33
2, 33978, Note_on_c, 0, 60, 41
2, 34022, Note_on_c, 0, 64, 0
2, 34032, Note_on_c, 0, 72, 0
2, 34117, Note_on_c, 0, 74, 105
2, 34129, Note_on_c, 0, 60, 0
2, 34196, Note_on_c, 0, 57, 0
2, 34421, Note_on_c, 0, 74, 0
2, 34622, Note_on_c, 0, 76, 101
2, 34660, Note_on_c, 0, 75, 39
2, 34697, Note_on_c, 0, 75, 0
2, 34877, Note_on_c, 0, 76, 0
2, 34933, Note_on_c, 0, 67, 74
2, 34934, Note_on_c, 0, 63, 58
2, 34974, Note_on_c, 0, 57, 30
2, 34983, Note_on_c, 0, 67, 0
2, 35023, Note_on_c, 0, 57, 0
2, 35107, Note_on_c, 0, 63, 0
2, 35385, Note_on_c, 0, 62, 71
2, 35392, Note_on_c, 0, 67, 74
2, 35403, Note_on_c, 0, 56, 59
2, 36007, Note_on_c, 0, 67, 0
2, 36061, Note_on_c, 0, 62, 0
2, 36344, Note_on_c, 0, 61, 52
2, 36374, Note_on_c, 0, 56, 0
2, 36382, Note_on_c, 0, 61, 0
2, 36402, Note_on_c, 0, 60, 60
2, 36404, Note_on_c, 0, 64, 29
2, 36449, Note_on_c, 0, 64, 0
2, 36472, Note_on_c, 0, 57, 35
2, 36509, Note_on_c, 0, 74, 101
2, 36530, Note_on_c, 0, 60, 0
2, 36580, Note_on_c, 0, 57, 0
2, 36729, Note_on_c, 0, 74, 0
2, 36788, Note_on_c, 0, 76, 59
2, 36885, Note_on_c, 0, 74, 47
2, 36911, Note_on_c, 0, 76, 0
2, 36986, Note_on_c, 0, 72, 48
2, 37059, Note_on_c, 0, 74, 0
2, 37256, Note_on_c, 0, 72, 0
2, 37343, Note_on_c, 0, 71, 48
2, 37385, Note_on_c, 0, 71, 0
2, 37487, Note_on_c, 0, 74, 94
2, 37768, Note_on_c, 0, 74, 0
2, 37822, Note_on_c, 0, 60, 38
2, 37889, Note_on_c, 0, 60, 0
2, 37945, Note_on_c, 0, 72, 90
2, 38234, Note_on_c, 0, 72, 0
2, 38283, Note_on_c, 0, 69, 66
2, 38372, Note_on_c, 0, 69, 0
2, 38474, Note_on_c, 0, 64, 35
2, 38868, Note_on_c, 0, 64, 0
2, 39214, Note_on_c, 0, 49, 45
2, 39317, Note_on_c, 0, 49, 0
2, 39408, Note_on_c, 0, 62, 75
2, 39520, Note_on_c, 0, 62, 0
2, 39552, Note_on_c, 0, 64, 66
2, 39646, Note_on_c, 0, 62, 44
2, 39687, Note_on_c, 0, 64, 0
2, 39727, Note_on_c, 0, 51, 40
2, 39749, Note_on_c, 0, 62, 0
2, 39773, Note_on_c, 0, 51, 0
2, 39775, Note_on_c, 0, 59, 57
2, 39908, Note_on_c, 0, 59, 0
2, 39948, Note_on_c, 0, 57, 60
2, 40140, Note_on_c, 0, 57, 0
2, 40230, Note_on_c, 0, 53, 42
2, 40272, Note_on_c, 0, 53, 0
2, 40364, Note_on_c, 0, 56, 77
2, 40590, Note_on_c, 0, 56, 0
2, 40640, Note_on_c, 0, 59, 75
2, 40796, Note_on_c, 0, 59, 0
2, 40873, Note_on_c, 0, 56, 40
2, 41081, Note_on_c, 0, 56, 0
2, 41136, Note_on_c, 0, 57, 70
2, 41247, Note_on_c, 0, 57, 0
2, 41361, Note_on_c, 0, 59, 44
2, 41566, Note_on_c, 0, 59, 0
2, 41611, Note_on_c, 0, 62, 73
2, 41746, Note_on_c, 0, 62, 0
2, 41859, Note_on_c, 0, 59, 27
2, 42046, Note_on_c, 0, 59, 0
2, 42099, Note_on_c, 0, 60, 66
2, 42261, Note_on_c, 0, 60, 0
2, 42326, Note_on_c, 0, 62, 46
2, 42447, Note_on_c, 0, 62, 0
2, 42489, Note_on_c, 0, 63, 53
2, 42553, Note_on_c, 0, 63, 0
2, 42669, Note_on_c, 0, 67, 58
2, 42764, Note_on_c, 0, 67, 0
2, 42833, Note_on_c, 0, 71, 62
2, 42940, Note_on_c, 0, 71, 0
2, 43013, Note_on_c, 0, 74, 79
2, 43073, Note_on_c, 0, 63, 32
2, 43080, Note_on_c, 0, 62, 36
2, 43133, Note_on_c, 0, 63, 0
2, 43143, Note_on_c, 0, 74, 0
2, 43175, Note_on_c, 0, 62, 0
2, 43221, Note_on_c, 0, 71, 49
2, 43352, Note_on_c, 0, 71, 0
2, 43405, Note_on_c, 0, 72, 50
2, 43479, Note_on_c, 0, 72, 0
2, 43529, Note_on_c, 0, 74, 61
2, 43641, Note_on_c, 0, 74, 0
2, 43646, Note_on_c, 0, 66, 51
2, 43654, Note_on_c, 0, 62, 49
2, 43691, Note_on_c, 0, 56, 36
2, 43705, Note_on_c, 0, 75, 35
2, 43812, Note_on_c, 0, 62, 0
2, 43840, Note_on_c, 0, 66, 0
2, 43857, Note_on_c, 0, 75, 0
2, 43906, Note_on_c, 0, 76, 39
2, 43975, Note_on_c, 0, 76, 0
2, 44040, Note_on_c, 0, 81, 88
2, 44064, Note_on_c, 0, 56, 0
2, 44183, Note_on_c, 0, 64, 24
2, 44218, Note_on_c, 0, 60, 28
2, 44219, Note_on_c, 0, 55, 32
2, 44221, Note_on_c, 0, 76, 52
2, 44236, Note_on_c, 0, 81, 0
2, 44263, Note_on_c, 0, 57, 22
2, 44402, Note_on_c, 0, 60, 0
2, 44518, Note_on_c, 0, 76, 0
2, 44604, Note_on_c, 0, 60, 27
2, 44649, Note_on_c, 0, 64, 0
2, 44671, Note_on_c, 0, 72, 60
2, 44699, Note_on_c, 0, 60, 0
2, 44738, Note_on_c, 0, 55, 0
2, 44766, Note_on_c, 0, 57, 0
2, 44892, Note_on_c, 0, 72, 0
2, 45024, Note_on_c, 0, 60, 71
2, 45029, Note_on_c, 0, 65, 78
2, 45031, Note_on_c, 0, 58, 56
2, 45036, Note_on_c, 0, 54, 60
2, 45651, Note_on_c, 0, 65, 0
2, 45662, Note_on_c, 0, 60, 0
2, 45777, Note_on_c, 0, 58, 0
2, 45880, Note_on_c, 0, 54, 0
2, 45950, Note_on_c, 0, 62, 62
2, 45963, Note_on_c, 0, 58, 39
2, 45973, Note_on_c, 0, 55, 55
2, 45991, Note_on_c, 0, 53, 46
2, 46609, Control_c, 0, 64, 127
2, 46624, Note_on_c, 0, 53, 0
2, 46633, Note_on_c, 0, 55, 0
2, 46652, Note_on_c, 0, 62, 0
2, 46780, Note_on_c, 0, 58, 0
2, 46894, Note_on_c, 0, 58, 57
2, 46898, Note_on_c, 0, 56, 48
2, 46899, Note_on_c, 0, 63, 71
2, 46913, Control_c, 0, 64, 0
2, 47116, Note_on_c, 0, 52, 1
2, 47158, Note_on_c, 0, 63, 0
2, 47182, Note_on_c, 0, 56, 0
2, 47197, Note_on_c, 0, 58, 0
2, 47383, Note_on_c, 0, 54, 25
2, 47399, Note_on_c, 0, 56, 50
2, 47444, Note_on_c, 0, 52, 0
2, 47492, Note_on_c, 0, 56, 0
2, 47502, Note_on_c, 0, 73, 56
2, 47512, Note_on_c, 0, 68, 77
2, 47514, Note_on_c, 0, 63, 73
2, 47532, Note_on_c, 0, 58, 74
2, 47537, Note_on_c, 0, 54, 0
2, 47795, Note_on_c, 0, 73, 0
2, 47799, Note_on_c, 0, 63, 0
2, 47802, Note_on_c, 0, 68, 0
2, 47805, Note_on_c, 0, 58, 0
2, 47864, Note_on_c, 0, 72, 70
2, 47868, Note_on_c, 0, 67, 70
2, 47885, Note_on_c, 0, 62, 70
2, 47902, Note_on_c, 0, 57, 68
2, 48173, Note_on_c, 0, 67, 0
2, 48228, Note_on_c, 0, 62, 0
2, 48283, Note_on_c, 0, 72, 0
2, 48370, Note_on_c, 0, 57, 0
2, 48371, Note_on_c, 0, 61, 62
2, 48379, Note_on_c, 0, 56, 59
2, 48390, Note_on_c, 0, 66, 38
2, 48418, Note_on_c, 0, 61, 0
2, 48427, Note_on_c, 0, 71, 20
2, 48428, Note_on_c, 0, 66, 0
2, 48489, Note_on_c, 0, 71, 0
2, 48523, Note_on_c, 0, 72, 72
2, 48536, Note_on_c, 0, 67, 78
2, 48550, Note_on_c, 0, 57, 74
2, 48556, Note_on_c, 0, 62, 64
2, 48567, Note_on_c, 0, 56, 0
2, 49160, Control_c, 0, 64, 127
2, 49238, Control_c, 0, 64, 0
2, 49242, Note_on_c, 0, 67, 0
2, 49283, Note_on_c, 0, 48, 72
2, 49291, Note_on_c, 0, 72, 0
2, 49298, Note_on_c, 0, 62, 0
2, 49772, Note_on_c, 0, 60, 38
2, 49830, Note_on_c, 0, 60, 0
2, 49873, Note_on_c, 0, 48, 0
2, 49913, Note_on_c, 0, 57, 0
2, 49958, Note_on_c, 0, 61, 25
2, 50152, Note_on_c, 0, 61, 0
2, 50247, Note_on_c, 0, 65, 66
2, 50378, Note_on_c, 0, 65, 0
2, 50467, Note_on_c, 0, 70, 51
2, 50650, Note_on_c, 0, 70, 0
2, 50701, Note_on_c, 0, 61, 61
2, 50717, Note_on_c, 0, 73, 51
2, 50723, Note_on_c, 0, 58, 43
2, 50844, Note_on_c, 0, 73, 0
2, 50960, Note_on_c, 0, 75, 67
2, 51153, Note_on_c, 0, 75, 0
2, 51211, Note_on_c, 0, 53, 1
2, 51275, Note_on_c, 0, 79, 76
2, 51417, Note_on_c, 0, 79, 0
2, 51495, Note_on_c, 0, 61, 0
2, 51543, Note_on_c, 0, 58, 0
2, 51556, Note_on_c, 0, 76, 74
2, 51636, Note_on_c, 0, 53, 0
2, 51741, Note_on_c, 0, 76, 0
2, 51752, Note_on_c, 0, 77, 78
2, 51809, Note_on_c, 0, 64, 32
2, 51831, Note_on_c, 0, 57, 29
2, 51833, Note_on_c, 0, 60, 29
2, 51916, Note_on_c, 0, 77, 0
2, 51938, Note_on_c, 0, 64, 0
2, 51957, Note_on_c, 0, 60, 0
2, 51996, Note_on_c, 0, 76, 51
2, 52136, Note_on_c, 0, 76, 0
2, 52222, Note_on_c, 0, 72, 68
2, 52270, Note_on_c, 0, 53, 1
2, 52331, Note_on_c, 0, 72, 0
2, 52459, Note_on_c, 0, 67, 33
2, 52565, Note_on_c, 0, 57, 0
2, 52677, Note_on_c, 0, 67, 0
2, 53008, Note_on_c, 0, 53, 0
2, 53184, Note_on_c, 0, 60, 61
2, 53220, Note_on_c, 0, 57, 38
2, 53278, Note_on_c, 0, 57, 0
2, 53279, Note_on_c, 0, 60, 0
2, 53336, Note_on_c, 0, 76, 113
2, 53542, Note_on_c, 0, 76, 0
2, 53615, Note_on_c, 0, 77, 81
2, 53655, Note_on_c, 0, 61, 63
2, 53675, Note_on_c, 0, 58, 40
2, 53738, Note_on_c, 0, 61, 0
2, 53762, Note_on_c, 0, 77, 0
2, 53851, Note_on_c, 0, 75, 69
2, 53948, Note_on_c, 0, 58, 0
2, 54047, Note_on_c, 0, 75, 0
2, 54103, Note_on_c, 0, 73, 57
2, 54278, Note_on_c, 0, 73, 0
2, 54355, Note_on_c, 0, 72, 48
2, 54506, Note_on_c, 0, 72, 0
2, 54592, Note_on_c, 0, 61, 54
2, 54596, Note_on_c, 0, 70, 57
2, 54635, Note_on_c, 0, 58, 30
2, 54676, Note_on_c, 0, 61, 0
2, 54761, Note_on_c, 0, 70, 0
2, 54800, Note_on_c, 0, 58, 0
2, 54817, Note_on_c, 0, 68, 52
2, 55004, Note_on_c, 0, 68, 0
2, 55063, Note_on_c, 0, 46, 46
2, 55064, Note_on_c, 0, 67, 68
2, 55074, Note_on_c, 0, 56, 31
2, 55205, Note_on_c, 0, 67, 0
2, 55223, Note_on_c, 0, 56, 0
2, 55255, Note_on_c, 0, 65, 32
2, 55337, Note_on_c, 0, 46, 0
2, 55513, Note_on_c, 0, 65, 0
2, 55532, Note_on_c, 0, 52, 29
2, 55554, Note_on_c, 0, 64, 56
2, 55628, Note_on_c, 0, 64, 0
2, 55638, Note_on_c, 0, 52, 0
2, 55687, Note_on_c, 0, 55, 44
2, 55694, Note_on_c, 0, 67, 77
2, 55942, Note_on_c, 0, 67, 0
2, 56011, Note_on_c, 0, 64, 43
2, 56083, Note_on_c, 0, 64, 0
2, 56168, Note_on_c, 0, 65, 74
2, 56284, Note_on_c, 0, 55, 0
2, 56483, Note_on_c, 0, 65, 0
2, 56510, Note_on_c, 0, 61, 37
2, 56612, Note_on_c, 0, 61, 0
2, 56658, Note_on_c, 0, 64, 67
2, 57035, Note_on_c, 0, 64, 0
2, 57142, Note_on_c, 0, 62, 82
2, 57412, Note_on_c, 0, 62, 0
2, 57467, Note_on_c, 0, 57, 67
2, 57688, Note_on_c, 0, 57, 0
2, 57732, Note_on_c, 0, 60, 70
2, 57990, Note_on_c, 0, 50, 26
2, 58013, Note_on_c, 0, 60, 0
2, 58047, Note_on_c, 0, 50, 0
2, 58130, Note_on_c, 0, 58, 52
2, 58224, Note_on_c, 0, 58, 0
2, 58268, Note_on_c, 0, 60, 66
2, 58355, Note_on_c, 0, 58, 38
2, 58391, Note_on_c, 0, 60, 0
2, 58473, Note_on_c, 0, 58, 0
2, 58481, Note_on_c, 0, 57, 48
2, 58550, Note_on_c, 0, 46, 25
2, 58584, Note_on_c, 0, 57, 0
2, 58628, Note_on_c, 0, 46, 0
2, 58676, Note_on_c, 0, 55, 53
2, 58840, Note_on_c, 0, 55, 0
2, 58964, Note_on_c, 0, 53, 71
2, 59130, Note_on_c, 0, 53, 0
2, 59229, Note_on_c, 0, 50, 28
2, 59362, Note_on_c, 0, 50, 0
2, 59466, Note_on_c, 0, 53, 56
2, 59610, Note_on_c, 0, 53, 0
2, 59685, Note_on_c, 0, 52, 42
2, 59934, Note_on_c, 0, 52, 0
2, 60058, Note_on_c, 0, 53, 62
2, 60327, Note_on_c, 0, 53, 0
2, 60336, Note_on_c, 0, 55, 71
2, 60538, Note_on_c, 0, 55, 0
2, 60626, Note_on_c, 0, 56, 53
2, 60725, Note_on_c, 0, 56, 0
2, 60743, Note_on_c, 0, 57, 61
2, 60866, Note_on_c, 0, 48, 37
2, 60876, Note_on_c, 0, 57, 0
2, 60915, Note_on_c, 0, 48, 0
2, 60963, Note_on_c, 0, 60, 80
2, 61202, Note_on_c, 0, 60, 0
2, 61297, Note_on_c, 0, 62, 79
2, 61536, Note_on_c, 0, 62, 0
2, 61782, Note_on_c, 0, 58, 62
2, 61794, Note_on_c, 0, 48, 53
2, 61838, Note_on_c, 0, 48, 0
2, 61857, Note_on_c, 0, 58, 0
2, 62223, Note_on_c, 0, 60, 67
2, 62316, Note_on_c, 0, 60, 0
2, 62390, Note_on_c, 0, 62, 48
2, 62439, Note_on_c, 0, 62, 0
2, 62569, Note_on_c, 0, 65, 55
2, 62658, Note_on_c, 0, 65, 0
2, 62726, Note_on_c, 0, 67, 74
2, 62810, Note_on_c, 0, 67, 0
2, 62931, Note_on_c, 0, 74, 89
2, 63182, Note_on_c, 0, 74, 0
2, 63258, Note_on_c, 0, 72, 88
2, 63291, Note_on_c, 0, 63, 46
2, 63303, Note_on_c, 0, 65, 38
2, 63343, Note_on_c, 0, 65, 0
2, 63382, Note_on_c, 0, 63, 0
2, 63416, Note_on_c, 0, 72, 0
2, 63492, Note_on_c, 0, 69, 45
2, 63655, Note_on_c, 0, 69, 0
2, 63699, Note_on_c, 0, 65, 36
2, 63741, Note_on_c, 0, 65, 0
2, 63873, Note_on_c, 0, 74, 90
2, 64028, Note_on_c, 0, 74, 0
2, 64161, Note_on_c, 0, 72, 80
2, 64263, Note_on_c, 0, 63, 40
2, 64276, Note_on_c, 0, 72, 0
2, 64366, Note_on_c, 0, 63, 0
2, 64372, Note_on_c, 0, 69, 66
2, 64488, Note_on_c, 0, 69, 0
2, 64542, Note_on_c, 0, 65, 55
2, 64598, Note_on_c, 0, 65, 0
2, 64716, Note_on_c, 0, 74, 83
2, 64862, Note_on_c, 0, 74, 0
2, 64943, Note_on_c, 0, 72, 72
2, 65061, Note_on_c, 0, 72, 0
2, 65310, Note_on_c, 0, 58, 49
2, 65433, Note_on_c, 0, 58, 0
2, 65450, Note_on_c, 0, 72, 83
2, 65604, Note_on_c, 0, 72, 0
2, 65702, Note_on_c, 0, 70, 74
2, 65775, Note_on_c, 0, 58, 31
2, 65844, Note_on_c, 0, 58, 0
2, 65880, Note_on_c, 0, 70, 0
2, 65915, Note_on_c, 0, 65, 38
2, 65917, Note_on_c, 0, 67, 31
2, 65954, Note_on_c, 0, 67, 0
2, 65957, Note_on_c, 0, 65, 0
2, 66110, Note_on_c, 0, 61, 29
2, 66196, Note_on_c, 0, 61, 0
2, 66244, Note_on_c, 0, 60, 35
2, 66287, Note_on_c, 0, 60, 0
2, 66390, Note_on_c, 0, 65, 85
2, 66525, Note_on_c, 0, 65, 0
2, 66677, Note_on_c, 0, 63, 67
2, 66801, Note_on_c, 0, 63, 0
2, 66882, Note_on_c, 0, 65, 53
2, 66990, Note_on_c, 0, 63, 34
2, 67032, Note_on_c, 0, 65, 0
2, 67075, Note_on_c, 0, 61, 33
2, 67129, Note_on_c, 0, 63, 0
2, 67215, Note_on_c, 0, 61, 0
2, 67248, Note_on_c, 0, 60, 35
2, 67299, Note_on_c, 0, 60, 0
2, 67395, Note_on_c, 0, 58, 20
2, 67532, Note_on_c, 0, 58, 0
2, 67561, Note_on_c, 0, 55, 45
2, 67615, Note_on_c, 0, 55, 0
2, 67678, Note_on_c, 0, 56, 71
2, 67823, Note_on_c, 0, 56, 0
2, 67877, Note_on_c, 0, 57, 61
2, 68000, Note_on_c, 0, 57, 0
2, 68175, Note_on_c, 0, 60, 83
2, 68315, Note_on_c, 0, 60, 0
2, 68401, Note_on_c, 0, 62, 80
2, 68529, Note_on_c, 0, 62, 0
2, 68613, Note_on_c, 0, 60, 60
2, 68811, Note_on_c, 0, 60, 0
2, 69451, Note_on_c, 0, 61, 53
2, 69454, Note_on_c, 0, 58, 47
2, 69458, Note_on_c, 0, 55, 53
2, 69892, Note_on_c, 0, 53, 1
2, 70208, Note_on_c, 0, 61, 0
2, 70218, Note_on_c, 0, 53, 0
2, 70272, Note_on_c, 0, 55, 0
2, 70276, Note_on_c, 0, 58, 0
2, 70388, Note_on_c, 0, 61, 63
2, 70403, Note_on_c, 0, 58, 54
2, 70488, Note_on_c, 0, 61, 0
2, 70530, Note_on_c, 0, 58, 0
2, 71078, Note_on_c, 0, 64, 36
2, 71079, Note_on_c, 0, 55, 45
2, 71089, Note_on_c, 0, 57, 36
2, 71097, Note_on_c, 0, 60, 38
2, 71548, Note_on_c, 0, 96, 91
2, 71555, Note_on_c, 0, 84, 75
2, 71581, Note_on_c, 0, 86, 52
2, 71603, Note_on_c, 0, 55, 0
2, 71604, Note_on_c, 0, 57, 0
2, 71617, Note_on_c, 0, 64, 0
2, 71618, Note_on_c, 0, 86, 0
2, 71700, Note_on_c, 0, 60, 0
2, 71817, Note_on_c, 0, 96, 0
2, 71844, Note_on_c, 0, 84, 0
2, 72029, Note_on_c, 0, 65, 51
2, 72031, Note_on_c, 0, 60, 47
2, 72046, Note_on_c, 0, 58, 33
2, 72048, Note_on_c, 0, 54, 37
2, 72049, Note_on_c, 0, 93, 64
2, 72254, Note_on_c, 0, 93, 0
2, 72351, Note_on_c, 0, 89, 56
2, 72413, Note_on_c, 0, 65, 0
2, 72476, Note_on_c, 0, 89, 0
2, 72485, Note_on_c, 0, 60, 0
2, 72565, Note_on_c, 0, 58, 0
2, 72700, Note_on_c, 0, 54, 0
2, 72793, Note_on_c, 0, 62, 63
2, 72794, Note_on_c, 0, 58, 60
2, 72818, Note_on_c, 0, 55, 53
2, 72845, Note_on_c, 0, 53, 36
2, 73317, Note_on_c, 0, 62, 0
2, 73352, Note_on_c, 0, 94, 59
2, 73392, Note_on_c, 0, 58, 0
2, 73436, Note_on_c, 0, 92, 53
2, 73442, Note_on_c, 0, 53, 0
2, 73451, Note_on_c, 0, 55, 0
2, 73534, Note_on_c, 0, 94, 0
2, 73544, Note_on_c, 0, 90, 45
2, 73612, Note_on_c, 0, 92, 0
2, 73681, Note_on_c, 0, 90, 0
2, 73718, Note_on_c, 0, 89, 63
2, 73778, Note_on_c, 0, 89, 0
2, 73876, Note_on_c, 0, 61, 50
2, 73892, Note_on_c, 0, 87, 72
2, 73897, Note_on_c, 0, 58, 32
2, 73987, Note_on_c, 0, 87, 0
2, 74008, Note_on_c, 0, 52, 20
2, 74083, Note_on_c, 0, 88, 80
2, 74197, Note_on_c, 0, 88, 0
2, 74264, Note_on_c, 0, 85, 81
2, 74389, Note_on_c, 0, 85, 0
2, 74463, Note_on_c, 0, 84, 57
2, 74538, Note_on_c, 0, 84, 0
2, 74613, Note_on_c, 0, 52, 0
2, 74652, Note_on_c, 0, 82, 53
2, 74693, Note_on_c, 0, 61, 0
2, 74704, Note_on_c, 0, 58, 0
2, 74800, Note_on_c, 0, 82, 0
2, 74851, Note_on_c, 0, 80, 48
2, 74946, Note_on_c, 0, 80, 0
2, 75047, Note_on_c, 0, 81, 51
2, 75174, Note_on_c, 0, 81, 0
2, 75272, Note_on_c, 0, 76, 55
2, 75291, Note_on_c, 0, 61, 35
2, 75292, Note_on_c, 0, 65, 46
2, 75345, Note_on_c, 0, 55, 31
2, 75398, Note_on_c, 0, 76, 0
2, 75496, Note_on_c, 0, 72, 31
2, 75650, Note_on_c, 0, 65, 0
2, 75693, Note_on_c, 0, 55, 0
2, 75709, Note_on_c, 0, 72, 0
2, 75781, Note_on_c, 0, 74, 48
2, 75813, Note_on_c, 0, 61, 0
2, 75857, Note_on_c, 0, 74, 0
2, 75985, Note_on_c, 0, 65, 29
2, 75999, Note_on_c, 0, 54, 27
2, 76005, Note_on_c, 0, 60, 37
2, 76390, Note_on_c, 0, 65, 0
2, 76407, Note_on_c, 0, 60, 0
2, 76569, Note_on_c, 0, 54, 0
2, 76681, Note_on_c, 0, 64, 54
2, 76707, Note_on_c, 0, 59, 48
2, 76716, Note_on_c, 0, 53, 36
2, 76987, Note_on_c, 0, 59, 0
2, 77101, Note_on_c, 0, 59, 39
2, 77277, Note_on_c, 0, 64, 0
2, 77314, Note_on_c, 0, 94, 77
2, 77352, Note_on_c, 0, 59, 0
2, 77382, Note_on_c, 0, 53, 0
2, 77503, Note_on_c, 0, 94, 0
2, 77608, Note_on_c, 0, 58, 60
2, 77611, Note_on_c, 0, 92, 76
2, 77624, Note_on_c, 0, 63, 49
2, 77651, Note_on_c, 0, 52, 39
2, 77741, Note_on_c, 0, 92, 0
2, 77867, Note_on_c, 0, 90, 35
2, 77912, Note_on_c, 0, 63, 0
2, 78003, Note_on_c, 0, 58, 0
2, 78020, Note_on_c, 0, 90, 0
2, 78116, Note_on_c, 0, 63, 33
2, 78123, Note_on_c, 0, 88, 74
2, 78138, Note_on_c, 0, 58, 36
2, 78207, Note_on_c, 0, 88, 0
2, 78234, Note_on_c, 0, 52, 0
2, 78237, Note_on_c, 0, 63, 0
2, 78352, Note_on_c, 0, 86, 46
2, 78353, Note_on_c, 0, 58, 0
2, 78545, Note_on_c, 0, 86, 0
2, 78602, Note_on_c, 0, 60, 39
2, 78610, Note_on_c, 0, 57, 47
2, 78618, Note_on_c, 0, 84, 67
2, 78721, Note_on_c, 0, 60, 0
2, 78725, Note_on_c, 0, 84, 0
2, 78779, Note_on_c, 0, 57, 0
2, 78863, Note_on_c, 0, 81, 38
2, 79052, Note_on_c, 0, 81, 0
2, 79095, Note_on_c, 0, 86, 68
2, 79183, Note_on_c, 0, 86, 0
2, 79286, Note_on_c, 0, 84, 63
2, 79388, Note_on_c, 0, 84, 0
2, 79560, Note_on_c, 0, 81, 64
2, 79569, Note_on_c, 0, 63, 51
2, 79579, Note_on_c, 0, 67, 44
2, 79621, Note_on_c, 0, 67, 0
2, 79719, Note_on_c, 0, 63, 0
2, 79787, Note_on_c, 0, 77, 31
2, 79831, Note_on_c, 0, 81, 0
2, 79937, Note_on_c, 0, 77, 0
2, 80045, Note_on_c, 0, 85, 79
2, 80172, Note_on_c, 0, 85, 0
2, 80273, Note_on_c, 0, 84, 56
2, 80387, Note_on_c, 0, 84, 0
2, 80517, Note_on_c, 0, 61, 59
2, 80524, Note_on_c, 0, 82, 61
2, 80543, Note_on_c, 0, 58, 40
2, 80545, Note_on_c, 0, 55, 34
2, 80593, Note_on_c, 0, 55, 0
2, 80601, Note_on_c, 0, 61, 0
2, 80688, Note_on_c, 0, 82, 0
2, 80778, Note_on_c, 0, 77, 26
2, 80839, Note_on_c, 0, 58, 0
2, 80943, Note_on_c, 0, 77, 0
2, 81015, Note_on_c, 0, 82, 67
2, 81152, Note_on_c, 0, 82, 0
2, 81241, Note_on_c, 0, 77, 26
2, 81464, Note_on_c, 0, 77, 0
2, 81473, Note_on_c, 0, 61, 60
2, 81474, Note_on_c, 0, 73, 48
2, 81500, Note_on_c, 0, 58, 45
2, 81577, Note_on_c, 0, 61, 0
2, 81647, Note_on_c, 0, 73, 0
2, 81711, Note_on_c, 0, 58, 0
2, 81716, Note_on_c, 0, 72, 44
2, 81849, Note_on_c, 0, 72, 0
2, 81936, Note_on_c, 0, 77, 50
2, 82051, Note_on_c, 0, 77, 0
2, 82155, Note_on_c, 0, 75, 36
2, 82315, Note_on_c, 0, 75, 0
2, 82428, Note_on_c, 0, 72, 41
2, 82433, Note_on_c, 0, 62, 44
2, 82462, Note_on_c, 0, 57, 34
2, 82469, Note_on_c, 0, 72, 0
2, 82477, Note_on_c, 0, 62, 0
2, 82568, Note_on_c, 0, 57, 0
2, 82617, Note_on_c, 0, 74, 65
2, 82872, Note_on_c, 0, 74, 0
2, 82911, Note_on_c, 0, 69, 24
2, 82948, Note_on_c, 0, 69, 0
2, 82977, Note_on_c, 0, 57, 34
2, 83063, Note_on_c, 0, 57, 0
2, 83071, Note_on_c, 0, 72, 55
2, 83256, Note_on_c, 0, 72, 0
2, 83359, Note_on_c, 0, 74, 36
2, 83373, Note_on_c, 0, 72, 50
2, 83434, Note_on_c, 0, 74, 0
2, 83474, Note_on_c, 0, 57, 19
2, 83523, Note_on_c, 0, 57, 0
2, 83535, Note_on_c, 0, 72, 0
2, 83547, Note_on_c, 0, 69, 44
2, 83788, Note_on_c, 0, 69, 0
2, 83869, Note_on_c, 0, 72, 60
2, 83908, Note_on_c, 0, 60, 26
2, 83949, Note_on_c, 0, 72, 0
2, 83951, Note_on_c, 0, 57, 25
2, 83955, Note_on_c, 0, 60, 0
2, 84009, Note_on_c, 0, 57, 0
2, 84363, Note_on_c, 0, 61, 62
2, 84386, Note_on_c, 0, 58, 34
2, 84410, Note_on_c, 0, 61, 0
2, 84546, Note_on_c, 0, 58, 0
2, 84604, Note_on_c, 0, 73, 31
2, 84650, Note_on_c, 0, 73, 0
2, 84694, Note_on_c, 0, 75, 46
2, 84786, Note_on_c, 0, 73, 35
2, 84866, Note_on_c, 0, 58, 31
2, 84872, Note_on_c, 0, 75, 0
2, 84953, Note_on_c, 0, 73, 0
2, 84954, Note_on_c, 0, 72, 57
2, 85034, Note_on_c, 0, 58, 0
2, 85059, Note_on_c, 0, 72, 0
2, 85336, Note_on_c, 0, 70, 73
2, 85343, Note_on_c, 0, 61, 61
2, 85370, Note_on_c, 0, 58, 36
2, 85442, Note_on_c, 0, 61, 0
2, 85490, Note_on_c, 0, 70, 0
2, 85601, Note_on_c, 0, 68, 42
2, 85605, Note_on_c, 0, 58, 0
2, 85739, Note_on_c, 0, 68, 0
2, 85827, Note_on_c, 0, 67, 72
2, 85844, Note_on_c, 0, 58, 46
2, 85846, Note_on_c, 0, 61, 40
2, 85883, Note_on_c, 0, 61, 0
2, 85964, Note_on_c, 0, 58, 0
2, 85987, Note_on_c, 0, 67, 0
2, 86039, Note_on_c, 0, 65, 44
2, 86195, Note_on_c, 0, 65, 0
2, 86290, Note_on_c, 0, 52, 38
2, 86317, Note_on_c, 0, 64, 51
2, 86354, Note_on_c, 0, 52, 0
2, 86411, Note_on_c, 0, 64, 0
2, 86468, Note_on_c, 0, 67, 74
2, 86728, Note_on_c, 0, 67, 0
2, 86767, Note_on_c, 0, 52, 30
2, 86827, Note_on_c, 0, 52, 0
2, 86930, Note_on_c, 0, 64, 69
2, 87138, Note_on_c, 0, 64, 0
2, 87213, Note_on_c, 0, 60, 66
2, 87315, Note_on_c, 0, 60, 0
2, 87422, Note_on_c, 0, 57, 29
2, 87617, Note_on_c, 0, 57, 0
2, 87680, Note_on_c, 0, 62, 79
2, 87831, Note_on_c, 0, 62, 0
2, 87946, Note_on_c, 0, 57, 37
2, 88109, Note_on_c, 0, 57, 0
2, 88215, Note_on_c, 0, 50, 50
2, 88300, Note_on_c, 0, 50, 0
2, 88414, Note_on_c, 0, 53, 44
2, 88420, Note_on_c, 0, 52, 34
2, 88459, Note_on_c, 0, 52, 0
2, 88635, Note_on_c, 0, 53, 0
2, 88660, Note_on_c, 0, 55, 64
2, 88738, Note_on_c, 0, 53, 47
2, 88783, Note_on_c, 0, 55, 0
2, 88859, Note_on_c, 0, 53, 0
2, 88880, Note_on_c, 0, 50, 35
2, 89055, Note_on_c, 0, 50, 0
2, 89165, Note_on_c, 0, 54, 57
2, 89262, Note_on_c, 0, 54, 0
2, 89351, Note_on_c, 0, 57, 74
2, 89483, Note_on_c, 0, 57, 0
2, 89524, Note_on_c, 0, 54, 30
2, 89586, Note_on_c, 0, 50, 22
2, 89611, Note_on_c, 0, 54, 0
2, 89653, Note_on_c, 0, 55, 58
2, 89680, Note_on_c, 0, 50, 0
2, 89758, Note_on_c, 0, 55, 0
2, 89820, Note_on_c, 0, 57, 45
2, 89934, Note_on_c, 0, 57, 0
2, 89970, Note_on_c, 0, 58, 52
2, 90079, Note_on_c, 0, 58, 0
2, 90121, Note_on_c, 0, 59, 59
2, 90186, Note_on_c, 0, 59, 0
2, 90269, Note_on_c, 0, 62, 68
2, 90391, Note_on_c, 0, 62, 0
2, 90433, Note_on_c, 0, 59, 37
2, 90507, Note_on_c, 0, 59, 0
2, 90578, Note_on_c, 0, 60, 58
2, 90626, Note_on_c, 0, 58, 36
2, 90700, Note_on_c, 0, 60, 0
2, 90716, Note_on_c, 0, 58, 0
2, 90733, Note_on_c, 0, 62, 45
2, 90873, Note_on_c, 0, 62, 0
2, 90937, Note_on_c, 0, 63, 42
2, 91023, Note_on_c, 0, 63, 0
2, 91072, Note_on_c, 0, 64, 57
2, 91181, Note_on_c, 0, 64, 0
2, 91232, Note_on_c, 0, 65, 57
2, 91324, Note_on_c, 0, 65, 0
2, 91564, Note_on_c, 0, 69, 80
2, 91605, Note_on_c, 0, 58, 21
2, 91610, Note_on_c, 0, 55, 39
2, 91647, Note_on_c, 0, 58, 0
2, 91651, Note_on_c, 0, 55, 0
2, 91678, Note_on_c, 0, 69, 0
2, 91757, Note_on_c, 0, 72, 85
2, 91964, Note_on_c, 0, 72, 0
2, 92519, Note_on_c, 0, 62, 64
2, 92549, Note_on_c, 0, 57, 40
2, 92551, Note_on_c, 0, 60, 45
2, 92563, Note_on_c, 0, 62, 0
2, 92590, Note_on_c, 0, 60, 0
2, 92625, Note_on_c, 0, 57, 0
2, 92684, Note_on_c, 0, 69, 66
2, 92812, Note_on_c, 0, 69, 0
2, 92989, Note_on_c, 0, 72, 77
2, 93093, Note_on_c, 0, 72, 0
2, 93190, Note_on_c, 0, 74, 84
2, 93340, Note_on_c, 0, 74, 0
2, 93460, Note_on_c, 0, 76, 85
2, 93472, Note_on_c, 0, 62, 37
2, 93487, Note_on_c, 0, 60, 43
2, 93513, Note_on_c, 0, 62, 0
2, 93525, Note_on_c, 0, 57, 28
2, 93581, Note_on_c, 0, 60, 0
2, 93582, Note_on_c, 0, 57, 0
2, 93598, Note_on_c, 0, 76, 0
2, 93676, Note_on_c, 0, 74, 53
2, 93915, Note_on_c, 0, 74, 0
2, 93939, Note_on_c, 0, 72, 57
2, 94058, Note_on_c, 0, 72, 0
2, 94171, Note_on_c, 0, 71, 44
2, 94430, Note_on_c, 0, 71, 0
2, 94455, Note_on_c, 0, 64, 44
2, 94474, Note_on_c, 0, 62, 31
2, 94496, Note_on_c, 0, 64, 0
2, 94525, Note_on_c, 0, 62, 0
2, 94589, Note_on_c, 0, 71, 75
2, 95048, Note_on_c, 0, 62, 32
2, 95109, Note_on_c, 0, 62, 0
2, 95413, Note_on_c, 0, 62, 68
2, 95514, Note_on_c, 0, 62, 0
2, 95914, Note_on_c, 0, 71, 0
2, 95930, Note_on_c, 0, 69, 58
2, 96044, Note_on_c, 0, 69, 0
2, 96105, Note_on_c, 0, 71, 74
2, 96328, Note_on_c, 0, 71, 0
2, 96405, Note_on_c, 0, 62, 50
2, 96457, Note_on_c, 0, 62, 0
2, 96570, Note_on_c, 0, 71, 75
2, 96817, Note_on_c, 0, 71, 0
2, 96891, Note_on_c, 0, 62, 67
2, 96902, Note_on_c, 0, 67, 70
2, 96915, Note_on_c, 0, 56, 48
2, 97465, Note_on_c, 0, 67, 0
2, 97500, Note_on_c, 0, 62, 0
2, 97721, Note_on_c, 0, 56, 0
2, 97784, Note_on_c, 0, 64, 50
2, 97809, Note_on_c, 0, 57, 54
2, 97816, Note_on_c, 0, 60, 42
2, 98138, Note_on_c, 0, 60, 0
2, 98238, Note_on_c, 0, 60, 30
2, 98276, Note_on_c, 0, 81, 40
2, 98326, Note_on_c, 0, 81, 0
2, 98365, Note_on_c, 0, 64, 0
2, 98421, Note_on_c, 0, 84, 87
2, 98425, Note_on_c, 0, 72, 84
2, 98556, Note_on_c, 0, 60, 0
2, 98606, Note_on_c, 0, 72, 0
2, 98608, Note_on_c, 0, 84, 0
2, 98772, Note_on_c, 0, 60, 44
2, 98786, Note_on_c, 0, 84, 61
2, 98789, Note_on_c, 0, 72, 47
2, 98830, Note_on_c, 0, 72, 0
2, 98861, Note_on_c, 0, 84, 0
2, 98996, Note_on_c, 0, 60, 0
2, 99059, Note_on_c, 0, 88, 84
2, 99068, Note_on_c, 0, 76, 72
2, 99244, Note_on_c, 0, 57, 0
2, 99306, Note_on_c, 0, 76, 0
2, 99313, Note_on_c, 0, 88, 0
2, 99314, Note_on_c, 0, 60, 33
2, 99384, Note_on_c, 0, 60, 0
2, 99713, Note_on_c, 0, 63, 59
2, 99719, Note_on_c, 0, 67, 71
2, 99722, Note_on_c, 0, 86, 84
2, 99724, Note_on_c, 0, 74, 87
2, 99731, Note_on_c, 0, 57, 58
2, 100066, Note_on_c, 0, 74, 0
2, 100081, Note_on_c, 0, 86, 0
2, 100213, Note_on_c, 0, 83, 68
2, 100322, Note_on_c, 0, 67, 0
2, 100344, Note_on_c, 0, 83, 0
2, 100435, Note_on_c, 0, 79, 33
2, 100512, Note_on_c, 0, 57, 0
2, 100718, Note_on_c, 0, 72, 35
2, 100730, Note_on_c, 0, 63, 0
2, 100741, Note_on_c, 0, 79, 0
2, 100761, Note_on_c, 0, 72, 0
2, 100769, Note_on_c, 0, 62, 25
2, 100868, Note_on_c, 0, 66, 64
2, 100887, Note_on_c, 0, 84, 88
2, 100897, Note_on_c, 0, 56, 58
2, 101067, Note_on_c, 0, 84, 0
2, 101196, Note_on_c, 0, 79, 68
2, 101334, Note_on_c, 0, 62, 0
2, 101336, Note_on_c, 0, 79, 0
2, 101340, Note_on_c, 0, 66, 0
2, 101402, Note_on_c, 0, 76, 32
2, 101663, Note_on_c, 0, 56, 0
2, 101666, Note_on_c, 0, 76, 0
2, 101677, Note_on_c, 0, 72, 51
2, 101769, Note_on_c, 0, 72, 0
2, 101784, Note_on_c, 0, 60, 43
2, 101792, Note_on_c, 0, 64, 34
2, 101832, Note_on_c, 0, 55, 22
2, 101837, Note_on_c, 0, 59, 25
2, 101908, Note_on_c, 0, 71, 17
2, 101991, Note_on_c, 0, 59, 0
2, 102044, Note_on_c, 0, 55, 0
2, 102093, Note_on_c, 0, 71, 0
2, 102264, Note_on_c, 0, 64, 0
2, 102420, Note_on_c, 0, 60, 0
2, 102593, Note_on_c, 0, 64, 51
2, 102614, Note_on_c, 0, 60, 53
2, 102643, Note_on_c, 0, 59, 32
2, 102647, Note_on_c, 0, 64, 0
2, 102781, Note_on_c, 0, 59, 0
2, 102789, Note_on_c, 0, 71, 66
2, 102790, Note_on_c, 0, 60, 0
2, 102869, Note_on_c, 0, 71, 0
2, 102885, Note_on_c, 0, 72, 56
2, 102987, Note_on_c, 0, 72, 0
2, 103008, Note_on_c, 0, 71, 46
2, 103153, Note_on_c, 0, 71, 0
2, 103159, Note_on_c, 0, 68, 55
2, 103164, Note_on_c, 0, 60, 44
2, 103217, Note_on_c, 0, 59, 22
2, 103270, Note_on_c, 0, 68, 0
2, 103295, Note_on_c, 0, 59, 0
2, 103300, Note_on_c, 0, 60, 0
2, 103365, Note_on_c, 0, 69, 54
2, 103527, Note_on_c, 0, 69, 0
2, 103614, Note_on_c, 0, 71, 72
2, 103622, Note_on_c, 0, 67, 66
2, 103631, Note_on_c, 0, 63, 39
2, 103667, Note_on_c, 0, 67, 0
2, 103748, Note_on_c, 0, 71, 0
2, 103789, Note_on_c, 0, 63, 0
2, 103836, Note_on_c, 0, 74, 90
2, 104027, Note_on_c, 0, 74, 0
2, 104103, Note_on_c, 0, 63, 39
2, 104163, Note_on_c, 0, 57, 28
2, 104212, Note_on_c, 0, 63, 0
2, 104227, Note_on_c, 0, 57, 0
2, 104277, Note_on_c, 0, 72, 61
2, 104509, Note_on_c, 0, 72, 0
2, 104536, Note_on_c, 0, 62, 52
2, 104537, Note_on_c, 0, 66, 55
2, 104539, Note_on_c, 0, 74, 70
2, 104561, Note_on_c, 0, 56, 34
2, 104633, Note_on_c, 0, 66, 0
2, 104678, Note_on_c, 0, 74, 0
2, 104790, Note_on_c, 0, 75, 53
2, 104885, Note_on_c, 0, 56, 0
2, 104932, Note_on_c, 0, 75, 0
2, 104995, Note_on_c, 0, 76, 58
2, 105011, Note_on_c, 0, 56, 39
2, 105030, Note_on_c, 0, 66, 37
2, 105079, Note_on_c, 0, 66, 0
2, 105135, Note_on_c, 0, 62, 0
2, 105148, Note_on_c, 0, 76, 0
2, 105183, Note_on_c, 0, 79, 43
2, 105359, Note_on_c, 0, 79, 0
2, 105389, Note_on_c, 0, 56, 0
2, 105443, Note_on_c, 0, 83, 80
2, 105568, Note_on_c, 0, 83, 0
2, 105578, Note_on_c, 0, 64, 37
2, 105592, Note_on_c, 0, 57, 36
2, 105594, Note_on_c, 0, 60, 43
2, 105623, Note_on_c, 0, 86, 81
2, 105629, Note_on_c, 0, 74, 77
2, 105830, Note_on_c, 0, 60, 0
2, 105877, Note_on_c, 0, 86, 0
2, 105933, Note_on_c, 0, 85, 62
2, 105977, Note_on_c, 0, 60, 35
2, 105981, Note_on_c, 0, 74, 0
2, 106066, Note_on_c, 0, 85, 0
2, 106114, Note_on_c, 0, 64, 0
2, 106140, Note_on_c, 0, 84, 45
2, 106194, Note_on_c, 0, 57, 0
2, 106356, Note_on_c, 0, 60, 0
2, 106366, Note_on_c, 0, 84, 0
2, 106436, Note_on_c, 0, 60, 24
2, 106446, Note_on_c, 0, 65, 49
2, 106451, Note_on_c, 0, 80, 47
2, 106461, Note_on_c, 0, 58, 31
2, 106470, Note_on_c, 0, 54, 33
2, 107059, Note_on_c, 0, 65, 0
2, 107116, Note_on_c, 0, 60, 0
2, 107320, Note_on_c, 0, 58, 0
2, 107353, Note_on_c, 0, 54, 0
2, 107405, Note_on_c, 0, 64, 60
2, 107422, Note_on_c, 0, 59, 54
2, 107440, Note_on_c, 0, 53, 48
2, 108041, Note_on_c, 0, 59, 0
2, 108072, Note_on_c, 0, 64, 0
2, 108117, Note_on_c, 0, 53, 0
2, 108335, Note_on_c, 0, 58, 55
2, 108337, Note_on_c, 0, 63, 62
2, 108357, Note_on_c, 0, 52, 62
2, 108384, Note_on_c, 0, 80, 0
2, 108708, Note_on_c, 0, 58, 0
2, 108848, Note_on_c, 0, 58, 36
2, 108979, Note_on_c, 0, 74, 99
2, 108980, Note_on_c, 0, 86, 91
2, 109187, Note_on_c, 0, 52, 0
2, 109292, Note_on_c, 0, 63, 0
2, 109298, Note_on_c, 0, 58, 0
2, 109320, Note_on_c, 0, 86, 0
2, 109375, Note_on_c, 0, 74, 0
2, 109447, Note_on_c, 0, 64, 31
2, 109448, Note_on_c, 0, 60, 35
2, 109458, Note_on_c, 0, 57, 46
2, 109479, Note_on_c, 0, 53, 26
2, 109491, Note_on_c, 0, 84, 64
2, 109500, Note_on_c, 0, 72, 59
2, 109645, Note_on_c, 0, 72, 0
2, 109655, Note_on_c, 0, 84, 0
2, 109824, Note_on_c, 0, 64, 0
2, 109963, Note_on_c, 0, 86, 84
2, 109964, Note_on_c, 0, 74, 87
2, 110079, Note_on_c, 0, 60, 0
2, 110229, Note_on_c, 0, 86, 0
2, 110282, Note_on_c, 0, 74, 0
2, 110375, Note_on_c, 0, 53, 0
2, 110406, Note_on_c, 0, 57, 0
2, 110440, Note_on_c, 0, 84, 64
2, 110461, Note_on_c, 0, 72, 59
2, 110660, Note_on_c, 0, 72, 0
2, 110671, Note_on_c, 0, 84, 0
2, 110754, Note_on_c, 0, 81, 53
2, 110789, Note_on_c, 0, 60, 47
2, 110795, Note_on_c, 0, 64, 30
2, 110848, Note_on_c, 0, 64, 0
2, 110902, Note_on_c, 0, 60, 0
2, 110903, Note_on_c, 0, 81, 0
2, 110971, Note_on_c, 0, 77, 33
2, 111225, Note_on_c, 0, 73, 42
2, 111258, Note_on_c, 0, 61, 46
2, 111261, Note_on_c, 0, 77, 0
2, 111276, Note_on_c, 0, 65, 48
2, 111321, Note_on_c, 0, 55, 29
2, 111335, Note_on_c, 0, 73, 0
2, 111451, Note_on_c, 0, 72, 40
2, 111565, Note_on_c, 0, 61, 0
2, 111709, Note_on_c, 0, 72, 0
2, 111735, Note_on_c, 0, 61, 25
2, 111782, Note_on_c, 0, 65, 0
2, 111878, Note_on_c, 0, 72, 74
2, 111880, Note_on_c, 0, 61, 0
2, 112158, Note_on_c, 0, 72, 0
2, 112186, Note_on_c, 0, 61, 46
2, 112189, Note_on_c, 0, 65, 25
2, 112237, Note_on_c, 0, 65, 0
2, 112313, Note_on_c, 0, 61, 0
2, 112388, Note_on_c, 0, 70, 51
2, 112447, Note_on_c, 0, 70, 0
2, 112457, Note_on_c, 0, 55, 0
2, 112480, Note_on_c, 0, 72, 57
2, 112608, Note_on_c, 0, 70, 42
2, 112622, Note_on_c, 0, 72, 0
2, 112743, Note_on_c, 0, 61, 33
2, 112751, Note_on_c, 0, 70, 0
2, 112777, Note_on_c, 0, 69, 35
2, 112779, Note_on_c, 0, 55, 32
2, 112882, Note_on_c, 0, 69, 0
2, 112905, Note_on_c, 0, 55, 0
2, 112929, Note_on_c, 0, 61, 0
2, 112953, Note_on_c, 0, 68, 39
2, 113151, Note_on_c, 0, 68, 0
2, 113217, Note_on_c, 0, 60, 29
2, 113218, Note_on_c, 0, 67, 55
2, 113224, Note_on_c, 0, 57, 36
2, 113306, Note_on_c, 0, 60, 0
2, 113361, Note_on_c, 0, 67, 0
2, 113386, Note_on_c, 0, 57, 0
2, 113443, Note_on_c, 0, 69, 43
2, 113616, Note_on_c, 0, 69, 0
2, 113668, Note_on_c, 0, 64, 53
2, 113740, Note_on_c, 0, 64, 0
2, 113818, Note_on_c, 0, 65, 66
2, 114058, Note_on_c, 0, 65, 0
2, 114116, Note_on_c, 0, 64, 37
2, 114118, Note_on_c, 0, 60, 39
2, 114132, Note_on_c, 0, 57, 40
2, 114137, Note_on_c, 0, 53, 34
2, 114743, Note_on_c, 0, 64, 0
2, 114751, Note_on_c, 0, 60, 0
2, 114793, Note_on_c, 0, 57, 0
2, 114841, Note_on_c, 0, 53, 0
2, 115053, Note_on_c, 0, 61, 56
2, 115059, Note_on_c, 0, 55, 56
2, 115064, Note_on_c, 0, 58, 50
2, 115172, Note_on_c, 0, 53, 8
2, 115391, Note_on_c, 0, 58, 0
2, 115445, Note_on_c, 0, 92, 25
2, 115456, Note_on_c, 0, 61, 0
2, 115479, Note_on_c, 0, 58, 31
2, 115483, Note_on_c, 0, 92, 0
2, 115518, Note_on_c, 0, 94, 64
2, 115557, Note_on_c, 0, 92, 45
2, 115570, Note_on_c, 0, 53, 0
2, 115625, Note_on_c, 0, 55, 0
2, 115672, Note_on_c, 0, 94, 0
2, 115701, Note_on_c, 0, 91, 57
2, 115705, Note_on_c, 0, 58, 0
2, 115740, Note_on_c, 0, 92, 0
2, 115742, Note_on_c, 0, 91, 0
2, 115822, Note_on_c, 0, 89, 32
2, 115873, Note_on_c, 0, 89, 0
2, 115935, Note_on_c, 0, 87, 64
2, 115985, Note_on_c, 0, 58, 25
2, 116047, Note_on_c, 0, 85, 59
2, 116048, Note_on_c, 0, 87, 0
2, 116119, Note_on_c, 0, 58, 0
2, 116129, Note_on_c, 0, 85, 0
2, 116255, Note_on_c, 0, 82, 42
2, 116323, Note_on_c, 0, 80, 42
2, 116441, Note_on_c, 0, 82, 0
2, 116461, Note_on_c, 0, 61, 38
2, 116470, Note_on_c, 0, 79, 36
2, 116498, Note_on_c, 0, 80, 0
2, 116517, Note_on_c, 0, 79, 0
2, 116545, Note_on_c, 0, 58, 20
2, 116613, Note_on_c, 0, 77, 17
2, 116651, Note_on_c, 0, 77, 0
2, 116709, Note_on_c, 0, 75, 27
2, 116743, Note_on_c, 0, 61, 0
2, 116803, Note_on_c, 0, 58, 0
2, 116809, Note_on_c, 0, 75, 0
2, 116930, Note_on_c, 0, 73, 42
2, 117011, Note_on_c, 0, 73, 0
2, 117028, Note_on_c, 0, 72, 67
2, 117110, Note_on_c, 0, 72, 0
2, 117153, Note_on_c, 0, 71, 54
2, 117213, Note_on_c, 0, 64, 22
2, 117245, Note_on_c, 0, 55, 34
2, 117247, Note_on_c, 0, 70, 67
2, 117254, Note_on_c, 0, 71, 0
2, 117256, Note_on_c, 0, 60, 31
2, 117263, Note_on_c, 0, 57, 27
2, 117346, Note_on_c, 0, 70, 0
2, 117374, Note_on_c, 0, 69, 55
2, 117581, Note_on_c, 0, 69, 0
2, 117651, Note_on_c, 0, 64, 0
2, 117670, Note_on_c, 0, 72, 77
2, 117711, Note_on_c, 0, 60, 0
2, 117754, Note_on_c, 0, 57, 0
2, 117786, Note_on_c, 0, 55, 0
2, 117825, Note_on_c, 0, 72, 0
2, 117976, Note_on_c, 0, 69, 75
2, 118062, Note_on_c, 0, 69, 0
2, 118190, Note_on_c, 0, 64, 46
2, 118341, Note_on_c, 0, 64, 0
2, 118432, Note_on_c, 0, 62, 64
2, 118553, Note_on_c, 0, 62, 0
2, 118635, Note_on_c, 0, 60, 38
2, 118861, Note_on_c, 0, 60, 0
2, 118903, Note_on_c, 0, 50, 46
2, 119003, Note_on_c, 0, 50, 0
2, 119046, Note_on_c, 0, 65, 57
2, 119049, Note_on_c, 0, 62, 49
2, 119052, Note_on_c, 0, 58, 49
2, 119054, Note_on_c, 0, 53, 48
2, 119064, Note_on_c, 0, 55, 49
2, 119236, Note_on_c, 0, 62, 0
2, 119276, Note_on_c, 0, 58, 0
2, 119283, Note_on_c, 0, 55, 0
2, 119319, Note_on_c, 0, 65, 0
2, 119366, Note_on_c, 0, 62, 35
2, 119384, Note_on_c, 0, 53, 0
2, 119402, Note_on_c, 0, 50, 58
2, 119441, Note_on_c, 0, 50, 0
2, 119464, Note_on_c, 0, 62, 0
2, 119873, Note_on_c, 0, 47, 75
2, 119880, Note_on_c, 0, 61, 68
2, 119882, Note_on_c, 0, 58, 74
2, 119889, Note_on_c, 0, 64, 64
2, 119894, Note_on_c, 0, 48, 70
2, 119898, Note_on_c, 0, 55, 49
2, 119911, Note_on_c, 0, 47, 0
2, 119936, Note_on_c, 0, 55, 0
2, 119966, Note_on_c, 0, 58, 0
2, 119979, Note_on_c, 0, 64, 0
2, 119981, Note_on_c, 0, 61, 0
2, 120348, Note_on_c, 0, 46, 25
2, 120358, Note_on_c, 0, 60, 74
2, 120386, Note_on_c, 0, 46, 0
2, 120445, Note_on_c, 0, 60, 0
2, 120492, Note_on_c, 0, 48, 0
2, 120542, Note_on_c, 0, 62, 49
2, 120779, Note_on_c, 0, 62, 0
2, 120832, Note_on_c, 0, 65, 71
2, 120858, Note_on_c, 0, 47, 64
2, 120863, Note_on_c, 0, 48, 45
2, 120875, Note_on_c, 0, 65, 0
2, 120894, Note_on_c, 0, 47, 0
2, 120903, Note_on_c, 0, 48, 0
2, 121083, Note_on_c, 0, 76, 78
2, 121085, Note_on_c, 0, 74, 85
2, 121206, Note_on_c, 0, 76, 0
2, 121228, Note_on_c, 0, 74, 0
2, 121363, Note_on_c, 0, 72, 77
2, 121536, Note_on_c, 0, 72, 0
2, 121578, Note_on_c, 0, 69, 57
2, 121796, Note_on_c, 0, 69, 0
2, 121817, Note_on_c, 0, 47, 80
2, 121827, Note_on_c, 0, 48, 74
2, 121896, Note_on_c, 0, 47, 0
2, 122291, Note_on_c, 0, 65, 62
2, 122300, Note_on_c, 0, 48, 0
2, 122329, Note_on_c, 0, 65, 0
2, 122474, Note_on_c, 0, 69, 64
2, 122582, Note_on_c, 0, 69, 0
2, 122804, Note_on_c, 0, 72, 39
2, 122809, Note_on_c, 0, 71, 38
2, 122849, Note_on_c, 0, 72, 0
2, 122857, Note_on_c, 0, 71, 0
2, 122960, Note_on_c, 0, 74, 95
2, 123142, Note_on_c, 0, 74, 0
2, 123262, Note_on_c, 0, 72, 70
2, 123274, Note_on_c, 0, 58, 50
2, 123389, Note_on_c, 0, 72, 0
2, 123426, Note_on_c, 0, 69, 62
2, 123444, Note_on_c, 0, 58, 0
2, 123674, Note_on_c, 0, 69, 0
2, 123918, Note_on_c, 0, 74, 76
2, 124048, Note_on_c, 0, 74, 0
2, 124088, Note_on_c, 0, 72, 69
2, 124222, Note_on_c, 0, 63, 32
2, 124235, Note_on_c, 0, 72, 0
2, 124251, Note_on_c, 0, 69, 55
2, 124290, Note_on_c, 0, 63, 0
2, 124374, Note_on_c, 0, 69, 0
2, 124595, Note_on_c, 0, 70, 76
2, 124744, Note_on_c, 0, 70, 0
2, 124755, Note_on_c, 0, 69, 64
2, 124913, Note_on_c, 0, 69, 0
2, 124915, Note_on_c, 0, 65, 58
2, 125069, Note_on_c, 0, 65, 0
2, 125101, Note_on_c, 0, 60, 50
2, 125189, Note_on_c, 0, 60, 0
2, 125267, Note_on_c, 0, 67, 71
2, 125411, Note_on_c, 0, 65, 60
2, 125457, Note_on_c, 0, 67, 0
2, 125575, Note_on_c, 0, 65, 0
2, 125590, Note_on_c, 0, 60, 57
2, 125717, Note_on_c, 0, 57, 54
2, 125722, Note_on_c, 0, 60, 0
2, 125794, Note_on_c, 0, 57, 0
2, 125877, Note_on_c, 0, 62, 81
2, 126008, Note_on_c, 0, 62, 0
2, 126078, Note_on_c, 0, 60, 71
2, 126194, Note_on_c, 0, 60, 0
2, 126226, Note_on_c, 0, 57, 55
2, 126323, Note_on_c, 0, 57, 0
2, 126386, Note_on_c, 0, 53, 49
2, 126505, Note_on_c, 0, 53, 0
2, 126546, Note_on_c, 0, 61, 75
2, 126675, Note_on_c, 0, 61, 0
2, 126758, Note_on_c, 0, 60, 54
2, 126841, Note_on_c, 0, 60, 0
2, 126960, Note_on_c, 0, 58, 57
2, 127122, Note_on_c, 0, 58, 0
2, 127198, Note_on_c, 0, 53, 55
2, 127257, Note_on_c, 0, 53, 0
2, 127637, Note_on_c, 0, 41, 61
2, 127641, Note_on_c, 0, 51, 53
2, 127675, Note_on_c, 0, 41, 0
2, 127709, Note_on_c, 0, 51, 0
2, 128106, Note_on_c, 0, 54, 50
2, 128107, Note_on_c, 0, 63, 62
2, 128159, Note_on_c, 0, 63, 0
2, 128215, Note_on_c, 0, 54, 0
2, 128515, Note_on_c, 0, 61, 51
2, 128518, Note_on_c, 0, 74, 99
2, 128553, Note_on_c, 0, 61, 0
2, 128645, Note_on_c, 0, 74, 0
2, 128730, Note_on_c, 0, 73, 45
2, 128820, Note_on_c, 0, 73, 0
2, 129051, Note_on_c, 0, 70, 29
2, 129088, Note_on_c, 0, 70, 0
2, 129104, Note_on_c, 0, 57, 28
2, 129171, Note_on_c, 0, 57, 0
2, 129193, Note_on_c, 0, 72, 81
2, 129426, Note_on_c, 0, 72, 0
2, 129554, Note_on_c, 0, 57, 36
2, 129571, Note_on_c, 0, 69, 28
2, 129652, Note_on_c, 0, 57, 0
2, 129834, Note_on_c, 0, 69, 0
2, 129908, Note_on_c, 0, 65, 65
2, 130070, Note_on_c, 0, 57, 36
2, 130072, Note_on_c, 0, 65, 0
2, 130134, Note_on_c, 0, 60, 35
2, 130136, Note_on_c, 0, 57, 0
2, 130326, Note_on_c, 0, 60, 0
2, 130416, Note_on_c, 0, 61, 71
2, 130442, Note_on_c, 0, 58, 46
2, 130483, Note_on_c, 0, 61, 0
2, 130582, Note_on_c, 0, 58, 0
2, 130902, Note_on_c, 0, 74, 89
2, 131013, Note_on_c, 0, 74, 0
2, 131078, Note_on_c, 0, 73, 43
2, 131238, Note_on_c, 0, 70, 57
2, 131271, Note_on_c, 0, 73, 0
2, 131365, Note_on_c, 0, 70, 0
2, 131380, Note_on_c, 0, 61, 48
2, 131406, Note_on_c, 0, 65, 57
2, 131419, Note_on_c, 0, 58, 35
2, 131439, Note_on_c, 0, 61, 0
2, 131452, Note_on_c, 0, 65, 0
2, 131597, Note_on_c, 0, 58, 0
2, 131606, Note_on_c, 0, 72, 71
2, 131730, Note_on_c, 0, 72, 0
2, 131891, Note_on_c, 0, 70, 72
2, 131930, Note_on_c, 0, 58, 42
2, 132038, Note_on_c, 0, 70, 0
2, 132078, Note_on_c, 0, 58, 0
2, 132120, Note_on_c, 0, 65, 47
2, 132348, Note_on_c, 0, 65, 0
2, 132369, Note_on_c, 0, 61, 61
2, 132502, Note_on_c, 0, 61, 0
2, 132624, Note_on_c, 0, 60, 37
2, 132794, Note_on_c, 0, 60, 0
2, 133810, Note_on_c, 0, 57, 80
2, 133914, Note_on_c, 0, 57, 0
2, 134052, Note_on_c, 0, 58, 60
2, 134162, Note_on_c, 0, 58, 0
2, 134294, Note_on_c, 0, 60, 77
2, 134413, Note_on_c, 0, 60, 0
2, 134517, Note_on_c, 0, 57, 59
2, 134724, Note_on_c, 0, 57, 0
2, 135174, Note_on_c, 0, 57, 70
2, 135256, Note_on_c, 0, 57, 0
2, 135379, Note_on_c, 0, 58, 46
2, 135540, Note_on_c, 0, 58, 0
2, 135664, Note_on_c, 0, 60, 79
2, 135722, Note_on_c, 0, 55, 35
2, 135731, Note_on_c, 0, 48, 45
2, 135761, Note_on_c, 0, 55, 0
2, 135803, Note_on_c, 0, 60, 0
2, 135853, Note_on_c, 0, 48, 0
2, 135887, Note_on_c, 0, 57, 45
2, 136038, Note_on_c, 0, 57, 0
2, 137160, Note_on_c, 0, 72, 68
2, 137167, Note_on_c, 0, 57, 71
2, 137169, Note_on_c, 0, 62, 63
2, 137170, Note_on_c, 0, 67, 66
2, 137216, Note_on_c, 0, 62, 0
2, 137217, Note_on_c, 0, 57, 0
2, 137262, Note_on_c, 0, 67, 0
2, 137282, Note_on_c, 0, 72, 0
2, 137437, Note_on_c, 0, 60, 72
2, 137438, Note_on_c, 0, 76, 71
2, 137440, Note_on_c, 0, 72, 72
2, 137441, Note_on_c, 0, 67, 80
2, 137450, Note_on_c, 0, 69, 62
2, 137549, Note_on_c, 0, 60, 0
2, 137561, Note_on_c, 0, 67, 0
2, 137576, Note_on_c, 0, 69, 0
2, 137621, Note_on_c, 0, 72, 0
2, 137624, Note_on_c, 0, 76, 0
2, 137763, Note_on_c, 0, 79, 81
2, 137767, Note_on_c, 0, 64, 84
2, 137768, Note_on_c, 0, 69, 82
2, 137771, Note_on_c, 0, 76, 60
2, 137772, Note_on_c, 0, 72, 76
2, 138169, Note_on_c, 0, 76, 0
2, 138181, Note_on_c, 0, 72, 0
2, 138186, Note_on_c, 0, 79, 0
2, 138221, Note_on_c, 0, 69, 0
2, 138241, Note_on_c, 0, 64, 0
2, 138274, Note_on_c, 0, 61, 29
2, 138324, Note_on_c, 0, 61, 0
2, 138350, Note_on_c, 0, 77, 65
2, 138355, Note_on_c, 0, 62, 66
2, 138362, Note_on_c, 0, 74, 50
2, 138363, Note_on_c, 0, 70, 40
2, 138365, Note_on_c, 0, 67, 53
2, 138610, Note_on_c, 0, 74, 0
2, 138648, Note_on_c, 0, 77, 0
2, 138663, Note_on_c, 0, 67, 0
2, 138688, Note_on_c, 0, 70, 0
2, 138783, Note_on_c, 0, 76, 50
2, 138786, Note_on_c, 0, 70, 55
2, 138795, Note_on_c, 0, 62, 0
2, 138795, Note_on_c, 0, 61, 62
2, 138798, Note_on_c, 0, 67, 44
2, 138817, Note_on_c, 0, 73, 28
2, 138929, Note_on_c, 0, 70, 0
2, 138948, Note_on_c, 0, 67, 0
2, 138949, Note_on_c, 0, 73, 0
2, 139028, Note_on_c, 0, 76, 0
2, 139140, Note_on_c, 0, 72, 58
2, 139149, Note_on_c, 0, 69, 49
2, 139153, Note_on_c, 0, 61, 0
2, 139154, Note_on_c, 0, 64, 37
2, 139158, Note_on_c, 0, 60, 57
2, 139195, Note_on_c, 0, 69, 0
2, 139196, Note_on_c, 0, 64, 0
2, 139228, Note_on_c, 0, 60, 0
2, 139243, Note_on_c, 0, 72, 0
2, 139579, Note_on_c, 0, 68, 60
2, 139665, Note_on_c, 0, 68, 0
2, 139713, Note_on_c, 0, 85, 81
2, 139723, Note_on_c, 0, 75, 79
2, 139726, Note_on_c, 0, 80, 75
2, 139728, Note_on_c, 0, 70, 79
2, 139975, Note_on_c, 0, 85, 0
2, 139980, Note_on_c, 0, 80, 0
2, 139995, Note_on_c, 0, 70, 0
2, 139999, Note_on_c, 0, 75, 0
2, 140070, Note_on_c, 0, 84, 68
2, 140073, Note_on_c, 0, 79, 68
2, 140082, Note_on_c, 0, 74, 73
2, 140095, Note_on_c, 0, 69, 75
2, 140188, Note_on_c, 0, 84, 0
2, 140189, Note_on_c, 0, 79, 0
2, 140251, Note_on_c, 0, 74, 0
2, 140322, Note_on_c, 0, 69, 0
2, 140385, Note_on_c, 0, 81, 64
2, 140394, Note_on_c, 0, 72, 62
2, 140395, Note_on_c, 0, 65, 56
2, 140399, Note_on_c, 0, 77, 53
2, 140507, Note_on_c, 0, 77, 0
2, 140526, Note_on_c, 0, 81, 0
2, 140566, Note_on_c, 0, 72, 0
2, 140696, Note_on_c, 0, 77, 51
2, 140701, Note_on_c, 0, 62, 51
2, 140707, Note_on_c, 0, 65, 0
2, 140718, Note_on_c, 0, 69, 41
2, 140731, Note_on_c, 0, 74, 30
2, 140740, Note_on_c, 0, 72, 30
2, 140895, Note_on_c, 0, 72, 0
2, 140909, Note_on_c, 0, 74, 0
2, 140912, Note_on_c, 0, 69, 0
2, 140956, Note_on_c, 0, 77, 0
2, 141001, Note_on_c, 0, 62, 0
2, 141009, Note_on_c, 0, 74, 40
2, 141021, Note_on_c, 0, 69, 60
2, 141031, Note_on_c, 0, 60, 46
2, 141042, Note_on_c, 0, 72, 35
2, 141541, Note_on_c, 0, 72, 0
2, 141555, Note_on_c, 0, 74, 0
2, 141611, Note_on_c, 0, 60, 0
2, 141625, Note_on_c, 0, 69, 0
2, 141921, Note_on_c, 0, 58, 28
2, 142020, Note_on_c, 0, 58, 0
2, 142062, Note_on_c, 0, 61, 59
2, 142066, Note_on_c, 0, 72, 59
2, 142071, Note_on_c, 0, 65, 64
2, 142085, Note_on_c, 0, 69, 44
2, 142089, Note_on_c, 0, 60, 63
2, 142187, Note_on_c, 0, 61, 0
2, 142204, Note_on_c, 0, 65, 0
2, 142219, Note_on_c, 0, 69, 0
2, 142236, Note_on_c, 0, 60, 0
2, 142262, Note_on_c, 0, 72, 0
2, 142284, Note_on_c, 0, 59, 42
2, 142421, Note_on_c, 0, 58, 58
2, 142423, Note_on_c, 0, 59, 0
2, 142521, Note_on_c, 0, 58, 0
2, 142573, Note_on_c, 0, 57, 59
2, 142636, Note_on_c, 0, 57, 0
2, 142659, Note_on_c, 0, 61, 39
2, 142666, Note_on_c, 0, 56, 48
2, 142675, Note_on_c, 0, 69, 46
2, 142684, Note_on_c, 0, 65, 52
2, 142942, Note_on_c, 0, 65, 0
2, 142945, Note_on_c, 0, 61, 0
2, 142961, Note_on_c, 0, 69, 0
2, 143010, Note_on_c, 0, 61, 55
2, 143016, Note_on_c, 0, 56, 0
2, 143032, Note_on_c, 0, 65, 69
2, 143037, Note_on_c, 0, 69, 44
2, 143050, Note_on_c, 0, 55, 62
2, 143756, Note_on_c, 0, 69, 0
2, 143785, Note_on_c, 0, 65, 0
2, 143794, Note_on_c, 0, 61, 0
2, 143837, Note_on_c, 0, 55, 0
2, 143924, Note_on_c, 0, 63, 74
2, 143925, Note_on_c, 0, 73, 63
2, 143990, Note_on_c, 0, 58, 57
2, 144106, Note_on_c, 0, 73, 0
2, 144112, Note_on_c, 0, 63, 0
2, 144193, Note_on_c, 0, 58, 0
2, 144203, Note_on_c, 0, 72, 51
2, 144208, Note_on_c, 0, 67, 61
2, 144224, Note_on_c, 0, 57, 50
2, 144226, Note_on_c, 0, 62, 52
2, 144336, Note_on_c, 0, 72, 0
2, 144342, Note_on_c, 0, 67, 0
2, 144422, Note_on_c, 0, 62, 0
2, 144528, Note_on_c, 0, 57, 0
2, 144542, Note_on_c, 0, 53, 44
2, 144553, Note_on_c, 0, 69, 51
2, 144565, Note_on_c, 0, 60, 42
2, 144568, Note_on_c, 0, 64, 41
2, 144636, Note_on_c, 0, 64, 0
2, 144680, Note_on_c, 0, 60, 0
2, 144720, Note_on_c, 0, 69, 0
2, 144859, Note_on_c, 0, 65, 70
2, 144867, Note_on_c, 0, 53, 0
2, 144868, Note_on_c, 0, 60, 60
2, 144877, Note_on_c, 0, 50, 55
2, 144906, Note_on_c, 0, 60, 0
2, 144929, Note_on_c, 0, 50, 0
2, 144959, Note_on_c, 0, 65, 0
2, 145952, Note_on_c, 0, 61, 67
2, 145988, Note_on_c, 0, 58, 69
2, 145989, Note_on_c, 0, 55, 70
2, 145990, Note_on_c, 0, 53, 42
2, 146130, Note_on_c, 0, 53, 0
2, 146150, Note_on_c, 0, 61, 0
2, 146177, Note_on_c, 0, 55, 0
2, 146200, Note_on_c, 0, 58, 0
2, 146756, Note_on_c, 0, 61, 68
2, 146780, Note_on_c, 0, 55, 60
2, 146783, Note_on_c, 0, 53, 46
2, 146784, Note_on_c, 0, 58, 52
2, 146826, Note_on_c, 0, 53, 0
2, 146848, Note_on_c, 0, 55, 0
2, 146853, Note_on_c, 0, 61, 0
2, 146922, Note_on_c, 0, 58, 0
2, 147228, Note_on_c, 0, 72, 80
2, 147426, Note_on_c, 0, 70, 62
2, 147458, Note_on_c, 0, 72, 0
2, 147680, Note_on_c, 0, 68, 61
2, 147723, Note_on_c, 0, 70, 0
2, 147798, Note_on_c, 0, 68, 0
2, 147881, Note_on_c, 0, 69, 64
2, 148125, Note_on_c, 0, 69, 0
2, 148133, Note_on_c, 0, 64, 71
2, 148161, Note_on_c, 0, 52, 55
2, 148167, Note_on_c, 0, 55, 44
2, 148211, Note_on_c, 0, 55, 0
2, 148261, Note_on_c, 0, 64, 0
2, 148280, Note_on_c, 0, 52, 0
2, 148372, Note_on_c, 0, 60, 44
2, 148660, Note_on_c, 0, 60, 0
2, 148665, Note_on_c, 0, 57, 53
2, 148700, Note_on_c, 0, 48, 35
2, 148732, Note_on_c, 0, 57, 0
2, 148818, Note_on_c, 0, 48, 0
2, 148850, Note_on_c, 0, 65, 91
2, 149191, Note_on_c, 0, 65, 0
2, 149308, Note_on_c, 0, 60, 68
2, 149504, Note_on_c, 0, 60, 0
2, 149637, Note_on_c, 0, 62, 65
2, 149643, Note_on_c, 0, 58, 68
2, 149659, Note_on_c, 0, 53, 55
2, 149661, Note_on_c, 0, 55, 60
2, 149750, Note_on_c, 0, 55, 0
2, 149775, Note_on_c, 0, 53, 0
2, 149794, Note_on_c, 0, 58, 0
2, 149835, Note_on_c, 0, 62, 0
2, 150094, Note_on_c, 0, 65, 75
2, 150100, Note_on_c, 0, 62, 64
2, 150118, Note_on_c, 0, 58, 71
2, 150153, Note_on_c, 0, 57, 53
2, 150158, Note_on_c, 0, 55, 46
2, 150194, Note_on_c, 0, 58, 0
2, 150196, Note_on_c, 0, 57, 0
2, 150201, Note_on_c, 0, 55, 0
2, 150203, Note_on_c, 0, 62, 0
2, 150233, Note_on_c, 0, 65, 0
2, 150542, Note_on_c, 0, 62, 74
2, 150553, Note_on_c, 0, 58, 59
2, 150569, Note_on_c, 0, 69, 49
2, 150570, Note_on_c, 0, 65, 61
2, 150571, Note_on_c, 0, 57, 76
2, 150596, Note_on_c, 0, 58, 0
2, 150614, Note_on_c, 0, 65, 0
2, 150634, Note_on_c, 0, 62, 0
2, 150661, Note_on_c, 0, 57, 0
2, 150671, Note_on_c, 0, 69, 0
2, 150919, Note_on_c, 0, 75, 85
2, 150925, Note_on_c, 0, 63, 77
2, 150930, Note_on_c, 0, 68, 72
2, 150931, Note_on_c, 0, 64, 77
2, 150972, Note_on_c, 0, 68, 0
2, 151132, Note_on_c, 0, 63, 0
2, 151151, Note_on_c, 0, 75, 0
2, 151183, Note_on_c, 0, 64, 0
2, 151617, Note_on_c, 0, 67, 66
2, 151629, Note_on_c, 0, 57, 60
2, 151739, Note_on_c, 0, 67, 0
2, 151748, Note_on_c, 0, 57, 0
2, 151890, Note_on_c, 0, 63, 72
2, 151894, Note_on_c, 0, 58, 67
2, 151897, Note_on_c, 0, 73, 58
2, 151915, Note_on_c, 0, 68, 69
2, 152101, Note_on_c, 0, 73, 0
2, 152106, Note_on_c, 0, 58, 0
2, 152144, Note_on_c, 0, 68, 0
2, 152167, Note_on_c, 0, 63, 0
2, 152267, Note_on_c, 0, 56, 39
2, 152512, Note_on_c, 0, 56, 0
2, 152578, Note_on_c, 0, 72, 65
2, 152589, Note_on_c, 0, 67, 59
2, 152595, Note_on_c, 0, 57, 59
2, 152601, Note_on_c, 0, 62, 40
2, 152662, Note_on_c, 0, 67, 0
2, 152671, Note_on_c, 0, 72, 0
2, 152691, Note_on_c, 0, 62, 0
2, 152937, Note_on_c, 0, 57, 0
2, 153066, Note_on_c, 0, 53, 45
2, 153067, Note_on_c, 0, 65, 56
2, 153071, Note_on_c, 0, 62, 49
2, 153074, Note_on_c, 0, 60, 54
2, 153079, Note_on_c, 0, 69, 39
2, 153116, Note_on_c, 0, 60, 0
2, 153142, Note_on_c, 0, 62, 0
2, 153144, Note_on_c, 0, 69, 0
2, 153168, Note_on_c, 0, 65, 0
2, 153437, Note_on_c, 0, 53, 0
2, 153495, Note_on_c, 0, 47, 66
2, 153862, Note_on_c, 0, 47, 0
2, 153962, Note_on_c, 0, 69, 41
2, 154012, Note_on_c, 0, 69, 0
2, 154164, Note_on_c, 0, 74, 64
2, 154332, Note_on_c, 0, 74, 0
2, 154432, Note_on_c, 0, 62, 66
2, 154433, Note_on_c, 0, 77, 89
2, 154436, Note_on_c, 0, 67, 80
2, 154446, Note_on_c, 0, 56, 61
2, 154474, Note_on_c, 0, 65, 45
2, 154512, Note_on_c, 0, 67, 0
2, 154518, Note_on_c, 0, 65, 0
2, 154566, Note_on_c, 0, 56, 0
2, 154594, Note_on_c, 0, 62, 0
2, 154596, Note_on_c, 0, 77, 0
2, 154663, Note_on_c, 0, 76, 66
2, 154829, Note_on_c, 0, 76, 0
2, 154925, Note_on_c, 0, 74, 76
2, 154931, Note_on_c, 0, 76, 40
2, 154994, Note_on_c, 0, 76, 0
2, 155065, Note_on_c, 0, 74, 0
2, 155164, Note_on_c, 0, 72, 41
2, 155384, Note_on_c, 0, 72, 0
2, 155385, Note_on_c, 0, 71, 57
2, 155502, Note_on_c, 0, 64, 44
2, 155527, Note_on_c, 0, 71, 0
2, 155540, Note_on_c, 0, 60, 30
2, 155551, Note_on_c, 0, 57, 32
2, 155579, Note_on_c, 0, 70, 37
2, 155622, Note_on_c, 0, 70, 0
2, 155689, Note_on_c, 0, 71, 22
2, 155879, Note_on_c, 0, 71, 0
2, 155905, Note_on_c, 0, 74, 80
2, 155906, Note_on_c, 0, 64, 0
2, 156056, Note_on_c, 0, 60, 0
2, 156086, Note_on_c, 0, 57, 0
2, 156118, Note_on_c, 0, 72, 64
2, 156166, Note_on_c, 0, 74, 0
2, 156279, Note_on_c, 0, 72, 0
2, 156455, Note_on_c, 0, 69, 24
2, 156499, Note_on_c, 0, 69, 0
2, 156558, Note_on_c, 0, 72, 65
2, 156751, Note_on_c, 0, 72, 0
2, 156865, Note_on_c, 0, 64, 55
2, 156884, Note_on_c, 0, 55, 44
2, 156889, Note_on_c, 0, 60, 45
2, 156935, Note_on_c, 0, 60, 0
2, 156938, Note_on_c, 0, 64, 0
2, 156946, Note_on_c, 0, 55, 0
2, 157463, Note_on_c, 0, 62, 47
2, 157465, Note_on_c, 0, 63, 37
2, 157479, Note_on_c, 0, 67, 57
2, 157488, Note_on_c, 0, 57, 52
2, 157922, Note_on_c, 0, 62, 0
2, 157949, Note_on_c, 0, 67, 0
2, 157979, Note_on_c, 0, 57, 0
2, 158029, Note_on_c, 0, 63, 0
2, 158239, Note_on_c, 0, 66, 55
2, 158255, Note_on_c, 0, 62, 36
2, 158294, Note_on_c, 0, 56, 27
2, 158346, Note_on_c, 0, 60, 28
2, 158748, Note_on_c, 0, 76, 55
2, 158795, Note_on_c, 0, 66, 0
2, 158802, Note_on_c, 0, 62, 0
2, 158812, Note_on_c, 0, 76, 0
2, 158823, Note_on_c, 0, 60, 0
2, 158937, Note_on_c, 0, 79, 48
2, 159046, Note_on_c, 0, 56, 0
2, 159050, Note_on_c, 0, 79, 0
2, 159227, Note_on_c, 0, 84, 87
2, 159233, Note_on_c, 0, 64, 57
2, 159268, Note_on_c, 0, 60, 38
2, 159282, Note_on_c, 0, 64, 0
2, 159289, Note_on_c, 0, 57, 27
2, 159307, Note_on_c, 0, 55, 19
2, 159329, Note_on_c, 0, 60, 0
2, 159334, Note_on_c, 0, 84, 0
2, 159360, Note_on_c, 0, 55, 0
2, 159412, Note_on_c, 0, 57, 0
2, 159467, Note_on_c, 0, 84, 76
2, 159595, Note_on_c, 0, 84, 0
2, 159725, Note_on_c, 0, 84, 73
2, 159835, Note_on_c, 0, 84, 0
2, 159945, Note_on_c, 0, 84, 68
2, 160071, Note_on_c, 0, 84, 0
2, 160210, Note_on_c, 0, 84, 82
2, 160215, Note_on_c, 0, 64, 26
2, 160257, Note_on_c, 0, 64, 0
2, 160366, Note_on_c, 0, 84, 0
2, 160453, Note_on_c, 0, 83, 64
2, 160591, Note_on_c, 0, 83, 0
2, 160668, Note_on_c, 0, 81, 60
2, 160836, Note_on_c, 0, 81, 0
2, 160883, Note_on_c, 0, 79, 42
2, 161107, Note_on_c, 0, 79, 0
2, 161126, Note_on_c, 0, 77, 62
2, 161261, Note_on_c, 0, 77, 0
2, 161336, Note_on_c, 0, 63, 33
2, 161341, Note_on_c, 0, 67, 33
2, 161360, Note_on_c, 0, 62, 30
2, 161363, Note_on_c, 0, 75, 51
2, 161508, Note_on_c, 0, 74, 36
2, 161555, Note_on_c, 0, 75, 0
2, 161568, Note_on_c, 0, 74, 0
2, 161570, Note_on_c, 0, 57, 2
2, 161605, Note_on_c, 0, 67, 0
2, 161634, Note_on_c, 0, 79, 68
2, 161707, Note_on_c, 0, 62, 0
2, 161719, Note_on_c, 0, 63, 0
2, 161815, Note_on_c, 0, 57, 0
2, 161883, Note_on_c, 0, 74, 50
2, 162017, Note_on_c, 0, 79, 0
2, 162127, Note_on_c, 0, 74, 0
2, 162277, Note_on_c, 0, 62, 51
2, 162294, Note_on_c, 0, 66, 46
2, 162328, Note_on_c, 0, 56, 37
2, 162727, Note_on_c, 0, 73, 69
2, 162740, Note_on_c, 0, 62, 0
2, 162772, Note_on_c, 0, 66, 0
2, 163003, Note_on_c, 0, 73, 0
2, 163030, Note_on_c, 0, 77, 67
2, 163082, Note_on_c, 0, 56, 0
2, 163206, Note_on_c, 0, 77, 0
2, 163218, Note_on_c, 0, 64, 41
2, 163234, Note_on_c, 0, 72, 65
2, 163248, Note_on_c, 0, 60, 44
2, 163252, Note_on_c, 0, 57, 41
2, 163342, Note_on_c, 0, 64, 0
2, 163498, Note_on_c, 0, 72, 0
2, 163740, Note_on_c, 0, 71, 72
2, 163785, Note_on_c, 0, 60, 0
2, 163982, Note_on_c, 0, 57, 0
2, 164028, Note_on_c, 0, 74, 65
2, 164043, Note_on_c, 0, 71, 0
2, 164162, Note_on_c, 0, 74, 0
2, 164257, Note_on_c, 0, 72, 55
2, 164448, Note_on_c, 0, 72, 0
2, 164563, Note_on_c, 0, 69, 56
2, 164576, Note_on_c, 0, 60, 29
2, 164620, Note_on_c, 0, 60, 0
2, 164664, Note_on_c, 0, 69, 0
2, 165015, Note_on_c, 0, 63, 42
2, 165026, Note_on_c, 0, 65, 36
2, 165074, Note_on_c, 0, 65, 0
2, 165140, Note_on_c, 0, 63, 0
2, 165209, Note_on_c, 0, 71, 76
2, 165427, Note_on_c, 0, 71, 0
2, 165481, Note_on_c, 0, 74, 82
2, 165495, Note_on_c, 0, 63, 38
2, 165500, Note_on_c, 0, 73, 31
2, 165513, Note_on_c, 0, 57, 46
2, 165551, Note_on_c, 0, 73, 0
2, 165624, Note_on_c, 0, 57, 0
2, 165712, Note_on_c, 0, 72, 55
2, 165773, Note_on_c, 0, 63, 0
2, 165793, Note_on_c, 0, 74, 0
2, 165856, Note_on_c, 0, 72, 0
2, 165926, Note_on_c, 0, 62, 62
2, 165954, Note_on_c, 0, 56, 45
2, 165972, Note_on_c, 0, 69, 36
2, 165976, Note_on_c, 0, 62, 0
2, 165979, Note_on_c, 0, 67, 36
2, 166021, Note_on_c, 0, 69, 0
2, 166067, Note_on_c, 0, 67, 0
2, 166123, Note_on_c, 0, 56, 0
2, 166177, Note_on_c, 0, 64, 41
2, 166345, Note_on_c, 0, 64, 0
2, 166436, Note_on_c, 0, 60, 59
2, 166541, Note_on_c, 0, 60, 0
2, 166898, Note_on_c, 0, 52, 24
2, 167042, Note_on_c, 0, 52, 0
2, 167069, Note_on_c, 0, 55, 49
2, 167081, Note_on_c, 0, 62, 69
2, 167095, Note_on_c, 0, 45, 31
2, 167330, Note_on_c, 0, 62, 0
2, 167406, Note_on_c, 0, 59, 43
2, 167476, Note_on_c, 0, 59, 0
2, 167538, Note_on_c, 0, 55, 0
2, 167599, Note_on_c, 0, 45, 0
2, 167603, Note_on_c, 0, 60, 33
2, 167832, Note_on_c, 0, 60, 0
2, 167863, Note_on_c, 0, 62, 55
2, 167936, Note_on_c, 0, 54, 47
2, 168001, Note_on_c, 0, 62, 0
2, 168011, Note_on_c, 0, 54, 0
2, 168092, Note_on_c, 0, 63, 36
2, 168150, Note_on_c, 0, 63, 0
2, 168333, Note_on_c, 0, 65, 56
2, 168431, Note_on_c, 0, 60, 51
2, 168468, Note_on_c, 0, 65, 0
2, 168502, Note_on_c, 0, 70, 50
2, 168569, Note_on_c, 0, 60, 0
2, 168723, Note_on_c, 0, 70, 0
2, 168806, Note_on_c, 0, 72, 74
2, 168863, Note_on_c, 0, 62, 29
2, 168887, Note_on_c, 0, 58, 25
2, 168916, Note_on_c, 0, 53, 29
2, 168938, Note_on_c, 0, 72, 0
2, 168973, Note_on_c, 0, 57, 5
2, 169037, Note_on_c, 0, 69, 44
2, 169087, Note_on_c, 0, 58, 0
2, 169125, Note_on_c, 0, 69, 0
2, 169133, Note_on_c, 0, 62, 0
2, 169189, Note_on_c, 0, 70, 56
2, 169273, Note_on_c, 0, 70, 0
2, 169277, Note_on_c, 0, 58, 30
2, 169345, Note_on_c, 0, 57, 0
2, 169359, Note_on_c, 0, 72, 54
2, 169389, Note_on_c, 0, 53, 0
2, 169422, Note_on_c, 0, 58, 0
2, 169460, Note_on_c, 0, 72, 0
2, 169486, Note_on_c, 0, 73, 33
2, 169666, Note_on_c, 0, 75, 50
2, 169677, Note_on_c, 0, 73, 0
2, 169770, Note_on_c, 0, 75, 0
2, 169808, Note_on_c, 0, 76, 61
2, 169842, Note_on_c, 0, 63, 42
2, 169852, Note_on_c, 0, 58, 33
2, 169867, Note_on_c, 0, 56, 28
2, 169936, Note_on_c, 0, 76, 0
2, 169988, Note_on_c, 0, 78, 43
2, 170012, Note_on_c, 0, 52, 17
2, 170016, Note_on_c, 0, 63, 0
2, 170126, Note_on_c, 0, 58, 0
2, 170155, Note_on_c, 0, 80, 46
2, 170160, Note_on_c, 0, 78, 0
2, 170318, Note_on_c, 0, 80, 0
2, 170335, Note_on_c, 0, 82, 35
2, 170337, Note_on_c, 0, 63, 33
2, 170369, Note_on_c, 0, 58, 23
2, 170379, Note_on_c, 0, 82, 0
2, 170598, Note_on_c, 0, 52, 0
2, 170675, Note_on_c, 0, 63, 0
2, 170701, Note_on_c, 0, 56, 0
2, 170703, Note_on_c, 0, 58, 0
2, 170784, Note_on_c, 0, 64, 65
2, 170838, Note_on_c, 0, 57, 35
2, 170880, Note_on_c, 0, 53, 24
2, 170951, Note_on_c, 0, 64, 0
2, 171335, Note_on_c, 0, 60, 33
2, 171410, Note_on_c, 0, 60, 0
2, 171455, Note_on_c, 0, 86, 74
2, 171611, Note_on_c, 0, 86, 0
2, 171634, Note_on_c, 0, 57, 0
2, 171922, Note_on_c, 0, 53, 0
2, 172179, Note_on_c, 0, 62, 62
2, 172192, Note_on_c, 0, 60, 48
2, 172224, Note_on_c, 0, 57, 42
2, 172240, Note_on_c, 0, 62, 0
2, 172289, Note_on_c, 0, 57, 0
2, 172331, Note_on_c, 0, 60, 0
2, 172682, Note_on_c, 0, 60, 51
2, 172695, Note_on_c, 0, 57, 49
2, 172747, Note_on_c, 0, 60, 0
2, 172814, Note_on_c, 0, 57, 0
2, 172836, Note_on_c, 0, 86, 78
2, 173111, Note_on_c, 0, 86, 0
2, 173174, Note_on_c, 0, 84, 31
2, 173241, Note_on_c, 0, 84, 0
2, 173323, Note_on_c, 0, 86, 49
2, 173538, Note_on_c, 0, 86, 0
2, 173638, Note_on_c, 0, 89, 83
2, 173639, Note_on_c, 0, 61, 48
2, 173665, Note_on_c, 0, 58, 35
2, 173719, Note_on_c, 0, 55, 24
2, 173778, Note_on_c, 0, 89, 0
2, 173783, Note_on_c, 0, 55, 0
2, 173828, Note_on_c, 0, 61, 0
2, 173902, Note_on_c, 0, 87, 67
2, 173957, Note_on_c, 0, 58, 0
2, 174036, Note_on_c, 0, 87, 0
2, 174119, Note_on_c, 0, 58, 28
2, 174131, Note_on_c, 0, 85, 64
2, 174276, Note_on_c, 0, 85, 0
2, 174315, Note_on_c, 0, 58, 0
2, 174352, Note_on_c, 0, 84, 45
2, 174505, Note_on_c, 0, 84, 0
2, 174593, Note_on_c, 0, 82, 69
2, 174680, Note_on_c, 0, 57, 33
2, 174747, Note_on_c, 0, 82, 0
2, 174804, Note_on_c, 0, 81, 44
2, 174871, Note_on_c, 0, 57, 0
2, 174986, Note_on_c, 0, 81, 0
2, 175069, Note_on_c, 0, 82, 59
2, 175178, Note_on_c, 0, 82, 0
2, 175188, Note_on_c, 0, 83, 66
2, 175278, Note_on_c, 0, 83, 0
2, 175328, Note_on_c, 0, 84, 78
2, 175524, Note_on_c, 0, 84, 0
2, 175594, Note_on_c, 0, 81, 71
2, 175727, Note_on_c, 0, 81, 0
2, 175814, Note_on_c, 0, 77, 27
2, 175988, Note_on_c, 0, 77, 0
2, 176056, Note_on_c, 0, 72, 53
2, 176068, Note_on_c, 0, 63, 49
2, 176147, Note_on_c, 0, 72, 0
2, 176189, Note_on_c, 0, 63, 0
2, 176509, Note_on_c, 0, 67, 58
2, 176559, Note_on_c, 0, 67, 0
2, 176694, Note_on_c, 0, 61, 44
2, 176717, Note_on_c, 0, 58, 35
2, 176737, Note_on_c, 0, 72, 71
2, 176841, Note_on_c, 0, 61, 0
2, 176991, Note_on_c, 0, 73, 20
2, 176994, Note_on_c, 0, 72, 0
2, 177024, Note_on_c, 0, 74, 70
2, 177158, Note_on_c, 0, 74, 0
2, 177174, Note_on_c, 0, 73, 0
2, 177198, Note_on_c, 0, 75, 69
2, 177282, Note_on_c, 0, 58, 0
2, 177359, Note_on_c, 0, 75, 0
2, 177505, Note_on_c, 0, 70, 45
2, 177517, Note_on_c, 0, 58, 29
2, 177625, Note_on_c, 0, 70, 0
2, 177703, Note_on_c, 0, 58, 0
2, 177963, Note_on_c, 0, 61, 55
2, 177975, Note_on_c, 0, 58, 43
2, 178039, Note_on_c, 0, 61, 0
2, 178104, Note_on_c, 0, 58, 0
2, 178441, Note_on_c, 0, 55, 40
2, 178486, Note_on_c, 0, 55, 0
2, 178594, Note_on_c, 0, 73, 57
2, 178602, Note_on_c, 0, 63, 75
2, 178603, Note_on_c, 0, 68, 75
2, 178655, Note_on_c, 0, 58, 71
2, 178727, Note_on_c, 0, 73, 0
2, 178736, Note_on_c, 0, 58, 0
2, 178759, Note_on_c, 0, 68, 0
2, 178788, Note_on_c, 0, 63, 0
2, 178931, Note_on_c, 0, 72, 61
2, 178944, Note_on_c, 0, 67, 64
2, 178960, Note_on_c, 0, 57, 58
2, 178962, Note_on_c, 0, 62, 59
2, 179021, Note_on_c, 0, 67, 0
2, 179026, Note_on_c, 0, 72, 0
2, 179065, Note_on_c, 0, 57, 0
2, 179074, Note_on_c, 0, 62, 0
2, 179420, Note_on_c, 0, 50, 24
2, 179423, Note_on_c, 0, 52, 37
2, 179466, Note_on_c, 0, 50, 0
2, 179535, Note_on_c, 0, 52, 0
2, 179579, Note_on_c, 0, 64, 51
2, 179603, Note_on_c, 0, 55, 61
2, 179621, Note_on_c, 0, 57, 48
2, 179648, Note_on_c, 0, 60, 36
2, 179766, Note_on_c, 0, 57, 0
2, 179778, Note_on_c, 0, 64, 0
2, 179803, Note_on_c, 0, 60, 0
2, 179831, Note_on_c, 0, 55, 0
2, 179874, Note_on_c, 0, 67, 60
2, 179909, Note_on_c, 0, 57, 45
2, 179918, Note_on_c, 0, 54, 52
2, 179927, Note_on_c, 0, 60, 43
2, 179958, Note_on_c, 0, 57, 0
2, 179970, Note_on_c, 0, 67, 0
2, 179972, Note_on_c, 0, 60, 0
2, 180005, Note_on_c, 0, 54, 0
2, 180338, Note_on_c, 0, 50, 51
2, 180464, Note_on_c, 0, 50, 0
2, 180521, Note_on_c, 0, 62, 52
2, 180526, Note_on_c, 0, 53, 55
2, 180528, Note_on_c, 0, 58, 48
2, 180530, Note_on_c, 0, 65, 60
2, 180539, Note_on_c, 0, 55, 57
2, 180688, Note_on_c, 0, 62, 0
2, 180703, Note_on_c, 0, 55, 0
2, 180767, Note_on_c, 0, 58, 0
2, 180775, Note_on_c, 0, 65, 0
2, 180802, Note_on_c, 0, 53, 0
2, 180974, Note_on_c, 0, 62, 58
2, 180982, Note_on_c, 0, 55, 60
2, 180987, Note_on_c, 0, 58, 40
2, 180992, Note_on_c, 0, 50, 57
2, 181087, Note_on_c, 0, 58, 0
2, 181095, Note_on_c, 0, 55, 0
2, 181108, Note_on_c, 0, 62, 0
2, 181112, Note_on_c, 0, 50, 0
2, 181495, Note_on_c, 0, 58, 57
2, 181505, Note_on_c, 0, 64, 53
2, 181509, Note_on_c, 0, 69, 55
2, 181519, Note_on_c, 0, 57, 58
2, 181528, Note_on_c, 0, 61, 30
2, 181578, Note_on_c, 0, 61, 0
2, 181647, Note_on_c, 0, 69, 0
2, 181677, Note_on_c, 0, 58, 0
2, 181734, Note_on_c, 0, 64, 0
2, 181784, Note_on_c, 0, 57, 0
2, 181816, Note_on_c, 0, 54, 37
2, 181962, Note_on_c, 0, 58, 58
2, 181966, Note_on_c, 0, 56, 49
2, 181985, Note_on_c, 0, 54, 0
2, 181988, Note_on_c, 0, 64, 44
2, 182036, Note_on_c, 0, 64, 0
2, 182045, Note_on_c, 0, 58, 0
2, 182283, Note_on_c, 0, 73, 60
2, 182286, Note_on_c, 0, 63, 69
2, 182300, Note_on_c, 0, 68, 67
2, 182304, Note_on_c, 0, 56, 0
2, 182319, Note_on_c, 0, 58, 60
2, 182720, Note_on_c, 0, 73, 0
2, 182735, Note_on_c, 0, 68, 0
2, 182736, Note_on_c, 0, 58, 0
2, 182740, Note_on_c, 0, 63, 0
2, 182745, Note_on_c, 0, 56, 36
2, 182903, Note_on_c, 0, 73, 44
2, 182916, Note_on_c, 0, 63, 52
2, 182921, Note_on_c, 0, 68, 62
2, 182922, Note_on_c, 0, 58, 60
2, 182959, Note_on_c, 0, 56, 0
2, 183155, Note_on_c, 0, 73, 0
2, 183167, Note_on_c, 0, 68, 0
2, 183182, Note_on_c, 0, 58, 0
2, 183206, Note_on_c, 0, 63, 0
2, 183238, Note_on_c, 0, 72, 66
2, 183248, Note_on_c, 0, 67, 60
2, 183251, Note_on_c, 0, 62, 54
2, 183296, Note_on_c, 0, 57, 55
2, 183672, Note_on_c, 0, 72, 0
2, 183684, Note_on_c, 0, 67, 0
2, 183695, Note_on_c, 0, 62, 0
2, 183702, Note_on_c, 0, 57, 0
2, 183727, Note_on_c, 0, 56, 38
2, 183864, Note_on_c, 0, 72, 57
2, 183868, Note_on_c, 0, 62, 47
2, 183885, Note_on_c, 0, 67, 31
2, 183887, Note_on_c, 0, 57, 57
2, 183909, Note_on_c, 0, 56, 0
2, 184013, Note_on_c, 0, 62, 0
2, 184037, Note_on_c, 0, 67, 0
2, 184096, Note_on_c, 0, 72, 0
2, 184208, Note_on_c, 0, 71, 56
2, 184214, Note_on_c, 0, 66, 60
2, 184220, Note_on_c, 0, 61, 52
2, 184239, Note_on_c, 0, 56, 54
2, 184240, Note_on_c, 0, 57, 0
2, 184610, Note_on_c, 0, 71, 0
2, 184626, Note_on_c, 0, 66, 0
2, 184627, Note_on_c, 0, 61, 0
2, 184676, Note_on_c, 0, 54, 29
2, 184690, Note_on_c, 0, 56, 0
2, 184799, Note_on_c, 0, 56, 46
2, 184807, Note_on_c, 0, 66, 55
2, 184809, Note_on_c, 0, 61, 50
2, 184825, Note_on_c, 0, 71, 42
2, 184863, Note_on_c, 0, 54, 0
2, 184993, Note_on_c, 0, 61, 0
2, 185039, Note_on_c, 0, 66, 0
2, 185063, Note_on_c, 0, 71, 0
2, 185138, Note_on_c, 0, 62, 67
2, 185139, Note_on_c, 0, 72, 67
2, 185149, Note_on_c, 0, 67, 61
2, 185168, Note_on_c, 0, 57, 56
2, 185183, Note_on_c, 0, 56, 0
2, 185281, Note_on_c, 0, 62, 0
2, 185455, Note_on_c, 0, 67, 0
2, 185488, Note_on_c, 0, 72, 0
2, 185616, Note_on_c, 0, 56, 55
2, 185707, Note_on_c, 0, 57, 0
2, 185732, Note_on_c, 0, 56, 0
2, 185797, Note_on_c, 0, 86, 83
2, 185805, Note_on_c, 0, 74, 81
2, 185843, Note_on_c, 0, 76, 35
2, 185887, Note_on_c, 0, 76, 0
2, 186126, Note_on_c, 0, 86, 0
2, 186189, Note_on_c, 0, 74, 0
2, 186299, Note_on_c, 0, 62, 25
2, 186301, Note_on_c, 0, 57, 31
2, 186304, Note_on_c, 0, 84, 43
2, 186313, Note_on_c, 0, 72, 43
2, 186314, Note_on_c, 0, 60, 24
2, 186333, Note_on_c, 0, 53, 31
2, 187088, Note_on_c, 0, 84, 0
2, 187458, Note_on_c, 0, 72, 0
2, 187606, Note_on_c, 0, 77, 48
2, 187730, Note_on_c, 0, 77, 0
2, 187741, Note_on_c, 0, 60, 0
2, 187744, Note_on_c, 0, 62, 0
2, 187750, Note_on_c, 0, 53, 0
2, 187763, Note_on_c, 0, 57, 0
2, 187789, Note_on_c, 0, 81, 64
2, 188055, Note_on_c, 0, 81, 0
2, 188155, Note_on_c, 0, 61, 38
2, 188179, Note_on_c, 0, 55, 38
2, 188193, Note_on_c, 0, 58, 30
2, 188457, Note_on_c, 0, 53, 1
2, 188473, Note_on_c, 0, 82, 67
2, 188477, Note_on_c, 0, 70, 67
2, 188624, Note_on_c, 0, 82, 0
2, 188637, Note_on_c, 0, 70, 0
2, 188829, Note_on_c, 0, 82, 64
2, 188839, Note_on_c, 0, 61, 0
2, 188842, Note_on_c, 0, 70, 58
2, 188860, Note_on_c, 0, 55, 0
2, 188933, Note_on_c, 0, 58, 0
2, 188983, Note_on_c, 0, 53, 0
2, 189084, Note_on_c, 0, 61, 44
2, 189106, Note_on_c, 0, 58, 36
2, 189133, Note_on_c, 0, 61, 0
2, 189284, Note_on_c, 0, 58, 0
2, 189540, Note_on_c, 0, 61, 51
2, 189559, Note_on_c, 0, 58, 45
2, 189583, Note_on_c, 0, 61, 0
2, 189670, Note_on_c, 0, 58, 0
2, 189709, Note_on_c, 0, 82, 0
2, 189720, Note_on_c, 0, 70, 0
2, 190004, Note_on_c, 0, 69, 62
2, 190016, Note_on_c, 0, 81, 37
2, 190032, Note_on_c, 0, 60, 33
2, 190034, Note_on_c, 0, 57, 39
2, 190048, Note_on_c, 0, 69, 0
2, 190074, Note_on_c, 0, 81, 0
2, 190126, Note_on_c, 0, 57, 0
2, 190172, Note_on_c, 0, 53, 22
2, 190180, Note_on_c, 0, 57, 17
2, 190194, Note_on_c, 0, 64, 60
2, 190222, Note_on_c, 0, 72, 70
2, 190227, Note_on_c, 0, 84, 63
2, 190602, Note_on_c, 0, 64, 0
2, 190693, Note_on_c, 0, 57, 0
2, 190698, Note_on_c, 0, 60, 0
2, 190839, Note_on_c, 0, 53, 0
2, 190940, Note_on_c, 0, 64, 54
2, 190948, Note_on_c, 0, 84, 0
2, 190966, Note_on_c, 0, 60, 54
2, 190983, Note_on_c, 0, 64, 0
2, 191001, Note_on_c, 0, 57, 48
2, 191058, Note_on_c, 0, 57, 0
2, 191077, Note_on_c, 0, 72, 0
2, 191079, Note_on_c, 0, 60, 0
2, 191443, Note_on_c, 0, 81, 58
2, 191444, Note_on_c, 0, 69, 54
2, 191490, Note_on_c, 0, 69, 0
2, 191577, Note_on_c, 0, 81, 0
2, 191627, Note_on_c, 0, 79, 44
2, 191956, Note_on_c, 0, 79, 0
2, 192080, Note_on_c, 0, 61, 35
2, 192093, Note_on_c, 0, 65, 45
2, 192112, Note_on_c, 0, 60, 31
2, 192146, Note_on_c, 0, 55, 32
2, 192528, Note_on_c, 0, 55, 0
2, 192539, Note_on_c, 0, 60, 0
2, 192551, Note_on_c, 0, 65, 0
2, 192599, Note_on_c, 0, 61, 0
2, 192819, Note_on_c, 0, 65, 63
2, 192822, Note_on_c, 0, 61, 47
2, 192843, Note_on_c, 0, 60, 47
2, 192891, Note_on_c, 0, 55, 29
2, 192929, Note_on_c, 0, 65, 0
2, 192953, Note_on_c, 0, 55, 0
2, 192966, Note_on_c, 0, 60, 0
2, 193001, Note_on_c, 0, 61, 0
2, 194281, Note_on_c, 0, 73, 51
2, 194286, Note_on_c, 0, 63, 71
2, 194295, Note_on_c, 0, 68, 61
2, 194296, Note_on_c, 0, 58, 72
2, 194382, Note_on_c, 0, 58, 0
2, 194396, Note_on_c, 0, 63, 0
2, 194397, Note_on_c, 0, 73, 0
2, 194405, Note_on_c, 0, 68, 0
2, 194505, Note_on_c, 0, 67, 68
2, 194528, Note_on_c, 0, 72, 61
2, 194537, Note_on_c, 0, 57, 63
2, 194592, Note_on_c, 0, 62, 15
2, 194851, Note_on_c, 0, 67, 0
2, 194864, Note_on_c, 0, 72, 0
2, 195030, Note_on_c, 0, 62, 0
2, 195242, Note_on_c, 0, 69, 62
2, 195265, Note_on_c, 0, 62, 66
2, 195266, Note_on_c, 0, 60, 67
2, 195277, Note_on_c, 0, 65, 48
2, 195282, Note_on_c, 0, 57, 0
2, 195283, Note_on_c, 0, 53, 55
2, 195307, Note_on_c, 0, 60, 0
2, 195312, Note_on_c, 0, 62, 0
2, 195321, Note_on_c, 0, 65, 0
2, 195356, Note_on_c, 0, 69, 0
2, 195498, Note_on_c, 0, 53, 0
2, 195758, Note_on_c, 0, 48, 31
2, 195852, Note_on_c, 0, 48, 0
2, 195918, Note_on_c, 0, 62, 57
2, 195927, Note_on_c, 0, 58, 52
2, 195929, Note_on_c, 0, 55, 57
2, 195949, Note_on_c, 0, 65, 68
2, 195950, Note_on_c, 0, 53, 55
2, 196430, Control_c, 0, 64, 127
2, 196576, Note_on_c, 0, 62, 0
2, 196583, Note_on_c, 0, 58, 0
2, 196587, Note_on_c, 0, 65, 0
2, 196619, Note_on_c, 0, 55, 0
2, 196732, Note_on_c, 0, 51, 45
2, 196765, Note_on_c, 0, 53, 0
2, 196790, Control_c, 0, 64, 0
2, 196850, Note_on_c, 0, 67, 58
2, 196874, Note_on_c, 0, 58, 56
2, 196886, Note_on_c, 0, 64, 51
2, 196889, Note_on_c, 0, 55, 51
2, 196897, Note_on_c, 0, 61, 40
2, 196901, Note_on_c, 0, 51, 0
2, 197380, Note_on_c, 0, 64, 0
2, 197405, Control_c, 0, 64, 127
2, 197412, Note_on_c, 0, 67, 0
2, 197460, Note_on_c, 0, 58, 0
2, 197541, Note_on_c, 0, 61, 0
2, 197618, Note_on_c, 0, 55, 0
2, 197663, Control_c, 0, 64, 0
2, 197684, Note_on_c, 0, 65, 55
2, 197687, Note_on_c, 0, 62, 37
2, 197693, Note_on_c, 0, 57, 38
2, 197700, Note_on_c, 0, 60, 49
2, 198187, Note_on_c, 0, 47, 44
2, 198189, Note_on_c, 0, 48, 43
2, 198233, Note_on_c, 0, 47, 0
2, 198251, Note_on_c, 0, 48, 0
2, 198855, Control_c, 0, 64, 127
2, 198945, Note_on_c, 0, 57, 0
2, 199051, Note_on_c, 0, 60, 0
2, 199071, Note_on_c, 0, 62, 0
2, 199117, Note_on_c, 0, 65, 0
2, 199728, Control_c, 0, 64, 0
2, 199749, Note_on_c, 0, 70, 64
2, 199758, Note_on_c, 0, 74, 66
2, 199764, Note_on_c, 0, 53, 41
2, 199766, Note_on_c, 0, 65, 67
2, 199777, Note_on_c, 0, 58, 40
2, 199780, Note_on_c, 0, 63, 37
2, 200191, Control_c, 0, 64, 127
2, 200215, Note_on_c, 0, 74, 0
2, 200262, Note_on_c, 0, 63, 0
2, 200276, Note_on_c, 0, 53, 0
2, 200292, Note_on_c, 0, 65, 0
2, 200358, Note_on_c, 0, 70, 0
2, 200436, Note_on_c, 0, 58, 0
2, 200486, Control_c, 0, 64, 0
2, 200535, Note_on_c, 0, 73, 45
2, 200544, Note_on_c, 0, 68, 48
2, 200546, Note_on_c, 0, 61, 55
2, 200548, Note_on_c, 0, 70, 47
2, 200555, Note_on_c, 0, 64, 51
2, 200576, Note_on_c, 0, 58, 39
2, 200591, Note_on_c, 0, 52, 43
2, 200781, Control_c, 0, 64, 127
2, 201065, Note_on_c, 0, 52, 0
2, 201115, Note_on_c, 0, 61, 0
2, 201156, Note_on_c, 0, 58, 0
2, 201162, Note_on_c, 0, 64, 0
2, 201163, Note_on_c, 0, 73, 0
2, 201261, Note_on_c, 0, 68, 0
2, 201271, Note_on_c, 0, 70, 0
2, 201449, Control_c, 0, 64, 0
2, 201497, Note_on_c, 0, 67, 48
2, 201505, Note_on_c, 0, 72, 51
2, 201506, Note_on_c, 0, 62, 46
2, 201529, Note_on_c, 0, 60, 29
2, 201532, Note_on_c, 0, 57, 36
2, 201573, Note_on_c, 0, 53, 25
2, 201633, Note_on_c, 0, 62, 0
2, 201654, Control_c, 0, 64, 127
2, 201711, Note_on_c, 0, 67, 0
2, 201794, Note_on_c, 0, 72, 0
2, 202116, Note_on_c, 0, 84, 71
2, 202119, Note_on_c, 0, 72, 72
2, 202213, Note_on_c, 0, 72, 0
2, 202294, Note_on_c, 0, 84, 0
2, 202488, Control_c, 0, 64, 0
2, 202565, Control_c, 0, 64, 127
2, 202605, Note_on_c, 0, 89, 89
2, 202608, Note_on_c, 0, 77, 81
2, 202720, Note_on_c, 0, 77, 0
2, 202774, Note_on_c, 0, 89, 0
2, 202989, Note_on_c, 0, 60, 0
2, 203042, Note_on_c, 0, 57, 0
2, 203053, Note_on_c, 0, 53, 0
2, 203077, Note_on_c, 0, 93, 91
2, 203079, Note_on_c, 0, 81, 82
2, 203271, Note_on_c, 0, 81, 0
2, 203286, Note_on_c, 0, 93, 0
2, 203529, Note_on_c, 0, 61, 61
2, 203552, Note_on_c, 0, 53, 44
2, 203554, Control_c, 0, 64, 0
2, 203557, Note_on_c, 0, 58, 53
2, 203558, Note_on_c, 0, 55, 62
2, 203951, Control_c, 0, 64, 127
2, 204109, Note_on_c, 0, 55, 0
2, 204141, Note_on_c, 0, 53, 0
2, 204205, Note_on_c, 0, 61, 0
2, 204239, Note_on_c, 0, 58, 0
2, 204384, Note_on_c, 0, 61, 91
2, 204393, Note_on_c, 0, 58, 74
2, 204394, Note_on_c, 0, 53, 79
2, 204397, Note_on_c, 0, 55, 77
2, 204398, Note_on_c, 0, 94, 90
2, 204402, Control_c, 0, 64, 0
2, 204403, Note_on_c, 0, 82, 94
2, 204619, Control_c, 0, 64, 127
2, 204874, Note_on_c, 0, 61, 0
2, 204878, Note_on_c, 0, 53, 0
2, 204898, Note_on_c, 0, 55, 0
2, 204920, Note_on_c, 0, 94, 0
2, 204929, Note_on_c, 0, 82, 0
2, 204948, Note_on_c, 0, 58, 0
2, 205001, Note_on_c, 0, 61, 52
2, 205020, Note_on_c, 0, 58, 32
2, 205026, Note_on_c, 0, 53, 47
2, 205043, Note_on_c, 0, 93, 56
2, 205047, Note_on_c, 0, 81, 53
2, 205134, Note_on_c, 0, 81, 0
2, 205188, Note_on_c, 0, 93, 0
2, 205216, Note_on_c, 0, 53, 0
2, 205232, Note_on_c, 0, 61, 0
2, 205262, Note_on_c, 0, 58, 0
2, 205372, Note_on_c, 0, 96, 101
2, 205373, Note_on_c, 0, 84, 95
2, 205375, Note_on_c, 0, 64, 89
2, 205377, Note_on_c, 0, 60, 82
2, 205380, Control_c, 0, 64, 0
2, 205382, Note_on_c, 0, 53, 69
2, 205390, Note_on_c, 0, 57, 76
2, 205412, Note_on_c, 0, 56, 39
2, 205906, Control_c, 0, 64, 127
2, 205989, Note_on_c, 0, 96, 0
2, 206126, Note_on_c, 0, 84, 0
2, 206139, Note_on_c, 0, 57, 0
2, 206189, Note_on_c, 0, 64, 0
2, 206200, Note_on_c, 0, 60, 0
2, 206224, Note_on_c, 0, 56, 0
2, 206309, Note_on_c, 0, 53, 0
2, 206406, Control_c, 0, 64, 0
2, 206474, Note_on_c, 0, 53, 44
2, 206475, Note_on_c, 0, 60, 62
2, 206484, Note_on_c, 0, 64, 62
2, 206497, Note_on_c, 0, 93, 76
2, 206498, Note_on_c, 0, 57, 60
2, 206502, Note_on_c, 0, 81, 65
2, 206887, Note_on_c, 0, 93, 0
2, 206932, Control_c, 0, 64, 127
2, 206991, Note_on_c, 0, 81, 0
2, 206996, Note_on_c, 0, 53, 0
2, 206998, Note_on_c, 0, 64, 0
2, 207019, Note_on_c, 0, 60, 0
2, 207054, Note_on_c, 0, 57, 0
2, 207283, Note_on_c, 0, 61, 77
2, 207292, Control_c, 0, 64, 0
2, 207295, Note_on_c, 0, 58, 62
2, 207296, Note_on_c, 0, 55, 66
2, 207314, Note_on_c, 0, 53, 50
2, 207652, Control_c, 0, 64, 127
2, 207869, Note_on_c, 0, 61, 0
2, 208281, Control_c, 0, 64, 0
2, 208348, Note_on_c, 0, 55, 0
2, 208362, Note_on_c, 0, 72, 82
2, 208367, Note_on_c, 0, 61, 78
2, 208376, Note_on_c, 0, 65, 77
2, 208381, Note_on_c, 0, 68, 51
2, 208384, Note_on_c, 0, 60, 74
2, 208406, Note_on_c, 0, 58, 0
2, 208422, Note_on_c, 0, 53, 0
2, 208550, Note_on_c, 0, 65, 0
2, 208562, Note_on_c, 0, 68, 0
2, 208591, Note_on_c, 0, 61, 0
2, 208617, Note_on_c, 0, 72, 0
2, 208710, Note_on_c, 0, 60, 0
2, 208852, Note_on_c, 0, 70, 61
2, 208861, Note_on_c, 0, 61, 63
2, 208864, Note_on_c, 0, 58, 53
2, 208875, Note_on_c, 0, 68, 44
2, 208888, Note_on_c, 0, 65, 57
2, 209055, Control_c, 0, 64, 127
2, 209056, Note_on_c, 0, 65, 0
2, 209136, Note_on_c, 0, 68, 0
2, 209162, Note_on_c, 0, 70, 0
2, 209193, Note_on_c, 0, 61, 0
2, 209208, Note_on_c, 0, 56, 23
2, 209234, Control_c, 0, 64, 0
2, 209319, Note_on_c, 0, 56, 0
2, 209345, Note_on_c, 0, 69, 62
2, 209348, Note_on_c, 0, 58, 0
2, 209354, Note_on_c, 0, 64, 51
2, 209366, Note_on_c, 0, 57, 49
2, 209373, Note_on_c, 0, 60, 40
2, 209542, Control_c, 0, 64, 127
2, 209737, Note_on_c, 0, 60, 0
2, 209792, Note_on_c, 0, 57, 0
2, 209802, Note_on_c, 0, 64, 0
2, 209838, Note_on_c, 0, 69, 0
2, 210260, Control_c, 0, 64, 0
2, 210318, Note_on_c, 0, 77, 62
2, 210323, Note_on_c, 0, 60, 67
2, 210336, Note_on_c, 0, 70, 62
2, 210341, Note_on_c, 0, 54, 42
2, 210343, Note_on_c, 0, 74, 58
2, 210352, Note_on_c, 0, 65, 60
2, 210361, Note_on_c, 0, 50, 39
2, 210722, Control_c, 0, 64, 127
2, 210748, Note_on_c, 0, 65, 0
2, 210758, Note_on_c, 0, 50, 0
2, 210813, Note_on_c, 0, 54, 0
2, 210839, Note_on_c, 0, 70, 0
2, 210840, Note_on_c, 0, 74, 0
2, 210844, Note_on_c, 0, 60, 0
2, 210870, Note_on_c, 0, 77, 0
2, 211248, Control_c, 0, 64, 0
2, 211272, Note_on_c, 0, 82, 76
2, 211287, Note_on_c, 0, 75, 67
2, 211293, Note_on_c, 0, 71, 61
2, 211301, Note_on_c, 0, 64, 64
2, 211306, Note_on_c, 0, 59, 54
2, 211325, Note_on_c, 0, 53, 47
2, 211337, Note_on_c, 0, 79, 29
2, 211699, Control_c, 0, 64, 127
2, 211700, Note_on_c, 0, 71, 0
2, 211754, Note_on_c, 0, 79, 0
2, 211762, Note_on_c, 0, 75, 0
2, 211776, Note_on_c, 0, 64, 0
2, 211812, Note_on_c, 0, 59, 0
2, 211830, Note_on_c, 0, 82, 0
2, 211845, Note_on_c, 0, 53, 0
2, 212187, Control_c, 0, 64, 0
2, 212224, Note_on_c, 0, 63, 71
2, 212228, Note_on_c, 0, 85, 68
2, 212234, Note_on_c, 0, 58, 58
2, 212243, Note_on_c, 0, 75, 59
2, 212266, Note_on_c, 0, 52, 56
2, 212279, Note_on_c, 0, 80, 37
2, 212633, Note_on_c, 0, 52, 0
2, 212660, Control_c, 0, 64, 127
2, 212718, Note_on_c, 0, 58, 0
2, 212736, Note_on_c, 0, 63, 0
2, 212768, Note_on_c, 0, 80, 0
2, 212795, Note_on_c, 0, 85, 0
2, 212814, Note_on_c, 0, 75, 0
2, 212943, Control_c, 0, 64, 0
2, 212994, Note_on_c, 0, 84, 62
2, 213003, Note_on_c, 0, 64, 54
2, 213007, Note_on_c, 0, 79, 53
2, 213015, Note_on_c, 0, 74, 45
2, 213024, Note_on_c, 0, 60, 49
2, 213037, Note_on_c, 0, 84, 0
2, 213046, Note_on_c, 0, 64, 0
2, 213049, Note_on_c, 0, 79, 0
2, 213066, Note_on_c, 0, 60, 0
2, 213067, Note_on_c, 0, 74, 0
2, 213095, Note_on_c, 0, 53, 34
2, 213149, Note_on_c, 0, 53, 0
2, 213467, Note_on_c, 0, 47, 69
2, 213471, Note_on_c, 0, 48, 62
2, 213510, Note_on_c, 0, 47, 0
2, 214116, Note_on_c, 0, 62, 74
2, 214354, Note_on_c, 0, 48, 0
2, 214388, Note_on_c, 0, 62, 0
2, 214456, Note_on_c, 0, 60, 44
2, 214542, Note_on_c, 0, 60, 0
2, 214608, Note_on_c, 0, 62, 64
2, 214976, Note_on_c, 0, 62, 0
2, 215058, Note_on_c, 0, 57, 41
2, 215085, Note_on_c, 0, 60, 64
2, 215096, Note_on_c, 0, 47, 33
2, 215339, Note_on_c, 0, 60, 0
2, 215444, Note_on_c, 0, 57, 0
2, 215585, Note_on_c, 0, 60, 79
2, 215597, Note_on_c, 0, 47, 0
2, 215951, Note_on_c, 0, 60, 0
2, 215979, Note_on_c, 0, 47, 20
2, 216031, Note_on_c, 0, 59, 34
2, 216034, Note_on_c, 0, 47, 0
2, 216321, Note_on_c, 0, 59, 0
2, 216485, Note_on_c, 0, 56, 57
2, 216878, Note_on_c, 0, 56, 0
2, 217001, Note_on_c, 0, 57, 43
2, 217025, Note_on_c, 0, 52, 24
2, 217042, Note_on_c, 0, 45, 25
2, 217067, Note_on_c, 0, 57, 0
2, 217207, Note_on_c, 0, 45, 0
2, 217249, Note_on_c, 0, 52, 0
2, 217828, Note_on_c, 0, 64, 64
2, 217881, Note_on_c, 0, 64, 0
2, 217993, Note_on_c, 0, 69, 81
2, 218131, Note_on_c, 0, 69, 0
2, 218314, Note_on_c, 0, 71, 101
2, 218342, Note_on_c, 0, 60, 45
2, 218400, Note_on_c, 0, 60, 0
2, 218424, Note_on_c, 0, 71, 0
2, 218495, Note_on_c, 0, 72, 96
2, 218518, Note_on_c, 0, 71, 44
2, 218564, Note_on_c, 0, 71, 0
2, 218740, Note_on_c, 0, 72, 0
2, 218958, Note_on_c, 0, 63, 53
2, 218960, Note_on_c, 0, 62, 51
2, 218962, Note_on_c, 0, 67, 69
2, 218983, Note_on_c, 0, 74, 94
2, 218991, Note_on_c, 0, 57, 55
2, 219426, Control_c, 0, 64, 127
2, 219490, Note_on_c, 0, 62, 0
2, 219497, Note_on_c, 0, 67, 0
2, 219554, Note_on_c, 0, 57, 0
2, 219561, Note_on_c, 0, 63, 0
2, 219856, Note_on_c, 0, 74, 0
2, 219913, Control_c, 0, 64, 0
2, 219924, Note_on_c, 0, 62, 46
2, 219928, Note_on_c, 0, 66, 51
2, 219951, Note_on_c, 0, 72, 57
2, 219956, Note_on_c, 0, 56, 40
2, 220418, Note_on_c, 0, 62, 0
2, 220457, Note_on_c, 0, 66, 0
2, 220466, Control_c, 0, 64, 127
2, 220674, Note_on_c, 0, 56, 0
2, 220690, Note_on_c, 0, 71, 53
2, 220691, Note_on_c, 0, 72, 0
2, 220786, Control_c, 0, 64, 0
2, 220829, Note_on_c, 0, 71, 0
2, 220855, Note_on_c, 0, 55, 35
2, 220893, Note_on_c, 0, 64, 33
2, 220903, Note_on_c, 0, 72, 64
2, 220911, Note_on_c, 0, 60, 34
2, 220932, Note_on_c, 0, 57, 32
2, 221125, Note_on_c, 0, 72, 0
2, 221218, Note_on_c, 0, 71, 50
2, 221280, Note_on_c, 0, 64, 0
2, 221307, Note_on_c, 0, 60, 0
2, 221317, Note_on_c, 0, 57, 0
2, 221336, Note_on_c, 0, 71, 0
2, 221368, Note_on_c, 0, 55, 0
2, 221431, Note_on_c, 0, 69, 45
2, 221588, Note_on_c, 0, 69, 0
2, 222182, Note_on_c, 0, 64, 62
2, 222204, Note_on_c, 0, 60, 47
2, 222230, Note_on_c, 0, 64, 0
2, 222249, Note_on_c, 0, 60, 0
2, 222774, Note_on_c, 0, 63, 42
2, 222785, Note_on_c, 0, 67, 52
2, 222793, Note_on_c, 0, 62, 43
2, 222817, Note_on_c, 0, 57, 40
2, 223270, Note_on_c, 0, 86, 90
2, 223277, Note_on_c, 0, 74, 94
2, 223402, Note_on_c, 0, 62, 0
2, 223421, Note_on_c, 0, 67, 0
2, 223451, Note_on_c, 0, 57, 0
2, 223475, Note_on_c, 0, 86, 0
2, 223484, Note_on_c, 0, 74, 0
2, 223490, Note_on_c, 0, 63, 0
2, 223760, Note_on_c, 0, 66, 74
2, 223769, Note_on_c, 0, 62, 71
2, 223778, Note_on_c, 0, 86, 87
2, 223782, Note_on_c, 0, 74, 92
2, 223785, Note_on_c, 0, 56, 64
2, 223815, Control_c, 0, 64, 127
2, 223973, Note_on_c, 0, 86, 0
2, 223974, Note_on_c, 0, 74, 0
2, 224111, Control_c, 0, 64, 0
2, 224128, Note_on_c, 0, 84, 66
2, 224141, Note_on_c, 0, 72, 66
2, 224239, Note_on_c, 0, 72, 0
2, 224244, Note_on_c, 0, 84, 0
2, 224255, Note_on_c, 0, 62, 0
2, 224321, Note_on_c, 0, 66, 0
2, 224481, Note_on_c, 0, 56, 0
2, 224557, Note_on_c, 0, 64, 62
2, 224567, Note_on_c, 0, 71, 80
2, 224568, Note_on_c, 0, 83, 80
2, 224587, Note_on_c, 0, 55, 37
2, 224590, Note_on_c, 0, 60, 47
2, 224609, Note_on_c, 0, 57, 34
2, 225331, Control_c, 0, 64, 127
2, 225472, Note_on_c, 0, 83, 0
2, 225500, Note_on_c, 0, 71, 0
2, 225503, Note_on_c, 0, 64, 0
2, 225509, Note_on_c, 0, 57, 0
2, 225511, Note_on_c, 0, 60, 0
2, 225533, Note_on_c, 0, 55, 0
2, 225625, Control_c, 0, 64, 0
2, 225660, Note_on_c, 0, 81, 51
2, 225661, Note_on_c, 0, 64, 39
2, 225678, Note_on_c, 0, 69, 42
2, 225682, Note_on_c, 0, 57, 39
2, 225689, Note_on_c, 0, 60, 40
2, 226023, Note_on_c, 0, 60, 0
2, 226032, Note_on_c, 0, 57, 0
2, 226099, Note_on_c, 0, 64, 0
2, 226164, Control_c, 0, 64, 127
2, 226226, Note_on_c, 0, 69, 0
2, 226406, Note_on_c, 0, 81, 0
2, 226575, Control_c, 0, 64, 0
2, 226611, Note_on_c, 0, 63, 37
2, 226625, Note_on_c, 0, 67, 42
2, 226629, Note_on_c, 0, 62, 35
2, 226674, Note_on_c, 0, 57, 32
2, 227077, Note_on_c, 0, 67, 0
2, 227120, Note_on_c, 0, 74, 108
2, 227223, Note_on_c, 0, 62, 0
2, 227236, Note_on_c, 0, 63, 0
2, 227263, Note_on_c, 0, 57, 0
2, 227310, Note_on_c, 0, 74, 0
2, 227384, Note_on_c, 0, 75, 52
2, 227458, Note_on_c, 0, 74, 40
2, 227551, Note_on_c, 0, 75, 0
2, 227609, Note_on_c, 0, 72, 43
2, 227625, Note_on_c, 0, 74, 0
2, 227785, Note_on_c, 0, 72, 0
2, 227874, Note_on_c, 0, 71, 69
2, 227906, Note_on_c, 0, 62, 40
2, 227919, Note_on_c, 0, 65, 57
2, 227951, Note_on_c, 0, 56, 25
2, 228054, Note_on_c, 0, 65, 0
2, 228055, Note_on_c, 0, 71, 0
2, 228069, Note_on_c, 0, 69, 42
2, 228114, Note_on_c, 0, 62, 0
2, 228253, Note_on_c, 0, 69, 0
2, 228359, Note_on_c, 0, 56, 0
2, 228367, Note_on_c, 0, 68, 52
2, 228490, Note_on_c, 0, 68, 0
2, 228532, Note_on_c, 0, 64, 41
2, 228544, Note_on_c, 0, 57, 44
2, 228567, Note_on_c, 0, 71, 74
2, 228569, Note_on_c, 0, 60, 42
2, 228813, Note_on_c, 0, 71, 0
2, 228820, Note_on_c, 0, 64, 0
2, 228880, Note_on_c, 0, 68, 40
2, 228937, Note_on_c, 0, 68, 0
2, 228969, Note_on_c, 0, 60, 0
2, 228982, Note_on_c, 0, 57, 0
2, 229067, Note_on_c, 0, 69, 53
2, 229270, Note_on_c, 0, 69, 0
2, 229339, Note_on_c, 0, 62, 53
2, 229427, Note_on_c, 0, 62, 0
2, 229454, Note_on_c, 0, 54, 36
2, 229471, Note_on_c, 0, 58, 18
2, 230003, Note_on_c, 0, 58, 0
2, 230034, Note_on_c, 0, 54, 0
2, 230437, Note_on_c, 0, 59, 44
2, 230439, Note_on_c, 0, 63, 45
2, 230457, Note_on_c, 0, 57, 46
2, 230483, Note_on_c, 0, 53, 30
2, 230695, Note_on_c, 0, 59, 0
2, 230704, Note_on_c, 0, 57, 0
2, 230706, Note_on_c, 0, 63, 0
2, 230720, Note_on_c, 0, 53, 0
2, 231239, Note_on_c, 0, 63, 62
2, 231254, Note_on_c, 0, 58, 46
2, 231324, Note_on_c, 0, 63, 0
2, 231367, Note_on_c, 0, 58, 0
2, 231691, Note_on_c, 0, 73, 56
2, 231693, Note_on_c, 0, 63, 78
2, 231702, Note_on_c, 0, 68, 74
2, 231705, Note_on_c, 0, 58, 77
2, 231790, Note_on_c, 0, 58, 0
2, 231812, Note_on_c, 0, 63, 0
2, 231841, Note_on_c, 0, 73, 0
2, 231851, Note_on_c, 0, 68, 0
2, 231928, Note_on_c, 0, 72, 71
2, 231933, Note_on_c, 0, 67, 67
2, 231935, Note_on_c, 0, 57, 66
2, 231946, Note_on_c, 0, 62, 60
2, 232429, Control_c, 0, 64, 127
2, 232521, Note_on_c, 0, 67, 0
2, 232543, Note_on_c, 0, 72, 0
2, 232592, Note_on_c, 0, 62, 0
2, 232724, Control_c, 0, 64, 0
2, 232815, Note_on_c, 0, 57, 0
2, 232838, Note_on_c, 0, 56, 46
2, 232855, Note_on_c, 0, 71, 25
2, 232863, Note_on_c, 0, 61, 39
2, 232882, Note_on_c, 0, 66, 35
2, 233044, Note_on_c, 0, 66, 0
2, 233056, Note_on_c, 0, 61, 0
2, 233067, Note_on_c, 0, 71, 0
2, 233165, Note_on_c, 0, 62, 62
2, 233166, Note_on_c, 0, 67, 58
2, 233171, Note_on_c, 0, 72, 44
2, 233176, Note_on_c, 0, 57, 62
2, 233199, Note_on_c, 0, 56, 0
2, 233208, Note_on_c, 0, 62, 0
2, 233221, Note_on_c, 0, 67, 0
2, 233225, Note_on_c, 0, 72, 0
2, 233239, Note_on_c, 0, 57, 0
2, 234021, Control_c, 0, 64, 127
2, 234111, Control_c, 0, 64, 0
2, 234135, Note_on_c, 0, 73, 53
2, 234141, Note_on_c, 0, 68, 74
2, 234146, Note_on_c, 0, 61, 76
2, 234178, Note_on_c, 0, 65, 58
2, 234226, Note_on_c, 0, 65, 0
2, 234254, Note_on_c, 0, 68, 0
2, 234255, Note_on_c, 0, 61, 0
2, 234290, Note_on_c, 0, 73, 0
2, 234468, Note_on_c, 0, 72, 75
2, 234478, Note_on_c, 0, 61, 69
2, 234492, Note_on_c, 0, 65, 74
2, 234497, Note_on_c, 0, 60, 67
2, 234745, Note_on_c, 0, 72, 0
2, 234761, Note_on_c, 0, 65, 0
2, 234777, Note_on_c, 0, 61, 0
2, 234829, Note_on_c, 0, 60, 0
2, 234852, Note_on_c, 0, 58, 51
2, 234854, Note_on_c, 0, 70, 48
2, 234871, Note_on_c, 0, 61, 20
2, 234895, Note_on_c, 0, 65, 30
2, 234978, Note_on_c, 0, 65, 0
2, 235021, Note_on_c, 0, 61, 0
2, 235082, Note_on_c, 0, 70, 0
2, 235105, Note_on_c, 0, 58, 0
2, 235163, Note_on_c, 0, 61, 46
2, 235177, Note_on_c, 0, 65, 55
2, 235206, Note_on_c, 0, 57, 45
2, 235668, Note_on_c, 0, 61, 0
2, 235685, Note_on_c, 0, 57, 0
2, 235703, Note_on_c, 0, 65, 0
2, 235725, Note_on_c, 0, 53, 44
2, 235776, Note_on_c, 0, 53, 0
2, 236046, Note_on_c, 0, 73, 57
2, 236051, Note_on_c, 0, 68, 80
2, 236056, Note_on_c, 0, 63, 78
2, 236064, Note_on_c, 0, 58, 78
2, 236184, Note_on_c, 0, 73, 0
2, 236210, Note_on_c, 0, 58, 0
2, 236211, Note_on_c, 0, 68, 0
2, 236243, Note_on_c, 0, 63, 0
2, 236319, Note_on_c, 0, 57, 51
2, 236321, Note_on_c, 0, 72, 47
2, 236322, Note_on_c, 0, 67, 59
2, 236339, Note_on_c, 0, 62, 53
2, 236457, Note_on_c, 0, 67, 0
2, 236461, Note_on_c, 0, 72, 0
2, 236564, Note_on_c, 0, 62, 0
2, 236678, Note_on_c, 0, 57, 0
2, 236708, Note_on_c, 0, 69, 64
2, 236727, Note_on_c, 0, 53, 42
2, 236736, Note_on_c, 0, 62, 39
2, 236741, Note_on_c, 0, 60, 42
2, 236806, Control_c, 0, 64, 127
2, 236807, Note_on_c, 0, 62, 0
2, 236815, Note_on_c, 0, 60, 0
2, 236819, Note_on_c, 0, 69, 0
2, 236960, Control_c, 0, 64, 0
2, 236984, Note_on_c, 0, 53, 0
2, 237044, Note_on_c, 0, 60, 63
2, 237056, Note_on_c, 0, 62, 55
2, 237057, Note_on_c, 0, 57, 49
2, 237067, Note_on_c, 0, 65, 40
2, 237075, Note_on_c, 0, 50, 44
2, 237101, Note_on_c, 0, 57, 0
2, 237131, Note_on_c, 0, 60, 0
2, 237142, Note_on_c, 0, 50, 0
2, 237156, Note_on_c, 0, 62, 0
2, 237174, Note_on_c, 0, 65, 0
2, 237487, Note_on_c, 0, 58, 35
2, 237500, Note_on_c, 0, 61, 78
2, 237509, Note_on_c, 0, 68, 51
2, 237513, Note_on_c, 0, 65, 64
2, 237522, Note_on_c, 0, 72, 57
2, 237556, Note_on_c, 0, 65, 0
2, 237571, Note_on_c, 0, 72, 0
2, 237574, Note_on_c, 0, 68, 0
2, 237586, Note_on_c, 0, 58, 0
2, 237587, Note_on_c, 0, 61, 0
2, 237707, Note_on_c, 0, 59, 34
2, 237709, Note_on_c, 0, 72, 66
2, 237773, Note_on_c, 0, 65, 38
2, 237797, Note_on_c, 0, 59, 0
2, 237869, Note_on_c, 0, 72, 0
2, 237887, Note_on_c, 0, 65, 0
2, 238064, Note_on_c, 0, 58, 29
2, 238151, Note_on_c, 0, 73, 62
2, 238163, Note_on_c, 0, 61, 75
2, 238164, Note_on_c, 0, 65, 83
2, 238178, Note_on_c, 0, 58, 0
2, 238189, Note_on_c, 0, 60, 71
2, 238196, Note_on_c, 0, 68, 34
2, 238447, Note_on_c, 0, 65, 0
2, 238460, Note_on_c, 0, 61, 0
2, 238470, Note_on_c, 0, 73, 0
2, 238473, Note_on_c, 0, 60, 0
2, 238496, Note_on_c, 0, 68, 0
2, 238592, Note_on_c, 0, 58, 57
2, 238607, Note_on_c, 0, 72, 64
2, 238676, Note_on_c, 0, 65, 29
2, 238754, Note_on_c, 0, 65, 0
2, 238784, Note_on_c, 0, 72, 0
2, 238927, Note_on_c, 0, 58, 0
2, 238931, Note_on_c, 0, 61, 51
2, 238946, Note_on_c, 0, 65, 60
2, 238959, Note_on_c, 0, 69, 62
2, 238963, Note_on_c, 0, 57, 54
2, 239079, Note_on_c, 0, 65, 0
2, 239129, Control_c, 0, 64, 127
2, 239222, Note_on_c, 0, 61, 0
2, 239298, Note_on_c, 0, 57, 0
2, 239300, Note_on_c, 0, 69, 0
2, 239391, Note_on_c, 0, 65, 81
2, 239424, Control_c, 0, 64, 0
2, 239535, Note_on_c, 0, 65, 0
2, 239549, Note_on_c, 0, 56, 60
2, 239559, Note_on_c, 0, 46, 61
2, 239584, Note_on_c, 0, 61, 52
2, 239663, Note_on_c, 0, 61, 0
2, 239821, Note_on_c, 0, 56, 0
2, 239897, Note_on_c, 0, 72, 71
2, 239906, Note_on_c, 0, 67, 71
2, 239913, Note_on_c, 0, 60, 74
2, 239915, Note_on_c, 0, 46, 0
2, 239960, Note_on_c, 0, 55, 50
2, 239993, Note_on_c, 0, 45, 40
2, 240388, Note_on_c, 0, 55, 0
2, 240403, Note_on_c, 0, 72, 0
2, 240418, Note_on_c, 0, 67, 0
2, 240457, Note_on_c, 0, 49, 33
2, 240463, Note_on_c, 0, 45, 0
2, 240517, Note_on_c, 0, 60, 0
2, 240854, Note_on_c, 0, 65, 57
2, 240856, Note_on_c, 0, 60, 69
2, 240857, Note_on_c, 0, 57, 49
2, 240865, Note_on_c, 0, 62, 53
2, 240869, Note_on_c, 0, 49, 0
2, 240883, Note_on_c, 0, 50, 57
2, 240900, Note_on_c, 0, 65, 0
2, 240901, Note_on_c, 0, 57, 0
2, 240905, Note_on_c, 0, 60, 0
2, 240916, Note_on_c, 0, 62, 0
2, 241025, Note_on_c, 0, 50, 0
2, 241311, Note_on_c, 0, 50, 53
2, 241449, Note_on_c, 0, 50, 0
2, 241496, Note_on_c, 0, 54, 40
2, 241514, Note_on_c, 0, 44, 37
2, 241700, Note_on_c, 0, 54, 0
2, 241814, Note_on_c, 0, 62, 54
2, 241815, Note_on_c, 0, 44, 0
2, 241819, Note_on_c, 0, 58, 52
2, 241840, Note_on_c, 0, 55, 52
2, 241879, Note_on_c, 0, 53, 36
2, 241899, Note_on_c, 0, 43, 36
2, 242036, Note_on_c, 0, 55, 0
2, 242135, Note_on_c, 0, 53, 0
2, 242137, Note_on_c, 0, 62, 0
2, 242149, Note_on_c, 0, 58, 0
2, 242311, Note_on_c, 0, 50, 46
2, 242416, Note_on_c, 0, 43, 0
2, 242424, Note_on_c, 0, 58, 60
2, 242433, Note_on_c, 0, 65, 62
2, 242434, Note_on_c, 0, 55, 67
2, 242436, Note_on_c, 0, 62, 46
2, 242450, Note_on_c, 0, 50, 0
2, 242452, Note_on_c, 0, 53, 55
2, 242509, Note_on_c, 0, 55, 0
2, 242541, Note_on_c, 0, 62, 0
2, 242547, Note_on_c, 0, 58, 0
2, 242562, Note_on_c, 0, 65, 0
2, 242695, Note_on_c, 0, 53, 0
2, 242807, Note_on_c, 0, 55, 38
2, 242890, Note_on_c, 0, 55, 0
2, 242925, Note_on_c, 0, 58, 71
2, 242928, Note_on_c, 0, 61, 59
2, 242934, Note_on_c, 0, 69, 66
2, 242937, Note_on_c, 0, 57, 60
2, 242950, Note_on_c, 0, 64, 56
2, 243099, Note_on_c, 0, 58, 0
2, 243115, Note_on_c, 0, 69, 0
2, 243131, Note_on_c, 0, 64, 0
2, 243136, Note_on_c, 0, 61, 0
2, 243287, Note_on_c, 0, 57, 0
2, 243297, Note_on_c, 0, 51, 37
2, 243366, Note_on_c, 0, 51, 0
2, 243415, Note_on_c, 0, 62, 65
2, 243704, Note_on_c, 0, 62, 0
2, 243745, Note_on_c, 0, 65, 82
2, 244089, Note_on_c, 0, 65, 0
2, 244202, Note_on_c, 0, 48, 69
2, 244203, Note_on_c, 0, 47, 74
2, 244206, Note_on_c, 0, 62, 60
2, 244288, Note_on_c, 0, 47, 0
2, 244325, Note_on_c, 0, 62, 0
2, 244758, Note_on_c, 0, 47, 42
2, 244807, Note_on_c, 0, 47, 0
2, 244859, Note_on_c, 0, 58, 57
2, 245074, Note_on_c, 0, 58, 0
2, 245207, Note_on_c, 0, 47, 40
2, 245259, Note_on_c, 0, 47, 0
2, 245350, Note_on_c, 0, 56, 51
2, 245637, Note_on_c, 0, 56, 0
2, 245648, Note_on_c, 0, 47, 38
2, 245706, Note_on_c, 0, 47, 0
2, 245735, Note_on_c, 0, 48, 0
2, 245862, Note_on_c, 0, 57, 53
2, 249181, Note_on_c, 0, 57, 0
2, 249181, End_track
3, 0, Start_track
3, 0, Title_t, ""
3, 487, Program_c, 1, 32
3, 488, Control_c, 1, 7, 107
3, 1921, Note_on_c, 1, 29, 49
3, 2891, Note_on_c, 1, 33, 60
3, 2904, Note_on_c, 1, 29, 0
3, 3844, Note_on_c, 1, 33, 0
3, 3849, Note_on_c, 1, 34, 62
3, 4327, Note_on_c, 1, 34, 0
3, 4333, Note_on_c, 1, 41, 62
3, 4670, Note_on_c, 1, 41, 0
3, 4691, Note_on_c, 1, 34, 46
3, 4779, Note_on_c, 1, 34, 0
3, 4833, Note_on_c, 1, 49, 64
3, 5219, Note_on_c, 1, 49, 0
3, 5286, Note_on_c, 1, 48, 54
3, 5721, Note_on_c, 1, 48, 0
3, 5743, Note_on_c, 1, 45, 77
3, 5827, Note_on_c, 1, 45, 0
3, 6092, Note_on_c, 1, 41, 57
3, 6143, Note_on_c, 1, 41, 0
3, 6239, Note_on_c, 1, 36, 81
3, 6683, Note_on_c, 1, 36, 0
3, 6720, Note_on_c, 1, 33, 74
3, 7180, Note_on_c, 1, 33, 0
3, 7194, Note_on_c, 1, 36, 82
3, 7609, Note_on_c, 1, 36, 0
3, 7704, Note_on_c, 1, 36, 77
3, 8155, Note_on_c, 1, 48, 95
3, 8266, Note_on_c, 1, 36, 0
3, 8495, Note_on_c, 1, 36, 58
3, 8554, Note_on_c, 1, 48, 0
3, 8595, Note_on_c, 1, 36, 0
3, 8628, Note_on_c, 1, 49, 92
3, 9056, Note_on_c, 1, 49, 0
3, 9088, Note_on_c, 1, 48, 75
3, 9112, Note_on_c, 1, 49, 23
3, 9169, Note_on_c, 1, 49, 0
3, 9253, Note_on_c, 1, 48, 0
3, 9438, Note_on_c, 1, 46, 73
3, 9542, Note_on_c, 1, 46, 0
3, 9631, Note_on_c, 1, 45, 59
3, 9725, Note_on_c, 1, 45, 0
3, 9923, Note_on_c, 1, 40, 65
3, 10017, Note_on_c, 1, 40, 0
3, 10073, Note_on_c, 1, 34, 73
3, 10505, Note_on_c, 1, 34, 0
3, 10565, Note_on_c, 1, 33, 58
3, 11000, Note_on_c, 1, 33, 0
3, 11034, Note_on_c, 1, 38, 71
3, 11447, Note_on_c, 1, 38, 0
3, 11505, Note_on_c, 1, 31, 57
3, 11859, Note_on_c, 1, 36, 58
3, 11900, Note_on_c, 1, 36, 0
3, 11906, Note_on_c, 1, 31, 0
3, 11987, Note_on_c, 1, 43, 72
3, 12380, Note_on_c, 1, 43, 0
3, 12382, Note_on_c, 1, 36, 46
3, 12427, Note_on_c, 1, 36, 0
3, 12466, Note_on_c, 1, 50, 82
3, 12882, Note_on_c, 1, 50, 0
3, 12932, Note_on_c, 1, 48, 73
3, 13304, Note_on_c, 1, 41, 47
3, 13356, Note_on_c, 1, 41, 0
3, 13377, Note_on_c, 1, 48, 0
3, 13440, Note_on_c, 1, 45, 66
3, 13859, Note_on_c, 1, 45, 0
3, 13914, Note_on_c, 1, 39, 83
3, 14361, Note_on_c, 1, 39, 0
3, 14398, Note_on_c, 1, 38, 64
3, 14828, Note_on_c, 1, 38, 0
3, 14856, Note_on_c, 1, 32, 83
3, 15296, Note_on_c, 1, 32, 0
3, 15333, Note_on_c, 1, 31, 64
3, 15701, Note_on_c, 1, 34, 52
3, 15789, Note_on_c, 1, 34, 0
3, 15795, Note_on_c, 1, 31, 0
3, 15843, Note_on_c, 1, 50, 101
3, 16258, Note_on_c, 1, 50, 0
3, 16309, Note_on_c, 1, 48, 71
3, 16335, Note_on_c, 1, 50, 24
3, 16383, Note_on_c, 1, 50, 0
3, 16645, Note_on_c, 1, 48, 0
3, 16647, Note_on_c, 1, 40, 84
3, 17227, Note_on_c, 1, 40, 0
3, 17275, Note_on_c, 1, 41, 68
3, 17702, Note_on_c, 1, 41, 0
3, 17757, Note_on_c, 1, 36, 91
3, 18244, Note_on_c, 1, 48, 115
3, 18662, Note_on_c, 1, 48, 0
3, 18727, Note_on_c, 1, 48, 94
3, 18851, Note_on_c, 1, 36, 0
3, 19230, Note_on_c, 1, 36, 94
3, 19547, Note_on_c, 1, 48, 0
3, 19715, Note_on_c, 1, 49, 94
3, 19743, Note_on_c, 1, 51, 48
3, 19781, Note_on_c, 1, 51, 0
3, 20167, Note_on_c, 1, 49, 0
3, 20215, Note_on_c, 1, 48, 83
3, 20266, Note_on_c, 1, 36, 0
3, 20671, Note_on_c, 1, 36, 108
3, 20676, Note_on_c, 1, 48, 0
3, 21109, Note_on_c, 1, 36, 0
3, 21168, Note_on_c, 1, 36, 101
3, 21611, Note_on_c, 1, 48, 94
3, 21649, Note_on_c, 1, 36, 0
3, 22061, Note_on_c, 1, 48, 0
3, 22092, Note_on_c, 1, 41, 74
3, 22518, Note_on_c, 1, 41, 0
3, 22573, Note_on_c, 1, 36, 78
3, 22934, Note_on_c, 1, 33, 38
3, 22966, Note_on_c, 1, 34, 30
3, 23005, Note_on_c, 1, 34, 0
3, 23019, Note_on_c, 1, 33, 0
3, 23070, Note_on_c, 1, 36, 0
3, 23071, Note_on_c, 1, 49, 83
3, 23495, Note_on_c, 1, 49, 0
3, 23543, Note_on_c, 1, 48, 81
3, 24003, Note_on_c, 1, 48, 0
3, 24017, Note_on_c, 1, 41, 65
3, 24404, Note_on_c, 1, 36, 38
3, 24414, Note_on_c, 1, 41, 0
3, 24447, Note_on_c, 1, 36, 0
3, 24504, Note_on_c, 1, 34, 83
3, 24924, Note_on_c, 1, 34, 0
3, 24960, Note_on_c, 1, 33, 58
3, 25320, Note_on_c, 1, 40, 55
3, 25357, Note_on_c, 1, 33, 0
3, 25362, Note_on_c, 1, 40, 0
3, 25454, Note_on_c, 1, 48, 81
3, 25606, Note_on_c, 1, 48, 0
3, 25769, Note_on_c, 1, 36, 64
3, 25816, Note_on_c, 1, 36, 0
3, 25937, Note_on_c, 1, 38, 66
3, 26443, Note_on_c, 1, 50, 110
3, 26445, Note_on_c, 1, 38, 0
3, 26775, Note_on_c, 1, 38, 64
3, 26789, Note_on_c, 1, 50, 0
3, 26815, Note_on_c, 1, 38, 0
3, 26933, Note_on_c, 1, 45, 69
3, 27020, Note_on_c, 1, 45, 0
3, 27176, Note_on_c, 1, 38, 74
3, 27260, Note_on_c, 1, 38, 0
3, 27374, Note_on_c, 1, 31, 71
3, 27748, Note_on_c, 1, 34, 36
3, 27795, Note_on_c, 1, 34, 0
3, 27806, Note_on_c, 1, 31, 0
3, 27827, Note_on_c, 1, 36, 72
3, 28192, Note_on_c, 1, 34, 46
3, 28257, Note_on_c, 1, 36, 0
3, 28302, Note_on_c, 1, 34, 0
3, 28313, Note_on_c, 1, 40, 74
3, 28707, Note_on_c, 1, 40, 0
3, 28711, Note_on_c, 1, 36, 33
3, 28753, Note_on_c, 1, 36, 0
3, 28801, Note_on_c, 1, 41, 62
3, 28902, Note_on_c, 1, 41, 0
3, 28995, Note_on_c, 1, 36, 74
3, 29107, Note_on_c, 1, 36, 0
3, 29146, Note_on_c, 1, 32, 73
3, 29226, Note_on_c, 1, 32, 0
3, 29315, Note_on_c, 1, 33, 80
3, 29734, Note_on_c, 1, 33, 0
3, 29771, Note_on_c, 1, 35, 71
3, 30236, Note_on_c, 1, 35, 0
3, 30249, Note_on_c, 1, 36, 59
3, 30611, Note_on_c, 1, 34, 52
3, 30685, Note_on_c, 1, 36, 0
3, 30749, Note_on_c, 1, 45, 74
3, 30790, Note_on_c, 1, 34, 0
3, 31125, Note_on_c, 1, 36, 41
3, 31126, Note_on_c, 1, 45, 0
3, 31179, Note_on_c, 1, 36, 0
3, 31219, Note_on_c, 1, 50, 79
3, 31620, Note_on_c, 1, 50, 0
3, 31684, Note_on_c, 1, 48, 68
3, 32027, Note_on_c, 1, 40, 48
3, 32066, Note_on_c, 1, 40, 0
3, 32076, Note_on_c, 1, 48, 0
3, 32157, Note_on_c, 1, 45, 66
3, 32516, Note_on_c, 1, 40, 51
3, 32556, Note_on_c, 1, 40, 0
3, 32569, Note_on_c, 1, 45, 0
3, 32659, Note_on_c, 1, 41, 43
3, 32708, Note_on_c, 1, 41, 0
3, 33111, Note_on_c, 1, 45, 83
3, 33529, Note_on_c, 1, 45, 0
3, 33607, Note_on_c, 1, 43, 42
3, 33962, Note_on_c, 1, 40, 42
3, 33988, Note_on_c, 1, 43, 0
3, 34024, Note_on_c, 1, 40, 0
3, 34075, Note_on_c, 1, 43, 66
3, 34480, Note_on_c, 1, 43, 0
3, 34566, Note_on_c, 1, 41, 57
3, 34949, Note_on_c, 1, 38, 32
3, 34953, Note_on_c, 1, 41, 0
3, 34999, Note_on_c, 1, 38, 0
3, 35041, Note_on_c, 1, 41, 62
3, 35397, Note_on_c, 1, 41, 0
3, 35522, Note_on_c, 1, 40, 60
3, 35880, Note_on_c, 1, 40, 0
3, 35885, Note_on_c, 1, 28, 84
3, 36426, Note_on_c, 1, 28, 0
3, 36453, Note_on_c, 1, 33, 76
3, 36787, Note_on_c, 1, 32, 47
3, 36837, Note_on_c, 1, 32, 0
3, 36947, Note_on_c, 1, 40, 67
3, 36949, Note_on_c, 1, 33, 0
3, 37355, Note_on_c, 1, 40, 0
3, 37366, Note_on_c, 1, 33, 24
3, 37411, Note_on_c, 1, 33, 0
3, 37433, Note_on_c, 1, 45, 72
3, 37816, Note_on_c, 1, 45, 0
3, 37897, Note_on_c, 1, 40, 65
3, 38284, Note_on_c, 1, 40, 0
3, 38289, Note_on_c, 1, 36, 40
3, 38354, Note_on_c, 1, 36, 0
3, 38428, Note_on_c, 1, 42, 46
3, 38492, Note_on_c, 1, 42, 0
3, 38728, Note_on_c, 1, 36, 57
3, 38775, Note_on_c, 1, 36, 0
3, 38851, Note_on_c, 1, 41, 79
3, 39270, Note_on_c, 1, 41, 0
3, 39342, Note_on_c, 1, 40, 62
3, 39500, Note_on_c, 1, 40, 0
3, 39666, Note_on_c, 1, 40, 62
3, 39794, Note_on_c, 1, 40, 0
3, 39799, Note_on_c, 1, 52, 77
3, 40161, Note_on_c, 1, 52, 0
3, 40301, Note_on_c, 1, 45, 73
3, 40723, Note_on_c, 1, 45, 0
3, 40802, Note_on_c, 1, 45, 72
3, 41224, Note_on_c, 1, 45, 0
3, 41276, Note_on_c, 1, 40, 60
3, 41602, Note_on_c, 1, 40, 0
3, 41752, Note_on_c, 1, 40, 68
3, 42173, Note_on_c, 1, 40, 0
3, 42236, Note_on_c, 1, 41, 54
3, 42651, Note_on_c, 1, 41, 0
3, 42706, Note_on_c, 1, 39, 64
3, 43131, Note_on_c, 1, 39, 0
3, 43185, Note_on_c, 1, 40, 66
3, 43488, Note_on_c, 1, 40, 0
3, 43546, Note_on_c, 1, 34, 77
3, 44127, Note_on_c, 1, 34, 0
3, 44198, Note_on_c, 1, 33, 55
3, 44550, Note_on_c, 1, 34, 40
3, 44639, Note_on_c, 1, 33, 0
3, 44648, Note_on_c, 1, 48, 77
3, 44699, Note_on_c, 1, 34, 0
3, 45033, Note_on_c, 1, 48, 0
3, 45110, Note_on_c, 1, 44, 53
3, 45581, Note_on_c, 1, 44, 0
3, 45593, Note_on_c, 1, 42, 87
3, 46034, Note_on_c, 1, 42, 0
3, 46090, Note_on_c, 1, 43, 63
3, 46446, Note_on_c, 1, 43, 0
3, 46544, Note_on_c, 1, 35, 66
3, 46967, Note_on_c, 1, 35, 0
3, 47011, Note_on_c, 1, 36, 57
3, 47379, Note_on_c, 1, 34, 48
3, 47436, Note_on_c, 1, 36, 0
3, 47484, Note_on_c, 1, 50, 73
3, 47487, Note_on_c, 1, 34, 0
3, 47901, Note_on_c, 1, 50, 0
3, 47980, Note_on_c, 1, 48, 55
3, 48440, Note_on_c, 1, 48, 0
3, 48456, Note_on_c, 1, 40, 63
3, 48885, Note_on_c, 1, 40, 0
3, 48940, Note_on_c, 1, 41, 62
3, 49366, Note_on_c, 1, 41, 0
3, 49401, Note_on_c, 1, 36, 78
3, 49896, Note_on_c, 1, 48, 84
3, 50316, Note_on_c, 1, 48, 0
3, 50389, Note_on_c, 1, 49, 74
3, 50540, Note_on_c, 1, 36, 0
3, 50798, Note_on_c, 1, 36, 24
3, 50814, Note_on_c, 1, 49, 0
3, 50847, Note_on_c, 1, 36, 0
3, 50868, Note_on_c, 1, 48, 62
3, 51350, Note_on_c, 1, 36, 96
3, 51385, Note_on_c, 1, 48, 0
3, 51794, Note_on_c, 1, 36, 0
3, 51849, Note_on_c, 1, 36, 95
3, 52324, Note_on_c, 1, 48, 87
3, 52350, Note_on_c, 1, 36, 0
3, 52746, Note_on_c, 1, 48, 0
3, 52800, Note_on_c, 1, 45, 70
3, 53121, Note_on_c, 1, 36, 99
3, 53130, Note_on_c, 1, 45, 0
3, 53765, Note_on_c, 1, 48, 92
3, 53804, Note_on_c, 1, 36, 0
3, 54163, Note_on_c, 1, 48, 0
3, 54234, Note_on_c, 1, 49, 71
3, 54538, Note_on_c, 1, 38, 48
3, 54586, Note_on_c, 1, 38, 0
3, 54661, Note_on_c, 1, 49, 0
3, 54709, Note_on_c, 1, 48, 72
3, 55042, Note_on_c, 1, 39, 57
3, 55084, Note_on_c, 1, 48, 0
3, 55104, Note_on_c, 1, 39, 0
3, 55197, Note_on_c, 1, 46, 71
3, 55634, Note_on_c, 1, 46, 0
3, 55686, Note_on_c, 1, 45, 67
3, 55844, Note_on_c, 1, 45, 0
3, 56017, Note_on_c, 1, 40, 44
3, 56060, Note_on_c, 1, 40, 0
3, 56186, Note_on_c, 1, 36, 46
3, 56192, Note_on_c, 1, 38, 63
3, 56288, Note_on_c, 1, 38, 0
3, 56549, Note_on_c, 1, 36, 0
3, 56653, Note_on_c, 1, 38, 64
3, 57054, Note_on_c, 1, 38, 0
3, 57113, Note_on_c, 1, 32, 69
3, 57527, Note_on_c, 1, 32, 0
3, 57608, Note_on_c, 1, 31, 50
3, 58040, Note_on_c, 1, 31, 0
3, 58088, Note_on_c, 1, 38, 58
3, 58396, Note_on_c, 1, 38, 0
3, 58462, Note_on_c, 1, 35, 36
3, 58570, Note_on_c, 1, 35, 0
3, 58572, Note_on_c, 1, 36, 57
3, 58958, Note_on_c, 1, 36, 0
3, 59026, Note_on_c, 1, 50, 80
3, 59455, Note_on_c, 1, 50, 0
3, 59520, Note_on_c, 1, 48, 76
3, 59934, Note_on_c, 1, 48, 0
3, 60020, Note_on_c, 1, 46, 74
3, 60422, Note_on_c, 1, 46, 0
3, 60482, Note_on_c, 1, 45, 66
3, 60867, Note_on_c, 1, 41, 34
3, 60906, Note_on_c, 1, 41, 0
3, 60918, Note_on_c, 1, 45, 0
3, 60955, Note_on_c, 1, 44, 69
3, 61429, Note_on_c, 1, 44, 0
3, 61436, Note_on_c, 1, 43, 61
3, 61915, Note_on_c, 1, 39, 93
3, 61920, Note_on_c, 1, 43, 0
3, 62349, Note_on_c, 1, 39, 0
3, 62391, Note_on_c, 1, 42, 88
3, 62757, Note_on_c, 1, 42, 0
3, 62850, Note_on_c, 1, 40, 80
3, 63270, Note_on_c, 1, 40, 0
3, 63331, Note_on_c, 1, 41, 74
3, 63697, Note_on_c, 1, 41, 0
3, 63702, Note_on_c, 1, 36, 71
3, 63748, Note_on_c, 1, 36, 0
3, 63853, Note_on_c, 1, 33, 78
3, 64256, Note_on_c, 1, 33, 0
3, 64308, Note_on_c, 1, 36, 76
3, 64668, Note_on_c, 1, 41, 61
3, 64692, Note_on_c, 1, 36, 0
3, 64756, Note_on_c, 1, 41, 0
3, 64800, Note_on_c, 1, 48, 80
3, 65094, Note_on_c, 1, 40, 34
3, 65154, Note_on_c, 1, 40, 0
3, 65217, Note_on_c, 1, 48, 0
3, 65277, Note_on_c, 1, 49, 70
3, 65704, Note_on_c, 1, 49, 0
3, 65758, Note_on_c, 1, 46, 62
3, 66208, Note_on_c, 1, 46, 0
3, 66240, Note_on_c, 1, 41, 54
3, 66607, Note_on_c, 1, 41, 0
3, 66726, Note_on_c, 1, 40, 62
3, 67148, Note_on_c, 1, 40, 0
3, 67212, Note_on_c, 1, 41, 62
3, 67512, Note_on_c, 1, 41, 0
3, 67539, Note_on_c, 1, 36, 64
3, 67623, Note_on_c, 1, 36, 0
3, 67684, Note_on_c, 1, 29, 79
3, 68112, Note_on_c, 1, 29, 0
3, 68177, Note_on_c, 1, 33, 67
3, 68595, Note_on_c, 1, 33, 0
3, 68640, Note_on_c, 1, 36, 71
3, 69046, Note_on_c, 1, 36, 0
3, 69116, Note_on_c, 1, 37, 57
3, 69465, Note_on_c, 1, 34, 36
3, 69568, Note_on_c, 1, 37, 0
3, 69588, Note_on_c, 1, 34, 0
3, 69602, Note_on_c, 1, 39, 70
3, 70058, Note_on_c, 1, 39, 0
3, 70081, Note_on_c, 1, 36, 76
3, 70499, Note_on_c, 1, 36, 0
3, 70546, Note_on_c, 1, 34, 59
3, 70988, Note_on_c, 1, 34, 0
3, 71016, Note_on_c, 1, 33, 67
3, 71479, Note_on_c, 1, 33, 0
3, 71517, Note_on_c, 1, 45, 80
3, 71980, Note_on_c, 1, 45, 0
3, 71983, Note_on_c, 1, 38, 63
3, 72311, Note_on_c, 1, 37, 45
3, 72382, Note_on_c, 1, 37, 0
3, 72461, Note_on_c, 1, 50, 76
3, 72486, Note_on_c, 1, 38, 0
3, 72888, Note_on_c, 1, 50, 0
3, 72939, Note_on_c, 1, 43, 56
3, 73416, Note_on_c, 1, 35, 70
3, 73418, Note_on_c, 1, 43, 0
3, 73881, Note_on_c, 1, 35, 0
3, 73904, Note_on_c, 1, 36, 72
3, 74391, Note_on_c, 1, 48, 89
3, 74408, Note_on_c, 1, 36, 0
3, 74772, Note_on_c, 1, 48, 0
3, 74861, Note_on_c, 1, 45, 72
3, 75268, Note_on_c, 1, 45, 0
3, 75341, Note_on_c, 1, 45, 81
3, 75809, Note_on_c, 1, 45, 0
3, 75831, Note_on_c, 1, 38, 66
3, 76178, Note_on_c, 1, 37, 36
3, 76215, Note_on_c, 1, 37, 0
3, 76292, Note_on_c, 1, 38, 0
3, 76304, Note_on_c, 1, 44, 79
3, 76701, Note_on_c, 1, 44, 0
3, 76774, Note_on_c, 1, 43, 64
3, 77162, Note_on_c, 1, 35, 57
3, 77163, Note_on_c, 1, 43, 0
3, 77633, Note_on_c, 1, 36, 94
3, 77686, Note_on_c, 1, 35, 0
3, 78128, Note_on_c, 1, 34, 63
3, 78172, Note_on_c, 1, 36, 0
3, 78235, Note_on_c, 1, 34, 0
3, 78258, Note_on_c, 1, 50, 87
3, 78650, Note_on_c, 1, 50, 0
3, 78716, Note_on_c, 1, 48, 73
3, 79087, Note_on_c, 1, 41, 60
3, 79124, Note_on_c, 1, 48, 0
3, 79125, Note_on_c, 1, 41, 0
3, 79206, Note_on_c, 1, 45, 68
3, 79650, Note_on_c, 1, 45, 0
3, 79666, Note_on_c, 1, 41, 55
3, 80010, Note_on_c, 1, 36, 66
3, 80011, Note_on_c, 1, 41, 0
3, 80051, Note_on_c, 1, 36, 0
3, 80134, Note_on_c, 1, 50, 71
3, 80544, Note_on_c, 1, 50, 0
3, 80597, Note_on_c, 1, 49, 64
3, 81009, Note_on_c, 1, 49, 0
3, 81083, Note_on_c, 1, 46, 64
3, 81563, Note_on_c, 1, 41, 64
3, 81647, Note_on_c, 1, 46, 0
3, 81832, Note_on_c, 1, 41, 0
3, 81926, Note_on_c, 1, 36, 45
3, 82005, Note_on_c, 1, 36, 0
3, 82048, Note_on_c, 1, 50, 87
3, 82455, Note_on_c, 1, 50, 0
3, 82521, Note_on_c, 1, 48, 75
3, 82826, Note_on_c, 1, 48, 0
3, 82867, Note_on_c, 1, 45, 63
3, 82958, Note_on_c, 1, 45, 0
3, 83019, Note_on_c, 1, 41, 61
3, 83345, Note_on_c, 1, 41, 0
3, 83380, Note_on_c, 1, 36, 45
3, 83426, Note_on_c, 1, 36, 0
3, 83471, Note_on_c, 1, 50, 68
3, 83905, Note_on_c, 1, 50, 0
3, 83977, Note_on_c, 1, 49, 75
3, 84349, Note_on_c, 1, 39, 38
3, 84381, Note_on_c, 1, 49, 0
3, 84387, Note_on_c, 1, 39, 0
3, 84469, Note_on_c, 1, 46, 69
3, 84940, Note_on_c, 1, 41, 61
3, 85320, Note_on_c, 1, 46, 0
3, 85353, Note_on_c, 1, 41, 0
3, 85417, Note_on_c, 1, 37, 67
3, 85846, Note_on_c, 1, 37, 0
3, 85934, Note_on_c, 1, 34, 67
3, 86344, Note_on_c, 1, 34, 0
3, 86398, Note_on_c, 1, 33, 50
3, 86639, Note_on_c, 1, 33, 0
3, 86693, Note_on_c, 1, 48, 83
3, 86803, Note_on_c, 1, 48, 0
3, 86922, Note_on_c, 1, 40, 45
3, 87316, Note_on_c, 1, 40, 0
3, 87336, Note_on_c, 1, 37, 65
3, 87774, Note_on_c, 1, 37, 0
3, 87809, Note_on_c, 1, 38, 66
3, 88167, Note_on_c, 1, 38, 0
3, 88290, Note_on_c, 1, 43, 89
3, 88691, Note_on_c, 1, 43, 0
3, 88768, Note_on_c, 1, 31, 63
3, 89215, Note_on_c, 1, 31, 0
3, 89244, Note_on_c, 1, 36, 66
3, 89577, Note_on_c, 1, 32, 52
3, 89640, Note_on_c, 1, 32, 0
3, 89652, Note_on_c, 1, 36, 0
3, 89726, Note_on_c, 1, 40, 41
3, 89732, Note_on_c, 1, 38, 37
3, 89826, Note_on_c, 1, 38, 0
3, 90166, Note_on_c, 1, 40, 0
3, 90239, Note_on_c, 1, 41, 58
3, 90276, Note_on_c, 1, 41, 0
3, 90413, Note_on_c, 1, 36, 68
3, 90500, Note_on_c, 1, 36, 0
3, 90593, Note_on_c, 1, 32, 45
3, 90631, Note_on_c, 1, 32, 0
3, 90666, Note_on_c, 1, 33, 60
3, 91079, Note_on_c, 1, 33, 0
3, 91139, Note_on_c, 1, 34, 64
3, 91600, Note_on_c, 1, 34, 0
3, 91632, Note_on_c, 1, 35, 60
3, 91981, Note_on_c, 1, 34, 25
3, 92084, Note_on_c, 1, 34, 0
3, 92099, Note_on_c, 1, 35, 0
3, 92134, Note_on_c, 1, 36, 46
3, 92488, Note_on_c, 1, 34, 30
3, 92561, Note_on_c, 1, 36, 0
3, 92603, Note_on_c, 1, 40, 50
3, 92682, Note_on_c, 1, 34, 0
3, 92959, Note_on_c, 1, 36, 48
3, 93010, Note_on_c, 1, 36, 0
3, 93015, Note_on_c, 1, 40, 0
3, 93096, Note_on_c, 1, 47, 65
3, 93458, Note_on_c, 1, 47, 0
3, 93581, Note_on_c, 1, 40, 66
3, 93932, Note_on_c, 1, 40, 0
3, 94074, Note_on_c, 1, 45, 71
3, 94542, Note_on_c, 1, 45, 0
3, 94553, Note_on_c, 1, 40, 62
3, 94936, Note_on_c, 1, 40, 0
3, 95076, Note_on_c, 1, 40, 76
3, 95459, Note_on_c, 1, 40, 0
3, 95535, Note_on_c, 1, 36, 76
3, 95952, Note_on_c, 1, 36, 0
3, 96010, Note_on_c, 1, 41, 77
3, 96444, Note_on_c, 1, 41, 0
3, 96482, Note_on_c, 1, 39, 63
3, 96919, Note_on_c, 1, 39, 0
3, 96977, Note_on_c, 1, 40, 62
3, 97363, Note_on_c, 1, 40, 0
3, 97430, Note_on_c, 1, 34, 79
3, 97858, Note_on_c, 1, 34, 0
3, 97902, Note_on_c, 1, 33, 71
3, 98239, Note_on_c, 1, 34, 60
3, 98328, Note_on_c, 1, 34, 0
3, 98334, Note_on_c, 1, 33, 0
3, 98403, Note_on_c, 1, 45, 87
3, 98830, Note_on_c, 1, 45, 0
3, 98871, Note_on_c, 1, 43, 55
3, 99313, Note_on_c, 1, 43, 0
3, 99359, Note_on_c, 1, 42, 64
3, 99717, Note_on_c, 1, 40, 48
3, 99747, Note_on_c, 1, 42, 0
3, 99763, Note_on_c, 1, 40, 0
3, 99836, Note_on_c, 1, 47, 63
3, 100242, Note_on_c, 1, 47, 0
3, 100311, Note_on_c, 1, 41, 66
3, 100777, Note_on_c, 1, 41, 0
3, 100804, Note_on_c, 1, 40, 65
3, 101214, Note_on_c, 1, 40, 0
3, 101275, Note_on_c, 1, 34, 82
3, 101700, Note_on_c, 1, 34, 0
3, 101760, Note_on_c, 1, 33, 72
3, 102176, Note_on_c, 1, 33, 0
3, 102243, Note_on_c, 1, 33, 82
3, 102687, Note_on_c, 1, 33, 0
3, 102728, Note_on_c, 1, 40, 68
3, 103061, Note_on_c, 1, 33, 57
3, 103170, Note_on_c, 1, 40, 0
3, 103204, Note_on_c, 1, 48, 88
3, 103210, Note_on_c, 1, 33, 0
3, 103657, Note_on_c, 1, 48, 0
3, 103688, Note_on_c, 1, 47, 76
3, 104122, Note_on_c, 1, 47, 0
3, 104154, Note_on_c, 1, 39, 83
3, 104588, Note_on_c, 1, 39, 0
3, 104637, Note_on_c, 1, 40, 66
3, 105070, Note_on_c, 1, 40, 0
3, 105098, Note_on_c, 1, 34, 64
3, 105530, Note_on_c, 1, 34, 0
3, 105585, Note_on_c, 1, 33, 64
3, 106013, Note_on_c, 1, 33, 0
3, 106085, Note_on_c, 1, 45, 103
3, 106109, Note_on_c, 1, 39, 51
3, 106147, Note_on_c, 1, 39, 0
3, 106468, Note_on_c, 1, 45, 0
3, 106552, Note_on_c, 1, 44, 87
3, 107018, Note_on_c, 1, 32, 85
3, 107080, Note_on_c, 1, 44, 0
3, 107514, Note_on_c, 1, 31, 74
3, 107556, Note_on_c, 1, 32, 0
3, 107834, Note_on_c, 1, 36, 65
3, 107937, Note_on_c, 1, 36, 0
3, 107947, Note_on_c, 1, 31, 0
3, 107985, Note_on_c, 1, 43, 82
3, 108012, Note_on_c, 1, 44, 44
3, 108063, Note_on_c, 1, 44, 0
3, 108419, Note_on_c, 1, 43, 0
3, 108461, Note_on_c, 1, 41, 64
3, 108627, Note_on_c, 1, 41, 0
3, 108784, Note_on_c, 1, 34, 62
3, 108857, Note_on_c, 1, 34, 0
3, 108953, Note_on_c, 1, 35, 55
3, 109269, Note_on_c, 1, 35, 0
3, 109449, Note_on_c, 1, 41, 92
3, 109885, Note_on_c, 1, 41, 0
3, 109899, Note_on_c, 1, 36, 68
3, 110398, Note_on_c, 1, 50, 75
3, 110401, Note_on_c, 1, 36, 0
3, 110809, Note_on_c, 1, 50, 0
3, 110882, Note_on_c, 1, 48, 58
3, 110943, Note_on_c, 1, 50, 25
3, 110982, Note_on_c, 1, 50, 0
3, 111292, Note_on_c, 1, 48, 0
3, 111348, Note_on_c, 1, 46, 76
3, 111663, Note_on_c, 1, 37, 46
3, 111701, Note_on_c, 1, 37, 0
3, 111828, Note_on_c, 1, 41, 60
3, 112231, Note_on_c, 1, 41, 0
3, 112236, Note_on_c, 1, 46, 0
3, 112342, Note_on_c, 1, 37, 67
3, 112688, Note_on_c, 1, 34, 49
3, 112789, Note_on_c, 1, 37, 0
3, 112805, Note_on_c, 1, 40, 77
3, 112824, Note_on_c, 1, 34, 0
3, 112838, Note_on_c, 1, 42, 33
3, 112877, Note_on_c, 1, 42, 0
3, 113222, Note_on_c, 1, 40, 0
3, 113296, Note_on_c, 1, 41, 66
3, 113745, Note_on_c, 1, 36, 71
3, 113761, Note_on_c, 1, 41, 0
3, 114192, Note_on_c, 1, 36, 0
3, 114230, Note_on_c, 1, 33, 61
3, 114547, Note_on_c, 1, 33, 0
3, 114585, Note_on_c, 1, 36, 50
3, 114637, Note_on_c, 1, 36, 0
3, 114718, Note_on_c, 1, 41, 80
3, 115113, Note_on_c, 1, 41, 0
3, 115212, Note_on_c, 1, 41, 70
3, 115451, Note_on_c, 1, 41, 0
3, 115543, Note_on_c, 1, 41, 60
3, 115658, Note_on_c, 1, 41, 0
3, 115693, Note_on_c, 1, 49, 77
3, 116099, Note_on_c, 1, 49, 0
3, 116159, Note_on_c, 1, 46, 65
3, 116474, Note_on_c, 1, 38, 54
3, 116539, Note_on_c, 1, 38, 0
3, 116644, Note_on_c, 1, 41, 56
3, 116931, Note_on_c, 1, 41, 0
3, 116952, Note_on_c, 1, 34, 71
3, 116961, Note_on_c, 1, 46, 0
3, 117052, Note_on_c, 1, 34, 0
3, 117128, Note_on_c, 1, 33, 68
3, 117570, Note_on_c, 1, 33, 0
3, 117592, Note_on_c, 1, 48, 85
3, 118028, Note_on_c, 1, 48, 0
3, 118089, Note_on_c, 1, 45, 62
3, 118335, Note_on_c, 1, 45, 0
3, 118418, Note_on_c, 1, 37, 67
3, 118530, Note_on_c, 1, 37, 0
3, 118581, Note_on_c, 1, 38, 62
3, 119041, Note_on_c, 1, 38, 0
3, 119077, Note_on_c, 1, 43, 87
3, 119490, Note_on_c, 1, 43, 0
3, 119529, Note_on_c, 1, 35, 80
3, 119994, Note_on_c, 1, 35, 0
3, 120006, Note_on_c, 1, 36, 75
3, 120393, Note_on_c, 1, 35, 45
3, 120432, Note_on_c, 1, 36, 0
3, 120443, Note_on_c, 1, 35, 0
3, 120495, Note_on_c, 1, 43, 88
3, 121331, Note_on_c, 1, 36, 38
3, 121375, Note_on_c, 1, 36, 0
3, 121428, Note_on_c, 1, 43, 0
3, 121463, Note_on_c, 1, 41, 88
3, 121916, Note_on_c, 1, 41, 0
3, 121925, Note_on_c, 1, 36, 94
3, 122300, Note_on_c, 1, 34, 54
3, 122354, Note_on_c, 1, 36, 0
3, 122384, Note_on_c, 1, 34, 0
3, 122399, Note_on_c, 1, 50, 91
3, 122829, Note_on_c, 1, 50, 0
3, 122894, Note_on_c, 1, 48, 76
3, 123315, Note_on_c, 1, 48, 0
3, 123357, Note_on_c, 1, 45, 66
3, 123784, Note_on_c, 1, 45, 0
3, 123829, Note_on_c, 1, 39, 55
3, 124251, Note_on_c, 1, 39, 0
3, 124310, Note_on_c, 1, 40, 56
3, 124773, Note_on_c, 1, 40, 0
3, 124795, Note_on_c, 1, 41, 55
3, 125063, Note_on_c, 1, 41, 0
3, 125147, Note_on_c, 1, 48, 70
3, 125243, Note_on_c, 1, 48, 0
3, 125334, Note_on_c, 1, 45, 24
3, 125714, Note_on_c, 1, 45, 0
3, 125800, Note_on_c, 1, 41, 56
3, 126182, Note_on_c, 1, 41, 0
3, 126264, Note_on_c, 1, 36, 61
3, 126626, Note_on_c, 1, 36, 0
3, 126771, Note_on_c, 1, 37, 55
3, 127206, Note_on_c, 1, 37, 0
3, 127221, Note_on_c, 1, 41, 61
3, 127569, Note_on_c, 1, 37, 38
3, 127584, Note_on_c, 1, 41, 0
3, 127636, Note_on_c, 1, 37, 0
3, 127724, Note_on_c, 1, 49, 48
3, 128031, Note_on_c, 1, 39, 25
3, 128121, Note_on_c, 1, 49, 0
3, 128126, Note_on_c, 1, 39, 0
3, 128194, Note_on_c, 1, 46, 64
3, 128500, Note_on_c, 1, 39, 38
3, 128549, Note_on_c, 1, 39, 0
3, 128597, Note_on_c, 1, 46, 0
3, 128672, Note_on_c, 1, 45, 54
3, 128986, Note_on_c, 1, 39, 37
3, 129017, Note_on_c, 1, 45, 0
3, 129028, Note_on_c, 1, 39, 0
3, 129120, Note_on_c, 1, 48, 72
3, 129601, Note_on_c, 1, 48, 0
3, 129604, Note_on_c, 1, 41, 52
3, 129946, Note_on_c, 1, 36, 43
3, 129978, Note_on_c, 1, 41, 0
3, 130003, Note_on_c, 1, 36, 0
3, 130071, Note_on_c, 1, 45, 64
3, 130494, Note_on_c, 1, 45, 0
3, 130558, Note_on_c, 1, 37, 55
3, 130944, Note_on_c, 1, 37, 0
3, 131024, Note_on_c, 1, 41, 73
3, 131462, Note_on_c, 1, 41, 0
3, 131530, Note_on_c, 1, 34, 57
3, 131910, Note_on_c, 1, 34, 0
3, 131989, Note_on_c, 1, 32, 67
3, 132410, Note_on_c, 1, 32, 0
3, 132486, Note_on_c, 1, 33, 64
3, 132909, Note_on_c, 1, 33, 0
3, 132956, Note_on_c, 1, 45, 76
3, 133403, Note_on_c, 1, 45, 0
3, 133450, Note_on_c, 1, 38, 58
3, 133769, Note_on_c, 1, 37, 43
3, 133871, Note_on_c, 1, 37, 0
3, 133899, Note_on_c, 1, 38, 0
3, 133921, Note_on_c, 1, 53, 73
3, 134253, Note_on_c, 1, 53, 0
3, 134392, Note_on_c, 1, 43, 44
3, 134778, Note_on_c, 1, 43, 0
3, 134842, Note_on_c, 1, 49, 77
3, 135266, Note_on_c, 1, 49, 0
3, 135359, Note_on_c, 1, 48, 58
3, 135507, Note_on_c, 1, 48, 0
3, 135695, Note_on_c, 1, 43, 58
3, 135732, Note_on_c, 1, 43, 0
3, 135814, Note_on_c, 1, 40, 85
3, 136298, Note_on_c, 1, 40, 0
3, 136333, Note_on_c, 1, 41, 71
3, 136694, Note_on_c, 1, 36, 56
3, 136697, Note_on_c, 1, 41, 0
3, 136731, Note_on_c, 1, 36, 0
3, 136816, Note_on_c, 1, 33, 81
3, 137444, Note_on_c, 1, 33, 0
3, 137505, Note_on_c, 1, 41, 67
3, 137551, Note_on_c, 1, 41, 0
3, 137650, Note_on_c, 1, 36, 37
3, 137693, Note_on_c, 1, 36, 0
3, 137787, Note_on_c, 1, 34, 81
3, 138214, Note_on_c, 1, 34, 0
3, 138439, Note_on_c, 1, 38, 65
3, 138499, Note_on_c, 1, 38, 0
3, 138585, Note_on_c, 1, 35, 88
3, 138909, Note_on_c, 1, 35, 0
3, 138984, Note_on_c, 1, 41, 70
3, 139061, Note_on_c, 1, 41, 0
3, 139165, Note_on_c, 1, 35, 66
3, 139220, Note_on_c, 1, 35, 0
3, 139301, Note_on_c, 1, 36, 96
3, 139632, Note_on_c, 1, 34, 51
3, 139672, Note_on_c, 1, 36, 0
3, 139709, Note_on_c, 1, 41, 65
3, 139712, Note_on_c, 1, 34, 0
3, 139781, Note_on_c, 1, 40, 65
3, 140005, Note_on_c, 1, 41, 0
3, 140041, Note_on_c, 1, 36, 66
3, 140082, Note_on_c, 1, 36, 0
3, 140087, Note_on_c, 1, 40, 0
3, 140151, Note_on_c, 1, 41, 83
3, 140515, Note_on_c, 1, 38, 69
3, 140527, Note_on_c, 1, 41, 0
3, 140627, Note_on_c, 1, 38, 0
3, 140656, Note_on_c, 1, 33, 74
3, 141057, Note_on_c, 1, 33, 0
3, 141102, Note_on_c, 1, 36, 69
3, 141562, Note_on_c, 1, 36, 0
3, 141570, Note_on_c, 1, 29, 60
3, 141998, Note_on_c, 1, 29, 0
3, 142080, Note_on_c, 1, 34, 61
3, 142448, Note_on_c, 1, 34, 0
3, 142530, Note_on_c, 1, 36, 66
3, 142934, Note_on_c, 1, 36, 0
3, 143029, Note_on_c, 1, 37, 50
3, 143367, Note_on_c, 1, 34, 33
3, 143371, Note_on_c, 1, 37, 0
3, 143442, Note_on_c, 1, 34, 0
3, 143496, Note_on_c, 1, 40, 60
3, 143902, Note_on_c, 1, 40, 0
3, 143988, Note_on_c, 1, 43, 60
3, 144314, Note_on_c, 1, 36, 38
3, 144365, Note_on_c, 1, 36, 0
3, 144453, Note_on_c, 1, 43, 0
3, 144455, Note_on_c, 1, 40, 54
3, 144879, Note_on_c, 1, 40, 0
3, 144953, Note_on_c, 1, 41, 67
3, 145421, Note_on_c, 1, 41, 0
3, 145429, Note_on_c, 1, 33, 68
3, 145872, Note_on_c, 1, 33, 0
3, 145925, Note_on_c, 1, 34, 60
3, 146360, Note_on_c, 1, 34, 0
3, 146402, Note_on_c, 1, 37, 67
3, 146753, Note_on_c, 1, 34, 39
3, 146774, Note_on_c, 1, 37, 0
3, 146893, Note_on_c, 1, 49, 75
3, 146903, Note_on_c, 1, 34, 0
3, 147330, Note_on_c, 1, 49, 0
3, 147369, Note_on_c, 1, 46, 67
3, 147690, Note_on_c, 1, 40, 49
3, 147763, Note_on_c, 1, 40, 0
3, 147798, Note_on_c, 1, 46, 0
3, 147829, Note_on_c, 1, 45, 61
3, 148116, Note_on_c, 1, 45, 0
3, 148161, Note_on_c, 1, 48, 69
3, 148231, Note_on_c, 1, 48, 0
3, 148301, Note_on_c, 1, 40, 60
3, 148733, Note_on_c, 1, 40, 0
3, 148802, Note_on_c, 1, 37, 62
3, 149208, Note_on_c, 1, 37, 0
3, 149298, Note_on_c, 1, 38, 31
3, 149347, Note_on_c, 1, 38, 0
3, 149357, Note_on_c, 1, 33, 38
3, 149675, Note_on_c, 1, 33, 0
3, 149748, Note_on_c, 1, 45, 73
3, 150102, Note_on_c, 1, 36, 40
3, 150158, Note_on_c, 1, 36, 0
3, 150168, Note_on_c, 1, 45, 0
3, 150226, Note_on_c, 1, 43, 54
3, 150644, Note_on_c, 1, 43, 0
3, 150705, Note_on_c, 1, 36, 56
3, 150989, Note_on_c, 1, 34, 50
3, 150997, Note_on_c, 1, 36, 0
3, 151068, Note_on_c, 1, 34, 0
3, 151095, Note_on_c, 1, 36, 19
3, 151155, Note_on_c, 1, 40, 58
3, 151160, Note_on_c, 1, 36, 0
3, 151793, Note_on_c, 1, 40, 0
3, 151821, Note_on_c, 1, 41, 73
3, 151898, Note_on_c, 1, 41, 0
3, 152001, Note_on_c, 1, 36, 62
3, 152086, Note_on_c, 1, 36, 0
3, 152181, Note_on_c, 1, 33, 68
3, 152617, Note_on_c, 1, 33, 0
3, 152640, Note_on_c, 1, 34, 62
3, 153079, Note_on_c, 1, 34, 0
3, 153102, Note_on_c, 1, 35, 64
3, 153587, Note_on_c, 1, 35, 0
3, 153600, Note_on_c, 1, 36, 59
3, 153955, Note_on_c, 1, 34, 36
3, 154007, Note_on_c, 1, 36, 0
3, 154073, Note_on_c, 1, 45, 70
3, 154088, Note_on_c, 1, 34, 0
3, 154500, Note_on_c, 1, 45, 0
3, 154531, Note_on_c, 1, 47, 74
3, 154917, Note_on_c, 1, 47, 0
3, 155006, Note_on_c, 1, 41, 71
3, 155415, Note_on_c, 1, 41, 0
3, 155504, Note_on_c, 1, 40, 64
3, 155875, Note_on_c, 1, 40, 0
3, 155983, Note_on_c, 1, 45, 77
3, 156447, Note_on_c, 1, 45, 0
3, 156471, Note_on_c, 1, 40, 54
3, 156913, Note_on_c, 1, 40, 0
3, 156956, Note_on_c, 1, 33, 67
3, 157446, Note_on_c, 1, 41, 76
3, 157467, Note_on_c, 1, 33, 0
3, 157821, Note_on_c, 1, 41, 0
3, 157849, Note_on_c, 1, 33, 34
3, 157910, Note_on_c, 1, 33, 0
3, 157926, Note_on_c, 1, 41, 69
3, 158351, Note_on_c, 1, 41, 0
3, 158418, Note_on_c, 1, 40, 57
3, 158860, Note_on_c, 1, 40, 0
3, 158885, Note_on_c, 1, 32, 75
3, 159319, Note_on_c, 1, 32, 0
3, 159369, Note_on_c, 1, 33, 66
3, 159826, Note_on_c, 1, 33, 0
3, 159855, Note_on_c, 1, 45, 87
3, 160246, Note_on_c, 1, 33, 49
3, 160266, Note_on_c, 1, 45, 0
3, 160315, Note_on_c, 1, 33, 0
3, 160345, Note_on_c, 1, 48, 77
3, 160760, Note_on_c, 1, 48, 0
3, 160821, Note_on_c, 1, 46, 75
3, 161281, Note_on_c, 1, 46, 0
3, 161309, Note_on_c, 1, 47, 78
3, 161730, Note_on_c, 1, 47, 0
3, 161785, Note_on_c, 1, 39, 82
3, 162245, Note_on_c, 1, 39, 0
3, 162258, Note_on_c, 1, 40, 81
3, 162662, Note_on_c, 1, 40, 0
3, 162738, Note_on_c, 1, 40, 83
3, 163129, Note_on_c, 1, 40, 0
3, 163223, Note_on_c, 1, 45, 84
3, 163699, Note_on_c, 1, 45, 0
3, 163705, Note_on_c, 1, 36, 74
3, 164133, Note_on_c, 1, 36, 0
3, 164177, Note_on_c, 1, 33, 59
3, 164541, Note_on_c, 1, 33, 0
3, 164549, Note_on_c, 1, 36, 51
3, 164601, Note_on_c, 1, 36, 0
3, 164635, Note_on_c, 1, 48, 78
3, 165061, Note_on_c, 1, 48, 0
3, 165100, Note_on_c, 1, 47, 74
3, 165494, Note_on_c, 1, 47, 0
3, 165581, Note_on_c, 1, 47, 72
3, 166007, Note_on_c, 1, 47, 0
3, 166102, Note_on_c, 1, 46, 65
3, 166440, Note_on_c, 1, 46, 0
3, 166561, Note_on_c, 1, 46, 72
3, 166978, Note_on_c, 1, 46, 0
3, 167061, Note_on_c, 1, 45, 53
3, 167531, Note_on_c, 1, 40, 55
3, 167874, Note_on_c, 1, 45, 0
3, 167908, Note_on_c, 1, 40, 0
3, 167910, Note_on_c, 1, 37, 31
3, 167911, Note_on_c, 1, 39, 33
3, 167947, Note_on_c, 1, 39, 0
3, 167993, Note_on_c, 1, 37, 0
3, 168027, Note_on_c, 1, 44, 55
3, 168475, Note_on_c, 1, 44, 0
3, 168488, Note_on_c, 1, 32, 82
3, 168926, Note_on_c, 1, 32, 0
3, 168968, Note_on_c, 1, 31, 68
3, 169345, Note_on_c, 1, 35, 51
3, 169407, Note_on_c, 1, 35, 0
3, 169412, Note_on_c, 1, 31, 0
3, 169453, Note_on_c, 1, 43, 71
3, 169802, Note_on_c, 1, 35, 47
3, 169803, Note_on_c, 1, 43, 0
3, 169923, Note_on_c, 1, 35, 0
3, 169940, Note_on_c, 1, 36, 71
3, 170279, Note_on_c, 1, 34, 49
3, 170323, Note_on_c, 1, 36, 0
3, 170400, Note_on_c, 1, 34, 0
3, 170414, Note_on_c, 1, 40, 75
3, 170724, Note_on_c, 1, 34, 36
3, 170840, Note_on_c, 1, 34, 0
3, 170854, Note_on_c, 1, 40, 0
3, 170941, Note_on_c, 1, 41, 60
3, 170980, Note_on_c, 1, 41, 0
3, 171113, Note_on_c, 1, 36, 70
3, 171212, Note_on_c, 1, 36, 0
3, 171281, Note_on_c, 1, 32, 57
3, 171357, Note_on_c, 1, 32, 0
3, 171410, Note_on_c, 1, 33, 73
3, 171856, Note_on_c, 1, 41, 83
3, 171891, Note_on_c, 1, 33, 0
3, 172287, Note_on_c, 1, 41, 0
3, 172343, Note_on_c, 1, 40, 50
3, 172631, Note_on_c, 1, 40, 0
3, 172681, Note_on_c, 1, 33, 45
3, 172733, Note_on_c, 1, 33, 0
3, 172830, Note_on_c, 1, 41, 76
3, 173156, Note_on_c, 1, 41, 0
3, 173166, Note_on_c, 1, 37, 81
3, 173570, Note_on_c, 1, 34, 30
3, 173617, Note_on_c, 1, 49, 91
3, 173641, Note_on_c, 1, 34, 0
3, 173668, Note_on_c, 1, 37, 0
3, 174075, Note_on_c, 1, 37, 49
3, 174096, Note_on_c, 1, 39, 39
3, 174149, Note_on_c, 1, 49, 0
3, 174171, Note_on_c, 1, 39, 0
3, 174177, Note_on_c, 1, 37, 0
3, 174256, Note_on_c, 1, 46, 69
3, 174569, Note_on_c, 1, 39, 31
3, 174652, Note_on_c, 1, 46, 0
3, 174687, Note_on_c, 1, 39, 0
3, 174730, Note_on_c, 1, 48, 73
3, 174960, Note_on_c, 1, 48, 0
3, 175035, Note_on_c, 1, 45, 66
3, 175106, Note_on_c, 1, 45, 0
3, 175207, Note_on_c, 1, 41, 71
3, 175626, Note_on_c, 1, 41, 0
3, 175712, Note_on_c, 1, 36, 58
3, 176121, Note_on_c, 1, 36, 0
3, 176162, Note_on_c, 1, 33, 64
3, 176582, Note_on_c, 1, 33, 0
3, 176651, Note_on_c, 1, 34, 62
3, 177084, Note_on_c, 1, 34, 0
3, 177113, Note_on_c, 1, 37, 61
3, 177475, Note_on_c, 1, 34, 40
3, 177516, Note_on_c, 1, 37, 0
3, 177615, Note_on_c, 1, 41, 65
3, 177621, Note_on_c, 1, 34, 0
3, 178028, Note_on_c, 1, 41, 0
3, 178072, Note_on_c, 1, 32, 62
3, 178488, Note_on_c, 1, 32, 0
3, 178563, Note_on_c, 1, 33, 59
3, 178886, Note_on_c, 1, 48, 90
3, 178900, Note_on_c, 1, 33, 0
3, 179072, Note_on_c, 1, 48, 0
3, 179103, Note_on_c, 1, 45, 57
3, 179174, Note_on_c, 1, 45, 0
3, 179364, Note_on_c, 1, 37, 58
3, 179507, Note_on_c, 1, 37, 0
3, 179551, Note_on_c, 1, 38, 61
3, 179931, Note_on_c, 1, 38, 0
3, 180026, Note_on_c, 1, 34, 59
3, 180313, Note_on_c, 1, 34, 0
3, 180347, Note_on_c, 1, 35, 50
3, 180466, Note_on_c, 1, 35, 0
3, 180510, Note_on_c, 1, 36, 50
3, 180848, Note_on_c, 1, 34, 45
3, 180909, Note_on_c, 1, 36, 0
3, 180972, Note_on_c, 1, 50, 74
3, 181023, Note_on_c, 1, 34, 0
3, 181380, Note_on_c, 1, 50, 0
3, 181460, Note_on_c, 1, 48, 61
3, 181879, Note_on_c, 1, 48, 0
3, 181911, Note_on_c, 1, 36, 69
3, 182826, Note_on_c, 1, 36, 0
3, 182901, Note_on_c, 1, 36, 81
3, 183765, Note_on_c, 1, 36, 0
3, 183840, Note_on_c, 1, 36, 87
3, 184721, Note_on_c, 1, 36, 0
3, 184819, Note_on_c, 1, 36, 82
3, 185571, Note_on_c, 1, 27, 57
3, 185607, Note_on_c, 1, 36, 0
3, 185662, Note_on_c, 1, 27, 0
3, 185735, Note_on_c, 1, 28, 51
3, 186198, Note_on_c, 1, 28, 0
3, 186241, Note_on_c, 1, 29, 45
3, 187079, Note_on_c, 1, 27, 38
3, 187195, Note_on_c, 1, 29, 0
3, 187234, Note_on_c, 1, 45, 41
3, 187235, Note_on_c, 1, 27, 0
3, 188017, Note_on_c, 1, 39, 47
3, 188055, Note_on_c, 1, 39, 0
3, 188083, Note_on_c, 1, 45, 0
3, 188189, Note_on_c, 1, 46, 64
3, 189145, Note_on_c, 1, 46, 0
3, 189154, Note_on_c, 1, 39, 59
3, 189897, Note_on_c, 1, 39, 0
3, 189985, Note_on_c, 1, 39, 48
3, 190096, Note_on_c, 1, 39, 0
3, 190098, Note_on_c, 1, 48, 87
3, 191073, Note_on_c, 1, 48, 0
3, 191107, Note_on_c, 1, 36, 48
3, 191443, Note_on_c, 1, 43, 46
3, 191484, Note_on_c, 1, 36, 0
3, 191490, Note_on_c, 1, 43, 0
3, 191559, Note_on_c, 1, 48, 105
3, 192513, Note_on_c, 1, 36, 54
3, 192563, Note_on_c, 1, 48, 0
3, 193324, Note_on_c, 1, 43, 46
3, 193371, Note_on_c, 1, 43, 0
3, 193389, Note_on_c, 1, 36, 0
3, 193458, Note_on_c, 1, 49, 74
3, 193891, Note_on_c, 1, 49, 0
3, 193948, Note_on_c, 1, 48, 68
3, 194052, Note_on_c, 1, 48, 0
3, 194274, Note_on_c, 1, 45, 40
3, 194328, Note_on_c, 1, 45, 0
3, 194453, Note_on_c, 1, 40, 68
3, 194843, Note_on_c, 1, 40, 0
3, 194923, Note_on_c, 1, 36, 55
3, 195316, Note_on_c, 1, 36, 0
3, 195381, Note_on_c, 1, 40, 51
3, 195760, Note_on_c, 1, 40, 0
3, 195846, Note_on_c, 1, 45, 80
3, 196250, Note_on_c, 1, 45, 0
3, 196338, Note_on_c, 1, 43, 53
3, 196744, Note_on_c, 1, 43, 0
3, 196805, Note_on_c, 1, 36, 60
3, 197081, Note_on_c, 1, 36, 0
3, 197130, Note_on_c, 1, 36, 25
3, 197292, Note_on_c, 1, 40, 60
3, 197294, Note_on_c, 1, 36, 0
3, 197724, Note_on_c, 1, 40, 0
3, 197781, Note_on_c, 1, 41, 62
3, 198229, Note_on_c, 1, 41, 0
3, 198255, Note_on_c, 1, 33, 66
3, 198748, Note_on_c, 1, 43, 85
3, 198856, Note_on_c, 1, 33, 0
3, 199170, Note_on_c, 1, 43, 0
3, 199223, Note_on_c, 1, 42, 69
3, 199648, Note_on_c, 1, 42, 0
3, 199713, Note_on_c, 1, 43, 58
3, 200100, Note_on_c, 1, 43, 0
3, 200532, Note_on_c, 1, 35, 64
3, 200672, Note_on_c, 1, 35, 0
3, 200723, Note_on_c, 1, 36, 61
3, 201093, Note_on_c, 1, 34, 33
3, 201120, Note_on_c, 1, 36, 0
3, 201169, Note_on_c, 1, 45, 71
3, 201206, Note_on_c, 1, 34, 0
3, 201508, Note_on_c, 1, 45, 0
3, 201605, Note_on_c, 1, 41, 64
3, 201909, Note_on_c, 1, 41, 0
3, 201939, Note_on_c, 1, 36, 57
3, 201987, Note_on_c, 1, 36, 0
3, 202090, Note_on_c, 1, 48, 85
3, 203028, Note_on_c, 1, 36, 73
3, 203050, Note_on_c, 1, 48, 0
3, 203864, Note_on_c, 1, 43, 29
3, 203918, Note_on_c, 1, 43, 0
3, 204015, Note_on_c, 1, 48, 113
3, 204020, Note_on_c, 1, 36, 0
3, 204811, Note_on_c, 1, 49, 74
3, 204813, Note_on_c, 1, 48, 0
3, 204965, Note_on_c, 1, 49, 0
3, 205020, Note_on_c, 1, 48, 63
3, 205439, Note_on_c, 1, 48, 0
3, 205495, Note_on_c, 1, 41, 64
3, 205785, Note_on_c, 1, 41, 0
3, 205966, Note_on_c, 1, 48, 85
3, 206272, Pitch_bend_c, 1, 8192
3, 206284, Pitch_bend_c, 1, 8192
3, 206300, Pitch_bend_c, 1, 8842
3, 206308, Pitch_bend_c, 1, 8972
3, 206316, Pitch_bend_c, 1, 9102
3, 206324, Pitch_bend_c, 1, 9232
3, 206332, Pitch_bend_c, 1, 9362
3, 206340, Pitch_bend_c, 1, 9492
3, 206348, Pitch_bend_c, 1, 9622
3, 206356, Pitch_bend_c, 1, 9752
3, 206376, Pitch_bend_c, 1, 10012
3, 206403, Pitch_bend_c, 1, 10142
3, 206423, Pitch_bend_c, 1, 10272
3, 206478, Pitch_bend_c, 1, 10012
3, 206494, Pitch_bend_c, 1, 9882
3, 206502, Pitch_bend_c, 1, 9752
3, 206510, Pitch_bend_c, 1, 9622
3, 206517, Pitch_bend_c, 1, 9492
3, 206525, Pitch_bend_c, 1, 9362
3, 206534, Pitch_bend_c, 1, 9232
3, 206542, Pitch_bend_c, 1, 8972
3, 206550, Pitch_bend_c, 1, 8842
3, 206558, Pitch_bend_c, 1, 8192
3, 206562, Pitch_bend_c, 1, 8192
3, 206567, Pitch_bend_c, 1, 8192
3, 206578, Pitch_bend_c, 1, 8192
3, 206802, Pitch_bend_c, 1, 8192
3, 206813, Pitch_bend_c, 1, 8192
3, 206821, Pitch_bend_c, 1, 8712
3, 206830, Pitch_bend_c, 1, 8842
3, 206838, Pitch_bend_c, 1, 9102
3, 206846, Pitch_bend_c, 1, 9362
3, 206853, Pitch_bend_c, 1, 9622
3, 206861, Pitch_bend_c, 1, 9752
3, 206869, Pitch_bend_c, 1, 10012
3, 206878, Pitch_bend_c, 1, 10142
3, 206886, Pitch_bend_c, 1, 10272
3, 206894, Pitch_bend_c, 1, 10532
3, 206902, Pitch_bend_c, 1, 10662
3, 206909, Pitch_bend_c, 1, 10792
3, 206926, Pitch_bend_c, 1, 10922
3, 206992, Pitch_bend_c, 1, 10662
3, 207000, Pitch_bend_c, 1, 10402
3, 207008, Pitch_bend_c, 1, 10142
3, 207017, Pitch_bend_c, 1, 9882
3, 207025, Pitch_bend_c, 1, 9492
3, 207033, Pitch_bend_c, 1, 9102
3, 207040, Pitch_bend_c, 1, 8192
3, 207045, Pitch_bend_c, 1, 8192
3, 207774, Note_on_c, 1, 41, 73
3, 207888, Note_on_c, 1, 48, 0
3, 208190, Note_on_c, 1, 36, 49
3, 208237, Note_on_c, 1, 36, 0
3, 208258, Note_on_c, 1, 41, 0
3, 208331, Note_on_c, 1, 49, 76
3, 208737, Note_on_c, 1, 49, 0
3, 208809, Note_on_c, 1, 46, 64
3, 209268, Note_on_c, 1, 45, 64
3, 209325, Note_on_c, 1, 46, 0
3, 209359, Note_on_c, 1, 45, 0
3, 209595, Note_on_c, 1, 36, 58
3, 209640, Note_on_c, 1, 36, 0
3, 209772, Note_on_c, 1, 33, 55
3, 210515, Note_on_c, 1, 33, 0
3, 210547, Note_on_c, 1, 45, 54
3, 210585, Note_on_c, 1, 45, 0
3, 210720, Note_on_c, 1, 32, 65
3, 211534, Note_on_c, 1, 32, 0
3, 211665, Note_on_c, 1, 31, 57
3, 212087, Note_on_c, 1, 31, 0
3, 212151, Note_on_c, 1, 36, 79
3, 212576, Note_on_c, 1, 34, 30
3, 212610, Note_on_c, 1, 36, 0
3, 212626, Note_on_c, 1, 34, 0
3, 212648, Note_on_c, 1, 40, 66
3, 213006, Note_on_c, 1, 34, 47
3, 213043, Note_on_c, 1, 40, 0
3, 213046, Note_on_c, 1, 34, 0
3, 213172, Note_on_c, 1, 41, 55
3, 213212, Note_on_c, 1, 41, 0
3, 213344, Note_on_c, 1, 36, 74
3, 213433, Note_on_c, 1, 36, 0
3, 213497, Note_on_c, 1, 32, 70
3, 213590, Note_on_c, 1, 32, 0
3, 213650, Note_on_c, 1, 33, 80
3, 214053, Note_on_c, 1, 33, 0
3, 214105, Note_on_c, 1, 34, 57
3, 214528, Note_on_c, 1, 34, 0
3, 214552, Note_on_c, 1, 35, 63
3, 215001, Note_on_c, 1, 35, 0
3, 215048, Note_on_c, 1, 36, 53
3, 215374, Note_on_c, 1, 34, 36
3, 215443, Note_on_c, 1, 36, 0
3, 215500, Note_on_c, 1, 45, 67
3, 215550, Note_on_c, 1, 34, 0
3, 215804, Note_on_c, 1, 36, 37
3, 215862, Note_on_c, 1, 36, 0
3, 215899, Note_on_c, 1, 45, 0
3, 216016, Note_on_c, 1, 40, 20
3, 216353, Note_on_c, 1, 40, 0
3, 216472, Note_on_c, 1, 39, 59
3, 216868, Note_on_c, 1, 39, 0
3, 216975, Note_on_c, 1, 45, 83
3, 217365, Note_on_c, 1, 45, 0
3, 217440, Note_on_c, 1, 40, 48
3, 217876, Note_on_c, 1, 40, 0
3, 217940, Note_on_c, 1, 36, 52
3, 218296, Note_on_c, 1, 40, 38
3, 218309, Note_on_c, 1, 36, 0
3, 218354, Note_on_c, 1, 40, 0
3, 218425, Note_on_c, 1, 45, 74
3, 218860, Note_on_c, 1, 45, 0
3, 218927, Note_on_c, 1, 47, 80
3, 219347, Note_on_c, 1, 47, 0
3, 219392, Note_on_c, 1, 39, 62
3, 219852, Note_on_c, 1, 39, 0
3, 219882, Note_on_c, 1, 40, 55
3, 220226, Note_on_c, 1, 39, 39
3, 220277, Note_on_c, 1, 40, 0
3, 220318, Note_on_c, 1, 39, 0
3, 220336, Note_on_c, 1, 52, 89
3, 220758, Note_on_c, 1, 52, 0
3, 220825, Note_on_c, 1, 45, 59
3, 221300, Note_on_c, 1, 40, 91
3, 221319, Note_on_c, 1, 45, 0
3, 221734, Note_on_c, 1, 40, 0
3, 221796, Note_on_c, 1, 40, 84
3, 222268, Note_on_c, 1, 52, 101
3, 223108, Note_on_c, 1, 39, 56
3, 223128, Note_on_c, 1, 40, 0
3, 223229, Note_on_c, 1, 52, 0
3, 223230, Note_on_c, 1, 39, 0
3, 223258, Note_on_c, 1, 40, 85
3, 223648, Note_on_c, 1, 40, 0
3, 223717, Note_on_c, 1, 40, 90
3, 224209, Note_on_c, 1, 52, 115
3, 224245, Note_on_c, 1, 51, 45
3, 224283, Note_on_c, 1, 51, 0
3, 224965, Note_on_c, 1, 39, 54
3, 224982, Note_on_c, 1, 40, 0
3, 225085, Note_on_c, 1, 39, 0
3, 225139, Note_on_c, 1, 40, 94
3, 225178, Note_on_c, 1, 52, 0
3, 225540, Note_on_c, 1, 40, 0
3, 225622, Note_on_c, 1, 40, 83
3, 226115, Note_on_c, 1, 52, 101
3, 226134, Note_on_c, 1, 40, 0
3, 226926, Note_on_c, 1, 40, 36
3, 226973, Note_on_c, 1, 40, 0
3, 227032, Note_on_c, 1, 52, 0
3, 227062, Note_on_c, 1, 40, 84
3, 227460, Note_on_c, 1, 40, 0
3, 227551, Note_on_c, 1, 40, 80
3, 227892, Note_on_c, 1, 39, 45
3, 227921, Note_on_c, 1, 40, 0
3, 227933, Note_on_c, 1, 39, 0
3, 228020, Note_on_c, 1, 46, 80
3, 228487, Note_on_c, 1, 45, 72
3, 228548, Note_on_c, 1, 46, 0
3, 228827, Note_on_c, 1, 40, 68
3, 228894, Note_on_c, 1, 45, 0
3, 228916, Note_on_c, 1, 40, 0
3, 229007, Note_on_c, 1, 33, 62
3, 229420, Note_on_c, 1, 33, 0
3, 229490, Note_on_c, 1, 32, 63
3, 229948, Note_on_c, 1, 44, 77
3, 229956, Note_on_c, 1, 32, 0
3, 230379, Note_on_c, 1, 44, 0
3, 230429, Note_on_c, 1, 43, 62
3, 230876, Note_on_c, 1, 43, 0
3, 230899, Note_on_c, 1, 35, 94
3, 231342, Note_on_c, 1, 35, 0
3, 231383, Note_on_c, 1, 36, 71
3, 231735, Note_on_c, 1, 35, 53
3, 231741, Note_on_c, 1, 36, 0
3, 231820, Note_on_c, 1, 35, 0
3, 231843, Note_on_c, 1, 40, 96
3, 232310, Note_on_c, 1, 40, 0
3, 232546, Note_on_c, 1, 36, 67
3, 232645, Note_on_c, 1, 36, 0
3, 232692, Note_on_c, 1, 32, 72
3, 232805, Note_on_c, 1, 32, 0
3, 232854, Note_on_c, 1, 33, 79
3, 233281, Note_on_c, 1, 33, 0
3, 233329, Note_on_c, 1, 36, 87
3, 233735, Note_on_c, 1, 36, 0
3, 233782, Note_on_c, 1, 41, 94
3, 234076, Note_on_c, 1, 41, 0
3, 234103, Note_on_c, 1, 33, 51
3, 234147, Note_on_c, 1, 33, 0
3, 234263, Note_on_c, 1, 37, 77
3, 234700, Note_on_c, 1, 37, 0
3, 234736, Note_on_c, 1, 34, 73
3, 235219, Note_on_c, 1, 49, 87
3, 235277, Note_on_c, 1, 34, 0
3, 235652, Note_on_c, 1, 49, 0
3, 235699, Note_on_c, 1, 46, 49
3, 235813, Note_on_c, 1, 46, 0
3, 236023, Note_on_c, 1, 40, 28
3, 236152, Note_on_c, 1, 40, 0
3, 236169, Note_on_c, 1, 41, 62
3, 236513, Note_on_c, 1, 40, 34
3, 236584, Note_on_c, 1, 40, 0
3, 236648, Note_on_c, 1, 48, 103
3, 236782, Note_on_c, 1, 41, 0
3, 237462, Note_on_c, 1, 43, 36
3, 237506, Note_on_c, 1, 43, 0
3, 237616, Note_on_c, 1, 36, 70
3, 237671, Note_on_c, 1, 48, 0
3, 238453, Note_on_c, 1, 43, 44
3, 238502, Note_on_c, 1, 43, 0
3, 238509, Note_on_c, 1, 36, 0
3, 238588, Note_on_c, 1, 49, 77
3, 239354, Note_on_c, 1, 49, 0
3, 239367, Note_on_c, 1, 48, 62
3, 239405, Note_on_c, 1, 48, 0
3, 239556, Note_on_c, 1, 46, 49
3, 239988, Note_on_c, 1, 46, 0
3, 240044, Note_on_c, 1, 45, 63
3, 240791, Note_on_c, 1, 45, 0
3, 240832, Note_on_c, 1, 39, 51
3, 240990, Note_on_c, 1, 39, 0
3, 241024, Note_on_c, 1, 38, 52
3, 241736, Note_on_c, 1, 38, 0
3, 241786, Note_on_c, 1, 45, 47
3, 241894, Note_on_c, 1, 45, 0
3, 241953, Note_on_c, 1, 43, 38
3, 242057, Note_on_c, 1, 43, 0
3, 242251, Note_on_c, 1, 34, 55
3, 242333, Note_on_c, 1, 34, 0
3, 242421, Note_on_c, 1, 35, 64
3, 242835, Note_on_c, 1, 35, 0
3, 242920, Note_on_c, 1, 36, 59
3, 243334, Note_on_c, 1, 36, 0
3, 243391, Note_on_c, 1, 40, 53
3, 243645, Note_on_c, 1, 40, 0
3, 243712, Note_on_c, 1, 41, 75
3, 243847, Note_on_c, 1, 41, 0
3, 244070, Note_on_c, 1, 36, 64
3, 244167, Note_on_c, 1, 36, 0
3, 244233, Note_on_c, 1, 32, 54
3, 244332, Note_on_c, 1, 32, 0
3, 244382, Note_on_c, 1, 33, 68
3, 244796, Note_on_c, 1, 33, 0
3, 244841, Note_on_c, 1, 34, 48
3, 245162, Note_on_c, 1, 34, 0
3, 245299, Note_on_c, 1, 35, 49
3, 245586, Note_on_c, 1, 35, 0
3, 245804, Note_on_c, 1, 36, 41
3, 245861, Note_on_c, 1, 36, 0
3, 246059, Note_on_c, 1, 38, 50
3, 246127, Note_on_c, 1, 38, 0
3, 246229, Note_on_c, 1, 40, 57
3, 246322, Note_on_c, 1, 40, 0
3, 246521, Note_on_c, 1, 41, 62
3, 248573, Note_on_c, 1, 41, 0
3, 248573, End_track
4, 0, Start_track
4, 0, Title_t, ""
4, 527, Program_c, 9, 40
4, 528, Control_c, 9, 7, 90
4, 1920, Note_on_c, 9, 38, 54
4, 1920, Note_on_c, 9, 42, 10
4, 1920, Note_on_c, 9, 40, 54
4, 2028, Note_on_c, 9, 40, 0
4, 2028, Note_on_c, 9, 42, 0
4, 2028, Note_on_c, 9, 38, 0
4, 2368, Note_on_c, 9, 40, 50
4, 2400, Note_on_c, 9, 38, 103
4, 2412, Note_on_c, 9, 44, 126
4, 2588, Note_on_c, 9, 44, 0
4, 2660, Note_on_c, 9, 38, 0
4, 2696, Note_on_c, 9, 38, 49
4, 2796, Note_on_c, 9, 38, 0
4, 2844, Note_on_c, 9, 40, 0
4, 2878, Note_on_c, 9, 40, 41
4, 2880, Note_on_c, 9, 38, 67
4, 3120, Note_on_c, 9, 38, 0
4, 3328, Note_on_c, 9, 40, 37
4, 3354, Note_on_c, 9, 40, 0
4, 3360, Note_on_c, 9, 38, 107
4, 3372, Note_on_c, 9, 44, 105
4, 3560, Note_on_c, 9, 44, 0
4, 3636, Note_on_c, 9, 38, 0
4, 3656, Note_on_c, 9, 38, 49
4, 3708, Note_on_c, 9, 38, 0
4, 3804, Note_on_c, 9, 40, 0
4, 3808, Note_on_c, 9, 40, 46
4, 3840, Note_on_c, 9, 38, 72
4, 4068, Note_on_c, 9, 38, 0
4, 4284, Note_on_c, 9, 40, 0
4, 4288, Note_on_c, 9, 40, 50
4, 4320, Note_on_c, 9, 38, 105
4, 4332, Note_on_c, 9, 44, 107
4, 4504, Note_on_c, 9, 44, 0
4, 4584, Note_on_c, 9, 38, 0
4, 4616, Note_on_c, 9, 38, 45
4, 4680, Note_on_c, 9, 38, 0
4, 4764, Note_on_c, 9, 40, 0
4, 4768, Note_on_c, 9, 40, 41
4, 4800, Note_on_c, 9, 38, 72
4, 5020, Note_on_c, 9, 38, 0
4, 5100, Note_on_c, 9, 39, 110
4, 5208, Note_on_c, 9, 39, 0
4, 5244, Note_on_c, 9, 40, 0
4, 5248, Note_on_c, 9, 40, 37
4, 5280, Note_on_c, 9, 38, 109
4, 5292, Note_on_c, 9, 44, 114
4, 5496, Note_on_c, 9, 38, 0
4, 5500, Note_on_c, 9, 44, 0
4, 5576, Note_on_c, 9, 38, 63
4, 5672, Note_on_c, 9, 38, 0
4, 5724, Note_on_c, 9, 40, 0
4, 5728, Note_on_c, 9, 40, 46
4, 5760, Note_on_c, 9, 38, 71
4, 5916, Note_on_c, 9, 38, 0
4, 6204, Note_on_c, 9, 40, 0
4, 6208, Note_on_c, 9, 40, 50
4, 6240, Note_on_c, 9, 38, 113
4, 6252, Note_on_c, 9, 44, 113
4, 6444, Note_on_c, 9, 44, 0
4, 6648, Note_on_c, 9, 38, 0
4, 6684, Note_on_c, 9, 40, 0
4, 6688, Note_on_c, 9, 40, 41
4, 6720, Note_on_c, 9, 38, 57
4, 6864, Note_on_c, 9, 38, 0
4, 7164, Note_on_c, 9, 40, 0
4, 7168, Note_on_c, 9, 40, 37
4, 7200, Note_on_c, 9, 38, 109
4, 7212, Note_on_c, 9, 44, 110
4, 7388, Note_on_c, 9, 44, 0
4, 7488, Note_on_c, 9, 38, 0
4, 7496, Note_on_c, 9, 38, 56
4, 7556, Note_on_c, 9, 38, 0
4, 7644, Note_on_c, 9, 40, 0
4, 7648, Note_on_c, 9, 40, 46
4, 7680, Note_on_c, 9, 38, 55
4, 8120, Note_on_c, 9, 38, 0
4, 8124, Note_on_c, 9, 40, 0
4, 8128, Note_on_c, 9, 40, 50
4, 8160, Note_on_c, 9, 38, 97
4, 8172, Note_on_c, 9, 44, 115
4, 8348, Note_on_c, 9, 40, 0
4, 8384, Note_on_c, 9, 38, 0
4, 8456, Note_on_c, 9, 39, 113
4, 8576, Note_on_c, 9, 39, 0
4, 8600, Note_on_c, 9, 44, 0
4, 8608, Note_on_c, 9, 40, 41
4, 8640, Note_on_c, 9, 38, 81
4, 9084, Note_on_c, 9, 40, 0
4, 9088, Note_on_c, 9, 40, 37
4, 9120, Note_on_c, 9, 38, 103
4, 9132, Note_on_c, 9, 44, 115
4, 9200, Note_on_c, 9, 38, 0
4, 9308, Note_on_c, 9, 40, 0
4, 9356, Note_on_c, 9, 38, 0
4, 9416, Note_on_c, 9, 38, 55
4, 9536, Note_on_c, 9, 44, 0
4, 9568, Note_on_c, 9, 40, 46
4, 9600, Note_on_c, 9, 38, 0
4, 9600, Note_on_c, 9, 38, 63
4, 10044, Note_on_c, 9, 40, 0
4, 10048, Note_on_c, 9, 40, 50
4, 10080, Note_on_c, 9, 38, 117
4, 10092, Note_on_c, 9, 44, 114
4, 10100, Note_on_c, 9, 38, 0
4, 10268, Note_on_c, 9, 40, 0
4, 10336, Note_on_c, 9, 38, 0
4, 10376, Note_on_c, 9, 38, 50
4, 10464, Note_on_c, 9, 38, 0
4, 10512, Note_on_c, 9, 44, 0
4, 10528, Note_on_c, 9, 40, 41
4, 10560, Note_on_c, 9, 38, 62
4, 11004, Note_on_c, 9, 40, 0
4, 11008, Note_on_c, 9, 40, 37
4, 11040, Note_on_c, 9, 38, 105
4, 11052, Note_on_c, 9, 44, 110
4, 11104, Note_on_c, 9, 38, 0
4, 11228, Note_on_c, 9, 40, 0
4, 11312, Note_on_c, 9, 38, 0
4, 11336, Note_on_c, 9, 38, 36
4, 11460, Note_on_c, 9, 44, 0
4, 11488, Note_on_c, 9, 40, 46
4, 11520, Note_on_c, 9, 38, 0
4, 11520, Note_on_c, 9, 38, 69
4, 11964, Note_on_c, 9, 40, 0
4, 11968, Note_on_c, 9, 40, 50
4, 12000, Note_on_c, 9, 38, 93
4, 12012, Note_on_c, 9, 38, 0
4, 12012, Note_on_c, 9, 44, 110
4, 12188, Note_on_c, 9, 40, 0
4, 12228, Note_on_c, 9, 38, 0
4, 12296, Note_on_c, 9, 38, 63
4, 12376, Note_on_c, 9, 38, 0
4, 12432, Note_on_c, 9, 44, 0
4, 12448, Note_on_c, 9, 40, 41
4, 12480, Note_on_c, 9, 38, 64
4, 12924, Note_on_c, 9, 40, 0
4, 12928, Note_on_c, 9, 40, 37
4, 12960, Note_on_c, 9, 38, 107
4, 12972, Note_on_c, 9, 44, 110
4, 13008, Note_on_c, 9, 38, 0
4, 13148, Note_on_c, 9, 40, 0
4, 13212, Note_on_c, 9, 38, 0
4, 13256, Note_on_c, 9, 38, 54
4, 13336, Note_on_c, 9, 38, 0
4, 13384, Note_on_c, 9, 44, 0
4, 13408, Note_on_c, 9, 40, 46
4, 13440, Note_on_c, 9, 38, 71
4, 13884, Note_on_c, 9, 40, 0
4, 13888, Note_on_c, 9, 40, 50
4, 13920, Note_on_c, 9, 38, 109
4, 13932, Note_on_c, 9, 44, 107
4, 13948, Note_on_c, 9, 38, 0
4, 14108, Note_on_c, 9, 40, 0
4, 14172, Note_on_c, 9, 38, 0
4, 14216, Note_on_c, 9, 38, 52
4, 14320, Note_on_c, 9, 38, 0
4, 14340, Note_on_c, 9, 44, 0
4, 14368, Note_on_c, 9, 40, 41
4, 14400, Note_on_c, 9, 38, 66
4, 14844, Note_on_c, 9, 40, 0
4, 14848, Note_on_c, 9, 40, 37
4, 14852, Note_on_c, 9, 38, 0
4, 14880, Note_on_c, 9, 38, 101
4, 14892, Note_on_c, 9, 44, 110
4, 15068, Note_on_c, 9, 40, 0
4, 15116, Note_on_c, 9, 38, 0
4, 15176, Note_on_c, 9, 39, 82
4, 15264, Note_on_c, 9, 39, 0
4, 15316, Note_on_c, 9, 44, 0
4, 15328, Note_on_c, 9, 40, 46
4, 15360, Note_on_c, 9, 38, 70
4, 15804, Note_on_c, 9, 40, 0
4, 15808, Note_on_c, 9, 40, 50
4, 15840, Note_on_c, 9, 38, 103
4, 15852, Note_on_c, 9, 44, 106
4, 15932, Note_on_c, 9, 38, 0
4, 16280, Note_on_c, 9, 44, 0
4, 16284, Note_on_c, 9, 40, 0
4, 16288, Note_on_c, 9, 40, 41
4, 16320, Note_on_c, 9, 38, 69
4, 16324, Note_on_c, 9, 38, 0
4, 16572, Note_on_c, 9, 38, 0
4, 16620, Note_on_c, 9, 39, 120
4, 16764, Note_on_c, 9, 40, 0
4, 16800, Note_on_c, 9, 38, 63
4, 16812, Note_on_c, 9, 44, 104
4, 16840, Note_on_c, 9, 39, 0
4, 17044, Note_on_c, 9, 38, 0
4, 17100, Note_on_c, 9, 35, 100
4, 17208, Note_on_c, 9, 35, 0
4, 17240, Note_on_c, 9, 44, 0
4, 17248, Note_on_c, 9, 40, 46
4, 17440, Note_on_c, 9, 39, 60
4, 17468, Note_on_c, 9, 40, 0
4, 17596, Note_on_c, 9, 35, 70
4, 17652, Note_on_c, 9, 39, 0
4, 17704, Note_on_c, 9, 35, 0
4, 17728, Note_on_c, 9, 40, 50
4, 17772, Note_on_c, 9, 44, 102
4, 18192, Note_on_c, 9, 44, 0
4, 18204, Note_on_c, 9, 40, 0
4, 18208, Note_on_c, 9, 40, 41
4, 18240, Note_on_c, 9, 38, 66
4, 18656, Note_on_c, 9, 38, 0
4, 18684, Note_on_c, 9, 40, 0
4, 18688, Note_on_c, 9, 40, 37
4, 18720, Note_on_c, 9, 38, 119
4, 18732, Note_on_c, 9, 44, 89
4, 19164, Note_on_c, 9, 40, 0
4, 19168, Note_on_c, 9, 40, 46
4, 19176, Note_on_c, 9, 44, 0
4, 19200, Note_on_c, 9, 38, 0
4, 19200, Note_on_c, 9, 38, 66
4, 19636, Note_on_c, 9, 38, 0
4, 19644, Note_on_c, 9, 40, 0
4, 19648, Note_on_c, 9, 40, 50
4, 19680, Note_on_c, 9, 38, 115
4, 19692, Note_on_c, 9, 44, 100
4, 19868, Note_on_c, 9, 40, 0
4, 19916, Note_on_c, 9, 38, 0
4, 19976, Note_on_c, 9, 38, 59
4, 20052, Note_on_c, 9, 38, 0
4, 20120, Note_on_c, 9, 44, 0
4, 20128, Note_on_c, 9, 40, 41
4, 20160, Note_on_c, 9, 38, 73
4, 20604, Note_on_c, 9, 40, 0
4, 20608, Note_on_c, 9, 40, 37
4, 20640, Note_on_c, 9, 38, 117
4, 20652, Note_on_c, 9, 44, 89
4, 20668, Note_on_c, 9, 38, 0
4, 20824, Note_on_c, 9, 44, 0
4, 20828, Note_on_c, 9, 40, 0
4, 20856, Note_on_c, 9, 38, 0
4, 20880, Note_on_c, 9, 46, 65
4, 20936, Note_on_c, 9, 38, 64
4, 21040, Note_on_c, 9, 38, 0
4, 21088, Note_on_c, 9, 40, 46
4, 21120, Note_on_c, 9, 46, 0
4, 21120, Note_on_c, 9, 38, 50
4, 21564, Note_on_c, 9, 40, 0
4, 21568, Note_on_c, 9, 40, 50
4, 21600, Note_on_c, 9, 38, 111
4, 21612, Note_on_c, 9, 44, 106
4, 21640, Note_on_c, 9, 38, 0
4, 21788, Note_on_c, 9, 40, 0
4, 21880, Note_on_c, 9, 38, 0
4, 21896, Note_on_c, 9, 38, 52
4, 21972, Note_on_c, 9, 38, 0
4, 22044, Note_on_c, 9, 44, 0
4, 22048, Note_on_c, 9, 40, 41
4, 22080, Note_on_c, 9, 38, 55
4, 22524, Note_on_c, 9, 40, 0
4, 22528, Note_on_c, 9, 40, 37
4, 22552, Note_on_c, 9, 38, 0
4, 22560, Note_on_c, 9, 38, 113
4, 22572, Note_on_c, 9, 44, 107
4, 22748, Note_on_c, 9, 40, 0
4, 22840, Note_on_c, 9, 38, 0
4, 22856, Note_on_c, 9, 38, 44
4, 22936, Note_on_c, 9, 38, 0
4, 23008, Note_on_c, 9, 40, 46
4, 23012, Note_on_c, 9, 44, 0
4, 23040, Note_on_c, 9, 38, 66
4, 23456, Note_on_c, 9, 38, 0
4, 23484, Note_on_c, 9, 40, 0
4, 23488, Note_on_c, 9, 40, 50
4, 23520, Note_on_c, 9, 38, 109
4, 23532, Note_on_c, 9, 44, 111
4, 23856, Note_on_c, 9, 35, 74
4, 23924, Note_on_c, 9, 38, 0
4, 23956, Note_on_c, 9, 44, 0
4, 23964, Note_on_c, 9, 40, 0
4, 23964, Note_on_c, 9, 35, 0
4, 23968, Note_on_c, 9, 40, 41
4, 24000, Note_on_c, 9, 38, 62
4, 24012, Note_on_c, 9, 44, 91
4, 24164, Note_on_c, 9, 44, 0
4, 24188, Note_on_c, 9, 40, 0
4, 24216, Note_on_c, 9, 38, 0
4, 24240, Note_on_c, 9, 46, 90
4, 24296, Note_on_c, 9, 39, 117
4, 24436, Note_on_c, 9, 39, 0
4, 24448, Note_on_c, 9, 40, 37
4, 24480, Note_on_c, 9, 38, 57
4, 24600, Note_on_c, 9, 46, 0
4, 24780, Note_on_c, 9, 35, 110
4, 24780, Note_on_c, 9, 39, 110
4, 24808, Note_on_c, 9, 38, 0
4, 24888, Note_on_c, 9, 35, 0
4, 24924, Note_on_c, 9, 40, 0
4, 24928, Note_on_c, 9, 40, 46
4, 24960, Note_on_c, 9, 39, 0
4, 24960, Note_on_c, 9, 38, 80
4, 25404, Note_on_c, 9, 40, 0
4, 25408, Note_on_c, 9, 40, 50
4, 25440, Note_on_c, 9, 38, 113
4, 25452, Note_on_c, 9, 44, 127
4, 25480, Note_on_c, 9, 38, 0
4, 25628, Note_on_c, 9, 40, 0
4, 25720, Note_on_c, 9, 38, 0
4, 25736, Note_on_c, 9, 38, 50
4, 25824, Note_on_c, 9, 38, 0
4, 25848, Note_on_c, 9, 44, 0
4, 25888, Note_on_c, 9, 40, 41
4, 25920, Note_on_c, 9, 38, 52
4, 26364, Note_on_c, 9, 40, 0
4, 26368, Note_on_c, 9, 40, 37
4, 26376, Note_on_c, 9, 38, 0
4, 26400, Note_on_c, 9, 38, 117
4, 26412, Note_on_c, 9, 44, 107
4, 26588, Note_on_c, 9, 40, 0
4, 26680, Note_on_c, 9, 38, 0
4, 26696, Note_on_c, 9, 38, 41
4, 26756, Note_on_c, 9, 38, 0
4, 26844, Note_on_c, 9, 44, 0
4, 26848, Note_on_c, 9, 40, 46
4, 26880, Note_on_c, 9, 38, 67
4, 27312, Note_on_c, 9, 38, 0
4, 27324, Note_on_c, 9, 40, 0
4, 27328, Note_on_c, 9, 40, 50
4, 27360, Note_on_c, 9, 38, 115
4, 27372, Note_on_c, 9, 44, 98
4, 27548, Note_on_c, 9, 40, 0
4, 27604, Note_on_c, 9, 38, 0
4, 27656, Note_on_c, 9, 38, 50
4, 27756, Note_on_c, 9, 38, 0
4, 27804, Note_on_c, 9, 44, 0
4, 27808, Note_on_c, 9, 40, 41
4, 27840, Note_on_c, 9, 38, 71
4, 28240, Note_on_c, 9, 38, 0
4, 28284, Note_on_c, 9, 40, 0
4, 28288, Note_on_c, 9, 40, 37
4, 28320, Note_on_c, 9, 38, 121
4, 28332, Note_on_c, 9, 44, 102
4, 28504, Note_on_c, 9, 38, 65
4, 28508, Note_on_c, 9, 40, 0
4, 28644, Note_on_c, 9, 38, 0
4, 28768, Note_on_c, 9, 40, 46
4, 28784, Note_on_c, 9, 44, 0
4, 28784, Note_on_c, 9, 38, 0
4, 28800, Note_on_c, 9, 38, 82
4, 29216, Note_on_c, 9, 38, 0
4, 29244, Note_on_c, 9, 40, 0
4, 29248, Note_on_c, 9, 40, 50
4, 29280, Note_on_c, 9, 38, 115
4, 29292, Note_on_c, 9, 44, 107
4, 29468, Note_on_c, 9, 40, 0
4, 29500, Note_on_c, 9, 38, 0
4, 29576, Note_on_c, 9, 38, 60
4, 29688, Note_on_c, 9, 38, 0
4, 29728, Note_on_c, 9, 40, 41
4, 29732, Note_on_c, 9, 44, 0
4, 29760, Note_on_c, 9, 38, 63
4, 30204, Note_on_c, 9, 40, 0
4, 30208, Note_on_c, 9, 40, 37
4, 30240, Note_on_c, 9, 38, 115
4, 30252, Note_on_c, 9, 44, 89
4, 30268, Note_on_c, 9, 38, 0
4, 30640, Note_on_c, 9, 38, 0
4, 30676, Note_on_c, 9, 44, 0
4, 30684, Note_on_c, 9, 40, 0
4, 30688, Note_on_c, 9, 40, 46
4, 30800, Note_on_c, 9, 38, 30
4, 30860, Note_on_c, 9, 38, 0
4, 30880, Note_on_c, 9, 38, 66
4, 30908, Note_on_c, 9, 40, 0
4, 30940, Note_on_c, 9, 38, 0
4, 30960, Note_on_c, 9, 38, 82
4, 31020, Note_on_c, 9, 38, 0
4, 31040, Note_on_c, 9, 39, 120
4, 31100, Note_on_c, 9, 39, 0
4, 31120, Note_on_c, 9, 38, 70
4, 31180, Note_on_c, 9, 38, 0
4, 31200, Note_on_c, 9, 38, 72
4, 31260, Note_on_c, 9, 38, 0
4, 31280, Note_on_c, 9, 38, 66
4, 31360, Note_on_c, 9, 38, 51
4, 31520, Note_on_c, 9, 35, 74
4, 31580, Note_on_c, 9, 35, 0
4, 31596, Note_on_c, 9, 38, 0
4, 31600, Note_on_c, 9, 38, 34
4, 31660, Note_on_c, 9, 38, 0
4, 31676, Note_on_c, 9, 38, 0
4, 31680, Note_on_c, 9, 38, 95
4, 31740, Note_on_c, 9, 38, 0
4, 31760, Note_on_c, 9, 38, 32
4, 31820, Note_on_c, 9, 38, 0
4, 31840, Note_on_c, 9, 39, 110
4, 31900, Note_on_c, 9, 39, 0
4, 31920, Note_on_c, 9, 38, 36
4, 31980, Note_on_c, 9, 38, 0
4, 32000, Note_on_c, 9, 38, 74
4, 32060, Note_on_c, 9, 38, 0
4, 32080, Note_on_c, 9, 38, 23
4, 32140, Note_on_c, 9, 38, 0
4, 32160, Note_on_c, 9, 38, 22
4, 32220, Note_on_c, 9, 38, 0
4, 32320, Note_on_c, 9, 38, 62
4, 32460, Note_on_c, 9, 39, 127
4, 32520, Note_on_c, 9, 39, 0
4, 32608, Note_on_c, 9, 40, 46
4, 32636, Note_on_c, 9, 38, 0
4, 33084, Note_on_c, 9, 40, 0
4, 33088, Note_on_c, 9, 40, 50
4, 33120, Note_on_c, 9, 38, 119
4, 33132, Note_on_c, 9, 44, 127
4, 33308, Note_on_c, 9, 40, 0
4, 33360, Note_on_c, 9, 38, 0
4, 33416, Note_on_c, 9, 38, 56
4, 33512, Note_on_c, 9, 38, 0
4, 33532, Note_on_c, 9, 44, 0
4, 33568, Note_on_c, 9, 40, 41
4, 33600, Note_on_c, 9, 38, 99
4, 33768, Note_on_c, 9, 38, 0
4, 33788, Note_on_c, 9, 40, 0
4, 34048, Note_on_c, 9, 40, 37
4, 34080, Note_on_c, 9, 46, 110
4, 34080, Note_on_c, 9, 38, 117
4, 34268, Note_on_c, 9, 40, 0
4, 34316, Note_on_c, 9, 38, 0
4, 34376, Note_on_c, 9, 38, 52
4, 34444, Note_on_c, 9, 46, 0
4, 34500, Note_on_c, 9, 38, 0
4, 34528, Note_on_c, 9, 40, 46
4, 34560, Note_on_c, 9, 38, 78
4, 34984, Note_on_c, 9, 38, 0
4, 35004, Note_on_c, 9, 40, 0
4, 35008, Note_on_c, 9, 40, 50
4, 35040, Note_on_c, 9, 38, 121
4, 35052, Note_on_c, 9, 44, 114
4, 35228, Note_on_c, 9, 40, 0
4, 35264, Note_on_c, 9, 38, 0
4, 35336, Note_on_c, 9, 38, 55
4, 35412, Note_on_c, 9, 38, 0
4, 35464, Note_on_c, 9, 44, 0
4, 35488, Note_on_c, 9, 40, 41
4, 35520, Note_on_c, 9, 38, 65
4, 35708, Note_on_c, 9, 40, 0
4, 35764, Note_on_c, 9, 38, 0
4, 35816, Note_on_c, 9, 39, 97
4, 35816, Note_on_c, 9, 38, 68
4, 35876, Note_on_c, 9, 38, 0
4, 35904, Note_on_c, 9, 39, 0
4, 35968, Note_on_c, 9, 40, 37
4, 36012, Note_on_c, 9, 44, 115
4, 36188, Note_on_c, 9, 40, 0
4, 36296, Note_on_c, 9, 38, 61
4, 36408, Note_on_c, 9, 38, 0
4, 36440, Note_on_c, 9, 44, 0
4, 36448, Note_on_c, 9, 40, 46
4, 36480, Note_on_c, 9, 38, 73
4, 36868, Note_on_c, 9, 38, 0
4, 36924, Note_on_c, 9, 40, 0
4, 36928, Note_on_c, 9, 40, 50
4, 36960, Note_on_c, 9, 38, 119
4, 36972, Note_on_c, 9, 44, 111
4, 37148, Note_on_c, 9, 40, 0
4, 37160, Note_on_c, 9, 38, 0
4, 37256, Note_on_c, 9, 38, 67
4, 37316, Note_on_c, 9, 44, 0
4, 37360, Note_on_c, 9, 38, 0
4, 37408, Note_on_c, 9, 40, 41
4, 37440, Note_on_c, 9, 38, 62
4, 37584, Note_on_c, 9, 38, 0
4, 37628, Note_on_c, 9, 40, 0
4, 37736, Note_on_c, 9, 38, 76
4, 37888, Note_on_c, 9, 40, 37
4, 37900, Note_on_c, 9, 38, 0
4, 37932, Note_on_c, 9, 44, 126
4, 38344, Note_on_c, 9, 44, 0
4, 38364, Note_on_c, 9, 40, 0
4, 38368, Note_on_c, 9, 40, 46
4, 38400, Note_on_c, 9, 38, 80
4, 38816, Note_on_c, 9, 38, 0
4, 38844, Note_on_c, 9, 40, 0
4, 38848, Note_on_c, 9, 40, 50
4, 38880, Note_on_c, 9, 38, 121
4, 38892, Note_on_c, 9, 44, 114
4, 39312, Note_on_c, 9, 44, 0
4, 39324, Note_on_c, 9, 40, 0
4, 39328, Note_on_c, 9, 40, 41
4, 39360, Note_on_c, 9, 38, 43
4, 39396, Note_on_c, 9, 38, 0
4, 39804, Note_on_c, 9, 40, 0
4, 39808, Note_on_c, 9, 40, 37
4, 39840, Note_on_c, 9, 38, 121
4, 39852, Note_on_c, 9, 44, 111
4, 39956, Note_on_c, 9, 38, 0
4, 40248, Note_on_c, 9, 38, 0
4, 40260, Note_on_c, 9, 44, 0
4, 40284, Note_on_c, 9, 40, 0
4, 40288, Note_on_c, 9, 40, 46
4, 40320, Note_on_c, 9, 35, 110
4, 40320, Note_on_c, 9, 38, 41
4, 40764, Note_on_c, 9, 40, 0
4, 40768, Note_on_c, 9, 40, 50
4, 40800, Note_on_c, 9, 38, 111
4, 40812, Note_on_c, 9, 44, 119
4, 40836, Note_on_c, 9, 35, 0
4, 40880, Note_on_c, 9, 38, 0
4, 40988, Note_on_c, 9, 38, 0
4, 40988, Note_on_c, 9, 40, 0
4, 41096, Note_on_c, 9, 38, 95
4, 41176, Note_on_c, 9, 38, 0
4, 41236, Note_on_c, 9, 44, 0
4, 41248, Note_on_c, 9, 40, 41
4, 41280, Note_on_c, 9, 38, 81
4, 41676, Note_on_c, 9, 38, 0
4, 41724, Note_on_c, 9, 40, 0
4, 41728, Note_on_c, 9, 40, 37
4, 41760, Note_on_c, 9, 38, 105
4, 41772, Note_on_c, 9, 44, 123
4, 41924, Note_on_c, 9, 38, 0
4, 41948, Note_on_c, 9, 40, 0
4, 42056, Note_on_c, 9, 38, 69
4, 42132, Note_on_c, 9, 38, 0
4, 42184, Note_on_c, 9, 44, 0
4, 42208, Note_on_c, 9, 40, 46
4, 42240, Note_on_c, 9, 38, 69
4, 42612, Note_on_c, 9, 38, 0
4, 42684, Note_on_c, 9, 40, 0
4, 42688, Note_on_c, 9, 40, 50
4, 42720, Note_on_c, 9, 38, 101
4, 42732, Note_on_c, 9, 44, 111
4, 42908, Note_on_c, 9, 38, 0
4, 42908, Note_on_c, 9, 40, 0
4, 43016, Note_on_c, 9, 38, 105
4, 43120, Note_on_c, 9, 38, 0
4, 43128, Note_on_c, 9, 44, 0
4, 43168, Note_on_c, 9, 40, 41
4, 43200, Note_on_c, 9, 38, 87
4, 43588, Note_on_c, 9, 38, 0
4, 43644, Note_on_c, 9, 40, 0
4, 43648, Note_on_c, 9, 40, 37
4, 43680, Note_on_c, 9, 38, 97
4, 43692, Note_on_c, 9, 44, 114
4, 43860, Note_on_c, 9, 38, 0
4, 43868, Note_on_c, 9, 40, 0
4, 43976, Note_on_c, 9, 38, 105
4, 44080, Note_on_c, 9, 44, 0
4, 44088, Note_on_c, 9, 38, 0
4, 44128, Note_on_c, 9, 40, 46
4, 44160, Note_on_c, 9, 38, 61
4, 44604, Note_on_c, 9, 40, 0
4, 44608, Note_on_c, 9, 40, 50
4, 44616, Note_on_c, 9, 38, 0
4, 44640, Note_on_c, 9, 38, 121
4, 44652, Note_on_c, 9, 44, 120
4, 45056, Note_on_c, 9, 44, 0
4, 45084, Note_on_c, 9, 40, 0
4, 45088, Note_on_c, 9, 40, 41
4, 45120, Note_on_c, 9, 38, 71
4, 45176, Note_on_c, 9, 38, 0
4, 45308, Note_on_c, 9, 40, 0
4, 45320, Note_on_c, 9, 38, 0
4, 45416, Note_on_c, 9, 38, 105
4, 45520, Note_on_c, 9, 38, 0
4, 45568, Note_on_c, 9, 40, 37
4, 45612, Note_on_c, 9, 44, 127
4, 46000, Note_on_c, 9, 44, 0
4, 46044, Note_on_c, 9, 40, 0
4, 46048, Note_on_c, 9, 40, 46
4, 46080, Note_on_c, 9, 38, 73
4, 46268, Note_on_c, 9, 40, 0
4, 46276, Note_on_c, 9, 38, 0
4, 46376, Note_on_c, 9, 39, 117
4, 46480, Note_on_c, 9, 39, 0
4, 46528, Note_on_c, 9, 40, 50
4, 46560, Note_on_c, 9, 38, 50
4, 46572, Note_on_c, 9, 44, 96
4, 47004, Note_on_c, 9, 40, 0
4, 47008, Note_on_c, 9, 40, 41
4, 47040, Note_on_c, 9, 38, 85
4, 47076, Note_on_c, 9, 38, 0
4, 47156, Note_on_c, 9, 44, 0
4, 47196, Note_on_c, 9, 38, 0
4, 47228, Note_on_c, 9, 40, 0
4, 47336, Note_on_c, 9, 39, 115
4, 47440, Note_on_c, 9, 39, 0
4, 47488, Note_on_c, 9, 40, 37
4, 47520, Note_on_c, 9, 46, 85
4, 47708, Note_on_c, 9, 40, 0
4, 47816, Note_on_c, 9, 38, 92
4, 47884, Note_on_c, 9, 46, 0
4, 47896, Note_on_c, 9, 38, 0
4, 47968, Note_on_c, 9, 40, 46
4, 48000, Note_on_c, 9, 35, 110
4, 48000, Note_on_c, 9, 53, 80
4, 48012, Note_on_c, 9, 44, 76
4, 48356, Note_on_c, 9, 53, 0
4, 48444, Note_on_c, 9, 40, 0
4, 48448, Note_on_c, 9, 40, 50
4, 48480, Note_on_c, 9, 38, 107
4, 48492, Note_on_c, 9, 44, 127
4, 48516, Note_on_c, 9, 35, 0
4, 48576, Note_on_c, 9, 44, 0
4, 48876, Note_on_c, 9, 44, 0
4, 48924, Note_on_c, 9, 40, 0
4, 48928, Note_on_c, 9, 40, 41
4, 48960, Note_on_c, 9, 38, 67
4, 49040, Note_on_c, 9, 38, 0
4, 49400, Note_on_c, 9, 38, 0
4, 49404, Note_on_c, 9, 40, 0
4, 49408, Note_on_c, 9, 40, 37
4, 49440, Note_on_c, 9, 38, 113
4, 49452, Note_on_c, 9, 44, 127
4, 49628, Note_on_c, 9, 40, 0
4, 49668, Note_on_c, 9, 38, 0
4, 49736, Note_on_c, 9, 38, 86
4, 49836, Note_on_c, 9, 38, 0
4, 49872, Note_on_c, 9, 44, 0
4, 49888, Note_on_c, 9, 40, 46
4, 49920, Note_on_c, 9, 38, 83
4, 50364, Note_on_c, 9, 40, 0
4, 50368, Note_on_c, 9, 40, 50
4, 50400, Note_on_c, 9, 38, 113
4, 50412, Note_on_c, 9, 44, 102
4, 50420, Note_on_c, 9, 38, 0
4, 50840, Note_on_c, 9, 44, 0
4, 50844, Note_on_c, 9, 40, 0
4, 50848, Note_on_c, 9, 40, 41
4, 50880, Note_on_c, 9, 38, 63
4, 51004, Note_on_c, 9, 38, 0
4, 51180, Note_on_c, 9, 39, 110
4, 51288, Note_on_c, 9, 39, 0
4, 51288, Note_on_c, 9, 38, 0
4, 51324, Note_on_c, 9, 40, 0
4, 51328, Note_on_c, 9, 40, 37
4, 51360, Note_on_c, 9, 38, 113
4, 51372, Note_on_c, 9, 44, 126
4, 51548, Note_on_c, 9, 40, 0
4, 51580, Note_on_c, 9, 38, 0
4, 51656, Note_on_c, 9, 38, 77
4, 51744, Note_on_c, 9, 38, 0
4, 51784, Note_on_c, 9, 44, 0
4, 51808, Note_on_c, 9, 40, 46
4, 51840, Note_on_c, 9, 38, 69
4, 52204, Note_on_c, 9, 38, 0
4, 52284, Note_on_c, 9, 40, 0
4, 52288, Note_on_c, 9, 40, 50
4, 52320, Note_on_c, 9, 38, 111
4, 52332, Note_on_c, 9, 44, 113
4, 52736, Note_on_c, 9, 38, 0
4, 52752, Note_on_c, 9, 44, 0
4, 52764, Note_on_c, 9, 40, 0
4, 52768, Note_on_c, 9, 40, 41
4, 52800, Note_on_c, 9, 38, 71
4, 53208, Note_on_c, 9, 38, 0
4, 53244, Note_on_c, 9, 40, 0
4, 53248, Note_on_c, 9, 40, 37
4, 53280, Note_on_c, 9, 38, 95
4, 53292, Note_on_c, 9, 44, 113
4, 53468, Note_on_c, 9, 40, 0
4, 53516, Note_on_c, 9, 38, 0
4, 53576, Note_on_c, 9, 38, 107
4, 53664, Note_on_c, 9, 38, 0
4, 53712, Note_on_c, 9, 44, 0
4, 53728, Note_on_c, 9, 40, 46
4, 53760, Note_on_c, 9, 38, 93
4, 54172, Note_on_c, 9, 38, 0
4, 54204, Note_on_c, 9, 40, 0
4, 54208, Note_on_c, 9, 40, 50
4, 54240, Note_on_c, 9, 38, 99
4, 54252, Note_on_c, 9, 44, 118
4, 54416, Note_on_c, 9, 38, 0
4, 54428, Note_on_c, 9, 40, 0
4, 54536, Note_on_c, 9, 38, 89
4, 54612, Note_on_c, 9, 38, 0
4, 54660, Note_on_c, 9, 44, 0
4, 54688, Note_on_c, 9, 40, 41
4, 54720, Note_on_c, 9, 38, 73
4, 55164, Note_on_c, 9, 40, 0
4, 55168, Note_on_c, 9, 40, 37
4, 55200, Note_on_c, 9, 38, 97
4, 55204, Note_on_c, 9, 38, 0
4, 55212, Note_on_c, 9, 44, 119
4, 55364, Note_on_c, 9, 44, 0
4, 55388, Note_on_c, 9, 40, 0
4, 55404, Note_on_c, 9, 38, 0
4, 55496, Note_on_c, 9, 39, 120
4, 55592, Note_on_c, 9, 39, 0
4, 55648, Note_on_c, 9, 40, 46
4, 55680, Note_on_c, 9, 38, 45
4, 56044, Note_on_c, 9, 38, 0
4, 56124, Note_on_c, 9, 40, 0
4, 56128, Note_on_c, 9, 40, 50
4, 56160, Note_on_c, 9, 38, 107
4, 56172, Note_on_c, 9, 44, 123
4, 56540, Note_on_c, 9, 44, 0
4, 56584, Note_on_c, 9, 38, 0
4, 56604, Note_on_c, 9, 40, 0
4, 56608, Note_on_c, 9, 40, 41
4, 56640, Note_on_c, 9, 38, 64
4, 57084, Note_on_c, 9, 40, 0
4, 57088, Note_on_c, 9, 40, 37
4, 57120, Note_on_c, 9, 38, 111
4, 57132, Note_on_c, 9, 38, 0
4, 57132, Note_on_c, 9, 44, 118
4, 57308, Note_on_c, 9, 40, 0
4, 57340, Note_on_c, 9, 38, 0
4, 57416, Note_on_c, 9, 38, 68
4, 57516, Note_on_c, 9, 38, 0
4, 57520, Note_on_c, 9, 44, 0
4, 57568, Note_on_c, 9, 40, 46
4, 57600, Note_on_c, 9, 38, 71
4, 58036, Note_on_c, 9, 38, 0
4, 58044, Note_on_c, 9, 40, 0
4, 58048, Note_on_c, 9, 40, 50
4, 58080, Note_on_c, 9, 38, 117
4, 58092, Note_on_c, 9, 44, 115
4, 58504, Note_on_c, 9, 44, 0
4, 58524, Note_on_c, 9, 40, 0
4, 58528, Note_on_c, 9, 40, 41
4, 58560, Note_on_c, 9, 38, 63
4, 58576, Note_on_c, 9, 38, 0
4, 59004, Note_on_c, 9, 40, 0
4, 59008, Note_on_c, 9, 40, 37
4, 59040, Note_on_c, 9, 38, 107
4, 59044, Note_on_c, 9, 38, 0
4, 59052, Note_on_c, 9, 44, 127
4, 59228, Note_on_c, 9, 40, 0
4, 59260, Note_on_c, 9, 38, 0
4, 59336, Note_on_c, 9, 38, 87
4, 59424, Note_on_c, 9, 38, 0
4, 59456, Note_on_c, 9, 44, 0
4, 59488, Note_on_c, 9, 40, 46
4, 59520, Note_on_c, 9, 38, 75
4, 59820, Note_on_c, 9, 39, 110
4, 59900, Note_on_c, 9, 38, 0
4, 59928, Note_on_c, 9, 39, 0
4, 59964, Note_on_c, 9, 40, 0
4, 59968, Note_on_c, 9, 40, 50
4, 60000, Note_on_c, 9, 38, 111
4, 60012, Note_on_c, 9, 44, 123
4, 60408, Note_on_c, 9, 44, 0
4, 60412, Note_on_c, 9, 38, 0
4, 60444, Note_on_c, 9, 40, 0
4, 60448, Note_on_c, 9, 40, 41
4, 60480, Note_on_c, 9, 35, 110
4, 60844, Note_on_c, 9, 35, 0
4, 60924, Note_on_c, 9, 40, 0
4, 60928, Note_on_c, 9, 40, 37
4, 60960, Note_on_c, 9, 38, 119
4, 60972, Note_on_c, 9, 44, 115
4, 61148, Note_on_c, 9, 40, 0
4, 61184, Note_on_c, 9, 38, 0
4, 61256, Note_on_c, 9, 38, 68
4, 61260, Note_on_c, 9, 35, 90
4, 61308, Note_on_c, 9, 38, 0
4, 61360, Note_on_c, 9, 44, 0
4, 61368, Note_on_c, 9, 35, 0
4, 61408, Note_on_c, 9, 40, 46
4, 61884, Note_on_c, 9, 40, 0
4, 61888, Note_on_c, 9, 40, 50
4, 61932, Note_on_c, 9, 44, 127
4, 62220, Note_on_c, 9, 39, 110
4, 62328, Note_on_c, 9, 39, 0
4, 62332, Note_on_c, 9, 44, 0
4, 62364, Note_on_c, 9, 40, 0
4, 62368, Note_on_c, 9, 40, 41
4, 62700, Note_on_c, 9, 39, 110
4, 62808, Note_on_c, 9, 39, 0
4, 62844, Note_on_c, 9, 40, 0
4, 62848, Note_on_c, 9, 40, 37
4, 62892, Note_on_c, 9, 44, 123
4, 63020, Note_on_c, 9, 44, 0
4, 63324, Note_on_c, 9, 40, 0
4, 63360, Note_on_c, 9, 40, 54
4, 63370, Note_on_c, 9, 38, 54
4, 63370, Note_on_c, 9, 42, 10
4, 63468, Note_on_c, 9, 40, 0
4, 63478, Note_on_c, 9, 42, 0
4, 63478, Note_on_c, 9, 38, 0
4, 63818, Note_on_c, 9, 40, 50
4, 63850, Note_on_c, 9, 38, 103
4, 63862, Note_on_c, 9, 44, 126
4, 64038, Note_on_c, 9, 44, 0
4, 64110, Note_on_c, 9, 38, 0
4, 64146, Note_on_c, 9, 38, 49
4, 64246, Note_on_c, 9, 38, 0
4, 64294, Note_on_c, 9, 40, 0
4, 64328, Note_on_c, 9, 40, 41
4, 64330, Note_on_c, 9, 38, 67
4, 64570, Note_on_c, 9, 38, 0
4, 64778, Note_on_c, 9, 40, 37
4, 64804, Note_on_c, 9, 40, 0
4, 64810, Note_on_c, 9, 38, 107
4, 64822, Note_on_c, 9, 44, 105
4, 65010, Note_on_c, 9, 44, 0
4, 65086, Note_on_c, 9, 38, 0
4, 65106, Note_on_c, 9, 38, 49
4, 65158, Note_on_c, 9, 38, 0
4, 65254, Note_on_c, 9, 40, 0
4, 65258, Note_on_c, 9, 40, 46
4, 65290, Note_on_c, 9, 38, 72
4, 65518, Note_on_c, 9, 38, 0
4, 65734, Note_on_c, 9, 40, 0
4, 65738, Note_on_c, 9, 40, 50
4, 65770, Note_on_c, 9, 38, 105
4, 65782, Note_on_c, 9, 44, 107
4, 65954, Note_on_c, 9, 44, 0
4, 66034, Note_on_c, 9, 38, 0
4, 66066, Note_on_c, 9, 38, 45
4, 66130, Note_on_c, 9, 38, 0
4, 66214, Note_on_c, 9, 40, 0
4, 66218, Note_on_c, 9, 40, 41
4, 66250, Note_on_c, 9, 38, 72
4, 66470, Note_on_c, 9, 38, 0
4, 66550, Note_on_c, 9, 39, 110
4, 66658, Note_on_c, 9, 39, 0
4, 66694, Note_on_c, 9, 40, 0
4, 66698, Note_on_c, 9, 40, 37
4, 66730, Note_on_c, 9, 38, 109
4, 66742, Note_on_c, 9, 44, 114
4, 66946, Note_on_c, 9, 38, 0
4, 66950, Note_on_c, 9, 44, 0
4, 67026, Note_on_c, 9, 38, 63
4, 67122, Note_on_c, 9, 38, 0
4, 67174, Note_on_c, 9, 40, 0
4, 67178, Note_on_c, 9, 40, 46
4, 67210, Note_on_c, 9, 38, 71
4, 67366, Note_on_c, 9, 38, 0
4, 67654, Note_on_c, 9, 40, 0
4, 67658, Note_on_c, 9, 40, 50
4, 67690, Note_on_c, 9, 38, 113
4, 67702, Note_on_c, 9, 44, 113
4, 67894, Note_on_c, 9, 44, 0
4, 68098, Note_on_c, 9, 38, 0
4, 68134, Note_on_c, 9, 40, 0
4, 68138, Note_on_c, 9, 40, 41
4, 68170, Note_on_c, 9, 38, 57
4, 68314, Note_on_c, 9, 38, 0
4, 68614, Note_on_c, 9, 40, 0
4, 68618, Note_on_c, 9, 40, 37
4, 68650, Note_on_c, 9, 38, 109
4, 68662, Note_on_c, 9, 44, 110
4, 68838, Note_on_c, 9, 44, 0
4, 68938, Note_on_c, 9, 38, 0
4, 68946, Note_on_c, 9, 38, 56
4, 69006, Note_on_c, 9, 38, 0
4, 69094, Note_on_c, 9, 40, 0
4, 69098, Note_on_c, 9, 40, 46
4, 69130, Note_on_c, 9, 38, 55
4, 69570, Note_on_c, 9, 38, 0
4, 69574, Note_on_c, 9, 40, 0
4, 69578, Note_on_c, 9, 40, 50
4, 69610, Note_on_c, 9, 38, 97
4, 69622, Note_on_c, 9, 44, 115
4, 69798, Note_on_c, 9, 40, 0
4, 69834, Note_on_c, 9, 38, 0
4, 69906, Note_on_c, 9, 39, 113
4, 70026, Note_on_c, 9, 39, 0
4, 70050, Note_on_c, 9, 44, 0
4, 70058, Note_on_c, 9, 40, 41
4, 70090, Note_on_c, 9, 38, 81
4, 70534, Note_on_c, 9, 40, 0
4, 70538, Note_on_c, 9, 40, 37
4, 70570, Note_on_c, 9, 38, 103
4, 70582, Note_on_c, 9, 44, 115
4, 70650, Note_on_c, 9, 38, 0
4, 70758, Note_on_c, 9, 40, 0
4, 70806, Note_on_c, 9, 38, 0
4, 70866, Note_on_c, 9, 38, 55
4, 70986, Note_on_c, 9, 44, 0
4, 71018, Note_on_c, 9, 40, 46
4, 71050, Note_on_c, 9, 38, 0
4, 71050, Note_on_c, 9, 38, 63
4, 71494, Note_on_c, 9, 40, 0
4, 71498, Note_on_c, 9, 40, 50
4, 71530, Note_on_c, 9, 38, 117
4, 71542, Note_on_c, 9, 44, 114
4, 71550, Note_on_c, 9, 38, 0
4, 71718, Note_on_c, 9, 40, 0
4, 71786, Note_on_c, 9, 38, 0
4, 71826, Note_on_c, 9, 38, 50
4, 71914, Note_on_c, 9, 38, 0
4, 71962, Note_on_c, 9, 44, 0
4, 71978, Note_on_c, 9, 40, 41
4, 72010, Note_on_c, 9, 38, 62
4, 72454, Note_on_c, 9, 40, 0
4, 72458, Note_on_c, 9, 40, 37
4, 72490, Note_on_c, 9, 38, 105
4, 72502, Note_on_c, 9, 44, 110
4, 72554, Note_on_c, 9, 38, 0
4, 72678, Note_on_c, 9, 40, 0
4, 72762, Note_on_c, 9, 38, 0
4, 72786, Note_on_c, 9, 38, 36
4, 72910, Note_on_c, 9, 44, 0
4, 72938, Note_on_c, 9, 40, 46
4, 72970, Note_on_c, 9, 38, 0
4, 72970, Note_on_c, 9, 38, 69
4, 73414, Note_on_c, 9, 40, 0
4, 73418, Note_on_c, 9, 40, 50
4, 73450, Note_on_c, 9, 38, 93
4, 73462, Note_on_c, 9, 38, 0
4, 73462, Note_on_c, 9, 44, 110
4, 73638, Note_on_c, 9, 40, 0
4, 73678, Note_on_c, 9, 38, 0
4, 73746, Note_on_c, 9, 38, 63
4, 73826, Note_on_c, 9, 38, 0
4, 73882, Note_on_c, 9, 44, 0
4, 73898, Note_on_c, 9, 40, 41
4, 73930, Note_on_c, 9, 38, 64
4, 74374, Note_on_c, 9, 40, 0
4, 74378, Note_on_c, 9, 40, 37
4, 74410, Note_on_c, 9, 38, 107
4, 74422, Note_on_c, 9, 44, 110
4, 74458, Note_on_c, 9, 38, 0
4, 74598, Note_on_c, 9, 40, 0
4, 74662, Note_on_c, 9, 38, 0
4, 74706, Note_on_c, 9, 38, 54
4, 74786, Note_on_c, 9, 38, 0
4, 74834, Note_on_c, 9, 44, 0
4, 74858, Note_on_c, 9, 40, 46
4, 74890, Note_on_c, 9, 38, 71
4, 75334, Note_on_c, 9, 40, 0
4, 75338, Note_on_c, 9, 40, 50
4, 75370, Note_on_c, 9, 38, 109
4, 75382, Note_on_c, 9, 44, 107
4, 75398, Note_on_c, 9, 38, 0
4, 75558, Note_on_c, 9, 40, 0
4, 75622, Note_on_c, 9, 38, 0
4, 75666, Note_on_c, 9, 38, 52
4, 75770, Note_on_c, 9, 38, 0
4, 75790, Note_on_c, 9, 44, 0
4, 75818, Note_on_c, 9, 40, 41
4, 75850, Note_on_c, 9, 38, 66
4, 76294, Note_on_c, 9, 40, 0
4, 76298, Note_on_c, 9, 40, 37
4, 76302, Note_on_c, 9, 38, 0
4, 76330, Note_on_c, 9, 38, 101
4, 76342, Note_on_c, 9, 44, 110
4, 76518, Note_on_c, 9, 40, 0
4, 76566, Note_on_c, 9, 38, 0
4, 76626, Note_on_c, 9, 39, 82
4, 76714, Note_on_c, 9, 39, 0
4, 76766, Note_on_c, 9, 44, 0
4, 76778, Note_on_c, 9, 40, 46
4, 76810, Note_on_c, 9, 38, 70
4, 77254, Note_on_c, 9, 40, 0
4, 77258, Note_on_c, 9, 40, 50
4, 77290, Note_on_c, 9, 38, 103
4, 77302, Note_on_c, 9, 44, 106
4, 77382, Note_on_c, 9, 38, 0
4, 77730, Note_on_c, 9, 44, 0
4, 77734, Note_on_c, 9, 40, 0
4, 77738, Note_on_c, 9, 40, 41
4, 77770, Note_on_c, 9, 38, 69
4, 77774, Note_on_c, 9, 38, 0
4, 78022, Note_on_c, 9, 38, 0
4, 78070, Note_on_c, 9, 39, 120
4, 78214, Note_on_c, 9, 40, 0
4, 78250, Note_on_c, 9, 38, 63
4, 78262, Note_on_c, 9, 44, 104
4, 78290, Note_on_c, 9, 39, 0
4, 78494, Note_on_c, 9, 38, 0
4, 78550, Note_on_c, 9, 35, 100
4, 78658, Note_on_c, 9, 35, 0
4, 78690, Note_on_c, 9, 44, 0
4, 78698, Note_on_c, 9, 40, 46
4, 78890, Note_on_c, 9, 39, 60
4, 78918, Note_on_c, 9, 40, 0
4, 79046, Note_on_c, 9, 35, 70
4, 79102, Note_on_c, 9, 39, 0
4, 79154, Note_on_c, 9, 35, 0
4, 79178, Note_on_c, 9, 40, 50
4, 79222, Note_on_c, 9, 44, 102
4, 79642, Note_on_c, 9, 44, 0
4, 79654, Note_on_c, 9, 40, 0
4, 79658, Note_on_c, 9, 40, 41
4, 79690, Note_on_c, 9, 38, 66
4, 80106, Note_on_c, 9, 38, 0
4, 80134, Note_on_c, 9, 40, 0
4, 80138, Note_on_c, 9, 40, 37
4, 80170, Note_on_c, 9, 38, 119
4, 80182, Note_on_c, 9, 44, 89
4, 80614, Note_on_c, 9, 40, 0
4, 80618, Note_on_c, 9, 40, 46
4, 80626, Note_on_c, 9, 44, 0
4, 80650, Note_on_c, 9, 38, 0
4, 80650, Note_on_c, 9, 38, 66
4, 81086, Note_on_c, 9, 38, 0
4, 81094, Note_on_c, 9, 40, 0
4, 81098, Note_on_c, 9, 40, 50
4, 81130, Note_on_c, 9, 38, 115
4, 81142, Note_on_c, 9, 44, 100
4, 81318, Note_on_c, 9, 40, 0
4, 81366, Note_on_c, 9, 38, 0
4, 81426, Note_on_c, 9, 38, 59
4, 81502, Note_on_c, 9, 38, 0
4, 81570, Note_on_c, 9, 44, 0
4, 81578, Note_on_c, 9, 40, 41
4, 81610, Note_on_c, 9, 38, 73
4, 82054, Note_on_c, 9, 40, 0
4, 82058, Note_on_c, 9, 40, 37
4, 82090, Note_on_c, 9, 38, 117
4, 82102, Note_on_c, 9, 44, 89
4, 82118, Note_on_c, 9, 38, 0
4, 82274, Note_on_c, 9, 44, 0
4, 82278, Note_on_c, 9, 40, 0
4, 82306, Note_on_c, 9, 38, 0
4, 82330, Note_on_c, 9, 46, 65
4, 82386, Note_on_c, 9, 38, 64
4, 82490, Note_on_c, 9, 38, 0
4, 82538, Note_on_c, 9, 40, 46
4, 82570, Note_on_c, 9, 46, 0
4, 82570, Note_on_c, 9, 38, 50
4, 83014, Note_on_c, 9, 40, 0
4, 83018, Note_on_c, 9, 40, 50
4, 83050, Note_on_c, 9, 38, 111
4, 83062, Note_on_c, 9, 44, 106
4, 83090, Note_on_c, 9, 38, 0
4, 83238, Note_on_c, 9, 40, 0
4, 83330, Note_on_c, 9, 38, 0
4, 83346, Note_on_c, 9, 38, 52
4, 83422, Note_on_c, 9, 38, 0
4, 83494, Note_on_c, 9, 44, 0
4, 83498, Note_on_c, 9, 40, 41
4, 83530, Note_on_c, 9, 38, 55
4, 83974, Note_on_c, 9, 40, 0
4, 83978, Note_on_c, 9, 40, 37
4, 84002, Note_on_c, 9, 38, 0
4, 84010, Note_on_c, 9, 38, 113
4, 84022, Note_on_c, 9, 44, 107
4, 84198, Note_on_c, 9, 40, 0
4, 84290, Note_on_c, 9, 38, 0
4, 84306, Note_on_c, 9, 38, 44
4, 84386, Note_on_c, 9, 38, 0
4, 84458, Note_on_c, 9, 40, 46
4, 84462, Note_on_c, 9, 44, 0
4, 84490, Note_on_c, 9, 38, 66
4, 84906, Note_on_c, 9, 38, 0
4, 84934, Note_on_c, 9, 40, 0
4, 84938, Note_on_c, 9, 40, 50
4, 84970, Note_on_c, 9, 38, 109
4, 84982, Note_on_c, 9, 44, 111
4, 85306, Note_on_c, 9, 35, 74
4, 85374, Note_on_c, 9, 38, 0
4, 85406, Note_on_c, 9, 44, 0
4, 85414, Note_on_c, 9, 40, 0
4, 85414, Note_on_c, 9, 35, 0
4, 85418, Note_on_c, 9, 40, 41
4, 85450, Note_on_c, 9, 38, 62
4, 85462, Note_on_c, 9, 44, 91
4, 85614, Note_on_c, 9, 44, 0
4, 85638, Note_on_c, 9, 40, 0
4, 85666, Note_on_c, 9, 38, 0
4, 85690, Note_on_c, 9, 46, 90
4, 85746, Note_on_c, 9, 39, 117
4, 85886, Note_on_c, 9, 39, 0
4, 85898, Note_on_c, 9, 40, 37
4, 85930, Note_on_c, 9, 38, 57
4, 86050, Note_on_c, 9, 46, 0
4, 86230, Note_on_c, 9, 35, 110
4, 86230, Note_on_c, 9, 39, 110
4, 86258, Note_on_c, 9, 38, 0
4, 86338, Note_on_c, 9, 35, 0
4, 86374, Note_on_c, 9, 40, 0
4, 86378, Note_on_c, 9, 40, 46
4, 86410, Note_on_c, 9, 39, 0
4, 86410, Note_on_c, 9, 38, 80
4, 86854, Note_on_c, 9, 40, 0
4, 86858, Note_on_c, 9, 40, 50
4, 86890, Note_on_c, 9, 38, 113
4, 86902, Note_on_c, 9, 44, 127
4, 86930, Note_on_c, 9, 38, 0
4, 87078, Note_on_c, 9, 40, 0
4, 87170, Note_on_c, 9, 38, 0
4, 87186, Note_on_c, 9, 38, 50
4, 87274, Note_on_c, 9, 38, 0
4, 87298, Note_on_c, 9, 44, 0
4, 87338, Note_on_c, 9, 40, 41
4, 87370, Note_on_c, 9, 38, 52
4, 87814, Note_on_c, 9, 40, 0
4, 87818, Note_on_c, 9, 40, 37
4, 87826, Note_on_c, 9, 38, 0
4, 87850, Note_on_c, 9, 38, 117
4, 87862, Note_on_c, 9, 44, 107
4, 88038, Note_on_c, 9, 40, 0
4, 88130, Note_on_c, 9, 38, 0
4, 88146, Note_on_c, 9, 38, 41
4, 88206, Note_on_c, 9, 38, 0
4, 88294, Note_on_c, 9, 44, 0
4, 88298, Note_on_c, 9, 40, 46
4, 88330, Note_on_c, 9, 38, 67
4, 88762, Note_on_c, 9, 38, 0
4, 88774, Note_on_c, 9, 40, 0
4, 88778, Note_on_c, 9, 40, 50
4, 88810, Note_on_c, 9, 38, 115
4, 88822, Note_on_c, 9, 44, 98
4, 88998, Note_on_c, 9, 40, 0
4, 89054, Note_on_c, 9, 38, 0
4, 89106, Note_on_c, 9, 38, 50
4, 89206, Note_on_c, 9, 38, 0
4, 89254, Note_on_c, 9, 44, 0
4, 89258, Note_on_c, 9, 40, 41
4, 89290, Note_on_c, 9, 38, 71
4, 89690, Note_on_c, 9, 38, 0
4, 89734, Note_on_c, 9, 40, 0
4, 89738, Note_on_c, 9, 40, 37
4, 89770, Note_on_c, 9, 38, 121
4, 89782, Note_on_c, 9, 44, 102
4, 89954, Note_on_c, 9, 38, 65
4, 89958, Note_on_c, 9, 40, 0
4, 90094, Note_on_c, 9, 38, 0
4, 90218, Note_on_c, 9, 40, 46
4, 90234, Note_on_c, 9, 44, 0
4, 90234, Note_on_c, 9, 38, 0
4, 90250, Note_on_c, 9, 38, 82
4, 90666, Note_on_c, 9, 38, 0
4, 90694, Note_on_c, 9, 40, 0
4, 90698, Note_on_c, 9, 40, 50
4, 90730, Note_on_c, 9, 38, 115
4, 90742, Note_on_c, 9, 44, 107
4, 90918, Note_on_c, 9, 40, 0
4, 90950, Note_on_c, 9, 38, 0
4, 91026, Note_on_c, 9, 38, 60
4, 91138, Note_on_c, 9, 38, 0
4, 91178, Note_on_c, 9, 40, 41
4, 91182, Note_on_c, 9, 44, 0
4, 91210, Note_on_c, 9, 38, 63
4, 91654, Note_on_c, 9, 40, 0
4, 91658, Note_on_c, 9, 40, 37
4, 91690, Note_on_c, 9, 38, 115
4, 91702, Note_on_c, 9, 44, 89
4, 91718, Note_on_c, 9, 38, 0
4, 92090, Note_on_c, 9, 38, 0
4, 92126, Note_on_c, 9, 44, 0
4, 92134, Note_on_c, 9, 40, 0
4, 92138, Note_on_c, 9, 40, 46
4, 92250, Note_on_c, 9, 38, 30
4, 92310, Note_on_c, 9, 38, 0
4, 92330, Note_on_c, 9, 38, 66
4, 92358, Note_on_c, 9, 40, 0
4, 92390, Note_on_c, 9, 38, 0
4, 92410, Note_on_c, 9, 38, 82
4, 92470, Note_on_c, 9, 38, 0
4, 92490, Note_on_c, 9, 39, 120
4, 92550, Note_on_c, 9, 39, 0
4, 92570, Note_on_c, 9, 38, 70
4, 92630, Note_on_c, 9, 38, 0
4, 92650, Note_on_c, 9, 38, 72
4, 92710, Note_on_c, 9, 38, 0
4, 92730, Note_on_c, 9, 38, 66
4, 92810, Note_on_c, 9, 38, 51
4, 92970, Note_on_c, 9, 35, 74
4, 93030, Note_on_c, 9, 35, 0
4, 93046, Note_on_c, 9, 38, 0
4, 93050, Note_on_c, 9, 38, 34
4, 93110, Note_on_c, 9, 38, 0
4, 93126, Note_on_c, 9, 38, 0
4, 93130, Note_on_c, 9, 38, 95
4, 93190, Note_on_c, 9, 38, 0
4, 93210, Note_on_c, 9, 38, 32
4, 93270, Note_on_c, 9, 38, 0
4, 93290, Note_on_c, 9, 39, 110
4, 93350, Note_on_c, 9, 39, 0
4, 93370, Note_on_c, 9, 38, 36
4, 93430, Note_on_c, 9, 38, 0
4, 93450, Note_on_c, 9, 38, 74
4, 93510, Note_on_c, 9, 38, 0
4, 93530, Note_on_c, 9, 38, 23
4, 93590, Note_on_c, 9, 38, 0
4, 93610, Note_on_c, 9, 38, 22
4, 93670, Note_on_c, 9, 38, 0
4, 93770, Note_on_c, 9, 38, 62
4, 93910, Note_on_c, 9, 39, 127
4, 93970, Note_on_c, 9, 39, 0
4, 94058, Note_on_c, 9, 40, 46
4, 94086, Note_on_c, 9, 38, 0
4, 94534, Note_on_c, 9, 40, 0
4, 94538, Note_on_c, 9, 40, 50
4, 94570, Note_on_c, 9, 38, 119
4, 94582, Note_on_c, 9, 44, 127
4, 94758, Note_on_c, 9, 40, 0
4, 94810, Note_on_c, 9, 38, 0
4, 94866, Note_on_c, 9, 38, 56
4, 94962, Note_on_c, 9, 38, 0
4, 94982, Note_on_c, 9, 44, 0
4, 95018, Note_on_c, 9, 40, 41
4, 95050, Note_on_c, 9, 38, 99
4, 95218, Note_on_c, 9, 38, 0
4, 95238, Note_on_c, 9, 40, 0
4, 95498, Note_on_c, 9, 40, 37
4, 95530, Note_on_c, 9, 46, 110
4, 95530, Note_on_c, 9, 38, 117
4, 95718, Note_on_c, 9, 40, 0
4, 95766, Note_on_c, 9, 38, 0
4, 95826, Note_on_c, 9, 38, 52
4, 95894, Note_on_c, 9, 46, 0
4, 95950, Note_on_c, 9, 38, 0
4, 95978, Note_on_c, 9, 40, 46
4, 96010, Note_on_c, 9, 38, 78
4, 96434, Note_on_c, 9, 38, 0
4, 96454, Note_on_c, 9, 40, 0
4, 96458, Note_on_c, 9, 40, 50
4, 96490, Note_on_c, 9, 38, 121
4, 96502, Note_on_c, 9, 44, 114
4, 96678, Note_on_c, 9, 40, 0
4, 96714, Note_on_c, 9, 38, 0
4, 96786, Note_on_c, 9, 38, 55
4, 96862, Note_on_c, 9, 38, 0
4, 96914, Note_on_c, 9, 44, 0
4, 96938, Note_on_c, 9, 40, 41
4, 96970, Note_on_c, 9, 38, 65
4, 97158, Note_on_c, 9, 40, 0
4, 97214, Note_on_c, 9, 38, 0
4, 97266, Note_on_c, 9, 39, 97
4, 97266, Note_on_c, 9, 38, 68
4, 97326, Note_on_c, 9, 38, 0
4, 97354, Note_on_c, 9, 39, 0
4, 97418, Note_on_c, 9, 40, 37
4, 97462, Note_on_c, 9, 44, 115
4, 97638, Note_on_c, 9, 40, 0
4, 97746, Note_on_c, 9, 38, 61
4, 97858, Note_on_c, 9, 38, 0
4, 97890, Note_on_c, 9, 44, 0
4, 97898, Note_on_c, 9, 40, 46
4, 97930, Note_on_c, 9, 38, 73
4, 98318, Note_on_c, 9, 38, 0
4, 98374, Note_on_c, 9, 40, 0
4, 98378, Note_on_c, 9, 40, 50
4, 98410, Note_on_c, 9, 38, 119
4, 98422, Note_on_c, 9, 44, 111
4, 98598, Note_on_c, 9, 40, 0
4, 98610, Note_on_c, 9, 38, 0
4, 98706, Note_on_c, 9, 38, 67
4, 98766, Note_on_c, 9, 44, 0
4, 98810, Note_on_c, 9, 38, 0
4, 98858, Note_on_c, 9, 40, 41
4, 98890, Note_on_c, 9, 38, 62
4, 99034, Note_on_c, 9, 38, 0
4, 99078, Note_on_c, 9, 40, 0
4, 99186, Note_on_c, 9, 38, 76
4, 99338, Note_on_c, 9, 40, 37
4, 99350, Note_on_c, 9, 38, 0
4, 99382, Note_on_c, 9, 44, 126
4, 99794, Note_on_c, 9, 44, 0
4, 99814, Note_on_c, 9, 40, 0
4, 99818, Note_on_c, 9, 40, 46
4, 99850, Note_on_c, 9, 38, 80
4, 100266, Note_on_c, 9, 38, 0
4, 100294, Note_on_c, 9, 40, 0
4, 100298, Note_on_c, 9, 40, 50
4, 100330, Note_on_c, 9, 38, 121
4, 100342, Note_on_c, 9, 44, 114
4, 100762, Note_on_c, 9, 44, 0
4, 100774, Note_on_c, 9, 40, 0
4, 100778, Note_on_c, 9, 40, 41
4, 100810, Note_on_c, 9, 38, 43
4, 100846, Note_on_c, 9, 38, 0
4, 101254, Note_on_c, 9, 40, 0
4, 101258, Note_on_c, 9, 40, 37
4, 101290, Note_on_c, 9, 38, 121
4, 101302, Note_on_c, 9, 44, 111
4, 101406, Note_on_c, 9, 38, 0
4, 101698, Note_on_c, 9, 38, 0
4, 101710, Note_on_c, 9, 44, 0
4, 101734, Note_on_c, 9, 40, 0
4, 101738, Note_on_c, 9, 40, 46
4, 101770, Note_on_c, 9, 35, 110
4, 101770, Note_on_c, 9, 38, 41
4, 102214, Note_on_c, 9, 40, 0
4, 102218, Note_on_c, 9, 40, 50
4, 102250, Note_on_c, 9, 38, 111
4, 102262, Note_on_c, 9, 44, 119
4, 102286, Note_on_c, 9, 35, 0
4, 102330, Note_on_c, 9, 38, 0
4, 102438, Note_on_c, 9, 38, 0
4, 102438, Note_on_c, 9, 40, 0
4, 102546, Note_on_c, 9, 38, 95
4, 102626, Note_on_c, 9, 38, 0
4, 102686, Note_on_c, 9, 44, 0
4, 102698, Note_on_c, 9, 40, 41
4, 102730, Note_on_c, 9, 38, 81
4, 103126, Note_on_c, 9, 38, 0
4, 103174, Note_on_c, 9, 40, 0
4, 103178, Note_on_c, 9, 40, 37
4, 103210, Note_on_c, 9, 38, 105
4, 103222, Note_on_c, 9, 44, 123
4, 103374, Note_on_c, 9, 38, 0
4, 103398, Note_on_c, 9, 40, 0
4, 103506, Note_on_c, 9, 38, 69
4, 103582, Note_on_c, 9, 38, 0
4, 103634, Note_on_c, 9, 44, 0
4, 103658, Note_on_c, 9, 40, 46
4, 103690, Note_on_c, 9, 38, 69
4, 104062, Note_on_c, 9, 38, 0
4, 104134, Note_on_c, 9, 40, 0
4, 104138, Note_on_c, 9, 40, 50
4, 104170, Note_on_c, 9, 38, 101
4, 104182, Note_on_c, 9, 44, 111
4, 104358, Note_on_c, 9, 38, 0
4, 104358, Note_on_c, 9, 40, 0
4, 104466, Note_on_c, 9, 38, 105
4, 104570, Note_on_c, 9, 38, 0
4, 104578, Note_on_c, 9, 44, 0
4, 104618, Note_on_c, 9, 40, 41
4, 104650, Note_on_c, 9, 38, 87
4, 105038, Note_on_c, 9, 38, 0
4, 105094, Note_on_c, 9, 40, 0
4, 105098, Note_on_c, 9, 40, 37
4, 105130, Note_on_c, 9, 38, 97
4, 105142, Note_on_c, 9, 44, 114
4, 105310, Note_on_c, 9, 38, 0
4, 105318, Note_on_c, 9, 40, 0
4, 105426, Note_on_c, 9, 38, 105
4, 105530, Note_on_c, 9, 44, 0
4, 105538, Note_on_c, 9, 38, 0
4, 105578, Note_on_c, 9, 40, 46
4, 105610, Note_on_c, 9, 38, 61
4, 106054, Note_on_c, 9, 40, 0
4, 106058, Note_on_c, 9, 40, 50
4, 106066, Note_on_c, 9, 38, 0
4, 106090, Note_on_c, 9, 38, 121
4, 106102, Note_on_c, 9, 44, 120
4, 106506, Note_on_c, 9, 44, 0
4, 106534, Note_on_c, 9, 40, 0
4, 106538, Note_on_c, 9, 40, 41
4, 106570, Note_on_c, 9, 38, 71
4, 106626, Note_on_c, 9, 38, 0
4, 106758, Note_on_c, 9, 40, 0
4, 106770, Note_on_c, 9, 38, 0
4, 106866, Note_on_c, 9, 38, 105
4, 106970, Note_on_c, 9, 38, 0
4, 107018, Note_on_c, 9, 40, 37
4, 107062, Note_on_c, 9, 44, 127
4, 107450, Note_on_c, 9, 44, 0
4, 107494, Note_on_c, 9, 40, 0
4, 107498, Note_on_c, 9, 40, 46
4, 107530, Note_on_c, 9, 38, 73
4, 107718, Note_on_c, 9, 40, 0
4, 107726, Note_on_c, 9, 38, 0
4, 107826, Note_on_c, 9, 39, 117
4, 107930, Note_on_c, 9, 39, 0
4, 107978, Note_on_c, 9, 40, 50
4, 108010, Note_on_c, 9, 38, 50
4, 108022, Note_on_c, 9, 44, 96
4, 108454, Note_on_c, 9, 40, 0
4, 108458, Note_on_c, 9, 40, 41
4, 108490, Note_on_c, 9, 38, 85
4, 108526, Note_on_c, 9, 38, 0
4, 108606, Note_on_c, 9, 44, 0
4, 108646, Note_on_c, 9, 38, 0
4, 108678, Note_on_c, 9, 40, 0
4, 108786, Note_on_c, 9, 39, 115
4, 108890, Note_on_c, 9, 39, 0
4, 108938, Note_on_c, 9, 40, 37
4, 108970, Note_on_c, 9, 46, 85
4, 109158, Note_on_c, 9, 40, 0
4, 109266, Note_on_c, 9, 38, 92
4, 109334, Note_on_c, 9, 46, 0
4, 109346, Note_on_c, 9, 38, 0
4, 109418, Note_on_c, 9, 40, 46
4, 109450, Note_on_c, 9, 35, 110
4, 109450, Note_on_c, 9, 53, 80
4, 109462, Note_on_c, 9, 44, 76
4, 109806, Note_on_c, 9, 53, 0
4, 109894, Note_on_c, 9, 40, 0
4, 109898, Note_on_c, 9, 40, 50
4, 109930, Note_on_c, 9, 38, 107
4, 109942, Note_on_c, 9, 44, 127
4, 109966, Note_on_c, 9, 35, 0
4, 110026, Note_on_c, 9, 44, 0
4, 110326, Note_on_c, 9, 44, 0
4, 110374, Note_on_c, 9, 40, 0
4, 110378, Note_on_c, 9, 40, 41
4, 110410, Note_on_c, 9, 38, 67
4, 110490, Note_on_c, 9, 38, 0
4, 110850, Note_on_c, 9, 38, 0
4, 110854, Note_on_c, 9, 40, 0
4, 110858, Note_on_c, 9, 40, 37
4, 110890, Note_on_c, 9, 38, 113
4, 110902, Note_on_c, 9, 44, 127
4, 111078, Note_on_c, 9, 40, 0
4, 111118, Note_on_c, 9, 38, 0
4, 111186, Note_on_c, 9, 38, 86
4, 111286, Note_on_c, 9, 38, 0
4, 111322, Note_on_c, 9, 44, 0
4, 111338, Note_on_c, 9, 40, 46
4, 111370, Note_on_c, 9, 38, 83
4, 111814, Note_on_c, 9, 40, 0
4, 111818, Note_on_c, 9, 40, 50
4, 111850, Note_on_c, 9, 38, 113
4, 111862, Note_on_c, 9, 44, 102
4, 111870, Note_on_c, 9, 38, 0
4, 112290, Note_on_c, 9, 44, 0
4, 112294, Note_on_c, 9, 40, 0
4, 112298, Note_on_c, 9, 40, 41
4, 112330, Note_on_c, 9, 38, 63
4, 112454, Note_on_c, 9, 38, 0
4, 112630, Note_on_c, 9, 39, 110
4, 112738, Note_on_c, 9, 39, 0
4, 112738, Note_on_c, 9, 38, 0
4, 112774, Note_on_c, 9, 40, 0
4, 112778, Note_on_c, 9, 40, 37
4, 112810, Note_on_c, 9, 38, 113
4, 112822, Note_on_c, 9, 44, 126
4, 112998, Note_on_c, 9, 40, 0
4, 113030, Note_on_c, 9, 38, 0
4, 113106, Note_on_c, 9, 38, 77
4, 113194, Note_on_c, 9, 38, 0
4, 113234, Note_on_c, 9, 44, 0
4, 113258, Note_on_c, 9, 40, 46
4, 113290, Note_on_c, 9, 38, 69
4, 113654, Note_on_c, 9, 38, 0
4, 113734, Note_on_c, 9, 40, 0
4, 113738, Note_on_c, 9, 40, 50
4, 113770, Note_on_c, 9, 38, 111
4, 113782, Note_on_c, 9, 44, 113
4, 114186, Note_on_c, 9, 38, 0
4, 114202, Note_on_c, 9, 44, 0
4, 114214, Note_on_c, 9, 40, 0
4, 114218, Note_on_c, 9, 40, 41
4, 114250, Note_on_c, 9, 38, 71
4, 114658, Note_on_c, 9, 38, 0
4, 114694, Note_on_c, 9, 40, 0
4, 114698, Note_on_c, 9, 40, 37
4, 114730, Note_on_c, 9, 38, 95
4, 114742, Note_on_c, 9, 44, 113
4, 114918, Note_on_c, 9, 40, 0
4, 114966, Note_on_c, 9, 38, 0
4, 115026, Note_on_c, 9, 38, 107
4, 115114, Note_on_c, 9, 38, 0
4, 115162, Note_on_c, 9, 44, 0
4, 115178, Note_on_c, 9, 40, 46
4, 115210, Note_on_c, 9, 38, 93
4, 115622, Note_on_c, 9, 38, 0
4, 115654, Note_on_c, 9, 40, 0
4, 115658, Note_on_c, 9, 40, 50
4, 115690, Note_on_c, 9, 38, 99
4, 115702, Note_on_c, 9, 44, 118
4, 115866, Note_on_c, 9, 38, 0
4, 115878, Note_on_c, 9, 40, 0
4, 115986, Note_on_c, 9, 38, 89
4, 116062, Note_on_c, 9, 38, 0
4, 116110, Note_on_c, 9, 44, 0
4, 116138, Note_on_c, 9, 40, 41
4, 116170, Note_on_c, 9, 38, 73
4, 116614, Note_on_c, 9, 40, 0
4, 116618, Note_on_c, 9, 40, 37
4, 116650, Note_on_c, 9, 38, 97
4, 116654, Note_on_c, 9, 38, 0
4, 116662, Note_on_c, 9, 44, 119
4, 116814, Note_on_c, 9, 44, 0
4, 116838, Note_on_c, 9, 40, 0
4, 116854, Note_on_c, 9, 38, 0
4, 116946, Note_on_c, 9, 39, 120
4, 117042, Note_on_c, 9, 39, 0
4, 117098, Note_on_c, 9, 40, 46
4, 117130, Note_on_c, 9, 38, 45
4, 117494, Note_on_c, 9, 38, 0
4, 117574, Note_on_c, 9, 40, 0
4, 117578, Note_on_c, 9, 40, 50
4, 117610, Note_on_c, 9, 38, 107
4, 117622, Note_on_c, 9, 44, 123
4, 117990, Note_on_c, 9, 44, 0
4, 118034, Note_on_c, 9, 38, 0
4, 118054, Note_on_c, 9, 40, 0
4, 118058, Note_on_c, 9, 40, 41
4, 118090, Note_on_c, 9, 38, 64
4, 118534, Note_on_c, 9, 40, 0
4, 118538, Note_on_c, 9, 40, 37
4, 118570, Note_on_c, 9, 38, 111
4, 118582, Note_on_c, 9, 38, 0
4, 118582, Note_on_c, 9, 44, 118
4, 118758, Note_on_c, 9, 40, 0
4, 118790, Note_on_c, 9, 38, 0
4, 118866, Note_on_c, 9, 38, 68
4, 118966, Note_on_c, 9, 38, 0
4, 118970, Note_on_c, 9, 44, 0
4, 119018, Note_on_c, 9, 40, 46
4, 119050, Note_on_c, 9, 38, 71
4, 119486, Note_on_c, 9, 38, 0
4, 119494, Note_on_c, 9, 40, 0
4, 119498, Note_on_c, 9, 40, 50
4, 119530, Note_on_c, 9, 38, 117
4, 119542, Note_on_c, 9, 44, 115
4, 119954, Note_on_c, 9, 44, 0
4, 119974, Note_on_c, 9, 40, 0
4, 119978, Note_on_c, 9, 40, 41
4, 120010, Note_on_c, 9, 38, 63
4, 120026, Note_on_c, 9, 38, 0
4, 120454, Note_on_c, 9, 40, 0
4, 120458, Note_on_c, 9, 40, 37
4, 120490, Note_on_c, 9, 38, 107
4, 120494, Note_on_c, 9, 38, 0
4, 120502, Note_on_c, 9, 44, 127
4, 120678, Note_on_c, 9, 40, 0
4, 120710, Note_on_c, 9, 38, 0
4, 120786, Note_on_c, 9, 38, 87
4, 120874, Note_on_c, 9, 38, 0
4, 120906, Note_on_c, 9, 44, 0
4, 120938, Note_on_c, 9, 40, 46
4, 120970, Note_on_c, 9, 38, 75
4, 121270, Note_on_c, 9, 39, 110
4, 121350, Note_on_c, 9, 38, 0
4, 121378, Note_on_c, 9, 39, 0
4, 121414, Note_on_c, 9, 40, 0
4, 121418, Note_on_c, 9, 40, 50
4, 121450, Note_on_c, 9, 38, 111
4, 121462, Note_on_c, 9, 44, 123
4, 121858, Note_on_c, 9, 44, 0
4, 121862, Note_on_c, 9, 38, 0
4, 121894, Note_on_c, 9, 40, 0
4, 121898, Note_on_c, 9, 40, 41
4, 121930, Note_on_c, 9, 35, 110
4, 122294, Note_on_c, 9, 35, 0
4, 122374, Note_on_c, 9, 40, 0
4, 122378, Note_on_c, 9, 40, 37
4, 122410, Note_on_c, 9, 38, 119
4, 122422, Note_on_c, 9, 44, 115
4, 122598, Note_on_c, 9, 40, 0
4, 122634, Note_on_c, 9, 38, 0
4, 122706, Note_on_c, 9, 38, 68
4, 122710, Note_on_c, 9, 35, 90
4, 122758, Note_on_c, 9, 38, 0
4, 122810, Note_on_c, 9, 44, 0
4, 122818, Note_on_c, 9, 35, 0
4, 122858, Note_on_c, 9, 40, 46
4, 123334, Note_on_c, 9, 40, 0
4, 123338, Note_on_c, 9, 40, 50
4, 123382, Note_on_c, 9, 44, 127
4, 123670, Note_on_c, 9, 39, 110
4, 123778, Note_on_c, 9, 39, 0
4, 123782, Note_on_c, 9, 44, 0
4, 123814, Note_on_c, 9, 40, 0
4, 123818, Note_on_c, 9, 40, 41
4, 124150, Note_on_c, 9, 39, 110
4, 124258, Note_on_c, 9, 39, 0
4, 124294, Note_on_c, 9, 40, 0
4, 124298, Note_on_c, 9, 40, 37
4, 124342, Note_on_c, 9, 44, 123
4, 124470, Note_on_c, 9, 44, 0
4, 124774, Note_on_c, 9, 40, 0
4, 124811, Note_on_c, 9, 40, 54
4, 124821, Note_on_c, 9, 38, 54
4, 124821, Note_on_c, 9, 42, 10
4, 124919, Note_on_c, 9, 40, 0
4, 124929, Note_on_c, 9, 42, 0
4, 124929, Note_on_c, 9, 38, 0
4, 125269, Note_on_c, 9, 40, 50
4, 125301, Note_on_c, 9, 38, 103
4, 125313, Note_on_c, 9, 44, 126
4, 125489, Note_on_c, 9, 44, 0
4, 125561, Note_on_c, 9, 38, 0
4, 125597, Note_on_c, 9, 38, 49
4, 125697, Note_on_c, 9, 38, 0
4, 125745, Note_on_c, 9, 40, 0
4, 125779, Note_on_c, 9, 40, 41
4, 125781, Note_on_c, 9, 38, 67
4, 126021, Note_on_c, 9, 38, 0
4, 126229, Note_on_c, 9, 40, 37
4, 126255, Note_on_c, 9, 40, 0
4, 126261, Note_on_c, 9, 38, 107
4, 126273, Note_on_c, 9, 44, 105
4, 126461, Note_on_c, 9, 44, 0
4, 126537, Note_on_c, 9, 38, 0
4, 126557, Note_on_c, 9, 38, 49
4, 126609, Note_on_c, 9, 38, 0
4, 126705, Note_on_c, 9, 40, 0
4, 126709, Note_on_c, 9, 40, 46
4, 126741, Note_on_c, 9, 38, 72
4, 126969, Note_on_c, 9, 38, 0
4, 127185, Note_on_c, 9, 40, 0
4, 127189, Note_on_c, 9, 40, 50
4, 127221, Note_on_c, 9, 38, 105
4, 127233, Note_on_c, 9, 44, 107
4, 127405, Note_on_c, 9, 44, 0
4, 127485, Note_on_c, 9, 38, 0
4, 127517, Note_on_c, 9, 38, 45
4, 127581, Note_on_c, 9, 38, 0
4, 127665, Note_on_c, 9, 40, 0
4, 127669, Note_on_c, 9, 40, 41
4, 127701, Note_on_c, 9, 38, 72
4, 127921, Note_on_c, 9, 38, 0
4, 128001, Note_on_c, 9, 39, 110
4, 128109, Note_on_c, 9, 39, 0
4, 128145, Note_on_c, 9, 40, 0
4, 128149, Note_on_c, 9, 40, 37
4, 128181, Note_on_c, 9, 38, 109
4, 128193, Note_on_c, 9, 44, 114
4, 128397, Note_on_c, 9, 38, 0
4, 128401, Note_on_c, 9, 44, 0
4, 128477, Note_on_c, 9, 38, 63
4, 128573, Note_on_c, 9, 38, 0
4, 128625, Note_on_c, 9, 40, 0
4, 128629, Note_on_c, 9, 40, 46
4, 128661, Note_on_c, 9, 38, 71
4, 128817, Note_on_c, 9, 38, 0
4, 129105, Note_on_c, 9, 40, 0
4, 129109, Note_on_c, 9, 40, 50
4, 129141, Note_on_c, 9, 38, 113
4, 129153, Note_on_c, 9, 44, 113
4, 129345, Note_on_c, 9, 44, 0
4, 129549, Note_on_c, 9, 38, 0
4, 129585, Note_on_c, 9, 40, 0
4, 129589, Note_on_c, 9, 40, 41
4, 129621, Note_on_c, 9, 38, 57
4, 129765, Note_on_c, 9, 38, 0
4, 130065, Note_on_c, 9, 40, 0
4, 130069, Note_on_c, 9, 40, 37
4, 130101, Note_on_c, 9, 38, 109
4, 130113, Note_on_c, 9, 44, 110
4, 130289, Note_on_c, 9, 44, 0
4, 130389, Note_on_c, 9, 38, 0
4, 130397, Note_on_c, 9, 38, 56
4, 130457, Note_on_c, 9, 38, 0
4, 130545, Note_on_c, 9, 40, 0
4, 130549, Note_on_c, 9, 40, 46
4, 130581, Note_on_c, 9, 38, 55
4, 131021, Note_on_c, 9, 38, 0
4, 131025, Note_on_c, 9, 40, 0
4, 131029, Note_on_c, 9, 40, 50
4, 131061, Note_on_c, 9, 38, 97
4, 131073, Note_on_c, 9, 44, 115
4, 131249, Note_on_c, 9, 40, 0
4, 131285, Note_on_c, 9, 38, 0
4, 131357, Note_on_c, 9, 39, 113
4, 131477, Note_on_c, 9, 39, 0
4, 131501, Note_on_c, 9, 44, 0
4, 131509, Note_on_c, 9, 40, 41
4, 131541, Note_on_c, 9, 38, 81
4, 131985, Note_on_c, 9, 40, 0
4, 131989, Note_on_c, 9, 40, 37
4, 132021, Note_on_c, 9, 38, 103
4, 132033, Note_on_c, 9, 44, 115
4, 132101, Note_on_c, 9, 38, 0
4, 132209, Note_on_c, 9, 40, 0
4, 132257, Note_on_c, 9, 38, 0
4, 132317, Note_on_c, 9, 38, 55
4, 132437, Note_on_c, 9, 44, 0
4, 132469, Note_on_c, 9, 40, 46
4, 132501, Note_on_c, 9, 38, 0
4, 132501, Note_on_c, 9, 38, 63
4, 132945, Note_on_c, 9, 40, 0
4, 132949, Note_on_c, 9, 40, 50
4, 132981, Note_on_c, 9, 38, 117
4, 132993, Note_on_c, 9, 44, 114
4, 133001, Note_on_c, 9, 38, 0
4, 133169, Note_on_c, 9, 40, 0
4, 133237, Note_on_c, 9, 38, 0
4, 133277, Note_on_c, 9, 38, 50
4, 133365, Note_on_c, 9, 38, 0
4, 133413, Note_on_c, 9, 44, 0
4, 133429, Note_on_c, 9, 40, 41
4, 133461, Note_on_c, 9, 38, 62
4, 133905, Note_on_c, 9, 40, 0
4, 133909, Note_on_c, 9, 40, 37
4, 133941, Note_on_c, 9, 38, 105
4, 133953, Note_on_c, 9, 44, 110
4, 134005, Note_on_c, 9, 38, 0
4, 134129, Note_on_c, 9, 40, 0
4, 134213, Note_on_c, 9, 38, 0
4, 134237, Note_on_c, 9, 38, 36
4, 134361, Note_on_c, 9, 44, 0
4, 134389, Note_on_c, 9, 40, 46
4, 134421, Note_on_c, 9, 38, 0
4, 134421, Note_on_c, 9, 38, 69
4, 134865, Note_on_c, 9, 40, 0
4, 134869, Note_on_c, 9, 40, 50
4, 134901, Note_on_c, 9, 38, 93
4, 134913, Note_on_c, 9, 38, 0
4, 134913, Note_on_c, 9, 44, 110
4, 135089, Note_on_c, 9, 40, 0
4, 135129, Note_on_c, 9, 38, 0
4, 135197, Note_on_c, 9, 38, 63
4, 135277, Note_on_c, 9, 38, 0
4, 135333, Note_on_c, 9, 44, 0
4, 135349, Note_on_c, 9, 40, 41
4, 135381, Note_on_c, 9, 38, 64
4, 135825, Note_on_c, 9, 40, 0
4, 135829, Note_on_c, 9, 40, 37
4, 135861, Note_on_c, 9, 38, 107
4, 135873, Note_on_c, 9, 44, 110
4, 135909, Note_on_c, 9, 38, 0
4, 136049, Note_on_c, 9, 40, 0
4, 136113, Note_on_c, 9, 38, 0
4, 136157, Note_on_c, 9, 38, 54
4, 136237, Note_on_c, 9, 38, 0
4, 136285, Note_on_c, 9, 44, 0
4, 136309, Note_on_c, 9, 40, 46
4, 136341, Note_on_c, 9, 38, 71
4, 136785, Note_on_c, 9, 40, 0
4, 136789, Note_on_c, 9, 40, 50
4, 136821, Note_on_c, 9, 38, 109
4, 136833, Note_on_c, 9, 44, 107
4, 136849, Note_on_c, 9, 38, 0
4, 137009, Note_on_c, 9, 40, 0
4, 137073, Note_on_c, 9, 38, 0
4, 137117, Note_on_c, 9, 38, 52
4, 137221, Note_on_c, 9, 38, 0
4, 137241, Note_on_c, 9, 44, 0
4, 137269, Note_on_c, 9, 40, 41
4, 137301, Note_on_c, 9, 38, 66
4, 137745, Note_on_c, 9, 40, 0
4, 137749, Note_on_c, 9, 40, 37
4, 137753, Note_on_c, 9, 38, 0
4, 137781, Note_on_c, 9, 38, 101
4, 137793, Note_on_c, 9, 44, 110
4, 137969, Note_on_c, 9, 40, 0
4, 138017, Note_on_c, 9, 38, 0
4, 138077, Note_on_c, 9, 39, 82
4, 138165, Note_on_c, 9, 39, 0
4, 138217, Note_on_c, 9, 44, 0
4, 138229, Note_on_c, 9, 40, 46
4, 138261, Note_on_c, 9, 38, 70
4, 138705, Note_on_c, 9, 40, 0
4, 138709, Note_on_c, 9, 40, 50
4, 138741, Note_on_c, 9, 38, 103
4, 138753, Note_on_c, 9, 44, 106
4, 138833, Note_on_c, 9, 38, 0
4, 139181, Note_on_c, 9, 44, 0
4, 139185, Note_on_c, 9, 40, 0
4, 139189, Note_on_c, 9, 40, 41
4, 139221, Note_on_c, 9, 38, 69
4, 139225, Note_on_c, 9, 38, 0
4, 139473, Note_on_c, 9, 38, 0
4, 139521, Note_on_c, 9, 39, 120
4, 139665, Note_on_c, 9, 40, 0
4, 139701, Note_on_c, 9, 38, 63
4, 139713, Note_on_c, 9, 44, 104
4, 139741, Note_on_c, 9, 39, 0
4, 139945, Note_on_c, 9, 38, 0
4, 140001, Note_on_c, 9, 35, 100
4, 140109, Note_on_c, 9, 35, 0
4, 140141, Note_on_c, 9, 44, 0
4, 140149, Note_on_c, 9, 40, 46
4, 140341, Note_on_c, 9, 39, 60
4, 140369, Note_on_c, 9, 40, 0
4, 140497, Note_on_c, 9, 35, 70
4, 140553, Note_on_c, 9, 39, 0
4, 140605, Note_on_c, 9, 35, 0
4, 140629, Note_on_c, 9, 40, 50
4, 140673, Note_on_c, 9, 44, 102
4, 141093, Note_on_c, 9, 44, 0
4, 141105, Note_on_c, 9, 40, 0
4, 141109, Note_on_c, 9, 40, 41
4, 141141, Note_on_c, 9, 38, 66
4, 141557, Note_on_c, 9, 38, 0
4, 141585, Note_on_c, 9, 40, 0
4, 141589, Note_on_c, 9, 40, 37
4, 141621, Note_on_c, 9, 38, 119
4, 141633, Note_on_c, 9, 44, 89
4, 142065, Note_on_c, 9, 40, 0
4, 142069, Note_on_c, 9, 40, 46
4, 142077, Note_on_c, 9, 44, 0
4, 142101, Note_on_c, 9, 38, 0
4, 142101, Note_on_c, 9, 38, 66
4, 142537, Note_on_c, 9, 38, 0
4, 142545, Note_on_c, 9, 40, 0
4, 142549, Note_on_c, 9, 40, 50
4, 142581, Note_on_c, 9, 38, 115
4, 142593, Note_on_c, 9, 44, 100
4, 142769, Note_on_c, 9, 40, 0
4, 142817, Note_on_c, 9, 38, 0
4, 142877, Note_on_c, 9, 38, 59
4, 142953, Note_on_c, 9, 38, 0
4, 143021, Note_on_c, 9, 44, 0
4, 143029, Note_on_c, 9, 40, 41
4, 143061, Note_on_c, 9, 38, 73
4, 143505, Note_on_c, 9, 40, 0
4, 143509, Note_on_c, 9, 40, 37
4, 143541, Note_on_c, 9, 38, 117
4, 143553, Note_on_c, 9, 44, 89
4, 143569, Note_on_c, 9, 38, 0
4, 143725, Note_on_c, 9, 44, 0
4, 143729, Note_on_c, 9, 40, 0
4, 143757, Note_on_c, 9, 38, 0
4, 143781, Note_on_c, 9, 46, 65
4, 143837, Note_on_c, 9, 38, 64
4, 143941, Note_on_c, 9, 38, 0
4, 143989, Note_on_c, 9, 40, 46
4, 144021, Note_on_c, 9, 46, 0
4, 144021, Note_on_c, 9, 38, 50
4, 144465, Note_on_c, 9, 40, 0
4, 144469, Note_on_c, 9, 40, 50
4, 144501, Note_on_c, 9, 38, 111
4, 144513, Note_on_c, 9, 44, 106
4, 144541, Note_on_c, 9, 38, 0
4, 144689, Note_on_c, 9, 40, 0
4, 144781, Note_on_c, 9, 38, 0
4, 144797, Note_on_c, 9, 38, 52
4, 144873, Note_on_c, 9, 38, 0
4, 144945, Note_on_c, 9, 44, 0
4, 144949, Note_on_c, 9, 40, 41
4, 144981, Note_on_c, 9, 38, 55
4, 145425, Note_on_c, 9, 40, 0
4, 145429, Note_on_c, 9, 40, 37
4, 145453, Note_on_c, 9, 38, 0
4, 145461, Note_on_c, 9, 38, 113
4, 145473, Note_on_c, 9, 44, 107
4, 145649, Note_on_c, 9, 40, 0
4, 145741, Note_on_c, 9, 38, 0
4, 145757, Note_on_c, 9, 38, 44
4, 145837, Note_on_c, 9, 38, 0
4, 145909, Note_on_c, 9, 40, 46
4, 145913, Note_on_c, 9, 44, 0
4, 145941, Note_on_c, 9, 38, 66
4, 146357, Note_on_c, 9, 38, 0
4, 146385, Note_on_c, 9, 40, 0
4, 146389, Note_on_c, 9, 40, 50
4, 146421, Note_on_c, 9, 38, 109
4, 146433, Note_on_c, 9, 44, 111
4, 146757, Note_on_c, 9, 35, 74
4, 146825, Note_on_c, 9, 38, 0
4, 146857, Note_on_c, 9, 44, 0
4, 146865, Note_on_c, 9, 40, 0
4, 146865, Note_on_c, 9, 35, 0
4, 146869, Note_on_c, 9, 40, 41
4, 146901, Note_on_c, 9, 38, 62
4, 146913, Note_on_c, 9, 44, 91
4, 147065, Note_on_c, 9, 44, 0
4, 147089, Note_on_c, 9, 40, 0
4, 147117, Note_on_c, 9, 38, 0
4, 147141, Note_on_c, 9, 46, 90
4, 147197, Note_on_c, 9, 39, 117
4, 147337, Note_on_c, 9, 39, 0
4, 147349, Note_on_c, 9, 40, 37
4, 147381, Note_on_c, 9, 38, 57
4, 147501, Note_on_c, 9, 46, 0
4, 147681, Note_on_c, 9, 35, 110
4, 147681, Note_on_c, 9, 39, 110
4, 147709, Note_on_c, 9, 38, 0
4, 147789, Note_on_c, 9, 35, 0
4, 147825, Note_on_c, 9, 40, 0
4, 147829, Note_on_c, 9, 40, 46
4, 147861, Note_on_c, 9, 39, 0
4, 147861, Note_on_c, 9, 38, 80
4, 148305, Note_on_c, 9, 40, 0
4, 148309, Note_on_c, 9, 40, 50
4, 148341, Note_on_c, 9, 38, 113
4, 148353, Note_on_c, 9, 44, 127
4, 148381, Note_on_c, 9, 38, 0
4, 148529, Note_on_c, 9, 40, 0
4, 148621, Note_on_c, 9, 38, 0
4, 148637, Note_on_c, 9, 38, 50
4, 148725, Note_on_c, 9, 38, 0
4, 148749, Note_on_c, 9, 44, 0
4, 148789, Note_on_c, 9, 40, 41
4, 148821, Note_on_c, 9, 38, 52
4, 149265, Note_on_c, 9, 40, 0
4, 149269, Note_on_c, 9, 40, 37
4, 149277, Note_on_c, 9, 38, 0
4, 149301, Note_on_c, 9, 38, 117
4, 149313, Note_on_c, 9, 44, 107
4, 149489, Note_on_c, 9, 40, 0
4, 149581, Note_on_c, 9, 38, 0
4, 149597, Note_on_c, 9, 38, 41
4, 149657, Note_on_c, 9, 38, 0
4, 149745, Note_on_c, 9, 44, 0
4, 149749, Note_on_c, 9, 40, 46
4, 149781, Note_on_c, 9, 38, 67
4, 150213, Note_on_c, 9, 38, 0
4, 150225, Note_on_c, 9, 40, 0
4, 150229, Note_on_c, 9, 40, 50
4, 150261, Note_on_c, 9, 38, 115
4, 150273, Note_on_c, 9, 44, 98
4, 150449, Note_on_c, 9, 40, 0
4, 150505, Note_on_c, 9, 38, 0
4, 150557, Note_on_c, 9, 38, 50
4, 150657, Note_on_c, 9, 38, 0
4, 150705, Note_on_c, 9, 44, 0
4, 150709, Note_on_c, 9, 40, 41
4, 150741, Note_on_c, 9, 38, 71
4, 151141, Note_on_c, 9, 38, 0
4, 151185, Note_on_c, 9, 40, 0
4, 151189, Note_on_c, 9, 40, 37
4, 151221, Note_on_c, 9, 38, 121
4, 151233, Note_on_c, 9, 44, 102
4, 151405, Note_on_c, 9, 38, 65
4, 151409, Note_on_c, 9, 40, 0
4, 151545, Note_on_c, 9, 38, 0
4, 151669, Note_on_c, 9, 40, 46
4, 151685, Note_on_c, 9, 44, 0
4, 151685, Note_on_c, 9, 38, 0
4, 151701, Note_on_c, 9, 38, 82
4, 152117, Note_on_c, 9, 38, 0
4, 152145, Note_on_c, 9, 40, 0
4, 152149, Note_on_c, 9, 40, 50
4, 152181, Note_on_c, 9, 38, 115
4, 152193, Note_on_c, 9, 44, 107
4, 152369, Note_on_c, 9, 40, 0
4, 152401, Note_on_c, 9, 38, 0
4, 152477, Note_on_c, 9, 38, 60
4, 152589, Note_on_c, 9, 38, 0
4, 152629, Note_on_c, 9, 40, 41
4, 152633, Note_on_c, 9, 44, 0
4, 152661, Note_on_c, 9, 38, 63
4, 153105, Note_on_c, 9, 40, 0
4, 153109, Note_on_c, 9, 40, 37
4, 153141, Note_on_c, 9, 38, 115
4, 153153, Note_on_c, 9, 44, 89
4, 153169, Note_on_c, 9, 38, 0
4, 153541, Note_on_c, 9, 38, 0
4, 153577, Note_on_c, 9, 44, 0
4, 153585, Note_on_c, 9, 40, 0
4, 153589, Note_on_c, 9, 40, 46
4, 153701, Note_on_c, 9, 38, 30
4, 153761, Note_on_c, 9, 38, 0
4, 153781, Note_on_c, 9, 38, 66
4, 153809, Note_on_c, 9, 40, 0
4, 153841, Note_on_c, 9, 38, 0
4, 153861, Note_on_c, 9, 38, 82
4, 153921, Note_on_c, 9, 38, 0
4, 153941, Note_on_c, 9, 39, 120
4, 154001, Note_on_c, 9, 39, 0
4, 154021, Note_on_c, 9, 38, 70
4, 154081, Note_on_c, 9, 38, 0
4, 154101, Note_on_c, 9, 38, 72
4, 154161, Note_on_c, 9, 38, 0
4, 154181, Note_on_c, 9, 38, 66
4, 154261, Note_on_c, 9, 38, 51
4, 154421, Note_on_c, 9, 35, 74
4, 154481, Note_on_c, 9, 35, 0
4, 154497, Note_on_c, 9, 38, 0
4, 154501, Note_on_c, 9, 38, 34
4, 154561, Note_on_c, 9, 38, 0
4, 154577, Note_on_c, 9, 38, 0
4, 154581, Note_on_c, 9, 38, 95
4, 154641, Note_on_c, 9, 38, 0
4, 154661, Note_on_c, 9, 38, 32
4, 154721, Note_on_c, 9, 38, 0
4, 154741, Note_on_c, 9, 39, 110
4, 154801, Note_on_c, 9, 39, 0
4, 154821, Note_on_c, 9, 38, 36
4, 154881, Note_on_c, 9, 38, 0
4, 154901, Note_on_c, 9, 38, 74
4, 154961, Note_on_c, 9, 38, 0
4, 154981, Note_on_c, 9, 38, 23
4, 155041, Note_on_c, 9, 38, 0
4, 155061, Note_on_c, 9, 38, 22
4, 155121, Note_on_c, 9, 38, 0
4, 155221, Note_on_c, 9, 38, 62
4, 155361, Note_on_c, 9, 39, 127
4, 155421, Note_on_c, 9, 39, 0
4, 155509, Note_on_c, 9, 40, 46
4, 155537, Note_on_c, 9, 38, 0
4, 155985, Note_on_c, 9, 40, 0
4, 155989, Note_on_c, 9, 40, 50
4, 156021, Note_on_c, 9, 38, 119
4, 156033, Note_on_c, 9, 44, 127
4, 156209, Note_on_c, 9, 40, 0
4, 156261, Note_on_c, 9, 38, 0
4, 156317, Note_on_c, 9, 38, 56
4, 156413, Note_on_c, 9, 38, 0
4, 156433, Note_on_c, 9, 44, 0
4, 156469, Note_on_c, 9, 40, 41
4, 156501, Note_on_c, 9, 38, 99
4, 156669, Note_on_c, 9, 38, 0
4, 156689, Note_on_c, 9, 40, 0
4, 156949, Note_on_c, 9, 40, 37
4, 156981, Note_on_c, 9, 46, 110
4, 156981, Note_on_c, 9, 38, 117
4, 157169, Note_on_c, 9, 40, 0
4, 157217, Note_on_c, 9, 38, 0
4, 157277, Note_on_c, 9, 38, 52
4, 157345, Note_on_c, 9, 46, 0
4, 157401, Note_on_c, 9, 38, 0
4, 157429, Note_on_c, 9, 40, 46
4, 157461, Note_on_c, 9, 38, 78
4, 157885, Note_on_c, 9, 38, 0
4, 157905, Note_on_c, 9, 40, 0
4, 157909, Note_on_c, 9, 40, 50
4, 157941, Note_on_c, 9, 38, 121
4, 157953, Note_on_c, 9, 44, 114
4, 158129, Note_on_c, 9, 40, 0
4, 158165, Note_on_c, 9, 38, 0
4, 158237, Note_on_c, 9, 38, 55
4, 158313, Note_on_c, 9, 38, 0
4, 158365, Note_on_c, 9, 44, 0
4, 158389, Note_on_c, 9, 40, 41
4, 158421, Note_on_c, 9, 38, 65
4, 158609, Note_on_c, 9, 40, 0
4, 158665, Note_on_c, 9, 38, 0
4, 158717, Note_on_c, 9, 39, 97
4, 158717, Note_on_c, 9, 38, 68
4, 158777, Note_on_c, 9, 38, 0
4, 158805, Note_on_c, 9, 39, 0
4, 158869, Note_on_c, 9, 40, 37
4, 158913, Note_on_c, 9, 44, 115
4, 159089, Note_on_c, 9, 40, 0
4, 159197, Note_on_c, 9, 38, 61
4, 159309, Note_on_c, 9, 38, 0
4, 159341, Note_on_c, 9, 44, 0
4, 159349, Note_on_c, 9, 40, 46
4, 159381, Note_on_c, 9, 38, 73
4, 159769, Note_on_c, 9, 38, 0
4, 159825, Note_on_c, 9, 40, 0
4, 159829, Note_on_c, 9, 40, 50
4, 159861, Note_on_c, 9, 38, 119
4, 159873, Note_on_c, 9, 44, 111
4, 160049, Note_on_c, 9, 40, 0
4, 160061, Note_on_c, 9, 38, 0
4, 160157, Note_on_c, 9, 38, 67
4, 160217, Note_on_c, 9, 44, 0
4, 160261, Note_on_c, 9, 38, 0
4, 160309, Note_on_c, 9, 40, 41
4, 160341, Note_on_c, 9, 38, 62
4, 160485, Note_on_c, 9, 38, 0
4, 160529, Note_on_c, 9, 40, 0
4, 160637, Note_on_c, 9, 38, 76
4, 160789, Note_on_c, 9, 40, 37
4, 160801, Note_on_c, 9, 38, 0
4, 160833, Note_on_c, 9, 44, 126
4, 161245, Note_on_c, 9, 44, 0
4, 161265, Note_on_c, 9, 40, 0
4, 161269, Note_on_c, 9, 40, 46
4, 161301, Note_on_c, 9, 38, 80
4, 161717, Note_on_c, 9, 38, 0
4, 161745, Note_on_c, 9, 40, 0
4, 161749, Note_on_c, 9, 40, 50
4, 161781, Note_on_c, 9, 38, 121
4, 161793, Note_on_c, 9, 44, 114
4, 162213, Note_on_c, 9, 44, 0
4, 162225, Note_on_c, 9, 40, 0
4, 162229, Note_on_c, 9, 40, 41
4, 162261, Note_on_c, 9, 38, 43
4, 162297, Note_on_c, 9, 38, 0
4, 162705, Note_on_c, 9, 40, 0
4, 162709, Note_on_c, 9, 40, 37
4, 162741, Note_on_c, 9, 38, 121
4, 162753, Note_on_c, 9, 44, 111
4, 162857, Note_on_c, 9, 38, 0
4, 163149, Note_on_c, 9, 38, 0
4, 163161, Note_on_c, 9, 44, 0
4, 163185, Note_on_c, 9, 40, 0
4, 163189, Note_on_c, 9, 40, 46
4, 163221, Note_on_c, 9, 35, 110
4, 163221, Note_on_c, 9, 38, 41
4, 163665, Note_on_c, 9, 40, 0
4, 163669, Note_on_c, 9, 40, 50
4, 163701, Note_on_c, 9, 38, 111
4, 163713, Note_on_c, 9, 44, 119
4, 163737, Note_on_c, 9, 35, 0
4, 163781, Note_on_c, 9, 38, 0
4, 163889, Note_on_c, 9, 38, 0
4, 163889, Note_on_c, 9, 40, 0
4, 163997, Note_on_c, 9, 38, 95
4, 164077, Note_on_c, 9, 38, 0
4, 164137, Note_on_c, 9, 44, 0
4, 164149, Note_on_c, 9, 40, 41
4, 164181, Note_on_c, 9, 38, 81
4, 164577, Note_on_c, 9, 38, 0
4, 164625, Note_on_c, 9, 40, 0
4, 164629, Note_on_c, 9, 40, 37
4, 164661, Note_on_c, 9, 38, 105
4, 164673, Note_on_c, 9, 44, 123
4, 164825, Note_on_c, 9, 38, 0
4, 164849, Note_on_c, 9, 40, 0
4, 164957, Note_on_c, 9, 38, 69
4, 165033, Note_on_c, 9, 38, 0
4, 165085, Note_on_c, 9, 44, 0
4, 165109, Note_on_c, 9, 40, 46
4, 165141, Note_on_c, 9, 38, 69
4, 165513, Note_on_c, 9, 38, 0
4, 165585, Note_on_c, 9, 40, 0
4, 165589, Note_on_c, 9, 40, 50
4, 165621, Note_on_c, 9, 38, 101
4, 165633, Note_on_c, 9, 44, 111
4, 165809, Note_on_c, 9, 38, 0
4, 165809, Note_on_c, 9, 40, 0
4, 165917, Note_on_c, 9, 38, 105
4, 166021, Note_on_c, 9, 38, 0
4, 166029, Note_on_c, 9, 44, 0
4, 166069, Note_on_c, 9, 40, 41
4, 166101, Note_on_c, 9, 38, 87
4, 166489, Note_on_c, 9, 38, 0
4, 166545, Note_on_c, 9, 40, 0
4, 166549, Note_on_c, 9, 40, 37
4, 166581, Note_on_c, 9, 38, 97
4, 166593, Note_on_c, 9, 44, 114
4, 166761, Note_on_c, 9, 38, 0
4, 166769, Note_on_c, 9, 40, 0
4, 166877, Note_on_c, 9, 38, 105
4, 166981, Note_on_c, 9, 44, 0
4, 166989, Note_on_c, 9, 38, 0
4, 167029, Note_on_c, 9, 40, 46
4, 167061, Note_on_c, 9, 38, 61
4, 167505, Note_on_c, 9, 40, 0
4, 167509, Note_on_c, 9, 40, 50
4, 167517, Note_on_c, 9, 38, 0
4, 167541, Note_on_c, 9, 38, 121
4, 167553, Note_on_c, 9, 44, 120
4, 167957, Note_on_c, 9, 44, 0
4, 167985, Note_on_c, 9, 40, 0
4, 167989, Note_on_c, 9, 40, 41
4, 168021, Note_on_c, 9, 38, 71
4, 168077, Note_on_c, 9, 38, 0
4, 168209, Note_on_c, 9, 40, 0
4, 168221, Note_on_c, 9, 38, 0
4, 168317, Note_on_c, 9, 38, 105
4, 168421, Note_on_c, 9, 38, 0
4, 168469, Note_on_c, 9, 40, 37
4, 168513, Note_on_c, 9, 44, 127
4, 168901, Note_on_c, 9, 44, 0
4, 168945, Note_on_c, 9, 40, 0
4, 168949, Note_on_c, 9, 40, 46
4, 168981, Note_on_c, 9, 38, 73
4, 169169, Note_on_c, 9, 40, 0
4, 169177, Note_on_c, 9, 38, 0
4, 169277, Note_on_c, 9, 39, 117
4, 169381, Note_on_c, 9, 39, 0
4, 169429, Note_on_c, 9, 40, 50
4, 169461, Note_on_c, 9, 38, 50
4, 169473, Note_on_c, 9, 44, 96
4, 169905, Note_on_c, 9, 40, 0
4, 169909, Note_on_c, 9, 40, 41
4, 169941, Note_on_c, 9, 38, 85
4, 169977, Note_on_c, 9, 38, 0
4, 170057, Note_on_c, 9, 44, 0
4, 170097, Note_on_c, 9, 38, 0
4, 170129, Note_on_c, 9, 40, 0
4, 170237, Note_on_c, 9, 39, 115
4, 170341, Note_on_c, 9, 39, 0
4, 170389, Note_on_c, 9, 40, 37
4, 170421, Note_on_c, 9, 46, 85
4, 170609, Note_on_c, 9, 40, 0
4, 170717, Note_on_c, 9, 38, 92
4, 170785, Note_on_c, 9, 46, 0
4, 170797, Note_on_c, 9, 38, 0
4, 170869, Note_on_c, 9, 40, 46
4, 170901, Note_on_c, 9, 35, 110
4, 170901, Note_on_c, 9, 53, 80
4, 170913, Note_on_c, 9, 44, 76
4, 171257, Note_on_c, 9, 53, 0
4, 171345, Note_on_c, 9, 40, 0
4, 171349, Note_on_c, 9, 40, 50
4, 171381, Note_on_c, 9, 38, 107
4, 171393, Note_on_c, 9, 44, 127
4, 171417, Note_on_c, 9, 35, 0
4, 171477, Note_on_c, 9, 44, 0
4, 171777, Note_on_c, 9, 44, 0
4, 171825, Note_on_c, 9, 40, 0
4, 171829, Note_on_c, 9, 40, 41
4, 171861, Note_on_c, 9, 38, 67
4, 171941, Note_on_c, 9, 38, 0
4, 172301, Note_on_c, 9, 38, 0
4, 172305, Note_on_c, 9, 40, 0
4, 172309, Note_on_c, 9, 40, 37
4, 172341, Note_on_c, 9, 38, 113
4, 172353, Note_on_c, 9, 44, 127
4, 172529, Note_on_c, 9, 40, 0
4, 172569, Note_on_c, 9, 38, 0
4, 172637, Note_on_c, 9, 38, 86
4, 172737, Note_on_c, 9, 38, 0
4, 172773, Note_on_c, 9, 44, 0
4, 172789, Note_on_c, 9, 40, 46
4, 172821, Note_on_c, 9, 38, 83
4, 173265, Note_on_c, 9, 40, 0
4, 173269, Note_on_c, 9, 40, 50
4, 173301, Note_on_c, 9, 38, 113
4, 173313, Note_on_c, 9, 44, 102
4, 173321, Note_on_c, 9, 38, 0
4, 173741, Note_on_c, 9, 44, 0
4, 173745, Note_on_c, 9, 40, 0
4, 173749, Note_on_c, 9, 40, 41
4, 173781, Note_on_c, 9, 38, 63
4, 173905, Note_on_c, 9, 38, 0
4, 174081, Note_on_c, 9, 39, 110
4, 174189, Note_on_c, 9, 39, 0
4, 174189, Note_on_c, 9, 38, 0
4, 174225, Note_on_c, 9, 40, 0
4, 174229, Note_on_c, 9, 40, 37
4, 174261, Note_on_c, 9, 38, 113
4, 174273, Note_on_c, 9, 44, 126
4, 174449, Note_on_c, 9, 40, 0
4, 174481, Note_on_c, 9, 38, 0
4, 174557, Note_on_c, 9, 38, 77
4, 174645, Note_on_c, 9, 38, 0
4, 174685, Note_on_c, 9, 44, 0
4, 174709, Note_on_c, 9, 40, 46
4, 174741, Note_on_c, 9, 38, 69
4, 175105, Note_on_c, 9, 38, 0
4, 175185, Note_on_c, 9, 40, 0
4, 175189, Note_on_c, 9, 40, 50
4, 175221, Note_on_c, 9, 38, 111
4, 175233, Note_on_c, 9, 44, 113
4, 175637, Note_on_c, 9, 38, 0
4, 175653, Note_on_c, 9, 44, 0
4, 175665, Note_on_c, 9, 40, 0
4, 175669, Note_on_c, 9, 40, 41
4, 175701, Note_on_c, 9, 38, 71
4, 176109, Note_on_c, 9, 38, 0
4, 176145, Note_on_c, 9, 40, 0
4, 176149, Note_on_c, 9, 40, 37
4, 176181, Note_on_c, 9, 38, 95
4, 176193, Note_on_c, 9, 44, 113
4, 176369, Note_on_c, 9, 40, 0
4, 176417, Note_on_c, 9, 38, 0
4, 176477, Note_on_c, 9, 38, 107
4, 176565, Note_on_c, 9, 38, 0
4, 176613, Note_on_c, 9, 44, 0
4, 176629, Note_on_c, 9, 40, 46
4, 176661, Note_on_c, 9, 38, 93
4, 177073, Note_on_c, 9, 38, 0
4, 177105, Note_on_c, 9, 40, 0
4, 177109, Note_on_c, 9, 40, 50
4, 177141, Note_on_c, 9, 38, 99
4, 177153, Note_on_c, 9, 44, 118
4, 177317, Note_on_c, 9, 38, 0
4, 177329, Note_on_c, 9, 40, 0
4, 177437, Note_on_c, 9, 38, 89
4, 177513, Note_on_c, 9, 38, 0
4, 177561, Note_on_c, 9, 44, 0
4, 177589, Note_on_c, 9, 40, 41
4, 177621, Note_on_c, 9, 38, 73
4, 178065, Note_on_c, 9, 40, 0
4, 178069, Note_on_c, 9, 40, 37
4, 178101, Note_on_c, 9, 38, 97
4, 178105, Note_on_c, 9, 38, 0
4, 178113, Note_on_c, 9, 44, 119
4, 178265, Note_on_c, 9, 44, 0
4, 178289, Note_on_c, 9, 40, 0
4, 178305, Note_on_c, 9, 38, 0
4, 178397, Note_on_c, 9, 39, 120
4, 178493, Note_on_c, 9, 39, 0
4, 178549, Note_on_c, 9, 40, 46
4, 178581, Note_on_c, 9, 38, 45
4, 178945, Note_on_c, 9, 38, 0
4, 179025, Note_on_c, 9, 40, 0
4, 179029, Note_on_c, 9, 40, 50
4, 179061, Note_on_c, 9, 38, 107
4, 179073, Note_on_c, 9, 44, 123
4, 179441, Note_on_c, 9, 44, 0
4, 179485, Note_on_c, 9, 38, 0
4, 179505, Note_on_c, 9, 40, 0
4, 179509, Note_on_c, 9, 40, 41
4, 179541, Note_on_c, 9, 38, 64
4, 179985, Note_on_c, 9, 40, 0
4, 179989, Note_on_c, 9, 40, 37
4, 180021, Note_on_c, 9, 38, 111
4, 180033, Note_on_c, 9, 38, 0
4, 180033, Note_on_c, 9, 44, 118
4, 180209, Note_on_c, 9, 40, 0
4, 180241, Note_on_c, 9, 38, 0
4, 180317, Note_on_c, 9, 38, 68
4, 180417, Note_on_c, 9, 38, 0
4, 180421, Note_on_c, 9, 44, 0
4, 180469, Note_on_c, 9, 40, 46
4, 180501, Note_on_c, 9, 38, 71
4, 180937, Note_on_c, 9, 38, 0
4, 180945, Note_on_c, 9, 40, 0
4, 180949, Note_on_c, 9, 40, 50
4, 180981, Note_on_c, 9, 38, 117
4, 180993, Note_on_c, 9, 44, 115
4, 181405, Note_on_c, 9, 44, 0
4, 181425, Note_on_c, 9, 40, 0
4, 181429, Note_on_c, 9, 40, 41
4, 181461, Note_on_c, 9, 38, 63
4, 181477, Note_on_c, 9, 38, 0
4, 181905, Note_on_c, 9, 40, 0
4, 181909, Note_on_c, 9, 40, 37
4, 181941, Note_on_c, 9, 38, 107
4, 181945, Note_on_c, 9, 38, 0
4, 181953, Note_on_c, 9, 44, 127
4, 182129, Note_on_c, 9, 40, 0
4, 182161, Note_on_c, 9, 38, 0
4, 182237, Note_on_c, 9, 38, 87
4, 182325, Note_on_c, 9, 38, 0
4, 182357, Note_on_c, 9, 44, 0
4, 182389, Note_on_c, 9, 40, 46
4, 182421, Note_on_c, 9, 38, 75
4, 182721, Note_on_c, 9, 39, 110
4, 182801, Note_on_c, 9, 38, 0
4, 182829, Note_on_c, 9, 39, 0
4, 182865, Note_on_c, 9, 40, 0
4, 182869, Note_on_c, 9, 40, 50
4, 182901, Note_on_c, 9, 38, 111
4, 182913, Note_on_c, 9, 44, 123
4, 183309, Note_on_c, 9, 44, 0
4, 183313, Note_on_c, 9, 38, 0
4, 183345, Note_on_c, 9, 40, 0
4, 183349, Note_on_c, 9, 40, 41
4, 183381, Note_on_c, 9, 35, 110
4, 183745, Note_on_c, 9, 35, 0
4, 183825, Note_on_c, 9, 40, 0
4, 183829, Note_on_c, 9, 40, 37
4, 183861, Note_on_c, 9, 38, 119
4, 183873, Note_on_c, 9, 44, 115
4, 184049, Note_on_c, 9, 40, 0
4, 184085, Note_on_c, 9, 38, 0
4, 184157, Note_on_c, 9, 38, 68
4, 184161, Note_on_c, 9, 35, 90
4, 184209, Note_on_c, 9, 38, 0
4, 184261, Note_on_c, 9, 44, 0
4, 184269, Note_on_c, 9, 35, 0
4, 184309, Note_on_c, 9, 40, 46
4, 184785, Note_on_c, 9, 40, 0
4, 184789, Note_on_c, 9, 40, 50
4, 184833, Note_on_c, 9, 44, 127
4, 185121, Note_on_c, 9, 39, 110
4, 185229, Note_on_c, 9, 39, 0
4, 185233, Note_on_c, 9, 44, 0
4, 185265, Note_on_c, 9, 40, 0
4, 185269, Note_on_c, 9, 40, 41
4, 185601, Note_on_c, 9, 39, 110
4, 185709, Note_on_c, 9, 39, 0
4, 185745, Note_on_c, 9, 40, 0
4, 185749, Note_on_c, 9, 40, 37
4, 185793, Note_on_c, 9, 44, 123
4, 185921, Note_on_c, 9, 44, 0
4, 186225, Note_on_c, 9, 40, 0
4, 186262, Note_on_c, 9, 40, 54
4, 186272, Note_on_c, 9, 38, 54
4, 186272, Note_on_c, 9, 42, 10
4, 186370, Note_on_c, 9, 40, 0
4, 186380, Note_on_c, 9, 42, 0
4, 186380, Note_on_c, 9, 38, 0
4, 186720, Note_on_c, 9, 40, 50
4, 186752, Note_on_c, 9, 38, 103
4, 186764, Note_on_c, 9, 44, 126
4, 186940, Note_on_c, 9, 44, 0
4, 187012, Note_on_c, 9, 38, 0
4, 187048, Note_on_c, 9, 38, 49
4, 187148, Note_on_c, 9, 38, 0
4, 187196, Note_on_c, 9, 40, 0
4, 187230, Note_on_c, 9, 40, 41
4, 187232, Note_on_c, 9, 38, 67
4, 187472, Note_on_c, 9, 38, 0
4, 187680, Note_on_c, 9, 40, 37
4, 187706, Note_on_c, 9, 40, 0
4, 187712, Note_on_c, 9, 38, 107
4, 187724, Note_on_c, 9, 44, 105
4, 187912, Note_on_c, 9, 44, 0
4, 187988, Note_on_c, 9, 38, 0
4, 188008, Note_on_c, 9, 38, 49
4, 188060, Note_on_c, 9, 38, 0
4, 188156, Note_on_c, 9, 40, 0
4, 188160, Note_on_c, 9, 40, 46
4, 188192, Note_on_c, 9, 38, 72
4, 188420, Note_on_c, 9, 38, 0
4, 188636, Note_on_c, 9, 40, 0
4, 188640, Note_on_c, 9, 40, 50
4, 188672, Note_on_c, 9, 38, 105
4, 188684, Note_on_c, 9, 44, 107
4, 188856, Note_on_c, 9, 44, 0
4, 188936, Note_on_c, 9, 38, 0
4, 188968, Note_on_c, 9, 38, 45
4, 189032, Note_on_c, 9, 38, 0
4, 189116, Note_on_c, 9, 40, 0
4, 189120, Note_on_c, 9, 40, 41
4, 189152, Note_on_c, 9, 38, 72
4, 189372, Note_on_c, 9, 38, 0
4, 189452, Note_on_c, 9, 39, 110
4, 189560, Note_on_c, 9, 39, 0
4, 189596, Note_on_c, 9, 40, 0
4, 189600, Note_on_c, 9, 40, 37
4, 189632, Note_on_c, 9, 38, 109
4, 189644, Note_on_c, 9, 44, 114
4, 189848, Note_on_c, 9, 38, 0
4, 189852, Note_on_c, 9, 44, 0
4, 189928, Note_on_c, 9, 38, 63
4, 190024, Note_on_c, 9, 38, 0
4, 190076, Note_on_c, 9, 40, 0
4, 190080, Note_on_c, 9, 40, 46
4, 190112, Note_on_c, 9, 38, 71
4, 190268, Note_on_c, 9, 38, 0
4, 190556, Note_on_c, 9, 40, 0
4, 190560, Note_on_c, 9, 40, 50
4, 190592, Note_on_c, 9, 38, 113
4, 190604, Note_on_c, 9, 44, 113
4, 190796, Note_on_c, 9, 44, 0
4, 191000, Note_on_c, 9, 38, 0
4, 191036, Note_on_c, 9, 40, 0
4, 191040, Note_on_c, 9, 40, 41
4, 191072, Note_on_c, 9, 38, 57
4, 191216, Note_on_c, 9, 38, 0
4, 191516, Note_on_c, 9, 40, 0
4, 191520, Note_on_c, 9, 40, 37
4, 191552, Note_on_c, 9, 38, 109
4, 191564, Note_on_c, 9, 44, 110
4, 191740, Note_on_c, 9, 44, 0
4, 191840, Note_on_c, 9, 38, 0
4, 191848, Note_on_c, 9, 38, 56
4, 191908, Note_on_c, 9, 38, 0
4, 191996, Note_on_c, 9, 40, 0
4, 192000, Note_on_c, 9, 40, 46
4, 192032, Note_on_c, 9, 38, 55
4, 192472, Note_on_c, 9, 38, 0
4, 192476, Note_on_c, 9, 40, 0
4, 192480, Note_on_c, 9, 40, 50
4, 192512, Note_on_c, 9, 38, 97
4, 192524, Note_on_c, 9, 44, 115
4, 192700, Note_on_c, 9, 40, 0
4, 192736, Note_on_c, 9, 38, 0
4, 192808, Note_on_c, 9, 39, 113
4, 192928, Note_on_c, 9, 39, 0
4, 192952, Note_on_c, 9, 44, 0
4, 192960, Note_on_c, 9, 40, 41
4, 192992, Note_on_c, 9, 38, 81
4, 193436, Note_on_c, 9, 40, 0
4, 193440, Note_on_c, 9, 40, 37
4, 193472, Note_on_c, 9, 38, 103
4, 193484, Note_on_c, 9, 44, 115
4, 193552, Note_on_c, 9, 38, 0
4, 193660, Note_on_c, 9, 40, 0
4, 193708, Note_on_c, 9, 38, 0
4, 193768, Note_on_c, 9, 38, 55
4, 193888, Note_on_c, 9, 44, 0
4, 193920, Note_on_c, 9, 40, 46
4, 193952, Note_on_c, 9, 38, 0
4, 193952, Note_on_c, 9, 38, 63
4, 194396, Note_on_c, 9, 40, 0
4, 194400, Note_on_c, 9, 40, 50
4, 194432, Note_on_c, 9, 38, 117
4, 194444, Note_on_c, 9, 44, 114
4, 194452, Note_on_c, 9, 38, 0
4, 194620, Note_on_c, 9, 40, 0
4, 194688, Note_on_c, 9, 38, 0
4, 194728, Note_on_c, 9, 38, 50
4, 194816, Note_on_c, 9, 38, 0
4, 194864, Note_on_c, 9, 44, 0
4, 194880, Note_on_c, 9, 40, 41
4, 194912, Note_on_c, 9, 38, 62
4, 195356, Note_on_c, 9, 40, 0
4, 195360, Note_on_c, 9, 40, 37
4, 195392, Note_on_c, 9, 38, 105
4, 195404, Note_on_c, 9, 44, 110
4, 195456, Note_on_c, 9, 38, 0
4, 195580, Note_on_c, 9, 40, 0
4, 195664, Note_on_c, 9, 38, 0
4, 195688, Note_on_c, 9, 38, 36
4, 195812, Note_on_c, 9, 44, 0
4, 195840, Note_on_c, 9, 40, 46
4, 195872, Note_on_c, 9, 38, 0
4, 195872, Note_on_c, 9, 38, 69
4, 196316, Note_on_c, 9, 40, 0
4, 196320, Note_on_c, 9, 40, 50
4, 196352, Note_on_c, 9, 38, 93
4, 196364, Note_on_c, 9, 38, 0
4, 196364, Note_on_c, 9, 44, 110
4, 196540, Note_on_c, 9, 40, 0
4, 196580, Note_on_c, 9, 38, 0
4, 196648, Note_on_c, 9, 38, 63
4, 196728, Note_on_c, 9, 38, 0
4, 196784, Note_on_c, 9, 44, 0
4, 196800, Note_on_c, 9, 40, 41
4, 196832, Note_on_c, 9, 38, 64
4, 197276, Note_on_c, 9, 40, 0
4, 197280, Note_on_c, 9, 40, 37
4, 197312, Note_on_c, 9, 38, 107
4, 197324, Note_on_c, 9, 44, 110
4, 197360, Note_on_c, 9, 38, 0
4, 197500, Note_on_c, 9, 40, 0
4, 197564, Note_on_c, 9, 38, 0
4, 197608, Note_on_c, 9, 38, 54
4, 197688, Note_on_c, 9, 38, 0
4, 197736, Note_on_c, 9, 44, 0
4, 197760, Note_on_c, 9, 40, 46
4, 197792, Note_on_c, 9, 38, 71
4, 198236, Note_on_c, 9, 40, 0
4, 198240, Note_on_c, 9, 40, 50
4, 198272, Note_on_c, 9, 38, 109
4, 198284, Note_on_c, 9, 44, 107
4, 198300, Note_on_c, 9, 38, 0
4, 198460, Note_on_c, 9, 40, 0
4, 198524, Note_on_c, 9, 38, 0
4, 198568, Note_on_c, 9, 38, 52
4, 198672, Note_on_c, 9, 38, 0
4, 198692, Note_on_c, 9, 44, 0
4, 198720, Note_on_c, 9, 40, 41
4, 198752, Note_on_c, 9, 38, 66
4, 199196, Note_on_c, 9, 40, 0
4, 199200, Note_on_c, 9, 40, 37
4, 199204, Note_on_c, 9, 38, 0
4, 199232, Note_on_c, 9, 38, 101
4, 199244, Note_on_c, 9, 44, 110
4, 199420, Note_on_c, 9, 40, 0
4, 199468, Note_on_c, 9, 38, 0
4, 199528, Note_on_c, 9, 39, 82
4, 199616, Note_on_c, 9, 39, 0
4, 199668, Note_on_c, 9, 44, 0
4, 199680, Note_on_c, 9, 40, 46
4, 199712, Note_on_c, 9, 38, 70
4, 200156, Note_on_c, 9, 40, 0
4, 200160, Note_on_c, 9, 40, 50
4, 200192, Note_on_c, 9, 38, 103
4, 200204, Note_on_c, 9, 44, 106
4, 200284, Note_on_c, 9, 38, 0
4, 200632, Note_on_c, 9, 44, 0
4, 200636, Note_on_c, 9, 40, 0
4, 200640, Note_on_c, 9, 40, 41
4, 200672, Note_on_c, 9, 38, 69
4, 200676, Note_on_c, 9, 38, 0
4, 200924, Note_on_c, 9, 38, 0
4, 200972, Note_on_c, 9, 39, 120
4, 201116, Note_on_c, 9, 40, 0
4, 201152, Note_on_c, 9, 38, 63
4, 201164, Note_on_c, 9, 44, 104
4, 201192, Note_on_c, 9, 39, 0
4, 201396, Note_on_c, 9, 38, 0
4, 201452, Note_on_c, 9, 35, 100
4, 201560, Note_on_c, 9, 35, 0
4, 201592, Note_on_c, 9, 44, 0
4, 201600, Note_on_c, 9, 40, 46
4, 201792, Note_on_c, 9, 39, 60
4, 201820, Note_on_c, 9, 40, 0
4, 201948, Note_on_c, 9, 35, 70
4, 202004, Note_on_c, 9, 39, 0
4, 202056, Note_on_c, 9, 35, 0
4, 202080, Note_on_c, 9, 40, 50
4, 202124, Note_on_c, 9, 44, 102
4, 202544, Note_on_c, 9, 44, 0
4, 202556, Note_on_c, 9, 40, 0
4, 202560, Note_on_c, 9, 40, 41
4, 202592, Note_on_c, 9, 38, 66
4, 203008, Note_on_c, 9, 38, 0
4, 203036, Note_on_c, 9, 40, 0
4, 203040, Note_on_c, 9, 40, 37
4, 203072, Note_on_c, 9, 38, 119
4, 203084, Note_on_c, 9, 44, 89
4, 203516, Note_on_c, 9, 40, 0
4, 203520, Note_on_c, 9, 40, 46
4, 203528, Note_on_c, 9, 44, 0
4, 203552, Note_on_c, 9, 38, 0
4, 203552, Note_on_c, 9, 38, 66
4, 203988, Note_on_c, 9, 38, 0
4, 203996, Note_on_c, 9, 40, 0
4, 204000, Note_on_c, 9, 40, 50
4, 204032, Note_on_c, 9, 38, 115
4, 204044, Note_on_c, 9, 44, 100
4, 204220, Note_on_c, 9, 40, 0
4, 204268, Note_on_c, 9, 38, 0
4, 204328, Note_on_c, 9, 38, 59
4, 204404, Note_on_c, 9, 38, 0
4, 204472, Note_on_c, 9, 44, 0
4, 204480, Note_on_c, 9, 40, 41
4, 204512, Note_on_c, 9, 38, 73
4, 204956, Note_on_c, 9, 40, 0
4, 204960, Note_on_c, 9, 40, 37
4, 204992, Note_on_c, 9, 38, 117
4, 205004, Note_on_c, 9, 44, 89
4, 205020, Note_on_c, 9, 38, 0
4, 205176, Note_on_c, 9, 44, 0
4, 205180, Note_on_c, 9, 40, 0
4, 205208, Note_on_c, 9, 38, 0
4, 205232, Note_on_c, 9, 46, 65
4, 205288, Note_on_c, 9, 38, 64
4, 205392, Note_on_c, 9, 38, 0
4, 205440, Note_on_c, 9, 40, 46
4, 205472, Note_on_c, 9, 46, 0
4, 205472, Note_on_c, 9, 38, 50
4, 205916, Note_on_c, 9, 40, 0
4, 205920, Note_on_c, 9, 40, 50
4, 205952, Note_on_c, 9, 38, 111
4, 205964, Note_on_c, 9, 44, 106
4, 205992, Note_on_c, 9, 38, 0
4, 206140, Note_on_c, 9, 40, 0
4, 206232, Note_on_c, 9, 38, 0
4, 206248, Note_on_c, 9, 38, 52
4, 206324, Note_on_c, 9, 38, 0
4, 206396, Note_on_c, 9, 44, 0
4, 206400, Note_on_c, 9, 40, 41
4, 206432, Note_on_c, 9, 38, 55
4, 206876, Note_on_c, 9, 40, 0
4, 206880, Note_on_c, 9, 40, 37
4, 206904, Note_on_c, 9, 38, 0
4, 206912, Note_on_c, 9, 38, 113
4, 206924, Note_on_c, 9, 44, 107
4, 207100, Note_on_c, 9, 40, 0
4, 207192, Note_on_c, 9, 38, 0
4, 207208, Note_on_c, 9, 38, 44
4, 207288, Note_on_c, 9, 38, 0
4, 207360, Note_on_c, 9, 40, 46
4, 207364, Note_on_c, 9, 44, 0
4, 207392, Note_on_c, 9, 38, 66
4, 207808, Note_on_c, 9, 38, 0
4, 207836, Note_on_c, 9, 40, 0
4, 207840, Note_on_c, 9, 40, 50
4, 207872, Note_on_c, 9, 38, 109
4, 207884, Note_on_c, 9, 44, 111
4, 208208, Note_on_c, 9, 35, 74
4, 208276, Note_on_c, 9, 38, 0
4, 208308, Note_on_c, 9, 44, 0
4, 208316, Note_on_c, 9, 40, 0
4, 208316, Note_on_c, 9, 35, 0
4, 208320, Note_on_c, 9, 40, 41
4, 208352, Note_on_c, 9, 38, 62
4, 208364, Note_on_c, 9, 44, 91
4, 208516, Note_on_c, 9, 44, 0
4, 208540, Note_on_c, 9, 40, 0
4, 208568, Note_on_c, 9, 38, 0
4, 208592, Note_on_c, 9, 46, 90
4, 208648, Note_on_c, 9, 39, 117
4, 208788, Note_on_c, 9, 39, 0
4, 208800, Note_on_c, 9, 40, 37
4, 208832, Note_on_c, 9, 38, 57
4, 208952, Note_on_c, 9, 46, 0
4, 209132, Note_on_c, 9, 35, 110
4, 209132, Note_on_c, 9, 39, 110
4, 209160, Note_on_c, 9, 38, 0
4, 209240, Note_on_c, 9, 35, 0
4, 209276, Note_on_c, 9, 40, 0
4, 209280, Note_on_c, 9, 40, 46
4, 209312, Note_on_c, 9, 39, 0
4, 209312, Note_on_c, 9, 38, 80
4, 209756, Note_on_c, 9, 40, 0
4, 209760, Note_on_c, 9, 40, 50
4, 209792, Note_on_c, 9, 38, 113
4, 209804, Note_on_c, 9, 44, 127
4, 209832, Note_on_c, 9, 38, 0
4, 209980, Note_on_c, 9, 40, 0
4, 210072, Note_on_c, 9, 38, 0
4, 210088, Note_on_c, 9, 38, 50
4, 210176, Note_on_c, 9, 38, 0
4, 210200, Note_on_c, 9, 44, 0
4, 210240, Note_on_c, 9, 40, 41
4, 210272, Note_on_c, 9, 38, 52
4, 210716, Note_on_c, 9, 40, 0
4, 210720, Note_on_c, 9, 40, 37
4, 210728, Note_on_c, 9, 38, 0
4, 210752, Note_on_c, 9, 38, 117
4, 210764, Note_on_c, 9, 44, 107
4, 210940, Note_on_c, 9, 40, 0
4, 211032, Note_on_c, 9, 38, 0
4, 211048, Note_on_c, 9, 38, 41
4, 211108, Note_on_c, 9, 38, 0
4, 211196, Note_on_c, 9, 44, 0
4, 211200, Note_on_c, 9, 40, 46
4, 211232, Note_on_c, 9, 38, 67
4, 211664, Note_on_c, 9, 38, 0
4, 211676, Note_on_c, 9, 40, 0
4, 211680, Note_on_c, 9, 40, 50
4, 211712, Note_on_c, 9, 38, 115
4, 211724, Note_on_c, 9, 44, 98
4, 211900, Note_on_c, 9, 40, 0
4, 211956, Note_on_c, 9, 38, 0
4, 212008, Note_on_c, 9, 38, 50
4, 212108, Note_on_c, 9, 38, 0
4, 212156, Note_on_c, 9, 44, 0
4, 212160, Note_on_c, 9, 40, 41
4, 212192, Note_on_c, 9, 38, 71
4, 212592, Note_on_c, 9, 38, 0
4, 212636, Note_on_c, 9, 40, 0
4, 212640, Note_on_c, 9, 40, 37
4, 212672, Note_on_c, 9, 38, 121
4, 212684, Note_on_c, 9, 44, 102
4, 212856, Note_on_c, 9, 38, 65
4, 212860, Note_on_c, 9, 40, 0
4, 212996, Note_on_c, 9, 38, 0
4, 213120, Note_on_c, 9, 40, 46
4, 213136, Note_on_c, 9, 44, 0
4, 213136, Note_on_c, 9, 38, 0
4, 213152, Note_on_c, 9, 38, 82
4, 213568, Note_on_c, 9, 38, 0
4, 213596, Note_on_c, 9, 40, 0
4, 213600, Note_on_c, 9, 40, 50
4, 213632, Note_on_c, 9, 38, 115
4, 213644, Note_on_c, 9, 44, 107
4, 213820, Note_on_c, 9, 40, 0
4, 213852, Note_on_c, 9, 38, 0
4, 213928, Note_on_c, 9, 38, 60
4, 214040, Note_on_c, 9, 38, 0
4, 214080, Note_on_c, 9, 40, 41
4, 214084, Note_on_c, 9, 44, 0
4, 214112, Note_on_c, 9, 38, 63
4, 214556, Note_on_c, 9, 40, 0
4, 214560, Note_on_c, 9, 40, 37
4, 214592, Note_on_c, 9, 38, 115
4, 214604, Note_on_c, 9, 44, 89
4, 214620, Note_on_c, 9, 38, 0
4, 214992, Note_on_c, 9, 38, 0
4, 215028, Note_on_c, 9, 44, 0
4, 215036, Note_on_c, 9, 40, 0
4, 215040, Note_on_c, 9, 40, 46
4, 215152, Note_on_c, 9, 38, 30
4, 215212, Note_on_c, 9, 38, 0
4, 215232, Note_on_c, 9, 38, 66
4, 215260, Note_on_c, 9, 40, 0
4, 215292, Note_on_c, 9, 38, 0
4, 215312, Note_on_c, 9, 38, 82
4, 215372, Note_on_c, 9, 38, 0
4, 215392, Note_on_c, 9, 39, 120
4, 215452, Note_on_c, 9, 39, 0
4, 215472, Note_on_c, 9, 38, 70
4, 215532, Note_on_c, 9, 38, 0
4, 215552, Note_on_c, 9, 38, 72
4, 215612, Note_on_c, 9, 38, 0
4, 215632, Note_on_c, 9, 38, 66
4, 215712, Note_on_c, 9, 38, 51
4, 215872, Note_on_c, 9, 35, 74
4, 215932, Note_on_c, 9, 35, 0
4, 215948, Note_on_c, 9, 38, 0
4, 215952, Note_on_c, 9, 38, 34
4, 216012, Note_on_c, 9, 38, 0
4, 216028, Note_on_c, 9, 38, 0
4, 216032, Note_on_c, 9, 38, 95
4, 216092, Note_on_c, 9, 38, 0
4, 216112, Note_on_c, 9, 38, 32
4, 216172, Note_on_c, 9, 38, 0
4, 216192, Note_on_c, 9, 39, 110
4, 216252, Note_on_c, 9, 39, 0
4, 216272, Note_on_c, 9, 38, 36
4, 216332, Note_on_c, 9, 38, 0
4, 216352, Note_on_c, 9, 38, 74
4, 216412, Note_on_c, 9, 38, 0
4, 216432, Note_on_c, 9, 38, 23
4, 216492, Note_on_c, 9, 38, 0
4, 216512, Note_on_c, 9, 38, 22
4, 216572, Note_on_c, 9, 38, 0
4, 216672, Note_on_c, 9, 38, 62
4, 216812, Note_on_c, 9, 39, 127
4, 216872, Note_on_c, 9, 39, 0
4, 216960, Note_on_c, 9, 40, 46
4, 216988, Note_on_c, 9, 38, 0
4, 217436, Note_on_c, 9, 40, 0
4, 217440, Note_on_c, 9, 40, 50
4, 217472, Note_on_c, 9, 38, 119
4, 217484, Note_on_c, 9, 44, 127
4, 217660, Note_on_c, 9, 40, 0
4, 217712, Note_on_c, 9, 38, 0
4, 217768, Note_on_c, 9, 38, 56
4, 217864, Note_on_c, 9, 38, 0
4, 217884, Note_on_c, 9, 44, 0
4, 217920, Note_on_c, 9, 40, 41
4, 217952, Note_on_c, 9, 38, 99
4, 218120, Note_on_c, 9, 38, 0
4, 218140, Note_on_c, 9, 40, 0
4, 218400, Note_on_c, 9, 40, 37
4, 218432, Note_on_c, 9, 46, 110
4, 218432, Note_on_c, 9, 38, 117
4, 218620, Note_on_c, 9, 40, 0
4, 218668, Note_on_c, 9, 38, 0
4, 218728, Note_on_c, 9, 38, 52
4, 218796, Note_on_c, 9, 46, 0
4, 218852, Note_on_c, 9, 38, 0
4, 218880, Note_on_c, 9, 40, 46
4, 218912, Note_on_c, 9, 38, 78
4, 219336, Note_on_c, 9, 38, 0
4, 219356, Note_on_c, 9, 40, 0
4, 219360, Note_on_c, 9, 40, 50
4, 219392, Note_on_c, 9, 38, 121
4, 219404, Note_on_c, 9, 44, 114
4, 219580, Note_on_c, 9, 40, 0
4, 219616, Note_on_c, 9, 38, 0
4, 219688, Note_on_c, 9, 38, 55
4, 219764, Note_on_c, 9, 38, 0
4, 219816, Note_on_c, 9, 44, 0
4, 219840, Note_on_c, 9, 40, 41
4, 219872, Note_on_c, 9, 38, 65
4, 220060, Note_on_c, 9, 40, 0
4, 220116, Note_on_c, 9, 38, 0
4, 220168, Note_on_c, 9, 39, 97
4, 220168, Note_on_c, 9, 38, 68
4, 220228, Note_on_c, 9, 38, 0
4, 220256, Note_on_c, 9, 39, 0
4, 220320, Note_on_c, 9, 40, 37
4, 220364, Note_on_c, 9, 44, 115
4, 220540, Note_on_c, 9, 40, 0
4, 220648, Note_on_c, 9, 38, 61
4, 220760, Note_on_c, 9, 38, 0
4, 220792, Note_on_c, 9, 44, 0
4, 220800, Note_on_c, 9, 40, 46
4, 220832, Note_on_c, 9, 38, 73
4, 221220, Note_on_c, 9, 38, 0
4, 221276, Note_on_c, 9, 40, 0
4, 221280, Note_on_c, 9, 40, 50
4, 221312, Note_on_c, 9, 38, 119
4, 221324, Note_on_c, 9, 44, 111
4, 221500, Note_on_c, 9, 40, 0
4, 221512, Note_on_c, 9, 38, 0
4, 221608, Note_on_c, 9, 38, 67
4, 221668, Note_on_c, 9, 44, 0
4, 221712, Note_on_c, 9, 38, 0
4, 221760, Note_on_c, 9, 40, 41
4, 221792, Note_on_c, 9, 38, 62
4, 221936, Note_on_c, 9, 38, 0
4, 221980, Note_on_c, 9, 40, 0
4, 222088, Note_on_c, 9, 38, 76
4, 222240, Note_on_c, 9, 40, 37
4, 222252, Note_on_c, 9, 38, 0
4, 222284, Note_on_c, 9, 44, 126
4, 222696, Note_on_c, 9, 44, 0
4, 222716, Note_on_c, 9, 40, 0
4, 222720, Note_on_c, 9, 40, 46
4, 222752, Note_on_c, 9, 38, 80
4, 223168, Note_on_c, 9, 38, 0
4, 223196, Note_on_c, 9, 40, 0
4, 223200, Note_on_c, 9, 40, 50
4, 223232, Note_on_c, 9, 38, 121
4, 223244, Note_on_c, 9, 44, 114
4, 223664, Note_on_c, 9, 44, 0
4, 223676, Note_on_c, 9, 40, 0
4, 223680, Note_on_c, 9, 40, 41
4, 223712, Note_on_c, 9, 38, 43
4, 223748, Note_on_c, 9, 38, 0
4, 224156, Note_on_c, 9, 40, 0
4, 224160, Note_on_c, 9, 40, 37
4, 224192, Note_on_c, 9, 38, 121
4, 224204, Note_on_c, 9, 44, 111
4, 224308, Note_on_c, 9, 38, 0
4, 224600, Note_on_c, 9, 38, 0
4, 224612, Note_on_c, 9, 44, 0
4, 224636, Note_on_c, 9, 40, 0
4, 224640, Note_on_c, 9, 40, 46
4, 224672, Note_on_c, 9, 35, 110
4, 224672, Note_on_c, 9, 38, 41
4, 225116, Note_on_c, 9, 40, 0
4, 225120, Note_on_c, 9, 40, 50
4, 225152, Note_on_c, 9, 38, 111
4, 225164, Note_on_c, 9, 44, 119
4, 225188, Note_on_c, 9, 35, 0
4, 225232, Note_on_c, 9, 38, 0
4, 225340, Note_on_c, 9, 38, 0
4, 225340, Note_on_c, 9, 40, 0
4, 225448, Note_on_c, 9, 38, 95
4, 225528, Note_on_c, 9, 38, 0
4, 225588, Note_on_c, 9, 44, 0
4, 225600, Note_on_c, 9, 40, 41
4, 225632, Note_on_c, 9, 38, 81
4, 226028, Note_on_c, 9, 38, 0
4, 226076, Note_on_c, 9, 40, 0
4, 226080, Note_on_c, 9, 40, 37
4, 226112, Note_on_c, 9, 38, 105
4, 226124, Note_on_c, 9, 44, 123
4, 226276, Note_on_c, 9, 38, 0
4, 226300, Note_on_c, 9, 40, 0
4, 226408, Note_on_c, 9, 38, 69
4, 226484, Note_on_c, 9, 38, 0
4, 226536, Note_on_c, 9, 44, 0
4, 226560, Note_on_c, 9, 40, 46
4, 226592, Note_on_c, 9, 38, 69
4, 226964, Note_on_c, 9, 38, 0
4, 227036, Note_on_c, 9, 40, 0
4, 227040, Note_on_c, 9, 40, 50
4, 227072, Note_on_c, 9, 38, 101
4, 227084, Note_on_c, 9, 44, 111
4, 227260, Note_on_c, 9, 38, 0
4, 227260, Note_on_c, 9, 40, 0
4, 227368, Note_on_c, 9, 38, 105
4, 227472, Note_on_c, 9, 38, 0
4, 227480, Note_on_c, 9, 44, 0
4, 227520, Note_on_c, 9, 40, 41
4, 227552, Note_on_c, 9, 38, 87
4, 227940, Note_on_c, 9, 38, 0
4, 227996, Note_on_c, 9, 40, 0
4, 228000, Note_on_c, 9, 40, 37
4, 228032, Note_on_c, 9, 38, 97
4, 228044, Note_on_c, 9, 44, 114
4, 228212, Note_on_c, 9, 38, 0
4, 228220, Note_on_c, 9, 40, 0
4, 228328, Note_on_c, 9, 38, 105
4, 228432, Note_on_c, 9, 44, 0
4, 228440, Note_on_c, 9, 38, 0
4, 228480, Note_on_c, 9, 40, 46
4, 228512, Note_on_c, 9, 38, 61
4, 228956, Note_on_c, 9, 40, 0
4, 228960, Note_on_c, 9, 40, 50
4, 228968, Note_on_c, 9, 38, 0
4, 228992, Note_on_c, 9, 38, 121
4, 229004, Note_on_c, 9, 44, 120
4, 229408, Note_on_c, 9, 44, 0
4, 229436, Note_on_c, 9, 40, 0
4, 229440, Note_on_c, 9, 40, 41
4, 229472, Note_on_c, 9, 38, 71
4, 229528, Note_on_c, 9, 38, 0
4, 229660, Note_on_c, 9, 40, 0
4, 229672, Note_on_c, 9, 38, 0
4, 229768, Note_on_c, 9, 38, 105
4, 229872, Note_on_c, 9, 38, 0
4, 229920, Note_on_c, 9, 40, 37
4, 229964, Note_on_c, 9, 44, 127
4, 230352, Note_on_c, 9, 44, 0
4, 230396, Note_on_c, 9, 40, 0
4, 230400, Note_on_c, 9, 40, 46
4, 230432, Note_on_c, 9, 38, 73
4, 230620, Note_on_c, 9, 40, 0
4, 230628, Note_on_c, 9, 38, 0
4, 230728, Note_on_c, 9, 39, 117
4, 230832, Note_on_c, 9, 39, 0
4, 230880, Note_on_c, 9, 40, 50
4, 230912, Note_on_c, 9, 38, 50
4, 230924, Note_on_c, 9, 44, 96
4, 231356, Note_on_c, 9, 40, 0
4, 231360, Note_on_c, 9, 40, 41
4, 231392, Note_on_c, 9, 38, 85
4, 231428, Note_on_c, 9, 38, 0
4, 231508, Note_on_c, 9, 44, 0
4, 231548, Note_on_c, 9, 38, 0
4, 231580, Note_on_c, 9, 40, 0
4, 231688, Note_on_c, 9, 39, 115
4, 231792, Note_on_c, 9, 39, 0
4, 231840, Note_on_c, 9, 40, 37
4, 231872, Note_on_c, 9, 46, 85
4, 232060, Note_on_c, 9, 40, 0
4, 232168, Note_on_c, 9, 38, 92
4, 232236, Note_on_c, 9, 46, 0
4, 232248, Note_on_c, 9, 38, 0
4, 232320, Note_on_c, 9, 40, 46
4, 232352, Note_on_c, 9, 35, 110
4, 232352, Note_on_c, 9, 53, 80
4, 232364, Note_on_c, 9, 44, 76
4, 232708, Note_on_c, 9, 53, 0
4, 232796, Note_on_c, 9, 40, 0
4, 232800, Note_on_c, 9, 40, 50
4, 232832, Note_on_c, 9, 38, 107
4, 232844, Note_on_c, 9, 44, 127
4, 232868, Note_on_c, 9, 35, 0
4, 232928, Note_on_c, 9, 44, 0
4, 233228, Note_on_c, 9, 44, 0
4, 233276, Note_on_c, 9, 40, 0
4, 233280, Note_on_c, 9, 40, 41
4, 233312, Note_on_c, 9, 38, 67
4, 233392, Note_on_c, 9, 38, 0
4, 233752, Note_on_c, 9, 38, 0
4, 233756, Note_on_c, 9, 40, 0
4, 233760, Note_on_c, 9, 40, 37
4, 233792, Note_on_c, 9, 38, 113
4, 233804, Note_on_c, 9, 44, 127
4, 233980, Note_on_c, 9, 40, 0
4, 234020, Note_on_c, 9, 38, 0
4, 234088, Note_on_c, 9, 38, 86
4, 234188, Note_on_c, 9, 38, 0
4, 234224, Note_on_c, 9, 44, 0
4, 234240, Note_on_c, 9, 40, 46
4, 234272, Note_on_c, 9, 38, 83
4, 234716, Note_on_c, 9, 40, 0
4, 234720, Note_on_c, 9, 40, 50
4, 234752, Note_on_c, 9, 38, 113
4, 234764, Note_on_c, 9, 44, 102
4, 234772, Note_on_c, 9, 38, 0
4, 235192, Note_on_c, 9, 44, 0
4, 235196, Note_on_c, 9, 40, 0
4, 235200, Note_on_c, 9, 40, 41
4, 235232, Note_on_c, 9, 38, 63
4, 235356, Note_on_c, 9, 38, 0
4, 235532, Note_on_c, 9, 39, 110
4, 235640, Note_on_c, 9, 39, 0
4, 235640, Note_on_c, 9, 38, 0
4, 235676, Note_on_c, 9, 40, 0
4, 235680, Note_on_c, 9, 40, 37
4, 235712, Note_on_c, 9, 38, 113
4, 235724, Note_on_c, 9, 44, 126
4, 235900, Note_on_c, 9, 40, 0
4, 235932, Note_on_c, 9, 38, 0
4, 236008, Note_on_c, 9, 38, 77
4, 236096, Note_on_c, 9, 38, 0
4, 236136, Note_on_c, 9, 44, 0
4, 236160, Note_on_c, 9, 40, 46
4, 236192, Note_on_c, 9, 38, 69
4, 236556, Note_on_c, 9, 38, 0
4, 236636, Note_on_c, 9, 40, 0
4, 236640, Note_on_c, 9, 40, 50
4, 236672, Note_on_c, 9, 38, 111
4, 236684, Note_on_c, 9, 44, 113
4, 237088, Note_on_c, 9, 38, 0
4, 237104, Note_on_c, 9, 44, 0
4, 237116, Note_on_c, 9, 40, 0
4, 237120, Note_on_c, 9, 40, 41
4, 237152, Note_on_c, 9, 38, 71
4, 237560, Note_on_c, 9, 38, 0
4, 237596, Note_on_c, 9, 40, 0
4, 237600, Note_on_c, 9, 40, 37
4, 237632, Note_on_c, 9, 38, 95
4, 237644, Note_on_c, 9, 44, 113
4, 237820, Note_on_c, 9, 40, 0
4, 237868, Note_on_c, 9, 38, 0
4, 237928, Note_on_c, 9, 38, 107
4, 238016, Note_on_c, 9, 38, 0
4, 238064, Note_on_c, 9, 44, 0
4, 238080, Note_on_c, 9, 40, 46
4, 238112, Note_on_c, 9, 38, 93
4, 238524, Note_on_c, 9, 38, 0
4, 238556, Note_on_c, 9, 40, 0
4, 238560, Note_on_c, 9, 40, 50
4, 238592, Note_on_c, 9, 38, 99
4, 238604, Note_on_c, 9, 44, 118
4, 238768, Note_on_c, 9, 38, 0
4, 238780, Note_on_c, 9, 40, 0
4, 238888, Note_on_c, 9, 38, 89
4, 238964, Note_on_c, 9, 38, 0
4, 239012, Note_on_c, 9, 44, 0
4, 239040, Note_on_c, 9, 40, 41
4, 239072, Note_on_c, 9, 38, 73
4, 239516, Note_on_c, 9, 40, 0
4, 239520, Note_on_c, 9, 40, 37
4, 239552, Note_on_c, 9, 38, 97
4, 239556, Note_on_c, 9, 38, 0
4, 239564, Note_on_c, 9, 44, 119
4, 239716, Note_on_c, 9, 44, 0
4, 239740, Note_on_c, 9, 40, 0
4, 239756, Note_on_c, 9, 38, 0
4, 239848, Note_on_c, 9, 39, 120
4, 239944, Note_on_c, 9, 39, 0
4, 240000, Note_on_c, 9, 40, 46
4, 240032, Note_on_c, 9, 38, 45
4, 240396, Note_on_c, 9, 38, 0
4, 240476, Note_on_c, 9, 40, 0
4, 240480, Note_on_c, 9, 40, 50
4, 240512, Note_on_c, 9, 38, 107
4, 240524, Note_on_c, 9, 44, 123
4, 240892, Note_on_c, 9, 44, 0
4, 240936, Note_on_c, 9, 38, 0
4, 240956, Note_on_c, 9, 40, 0
4, 240960, Note_on_c, 9, 40, 41
4, 240992, Note_on_c, 9, 38, 64
4, 241436, Note_on_c, 9, 40, 0
4, 241440, Note_on_c, 9, 40, 37
4, 241472, Note_on_c, 9, 38, 111
4, 241484, Note_on_c, 9, 38, 0
4, 241484, Note_on_c, 9, 44, 118
4, 241660, Note_on_c, 9, 40, 0
4, 241692, Note_on_c, 9, 38, 0
4, 241768, Note_on_c, 9, 38, 68
4, 241868, Note_on_c, 9, 38, 0
4, 241872, Note_on_c, 9, 44, 0
4, 241920, Note_on_c, 9, 40, 46
4, 241952, Note_on_c, 9, 38, 71
4, 242388, Note_on_c, 9, 38, 0
4, 242396, Note_on_c, 9, 40, 0
4, 242400, Note_on_c, 9, 40, 50
4, 242432, Note_on_c, 9, 38, 117
4, 242444, Note_on_c, 9, 44, 115
4, 242856, Note_on_c, 9, 44, 0
4, 242876, Note_on_c, 9, 40, 0
4, 242880, Note_on_c, 9, 40, 41
4, 242912, Note_on_c, 9, 38, 63
4, 242928, Note_on_c, 9, 38, 0
4, 243356, Note_on_c, 9, 40, 0
4, 243360, Note_on_c, 9, 40, 37
4, 243392, Note_on_c, 9, 38, 107
4, 243396, Note_on_c, 9, 38, 0
4, 243404, Note_on_c, 9, 44, 127
4, 243580, Note_on_c, 9, 40, 0
4, 243612, Note_on_c, 9, 38, 0
4, 243688, Note_on_c, 9, 38, 87
4, 243776, Note_on_c, 9, 38, 0
4, 243808, Note_on_c, 9, 44, 0
4, 243840, Note_on_c, 9, 40, 46
4, 243872, Note_on_c, 9, 38, 75
4, 244172, Note_on_c, 9, 39, 110
4, 244252, Note_on_c, 9, 38, 0
4, 244280, Note_on_c, 9, 39, 0
4, 244316, Note_on_c, 9, 40, 0
4, 244320, Note_on_c, 9, 40, 50
4, 244352, Note_on_c, 9, 38, 111
4, 244364, Note_on_c, 9, 44, 123
4, 244760, Note_on_c, 9, 44, 0
4, 244764, Note_on_c, 9, 38, 0
4, 244796, Note_on_c, 9, 40, 0
4, 244800, Note_on_c, 9, 40, 41
4, 244832, Note_on_c, 9, 35, 110
4, 245196, Note_on_c, 9, 35, 0
4, 245276, Note_on_c, 9, 40, 0
4, 245280, Note_on_c, 9, 40, 37
4, 245312, Note_on_c, 9, 38, 119
4, 245324, Note_on_c, 9, 44, 115
4, 245500, Note_on_c, 9, 40, 0
4, 245536, Note_on_c, 9, 38, 0
4, 245608, Note_on_c, 9, 38, 68
4, 245612, Note_on_c, 9, 35, 90
4, 245660, Note_on_c, 9, 38, 0
4, 245712, Note_on_c, 9, 44, 0
4, 245720, Note_on_c, 9, 35, 0
4, 245760, Note_on_c, 9, 40, 46
4, 246236, Note_on_c, 9, 40, 0
4, 246240, Note_on_c, 9, 40, 50
4, 246284, Note_on_c, 9, 44, 127
4, 246572, Note_on_c, 9, 39, 110
4, 246680, Note_on_c, 9, 39, 0
4, 246684, Note_on_c, 9, 44, 0
4, 246716, Note_on_c, 9, 40, 0
4, 246720, Note_on_c, 9, 40, 41
4, 247052, Note_on_c, 9, 39, 110
4, 247160, Note_on_c, 9, 39, 0
4, 247196, Note_on_c, 9, 40, 0
4, 247200, Note_on_c, 9, 40, 37
4, 247244, Note_on_c, 9, 44, 123
4, 247372, Note_on_c, 9, 44, 0
4, 247676, Note_on_c, 9, 40, 0
4, 247676, End_track
0, 0, End_of_file
