0, 0, Header, 1, 2, 960
1, 0, Start_track
1, 0, Title_t, "I Remember You"
1, 0, Text_t, "dougmck@tpg.com.au Played in real time - no editing - deliberately incorporating lots of solo jazz piano styles!\012"
1, 0, Time_signature, 4, 2, 24, 8
1, 0, Key_signature, -1, "major"
1, 0, Tempo, 600000
1, 0, Marker_t, "A kind of stilted stride style - limited pedalling - staccato attack - deliberately quirky"
1, 32289, Marker_t, "Melody in blocks in RH on beat, LH plays counter single notemelody off the beat"
1, 46080, Marker_t, "Deliberately 'uncool' melody - melody notes repeated in obvious way "
1, 88560, Marker_t, "arpeggio of perfect 4ths"
1, 107520, Marker_t, "RH 'strums' chord fragment on the beat, LH plays counter melody on the 'ands'"
1, 139098, Marker_t, "More deliberately 'quirky' stuff - RH plays chords rolled down instead of up"
1, 203520, Marker_t, "Chords played in a rhythm that simulates 3/4 over 4/4 - i.e. it is displaced by a beat each bar"
1, 222798, Marker_t, "More of the RH chords on the beat and LH counter melody"
1, 234240, Marker_t, "Deliberately 'old fashioned' tremolo - as in silent movies"
1, 276508, Marker_t, "No chords-melody and bass notes played almost randomly across kbd-Steve Kuhn does this brilliantly "
1, 284160, Marker_t, "Notice no pedal in this passage - notes played staccato"
1, 318727, Marker_t, "Brief double time feel passage"
1, 327275, Marker_t, "More deliberately awkward rhythms"
1, 355772, Marker_t, "RH plays repeated figure in 8th notes, LH plays counter melody"
1, 369748, Marker_t, "Discordant chords used - in one hand with lots of close intervals - "
1, 401511, Marker_t, "Passage played LH and RH in unison - no chords"
1, 414720, Marker_t, "Walking Bass in LH - attempt to change to a 'groovier' feel"
1, 468480, Marker_t, "Kind of 'pedal' figure on dominant and upper neighbour on the modulation into the bridge"
1, 489554, Marker_t, "Another rhythmic figure - played with two handed blocks - ascending"
1, 504397, Marker_t, "'Whole tone' chords - on C7 - every note of the whole tone scale C D E Gb Ab Bb"
1, 549120, Marker_t, "On C7 turnaround, ascending perfect 4ths"
1, 556800, Marker_t, "32nd note trill on F and lower neighbour in RH. LH plays melody"
1, 691311, Marker_t, "Back to limited pedalling on stride - precisely and evenly on the beat"
1, 699378, Marker_t, "Improvised line moves to the extreme treble register"
1, 814080, Marker_t, "Block chords arpeggiate a Gm9, with LH playing a lower neighbour on eac"
1, 817920, Marker_t, "Block chords in RH - LH plays grace notes up to each doubled melody note"
1, 842160, Marker_t, "F is returned to repeatedly from another note - as tho' drumming with thumb and fingers"
1, 858406, Marker_t, "More extreme treble in RH with precise machine-like kind of stride in left"
1, 872068, Marker_t, "RH phrases played in 3rds"
1, 925440, Marker_t, "LH picks up melody while RH plays chords"
1, 960323, Marker_t, "Turnaround on 1/6/2/5 uses tritone type subs"
1, 1006080, Marker_t, "Semi successful! RH plays chords on beat - LH plays little descending figure"
1, 1076739, Marker_t, "Another (semi successful) attempt at the same idea!"
1, 1076739, End_track
2, 0, Start_track
2, 0, Title_t, "MIDI 1"
2, 0, Program_c, 0, 0
2, 11, Note_on_c, 0, 88, 50
2, 46, Note_on_c, 0, 41, 17
2, 47, Note_on_c, 0, 81, 36
2, 62, Note_on_c, 0, 79, 27
2, 66, Note_on_c, 0, 57, 27
2, 72, Note_on_c, 0, 48, 26
2, 229, Note_on_c, 0, 79, 0
2, 229, Note_on_c, 0, 81, 0
2, 250, Note_on_c, 0, 48, 0
2, 263, Note_on_c, 0, 41, 0
2, 336, Note_on_c, 0, 88, 0
2, 365, Note_on_c, 0, 57, 0
2, 1036, Note_on_c, 0, 64, 50
2, 1038, Note_on_c, 0, 89, 59
2, 1039, Note_on_c, 0, 81, 53
2, 1045, Note_on_c, 0, 84, 62
2, 1070, Note_on_c, 0, 60, 31
2, 1093, Note_on_c, 0, 53, 20
2, 1100, Note_on_c, 0, 57, 36
2, 1203, Note_on_c, 0, 64, 0
2, 1210, Note_on_c, 0, 89, 0
2, 1213, Note_on_c, 0, 60, 0
2, 1220, Note_on_c, 0, 53, 0
2, 1222, Note_on_c, 0, 84, 0
2, 1227, Note_on_c, 0, 81, 0
2, 1255, Note_on_c, 0, 57, 0
2, 2004, Note_on_c, 0, 84, 40
2, 2011, Note_on_c, 0, 72, 36
2, 2012, Note_on_c, 0, 36, 40
2, 2030, Note_on_c, 0, 79, 46
2, 2056, Note_on_c, 0, 48, 27
2, 2150, Note_on_c, 0, 36, 0
2, 2221, Note_on_c, 0, 72, 0
2, 2226, Note_on_c, 0, 79, 0
2, 2258, Note_on_c, 0, 48, 0
2, 2313, Note_on_c, 0, 84, 0
2, 2921, Note_on_c, 0, 62, 36
2, 2954, Note_on_c, 0, 60, 35
2, 2967, Note_on_c, 0, 53, 17
2, 2984, Note_on_c, 0, 57, 29
2, 3072, Note_on_c, 0, 62, 0
2, 3092, Note_on_c, 0, 53, 0
2, 3093, Note_on_c, 0, 60, 0
2, 3118, Note_on_c, 0, 57, 0
2, 3602, Note_on_c, 0, 86, 63
2, 3613, Note_on_c, 0, 74, 59
2, 3643, Note_on_c, 0, 81, 43
2, 3676, Control_c, 0, 64, 127
2, 3722, Note_on_c, 0, 74, 0
2, 3766, Note_on_c, 0, 86, 0
2, 3777, Note_on_c, 0, 81, 0
2, 3793, Control_c, 0, 64, 0
2, 3894, Note_on_c, 0, 35, 43
2, 3913, Note_on_c, 0, 47, 41
2, 3941, Note_on_c, 0, 88, 73
2, 3942, Note_on_c, 0, 81, 71
2, 3950, Note_on_c, 0, 77, 74
2, 3957, Note_on_c, 0, 83, 64
2, 4002, Note_on_c, 0, 35, 0
2, 4048, Note_on_c, 0, 77, 0
2, 4069, Note_on_c, 0, 47, 0
2, 4107, Note_on_c, 0, 88, 0
2, 4108, Note_on_c, 0, 81, 0
2, 4109, Note_on_c, 0, 83, 0
2, 4314, Note_on_c, 0, 86, 27
2, 4414, Note_on_c, 0, 86, 0
2, 4568, Note_on_c, 0, 88, 71
2, 4574, Note_on_c, 0, 83, 58
2, 4576, Note_on_c, 0, 81, 61
2, 4577, Note_on_c, 0, 77, 66
2, 4604, Note_on_c, 0, 86, 45
2, 4666, Note_on_c, 0, 86, 0
2, 4704, Note_on_c, 0, 88, 0
2, 4713, Note_on_c, 0, 83, 0
2, 4714, Note_on_c, 0, 81, 0
2, 4739, Note_on_c, 0, 77, 0
2, 4813, Note_on_c, 0, 64, 48
2, 4880, Note_on_c, 0, 64, 0
2, 5404, Control_c, 0, 64, 127
2, 5436, Note_on_c, 0, 71, 56
2, 5440, Note_on_c, 0, 65, 45
2, 5454, Note_on_c, 0, 69, 45
2, 5531, Note_on_c, 0, 69, 0
2, 5636, Note_on_c, 0, 71, 0
2, 5666, Note_on_c, 0, 65, 0
2, 5677, Control_c, 0, 64, 0
2, 5751, Note_on_c, 0, 65, 35
2, 5758, Note_on_c, 0, 62, 30
2, 5765, Note_on_c, 0, 70, 39
2, 5781, Note_on_c, 0, 68, 31
2, 5791, Note_on_c, 0, 56, 37
2, 5949, Control_c, 0, 64, 127
2, 6003, Note_on_c, 0, 62, 0
2, 6078, Note_on_c, 0, 56, 0
2, 6097, Note_on_c, 0, 65, 0
2, 6295, Note_on_c, 0, 70, 0
2, 6426, Note_on_c, 0, 68, 0
2, 6715, Control_c, 0, 64, 0
2, 6723, Note_on_c, 0, 65, 45
2, 6728, Note_on_c, 0, 68, 45
2, 6730, Note_on_c, 0, 74, 48
2, 6898, Control_c, 0, 64, 127
2, 7185, Note_on_c, 0, 65, 0
2, 7203, Note_on_c, 0, 74, 0
2, 7323, Note_on_c, 0, 68, 0
2, 7690, Control_c, 0, 64, 0
2, 7742, Note_on_c, 0, 64, 36
2, 7757, Note_on_c, 0, 48, 31
2, 7764, Note_on_c, 0, 76, 28
2, 7770, Note_on_c, 0, 41, 20
2, 7773, Note_on_c, 0, 57, 29
2, 7774, Note_on_c, 0, 69, 36
2, 7782, Note_on_c, 0, 72, 32
2, 7937, Control_c, 0, 64, 127
2, 8065, Note_on_c, 0, 41, 0
2, 8116, Note_on_c, 0, 48, 0
2, 8128, Note_on_c, 0, 64, 0
2, 8216, Note_on_c, 0, 57, 0
2, 8417, Note_on_c, 0, 69, 0
2, 8438, Note_on_c, 0, 72, 0
2, 8609, Note_on_c, 0, 76, 0
2, 8698, Note_on_c, 0, 67, 35
2, 8706, Note_on_c, 0, 72, 34
2, 8714, Note_on_c, 0, 69, 38
2, 8727, Note_on_c, 0, 64, 42
2, 9033, Note_on_c, 0, 67, 0
2, 9097, Note_on_c, 0, 69, 0
2, 9136, Note_on_c, 0, 72, 0
2, 9263, Note_on_c, 0, 77, 82
2, 9412, Note_on_c, 0, 77, 0
2, 9598, Note_on_c, 0, 64, 0
2, 9678, Control_c, 0, 64, 0
2, 9696, Note_on_c, 0, 72, 54
2, 9697, Note_on_c, 0, 65, 47
2, 9704, Note_on_c, 0, 60, 32
2, 9713, Note_on_c, 0, 69, 47
2, 9937, Control_c, 0, 64, 127
2, 10037, Note_on_c, 0, 72, 0
2, 10117, Note_on_c, 0, 65, 0
2, 10174, Note_on_c, 0, 72, 58
2, 10370, Note_on_c, 0, 69, 0
2, 10522, Note_on_c, 0, 72, 0
2, 10618, Note_on_c, 0, 62, 36
2, 10636, Note_on_c, 0, 74, 80
2, 10666, Note_on_c, 0, 69, 48
2, 10732, Note_on_c, 0, 69, 0
2, 10777, Note_on_c, 0, 60, 0
2, 10962, Note_on_c, 0, 62, 0
2, 11004, Note_on_c, 0, 74, 0
2, 11111, Note_on_c, 0, 74, 56
2, 11345, Note_on_c, 0, 74, 0
2, 11555, Note_on_c, 0, 75, 39
2, 11560, Note_on_c, 0, 58, 43
2, 11566, Note_on_c, 0, 63, 28
2, 11569, Note_on_c, 0, 70, 44
2, 11574, Note_on_c, 0, 67, 38
2, 11587, Control_c, 0, 64, 0
2, 11595, Note_on_c, 0, 53, 22
2, 11951, Control_c, 0, 64, 127
2, 12024, Note_on_c, 0, 75, 0
2, 12061, Note_on_c, 0, 70, 0
2, 12070, Note_on_c, 0, 67, 0
2, 12140, Note_on_c, 0, 77, 68
2, 12151, Note_on_c, 0, 76, 61
2, 12195, Note_on_c, 0, 76, 0
2, 12302, Note_on_c, 0, 63, 0
2, 12470, Note_on_c, 0, 77, 0
2, 12589, Note_on_c, 0, 77, 70
2, 12594, Note_on_c, 0, 63, 37
2, 12844, Note_on_c, 0, 77, 0
2, 12848, Note_on_c, 0, 63, 0
2, 13040, Note_on_c, 0, 79, 73
2, 13053, Note_on_c, 0, 58, 0
2, 13278, Note_on_c, 0, 79, 0
2, 13503, Note_on_c, 0, 79, 62
2, 13523, Note_on_c, 0, 75, 60
2, 13545, Note_on_c, 0, 72, 57
2, 13548, Note_on_c, 0, 58, 35
2, 13552, Control_c, 0, 64, 0
2, 13567, Note_on_c, 0, 65, 24
2, 13569, Note_on_c, 0, 67, 47
2, 13584, Note_on_c, 0, 63, 25
2, 13769, Control_c, 0, 64, 127
2, 13838, Note_on_c, 0, 67, 0
2, 13849, Note_on_c, 0, 72, 0
2, 13873, Note_on_c, 0, 79, 0
2, 13915, Note_on_c, 0, 75, 0
2, 14024, Note_on_c, 0, 81, 69
2, 14066, Note_on_c, 0, 63, 0
2, 14073, Note_on_c, 0, 58, 0
2, 14105, Note_on_c, 0, 65, 0
2, 14303, Note_on_c, 0, 81, 0
2, 14498, Note_on_c, 0, 81, 53
2, 14524, Control_c, 0, 64, 0
2, 14532, Note_on_c, 0, 63, 33
2, 14533, Note_on_c, 0, 74, 64
2, 14546, Note_on_c, 0, 65, 39
2, 14547, Note_on_c, 0, 78, 47
2, 14548, Note_on_c, 0, 58, 30
2, 14570, Note_on_c, 0, 69, 32
2, 14745, Note_on_c, 0, 69, 0
2, 14757, Control_c, 0, 64, 127
2, 14761, Note_on_c, 0, 81, 0
2, 14880, Note_on_c, 0, 58, 0
2, 14937, Note_on_c, 0, 78, 0
2, 14941, Note_on_c, 0, 74, 0
2, 14998, Note_on_c, 0, 82, 60
2, 15027, Note_on_c, 0, 63, 0
2, 15073, Note_on_c, 0, 74, 16
2, 15113, Note_on_c, 0, 65, 0
2, 15221, Note_on_c, 0, 74, 0
2, 15322, Note_on_c, 0, 82, 0
2, 15419, Control_c, 0, 64, 0
2, 15453, Note_on_c, 0, 82, 52
2, 15458, Note_on_c, 0, 65, 37
2, 15475, Note_on_c, 0, 60, 28
2, 15484, Note_on_c, 0, 62, 33
2, 15496, Note_on_c, 0, 74, 49
2, 15498, Note_on_c, 0, 70, 42
2, 15627, Control_c, 0, 64, 127
2, 15628, Note_on_c, 0, 74, 0
2, 15765, Note_on_c, 0, 70, 0
2, 15799, Note_on_c, 0, 82, 0
2, 15828, Note_on_c, 0, 53, 0
2, 15903, Note_on_c, 0, 84, 68
2, 16106, Note_on_c, 0, 84, 0
2, 16288, Control_c, 0, 64, 0
2, 16352, Note_on_c, 0, 84, 71
2, 16355, Note_on_c, 0, 53, 35
2, 16403, Note_on_c, 0, 81, 43
2, 16424, Note_on_c, 0, 77, 34
2, 16461, Note_on_c, 0, 72, 24
2, 16511, Control_c, 0, 64, 127
2, 16644, Note_on_c, 0, 65, 0
2, 16667, Note_on_c, 0, 77, 0
2, 16669, Note_on_c, 0, 60, 0
2, 16685, Note_on_c, 0, 62, 0
2, 16687, Note_on_c, 0, 84, 0
2, 16695, Note_on_c, 0, 72, 0
2, 16762, Note_on_c, 0, 81, 0
2, 16827, Note_on_c, 0, 86, 71
2, 16862, Note_on_c, 0, 81, 42
2, 16870, Note_on_c, 0, 77, 60
2, 17034, Note_on_c, 0, 74, 22
2, 17156, Note_on_c, 0, 74, 0
2, 17171, Note_on_c, 0, 77, 0
2, 17197, Note_on_c, 0, 86, 0
2, 17208, Note_on_c, 0, 81, 0
2, 17302, Control_c, 0, 64, 0
2, 17311, Note_on_c, 0, 86, 56
2, 17349, Note_on_c, 0, 81, 42
2, 17357, Note_on_c, 0, 65, 39
2, 17366, Note_on_c, 0, 62, 37
2, 17367, Note_on_c, 0, 77, 54
2, 17367, Note_on_c, 0, 60, 30
2, 17383, Note_on_c, 0, 74, 55
2, 17498, Control_c, 0, 64, 127
2, 17533, Note_on_c, 0, 74, 0
2, 17540, Note_on_c, 0, 77, 0
2, 17584, Note_on_c, 0, 81, 0
2, 17621, Note_on_c, 0, 86, 0
2, 17801, Note_on_c, 0, 53, 0
2, 17814, Note_on_c, 0, 89, 68
2, 18103, Note_on_c, 0, 89, 0
2, 18264, Note_on_c, 0, 53, 37
2, 18274, Note_on_c, 0, 89, 59
2, 18337, Note_on_c, 0, 77, 45
2, 18497, Note_on_c, 0, 89, 0
2, 18545, Note_on_c, 0, 77, 0
2, 18644, Note_on_c, 0, 53, 0
2, 18696, Note_on_c, 0, 62, 0
2, 18699, Note_on_c, 0, 65, 0
2, 18760, Note_on_c, 0, 84, 47
2, 18768, Note_on_c, 0, 60, 0
2, 18842, Note_on_c, 0, 72, 34
2, 18983, Note_on_c, 0, 72, 0
2, 19022, Note_on_c, 0, 84, 0
2, 19226, Control_c, 0, 64, 0
2, 19233, Note_on_c, 0, 61, 32
2, 19239, Note_on_c, 0, 56, 33
2, 19240, Note_on_c, 0, 65, 24
2, 19241, Note_on_c, 0, 85, 51
2, 19249, Note_on_c, 0, 73, 37
2, 19486, Control_c, 0, 64, 127
2, 19620, Note_on_c, 0, 65, 0
2, 19669, Note_on_c, 0, 61, 0
2, 19675, Note_on_c, 0, 56, 0
2, 20155, Note_on_c, 0, 34, 54
2, 20252, Control_c, 0, 64, 0
2, 20291, Control_c, 0, 64, 127
2, 20409, Note_on_c, 0, 34, 0
2, 20748, Note_on_c, 0, 73, 0
2, 20843, Note_on_c, 0, 85, 0
2, 21148, Note_on_c, 0, 73, 48
2, 21170, Note_on_c, 0, 65, 38
2, 21176, Note_on_c, 0, 77, 60
2, 21179, Note_on_c, 0, 61, 44
2, 21199, Control_c, 0, 64, 0
2, 21201, Note_on_c, 0, 55, 26
2, 21460, Control_c, 0, 64, 127
2, 21771, Note_on_c, 0, 65, 0
2, 21807, Note_on_c, 0, 77, 0
2, 21845, Note_on_c, 0, 73, 0
2, 22002, Note_on_c, 0, 61, 0
2, 22206, Note_on_c, 0, 61, 46
2, 22225, Note_on_c, 0, 64, 36
2, 22503, Note_on_c, 0, 64, 0
2, 22620, Note_on_c, 0, 61, 0
2, 22711, Note_on_c, 0, 55, 0
2, 22829, Note_on_c, 0, 74, 71
2, 22971, Note_on_c, 0, 74, 0
2, 23031, Note_on_c, 0, 75, 68
2, 23219, Note_on_c, 0, 75, 0
2, 23226, Control_c, 0, 64, 0
2, 23229, Note_on_c, 0, 45, 42
2, 23285, Note_on_c, 0, 74, 56
2, 23530, Note_on_c, 0, 45, 0
2, 23543, Note_on_c, 0, 74, 0
2, 23552, Control_c, 0, 64, 127
2, 23575, Note_on_c, 0, 72, 45
2, 24165, Note_on_c, 0, 64, 37
2, 24174, Note_on_c, 0, 57, 33
2, 24187, Note_on_c, 0, 60, 29
2, 24201, Control_c, 0, 64, 0
2, 24275, Note_on_c, 0, 60, 0
2, 24283, Note_on_c, 0, 64, 0
2, 24347, Note_on_c, 0, 57, 0
2, 24682, Control_c, 0, 64, 127
2, 24805, Note_on_c, 0, 72, 0
2, 24843, Note_on_c, 0, 67, 52
2, 24971, Note_on_c, 0, 67, 0
2, 24980, Note_on_c, 0, 69, 51
2, 25007, Control_c, 0, 64, 0
2, 25036, Note_on_c, 0, 67, 28
2, 25093, Note_on_c, 0, 69, 0
2, 25143, Note_on_c, 0, 64, 53
2, 25181, Note_on_c, 0, 67, 0
2, 25205, Note_on_c, 0, 38, 35
2, 25230, Note_on_c, 0, 50, 24
2, 25277, Note_on_c, 0, 64, 0
2, 25316, Note_on_c, 0, 66, 39
2, 25334, Note_on_c, 0, 38, 0
2, 25400, Note_on_c, 0, 50, 0
2, 25877, Control_c, 0, 64, 127
2, 25890, Note_on_c, 0, 66, 0
2, 26058, Control_c, 0, 64, 0
2, 26109, Note_on_c, 0, 64, 38
2, 26111, Note_on_c, 0, 54, 38
2, 26140, Note_on_c, 0, 60, 37
2, 26210, Note_on_c, 0, 64, 0
2, 26218, Note_on_c, 0, 60, 0
2, 26266, Note_on_c, 0, 54, 0
2, 26640, Note_on_c, 0, 69, 40
2, 26729, Note_on_c, 0, 69, 0
2, 26792, Note_on_c, 0, 72, 66
2, 26959, Note_on_c, 0, 72, 0
2, 27012, Note_on_c, 0, 70, 57
2, 27086, Note_on_c, 0, 43, 34
2, 27148, Note_on_c, 0, 70, 0
2, 27158, Note_on_c, 0, 43, 0
2, 27283, Note_on_c, 0, 62, 48
2, 27368, Note_on_c, 0, 62, 0
2, 27611, Note_on_c, 0, 62, 53
2, 27703, Note_on_c, 0, 62, 0
2, 27901, Note_on_c, 0, 62, 52
2, 27976, Note_on_c, 0, 58, 32
2, 28020, Note_on_c, 0, 62, 0
2, 28054, Note_on_c, 0, 58, 0
2, 28212, Note_on_c, 0, 62, 46
2, 28482, Note_on_c, 0, 62, 0
2, 28500, Note_on_c, 0, 63, 51
2, 28710, Note_on_c, 0, 63, 0
2, 28772, Note_on_c, 0, 64, 45
2, 29069, Note_on_c, 0, 36, 17
2, 29153, Note_on_c, 0, 36, 0
2, 29188, Control_c, 0, 64, 127
2, 29474, Note_on_c, 0, 64, 0
2, 29826, Control_c, 0, 64, 0
2, 29845, Note_on_c, 0, 64, 47
2, 29883, Note_on_c, 0, 58, 37
2, 29903, Note_on_c, 0, 64, 0
2, 29951, Note_on_c, 0, 58, 0
2, 29994, Control_c, 0, 64, 127
2, 30510, Note_on_c, 0, 84, 71
2, 30678, Note_on_c, 0, 84, 0
2, 30747, Control_c, 0, 64, 0
2, 30818, Note_on_c, 0, 41, 34
2, 30825, Note_on_c, 0, 88, 75
2, 30831, Note_on_c, 0, 84, 64
2, 30833, Note_on_c, 0, 57, 51
2, 30834, Note_on_c, 0, 81, 73
2, 30835, Note_on_c, 0, 76, 80
2, 30843, Note_on_c, 0, 48, 44
2, 30999, Control_c, 0, 64, 127
2, 31019, Note_on_c, 0, 41, 0
2, 31066, Note_on_c, 0, 48, 0
2, 31188, Note_on_c, 0, 57, 0
2, 31288, Note_on_c, 0, 76, 0
2, 31297, Note_on_c, 0, 88, 0
2, 31352, Note_on_c, 0, 84, 0
2, 31382, Note_on_c, 0, 81, 0
2, 31700, Control_c, 0, 64, 0
2, 31727, Note_on_c, 0, 89, 68
2, 31728, Note_on_c, 0, 81, 73
2, 31729, Note_on_c, 0, 64, 51
2, 31737, Note_on_c, 0, 60, 40
2, 31739, Note_on_c, 0, 84, 60
2, 31744, Note_on_c, 0, 53, 39
2, 31745, Note_on_c, 0, 57, 52
2, 31753, Note_on_c, 0, 77, 69
2, 31921, Control_c, 0, 64, 127
2, 31990, Note_on_c, 0, 53, 0
2, 32042, Note_on_c, 0, 57, 0
2, 32044, Note_on_c, 0, 89, 0
2, 32047, Note_on_c, 0, 60, 0
2, 32087, Note_on_c, 0, 64, 0
2, 32148, Note_on_c, 0, 84, 0
2, 32152, Note_on_c, 0, 81, 0
2, 32161, Note_on_c, 0, 77, 0
2, 32668, Note_on_c, 0, 72, 63
2, 32669, Note_on_c, 0, 74, 64
2, 32676, Note_on_c, 0, 84, 72
2, 32677, Note_on_c, 0, 79, 66
2, 32713, Control_c, 0, 64, 0
2, 33168, Control_c, 0, 64, 127
2, 33181, Note_on_c, 0, 71, 71
2, 33259, Note_on_c, 0, 72, 0
2, 33449, Note_on_c, 0, 74, 0
2, 33498, Note_on_c, 0, 84, 0
2, 33544, Note_on_c, 0, 79, 0
2, 33675, Note_on_c, 0, 86, 69
2, 33683, Note_on_c, 0, 79, 57
2, 33694, Note_on_c, 0, 74, 57
2, 33712, Control_c, 0, 64, 0
2, 33764, Control_c, 0, 64, 127
2, 34115, Control_c, 0, 64, 0
2, 34146, Note_on_c, 0, 70, 67
2, 34180, Note_on_c, 0, 74, 0
2, 34183, Note_on_c, 0, 71, 0
2, 34270, Note_on_c, 0, 79, 0
2, 34272, Control_c, 0, 64, 127
2, 34327, Note_on_c, 0, 86, 0
2, 34622, Control_c, 0, 64, 0
2, 34625, Note_on_c, 0, 88, 57
2, 34634, Note_on_c, 0, 81, 66
2, 34636, Note_on_c, 0, 83, 67
2, 34643, Note_on_c, 0, 77, 64
2, 35051, Control_c, 0, 64, 127
2, 35112, Note_on_c, 0, 71, 73
2, 35122, Note_on_c, 0, 70, 0
2, 35204, Note_on_c, 0, 88, 0
2, 35242, Note_on_c, 0, 83, 0
2, 35253, Note_on_c, 0, 81, 0
2, 35295, Note_on_c, 0, 71, 0
2, 35332, Note_on_c, 0, 77, 0
2, 36043, Note_on_c, 0, 64, 38
2, 36068, Note_on_c, 0, 69, 48
2, 36071, Note_on_c, 0, 71, 51
2, 36116, Control_c, 0, 64, 0
2, 36246, Control_c, 0, 64, 127
2, 36312, Note_on_c, 0, 69, 0
2, 36355, Note_on_c, 0, 71, 0
2, 36356, Note_on_c, 0, 64, 0
2, 36381, Note_on_c, 0, 73, 15
2, 36459, Note_on_c, 0, 73, 0
2, 36570, Control_c, 0, 64, 0
2, 36571, Note_on_c, 0, 70, 50
2, 36579, Note_on_c, 0, 68, 43
2, 36595, Note_on_c, 0, 65, 33
2, 37048, Note_on_c, 0, 52, 31
2, 37199, Note_on_c, 0, 65, 0
2, 37208, Control_c, 0, 64, 127
2, 37431, Note_on_c, 0, 68, 0
2, 37526, Note_on_c, 0, 62, 50
2, 37651, Note_on_c, 0, 52, 0
2, 37958, Note_on_c, 0, 62, 0
2, 38034, Note_on_c, 0, 70, 0
2, 38480, Control_c, 0, 64, 0
2, 38520, Note_on_c, 0, 60, 38
2, 38530, Note_on_c, 0, 41, 30
2, 38535, Note_on_c, 0, 64, 37
2, 38619, Note_on_c, 0, 48, 17
2, 38676, Control_c, 0, 64, 127
2, 38723, Note_on_c, 0, 60, 0
2, 38751, Note_on_c, 0, 41, 0
2, 38773, Note_on_c, 0, 64, 0
2, 38798, Note_on_c, 0, 48, 0
2, 39377, Control_c, 0, 64, 0
2, 39433, Note_on_c, 0, 76, 39
2, 39435, Note_on_c, 0, 68, 39
2, 39439, Note_on_c, 0, 71, 46
2, 39443, Note_on_c, 0, 56, 38
2, 39452, Note_on_c, 0, 64, 31
2, 39486, Note_on_c, 0, 52, 19
2, 39559, Control_c, 0, 64, 127
2, 39614, Note_on_c, 0, 64, 0
2, 39644, Note_on_c, 0, 52, 0
2, 39666, Note_on_c, 0, 71, 0
2, 39675, Note_on_c, 0, 68, 0
2, 39723, Note_on_c, 0, 56, 0
2, 39757, Note_on_c, 0, 76, 0
2, 39870, Control_c, 0, 64, 0
2, 39931, Note_on_c, 0, 60, 37
2, 39933, Note_on_c, 0, 77, 58
2, 39937, Note_on_c, 0, 53, 24
2, 39947, Note_on_c, 0, 72, 49
2, 39963, Note_on_c, 0, 67, 28
2, 39980, Note_on_c, 0, 69, 26
2, 40047, Note_on_c, 0, 69, 0
2, 40065, Control_c, 0, 64, 127
2, 40069, Note_on_c, 0, 77, 0
2, 40082, Note_on_c, 0, 72, 0
2, 40099, Note_on_c, 0, 67, 0
2, 40134, Note_on_c, 0, 60, 0
2, 40366, Note_on_c, 0, 53, 0
2, 40376, Control_c, 0, 64, 0
2, 40426, Note_on_c, 0, 72, 45
2, 40439, Note_on_c, 0, 67, 46
2, 40454, Note_on_c, 0, 64, 36
2, 40467, Note_on_c, 0, 57, 44
2, 40903, Note_on_c, 0, 58, 69
2, 41013, Control_c, 0, 64, 127
2, 41167, Note_on_c, 0, 64, 0
2, 41210, Note_on_c, 0, 57, 0
2, 41217, Note_on_c, 0, 72, 0
2, 41256, Note_on_c, 0, 67, 0
2, 41265, Note_on_c, 0, 58, 0
2, 41364, Control_c, 0, 64, 0
2, 41368, Note_on_c, 0, 74, 54
2, 41378, Note_on_c, 0, 65, 46
2, 41387, Note_on_c, 0, 67, 36
2, 41389, Note_on_c, 0, 59, 40
2, 41624, Control_c, 0, 64, 127
2, 41767, Control_c, 0, 64, 0
2, 41786, Note_on_c, 0, 65, 0
2, 41792, Note_on_c, 0, 67, 0
2, 41847, Note_on_c, 0, 60, 55
2, 41854, Note_on_c, 0, 59, 0
2, 41855, Note_on_c, 0, 74, 0
2, 41922, Control_c, 0, 64, 127
2, 41999, Note_on_c, 0, 60, 0
2, 42298, Note_on_c, 0, 75, 57
2, 42300, Control_c, 0, 64, 0
2, 42307, Note_on_c, 0, 67, 48
2, 42315, Note_on_c, 0, 70, 54
2, 42380, Note_on_c, 0, 61, 35
2, 42560, Control_c, 0, 64, 127
2, 42573, Note_on_c, 0, 61, 0
2, 42599, Note_on_c, 0, 67, 0
2, 42675, Note_on_c, 0, 70, 0
2, 42716, Control_c, 0, 64, 0
2, 42718, Note_on_c, 0, 75, 0
2, 42801, Note_on_c, 0, 48, 62
2, 42928, Note_on_c, 0, 48, 0
2, 42988, Control_c, 0, 64, 127
2, 43277, Note_on_c, 0, 82, 72
2, 43283, Note_on_c, 0, 89, 70
2, 43294, Note_on_c, 0, 77, 66
2, 43353, Note_on_c, 0, 77, 0
2, 43365, Control_c, 0, 64, 0
2, 43395, Note_on_c, 0, 89, 0
2, 43395, Note_on_c, 0, 82, 0
2, 43752, Note_on_c, 0, 57, 43
2, 43787, Note_on_c, 0, 63, 34
2, 43807, Control_c, 0, 64, 127
2, 44157, Control_c, 0, 64, 0
2, 44227, Note_on_c, 0, 78, 42
2, 44233, Note_on_c, 0, 65, 37
2, 44235, Note_on_c, 0, 84, 39
2, 44240, Note_on_c, 0, 72, 33
2, 44443, Control_c, 0, 64, 127
2, 44797, Note_on_c, 0, 72, 0
2, 44827, Note_on_c, 0, 84, 0
2, 44853, Note_on_c, 0, 65, 0
2, 44862, Note_on_c, 0, 63, 0
2, 44898, Note_on_c, 0, 78, 0
2, 45174, Note_on_c, 0, 82, 55
2, 45191, Note_on_c, 0, 70, 54
2, 45216, Note_on_c, 0, 57, 0
2, 45435, Note_on_c, 0, 70, 0
2, 45461, Note_on_c, 0, 82, 0
2, 45696, Note_on_c, 0, 84, 48
2, 45703, Note_on_c, 0, 72, 40
2, 45818, Note_on_c, 0, 84, 0
2, 45858, Note_on_c, 0, 72, 0
2, 46067, Control_c, 0, 64, 0
2, 46134, Note_on_c, 0, 46, 34
2, 46141, Note_on_c, 0, 86, 55
2, 46149, Note_on_c, 0, 57, 35
2, 46159, Note_on_c, 0, 74, 34
2, 46167, Note_on_c, 0, 77, 37
2, 46186, Note_on_c, 0, 81, 33
2, 46268, Note_on_c, 0, 46, 0
2, 46271, Note_on_c, 0, 81, 0
2, 46277, Note_on_c, 0, 77, 0
2, 46287, Note_on_c, 0, 74, 0
2, 46317, Note_on_c, 0, 57, 0
2, 46325, Note_on_c, 0, 86, 0
2, 46652, Note_on_c, 0, 86, 56
2, 46661, Note_on_c, 0, 74, 44
2, 46687, Note_on_c, 0, 77, 42
2, 46694, Note_on_c, 0, 81, 40
2, 46794, Note_on_c, 0, 77, 0
2, 46797, Note_on_c, 0, 74, 0
2, 46840, Note_on_c, 0, 81, 0
2, 46865, Note_on_c, 0, 86, 0
2, 47097, Note_on_c, 0, 65, 30
2, 47104, Note_on_c, 0, 86, 55
2, 47119, Note_on_c, 0, 74, 46
2, 47130, Note_on_c, 0, 60, 31
2, 47138, Note_on_c, 0, 62, 33
2, 47144, Note_on_c, 0, 77, 41
2, 47148, Note_on_c, 0, 81, 43
2, 47257, Note_on_c, 0, 74, 0
2, 47268, Note_on_c, 0, 77, 0
2, 47294, Note_on_c, 0, 86, 0
2, 47306, Note_on_c, 0, 81, 0
2, 47348, Note_on_c, 0, 65, 0
2, 47414, Note_on_c, 0, 86, 53
2, 47423, Note_on_c, 0, 74, 42
2, 47429, Note_on_c, 0, 81, 32
2, 47430, Note_on_c, 0, 77, 51
2, 47516, Note_on_c, 0, 77, 0
2, 47520, Note_on_c, 0, 74, 0
2, 47534, Note_on_c, 0, 81, 0
2, 47538, Note_on_c, 0, 62, 0
2, 47624, Note_on_c, 0, 74, 31
2, 47630, Note_on_c, 0, 77, 41
2, 47642, Note_on_c, 0, 81, 33
2, 47769, Control_c, 0, 64, 127
2, 47848, Note_on_c, 0, 74, 0
2, 47853, Note_on_c, 0, 77, 0
2, 47888, Note_on_c, 0, 81, 0
2, 47904, Note_on_c, 0, 86, 0
2, 47918, Note_on_c, 0, 60, 0
2, 47950, Control_c, 0, 64, 0
2, 48075, Note_on_c, 0, 86, 49
2, 48091, Note_on_c, 0, 77, 38
2, 48093, Note_on_c, 0, 74, 38
2, 48112, Note_on_c, 0, 81, 36
2, 48119, Note_on_c, 0, 62, 28
2, 48126, Note_on_c, 0, 60, 31
2, 48133, Note_on_c, 0, 65, 24
2, 48169, Note_on_c, 0, 74, 0
2, 48196, Note_on_c, 0, 77, 0
2, 48202, Note_on_c, 0, 81, 0
2, 48218, Note_on_c, 0, 86, 0
2, 48269, Note_on_c, 0, 65, 0
2, 48602, Note_on_c, 0, 53, 45
2, 48756, Control_c, 0, 64, 127
2, 48978, Note_on_c, 0, 60, 0
2, 48986, Note_on_c, 0, 62, 0
2, 49071, Note_on_c, 0, 86, 68
2, 49073, Note_on_c, 0, 77, 72
2, 49075, Note_on_c, 0, 62, 42
2, 49079, Note_on_c, 0, 65, 47
2, 49080, Note_on_c, 0, 81, 64
2, 49082, Note_on_c, 0, 74, 71
2, 49110, Note_on_c, 0, 60, 28
2, 49275, Note_on_c, 0, 74, 0
2, 49298, Note_on_c, 0, 77, 0
2, 49311, Note_on_c, 0, 53, 0
2, 49317, Note_on_c, 0, 65, 0
2, 49325, Note_on_c, 0, 81, 0
2, 49332, Note_on_c, 0, 86, 0
2, 49443, Note_on_c, 0, 60, 0
2, 49468, Note_on_c, 0, 62, 0
2, 49542, Note_on_c, 0, 86, 76
2, 49546, Note_on_c, 0, 77, 87
2, 49548, Control_c, 0, 64, 0
2, 49549, Note_on_c, 0, 74, 90
2, 49551, Note_on_c, 0, 53, 27
2, 49551, Note_on_c, 0, 81, 74
2, 49561, Note_on_c, 0, 62, 47
2, 49570, Note_on_c, 0, 84, 49
2, 49596, Note_on_c, 0, 60, 24
2, 49621, Note_on_c, 0, 84, 0
2, 49639, Control_c, 0, 64, 127
2, 49670, Note_on_c, 0, 53, 0
2, 49671, Note_on_c, 0, 62, 0
2, 49708, Note_on_c, 0, 74, 0
2, 49709, Note_on_c, 0, 86, 0
2, 49745, Note_on_c, 0, 77, 0
2, 49749, Note_on_c, 0, 81, 0
2, 49776, Note_on_c, 0, 60, 0
2, 49976, Control_c, 0, 64, 0
2, 49984, Note_on_c, 0, 65, 63
2, 49986, Note_on_c, 0, 85, 71
2, 49993, Note_on_c, 0, 56, 59
2, 50002, Note_on_c, 0, 60, 37
2, 50003, Note_on_c, 0, 61, 58
2, 50004, Note_on_c, 0, 73, 58
2, 50006, Note_on_c, 0, 80, 57
2, 50013, Note_on_c, 0, 77, 72
2, 50067, Note_on_c, 0, 58, 21
2, 50100, Note_on_c, 0, 65, 0
2, 50115, Note_on_c, 0, 60, 0
2, 50130, Note_on_c, 0, 73, 0
2, 50146, Note_on_c, 0, 61, 0
2, 50157, Note_on_c, 0, 56, 0
2, 50172, Note_on_c, 0, 77, 0
2, 50172, Note_on_c, 0, 58, 0
2, 50210, Note_on_c, 0, 80, 0
2, 50219, Note_on_c, 0, 85, 0
2, 50473, Note_on_c, 0, 85, 51
2, 50499, Note_on_c, 0, 80, 46
2, 50506, Note_on_c, 0, 77, 53
2, 50511, Note_on_c, 0, 73, 30
2, 50588, Note_on_c, 0, 73, 0
2, 50678, Note_on_c, 0, 77, 0
2, 50708, Note_on_c, 0, 85, 0
2, 50717, Note_on_c, 0, 80, 0
2, 50792, Control_c, 0, 64, 127
2, 50948, Control_c, 0, 64, 0
2, 50956, Note_on_c, 0, 51, 57
2, 50963, Note_on_c, 0, 85, 53
2, 50983, Note_on_c, 0, 80, 43
2, 50984, Note_on_c, 0, 77, 53
2, 50989, Note_on_c, 0, 73, 32
2, 51048, Note_on_c, 0, 73, 0
2, 51054, Note_on_c, 0, 51, 0
2, 51125, Note_on_c, 0, 77, 0
2, 51156, Note_on_c, 0, 80, 0
2, 51163, Note_on_c, 0, 85, 0
2, 51249, Note_on_c, 0, 73, 36
2, 51251, Note_on_c, 0, 85, 36
2, 51255, Note_on_c, 0, 80, 34
2, 51268, Note_on_c, 0, 77, 43
2, 51325, Control_c, 0, 64, 127
2, 51342, Note_on_c, 0, 73, 0
2, 51348, Note_on_c, 0, 77, 0
2, 51366, Note_on_c, 0, 85, 0
2, 51382, Note_on_c, 0, 80, 0
2, 51460, Note_on_c, 0, 85, 35
2, 51470, Note_on_c, 0, 73, 25
2, 51480, Note_on_c, 0, 77, 39
2, 51491, Note_on_c, 0, 80, 25
2, 51639, Note_on_c, 0, 77, 0
2, 51662, Note_on_c, 0, 80, 0
2, 51702, Note_on_c, 0, 73, 0
2, 51768, Note_on_c, 0, 85, 0
2, 51845, Control_c, 0, 64, 0
2, 51891, Note_on_c, 0, 85, 55
2, 51909, Note_on_c, 0, 27, 37
2, 51911, Note_on_c, 0, 39, 35
2, 51912, Note_on_c, 0, 76, 51
2, 51920, Note_on_c, 0, 73, 31
2, 52062, Note_on_c, 0, 27, 0
2, 52090, Control_c, 0, 64, 127
2, 52108, Note_on_c, 0, 39, 0
2, 52618, Note_on_c, 0, 73, 0
2, 52674, Note_on_c, 0, 76, 0
2, 52844, Note_on_c, 0, 64, 49
2, 52850, Note_on_c, 0, 61, 38
2, 52859, Note_on_c, 0, 58, 44
2, 52942, Note_on_c, 0, 64, 0
2, 52993, Note_on_c, 0, 61, 0
2, 53033, Note_on_c, 0, 58, 0
2, 53069, Note_on_c, 0, 85, 0
2, 53364, Note_on_c, 0, 85, 73
2, 53365, Note_on_c, 0, 76, 75
2, 53371, Note_on_c, 0, 73, 61
2, 53404, Note_on_c, 0, 79, 45
2, 53548, Note_on_c, 0, 73, 0
2, 53559, Note_on_c, 0, 76, 0
2, 53594, Note_on_c, 0, 79, 0
2, 53615, Note_on_c, 0, 85, 0
2, 53817, Control_c, 0, 64, 0
2, 53844, Note_on_c, 0, 55, 73
2, 53846, Note_on_c, 0, 76, 81
2, 53853, Note_on_c, 0, 45, 64
2, 53855, Note_on_c, 0, 84, 68
2, 53856, Note_on_c, 0, 72, 73
2, 53864, Note_on_c, 0, 79, 66
2, 53865, Note_on_c, 0, 83, 77
2, 53881, Note_on_c, 0, 82, 55
2, 53958, Note_on_c, 0, 45, 0
2, 53968, Note_on_c, 0, 55, 0
2, 54036, Note_on_c, 0, 83, 0
2, 54047, Note_on_c, 0, 72, 0
2, 54054, Note_on_c, 0, 76, 0
2, 54060, Note_on_c, 0, 82, 0
2, 54066, Note_on_c, 0, 79, 0
2, 54075, Note_on_c, 0, 84, 0
2, 54310, Note_on_c, 0, 84, 59
2, 54316, Note_on_c, 0, 76, 40
2, 54332, Note_on_c, 0, 72, 32
2, 54542, Note_on_c, 0, 76, 0
2, 54543, Note_on_c, 0, 72, 0
2, 54548, Note_on_c, 0, 84, 0
2, 54599, Control_c, 0, 64, 127
2, 54662, Control_c, 0, 64, 0
2, 54752, Note_on_c, 0, 64, 46
2, 54768, Note_on_c, 0, 84, 54
2, 54768, Note_on_c, 0, 76, 44
2, 54776, Note_on_c, 0, 72, 43
2, 54788, Note_on_c, 0, 57, 28
2, 54800, Note_on_c, 0, 55, 19
2, 54803, Note_on_c, 0, 79, 49
2, 54809, Note_on_c, 0, 60, 24
2, 54881, Note_on_c, 0, 60, 0
2, 54890, Note_on_c, 0, 55, 0
2, 54892, Note_on_c, 0, 64, 0
2, 54916, Note_on_c, 0, 72, 0
2, 54934, Note_on_c, 0, 76, 0
2, 54936, Note_on_c, 0, 79, 0
2, 54945, Note_on_c, 0, 84, 0
2, 54972, Note_on_c, 0, 57, 0
2, 55064, Note_on_c, 0, 84, 39
2, 55065, Note_on_c, 0, 72, 40
2, 55067, Note_on_c, 0, 76, 49
2, 55087, Note_on_c, 0, 79, 39
2, 55160, Note_on_c, 0, 79, 0
2, 55177, Note_on_c, 0, 84, 0
2, 55178, Note_on_c, 0, 76, 0
2, 55192, Note_on_c, 0, 72, 0
2, 55280, Note_on_c, 0, 84, 36
2, 55284, Note_on_c, 0, 76, 41
2, 55300, Control_c, 0, 64, 127
2, 55304, Note_on_c, 0, 72, 32
2, 55309, Note_on_c, 0, 79, 39
2, 55450, Note_on_c, 0, 76, 0
2, 55468, Note_on_c, 0, 79, 0
2, 55519, Note_on_c, 0, 72, 0
2, 55575, Note_on_c, 0, 84, 0
2, 55625, Control_c, 0, 64, 0
2, 55709, Note_on_c, 0, 84, 42
2, 55718, Note_on_c, 0, 78, 46
2, 55729, Note_on_c, 0, 38, 44
2, 55731, Note_on_c, 0, 81, 48
2, 55734, Note_on_c, 0, 50, 37
2, 55740, Note_on_c, 0, 72, 27
2, 55910, Control_c, 0, 64, 127
2, 55940, Note_on_c, 0, 38, 0
2, 56029, Note_on_c, 0, 50, 0
2, 56611, Control_c, 0, 64, 0
2, 56645, Note_on_c, 0, 54, 55
2, 56675, Note_on_c, 0, 65, 31
2, 56677, Note_on_c, 0, 64, 32
2, 56681, Note_on_c, 0, 60, 40
2, 56690, Control_c, 0, 64, 127
2, 56747, Note_on_c, 0, 65, 0
2, 56784, Note_on_c, 0, 64, 0
2, 56826, Note_on_c, 0, 60, 0
2, 56860, Note_on_c, 0, 54, 0
2, 56928, Note_on_c, 0, 81, 0
2, 56959, Note_on_c, 0, 84, 0
2, 56969, Note_on_c, 0, 78, 0
2, 56983, Note_on_c, 0, 72, 0
2, 57167, Note_on_c, 0, 84, 80
2, 57170, Note_on_c, 0, 78, 83
2, 57187, Note_on_c, 0, 72, 78
2, 57366, Note_on_c, 0, 84, 0
2, 57415, Note_on_c, 0, 78, 0
2, 57425, Note_on_c, 0, 72, 0
2, 57598, Control_c, 0, 64, 0
2, 57634, Note_on_c, 0, 82, 71
2, 57638, Note_on_c, 0, 58, 67
2, 57639, Note_on_c, 0, 48, 69
2, 57646, Note_on_c, 0, 75, 71
2, 57655, Note_on_c, 0, 70, 71
2, 57661, Note_on_c, 0, 79, 64
2, 57846, Control_c, 0, 64, 127
2, 57856, Note_on_c, 0, 48, 0
2, 57881, Note_on_c, 0, 70, 0
2, 57893, Note_on_c, 0, 82, 0
2, 57914, Note_on_c, 0, 79, 0
2, 57915, Note_on_c, 0, 75, 0
2, 57933, Note_on_c, 0, 58, 0
2, 57937, Control_c, 0, 64, 0
2, 58157, Note_on_c, 0, 82, 52
2, 58174, Note_on_c, 0, 75, 60
2, 58189, Note_on_c, 0, 70, 49
2, 58212, Note_on_c, 0, 79, 46
2, 58275, Control_c, 0, 64, 127
2, 58384, Note_on_c, 0, 70, 0
2, 58410, Note_on_c, 0, 82, 0
2, 58417, Note_on_c, 0, 75, 0
2, 58440, Note_on_c, 0, 79, 0
2, 58535, Control_c, 0, 64, 0
2, 58601, Note_on_c, 0, 58, 43
2, 58602, Note_on_c, 0, 82, 56
2, 58606, Note_on_c, 0, 67, 36
2, 58621, Note_on_c, 0, 63, 36
2, 58623, Note_on_c, 0, 70, 53
2, 58625, Note_on_c, 0, 75, 55
2, 58650, Note_on_c, 0, 79, 39
2, 58675, Note_on_c, 0, 67, 0
2, 58690, Control_c, 0, 64, 127
2, 58701, Note_on_c, 0, 63, 0
2, 58737, Note_on_c, 0, 58, 0
2, 58758, Note_on_c, 0, 70, 0
2, 58764, Note_on_c, 0, 82, 0
2, 58776, Note_on_c, 0, 75, 0
2, 58800, Note_on_c, 0, 79, 0
2, 58881, Note_on_c, 0, 82, 47
2, 58900, Note_on_c, 0, 70, 49
2, 58910, Note_on_c, 0, 75, 44
2, 58931, Note_on_c, 0, 79, 30
2, 59010, Note_on_c, 0, 70, 0
2, 59018, Note_on_c, 0, 82, 0
2, 59030, Note_on_c, 0, 79, 0
2, 59035, Note_on_c, 0, 75, 0
2, 59120, Note_on_c, 0, 82, 39
2, 59129, Note_on_c, 0, 75, 39
2, 59136, Note_on_c, 0, 70, 38
2, 59290, Note_on_c, 0, 70, 0
2, 59387, Note_on_c, 0, 82, 0
2, 59404, Note_on_c, 0, 75, 0
2, 59548, Control_c, 0, 64, 0
2, 59565, Note_on_c, 0, 41, 38
2, 59578, Note_on_c, 0, 81, 55
2, 59587, Note_on_c, 0, 69, 49
2, 59593, Note_on_c, 0, 74, 61
2, 59600, Note_on_c, 0, 78, 40
2, 59622, Note_on_c, 0, 57, 47
2, 59628, Note_on_c, 0, 55, 40
2, 59780, Note_on_c, 0, 55, 0
2, 59794, Control_c, 0, 64, 127
2, 59851, Note_on_c, 0, 41, 0
2, 59947, Note_on_c, 0, 78, 0
2, 59978, Note_on_c, 0, 57, 0
2, 60002, Note_on_c, 0, 74, 0
2, 60033, Note_on_c, 0, 69, 0
2, 60089, Note_on_c, 0, 81, 0
2, 60101, Note_on_c, 0, 78, 67
2, 60131, Note_on_c, 0, 69, 61
2, 60383, Note_on_c, 0, 69, 0
2, 60387, Note_on_c, 0, 78, 0
2, 60573, Note_on_c, 0, 78, 79
2, 60575, Control_c, 0, 64, 0
2, 60577, Note_on_c, 0, 63, 62
2, 60578, Note_on_c, 0, 67, 64
2, 60587, Note_on_c, 0, 69, 71
2, 60591, Note_on_c, 0, 57, 58
2, 60678, Control_c, 0, 64, 127
2, 60792, Note_on_c, 0, 69, 0
2, 60805, Note_on_c, 0, 78, 0
2, 60895, Note_on_c, 0, 78, 65
2, 60919, Note_on_c, 0, 69, 56
2, 61031, Note_on_c, 0, 69, 0
2, 61061, Note_on_c, 0, 67, 0
2, 61092, Note_on_c, 0, 78, 0
2, 61125, Note_on_c, 0, 74, 53
2, 61230, Note_on_c, 0, 63, 0
2, 61404, Note_on_c, 0, 74, 0
2, 61492, Note_on_c, 0, 57, 0
2, 61548, Control_c, 0, 64, 0
2, 61556, Note_on_c, 0, 65, 41
2, 61582, Note_on_c, 0, 62, 50
2, 61611, Note_on_c, 0, 60, 37
2, 62109, Note_on_c, 0, 81, 88
2, 62211, Control_c, 0, 64, 127
2, 62285, Note_on_c, 0, 81, 0
2, 62442, Note_on_c, 0, 82, 69
2, 62474, Note_on_c, 0, 65, 0
2, 62484, Control_c, 0, 64, 0
2, 62526, Note_on_c, 0, 53, 32
2, 62611, Note_on_c, 0, 82, 0
2, 62855, Note_on_c, 0, 82, 67
2, 62900, Control_c, 0, 64, 127
2, 63024, Note_on_c, 0, 60, 0
2, 63050, Note_on_c, 0, 62, 0
2, 63155, Note_on_c, 0, 77, 53
2, 63347, Note_on_c, 0, 77, 0
2, 63481, Note_on_c, 0, 60, 33
2, 63488, Note_on_c, 0, 65, 35
2, 63497, Control_c, 0, 64, 0
2, 63500, Note_on_c, 0, 62, 36
2, 63507, Note_on_c, 0, 77, 55
2, 63821, Control_c, 0, 64, 127
2, 63882, Note_on_c, 0, 53, 0
2, 64027, Note_on_c, 0, 65, 0
2, 64250, Control_c, 0, 64, 0
2, 64363, Note_on_c, 0, 53, 36
2, 64385, Note_on_c, 0, 60, 0
2, 64424, Note_on_c, 0, 62, 0
2, 64444, Control_c, 0, 64, 127
2, 64496, Note_on_c, 0, 53, 0
2, 65055, Note_on_c, 0, 79, 44
2, 65070, Note_on_c, 0, 77, 0
2, 65090, Note_on_c, 0, 82, 0
2, 65315, Control_c, 0, 64, 0
2, 65336, Note_on_c, 0, 40, 35
2, 65345, Note_on_c, 0, 47, 34
2, 65370, Note_on_c, 0, 79, 0
2, 65376, Note_on_c, 0, 81, 51
2, 65400, Note_on_c, 0, 55, 24
2, 65563, Control_c, 0, 64, 127
2, 65574, Note_on_c, 0, 40, 0
2, 65626, Note_on_c, 0, 47, 0
2, 65716, Note_on_c, 0, 55, 0
2, 66264, Control_c, 0, 64, 0
2, 66273, Note_on_c, 0, 62, 44
2, 66316, Note_on_c, 0, 59, 33
2, 66339, Note_on_c, 0, 52, 22
2, 66353, Note_on_c, 0, 55, 20
2, 66458, Control_c, 0, 64, 127
2, 66514, Note_on_c, 0, 52, 0
2, 66531, Note_on_c, 0, 55, 0
2, 66539, Note_on_c, 0, 59, 0
2, 66618, Note_on_c, 0, 62, 0
2, 66890, Note_on_c, 0, 81, 0
2, 67214, Note_on_c, 0, 61, 35
2, 67224, Note_on_c, 0, 66, 45
2, 67250, Control_c, 0, 64, 0
2, 67252, Note_on_c, 0, 55, 31
2, 67587, Note_on_c, 0, 96, 80
2, 67745, Note_on_c, 0, 96, 0
2, 67897, Note_on_c, 0, 94, 73
2, 67927, Control_c, 0, 64, 127
2, 68003, Note_on_c, 0, 55, 0
2, 68011, Note_on_c, 0, 66, 0
2, 68049, Note_on_c, 0, 61, 0
2, 68069, Note_on_c, 0, 94, 0
2, 68141, Note_on_c, 0, 85, 64
2, 68186, Control_c, 0, 64, 0
2, 68187, Note_on_c, 0, 61, 37
2, 68205, Note_on_c, 0, 65, 38
2, 68222, Note_on_c, 0, 55, 32
2, 68347, Note_on_c, 0, 85, 0
2, 68404, Note_on_c, 0, 84, 57
2, 68580, Note_on_c, 0, 84, 0
2, 68660, Note_on_c, 0, 82, 51
2, 68729, Note_on_c, 0, 55, 0
2, 68732, Control_c, 0, 64, 127
2, 68751, Note_on_c, 0, 65, 0
2, 68849, Note_on_c, 0, 82, 0
2, 68891, Note_on_c, 0, 81, 45
2, 69057, Control_c, 0, 64, 0
2, 69080, Note_on_c, 0, 81, 0
2, 69116, Note_on_c, 0, 79, 44
2, 69123, Note_on_c, 0, 64, 38
2, 69168, Note_on_c, 0, 54, 27
2, 69170, Note_on_c, 0, 59, 32
2, 69294, Note_on_c, 0, 79, 0
2, 69398, Note_on_c, 0, 78, 29
2, 69564, Note_on_c, 0, 78, 0
2, 69632, Note_on_c, 0, 81, 60
2, 69718, Note_on_c, 0, 64, 0
2, 69737, Note_on_c, 0, 81, 0
2, 69823, Control_c, 0, 64, 127
2, 69824, Note_on_c, 0, 59, 0
2, 69854, Note_on_c, 0, 73, 57
2, 69858, Note_on_c, 0, 61, 0
2, 69965, Note_on_c, 0, 73, 0
2, 70069, Control_c, 0, 64, 0
2, 70107, Note_on_c, 0, 73, 43
2, 70122, Note_on_c, 0, 61, 39
2, 70123, Note_on_c, 0, 64, 39
2, 70213, Note_on_c, 0, 73, 0
2, 70370, Note_on_c, 0, 64, 0
2, 70375, Note_on_c, 0, 73, 35
2, 70472, Control_c, 0, 64, 127
2, 70495, Note_on_c, 0, 61, 0
2, 70539, Note_on_c, 0, 54, 0
2, 70556, Note_on_c, 0, 73, 0
2, 70600, Note_on_c, 0, 69, 36
2, 70696, Note_on_c, 0, 69, 0
2, 70849, Note_on_c, 0, 69, 41
2, 71108, Control_c, 0, 64, 0
2, 71112, Note_on_c, 0, 54, 30
2, 71123, Note_on_c, 0, 57, 25
2, 71137, Note_on_c, 0, 50, 27
2, 71408, Control_c, 0, 64, 127
2, 71445, Note_on_c, 0, 50, 0
2, 71509, Note_on_c, 0, 57, 0
2, 71515, Note_on_c, 0, 69, 0
2, 71540, Note_on_c, 0, 54, 0
2, 71567, Note_on_c, 0, 66, 46
2, 71711, Note_on_c, 0, 66, 0
2, 71820, Note_on_c, 0, 66, 56
2, 71995, Note_on_c, 0, 66, 0
2, 72087, Note_on_c, 0, 64, 50
2, 72109, Note_on_c, 0, 61, 34
2, 72123, Note_on_c, 0, 54, 27
2, 72135, Control_c, 0, 64, 0
2, 72143, Note_on_c, 0, 66, 72
2, 72157, Note_on_c, 0, 59, 34
2, 72229, Note_on_c, 0, 59, 0
2, 72248, Note_on_c, 0, 64, 0
2, 72296, Note_on_c, 0, 54, 0
2, 72302, Note_on_c, 0, 61, 0
2, 72369, Control_c, 0, 64, 127
2, 72376, Note_on_c, 0, 66, 0
2, 72434, Note_on_c, 0, 67, 62
2, 72639, Note_on_c, 0, 67, 0
2, 72747, Note_on_c, 0, 68, 76
2, 73025, Note_on_c, 0, 68, 0
2, 73058, Control_c, 0, 64, 0
2, 73060, Note_on_c, 0, 47, 29
2, 73073, Note_on_c, 0, 40, 40
2, 73102, Note_on_c, 0, 55, 34
2, 73111, Note_on_c, 0, 69, 63
2, 73265, Control_c, 0, 64, 127
2, 73328, Note_on_c, 0, 69, 0
2, 73347, Note_on_c, 0, 40, 0
2, 73389, Note_on_c, 0, 47, 0
2, 73506, Note_on_c, 0, 55, 0
2, 73712, Note_on_c, 0, 81, 84
2, 73719, Note_on_c, 0, 74, 89
2, 73965, Note_on_c, 0, 81, 0
2, 73991, Note_on_c, 0, 74, 0
2, 74019, Control_c, 0, 64, 0
2, 74054, Note_on_c, 0, 59, 33
2, 74056, Note_on_c, 0, 62, 50
2, 74062, Note_on_c, 0, 77, 59
2, 74075, Note_on_c, 0, 69, 50
2, 74084, Note_on_c, 0, 52, 22
2, 74085, Note_on_c, 0, 74, 33
2, 74291, Control_c, 0, 64, 127
2, 74342, Note_on_c, 0, 74, 0
2, 74350, Note_on_c, 0, 52, 0
2, 74425, Note_on_c, 0, 59, 0
2, 74464, Note_on_c, 0, 62, 0
2, 74470, Note_on_c, 0, 69, 0
2, 74530, Note_on_c, 0, 77, 0
2, 74632, Note_on_c, 0, 81, 65
2, 74650, Note_on_c, 0, 74, 63
2, 74742, Note_on_c, 0, 74, 0
2, 74789, Note_on_c, 0, 81, 0
2, 74964, Note_on_c, 0, 77, 73
2, 74965, Note_on_c, 0, 84, 77
2, 74967, Control_c, 0, 64, 0
2, 74985, Note_on_c, 0, 61, 51
2, 74990, Note_on_c, 0, 66, 49
2, 74993, Note_on_c, 0, 55, 41
2, 74999, Note_on_c, 0, 72, 39
2, 75227, Control_c, 0, 64, 127
2, 75381, Note_on_c, 0, 77, 0
2, 75476, Note_on_c, 0, 72, 0
2, 75481, Note_on_c, 0, 83, 51
2, 75523, Note_on_c, 0, 66, 0
2, 75533, Note_on_c, 0, 55, 0
2, 75539, Note_on_c, 0, 84, 0
2, 75567, Note_on_c, 0, 82, 64
2, 75652, Note_on_c, 0, 83, 0
2, 75685, Note_on_c, 0, 61, 0
2, 75701, Note_on_c, 0, 81, 60
2, 75720, Note_on_c, 0, 82, 0
2, 75830, Note_on_c, 0, 81, 0
2, 75902, Control_c, 0, 64, 0
2, 75985, Note_on_c, 0, 65, 45
2, 75990, Note_on_c, 0, 61, 25
2, 76007, Note_on_c, 0, 55, 36
2, 76202, Control_c, 0, 64, 127
2, 76602, Note_on_c, 0, 55, 0
2, 76693, Note_on_c, 0, 65, 0
2, 76876, Control_c, 0, 64, 0
2, 76904, Note_on_c, 0, 78, 45
2, 76911, Note_on_c, 0, 64, 37
2, 76942, Note_on_c, 0, 69, 32
2, 76948, Note_on_c, 0, 73, 34
2, 76959, Note_on_c, 0, 54, 33
2, 76968, Note_on_c, 0, 59, 36
2, 77136, Control_c, 0, 64, 127
2, 77341, Note_on_c, 0, 59, 0
2, 77349, Note_on_c, 0, 78, 0
2, 77359, Note_on_c, 0, 64, 0
2, 77364, Note_on_c, 0, 73, 0
2, 77391, Note_on_c, 0, 61, 0
2, 77438, Note_on_c, 0, 69, 0
2, 77441, Note_on_c, 0, 54, 0
2, 77785, Control_c, 0, 64, 0
2, 77806, Note_on_c, 0, 69, 45
2, 77807, Note_on_c, 0, 66, 36
2, 77816, Note_on_c, 0, 57, 44
2, 77827, Note_on_c, 0, 50, 34
2, 77835, Note_on_c, 0, 54, 35
2, 78007, Control_c, 0, 64, 127
2, 78076, Note_on_c, 0, 69, 0
2, 78104, Note_on_c, 0, 57, 0
2, 78148, Note_on_c, 0, 66, 0
2, 78205, Note_on_c, 0, 54, 0
2, 78233, Note_on_c, 0, 50, 0
2, 78747, Note_on_c, 0, 61, 60
2, 78748, Note_on_c, 0, 66, 59
2, 78759, Note_on_c, 0, 57, 51
2, 78786, Control_c, 0, 64, 0
2, 79119, Note_on_c, 0, 48, 69
2, 79449, Note_on_c, 0, 48, 0
2, 79457, Note_on_c, 0, 49, 75
2, 79732, Note_on_c, 0, 49, 0
2, 79801, Note_on_c, 0, 50, 64
2, 80304, Note_on_c, 0, 50, 0
2, 80339, Note_on_c, 0, 49, 53
2, 80384, Control_c, 0, 64, 127
2, 80524, Note_on_c, 0, 66, 0
2, 80556, Note_on_c, 0, 57, 0
2, 80573, Control_c, 0, 64, 0
2, 80624, Note_on_c, 0, 57, 46
2, 80625, Note_on_c, 0, 50, 55
2, 80633, Note_on_c, 0, 60, 44
2, 80634, Note_on_c, 0, 61, 0
2, 80638, Note_on_c, 0, 65, 37
2, 80685, Note_on_c, 0, 49, 0
2, 81033, Note_on_c, 0, 51, 52
2, 81064, Note_on_c, 0, 50, 0
2, 81229, Note_on_c, 0, 51, 0
2, 81233, Note_on_c, 0, 52, 55
2, 81235, Control_c, 0, 64, 127
2, 81301, Control_c, 0, 64, 0
2, 81355, Note_on_c, 0, 52, 0
2, 81379, Note_on_c, 0, 53, 52
2, 81600, Control_c, 0, 64, 127
2, 81600, Note_on_c, 0, 57, 32
2, 81600, Note_on_c, 0, 60, 44
2, 81717, Note_on_c, 0, 57, 0
2, 81733, Note_on_c, 0, 60, 0
2, 81796, Note_on_c, 0, 60, 0
2, 81848, Note_on_c, 0, 57, 0
2, 82643, Note_on_c, 0, 56, 32
2, 82649, Note_on_c, 0, 59, 45
2, 82657, Control_c, 0, 64, 0
2, 82666, Note_on_c, 0, 43, 31
2, 83060, Control_c, 0, 64, 127
2, 83098, Note_on_c, 0, 65, 0
2, 83118, Note_on_c, 0, 56, 0
2, 83194, Note_on_c, 0, 59, 0
2, 83300, Note_on_c, 0, 53, 0
2, 83604, Note_on_c, 0, 53, 45
2, 83849, Note_on_c, 0, 43, 0
2, 83934, Note_on_c, 0, 67, 64
2, 83956, Note_on_c, 0, 53, 0
2, 84097, Note_on_c, 0, 67, 0
2, 84216, Note_on_c, 0, 65, 60
2, 84389, Note_on_c, 0, 65, 0
2, 84501, Control_c, 0, 64, 0
2, 84522, Note_on_c, 0, 64, 58
2, 84528, Note_on_c, 0, 43, 30
2, 84551, Note_on_c, 0, 52, 36
2, 84571, Note_on_c, 0, 36, 24
2, 84785, Note_on_c, 0, 36, 0
2, 84788, Control_c, 0, 64, 127
2, 84847, Note_on_c, 0, 43, 0
2, 84951, Note_on_c, 0, 64, 0
2, 84961, Note_on_c, 0, 52, 0
2, 85462, Control_c, 0, 64, 0
2, 85467, Note_on_c, 0, 71, 51
2, 85468, Note_on_c, 0, 62, 37
2, 85475, Note_on_c, 0, 67, 39
2, 85504, Note_on_c, 0, 57, 37
2, 85526, Note_on_c, 0, 52, 22
2, 85646, Control_c, 0, 64, 127
2, 85749, Note_on_c, 0, 67, 0
2, 85769, Note_on_c, 0, 57, 0
2, 85771, Note_on_c, 0, 52, 0
2, 85797, Note_on_c, 0, 71, 0
2, 85818, Note_on_c, 0, 62, 0
2, 85996, Control_c, 0, 64, 0
2, 86040, Note_on_c, 0, 79, 62
2, 86050, Note_on_c, 0, 64, 47
2, 86051, Note_on_c, 0, 74, 60
2, 86053, Note_on_c, 0, 69, 47
2, 86191, Control_c, 0, 64, 127
2, 86207, Note_on_c, 0, 74, 0
2, 86217, Note_on_c, 0, 79, 0
2, 86298, Note_on_c, 0, 69, 0
2, 86475, Note_on_c, 0, 64, 0
2, 86476, Control_c, 0, 64, 0
2, 86485, Note_on_c, 0, 76, 53
2, 86502, Note_on_c, 0, 71, 58
2, 86513, Note_on_c, 0, 67, 37
2, 86527, Note_on_c, 0, 62, 40
2, 86658, Control_c, 0, 64, 127
2, 86726, Note_on_c, 0, 67, 0
2, 86794, Note_on_c, 0, 71, 0
2, 86817, Note_on_c, 0, 76, 0
2, 86825, Note_on_c, 0, 62, 0
2, 87047, Note_on_c, 0, 86, 66
2, 87196, Note_on_c, 0, 86, 0
2, 87465, Note_on_c, 0, 83, 57
2, 87490, Note_on_c, 0, 74, 47
2, 87494, Note_on_c, 0, 76, 41
2, 87498, Note_on_c, 0, 71, 40
2, 87870, Note_on_c, 0, 71, 0
2, 87901, Note_on_c, 0, 76, 0
2, 87902, Note_on_c, 0, 83, 0
2, 87928, Note_on_c, 0, 67, 45
2, 87945, Note_on_c, 0, 74, 0
2, 87997, Note_on_c, 0, 67, 0
2, 88398, Note_on_c, 0, 70, 47
2, 88400, Control_c, 0, 64, 0
2, 88401, Note_on_c, 0, 77, 48
2, 88410, Note_on_c, 0, 65, 41
2, 88410, Note_on_c, 0, 74, 59
2, 88775, Control_c, 0, 64, 127
2, 88840, Note_on_c, 0, 58, 49
2, 88978, Note_on_c, 0, 65, 0
2, 89321, Note_on_c, 0, 62, 50
2, 89627, Note_on_c, 0, 58, 0
2, 89707, Note_on_c, 0, 62, 0
2, 89841, Control_c, 0, 64, 0
2, 89842, Note_on_c, 0, 60, 57
2, 89868, Note_on_c, 0, 70, 0
2, 89995, Note_on_c, 0, 74, 0
2, 90061, Control_c, 0, 64, 127
2, 90293, Note_on_c, 0, 65, 60
2, 90296, Control_c, 0, 64, 0
2, 90395, Note_on_c, 0, 77, 0
2, 90451, Control_c, 0, 64, 127
2, 90784, Note_on_c, 0, 70, 47
2, 91040, Note_on_c, 0, 70, 0
2, 91082, Note_on_c, 0, 65, 0
2, 91111, Note_on_c, 0, 60, 0
2, 91262, Note_on_c, 0, 75, 48
2, 91729, Note_on_c, 0, 85, 60
2, 91890, Note_on_c, 0, 85, 0
2, 91956, Note_on_c, 0, 75, 0
2, 92153, Control_c, 0, 64, 0
2, 92170, Note_on_c, 0, 88, 44
2, 92180, Note_on_c, 0, 41, 36
2, 92183, Note_on_c, 0, 76, 32
2, 92199, Note_on_c, 0, 81, 33
2, 92394, Note_on_c, 0, 41, 0
2, 92400, Control_c, 0, 64, 127
2, 92435, Note_on_c, 0, 76, 0
2, 92473, Note_on_c, 0, 81, 0
2, 92509, Note_on_c, 0, 88, 0
2, 92676, Note_on_c, 0, 91, 56
2, 92790, Note_on_c, 0, 91, 0
2, 93099, Note_on_c, 0, 64, 33
2, 93102, Control_c, 0, 64, 0
2, 93108, Note_on_c, 0, 88, 36
2, 93137, Note_on_c, 0, 76, 37
2, 93143, Note_on_c, 0, 81, 47
2, 93151, Note_on_c, 0, 60, 24
2, 93162, Note_on_c, 0, 57, 27
2, 93171, Note_on_c, 0, 53, 11
2, 93335, Control_c, 0, 64, 127
2, 93385, Note_on_c, 0, 88, 0
2, 93397, Note_on_c, 0, 81, 0
2, 93457, Note_on_c, 0, 64, 0
2, 93497, Note_on_c, 0, 76, 0
2, 93507, Note_on_c, 0, 60, 0
2, 93594, Note_on_c, 0, 57, 0
2, 94067, Note_on_c, 0, 64, 64
2, 94587, Note_on_c, 0, 62, 61
2, 94620, Note_on_c, 0, 64, 0
2, 94899, Note_on_c, 0, 62, 0
2, 95042, Note_on_c, 0, 72, 55
2, 95051, Control_c, 0, 64, 0
2, 95060, Note_on_c, 0, 67, 57
2, 95062, Note_on_c, 0, 64, 57
2, 95270, Control_c, 0, 64, 127
2, 95368, Note_on_c, 0, 72, 0
2, 95472, Note_on_c, 0, 64, 0
2, 95539, Note_on_c, 0, 74, 70
2, 95548, Note_on_c, 0, 67, 0
2, 95568, Note_on_c, 0, 60, 41
2, 95635, Note_on_c, 0, 60, 0
2, 95647, Note_on_c, 0, 53, 0
2, 95719, Note_on_c, 0, 74, 0
2, 96011, Control_c, 0, 64, 0
2, 96023, Note_on_c, 0, 76, 49
2, 96032, Note_on_c, 0, 65, 45
2, 96036, Note_on_c, 0, 71, 49
2, 96042, Note_on_c, 0, 57, 45
2, 96050, Note_on_c, 0, 47, 32
2, 96058, Note_on_c, 0, 69, 54
2, 96284, Control_c, 0, 64, 127
2, 96347, Note_on_c, 0, 47, 0
2, 96445, Note_on_c, 0, 57, 0
2, 97044, Note_on_c, 0, 64, 74
2, 97104, Control_c, 0, 64, 0
2, 97463, Note_on_c, 0, 65, 0
2, 97491, Control_c, 0, 64, 127
2, 97530, Note_on_c, 0, 62, 55
2, 97544, Note_on_c, 0, 69, 0
2, 97591, Note_on_c, 0, 64, 0
2, 97609, Note_on_c, 0, 71, 0
2, 97919, Note_on_c, 0, 62, 0
2, 97995, Note_on_c, 0, 65, 43
2, 98015, Note_on_c, 0, 68, 49
2, 98475, Note_on_c, 0, 56, 78
2, 98612, Note_on_c, 0, 65, 0
2, 98714, Note_on_c, 0, 76, 0
2, 98841, Note_on_c, 0, 68, 0
2, 98966, Note_on_c, 0, 68, 35
2, 98981, Note_on_c, 0, 64, 46
2, 99193, Note_on_c, 0, 56, 0
2, 99440, Note_on_c, 0, 64, 0
2, 99471, Note_on_c, 0, 74, 56
2, 99705, Note_on_c, 0, 68, 0
2, 99789, Note_on_c, 0, 74, 0
2, 99974, Note_on_c, 0, 41, 27
2, 99982, Note_on_c, 0, 64, 30
2, 99987, Control_c, 0, 64, 0
2, 99987, Note_on_c, 0, 72, 42
2, 99990, Note_on_c, 0, 69, 46
2, 100000, Note_on_c, 0, 43, 27
2, 100013, Note_on_c, 0, 48, 28
2, 100185, Note_on_c, 0, 43, 0
2, 100254, Note_on_c, 0, 41, 0
2, 100285, Control_c, 0, 64, 127
2, 100287, Note_on_c, 0, 64, 0
2, 100358, Note_on_c, 0, 48, 0
2, 100434, Note_on_c, 0, 72, 0
2, 100481, Note_on_c, 0, 69, 0
2, 100947, Control_c, 0, 64, 0
2, 100968, Note_on_c, 0, 76, 53
2, 100980, Note_on_c, 0, 65, 51
2, 100988, Note_on_c, 0, 60, 47
2, 100989, Note_on_c, 0, 69, 53
2, 100997, Note_on_c, 0, 72, 44
2, 101143, Control_c, 0, 64, 127
2, 101229, Note_on_c, 0, 65, 0
2, 101234, Note_on_c, 0, 76, 0
2, 101384, Note_on_c, 0, 72, 0
2, 101391, Note_on_c, 0, 69, 0
2, 101453, Note_on_c, 0, 60, 0
2, 101454, Note_on_c, 0, 77, 77
2, 101474, Note_on_c, 0, 69, 48
2, 101479, Note_on_c, 0, 62, 60
2, 101480, Control_c, 0, 64, 0
2, 101597, Control_c, 0, 64, 127
2, 101628, Note_on_c, 0, 77, 0
2, 101658, Note_on_c, 0, 62, 0
2, 101667, Note_on_c, 0, 69, 0
2, 102350, Control_c, 0, 64, 0
2, 102361, Note_on_c, 0, 69, 53
2, 102369, Note_on_c, 0, 64, 55
2, 102377, Note_on_c, 0, 72, 49
2, 102389, Note_on_c, 0, 57, 47
2, 102636, Control_c, 0, 64, 127
2, 102732, Note_on_c, 0, 64, 0
2, 102796, Note_on_c, 0, 72, 0
2, 102880, Note_on_c, 0, 69, 0
2, 103105, Note_on_c, 0, 57, 0
2, 103116, Note_on_c, 0, 74, 51
2, 103125, Note_on_c, 0, 59, 49
2, 103133, Note_on_c, 0, 72, 45
2, 103134, Note_on_c, 0, 62, 46
2, 103135, Note_on_c, 0, 68, 53
2, 103155, Control_c, 0, 64, 0
2, 103247, Control_c, 0, 64, 127
2, 103343, Note_on_c, 0, 74, 0
2, 103346, Note_on_c, 0, 72, 0
2, 103387, Note_on_c, 0, 68, 0
2, 103403, Note_on_c, 0, 62, 0
2, 103740, Control_c, 0, 64, 0
2, 103749, Note_on_c, 0, 72, 51
2, 103766, Note_on_c, 0, 67, 47
2, 103773, Note_on_c, 0, 63, 35
2, 103774, Note_on_c, 0, 59, 0
2, 103782, Note_on_c, 0, 62, 55
2, 103788, Note_on_c, 0, 69, 40
2, 104195, Control_c, 0, 64, 127
2, 104732, Note_on_c, 0, 50, 37
2, 104821, Note_on_c, 0, 62, 0
2, 105025, Note_on_c, 0, 67, 0
2, 105053, Note_on_c, 0, 69, 0
2, 105125, Note_on_c, 0, 72, 0
2, 105130, Note_on_c, 0, 63, 0
2, 105158, Note_on_c, 0, 50, 0
2, 105687, Note_on_c, 0, 60, 40
2, 105690, Control_c, 0, 64, 0
2, 105696, Note_on_c, 0, 38, 37
2, 105697, Note_on_c, 0, 63, 39
2, 105712, Note_on_c, 0, 50, 36
2, 106016, Control_c, 0, 64, 127
2, 106064, Note_on_c, 0, 38, 0
2, 106213, Note_on_c, 0, 50, 0
2, 106391, Note_on_c, 0, 60, 0
2, 106645, Note_on_c, 0, 60, 40
2, 106646, Note_on_c, 0, 50, 42
2, 106786, Note_on_c, 0, 50, 0
2, 107193, Note_on_c, 0, 60, 0
2, 107433, Note_on_c, 0, 63, 0
2, 107608, Note_on_c, 0, 58, 54
2, 107614, Note_on_c, 0, 62, 57
2, 107628, Control_c, 0, 64, 0
2, 108107, Note_on_c, 0, 57, 74
2, 108381, Control_c, 0, 64, 127
2, 108431, Note_on_c, 0, 62, 0
2, 108441, Note_on_c, 0, 58, 0
2, 108590, Control_c, 0, 64, 0
2, 108603, Note_on_c, 0, 62, 27
2, 108606, Note_on_c, 0, 58, 46
2, 108822, Control_c, 0, 64, 127
2, 109005, Control_c, 0, 64, 0
2, 109055, Note_on_c, 0, 55, 65
2, 109133, Note_on_c, 0, 57, 0
2, 109264, Control_c, 0, 64, 127
2, 109318, Note_on_c, 0, 62, 0
2, 109324, Note_on_c, 0, 58, 0
2, 109499, Control_c, 0, 64, 0
2, 109552, Note_on_c, 0, 58, 36
2, 109571, Note_on_c, 0, 55, 0
2, 109574, Note_on_c, 0, 62, 41
2, 109575, Note_on_c, 0, 54, 57
2, 109837, Control_c, 0, 64, 127
2, 109992, Control_c, 0, 64, 0
2, 110064, Note_on_c, 0, 57, 65
2, 110086, Note_on_c, 0, 54, 0
2, 110251, Control_c, 0, 64, 127
2, 110368, Note_on_c, 0, 58, 0
2, 110391, Note_on_c, 0, 62, 0
2, 110420, Control_c, 0, 64, 0
2, 110543, Note_on_c, 0, 58, 47
2, 110548, Note_on_c, 0, 62, 30
2, 110556, Note_on_c, 0, 55, 50
2, 110564, Note_on_c, 0, 57, 0
2, 110655, Control_c, 0, 64, 127
2, 110967, Control_c, 0, 64, 0
2, 111096, Control_c, 0, 64, 127
2, 111299, Note_on_c, 0, 62, 0
2, 111315, Note_on_c, 0, 54, 51
2, 111336, Note_on_c, 0, 55, 0
2, 111398, Note_on_c, 0, 58, 0
2, 111433, Note_on_c, 0, 54, 0
2, 111546, Note_on_c, 0, 61, 29
2, 111589, Control_c, 0, 64, 0
2, 111597, Note_on_c, 0, 61, 0
2, 111627, Note_on_c, 0, 46, 49
2, 111633, Note_on_c, 0, 56, 42
2, 111650, Note_on_c, 0, 60, 41
2, 111673, Note_on_c, 0, 53, 24
2, 111954, Control_c, 0, 64, 127
2, 111997, Note_on_c, 0, 56, 0
2, 112058, Note_on_c, 0, 60, 0
2, 112352, Note_on_c, 0, 61, 48
2, 112390, Note_on_c, 0, 65, 57
2, 112403, Note_on_c, 0, 56, 44
2, 112613, Note_on_c, 0, 53, 0
2, 112652, Note_on_c, 0, 46, 0
2, 112736, Note_on_c, 0, 56, 0
2, 112775, Note_on_c, 0, 61, 0
2, 112891, Note_on_c, 0, 58, 72
2, 112908, Note_on_c, 0, 61, 62
2, 112916, Note_on_c, 0, 70, 67
2, 113086, Note_on_c, 0, 61, 0
2, 113123, Note_on_c, 0, 65, 0
2, 113263, Note_on_c, 0, 70, 0
2, 113331, Control_c, 0, 64, 0
2, 113339, Note_on_c, 0, 72, 76
2, 113340, Note_on_c, 0, 65, 80
2, 113346, Note_on_c, 0, 60, 71
2, 113349, Note_on_c, 0, 61, 77
2, 113419, Note_on_c, 0, 58, 0
2, 113603, Control_c, 0, 64, 127
2, 113712, Note_on_c, 0, 72, 0
2, 113745, Note_on_c, 0, 61, 0
2, 113839, Note_on_c, 0, 72, 53
2, 113860, Note_on_c, 0, 61, 48
2, 113865, Note_on_c, 0, 60, 0
2, 114063, Note_on_c, 0, 61, 0
2, 114136, Note_on_c, 0, 72, 0
2, 114182, Note_on_c, 0, 65, 0
2, 114266, Note_on_c, 0, 44, 43
2, 114291, Control_c, 0, 64, 0
2, 114294, Note_on_c, 0, 61, 54
2, 114307, Note_on_c, 0, 65, 53
2, 114308, Note_on_c, 0, 70, 57
2, 114470, Note_on_c, 0, 44, 0
2, 114474, Control_c, 0, 64, 127
2, 114670, Note_on_c, 0, 70, 0
2, 114699, Note_on_c, 0, 61, 0
2, 114749, Note_on_c, 0, 65, 0
2, 114812, Note_on_c, 0, 70, 46
2, 114822, Note_on_c, 0, 61, 37
2, 114848, Note_on_c, 0, 65, 20
2, 114940, Note_on_c, 0, 61, 0
2, 114949, Note_on_c, 0, 65, 0
2, 115035, Note_on_c, 0, 70, 0
2, 115214, Control_c, 0, 64, 0
2, 115263, Note_on_c, 0, 60, 38
2, 115264, Note_on_c, 0, 64, 48
2, 115270, Note_on_c, 0, 45, 31
2, 115273, Note_on_c, 0, 69, 46
2, 115288, Note_on_c, 0, 55, 27
2, 115306, Note_on_c, 0, 52, 36
2, 115435, Control_c, 0, 64, 127
2, 115445, Note_on_c, 0, 60, 0
2, 115499, Note_on_c, 0, 64, 0
2, 115539, Note_on_c, 0, 45, 0
2, 115546, Note_on_c, 0, 69, 0
2, 115579, Note_on_c, 0, 52, 0
2, 115639, Note_on_c, 0, 55, 0
2, 115782, Note_on_c, 0, 84, 75
2, 116174, Control_c, 0, 64, 0
2, 116233, Note_on_c, 0, 72, 43
2, 116252, Note_on_c, 0, 64, 30
2, 116253, Note_on_c, 0, 55, 24
2, 116262, Note_on_c, 0, 57, 29
2, 116266, Note_on_c, 0, 60, 32
2, 116410, Control_c, 0, 64, 127
2, 116436, Note_on_c, 0, 55, 0
2, 116476, Note_on_c, 0, 60, 0
2, 116496, Note_on_c, 0, 64, 0
2, 116507, Note_on_c, 0, 57, 0
2, 116566, Note_on_c, 0, 72, 0
2, 116716, Note_on_c, 0, 72, 40
2, 117000, Note_on_c, 0, 72, 0
2, 117098, Control_c, 0, 64, 0
2, 117186, Note_on_c, 0, 72, 44
2, 117571, Note_on_c, 0, 72, 0
2, 117633, Note_on_c, 0, 72, 40
2, 117652, Note_on_c, 0, 64, 71
2, 117667, Note_on_c, 0, 60, 57
2, 117678, Note_on_c, 0, 59, 51
2, 117718, Note_on_c, 0, 60, 0
2, 117723, Note_on_c, 0, 59, 0
2, 117750, Note_on_c, 0, 64, 0
2, 118011, Note_on_c, 0, 72, 0
2, 118134, Note_on_c, 0, 72, 39
2, 118189, Control_c, 0, 64, 127
2, 118488, Control_c, 0, 64, 0
2, 118499, Note_on_c, 0, 72, 0
2, 118581, Note_on_c, 0, 38, 51
2, 118594, Note_on_c, 0, 72, 34
2, 118644, Control_c, 0, 64, 127
2, 118666, Note_on_c, 0, 38, 0
2, 118944, Note_on_c, 0, 72, 0
2, 119058, Note_on_c, 0, 72, 42
2, 119079, Note_on_c, 0, 60, 47
2, 119088, Note_on_c, 0, 65, 54
2, 119095, Note_on_c, 0, 54, 45
2, 119418, Note_on_c, 0, 54, 0
2, 119435, Note_on_c, 0, 72, 0
2, 119450, Note_on_c, 0, 65, 0
2, 119460, Note_on_c, 0, 84, 0
2, 119470, Note_on_c, 0, 60, 0
2, 119579, Note_on_c, 0, 72, 52
2, 119584, Note_on_c, 0, 65, 42
2, 119597, Note_on_c, 0, 84, 27
2, 119598, Note_on_c, 0, 54, 53
2, 119605, Note_on_c, 0, 60, 51
2, 119843, Note_on_c, 0, 84, 0
2, 119892, Note_on_c, 0, 65, 0
2, 119895, Note_on_c, 0, 54, 0
2, 119921, Note_on_c, 0, 72, 0
2, 119922, Note_on_c, 0, 60, 0
2, 120052, Note_on_c, 0, 65, 60
2, 120053, Note_on_c, 0, 84, 62
2, 120058, Note_on_c, 0, 60, 63
2, 120066, Note_on_c, 0, 54, 73
2, 120069, Note_on_c, 0, 72, 62
2, 120096, Note_on_c, 0, 78, 33
2, 120159, Note_on_c, 0, 83, 22
2, 120267, Note_on_c, 0, 83, 0
2, 120271, Note_on_c, 0, 84, 0
2, 120290, Note_on_c, 0, 78, 0
2, 120311, Note_on_c, 0, 65, 0
2, 120372, Note_on_c, 0, 72, 0
2, 120390, Note_on_c, 0, 54, 0
2, 120413, Note_on_c, 0, 60, 0
2, 120561, Note_on_c, 0, 81, 71
2, 120566, Control_c, 0, 64, 0
2, 120584, Note_on_c, 0, 74, 76
2, 120591, Note_on_c, 0, 69, 72
2, 120592, Note_on_c, 0, 65, 74
2, 120594, Note_on_c, 0, 54, 81
2, 120595, Note_on_c, 0, 60, 76
2, 120608, Note_on_c, 0, 80, 36
2, 120648, Note_on_c, 0, 80, 0
2, 120752, Control_c, 0, 64, 127
2, 121194, Note_on_c, 0, 65, 0
2, 121384, Note_on_c, 0, 54, 0
2, 121388, Note_on_c, 0, 69, 0
2, 121440, Note_on_c, 0, 81, 0
2, 121446, Note_on_c, 0, 60, 0
2, 121463, Note_on_c, 0, 74, 0
2, 121566, Note_on_c, 0, 60, 51
2, 121571, Note_on_c, 0, 74, 52
2, 121572, Note_on_c, 0, 54, 53
2, 121573, Note_on_c, 0, 79, 55
2, 121590, Note_on_c, 0, 67, 45
2, 121621, Control_c, 0, 64, 0
2, 121842, Control_c, 0, 64, 127
2, 121941, Note_on_c, 0, 79, 0
2, 121985, Note_on_c, 0, 74, 0
2, 122074, Note_on_c, 0, 67, 0
2, 122081, Note_on_c, 0, 54, 0
2, 122276, Note_on_c, 0, 54, 46
2, 122277, Note_on_c, 0, 77, 53
2, 122315, Note_on_c, 0, 65, 35
2, 122316, Note_on_c, 0, 67, 34
2, 122322, Note_on_c, 0, 73, 27
2, 122461, Note_on_c, 0, 73, 0
2, 122481, Note_on_c, 0, 77, 0
2, 122565, Note_on_c, 0, 67, 0
2, 122578, Note_on_c, 0, 65, 0
2, 122636, Note_on_c, 0, 60, 0
2, 123249, Note_on_c, 0, 54, 0
2, 123415, Note_on_c, 0, 76, 61
2, 123425, Note_on_c, 0, 61, 53
2, 123428, Control_c, 0, 64, 0
2, 123442, Note_on_c, 0, 70, 57
2, 123445, Note_on_c, 0, 67, 52
2, 123661, Control_c, 0, 64, 127
2, 123735, Note_on_c, 0, 76, 0
2, 123767, Note_on_c, 0, 67, 0
2, 123778, Note_on_c, 0, 70, 0
2, 123883, Control_c, 0, 64, 0
2, 123924, Note_on_c, 0, 77, 64
2, 123936, Note_on_c, 0, 70, 56
2, 123940, Note_on_c, 0, 67, 50
2, 123944, Note_on_c, 0, 62, 58
2, 123974, Note_on_c, 0, 61, 0
2, 124090, Control_c, 0, 64, 127
2, 124279, Note_on_c, 0, 77, 0
2, 124387, Note_on_c, 0, 62, 0
2, 124393, Note_on_c, 0, 70, 0
2, 124413, Note_on_c, 0, 67, 0
2, 124892, Note_on_c, 0, 64, 53
2, 124901, Note_on_c, 0, 72, 51
2, 124909, Control_c, 0, 64, 0
2, 124911, Note_on_c, 0, 70, 37
2, 124912, Note_on_c, 0, 55, 39
2, 124918, Note_on_c, 0, 67, 46
2, 125146, Note_on_c, 0, 55, 0
2, 125168, Control_c, 0, 64, 127
2, 125336, Note_on_c, 0, 64, 0
2, 125413, Note_on_c, 0, 67, 0
2, 125461, Note_on_c, 0, 72, 0
2, 125495, Note_on_c, 0, 70, 0
2, 125800, Note_on_c, 0, 43, 44
2, 125814, Note_on_c, 0, 74, 56
2, 125818, Control_c, 0, 64, 0
2, 125820, Note_on_c, 0, 65, 47
2, 125827, Note_on_c, 0, 55, 24
2, 125838, Note_on_c, 0, 67, 38
2, 125845, Note_on_c, 0, 70, 44
2, 125945, Note_on_c, 0, 43, 0
2, 125956, Note_on_c, 0, 55, 0
2, 126077, Control_c, 0, 64, 127
2, 126212, Note_on_c, 0, 67, 0
2, 126240, Note_on_c, 0, 65, 0
2, 126245, Note_on_c, 0, 74, 0
2, 126270, Note_on_c, 0, 70, 0
2, 126752, Control_c, 0, 64, 0
2, 126753, Note_on_c, 0, 36, 37
2, 126792, Note_on_c, 0, 52, 30
2, 126965, Note_on_c, 0, 36, 0
2, 127000, Control_c, 0, 64, 127
2, 127125, Note_on_c, 0, 52, 0
2, 127702, Note_on_c, 0, 77, 45
2, 127710, Note_on_c, 0, 58, 34
2, 127711, Note_on_c, 0, 65, 41
2, 127718, Note_on_c, 0, 70, 37
2, 127719, Note_on_c, 0, 61, 29
2, 127733, Note_on_c, 0, 74, 46
2, 128128, Note_on_c, 0, 65, 0
2, 128153, Note_on_c, 0, 74, 0
2, 128175, Note_on_c, 0, 70, 0
2, 128221, Note_on_c, 0, 77, 0
2, 128222, Note_on_c, 0, 61, 0
2, 128320, Note_on_c, 0, 58, 0
2, 128679, Note_on_c, 0, 79, 46
2, 128682, Note_on_c, 0, 73, 31
2, 128688, Note_on_c, 0, 61, 31
2, 128690, Note_on_c, 0, 67, 38
2, 128692, Control_c, 0, 64, 0
2, 128700, Note_on_c, 0, 64, 35
2, 128701, Note_on_c, 0, 58, 38
2, 128703, Note_on_c, 0, 76, 44
2, 128830, Note_on_c, 0, 64, 0
2, 128844, Note_on_c, 0, 61, 0
2, 128894, Note_on_c, 0, 58, 0
2, 129170, Note_on_c, 0, 48, 69
2, 129190, Note_on_c, 0, 47, 68
2, 129301, Note_on_c, 0, 47, 0
2, 129537, Note_on_c, 0, 48, 0
2, 129693, Note_on_c, 0, 48, 58
2, 129729, Note_on_c, 0, 47, 27
2, 129774, Note_on_c, 0, 47, 0
2, 129799, Note_on_c, 0, 79, 0
2, 129829, Note_on_c, 0, 76, 0
2, 129842, Note_on_c, 0, 73, 0
2, 129905, Note_on_c, 0, 67, 0
2, 130153, Note_on_c, 0, 36, 55
2, 130504, Note_on_c, 0, 36, 0
2, 130522, Note_on_c, 0, 48, 0
2, 130658, Note_on_c, 0, 60, 34
2, 130678, Note_on_c, 0, 57, 32
2, 130827, Note_on_c, 0, 57, 0
2, 130859, Note_on_c, 0, 60, 0
2, 131133, Note_on_c, 0, 57, 43
2, 131137, Note_on_c, 0, 55, 41
2, 131146, Note_on_c, 0, 60, 33
2, 131435, Note_on_c, 0, 55, 0
2, 131453, Note_on_c, 0, 57, 0
2, 131476, Note_on_c, 0, 60, 0
2, 131597, Note_on_c, 0, 48, 58
2, 133014, Note_on_c, 0, 58, 75
2, 133014, Note_on_c, 0, 60, 71
2, 133294, Note_on_c, 0, 60, 0
2, 133303, Note_on_c, 0, 58, 0
2, 133494, Note_on_c, 0, 58, 72
2, 133499, Note_on_c, 0, 60, 69
2, 133687, Note_on_c, 0, 48, 0
2, 133923, Note_on_c, 0, 60, 0
2, 133966, Note_on_c, 0, 48, 53
2, 133972, Note_on_c, 0, 58, 0
2, 134434, Note_on_c, 0, 61, 50
2, 134435, Note_on_c, 0, 57, 56
2, 134758, Note_on_c, 0, 61, 0
2, 134763, Note_on_c, 0, 57, 0
2, 134934, Note_on_c, 0, 61, 58
2, 134940, Note_on_c, 0, 57, 55
2, 134965, Note_on_c, 0, 48, 0
2, 135236, Note_on_c, 0, 57, 0
2, 135254, Note_on_c, 0, 61, 0
2, 135886, Note_on_c, 0, 62, 58
2, 135901, Note_on_c, 0, 56, 59
2, 135904, Note_on_c, 0, 48, 44
2, 136226, Note_on_c, 0, 48, 0
2, 136243, Note_on_c, 0, 62, 0
2, 136244, Note_on_c, 0, 56, 0
2, 136403, Note_on_c, 0, 62, 47
2, 136405, Note_on_c, 0, 56, 46
2, 136416, Note_on_c, 0, 48, 40
2, 136696, Control_c, 0, 64, 127
2, 136797, Note_on_c, 0, 48, 0
2, 136845, Note_on_c, 0, 56, 0
2, 136922, Note_on_c, 0, 62, 0
2, 137269, Control_c, 0, 64, 0
2, 137309, Note_on_c, 0, 64, 48
2, 137317, Note_on_c, 0, 56, 48
2, 137321, Note_on_c, 0, 50, 38
2, 137333, Note_on_c, 0, 42, 30
2, 137471, Note_on_c, 0, 64, 0
2, 137501, Note_on_c, 0, 56, 0
2, 137506, Note_on_c, 0, 42, 0
2, 137562, Note_on_c, 0, 50, 0
2, 137819, Note_on_c, 0, 42, 34
2, 137861, Note_on_c, 0, 49, 26
2, 137878, Control_c, 0, 64, 127
2, 138117, Note_on_c, 0, 42, 0
2, 138158, Note_on_c, 0, 49, 0
2, 138192, Control_c, 0, 64, 0
2, 138297, Note_on_c, 0, 64, 38
2, 138305, Note_on_c, 0, 57, 39
2, 138306, Note_on_c, 0, 55, 36
2, 138316, Note_on_c, 0, 41, 27
2, 138332, Note_on_c, 0, 60, 27
2, 138385, Note_on_c, 0, 48, 18
2, 138416, Note_on_c, 0, 55, 0
2, 138424, Control_c, 0, 64, 127
2, 138468, Note_on_c, 0, 57, 0
2, 138500, Note_on_c, 0, 60, 0
2, 138512, Note_on_c, 0, 41, 0
2, 138551, Note_on_c, 0, 64, 0
2, 138559, Note_on_c, 0, 48, 0
2, 139274, Note_on_c, 0, 64, 42
2, 139284, Note_on_c, 0, 60, 39
2, 139314, Note_on_c, 0, 88, 74
2, 139330, Note_on_c, 0, 64, 0
2, 139331, Note_on_c, 0, 53, 19
2, 139347, Note_on_c, 0, 60, 0
2, 139352, Note_on_c, 0, 84, 65
2, 139360, Control_c, 0, 64, 0
2, 139395, Note_on_c, 0, 81, 49
2, 139410, Note_on_c, 0, 86, 24
2, 139452, Note_on_c, 0, 53, 0
2, 139479, Note_on_c, 0, 86, 0
2, 139536, Note_on_c, 0, 76, 38
2, 139566, Note_on_c, 0, 88, 0
2, 139641, Note_on_c, 0, 84, 0
2, 139653, Note_on_c, 0, 81, 0
2, 139713, Note_on_c, 0, 76, 0
2, 139776, Control_c, 0, 64, 127
2, 140100, Control_c, 0, 64, 0
2, 140221, Note_on_c, 0, 36, 46
2, 140321, Control_c, 0, 64, 127
2, 140345, Note_on_c, 0, 36, 0
2, 140858, Note_on_c, 0, 89, 73
2, 140908, Note_on_c, 0, 84, 71
2, 140921, Note_on_c, 0, 88, 40
2, 140942, Note_on_c, 0, 81, 56
2, 141034, Note_on_c, 0, 77, 46
2, 141117, Note_on_c, 0, 89, 0
2, 141123, Note_on_c, 0, 88, 0
2, 141166, Control_c, 0, 64, 0
2, 141175, Note_on_c, 0, 77, 0
2, 141192, Note_on_c, 0, 84, 0
2, 141203, Note_on_c, 0, 81, 0
2, 141266, Note_on_c, 0, 62, 40
2, 141314, Note_on_c, 0, 60, 19
2, 141349, Note_on_c, 0, 57, 19
2, 141380, Note_on_c, 0, 62, 0
2, 141407, Note_on_c, 0, 60, 0
2, 141433, Note_on_c, 0, 57, 0
2, 141451, Control_c, 0, 64, 127
2, 141590, Note_on_c, 0, 84, 68
2, 141630, Note_on_c, 0, 79, 51
2, 141683, Note_on_c, 0, 72, 44
2, 141821, Note_on_c, 0, 84, 0
2, 141891, Note_on_c, 0, 79, 0
2, 141898, Note_on_c, 0, 72, 0
2, 142165, Control_c, 0, 64, 0
2, 142251, Note_on_c, 0, 47, 36
2, 142470, Note_on_c, 0, 47, 0
2, 142477, Control_c, 0, 64, 127
2, 142606, Note_on_c, 0, 86, 63
2, 142645, Note_on_c, 0, 83, 64
2, 142671, Note_on_c, 0, 79, 58
2, 142747, Note_on_c, 0, 74, 26
2, 142920, Note_on_c, 0, 79, 0
2, 142922, Note_on_c, 0, 74, 0
2, 142924, Note_on_c, 0, 86, 0
2, 142978, Note_on_c, 0, 83, 0
2, 143310, Note_on_c, 0, 64, 39
2, 143319, Note_on_c, 0, 62, 40
2, 143323, Control_c, 0, 64, 0
2, 143329, Note_on_c, 0, 57, 32
2, 143331, Note_on_c, 0, 88, 66
2, 143384, Note_on_c, 0, 62, 0
2, 143385, Note_on_c, 0, 86, 50
2, 143388, Note_on_c, 0, 81, 68
2, 143395, Note_on_c, 0, 64, 0
2, 143402, Note_on_c, 0, 83, 52
2, 143424, Note_on_c, 0, 57, 0
2, 143425, Note_on_c, 0, 76, 58
2, 143623, Note_on_c, 0, 76, 0
2, 143639, Note_on_c, 0, 81, 0
2, 143647, Note_on_c, 0, 86, 0
2, 143651, Control_c, 0, 64, 127
2, 143665, Note_on_c, 0, 83, 0
2, 143692, Note_on_c, 0, 88, 0
2, 143923, Control_c, 0, 64, 0
2, 143940, Note_on_c, 0, 40, 54
2, 144069, Note_on_c, 0, 40, 0
2, 144091, Control_c, 0, 64, 127
2, 144537, Note_on_c, 0, 67, 65
2, 144546, Control_c, 0, 64, 0
2, 144554, Note_on_c, 0, 62, 50
2, 144557, Note_on_c, 0, 56, 55
2, 144741, Control_c, 0, 64, 127
2, 144742, Note_on_c, 0, 67, 0
2, 144772, Note_on_c, 0, 62, 0
2, 144868, Note_on_c, 0, 56, 0
2, 145118, Control_c, 0, 64, 0
2, 145136, Note_on_c, 0, 56, 63
2, 145338, Control_c, 0, 64, 127
2, 145530, Note_on_c, 0, 44, 50
2, 145615, Note_on_c, 0, 56, 0
2, 145706, Note_on_c, 0, 44, 0
2, 145921, Note_on_c, 0, 60, 47
2, 145923, Control_c, 0, 64, 0
2, 145930, Note_on_c, 0, 41, 49
2, 145932, Note_on_c, 0, 64, 49
2, 145933, Note_on_c, 0, 52, 49
2, 146199, Control_c, 0, 64, 127
2, 146285, Note_on_c, 0, 41, 0
2, 146288, Note_on_c, 0, 60, 0
2, 146368, Note_on_c, 0, 64, 0
2, 146396, Note_on_c, 0, 52, 0
2, 146865, Note_on_c, 0, 64, 74
2, 146870, Note_on_c, 0, 76, 69
2, 146876, Control_c, 0, 64, 0
2, 146878, Note_on_c, 0, 65, 68
2, 146887, Note_on_c, 0, 72, 59
2, 146888, Note_on_c, 0, 69, 68
2, 147108, Control_c, 0, 64, 127
2, 147146, Note_on_c, 0, 65, 0
2, 147206, Note_on_c, 0, 69, 0
2, 147248, Note_on_c, 0, 76, 0
2, 147270, Note_on_c, 0, 72, 0
2, 147329, Control_c, 0, 64, 0
2, 147371, Note_on_c, 0, 64, 0
2, 147373, Note_on_c, 0, 77, 68
2, 147374, Note_on_c, 0, 62, 57
2, 147388, Note_on_c, 0, 72, 60
2, 147431, Note_on_c, 0, 67, 29
2, 147524, Control_c, 0, 64, 127
2, 147554, Note_on_c, 0, 77, 0
2, 147568, Note_on_c, 0, 72, 0
2, 147619, Note_on_c, 0, 67, 0
2, 147728, Note_on_c, 0, 62, 0
2, 147820, Note_on_c, 0, 61, 72
2, 148240, Control_c, 0, 64, 0
2, 148298, Note_on_c, 0, 61, 0
2, 148310, Note_on_c, 0, 64, 50
2, 148311, Note_on_c, 0, 67, 56
2, 148314, Note_on_c, 0, 72, 49
2, 148329, Note_on_c, 0, 60, 47
2, 148342, Note_on_c, 0, 69, 48
2, 148499, Control_c, 0, 64, 127
2, 148795, Note_on_c, 0, 60, 0
2, 148802, Note_on_c, 0, 57, 54
2, 148931, Note_on_c, 0, 69, 0
2, 148937, Note_on_c, 0, 72, 0
2, 149151, Note_on_c, 0, 64, 0
2, 149211, Note_on_c, 0, 57, 0
2, 149293, Note_on_c, 0, 74, 59
2, 149475, Note_on_c, 0, 74, 0
2, 149616, Note_on_c, 0, 67, 0
2, 149757, Control_c, 0, 64, 0
2, 149786, Note_on_c, 0, 58, 45
2, 149792, Note_on_c, 0, 75, 49
2, 149808, Note_on_c, 0, 67, 32
2, 149808, Note_on_c, 0, 63, 33
2, 149829, Note_on_c, 0, 48, 33
2, 149855, Note_on_c, 0, 55, 24
2, 149991, Control_c, 0, 64, 127
2, 150078, Note_on_c, 0, 75, 0
2, 150093, Note_on_c, 0, 67, 0
2, 150128, Note_on_c, 0, 63, 0
2, 150237, Note_on_c, 0, 58, 0
2, 150536, Note_on_c, 0, 62, 46
2, 150662, Note_on_c, 0, 63, 46
2, 150669, Note_on_c, 0, 62, 0
2, 150707, Control_c, 0, 64, 0
2, 150709, Note_on_c, 0, 63, 0
2, 150715, Note_on_c, 0, 58, 34
2, 150768, Note_on_c, 0, 65, 48
2, 150842, Note_on_c, 0, 55, 0
2, 150881, Note_on_c, 0, 48, 0
2, 150882, Note_on_c, 0, 58, 0
2, 150910, Note_on_c, 0, 65, 0
2, 150947, Note_on_c, 0, 67, 30
2, 151030, Note_on_c, 0, 69, 38
2, 151059, Note_on_c, 0, 67, 0
2, 151132, Note_on_c, 0, 69, 0
2, 151156, Note_on_c, 0, 70, 47
2, 151201, Note_on_c, 0, 70, 0
2, 151495, Note_on_c, 0, 75, 46
2, 151644, Note_on_c, 0, 76, 59
2, 151651, Note_on_c, 0, 75, 0
2, 151769, Note_on_c, 0, 76, 0
2, 151770, Note_on_c, 0, 77, 68
2, 151795, Note_on_c, 0, 48, 32
2, 151801, Note_on_c, 0, 41, 24
2, 151813, Note_on_c, 0, 57, 31
2, 151906, Note_on_c, 0, 77, 0
2, 151907, Note_on_c, 0, 41, 0
2, 151963, Note_on_c, 0, 48, 0
2, 152044, Note_on_c, 0, 75, 49
2, 152080, Note_on_c, 0, 57, 0
2, 152129, Note_on_c, 0, 75, 0
2, 152755, Note_on_c, 0, 67, 38
2, 152763, Note_on_c, 0, 57, 38
2, 152782, Note_on_c, 0, 63, 36
2, 153048, Note_on_c, 0, 67, 0
2, 153141, Note_on_c, 0, 63, 0
2, 153156, Note_on_c, 0, 57, 0
2, 153292, Note_on_c, 0, 74, 71
2, 153520, Note_on_c, 0, 74, 0
2, 153531, Note_on_c, 0, 72, 35
2, 153689, Note_on_c, 0, 70, 32
2, 153700, Note_on_c, 0, 72, 0
2, 153749, Note_on_c, 0, 71, 33
2, 153752, Note_on_c, 0, 65, 24
2, 153783, Note_on_c, 0, 60, 29
2, 153804, Note_on_c, 0, 62, 26
2, 153810, Note_on_c, 0, 71, 0
2, 153811, Note_on_c, 0, 70, 0
2, 153818, Note_on_c, 0, 69, 42
2, 153963, Note_on_c, 0, 69, 0
2, 153994, Note_on_c, 0, 65, 0
2, 154052, Note_on_c, 0, 84, 74
2, 154148, Note_on_c, 0, 84, 0
2, 154367, Note_on_c, 0, 81, 57
2, 154419, Note_on_c, 0, 81, 0
2, 154678, Note_on_c, 0, 53, 36
2, 154680, Note_on_c, 0, 74, 57
2, 154787, Note_on_c, 0, 74, 0
2, 154904, Note_on_c, 0, 62, 0
2, 154936, Note_on_c, 0, 60, 0
2, 154993, Note_on_c, 0, 70, 51
2, 155150, Note_on_c, 0, 70, 0
2, 155245, Note_on_c, 0, 69, 29
2, 155311, Note_on_c, 0, 69, 0
2, 155434, Note_on_c, 0, 72, 64
2, 155630, Note_on_c, 0, 65, 24
2, 155637, Note_on_c, 0, 70, 62
2, 155646, Note_on_c, 0, 62, 33
2, 155663, Note_on_c, 0, 60, 32
2, 155709, Note_on_c, 0, 72, 0
2, 155710, Note_on_c, 0, 65, 0
2, 155737, Note_on_c, 0, 62, 0
2, 155745, Note_on_c, 0, 70, 0
2, 155832, Note_on_c, 0, 60, 0
2, 155846, Note_on_c, 0, 69, 56
2, 155976, Note_on_c, 0, 69, 0
2, 156057, Note_on_c, 0, 65, 48
2, 156156, Note_on_c, 0, 53, 0
2, 156204, Note_on_c, 0, 65, 0
2, 156302, Note_on_c, 0, 60, 31
2, 156397, Control_c, 0, 64, 127
2, 156414, Note_on_c, 0, 60, 0
2, 156539, Control_c, 0, 64, 0
2, 156577, Note_on_c, 0, 60, 45
2, 156624, Note_on_c, 0, 53, 20
2, 156722, Note_on_c, 0, 60, 0
2, 156735, Note_on_c, 0, 53, 0
2, 156870, Note_on_c, 0, 60, 46
2, 157041, Note_on_c, 0, 60, 0
2, 157133, Note_on_c, 0, 60, 57
2, 157277, Note_on_c, 0, 60, 0
2, 157318, Control_c, 0, 64, 127
2, 157374, Note_on_c, 0, 60, 51
2, 157535, Note_on_c, 0, 60, 0
2, 157552, Control_c, 0, 64, 0
2, 157605, Note_on_c, 0, 56, 15
2, 157612, Note_on_c, 0, 46, 19
2, 157640, Note_on_c, 0, 60, 53
2, 157650, Note_on_c, 0, 53, 26
2, 157863, Note_on_c, 0, 60, 0
2, 157895, Note_on_c, 0, 61, 47
2, 158060, Note_on_c, 0, 56, 0
2, 158202, Control_c, 0, 64, 127
2, 158211, Note_on_c, 0, 61, 0
2, 158502, Control_c, 0, 64, 0
2, 158527, Note_on_c, 0, 56, 47
2, 158537, Note_on_c, 0, 61, 54
2, 158639, Note_on_c, 0, 53, 0
2, 158662, Note_on_c, 0, 56, 0
2, 158722, Control_c, 0, 64, 127
2, 158767, Note_on_c, 0, 46, 0
2, 159527, Note_on_c, 0, 27, 37
2, 159553, Control_c, 0, 64, 0
2, 159634, Note_on_c, 0, 61, 0
2, 159744, Note_on_c, 0, 27, 0
2, 159774, Note_on_c, 0, 57, 45
2, 159883, Note_on_c, 0, 57, 0
2, 159960, Note_on_c, 0, 58, 37
2, 160098, Note_on_c, 0, 58, 0
2, 160140, Note_on_c, 0, 60, 45
2, 160285, Note_on_c, 0, 60, 0
2, 160376, Note_on_c, 0, 61, 65
2, 160400, Note_on_c, 0, 55, 41
2, 160468, Note_on_c, 0, 45, 17
2, 160481, Note_on_c, 0, 55, 0
2, 160512, Note_on_c, 0, 61, 0
2, 160532, Note_on_c, 0, 45, 0
2, 160606, Note_on_c, 0, 64, 42
2, 160732, Note_on_c, 0, 64, 0
2, 160829, Note_on_c, 0, 69, 33
2, 160946, Note_on_c, 0, 69, 0
2, 160998, Note_on_c, 0, 73, 46
2, 161164, Note_on_c, 0, 73, 0
2, 161189, Control_c, 0, 64, 127
2, 161204, Note_on_c, 0, 76, 68
2, 161319, Control_c, 0, 64, 0
2, 161349, Note_on_c, 0, 76, 0
2, 161447, Note_on_c, 0, 72, 32
2, 161539, Note_on_c, 0, 72, 0
2, 161756, Note_on_c, 0, 45, 35
2, 161839, Note_on_c, 0, 45, 0
2, 162033, Note_on_c, 0, 60, 25
2, 162103, Note_on_c, 0, 60, 0
2, 162282, Note_on_c, 0, 67, 47
2, 162496, Note_on_c, 0, 67, 0
2, 162522, Note_on_c, 0, 72, 50
2, 162602, Note_on_c, 0, 72, 0
2, 162749, Note_on_c, 0, 79, 60
2, 162819, Note_on_c, 0, 79, 0
2, 162984, Note_on_c, 0, 83, 67
2, 162987, Note_on_c, 0, 81, 75
2, 163035, Control_c, 0, 64, 127
2, 163104, Note_on_c, 0, 83, 0
2, 163127, Note_on_c, 0, 81, 0
2, 163152, Control_c, 0, 64, 0
2, 163231, Note_on_c, 0, 65, 67
2, 163237, Note_on_c, 0, 54, 61
2, 163241, Note_on_c, 0, 60, 55
2, 163259, Note_on_c, 0, 85, 52
2, 163267, Note_on_c, 0, 86, 76
2, 163271, Note_on_c, 0, 84, 79
2, 163329, Note_on_c, 0, 85, 0
2, 163399, Note_on_c, 0, 86, 0
2, 163505, Note_on_c, 0, 84, 0
2, 163571, Note_on_c, 0, 82, 56
2, 163761, Control_c, 0, 64, 127
2, 163870, Note_on_c, 0, 81, 74
2, 163923, Note_on_c, 0, 65, 0
2, 163956, Note_on_c, 0, 60, 0
2, 164147, Note_on_c, 0, 81, 0
2, 164165, Control_c, 0, 64, 0
2, 164226, Note_on_c, 0, 64, 42
2, 164230, Note_on_c, 0, 79, 60
2, 164270, Note_on_c, 0, 60, 29
2, 164422, Note_on_c, 0, 79, 0
2, 164476, Control_c, 0, 64, 127
2, 164576, Note_on_c, 0, 78, 43
2, 164654, Note_on_c, 0, 82, 0
2, 164775, Note_on_c, 0, 60, 0
2, 164779, Note_on_c, 0, 78, 0
2, 164782, Note_on_c, 0, 64, 0
2, 164880, Note_on_c, 0, 81, 80
2, 164975, Note_on_c, 0, 54, 0
2, 165191, Control_c, 0, 64, 0
2, 165206, Note_on_c, 0, 62, 45
2, 165215, Note_on_c, 0, 78, 55
2, 165252, Note_on_c, 0, 58, 31
2, 165259, Note_on_c, 0, 55, 27
2, 165273, Note_on_c, 0, 53, 24
2, 165452, Note_on_c, 0, 81, 0
2, 165480, Note_on_c, 0, 62, 0
2, 165503, Control_c, 0, 64, 127
2, 165526, Note_on_c, 0, 58, 0
2, 165552, Note_on_c, 0, 55, 0
2, 165553, Note_on_c, 0, 53, 0
2, 165562, Note_on_c, 0, 79, 55
2, 165565, Note_on_c, 0, 78, 0
2, 165632, Control_c, 0, 64, 0
2, 165684, Control_c, 0, 64, 127
2, 165814, Note_on_c, 0, 79, 0
2, 165846, Note_on_c, 0, 74, 57
2, 166097, Note_on_c, 0, 74, 0
2, 166166, Control_c, 0, 64, 0
2, 166173, Note_on_c, 0, 70, 38
2, 166176, Note_on_c, 0, 53, 39
2, 166191, Note_on_c, 0, 43, 34
2, 166271, Note_on_c, 0, 43, 0
2, 166390, Note_on_c, 0, 53, 0
2, 166434, Note_on_c, 0, 70, 0
2, 166524, Note_on_c, 0, 74, 47
2, 166607, Control_c, 0, 64, 127
2, 166705, Note_on_c, 0, 74, 0
2, 166839, Note_on_c, 0, 77, 85
2, 167028, Note_on_c, 0, 77, 0
2, 167139, Note_on_c, 0, 43, 24
2, 167154, Note_on_c, 0, 36, 36
2, 167165, Note_on_c, 0, 52, 36
2, 167167, Control_c, 0, 64, 0
2, 167185, Note_on_c, 0, 76, 48
2, 167191, Note_on_c, 0, 68, 33
2, 167199, Note_on_c, 0, 64, 43
2, 167356, Note_on_c, 0, 36, 0
2, 167439, Note_on_c, 0, 43, 0
2, 167476, Control_c, 0, 64, 127
2, 167549, Note_on_c, 0, 52, 0
2, 167606, Note_on_c, 0, 76, 0
2, 167621, Note_on_c, 0, 64, 0
2, 167796, Note_on_c, 0, 68, 0
2, 168049, Control_c, 0, 64, 0
2, 168069, Note_on_c, 0, 73, 43
2, 168070, Note_on_c, 0, 42, 32
2, 168076, Note_on_c, 0, 64, 43
2, 168087, Note_on_c, 0, 68, 42
2, 168101, Note_on_c, 0, 49, 35
2, 168115, Note_on_c, 0, 52, 17
2, 168214, Note_on_c, 0, 42, 0
2, 168233, Note_on_c, 0, 52, 0
2, 168321, Control_c, 0, 64, 127
2, 168324, Note_on_c, 0, 49, 0
2, 168446, Note_on_c, 0, 64, 0
2, 168478, Control_c, 0, 64, 0
2, 168486, Note_on_c, 0, 73, 0
2, 168588, Note_on_c, 0, 68, 0
2, 168606, Control_c, 0, 64, 127
2, 168708, Note_on_c, 0, 72, 57
2, 168713, Note_on_c, 0, 67, 64
2, 168825, Note_on_c, 0, 67, 0
2, 168872, Note_on_c, 0, 72, 0
2, 168984, Control_c, 0, 64, 0
2, 169030, Note_on_c, 0, 41, 28
2, 169038, Note_on_c, 0, 48, 39
2, 169059, Note_on_c, 0, 57, 35
2, 169103, Note_on_c, 0, 80, 73
2, 169107, Note_on_c, 0, 87, 73
2, 169109, Note_on_c, 0, 75, 74
2, 169186, Note_on_c, 0, 41, 0
2, 169293, Note_on_c, 0, 48, 0
2, 169349, Note_on_c, 0, 57, 0
2, 169508, Note_on_c, 0, 80, 0
2, 169632, Note_on_c, 0, 87, 0
2, 169635, Note_on_c, 0, 75, 0
2, 169712, Control_c, 0, 64, 127
2, 169720, Note_on_c, 0, 88, 62
2, 169721, Note_on_c, 0, 76, 65
2, 169739, Note_on_c, 0, 81, 51
2, 169768, Note_on_c, 0, 84, 48
2, 169834, Note_on_c, 0, 86, 11
2, 169856, Note_on_c, 0, 88, 0
2, 169922, Note_on_c, 0, 76, 0
2, 169998, Control_c, 0, 64, 0
2, 170022, Note_on_c, 0, 81, 0
2, 170042, Note_on_c, 0, 64, 40
2, 170055, Note_on_c, 0, 60, 36
2, 170071, Note_on_c, 0, 57, 44
2, 170085, Note_on_c, 0, 53, 22
2, 170086, Note_on_c, 0, 86, 0
2, 170088, Note_on_c, 0, 75, 38
2, 170089, Note_on_c, 0, 87, 48
2, 170097, Note_on_c, 0, 81, 19
2, 170140, Note_on_c, 0, 64, 0
2, 170167, Note_on_c, 0, 60, 0
2, 170167, Note_on_c, 0, 53, 0
2, 170236, Note_on_c, 0, 57, 0
2, 170407, Note_on_c, 0, 81, 0
2, 170436, Note_on_c, 0, 84, 0
2, 170474, Note_on_c, 0, 87, 0
2, 170475, Note_on_c, 0, 75, 0
2, 170619, Control_c, 0, 64, 127
2, 170648, Note_on_c, 0, 88, 51
2, 170659, Note_on_c, 0, 76, 45
2, 170676, Note_on_c, 0, 81, 48
2, 170771, Note_on_c, 0, 88, 0
2, 170821, Note_on_c, 0, 76, 0
2, 170858, Note_on_c, 0, 81, 0
2, 170894, Control_c, 0, 64, 0
2, 170969, Note_on_c, 0, 36, 45
2, 170994, Note_on_c, 0, 84, 55
2, 171016, Note_on_c, 0, 48, 33
2, 171017, Note_on_c, 0, 72, 43
2, 171136, Note_on_c, 0, 36, 0
2, 171265, Note_on_c, 0, 48, 0
2, 171478, Control_c, 0, 64, 127
2, 171521, Note_on_c, 0, 84, 0
2, 171534, Note_on_c, 0, 72, 0
2, 171778, Control_c, 0, 64, 0
2, 171866, Note_on_c, 0, 62, 47
2, 171881, Note_on_c, 0, 86, 56
2, 171900, Note_on_c, 0, 79, 48
2, 171902, Note_on_c, 0, 74, 41
2, 171906, Note_on_c, 0, 53, 29
2, 171913, Note_on_c, 0, 60, 32
2, 171923, Note_on_c, 0, 57, 31
2, 171932, Note_on_c, 0, 81, 29
2, 172163, Note_on_c, 0, 60, 0
2, 172190, Note_on_c, 0, 62, 0
2, 172199, Note_on_c, 0, 74, 0
2, 172229, Note_on_c, 0, 57, 0
2, 172237, Note_on_c, 0, 79, 0
2, 172246, Control_c, 0, 64, 127
2, 172255, Note_on_c, 0, 81, 0
2, 172297, Note_on_c, 0, 53, 0
2, 172310, Note_on_c, 0, 86, 0
2, 172738, Control_c, 0, 64, 0
2, 172837, Note_on_c, 0, 87, 76
2, 172839, Note_on_c, 0, 47, 54
2, 172843, Note_on_c, 0, 75, 84
2, 172846, Note_on_c, 0, 57, 58
2, 172847, Note_on_c, 0, 82, 76
2, 173022, Note_on_c, 0, 47, 0
2, 173104, Note_on_c, 0, 57, 0
2, 173167, Control_c, 0, 64, 127
2, 173258, Control_c, 0, 64, 0
2, 173298, Control_c, 0, 64, 127
2, 173367, Note_on_c, 0, 87, 0
2, 173368, Note_on_c, 0, 75, 0
2, 173373, Note_on_c, 0, 82, 0
2, 173428, Note_on_c, 0, 88, 62
2, 173442, Note_on_c, 0, 76, 58
2, 173476, Note_on_c, 0, 83, 59
2, 173481, Note_on_c, 0, 86, 32
2, 173612, Note_on_c, 0, 88, 0
2, 173619, Note_on_c, 0, 76, 0
2, 173682, Note_on_c, 0, 86, 0
2, 173720, Note_on_c, 0, 83, 0
2, 173739, Control_c, 0, 64, 0
2, 173749, Note_on_c, 0, 64, 40
2, 173775, Note_on_c, 0, 62, 42
2, 173776, Note_on_c, 0, 57, 32
2, 173805, Note_on_c, 0, 75, 48
2, 173819, Note_on_c, 0, 83, 37
2, 173820, Note_on_c, 0, 87, 49
2, 173894, Note_on_c, 0, 64, 0
2, 173914, Note_on_c, 0, 62, 0
2, 173986, Note_on_c, 0, 57, 0
2, 174109, Note_on_c, 0, 83, 0
2, 174155, Control_c, 0, 64, 127
2, 174166, Control_c, 0, 64, 0
2, 174209, Note_on_c, 0, 87, 0
2, 174232, Note_on_c, 0, 75, 0
2, 174336, Control_c, 0, 64, 127
2, 174374, Note_on_c, 0, 88, 57
2, 174380, Note_on_c, 0, 76, 47
2, 174419, Note_on_c, 0, 83, 31
2, 174514, Note_on_c, 0, 83, 0
2, 174551, Note_on_c, 0, 88, 0
2, 174578, Note_on_c, 0, 76, 0
2, 174752, Control_c, 0, 64, 0
2, 174756, Note_on_c, 0, 86, 65
2, 174770, Note_on_c, 0, 74, 69
2, 175233, Control_c, 0, 64, 127
2, 175283, Note_on_c, 0, 46, 51
2, 175309, Note_on_c, 0, 86, 0
2, 175382, Note_on_c, 0, 74, 0
2, 175397, Note_on_c, 0, 46, 0
2, 175807, Note_on_c, 0, 63, 37
2, 175855, Note_on_c, 0, 63, 0
2, 176233, Note_on_c, 0, 67, 60
2, 176244, Note_on_c, 0, 70, 49
2, 176323, Note_on_c, 0, 70, 0
2, 176344, Note_on_c, 0, 67, 0
2, 176688, Control_c, 0, 64, 0
2, 176700, Note_on_c, 0, 72, 51
2, 176700, Note_on_c, 0, 67, 51
2, 176701, Note_on_c, 0, 62, 53
2, 176745, Note_on_c, 0, 55, 22
2, 176923, Note_on_c, 0, 55, 0
2, 177103, Control_c, 0, 64, 127
2, 177191, Note_on_c, 0, 62, 0
2, 177205, Note_on_c, 0, 57, 62
2, 177257, Note_on_c, 0, 67, 0
2, 177295, Note_on_c, 0, 72, 0
2, 177507, Note_on_c, 0, 57, 0
2, 177597, Control_c, 0, 64, 0
2, 177638, Note_on_c, 0, 76, 64
2, 177646, Note_on_c, 0, 60, 57
2, 177647, Note_on_c, 0, 67, 64
2, 177654, Note_on_c, 0, 69, 64
2, 177663, Note_on_c, 0, 72, 53
2, 177780, Control_c, 0, 64, 127
2, 177852, Note_on_c, 0, 69, 0
2, 177872, Note_on_c, 0, 67, 0
2, 177891, Note_on_c, 0, 72, 0
2, 177908, Note_on_c, 0, 76, 0
2, 178026, Control_c, 0, 64, 0
2, 178123, Note_on_c, 0, 64, 57
2, 178128, Note_on_c, 0, 77, 72
2, 178139, Note_on_c, 0, 60, 0
2, 178141, Note_on_c, 0, 69, 74
2, 178144, Note_on_c, 0, 72, 66
2, 178233, Control_c, 0, 64, 127
2, 178264, Note_on_c, 0, 72, 0
2, 178273, Note_on_c, 0, 77, 0
2, 178307, Note_on_c, 0, 69, 0
2, 178320, Note_on_c, 0, 64, 0
2, 178507, Control_c, 0, 64, 0
2, 178593, Note_on_c, 0, 67, 54
2, 178597, Note_on_c, 0, 64, 48
2, 178604, Note_on_c, 0, 72, 35
2, 178612, Note_on_c, 0, 57, 54
2, 178623, Note_on_c, 0, 69, 42
2, 178779, Control_c, 0, 64, 127
2, 179048, Note_on_c, 0, 64, 0
2, 179078, Note_on_c, 0, 69, 0
2, 179140, Note_on_c, 0, 67, 0
2, 179144, Note_on_c, 0, 72, 0
2, 179580, Note_on_c, 0, 74, 56
2, 179586, Note_on_c, 0, 62, 40
2, 179587, Note_on_c, 0, 67, 49
2, 179590, Note_on_c, 0, 65, 45
2, 179711, Note_on_c, 0, 57, 0
2, 179946, Note_on_c, 0, 62, 0
2, 179997, Note_on_c, 0, 67, 0
2, 180072, Note_on_c, 0, 74, 0
2, 180248, Note_on_c, 0, 65, 0
2, 180508, Note_on_c, 0, 63, 57
2, 180537, Note_on_c, 0, 75, 55
2, 180558, Control_c, 0, 64, 0
2, 180561, Note_on_c, 0, 70, 50
2, 180571, Note_on_c, 0, 58, 42
2, 180587, Note_on_c, 0, 53, 17
2, 180832, Control_c, 0, 64, 127
2, 180951, Note_on_c, 0, 70, 0
2, 181016, Note_on_c, 0, 65, 44
2, 181018, Note_on_c, 0, 75, 0
2, 181104, Control_c, 0, 64, 0
2, 181123, Note_on_c, 0, 65, 0
2, 181197, Note_on_c, 0, 70, 57
2, 181333, Note_on_c, 0, 70, 0
2, 181391, Note_on_c, 0, 77, 57
2, 181548, Note_on_c, 0, 77, 0
2, 181912, Note_on_c, 0, 77, 58
2, 181997, Note_on_c, 0, 77, 0
2, 182073, Note_on_c, 0, 82, 69
2, 182208, Note_on_c, 0, 82, 0
2, 182281, Note_on_c, 0, 77, 58
2, 182348, Note_on_c, 0, 53, 0
2, 182351, Note_on_c, 0, 77, 0
2, 182417, Note_on_c, 0, 58, 0
2, 182471, Note_on_c, 0, 82, 67
2, 182497, Note_on_c, 0, 63, 0
2, 182594, Note_on_c, 0, 82, 0
2, 182684, Note_on_c, 0, 87, 56
2, 182805, Note_on_c, 0, 87, 0
2, 182862, Note_on_c, 0, 89, 69
2, 183021, Note_on_c, 0, 89, 0
2, 183079, Note_on_c, 0, 86, 64
2, 183193, Note_on_c, 0, 86, 0
2, 183300, Note_on_c, 0, 87, 74
2, 183456, Note_on_c, 0, 87, 0
2, 183540, Note_on_c, 0, 89, 81
2, 183722, Note_on_c, 0, 89, 0
2, 183837, Note_on_c, 0, 86, 73
2, 183980, Note_on_c, 0, 86, 0
2, 184061, Note_on_c, 0, 87, 70
2, 184170, Control_c, 0, 64, 127
2, 184215, Note_on_c, 0, 87, 0
2, 184260, Note_on_c, 0, 89, 71
2, 184313, Control_c, 0, 64, 0
2, 184359, Note_on_c, 0, 65, 31
2, 184399, Note_on_c, 0, 62, 27
2, 184431, Note_on_c, 0, 89, 0
2, 184434, Note_on_c, 0, 60, 17
2, 184466, Note_on_c, 0, 86, 60
2, 184578, Note_on_c, 0, 86, 0
2, 184705, Note_on_c, 0, 65, 0
2, 185013, Note_on_c, 0, 77, 57
2, 185085, Note_on_c, 0, 77, 0
2, 185277, Note_on_c, 0, 77, 48
2, 185348, Note_on_c, 0, 53, 18
2, 185355, Note_on_c, 0, 77, 0
2, 185607, Note_on_c, 0, 77, 39
2, 185725, Note_on_c, 0, 77, 0
2, 185970, Note_on_c, 0, 77, 46
2, 186070, Note_on_c, 0, 62, 0
2, 186079, Control_c, 0, 64, 127
2, 186126, Note_on_c, 0, 77, 0
2, 186241, Note_on_c, 0, 77, 50
2, 186366, Control_c, 0, 64, 0
2, 186380, Note_on_c, 0, 77, 0
2, 186447, Note_on_c, 0, 65, 33
2, 186455, Note_on_c, 0, 86, 62
2, 186473, Note_on_c, 0, 62, 25
2, 186625, Note_on_c, 0, 86, 0
2, 186725, Note_on_c, 0, 72, 39
2, 186861, Note_on_c, 0, 72, 0
2, 186962, Control_c, 0, 64, 127
2, 187190, Note_on_c, 0, 65, 0
2, 187222, Note_on_c, 0, 62, 0
2, 187300, Control_c, 0, 64, 0
2, 187323, Note_on_c, 0, 72, 54
2, 187335, Note_on_c, 0, 65, 28
2, 187360, Note_on_c, 0, 62, 24
2, 187560, Control_c, 0, 64, 127
2, 187682, Note_on_c, 0, 53, 0
2, 187789, Note_on_c, 0, 65, 0
2, 187808, Note_on_c, 0, 73, 56
2, 187881, Note_on_c, 0, 60, 0
2, 187882, Note_on_c, 0, 72, 0
2, 187926, Note_on_c, 0, 62, 0
2, 188236, Control_c, 0, 64, 0
2, 188247, Note_on_c, 0, 65, 43
2, 188249, Note_on_c, 0, 60, 22
2, 188250, Note_on_c, 0, 61, 42
2, 188298, Note_on_c, 0, 56, 38
2, 188547, Control_c, 0, 64, 127
2, 188799, Note_on_c, 0, 60, 0
2, 188828, Note_on_c, 0, 65, 0
2, 188902, Note_on_c, 0, 61, 0
2, 188970, Note_on_c, 0, 73, 0
2, 189187, Note_on_c, 0, 65, 34
2, 189199, Note_on_c, 0, 61, 45
2, 189319, Note_on_c, 0, 65, 0
2, 189379, Note_on_c, 0, 61, 0
2, 189405, Note_on_c, 0, 56, 0
2, 189752, Note_on_c, 0, 39, 57
2, 189853, Note_on_c, 0, 39, 0
2, 190146, Control_c, 0, 64, 0
2, 190162, Note_on_c, 0, 72, 49
2, 190164, Note_on_c, 0, 61, 59
2, 190165, Note_on_c, 0, 65, 58
2, 190167, Note_on_c, 0, 60, 56
2, 190199, Note_on_c, 0, 69, 50
2, 190458, Control_c, 0, 64, 127
2, 190633, Note_on_c, 0, 61, 0
2, 190723, Note_on_c, 0, 65, 0
2, 190798, Note_on_c, 0, 69, 0
2, 190833, Note_on_c, 0, 72, 0
2, 190896, Note_on_c, 0, 60, 0
2, 191056, Control_c, 0, 64, 0
2, 191065, Note_on_c, 0, 70, 56
2, 191078, Note_on_c, 0, 61, 46
2, 191079, Note_on_c, 0, 58, 33
2, 191095, Note_on_c, 0, 65, 43
2, 191123, Note_on_c, 0, 58, 0
2, 191276, Control_c, 0, 64, 127
2, 191423, Note_on_c, 0, 61, 0
2, 191469, Note_on_c, 0, 70, 0
2, 191474, Note_on_c, 0, 65, 0
2, 191964, Control_c, 0, 64, 0
2, 192020, Note_on_c, 0, 41, 24
2, 192030, Note_on_c, 0, 69, 44
2, 192037, Note_on_c, 0, 60, 36
2, 192038, Note_on_c, 0, 64, 41
2, 192046, Note_on_c, 0, 48, 34
2, 192065, Note_on_c, 0, 57, 29
2, 192213, Control_c, 0, 64, 127
2, 192343, Note_on_c, 0, 60, 0
2, 192349, Note_on_c, 0, 57, 0
2, 192367, Note_on_c, 0, 64, 0
2, 192379, Note_on_c, 0, 69, 0
2, 192728, Note_on_c, 0, 41, 0
2, 192960, Note_on_c, 0, 48, 0
2, 193009, Note_on_c, 0, 72, 59
2, 193010, Note_on_c, 0, 62, 60
2, 193017, Note_on_c, 0, 67, 59
2, 193019, Control_c, 0, 64, 0
2, 193036, Note_on_c, 0, 57, 44
2, 193278, Control_c, 0, 64, 127
2, 193354, Note_on_c, 0, 62, 0
2, 193444, Note_on_c, 0, 67, 0
2, 193465, Note_on_c, 0, 57, 0
2, 193492, Note_on_c, 0, 72, 0
2, 193935, Note_on_c, 0, 76, 64
2, 193955, Control_c, 0, 64, 0
2, 193956, Note_on_c, 0, 72, 51
2, 193965, Note_on_c, 0, 67, 44
2, 193973, Note_on_c, 0, 60, 36
2, 193974, Note_on_c, 0, 69, 41
2, 194241, Control_c, 0, 64, 127
2, 194346, Note_on_c, 0, 67, 0
2, 194377, Note_on_c, 0, 69, 0
2, 194407, Note_on_c, 0, 72, 0
2, 194421, Note_on_c, 0, 76, 0
2, 194839, Control_c, 0, 64, 0
2, 194853, Note_on_c, 0, 60, 0
2, 194880, Note_on_c, 0, 79, 57
2, 194883, Note_on_c, 0, 76, 45
2, 194905, Note_on_c, 0, 72, 48
2, 194906, Note_on_c, 0, 64, 36
2, 194914, Note_on_c, 0, 69, 42
2, 195059, Control_c, 0, 64, 127
2, 195237, Note_on_c, 0, 64, 0
2, 195300, Note_on_c, 0, 79, 0
2, 195321, Note_on_c, 0, 76, 0
2, 195342, Note_on_c, 0, 72, 0
2, 195393, Note_on_c, 0, 69, 0
2, 195799, Control_c, 0, 64, 0
2, 195839, Note_on_c, 0, 77, 47
2, 195847, Note_on_c, 0, 75, 40
2, 195848, Note_on_c, 0, 70, 47
2, 195861, Note_on_c, 0, 58, 40
2, 195863, Note_on_c, 0, 67, 33
2, 195864, Note_on_c, 0, 63, 27
2, 195891, Note_on_c, 0, 53, 17
2, 196066, Control_c, 0, 64, 127
2, 196093, Note_on_c, 0, 67, 0
2, 196150, Note_on_c, 0, 70, 0
2, 196207, Note_on_c, 0, 77, 0
2, 196233, Note_on_c, 0, 75, 0
2, 196653, Note_on_c, 0, 86, 84
2, 196858, Control_c, 0, 64, 0
2, 196916, Note_on_c, 0, 60, 40
2, 196959, Note_on_c, 0, 63, 0
2, 197105, Control_c, 0, 64, 127
2, 197261, Note_on_c, 0, 60, 0
2, 197273, Note_on_c, 0, 87, 74
2, 197341, Note_on_c, 0, 86, 0
2, 197358, Note_on_c, 0, 58, 0
2, 197520, Note_on_c, 0, 87, 0
2, 197563, Note_on_c, 0, 89, 69
2, 197720, Note_on_c, 0, 89, 0
2, 197870, Control_c, 0, 64, 0
2, 197873, Note_on_c, 0, 58, 42
2, 197880, Note_on_c, 0, 78, 47
2, 197882, Note_on_c, 0, 63, 39
2, 197883, Note_on_c, 0, 87, 59
2, 197890, Note_on_c, 0, 65, 33
2, 198122, Control_c, 0, 64, 127
2, 198144, Note_on_c, 0, 87, 0
2, 198181, Note_on_c, 0, 78, 0
2, 198221, Note_on_c, 0, 63, 0
2, 198259, Note_on_c, 0, 65, 0
2, 198282, Note_on_c, 0, 58, 0
2, 198580, Note_on_c, 0, 53, 0
2, 198854, Note_on_c, 0, 61, 51
2, 198855, Note_on_c, 0, 65, 61
2, 198856, Note_on_c, 0, 68, 59
2, 198856, Note_on_c, 0, 53, 41
2, 198865, Control_c, 0, 64, 0
2, 198876, Note_on_c, 0, 57, 41
2, 199189, Control_c, 0, 64, 127
2, 199327, Note_on_c, 0, 57, 0
2, 199363, Note_on_c, 0, 53, 0
2, 199441, Note_on_c, 0, 65, 0
2, 199462, Note_on_c, 0, 61, 0
2, 199749, Control_c, 0, 64, 0
2, 199777, Note_on_c, 0, 68, 0
2, 199788, Note_on_c, 0, 62, 50
2, 199791, Note_on_c, 0, 65, 53
2, 199800, Note_on_c, 0, 57, 40
2, 199812, Note_on_c, 0, 53, 34
2, 199826, Note_on_c, 0, 46, 33
2, 200060, Control_c, 0, 64, 127
2, 200298, Note_on_c, 0, 57, 0
2, 200360, Note_on_c, 0, 62, 0
2, 200437, Note_on_c, 0, 65, 0
2, 200688, Note_on_c, 0, 53, 0
2, 200697, Control_c, 0, 64, 0
2, 200710, Note_on_c, 0, 65, 80
2, 200714, Note_on_c, 0, 57, 59
2, 200719, Note_on_c, 0, 69, 76
2, 200727, Note_on_c, 0, 62, 80
2, 200843, Note_on_c, 0, 46, 0
2, 200917, Control_c, 0, 64, 127
2, 201114, Note_on_c, 0, 62, 0
2, 201157, Note_on_c, 0, 57, 0
2, 201183, Note_on_c, 0, 65, 0
2, 201190, Note_on_c, 0, 69, 0
2, 201236, Note_on_c, 0, 70, 62
2, 201242, Control_c, 0, 64, 0
2, 201244, Note_on_c, 0, 65, 53
2, 201251, Note_on_c, 0, 58, 59
2, 201255, Note_on_c, 0, 62, 51
2, 201320, Control_c, 0, 64, 127
2, 201371, Note_on_c, 0, 58, 0
2, 201377, Note_on_c, 0, 65, 0
2, 201384, Note_on_c, 0, 70, 0
2, 201411, Note_on_c, 0, 62, 0
2, 201697, Control_c, 0, 64, 0
2, 201719, Note_on_c, 0, 60, 51
2, 201726, Note_on_c, 0, 57, 51
2, 201727, Note_on_c, 0, 62, 52
2, 201728, Note_on_c, 0, 65, 34
2, 201735, Note_on_c, 0, 53, 44
2, 202034, Control_c, 0, 64, 127
2, 202243, Note_on_c, 0, 57, 0
2, 202257, Note_on_c, 0, 65, 0
2, 202314, Note_on_c, 0, 62, 0
2, 202378, Note_on_c, 0, 60, 0
2, 202619, Note_on_c, 0, 53, 0
2, 202620, Control_c, 0, 64, 0
2, 202621, Note_on_c, 0, 67, 52
2, 202624, Note_on_c, 0, 60, 54
2, 202641, Note_on_c, 0, 62, 43
2, 202655, Note_on_c, 0, 57, 42
2, 202663, Note_on_c, 0, 55, 40
2, 202750, Note_on_c, 0, 55, 0
2, 202891, Control_c, 0, 64, 127
2, 202943, Note_on_c, 0, 57, 0
2, 202970, Note_on_c, 0, 62, 0
2, 203023, Note_on_c, 0, 60, 0
2, 203059, Note_on_c, 0, 67, 0
2, 203490, Control_c, 0, 64, 0
2, 203543, Note_on_c, 0, 47, 36
2, 203549, Note_on_c, 0, 40, 38
2, 203579, Note_on_c, 0, 55, 34
2, 203582, Note_on_c, 0, 69, 37
2, 203585, Note_on_c, 0, 62, 43
2, 203587, Note_on_c, 0, 59, 38
2, 203592, Note_on_c, 0, 66, 38
2, 203863, Note_on_c, 0, 69, 0
2, 203877, Note_on_c, 0, 40, 0
2, 203902, Note_on_c, 0, 59, 0
2, 203904, Note_on_c, 0, 62, 0
2, 203906, Note_on_c, 0, 55, 0
2, 203917, Note_on_c, 0, 66, 0
2, 203926, Note_on_c, 0, 47, 0
2, 204094, Note_on_c, 0, 40, 38
2, 204095, Note_on_c, 0, 59, 38
2, 204109, Note_on_c, 0, 69, 43
2, 204112, Note_on_c, 0, 62, 50
2, 204116, Note_on_c, 0, 66, 38
2, 204122, Note_on_c, 0, 47, 42
2, 204134, Note_on_c, 0, 55, 33
2, 204355, Note_on_c, 0, 59, 0
2, 204363, Note_on_c, 0, 62, 0
2, 204368, Note_on_c, 0, 69, 0
2, 204377, Note_on_c, 0, 47, 0
2, 204384, Note_on_c, 0, 66, 0
2, 204392, Note_on_c, 0, 40, 0
2, 204418, Note_on_c, 0, 55, 0
2, 205051, Note_on_c, 0, 40, 34
2, 205053, Note_on_c, 0, 47, 42
2, 205063, Note_on_c, 0, 69, 45
2, 205064, Note_on_c, 0, 62, 44
2, 205076, Note_on_c, 0, 66, 39
2, 205081, Note_on_c, 0, 59, 36
2, 205102, Note_on_c, 0, 55, 30
2, 205335, Note_on_c, 0, 40, 0
2, 205348, Note_on_c, 0, 59, 0
2, 205384, Note_on_c, 0, 47, 0
2, 205387, Note_on_c, 0, 62, 0
2, 205434, Note_on_c, 0, 69, 0
2, 205439, Note_on_c, 0, 55, 0
2, 205447, Note_on_c, 0, 66, 0
2, 206527, Note_on_c, 0, 61, 43
2, 206534, Note_on_c, 0, 45, 44
2, 206540, Note_on_c, 0, 58, 43
2, 206543, Note_on_c, 0, 55, 34
2, 206544, Note_on_c, 0, 69, 39
2, 206582, Note_on_c, 0, 64, 32
2, 206788, Note_on_c, 0, 58, 0
2, 206809, Note_on_c, 0, 45, 0
2, 206811, Note_on_c, 0, 55, 0
2, 206815, Note_on_c, 0, 64, 0
2, 206818, Note_on_c, 0, 69, 0
2, 206829, Note_on_c, 0, 61, 0
2, 207048, Note_on_c, 0, 61, 49
2, 207052, Note_on_c, 0, 45, 50
2, 207055, Note_on_c, 0, 58, 44
2, 207061, Note_on_c, 0, 69, 39
2, 207072, Note_on_c, 0, 55, 35
2, 207089, Note_on_c, 0, 64, 38
2, 207300, Note_on_c, 0, 58, 0
2, 207315, Note_on_c, 0, 64, 0
2, 207361, Note_on_c, 0, 45, 0
2, 207366, Note_on_c, 0, 69, 0
2, 207380, Note_on_c, 0, 61, 0
2, 207415, Note_on_c, 0, 55, 0
2, 207985, Note_on_c, 0, 61, 56
2, 207993, Note_on_c, 0, 69, 50
2, 207994, Note_on_c, 0, 57, 54
2, 208002, Note_on_c, 0, 66, 55
2, 208031, Note_on_c, 0, 50, 44
2, 208343, Note_on_c, 0, 61, 0
2, 208373, Note_on_c, 0, 50, 0
2, 208387, Note_on_c, 0, 66, 0
2, 208388, Note_on_c, 0, 57, 0
2, 208416, Note_on_c, 0, 69, 0
2, 209355, Note_on_c, 0, 61, 50
2, 209358, Note_on_c, 0, 69, 45
2, 209373, Note_on_c, 0, 66, 43
2, 209385, Note_on_c, 0, 57, 43
2, 209386, Note_on_c, 0, 50, 60
2, 209684, Note_on_c, 0, 50, 0
2, 209687, Note_on_c, 0, 57, 0
2, 209704, Note_on_c, 0, 61, 0
2, 209719, Note_on_c, 0, 66, 0
2, 209727, Note_on_c, 0, 69, 0
2, 209878, Note_on_c, 0, 61, 50
2, 209889, Note_on_c, 0, 69, 38
2, 209894, Note_on_c, 0, 57, 41
2, 209896, Note_on_c, 0, 66, 46
2, 209903, Note_on_c, 0, 50, 55
2, 210100, Note_on_c, 0, 57, 0
2, 210102, Note_on_c, 0, 50, 0
2, 210152, Note_on_c, 0, 69, 0
2, 210167, Note_on_c, 0, 61, 0
2, 210170, Note_on_c, 0, 66, 0
2, 210729, Note_on_c, 0, 40, 32
2, 210743, Note_on_c, 0, 47, 33
2, 210765, Note_on_c, 0, 69, 55
2, 210777, Note_on_c, 0, 59, 44
2, 210780, Note_on_c, 0, 66, 46
2, 210781, Note_on_c, 0, 62, 54
2, 210787, Note_on_c, 0, 55, 36
2, 211057, Note_on_c, 0, 69, 0
2, 211058, Note_on_c, 0, 62, 0
2, 211065, Note_on_c, 0, 59, 0
2, 211098, Note_on_c, 0, 66, 0
2, 211104, Note_on_c, 0, 40, 0
2, 211131, Note_on_c, 0, 55, 0
2, 211150, Note_on_c, 0, 47, 0
2, 211276, Note_on_c, 0, 40, 26
2, 211281, Note_on_c, 0, 69, 52
2, 211291, Note_on_c, 0, 47, 46
2, 211294, Note_on_c, 0, 62, 50
2, 211295, Note_on_c, 0, 66, 43
2, 211302, Note_on_c, 0, 59, 41
2, 211317, Note_on_c, 0, 55, 31
2, 211605, Note_on_c, 0, 69, 0
2, 211610, Note_on_c, 0, 62, 0
2, 211612, Note_on_c, 0, 59, 0
2, 211638, Note_on_c, 0, 40, 0
2, 211650, Note_on_c, 0, 47, 0
2, 211652, Note_on_c, 0, 55, 0
2, 211673, Note_on_c, 0, 66, 0
2, 212248, Note_on_c, 0, 47, 51
2, 212253, Note_on_c, 0, 69, 53
2, 212256, Note_on_c, 0, 59, 61
2, 212257, Note_on_c, 0, 62, 62
2, 212263, Note_on_c, 0, 40, 44
2, 212266, Note_on_c, 0, 66, 52
2, 212274, Note_on_c, 0, 55, 38
2, 212560, Note_on_c, 0, 40, 0
2, 212567, Note_on_c, 0, 59, 0
2, 212600, Note_on_c, 0, 47, 0
2, 212620, Note_on_c, 0, 69, 0
2, 212637, Note_on_c, 0, 62, 0
2, 212678, Note_on_c, 0, 66, 0
2, 212696, Note_on_c, 0, 55, 0
2, 213657, Note_on_c, 0, 69, 57
2, 213659, Note_on_c, 0, 61, 62
2, 213666, Note_on_c, 0, 45, 54
2, 213667, Note_on_c, 0, 65, 55
2, 213674, Note_on_c, 0, 55, 50
2, 213956, Note_on_c, 0, 61, 0
2, 213976, Note_on_c, 0, 55, 0
2, 213977, Note_on_c, 0, 45, 0
2, 213983, Note_on_c, 0, 65, 0
2, 213985, Note_on_c, 0, 69, 0
2, 214114, Note_on_c, 0, 61, 57
2, 214117, Note_on_c, 0, 45, 53
2, 214123, Note_on_c, 0, 55, 51
2, 214125, Note_on_c, 0, 65, 48
2, 214126, Note_on_c, 0, 69, 46
2, 214533, Note_on_c, 0, 69, 0
2, 214539, Note_on_c, 0, 61, 0
2, 214541, Note_on_c, 0, 65, 0
2, 214563, Note_on_c, 0, 45, 0
2, 214579, Note_on_c, 0, 55, 0
2, 215062, Note_on_c, 0, 61, 57
2, 215082, Note_on_c, 0, 69, 50
2, 215087, Note_on_c, 0, 64, 51
2, 215094, Note_on_c, 0, 66, 45
2, 215100, Note_on_c, 0, 50, 43
2, 215384, Note_on_c, 0, 69, 0
2, 215402, Note_on_c, 0, 64, 0
2, 215419, Note_on_c, 0, 61, 0
2, 215422, Note_on_c, 0, 50, 0
2, 215465, Note_on_c, 0, 66, 0
2, 215584, Note_on_c, 0, 61, 42
2, 215611, Note_on_c, 0, 50, 38
2, 215614, Note_on_c, 0, 66, 45
2, 215618, Note_on_c, 0, 69, 44
2, 215619, Note_on_c, 0, 64, 51
2, 215636, Note_on_c, 0, 57, 46
2, 215877, Note_on_c, 0, 50, 0
2, 215891, Note_on_c, 0, 64, 0
2, 215900, Note_on_c, 0, 61, 0
2, 215913, Note_on_c, 0, 69, 0
2, 215920, Note_on_c, 0, 57, 0
2, 215958, Note_on_c, 0, 66, 0
2, 216500, Note_on_c, 0, 61, 48
2, 216518, Note_on_c, 0, 57, 52
2, 216520, Note_on_c, 0, 69, 40
2, 216527, Note_on_c, 0, 64, 45
2, 216535, Note_on_c, 0, 50, 48
2, 216551, Note_on_c, 0, 66, 43
2, 216828, Note_on_c, 0, 61, 0
2, 216829, Note_on_c, 0, 50, 0
2, 216836, Note_on_c, 0, 64, 0
2, 216846, Note_on_c, 0, 57, 0
2, 216850, Note_on_c, 0, 69, 0
2, 216888, Note_on_c, 0, 66, 0
2, 216998, Note_on_c, 0, 61, 44
2, 217012, Note_on_c, 0, 57, 43
2, 217013, Note_on_c, 0, 50, 43
2, 217019, Note_on_c, 0, 69, 41
2, 217029, Note_on_c, 0, 64, 50
2, 217047, Note_on_c, 0, 66, 35
2, 217323, Note_on_c, 0, 64, 0
2, 217327, Note_on_c, 0, 69, 0
2, 217358, Note_on_c, 0, 57, 0
2, 217362, Note_on_c, 0, 61, 0
2, 217383, Note_on_c, 0, 66, 0
2, 217405, Note_on_c, 0, 50, 0
2, 217972, Note_on_c, 0, 57, 51
2, 217975, Note_on_c, 0, 38, 50
2, 217981, Note_on_c, 0, 65, 44
2, 217983, Note_on_c, 0, 50, 43
2, 217984, Note_on_c, 0, 60, 54
2, 217992, Note_on_c, 0, 62, 51
2, 218204, Control_c, 0, 64, 127
2, 218532, Note_on_c, 0, 57, 0
2, 218605, Note_on_c, 0, 60, 0
2, 218606, Note_on_c, 0, 38, 0
2, 218614, Note_on_c, 0, 62, 0
2, 218657, Note_on_c, 0, 65, 0
2, 218664, Note_on_c, 0, 50, 0
2, 219495, Note_on_c, 0, 79, 92
2, 219646, Note_on_c, 0, 79, 0
2, 219924, Note_on_c, 0, 65, 27
2, 220286, Note_on_c, 0, 65, 0
2, 220418, Note_on_c, 0, 69, 53
2, 220643, Note_on_c, 0, 69, 0
2, 220803, Control_c, 0, 64, 0
2, 220822, Note_on_c, 0, 73, 37
2, 220826, Note_on_c, 0, 68, 46
2, 220838, Note_on_c, 0, 64, 35
2, 220853, Note_on_c, 0, 65, 34
2, 220861, Note_on_c, 0, 53, 20
2, 220870, Note_on_c, 0, 59, 32
2, 221062, Note_on_c, 0, 64, 0
2, 221088, Control_c, 0, 64, 127
2, 221114, Note_on_c, 0, 59, 0
2, 221159, Note_on_c, 0, 53, 0
2, 221538, Note_on_c, 0, 65, 0
2, 221565, Note_on_c, 0, 68, 0
2, 221622, Note_on_c, 0, 73, 0
2, 221802, Control_c, 0, 64, 0
2, 221825, Note_on_c, 0, 53, 32
2, 221828, Note_on_c, 0, 74, 48
2, 221834, Note_on_c, 0, 65, 37
2, 221838, Note_on_c, 0, 68, 30
2, 221850, Note_on_c, 0, 71, 40
2, 221858, Note_on_c, 0, 43, 22
2, 222009, Note_on_c, 0, 43, 0
2, 222063, Control_c, 0, 64, 127
2, 222188, Note_on_c, 0, 53, 0
2, 222247, Note_on_c, 0, 68, 0
2, 222248, Note_on_c, 0, 65, 0
2, 222275, Note_on_c, 0, 71, 0
2, 222324, Note_on_c, 0, 74, 0
2, 222764, Control_c, 0, 64, 0
2, 222791, Note_on_c, 0, 76, 42
2, 222797, Note_on_c, 0, 71, 47
2, 222805, Note_on_c, 0, 64, 43
2, 222834, Note_on_c, 0, 59, 27
2, 222858, Note_on_c, 0, 55, 33
2, 222875, Note_on_c, 0, 48, 17
2, 223036, Control_c, 0, 64, 127
2, 223171, Note_on_c, 0, 59, 0
2, 223264, Note_on_c, 0, 48, 0
2, 223278, Note_on_c, 0, 71, 0
2, 223362, Note_on_c, 0, 62, 67
2, 223387, Note_on_c, 0, 76, 0
2, 223464, Note_on_c, 0, 64, 0
2, 223800, Note_on_c, 0, 64, 50
2, 223815, Note_on_c, 0, 67, 44
2, 224176, Note_on_c, 0, 62, 0
2, 224312, Note_on_c, 0, 60, 68
2, 224362, Control_c, 0, 64, 0
2, 224614, Note_on_c, 0, 67, 0
2, 224652, Note_on_c, 0, 64, 0
2, 224673, Control_c, 0, 64, 127
2, 224787, Note_on_c, 0, 64, 35
2, 224797, Note_on_c, 0, 67, 30
2, 225124, Note_on_c, 0, 60, 0
2, 225257, Note_on_c, 0, 59, 70
2, 225284, Control_c, 0, 64, 0
2, 225363, Note_on_c, 0, 67, 0
2, 225465, Note_on_c, 0, 64, 0
2, 225571, Control_c, 0, 64, 127
2, 225737, Note_on_c, 0, 64, 31
2, 225742, Note_on_c, 0, 67, 36
2, 225910, Note_on_c, 0, 55, 0
2, 226185, Note_on_c, 0, 67, 0
2, 226193, Note_on_c, 0, 59, 0
2, 226234, Note_on_c, 0, 55, 51
2, 226311, Note_on_c, 0, 64, 0
2, 226688, Control_c, 0, 64, 0
2, 226711, Note_on_c, 0, 58, 54
2, 226713, Note_on_c, 0, 65, 50
2, 226714, Note_on_c, 0, 62, 51
2, 226742, Note_on_c, 0, 55, 0
2, 226960, Control_c, 0, 64, 127
2, 226983, Note_on_c, 0, 58, 0
2, 227056, Note_on_c, 0, 65, 0
2, 227136, Note_on_c, 0, 62, 0
2, 227219, Note_on_c, 0, 55, 45
2, 227294, Note_on_c, 0, 55, 0
2, 227700, Note_on_c, 0, 58, 47
2, 227889, Note_on_c, 0, 58, 0
2, 228133, Note_on_c, 0, 65, 55
2, 228234, Note_on_c, 0, 65, 0
2, 228519, Control_c, 0, 64, 0
2, 228568, Note_on_c, 0, 64, 40
2, 228597, Note_on_c, 0, 24, 40
2, 228601, Note_on_c, 0, 56, 50
2, 228603, Note_on_c, 0, 36, 40
2, 228627, Note_on_c, 0, 61, 27
2, 228633, Note_on_c, 0, 62, 31
2, 228768, Note_on_c, 0, 24, 0
2, 228777, Control_c, 0, 64, 127
2, 228850, Note_on_c, 0, 36, 0
2, 228861, Note_on_c, 0, 56, 0
2, 228881, Note_on_c, 0, 62, 0
2, 228889, Note_on_c, 0, 61, 0
2, 228913, Note_on_c, 0, 64, 0
2, 229461, Note_on_c, 0, 61, 42
2, 229490, Note_on_c, 0, 73, 46
2, 229507, Control_c, 0, 64, 0
2, 229513, Note_on_c, 0, 68, 45
2, 229515, Note_on_c, 0, 58, 45
2, 229522, Note_on_c, 0, 64, 31
2, 229612, Note_on_c, 0, 61, 0
2, 229621, Note_on_c, 0, 58, 0
2, 229674, Control_c, 0, 64, 127
2, 229902, Note_on_c, 0, 64, 0
2, 229954, Note_on_c, 0, 73, 0
2, 229984, Note_on_c, 0, 68, 0
2, 230363, Control_c, 0, 64, 0
2, 230414, Note_on_c, 0, 41, 32
2, 230417, Note_on_c, 0, 72, 37
2, 230419, Note_on_c, 0, 67, 38
2, 230426, Note_on_c, 0, 48, 33
2, 230455, Note_on_c, 0, 57, 38
2, 230505, Note_on_c, 0, 67, 0
2, 230559, Note_on_c, 0, 41, 0
2, 230589, Note_on_c, 0, 72, 0
2, 230610, Control_c, 0, 64, 127
2, 230650, Note_on_c, 0, 48, 0
2, 230721, Note_on_c, 0, 57, 0
2, 231039, Note_on_c, 0, 88, 73
2, 231045, Note_on_c, 0, 83, 80
2, 231052, Note_on_c, 0, 76, 74
2, 231315, Note_on_c, 0, 64, 56
2, 231338, Control_c, 0, 64, 0
2, 231346, Note_on_c, 0, 60, 42
2, 231383, Note_on_c, 0, 64, 0
2, 231390, Note_on_c, 0, 76, 0
2, 231437, Note_on_c, 0, 83, 0
2, 231449, Note_on_c, 0, 88, 0
2, 231456, Note_on_c, 0, 60, 0
2, 231531, Control_c, 0, 64, 127
2, 231639, Note_on_c, 0, 89, 68
2, 231644, Note_on_c, 0, 84, 72
2, 231650, Note_on_c, 0, 77, 68
2, 231867, Note_on_c, 0, 89, 0
2, 231873, Note_on_c, 0, 84, 0
2, 231935, Note_on_c, 0, 77, 0
2, 232221, Control_c, 0, 64, 0
2, 232267, Note_on_c, 0, 84, 53
2, 232276, Note_on_c, 0, 36, 42
2, 232287, Note_on_c, 0, 79, 54
2, 232289, Note_on_c, 0, 72, 35
2, 232292, Note_on_c, 0, 48, 36
2, 232405, Note_on_c, 0, 36, 0
2, 232416, Control_c, 0, 64, 127
2, 232502, Note_on_c, 0, 48, 0
2, 232844, Note_on_c, 0, 72, 0
2, 232880, Note_on_c, 0, 84, 0
2, 232994, Note_on_c, 0, 79, 0
2, 233244, Note_on_c, 0, 62, 39
2, 233255, Note_on_c, 0, 60, 32
2, 233263, Note_on_c, 0, 53, 34
2, 233299, Note_on_c, 0, 57, 26
2, 233458, Note_on_c, 0, 62, 0
2, 233511, Note_on_c, 0, 60, 0
2, 233562, Note_on_c, 0, 53, 0
2, 233574, Note_on_c, 0, 57, 0
2, 233857, Note_on_c, 0, 86, 52
2, 233867, Note_on_c, 0, 74, 56
2, 233951, Note_on_c, 0, 74, 0
2, 234021, Note_on_c, 0, 86, 0
2, 234228, Note_on_c, 0, 47, 51
2, 234258, Note_on_c, 0, 57, 36
2, 234266, Note_on_c, 0, 87, 38
2, 234272, Note_on_c, 0, 75, 57
2, 234273, Control_c, 0, 64, 0
2, 234378, Note_on_c, 0, 47, 0
2, 234393, Note_on_c, 0, 57, 0
2, 234398, Note_on_c, 0, 75, 0
2, 234403, Note_on_c, 0, 76, 52
2, 234416, Note_on_c, 0, 87, 0
2, 234584, Note_on_c, 0, 83, 41
2, 234587, Note_on_c, 0, 76, 0
2, 234596, Note_on_c, 0, 88, 29
2, 234674, Note_on_c, 0, 88, 0
2, 234686, Note_on_c, 0, 76, 48
2, 234723, Note_on_c, 0, 83, 0
2, 234853, Note_on_c, 0, 83, 42
2, 234858, Control_c, 0, 64, 127
2, 234859, Note_on_c, 0, 76, 0
2, 234866, Note_on_c, 0, 88, 24
2, 234942, Note_on_c, 0, 88, 0
2, 234959, Note_on_c, 0, 76, 46
2, 234969, Note_on_c, 0, 83, 0
2, 235100, Note_on_c, 0, 76, 0
2, 235113, Note_on_c, 0, 88, 34
2, 235128, Note_on_c, 0, 83, 54
2, 235197, Note_on_c, 0, 76, 46
2, 235205, Note_on_c, 0, 65, 60
2, 235209, Control_c, 0, 64, 0
2, 235213, Note_on_c, 0, 62, 54
2, 235221, Note_on_c, 0, 88, 0
2, 235231, Note_on_c, 0, 83, 0
2, 235247, Note_on_c, 0, 57, 33
2, 235266, Note_on_c, 0, 62, 0
2, 235310, Note_on_c, 0, 57, 0
2, 235326, Note_on_c, 0, 65, 0
2, 235344, Note_on_c, 0, 76, 0
2, 235367, Note_on_c, 0, 83, 47
2, 235369, Note_on_c, 0, 88, 34
2, 235446, Note_on_c, 0, 88, 0
2, 235450, Note_on_c, 0, 76, 42
2, 235477, Note_on_c, 0, 83, 0
2, 235599, Control_c, 0, 64, 127
2, 235607, Note_on_c, 0, 76, 0
2, 235629, Note_on_c, 0, 88, 28
2, 235643, Note_on_c, 0, 83, 43
2, 235664, Control_c, 0, 64, 0
2, 235700, Note_on_c, 0, 88, 0
2, 235715, Note_on_c, 0, 83, 0
2, 235716, Note_on_c, 0, 76, 46
2, 235717, Control_c, 0, 64, 127
2, 235875, Note_on_c, 0, 76, 0
2, 235886, Note_on_c, 0, 88, 47
2, 235904, Note_on_c, 0, 83, 46
2, 236019, Note_on_c, 0, 76, 37
2, 236035, Note_on_c, 0, 88, 0
2, 236055, Note_on_c, 0, 83, 0
2, 236103, Note_on_c, 0, 40, 39
2, 236157, Control_c, 0, 64, 0
2, 236160, Note_on_c, 0, 80, 44
2, 236193, Note_on_c, 0, 83, 44
2, 236216, Note_on_c, 0, 88, 50
2, 236228, Note_on_c, 0, 76, 0
2, 236271, Note_on_c, 0, 40, 0
2, 236317, Note_on_c, 0, 76, 29
2, 236331, Note_on_c, 0, 80, 0
2, 236337, Note_on_c, 0, 83, 0
2, 236387, Note_on_c, 0, 88, 0
2, 236417, Control_c, 0, 64, 127
2, 236477, Note_on_c, 0, 76, 0
2, 236481, Note_on_c, 0, 80, 31
2, 236499, Note_on_c, 0, 83, 36
2, 236588, Note_on_c, 0, 76, 38
2, 236596, Note_on_c, 0, 80, 0
2, 236606, Note_on_c, 0, 83, 0
2, 236723, Note_on_c, 0, 76, 0
2, 236746, Note_on_c, 0, 80, 28
2, 236751, Note_on_c, 0, 83, 37
2, 236757, Note_on_c, 0, 88, 34
2, 236832, Note_on_c, 0, 76, 39
2, 236852, Note_on_c, 0, 88, 0
2, 236868, Note_on_c, 0, 83, 0
2, 236873, Note_on_c, 0, 80, 0
2, 236983, Note_on_c, 0, 76, 0
2, 236996, Note_on_c, 0, 80, 34
2, 237007, Note_on_c, 0, 83, 40
2, 237034, Note_on_c, 0, 88, 24
2, 237079, Control_c, 0, 64, 0
2, 237087, Note_on_c, 0, 76, 44
2, 237088, Note_on_c, 0, 88, 0
2, 237094, Note_on_c, 0, 62, 39
2, 237104, Note_on_c, 0, 56, 35
2, 237121, Note_on_c, 0, 83, 0
2, 237132, Note_on_c, 0, 80, 0
2, 237149, Note_on_c, 0, 62, 0
2, 237234, Note_on_c, 0, 76, 0
2, 237235, Note_on_c, 0, 56, 0
2, 237246, Note_on_c, 0, 80, 33
2, 237258, Note_on_c, 0, 83, 36
2, 237261, Control_c, 0, 64, 127
2, 237337, Note_on_c, 0, 76, 47
2, 237390, Note_on_c, 0, 83, 0
2, 237420, Note_on_c, 0, 80, 0
2, 237489, Note_on_c, 0, 80, 28
2, 237495, Note_on_c, 0, 76, 0
2, 237517, Note_on_c, 0, 83, 47
2, 237538, Note_on_c, 0, 88, 22
2, 237609, Note_on_c, 0, 76, 35
2, 237624, Note_on_c, 0, 88, 0
2, 237710, Note_on_c, 0, 83, 0
2, 237775, Note_on_c, 0, 88, 30
2, 237795, Note_on_c, 0, 83, 19
2, 237824, Note_on_c, 0, 76, 0
2, 237876, Note_on_c, 0, 41, 33
2, 237885, Note_on_c, 0, 83, 0
2, 237940, Note_on_c, 0, 80, 0
2, 237951, Note_on_c, 0, 88, 0
2, 237957, Note_on_c, 0, 48, 43
2, 238015, Control_c, 0, 64, 0
2, 238060, Note_on_c, 0, 57, 50
2, 238062, Note_on_c, 0, 41, 0
2, 238084, Note_on_c, 0, 76, 49
2, 238110, Note_on_c, 0, 81, 55
2, 238117, Note_on_c, 0, 88, 53
2, 238121, Note_on_c, 0, 84, 53
2, 238235, Control_c, 0, 64, 127
2, 238286, Note_on_c, 0, 48, 0
2, 238353, Note_on_c, 0, 57, 0
2, 238605, Note_on_c, 0, 76, 0
2, 238642, Note_on_c, 0, 88, 0
2, 238672, Note_on_c, 0, 84, 0
2, 238679, Note_on_c, 0, 81, 0
2, 239053, Note_on_c, 0, 89, 68
2, 239054, Note_on_c, 0, 64, 63
2, 239061, Note_on_c, 0, 81, 73
2, 239063, Note_on_c, 0, 60, 46
2, 239070, Note_on_c, 0, 57, 54
2, 239070, Note_on_c, 0, 77, 71
2, 239071, Note_on_c, 0, 84, 57
2, 239082, Note_on_c, 0, 53, 33
2, 239329, Note_on_c, 0, 89, 0
2, 239399, Note_on_c, 0, 84, 0
2, 239409, Note_on_c, 0, 81, 0
2, 239447, Note_on_c, 0, 77, 0
2, 239483, Note_on_c, 0, 64, 0
2, 240010, Note_on_c, 0, 53, 0
2, 240033, Note_on_c, 0, 69, 75
2, 240034, Note_on_c, 0, 72, 69
2, 240035, Note_on_c, 0, 67, 76
2, 240103, Note_on_c, 0, 57, 0
2, 240120, Note_on_c, 0, 60, 0
2, 240337, Note_on_c, 0, 67, 0
2, 240528, Note_on_c, 0, 67, 83
2, 240575, Control_c, 0, 64, 0
2, 240730, Control_c, 0, 64, 127
2, 241004, Control_c, 0, 64, 0
2, 241015, Note_on_c, 0, 65, 72
2, 241026, Note_on_c, 0, 67, 0
2, 241144, Control_c, 0, 64, 127
2, 241319, Note_on_c, 0, 69, 0
2, 241338, Note_on_c, 0, 72, 0
2, 241465, Note_on_c, 0, 65, 0
2, 241475, Note_on_c, 0, 76, 60
2, 241482, Note_on_c, 0, 69, 60
2, 241490, Note_on_c, 0, 72, 51
2, 241491, Note_on_c, 0, 67, 58
2, 241505, Note_on_c, 0, 64, 64
2, 241812, Note_on_c, 0, 67, 0
2, 241820, Note_on_c, 0, 76, 0
2, 241884, Note_on_c, 0, 64, 0
2, 241959, Note_on_c, 0, 69, 0
2, 242003, Control_c, 0, 64, 0
2, 242011, Note_on_c, 0, 75, 68
2, 242025, Note_on_c, 0, 69, 40
2, 242029, Note_on_c, 0, 67, 60
2, 242302, Control_c, 0, 64, 127
2, 242487, Note_on_c, 0, 63, 57
2, 242503, Note_on_c, 0, 69, 0
2, 242528, Note_on_c, 0, 75, 0
2, 242533, Note_on_c, 0, 72, 0
2, 242624, Note_on_c, 0, 67, 0
2, 242871, Note_on_c, 0, 63, 0
2, 242951, Control_c, 0, 64, 0
2, 242964, Note_on_c, 0, 63, 47
2, 242970, Note_on_c, 0, 67, 43
2, 242984, Note_on_c, 0, 72, 35
2, 243001, Note_on_c, 0, 69, 38
2, 243037, Note_on_c, 0, 60, 14
2, 243211, Control_c, 0, 64, 127
2, 243379, Note_on_c, 0, 60, 0
2, 243449, Note_on_c, 0, 57, 36
2, 243529, Note_on_c, 0, 67, 0
2, 243649, Note_on_c, 0, 69, 0
2, 243685, Note_on_c, 0, 63, 0
2, 243824, Note_on_c, 0, 57, 0
2, 243898, Control_c, 0, 64, 0
2, 243920, Note_on_c, 0, 66, 53
2, 243926, Note_on_c, 0, 62, 50
2, 243930, Note_on_c, 0, 60, 34
2, 243979, Note_on_c, 0, 54, 28
2, 244022, Note_on_c, 0, 72, 0
2, 244027, Note_on_c, 0, 60, 0
2, 244093, Control_c, 0, 64, 127
2, 244122, Note_on_c, 0, 54, 0
2, 244163, Note_on_c, 0, 62, 0
2, 244165, Note_on_c, 0, 66, 0
2, 244403, Note_on_c, 0, 70, 58
2, 244419, Control_c, 0, 64, 0
2, 244443, Note_on_c, 0, 63, 65
2, 244446, Note_on_c, 0, 67, 54
2, 244460, Note_on_c, 0, 60, 61
2, 244549, Control_c, 0, 64, 127
2, 244606, Note_on_c, 0, 67, 0
2, 244648, Note_on_c, 0, 60, 0
2, 244696, Note_on_c, 0, 70, 0
2, 244713, Note_on_c, 0, 63, 0
2, 244901, Control_c, 0, 64, 0
2, 244923, Note_on_c, 0, 65, 57
2, 244928, Note_on_c, 0, 69, 56
2, 244941, Note_on_c, 0, 51, 43
2, 244942, Note_on_c, 0, 61, 49
2, 244960, Note_on_c, 0, 57, 52
2, 245288, Note_on_c, 0, 51, 0
2, 245367, Control_c, 0, 64, 127
2, 245387, Note_on_c, 0, 41, 52
2, 245516, Note_on_c, 0, 41, 0
2, 245628, Note_on_c, 0, 65, 0
2, 245634, Note_on_c, 0, 57, 0
2, 245720, Note_on_c, 0, 61, 0
2, 245777, Note_on_c, 0, 69, 0
2, 245861, Control_c, 0, 64, 0
2, 245886, Note_on_c, 0, 62, 57
2, 245887, Note_on_c, 0, 65, 41
2, 245900, Note_on_c, 0, 57, 53
2, 245917, Note_on_c, 0, 46, 54
2, 246173, Control_c, 0, 64, 127
2, 246219, Note_on_c, 0, 57, 0
2, 246378, Note_on_c, 0, 53, 35
2, 246426, Note_on_c, 0, 62, 0
2, 246438, Note_on_c, 0, 46, 0
2, 246453, Note_on_c, 0, 53, 0
2, 246531, Note_on_c, 0, 65, 0
2, 246887, Note_on_c, 0, 65, 44
2, 246904, Note_on_c, 0, 62, 37
2, 246924, Note_on_c, 0, 60, 45
2, 247311, Note_on_c, 0, 81, 79
2, 247318, Note_on_c, 0, 74, 87
2, 247338, Note_on_c, 0, 65, 0
2, 247578, Note_on_c, 0, 62, 0
2, 247721, Note_on_c, 0, 74, 0
2, 247734, Note_on_c, 0, 81, 0
2, 247758, Control_c, 0, 64, 0
2, 247789, Note_on_c, 0, 78, 42
2, 247815, Note_on_c, 0, 62, 44
2, 247824, Note_on_c, 0, 69, 43
2, 247831, Note_on_c, 0, 65, 28
2, 247832, Note_on_c, 0, 74, 42
2, 248001, Note_on_c, 0, 65, 0
2, 248034, Control_c, 0, 64, 127
2, 248112, Note_on_c, 0, 74, 0
2, 248146, Note_on_c, 0, 69, 0
2, 248212, Note_on_c, 0, 78, 0
2, 248272, Note_on_c, 0, 81, 35
2, 248279, Note_on_c, 0, 74, 38
2, 248487, Note_on_c, 0, 74, 0
2, 248536, Note_on_c, 0, 81, 0
2, 248710, Control_c, 0, 64, 0
2, 248742, Note_on_c, 0, 53, 31
2, 248745, Note_on_c, 0, 74, 39
2, 248748, Note_on_c, 0, 69, 49
2, 248751, Note_on_c, 0, 77, 54
2, 248939, Note_on_c, 0, 60, 0
2, 248943, Control_c, 0, 64, 127
2, 248951, Note_on_c, 0, 62, 0
2, 249091, Note_on_c, 0, 74, 0
2, 249172, Note_on_c, 0, 69, 0
2, 249244, Note_on_c, 0, 74, 47
2, 249354, Note_on_c, 0, 77, 0
2, 249391, Note_on_c, 0, 53, 0
2, 249412, Note_on_c, 0, 74, 0
2, 249689, Note_on_c, 0, 65, 50
2, 249692, Note_on_c, 0, 73, 45
2, 249709, Note_on_c, 0, 56, 46
2, 249709, Control_c, 0, 64, 0
2, 249732, Note_on_c, 0, 60, 24
2, 249743, Note_on_c, 0, 61, 23
2, 249956, Control_c, 0, 64, 127
2, 249986, Note_on_c, 0, 73, 0
2, 250169, Note_on_c, 0, 84, 66
2, 250283, Note_on_c, 0, 65, 0
2, 250365, Note_on_c, 0, 60, 0
2, 250387, Note_on_c, 0, 61, 0
2, 250420, Note_on_c, 0, 84, 0
2, 250620, Control_c, 0, 64, 0
2, 250643, Note_on_c, 0, 82, 46
2, 250650, Note_on_c, 0, 77, 36
2, 250654, Note_on_c, 0, 73, 30
2, 250656, Note_on_c, 0, 61, 36
2, 250663, Note_on_c, 0, 65, 34
2, 250791, Note_on_c, 0, 65, 0
2, 250814, Note_on_c, 0, 56, 0
2, 250860, Note_on_c, 0, 61, 0
2, 250879, Control_c, 0, 64, 127
2, 251593, Note_on_c, 0, 27, 39
2, 251594, Control_c, 0, 64, 0
2, 251697, Note_on_c, 0, 27, 0
2, 251762, Control_c, 0, 64, 127
2, 252127, Note_on_c, 0, 73, 0
2, 252439, Note_on_c, 0, 77, 0
2, 252528, Note_on_c, 0, 61, 37
2, 252535, Note_on_c, 0, 58, 48
2, 252542, Note_on_c, 0, 64, 33
2, 252673, Note_on_c, 0, 64, 0
2, 252732, Note_on_c, 0, 82, 0
2, 252744, Note_on_c, 0, 61, 0
2, 252749, Note_on_c, 0, 58, 0
2, 253023, Note_on_c, 0, 82, 68
2, 253216, Note_on_c, 0, 84, 64
2, 253229, Note_on_c, 0, 86, 38
2, 253284, Note_on_c, 0, 86, 0
2, 253347, Note_on_c, 0, 82, 0
2, 253380, Note_on_c, 0, 84, 0
2, 253437, Control_c, 0, 64, 0
2, 253456, Note_on_c, 0, 81, 77
2, 253458, Note_on_c, 0, 45, 71
2, 253737, Control_c, 0, 64, 127
2, 253786, Note_on_c, 0, 45, 0
2, 254459, Note_on_c, 0, 64, 37
2, 254477, Note_on_c, 0, 60, 38
2, 254487, Note_on_c, 0, 59, 42
2, 254505, Note_on_c, 0, 55, 26
2, 254949, Note_on_c, 0, 55, 0
2, 255070, Note_on_c, 0, 59, 0
2, 255217, Note_on_c, 0, 64, 0
2, 255310, Note_on_c, 0, 60, 0
2, 255479, Note_on_c, 0, 56, 71
2, 255498, Note_on_c, 0, 64, 60
2, 255503, Control_c, 0, 64, 0
2, 255511, Note_on_c, 0, 60, 46
2, 255762, Control_c, 0, 64, 127
2, 256110, Note_on_c, 0, 56, 0
2, 256119, Note_on_c, 0, 60, 0
2, 256219, Note_on_c, 0, 64, 0
2, 256425, Control_c, 0, 64, 0
2, 256462, Note_on_c, 0, 64, 39
2, 256473, Note_on_c, 0, 55, 38
2, 256486, Note_on_c, 0, 60, 36
2, 256607, Control_c, 0, 64, 127
2, 256823, Note_on_c, 0, 81, 0
2, 256960, Note_on_c, 0, 64, 0
2, 256961, Note_on_c, 0, 55, 0
2, 257029, Note_on_c, 0, 60, 0
2, 257323, Control_c, 0, 64, 0
2, 257380, Note_on_c, 0, 81, 39
2, 257382, Note_on_c, 0, 64, 34
2, 257403, Note_on_c, 0, 54, 34
2, 257410, Note_on_c, 0, 75, 39
2, 257428, Note_on_c, 0, 60, 27
2, 257433, Note_on_c, 0, 69, 20
2, 257517, Note_on_c, 0, 64, 0
2, 257520, Note_on_c, 0, 60, 0
2, 257530, Control_c, 0, 64, 127
2, 257592, Note_on_c, 0, 54, 0
2, 257715, Note_on_c, 0, 81, 0
2, 257780, Note_on_c, 0, 75, 0
2, 257811, Note_on_c, 0, 69, 0
2, 258047, Note_on_c, 0, 38, 44
2, 258163, Note_on_c, 0, 38, 0
2, 258821, Note_on_c, 0, 51, 45
2, 258918, Note_on_c, 0, 51, 0
2, 258966, Note_on_c, 0, 69, 70
2, 258973, Note_on_c, 0, 66, 71
2, 258974, Note_on_c, 0, 63, 76
2, 258975, Note_on_c, 0, 60, 79
2, 258984, Note_on_c, 0, 54, 75
2, 259062, Control_c, 0, 64, 0
2, 259361, Control_c, 0, 64, 127
2, 259744, Note_on_c, 0, 54, 0
2, 259762, Note_on_c, 0, 60, 0
2, 259792, Note_on_c, 0, 63, 0
2, 259807, Note_on_c, 0, 66, 0
2, 259827, Note_on_c, 0, 69, 0
2, 259904, Note_on_c, 0, 63, 54
2, 259914, Note_on_c, 0, 67, 58
2, 259924, Note_on_c, 0, 60, 53
2, 259928, Note_on_c, 0, 52, 46
2, 259959, Control_c, 0, 64, 0
2, 260244, Control_c, 0, 64, 127
2, 260354, Note_on_c, 0, 60, 0
2, 260380, Note_on_c, 0, 63, 0
2, 260529, Note_on_c, 0, 67, 0
2, 260537, Note_on_c, 0, 52, 0
2, 260599, Note_on_c, 0, 66, 57
2, 260609, Note_on_c, 0, 60, 49
2, 260617, Note_on_c, 0, 63, 49
2, 260648, Note_on_c, 0, 50, 42
2, 260673, Control_c, 0, 64, 0
2, 260778, Control_c, 0, 64, 127
2, 260784, Note_on_c, 0, 60, 0
2, 260979, Note_on_c, 0, 66, 0
2, 261038, Note_on_c, 0, 63, 0
2, 261121, Note_on_c, 0, 50, 0
2, 261154, Note_on_c, 0, 64, 58
2, 261159, Note_on_c, 0, 58, 51
2, 261167, Control_c, 0, 64, 0
2, 261168, Note_on_c, 0, 52, 47
2, 261197, Note_on_c, 0, 43, 35
2, 261505, Control_c, 0, 64, 127
2, 261646, Note_on_c, 0, 64, 0
2, 261663, Note_on_c, 0, 58, 0
2, 261684, Note_on_c, 0, 52, 0
2, 261969, Note_on_c, 0, 50, 22
2, 262084, Note_on_c, 0, 50, 0
2, 262124, Note_on_c, 0, 65, 47
2, 262128, Note_on_c, 0, 62, 53
2, 262131, Note_on_c, 0, 58, 57
2, 262147, Note_on_c, 0, 53, 30
2, 262156, Note_on_c, 0, 55, 47
2, 262193, Control_c, 0, 64, 0
2, 262506, Control_c, 0, 64, 127
2, 262557, Note_on_c, 0, 53, 0
2, 262638, Note_on_c, 0, 62, 0
2, 262651, Note_on_c, 0, 55, 0
2, 262675, Note_on_c, 0, 65, 0
2, 262881, Note_on_c, 0, 58, 0
2, 263106, Note_on_c, 0, 58, 56
2, 263111, Note_on_c, 0, 60, 54
2, 263117, Note_on_c, 0, 53, 39
2, 263135, Note_on_c, 0, 50, 44
2, 263142, Control_c, 0, 64, 0
2, 263544, Control_c, 0, 64, 127
2, 263804, Note_on_c, 0, 53, 0
2, 263822, Note_on_c, 0, 50, 0
2, 263904, Note_on_c, 0, 58, 0
2, 263956, Note_on_c, 0, 60, 0
2, 264050, Control_c, 0, 64, 0
2, 264071, Note_on_c, 0, 58, 73
2, 264080, Note_on_c, 0, 60, 62
2, 264084, Note_on_c, 0, 53, 58
2, 264085, Note_on_c, 0, 48, 62
2, 264337, Control_c, 0, 64, 127
2, 264399, Note_on_c, 0, 53, 0
2, 264488, Note_on_c, 0, 58, 0
2, 264517, Note_on_c, 0, 60, 0
2, 264558, Note_on_c, 0, 62, 64
2, 264562, Note_on_c, 0, 58, 51
2, 264565, Note_on_c, 0, 48, 0
2, 264578, Note_on_c, 0, 50, 47
2, 264582, Note_on_c, 0, 53, 49
2, 264680, Note_on_c, 0, 53, 0
2, 264737, Note_on_c, 0, 50, 0
2, 264739, Note_on_c, 0, 62, 0
2, 264792, Note_on_c, 0, 58, 0
2, 264985, Note_on_c, 0, 50, 37
2, 265035, Note_on_c, 0, 43, 0
2, 265055, Note_on_c, 0, 58, 64
2, 265060, Note_on_c, 0, 65, 57
2, 265061, Note_on_c, 0, 62, 59
2, 265064, Control_c, 0, 64, 0
2, 265072, Note_on_c, 0, 53, 53
2, 265079, Note_on_c, 0, 55, 57
2, 265129, Note_on_c, 0, 50, 0
2, 265495, Note_on_c, 0, 53, 0
2, 265578, Note_on_c, 0, 50, 48
2, 265629, Note_on_c, 0, 50, 0
2, 266361, Control_c, 0, 64, 127
2, 266466, Control_c, 0, 64, 0
2, 266701, Control_c, 0, 64, 127
2, 266970, Note_on_c, 0, 55, 0
2, 266999, Control_c, 0, 64, 0
2, 267039, Note_on_c, 0, 62, 0
2, 267042, Note_on_c, 0, 24, 45
2, 267047, Note_on_c, 0, 58, 0
2, 267096, Note_on_c, 0, 65, 0
2, 267119, Note_on_c, 0, 24, 0
2, 267181, Control_c, 0, 64, 127
2, 267582, Note_on_c, 0, 76, 57
2, 267590, Note_on_c, 0, 68, 54
2, 267591, Note_on_c, 0, 73, 42
2, 267599, Note_on_c, 0, 64, 48
2, 267605, Note_on_c, 0, 61, 47
2, 267609, Note_on_c, 0, 58, 40
2, 267612, Control_c, 0, 64, 0
2, 267649, Note_on_c, 0, 64, 0
2, 267655, Note_on_c, 0, 68, 0
2, 267686, Note_on_c, 0, 76, 0
2, 267688, Note_on_c, 0, 73, 0
2, 267699, Note_on_c, 0, 61, 0
2, 267722, Note_on_c, 0, 58, 0
2, 267921, Control_c, 0, 64, 127
2, 268882, Control_c, 0, 64, 0
2, 268930, Note_on_c, 0, 67, 38
2, 268936, Note_on_c, 0, 76, 38
2, 268944, Note_on_c, 0, 72, 37
2, 268947, Note_on_c, 0, 69, 40
2, 268971, Note_on_c, 0, 41, 17
2, 268987, Note_on_c, 0, 48, 24
2, 269031, Note_on_c, 0, 67, 0
2, 269037, Note_on_c, 0, 69, 0
2, 269071, Note_on_c, 0, 76, 0
2, 269107, Note_on_c, 0, 72, 0
2, 269138, Note_on_c, 0, 48, 0
2, 269158, Note_on_c, 0, 41, 0
2, 269417, Note_on_c, 0, 76, 36
2, 269421, Note_on_c, 0, 67, 30
2, 269427, Note_on_c, 0, 72, 38
2, 269430, Note_on_c, 0, 41, 32
2, 269447, Note_on_c, 0, 69, 36
2, 269457, Note_on_c, 0, 48, 34
2, 269486, Note_on_c, 0, 57, 17
2, 269539, Note_on_c, 0, 67, 0
2, 269552, Note_on_c, 0, 69, 0
2, 269578, Note_on_c, 0, 57, 0
2, 269628, Note_on_c, 0, 72, 0
2, 269635, Note_on_c, 0, 48, 0
2, 269639, Note_on_c, 0, 76, 0
2, 269678, Note_on_c, 0, 41, 0
2, 269895, Note_on_c, 0, 76, 36
2, 269903, Note_on_c, 0, 67, 33
2, 269910, Note_on_c, 0, 72, 42
2, 269920, Note_on_c, 0, 69, 40
2, 269925, Note_on_c, 0, 41, 13
2, 269933, Note_on_c, 0, 48, 29
2, 270077, Note_on_c, 0, 69, 0
2, 270082, Note_on_c, 0, 76, 0
2, 270083, Note_on_c, 0, 67, 0
2, 270085, Note_on_c, 0, 72, 0
2, 270113, Note_on_c, 0, 48, 0
2, 270177, Note_on_c, 0, 41, 0
2, 270363, Note_on_c, 0, 72, 37
2, 270376, Note_on_c, 0, 41, 20
2, 270383, Note_on_c, 0, 67, 34
2, 270384, Note_on_c, 0, 69, 29
2, 270411, Note_on_c, 0, 64, 19
2, 270419, Note_on_c, 0, 48, 30
2, 270498, Note_on_c, 0, 64, 0
2, 270512, Note_on_c, 0, 67, 0
2, 270541, Note_on_c, 0, 69, 0
2, 270593, Note_on_c, 0, 48, 0
2, 270599, Note_on_c, 0, 72, 0
2, 270852, Note_on_c, 0, 72, 44
2, 270863, Note_on_c, 0, 67, 39
2, 270876, Note_on_c, 0, 48, 30
2, 270888, Note_on_c, 0, 64, 25
2, 270905, Note_on_c, 0, 69, 28
2, 270963, Note_on_c, 0, 64, 0
2, 270984, Note_on_c, 0, 69, 0
2, 271007, Note_on_c, 0, 67, 0
2, 271016, Note_on_c, 0, 72, 0
2, 271069, Note_on_c, 0, 48, 0
2, 271169, Note_on_c, 0, 41, 0
2, 271338, Control_c, 0, 64, 127
2, 271611, Control_c, 0, 64, 0
2, 271806, Control_c, 0, 64, 127
2, 272092, Control_c, 0, 64, 0
2, 272206, Note_on_c, 0, 57, 48
2, 272218, Note_on_c, 0, 60, 45
2, 272226, Note_on_c, 0, 41, 30
2, 272267, Note_on_c, 0, 48, 26
2, 272369, Note_on_c, 0, 57, 0
2, 272376, Note_on_c, 0, 41, 0
2, 272378, Note_on_c, 0, 60, 0
2, 272388, Note_on_c, 0, 48, 0
2, 272715, Note_on_c, 0, 58, 46
2, 272734, Note_on_c, 0, 53, 25
2, 272750, Note_on_c, 0, 43, 30
2, 272752, Note_on_c, 0, 50, 35
2, 272951, Note_on_c, 0, 43, 0
2, 272962, Note_on_c, 0, 53, 0
2, 272982, Note_on_c, 0, 58, 0
2, 272984, Note_on_c, 0, 50, 0
2, 273163, Note_on_c, 0, 58, 38
2, 273182, Note_on_c, 0, 53, 33
2, 273186, Note_on_c, 0, 55, 33
2, 273203, Note_on_c, 0, 50, 39
2, 273204, Note_on_c, 0, 43, 35
2, 273344, Note_on_c, 0, 43, 0
2, 273361, Note_on_c, 0, 50, 0
2, 273385, Note_on_c, 0, 58, 0
2, 273389, Note_on_c, 0, 53, 0
2, 273391, Note_on_c, 0, 55, 0
2, 273823, Control_c, 0, 64, 127
2, 274057, Control_c, 0, 64, 0
2, 274147, Note_on_c, 0, 43, 35
2, 274164, Note_on_c, 0, 58, 52
2, 274194, Note_on_c, 0, 55, 33
2, 274214, Control_c, 0, 64, 127
2, 274262, Note_on_c, 0, 43, 0
2, 274276, Note_on_c, 0, 55, 0
2, 274361, Note_on_c, 0, 58, 0
2, 274434, Control_c, 0, 64, 0
2, 274623, Note_on_c, 0, 61, 1
2, 274641, Note_on_c, 0, 24, 42
2, 274657, Note_on_c, 0, 58, 39
2, 274676, Note_on_c, 0, 52, 24
2, 274895, Note_on_c, 0, 52, 0
2, 274910, Note_on_c, 0, 58, 0
2, 274974, Note_on_c, 0, 24, 0
2, 274979, Note_on_c, 0, 61, 0
2, 275113, Note_on_c, 0, 61, 45
2, 275123, Note_on_c, 0, 24, 25
2, 275130, Note_on_c, 0, 58, 45
2, 275131, Note_on_c, 0, 52, 34
2, 275141, Note_on_c, 0, 36, 33
2, 275267, Note_on_c, 0, 52, 0
2, 275270, Note_on_c, 0, 36, 0
2, 275292, Note_on_c, 0, 58, 0
2, 275323, Note_on_c, 0, 61, 0
2, 275342, Note_on_c, 0, 24, 0
2, 276045, Note_on_c, 0, 24, 50
2, 276229, Note_on_c, 0, 24, 0
2, 276559, Note_on_c, 0, 41, 39
2, 276785, Note_on_c, 0, 41, 0
2, 277048, Note_on_c, 0, 76, 56
2, 277324, Note_on_c, 0, 76, 0
2, 277774, Note_on_c, 0, 77, 73
2, 278239, Note_on_c, 0, 77, 0
2, 278379, Note_on_c, 0, 64, 31
2, 278544, Note_on_c, 0, 64, 0
2, 278952, Note_on_c, 0, 72, 45
2, 279210, Note_on_c, 0, 72, 0
2, 279376, Note_on_c, 0, 53, 24
2, 279510, Note_on_c, 0, 53, 0
2, 279874, Note_on_c, 0, 74, 61
2, 280029, Note_on_c, 0, 74, 0
2, 280366, Note_on_c, 0, 76, 74
2, 280482, Note_on_c, 0, 76, 0
2, 280828, Note_on_c, 0, 35, 38
2, 280918, Note_on_c, 0, 35, 0
2, 281798, Note_on_c, 0, 64, 35
2, 281964, Note_on_c, 0, 64, 0
2, 282392, Note_on_c, 0, 56, 42
2, 282726, Note_on_c, 0, 56, 0
2, 282791, Note_on_c, 0, 88, 77
2, 282936, Note_on_c, 0, 88, 0
2, 283236, Note_on_c, 0, 74, 50
2, 283439, Note_on_c, 0, 74, 0
2, 283701, Note_on_c, 0, 62, 35
2, 283762, Note_on_c, 0, 56, 19
2, 283763, Note_on_c, 0, 62, 0
2, 283830, Note_on_c, 0, 56, 0
2, 284162, Note_on_c, 0, 83, 80
2, 284377, Note_on_c, 0, 83, 0
2, 284646, Note_on_c, 0, 76, 53
2, 284797, Note_on_c, 0, 76, 0
2, 285063, Note_on_c, 0, 41, 24
2, 285082, Note_on_c, 0, 57, 33
2, 285111, Note_on_c, 0, 48, 29
2, 285331, Note_on_c, 0, 41, 0
2, 285344, Note_on_c, 0, 48, 0
2, 285542, Note_on_c, 0, 57, 0
2, 285596, Note_on_c, 0, 77, 94
2, 285822, Note_on_c, 0, 77, 0
2, 286060, Note_on_c, 0, 72, 46
2, 286367, Note_on_c, 0, 72, 0
2, 286501, Note_on_c, 0, 64, 31
2, 286868, Note_on_c, 0, 64, 0
2, 286969, Note_on_c, 0, 74, 55
2, 287376, Note_on_c, 0, 74, 0
2, 287462, Note_on_c, 0, 60, 45
2, 287805, Note_on_c, 0, 60, 0
2, 287936, Note_on_c, 0, 75, 69
2, 288375, Note_on_c, 0, 53, 30
2, 288506, Note_on_c, 0, 53, 0
2, 288629, Note_on_c, 0, 75, 0
2, 288646, Note_on_c, 0, 63, 34
2, 288864, Note_on_c, 0, 63, 0
2, 288929, Note_on_c, 0, 66, 53
2, 289156, Note_on_c, 0, 66, 0
2, 289235, Note_on_c, 0, 75, 60
2, 289430, Note_on_c, 0, 75, 0
2, 289567, Note_on_c, 0, 74, 64
2, 289757, Note_on_c, 0, 74, 0
2, 289865, Note_on_c, 0, 62, 34
2, 289997, Note_on_c, 0, 62, 0
2, 290194, Note_on_c, 0, 41, 34
2, 290338, Note_on_c, 0, 41, 0
2, 290485, Note_on_c, 0, 66, 55
2, 290684, Note_on_c, 0, 66, 0
2, 290869, Note_on_c, 0, 72, 78
2, 291167, Note_on_c, 0, 72, 0
2, 291225, Note_on_c, 0, 51, 36
2, 291250, Note_on_c, 0, 70, 69
2, 291302, Note_on_c, 0, 51, 0
2, 291549, Note_on_c, 0, 70, 0
2, 291657, Note_on_c, 0, 68, 55
2, 291793, Note_on_c, 0, 68, 0
2, 291860, Note_on_c, 0, 69, 51
2, 292017, Note_on_c, 0, 46, 33
2, 292038, Note_on_c, 0, 69, 0
2, 292059, Note_on_c, 0, 65, 36
2, 292129, Note_on_c, 0, 46, 0
2, 292318, Note_on_c, 0, 65, 0
2, 292359, Note_on_c, 0, 62, 36
2, 292423, Note_on_c, 0, 62, 0
2, 292642, Note_on_c, 0, 62, 53
2, 292769, Note_on_c, 0, 62, 0
2, 292892, Note_on_c, 0, 62, 52
2, 293015, Note_on_c, 0, 62, 0
2, 293067, Note_on_c, 0, 60, 37
2, 293167, Note_on_c, 0, 60, 0
2, 293175, Note_on_c, 0, 62, 39
2, 293303, Note_on_c, 0, 62, 0
2, 293966, Note_on_c, 0, 62, 53
2, 294087, Note_on_c, 0, 62, 0
2, 294463, Note_on_c, 0, 53, 36
2, 294627, Note_on_c, 0, 53, 0
2, 294875, Note_on_c, 0, 65, 46
2, 295102, Note_on_c, 0, 65, 0
2, 295322, Note_on_c, 0, 72, 75
2, 295594, Note_on_c, 0, 72, 0
2, 295774, Note_on_c, 0, 75, 77
2, 296201, Note_on_c, 0, 63, 44
2, 296334, Note_on_c, 0, 63, 0
2, 296631, Note_on_c, 0, 61, 46
2, 297000, Note_on_c, 0, 61, 0
2, 297125, Note_on_c, 0, 68, 38
2, 297131, Note_on_c, 0, 65, 37
2, 297418, Note_on_c, 0, 75, 0
2, 297484, Note_on_c, 0, 65, 0
2, 297527, Note_on_c, 0, 68, 0
2, 297568, Note_on_c, 0, 70, 53
2, 298029, Note_on_c, 0, 39, 46
2, 298199, Note_on_c, 0, 39, 0
2, 298531, Note_on_c, 0, 63, 37
2, 298626, Note_on_c, 0, 70, 0
2, 298921, Note_on_c, 0, 63, 0
2, 299023, Note_on_c, 0, 67, 36
2, 299159, Note_on_c, 0, 67, 0
2, 299512, Note_on_c, 0, 60, 34
2, 299518, Note_on_c, 0, 64, 40
2, 299648, Note_on_c, 0, 60, 0
2, 299661, Note_on_c, 0, 64, 0
2, 299990, Note_on_c, 0, 60, 52
2, 300192, Note_on_c, 0, 60, 0
2, 300488, Note_on_c, 0, 57, 24
2, 300564, Note_on_c, 0, 57, 0
2, 300921, Note_on_c, 0, 60, 44
2, 301146, Note_on_c, 0, 60, 0
2, 301403, Note_on_c, 0, 54, 54
2, 301612, Note_on_c, 0, 54, 0
2, 301871, Note_on_c, 0, 26, 48
2, 301980, Note_on_c, 0, 26, 0
2, 302340, Note_on_c, 0, 76, 66
2, 302510, Note_on_c, 0, 76, 0
2, 302821, Note_on_c, 0, 66, 37
2, 302836, Note_on_c, 0, 62, 26
2, 302950, Note_on_c, 0, 62, 0
2, 303173, Note_on_c, 0, 66, 0
2, 303321, Note_on_c, 0, 65, 34
2, 303614, Note_on_c, 0, 65, 0
2, 303793, Note_on_c, 0, 43, 33
2, 303808, Note_on_c, 0, 74, 62
2, 303860, Note_on_c, 0, 43, 0
2, 303937, Note_on_c, 0, 74, 0
2, 304327, Note_on_c, 0, 62, 33
2, 304691, Note_on_c, 0, 62, 0
2, 304784, Note_on_c, 0, 65, 60
2, 304785, Note_on_c, 0, 58, 39
2, 304836, Note_on_c, 0, 58, 0
2, 304852, Note_on_c, 0, 65, 0
2, 305280, Note_on_c, 0, 64, 64
2, 305401, Note_on_c, 0, 64, 0
2, 305734, Note_on_c, 0, 75, 84
2, 305896, Note_on_c, 0, 75, 0
2, 306216, Note_on_c, 0, 58, 37
2, 306223, Note_on_c, 0, 73, 48
2, 306326, Note_on_c, 0, 58, 0
2, 306408, Note_on_c, 0, 73, 0
2, 306720, Note_on_c, 0, 70, 48
2, 307004, Note_on_c, 0, 70, 0
2, 307199, Note_on_c, 0, 72, 45
2, 307234, Note_on_c, 0, 69, 24
2, 307326, Note_on_c, 0, 69, 0
2, 307374, Note_on_c, 0, 72, 0
2, 307686, Note_on_c, 0, 76, 82
2, 307692, Note_on_c, 0, 69, 82
2, 307887, Note_on_c, 0, 76, 0
2, 308024, Note_on_c, 0, 69, 0
2, 308160, Note_on_c, 0, 72, 41
2, 308163, Note_on_c, 0, 64, 42
2, 308242, Note_on_c, 0, 64, 0
2, 308425, Note_on_c, 0, 72, 0
2, 308640, Note_on_c, 0, 41, 28
2, 308673, Note_on_c, 0, 48, 32
2, 308686, Note_on_c, 0, 57, 19
2, 308791, Note_on_c, 0, 41, 0
2, 308824, Note_on_c, 0, 48, 0
2, 308925, Note_on_c, 0, 57, 0
2, 309130, Note_on_c, 0, 81, 67
2, 309136, Note_on_c, 0, 76, 71
2, 309262, Note_on_c, 0, 81, 0
2, 309279, Note_on_c, 0, 76, 0
2, 309629, Note_on_c, 0, 69, 48
2, 309630, Note_on_c, 0, 76, 37
2, 309635, Note_on_c, 0, 67, 36
2, 309642, Note_on_c, 0, 64, 34
2, 309644, Note_on_c, 0, 72, 46
2, 309842, Note_on_c, 0, 69, 0
2, 309855, Note_on_c, 0, 67, 0
2, 309874, Note_on_c, 0, 76, 0
2, 309903, Note_on_c, 0, 64, 0
2, 309932, Note_on_c, 0, 72, 0
2, 310098, Note_on_c, 0, 60, 38
2, 310242, Note_on_c, 0, 60, 0
2, 310571, Note_on_c, 0, 74, 62
2, 310577, Note_on_c, 0, 69, 69
2, 310729, Note_on_c, 0, 69, 0
2, 310744, Note_on_c, 0, 74, 0
2, 311083, Note_on_c, 0, 47, 35
2, 311167, Note_on_c, 0, 47, 0
2, 312057, Note_on_c, 0, 79, 80
2, 312064, Note_on_c, 0, 62, 63
2, 312065, Note_on_c, 0, 74, 90
2, 312068, Note_on_c, 0, 75, 74
2, 312074, Note_on_c, 0, 63, 57
2, 312075, Note_on_c, 0, 67, 64
2, 312081, Note_on_c, 0, 57, 62
2, 312197, Note_on_c, 0, 74, 0
2, 312223, Note_on_c, 0, 79, 0
2, 312230, Note_on_c, 0, 67, 0
2, 312245, Note_on_c, 0, 75, 0
2, 312249, Note_on_c, 0, 57, 0
2, 312261, Note_on_c, 0, 62, 0
2, 312267, Note_on_c, 0, 63, 0
2, 312320, Note_on_c, 0, 75, 64
2, 312336, Note_on_c, 0, 79, 57
2, 312339, Note_on_c, 0, 74, 78
2, 312342, Note_on_c, 0, 67, 51
2, 312345, Note_on_c, 0, 63, 56
2, 312350, Note_on_c, 0, 57, 56
2, 312353, Note_on_c, 0, 62, 61
2, 312431, Note_on_c, 0, 74, 0
2, 312446, Note_on_c, 0, 67, 0
2, 312456, Note_on_c, 0, 79, 0
2, 312468, Note_on_c, 0, 75, 0
2, 312515, Note_on_c, 0, 67, 56
2, 312519, Note_on_c, 0, 75, 46
2, 312530, Note_on_c, 0, 79, 35
2, 312533, Note_on_c, 0, 74, 66
2, 312718, Note_on_c, 0, 74, 0
2, 312732, Note_on_c, 0, 57, 0
2, 312739, Note_on_c, 0, 62, 0
2, 312744, Note_on_c, 0, 67, 0
2, 312753, Note_on_c, 0, 79, 0
2, 312790, Note_on_c, 0, 75, 0
2, 312834, Note_on_c, 0, 63, 0
2, 313032, Note_on_c, 0, 62, 54
2, 313036, Note_on_c, 0, 72, 50
2, 313037, Note_on_c, 0, 79, 47
2, 313044, Note_on_c, 0, 76, 40
2, 313046, Note_on_c, 0, 56, 52
2, 313047, Note_on_c, 0, 67, 47
2, 313237, Note_on_c, 0, 56, 0
2, 313265, Note_on_c, 0, 67, 0
2, 313286, Note_on_c, 0, 79, 0
2, 313292, Note_on_c, 0, 62, 0
2, 313303, Note_on_c, 0, 72, 0
2, 313321, Note_on_c, 0, 76, 0
2, 313508, Note_on_c, 0, 79, 53
2, 313509, Note_on_c, 0, 72, 46
2, 313511, Note_on_c, 0, 76, 51
2, 313518, Note_on_c, 0, 56, 53
2, 313519, Note_on_c, 0, 62, 51
2, 313523, Note_on_c, 0, 67, 41
2, 313708, Note_on_c, 0, 67, 0
2, 313728, Note_on_c, 0, 79, 0
2, 313743, Note_on_c, 0, 56, 0
2, 313745, Note_on_c, 0, 62, 0
2, 313763, Note_on_c, 0, 76, 0
2, 313773, Note_on_c, 0, 72, 0
2, 313991, Note_on_c, 0, 62, 44
2, 313994, Note_on_c, 0, 56, 53
2, 313996, Note_on_c, 0, 79, 46
2, 313999, Note_on_c, 0, 76, 45
2, 314000, Note_on_c, 0, 72, 51
2, 314008, Note_on_c, 0, 67, 40
2, 314215, Note_on_c, 0, 56, 0
2, 314216, Note_on_c, 0, 67, 0
2, 314228, Note_on_c, 0, 79, 0
2, 314229, Note_on_c, 0, 72, 0
2, 314244, Note_on_c, 0, 62, 0
2, 314285, Note_on_c, 0, 76, 0
2, 314470, Note_on_c, 0, 76, 50
2, 314472, Note_on_c, 0, 62, 43
2, 314478, Note_on_c, 0, 72, 51
2, 314481, Note_on_c, 0, 56, 51
2, 314485, Note_on_c, 0, 79, 48
2, 314490, Note_on_c, 0, 67, 43
2, 314625, Note_on_c, 0, 62, 0
2, 314674, Note_on_c, 0, 67, 0
2, 314678, Note_on_c, 0, 56, 0
2, 314701, Note_on_c, 0, 79, 0
2, 314706, Note_on_c, 0, 72, 0
2, 314752, Note_on_c, 0, 76, 0
2, 314942, Note_on_c, 0, 64, 54
2, 314964, Note_on_c, 0, 76, 62
2, 314966, Note_on_c, 0, 72, 68
2, 314971, Note_on_c, 0, 79, 60
2, 314976, Note_on_c, 0, 67, 64
2, 314997, Note_on_c, 0, 53, 25
2, 314998, Note_on_c, 0, 52, 29
2, 315033, Note_on_c, 0, 60, 20
2, 315074, Note_on_c, 0, 52, 0
2, 315174, Note_on_c, 0, 76, 0
2, 315177, Note_on_c, 0, 53, 0
2, 315181, Note_on_c, 0, 79, 0
2, 315194, Note_on_c, 0, 64, 0
2, 315216, Note_on_c, 0, 67, 0
2, 315234, Note_on_c, 0, 60, 0
2, 315235, Note_on_c, 0, 72, 0
2, 315459, Note_on_c, 0, 76, 60
2, 315462, Note_on_c, 0, 72, 51
2, 315468, Note_on_c, 0, 69, 58
2, 315479, Note_on_c, 0, 67, 54
2, 315484, Note_on_c, 0, 64, 44
2, 315713, Note_on_c, 0, 67, 0
2, 315735, Note_on_c, 0, 69, 0
2, 315773, Note_on_c, 0, 64, 0
2, 315774, Note_on_c, 0, 76, 0
2, 315803, Note_on_c, 0, 72, 0
2, 315926, Note_on_c, 0, 65, 74
2, 315935, Note_on_c, 0, 77, 77
2, 315943, Note_on_c, 0, 72, 74
2, 315947, Note_on_c, 0, 74, 74
2, 315948, Note_on_c, 0, 69, 80
2, 316155, Note_on_c, 0, 74, 0
2, 316157, Note_on_c, 0, 77, 0
2, 316192, Note_on_c, 0, 72, 0
2, 316197, Note_on_c, 0, 65, 0
2, 316211, Note_on_c, 0, 69, 0
2, 316395, Note_on_c, 0, 72, 46
2, 316407, Note_on_c, 0, 69, 46
2, 316409, Note_on_c, 0, 60, 51
2, 316411, Note_on_c, 0, 67, 44
2, 316420, Note_on_c, 0, 64, 49
2, 316723, Note_on_c, 0, 69, 0
2, 316725, Note_on_c, 0, 64, 0
2, 316732, Note_on_c, 0, 67, 0
2, 316740, Note_on_c, 0, 72, 0
2, 316759, Note_on_c, 0, 60, 0
2, 316878, Note_on_c, 0, 60, 41
2, 316887, Note_on_c, 0, 72, 46
2, 316889, Note_on_c, 0, 67, 49
2, 316902, Note_on_c, 0, 64, 44
2, 316915, Note_on_c, 0, 69, 48
2, 317116, Note_on_c, 0, 64, 0
2, 317188, Note_on_c, 0, 72, 0
2, 317208, Note_on_c, 0, 67, 0
2, 317252, Note_on_c, 0, 69, 0
2, 317336, Note_on_c, 0, 67, 60
2, 317337, Note_on_c, 0, 62, 65
2, 317344, Note_on_c, 0, 65, 71
2, 317345, Note_on_c, 0, 74, 71
2, 317354, Note_on_c, 0, 69, 48
2, 317526, Note_on_c, 0, 65, 0
2, 317532, Note_on_c, 0, 67, 0
2, 317542, Note_on_c, 0, 62, 0
2, 317573, Note_on_c, 0, 69, 0
2, 317589, Note_on_c, 0, 74, 0
2, 317753, Note_on_c, 0, 60, 0
2, 317806, Note_on_c, 0, 74, 59
2, 317814, Note_on_c, 0, 67, 58
2, 317815, Note_on_c, 0, 62, 55
2, 317831, Note_on_c, 0, 69, 57
2, 317832, Note_on_c, 0, 65, 57
2, 317985, Note_on_c, 0, 62, 0
2, 318037, Note_on_c, 0, 65, 0
2, 318106, Note_on_c, 0, 67, 0
2, 318136, Note_on_c, 0, 69, 0
2, 318187, Note_on_c, 0, 74, 0
2, 318734, Note_on_c, 0, 63, 67
2, 318754, Note_on_c, 0, 58, 56
2, 318755, Note_on_c, 0, 75, 80
2, 318830, Note_on_c, 0, 63, 0
2, 318949, Note_on_c, 0, 58, 0
2, 318978, Note_on_c, 0, 75, 0
2, 319284, Note_on_c, 0, 70, 37
2, 319527, Note_on_c, 0, 75, 53
2, 319540, Note_on_c, 0, 70, 0
2, 319638, Note_on_c, 0, 75, 0
2, 319745, Note_on_c, 0, 76, 40
2, 319860, Note_on_c, 0, 76, 0
2, 319999, Note_on_c, 0, 82, 67
2, 320129, Note_on_c, 0, 82, 0
2, 320196, Note_on_c, 0, 87, 64
2, 320378, Note_on_c, 0, 87, 0
2, 320461, Note_on_c, 0, 89, 68
2, 320616, Note_on_c, 0, 89, 0
2, 320637, Note_on_c, 0, 41, 28
2, 320665, Note_on_c, 0, 57, 33
2, 320681, Note_on_c, 0, 86, 56
2, 320737, Note_on_c, 0, 41, 0
2, 320865, Note_on_c, 0, 86, 0
2, 320914, Note_on_c, 0, 57, 0
2, 321186, Note_on_c, 0, 86, 51
2, 321330, Note_on_c, 0, 86, 0
2, 321623, Note_on_c, 0, 67, 41
2, 321645, Note_on_c, 0, 86, 69
2, 321653, Note_on_c, 0, 63, 28
2, 321654, Note_on_c, 0, 57, 32
2, 321710, Note_on_c, 0, 67, 0
2, 321746, Note_on_c, 0, 57, 0
2, 321846, Note_on_c, 0, 63, 0
2, 321864, Note_on_c, 0, 86, 0
2, 321867, Note_on_c, 0, 85, 47
2, 321998, Note_on_c, 0, 84, 54
2, 322062, Note_on_c, 0, 85, 0
2, 322134, Note_on_c, 0, 83, 50
2, 322138, Note_on_c, 0, 84, 0
2, 322394, Note_on_c, 0, 83, 0
2, 322581, Note_on_c, 0, 65, 46
2, 322607, Note_on_c, 0, 84, 65
2, 322633, Note_on_c, 0, 60, 30
2, 322639, Note_on_c, 0, 62, 28
2, 322739, Note_on_c, 0, 62, 0
2, 322758, Note_on_c, 0, 65, 0
2, 322799, Note_on_c, 0, 84, 0
2, 322817, Note_on_c, 0, 60, 0
2, 322872, Note_on_c, 0, 81, 51
2, 323031, Note_on_c, 0, 81, 0
2, 323253, Note_on_c, 0, 82, 58
2, 323434, Note_on_c, 0, 53, 34
2, 323436, Note_on_c, 0, 82, 0
2, 323631, Note_on_c, 0, 53, 0
2, 323759, Note_on_c, 0, 84, 75
2, 323901, Note_on_c, 0, 84, 0
2, 323968, Note_on_c, 0, 81, 48
2, 324124, Note_on_c, 0, 81, 0
2, 324236, Note_on_c, 0, 77, 28
2, 324389, Note_on_c, 0, 77, 0
2, 324396, Note_on_c, 0, 65, 36
2, 324434, Note_on_c, 0, 79, 49
2, 324438, Note_on_c, 0, 62, 29
2, 324469, Note_on_c, 0, 60, 25
2, 324593, Note_on_c, 0, 65, 0
2, 324622, Note_on_c, 0, 79, 0
2, 324744, Note_on_c, 0, 81, 22
2, 324844, Note_on_c, 0, 81, 0
2, 324941, Note_on_c, 0, 74, 36
2, 325133, Note_on_c, 0, 74, 0
2, 325438, Note_on_c, 0, 74, 53
2, 325619, Note_on_c, 0, 74, 0
2, 325641, Note_on_c, 0, 62, 0
2, 325725, Note_on_c, 0, 60, 0
2, 325937, Note_on_c, 0, 77, 53
2, 326147, Note_on_c, 0, 77, 0
2, 326239, Note_on_c, 0, 72, 30
2, 326385, Note_on_c, 0, 65, 32
2, 326390, Note_on_c, 0, 72, 0
2, 326394, Note_on_c, 0, 56, 38
2, 326412, Note_on_c, 0, 61, 30
2, 326421, Note_on_c, 0, 73, 43
2, 326692, Note_on_c, 0, 73, 0
2, 326738, Note_on_c, 0, 75, 42
2, 326777, Note_on_c, 0, 65, 0
2, 326829, Note_on_c, 0, 56, 0
2, 326878, Note_on_c, 0, 75, 0
2, 326951, Note_on_c, 0, 72, 20
2, 327101, Note_on_c, 0, 61, 0
2, 327175, Note_on_c, 0, 72, 0
2, 327424, Note_on_c, 0, 73, 71
2, 327425, Note_on_c, 0, 65, 37
2, 327427, Note_on_c, 0, 75, 69
2, 327464, Note_on_c, 0, 61, 25
2, 327714, Note_on_c, 0, 73, 0
2, 327716, Note_on_c, 0, 75, 0
2, 327736, Note_on_c, 0, 72, 49
2, 327756, Note_on_c, 0, 61, 0
2, 327770, Note_on_c, 0, 65, 0
2, 327862, Note_on_c, 0, 72, 0
2, 327892, Note_on_c, 0, 73, 61
2, 327900, Note_on_c, 0, 75, 60
2, 328161, Note_on_c, 0, 73, 0
2, 328177, Note_on_c, 0, 75, 0
2, 328222, Note_on_c, 0, 72, 35
2, 328371, Note_on_c, 0, 72, 0
2, 328409, Note_on_c, 0, 65, 38
2, 328411, Note_on_c, 0, 73, 57
2, 328418, Note_on_c, 0, 75, 55
2, 328434, Note_on_c, 0, 61, 33
2, 328443, Note_on_c, 0, 56, 30
2, 328585, Note_on_c, 0, 65, 0
2, 328612, Note_on_c, 0, 73, 0
2, 328643, Note_on_c, 0, 61, 0
2, 328666, Note_on_c, 0, 75, 0
2, 328828, Note_on_c, 0, 56, 0
2, 329373, Note_on_c, 0, 61, 35
2, 329374, Note_on_c, 0, 64, 36
2, 329381, Note_on_c, 0, 75, 57
2, 329386, Note_on_c, 0, 73, 59
2, 329387, Note_on_c, 0, 76, 62
2, 329403, Note_on_c, 0, 55, 34
2, 329499, Note_on_c, 0, 64, 0
2, 329557, Note_on_c, 0, 61, 0
2, 329573, Note_on_c, 0, 55, 0
2, 329615, Note_on_c, 0, 76, 0
2, 329617, Note_on_c, 0, 73, 0
2, 329653, Note_on_c, 0, 72, 37
2, 329656, Note_on_c, 0, 75, 0
2, 329798, Note_on_c, 0, 72, 0
2, 329845, Note_on_c, 0, 76, 53
2, 329847, Note_on_c, 0, 73, 47
2, 330078, Note_on_c, 0, 76, 0
2, 330100, Note_on_c, 0, 73, 0
2, 330796, Note_on_c, 0, 41, 40
2, 330818, Note_on_c, 0, 72, 57
2, 330819, Note_on_c, 0, 77, 58
2, 330821, Note_on_c, 0, 76, 61
2, 330827, Note_on_c, 0, 48, 44
2, 331063, Note_on_c, 0, 71, 58
2, 331073, Note_on_c, 0, 77, 0
2, 331120, Note_on_c, 0, 76, 0
2, 331165, Note_on_c, 0, 41, 0
2, 331188, Note_on_c, 0, 72, 0
2, 331202, Note_on_c, 0, 71, 0
2, 331272, Note_on_c, 0, 72, 28
2, 331286, Note_on_c, 0, 77, 43
2, 331302, Note_on_c, 0, 76, 38
2, 331482, Note_on_c, 0, 77, 0
2, 331512, Note_on_c, 0, 76, 0
2, 331593, Note_on_c, 0, 72, 0
2, 332153, Note_on_c, 0, 41, 31
2, 332183, Note_on_c, 0, 57, 34
2, 332583, Note_on_c, 0, 57, 0
2, 332621, Note_on_c, 0, 41, 0
2, 332682, Note_on_c, 0, 76, 68
2, 332693, Note_on_c, 0, 72, 54
2, 332931, Note_on_c, 0, 71, 59
2, 332946, Note_on_c, 0, 76, 0
2, 333027, Note_on_c, 0, 72, 0
2, 333056, Note_on_c, 0, 71, 0
2, 333155, Note_on_c, 0, 57, 45
2, 333161, Note_on_c, 0, 72, 53
2, 333163, Note_on_c, 0, 76, 58
2, 333316, Note_on_c, 0, 48, 0
2, 333378, Note_on_c, 0, 72, 0
2, 333396, Note_on_c, 0, 76, 0
2, 333409, Note_on_c, 0, 57, 0
2, 333647, Note_on_c, 0, 76, 65
2, 333656, Note_on_c, 0, 72, 61
2, 333877, Note_on_c, 0, 76, 0
2, 333918, Note_on_c, 0, 71, 57
2, 334014, Note_on_c, 0, 72, 0
2, 334097, Note_on_c, 0, 71, 0
2, 334135, Note_on_c, 0, 70, 54
2, 334136, Note_on_c, 0, 75, 57
2, 334163, Note_on_c, 0, 58, 40
2, 334170, Note_on_c, 0, 63, 38
2, 334316, Note_on_c, 0, 63, 0
2, 334403, Note_on_c, 0, 70, 0
2, 334418, Note_on_c, 0, 75, 0
2, 334602, Note_on_c, 0, 75, 62
2, 334621, Note_on_c, 0, 70, 62
2, 334814, Note_on_c, 0, 58, 0
2, 334893, Note_on_c, 0, 70, 0
2, 334901, Note_on_c, 0, 75, 0
2, 334903, Note_on_c, 0, 69, 24
2, 335048, Note_on_c, 0, 69, 0
2, 335088, Note_on_c, 0, 63, 43
2, 335095, Note_on_c, 0, 75, 62
2, 335098, Note_on_c, 0, 70, 65
2, 335127, Note_on_c, 0, 58, 29
2, 335217, Note_on_c, 0, 63, 0
2, 335323, Note_on_c, 0, 70, 0
2, 335343, Note_on_c, 0, 58, 0
2, 335362, Note_on_c, 0, 75, 0
2, 336128, Note_on_c, 0, 75, 78
2, 336140, Note_on_c, 0, 69, 76
2, 336141, Note_on_c, 0, 51, 32
2, 336397, Note_on_c, 0, 69, 0
2, 336422, Note_on_c, 0, 75, 0
2, 336431, Note_on_c, 0, 67, 39
2, 336543, Note_on_c, 0, 67, 0
2, 336578, Note_on_c, 0, 51, 0
2, 336616, Note_on_c, 0, 69, 60
2, 336623, Note_on_c, 0, 75, 56
2, 336769, Note_on_c, 0, 75, 0
2, 336824, Note_on_c, 0, 69, 0
2, 337065, Note_on_c, 0, 41, 35
2, 337287, Note_on_c, 0, 41, 0
2, 337556, Note_on_c, 0, 75, 69
2, 337565, Note_on_c, 0, 69, 71
2, 337828, Note_on_c, 0, 67, 39
2, 337876, Note_on_c, 0, 75, 0
2, 337884, Note_on_c, 0, 69, 0
2, 337958, Note_on_c, 0, 67, 0
2, 338020, Note_on_c, 0, 46, 39
2, 338050, Note_on_c, 0, 69, 47
2, 338062, Note_on_c, 0, 74, 50
2, 338243, Note_on_c, 0, 69, 0
2, 338524, Note_on_c, 0, 53, 39
2, 338964, Note_on_c, 0, 53, 0
2, 339000, Note_on_c, 0, 62, 49
2, 339006, Note_on_c, 0, 66, 53
2, 339271, Note_on_c, 0, 46, 0
2, 339464, Note_on_c, 0, 59, 52
2, 339465, Note_on_c, 0, 57, 54
2, 339635, Note_on_c, 0, 59, 0
2, 339704, Note_on_c, 0, 62, 0
2, 339785, Note_on_c, 0, 66, 0
2, 339942, Note_on_c, 0, 66, 42
2, 339959, Note_on_c, 0, 62, 40
2, 340002, Note_on_c, 0, 69, 22
2, 340422, Note_on_c, 0, 55, 69
2, 340444, Note_on_c, 0, 57, 0
2, 340542, Note_on_c, 0, 62, 0
2, 340615, Note_on_c, 0, 69, 0
2, 340638, Note_on_c, 0, 66, 0
2, 340814, Note_on_c, 0, 74, 0
2, 340875, Note_on_c, 0, 66, 40
2, 340885, Note_on_c, 0, 62, 36
2, 340888, Note_on_c, 0, 69, 35
2, 340913, Note_on_c, 0, 55, 0
2, 341178, Note_on_c, 0, 54, 52
2, 341295, Note_on_c, 0, 62, 0
2, 341305, Note_on_c, 0, 54, 0
2, 341452, Note_on_c, 0, 69, 0
2, 341486, Note_on_c, 0, 66, 0
2, 341524, Note_on_c, 0, 53, 44
2, 341701, Note_on_c, 0, 53, 0
2, 341855, Note_on_c, 0, 62, 57
2, 341870, Note_on_c, 0, 69, 47
2, 341874, Note_on_c, 0, 64, 44
2, 341880, Note_on_c, 0, 52, 38
2, 341939, Note_on_c, 0, 64, 0
2, 341944, Note_on_c, 0, 62, 0
2, 341964, Note_on_c, 0, 52, 0
2, 342005, Note_on_c, 0, 69, 0
2, 342393, Note_on_c, 0, 40, 45
2, 342478, Note_on_c, 0, 40, 0
2, 343103, Note_on_c, 0, 74, 55
2, 343242, Note_on_c, 0, 74, 0
2, 343308, Note_on_c, 0, 81, 55
2, 343422, Note_on_c, 0, 81, 0
2, 343559, Note_on_c, 0, 84, 73
2, 343655, Note_on_c, 0, 84, 0
2, 343818, Note_on_c, 0, 82, 38
2, 343891, Note_on_c, 0, 82, 0
2, 344049, Note_on_c, 0, 69, 41
2, 344145, Note_on_c, 0, 69, 0
2, 344255, Note_on_c, 0, 73, 33
2, 344391, Note_on_c, 0, 73, 0
2, 344512, Note_on_c, 0, 81, 65
2, 344646, Note_on_c, 0, 81, 0
2, 344714, Note_on_c, 0, 61, 32
2, 344871, Note_on_c, 0, 61, 0
2, 344994, Note_on_c, 0, 70, 38
2, 345109, Note_on_c, 0, 70, 0
2, 345210, Note_on_c, 0, 79, 59
2, 345364, Note_on_c, 0, 79, 0
2, 345485, Note_on_c, 0, 78, 50
2, 345578, Note_on_c, 0, 78, 0
2, 345668, Note_on_c, 0, 50, 57
2, 345779, Note_on_c, 0, 50, 0
2, 345937, Note_on_c, 0, 69, 45
2, 346072, Note_on_c, 0, 69, 0
2, 346137, Note_on_c, 0, 75, 50
2, 346252, Note_on_c, 0, 75, 0
2, 346386, Note_on_c, 0, 64, 49
2, 346492, Note_on_c, 0, 64, 0
2, 346881, Note_on_c, 0, 59, 56
2, 346981, Note_on_c, 0, 59, 0
2, 347079, Note_on_c, 0, 66, 28
2, 347327, Note_on_c, 0, 66, 0
2, 347595, Note_on_c, 0, 69, 32
2, 347759, Note_on_c, 0, 69, 0
2, 348069, Note_on_c, 0, 54, 50
2, 348216, Note_on_c, 0, 54, 0
2, 348540, Note_on_c, 0, 61, 46
2, 348730, Note_on_c, 0, 61, 0
2, 348800, Note_on_c, 0, 64, 51
2, 348886, Note_on_c, 0, 64, 0
2, 349018, Note_on_c, 0, 66, 40
2, 349328, Note_on_c, 0, 66, 0
2, 349483, Note_on_c, 0, 47, 32
2, 349505, Note_on_c, 0, 66, 38
2, 349514, Note_on_c, 0, 69, 36
2, 349519, Note_on_c, 0, 62, 35
2, 349526, Note_on_c, 0, 40, 31
2, 349551, Note_on_c, 0, 55, 18
2, 349692, Note_on_c, 0, 62, 0
2, 349705, Note_on_c, 0, 69, 0
2, 349720, Note_on_c, 0, 66, 0
2, 349731, Note_on_c, 0, 40, 0
2, 349845, Note_on_c, 0, 40, 16
2, 349854, Note_on_c, 0, 66, 34
2, 349862, Note_on_c, 0, 62, 22
2, 349885, Note_on_c, 0, 69, 17
2, 349933, Note_on_c, 0, 62, 0
2, 349957, Note_on_c, 0, 69, 0
2, 349976, Note_on_c, 0, 66, 0
2, 350005, Note_on_c, 0, 40, 0
2, 350008, Note_on_c, 0, 55, 0
2, 350039, Note_on_c, 0, 47, 0
2, 350294, Note_on_c, 0, 47, 33
2, 350302, Note_on_c, 0, 69, 29
2, 350304, Note_on_c, 0, 66, 37
2, 350309, Note_on_c, 0, 62, 42
2, 350332, Note_on_c, 0, 55, 18
2, 350333, Note_on_c, 0, 40, 29
2, 350424, Note_on_c, 0, 62, 0
2, 350469, Note_on_c, 0, 66, 0
2, 350472, Note_on_c, 0, 69, 0
2, 350501, Note_on_c, 0, 55, 0
2, 350536, Note_on_c, 0, 40, 0
2, 350556, Note_on_c, 0, 47, 0
2, 350920, Note_on_c, 0, 47, 36
2, 350946, Note_on_c, 0, 66, 27
2, 350948, Note_on_c, 0, 69, 26
2, 350957, Note_on_c, 0, 62, 24
2, 350966, Note_on_c, 0, 55, 25
2, 351150, Note_on_c, 0, 47, 0
2, 351159, Note_on_c, 0, 62, 0
2, 351202, Note_on_c, 0, 69, 0
2, 351241, Note_on_c, 0, 66, 0
2, 351255, Note_on_c, 0, 55, 0
2, 351877, Note_on_c, 0, 60, 82
2, 351881, Note_on_c, 0, 72, 67
2, 351883, Note_on_c, 0, 65, 75
2, 351891, Note_on_c, 0, 61, 83
2, 351904, Note_on_c, 0, 69, 50
2, 352200, Note_on_c, 0, 61, 0
2, 352210, Note_on_c, 0, 59, 53
2, 352211, Note_on_c, 0, 69, 0
2, 352231, Note_on_c, 0, 65, 0
2, 352241, Note_on_c, 0, 60, 0
2, 352310, Note_on_c, 0, 58, 63
2, 352311, Note_on_c, 0, 72, 0
2, 352325, Note_on_c, 0, 59, 0
2, 352372, Note_on_c, 0, 58, 0
2, 352394, Note_on_c, 0, 61, 53
2, 352400, Note_on_c, 0, 65, 49
2, 352434, Note_on_c, 0, 69, 40
2, 352438, Note_on_c, 0, 57, 56
2, 353051, Note_on_c, 0, 69, 0
2, 353086, Note_on_c, 0, 65, 0
2, 353258, Note_on_c, 0, 61, 0
2, 353363, Note_on_c, 0, 61, 37
2, 353384, Note_on_c, 0, 66, 53
2, 353402, Note_on_c, 0, 50, 42
2, 353845, Note_on_c, 0, 61, 0
2, 353965, Note_on_c, 0, 66, 0
2, 354300, Note_on_c, 0, 81, 66
2, 354303, Note_on_c, 0, 50, 0
2, 354343, Note_on_c, 0, 57, 0
2, 354462, Note_on_c, 0, 81, 0
2, 354586, Note_on_c, 0, 69, 39
2, 354666, Note_on_c, 0, 69, 0
2, 355034, Note_on_c, 0, 61, 35
2, 355040, Note_on_c, 0, 64, 36
2, 355049, Note_on_c, 0, 54, 32
2, 355742, Note_on_c, 0, 71, 81
2, 355754, Note_on_c, 0, 73, 43
2, 355980, Note_on_c, 0, 71, 0
2, 355996, Note_on_c, 0, 73, 0
2, 356009, Note_on_c, 0, 69, 35
2, 356104, Note_on_c, 0, 69, 0
2, 356178, Note_on_c, 0, 71, 51
2, 356190, Note_on_c, 0, 73, 37
2, 356357, Note_on_c, 0, 71, 0
2, 356392, Note_on_c, 0, 73, 0
2, 356671, Note_on_c, 0, 71, 50
2, 356676, Note_on_c, 0, 73, 30
2, 356956, Note_on_c, 0, 71, 0
2, 356961, Note_on_c, 0, 73, 0
2, 356970, Note_on_c, 0, 69, 40
2, 357098, Note_on_c, 0, 69, 0
2, 357193, Note_on_c, 0, 74, 54
2, 357214, Note_on_c, 0, 72, 26
2, 357343, Note_on_c, 0, 61, 0
2, 357454, Note_on_c, 0, 74, 0
2, 357491, Note_on_c, 0, 54, 0
2, 357533, Note_on_c, 0, 72, 0
2, 357634, Note_on_c, 0, 64, 0
2, 357639, Note_on_c, 0, 72, 37
2, 357640, Note_on_c, 0, 74, 54
2, 357880, Note_on_c, 0, 74, 0
2, 357911, Note_on_c, 0, 69, 32
2, 357998, Note_on_c, 0, 72, 0
2, 358043, Note_on_c, 0, 69, 0
2, 358087, Note_on_c, 0, 67, 53
2, 358103, Note_on_c, 0, 72, 24
2, 358139, Note_on_c, 0, 74, 54
2, 358370, Note_on_c, 0, 74, 0
2, 358404, Note_on_c, 0, 72, 0
2, 358599, Note_on_c, 0, 72, 36
2, 358610, Note_on_c, 0, 74, 42
2, 358812, Note_on_c, 0, 67, 0
2, 358897, Note_on_c, 0, 69, 33
2, 358918, Note_on_c, 0, 74, 0
2, 359026, Note_on_c, 0, 72, 0
2, 359045, Note_on_c, 0, 69, 0
2, 359068, Note_on_c, 0, 65, 37
2, 359096, Note_on_c, 0, 72, 27
2, 359123, Note_on_c, 0, 74, 41
2, 359287, Note_on_c, 0, 74, 0
2, 359322, Note_on_c, 0, 72, 0
2, 359462, Note_on_c, 0, 65, 0
2, 359536, Note_on_c, 0, 74, 57
2, 359538, Note_on_c, 0, 72, 47
2, 359557, Note_on_c, 0, 59, 43
2, 359719, Note_on_c, 0, 72, 0
2, 359804, Note_on_c, 0, 74, 0
2, 360021, Note_on_c, 0, 74, 54
2, 360024, Note_on_c, 0, 71, 57
2, 360048, Note_on_c, 0, 67, 35
2, 360125, Note_on_c, 0, 67, 0
2, 360244, Note_on_c, 0, 71, 0
2, 360270, Note_on_c, 0, 74, 0
2, 360497, Note_on_c, 0, 59, 0
2, 360499, Note_on_c, 0, 74, 60
2, 360521, Note_on_c, 0, 55, 28
2, 360522, Note_on_c, 0, 71, 47
2, 360530, Note_on_c, 0, 67, 34
2, 360714, Note_on_c, 0, 67, 0
2, 360729, Note_on_c, 0, 71, 0
2, 360795, Note_on_c, 0, 74, 0
2, 361007, Note_on_c, 0, 71, 56
2, 361015, Note_on_c, 0, 76, 57
2, 361027, Note_on_c, 0, 67, 44
2, 361126, Note_on_c, 0, 67, 0
2, 361196, Note_on_c, 0, 71, 0
2, 361221, Note_on_c, 0, 76, 0
2, 361472, Note_on_c, 0, 55, 0
2, 361475, Note_on_c, 0, 76, 62
2, 361478, Note_on_c, 0, 71, 65
2, 361487, Note_on_c, 0, 64, 57
2, 361491, Note_on_c, 0, 67, 58
2, 361672, Note_on_c, 0, 67, 0
2, 361702, Note_on_c, 0, 71, 0
2, 361725, Note_on_c, 0, 76, 0
2, 361983, Note_on_c, 0, 76, 55
2, 361990, Note_on_c, 0, 67, 47
2, 361995, Note_on_c, 0, 71, 51
2, 362109, Note_on_c, 0, 67, 0
2, 362142, Note_on_c, 0, 71, 0
2, 362175, Note_on_c, 0, 76, 0
2, 362425, Note_on_c, 0, 64, 0
2, 362434, Note_on_c, 0, 76, 60
2, 362435, Note_on_c, 0, 62, 64
2, 362442, Note_on_c, 0, 67, 48
2, 362451, Note_on_c, 0, 71, 51
2, 362538, Note_on_c, 0, 67, 0
2, 362612, Note_on_c, 0, 71, 0
2, 362638, Note_on_c, 0, 76, 0
2, 362772, Note_on_c, 0, 62, 0
2, 362898, Note_on_c, 0, 76, 73
2, 362906, Note_on_c, 0, 71, 76
2, 362932, Note_on_c, 0, 69, 81
2, 363019, Note_on_c, 0, 71, 0
2, 363081, Note_on_c, 0, 76, 0
2, 363379, Note_on_c, 0, 69, 0
2, 363391, Note_on_c, 0, 76, 71
2, 363394, Note_on_c, 0, 71, 79
2, 363426, Note_on_c, 0, 67, 58
2, 363520, Note_on_c, 0, 71, 0
2, 363541, Note_on_c, 0, 76, 0
2, 363857, Note_on_c, 0, 67, 0
2, 363870, Note_on_c, 0, 71, 68
2, 363880, Note_on_c, 0, 76, 52
2, 364011, Note_on_c, 0, 71, 0
2, 364035, Note_on_c, 0, 76, 0
2, 364344, Note_on_c, 0, 62, 47
2, 364360, Note_on_c, 0, 76, 53
2, 364361, Note_on_c, 0, 71, 53
2, 364544, Note_on_c, 0, 62, 0
2, 364589, Note_on_c, 0, 71, 0
2, 364619, Note_on_c, 0, 76, 0
2, 364858, Note_on_c, 0, 75, 56
2, 364864, Note_on_c, 0, 67, 50
2, 364865, Note_on_c, 0, 70, 60
2, 365053, Note_on_c, 0, 75, 0
2, 365055, Note_on_c, 0, 67, 0
2, 365062, Note_on_c, 0, 70, 0
2, 365332, Note_on_c, 0, 55, 42
2, 365509, Note_on_c, 0, 55, 0
2, 365818, Note_on_c, 0, 62, 49
2, 365832, Note_on_c, 0, 65, 67
2, 366032, Note_on_c, 0, 65, 0
2, 366077, Note_on_c, 0, 62, 0
2, 366296, Note_on_c, 0, 43, 22
2, 366386, Note_on_c, 0, 43, 0
2, 366778, Note_on_c, 0, 58, 36
2, 366790, Note_on_c, 0, 64, 38
2, 366942, Note_on_c, 0, 58, 0
2, 367049, Note_on_c, 0, 64, 0
2, 367253, Note_on_c, 0, 36, 36
2, 367264, Note_on_c, 0, 52, 30
2, 367306, Note_on_c, 0, 36, 0
2, 367474, Note_on_c, 0, 52, 0
2, 367754, Note_on_c, 0, 73, 40
2, 367761, Note_on_c, 0, 64, 44
2, 367765, Note_on_c, 0, 68, 46
2, 367776, Note_on_c, 0, 70, 44
2, 367785, Note_on_c, 0, 58, 37
2, 367859, Note_on_c, 0, 58, 0
2, 367902, Note_on_c, 0, 64, 0
2, 367968, Note_on_c, 0, 68, 0
2, 367974, Note_on_c, 0, 73, 0
2, 367980, Note_on_c, 0, 70, 0
2, 368256, Note_on_c, 0, 41, 54
2, 368269, Note_on_c, 0, 62, 57
2, 368271, Note_on_c, 0, 67, 55
2, 368278, Note_on_c, 0, 72, 47
2, 368284, Note_on_c, 0, 48, 53
2, 369342, Note_on_c, 0, 67, 0
2, 369383, Note_on_c, 0, 72, 0
2, 369435, Note_on_c, 0, 62, 0
2, 369802, Note_on_c, 0, 64, 59
2, 369829, Note_on_c, 0, 56, 60
2, 369843, Note_on_c, 0, 59, 53
2, 369845, Note_on_c, 0, 52, 53
2, 369860, Note_on_c, 0, 53, 30
2, 369920, Note_on_c, 0, 53, 0
2, 369981, Note_on_c, 0, 59, 0
2, 369982, Note_on_c, 0, 52, 0
2, 369988, Note_on_c, 0, 56, 0
2, 370008, Note_on_c, 0, 64, 0
2, 370552, Note_on_c, 0, 65, 62
2, 370559, Note_on_c, 0, 57, 68
2, 370560, Note_on_c, 0, 60, 66
2, 370570, Note_on_c, 0, 62, 65
2, 370578, Note_on_c, 0, 53, 58
2, 370647, Note_on_c, 0, 57, 0
2, 370675, Note_on_c, 0, 48, 0
2, 370699, Note_on_c, 0, 62, 0
2, 370719, Note_on_c, 0, 60, 0
2, 370725, Note_on_c, 0, 65, 0
2, 370726, Note_on_c, 0, 53, 0
2, 370929, Note_on_c, 0, 58, 31
2, 370995, Note_on_c, 0, 58, 0
2, 371221, Note_on_c, 0, 60, 51
2, 371253, Note_on_c, 0, 55, 51
2, 371270, Note_on_c, 0, 52, 49
2, 371278, Note_on_c, 0, 48, 51
2, 371286, Note_on_c, 0, 57, 29
2, 371423, Note_on_c, 0, 52, 0
2, 371472, Note_on_c, 0, 57, 0
2, 371478, Note_on_c, 0, 55, 0
2, 371489, Note_on_c, 0, 60, 0
2, 371903, Note_on_c, 0, 62, 56
2, 371916, Note_on_c, 0, 57, 62
2, 371932, Note_on_c, 0, 50, 44
2, 371939, Note_on_c, 0, 53, 50
2, 372041, Note_on_c, 0, 48, 0
2, 372150, Note_on_c, 0, 53, 0
2, 372166, Note_on_c, 0, 62, 0
2, 372251, Note_on_c, 0, 57, 0
2, 372377, Note_on_c, 0, 50, 0
2, 372534, Note_on_c, 0, 57, 55
2, 372539, Note_on_c, 0, 53, 57
2, 372544, Note_on_c, 0, 59, 55
2, 372545, Note_on_c, 0, 64, 57
2, 372547, Note_on_c, 0, 52, 51
2, 372722, Note_on_c, 0, 41, 0
2, 373021, Control_c, 0, 64, 127
2, 373247, Note_on_c, 0, 53, 0
2, 373383, Note_on_c, 0, 59, 0
2, 373393, Note_on_c, 0, 57, 0
2, 373419, Note_on_c, 0, 64, 0
2, 373507, Note_on_c, 0, 52, 0
2, 373950, Note_on_c, 0, 64, 53
2, 373972, Note_on_c, 0, 65, 47
2, 373979, Note_on_c, 0, 71, 55
2, 373981, Note_on_c, 0, 69, 51
2, 374085, Control_c, 0, 64, 0
2, 374101, Note_on_c, 0, 65, 0
2, 374129, Note_on_c, 0, 69, 0
2, 374137, Note_on_c, 0, 64, 0
2, 374153, Note_on_c, 0, 71, 0
2, 374237, Note_on_c, 0, 65, 42
2, 374257, Note_on_c, 0, 69, 33
2, 374259, Note_on_c, 0, 71, 49
2, 374269, Note_on_c, 0, 64, 42
2, 374369, Note_on_c, 0, 65, 0
2, 374405, Note_on_c, 0, 65, 22
2, 374616, Note_on_c, 0, 69, 0
2, 374620, Note_on_c, 0, 64, 0
2, 374623, Note_on_c, 0, 65, 0
2, 374648, Note_on_c, 0, 71, 0
2, 374907, Note_on_c, 0, 65, 47
2, 374911, Note_on_c, 0, 68, 42
2, 374922, Note_on_c, 0, 64, 36
2, 374938, Note_on_c, 0, 70, 48
2, 375057, Note_on_c, 0, 64, 0
2, 375069, Note_on_c, 0, 65, 0
2, 375075, Note_on_c, 0, 68, 0
2, 375093, Note_on_c, 0, 70, 0
2, 375185, Note_on_c, 0, 68, 37
2, 375187, Note_on_c, 0, 65, 36
2, 375198, Note_on_c, 0, 70, 49
2, 375210, Note_on_c, 0, 64, 46
2, 375306, Note_on_c, 0, 65, 0
2, 375369, Note_on_c, 0, 65, 22
2, 375518, Note_on_c, 0, 65, 0
2, 375559, Note_on_c, 0, 68, 0
2, 375579, Note_on_c, 0, 70, 0
2, 375591, Note_on_c, 0, 64, 0
2, 375870, Note_on_c, 0, 64, 41
2, 375871, Note_on_c, 0, 68, 49
2, 375889, Note_on_c, 0, 70, 47
2, 375898, Note_on_c, 0, 65, 50
2, 375985, Note_on_c, 0, 65, 0
2, 376015, Note_on_c, 0, 64, 0
2, 376025, Note_on_c, 0, 68, 0
2, 376030, Note_on_c, 0, 70, 0
2, 376151, Note_on_c, 0, 68, 35
2, 376164, Note_on_c, 0, 70, 38
2, 376168, Note_on_c, 0, 64, 36
2, 376271, Note_on_c, 0, 68, 0
2, 376278, Note_on_c, 0, 64, 0
2, 376286, Note_on_c, 0, 70, 0
2, 376349, Note_on_c, 0, 65, 35
2, 376351, Note_on_c, 0, 64, 38
2, 376365, Note_on_c, 0, 69, 53
2, 376386, Note_on_c, 0, 71, 32
2, 376513, Note_on_c, 0, 65, 0
2, 376545, Note_on_c, 0, 64, 0
2, 376559, Note_on_c, 0, 69, 0
2, 376589, Note_on_c, 0, 71, 0
2, 376825, Note_on_c, 0, 71, 57
2, 376830, Note_on_c, 0, 64, 48
2, 376835, Note_on_c, 0, 65, 43
2, 376844, Note_on_c, 0, 69, 51
2, 377036, Note_on_c, 0, 64, 0
2, 377054, Note_on_c, 0, 69, 0
2, 377059, Note_on_c, 0, 71, 0
2, 377066, Note_on_c, 0, 65, 0
2, 377317, Note_on_c, 0, 64, 39
2, 377320, Note_on_c, 0, 71, 54
2, 377323, Note_on_c, 0, 65, 41
2, 377332, Note_on_c, 0, 69, 48
2, 377627, Note_on_c, 0, 65, 0
2, 377662, Note_on_c, 0, 64, 0
2, 377704, Note_on_c, 0, 69, 0
2, 377762, Note_on_c, 0, 71, 0
2, 377786, Note_on_c, 0, 67, 60
2, 377793, Note_on_c, 0, 69, 24
2, 377797, Note_on_c, 0, 64, 41
2, 377807, Note_on_c, 0, 72, 54
2, 377886, Note_on_c, 0, 67, 0
2, 377934, Note_on_c, 0, 64, 0
2, 377936, Note_on_c, 0, 69, 0
2, 377959, Note_on_c, 0, 72, 0
2, 378743, Note_on_c, 0, 64, 56
2, 378755, Note_on_c, 0, 76, 60
2, 378768, Note_on_c, 0, 69, 65
2, 378768, Note_on_c, 0, 67, 68
2, 378769, Note_on_c, 0, 72, 40
2, 378945, Note_on_c, 0, 64, 0
2, 378946, Note_on_c, 0, 67, 0
2, 378968, Note_on_c, 0, 69, 0
2, 378987, Note_on_c, 0, 76, 0
2, 379015, Note_on_c, 0, 72, 0
2, 379234, Note_on_c, 0, 64, 50
2, 379239, Note_on_c, 0, 76, 57
2, 379251, Note_on_c, 0, 67, 60
2, 379254, Note_on_c, 0, 69, 60
2, 379256, Note_on_c, 0, 72, 44
2, 379469, Note_on_c, 0, 76, 0
2, 379502, Note_on_c, 0, 67, 0
2, 379567, Note_on_c, 0, 64, 0
2, 379666, Note_on_c, 0, 69, 0
2, 379675, Note_on_c, 0, 72, 0
2, 379716, Note_on_c, 0, 64, 42
2, 379724, Note_on_c, 0, 77, 66
2, 379737, Note_on_c, 0, 75, 38
2, 379740, Note_on_c, 0, 69, 19
2, 379826, Note_on_c, 0, 69, 0
2, 379850, Note_on_c, 0, 64, 0
2, 379851, Note_on_c, 0, 75, 0
2, 379854, Note_on_c, 0, 77, 0
2, 381205, Note_on_c, 0, 74, 74
2, 381207, Note_on_c, 0, 67, 74
2, 381213, Note_on_c, 0, 63, 77
2, 381222, Note_on_c, 0, 70, 67
2, 381223, Note_on_c, 0, 62, 71
2, 381334, Control_c, 0, 64, 127
2, 381608, Note_on_c, 0, 62, 0
2, 381669, Note_on_c, 0, 72, 59
2, 381674, Note_on_c, 0, 60, 49
2, 381702, Note_on_c, 0, 74, 0
2, 381722, Note_on_c, 0, 60, 0
2, 381737, Note_on_c, 0, 67, 0
2, 381796, Note_on_c, 0, 63, 0
2, 381803, Note_on_c, 0, 70, 0
2, 382085, Note_on_c, 0, 72, 0
2, 382140, Control_c, 0, 64, 0
2, 382175, Note_on_c, 0, 66, 49
2, 382177, Note_on_c, 0, 69, 51
2, 382179, Note_on_c, 0, 51, 43
2, 382185, Note_on_c, 0, 62, 44
2, 382186, Note_on_c, 0, 57, 41
2, 382439, Control_c, 0, 64, 127
2, 382913, Note_on_c, 0, 62, 0
2, 382939, Note_on_c, 0, 57, 0
2, 382981, Note_on_c, 0, 66, 0
2, 383046, Note_on_c, 0, 51, 0
2, 383529, Note_on_c, 0, 69, 0
2, 383580, Note_on_c, 0, 66, 46
2, 383586, Note_on_c, 0, 62, 42
2, 383828, Note_on_c, 0, 62, 0
2, 383913, Note_on_c, 0, 66, 0
2, 383984, Control_c, 0, 64, 0
2, 384036, Note_on_c, 0, 65, 40
2, 384058, Note_on_c, 0, 57, 33
2, 384075, Note_on_c, 0, 46, 27
2, 384219, Control_c, 0, 64, 127
2, 384270, Note_on_c, 0, 46, 0
2, 384356, Note_on_c, 0, 65, 0
2, 384384, Note_on_c, 0, 57, 0
2, 384959, Note_on_c, 0, 84, 69
2, 384984, Control_c, 0, 64, 0
2, 384996, Note_on_c, 0, 65, 33
2, 385025, Note_on_c, 0, 83, 51
2, 385053, Note_on_c, 0, 60, 24
2, 385073, Note_on_c, 0, 84, 0
2, 385076, Note_on_c, 0, 62, 17
2, 385152, Note_on_c, 0, 82, 60
2, 385176, Note_on_c, 0, 83, 0
2, 385296, Note_on_c, 0, 81, 58
2, 385303, Note_on_c, 0, 82, 0
2, 385394, Note_on_c, 0, 81, 0
2, 385465, Note_on_c, 0, 77, 36
2, 385548, Note_on_c, 0, 65, 0
2, 385557, Note_on_c, 0, 77, 0
2, 385949, Note_on_c, 0, 74, 45
2, 386028, Note_on_c, 0, 74, 0
2, 386396, Note_on_c, 0, 69, 38
2, 386658, Note_on_c, 0, 62, 0
2, 386789, Note_on_c, 0, 69, 0
2, 386856, Note_on_c, 0, 72, 53
2, 386868, Note_on_c, 0, 65, 28
2, 386895, Note_on_c, 0, 62, 19
2, 386983, Note_on_c, 0, 65, 0
2, 387000, Note_on_c, 0, 62, 0
2, 387155, Note_on_c, 0, 70, 52
2, 387173, Note_on_c, 0, 60, 0
2, 387243, Note_on_c, 0, 72, 0
2, 387304, Note_on_c, 0, 70, 0
2, 387385, Note_on_c, 0, 69, 47
2, 387580, Note_on_c, 0, 69, 0
2, 387665, Note_on_c, 0, 70, 62
2, 387797, Note_on_c, 0, 65, 35
2, 387816, Note_on_c, 0, 70, 0
2, 387825, Note_on_c, 0, 69, 49
2, 387840, Note_on_c, 0, 61, 32
2, 387865, Note_on_c, 0, 56, 31
2, 388027, Note_on_c, 0, 65, 0
2, 388074, Note_on_c, 0, 69, 0
2, 388131, Note_on_c, 0, 61, 0
2, 388165, Note_on_c, 0, 56, 0
2, 388346, Note_on_c, 0, 61, 56
2, 388672, Note_on_c, 0, 61, 0
2, 388819, Note_on_c, 0, 61, 54
2, 388840, Note_on_c, 0, 46, 39
2, 388989, Note_on_c, 0, 61, 0
2, 388990, Note_on_c, 0, 46, 0
2, 390270, Note_on_c, 0, 27, 51
2, 390380, Note_on_c, 0, 27, 0
2, 390776, Note_on_c, 0, 72, 57
2, 390783, Note_on_c, 0, 65, 74
2, 391002, Note_on_c, 0, 72, 0
2, 391074, Note_on_c, 0, 70, 49
2, 391174, Note_on_c, 0, 65, 0
2, 391258, Note_on_c, 0, 70, 0
2, 391485, Note_on_c, 0, 64, 51
2, 391506, Note_on_c, 0, 45, 41
2, 391506, Note_on_c, 0, 60, 28
2, 391509, Note_on_c, 0, 69, 42
2, 391518, Note_on_c, 0, 55, 30
2, 391559, Note_on_c, 0, 60, 0
2, 391614, Note_on_c, 0, 64, 0
2, 391671, Note_on_c, 0, 45, 0
2, 391685, Note_on_c, 0, 69, 0
2, 391690, Note_on_c, 0, 55, 0
2, 392088, Note_on_c, 0, 84, 80
2, 392255, Note_on_c, 0, 84, 0
2, 392296, Note_on_c, 0, 72, 34
2, 392523, Note_on_c, 0, 72, 0
2, 392740, Note_on_c, 0, 64, 29
2, 392755, Note_on_c, 0, 57, 29
2, 392766, Note_on_c, 0, 60, 30
2, 392862, Note_on_c, 0, 60, 0
2, 392881, Note_on_c, 0, 64, 0
2, 392948, Note_on_c, 0, 57, 0
2, 393208, Note_on_c, 0, 69, 30
2, 393469, Note_on_c, 0, 69, 0
2, 393700, Note_on_c, 0, 76, 74
2, 393872, Note_on_c, 0, 76, 0
2, 393990, Note_on_c, 0, 62, 55
2, 394395, Note_on_c, 0, 52, 52
2, 394462, Note_on_c, 0, 52, 0
2, 395000, Note_on_c, 0, 38, 44
2, 395016, Note_on_c, 0, 26, 60
2, 395049, Note_on_c, 0, 62, 0
2, 396289, Note_on_c, 0, 30, 40
2, 396372, Note_on_c, 0, 38, 0
2, 396496, Note_on_c, 0, 74, 82
2, 396514, Note_on_c, 0, 30, 0
2, 396545, Note_on_c, 0, 38, 13
2, 396603, Note_on_c, 0, 74, 0
2, 396782, Note_on_c, 0, 74, 37
2, 396856, Note_on_c, 0, 26, 0
2, 396956, Note_on_c, 0, 74, 0
2, 397006, Note_on_c, 0, 38, 0
2, 397220, Note_on_c, 0, 69, 30
2, 397357, Note_on_c, 0, 69, 0
2, 397412, Note_on_c, 0, 72, 62
2, 397574, Note_on_c, 0, 72, 0
2, 397687, Note_on_c, 0, 72, 60
2, 397847, Note_on_c, 0, 72, 0
2, 398144, Note_on_c, 0, 66, 30
2, 398249, Note_on_c, 0, 66, 0
2, 398301, Note_on_c, 0, 62, 19
2, 398307, Note_on_c, 0, 60, 22
2, 398349, Note_on_c, 0, 69, 43
2, 398407, Note_on_c, 0, 62, 0
2, 398440, Note_on_c, 0, 60, 0
2, 398486, Note_on_c, 0, 69, 0
2, 398608, Note_on_c, 0, 69, 54
2, 398688, Note_on_c, 0, 54, 26
2, 398738, Note_on_c, 0, 54, 0
2, 398748, Note_on_c, 0, 69, 0
2, 398804, Note_on_c, 0, 62, 30
2, 398910, Note_on_c, 0, 62, 0
2, 399135, Note_on_c, 0, 62, 35
2, 399231, Note_on_c, 0, 62, 0
2, 399305, Note_on_c, 0, 43, 33
2, 399313, Note_on_c, 0, 53, 29
2, 399329, Note_on_c, 0, 65, 50
2, 399450, Note_on_c, 0, 53, 0
2, 399498, Note_on_c, 0, 65, 0
2, 399524, Note_on_c, 0, 43, 0
2, 399593, Note_on_c, 0, 65, 57
2, 399746, Note_on_c, 0, 65, 0
2, 399830, Note_on_c, 0, 58, 30
2, 399951, Note_on_c, 0, 58, 0
2, 400105, Note_on_c, 0, 58, 56
2, 400188, Note_on_c, 0, 58, 0
2, 400317, Note_on_c, 0, 62, 37
2, 400487, Note_on_c, 0, 62, 0
2, 400582, Note_on_c, 0, 62, 62
2, 400730, Note_on_c, 0, 62, 0
2, 400835, Note_on_c, 0, 53, 24
2, 400901, Note_on_c, 0, 43, 18
2, 400946, Note_on_c, 0, 53, 0
2, 400963, Note_on_c, 0, 43, 0
2, 401103, Note_on_c, 0, 53, 45
2, 401155, Note_on_c, 0, 43, 32
2, 401203, Note_on_c, 0, 53, 0
2, 401309, Note_on_c, 0, 46, 37
2, 401310, Note_on_c, 0, 58, 54
2, 401343, Note_on_c, 0, 43, 0
2, 401379, Note_on_c, 0, 46, 0
2, 401480, Note_on_c, 0, 58, 0
2, 401576, Note_on_c, 0, 58, 59
2, 401581, Note_on_c, 0, 46, 39
2, 401708, Note_on_c, 0, 58, 0
2, 401756, Note_on_c, 0, 46, 0
2, 401774, Note_on_c, 0, 62, 55
2, 401777, Note_on_c, 0, 50, 51
2, 401895, Note_on_c, 0, 62, 0
2, 401901, Note_on_c, 0, 50, 0
2, 402062, Note_on_c, 0, 62, 49
2, 402090, Note_on_c, 0, 50, 49
2, 402180, Note_on_c, 0, 62, 0
2, 402239, Note_on_c, 0, 50, 0
2, 402258, Note_on_c, 0, 65, 71
2, 402286, Note_on_c, 0, 53, 45
2, 402395, Note_on_c, 0, 65, 0
2, 402396, Note_on_c, 0, 53, 0
2, 402522, Note_on_c, 0, 65, 62
2, 402562, Note_on_c, 0, 53, 44
2, 402680, Note_on_c, 0, 65, 0
2, 402681, Note_on_c, 0, 53, 0
2, 402754, Note_on_c, 0, 62, 32
2, 402839, Note_on_c, 0, 62, 0
2, 402994, Note_on_c, 0, 50, 35
2, 403017, Note_on_c, 0, 62, 38
2, 403134, Note_on_c, 0, 62, 0
2, 403185, Note_on_c, 0, 50, 0
2, 403200, Note_on_c, 0, 64, 75
2, 403211, Note_on_c, 0, 52, 43
2, 404773, Note_on_c, 0, 52, 0
2, 404795, Note_on_c, 0, 51, 17
2, 404868, Note_on_c, 0, 63, 46
2, 404881, Note_on_c, 0, 64, 0
2, 404898, Note_on_c, 0, 51, 0
2, 404912, Note_on_c, 0, 63, 0
2, 404956, Note_on_c, 0, 62, 31
2, 405006, Note_on_c, 0, 49, 35
2, 405093, Note_on_c, 0, 62, 0
2, 405094, Note_on_c, 0, 61, 51
2, 405175, Note_on_c, 0, 49, 0
2, 405209, Note_on_c, 0, 61, 0
2, 405246, Note_on_c, 0, 60, 39
2, 405263, Note_on_c, 0, 48, 50
2, 406162, Note_on_c, 0, 60, 0
2, 406168, Note_on_c, 0, 48, 0
2, 406174, Note_on_c, 0, 46, 36
2, 406192, Note_on_c, 0, 58, 50
2, 406729, Note_on_c, 0, 58, 0
2, 406858, Note_on_c, 0, 46, 0
2, 406900, Note_on_c, 0, 56, 39
2, 406902, Note_on_c, 0, 44, 39
2, 407004, Note_on_c, 0, 44, 0
2, 407031, Note_on_c, 0, 56, 0
2, 407111, Note_on_c, 0, 45, 34
2, 407160, Note_on_c, 0, 57, 26
2, 407278, Note_on_c, 0, 57, 0
2, 407331, Note_on_c, 0, 45, 0
2, 407382, Note_on_c, 0, 60, 45
2, 407413, Note_on_c, 0, 48, 34
2, 407531, Note_on_c, 0, 48, 0
2, 407536, Note_on_c, 0, 60, 0
2, 407565, Note_on_c, 0, 62, 58
2, 407571, Note_on_c, 0, 50, 50
2, 407779, Note_on_c, 0, 62, 0
2, 407816, Note_on_c, 0, 50, 0
2, 407890, Note_on_c, 0, 60, 29
2, 407953, Note_on_c, 0, 60, 0
2, 408056, Note_on_c, 0, 65, 64
2, 408066, Note_on_c, 0, 53, 33
2, 408447, Note_on_c, 0, 65, 0
2, 408494, Note_on_c, 0, 62, 52
2, 408503, Note_on_c, 0, 53, 0
2, 408525, Note_on_c, 0, 48, 39
2, 408677, Note_on_c, 0, 48, 0
2, 408697, Note_on_c, 0, 62, 0
2, 409459, Note_on_c, 0, 65, 63
2, 409483, Note_on_c, 0, 53, 44
2, 409755, Note_on_c, 0, 65, 0
2, 409800, Note_on_c, 0, 53, 0
2, 409965, Note_on_c, 0, 65, 61
2, 409979, Note_on_c, 0, 53, 40
2, 410286, Note_on_c, 0, 65, 0
2, 410368, Note_on_c, 0, 53, 0
2, 410406, Note_on_c, 0, 62, 51
2, 410413, Note_on_c, 0, 50, 41
2, 410490, Note_on_c, 0, 50, 0
2, 410568, Note_on_c, 0, 62, 0
2, 410880, Note_on_c, 0, 65, 38
2, 410892, Note_on_c, 0, 58, 52
2, 410898, Note_on_c, 0, 53, 37
2, 410904, Note_on_c, 0, 62, 49
2, 410910, Note_on_c, 0, 43, 35
2, 410920, Note_on_c, 0, 55, 35
2, 411168, Note_on_c, 0, 62, 0
2, 411175, Note_on_c, 0, 55, 0
2, 411213, Note_on_c, 0, 65, 0
2, 411218, Note_on_c, 0, 43, 0
2, 411219, Note_on_c, 0, 53, 0
2, 411247, Note_on_c, 0, 58, 0
2, 411372, Note_on_c, 0, 43, 34
2, 411375, Note_on_c, 0, 62, 31
2, 411397, Note_on_c, 0, 58, 23
2, 411517, Note_on_c, 0, 43, 0
2, 411540, Note_on_c, 0, 58, 0
2, 411564, Note_on_c, 0, 62, 0
2, 411853, Note_on_c, 0, 65, 41
2, 411857, Note_on_c, 0, 53, 36
2, 411858, Note_on_c, 0, 58, 46
2, 411870, Note_on_c, 0, 62, 50
2, 411875, Note_on_c, 0, 55, 30
2, 411883, Note_on_c, 0, 43, 26
2, 412000, Note_on_c, 0, 43, 0
2, 412057, Note_on_c, 0, 55, 0
2, 412063, Note_on_c, 0, 62, 0
2, 412138, Note_on_c, 0, 65, 0
2, 412158, Note_on_c, 0, 53, 0
2, 412180, Note_on_c, 0, 58, 0
2, 412322, Note_on_c, 0, 62, 32
2, 412361, Note_on_c, 0, 58, 15
2, 412408, Note_on_c, 0, 62, 0
2, 412483, Note_on_c, 0, 58, 0
2, 412632, Note_on_c, 0, 64, 60
2, 412640, Note_on_c, 0, 58, 62
2, 412655, Note_on_c, 0, 55, 41
2, 412659, Note_on_c, 0, 61, 51
2, 413316, Note_on_c, 0, 39, 60
2, 413709, Note_on_c, 0, 55, 0
2, 413801, Note_on_c, 0, 39, 0
2, 413814, Note_on_c, 0, 40, 50
2, 413859, Note_on_c, 0, 64, 0
2, 414024, Note_on_c, 0, 58, 0
2, 414165, Note_on_c, 0, 61, 0
2, 414759, Note_on_c, 0, 40, 0
2, 414779, Note_on_c, 0, 41, 46
2, 415422, Note_on_c, 0, 64, 101
2, 415644, Note_on_c, 0, 41, 0
2, 415741, Note_on_c, 0, 35, 45
2, 415783, Note_on_c, 0, 64, 0
2, 415792, Note_on_c, 0, 65, 65
2, 416175, Note_on_c, 0, 65, 0
2, 416384, Note_on_c, 0, 60, 80
2, 416424, Note_on_c, 0, 34, 18
2, 416628, Note_on_c, 0, 34, 0
2, 416664, Note_on_c, 0, 36, 44
2, 416665, Note_on_c, 0, 35, 0
2, 416950, Note_on_c, 0, 60, 0
2, 416976, Note_on_c, 0, 62, 33
2, 417079, Note_on_c, 0, 60, 42
2, 417123, Note_on_c, 0, 62, 0
2, 417318, Note_on_c, 0, 59, 45
2, 417322, Note_on_c, 0, 60, 0
2, 417445, Note_on_c, 0, 59, 0
2, 417557, Note_on_c, 0, 29, 27
2, 417559, Note_on_c, 0, 36, 0
2, 417593, Note_on_c, 0, 60, 52
2, 418201, Note_on_c, 0, 62, 54
2, 418268, Note_on_c, 0, 60, 0
2, 418486, Note_on_c, 0, 62, 0
2, 418511, Note_on_c, 0, 29, 0
2, 418524, Note_on_c, 0, 35, 47
2, 418528, Note_on_c, 0, 64, 51
2, 418693, Note_on_c, 0, 64, 0
2, 419183, Note_on_c, 0, 76, 71
2, 419335, Note_on_c, 0, 35, 0
2, 419424, Note_on_c, 0, 76, 0
2, 419480, Note_on_c, 0, 65, 54
2, 419509, Note_on_c, 0, 71, 43
2, 419511, Note_on_c, 0, 52, 47
2, 419634, Note_on_c, 0, 65, 0
2, 419739, Note_on_c, 0, 71, 0
2, 420109, Note_on_c, 0, 46, 35
2, 420369, Note_on_c, 0, 52, 0
2, 420439, Note_on_c, 0, 40, 50
2, 420495, Note_on_c, 0, 46, 0
2, 421070, Note_on_c, 0, 56, 63
2, 421077, Note_on_c, 0, 53, 54
2, 421083, Note_on_c, 0, 58, 51
2, 421157, Note_on_c, 0, 44, 18
2, 421225, Note_on_c, 0, 40, 0
2, 421339, Note_on_c, 0, 44, 0
2, 421388, Note_on_c, 0, 47, 41
2, 421696, Note_on_c, 0, 62, 53
2, 421780, Note_on_c, 0, 53, 0
2, 421819, Note_on_c, 0, 39, 25
2, 421827, Note_on_c, 0, 62, 0
2, 421871, Note_on_c, 0, 47, 0
2, 421920, Note_on_c, 0, 56, 0
2, 421949, Note_on_c, 0, 58, 0
2, 422036, Note_on_c, 0, 39, 0
2, 422045, Note_on_c, 0, 40, 58
2, 422347, Note_on_c, 0, 40, 0
2, 422368, Note_on_c, 0, 64, 41
2, 422377, Note_on_c, 0, 55, 44
2, 422391, Note_on_c, 0, 60, 33
2, 422393, Note_on_c, 0, 41, 37
2, 422401, Note_on_c, 0, 57, 32
2, 422570, Note_on_c, 0, 55, 0
2, 422602, Note_on_c, 0, 57, 0
2, 422637, Note_on_c, 0, 64, 0
2, 422645, Note_on_c, 0, 60, 0
2, 423007, Note_on_c, 0, 36, 43
2, 423039, Note_on_c, 0, 60, 71
2, 423045, Note_on_c, 0, 65, 67
2, 423047, Note_on_c, 0, 62, 63
2, 423054, Note_on_c, 0, 57, 72
2, 423223, Note_on_c, 0, 36, 0
2, 423321, Note_on_c, 0, 29, 35
2, 423404, Note_on_c, 0, 62, 0
2, 423417, Note_on_c, 0, 65, 0
2, 423430, Note_on_c, 0, 60, 0
2, 423480, Note_on_c, 0, 57, 0
2, 423660, Note_on_c, 0, 41, 0
2, 424024, Note_on_c, 0, 60, 51
2, 424032, Note_on_c, 0, 36, 36
2, 424041, Note_on_c, 0, 55, 49
2, 424048, Note_on_c, 0, 52, 50
2, 424056, Note_on_c, 0, 57, 42
2, 424143, Note_on_c, 0, 29, 0
2, 424255, Note_on_c, 0, 36, 0
2, 424314, Note_on_c, 0, 41, 34
2, 424826, Note_on_c, 0, 60, 0
2, 424897, Note_on_c, 0, 55, 0
2, 424919, Note_on_c, 0, 52, 0
2, 424935, Note_on_c, 0, 57, 0
2, 424991, Note_on_c, 0, 38, 40
2, 425026, Note_on_c, 0, 41, 0
2, 425224, Note_on_c, 0, 38, 0
2, 425313, Note_on_c, 0, 62, 58
2, 425325, Note_on_c, 0, 53, 44
2, 425332, Note_on_c, 0, 57, 51
2, 425912, Note_on_c, 0, 40, 47
2, 425916, Note_on_c, 0, 53, 0
2, 425923, Note_on_c, 0, 62, 0
2, 425964, Note_on_c, 0, 57, 0
2, 426234, Note_on_c, 0, 40, 0
2, 426254, Note_on_c, 0, 63, 47
2, 426256, Note_on_c, 0, 58, 50
2, 426258, Note_on_c, 0, 41, 41
2, 426265, Note_on_c, 0, 60, 36
2, 426266, Note_on_c, 0, 55, 39
2, 426858, Note_on_c, 0, 55, 0
2, 426887, Note_on_c, 0, 60, 0
2, 426950, Note_on_c, 0, 58, 0
2, 426952, Note_on_c, 0, 39, 39
2, 426975, Note_on_c, 0, 63, 0
2, 427002, Note_on_c, 0, 39, 0
2, 427012, Note_on_c, 0, 41, 0
2, 427200, Note_on_c, 0, 63, 40
2, 427207, Note_on_c, 0, 65, 59
2, 427209, Note_on_c, 0, 57, 59
2, 427211, Note_on_c, 0, 60, 58
2, 427251, Note_on_c, 0, 55, 57
2, 427794, Note_on_c, 0, 55, 0
2, 428001, Note_on_c, 0, 48, 25
2, 428124, Note_on_c, 0, 48, 0
2, 428146, Note_on_c, 0, 57, 0
2, 428193, Note_on_c, 0, 41, 50
2, 428228, Note_on_c, 0, 60, 0
2, 428232, Note_on_c, 0, 65, 0
2, 428271, Note_on_c, 0, 63, 0
2, 428288, Control_c, 0, 64, 127
2, 428797, Note_on_c, 0, 72, 64
2, 428818, Note_on_c, 0, 66, 70
2, 428827, Note_on_c, 0, 63, 63
2, 428846, Note_on_c, 0, 69, 46
2, 428912, Note_on_c, 0, 41, 0
2, 428950, Control_c, 0, 64, 0
2, 429103, Note_on_c, 0, 57, 24
2, 429105, Control_c, 0, 64, 127
2, 429121, Note_on_c, 0, 72, 0
2, 429148, Note_on_c, 0, 63, 0
2, 429244, Note_on_c, 0, 66, 0
2, 429389, Note_on_c, 0, 66, 57
2, 429401, Note_on_c, 0, 74, 71
2, 429601, Note_on_c, 0, 74, 0
2, 429770, Note_on_c, 0, 57, 0
2, 429869, Note_on_c, 0, 66, 0
2, 429925, Control_c, 0, 64, 0
2, 430006, Note_on_c, 0, 62, 49
2, 430007, Note_on_c, 0, 65, 52
2, 430013, Note_on_c, 0, 46, 39
2, 430030, Note_on_c, 0, 57, 35
2, 430448, Note_on_c, 0, 57, 0
2, 430570, Note_on_c, 0, 69, 0
2, 430623, Note_on_c, 0, 65, 0
2, 430662, Note_on_c, 0, 56, 68
2, 430728, Note_on_c, 0, 62, 0
2, 430872, Note_on_c, 0, 56, 0
2, 430932, Note_on_c, 0, 55, 50
2, 431081, Note_on_c, 0, 55, 0
2, 431091, Note_on_c, 0, 63, 23
2, 431094, Note_on_c, 0, 54, 45
2, 431147, Note_on_c, 0, 63, 0
2, 431210, Note_on_c, 0, 62, 53
2, 431211, Note_on_c, 0, 60, 53
2, 431218, Note_on_c, 0, 65, 38
2, 431221, Note_on_c, 0, 57, 53
2, 431237, Note_on_c, 0, 53, 48
2, 431244, Note_on_c, 0, 54, 0
2, 431861, Note_on_c, 0, 62, 0
2, 431862, Note_on_c, 0, 57, 0
2, 431907, Note_on_c, 0, 60, 0
2, 431945, Note_on_c, 0, 53, 0
2, 432002, Note_on_c, 0, 65, 0
2, 432064, Note_on_c, 0, 65, 34
2, 432075, Note_on_c, 0, 60, 34
2, 432077, Note_on_c, 0, 57, 43
2, 432086, Note_on_c, 0, 62, 44
2, 432093, Note_on_c, 0, 53, 27
2, 432150, Note_on_c, 0, 46, 0
2, 432275, Note_on_c, 0, 53, 0
2, 432707, Note_on_c, 0, 41, 54
2, 432743, Note_on_c, 0, 57, 0
2, 432807, Note_on_c, 0, 60, 0
2, 432809, Note_on_c, 0, 62, 0
2, 432966, Note_on_c, 0, 65, 0
2, 433047, Note_on_c, 0, 60, 44
2, 433049, Note_on_c, 0, 57, 38
2, 433054, Note_on_c, 0, 62, 45
2, 433492, Note_on_c, 0, 57, 0
2, 433539, Note_on_c, 0, 62, 0
2, 433586, Note_on_c, 0, 60, 0
2, 433592, Note_on_c, 0, 34, 42
2, 433912, Note_on_c, 0, 46, 37
2, 433929, Note_on_c, 0, 61, 59
2, 433936, Note_on_c, 0, 41, 0
2, 433940, Note_on_c, 0, 58, 60
2, 433949, Note_on_c, 0, 53, 43
2, 434270, Note_on_c, 0, 46, 0
2, 434396, Note_on_c, 0, 34, 0
2, 434551, Note_on_c, 0, 40, 56
2, 434607, Note_on_c, 0, 53, 0
2, 434715, Note_on_c, 0, 61, 0
2, 434733, Note_on_c, 0, 58, 0
2, 434840, Note_on_c, 0, 40, 0
2, 434857, Note_on_c, 0, 61, 39
2, 434862, Note_on_c, 0, 41, 55
2, 434870, Note_on_c, 0, 58, 40
2, 434880, Note_on_c, 0, 53, 33
2, 435570, Note_on_c, 0, 53, 0
2, 435658, Note_on_c, 0, 58, 0
2, 435681, Note_on_c, 0, 61, 0
2, 435814, Note_on_c, 0, 41, 0
2, 435825, Note_on_c, 0, 39, 48
2, 435827, Note_on_c, 0, 61, 39
2, 435833, Note_on_c, 0, 58, 49
2, 436392, Note_on_c, 0, 61, 0
2, 436467, Note_on_c, 0, 62, 63
2, 436486, Note_on_c, 0, 53, 47
2, 436524, Note_on_c, 0, 39, 0
2, 436718, Note_on_c, 0, 53, 0
2, 436767, Note_on_c, 0, 62, 0
2, 436769, Note_on_c, 0, 39, 44
2, 436819, Note_on_c, 0, 63, 60
2, 437007, Note_on_c, 0, 39, 0
2, 437014, Note_on_c, 0, 63, 0
2, 437128, Note_on_c, 0, 58, 0
2, 437380, Note_on_c, 0, 58, 36
2, 437399, Note_on_c, 0, 46, 38
2, 437422, Note_on_c, 0, 53, 28
2, 437561, Note_on_c, 0, 53, 0
2, 437615, Note_on_c, 0, 46, 0
2, 437697, Note_on_c, 0, 58, 0
2, 437741, Note_on_c, 0, 45, 53
2, 437741, Note_on_c, 0, 60, 42
2, 437745, Note_on_c, 0, 55, 45
2, 437752, Note_on_c, 0, 57, 42
2, 438320, Note_on_c, 0, 45, 0
2, 438384, Note_on_c, 0, 36, 58
2, 438634, Note_on_c, 0, 36, 0
2, 438702, Note_on_c, 0, 40, 58
2, 439021, Note_on_c, 0, 55, 0
2, 439026, Note_on_c, 0, 57, 0
2, 439121, Note_on_c, 0, 60, 0
2, 439275, Note_on_c, 0, 40, 0
2, 439341, Note_on_c, 0, 37, 42
2, 439607, Note_on_c, 0, 37, 0
2, 439660, Note_on_c, 0, 38, 37
2, 439690, Note_on_c, 0, 54, 42
2, 439699, Note_on_c, 0, 58, 49
2, 439711, Note_on_c, 0, 60, 34
2, 440160, Note_on_c, 0, 54, 0
2, 440313, Note_on_c, 0, 26, 41
2, 440403, Note_on_c, 0, 38, 0
2, 440576, Note_on_c, 0, 26, 0
2, 440637, Note_on_c, 0, 32, 49
2, 440697, Note_on_c, 0, 60, 0
2, 440970, Note_on_c, 0, 58, 0
2, 441294, Note_on_c, 0, 65, 64
2, 441297, Note_on_c, 0, 62, 62
2, 441302, Note_on_c, 0, 58, 68
2, 441309, Note_on_c, 0, 57, 69
2, 441351, Note_on_c, 0, 32, 0
2, 441607, Note_on_c, 0, 31, 35
2, 441936, Note_on_c, 0, 31, 0
2, 441998, Note_on_c, 0, 38, 50
2, 442204, Note_on_c, 0, 38, 0
2, 442325, Note_on_c, 0, 34, 61
2, 442585, Note_on_c, 0, 34, 0
2, 442668, Note_on_c, 0, 35, 55
2, 443174, Note_on_c, 0, 57, 0
2, 443224, Note_on_c, 0, 62, 0
2, 443260, Note_on_c, 0, 58, 0
2, 443269, Note_on_c, 0, 65, 0
2, 443289, Note_on_c, 0, 36, 66
2, 443316, Note_on_c, 0, 35, 0
2, 443893, Note_on_c, 0, 64, 54
2, 443919, Note_on_c, 0, 56, 62
2, 443947, Note_on_c, 0, 61, 34
2, 444055, Note_on_c, 0, 56, 0
2, 444114, Note_on_c, 0, 61, 0
2, 444122, Note_on_c, 0, 64, 0
2, 444241, Note_on_c, 0, 34, 45
2, 444564, Note_on_c, 0, 76, 71
2, 444578, Note_on_c, 0, 68, 69
2, 444586, Note_on_c, 0, 64, 68
2, 444590, Note_on_c, 0, 73, 42
2, 444619, Note_on_c, 0, 65, 51
2, 444652, Note_on_c, 0, 34, 0
2, 444669, Note_on_c, 0, 65, 0
2, 444773, Note_on_c, 0, 64, 0
2, 444804, Note_on_c, 0, 76, 0
2, 444808, Note_on_c, 0, 73, 0
2, 444827, Note_on_c, 0, 68, 0
2, 444869, Note_on_c, 0, 36, 0
2, 444880, Note_on_c, 0, 34, 35
2, 445167, Note_on_c, 0, 34, 0
2, 445189, Note_on_c, 0, 62, 65
2, 445195, Note_on_c, 0, 72, 53
2, 445198, Note_on_c, 0, 67, 58
2, 445210, Note_on_c, 0, 41, 55
2, 445922, Note_on_c, 0, 67, 0
2, 445941, Note_on_c, 0, 72, 0
2, 446057, Note_on_c, 0, 62, 0
2, 446109, Note_on_c, 0, 29, 34
2, 446222, Note_on_c, 0, 41, 0
2, 446419, Note_on_c, 0, 60, 50
2, 446424, Note_on_c, 0, 64, 52
2, 446441, Note_on_c, 0, 40, 36
2, 446465, Note_on_c, 0, 29, 0
2, 446928, Note_on_c, 0, 60, 0
2, 446973, Note_on_c, 0, 64, 0
2, 447033, Note_on_c, 0, 65, 62
2, 447107, Note_on_c, 0, 36, 20
2, 447122, Note_on_c, 0, 40, 0
2, 447284, Note_on_c, 0, 36, 0
2, 447299, Note_on_c, 0, 41, 36
2, 447364, Note_on_c, 0, 65, 0
2, 447373, Note_on_c, 0, 60, 46
2, 448037, Note_on_c, 0, 38, 24
2, 448107, Note_on_c, 0, 41, 0
2, 448181, Note_on_c, 0, 38, 0
2, 448872, Note_on_c, 0, 33, 44
2, 448906, Note_on_c, 0, 62, 51
2, 448915, Note_on_c, 0, 60, 0
2, 449149, Note_on_c, 0, 33, 0
2, 449238, Note_on_c, 0, 64, 38
2, 449239, Note_on_c, 0, 35, 36
2, 450125, Note_on_c, 0, 35, 0
2, 450198, Note_on_c, 0, 39, 67
2, 450855, Note_on_c, 0, 64, 0
2, 450898, Note_on_c, 0, 35, 39
2, 450904, Note_on_c, 0, 39, 0
2, 450947, Note_on_c, 0, 62, 0
2, 451172, Note_on_c, 0, 35, 0
2, 451202, Note_on_c, 0, 57, 40
2, 451209, Note_on_c, 0, 62, 45
2, 451218, Note_on_c, 0, 64, 39
2, 451222, Note_on_c, 0, 40, 41
2, 451284, Note_on_c, 0, 57, 0
2, 451341, Note_on_c, 0, 62, 0
2, 451364, Note_on_c, 0, 64, 0
2, 451842, Note_on_c, 0, 76, 92
2, 452007, Note_on_c, 0, 76, 0
2, 452109, Note_on_c, 0, 28, 40
2, 452169, Note_on_c, 0, 68, 51
2, 452382, Note_on_c, 0, 68, 0
2, 452457, Note_on_c, 0, 64, 36
2, 452525, Note_on_c, 0, 64, 0
2, 452559, Note_on_c, 0, 28, 0
2, 452752, Note_on_c, 0, 32, 46
2, 452772, Note_on_c, 0, 74, 72
2, 452874, Note_on_c, 0, 40, 0
2, 453004, Note_on_c, 0, 74, 0
2, 453069, Note_on_c, 0, 71, 49
2, 453084, Note_on_c, 0, 32, 0
2, 453113, Note_on_c, 0, 33, 46
2, 453304, Note_on_c, 0, 71, 0
2, 453383, Note_on_c, 0, 72, 58
2, 453551, Note_on_c, 0, 33, 0
2, 453621, Note_on_c, 0, 72, 0
2, 453657, Note_on_c, 0, 29, 46
2, 453696, Note_on_c, 0, 69, 51
2, 453959, Note_on_c, 0, 69, 0
2, 454074, Note_on_c, 0, 64, 30
2, 454164, Note_on_c, 0, 64, 0
2, 454342, Note_on_c, 0, 60, 39
2, 454507, Note_on_c, 0, 60, 0
2, 454604, Note_on_c, 0, 36, 36
2, 454644, Note_on_c, 0, 57, 56
2, 454884, Note_on_c, 0, 29, 0
2, 455032, Note_on_c, 0, 36, 0
2, 455623, Note_on_c, 0, 45, 52
2, 456358, Note_on_c, 0, 55, 39
2, 456371, Note_on_c, 0, 57, 0
2, 456513, Note_on_c, 0, 55, 0
2, 456614, Note_on_c, 0, 45, 0
2, 456669, Note_on_c, 0, 43, 36
2, 456673, Note_on_c, 0, 57, 32
2, 456941, Note_on_c, 0, 57, 0
2, 456989, Note_on_c, 0, 43, 0
2, 456998, Note_on_c, 0, 58, 53
2, 457036, Note_on_c, 0, 48, 33
2, 457308, Note_on_c, 0, 55, 37
2, 457362, Note_on_c, 0, 58, 0
2, 457440, Note_on_c, 0, 55, 0
2, 457563, Note_on_c, 0, 57, 49
2, 457713, Note_on_c, 0, 57, 0
2, 457781, Note_on_c, 0, 58, 61
2, 457932, Note_on_c, 0, 36, 36
2, 457948, Note_on_c, 0, 58, 0
2, 458022, Note_on_c, 0, 60, 36
2, 458205, Note_on_c, 0, 60, 0
2, 458243, Note_on_c, 0, 62, 63
2, 458392, Note_on_c, 0, 62, 0
2, 458473, Note_on_c, 0, 62, 49
2, 458482, Note_on_c, 0, 63, 69
2, 458588, Note_on_c, 0, 62, 0
2, 458659, Note_on_c, 0, 36, 0
2, 458707, Note_on_c, 0, 63, 0
2, 458714, Note_on_c, 0, 65, 63
2, 458858, Note_on_c, 0, 48, 0
2, 458904, Note_on_c, 0, 41, 44
2, 458923, Note_on_c, 0, 65, 0
2, 459285, Note_on_c, 0, 59, 50
2, 459407, Note_on_c, 0, 59, 0
2, 459503, Note_on_c, 0, 60, 59
2, 459692, Note_on_c, 0, 60, 0
2, 459751, Note_on_c, 0, 62, 71
2, 459840, Note_on_c, 0, 53, 33
2, 459953, Note_on_c, 0, 62, 0
2, 459984, Note_on_c, 0, 63, 60
2, 460150, Note_on_c, 0, 63, 0
2, 460221, Note_on_c, 0, 65, 66
2, 460390, Note_on_c, 0, 65, 0
2, 460448, Note_on_c, 0, 67, 48
2, 460576, Note_on_c, 0, 41, 0
2, 460692, Note_on_c, 0, 69, 65
2, 460755, Note_on_c, 0, 67, 0
2, 460777, Note_on_c, 0, 46, 34
2, 460899, Note_on_c, 0, 69, 0
2, 460990, Note_on_c, 0, 53, 0
2, 460991, Note_on_c, 0, 72, 50
2, 461224, Note_on_c, 0, 72, 0
2, 461341, Note_on_c, 0, 69, 50
2, 461461, Note_on_c, 0, 69, 0
2, 461671, Note_on_c, 0, 66, 59
2, 461861, Note_on_c, 0, 66, 0
2, 461998, Note_on_c, 0, 62, 57
2, 462015, Note_on_c, 0, 69, 30
2, 462138, Note_on_c, 0, 62, 0
2, 462178, Note_on_c, 0, 69, 0
2, 462260, Note_on_c, 0, 66, 47
2, 462303, Note_on_c, 0, 57, 50
2, 462309, Note_on_c, 0, 66, 0
2, 462448, Note_on_c, 0, 57, 0
2, 462554, Note_on_c, 0, 66, 55
2, 462593, Note_on_c, 0, 62, 37
2, 462637, Note_on_c, 0, 65, 62
2, 462655, Note_on_c, 0, 66, 0
2, 462833, Note_on_c, 0, 55, 48
2, 462993, Note_on_c, 0, 55, 0
2, 463481, Note_on_c, 0, 53, 62
2, 463661, Note_on_c, 0, 62, 0
2, 463793, Note_on_c, 0, 62, 43
2, 463794, Note_on_c, 0, 58, 37
2, 464081, Note_on_c, 0, 46, 0
2, 464366, Note_on_c, 0, 62, 0
2, 464374, Note_on_c, 0, 46, 46
2, 464381, Note_on_c, 0, 58, 0
2, 464626, Note_on_c, 0, 46, 0
2, 464628, Note_on_c, 0, 53, 0
2, 464703, Note_on_c, 0, 56, 48
2, 464709, Note_on_c, 0, 61, 50
2, 464716, Note_on_c, 0, 46, 43
2, 464813, Note_on_c, 0, 56, 0
2, 464845, Note_on_c, 0, 53, 16
2, 464892, Note_on_c, 0, 65, 0
2, 464939, Note_on_c, 0, 61, 0
2, 465291, Note_on_c, 0, 53, 0
2, 465298, Note_on_c, 0, 57, 53
2, 465300, Note_on_c, 0, 65, 58
2, 465301, Note_on_c, 0, 61, 60
2, 465303, Note_on_c, 0, 72, 60
2, 465558, Note_on_c, 0, 61, 0
2, 465607, Note_on_c, 0, 72, 0
2, 465624, Note_on_c, 0, 57, 0
2, 465653, Note_on_c, 0, 61, 25
2, 465686, Note_on_c, 0, 53, 33
2, 465689, Note_on_c, 0, 70, 53
2, 466273, Note_on_c, 0, 61, 0
2, 466363, Note_on_c, 0, 65, 0
2, 466518, Note_on_c, 0, 70, 0
2, 466566, Note_on_c, 0, 61, 38
2, 466583, Note_on_c, 0, 65, 40
2, 466597, Note_on_c, 0, 67, 40
2, 466608, Note_on_c, 0, 53, 0
2, 466679, Note_on_c, 0, 46, 0
2, 467078, Note_on_c, 0, 67, 0
2, 467098, Note_on_c, 0, 65, 0
2, 467165, Note_on_c, 0, 61, 0
2, 467190, Note_on_c, 0, 27, 50
2, 467544, Note_on_c, 0, 61, 40
2, 467556, Note_on_c, 0, 58, 46
2, 467563, Note_on_c, 0, 63, 37
2, 467564, Note_on_c, 0, 39, 32
2, 467584, Note_on_c, 0, 55, 25
2, 467664, Note_on_c, 0, 27, 0
2, 467753, Note_on_c, 0, 39, 0
2, 468303, Note_on_c, 0, 55, 0
2, 468377, Note_on_c, 0, 58, 0
2, 468387, Note_on_c, 0, 61, 0
2, 468405, Note_on_c, 0, 63, 0
2, 468475, Note_on_c, 0, 55, 45
2, 468484, Note_on_c, 0, 60, 37
2, 468491, Note_on_c, 0, 57, 37
2, 469082, Note_on_c, 0, 48, 70
2, 469408, Note_on_c, 0, 48, 0
2, 469431, Note_on_c, 0, 50, 58
2, 469723, Note_on_c, 0, 50, 0
2, 469755, Note_on_c, 0, 48, 36
2, 469757, Note_on_c, 0, 55, 0
2, 469793, Note_on_c, 0, 57, 0
2, 469809, Note_on_c, 0, 60, 0
2, 470058, Note_on_c, 0, 55, 50
2, 470073, Note_on_c, 0, 60, 48
2, 470082, Note_on_c, 0, 57, 44
2, 470084, Note_on_c, 0, 50, 49
2, 470091, Note_on_c, 0, 48, 0
2, 470400, Note_on_c, 0, 50, 0
2, 470431, Note_on_c, 0, 48, 41
2, 470734, Note_on_c, 0, 48, 0
2, 470752, Note_on_c, 0, 50, 64
2, 471089, Note_on_c, 0, 48, 44
2, 471092, Note_on_c, 0, 55, 0
2, 471115, Note_on_c, 0, 60, 0
2, 471128, Note_on_c, 0, 57, 0
2, 471171, Note_on_c, 0, 50, 0
2, 471408, Note_on_c, 0, 50, 36
2, 471412, Note_on_c, 0, 55, 45
2, 471413, Note_on_c, 0, 60, 45
2, 471429, Note_on_c, 0, 57, 36
2, 471433, Note_on_c, 0, 48, 0
2, 471731, Note_on_c, 0, 57, 0
2, 471784, Note_on_c, 0, 48, 53
2, 471803, Note_on_c, 0, 50, 0
2, 471835, Note_on_c, 0, 55, 0
2, 472041, Note_on_c, 0, 60, 0
2, 472095, Note_on_c, 0, 63, 51
2, 472096, Note_on_c, 0, 58, 56
2, 472103, Note_on_c, 0, 55, 51
2, 472116, Note_on_c, 0, 50, 57
2, 472125, Note_on_c, 0, 48, 0
2, 472451, Note_on_c, 0, 48, 44
2, 472474, Note_on_c, 0, 50, 0
2, 472580, Note_on_c, 0, 55, 0
2, 472630, Note_on_c, 0, 63, 0
2, 472708, Note_on_c, 0, 58, 0
2, 472779, Note_on_c, 0, 63, 49
2, 472783, Note_on_c, 0, 50, 55
2, 472788, Note_on_c, 0, 58, 37
2, 472800, Note_on_c, 0, 48, 0
2, 472804, Note_on_c, 0, 55, 38
2, 473045, Note_on_c, 0, 50, 0
2, 473109, Note_on_c, 0, 48, 57
2, 473149, Note_on_c, 0, 55, 0
2, 473247, Note_on_c, 0, 58, 0
2, 473303, Note_on_c, 0, 63, 0
2, 473408, Note_on_c, 0, 48, 0
2, 473430, Note_on_c, 0, 63, 42
2, 473444, Note_on_c, 0, 58, 48
2, 473455, Note_on_c, 0, 51, 54
2, 473458, Note_on_c, 0, 55, 37
2, 473776, Note_on_c, 0, 48, 51
2, 473799, Note_on_c, 0, 51, 0
2, 473801, Note_on_c, 0, 55, 0
2, 473880, Note_on_c, 0, 58, 0
2, 473900, Note_on_c, 0, 63, 0
2, 474081, Note_on_c, 0, 63, 49
2, 474083, Note_on_c, 0, 58, 56
2, 474090, Note_on_c, 0, 53, 48
2, 474110, Note_on_c, 0, 55, 37
2, 474118, Note_on_c, 0, 48, 0
2, 474231, Note_on_c, 0, 55, 0
2, 474420, Note_on_c, 0, 41, 37
2, 474443, Note_on_c, 0, 53, 0
2, 474510, Note_on_c, 0, 63, 0
2, 474517, Note_on_c, 0, 58, 0
2, 474684, Note_on_c, 0, 63, 47
2, 474697, Note_on_c, 0, 58, 59
2, 474714, Note_on_c, 0, 55, 38
2, 474961, Note_on_c, 0, 55, 0
2, 474986, Note_on_c, 0, 48, 38
2, 475046, Note_on_c, 0, 63, 0
2, 475073, Note_on_c, 0, 58, 0
2, 475265, Note_on_c, 0, 58, 63
2, 475265, Note_on_c, 0, 53, 36
2, 475266, Note_on_c, 0, 65, 58
2, 475300, Note_on_c, 0, 55, 49
2, 475470, Note_on_c, 0, 41, 0
2, 475483, Note_on_c, 0, 48, 0
2, 475533, Note_on_c, 0, 55, 0
2, 475721, Note_on_c, 0, 65, 0
2, 475728, Note_on_c, 0, 58, 0
2, 475803, Note_on_c, 0, 41, 48
2, 475935, Note_on_c, 0, 41, 0
2, 475962, Note_on_c, 0, 53, 0
2, 476141, Note_on_c, 0, 69, 62
2, 476145, Note_on_c, 0, 62, 66
2, 476148, Note_on_c, 0, 46, 62
2, 476152, Note_on_c, 0, 53, 37
2, 476153, Note_on_c, 0, 57, 62
2, 476157, Note_on_c, 0, 65, 51
2, 476501, Note_on_c, 0, 57, 0
2, 476626, Note_on_c, 0, 62, 0
2, 476654, Control_c, 0, 64, 127
2, 476687, Note_on_c, 0, 69, 0
2, 476688, Note_on_c, 0, 65, 0
2, 477082, Note_on_c, 0, 57, 51
2, 477089, Note_on_c, 0, 70, 67
2, 477095, Note_on_c, 0, 65, 57
2, 477096, Note_on_c, 0, 62, 58
2, 477124, Note_on_c, 0, 67, 36
2, 477241, Note_on_c, 0, 57, 0
2, 477292, Note_on_c, 0, 53, 0
2, 477381, Note_on_c, 0, 67, 0
2, 477419, Note_on_c, 0, 70, 0
2, 477428, Note_on_c, 0, 65, 0
2, 477505, Note_on_c, 0, 62, 0
2, 477792, Note_on_c, 0, 51, 43
2, 477931, Note_on_c, 0, 52, 37
2, 477980, Note_on_c, 0, 58, 61
2, 477993, Note_on_c, 0, 51, 0
2, 478001, Note_on_c, 0, 53, 58
2, 478002, Note_on_c, 0, 65, 51
2, 478009, Note_on_c, 0, 62, 56
2, 478046, Note_on_c, 0, 52, 0
2, 478085, Control_c, 0, 64, 0
2, 478160, Note_on_c, 0, 46, 0
2, 478343, Note_on_c, 0, 52, 47
2, 478357, Note_on_c, 0, 53, 0
2, 478435, Note_on_c, 0, 62, 0
2, 478465, Note_on_c, 0, 51, 62
2, 478477, Note_on_c, 0, 58, 0
2, 478480, Note_on_c, 0, 52, 0
2, 478497, Note_on_c, 0, 65, 0
2, 478571, Note_on_c, 0, 58, 52
2, 478578, Note_on_c, 0, 62, 55
2, 478585, Note_on_c, 0, 55, 53
2, 478596, Note_on_c, 0, 51, 0
2, 478632, Note_on_c, 0, 50, 46
2, 479296, Note_on_c, 0, 55, 0
2, 479340, Note_on_c, 0, 58, 0
2, 479371, Note_on_c, 0, 62, 0
2, 479421, Note_on_c, 0, 58, 54
2, 479423, Note_on_c, 0, 62, 41
2, 479462, Note_on_c, 0, 67, 54
2, 479464, Note_on_c, 0, 53, 43
2, 479489, Control_c, 0, 64, 127
2, 479526, Note_on_c, 0, 50, 0
2, 479594, Note_on_c, 0, 53, 0
2, 479618, Note_on_c, 0, 62, 0
2, 479634, Note_on_c, 0, 58, 0
2, 479671, Note_on_c, 0, 67, 0
2, 480388, Note_on_c, 0, 69, 51
2, 480397, Note_on_c, 0, 47, 30
2, 480399, Note_on_c, 0, 66, 57
2, 480400, Note_on_c, 0, 40, 35
2, 480415, Note_on_c, 0, 62, 52
2, 480435, Note_on_c, 0, 57, 40
2, 480439, Note_on_c, 0, 55, 34
2, 480449, Note_on_c, 0, 59, 36
2, 480462, Control_c, 0, 64, 0
2, 480506, Note_on_c, 0, 59, 0
2, 480815, Note_on_c, 0, 69, 0
2, 480839, Control_c, 0, 64, 127
2, 480942, Note_on_c, 0, 69, 53
2, 481259, Note_on_c, 0, 57, 0
2, 481378, Note_on_c, 0, 69, 0
2, 481455, Note_on_c, 0, 69, 32
2, 481521, Note_on_c, 0, 40, 0
2, 481543, Note_on_c, 0, 47, 0
2, 481640, Note_on_c, 0, 62, 0
2, 481682, Note_on_c, 0, 55, 0
2, 481739, Note_on_c, 0, 66, 0
2, 481743, Note_on_c, 0, 69, 0
2, 481937, Note_on_c, 0, 45, 45
2, 481945, Note_on_c, 0, 65, 55
2, 481951, Note_on_c, 0, 61, 58
2, 481974, Note_on_c, 0, 58, 39
2, 481987, Note_on_c, 0, 55, 30
2, 481995, Control_c, 0, 64, 0
2, 482280, Control_c, 0, 64, 127
2, 482619, Note_on_c, 0, 65, 0
2, 482660, Note_on_c, 0, 58, 0
2, 482699, Note_on_c, 0, 55, 0
2, 482764, Note_on_c, 0, 61, 0
2, 482927, Note_on_c, 0, 61, 34
2, 482937, Note_on_c, 0, 58, 44
2, 482944, Note_on_c, 0, 64, 41
2, 482953, Note_on_c, 0, 55, 30
2, 482958, Control_c, 0, 64, 0
2, 483112, Control_c, 0, 64, 127
2, 483235, Note_on_c, 0, 55, 0
2, 483311, Note_on_c, 0, 45, 0
2, 483426, Note_on_c, 0, 58, 0
2, 483482, Note_on_c, 0, 64, 0
2, 483618, Note_on_c, 0, 61, 0
2, 483886, Note_on_c, 0, 61, 46
2, 483893, Control_c, 0, 64, 0
2, 483908, Note_on_c, 0, 57, 40
2, 483924, Note_on_c, 0, 38, 33
2, 483925, Note_on_c, 0, 45, 38
2, 484114, Control_c, 0, 64, 127
2, 484158, Note_on_c, 0, 57, 0
2, 484191, Note_on_c, 0, 38, 0
2, 484192, Note_on_c, 0, 45, 0
2, 484274, Note_on_c, 0, 61, 0
2, 484805, Note_on_c, 0, 69, 74
2, 484811, Note_on_c, 0, 76, 68
2, 484820, Note_on_c, 0, 64, 31
2, 484826, Note_on_c, 0, 54, 31
2, 484844, Note_on_c, 0, 61, 34
2, 485015, Note_on_c, 0, 76, 0
2, 485052, Note_on_c, 0, 73, 47
2, 485081, Note_on_c, 0, 69, 0
2, 485151, Note_on_c, 0, 73, 0
2, 485344, Note_on_c, 0, 88, 78
2, 485348, Note_on_c, 0, 64, 0
2, 485353, Note_on_c, 0, 81, 77
2, 485478, Note_on_c, 0, 61, 0
2, 485700, Note_on_c, 0, 81, 0
2, 485733, Note_on_c, 0, 88, 0
2, 485777, Control_c, 0, 64, 0
2, 485802, Note_on_c, 0, 85, 49
2, 485812, Note_on_c, 0, 64, 29
2, 485839, Note_on_c, 0, 61, 28
2, 485850, Note_on_c, 0, 76, 42
2, 485896, Note_on_c, 0, 85, 0
2, 485913, Note_on_c, 0, 76, 0
2, 485974, Note_on_c, 0, 64, 0
2, 486012, Note_on_c, 0, 61, 0
2, 486234, Note_on_c, 0, 76, 54
2, 486249, Note_on_c, 0, 69, 53
2, 486398, Note_on_c, 0, 69, 0
2, 486417, Note_on_c, 0, 76, 0
2, 486745, Note_on_c, 0, 61, 23
2, 486748, Note_on_c, 0, 73, 37
2, 486754, Note_on_c, 0, 64, 36
2, 486779, Note_on_c, 0, 69, 34
2, 487055, Note_on_c, 0, 54, 0
2, 487060, Note_on_c, 0, 64, 0
2, 487188, Note_on_c, 0, 69, 0
2, 487225, Note_on_c, 0, 54, 35
2, 487235, Note_on_c, 0, 64, 48
2, 487287, Note_on_c, 0, 73, 0
2, 487318, Note_on_c, 0, 64, 0
2, 487328, Note_on_c, 0, 61, 0
2, 487389, Note_on_c, 0, 54, 0
2, 487733, Note_on_c, 0, 40, 49
2, 487883, Note_on_c, 0, 40, 0
2, 488181, Note_on_c, 0, 71, 50
2, 488195, Note_on_c, 0, 60, 40
2, 488202, Note_on_c, 0, 64, 47
2, 488250, Note_on_c, 0, 68, 23
2, 488252, Note_on_c, 0, 60, 0
2, 488292, Note_on_c, 0, 64, 0
2, 488360, Note_on_c, 0, 68, 0
2, 488370, Note_on_c, 0, 71, 0
2, 488677, Note_on_c, 0, 57, 51
2, 488836, Note_on_c, 0, 57, 0
2, 489162, Note_on_c, 0, 81, 68
2, 489306, Note_on_c, 0, 81, 0
2, 489617, Note_on_c, 0, 84, 64
2, 489626, Note_on_c, 0, 61, 40
2, 489629, Note_on_c, 0, 66, 33
2, 489636, Note_on_c, 0, 77, 58
2, 489655, Note_on_c, 0, 55, 24
2, 489785, Note_on_c, 0, 77, 0
2, 489805, Note_on_c, 0, 55, 0
2, 489813, Note_on_c, 0, 66, 0
2, 489818, Note_on_c, 0, 84, 0
2, 489876, Note_on_c, 0, 61, 0
2, 490113, Note_on_c, 0, 84, 67
2, 490126, Note_on_c, 0, 61, 47
2, 490130, Note_on_c, 0, 77, 64
2, 490134, Note_on_c, 0, 66, 43
2, 490146, Note_on_c, 0, 55, 42
2, 490322, Note_on_c, 0, 55, 0
2, 490326, Note_on_c, 0, 77, 0
2, 490335, Note_on_c, 0, 84, 0
2, 490353, Note_on_c, 0, 66, 0
2, 490393, Note_on_c, 0, 61, 0
2, 490614, Note_on_c, 0, 66, 55
2, 490615, Note_on_c, 0, 61, 58
2, 490621, Note_on_c, 0, 84, 78
2, 490638, Note_on_c, 0, 77, 76
2, 490641, Note_on_c, 0, 55, 44
2, 491049, Note_on_c, 0, 81, 56
2, 491067, Note_on_c, 0, 84, 0
2, 491085, Note_on_c, 0, 77, 0
2, 491159, Note_on_c, 0, 81, 0
2, 491173, Note_on_c, 0, 55, 0
2, 491185, Note_on_c, 0, 66, 0
2, 491249, Note_on_c, 0, 61, 0
2, 492077, Note_on_c, 0, 61, 57
2, 492081, Note_on_c, 0, 64, 64
2, 492083, Note_on_c, 0, 54, 65
2, 492083, Note_on_c, 0, 85, 74
2, 492094, Note_on_c, 0, 73, 71
2, 492104, Note_on_c, 0, 78, 60
2, 492114, Note_on_c, 0, 59, 49
2, 492121, Note_on_c, 0, 81, 49
2, 492256, Note_on_c, 0, 73, 0
2, 492297, Note_on_c, 0, 78, 0
2, 492318, Note_on_c, 0, 81, 0
2, 492330, Note_on_c, 0, 64, 0
2, 492344, Note_on_c, 0, 59, 0
2, 492345, Note_on_c, 0, 85, 0
2, 492354, Note_on_c, 0, 54, 0
2, 492375, Note_on_c, 0, 61, 0
2, 492564, Note_on_c, 0, 85, 74
2, 492572, Note_on_c, 0, 61, 46
2, 492580, Note_on_c, 0, 54, 52
2, 492581, Note_on_c, 0, 64, 54
2, 492584, Note_on_c, 0, 73, 57
2, 492585, Note_on_c, 0, 78, 59
2, 492604, Note_on_c, 0, 59, 54
2, 492786, Note_on_c, 0, 73, 0
2, 492803, Note_on_c, 0, 64, 0
2, 492841, Note_on_c, 0, 78, 0
2, 492857, Note_on_c, 0, 59, 0
2, 492883, Note_on_c, 0, 61, 0
2, 492888, Note_on_c, 0, 85, 0
2, 492915, Note_on_c, 0, 73, 31
2, 492917, Note_on_c, 0, 78, 30
2, 492935, Note_on_c, 0, 81, 48
2, 492936, Note_on_c, 0, 64, 41
2, 492955, Note_on_c, 0, 61, 20
2, 492962, Note_on_c, 0, 73, 0
2, 492997, Note_on_c, 0, 64, 0
2, 493009, Note_on_c, 0, 81, 0
2, 493010, Note_on_c, 0, 78, 0
2, 493046, Note_on_c, 0, 54, 0
2, 493085, Note_on_c, 0, 61, 0
2, 493987, Note_on_c, 0, 61, 64
2, 493997, Note_on_c, 0, 64, 66
2, 494001, Note_on_c, 0, 76, 83
2, 494004, Note_on_c, 0, 54, 60
2, 494007, Note_on_c, 0, 88, 68
2, 494008, Note_on_c, 0, 80, 50
2, 494009, Note_on_c, 0, 86, 64
2, 494018, Note_on_c, 0, 59, 54
2, 494159, Note_on_c, 0, 86, 0
2, 494159, Note_on_c, 0, 88, 0
2, 494171, Note_on_c, 0, 76, 0
2, 494193, Note_on_c, 0, 80, 0
2, 494213, Note_on_c, 0, 64, 0
2, 494239, Note_on_c, 0, 54, 0
2, 494248, Note_on_c, 0, 59, 0
2, 494286, Note_on_c, 0, 61, 0
2, 494468, Note_on_c, 0, 88, 75
2, 494477, Note_on_c, 0, 76, 79
2, 494482, Note_on_c, 0, 61, 55
2, 494486, Note_on_c, 0, 54, 59
2, 494491, Note_on_c, 0, 64, 58
2, 494511, Note_on_c, 0, 59, 54
2, 494686, Note_on_c, 0, 64, 0
2, 494705, Note_on_c, 0, 76, 0
2, 494739, Note_on_c, 0, 61, 0
2, 494749, Note_on_c, 0, 59, 0
2, 494760, Note_on_c, 0, 88, 0
2, 494815, Note_on_c, 0, 85, 48
2, 494817, Note_on_c, 0, 76, 47
2, 494830, Note_on_c, 0, 64, 34
2, 494839, Note_on_c, 0, 61, 26
2, 494876, Note_on_c, 0, 76, 0
2, 494944, Note_on_c, 0, 85, 0
2, 494986, Note_on_c, 0, 64, 0
2, 495006, Note_on_c, 0, 54, 0
2, 495019, Note_on_c, 0, 61, 0
2, 495463, Note_on_c, 0, 89, 79
2, 495465, Note_on_c, 0, 60, 66
2, 495476, Note_on_c, 0, 77, 76
2, 495480, Note_on_c, 0, 81, 64
2, 495481, Note_on_c, 0, 64, 72
2, 495488, Note_on_c, 0, 53, 61
2, 495489, Note_on_c, 0, 57, 56
2, 495503, Note_on_c, 0, 84, 43
2, 495512, Note_on_c, 0, 79, 42
2, 495568, Note_on_c, 0, 79, 0
2, 495687, Note_on_c, 0, 77, 0
2, 495703, Note_on_c, 0, 81, 0
2, 495724, Note_on_c, 0, 64, 0
2, 495725, Note_on_c, 0, 84, 0
2, 495746, Note_on_c, 0, 89, 0
2, 495747, Note_on_c, 0, 57, 0
2, 495751, Note_on_c, 0, 53, 0
2, 495785, Note_on_c, 0, 60, 0
2, 495939, Note_on_c, 0, 89, 68
2, 495945, Note_on_c, 0, 60, 54
2, 495952, Note_on_c, 0, 81, 66
2, 495954, Note_on_c, 0, 53, 50
2, 495956, Note_on_c, 0, 64, 61
2, 495958, Note_on_c, 0, 77, 64
2, 495973, Note_on_c, 0, 84, 36
2, 495974, Note_on_c, 0, 57, 50
2, 496142, Note_on_c, 0, 77, 0
2, 496153, Note_on_c, 0, 81, 0
2, 496170, Note_on_c, 0, 64, 0
2, 496171, Note_on_c, 0, 84, 0
2, 496193, Note_on_c, 0, 53, 0
2, 496210, Note_on_c, 0, 89, 0
2, 496220, Note_on_c, 0, 57, 0
2, 496238, Note_on_c, 0, 60, 0
2, 496413, Note_on_c, 0, 89, 57
2, 496417, Note_on_c, 0, 60, 44
2, 496427, Note_on_c, 0, 64, 53
2, 496433, Note_on_c, 0, 81, 58
2, 496443, Note_on_c, 0, 77, 54
2, 496446, Note_on_c, 0, 53, 32
2, 496447, Note_on_c, 0, 57, 44
2, 496461, Control_c, 0, 64, 127
2, 496469, Note_on_c, 0, 84, 30
2, 496558, Note_on_c, 0, 77, 0
2, 496567, Note_on_c, 0, 89, 0
2, 496571, Note_on_c, 0, 81, 0
2, 496573, Note_on_c, 0, 64, 0
2, 496610, Note_on_c, 0, 84, 0
2, 496627, Note_on_c, 0, 53, 0
2, 496650, Note_on_c, 0, 57, 0
2, 496659, Note_on_c, 0, 60, 0
2, 496720, Control_c, 0, 64, 0
2, 496768, Note_on_c, 0, 86, 36
2, 496770, Note_on_c, 0, 80, 34
2, 496771, Note_on_c, 0, 60, 41
2, 496779, Note_on_c, 0, 64, 41
2, 496790, Note_on_c, 0, 57, 40
2, 496825, Note_on_c, 0, 80, 0
2, 496836, Note_on_c, 0, 64, 0
2, 496868, Note_on_c, 0, 57, 0
2, 496889, Note_on_c, 0, 60, 0
2, 496920, Note_on_c, 0, 86, 0
2, 497399, Control_c, 0, 64, 127
2, 497415, Note_on_c, 0, 91, 75
2, 497416, Note_on_c, 0, 64, 80
2, 497416, Note_on_c, 0, 53, 72
2, 497419, Note_on_c, 0, 86, 78
2, 497420, Note_on_c, 0, 59, 73
2, 497429, Note_on_c, 0, 79, 74
2, 497559, Control_c, 0, 64, 0
2, 497611, Note_on_c, 0, 79, 0
2, 497624, Note_on_c, 0, 86, 0
2, 497646, Note_on_c, 0, 53, 0
2, 497647, Note_on_c, 0, 91, 0
2, 497650, Note_on_c, 0, 64, 0
2, 497681, Note_on_c, 0, 59, 0
2, 497884, Note_on_c, 0, 64, 75
2, 497889, Note_on_c, 0, 91, 73
2, 497895, Note_on_c, 0, 53, 66
2, 497896, Note_on_c, 0, 79, 69
2, 497898, Note_on_c, 0, 86, 71
2, 497905, Note_on_c, 0, 59, 67
2, 498106, Note_on_c, 0, 79, 0
2, 498156, Note_on_c, 0, 86, 0
2, 498165, Note_on_c, 0, 91, 0
2, 498177, Note_on_c, 0, 53, 0
2, 498230, Note_on_c, 0, 64, 0
2, 498251, Note_on_c, 0, 59, 0
2, 498368, Note_on_c, 0, 91, 62
2, 498386, Note_on_c, 0, 53, 50
2, 498387, Note_on_c, 0, 64, 50
2, 498394, Note_on_c, 0, 86, 64
2, 498395, Note_on_c, 0, 59, 52
2, 498401, Note_on_c, 0, 79, 58
2, 498441, Control_c, 0, 64, 127
2, 498496, Note_on_c, 0, 91, 0
2, 498517, Note_on_c, 0, 86, 0
2, 498518, Note_on_c, 0, 79, 0
2, 498558, Note_on_c, 0, 53, 0
2, 498559, Note_on_c, 0, 64, 0
2, 498607, Note_on_c, 0, 59, 0
2, 498623, Control_c, 0, 64, 0
2, 498712, Note_on_c, 0, 64, 48
2, 498725, Note_on_c, 0, 59, 38
2, 498727, Note_on_c, 0, 53, 37
2, 498787, Note_on_c, 0, 64, 0
2, 498811, Note_on_c, 0, 59, 0
2, 498857, Note_on_c, 0, 53, 0
2, 499149, Note_on_c, 0, 91, 71
2, 499152, Note_on_c, 0, 86, 70
2, 499159, Note_on_c, 0, 59, 57
2, 499161, Note_on_c, 0, 79, 62
2, 499165, Note_on_c, 0, 62, 62
2, 499169, Note_on_c, 0, 52, 51
2, 499178, Note_on_c, 0, 55, 60
2, 499632, Note_on_c, 0, 62, 0
2, 499635, Note_on_c, 0, 79, 0
2, 499643, Note_on_c, 0, 52, 0
2, 499653, Note_on_c, 0, 91, 0
2, 499660, Note_on_c, 0, 59, 0
2, 499671, Note_on_c, 0, 55, 0
2, 499680, Note_on_c, 0, 86, 0
2, 499766, Note_on_c, 0, 91, 51
2, 499776, Note_on_c, 0, 86, 57
2, 499780, Note_on_c, 0, 52, 30
2, 499782, Note_on_c, 0, 62, 39
2, 499783, Note_on_c, 0, 59, 40
2, 499789, Note_on_c, 0, 55, 43
2, 499798, Note_on_c, 0, 79, 54
2, 499815, Control_c, 0, 64, 127
2, 499898, Note_on_c, 0, 91, 0
2, 499925, Note_on_c, 0, 86, 0
2, 499981, Note_on_c, 0, 79, 0
2, 500037, Note_on_c, 0, 62, 0
2, 500056, Note_on_c, 0, 52, 0
2, 500073, Note_on_c, 0, 55, 0
2, 500080, Note_on_c, 0, 59, 0
2, 500218, Note_on_c, 0, 88, 48
2, 500230, Note_on_c, 0, 83, 66
2, 500234, Note_on_c, 0, 62, 51
2, 500239, Note_on_c, 0, 76, 51
2, 500245, Note_on_c, 0, 52, 38
2, 500249, Note_on_c, 0, 59, 35
2, 500252, Note_on_c, 0, 55, 36
2, 500345, Note_on_c, 0, 88, 0
2, 500350, Note_on_c, 0, 83, 0
2, 500393, Note_on_c, 0, 76, 0
2, 500455, Note_on_c, 0, 62, 0
2, 500458, Note_on_c, 0, 59, 0
2, 500474, Note_on_c, 0, 55, 0
2, 500487, Note_on_c, 0, 52, 0
2, 500699, Note_on_c, 0, 83, 65
2, 500707, Note_on_c, 0, 76, 56
2, 500708, Note_on_c, 0, 62, 44
2, 500717, Note_on_c, 0, 71, 55
2, 500730, Note_on_c, 0, 52, 37
2, 500738, Note_on_c, 0, 79, 49
2, 500739, Note_on_c, 0, 59, 39
2, 500748, Note_on_c, 0, 55, 44
2, 500966, Note_on_c, 0, 62, 0
2, 500973, Note_on_c, 0, 83, 0
2, 500979, Note_on_c, 0, 55, 0
2, 500991, Note_on_c, 0, 52, 0
2, 501000, Note_on_c, 0, 59, 0
2, 501001, Note_on_c, 0, 71, 0
2, 501014, Control_c, 0, 64, 0
2, 501022, Note_on_c, 0, 76, 0
2, 501054, Note_on_c, 0, 79, 0
2, 501131, Note_on_c, 0, 83, 56
2, 501138, Note_on_c, 0, 76, 40
2, 501163, Note_on_c, 0, 71, 47
2, 501176, Note_on_c, 0, 62, 50
2, 501184, Note_on_c, 0, 52, 32
2, 501193, Note_on_c, 0, 59, 36
2, 501214, Note_on_c, 0, 55, 31
2, 501234, Control_c, 0, 64, 127
2, 501259, Note_on_c, 0, 83, 0
2, 501272, Note_on_c, 0, 76, 0
2, 501326, Note_on_c, 0, 71, 0
2, 501387, Note_on_c, 0, 62, 0
2, 501421, Note_on_c, 0, 55, 0
2, 501437, Note_on_c, 0, 59, 0
2, 501614, Note_on_c, 0, 79, 51
2, 501617, Note_on_c, 0, 62, 48
2, 501621, Note_on_c, 0, 67, 40
2, 501627, Note_on_c, 0, 59, 36
2, 501630, Note_on_c, 0, 74, 48
2, 501643, Note_on_c, 0, 55, 32
2, 501793, Note_on_c, 0, 62, 0
2, 501838, Note_on_c, 0, 59, 0
2, 501840, Note_on_c, 0, 74, 0
2, 501842, Note_on_c, 0, 55, 0
2, 501845, Note_on_c, 0, 67, 0
2, 501847, Note_on_c, 0, 79, 0
2, 501865, Note_on_c, 0, 52, 0
2, 502107, Note_on_c, 0, 62, 48
2, 502108, Note_on_c, 0, 79, 49
2, 502113, Note_on_c, 0, 52, 33
2, 502114, Note_on_c, 0, 59, 42
2, 502116, Note_on_c, 0, 67, 46
2, 502122, Note_on_c, 0, 74, 53
2, 502132, Note_on_c, 0, 55, 40
2, 502293, Note_on_c, 0, 74, 0
2, 502305, Note_on_c, 0, 79, 0
2, 502371, Note_on_c, 0, 67, 0
2, 502397, Note_on_c, 0, 62, 0
2, 502406, Note_on_c, 0, 55, 0
2, 502409, Note_on_c, 0, 52, 0
2, 502414, Note_on_c, 0, 59, 0
2, 502598, Note_on_c, 0, 77, 67
2, 502604, Note_on_c, 0, 70, 74
2, 502606, Note_on_c, 0, 67, 68
2, 502607, Note_on_c, 0, 74, 75
2, 502616, Control_c, 0, 64, 0
2, 502617, Note_on_c, 0, 65, 79
2, 502674, Note_on_c, 0, 76, 22
2, 502874, Control_c, 0, 64, 127
2, 502939, Note_on_c, 0, 77, 0
2, 502966, Note_on_c, 0, 67, 0
2, 502977, Note_on_c, 0, 76, 0
2, 502985, Note_on_c, 0, 70, 0
2, 503019, Note_on_c, 0, 65, 0
2, 503029, Note_on_c, 0, 74, 0
2, 503069, Note_on_c, 0, 77, 53
2, 503080, Note_on_c, 0, 70, 64
2, 503094, Note_on_c, 0, 67, 51
2, 503097, Note_on_c, 0, 65, 58
2, 503108, Control_c, 0, 64, 0
2, 503147, Control_c, 0, 64, 127
2, 503220, Note_on_c, 0, 77, 0
2, 503231, Note_on_c, 0, 70, 0
2, 503288, Note_on_c, 0, 67, 0
2, 503435, Note_on_c, 0, 65, 0
2, 503537, Control_c, 0, 64, 0
2, 503545, Note_on_c, 0, 65, 47
2, 503550, Note_on_c, 0, 74, 54
2, 503563, Note_on_c, 0, 67, 57
2, 503568, Note_on_c, 0, 62, 50
2, 503572, Note_on_c, 0, 70, 51
2, 503706, Control_c, 0, 64, 127
2, 503812, Note_on_c, 0, 67, 0
2, 503841, Note_on_c, 0, 65, 0
2, 503850, Note_on_c, 0, 62, 0
2, 503863, Note_on_c, 0, 74, 0
2, 503872, Note_on_c, 0, 70, 0
2, 504004, Note_on_c, 0, 74, 41
2, 504009, Note_on_c, 0, 62, 39
2, 504016, Note_on_c, 0, 65, 46
2, 504018, Note_on_c, 0, 67, 53
2, 504027, Note_on_c, 0, 70, 43
2, 504133, Note_on_c, 0, 65, 0
2, 504135, Note_on_c, 0, 74, 0
2, 504136, Note_on_c, 0, 67, 0
2, 504141, Note_on_c, 0, 70, 0
2, 504264, Note_on_c, 0, 62, 0
2, 504446, Control_c, 0, 64, 0
2, 504487, Note_on_c, 0, 70, 55
2, 504489, Note_on_c, 0, 64, 62
2, 504495, Note_on_c, 0, 61, 53
2, 504496, Note_on_c, 0, 66, 54
2, 504505, Note_on_c, 0, 72, 49
2, 504507, Note_on_c, 0, 68, 49
2, 504828, Note_on_c, 0, 64, 0
2, 504829, Note_on_c, 0, 66, 0
2, 504837, Note_on_c, 0, 61, 0
2, 504842, Note_on_c, 0, 68, 0
2, 504854, Note_on_c, 0, 72, 0
2, 504884, Note_on_c, 0, 70, 0
2, 504985, Note_on_c, 0, 64, 43
2, 504989, Note_on_c, 0, 72, 49
2, 504993, Note_on_c, 0, 60, 45
2, 504997, Note_on_c, 0, 70, 47
2, 505001, Note_on_c, 0, 66, 40
2, 505012, Note_on_c, 0, 68, 42
2, 505109, Control_c, 0, 64, 127
2, 505249, Note_on_c, 0, 64, 0
2, 505252, Note_on_c, 0, 66, 0
2, 505257, Note_on_c, 0, 68, 0
2, 505280, Note_on_c, 0, 60, 0
2, 505293, Note_on_c, 0, 70, 0
2, 505309, Note_on_c, 0, 72, 0
2, 505464, Note_on_c, 0, 64, 45
2, 505475, Note_on_c, 0, 72, 33
2, 505484, Note_on_c, 0, 66, 47
2, 505487, Note_on_c, 0, 70, 38
2, 505493, Note_on_c, 0, 60, 41
2, 505494, Note_on_c, 0, 68, 42
2, 505681, Note_on_c, 0, 64, 0
2, 505696, Note_on_c, 0, 66, 0
2, 505707, Note_on_c, 0, 60, 0
2, 505729, Note_on_c, 0, 72, 0
2, 505733, Note_on_c, 0, 68, 0
2, 505759, Control_c, 0, 64, 0
2, 505760, Note_on_c, 0, 70, 0
2, 505875, Control_c, 0, 64, 127
2, 505923, Note_on_c, 0, 64, 47
2, 505936, Note_on_c, 0, 66, 43
2, 505939, Note_on_c, 0, 72, 33
2, 505941, Note_on_c, 0, 60, 46
2, 505944, Note_on_c, 0, 70, 37
2, 505947, Note_on_c, 0, 68, 38
2, 506151, Note_on_c, 0, 64, 0
2, 506153, Note_on_c, 0, 60, 0
2, 506172, Note_on_c, 0, 68, 0
2, 506173, Note_on_c, 0, 66, 0
2, 506219, Note_on_c, 0, 72, 0
2, 506224, Note_on_c, 0, 70, 0
2, 506239, Control_c, 0, 64, 0
2, 506369, Control_c, 0, 64, 127
2, 506401, Note_on_c, 0, 66, 47
2, 506418, Note_on_c, 0, 70, 39
2, 506422, Note_on_c, 0, 72, 38
2, 506424, Note_on_c, 0, 64, 41
2, 506425, Note_on_c, 0, 60, 43
2, 506435, Note_on_c, 0, 68, 40
2, 506560, Note_on_c, 0, 64, 0
2, 506633, Note_on_c, 0, 60, 0
2, 506688, Note_on_c, 0, 68, 0
2, 506754, Note_on_c, 0, 72, 0
2, 506766, Note_on_c, 0, 66, 0
2, 506767, Note_on_c, 0, 70, 0
2, 506837, Control_c, 0, 64, 0
2, 506858, Note_on_c, 0, 72, 31
2, 506871, Note_on_c, 0, 64, 50
2, 506878, Note_on_c, 0, 57, 53
2, 506915, Note_on_c, 0, 69, 45
2, 507018, Control_c, 0, 64, 127
2, 507037, Note_on_c, 0, 64, 0
2, 507107, Note_on_c, 0, 72, 0
2, 507110, Note_on_c, 0, 69, 0
2, 507370, Control_c, 0, 64, 0
2, 507373, Note_on_c, 0, 76, 61
2, 507380, Note_on_c, 0, 67, 59
2, 507389, Note_on_c, 0, 72, 47
2, 507390, Note_on_c, 0, 69, 58
2, 507414, Note_on_c, 0, 60, 55
2, 507497, Note_on_c, 0, 57, 0
2, 507538, Control_c, 0, 64, 127
2, 507596, Note_on_c, 0, 69, 0
2, 507598, Note_on_c, 0, 67, 0
2, 507657, Note_on_c, 0, 72, 0
2, 507662, Note_on_c, 0, 76, 0
2, 507812, Control_c, 0, 64, 0
2, 507856, Note_on_c, 0, 60, 0
2, 507861, Note_on_c, 0, 69, 77
2, 507863, Note_on_c, 0, 77, 69
2, 507866, Note_on_c, 0, 72, 62
2, 507870, Note_on_c, 0, 64, 66
2, 507876, Note_on_c, 0, 74, 65
2, 508032, Control_c, 0, 64, 127
2, 508120, Note_on_c, 0, 74, 0
2, 508126, Note_on_c, 0, 77, 0
2, 508169, Note_on_c, 0, 72, 0
2, 508235, Note_on_c, 0, 64, 0
2, 508260, Note_on_c, 0, 69, 0
2, 508314, Note_on_c, 0, 53, 47
2, 508720, Control_c, 0, 64, 0
2, 508758, Note_on_c, 0, 64, 50
2, 508765, Note_on_c, 0, 67, 49
2, 508768, Note_on_c, 0, 62, 56
2, 508781, Note_on_c, 0, 72, 37
2, 508785, Note_on_c, 0, 69, 47
2, 509264, Note_on_c, 0, 60, 58
2, 509288, Note_on_c, 0, 62, 0
2, 509529, Note_on_c, 0, 64, 0
2, 509609, Note_on_c, 0, 72, 0
2, 509617, Note_on_c, 0, 67, 0
2, 509618, Note_on_c, 0, 69, 0
2, 509648, Note_on_c, 0, 53, 0
2, 509748, Note_on_c, 0, 65, 44
2, 509763, Note_on_c, 0, 53, 37
2, 509766, Note_on_c, 0, 69, 35
2, 509826, Control_c, 0, 64, 127
2, 509861, Note_on_c, 0, 60, 0
2, 509951, Note_on_c, 0, 53, 0
2, 510133, Note_on_c, 0, 65, 0
2, 510192, Note_on_c, 0, 69, 0
2, 510238, Note_on_c, 0, 40, 47
2, 510376, Note_on_c, 0, 40, 0
2, 510699, Note_on_c, 0, 76, 38
2, 510700, Note_on_c, 0, 69, 54
2, 510702, Note_on_c, 0, 65, 46
2, 510716, Note_on_c, 0, 71, 53
2, 510722, Control_c, 0, 64, 0
2, 510725, Note_on_c, 0, 64, 64
2, 511019, Control_c, 0, 64, 127
2, 511355, Note_on_c, 0, 65, 0
2, 511399, Note_on_c, 0, 69, 0
2, 511483, Note_on_c, 0, 64, 0
2, 511493, Note_on_c, 0, 71, 0
2, 511698, Note_on_c, 0, 65, 34
2, 511702, Note_on_c, 0, 69, 40
2, 511715, Note_on_c, 0, 64, 30
2, 511722, Note_on_c, 0, 71, 33
2, 512153, Note_on_c, 0, 69, 0
2, 512192, Note_on_c, 0, 65, 0
2, 512240, Note_on_c, 0, 71, 0
2, 512402, Note_on_c, 0, 64, 0
2, 512651, Note_on_c, 0, 65, 36
2, 512656, Note_on_c, 0, 68, 29
2, 512661, Note_on_c, 0, 64, 33
2, 512679, Note_on_c, 0, 70, 32
2, 512735, Control_c, 0, 64, 0
2, 512942, Control_c, 0, 64, 127
2, 513226, Note_on_c, 0, 65, 0
2, 513250, Note_on_c, 0, 64, 0
2, 513291, Note_on_c, 0, 68, 0
2, 513330, Note_on_c, 0, 70, 0
2, 513588, Note_on_c, 0, 70, 31
2, 513589, Note_on_c, 0, 64, 30
2, 513596, Note_on_c, 0, 68, 35
2, 513605, Note_on_c, 0, 65, 49
2, 513647, Note_on_c, 0, 64, 0
2, 513882, Note_on_c, 0, 65, 0
2, 513999, Note_on_c, 0, 68, 0
2, 514022, Note_on_c, 0, 70, 0
2, 514045, Note_on_c, 0, 76, 0
2, 514359, Note_on_c, 0, 76, 57
2, 514400, Note_on_c, 0, 73, 42
2, 514426, Note_on_c, 0, 74, 49
2, 514444, Note_on_c, 0, 73, 0
2, 514463, Note_on_c, 0, 72, 42
2, 514535, Note_on_c, 0, 69, 48
2, 514618, Control_c, 0, 64, 0
2, 514631, Note_on_c, 0, 67, 52
2, 514657, Note_on_c, 0, 41, 29
2, 514667, Note_on_c, 0, 48, 36
2, 514688, Note_on_c, 0, 57, 24
2, 514704, Note_on_c, 0, 74, 0
2, 514943, Control_c, 0, 64, 127
2, 514991, Note_on_c, 0, 41, 0
2, 515032, Note_on_c, 0, 48, 0
2, 515133, Note_on_c, 0, 57, 0
2, 515313, Note_on_c, 0, 67, 0
2, 515541, Note_on_c, 0, 64, 47
2, 515558, Note_on_c, 0, 60, 42
2, 515564, Note_on_c, 0, 53, 26
2, 515604, Note_on_c, 0, 69, 0
2, 515611, Note_on_c, 0, 57, 32
2, 515658, Note_on_c, 0, 72, 0
2, 515663, Note_on_c, 0, 76, 0
2, 515983, Note_on_c, 0, 64, 0
2, 516053, Note_on_c, 0, 77, 96
2, 516154, Note_on_c, 0, 53, 0
2, 516347, Note_on_c, 0, 77, 0
2, 516495, Note_on_c, 0, 72, 57
2, 516496, Note_on_c, 0, 67, 49
2, 516503, Note_on_c, 0, 69, 51
2, 516583, Note_on_c, 0, 57, 0
2, 516619, Control_c, 0, 64, 0
2, 516670, Note_on_c, 0, 60, 0
2, 516965, Note_on_c, 0, 64, 34
2, 517099, Control_c, 0, 64, 127
2, 517434, Note_on_c, 0, 62, 37
2, 517455, Note_on_c, 0, 64, 0
2, 517714, Note_on_c, 0, 62, 0
2, 517719, Note_on_c, 0, 67, 0
2, 517876, Note_on_c, 0, 72, 0
2, 517913, Note_on_c, 0, 74, 58
2, 517920, Note_on_c, 0, 69, 0
2, 518007, Note_on_c, 0, 74, 0
2, 518358, Control_c, 0, 64, 0
2, 518366, Note_on_c, 0, 60, 20
2, 518375, Note_on_c, 0, 63, 25
2, 518397, Note_on_c, 0, 55, 29
2, 518413, Note_on_c, 0, 84, 69
2, 518419, Note_on_c, 0, 57, 36
2, 518422, Note_on_c, 0, 72, 49
2, 518642, Note_on_c, 0, 84, 0
2, 518647, Note_on_c, 0, 72, 0
2, 518799, Note_on_c, 0, 55, 0
2, 518807, Note_on_c, 0, 60, 0
2, 518838, Note_on_c, 0, 63, 0
2, 518878, Note_on_c, 0, 81, 62
2, 518887, Note_on_c, 0, 57, 0
2, 519000, Note_on_c, 0, 81, 0
2, 519158, Note_on_c, 0, 75, 60
2, 519333, Note_on_c, 0, 75, 0
2, 519378, Note_on_c, 0, 72, 41
2, 519569, Note_on_c, 0, 72, 0
2, 519652, Note_on_c, 0, 69, 47
2, 519794, Note_on_c, 0, 69, 0
2, 519859, Note_on_c, 0, 65, 42
2, 520235, Note_on_c, 0, 65, 0
2, 520330, Note_on_c, 0, 66, 42
2, 520331, Note_on_c, 0, 38, 36
2, 520376, Note_on_c, 0, 50, 25
2, 520480, Note_on_c, 0, 50, 0
2, 520529, Note_on_c, 0, 38, 0
2, 520801, Note_on_c, 0, 62, 46
2, 520849, Note_on_c, 0, 66, 0
2, 520957, Note_on_c, 0, 62, 0
2, 521775, Note_on_c, 0, 56, 42
2, 521961, Note_on_c, 0, 56, 0
2, 522266, Note_on_c, 0, 84, 95
2, 522478, Note_on_c, 0, 84, 0
2, 522552, Note_on_c, 0, 82, 64
2, 522703, Note_on_c, 0, 82, 0
2, 522773, Note_on_c, 0, 81, 46
2, 523036, Note_on_c, 0, 81, 0
2, 523058, Note_on_c, 0, 78, 38
2, 523173, Note_on_c, 0, 78, 0
2, 523231, Note_on_c, 0, 60, 28
2, 523233, Note_on_c, 0, 65, 31
2, 523259, Note_on_c, 0, 81, 64
2, 523290, Note_on_c, 0, 62, 36
2, 523515, Note_on_c, 0, 81, 0
2, 523520, Note_on_c, 0, 65, 0
2, 523570, Note_on_c, 0, 77, 26
2, 523625, Note_on_c, 0, 77, 0
2, 523728, Note_on_c, 0, 79, 60
2, 523729, Note_on_c, 0, 53, 51
2, 523920, Note_on_c, 0, 79, 0
2, 524032, Note_on_c, 0, 74, 35
2, 524105, Note_on_c, 0, 74, 0
2, 524212, Note_on_c, 0, 77, 54
2, 524294, Note_on_c, 0, 60, 0
2, 524301, Note_on_c, 0, 62, 0
2, 524393, Note_on_c, 0, 77, 0
2, 524507, Note_on_c, 0, 69, 46
2, 524535, Note_on_c, 0, 65, 36
2, 524560, Note_on_c, 0, 62, 28
2, 525003, Note_on_c, 0, 69, 0
2, 525170, Note_on_c, 0, 69, 40
2, 525498, Note_on_c, 0, 69, 0
2, 525571, Note_on_c, 0, 53, 0
2, 525578, Note_on_c, 0, 65, 0
2, 525584, Note_on_c, 0, 62, 0
2, 525625, Note_on_c, 0, 69, 47
2, 525874, Note_on_c, 0, 69, 0
2, 526076, Note_on_c, 0, 61, 31
2, 526080, Note_on_c, 0, 56, 36
2, 526083, Note_on_c, 0, 65, 30
2, 526128, Note_on_c, 0, 69, 53
2, 526318, Note_on_c, 0, 70, 47
2, 526327, Note_on_c, 0, 69, 0
2, 526445, Note_on_c, 0, 70, 0
2, 526460, Note_on_c, 0, 71, 43
2, 526556, Note_on_c, 0, 71, 0
2, 526572, Note_on_c, 0, 72, 68
2, 526706, Note_on_c, 0, 65, 0
2, 526848, Note_on_c, 0, 61, 0
2, 526996, Note_on_c, 0, 72, 0
2, 527033, Note_on_c, 0, 69, 53
2, 527038, Note_on_c, 0, 65, 28
2, 527052, Note_on_c, 0, 61, 31
2, 527490, Note_on_c, 0, 69, 0
2, 527535, Note_on_c, 0, 70, 53
2, 527569, Note_on_c, 0, 65, 0
2, 527765, Note_on_c, 0, 56, 0
2, 527784, Note_on_c, 0, 61, 0
2, 527970, Note_on_c, 0, 61, 43
2, 528011, Note_on_c, 0, 55, 33
2, 528294, Note_on_c, 0, 70, 0
2, 528383, Note_on_c, 0, 61, 0
2, 528503, Note_on_c, 0, 70, 75
2, 528529, Note_on_c, 0, 61, 33
2, 528665, Note_on_c, 0, 70, 0
2, 528713, Note_on_c, 0, 61, 0
2, 528800, Note_on_c, 0, 70, 71
2, 528939, Note_on_c, 0, 70, 0
2, 528964, Note_on_c, 0, 61, 43
2, 528970, Note_on_c, 0, 65, 35
2, 529000, Note_on_c, 0, 72, 58
2, 529044, Note_on_c, 0, 65, 0
2, 529162, Note_on_c, 0, 61, 0
2, 529193, Note_on_c, 0, 72, 0
2, 529220, Note_on_c, 0, 55, 0
2, 529260, Note_on_c, 0, 72, 57
2, 529451, Note_on_c, 0, 72, 0
2, 529475, Note_on_c, 0, 70, 59
2, 529636, Note_on_c, 0, 70, 0
2, 529771, Note_on_c, 0, 70, 62
2, 529871, Note_on_c, 0, 70, 0
2, 529933, Note_on_c, 0, 45, 46
2, 529958, Note_on_c, 0, 69, 59
2, 530103, Note_on_c, 0, 45, 0
2, 530104, Note_on_c, 0, 69, 0
2, 530433, Note_on_c, 0, 64, 45
2, 530453, Note_on_c, 0, 60, 27
2, 530459, Note_on_c, 0, 59, 34
2, 530573, Note_on_c, 0, 60, 0
2, 530581, Note_on_c, 0, 64, 0
2, 530609, Note_on_c, 0, 59, 0
2, 530891, Note_on_c, 0, 60, 33
2, 530902, Note_on_c, 0, 64, 32
2, 530923, Note_on_c, 0, 59, 39
2, 531033, Note_on_c, 0, 60, 0
2, 531048, Note_on_c, 0, 64, 0
2, 531076, Note_on_c, 0, 59, 0
2, 531344, Note_on_c, 0, 57, 50
2, 531347, Note_on_c, 0, 60, 45
2, 531348, Note_on_c, 0, 64, 47
2, 531469, Note_on_c, 0, 59, 24
2, 531534, Note_on_c, 0, 64, 0
2, 531540, Note_on_c, 0, 60, 0
2, 531546, Note_on_c, 0, 57, 0
2, 531562, Note_on_c, 0, 59, 0
2, 532327, Note_on_c, 0, 60, 37
2, 532337, Note_on_c, 0, 64, 38
2, 532345, Note_on_c, 0, 59, 27
2, 532353, Note_on_c, 0, 57, 37
2, 532533, Note_on_c, 0, 57, 0
2, 532542, Note_on_c, 0, 59, 0
2, 532561, Note_on_c, 0, 64, 0
2, 532587, Note_on_c, 0, 60, 0
2, 532814, Note_on_c, 0, 60, 38
2, 532831, Note_on_c, 0, 64, 36
2, 532850, Note_on_c, 0, 59, 26
2, 532859, Note_on_c, 0, 57, 29
2, 532979, Note_on_c, 0, 59, 0
2, 532981, Note_on_c, 0, 57, 0
2, 533020, Note_on_c, 0, 64, 0
2, 533029, Note_on_c, 0, 60, 0
2, 533325, Note_on_c, 0, 60, 37
2, 533326, Note_on_c, 0, 64, 43
2, 533348, Note_on_c, 0, 59, 24
2, 533369, Note_on_c, 0, 57, 28
2, 533468, Note_on_c, 0, 59, 0
2, 533509, Note_on_c, 0, 57, 0
2, 533529, Note_on_c, 0, 60, 0
2, 533531, Note_on_c, 0, 64, 0
2, 534233, Note_on_c, 0, 64, 43
2, 534238, Note_on_c, 0, 60, 35
2, 534256, Note_on_c, 0, 57, 22
2, 534282, Note_on_c, 0, 54, 32
2, 534288, Note_on_c, 0, 50, 27
2, 534412, Note_on_c, 0, 64, 0
2, 534421, Note_on_c, 0, 60, 0
2, 534453, Note_on_c, 0, 57, 0
2, 534462, Note_on_c, 0, 54, 0
2, 534518, Note_on_c, 0, 50, 0
2, 534716, Note_on_c, 0, 60, 33
2, 534726, Note_on_c, 0, 64, 37
2, 534744, Note_on_c, 0, 57, 24
2, 534755, Note_on_c, 0, 50, 29
2, 534762, Note_on_c, 0, 54, 33
2, 534903, Note_on_c, 0, 64, 0
2, 534936, Note_on_c, 0, 57, 0
2, 534938, Note_on_c, 0, 60, 0
2, 534952, Note_on_c, 0, 54, 0
2, 534969, Note_on_c, 0, 50, 0
2, 535206, Note_on_c, 0, 64, 42
2, 535209, Note_on_c, 0, 60, 36
2, 535223, Note_on_c, 0, 57, 31
2, 535234, Note_on_c, 0, 50, 34
2, 535250, Note_on_c, 0, 54, 31
2, 535355, Note_on_c, 0, 60, 0
2, 535362, Note_on_c, 0, 57, 0
2, 535394, Note_on_c, 0, 50, 0
2, 535396, Note_on_c, 0, 64, 0
2, 535401, Note_on_c, 0, 54, 0
2, 535679, Note_on_c, 0, 57, 42
2, 535682, Note_on_c, 0, 66, 62
2, 535685, Note_on_c, 0, 69, 63
2, 535691, Note_on_c, 0, 60, 64
2, 535691, Note_on_c, 0, 50, 43
2, 535694, Note_on_c, 0, 54, 40
2, 536015, Note_on_c, 0, 57, 0
2, 536038, Note_on_c, 0, 60, 0
2, 536068, Note_on_c, 0, 50, 0
2, 536084, Note_on_c, 0, 69, 0
2, 536117, Note_on_c, 0, 66, 0
2, 536147, Note_on_c, 0, 67, 61
2, 536155, Note_on_c, 0, 57, 42
2, 536165, Note_on_c, 0, 60, 36
2, 536177, Note_on_c, 0, 50, 28
2, 536377, Control_c, 0, 64, 127
2, 536434, Note_on_c, 0, 57, 0
2, 536471, Note_on_c, 0, 50, 0
2, 536473, Note_on_c, 0, 60, 0
2, 536524, Note_on_c, 0, 67, 0
2, 536548, Note_on_c, 0, 54, 0
2, 536649, Note_on_c, 0, 67, 51
2, 536650, Control_c, 0, 64, 0
2, 536666, Note_on_c, 0, 54, 23
2, 536670, Note_on_c, 0, 57, 37
2, 536673, Note_on_c, 0, 60, 43
2, 536676, Control_c, 0, 64, 127
2, 536718, Note_on_c, 0, 50, 27
2, 536797, Note_on_c, 0, 57, 0
2, 536838, Note_on_c, 0, 50, 0
2, 536869, Note_on_c, 0, 60, 0
2, 536909, Note_on_c, 0, 54, 0
2, 536978, Note_on_c, 0, 67, 0
2, 537104, Control_c, 0, 64, 0
2, 537220, Control_c, 0, 64, 127
2, 537632, Note_on_c, 0, 65, 54
2, 537642, Note_on_c, 0, 58, 49
2, 537649, Control_c, 0, 64, 0
2, 537655, Note_on_c, 0, 62, 48
2, 537661, Note_on_c, 0, 53, 33
2, 537662, Note_on_c, 0, 43, 34
2, 537949, Control_c, 0, 64, 127
2, 538239, Note_on_c, 0, 53, 0
2, 538834, Note_on_c, 0, 58, 0
2, 538835, Note_on_c, 0, 43, 0
2, 538878, Note_on_c, 0, 62, 0
2, 538888, Note_on_c, 0, 65, 0
2, 539573, Control_c, 0, 64, 0
2, 539574, Note_on_c, 0, 62, 64
2, 539580, Note_on_c, 0, 58, 71
2, 539588, Note_on_c, 0, 52, 61
2, 539597, Note_on_c, 0, 64, 65
2, 539780, Control_c, 0, 64, 127
2, 539926, Note_on_c, 0, 52, 0
2, 539974, Control_c, 0, 64, 0
2, 539989, Note_on_c, 0, 58, 0
2, 540056, Note_on_c, 0, 58, 39
2, 540057, Note_on_c, 0, 53, 40
2, 540064, Note_on_c, 0, 65, 63
2, 540081, Note_on_c, 0, 64, 0
2, 540130, Control_c, 0, 64, 127
2, 540138, Note_on_c, 0, 62, 0
2, 540241, Note_on_c, 0, 53, 0
2, 540259, Note_on_c, 0, 58, 0
2, 540301, Note_on_c, 0, 65, 0
2, 540515, Note_on_c, 0, 58, 58
2, 540819, Control_c, 0, 64, 0
2, 540849, Note_on_c, 0, 58, 0
2, 540936, Control_c, 0, 64, 127
2, 541443, Control_c, 0, 64, 0
2, 541450, Note_on_c, 0, 65, 47
2, 541452, Note_on_c, 0, 58, 46
2, 541475, Note_on_c, 0, 36, 49
2, 541483, Note_on_c, 0, 48, 34
2, 541489, Note_on_c, 0, 53, 33
2, 541493, Note_on_c, 0, 62, 39
2, 541496, Note_on_c, 0, 55, 30
2, 541729, Control_c, 0, 64, 127
2, 541784, Note_on_c, 0, 53, 0
2, 541826, Note_on_c, 0, 55, 0
2, 541879, Note_on_c, 0, 62, 0
2, 541885, Note_on_c, 0, 58, 0
2, 541938, Note_on_c, 0, 65, 0
2, 542089, Note_on_c, 0, 36, 0
2, 542193, Note_on_c, 0, 48, 0
2, 542482, Note_on_c, 0, 77, 64
2, 542902, Note_on_c, 0, 77, 0
2, 544212, Note_on_c, 0, 58, 45
2, 544232, Note_on_c, 0, 67, 38
2, 544302, Note_on_c, 0, 73, 38
2, 544370, Note_on_c, 0, 76, 40
2, 544379, Note_on_c, 0, 64, 33
2, 544386, Note_on_c, 0, 61, 23
2, 544431, Control_c, 0, 64, 0
2, 544455, Note_on_c, 0, 79, 52
2, 544678, Control_c, 0, 64, 127
2, 544811, Note_on_c, 0, 64, 0
2, 544859, Note_on_c, 0, 79, 0
2, 544913, Note_on_c, 0, 67, 0
2, 544928, Note_on_c, 0, 76, 0
2, 545062, Note_on_c, 0, 61, 0
2, 545065, Note_on_c, 0, 73, 0
2, 545129, Note_on_c, 0, 58, 0
2, 545184, Note_on_c, 0, 67, 27
2, 545287, Note_on_c, 0, 72, 33
2, 545297, Note_on_c, 0, 62, 43
2, 545298, Note_on_c, 0, 57, 34
2, 545329, Note_on_c, 0, 77, 54
2, 545354, Control_c, 0, 64, 0
2, 545664, Note_on_c, 0, 77, 0
2, 545769, Note_on_c, 0, 62, 0
2, 545809, Note_on_c, 0, 77, 43
2, 545828, Note_on_c, 0, 62, 24
2, 545955, Note_on_c, 0, 67, 0
2, 545972, Note_on_c, 0, 77, 0
2, 545974, Note_on_c, 0, 72, 0
2, 545994, Note_on_c, 0, 62, 0
2, 546056, Note_on_c, 0, 57, 0
2, 546265, Note_on_c, 0, 67, 39
2, 546270, Note_on_c, 0, 77, 32
2, 546278, Note_on_c, 0, 62, 30
2, 546285, Note_on_c, 0, 57, 30
2, 546292, Note_on_c, 0, 72, 42
2, 546369, Note_on_c, 0, 72, 0
2, 546380, Note_on_c, 0, 67, 0
2, 546388, Note_on_c, 0, 77, 0
2, 546417, Note_on_c, 0, 62, 0
2, 546427, Note_on_c, 0, 57, 0
2, 546736, Note_on_c, 0, 57, 35
2, 546737, Note_on_c, 0, 67, 46
2, 546743, Note_on_c, 0, 77, 37
2, 546745, Note_on_c, 0, 62, 29
2, 546747, Note_on_c, 0, 72, 38
2, 546846, Note_on_c, 0, 67, 0
2, 546877, Note_on_c, 0, 77, 0
2, 546895, Note_on_c, 0, 57, 0
2, 546900, Note_on_c, 0, 62, 0
2, 546926, Note_on_c, 0, 72, 0
2, 547206, Note_on_c, 0, 77, 49
2, 547213, Note_on_c, 0, 62, 31
2, 547214, Note_on_c, 0, 67, 34
2, 547215, Note_on_c, 0, 57, 41
2, 547222, Note_on_c, 0, 72, 38
2, 547237, Control_c, 0, 64, 127
2, 547276, Note_on_c, 0, 67, 0
2, 547343, Note_on_c, 0, 57, 0
2, 547365, Note_on_c, 0, 77, 0
2, 547372, Note_on_c, 0, 72, 0
2, 547375, Note_on_c, 0, 62, 0
2, 547705, Note_on_c, 0, 89, 69
2, 547711, Note_on_c, 0, 84, 70
2, 547719, Note_on_c, 0, 65, 55
2, 547721, Note_on_c, 0, 54, 56
2, 547723, Note_on_c, 0, 77, 49
2, 547731, Control_c, 0, 64, 0
2, 547735, Note_on_c, 0, 79, 50
2, 547736, Note_on_c, 0, 60, 52
2, 547784, Note_on_c, 0, 79, 0
2, 547951, Note_on_c, 0, 77, 0
2, 547964, Control_c, 0, 64, 127
2, 547991, Note_on_c, 0, 89, 0
2, 547998, Note_on_c, 0, 84, 0
2, 548012, Note_on_c, 0, 54, 0
2, 548029, Control_c, 0, 64, 0
2, 548033, Note_on_c, 0, 65, 0
2, 548051, Note_on_c, 0, 60, 0
2, 548194, Note_on_c, 0, 89, 72
2, 548196, Note_on_c, 0, 60, 55
2, 548196, Note_on_c, 0, 65, 58
2, 548197, Note_on_c, 0, 54, 64
2, 548199, Note_on_c, 0, 84, 76
2, 548209, Note_on_c, 0, 77, 68
2, 548318, Control_c, 0, 64, 127
2, 548455, Note_on_c, 0, 84, 0
2, 548457, Note_on_c, 0, 65, 0
2, 548471, Note_on_c, 0, 77, 0
2, 548490, Note_on_c, 0, 89, 0
2, 548492, Note_on_c, 0, 54, 0
2, 548515, Note_on_c, 0, 60, 0
2, 548660, Note_on_c, 0, 65, 59
2, 548663, Note_on_c, 0, 54, 47
2, 548669, Note_on_c, 0, 89, 66
2, 548676, Note_on_c, 0, 60, 42
2, 548680, Note_on_c, 0, 84, 70
2, 548686, Note_on_c, 0, 77, 56
2, 548772, Note_on_c, 0, 89, 0
2, 548782, Note_on_c, 0, 84, 0
2, 548800, Note_on_c, 0, 65, 0
2, 548801, Note_on_c, 0, 77, 0
2, 548852, Note_on_c, 0, 60, 0
2, 548918, Note_on_c, 0, 54, 0
2, 549137, Control_c, 0, 64, 0
2, 549146, Note_on_c, 0, 55, 73
2, 549153, Note_on_c, 0, 62, 77
2, 549164, Note_on_c, 0, 58, 70
2, 549552, Control_c, 0, 64, 127
2, 549672, Note_on_c, 0, 67, 70
2, 549897, Note_on_c, 0, 67, 0
2, 549996, Note_on_c, 0, 55, 0
2, 550020, Note_on_c, 0, 58, 0
2, 550021, Note_on_c, 0, 62, 0
2, 550158, Note_on_c, 0, 60, 60
2, 550164, Note_on_c, 0, 72, 62
2, 550345, Note_on_c, 0, 72, 0
2, 550599, Note_on_c, 0, 60, 0
2, 550635, Note_on_c, 0, 77, 69
2, 550651, Note_on_c, 0, 65, 53
2, 550773, Note_on_c, 0, 77, 0
2, 550942, Note_on_c, 0, 65, 0
2, 551120, Note_on_c, 0, 82, 60
2, 551142, Note_on_c, 0, 70, 43
2, 551552, Note_on_c, 0, 70, 0
2, 551575, Note_on_c, 0, 75, 53
2, 551602, Note_on_c, 0, 82, 0
2, 551607, Note_on_c, 0, 87, 46
2, 551689, Note_on_c, 0, 87, 0
2, 551842, Note_on_c, 0, 75, 0
2, 552027, Note_on_c, 0, 92, 55
2, 552513, Note_on_c, 0, 99, 40
2, 552622, Note_on_c, 0, 92, 0
2, 552635, Note_on_c, 0, 99, 0
2, 552656, Control_c, 0, 64, 0
2, 552960, Note_on_c, 0, 84, 38
2, 552960, Note_on_c, 0, 84, 0
2, 553038, Note_on_c, 0, 41, 29
2, 553045, Note_on_c, 0, 84, 35
2, 553047, Note_on_c, 0, 76, 50
2, 553057, Note_on_c, 0, 88, 43
2, 553058, Note_on_c, 0, 81, 40
2, 553067, Note_on_c, 0, 48, 28
2, 553070, Note_on_c, 0, 57, 26
2, 553155, Note_on_c, 0, 81, 0
2, 553168, Note_on_c, 0, 41, 0
2, 553169, Note_on_c, 0, 76, 0
2, 553196, Note_on_c, 0, 84, 0
2, 553210, Note_on_c, 0, 48, 0
2, 553211, Note_on_c, 0, 88, 0
2, 553295, Note_on_c, 0, 57, 0
2, 553572, Control_c, 0, 64, 127
2, 553888, Control_c, 0, 64, 0
2, 553968, Note_on_c, 0, 89, 63
2, 553972, Note_on_c, 0, 84, 65
2, 553976, Note_on_c, 0, 64, 33
2, 553987, Note_on_c, 0, 77, 44
2, 553993, Note_on_c, 0, 60, 28
2, 554059, Note_on_c, 0, 77, 0
2, 554085, Note_on_c, 0, 89, 0
2, 554094, Note_on_c, 0, 84, 0
2, 554098, Note_on_c, 0, 64, 0
2, 554111, Note_on_c, 0, 60, 0
2, 554336, Control_c, 0, 64, 127
2, 554821, Control_c, 0, 64, 0
2, 554870, Note_on_c, 0, 62, 58
2, 554872, Note_on_c, 0, 72, 52
2, 554875, Note_on_c, 0, 67, 51
2, 554948, Note_on_c, 0, 57, 26
2, 555006, Control_c, 0, 64, 127
2, 555821, Note_on_c, 0, 72, 0
2, 556091, Note_on_c, 0, 57, 0
2, 556142, Note_on_c, 0, 62, 0
2, 556400, Note_on_c, 0, 67, 0
2, 556447, Note_on_c, 0, 74, 56
2, 556561, Note_on_c, 0, 74, 0
2, 556847, Note_on_c, 0, 76, 72
2, 556875, Control_c, 0, 64, 0
2, 556955, Note_on_c, 0, 76, 0
2, 556960, Note_on_c, 0, 77, 54
2, 557073, Note_on_c, 0, 76, 40
2, 557107, Note_on_c, 0, 77, 0
2, 557137, Control_c, 0, 64, 127
2, 557204, Note_on_c, 0, 76, 0
2, 557222, Note_on_c, 0, 77, 38
2, 557300, Note_on_c, 0, 77, 0
2, 557304, Note_on_c, 0, 76, 28
2, 557435, Note_on_c, 0, 76, 0
2, 557453, Note_on_c, 0, 77, 33
2, 557517, Note_on_c, 0, 76, 37
2, 557524, Note_on_c, 0, 77, 0
2, 557663, Note_on_c, 0, 76, 0
2, 557680, Note_on_c, 0, 77, 40
2, 557746, Note_on_c, 0, 76, 33
2, 557747, Note_on_c, 0, 77, 0
2, 557873, Note_on_c, 0, 64, 68
2, 557883, Note_on_c, 0, 77, 53
2, 557887, Note_on_c, 0, 76, 0
2, 557912, Control_c, 0, 64, 0
2, 557978, Note_on_c, 0, 76, 30
2, 557990, Note_on_c, 0, 77, 0
2, 558116, Note_on_c, 0, 76, 0
2, 558134, Note_on_c, 0, 77, 35
2, 558189, Control_c, 0, 64, 127
2, 558204, Note_on_c, 0, 76, 46
2, 558208, Note_on_c, 0, 77, 0
2, 558318, Note_on_c, 0, 64, 0
2, 558341, Note_on_c, 0, 76, 0
2, 558349, Note_on_c, 0, 77, 40
2, 558425, Note_on_c, 0, 77, 0
2, 558428, Note_on_c, 0, 76, 36
2, 558571, Note_on_c, 0, 76, 0
2, 558579, Note_on_c, 0, 77, 41
2, 558665, Note_on_c, 0, 77, 0
2, 558669, Note_on_c, 0, 76, 35
2, 558802, Note_on_c, 0, 76, 0
2, 558808, Note_on_c, 0, 77, 46
2, 558862, Note_on_c, 0, 62, 40
2, 558870, Note_on_c, 0, 56, 36
2, 558871, Control_c, 0, 64, 0
2, 558890, Note_on_c, 0, 76, 32
2, 558902, Note_on_c, 0, 77, 0
2, 558937, Note_on_c, 0, 62, 0
2, 559020, Note_on_c, 0, 56, 0
2, 559045, Note_on_c, 0, 76, 0
2, 559052, Note_on_c, 0, 77, 44
2, 559083, Control_c, 0, 64, 127
2, 559123, Note_on_c, 0, 76, 29
2, 559146, Note_on_c, 0, 77, 0
2, 559275, Note_on_c, 0, 76, 0
2, 559289, Note_on_c, 0, 77, 41
2, 559370, Note_on_c, 0, 77, 0
2, 559373, Note_on_c, 0, 76, 38
2, 559505, Note_on_c, 0, 77, 45
2, 559512, Note_on_c, 0, 76, 0
2, 559594, Note_on_c, 0, 76, 26
2, 559621, Note_on_c, 0, 77, 0
2, 559720, Note_on_c, 0, 40, 35
2, 559752, Note_on_c, 0, 77, 38
2, 559757, Note_on_c, 0, 76, 0
2, 559781, Control_c, 0, 64, 0
2, 559791, Note_on_c, 0, 40, 0
2, 559816, Note_on_c, 0, 76, 24
2, 559837, Note_on_c, 0, 77, 0
2, 559938, Control_c, 0, 64, 127
2, 559984, Note_on_c, 0, 77, 37
2, 559998, Note_on_c, 0, 76, 0
2, 560072, Note_on_c, 0, 77, 0
2, 560078, Note_on_c, 0, 76, 35
2, 560200, Note_on_c, 0, 77, 48
2, 560208, Note_on_c, 0, 76, 0
2, 560307, Note_on_c, 0, 77, 0
2, 560312, Note_on_c, 0, 76, 35
2, 560433, Note_on_c, 0, 76, 0
2, 560438, Note_on_c, 0, 77, 46
2, 560527, Note_on_c, 0, 76, 39
2, 560542, Note_on_c, 0, 77, 0
2, 560612, Note_on_c, 0, 41, 57
2, 560648, Control_c, 0, 64, 0
2, 560673, Note_on_c, 0, 77, 54
2, 560678, Note_on_c, 0, 76, 0
2, 560767, Note_on_c, 0, 41, 0
2, 560780, Note_on_c, 0, 76, 55
2, 560791, Note_on_c, 0, 77, 0
2, 560872, Control_c, 0, 64, 127
2, 560915, Note_on_c, 0, 77, 49
2, 560921, Note_on_c, 0, 76, 0
2, 561018, Note_on_c, 0, 76, 54
2, 561039, Note_on_c, 0, 77, 0
2, 561156, Note_on_c, 0, 76, 0
2, 561160, Note_on_c, 0, 77, 48
2, 561255, Note_on_c, 0, 76, 55
2, 561287, Note_on_c, 0, 77, 0
2, 561396, Note_on_c, 0, 77, 62
2, 561397, Note_on_c, 0, 76, 0
2, 561511, Note_on_c, 0, 76, 53
2, 561548, Note_on_c, 0, 77, 0
2, 561565, Note_on_c, 0, 64, 92
2, 561607, Control_c, 0, 64, 0
2, 561641, Note_on_c, 0, 77, 69
2, 561657, Note_on_c, 0, 76, 0
2, 561758, Note_on_c, 0, 76, 55
2, 561780, Note_on_c, 0, 77, 0
2, 561831, Control_c, 0, 64, 127
2, 561888, Note_on_c, 0, 77, 62
2, 561896, Note_on_c, 0, 76, 0
2, 561997, Note_on_c, 0, 76, 61
2, 562006, Note_on_c, 0, 77, 0
2, 562153, Note_on_c, 0, 76, 0
2, 562162, Note_on_c, 0, 64, 0
2, 562176, Note_on_c, 0, 77, 63
2, 562245, Note_on_c, 0, 65, 90
2, 562252, Note_on_c, 0, 76, 44
2, 562364, Note_on_c, 0, 77, 0
2, 562397, Control_c, 0, 64, 0
2, 562464, Note_on_c, 0, 77, 60
2, 562474, Note_on_c, 0, 76, 0
2, 562578, Note_on_c, 0, 76, 55
2, 562580, Control_c, 0, 64, 127
2, 562601, Note_on_c, 0, 77, 0
2, 562714, Note_on_c, 0, 77, 62
2, 562725, Note_on_c, 0, 76, 0
2, 562853, Note_on_c, 0, 76, 55
2, 562860, Note_on_c, 0, 77, 0
2, 562881, Note_on_c, 0, 65, 0
2, 562978, Note_on_c, 0, 60, 85
2, 563000, Note_on_c, 0, 77, 58
2, 563041, Control_c, 0, 64, 0
2, 563053, Note_on_c, 0, 76, 0
2, 563137, Note_on_c, 0, 77, 0
2, 563145, Note_on_c, 0, 76, 64
2, 563238, Control_c, 0, 64, 127
2, 563278, Note_on_c, 0, 77, 52
2, 563289, Note_on_c, 0, 76, 0
2, 563393, Note_on_c, 0, 76, 56
2, 563395, Note_on_c, 0, 77, 0
2, 563566, Note_on_c, 0, 76, 0
2, 563571, Note_on_c, 0, 77, 72
2, 563612, Note_on_c, 0, 62, 84
2, 563660, Control_c, 0, 64, 0
2, 563661, Note_on_c, 0, 60, 0
2, 563718, Note_on_c, 0, 76, 62
2, 563731, Note_on_c, 0, 77, 0
2, 563765, Control_c, 0, 64, 127
2, 563854, Note_on_c, 0, 77, 55
2, 563858, Note_on_c, 0, 76, 0
2, 563871, Note_on_c, 0, 62, 0
2, 563974, Note_on_c, 0, 76, 46
2, 563978, Note_on_c, 0, 77, 0
2, 564169, Note_on_c, 0, 77, 35
2, 564193, Note_on_c, 0, 76, 0
2, 564359, Note_on_c, 0, 75, 75
2, 564422, Note_on_c, 0, 67, 60
2, 564430, Note_on_c, 0, 63, 58
2, 564462, Control_c, 0, 64, 0
2, 564506, Note_on_c, 0, 75, 0
2, 564604, Note_on_c, 0, 75, 36
2, 564636, Note_on_c, 0, 77, 0
2, 564697, Control_c, 0, 64, 127
2, 564735, Note_on_c, 0, 75, 0
2, 564736, Note_on_c, 0, 77, 55
2, 564768, Note_on_c, 0, 67, 0
2, 564833, Note_on_c, 0, 63, 0
2, 564865, Note_on_c, 0, 75, 42
2, 564892, Note_on_c, 0, 77, 0
2, 565001, Note_on_c, 0, 77, 42
2, 565143, Note_on_c, 0, 75, 0
2, 565173, Note_on_c, 0, 77, 0
2, 565392, Note_on_c, 0, 63, 53
2, 565409, Control_c, 0, 64, 0
2, 565443, Note_on_c, 0, 57, 40
2, 565586, Note_on_c, 0, 63, 0
2, 565606, Control_c, 0, 64, 127
2, 565618, Note_on_c, 0, 57, 0
2, 566018, Note_on_c, 0, 42, 46
2, 566183, Note_on_c, 0, 42, 0
2, 566329, Control_c, 0, 64, 0
2, 566358, Note_on_c, 0, 63, 43
2, 566373, Note_on_c, 0, 67, 46
2, 566385, Note_on_c, 0, 70, 53
2, 566387, Note_on_c, 0, 41, 36
2, 566423, Note_on_c, 0, 51, 20
2, 566590, Note_on_c, 0, 41, 0
2, 566606, Control_c, 0, 64, 127
2, 566730, Note_on_c, 0, 51, 0
2, 566829, Note_on_c, 0, 67, 0
2, 566890, Note_on_c, 0, 63, 0
2, 567112, Note_on_c, 0, 70, 0
2, 567329, Control_c, 0, 64, 0
2, 567355, Note_on_c, 0, 63, 31
2, 567356, Note_on_c, 0, 57, 36
2, 567363, Note_on_c, 0, 66, 42
2, 567369, Note_on_c, 0, 72, 35
2, 567512, Control_c, 0, 64, 127
2, 567729, Note_on_c, 0, 57, 0
2, 567773, Note_on_c, 0, 72, 0
2, 567776, Note_on_c, 0, 63, 0
2, 567859, Note_on_c, 0, 66, 0
2, 568347, Note_on_c, 0, 74, 55
2, 568355, Note_on_c, 0, 66, 37
2, 568356, Control_c, 0, 64, 0
2, 568365, Note_on_c, 0, 46, 35
2, 568370, Note_on_c, 0, 54, 43
2, 568376, Note_on_c, 0, 62, 26
2, 568416, Note_on_c, 0, 69, 22
2, 568833, Note_on_c, 0, 54, 0
2, 568865, Note_on_c, 0, 55, 53
2, 569064, Control_c, 0, 64, 127
2, 569293, Note_on_c, 0, 55, 0
2, 569345, Note_on_c, 0, 57, 59
2, 569366, Control_c, 0, 64, 0
2, 569855, Note_on_c, 0, 54, 53
2, 569865, Note_on_c, 0, 57, 0
2, 570012, Control_c, 0, 64, 127
2, 570056, Note_on_c, 0, 62, 0
2, 570128, Note_on_c, 0, 69, 0
2, 570159, Note_on_c, 0, 66, 0
2, 570300, Note_on_c, 0, 74, 0
2, 570341, Control_c, 0, 64, 0
2, 570353, Note_on_c, 0, 62, 43
2, 570358, Note_on_c, 0, 66, 34
2, 570364, Note_on_c, 0, 54, 0
2, 570368, Note_on_c, 0, 55, 50
2, 570395, Note_on_c, 0, 69, 24
2, 570615, Control_c, 0, 64, 127
2, 571006, Note_on_c, 0, 62, 0
2, 571133, Note_on_c, 0, 66, 0
2, 571156, Note_on_c, 0, 55, 0
2, 571317, Note_on_c, 0, 69, 0
2, 571321, Note_on_c, 0, 65, 58
2, 571326, Control_c, 0, 64, 0
2, 571330, Note_on_c, 0, 62, 56
2, 571337, Note_on_c, 0, 53, 42
2, 571577, Control_c, 0, 64, 127
2, 571608, Note_on_c, 0, 62, 0
2, 571721, Note_on_c, 0, 46, 0
2, 571778, Note_on_c, 0, 65, 0
2, 572154, Control_c, 0, 64, 0
2, 572224, Note_on_c, 0, 65, 53
2, 572226, Note_on_c, 0, 73, 46
2, 572230, Note_on_c, 0, 61, 48
2, 572237, Note_on_c, 0, 46, 34
2, 572254, Note_on_c, 0, 53, 0
2, 572266, Note_on_c, 0, 56, 38
2, 572419, Control_c, 0, 64, 127
2, 572440, Note_on_c, 0, 46, 0
2, 572503, Note_on_c, 0, 56, 0
2, 572507, Note_on_c, 0, 61, 0
2, 572566, Note_on_c, 0, 65, 0
2, 572856, Note_on_c, 0, 73, 0
2, 573142, Note_on_c, 0, 61, 40
2, 573168, Note_on_c, 0, 65, 34
2, 573173, Note_on_c, 0, 60, 32
2, 573197, Note_on_c, 0, 56, 30
2, 573246, Control_c, 0, 64, 0
2, 573431, Note_on_c, 0, 72, 38
2, 573559, Note_on_c, 0, 73, 49
2, 573561, Note_on_c, 0, 72, 0
2, 573677, Note_on_c, 0, 72, 14
2, 573759, Note_on_c, 0, 60, 0
2, 573760, Note_on_c, 0, 73, 0
2, 573773, Control_c, 0, 64, 127
2, 573819, Note_on_c, 0, 72, 0
2, 573874, Note_on_c, 0, 69, 24
2, 573883, Note_on_c, 0, 65, 0
2, 573965, Note_on_c, 0, 69, 0
2, 574005, Note_on_c, 0, 56, 0
2, 574049, Control_c, 0, 64, 0
2, 574051, Note_on_c, 0, 70, 46
2, 574079, Note_on_c, 0, 65, 32
2, 574089, Note_on_c, 0, 55, 43
2, 574337, Control_c, 0, 64, 127
2, 574472, Note_on_c, 0, 65, 0
2, 574530, Note_on_c, 0, 61, 0
2, 574577, Note_on_c, 0, 55, 0
2, 574627, Note_on_c, 0, 70, 0
2, 575043, Note_on_c, 0, 27, 57
2, 575152, Note_on_c, 0, 27, 0
2, 576060, Control_c, 0, 64, 0
2, 576066, Note_on_c, 0, 67, 74
2, 576070, Note_on_c, 0, 62, 80
2, 576077, Note_on_c, 0, 72, 66
2, 576561, Note_on_c, 0, 57, 80
2, 576669, Note_on_c, 0, 57, 0
2, 576700, Note_on_c, 0, 67, 0
2, 576730, Note_on_c, 0, 72, 0
2, 576813, Note_on_c, 0, 62, 0
2, 577027, Note_on_c, 0, 52, 54
2, 577430, Note_on_c, 0, 52, 0
2, 577457, Note_on_c, 0, 45, 48
2, 577458, Note_on_c, 0, 55, 54
2, 577574, Note_on_c, 0, 45, 0
2, 577632, Note_on_c, 0, 55, 0
2, 577926, Note_on_c, 0, 38, 39
2, 577954, Note_on_c, 0, 54, 67
2, 577965, Note_on_c, 0, 26, 48
2, 578394, Note_on_c, 0, 54, 0
2, 578398, Note_on_c, 0, 38, 0
2, 578399, Note_on_c, 0, 26, 0
2, 579007, Control_c, 0, 64, 127
2, 579335, Control_c, 0, 64, 0
2, 579424, Note_on_c, 0, 54, 65
2, 579425, Note_on_c, 0, 26, 62
2, 579432, Note_on_c, 0, 38, 49
2, 579621, Note_on_c, 0, 26, 0
2, 579663, Note_on_c, 0, 54, 0
2, 579692, Note_on_c, 0, 38, 0
2, 580363, Note_on_c, 0, 62, 67
2, 580380, Note_on_c, 0, 53, 61
2, 580383, Note_on_c, 0, 43, 61
2, 580386, Note_on_c, 0, 31, 61
2, 580397, Note_on_c, 0, 58, 57
2, 580466, Control_c, 0, 64, 127
2, 580501, Note_on_c, 0, 31, 0
2, 580522, Note_on_c, 0, 53, 0
2, 580529, Note_on_c, 0, 62, 0
2, 580572, Note_on_c, 0, 58, 0
2, 580574, Note_on_c, 0, 43, 0
2, 580821, Control_c, 0, 64, 0
2, 580861, Note_on_c, 0, 62, 75
2, 580861, Note_on_c, 0, 65, 69
2, 580862, Note_on_c, 0, 58, 83
2, 580871, Note_on_c, 0, 52, 80
2, 580872, Note_on_c, 0, 55, 82
2, 580923, Note_on_c, 0, 64, 30
2, 581011, Note_on_c, 0, 52, 0
2, 581086, Note_on_c, 0, 64, 0
2, 581166, Note_on_c, 0, 55, 0
2, 581174, Note_on_c, 0, 62, 0
2, 581187, Note_on_c, 0, 65, 0
2, 581203, Note_on_c, 0, 58, 0
2, 581439, Control_c, 0, 64, 127
2, 581728, Control_c, 0, 64, 0
2, 581806, Note_on_c, 0, 64, 48
2, 581814, Note_on_c, 0, 56, 55
2, 581831, Note_on_c, 0, 52, 29
2, 581838, Note_on_c, 0, 24, 44
2, 581845, Note_on_c, 0, 61, 36
2, 581856, Note_on_c, 0, 36, 33
2, 581907, Note_on_c, 0, 52, 0
2, 581959, Note_on_c, 0, 56, 0
2, 581973, Note_on_c, 0, 24, 0
2, 581978, Control_c, 0, 64, 127
2, 582010, Note_on_c, 0, 61, 0
2, 582029, Note_on_c, 0, 64, 0
2, 582052, Note_on_c, 0, 36, 0
2, 582319, Note_on_c, 0, 76, 79
2, 582587, Note_on_c, 0, 76, 0
2, 582750, Note_on_c, 0, 73, 48
2, 582751, Note_on_c, 0, 64, 51
2, 582758, Note_on_c, 0, 68, 45
2, 582805, Note_on_c, 0, 64, 0
2, 582846, Note_on_c, 0, 68, 0
2, 582898, Note_on_c, 0, 73, 0
2, 583229, Note_on_c, 0, 88, 74
2, 583593, Note_on_c, 0, 88, 0
2, 583675, Control_c, 0, 64, 0
2, 583679, Note_on_c, 0, 41, 34
2, 583693, Note_on_c, 0, 79, 33
2, 583700, Note_on_c, 0, 84, 49
2, 583713, Note_on_c, 0, 81, 39
2, 583721, Note_on_c, 0, 48, 31
2, 583723, Note_on_c, 0, 57, 40
2, 583852, Note_on_c, 0, 41, 0
2, 583889, Control_c, 0, 64, 127
2, 583936, Note_on_c, 0, 48, 0
2, 583994, Note_on_c, 0, 57, 0
2, 584028, Note_on_c, 0, 79, 0
2, 584144, Note_on_c, 0, 81, 0
2, 584173, Note_on_c, 0, 84, 0
2, 584677, Control_c, 0, 64, 0
2, 584680, Note_on_c, 0, 80, 81
2, 584681, Note_on_c, 0, 88, 76
2, 584689, Note_on_c, 0, 62, 66
2, 584690, Note_on_c, 0, 83, 80
2, 584694, Note_on_c, 0, 76, 77
2, 584703, Note_on_c, 0, 52, 41
2, 584709, Note_on_c, 0, 56, 55
2, 584718, Note_on_c, 0, 59, 45
2, 584719, Note_on_c, 0, 53, 31
2, 584720, Note_on_c, 0, 86, 48
2, 584888, Control_c, 0, 64, 127
2, 584941, Note_on_c, 0, 76, 0
2, 584954, Note_on_c, 0, 52, 0
2, 584964, Note_on_c, 0, 53, 0
2, 585008, Note_on_c, 0, 80, 0
2, 585010, Note_on_c, 0, 59, 0
2, 585013, Note_on_c, 0, 83, 0
2, 585030, Note_on_c, 0, 62, 0
2, 585059, Note_on_c, 0, 56, 0
2, 585071, Note_on_c, 0, 88, 0
2, 585080, Note_on_c, 0, 86, 0
2, 585205, Note_on_c, 0, 60, 66
2, 585206, Note_on_c, 0, 64, 74
2, 585211, Note_on_c, 0, 53, 66
2, 585215, Note_on_c, 0, 57, 69
2, 585218, Control_c, 0, 64, 0
2, 585219, Note_on_c, 0, 89, 82
2, 585220, Note_on_c, 0, 84, 89
2, 585233, Note_on_c, 0, 77, 78
2, 585509, Control_c, 0, 64, 127
2, 585597, Note_on_c, 0, 89, 0
2, 585605, Note_on_c, 0, 53, 0
2, 585614, Control_c, 0, 64, 0
2, 585617, Note_on_c, 0, 84, 0
2, 585634, Note_on_c, 0, 57, 0
2, 585636, Note_on_c, 0, 77, 0
2, 585645, Note_on_c, 0, 64, 0
2, 585647, Note_on_c, 0, 60, 0
2, 586010, Control_c, 0, 64, 127
2, 586128, Control_c, 0, 64, 0
2, 586169, Note_on_c, 0, 84, 72
2, 586178, Note_on_c, 0, 79, 74
2, 586179, Note_on_c, 0, 74, 66
2, 586211, Note_on_c, 0, 72, 62
2, 586229, Note_on_c, 0, 76, 28
2, 586286, Note_on_c, 0, 76, 0
2, 586417, Control_c, 0, 64, 127
2, 586614, Control_c, 0, 64, 0
2, 586670, Note_on_c, 0, 71, 63
2, 586758, Control_c, 0, 64, 127
2, 586830, Note_on_c, 0, 72, 0
2, 586859, Note_on_c, 0, 84, 0
2, 586876, Note_on_c, 0, 79, 0
2, 586898, Note_on_c, 0, 74, 0
2, 587115, Note_on_c, 0, 71, 0
2, 587116, Note_on_c, 0, 86, 66
2, 587134, Note_on_c, 0, 70, 48
2, 587141, Note_on_c, 0, 79, 55
2, 587155, Note_on_c, 0, 74, 36
2, 587179, Note_on_c, 0, 70, 0
2, 587237, Note_on_c, 0, 74, 0
2, 587253, Note_on_c, 0, 79, 0
2, 587317, Note_on_c, 0, 86, 0
2, 587535, Control_c, 0, 64, 0
2, 587592, Note_on_c, 0, 88, 68
2, 587600, Note_on_c, 0, 81, 59
2, 587602, Note_on_c, 0, 76, 58
2, 587602, Note_on_c, 0, 83, 62
2, 587625, Note_on_c, 0, 57, 60
2, 587735, Note_on_c, 0, 83, 0
2, 587741, Note_on_c, 0, 81, 0
2, 587754, Note_on_c, 0, 88, 0
2, 587766, Note_on_c, 0, 76, 0
2, 587985, Note_on_c, 0, 57, 0
2, 588057, Note_on_c, 0, 47, 46
2, 588100, Control_c, 0, 64, 127
2, 588113, Note_on_c, 0, 47, 0
2, 588534, Control_c, 0, 64, 0
2, 588545, Note_on_c, 0, 65, 38
2, 588553, Note_on_c, 0, 69, 47
2, 588557, Note_on_c, 0, 71, 51
2, 588578, Note_on_c, 0, 64, 38
2, 588963, Note_on_c, 0, 64, 0
2, 589021, Control_c, 0, 64, 127
2, 589097, Note_on_c, 0, 69, 0
2, 589223, Note_on_c, 0, 65, 0
2, 589441, Control_c, 0, 64, 0
2, 589486, Note_on_c, 0, 65, 40
2, 589488, Note_on_c, 0, 68, 39
2, 589517, Note_on_c, 0, 62, 32
2, 589526, Note_on_c, 0, 56, 36
2, 589581, Note_on_c, 0, 62, 0
2, 589655, Note_on_c, 0, 56, 0
2, 589692, Control_c, 0, 64, 127
2, 589713, Note_on_c, 0, 71, 0
2, 589836, Note_on_c, 0, 68, 0
2, 589879, Note_on_c, 0, 65, 0
2, 589982, Note_on_c, 0, 46, 25
2, 589992, Note_on_c, 0, 40, 44
2, 590052, Note_on_c, 0, 46, 0
2, 590121, Note_on_c, 0, 40, 0
2, 590414, Control_c, 0, 64, 0
2, 590445, Note_on_c, 0, 62, 52
2, 590453, Note_on_c, 0, 67, 44
2, 590459, Note_on_c, 0, 56, 40
2, 590471, Note_on_c, 0, 52, 33
2, 590571, Note_on_c, 0, 56, 0
2, 590589, Note_on_c, 0, 67, 0
2, 590635, Note_on_c, 0, 62, 0
2, 590761, Note_on_c, 0, 52, 0
2, 590905, Note_on_c, 0, 47, 36
2, 590984, Note_on_c, 0, 47, 0
2, 590993, Control_c, 0, 64, 127
2, 591217, Control_c, 0, 64, 0
2, 591347, Note_on_c, 0, 57, 50
2, 591358, Note_on_c, 0, 64, 28
2, 591366, Note_on_c, 0, 60, 30
2, 591374, Note_on_c, 0, 55, 29
2, 591387, Note_on_c, 0, 41, 33
2, 591395, Note_on_c, 0, 48, 41
2, 591443, Note_on_c, 0, 55, 0
2, 591480, Control_c, 0, 64, 127
2, 591494, Note_on_c, 0, 57, 0
2, 591527, Note_on_c, 0, 60, 0
2, 591532, Note_on_c, 0, 41, 0
2, 591553, Note_on_c, 0, 48, 0
2, 591564, Note_on_c, 0, 64, 0
2, 592382, Note_on_c, 0, 61, 61
2, 592400, Note_on_c, 0, 68, 57
2, 592401, Note_on_c, 0, 76, 62
2, 592407, Note_on_c, 0, 65, 58
2, 592409, Note_on_c, 0, 71, 62
2, 592415, Control_c, 0, 64, 0
2, 592663, Control_c, 0, 64, 127
2, 592672, Note_on_c, 0, 65, 0
2, 592701, Note_on_c, 0, 71, 0
2, 592718, Note_on_c, 0, 68, 0
2, 592766, Note_on_c, 0, 76, 0
2, 592847, Control_c, 0, 64, 0
2, 592865, Note_on_c, 0, 61, 0
2, 592894, Note_on_c, 0, 77, 77
2, 592901, Note_on_c, 0, 69, 68
2, 592902, Note_on_c, 0, 62, 64
2, 592903, Note_on_c, 0, 72, 64
2, 593052, Note_on_c, 0, 77, 0
2, 593061, Note_on_c, 0, 62, 0
2, 593065, Note_on_c, 0, 72, 0
2, 593098, Control_c, 0, 64, 127
2, 593099, Note_on_c, 0, 69, 0
2, 593334, Control_c, 0, 64, 0
2, 593382, Note_on_c, 0, 67, 53
2, 593384, Note_on_c, 0, 64, 53
2, 593391, Note_on_c, 0, 72, 48
2, 593407, Note_on_c, 0, 69, 51
2, 593534, Note_on_c, 0, 57, 39
2, 593689, Control_c, 0, 64, 127
2, 593895, Note_on_c, 0, 64, 0
2, 593970, Note_on_c, 0, 69, 0
2, 593987, Note_on_c, 0, 67, 0
2, 594059, Note_on_c, 0, 72, 0
2, 594268, Control_c, 0, 64, 0
2, 594278, Note_on_c, 0, 74, 55
2, 594297, Note_on_c, 0, 65, 36
2, 594298, Note_on_c, 0, 69, 52
2, 594314, Note_on_c, 0, 60, 37
2, 594335, Note_on_c, 0, 71, 36
2, 594429, Note_on_c, 0, 57, 0
2, 594478, Control_c, 0, 64, 127
2, 594516, Note_on_c, 0, 60, 0
2, 594728, Note_on_c, 0, 65, 0
2, 594740, Note_on_c, 0, 74, 0
2, 594774, Note_on_c, 0, 69, 0
2, 594783, Note_on_c, 0, 71, 0
2, 595174, Control_c, 0, 64, 0
2, 595224, Note_on_c, 0, 75, 44
2, 595237, Note_on_c, 0, 58, 33
2, 595240, Note_on_c, 0, 67, 34
2, 595244, Note_on_c, 0, 70, 38
2, 595262, Note_on_c, 0, 55, 29
2, 595272, Note_on_c, 0, 72, 33
2, 595273, Note_on_c, 0, 48, 26
2, 595359, Note_on_c, 0, 48, 0
2, 595384, Control_c, 0, 64, 127
2, 595395, Note_on_c, 0, 67, 0
2, 595412, Note_on_c, 0, 55, 0
2, 595481, Note_on_c, 0, 58, 0
2, 595518, Note_on_c, 0, 70, 0
2, 595523, Note_on_c, 0, 72, 0
2, 595567, Note_on_c, 0, 75, 0
2, 595577, Note_on_c, 0, 67, 34
2, 595722, Note_on_c, 0, 67, 0
2, 595760, Note_on_c, 0, 69, 28
2, 595847, Note_on_c, 0, 70, 46
2, 595863, Note_on_c, 0, 69, 0
2, 595900, Note_on_c, 0, 70, 0
2, 595998, Note_on_c, 0, 72, 30
2, 596107, Note_on_c, 0, 74, 56
2, 596122, Control_c, 0, 64, 0
2, 596123, Note_on_c, 0, 72, 0
2, 596156, Note_on_c, 0, 67, 31
2, 596175, Note_on_c, 0, 63, 27
2, 596178, Note_on_c, 0, 58, 29
2, 596189, Note_on_c, 0, 62, 25
2, 596207, Note_on_c, 0, 75, 50
2, 596223, Note_on_c, 0, 74, 0
2, 596325, Note_on_c, 0, 75, 0
2, 596393, Note_on_c, 0, 77, 51
2, 596509, Note_on_c, 0, 77, 0
2, 596539, Note_on_c, 0, 62, 0
2, 596566, Note_on_c, 0, 67, 0
2, 596608, Note_on_c, 0, 81, 40
2, 596702, Note_on_c, 0, 63, 0
2, 596761, Note_on_c, 0, 82, 58
2, 596778, Note_on_c, 0, 81, 0
2, 596796, Note_on_c, 0, 58, 0
2, 596871, Note_on_c, 0, 82, 0
2, 596877, Note_on_c, 0, 83, 45
2, 596990, Note_on_c, 0, 84, 71
2, 597030, Note_on_c, 0, 83, 0
2, 597103, Note_on_c, 0, 67, 37
2, 597125, Note_on_c, 0, 84, 0
2, 597128, Note_on_c, 0, 63, 31
2, 597136, Note_on_c, 0, 57, 28
2, 597221, Note_on_c, 0, 81, 60
2, 597275, Note_on_c, 0, 81, 0
2, 597404, Note_on_c, 0, 67, 0
2, 597502, Note_on_c, 0, 63, 0
2, 597506, Note_on_c, 0, 77, 58
2, 597564, Note_on_c, 0, 77, 0
2, 597785, Note_on_c, 0, 75, 58
2, 597968, Note_on_c, 0, 75, 0
2, 598111, Note_on_c, 0, 74, 64
2, 598170, Note_on_c, 0, 67, 39
2, 598180, Note_on_c, 0, 63, 36
2, 598264, Note_on_c, 0, 74, 0
2, 598445, Note_on_c, 0, 72, 57
2, 598597, Note_on_c, 0, 72, 0
2, 598614, Note_on_c, 0, 67, 0
2, 598712, Note_on_c, 0, 70, 60
2, 598809, Note_on_c, 0, 63, 0
2, 598843, Note_on_c, 0, 57, 0
2, 598916, Note_on_c, 0, 70, 0
2, 598936, Control_c, 0, 64, 127
2, 598945, Note_on_c, 0, 69, 38
2, 599053, Note_on_c, 0, 69, 0
2, 599126, Note_on_c, 0, 65, 32
2, 599134, Control_c, 0, 64, 0
2, 599164, Note_on_c, 0, 60, 28
2, 599168, Note_on_c, 0, 62, 34
2, 599183, Note_on_c, 0, 72, 40
2, 599328, Note_on_c, 0, 72, 0
2, 599358, Note_on_c, 0, 65, 0
2, 599461, Note_on_c, 0, 70, 58
2, 599578, Note_on_c, 0, 70, 0
2, 599736, Note_on_c, 0, 69, 57
2, 599871, Note_on_c, 0, 69, 0
2, 599988, Control_c, 0, 64, 127
2, 599992, Note_on_c, 0, 65, 43
2, 600045, Note_on_c, 0, 53, 40
2, 600081, Control_c, 0, 64, 0
2, 600108, Note_on_c, 0, 62, 0
2, 600136, Note_on_c, 0, 65, 0
2, 600178, Note_on_c, 0, 60, 0
2, 600420, Note_on_c, 0, 53, 0
2, 600546, Note_on_c, 0, 57, 40
2, 600655, Note_on_c, 0, 57, 0
2, 600777, Control_c, 0, 64, 127
2, 600821, Note_on_c, 0, 62, 55
2, 600837, Note_on_c, 0, 58, 52
2, 600857, Note_on_c, 0, 57, 32
2, 600922, Note_on_c, 0, 57, 0
2, 600988, Note_on_c, 0, 58, 0
2, 601027, Note_on_c, 0, 62, 0
2, 601093, Control_c, 0, 64, 0
2, 601101, Note_on_c, 0, 65, 53
2, 601119, Note_on_c, 0, 58, 32
2, 601123, Note_on_c, 0, 57, 44
2, 601132, Note_on_c, 0, 62, 34
2, 601139, Note_on_c, 0, 53, 32
2, 601435, Control_c, 0, 64, 127
2, 601740, Note_on_c, 0, 57, 0
2, 601744, Note_on_c, 0, 53, 0
2, 601749, Note_on_c, 0, 62, 0
2, 601780, Note_on_c, 0, 58, 0
2, 601917, Note_on_c, 0, 65, 0
2, 602027, Control_c, 0, 64, 0
2, 602038, Note_on_c, 0, 62, 47
2, 602043, Note_on_c, 0, 58, 45
2, 602055, Note_on_c, 0, 53, 37
2, 602066, Note_on_c, 0, 57, 42
2, 602237, Control_c, 0, 64, 127
2, 602287, Note_on_c, 0, 53, 0
2, 602348, Note_on_c, 0, 57, 0
2, 602400, Note_on_c, 0, 58, 0
2, 602417, Note_on_c, 0, 62, 0
2, 603604, Control_c, 0, 64, 0
2, 603613, Note_on_c, 0, 56, 77
2, 603617, Note_on_c, 0, 61, 67
2, 603624, Note_on_c, 0, 65, 58
2, 603634, Note_on_c, 0, 53, 42
2, 603696, Note_on_c, 0, 46, 31
2, 603754, Note_on_c, 0, 46, 0
2, 604013, Control_c, 0, 64, 127
2, 604377, Note_on_c, 0, 53, 0
2, 604530, Note_on_c, 0, 46, 45
2, 604563, Note_on_c, 0, 56, 0
2, 604584, Note_on_c, 0, 46, 0
2, 604596, Note_on_c, 0, 61, 0
2, 604853, Control_c, 0, 64, 0
2, 604895, Note_on_c, 0, 25, 56
2, 604896, Note_on_c, 0, 61, 46
2, 604903, Note_on_c, 0, 55, 40
2, 604995, Note_on_c, 0, 25, 0
2, 605144, Control_c, 0, 64, 127
2, 605295, Note_on_c, 0, 55, 0
2, 605329, Note_on_c, 0, 61, 0
2, 605421, Note_on_c, 0, 65, 0
2, 605433, Control_c, 0, 64, 0
2, 605483, Note_on_c, 0, 62, 62
2, 605485, Control_c, 0, 64, 127
2, 605493, Note_on_c, 0, 50, 50
2, 605500, Note_on_c, 0, 55, 54
2, 605509, Note_on_c, 0, 58, 49
2, 605697, Note_on_c, 0, 55, 0
2, 605735, Note_on_c, 0, 58, 0
2, 605790, Note_on_c, 0, 62, 0
2, 605800, Control_c, 0, 64, 0
2, 605853, Note_on_c, 0, 50, 0
2, 605861, Note_on_c, 0, 58, 35
2, 605863, Note_on_c, 0, 51, 49
2, 605870, Note_on_c, 0, 55, 49
2, 605871, Note_on_c, 0, 63, 50
2, 606193, Note_on_c, 0, 51, 0
2, 606229, Note_on_c, 0, 55, 0
2, 606309, Note_on_c, 0, 58, 0
2, 606433, Note_on_c, 0, 50, 51
2, 606459, Control_c, 0, 64, 127
2, 606469, Note_on_c, 0, 58, 13
2, 606523, Note_on_c, 0, 63, 0
2, 606551, Note_on_c, 0, 50, 0
2, 606557, Note_on_c, 0, 58, 0
2, 606708, Control_c, 0, 64, 0
2, 606786, Note_on_c, 0, 55, 43
2, 606787, Note_on_c, 0, 60, 46
2, 606794, Note_on_c, 0, 57, 42
2, 606817, Note_on_c, 0, 41, 29
2, 606922, Note_on_c, 0, 55, 0
2, 606977, Note_on_c, 0, 57, 0
2, 607009, Note_on_c, 0, 60, 0
2, 607077, Control_c, 0, 64, 127
2, 607402, Note_on_c, 0, 48, 45
2, 607451, Note_on_c, 0, 41, 0
2, 607733, Note_on_c, 0, 48, 0
2, 607734, Note_on_c, 0, 62, 55
2, 607770, Note_on_c, 0, 57, 34
2, 607843, Note_on_c, 0, 62, 0
2, 607852, Note_on_c, 0, 57, 0
2, 608014, Note_on_c, 0, 67, 48
2, 608323, Note_on_c, 0, 72, 56
2, 608390, Note_on_c, 0, 67, 0
2, 608468, Note_on_c, 0, 72, 0
2, 608622, Note_on_c, 0, 64, 35
2, 608638, Note_on_c, 0, 79, 69
2, 608642, Control_c, 0, 64, 0
2, 608651, Note_on_c, 0, 74, 64
2, 608657, Note_on_c, 0, 60, 32
2, 608863, Note_on_c, 0, 79, 0
2, 608891, Control_c, 0, 64, 127
2, 608965, Note_on_c, 0, 74, 0
2, 609050, Note_on_c, 0, 64, 0
2, 609268, Note_on_c, 0, 79, 66
2, 609288, Note_on_c, 0, 74, 66
2, 609538, Note_on_c, 0, 79, 0
2, 609595, Note_on_c, 0, 77, 48
2, 609597, Note_on_c, 0, 72, 47
2, 609625, Note_on_c, 0, 64, 31
2, 609684, Note_on_c, 0, 74, 0
2, 609816, Note_on_c, 0, 60, 0
2, 609823, Note_on_c, 0, 77, 0
2, 609847, Note_on_c, 0, 72, 0
2, 609904, Note_on_c, 0, 79, 55
2, 609906, Note_on_c, 0, 64, 0
2, 609924, Note_on_c, 0, 74, 39
2, 610118, Note_on_c, 0, 79, 0
2, 610220, Note_on_c, 0, 77, 51
2, 610227, Note_on_c, 0, 72, 50
2, 610281, Note_on_c, 0, 74, 0
2, 610310, Note_on_c, 0, 72, 0
2, 610482, Note_on_c, 0, 77, 0
2, 610522, Control_c, 0, 64, 0
2, 610566, Note_on_c, 0, 58, 49
2, 610567, Note_on_c, 0, 70, 53
2, 610573, Note_on_c, 0, 75, 48
2, 610579, Note_on_c, 0, 63, 36
2, 610588, Note_on_c, 0, 79, 37
2, 610736, Note_on_c, 0, 70, 0
2, 610758, Control_c, 0, 64, 127
2, 610815, Note_on_c, 0, 79, 0
2, 610824, Note_on_c, 0, 75, 0
2, 611114, Note_on_c, 0, 63, 0
2, 611187, Note_on_c, 0, 53, 1
2, 611244, Note_on_c, 0, 86, 90
2, 611256, Note_on_c, 0, 79, 83
2, 611290, Note_on_c, 0, 81, 36
2, 611305, Note_on_c, 0, 58, 0
2, 611341, Note_on_c, 0, 81, 0
2, 611599, Note_on_c, 0, 82, 63
2, 611601, Control_c, 0, 64, 0
2, 611627, Note_on_c, 0, 58, 44
2, 611636, Note_on_c, 0, 79, 0
2, 611637, Note_on_c, 0, 63, 30
2, 611645, Note_on_c, 0, 74, 36
2, 611653, Note_on_c, 0, 86, 0
2, 611825, Control_c, 0, 64, 127
2, 611885, Note_on_c, 0, 53, 0
2, 611950, Note_on_c, 0, 58, 0
2, 611981, Note_on_c, 0, 63, 0
2, 612044, Note_on_c, 0, 74, 0
2, 612125, Note_on_c, 0, 82, 0
2, 612238, Note_on_c, 0, 86, 66
2, 612254, Note_on_c, 0, 78, 63
2, 612522, Control_c, 0, 64, 0
2, 612608, Note_on_c, 0, 67, 26
2, 612610, Note_on_c, 0, 57, 35
2, 612616, Note_on_c, 0, 63, 39
2, 612619, Note_on_c, 0, 86, 0
2, 612716, Note_on_c, 0, 78, 0
2, 612726, Note_on_c, 0, 67, 0
2, 612762, Control_c, 0, 64, 127
2, 612795, Note_on_c, 0, 63, 0
2, 612842, Note_on_c, 0, 57, 0
2, 613516, Note_on_c, 0, 62, 56
2, 613531, Note_on_c, 0, 66, 50
2, 613536, Control_c, 0, 64, 0
2, 613544, Note_on_c, 0, 57, 43
2, 613567, Note_on_c, 0, 51, 33
2, 613569, Note_on_c, 0, 69, 37
2, 613813, Control_c, 0, 64, 127
2, 613979, Note_on_c, 0, 57, 0
2, 614139, Note_on_c, 0, 51, 0
2, 614227, Note_on_c, 0, 62, 0
2, 614349, Note_on_c, 0, 66, 0
2, 614452, Note_on_c, 0, 69, 0
2, 614458, Control_c, 0, 64, 0
2, 614469, Note_on_c, 0, 46, 26
2, 614479, Note_on_c, 0, 62, 38
2, 614481, Note_on_c, 0, 65, 44
2, 614482, Note_on_c, 0, 57, 33
2, 614495, Note_on_c, 0, 53, 40
2, 614701, Note_on_c, 0, 53, 0
2, 614746, Note_on_c, 0, 46, 0
2, 614764, Control_c, 0, 64, 127
2, 614785, Note_on_c, 0, 62, 0
2, 614820, Note_on_c, 0, 57, 0
2, 615005, Note_on_c, 0, 65, 0
2, 615434, Note_on_c, 0, 65, 40
2, 615458, Note_on_c, 0, 62, 38
2, 615467, Note_on_c, 0, 60, 36
2, 615474, Control_c, 0, 64, 0
2, 615724, Note_on_c, 0, 65, 0
2, 615766, Note_on_c, 0, 72, 54
2, 615949, Note_on_c, 0, 72, 0
2, 615971, Note_on_c, 0, 73, 55
2, 616065, Control_c, 0, 64, 127
2, 616124, Note_on_c, 0, 73, 0
2, 616186, Note_on_c, 0, 76, 64
2, 616287, Note_on_c, 0, 76, 0
2, 616341, Control_c, 0, 64, 0
2, 616370, Note_on_c, 0, 53, 18
2, 616624, Note_on_c, 0, 77, 71
2, 616706, Note_on_c, 0, 62, 0
2, 616741, Note_on_c, 0, 77, 0
2, 616830, Note_on_c, 0, 60, 0
2, 616849, Note_on_c, 0, 78, 60
2, 616954, Note_on_c, 0, 78, 0
2, 617131, Control_c, 0, 64, 127
2, 617162, Note_on_c, 0, 77, 22
2, 617216, Note_on_c, 0, 77, 0
2, 617341, Control_c, 0, 64, 0
2, 617358, Note_on_c, 0, 62, 46
2, 617367, Note_on_c, 0, 65, 37
2, 617388, Note_on_c, 0, 60, 22
2, 617410, Note_on_c, 0, 81, 30
2, 617460, Note_on_c, 0, 81, 0
2, 617614, Note_on_c, 0, 84, 70
2, 617734, Note_on_c, 0, 84, 0
2, 617844, Note_on_c, 0, 85, 69
2, 617880, Control_c, 0, 64, 127
2, 617900, Note_on_c, 0, 65, 0
2, 617974, Note_on_c, 0, 60, 0
2, 617981, Note_on_c, 0, 85, 0
2, 617987, Note_on_c, 0, 62, 0
2, 618014, Note_on_c, 0, 53, 0
2, 618044, Note_on_c, 0, 86, 67
2, 618201, Note_on_c, 0, 86, 0
2, 618263, Note_on_c, 0, 88, 71
2, 618367, Control_c, 0, 64, 0
2, 618394, Note_on_c, 0, 88, 0
2, 618427, Note_on_c, 0, 62, 36
2, 618434, Note_on_c, 0, 52, 37
2, 618476, Note_on_c, 0, 86, 50
2, 618489, Note_on_c, 0, 93, 64
2, 618491, Note_on_c, 0, 81, 57
2, 618685, Note_on_c, 0, 86, 0
2, 618687, Note_on_c, 0, 81, 0
2, 618713, Note_on_c, 0, 93, 0
2, 618734, Control_c, 0, 64, 127
2, 618822, Note_on_c, 0, 93, 53
2, 618834, Note_on_c, 0, 86, 51
2, 618852, Note_on_c, 0, 88, 38
2, 618868, Note_on_c, 0, 81, 26
2, 618907, Note_on_c, 0, 62, 0
2, 618911, Note_on_c, 0, 88, 0
2, 618923, Note_on_c, 0, 93, 0
2, 618958, Note_on_c, 0, 86, 0
2, 618974, Note_on_c, 0, 81, 0
2, 619296, Note_on_c, 0, 62, 44
2, 619356, Note_on_c, 0, 62, 0
2, 619357, Note_on_c, 0, 59, 27
2, 619416, Note_on_c, 0, 59, 0
2, 619503, Note_on_c, 0, 52, 0
2, 619622, Note_on_c, 0, 59, 58
2, 619690, Note_on_c, 0, 59, 0
2, 619906, Note_on_c, 0, 62, 71
2, 619982, Note_on_c, 0, 52, 29
2, 620049, Note_on_c, 0, 62, 0
2, 620164, Note_on_c, 0, 52, 0
2, 620221, Control_c, 0, 64, 0
2, 620242, Note_on_c, 0, 61, 54
2, 620243, Note_on_c, 0, 58, 51
2, 620253, Note_on_c, 0, 55, 49
2, 620256, Note_on_c, 0, 64, 44
2, 620277, Note_on_c, 0, 45, 40
2, 620550, Control_c, 0, 64, 127
2, 620724, Note_on_c, 0, 58, 0
2, 620739, Note_on_c, 0, 55, 0
2, 620930, Note_on_c, 0, 61, 0
2, 620939, Note_on_c, 0, 64, 0
2, 621115, Control_c, 0, 64, 0
2, 621148, Note_on_c, 0, 61, 48
2, 621159, Note_on_c, 0, 67, 47
2, 621161, Note_on_c, 0, 58, 50
2, 621166, Note_on_c, 0, 55, 38
2, 621202, Note_on_c, 0, 64, 24
2, 621378, Control_c, 0, 64, 127
2, 621561, Note_on_c, 0, 64, 0
2, 621586, Note_on_c, 0, 55, 0
2, 621592, Note_on_c, 0, 58, 0
2, 621706, Note_on_c, 0, 67, 0
2, 621874, Note_on_c, 0, 61, 0
2, 621951, Note_on_c, 0, 45, 0
2, 622061, Control_c, 0, 64, 0
2, 622111, Note_on_c, 0, 61, 56
2, 622136, Note_on_c, 0, 57, 46
2, 622137, Note_on_c, 0, 66, 44
2, 622147, Note_on_c, 0, 50, 48
2, 622255, Note_on_c, 0, 57, 0
2, 622280, Note_on_c, 0, 50, 0
2, 622314, Control_c, 0, 64, 127
2, 622377, Note_on_c, 0, 61, 0
2, 622438, Note_on_c, 0, 66, 0
2, 622772, Note_on_c, 0, 88, 84
2, 622774, Note_on_c, 0, 81, 80
2, 623071, Note_on_c, 0, 81, 0
2, 623073, Note_on_c, 0, 88, 0
2, 623111, Note_on_c, 0, 61, 32
2, 623120, Note_on_c, 0, 85, 44
2, 623128, Note_on_c, 0, 64, 35
2, 623134, Note_on_c, 0, 76, 40
2, 623140, Note_on_c, 0, 54, 34
2, 623145, Control_c, 0, 64, 0
2, 623159, Note_on_c, 0, 81, 17
2, 623432, Control_c, 0, 64, 127
2, 623462, Note_on_c, 0, 81, 0
2, 623495, Note_on_c, 0, 76, 0
2, 623595, Note_on_c, 0, 85, 0
2, 623605, Note_on_c, 0, 64, 0
2, 623725, Note_on_c, 0, 61, 0
2, 623751, Note_on_c, 0, 81, 64
2, 623760, Note_on_c, 0, 88, 59
2, 623918, Note_on_c, 0, 88, 0
2, 624007, Note_on_c, 0, 81, 0
2, 624025, Control_c, 0, 64, 0
2, 624057, Note_on_c, 0, 61, 33
2, 624075, Note_on_c, 0, 85, 54
2, 624080, Note_on_c, 0, 64, 35
2, 624088, Note_on_c, 0, 76, 52
2, 624260, Note_on_c, 0, 85, 0
2, 624279, Note_on_c, 0, 76, 0
2, 624314, Control_c, 0, 64, 127
2, 624347, Note_on_c, 0, 64, 0
2, 624616, Note_on_c, 0, 73, 40
2, 624672, Note_on_c, 0, 61, 0
2, 624904, Note_on_c, 0, 73, 0
2, 624954, Note_on_c, 0, 61, 42
2, 624957, Control_c, 0, 64, 0
2, 624969, Note_on_c, 0, 64, 36
2, 624974, Note_on_c, 0, 69, 39
2, 625247, Control_c, 0, 64, 127
2, 625290, Note_on_c, 0, 69, 0
2, 625298, Note_on_c, 0, 54, 0
2, 625581, Note_on_c, 0, 54, 51
2, 625688, Note_on_c, 0, 64, 0
2, 625764, Note_on_c, 0, 61, 0
2, 625765, Note_on_c, 0, 54, 0
2, 625942, Note_on_c, 0, 62, 54
2, 625945, Note_on_c, 0, 66, 52
2, 625946, Note_on_c, 0, 93, 84
2, 625953, Note_on_c, 0, 86, 80
2, 625962, Note_on_c, 0, 55, 34
2, 625983, Note_on_c, 0, 59, 46
2, 625997, Control_c, 0, 64, 0
2, 626186, Note_on_c, 0, 93, 0
2, 626187, Note_on_c, 0, 86, 0
2, 626248, Control_c, 0, 64, 127
2, 626275, Note_on_c, 0, 81, 38
2, 626289, Note_on_c, 0, 90, 32
2, 626353, Note_on_c, 0, 66, 0
2, 626392, Note_on_c, 0, 62, 0
2, 626426, Note_on_c, 0, 81, 0
2, 626454, Note_on_c, 0, 90, 0
2, 626481, Note_on_c, 0, 59, 0
2, 626569, Note_on_c, 0, 86, 74
2, 626571, Note_on_c, 0, 93, 76
2, 626813, Note_on_c, 0, 86, 0
2, 626840, Note_on_c, 0, 93, 0
2, 626853, Control_c, 0, 64, 0
2, 626872, Note_on_c, 0, 66, 47
2, 626905, Note_on_c, 0, 62, 37
2, 626941, Note_on_c, 0, 59, 34
2, 626945, Control_c, 0, 64, 127
2, 627196, Note_on_c, 0, 96, 87
2, 627257, Note_on_c, 0, 62, 0
2, 627339, Note_on_c, 0, 66, 0
2, 627359, Note_on_c, 0, 55, 0
2, 627410, Note_on_c, 0, 94, 55
2, 627412, Note_on_c, 0, 59, 0
2, 627435, Note_on_c, 0, 96, 0
2, 627581, Note_on_c, 0, 89, 53
2, 627656, Note_on_c, 0, 94, 0
2, 627691, Note_on_c, 0, 85, 48
2, 627742, Note_on_c, 0, 89, 0
2, 627820, Note_on_c, 0, 85, 0
2, 627837, Control_c, 0, 64, 0
2, 627855, Note_on_c, 0, 84, 51
2, 627869, Note_on_c, 0, 61, 44
2, 627871, Note_on_c, 0, 66, 35
2, 627913, Note_on_c, 0, 55, 32
2, 628001, Note_on_c, 0, 84, 0
2, 628100, Note_on_c, 0, 82, 63
2, 628247, Note_on_c, 0, 82, 0
2, 628347, Note_on_c, 0, 84, 64
2, 628406, Note_on_c, 0, 82, 47
2, 628460, Note_on_c, 0, 84, 0
2, 628560, Note_on_c, 0, 81, 52
2, 628585, Note_on_c, 0, 66, 0
2, 628608, Note_on_c, 0, 82, 0
2, 628720, Control_c, 0, 64, 127
2, 628726, Note_on_c, 0, 81, 0
2, 628728, Note_on_c, 0, 61, 0
2, 628823, Note_on_c, 0, 80, 60
2, 628864, Control_c, 0, 64, 0
2, 628961, Note_on_c, 0, 61, 40
2, 628965, Note_on_c, 0, 66, 37
2, 629017, Note_on_c, 0, 80, 0
2, 629021, Note_on_c, 0, 79, 41
2, 629175, Note_on_c, 0, 79, 0
2, 629233, Note_on_c, 0, 78, 57
2, 629357, Note_on_c, 0, 66, 0
2, 629418, Note_on_c, 0, 77, 42
2, 629419, Note_on_c, 0, 78, 0
2, 629473, Note_on_c, 0, 55, 0
2, 629521, Control_c, 0, 64, 127
2, 629591, Note_on_c, 0, 77, 0
2, 629688, Note_on_c, 0, 76, 35
2, 629784, Note_on_c, 0, 76, 0
2, 629811, Control_c, 0, 64, 0
2, 629865, Note_on_c, 0, 54, 34
2, 629886, Note_on_c, 0, 78, 57
2, 629899, Note_on_c, 0, 59, 33
2, 630126, Note_on_c, 0, 73, 37
2, 630276, Note_on_c, 0, 78, 0
2, 630299, Note_on_c, 0, 73, 0
2, 630396, Note_on_c, 0, 69, 44
2, 630434, Note_on_c, 0, 59, 0
2, 630543, Note_on_c, 0, 61, 0
2, 630563, Note_on_c, 0, 69, 0
2, 630600, Control_c, 0, 64, 127
2, 630890, Control_c, 0, 64, 0
2, 630924, Note_on_c, 0, 61, 25
2, 630991, Note_on_c, 0, 59, 31
2, 631244, Note_on_c, 0, 64, 61
2, 631296, Note_on_c, 0, 59, 0
2, 631422, Note_on_c, 0, 64, 0
2, 631455, Note_on_c, 0, 61, 0
2, 631514, Note_on_c, 0, 66, 84
2, 631613, Control_c, 0, 64, 127
2, 631757, Note_on_c, 0, 66, 0
2, 631830, Note_on_c, 0, 61, 39
2, 631836, Note_on_c, 0, 69, 68
2, 631849, Control_c, 0, 64, 0
2, 631850, Note_on_c, 0, 64, 75
2, 631874, Note_on_c, 0, 59, 33
2, 632056, Note_on_c, 0, 59, 0
2, 632126, Note_on_c, 0, 61, 0
2, 632191, Control_c, 0, 64, 127
2, 632223, Note_on_c, 0, 54, 0
2, 632385, Note_on_c, 0, 69, 0
2, 632413, Note_on_c, 0, 64, 0
2, 632704, Control_c, 0, 64, 0
2, 632727, Note_on_c, 0, 61, 47
2, 632742, Note_on_c, 0, 66, 51
2, 632745, Note_on_c, 0, 54, 38
2, 632746, Note_on_c, 0, 64, 44
2, 632778, Note_on_c, 0, 57, 25
2, 632830, Note_on_c, 0, 57, 0
2, 632885, Note_on_c, 0, 54, 0
2, 632923, Note_on_c, 0, 64, 0
2, 632929, Control_c, 0, 64, 127
2, 632980, Note_on_c, 0, 61, 0
2, 632985, Note_on_c, 0, 66, 0
2, 633191, Control_c, 0, 64, 0
2, 633309, Note_on_c, 0, 51, 51
2, 633316, Note_on_c, 0, 66, 71
2, 633317, Note_on_c, 0, 61, 70
2, 633322, Note_on_c, 0, 58, 71
2, 633415, Control_c, 0, 64, 127
2, 633611, Control_c, 0, 64, 0
2, 633613, Note_on_c, 0, 66, 0
2, 633627, Note_on_c, 0, 51, 0
2, 633645, Note_on_c, 0, 58, 0
2, 633674, Note_on_c, 0, 61, 0
2, 633713, Note_on_c, 0, 65, 56
2, 633724, Note_on_c, 0, 60, 60
2, 633732, Note_on_c, 0, 50, 57
2, 633733, Note_on_c, 0, 57, 52
2, 633888, Control_c, 0, 64, 127
2, 633889, Note_on_c, 0, 57, 0
2, 633953, Note_on_c, 0, 50, 0
2, 633985, Note_on_c, 0, 60, 0
2, 634007, Note_on_c, 0, 65, 0
2, 634586, Note_on_c, 0, 69, 78
2, 634587, Note_on_c, 0, 76, 74
2, 634593, Note_on_c, 0, 65, 78
2, 634600, Note_on_c, 0, 72, 61
2, 634603, Note_on_c, 0, 64, 75
2, 634612, Control_c, 0, 64, 0
2, 634927, Control_c, 0, 64, 127
2, 635133, Note_on_c, 0, 65, 0
2, 635204, Note_on_c, 0, 69, 0
2, 635235, Note_on_c, 0, 64, 0
2, 635255, Note_on_c, 0, 72, 0
2, 635276, Note_on_c, 0, 76, 0
2, 635518, Note_on_c, 0, 77, 63
2, 635521, Note_on_c, 0, 64, 54
2, 635532, Control_c, 0, 64, 0
2, 635534, Note_on_c, 0, 72, 58
2, 635542, Note_on_c, 0, 59, 45
2, 635547, Note_on_c, 0, 53, 29
2, 635556, Note_on_c, 0, 65, 37
2, 635567, Note_on_c, 0, 67, 45
2, 635626, Note_on_c, 0, 67, 0
2, 635822, Control_c, 0, 64, 127
2, 635925, Note_on_c, 0, 65, 0
2, 636005, Note_on_c, 0, 77, 0
2, 636031, Note_on_c, 0, 72, 0
2, 636118, Note_on_c, 0, 53, 0
2, 636159, Note_on_c, 0, 79, 72
2, 636167, Note_on_c, 0, 72, 67
2, 636181, Note_on_c, 0, 67, 57
2, 636188, Note_on_c, 0, 64, 0
2, 636251, Note_on_c, 0, 59, 0
2, 636365, Note_on_c, 0, 79, 0
2, 636400, Note_on_c, 0, 67, 0
2, 636468, Note_on_c, 0, 72, 0
2, 636479, Control_c, 0, 64, 0
2, 636506, Note_on_c, 0, 64, 44
2, 636512, Note_on_c, 0, 59, 41
2, 636527, Note_on_c, 0, 53, 34
2, 636534, Note_on_c, 0, 72, 36
2, 636542, Note_on_c, 0, 77, 57
2, 636580, Note_on_c, 0, 65, 28
2, 636582, Note_on_c, 0, 67, 30
2, 636728, Control_c, 0, 64, 127
2, 636807, Note_on_c, 0, 64, 0
2, 636813, Note_on_c, 0, 77, 0
2, 636861, Note_on_c, 0, 53, 0
2, 636862, Note_on_c, 0, 65, 0
2, 636863, Note_on_c, 0, 67, 0
2, 636904, Note_on_c, 0, 72, 0
2, 636905, Note_on_c, 0, 59, 0
2, 637141, Note_on_c, 0, 76, 57
2, 637144, Note_on_c, 0, 62, 47
2, 637149, Note_on_c, 0, 71, 56
2, 637156, Note_on_c, 0, 64, 43
2, 637176, Control_c, 0, 64, 0
2, 637185, Note_on_c, 0, 55, 38
2, 637189, Note_on_c, 0, 59, 29
2, 637195, Note_on_c, 0, 52, 30
2, 637438, Control_c, 0, 64, 127
2, 637539, Note_on_c, 0, 64, 0
2, 637708, Note_on_c, 0, 71, 0
2, 637751, Note_on_c, 0, 76, 0
2, 637919, Note_on_c, 0, 74, 71
2, 638116, Note_on_c, 0, 74, 0
2, 638135, Control_c, 0, 64, 0
2, 638182, Note_on_c, 0, 75, 69
2, 638393, Note_on_c, 0, 75, 0
2, 638478, Note_on_c, 0, 76, 47
2, 638636, Note_on_c, 0, 76, 0
2, 638796, Note_on_c, 0, 79, 34
2, 638869, Note_on_c, 0, 79, 0
2, 639053, Note_on_c, 0, 81, 48
2, 639222, Note_on_c, 0, 81, 0
2, 639373, Note_on_c, 0, 84, 72
2, 639534, Note_on_c, 0, 84, 0
2, 639680, Note_on_c, 0, 81, 33
2, 639876, Note_on_c, 0, 81, 0
2, 639948, Note_on_c, 0, 82, 51
2, 640108, Control_c, 0, 64, 127
2, 640135, Note_on_c, 0, 82, 0
2, 640259, Note_on_c, 0, 86, 60
2, 640398, Note_on_c, 0, 86, 0
2, 640410, Note_on_c, 0, 55, 0
2, 640421, Note_on_c, 0, 52, 0
2, 640431, Note_on_c, 0, 59, 0
2, 640528, Note_on_c, 0, 62, 0
2, 640578, Note_on_c, 0, 89, 41
2, 640709, Note_on_c, 0, 89, 0
2, 640866, Note_on_c, 0, 93, 73
2, 641077, Note_on_c, 0, 93, 0
2, 641178, Note_on_c, 0, 62, 35
2, 641186, Control_c, 0, 64, 0
2, 641205, Note_on_c, 0, 96, 68
2, 641207, Note_on_c, 0, 58, 36
2, 641209, Note_on_c, 0, 84, 62
2, 641236, Note_on_c, 0, 57, 33
2, 641244, Note_on_c, 0, 53, 30
2, 641546, Note_on_c, 0, 84, 0
2, 641653, Note_on_c, 0, 95, 64
2, 641693, Note_on_c, 0, 96, 0
2, 641764, Note_on_c, 0, 94, 50
2, 641813, Note_on_c, 0, 95, 0
2, 641879, Note_on_c, 0, 58, 0
2, 641884, Note_on_c, 0, 94, 0
2, 641900, Note_on_c, 0, 93, 53
2, 641976, Note_on_c, 0, 62, 0
2, 642030, Note_on_c, 0, 93, 0
2, 642258, Note_on_c, 0, 62, 40
2, 642266, Note_on_c, 0, 58, 44
2, 642304, Note_on_c, 0, 90, 60
2, 642567, Note_on_c, 0, 90, 0
2, 642581, Control_c, 0, 64, 127
2, 642602, Note_on_c, 0, 93, 66
2, 642683, Note_on_c, 0, 62, 0
2, 642754, Note_on_c, 0, 57, 0
2, 642826, Note_on_c, 0, 93, 0
2, 642837, Note_on_c, 0, 53, 0
2, 642850, Note_on_c, 0, 58, 0
2, 642939, Note_on_c, 0, 91, 69
2, 643212, Control_c, 0, 64, 0
2, 643233, Note_on_c, 0, 62, 31
2, 643242, Note_on_c, 0, 58, 35
2, 643271, Note_on_c, 0, 52, 28
2, 643469, Note_on_c, 0, 52, 0
2, 643488, Control_c, 0, 64, 127
2, 643530, Note_on_c, 0, 58, 0
2, 643578, Note_on_c, 0, 62, 0
2, 643585, Note_on_c, 0, 91, 0
2, 643607, Note_on_c, 0, 87, 43
2, 643805, Note_on_c, 0, 87, 0
2, 643893, Note_on_c, 0, 89, 62
2, 644103, Note_on_c, 0, 89, 0
2, 644214, Note_on_c, 0, 64, 35
2, 644222, Note_on_c, 0, 88, 60
2, 644230, Note_on_c, 0, 58, 33
2, 644233, Note_on_c, 0, 69, 32
2, 644251, Control_c, 0, 64, 0
2, 644410, Note_on_c, 0, 88, 0
2, 644579, Control_c, 0, 64, 127
2, 644633, Note_on_c, 0, 64, 0
2, 644697, Note_on_c, 0, 69, 0
2, 644756, Note_on_c, 0, 58, 0
2, 644876, Note_on_c, 0, 88, 60
2, 645108, Note_on_c, 0, 88, 0
2, 645171, Control_c, 0, 64, 0
2, 645181, Note_on_c, 0, 64, 33
2, 645192, Note_on_c, 0, 53, 28
2, 645206, Note_on_c, 0, 60, 30
2, 645209, Note_on_c, 0, 57, 36
2, 645407, Control_c, 0, 64, 127
2, 645630, Note_on_c, 0, 64, 0
2, 645665, Note_on_c, 0, 60, 0
2, 645681, Note_on_c, 0, 57, 0
2, 645740, Note_on_c, 0, 53, 0
2, 646053, Control_c, 0, 64, 0
2, 646121, Note_on_c, 0, 71, 62
2, 646123, Note_on_c, 0, 76, 62
2, 646127, Note_on_c, 0, 68, 56
2, 646130, Note_on_c, 0, 64, 66
2, 646134, Note_on_c, 0, 52, 49
2, 646135, Note_on_c, 0, 59, 52
2, 646139, Note_on_c, 0, 56, 49
2, 646192, Note_on_c, 0, 74, 24
2, 646302, Control_c, 0, 64, 127
2, 646341, Note_on_c, 0, 64, 0
2, 646381, Note_on_c, 0, 52, 0
2, 646387, Note_on_c, 0, 59, 0
2, 646392, Note_on_c, 0, 71, 0
2, 646401, Note_on_c, 0, 68, 0
2, 646416, Note_on_c, 0, 74, 0
2, 646441, Note_on_c, 0, 76, 0
2, 646461, Note_on_c, 0, 56, 0
2, 646631, Control_c, 0, 64, 0
2, 646670, Note_on_c, 0, 77, 69
2, 646677, Note_on_c, 0, 57, 54
2, 646678, Note_on_c, 0, 67, 60
2, 646678, Note_on_c, 0, 72, 60
2, 646688, Note_on_c, 0, 60, 38
2, 646689, Note_on_c, 0, 53, 43
2, 646842, Note_on_c, 0, 77, 0
2, 646861, Note_on_c, 0, 72, 0
2, 646871, Control_c, 0, 64, 127
2, 646891, Note_on_c, 0, 60, 0
2, 646905, Note_on_c, 0, 67, 0
2, 647054, Note_on_c, 0, 57, 0
2, 647131, Note_on_c, 0, 53, 0
2, 647148, Control_c, 0, 64, 0
2, 647186, Note_on_c, 0, 67, 62
2, 647189, Note_on_c, 0, 72, 55
2, 647197, Note_on_c, 0, 64, 65
2, 647220, Note_on_c, 0, 69, 44
2, 647227, Note_on_c, 0, 62, 58
2, 647336, Note_on_c, 0, 62, 0
2, 647691, Note_on_c, 0, 60, 67
2, 647712, Control_c, 0, 64, 127
2, 647854, Note_on_c, 0, 69, 0
2, 647868, Note_on_c, 0, 67, 0
2, 647912, Note_on_c, 0, 64, 0
2, 647937, Note_on_c, 0, 72, 0
2, 648041, Control_c, 0, 64, 0
2, 648094, Note_on_c, 0, 74, 68
2, 648097, Note_on_c, 0, 67, 56
2, 648104, Note_on_c, 0, 64, 54
2, 648240, Control_c, 0, 64, 127
2, 648474, Note_on_c, 0, 64, 0
2, 648498, Note_on_c, 0, 67, 0
2, 648531, Note_on_c, 0, 60, 0
2, 648548, Note_on_c, 0, 59, 40
2, 648552, Note_on_c, 0, 74, 0
2, 648604, Note_on_c, 0, 59, 0
2, 648922, Control_c, 0, 64, 0
2, 648977, Note_on_c, 0, 65, 48
2, 648978, Note_on_c, 0, 76, 48
2, 648987, Note_on_c, 0, 69, 49
2, 648999, Note_on_c, 0, 57, 54
2, 649001, Note_on_c, 0, 47, 54
2, 649007, Note_on_c, 0, 71, 44
2, 649046, Note_on_c, 0, 65, 0
2, 649099, Note_on_c, 0, 71, 0
2, 649117, Note_on_c, 0, 69, 0
2, 649171, Control_c, 0, 64, 127
2, 649179, Note_on_c, 0, 76, 0
2, 649201, Note_on_c, 0, 47, 0
2, 649272, Note_on_c, 0, 57, 0
2, 649498, Note_on_c, 0, 88, 84
2, 649831, Note_on_c, 0, 88, 0
2, 649948, Control_c, 0, 64, 0
2, 649950, Note_on_c, 0, 81, 58
2, 649962, Note_on_c, 0, 77, 53
2, 649966, Note_on_c, 0, 83, 55
2, 649989, Note_on_c, 0, 57, 26
2, 649991, Note_on_c, 0, 62, 33
2, 650015, Note_on_c, 0, 83, 0
2, 650044, Note_on_c, 0, 81, 0
2, 650045, Note_on_c, 0, 77, 0
2, 650358, Note_on_c, 0, 62, 0
2, 650461, Note_on_c, 0, 65, 36
2, 650462, Note_on_c, 0, 67, 32
2, 650513, Control_c, 0, 64, 127
2, 650543, Note_on_c, 0, 67, 0
2, 650764, Note_on_c, 0, 65, 0
2, 650879, Note_on_c, 0, 65, 39
2, 650894, Note_on_c, 0, 68, 49
2, 650902, Note_on_c, 0, 70, 50
2, 650934, Control_c, 0, 64, 0
2, 650952, Note_on_c, 0, 57, 0
2, 650967, Note_on_c, 0, 62, 46
2, 651303, Control_c, 0, 64, 127
2, 651394, Note_on_c, 0, 62, 0
2, 651400, Note_on_c, 0, 56, 48
2, 651472, Note_on_c, 0, 56, 0
2, 651737, Note_on_c, 0, 65, 0
2, 651775, Note_on_c, 0, 68, 0
2, 651874, Note_on_c, 0, 68, 43
2, 651882, Note_on_c, 0, 65, 37
2, 651887, Note_on_c, 0, 62, 49
2, 651888, Note_on_c, 0, 74, 53
2, 651895, Control_c, 0, 64, 0
2, 652283, Note_on_c, 0, 62, 0
2, 652313, Note_on_c, 0, 65, 0
2, 652319, Note_on_c, 0, 74, 0
2, 652368, Control_c, 0, 64, 127
2, 652384, Note_on_c, 0, 70, 0
2, 652388, Note_on_c, 0, 52, 31
2, 652404, Note_on_c, 0, 68, 0
2, 652449, Note_on_c, 0, 52, 0
2, 652829, Control_c, 0, 64, 0
2, 653065, Control_c, 0, 64, 127
2, 653236, Control_c, 0, 64, 0
2, 653337, Note_on_c, 0, 76, 59
2, 653341, Note_on_c, 0, 48, 52
2, 653343, Note_on_c, 0, 57, 55
2, 653347, Note_on_c, 0, 69, 67
2, 653350, Note_on_c, 0, 41, 32
2, 653352, Note_on_c, 0, 64, 67
2, 653359, Note_on_c, 0, 72, 54
2, 653555, Control_c, 0, 64, 127
2, 653658, Note_on_c, 0, 64, 0
2, 653698, Note_on_c, 0, 41, 0
2, 653724, Note_on_c, 0, 69, 0
2, 653757, Note_on_c, 0, 48, 0
2, 653761, Note_on_c, 0, 72, 0
2, 653792, Note_on_c, 0, 76, 0
2, 653808, Note_on_c, 0, 57, 0
2, 654314, Note_on_c, 0, 77, 82
2, 654323, Note_on_c, 0, 72, 73
2, 654333, Note_on_c, 0, 64, 71
2, 654335, Note_on_c, 0, 67, 60
2, 654343, Note_on_c, 0, 69, 66
2, 654357, Control_c, 0, 64, 0
2, 654528, Control_c, 0, 64, 127
2, 654628, Note_on_c, 0, 77, 0
2, 654637, Note_on_c, 0, 72, 0
2, 654706, Note_on_c, 0, 67, 0
2, 654720, Note_on_c, 0, 69, 0
2, 654881, Note_on_c, 0, 64, 0
2, 655002, Control_c, 0, 64, 0
2, 655010, Note_on_c, 0, 69, 70
2, 655015, Note_on_c, 0, 72, 57
2, 655017, Note_on_c, 0, 76, 57
2, 655020, Note_on_c, 0, 60, 61
2, 655021, Note_on_c, 0, 67, 67
2, 655264, Control_c, 0, 64, 127
2, 655340, Note_on_c, 0, 67, 0
2, 655356, Note_on_c, 0, 69, 0
2, 655387, Note_on_c, 0, 72, 0
2, 655416, Note_on_c, 0, 76, 0
2, 655631, Control_c, 0, 64, 0
2, 655635, Note_on_c, 0, 77, 66
2, 655642, Note_on_c, 0, 72, 55
2, 655645, Note_on_c, 0, 67, 55
2, 655658, Note_on_c, 0, 62, 55
2, 655715, Note_on_c, 0, 60, 0
2, 655770, Note_on_c, 0, 62, 0
2, 655801, Note_on_c, 0, 67, 0
2, 655803, Control_c, 0, 64, 127
2, 655896, Note_on_c, 0, 72, 0
2, 655902, Note_on_c, 0, 77, 0
2, 656290, Note_on_c, 0, 84, 74
2, 656297, Note_on_c, 0, 79, 68
2, 656307, Note_on_c, 0, 72, 57
2, 656545, Note_on_c, 0, 72, 0
2, 656558, Note_on_c, 0, 84, 0
2, 656583, Note_on_c, 0, 79, 0
2, 656606, Control_c, 0, 64, 0
2, 656618, Note_on_c, 0, 63, 47
2, 656663, Note_on_c, 0, 55, 41
2, 656689, Note_on_c, 0, 84, 40
2, 656699, Note_on_c, 0, 72, 44
2, 656715, Note_on_c, 0, 57, 30
2, 656719, Note_on_c, 0, 79, 37
2, 656901, Note_on_c, 0, 55, 0
2, 656921, Control_c, 0, 64, 127
2, 656929, Note_on_c, 0, 57, 0
2, 656930, Note_on_c, 0, 63, 0
2, 657006, Note_on_c, 0, 79, 0
2, 657012, Note_on_c, 0, 84, 0
2, 657123, Note_on_c, 0, 72, 0
2, 657645, Control_c, 0, 64, 0
2, 657660, Note_on_c, 0, 55, 47
2, 657666, Note_on_c, 0, 45, 44
2, 657682, Note_on_c, 0, 51, 29
2, 657801, Note_on_c, 0, 51, 0
2, 657866, Note_on_c, 0, 45, 0
2, 657895, Control_c, 0, 64, 127
2, 658278, Note_on_c, 0, 39, 30
2, 658304, Note_on_c, 0, 27, 30
2, 658481, Note_on_c, 0, 39, 0
2, 658519, Note_on_c, 0, 27, 0
2, 658519, Note_on_c, 0, 55, 0
2, 658539, Control_c, 0, 64, 0
2, 658594, Note_on_c, 0, 54, 51
2, 658618, Note_on_c, 0, 26, 54
2, 658629, Note_on_c, 0, 38, 36
2, 658741, Note_on_c, 0, 26, 0
2, 658789, Control_c, 0, 64, 127
2, 658821, Note_on_c, 0, 38, 0
2, 658858, Note_on_c, 0, 54, 0
2, 659608, Note_on_c, 0, 64, 48
2, 659609, Note_on_c, 0, 60, 50
2, 659616, Control_c, 0, 64, 0
2, 659629, Note_on_c, 0, 54, 27
2, 659658, Note_on_c, 0, 64, 0
2, 659668, Note_on_c, 0, 60, 0
2, 659742, Note_on_c, 0, 54, 0
2, 659923, Note_on_c, 0, 84, 69
2, 659933, Note_on_c, 0, 72, 44
2, 659977, Note_on_c, 0, 84, 0
2, 660024, Note_on_c, 0, 72, 0
2, 660130, Control_c, 0, 64, 127
2, 660217, Note_on_c, 0, 83, 68
2, 660234, Note_on_c, 0, 71, 50
2, 660298, Note_on_c, 0, 83, 0
2, 660345, Note_on_c, 0, 71, 0
2, 660445, Control_c, 0, 64, 0
2, 660511, Note_on_c, 0, 43, 42
2, 660533, Note_on_c, 0, 82, 58
2, 660553, Note_on_c, 0, 70, 44
2, 660677, Note_on_c, 0, 43, 0
2, 660696, Control_c, 0, 64, 127
2, 661058, Note_on_c, 0, 70, 0
2, 661110, Note_on_c, 0, 82, 0
2, 661566, Note_on_c, 0, 81, 71
2, 661568, Note_on_c, 0, 74, 75
2, 661570, Note_on_c, 0, 69, 77
2, 661577, Note_on_c, 0, 77, 69
2, 661655, Control_c, 0, 64, 0
2, 662042, Note_on_c, 0, 65, 78
2, 662155, Control_c, 0, 64, 127
2, 662958, Control_c, 0, 64, 0
2, 662986, Note_on_c, 0, 64, 71
2, 663015, Note_on_c, 0, 65, 0
2, 663141, Control_c, 0, 64, 127
2, 663286, Control_c, 0, 64, 0
2, 663396, Note_on_c, 0, 64, 0
2, 663467, Note_on_c, 0, 63, 50
2, 663536, Control_c, 0, 64, 127
2, 663771, Note_on_c, 0, 81, 0
2, 663797, Note_on_c, 0, 74, 0
2, 663804, Note_on_c, 0, 77, 0
2, 663848, Note_on_c, 0, 63, 0
2, 663864, Note_on_c, 0, 69, 0
2, 663910, Note_on_c, 0, 62, 41
2, 664028, Note_on_c, 0, 62, 0
2, 664359, Note_on_c, 0, 77, 56
2, 664365, Control_c, 0, 64, 0
2, 664376, Note_on_c, 0, 65, 39
2, 664389, Note_on_c, 0, 73, 35
2, 664390, Note_on_c, 0, 70, 32
2, 664405, Note_on_c, 0, 46, 49
2, 664411, Note_on_c, 0, 56, 37
2, 664667, Control_c, 0, 64, 127
2, 664668, Note_on_c, 0, 77, 0
2, 664777, Note_on_c, 0, 73, 0
2, 664806, Note_on_c, 0, 70, 0
2, 664890, Note_on_c, 0, 65, 0
2, 664981, Note_on_c, 0, 56, 0
2, 664995, Note_on_c, 0, 53, 30
2, 665349, Note_on_c, 0, 61, 44
2, 665357, Note_on_c, 0, 65, 53
2, 665360, Note_on_c, 0, 56, 45
2, 665381, Control_c, 0, 64, 0
2, 665538, Control_c, 0, 64, 127
2, 665844, Note_on_c, 0, 70, 64
2, 666046, Note_on_c, 0, 46, 0
2, 666058, Note_on_c, 0, 56, 0
2, 666074, Note_on_c, 0, 61, 0
2, 666093, Note_on_c, 0, 65, 0
2, 666127, Note_on_c, 0, 70, 0
2, 666248, Control_c, 0, 64, 0
2, 666251, Note_on_c, 0, 53, 0
2, 666295, Note_on_c, 0, 61, 51
2, 666302, Note_on_c, 0, 56, 27
2, 666306, Note_on_c, 0, 51, 40
2, 666308, Note_on_c, 0, 70, 46
2, 666316, Note_on_c, 0, 65, 46
2, 666555, Note_on_c, 0, 56, 0
2, 666703, Note_on_c, 0, 61, 0
2, 666758, Note_on_c, 0, 73, 52
2, 666774, Note_on_c, 0, 58, 53
2, 666778, Note_on_c, 0, 61, 46
2, 666844, Note_on_c, 0, 70, 0
2, 666869, Note_on_c, 0, 73, 0
2, 666919, Control_c, 0, 64, 127
2, 667004, Note_on_c, 0, 58, 0
2, 667054, Note_on_c, 0, 61, 0
2, 667060, Note_on_c, 0, 65, 0
2, 667077, Control_c, 0, 64, 0
2, 667253, Note_on_c, 0, 58, 50
2, 667262, Note_on_c, 0, 61, 49
2, 667265, Note_on_c, 0, 72, 46
2, 667270, Note_on_c, 0, 65, 57
2, 667405, Control_c, 0, 64, 127
2, 667439, Note_on_c, 0, 51, 0
2, 667548, Note_on_c, 0, 72, 0
2, 667582, Note_on_c, 0, 58, 0
2, 667589, Note_on_c, 0, 61, 0
2, 667632, Note_on_c, 0, 65, 0
2, 667668, Control_c, 0, 64, 0
2, 667691, Note_on_c, 0, 61, 39
2, 667693, Note_on_c, 0, 51, 42
2, 667707, Control_c, 0, 64, 127
2, 667718, Note_on_c, 0, 70, 51
2, 667745, Note_on_c, 0, 65, 18
2, 667813, Note_on_c, 0, 65, 0
2, 667823, Note_on_c, 0, 51, 0
2, 667870, Note_on_c, 0, 61, 0
2, 667942, Note_on_c, 0, 70, 0
2, 668064, Control_c, 0, 64, 0
2, 668173, Note_on_c, 0, 60, 41
2, 668175, Note_on_c, 0, 64, 47
2, 668179, Note_on_c, 0, 45, 45
2, 668190, Note_on_c, 0, 69, 47
2, 668199, Note_on_c, 0, 55, 36
2, 668353, Control_c, 0, 64, 127
2, 668397, Note_on_c, 0, 45, 0
2, 668521, Note_on_c, 0, 55, 0
2, 668553, Note_on_c, 0, 60, 0
2, 668696, Note_on_c, 0, 64, 0
2, 668999, Note_on_c, 0, 69, 0
2, 669110, Note_on_c, 0, 64, 41
2, 669138, Note_on_c, 0, 57, 35
2, 669154, Note_on_c, 0, 60, 36
2, 669320, Note_on_c, 0, 64, 0
2, 669588, Control_c, 0, 64, 0
2, 669636, Note_on_c, 0, 68, 50
2, 669700, Note_on_c, 0, 68, 0
2, 669826, Control_c, 0, 64, 127
2, 669989, Note_on_c, 0, 57, 0
2, 670075, Control_c, 0, 64, 0
2, 670099, Note_on_c, 0, 68, 77
2, 670115, Note_on_c, 0, 64, 57
2, 670120, Note_on_c, 0, 56, 52
2, 670225, Note_on_c, 0, 68, 0
2, 670288, Note_on_c, 0, 64, 0
2, 670297, Note_on_c, 0, 69, 33
2, 670385, Note_on_c, 0, 68, 44
2, 670422, Note_on_c, 0, 69, 0
2, 670494, Note_on_c, 0, 64, 52
2, 670523, Note_on_c, 0, 68, 0
2, 670584, Note_on_c, 0, 64, 0
2, 670666, Note_on_c, 0, 67, 63
2, 670794, Note_on_c, 0, 67, 0
2, 670828, Note_on_c, 0, 69, 37
2, 670969, Note_on_c, 0, 67, 34
2, 670969, Control_c, 0, 64, 127
2, 670982, Note_on_c, 0, 69, 0
2, 671036, Note_on_c, 0, 56, 0
2, 671061, Note_on_c, 0, 67, 0
2, 671066, Note_on_c, 0, 64, 48
2, 671114, Control_c, 0, 64, 0
2, 671122, Note_on_c, 0, 64, 0
2, 671146, Note_on_c, 0, 55, 34
2, 671778, Note_on_c, 0, 67, 76
2, 671824, Control_c, 0, 64, 127
2, 671825, Note_on_c, 0, 60, 0
2, 671863, Control_c, 0, 64, 0
2, 671866, Note_on_c, 0, 55, 0
2, 671887, Note_on_c, 0, 67, 0
2, 671911, Note_on_c, 0, 69, 50
2, 672022, Control_c, 0, 64, 127
2, 672030, Note_on_c, 0, 67, 42
2, 672050, Note_on_c, 0, 69, 0
2, 672147, Note_on_c, 0, 64, 51
2, 672148, Note_on_c, 0, 67, 0
2, 672232, Control_c, 0, 64, 0
2, 672245, Note_on_c, 0, 64, 0
2, 672269, Note_on_c, 0, 60, 34
2, 672278, Note_on_c, 0, 54, 33
2, 672299, Note_on_c, 0, 50, 28
2, 672310, Note_on_c, 0, 66, 60
2, 672586, Control_c, 0, 64, 127
2, 672786, Note_on_c, 0, 50, 0
2, 672812, Note_on_c, 0, 54, 0
2, 672895, Note_on_c, 0, 60, 0
2, 673236, Note_on_c, 0, 64, 53
2, 673250, Note_on_c, 0, 60, 37
2, 673278, Note_on_c, 0, 54, 28
2, 673309, Note_on_c, 0, 64, 0
2, 673311, Control_c, 0, 64, 0
2, 673429, Note_on_c, 0, 60, 0
2, 673553, Note_on_c, 0, 54, 0
2, 673653, Control_c, 0, 64, 127
2, 674125, Control_c, 0, 64, 0
2, 674133, Note_on_c, 0, 60, 33
2, 674141, Note_on_c, 0, 54, 34
2, 674383, Note_on_c, 0, 67, 53
2, 674421, Note_on_c, 0, 66, 0
2, 674581, Note_on_c, 0, 67, 0
2, 674598, Note_on_c, 0, 54, 0
2, 674619, Note_on_c, 0, 68, 50
2, 674651, Note_on_c, 0, 60, 0
2, 674665, Control_c, 0, 64, 127
2, 674762, Note_on_c, 0, 68, 0
2, 674797, Note_on_c, 0, 69, 40
2, 674910, Note_on_c, 0, 69, 0
2, 674953, Note_on_c, 0, 70, 55
2, 675032, Control_c, 0, 64, 0
2, 675033, Note_on_c, 0, 64, 24
2, 675036, Note_on_c, 0, 60, 29
2, 675042, Note_on_c, 0, 54, 30
2, 675065, Note_on_c, 0, 70, 0
2, 675109, Note_on_c, 0, 71, 53
2, 675230, Note_on_c, 0, 71, 0
2, 675271, Note_on_c, 0, 72, 32
2, 675349, Note_on_c, 0, 73, 36
2, 675356, Note_on_c, 0, 64, 0
2, 675360, Note_on_c, 0, 60, 0
2, 675410, Note_on_c, 0, 72, 0
2, 675457, Note_on_c, 0, 73, 0
2, 675462, Note_on_c, 0, 54, 0
2, 675586, Control_c, 0, 64, 127
2, 675590, Note_on_c, 0, 75, 42
2, 675702, Note_on_c, 0, 75, 0
2, 675718, Note_on_c, 0, 76, 36
2, 675832, Note_on_c, 0, 77, 58
2, 675839, Note_on_c, 0, 76, 0
2, 675941, Control_c, 0, 64, 0
2, 675986, Note_on_c, 0, 77, 0
2, 676004, Note_on_c, 0, 58, 43
2, 676011, Note_on_c, 0, 62, 24
2, 676013, Note_on_c, 0, 76, 56
2, 676028, Note_on_c, 0, 53, 22
2, 676029, Note_on_c, 0, 57, 24
2, 676273, Control_c, 0, 64, 127
2, 676343, Note_on_c, 0, 62, 0
2, 676398, Note_on_c, 0, 57, 0
2, 676408, Note_on_c, 0, 77, 69
2, 676411, Note_on_c, 0, 58, 0
2, 676450, Note_on_c, 0, 53, 0
2, 676890, Control_c, 0, 64, 0
2, 676908, Note_on_c, 0, 43, 48
2, 677034, Note_on_c, 0, 77, 0
2, 677035, Control_c, 0, 64, 127
2, 677047, Note_on_c, 0, 43, 0
2, 677050, Note_on_c, 0, 76, 0
2, 677900, Note_on_c, 0, 72, 58
2, 677903, Control_c, 0, 64, 0
2, 677910, Note_on_c, 0, 65, 56
2, 677910, Note_on_c, 0, 70, 45
2, 677922, Note_on_c, 0, 55, 47
2, 677928, Note_on_c, 0, 67, 46
2, 678197, Control_c, 0, 64, 127
2, 678405, Note_on_c, 0, 67, 0
2, 678422, Note_on_c, 0, 72, 0
2, 678492, Note_on_c, 0, 70, 0
2, 678501, Note_on_c, 0, 65, 0
2, 678761, Control_c, 0, 64, 0
2, 678774, Note_on_c, 0, 55, 0
2, 678775, Note_on_c, 0, 65, 56
2, 678778, Note_on_c, 0, 74, 60
2, 678793, Note_on_c, 0, 67, 48
2, 678796, Note_on_c, 0, 70, 47
2, 678797, Note_on_c, 0, 57, 43
2, 678894, Note_on_c, 0, 57, 0
2, 678988, Control_c, 0, 64, 127
2, 679093, Note_on_c, 0, 67, 0
2, 679094, Note_on_c, 0, 65, 0
2, 679121, Note_on_c, 0, 74, 0
2, 679144, Note_on_c, 0, 70, 0
2, 679673, Control_c, 0, 64, 0
2, 679679, Note_on_c, 0, 75, 35
2, 679714, Note_on_c, 0, 43, 34
2, 679726, Note_on_c, 0, 75, 0
2, 679742, Note_on_c, 0, 77, 45
2, 679743, Note_on_c, 0, 65, 39
2, 679754, Note_on_c, 0, 52, 30
2, 679755, Note_on_c, 0, 70, 38
2, 679763, Note_on_c, 0, 36, 27
2, 679772, Note_on_c, 0, 74, 41
2, 679888, Note_on_c, 0, 36, 0
2, 679961, Control_c, 0, 64, 127
2, 679985, Note_on_c, 0, 43, 0
2, 680086, Note_on_c, 0, 52, 0
2, 680382, Note_on_c, 0, 74, 0
2, 680409, Note_on_c, 0, 65, 0
2, 680420, Note_on_c, 0, 70, 0
2, 680584, Note_on_c, 0, 77, 0
2, 680667, Note_on_c, 0, 70, 34
2, 680683, Note_on_c, 0, 65, 33
2, 680684, Note_on_c, 0, 74, 38
2, 680698, Note_on_c, 0, 58, 30
2, 680723, Note_on_c, 0, 61, 18
2, 680991, Note_on_c, 0, 65, 0
2, 681074, Note_on_c, 0, 74, 0
2, 681093, Note_on_c, 0, 70, 0
2, 681110, Note_on_c, 0, 61, 0
2, 681610, Note_on_c, 0, 61, 31
2, 681613, Note_on_c, 0, 79, 50
2, 681623, Note_on_c, 0, 73, 35
2, 681631, Control_c, 0, 64, 0
2, 681633, Note_on_c, 0, 70, 34
2, 681634, Note_on_c, 0, 64, 43
2, 681667, Note_on_c, 0, 76, 26
2, 681920, Control_c, 0, 64, 127
2, 682220, Note_on_c, 0, 58, 0
2, 682556, Note_on_c, 0, 58, 35
2, 682605, Note_on_c, 0, 76, 0
2, 682617, Note_on_c, 0, 70, 0
2, 682626, Note_on_c, 0, 79, 0
2, 682706, Note_on_c, 0, 64, 0
2, 682712, Note_on_c, 0, 61, 0
2, 682836, Note_on_c, 0, 73, 0
2, 682935, Note_on_c, 0, 58, 0
2, 683025, Control_c, 0, 64, 0
2, 683060, Note_on_c, 0, 62, 48
2, 683069, Note_on_c, 0, 67, 48
2, 683071, Note_on_c, 0, 57, 36
2, 683086, Note_on_c, 0, 77, 35
2, 683089, Note_on_c, 0, 72, 35
2, 683128, Note_on_c, 0, 67, 0
2, 683161, Note_on_c, 0, 77, 0
2, 683187, Note_on_c, 0, 62, 0
2, 683189, Note_on_c, 0, 72, 0
2, 683202, Note_on_c, 0, 57, 0
2, 683565, Note_on_c, 0, 57, 36
2, 683569, Note_on_c, 0, 62, 32
2, 683580, Note_on_c, 0, 72, 43
2, 683586, Note_on_c, 0, 77, 29
2, 683696, Note_on_c, 0, 77, 0
2, 683703, Note_on_c, 0, 62, 0
2, 683725, Note_on_c, 0, 72, 0
2, 683749, Note_on_c, 0, 57, 0
2, 684043, Note_on_c, 0, 57, 38
2, 684049, Note_on_c, 0, 62, 29
2, 684049, Note_on_c, 0, 77, 35
2, 684052, Note_on_c, 0, 67, 34
2, 684060, Note_on_c, 0, 72, 38
2, 684143, Note_on_c, 0, 67, 0
2, 684157, Note_on_c, 0, 77, 0
2, 684166, Note_on_c, 0, 62, 0
2, 684192, Note_on_c, 0, 72, 0
2, 684202, Note_on_c, 0, 57, 0
2, 684522, Note_on_c, 0, 77, 50
2, 684530, Note_on_c, 0, 57, 39
2, 684531, Note_on_c, 0, 67, 47
2, 684537, Note_on_c, 0, 62, 33
2, 684540, Note_on_c, 0, 72, 44
2, 684696, Control_c, 0, 64, 127
2, 684835, Note_on_c, 0, 67, 0
2, 684917, Note_on_c, 0, 57, 0
2, 684935, Note_on_c, 0, 62, 0
2, 684951, Note_on_c, 0, 72, 0
2, 684957, Note_on_c, 0, 77, 0
2, 685419, Control_c, 0, 64, 0
2, 685448, Note_on_c, 0, 89, 61
2, 685458, Note_on_c, 0, 82, 50
2, 685460, Note_on_c, 0, 65, 49
2, 685461, Note_on_c, 0, 60, 44
2, 685475, Note_on_c, 0, 54, 46
2, 685490, Note_on_c, 0, 77, 35
2, 685577, Note_on_c, 0, 77, 0
2, 685605, Note_on_c, 0, 82, 0
2, 685613, Note_on_c, 0, 65, 0
2, 685637, Note_on_c, 0, 89, 0
2, 685649, Note_on_c, 0, 60, 0
2, 685674, Note_on_c, 0, 54, 0
2, 685920, Note_on_c, 0, 89, 65
2, 685929, Note_on_c, 0, 82, 52
2, 685941, Note_on_c, 0, 60, 44
2, 685943, Note_on_c, 0, 65, 43
2, 685950, Note_on_c, 0, 77, 44
2, 685952, Note_on_c, 0, 54, 42
2, 686063, Note_on_c, 0, 77, 0
2, 686095, Note_on_c, 0, 82, 0
2, 686096, Note_on_c, 0, 89, 0
2, 686121, Note_on_c, 0, 65, 0
2, 686133, Note_on_c, 0, 60, 0
2, 686138, Note_on_c, 0, 54, 0
2, 686423, Note_on_c, 0, 82, 53
2, 686425, Note_on_c, 0, 54, 46
2, 686432, Note_on_c, 0, 89, 47
2, 686433, Note_on_c, 0, 60, 41
2, 686435, Note_on_c, 0, 65, 40
2, 686442, Note_on_c, 0, 77, 53
2, 686694, Control_c, 0, 64, 127
2, 686786, Note_on_c, 0, 89, 0
2, 686860, Note_on_c, 0, 65, 0
2, 686868, Note_on_c, 0, 77, 0
2, 686873, Note_on_c, 0, 60, 0
2, 686877, Note_on_c, 0, 82, 0
2, 686970, Note_on_c, 0, 54, 0
2, 687299, Control_c, 0, 64, 0
2, 687408, Note_on_c, 0, 69, 34
2, 687413, Note_on_c, 0, 62, 37
2, 687428, Note_on_c, 0, 58, 48
2, 687429, Note_on_c, 0, 74, 46
2, 687445, Note_on_c, 0, 81, 28
2, 687449, Note_on_c, 0, 53, 24
2, 687455, Note_on_c, 0, 57, 38
2, 687457, Note_on_c, 0, 77, 44
2, 687537, Note_on_c, 0, 57, 0
2, 687579, Note_on_c, 0, 74, 0
2, 687590, Note_on_c, 0, 69, 0
2, 687596, Note_on_c, 0, 62, 0
2, 687618, Note_on_c, 0, 53, 0
2, 687619, Note_on_c, 0, 77, 0
2, 687627, Note_on_c, 0, 58, 0
2, 687649, Note_on_c, 0, 81, 0
2, 687904, Note_on_c, 0, 81, 34
2, 687911, Note_on_c, 0, 62, 36
2, 687921, Note_on_c, 0, 58, 44
2, 687926, Note_on_c, 0, 74, 39
2, 687929, Note_on_c, 0, 53, 32
2, 687930, Note_on_c, 0, 69, 27
2, 687934, Note_on_c, 0, 57, 33
2, 687938, Note_on_c, 0, 77, 39
2, 688067, Note_on_c, 0, 74, 0
2, 688085, Note_on_c, 0, 69, 0
2, 688090, Note_on_c, 0, 62, 0
2, 688092, Note_on_c, 0, 77, 0
2, 688106, Note_on_c, 0, 53, 0
2, 688110, Note_on_c, 0, 58, 0
2, 688123, Note_on_c, 0, 81, 0
2, 688144, Note_on_c, 0, 57, 0
2, 688397, Note_on_c, 0, 74, 47
2, 688404, Note_on_c, 0, 62, 38
2, 688414, Note_on_c, 0, 81, 25
2, 688420, Note_on_c, 0, 77, 44
2, 688422, Note_on_c, 0, 58, 50
2, 688424, Note_on_c, 0, 69, 25
2, 688439, Note_on_c, 0, 53, 30
2, 688441, Note_on_c, 0, 57, 32
2, 688605, Control_c, 0, 64, 127
2, 688711, Note_on_c, 0, 81, 0
2, 688727, Note_on_c, 0, 77, 0
2, 688735, Note_on_c, 0, 74, 0
2, 688738, Note_on_c, 0, 69, 0
2, 688740, Note_on_c, 0, 53, 0
2, 688741, Note_on_c, 0, 57, 0
2, 688780, Note_on_c, 0, 62, 0
2, 688807, Note_on_c, 0, 58, 0
2, 689314, Control_c, 0, 64, 0
2, 689322, Note_on_c, 0, 64, 50
2, 689342, Note_on_c, 0, 73, 33
2, 689349, Note_on_c, 0, 68, 36
2, 689354, Note_on_c, 0, 63, 32
2, 689368, Note_on_c, 0, 75, 46
2, 689375, Note_on_c, 0, 61, 38
2, 689384, Note_on_c, 0, 70, 42
2, 689400, Note_on_c, 0, 58, 35
2, 689442, Note_on_c, 0, 70, 0
2, 689448, Note_on_c, 0, 64, 0
2, 689492, Note_on_c, 0, 68, 0
2, 689497, Note_on_c, 0, 73, 0
2, 689498, Note_on_c, 0, 63, 0
2, 689519, Note_on_c, 0, 75, 0
2, 689541, Note_on_c, 0, 61, 0
2, 689572, Note_on_c, 0, 58, 0
2, 689799, Note_on_c, 0, 75, 38
2, 689809, Note_on_c, 0, 63, 33
2, 689813, Note_on_c, 0, 68, 43
2, 689820, Note_on_c, 0, 64, 30
2, 689833, Note_on_c, 0, 70, 51
2, 689834, Note_on_c, 0, 58, 45
2, 689837, Note_on_c, 0, 61, 40
2, 689938, Note_on_c, 0, 64, 0
2, 689990, Note_on_c, 0, 68, 0
2, 689993, Note_on_c, 0, 70, 0
2, 690022, Note_on_c, 0, 63, 0
2, 690024, Note_on_c, 0, 75, 0
2, 690031, Note_on_c, 0, 61, 0
2, 690053, Note_on_c, 0, 58, 0
2, 690266, Note_on_c, 0, 75, 38
2, 690284, Note_on_c, 0, 68, 44
2, 690285, Note_on_c, 0, 63, 31
2, 690293, Note_on_c, 0, 64, 28
2, 690302, Note_on_c, 0, 61, 43
2, 690304, Note_on_c, 0, 70, 47
2, 690305, Note_on_c, 0, 58, 44
2, 690552, Note_on_c, 0, 64, 0
2, 690573, Note_on_c, 0, 68, 0
2, 690591, Note_on_c, 0, 70, 0
2, 690620, Note_on_c, 0, 61, 0
2, 690637, Note_on_c, 0, 75, 0
2, 690638, Note_on_c, 0, 58, 0
2, 690645, Note_on_c, 0, 63, 0
2, 691239, Note_on_c, 0, 87, 67
2, 691276, Note_on_c, 0, 48, 39
2, 691277, Note_on_c, 0, 41, 24
2, 691306, Note_on_c, 0, 57, 24
2, 691453, Note_on_c, 0, 41, 0
2, 691486, Note_on_c, 0, 48, 0
2, 691629, Note_on_c, 0, 57, 0
2, 691748, Control_c, 0, 64, 127
2, 691862, Note_on_c, 0, 88, 66
2, 691964, Note_on_c, 0, 87, 0
2, 692168, Note_on_c, 0, 88, 0
2, 692169, Control_c, 0, 64, 0
2, 692191, Note_on_c, 0, 64, 47
2, 692197, Note_on_c, 0, 89, 69
2, 692232, Note_on_c, 0, 60, 25
2, 692246, Note_on_c, 0, 64, 0
2, 692287, Note_on_c, 0, 60, 0
2, 692317, Note_on_c, 0, 89, 0
2, 692815, Note_on_c, 0, 84, 57
2, 692879, Control_c, 0, 64, 127
2, 693051, Note_on_c, 0, 84, 0
2, 693076, Control_c, 0, 64, 0
2, 693150, Note_on_c, 0, 41, 44
2, 693320, Note_on_c, 0, 41, 0
2, 693825, Control_c, 0, 64, 127
2, 693984, Control_c, 0, 64, 0
2, 694053, Note_on_c, 0, 64, 45
2, 694090, Note_on_c, 0, 60, 31
2, 694103, Note_on_c, 0, 53, 20
2, 694133, Note_on_c, 0, 57, 24
2, 694174, Note_on_c, 0, 64, 0
2, 694200, Note_on_c, 0, 60, 0
2, 694237, Note_on_c, 0, 57, 0
2, 694242, Note_on_c, 0, 53, 0
2, 694682, Control_c, 0, 64, 127
2, 694944, Control_c, 0, 64, 0
2, 695057, Note_on_c, 0, 40, 44
2, 695091, Note_on_c, 0, 52, 20
2, 695221, Control_c, 0, 64, 127
2, 695229, Note_on_c, 0, 40, 0
2, 695311, Control_c, 0, 64, 0
2, 695327, Note_on_c, 0, 52, 0
2, 695469, Control_c, 0, 64, 127
2, 695944, Control_c, 0, 64, 0
2, 695997, Note_on_c, 0, 64, 51
2, 696022, Note_on_c, 0, 57, 38
2, 696037, Note_on_c, 0, 62, 47
2, 696087, Note_on_c, 0, 62, 0
2, 696108, Note_on_c, 0, 64, 0
2, 696165, Note_on_c, 0, 57, 0
2, 696613, Control_c, 0, 64, 127
2, 696653, Note_on_c, 0, 83, 74
2, 696671, Note_on_c, 0, 76, 62
2, 696770, Note_on_c, 0, 76, 0
2, 696823, Note_on_c, 0, 83, 0
2, 696878, Control_c, 0, 64, 0
2, 696955, Note_on_c, 0, 28, 60
2, 696999, Note_on_c, 0, 89, 91
2, 697071, Note_on_c, 0, 28, 0
2, 697462, Note_on_c, 0, 88, 56
2, 697531, Note_on_c, 0, 89, 0
2, 697607, Note_on_c, 0, 87, 53
2, 697644, Note_on_c, 0, 88, 0
2, 697704, Control_c, 0, 64, 127
2, 697720, Note_on_c, 0, 87, 0
2, 697735, Note_on_c, 0, 86, 50
2, 697784, Control_c, 0, 64, 0
2, 697816, Note_on_c, 0, 86, 0
2, 697917, Note_on_c, 0, 67, 34
2, 697925, Note_on_c, 0, 62, 37
2, 697937, Note_on_c, 0, 56, 31
2, 697993, Note_on_c, 0, 67, 0
2, 698000, Note_on_c, 0, 62, 0
2, 698060, Note_on_c, 0, 56, 0
2, 698547, Control_c, 0, 64, 127
2, 698810, Control_c, 0, 64, 0
2, 698854, Note_on_c, 0, 41, 44
2, 698991, Note_on_c, 0, 41, 0
2, 699019, Control_c, 0, 64, 127
2, 699507, Note_on_c, 0, 100, 110
2, 699682, Note_on_c, 0, 100, 0
2, 699760, Note_on_c, 0, 100, 78
2, 699829, Note_on_c, 0, 64, 55
2, 699835, Control_c, 0, 64, 0
2, 699852, Note_on_c, 0, 60, 37
2, 699877, Note_on_c, 0, 57, 39
2, 699885, Note_on_c, 0, 64, 0
2, 699919, Note_on_c, 0, 60, 0
2, 699943, Note_on_c, 0, 57, 0
2, 699978, Note_on_c, 0, 100, 0
2, 700094, Note_on_c, 0, 101, 79
2, 700243, Note_on_c, 0, 101, 0
2, 700356, Note_on_c, 0, 101, 74
2, 700415, Control_c, 0, 64, 127
2, 700579, Note_on_c, 0, 101, 0
2, 700583, Note_on_c, 0, 96, 76
2, 700740, Note_on_c, 0, 96, 0
2, 700768, Control_c, 0, 64, 0
2, 700814, Note_on_c, 0, 36, 53
2, 700819, Note_on_c, 0, 96, 68
2, 700885, Note_on_c, 0, 36, 0
2, 701022, Note_on_c, 0, 96, 0
2, 701033, Control_c, 0, 64, 127
2, 701129, Note_on_c, 0, 98, 73
2, 701276, Note_on_c, 0, 98, 0
2, 701371, Note_on_c, 0, 98, 66
2, 701556, Note_on_c, 0, 98, 0
2, 701655, Note_on_c, 0, 100, 83
2, 701716, Control_c, 0, 64, 0
2, 701718, Note_on_c, 0, 64, 49
2, 701744, Note_on_c, 0, 60, 29
2, 701777, Note_on_c, 0, 57, 28
2, 701812, Note_on_c, 0, 64, 0
2, 701853, Note_on_c, 0, 100, 0
2, 701861, Note_on_c, 0, 57, 0
2, 701901, Note_on_c, 0, 60, 0
2, 701934, Note_on_c, 0, 100, 64
2, 701979, Control_c, 0, 64, 127
2, 702122, Note_on_c, 0, 100, 0
2, 702195, Note_on_c, 0, 101, 75
2, 702353, Note_on_c, 0, 101, 0
2, 702442, Note_on_c, 0, 101, 68
2, 702664, Control_c, 0, 64, 0
2, 702665, Note_on_c, 0, 101, 0
2, 702673, Note_on_c, 0, 58, 48
2, 702723, Note_on_c, 0, 48, 35
2, 702752, Note_on_c, 0, 103, 81
2, 702858, Note_on_c, 0, 48, 0
2, 702900, Control_c, 0, 64, 127
2, 702939, Note_on_c, 0, 58, 0
2, 702946, Note_on_c, 0, 103, 0
2, 703111, Note_on_c, 0, 99, 64
2, 703273, Note_on_c, 0, 99, 0
2, 703370, Note_on_c, 0, 91, 71
2, 703511, Note_on_c, 0, 91, 0
2, 703688, Control_c, 0, 64, 0
2, 703692, Note_on_c, 0, 67, 38
2, 703723, Note_on_c, 0, 58, 31
2, 703725, Note_on_c, 0, 62, 34
2, 703740, Note_on_c, 0, 63, 32
2, 703751, Note_on_c, 0, 89, 53
2, 703883, Note_on_c, 0, 89, 0
2, 704161, Note_on_c, 0, 62, 0
2, 704183, Note_on_c, 0, 67, 0
2, 704228, Control_c, 0, 64, 127
2, 704270, Note_on_c, 0, 63, 0
2, 704335, Note_on_c, 0, 58, 0
2, 704623, Control_c, 0, 64, 0
2, 704641, Note_on_c, 0, 66, 56
2, 704666, Note_on_c, 0, 61, 36
2, 704667, Note_on_c, 0, 63, 43
2, 704801, Note_on_c, 0, 66, 0
2, 704818, Note_on_c, 0, 61, 0
2, 704831, Note_on_c, 0, 63, 0
2, 705004, Control_c, 0, 64, 127
2, 705044, Control_c, 0, 64, 0
2, 705268, Note_on_c, 0, 41, 52
2, 705319, Control_c, 0, 64, 127
2, 705321, Note_on_c, 0, 41, 0
2, 705660, Note_on_c, 0, 85, 82
2, 705662, Note_on_c, 0, 92, 87
2, 705671, Note_on_c, 0, 81, 74
2, 705672, Note_on_c, 0, 87, 71
2, 705676, Control_c, 0, 64, 0
2, 705733, Note_on_c, 0, 57, 55
2, 705752, Note_on_c, 0, 66, 33
2, 705915, Note_on_c, 0, 66, 0
2, 705952, Control_c, 0, 64, 127
2, 705961, Note_on_c, 0, 57, 0
2, 705971, Note_on_c, 0, 92, 0
2, 705974, Note_on_c, 0, 81, 0
2, 706029, Note_on_c, 0, 85, 0
2, 706095, Note_on_c, 0, 87, 0
2, 706256, Note_on_c, 0, 90, 73
2, 706263, Note_on_c, 0, 80, 77
2, 706278, Note_on_c, 0, 85, 65
2, 706284, Note_on_c, 0, 66, 55
2, 706286, Note_on_c, 0, 63, 51
2, 706289, Note_on_c, 0, 87, 49
2, 706297, Note_on_c, 0, 61, 46
2, 706480, Note_on_c, 0, 66, 0
2, 706500, Note_on_c, 0, 80, 0
2, 706549, Note_on_c, 0, 85, 0
2, 706550, Note_on_c, 0, 87, 0
2, 706560, Note_on_c, 0, 63, 0
2, 706575, Note_on_c, 0, 61, 0
2, 706577, Note_on_c, 0, 90, 0
2, 706583, Control_c, 0, 64, 0
2, 706604, Note_on_c, 0, 89, 64
2, 706609, Note_on_c, 0, 65, 49
2, 706629, Note_on_c, 0, 84, 64
2, 706635, Note_on_c, 0, 62, 40
2, 706643, Note_on_c, 0, 77, 44
2, 706671, Note_on_c, 0, 60, 28
2, 706697, Note_on_c, 0, 62, 0
2, 706702, Note_on_c, 0, 77, 0
2, 706713, Note_on_c, 0, 65, 0
2, 706722, Note_on_c, 0, 89, 0
2, 706724, Note_on_c, 0, 84, 0
2, 706734, Note_on_c, 0, 60, 0
2, 707135, Control_c, 0, 64, 127
2, 707233, Note_on_c, 0, 34, 31
2, 707282, Note_on_c, 0, 34, 0
2, 707607, Note_on_c, 0, 72, 54
2, 707609, Control_c, 0, 64, 0
2, 707610, Note_on_c, 0, 65, 60
2, 707619, Note_on_c, 0, 57, 58
2, 707620, Note_on_c, 0, 62, 60
2, 707630, Note_on_c, 0, 69, 53
2, 708160, Control_c, 0, 64, 127
2, 708316, Note_on_c, 0, 62, 0
2, 708370, Note_on_c, 0, 69, 0
2, 708431, Note_on_c, 0, 72, 0
2, 708489, Control_c, 0, 64, 0
2, 708531, Note_on_c, 0, 62, 48
2, 708539, Note_on_c, 0, 70, 48
2, 708565, Note_on_c, 0, 55, 40
2, 708585, Note_on_c, 0, 57, 0
2, 708779, Control_c, 0, 64, 127
2, 709023, Note_on_c, 0, 62, 0
2, 709111, Note_on_c, 0, 65, 0
2, 709124, Note_on_c, 0, 70, 0
2, 709135, Note_on_c, 0, 55, 0
2, 709141, Note_on_c, 0, 69, 43
2, 709159, Note_on_c, 0, 53, 30
2, 709325, Note_on_c, 0, 53, 0
2, 709371, Control_c, 0, 64, 0
2, 709384, Note_on_c, 0, 69, 0
2, 709444, Note_on_c, 0, 55, 49
2, 709460, Note_on_c, 0, 70, 48
2, 709468, Note_on_c, 0, 62, 43
2, 709469, Note_on_c, 0, 65, 29
2, 709619, Control_c, 0, 64, 127
2, 709826, Note_on_c, 0, 62, 0
2, 710010, Note_on_c, 0, 65, 0
2, 710066, Note_on_c, 0, 70, 0
2, 710069, Note_on_c, 0, 54, 43
2, 710101, Note_on_c, 0, 72, 64
2, 710111, Note_on_c, 0, 65, 66
2, 710116, Note_on_c, 0, 61, 64
2, 710129, Note_on_c, 0, 69, 60
2, 710132, Note_on_c, 0, 54, 0
2, 710158, Note_on_c, 0, 57, 50
2, 710164, Note_on_c, 0, 55, 0
2, 710213, Control_c, 0, 64, 0
2, 710605, Control_c, 0, 64, 127
2, 710700, Note_on_c, 0, 56, 38
2, 710769, Note_on_c, 0, 57, 0
2, 710810, Note_on_c, 0, 69, 0
2, 710819, Note_on_c, 0, 56, 0
2, 710921, Note_on_c, 0, 61, 0
2, 710999, Note_on_c, 0, 54, 55
2, 711067, Note_on_c, 0, 65, 0
2, 711141, Note_on_c, 0, 72, 0
2, 711188, Note_on_c, 0, 54, 0
2, 711209, Note_on_c, 0, 61, 36
2, 711223, Note_on_c, 0, 65, 49
2, 711238, Control_c, 0, 64, 0
2, 711239, Note_on_c, 0, 53, 52
2, 711247, Note_on_c, 0, 69, 44
2, 711580, Control_c, 0, 64, 127
2, 711592, Note_on_c, 0, 53, 0
2, 711625, Note_on_c, 0, 61, 0
2, 711643, Note_on_c, 0, 65, 0
2, 711680, Note_on_c, 0, 72, 57
2, 711689, Note_on_c, 0, 61, 57
2, 711694, Note_on_c, 0, 65, 33
2, 711697, Control_c, 0, 64, 0
2, 711714, Note_on_c, 0, 57, 69
2, 712026, Control_c, 0, 64, 127
2, 712101, Note_on_c, 0, 61, 0
2, 712113, Note_on_c, 0, 69, 0
2, 712138, Note_on_c, 0, 72, 0
2, 712139, Note_on_c, 0, 65, 0
2, 712144, Control_c, 0, 64, 0
2, 712202, Note_on_c, 0, 61, 54
2, 712205, Note_on_c, 0, 57, 0
2, 712206, Note_on_c, 0, 65, 19
2, 712227, Note_on_c, 0, 70, 50
2, 712252, Note_on_c, 0, 55, 42
2, 712460, Control_c, 0, 64, 127
2, 712648, Note_on_c, 0, 55, 0
2, 712841, Note_on_c, 0, 65, 0
2, 712896, Note_on_c, 0, 61, 0
2, 712897, Note_on_c, 0, 70, 0
2, 713277, Control_c, 0, 64, 0
2, 713287, Note_on_c, 0, 46, 43
2, 713295, Note_on_c, 0, 39, 38
2, 713298, Note_on_c, 0, 63, 38
2, 713316, Note_on_c, 0, 61, 33
2, 713364, Note_on_c, 0, 58, 20
2, 713539, Control_c, 0, 64, 127
2, 713728, Note_on_c, 0, 39, 0
2, 713770, Note_on_c, 0, 46, 0
2, 713988, Note_on_c, 0, 63, 0
2, 714048, Note_on_c, 0, 61, 0
2, 714136, Note_on_c, 0, 58, 0
2, 714222, Control_c, 0, 64, 0
2, 714278, Note_on_c, 0, 57, 42
2, 714279, Note_on_c, 0, 60, 39
2, 714295, Note_on_c, 0, 55, 32
2, 714297, Note_on_c, 0, 45, 37
2, 714304, Note_on_c, 0, 52, 36
2, 714485, Control_c, 0, 64, 127
2, 714529, Note_on_c, 0, 55, 0
2, 714535, Note_on_c, 0, 45, 0
2, 714591, Note_on_c, 0, 52, 0
2, 714628, Note_on_c, 0, 57, 0
2, 714728, Note_on_c, 0, 60, 0
2, 715243, Note_on_c, 0, 63, 50
2, 715248, Note_on_c, 0, 60, 39
2, 715250, Note_on_c, 0, 55, 36
2, 715267, Note_on_c, 0, 57, 48
2, 715314, Control_c, 0, 64, 0
2, 715583, Note_on_c, 0, 72, 78
2, 715583, Note_on_c, 0, 79, 74
2, 715798, Note_on_c, 0, 79, 0
2, 715807, Note_on_c, 0, 55, 0
2, 715810, Note_on_c, 0, 60, 0
2, 715814, Control_c, 0, 64, 127
2, 715822, Note_on_c, 0, 63, 0
2, 715841, Note_on_c, 0, 57, 0
2, 715882, Note_on_c, 0, 76, 60
2, 715952, Note_on_c, 0, 72, 0
2, 716072, Note_on_c, 0, 76, 0
2, 716196, Control_c, 0, 64, 0
2, 716210, Note_on_c, 0, 72, 51
2, 716211, Note_on_c, 0, 54, 37
2, 716213, Note_on_c, 0, 65, 39
2, 716221, Note_on_c, 0, 80, 49
2, 716221, Note_on_c, 0, 60, 34
2, 716263, Note_on_c, 0, 68, 25
2, 716289, Note_on_c, 0, 76, 27
2, 716511, Control_c, 0, 64, 127
2, 716580, Note_on_c, 0, 65, 0
2, 716604, Note_on_c, 0, 60, 0
2, 716673, Note_on_c, 0, 72, 0
2, 716698, Note_on_c, 0, 76, 0
2, 716703, Note_on_c, 0, 54, 0
2, 716723, Note_on_c, 0, 68, 0
2, 716795, Note_on_c, 0, 80, 0
2, 717168, Control_c, 0, 64, 0
2, 717202, Note_on_c, 0, 60, 33
2, 717211, Note_on_c, 0, 72, 38
2, 717218, Note_on_c, 0, 84, 44
2, 717226, Note_on_c, 0, 50, 31
2, 717227, Note_on_c, 0, 86, 36
2, 717234, Note_on_c, 0, 54, 27
2, 717358, Note_on_c, 0, 86, 0
2, 717424, Note_on_c, 0, 60, 0
2, 717445, Control_c, 0, 64, 127
2, 717458, Note_on_c, 0, 54, 0
2, 717505, Note_on_c, 0, 50, 0
2, 717652, Note_on_c, 0, 84, 0
2, 717811, Note_on_c, 0, 72, 0
2, 718076, Control_c, 0, 64, 0
2, 718122, Note_on_c, 0, 82, 40
2, 718137, Note_on_c, 0, 70, 32
2, 718144, Note_on_c, 0, 43, 34
2, 718160, Note_on_c, 0, 50, 35
2, 718189, Note_on_c, 0, 77, 33
2, 718291, Note_on_c, 0, 43, 0
2, 718312, Control_c, 0, 64, 127
2, 718363, Note_on_c, 0, 50, 0
2, 718580, Note_on_c, 0, 70, 0
2, 718636, Note_on_c, 0, 77, 0
2, 718803, Note_on_c, 0, 82, 0
2, 719086, Note_on_c, 0, 62, 37
2, 719101, Note_on_c, 0, 57, 35
2, 719103, Note_on_c, 0, 53, 28
2, 719104, Note_on_c, 0, 58, 47
2, 719115, Control_c, 0, 64, 0
2, 719431, Control_c, 0, 64, 127
2, 719444, Note_on_c, 0, 84, 74
2, 719461, Note_on_c, 0, 72, 58
2, 719581, Note_on_c, 0, 57, 0
2, 719596, Note_on_c, 0, 53, 0
2, 719627, Note_on_c, 0, 72, 0
2, 719657, Note_on_c, 0, 84, 0
2, 719674, Note_on_c, 0, 62, 0
2, 719688, Note_on_c, 0, 58, 0
2, 719763, Note_on_c, 0, 81, 42
2, 719847, Note_on_c, 0, 81, 0
2, 720074, Control_c, 0, 64, 0
2, 720075, Note_on_c, 0, 64, 40
2, 720077, Note_on_c, 0, 58, 47
2, 720078, Note_on_c, 0, 82, 49
2, 720079, Note_on_c, 0, 85, 52
2, 720090, Note_on_c, 0, 73, 46
2, 720091, Note_on_c, 0, 61, 39
2, 720092, Note_on_c, 0, 78, 52
2, 720326, Control_c, 0, 64, 127
2, 720388, Note_on_c, 0, 64, 0
2, 720424, Note_on_c, 0, 61, 0
2, 720447, Note_on_c, 0, 58, 0
2, 720582, Note_on_c, 0, 73, 0
2, 720612, Note_on_c, 0, 78, 0
2, 720660, Note_on_c, 0, 82, 0
2, 720688, Note_on_c, 0, 85, 0
2, 720970, Control_c, 0, 64, 0
2, 720981, Note_on_c, 0, 58, 39
2, 720992, Note_on_c, 0, 87, 57
2, 720999, Note_on_c, 0, 75, 44
2, 721008, Note_on_c, 0, 82, 49
2, 721030, Note_on_c, 0, 48, 30
2, 721095, Note_on_c, 0, 58, 0
2, 721096, Note_on_c, 0, 48, 0
2, 721218, Control_c, 0, 64, 127
2, 721478, Note_on_c, 0, 75, 0
2, 721533, Note_on_c, 0, 87, 0
2, 721602, Note_on_c, 0, 82, 0
2, 721647, Note_on_c, 0, 88, 61
2, 721648, Note_on_c, 0, 76, 60
2, 721669, Note_on_c, 0, 81, 68
2, 721683, Note_on_c, 0, 84, 70
2, 721917, Note_on_c, 0, 84, 0
2, 721920, Note_on_c, 0, 76, 0
2, 721941, Note_on_c, 0, 88, 0
2, 721958, Note_on_c, 0, 81, 0
2, 721996, Note_on_c, 0, 41, 25
2, 722008, Control_c, 0, 64, 0
2, 722017, Note_on_c, 0, 48, 38
2, 722043, Note_on_c, 0, 57, 53
2, 722046, Note_on_c, 0, 88, 50
2, 722068, Note_on_c, 0, 81, 54
2, 722071, Note_on_c, 0, 76, 40
2, 722080, Note_on_c, 0, 84, 54
2, 722262, Note_on_c, 0, 41, 0
2, 722310, Control_c, 0, 64, 127
2, 722353, Note_on_c, 0, 48, 0
2, 722442, Note_on_c, 0, 57, 0
2, 722895, Note_on_c, 0, 64, 39
2, 722914, Note_on_c, 0, 60, 37
2, 722925, Note_on_c, 0, 57, 37
2, 722947, Note_on_c, 0, 53, 22
2, 722989, Note_on_c, 0, 88, 0
2, 723017, Note_on_c, 0, 84, 0
2, 723035, Note_on_c, 0, 81, 0
2, 723103, Note_on_c, 0, 76, 0
2, 723316, Note_on_c, 0, 64, 0
2, 723515, Note_on_c, 0, 79, 73
2, 723526, Note_on_c, 0, 76, 72
2, 723529, Note_on_c, 0, 72, 74
2, 723532, Note_on_c, 0, 69, 73
2, 723543, Note_on_c, 0, 64, 67
2, 723572, Note_on_c, 0, 57, 0
2, 723830, Note_on_c, 0, 79, 0
2, 723843, Note_on_c, 0, 64, 0
2, 723851, Note_on_c, 0, 76, 0
2, 723872, Note_on_c, 0, 69, 0
2, 723918, Note_on_c, 0, 72, 0
2, 724165, Note_on_c, 0, 60, 0
2, 724207, Note_on_c, 0, 77, 63
2, 724220, Note_on_c, 0, 72, 54
2, 724223, Note_on_c, 0, 69, 55
2, 724244, Note_on_c, 0, 62, 57
2, 724309, Control_c, 0, 64, 0
2, 724493, Control_c, 0, 64, 127
2, 724594, Note_on_c, 0, 72, 0
2, 724599, Note_on_c, 0, 77, 0
2, 724648, Note_on_c, 0, 69, 0
2, 724821, Note_on_c, 0, 76, 66
2, 724821, Control_c, 0, 64, 0
2, 724838, Note_on_c, 0, 62, 0
2, 724841, Note_on_c, 0, 70, 54
2, 724843, Note_on_c, 0, 67, 48
2, 724858, Note_on_c, 0, 61, 44
2, 724867, Note_on_c, 0, 73, 32
2, 725032, Control_c, 0, 64, 127
2, 725087, Note_on_c, 0, 67, 0
2, 725129, Note_on_c, 0, 70, 0
2, 725137, Note_on_c, 0, 76, 0
2, 725196, Note_on_c, 0, 73, 0
2, 725371, Note_on_c, 0, 61, 0
2, 725372, Note_on_c, 0, 77, 69
2, 725378, Note_on_c, 0, 62, 54
2, 725397, Note_on_c, 0, 72, 57
2, 725397, Note_on_c, 0, 69, 59
2, 725435, Note_on_c, 0, 53, 0
2, 725578, Note_on_c, 0, 77, 0
2, 725603, Note_on_c, 0, 72, 0
2, 725655, Note_on_c, 0, 69, 0
2, 725722, Note_on_c, 0, 62, 0
2, 725860, Note_on_c, 0, 76, 47
2, 725878, Note_on_c, 0, 65, 38
2, 725887, Control_c, 0, 64, 0
2, 725889, Note_on_c, 0, 69, 51
2, 725898, Note_on_c, 0, 64, 53
2, 725901, Note_on_c, 0, 71, 36
2, 726230, Control_c, 0, 64, 127
2, 726694, Note_on_c, 0, 64, 0
2, 726749, Note_on_c, 0, 62, 48
2, 726908, Note_on_c, 0, 62, 0
2, 727255, Note_on_c, 0, 71, 0
2, 727256, Note_on_c, 0, 69, 0
2, 727286, Note_on_c, 0, 76, 0
2, 727377, Note_on_c, 0, 65, 0
2, 727623, Control_c, 0, 64, 0
2, 727667, Note_on_c, 0, 52, 33
2, 727673, Note_on_c, 0, 68, 34
2, 727674, Note_on_c, 0, 40, 32
2, 727681, Note_on_c, 0, 65, 30
2, 727819, Note_on_c, 0, 40, 0
2, 727820, Control_c, 0, 64, 127
2, 727887, Note_on_c, 0, 65, 0
2, 727960, Note_on_c, 0, 68, 0
2, 727977, Note_on_c, 0, 52, 0
2, 728317, Note_on_c, 0, 88, 70
2, 728326, Note_on_c, 0, 86, 64
2, 728476, Note_on_c, 0, 86, 0
2, 728489, Note_on_c, 0, 88, 0
2, 728660, Note_on_c, 0, 77, 65
2, 728689, Control_c, 0, 64, 0
2, 728860, Note_on_c, 0, 77, 0
2, 728954, Note_on_c, 0, 79, 53
2, 729082, Control_c, 0, 64, 127
2, 729137, Note_on_c, 0, 79, 0
2, 729258, Note_on_c, 0, 80, 64
2, 729476, Note_on_c, 0, 80, 0
2, 729549, Note_on_c, 0, 81, 68
2, 729599, Note_on_c, 0, 41, 41
2, 729635, Control_c, 0, 64, 0
2, 729782, Note_on_c, 0, 81, 0
2, 729783, Note_on_c, 0, 41, 0
2, 729851, Note_on_c, 0, 82, 53
2, 730005, Control_c, 0, 64, 127
2, 730069, Note_on_c, 0, 82, 0
2, 730145, Note_on_c, 0, 83, 71
2, 730342, Note_on_c, 0, 83, 0
2, 730448, Note_on_c, 0, 86, 73
2, 730634, Control_c, 0, 64, 0
2, 730659, Note_on_c, 0, 64, 51
2, 730675, Note_on_c, 0, 60, 38
2, 730695, Note_on_c, 0, 86, 0
2, 730713, Note_on_c, 0, 64, 0
2, 730718, Note_on_c, 0, 83, 48
2, 730725, Note_on_c, 0, 53, 22
2, 730758, Note_on_c, 0, 60, 0
2, 730880, Note_on_c, 0, 53, 0
2, 730915, Note_on_c, 0, 83, 0
2, 730950, Control_c, 0, 64, 127
2, 730974, Note_on_c, 0, 84, 62
2, 731125, Note_on_c, 0, 84, 0
2, 731242, Note_on_c, 0, 88, 58
2, 731450, Control_c, 0, 64, 0
2, 731508, Note_on_c, 0, 91, 66
2, 731515, Note_on_c, 0, 36, 52
2, 731524, Note_on_c, 0, 88, 0
2, 731568, Note_on_c, 0, 36, 0
2, 731659, Note_on_c, 0, 91, 0
2, 731660, Control_c, 0, 64, 127
2, 731870, Note_on_c, 0, 96, 67
2, 732087, Note_on_c, 0, 96, 0
2, 732235, Note_on_c, 0, 96, 73
2, 732437, Control_c, 0, 64, 0
2, 732454, Note_on_c, 0, 96, 0
2, 732457, Note_on_c, 0, 64, 53
2, 732487, Note_on_c, 0, 60, 34
2, 732512, Note_on_c, 0, 53, 22
2, 732518, Note_on_c, 0, 57, 30
2, 732579, Note_on_c, 0, 64, 0
2, 732601, Note_on_c, 0, 53, 0
2, 732660, Control_c, 0, 64, 127
2, 732663, Note_on_c, 0, 96, 73
2, 732664, Note_on_c, 0, 57, 0
2, 732714, Note_on_c, 0, 60, 0
2, 732957, Note_on_c, 0, 96, 0
2, 733149, Note_on_c, 0, 95, 85
2, 733488, Control_c, 0, 64, 0
2, 733509, Note_on_c, 0, 94, 77
2, 733510, Note_on_c, 0, 67, 47
2, 733527, Note_on_c, 0, 62, 46
2, 733544, Note_on_c, 0, 63, 38
2, 733571, Note_on_c, 0, 95, 0
2, 733752, Control_c, 0, 64, 127
2, 733912, Note_on_c, 0, 67, 0
2, 733975, Note_on_c, 0, 62, 0
2, 733984, Note_on_c, 0, 63, 0
2, 734007, Note_on_c, 0, 94, 0
2, 734409, Control_c, 0, 64, 0
2, 734417, Note_on_c, 0, 87, 37
2, 734427, Note_on_c, 0, 67, 35
2, 734443, Note_on_c, 0, 63, 36
2, 734475, Note_on_c, 0, 83, 30
2, 734594, Control_c, 0, 64, 127
2, 734746, Note_on_c, 0, 67, 0
2, 734782, Note_on_c, 0, 83, 0
2, 734859, Note_on_c, 0, 63, 0
2, 734866, Note_on_c, 0, 87, 0
2, 735309, Note_on_c, 0, 89, 51
2, 735316, Control_c, 0, 64, 0
2, 735323, Note_on_c, 0, 84, 58
2, 735331, Note_on_c, 0, 66, 38
2, 735347, Note_on_c, 0, 63, 35
2, 735354, Note_on_c, 0, 61, 29
2, 735402, Note_on_c, 0, 57, 22
2, 735536, Note_on_c, 0, 89, 0
2, 735567, Control_c, 0, 64, 127
2, 735617, Note_on_c, 0, 84, 0
2, 735809, Note_on_c, 0, 66, 0
2, 736040, Note_on_c, 0, 63, 0
2, 736097, Note_on_c, 0, 61, 0
2, 736315, Note_on_c, 0, 66, 54
2, 736323, Note_on_c, 0, 61, 37
2, 736327, Note_on_c, 0, 63, 46
2, 736349, Note_on_c, 0, 74, 58
2, 736351, Note_on_c, 0, 72, 65
2, 736530, Note_on_c, 0, 74, 0
2, 736684, Note_on_c, 0, 66, 0
2, 736919, Note_on_c, 0, 57, 0
2, 736937, Note_on_c, 0, 69, 50
2, 736995, Note_on_c, 0, 63, 0
2, 737017, Note_on_c, 0, 61, 0
2, 737202, Note_on_c, 0, 65, 36
2, 737231, Note_on_c, 0, 62, 35
2, 737242, Note_on_c, 0, 60, 30
2, 737302, Control_c, 0, 64, 0
2, 737413, Note_on_c, 0, 65, 0
2, 737484, Note_on_c, 0, 72, 0
2, 737490, Note_on_c, 0, 69, 0
2, 737609, Note_on_c, 0, 65, 65
2, 737828, Control_c, 0, 64, 127
2, 738050, Note_on_c, 0, 62, 0
2, 738136, Note_on_c, 0, 60, 0
2, 738169, Note_on_c, 0, 65, 0
2, 738184, Control_c, 0, 64, 0
2, 738197, Note_on_c, 0, 62, 46
2, 738198, Note_on_c, 0, 53, 33
2, 738324, Note_on_c, 0, 62, 0
2, 738433, Control_c, 0, 64, 127
2, 738788, Control_c, 0, 64, 0
2, 738819, Note_on_c, 0, 84, 95
2, 738828, Note_on_c, 0, 77, 80
2, 738841, Control_c, 0, 64, 127
2, 738851, Note_on_c, 0, 79, 57
2, 738896, Note_on_c, 0, 79, 0
2, 739156, Control_c, 0, 64, 0
2, 739182, Note_on_c, 0, 65, 38
2, 739202, Note_on_c, 0, 60, 33
2, 739203, Note_on_c, 0, 62, 35
2, 739380, Control_c, 0, 64, 127
2, 739388, Note_on_c, 0, 77, 0
2, 739400, Note_on_c, 0, 84, 0
2, 739468, Note_on_c, 0, 81, 59
2, 739484, Note_on_c, 0, 72, 50
2, 739490, Note_on_c, 0, 77, 48
2, 739708, Note_on_c, 0, 81, 0
2, 739741, Note_on_c, 0, 77, 0
2, 739818, Note_on_c, 0, 65, 0
2, 739846, Note_on_c, 0, 72, 0
2, 739917, Note_on_c, 0, 62, 0
2, 739948, Note_on_c, 0, 60, 0
2, 740090, Control_c, 0, 64, 0
2, 740106, Note_on_c, 0, 62, 29
2, 740115, Note_on_c, 0, 65, 36
2, 740117, Note_on_c, 0, 74, 70
2, 740120, Note_on_c, 0, 77, 53
2, 740138, Note_on_c, 0, 69, 44
2, 740141, Note_on_c, 0, 60, 30
2, 740183, Note_on_c, 0, 65, 0
2, 740246, Note_on_c, 0, 62, 0
2, 740255, Note_on_c, 0, 60, 0
2, 740275, Control_c, 0, 64, 127
2, 740296, Note_on_c, 0, 74, 0
2, 740333, Note_on_c, 0, 77, 0
2, 740355, Note_on_c, 0, 53, 0
2, 740382, Note_on_c, 0, 69, 0
2, 740743, Note_on_c, 0, 65, 54
2, 740762, Note_on_c, 0, 61, 59
2, 740853, Control_c, 0, 64, 0
2, 741020, Note_on_c, 0, 61, 0
2, 741027, Note_on_c, 0, 56, 37
2, 741042, Note_on_c, 0, 46, 36
2, 741049, Note_on_c, 0, 65, 0
2, 741050, Control_c, 0, 64, 127
2, 741317, Note_on_c, 0, 46, 0
2, 741378, Note_on_c, 0, 84, 88
2, 741385, Note_on_c, 0, 77, 82
2, 741390, Note_on_c, 0, 56, 0
2, 741840, Note_on_c, 0, 84, 0
2, 741865, Note_on_c, 0, 77, 0
2, 741958, Control_c, 0, 64, 0
2, 741966, Note_on_c, 0, 82, 71
2, 741986, Note_on_c, 0, 61, 39
2, 741987, Note_on_c, 0, 77, 62
2, 741992, Note_on_c, 0, 65, 45
2, 742005, Note_on_c, 0, 73, 49
2, 742012, Note_on_c, 0, 56, 33
2, 742022, Note_on_c, 0, 60, 33
2, 742091, Note_on_c, 0, 60, 0
2, 742118, Note_on_c, 0, 65, 0
2, 742155, Control_c, 0, 64, 127
2, 742180, Note_on_c, 0, 61, 0
2, 742200, Note_on_c, 0, 56, 0
2, 742315, Note_on_c, 0, 73, 0
2, 742331, Note_on_c, 0, 77, 0
2, 742511, Note_on_c, 0, 82, 0
2, 742631, Note_on_c, 0, 81, 60
2, 742633, Note_on_c, 0, 73, 50
2, 742638, Note_on_c, 0, 77, 63
2, 742903, Note_on_c, 0, 81, 0
2, 742916, Note_on_c, 0, 73, 0
2, 742925, Note_on_c, 0, 77, 0
2, 742930, Control_c, 0, 64, 0
2, 742967, Note_on_c, 0, 27, 37
2, 743093, Note_on_c, 0, 27, 0
2, 743102, Control_c, 0, 64, 127
2, 743303, Note_on_c, 0, 77, 54
2, 743308, Note_on_c, 0, 70, 46
2, 743319, Note_on_c, 0, 73, 44
2, 743365, Note_on_c, 0, 65, 24
2, 743554, Note_on_c, 0, 77, 0
2, 743598, Note_on_c, 0, 73, 0
2, 743617, Note_on_c, 0, 65, 0
2, 743644, Note_on_c, 0, 70, 0
2, 743891, Note_on_c, 0, 73, 34
2, 743912, Note_on_c, 0, 68, 55
2, 743930, Note_on_c, 0, 63, 44
2, 743945, Control_c, 0, 64, 0
2, 743951, Note_on_c, 0, 58, 46
2, 744141, Control_c, 0, 64, 127
2, 744392, Note_on_c, 0, 63, 0
2, 744435, Note_on_c, 0, 58, 0
2, 744443, Note_on_c, 0, 73, 0
2, 744670, Note_on_c, 0, 68, 0
2, 744890, Control_c, 0, 64, 0
2, 744901, Note_on_c, 0, 72, 42
2, 744905, Note_on_c, 0, 62, 41
2, 744908, Note_on_c, 0, 67, 46
2, 744917, Note_on_c, 0, 57, 33
2, 745074, Control_c, 0, 64, 127
2, 745186, Note_on_c, 0, 57, 0
2, 745236, Note_on_c, 0, 72, 0
2, 745259, Note_on_c, 0, 67, 0
2, 745381, Note_on_c, 0, 62, 0
2, 745861, Note_on_c, 0, 60, 43
2, 745865, Note_on_c, 0, 69, 48
2, 745872, Note_on_c, 0, 64, 48
2, 745888, Note_on_c, 0, 41, 33
2, 745915, Control_c, 0, 64, 0
2, 745934, Note_on_c, 0, 48, 24
2, 746126, Control_c, 0, 64, 127
2, 746155, Note_on_c, 0, 69, 0
2, 746189, Note_on_c, 0, 64, 0
2, 746250, Note_on_c, 0, 60, 0
2, 746251, Note_on_c, 0, 48, 0
2, 746710, Note_on_c, 0, 50, 40
2, 746838, Note_on_c, 0, 57, 51
2, 746839, Note_on_c, 0, 60, 49
2, 746844, Note_on_c, 0, 55, 48
2, 746861, Note_on_c, 0, 52, 54
2, 746882, Note_on_c, 0, 50, 0
2, 746929, Control_c, 0, 64, 0
2, 747373, Note_on_c, 0, 57, 0
2, 747375, Note_on_c, 0, 50, 57
2, 747386, Note_on_c, 0, 52, 0
2, 747391, Note_on_c, 0, 55, 0
2, 747507, Control_c, 0, 64, 127
2, 747521, Note_on_c, 0, 60, 0
2, 747572, Control_c, 0, 64, 0
2, 747816, Note_on_c, 0, 52, 48
2, 747825, Note_on_c, 0, 50, 0
2, 747840, Note_on_c, 0, 60, 50
2, 747846, Note_on_c, 0, 57, 49
2, 747852, Note_on_c, 0, 55, 43
2, 747902, Control_c, 0, 64, 127
2, 748282, Note_on_c, 0, 57, 0
2, 748283, Note_on_c, 0, 55, 0
2, 748302, Note_on_c, 0, 52, 0
2, 748319, Note_on_c, 0, 60, 0
2, 748335, Note_on_c, 0, 50, 62
2, 748510, Note_on_c, 0, 41, 0
2, 748773, Note_on_c, 0, 58, 71
2, 748774, Note_on_c, 0, 63, 58
2, 748783, Note_on_c, 0, 55, 65
2, 748785, Note_on_c, 0, 65, 63
2, 748794, Note_on_c, 0, 50, 0
2, 748809, Note_on_c, 0, 53, 50
2, 748811, Control_c, 0, 64, 0
2, 749270, Control_c, 0, 64, 127
2, 749282, Note_on_c, 0, 52, 66
2, 749347, Note_on_c, 0, 53, 0
2, 749552, Note_on_c, 0, 55, 0
2, 749624, Note_on_c, 0, 58, 0
2, 749648, Note_on_c, 0, 65, 0
2, 749742, Control_c, 0, 64, 0
2, 749749, Note_on_c, 0, 63, 0
2, 749793, Note_on_c, 0, 53, 42
2, 749795, Note_on_c, 0, 52, 0
2, 749801, Note_on_c, 0, 58, 57
2, 749809, Note_on_c, 0, 65, 45
2, 749813, Note_on_c, 0, 63, 13
2, 749825, Note_on_c, 0, 55, 54
2, 750007, Control_c, 0, 64, 127
2, 750152, Note_on_c, 0, 53, 0
2, 750293, Note_on_c, 0, 53, 49
2, 750309, Note_on_c, 0, 55, 0
2, 750377, Note_on_c, 0, 65, 0
2, 750405, Note_on_c, 0, 58, 0
2, 750467, Note_on_c, 0, 63, 0
2, 750770, Note_on_c, 0, 53, 0
2, 750780, Note_on_c, 0, 66, 50
2, 750787, Note_on_c, 0, 57, 44
2, 750797, Note_on_c, 0, 63, 46
2, 750814, Note_on_c, 0, 54, 51
2, 750821, Note_on_c, 0, 59, 51
2, 750822, Control_c, 0, 64, 0
2, 751098, Control_c, 0, 64, 127
2, 751205, Note_on_c, 0, 54, 0
2, 751279, Note_on_c, 0, 59, 0
2, 751280, Note_on_c, 0, 54, 25
2, 751311, Note_on_c, 0, 57, 0
2, 751374, Note_on_c, 0, 66, 0
2, 751612, Note_on_c, 0, 63, 0
2, 751739, Note_on_c, 0, 54, 0
2, 751748, Note_on_c, 0, 63, 26
2, 751764, Note_on_c, 0, 56, 47
2, 751764, Note_on_c, 0, 68, 43
2, 751767, Control_c, 0, 64, 0
2, 751782, Note_on_c, 0, 59, 31
2, 751793, Note_on_c, 0, 57, 27
2, 751809, Control_c, 0, 64, 127
2, 752083, Note_on_c, 0, 59, 0
2, 752169, Note_on_c, 0, 57, 0
2, 752251, Note_on_c, 0, 54, 37
2, 752267, Note_on_c, 0, 56, 0
2, 752272, Note_on_c, 0, 68, 0
2, 752276, Note_on_c, 0, 63, 0
2, 752512, Note_on_c, 0, 54, 0
2, 752637, Control_c, 0, 64, 0
2, 752655, Note_on_c, 0, 62, 46
2, 752668, Note_on_c, 0, 46, 32
2, 752675, Note_on_c, 0, 69, 45
2, 752685, Note_on_c, 0, 57, 30
2, 752686, Note_on_c, 0, 65, 38
2, 752707, Note_on_c, 0, 53, 30
2, 752875, Control_c, 0, 64, 127
2, 752920, Note_on_c, 0, 53, 0
2, 752962, Note_on_c, 0, 46, 0
2, 752984, Note_on_c, 0, 62, 0
2, 753058, Note_on_c, 0, 57, 0
2, 753098, Note_on_c, 0, 65, 0
2, 753198, Note_on_c, 0, 69, 0
2, 753579, Note_on_c, 0, 65, 40
2, 753619, Note_on_c, 0, 62, 38
2, 753651, Note_on_c, 0, 60, 32
2, 753705, Control_c, 0, 64, 0
2, 753950, Note_on_c, 0, 69, 55
2, 753951, Note_on_c, 0, 65, 0
2, 754034, Control_c, 0, 64, 127
2, 754081, Note_on_c, 0, 69, 0
2, 754256, Note_on_c, 0, 70, 79
2, 754467, Control_c, 0, 64, 0
2, 754484, Note_on_c, 0, 70, 0
2, 754509, Note_on_c, 0, 53, 35
2, 754577, Note_on_c, 0, 65, 44
2, 754729, Note_on_c, 0, 65, 0
2, 754872, Note_on_c, 0, 60, 0
2, 754922, Note_on_c, 0, 65, 35
2, 755006, Note_on_c, 0, 62, 0
2, 755015, Note_on_c, 0, 65, 0
2, 755253, Note_on_c, 0, 67, 51
2, 755283, Control_c, 0, 64, 127
2, 755350, Note_on_c, 0, 67, 0
2, 755427, Control_c, 0, 64, 0
2, 755464, Note_on_c, 0, 65, 32
2, 755489, Note_on_c, 0, 62, 34
2, 755489, Note_on_c, 0, 60, 29
2, 755691, Control_c, 0, 64, 127
2, 755738, Note_on_c, 0, 65, 0
2, 755749, Note_on_c, 0, 53, 0
2, 756084, Note_on_c, 0, 60, 0
2, 756109, Note_on_c, 0, 62, 0
2, 756112, Note_on_c, 0, 53, 24
2, 756195, Note_on_c, 0, 53, 0
2, 756401, Control_c, 0, 64, 0
2, 756462, Note_on_c, 0, 93, 64
2, 756481, Note_on_c, 0, 81, 36
2, 756496, Note_on_c, 0, 62, 27
2, 756500, Note_on_c, 0, 58, 31
2, 756508, Note_on_c, 0, 86, 32
2, 756525, Note_on_c, 0, 52, 27
2, 756561, Note_on_c, 0, 81, 0
2, 756570, Note_on_c, 0, 86, 0
2, 756592, Note_on_c, 0, 93, 0
2, 756651, Note_on_c, 0, 62, 0
2, 756653, Note_on_c, 0, 52, 0
2, 756657, Note_on_c, 0, 58, 0
2, 756901, Control_c, 0, 64, 127
2, 757360, Control_c, 0, 64, 0
2, 757432, Note_on_c, 0, 67, 27
2, 757448, Note_on_c, 0, 56, 37
2, 757473, Note_on_c, 0, 62, 31
2, 757613, Note_on_c, 0, 62, 0
2, 757706, Note_on_c, 0, 67, 0
2, 757768, Control_c, 0, 64, 127
2, 757794, Note_on_c, 0, 56, 0
2, 758308, Control_c, 0, 64, 0
2, 758395, Note_on_c, 0, 61, 37
2, 758426, Note_on_c, 0, 66, 27
2, 758527, Note_on_c, 0, 66, 0
2, 758596, Note_on_c, 0, 61, 0
2, 758722, Note_on_c, 0, 108, 60
2, 758857, Note_on_c, 0, 108, 0
2, 758966, Control_c, 0, 64, 127
2, 759038, Note_on_c, 0, 97, 63
2, 759278, Note_on_c, 0, 97, 0
2, 759294, Control_c, 0, 64, 0
2, 759362, Note_on_c, 0, 45, 39
2, 759379, Note_on_c, 0, 55, 29
2, 759387, Note_on_c, 0, 96, 54
2, 759496, Note_on_c, 0, 45, 0
2, 759573, Note_on_c, 0, 96, 0
2, 759574, Note_on_c, 0, 55, 0
2, 759711, Note_on_c, 0, 94, 51
2, 759884, Note_on_c, 0, 94, 0
2, 759910, Control_c, 0, 64, 127
2, 760015, Note_on_c, 0, 93, 58
2, 760221, Note_on_c, 0, 93, 0
2, 760305, Control_c, 0, 64, 0
2, 760333, Note_on_c, 0, 60, 37
2, 760339, Note_on_c, 0, 91, 44
2, 760355, Note_on_c, 0, 54, 33
2, 760367, Note_on_c, 0, 50, 26
2, 760439, Note_on_c, 0, 50, 0
2, 760459, Note_on_c, 0, 60, 0
2, 760501, Note_on_c, 0, 91, 0
2, 760502, Note_on_c, 0, 54, 0
2, 760670, Note_on_c, 0, 90, 33
2, 760860, Note_on_c, 0, 90, 0
2, 760987, Note_on_c, 0, 93, 71
2, 761029, Control_c, 0, 64, 127
2, 761120, Note_on_c, 0, 93, 0
2, 761239, Control_c, 0, 64, 0
2, 761276, Note_on_c, 0, 61, 34
2, 761283, Note_on_c, 0, 90, 62
2, 761296, Note_on_c, 0, 64, 24
2, 761314, Note_on_c, 0, 54, 25
2, 761359, Note_on_c, 0, 59, 20
2, 761418, Note_on_c, 0, 90, 0
2, 761426, Note_on_c, 0, 59, 0
2, 761466, Note_on_c, 0, 61, 0
2, 761468, Note_on_c, 0, 64, 0
2, 761473, Note_on_c, 0, 54, 0
2, 761643, Note_on_c, 0, 83, 31
2, 761802, Note_on_c, 0, 83, 0
2, 761936, Note_on_c, 0, 83, 37
2, 761988, Control_c, 0, 64, 127
2, 762248, Note_on_c, 0, 61, 37
2, 762255, Control_c, 0, 64, 0
2, 762271, Note_on_c, 0, 64, 33
2, 762288, Note_on_c, 0, 54, 27
2, 762339, Note_on_c, 0, 64, 0
2, 762391, Note_on_c, 0, 61, 0
2, 762423, Note_on_c, 0, 54, 0
2, 762665, Note_on_c, 0, 85, 49
2, 762769, Note_on_c, 0, 83, 0
2, 762814, Note_on_c, 0, 85, 0
2, 762936, Control_c, 0, 64, 127
2, 762958, Note_on_c, 0, 83, 53
2, 763114, Note_on_c, 0, 83, 0
2, 763213, Control_c, 0, 64, 0
2, 763283, Note_on_c, 0, 54, 36
2, 763289, Note_on_c, 0, 57, 33
2, 763290, Note_on_c, 0, 83, 61
2, 763298, Note_on_c, 0, 50, 34
2, 763432, Note_on_c, 0, 50, 0
2, 763454, Note_on_c, 0, 57, 0
2, 763476, Note_on_c, 0, 83, 0
2, 763496, Note_on_c, 0, 54, 0
2, 763527, Control_c, 0, 64, 127
2, 763584, Note_on_c, 0, 83, 60
2, 763731, Note_on_c, 0, 83, 0
2, 763895, Note_on_c, 0, 83, 83
2, 764102, Note_on_c, 0, 83, 0
2, 764214, Note_on_c, 0, 83, 74
2, 764404, Note_on_c, 0, 83, 0
2, 764514, Control_c, 0, 64, 0
2, 764522, Note_on_c, 0, 83, 77
2, 764708, Note_on_c, 0, 83, 0
2, 764821, Note_on_c, 0, 83, 78
2, 764837, Note_on_c, 0, 62, 74
2, 764839, Note_on_c, 0, 59, 64
2, 764859, Note_on_c, 0, 52, 54
2, 764866, Note_on_c, 0, 55, 41
2, 765076, Note_on_c, 0, 83, 0
2, 765149, Control_c, 0, 64, 127
2, 765178, Note_on_c, 0, 83, 66
2, 765363, Note_on_c, 0, 83, 0
2, 765480, Note_on_c, 0, 83, 65
2, 765510, Note_on_c, 0, 52, 0
2, 765536, Note_on_c, 0, 55, 0
2, 765562, Note_on_c, 0, 59, 0
2, 765648, Note_on_c, 0, 83, 0
2, 765654, Note_on_c, 0, 62, 0
2, 765795, Note_on_c, 0, 83, 74
2, 766011, Note_on_c, 0, 83, 0
2, 766083, Control_c, 0, 64, 0
2, 766104, Note_on_c, 0, 61, 47
2, 766111, Note_on_c, 0, 55, 51
2, 766112, Note_on_c, 0, 84, 70
2, 766125, Note_on_c, 0, 66, 42
2, 766371, Note_on_c, 0, 84, 0
2, 766410, Note_on_c, 0, 85, 70
2, 766451, Control_c, 0, 64, 127
2, 766844, Note_on_c, 0, 66, 0
2, 766847, Note_on_c, 0, 61, 0
2, 767024, Note_on_c, 0, 61, 34
2, 767038, Note_on_c, 0, 65, 38
2, 767045, Note_on_c, 0, 81, 50
2, 767289, Note_on_c, 0, 81, 0
2, 767317, Note_on_c, 0, 85, 0
2, 767369, Note_on_c, 0, 55, 0
2, 767625, Note_on_c, 0, 65, 0
2, 767666, Note_on_c, 0, 55, 28
2, 767776, Note_on_c, 0, 55, 0
2, 767970, Note_on_c, 0, 78, 49
2, 767995, Note_on_c, 0, 73, 39
2, 767996, Note_on_c, 0, 64, 44
2, 768003, Control_c, 0, 64, 0
2, 768017, Note_on_c, 0, 69, 35
2, 768037, Note_on_c, 0, 54, 29
2, 768043, Note_on_c, 0, 59, 33
2, 768253, Control_c, 0, 64, 127
2, 768436, Note_on_c, 0, 64, 0
2, 768442, Note_on_c, 0, 59, 0
2, 768507, Note_on_c, 0, 69, 0
2, 768517, Note_on_c, 0, 61, 0
2, 768522, Note_on_c, 0, 78, 0
2, 768533, Note_on_c, 0, 73, 0
2, 768601, Note_on_c, 0, 81, 74
2, 768615, Note_on_c, 0, 54, 0
2, 768699, Note_on_c, 0, 81, 0
2, 768988, Note_on_c, 0, 69, 66
2, 768995, Note_on_c, 0, 66, 60
2, 769121, Control_c, 0, 64, 0
2, 769291, Note_on_c, 0, 64, 74
2, 769515, Control_c, 0, 64, 127
2, 769740, Note_on_c, 0, 66, 0
2, 769784, Note_on_c, 0, 69, 0
2, 769935, Control_c, 0, 64, 0
2, 769959, Note_on_c, 0, 66, 47
2, 769968, Note_on_c, 0, 69, 45
2, 770251, Control_c, 0, 64, 127
2, 770461, Control_c, 0, 64, 0
2, 770555, Note_on_c, 0, 62, 89
2, 770590, Note_on_c, 0, 64, 0
2, 770762, Note_on_c, 0, 69, 0
2, 770774, Note_on_c, 0, 66, 0
2, 770934, Note_on_c, 0, 66, 50
2, 770967, Note_on_c, 0, 69, 44
2, 770974, Control_c, 0, 64, 127
2, 771119, Control_c, 0, 64, 0
2, 771267, Note_on_c, 0, 61, 86
2, 771343, Control_c, 0, 64, 127
2, 771389, Note_on_c, 0, 62, 0
2, 771655, Note_on_c, 0, 66, 0
2, 771663, Note_on_c, 0, 73, 1
2, 771664, Note_on_c, 0, 69, 0
2, 771773, Note_on_c, 0, 73, 0
2, 771817, Control_c, 0, 64, 0
2, 771847, Note_on_c, 0, 61, 0
2, 771852, Note_on_c, 0, 65, 60
2, 771853, Note_on_c, 0, 72, 58
2, 771863, Note_on_c, 0, 60, 60
2, 771872, Note_on_c, 0, 69, 50
2, 772053, Control_c, 0, 64, 127
2, 772294, Note_on_c, 0, 65, 0
2, 772297, Note_on_c, 0, 72, 0
2, 772352, Note_on_c, 0, 69, 0
2, 772406, Note_on_c, 0, 60, 0
2, 772515, Note_on_c, 0, 57, 57
2, 772572, Note_on_c, 0, 57, 0
2, 772879, Note_on_c, 0, 57, 48
2, 772887, Note_on_c, 0, 60, 50
2, 772891, Note_on_c, 0, 62, 54
2, 772894, Note_on_c, 0, 65, 44
2, 772908, Note_on_c, 0, 53, 55
2, 772961, Control_c, 0, 64, 0
2, 773197, Control_c, 0, 64, 127
2, 773403, Note_on_c, 0, 57, 0
2, 773424, Note_on_c, 0, 60, 0
2, 773524, Note_on_c, 0, 53, 0
2, 773563, Note_on_c, 0, 65, 0
2, 773627, Note_on_c, 0, 62, 0
2, 773815, Note_on_c, 0, 64, 42
2, 773816, Control_c, 0, 64, 0
2, 773816, Note_on_c, 0, 56, 36
2, 773832, Note_on_c, 0, 53, 33
2, 773838, Note_on_c, 0, 43, 37
2, 773840, Note_on_c, 0, 59, 45
2, 774076, Control_c, 0, 64, 127
2, 774333, Note_on_c, 0, 53, 0
2, 774449, Note_on_c, 0, 56, 0
2, 774517, Note_on_c, 0, 64, 0
2, 774519, Note_on_c, 0, 59, 0
2, 774749, Control_c, 0, 64, 0
2, 774769, Note_on_c, 0, 56, 37
2, 774775, Note_on_c, 0, 53, 31
2, 774777, Note_on_c, 0, 65, 41
2, 774784, Note_on_c, 0, 59, 43
2, 774801, Note_on_c, 0, 62, 44
2, 774808, Note_on_c, 0, 43, 0
2, 774925, Note_on_c, 0, 53, 0
2, 774959, Control_c, 0, 64, 127
2, 775206, Note_on_c, 0, 56, 0
2, 775221, Note_on_c, 0, 59, 0
2, 775391, Note_on_c, 0, 62, 0
2, 775416, Note_on_c, 0, 65, 0
2, 775683, Control_c, 0, 64, 0
2, 775712, Note_on_c, 0, 43, 30
2, 775723, Note_on_c, 0, 64, 37
2, 775730, Note_on_c, 0, 55, 32
2, 775745, Note_on_c, 0, 59, 40
2, 775755, Note_on_c, 0, 52, 36
2, 775767, Note_on_c, 0, 36, 24
2, 775919, Control_c, 0, 64, 127
2, 775939, Note_on_c, 0, 55, 0
2, 775991, Note_on_c, 0, 59, 0
2, 775997, Note_on_c, 0, 36, 0
2, 776051, Note_on_c, 0, 64, 0
2, 776056, Note_on_c, 0, 43, 0
2, 776176, Note_on_c, 0, 52, 0
2, 776347, Note_on_c, 0, 72, 66
2, 776506, Note_on_c, 0, 72, 0
2, 776725, Note_on_c, 0, 67, 52
2, 776741, Note_on_c, 0, 62, 51
2, 776762, Note_on_c, 0, 57, 46
2, 776773, Control_c, 0, 64, 0
2, 777296, Note_on_c, 0, 52, 67
2, 777621, Note_on_c, 0, 57, 0
2, 777629, Control_c, 0, 64, 127
2, 777689, Note_on_c, 0, 62, 0
2, 777713, Note_on_c, 0, 67, 0
2, 778209, Note_on_c, 0, 74, 88
2, 778528, Note_on_c, 0, 74, 0
2, 778579, Note_on_c, 0, 67, 53
2, 778585, Note_on_c, 0, 64, 51
2, 778905, Note_on_c, 0, 52, 0
2, 779042, Note_on_c, 0, 64, 0
2, 779126, Note_on_c, 0, 67, 0
2, 779211, Note_on_c, 0, 72, 64
2, 779561, Note_on_c, 0, 65, 51
2, 779572, Note_on_c, 0, 62, 48
2, 779578, Note_on_c, 0, 72, 0
2, 779589, Control_c, 0, 64, 0
2, 779602, Note_on_c, 0, 58, 39
2, 779838, Control_c, 0, 64, 127
2, 779931, Note_on_c, 0, 58, 0
2, 780120, Note_on_c, 0, 62, 0
2, 780179, Note_on_c, 0, 72, 50
2, 780232, Note_on_c, 0, 65, 0
2, 780534, Note_on_c, 0, 65, 54
2, 780540, Note_on_c, 0, 62, 49
2, 780551, Note_on_c, 0, 72, 0
2, 780553, Note_on_c, 0, 58, 37
2, 780615, Control_c, 0, 64, 0
2, 780704, Note_on_c, 0, 58, 0
2, 780812, Control_c, 0, 64, 127
2, 781120, Note_on_c, 0, 62, 0
2, 781167, Note_on_c, 0, 65, 0
2, 781478, Note_on_c, 0, 61, 39
2, 781480, Note_on_c, 0, 64, 49
2, 781524, Control_c, 0, 64, 0
2, 781550, Note_on_c, 0, 52, 22
2, 781762, Control_c, 0, 64, 127
2, 781779, Note_on_c, 0, 52, 0
2, 781802, Note_on_c, 0, 64, 0
2, 781855, Note_on_c, 0, 61, 0
2, 782352, Note_on_c, 0, 61, 42
2, 782377, Note_on_c, 0, 56, 43
2, 782391, Note_on_c, 0, 42, 30
2, 782424, Note_on_c, 0, 58, 34
2, 782427, Note_on_c, 0, 52, 18
2, 782432, Note_on_c, 0, 49, 20
2, 782432, Control_c, 0, 64, 0
2, 782708, Control_c, 0, 64, 127
2, 782908, Note_on_c, 0, 52, 0
2, 782986, Note_on_c, 0, 42, 0
2, 783021, Note_on_c, 0, 61, 0
2, 783033, Note_on_c, 0, 56, 0
2, 783082, Note_on_c, 0, 49, 0
2, 783101, Note_on_c, 0, 58, 0
2, 783288, Control_c, 0, 64, 0
2, 783315, Note_on_c, 0, 41, 31
2, 783320, Note_on_c, 0, 52, 36
2, 783328, Note_on_c, 0, 57, 42
2, 783339, Note_on_c, 0, 60, 35
2, 783354, Note_on_c, 0, 48, 32
2, 783492, Note_on_c, 0, 52, 0
2, 783497, Control_c, 0, 64, 127
2, 783579, Note_on_c, 0, 57, 0
2, 783587, Note_on_c, 0, 41, 0
2, 783593, Note_on_c, 0, 60, 0
2, 783631, Note_on_c, 0, 48, 0
2, 784327, Note_on_c, 0, 68, 55
2, 784336, Note_on_c, 0, 74, 58
2, 784346, Note_on_c, 0, 64, 50
2, 784353, Control_c, 0, 64, 0
2, 784353, Note_on_c, 0, 58, 46
2, 784550, Control_c, 0, 64, 127
2, 784554, Note_on_c, 0, 64, 0
2, 784640, Note_on_c, 0, 74, 0
2, 784733, Note_on_c, 0, 68, 0
2, 784812, Control_c, 0, 64, 0
2, 784841, Note_on_c, 0, 58, 0
2, 784842, Note_on_c, 0, 67, 59
2, 784844, Note_on_c, 0, 76, 67
2, 784865, Note_on_c, 0, 60, 40
2, 784874, Note_on_c, 0, 69, 35
2, 784951, Note_on_c, 0, 67, 0
2, 784952, Note_on_c, 0, 60, 0
2, 784954, Note_on_c, 0, 69, 0
2, 784984, Note_on_c, 0, 76, 0
2, 785336, Note_on_c, 0, 64, 43
2, 785342, Note_on_c, 0, 72, 40
2, 785343, Note_on_c, 0, 67, 50
2, 785358, Note_on_c, 0, 69, 50
2, 785367, Note_on_c, 0, 57, 40
2, 785431, Control_c, 0, 64, 127
2, 785632, Note_on_c, 0, 69, 0
2, 785657, Note_on_c, 0, 72, 0
2, 785674, Note_on_c, 0, 67, 0
2, 785744, Note_on_c, 0, 64, 0
2, 785860, Note_on_c, 0, 64, 37
2, 785867, Note_on_c, 0, 69, 60
2, 785883, Note_on_c, 0, 60, 44
2, 785892, Note_on_c, 0, 53, 41
2, 785893, Note_on_c, 0, 57, 0
2, 785898, Note_on_c, 0, 65, 44
2, 785984, Control_c, 0, 64, 0
2, 786062, Control_c, 0, 64, 127
2, 786103, Note_on_c, 0, 53, 0
2, 786106, Note_on_c, 0, 65, 0
2, 786125, Note_on_c, 0, 69, 0
2, 786129, Note_on_c, 0, 64, 0
2, 786192, Note_on_c, 0, 60, 0
2, 786637, Note_on_c, 0, 65, 44
2, 786638, Note_on_c, 0, 60, 46
2, 786640, Note_on_c, 0, 57, 44
2, 786646, Note_on_c, 0, 62, 44
2, 786648, Note_on_c, 0, 50, 44
2, 786907, Note_on_c, 0, 60, 0
2, 786915, Note_on_c, 0, 57, 0
2, 786969, Note_on_c, 0, 62, 0
2, 787004, Note_on_c, 0, 65, 0
2, 787170, Control_c, 0, 64, 0
2, 787199, Note_on_c, 0, 64, 46
2, 787204, Note_on_c, 0, 59, 47
2, 787210, Note_on_c, 0, 50, 0
2, 787217, Note_on_c, 0, 52, 38
2, 787221, Note_on_c, 0, 62, 35
2, 787222, Note_on_c, 0, 57, 45
2, 787407, Control_c, 0, 64, 127
2, 787462, Note_on_c, 0, 57, 0
2, 787477, Note_on_c, 0, 59, 0
2, 787504, Note_on_c, 0, 62, 0
2, 787554, Note_on_c, 0, 64, 0
2, 787684, Note_on_c, 0, 52, 0
2, 788171, Note_on_c, 0, 65, 68
2, 788172, Note_on_c, 0, 69, 69
2, 788180, Note_on_c, 0, 64, 70
2, 788194, Note_on_c, 0, 71, 53
2, 788235, Control_c, 0, 64, 0
2, 788278, Note_on_c, 0, 65, 0
2, 788332, Note_on_c, 0, 69, 0
2, 788344, Note_on_c, 0, 71, 0
2, 788370, Note_on_c, 0, 65, 40
2, 788465, Note_on_c, 0, 71, 47
2, 788492, Note_on_c, 0, 65, 0
2, 788515, Note_on_c, 0, 69, 17
2, 788604, Note_on_c, 0, 69, 0
2, 788616, Note_on_c, 0, 65, 22
2, 788623, Note_on_c, 0, 71, 0
2, 788745, Note_on_c, 0, 69, 16
2, 788748, Control_c, 0, 64, 127
2, 788749, Note_on_c, 0, 71, 35
2, 788883, Note_on_c, 0, 65, 0
2, 788885, Note_on_c, 0, 69, 0
2, 788890, Note_on_c, 0, 71, 0
2, 788997, Note_on_c, 0, 64, 0
2, 789143, Control_c, 0, 64, 0
2, 789144, Note_on_c, 0, 65, 43
2, 789146, Note_on_c, 0, 68, 40
2, 789153, Note_on_c, 0, 70, 45
2, 789174, Note_on_c, 0, 62, 43
2, 789472, Control_c, 0, 64, 127
2, 789689, Note_on_c, 0, 65, 0
2, 789690, Note_on_c, 0, 68, 0
2, 789744, Note_on_c, 0, 70, 0
2, 789855, Note_on_c, 0, 62, 0
2, 790031, Note_on_c, 0, 65, 45
2, 790042, Note_on_c, 0, 62, 29
2, 790050, Control_c, 0, 64, 0
2, 790068, Note_on_c, 0, 56, 43
2, 790197, Note_on_c, 0, 56, 0
2, 790220, Control_c, 0, 64, 127
2, 790392, Note_on_c, 0, 62, 0
2, 790431, Note_on_c, 0, 65, 0
2, 791022, Control_c, 0, 64, 0
2, 791047, Note_on_c, 0, 69, 46
2, 791048, Note_on_c, 0, 41, 22
2, 791051, Note_on_c, 0, 64, 37
2, 791057, Note_on_c, 0, 76, 35
2, 791064, Note_on_c, 0, 48, 30
2, 791065, Note_on_c, 0, 72, 35
2, 791079, Note_on_c, 0, 57, 28
2, 791246, Control_c, 0, 64, 127
2, 791335, Note_on_c, 0, 41, 0
2, 791373, Note_on_c, 0, 48, 0
2, 791389, Note_on_c, 0, 64, 0
2, 791489, Note_on_c, 0, 57, 0
2, 791495, Note_on_c, 0, 69, 0
2, 791536, Note_on_c, 0, 72, 0
2, 791574, Note_on_c, 0, 76, 0
2, 791997, Note_on_c, 0, 69, 42
2, 791998, Note_on_c, 0, 64, 38
2, 792003, Note_on_c, 0, 72, 46
2, 792004, Note_on_c, 0, 77, 49
2, 792011, Control_c, 0, 64, 0
2, 792045, Note_on_c, 0, 60, 19
2, 792065, Note_on_c, 0, 57, 18
2, 792233, Control_c, 0, 64, 127
2, 792491, Note_on_c, 0, 57, 0
2, 792531, Note_on_c, 0, 77, 0
2, 792536, Note_on_c, 0, 60, 0
2, 792542, Note_on_c, 0, 72, 0
2, 792546, Note_on_c, 0, 69, 0
2, 792638, Note_on_c, 0, 64, 0
2, 792973, Note_on_c, 0, 67, 45
2, 792986, Note_on_c, 0, 69, 56
2, 792991, Note_on_c, 0, 72, 51
2, 793062, Control_c, 0, 64, 0
2, 793494, Note_on_c, 0, 60, 57
2, 793547, Control_c, 0, 64, 127
2, 793849, Note_on_c, 0, 69, 0
2, 793852, Note_on_c, 0, 67, 0
2, 793902, Note_on_c, 0, 72, 0
2, 794012, Note_on_c, 0, 74, 55
2, 794033, Note_on_c, 0, 67, 57
2, 794046, Note_on_c, 0, 69, 54
2, 794458, Note_on_c, 0, 62, 51
2, 794481, Note_on_c, 0, 60, 0
2, 794485, Note_on_c, 0, 74, 0
2, 794510, Note_on_c, 0, 69, 0
2, 794555, Note_on_c, 0, 67, 0
2, 794609, Note_on_c, 0, 62, 0
2, 794930, Note_on_c, 0, 63, 52
2, 794934, Note_on_c, 0, 67, 50
2, 794937, Note_on_c, 0, 72, 50
2, 794941, Note_on_c, 0, 60, 39
2, 794968, Control_c, 0, 64, 0
2, 794970, Note_on_c, 0, 69, 42
2, 795299, Note_on_c, 0, 60, 0
2, 795376, Control_c, 0, 64, 127
2, 795450, Note_on_c, 0, 45, 41
2, 795456, Note_on_c, 0, 67, 0
2, 795458, Note_on_c, 0, 47, 36
2, 795465, Note_on_c, 0, 69, 0
2, 795505, Note_on_c, 0, 63, 0
2, 795513, Note_on_c, 0, 72, 0
2, 795683, Note_on_c, 0, 47, 0
2, 795921, Note_on_c, 0, 55, 52
2, 795922, Note_on_c, 0, 63, 52
2, 795929, Note_on_c, 0, 60, 41
2, 795931, Note_on_c, 0, 51, 45
2, 795981, Control_c, 0, 64, 0
2, 796095, Note_on_c, 0, 45, 0
2, 796148, Note_on_c, 0, 51, 0
2, 796296, Control_c, 0, 64, 127
2, 796523, Note_on_c, 0, 55, 0
2, 796894, Note_on_c, 0, 54, 52
2, 796903, Note_on_c, 0, 26, 51
2, 796915, Control_c, 0, 64, 0
2, 796930, Note_on_c, 0, 38, 15
2, 797027, Note_on_c, 0, 38, 0
2, 797039, Note_on_c, 0, 60, 0
2, 797073, Note_on_c, 0, 26, 0
2, 797151, Control_c, 0, 64, 127
2, 797161, Note_on_c, 0, 54, 0
2, 797411, Note_on_c, 0, 63, 0
2, 797801, Note_on_c, 0, 54, 47
2, 797803, Note_on_c, 0, 64, 50
2, 797835, Note_on_c, 0, 60, 39
2, 798366, Note_on_c, 0, 60, 0
2, 798385, Note_on_c, 0, 74, 113
2, 798450, Note_on_c, 0, 54, 0
2, 798490, Note_on_c, 0, 64, 0
2, 798780, Note_on_c, 0, 65, 38
2, 798781, Control_c, 0, 64, 0
2, 798805, Note_on_c, 0, 60, 32
2, 798814, Note_on_c, 0, 62, 41
2, 799046, Control_c, 0, 64, 127
2, 799094, Note_on_c, 0, 65, 0
2, 799375, Note_on_c, 0, 72, 60
2, 799432, Note_on_c, 0, 74, 0
2, 799756, Control_c, 0, 64, 0
2, 799765, Note_on_c, 0, 53, 30
2, 800001, Note_on_c, 0, 70, 59
2, 800043, Control_c, 0, 64, 127
2, 800123, Note_on_c, 0, 72, 0
2, 800316, Note_on_c, 0, 60, 0
2, 800380, Note_on_c, 0, 62, 0
2, 800456, Note_on_c, 0, 69, 74
2, 800472, Note_on_c, 0, 70, 0
2, 800675, Control_c, 0, 64, 0
2, 800746, Note_on_c, 0, 65, 37
2, 800763, Note_on_c, 0, 62, 40
2, 800786, Note_on_c, 0, 60, 32
2, 800870, Note_on_c, 0, 69, 0
2, 800872, Control_c, 0, 64, 127
2, 801036, Note_on_c, 0, 81, 84
2, 801150, Note_on_c, 0, 65, 0
2, 801299, Note_on_c, 0, 53, 0
2, 801610, Control_c, 0, 64, 0
2, 801658, Note_on_c, 0, 53, 35
2, 801780, Control_c, 0, 64, 127
2, 802006, Note_on_c, 0, 60, 0
2, 802081, Note_on_c, 0, 62, 0
2, 802197, Note_on_c, 0, 78, 57
2, 802331, Note_on_c, 0, 77, 46
2, 802508, Note_on_c, 0, 81, 0
2, 802570, Note_on_c, 0, 58, 46
2, 802592, Note_on_c, 0, 61, 36
2, 802596, Control_c, 0, 64, 0
2, 802620, Note_on_c, 0, 65, 27
2, 802622, Note_on_c, 0, 77, 0
2, 802628, Note_on_c, 0, 73, 45
2, 802831, Control_c, 0, 64, 127
2, 803071, Note_on_c, 0, 53, 0
2, 803474, Note_on_c, 0, 53, 37
2, 803731, Note_on_c, 0, 53, 0
2, 803871, Note_on_c, 0, 73, 0
2, 803889, Note_on_c, 0, 78, 0
2, 803894, Note_on_c, 0, 65, 0
2, 803931, Note_on_c, 0, 58, 0
2, 803954, Note_on_c, 0, 61, 0
2, 804412, Note_on_c, 0, 82, 68
2, 804419, Note_on_c, 0, 73, 60
2, 804425, Control_c, 0, 64, 0
2, 804433, Note_on_c, 0, 70, 64
2, 804441, Note_on_c, 0, 80, 53
2, 804444, Note_on_c, 0, 65, 49
2, 804445, Note_on_c, 0, 55, 53
2, 804447, Note_on_c, 0, 61, 47
2, 804449, Note_on_c, 0, 77, 49
2, 804489, Note_on_c, 0, 80, 0
2, 804681, Control_c, 0, 64, 127
2, 805076, Note_on_c, 0, 61, 0
2, 805096, Note_on_c, 0, 65, 0
2, 805393, Note_on_c, 0, 61, 43
2, 805395, Note_on_c, 0, 65, 39
2, 805455, Note_on_c, 0, 65, 0
2, 805523, Note_on_c, 0, 61, 0
2, 805544, Note_on_c, 0, 55, 0
2, 805628, Note_on_c, 0, 82, 0
2, 805644, Note_on_c, 0, 77, 0
2, 805645, Note_on_c, 0, 73, 0
2, 805668, Note_on_c, 0, 70, 0
2, 806003, Note_on_c, 0, 46, 32
2, 806255, Note_on_c, 0, 46, 0
2, 806350, Control_c, 0, 64, 0
2, 806387, Note_on_c, 0, 72, 37
2, 806388, Note_on_c, 0, 81, 45
2, 806394, Note_on_c, 0, 45, 46
2, 806396, Note_on_c, 0, 55, 41
2, 806397, Note_on_c, 0, 76, 47
2, 806405, Note_on_c, 0, 69, 36
2, 806558, Note_on_c, 0, 45, 0
2, 806587, Control_c, 0, 64, 127
2, 806653, Note_on_c, 0, 55, 0
2, 806785, Note_on_c, 0, 81, 0
2, 806810, Note_on_c, 0, 76, 0
2, 806854, Note_on_c, 0, 72, 0
2, 806868, Note_on_c, 0, 69, 0
2, 807346, Note_on_c, 0, 76, 64
2, 807365, Note_on_c, 0, 69, 62
2, 807367, Note_on_c, 0, 67, 58
2, 807373, Note_on_c, 0, 64, 48
2, 807375, Note_on_c, 0, 60, 49
2, 807376, Note_on_c, 0, 72, 45
2, 807667, Note_on_c, 0, 64, 0
2, 807704, Note_on_c, 0, 76, 0
2, 807722, Note_on_c, 0, 60, 0
2, 807724, Note_on_c, 0, 72, 0
2, 807750, Note_on_c, 0, 67, 0
2, 807775, Note_on_c, 0, 69, 0
2, 808328, Note_on_c, 0, 55, 43
2, 808359, Note_on_c, 0, 57, 53
2, 808368, Note_on_c, 0, 67, 55
2, 808372, Note_on_c, 0, 64, 51
2, 808381, Note_on_c, 0, 60, 51
2, 808390, Control_c, 0, 64, 0
2, 808456, Note_on_c, 0, 55, 0
2, 808586, Control_c, 0, 64, 127
2, 808650, Note_on_c, 0, 57, 0
2, 808781, Note_on_c, 0, 67, 0
2, 808785, Note_on_c, 0, 60, 0
2, 808786, Note_on_c, 0, 64, 0
2, 809242, Note_on_c, 0, 50, 41
2, 809322, Note_on_c, 0, 64, 40
2, 809323, Note_on_c, 0, 55, 39
2, 809324, Note_on_c, 0, 57, 43
2, 809325, Note_on_c, 0, 52, 36
2, 809332, Note_on_c, 0, 60, 33
2, 809400, Control_c, 0, 64, 0
2, 809428, Note_on_c, 0, 50, 0
2, 809545, Note_on_c, 0, 52, 0
2, 809664, Control_c, 0, 64, 127
2, 809686, Note_on_c, 0, 64, 0
2, 809772, Note_on_c, 0, 57, 0
2, 809795, Note_on_c, 0, 55, 0
2, 809856, Note_on_c, 0, 60, 0
2, 810243, Control_c, 0, 64, 0
2, 810257, Note_on_c, 0, 63, 50
2, 810257, Note_on_c, 0, 38, 32
2, 810260, Note_on_c, 0, 26, 35
2, 810267, Note_on_c, 0, 54, 54
2, 810282, Note_on_c, 0, 60, 41
2, 810492, Note_on_c, 0, 26, 0
2, 810506, Control_c, 0, 64, 127
2, 810619, Note_on_c, 0, 38, 0
2, 810921, Note_on_c, 0, 54, 0
2, 810934, Note_on_c, 0, 63, 0
2, 811053, Note_on_c, 0, 60, 0
2, 811169, Note_on_c, 0, 64, 64
2, 811189, Note_on_c, 0, 54, 59
2, 811199, Note_on_c, 0, 60, 40
2, 811200, Note_on_c, 0, 56, 60
2, 811216, Note_on_c, 0, 52, 42
2, 811242, Control_c, 0, 64, 0
2, 811478, Control_c, 0, 64, 127
2, 811809, Note_on_c, 0, 52, 0
2, 811814, Note_on_c, 0, 54, 0
2, 811820, Note_on_c, 0, 60, 0
2, 811829, Note_on_c, 0, 64, 0
2, 811837, Note_on_c, 0, 56, 0
2, 812123, Control_c, 0, 64, 0
2, 812142, Note_on_c, 0, 48, 43
2, 812152, Note_on_c, 0, 54, 45
2, 812155, Note_on_c, 0, 62, 62
2, 812159, Note_on_c, 0, 56, 52
2, 812162, Note_on_c, 0, 60, 53
2, 812399, Control_c, 0, 64, 127
2, 812696, Note_on_c, 0, 56, 0
2, 812839, Note_on_c, 0, 60, 0
2, 812842, Note_on_c, 0, 54, 0
2, 812968, Note_on_c, 0, 62, 0
2, 813103, Note_on_c, 0, 54, 42
2, 813108, Note_on_c, 0, 57, 52
2, 813108, Control_c, 0, 64, 0
2, 813111, Note_on_c, 0, 60, 49
2, 813138, Note_on_c, 0, 45, 40
2, 813166, Note_on_c, 0, 48, 0
2, 813360, Control_c, 0, 64, 127
2, 813520, Note_on_c, 0, 57, 0
2, 813600, Note_on_c, 0, 54, 0
2, 813899, Note_on_c, 0, 60, 0
2, 813995, Note_on_c, 0, 45, 0
2, 814043, Control_c, 0, 64, 0
2, 814087, Note_on_c, 0, 58, 54
2, 814096, Note_on_c, 0, 53, 37
2, 814112, Note_on_c, 0, 43, 35
2, 814242, Control_c, 0, 64, 127
2, 814500, Note_on_c, 0, 53, 0
2, 814598, Note_on_c, 0, 58, 0
2, 814621, Note_on_c, 0, 57, 64
2, 814629, Note_on_c, 0, 53, 47
2, 814638, Note_on_c, 0, 45, 66
2, 814646, Note_on_c, 0, 43, 0
2, 814648, Control_c, 0, 64, 0
2, 814740, Control_c, 0, 64, 127
2, 814921, Note_on_c, 0, 45, 0
2, 814955, Note_on_c, 0, 53, 0
2, 815005, Note_on_c, 0, 57, 0
2, 815081, Control_c, 0, 64, 0
2, 815089, Note_on_c, 0, 53, 49
2, 815097, Note_on_c, 0, 46, 65
2, 815279, Note_on_c, 0, 53, 0
2, 815292, Control_c, 0, 64, 127
2, 815396, Note_on_c, 0, 61, 25
2, 815446, Note_on_c, 0, 61, 0
2, 815491, Control_c, 0, 64, 0
2, 815538, Note_on_c, 0, 62, 66
2, 815539, Note_on_c, 0, 46, 0
2, 815559, Note_on_c, 0, 58, 46
2, 815560, Note_on_c, 0, 50, 66
2, 815606, Note_on_c, 0, 53, 25
2, 815613, Note_on_c, 0, 55, 22
2, 815661, Control_c, 0, 64, 127
2, 815674, Note_on_c, 0, 53, 0
2, 815683, Note_on_c, 0, 55, 0
2, 815725, Note_on_c, 0, 58, 0
2, 815778, Note_on_c, 0, 62, 0
2, 815903, Note_on_c, 0, 50, 0
2, 815925, Control_c, 0, 64, 0
2, 815956, Note_on_c, 0, 65, 63
2, 815975, Note_on_c, 0, 53, 55
2, 815977, Note_on_c, 0, 58, 65
2, 815979, Note_on_c, 0, 62, 52
2, 816119, Note_on_c, 0, 62, 0
2, 816127, Note_on_c, 0, 58, 0
2, 816135, Control_c, 0, 64, 127
2, 816148, Note_on_c, 0, 65, 0
2, 816345, Control_c, 0, 64, 0
2, 816447, Note_on_c, 0, 58, 53
2, 816448, Note_on_c, 0, 62, 58
2, 816459, Note_on_c, 0, 69, 49
2, 816467, Note_on_c, 0, 53, 0
2, 816472, Note_on_c, 0, 57, 68
2, 816482, Note_on_c, 0, 68, 21
2, 816489, Note_on_c, 0, 65, 36
2, 816515, Control_c, 0, 64, 127
2, 816532, Note_on_c, 0, 58, 0
2, 816549, Note_on_c, 0, 65, 0
2, 816555, Note_on_c, 0, 68, 0
2, 816565, Note_on_c, 0, 62, 0
2, 816620, Note_on_c, 0, 69, 0
2, 816778, Note_on_c, 0, 57, 0
2, 816831, Control_c, 0, 64, 0
2, 816915, Note_on_c, 0, 62, 61
2, 816919, Note_on_c, 0, 72, 55
2, 816923, Note_on_c, 0, 65, 53
2, 816948, Note_on_c, 0, 60, 55
2, 816950, Note_on_c, 0, 69, 57
2, 816989, Control_c, 0, 64, 127
2, 817019, Note_on_c, 0, 62, 0
2, 817043, Note_on_c, 0, 65, 0
2, 817087, Note_on_c, 0, 69, 0
2, 817174, Note_on_c, 0, 72, 0
2, 817238, Note_on_c, 0, 60, 0
2, 817305, Control_c, 0, 64, 0
2, 817364, Note_on_c, 0, 70, 58
2, 817372, Note_on_c, 0, 74, 60
2, 817375, Note_on_c, 0, 65, 57
2, 817382, Note_on_c, 0, 67, 55
2, 817384, Note_on_c, 0, 62, 60
2, 817474, Control_c, 0, 64, 127
2, 817499, Note_on_c, 0, 67, 0
2, 817539, Note_on_c, 0, 65, 0
2, 817541, Note_on_c, 0, 74, 0
2, 817544, Note_on_c, 0, 70, 0
2, 817654, Note_on_c, 0, 61, 34
2, 817710, Note_on_c, 0, 63, 44
2, 817804, Note_on_c, 0, 61, 0
2, 817804, Control_c, 0, 64, 0
2, 817839, Note_on_c, 0, 64, 36
2, 817840, Note_on_c, 0, 70, 46
2, 817856, Note_on_c, 0, 77, 51
2, 817856, Note_on_c, 0, 67, 46
2, 817857, Note_on_c, 0, 74, 55
2, 817876, Note_on_c, 0, 62, 0
2, 817894, Note_on_c, 0, 65, 57
2, 817899, Note_on_c, 0, 64, 0
2, 817905, Note_on_c, 0, 63, 0
2, 817979, Note_on_c, 0, 67, 0
2, 817994, Note_on_c, 0, 74, 0
2, 818014, Note_on_c, 0, 70, 0
2, 818015, Control_c, 0, 64, 127
2, 818053, Note_on_c, 0, 77, 0
2, 818217, Note_on_c, 0, 65, 0
2, 818239, Control_c, 0, 64, 0
2, 818267, Note_on_c, 0, 66, 40
2, 818306, Note_on_c, 0, 67, 55
2, 818314, Note_on_c, 0, 81, 55
2, 818335, Note_on_c, 0, 74, 63
2, 818348, Note_on_c, 0, 70, 49
2, 818378, Note_on_c, 0, 77, 35
2, 818380, Note_on_c, 0, 67, 0
2, 818405, Note_on_c, 0, 69, 57
2, 818411, Note_on_c, 0, 66, 0
2, 818423, Control_c, 0, 64, 127
2, 818461, Note_on_c, 0, 70, 0
2, 818467, Note_on_c, 0, 74, 0
2, 818483, Note_on_c, 0, 77, 0
2, 818538, Note_on_c, 0, 81, 0
2, 818643, Note_on_c, 0, 69, 0
2, 818687, Note_on_c, 0, 70, 30
2, 818697, Note_on_c, 0, 68, 25
2, 818726, Control_c, 0, 64, 0
2, 818768, Note_on_c, 0, 71, 65
2, 818780, Note_on_c, 0, 70, 0
2, 818785, Note_on_c, 0, 77, 55
2, 818793, Note_on_c, 0, 84, 64
2, 818799, Note_on_c, 0, 68, 0
2, 818805, Note_on_c, 0, 74, 64
2, 818811, Note_on_c, 0, 81, 58
2, 818853, Note_on_c, 0, 72, 36
2, 818868, Note_on_c, 0, 71, 0
2, 818914, Note_on_c, 0, 74, 0
2, 818923, Control_c, 0, 64, 127
2, 818931, Note_on_c, 0, 77, 0
2, 818944, Note_on_c, 0, 81, 0
2, 818995, Note_on_c, 0, 84, 0
2, 819158, Note_on_c, 0, 72, 0
2, 819249, Note_on_c, 0, 71, 20
2, 819251, Note_on_c, 0, 87, 73
2, 819252, Note_on_c, 0, 79, 68
2, 819260, Note_on_c, 0, 82, 65
2, 819261, Note_on_c, 0, 76, 64
2, 819270, Note_on_c, 0, 72, 53
2, 819278, Control_c, 0, 64, 0
2, 819415, Note_on_c, 0, 71, 0
2, 819461, Control_c, 0, 64, 127
2, 819472, Note_on_c, 0, 76, 0
2, 819488, Note_on_c, 0, 79, 0
2, 819520, Note_on_c, 0, 82, 0
2, 819522, Note_on_c, 0, 72, 0
2, 819524, Note_on_c, 0, 87, 0
2, 819619, Control_c, 0, 64, 0
2, 819677, Note_on_c, 0, 87, 59
2, 819685, Note_on_c, 0, 72, 60
2, 819690, Note_on_c, 0, 82, 48
2, 819701, Note_on_c, 0, 79, 42
2, 819703, Note_on_c, 0, 76, 52
2, 819769, Note_on_c, 0, 79, 0
2, 819783, Note_on_c, 0, 87, 0
2, 819803, Control_c, 0, 64, 127
2, 819807, Note_on_c, 0, 82, 0
2, 819886, Note_on_c, 0, 72, 0
2, 819907, Note_on_c, 0, 76, 0
2, 819908, Note_on_c, 0, 71, 38
2, 819963, Note_on_c, 0, 70, 52
2, 819978, Note_on_c, 0, 71, 0
2, 820013, Control_c, 0, 64, 0
2, 820073, Note_on_c, 0, 70, 0
2, 820076, Note_on_c, 0, 84, 58
2, 820101, Note_on_c, 0, 76, 50
2, 820109, Note_on_c, 0, 73, 23
2, 820125, Note_on_c, 0, 69, 28
2, 820126, Note_on_c, 0, 71, 43
2, 820191, Note_on_c, 0, 69, 0
2, 820193, Note_on_c, 0, 71, 0
2, 820235, Note_on_c, 0, 84, 0
2, 820240, Note_on_c, 0, 73, 0
2, 820241, Note_on_c, 0, 76, 0
2, 820573, Note_on_c, 0, 73, 39
2, 820575, Note_on_c, 0, 81, 63
2, 820597, Note_on_c, 0, 70, 34
2, 820614, Note_on_c, 0, 76, 34
2, 820618, Note_on_c, 0, 73, 0
2, 820737, Control_c, 0, 64, 127
2, 820916, Note_on_c, 0, 76, 0
2, 820966, Note_on_c, 0, 70, 0
2, 820998, Note_on_c, 0, 81, 0
2, 821026, Note_on_c, 0, 76, 49
2, 821027, Note_on_c, 0, 70, 37
2, 821035, Note_on_c, 0, 64, 39
2, 821060, Note_on_c, 0, 73, 40
2, 821105, Note_on_c, 0, 64, 0
2, 821324, Note_on_c, 0, 70, 0
2, 821475, Note_on_c, 0, 73, 0
2, 821580, Note_on_c, 0, 76, 0
2, 821698, Note_on_c, 0, 74, 64
2, 821702, Note_on_c, 0, 79, 69
2, 821708, Note_on_c, 0, 69, 58
2, 821737, Control_c, 0, 64, 0
2, 822221, Note_on_c, 0, 41, 39
2, 822354, Control_c, 0, 64, 127
2, 822515, Note_on_c, 0, 79, 0
2, 822557, Note_on_c, 0, 74, 0
2, 822674, Note_on_c, 0, 69, 0
2, 822690, Note_on_c, 0, 48, 46
2, 822791, Note_on_c, 0, 41, 0
2, 823171, Note_on_c, 0, 57, 42
2, 823187, Note_on_c, 0, 48, 0
2, 823351, Note_on_c, 0, 57, 0
2, 823659, Note_on_c, 0, 67, 46
2, 823706, Note_on_c, 0, 60, 37
2, 823919, Note_on_c, 0, 60, 0
2, 824151, Note_on_c, 0, 72, 51
2, 824168, Note_on_c, 0, 67, 0
2, 824602, Control_c, 0, 64, 0
2, 824612, Note_on_c, 0, 72, 0
2, 824621, Note_on_c, 0, 66, 43
2, 824635, Note_on_c, 0, 60, 29
2, 824638, Note_on_c, 0, 54, 36
2, 824639, Note_on_c, 0, 62, 29
2, 824866, Control_c, 0, 64, 127
2, 825025, Note_on_c, 0, 66, 0
2, 825083, Note_on_c, 0, 60, 0
2, 825097, Note_on_c, 0, 62, 0
2, 825168, Note_on_c, 0, 50, 28
2, 825210, Note_on_c, 0, 54, 0
2, 825265, Note_on_c, 0, 50, 0
2, 825603, Control_c, 0, 64, 0
2, 825607, Note_on_c, 0, 57, 36
2, 825613, Note_on_c, 0, 62, 44
2, 825614, Note_on_c, 0, 58, 39
2, 825627, Note_on_c, 0, 53, 33
2, 825631, Note_on_c, 0, 43, 30
2, 825905, Control_c, 0, 64, 127
2, 825970, Note_on_c, 0, 57, 0
2, 826092, Note_on_c, 0, 57, 53
2, 826119, Note_on_c, 0, 62, 0
2, 826124, Note_on_c, 0, 58, 0
2, 826241, Note_on_c, 0, 57, 0
2, 826350, Note_on_c, 0, 58, 71
2, 826437, Note_on_c, 0, 53, 0
2, 826484, Note_on_c, 0, 58, 0
2, 826599, Note_on_c, 0, 53, 29
2, 826605, Note_on_c, 0, 62, 64
2, 826637, Note_on_c, 0, 43, 0
2, 826681, Control_c, 0, 64, 0
2, 826715, Note_on_c, 0, 62, 0
2, 826766, Note_on_c, 0, 53, 0
2, 826841, Note_on_c, 0, 65, 57
2, 826963, Note_on_c, 0, 65, 0
2, 827100, Note_on_c, 0, 69, 51
2, 827207, Control_c, 0, 64, 127
2, 827242, Note_on_c, 0, 69, 0
2, 827342, Note_on_c, 0, 72, 51
2, 827503, Note_on_c, 0, 72, 0
2, 827535, Control_c, 0, 64, 0
2, 827577, Note_on_c, 0, 43, 28
2, 827612, Note_on_c, 0, 36, 19
2, 827619, Note_on_c, 0, 52, 27
2, 827850, Note_on_c, 0, 52, 0
2, 828087, Control_c, 0, 64, 127
2, 828104, Note_on_c, 0, 73, 56
2, 828276, Note_on_c, 0, 73, 0
2, 828344, Note_on_c, 0, 74, 70
2, 828360, Note_on_c, 0, 36, 0
2, 828445, Note_on_c, 0, 52, 28
2, 828456, Note_on_c, 0, 43, 0
2, 828490, Note_on_c, 0, 74, 0
2, 828496, Control_c, 0, 64, 0
2, 828559, Note_on_c, 0, 52, 0
2, 828574, Note_on_c, 0, 75, 56
2, 828679, Note_on_c, 0, 75, 0
2, 828733, Note_on_c, 0, 76, 53
2, 828826, Control_c, 0, 64, 127
2, 828844, Note_on_c, 0, 77, 58
2, 828852, Note_on_c, 0, 76, 0
2, 828998, Note_on_c, 0, 77, 0
2, 829023, Note_on_c, 0, 78, 25
2, 829076, Note_on_c, 0, 78, 0
2, 829159, Note_on_c, 0, 79, 29
2, 829267, Note_on_c, 0, 80, 50
2, 829281, Note_on_c, 0, 79, 0
2, 829379, Note_on_c, 0, 80, 0
2, 829402, Note_on_c, 0, 81, 38
2, 829416, Control_c, 0, 64, 0
2, 829459, Note_on_c, 0, 41, 33
2, 829507, Note_on_c, 0, 57, 31
2, 829508, Note_on_c, 0, 48, 31
2, 829583, Note_on_c, 0, 76, 61
2, 829622, Note_on_c, 0, 81, 0
2, 829705, Note_on_c, 0, 41, 0
2, 829727, Note_on_c, 0, 48, 0
2, 829745, Control_c, 0, 64, 127
2, 829917, Note_on_c, 0, 57, 0
2, 830417, Note_on_c, 0, 64, 60
2, 830433, Note_on_c, 0, 60, 45
2, 830467, Note_on_c, 0, 64, 0
2, 830483, Note_on_c, 0, 60, 0
2, 830484, Note_on_c, 0, 57, 27
2, 830495, Control_c, 0, 64, 0
2, 830537, Note_on_c, 0, 57, 0
2, 830600, Note_on_c, 0, 76, 0
2, 831060, Control_c, 0, 64, 127
2, 831085, Note_on_c, 0, 77, 55
2, 831270, Control_c, 0, 64, 0
2, 831287, Note_on_c, 0, 77, 0
2, 831382, Note_on_c, 0, 36, 42
2, 831450, Note_on_c, 0, 72, 19
2, 831464, Note_on_c, 0, 36, 0
2, 831522, Note_on_c, 0, 72, 0
2, 831956, Control_c, 0, 64, 127
2, 832232, Control_c, 0, 64, 0
2, 832392, Note_on_c, 0, 57, 22
2, 832469, Note_on_c, 0, 57, 0
2, 832835, Control_c, 0, 64, 127
2, 832987, Note_on_c, 0, 74, 51
2, 833138, Control_c, 0, 64, 0
2, 833166, Note_on_c, 0, 74, 0
2, 833273, Note_on_c, 0, 47, 36
2, 833279, Note_on_c, 0, 76, 53
2, 833346, Note_on_c, 0, 47, 0
2, 833490, Note_on_c, 0, 76, 0
2, 833573, Note_on_c, 0, 75, 31
2, 833731, Note_on_c, 0, 75, 0
2, 833819, Note_on_c, 0, 76, 54
2, 833939, Note_on_c, 0, 76, 0
2, 834020, Control_c, 0, 64, 127
2, 834097, Control_c, 0, 64, 0
2, 834240, Note_on_c, 0, 89, 55
2, 834355, Note_on_c, 0, 89, 0
2, 834539, Note_on_c, 0, 87, 34
2, 834663, Note_on_c, 0, 87, 0
2, 834785, Note_on_c, 0, 88, 60
2, 834920, Note_on_c, 0, 88, 0
2, 834954, Control_c, 0, 64, 127
2, 835097, Control_c, 0, 64, 0
2, 835189, Note_on_c, 0, 40, 38
2, 835261, Note_on_c, 0, 40, 0
2, 835335, Control_c, 0, 64, 127
2, 835819, Note_on_c, 0, 100, 87
2, 835974, Note_on_c, 0, 100, 0
2, 836119, Note_on_c, 0, 56, 46
2, 836123, Control_c, 0, 64, 0
2, 836135, Note_on_c, 0, 62, 37
2, 836189, Note_on_c, 0, 62, 0
2, 836261, Note_on_c, 0, 56, 0
2, 836447, Note_on_c, 0, 92, 45
2, 836531, Control_c, 0, 64, 127
2, 836573, Note_on_c, 0, 92, 0
2, 836769, Note_on_c, 0, 98, 72
2, 836988, Note_on_c, 0, 98, 0
2, 837094, Note_on_c, 0, 41, 36
2, 837097, Control_c, 0, 64, 0
2, 837133, Note_on_c, 0, 57, 31
2, 837149, Note_on_c, 0, 48, 29
2, 837305, Note_on_c, 0, 41, 0
2, 837308, Control_c, 0, 64, 127
2, 837331, Note_on_c, 0, 48, 0
2, 837409, Note_on_c, 0, 57, 0
2, 837594, Note_on_c, 0, 98, 84
2, 837856, Note_on_c, 0, 99, 53
2, 837913, Note_on_c, 0, 98, 0
2, 837921, Note_on_c, 0, 100, 71
2, 837978, Note_on_c, 0, 99, 0
2, 838046, Note_on_c, 0, 100, 0
2, 838109, Control_c, 0, 64, 0
2, 838111, Note_on_c, 0, 101, 76
2, 838119, Note_on_c, 0, 64, 38
2, 838145, Note_on_c, 0, 60, 33
2, 838162, Note_on_c, 0, 57, 33
2, 838239, Note_on_c, 0, 64, 0
2, 838297, Note_on_c, 0, 60, 0
2, 838326, Note_on_c, 0, 101, 0
2, 838359, Control_c, 0, 64, 127
2, 838393, Note_on_c, 0, 57, 0
2, 838413, Note_on_c, 0, 100, 80
2, 838592, Note_on_c, 0, 100, 0
2, 838688, Note_on_c, 0, 96, 77
2, 838960, Note_on_c, 0, 35, 46
2, 838964, Control_c, 0, 64, 0
2, 838978, Note_on_c, 0, 93, 66
2, 839006, Note_on_c, 0, 96, 0
2, 839012, Note_on_c, 0, 35, 0
2, 839134, Control_c, 0, 64, 127
2, 839323, Note_on_c, 0, 93, 0
2, 839387, Note_on_c, 0, 96, 68
2, 839584, Note_on_c, 0, 96, 0
2, 839689, Note_on_c, 0, 95, 76
2, 839912, Note_on_c, 0, 95, 0
2, 839958, Note_on_c, 0, 62, 57
2, 839971, Note_on_c, 0, 60, 36
2, 839999, Note_on_c, 0, 57, 34
2, 840003, Control_c, 0, 64, 0
2, 840014, Note_on_c, 0, 53, 20
2, 840059, Note_on_c, 0, 62, 0
2, 840121, Note_on_c, 0, 53, 0
2, 840125, Note_on_c, 0, 60, 0
2, 840140, Note_on_c, 0, 94, 72
2, 840165, Note_on_c, 0, 57, 0
2, 840306, Control_c, 0, 64, 127
2, 840365, Note_on_c, 0, 94, 0
2, 840438, Note_on_c, 0, 98, 71
2, 840625, Note_on_c, 0, 98, 0
2, 840723, Note_on_c, 0, 94, 64
2, 840920, Note_on_c, 0, 94, 0
2, 840924, Control_c, 0, 64, 0
2, 840954, Note_on_c, 0, 58, 49
2, 840995, Note_on_c, 0, 48, 34
2, 841001, Note_on_c, 0, 91, 55
2, 841103, Note_on_c, 0, 48, 0
2, 841173, Control_c, 0, 64, 127
2, 841203, Note_on_c, 0, 58, 0
2, 841211, Note_on_c, 0, 91, 0
2, 841279, Note_on_c, 0, 87, 49
2, 841424, Note_on_c, 0, 87, 0
2, 841529, Note_on_c, 0, 86, 58
2, 841691, Note_on_c, 0, 86, 0
2, 841779, Note_on_c, 0, 89, 71
2, 841942, Note_on_c, 0, 89, 0
2, 841988, Control_c, 0, 64, 0
2, 842018, Note_on_c, 0, 67, 38
2, 842052, Note_on_c, 0, 58, 27
2, 842059, Note_on_c, 0, 63, 31
2, 842085, Note_on_c, 0, 87, 48
2, 842148, Note_on_c, 0, 67, 0
2, 842183, Note_on_c, 0, 58, 0
2, 842227, Note_on_c, 0, 63, 0
2, 842255, Note_on_c, 0, 87, 0
2, 842333, Note_on_c, 0, 77, 50
2, 842345, Control_c, 0, 64, 127
2, 842492, Note_on_c, 0, 77, 0
2, 842662, Note_on_c, 0, 77, 56
2, 842810, Note_on_c, 0, 77, 0
2, 842948, Control_c, 0, 64, 0
2, 842956, Note_on_c, 0, 67, 32
2, 842964, Note_on_c, 0, 63, 37
2, 842965, Note_on_c, 0, 77, 59
2, 842980, Note_on_c, 0, 57, 29
2, 843028, Note_on_c, 0, 67, 0
2, 843102, Note_on_c, 0, 63, 0
2, 843125, Note_on_c, 0, 57, 0
2, 843153, Note_on_c, 0, 77, 0
2, 843238, Control_c, 0, 64, 127
2, 843289, Note_on_c, 0, 77, 58
2, 843435, Note_on_c, 0, 77, 0
2, 843549, Note_on_c, 0, 77, 56
2, 843712, Note_on_c, 0, 77, 0
2, 843842, Note_on_c, 0, 41, 50
2, 843843, Control_c, 0, 64, 0
2, 843889, Note_on_c, 0, 77, 65
2, 843929, Note_on_c, 0, 41, 0
2, 844006, Note_on_c, 0, 77, 0
2, 844172, Note_on_c, 0, 77, 62
2, 844238, Control_c, 0, 64, 127
2, 844280, Note_on_c, 0, 77, 0
2, 844445, Note_on_c, 0, 77, 67
2, 844620, Note_on_c, 0, 77, 0
2, 844726, Note_on_c, 0, 46, 51
2, 844734, Note_on_c, 0, 77, 62
2, 844776, Control_c, 0, 64, 0
2, 844881, Note_on_c, 0, 77, 0
2, 844895, Note_on_c, 0, 46, 0
2, 845076, Note_on_c, 0, 77, 71
2, 845143, Control_c, 0, 64, 127
2, 845251, Note_on_c, 0, 77, 0
2, 845413, Note_on_c, 0, 88, 48
2, 845424, Note_on_c, 0, 86, 64
2, 845560, Note_on_c, 0, 86, 0
2, 845562, Note_on_c, 0, 88, 0
2, 845747, Note_on_c, 0, 65, 36
2, 845758, Note_on_c, 0, 77, 67
2, 845764, Control_c, 0, 64, 0
2, 845777, Note_on_c, 0, 60, 36
2, 845787, Note_on_c, 0, 62, 34
2, 845900, Note_on_c, 0, 77, 0
2, 845959, Note_on_c, 0, 65, 0
2, 846033, Note_on_c, 0, 77, 54
2, 846184, Control_c, 0, 64, 127
2, 846208, Note_on_c, 0, 77, 0
2, 846319, Note_on_c, 0, 89, 74
2, 846470, Note_on_c, 0, 89, 0
2, 846589, Note_on_c, 0, 89, 73
2, 846666, Note_on_c, 0, 53, 40
2, 846677, Note_on_c, 0, 62, 0
2, 846679, Note_on_c, 0, 60, 0
2, 846710, Control_c, 0, 64, 0
2, 846757, Note_on_c, 0, 89, 0
2, 846829, Note_on_c, 0, 53, 0
2, 846884, Note_on_c, 0, 77, 31
2, 846952, Note_on_c, 0, 77, 0
2, 846986, Control_c, 0, 64, 127
2, 847052, Note_on_c, 0, 77, 50
2, 847196, Note_on_c, 0, 77, 0
2, 847303, Note_on_c, 0, 86, 70
2, 847443, Note_on_c, 0, 86, 0
2, 847528, Note_on_c, 0, 86, 69
2, 847696, Control_c, 0, 64, 0
2, 847704, Note_on_c, 0, 86, 0
2, 847730, Note_on_c, 0, 46, 42
2, 847732, Note_on_c, 0, 77, 55
2, 847803, Note_on_c, 0, 77, 0
2, 847858, Note_on_c, 0, 46, 0
2, 847946, Control_c, 0, 64, 127
2, 847964, Note_on_c, 0, 77, 57
2, 848082, Note_on_c, 0, 77, 0
2, 848155, Note_on_c, 0, 89, 68
2, 848271, Note_on_c, 0, 89, 0
2, 848393, Note_on_c, 0, 89, 60
2, 848549, Note_on_c, 0, 89, 0
2, 848612, Note_on_c, 0, 77, 54
2, 848617, Control_c, 0, 64, 0
2, 848629, Note_on_c, 0, 46, 45
2, 848641, Note_on_c, 0, 56, 36
2, 848712, Note_on_c, 0, 77, 0
2, 848759, Note_on_c, 0, 56, 0
2, 848767, Note_on_c, 0, 46, 0
2, 848878, Note_on_c, 0, 77, 49
2, 848893, Control_c, 0, 64, 127
2, 849002, Note_on_c, 0, 77, 0
2, 849084, Note_on_c, 0, 85, 57
2, 849205, Note_on_c, 0, 85, 0
2, 849318, Note_on_c, 0, 85, 62
2, 849508, Note_on_c, 0, 85, 0
2, 849521, Note_on_c, 0, 77, 54
2, 849549, Note_on_c, 0, 65, 47
2, 849550, Note_on_c, 0, 61, 37
2, 849567, Note_on_c, 0, 56, 32
2, 849610, Note_on_c, 0, 65, 0
2, 849617, Control_c, 0, 64, 0
2, 849624, Note_on_c, 0, 77, 0
2, 849650, Note_on_c, 0, 56, 0
2, 849690, Note_on_c, 0, 61, 0
2, 849789, Note_on_c, 0, 77, 61
2, 849887, Note_on_c, 0, 77, 0
2, 849919, Control_c, 0, 64, 127
2, 850051, Note_on_c, 0, 89, 60
2, 850074, Note_on_c, 0, 88, 27
2, 850117, Note_on_c, 0, 88, 0
2, 850213, Note_on_c, 0, 89, 0
2, 850287, Note_on_c, 0, 89, 72
2, 850472, Note_on_c, 0, 89, 0
2, 850512, Note_on_c, 0, 27, 51
2, 850525, Note_on_c, 0, 77, 55
2, 850537, Note_on_c, 0, 39, 31
2, 850576, Control_c, 0, 64, 0
2, 850608, Note_on_c, 0, 77, 0
2, 850643, Note_on_c, 0, 27, 0
2, 850644, Note_on_c, 0, 39, 0
2, 850776, Note_on_c, 0, 77, 54
2, 850786, Control_c, 0, 64, 127
2, 850922, Note_on_c, 0, 77, 0
2, 850987, Note_on_c, 0, 87, 73
2, 851121, Note_on_c, 0, 87, 0
2, 851231, Note_on_c, 0, 87, 64
2, 851418, Note_on_c, 0, 87, 0
2, 851458, Note_on_c, 0, 77, 53
2, 851492, Note_on_c, 0, 61, 42
2, 851498, Note_on_c, 0, 64, 46
2, 851527, Note_on_c, 0, 58, 29
2, 851550, Note_on_c, 0, 64, 0
2, 851563, Control_c, 0, 64, 0
2, 851575, Note_on_c, 0, 77, 0
2, 851581, Note_on_c, 0, 61, 0
2, 851593, Note_on_c, 0, 58, 0
2, 851748, Note_on_c, 0, 77, 44
2, 851800, Control_c, 0, 64, 127
2, 851893, Note_on_c, 0, 77, 0
2, 851963, Note_on_c, 0, 85, 67
2, 852090, Note_on_c, 0, 85, 0
2, 852192, Note_on_c, 0, 85, 67
2, 852356, Note_on_c, 0, 85, 0
2, 852492, Note_on_c, 0, 72, 50
2, 852522, Control_c, 0, 64, 0
2, 852838, Control_c, 0, 64, 127
2, 852946, Note_on_c, 0, 84, 81
2, 852955, Note_on_c, 0, 72, 0
2, 853099, Note_on_c, 0, 84, 0
2, 853201, Note_on_c, 0, 84, 63
2, 853338, Note_on_c, 0, 84, 0
2, 853438, Note_on_c, 0, 64, 45
2, 853478, Note_on_c, 0, 69, 50
2, 853482, Control_c, 0, 64, 0
2, 853499, Note_on_c, 0, 64, 0
2, 853603, Note_on_c, 0, 69, 0
2, 853733, Note_on_c, 0, 69, 48
2, 853811, Control_c, 0, 64, 127
2, 853840, Note_on_c, 0, 69, 0
2, 853905, Note_on_c, 0, 81, 61
2, 853986, Note_on_c, 0, 80, 20
2, 854028, Note_on_c, 0, 81, 0
2, 854033, Note_on_c, 0, 80, 0
2, 854389, Control_c, 0, 64, 0
2, 854397, Note_on_c, 0, 68, 60
2, 854403, Note_on_c, 0, 54, 42
2, 854404, Note_on_c, 0, 60, 46
2, 854491, Note_on_c, 0, 50, 19
2, 854536, Note_on_c, 0, 60, 0
2, 854692, Note_on_c, 0, 54, 0
2, 854693, Control_c, 0, 64, 127
2, 854738, Note_on_c, 0, 50, 0
2, 854819, Note_on_c, 0, 68, 0
2, 855070, Note_on_c, 0, 80, 78
2, 855324, Note_on_c, 0, 80, 0
2, 855403, Control_c, 0, 64, 0
2, 855404, Note_on_c, 0, 64, 41
2, 855406, Note_on_c, 0, 54, 43
2, 855413, Note_on_c, 0, 60, 38
2, 855600, Control_c, 0, 64, 127
2, 855812, Note_on_c, 0, 60, 0
2, 855814, Note_on_c, 0, 64, 0
2, 855898, Note_on_c, 0, 54, 0
2, 856323, Control_c, 0, 64, 0
2, 856353, Note_on_c, 0, 43, 54
2, 856560, Control_c, 0, 64, 127
2, 856578, Note_on_c, 0, 43, 0
2, 856994, Note_on_c, 0, 89, 96
2, 857292, Note_on_c, 0, 62, 37
2, 857299, Note_on_c, 0, 58, 46
2, 857312, Note_on_c, 0, 57, 29
2, 857318, Note_on_c, 0, 53, 27
2, 857322, Control_c, 0, 64, 0
2, 857346, Note_on_c, 0, 82, 36
2, 857353, Note_on_c, 0, 89, 0
2, 857383, Note_on_c, 0, 57, 0
2, 857404, Note_on_c, 0, 62, 0
2, 857443, Note_on_c, 0, 58, 0
2, 857447, Note_on_c, 0, 53, 0
2, 857552, Note_on_c, 0, 82, 0
2, 857639, Control_c, 0, 64, 127
2, 857646, Note_on_c, 0, 86, 44
2, 857732, Note_on_c, 0, 86, 0
2, 857981, Note_on_c, 0, 89, 89
2, 858170, Note_on_c, 0, 89, 0
2, 858259, Note_on_c, 0, 58, 34
2, 858268, Control_c, 0, 64, 0
2, 858284, Note_on_c, 0, 88, 71
2, 858442, Note_on_c, 0, 58, 0
2, 858455, Note_on_c, 0, 88, 0
2, 858582, Note_on_c, 0, 82, 61
2, 858585, Control_c, 0, 64, 127
2, 858709, Note_on_c, 0, 82, 0
2, 858902, Note_on_c, 0, 77, 50
2, 858977, Note_on_c, 0, 77, 0
2, 859189, Control_c, 0, 64, 0
2, 859233, Note_on_c, 0, 61, 40
2, 859234, Note_on_c, 0, 64, 50
2, 859235, Note_on_c, 0, 58, 55
2, 859300, Note_on_c, 0, 64, 0
2, 859372, Note_on_c, 0, 61, 0
2, 859387, Control_c, 0, 64, 127
2, 859427, Note_on_c, 0, 58, 0
2, 859709, Note_on_c, 0, 107, 84
2, 860127, Note_on_c, 0, 106, 40
2, 860188, Note_on_c, 0, 105, 61
2, 860190, Note_on_c, 0, 106, 0
2, 860217, Note_on_c, 0, 41, 36
2, 860242, Control_c, 0, 64, 0
2, 860246, Note_on_c, 0, 107, 0
2, 860324, Note_on_c, 0, 41, 0
2, 860360, Note_on_c, 0, 104, 67
2, 860399, Note_on_c, 0, 105, 0
2, 860537, Note_on_c, 0, 104, 0
2, 860546, Note_on_c, 0, 103, 53
2, 860803, Note_on_c, 0, 103, 0
2, 860846, Control_c, 0, 64, 127
2, 860853, Note_on_c, 0, 100, 63
2, 861076, Note_on_c, 0, 100, 0
2, 861191, Note_on_c, 0, 100, 58
2, 861206, Note_on_c, 0, 64, 37
2, 861226, Note_on_c, 0, 57, 38
2, 861251, Note_on_c, 0, 60, 24
2, 861268, Control_c, 0, 64, 0
2, 861355, Note_on_c, 0, 64, 0
2, 861397, Note_on_c, 0, 100, 0
2, 861451, Note_on_c, 0, 60, 0
2, 861504, Control_c, 0, 64, 127
2, 861533, Note_on_c, 0, 57, 0
2, 861567, Note_on_c, 0, 100, 73
2, 861685, Note_on_c, 0, 100, 0
2, 862107, Note_on_c, 0, 100, 79
2, 862123, Control_c, 0, 64, 0
2, 862130, Note_on_c, 0, 99, 35
2, 862133, Note_on_c, 0, 43, 39
2, 862174, Note_on_c, 0, 99, 0
2, 862193, Note_on_c, 0, 43, 0
2, 862374, Note_on_c, 0, 100, 0
2, 862451, Control_c, 0, 64, 127
2, 862607, Note_on_c, 0, 100, 85
2, 862817, Note_on_c, 0, 100, 0
2, 863016, Control_c, 0, 64, 0
2, 863056, Note_on_c, 0, 100, 73
2, 863057, Note_on_c, 0, 62, 38
2, 863114, Note_on_c, 0, 62, 0
2, 863127, Note_on_c, 0, 57, 22
2, 863228, Control_c, 0, 64, 127
2, 863233, Note_on_c, 0, 57, 0
2, 863250, Note_on_c, 0, 100, 0
2, 863351, Note_on_c, 0, 101, 63
2, 863511, Note_on_c, 0, 101, 0
2, 863570, Note_on_c, 0, 103, 74
2, 863878, Note_on_c, 0, 103, 0
2, 864002, Control_c, 0, 64, 0
2, 864039, Note_on_c, 0, 101, 55
2, 864040, Note_on_c, 0, 47, 47
2, 864188, Note_on_c, 0, 47, 0
2, 864285, Note_on_c, 0, 101, 0
2, 864479, Control_c, 0, 64, 127
2, 864576, Note_on_c, 0, 98, 50
2, 864579, Note_on_c, 0, 93, 46
2, 864726, Note_on_c, 0, 93, 0
2, 864737, Note_on_c, 0, 98, 0
2, 864809, Control_c, 0, 64, 0
2, 864962, Note_on_c, 0, 57, 41
2, 864975, Note_on_c, 0, 65, 26
2, 864987, Note_on_c, 0, 62, 41
2, 865227, Note_on_c, 0, 62, 0
2, 865259, Note_on_c, 0, 65, 0
2, 865306, Note_on_c, 0, 57, 0
2, 865925, Note_on_c, 0, 40, 45
2, 866088, Note_on_c, 0, 40, 0
2, 866886, Note_on_c, 0, 67, 60
2, 866888, Note_on_c, 0, 56, 57
2, 866893, Note_on_c, 0, 101, 87
2, 866896, Note_on_c, 0, 62, 50
2, 866992, Note_on_c, 0, 67, 0
2, 867009, Note_on_c, 0, 62, 0
2, 867019, Note_on_c, 0, 56, 0
2, 867044, Note_on_c, 0, 101, 0
2, 867178, Note_on_c, 0, 98, 62
2, 867287, Note_on_c, 0, 98, 0
2, 867376, Note_on_c, 0, 100, 65
2, 867531, Note_on_c, 0, 100, 0
2, 867611, Note_on_c, 0, 101, 68
2, 867753, Note_on_c, 0, 101, 0
2, 867829, Note_on_c, 0, 41, 47
2, 867847, Note_on_c, 0, 100, 67
2, 867910, Note_on_c, 0, 41, 0
2, 868003, Note_on_c, 0, 100, 0
2, 868204, Note_on_c, 0, 96, 66
2, 868312, Note_on_c, 0, 96, 0
2, 868499, Note_on_c, 0, 93, 71
2, 868641, Note_on_c, 0, 93, 0
2, 868779, Note_on_c, 0, 64, 41
2, 868817, Note_on_c, 0, 88, 64
2, 868823, Note_on_c, 0, 57, 31
2, 868830, Note_on_c, 0, 60, 24
2, 868915, Note_on_c, 0, 64, 0
2, 868932, Note_on_c, 0, 57, 0
2, 868936, Note_on_c, 0, 88, 0
2, 868989, Note_on_c, 0, 60, 0
2, 869121, Note_on_c, 0, 84, 53
2, 869251, Note_on_c, 0, 84, 0
2, 869439, Note_on_c, 0, 86, 73
2, 869722, Note_on_c, 0, 67, 44
2, 869730, Note_on_c, 0, 62, 46
2, 869790, Note_on_c, 0, 67, 0
2, 869840, Note_on_c, 0, 62, 0
2, 869907, Note_on_c, 0, 86, 0
2, 870717, Note_on_c, 0, 64, 44
2, 870731, Note_on_c, 0, 60, 36
2, 870744, Note_on_c, 0, 57, 41
2, 870776, Note_on_c, 0, 53, 18
2, 870954, Note_on_c, 0, 60, 0
2, 870982, Note_on_c, 0, 64, 0
2, 871010, Note_on_c, 0, 57, 0
2, 871051, Note_on_c, 0, 53, 0
2, 871694, Note_on_c, 0, 58, 37
2, 871711, Note_on_c, 0, 55, 35
2, 871733, Note_on_c, 0, 48, 32
2, 871914, Note_on_c, 0, 48, 0
2, 871925, Note_on_c, 0, 55, 0
2, 872068, Note_on_c, 0, 58, 0
2, 872126, Note_on_c, 0, 86, 91
2, 872127, Note_on_c, 0, 89, 88
2, 872301, Note_on_c, 0, 89, 0
2, 872303, Note_on_c, 0, 86, 0
2, 872412, Note_on_c, 0, 84, 78
2, 872413, Note_on_c, 0, 87, 64
2, 872602, Note_on_c, 0, 84, 0
2, 872632, Note_on_c, 0, 87, 0
2, 872661, Note_on_c, 0, 58, 37
2, 872662, Note_on_c, 0, 67, 33
2, 872687, Note_on_c, 0, 62, 43
2, 872691, Note_on_c, 0, 63, 35
2, 872700, Note_on_c, 0, 86, 72
2, 872713, Note_on_c, 0, 89, 70
2, 873020, Note_on_c, 0, 86, 0
2, 873129, Note_on_c, 0, 67, 0
2, 873140, Note_on_c, 0, 62, 0
2, 873198, Note_on_c, 0, 89, 0
2, 873411, Note_on_c, 0, 58, 0
2, 873448, Note_on_c, 0, 63, 0
2, 873587, Note_on_c, 0, 87, 81
2, 873589, Note_on_c, 0, 83, 90
2, 873608, Note_on_c, 0, 61, 36
2, 873616, Note_on_c, 0, 63, 30
2, 873621, Note_on_c, 0, 66, 40
2, 873641, Note_on_c, 0, 57, 31
2, 873809, Note_on_c, 0, 83, 0
2, 873885, Note_on_c, 0, 85, 35
2, 873894, Note_on_c, 0, 81, 46
2, 873903, Note_on_c, 0, 87, 0
2, 873968, Note_on_c, 0, 66, 0
2, 874024, Note_on_c, 0, 81, 0
2, 874070, Note_on_c, 0, 85, 0
2, 874095, Note_on_c, 0, 63, 0
2, 874155, Note_on_c, 0, 87, 76
2, 874157, Note_on_c, 0, 83, 87
2, 874520, Note_on_c, 0, 66, 46
2, 874549, Note_on_c, 0, 63, 37
2, 874618, Control_c, 0, 64, 127
2, 874697, Note_on_c, 0, 66, 0
2, 874764, Control_c, 0, 64, 0
2, 874856, Control_c, 0, 64, 127
2, 874890, Note_on_c, 0, 83, 0
2, 874973, Note_on_c, 0, 87, 0
2, 875013, Control_c, 0, 64, 0
2, 875015, Note_on_c, 0, 85, 57
2, 875024, Note_on_c, 0, 81, 55
2, 875072, Note_on_c, 0, 57, 0
2, 875092, Control_c, 0, 64, 127
2, 875149, Note_on_c, 0, 63, 0
2, 875154, Note_on_c, 0, 61, 0
2, 875212, Note_on_c, 0, 81, 0
2, 875285, Note_on_c, 0, 82, 44
2, 875386, Note_on_c, 0, 85, 0
2, 875459, Note_on_c, 0, 82, 0
2, 875486, Control_c, 0, 64, 0
2, 875530, Note_on_c, 0, 65, 27
2, 875545, Note_on_c, 0, 60, 30
2, 875546, Note_on_c, 0, 86, 62
2, 875549, Note_on_c, 0, 81, 70
2, 875559, Note_on_c, 0, 62, 39
2, 876021, Note_on_c, 0, 81, 0
2, 876039, Note_on_c, 0, 86, 0
2, 876077, Control_c, 0, 64, 127
2, 876101, Note_on_c, 0, 65, 0
2, 876527, Note_on_c, 0, 81, 74
2, 876529, Note_on_c, 0, 84, 71
2, 876552, Control_c, 0, 64, 0
2, 876568, Note_on_c, 0, 53, 31
2, 876732, Note_on_c, 0, 81, 0
2, 876740, Note_on_c, 0, 84, 0
2, 876958, Note_on_c, 0, 60, 0
2, 876991, Note_on_c, 0, 62, 0
2, 877039, Note_on_c, 0, 81, 71
2, 877040, Note_on_c, 0, 84, 72
2, 877262, Control_c, 0, 64, 127
2, 877337, Note_on_c, 0, 81, 0
2, 877429, Note_on_c, 0, 84, 0
2, 877523, Note_on_c, 0, 65, 32
2, 877530, Note_on_c, 0, 62, 36
2, 877530, Note_on_c, 0, 77, 69
2, 877540, Note_on_c, 0, 60, 34
2, 877552, Control_c, 0, 64, 0
2, 877552, Note_on_c, 0, 81, 55
2, 877707, Note_on_c, 0, 77, 0
2, 877841, Note_on_c, 0, 81, 0
2, 878007, Note_on_c, 0, 81, 74
2, 878023, Note_on_c, 0, 76, 64
2, 878125, Note_on_c, 0, 53, 0
2, 878129, Control_c, 0, 64, 127
2, 878216, Note_on_c, 0, 76, 0
2, 878233, Note_on_c, 0, 81, 0
2, 878316, Note_on_c, 0, 65, 0
2, 878430, Note_on_c, 0, 72, 50
2, 878440, Note_on_c, 0, 79, 37
2, 878447, Control_c, 0, 64, 0
2, 878448, Note_on_c, 0, 53, 37
2, 878602, Note_on_c, 0, 79, 0
2, 878649, Note_on_c, 0, 75, 25
2, 878700, Note_on_c, 0, 72, 0
2, 878809, Note_on_c, 0, 75, 0
2, 878893, Control_c, 0, 64, 127
2, 879010, Note_on_c, 0, 62, 0
2, 879100, Note_on_c, 0, 60, 0
2, 879226, Note_on_c, 0, 53, 0
2, 879386, Note_on_c, 0, 77, 61
2, 879393, Control_c, 0, 64, 0
2, 879394, Note_on_c, 0, 65, 55
2, 879395, Note_on_c, 0, 72, 60
2, 879410, Note_on_c, 0, 73, 38
2, 879430, Note_on_c, 0, 62, 30
2, 879482, Note_on_c, 0, 62, 0
2, 879611, Note_on_c, 0, 68, 1
2, 879708, Control_c, 0, 64, 127
2, 879727, Note_on_c, 0, 77, 0
2, 879755, Note_on_c, 0, 73, 0
2, 879773, Note_on_c, 0, 72, 0
2, 879785, Note_on_c, 0, 68, 0
2, 879882, Note_on_c, 0, 65, 0
2, 880293, Note_on_c, 0, 60, 44
2, 880297, Note_on_c, 0, 72, 50
2, 880301, Control_c, 0, 64, 0
2, 880313, Note_on_c, 0, 61, 52
2, 880314, Note_on_c, 0, 65, 53
2, 880562, Control_c, 0, 64, 127
2, 880651, Note_on_c, 0, 60, 0
2, 880736, Note_on_c, 0, 72, 0
2, 880892, Note_on_c, 0, 65, 0
2, 880975, Note_on_c, 0, 61, 0
2, 881260, Control_c, 0, 64, 0
2, 881269, Note_on_c, 0, 70, 51
2, 881276, Note_on_c, 0, 55, 44
2, 881277, Note_on_c, 0, 61, 45
2, 881306, Note_on_c, 0, 64, 44
2, 881312, Note_on_c, 0, 67, 38
2, 881454, Note_on_c, 0, 55, 0
2, 881509, Control_c, 0, 64, 127
2, 881550, Note_on_c, 0, 67, 0
2, 881584, Note_on_c, 0, 64, 0
2, 881593, Note_on_c, 0, 70, 0
2, 881622, Note_on_c, 0, 61, 0
2, 882250, Note_on_c, 0, 56, 60
2, 882258, Control_c, 0, 64, 0
2, 882261, Note_on_c, 0, 63, 40
2, 882269, Note_on_c, 0, 55, 50
2, 882282, Note_on_c, 0, 52, 32
2, 882312, Note_on_c, 0, 61, 25
2, 882342, Note_on_c, 0, 42, 17
2, 882371, Note_on_c, 0, 49, 19
2, 882458, Note_on_c, 0, 52, 0
2, 882509, Note_on_c, 0, 49, 0
2, 882546, Note_on_c, 0, 42, 0
2, 882574, Control_c, 0, 64, 127
2, 882779, Note_on_c, 0, 55, 0
2, 882863, Note_on_c, 0, 56, 0
2, 882977, Note_on_c, 0, 63, 0
2, 883140, Note_on_c, 0, 61, 0
2, 883220, Control_c, 0, 64, 0
2, 883255, Note_on_c, 0, 57, 40
2, 883257, Note_on_c, 0, 55, 39
2, 883259, Note_on_c, 0, 41, 38
2, 883266, Note_on_c, 0, 60, 41
2, 883276, Note_on_c, 0, 48, 40
2, 883482, Control_c, 0, 64, 127
2, 883549, Note_on_c, 0, 57, 0
2, 883598, Note_on_c, 0, 60, 0
2, 883683, Note_on_c, 0, 55, 0
2, 883796, Note_on_c, 0, 67, 58
2, 883810, Note_on_c, 0, 48, 0
2, 883814, Note_on_c, 0, 52, 56
2, 883817, Note_on_c, 0, 62, 59
2, 883830, Note_on_c, 0, 57, 24
2, 883850, Control_c, 0, 64, 0
2, 883995, Control_c, 0, 64, 127
2, 884036, Note_on_c, 0, 62, 0
2, 884058, Note_on_c, 0, 67, 0
2, 884132, Note_on_c, 0, 57, 0
2, 884167, Control_c, 0, 64, 0
2, 884246, Note_on_c, 0, 65, 54
2, 884267, Note_on_c, 0, 60, 52
2, 884275, Note_on_c, 0, 55, 37
2, 884281, Note_on_c, 0, 52, 0
2, 884281, Note_on_c, 0, 50, 58
2, 884390, Note_on_c, 0, 55, 0
2, 884402, Control_c, 0, 64, 127
2, 884458, Note_on_c, 0, 60, 0
2, 884464, Note_on_c, 0, 65, 0
2, 884731, Control_c, 0, 64, 0
2, 884767, Note_on_c, 0, 64, 35
2, 884852, Note_on_c, 0, 64, 0
2, 884889, Control_c, 0, 64, 127
2, 885004, Note_on_c, 0, 41, 0
2, 885208, Note_on_c, 0, 50, 0
2, 885221, Note_on_c, 0, 67, 64
2, 885229, Note_on_c, 0, 72, 54
2, 885231, Control_c, 0, 64, 0
2, 885240, Note_on_c, 0, 62, 62
2, 885240, Note_on_c, 0, 57, 62
2, 885441, Control_c, 0, 64, 127
2, 885553, Note_on_c, 0, 62, 0
2, 885599, Control_c, 0, 64, 0
2, 885606, Note_on_c, 0, 67, 0
2, 885708, Note_on_c, 0, 69, 49
2, 885714, Note_on_c, 0, 53, 38
2, 885731, Control_c, 0, 64, 127
2, 885735, Note_on_c, 0, 57, 0
2, 885764, Note_on_c, 0, 69, 0
2, 885794, Note_on_c, 0, 72, 0
2, 885845, Note_on_c, 0, 53, 0
2, 886046, Control_c, 0, 64, 0
2, 886143, Note_on_c, 0, 76, 57
2, 886152, Note_on_c, 0, 65, 50
2, 886154, Note_on_c, 0, 72, 50
2, 886155, Note_on_c, 0, 69, 54
2, 886177, Note_on_c, 0, 64, 26
2, 886270, Control_c, 0, 64, 127
2, 886480, Note_on_c, 0, 65, 0
2, 886492, Note_on_c, 0, 72, 0
2, 886518, Note_on_c, 0, 64, 0
2, 886521, Note_on_c, 0, 76, 0
2, 886556, Note_on_c, 0, 69, 0
2, 886592, Note_on_c, 0, 74, 58
2, 886608, Note_on_c, 0, 62, 34
2, 886688, Note_on_c, 0, 74, 0
2, 886978, Note_on_c, 0, 62, 0
2, 887060, Control_c, 0, 64, 0
2, 887064, Note_on_c, 0, 75, 47
2, 887064, Note_on_c, 0, 70, 54
2, 887072, Note_on_c, 0, 79, 55
2, 887082, Note_on_c, 0, 67, 47
2, 887426, Note_on_c, 0, 67, 0
2, 887441, Control_c, 0, 64, 127
2, 887544, Note_on_c, 0, 60, 49
2, 887573, Note_on_c, 0, 70, 0
2, 887619, Note_on_c, 0, 79, 0
2, 887690, Note_on_c, 0, 75, 0
2, 888039, Note_on_c, 0, 63, 47
2, 888046, Control_c, 0, 64, 0
2, 888052, Note_on_c, 0, 69, 47
2, 888053, Note_on_c, 0, 72, 53
2, 888136, Note_on_c, 0, 60, 0
2, 888269, Control_c, 0, 64, 127
2, 888451, Note_on_c, 0, 63, 0
2, 888456, Note_on_c, 0, 69, 0
2, 888511, Note_on_c, 0, 79, 63
2, 888519, Note_on_c, 0, 72, 0
2, 888553, Note_on_c, 0, 53, 40
2, 888862, Note_on_c, 0, 79, 0
2, 888978, Control_c, 0, 64, 0
2, 889010, Note_on_c, 0, 63, 28
2, 889016, Note_on_c, 0, 77, 54
2, 889024, Note_on_c, 0, 75, 43
2, 889026, Note_on_c, 0, 73, 37
2, 889028, Note_on_c, 0, 65, 36
2, 889033, Note_on_c, 0, 71, 52
2, 889216, Control_c, 0, 64, 127
2, 889402, Note_on_c, 0, 63, 0
2, 889407, Note_on_c, 0, 53, 0
2, 889443, Note_on_c, 0, 71, 0
2, 889464, Note_on_c, 0, 73, 0
2, 889512, Note_on_c, 0, 53, 44
2, 889520, Note_on_c, 0, 75, 0
2, 889529, Note_on_c, 0, 77, 0
2, 889653, Note_on_c, 0, 65, 0
2, 889953, Control_c, 0, 64, 0
2, 889977, Note_on_c, 0, 63, 42
2, 889998, Note_on_c, 0, 89, 60
2, 889999, Note_on_c, 0, 81, 66
2, 890006, Note_on_c, 0, 65, 36
2, 890024, Note_on_c, 0, 85, 37
2, 890111, Control_c, 0, 64, 127
2, 890239, Note_on_c, 0, 63, 0
2, 890271, Note_on_c, 0, 53, 0
2, 890466, Note_on_c, 0, 53, 29
2, 890475, Note_on_c, 0, 65, 0
2, 890477, Note_on_c, 0, 81, 0
2, 890694, Note_on_c, 0, 85, 0
2, 890751, Note_on_c, 0, 89, 0
2, 890928, Note_on_c, 0, 65, 35
2, 890936, Note_on_c, 0, 89, 62
2, 890940, Control_c, 0, 64, 0
2, 890946, Note_on_c, 0, 60, 27
2, 890953, Note_on_c, 0, 86, 64
2, 890962, Note_on_c, 0, 62, 44
2, 890983, Note_on_c, 0, 79, 29
2, 891039, Note_on_c, 0, 79, 0
2, 891074, Note_on_c, 0, 89, 0
2, 891087, Note_on_c, 0, 86, 0
2, 891150, Control_c, 0, 64, 127
2, 891364, Note_on_c, 0, 53, 0
2, 891908, Note_on_c, 0, 53, 33
2, 891913, Control_c, 0, 64, 0
2, 892043, Control_c, 0, 64, 127
2, 892295, Note_on_c, 0, 65, 0
2, 892317, Note_on_c, 0, 60, 0
2, 892383, Note_on_c, 0, 62, 0
2, 892840, Note_on_c, 0, 62, 35
2, 892841, Note_on_c, 0, 81, 82
2, 892842, Note_on_c, 0, 65, 29
2, 892875, Control_c, 0, 64, 0
2, 892876, Note_on_c, 0, 60, 22
2, 893077, Note_on_c, 0, 81, 0
2, 893099, Note_on_c, 0, 82, 54
2, 893203, Note_on_c, 0, 53, 0
2, 893241, Note_on_c, 0, 82, 0
2, 893318, Note_on_c, 0, 77, 57
2, 893410, Note_on_c, 0, 77, 0
2, 893585, Note_on_c, 0, 79, 56
2, 893681, Note_on_c, 0, 79, 0
2, 893827, Note_on_c, 0, 53, 29
2, 894045, Control_c, 0, 64, 127
2, 894173, Note_on_c, 0, 65, 0
2, 894179, Note_on_c, 0, 60, 0
2, 894191, Note_on_c, 0, 62, 0
2, 894301, Note_on_c, 0, 53, 0
2, 894717, Control_c, 0, 64, 0
2, 894751, Note_on_c, 0, 81, 38
2, 894755, Note_on_c, 0, 62, 34
2, 894773, Note_on_c, 0, 74, 44
2, 894780, Note_on_c, 0, 52, 31
2, 894788, Note_on_c, 0, 58, 36
2, 894940, Note_on_c, 0, 74, 0
2, 894953, Control_c, 0, 64, 127
2, 895012, Note_on_c, 0, 81, 0
2, 895170, Note_on_c, 0, 52, 0
2, 895206, Note_on_c, 0, 58, 0
2, 895256, Note_on_c, 0, 62, 0
2, 895377, Note_on_c, 0, 93, 77
2, 895378, Note_on_c, 0, 86, 70
2, 895676, Control_c, 0, 64, 0
2, 895692, Note_on_c, 0, 93, 0
2, 895705, Note_on_c, 0, 67, 49
2, 895736, Note_on_c, 0, 89, 47
2, 895739, Note_on_c, 0, 62, 37
2, 895743, Note_on_c, 0, 56, 31
2, 895782, Note_on_c, 0, 81, 20
2, 895939, Control_c, 0, 64, 127
2, 896265, Note_on_c, 0, 67, 0
2, 896270, Note_on_c, 0, 62, 0
2, 896403, Note_on_c, 0, 56, 0
2, 896475, Note_on_c, 0, 81, 0
2, 896509, Note_on_c, 0, 86, 0
2, 896529, Note_on_c, 0, 89, 0
2, 896650, Control_c, 0, 64, 0
2, 896685, Note_on_c, 0, 66, 38
2, 896697, Note_on_c, 0, 61, 43
2, 896728, Note_on_c, 0, 55, 22
2, 896886, Control_c, 0, 64, 127
2, 896964, Note_on_c, 0, 55, 0
2, 896974, Note_on_c, 0, 66, 0
2, 897001, Note_on_c, 0, 61, 0
2, 897644, Note_on_c, 0, 70, 37
2, 897645, Note_on_c, 0, 55, 33
2, 897652, Note_on_c, 0, 61, 33
2, 897653, Note_on_c, 0, 66, 42
2, 897665, Control_c, 0, 64, 0
2, 897666, Note_on_c, 0, 45, 28
2, 897929, Control_c, 0, 64, 127
2, 898119, Note_on_c, 0, 45, 0
2, 898208, Note_on_c, 0, 55, 0
2, 898233, Note_on_c, 0, 70, 0
2, 898249, Note_on_c, 0, 61, 0
2, 898271, Note_on_c, 0, 66, 0
2, 898545, Control_c, 0, 64, 0
2, 898594, Note_on_c, 0, 61, 45
2, 898607, Note_on_c, 0, 69, 47
2, 898607, Note_on_c, 0, 66, 40
2, 898616, Note_on_c, 0, 57, 35
2, 898619, Note_on_c, 0, 50, 33
2, 898757, Note_on_c, 0, 61, 0
2, 898783, Control_c, 0, 64, 127
2, 898828, Note_on_c, 0, 69, 0
2, 898830, Note_on_c, 0, 66, 0
2, 898974, Note_on_c, 0, 50, 0
2, 898989, Note_on_c, 0, 57, 0
2, 899148, Note_on_c, 0, 76, 81
2, 899444, Note_on_c, 0, 76, 0
2, 899596, Note_on_c, 0, 66, 36
2, 899608, Note_on_c, 0, 69, 50
2, 899796, Control_c, 0, 64, 0
2, 900046, Note_on_c, 0, 64, 74
2, 900284, Note_on_c, 0, 69, 0
2, 900293, Note_on_c, 0, 66, 0
2, 900567, Note_on_c, 0, 66, 30
2, 900575, Note_on_c, 0, 69, 44
2, 900670, Note_on_c, 0, 66, 0
2, 900679, Note_on_c, 0, 69, 0
2, 901034, Note_on_c, 0, 66, 50
2, 901041, Note_on_c, 0, 64, 0
2, 901050, Note_on_c, 0, 62, 46
2, 901061, Note_on_c, 0, 69, 38
2, 901151, Note_on_c, 0, 66, 0
2, 901164, Control_c, 0, 64, 127
2, 901289, Note_on_c, 0, 69, 0
2, 901470, Note_on_c, 0, 62, 0
2, 901479, Control_c, 0, 64, 0
2, 901516, Note_on_c, 0, 66, 81
2, 901518, Note_on_c, 0, 69, 63
2, 901629, Note_on_c, 0, 69, 0
2, 902010, Note_on_c, 0, 69, 48
2, 902142, Note_on_c, 0, 69, 0
2, 902488, Note_on_c, 0, 69, 58
2, 902505, Control_c, 0, 64, 127
2, 902740, Note_on_c, 0, 69, 0
2, 902781, Note_on_c, 0, 66, 0
2, 902921, Note_on_c, 0, 67, 48
2, 902938, Control_c, 0, 64, 0
2, 902946, Note_on_c, 0, 71, 57
2, 902949, Note_on_c, 0, 64, 53
2, 903196, Note_on_c, 0, 71, 0
2, 903224, Note_on_c, 0, 67, 0
2, 903464, Note_on_c, 0, 67, 54
2, 903472, Note_on_c, 0, 71, 50
2, 903544, Note_on_c, 0, 71, 0
2, 903570, Control_c, 0, 64, 127
2, 903580, Note_on_c, 0, 67, 0
2, 903833, Control_c, 0, 64, 0
2, 903881, Note_on_c, 0, 64, 0
2, 903888, Note_on_c, 0, 76, 64
2, 903901, Note_on_c, 0, 71, 68
2, 903923, Note_on_c, 0, 67, 53
2, 903992, Note_on_c, 0, 67, 0
2, 904002, Note_on_c, 0, 71, 0
2, 904162, Control_c, 0, 64, 127
2, 904213, Note_on_c, 0, 76, 0
2, 904320, Control_c, 0, 64, 0
2, 904380, Note_on_c, 0, 73, 39
2, 904381, Note_on_c, 0, 70, 48
2, 904390, Note_on_c, 0, 67, 50
2, 904610, Control_c, 0, 64, 127
2, 904864, Note_on_c, 0, 57, 27
2, 905124, Note_on_c, 0, 67, 0
2, 905201, Note_on_c, 0, 70, 0
2, 905305, Note_on_c, 0, 67, 46
2, 905318, Note_on_c, 0, 70, 25
2, 905330, Note_on_c, 0, 61, 47
2, 905432, Note_on_c, 0, 57, 0
2, 905515, Note_on_c, 0, 61, 0
2, 905797, Note_on_c, 0, 76, 60
2, 905798, Note_on_c, 0, 67, 0
2, 905977, Note_on_c, 0, 76, 0
2, 906028, Note_on_c, 0, 73, 0
2, 906088, Note_on_c, 0, 70, 0
2, 906239, Control_c, 0, 64, 0
2, 906269, Note_on_c, 0, 73, 17
2, 906278, Note_on_c, 0, 57, 36
2, 906286, Note_on_c, 0, 66, 30
2, 906297, Note_on_c, 0, 50, 35
2, 906306, Note_on_c, 0, 69, 37
2, 906322, Note_on_c, 0, 54, 30
2, 906424, Note_on_c, 0, 66, 0
2, 906450, Control_c, 0, 64, 127
2, 906454, Note_on_c, 0, 69, 0
2, 906470, Note_on_c, 0, 57, 0
2, 906526, Note_on_c, 0, 50, 0
2, 906533, Note_on_c, 0, 73, 0
2, 906547, Note_on_c, 0, 54, 0
2, 906882, Note_on_c, 0, 81, 74
2, 907155, Note_on_c, 0, 81, 0
2, 907273, Note_on_c, 0, 78, 53
2, 907274, Note_on_c, 0, 61, 28
2, 907281, Note_on_c, 0, 64, 27
2, 907282, Note_on_c, 0, 73, 43
2, 907302, Note_on_c, 0, 69, 41
2, 907308, Note_on_c, 0, 54, 28
2, 907317, Control_c, 0, 64, 0
2, 907344, Note_on_c, 0, 59, 27
2, 907450, Control_c, 0, 64, 127
2, 907669, Note_on_c, 0, 78, 0
2, 907698, Note_on_c, 0, 73, 0
2, 907783, Note_on_c, 0, 69, 0
2, 907802, Note_on_c, 0, 64, 0
2, 907828, Note_on_c, 0, 61, 0
2, 908076, Note_on_c, 0, 59, 0
2, 908208, Note_on_c, 0, 66, 46
2, 908221, Note_on_c, 0, 69, 51
2, 908224, Note_on_c, 0, 64, 49
2, 908304, Control_c, 0, 64, 0
2, 908305, Note_on_c, 0, 73, 20
2, 908501, Control_c, 0, 64, 127
2, 908863, Note_on_c, 0, 64, 0
2, 909069, Note_on_c, 0, 69, 0
2, 909095, Note_on_c, 0, 73, 0
2, 909103, Note_on_c, 0, 62, 55
2, 909120, Note_on_c, 0, 66, 0
2, 909121, Note_on_c, 0, 54, 0
2, 909207, Note_on_c, 0, 62, 0
2, 909648, Note_on_c, 0, 55, 58
2, 909886, Note_on_c, 0, 55, 0
2, 910099, Note_on_c, 0, 53, 41
2, 910108, Note_on_c, 0, 57, 48
2, 910115, Note_on_c, 0, 60, 48
2, 910116, Note_on_c, 0, 65, 42
2, 910188, Control_c, 0, 64, 0
2, 910452, Control_c, 0, 64, 127
2, 910625, Note_on_c, 0, 60, 0
2, 910638, Note_on_c, 0, 50, 50
2, 910639, Note_on_c, 0, 53, 0
2, 910680, Note_on_c, 0, 65, 0
2, 910733, Note_on_c, 0, 57, 0
2, 911097, Note_on_c, 0, 43, 40
2, 911108, Note_on_c, 0, 57, 49
2, 911109, Note_on_c, 0, 53, 38
2, 911110, Control_c, 0, 64, 0
2, 911118, Note_on_c, 0, 60, 41
2, 911145, Note_on_c, 0, 50, 0
2, 911253, Control_c, 0, 64, 127
2, 911265, Note_on_c, 0, 43, 0
2, 911536, Note_on_c, 0, 53, 0
2, 911566, Note_on_c, 0, 57, 0
2, 911581, Note_on_c, 0, 31, 29
2, 911583, Control_c, 0, 64, 0
2, 911617, Note_on_c, 0, 60, 0
2, 911648, Note_on_c, 0, 31, 0
2, 911662, Control_c, 0, 64, 127
2, 912115, Note_on_c, 0, 67, 44
2, 912123, Note_on_c, 0, 59, 43
2, 912157, Note_on_c, 0, 53, 35
2, 912159, Note_on_c, 0, 43, 33
2, 912160, Control_c, 0, 64, 0
2, 912168, Note_on_c, 0, 62, 34
2, 912211, Note_on_c, 0, 65, 22
2, 912436, Control_c, 0, 64, 127
2, 912695, Note_on_c, 0, 53, 0
2, 912729, Note_on_c, 0, 62, 0
2, 912786, Note_on_c, 0, 59, 0
2, 912895, Note_on_c, 0, 65, 0
2, 912900, Note_on_c, 0, 67, 0
2, 913033, Note_on_c, 0, 65, 52
2, 913035, Note_on_c, 0, 59, 47
2, 913044, Note_on_c, 0, 62, 46
2, 913061, Note_on_c, 0, 53, 31
2, 913165, Note_on_c, 0, 43, 0
2, 913275, Note_on_c, 0, 53, 0
2, 913459, Note_on_c, 0, 62, 0
2, 913522, Note_on_c, 0, 65, 0
2, 913553, Note_on_c, 0, 59, 0
2, 913952, Note_on_c, 0, 64, 33
2, 913967, Note_on_c, 0, 43, 29
2, 913972, Note_on_c, 0, 55, 34
2, 913980, Note_on_c, 0, 59, 36
2, 913989, Control_c, 0, 64, 0
2, 913990, Note_on_c, 0, 52, 45
2, 914009, Note_on_c, 0, 36, 28
2, 914238, Control_c, 0, 64, 127
2, 914468, Note_on_c, 0, 55, 0
2, 914522, Note_on_c, 0, 59, 0
2, 914579, Note_on_c, 0, 64, 0
2, 914699, Note_on_c, 0, 52, 0
2, 914854, Note_on_c, 0, 36, 0
2, 914955, Note_on_c, 0, 74, 80
2, 914959, Note_on_c, 0, 67, 76
2, 914965, Note_on_c, 0, 64, 79
2, 914973, Note_on_c, 0, 52, 44
2, 915061, Note_on_c, 0, 43, 0
2, 915180, Note_on_c, 0, 52, 0
2, 915443, Note_on_c, 0, 74, 0
2, 915481, Note_on_c, 0, 67, 0
2, 915550, Note_on_c, 0, 64, 0
2, 915914, Note_on_c, 0, 68, 59
2, 915922, Note_on_c, 0, 62, 66
2, 915928, Note_on_c, 0, 64, 65
2, 915948, Note_on_c, 0, 71, 36
2, 915950, Note_on_c, 0, 70, 36
2, 915964, Note_on_c, 0, 59, 44
2, 916028, Control_c, 0, 64, 0
2, 916090, Note_on_c, 0, 70, 0
2, 916382, Control_c, 0, 64, 127
2, 916694, Note_on_c, 0, 62, 0
2, 916770, Note_on_c, 0, 64, 0
2, 916822, Note_on_c, 0, 59, 0
2, 916850, Note_on_c, 0, 68, 0
2, 916858, Note_on_c, 0, 71, 0
2, 916902, Note_on_c, 0, 67, 40
2, 916906, Note_on_c, 0, 64, 47
2, 916916, Note_on_c, 0, 62, 48
2, 916927, Note_on_c, 0, 57, 46
2, 916948, Control_c, 0, 64, 0
2, 917185, Control_c, 0, 64, 127
2, 917230, Note_on_c, 0, 57, 0
2, 917293, Note_on_c, 0, 67, 0
2, 917307, Note_on_c, 0, 64, 0
2, 917386, Note_on_c, 0, 62, 0
2, 917831, Note_on_c, 0, 58, 35
2, 917840, Note_on_c, 0, 62, 47
2, 917846, Note_on_c, 0, 57, 38
2, 917849, Note_on_c, 0, 53, 32
2, 917854, Control_c, 0, 64, 0
2, 917863, Note_on_c, 0, 50, 36
2, 917870, Note_on_c, 0, 43, 28
2, 918144, Control_c, 0, 64, 127
2, 918302, Note_on_c, 0, 53, 0
2, 918361, Note_on_c, 0, 57, 0
2, 918540, Note_on_c, 0, 62, 0
2, 918758, Note_on_c, 0, 50, 0
2, 918769, Note_on_c, 0, 53, 39
2, 918824, Note_on_c, 0, 43, 0
2, 918917, Note_on_c, 0, 53, 0
2, 919177, Note_on_c, 0, 65, 55
2, 919406, Note_on_c, 0, 58, 0
2, 919455, Note_on_c, 0, 65, 0
2, 919644, Control_c, 0, 64, 0
2, 919645, Note_on_c, 0, 43, 30
2, 919659, Note_on_c, 0, 58, 30
2, 919661, Note_on_c, 0, 64, 49
2, 919682, Note_on_c, 0, 55, 32
2, 919688, Note_on_c, 0, 36, 25
2, 919690, Note_on_c, 0, 61, 42
2, 919690, Note_on_c, 0, 52, 26
2, 919867, Control_c, 0, 64, 127
2, 919959, Note_on_c, 0, 55, 0
2, 919981, Note_on_c, 0, 36, 0
2, 920049, Note_on_c, 0, 43, 0
2, 920050, Note_on_c, 0, 58, 0
2, 920083, Note_on_c, 0, 64, 0
2, 920088, Note_on_c, 0, 61, 0
2, 920115, Note_on_c, 0, 52, 0
2, 920580, Note_on_c, 0, 58, 33
2, 920591, Note_on_c, 0, 75, 53
2, 920598, Note_on_c, 0, 68, 50
2, 920604, Control_c, 0, 64, 0
2, 920607, Note_on_c, 0, 72, 42
2, 920613, Note_on_c, 0, 64, 55
2, 920674, Note_on_c, 0, 58, 0
2, 920788, Control_c, 0, 64, 127
2, 921083, Note_on_c, 0, 64, 0
2, 921150, Note_on_c, 0, 72, 0
2, 921166, Note_on_c, 0, 75, 0
2, 921206, Note_on_c, 0, 68, 0
2, 921583, Note_on_c, 0, 68, 56
2, 921584, Note_on_c, 0, 76, 60
2, 921596, Note_on_c, 0, 71, 60
2, 921603, Note_on_c, 0, 64, 57
2, 921616, Control_c, 0, 64, 0
2, 921617, Note_on_c, 0, 56, 55
2, 921853, Control_c, 0, 64, 127
2, 921959, Note_on_c, 0, 64, 0
2, 922067, Note_on_c, 0, 68, 0
2, 922070, Note_on_c, 0, 71, 0
2, 922131, Note_on_c, 0, 76, 0
2, 922223, Note_on_c, 0, 56, 0
2, 922518, Note_on_c, 0, 77, 77
2, 922521, Note_on_c, 0, 72, 71
2, 922525, Control_c, 0, 64, 0
2, 922528, Note_on_c, 0, 67, 72
2, 922538, Note_on_c, 0, 64, 60
2, 922545, Note_on_c, 0, 57, 60
2, 922761, Control_c, 0, 64, 127
2, 923082, Note_on_c, 0, 77, 0
2, 923113, Note_on_c, 0, 72, 0
2, 923148, Note_on_c, 0, 64, 0
2, 923173, Note_on_c, 0, 67, 0
2, 923476, Note_on_c, 0, 72, 50
2, 923480, Note_on_c, 0, 62, 48
2, 923483, Note_on_c, 0, 67, 54
2, 923496, Control_c, 0, 64, 0
2, 923668, Control_c, 0, 64, 127
2, 923876, Note_on_c, 0, 62, 0
2, 923930, Note_on_c, 0, 67, 0
2, 923992, Note_on_c, 0, 72, 0
2, 924967, Note_on_c, 0, 74, 48
2, 925020, Note_on_c, 0, 69, 36
2, 925024, Note_on_c, 0, 65, 32
2, 925053, Note_on_c, 0, 57, 0
2, 925188, Note_on_c, 0, 65, 0
2, 925203, Note_on_c, 0, 74, 0
2, 925221, Note_on_c, 0, 69, 0
2, 925448, Note_on_c, 0, 65, 44
2, 925457, Note_on_c, 0, 76, 49
2, 925461, Note_on_c, 0, 71, 44
2, 925468, Note_on_c, 0, 69, 37
2, 925481, Note_on_c, 0, 64, 26
2, 925495, Control_c, 0, 64, 0
2, 925737, Note_on_c, 0, 64, 0
2, 925966, Note_on_c, 0, 64, 48
2, 926034, Control_c, 0, 64, 127
2, 926189, Note_on_c, 0, 64, 0
2, 926461, Note_on_c, 0, 64, 43
2, 926643, Note_on_c, 0, 64, 0
2, 926949, Note_on_c, 0, 64, 39
2, 926969, Note_on_c, 0, 69, 0
2, 926996, Note_on_c, 0, 71, 0
2, 927067, Note_on_c, 0, 65, 0
2, 927307, Note_on_c, 0, 64, 0
2, 927862, Control_c, 0, 64, 0
2, 927886, Note_on_c, 0, 70, 39
2, 927891, Note_on_c, 0, 65, 36
2, 927900, Note_on_c, 0, 64, 45
2, 927901, Note_on_c, 0, 68, 37
2, 928072, Control_c, 0, 64, 127
2, 928169, Note_on_c, 0, 64, 0
2, 928399, Note_on_c, 0, 64, 60
2, 928632, Note_on_c, 0, 64, 0
2, 928889, Note_on_c, 0, 65, 0
2, 928891, Note_on_c, 0, 64, 64
2, 929023, Note_on_c, 0, 70, 0
2, 929124, Note_on_c, 0, 68, 0
2, 929174, Note_on_c, 0, 76, 0
2, 929195, Note_on_c, 0, 64, 0
2, 929355, Note_on_c, 0, 76, 66
2, 929368, Note_on_c, 0, 69, 74
2, 929374, Note_on_c, 0, 72, 60
2, 929375, Control_c, 0, 64, 0
2, 929381, Note_on_c, 0, 67, 68
2, 929391, Note_on_c, 0, 64, 67
2, 929650, Control_c, 0, 64, 127
2, 929690, Note_on_c, 0, 64, 0
2, 929872, Note_on_c, 0, 64, 51
2, 930108, Note_on_c, 0, 67, 0
2, 930116, Note_on_c, 0, 64, 0
2, 930343, Note_on_c, 0, 65, 82
2, 930348, Control_c, 0, 64, 0
2, 930545, Control_c, 0, 64, 127
2, 930745, Note_on_c, 0, 65, 0
2, 930811, Note_on_c, 0, 65, 62
2, 931079, Note_on_c, 0, 65, 0
2, 931128, Note_on_c, 0, 69, 0
2, 931158, Note_on_c, 0, 72, 0
2, 931229, Control_c, 0, 64, 0
2, 931235, Note_on_c, 0, 65, 34
2, 931243, Note_on_c, 0, 72, 15
2, 931252, Note_on_c, 0, 69, 27
2, 931256, Note_on_c, 0, 60, 45
2, 931267, Note_on_c, 0, 76, 0
2, 931479, Control_c, 0, 64, 127
2, 931764, Note_on_c, 0, 65, 0
2, 931868, Note_on_c, 0, 69, 0
2, 932117, Note_on_c, 0, 72, 0
2, 932269, Note_on_c, 0, 62, 32
2, 932343, Note_on_c, 0, 62, 0
2, 932391, Note_on_c, 0, 60, 0
2, 933096, Control_c, 0, 64, 0
2, 933135, Note_on_c, 0, 65, 54
2, 933138, Note_on_c, 0, 72, 40
2, 933143, Note_on_c, 0, 55, 39
2, 933144, Note_on_c, 0, 45, 44
2, 933146, Note_on_c, 0, 61, 36
2, 933160, Note_on_c, 0, 69, 46
2, 933323, Control_c, 0, 64, 127
2, 933390, Note_on_c, 0, 61, 0
2, 933405, Note_on_c, 0, 65, 0
2, 933437, Note_on_c, 0, 45, 0
2, 933474, Note_on_c, 0, 69, 0
2, 933539, Note_on_c, 0, 55, 0
2, 933547, Note_on_c, 0, 72, 0
2, 934072, Note_on_c, 0, 65, 53
2, 934080, Note_on_c, 0, 60, 44
2, 934085, Note_on_c, 0, 61, 44
2, 934133, Note_on_c, 0, 55, 31
2, 934666, Note_on_c, 0, 84, 103
2, 934740, Note_on_c, 0, 60, 0
2, 934779, Note_on_c, 0, 65, 0
2, 934801, Note_on_c, 0, 55, 0
2, 934940, Note_on_c, 0, 61, 0
2, 935051, Note_on_c, 0, 60, 45
2, 935052, Note_on_c, 0, 64, 54
2, 935060, Control_c, 0, 64, 0
2, 935061, Note_on_c, 0, 54, 48
2, 935257, Control_c, 0, 64, 127
2, 935505, Note_on_c, 0, 64, 0
2, 935518, Note_on_c, 0, 60, 0
2, 935585, Note_on_c, 0, 54, 0
2, 935979, Control_c, 0, 64, 0
2, 935993, Note_on_c, 0, 60, 42
2, 936028, Note_on_c, 0, 54, 32
2, 936046, Note_on_c, 0, 50, 29
2, 936086, Control_c, 0, 64, 127
2, 936170, Note_on_c, 0, 60, 0
2, 936178, Note_on_c, 0, 84, 0
2, 936230, Note_on_c, 0, 50, 0
2, 936233, Note_on_c, 0, 54, 0
2, 936641, Note_on_c, 0, 83, 54
2, 936655, Note_on_c, 0, 71, 46
2, 936655, Note_on_c, 0, 50, 36
2, 936789, Note_on_c, 0, 83, 0
2, 936803, Note_on_c, 0, 71, 0
2, 936914, Control_c, 0, 64, 0
2, 936992, Note_on_c, 0, 82, 50
2, 937008, Note_on_c, 0, 43, 34
2, 937015, Note_on_c, 0, 70, 35
2, 937143, Note_on_c, 0, 43, 0
2, 937150, Control_c, 0, 64, 127
2, 937204, Note_on_c, 0, 50, 0
2, 937887, Control_c, 0, 64, 0
2, 937903, Note_on_c, 0, 62, 32
2, 937925, Note_on_c, 0, 58, 45
2, 937938, Note_on_c, 0, 57, 26
2, 937992, Control_c, 0, 64, 127
2, 938210, Note_on_c, 0, 57, 0
2, 938268, Note_on_c, 0, 58, 0
2, 938287, Note_on_c, 0, 62, 0
2, 938874, Note_on_c, 0, 65, 33
2, 938886, Note_on_c, 0, 82, 0
2, 938899, Control_c, 0, 64, 0
2, 938903, Note_on_c, 0, 70, 0
2, 938916, Note_on_c, 0, 58, 36
2, 938921, Note_on_c, 0, 62, 36
2, 939187, Note_on_c, 0, 69, 40
2, 939371, Note_on_c, 0, 69, 0
2, 939426, Control_c, 0, 64, 127
2, 939434, Note_on_c, 0, 70, 64
2, 939469, Note_on_c, 0, 62, 0
2, 939524, Note_on_c, 0, 65, 0
2, 939532, Note_on_c, 0, 70, 0
2, 939649, Note_on_c, 0, 74, 70
2, 939763, Note_on_c, 0, 74, 0
2, 939807, Control_c, 0, 64, 0
2, 939835, Note_on_c, 0, 65, 26
2, 939872, Note_on_c, 0, 77, 68
2, 939995, Note_on_c, 0, 77, 0
2, 940091, Note_on_c, 0, 81, 70
2, 940188, Control_c, 0, 64, 127
2, 940200, Note_on_c, 0, 81, 0
2, 940257, Note_on_c, 0, 65, 0
2, 940285, Note_on_c, 0, 58, 0
2, 940322, Note_on_c, 0, 82, 55
2, 940431, Note_on_c, 0, 82, 0
2, 940529, Note_on_c, 0, 84, 67
2, 940678, Note_on_c, 0, 84, 0
2, 940766, Note_on_c, 0, 85, 57
2, 940775, Note_on_c, 0, 65, 36
2, 940780, Control_c, 0, 64, 0
2, 940791, Note_on_c, 0, 61, 30
2, 940812, Note_on_c, 0, 60, 31
2, 940821, Note_on_c, 0, 56, 38
2, 940868, Note_on_c, 0, 85, 0
2, 941060, Note_on_c, 0, 89, 58
2, 941147, Note_on_c, 0, 89, 0
2, 941321, Note_on_c, 0, 94, 63
2, 941332, Control_c, 0, 64, 127
2, 941363, Note_on_c, 0, 65, 0
2, 941370, Note_on_c, 0, 61, 0
2, 941422, Note_on_c, 0, 94, 0
2, 941499, Note_on_c, 0, 60, 0
2, 941578, Note_on_c, 0, 96, 77
2, 941727, Note_on_c, 0, 96, 0
2, 941765, Control_c, 0, 64, 0
2, 941793, Note_on_c, 0, 61, 39
2, 941796, Note_on_c, 0, 65, 41
2, 941815, Note_on_c, 0, 60, 25
2, 941855, Note_on_c, 0, 97, 77
2, 942012, Note_on_c, 0, 97, 0
2, 942029, Control_c, 0, 64, 127
2, 942113, Note_on_c, 0, 99, 77
2, 942235, Note_on_c, 0, 99, 0
2, 942377, Note_on_c, 0, 97, 63
2, 942410, Note_on_c, 0, 60, 0
2, 942436, Note_on_c, 0, 65, 0
2, 942512, Note_on_c, 0, 97, 0
2, 942537, Note_on_c, 0, 61, 0
2, 942605, Note_on_c, 0, 99, 69
2, 942646, Note_on_c, 0, 56, 0
2, 942739, Note_on_c, 0, 99, 0
2, 942766, Control_c, 0, 64, 0
2, 942823, Note_on_c, 0, 61, 37
2, 942824, Note_on_c, 0, 65, 32
2, 942875, Note_on_c, 0, 97, 50
2, 942966, Note_on_c, 0, 65, 0
2, 942976, Control_c, 0, 64, 127
2, 943020, Note_on_c, 0, 61, 0
2, 943050, Note_on_c, 0, 97, 0
2, 943104, Note_on_c, 0, 99, 53
2, 943243, Note_on_c, 0, 99, 0
2, 943353, Note_on_c, 0, 97, 56
2, 943508, Note_on_c, 0, 97, 0
2, 943552, Note_on_c, 0, 99, 60
2, 943715, Note_on_c, 0, 99, 0
2, 943765, Control_c, 0, 64, 0
2, 943787, Note_on_c, 0, 27, 42
2, 943833, Note_on_c, 0, 97, 48
2, 943917, Note_on_c, 0, 27, 0
2, 943975, Control_c, 0, 64, 127
2, 944545, Note_on_c, 0, 97, 0
2, 944698, Control_c, 0, 64, 0
2, 944711, Note_on_c, 0, 45, 50
2, 944733, Note_on_c, 0, 96, 47
2, 944883, Note_on_c, 0, 45, 0
2, 944909, Control_c, 0, 64, 127
2, 945171, Note_on_c, 0, 96, 0
2, 945229, Note_on_c, 0, 84, 62
2, 945438, Note_on_c, 0, 84, 0
2, 945600, Note_on_c, 0, 64, 41
2, 945607, Control_c, 0, 64, 0
2, 945608, Note_on_c, 0, 60, 36
2, 945624, Note_on_c, 0, 57, 27
2, 945632, Note_on_c, 0, 84, 52
2, 945705, Note_on_c, 0, 84, 0
2, 945739, Note_on_c, 0, 64, 0
2, 945741, Note_on_c, 0, 60, 0
2, 945791, Note_on_c, 0, 57, 0
2, 946092, Note_on_c, 0, 96, 73
2, 946272, Note_on_c, 0, 96, 0
2, 946289, Control_c, 0, 64, 127
2, 946339, Note_on_c, 0, 84, 61
2, 946508, Note_on_c, 0, 84, 0
2, 946607, Note_on_c, 0, 64, 43
2, 946618, Control_c, 0, 64, 0
2, 946632, Note_on_c, 0, 57, 37
2, 946634, Note_on_c, 0, 84, 52
2, 946658, Note_on_c, 0, 60, 28
2, 946758, Note_on_c, 0, 64, 0
2, 946759, Note_on_c, 0, 60, 0
2, 946862, Note_on_c, 0, 57, 0
2, 946864, Note_on_c, 0, 84, 0
2, 946882, Control_c, 0, 64, 127
2, 946924, Note_on_c, 0, 96, 62
2, 947109, Note_on_c, 0, 96, 0
2, 947196, Note_on_c, 0, 84, 56
2, 947365, Note_on_c, 0, 84, 0
2, 947553, Control_c, 0, 64, 0
2, 947563, Note_on_c, 0, 84, 58
2, 947580, Note_on_c, 0, 45, 39
2, 947629, Note_on_c, 0, 52, 19
2, 947738, Control_c, 0, 64, 127
2, 947744, Note_on_c, 0, 45, 0
2, 947799, Note_on_c, 0, 52, 0
2, 947989, Note_on_c, 0, 84, 0
2, 948512, Control_c, 0, 64, 0
2, 948520, Note_on_c, 0, 50, 50
2, 948531, Note_on_c, 0, 60, 35
2, 948762, Control_c, 0, 64, 127
2, 948947, Note_on_c, 0, 50, 0
2, 949033, Note_on_c, 0, 60, 0
2, 949510, Note_on_c, 0, 65, 58
2, 949528, Note_on_c, 0, 60, 48
2, 949539, Control_c, 0, 64, 0
2, 949553, Note_on_c, 0, 54, 39
2, 949788, Control_c, 0, 64, 127
2, 950048, Note_on_c, 0, 60, 0
2, 950073, Note_on_c, 0, 65, 0
2, 950085, Note_on_c, 0, 54, 0
2, 950468, Note_on_c, 0, 54, 62
2, 950481, Note_on_c, 0, 64, 44
2, 950488, Note_on_c, 0, 60, 50
2, 950511, Control_c, 0, 64, 0
2, 950813, Control_c, 0, 64, 127
2, 951029, Note_on_c, 0, 64, 0
2, 951221, Note_on_c, 0, 54, 0
2, 951297, Note_on_c, 0, 60, 0
2, 951419, Note_on_c, 0, 73, 43
2, 951420, Note_on_c, 0, 69, 54
2, 951432, Control_c, 0, 64, 0
2, 951452, Note_on_c, 0, 60, 27
2, 951453, Note_on_c, 0, 70, 47
2, 951454, Note_on_c, 0, 63, 45
2, 951461, Note_on_c, 0, 54, 37
2, 951714, Note_on_c, 0, 63, 0
2, 951727, Note_on_c, 0, 69, 0
2, 951827, Control_c, 0, 64, 127
2, 951835, Note_on_c, 0, 70, 0
2, 951843, Note_on_c, 0, 73, 0
2, 951902, Note_on_c, 0, 60, 0
2, 951932, Note_on_c, 0, 62, 55
2, 951978, Note_on_c, 0, 60, 14
2, 951979, Note_on_c, 0, 72, 54
2, 951981, Note_on_c, 0, 69, 55
2, 952054, Note_on_c, 0, 60, 0
2, 952076, Note_on_c, 0, 62, 0
2, 952120, Note_on_c, 0, 69, 0
2, 952170, Note_on_c, 0, 72, 0
2, 952222, Note_on_c, 0, 54, 0
2, 952435, Control_c, 0, 64, 0
2, 952445, Note_on_c, 0, 70, 55
2, 952452, Note_on_c, 0, 58, 50
2, 952459, Note_on_c, 0, 62, 46
2, 952470, Note_on_c, 0, 65, 50
2, 952626, Note_on_c, 0, 58, 0
2, 952671, Control_c, 0, 64, 127
2, 952706, Note_on_c, 0, 65, 0
2, 952707, Note_on_c, 0, 70, 0
2, 952791, Note_on_c, 0, 62, 0
2, 952966, Note_on_c, 0, 69, 60
2, 953004, Note_on_c, 0, 43, 33
2, 953013, Control_c, 0, 64, 0
2, 953035, Note_on_c, 0, 62, 31
2, 953101, Note_on_c, 0, 58, 31
2, 953133, Control_c, 0, 64, 127
2, 953249, Note_on_c, 0, 58, 0
2, 953290, Note_on_c, 0, 62, 0
2, 953321, Note_on_c, 0, 69, 0
2, 953356, Control_c, 0, 64, 0
2, 953415, Note_on_c, 0, 57, 35
2, 953434, Note_on_c, 0, 65, 50
2, 953442, Note_on_c, 0, 62, 35
2, 953455, Note_on_c, 0, 58, 25
2, 953631, Control_c, 0, 64, 127
2, 953640, Note_on_c, 0, 57, 0
2, 953764, Note_on_c, 0, 62, 0
2, 953789, Note_on_c, 0, 65, 0
2, 953842, Note_on_c, 0, 58, 0
2, 953875, Note_on_c, 0, 50, 41
2, 954315, Control_c, 0, 64, 0
2, 954330, Note_on_c, 0, 62, 47
2, 954347, Note_on_c, 0, 58, 36
2, 954354, Note_on_c, 0, 50, 0
2, 954365, Note_on_c, 0, 53, 32
2, 954367, Note_on_c, 0, 55, 31
2, 954552, Control_c, 0, 64, 127
2, 955196, Note_on_c, 0, 55, 0
2, 955199, Note_on_c, 0, 53, 0
2, 955266, Note_on_c, 0, 50, 34
2, 955274, Note_on_c, 0, 58, 0
2, 955275, Note_on_c, 0, 43, 0
2, 955299, Note_on_c, 0, 62, 0
2, 955663, Note_on_c, 0, 50, 0
2, 955768, Note_on_c, 0, 43, 45
2, 955826, Note_on_c, 0, 43, 0
2, 956208, Note_on_c, 0, 81, 72
2, 956209, Control_c, 0, 64, 0
2, 956217, Note_on_c, 0, 70, 73
2, 956220, Note_on_c, 0, 73, 60
2, 956224, Note_on_c, 0, 76, 67
2, 956225, Note_on_c, 0, 69, 76
2, 956381, Control_c, 0, 64, 127
2, 956553, Note_on_c, 0, 70, 0
2, 956584, Note_on_c, 0, 73, 0
2, 956600, Note_on_c, 0, 81, 0
2, 956622, Note_on_c, 0, 76, 0
2, 956691, Note_on_c, 0, 69, 0
2, 956709, Note_on_c, 0, 70, 52
2, 956712, Note_on_c, 0, 79, 53
2, 956716, Note_on_c, 0, 73, 35
2, 956717, Note_on_c, 0, 67, 55
2, 956738, Note_on_c, 0, 76, 56
2, 956748, Control_c, 0, 64, 0
2, 956853, Control_c, 0, 64, 127
2, 956857, Note_on_c, 0, 70, 0
2, 956864, Note_on_c, 0, 73, 0
2, 956886, Note_on_c, 0, 76, 0
2, 956915, Note_on_c, 0, 79, 0
2, 956916, Note_on_c, 0, 67, 0
2, 957183, Control_c, 0, 64, 0
2, 957208, Note_on_c, 0, 72, 66
2, 957221, Note_on_c, 0, 84, 65
2, 957222, Note_on_c, 0, 76, 80
2, 957229, Note_on_c, 0, 73, 64
2, 957243, Note_on_c, 0, 83, 69
2, 957267, Note_on_c, 0, 82, 45
2, 957288, Note_on_c, 0, 83, 0
2, 957406, Control_c, 0, 64, 127
2, 957414, Note_on_c, 0, 76, 0
2, 957423, Note_on_c, 0, 84, 0
2, 957428, Note_on_c, 0, 72, 0
2, 957463, Note_on_c, 0, 82, 0
2, 957499, Note_on_c, 0, 73, 0
2, 957655, Control_c, 0, 64, 0
2, 957684, Note_on_c, 0, 81, 67
2, 957698, Note_on_c, 0, 69, 56
2, 957715, Note_on_c, 0, 73, 40
2, 957722, Note_on_c, 0, 70, 45
2, 957744, Note_on_c, 0, 76, 37
2, 957865, Control_c, 0, 64, 127
2, 957931, Note_on_c, 0, 69, 0
2, 957945, Note_on_c, 0, 73, 0
2, 957979, Note_on_c, 0, 81, 0
2, 957980, Note_on_c, 0, 76, 0
2, 958001, Note_on_c, 0, 70, 0
2, 958130, Control_c, 0, 64, 0
2, 958192, Note_on_c, 0, 67, 40
2, 958205, Note_on_c, 0, 70, 44
2, 958213, Note_on_c, 0, 79, 48
2, 958220, Note_on_c, 0, 76, 46
2, 958223, Note_on_c, 0, 73, 33
2, 958312, Control_c, 0, 64, 127
2, 958488, Note_on_c, 0, 79, 0
2, 958524, Note_on_c, 0, 76, 0
2, 958550, Note_on_c, 0, 70, 0
2, 958551, Note_on_c, 0, 67, 0
2, 958568, Note_on_c, 0, 73, 0
2, 959142, Note_on_c, 0, 73, 52
2, 959147, Note_on_c, 0, 64, 60
2, 959157, Note_on_c, 0, 68, 48
2, 959160, Note_on_c, 0, 58, 38
2, 959166, Note_on_c, 0, 70, 45
2, 959181, Control_c, 0, 64, 0
2, 959458, Control_c, 0, 64, 127
2, 959721, Note_on_c, 0, 73, 0
2, 959732, Note_on_c, 0, 64, 0
2, 959750, Note_on_c, 0, 58, 0
2, 959871, Note_on_c, 0, 68, 0
2, 959908, Note_on_c, 0, 70, 0
2, 960069, Note_on_c, 0, 72, 43
2, 960076, Control_c, 0, 64, 0
2, 960077, Note_on_c, 0, 62, 50
2, 960078, Note_on_c, 0, 67, 50
2, 960089, Note_on_c, 0, 57, 33
2, 960338, Control_c, 0, 64, 127
2, 960347, Note_on_c, 0, 62, 0
2, 960351, Note_on_c, 0, 67, 0
2, 960402, Note_on_c, 0, 72, 0
2, 960510, Control_c, 0, 64, 0
2, 960552, Note_on_c, 0, 71, 41
2, 960569, Note_on_c, 0, 57, 0
2, 960577, Note_on_c, 0, 67, 34
2, 960578, Note_on_c, 0, 56, 45
2, 960586, Note_on_c, 0, 62, 28
2, 960792, Note_on_c, 0, 67, 0
2, 960817, Note_on_c, 0, 62, 0
2, 960892, Note_on_c, 0, 71, 0
2, 960939, Note_on_c, 0, 56, 0
2, 961003, Note_on_c, 0, 62, 39
2, 961007, Note_on_c, 0, 57, 45
2, 961014, Note_on_c, 0, 72, 39
2, 961016, Note_on_c, 0, 67, 41
2, 961100, Note_on_c, 0, 62, 0
2, 961127, Note_on_c, 0, 67, 0
2, 961138, Note_on_c, 0, 57, 0
2, 961140, Note_on_c, 0, 72, 0
2, 961500, Note_on_c, 0, 62, 51
2, 961503, Note_on_c, 0, 57, 41
2, 961508, Note_on_c, 0, 67, 44
2, 961510, Note_on_c, 0, 72, 31
2, 961577, Note_on_c, 0, 62, 0
2, 961600, Note_on_c, 0, 67, 0
2, 961612, Note_on_c, 0, 57, 0
2, 961621, Note_on_c, 0, 72, 0
2, 961956, Note_on_c, 0, 72, 47
2, 961956, Note_on_c, 0, 57, 49
2, 961975, Note_on_c, 0, 67, 49
2, 961985, Note_on_c, 0, 62, 39
2, 962062, Note_on_c, 0, 62, 0
2, 962082, Note_on_c, 0, 57, 0
2, 962086, Note_on_c, 0, 67, 0
2, 962101, Control_c, 0, 64, 127
2, 962189, Note_on_c, 0, 72, 0
2, 962442, Control_c, 0, 64, 0
2, 962445, Note_on_c, 0, 63, 54
2, 962452, Note_on_c, 0, 60, 46
2, 962457, Note_on_c, 0, 68, 48
2, 962473, Note_on_c, 0, 44, 34
2, 962479, Note_on_c, 0, 54, 35
2, 962582, Note_on_c, 0, 60, 0
2, 962595, Note_on_c, 0, 63, 0
2, 962605, Note_on_c, 0, 54, 0
2, 962621, Note_on_c, 0, 68, 0
2, 962624, Note_on_c, 0, 44, 0
2, 962957, Note_on_c, 0, 63, 43
2, 962959, Note_on_c, 0, 68, 36
2, 962966, Note_on_c, 0, 60, 35
2, 962982, Note_on_c, 0, 54, 42
2, 962988, Note_on_c, 0, 44, 37
2, 963127, Note_on_c, 0, 60, 0
2, 963133, Note_on_c, 0, 54, 0
2, 963139, Control_c, 0, 64, 127
2, 963147, Note_on_c, 0, 44, 0
2, 963155, Note_on_c, 0, 63, 0
2, 963175, Note_on_c, 0, 68, 0
2, 963259, Control_c, 0, 64, 0
2, 963429, Note_on_c, 0, 54, 38
2, 963433, Note_on_c, 0, 68, 47
2, 963436, Note_on_c, 0, 44, 32
2, 963444, Note_on_c, 0, 63, 52
2, 963446, Note_on_c, 0, 60, 48
2, 963568, Note_on_c, 0, 54, 0
2, 963570, Note_on_c, 0, 44, 0
2, 963571, Note_on_c, 0, 60, 0
2, 963587, Control_c, 0, 64, 127
2, 963594, Note_on_c, 0, 63, 0
2, 963622, Note_on_c, 0, 68, 0
2, 963796, Control_c, 0, 64, 0
2, 963920, Note_on_c, 0, 68, 53
2, 963926, Note_on_c, 0, 54, 34
2, 963936, Note_on_c, 0, 63, 40
2, 963938, Note_on_c, 0, 44, 34
2, 963945, Note_on_c, 0, 60, 38
2, 963976, Note_on_c, 0, 54, 0
2, 963996, Note_on_c, 0, 63, 0
2, 964014, Note_on_c, 0, 60, 0
2, 964020, Note_on_c, 0, 44, 0
2, 964034, Control_c, 0, 64, 127
2, 964065, Note_on_c, 0, 68, 0
2, 964323, Control_c, 0, 64, 0
2, 964400, Note_on_c, 0, 70, 51
2, 964401, Note_on_c, 0, 67, 44
2, 964408, Note_on_c, 0, 63, 44
2, 964409, Note_on_c, 0, 59, 45
2, 964437, Note_on_c, 0, 44, 34
2, 964438, Note_on_c, 0, 37, 49
2, 964525, Note_on_c, 0, 59, 0
2, 964535, Note_on_c, 0, 63, 0
2, 964564, Note_on_c, 0, 44, 0
2, 964565, Note_on_c, 0, 37, 0
2, 964567, Note_on_c, 0, 70, 0
2, 964581, Note_on_c, 0, 67, 0
2, 964889, Note_on_c, 0, 44, 37
2, 964899, Note_on_c, 0, 70, 39
2, 964902, Note_on_c, 0, 67, 43
2, 964906, Note_on_c, 0, 59, 50
2, 964909, Note_on_c, 0, 37, 31
2, 964909, Note_on_c, 0, 63, 49
2, 964931, Control_c, 0, 64, 127
2, 965022, Note_on_c, 0, 59, 0
2, 965051, Note_on_c, 0, 70, 0
2, 965053, Note_on_c, 0, 63, 0
2, 965077, Note_on_c, 0, 37, 0
2, 965081, Note_on_c, 0, 44, 0
2, 965090, Note_on_c, 0, 67, 0
2, 965272, Control_c, 0, 64, 0
2, 965366, Control_c, 0, 64, 127
2, 965377, Note_on_c, 0, 37, 39
2, 965398, Note_on_c, 0, 44, 36
2, 965448, Note_on_c, 0, 37, 0
2, 965526, Note_on_c, 0, 44, 0
2, 965851, Control_c, 0, 64, 0
2, 965864, Note_on_c, 0, 65, 46
2, 965866, Note_on_c, 0, 58, 33
2, 965867, Note_on_c, 0, 60, 41
2, 965875, Note_on_c, 0, 42, 31
2, 965876, Note_on_c, 0, 63, 38
2, 965877, Note_on_c, 0, 53, 36
2, 966062, Control_c, 0, 64, 127
2, 966275, Note_on_c, 0, 53, 0
2, 966304, Note_on_c, 0, 60, 0
2, 966313, Note_on_c, 0, 58, 0
2, 966318, Note_on_c, 0, 65, 0
2, 966358, Note_on_c, 0, 63, 0
2, 966684, Note_on_c, 0, 42, 0
2, 966798, Control_c, 0, 64, 0
2, 966806, Note_on_c, 0, 53, 32
2, 966809, Note_on_c, 0, 56, 46
2, 966826, Note_on_c, 0, 42, 20
2, 966831, Note_on_c, 0, 51, 25
2, 966839, Note_on_c, 0, 61, 32
2, 966842, Note_on_c, 0, 58, 36
2, 966888, Note_on_c, 0, 49, 26
2, 967036, Control_c, 0, 64, 127
2, 967147, Note_on_c, 0, 51, 0
2, 967250, Note_on_c, 0, 53, 0
2, 967256, Note_on_c, 0, 42, 0
2, 967330, Note_on_c, 0, 61, 0
2, 967398, Note_on_c, 0, 49, 0
2, 967466, Note_on_c, 0, 56, 0
2, 967471, Note_on_c, 0, 58, 0
2, 967693, Control_c, 0, 64, 0
2, 967726, Note_on_c, 0, 60, 39
2, 967732, Note_on_c, 0, 52, 35
2, 967742, Note_on_c, 0, 57, 32
2, 967750, Note_on_c, 0, 55, 26
2, 967752, Note_on_c, 0, 41, 29
2, 967755, Note_on_c, 0, 48, 36
2, 967946, Control_c, 0, 64, 127
2, 967949, Note_on_c, 0, 52, 0
2, 968008, Note_on_c, 0, 57, 0
2, 968039, Note_on_c, 0, 55, 0
2, 968114, Note_on_c, 0, 60, 0
2, 968259, Note_on_c, 0, 41, 0
2, 968650, Note_on_c, 0, 76, 56
2, 968669, Control_c, 0, 64, 0
2, 968671, Note_on_c, 0, 69, 58
2, 968678, Note_on_c, 0, 72, 45
2, 968680, Note_on_c, 0, 57, 51
2, 968681, Note_on_c, 0, 64, 47
2, 968844, Control_c, 0, 64, 127
2, 968907, Note_on_c, 0, 48, 0
2, 968943, Note_on_c, 0, 64, 0
2, 969030, Note_on_c, 0, 57, 0
2, 969086, Note_on_c, 0, 76, 0
2, 969094, Note_on_c, 0, 69, 0
2, 969131, Note_on_c, 0, 72, 0
2, 969253, Note_on_c, 0, 77, 81
2, 969451, Note_on_c, 0, 77, 0
2, 969628, Note_on_c, 0, 72, 44
2, 969631, Note_on_c, 0, 65, 37
2, 969632, Note_on_c, 0, 69, 44
2, 969639, Note_on_c, 0, 64, 52
2, 969685, Control_c, 0, 64, 0
2, 969962, Note_on_c, 0, 63, 56
2, 970006, Note_on_c, 0, 64, 0
2, 970185, Control_c, 0, 64, 127
2, 970232, Note_on_c, 0, 63, 0
2, 970291, Note_on_c, 0, 62, 51
2, 970431, Note_on_c, 0, 65, 0
2, 970443, Note_on_c, 0, 69, 0
2, 970572, Note_on_c, 0, 62, 0
2, 970606, Note_on_c, 0, 72, 0
2, 970619, Control_c, 0, 64, 0
2, 970635, Note_on_c, 0, 74, 55
2, 970636, Note_on_c, 0, 61, 48
2, 970643, Note_on_c, 0, 65, 40
2, 970649, Note_on_c, 0, 69, 42
2, 970856, Control_c, 0, 64, 127
2, 971242, Note_on_c, 0, 60, 56
2, 971245, Note_on_c, 0, 61, 0
2, 971259, Note_on_c, 0, 65, 0
2, 971316, Note_on_c, 0, 69, 0
2, 971418, Note_on_c, 0, 60, 0
2, 971532, Note_on_c, 0, 74, 0
2, 971630, Note_on_c, 0, 47, 56
2, 971633, Note_on_c, 0, 69, 49
2, 971636, Note_on_c, 0, 76, 51
2, 971641, Note_on_c, 0, 57, 49
2, 971644, Control_c, 0, 64, 0
2, 971654, Note_on_c, 0, 71, 30
2, 971894, Control_c, 0, 64, 127
2, 971913, Note_on_c, 0, 47, 0
2, 971987, Note_on_c, 0, 57, 0
2, 972105, Note_on_c, 0, 69, 0
2, 972138, Note_on_c, 0, 71, 0
2, 972217, Note_on_c, 0, 76, 0
2, 972537, Note_on_c, 0, 65, 39
2, 972565, Control_c, 0, 64, 0
2, 972578, Note_on_c, 0, 62, 37
2, 972579, Note_on_c, 0, 57, 26
2, 972710, Control_c, 0, 64, 127
2, 972899, Note_on_c, 0, 88, 75
2, 972903, Note_on_c, 0, 65, 0
2, 972921, Note_on_c, 0, 62, 0
2, 972952, Note_on_c, 0, 57, 0
2, 973123, Note_on_c, 0, 88, 0
2, 973206, Note_on_c, 0, 81, 48
2, 973407, Control_c, 0, 64, 0
2, 973463, Note_on_c, 0, 62, 39
2, 973478, Note_on_c, 0, 56, 36
2, 973512, Note_on_c, 0, 52, 24
2, 973579, Note_on_c, 0, 52, 0
2, 973615, Note_on_c, 0, 62, 0
2, 973661, Note_on_c, 0, 56, 0
2, 973736, Control_c, 0, 64, 127
2, 973815, Note_on_c, 0, 88, 65
2, 973846, Note_on_c, 0, 81, 0
2, 974000, Note_on_c, 0, 88, 0
2, 974132, Note_on_c, 0, 80, 49
2, 974394, Control_c, 0, 64, 0
2, 974420, Note_on_c, 0, 56, 48
2, 974421, Note_on_c, 0, 67, 37
2, 974442, Note_on_c, 0, 62, 32
2, 974481, Note_on_c, 0, 67, 0
2, 974498, Note_on_c, 0, 62, 0
2, 974563, Note_on_c, 0, 56, 0
2, 974603, Control_c, 0, 64, 127
2, 975031, Note_on_c, 0, 48, 57
2, 975203, Note_on_c, 0, 80, 0
2, 975334, Note_on_c, 0, 48, 0
2, 975393, Control_c, 0, 64, 0
2, 975429, Note_on_c, 0, 41, 54
2, 975573, Note_on_c, 0, 41, 0
2, 975607, Note_on_c, 0, 72, 28
2, 975698, Note_on_c, 0, 74, 61
2, 975746, Note_on_c, 0, 72, 0
2, 975834, Note_on_c, 0, 72, 29
2, 975870, Note_on_c, 0, 74, 0
2, 975994, Note_on_c, 0, 72, 0
2, 975997, Note_on_c, 0, 71, 44
2, 976023, Control_c, 0, 64, 127
2, 976170, Note_on_c, 0, 71, 0
2, 976174, Note_on_c, 0, 72, 50
2, 976314, Note_on_c, 0, 72, 0
2, 976342, Note_on_c, 0, 62, 39
2, 976356, Note_on_c, 0, 81, 72
2, 976365, Control_c, 0, 64, 0
2, 976389, Note_on_c, 0, 60, 24
2, 976407, Note_on_c, 0, 62, 0
2, 976468, Note_on_c, 0, 60, 0
2, 976502, Note_on_c, 0, 81, 0
2, 976686, Note_on_c, 0, 72, 34
2, 976806, Note_on_c, 0, 74, 54
2, 976844, Note_on_c, 0, 72, 0
2, 976964, Note_on_c, 0, 72, 24
2, 976968, Note_on_c, 0, 74, 0
2, 977023, Control_c, 0, 64, 127
2, 977122, Note_on_c, 0, 71, 47
2, 977129, Note_on_c, 0, 72, 0
2, 977246, Note_on_c, 0, 41, 34
2, 977247, Control_c, 0, 64, 0
2, 977259, Note_on_c, 0, 71, 0
2, 977294, Note_on_c, 0, 72, 24
2, 977342, Note_on_c, 0, 41, 0
2, 977372, Note_on_c, 0, 72, 0
2, 977436, Note_on_c, 0, 81, 70
2, 977549, Note_on_c, 0, 81, 0
2, 977740, Note_on_c, 0, 71, 66
2, 977811, Control_c, 0, 64, 127
2, 977831, Note_on_c, 0, 71, 0
2, 978062, Control_c, 0, 64, 0
2, 978139, Note_on_c, 0, 62, 50
2, 978145, Note_on_c, 0, 71, 70
2, 978173, Note_on_c, 0, 57, 35
2, 978175, Note_on_c, 0, 60, 33
2, 978214, Note_on_c, 0, 62, 0
2, 978236, Note_on_c, 0, 60, 0
2, 978303, Note_on_c, 0, 57, 0
2, 978412, Note_on_c, 0, 71, 0
2, 978452, Note_on_c, 0, 72, 55
2, 978549, Control_c, 0, 64, 127
2, 978623, Note_on_c, 0, 72, 0
2, 979156, Note_on_c, 0, 51, 45
2, 979167, Control_c, 0, 64, 0
2, 979180, Note_on_c, 0, 41, 41
2, 979324, Note_on_c, 0, 41, 0
2, 979391, Control_c, 0, 64, 127
2, 979453, Note_on_c, 0, 51, 0
2, 979614, Control_c, 0, 64, 0
2, 979627, Note_on_c, 0, 72, 71
2, 979766, Note_on_c, 0, 72, 0
2, 979778, Note_on_c, 0, 74, 55
2, 979798, Control_c, 0, 64, 127
2, 979867, Note_on_c, 0, 72, 27
2, 979917, Note_on_c, 0, 74, 0
2, 980030, Note_on_c, 0, 71, 64
2, 980072, Note_on_c, 0, 72, 0
2, 980120, Note_on_c, 0, 67, 27
2, 980128, Note_on_c, 0, 58, 33
2, 980140, Note_on_c, 0, 63, 34
2, 980149, Note_on_c, 0, 62, 35
2, 980152, Note_on_c, 0, 71, 0
2, 980156, Control_c, 0, 64, 0
2, 980221, Note_on_c, 0, 72, 61
2, 980409, Note_on_c, 0, 72, 0
2, 980462, Note_on_c, 0, 74, 74
2, 980565, Note_on_c, 0, 74, 0
2, 980597, Note_on_c, 0, 67, 0
2, 980599, Control_c, 0, 64, 127
2, 980602, Note_on_c, 0, 62, 0
2, 980673, Note_on_c, 0, 75, 52
2, 980812, Note_on_c, 0, 75, 0
2, 980817, Note_on_c, 0, 58, 0
2, 980877, Note_on_c, 0, 63, 0
2, 980900, Note_on_c, 0, 77, 73
2, 980994, Control_c, 0, 64, 0
2, 981040, Note_on_c, 0, 77, 0
2, 981099, Note_on_c, 0, 66, 43
2, 981120, Note_on_c, 0, 61, 29
2, 981129, Note_on_c, 0, 78, 57
2, 981137, Note_on_c, 0, 63, 32
2, 981207, Note_on_c, 0, 57, 22
2, 981261, Note_on_c, 0, 66, 0
2, 981300, Note_on_c, 0, 78, 0
2, 981396, Note_on_c, 0, 80, 59
2, 981541, Note_on_c, 0, 80, 0
2, 981547, Control_c, 0, 64, 127
2, 981607, Note_on_c, 0, 81, 68
2, 981621, Note_on_c, 0, 61, 0
2, 981642, Note_on_c, 0, 63, 0
2, 981742, Note_on_c, 0, 81, 0
2, 981844, Note_on_c, 0, 82, 65
2, 981951, Note_on_c, 0, 82, 0
2, 981994, Control_c, 0, 64, 0
2, 982018, Note_on_c, 0, 61, 33
2, 982023, Note_on_c, 0, 83, 58
2, 982039, Note_on_c, 0, 63, 32
2, 982149, Note_on_c, 0, 83, 0
2, 982170, Note_on_c, 0, 84, 42
2, 982271, Control_c, 0, 64, 127
2, 982288, Note_on_c, 0, 86, 42
2, 982300, Note_on_c, 0, 84, 0
2, 982454, Note_on_c, 0, 86, 0
2, 982504, Note_on_c, 0, 87, 35
2, 982537, Note_on_c, 0, 57, 0
2, 982562, Note_on_c, 0, 63, 0
2, 982617, Note_on_c, 0, 61, 0
2, 982622, Note_on_c, 0, 87, 0
2, 982629, Note_on_c, 0, 88, 52
2, 982714, Note_on_c, 0, 88, 0
2, 982793, Note_on_c, 0, 89, 80
2, 982924, Note_on_c, 0, 89, 0
2, 982928, Control_c, 0, 64, 0
2, 983030, Note_on_c, 0, 91, 89
2, 983045, Note_on_c, 0, 65, 30
2, 983061, Note_on_c, 0, 60, 35
2, 983067, Note_on_c, 0, 62, 33
2, 983231, Note_on_c, 0, 91, 0
2, 983273, Note_on_c, 0, 65, 0
2, 983310, Note_on_c, 0, 89, 73
2, 983454, Note_on_c, 0, 89, 0
2, 983545, Note_on_c, 0, 86, 68
2, 983612, Control_c, 0, 64, 127
2, 983648, Note_on_c, 0, 86, 0
2, 983777, Note_on_c, 0, 81, 57
2, 983823, Control_c, 0, 64, 0
2, 983824, Note_on_c, 0, 53, 44
2, 983941, Note_on_c, 0, 81, 0
2, 984075, Note_on_c, 0, 77, 50
2, 984105, Note_on_c, 0, 62, 0
2, 984235, Note_on_c, 0, 53, 0
2, 984266, Note_on_c, 0, 77, 0
2, 984331, Note_on_c, 0, 84, 66
2, 984332, Note_on_c, 0, 60, 0
2, 984468, Note_on_c, 0, 84, 0
2, 984611, Note_on_c, 0, 74, 51
2, 984668, Note_on_c, 0, 74, 0
2, 984690, Control_c, 0, 64, 127
2, 984876, Note_on_c, 0, 74, 47
2, 984901, Control_c, 0, 64, 0
2, 984968, Note_on_c, 0, 74, 0
2, 984971, Note_on_c, 0, 65, 20
2, 985008, Note_on_c, 0, 62, 24
2, 985022, Note_on_c, 0, 60, 20
2, 985095, Note_on_c, 0, 65, 0
2, 985153, Note_on_c, 0, 62, 0
2, 985229, Note_on_c, 0, 71, 27
2, 985252, Note_on_c, 0, 60, 0
2, 985315, Note_on_c, 0, 71, 0
2, 985593, Note_on_c, 0, 74, 62
2, 985741, Control_c, 0, 64, 127
2, 985745, Note_on_c, 0, 74, 0
2, 985830, Note_on_c, 0, 65, 57
2, 986015, Note_on_c, 0, 65, 0
2, 986098, Control_c, 0, 64, 0
2, 986137, Note_on_c, 0, 65, 50
2, 986140, Note_on_c, 0, 62, 30
2, 986154, Note_on_c, 0, 60, 27
2, 986270, Note_on_c, 0, 62, 0
2, 986341, Note_on_c, 0, 65, 0
2, 986347, Note_on_c, 0, 60, 0
2, 986426, Note_on_c, 0, 69, 48
2, 986591, Note_on_c, 0, 69, 0
2, 986716, Control_c, 0, 64, 127
2, 986732, Note_on_c, 0, 72, 53
2, 986993, Note_on_c, 0, 72, 0
2, 987003, Control_c, 0, 64, 0
2, 987041, Note_on_c, 0, 69, 40
2, 987061, Note_on_c, 0, 56, 50
2, 987071, Note_on_c, 0, 46, 39
2, 987165, Note_on_c, 0, 46, 0
2, 987200, Note_on_c, 0, 56, 0
2, 987285, Note_on_c, 0, 69, 0
2, 987327, Note_on_c, 0, 70, 52
2, 987499, Note_on_c, 0, 70, 0
2, 987595, Note_on_c, 0, 72, 55
2, 987675, Control_c, 0, 64, 127
2, 987853, Note_on_c, 0, 72, 0
2, 987885, Control_c, 0, 64, 0
2, 987911, Note_on_c, 0, 73, 48
2, 987922, Note_on_c, 0, 61, 39
2, 987935, Note_on_c, 0, 65, 31
2, 987995, Note_on_c, 0, 65, 0
2, 988053, Note_on_c, 0, 61, 0
2, 988059, Note_on_c, 0, 73, 0
2, 988198, Note_on_c, 0, 75, 49
2, 988362, Note_on_c, 0, 75, 0
2, 988438, Control_c, 0, 64, 127
2, 988487, Note_on_c, 0, 77, 61
2, 988731, Note_on_c, 0, 77, 0
2, 988742, Control_c, 0, 64, 0
2, 988831, Note_on_c, 0, 27, 34
2, 988833, Note_on_c, 0, 79, 47
2, 988904, Note_on_c, 0, 27, 0
2, 988996, Note_on_c, 0, 79, 0
2, 989109, Note_on_c, 0, 80, 51
2, 989281, Note_on_c, 0, 80, 0
2, 989358, Control_c, 0, 64, 127
2, 989411, Note_on_c, 0, 82, 52
2, 989618, Note_on_c, 0, 82, 0
2, 989701, Note_on_c, 0, 84, 60
2, 989714, Control_c, 0, 64, 0
2, 989723, Note_on_c, 0, 61, 39
2, 989754, Note_on_c, 0, 72, 19
2, 989769, Note_on_c, 0, 58, 21
2, 989811, Note_on_c, 0, 84, 0
2, 989817, Note_on_c, 0, 72, 0
2, 989849, Note_on_c, 0, 61, 0
2, 989858, Note_on_c, 0, 58, 0
2, 989998, Note_on_c, 0, 73, 49
2, 990000, Note_on_c, 0, 85, 55
2, 990143, Note_on_c, 0, 73, 0
2, 990190, Note_on_c, 0, 85, 0
2, 990302, Note_on_c, 0, 86, 58
2, 990308, Note_on_c, 0, 74, 55
2, 990406, Note_on_c, 0, 86, 0
2, 990408, Note_on_c, 0, 74, 0
2, 990439, Control_c, 0, 64, 127
2, 990595, Note_on_c, 0, 87, 64
2, 990597, Note_on_c, 0, 75, 69
2, 990623, Note_on_c, 0, 81, 50
2, 990687, Note_on_c, 0, 75, 0
2, 990702, Note_on_c, 0, 81, 0
2, 990733, Note_on_c, 0, 57, 37
2, 990769, Control_c, 0, 64, 0
2, 990770, Note_on_c, 0, 87, 0
2, 990797, Note_on_c, 0, 48, 24
2, 990826, Note_on_c, 0, 87, 23
2, 990846, Note_on_c, 0, 75, 53
2, 990866, Note_on_c, 0, 81, 30
2, 990896, Note_on_c, 0, 48, 0
2, 990914, Note_on_c, 0, 84, 39
2, 990930, Note_on_c, 0, 57, 0
2, 990976, Note_on_c, 0, 87, 0
2, 990989, Note_on_c, 0, 75, 0
2, 990992, Note_on_c, 0, 88, 28
2, 991003, Note_on_c, 0, 76, 54
2, 991047, Note_on_c, 0, 88, 0
2, 991103, Note_on_c, 0, 84, 0
2, 991122, Note_on_c, 0, 81, 0
2, 991153, Note_on_c, 0, 76, 0
2, 991181, Note_on_c, 0, 88, 19
2, 991211, Note_on_c, 0, 84, 47
2, 991212, Note_on_c, 0, 81, 24
2, 991265, Note_on_c, 0, 76, 15
2, 991280, Note_on_c, 0, 88, 0
2, 991313, Note_on_c, 0, 84, 0
2, 991324, Note_on_c, 0, 81, 0
2, 991397, Note_on_c, 0, 88, 44
2, 991431, Note_on_c, 0, 81, 55
2, 991444, Note_on_c, 0, 84, 44
2, 991453, Control_c, 0, 64, 127
2, 991511, Note_on_c, 0, 84, 0
2, 991528, Note_on_c, 0, 88, 0
2, 991535, Note_on_c, 0, 76, 0
2, 991540, Note_on_c, 0, 81, 0
2, 991629, Note_on_c, 0, 88, 58
2, 991632, Note_on_c, 0, 76, 61
2, 991645, Note_on_c, 0, 81, 50
2, 991658, Note_on_c, 0, 84, 50
2, 991673, Note_on_c, 0, 64, 42
2, 991676, Control_c, 0, 64, 0
2, 991704, Note_on_c, 0, 57, 42
2, 991708, Note_on_c, 0, 60, 31
2, 991722, Note_on_c, 0, 84, 0
2, 991755, Note_on_c, 0, 81, 0
2, 991763, Note_on_c, 0, 76, 0
2, 991780, Note_on_c, 0, 88, 0
2, 991784, Note_on_c, 0, 64, 0
2, 991838, Note_on_c, 0, 60, 0
2, 991892, Note_on_c, 0, 88, 59
2, 991909, Note_on_c, 0, 76, 58
2, 991934, Note_on_c, 0, 81, 43
2, 991935, Note_on_c, 0, 57, 0
2, 991936, Note_on_c, 0, 84, 42
2, 992019, Note_on_c, 0, 81, 0
2, 992039, Note_on_c, 0, 84, 0
2, 992057, Note_on_c, 0, 76, 0
2, 992064, Note_on_c, 0, 88, 0
2, 992151, Note_on_c, 0, 88, 40
2, 992155, Note_on_c, 0, 76, 57
2, 992174, Note_on_c, 0, 84, 34
2, 992187, Note_on_c, 0, 81, 46
2, 992247, Note_on_c, 0, 81, 0
2, 992259, Note_on_c, 0, 84, 0
2, 992281, Note_on_c, 0, 76, 0
2, 992283, Note_on_c, 0, 88, 0
2, 992294, Control_c, 0, 64, 127
2, 992380, Note_on_c, 0, 88, 43
2, 992382, Note_on_c, 0, 76, 48
2, 992413, Note_on_c, 0, 84, 37
2, 992415, Note_on_c, 0, 81, 46
2, 992500, Note_on_c, 0, 81, 0
2, 992514, Note_on_c, 0, 88, 0
2, 992515, Note_on_c, 0, 76, 0
2, 992516, Note_on_c, 0, 84, 0
2, 992640, Note_on_c, 0, 88, 57
2, 992647, Note_on_c, 0, 76, 54
2, 992650, Control_c, 0, 64, 0
2, 992671, Note_on_c, 0, 81, 45
2, 992674, Note_on_c, 0, 84, 40
2, 992693, Note_on_c, 0, 45, 48
2, 992704, Note_on_c, 0, 55, 39
2, 992772, Note_on_c, 0, 88, 0
2, 992776, Note_on_c, 0, 84, 0
2, 992780, Note_on_c, 0, 81, 0
2, 992784, Note_on_c, 0, 76, 0
2, 992844, Note_on_c, 0, 45, 0
2, 992872, Note_on_c, 0, 88, 45
2, 992893, Note_on_c, 0, 76, 51
2, 992897, Note_on_c, 0, 84, 43
2, 992903, Note_on_c, 0, 81, 40
2, 992926, Control_c, 0, 64, 127
2, 992933, Note_on_c, 0, 55, 0
2, 992973, Note_on_c, 0, 84, 0
2, 993008, Note_on_c, 0, 88, 0
2, 993008, Note_on_c, 0, 81, 0
2, 993049, Note_on_c, 0, 76, 0
2, 993167, Note_on_c, 0, 84, 53
2, 993209, Note_on_c, 0, 72, 31
2, 993219, Note_on_c, 0, 79, 24
2, 993684, Note_on_c, 0, 65, 68
2, 993686, Note_on_c, 0, 60, 62
2, 993690, Control_c, 0, 64, 0
2, 993709, Note_on_c, 0, 54, 56
2, 993925, Control_c, 0, 64, 127
2, 994197, Note_on_c, 0, 65, 0
2, 994199, Note_on_c, 0, 60, 0
2, 994202, Note_on_c, 0, 79, 0
2, 994219, Note_on_c, 0, 84, 0
2, 994345, Note_on_c, 0, 54, 0
2, 994354, Note_on_c, 0, 72, 0
2, 994569, Control_c, 0, 64, 0
2, 994606, Note_on_c, 0, 81, 45
2, 994615, Note_on_c, 0, 62, 48
2, 994621, Note_on_c, 0, 53, 26
2, 994622, Note_on_c, 0, 74, 51
2, 994623, Note_on_c, 0, 69, 43
2, 994625, Note_on_c, 0, 58, 49
2, 994626, Note_on_c, 0, 77, 47
2, 994652, Note_on_c, 0, 57, 43
2, 994761, Note_on_c, 0, 57, 0
2, 994765, Note_on_c, 0, 62, 0
2, 994792, Control_c, 0, 64, 127
2, 994836, Note_on_c, 0, 58, 0
2, 994848, Note_on_c, 0, 53, 0
2, 995088, Note_on_c, 0, 81, 0
2, 995109, Note_on_c, 0, 77, 0
2, 995117, Note_on_c, 0, 74, 0
2, 995172, Note_on_c, 0, 69, 0
2, 995203, Note_on_c, 0, 43, 53
2, 995366, Note_on_c, 0, 43, 0
2, 995490, Control_c, 0, 64, 0
2, 995551, Note_on_c, 0, 74, 65
2, 995552, Note_on_c, 0, 70, 67
2, 995559, Note_on_c, 0, 77, 64
2, 995561, Note_on_c, 0, 65, 64
2, 995581, Note_on_c, 0, 64, 67
2, 995766, Control_c, 0, 64, 127
2, 996010, Note_on_c, 0, 74, 0
2, 996040, Note_on_c, 0, 77, 0
2, 996044, Note_on_c, 0, 64, 0
2, 996111, Note_on_c, 0, 65, 0
2, 996127, Note_on_c, 0, 70, 0
2, 996460, Note_on_c, 0, 76, 63
2, 996476, Control_c, 0, 64, 0
2, 996477, Note_on_c, 0, 75, 42
2, 996478, Note_on_c, 0, 68, 49
2, 996480, Note_on_c, 0, 61, 53
2, 996489, Note_on_c, 0, 64, 51
2, 996534, Note_on_c, 0, 75, 0
2, 996742, Control_c, 0, 64, 127
2, 996834, Note_on_c, 0, 61, 0
2, 996867, Note_on_c, 0, 76, 0
2, 996897, Note_on_c, 0, 64, 0
2, 997083, Note_on_c, 0, 68, 0
2, 997375, Control_c, 0, 64, 0
2, 997392, Note_on_c, 0, 73, 45
2, 997401, Note_on_c, 0, 64, 42
2, 997402, Note_on_c, 0, 68, 52
2, 997411, Note_on_c, 0, 42, 39
2, 997419, Note_on_c, 0, 49, 43
2, 997584, Control_c, 0, 64, 127
2, 997625, Note_on_c, 0, 42, 0
2, 997847, Note_on_c, 0, 64, 0
2, 997855, Note_on_c, 0, 73, 0
2, 997873, Note_on_c, 0, 49, 0
2, 997941, Note_on_c, 0, 68, 0
2, 998057, Note_on_c, 0, 72, 57
2, 998063, Note_on_c, 0, 62, 55
2, 998065, Note_on_c, 0, 67, 60
2, 998108, Note_on_c, 0, 62, 0
2, 998175, Note_on_c, 0, 67, 0
2, 998216, Control_c, 0, 64, 0
2, 998247, Note_on_c, 0, 72, 0
2, 998338, Note_on_c, 0, 41, 25
2, 998344, Note_on_c, 0, 48, 29
2, 998364, Note_on_c, 0, 57, 33
2, 998467, Note_on_c, 0, 41, 0
2, 998491, Control_c, 0, 64, 127
2, 998503, Note_on_c, 0, 88, 75
2, 998512, Note_on_c, 0, 76, 68
2, 998523, Note_on_c, 0, 81, 60
2, 998574, Note_on_c, 0, 48, 0
2, 998579, Note_on_c, 0, 81, 0
2, 998620, Note_on_c, 0, 57, 0
2, 999028, Note_on_c, 0, 88, 0
2, 999033, Note_on_c, 0, 76, 0
2, 999328, Note_on_c, 0, 62, 35
2, 999335, Control_c, 0, 64, 0
2, 999336, Note_on_c, 0, 89, 51
2, 999337, Note_on_c, 0, 60, 30
2, 999346, Note_on_c, 0, 81, 44
2, 999348, Note_on_c, 0, 77, 48
2, 999349, Note_on_c, 0, 84, 55
2, 999357, Note_on_c, 0, 53, 27
2, 999378, Note_on_c, 0, 57, 33
2, 999417, Note_on_c, 0, 62, 0
2, 999440, Note_on_c, 0, 77, 0
2, 999444, Note_on_c, 0, 81, 0
2, 999454, Note_on_c, 0, 57, 0
2, 999455, Note_on_c, 0, 89, 0
2, 999459, Note_on_c, 0, 60, 0
2, 999484, Note_on_c, 0, 84, 0
2, 999545, Note_on_c, 0, 53, 0
2, 999728, Control_c, 0, 64, 127
2, 1000187, Control_c, 0, 64, 0
2, 1000285, Note_on_c, 0, 84, 37
2, 1000291, Note_on_c, 0, 72, 28
2, 1000315, Note_on_c, 0, 79, 34
2, 1000319, Note_on_c, 0, 36, 34
2, 1000332, Note_on_c, 0, 48, 30
2, 1000451, Note_on_c, 0, 36, 0
2, 1000515, Note_on_c, 0, 79, 0
2, 1000517, Note_on_c, 0, 48, 0
2, 1000534, Note_on_c, 0, 84, 0
2, 1000543, Note_on_c, 0, 72, 0
2, 1000727, Control_c, 0, 64, 127
2, 1001161, Control_c, 0, 64, 0
2, 1001209, Note_on_c, 0, 62, 35
2, 1001229, Note_on_c, 0, 53, 31
2, 1001233, Note_on_c, 0, 60, 35
2, 1001259, Note_on_c, 0, 57, 34
2, 1001316, Note_on_c, 0, 62, 0
2, 1001334, Note_on_c, 0, 60, 0
2, 1001363, Note_on_c, 0, 57, 0
2, 1001435, Note_on_c, 0, 53, 0
2, 1001516, Control_c, 0, 64, 127
2, 1001925, Note_on_c, 0, 86, 57
2, 1001939, Note_on_c, 0, 74, 55
2, 1001947, Note_on_c, 0, 79, 50
2, 1001995, Note_on_c, 0, 74, 0
2, 1002006, Note_on_c, 0, 79, 0
2, 1002087, Note_on_c, 0, 86, 0
2, 1002258, Note_on_c, 0, 35, 53
2, 1002272, Note_on_c, 0, 47, 34
2, 1002279, Control_c, 0, 64, 0
2, 1002335, Note_on_c, 0, 87, 52
2, 1002336, Note_on_c, 0, 75, 54
2, 1002377, Note_on_c, 0, 35, 0
2, 1002394, Note_on_c, 0, 83, 44
2, 1002434, Note_on_c, 0, 88, 47
2, 1002455, Note_on_c, 0, 47, 0
2, 1002469, Note_on_c, 0, 87, 0
2, 1002470, Note_on_c, 0, 86, 39
2, 1002477, Note_on_c, 0, 75, 0
2, 1002478, Note_on_c, 0, 76, 57
2, 1002581, Control_c, 0, 64, 127
2, 1003050, Note_on_c, 0, 76, 0
2, 1003075, Note_on_c, 0, 88, 0
2, 1003109, Note_on_c, 0, 83, 0
2, 1003142, Note_on_c, 0, 86, 0
2, 1003216, Note_on_c, 0, 62, 58
2, 1003218, Note_on_c, 0, 67, 65
2, 1003225, Note_on_c, 0, 63, 61
2, 1003226, Note_on_c, 0, 57, 68
2, 1003265, Control_c, 0, 64, 0
2, 1003503, Control_c, 0, 64, 127
2, 1003857, Note_on_c, 0, 62, 0
2, 1003873, Note_on_c, 0, 57, 0
2, 1003923, Note_on_c, 0, 67, 0
2, 1004168, Note_on_c, 0, 63, 0
2, 1004185, Control_c, 0, 64, 0
2, 1004193, Note_on_c, 0, 62, 66
2, 1004197, Note_on_c, 0, 67, 54
2, 1004244, Note_on_c, 0, 56, 50
2, 1004488, Control_c, 0, 64, 127
2, 1004631, Note_on_c, 0, 67, 0
2, 1004643, Note_on_c, 0, 62, 0
2, 1004711, Note_on_c, 0, 56, 0
2, 1005067, Control_c, 0, 64, 0
2, 1005123, Note_on_c, 0, 80, 38
2, 1005125, Note_on_c, 0, 62, 44
2, 1005126, Note_on_c, 0, 86, 48
2, 1005143, Note_on_c, 0, 56, 36
2, 1005164, Note_on_c, 0, 74, 22
2, 1005170, Note_on_c, 0, 52, 24
2, 1005194, Note_on_c, 0, 83, 32
2, 1005261, Note_on_c, 0, 62, 0
2, 1005296, Note_on_c, 0, 52, 0
2, 1005302, Note_on_c, 0, 56, 0
2, 1005344, Control_c, 0, 64, 127
2, 1005535, Note_on_c, 0, 83, 0
2, 1005563, Note_on_c, 0, 74, 0
2, 1005597, Note_on_c, 0, 86, 0
2, 1005606, Note_on_c, 0, 80, 0
2, 1006025, Note_on_c, 0, 84, 39
2, 1006027, Control_c, 0, 64, 0
2, 1006031, Note_on_c, 0, 41, 32
2, 1006032, Note_on_c, 0, 48, 41
2, 1006034, Note_on_c, 0, 72, 38
2, 1006049, Note_on_c, 0, 57, 35
2, 1006051, Note_on_c, 0, 79, 46
2, 1006263, Control_c, 0, 64, 127
2, 1006291, Note_on_c, 0, 41, 0
2, 1006304, Note_on_c, 0, 84, 0
2, 1006338, Note_on_c, 0, 79, 0
2, 1006358, Note_on_c, 0, 48, 0
2, 1006430, Note_on_c, 0, 57, 0
2, 1006456, Note_on_c, 0, 72, 0
2, 1006981, Note_on_c, 0, 72, 45
2, 1006984, Note_on_c, 0, 69, 43
2, 1006990, Note_on_c, 0, 76, 54
2, 1006994, Note_on_c, 0, 71, 47
2, 1007093, Note_on_c, 0, 71, 0
2, 1007473, Note_on_c, 0, 67, 71
2, 1007552, Control_c, 0, 64, 0
2, 1007750, Control_c, 0, 64, 127
2, 1007947, Control_c, 0, 64, 0
2, 1007962, Note_on_c, 0, 65, 60
2, 1008040, Control_c, 0, 64, 127
2, 1008046, Note_on_c, 0, 67, 0
2, 1008446, Control_c, 0, 64, 0
2, 1008462, Note_on_c, 0, 64, 71
2, 1008469, Note_on_c, 0, 65, 0
2, 1008527, Control_c, 0, 64, 127
2, 1008692, Note_on_c, 0, 69, 0
2, 1008717, Note_on_c, 0, 72, 0
2, 1008773, Note_on_c, 0, 76, 0
2, 1008946, Control_c, 0, 64, 0
2, 1008974, Note_on_c, 0, 64, 0
2, 1008975, Note_on_c, 0, 76, 50
2, 1008979, Note_on_c, 0, 72, 51
2, 1008987, Note_on_c, 0, 69, 43
2, 1008988, Note_on_c, 0, 67, 57
2, 1009261, Control_c, 0, 64, 127
2, 1009459, Note_on_c, 0, 67, 0
2, 1009470, Note_on_c, 0, 65, 58
2, 1009554, Note_on_c, 0, 72, 0
2, 1009563, Note_on_c, 0, 76, 0
2, 1009594, Note_on_c, 0, 69, 0
2, 1009882, Note_on_c, 0, 65, 0
2, 1009976, Note_on_c, 0, 75, 55
2, 1009979, Note_on_c, 0, 64, 46
2, 1009988, Note_on_c, 0, 67, 47
2, 1009996, Note_on_c, 0, 70, 53
2, 1010051, Control_c, 0, 64, 0
2, 1010467, Note_on_c, 0, 64, 0
2, 1010491, Note_on_c, 0, 63, 62
2, 1010563, Control_c, 0, 64, 127
2, 1010619, Note_on_c, 0, 67, 0
2, 1010807, Note_on_c, 0, 70, 0
2, 1010892, Note_on_c, 0, 75, 0
2, 1010954, Note_on_c, 0, 63, 0
2, 1010966, Note_on_c, 0, 77, 67
2, 1010972, Note_on_c, 0, 70, 62
2, 1010983, Note_on_c, 0, 65, 62
2, 1010985, Control_c, 0, 64, 0
2, 1011248, Control_c, 0, 64, 127
2, 1011431, Control_c, 0, 64, 0
2, 1011480, Note_on_c, 0, 64, 63
2, 1011528, Note_on_c, 0, 65, 0
2, 1011577, Control_c, 0, 64, 127
2, 1011799, Note_on_c, 0, 70, 0
2, 1011889, Note_on_c, 0, 77, 0
2, 1011931, Control_c, 0, 64, 0
2, 1011946, Note_on_c, 0, 64, 0
2, 1011953, Note_on_c, 0, 75, 40
2, 1011971, Note_on_c, 0, 70, 44
2, 1011980, Note_on_c, 0, 63, 50
2, 1011985, Note_on_c, 0, 67, 40
2, 1012156, Control_c, 0, 64, 127
2, 1012445, Note_on_c, 0, 63, 0
2, 1012465, Note_on_c, 0, 62, 58
2, 1012689, Note_on_c, 0, 75, 0
2, 1012691, Note_on_c, 0, 67, 0
2, 1012777, Note_on_c, 0, 62, 0
2, 1012783, Note_on_c, 0, 70, 0
2, 1012927, Note_on_c, 0, 77, 58
2, 1012931, Control_c, 0, 64, 0
2, 1012939, Note_on_c, 0, 70, 61
2, 1012956, Note_on_c, 0, 69, 51
2, 1012964, Note_on_c, 0, 65, 62
2, 1013141, Control_c, 0, 64, 127
2, 1013222, Note_on_c, 0, 65, 0
2, 1013441, Note_on_c, 0, 63, 52
2, 1013496, Note_on_c, 0, 69, 0
2, 1013524, Note_on_c, 0, 77, 0
2, 1013555, Note_on_c, 0, 70, 0
2, 1013851, Note_on_c, 0, 63, 0
2, 1013878, Control_c, 0, 64, 0
2, 1013893, Note_on_c, 0, 62, 57
2, 1013906, Note_on_c, 0, 74, 58
2, 1013910, Note_on_c, 0, 65, 36
2, 1013915, Note_on_c, 0, 70, 44
2, 1014011, Note_on_c, 0, 62, 0
2, 1014075, Control_c, 0, 64, 127
2, 1014289, Note_on_c, 0, 74, 0
2, 1014316, Note_on_c, 0, 70, 0
2, 1014399, Note_on_c, 0, 46, 38
2, 1014417, Note_on_c, 0, 65, 0
2, 1014848, Note_on_c, 0, 69, 47
2, 1014852, Note_on_c, 0, 62, 36
2, 1014858, Note_on_c, 0, 65, 42
2, 1014861, Note_on_c, 0, 57, 50
2, 1014903, Control_c, 0, 64, 0
2, 1015194, Control_c, 0, 64, 127
2, 1015211, Note_on_c, 0, 57, 0
2, 1015345, Note_on_c, 0, 55, 53
2, 1015673, Note_on_c, 0, 62, 0
2, 1015707, Note_on_c, 0, 65, 0
2, 1015737, Note_on_c, 0, 69, 0
2, 1015769, Note_on_c, 0, 55, 0
2, 1015830, Note_on_c, 0, 54, 49
2, 1015851, Control_c, 0, 64, 0
2, 1015854, Note_on_c, 0, 62, 34
2, 1015874, Note_on_c, 0, 65, 27
2, 1015878, Note_on_c, 0, 69, 33
2, 1016127, Control_c, 0, 64, 127
2, 1016307, Note_on_c, 0, 53, 49
2, 1016315, Note_on_c, 0, 54, 0
2, 1016395, Note_on_c, 0, 62, 0
2, 1016454, Note_on_c, 0, 65, 0
2, 1016666, Control_c, 0, 64, 0
2, 1016792, Note_on_c, 0, 62, 45
2, 1016805, Note_on_c, 0, 65, 36
2, 1016850, Control_c, 0, 64, 127
2, 1016977, Note_on_c, 0, 46, 0
2, 1017247, Note_on_c, 0, 46, 48
2, 1017372, Note_on_c, 0, 53, 0
2, 1017392, Note_on_c, 0, 62, 0
2, 1017608, Note_on_c, 0, 65, 0
2, 1017699, Note_on_c, 0, 65, 46
2, 1017703, Note_on_c, 0, 61, 52
2, 1017910, Note_on_c, 0, 46, 0
2, 1018183, Note_on_c, 0, 60, 89
2, 1018498, Note_on_c, 0, 61, 0
2, 1018533, Control_c, 0, 64, 0
2, 1018545, Note_on_c, 0, 65, 0
2, 1018647, Note_on_c, 0, 61, 53
2, 1018671, Note_on_c, 0, 65, 40
2, 1018849, Control_c, 0, 64, 127
2, 1019139, Control_c, 0, 64, 0
2, 1019143, Note_on_c, 0, 58, 74
2, 1019181, Note_on_c, 0, 60, 0
2, 1019349, Control_c, 0, 64, 127
2, 1019436, Note_on_c, 0, 61, 0
2, 1019448, Note_on_c, 0, 65, 0
2, 1019584, Control_c, 0, 64, 0
2, 1019660, Note_on_c, 0, 61, 39
2, 1019686, Note_on_c, 0, 65, 41
2, 1019756, Control_c, 0, 64, 127
2, 1019812, Note_on_c, 0, 69, 0
2, 1020010, Note_on_c, 0, 61, 0
2, 1020134, Note_on_c, 0, 55, 57
2, 1020135, Note_on_c, 0, 58, 0
2, 1020190, Control_c, 0, 64, 0
2, 1020493, Control_c, 0, 64, 127
2, 1020513, Note_on_c, 0, 65, 0
2, 1020593, Note_on_c, 0, 65, 17
2, 1020621, Note_on_c, 0, 61, 33
2, 1020861, Note_on_c, 0, 55, 0
2, 1021085, Note_on_c, 0, 61, 0
2, 1021105, Note_on_c, 0, 48, 31
2, 1021153, Note_on_c, 0, 65, 0
2, 1021492, Control_c, 0, 64, 0
2, 1021504, Note_on_c, 0, 64, 42
2, 1021523, Note_on_c, 0, 60, 35
2, 1021540, Note_on_c, 0, 41, 34
2, 1021780, Control_c, 0, 64, 127
2, 1021841, Note_on_c, 0, 60, 0
2, 1021871, Note_on_c, 0, 64, 0
2, 1022386, Control_c, 0, 64, 0
2, 1022388, Note_on_c, 0, 41, 0
2, 1022409, Note_on_c, 0, 72, 44
2, 1022421, Note_on_c, 0, 67, 45
2, 1022427, Note_on_c, 0, 62, 34
2, 1022438, Note_on_c, 0, 57, 31
2, 1022465, Control_c, 0, 64, 127
2, 1022544, Note_on_c, 0, 48, 0
2, 1022733, Note_on_c, 0, 62, 0
2, 1022809, Note_on_c, 0, 57, 0
2, 1022867, Note_on_c, 0, 67, 0
2, 1022915, Note_on_c, 0, 72, 0
2, 1023334, Control_c, 0, 64, 0
2, 1023353, Note_on_c, 0, 74, 48
2, 1023360, Note_on_c, 0, 68, 45
2, 1023367, Note_on_c, 0, 64, 39
2, 1023368, Note_on_c, 0, 58, 48
2, 1023583, Control_c, 0, 64, 127
2, 1023633, Note_on_c, 0, 74, 0
2, 1023704, Note_on_c, 0, 64, 0
2, 1023769, Note_on_c, 0, 68, 0
2, 1023782, Note_on_c, 0, 58, 0
2, 1023840, Note_on_c, 0, 57, 44
2, 1023876, Note_on_c, 0, 72, 47
2, 1023882, Note_on_c, 0, 67, 51
2, 1023970, Note_on_c, 0, 57, 0
2, 1023974, Note_on_c, 0, 67, 0
2, 1024028, Note_on_c, 0, 72, 0
2, 1024332, Control_c, 0, 64, 0
2, 1024348, Note_on_c, 0, 64, 51
2, 1024351, Note_on_c, 0, 79, 60
2, 1024360, Note_on_c, 0, 74, 63
2, 1024373, Note_on_c, 0, 69, 38
2, 1024618, Note_on_c, 0, 64, 0
2, 1024622, Note_on_c, 0, 69, 0
2, 1024627, Note_on_c, 0, 74, 0
2, 1024648, Control_c, 0, 64, 127
2, 1024650, Note_on_c, 0, 79, 0
2, 1024839, Note_on_c, 0, 64, 44
2, 1024843, Note_on_c, 0, 79, 51
2, 1024853, Note_on_c, 0, 74, 52
2, 1024878, Note_on_c, 0, 69, 33
2, 1024969, Note_on_c, 0, 74, 0
2, 1024970, Note_on_c, 0, 64, 0
2, 1025005, Note_on_c, 0, 69, 0
2, 1025131, Note_on_c, 0, 79, 0
2, 1025312, Note_on_c, 0, 77, 60
2, 1025328, Note_on_c, 0, 69, 46
2, 1025329, Note_on_c, 0, 63, 40
2, 1025331, Note_on_c, 0, 75, 43
2, 1025332, Control_c, 0, 64, 0
2, 1025359, Note_on_c, 0, 58, 46
2, 1025362, Note_on_c, 0, 53, 18
2, 1025661, Control_c, 0, 64, 127
2, 1025886, Note_on_c, 0, 60, 60
2, 1025925, Note_on_c, 0, 63, 0
2, 1026043, Note_on_c, 0, 69, 0
2, 1026330, Note_on_c, 0, 63, 68
2, 1026382, Note_on_c, 0, 75, 0
2, 1026401, Note_on_c, 0, 77, 0
2, 1026622, Note_on_c, 0, 69, 48
2, 1026784, Note_on_c, 0, 53, 0
2, 1026812, Note_on_c, 0, 69, 0
2, 1026855, Note_on_c, 0, 71, 45
2, 1026864, Note_on_c, 0, 60, 0
2, 1026935, Note_on_c, 0, 58, 0
2, 1026963, Note_on_c, 0, 63, 0
2, 1027011, Note_on_c, 0, 73, 54
2, 1027048, Note_on_c, 0, 71, 0
2, 1027191, Note_on_c, 0, 75, 56
2, 1027204, Note_on_c, 0, 73, 0
2, 1027284, Note_on_c, 0, 75, 0
2, 1027334, Note_on_c, 0, 77, 62
2, 1027347, Note_on_c, 0, 67, 41
2, 1027355, Note_on_c, 0, 63, 38
2, 1027367, Note_on_c, 0, 57, 32
2, 1027384, Control_c, 0, 64, 0
2, 1027456, Note_on_c, 0, 77, 0
2, 1027527, Note_on_c, 0, 79, 44
2, 1027624, Note_on_c, 0, 79, 0
2, 1027661, Note_on_c, 0, 81, 49
2, 1027715, Note_on_c, 0, 81, 0
2, 1027818, Note_on_c, 0, 83, 49
2, 1027893, Note_on_c, 0, 67, 0
2, 1027900, Note_on_c, 0, 83, 0
2, 1027962, Note_on_c, 0, 85, 48
2, 1028024, Note_on_c, 0, 63, 0
2, 1028096, Note_on_c, 0, 85, 0
2, 1028133, Control_c, 0, 64, 127
2, 1028293, Note_on_c, 0, 89, 31
2, 1028330, Control_c, 0, 64, 0
2, 1028368, Note_on_c, 0, 89, 0
2, 1028378, Note_on_c, 0, 67, 35
2, 1028385, Note_on_c, 0, 63, 34
2, 1028659, Control_c, 0, 64, 127
2, 1028852, Note_on_c, 0, 91, 43
2, 1028905, Note_on_c, 0, 93, 62
2, 1028916, Note_on_c, 0, 67, 0
2, 1028941, Note_on_c, 0, 91, 0
2, 1029063, Note_on_c, 0, 63, 0
2, 1029066, Note_on_c, 0, 57, 0
2, 1029080, Note_on_c, 0, 94, 57
2, 1029096, Note_on_c, 0, 93, 0
2, 1029194, Note_on_c, 0, 94, 0
2, 1029205, Note_on_c, 0, 95, 51
2, 1029335, Note_on_c, 0, 96, 67
2, 1029357, Control_c, 0, 64, 0
2, 1029376, Note_on_c, 0, 95, 0
2, 1029394, Note_on_c, 0, 60, 35
2, 1029410, Note_on_c, 0, 65, 18
2, 1029479, Note_on_c, 0, 96, 0
2, 1029551, Note_on_c, 0, 62, 4
2, 1029588, Note_on_c, 0, 93, 66
2, 1029672, Note_on_c, 0, 93, 0
2, 1029693, Note_on_c, 0, 65, 0
2, 1029843, Control_c, 0, 64, 127
2, 1029871, Note_on_c, 0, 89, 49
2, 1029983, Note_on_c, 0, 89, 0
2, 1030125, Note_on_c, 0, 86, 57
2, 1030224, Control_c, 0, 64, 0
2, 1030232, Note_on_c, 0, 53, 16
2, 1030258, Note_on_c, 0, 86, 0
2, 1030415, Note_on_c, 0, 82, 42
2, 1030627, Note_on_c, 0, 82, 0
2, 1030644, Note_on_c, 0, 81, 41
2, 1030747, Note_on_c, 0, 81, 0
2, 1030819, Note_on_c, 0, 84, 64
2, 1030842, Note_on_c, 0, 62, 0
2, 1030928, Note_on_c, 0, 60, 0
2, 1030960, Control_c, 0, 64, 127
2, 1031006, Note_on_c, 0, 84, 0
2, 1031034, Note_on_c, 0, 81, 38
2, 1031136, Note_on_c, 0, 81, 0
2, 1031218, Note_on_c, 0, 82, 53
2, 1031237, Control_c, 0, 64, 0
2, 1031260, Note_on_c, 0, 62, 35
2, 1031267, Note_on_c, 0, 65, 22
2, 1031283, Note_on_c, 0, 60, 24
2, 1031401, Note_on_c, 0, 82, 0
2, 1031473, Note_on_c, 0, 77, 30
2, 1031556, Note_on_c, 0, 77, 0
2, 1031683, Control_c, 0, 64, 127
2, 1031687, Note_on_c, 0, 65, 0
2, 1031727, Note_on_c, 0, 77, 48
2, 1031799, Note_on_c, 0, 53, 0
2, 1031804, Note_on_c, 0, 77, 0
2, 1031973, Note_on_c, 0, 77, 51
2, 1032078, Control_c, 0, 64, 0
2, 1032086, Note_on_c, 0, 77, 0
2, 1032102, Note_on_c, 0, 53, 24
2, 1032258, Note_on_c, 0, 77, 59
2, 1032314, Control_c, 0, 64, 127
2, 1032362, Note_on_c, 0, 60, 0
2, 1032366, Note_on_c, 0, 77, 0
2, 1032367, Note_on_c, 0, 62, 0
2, 1032476, Note_on_c, 0, 53, 0
2, 1032502, Note_on_c, 0, 77, 46
2, 1032583, Note_on_c, 0, 77, 0
2, 1032694, Note_on_c, 0, 77, 45
2, 1032802, Note_on_c, 0, 77, 0
2, 1032907, Note_on_c, 0, 77, 53
2, 1033007, Note_on_c, 0, 77, 0
2, 1033087, Note_on_c, 0, 57, 36
2, 1033096, Note_on_c, 0, 62, 39
2, 1033117, Control_c, 0, 64, 0
2, 1033120, Note_on_c, 0, 58, 48
2, 1033121, Note_on_c, 0, 52, 38
2, 1033129, Note_on_c, 0, 81, 57
2, 1033174, Note_on_c, 0, 74, 24
2, 1033216, Note_on_c, 0, 62, 0
2, 1033220, Note_on_c, 0, 74, 0
2, 1033247, Note_on_c, 0, 58, 0
2, 1033264, Note_on_c, 0, 81, 0
2, 1033271, Note_on_c, 0, 52, 0
2, 1033293, Note_on_c, 0, 57, 0
2, 1033556, Note_on_c, 0, 81, 55
2, 1033566, Note_on_c, 0, 78, 37
2, 1033570, Note_on_c, 0, 57, 45
2, 1033571, Note_on_c, 0, 69, 47
2, 1033578, Note_on_c, 0, 62, 51
2, 1033584, Note_on_c, 0, 74, 53
2, 1033599, Note_on_c, 0, 58, 47
2, 1033601, Note_on_c, 0, 52, 37
2, 1033738, Note_on_c, 0, 69, 0
2, 1033741, Note_on_c, 0, 62, 0
2, 1033755, Note_on_c, 0, 74, 0
2, 1033788, Note_on_c, 0, 52, 0
2, 1033789, Note_on_c, 0, 57, 0
2, 1033790, Note_on_c, 0, 58, 0
2, 1033796, Note_on_c, 0, 81, 0
2, 1033797, Note_on_c, 0, 78, 0
2, 1034016, Note_on_c, 0, 62, 60
2, 1034019, Note_on_c, 0, 57, 53
2, 1034021, Note_on_c, 0, 58, 55
2, 1034028, Note_on_c, 0, 81, 62
2, 1034037, Note_on_c, 0, 78, 43
2, 1034038, Note_on_c, 0, 52, 49
2, 1034045, Note_on_c, 0, 69, 54
2, 1034046, Note_on_c, 0, 74, 60
2, 1034261, Control_c, 0, 64, 127
2, 1034479, Note_on_c, 0, 52, 0
2, 1034505, Note_on_c, 0, 74, 0
2, 1034511, Note_on_c, 0, 57, 0
2, 1034542, Note_on_c, 0, 69, 0
2, 1034559, Note_on_c, 0, 78, 0
2, 1034562, Note_on_c, 0, 58, 0
2, 1034593, Note_on_c, 0, 62, 0
2, 1034675, Note_on_c, 0, 81, 0
2, 1034866, Control_c, 0, 64, 0
2, 1034913, Note_on_c, 0, 73, 62
2, 1034928, Note_on_c, 0, 69, 71
2, 1034929, Note_on_c, 0, 81, 56
2, 1034931, Note_on_c, 0, 77, 60
2, 1034937, Note_on_c, 0, 65, 60
2, 1034938, Note_on_c, 0, 61, 60
2, 1034948, Note_on_c, 0, 55, 50
2, 1035080, Note_on_c, 0, 69, 0
2, 1035096, Note_on_c, 0, 73, 0
2, 1035126, Note_on_c, 0, 55, 0
2, 1035140, Note_on_c, 0, 77, 0
2, 1035142, Note_on_c, 0, 65, 0
2, 1035175, Note_on_c, 0, 81, 0
2, 1035181, Note_on_c, 0, 61, 0
2, 1035198, Control_c, 0, 64, 127
2, 1035290, Control_c, 0, 64, 0
2, 1035416, Note_on_c, 0, 84, 80
2, 1035425, Note_on_c, 0, 81, 77
2, 1035425, Note_on_c, 0, 61, 80
2, 1035426, Note_on_c, 0, 72, 80
2, 1035434, Note_on_c, 0, 77, 80
2, 1035436, Note_on_c, 0, 55, 79
2, 1035437, Note_on_c, 0, 65, 74
2, 1035593, Control_c, 0, 64, 127
2, 1035597, Note_on_c, 0, 77, 0
2, 1035601, Note_on_c, 0, 65, 0
2, 1035614, Note_on_c, 0, 55, 0
2, 1035630, Note_on_c, 0, 72, 0
2, 1035631, Note_on_c, 0, 81, 0
2, 1035640, Note_on_c, 0, 61, 0
2, 1035646, Note_on_c, 0, 84, 0
2, 1035647, Control_c, 0, 64, 0
2, 1035886, Note_on_c, 0, 61, 73
2, 1035891, Note_on_c, 0, 55, 72
2, 1035892, Note_on_c, 0, 65, 71
2, 1035897, Note_on_c, 0, 84, 75
2, 1035901, Note_on_c, 0, 81, 69
2, 1035903, Note_on_c, 0, 72, 77
2, 1035904, Note_on_c, 0, 77, 76
2, 1035924, Control_c, 0, 64, 127
2, 1036547, Note_on_c, 0, 55, 0
2, 1036567, Note_on_c, 0, 65, 0
2, 1036572, Note_on_c, 0, 72, 0
2, 1036577, Note_on_c, 0, 77, 0
2, 1036611, Note_on_c, 0, 61, 0
2, 1036640, Note_on_c, 0, 81, 0
2, 1036648, Note_on_c, 0, 84, 0
2, 1036728, Control_c, 0, 64, 0
2, 1036809, Note_on_c, 0, 55, 59
2, 1036825, Note_on_c, 0, 65, 53
2, 1036826, Note_on_c, 0, 61, 56
2, 1036828, Note_on_c, 0, 84, 55
2, 1036841, Note_on_c, 0, 72, 49
2, 1036842, Note_on_c, 0, 81, 43
2, 1036843, Note_on_c, 0, 77, 50
2, 1036927, Control_c, 0, 64, 127
2, 1037049, Note_on_c, 0, 55, 0
2, 1037061, Note_on_c, 0, 72, 0
2, 1037064, Note_on_c, 0, 84, 0
2, 1037069, Note_on_c, 0, 77, 0
2, 1037116, Note_on_c, 0, 65, 0
2, 1037118, Note_on_c, 0, 81, 0
2, 1037207, Note_on_c, 0, 61, 0
2, 1037270, Control_c, 0, 64, 0
2, 1037286, Note_on_c, 0, 61, 51
2, 1037295, Note_on_c, 0, 85, 60
2, 1037307, Note_on_c, 0, 73, 45
2, 1037308, Note_on_c, 0, 64, 55
2, 1037325, Note_on_c, 0, 54, 38
2, 1037333, Note_on_c, 0, 81, 42
2, 1037343, Note_on_c, 0, 59, 43
2, 1037440, Control_c, 0, 64, 127
2, 1037573, Note_on_c, 0, 73, 0
2, 1037597, Note_on_c, 0, 59, 0
2, 1037616, Note_on_c, 0, 54, 0
2, 1037619, Note_on_c, 0, 85, 0
2, 1037624, Note_on_c, 0, 64, 0
2, 1037652, Control_c, 0, 64, 0
2, 1037654, Note_on_c, 0, 81, 0
2, 1037671, Note_on_c, 0, 61, 0
2, 1037772, Note_on_c, 0, 61, 47
2, 1037778, Note_on_c, 0, 85, 59
2, 1037780, Note_on_c, 0, 64, 48
2, 1037787, Note_on_c, 0, 73, 44
2, 1037791, Note_on_c, 0, 54, 38
2, 1037792, Note_on_c, 0, 81, 44
2, 1037822, Note_on_c, 0, 59, 46
2, 1037826, Control_c, 0, 64, 127
2, 1037914, Note_on_c, 0, 73, 0
2, 1037928, Note_on_c, 0, 81, 0
2, 1037952, Note_on_c, 0, 59, 0
2, 1037999, Note_on_c, 0, 85, 0
2, 1038024, Note_on_c, 0, 64, 0
2, 1038086, Note_on_c, 0, 54, 0
2, 1038106, Note_on_c, 0, 61, 0
2, 1038217, Note_on_c, 0, 88, 54
2, 1038228, Note_on_c, 0, 61, 37
2, 1038247, Note_on_c, 0, 54, 40
2, 1038249, Note_on_c, 0, 64, 44
2, 1038256, Note_on_c, 0, 76, 34
2, 1038292, Note_on_c, 0, 59, 29
2, 1038402, Note_on_c, 0, 76, 0
2, 1038424, Note_on_c, 0, 59, 0
2, 1038439, Note_on_c, 0, 88, 0
2, 1038457, Note_on_c, 0, 64, 0
2, 1038502, Note_on_c, 0, 54, 0
2, 1038524, Note_on_c, 0, 61, 0
2, 1038654, Control_c, 0, 64, 0
2, 1038679, Note_on_c, 0, 61, 35
2, 1038688, Note_on_c, 0, 88, 57
2, 1038697, Note_on_c, 0, 64, 39
2, 1038700, Note_on_c, 0, 76, 47
2, 1038703, Note_on_c, 0, 54, 34
2, 1038729, Note_on_c, 0, 81, 37
2, 1038730, Note_on_c, 0, 59, 44
2, 1038798, Control_c, 0, 64, 127
2, 1038981, Note_on_c, 0, 64, 0
2, 1038989, Note_on_c, 0, 59, 0
2, 1039000, Note_on_c, 0, 81, 0
2, 1039037, Note_on_c, 0, 54, 0
2, 1039048, Note_on_c, 0, 76, 0
2, 1039057, Note_on_c, 0, 61, 0
2, 1039153, Note_on_c, 0, 88, 0
2, 1039185, Note_on_c, 0, 61, 23
2, 1039193, Note_on_c, 0, 76, 34
2, 1039196, Note_on_c, 0, 64, 35
2, 1039201, Note_on_c, 0, 54, 29
2, 1039335, Note_on_c, 0, 76, 0
2, 1039347, Note_on_c, 0, 64, 0
2, 1039453, Note_on_c, 0, 61, 0
2, 1039470, Note_on_c, 0, 54, 0
2, 1039671, Note_on_c, 0, 76, 53
2, 1039681, Note_on_c, 0, 61, 29
2, 1039688, Note_on_c, 0, 64, 34
2, 1039701, Note_on_c, 0, 54, 25
2, 1039710, Note_on_c, 0, 59, 38
2, 1039942, Note_on_c, 0, 59, 0
2, 1039945, Note_on_c, 0, 54, 0
2, 1039953, Note_on_c, 0, 76, 0
2, 1040000, Note_on_c, 0, 64, 0
2, 1040021, Note_on_c, 0, 61, 0
2, 1040631, Note_on_c, 0, 69, 67
2, 1040640, Note_on_c, 0, 71, 60
2, 1040650, Note_on_c, 0, 81, 48
2, 1040656, Note_on_c, 0, 78, 35
2, 1040657, Note_on_c, 0, 74, 53
2, 1040703, Note_on_c, 0, 68, 20
2, 1040719, Control_c, 0, 64, 0
2, 1040731, Note_on_c, 0, 71, 0
2, 1040793, Note_on_c, 0, 78, 0
2, 1040827, Note_on_c, 0, 68, 0
2, 1040846, Note_on_c, 0, 67, 48
2, 1040871, Note_on_c, 0, 81, 0
2, 1040875, Note_on_c, 0, 69, 0
2, 1040877, Note_on_c, 0, 74, 0
2, 1041090, Note_on_c, 0, 67, 0
2, 1041151, Note_on_c, 0, 84, 61
2, 1041168, Note_on_c, 0, 77, 45
2, 1041170, Note_on_c, 0, 74, 55
2, 1041203, Note_on_c, 0, 72, 28
2, 1041218, Note_on_c, 0, 81, 27
2, 1041236, Note_on_c, 0, 74, 0
2, 1041243, Note_on_c, 0, 77, 0
2, 1041264, Note_on_c, 0, 81, 0
2, 1041271, Note_on_c, 0, 84, 0
2, 1041281, Note_on_c, 0, 72, 0
2, 1041607, Note_on_c, 0, 81, 60
2, 1041620, Note_on_c, 0, 69, 62
2, 1041639, Note_on_c, 0, 70, 42
2, 1041645, Note_on_c, 0, 76, 49
2, 1041836, Control_c, 0, 64, 127
2, 1041972, Note_on_c, 0, 76, 0
2, 1041997, Note_on_c, 0, 70, 0
2, 1042006, Note_on_c, 0, 81, 0
2, 1042052, Note_on_c, 0, 69, 0
2, 1042076, Note_on_c, 0, 70, 36
2, 1042095, Note_on_c, 0, 67, 47
2, 1042102, Note_on_c, 0, 79, 42
2, 1042169, Note_on_c, 0, 76, 15
2, 1042181, Note_on_c, 0, 73, 18
2, 1042249, Note_on_c, 0, 79, 0
2, 1042258, Note_on_c, 0, 76, 0
2, 1042297, Note_on_c, 0, 67, 0
2, 1042300, Note_on_c, 0, 70, 0
2, 1042328, Note_on_c, 0, 73, 0
2, 1042481, Control_c, 0, 64, 0
2, 1042538, Note_on_c, 0, 64, 44
2, 1042568, Note_on_c, 0, 76, 48
2, 1042570, Note_on_c, 0, 70, 47
2, 1042573, Note_on_c, 0, 67, 48
2, 1042593, Note_on_c, 0, 73, 33
2, 1042604, Note_on_c, 0, 75, 32
2, 1042649, Note_on_c, 0, 75, 0
2, 1042797, Control_c, 0, 64, 127
2, 1043023, Note_on_c, 0, 64, 0
2, 1043033, Note_on_c, 0, 76, 0
2, 1043039, Note_on_c, 0, 73, 0
2, 1043045, Note_on_c, 0, 70, 0
2, 1043074, Note_on_c, 0, 61, 55
2, 1043095, Note_on_c, 0, 67, 0
2, 1043268, Note_on_c, 0, 61, 0
2, 1043556, Note_on_c, 0, 61, 57
2, 1043560, Control_c, 0, 64, 0
2, 1043579, Note_on_c, 0, 67, 40
2, 1043581, Note_on_c, 0, 64, 44
2, 1043670, Note_on_c, 0, 55, 13
2, 1043783, Control_c, 0, 64, 127
2, 1043806, Note_on_c, 0, 55, 0
2, 1044002, Note_on_c, 0, 67, 0
2, 1044016, Note_on_c, 0, 64, 0
2, 1044088, Note_on_c, 0, 61, 0
2, 1044532, Control_c, 0, 64, 0
2, 1044555, Note_on_c, 0, 66, 34
2, 1044558, Note_on_c, 0, 61, 42
2, 1044570, Note_on_c, 0, 69, 48
2, 1044576, Note_on_c, 0, 57, 36
2, 1044625, Note_on_c, 0, 38, 33
2, 1045038, Note_on_c, 0, 38, 0
2, 1045091, Note_on_c, 0, 45, 43
2, 1045099, Control_c, 0, 64, 127
2, 1045449, Note_on_c, 0, 57, 0
2, 1045496, Note_on_c, 0, 61, 0
2, 1045571, Control_c, 0, 64, 0
2, 1045593, Note_on_c, 0, 54, 42
2, 1045597, Note_on_c, 0, 61, 34
2, 1045614, Note_on_c, 0, 57, 33
2, 1045676, Control_c, 0, 64, 127
2, 1045892, Note_on_c, 0, 54, 0
2, 1046058, Control_c, 0, 64, 0
2, 1046067, Note_on_c, 0, 52, 54
2, 1046229, Control_c, 0, 64, 127
2, 1046244, Note_on_c, 0, 57, 0
2, 1046333, Note_on_c, 0, 61, 0
2, 1046530, Note_on_c, 0, 61, 36
2, 1046550, Note_on_c, 0, 57, 40
2, 1046803, Note_on_c, 0, 52, 0
2, 1047031, Note_on_c, 0, 54, 75
2, 1047270, Note_on_c, 0, 57, 0
2, 1047284, Note_on_c, 0, 61, 0
2, 1047372, Control_c, 0, 64, 0
2, 1047496, Note_on_c, 0, 61, 32
2, 1047522, Note_on_c, 0, 57, 32
2, 1047583, Control_c, 0, 64, 127
2, 1047831, Note_on_c, 0, 45, 0
2, 1047940, Note_on_c, 0, 69, 0
2, 1047942, Note_on_c, 0, 45, 29
2, 1047953, Note_on_c, 0, 54, 0
2, 1048144, Note_on_c, 0, 57, 0
2, 1048204, Note_on_c, 0, 66, 0
2, 1048338, Note_on_c, 0, 61, 0
2, 1048442, Note_on_c, 0, 65, 33
2, 1048444, Note_on_c, 0, 57, 33
2, 1048453, Note_on_c, 0, 60, 45
2, 1048463, Note_on_c, 0, 53, 35
2, 1048491, Control_c, 0, 64, 0
2, 1048590, Note_on_c, 0, 45, 0
2, 1048911, Control_c, 0, 64, 127
2, 1048932, Note_on_c, 0, 53, 0
2, 1048937, Note_on_c, 0, 45, 55
2, 1048949, Note_on_c, 0, 57, 0
2, 1048962, Note_on_c, 0, 60, 0
2, 1049099, Note_on_c, 0, 65, 0
2, 1049427, Note_on_c, 0, 45, 0
2, 1049429, Note_on_c, 0, 57, 44
2, 1049445, Note_on_c, 0, 53, 36
2, 1049861, Note_on_c, 0, 53, 0
2, 1049866, Note_on_c, 0, 31, 46
2, 1049906, Note_on_c, 0, 57, 0
2, 1050068, Control_c, 0, 64, 0
2, 1050335, Note_on_c, 0, 56, 36
2, 1050341, Note_on_c, 0, 53, 27
2, 1050350, Note_on_c, 0, 59, 43
2, 1050357, Note_on_c, 0, 43, 26
2, 1050371, Control_c, 0, 64, 127
2, 1050432, Note_on_c, 0, 31, 0
2, 1050509, Note_on_c, 0, 43, 0
2, 1050659, Note_on_c, 0, 53, 0
2, 1050738, Note_on_c, 0, 59, 0
2, 1050747, Note_on_c, 0, 56, 0
2, 1050852, Note_on_c, 0, 43, 43
2, 1051290, Note_on_c, 0, 56, 43
2, 1051291, Control_c, 0, 64, 0
2, 1051296, Note_on_c, 0, 65, 47
2, 1051316, Note_on_c, 0, 59, 50
2, 1051319, Note_on_c, 0, 62, 47
2, 1051337, Note_on_c, 0, 53, 31
2, 1051437, Note_on_c, 0, 43, 0
2, 1051489, Control_c, 0, 64, 127
2, 1051573, Note_on_c, 0, 53, 0
2, 1051724, Note_on_c, 0, 56, 0
2, 1051752, Note_on_c, 0, 59, 0
2, 1051778, Note_on_c, 0, 62, 0
2, 1051968, Note_on_c, 0, 65, 0
2, 1052244, Note_on_c, 0, 43, 32
2, 1052254, Note_on_c, 0, 55, 45
2, 1052267, Note_on_c, 0, 64, 53
2, 1052275, Note_on_c, 0, 62, 50
2, 1052275, Note_on_c, 0, 52, 40
2, 1052278, Control_c, 0, 64, 0
2, 1052279, Note_on_c, 0, 36, 29
2, 1052280, Note_on_c, 0, 59, 38
2, 1052540, Control_c, 0, 64, 127
2, 1052993, Note_on_c, 0, 55, 0
2, 1053135, Note_on_c, 0, 59, 0
2, 1053162, Note_on_c, 0, 62, 0
2, 1053196, Note_on_c, 0, 64, 0
2, 1053442, Note_on_c, 0, 36, 0
2, 1053581, Note_on_c, 0, 43, 0
2, 1053657, Note_on_c, 0, 52, 0
2, 1053700, Note_on_c, 0, 76, 91
2, 1054154, Note_on_c, 0, 64, 65
2, 1054168, Note_on_c, 0, 68, 49
2, 1054187, Note_on_c, 0, 71, 53
2, 1055071, Note_on_c, 0, 64, 0
2, 1055133, Note_on_c, 0, 62, 55
2, 1055408, Note_on_c, 0, 76, 0
2, 1055555, Note_on_c, 0, 71, 0
2, 1055600, Note_on_c, 0, 74, 58
2, 1055623, Note_on_c, 0, 62, 0
2, 1055714, Note_on_c, 0, 68, 0
2, 1055776, Note_on_c, 0, 74, 0
2, 1056069, Note_on_c, 0, 72, 42
2, 1056089, Note_on_c, 0, 62, 45
2, 1056104, Note_on_c, 0, 65, 50
2, 1056118, Control_c, 0, 64, 0
2, 1056474, Control_c, 0, 64, 127
2, 1056550, Note_on_c, 0, 43, 40
2, 1056560, Note_on_c, 0, 72, 0
2, 1056571, Note_on_c, 0, 65, 0
2, 1056652, Note_on_c, 0, 62, 0
2, 1057025, Note_on_c, 0, 62, 50
2, 1057027, Note_on_c, 0, 55, 39
2, 1057036, Note_on_c, 0, 58, 37
2, 1057084, Note_on_c, 0, 43, 0
2, 1057186, Note_on_c, 0, 55, 0
2, 1057410, Note_on_c, 0, 58, 0
2, 1057523, Note_on_c, 0, 69, 55
2, 1057624, Note_on_c, 0, 62, 0
2, 1057716, Note_on_c, 0, 69, 0
2, 1057985, Control_c, 0, 64, 0
2, 1057993, Note_on_c, 0, 61, 34
2, 1057994, Note_on_c, 0, 43, 31
2, 1058001, Note_on_c, 0, 58, 29
2, 1058009, Note_on_c, 0, 36, 26
2, 1058013, Note_on_c, 0, 64, 41
2, 1058027, Note_on_c, 0, 67, 36
2, 1058040, Note_on_c, 0, 52, 24
2, 1058222, Control_c, 0, 64, 127
2, 1058322, Note_on_c, 0, 36, 0
2, 1058364, Note_on_c, 0, 43, 0
2, 1058414, Note_on_c, 0, 67, 0
2, 1058457, Note_on_c, 0, 64, 0
2, 1058470, Note_on_c, 0, 58, 0
2, 1058478, Note_on_c, 0, 52, 0
2, 1058515, Note_on_c, 0, 61, 0
2, 1058959, Control_c, 0, 64, 0
2, 1058966, Note_on_c, 0, 63, 36
2, 1058976, Note_on_c, 0, 52, 37
2, 1058978, Note_on_c, 0, 56, 42
2, 1058991, Note_on_c, 0, 58, 36
2, 1058997, Note_on_c, 0, 42, 31
2, 1059011, Note_on_c, 0, 49, 29
2, 1059224, Note_on_c, 0, 52, 0
2, 1059258, Note_on_c, 0, 42, 0
2, 1059287, Control_c, 0, 64, 127
2, 1059317, Note_on_c, 0, 49, 0
2, 1059327, Note_on_c, 0, 56, 0
2, 1059357, Note_on_c, 0, 58, 0
2, 1059393, Note_on_c, 0, 63, 0
2, 1060286, Control_c, 0, 64, 0
2, 1060305, Note_on_c, 0, 76, 57
2, 1060306, Note_on_c, 0, 68, 61
2, 1060309, Note_on_c, 0, 71, 64
2, 1060315, Note_on_c, 0, 64, 65
2, 1060323, Note_on_c, 0, 62, 61
2, 1060330, Note_on_c, 0, 59, 47
2, 1060336, Note_on_c, 0, 52, 47
2, 1060337, Note_on_c, 0, 56, 51
2, 1060490, Note_on_c, 0, 64, 0
2, 1060522, Control_c, 0, 64, 127
2, 1060551, Note_on_c, 0, 59, 0
2, 1060558, Note_on_c, 0, 71, 0
2, 1060559, Note_on_c, 0, 68, 0
2, 1060560, Note_on_c, 0, 52, 0
2, 1060584, Note_on_c, 0, 56, 0
2, 1060596, Note_on_c, 0, 76, 0
2, 1060629, Note_on_c, 0, 62, 0
2, 1060825, Control_c, 0, 64, 0
2, 1060845, Note_on_c, 0, 57, 50
2, 1060846, Note_on_c, 0, 64, 61
2, 1060848, Note_on_c, 0, 77, 68
2, 1060854, Note_on_c, 0, 72, 60
2, 1060856, Note_on_c, 0, 69, 66
2, 1060865, Note_on_c, 0, 53, 35
2, 1060866, Note_on_c, 0, 60, 57
2, 1061089, Control_c, 0, 64, 127
2, 1061295, Note_on_c, 0, 77, 0
2, 1061303, Note_on_c, 0, 64, 0
2, 1061352, Note_on_c, 0, 60, 0
2, 1061353, Note_on_c, 0, 72, 0
2, 1061362, Note_on_c, 0, 69, 0
2, 1061401, Note_on_c, 0, 57, 0
2, 1061827, Note_on_c, 0, 72, 53
2, 1061833, Note_on_c, 0, 67, 60
2, 1061849, Note_on_c, 0, 64, 38
2, 1061891, Control_c, 0, 64, 0
2, 1061970, Note_on_c, 0, 64, 0
2, 1062114, Control_c, 0, 64, 127
2, 1062273, Note_on_c, 0, 64, 51
2, 1062573, Note_on_c, 0, 72, 0
2, 1062591, Note_on_c, 0, 67, 0
2, 1062654, Note_on_c, 0, 64, 0
2, 1062759, Note_on_c, 0, 74, 49
2, 1062761, Note_on_c, 0, 65, 37
2, 1062775, Note_on_c, 0, 69, 47
2, 1062796, Note_on_c, 0, 62, 45
2, 1062812, Control_c, 0, 64, 0
2, 1063022, Control_c, 0, 64, 127
2, 1063198, Note_on_c, 0, 65, 0
2, 1063202, Note_on_c, 0, 53, 0
2, 1063225, Note_on_c, 0, 62, 0
2, 1063255, Note_on_c, 0, 74, 0
2, 1063322, Note_on_c, 0, 69, 0
2, 1063691, Note_on_c, 0, 64, 41
2, 1063700, Note_on_c, 0, 76, 35
2, 1063708, Control_c, 0, 64, 0
2, 1063717, Note_on_c, 0, 69, 36
2, 1063729, Note_on_c, 0, 57, 36
2, 1063730, Note_on_c, 0, 47, 43
2, 1063750, Note_on_c, 0, 71, 24
2, 1063952, Note_on_c, 0, 47, 0
2, 1063969, Control_c, 0, 64, 127
2, 1064027, Note_on_c, 0, 57, 0
2, 1064075, Note_on_c, 0, 64, 0
2, 1064444, Note_on_c, 0, 69, 0
2, 1064475, Note_on_c, 0, 71, 0
2, 1064616, Note_on_c, 0, 76, 0
2, 1064628, Note_on_c, 0, 65, 35
2, 1064637, Note_on_c, 0, 57, 36
2, 1064663, Note_on_c, 0, 62, 36
2, 1065147, Note_on_c, 0, 57, 0
2, 1065201, Note_on_c, 0, 62, 0
2, 1065240, Note_on_c, 0, 65, 0
2, 1065585, Note_on_c, 0, 67, 42
2, 1065605, Note_on_c, 0, 56, 37
2, 1065625, Note_on_c, 0, 62, 32
2, 1065652, Control_c, 0, 64, 0
2, 1065950, Note_on_c, 0, 88, 71
2, 1066011, Note_on_c, 0, 79, 27
2, 1066139, Control_c, 0, 64, 127
2, 1066236, Note_on_c, 0, 88, 0
2, 1066371, Note_on_c, 0, 79, 0
2, 1066390, Note_on_c, 0, 67, 0
2, 1066542, Note_on_c, 0, 82, 59
2, 1066548, Note_on_c, 0, 77, 54
2, 1066580, Note_on_c, 0, 67, 26
2, 1066597, Control_c, 0, 64, 0
2, 1066803, Note_on_c, 0, 67, 0
2, 1066810, Control_c, 0, 64, 127
2, 1066855, Note_on_c, 0, 62, 0
2, 1066955, Note_on_c, 0, 56, 0
2, 1067035, Note_on_c, 0, 86, 66
2, 1067326, Note_on_c, 0, 86, 0
2, 1067332, Note_on_c, 0, 77, 0
2, 1067464, Note_on_c, 0, 82, 0
2, 1067500, Note_on_c, 0, 76, 56
2, 1067506, Note_on_c, 0, 84, 57
2, 1067532, Control_c, 0, 64, 0
2, 1067901, Control_c, 0, 64, 127
2, 1067944, Note_on_c, 0, 41, 36
2, 1068006, Note_on_c, 0, 84, 0
2, 1068051, Note_on_c, 0, 76, 0
2, 1068355, Note_on_c, 0, 48, 48
2, 1068372, Note_on_c, 0, 41, 0
2, 1068598, Note_on_c, 0, 48, 0
2, 1068675, Note_on_c, 0, 57, 54
2, 1068871, Note_on_c, 0, 57, 0
2, 1069001, Note_on_c, 0, 60, 44
2, 1069319, Note_on_c, 0, 76, 55
2, 1069329, Note_on_c, 0, 67, 50
2, 1069331, Note_on_c, 0, 64, 57
2, 1069339, Note_on_c, 0, 72, 53
2, 1069340, Note_on_c, 0, 69, 54
2, 1069561, Note_on_c, 0, 67, 0
2, 1069574, Note_on_c, 0, 69, 0
2, 1069604, Note_on_c, 0, 64, 0
2, 1069612, Note_on_c, 0, 76, 0
2, 1069628, Note_on_c, 0, 72, 0
2, 1069701, Note_on_c, 0, 65, 62
2, 1069704, Note_on_c, 0, 77, 78
2, 1069705, Note_on_c, 0, 69, 74
2, 1069716, Note_on_c, 0, 64, 62
2, 1069717, Note_on_c, 0, 72, 67
2, 1069884, Note_on_c, 0, 64, 0
2, 1070137, Note_on_c, 0, 65, 0
2, 1070213, Note_on_c, 0, 72, 0
2, 1070310, Note_on_c, 0, 69, 0
2, 1070390, Note_on_c, 0, 77, 0
2, 1070562, Note_on_c, 0, 64, 44
2, 1070760, Note_on_c, 0, 64, 0
2, 1070864, Note_on_c, 0, 76, 60
2, 1070898, Note_on_c, 0, 60, 0
2, 1071025, Note_on_c, 0, 76, 0
2, 1071135, Note_on_c, 0, 77, 61
2, 1071291, Note_on_c, 0, 77, 0
2, 1071412, Note_on_c, 0, 63, 51
2, 1071425, Control_c, 0, 64, 0
2, 1071442, Note_on_c, 0, 84, 63
2, 1071449, Note_on_c, 0, 57, 40
2, 1071455, Note_on_c, 0, 60, 22
2, 1071462, Note_on_c, 0, 55, 30
2, 1071525, Note_on_c, 0, 84, 0
2, 1071733, Note_on_c, 0, 63, 0
2, 1071748, Note_on_c, 0, 60, 0
2, 1071753, Note_on_c, 0, 84, 64
2, 1071879, Note_on_c, 0, 84, 0
2, 1072031, Note_on_c, 0, 57, 0
2, 1072067, Note_on_c, 0, 72, 36
2, 1072162, Control_c, 0, 64, 127
2, 1072302, Note_on_c, 0, 72, 0
2, 1072307, Control_c, 0, 64, 0
2, 1072326, Note_on_c, 0, 63, 44
2, 1072358, Note_on_c, 0, 60, 36
2, 1072361, Note_on_c, 0, 57, 28
2, 1072510, Note_on_c, 0, 55, 0
2, 1072517, Control_c, 0, 64, 127
2, 1072947, Note_on_c, 0, 54, 62
2, 1073052, Note_on_c, 0, 55, 40
2, 1073063, Note_on_c, 0, 54, 0
2, 1073169, Note_on_c, 0, 55, 0
2, 1073254, Note_on_c, 0, 57, 0
2, 1073318, Control_c, 0, 64, 0
2, 1073358, Note_on_c, 0, 54, 64
2, 1073364, Note_on_c, 0, 63, 0
2, 1073582, Note_on_c, 0, 60, 0
2, 1073621, Control_c, 0, 64, 127
2, 1073704, Note_on_c, 0, 54, 0
2, 1073952, Note_on_c, 0, 84, 80
2, 1073961, Note_on_c, 0, 78, 78
2, 1073968, Note_on_c, 0, 72, 72
2, 1074002, Note_on_c, 0, 74, 44
2, 1074064, Note_on_c, 0, 74, 0
2, 1074226, Control_c, 0, 64, 0
2, 1074298, Note_on_c, 0, 60, 41
2, 1074327, Note_on_c, 0, 54, 33
2, 1074364, Note_on_c, 0, 60, 0
2, 1074419, Note_on_c, 0, 84, 0
2, 1074474, Note_on_c, 0, 54, 0
2, 1074499, Note_on_c, 0, 72, 0
2, 1074500, Note_on_c, 0, 78, 0
2, 1074556, Control_c, 0, 64, 127
2, 1074608, Note_on_c, 0, 83, 55
2, 1074619, Note_on_c, 0, 78, 37
2, 1074624, Note_on_c, 0, 71, 57
2, 1074805, Note_on_c, 0, 83, 0
2, 1074843, Note_on_c, 0, 78, 0
2, 1074869, Note_on_c, 0, 71, 0
2, 1074905, Note_on_c, 0, 54, 35
2, 1074912, Note_on_c, 0, 44, 33
2, 1075097, Note_on_c, 0, 54, 0
2, 1075143, Note_on_c, 0, 44, 0
2, 1075213, Control_c, 0, 64, 0
2, 1075251, Note_on_c, 0, 82, 50
2, 1075267, Note_on_c, 0, 43, 42
2, 1075276, Note_on_c, 0, 53, 34
2, 1075281, Note_on_c, 0, 74, 37
2, 1075297, Note_on_c, 0, 70, 23
2, 1075303, Note_on_c, 0, 77, 35
2, 1075437, Control_c, 0, 64, 127
2, 1075453, Note_on_c, 0, 43, 0
2, 1075537, Note_on_c, 0, 53, 0
2, 1076198, Note_on_c, 0, 46, 55
2, 1076200, Note_on_c, 0, 57, 68
2, 1076214, Note_on_c, 0, 53, 44
2, 1076239, Control_c, 0, 64, 0
2, 1076488, Control_c, 0, 64, 127
2, 1076573, Note_on_c, 0, 82, 0
2, 1076584, Note_on_c, 0, 74, 0
2, 1076593, Note_on_c, 0, 77, 0
2, 1076661, Note_on_c, 0, 70, 0
2, 1076836, Note_on_c, 0, 57, 0
2, 1077153, Note_on_c, 0, 53, 0
2, 1077197, Note_on_c, 0, 55, 48
2, 1077201, Note_on_c, 0, 58, 58
2, 1077210, Note_on_c, 0, 62, 54
2, 1077211, Control_c, 0, 64, 0
2, 1077653, Note_on_c, 0, 54, 64
2, 1077733, Note_on_c, 0, 55, 0
2, 1077843, Control_c, 0, 64, 127
2, 1077965, Note_on_c, 0, 62, 0
2, 1078002, Note_on_c, 0, 58, 0
2, 1078169, Note_on_c, 0, 53, 44
2, 1078171, Control_c, 0, 64, 0
2, 1078179, Note_on_c, 0, 58, 44
2, 1078204, Note_on_c, 0, 62, 42
2, 1078219, Note_on_c, 0, 54, 0
2, 1078435, Control_c, 0, 64, 127
2, 1078497, Note_on_c, 0, 46, 0
2, 1078558, Note_on_c, 0, 58, 0
2, 1078603, Note_on_c, 0, 62, 0
2, 1078662, Note_on_c, 0, 46, 47
2, 1078990, Note_on_c, 0, 46, 0
2, 1079045, Note_on_c, 0, 53, 0
2, 1079119, Note_on_c, 0, 61, 58
2, 1079142, Note_on_c, 0, 46, 35
2, 1079152, Note_on_c, 0, 65, 53
2, 1079171, Control_c, 0, 64, 0
2, 1079422, Control_c, 0, 64, 127
2, 1079604, Control_c, 0, 64, 0
2, 1079612, Note_on_c, 0, 57, 68
2, 1079815, Control_c, 0, 64, 127
2, 1079990, Note_on_c, 0, 57, 0
2, 1080092, Control_c, 0, 64, 0
2, 1080100, Note_on_c, 0, 55, 62
2, 1080250, Control_c, 0, 64, 127
2, 1080446, Control_c, 0, 64, 0
2, 1080568, Note_on_c, 0, 54, 56
2, 1080617, Note_on_c, 0, 55, 0
2, 1080643, Control_c, 0, 64, 127
2, 1080651, Note_on_c, 0, 65, 0
2, 1080748, Note_on_c, 0, 61, 0
2, 1081038, Control_c, 0, 64, 0
2, 1081039, Note_on_c, 0, 54, 0
2, 1081064, Note_on_c, 0, 61, 43
2, 1081067, Note_on_c, 0, 53, 45
2, 1081083, Note_on_c, 0, 65, 47
2, 1081394, Control_c, 0, 64, 127
2, 1081412, Note_on_c, 0, 46, 0
2, 1081543, Note_on_c, 0, 46, 47
2, 1081657, Note_on_c, 0, 53, 0
2, 1081755, Note_on_c, 0, 65, 0
2, 1081795, Note_on_c, 0, 61, 0
2, 1082025, Control_c, 0, 64, 0
2, 1082046, Note_on_c, 0, 72, 48
2, 1082047, Note_on_c, 0, 56, 46
2, 1082050, Note_on_c, 0, 61, 46
2, 1082056, Note_on_c, 0, 65, 50
2, 1082265, Control_c, 0, 64, 127
2, 1082285, Note_on_c, 0, 46, 0
2, 1082411, Note_on_c, 0, 72, 0
2, 1082508, Note_on_c, 0, 46, 50
2, 1082536, Note_on_c, 0, 70, 53
2, 1082707, Note_on_c, 0, 65, 0
2, 1082742, Note_on_c, 0, 61, 0
2, 1082830, Note_on_c, 0, 56, 0
2, 1082882, Note_on_c, 0, 70, 0
2, 1082922, Note_on_c, 0, 46, 0
2, 1083017, Note_on_c, 0, 64, 55
2, 1083022, Note_on_c, 0, 60, 44
2, 1083028, Control_c, 0, 64, 0
2, 1083038, Note_on_c, 0, 45, 58
2, 1083291, Control_c, 0, 64, 127
2, 1083498, Note_on_c, 0, 55, 82
2, 1083514, Control_c, 0, 64, 0
2, 1083671, Control_c, 0, 64, 127
2, 1083869, Note_on_c, 0, 55, 0
2, 1083985, Note_on_c, 0, 54, 53
2, 1084348, Note_on_c, 0, 54, 0
2, 1084368, Control_c, 0, 64, 0
2, 1084460, Note_on_c, 0, 53, 53
2, 1084514, Control_c, 0, 64, 127
2, 1084636, Note_on_c, 0, 64, 0
2, 1084666, Note_on_c, 0, 60, 0
2, 1084763, Note_on_c, 0, 53, 0
2, 1084935, Control_c, 0, 64, 0
2, 1084943, Note_on_c, 0, 60, 37
2, 1084944, Note_on_c, 0, 64, 39
2, 1084951, Note_on_c, 0, 52, 44
2, 1085118, Control_c, 0, 64, 127
2, 1085309, Note_on_c, 0, 45, 0
2, 1085433, Note_on_c, 0, 45, 47
2, 1085538, Note_on_c, 0, 60, 0
2, 1085540, Note_on_c, 0, 64, 0
2, 1085818, Note_on_c, 0, 52, 0
2, 1085916, Note_on_c, 0, 60, 53
2, 1085923, Note_on_c, 0, 64, 30
2, 1085944, Note_on_c, 0, 52, 44
2, 1086205, Note_on_c, 0, 45, 0
2, 1086379, Note_on_c, 0, 45, 54
2, 1086547, Note_on_c, 0, 60, 0
2, 1086577, Note_on_c, 0, 64, 0
2, 1086597, Note_on_c, 0, 45, 0
2, 1086690, Note_on_c, 0, 52, 0
2, 1086846, Note_on_c, 0, 60, 41
2, 1086852, Note_on_c, 0, 63, 42
2, 1086869, Note_on_c, 0, 44, 48
2, 1086894, Control_c, 0, 64, 0
2, 1087156, Control_c, 0, 64, 127
2, 1087313, Note_on_c, 0, 54, 64
2, 1087446, Control_c, 0, 64, 0
2, 1087551, Control_c, 0, 64, 127
2, 1087778, Note_on_c, 0, 54, 0
2, 1087813, Note_on_c, 0, 53, 56
2, 1087828, Control_c, 0, 64, 0
2, 1087972, Control_c, 0, 64, 127
2, 1088094, Note_on_c, 0, 53, 0
2, 1088258, Note_on_c, 0, 52, 48
2, 1088321, Note_on_c, 0, 60, 0
2, 1088401, Note_on_c, 0, 63, 0
2, 1088682, Control_c, 0, 64, 0
2, 1088702, Note_on_c, 0, 68, 39
2, 1088705, Note_on_c, 0, 60, 47
2, 1088709, Note_on_c, 0, 63, 47
2, 1088741, Note_on_c, 0, 52, 0
2, 1088746, Note_on_c, 0, 51, 48
2, 1088946, Control_c, 0, 64, 127
2, 1089295, Note_on_c, 0, 44, 0
2, 1089361, Note_on_c, 0, 60, 0
2, 1089397, Note_on_c, 0, 63, 0
2, 1089629, Control_c, 0, 64, 0
2, 1089630, Note_on_c, 0, 63, 45
2, 1089651, Note_on_c, 0, 60, 37
2, 1089654, Note_on_c, 0, 54, 37
2, 1089658, Note_on_c, 0, 44, 32
2, 1089773, Control_c, 0, 64, 127
2, 1089969, Note_on_c, 0, 68, 0
2, 1090052, Note_on_c, 0, 44, 0
2, 1090122, Note_on_c, 0, 63, 0
2, 1090162, Note_on_c, 0, 60, 0
2, 1090170, Note_on_c, 0, 44, 37
2, 1090376, Note_on_c, 0, 54, 0
2, 1090399, Note_on_c, 0, 51, 0
2, 1090511, Note_on_c, 0, 44, 0
2, 1090592, Note_on_c, 0, 43, 39
2, 1090593, Note_on_c, 0, 62, 53
2, 1090601, Control_c, 0, 64, 0
2, 1090613, Note_on_c, 0, 58, 47
2, 1090839, Control_c, 0, 64, 127
2, 1090994, Note_on_c, 0, 62, 0
2, 1091092, Note_on_c, 0, 58, 0
2, 1091218, Note_on_c, 0, 61, 56
2, 1091238, Note_on_c, 0, 58, 36
2, 1091244, Note_on_c, 0, 46, 32
2, 1091246, Control_c, 0, 64, 0
2, 1091273, Note_on_c, 0, 53, 18
2, 1091381, Note_on_c, 0, 53, 0
2, 1091449, Note_on_c, 0, 43, 0
2, 1091553, Note_on_c, 0, 62, 58
2, 1091564, Note_on_c, 0, 61, 0
2, 1091643, Note_on_c, 0, 58, 0
2, 1091706, Note_on_c, 0, 62, 0
2, 1091808, Note_on_c, 0, 46, 0
2, 1091853, Note_on_c, 0, 65, 50
2, 1091904, Control_c, 0, 64, 127
2, 1091941, Note_on_c, 0, 53, 29
2, 1091946, Note_on_c, 0, 65, 0
2, 1092115, Control_c, 0, 64, 0
2, 1092119, Note_on_c, 0, 53, 0
2, 1092203, Note_on_c, 0, 62, 48
2, 1092209, Note_on_c, 0, 58, 36
2, 1092216, Note_on_c, 0, 65, 29
2, 1092236, Note_on_c, 0, 55, 26
2, 1092245, Note_on_c, 0, 57, 24
2, 1092274, Note_on_c, 0, 58, 0
2, 1092285, Control_c, 0, 64, 127
2, 1092317, Note_on_c, 0, 62, 0
2, 1092350, Note_on_c, 0, 55, 0
2, 1092359, Note_on_c, 0, 65, 0
2, 1092488, Note_on_c, 0, 57, 0
2, 1092497, Control_c, 0, 64, 0
2, 1092556, Note_on_c, 0, 60, 56
2, 1092571, Note_on_c, 0, 72, 61
2, 1092584, Note_on_c, 0, 62, 49
2, 1092585, Note_on_c, 0, 65, 45
2, 1092653, Note_on_c, 0, 65, 0
2, 1092655, Note_on_c, 0, 62, 0
2, 1092676, Note_on_c, 0, 60, 0
2, 1092707, Control_c, 0, 64, 127
2, 1092711, Note_on_c, 0, 72, 0
2, 1093194, Control_c, 0, 64, 0
2, 1093236, Note_on_c, 0, 60, 57
2, 1093259, Note_on_c, 0, 58, 56
2, 1093278, Note_on_c, 0, 53, 29
2, 1093535, Control_c, 0, 64, 127
2, 1093654, Note_on_c, 0, 53, 0
2, 1093717, Note_on_c, 0, 58, 0
2, 1093719, Control_c, 0, 64, 0
2, 1093754, Note_on_c, 0, 60, 0
2, 1093824, Note_on_c, 0, 62, 57
2, 1093828, Note_on_c, 0, 58, 51
2, 1093856, Note_on_c, 0, 53, 29
2, 1093863, Note_on_c, 0, 52, 24
2, 1093956, Control_c, 0, 64, 127
2, 1093968, Note_on_c, 0, 53, 0
2, 1093990, Note_on_c, 0, 52, 0
2, 1094015, Note_on_c, 0, 62, 0
2, 1094069, Note_on_c, 0, 58, 0
2, 1094363, Control_c, 0, 64, 0
2, 1094410, Note_on_c, 0, 58, 43
2, 1094414, Note_on_c, 0, 65, 48
2, 1094419, Note_on_c, 0, 62, 51
2, 1094430, Note_on_c, 0, 53, 33
2, 1094432, Note_on_c, 0, 43, 36
2, 1094451, Note_on_c, 0, 55, 37
2, 1094627, Control_c, 0, 64, 127
2, 1094993, Note_on_c, 0, 53, 0
2, 1095111, Note_on_c, 0, 55, 0
2, 1095120, Note_on_c, 0, 62, 0
2, 1095161, Note_on_c, 0, 58, 0
2, 1095187, Note_on_c, 0, 65, 0
2, 1095420, Note_on_c, 0, 62, 48
2, 1095427, Note_on_c, 0, 58, 44
2, 1095436, Note_on_c, 0, 53, 32
2, 1095448, Note_on_c, 0, 55, 35
2, 1095475, Note_on_c, 0, 43, 0
2, 1095609, Note_on_c, 0, 53, 0
2, 1095739, Note_on_c, 0, 55, 0
2, 1095802, Note_on_c, 0, 62, 0
2, 1095814, Note_on_c, 0, 58, 0
2, 1096378, Note_on_c, 0, 61, 42
2, 1096383, Note_on_c, 0, 67, 38
2, 1096390, Note_on_c, 0, 58, 34
2, 1096400, Note_on_c, 0, 43, 32
2, 1096402, Control_c, 0, 64, 0
2, 1096417, Note_on_c, 0, 64, 36
2, 1096469, Note_on_c, 0, 36, 18
2, 1096652, Control_c, 0, 64, 127
2, 1097312, Note_on_c, 0, 52, 25
2, 1097424, Note_on_c, 0, 36, 0
2, 1097556, Note_on_c, 0, 43, 0
2, 1097589, Note_on_c, 0, 52, 0
2, 1097891, Note_on_c, 0, 58, 0
2, 1097905, Note_on_c, 0, 64, 0
2, 1097956, Note_on_c, 0, 67, 0
2, 1098269, Control_c, 0, 64, 0
2, 1098277, Note_on_c, 0, 41, 52
2, 1098308, Note_on_c, 0, 61, 0
2, 1098755, Note_on_c, 0, 41, 0
2, 1098758, Note_on_c, 0, 65, 33
2, 1098771, Note_on_c, 0, 57, 33
2, 1098788, Note_on_c, 0, 62, 29
2, 1098826, Note_on_c, 0, 65, 0
2, 1098832, Note_on_c, 0, 57, 0
2, 1098860, Note_on_c, 0, 62, 0
2, 1099242, Note_on_c, 0, 65, 32
2, 1099249, Note_on_c, 0, 57, 34
2, 1099261, Note_on_c, 0, 60, 32
2, 1099291, Note_on_c, 0, 62, 24
2, 1099310, Note_on_c, 0, 57, 0
2, 1099316, Note_on_c, 0, 65, 0
2, 1099331, Note_on_c, 0, 60, 0
2, 1099339, Note_on_c, 0, 62, 0
2, 1099721, Note_on_c, 0, 46, 40
2, 1099779, Note_on_c, 0, 38, 28
2, 1099852, Note_on_c, 0, 38, 0
2, 1100129, Note_on_c, 0, 46, 0
2, 1100174, Note_on_c, 0, 55, 43
2, 1100176, Note_on_c, 0, 65, 40
2, 1100178, Note_on_c, 0, 61, 51
2, 1100272, Note_on_c, 0, 55, 0
2, 1100276, Note_on_c, 0, 65, 0
2, 1100327, Note_on_c, 0, 61, 0
2, 1100664, Note_on_c, 0, 65, 43
2, 1100666, Note_on_c, 0, 61, 52
2, 1100688, Note_on_c, 0, 55, 33
2, 1100750, Note_on_c, 0, 55, 0
2, 1100756, Note_on_c, 0, 65, 0
2, 1100801, Note_on_c, 0, 61, 0
2, 1102110, Note_on_c, 0, 41, 35
2, 1102117, Note_on_c, 0, 48, 44
2, 1102421, Note_on_c, 0, 41, 0
2, 1102426, Note_on_c, 0, 48, 0
2, 1102579, Note_on_c, 0, 55, 38
2, 1102583, Note_on_c, 0, 65, 34
2, 1102585, Note_on_c, 0, 60, 41
2, 1102661, Note_on_c, 0, 55, 0
2, 1102668, Note_on_c, 0, 60, 0
2, 1102669, Note_on_c, 0, 65, 0
2, 1103022, Note_on_c, 0, 65, 51
2, 1103038, Note_on_c, 0, 55, 40
2, 1103063, Note_on_c, 0, 60, 38
2, 1103102, Note_on_c, 0, 55, 0
2, 1103134, Note_on_c, 0, 60, 0
2, 1103183, Note_on_c, 0, 65, 0
2, 1103497, Note_on_c, 0, 39, 40
2, 1103515, Note_on_c, 0, 46, 32
2, 1103574, Note_on_c, 0, 46, 0
2, 1103624, Note_on_c, 0, 39, 0
2, 1103946, Note_on_c, 0, 72, 44
2, 1103954, Note_on_c, 0, 37, 47
2, 1103956, Note_on_c, 0, 61, 49
2, 1103967, Note_on_c, 0, 65, 53
2, 1103975, Note_on_c, 0, 44, 38
2, 1104019, Note_on_c, 0, 69, 30
2, 1104022, Note_on_c, 0, 61, 0
2, 1104052, Note_on_c, 0, 65, 0
2, 1104080, Note_on_c, 0, 44, 0
2, 1104089, Note_on_c, 0, 37, 0
2, 1104090, Note_on_c, 0, 69, 0
2, 1104093, Note_on_c, 0, 72, 0
2, 1104439, Note_on_c, 0, 61, 50
2, 1104446, Note_on_c, 0, 65, 54
2, 1104455, Note_on_c, 0, 44, 42
2, 1104456, Note_on_c, 0, 72, 32
2, 1104459, Note_on_c, 0, 37, 47
2, 1104489, Note_on_c, 0, 69, 34
2, 1104527, Note_on_c, 0, 61, 0
2, 1104566, Note_on_c, 0, 69, 0
2, 1104570, Note_on_c, 0, 65, 0
2, 1104572, Note_on_c, 0, 72, 0
2, 1104582, Note_on_c, 0, 37, 0
2, 1104585, Note_on_c, 0, 44, 0
2, 1104879, Note_on_c, 0, 39, 54
2, 1104894, Note_on_c, 0, 46, 45
2, 1105099, Note_on_c, 0, 39, 0
2, 1105113, Note_on_c, 0, 46, 0
2, 1105376, Note_on_c, 0, 39, 46
2, 1105398, Note_on_c, 0, 46, 36
2, 1105550, Note_on_c, 0, 39, 0
2, 1105600, Note_on_c, 0, 46, 0
2, 1105633, Control_c, 0, 64, 127
2, 1105752, Control_c, 0, 64, 0
2, 1105872, Note_on_c, 0, 65, 36
2, 1105886, Note_on_c, 0, 57, 29
2, 1105887, Note_on_c, 0, 62, 39
2, 1105894, Note_on_c, 0, 41, 35
2, 1105895, Note_on_c, 0, 60, 38
2, 1105911, Note_on_c, 0, 48, 36
2, 1106082, Note_on_c, 0, 57, 0
2, 1106097, Note_on_c, 0, 60, 0
2, 1106104, Note_on_c, 0, 65, 0
2, 1106105, Note_on_c, 0, 41, 0
2, 1106113, Note_on_c, 0, 48, 0
2, 1106121, Note_on_c, 0, 62, 0
2, 1106398, Note_on_c, 0, 65, 33
2, 1106411, Note_on_c, 0, 62, 44
2, 1106412, Note_on_c, 0, 60, 34
2, 1106437, Note_on_c, 0, 48, 34
2, 1106442, Note_on_c, 0, 41, 29
2, 1106524, Note_on_c, 0, 60, 0
2, 1106534, Note_on_c, 0, 41, 0
2, 1106547, Note_on_c, 0, 48, 0
2, 1106557, Note_on_c, 0, 65, 0
2, 1106559, Note_on_c, 0, 62, 0
2, 1106896, Control_c, 0, 64, 127
2, 1106907, Note_on_c, 0, 65, 32
2, 1106913, Note_on_c, 0, 62, 42
2, 1106915, Note_on_c, 0, 60, 36
2, 1106933, Note_on_c, 0, 48, 29
2, 1106934, Note_on_c, 0, 57, 22
2, 1106949, Note_on_c, 0, 41, 22
2, 1107007, Note_on_c, 0, 57, 0
2, 1107030, Note_on_c, 0, 41, 0
2, 1107043, Note_on_c, 0, 60, 0
2, 1107045, Note_on_c, 0, 48, 0
2, 1107074, Note_on_c, 0, 62, 0
2, 1107081, Note_on_c, 0, 65, 0
2, 1107395, Note_on_c, 0, 57, 40
2, 1107403, Note_on_c, 0, 62, 44
2, 1107404, Note_on_c, 0, 41, 29
2, 1107407, Note_on_c, 0, 48, 32
2, 1107415, Note_on_c, 0, 65, 31
2, 1107422, Note_on_c, 0, 60, 37
2, 1107496, Note_on_c, 0, 48, 0
2, 1107506, Note_on_c, 0, 60, 0
2, 1107525, Note_on_c, 0, 57, 0
2, 1107530, Note_on_c, 0, 41, 0
2, 1107531, Note_on_c, 0, 65, 0
2, 1107619, Note_on_c, 0, 62, 0
2, 1107777, Control_c, 0, 64, 0
2, 1107882, Note_on_c, 0, 46, 37
2, 1107890, Note_on_c, 0, 39, 40
2, 1107900, Note_on_c, 0, 65, 34
2, 1107907, Note_on_c, 0, 55, 42
2, 1107908, Note_on_c, 0, 60, 44
2, 1108039, Control_c, 0, 64, 127
2, 1108157, Note_on_c, 0, 55, 0
2, 1108162, Note_on_c, 0, 39, 0
2, 1108176, Note_on_c, 0, 65, 0
2, 1108182, Note_on_c, 0, 60, 0
2, 1108197, Note_on_c, 0, 46, 0
2, 1108409, Note_on_c, 0, 65, 35
2, 1108429, Note_on_c, 0, 60, 39
2, 1108430, Note_on_c, 0, 55, 36
2, 1108431, Note_on_c, 0, 39, 40
2, 1108438, Note_on_c, 0, 46, 37
2, 1108546, Note_on_c, 0, 55, 0
2, 1108632, Note_on_c, 0, 39, 0
2, 1108674, Note_on_c, 0, 60, 0
2, 1108786, Note_on_c, 0, 65, 0
2, 1108799, Note_on_c, 0, 46, 0
2, 1108846, Control_c, 0, 64, 0
2, 1108888, Note_on_c, 0, 65, 25
2, 1108901, Note_on_c, 0, 47, 36
2, 1108909, Note_on_c, 0, 61, 55
2, 1108918, Note_on_c, 0, 40, 37
2, 1108919, Note_on_c, 0, 56, 50
2, 1109090, Note_on_c, 0, 56, 0
2, 1109095, Control_c, 0, 64, 127
2, 1109099, Note_on_c, 0, 40, 0
2, 1109118, Note_on_c, 0, 47, 0
2, 1109156, Note_on_c, 0, 61, 0
2, 1109169, Note_on_c, 0, 65, 0
2, 1109413, Note_on_c, 0, 61, 50
2, 1109431, Note_on_c, 0, 65, 38
2, 1109435, Note_on_c, 0, 56, 44
2, 1109442, Note_on_c, 0, 47, 40
2, 1109450, Note_on_c, 0, 40, 33
2, 1109593, Note_on_c, 0, 40, 0
2, 1109640, Note_on_c, 0, 65, 0
2, 1109644, Note_on_c, 0, 47, 0
2, 1109661, Note_on_c, 0, 56, 0
2, 1109758, Note_on_c, 0, 61, 0
2, 1109885, Control_c, 0, 64, 0
2, 1109936, Note_on_c, 0, 65, 47
2, 1109951, Note_on_c, 0, 62, 50
2, 1109965, Note_on_c, 0, 41, 28
2, 1109966, Note_on_c, 0, 57, 32
2, 1109977, Note_on_c, 0, 48, 39
2, 1110078, Note_on_c, 0, 57, 0
2, 1110121, Control_c, 0, 64, 127
2, 1110148, Note_on_c, 0, 62, 0
2, 1110234, Note_on_c, 0, 65, 0
2, 1110304, Note_on_c, 0, 41, 0
2, 1110329, Note_on_c, 0, 48, 0
2, 1111963, Note_on_c, 0, 81, 40
2, 1112100, Note_on_c, 0, 81, 0
2, 1112127, Note_on_c, 0, 83, 37
2, 1112218, Note_on_c, 0, 86, 47
2, 1112299, Note_on_c, 0, 83, 0
2, 1112335, Note_on_c, 0, 88, 31
2, 1112434, Note_on_c, 0, 86, 0
2, 1112437, Note_on_c, 0, 91, 50
2, 1112444, Note_on_c, 0, 88, 0
2, 1112495, Note_on_c, 0, 91, 0
2, 1112615, Note_on_c, 0, 95, 48
2, 1112740, Note_on_c, 0, 95, 0
2, 1112754, Note_on_c, 0, 98, 32
2, 1112837, Note_on_c, 0, 100, 43
2, 1112873, Note_on_c, 0, 98, 0
2, 1112946, Note_on_c, 0, 100, 0
2, 1113022, Note_on_c, 0, 103, 30
2, 1113033, Note_on_c, 0, 101, 43
2, 1113093, Note_on_c, 0, 101, 0
2, 1113139, Note_on_c, 0, 100, 57
2, 1113149, Note_on_c, 0, 103, 0
2, 1113266, Note_on_c, 0, 100, 0
2, 1113266, End_track
0, 0, End_of_file
