0, 0, Header, 1, 4, 120
1, 0, Start_track
1, 0, Title_t, "Isfahan  (also known as 'Elf"")  Billy Strayhorn - Duke Ellington"
1, 0, Text_t, "Doug McKenzie"
1, 0, Text_t, "dougmck@pipeline.com.au\012"
1, 0, Time_signature, 4, 2, 24, 8
1, 0, Key_signature, -5, "major"
1, 0, Tempo, 480000
1, 0, Marker_t, ""
1, 0, Marker_t, "dougmck@pipeline.com.au"
1, 0, End_track
2, 0, Start_track
2, 0, Title_t, ""
2, 318, Note_on_c, 0, 60, 49
2, 321, Note_on_c, 0, 84, 77
2, 347, Note_on_c, 0, 60, 0
2, 349, Note_on_c, 0, 84, 0
2, 362, Note_on_c, 0, 80, 46
2, 386, Note_on_c, 0, 80, 0
2, 397, Note_on_c, 0, 77, 50
2, 412, Control_c, 0, 64, 127
2, 425, Note_on_c, 0, 77, 0
2, 425, Note_on_c, 0, 53, 20
2, 434, Note_on_c, 0, 73, 37
2, 460, Note_on_c, 0, 73, 0
2, 463, Note_on_c, 0, 53, 0
2, 470, Control_c, 0, 64, 0
2, 478, Note_on_c, 0, 72, 59
2, 480, Note_on_c, 0, 49, 37
2, 500, Control_c, 0, 64, 127
2, 512, Note_on_c, 0, 49, 0
2, 679, Note_on_c, 0, 63, 33
2, 681, Note_on_c, 0, 60, 40
2, 683, Note_on_c, 0, 58, 33
2, 684, Note_on_c, 0, 53, 35
2, 689, Control_c, 0, 64, 0
2, 725, Control_c, 0, 64, 127
2, 809, Note_on_c, 0, 53, 0
2, 813, Note_on_c, 0, 60, 0
2, 820, Note_on_c, 0, 63, 0
2, 836, Note_on_c, 0, 58, 0
2, 880, Note_on_c, 0, 72, 0
2, 907, Note_on_c, 0, 73, 45
2, 931, Note_on_c, 0, 73, 0
2, 959, Note_on_c, 0, 81, 60
2, 962, Control_c, 0, 64, 0
2, 965, Note_on_c, 0, 62, 40
2, 965, Note_on_c, 0, 74, 60
2, 966, Note_on_c, 0, 77, 49
2, 968, Note_on_c, 0, 67, 35
2, 968, Note_on_c, 0, 56, 30
2, 972, Note_on_c, 0, 69, 51
2, 1012, Control_c, 0, 64, 127
2, 1065, Note_on_c, 0, 69, 0
2, 1071, Note_on_c, 0, 67, 0
2, 1072, Note_on_c, 0, 62, 0
2, 1077, Note_on_c, 0, 81, 0
2, 1084, Note_on_c, 0, 74, 0
2, 1086, Note_on_c, 0, 77, 0
2, 1088, Note_on_c, 0, 56, 0
2, 1199, Note_on_c, 0, 82, 83
2, 1202, Control_c, 0, 64, 0
2, 1203, Note_on_c, 0, 62, 58
2, 1204, Note_on_c, 0, 78, 70
2, 1206, Note_on_c, 0, 66, 71
2, 1207, Note_on_c, 0, 73, 58
2, 1207, Note_on_c, 0, 56, 63
2, 1248, Control_c, 0, 64, 127
2, 1311, Note_on_c, 0, 62, 0
2, 1318, Note_on_c, 0, 73, 0
2, 1318, Note_on_c, 0, 66, 0
2, 1331, Note_on_c, 0, 78, 0
2, 1338, Note_on_c, 0, 56, 0
2, 1341, Note_on_c, 0, 82, 0
2, 1443, Control_c, 0, 64, 0
2, 1443, Note_on_c, 0, 61, 47
2, 1444, Note_on_c, 0, 65, 69
2, 1446, Note_on_c, 0, 60, 50
2, 1446, Note_on_c, 0, 82, 83
2, 1448, Note_on_c, 0, 55, 62
2, 1453, Note_on_c, 0, 58, 32
2, 1525, Note_on_c, 0, 82, 0
2, 1529, Note_on_c, 0, 84, 49
2, 1573, Note_on_c, 0, 77, 26
2, 1621, Note_on_c, 0, 65, 0
2, 1624, Note_on_c, 0, 84, 0
2, 1624, Note_on_c, 0, 60, 0
2, 1628, Note_on_c, 0, 61, 0
2, 1629, Note_on_c, 0, 55, 0
2, 1633, Note_on_c, 0, 77, 0
2, 1647, Note_on_c, 0, 61, 28
2, 1647, Note_on_c, 0, 65, 34
2, 1649, Note_on_c, 0, 60, 37
2, 1652, Note_on_c, 0, 77, 35
2, 1660, Note_on_c, 0, 60, 0
2, 1661, Note_on_c, 0, 65, 0
2, 1661, Note_on_c, 0, 77, 0
2, 1665, Note_on_c, 0, 61, 0
2, 1671, Note_on_c, 0, 58, 0
2, 2235, Control_c, 0, 64, 127
2, 2241, Note_on_c, 0, 80, 82
2, 2249, Control_c, 0, 64, 0
2, 2282, Note_on_c, 0, 77, 57
2, 2283, Control_c, 0, 64, 127
2, 2292, Note_on_c, 0, 80, 0
2, 2314, Note_on_c, 0, 73, 50
2, 2315, Note_on_c, 0, 77, 0
2, 2340, Note_on_c, 0, 73, 0
2, 2349, Note_on_c, 0, 69, 61
2, 2390, Note_on_c, 0, 69, 0
2, 2396, Control_c, 0, 64, 0
2, 2397, Note_on_c, 0, 68, 71
2, 2558, Control_c, 0, 64, 127
2, 2592, Control_c, 0, 64, 0
2, 2593, Note_on_c, 0, 61, 40
2, 2594, Note_on_c, 0, 64, 52
2, 2597, Note_on_c, 0, 54, 33
2, 2598, Note_on_c, 0, 59, 46
2, 2658, Control_c, 0, 64, 127
2, 2775, Note_on_c, 0, 59, 0
2, 2779, Note_on_c, 0, 64, 0
2, 2779, Note_on_c, 0, 54, 0
2, 2794, Note_on_c, 0, 61, 0
2, 2822, Note_on_c, 0, 68, 0
2, 2834, Note_on_c, 0, 69, 29
2, 2857, Note_on_c, 0, 69, 0
2, 2871, Control_c, 0, 64, 0
2, 2877, Note_on_c, 0, 76, 49
2, 2880, Note_on_c, 0, 64, 49
2, 2880, Note_on_c, 0, 61, 32
2, 2881, Note_on_c, 0, 67, 61
2, 2881, Note_on_c, 0, 70, 51
2, 2883, Note_on_c, 0, 58, 40
2, 2884, Note_on_c, 0, 55, 46
2, 2941, Control_c, 0, 64, 127
2, 3022, Note_on_c, 0, 55, 0
2, 3022, Note_on_c, 0, 64, 0
2, 3028, Note_on_c, 0, 67, 0
2, 3030, Note_on_c, 0, 76, 0
2, 3036, Note_on_c, 0, 61, 0
2, 3038, Note_on_c, 0, 58, 0
2, 3041, Note_on_c, 0, 70, 0
2, 3112, Control_c, 0, 64, 0
2, 3122, Note_on_c, 0, 77, 53
2, 3122, Note_on_c, 0, 70, 62
2, 3123, Note_on_c, 0, 54, 46
2, 3123, Note_on_c, 0, 60, 54
2, 3124, Note_on_c, 0, 58, 50
2, 3126, Note_on_c, 0, 65, 62
2, 3127, Note_on_c, 0, 76, 34
2, 3140, Control_c, 0, 64, 127
2, 3160, Note_on_c, 0, 76, 0
2, 3161, Note_on_c, 0, 65, 0
2, 3169, Note_on_c, 0, 77, 0
2, 3178, Note_on_c, 0, 54, 0
2, 3182, Note_on_c, 0, 60, 0
2, 3184, Note_on_c, 0, 58, 0
2, 3194, Note_on_c, 0, 70, 0
2, 3207, Note_on_c, 0, 78, 65
2, 3207, Note_on_c, 0, 54, 56
2, 3207, Note_on_c, 0, 66, 69
2, 3209, Note_on_c, 0, 58, 47
2, 3209, Note_on_c, 0, 60, 49
2, 3228, Note_on_c, 0, 60, 0
2, 3228, Note_on_c, 0, 54, 0
2, 3232, Note_on_c, 0, 66, 0
2, 3235, Note_on_c, 0, 58, 0
2, 3236, Control_c, 0, 64, 0
2, 3237, Note_on_c, 0, 78, 0
2, 3250, Note_on_c, 0, 54, 31
2, 3251, Note_on_c, 0, 60, 18
2, 3254, Note_on_c, 0, 58, 15
2, 3258, Note_on_c, 0, 67, 38
2, 3260, Control_c, 0, 64, 127
2, 3273, Note_on_c, 0, 60, 0
2, 3275, Note_on_c, 0, 67, 0
2, 3277, Note_on_c, 0, 58, 0
2, 3287, Note_on_c, 0, 54, 0
2, 3323, Note_on_c, 0, 60, 63
2, 3325, Note_on_c, 0, 63, 52
2, 3325, Note_on_c, 0, 80, 60
2, 3327, Note_on_c, 0, 56, 46
2, 3329, Note_on_c, 0, 68, 55
2, 3334, Note_on_c, 0, 53, 17
2, 3350, Note_on_c, 0, 80, 0
2, 3351, Note_on_c, 0, 63, 0
2, 3355, Note_on_c, 0, 68, 0
2, 3358, Note_on_c, 0, 53, 0
2, 3360, Note_on_c, 0, 56, 0
2, 3364, Note_on_c, 0, 60, 0
2, 3366, Control_c, 0, 64, 0
2, 3384, Note_on_c, 0, 75, 49
2, 3390, Note_on_c, 0, 53, 29
2, 3391, Note_on_c, 0, 60, 35
2, 3391, Note_on_c, 0, 56, 37
2, 3392, Note_on_c, 0, 63, 25
2, 3423, Control_c, 0, 64, 127
2, 3436, Note_on_c, 0, 63, 0
2, 3436, Note_on_c, 0, 53, 0
2, 3438, Note_on_c, 0, 75, 0
2, 3438, Note_on_c, 0, 60, 0
2, 3438, Note_on_c, 0, 56, 0
2, 3460, Note_on_c, 0, 75, 67
2, 3461, Control_c, 0, 64, 0
2, 3462, Note_on_c, 0, 63, 55
2, 3466, Note_on_c, 0, 60, 42
2, 3466, Note_on_c, 0, 53, 34
2, 3467, Note_on_c, 0, 56, 31
2, 3468, Note_on_c, 0, 68, 34
2, 3475, Note_on_c, 0, 68, 0
2, 3535, Control_c, 0, 64, 127
2, 3609, Note_on_c, 0, 63, 0
2, 3634, Note_on_c, 0, 56, 0
2, 3635, Note_on_c, 0, 60, 0
2, 3713, Control_c, 0, 64, 0
2, 3724, Control_c, 0, 64, 127
2, 3795, Note_on_c, 0, 63, 42
2, 3797, Note_on_c, 0, 65, 51
2, 3799, Note_on_c, 0, 68, 44
2, 3799, Note_on_c, 0, 60, 42
2, 3802, Note_on_c, 0, 72, 45
2, 3803, Note_on_c, 0, 56, 25
2, 3806, Control_c, 0, 64, 0
2, 3807, Note_on_c, 0, 60, 0
2, 3809, Note_on_c, 0, 63, 0
2, 3809, Note_on_c, 0, 65, 0
2, 3810, Note_on_c, 0, 72, 0
2, 3814, Note_on_c, 0, 75, 0
2, 3816, Note_on_c, 0, 68, 0
2, 3817, Note_on_c, 0, 53, 0
2, 3824, Note_on_c, 0, 56, 0
2, 3848, Control_c, 0, 64, 127
2, 3916, Note_on_c, 0, 61, 82
2, 3917, Note_on_c, 0, 49, 74
2, 4074, Control_c, 0, 64, 0
2, 4075, Note_on_c, 0, 49, 0
2, 4079, Note_on_c, 0, 53, 39
2, 4082, Note_on_c, 0, 65, 51
2, 4086, Note_on_c, 0, 61, 0
2, 4098, Note_on_c, 0, 65, 0
2, 4113, Note_on_c, 0, 53, 0
2, 4195, Note_on_c, 0, 56, 36
2, 4197, Note_on_c, 0, 68, 54
2, 4212, Note_on_c, 0, 56, 0
2, 4228, Note_on_c, 0, 68, 0
2, 4259, Control_c, 0, 64, 127
2, 4311, Control_c, 0, 64, 0
2, 4320, Note_on_c, 0, 70, 60
2, 4322, Note_on_c, 0, 55, 33
2, 4323, Note_on_c, 0, 61, 23
2, 4324, Note_on_c, 0, 53, 24
2, 4324, Note_on_c, 0, 58, 34
2, 4343, Note_on_c, 0, 70, 0
2, 4444, Note_on_c, 0, 72, 85
2, 4450, Note_on_c, 0, 79, 38
2, 4458, Note_on_c, 0, 79, 0
2, 4464, Note_on_c, 0, 61, 0
2, 4469, Note_on_c, 0, 55, 0
2, 4470, Note_on_c, 0, 53, 0
2, 4474, Note_on_c, 0, 72, 0
2, 4481, Note_on_c, 0, 73, 62
2, 4482, Note_on_c, 0, 79, 55
2, 4508, Note_on_c, 0, 79, 0
2, 4516, Note_on_c, 0, 73, 0
2, 4523, Note_on_c, 0, 72, 81
2, 4529, Note_on_c, 0, 63, 40
2, 4530, Note_on_c, 0, 52, 53
2, 4637, Note_on_c, 0, 70, 68
2, 4645, Note_on_c, 0, 72, 0
2, 4725, Note_on_c, 0, 70, 0
2, 4732, Note_on_c, 0, 67, 48
2, 4733, Note_on_c, 0, 52, 0
2, 4738, Note_on_c, 0, 63, 0
2, 4749, Note_on_c, 0, 58, 0
2, 4750, Control_c, 0, 64, 127
2, 4753, Note_on_c, 0, 67, 0
2, 4764, Note_on_c, 0, 70, 71
2, 4792, Control_c, 0, 64, 0
2, 4796, Note_on_c, 0, 70, 0
2, 4798, Note_on_c, 0, 56, 26
2, 4801, Note_on_c, 0, 60, 37
2, 4802, Note_on_c, 0, 53, 32
2, 4806, Note_on_c, 0, 69, 60
2, 4840, Note_on_c, 0, 69, 0
2, 4847, Note_on_c, 0, 70, 42
2, 4862, Note_on_c, 0, 69, 33
2, 4876, Note_on_c, 0, 70, 0
2, 4884, Note_on_c, 0, 69, 0
2, 4888, Note_on_c, 0, 65, 48
2, 4893, Control_c, 0, 64, 127
2, 4905, Control_c, 0, 64, 0
2, 4912, Note_on_c, 0, 65, 0
2, 4923, Note_on_c, 0, 68, 61
2, 4979, Note_on_c, 0, 60, 0
2, 4990, Note_on_c, 0, 68, 0
2, 4999, Note_on_c, 0, 56, 0
2, 5012, Note_on_c, 0, 53, 0
2, 5046, Note_on_c, 0, 60, 50
2, 5102, Note_on_c, 0, 60, 0
2, 5123, Note_on_c, 0, 65, 45
2, 5137, Note_on_c, 0, 65, 0
2, 5300, Control_c, 0, 64, 127
2, 5350, Note_on_c, 0, 63, 49
2, 5352, Note_on_c, 0, 60, 41
2, 5352, Note_on_c, 0, 72, 65
2, 5353, Note_on_c, 0, 55, 43
2, 5355, Note_on_c, 0, 57, 44
2, 5360, Note_on_c, 0, 72, 0
2, 5360, Note_on_c, 0, 60, 0
2, 5364, Note_on_c, 0, 57, 0
2, 5365, Note_on_c, 0, 63, 0
2, 5366, Control_c, 0, 64, 0
2, 5368, Note_on_c, 0, 55, 0
2, 5433, Note_on_c, 0, 74, 103
2, 5434, Note_on_c, 0, 79, 80
2, 5456, Note_on_c, 0, 79, 0
2, 5461, Note_on_c, 0, 74, 0
2, 5465, Note_on_c, 0, 79, 48
2, 5469, Note_on_c, 0, 75, 80
2, 5476, Control_c, 0, 64, 127
2, 5490, Control_c, 0, 64, 0
2, 5491, Note_on_c, 0, 79, 0
2, 5499, Note_on_c, 0, 75, 0
2, 5507, Note_on_c, 0, 60, 42
2, 5509, Note_on_c, 0, 79, 47
2, 5510, Note_on_c, 0, 74, 75
2, 5511, Note_on_c, 0, 62, 44
2, 5515, Note_on_c, 0, 54, 35
2, 5547, Note_on_c, 0, 74, 0
2, 5557, Note_on_c, 0, 72, 51
2, 5558, Note_on_c, 0, 79, 0
2, 5577, Note_on_c, 0, 62, 0
2, 5579, Note_on_c, 0, 72, 0
2, 5594, Note_on_c, 0, 70, 55
2, 5596, Note_on_c, 0, 62, 29
2, 5624, Note_on_c, 0, 70, 0
2, 5639, Note_on_c, 0, 69, 58
2, 5667, Note_on_c, 0, 60, 0
2, 5685, Note_on_c, 0, 62, 0
2, 5689, Note_on_c, 0, 70, 48
2, 5697, Note_on_c, 0, 69, 0
2, 5711, Note_on_c, 0, 70, 0
2, 5711, Control_c, 0, 64, 127
2, 5713, Note_on_c, 0, 71, 60
2, 5718, Note_on_c, 0, 54, 0
2, 5738, Note_on_c, 0, 71, 0
2, 5739, Note_on_c, 0, 72, 78
2, 5741, Control_c, 0, 64, 0
2, 5753, Note_on_c, 0, 62, 32
2, 5755, Note_on_c, 0, 53, 29
2, 5757, Note_on_c, 0, 58, 35
2, 5757, Note_on_c, 0, 55, 46
2, 5769, Note_on_c, 0, 72, 0
2, 5775, Note_on_c, 0, 70, 53
2, 5830, Note_on_c, 0, 70, 0
2, 5840, Note_on_c, 0, 66, 47
2, 5869, Note_on_c, 0, 66, 0
2, 5886, Note_on_c, 0, 69, 66
2, 5887, Note_on_c, 0, 62, 0
2, 5943, Note_on_c, 0, 69, 0
2, 5959, Note_on_c, 0, 67, 57
2, 5965, Note_on_c, 0, 55, 0
2, 5973, Note_on_c, 0, 58, 0
2, 5978, Note_on_c, 0, 53, 0
2, 5983, Note_on_c, 0, 67, 0
2, 6005, Note_on_c, 0, 62, 43
2, 6048, Control_c, 0, 64, 127
2, 6066, Note_on_c, 0, 62, 0
2, 6076, Note_on_c, 0, 58, 71
2, 6088, Control_c, 0, 64, 0
2, 6110, Note_on_c, 0, 58, 0
2, 6188, Note_on_c, 0, 43, 58
2, 6196, Note_on_c, 0, 43, 0
2, 6231, Control_c, 0, 64, 127
2, 6325, Control_c, 0, 64, 0
2, 6326, Note_on_c, 0, 73, 79
2, 6326, Note_on_c, 0, 85, 92
2, 6327, Note_on_c, 0, 61, 77
2, 6328, Note_on_c, 0, 53, 71
2, 6329, Note_on_c, 0, 58, 70
2, 6330, Note_on_c, 0, 55, 71
2, 6337, Note_on_c, 0, 55, 0
2, 6338, Note_on_c, 0, 61, 0
2, 6339, Note_on_c, 0, 53, 0
2, 6342, Note_on_c, 0, 73, 0
2, 6351, Note_on_c, 0, 85, 0
2, 6356, Note_on_c, 0, 58, 0
2, 6377, Note_on_c, 0, 75, 82
2, 6377, Note_on_c, 0, 87, 87
2, 6378, Note_on_c, 0, 58, 60
2, 6378, Note_on_c, 0, 61, 64
2, 6380, Note_on_c, 0, 53, 53
2, 6380, Note_on_c, 0, 55, 59
2, 6409, Control_c, 0, 64, 127
2, 6415, Note_on_c, 0, 87, 0
2, 6416, Note_on_c, 0, 53, 0
2, 6418, Note_on_c, 0, 55, 0
2, 6419, Note_on_c, 0, 61, 0
2, 6421, Note_on_c, 0, 58, 0
2, 6423, Note_on_c, 0, 75, 0
2, 6442, Note_on_c, 0, 61, 43
2, 6443, Note_on_c, 0, 53, 44
2, 6446, Note_on_c, 0, 58, 46
2, 6447, Note_on_c, 0, 55, 49
2, 6448, Note_on_c, 0, 85, 71
2, 6450, Note_on_c, 0, 73, 60
2, 6463, Note_on_c, 0, 85, 0
2, 6469, Control_c, 0, 64, 0
2, 6471, Note_on_c, 0, 53, 0
2, 6476, Note_on_c, 0, 73, 0
2, 6477, Note_on_c, 0, 61, 0
2, 6479, Note_on_c, 0, 55, 0
2, 6481, Note_on_c, 0, 58, 0
2, 6502, Note_on_c, 0, 82, 46
2, 6503, Note_on_c, 0, 61, 21
2, 6507, Note_on_c, 0, 53, 35
2, 6508, Note_on_c, 0, 70, 33
2, 6509, Note_on_c, 0, 55, 30
2, 6509, Note_on_c, 0, 58, 31
2, 6535, Control_c, 0, 64, 127
2, 6544, Note_on_c, 0, 58, 0
2, 6550, Note_on_c, 0, 70, 0
2, 6551, Note_on_c, 0, 61, 0
2, 6552, Note_on_c, 0, 55, 0
2, 6553, Note_on_c, 0, 53, 0
2, 6555, Note_on_c, 0, 82, 0
2, 6568, Control_c, 0, 64, 0
2, 6646, Note_on_c, 0, 53, 45
2, 6646, Note_on_c, 0, 83, 55
2, 6650, Note_on_c, 0, 71, 38
2, 6654, Note_on_c, 0, 83, 0
2, 6657, Note_on_c, 0, 53, 0
2, 6658, Note_on_c, 0, 71, 0
2, 6658, Control_c, 0, 64, 127
2, 6671, Note_on_c, 0, 53, 11
2, 6674, Note_on_c, 0, 61, 43
2, 6679, Note_on_c, 0, 84, 65
2, 6679, Note_on_c, 0, 72, 67
2, 6682, Note_on_c, 0, 58, 29
2, 6690, Note_on_c, 0, 53, 0
2, 6692, Note_on_c, 0, 84, 0
2, 6693, Note_on_c, 0, 61, 0
2, 6693, Note_on_c, 0, 72, 0
2, 6701, Note_on_c, 0, 58, 0
2, 6710, Control_c, 0, 64, 0
2, 6715, Note_on_c, 0, 63, 74
2, 6716, Note_on_c, 0, 58, 67
2, 6717, Note_on_c, 0, 52, 77
2, 6717, Note_on_c, 0, 85, 87
2, 6717, Note_on_c, 0, 73, 67
2, 6752, Control_c, 0, 64, 127
2, 6823, Note_on_c, 0, 52, 0
2, 6834, Note_on_c, 0, 85, 0
2, 6836, Note_on_c, 0, 63, 0
2, 6838, Note_on_c, 0, 73, 0
2, 6844, Note_on_c, 0, 58, 0
2, 6953, Control_c, 0, 64, 0
2, 6957, Note_on_c, 0, 75, 83
2, 6958, Note_on_c, 0, 68, 87
2, 6958, Note_on_c, 0, 58, 85
2, 6959, Note_on_c, 0, 64, 91
2, 6959, Note_on_c, 0, 72, 78
2, 7029, Control_c, 0, 64, 127
2, 7093, Note_on_c, 0, 72, 0
2, 7095, Note_on_c, 0, 75, 0
2, 7106, Note_on_c, 0, 58, 0
2, 7110, Note_on_c, 0, 64, 0
2, 7133, Note_on_c, 0, 68, 0
2, 7189, Control_c, 0, 64, 0
2, 7198, Note_on_c, 0, 72, 57
2, 7198, Note_on_c, 0, 57, 51
2, 7200, Note_on_c, 0, 67, 48
2, 7200, Note_on_c, 0, 62, 53
2, 7266, Note_on_c, 0, 72, 0
2, 7269, Note_on_c, 0, 62, 0
2, 7270, Note_on_c, 0, 67, 0
2, 7272, Note_on_c, 0, 57, 0
2, 7290, Note_on_c, 0, 56, 25
2, 7321, Note_on_c, 0, 72, 53
2, 7321, Note_on_c, 0, 62, 53
2, 7322, Note_on_c, 0, 57, 46
2, 7323, Note_on_c, 0, 56, 0
2, 7323, Note_on_c, 0, 67, 49
2, 7360, Control_c, 0, 64, 127
2, 7370, Note_on_c, 0, 72, 0
2, 7385, Note_on_c, 0, 67, 0
2, 7394, Note_on_c, 0, 62, 0
2, 7434, Control_c, 0, 64, 0
2, 7437, Note_on_c, 0, 57, 0
2, 7442, Note_on_c, 0, 61, 43
2, 7443, Note_on_c, 0, 56, 36
2, 7444, Note_on_c, 0, 66, 39
2, 7444, Note_on_c, 0, 71, 32
2, 7517, Note_on_c, 0, 66, 0
2, 7519, Note_on_c, 0, 56, 0
2, 7520, Note_on_c, 0, 71, 0
2, 7522, Note_on_c, 0, 61, 0
2, 7533, Note_on_c, 0, 54, 27
2, 7540, Control_c, 0, 64, 127
2, 7548, Note_on_c, 0, 54, 0
2, 7558, Control_c, 0, 64, 0
2, 7561, Note_on_c, 0, 56, 42
2, 7562, Note_on_c, 0, 71, 48
2, 7563, Note_on_c, 0, 61, 43
2, 7563, Note_on_c, 0, 66, 49
2, 7602, Control_c, 0, 64, 127
2, 7610, Note_on_c, 0, 71, 0
2, 7635, Note_on_c, 0, 66, 0
2, 7651, Note_on_c, 0, 54, 33
2, 7657, Note_on_c, 0, 61, 0
2, 7665, Note_on_c, 0, 56, 0
2, 7669, Control_c, 0, 64, 0
2, 7678, Note_on_c, 0, 70, 40
2, 7679, Note_on_c, 0, 54, 0
2, 7682, Note_on_c, 0, 55, 49
2, 7684, Note_on_c, 0, 65, 44
2, 7684, Note_on_c, 0, 60, 32
2, 7747, Control_c, 0, 64, 127
2, 7753, Note_on_c, 0, 70, 0
2, 7755, Note_on_c, 0, 65, 0
2, 7759, Note_on_c, 0, 60, 0
2, 7768, Note_on_c, 0, 55, 0
2, 7774, Note_on_c, 0, 54, 29
2, 7781, Control_c, 0, 64, 0
2, 7798, Note_on_c, 0, 70, 46
2, 7801, Note_on_c, 0, 54, 0
2, 7801, Note_on_c, 0, 55, 47
2, 7802, Note_on_c, 0, 60, 32
2, 7803, Note_on_c, 0, 65, 50
2, 7819, Control_c, 0, 64, 127
2, 7858, Note_on_c, 0, 65, 0
2, 7863, Note_on_c, 0, 70, 0
2, 7867, Note_on_c, 0, 60, 0
2, 7888, Note_on_c, 0, 64, 45
2, 7889, Note_on_c, 0, 55, 0
2, 7889, Note_on_c, 0, 54, 52
2, 7889, Note_on_c, 0, 59, 48
2, 7890, Note_on_c, 0, 69, 43
2, 7891, Control_c, 0, 64, 0
2, 7915, Note_on_c, 0, 69, 0
2, 7921, Control_c, 0, 64, 127
2, 7924, Note_on_c, 0, 64, 0
2, 7932, Note_on_c, 0, 59, 0
2, 7976, Note_on_c, 0, 72, 81
2, 8008, Note_on_c, 0, 68, 62
2, 8019, Note_on_c, 0, 72, 0
2, 8021, Note_on_c, 0, 54, 0
2, 8044, Note_on_c, 0, 65, 63
2, 8053, Note_on_c, 0, 68, 0
2, 8068, Note_on_c, 0, 65, 0
2, 8085, Note_on_c, 0, 61, 51
2, 8164, Note_on_c, 0, 61, 0
2, 8174, Note_on_c, 0, 60, 66
2, 8178, Control_c, 0, 64, 0
2, 8243, Note_on_c, 0, 37, 36
2, 8248, Note_on_c, 0, 44, 44
2, 8250, Control_c, 0, 64, 127
2, 8256, Note_on_c, 0, 37, 0
2, 8263, Note_on_c, 0, 44, 0
2, 8277, Note_on_c, 0, 60, 0
2, 8357, Note_on_c, 0, 75, 37
2, 8358, Note_on_c, 0, 65, 46
2, 8360, Note_on_c, 0, 68, 37
2, 8360, Note_on_c, 0, 63, 38
2, 8362, Note_on_c, 0, 72, 50
2, 8363, Note_on_c, 0, 58, 39
2, 8366, Note_on_c, 0, 53, 33
2, 8467, Note_on_c, 0, 65, 0
2, 8488, Note_on_c, 0, 72, 0
2, 8506, Note_on_c, 0, 68, 0
2, 8516, Note_on_c, 0, 75, 0
2, 8547, Note_on_c, 0, 53, 0
2, 8557, Note_on_c, 0, 63, 0
2, 8560, Note_on_c, 0, 58, 0
2, 8637, Control_c, 0, 64, 0
2, 8641, Note_on_c, 0, 81, 67
2, 8641, Note_on_c, 0, 74, 65
2, 8642, Note_on_c, 0, 62, 47
2, 8643, Note_on_c, 0, 67, 55
2, 8643, Note_on_c, 0, 56, 37
2, 8694, Control_c, 0, 64, 127
2, 8769, Note_on_c, 0, 67, 0
2, 8774, Note_on_c, 0, 62, 0
2, 8774, Note_on_c, 0, 81, 0
2, 8780, Note_on_c, 0, 74, 0
2, 8788, Note_on_c, 0, 56, 0
2, 8872, Control_c, 0, 64, 0
2, 8877, Note_on_c, 0, 62, 41
2, 8877, Note_on_c, 0, 82, 51
2, 8877, Note_on_c, 0, 73, 33
2, 8879, Note_on_c, 0, 78, 34
2, 8880, Note_on_c, 0, 66, 43
2, 8887, Note_on_c, 0, 56, 23
2, 8934, Control_c, 0, 64, 127
2, 8991, Note_on_c, 0, 73, 0
2, 9000, Note_on_c, 0, 62, 0
2, 9001, Note_on_c, 0, 66, 0
2, 9004, Note_on_c, 0, 78, 0
2, 9010, Note_on_c, 0, 82, 0
2, 9031, Note_on_c, 0, 56, 0
2, 9117, Control_c, 0, 64, 0
2, 9121, Note_on_c, 0, 61, 35
2, 9125, Note_on_c, 0, 65, 54
2, 9126, Note_on_c, 0, 60, 36
2, 9128, Note_on_c, 0, 82, 70
2, 9129, Note_on_c, 0, 55, 40
2, 9199, Note_on_c, 0, 82, 0
2, 9204, Note_on_c, 0, 84, 44
2, 9219, Note_on_c, 0, 82, 49
2, 9231, Note_on_c, 0, 84, 0
2, 9235, Note_on_c, 0, 55, 0
2, 9240, Note_on_c, 0, 60, 0
2, 9241, Note_on_c, 0, 61, 0
2, 9242, Note_on_c, 0, 65, 0
2, 9247, Note_on_c, 0, 77, 37
2, 9253, Note_on_c, 0, 82, 0
2, 9292, Note_on_c, 0, 77, 0
2, 9321, Note_on_c, 0, 77, 47
2, 9342, Note_on_c, 0, 77, 0
2, 9376, Note_on_c, 0, 77, 34
2, 9423, Note_on_c, 0, 77, 0
2, 9445, Note_on_c, 0, 77, 40
2, 9460, Note_on_c, 0, 77, 0
2, 9716, Control_c, 0, 64, 127
2, 9821, Control_c, 0, 64, 0
2, 9838, Note_on_c, 0, 61, 30
2, 9839, Note_on_c, 0, 55, 39
2, 9840, Note_on_c, 0, 65, 38
2, 9840, Note_on_c, 0, 60, 32
2, 9916, Note_on_c, 0, 80, 78
2, 9937, Note_on_c, 0, 65, 0
2, 9944, Note_on_c, 0, 60, 0
2, 9950, Note_on_c, 0, 61, 0
2, 9955, Note_on_c, 0, 55, 0
2, 9956, Note_on_c, 0, 80, 0
2, 9959, Note_on_c, 0, 77, 45
2, 9963, Control_c, 0, 64, 127
2, 9985, Note_on_c, 0, 77, 0
2, 9989, Note_on_c, 0, 73, 53
2, 10018, Note_on_c, 0, 73, 0
2, 10025, Note_on_c, 0, 69, 49
2, 10058, Note_on_c, 0, 69, 0
2, 10063, Control_c, 0, 64, 0
2, 10068, Note_on_c, 0, 68, 63
2, 10147, Note_on_c, 0, 45, 64
2, 10154, Note_on_c, 0, 45, 0
2, 10160, Control_c, 0, 64, 127
2, 10269, Note_on_c, 0, 61, 70
2, 10270, Note_on_c, 0, 54, 72
2, 10271, Note_on_c, 0, 59, 74
2, 10271, Note_on_c, 0, 64, 85
2, 10441, Note_on_c, 0, 68, 0
2, 10482, Note_on_c, 0, 59, 0
2, 10484, Note_on_c, 0, 64, 0
2, 10488, Note_on_c, 0, 54, 0
2, 10498, Note_on_c, 0, 61, 0
2, 10512, Note_on_c, 0, 69, 73
2, 10526, Note_on_c, 0, 69, 0
2, 10541, Control_c, 0, 64, 0
2, 10635, Note_on_c, 0, 76, 77
2, 10636, Note_on_c, 0, 73, 56
2, 10637, Note_on_c, 0, 70, 77
2, 10637, Note_on_c, 0, 67, 85
2, 10638, Note_on_c, 0, 58, 62
2, 10638, Note_on_c, 0, 61, 64
2, 10639, Note_on_c, 0, 64, 75
2, 10641, Note_on_c, 0, 55, 66
2, 10685, Control_c, 0, 64, 127
2, 10743, Note_on_c, 0, 67, 0
2, 10744, Note_on_c, 0, 76, 0
2, 10748, Note_on_c, 0, 55, 0
2, 10750, Note_on_c, 0, 64, 0
2, 10758, Note_on_c, 0, 70, 0
2, 10763, Note_on_c, 0, 73, 0
2, 10764, Note_on_c, 0, 58, 0
2, 10796, Note_on_c, 0, 61, 0
2, 10801, Control_c, 0, 64, 0
2, 10810, Note_on_c, 0, 77, 58
2, 10810, Note_on_c, 0, 66, 55
2, 10811, Note_on_c, 0, 70, 59
2, 10813, Note_on_c, 0, 65, 54
2, 10814, Note_on_c, 0, 60, 46
2, 10815, Note_on_c, 0, 72, 40
2, 10821, Note_on_c, 0, 65, 0
2, 10823, Note_on_c, 0, 60, 0
2, 10827, Note_on_c, 0, 72, 0
2, 10828, Note_on_c, 0, 66, 0
2, 10833, Note_on_c, 0, 70, 0
2, 10837, Note_on_c, 0, 77, 0
2, 10923, Note_on_c, 0, 60, 51
2, 10926, Note_on_c, 0, 78, 59
2, 10932, Note_on_c, 0, 60, 0
2, 10936, Control_c, 0, 64, 127
2, 10953, Note_on_c, 0, 78, 0
2, 11045, Note_on_c, 0, 79, 38
2, 11046, Note_on_c, 0, 70, 50
2, 11046, Control_c, 0, 64, 0
2, 11047, Note_on_c, 0, 53, 55
2, 11047, Note_on_c, 0, 75, 55
2, 11047, Note_on_c, 0, 67, 44
2, 11048, Note_on_c, 0, 59, 45
2, 11049, Note_on_c, 0, 63, 35
2, 11112, Control_c, 0, 64, 127
2, 11189, Note_on_c, 0, 59, 0
2, 11192, Note_on_c, 0, 70, 0
2, 11193, Note_on_c, 0, 75, 0
2, 11195, Note_on_c, 0, 63, 0
2, 11204, Note_on_c, 0, 67, 0
2, 11217, Note_on_c, 0, 53, 0
2, 11223, Note_on_c, 0, 79, 0
2, 11402, Note_on_c, 0, 82, 56
2, 11404, Note_on_c, 0, 63, 38
2, 11405, Note_on_c, 0, 91, 54
2, 11406, Note_on_c, 0, 59, 46
2, 11408, Note_on_c, 0, 53, 32
2, 11419, Note_on_c, 0, 53, 0
2, 11420, Note_on_c, 0, 63, 0
2, 11424, Note_on_c, 0, 59, 0
2, 11430, Note_on_c, 0, 82, 0
2, 11437, Note_on_c, 0, 91, 0
2, 11480, Note_on_c, 0, 82, 48
2, 11482, Note_on_c, 0, 87, 55
2, 11483, Note_on_c, 0, 79, 34
2, 11483, Note_on_c, 0, 59, 48
2, 11484, Control_c, 0, 64, 0
2, 11484, Note_on_c, 0, 63, 38
2, 11489, Note_on_c, 0, 53, 42
2, 11517, Control_c, 0, 64, 127
2, 11603, Note_on_c, 0, 87, 0
2, 11603, Note_on_c, 0, 82, 0
2, 11608, Note_on_c, 0, 79, 0
2, 11637, Note_on_c, 0, 63, 0
2, 11654, Note_on_c, 0, 59, 0
2, 11675, Note_on_c, 0, 53, 0
2, 11838, Control_c, 0, 64, 0
2, 11841, Note_on_c, 0, 68, 78
2, 11842, Note_on_c, 0, 59, 61
2, 11842, Note_on_c, 0, 63, 56
2, 11845, Note_on_c, 0, 53, 49
2, 11866, Control_c, 0, 64, 127
2, 11899, Note_on_c, 0, 53, 0
2, 11903, Note_on_c, 0, 59, 0
2, 11912, Note_on_c, 0, 63, 0
2, 11922, Note_on_c, 0, 68, 0
2, 11995, Control_c, 0, 64, 0
2, 11998, Note_on_c, 0, 65, 65
2, 12000, Note_on_c, 0, 60, 54
2, 12000, Note_on_c, 0, 69, 83
2, 12002, Note_on_c, 0, 58, 43
2, 12005, Note_on_c, 0, 54, 28
2, 12013, Note_on_c, 0, 65, 0
2, 12014, Note_on_c, 0, 69, 0
2, 12016, Note_on_c, 0, 60, 0
2, 12020, Note_on_c, 0, 54, 0
2, 12025, Note_on_c, 0, 58, 0
2, 12115, Note_on_c, 0, 70, 71
2, 12116, Note_on_c, 0, 60, 50
2, 12117, Note_on_c, 0, 65, 53
2, 12118, Note_on_c, 0, 58, 38
2, 12121, Note_on_c, 0, 54, 29
2, 12134, Note_on_c, 0, 65, 0
2, 12139, Note_on_c, 0, 70, 0
2, 12139, Note_on_c, 0, 60, 0
2, 12140, Note_on_c, 0, 54, 0
2, 12147, Note_on_c, 0, 58, 0
2, 12235, Note_on_c, 0, 65, 57
2, 12237, Control_c, 0, 64, 127
2, 12239, Note_on_c, 0, 60, 49
2, 12239, Note_on_c, 0, 69, 54
2, 12240, Note_on_c, 0, 58, 38
2, 12240, Note_on_c, 0, 54, 28
2, 12273, Note_on_c, 0, 65, 0
2, 12276, Note_on_c, 0, 60, 0
2, 12276, Note_on_c, 0, 54, 0
2, 12283, Note_on_c, 0, 58, 0
2, 12295, Note_on_c, 0, 69, 0
2, 12319, Note_on_c, 0, 70, 69
2, 12320, Note_on_c, 0, 65, 42
2, 12322, Note_on_c, 0, 58, 40
2, 12323, Note_on_c, 0, 60, 41
2, 12327, Note_on_c, 0, 65, 0
2, 12329, Note_on_c, 0, 54, 18
2, 12331, Note_on_c, 0, 60, 0
2, 12344, Note_on_c, 0, 54, 0
2, 12346, Note_on_c, 0, 70, 0
2, 12349, Note_on_c, 0, 58, 0
2, 12424, Note_on_c, 0, 61, 55
2, 12433, Note_on_c, 0, 62, 50
2, 12438, Note_on_c, 0, 75, 79
2, 12438, Note_on_c, 0, 68, 84
2, 12439, Note_on_c, 0, 61, 0
2, 12439, Note_on_c, 0, 72, 79
2, 12440, Note_on_c, 0, 64, 90
2, 12441, Note_on_c, 0, 62, 0
2, 12443, Note_on_c, 0, 63, 95
2, 12445, Note_on_c, 0, 61, 25
2, 12448, Control_c, 0, 64, 0
2, 12452, Note_on_c, 0, 61, 0
2, 12586, Control_c, 0, 64, 127
2, 12715, Note_on_c, 0, 72, 0
2, 12718, Note_on_c, 0, 75, 0
2, 12721, Note_on_c, 0, 63, 0
2, 12744, Note_on_c, 0, 68, 0
2, 12753, Note_on_c, 0, 64, 0
2, 12793, Note_on_c, 0, 68, 63
2, 12794, Note_on_c, 0, 73, 43
2, 12795, Control_c, 0, 64, 0
2, 12796, Note_on_c, 0, 61, 55
2, 12799, Note_on_c, 0, 64, 52
2, 12825, Control_c, 0, 64, 127
2, 12840, Note_on_c, 0, 64, 0
2, 12842, Note_on_c, 0, 68, 0
2, 12845, Note_on_c, 0, 73, 0
2, 12873, Note_on_c, 0, 72, 63
2, 12874, Note_on_c, 0, 60, 54
2, 12876, Note_on_c, 0, 64, 46
2, 12877, Note_on_c, 0, 61, 0
2, 12879, Note_on_c, 0, 67, 49
2, 12889, Note_on_c, 0, 60, 0
2, 12897, Note_on_c, 0, 64, 0
2, 12907, Note_on_c, 0, 67, 0
2, 12919, Note_on_c, 0, 72, 0
2, 12957, Control_c, 0, 64, 0
2, 12963, Note_on_c, 0, 67, 55
2, 12964, Note_on_c, 0, 71, 56
2, 12964, Note_on_c, 0, 63, 36
2, 12965, Note_on_c, 0, 59, 42
2, 12967, Note_on_c, 0, 53, 35
2, 13036, Control_c, 0, 64, 127
2, 13086, Note_on_c, 0, 63, 0
2, 13118, Note_on_c, 0, 59, 0
2, 13151, Note_on_c, 0, 67, 0
2, 13159, Note_on_c, 0, 53, 0
2, 13164, Note_on_c, 0, 71, 0
2, 13198, Note_on_c, 0, 68, 60
2, 13200, Note_on_c, 0, 63, 45
2, 13202, Note_on_c, 0, 65, 56
2, 13202, Control_c, 0, 64, 0
2, 13204, Note_on_c, 0, 59, 46
2, 13209, Note_on_c, 0, 63, 0
2, 13211, Note_on_c, 0, 59, 0
2, 13212, Note_on_c, 0, 65, 0
2, 13214, Note_on_c, 0, 68, 0
2, 13317, Control_c, 0, 64, 127
2, 13390, Note_on_c, 0, 65, 58
2, 13391, Note_on_c, 0, 62, 49
2, 13394, Note_on_c, 0, 56, 30
2, 13395, Note_on_c, 0, 46, 35
2, 13401, Control_c, 0, 64, 0
2, 13503, Note_on_c, 0, 62, 0
2, 13509, Control_c, 0, 64, 127
2, 13547, Note_on_c, 0, 65, 0
2, 13548, Note_on_c, 0, 56, 0
2, 13555, Control_c, 0, 64, 0
2, 13558, Note_on_c, 0, 62, 33
2, 13559, Note_on_c, 0, 58, 46
2, 13563, Note_on_c, 0, 55, 33
2, 13565, Note_on_c, 0, 46, 0
2, 13579, Note_on_c, 0, 55, 0
2, 13581, Control_c, 0, 64, 127
2, 13588, Note_on_c, 0, 62, 0
2, 13591, Note_on_c, 0, 58, 0
2, 13619, Control_c, 0, 64, 0
2, 13635, Note_on_c, 0, 46, 60
2, 13652, Note_on_c, 0, 46, 0
2, 13759, Note_on_c, 0, 84, 92
2, 13790, Control_c, 0, 64, 127
2, 13799, Note_on_c, 0, 84, 0
2, 13800, Note_on_c, 0, 82, 34
2, 13800, Note_on_c, 0, 80, 49
2, 13812, Note_on_c, 0, 82, 0
2, 13821, Note_on_c, 0, 80, 0
2, 13834, Note_on_c, 0, 77, 53
2, 13857, Note_on_c, 0, 77, 0
2, 13869, Note_on_c, 0, 73, 40
2, 13896, Note_on_c, 0, 73, 0
2, 13904, Control_c, 0, 64, 0
2, 13911, Note_on_c, 0, 39, 53
2, 13914, Note_on_c, 0, 72, 55
2, 13915, Note_on_c, 0, 51, 34
2, 13929, Note_on_c, 0, 39, 0
2, 13932, Control_c, 0, 64, 127
2, 13935, Note_on_c, 0, 51, 0
2, 13993, Note_on_c, 0, 65, 75
2, 13996, Note_on_c, 0, 60, 55
2, 13998, Note_on_c, 0, 61, 35
2, 14000, Note_on_c, 0, 55, 48
2, 14006, Control_c, 0, 64, 0
2, 14007, Note_on_c, 0, 55, 0
2, 14007, Note_on_c, 0, 65, 0
2, 14012, Note_on_c, 0, 60, 0
2, 14014, Note_on_c, 0, 61, 0
2, 14083, Control_c, 0, 64, 127
2, 14143, Control_c, 0, 64, 0
2, 14161, Note_on_c, 0, 65, 45
2, 14162, Note_on_c, 0, 61, 27
2, 14162, Note_on_c, 0, 60, 35
2, 14166, Note_on_c, 0, 55, 34
2, 14199, Control_c, 0, 64, 127
2, 14286, Note_on_c, 0, 60, 0
2, 14293, Note_on_c, 0, 65, 0
2, 14301, Note_on_c, 0, 61, 0
2, 14308, Note_on_c, 0, 55, 0
2, 14341, Note_on_c, 0, 72, 0
2, 14356, Note_on_c, 0, 73, 37
2, 14370, Note_on_c, 0, 73, 0
2, 14373, Control_c, 0, 64, 0
2, 14518, Note_on_c, 0, 80, 62
2, 14520, Note_on_c, 0, 68, 65
2, 14521, Note_on_c, 0, 65, 80
2, 14524, Note_on_c, 0, 60, 60
2, 14526, Note_on_c, 0, 58, 37
2, 14530, Note_on_c, 0, 54, 25
2, 14535, Note_on_c, 0, 68, 0
2, 14537, Note_on_c, 0, 65, 0
2, 14546, Note_on_c, 0, 60, 0
2, 14547, Note_on_c, 0, 54, 0
2, 14550, Note_on_c, 0, 80, 0
2, 14559, Note_on_c, 0, 58, 0
2, 14684, Control_c, 0, 64, 127
2, 14706, Control_c, 0, 64, 0
2, 14719, Note_on_c, 0, 60, 58
2, 14720, Note_on_c, 0, 65, 65
2, 14720, Note_on_c, 0, 70, 69
2, 14720, Note_on_c, 0, 82, 65
2, 14721, Note_on_c, 0, 75, 59
2, 14721, Note_on_c, 0, 58, 46
2, 14728, Note_on_c, 0, 75, 0
2, 14728, Note_on_c, 0, 70, 0
2, 14728, Note_on_c, 0, 65, 0
2, 14732, Note_on_c, 0, 82, 0
2, 14734, Note_on_c, 0, 60, 0
2, 14744, Note_on_c, 0, 58, 0
2, 14875, Note_on_c, 0, 63, 49
2, 14876, Note_on_c, 0, 82, 63
2, 14876, Note_on_c, 0, 70, 62
2, 14877, Note_on_c, 0, 53, 50
2, 14878, Note_on_c, 0, 58, 49
2, 14878, Note_on_c, 0, 75, 52
2, 14925, Control_c, 0, 64, 127
2, 15160, Note_on_c, 0, 82, 0
2, 15180, Note_on_c, 0, 75, 0
2, 15189, Note_on_c, 0, 70, 0
2, 15209, Note_on_c, 0, 63, 0
2, 15226, Note_on_c, 0, 58, 0
2, 15228, Note_on_c, 0, 53, 0
2, 15317, Note_on_c, 0, 58, 85
2, 15317, Note_on_c, 0, 73, 62
2, 15318, Note_on_c, 0, 68, 80
2, 15319, Note_on_c, 0, 63, 75
2, 15349, Note_on_c, 0, 58, 0
2, 15350, Note_on_c, 0, 73, 0
2, 15350, Note_on_c, 0, 68, 0
2, 15358, Note_on_c, 0, 63, 0
2, 15362, Control_c, 0, 64, 0
2, 15368, Note_on_c, 0, 72, 59
2, 15368, Note_on_c, 0, 67, 55
2, 15369, Note_on_c, 0, 62, 49
2, 15370, Note_on_c, 0, 57, 57
2, 15408, Control_c, 0, 64, 127
2, 15438, Note_on_c, 0, 67, 0
2, 15439, Note_on_c, 0, 62, 0
2, 15460, Note_on_c, 0, 72, 0
2, 15481, Control_c, 0, 64, 0
2, 15482, Note_on_c, 0, 66, 55
2, 15483, Note_on_c, 0, 56, 49
2, 15483, Note_on_c, 0, 61, 42
2, 15485, Note_on_c, 0, 57, 0
2, 15485, Note_on_c, 0, 71, 29
2, 15519, Control_c, 0, 64, 127
2, 15538, Note_on_c, 0, 71, 0
2, 15568, Note_on_c, 0, 66, 0
2, 15578, Note_on_c, 0, 61, 0
2, 15596, Note_on_c, 0, 70, 53
2, 15599, Control_c, 0, 64, 0
2, 15601, Note_on_c, 0, 56, 0
2, 15602, Note_on_c, 0, 60, 40
2, 15604, Note_on_c, 0, 65, 56
2, 15605, Note_on_c, 0, 55, 50
2, 15633, Control_c, 0, 64, 127
2, 15676, Note_on_c, 0, 65, 0
2, 15684, Note_on_c, 0, 70, 0
2, 15685, Note_on_c, 0, 60, 0
2, 15709, Control_c, 0, 64, 0
2, 15719, Note_on_c, 0, 55, 0
2, 15719, Note_on_c, 0, 69, 42
2, 15721, Note_on_c, 0, 64, 36
2, 15722, Note_on_c, 0, 59, 28
2, 15722, Note_on_c, 0, 54, 34
2, 15733, Control_c, 0, 64, 127
2, 15765, Note_on_c, 0, 54, 0
2, 15786, Note_on_c, 0, 59, 0
2, 15792, Note_on_c, 0, 64, 0
2, 15812, Note_on_c, 0, 69, 0
2, 15837, Note_on_c, 0, 56, 32
2, 15838, Control_c, 0, 64, 0
2, 15840, Note_on_c, 0, 68, 45
2, 15842, Note_on_c, 0, 49, 33
2, 15846, Note_on_c, 0, 60, 20
2, 15875, Note_on_c, 0, 68, 0
2, 15909, Note_on_c, 0, 60, 0
2, 15923, Note_on_c, 0, 65, 68
2, 15952, Note_on_c, 0, 56, 0
2, 15957, Note_on_c, 0, 65, 0
2, 15976, Note_on_c, 0, 60, 37
2, 15989, Note_on_c, 0, 49, 0
2, 16030, Note_on_c, 0, 60, 0
2, 16044, Note_on_c, 0, 56, 47
2, 16075, Note_on_c, 0, 56, 0
2, 16094, Note_on_c, 0, 53, 55
2, 16153, Note_on_c, 0, 53, 0
2, 16171, Note_on_c, 0, 53, 59
2, 16187, Note_on_c, 0, 53, 0
2, 16275, Control_c, 0, 64, 127
2, 16309, Control_c, 0, 64, 0
2, 16485, Control_c, 0, 64, 127
2, 16546, Control_c, 0, 64, 0
2, 16557, Note_on_c, 0, 65, 54
2, 16558, Note_on_c, 0, 62, 33
2, 16561, Note_on_c, 0, 60, 32
2, 16564, Note_on_c, 0, 65, 0
2, 16566, Note_on_c, 0, 62, 0
2, 16568, Note_on_c, 0, 60, 0
2, 16640, Note_on_c, 0, 69, 55
2, 16656, Note_on_c, 0, 69, 0
2, 16679, Note_on_c, 0, 70, 67
2, 16715, Note_on_c, 0, 70, 0
2, 16752, Control_c, 0, 64, 127
2, 16758, Note_on_c, 0, 72, 99
2, 16762, Note_on_c, 0, 61, 53
2, 16763, Note_on_c, 0, 65, 65
2, 16766, Note_on_c, 0, 55, 44
2, 16770, Note_on_c, 0, 65, 0
2, 16773, Note_on_c, 0, 55, 0
2, 16778, Control_c, 0, 64, 0
2, 16782, Note_on_c, 0, 61, 0
2, 16793, Note_on_c, 0, 72, 0
2, 16808, Note_on_c, 0, 70, 56
2, 16833, Note_on_c, 0, 70, 0
2, 16837, Note_on_c, 0, 72, 44
2, 16858, Note_on_c, 0, 70, 45
2, 16863, Note_on_c, 0, 72, 0
2, 16885, Control_c, 0, 64, 127
2, 16888, Note_on_c, 0, 69, 53
2, 16889, Note_on_c, 0, 70, 0
2, 16903, Control_c, 0, 64, 0
2, 16909, Note_on_c, 0, 69, 0
2, 16925, Note_on_c, 0, 66, 39
2, 16989, Note_on_c, 0, 66, 0
2, 16997, Note_on_c, 0, 68, 59
2, 17009, Note_on_c, 0, 61, 27
2, 17016, Note_on_c, 0, 61, 0
2, 17040, Note_on_c, 0, 68, 0
2, 17045, Note_on_c, 0, 67, 53
2, 17128, Note_on_c, 0, 61, 31
2, 17161, Note_on_c, 0, 67, 0
2, 17233, Note_on_c, 0, 61, 0
2, 17239, Note_on_c, 0, 63, 72
2, 17352, Note_on_c, 0, 63, 0
2, 17356, Control_c, 0, 64, 127
2, 17363, Note_on_c, 0, 57, 27
2, 17390, Note_on_c, 0, 57, 0
2, 17394, Control_c, 0, 64, 0
2, 17402, Note_on_c, 0, 60, 62
2, 17483, Note_on_c, 0, 60, 0
2, 17491, Note_on_c, 0, 57, 36
2, 17507, Note_on_c, 0, 57, 0
2, 17527, Note_on_c, 0, 58, 49
2, 17581, Control_c, 0, 64, 127
2, 17588, Note_on_c, 0, 58, 0
2, 17597, Note_on_c, 0, 60, 58
2, 17617, Control_c, 0, 64, 0
2, 17632, Note_on_c, 0, 60, 0
2, 17646, Note_on_c, 0, 61, 46
2, 17677, Control_c, 0, 64, 127
2, 17713, Note_on_c, 0, 63, 50
2, 17716, Note_on_c, 0, 61, 0
2, 17716, Note_on_c, 0, 52, 55
2, 17717, Note_on_c, 0, 45, 49
2, 17721, Control_c, 0, 64, 0
2, 17724, Note_on_c, 0, 52, 0
2, 17725, Note_on_c, 0, 45, 0
2, 17762, Note_on_c, 0, 63, 0
2, 17773, Note_on_c, 0, 64, 52
2, 17801, Note_on_c, 0, 64, 0
2, 17810, Note_on_c, 0, 66, 53
2, 17833, Control_c, 0, 64, 127
2, 17848, Note_on_c, 0, 68, 51
2, 17851, Note_on_c, 0, 66, 0
2, 17864, Note_on_c, 0, 61, 33
2, 17864, Note_on_c, 0, 54, 35
2, 17865, Control_c, 0, 64, 0
2, 17866, Note_on_c, 0, 64, 38
2, 17866, Note_on_c, 0, 59, 40
2, 17867, Note_on_c, 0, 68, 0
2, 17884, Note_on_c, 0, 69, 53
2, 17905, Note_on_c, 0, 69, 0
2, 17920, Note_on_c, 0, 71, 47
2, 17957, Note_on_c, 0, 73, 33
2, 17961, Note_on_c, 0, 71, 0
2, 17979, Note_on_c, 0, 73, 0
2, 17992, Note_on_c, 0, 76, 56
2, 17996, Note_on_c, 0, 64, 0
2, 18013, Note_on_c, 0, 59, 0
2, 18016, Note_on_c, 0, 76, 0
2, 18020, Note_on_c, 0, 61, 0
2, 18024, Note_on_c, 0, 78, 51
2, 18049, Note_on_c, 0, 78, 0
2, 18062, Note_on_c, 0, 80, 49
2, 18077, Note_on_c, 0, 80, 0
2, 18096, Note_on_c, 0, 83, 55
2, 18104, Note_on_c, 0, 61, 32
2, 18108, Note_on_c, 0, 59, 36
2, 18123, Note_on_c, 0, 59, 0
2, 18123, Note_on_c, 0, 83, 0
2, 18129, Note_on_c, 0, 61, 0
2, 18135, Note_on_c, 0, 85, 40
2, 18136, Note_on_c, 0, 54, 0
2, 18162, Note_on_c, 0, 85, 0
2, 18172, Note_on_c, 0, 88, 60
2, 18195, Note_on_c, 0, 88, 0
2, 18275, Control_c, 0, 64, 127
2, 18320, Note_on_c, 0, 61, 46
2, 18323, Note_on_c, 0, 58, 38
2, 18323, Note_on_c, 0, 64, 47
2, 18331, Note_on_c, 0, 64, 0
2, 18338, Note_on_c, 0, 61, 0
2, 18341, Note_on_c, 0, 58, 0
2, 18341, Control_c, 0, 64, 0
2, 18442, Note_on_c, 0, 88, 82
2, 18443, Note_on_c, 0, 87, 60
2, 18458, Note_on_c, 0, 88, 0
2, 18460, Note_on_c, 0, 87, 0
2, 18480, Note_on_c, 0, 88, 71
2, 18502, Note_on_c, 0, 88, 0
2, 18540, Note_on_c, 0, 91, 95
2, 18541, Note_on_c, 0, 63, 52
2, 18541, Note_on_c, 0, 60, 55
2, 18543, Note_on_c, 0, 58, 44
2, 18547, Note_on_c, 0, 53, 35
2, 18564, Note_on_c, 0, 91, 0
2, 18594, Note_on_c, 0, 89, 79
2, 18619, Note_on_c, 0, 89, 0
2, 18631, Note_on_c, 0, 53, 0
2, 18634, Note_on_c, 0, 60, 0
2, 18637, Note_on_c, 0, 63, 0
2, 18640, Note_on_c, 0, 58, 0
2, 18642, Note_on_c, 0, 87, 61
2, 18667, Note_on_c, 0, 87, 0
2, 18696, Control_c, 0, 64, 127
2, 18696, Note_on_c, 0, 85, 80
2, 18703, Note_on_c, 0, 63, 46
2, 18703, Note_on_c, 0, 60, 51
2, 18706, Note_on_c, 0, 56, 38
2, 18711, Note_on_c, 0, 60, 0
2, 18714, Control_c, 0, 64, 0
2, 18718, Note_on_c, 0, 63, 0
2, 18734, Note_on_c, 0, 85, 0
2, 18750, Note_on_c, 0, 84, 45
2, 18759, Note_on_c, 0, 56, 0
2, 18782, Note_on_c, 0, 84, 0
2, 18810, Note_on_c, 0, 80, 59
2, 18839, Note_on_c, 0, 80, 0
2, 18860, Note_on_c, 0, 77, 32
2, 18912, Note_on_c, 0, 77, 0
2, 18926, Note_on_c, 0, 82, 77
2, 18928, Note_on_c, 0, 63, 39
2, 18929, Note_on_c, 0, 56, 34
2, 18930, Note_on_c, 0, 60, 39
2, 18934, Note_on_c, 0, 63, 0
2, 18940, Note_on_c, 0, 60, 0
2, 18953, Note_on_c, 0, 82, 0
2, 18965, Note_on_c, 0, 56, 0
2, 18974, Note_on_c, 0, 80, 49
2, 18992, Note_on_c, 0, 80, 0
2, 19040, Note_on_c, 0, 77, 64
2, 19042, Note_on_c, 0, 63, 40
2, 19044, Note_on_c, 0, 56, 33
2, 19046, Note_on_c, 0, 60, 43
2, 19049, Note_on_c, 0, 63, 0
2, 19054, Note_on_c, 0, 60, 0
2, 19063, Note_on_c, 0, 77, 0
2, 19087, Note_on_c, 0, 73, 28
2, 19099, Note_on_c, 0, 56, 0
2, 19138, Note_on_c, 0, 73, 0
2, 19161, Note_on_c, 0, 78, 74
2, 19165, Note_on_c, 0, 63, 45
2, 19168, Note_on_c, 0, 60, 45
2, 19170, Note_on_c, 0, 56, 28
2, 19171, Note_on_c, 0, 63, 0
2, 19175, Note_on_c, 0, 60, 0
2, 19195, Note_on_c, 0, 78, 0
2, 19205, Note_on_c, 0, 56, 0
2, 19210, Note_on_c, 0, 77, 40
2, 19236, Note_on_c, 0, 77, 0
2, 19282, Note_on_c, 0, 63, 44
2, 19285, Note_on_c, 0, 60, 45
2, 19286, Note_on_c, 0, 73, 34
2, 19286, Note_on_c, 0, 56, 26
2, 19294, Note_on_c, 0, 63, 0
2, 19300, Note_on_c, 0, 60, 0
2, 19315, Note_on_c, 0, 73, 0
2, 19332, Note_on_c, 0, 68, 35
2, 19344, Note_on_c, 0, 56, 0
2, 19375, Note_on_c, 0, 68, 0
2, 19400, Note_on_c, 0, 73, 56
2, 19401, Note_on_c, 0, 63, 54
2, 19404, Note_on_c, 0, 60, 50
2, 19404, Note_on_c, 0, 56, 34
2, 19410, Note_on_c, 0, 63, 0
2, 19411, Note_on_c, 0, 60, 0
2, 19441, Note_on_c, 0, 56, 0
2, 19449, Note_on_c, 0, 73, 0
2, 19452, Note_on_c, 0, 72, 42
2, 19476, Note_on_c, 0, 72, 0
2, 19517, Note_on_c, 0, 68, 64
2, 19518, Note_on_c, 0, 60, 59
2, 19520, Note_on_c, 0, 63, 44
2, 19522, Note_on_c, 0, 56, 28
2, 19527, Note_on_c, 0, 63, 0
2, 19536, Note_on_c, 0, 60, 0
2, 19545, Note_on_c, 0, 68, 0
2, 19565, Note_on_c, 0, 56, 0
2, 19571, Note_on_c, 0, 65, 30
2, 19589, Note_on_c, 0, 65, 0
2, 19604, Note_on_c, 0, 61, 64
2, 19632, Note_on_c, 0, 61, 0
2, 19645, Note_on_c, 0, 60, 49
2, 19654, Control_c, 0, 64, 127
2, 19661, Note_on_c, 0, 53, 29
2, 19662, Control_c, 0, 64, 0
2, 19667, Note_on_c, 0, 43, 22
2, 19668, Note_on_c, 0, 53, 0
2, 19675, Note_on_c, 0, 43, 0
2, 19676, Note_on_c, 0, 60, 0
2, 19689, Note_on_c, 0, 58, 51
2, 19757, Note_on_c, 0, 53, 60
2, 19812, Note_on_c, 0, 58, 0
2, 19895, Note_on_c, 0, 43, 27
2, 19901, Control_c, 0, 64, 127
2, 19903, Note_on_c, 0, 43, 0
2, 19910, Note_on_c, 0, 53, 0
2, 19917, Control_c, 0, 64, 0
2, 19940, Note_on_c, 0, 48, 40
2, 19952, Note_on_c, 0, 48, 0
2, 19963, Note_on_c, 0, 49, 37
2, 19986, Note_on_c, 0, 49, 0
2, 19992, Note_on_c, 0, 51, 27
2, 19999, Note_on_c, 0, 51, 0
2, 20004, Note_on_c, 0, 52, 40
2, 20020, Note_on_c, 0, 52, 0
2, 20031, Note_on_c, 0, 54, 44
2, 20041, Note_on_c, 0, 54, 0
2, 20055, Note_on_c, 0, 55, 64
2, 20070, Note_on_c, 0, 55, 0
2, 20079, Note_on_c, 0, 56, 49
2, 20097, Note_on_c, 0, 56, 0
2, 20109, Note_on_c, 0, 58, 62
2, 20129, Note_on_c, 0, 58, 0
2, 20132, Note_on_c, 0, 55, 74
2, 20139, Note_on_c, 0, 55, 0
2, 20150, Note_on_c, 0, 41, 40
2, 20159, Note_on_c, 0, 41, 0
2, 20201, Note_on_c, 0, 60, 35
2, 20216, Note_on_c, 0, 60, 0
2, 20220, Note_on_c, 0, 63, 36
2, 20237, Note_on_c, 0, 63, 0
2, 20238, Note_on_c, 0, 64, 54
2, 20260, Note_on_c, 0, 64, 0
2, 20262, Note_on_c, 0, 67, 75
2, 20285, Note_on_c, 0, 67, 0
2, 20287, Note_on_c, 0, 56, 26
2, 20289, Note_on_c, 0, 53, 27
2, 20291, Note_on_c, 0, 60, 26
2, 20294, Note_on_c, 0, 64, 53
2, 20314, Note_on_c, 0, 60, 0
2, 20331, Note_on_c, 0, 64, 0
2, 20342, Note_on_c, 0, 65, 80
2, 20347, Note_on_c, 0, 53, 0
2, 20356, Note_on_c, 0, 56, 0
2, 20360, Note_on_c, 0, 65, 0
2, 20374, Note_on_c, 0, 67, 79
2, 20392, Note_on_c, 0, 67, 0
2, 20410, Note_on_c, 0, 68, 71
2, 20425, Note_on_c, 0, 68, 0
2, 20443, Note_on_c, 0, 72, 76
2, 20458, Note_on_c, 0, 72, 0
2, 20477, Control_c, 0, 64, 127
2, 20479, Note_on_c, 0, 75, 71
2, 20483, Note_on_c, 0, 74, 78
2, 20485, Note_on_c, 0, 73, 29
2, 20493, Control_c, 0, 64, 0
2, 20495, Note_on_c, 0, 75, 0
2, 20497, Note_on_c, 0, 73, 0
2, 20498, Note_on_c, 0, 74, 0
2, 20515, Note_on_c, 0, 63, 38
2, 20516, Note_on_c, 0, 60, 44
2, 20517, Note_on_c, 0, 76, 72
2, 20519, Note_on_c, 0, 56, 33
2, 20547, Note_on_c, 0, 76, 0
2, 20553, Note_on_c, 0, 60, 0
2, 20556, Note_on_c, 0, 56, 0
2, 20558, Note_on_c, 0, 79, 80
2, 20559, Control_c, 0, 64, 127
2, 20565, Note_on_c, 0, 63, 0
2, 20577, Note_on_c, 0, 79, 0
2, 20597, Note_on_c, 0, 81, 96
2, 20599, Note_on_c, 0, 63, 50
2, 20599, Control_c, 0, 64, 0
2, 20599, Note_on_c, 0, 60, 47
2, 20605, Note_on_c, 0, 57, 42
2, 20606, Note_on_c, 0, 55, 37
2, 20627, Note_on_c, 0, 81, 0
2, 20650, Note_on_c, 0, 63, 0
2, 20653, Note_on_c, 0, 57, 0
2, 20662, Note_on_c, 0, 55, 0
2, 20672, Note_on_c, 0, 60, 0
2, 20681, Note_on_c, 0, 72, 37
2, 20703, Note_on_c, 0, 72, 0
2, 20723, Note_on_c, 0, 74, 92
2, 20752, Note_on_c, 0, 74, 0
2, 20760, Note_on_c, 0, 63, 46
2, 20761, Note_on_c, 0, 55, 39
2, 20764, Note_on_c, 0, 75, 87
2, 20783, Note_on_c, 0, 55, 0
2, 20786, Note_on_c, 0, 63, 0
2, 20794, Note_on_c, 0, 75, 0
2, 20809, Note_on_c, 0, 77, 81
2, 20847, Note_on_c, 0, 65, 55
2, 20847, Note_on_c, 0, 75, 75
2, 20849, Note_on_c, 0, 60, 47
2, 20852, Note_on_c, 0, 58, 38
2, 20853, Note_on_c, 0, 77, 0
2, 20853, Note_on_c, 0, 54, 31
2, 20867, Note_on_c, 0, 65, 0
2, 20872, Note_on_c, 0, 75, 0
2, 20878, Note_on_c, 0, 65, 13
2, 20891, Note_on_c, 0, 74, 51
2, 20902, Note_on_c, 0, 65, 0
2, 20918, Note_on_c, 0, 74, 0
2, 20927, Note_on_c, 0, 60, 0
2, 20928, Note_on_c, 0, 72, 62
2, 20945, Note_on_c, 0, 72, 0
2, 20948, Control_c, 0, 64, 127
2, 20964, Note_on_c, 0, 70, 59
2, 20968, Note_on_c, 0, 60, 32
2, 20978, Control_c, 0, 64, 0
2, 20991, Note_on_c, 0, 70, 0
2, 21009, Note_on_c, 0, 69, 51
2, 21013, Note_on_c, 0, 60, 0
2, 21035, Note_on_c, 0, 69, 0
2, 21043, Note_on_c, 0, 72, 75
2, 21058, Note_on_c, 0, 58, 0
2, 21062, Note_on_c, 0, 54, 0
2, 21071, Note_on_c, 0, 72, 0
2, 21083, Note_on_c, 0, 62, 47
2, 21084, Note_on_c, 0, 70, 59
2, 21086, Note_on_c, 0, 58, 25
2, 21086, Note_on_c, 0, 57, 35
2, 21093, Note_on_c, 0, 55, 32
2, 21100, Note_on_c, 0, 57, 0
2, 21103, Note_on_c, 0, 62, 0
2, 21104, Note_on_c, 0, 55, 0
2, 21109, Note_on_c, 0, 58, 0
2, 21116, Note_on_c, 0, 70, 0
2, 21126, Note_on_c, 0, 66, 37
2, 21150, Note_on_c, 0, 66, 0
2, 21162, Note_on_c, 0, 69, 68
2, 21189, Note_on_c, 0, 69, 0
2, 21198, Note_on_c, 0, 67, 68
2, 21202, Note_on_c, 0, 62, 37
2, 21209, Note_on_c, 0, 62, 0
2, 21222, Note_on_c, 0, 67, 0
2, 21239, Note_on_c, 0, 62, 31
2, 21295, Control_c, 0, 64, 127
2, 21298, Note_on_c, 0, 62, 0
2, 21314, Note_on_c, 0, 62, 62
2, 21330, Note_on_c, 0, 62, 0
2, 21351, Control_c, 0, 64, 0
2, 21599, Note_on_c, 0, 61, 39
2, 21601, Note_on_c, 0, 58, 40
2, 21601, Note_on_c, 0, 53, 35
2, 21603, Note_on_c, 0, 55, 47
2, 21612, Note_on_c, 0, 53, 0
2, 21613, Note_on_c, 0, 55, 0
2, 21614, Note_on_c, 0, 61, 0
2, 21618, Note_on_c, 0, 58, 0
2, 21726, Note_on_c, 0, 85, 99
2, 21740, Note_on_c, 0, 85, 0
2, 21748, Note_on_c, 0, 84, 20
2, 21762, Note_on_c, 0, 84, 0
2, 21806, Note_on_c, 0, 87, 84
2, 21808, Note_on_c, 0, 61, 52
2, 21808, Note_on_c, 0, 55, 62
2, 21809, Note_on_c, 0, 53, 38
2, 21810, Note_on_c, 0, 58, 48
2, 21814, Note_on_c, 0, 61, 0
2, 21815, Note_on_c, 0, 55, 0
2, 21816, Note_on_c, 0, 53, 0
2, 21827, Note_on_c, 0, 87, 0
2, 21828, Note_on_c, 0, 58, 0
2, 21863, Note_on_c, 0, 85, 53
2, 21879, Note_on_c, 0, 85, 0
2, 21927, Note_on_c, 0, 87, 85
2, 21945, Note_on_c, 0, 87, 0
2, 21977, Note_on_c, 0, 85, 57
2, 21993, Note_on_c, 0, 85, 0
2, 22045, Note_on_c, 0, 63, 69
2, 22045, Note_on_c, 0, 87, 69
2, 22046, Note_on_c, 0, 58, 59
2, 22058, Note_on_c, 0, 63, 0
2, 22066, Note_on_c, 0, 87, 0
2, 22070, Note_on_c, 0, 58, 0
2, 22104, Note_on_c, 0, 87, 53
2, 22124, Note_on_c, 0, 87, 0
2, 22128, Note_on_c, 0, 88, 44
2, 22141, Note_on_c, 0, 87, 49
2, 22149, Note_on_c, 0, 88, 0
2, 22169, Note_on_c, 0, 85, 46
2, 22172, Note_on_c, 0, 87, 0
2, 22193, Note_on_c, 0, 85, 0
2, 22196, Note_on_c, 0, 84, 38
2, 22212, Note_on_c, 0, 84, 0
2, 22224, Note_on_c, 0, 87, 77
2, 22280, Note_on_c, 0, 87, 0
2, 22292, Note_on_c, 0, 85, 83
2, 22293, Note_on_c, 0, 63, 34
2, 22294, Note_on_c, 0, 58, 47
2, 22299, Note_on_c, 0, 52, 42
2, 22323, Note_on_c, 0, 85, 0
2, 22345, Note_on_c, 0, 84, 56
2, 22376, Note_on_c, 0, 84, 0
2, 22401, Note_on_c, 0, 82, 71
2, 22432, Note_on_c, 0, 82, 0
2, 22452, Note_on_c, 0, 79, 34
2, 22495, Note_on_c, 0, 52, 0
2, 22499, Note_on_c, 0, 79, 0
2, 22506, Note_on_c, 0, 58, 0
2, 22507, Note_on_c, 0, 63, 0
2, 22519, Control_c, 0, 64, 127
2, 22519, Note_on_c, 0, 80, 46
2, 22547, Control_c, 0, 64, 0
2, 22549, Note_on_c, 0, 80, 0
2, 22562, Note_on_c, 0, 81, 53
2, 22618, Note_on_c, 0, 81, 0
2, 22634, Note_on_c, 0, 84, 76
2, 22636, Note_on_c, 0, 64, 51
2, 22639, Note_on_c, 0, 60, 41
2, 22642, Note_on_c, 0, 57, 36
2, 22643, Note_on_c, 0, 64, 0
2, 22647, Note_on_c, 0, 60, 0
2, 22652, Note_on_c, 0, 57, 0
2, 22665, Note_on_c, 0, 84, 0
2, 22682, Note_on_c, 0, 81, 57
2, 22735, Control_c, 0, 64, 127
2, 22747, Note_on_c, 0, 81, 0
2, 22757, Note_on_c, 0, 76, 55
2, 22774, Note_on_c, 0, 76, 0
2, 22789, Control_c, 0, 64, 0
2, 22805, Note_on_c, 0, 80, 37
2, 22807, Note_on_c, 0, 75, 34
2, 22864, Note_on_c, 0, 75, 0
2, 22871, Note_on_c, 0, 80, 0
2, 22876, Note_on_c, 0, 83, 68
2, 22877, Note_on_c, 0, 75, 34
2, 22877, Note_on_c, 0, 56, 47
2, 22879, Note_on_c, 0, 59, 38
2, 22889, Note_on_c, 0, 59, 0
2, 22891, Note_on_c, 0, 75, 0
2, 22902, Note_on_c, 0, 56, 0
2, 22909, Note_on_c, 0, 83, 0
2, 22925, Note_on_c, 0, 75, 44
2, 22930, Note_on_c, 0, 80, 21
2, 22939, Note_on_c, 0, 75, 0
2, 22944, Control_c, 0, 64, 127
2, 22988, Note_on_c, 0, 80, 0
2, 23038, Control_c, 0, 64, 0
2, 23043, Note_on_c, 0, 82, 77
2, 23044, Note_on_c, 0, 61, 55
2, 23044, Note_on_c, 0, 65, 80
2, 23045, Note_on_c, 0, 60, 71
2, 23045, Note_on_c, 0, 77, 80
2, 23046, Note_on_c, 0, 55, 72
2, 23047, Note_on_c, 0, 72, 78
2, 23051, Note_on_c, 0, 58, 38
2, 23101, Control_c, 0, 64, 127
2, 23104, Note_on_c, 0, 55, 0
2, 23107, Note_on_c, 0, 65, 0
2, 23108, Note_on_c, 0, 72, 0
2, 23109, Note_on_c, 0, 82, 0
2, 23112, Note_on_c, 0, 58, 0
2, 23113, Note_on_c, 0, 61, 0
2, 23114, Note_on_c, 0, 77, 0
2, 23122, Note_on_c, 0, 82, 59
2, 23123, Note_on_c, 0, 55, 65
2, 23123, Note_on_c, 0, 61, 43
2, 23124, Note_on_c, 0, 65, 75
2, 23126, Note_on_c, 0, 72, 54
2, 23127, Note_on_c, 0, 77, 66
2, 23142, Note_on_c, 0, 65, 0
2, 23148, Note_on_c, 0, 55, 0
2, 23151, Note_on_c, 0, 72, 0
2, 23152, Note_on_c, 0, 82, 0
2, 23159, Note_on_c, 0, 77, 0
2, 23165, Note_on_c, 0, 55, 36
2, 23167, Note_on_c, 0, 82, 48
2, 23168, Note_on_c, 0, 65, 49
2, 23172, Note_on_c, 0, 72, 46
2, 23172, Note_on_c, 0, 77, 38
2, 23190, Note_on_c, 0, 65, 0
2, 23198, Note_on_c, 0, 55, 0
2, 23198, Note_on_c, 0, 60, 0
2, 23207, Note_on_c, 0, 77, 0
2, 23209, Note_on_c, 0, 72, 0
2, 23215, Note_on_c, 0, 61, 0
2, 23217, Note_on_c, 0, 82, 0
2, 23246, Note_on_c, 0, 64, 76
2, 23248, Note_on_c, 0, 59, 61
2, 23249, Note_on_c, 0, 76, 60
2, 23249, Note_on_c, 0, 54, 60
2, 23249, Note_on_c, 0, 71, 70
2, 23249, Note_on_c, 0, 81, 70
2, 23250, Control_c, 0, 64, 0
2, 23251, Note_on_c, 0, 58, 39
2, 23312, Control_c, 0, 64, 127
2, 23340, Note_on_c, 0, 71, 0
2, 23340, Note_on_c, 0, 64, 0
2, 23341, Note_on_c, 0, 81, 0
2, 23342, Note_on_c, 0, 54, 0
2, 23348, Note_on_c, 0, 59, 0
2, 23348, Note_on_c, 0, 76, 0
2, 23348, Note_on_c, 0, 58, 0
2, 23363, Note_on_c, 0, 64, 68
2, 23363, Note_on_c, 0, 76, 69
2, 23364, Note_on_c, 0, 59, 66
2, 23364, Note_on_c, 0, 81, 63
2, 23364, Note_on_c, 0, 54, 69
2, 23366, Note_on_c, 0, 71, 63
2, 23368, Note_on_c, 0, 58, 32
2, 23380, Note_on_c, 0, 58, 0
2, 23391, Note_on_c, 0, 64, 0
2, 23393, Note_on_c, 0, 81, 0
2, 23393, Note_on_c, 0, 71, 0
2, 23398, Note_on_c, 0, 76, 0
2, 23402, Note_on_c, 0, 64, 19
2, 23413, Note_on_c, 0, 81, 41
2, 23416, Note_on_c, 0, 76, 37
2, 23419, Note_on_c, 0, 71, 40
2, 23431, Note_on_c, 0, 59, 0
2, 23434, Note_on_c, 0, 81, 0
2, 23438, Note_on_c, 0, 64, 0
2, 23441, Note_on_c, 0, 71, 0
2, 23448, Note_on_c, 0, 76, 0
2, 23463, Note_on_c, 0, 54, 0
2, 23487, Note_on_c, 0, 63, 69
2, 23487, Note_on_c, 0, 80, 59
2, 23488, Note_on_c, 0, 53, 70
2, 23488, Note_on_c, 0, 75, 74
2, 23489, Control_c, 0, 64, 0
2, 23490, Note_on_c, 0, 58, 64
2, 23490, Note_on_c, 0, 70, 71
2, 23509, Note_on_c, 0, 70, 0
2, 23515, Note_on_c, 0, 80, 0
2, 23515, Note_on_c, 0, 53, 0
2, 23516, Note_on_c, 0, 75, 0
2, 23520, Note_on_c, 0, 63, 0
2, 23525, Control_c, 0, 64, 127
2, 23531, Note_on_c, 0, 58, 0
2, 23543, Note_on_c, 0, 63, 44
2, 23544, Note_on_c, 0, 84, 68
2, 23544, Note_on_c, 0, 72, 65
2, 23545, Note_on_c, 0, 53, 48
2, 23545, Note_on_c, 0, 58, 35
2, 23589, Note_on_c, 0, 72, 0
2, 23594, Note_on_c, 0, 84, 0
2, 23602, Note_on_c, 0, 53, 0
2, 23608, Note_on_c, 0, 58, 0
2, 23608, Note_on_c, 0, 63, 0
2, 23637, Control_c, 0, 64, 0
2, 23646, Note_on_c, 0, 63, 51
2, 23647, Note_on_c, 0, 89, 64
2, 23649, Note_on_c, 0, 77, 47
2, 23649, Note_on_c, 0, 53, 51
2, 23650, Note_on_c, 0, 58, 55
2, 23666, Note_on_c, 0, 53, 0
2, 23668, Note_on_c, 0, 63, 0
2, 23685, Note_on_c, 0, 89, 0
2, 23685, Note_on_c, 0, 77, 0
2, 23689, Note_on_c, 0, 58, 0
2, 23768, Note_on_c, 0, 63, 40
2, 23768, Note_on_c, 0, 58, 45
2, 23769, Note_on_c, 0, 92, 50
2, 23770, Note_on_c, 0, 80, 37
2, 23771, Note_on_c, 0, 53, 37
2, 23778, Note_on_c, 0, 87, 35
2, 23783, Note_on_c, 0, 53, 0
2, 23787, Note_on_c, 0, 87, 0
2, 23789, Note_on_c, 0, 63, 0
2, 23791, Note_on_c, 0, 80, 0
2, 23796, Note_on_c, 0, 92, 0
2, 23797, Note_on_c, 0, 58, 0
2, 23887, Note_on_c, 0, 63, 48
2, 23888, Note_on_c, 0, 58, 48
2, 23889, Note_on_c, 0, 96, 59
2, 23891, Note_on_c, 0, 91, 39
2, 23892, Note_on_c, 0, 53, 32
2, 23893, Note_on_c, 0, 84, 24
2, 23903, Note_on_c, 0, 53, 0
2, 23908, Note_on_c, 0, 84, 0
2, 23912, Note_on_c, 0, 91, 0
2, 23913, Note_on_c, 0, 63, 0
2, 23914, Note_on_c, 0, 96, 0
2, 23916, Note_on_c, 0, 58, 0
2, 23954, Control_c, 0, 64, 127
2, 23992, Control_c, 0, 64, 0
2, 24006, Note_on_c, 0, 62, 34
2, 24008, Note_on_c, 0, 65, 58
2, 24009, Note_on_c, 0, 98, 60
2, 24010, Note_on_c, 0, 91, 55
2, 24010, Note_on_c, 0, 86, 46
2, 24012, Note_on_c, 0, 60, 36
2, 24014, Note_on_c, 0, 55, 37
2, 24034, Control_c, 0, 64, 127
2, 24040, Note_on_c, 0, 86, 0
2, 24043, Note_on_c, 0, 91, 0
2, 24047, Note_on_c, 0, 55, 0
2, 24051, Note_on_c, 0, 98, 0
2, 24054, Note_on_c, 0, 60, 0
2, 24055, Note_on_c, 0, 62, 0
2, 24064, Note_on_c, 0, 65, 0
2, 24120, Control_c, 0, 64, 0
2, 24129, Note_on_c, 0, 62, 62
2, 24131, Note_on_c, 0, 67, 79
2, 24131, Note_on_c, 0, 56, 71
2, 24132, Note_on_c, 0, 96, 87
2, 24133, Note_on_c, 0, 89, 78
2, 24133, Note_on_c, 0, 101, 82
2, 24157, Control_c, 0, 64, 127
2, 24164, Note_on_c, 0, 101, 0
2, 24166, Note_on_c, 0, 96, 0
2, 24179, Note_on_c, 0, 89, 0
2, 24183, Note_on_c, 0, 67, 0
2, 24191, Note_on_c, 0, 56, 0
2, 24201, Note_on_c, 0, 62, 0
2, 24217, Note_on_c, 0, 94, 59
2, 24218, Note_on_c, 0, 86, 56
2, 24218, Note_on_c, 0, 98, 64
2, 24218, Note_on_c, 0, 62, 64
2, 24219, Note_on_c, 0, 66, 67
2, 24219, Control_c, 0, 64, 0
2, 24222, Note_on_c, 0, 56, 39
2, 24224, Note_on_c, 0, 60, 54
2, 24226, Note_on_c, 0, 92, 28
2, 24232, Note_on_c, 0, 92, 0
2, 24263, Control_c, 0, 64, 127
2, 24285, Note_on_c, 0, 60, 0
2, 24308, Note_on_c, 0, 62, 0
2, 24314, Note_on_c, 0, 66, 0
2, 24316, Note_on_c, 0, 56, 0
2, 24339, Note_on_c, 0, 98, 0
2, 24353, Note_on_c, 0, 94, 0
2, 24358, Note_on_c, 0, 86, 0
2, 24370, Control_c, 0, 64, 0
2, 24371, Note_on_c, 0, 62, 44
2, 24372, Note_on_c, 0, 66, 45
2, 24374, Note_on_c, 0, 56, 36
2, 24383, Note_on_c, 0, 60, 24
2, 24390, Control_c, 0, 64, 127
2, 24414, Note_on_c, 0, 62, 0
2, 24417, Note_on_c, 0, 60, 0
2, 24430, Note_on_c, 0, 66, 0
2, 24436, Note_on_c, 0, 56, 0
2, 24446, Note_on_c, 0, 65, 64
2, 24449, Note_on_c, 0, 61, 44
2, 24453, Note_on_c, 0, 55, 55
2, 24454, Note_on_c, 0, 60, 30
2, 24456, Control_c, 0, 64, 0
2, 24457, Note_on_c, 0, 58, 30
2, 24565, Note_on_c, 0, 84, 95
2, 24570, Control_c, 0, 64, 127
2, 24584, Control_c, 0, 64, 0
2, 24601, Note_on_c, 0, 65, 0
2, 24605, Note_on_c, 0, 84, 0
2, 24605, Note_on_c, 0, 82, 59
2, 24613, Note_on_c, 0, 60, 0
2, 24623, Note_on_c, 0, 55, 0
2, 24626, Note_on_c, 0, 61, 0
2, 24638, Note_on_c, 0, 82, 0
2, 24639, Note_on_c, 0, 58, 0
2, 24640, Note_on_c, 0, 77, 43
2, 24663, Note_on_c, 0, 77, 0
2, 24671, Note_on_c, 0, 73, 36
2, 24684, Note_on_c, 0, 65, 35
2, 24687, Note_on_c, 0, 61, 25
2, 24700, Note_on_c, 0, 65, 0
2, 24703, Note_on_c, 0, 73, 0
2, 24713, Note_on_c, 0, 72, 32
2, 24724, Note_on_c, 0, 72, 0
2, 24744, Note_on_c, 0, 75, 79
2, 24760, Note_on_c, 0, 61, 0
2, 24797, Note_on_c, 0, 75, 0
2, 24821, Note_on_c, 0, 61, 27
2, 24829, Note_on_c, 0, 61, 0
2, 24837, Note_on_c, 0, 73, 68
2, 24866, Note_on_c, 0, 73, 0
2, 24874, Note_on_c, 0, 75, 50
2, 24891, Note_on_c, 0, 73, 35
2, 24906, Note_on_c, 0, 75, 0
2, 24916, Note_on_c, 0, 72, 60
2, 24923, Note_on_c, 0, 61, 28
2, 24925, Note_on_c, 0, 73, 0
2, 24937, Note_on_c, 0, 72, 0
2, 24941, Note_on_c, 0, 61, 0
2, 24956, Note_on_c, 0, 70, 56
2, 24980, Note_on_c, 0, 70, 0
2, 24998, Note_on_c, 0, 69, 57
2, 25018, Note_on_c, 0, 69, 0
2, 25029, Note_on_c, 0, 72, 76
2, 25058, Note_on_c, 0, 72, 0
2, 25065, Note_on_c, 0, 69, 52
2, 25079, Note_on_c, 0, 69, 0
2, 25097, Note_on_c, 0, 70, 62
2, 25125, Note_on_c, 0, 70, 0
2, 25139, Note_on_c, 0, 66, 46
2, 25165, Note_on_c, 0, 66, 0
2, 25280, Note_on_c, 0, 61, 46
2, 25280, Note_on_c, 0, 65, 55
2, 25282, Note_on_c, 0, 60, 43
2, 25287, Note_on_c, 0, 65, 0
2, 25293, Note_on_c, 0, 60, 0
2, 25298, Note_on_c, 0, 61, 0
2, 25323, Note_on_c, 0, 67, 80
2, 25351, Note_on_c, 0, 67, 0
2, 25361, Note_on_c, 0, 66, 36
2, 25376, Note_on_c, 0, 66, 0
2, 25393, Note_on_c, 0, 67, 51
2, 25401, Control_c, 0, 64, 127
2, 25431, Control_c, 0, 64, 0
2, 25434, Note_on_c, 0, 64, 47
2, 25435, Note_on_c, 0, 67, 0
2, 25436, Note_on_c, 0, 61, 29
2, 25438, Note_on_c, 0, 68, 65
2, 25440, Note_on_c, 0, 54, 34
2, 25441, Note_on_c, 0, 59, 53
2, 25519, Control_c, 0, 64, 127
2, 25553, Note_on_c, 0, 64, 0
2, 25599, Note_on_c, 0, 61, 0
2, 25600, Note_on_c, 0, 59, 0
2, 25600, Note_on_c, 0, 64, 55
2, 25602, Note_on_c, 0, 68, 0
2, 25612, Note_on_c, 0, 64, 0
2, 25628, Note_on_c, 0, 66, 50
2, 25636, Note_on_c, 0, 61, 33
2, 25657, Note_on_c, 0, 66, 0
2, 25661, Note_on_c, 0, 54, 0
2, 25661, Control_c, 0, 64, 0
2, 25664, Note_on_c, 0, 68, 51
2, 25677, Note_on_c, 0, 68, 0
2, 25693, Note_on_c, 0, 71, 44
2, 25700, Note_on_c, 0, 61, 0
2, 25710, Note_on_c, 0, 71, 0
2, 25723, Note_on_c, 0, 73, 35
2, 25739, Note_on_c, 0, 73, 0
2, 25755, Note_on_c, 0, 76, 44
2, 25774, Note_on_c, 0, 76, 0
2, 25778, Note_on_c, 0, 78, 60
2, 25789, Note_on_c, 0, 61, 30
2, 25789, Note_on_c, 0, 64, 33
2, 25792, Note_on_c, 0, 59, 38
2, 25796, Note_on_c, 0, 54, 32
2, 25801, Note_on_c, 0, 78, 0
2, 25809, Note_on_c, 0, 80, 59
2, 25836, Note_on_c, 0, 80, 0
2, 25840, Note_on_c, 0, 83, 75
2, 25864, Note_on_c, 0, 83, 0
2, 25871, Note_on_c, 0, 64, 0
2, 25874, Note_on_c, 0, 59, 0
2, 25882, Note_on_c, 0, 54, 0
2, 25883, Note_on_c, 0, 61, 0
2, 25942, Control_c, 0, 64, 127
2, 25993, Note_on_c, 0, 61, 44
2, 25994, Note_on_c, 0, 64, 57
2, 25996, Note_on_c, 0, 58, 47
2, 26001, Note_on_c, 0, 55, 31
2, 26007, Note_on_c, 0, 64, 0
2, 26011, Note_on_c, 0, 55, 0
2, 26018, Control_c, 0, 64, 0
2, 26021, Note_on_c, 0, 55, 24
2, 26035, Note_on_c, 0, 67, 36
2, 26043, Note_on_c, 0, 67, 0
2, 26057, Note_on_c, 0, 69, 58
2, 26063, Note_on_c, 0, 61, 0
2, 26066, Note_on_c, 0, 58, 0
2, 26071, Note_on_c, 0, 55, 0
2, 26074, Note_on_c, 0, 69, 0
2, 26080, Note_on_c, 0, 70, 63
2, 26089, Note_on_c, 0, 70, 0
2, 26100, Note_on_c, 0, 72, 57
2, 26112, Note_on_c, 0, 72, 0
2, 26121, Note_on_c, 0, 73, 32
2, 26139, Note_on_c, 0, 73, 0
2, 26144, Note_on_c, 0, 75, 46
2, 26153, Note_on_c, 0, 75, 0
2, 26173, Note_on_c, 0, 76, 24
2, 26182, Note_on_c, 0, 76, 0
2, 26218, Note_on_c, 0, 78, 68
2, 26235, Note_on_c, 0, 78, 0
2, 26253, Note_on_c, 0, 79, 68
2, 26273, Note_on_c, 0, 79, 0
2, 26291, Note_on_c, 0, 80, 71
2, 26309, Note_on_c, 0, 80, 0
2, 26327, Note_on_c, 0, 81, 65
2, 26343, Note_on_c, 0, 81, 0
2, 26351, Control_c, 0, 64, 127
2, 26364, Note_on_c, 0, 82, 69
2, 26385, Note_on_c, 0, 82, 0
2, 26399, Control_c, 0, 64, 0
2, 26406, Note_on_c, 0, 83, 49
2, 26426, Note_on_c, 0, 83, 0
2, 26441, Control_c, 0, 64, 127
2, 26485, Note_on_c, 0, 91, 77
2, 26487, Note_on_c, 0, 79, 60
2, 26509, Note_on_c, 0, 91, 0
2, 26512, Control_c, 0, 64, 0
2, 26520, Note_on_c, 0, 79, 0
2, 26537, Note_on_c, 0, 87, 43
2, 26556, Control_c, 0, 64, 127
2, 26567, Note_on_c, 0, 87, 0
2, 26603, Note_on_c, 0, 91, 68
2, 26603, Note_on_c, 0, 79, 47
2, 26620, Note_on_c, 0, 79, 0
2, 26623, Note_on_c, 0, 91, 0
2, 26626, Control_c, 0, 64, 0
2, 26647, Note_on_c, 0, 87, 64
2, 26654, Note_on_c, 0, 87, 0
2, 26654, Note_on_c, 0, 59, 35
2, 26663, Note_on_c, 0, 59, 0
2, 26690, Control_c, 0, 64, 127
2, 26756, Control_c, 0, 64, 0
2, 26763, Note_on_c, 0, 70, 53
2, 26764, Note_on_c, 0, 59, 52
2, 26766, Note_on_c, 0, 63, 40
2, 26766, Note_on_c, 0, 67, 40
2, 26767, Note_on_c, 0, 58, 49
2, 26768, Note_on_c, 0, 53, 36
2, 26783, Note_on_c, 0, 58, 0
2, 26784, Note_on_c, 0, 59, 0
2, 26785, Note_on_c, 0, 53, 0
2, 26787, Note_on_c, 0, 63, 0
2, 26790, Note_on_c, 0, 70, 0
2, 26793, Note_on_c, 0, 67, 0
2, 26842, Note_on_c, 0, 70, 52
2, 26845, Note_on_c, 0, 58, 42
2, 26846, Note_on_c, 0, 63, 42
2, 26846, Note_on_c, 0, 53, 46
2, 26847, Note_on_c, 0, 59, 38
2, 26848, Note_on_c, 0, 67, 41
2, 26859, Note_on_c, 0, 59, 0
2, 26865, Note_on_c, 0, 53, 0
2, 26865, Note_on_c, 0, 63, 0
2, 26865, Note_on_c, 0, 58, 0
2, 26870, Note_on_c, 0, 70, 0
2, 26870, Note_on_c, 0, 67, 0
2, 26897, Note_on_c, 0, 70, 46
2, 26900, Note_on_c, 0, 59, 33
2, 26901, Note_on_c, 0, 63, 37
2, 26901, Note_on_c, 0, 58, 30
2, 26904, Note_on_c, 0, 53, 32
2, 26905, Note_on_c, 0, 67, 24
2, 26933, Control_c, 0, 64, 127
2, 26948, Note_on_c, 0, 59, 0
2, 26951, Note_on_c, 0, 67, 0
2, 26955, Note_on_c, 0, 53, 0
2, 26963, Note_on_c, 0, 63, 0
2, 26964, Note_on_c, 0, 58, 0
2, 26973, Note_on_c, 0, 70, 0
2, 26983, Control_c, 0, 64, 0
2, 26994, Note_on_c, 0, 68, 51
2, 26997, Note_on_c, 0, 53, 38
2, 26998, Note_on_c, 0, 59, 41
2, 26999, Note_on_c, 0, 63, 40
2, 27021, Note_on_c, 0, 59, 0
2, 27021, Control_c, 0, 64, 127
2, 27028, Note_on_c, 0, 68, 0
2, 27034, Note_on_c, 0, 53, 0
2, 27043, Note_on_c, 0, 63, 0
2, 27076, Note_on_c, 0, 58, 46
2, 27079, Note_on_c, 0, 63, 46
2, 27080, Note_on_c, 0, 67, 39
2, 27083, Control_c, 0, 64, 0
2, 27084, Note_on_c, 0, 53, 30
2, 27152, Control_c, 0, 64, 127
2, 27212, Note_on_c, 0, 58, 0
2, 27225, Note_on_c, 0, 63, 0
2, 27229, Note_on_c, 0, 53, 0
2, 27233, Note_on_c, 0, 58, 30
2, 27234, Note_on_c, 0, 67, 0
2, 27239, Note_on_c, 0, 65, 51
2, 27256, Note_on_c, 0, 58, 0
2, 27265, Note_on_c, 0, 65, 0
2, 27354, Control_c, 0, 64, 0
2, 27358, Note_on_c, 0, 69, 84
2, 27407, Note_on_c, 0, 70, 37
2, 27411, Note_on_c, 0, 69, 0
2, 27438, Note_on_c, 0, 69, 28
2, 27442, Note_on_c, 0, 70, 0
2, 27451, Note_on_c, 0, 69, 0
2, 27453, Note_on_c, 0, 68, 38
2, 27462, Note_on_c, 0, 68, 0
2, 27482, Note_on_c, 0, 69, 60
2, 27547, Note_on_c, 0, 69, 0
2, 27562, Note_on_c, 0, 70, 61
2, 27563, Note_on_c, 0, 65, 36
2, 27565, Note_on_c, 0, 60, 42
2, 27569, Note_on_c, 0, 58, 20
2, 27571, Note_on_c, 0, 65, 0
2, 27574, Note_on_c, 0, 60, 0
2, 27591, Note_on_c, 0, 58, 0
2, 27687, Control_c, 0, 64, 127
2, 27800, Note_on_c, 0, 63, 38
2, 27803, Note_on_c, 0, 58, 34
2, 27809, Note_on_c, 0, 52, 46
2, 27809, Control_c, 0, 64, 0
2, 27812, Note_on_c, 0, 70, 0
2, 27909, Note_on_c, 0, 87, 78
2, 27926, Note_on_c, 0, 87, 0
2, 27934, Note_on_c, 0, 63, 0
2, 27942, Note_on_c, 0, 85, 73
2, 27952, Note_on_c, 0, 52, 0
2, 27967, Note_on_c, 0, 85, 0
2, 27974, Note_on_c, 0, 58, 0
2, 27976, Note_on_c, 0, 82, 53
2, 27995, Note_on_c, 0, 82, 0
2, 28004, Note_on_c, 0, 76, 43
2, 28026, Note_on_c, 0, 76, 0
2, 28038, Note_on_c, 0, 75, 51
2, 28065, Note_on_c, 0, 75, 0
2, 28073, Note_on_c, 0, 73, 32
2, 28081, Note_on_c, 0, 63, 34
2, 28088, Note_on_c, 0, 58, 25
2, 28094, Note_on_c, 0, 73, 0
2, 28097, Note_on_c, 0, 52, 22
2, 28104, Note_on_c, 0, 72, 34
2, 28116, Note_on_c, 0, 72, 0
2, 28133, Note_on_c, 0, 63, 0
2, 28142, Note_on_c, 0, 70, 51
2, 28150, Note_on_c, 0, 58, 0
2, 28170, Note_on_c, 0, 70, 0
2, 28172, Note_on_c, 0, 68, 55
2, 28178, Note_on_c, 0, 58, 14
2, 28199, Note_on_c, 0, 68, 0
2, 28199, Note_on_c, 0, 52, 0
2, 28201, Note_on_c, 0, 58, 0
2, 28203, Note_on_c, 0, 66, 36
2, 28229, Note_on_c, 0, 66, 0
2, 28235, Note_on_c, 0, 64, 45
2, 28254, Note_on_c, 0, 64, 0
2, 28282, Note_on_c, 0, 62, 20
2, 28300, Note_on_c, 0, 62, 0
2, 28310, Note_on_c, 0, 61, 38
2, 28317, Note_on_c, 0, 61, 0
2, 28326, Note_on_c, 0, 60, 32
2, 28335, Control_c, 0, 64, 127
2, 28348, Note_on_c, 0, 60, 0
2, 28356, Note_on_c, 0, 59, 40
2, 28357, Control_c, 0, 64, 0
2, 28364, Note_on_c, 0, 51, 31
2, 28368, Note_on_c, 0, 59, 0
2, 28368, Note_on_c, 0, 41, 34
2, 28379, Note_on_c, 0, 62, 58
2, 28423, Note_on_c, 0, 62, 0
2, 28432, Note_on_c, 0, 59, 47
2, 28439, Note_on_c, 0, 59, 0
2, 28455, Note_on_c, 0, 59, 55
2, 28585, Note_on_c, 0, 41, 0
2, 28604, Control_c, 0, 64, 127
2, 28643, Note_on_c, 0, 41, 48
2, 28657, Note_on_c, 0, 41, 0
2, 28661, Note_on_c, 0, 51, 0
2, 28662, Control_c, 0, 64, 0
2, 28692, Control_c, 0, 64, 127
2, 28753, Note_on_c, 0, 56, 44
2, 28758, Note_on_c, 0, 59, 0
2, 28783, Note_on_c, 0, 56, 0
2, 28784, Control_c, 0, 64, 0
2, 28802, Note_on_c, 0, 58, 32
2, 28811, Note_on_c, 0, 58, 0
2, 28871, Note_on_c, 0, 46, 57
2, 28871, Note_on_c, 0, 61, 67
2, 28871, Note_on_c, 0, 56, 47
2, 28887, Note_on_c, 0, 56, 0
2, 28888, Note_on_c, 0, 46, 0
2, 28896, Note_on_c, 0, 61, 0
2, 28916, Note_on_c, 0, 62, 39
2, 28935, Note_on_c, 0, 62, 0
2, 28953, Note_on_c, 0, 65, 53
2, 28966, Note_on_c, 0, 65, 0
2, 28983, Control_c, 0, 64, 127
2, 28989, Note_on_c, 0, 67, 82
2, 29013, Note_on_c, 0, 67, 0
2, 29027, Control_c, 0, 64, 0
2, 29034, Note_on_c, 0, 62, 40
2, 29037, Note_on_c, 0, 68, 57
2, 29040, Note_on_c, 0, 56, 34
2, 29067, Note_on_c, 0, 62, 0
2, 29124, Note_on_c, 0, 62, 30
2, 29134, Note_on_c, 0, 68, 0
2, 29135, Note_on_c, 0, 62, 0
2, 29140, Note_on_c, 0, 56, 0
2, 29156, Note_on_c, 0, 67, 74
2, 29159, Note_on_c, 0, 62, 40
2, 29161, Note_on_c, 0, 56, 34
2, 29181, Note_on_c, 0, 56, 0
2, 29196, Note_on_c, 0, 62, 0
2, 29219, Control_c, 0, 64, 127
2, 29239, Note_on_c, 0, 56, 27
2, 29241, Note_on_c, 0, 62, 35
2, 29250, Note_on_c, 0, 62, 0
2, 29257, Note_on_c, 0, 56, 0
2, 29260, Note_on_c, 0, 67, 0
2, 29270, Control_c, 0, 64, 0
2, 29275, Note_on_c, 0, 61, 42
2, 29282, Note_on_c, 0, 65, 36
2, 29310, Control_c, 0, 64, 127
2, 29341, Note_on_c, 0, 61, 0
2, 29348, Note_on_c, 0, 65, 0
2, 29358, Note_on_c, 0, 61, 39
2, 29360, Note_on_c, 0, 72, 63
2, 29367, Note_on_c, 0, 72, 0
2, 29375, Note_on_c, 0, 61, 0
2, 29392, Control_c, 0, 64, 0
2, 29397, Note_on_c, 0, 61, 60
2, 29399, Note_on_c, 0, 84, 84
2, 29399, Note_on_c, 0, 60, 74
2, 29399, Note_on_c, 0, 55, 73
2, 29400, Note_on_c, 0, 65, 80
2, 29400, Note_on_c, 0, 72, 84
2, 29403, Note_on_c, 0, 58, 52
2, 29416, Control_c, 0, 64, 127
2, 29449, Note_on_c, 0, 55, 0
2, 29455, Note_on_c, 0, 84, 0
2, 29456, Note_on_c, 0, 65, 0
2, 29457, Note_on_c, 0, 72, 0
2, 29461, Note_on_c, 0, 58, 0
2, 29462, Note_on_c, 0, 61, 0
2, 29463, Note_on_c, 0, 60, 0
2, 29480, Note_on_c, 0, 61, 59
2, 29480, Note_on_c, 0, 60, 67
2, 29481, Note_on_c, 0, 65, 78
2, 29482, Note_on_c, 0, 55, 84
2, 29483, Control_c, 0, 64, 0
2, 29483, Note_on_c, 0, 85, 84
2, 29484, Note_on_c, 0, 58, 59
2, 29485, Note_on_c, 0, 73, 62
2, 29514, Note_on_c, 0, 55, 0
2, 29516, Note_on_c, 0, 73, 0
2, 29517, Note_on_c, 0, 85, 0
2, 29517, Note_on_c, 0, 65, 0
2, 29521, Note_on_c, 0, 58, 0
2, 29522, Note_on_c, 0, 60, 0
2, 29524, Note_on_c, 0, 61, 0
2, 29532, Note_on_c, 0, 60, 36
2, 29532, Note_on_c, 0, 55, 57
2, 29533, Note_on_c, 0, 65, 74
2, 29534, Note_on_c, 0, 75, 58
2, 29534, Note_on_c, 0, 61, 59
2, 29535, Note_on_c, 0, 87, 74
2, 29539, Control_c, 0, 64, 127
2, 29574, Note_on_c, 0, 87, 0
2, 29581, Note_on_c, 0, 55, 0
2, 29584, Note_on_c, 0, 65, 0
2, 29587, Note_on_c, 0, 75, 0
2, 29592, Note_on_c, 0, 61, 0
2, 29595, Note_on_c, 0, 60, 0
2, 29610, Note_on_c, 0, 85, 59
2, 29610, Note_on_c, 0, 61, 46
2, 29611, Control_c, 0, 64, 0
2, 29612, Note_on_c, 0, 65, 54
2, 29613, Note_on_c, 0, 60, 35
2, 29614, Note_on_c, 0, 55, 56
2, 29615, Note_on_c, 0, 73, 26
2, 29639, Control_c, 0, 64, 127
2, 29671, Note_on_c, 0, 73, 0
2, 29678, Note_on_c, 0, 60, 0
2, 29680, Note_on_c, 0, 65, 0
2, 29688, Note_on_c, 0, 85, 0
2, 29689, Note_on_c, 0, 61, 0
2, 29691, Note_on_c, 0, 55, 0
2, 29754, Control_c, 0, 64, 0
2, 29768, Note_on_c, 0, 65, 50
2, 29769, Note_on_c, 0, 60, 45
2, 29769, Note_on_c, 0, 93, 56
2, 29771, Note_on_c, 0, 58, 32
2, 29771, Note_on_c, 0, 88, 36
2, 29773, Note_on_c, 0, 54, 34
2, 29774, Note_on_c, 0, 81, 24
2, 29786, Control_c, 0, 64, 127
2, 29816, Note_on_c, 0, 65, 0
2, 29818, Note_on_c, 0, 60, 0
2, 29822, Note_on_c, 0, 58, 0
2, 29823, Note_on_c, 0, 93, 0
2, 29824, Note_on_c, 0, 54, 0
2, 29826, Note_on_c, 0, 81, 0
2, 29827, Note_on_c, 0, 88, 0
2, 29872, Control_c, 0, 64, 0
2, 29880, Note_on_c, 0, 65, 62
2, 29882, Note_on_c, 0, 54, 38
2, 29883, Note_on_c, 0, 93, 54
2, 29884, Note_on_c, 0, 60, 54
2, 29884, Note_on_c, 0, 58, 45
2, 29885, Note_on_c, 0, 88, 47
2, 29885, Note_on_c, 0, 81, 40
2, 29907, Control_c, 0, 64, 127
2, 30003, Note_on_c, 0, 65, 0
2, 30006, Note_on_c, 0, 60, 0
2, 30015, Note_on_c, 0, 93, 0
2, 30015, Note_on_c, 0, 81, 0
2, 30018, Note_on_c, 0, 88, 0
2, 30022, Note_on_c, 0, 58, 0
2, 30032, Note_on_c, 0, 54, 0
2, 30073, Control_c, 0, 64, 0
2, 30078, Note_on_c, 0, 64, 45
2, 30079, Note_on_c, 0, 54, 35
2, 30079, Note_on_c, 0, 94, 46
2, 30080, Note_on_c, 0, 82, 34
2, 30081, Note_on_c, 0, 58, 36
2, 30083, Note_on_c, 0, 60, 40
2, 30086, Note_on_c, 0, 88, 35
2, 30107, Control_c, 0, 64, 127
2, 30130, Note_on_c, 0, 88, 0
2, 30135, Note_on_c, 0, 64, 0
2, 30139, Note_on_c, 0, 60, 0
2, 30152, Note_on_c, 0, 58, 0
2, 30157, Note_on_c, 0, 82, 0
2, 30167, Note_on_c, 0, 94, 0
2, 30172, Note_on_c, 0, 54, 0
2, 30236, Control_c, 0, 64, 0
2, 30238, Note_on_c, 0, 94, 59
2, 30242, Note_on_c, 0, 63, 34
2, 30243, Note_on_c, 0, 82, 28
2, 30245, Note_on_c, 0, 53, 39
2, 30245, Note_on_c, 0, 87, 45
2, 30246, Note_on_c, 0, 58, 44
2, 30302, Control_c, 0, 64, 127
2, 30361, Note_on_c, 0, 53, 0
2, 30370, Note_on_c, 0, 63, 0
2, 30379, Note_on_c, 0, 94, 0
2, 30389, Note_on_c, 0, 87, 0
2, 30395, Note_on_c, 0, 82, 0
2, 30406, Note_on_c, 0, 58, 0
2, 30674, Note_on_c, 0, 73, 56
2, 30674, Note_on_c, 0, 58, 82
2, 30675, Note_on_c, 0, 63, 77
2, 30675, Note_on_c, 0, 68, 76
2, 30702, Note_on_c, 0, 68, 0
2, 30705, Note_on_c, 0, 73, 0
2, 30705, Note_on_c, 0, 58, 0
2, 30711, Note_on_c, 0, 63, 0
2, 30720, Control_c, 0, 64, 0
2, 30723, Note_on_c, 0, 72, 60
2, 30727, Note_on_c, 0, 67, 43
2, 30727, Note_on_c, 0, 57, 52
2, 30728, Note_on_c, 0, 62, 42
2, 30758, Note_on_c, 0, 62, 0
2, 30764, Note_on_c, 0, 67, 0
2, 30785, Note_on_c, 0, 72, 0
2, 30821, Note_on_c, 0, 57, 0
2, 31037, Note_on_c, 0, 70, 74
2, 31037, Note_on_c, 0, 55, 71
2, 31038, Note_on_c, 0, 65, 78
2, 31039, Note_on_c, 0, 60, 74
2, 31064, Note_on_c, 0, 65, 0
2, 31064, Note_on_c, 0, 55, 0
2, 31066, Note_on_c, 0, 70, 0
2, 31070, Note_on_c, 0, 60, 0
2, 31088, Note_on_c, 0, 69, 57
2, 31089, Note_on_c, 0, 59, 47
2, 31090, Note_on_c, 0, 64, 46
2, 31093, Note_on_c, 0, 53, 45
2, 31125, Note_on_c, 0, 59, 0
2, 31126, Note_on_c, 0, 69, 0
2, 31134, Note_on_c, 0, 64, 0
2, 31141, Note_on_c, 0, 53, 0
2, 31151, Control_c, 0, 64, 127
2, 31162, Note_on_c, 0, 68, 52
2, 31165, Note_on_c, 0, 63, 51
2, 31169, Note_on_c, 0, 58, 35
2, 31191, Note_on_c, 0, 58, 0
2, 31199, Control_c, 0, 64, 0
2, 31200, Note_on_c, 0, 63, 0
2, 31200, Note_on_c, 0, 68, 0
2, 31210, Note_on_c, 0, 56, 25
2, 31211, Note_on_c, 0, 49, 31
2, 31212, Note_on_c, 0, 65, 61
2, 31214, Note_on_c, 0, 60, 36
2, 31217, Note_on_c, 0, 53, 40
2, 31283, Control_c, 0, 64, 127
2, 31291, Note_on_c, 0, 60, 0
2, 31313, Note_on_c, 0, 53, 0
2, 31318, Note_on_c, 0, 60, 34
2, 31321, Note_on_c, 0, 49, 0
2, 31323, Note_on_c, 0, 56, 0
2, 31346, Note_on_c, 0, 60, 0
2, 31388, Note_on_c, 0, 65, 0
2, 31445, Note_on_c, 0, 63, 37
2, 31446, Control_c, 0, 64, 0
2, 31450, Note_on_c, 0, 58, 37
2, 31451, Note_on_c, 0, 53, 36
2, 31527, Note_on_c, 0, 65, 60
2, 31555, Note_on_c, 0, 65, 0
2, 31566, Control_c, 0, 64, 127
2, 31573, Note_on_c, 0, 53, 0
2, 31585, Note_on_c, 0, 58, 0
2, 31585, Note_on_c, 0, 63, 0
2, 31602, Note_on_c, 0, 72, 71
2, 31619, Note_on_c, 0, 72, 0
2, 31647, Note_on_c, 0, 74, 37
2, 31658, Note_on_c, 0, 74, 0
2, 31668, Control_c, 0, 64, 0
2, 31679, Note_on_c, 0, 62, 33
2, 31680, Note_on_c, 0, 69, 67
2, 31681, Note_on_c, 0, 74, 37
2, 31682, Note_on_c, 0, 81, 52
2, 31683, Note_on_c, 0, 56, 44
2, 31685, Note_on_c, 0, 77, 35
2, 31686, Note_on_c, 0, 65, 45
2, 31765, Control_c, 0, 64, 127
2, 31815, Note_on_c, 0, 65, 0
2, 31843, Note_on_c, 0, 69, 0
2, 31843, Note_on_c, 0, 56, 0
2, 31846, Note_on_c, 0, 81, 0
2, 31850, Note_on_c, 0, 62, 0
2, 31865, Note_on_c, 0, 77, 0
2, 31867, Note_on_c, 0, 74, 0
2, 31911, Control_c, 0, 64, 0
2, 31917, Note_on_c, 0, 62, 37
2, 31917, Note_on_c, 0, 66, 43
2, 31918, Note_on_c, 0, 82, 48
2, 31919, Note_on_c, 0, 70, 42
2, 31920, Note_on_c, 0, 56, 33
2, 31921, Note_on_c, 0, 74, 33
2, 31931, Note_on_c, 0, 70, 0
2, 31932, Note_on_c, 0, 66, 0
2, 31932, Note_on_c, 0, 74, 0
2, 31933, Note_on_c, 0, 62, 0
2, 31938, Note_on_c, 0, 56, 0
2, 31940, Note_on_c, 0, 82, 0
2, 32041, Note_on_c, 0, 93, 74
2, 32042, Note_on_c, 0, 81, 63
2, 32043, Note_on_c, 0, 62, 42
2, 32044, Note_on_c, 0, 56, 40
2, 32044, Note_on_c, 0, 66, 39
2, 32048, Note_on_c, 0, 81, 0
2, 32052, Note_on_c, 0, 66, 0
2, 32053, Note_on_c, 0, 62, 0
2, 32058, Note_on_c, 0, 93, 0
2, 32064, Note_on_c, 0, 56, 0
2, 32116, Control_c, 0, 64, 127
2, 32128, Control_c, 0, 64, 0
2, 32164, Note_on_c, 0, 61, 35
2, 32166, Control_c, 0, 64, 127
2, 32166, Note_on_c, 0, 65, 56
2, 32166, Note_on_c, 0, 94, 71
2, 32167, Note_on_c, 0, 55, 54
2, 32167, Note_on_c, 0, 82, 47
2, 32169, Note_on_c, 0, 60, 27
2, 32171, Note_on_c, 0, 58, 29
2, 32172, Note_on_c, 0, 87, 32
2, 32179, Note_on_c, 0, 87, 0
2, 32196, Note_on_c, 0, 82, 0
2, 32201, Note_on_c, 0, 65, 0
2, 32202, Note_on_c, 0, 55, 0
2, 32202, Note_on_c, 0, 60, 0
2, 32203, Note_on_c, 0, 94, 0
2, 32214, Note_on_c, 0, 58, 0
2, 32215, Note_on_c, 0, 61, 0
2, 32244, Note_on_c, 0, 96, 74
2, 32244, Note_on_c, 0, 61, 37
2, 32244, Note_on_c, 0, 65, 57
2, 32245, Note_on_c, 0, 55, 50
2, 32246, Note_on_c, 0, 60, 34
2, 32249, Note_on_c, 0, 84, 41
2, 32252, Note_on_c, 0, 86, 30
2, 32259, Note_on_c, 0, 84, 0
2, 32260, Note_on_c, 0, 65, 0
2, 32260, Note_on_c, 0, 86, 0
2, 32263, Note_on_c, 0, 60, 0
2, 32264, Note_on_c, 0, 96, 0
2, 32265, Note_on_c, 0, 55, 0
2, 32270, Control_c, 0, 64, 0
2, 32271, Note_on_c, 0, 61, 0
2, 32290, Note_on_c, 0, 61, 28
2, 32291, Note_on_c, 0, 65, 34
2, 32292, Note_on_c, 0, 55, 33
2, 32302, Control_c, 0, 64, 127
2, 32306, Note_on_c, 0, 81, 20
2, 32322, Note_on_c, 0, 55, 0
2, 32328, Note_on_c, 0, 81, 0
2, 32329, Note_on_c, 0, 65, 0
2, 32337, Note_on_c, 0, 61, 0
2, 32362, Note_on_c, 0, 94, 55
2, 32362, Note_on_c, 0, 82, 49
2, 32364, Control_c, 0, 64, 0
2, 32364, Note_on_c, 0, 61, 35
2, 32365, Note_on_c, 0, 65, 54
2, 32366, Note_on_c, 0, 60, 42
2, 32368, Note_on_c, 0, 55, 41
2, 32406, Control_c, 0, 64, 127
2, 32445, Note_on_c, 0, 94, 0
2, 32453, Note_on_c, 0, 65, 0
2, 32457, Note_on_c, 0, 82, 0
2, 32457, Note_on_c, 0, 55, 0
2, 32458, Note_on_c, 0, 61, 0
2, 32462, Note_on_c, 0, 60, 0
2, 32507, Control_c, 0, 64, 0
2, 32515, Note_on_c, 0, 89, 50
2, 32518, Note_on_c, 0, 65, 40
2, 32519, Note_on_c, 0, 61, 33
2, 32520, Note_on_c, 0, 77, 22
2, 32521, Note_on_c, 0, 60, 31
2, 32521, Note_on_c, 0, 55, 36
2, 32557, Control_c, 0, 64, 127
2, 32564, Note_on_c, 0, 55, 0
2, 32566, Note_on_c, 0, 65, 0
2, 32569, Note_on_c, 0, 89, 0
2, 32570, Note_on_c, 0, 60, 0
2, 32571, Note_on_c, 0, 77, 0
2, 32575, Note_on_c, 0, 61, 0
2, 32598, Note_on_c, 0, 89, 57
2, 32600, Note_on_c, 0, 65, 60
2, 32600, Note_on_c, 0, 61, 40
2, 32600, Note_on_c, 0, 77, 34
2, 32601, Note_on_c, 0, 55, 54
2, 32602, Note_on_c, 0, 60, 46
2, 32606, Note_on_c, 0, 82, 26
2, 32607, Control_c, 0, 64, 0
2, 32643, Control_c, 0, 64, 127
2, 32746, Note_on_c, 0, 89, 0
2, 32759, Note_on_c, 0, 65, 0
2, 32759, Note_on_c, 0, 82, 0
2, 32766, Note_on_c, 0, 55, 0
2, 32766, Note_on_c, 0, 77, 0
2, 32766, Note_on_c, 0, 60, 0
2, 32770, Note_on_c, 0, 61, 0
2, 32840, Note_on_c, 0, 65, 90
2, 32841, Note_on_c, 0, 61, 67
2, 32842, Note_on_c, 0, 60, 70
2, 32844, Note_on_c, 0, 58, 42
2, 32849, Note_on_c, 0, 60, 0
2, 32850, Note_on_c, 0, 65, 0
2, 32851, Note_on_c, 0, 58, 0
2, 32855, Note_on_c, 0, 61, 0
2, 32868, Control_c, 0, 64, 0
2, 32878, Note_on_c, 0, 80, 83
2, 32958, Note_on_c, 0, 80, 0
2, 32960, Note_on_c, 0, 77, 60
2, 32997, Note_on_c, 0, 77, 0
2, 33006, Note_on_c, 0, 73, 38
2, 33050, Control_c, 0, 64, 127
2, 33073, Note_on_c, 0, 73, 0
2, 33080, Note_on_c, 0, 69, 57
2, 33114, Control_c, 0, 64, 0
2, 33116, Note_on_c, 0, 69, 0
2, 33125, Note_on_c, 0, 68, 37
2, 33241, Note_on_c, 0, 63, 30
2, 33245, Note_on_c, 0, 53, 29
2, 33245, Note_on_c, 0, 60, 41
2, 33250, Note_on_c, 0, 58, 25
2, 33270, Note_on_c, 0, 60, 0
2, 33272, Note_on_c, 0, 58, 0
2, 33274, Note_on_c, 0, 53, 0
2, 33274, Note_on_c, 0, 63, 0
2, 33377, Control_c, 0, 64, 127
2, 33434, Note_on_c, 0, 61, 43
2, 33436, Note_on_c, 0, 64, 54
2, 33439, Control_c, 0, 64, 0
2, 33440, Note_on_c, 0, 54, 33
2, 33441, Note_on_c, 0, 59, 48
2, 33487, Control_c, 0, 64, 127
2, 33552, Note_on_c, 0, 59, 0
2, 33556, Note_on_c, 0, 54, 0
2, 33565, Note_on_c, 0, 64, 0
2, 33575, Note_on_c, 0, 61, 0
2, 33588, Control_c, 0, 64, 0
2, 33596, Note_on_c, 0, 61, 35
2, 33600, Note_on_c, 0, 55, 48
2, 33600, Note_on_c, 0, 58, 37
2, 33601, Note_on_c, 0, 64, 48
2, 33716, Control_c, 0, 64, 127
2, 33726, Note_on_c, 0, 64, 0
2, 33726, Note_on_c, 0, 55, 0
2, 33738, Note_on_c, 0, 61, 0
2, 33740, Note_on_c, 0, 58, 0
2, 33796, Note_on_c, 0, 68, 0
2, 33798, Note_on_c, 0, 65, 50
2, 33800, Note_on_c, 0, 60, 52
2, 33800, Note_on_c, 0, 54, 33
2, 33801, Note_on_c, 0, 58, 38
2, 33804, Control_c, 0, 64, 0
2, 33913, Control_c, 0, 64, 127
2, 33933, Control_c, 0, 64, 0
2, 33956, Note_on_c, 0, 72, 69
2, 33989, Note_on_c, 0, 72, 0
2, 33990, Note_on_c, 0, 65, 0
2, 34007, Note_on_c, 0, 58, 0
2, 34015, Note_on_c, 0, 60, 0
2, 34027, Note_on_c, 0, 54, 0
2, 34040, Note_on_c, 0, 60, 57
2, 34041, Note_on_c, 0, 77, 88
2, 34041, Control_c, 0, 64, 127
2, 34043, Note_on_c, 0, 63, 59
2, 34044, Note_on_c, 0, 53, 46
2, 34049, Note_on_c, 0, 56, 31
2, 34065, Control_c, 0, 64, 0
2, 34070, Note_on_c, 0, 77, 0
2, 34095, Note_on_c, 0, 80, 67
2, 34096, Note_on_c, 0, 68, 57
2, 34111, Note_on_c, 0, 68, 0
2, 34117, Note_on_c, 0, 80, 0
2, 34131, Note_on_c, 0, 60, 0
2, 34143, Note_on_c, 0, 63, 0
2, 34168, Note_on_c, 0, 63, 36
2, 34170, Note_on_c, 0, 80, 69
2, 34170, Note_on_c, 0, 60, 47
2, 34171, Note_on_c, 0, 68, 67
2, 34188, Note_on_c, 0, 80, 0
2, 34193, Note_on_c, 0, 68, 0
2, 34213, Note_on_c, 0, 77, 57
2, 34214, Note_on_c, 0, 65, 59
2, 34221, Control_c, 0, 64, 127
2, 34282, Note_on_c, 0, 60, 0
2, 34285, Note_on_c, 0, 77, 0
2, 34294, Note_on_c, 0, 63, 0
2, 34294, Note_on_c, 0, 53, 0
2, 34303, Note_on_c, 0, 56, 0
2, 34312, Control_c, 0, 64, 0
2, 34321, Note_on_c, 0, 63, 34
2, 34322, Note_on_c, 0, 75, 52
2, 34329, Note_on_c, 0, 60, 36
2, 34330, Note_on_c, 0, 56, 20
2, 34338, Note_on_c, 0, 65, 0
2, 34356, Control_c, 0, 64, 127
2, 34373, Note_on_c, 0, 63, 0
2, 34378, Note_on_c, 0, 60, 0
2, 34389, Note_on_c, 0, 75, 0
2, 34398, Note_on_c, 0, 63, 46
2, 34399, Note_on_c, 0, 72, 63
2, 34401, Note_on_c, 0, 60, 51
2, 34410, Control_c, 0, 64, 0
2, 34437, Note_on_c, 0, 63, 0
2, 34442, Note_on_c, 0, 72, 0
2, 34444, Note_on_c, 0, 68, 43
2, 34456, Control_c, 0, 64, 127
2, 34495, Note_on_c, 0, 60, 0
2, 34500, Note_on_c, 0, 68, 0
2, 34516, Note_on_c, 0, 65, 54
2, 34517, Note_on_c, 0, 60, 51
2, 34519, Note_on_c, 0, 63, 54
2, 34525, Note_on_c, 0, 53, 22
2, 34528, Control_c, 0, 64, 0
2, 34563, Note_on_c, 0, 63, 0
2, 34568, Control_c, 0, 64, 127
2, 34579, Note_on_c, 0, 60, 0
2, 34594, Note_on_c, 0, 53, 0
2, 34594, Note_on_c, 0, 65, 0
2, 34596, Note_on_c, 0, 56, 0
2, 34741, Control_c, 0, 64, 0
2, 34753, Note_on_c, 0, 49, 55
2, 34767, Control_c, 0, 64, 127
2, 34783, Control_c, 0, 64, 0
2, 34803, Note_on_c, 0, 53, 49
2, 34806, Note_on_c, 0, 49, 0
2, 34807, Note_on_c, 0, 56, 47
2, 34817, Control_c, 0, 64, 127
2, 34822, Note_on_c, 0, 56, 0
2, 34876, Note_on_c, 0, 53, 0
2, 34878, Note_on_c, 0, 68, 64
2, 34879, Note_on_c, 0, 56, 56
2, 34882, Note_on_c, 0, 65, 68
2, 34882, Note_on_c, 0, 59, 40
2, 34883, Control_c, 0, 64, 0
2, 34887, Note_on_c, 0, 60, 44
2, 34889, Note_on_c, 0, 61, 26
2, 34893, Note_on_c, 0, 60, 0
2, 34917, Control_c, 0, 64, 127
2, 34918, Note_on_c, 0, 59, 0
2, 34918, Note_on_c, 0, 61, 0
2, 34919, Note_on_c, 0, 65, 0
2, 34925, Note_on_c, 0, 68, 0
2, 34998, Note_on_c, 0, 56, 0
2, 34998, Note_on_c, 0, 70, 67
2, 34998, Note_on_c, 0, 55, 60
2, 35000, Note_on_c, 0, 65, 74
2, 35000, Note_on_c, 0, 61, 57
2, 35002, Control_c, 0, 64, 0
2, 35048, Control_c, 0, 64, 127
2, 35051, Note_on_c, 0, 70, 0
2, 35078, Note_on_c, 0, 65, 0
2, 35084, Note_on_c, 0, 61, 0
2, 35110, Note_on_c, 0, 55, 0
2, 35114, Note_on_c, 0, 61, 49
2, 35115, Note_on_c, 0, 72, 54
2, 35116, Note_on_c, 0, 65, 57
2, 35116, Note_on_c, 0, 57, 51
2, 35124, Note_on_c, 0, 72, 0
2, 35142, Note_on_c, 0, 61, 0
2, 35147, Note_on_c, 0, 65, 0
2, 35148, Note_on_c, 0, 57, 0
2, 35154, Control_c, 0, 64, 0
2, 35161, Note_on_c, 0, 73, 49
2, 35163, Note_on_c, 0, 61, 30
2, 35163, Note_on_c, 0, 58, 39
2, 35167, Note_on_c, 0, 65, 44
2, 35175, Note_on_c, 0, 65, 0
2, 35177, Note_on_c, 0, 58, 0
2, 35177, Note_on_c, 0, 61, 0
2, 35180, Note_on_c, 0, 73, 0
2, 35228, Control_c, 0, 64, 127
2, 35235, Note_on_c, 0, 72, 55
2, 35236, Note_on_c, 0, 55, 53
2, 35237, Note_on_c, 0, 65, 60
2, 35238, Note_on_c, 0, 61, 36
2, 35253, Note_on_c, 0, 65, 0
2, 35257, Note_on_c, 0, 72, 0
2, 35272, Control_c, 0, 64, 0
2, 35283, Note_on_c, 0, 55, 0
2, 35285, Note_on_c, 0, 70, 49
2, 35286, Note_on_c, 0, 64, 50
2, 35289, Note_on_c, 0, 58, 37
2, 35291, Note_on_c, 0, 48, 37
2, 35407, Control_c, 0, 64, 127
2, 35429, Note_on_c, 0, 64, 0
2, 35439, Note_on_c, 0, 61, 0
2, 35441, Note_on_c, 0, 58, 0
2, 35460, Note_on_c, 0, 70, 0
2, 35461, Note_on_c, 0, 48, 0
2, 35469, Note_on_c, 0, 61, 38
2, 35471, Note_on_c, 0, 64, 51
2, 35479, Note_on_c, 0, 55, 42
2, 35492, Note_on_c, 0, 64, 0
2, 35492, Note_on_c, 0, 61, 0
2, 35502, Note_on_c, 0, 55, 0
2, 35507, Control_c, 0, 64, 0
2, 35514, Note_on_c, 0, 70, 62
2, 35516, Note_on_c, 0, 58, 60
2, 35516, Note_on_c, 0, 63, 53
2, 35517, Note_on_c, 0, 60, 57
2, 35520, Note_on_c, 0, 67, 40
2, 35525, Note_on_c, 0, 60, 0
2, 35532, Note_on_c, 0, 67, 0
2, 35542, Note_on_c, 0, 63, 0
2, 35542, Note_on_c, 0, 70, 0
2, 35557, Note_on_c, 0, 58, 0
2, 35563, Note_on_c, 0, 57, 53
2, 35571, Note_on_c, 0, 57, 0
2, 35641, Note_on_c, 0, 68, 68
2, 35643, Note_on_c, 0, 63, 56
2, 35644, Note_on_c, 0, 56, 57
2, 35646, Note_on_c, 0, 60, 50
2, 35653, Note_on_c, 0, 60, 0
2, 35657, Note_on_c, 0, 63, 0
2, 35658, Note_on_c, 0, 68, 0
2, 35660, Note_on_c, 0, 56, 0
2, 35711, Note_on_c, 0, 56, 46
2, 35711, Note_on_c, 0, 60, 63
2, 35712, Note_on_c, 0, 52, 54
2, 35725, Note_on_c, 0, 60, 0
2, 35730, Note_on_c, 0, 56, 0
2, 35735, Note_on_c, 0, 52, 0
2, 35760, Note_on_c, 0, 67, 69
2, 35763, Note_on_c, 0, 55, 70
2, 35765, Note_on_c, 0, 56, 38
2, 35769, Note_on_c, 0, 60, 37
2, 35777, Note_on_c, 0, 67, 0
2, 35778, Note_on_c, 0, 60, 0
2, 35778, Note_on_c, 0, 56, 0
2, 35787, Note_on_c, 0, 55, 0
2, 35802, Note_on_c, 0, 54, 46
2, 35828, Note_on_c, 0, 54, 0
2, 35832, Note_on_c, 0, 65, 66
2, 35834, Note_on_c, 0, 60, 57
2, 35838, Note_on_c, 0, 56, 30
2, 35844, Note_on_c, 0, 53, 49
2, 35923, Note_on_c, 0, 53, 0
2, 35944, Note_on_c, 0, 51, 56
2, 35950, Control_c, 0, 64, 127
2, 35967, Note_on_c, 0, 60, 0
2, 35968, Note_on_c, 0, 56, 0
2, 35974, Note_on_c, 0, 65, 0
2, 35981, Note_on_c, 0, 51, 0
2, 35984, Control_c, 0, 64, 0
2, 35996, Note_on_c, 0, 55, 53
2, 35996, Note_on_c, 0, 63, 45
2, 35996, Note_on_c, 0, 45, 53
2, 35997, Note_on_c, 0, 60, 40
2, 36005, Note_on_c, 0, 45, 0
2, 36009, Note_on_c, 0, 55, 0
2, 36012, Control_c, 0, 64, 127
2, 36016, Note_on_c, 0, 60, 0
2, 36033, Note_on_c, 0, 63, 0
2, 36109, Control_c, 0, 64, 0
2, 36114, Note_on_c, 0, 67, 56
2, 36116, Note_on_c, 0, 55, 44
2, 36122, Note_on_c, 0, 63, 23
2, 36125, Note_on_c, 0, 67, 0
2, 36144, Note_on_c, 0, 72, 55
2, 36163, Note_on_c, 0, 72, 0
2, 36170, Note_on_c, 0, 75, 59
2, 36177, Note_on_c, 0, 75, 0
2, 36188, Note_on_c, 0, 60, 1
2, 36195, Note_on_c, 0, 55, 0
2, 36197, Note_on_c, 0, 63, 0
2, 36200, Note_on_c, 0, 79, 68
2, 36215, Note_on_c, 0, 60, 0
2, 36222, Note_on_c, 0, 79, 0
2, 36231, Note_on_c, 0, 84, 81
2, 36254, Note_on_c, 0, 84, 0
2, 36261, Note_on_c, 0, 87, 80
2, 36282, Note_on_c, 0, 87, 0
2, 36290, Note_on_c, 0, 89, 88
2, 36310, Note_on_c, 0, 65, 39
2, 36310, Note_on_c, 0, 60, 33
2, 36311, Note_on_c, 0, 54, 38
2, 36314, Note_on_c, 0, 58, 37
2, 36322, Note_on_c, 0, 86, 68
2, 36326, Note_on_c, 0, 89, 0
2, 36342, Note_on_c, 0, 86, 0
2, 36350, Note_on_c, 0, 84, 57
2, 36367, Note_on_c, 0, 84, 0
2, 36384, Note_on_c, 0, 82, 71
2, 36400, Note_on_c, 0, 65, 0
2, 36407, Note_on_c, 0, 82, 0
2, 36416, Note_on_c, 0, 60, 0
2, 36416, Note_on_c, 0, 81, 27
2, 36436, Note_on_c, 0, 81, 0
2, 36447, Note_on_c, 0, 77, 35
2, 36460, Note_on_c, 0, 77, 0
2, 36462, Note_on_c, 0, 58, 0
2, 36466, Note_on_c, 0, 54, 0
2, 36474, Note_on_c, 0, 84, 75
2, 36475, Note_on_c, 0, 58, 30
2, 36478, Note_on_c, 0, 62, 43
2, 36480, Note_on_c, 0, 55, 45
2, 36499, Note_on_c, 0, 84, 0
2, 36536, Note_on_c, 0, 82, 79
2, 36562, Note_on_c, 0, 82, 0
2, 36599, Note_on_c, 0, 81, 65
2, 36624, Note_on_c, 0, 81, 0
2, 36632, Note_on_c, 0, 74, 54
2, 36653, Note_on_c, 0, 74, 0
2, 36674, Note_on_c, 0, 74, 48
2, 36688, Control_c, 0, 64, 127
2, 36691, Note_on_c, 0, 74, 0
2, 36698, Control_c, 0, 64, 0
2, 36718, Note_on_c, 0, 74, 53
2, 36737, Control_c, 0, 64, 127
2, 36738, Note_on_c, 0, 62, 0
2, 36743, Note_on_c, 0, 74, 0
2, 36755, Note_on_c, 0, 58, 0
2, 36794, Note_on_c, 0, 74, 58
2, 36799, Note_on_c, 0, 62, 32
2, 36803, Note_on_c, 0, 58, 33
2, 36861, Note_on_c, 0, 62, 0
2, 36870, Note_on_c, 0, 55, 0
2, 36892, Note_on_c, 0, 58, 0
2, 36949, Control_c, 0, 64, 0
2, 36957, Note_on_c, 0, 74, 0
2, 36957, Note_on_c, 0, 61, 25
2, 36957, Note_on_c, 0, 53, 35
2, 36958, Note_on_c, 0, 55, 43
2, 36959, Note_on_c, 0, 58, 32
2, 37120, Note_on_c, 0, 79, 85
2, 37139, Note_on_c, 0, 79, 0
2, 37155, Note_on_c, 0, 80, 91
2, 37163, Note_on_c, 0, 61, 0
2, 37177, Note_on_c, 0, 53, 0
2, 37181, Note_on_c, 0, 80, 0
2, 37182, Note_on_c, 0, 55, 0
2, 37196, Note_on_c, 0, 82, 80
2, 37218, Note_on_c, 0, 58, 0
2, 37220, Note_on_c, 0, 82, 0
2, 37235, Note_on_c, 0, 80, 40
2, 37257, Note_on_c, 0, 80, 0
2, 37272, Note_on_c, 0, 82, 79
2, 37274, Note_on_c, 0, 61, 47
2, 37275, Note_on_c, 0, 58, 36
2, 37276, Note_on_c, 0, 55, 47
2, 37280, Note_on_c, 0, 53, 42
2, 37302, Note_on_c, 0, 82, 0
2, 37312, Note_on_c, 0, 80, 52
2, 37335, Note_on_c, 0, 61, 0
2, 37338, Note_on_c, 0, 53, 0
2, 37339, Note_on_c, 0, 80, 0
2, 37342, Note_on_c, 0, 55, 0
2, 37350, Note_on_c, 0, 58, 0
2, 37389, Note_on_c, 0, 79, 68
2, 37413, Note_on_c, 0, 79, 0
2, 37434, Note_on_c, 0, 63, 36
2, 37436, Note_on_c, 0, 77, 49
2, 37438, Note_on_c, 0, 58, 38
2, 37440, Note_on_c, 0, 52, 36
2, 37469, Note_on_c, 0, 77, 0
2, 37473, Note_on_c, 0, 79, 38
2, 37494, Note_on_c, 0, 63, 0
2, 37497, Note_on_c, 0, 77, 42
2, 37503, Note_on_c, 0, 79, 0
2, 37523, Note_on_c, 0, 76, 46
2, 37524, Note_on_c, 0, 77, 0
2, 37545, Note_on_c, 0, 76, 0
2, 37561, Note_on_c, 0, 52, 0
2, 37569, Note_on_c, 0, 75, 68
2, 37594, Note_on_c, 0, 75, 0
2, 37599, Note_on_c, 0, 58, 0
2, 37638, Note_on_c, 0, 73, 52
2, 37639, Note_on_c, 0, 58, 44
2, 37640, Note_on_c, 0, 63, 35
2, 37645, Note_on_c, 0, 52, 37
2, 37665, Note_on_c, 0, 63, 0
2, 37670, Note_on_c, 0, 73, 0
2, 37691, Note_on_c, 0, 72, 46
2, 37708, Note_on_c, 0, 52, 0
2, 37716, Note_on_c, 0, 72, 0
2, 37731, Note_on_c, 0, 58, 0
2, 37756, Note_on_c, 0, 63, 38
2, 37758, Note_on_c, 0, 58, 40
2, 37759, Note_on_c, 0, 70, 67
2, 37760, Note_on_c, 0, 52, 37
2, 37772, Note_on_c, 0, 63, 0
2, 37783, Note_on_c, 0, 70, 0
2, 37802, Note_on_c, 0, 58, 0
2, 37806, Note_on_c, 0, 66, 48
2, 37808, Note_on_c, 0, 52, 0
2, 37857, Note_on_c, 0, 66, 0
2, 37876, Note_on_c, 0, 64, 50
2, 37884, Note_on_c, 0, 48, 27
2, 37897, Note_on_c, 0, 48, 0
2, 37901, Note_on_c, 0, 64, 0
2, 37935, Note_on_c, 0, 61, 25
2, 37994, Note_on_c, 0, 61, 0
2, 38001, Note_on_c, 0, 57, 36
2, 38002, Note_on_c, 0, 48, 24
2, 38009, Note_on_c, 0, 57, 0
2, 38016, Note_on_c, 0, 48, 0
2, 38037, Note_on_c, 0, 60, 69
2, 38098, Control_c, 0, 64, 127
2, 38100, Note_on_c, 0, 60, 0
2, 38117, Note_on_c, 0, 41, 37
2, 38121, Note_on_c, 0, 48, 26
2, 38127, Note_on_c, 0, 41, 0
2, 38137, Note_on_c, 0, 48, 0
2, 38150, Control_c, 0, 64, 0
2, 38162, Note_on_c, 0, 63, 45
2, 38163, Note_on_c, 0, 58, 35
2, 38163, Note_on_c, 0, 68, 40
2, 38166, Note_on_c, 0, 52, 47
2, 38243, Note_on_c, 0, 68, 0
2, 38243, Note_on_c, 0, 58, 0
2, 38244, Note_on_c, 0, 63, 0
2, 38248, Note_on_c, 0, 52, 0
2, 38259, Note_on_c, 0, 51, 30
2, 38284, Note_on_c, 0, 51, 0
2, 38284, Note_on_c, 0, 68, 52
2, 38285, Note_on_c, 0, 58, 49
2, 38285, Note_on_c, 0, 52, 44
2, 38289, Note_on_c, 0, 63, 39
2, 38329, Control_c, 0, 64, 127
2, 38374, Note_on_c, 0, 68, 0
2, 38381, Note_on_c, 0, 63, 0
2, 38383, Note_on_c, 0, 58, 0
2, 38391, Control_c, 0, 64, 0
2, 38393, Note_on_c, 0, 52, 0
2, 38403, Note_on_c, 0, 51, 43
2, 38404, Note_on_c, 0, 67, 45
2, 38407, Note_on_c, 0, 62, 36
2, 38410, Note_on_c, 0, 57, 30
2, 38469, Control_c, 0, 64, 127
2, 38479, Note_on_c, 0, 57, 0
2, 38513, Note_on_c, 0, 51, 0
2, 38516, Note_on_c, 0, 62, 0
2, 38519, Note_on_c, 0, 67, 0
2, 38599, Note_on_c, 0, 50, 56
2, 38600, Control_c, 0, 64, 0
2, 38619, Note_on_c, 0, 50, 0
2, 38628, Control_c, 0, 64, 127
2, 38723, Note_on_c, 0, 54, 47
2, 38724, Note_on_c, 0, 64, 53
2, 38724, Note_on_c, 0, 59, 42
2, 38726, Control_c, 0, 64, 0
2, 38727, Note_on_c, 0, 71, 60
2, 38738, Note_on_c, 0, 64, 0
2, 38745, Note_on_c, 0, 71, 0
2, 38747, Note_on_c, 0, 59, 0
2, 38751, Note_on_c, 0, 54, 0
2, 38767, Note_on_c, 0, 76, 30
2, 38774, Control_c, 0, 64, 127
2, 38780, Note_on_c, 0, 76, 0
2, 38800, Note_on_c, 0, 78, 52
2, 38824, Note_on_c, 0, 78, 0
2, 38842, Note_on_c, 0, 83, 80
2, 38847, Control_c, 0, 64, 0
2, 38852, Note_on_c, 0, 56, 57
2, 38853, Note_on_c, 0, 49, 55
2, 38875, Note_on_c, 0, 83, 0
2, 38875, Control_c, 0, 64, 127
2, 38879, Note_on_c, 0, 49, 0
2, 38887, Note_on_c, 0, 56, 0
2, 38934, Note_on_c, 0, 80, 45
2, 38961, Note_on_c, 0, 80, 0
2, 38965, Control_c, 0, 64, 0
2, 38966, Note_on_c, 0, 63, 60
2, 38967, Note_on_c, 0, 58, 59
2, 38969, Note_on_c, 0, 53, 54
2, 38971, Note_on_c, 0, 87, 76
2, 38995, Note_on_c, 0, 87, 0
2, 39011, Control_c, 0, 64, 127
2, 39058, Note_on_c, 0, 53, 0
2, 39060, Note_on_c, 0, 84, 63
2, 39079, Note_on_c, 0, 84, 0
2, 39079, Note_on_c, 0, 58, 0
2, 39083, Note_on_c, 0, 63, 0
2, 39095, Note_on_c, 0, 85, 64
2, 39108, Note_on_c, 0, 85, 0
2, 39119, Control_c, 0, 64, 0
2, 39130, Note_on_c, 0, 65, 65
2, 39133, Note_on_c, 0, 55, 52
2, 39134, Note_on_c, 0, 60, 47
2, 39200, Note_on_c, 0, 89, 83
2, 39224, Note_on_c, 0, 89, 0
2, 39242, Note_on_c, 0, 92, 77
2, 39262, Note_on_c, 0, 92, 0
2, 39273, Note_on_c, 0, 60, 0
2, 39274, Note_on_c, 0, 65, 0
2, 39282, Note_on_c, 0, 96, 91
2, 39287, Note_on_c, 0, 55, 0
2, 39294, Control_c, 0, 64, 127
2, 39303, Note_on_c, 0, 96, 0
2, 39360, Control_c, 0, 64, 0
2, 39364, Note_on_c, 0, 85, 76
2, 39365, Note_on_c, 0, 97, 79
2, 39416, Note_on_c, 0, 85, 0
2, 39421, Note_on_c, 0, 97, 0
2, 39447, Note_on_c, 0, 86, 78
2, 39447, Note_on_c, 0, 98, 77
2, 39451, Note_on_c, 0, 92, 45
2, 39454, Note_on_c, 0, 96, 45
2, 39457, Note_on_c, 0, 62, 30
2, 39457, Note_on_c, 0, 65, 27
2, 39458, Note_on_c, 0, 92, 0
2, 39464, Note_on_c, 0, 65, 0
2, 39467, Note_on_c, 0, 62, 0
2, 39468, Note_on_c, 0, 86, 0
2, 39469, Note_on_c, 0, 98, 0
2, 39473, Note_on_c, 0, 96, 0
2, 39502, Note_on_c, 0, 99, 71
2, 39502, Note_on_c, 0, 87, 64
2, 39520, Note_on_c, 0, 87, 0
2, 39526, Control_c, 0, 64, 127
2, 39527, Note_on_c, 0, 99, 0
2, 39557, Note_on_c, 0, 62, 39
2, 39561, Note_on_c, 0, 67, 37
2, 39562, Note_on_c, 0, 88, 76
2, 39562, Note_on_c, 0, 100, 76
2, 39570, Note_on_c, 0, 67, 0
2, 39578, Note_on_c, 0, 62, 0
2, 39580, Note_on_c, 0, 88, 0
2, 39581, Note_on_c, 0, 100, 0
2, 39591, Control_c, 0, 64, 0
2, 39605, Note_on_c, 0, 67, 64
2, 39605, Note_on_c, 0, 62, 39
2, 39605, Note_on_c, 0, 56, 46
2, 39611, Note_on_c, 0, 60, 44
2, 39612, Note_on_c, 0, 101, 74
2, 39613, Note_on_c, 0, 89, 68
2, 39635, Note_on_c, 0, 101, 0
2, 39645, Note_on_c, 0, 89, 0
2, 39645, Control_c, 0, 64, 127
2, 39647, Note_on_c, 0, 67, 0
2, 39653, Note_on_c, 0, 60, 0
2, 39657, Note_on_c, 0, 56, 0
2, 39664, Note_on_c, 0, 62, 0
2, 39682, Note_on_c, 0, 86, 61
2, 39683, Control_c, 0, 64, 0
2, 39683, Note_on_c, 0, 94, 61
2, 39684, Note_on_c, 0, 62, 67
2, 39685, Note_on_c, 0, 98, 62
2, 39685, Note_on_c, 0, 92, 54
2, 39686, Note_on_c, 0, 66, 69
2, 39686, Note_on_c, 0, 56, 53
2, 39691, Note_on_c, 0, 60, 54
2, 39718, Note_on_c, 0, 92, 0
2, 39733, Control_c, 0, 64, 127
2, 39754, Note_on_c, 0, 95, 24
2, 39770, Note_on_c, 0, 95, 0
2, 39770, Note_on_c, 0, 94, 0
2, 39781, Note_on_c, 0, 62, 0
2, 39784, Note_on_c, 0, 60, 0
2, 39790, Note_on_c, 0, 98, 0
2, 39798, Note_on_c, 0, 66, 0
2, 39802, Note_on_c, 0, 86, 0
2, 39830, Note_on_c, 0, 56, 0
2, 39835, Control_c, 0, 64, 0
2, 39842, Note_on_c, 0, 65, 47
2, 39842, Note_on_c, 0, 61, 38
2, 39843, Note_on_c, 0, 55, 44
2, 39845, Note_on_c, 0, 84, 39
2, 39845, Note_on_c, 0, 96, 49
2, 39845, Note_on_c, 0, 60, 31
2, 39848, Note_on_c, 0, 58, 25
2, 39910, Note_on_c, 0, 96, 0
2, 39919, Note_on_c, 0, 84, 0
2, 39922, Note_on_c, 0, 55, 0
2, 39924, Note_on_c, 0, 65, 0
2, 39928, Note_on_c, 0, 60, 0
2, 39929, Note_on_c, 0, 61, 0
2, 39939, Note_on_c, 0, 58, 0
2, 39960, Note_on_c, 0, 61, 31
2, 39960, Note_on_c, 0, 65, 43
2, 39961, Note_on_c, 0, 94, 60
2, 39961, Note_on_c, 0, 55, 40
2, 39962, Note_on_c, 0, 82, 45
2, 39963, Note_on_c, 0, 60, 30
2, 39965, Note_on_c, 0, 58, 21
2, 40004, Control_c, 0, 64, 127
2, 40006, Note_on_c, 0, 94, 0
2, 40016, Note_on_c, 0, 82, 0
2, 40033, Note_on_c, 0, 65, 0
2, 40034, Note_on_c, 0, 60, 0
2, 40036, Note_on_c, 0, 55, 0
2, 40041, Note_on_c, 0, 61, 0
2, 40051, Note_on_c, 0, 58, 0
2, 40068, Control_c, 0, 64, 0
2, 40079, Note_on_c, 0, 61, 33
2, 40079, Note_on_c, 0, 65, 38
2, 40082, Note_on_c, 0, 55, 32
2, 40082, Note_on_c, 0, 77, 31
2, 40082, Note_on_c, 0, 89, 34
2, 40084, Note_on_c, 0, 60, 30
2, 40136, Note_on_c, 0, 65, 0
2, 40138, Note_on_c, 0, 55, 0
2, 40141, Note_on_c, 0, 77, 0
2, 40141, Note_on_c, 0, 89, 0
2, 40144, Note_on_c, 0, 60, 0
2, 40146, Note_on_c, 0, 61, 0
2, 40163, Note_on_c, 0, 89, 48
2, 40165, Note_on_c, 0, 65, 40
2, 40165, Note_on_c, 0, 77, 41
2, 40166, Note_on_c, 0, 61, 37
2, 40168, Note_on_c, 0, 60, 40
2, 40171, Note_on_c, 0, 55, 24
2, 40175, Note_on_c, 0, 65, 0
2, 40176, Note_on_c, 0, 60, 0
2, 40178, Note_on_c, 0, 89, 0
2, 40178, Note_on_c, 0, 77, 0
2, 40180, Note_on_c, 0, 55, 0
2, 40183, Note_on_c, 0, 61, 0
2, 40325, Control_c, 0, 64, 127
2, 40395, Control_c, 0, 64, 0
2, 40395, Note_on_c, 0, 92, 92
2, 40395, Note_on_c, 0, 61, 80
2, 40396, Note_on_c, 0, 60, 90
2, 40396, Note_on_c, 0, 80, 92
2, 40397, Note_on_c, 0, 58, 62
2, 40397, Note_on_c, 0, 55, 85
2, 40397, Note_on_c, 0, 65, 99
2, 40437, Control_c, 0, 64, 127
2, 40440, Note_on_c, 0, 80, 0
2, 40441, Note_on_c, 0, 65, 0
2, 40442, Note_on_c, 0, 55, 0
2, 40444, Note_on_c, 0, 92, 0
2, 40446, Note_on_c, 0, 61, 0
2, 40446, Note_on_c, 0, 60, 0
2, 40448, Note_on_c, 0, 58, 0
2, 40456, Note_on_c, 0, 92, 60
2, 40457, Note_on_c, 0, 65, 68
2, 40458, Note_on_c, 0, 61, 60
2, 40460, Note_on_c, 0, 60, 53
2, 40460, Note_on_c, 0, 80, 56
2, 40460, Note_on_c, 0, 55, 74
2, 40463, Note_on_c, 0, 58, 35
2, 40487, Note_on_c, 0, 92, 0
2, 40495, Note_on_c, 0, 65, 0
2, 40495, Note_on_c, 0, 55, 0
2, 40499, Note_on_c, 0, 80, 0
2, 40503, Note_on_c, 0, 60, 0
2, 40504, Note_on_c, 0, 61, 0
2, 40506, Note_on_c, 0, 58, 0
2, 40521, Note_on_c, 0, 89, 70
2, 40522, Note_on_c, 0, 61, 56
2, 40524, Note_on_c, 0, 60, 58
2, 40524, Note_on_c, 0, 77, 58
2, 40525, Note_on_c, 0, 65, 80
2, 40526, Note_on_c, 0, 55, 72
2, 40529, Note_on_c, 0, 58, 43
2, 40532, Note_on_c, 0, 84, 24
2, 40539, Control_c, 0, 64, 0
2, 40544, Note_on_c, 0, 84, 0
2, 40550, Note_on_c, 0, 65, 0
2, 40551, Note_on_c, 0, 55, 0
2, 40552, Note_on_c, 0, 89, 0
2, 40557, Note_on_c, 0, 60, 0
2, 40559, Note_on_c, 0, 61, 0
2, 40559, Note_on_c, 0, 77, 0
2, 40560, Note_on_c, 0, 58, 0
2, 40571, Note_on_c, 0, 65, 56
2, 40573, Note_on_c, 0, 89, 49
2, 40573, Note_on_c, 0, 61, 58
2, 40575, Note_on_c, 0, 55, 44
2, 40575, Note_on_c, 0, 60, 50
2, 40575, Note_on_c, 0, 77, 54
2, 40579, Control_c, 0, 64, 127
2, 40580, Note_on_c, 0, 58, 27
2, 40581, Note_on_c, 0, 89, 0
2, 40593, Note_on_c, 0, 77, 0
2, 40598, Note_on_c, 0, 65, 0
2, 40613, Note_on_c, 0, 55, 0
2, 40618, Note_on_c, 0, 60, 0
2, 40623, Note_on_c, 0, 61, 0
2, 40624, Note_on_c, 0, 58, 0
2, 40641, Note_on_c, 0, 84, 57
2, 40643, Note_on_c, 0, 61, 39
2, 40644, Note_on_c, 0, 65, 62
2, 40644, Note_on_c, 0, 55, 52
2, 40644, Note_on_c, 0, 60, 56
2, 40645, Note_on_c, 0, 72, 46
2, 40652, Control_c, 0, 64, 0
2, 40661, Note_on_c, 0, 65, 0
2, 40662, Note_on_c, 0, 72, 0
2, 40665, Note_on_c, 0, 84, 0
2, 40672, Note_on_c, 0, 55, 0
2, 40673, Note_on_c, 0, 60, 0
2, 40674, Note_on_c, 0, 61, 0
2, 40689, Note_on_c, 0, 55, 38
2, 40689, Note_on_c, 0, 61, 34
2, 40690, Note_on_c, 0, 60, 31
2, 40690, Note_on_c, 0, 65, 34
2, 40691, Note_on_c, 0, 72, 57
2, 40692, Control_c, 0, 64, 127
2, 40705, Note_on_c, 0, 72, 0
2, 40706, Note_on_c, 0, 65, 0
2, 40719, Note_on_c, 0, 55, 0
2, 40722, Note_on_c, 0, 60, 0
2, 40726, Note_on_c, 0, 61, 0
2, 40774, Note_on_c, 0, 52, 29
2, 40782, Note_on_c, 0, 52, 0
2, 40802, Control_c, 0, 64, 0
2, 40802, Note_on_c, 0, 68, 63
2, 40803, Note_on_c, 0, 61, 51
2, 40805, Note_on_c, 0, 64, 60
2, 40806, Note_on_c, 0, 57, 47
2, 40807, Note_on_c, 0, 56, 77
2, 40813, Note_on_c, 0, 66, 26
2, 40877, Note_on_c, 0, 56, 0
2, 40877, Note_on_c, 0, 57, 0
2, 40880, Control_c, 0, 64, 127
2, 40887, Note_on_c, 0, 68, 0
2, 40893, Note_on_c, 0, 54, 31
2, 40894, Note_on_c, 0, 64, 0
2, 40894, Note_on_c, 0, 66, 0
2, 40898, Note_on_c, 0, 61, 0
2, 40906, Control_c, 0, 64, 0
2, 40918, Note_on_c, 0, 54, 0
2, 40918, Note_on_c, 0, 61, 33
2, 40918, Note_on_c, 0, 68, 48
2, 40921, Note_on_c, 0, 64, 36
2, 40922, Note_on_c, 0, 57, 34
2, 40924, Note_on_c, 0, 56, 36
2, 40973, Control_c, 0, 64, 127
2, 40974, Note_on_c, 0, 57, 0
2, 40978, Note_on_c, 0, 64, 0
2, 40988, Note_on_c, 0, 56, 0
2, 40988, Note_on_c, 0, 61, 0
2, 40994, Note_on_c, 0, 68, 0
2, 40999, Control_c, 0, 64, 0
2, 41002, Note_on_c, 0, 66, 42
2, 41003, Note_on_c, 0, 61, 29
2, 41005, Note_on_c, 0, 57, 48
2, 41005, Note_on_c, 0, 54, 49
2, 41006, Note_on_c, 0, 64, 29
2, 41041, Note_on_c, 0, 57, 0
2, 41041, Note_on_c, 0, 61, 0
2, 41058, Note_on_c, 0, 64, 0
2, 41061, Note_on_c, 0, 54, 0
2, 41063, Note_on_c, 0, 61, 45
2, 41065, Note_on_c, 0, 57, 36
2, 41074, Note_on_c, 0, 56, 20
2, 41079, Control_c, 0, 64, 127
2, 41122, Note_on_c, 0, 57, 0
2, 41133, Note_on_c, 0, 61, 0
2, 41142, Note_on_c, 0, 56, 0
2, 41146, Control_c, 0, 64, 0
2, 41156, Note_on_c, 0, 61, 37
2, 41161, Note_on_c, 0, 54, 38
2, 41161, Note_on_c, 0, 57, 45
2, 41189, Note_on_c, 0, 54, 0
2, 41216, Control_c, 0, 64, 127
2, 41282, Control_c, 0, 64, 0
2, 41306, Control_c, 0, 64, 127
2, 41376, Control_c, 0, 64, 0
2, 41422, Control_c, 0, 64, 127
2, 41449, Note_on_c, 0, 57, 0
2, 41455, Note_on_c, 0, 66, 0
2, 41468, Note_on_c, 0, 61, 0
2, 41511, Control_c, 0, 64, 0
2, 41514, Note_on_c, 0, 58, 60
2, 41515, Note_on_c, 0, 61, 46
2, 41515, Note_on_c, 0, 64, 63
2, 41515, Note_on_c, 0, 55, 66
2, 41519, Note_on_c, 0, 52, 61
2, 41543, Note_on_c, 0, 64, 0
2, 41551, Control_c, 0, 64, 127
2, 41557, Note_on_c, 0, 61, 0
2, 41558, Note_on_c, 0, 58, 0
2, 41558, Note_on_c, 0, 55, 0
2, 41595, Note_on_c, 0, 67, 76
2, 41597, Note_on_c, 0, 52, 0
2, 41597, Note_on_c, 0, 58, 58
2, 41598, Note_on_c, 0, 55, 66
2, 41598, Note_on_c, 0, 61, 48
2, 41617, Note_on_c, 0, 67, 0
2, 41625, Note_on_c, 0, 61, 0
2, 41630, Note_on_c, 0, 55, 0
2, 41630, Note_on_c, 0, 58, 0
2, 41639, Control_c, 0, 64, 0
2, 41649, Note_on_c, 0, 54, 60
2, 41649, Note_on_c, 0, 66, 33
2, 41651, Note_on_c, 0, 60, 51
2, 41663, Note_on_c, 0, 68, 13
2, 41676, Note_on_c, 0, 54, 0
2, 41677, Control_c, 0, 64, 127
2, 41692, Note_on_c, 0, 68, 0
2, 41698, Note_on_c, 0, 60, 0
2, 41703, Note_on_c, 0, 66, 0
2, 41763, Control_c, 0, 64, 0
2, 41837, Note_on_c, 0, 63, 54
2, 41838, Note_on_c, 0, 67, 47
2, 41840, Note_on_c, 0, 53, 51
2, 41841, Note_on_c, 0, 58, 39
2, 41841, Note_on_c, 0, 59, 49
2, 41844, Note_on_c, 0, 49, 33
2, 41849, Control_c, 0, 64, 127
2, 41852, Note_on_c, 0, 58, 0
2, 41853, Note_on_c, 0, 63, 0
2, 41857, Note_on_c, 0, 59, 0
2, 41857, Note_on_c, 0, 53, 0
2, 41858, Note_on_c, 0, 67, 0
2, 41860, Note_on_c, 0, 49, 0
2, 41914, Note_on_c, 0, 75, 74
2, 41915, Note_on_c, 0, 53, 45
2, 41917, Note_on_c, 0, 63, 52
2, 41918, Note_on_c, 0, 79, 56
2, 41921, Note_on_c, 0, 67, 33
2, 41921, Note_on_c, 0, 58, 42
2, 41934, Note_on_c, 0, 67, 0
2, 41961, Note_on_c, 0, 53, 0
2, 41972, Note_on_c, 0, 79, 0
2, 41972, Note_on_c, 0, 75, 0
2, 41974, Note_on_c, 0, 58, 0
2, 41975, Note_on_c, 0, 63, 0
2, 41998, Control_c, 0, 64, 0
2, 42000, Note_on_c, 0, 75, 43
2, 42000, Note_on_c, 0, 72, 44
2, 42002, Note_on_c, 0, 65, 36
2, 42005, Note_on_c, 0, 60, 44
2, 42024, Control_c, 0, 64, 127
2, 42026, Note_on_c, 0, 75, 0
2, 42035, Note_on_c, 0, 65, 0
2, 42036, Note_on_c, 0, 72, 0
2, 42045, Note_on_c, 0, 60, 0
2, 42081, Note_on_c, 0, 63, 55
2, 42085, Note_on_c, 0, 53, 37
2, 42085, Note_on_c, 0, 75, 59
2, 42086, Control_c, 0, 64, 0
2, 42087, Note_on_c, 0, 79, 40
2, 42088, Note_on_c, 0, 82, 35
2, 42088, Note_on_c, 0, 70, 43
2, 42090, Note_on_c, 0, 58, 35
2, 42122, Control_c, 0, 64, 127
2, 42165, Note_on_c, 0, 79, 0
2, 42180, Note_on_c, 0, 75, 0
2, 42181, Note_on_c, 0, 82, 0
2, 42186, Note_on_c, 0, 53, 0
2, 42188, Note_on_c, 0, 70, 0
2, 42194, Note_on_c, 0, 58, 0
2, 42200, Note_on_c, 0, 63, 0
2, 42233, Control_c, 0, 64, 0
2, 42239, Note_on_c, 0, 64, 44
2, 42243, Note_on_c, 0, 75, 38
2, 42243, Note_on_c, 0, 67, 29
2, 42243, Note_on_c, 0, 79, 32
2, 42244, Note_on_c, 0, 59, 43
2, 42247, Note_on_c, 0, 54, 28
2, 42355, Control_c, 0, 64, 127
2, 42360, Note_on_c, 0, 59, 0
2, 42361, Note_on_c, 0, 64, 0
2, 42362, Note_on_c, 0, 67, 0
2, 42365, Note_on_c, 0, 79, 0
2, 42376, Note_on_c, 0, 75, 0
2, 42384, Note_on_c, 0, 54, 0
2, 42465, Control_c, 0, 64, 0
2, 42477, Note_on_c, 0, 63, 74
2, 42477, Note_on_c, 0, 58, 73
2, 42478, Note_on_c, 0, 53, 69
2, 42478, Note_on_c, 0, 80, 79
2, 42478, Note_on_c, 0, 68, 87
2, 42479, Note_on_c, 0, 75, 77
2, 42504, Note_on_c, 0, 68, 0
2, 42507, Note_on_c, 0, 53, 0
2, 42508, Note_on_c, 0, 75, 0
2, 42509, Note_on_c, 0, 63, 0
2, 42510, Note_on_c, 0, 80, 0
2, 42518, Note_on_c, 0, 58, 0
2, 42598, Note_on_c, 0, 63, 56
2, 42598, Note_on_c, 0, 58, 60
2, 42601, Note_on_c, 0, 68, 78
2, 42602, Note_on_c, 0, 80, 64
2, 42603, Note_on_c, 0, 75, 68
2, 42628, Note_on_c, 0, 68, 0
2, 42631, Note_on_c, 0, 75, 0
2, 42631, Note_on_c, 0, 63, 0
2, 42633, Note_on_c, 0, 58, 0
2, 42636, Note_on_c, 0, 80, 0
2, 42658, Control_c, 0, 64, 127
2, 42706, Control_c, 0, 64, 0
2, 42721, Note_on_c, 0, 65, 55
2, 42722, Note_on_c, 0, 81, 55
2, 42722, Note_on_c, 0, 75, 55
2, 42723, Note_on_c, 0, 54, 35
2, 42723, Note_on_c, 0, 58, 42
2, 42724, Note_on_c, 0, 60, 49
2, 42724, Note_on_c, 0, 69, 54
2, 42748, Control_c, 0, 64, 127
2, 42768, Note_on_c, 0, 69, 0
2, 42773, Note_on_c, 0, 81, 0
2, 42778, Note_on_c, 0, 65, 0
2, 42779, Note_on_c, 0, 60, 0
2, 42782, Note_on_c, 0, 54, 0
2, 42783, Note_on_c, 0, 58, 0
2, 42784, Note_on_c, 0, 75, 0
2, 42804, Note_on_c, 0, 82, 71
2, 42806, Note_on_c, 0, 75, 63
2, 42806, Note_on_c, 0, 54, 60
2, 42806, Note_on_c, 0, 70, 70
2, 42806, Note_on_c, 0, 58, 53
2, 42808, Note_on_c, 0, 65, 69
2, 42808, Note_on_c, 0, 60, 59
2, 42824, Note_on_c, 0, 65, 0
2, 42834, Note_on_c, 0, 70, 0
2, 42836, Note_on_c, 0, 60, 0
2, 42838, Note_on_c, 0, 75, 0
2, 42841, Control_c, 0, 64, 0
2, 42842, Note_on_c, 0, 82, 0
2, 42844, Note_on_c, 0, 58, 0
2, 42851, Note_on_c, 0, 65, 50
2, 42856, Note_on_c, 0, 60, 45
2, 42857, Note_on_c, 0, 58, 12
2, 42859, Note_on_c, 0, 75, 34
2, 42860, Note_on_c, 0, 81, 29
2, 42862, Note_on_c, 0, 69, 48
2, 42869, Control_c, 0, 64, 127
2, 42872, Note_on_c, 0, 65, 0
2, 42881, Note_on_c, 0, 81, 0
2, 42883, Note_on_c, 0, 60, 0
2, 42884, Note_on_c, 0, 69, 0
2, 42887, Note_on_c, 0, 58, 0
2, 42893, Note_on_c, 0, 75, 0
2, 42896, Note_on_c, 0, 54, 0
2, 42923, Note_on_c, 0, 54, 54
2, 42924, Note_on_c, 0, 65, 62
2, 42924, Note_on_c, 0, 75, 55
2, 42925, Note_on_c, 0, 82, 50
2, 42926, Note_on_c, 0, 70, 42
2, 42927, Note_on_c, 0, 58, 45
2, 42927, Note_on_c, 0, 60, 59
2, 42940, Note_on_c, 0, 65, 0
2, 42941, Note_on_c, 0, 70, 0
2, 42944, Note_on_c, 0, 82, 0
2, 42945, Note_on_c, 0, 54, 0
2, 42946, Note_on_c, 0, 75, 0
2, 42949, Note_on_c, 0, 60, 0
2, 42953, Note_on_c, 0, 58, 0
2, 42958, Control_c, 0, 64, 0
2, 43092, Control_c, 0, 64, 127
2, 43133, Note_on_c, 0, 75, 62
2, 43136, Note_on_c, 0, 81, 33
2, 43136, Note_on_c, 0, 58, 51
2, 43139, Note_on_c, 0, 60, 44
2, 43139, Note_on_c, 0, 65, 40
2, 43144, Note_on_c, 0, 81, 0
2, 43147, Note_on_c, 0, 60, 0
2, 43147, Note_on_c, 0, 65, 0
2, 43148, Note_on_c, 0, 75, 0
2, 43153, Note_on_c, 0, 58, 0
2, 43165, Note_on_c, 0, 70, 74
2, 43167, Note_on_c, 0, 82, 71
2, 43177, Note_on_c, 0, 70, 0
2, 43184, Note_on_c, 0, 82, 0
2, 43209, Note_on_c, 0, 58, 77
2, 43210, Note_on_c, 0, 52, 82
2, 43210, Note_on_c, 0, 63, 75
2, 43211, Note_on_c, 0, 75, 94
2, 43212, Note_on_c, 0, 87, 93
2, 43214, Control_c, 0, 64, 0
2, 43258, Control_c, 0, 64, 127
2, 43330, Note_on_c, 0, 63, 0
2, 43340, Note_on_c, 0, 52, 0
2, 43379, Note_on_c, 0, 58, 0
2, 43385, Note_on_c, 0, 87, 0
2, 43398, Note_on_c, 0, 75, 0
2, 43443, Control_c, 0, 64, 0
2, 43443, Note_on_c, 0, 85, 71
2, 43445, Note_on_c, 0, 63, 63
2, 43445, Note_on_c, 0, 58, 62
2, 43446, Note_on_c, 0, 73, 37
2, 43446, Note_on_c, 0, 80, 57
2, 43451, Note_on_c, 0, 52, 39
2, 43458, Note_on_c, 0, 73, 0
2, 43458, Note_on_c, 0, 63, 0
2, 43459, Note_on_c, 0, 52, 0
2, 43463, Note_on_c, 0, 80, 0
2, 43466, Note_on_c, 0, 58, 0
2, 43466, Note_on_c, 0, 85, 0
2, 43557, Note_on_c, 0, 63, 54
2, 43558, Note_on_c, 0, 84, 50
2, 43559, Note_on_c, 0, 52, 47
2, 43560, Note_on_c, 0, 79, 49
2, 43560, Note_on_c, 0, 58, 43
2, 43562, Note_on_c, 0, 72, 50
2, 43569, Note_on_c, 0, 52, 0
2, 43571, Note_on_c, 0, 84, 0
2, 43575, Note_on_c, 0, 79, 0
2, 43579, Note_on_c, 0, 63, 0
2, 43582, Note_on_c, 0, 72, 0
2, 43591, Note_on_c, 0, 58, 0
2, 43591, Control_c, 0, 64, 127
2, 43684, Control_c, 0, 64, 0
2, 43710, Control_c, 0, 64, 127
2, 43753, Note_on_c, 0, 83, 71
2, 43756, Note_on_c, 0, 79, 58
2, 43757, Note_on_c, 0, 63, 59
2, 43758, Control_c, 0, 64, 0
2, 43758, Note_on_c, 0, 75, 77
2, 43760, Note_on_c, 0, 53, 50
2, 43760, Note_on_c, 0, 82, 29
2, 43762, Note_on_c, 0, 71, 74
2, 43764, Note_on_c, 0, 57, 53
2, 43772, Note_on_c, 0, 57, 0
2, 43778, Note_on_c, 0, 82, 0
2, 43803, Note_on_c, 0, 83, 0
2, 43814, Note_on_c, 0, 75, 0
2, 43814, Control_c, 0, 64, 127
2, 43816, Note_on_c, 0, 79, 0
2, 43822, Note_on_c, 0, 71, 0
2, 43831, Note_on_c, 0, 63, 0
2, 43833, Note_on_c, 0, 83, 72
2, 43833, Note_on_c, 0, 57, 59
2, 43833, Note_on_c, 0, 79, 47
2, 43836, Note_on_c, 0, 75, 45
2, 43868, Note_on_c, 0, 75, 0
2, 43873, Note_on_c, 0, 79, 0
2, 43881, Note_on_c, 0, 83, 0
2, 43914, Note_on_c, 0, 83, 62
2, 43918, Note_on_c, 0, 79, 43
2, 43918, Note_on_c, 0, 75, 55
2, 43918, Note_on_c, 0, 63, 33
2, 43920, Note_on_c, 0, 71, 54
2, 43935, Note_on_c, 0, 79, 0
2, 43937, Note_on_c, 0, 53, 0
2, 43947, Note_on_c, 0, 83, 0
2, 43955, Note_on_c, 0, 75, 0
2, 43955, Note_on_c, 0, 71, 0
2, 43998, Note_on_c, 0, 53, 58
2, 44006, Note_on_c, 0, 63, 0
2, 44017, Note_on_c, 0, 57, 0
2, 44023, Note_on_c, 0, 53, 0
2, 44055, Note_on_c, 0, 81, 62
2, 44058, Note_on_c, 0, 69, 56
2, 44058, Note_on_c, 0, 74, 56
2, 44061, Note_on_c, 0, 77, 47
2, 44080, Note_on_c, 0, 77, 0
2, 44080, Note_on_c, 0, 81, 0
2, 44090, Note_on_c, 0, 74, 0
2, 44101, Note_on_c, 0, 69, 0
2, 44141, Control_c, 0, 64, 0
2, 44150, Note_on_c, 0, 77, 37
2, 44150, Note_on_c, 0, 65, 46
2, 44151, Note_on_c, 0, 74, 33
2, 44153, Note_on_c, 0, 46, 45
2, 44195, Control_c, 0, 64, 127
2, 44219, Note_on_c, 0, 77, 0
2, 44222, Note_on_c, 0, 74, 0
2, 44236, Note_on_c, 0, 65, 0
2, 44240, Note_on_c, 0, 53, 36
2, 44251, Note_on_c, 0, 53, 0
2, 44353, Note_on_c, 0, 65, 54
2, 44354, Note_on_c, 0, 63, 38
2, 44356, Control_c, 0, 64, 0
2, 44356, Note_on_c, 0, 56, 45
2, 44356, Note_on_c, 0, 60, 49
2, 44382, Control_c, 0, 64, 127
2, 44384, Note_on_c, 0, 60, 0
2, 44388, Note_on_c, 0, 65, 0
2, 44391, Note_on_c, 0, 63, 0
2, 44479, Note_on_c, 0, 72, 96
2, 44504, Control_c, 0, 64, 0
2, 44512, Note_on_c, 0, 56, 0
2, 44519, Note_on_c, 0, 72, 0
2, 44520, Control_c, 0, 64, 127
2, 44520, Note_on_c, 0, 70, 37
2, 44522, Note_on_c, 0, 68, 55
2, 44531, Note_on_c, 0, 46, 0
2, 44537, Note_on_c, 0, 70, 0
2, 44542, Note_on_c, 0, 68, 0
2, 44555, Note_on_c, 0, 65, 74
2, 44578, Note_on_c, 0, 65, 0
2, 44589, Note_on_c, 0, 61, 65
2, 44621, Note_on_c, 0, 61, 0
2, 44628, Control_c, 0, 64, 0
2, 44635, Note_on_c, 0, 51, 56
2, 44636, Note_on_c, 0, 60, 62
2, 44662, Control_c, 0, 64, 127
2, 44690, Note_on_c, 0, 51, 0
2, 44699, Note_on_c, 0, 60, 0
2, 44843, Note_on_c, 0, 65, 49
2, 44845, Note_on_c, 0, 61, 36
2, 44846, Note_on_c, 0, 60, 37
2, 44847, Note_on_c, 0, 55, 41
2, 44863, Control_c, 0, 64, 0
2, 44887, Control_c, 0, 64, 127
2, 44998, Note_on_c, 0, 65, 0
2, 45006, Note_on_c, 0, 73, 35
2, 45008, Note_on_c, 0, 60, 0
2, 45010, Note_on_c, 0, 55, 0
2, 45017, Note_on_c, 0, 61, 0
2, 45031, Note_on_c, 0, 73, 0
2, 45124, Control_c, 0, 64, 0
2, 45127, Note_on_c, 0, 81, 51
2, 45127, Note_on_c, 0, 69, 54
2, 45129, Note_on_c, 0, 65, 46
2, 45129, Note_on_c, 0, 58, 35
2, 45130, Note_on_c, 0, 77, 41
2, 45132, Note_on_c, 0, 60, 41
2, 45133, Note_on_c, 0, 54, 33
2, 45182, Control_c, 0, 64, 127
2, 45245, Note_on_c, 0, 65, 0
2, 45251, Note_on_c, 0, 60, 0
2, 45263, Note_on_c, 0, 69, 0
2, 45265, Note_on_c, 0, 58, 0
2, 45265, Note_on_c, 0, 81, 0
2, 45274, Note_on_c, 0, 54, 0
2, 45276, Note_on_c, 0, 77, 0
2, 45367, Note_on_c, 0, 82, 49
2, 45368, Control_c, 0, 64, 0
2, 45371, Note_on_c, 0, 54, 33
2, 45372, Note_on_c, 0, 60, 30
2, 45372, Note_on_c, 0, 70, 26
2, 45373, Note_on_c, 0, 64, 32
2, 45411, Control_c, 0, 64, 127
2, 45454, Note_on_c, 0, 64, 0
2, 45461, Note_on_c, 0, 70, 0
2, 45467, Note_on_c, 0, 60, 0
2, 45470, Note_on_c, 0, 82, 0
2, 45478, Note_on_c, 0, 54, 0
2, 45564, Note_on_c, 0, 84, 32
2, 45565, Note_on_c, 0, 80, 34
2, 45566, Note_on_c, 0, 77, 39
2, 45566, Note_on_c, 0, 72, 26
2, 45566, Note_on_c, 0, 63, 35
2, 45568, Note_on_c, 0, 60, 48
2, 45570, Note_on_c, 0, 56, 35
2, 45571, Note_on_c, 0, 53, 34
2, 45573, Control_c, 0, 64, 0
2, 45641, Control_c, 0, 64, 127
2, 45698, Note_on_c, 0, 63, 0
2, 45723, Note_on_c, 0, 72, 0
2, 45726, Note_on_c, 0, 60, 0
2, 45746, Note_on_c, 0, 77, 0
2, 45752, Note_on_c, 0, 56, 0
2, 45767, Note_on_c, 0, 80, 0
2, 45837, Note_on_c, 0, 84, 0
2, 45840, Note_on_c, 0, 72, 35
2, 45840, Note_on_c, 0, 63, 31
2, 45843, Note_on_c, 0, 77, 33
2, 45843, Note_on_c, 0, 60, 36
2, 45845, Note_on_c, 0, 56, 27
2, 45886, Note_on_c, 0, 77, 0
2, 45905, Note_on_c, 0, 72, 0
2, 45950, Note_on_c, 0, 63, 0
2, 45952, Note_on_c, 0, 60, 0
2, 46033, Note_on_c, 0, 56, 0
2, 46037, Note_on_c, 0, 75, 46
2, 46041, Note_on_c, 0, 68, 36
2, 46042, Note_on_c, 0, 65, 40
2, 46044, Note_on_c, 0, 63, 34
2, 46044, Note_on_c, 0, 72, 42
2, 46048, Control_c, 0, 64, 0
2, 46086, Control_c, 0, 64, 127
2, 46117, Note_on_c, 0, 65, 0
2, 46129, Note_on_c, 0, 72, 0
2, 46138, Note_on_c, 0, 68, 0
2, 46144, Note_on_c, 0, 75, 0
2, 46145, Note_on_c, 0, 53, 0
2, 46152, Note_on_c, 0, 63, 0
2, 46399, Note_on_c, 0, 60, 82
2, 46401, Note_on_c, 0, 84, 99
2, 46407, Control_c, 0, 64, 0
2, 46433, Control_c, 0, 64, 127
2, 46440, Note_on_c, 0, 60, 0
2, 46443, Note_on_c, 0, 80, 55
2, 46443, Note_on_c, 0, 82, 38
2, 46446, Note_on_c, 0, 56, 23
2, 46448, Note_on_c, 0, 84, 0
2, 46456, Note_on_c, 0, 56, 0
2, 46461, Note_on_c, 0, 82, 0
2, 46469, Note_on_c, 0, 80, 0
2, 46480, Note_on_c, 0, 77, 41
2, 46482, Note_on_c, 0, 76, 34
2, 46491, Note_on_c, 0, 76, 0
2, 46504, Note_on_c, 0, 77, 0
2, 46513, Note_on_c, 0, 73, 51
2, 46545, Note_on_c, 0, 73, 0
2, 46560, Control_c, 0, 64, 0
2, 46560, Note_on_c, 0, 61, 46
2, 46561, Note_on_c, 0, 60, 44
2, 46561, Note_on_c, 0, 72, 72
2, 46561, Note_on_c, 0, 55, 61
2, 46562, Note_on_c, 0, 65, 66
2, 46656, Control_c, 0, 64, 127
2, 46803, Note_on_c, 0, 65, 0
2, 46823, Note_on_c, 0, 61, 0
2, 46825, Note_on_c, 0, 60, 0
2, 46826, Note_on_c, 0, 55, 0
2, 46868, Note_on_c, 0, 72, 0
2, 46885, Note_on_c, 0, 73, 49
2, 46888, Note_on_c, 0, 65, 55
2, 46889, Note_on_c, 0, 60, 35
2, 46889, Note_on_c, 0, 55, 48
2, 46891, Note_on_c, 0, 61, 32
2, 46893, Control_c, 0, 64, 0
2, 46913, Control_c, 0, 64, 127
2, 46940, Note_on_c, 0, 65, 0
2, 46941, Note_on_c, 0, 60, 0
2, 46948, Note_on_c, 0, 73, 0
2, 46952, Note_on_c, 0, 55, 0
2, 46953, Note_on_c, 0, 61, 0
2, 47045, Control_c, 0, 64, 0
2, 47051, Note_on_c, 0, 81, 57
2, 47053, Note_on_c, 0, 69, 49
2, 47053, Note_on_c, 0, 58, 36
2, 47054, Note_on_c, 0, 65, 58
2, 47055, Note_on_c, 0, 77, 36
2, 47055, Note_on_c, 0, 60, 45
2, 47055, Note_on_c, 0, 74, 37
2, 47056, Note_on_c, 0, 54, 47
2, 47070, Note_on_c, 0, 74, 0
2, 47096, Control_c, 0, 64, 127
2, 47168, Note_on_c, 0, 65, 0
2, 47173, Note_on_c, 0, 60, 0
2, 47178, Note_on_c, 0, 69, 0
2, 47184, Note_on_c, 0, 54, 0
2, 47184, Note_on_c, 0, 58, 0
2, 47185, Note_on_c, 0, 81, 0
2, 47190, Note_on_c, 0, 77, 0
2, 47283, Control_c, 0, 64, 0
2, 47290, Note_on_c, 0, 82, 56
2, 47293, Note_on_c, 0, 75, 49
2, 47293, Note_on_c, 0, 58, 36
2, 47293, Note_on_c, 0, 64, 39
2, 47295, Note_on_c, 0, 54, 35
2, 47297, Note_on_c, 0, 60, 36
2, 47297, Note_on_c, 0, 70, 25
2, 47315, Control_c, 0, 64, 127
2, 47318, Note_on_c, 0, 64, 0
2, 47324, Note_on_c, 0, 60, 0
2, 47338, Note_on_c, 0, 58, 0
2, 47345, Note_on_c, 0, 54, 0
2, 47389, Note_on_c, 0, 75, 0
2, 47396, Note_on_c, 0, 70, 0
2, 47399, Note_on_c, 0, 82, 0
2, 47509, Control_c, 0, 64, 0
2, 47522, Note_on_c, 0, 82, 71
2, 47522, Note_on_c, 0, 44, 64
2, 47522, Note_on_c, 0, 37, 63
2, 47523, Note_on_c, 0, 70, 69
2, 47525, Note_on_c, 0, 77, 57
2, 47539, Control_c, 0, 64, 127
2, 47543, Note_on_c, 0, 37, 0
2, 47550, Note_on_c, 0, 82, 0
2, 47550, Note_on_c, 0, 77, 0
2, 47550, Note_on_c, 0, 44, 0
2, 47555, Note_on_c, 0, 70, 0
2, 47619, Note_on_c, 0, 75, 56
2, 47621, Note_on_c, 0, 53, 44
2, 47623, Note_on_c, 0, 68, 42
2, 47623, Note_on_c, 0, 65, 50
2, 47624, Note_on_c, 0, 63, 32
2, 47626, Note_on_c, 0, 58, 37
2, 47626, Note_on_c, 0, 72, 36
2, 47642, Note_on_c, 0, 65, 0
2, 47650, Note_on_c, 0, 72, 0
2, 47653, Note_on_c, 0, 68, 0
2, 47660, Note_on_c, 0, 75, 0
2, 47681, Note_on_c, 0, 53, 0
2, 47701, Note_on_c, 0, 63, 0
2, 47701, Note_on_c, 0, 58, 0
2, 47713, Note_on_c, 0, 84, 64
2, 47715, Note_on_c, 0, 72, 62
2, 47730, Note_on_c, 0, 72, 0
2, 47739, Note_on_c, 0, 84, 0
2, 47794, Note_on_c, 0, 55, 50
2, 47796, Note_on_c, 0, 89, 73
2, 47797, Note_on_c, 0, 65, 48
2, 47797, Note_on_c, 0, 77, 53
2, 47800, Note_on_c, 0, 60, 45
2, 47821, Note_on_c, 0, 77, 0
2, 47827, Note_on_c, 0, 89, 0
2, 47876, Note_on_c, 0, 80, 55
2, 47877, Note_on_c, 0, 92, 61
2, 47885, Note_on_c, 0, 65, 0
2, 47887, Note_on_c, 0, 55, 0
2, 47889, Note_on_c, 0, 80, 0
2, 47892, Note_on_c, 0, 60, 0
2, 47894, Note_on_c, 0, 92, 0
2, 47955, Note_on_c, 0, 63, 40
2, 47958, Note_on_c, 0, 96, 68
2, 47959, Note_on_c, 0, 53, 32
2, 47959, Note_on_c, 0, 84, 52
2, 47959, Note_on_c, 0, 58, 40
2, 47974, Note_on_c, 0, 84, 0
2, 47978, Note_on_c, 0, 96, 0
2, 47980, Note_on_c, 0, 63, 0
2, 47983, Note_on_c, 0, 53, 0
2, 47997, Note_on_c, 0, 58, 0
2, 48037, Note_on_c, 0, 99, 60
2, 48038, Note_on_c, 0, 87, 57
2, 48053, Note_on_c, 0, 87, 0
2, 48053, Note_on_c, 0, 99, 0
2, 48118, Note_on_c, 0, 44, 42
2, 48119, Note_on_c, 0, 37, 43
2, 48119, Note_on_c, 0, 101, 56
2, 48120, Note_on_c, 0, 89, 54
2, 48124, Note_on_c, 0, 96, 47
2, 48135, Note_on_c, 0, 96, 0
2, 48136, Note_on_c, 0, 89, 0
2, 48138, Note_on_c, 0, 37, 0
2, 48139, Note_on_c, 0, 101, 0
2, 48145, Note_on_c, 0, 44, 0
2, 48212, Note_on_c, 0, 53, 45
2, 48214, Note_on_c, 0, 92, 43
2, 48215, Note_on_c, 0, 104, 48
2, 48216, Note_on_c, 0, 58, 43
2, 48218, Note_on_c, 0, 99, 44
2, 48218, Note_on_c, 0, 63, 25
2, 48245, Note_on_c, 0, 53, 0
2, 48247, Note_on_c, 0, 99, 0
2, 48247, Note_on_c, 0, 92, 0
2, 48251, Note_on_c, 0, 104, 0
2, 48254, Note_on_c, 0, 63, 0
2, 48267, Note_on_c, 0, 58, 0
2, 48319, Note_on_c, 0, 65, 46
2, 48319, Note_on_c, 0, 94, 35
2, 48320, Note_on_c, 0, 106, 44
2, 48325, Note_on_c, 0, 99, 37
2, 48325, Note_on_c, 0, 60, 36
2, 48345, Note_on_c, 0, 99, 0
2, 48345, Note_on_c, 0, 65, 0
2, 48351, Note_on_c, 0, 60, 0
2, 48355, Note_on_c, 0, 94, 0
2, 48356, Note_on_c, 0, 106, 0
2, 48421, Note_on_c, 0, 63, 38
2, 48424, Note_on_c, 0, 108, 57
2, 48427, Note_on_c, 0, 96, 31
2, 48431, Note_on_c, 0, 58, 31
2, 48433, Note_on_c, 0, 53, 19
2, 48443, Note_on_c, 0, 63, 0
2, 48445, Note_on_c, 0, 53, 0
2, 48457, Note_on_c, 0, 58, 0
2, 48473, Note_on_c, 0, 108, 0
2, 48497, Note_on_c, 0, 96, 0
2, 48567, Note_on_c, 0, 96, 33
2, 48569, Note_on_c, 0, 101, 44
2, 48570, Note_on_c, 0, 37, 30
2, 48570, Note_on_c, 0, 44, 38
2, 48682, Note_on_c, 0, 101, 0
2, 48687, Note_on_c, 0, 96, 0
2, 48760, Note_on_c, 0, 37, 0
2, 48761, Note_on_c, 0, 44, 0
2, 48761, End_track
3, 0, Start_track
3, 0, Title_t, ""
3, 0, Program_c, 1, 32
3, 478, Note_on_c, 1, 37, 82
3, 479, Note_on_c, 1, 53, 101
3, 835, Note_on_c, 1, 37, 0
3, 846, Note_on_c, 1, 37, 42
3, 911, Note_on_c, 1, 53, 0
3, 912, Note_on_c, 1, 37, 0
3, 920, Note_on_c, 1, 34, 83
3, 922, Note_on_c, 1, 50, 94
3, 923, Note_on_c, 1, 52, 95
3, 950, Note_on_c, 1, 52, 0
3, 1042, Note_on_c, 1, 34, 0
3, 1048, Note_on_c, 1, 50, 0
3, 1270, Note_on_c, 1, 34, 60
3, 1279, Note_on_c, 1, 53, 95
3, 1310, Note_on_c, 1, 34, 0
3, 1313, Note_on_c, 1, 38, 66
3, 1317, Note_on_c, 1, 53, 0
3, 1317, Note_on_c, 1, 50, 67
3, 1388, Note_on_c, 1, 50, 0
3, 1403, Note_on_c, 1, 37, 50
3, 1415, Note_on_c, 1, 38, 0
3, 1426, Note_on_c, 1, 37, 0
3, 1433, Note_on_c, 1, 39, 90
3, 1434, Note_on_c, 1, 55, 110
3, 1642, Note_on_c, 1, 37, 45
3, 1656, Note_on_c, 1, 55, 0
3, 1669, Note_on_c, 1, 39, 0
3, 1670, Note_on_c, 1, 37, 0
3, 1674, Note_on_c, 1, 56, 92
3, 1675, Note_on_c, 1, 41, 94
3, 1906, Note_on_c, 1, 56, 0
3, 1916, Note_on_c, 1, 41, 0
3, 1918, Note_on_c, 1, 42, 93
3, 1918, Note_on_c, 1, 57, 94
3, 2105, Note_on_c, 1, 57, 0
3, 2119, Note_on_c, 1, 58, 97
3, 2120, Note_on_c, 1, 43, 99
3, 2121, Note_on_c, 1, 42, 0
3, 2194, Note_on_c, 1, 58, 0
3, 2195, Note_on_c, 1, 43, 0
3, 2476, Note_on_c, 1, 33, 87
3, 2477, Note_on_c, 1, 49, 92
3, 2540, Note_on_c, 1, 49, 0
3, 2546, Note_on_c, 1, 33, 0
3, 2643, Note_on_c, 1, 33, 73
3, 2643, Note_on_c, 1, 49, 85
3, 2821, Note_on_c, 1, 49, 0
3, 2884, Note_on_c, 1, 33, 0
3, 2885, Note_on_c, 1, 39, 80
3, 2885, Note_on_c, 1, 55, 95
3, 3103, Note_on_c, 1, 55, 0
3, 3107, Note_on_c, 1, 39, 0
3, 3115, Note_on_c, 1, 48, 91
3, 3116, Note_on_c, 1, 32, 77
3, 3299, Note_on_c, 1, 32, 0
3, 3345, Note_on_c, 1, 48, 0
3, 3436, Note_on_c, 1, 41, 89
3, 3454, Note_on_c, 1, 41, 0
3, 3472, Note_on_c, 1, 44, 99
3, 3549, Note_on_c, 1, 44, 0
3, 3558, Note_on_c, 1, 45, 69
3, 3592, Note_on_c, 1, 45, 0
3, 3602, Note_on_c, 1, 46, 86
3, 3607, Note_on_c, 1, 44, 38
3, 3614, Note_on_c, 1, 44, 0
3, 3673, Note_on_c, 1, 46, 0
3, 3678, Note_on_c, 1, 35, 68
3, 3713, Note_on_c, 1, 35, 0
3, 3718, Note_on_c, 1, 36, 94
3, 3789, Note_on_c, 1, 36, 0
3, 3802, Note_on_c, 1, 37, 94
3, 3935, Note_on_c, 1, 53, 103
3, 4271, Note_on_c, 1, 37, 0
3, 4274, Note_on_c, 1, 53, 0
3, 4282, Note_on_c, 1, 42, 78
3, 4305, Note_on_c, 1, 42, 0
3, 4321, Note_on_c, 1, 43, 79
3, 4399, Note_on_c, 1, 49, 92
3, 4551, Note_on_c, 1, 43, 0
3, 4562, Note_on_c, 1, 38, 55
3, 4582, Note_on_c, 1, 38, 0
3, 4636, Note_on_c, 1, 35, 57
3, 4655, Note_on_c, 1, 49, 0
3, 4672, Note_on_c, 1, 35, 0
3, 4677, Note_on_c, 1, 48, 77
3, 4679, Note_on_c, 1, 36, 70
3, 4766, Note_on_c, 1, 36, 0
3, 4768, Note_on_c, 1, 40, 40
3, 4770, Note_on_c, 1, 48, 0
3, 4789, Note_on_c, 1, 40, 0
3, 4797, Note_on_c, 1, 41, 77
3, 4798, Note_on_c, 1, 56, 74
3, 4908, Note_on_c, 1, 56, 0
3, 4911, Note_on_c, 1, 41, 0
3, 4915, Note_on_c, 1, 40, 64
3, 4918, Note_on_c, 1, 55, 71
3, 5000, Note_on_c, 1, 55, 0
3, 5004, Note_on_c, 1, 40, 0
3, 5006, Note_on_c, 1, 53, 78
3, 5006, Note_on_c, 1, 39, 69
3, 5235, Note_on_c, 1, 34, 67
3, 5244, Note_on_c, 1, 39, 0
3, 5255, Note_on_c, 1, 34, 0
3, 5257, Note_on_c, 1, 53, 0
3, 5269, Note_on_c, 1, 48, 81
3, 5274, Note_on_c, 1, 33, 69
3, 5419, Note_on_c, 1, 48, 0
3, 5478, Note_on_c, 1, 33, 0
3, 5479, Note_on_c, 1, 39, 64
3, 5513, Note_on_c, 1, 39, 0
3, 5521, Note_on_c, 1, 54, 93
3, 5521, Note_on_c, 1, 38, 91
3, 5674, Note_on_c, 1, 54, 0
3, 5686, Note_on_c, 1, 57, 68
3, 5710, Note_on_c, 1, 38, 0
3, 5713, Note_on_c, 1, 57, 0
3, 5718, Note_on_c, 1, 42, 71
3, 5720, Note_on_c, 1, 54, 62
3, 5739, Note_on_c, 1, 54, 0
3, 5754, Note_on_c, 1, 43, 84
3, 5755, Note_on_c, 1, 58, 86
3, 5756, Note_on_c, 1, 42, 0
3, 5953, Note_on_c, 1, 58, 0
3, 5959, Note_on_c, 1, 43, 0
3, 5960, Note_on_c, 1, 42, 74
3, 5962, Note_on_c, 1, 57, 59
3, 5982, Note_on_c, 1, 57, 0
3, 5997, Note_on_c, 1, 42, 0
3, 5998, Note_on_c, 1, 43, 74
3, 5999, Note_on_c, 1, 58, 83
3, 6154, Note_on_c, 1, 43, 0
3, 6185, Note_on_c, 1, 58, 0
3, 6193, Note_on_c, 1, 45, 74
3, 6194, Note_on_c, 1, 60, 74
3, 6211, Note_on_c, 1, 45, 0
3, 6222, Note_on_c, 1, 60, 0
3, 6235, Note_on_c, 1, 43, 63
3, 6236, Note_on_c, 1, 58, 71
3, 6262, Note_on_c, 1, 58, 0
3, 6320, Note_on_c, 1, 55, 83
3, 6345, Note_on_c, 1, 55, 0
3, 6359, Note_on_c, 1, 43, 0
3, 6363, Note_on_c, 1, 49, 84
3, 6364, Note_on_c, 1, 37, 75
3, 6551, Note_on_c, 1, 49, 0
3, 6555, Note_on_c, 1, 37, 0
3, 6555, Note_on_c, 1, 58, 69
3, 6558, Note_on_c, 1, 36, 73
3, 6588, Note_on_c, 1, 36, 0
3, 6598, Note_on_c, 1, 36, 53
3, 6692, Note_on_c, 1, 36, 0
3, 6708, Note_on_c, 1, 58, 0
3, 6712, Note_on_c, 1, 36, 55
3, 6715, Note_on_c, 1, 52, 65
3, 6797, Note_on_c, 1, 36, 0
3, 6797, Note_on_c, 1, 37, 47
3, 6820, Note_on_c, 1, 52, 0
3, 6825, Note_on_c, 1, 37, 0
3, 6831, Note_on_c, 1, 38, 62
3, 6834, Note_on_c, 1, 53, 67
3, 6897, Note_on_c, 1, 53, 0
3, 6911, Note_on_c, 1, 39, 64
3, 6912, Note_on_c, 1, 38, 0
3, 6914, Note_on_c, 1, 54, 51
3, 6938, Note_on_c, 1, 54, 0
3, 6948, Note_on_c, 1, 39, 0
3, 6950, Note_on_c, 1, 40, 73
3, 6954, Note_on_c, 1, 55, 69
3, 7022, Note_on_c, 1, 40, 0
3, 7028, Note_on_c, 1, 55, 0
3, 7034, Note_on_c, 1, 36, 66
3, 7036, Note_on_c, 1, 48, 68
3, 7155, Note_on_c, 1, 48, 0
3, 7167, Note_on_c, 1, 40, 48
3, 7191, Note_on_c, 1, 40, 0
3, 7193, Note_on_c, 1, 36, 0
3, 7201, Note_on_c, 1, 41, 90
3, 7201, Note_on_c, 1, 57, 105
3, 7270, Note_on_c, 1, 41, 0
3, 7271, Note_on_c, 1, 57, 0
3, 7282, Note_on_c, 1, 57, 74
3, 7282, Note_on_c, 1, 41, 74
3, 7332, Note_on_c, 1, 41, 0
3, 7333, Note_on_c, 1, 57, 0
3, 7407, Note_on_c, 1, 37, 47
3, 7434, Note_on_c, 1, 37, 0
3, 7446, Note_on_c, 1, 56, 92
3, 7446, Note_on_c, 1, 40, 83
3, 7512, Note_on_c, 1, 40, 0
3, 7515, Note_on_c, 1, 56, 0
3, 7526, Note_on_c, 1, 40, 68
3, 7527, Note_on_c, 1, 56, 74
3, 7560, Note_on_c, 1, 40, 0
3, 7563, Note_on_c, 1, 56, 0
3, 7653, Note_on_c, 1, 37, 34
3, 7670, Note_on_c, 1, 37, 0
3, 7687, Note_on_c, 1, 55, 125
3, 7688, Note_on_c, 1, 39, 76
3, 7752, Note_on_c, 1, 39, 0
3, 7758, Note_on_c, 1, 55, 0
3, 7767, Note_on_c, 1, 39, 37
3, 7769, Note_on_c, 1, 55, 81
3, 7802, Note_on_c, 1, 55, 0
3, 7819, Note_on_c, 1, 39, 0
3, 7888, Note_on_c, 1, 37, 49
3, 7918, Note_on_c, 1, 37, 0
3, 7922, Note_on_c, 1, 54, 98
3, 7923, Note_on_c, 1, 38, 80
3, 7992, Note_on_c, 1, 54, 0
3, 7997, Note_on_c, 1, 38, 0
3, 8003, Note_on_c, 1, 39, 58
3, 8004, Note_on_c, 1, 55, 70
3, 8035, Note_on_c, 1, 55, 0
3, 8042, Note_on_c, 1, 38, 79
3, 8042, Note_on_c, 1, 54, 70
3, 8043, Note_on_c, 1, 39, 0
3, 8147, Note_on_c, 1, 54, 0
3, 8154, Note_on_c, 1, 38, 0
3, 8161, Note_on_c, 1, 37, 84
3, 8166, Note_on_c, 1, 53, 110
3, 8262, Note_on_c, 1, 53, 0
3, 8269, Note_on_c, 1, 37, 0
3, 8603, Note_on_c, 1, 34, 81
3, 8603, Note_on_c, 1, 50, 113
3, 8692, Note_on_c, 1, 50, 0
3, 8693, Note_on_c, 1, 34, 0
3, 8955, Note_on_c, 1, 38, 78
3, 8957, Note_on_c, 1, 53, 118
3, 8993, Note_on_c, 1, 38, 0
3, 8996, Note_on_c, 1, 53, 0
3, 8999, Note_on_c, 1, 34, 50
3, 9006, Note_on_c, 1, 50, 55
3, 9083, Note_on_c, 1, 50, 0
3, 9084, Note_on_c, 1, 34, 0
3, 9085, Note_on_c, 1, 38, 40
3, 9108, Note_on_c, 1, 38, 0
3, 9119, Note_on_c, 1, 39, 77
3, 9121, Note_on_c, 1, 55, 82
3, 9310, Note_on_c, 1, 56, 46
3, 9322, Note_on_c, 1, 56, 0
3, 9351, Note_on_c, 1, 55, 0
3, 9361, Note_on_c, 1, 39, 0
3, 9363, Note_on_c, 1, 55, 90
3, 9365, Note_on_c, 1, 41, 90
3, 9413, Note_on_c, 1, 56, 80
3, 9418, Note_on_c, 1, 55, 0
3, 9554, Note_on_c, 1, 39, 38
3, 9566, Note_on_c, 1, 56, 0
3, 9574, Note_on_c, 1, 41, 0
3, 9587, Note_on_c, 1, 39, 0
3, 9590, Note_on_c, 1, 42, 83
3, 9591, Note_on_c, 1, 57, 95
3, 9672, Note_on_c, 1, 39, 45
3, 9691, Note_on_c, 1, 57, 0
3, 9691, Note_on_c, 1, 42, 0
3, 9704, Note_on_c, 1, 39, 0
3, 9708, Note_on_c, 1, 43, 89
3, 9710, Note_on_c, 1, 58, 87
3, 9789, Note_on_c, 1, 43, 0
3, 9790, Note_on_c, 1, 58, 0
3, 10035, Note_on_c, 1, 39, 68
3, 10036, Note_on_c, 1, 55, 90
3, 10069, Note_on_c, 1, 55, 0
3, 10080, Note_on_c, 1, 39, 0
3, 10081, Note_on_c, 1, 49, 76
3, 10082, Note_on_c, 1, 33, 74
3, 10500, Note_on_c, 1, 49, 0
3, 10551, Note_on_c, 1, 33, 0
3, 10557, Note_on_c, 1, 55, 108
3, 10559, Note_on_c, 1, 39, 72
3, 10631, Note_on_c, 1, 55, 0
3, 10639, Note_on_c, 1, 54, 37
3, 10644, Note_on_c, 1, 38, 27
3, 10645, Note_on_c, 1, 39, 0
3, 10667, Note_on_c, 1, 38, 0
3, 10671, Note_on_c, 1, 54, 0
3, 10678, Note_on_c, 1, 39, 69
3, 10681, Note_on_c, 1, 55, 88
3, 10786, Note_on_c, 1, 55, 0
3, 10792, Note_on_c, 1, 39, 0
3, 10798, Note_on_c, 1, 48, 80
3, 10799, Note_on_c, 1, 32, 74
3, 11002, Note_on_c, 1, 48, 0
3, 11014, Note_on_c, 1, 32, 0
3, 11120, Note_on_c, 1, 40, 78
3, 11155, Note_on_c, 1, 40, 0
3, 11163, Note_on_c, 1, 41, 88
3, 11234, Note_on_c, 1, 41, 0
3, 11241, Note_on_c, 1, 44, 104
3, 11293, Note_on_c, 1, 44, 0
3, 11313, Note_on_c, 1, 46, 88
3, 11368, Note_on_c, 1, 35, 68
3, 11375, Note_on_c, 1, 46, 0
3, 11401, Note_on_c, 1, 35, 0
3, 11410, Note_on_c, 1, 36, 70
3, 11470, Note_on_c, 1, 36, 0
3, 11483, Note_on_c, 1, 37, 82
3, 11595, Note_on_c, 1, 53, 105
3, 11748, Note_on_c, 1, 53, 0
3, 11762, Note_on_c, 1, 49, 72
3, 11765, Note_on_c, 1, 37, 0
3, 11781, Note_on_c, 1, 49, 0
3, 11838, Note_on_c, 1, 48, 69
3, 11847, Note_on_c, 1, 48, 0
3, 11878, Note_on_c, 1, 41, 73
3, 11968, Note_on_c, 1, 37, 36
3, 11980, Note_on_c, 1, 41, 0
3, 11985, Note_on_c, 1, 37, 0
3, 11995, Note_on_c, 1, 42, 78
3, 12014, Note_on_c, 1, 42, 0
3, 12039, Note_on_c, 1, 36, 63
3, 12063, Note_on_c, 1, 36, 0
3, 12078, Note_on_c, 1, 36, 68
3, 12082, Note_on_c, 1, 30, 45
3, 12091, Note_on_c, 1, 30, 0
3, 12107, Note_on_c, 1, 36, 0
3, 12119, Note_on_c, 1, 30, 80
3, 12231, Note_on_c, 1, 30, 0
3, 12235, Note_on_c, 1, 34, 79
3, 12237, Note_on_c, 1, 42, 58
3, 12244, Note_on_c, 1, 42, 0
3, 12351, Note_on_c, 1, 35, 82
3, 12357, Note_on_c, 1, 34, 0
3, 12442, Note_on_c, 1, 34, 31
3, 12469, Note_on_c, 1, 35, 0
3, 12476, Note_on_c, 1, 34, 0
3, 12481, Note_on_c, 1, 36, 81
3, 12521, Note_on_c, 1, 52, 84
3, 12536, Note_on_c, 1, 36, 0
3, 12544, Note_on_c, 1, 52, 0
3, 12557, Note_on_c, 1, 49, 84
3, 12599, Note_on_c, 1, 49, 0
3, 12603, Note_on_c, 1, 48, 83
3, 12709, Note_on_c, 1, 48, 0
3, 12723, Note_on_c, 1, 46, 69
3, 12790, Note_on_c, 1, 46, 0
3, 12806, Note_on_c, 1, 43, 48
3, 12821, Note_on_c, 1, 43, 0
3, 12841, Note_on_c, 1, 44, 82
3, 12911, Note_on_c, 1, 44, 0
3, 12918, Note_on_c, 1, 45, 85
3, 12944, Note_on_c, 1, 45, 0
3, 12957, Note_on_c, 1, 41, 62
3, 12979, Note_on_c, 1, 41, 0
3, 13041, Note_on_c, 1, 36, 68
3, 13066, Note_on_c, 1, 36, 0
3, 13078, Note_on_c, 1, 30, 74
3, 13177, Note_on_c, 1, 30, 0
3, 13195, Note_on_c, 1, 29, 71
3, 13304, Note_on_c, 1, 29, 0
3, 13311, Note_on_c, 1, 34, 88
3, 13312, Note_on_c, 1, 50, 105
3, 13819, Note_on_c, 1, 50, 0
3, 13925, Note_on_c, 1, 34, 0
3, 14002, Note_on_c, 1, 39, 72
3, 14002, Note_on_c, 1, 55, 103
3, 14038, Note_on_c, 1, 55, 0
3, 14043, Note_on_c, 1, 39, 0
3, 14047, Note_on_c, 1, 54, 52
3, 14048, Note_on_c, 1, 38, 60
3, 14113, Note_on_c, 1, 54, 0
3, 14122, Note_on_c, 1, 38, 0
3, 14122, Note_on_c, 1, 55, 92
3, 14123, Note_on_c, 1, 39, 92
3, 14390, Note_on_c, 1, 39, 0
3, 14392, Note_on_c, 1, 55, 0
3, 14395, Note_on_c, 1, 48, 75
3, 14396, Note_on_c, 1, 32, 64
3, 14716, Note_on_c, 1, 34, 38
3, 14729, Note_on_c, 1, 37, 58
3, 14737, Note_on_c, 1, 32, 0
3, 14738, Note_on_c, 1, 48, 0
3, 14752, Note_on_c, 1, 34, 0
3, 14753, Note_on_c, 1, 54, 91
3, 14757, Note_on_c, 1, 38, 95
3, 14766, Note_on_c, 1, 37, 0
3, 14821, Note_on_c, 1, 54, 0
3, 14869, Note_on_c, 1, 38, 0
3, 14873, Note_on_c, 1, 37, 85
3, 14876, Note_on_c, 1, 53, 125
3, 14945, Note_on_c, 1, 53, 0
3, 14955, Note_on_c, 1, 37, 0
3, 15337, Note_on_c, 1, 39, 46
3, 15362, Note_on_c, 1, 39, 0
3, 15368, Note_on_c, 1, 57, 103
3, 15370, Note_on_c, 1, 41, 88
3, 15412, Note_on_c, 1, 57, 0
3, 15423, Note_on_c, 1, 41, 0
3, 15484, Note_on_c, 1, 56, 86
3, 15486, Note_on_c, 1, 40, 84
3, 15542, Note_on_c, 1, 56, 0
3, 15554, Note_on_c, 1, 40, 0
3, 15603, Note_on_c, 1, 55, 89
3, 15605, Note_on_c, 1, 39, 69
3, 15677, Note_on_c, 1, 55, 0
3, 15683, Note_on_c, 1, 54, 88
3, 15685, Note_on_c, 1, 39, 0
3, 15686, Note_on_c, 1, 38, 85
3, 15840, Note_on_c, 1, 54, 0
3, 15848, Note_on_c, 1, 37, 79
3, 15849, Note_on_c, 1, 53, 69
3, 15850, Note_on_c, 1, 38, 0
3, 15937, Note_on_c, 1, 53, 0
3, 15968, Note_on_c, 1, 41, 91
3, 15977, Note_on_c, 1, 37, 0
3, 16050, Note_on_c, 1, 37, 50
3, 16082, Note_on_c, 1, 37, 0
3, 16087, Note_on_c, 1, 41, 0
3, 16087, Note_on_c, 1, 48, 99
3, 16166, Note_on_c, 1, 40, 73
3, 16181, Note_on_c, 1, 40, 0
3, 16183, Note_on_c, 1, 48, 0
3, 16200, Note_on_c, 1, 33, 84
3, 16310, Note_on_c, 1, 33, 0
3, 16317, Note_on_c, 1, 34, 83
3, 16400, Note_on_c, 1, 32, 44
3, 16434, Note_on_c, 1, 48, 105
3, 16435, Note_on_c, 1, 34, 0
3, 16442, Note_on_c, 1, 32, 0
3, 16517, Note_on_c, 1, 34, 20
3, 16535, Note_on_c, 1, 34, 0
3, 16546, Note_on_c, 1, 48, 0
3, 16552, Note_on_c, 1, 46, 80
3, 16641, Note_on_c, 1, 37, 65
3, 16655, Note_on_c, 1, 46, 0
3, 16665, Note_on_c, 1, 37, 0
3, 16676, Note_on_c, 1, 38, 78
3, 16788, Note_on_c, 1, 38, 0
3, 16793, Note_on_c, 1, 39, 83
3, 16873, Note_on_c, 1, 39, 0
3, 16885, Note_on_c, 1, 39, 64
3, 16902, Note_on_c, 1, 39, 0
3, 16919, Note_on_c, 1, 42, 90
3, 17013, Note_on_c, 1, 42, 0
3, 17034, Note_on_c, 1, 43, 96
3, 17090, Pitch_bend_c, 1, 8192
3, 17092, Pitch_bend_c, 1, 8192
3, 17095, Pitch_bend_c, 1, 8192
3, 17097, Pitch_bend_c, 1, 7680
3, 17099, Pitch_bend_c, 1, 7424
3, 17100, Pitch_bend_c, 1, 7168
3, 17102, Pitch_bend_c, 1, 6912
3, 17103, Pitch_bend_c, 1, 6784
3, 17105, Pitch_bend_c, 1, 6528
3, 17106, Pitch_bend_c, 1, 6144
3, 17107, Pitch_bend_c, 1, 5888
3, 17109, Pitch_bend_c, 1, 5504
3, 17110, Pitch_bend_c, 1, 5120
3, 17112, Pitch_bend_c, 1, 4864
3, 17113, Pitch_bend_c, 1, 4608
3, 17115, Pitch_bend_c, 1, 4224
3, 17116, Pitch_bend_c, 1, 3968
3, 17118, Pitch_bend_c, 1, 3584
3, 17119, Pitch_bend_c, 1, 3200
3, 17120, Pitch_bend_c, 1, 2944
3, 17122, Pitch_bend_c, 1, 2560
3, 17123, Pitch_bend_c, 1, 2176
3, 17125, Pitch_bend_c, 1, 1792
3, 17126, Pitch_bend_c, 1, 1408
3, 17128, Pitch_bend_c, 1, 1024
3, 17129, Pitch_bend_c, 1, 640
3, 17130, Pitch_bend_c, 1, 512
3, 17132, Pitch_bend_c, 1, 128
3, 17133, Pitch_bend_c, 1, 0
3, 17135, Pitch_bend_c, 1, 384
3, 17136, Pitch_bend_c, 1, 1152
3, 17138, Pitch_bend_c, 1, 2304
3, 17139, Pitch_bend_c, 1, 3712
3, 17140, Pitch_bend_c, 1, 5632
3, 17141, Note_on_c, 1, 43, 0
3, 17142, Pitch_bend_c, 1, 7552
3, 17143, Pitch_bend_c, 1, 8192
3, 17150, Note_on_c, 1, 39, 68
3, 17268, Note_on_c, 1, 39, 0
3, 17277, Note_on_c, 1, 43, 78
3, 17357, Note_on_c, 1, 39, 55
3, 17375, Note_on_c, 1, 39, 0
3, 17381, Note_on_c, 1, 43, 0
3, 17395, Note_on_c, 1, 46, 88
3, 17484, Note_on_c, 1, 39, 38
3, 17489, Note_on_c, 1, 46, 0
3, 17510, Note_on_c, 1, 39, 0
3, 17513, Note_on_c, 1, 55, 94
3, 17524, Note_on_c, 1, 54, 25
3, 17532, Note_on_c, 1, 54, 0
3, 17596, Note_on_c, 1, 44, 49
3, 17612, Note_on_c, 1, 44, 0
3, 17619, Note_on_c, 1, 55, 0
3, 17632, Note_on_c, 1, 51, 74
3, 17712, Note_on_c, 1, 45, 76
3, 17727, Note_on_c, 1, 45, 0
3, 17742, Note_on_c, 1, 51, 0
3, 17750, Note_on_c, 1, 44, 87
3, 17855, Note_on_c, 1, 44, 0
3, 17870, Note_on_c, 1, 33, 80
3, 17958, Note_on_c, 1, 40, 46
3, 17979, Note_on_c, 1, 40, 0
3, 17993, Note_on_c, 1, 57, 99
3, 18076, Note_on_c, 1, 45, 44
3, 18105, Note_on_c, 1, 57, 0
3, 18116, Note_on_c, 1, 52, 73
3, 18137, Note_on_c, 1, 45, 0
3, 18197, Note_on_c, 1, 45, 67
3, 18203, Note_on_c, 1, 33, 0
3, 18208, Note_on_c, 1, 45, 0
3, 18224, Note_on_c, 1, 52, 0
3, 18234, Note_on_c, 1, 51, 87
3, 18351, Note_on_c, 1, 51, 0
3, 18357, Note_on_c, 1, 39, 82
3, 18474, Note_on_c, 1, 39, 0
3, 18479, Note_on_c, 1, 32, 83
3, 18567, Note_on_c, 1, 39, 65
3, 18584, Note_on_c, 1, 32, 0
3, 18593, Note_on_c, 1, 39, 0
3, 18599, Note_on_c, 1, 48, 115
3, 18693, Note_on_c, 1, 39, 49
3, 18702, Note_on_c, 1, 48, 0
3, 18709, Note_on_c, 1, 39, 0
3, 18719, Note_on_c, 1, 49, 92
3, 18807, Note_on_c, 1, 51, 64
3, 18814, Note_on_c, 1, 39, 31
3, 18819, Note_on_c, 1, 49, 0
3, 18822, Note_on_c, 1, 39, 0
3, 18834, Note_on_c, 1, 51, 0
3, 18838, Note_on_c, 1, 48, 85
3, 18958, Note_on_c, 1, 48, 0
3, 18964, Note_on_c, 1, 46, 86
3, 19054, Note_on_c, 1, 39, 38
3, 19068, Note_on_c, 1, 39, 0
3, 19071, Note_on_c, 1, 46, 0
3, 19083, Note_on_c, 1, 44, 82
3, 19191, Note_on_c, 1, 44, 0
3, 19199, Note_on_c, 1, 41, 84
3, 19316, Note_on_c, 1, 37, 88
3, 19317, Note_on_c, 1, 41, 0
3, 19414, Note_on_c, 1, 34, 29
3, 19438, Note_on_c, 1, 44, 90
3, 19446, Note_on_c, 1, 37, 0
3, 19447, Note_on_c, 1, 34, 0
3, 19529, Note_on_c, 1, 37, 69
3, 19535, Note_on_c, 1, 44, 0
3, 19542, Note_on_c, 1, 37, 0
3, 19554, Note_on_c, 1, 42, 92
3, 19668, Note_on_c, 1, 42, 0
3, 19679, Note_on_c, 1, 43, 94
3, 19731, Pitch_bend_c, 1, 8192
3, 19734, Pitch_bend_c, 1, 8192
3, 19737, Pitch_bend_c, 1, 7680
3, 19738, Pitch_bend_c, 1, 7552
3, 19740, Pitch_bend_c, 1, 7296
3, 19741, Pitch_bend_c, 1, 7040
3, 19743, Pitch_bend_c, 1, 6784
3, 19744, Pitch_bend_c, 1, 6528
3, 19745, Pitch_bend_c, 1, 6144
3, 19747, Pitch_bend_c, 1, 5760
3, 19748, Pitch_bend_c, 1, 5504
3, 19750, Pitch_bend_c, 1, 5120
3, 19751, Pitch_bend_c, 1, 4736
3, 19753, Pitch_bend_c, 1, 4480
3, 19754, Pitch_bend_c, 1, 4096
3, 19755, Pitch_bend_c, 1, 3712
3, 19757, Pitch_bend_c, 1, 3456
3, 19758, Pitch_bend_c, 1, 3072
3, 19760, Pitch_bend_c, 1, 2688
3, 19761, Pitch_bend_c, 1, 2304
3, 19763, Pitch_bend_c, 1, 1920
3, 19764, Pitch_bend_c, 1, 1664
3, 19765, Pitch_bend_c, 1, 1152
3, 19767, Pitch_bend_c, 1, 768
3, 19768, Pitch_bend_c, 1, 512
3, 19770, Pitch_bend_c, 1, 128
3, 19777, Pitch_bend_c, 1, 640
3, 19779, Pitch_bend_c, 1, 1280
3, 19780, Pitch_bend_c, 1, 2176
3, 19782, Pitch_bend_c, 1, 3328
3, 19783, Pitch_bend_c, 1, 4736
3, 19785, Pitch_bend_c, 1, 6528
3, 19786, Pitch_bend_c, 1, 8192
3, 19787, Pitch_bend_c, 1, 8192
3, 19796, Note_on_c, 1, 43, 0
3, 19804, Note_on_c, 1, 49, 86
3, 19923, Note_on_c, 1, 46, 83
3, 19935, Note_on_c, 1, 49, 0
3, 20029, Note_on_c, 1, 46, 0
3, 20043, Note_on_c, 1, 48, 91
3, 20157, Note_on_c, 1, 41, 96
3, 20163, Note_on_c, 1, 48, 0
3, 20245, Note_on_c, 1, 39, 53
3, 20275, Note_on_c, 1, 41, 0
3, 20275, Note_on_c, 1, 53, 118
3, 20284, Note_on_c, 1, 39, 0
3, 20357, Note_on_c, 1, 42, 32
3, 20364, Note_on_c, 1, 42, 0
3, 20394, Note_on_c, 1, 53, 0
3, 20394, Note_on_c, 1, 48, 77
3, 20398, Note_on_c, 1, 51, 46
3, 20406, Note_on_c, 1, 51, 0
3, 20468, Note_on_c, 1, 48, 0
3, 20479, Note_on_c, 1, 44, 76
3, 20497, Note_on_c, 1, 44, 0
3, 20517, Note_on_c, 1, 34, 73
3, 20624, Note_on_c, 1, 34, 0
3, 20634, Note_on_c, 1, 33, 83
3, 20715, Note_on_c, 1, 38, 45
3, 20723, Note_on_c, 1, 38, 0
3, 20754, Note_on_c, 1, 51, 93
3, 20755, Note_on_c, 1, 33, 0
3, 20838, Note_on_c, 1, 37, 60
3, 20859, Note_on_c, 1, 51, 0
3, 20869, Note_on_c, 1, 37, 0
3, 20877, Note_on_c, 1, 38, 63
3, 20879, Note_on_c, 1, 54, 79
3, 20985, Note_on_c, 1, 54, 0
3, 20990, Note_on_c, 1, 38, 0
3, 20995, Note_on_c, 1, 42, 74
3, 20999, Note_on_c, 1, 57, 83
3, 21077, Note_on_c, 1, 39, 35
3, 21084, Note_on_c, 1, 57, 0
3, 21088, Note_on_c, 1, 54, 36
3, 21101, Note_on_c, 1, 54, 0
3, 21109, Note_on_c, 1, 42, 0
3, 21115, Note_on_c, 1, 43, 68
3, 21116, Note_on_c, 1, 39, 0
3, 21119, Note_on_c, 1, 55, 80
3, 21220, Note_on_c, 1, 55, 0
3, 21226, Note_on_c, 1, 43, 0
3, 21232, Note_on_c, 1, 45, 84
3, 21326, Note_on_c, 1, 44, 42
3, 21336, Note_on_c, 1, 45, 0
3, 21346, Note_on_c, 1, 44, 0
3, 21357, Note_on_c, 1, 46, 84
3, 21467, Note_on_c, 1, 46, 0
3, 21476, Note_on_c, 1, 42, 82
3, 21594, Note_on_c, 1, 42, 0
3, 21598, Note_on_c, 1, 43, 79
3, 21679, Note_on_c, 1, 49, 86
3, 21681, Note_on_c, 1, 51, 68
3, 21704, Note_on_c, 1, 43, 0
3, 21708, Note_on_c, 1, 51, 0
3, 21709, Note_on_c, 1, 49, 0
3, 21724, Note_on_c, 1, 46, 71
3, 21799, Note_on_c, 1, 37, 37
3, 21814, Note_on_c, 1, 37, 0
3, 21843, Note_on_c, 1, 41, 62
3, 21850, Note_on_c, 1, 46, 0
3, 21874, Note_on_c, 1, 41, 0
3, 21922, Note_on_c, 1, 38, 74
3, 21948, Note_on_c, 1, 38, 0
3, 21961, Note_on_c, 1, 35, 80
3, 22074, Note_on_c, 1, 35, 0
3, 22082, Note_on_c, 1, 36, 81
3, 22164, Note_on_c, 1, 34, 43
3, 22191, Note_on_c, 1, 36, 0
3, 22197, Note_on_c, 1, 40, 80
3, 22202, Note_on_c, 1, 34, 0
3, 22283, Note_on_c, 1, 36, 62
3, 22304, Note_on_c, 1, 40, 0
3, 22305, Note_on_c, 1, 36, 0
3, 22317, Note_on_c, 1, 41, 79
3, 22390, Note_on_c, 1, 41, 0
3, 22400, Note_on_c, 1, 42, 69
3, 22402, Note_on_c, 1, 36, 55
3, 22427, Note_on_c, 1, 36, 0
3, 22437, Note_on_c, 1, 42, 0
3, 22440, Note_on_c, 1, 43, 63
3, 22520, Note_on_c, 1, 36, 54
3, 22528, Note_on_c, 1, 36, 0
3, 22535, Note_on_c, 1, 43, 0
3, 22555, Note_on_c, 1, 45, 62
3, 22635, Note_on_c, 1, 45, 0
3, 22637, Note_on_c, 1, 41, 81
3, 22678, Note_on_c, 1, 57, 89
3, 22772, Note_on_c, 1, 39, 37
3, 22778, Note_on_c, 1, 41, 0
3, 22789, Note_on_c, 1, 57, 0
3, 22792, Note_on_c, 1, 39, 0
3, 22797, Note_on_c, 1, 56, 81
3, 22881, Note_on_c, 1, 40, 92
3, 23016, Note_on_c, 1, 56, 0
3, 23021, Note_on_c, 1, 37, 25
3, 23029, Note_on_c, 1, 40, 0
3, 23030, Note_on_c, 1, 37, 0
3, 23042, Note_on_c, 1, 39, 88
3, 23125, Note_on_c, 1, 55, 113
3, 23243, Note_on_c, 1, 37, 39
3, 23260, Note_on_c, 1, 55, 0
3, 23264, Note_on_c, 1, 39, 0
3, 23272, Note_on_c, 1, 37, 0
3, 23281, Note_on_c, 1, 38, 80
3, 23362, Note_on_c, 1, 54, 90
3, 23479, Note_on_c, 1, 34, 39
3, 23496, Note_on_c, 1, 54, 0
3, 23506, Note_on_c, 1, 34, 0
3, 23506, Note_on_c, 1, 38, 0
3, 23513, Note_on_c, 1, 37, 64
3, 23519, Note_on_c, 1, 53, 75
3, 23594, Note_on_c, 1, 53, 0
3, 23599, Note_on_c, 1, 36, 50
3, 23601, Note_on_c, 1, 37, 0
3, 23611, Note_on_c, 1, 52, 30
3, 23626, Note_on_c, 1, 36, 0
3, 23631, Note_on_c, 1, 52, 0
3, 23636, Note_on_c, 1, 37, 47
3, 23642, Note_on_c, 1, 53, 61
3, 23721, Note_on_c, 1, 53, 0
3, 23723, Note_on_c, 1, 36, 48
3, 23726, Note_on_c, 1, 37, 0
3, 23733, Note_on_c, 1, 52, 24
3, 23741, Note_on_c, 1, 52, 0
3, 23744, Note_on_c, 1, 36, 0
3, 23759, Note_on_c, 1, 37, 64
3, 23761, Note_on_c, 1, 53, 68
3, 23815, Note_on_c, 1, 53, 0
3, 23831, Note_on_c, 1, 37, 0
3, 23836, Note_on_c, 1, 36, 65
3, 23838, Note_on_c, 1, 52, 68
3, 23870, Note_on_c, 1, 52, 0
3, 23873, Note_on_c, 1, 36, 0
3, 23876, Note_on_c, 1, 51, 76
3, 23876, Note_on_c, 1, 35, 64
3, 23947, Note_on_c, 1, 51, 0
3, 23963, Note_on_c, 1, 34, 74
3, 23967, Note_on_c, 1, 35, 0
3, 23967, Note_on_c, 1, 50, 85
3, 24106, Note_on_c, 1, 50, 0
3, 24118, Note_on_c, 1, 53, 82
3, 24119, Note_on_c, 1, 41, 84
3, 24139, Note_on_c, 1, 34, 0
3, 24226, Note_on_c, 1, 41, 0
3, 24230, Note_on_c, 1, 53, 0
3, 24235, Note_on_c, 1, 38, 54
3, 24237, Note_on_c, 1, 50, 62
3, 24319, Note_on_c, 1, 37, 44
3, 24332, Note_on_c, 1, 50, 0
3, 24335, Note_on_c, 1, 38, 0
3, 24351, Note_on_c, 1, 37, 0
3, 24355, Note_on_c, 1, 41, 79
3, 24355, Note_on_c, 1, 56, 78
3, 24457, Note_on_c, 1, 41, 0
3, 24464, Note_on_c, 1, 56, 0
3, 24472, Note_on_c, 1, 39, 60
3, 24477, Note_on_c, 1, 55, 73
3, 24552, Note_on_c, 1, 55, 0
3, 24559, Note_on_c, 1, 39, 0
3, 24642, Note_on_c, 1, 54, 42
3, 24650, Note_on_c, 1, 38, 41
3, 24662, Note_on_c, 1, 54, 0
3, 24666, Note_on_c, 1, 38, 0
3, 24678, Note_on_c, 1, 55, 71
3, 24681, Note_on_c, 1, 39, 69
3, 24700, Note_on_c, 1, 55, 0
3, 24714, Note_on_c, 1, 56, 82
3, 24716, Note_on_c, 1, 41, 87
3, 24726, Note_on_c, 1, 39, 0
3, 24797, Note_on_c, 1, 56, 0
3, 24799, Note_on_c, 1, 39, 55
3, 24803, Note_on_c, 1, 41, 0
3, 24822, Note_on_c, 1, 39, 0
3, 24835, Note_on_c, 1, 57, 83
3, 24836, Note_on_c, 1, 42, 87
3, 24886, Note_on_c, 1, 43, 37
3, 24906, Note_on_c, 1, 43, 0
3, 24910, Note_on_c, 1, 57, 0
3, 24914, Note_on_c, 1, 42, 0
3, 24917, Note_on_c, 1, 58, 83
3, 24918, Note_on_c, 1, 43, 88
3, 25078, Note_on_c, 1, 43, 0
3, 25089, Note_on_c, 1, 58, 0
3, 25091, Note_on_c, 1, 42, 52
3, 25092, Note_on_c, 1, 56, 53
3, 25115, Note_on_c, 1, 42, 0
3, 25170, Note_on_c, 1, 41, 59
3, 25184, Note_on_c, 1, 56, 0
3, 25187, Note_on_c, 1, 41, 0
3, 25205, Note_on_c, 1, 39, 59
3, 25207, Note_on_c, 1, 55, 68
3, 25382, Note_on_c, 1, 39, 0
3, 25407, Note_on_c, 1, 39, 64
3, 25429, Note_on_c, 1, 39, 0
3, 25434, Note_on_c, 1, 55, 0
3, 25442, Note_on_c, 1, 49, 88
3, 25443, Note_on_c, 1, 33, 77
3, 25756, Note_on_c, 1, 49, 0
3, 25761, Note_on_c, 1, 33, 0
3, 25762, Note_on_c, 1, 37, 69
3, 25764, Note_on_c, 1, 52, 74
3, 25795, Note_on_c, 1, 37, 0
3, 25796, Note_on_c, 1, 52, 0
3, 25803, Note_on_c, 1, 33, 55
3, 25807, Note_on_c, 1, 49, 51
3, 25966, Note_on_c, 1, 49, 0
3, 26002, Note_on_c, 1, 33, 0
3, 26004, Note_on_c, 1, 39, 83
3, 26004, Note_on_c, 1, 55, 103
3, 26236, Note_on_c, 1, 48, 85
3, 26237, Note_on_c, 1, 32, 76
3, 26241, Note_on_c, 1, 39, 0
3, 26283, Note_on_c, 1, 55, 0
3, 26381, Note_on_c, 1, 48, 0
3, 26399, Note_on_c, 1, 32, 0
3, 26399, Note_on_c, 1, 37, 62
3, 26400, Note_on_c, 1, 53, 71
3, 26478, Note_on_c, 1, 53, 0
3, 26482, Note_on_c, 1, 36, 62
3, 26484, Note_on_c, 1, 37, 0
3, 26484, Note_on_c, 1, 52, 36
3, 26508, Note_on_c, 1, 52, 0
3, 26511, Note_on_c, 1, 36, 0
3, 26521, Note_on_c, 1, 53, 71
3, 26523, Note_on_c, 1, 37, 63
3, 26625, Note_on_c, 1, 53, 0
3, 26637, Note_on_c, 1, 37, 0
3, 26639, Note_on_c, 1, 39, 67
3, 26641, Note_on_c, 1, 54, 69
3, 26724, Note_on_c, 1, 39, 0
3, 26725, Note_on_c, 1, 37, 46
3, 26731, Note_on_c, 1, 54, 0
3, 26754, Note_on_c, 1, 39, 68
3, 26757, Note_on_c, 1, 54, 72
3, 26764, Note_on_c, 1, 37, 0
3, 26881, Note_on_c, 1, 54, 0
3, 26947, Note_on_c, 1, 39, 0
3, 27078, Note_on_c, 1, 55, 118
3, 27079, Note_on_c, 1, 40, 80
3, 27112, Note_on_c, 1, 55, 0
3, 27117, Note_on_c, 1, 40, 0
3, 27151, Note_on_c, 1, 41, 77
3, 27151, Note_on_c, 1, 56, 81
3, 27212, Note_on_c, 1, 56, 0
3, 27215, Note_on_c, 1, 41, 0
3, 27317, Note_on_c, 1, 41, 73
3, 27318, Note_on_c, 1, 57, 87
3, 27352, Note_on_c, 1, 57, 0
3, 27353, Note_on_c, 1, 41, 0
3, 27361, Note_on_c, 1, 42, 77
3, 27364, Note_on_c, 1, 58, 79
3, 27590, Note_on_c, 1, 58, 0
3, 27602, Note_on_c, 1, 30, 62
3, 27602, Note_on_c, 1, 53, 74
3, 27745, Note_on_c, 1, 42, 0
3, 27799, Note_on_c, 1, 34, 48
3, 27816, Note_on_c, 1, 30, 0
3, 27827, Note_on_c, 1, 53, 0
3, 27836, Note_on_c, 1, 34, 0
3, 27838, Note_on_c, 1, 36, 67
3, 27838, Note_on_c, 1, 52, 68
3, 28092, Note_on_c, 1, 52, 0
3, 28269, Note_on_c, 1, 36, 0
3, 28277, Note_on_c, 1, 40, 80
3, 28278, Note_on_c, 1, 58, 93
3, 28327, Note_on_c, 1, 58, 0
3, 28333, Note_on_c, 1, 40, 0
3, 28335, Note_on_c, 1, 57, 79
3, 28337, Note_on_c, 1, 41, 77
3, 28625, Note_on_c, 1, 57, 0
3, 28632, Note_on_c, 1, 33, 48
3, 28635, Note_on_c, 1, 41, 0
3, 28635, Note_on_c, 1, 51, 68
3, 28662, Note_on_c, 1, 33, 0
3, 28670, Note_on_c, 1, 51, 0
3, 28678, Note_on_c, 1, 34, 77
3, 28679, Note_on_c, 1, 50, 81
3, 28994, Note_on_c, 1, 50, 0
3, 29036, Note_on_c, 1, 53, 89
3, 29039, Note_on_c, 1, 46, 77
3, 29099, Note_on_c, 1, 53, 0
3, 29105, Note_on_c, 1, 34, 0
3, 29128, Note_on_c, 1, 46, 0
3, 29156, Note_on_c, 1, 54, 87
3, 29157, Note_on_c, 1, 38, 73
3, 29226, Note_on_c, 1, 54, 0
3, 29268, Note_on_c, 1, 38, 0
3, 29279, Note_on_c, 1, 39, 76
3, 29279, Note_on_c, 1, 55, 113
3, 29362, Note_on_c, 1, 55, 0
3, 29365, Note_on_c, 1, 38, 57
3, 29367, Note_on_c, 1, 39, 0
3, 29369, Note_on_c, 1, 54, 47
3, 29385, Note_on_c, 1, 54, 0
3, 29395, Note_on_c, 1, 38, 0
3, 29402, Note_on_c, 1, 39, 77
3, 29404, Note_on_c, 1, 55, 82
3, 29754, Note_on_c, 1, 55, 0
3, 29759, Note_on_c, 1, 39, 0
3, 29761, Note_on_c, 1, 48, 92
3, 29762, Note_on_c, 1, 32, 79
3, 29834, Note_on_c, 1, 32, 0
3, 29836, Note_on_c, 1, 48, 0
3, 29844, Note_on_c, 1, 32, 69
3, 29845, Note_on_c, 1, 48, 68
3, 29872, Note_on_c, 1, 48, 0
3, 29874, Note_on_c, 1, 32, 0
3, 30119, Note_on_c, 1, 32, 42
3, 30121, Note_on_c, 1, 48, 46
3, 30173, Note_on_c, 1, 48, 0
3, 30195, Note_on_c, 1, 32, 0
3, 30200, Note_on_c, 1, 37, 85
3, 30202, Note_on_c, 1, 53, 115
3, 30271, Note_on_c, 1, 53, 0
3, 30287, Note_on_c, 1, 37, 0
3, 30560, Note_on_c, 1, 41, 90
3, 30560, Note_on_c, 1, 57, 115
3, 30599, Note_on_c, 1, 57, 0
3, 30601, Note_on_c, 1, 41, 0
3, 30604, Note_on_c, 1, 40, 92
3, 30605, Note_on_c, 1, 56, 80
3, 30713, Note_on_c, 1, 56, 0
3, 30718, Note_on_c, 1, 40, 0
3, 30722, Note_on_c, 1, 55, 96
3, 30723, Note_on_c, 1, 39, 82
3, 30930, Note_on_c, 1, 37, 36
3, 30949, Note_on_c, 1, 55, 0
3, 30955, Note_on_c, 1, 39, 0
3, 30959, Note_on_c, 1, 54, 77
3, 30963, Note_on_c, 1, 38, 70
3, 30971, Note_on_c, 1, 37, 0
3, 31180, Note_on_c, 1, 54, 0
3, 31199, Note_on_c, 1, 53, 73
3, 31199, Note_on_c, 1, 37, 73
3, 31202, Note_on_c, 1, 38, 0
3, 31206, Note_on_c, 1, 53, 0
3, 31288, Note_on_c, 1, 34, 60
3, 31304, Note_on_c, 1, 34, 0
3, 31316, Note_on_c, 1, 37, 0
3, 31319, Note_on_c, 1, 48, 105
3, 31402, Note_on_c, 1, 37, 25
3, 31409, Note_on_c, 1, 37, 0
3, 31481, Note_on_c, 1, 44, 71
3, 31490, Note_on_c, 1, 48, 0
3, 31504, Note_on_c, 1, 44, 0
3, 31512, Note_on_c, 1, 41, 78
3, 31528, Note_on_c, 1, 41, 0
3, 31557, Note_on_c, 1, 33, 68
3, 31558, Note_on_c, 1, 35, 75
3, 31576, Note_on_c, 1, 35, 0
3, 31659, Note_on_c, 1, 33, 0
3, 31674, Note_on_c, 1, 34, 80
3, 31765, Note_on_c, 1, 32, 35
3, 31790, Note_on_c, 1, 34, 0
3, 31794, Note_on_c, 1, 36, 90
3, 31795, Note_on_c, 1, 32, 0
3, 31911, Note_on_c, 1, 36, 0
3, 31918, Note_on_c, 1, 37, 75
3, 32000, Note_on_c, 1, 34, 28
3, 32027, Note_on_c, 1, 37, 0
3, 32033, Note_on_c, 1, 34, 0
3, 32034, Note_on_c, 1, 38, 79
3, 32121, Note_on_c, 1, 34, 44
3, 32134, Note_on_c, 1, 38, 0
3, 32142, Note_on_c, 1, 34, 0
3, 32151, Note_on_c, 1, 39, 95
3, 32220, Pitch_bend_c, 1, 8192
3, 32221, Pitch_bend_c, 1, 8192
3, 32224, Pitch_bend_c, 1, 7680
3, 32225, Pitch_bend_c, 1, 7296
3, 32227, Pitch_bend_c, 1, 6912
3, 32228, Pitch_bend_c, 1, 6656
3, 32230, Pitch_bend_c, 1, 6144
3, 32231, Pitch_bend_c, 1, 5760
3, 32233, Pitch_bend_c, 1, 5120
3, 32234, Pitch_bend_c, 1, 4736
3, 32235, Pitch_bend_c, 1, 4352
3, 32237, Pitch_bend_c, 1, 3840
3, 32238, Pitch_bend_c, 1, 3456
3, 32240, Pitch_bend_c, 1, 2944
3, 32241, Pitch_bend_c, 1, 2432
3, 32243, Pitch_bend_c, 1, 1920
3, 32244, Pitch_bend_c, 1, 1408
3, 32245, Pitch_bend_c, 1, 896
3, 32247, Pitch_bend_c, 1, 384
3, 32248, Pitch_bend_c, 1, 0
3, 32257, Pitch_bend_c, 1, 1920
3, 32258, Pitch_bend_c, 1, 4224
3, 32260, Pitch_bend_c, 1, 6784
3, 32261, Pitch_bend_c, 1, 8192
3, 32266, Note_on_c, 1, 39, 0
3, 32280, Note_on_c, 1, 43, 74
3, 32389, Note_on_c, 1, 43, 0
3, 32397, Note_on_c, 1, 39, 69
3, 32491, Note_on_c, 1, 39, 0
3, 32518, Note_on_c, 1, 46, 93
3, 32555, Pitch_bend_c, 1, 8192
3, 32558, Pitch_bend_c, 1, 8192
3, 32561, Pitch_bend_c, 1, 8192
3, 32564, Pitch_bend_c, 1, 7680
3, 32566, Pitch_bend_c, 1, 7552
3, 32567, Pitch_bend_c, 1, 7424
3, 32568, Pitch_bend_c, 1, 7040
3, 32570, Pitch_bend_c, 1, 6784
3, 32571, Pitch_bend_c, 1, 6528
3, 32573, Pitch_bend_c, 1, 6144
3, 32574, Pitch_bend_c, 1, 5760
3, 32576, Pitch_bend_c, 1, 5504
3, 32577, Pitch_bend_c, 1, 4992
3, 32578, Pitch_bend_c, 1, 4736
3, 32580, Pitch_bend_c, 1, 4352
3, 32581, Pitch_bend_c, 1, 3968
3, 32583, Pitch_bend_c, 1, 3584
3, 32584, Pitch_bend_c, 1, 3072
3, 32586, Pitch_bend_c, 1, 2688
3, 32587, Pitch_bend_c, 1, 2304
3, 32589, Pitch_bend_c, 1, 2048
3, 32590, Pitch_bend_c, 1, 2304
3, 32591, Pitch_bend_c, 1, 2432
3, 32593, Pitch_bend_c, 1, 2688
3, 32594, Pitch_bend_c, 1, 3072
3, 32596, Pitch_bend_c, 1, 3584
3, 32597, Pitch_bend_c, 1, 4352
3, 32599, Pitch_bend_c, 1, 5504
3, 32600, Pitch_bend_c, 1, 6912
3, 32601, Pitch_bend_c, 1, 8192
3, 32602, Pitch_bend_c, 1, 8192
3, 32617, Note_on_c, 1, 46, 0
3, 32639, Note_on_c, 1, 51, 79
3, 32747, Note_on_c, 1, 51, 0
3, 32756, Note_on_c, 1, 49, 85
3, 32878, Note_on_c, 1, 46, 76
3, 32965, Note_on_c, 1, 31, 58
3, 32980, Note_on_c, 1, 31, 0
3, 32981, Note_on_c, 1, 46, 0
3, 32995, Note_on_c, 1, 32, 85
3, 33001, Note_on_c, 1, 49, 0
3, 33088, Note_on_c, 1, 30, 40
3, 33115, Note_on_c, 1, 33, 79
3, 33116, Note_on_c, 1, 32, 0
3, 33122, Note_on_c, 1, 30, 0
3, 33203, Note_on_c, 1, 32, 39
3, 33230, Note_on_c, 1, 32, 0
3, 33230, Note_on_c, 1, 36, 91
3, 33240, Note_on_c, 1, 33, 0
3, 33318, Note_on_c, 1, 32, 33
3, 33336, Note_on_c, 1, 32, 0
3, 33337, Note_on_c, 1, 36, 0
3, 33352, Note_on_c, 1, 37, 81
3, 33469, Note_on_c, 1, 33, 81
3, 33478, Note_on_c, 1, 37, 0
3, 33551, Note_on_c, 1, 32, 58
3, 33574, Note_on_c, 1, 33, 0
3, 33585, Note_on_c, 1, 32, 0
3, 33588, Note_on_c, 1, 39, 83
3, 33711, Note_on_c, 1, 46, 87
3, 33741, Note_on_c, 1, 39, 0
3, 33802, Note_on_c, 1, 39, 43
3, 33823, Note_on_c, 1, 39, 0
3, 33830, Note_on_c, 1, 46, 0
3, 33834, Note_on_c, 1, 44, 77
3, 33919, Note_on_c, 1, 39, 56
3, 33946, Note_on_c, 1, 39, 0
3, 33949, Note_on_c, 1, 44, 0
3, 33957, Note_on_c, 1, 51, 85
3, 33964, Note_on_c, 1, 49, 37
3, 34013, Note_on_c, 1, 49, 0
3, 34041, Note_on_c, 1, 42, 47
3, 34054, Note_on_c, 1, 42, 0
3, 34064, Note_on_c, 1, 51, 0
3, 34074, Note_on_c, 1, 49, 83
3, 34165, Note_on_c, 1, 39, 31
3, 34187, Note_on_c, 1, 39, 0
3, 34191, Note_on_c, 1, 49, 0
3, 34196, Note_on_c, 1, 44, 94
3, 34283, Note_on_c, 1, 37, 33
3, 34287, Note_on_c, 1, 39, 31
3, 34299, Note_on_c, 1, 39, 0
3, 34306, Note_on_c, 1, 37, 0
3, 34311, Note_on_c, 1, 44, 0
3, 34316, Note_on_c, 1, 48, 88
3, 34398, Note_on_c, 1, 37, 49
3, 34417, Note_on_c, 1, 37, 0
3, 34432, Note_on_c, 1, 48, 0
3, 34434, Note_on_c, 1, 41, 84
3, 34518, Note_on_c, 1, 37, 43
3, 34526, Note_on_c, 1, 37, 0
3, 34547, Note_on_c, 1, 41, 0
3, 34554, Note_on_c, 1, 44, 81
3, 34680, Note_on_c, 1, 37, 84
3, 34687, Note_on_c, 1, 36, 71
3, 34688, Note_on_c, 1, 44, 0
3, 34693, Note_on_c, 1, 37, 0
3, 34706, Note_on_c, 1, 36, 0
3, 34795, Note_on_c, 1, 32, 77
3, 34907, Note_on_c, 1, 32, 0
3, 34917, Note_on_c, 1, 30, 79
3, 35021, Note_on_c, 1, 30, 0
3, 35036, Note_on_c, 1, 31, 77
3, 35121, Note_on_c, 1, 37, 40
3, 35134, Note_on_c, 1, 37, 0
3, 35154, Note_on_c, 1, 31, 0
3, 35156, Note_on_c, 1, 40, 78
3, 35158, Note_on_c, 1, 41, 80
3, 35251, Note_on_c, 1, 35, 47
3, 35265, Note_on_c, 1, 41, 0
3, 35273, Note_on_c, 1, 35, 0
3, 35281, Note_on_c, 1, 36, 85
3, 35282, Note_on_c, 1, 40, 0
3, 35370, Note_on_c, 1, 34, 35
3, 35395, Note_on_c, 1, 36, 0
3, 35396, Note_on_c, 1, 48, 113
3, 35400, Note_on_c, 1, 34, 0
3, 35483, Note_on_c, 1, 41, 76
3, 35495, Note_on_c, 1, 41, 0
3, 35504, Note_on_c, 1, 48, 0
3, 35516, Note_on_c, 1, 41, 91
3, 35607, Note_on_c, 1, 36, 50
3, 35628, Note_on_c, 1, 36, 0
3, 35634, Note_on_c, 1, 41, 0
3, 35634, Note_on_c, 1, 46, 97
3, 35652, Note_on_c, 1, 41, 22
3, 35667, Note_on_c, 1, 41, 0
3, 35724, Note_on_c, 1, 41, 58
3, 35731, Note_on_c, 1, 41, 0
3, 35747, Note_on_c, 1, 46, 0
3, 35755, Note_on_c, 1, 44, 86
3, 35831, Note_on_c, 1, 44, 0
3, 35840, Note_on_c, 1, 41, 82
3, 35854, Note_on_c, 1, 41, 0
3, 35875, Note_on_c, 1, 34, 84
3, 35970, Note_on_c, 1, 32, 48
3, 35995, Note_on_c, 1, 32, 0
3, 35995, Note_on_c, 1, 34, 0
3, 35996, Note_on_c, 1, 33, 83
3, 36075, Note_on_c, 1, 32, 45
3, 36080, Note_on_c, 1, 51, 98
3, 36089, Note_on_c, 1, 33, 0
3, 36092, Note_on_c, 1, 32, 0
3, 36153, Note_on_c, 1, 48, 75
3, 36169, Note_on_c, 1, 51, 0
3, 36175, Note_on_c, 1, 48, 0
3, 36187, Note_on_c, 1, 43, 71
3, 36202, Note_on_c, 1, 43, 0
3, 36230, Note_on_c, 1, 38, 74
3, 36314, Note_on_c, 1, 50, 95
3, 36344, Note_on_c, 1, 38, 0
3, 36353, Note_on_c, 1, 50, 0
3, 36355, Note_on_c, 1, 42, 74
3, 36437, Note_on_c, 1, 42, 0
3, 36441, Note_on_c, 1, 30, 59
3, 36460, Note_on_c, 1, 30, 0
3, 36474, Note_on_c, 1, 31, 74
3, 36592, Note_on_c, 1, 33, 87
3, 36604, Note_on_c, 1, 31, 0
3, 36695, Note_on_c, 1, 31, 38
3, 36700, Note_on_c, 1, 33, 0
3, 36707, Note_on_c, 1, 31, 0
3, 36717, Note_on_c, 1, 34, 77
3, 36800, Note_on_c, 1, 32, 43
3, 36835, Note_on_c, 1, 42, 88
3, 36842, Note_on_c, 1, 34, 0
3, 36849, Note_on_c, 1, 32, 0
3, 36920, Note_on_c, 1, 34, 47
3, 36937, Note_on_c, 1, 34, 0
3, 36945, Note_on_c, 1, 42, 0
3, 36956, Note_on_c, 1, 41, 87
3, 37045, Note_on_c, 1, 34, 46
3, 37064, Note_on_c, 1, 41, 0
3, 37065, Note_on_c, 1, 34, 0
3, 37075, Note_on_c, 1, 46, 88
3, 37195, Note_on_c, 1, 43, 78
3, 37211, Note_on_c, 1, 46, 0
3, 37309, Note_on_c, 1, 35, 78
3, 37315, Note_on_c, 1, 43, 0
3, 37405, Note_on_c, 1, 34, 44
3, 37429, Note_on_c, 1, 35, 0
3, 37435, Note_on_c, 1, 34, 0
3, 37437, Note_on_c, 1, 36, 90
3, 37523, Note_on_c, 1, 34, 37
3, 37555, Note_on_c, 1, 52, 115
3, 37559, Note_on_c, 1, 36, 0
3, 37570, Note_on_c, 1, 34, 0
3, 37669, Note_on_c, 1, 52, 0
3, 37675, Note_on_c, 1, 48, 87
3, 37761, Note_on_c, 1, 43, 42
3, 37778, Note_on_c, 1, 43, 0
3, 37792, Note_on_c, 1, 48, 0
3, 37795, Note_on_c, 1, 40, 84
3, 37891, Note_on_c, 1, 39, 38
3, 37910, Note_on_c, 1, 40, 0
3, 37914, Note_on_c, 1, 39, 0
3, 37915, Note_on_c, 1, 41, 87
3, 37997, Note_on_c, 1, 57, 95
3, 38088, Note_on_c, 1, 57, 0
3, 38090, Note_on_c, 1, 56, 52
3, 38110, Note_on_c, 1, 56, 0
3, 38123, Note_on_c, 1, 57, 83
3, 38154, Note_on_c, 1, 41, 0
3, 38157, Note_on_c, 1, 57, 0
3, 38160, Note_on_c, 1, 40, 87
3, 38161, Note_on_c, 1, 56, 84
3, 38363, Note_on_c, 1, 56, 0
3, 38363, Note_on_c, 1, 37, 38
3, 38367, Note_on_c, 1, 54, 33
3, 38368, Note_on_c, 1, 40, 0
3, 38374, Note_on_c, 1, 54, 0
3, 38390, Note_on_c, 1, 37, 0
3, 38398, Note_on_c, 1, 39, 81
3, 38399, Note_on_c, 1, 55, 89
3, 38555, Note_on_c, 1, 57, 17
3, 38589, Note_on_c, 1, 57, 0
3, 38602, Note_on_c, 1, 55, 0
3, 38607, Note_on_c, 1, 54, 95
3, 38607, Note_on_c, 1, 38, 85
3, 38613, Note_on_c, 1, 39, 0
3, 38731, Note_on_c, 1, 54, 0
3, 38733, Note_on_c, 1, 37, 51
3, 38741, Note_on_c, 1, 38, 0
3, 38766, Note_on_c, 1, 54, 82
3, 38767, Note_on_c, 1, 38, 81
3, 38775, Note_on_c, 1, 37, 0
3, 38833, Note_on_c, 1, 54, 0
3, 38849, Note_on_c, 1, 54, 67
3, 38875, Note_on_c, 1, 54, 0
3, 38876, Note_on_c, 1, 38, 0
3, 38882, Note_on_c, 1, 37, 70
3, 38884, Note_on_c, 1, 53, 71
3, 39000, Note_on_c, 1, 41, 94
3, 39005, Note_on_c, 1, 53, 0
3, 39014, Note_on_c, 1, 37, 0
3, 39087, Note_on_c, 1, 37, 52
3, 39113, Note_on_c, 1, 41, 0
3, 39119, Note_on_c, 1, 48, 105
3, 39129, Note_on_c, 1, 37, 0
3, 39202, Note_on_c, 1, 37, 39
3, 39204, Note_on_c, 1, 44, 82
3, 39209, Note_on_c, 1, 48, 0
3, 39210, Note_on_c, 1, 37, 0
3, 39226, Note_on_c, 1, 44, 0
3, 39239, Note_on_c, 1, 41, 74
3, 39359, Note_on_c, 1, 34, 82
3, 39361, Note_on_c, 1, 41, 0
3, 39366, Note_on_c, 1, 33, 42
3, 39374, Note_on_c, 1, 33, 0
3, 39438, Note_on_c, 1, 32, 64
3, 39465, Note_on_c, 1, 32, 0
3, 39477, Note_on_c, 1, 34, 0
3, 39479, Note_on_c, 1, 50, 110
3, 39483, Note_on_c, 1, 48, 56
3, 39490, Note_on_c, 1, 48, 0
3, 39588, Note_on_c, 1, 50, 0
3, 39593, Note_on_c, 1, 46, 85
3, 39685, Note_on_c, 1, 38, 38
3, 39693, Note_on_c, 1, 38, 0
3, 39715, Note_on_c, 1, 38, 88
3, 39802, Note_on_c, 1, 37, 45
3, 39818, Note_on_c, 1, 38, 0
3, 39829, Note_on_c, 1, 46, 0
3, 39830, Note_on_c, 1, 39, 84
3, 39836, Note_on_c, 1, 37, 0
3, 39922, Note_on_c, 1, 37, 28
3, 39954, Note_on_c, 1, 41, 85
3, 39962, Note_on_c, 1, 37, 0
3, 39966, Note_on_c, 1, 39, 0
3, 40045, Note_on_c, 1, 39, 35
3, 40061, Note_on_c, 1, 41, 0
3, 40082, Note_on_c, 1, 39, 0
3, 40083, Note_on_c, 1, 42, 82
3, 40162, Note_on_c, 1, 39, 45
3, 40183, Note_on_c, 1, 39, 0
3, 40190, Note_on_c, 1, 42, 0
3, 40195, Note_on_c, 1, 43, 81
3, 40281, Note_on_c, 1, 38, 60
3, 40292, Note_on_c, 1, 38, 0
3, 40305, Note_on_c, 1, 43, 0
3, 40313, Note_on_c, 1, 46, 76
3, 40402, Note_on_c, 1, 38, 49
3, 40418, Note_on_c, 1, 38, 0
3, 40423, Note_on_c, 1, 46, 0
3, 40430, Note_on_c, 1, 55, 87
3, 40516, Note_on_c, 1, 42, 35
3, 40523, Note_on_c, 1, 42, 0
3, 40539, Note_on_c, 1, 55, 0
3, 40550, Note_on_c, 1, 53, 79
3, 40640, Note_on_c, 1, 43, 44
3, 40653, Note_on_c, 1, 43, 0
3, 40660, Note_on_c, 1, 53, 0
3, 40671, Note_on_c, 1, 51, 77
3, 40746, Note_on_c, 1, 51, 0
3, 40754, Note_on_c, 1, 46, 88
3, 40788, Note_on_c, 1, 46, 0
3, 40795, Note_on_c, 1, 45, 70
3, 40878, Note_on_c, 1, 40, 62
3, 40893, Note_on_c, 1, 40, 0
3, 40895, Note_on_c, 1, 45, 0
3, 40914, Note_on_c, 1, 33, 79
3, 41001, Note_on_c, 1, 40, 50
3, 41011, Note_on_c, 1, 40, 0
3, 41035, Note_on_c, 1, 49, 78
3, 41039, Note_on_c, 1, 50, 80
3, 41050, Note_on_c, 1, 33, 0
3, 41108, Note_on_c, 1, 40, 44
3, 41137, Note_on_c, 1, 40, 0
3, 41147, Note_on_c, 1, 50, 0
3, 41148, Note_on_c, 1, 49, 0
3, 41155, Note_on_c, 1, 45, 82
3, 41238, Note_on_c, 1, 37, 47
3, 41258, Note_on_c, 1, 45, 0
3, 41261, Note_on_c, 1, 37, 0
3, 41273, Note_on_c, 1, 39, 84
3, 41294, Note_on_c, 1, 40, 53
3, 41324, Note_on_c, 1, 40, 0
3, 41391, Note_on_c, 1, 46, 91
3, 41407, Note_on_c, 1, 39, 0
3, 41478, Note_on_c, 1, 39, 47
3, 41493, Note_on_c, 1, 39, 0
3, 41506, Note_on_c, 1, 46, 0
3, 41513, Note_on_c, 1, 44, 83
3, 41594, Note_on_c, 1, 39, 61
3, 41615, Note_on_c, 1, 39, 0
3, 41624, Note_on_c, 1, 44, 0
3, 41629, Note_on_c, 1, 32, 74
3, 41748, Note_on_c, 1, 32, 0
3, 41757, Note_on_c, 1, 37, 75
3, 41878, Note_on_c, 1, 53, 96
3, 41992, Note_on_c, 1, 53, 0
3, 42001, Note_on_c, 1, 48, 81
3, 42087, Note_on_c, 1, 40, 55
3, 42107, Note_on_c, 1, 40, 0
3, 42109, Note_on_c, 1, 48, 0
3, 42118, Note_on_c, 1, 49, 83
3, 42124, Note_on_c, 1, 37, 0
3, 42176, Note_on_c, 1, 44, 26
3, 42193, Note_on_c, 1, 44, 0
3, 42206, Note_on_c, 1, 37, 35
3, 42223, Note_on_c, 1, 37, 0
3, 42228, Note_on_c, 1, 49, 0
3, 42237, Note_on_c, 1, 44, 79
3, 42357, Note_on_c, 1, 41, 77
3, 42471, Note_on_c, 1, 41, 0
3, 42471, Note_on_c, 1, 44, 0
3, 42480, Note_on_c, 1, 37, 84
3, 42591, Note_on_c, 1, 37, 0
3, 42595, Note_on_c, 1, 31, 79
3, 42707, Note_on_c, 1, 31, 0
3, 42717, Note_on_c, 1, 30, 80
3, 42837, Note_on_c, 1, 41, 110
3, 42911, Note_on_c, 1, 30, 0
3, 42930, Note_on_c, 1, 30, 36
3, 42954, Note_on_c, 1, 41, 0
3, 42956, Note_on_c, 1, 30, 0
3, 42963, Note_on_c, 1, 42, 85
3, 43083, Note_on_c, 1, 35, 99
3, 43097, Note_on_c, 1, 42, 0
3, 43201, Note_on_c, 1, 36, 103
3, 43211, Note_on_c, 1, 35, 0
3, 43293, Note_on_c, 1, 34, 31
3, 43318, Note_on_c, 1, 34, 0
3, 43321, Note_on_c, 1, 48, 113
3, 43330, Note_on_c, 1, 36, 0
3, 43413, Note_on_c, 1, 36, 62
3, 43423, Note_on_c, 1, 36, 0
3, 43436, Note_on_c, 1, 48, 0
3, 43444, Note_on_c, 1, 42, 94
3, 43542, Note_on_c, 1, 36, 54
3, 43549, Note_on_c, 1, 36, 0
3, 43558, Note_on_c, 1, 42, 0
3, 43560, Note_on_c, 1, 41, 103
3, 43679, Note_on_c, 1, 29, 91
3, 43685, Note_on_c, 1, 41, 0
3, 43785, Note_on_c, 1, 29, 0
3, 43798, Note_on_c, 1, 29, 78
3, 43909, Note_on_c, 1, 29, 0
3, 43915, Note_on_c, 1, 33, 91
3, 44021, Note_on_c, 1, 33, 0
3, 44032, Note_on_c, 1, 34, 92
3, 44151, Note_on_c, 1, 50, 113
3, 44241, Note_on_c, 1, 49, 76
3, 44248, Note_on_c, 1, 50, 0
3, 44261, Note_on_c, 1, 49, 0
3, 44270, Note_on_c, 1, 50, 77
3, 44379, Note_on_c, 1, 34, 0
3, 44400, Note_on_c, 1, 34, 92
3, 44473, Note_on_c, 1, 34, 0
3, 44483, Note_on_c, 1, 34, 90
3, 44575, Note_on_c, 1, 34, 0
3, 44615, Note_on_c, 1, 34, 51
3, 44636, Note_on_c, 1, 34, 0
3, 44636, Note_on_c, 1, 50, 0
3, 44644, Note_on_c, 1, 39, 91
3, 44650, Note_on_c, 1, 34, 33
3, 44658, Note_on_c, 1, 34, 0
3, 44759, Note_on_c, 1, 39, 0
3, 44765, Note_on_c, 1, 34, 73
3, 44889, Note_on_c, 1, 39, 84
3, 44900, Note_on_c, 1, 34, 0
3, 44992, Note_on_c, 1, 39, 0
3, 45004, Note_on_c, 1, 33, 71
3, 45106, Note_on_c, 1, 33, 0
3, 45125, Note_on_c, 1, 32, 78
3, 45226, Note_on_c, 1, 32, 0
3, 45243, Note_on_c, 1, 32, 68
3, 45354, Note_on_c, 1, 32, 0
3, 45360, Note_on_c, 1, 44, 91
3, 45444, Note_on_c, 1, 35, 68
3, 45473, Note_on_c, 1, 44, 0
3, 45476, Note_on_c, 1, 35, 0
3, 45487, Note_on_c, 1, 36, 74
3, 45561, Note_on_c, 1, 36, 0
3, 45564, Note_on_c, 1, 37, 86
3, 45706, Note_on_c, 1, 37, 0
3, 45721, Note_on_c, 1, 37, 83
3, 45830, Note_on_c, 1, 37, 0
3, 45847, Note_on_c, 1, 37, 77
3, 46042, Note_on_c, 1, 37, 0
3, 46043, Note_on_c, 1, 36, 66
3, 46073, Note_on_c, 1, 36, 0
3, 46085, Note_on_c, 1, 37, 93
3, 46324, Note_on_c, 1, 53, 95
3, 46476, Note_on_c, 1, 53, 0
3, 46481, Note_on_c, 1, 49, 67
3, 46495, Note_on_c, 1, 49, 0
3, 46507, Note_on_c, 1, 37, 0
3, 46519, Note_on_c, 1, 38, 79
3, 46548, Note_on_c, 1, 38, 0
3, 46561, Note_on_c, 1, 39, 88
3, 46796, Note_on_c, 1, 39, 0
3, 46807, Note_on_c, 1, 33, 87
3, 46809, Note_on_c, 1, 34, 29
3, 46816, Note_on_c, 1, 34, 0
3, 47039, Note_on_c, 1, 33, 0
3, 47046, Note_on_c, 1, 32, 82
3, 47132, Note_on_c, 1, 34, 21
3, 47141, Note_on_c, 1, 34, 0
3, 47289, Note_on_c, 1, 44, 95
3, 47310, Note_on_c, 1, 32, 0
3, 47479, Note_on_c, 1, 53, 90
3, 47479, Note_on_c, 1, 37, 78
3, 47481, Note_on_c, 1, 44, 0
3, 48096, Note_on_c, 1, 53, 0
3, 48102, Note_on_c, 1, 37, 0
3, 48102, End_track
4, 0, Start_track
4, 0, Title_t, ""
4, 319, Note_on_c, 9, 59, 58
4, 329, Note_on_c, 9, 59, 0
4, 362, Note_on_c, 9, 59, 41
4, 388, Note_on_c, 9, 59, 0
4, 437, Note_on_c, 9, 36, 62
4, 444, Note_on_c, 9, 59, 62
4, 447, Note_on_c, 9, 36, 0
4, 453, Note_on_c, 9, 59, 0
4, 479, Note_on_c, 9, 36, 63
4, 485, Note_on_c, 9, 59, 94
4, 550, Note_on_c, 9, 36, 0
4, 567, Note_on_c, 9, 59, 0
4, 694, Note_on_c, 9, 59, 56
4, 703, Note_on_c, 9, 59, 0
4, 727, Note_on_c, 9, 59, 70
4, 797, Note_on_c, 9, 59, 0
4, 802, Note_on_c, 9, 38, 48
4, 814, Note_on_c, 9, 38, 0
4, 850, Note_on_c, 9, 36, 31
4, 864, Note_on_c, 9, 36, 0
4, 913, Note_on_c, 9, 36, 64
4, 930, Note_on_c, 9, 59, 35
4, 935, Note_on_c, 9, 36, 0
4, 942, Note_on_c, 9, 59, 0
4, 960, Note_on_c, 9, 36, 50
4, 967, Note_on_c, 9, 59, 58
4, 976, Note_on_c, 9, 36, 0
4, 1015, Note_on_c, 9, 59, 0
4, 1074, Note_on_c, 9, 44, 62
4, 1091, Note_on_c, 9, 44, 0
4, 1161, Note_on_c, 9, 59, 75
4, 1178, Note_on_c, 9, 59, 0
4, 1197, Note_on_c, 9, 59, 66
4, 1259, Note_on_c, 9, 59, 0
4, 1277, Note_on_c, 9, 36, 53
4, 1286, Note_on_c, 9, 36, 0
4, 1321, Note_on_c, 9, 36, 36
4, 1355, Note_on_c, 9, 36, 0
4, 1399, Note_on_c, 9, 36, 67
4, 1406, Note_on_c, 9, 59, 71
4, 1422, Note_on_c, 9, 36, 0
4, 1423, Note_on_c, 9, 59, 0
4, 1448, Note_on_c, 9, 59, 71
4, 1476, Note_on_c, 9, 59, 0
4, 1522, Note_on_c, 9, 53, 83
4, 1537, Note_on_c, 9, 53, 0
4, 1637, Note_on_c, 9, 44, 43
4, 1645, Note_on_c, 9, 59, 59
4, 1646, Note_on_c, 9, 44, 0
4, 1659, Note_on_c, 9, 59, 0
4, 1688, Note_on_c, 9, 59, 71
4, 1744, Note_on_c, 9, 59, 0
4, 1750, Note_on_c, 9, 44, 62
4, 1760, Note_on_c, 9, 53, 85
4, 1761, Note_on_c, 9, 44, 0
4, 1782, Note_on_c, 9, 53, 0
4, 1870, Note_on_c, 9, 44, 60
4, 1881, Note_on_c, 9, 59, 56
4, 1883, Note_on_c, 9, 44, 0
4, 1893, Note_on_c, 9, 59, 0
4, 1921, Note_on_c, 9, 59, 60
4, 1981, Note_on_c, 9, 59, 0
4, 1990, Note_on_c, 9, 44, 67
4, 2003, Note_on_c, 9, 44, 0
4, 2003, Note_on_c, 9, 53, 82
4, 2026, Note_on_c, 9, 53, 0
4, 2118, Note_on_c, 9, 36, 64
4, 2125, Note_on_c, 9, 59, 53
4, 2129, Note_on_c, 9, 36, 0
4, 2143, Note_on_c, 9, 59, 0
4, 2155, Note_on_c, 9, 36, 65
4, 2164, Note_on_c, 9, 59, 74
4, 2187, Note_on_c, 9, 36, 0
4, 2219, Note_on_c, 9, 59, 0
4, 2236, Note_on_c, 9, 36, 74
4, 2242, Note_on_c, 9, 53, 96
4, 2256, Note_on_c, 9, 36, 0
4, 2264, Note_on_c, 9, 53, 0
4, 2289, Note_on_c, 9, 59, 60
4, 2310, Note_on_c, 9, 59, 0
4, 2360, Note_on_c, 9, 38, 70
4, 2364, Note_on_c, 9, 59, 62
4, 2377, Note_on_c, 9, 38, 0
4, 2380, Note_on_c, 9, 59, 0
4, 2402, Note_on_c, 9, 59, 68
4, 2403, Note_on_c, 9, 36, 41
4, 2420, Note_on_c, 9, 59, 0
4, 2437, Note_on_c, 9, 36, 0
4, 2479, Note_on_c, 9, 36, 53
4, 2490, Note_on_c, 9, 36, 0
4, 2602, Note_on_c, 9, 59, 63
4, 2619, Note_on_c, 9, 59, 0
4, 2637, Note_on_c, 9, 38, 55
4, 2644, Note_on_c, 9, 59, 71
4, 2648, Note_on_c, 9, 38, 0
4, 2672, Note_on_c, 9, 38, 60
4, 2676, Note_on_c, 9, 59, 0
4, 2684, Note_on_c, 9, 38, 0
4, 2710, Note_on_c, 9, 36, 61
4, 2720, Note_on_c, 9, 59, 108
4, 2740, Note_on_c, 9, 36, 0
4, 2748, Note_on_c, 9, 59, 0
4, 2767, Note_on_c, 9, 59, 73
4, 2825, Note_on_c, 9, 59, 0
4, 2969, Note_on_c, 9, 59, 44
4, 2979, Note_on_c, 9, 59, 0
4, 3006, Note_on_c, 9, 59, 80
4, 3076, Note_on_c, 9, 59, 0
4, 3130, Note_on_c, 9, 59, 84
4, 3171, Note_on_c, 9, 59, 0
4, 3193, Note_on_c, 9, 40, 53
4, 3202, Note_on_c, 9, 40, 0
4, 3206, Note_on_c, 9, 59, 68
4, 3224, Note_on_c, 9, 59, 0
4, 3318, Note_on_c, 9, 40, 45
4, 3319, Note_on_c, 9, 53, 71
4, 3320, Note_on_c, 9, 59, 85
4, 3328, Note_on_c, 9, 53, 0
4, 3328, Note_on_c, 9, 40, 0
4, 3336, Note_on_c, 9, 59, 0
4, 3440, Note_on_c, 9, 36, 42
4, 3447, Note_on_c, 9, 59, 84
4, 3452, Note_on_c, 9, 36, 0
4, 3464, Note_on_c, 9, 59, 0
4, 3490, Note_on_c, 9, 36, 34
4, 3507, Note_on_c, 9, 36, 0
4, 3563, Note_on_c, 9, 53, 84
4, 3564, Note_on_c, 9, 36, 63
4, 3567, Note_on_c, 9, 59, 90
4, 3578, Note_on_c, 9, 53, 0
4, 3580, Note_on_c, 9, 36, 0
4, 3588, Note_on_c, 9, 59, 0
4, 3632, Note_on_c, 9, 59, 71
4, 3670, Note_on_c, 9, 59, 0
4, 3727, Note_on_c, 9, 53, 81
4, 3733, Note_on_c, 9, 59, 88
4, 3744, Note_on_c, 9, 53, 0
4, 3769, Note_on_c, 9, 59, 0
4, 3807, Note_on_c, 9, 59, 82
4, 3830, Note_on_c, 9, 59, 0
4, 3918, Note_on_c, 9, 53, 94
4, 3919, Note_on_c, 9, 59, 85
4, 3920, Note_on_c, 9, 38, 28
4, 3933, Note_on_c, 9, 38, 0
4, 3937, Note_on_c, 9, 53, 0
4, 3942, Note_on_c, 9, 59, 0
4, 3973, Note_on_c, 9, 59, 64
4, 4031, Note_on_c, 9, 59, 0
4, 4039, Note_on_c, 9, 38, 31
4, 4049, Note_on_c, 9, 38, 0
4, 4090, Note_on_c, 9, 59, 83
4, 4120, Note_on_c, 9, 59, 0
4, 4165, Note_on_c, 9, 38, 40
4, 4178, Note_on_c, 9, 38, 0
4, 4204, Note_on_c, 9, 44, 83
4, 4265, Note_on_c, 9, 44, 0
4, 4289, Note_on_c, 9, 59, 70
4, 4312, Note_on_c, 9, 59, 0
4, 4329, Note_on_c, 9, 59, 80
4, 4384, Note_on_c, 9, 59, 0
4, 4404, Note_on_c, 9, 38, 39
4, 4418, Note_on_c, 9, 38, 0
4, 4447, Note_on_c, 9, 44, 26
4, 4460, Note_on_c, 9, 44, 0
4, 4521, Note_on_c, 9, 38, 42
4, 4530, Note_on_c, 9, 59, 53
4, 4531, Note_on_c, 9, 38, 0
4, 4541, Note_on_c, 9, 59, 0
4, 4564, Note_on_c, 9, 59, 73
4, 4628, Note_on_c, 9, 59, 0
4, 4757, Note_on_c, 9, 36, 33
4, 4769, Note_on_c, 9, 36, 0
4, 4771, Note_on_c, 9, 59, 55
4, 4780, Note_on_c, 9, 59, 0
4, 4791, Note_on_c, 9, 38, 44
4, 4804, Note_on_c, 9, 59, 71
4, 4806, Note_on_c, 9, 38, 0
4, 4828, Note_on_c, 9, 38, 53
4, 4835, Note_on_c, 9, 59, 0
4, 4847, Note_on_c, 9, 38, 0
4, 4879, Note_on_c, 9, 36, 48
4, 4889, Note_on_c, 9, 36, 0
4, 4916, Note_on_c, 9, 59, 96
4, 4918, Note_on_c, 9, 38, 49
4, 4945, Note_on_c, 9, 38, 0
4, 4979, Note_on_c, 9, 59, 0
4, 5048, Note_on_c, 9, 59, 103
4, 5098, Note_on_c, 9, 59, 0
4, 5134, Note_on_c, 9, 59, 57
4, 5148, Note_on_c, 9, 59, 0
4, 5164, Note_on_c, 9, 44, 75
4, 5171, Note_on_c, 9, 59, 72
4, 5190, Note_on_c, 9, 44, 0
4, 5230, Note_on_c, 9, 59, 0
4, 5236, Note_on_c, 9, 44, 79
4, 5257, Note_on_c, 9, 44, 0
4, 5284, Note_on_c, 9, 59, 105
4, 5360, Note_on_c, 9, 36, 53
4, 5370, Note_on_c, 9, 36, 0
4, 5374, Note_on_c, 9, 59, 0
4, 5398, Note_on_c, 9, 38, 51
4, 5445, Note_on_c, 9, 38, 0
4, 5480, Note_on_c, 9, 59, 63
4, 5496, Note_on_c, 9, 59, 0
4, 5520, Note_on_c, 9, 59, 89
4, 5603, Note_on_c, 9, 59, 0
4, 5720, Note_on_c, 9, 59, 72
4, 5740, Note_on_c, 9, 59, 0
4, 5757, Note_on_c, 9, 59, 85
4, 5826, Note_on_c, 9, 59, 0
4, 5970, Note_on_c, 9, 59, 70
4, 5986, Note_on_c, 9, 59, 0
4, 6011, Note_on_c, 9, 59, 70
4, 6026, Note_on_c, 9, 59, 0
4, 6082, Note_on_c, 9, 36, 40
4, 6083, Note_on_c, 9, 59, 110
4, 6092, Note_on_c, 9, 36, 0
4, 6103, Note_on_c, 9, 59, 0
4, 6121, Note_on_c, 9, 46, 70
4, 6125, Note_on_c, 9, 59, 78
4, 6168, Note_on_c, 9, 59, 0
4, 6182, Note_on_c, 9, 46, 0
4, 6204, Note_on_c, 9, 46, 72
4, 6240, Note_on_c, 9, 46, 0
4, 6314, Note_on_c, 9, 36, 57
4, 6314, Note_on_c, 9, 59, 74
4, 6326, Note_on_c, 9, 36, 0
4, 6334, Note_on_c, 9, 59, 0
4, 6357, Note_on_c, 9, 59, 79
4, 6358, Note_on_c, 9, 36, 58
4, 6402, Note_on_c, 9, 59, 0
4, 6416, Note_on_c, 9, 36, 0
4, 6441, Note_on_c, 9, 59, 85
4, 6442, Note_on_c, 9, 36, 64
4, 6462, Note_on_c, 9, 59, 0
4, 6471, Note_on_c, 9, 36, 0
4, 6528, Note_on_c, 9, 59, 88
4, 6571, Note_on_c, 9, 59, 0
4, 6611, Note_on_c, 9, 59, 89
4, 6652, Note_on_c, 9, 59, 0
4, 6685, Note_on_c, 9, 59, 76
4, 6705, Note_on_c, 9, 59, 0
4, 6721, Note_on_c, 9, 59, 87
4, 6797, Note_on_c, 9, 59, 0
4, 6923, Note_on_c, 9, 59, 64
4, 6939, Note_on_c, 9, 59, 0
4, 6965, Note_on_c, 9, 59, 68
4, 6994, Note_on_c, 9, 59, 0
4, 7043, Note_on_c, 9, 53, 80
4, 7044, Note_on_c, 9, 59, 87
4, 7049, Note_on_c, 9, 36, 31
4, 7059, Note_on_c, 9, 36, 0
4, 7063, Note_on_c, 9, 53, 0
4, 7072, Note_on_c, 9, 59, 0
4, 7082, Note_on_c, 9, 38, 48
4, 7095, Note_on_c, 9, 38, 0
4, 7115, Note_on_c, 9, 38, 58
4, 7121, Note_on_c, 9, 59, 70
4, 7135, Note_on_c, 9, 38, 0
4, 7157, Note_on_c, 9, 59, 0
4, 7171, Note_on_c, 9, 36, 60
4, 7193, Note_on_c, 9, 36, 0
4, 7207, Note_on_c, 9, 53, 72
4, 7209, Note_on_c, 9, 59, 89
4, 7214, Note_on_c, 9, 52, 42
4, 7222, Note_on_c, 9, 52, 0
4, 7230, Note_on_c, 9, 53, 0
4, 7264, Note_on_c, 9, 59, 0
4, 7290, Note_on_c, 9, 59, 67
4, 7317, Note_on_c, 9, 59, 0
4, 7365, Note_on_c, 9, 59, 88
4, 7370, Note_on_c, 9, 53, 91
4, 7396, Note_on_c, 9, 46, 62
4, 7413, Note_on_c, 9, 53, 0
4, 7415, Note_on_c, 9, 46, 0
4, 7415, Note_on_c, 9, 59, 0
4, 7439, Note_on_c, 9, 46, 50
4, 7453, Note_on_c, 9, 59, 81
4, 7466, Note_on_c, 9, 46, 0
4, 7499, Note_on_c, 9, 59, 0
4, 7525, Note_on_c, 9, 36, 55
4, 7536, Note_on_c, 9, 36, 0
4, 7638, Note_on_c, 9, 53, 88
4, 7642, Note_on_c, 9, 59, 90
4, 7666, Note_on_c, 9, 53, 0
4, 7677, Note_on_c, 9, 59, 0
4, 7701, Note_on_c, 9, 59, 66
4, 7746, Note_on_c, 9, 59, 0
4, 7765, Note_on_c, 9, 59, 83
4, 7768, Note_on_c, 9, 53, 94
4, 7819, Note_on_c, 9, 53, 0
4, 7826, Note_on_c, 9, 59, 0
4, 7888, Note_on_c, 9, 59, 69
4, 7889, Note_on_c, 9, 38, 53
4, 7900, Note_on_c, 9, 38, 0
4, 7905, Note_on_c, 9, 59, 0
4, 7930, Note_on_c, 9, 53, 89
4, 7930, Note_on_c, 9, 59, 83
4, 7936, Note_on_c, 9, 38, 33
4, 7949, Note_on_c, 9, 38, 0
4, 7962, Note_on_c, 9, 53, 0
4, 8007, Note_on_c, 9, 36, 67
4, 8010, Note_on_c, 9, 59, 0
4, 8017, Note_on_c, 9, 36, 0
4, 8126, Note_on_c, 9, 51, 85
4, 8127, Note_on_c, 9, 38, 68
4, 8127, Note_on_c, 9, 53, 90
4, 8141, Note_on_c, 9, 53, 0
4, 8145, Note_on_c, 9, 38, 0
4, 8147, Note_on_c, 9, 51, 0
4, 8172, Note_on_c, 9, 38, 33
4, 8180, Note_on_c, 9, 59, 77
4, 8196, Note_on_c, 9, 38, 0
4, 8246, Note_on_c, 9, 36, 37
4, 8253, Note_on_c, 9, 59, 0
4, 8257, Note_on_c, 9, 36, 0
4, 8293, Note_on_c, 9, 59, 72
4, 8295, Note_on_c, 9, 36, 31
4, 8304, Note_on_c, 9, 36, 0
4, 8346, Note_on_c, 9, 59, 0
4, 8412, Note_on_c, 9, 59, 85
4, 8453, Note_on_c, 9, 59, 0
4, 8527, Note_on_c, 9, 38, 34
4, 8540, Note_on_c, 9, 38, 0
4, 8572, Note_on_c, 9, 38, 24
4, 8582, Note_on_c, 9, 38, 0
4, 8610, Note_on_c, 9, 59, 73
4, 8628, Note_on_c, 9, 59, 0
4, 8647, Note_on_c, 9, 59, 80
4, 8710, Note_on_c, 9, 59, 0
4, 8715, Note_on_c, 9, 38, 42
4, 8725, Note_on_c, 9, 38, 0
4, 8760, Note_on_c, 9, 38, 57
4, 8761, Note_on_c, 9, 59, 94
4, 8770, Note_on_c, 9, 38, 0
4, 8828, Note_on_c, 9, 59, 0
4, 8833, Note_on_c, 9, 36, 53
4, 8843, Note_on_c, 9, 36, 0
4, 8879, Note_on_c, 9, 38, 55
4, 8880, Note_on_c, 9, 59, 92
4, 8902, Note_on_c, 9, 38, 0
4, 8938, Note_on_c, 9, 59, 0
4, 8945, Note_on_c, 9, 38, 57
4, 8963, Note_on_c, 9, 38, 0
4, 8967, Note_on_c, 9, 59, 57
4, 8983, Note_on_c, 9, 59, 0
4, 8995, Note_on_c, 9, 38, 54
4, 9003, Note_on_c, 9, 59, 90
4, 9011, Note_on_c, 9, 38, 0
4, 9070, Note_on_c, 9, 36, 39
4, 9088, Note_on_c, 9, 59, 0
4, 9098, Note_on_c, 9, 36, 0
4, 9206, Note_on_c, 9, 59, 65
4, 9217, Note_on_c, 9, 59, 0
4, 9242, Note_on_c, 9, 59, 88
4, 9308, Note_on_c, 9, 59, 0
4, 9320, Note_on_c, 9, 38, 43
4, 9331, Note_on_c, 9, 38, 0
4, 9358, Note_on_c, 9, 59, 99
4, 9371, Note_on_c, 9, 38, 31
4, 9382, Note_on_c, 9, 38, 0
4, 9420, Note_on_c, 9, 59, 0
4, 9440, Note_on_c, 9, 36, 53
4, 9449, Note_on_c, 9, 36, 0
4, 9476, Note_on_c, 9, 59, 99
4, 9538, Note_on_c, 9, 59, 0
4, 9559, Note_on_c, 9, 38, 35
4, 9571, Note_on_c, 9, 38, 0
4, 9599, Note_on_c, 9, 59, 103
4, 9610, Note_on_c, 9, 38, 19
4, 9620, Note_on_c, 9, 38, 0
4, 9655, Note_on_c, 9, 59, 0
4, 9680, Note_on_c, 9, 59, 58
4, 9701, Note_on_c, 9, 59, 0
4, 9715, Note_on_c, 9, 59, 92
4, 9776, Note_on_c, 9, 59, 0
4, 9795, Note_on_c, 9, 36, 33
4, 9806, Note_on_c, 9, 36, 0
4, 9831, Note_on_c, 9, 59, 99
4, 9893, Note_on_c, 9, 59, 0
4, 9917, Note_on_c, 9, 38, 35
4, 9928, Note_on_c, 9, 38, 0
4, 9950, Note_on_c, 9, 59, 103
4, 10034, Note_on_c, 9, 59, 0
4, 10037, Note_on_c, 9, 44, 47
4, 10046, Note_on_c, 9, 44, 0
4, 10147, Note_on_c, 9, 44, 64
4, 10156, Note_on_c, 9, 44, 0
4, 10157, Note_on_c, 9, 59, 63
4, 10170, Note_on_c, 9, 59, 0
4, 10196, Note_on_c, 9, 59, 82
4, 10253, Note_on_c, 9, 59, 0
4, 10272, Note_on_c, 9, 44, 62
4, 10288, Note_on_c, 9, 44, 0
4, 10317, Note_on_c, 9, 59, 105
4, 10388, Note_on_c, 9, 44, 71
4, 10406, Note_on_c, 9, 59, 0
4, 10407, Note_on_c, 9, 44, 0
4, 10517, Note_on_c, 9, 38, 62
4, 10527, Note_on_c, 9, 38, 0
4, 10527, Note_on_c, 9, 59, 66
4, 10545, Note_on_c, 9, 59, 0
4, 10565, Note_on_c, 9, 36, 36
4, 10566, Note_on_c, 9, 59, 81
4, 10581, Note_on_c, 9, 36, 0
4, 10597, Note_on_c, 9, 59, 0
4, 10637, Note_on_c, 9, 36, 38
4, 10643, Note_on_c, 9, 59, 113
4, 10649, Note_on_c, 9, 36, 0
4, 10742, Note_on_c, 9, 59, 0
4, 10763, Note_on_c, 9, 59, 64
4, 10783, Note_on_c, 9, 59, 0
4, 10811, Note_on_c, 9, 59, 101
4, 10892, Note_on_c, 9, 59, 0
4, 10923, Note_on_c, 9, 59, 50
4, 10949, Note_on_c, 9, 59, 0
4, 10999, Note_on_c, 9, 59, 103
4, 11086, Note_on_c, 9, 59, 0
4, 11129, Note_on_c, 9, 59, 60
4, 11140, Note_on_c, 9, 59, 0
4, 11172, Note_on_c, 9, 59, 77
4, 11221, Note_on_c, 9, 59, 0
4, 11287, Note_on_c, 9, 59, 90
4, 11335, Note_on_c, 9, 59, 0
4, 11364, Note_on_c, 9, 38, 34
4, 11366, Note_on_c, 9, 59, 62
4, 11375, Note_on_c, 9, 38, 0
4, 11383, Note_on_c, 9, 59, 0
4, 11402, Note_on_c, 9, 37, 93
4, 11451, Note_on_c, 9, 37, 0
4, 11490, Note_on_c, 9, 59, 84
4, 11492, Note_on_c, 9, 36, 36
4, 11504, Note_on_c, 9, 36, 0
4, 11506, Note_on_c, 9, 59, 0
4, 11530, Note_on_c, 9, 36, 42
4, 11530, Note_on_c, 9, 59, 75
4, 11569, Note_on_c, 9, 36, 0
4, 11581, Note_on_c, 9, 59, 0
4, 11604, Note_on_c, 9, 36, 50
4, 11620, Note_on_c, 9, 36, 0
4, 11725, Note_on_c, 9, 59, 71
4, 11744, Note_on_c, 9, 59, 0
4, 11762, Note_on_c, 9, 59, 75
4, 11817, Note_on_c, 9, 59, 0
4, 11845, Note_on_c, 9, 36, 26
4, 11853, Note_on_c, 9, 36, 0
4, 11876, Note_on_c, 9, 37, 97
4, 11881, Note_on_c, 9, 59, 94
4, 11908, Note_on_c, 9, 59, 0
4, 11935, Note_on_c, 9, 37, 0
4, 11955, Note_on_c, 9, 37, 73
4, 11974, Note_on_c, 9, 37, 0
4, 11977, Note_on_c, 9, 59, 60
4, 11988, Note_on_c, 9, 59, 0
4, 12012, Note_on_c, 9, 59, 80
4, 12062, Note_on_c, 9, 59, 0
4, 12087, Note_on_c, 9, 36, 37
4, 12099, Note_on_c, 9, 36, 0
4, 12124, Note_on_c, 9, 36, 66
4, 12183, Note_on_c, 9, 36, 0
4, 12208, Note_on_c, 9, 59, 67
4, 12229, Note_on_c, 9, 59, 0
4, 12244, Note_on_c, 9, 59, 77
4, 12290, Note_on_c, 9, 59, 0
4, 12319, Note_on_c, 9, 53, 78
4, 12336, Note_on_c, 9, 53, 0
4, 12346, Note_on_c, 9, 36, 24
4, 12356, Note_on_c, 9, 36, 0
4, 12359, Note_on_c, 9, 59, 49
4, 12405, Note_on_c, 9, 59, 0
4, 12436, Note_on_c, 9, 53, 84
4, 12453, Note_on_c, 9, 53, 0
4, 12486, Note_on_c, 9, 59, 59
4, 12537, Note_on_c, 9, 59, 0
4, 12566, Note_on_c, 9, 59, 58
4, 12587, Note_on_c, 9, 59, 0
4, 12604, Note_on_c, 9, 59, 81
4, 12658, Note_on_c, 9, 59, 0
4, 12694, Note_on_c, 9, 38, 28
4, 12703, Note_on_c, 9, 38, 0
4, 12725, Note_on_c, 9, 59, 91
4, 12779, Note_on_c, 9, 59, 0
4, 12801, Note_on_c, 9, 44, 68
4, 12818, Note_on_c, 9, 44, 0
4, 12846, Note_on_c, 9, 59, 103
4, 12855, Note_on_c, 9, 44, 68
4, 12872, Note_on_c, 9, 44, 0
4, 12923, Note_on_c, 9, 38, 58
4, 12926, Note_on_c, 9, 59, 0
4, 12934, Note_on_c, 9, 38, 0
4, 12974, Note_on_c, 9, 38, 54
4, 12986, Note_on_c, 9, 38, 0
4, 13046, Note_on_c, 9, 59, 60
4, 13057, Note_on_c, 9, 59, 0
4, 13084, Note_on_c, 9, 59, 71
4, 13131, Note_on_c, 9, 59, 0
4, 13204, Note_on_c, 9, 59, 103
4, 13268, Note_on_c, 9, 59, 0
4, 13275, Note_on_c, 9, 38, 49
4, 13289, Note_on_c, 9, 38, 0
4, 13321, Note_on_c, 9, 59, 103
4, 13332, Note_on_c, 9, 36, 24
4, 13364, Note_on_c, 9, 36, 0
4, 13395, Note_on_c, 9, 36, 53
4, 13402, Note_on_c, 9, 59, 0
4, 13416, Note_on_c, 9, 36, 0
4, 13521, Note_on_c, 9, 59, 65
4, 13534, Note_on_c, 9, 59, 0
4, 13560, Note_on_c, 9, 59, 89
4, 13631, Note_on_c, 9, 59, 0
4, 13680, Note_on_c, 9, 59, 77
4, 13698, Note_on_c, 9, 59, 0
4, 13759, Note_on_c, 9, 59, 103
4, 13843, Note_on_c, 9, 59, 0
4, 13882, Note_on_c, 9, 59, 57
4, 13886, Note_on_c, 9, 38, 24
4, 13891, Note_on_c, 9, 59, 0
4, 13895, Note_on_c, 9, 38, 0
4, 13928, Note_on_c, 9, 59, 99
4, 13995, Note_on_c, 9, 38, 54
4, 14002, Note_on_c, 9, 59, 0
4, 14013, Note_on_c, 9, 38, 0
4, 14043, Note_on_c, 9, 59, 59
4, 14045, Note_on_c, 9, 38, 36
4, 14055, Note_on_c, 9, 59, 0
4, 14066, Note_on_c, 9, 38, 0
4, 14117, Note_on_c, 9, 36, 48
4, 14121, Note_on_c, 9, 59, 89
4, 14124, Note_on_c, 9, 53, 80
4, 14127, Note_on_c, 9, 36, 0
4, 14167, Note_on_c, 9, 53, 0
4, 14168, Note_on_c, 9, 36, 34
4, 14181, Note_on_c, 9, 36, 0
4, 14203, Note_on_c, 9, 59, 0
4, 14249, Note_on_c, 9, 59, 57
4, 14261, Note_on_c, 9, 59, 0
4, 14300, Note_on_c, 9, 59, 74
4, 14327, Note_on_c, 9, 59, 0
4, 14368, Note_on_c, 9, 59, 94
4, 14370, Note_on_c, 9, 53, 90
4, 14409, Note_on_c, 9, 53, 0
4, 14446, Note_on_c, 9, 59, 0
4, 14479, Note_on_c, 9, 38, 41
4, 14491, Note_on_c, 9, 38, 0
4, 14492, Note_on_c, 9, 59, 57
4, 14502, Note_on_c, 9, 59, 0
4, 14519, Note_on_c, 9, 38, 36
4, 14535, Note_on_c, 9, 59, 68
4, 14546, Note_on_c, 9, 38, 0
4, 14556, Note_on_c, 9, 59, 0
4, 14597, Note_on_c, 9, 38, 48
4, 14607, Note_on_c, 9, 59, 95
4, 14608, Note_on_c, 9, 38, 0
4, 14609, Note_on_c, 9, 53, 90
4, 14637, Note_on_c, 9, 53, 0
4, 14655, Note_on_c, 9, 59, 0
4, 14732, Note_on_c, 9, 59, 65
4, 14748, Note_on_c, 9, 59, 0
4, 14774, Note_on_c, 9, 59, 67
4, 14806, Note_on_c, 9, 59, 0
4, 14844, Note_on_c, 9, 59, 88
4, 14850, Note_on_c, 9, 53, 53
4, 14859, Note_on_c, 9, 53, 0
4, 14860, Note_on_c, 9, 59, 0
4, 14885, Note_on_c, 9, 59, 81
4, 14886, Note_on_c, 9, 53, 76
4, 14934, Note_on_c, 9, 59, 0
4, 14939, Note_on_c, 9, 53, 0
4, 14994, Note_on_c, 9, 38, 60
4, 15013, Note_on_c, 9, 38, 0
4, 15034, Note_on_c, 9, 38, 49
4, 15045, Note_on_c, 9, 38, 0
4, 15119, Note_on_c, 9, 38, 53
4, 15155, Note_on_c, 9, 38, 0
4, 15193, Note_on_c, 9, 38, 63
4, 15206, Note_on_c, 9, 38, 0
4, 15435, Note_on_c, 9, 38, 70
4, 15459, Note_on_c, 9, 38, 0
4, 15562, Note_on_c, 9, 36, 42
4, 15576, Note_on_c, 9, 36, 0
4, 15684, Note_on_c, 9, 38, 73
4, 15684, Note_on_c, 9, 59, 75
4, 15703, Note_on_c, 9, 59, 0
4, 15704, Note_on_c, 9, 38, 0
4, 15723, Note_on_c, 9, 59, 70
4, 15742, Note_on_c, 9, 59, 0
4, 15802, Note_on_c, 9, 36, 76
4, 15810, Note_on_c, 9, 53, 91
4, 15817, Note_on_c, 9, 36, 0
4, 15822, Note_on_c, 9, 53, 0
4, 15834, Note_on_c, 9, 57, 80
4, 15843, Note_on_c, 9, 38, 71
4, 15847, Note_on_c, 9, 57, 0
4, 15849, Note_on_c, 9, 51, 97
4, 15851, Note_on_c, 9, 38, 0
4, 15910, Note_on_c, 9, 51, 0
4, 15966, Note_on_c, 9, 51, 97
4, 16030, Note_on_c, 9, 51, 0
4, 16086, Note_on_c, 9, 51, 94
4, 16127, Note_on_c, 9, 51, 0
4, 16166, Note_on_c, 9, 36, 54
4, 16176, Note_on_c, 9, 36, 0
4, 16205, Note_on_c, 9, 57, 99
4, 16205, Note_on_c, 9, 51, 92
4, 16207, Note_on_c, 9, 38, 85
4, 16220, Note_on_c, 9, 57, 0
4, 16224, Note_on_c, 9, 38, 0
4, 16238, Note_on_c, 9, 51, 0
4, 16296, Note_on_c, 9, 51, 69
4, 16313, Note_on_c, 9, 51, 0
4, 16327, Note_on_c, 9, 51, 88
4, 16394, Note_on_c, 9, 51, 0
4, 16444, Note_on_c, 9, 51, 95
4, 16508, Note_on_c, 9, 51, 0
4, 16563, Note_on_c, 9, 51, 93
4, 16605, Note_on_c, 9, 51, 0
4, 16651, Note_on_c, 9, 51, 56
4, 16665, Note_on_c, 9, 51, 0
4, 16680, Note_on_c, 9, 51, 91
4, 16749, Note_on_c, 9, 51, 0
4, 16797, Note_on_c, 9, 51, 92
4, 16865, Note_on_c, 9, 51, 0
4, 16917, Note_on_c, 9, 51, 90
4, 16969, Note_on_c, 9, 51, 0
4, 17015, Note_on_c, 9, 51, 74
4, 17030, Note_on_c, 9, 51, 0
4, 17043, Note_on_c, 9, 51, 83
4, 17116, Note_on_c, 9, 51, 0
4, 17121, Note_on_c, 9, 36, 39
4, 17131, Note_on_c, 9, 36, 0
4, 17159, Note_on_c, 9, 51, 94
4, 17217, Note_on_c, 9, 51, 0
4, 17238, Note_on_c, 9, 36, 49
4, 17248, Note_on_c, 9, 36, 0
4, 17254, Note_on_c, 9, 51, 71
4, 17266, Note_on_c, 9, 51, 0
4, 17278, Note_on_c, 9, 36, 40
4, 17281, Note_on_c, 9, 51, 87
4, 17326, Note_on_c, 9, 36, 0
4, 17365, Note_on_c, 9, 51, 0
4, 17398, Note_on_c, 9, 51, 92
4, 17479, Note_on_c, 9, 51, 0
4, 17523, Note_on_c, 9, 51, 70
4, 17533, Note_on_c, 9, 51, 0
4, 17555, Note_on_c, 9, 51, 84
4, 17589, Note_on_c, 9, 36, 56
4, 17600, Note_on_c, 9, 36, 0
4, 17614, Note_on_c, 9, 51, 0
4, 17644, Note_on_c, 9, 51, 91
4, 17644, Control_c, 9, 64, 127
4, 17649, Control_c, 9, 64, 0
4, 17712, Note_on_c, 9, 51, 0
4, 17738, Note_on_c, 9, 51, 71
4, 17754, Note_on_c, 9, 36, 34
4, 17756, Note_on_c, 9, 51, 0
4, 17769, Note_on_c, 9, 51, 82
4, 17799, Note_on_c, 9, 36, 0
4, 17832, Note_on_c, 9, 51, 0
4, 17873, Note_on_c, 9, 51, 92
4, 17951, Note_on_c, 9, 51, 0
4, 17995, Note_on_c, 9, 38, 26
4, 17995, Note_on_c, 9, 51, 91
4, 18011, Note_on_c, 9, 38, 0
4, 18058, Note_on_c, 9, 51, 0
4, 18071, Note_on_c, 9, 38, 44
4, 18087, Note_on_c, 9, 38, 0
4, 18090, Note_on_c, 9, 51, 47
4, 18098, Note_on_c, 9, 51, 0
4, 18116, Note_on_c, 9, 51, 74
4, 18189, Note_on_c, 9, 51, 0
4, 18230, Note_on_c, 9, 51, 90
4, 18295, Note_on_c, 9, 51, 0
4, 18352, Note_on_c, 9, 51, 91
4, 18368, Note_on_c, 9, 40, 38
4, 18371, Note_on_c, 9, 38, 40
4, 18378, Note_on_c, 9, 51, 0
4, 18392, Note_on_c, 9, 38, 0
4, 18399, Note_on_c, 9, 40, 0
4, 18440, Note_on_c, 9, 51, 82
4, 18443, Note_on_c, 9, 40, 41
4, 18455, Note_on_c, 9, 51, 0
4, 18467, Note_on_c, 9, 40, 0
4, 18476, Note_on_c, 9, 51, 79
4, 18545, Note_on_c, 9, 51, 0
4, 18596, Note_on_c, 9, 51, 92
4, 18657, Note_on_c, 9, 51, 0
4, 18714, Note_on_c, 9, 51, 88
4, 18782, Note_on_c, 9, 51, 0
4, 18838, Note_on_c, 9, 51, 87
4, 18884, Note_on_c, 9, 51, 0
4, 18901, Note_on_c, 9, 38, 48
4, 18910, Note_on_c, 9, 38, 0
4, 18931, Note_on_c, 9, 51, 76
4, 18941, Note_on_c, 9, 38, 43
4, 18947, Note_on_c, 9, 51, 0
4, 18955, Note_on_c, 9, 38, 0
4, 18963, Note_on_c, 9, 51, 74
4, 19036, Note_on_c, 9, 51, 0
4, 19079, Note_on_c, 9, 51, 90
4, 19120, Note_on_c, 9, 51, 0
4, 19165, Note_on_c, 9, 36, 38
4, 19169, Note_on_c, 9, 51, 78
4, 19177, Note_on_c, 9, 36, 0
4, 19184, Note_on_c, 9, 51, 0
4, 19201, Note_on_c, 9, 51, 77
4, 19204, Note_on_c, 9, 38, 52
4, 19213, Note_on_c, 9, 38, 0
4, 19241, Note_on_c, 9, 38, 55
4, 19252, Note_on_c, 9, 38, 0
4, 19276, Note_on_c, 9, 51, 0
4, 19286, Note_on_c, 9, 36, 50
4, 19297, Note_on_c, 9, 36, 0
4, 19320, Note_on_c, 9, 51, 88
4, 19328, Note_on_c, 9, 38, 51
4, 19339, Note_on_c, 9, 38, 0
4, 19366, Note_on_c, 9, 38, 53
4, 19380, Note_on_c, 9, 38, 0
4, 19384, Note_on_c, 9, 51, 0
4, 19411, Note_on_c, 9, 36, 48
4, 19422, Note_on_c, 9, 36, 0
4, 19440, Note_on_c, 9, 51, 74
4, 19484, Note_on_c, 9, 51, 0
4, 19526, Note_on_c, 9, 36, 42
4, 19536, Note_on_c, 9, 36, 0
4, 19555, Note_on_c, 9, 59, 81
4, 19556, Note_on_c, 9, 51, 84
4, 19566, Note_on_c, 9, 40, 64
4, 19578, Note_on_c, 9, 40, 0
4, 19603, Note_on_c, 9, 40, 55
4, 19617, Note_on_c, 9, 40, 0
4, 19617, Note_on_c, 9, 59, 0
4, 19632, Note_on_c, 9, 51, 0
4, 19644, Note_on_c, 9, 36, 58
4, 19656, Note_on_c, 9, 36, 0
4, 19675, Note_on_c, 9, 51, 82
4, 19681, Note_on_c, 9, 40, 61
4, 19705, Note_on_c, 9, 40, 0
4, 19731, Note_on_c, 9, 36, 50
4, 19742, Note_on_c, 9, 36, 0
4, 19745, Note_on_c, 9, 51, 0
4, 19762, Note_on_c, 9, 38, 74
4, 19795, Note_on_c, 9, 51, 83
4, 19810, Note_on_c, 9, 38, 0
4, 19868, Note_on_c, 9, 51, 0
4, 19917, Note_on_c, 9, 51, 81
4, 19921, Note_on_c, 9, 53, 71
4, 20008, Note_on_c, 9, 53, 0
4, 20013, Note_on_c, 9, 51, 0
4, 20041, Note_on_c, 9, 51, 72
4, 20114, Note_on_c, 9, 38, 62
4, 20130, Note_on_c, 9, 51, 0
4, 20133, Note_on_c, 9, 38, 0
4, 20159, Note_on_c, 9, 51, 77
4, 20160, Note_on_c, 9, 36, 32
4, 20180, Note_on_c, 9, 36, 0
4, 20235, Note_on_c, 9, 51, 0
4, 20275, Note_on_c, 9, 51, 85
4, 20278, Note_on_c, 9, 53, 78
4, 20366, Note_on_c, 9, 53, 0
4, 20369, Note_on_c, 9, 51, 0
4, 20392, Note_on_c, 9, 51, 62
4, 20476, Note_on_c, 9, 51, 0
4, 20514, Note_on_c, 9, 51, 81
4, 20518, Note_on_c, 9, 53, 71
4, 20579, Note_on_c, 9, 51, 0
4, 20580, Note_on_c, 9, 53, 0
4, 20601, Note_on_c, 9, 36, 43
4, 20604, Note_on_c, 9, 51, 64
4, 20611, Note_on_c, 9, 36, 0
4, 20622, Note_on_c, 9, 51, 0
4, 20636, Note_on_c, 9, 51, 77
4, 20640, Note_on_c, 9, 36, 31
4, 20683, Note_on_c, 9, 36, 0
4, 20729, Note_on_c, 9, 51, 0
4, 20757, Note_on_c, 9, 51, 86
4, 20826, Note_on_c, 9, 51, 0
4, 20838, Note_on_c, 9, 36, 80
4, 20851, Note_on_c, 9, 51, 61
4, 20866, Note_on_c, 9, 51, 0
4, 20866, Note_on_c, 9, 36, 0
4, 20879, Note_on_c, 9, 51, 79
4, 20888, Note_on_c, 9, 36, 50
4, 20899, Note_on_c, 9, 36, 0
4, 20973, Note_on_c, 9, 51, 0
4, 21000, Note_on_c, 9, 51, 85
4, 21072, Note_on_c, 9, 51, 0
4, 21086, Note_on_c, 9, 36, 39
4, 21093, Note_on_c, 9, 51, 58
4, 21097, Note_on_c, 9, 36, 0
4, 21111, Note_on_c, 9, 51, 0
4, 21123, Note_on_c, 9, 51, 88
4, 21193, Note_on_c, 9, 44, 76
4, 21201, Note_on_c, 9, 51, 0
4, 21209, Note_on_c, 9, 44, 0
4, 21234, Note_on_c, 9, 51, 91
4, 21315, Note_on_c, 9, 44, 74
4, 21329, Note_on_c, 9, 44, 0
4, 21344, Note_on_c, 9, 51, 0
4, 21360, Note_on_c, 9, 51, 72
4, 21374, Note_on_c, 9, 51, 0
4, 21395, Note_on_c, 9, 51, 83
4, 21441, Note_on_c, 9, 44, 77
4, 21457, Note_on_c, 9, 44, 0
4, 21459, Note_on_c, 9, 51, 0
4, 21485, Note_on_c, 9, 51, 84
4, 21560, Note_on_c, 9, 44, 71
4, 21564, Note_on_c, 9, 51, 0
4, 21576, Note_on_c, 9, 44, 0
4, 21577, Note_on_c, 9, 51, 68
4, 21593, Note_on_c, 9, 51, 0
4, 21596, Note_on_c, 9, 36, 62
4, 21607, Note_on_c, 9, 51, 84
4, 21627, Note_on_c, 9, 36, 0
4, 21683, Note_on_c, 9, 36, 50
4, 21694, Note_on_c, 9, 36, 0
4, 21694, Note_on_c, 9, 51, 0
4, 21723, Note_on_c, 9, 51, 87
4, 21802, Note_on_c, 9, 51, 0
4, 21817, Note_on_c, 9, 51, 67
4, 21833, Note_on_c, 9, 51, 0
4, 21847, Note_on_c, 9, 51, 85
4, 21936, Note_on_c, 9, 51, 0
4, 21959, Note_on_c, 9, 51, 78
4, 21995, Note_on_c, 9, 51, 0
4, 22002, Note_on_c, 9, 51, 72
4, 22040, Note_on_c, 9, 38, 64
4, 22057, Note_on_c, 9, 38, 0
4, 22065, Note_on_c, 9, 51, 0
4, 22083, Note_on_c, 9, 36, 32
4, 22087, Note_on_c, 9, 51, 78
4, 22113, Note_on_c, 9, 36, 0
4, 22165, Note_on_c, 9, 51, 0
4, 22165, Note_on_c, 9, 36, 34
4, 22170, Note_on_c, 9, 51, 55
4, 22175, Note_on_c, 9, 36, 0
4, 22207, Note_on_c, 9, 51, 0
4, 22240, Note_on_c, 9, 51, 91
4, 22311, Note_on_c, 9, 51, 0
4, 22331, Note_on_c, 9, 51, 76
4, 22392, Note_on_c, 9, 51, 0
4, 22406, Note_on_c, 9, 44, 78
4, 22415, Note_on_c, 9, 51, 74
4, 22421, Note_on_c, 9, 44, 0
4, 22441, Note_on_c, 9, 51, 0
4, 22457, Note_on_c, 9, 51, 70
4, 22504, Note_on_c, 9, 51, 0
4, 22525, Note_on_c, 9, 44, 79
4, 22527, Note_on_c, 9, 51, 85
4, 22541, Note_on_c, 9, 44, 0
4, 22560, Note_on_c, 9, 51, 0
4, 22570, Note_on_c, 9, 51, 71
4, 22575, Note_on_c, 9, 36, 24
4, 22583, Note_on_c, 9, 36, 0
4, 22626, Note_on_c, 9, 51, 0
4, 22643, Note_on_c, 9, 51, 81
4, 22646, Note_on_c, 9, 36, 71
4, 22646, Note_on_c, 9, 53, 80
4, 22672, Note_on_c, 9, 36, 0
4, 22689, Note_on_c, 9, 36, 35
4, 22717, Note_on_c, 9, 36, 0
4, 22736, Note_on_c, 9, 51, 0
4, 22754, Note_on_c, 9, 53, 0
4, 22757, Note_on_c, 9, 51, 53
4, 22767, Note_on_c, 9, 36, 32
4, 22777, Note_on_c, 9, 51, 0
4, 22779, Note_on_c, 9, 36, 0
4, 22801, Note_on_c, 9, 51, 77
4, 22803, Note_on_c, 9, 53, 82
4, 22860, Note_on_c, 9, 51, 0
4, 22881, Note_on_c, 9, 53, 0
4, 22882, Note_on_c, 9, 36, 78
4, 22882, Note_on_c, 9, 51, 50
4, 22896, Note_on_c, 9, 51, 0
4, 22904, Note_on_c, 9, 36, 0
4, 22919, Note_on_c, 9, 51, 63
4, 22922, Note_on_c, 9, 36, 37
4, 22950, Note_on_c, 9, 36, 0
4, 22973, Note_on_c, 9, 51, 0
4, 23001, Note_on_c, 9, 51, 84
4, 23003, Note_on_c, 9, 53, 80
4, 23065, Note_on_c, 9, 53, 0
4, 23103, Note_on_c, 9, 51, 0
4, 23121, Note_on_c, 9, 38, 72
4, 23131, Note_on_c, 9, 51, 47
4, 23133, Note_on_c, 9, 38, 0
4, 23153, Note_on_c, 9, 51, 0
4, 23167, Note_on_c, 9, 36, 32
4, 23168, Note_on_c, 9, 51, 84
4, 23173, Note_on_c, 9, 53, 80
4, 23184, Note_on_c, 9, 36, 0
4, 23228, Note_on_c, 9, 51, 0
4, 23244, Note_on_c, 9, 36, 68
4, 23248, Note_on_c, 9, 51, 59
4, 23249, Note_on_c, 9, 53, 0
4, 23252, Note_on_c, 9, 36, 0
4, 23267, Note_on_c, 9, 51, 0
4, 23286, Note_on_c, 9, 51, 61
4, 23294, Note_on_c, 9, 38, 75
4, 23312, Note_on_c, 9, 51, 0
4, 23345, Note_on_c, 9, 38, 0
4, 23362, Note_on_c, 9, 51, 97
4, 23366, Note_on_c, 9, 53, 82
4, 23369, Note_on_c, 9, 36, 47
4, 23382, Note_on_c, 9, 36, 0
4, 23397, Note_on_c, 9, 51, 0
4, 23413, Note_on_c, 9, 51, 61
4, 23446, Note_on_c, 9, 51, 0
4, 23450, Note_on_c, 9, 53, 0
4, 23482, Note_on_c, 9, 51, 60
4, 23488, Note_on_c, 9, 38, 83
4, 23500, Note_on_c, 9, 51, 0
4, 23506, Note_on_c, 9, 38, 0
4, 23523, Note_on_c, 9, 51, 88
4, 23524, Note_on_c, 9, 57, 87
4, 23525, Note_on_c, 9, 38, 68
4, 23554, Note_on_c, 9, 38, 0
4, 23603, Note_on_c, 9, 57, 0
4, 23613, Note_on_c, 9, 36, 74
4, 23628, Note_on_c, 9, 51, 0
4, 23634, Note_on_c, 9, 36, 0
4, 23649, Note_on_c, 9, 51, 52
4, 23723, Note_on_c, 9, 38, 90
4, 23731, Note_on_c, 9, 39, 35
4, 23737, Note_on_c, 9, 51, 0
4, 23739, Note_on_c, 9, 39, 0
4, 23748, Note_on_c, 9, 38, 0
4, 23765, Note_on_c, 9, 38, 51
4, 23767, Note_on_c, 9, 51, 74
4, 23825, Note_on_c, 9, 38, 0
4, 23838, Note_on_c, 9, 51, 0
4, 23846, Note_on_c, 9, 36, 80
4, 23878, Note_on_c, 9, 36, 0
4, 23881, Note_on_c, 9, 51, 108
4, 23895, Note_on_c, 9, 38, 57
4, 23915, Note_on_c, 9, 38, 0
4, 23960, Note_on_c, 9, 36, 96
4, 23965, Note_on_c, 9, 51, 0
4, 24000, Note_on_c, 9, 51, 50
4, 24012, Note_on_c, 9, 36, 0
4, 24058, Note_on_c, 9, 51, 0
4, 24085, Note_on_c, 9, 36, 53
4, 24094, Note_on_c, 9, 36, 0
4, 24116, Note_on_c, 9, 51, 95
4, 24119, Note_on_c, 9, 57, 83
4, 24130, Note_on_c, 9, 38, 67
4, 24145, Note_on_c, 9, 38, 0
4, 24210, Note_on_c, 9, 36, 67
4, 24220, Note_on_c, 9, 36, 0
4, 24230, Note_on_c, 9, 51, 0
4, 24242, Note_on_c, 9, 57, 0
4, 24253, Note_on_c, 9, 51, 52
4, 24260, Note_on_c, 9, 36, 37
4, 24271, Note_on_c, 9, 36, 0
4, 24332, Note_on_c, 9, 36, 87
4, 24342, Note_on_c, 9, 51, 0
4, 24367, Note_on_c, 9, 51, 77
4, 24403, Note_on_c, 9, 36, 0
4, 24427, Note_on_c, 9, 51, 0
4, 24459, Note_on_c, 9, 51, 31
4, 24468, Note_on_c, 9, 51, 0
4, 24481, Note_on_c, 9, 51, 83
4, 24571, Note_on_c, 9, 51, 0
4, 24599, Note_on_c, 9, 51, 85
4, 24666, Note_on_c, 9, 51, 0
4, 24699, Note_on_c, 9, 51, 52
4, 24707, Note_on_c, 9, 51, 0
4, 24721, Note_on_c, 9, 51, 75
4, 24806, Note_on_c, 9, 51, 0
4, 24832, Note_on_c, 9, 51, 86
4, 24915, Note_on_c, 9, 51, 0
4, 24929, Note_on_c, 9, 51, 75
4, 24944, Note_on_c, 9, 51, 0
4, 24960, Note_on_c, 9, 51, 84
4, 25040, Note_on_c, 9, 38, 51
4, 25046, Note_on_c, 9, 51, 0
4, 25051, Note_on_c, 9, 38, 0
4, 25073, Note_on_c, 9, 51, 88
4, 25163, Note_on_c, 9, 51, 0
4, 25197, Note_on_c, 9, 51, 74
4, 25213, Note_on_c, 9, 51, 0
4, 25227, Note_on_c, 9, 51, 77
4, 25283, Note_on_c, 9, 44, 51
4, 25292, Note_on_c, 9, 44, 0
4, 25298, Note_on_c, 9, 51, 0
4, 25328, Note_on_c, 9, 51, 90
4, 25395, Note_on_c, 9, 51, 0
4, 25406, Note_on_c, 9, 36, 50
4, 25414, Note_on_c, 9, 51, 63
4, 25416, Note_on_c, 9, 36, 0
4, 25430, Note_on_c, 9, 51, 0
4, 25447, Note_on_c, 9, 51, 79
4, 25448, Note_on_c, 9, 36, 39
4, 25462, Note_on_c, 9, 36, 0
4, 25533, Note_on_c, 9, 51, 0
4, 25562, Note_on_c, 9, 51, 93
4, 25566, Note_on_c, 9, 44, 77
4, 25586, Note_on_c, 9, 44, 0
4, 25621, Note_on_c, 9, 51, 0
4, 25647, Note_on_c, 9, 51, 60
4, 25653, Note_on_c, 9, 36, 24
4, 25662, Note_on_c, 9, 36, 0
4, 25665, Note_on_c, 9, 51, 0
4, 25677, Note_on_c, 9, 51, 88
4, 25759, Note_on_c, 9, 51, 0
4, 25795, Note_on_c, 9, 51, 88
4, 25801, Note_on_c, 9, 37, 81
4, 25822, Note_on_c, 9, 37, 0
4, 25876, Note_on_c, 9, 51, 0
4, 25916, Note_on_c, 9, 51, 90
4, 25922, Note_on_c, 9, 36, 39
4, 25941, Note_on_c, 9, 36, 0
4, 25999, Note_on_c, 9, 51, 0
4, 26041, Note_on_c, 9, 51, 85
4, 26042, Note_on_c, 9, 37, 83
4, 26066, Note_on_c, 9, 37, 0
4, 26093, Note_on_c, 9, 51, 0
4, 26125, Note_on_c, 9, 36, 45
4, 26129, Note_on_c, 9, 51, 62
4, 26135, Note_on_c, 9, 36, 0
4, 26142, Note_on_c, 9, 51, 0
4, 26157, Note_on_c, 9, 51, 84
4, 26167, Note_on_c, 9, 36, 40
4, 26179, Note_on_c, 9, 36, 0
4, 26238, Note_on_c, 9, 51, 0
4, 26276, Note_on_c, 9, 51, 82
4, 26279, Note_on_c, 9, 53, 73
4, 26280, Note_on_c, 9, 37, 80
4, 26303, Note_on_c, 9, 37, 0
4, 26362, Note_on_c, 9, 36, 44
4, 26367, Note_on_c, 9, 51, 0
4, 26373, Note_on_c, 9, 36, 0
4, 26375, Note_on_c, 9, 53, 0
4, 26399, Note_on_c, 9, 51, 74
4, 26456, Note_on_c, 9, 51, 0
4, 26518, Note_on_c, 9, 51, 87
4, 26521, Note_on_c, 9, 53, 79
4, 26619, Note_on_c, 9, 51, 0
4, 26627, Note_on_c, 9, 53, 0
4, 26643, Note_on_c, 9, 51, 74
4, 26732, Note_on_c, 9, 51, 0
4, 26762, Note_on_c, 9, 51, 85
4, 26764, Note_on_c, 9, 53, 74
4, 26850, Note_on_c, 9, 36, 30
4, 26859, Note_on_c, 9, 36, 0
4, 26861, Note_on_c, 9, 51, 0
4, 26872, Note_on_c, 9, 53, 0
4, 26883, Note_on_c, 9, 51, 64
4, 26885, Note_on_c, 9, 38, 57
4, 26896, Note_on_c, 9, 38, 0
4, 26921, Note_on_c, 9, 38, 67
4, 26938, Note_on_c, 9, 38, 0
4, 26972, Note_on_c, 9, 51, 0
4, 27005, Note_on_c, 9, 51, 77
4, 27007, Note_on_c, 9, 53, 74
4, 27107, Note_on_c, 9, 51, 0
4, 27110, Note_on_c, 9, 53, 0
4, 27132, Note_on_c, 9, 51, 57
4, 27183, Note_on_c, 9, 51, 0
4, 27204, Note_on_c, 9, 38, 61
4, 27210, Note_on_c, 9, 51, 68
4, 27226, Note_on_c, 9, 51, 0
4, 27227, Note_on_c, 9, 38, 0
4, 27242, Note_on_c, 9, 51, 82
4, 27250, Note_on_c, 9, 36, 32
4, 27279, Note_on_c, 9, 36, 0
4, 27325, Note_on_c, 9, 36, 63
4, 27329, Note_on_c, 9, 51, 0
4, 27343, Note_on_c, 9, 36, 0
4, 27361, Note_on_c, 9, 51, 92
4, 27369, Note_on_c, 9, 36, 46
4, 27391, Note_on_c, 9, 36, 0
4, 27416, Note_on_c, 9, 51, 0
4, 27448, Note_on_c, 9, 51, 62
4, 27463, Note_on_c, 9, 51, 0
4, 27477, Note_on_c, 9, 51, 84
4, 27559, Note_on_c, 9, 51, 0
4, 27564, Note_on_c, 9, 36, 35
4, 27576, Note_on_c, 9, 36, 0
4, 27598, Note_on_c, 9, 51, 91
4, 27676, Note_on_c, 9, 51, 0
4, 27686, Note_on_c, 9, 36, 25
4, 27691, Note_on_c, 9, 51, 64
4, 27702, Note_on_c, 9, 51, 0
4, 27705, Note_on_c, 9, 36, 0
4, 27720, Note_on_c, 9, 51, 82
4, 27721, Note_on_c, 9, 44, 56
4, 27732, Note_on_c, 9, 44, 0
4, 27799, Note_on_c, 9, 36, 44
4, 27806, Note_on_c, 9, 51, 0
4, 27809, Note_on_c, 9, 36, 0
4, 27838, Note_on_c, 9, 51, 92
4, 27839, Note_on_c, 9, 36, 37
4, 27851, Note_on_c, 9, 36, 0
4, 27911, Note_on_c, 9, 51, 0
4, 27928, Note_on_c, 9, 51, 62
4, 27945, Note_on_c, 9, 51, 0
4, 27961, Note_on_c, 9, 51, 82
4, 27967, Note_on_c, 9, 44, 57
4, 27975, Note_on_c, 9, 44, 0
4, 28043, Note_on_c, 9, 51, 0
4, 28078, Note_on_c, 9, 51, 88
4, 28155, Note_on_c, 9, 51, 0
4, 28165, Note_on_c, 9, 36, 32
4, 28174, Note_on_c, 9, 36, 0
4, 28198, Note_on_c, 9, 51, 93
4, 28207, Note_on_c, 9, 44, 69
4, 28215, Note_on_c, 9, 44, 0
4, 28255, Note_on_c, 9, 51, 0
4, 28282, Note_on_c, 9, 44, 92
4, 28289, Note_on_c, 9, 51, 61
4, 28299, Note_on_c, 9, 44, 0
4, 28300, Note_on_c, 9, 51, 0
4, 28316, Note_on_c, 9, 51, 81
4, 28399, Note_on_c, 9, 51, 0
4, 28411, Note_on_c, 9, 36, 55
4, 28421, Note_on_c, 9, 36, 0
4, 28438, Note_on_c, 9, 51, 92
4, 28455, Note_on_c, 9, 36, 49
4, 28466, Note_on_c, 9, 36, 0
4, 28514, Note_on_c, 9, 51, 0
4, 28531, Note_on_c, 9, 51, 58
4, 28542, Note_on_c, 9, 51, 0
4, 28562, Note_on_c, 9, 51, 79
4, 28650, Note_on_c, 9, 51, 0
4, 28682, Note_on_c, 9, 51, 92
4, 28738, Note_on_c, 9, 51, 0
4, 28762, Note_on_c, 9, 38, 80
4, 28768, Note_on_c, 9, 51, 55
4, 28779, Note_on_c, 9, 51, 0
4, 28779, Note_on_c, 9, 38, 0
4, 28799, Note_on_c, 9, 51, 65
4, 28801, Note_on_c, 9, 53, 74
4, 28895, Note_on_c, 9, 51, 0
4, 28901, Note_on_c, 9, 53, 0
4, 28919, Note_on_c, 9, 51, 79
4, 28986, Note_on_c, 9, 51, 0
4, 29003, Note_on_c, 9, 36, 44
4, 29010, Note_on_c, 9, 51, 45
4, 29013, Note_on_c, 9, 36, 0
4, 29020, Note_on_c, 9, 51, 0
4, 29040, Note_on_c, 9, 51, 75
4, 29043, Note_on_c, 9, 38, 47
4, 29053, Note_on_c, 9, 38, 0
4, 29076, Note_on_c, 9, 38, 59
4, 29087, Note_on_c, 9, 38, 0
4, 29118, Note_on_c, 9, 51, 0
4, 29123, Note_on_c, 9, 36, 36
4, 29134, Note_on_c, 9, 36, 0
4, 29139, Note_on_c, 9, 51, 69
4, 29154, Note_on_c, 9, 51, 0
4, 29164, Note_on_c, 9, 38, 40
4, 29164, Note_on_c, 9, 51, 88
4, 29179, Note_on_c, 9, 38, 0
4, 29225, Note_on_c, 9, 38, 56
4, 29234, Note_on_c, 9, 38, 0
4, 29258, Note_on_c, 9, 51, 0
4, 29280, Note_on_c, 9, 51, 80
4, 29344, Note_on_c, 9, 51, 0
4, 29357, Note_on_c, 9, 36, 48
4, 29368, Note_on_c, 9, 36, 0
4, 29369, Note_on_c, 9, 51, 49
4, 29384, Note_on_c, 9, 51, 0
4, 29401, Note_on_c, 9, 51, 81
4, 29403, Note_on_c, 9, 36, 41
4, 29416, Note_on_c, 9, 36, 0
4, 29496, Note_on_c, 9, 51, 0
4, 29526, Note_on_c, 9, 51, 91
4, 29595, Note_on_c, 9, 51, 0
4, 29614, Note_on_c, 9, 51, 57
4, 29629, Note_on_c, 9, 51, 0
4, 29646, Note_on_c, 9, 51, 83
4, 29740, Note_on_c, 9, 51, 0
4, 29770, Note_on_c, 9, 51, 87
4, 29837, Note_on_c, 9, 51, 0
4, 29855, Note_on_c, 9, 51, 57
4, 29871, Note_on_c, 9, 51, 0
4, 29888, Note_on_c, 9, 51, 80
4, 29963, Note_on_c, 9, 36, 54
4, 29973, Note_on_c, 9, 36, 0
4, 29975, Note_on_c, 9, 51, 0
4, 30007, Note_on_c, 9, 51, 85
4, 30063, Note_on_c, 9, 51, 0
4, 30079, Note_on_c, 9, 51, 77
4, 30082, Note_on_c, 9, 53, 75
4, 30174, Note_on_c, 9, 51, 0
4, 30188, Note_on_c, 9, 53, 0
4, 30198, Note_on_c, 9, 51, 57
4, 30213, Note_on_c, 9, 36, 32
4, 30216, Note_on_c, 9, 51, 0
4, 30224, Note_on_c, 9, 36, 0
4, 30242, Note_on_c, 9, 51, 79
4, 30244, Note_on_c, 9, 53, 80
4, 30315, Note_on_c, 9, 40, 63
4, 30330, Note_on_c, 9, 40, 0
4, 30331, Note_on_c, 9, 51, 0
4, 30343, Note_on_c, 9, 53, 0
4, 30368, Note_on_c, 9, 51, 54
4, 30389, Note_on_c, 9, 51, 0
4, 30441, Note_on_c, 9, 51, 93
4, 30442, Note_on_c, 9, 40, 73
4, 30445, Note_on_c, 9, 53, 81
4, 30451, Note_on_c, 9, 40, 0
4, 30489, Note_on_c, 9, 53, 0
4, 30489, Note_on_c, 9, 51, 0
4, 30558, Note_on_c, 9, 40, 67
4, 30559, Note_on_c, 9, 51, 95
4, 30567, Note_on_c, 9, 40, 0
4, 30600, Note_on_c, 9, 51, 0
4, 30678, Note_on_c, 9, 40, 80
4, 30678, Note_on_c, 9, 51, 90
4, 30694, Note_on_c, 9, 40, 0
4, 30733, Note_on_c, 9, 51, 0
4, 30799, Note_on_c, 9, 40, 76
4, 30802, Note_on_c, 9, 51, 88
4, 30817, Note_on_c, 9, 40, 0
4, 30822, Note_on_c, 9, 51, 0
4, 30843, Note_on_c, 9, 51, 77
4, 30910, Note_on_c, 9, 51, 0
4, 30919, Note_on_c, 9, 40, 85
4, 30943, Note_on_c, 9, 40, 0
4, 30963, Note_on_c, 9, 51, 84
4, 31038, Note_on_c, 9, 40, 85
4, 31063, Note_on_c, 9, 40, 0
4, 31158, Note_on_c, 9, 37, 76
4, 31166, Note_on_c, 9, 59, 66
4, 31167, Note_on_c, 9, 40, 34
4, 31177, Note_on_c, 9, 59, 0
4, 31178, Note_on_c, 9, 40, 0
4, 31179, Note_on_c, 9, 37, 0
4, 31197, Note_on_c, 9, 57, 80
4, 31200, Note_on_c, 9, 59, 79
4, 31203, Note_on_c, 9, 36, 77
4, 31225, Note_on_c, 9, 57, 0
4, 31225, Note_on_c, 9, 51, 0
4, 31230, Note_on_c, 9, 36, 0
4, 31278, Note_on_c, 9, 59, 0
4, 31289, Note_on_c, 9, 51, 84
4, 31417, Note_on_c, 9, 59, 66
4, 31430, Note_on_c, 9, 59, 0
4, 31435, Note_on_c, 9, 51, 0
4, 31449, Note_on_c, 9, 59, 88
4, 31526, Note_on_c, 9, 40, 78
4, 31533, Note_on_c, 9, 59, 0
4, 31542, Note_on_c, 9, 40, 0
4, 31563, Note_on_c, 9, 57, 77
4, 31566, Note_on_c, 9, 36, 75
4, 31570, Note_on_c, 9, 59, 95
4, 31574, Note_on_c, 9, 57, 0
4, 31578, Note_on_c, 9, 36, 0
4, 31652, Note_on_c, 9, 59, 0
4, 31768, Note_on_c, 9, 59, 72
4, 31786, Note_on_c, 9, 59, 0
4, 31803, Note_on_c, 9, 59, 84
4, 31882, Note_on_c, 9, 59, 0
4, 31919, Note_on_c, 9, 59, 89
4, 31991, Note_on_c, 9, 59, 0
4, 31994, Note_on_c, 9, 53, 82
4, 32011, Note_on_c, 9, 53, 0
4, 32044, Note_on_c, 9, 59, 49
4, 32112, Note_on_c, 9, 59, 0
4, 32125, Note_on_c, 9, 36, 38
4, 32136, Note_on_c, 9, 36, 0
4, 32157, Note_on_c, 9, 59, 78
4, 32161, Note_on_c, 9, 36, 34
4, 32218, Note_on_c, 9, 36, 0
4, 32229, Note_on_c, 9, 59, 0
4, 32274, Note_on_c, 9, 59, 82
4, 32334, Note_on_c, 9, 59, 0
4, 32401, Note_on_c, 9, 59, 87
4, 32426, Note_on_c, 9, 59, 0
4, 32488, Note_on_c, 9, 59, 74
4, 32507, Note_on_c, 9, 59, 0
4, 32521, Note_on_c, 9, 59, 92
4, 32596, Note_on_c, 9, 59, 0
4, 32646, Note_on_c, 9, 38, 31
4, 32656, Note_on_c, 9, 38, 0
4, 32677, Note_on_c, 9, 59, 63
4, 32686, Note_on_c, 9, 59, 0
4, 32703, Note_on_c, 9, 38, 51
4, 32712, Note_on_c, 9, 38, 0
4, 32759, Note_on_c, 9, 38, 64
4, 32768, Note_on_c, 9, 59, 95
4, 32772, Note_on_c, 9, 38, 0
4, 32792, Note_on_c, 9, 38, 51
4, 32801, Note_on_c, 9, 38, 0
4, 32843, Note_on_c, 9, 36, 26
4, 32844, Note_on_c, 9, 59, 0
4, 32861, Note_on_c, 9, 36, 0
4, 32861, Note_on_c, 9, 59, 68
4, 32871, Note_on_c, 9, 59, 0
4, 32926, Note_on_c, 9, 59, 91
4, 32993, Note_on_c, 9, 59, 0
4, 33011, Note_on_c, 9, 59, 80
4, 33043, Note_on_c, 9, 59, 0
4, 33086, Note_on_c, 9, 59, 92
4, 33108, Note_on_c, 9, 59, 0
4, 33123, Note_on_c, 9, 59, 82
4, 33203, Note_on_c, 9, 59, 0
4, 33240, Note_on_c, 9, 59, 82
4, 33300, Note_on_c, 9, 59, 0
4, 33325, Note_on_c, 9, 59, 68
4, 33342, Note_on_c, 9, 59, 0
4, 33362, Note_on_c, 9, 59, 89
4, 33439, Note_on_c, 9, 40, 33
4, 33450, Note_on_c, 9, 40, 0
4, 33458, Note_on_c, 9, 59, 0
4, 33476, Note_on_c, 9, 59, 77
4, 33530, Note_on_c, 9, 59, 0
4, 33560, Note_on_c, 9, 59, 90
4, 33660, Note_on_c, 9, 59, 0
4, 33684, Note_on_c, 9, 59, 57
4, 33704, Note_on_c, 9, 59, 0
4, 33722, Note_on_c, 9, 59, 89
4, 33812, Note_on_c, 9, 59, 0
4, 33836, Note_on_c, 9, 59, 50
4, 33857, Note_on_c, 9, 59, 0
4, 33876, Note_on_c, 9, 38, 64
4, 33888, Note_on_c, 9, 38, 0
4, 33919, Note_on_c, 9, 59, 82
4, 33923, Note_on_c, 9, 57, 71
4, 33955, Note_on_c, 9, 38, 71
4, 33969, Note_on_c, 9, 38, 0
4, 33992, Note_on_c, 9, 57, 0
4, 34011, Note_on_c, 9, 59, 0
4, 34033, Note_on_c, 9, 36, 54
4, 34041, Note_on_c, 9, 59, 40
4, 34046, Note_on_c, 9, 36, 0
4, 34058, Note_on_c, 9, 59, 0
4, 34082, Note_on_c, 9, 36, 50
4, 34088, Note_on_c, 9, 59, 80
4, 34116, Note_on_c, 9, 36, 0
4, 34168, Note_on_c, 9, 59, 0
4, 34203, Note_on_c, 9, 59, 74
4, 34205, Note_on_c, 9, 57, 68
4, 34272, Note_on_c, 9, 57, 0
4, 34273, Note_on_c, 9, 59, 0
4, 34324, Note_on_c, 9, 59, 54
4, 34371, Note_on_c, 9, 59, 0
4, 34396, Note_on_c, 9, 59, 80
4, 34405, Note_on_c, 9, 38, 57
4, 34414, Note_on_c, 9, 38, 0
4, 34443, Note_on_c, 9, 36, 41
4, 34468, Note_on_c, 9, 36, 0
4, 34471, Note_on_c, 9, 59, 0
4, 34524, Note_on_c, 9, 59, 61
4, 34525, Note_on_c, 9, 36, 54
4, 34538, Note_on_c, 9, 59, 0
4, 34544, Note_on_c, 9, 36, 0
4, 34561, Note_on_c, 9, 59, 80
4, 34641, Note_on_c, 9, 59, 0
4, 34674, Note_on_c, 9, 59, 72
4, 34724, Note_on_c, 9, 59, 0
4, 34757, Note_on_c, 9, 59, 99
4, 34852, Note_on_c, 9, 59, 0
4, 34876, Note_on_c, 9, 59, 55
4, 34879, Note_on_c, 9, 38, 48
4, 34888, Note_on_c, 9, 38, 0
4, 34892, Note_on_c, 9, 59, 0
4, 34918, Note_on_c, 9, 52, 84
4, 34920, Note_on_c, 9, 59, 88
4, 34963, Note_on_c, 9, 59, 0
4, 34969, Note_on_c, 9, 52, 0
4, 35000, Note_on_c, 9, 36, 80
4, 35008, Note_on_c, 9, 59, 84
4, 35024, Note_on_c, 9, 59, 0
4, 35026, Note_on_c, 9, 36, 0
4, 35041, Note_on_c, 9, 59, 83
4, 35049, Note_on_c, 9, 36, 57
4, 35059, Note_on_c, 9, 36, 0
4, 35121, Note_on_c, 9, 59, 0
4, 35163, Note_on_c, 9, 59, 92
4, 35221, Note_on_c, 9, 59, 0
4, 35251, Note_on_c, 9, 59, 65
4, 35270, Note_on_c, 9, 59, 0
4, 35285, Note_on_c, 9, 59, 92
4, 35344, Note_on_c, 9, 59, 0
4, 35399, Note_on_c, 9, 59, 113
4, 35490, Note_on_c, 9, 59, 0
4, 35490, Note_on_c, 9, 38, 33
4, 35504, Note_on_c, 9, 38, 0
4, 35520, Note_on_c, 9, 59, 63
4, 35531, Note_on_c, 9, 47, 64
4, 35533, Note_on_c, 9, 59, 0
4, 35540, Note_on_c, 9, 47, 0
4, 35562, Note_on_c, 9, 47, 58
4, 35571, Note_on_c, 9, 47, 0
4, 35595, Note_on_c, 9, 59, 108
4, 35672, Note_on_c, 9, 59, 0
4, 35713, Note_on_c, 9, 59, 67
4, 35718, Note_on_c, 9, 38, 50
4, 35728, Note_on_c, 9, 38, 0
4, 35729, Note_on_c, 9, 59, 0
4, 35758, Note_on_c, 9, 59, 96
4, 35798, Note_on_c, 9, 47, 69
4, 35820, Note_on_c, 9, 47, 0
4, 35836, Note_on_c, 9, 38, 62
4, 35838, Note_on_c, 9, 59, 0
4, 35851, Note_on_c, 9, 38, 0
4, 35873, Note_on_c, 9, 45, 79
4, 35879, Note_on_c, 9, 59, 62
4, 35889, Note_on_c, 9, 45, 0
4, 35893, Note_on_c, 9, 59, 0
4, 35918, Note_on_c, 9, 37, 67
4, 35937, Note_on_c, 9, 37, 0
4, 35953, Note_on_c, 9, 43, 76
4, 35959, Note_on_c, 9, 59, 103
4, 35973, Note_on_c, 9, 43, 0
4, 35978, Note_on_c, 9, 38, 84
4, 35985, Note_on_c, 9, 35, 64
4, 35985, Note_on_c, 9, 36, 71
4, 35993, Note_on_c, 9, 35, 0
4, 35995, Note_on_c, 9, 38, 0
4, 36043, Note_on_c, 9, 59, 0
4, 36078, Note_on_c, 9, 59, 62
4, 36080, Note_on_c, 9, 36, 0
4, 36091, Note_on_c, 9, 59, 0
4, 36120, Note_on_c, 9, 59, 82
4, 36178, Note_on_c, 9, 59, 0
4, 36233, Note_on_c, 9, 59, 89
4, 36300, Note_on_c, 9, 59, 0
4, 36355, Note_on_c, 9, 59, 95
4, 36429, Note_on_c, 9, 59, 0
4, 36439, Note_on_c, 9, 36, 44
4, 36452, Note_on_c, 9, 36, 0
4, 36477, Note_on_c, 9, 59, 88
4, 36478, Note_on_c, 9, 36, 50
4, 36515, Note_on_c, 9, 36, 0
4, 36549, Note_on_c, 9, 59, 0
4, 36599, Note_on_c, 9, 59, 90
4, 36667, Note_on_c, 9, 59, 0
4, 36694, Note_on_c, 9, 59, 63
4, 36712, Note_on_c, 9, 59, 0
4, 36723, Note_on_c, 9, 59, 82
4, 36800, Note_on_c, 9, 59, 0
4, 36844, Note_on_c, 9, 59, 96
4, 36846, Note_on_c, 9, 38, 43
4, 36857, Note_on_c, 9, 38, 0
4, 36911, Note_on_c, 9, 59, 0
4, 36921, Note_on_c, 9, 38, 66
4, 36930, Note_on_c, 9, 38, 0
4, 36932, Note_on_c, 9, 59, 58
4, 36944, Note_on_c, 9, 59, 0
4, 36963, Note_on_c, 9, 59, 85
4, 37040, Note_on_c, 9, 59, 0
4, 37040, Note_on_c, 9, 36, 52
4, 37049, Note_on_c, 9, 36, 0
4, 37083, Note_on_c, 9, 59, 92
4, 37156, Note_on_c, 9, 59, 0
4, 37283, Note_on_c, 9, 59, 83
4, 37306, Note_on_c, 9, 59, 0
4, 37319, Note_on_c, 9, 38, 50
4, 37320, Note_on_c, 9, 59, 94
4, 37328, Note_on_c, 9, 38, 0
4, 37391, Note_on_c, 9, 59, 0
4, 37397, Note_on_c, 9, 38, 89
4, 37414, Note_on_c, 9, 38, 0
4, 37439, Note_on_c, 9, 59, 101
4, 37497, Note_on_c, 9, 59, 0
4, 37517, Note_on_c, 9, 59, 66
4, 37524, Note_on_c, 9, 36, 37
4, 37534, Note_on_c, 9, 36, 0
4, 37534, Note_on_c, 9, 59, 0
4, 37557, Note_on_c, 9, 59, 92
4, 37644, Note_on_c, 9, 36, 54
4, 37653, Note_on_c, 9, 36, 0
4, 37663, Note_on_c, 9, 59, 0
4, 37685, Note_on_c, 9, 44, 50
4, 37699, Note_on_c, 9, 44, 0
4, 37758, Note_on_c, 9, 44, 85
4, 37765, Note_on_c, 9, 59, 64
4, 37774, Note_on_c, 9, 44, 0
4, 37776, Note_on_c, 9, 59, 0
4, 37797, Note_on_c, 9, 59, 90
4, 37804, Note_on_c, 9, 44, 88
4, 37838, Note_on_c, 9, 44, 0
4, 37850, Note_on_c, 9, 59, 0
4, 37875, Note_on_c, 9, 36, 63
4, 37882, Note_on_c, 9, 59, 99
4, 37892, Note_on_c, 9, 36, 0
4, 37980, Note_on_c, 9, 59, 0
4, 37987, Note_on_c, 9, 44, 71
4, 38004, Note_on_c, 9, 44, 0
4, 38005, Note_on_c, 9, 59, 58
4, 38025, Note_on_c, 9, 59, 0
4, 38044, Note_on_c, 9, 44, 56
4, 38047, Note_on_c, 9, 59, 89
4, 38052, Note_on_c, 9, 44, 0
4, 38103, Note_on_c, 9, 59, 0
4, 38113, Note_on_c, 9, 44, 71
4, 38124, Note_on_c, 9, 44, 0
4, 38125, Note_on_c, 9, 59, 91
4, 38166, Note_on_c, 9, 44, 78
4, 38168, Note_on_c, 9, 46, 67
4, 38206, Note_on_c, 9, 44, 0
4, 38214, Note_on_c, 9, 46, 0
4, 38214, Note_on_c, 9, 59, 0
4, 38247, Note_on_c, 9, 59, 64
4, 38261, Note_on_c, 9, 59, 0
4, 38277, Note_on_c, 9, 46, 57
4, 38286, Note_on_c, 9, 59, 77
4, 38292, Note_on_c, 9, 46, 0
4, 38327, Note_on_c, 9, 59, 0
4, 38354, Note_on_c, 9, 44, 83
4, 38356, Note_on_c, 9, 46, 78
4, 38366, Note_on_c, 9, 59, 105
4, 38418, Note_on_c, 9, 44, 0
4, 38430, Note_on_c, 9, 46, 0
4, 38461, Note_on_c, 9, 59, 0
4, 38492, Note_on_c, 9, 59, 68
4, 38508, Note_on_c, 9, 59, 0
4, 38531, Note_on_c, 9, 59, 92
4, 38592, Note_on_c, 9, 59, 0
4, 38597, Note_on_c, 9, 46, 71
4, 38612, Note_on_c, 9, 46, 0
4, 38645, Note_on_c, 9, 59, 108
4, 38675, Note_on_c, 9, 46, 84
4, 38705, Note_on_c, 9, 46, 0
4, 38710, Note_on_c, 9, 59, 0
4, 38763, Note_on_c, 9, 59, 108
4, 38764, Note_on_c, 9, 36, 49
4, 38775, Note_on_c, 9, 36, 0
4, 38814, Note_on_c, 9, 59, 0
4, 38848, Note_on_c, 9, 36, 90
4, 38854, Note_on_c, 9, 59, 74
4, 38870, Note_on_c, 9, 36, 0
4, 38872, Note_on_c, 9, 59, 0
4, 38889, Note_on_c, 9, 59, 88
4, 38890, Note_on_c, 9, 36, 80
4, 38928, Note_on_c, 9, 36, 0
4, 38948, Note_on_c, 9, 59, 0
4, 39004, Note_on_c, 9, 59, 88
4, 39063, Note_on_c, 9, 59, 0
4, 39123, Note_on_c, 9, 59, 101
4, 39189, Note_on_c, 9, 59, 0
4, 39245, Note_on_c, 9, 59, 95
4, 39246, Note_on_c, 9, 38, 54
4, 39256, Note_on_c, 9, 38, 0
4, 39281, Note_on_c, 9, 38, 53
4, 39294, Note_on_c, 9, 38, 0
4, 39301, Note_on_c, 9, 59, 0
4, 39319, Note_on_c, 9, 36, 69
4, 39328, Note_on_c, 9, 59, 60
4, 39337, Note_on_c, 9, 36, 0
4, 39347, Note_on_c, 9, 59, 0
4, 39363, Note_on_c, 9, 59, 92
4, 39369, Note_on_c, 9, 38, 58
4, 39383, Note_on_c, 9, 38, 0
4, 39404, Note_on_c, 9, 38, 61
4, 39419, Note_on_c, 9, 38, 0
4, 39430, Note_on_c, 9, 59, 0
4, 39448, Note_on_c, 9, 36, 45
4, 39458, Note_on_c, 9, 36, 0
4, 39478, Note_on_c, 9, 38, 45
4, 39478, Note_on_c, 9, 59, 94
4, 39505, Note_on_c, 9, 38, 0
4, 39520, Note_on_c, 9, 38, 44
4, 39534, Note_on_c, 9, 38, 0
4, 39552, Note_on_c, 9, 59, 0
4, 39558, Note_on_c, 9, 36, 75
4, 39569, Note_on_c, 9, 59, 74
4, 39585, Note_on_c, 9, 36, 0
4, 39587, Note_on_c, 9, 59, 0
4, 39603, Note_on_c, 9, 59, 90
4, 39681, Note_on_c, 9, 59, 0
4, 39720, Note_on_c, 9, 59, 96
4, 39786, Note_on_c, 9, 59, 0
4, 39805, Note_on_c, 9, 59, 68
4, 39824, Note_on_c, 9, 59, 0
4, 39844, Note_on_c, 9, 59, 81
4, 39913, Note_on_c, 9, 59, 0
4, 39958, Note_on_c, 9, 59, 96
4, 40031, Note_on_c, 9, 59, 0
4, 40080, Note_on_c, 9, 59, 103
4, 40129, Note_on_c, 9, 59, 0
4, 40172, Note_on_c, 9, 59, 68
4, 40184, Note_on_c, 9, 59, 0
4, 40202, Note_on_c, 9, 59, 87
4, 40281, Note_on_c, 9, 59, 0
4, 40286, Note_on_c, 9, 44, 62
4, 40294, Note_on_c, 9, 44, 0
4, 40322, Note_on_c, 9, 59, 91
4, 40328, Note_on_c, 9, 44, 75
4, 40343, Note_on_c, 9, 44, 0
4, 40402, Note_on_c, 9, 59, 0
4, 40403, Note_on_c, 9, 38, 59
4, 40411, Note_on_c, 9, 38, 0
4, 40446, Note_on_c, 9, 59, 81
4, 40447, Note_on_c, 9, 38, 66
4, 40467, Note_on_c, 9, 59, 0
4, 40471, Note_on_c, 9, 38, 0
4, 40479, Note_on_c, 9, 59, 87
4, 40536, Note_on_c, 9, 59, 0
4, 40568, Note_on_c, 9, 59, 90
4, 40633, Note_on_c, 9, 59, 0
4, 40648, Note_on_c, 9, 59, 84
4, 40696, Note_on_c, 9, 59, 0
4, 40724, Note_on_c, 9, 59, 69
4, 40743, Note_on_c, 9, 59, 0
4, 40758, Note_on_c, 9, 59, 84
4, 40767, Note_on_c, 9, 36, 30
4, 40776, Note_on_c, 9, 36, 0
4, 40783, Note_on_c, 9, 59, 0
4, 40805, Note_on_c, 9, 59, 85
4, 40879, Note_on_c, 9, 44, 63
4, 40884, Note_on_c, 9, 59, 0
4, 40896, Note_on_c, 9, 44, 0
4, 40918, Note_on_c, 9, 59, 58
4, 40923, Note_on_c, 9, 44, 53
4, 40930, Note_on_c, 9, 59, 0
4, 40945, Note_on_c, 9, 44, 0
4, 40964, Note_on_c, 9, 59, 99
4, 40996, Note_on_c, 9, 36, 66
4, 41013, Note_on_c, 9, 36, 0
4, 41031, Note_on_c, 9, 59, 0
4, 41045, Note_on_c, 9, 59, 70
4, 41051, Note_on_c, 9, 44, 26
4, 41060, Note_on_c, 9, 44, 0
4, 41064, Note_on_c, 9, 59, 0
4, 41092, Note_on_c, 9, 59, 91
4, 41112, Note_on_c, 9, 44, 50
4, 41125, Note_on_c, 9, 44, 0
4, 41146, Note_on_c, 9, 59, 0
4, 41165, Note_on_c, 9, 36, 56
4, 41165, Note_on_c, 9, 59, 76
4, 41187, Note_on_c, 9, 36, 0
4, 41204, Note_on_c, 9, 59, 0
4, 41238, Note_on_c, 9, 59, 94
4, 41241, Note_on_c, 9, 44, 50
4, 41251, Note_on_c, 9, 44, 0
4, 41283, Note_on_c, 9, 44, 49
4, 41295, Note_on_c, 9, 44, 0
4, 41296, Note_on_c, 9, 59, 0
4, 41313, Note_on_c, 9, 59, 77
4, 41330, Note_on_c, 9, 59, 0
4, 41355, Note_on_c, 9, 36, 52
4, 41365, Note_on_c, 9, 36, 0
4, 41398, Note_on_c, 9, 59, 90
4, 41410, Note_on_c, 9, 44, 31
4, 41418, Note_on_c, 9, 44, 0
4, 41433, Note_on_c, 9, 59, 0
4, 41474, Note_on_c, 9, 59, 88
4, 41492, Note_on_c, 9, 59, 0
4, 41513, Note_on_c, 9, 59, 82
4, 41581, Note_on_c, 9, 59, 0
4, 41594, Note_on_c, 9, 38, 38
4, 41606, Note_on_c, 9, 38, 0
4, 41627, Note_on_c, 9, 59, 79
4, 41663, Note_on_c, 9, 59, 0
4, 41727, Note_on_c, 9, 59, 66
4, 41741, Note_on_c, 9, 59, 0
4, 41758, Note_on_c, 9, 59, 90
4, 41833, Note_on_c, 9, 59, 0
4, 41835, Note_on_c, 9, 46, 64
4, 41844, Note_on_c, 9, 46, 0
4, 41877, Note_on_c, 9, 59, 88
4, 41881, Note_on_c, 9, 36, 40
4, 41928, Note_on_c, 9, 36, 0
4, 41936, Note_on_c, 9, 59, 0
4, 41960, Note_on_c, 9, 36, 62
4, 41968, Note_on_c, 9, 59, 54
4, 41979, Note_on_c, 9, 59, 0
4, 41982, Note_on_c, 9, 36, 0
4, 42002, Note_on_c, 9, 59, 82
4, 42066, Note_on_c, 9, 59, 0
4, 42116, Note_on_c, 9, 59, 92
4, 42155, Note_on_c, 9, 59, 0
4, 42194, Note_on_c, 9, 59, 80
4, 42204, Note_on_c, 9, 46, 64
4, 42213, Note_on_c, 9, 46, 0
4, 42225, Note_on_c, 9, 59, 0
4, 42263, Note_on_c, 9, 59, 91
4, 42309, Note_on_c, 9, 59, 0
4, 42318, Note_on_c, 9, 38, 59
4, 42327, Note_on_c, 9, 38, 0
4, 42359, Note_on_c, 9, 59, 89
4, 42371, Note_on_c, 9, 38, 64
4, 42379, Note_on_c, 9, 38, 0
4, 42416, Note_on_c, 9, 59, 0
4, 42446, Note_on_c, 9, 36, 35
4, 42446, Note_on_c, 9, 59, 68
4, 42456, Note_on_c, 9, 36, 0
4, 42466, Note_on_c, 9, 59, 0
4, 42485, Note_on_c, 9, 59, 80
4, 42548, Note_on_c, 9, 59, 0
4, 42551, Note_on_c, 9, 38, 71
4, 42572, Note_on_c, 9, 38, 0
4, 42596, Note_on_c, 9, 59, 96
4, 42600, Note_on_c, 9, 38, 48
4, 42617, Note_on_c, 9, 38, 0
4, 42651, Note_on_c, 9, 59, 0
4, 42672, Note_on_c, 9, 36, 87
4, 42688, Note_on_c, 9, 59, 64
4, 42695, Note_on_c, 9, 36, 0
4, 42698, Note_on_c, 9, 59, 0
4, 42719, Note_on_c, 9, 36, 67
4, 42721, Note_on_c, 9, 59, 83
4, 42750, Note_on_c, 9, 36, 0
4, 42787, Note_on_c, 9, 59, 0
4, 42838, Note_on_c, 9, 59, 92
4, 42889, Note_on_c, 9, 59, 0
4, 42929, Note_on_c, 9, 59, 58
4, 42937, Note_on_c, 9, 59, 0
4, 42959, Note_on_c, 9, 59, 78
4, 43000, Note_on_c, 9, 59, 0
4, 43035, Note_on_c, 9, 59, 73
4, 43051, Note_on_c, 9, 38, 27
4, 43053, Note_on_c, 9, 59, 0
4, 43059, Note_on_c, 9, 38, 0
4, 43071, Note_on_c, 9, 59, 91
4, 43155, Note_on_c, 9, 59, 0
4, 43163, Note_on_c, 9, 36, 57
4, 43172, Note_on_c, 9, 36, 0
4, 43198, Note_on_c, 9, 59, 87
4, 43208, Note_on_c, 9, 36, 48
4, 43219, Note_on_c, 9, 36, 0
4, 43254, Note_on_c, 9, 59, 0
4, 43290, Note_on_c, 9, 59, 59
4, 43306, Note_on_c, 9, 59, 0
4, 43325, Note_on_c, 9, 59, 90
4, 43396, Note_on_c, 9, 59, 0
4, 43447, Note_on_c, 9, 59, 90
4, 43511, Note_on_c, 9, 59, 0
4, 43532, Note_on_c, 9, 59, 64
4, 43549, Note_on_c, 9, 59, 0
4, 43566, Note_on_c, 9, 59, 92
4, 43641, Note_on_c, 9, 59, 0
4, 43686, Note_on_c, 9, 59, 94
4, 43753, Note_on_c, 9, 59, 0
4, 43763, Note_on_c, 9, 36, 47
4, 43775, Note_on_c, 9, 36, 0
4, 43805, Note_on_c, 9, 59, 96
4, 43872, Note_on_c, 9, 59, 0
4, 43888, Note_on_c, 9, 36, 34
4, 43900, Note_on_c, 9, 36, 0
4, 43926, Note_on_c, 9, 59, 95
4, 43976, Note_on_c, 9, 59, 0
4, 44006, Note_on_c, 9, 36, 35
4, 44008, Note_on_c, 9, 59, 68
4, 44016, Note_on_c, 9, 36, 0
4, 44024, Note_on_c, 9, 59, 0
4, 44038, Note_on_c, 9, 38, 57
4, 44040, Note_on_c, 9, 59, 96
4, 44094, Note_on_c, 9, 38, 0
4, 44118, Note_on_c, 9, 36, 60
4, 44120, Note_on_c, 9, 59, 0
4, 44131, Note_on_c, 9, 36, 0
4, 44159, Note_on_c, 9, 59, 91
4, 44225, Note_on_c, 9, 59, 0
4, 44275, Note_on_c, 9, 59, 91
4, 44283, Note_on_c, 9, 38, 42
4, 44342, Note_on_c, 9, 38, 0
4, 44349, Note_on_c, 9, 59, 0
4, 44359, Note_on_c, 9, 36, 57
4, 44365, Note_on_c, 9, 59, 73
4, 44371, Note_on_c, 9, 36, 0
4, 44383, Note_on_c, 9, 59, 0
4, 44400, Note_on_c, 9, 59, 94
4, 44481, Note_on_c, 9, 59, 0
4, 44521, Note_on_c, 9, 59, 96
4, 44584, Note_on_c, 9, 59, 0
4, 44604, Note_on_c, 9, 59, 66
4, 44607, Note_on_c, 9, 38, 53
4, 44616, Note_on_c, 9, 38, 0
4, 44623, Note_on_c, 9, 59, 0
4, 44639, Note_on_c, 9, 59, 95
4, 44649, Note_on_c, 9, 38, 34
4, 44677, Note_on_c, 9, 38, 0
4, 44712, Note_on_c, 9, 59, 0
4, 44718, Note_on_c, 9, 36, 51
4, 44729, Note_on_c, 9, 36, 0
4, 44760, Note_on_c, 9, 59, 92
4, 44762, Note_on_c, 9, 36, 49
4, 44810, Note_on_c, 9, 36, 0
4, 44833, Note_on_c, 9, 59, 0
4, 44843, Note_on_c, 9, 36, 74
4, 44870, Note_on_c, 9, 36, 0
4, 44882, Note_on_c, 9, 59, 92
4, 44939, Note_on_c, 9, 59, 0
4, 44965, Note_on_c, 9, 59, 64
4, 44985, Note_on_c, 9, 59, 0
4, 45001, Note_on_c, 9, 59, 87
4, 45068, Note_on_c, 9, 59, 0
4, 45120, Note_on_c, 9, 59, 101
4, 45175, Note_on_c, 9, 59, 0
4, 45208, Note_on_c, 9, 38, 48
4, 45212, Note_on_c, 9, 59, 47
4, 45219, Note_on_c, 9, 38, 0
4, 45223, Note_on_c, 9, 59, 0
4, 45328, Note_on_c, 9, 59, 108
4, 45329, Note_on_c, 9, 36, 49
4, 45339, Note_on_c, 9, 36, 0
4, 45350, Note_on_c, 9, 59, 0
4, 45371, Note_on_c, 9, 36, 42
4, 45377, Note_on_c, 9, 59, 66
4, 45382, Note_on_c, 9, 36, 0
4, 45425, Note_on_c, 9, 59, 0
4, 45456, Note_on_c, 9, 59, 65
4, 45473, Note_on_c, 9, 59, 0
4, 45494, Note_on_c, 9, 59, 60
4, 45509, Note_on_c, 9, 59, 0
4, 45560, Note_on_c, 9, 57, 62
4, 45565, Note_on_c, 9, 59, 108
4, 45568, Note_on_c, 9, 38, 37
4, 45570, Note_on_c, 9, 57, 0
4, 45578, Note_on_c, 9, 38, 0
4, 45645, Note_on_c, 9, 59, 0
4, 45686, Note_on_c, 9, 59, 62
4, 45703, Note_on_c, 9, 59, 0
4, 45731, Note_on_c, 9, 59, 65
4, 45748, Note_on_c, 9, 59, 0
4, 45797, Note_on_c, 9, 36, 32
4, 45808, Note_on_c, 9, 59, 87
4, 45812, Note_on_c, 9, 36, 0
4, 45826, Note_on_c, 9, 59, 0
4, 45842, Note_on_c, 9, 36, 46
4, 45883, Note_on_c, 9, 59, 85
4, 45898, Note_on_c, 9, 36, 0
4, 45921, Note_on_c, 9, 59, 0
4, 45973, Note_on_c, 9, 59, 71
4, 45994, Note_on_c, 9, 59, 0
4, 46052, Note_on_c, 9, 59, 95
4, 46076, Note_on_c, 9, 59, 0
4, 46097, Note_on_c, 9, 59, 76
4, 46155, Note_on_c, 9, 59, 0
4, 46213, Note_on_c, 9, 59, 91
4, 46259, Note_on_c, 9, 59, 0
4, 46283, Note_on_c, 9, 36, 31
4, 46292, Note_on_c, 9, 36, 0
4, 46299, Note_on_c, 9, 59, 31
4, 46311, Note_on_c, 9, 59, 0
4, 46318, Note_on_c, 9, 38, 60
4, 46334, Note_on_c, 9, 38, 0
4, 46334, Note_on_c, 9, 59, 70
4, 46353, Note_on_c, 9, 38, 62
4, 46368, Note_on_c, 9, 59, 0
4, 46377, Note_on_c, 9, 38, 0
4, 46414, Note_on_c, 9, 59, 68
4, 46434, Note_on_c, 9, 59, 0
4, 46455, Note_on_c, 9, 59, 59
4, 46467, Note_on_c, 9, 59, 0
4, 46517, Note_on_c, 9, 38, 55
4, 46525, Note_on_c, 9, 38, 0
4, 46526, Note_on_c, 9, 59, 70
4, 46539, Note_on_c, 9, 59, 0
4, 46562, Note_on_c, 9, 36, 40
4, 46566, Note_on_c, 9, 59, 82
4, 46570, Note_on_c, 9, 53, 78
4, 46600, Note_on_c, 9, 36, 0
4, 46626, Note_on_c, 9, 59, 0
4, 46637, Note_on_c, 9, 36, 58
4, 46650, Note_on_c, 9, 53, 0
4, 46659, Note_on_c, 9, 36, 0
4, 46687, Note_on_c, 9, 59, 57
4, 46695, Note_on_c, 9, 59, 0
4, 46758, Note_on_c, 9, 59, 94
4, 46760, Note_on_c, 9, 53, 88
4, 46812, Note_on_c, 9, 59, 0
4, 46828, Note_on_c, 9, 53, 0
4, 46881, Note_on_c, 9, 38, 59
4, 46886, Note_on_c, 9, 59, 62
4, 46895, Note_on_c, 9, 59, 0
4, 46901, Note_on_c, 9, 38, 0
4, 46932, Note_on_c, 9, 36, 29
4, 46936, Note_on_c, 9, 59, 94
4, 46938, Note_on_c, 9, 53, 94
4, 46943, Note_on_c, 9, 36, 0
4, 47008, Note_on_c, 9, 36, 46
4, 47013, Note_on_c, 9, 59, 0
4, 47018, Note_on_c, 9, 36, 0
4, 47026, Note_on_c, 9, 53, 0
4, 47054, Note_on_c, 9, 57, 61
4, 47056, Note_on_c, 9, 36, 51
4, 47058, Note_on_c, 9, 59, 66
4, 47073, Note_on_c, 9, 59, 0
4, 47083, Note_on_c, 9, 57, 0
4, 47104, Note_on_c, 9, 36, 0
4, 47136, Note_on_c, 9, 59, 85
4, 47137, Note_on_c, 9, 53, 87
4, 47165, Note_on_c, 9, 53, 0
4, 47177, Note_on_c, 9, 59, 0
4, 47232, Note_on_c, 9, 38, 37
4, 47243, Note_on_c, 9, 38, 0
4, 47256, Note_on_c, 9, 59, 69
4, 47273, Note_on_c, 9, 59, 0
4, 47285, Note_on_c, 9, 38, 57
4, 47294, Note_on_c, 9, 38, 0
4, 47299, Note_on_c, 9, 53, 82
4, 47300, Note_on_c, 9, 59, 81
4, 47337, Note_on_c, 9, 53, 0
4, 47354, Note_on_c, 9, 59, 0
4, 47362, Note_on_c, 9, 57, 59
4, 47365, Note_on_c, 9, 36, 52
4, 47371, Note_on_c, 9, 57, 0
4, 47375, Note_on_c, 9, 36, 0
4, 47421, Note_on_c, 9, 59, 63
4, 47437, Note_on_c, 9, 59, 0
4, 47488, Note_on_c, 9, 59, 89
4, 47490, Note_on_c, 9, 36, 47
4, 47492, Note_on_c, 9, 53, 80
4, 47500, Note_on_c, 9, 36, 0
4, 47510, Note_on_c, 9, 53, 0
4, 47515, Note_on_c, 9, 59, 0
4, 47532, Note_on_c, 9, 57, 74
4, 47537, Note_on_c, 9, 36, 71
4, 47537, Note_on_c, 9, 59, 73
4, 47547, Note_on_c, 9, 57, 0
4, 47559, Note_on_c, 9, 36, 0
4, 47578, Note_on_c, 9, 59, 0
4, 47610, Note_on_c, 9, 59, 62
4, 47635, Note_on_c, 9, 59, 0
4, 47653, Note_on_c, 9, 59, 68
4, 47678, Note_on_c, 9, 59, 0
4, 47729, Note_on_c, 9, 59, 67
4, 47748, Note_on_c, 9, 59, 0
4, 47767, Note_on_c, 9, 59, 72
4, 47822, Note_on_c, 9, 59, 0
4, 47888, Note_on_c, 9, 59, 79
4, 47937, Note_on_c, 9, 59, 0
4, 48011, Note_on_c, 9, 59, 74
4, 48145, Note_on_c, 9, 59, 0
4, 48205, Note_on_c, 9, 59, 58
4, 48219, Note_on_c, 9, 59, 0
4, 48256, Note_on_c, 9, 59, 68
4, 48360, Note_on_c, 9, 59, 0
4, 48445, Note_on_c, 9, 59, 65
4, 48466, Note_on_c, 9, 59, 0
4, 48489, Note_on_c, 9, 59, 71
4, 48591, Note_on_c, 9, 59, 0
4, 48675, Note_on_c, 9, 59, 55
4, 48698, Note_on_c, 9, 59, 0
4, 48741, Note_on_c, 9, 59, 67
4, 48748, Note_on_c, 9, 53, 50
4, 48788, Note_on_c, 9, 53, 0
4, 48793, Note_on_c, 9, 59, 0
4, 48824, Note_on_c, 9, 59, 55
4, 48850, Note_on_c, 9, 59, 0
4, 48901, Note_on_c, 9, 59, 63
4, 48909, Note_on_c, 9, 53, 45
4, 48939, Note_on_c, 9, 53, 0
4, 48944, Note_on_c, 9, 59, 0
4, 48992, Note_on_c, 9, 59, 55
4, 49025, Note_on_c, 9, 59, 0
4, 49455, Note_on_c, 9, 57, 76
4, 49457, Note_on_c, 9, 36, 71
4, 49472, Note_on_c, 9, 57, 0
4, 49482, Note_on_c, 9, 36, 0
4, 49482, End_track
0, 0, End_of_file
