0, 0, Header, 1, 5, 120
1, 0, Start_track
1, 0, Title_t, "IShouldCare"
1, 0, Text_t, "Doug McKenzie dougmck@pipeline.com.au\012"
1, 0, Time_signature, 4, 2, 24, 8
1, 0, Key_signature, 0, "major"
1, 0, Tempo, 476190
1, 0, End_track
2, 0, Start_track
2, 0, Title_t, "dougmck@pipeline.com.au"
2, 0, Program_c, 0, 0
2, 3, Control_c, 0, 7, 100
2, 3, Note_on_c, 0, 60, 112
2, 3, Note_on_c, 0, 64, 106
2, 5, Note_on_c, 0, 84, 127
2, 6, Note_on_c, 0, 72, 127
2, 6, Note_on_c, 0, 54, 90
2, 30, Control_c, 0, 64, 127
2, 131, Note_off_c, 0, 60, 0
2, 135, Note_off_c, 0, 64, 0
2, 168, Note_off_c, 0, 54, 0
2, 209, Note_off_c, 0, 84, 0
2, 226, Note_off_c, 0, 72, 0
2, 320, Note_on_c, 0, 83, 127
2, 321, Control_c, 0, 64, 0
2, 322, Note_on_c, 0, 71, 127
2, 322, Note_on_c, 0, 78, 120
2, 323, Note_on_c, 0, 62, 118
2, 323, Note_on_c, 0, 51, 110
2, 324, Note_on_c, 0, 57, 114
2, 348, Note_on_c, 0, 78, 0
2, 355, Note_on_c, 0, 79, 65
2, 359, Control_c, 0, 64, 127
2, 404, Note_off_c, 0, 57, 0
2, 408, Note_off_c, 0, 51, 0
2, 425, Note_off_c, 0, 79, 0
2, 431, Note_off_c, 0, 62, 0
2, 432, Note_off_c, 0, 71, 0
2, 441, Note_off_c, 0, 83, 0
2, 473, Control_c, 0, 64, 0
2, 483, Note_on_c, 0, 83, 108
2, 484, Note_on_c, 0, 52, 86
2, 484, Note_on_c, 0, 71, 90
2, 486, Note_on_c, 0, 55, 79
2, 487, Note_on_c, 0, 62, 49
2, 487, Note_on_c, 0, 59, 65
2, 491, Note_on_c, 0, 79, 67
2, 547, Control_c, 0, 64, 127
2, 594, Note_off_c, 0, 71, 0
2, 601, Note_off_c, 0, 62, 0
2, 602, Note_off_c, 0, 52, 0
2, 611, Note_off_c, 0, 59, 0
2, 615, Note_off_c, 0, 55, 0
2, 622, Note_off_c, 0, 79, 0
2, 629, Note_off_c, 0, 83, 0
2, 803, Control_c, 0, 64, 0
2, 804, Note_on_c, 0, 55, 127
2, 804, Note_on_c, 0, 96, 127
2, 805, Note_on_c, 0, 61, 127
2, 806, Note_on_c, 0, 65, 127
2, 807, Note_on_c, 0, 84, 127
2, 808, Note_on_c, 0, 93, 127
2, 810, Note_on_c, 0, 89, 127
2, 817, Note_on_c, 0, 89, 0
2, 818, Note_on_c, 0, 93, 0
2, 824, Note_on_c, 0, 65, 0
2, 827, Note_on_c, 0, 84, 0
2, 829, Note_on_c, 0, 96, 0
2, 832, Note_on_c, 0, 61, 0
2, 833, Note_on_c, 0, 55, 0
2, 838, Control_c, 0, 64, 127
2, 882, Control_c, 0, 64, 0
2, 885, Note_on_c, 0, 93, 125
2, 885, Note_on_c, 0, 61, 110
2, 886, Note_on_c, 0, 55, 123
2, 887, Note_on_c, 0, 81, 88
2, 888, Note_on_c, 0, 88, 112
2, 888, Note_on_c, 0, 65, 100
2, 893, Control_c, 0, 64, 127
2, 909, Note_off_c, 0, 55, 0
2, 924, Note_off_c, 0, 65, 0
2, 932, Note_off_c, 0, 81, 0
2, 936, Note_off_c, 0, 93, 0
2, 937, Note_off_c, 0, 88, 0
2, 947, Note_off_c, 0, 61, 0
2, 968, Control_c, 0, 64, 0
2, 969, Note_on_c, 0, 60, 92
2, 970, Note_on_c, 0, 64, 71
2, 970, Note_on_c, 0, 89, 104
2, 971, Note_on_c, 0, 57, 96
2, 971, Note_on_c, 0, 53, 55
2, 976, Note_on_c, 0, 77, 51
2, 977, Note_on_c, 0, 84, 77
2, 1019, Control_c, 0, 64, 127
2, 1031, Note_off_c, 0, 77, 0
2, 1036, Note_off_c, 0, 84, 0
2, 1042, Note_off_c, 0, 89, 0
2, 1053, Note_off_c, 0, 53, 0
2, 1055, Note_off_c, 0, 60, 0
2, 1055, Note_off_c, 0, 64, 0
2, 1055, Note_off_c, 0, 57, 0
2, 1085, Note_on_c, 0, 81, 112
2, 1086, Note_on_c, 0, 93, 118
2, 1088, Note_on_c, 0, 53, 59
2, 1088, Note_on_c, 0, 57, 73
2, 1092, Note_on_c, 0, 60, 55
2, 1092, Note_on_c, 0, 88, 73
2, 1099, Note_on_c, 0, 57, 0
2, 1099, Note_on_c, 0, 53, 0
2, 1100, Note_on_c, 0, 60, 0
2, 1100, Note_on_c, 0, 81, 0
2, 1101, Note_on_c, 0, 88, 0
2, 1103, Note_on_c, 0, 93, 0
2, 1126, Note_on_c, 0, 95, 127
2, 1127, Note_on_c, 0, 57, 65
2, 1128, Note_on_c, 0, 83, 116
2, 1133, Note_on_c, 0, 60, 38
2, 1136, Note_on_c, 0, 83, 0
2, 1137, Note_on_c, 0, 95, 0
2, 1139, Note_on_c, 0, 57, 0
2, 1140, Note_on_c, 0, 60, 0
2, 1169, Note_on_c, 0, 96, 127
2, 1169, Note_on_c, 0, 84, 127
2, 1170, Note_on_c, 0, 60, 127
2, 1170, Note_on_c, 0, 57, 127
2, 1173, Note_on_c, 0, 64, 104
2, 1175, Note_on_c, 0, 53, 63
2, 1177, Note_on_c, 0, 91, 90
2, 1188, Control_c, 0, 64, 0
2, 1211, Note_off_c, 0, 91, 0
2, 1214, Note_off_c, 0, 96, 0
2, 1216, Note_off_c, 0, 64, 0
2, 1216, Note_off_c, 0, 84, 0
2, 1222, Note_off_c, 0, 60, 0
2, 1222, Note_off_c, 0, 53, 0
2, 1223, Note_off_c, 0, 57, 0
2, 1257, Note_on_c, 0, 95, 123
2, 1258, Note_on_c, 0, 63, 127
2, 1259, Note_on_c, 0, 87, 114
2, 1259, Note_on_c, 0, 60, 127
2, 1261, Note_on_c, 0, 54, 127
2, 1261, Note_on_c, 0, 83, 116
2, 1261, Note_on_c, 0, 90, 108
2, 1262, Note_on_c, 0, 57, 108
2, 1286, Control_c, 0, 64, 127
2, 1309, Note_off_c, 0, 83, 0
2, 1309, Note_off_c, 0, 95, 0
2, 1309, Note_off_c, 0, 54, 0
2, 1314, Note_off_c, 0, 63, 0
2, 1317, Note_off_c, 0, 87, 0
2, 1318, Note_off_c, 0, 90, 0
2, 1319, Note_off_c, 0, 57, 0
2, 1321, Note_off_c, 0, 60, 0
2, 1323, Control_c, 0, 64, 0
2, 1334, Note_on_c, 0, 63, 104
2, 1336, Note_on_c, 0, 87, 77
2, 1337, Note_on_c, 0, 93, 116
2, 1338, Note_on_c, 0, 54, 104
2, 1338, Control_c, 0, 64, 127
2, 1339, Note_on_c, 0, 81, 102
2, 1340, Note_on_c, 0, 90, 65
2, 1342, Note_on_c, 0, 60, 88
2, 1343, Note_on_c, 0, 57, 96
2, 1362, Note_on_c, 0, 81, 0
2, 1369, Note_on_c, 0, 93, 0
2, 1373, Note_on_c, 0, 54, 0
2, 1373, Note_on_c, 0, 63, 0
2, 1373, Note_on_c, 0, 90, 0
2, 1375, Note_on_c, 0, 60, 0
2, 1376, Note_on_c, 0, 87, 0
2, 1376, Note_on_c, 0, 57, 0
2, 1413, Note_on_c, 0, 95, 127
2, 1414, Note_on_c, 0, 62, 110
2, 1415, Note_on_c, 0, 83, 114
2, 1417, Note_on_c, 0, 59, 112
2, 1418, Note_on_c, 0, 88, 92
2, 1420, Control_c, 0, 64, 0
2, 1421, Note_on_c, 0, 91, 61
2, 1421, Note_on_c, 0, 55, 112
2, 1422, Note_on_c, 0, 52, 57
2, 1466, Control_c, 0, 64, 127
2, 1547, Note_off_c, 0, 95, 0
2, 1552, Note_off_c, 0, 62, 0
2, 1555, Note_off_c, 0, 91, 0
2, 1562, Note_off_c, 0, 88, 0
2, 1565, Note_off_c, 0, 83, 0
2, 1586, Note_off_c, 0, 55, 0
2, 1587, Note_off_c, 0, 52, 0
2, 1597, Note_off_c, 0, 59, 0
2, 1682, Note_on_c, 0, 62, 59
2, 1683, Control_c, 0, 64, 0
2, 1684, Note_on_c, 0, 91, 55
2, 1687, Note_on_c, 0, 59, 49
2, 1687, Note_on_c, 0, 55, 71
2, 1688, Note_on_c, 0, 79, 49
2, 1690, Note_on_c, 0, 86, 65
2, 1690, Note_on_c, 0, 52, 30
2, 1735, Note_on_c, 0, 91, 0
2, 1739, Note_on_c, 0, 86, 0
2, 1749, Note_on_c, 0, 59, 0
2, 1752, Note_on_c, 0, 62, 0
2, 1752, Note_on_c, 0, 79, 0
2, 1753, Note_on_c, 0, 52, 0
2, 1757, Note_on_c, 0, 55, 0
2, 1824, Control_c, 0, 64, 127
2, 1912, Control_c, 0, 64, 0
2, 1921, Note_on_c, 0, 70, 127
2, 1923, Note_on_c, 0, 62, 127
2, 1923, Note_on_c, 0, 58, 112
2, 1926, Note_on_c, 0, 65, 116
2, 1929, Note_on_c, 0, 67, 82
2, 1952, Control_c, 0, 64, 127
2, 1973, Note_off_c, 0, 67, 0
2, 1980, Note_off_c, 0, 65, 0
2, 1982, Note_off_c, 0, 70, 0
2, 1983, Note_off_c, 0, 62, 0
2, 2003, Note_off_c, 0, 58, 0
2, 2003, Note_on_c, 0, 60, 127
2, 2004, Note_on_c, 0, 62, 127
2, 2005, Note_on_c, 0, 72, 127
2, 2005, Note_on_c, 0, 65, 127
2, 2007, Note_on_c, 0, 67, 108
2, 2008, Note_on_c, 0, 66, 82
2, 2009, Note_on_c, 0, 68, 88
2, 2015, Note_on_c, 0, 66, 0
2, 2017, Note_on_c, 0, 68, 0
2, 2035, Note_on_c, 0, 72, 0
2, 2038, Note_on_c, 0, 67, 0
2, 2040, Note_on_c, 0, 65, 0
2, 2043, Note_on_c, 0, 62, 0
2, 2044, Control_c, 0, 64, 0
2, 2051, Note_off_c, 0, 60, 0
2, 2060, Note_on_c, 0, 58, 67
2, 2068, Note_on_c, 0, 70, 67
2, 2080, Note_on_c, 0, 62, 16
2, 2104, Note_on_c, 0, 62, 0
2, 2119, Note_on_c, 0, 70, 0
2, 2132, Note_on_c, 0, 60, 127
2, 2133, Note_on_c, 0, 58, 0
2, 2134, Note_on_c, 0, 62, 125
2, 2135, Note_on_c, 0, 72, 127
2, 2136, Note_on_c, 0, 65, 90
2, 2139, Note_on_c, 0, 67, 102
2, 2161, Note_on_c, 0, 65, 0
2, 2168, Note_on_c, 0, 72, 0
2, 2170, Note_on_c, 0, 67, 0
2, 2174, Note_on_c, 0, 62, 0
2, 2184, Note_on_c, 0, 60, 0
2, 2189, Note_on_c, 0, 58, 96
2, 2193, Note_on_c, 0, 70, 86
2, 2199, Note_on_c, 0, 62, 67
2, 2205, Note_on_c, 0, 65, 41
2, 2207, Control_c, 0, 64, 127
2, 2227, Note_off_c, 0, 58, 0
2, 2228, Note_off_c, 0, 70, 0
2, 2232, Note_off_c, 0, 65, 0
2, 2245, Note_off_c, 0, 62, 0
2, 2278, Control_c, 0, 64, 0
2, 2295, Note_on_c, 0, 52, 90
2, 2296, Note_on_c, 0, 64, 84
2, 2298, Control_c, 0, 64, 127
2, 2321, Note_off_c, 0, 64, 0
2, 2356, Note_off_c, 0, 52, 0
2, 2365, Note_on_c, 0, 69, 127
2, 2366, Note_on_c, 0, 58, 127
2, 2368, Note_on_c, 0, 64, 127
2, 2370, Note_on_c, 0, 61, 127
2, 2372, Note_on_c, 0, 57, 127
2, 2373, Control_c, 0, 64, 0
2, 2438, Note_on_c, 0, 56, 92
2, 2446, Note_on_c, 0, 57, 0
2, 2454, Note_on_c, 0, 64, 0
2, 2460, Note_on_c, 0, 69, 0
2, 2466, Note_on_c, 0, 58, 0
2, 2471, Note_on_c, 0, 61, 0
2, 2480, Note_on_c, 0, 56, 0
2, 2481, Note_on_c, 0, 55, 102
2, 2494, Control_c, 0, 64, 127
2, 2516, Note_off_c, 0, 55, 0
2, 2521, Control_c, 0, 64, 0
2, 2525, Note_on_c, 0, 54, 73
2, 2527, Note_on_c, 0, 58, 71
2, 2535, Note_on_c, 0, 61, 51
2, 2548, Note_on_c, 0, 61, 0
2, 2571, Note_on_c, 0, 58, 0
2, 2603, Note_on_c, 0, 58, 108
2, 2603, Note_on_c, 0, 69, 127
2, 2605, Note_on_c, 0, 61, 112
2, 2606, Note_on_c, 0, 54, 0
2, 2606, Note_on_c, 0, 57, 112
2, 2609, Note_on_c, 0, 64, 102
2, 2645, Note_on_c, 0, 69, 0
2, 2646, Note_on_c, 0, 61, 0
2, 2647, Note_on_c, 0, 58, 0
2, 2650, Note_on_c, 0, 64, 0
2, 2659, Note_on_c, 0, 57, 0
2, 2665, Note_on_c, 0, 58, 63
2, 2666, Note_on_c, 0, 55, 90
2, 2669, Note_on_c, 0, 67, 75
2, 2670, Note_on_c, 0, 61, 57
2, 2695, Control_c, 0, 64, 127
2, 2715, Note_off_c, 0, 58, 0
2, 2718, Note_off_c, 0, 61, 0
2, 2723, Note_off_c, 0, 67, 0
2, 2726, Note_off_c, 0, 55, 0
2, 2737, Note_on_c, 0, 61, 57
2, 2737, Note_on_c, 0, 58, 82
2, 2740, Note_on_c, 0, 64, 51
2, 2746, Control_c, 0, 64, 0
2, 2746, Note_on_c, 0, 52, 73
2, 2793, Control_c, 0, 64, 127
2, 2822, Note_off_c, 0, 64, 0
2, 2830, Note_off_c, 0, 58, 0
2, 2852, Note_off_c, 0, 52, 0
2, 2857, Note_off_c, 0, 61, 0
2, 2880, Control_c, 0, 64, 0
2, 2886, Note_on_c, 0, 65, 79
2, 2887, Note_on_c, 0, 60, 84
2, 2889, Note_on_c, 0, 50, 53
2, 2889, Note_on_c, 0, 57, 61
2, 2893, Note_on_c, 0, 62, 49
2, 2916, Note_on_c, 0, 57, 0
2, 2917, Control_c, 0, 64, 127
2, 2922, Note_off_c, 0, 60, 0
2, 2926, Note_off_c, 0, 62, 0
2, 2928, Note_off_c, 0, 50, 0
2, 2942, Note_off_c, 0, 65, 0
2, 3055, Note_on_c, 0, 76, 127
2, 3057, Note_on_c, 0, 88, 118
2, 3061, Note_on_c, 0, 83, 71
2, 3064, Note_on_c, 0, 76, 0
2, 3065, Note_on_c, 0, 60, 53
2, 3069, Note_on_c, 0, 88, 0
2, 3071, Note_on_c, 0, 83, 0
2, 3073, Note_on_c, 0, 60, 0
2, 3089, Note_on_c, 0, 64, 127
2, 3092, Note_on_c, 0, 53, 86
2, 3092, Note_on_c, 0, 89, 127
2, 3092, Note_on_c, 0, 60, 127
2, 3093, Note_on_c, 0, 57, 127
2, 3093, Note_on_c, 0, 77, 127
2, 3094, Note_on_c, 0, 84, 127
2, 3107, Note_on_c, 0, 77, 0
2, 3109, Note_on_c, 0, 64, 0
2, 3110, Note_on_c, 0, 53, 0
2, 3111, Note_on_c, 0, 84, 0
2, 3114, Note_on_c, 0, 89, 0
2, 3115, Note_on_c, 0, 57, 0
2, 3115, Note_on_c, 0, 60, 0
2, 3126, Control_c, 0, 64, 0
2, 3128, Note_on_c, 0, 53, 127
2, 3130, Note_on_c, 0, 64, 127
2, 3130, Note_on_c, 0, 60, 127
2, 3130, Note_on_c, 0, 57, 127
2, 3130, Note_on_c, 0, 86, 127
2, 3131, Note_on_c, 0, 91, 127
2, 3131, Note_on_c, 0, 79, 127
2, 3159, Control_c, 0, 64, 127
2, 3185, Note_off_c, 0, 91, 0
2, 3189, Note_off_c, 0, 86, 0
2, 3191, Note_off_c, 0, 79, 0
2, 3261, Note_off_c, 0, 53, 0
2, 3262, Note_off_c, 0, 64, 0
2, 3263, Note_off_c, 0, 60, 0
2, 3263, Note_off_c, 0, 57, 0
2, 3296, Note_on_c, 0, 74, 112
2, 3296, Note_on_c, 0, 86, 100
2, 3303, Note_on_c, 0, 74, 0
2, 3305, Note_on_c, 0, 86, 0
2, 3326, Note_on_c, 0, 64, 98
2, 3330, Note_on_c, 0, 60, 41
2, 3332, Note_on_c, 0, 83, 102
2, 3334, Note_on_c, 0, 88, 71
2, 3334, Note_on_c, 0, 86, 79
2, 3339, Note_on_c, 0, 60, 0
2, 3340, Note_on_c, 0, 83, 0
2, 3342, Note_on_c, 0, 88, 0
2, 3344, Note_on_c, 0, 86, 0
2, 3344, Note_on_c, 0, 64, 0
2, 3360, Control_c, 0, 64, 0
2, 3366, Note_on_c, 0, 89, 127
2, 3367, Note_on_c, 0, 84, 127
2, 3368, Note_on_c, 0, 77, 112
2, 3368, Note_on_c, 0, 67, 127
2, 3371, Note_on_c, 0, 56, 90
2, 3372, Note_on_c, 0, 63, 75
2, 3373, Note_on_c, 0, 60, 127
2, 3392, Control_c, 0, 64, 127
2, 3396, Note_off_c, 0, 77, 0
2, 3399, Note_off_c, 0, 84, 0
2, 3402, Note_off_c, 0, 89, 0
2, 3405, Note_off_c, 0, 67, 0
2, 3405, Note_off_c, 0, 60, 0
2, 3406, Note_off_c, 0, 63, 0
2, 3406, Note_off_c, 0, 56, 0
2, 3413, Control_c, 0, 64, 0
2, 3444, Note_on_c, 0, 91, 127
2, 3445, Note_on_c, 0, 79, 127
2, 3446, Note_on_c, 0, 86, 127
2, 3446, Note_on_c, 0, 63, 120
2, 3446, Note_on_c, 0, 67, 125
2, 3447, Note_on_c, 0, 56, 104
2, 3452, Note_on_c, 0, 60, 110
2, 3454, Note_on_c, 0, 86, 0
2, 3456, Note_on_c, 0, 67, 0
2, 3457, Note_on_c, 0, 79, 0
2, 3458, Note_on_c, 0, 60, 0
2, 3464, Note_on_c, 0, 91, 0
2, 3464, Note_on_c, 0, 63, 0
2, 3465, Note_on_c, 0, 56, 0
2, 3545, Control_c, 0, 64, 127
2, 3565, Control_c, 0, 64, 0
2, 3598, Control_c, 0, 64, 127
2, 3683, Note_on_c, 0, 92, 116
2, 3683, Note_on_c, 0, 67, 79
2, 3685, Note_on_c, 0, 62, 71
2, 3685, Note_on_c, 0, 56, 75
2, 3686, Control_c, 0, 64, 0
2, 3687, Note_on_c, 0, 80, 82
2, 3688, Note_on_c, 0, 87, 104
2, 3717, Control_c, 0, 64, 127
2, 3729, Note_off_c, 0, 80, 0
2, 3729, Note_off_c, 0, 56, 0
2, 3729, Note_off_c, 0, 67, 0
2, 3732, Note_off_c, 0, 92, 0
2, 3732, Note_off_c, 0, 87, 0
2, 3733, Note_off_c, 0, 62, 0
2, 3767, Note_on_c, 0, 94, 123
2, 3768, Note_on_c, 0, 56, 114
2, 3768, Note_on_c, 0, 62, 69
2, 3770, Note_on_c, 0, 82, 75
2, 3770, Note_on_c, 0, 87, 96
2, 3771, Note_on_c, 0, 67, 61
2, 3780, Note_on_c, 0, 67, 0
2, 3780, Note_on_c, 0, 62, 0
2, 3802, Note_on_c, 0, 87, 0
2, 3806, Note_on_c, 0, 56, 0
2, 3810, Note_on_c, 0, 94, 0
2, 3814, Note_on_c, 0, 82, 0
2, 3852, Control_c, 0, 64, 0
2, 3852, Note_on_c, 0, 95, 114
2, 3854, Note_on_c, 0, 55, 63
2, 3855, Note_on_c, 0, 60, 75
2, 3857, Note_on_c, 0, 64, 67
2, 3858, Note_on_c, 0, 88, 100
2, 3859, Note_on_c, 0, 83, 88
2, 3861, Note_on_c, 0, 59, 92
2, 3889, Control_c, 0, 64, 127
2, 3912, Note_off_c, 0, 95, 0
2, 3914, Note_off_c, 0, 88, 0
2, 3934, Note_off_c, 0, 83, 0
2, 3990, Note_off_c, 0, 64, 0
2, 4032, Note_off_c, 0, 60, 0
2, 4047, Note_off_c, 0, 59, 0
2, 4092, Control_c, 0, 64, 0
2, 4094, Note_on_c, 0, 64, 127
2, 4119, Note_on_c, 0, 64, 0
2, 4131, Note_on_c, 0, 65, 127
2, 4196, Note_on_c, 0, 65, 0
2, 4209, Note_on_c, 0, 64, 123
2, 4231, Note_on_c, 0, 64, 0
2, 4241, Note_on_c, 0, 65, 127
2, 4300, Note_on_c, 0, 55, 0
2, 4310, Note_on_c, 0, 65, 0
2, 4320, Note_on_c, 0, 64, 123
2, 4385, Control_c, 0, 64, 127
2, 4447, Note_off_c, 0, 64, 0
2, 4521, Note_on_c, 0, 76, 127
2, 4567, Note_on_c, 0, 76, 0
2, 4587, Note_on_c, 0, 68, 88
2, 4587, Note_on_c, 0, 71, 110
2, 4588, Control_c, 0, 64, 0
2, 4591, Note_on_c, 0, 62, 67
2, 4591, Note_on_c, 0, 64, 71
2, 4594, Note_on_c, 0, 56, 69
2, 4628, Control_c, 0, 64, 127
2, 4681, Note_off_c, 0, 62, 0
2, 4683, Note_off_c, 0, 64, 0
2, 4688, Note_on_c, 0, 74, 120
2, 4694, Note_on_c, 0, 71, 0
2, 4701, Note_on_c, 0, 68, 0
2, 4708, Note_on_c, 0, 56, 0
2, 4816, Note_on_c, 0, 74, 0
2, 4883, Note_on_c, 0, 76, 110
2, 4886, Note_on_c, 0, 70, 112
2, 4886, Note_on_c, 0, 57, 75
2, 4887, Note_on_c, 0, 58, 73
2, 4887, Note_on_c, 0, 64, 100
2, 4891, Control_c, 0, 64, 0
2, 4921, Control_c, 0, 64, 127
2, 4929, Note_off_c, 0, 64, 0
2, 4932, Note_off_c, 0, 76, 0
2, 4948, Note_off_c, 0, 70, 0
2, 4973, Note_on_c, 0, 77, 127
2, 4988, Note_on_c, 0, 57, 0
2, 4994, Note_on_c, 0, 77, 0
2, 5006, Note_on_c, 0, 58, 0
2, 5012, Note_on_c, 0, 79, 127
2, 5039, Note_on_c, 0, 79, 0
2, 5061, Note_on_c, 0, 58, 96
2, 5062, Note_on_c, 0, 63, 118
2, 5063, Control_c, 0, 64, 0
2, 5063, Note_on_c, 0, 52, 127
2, 5063, Note_on_c, 0, 81, 127
2, 5065, Note_on_c, 0, 69, 127
2, 5146, Control_c, 0, 64, 127
2, 5149, Note_off_c, 0, 81, 0
2, 5162, Note_off_c, 0, 69, 0
2, 5171, Note_on_c, 0, 79, 118
2, 5191, Note_on_c, 0, 52, 0
2, 5195, Note_on_c, 0, 79, 0
2, 5202, Note_on_c, 0, 58, 0
2, 5203, Note_on_c, 0, 63, 0
2, 5247, Note_on_c, 0, 76, 127
2, 5251, Note_on_c, 0, 64, 84
2, 5251, Note_on_c, 0, 69, 127
2, 5256, Note_on_c, 0, 60, 86
2, 5257, Control_c, 0, 64, 0
2, 5258, Note_on_c, 0, 57, 69
2, 5259, Note_on_c, 0, 53, 63
2, 5323, Control_c, 0, 64, 127
2, 5487, Note_off_c, 0, 64, 0
2, 5501, Note_off_c, 0, 69, 0
2, 5549, Note_off_c, 0, 76, 0
2, 5617, Note_off_c, 0, 53, 0
2, 5624, Note_off_c, 0, 60, 0
2, 5629, Note_off_c, 0, 57, 0
2, 5690, Note_on_c, 0, 69, 86
2, 5701, Note_on_c, 0, 69, 0
2, 5727, Note_on_c, 0, 76, 127
2, 5762, Note_on_c, 0, 76, 0
2, 5779, Control_c, 0, 64, 0
2, 5784, Note_on_c, 0, 69, 127
2, 5785, Note_on_c, 0, 74, 127
2, 5786, Note_on_c, 0, 66, 100
2, 5787, Note_on_c, 0, 64, 92
2, 5792, Note_on_c, 0, 62, 84
2, 5836, Control_c, 0, 64, 127
2, 5867, Note_on_c, 0, 76, 127
2, 5881, Note_on_c, 0, 74, 0
2, 5886, Note_on_c, 0, 64, 0
2, 5909, Note_on_c, 0, 62, 0
2, 5912, Note_on_c, 0, 66, 0
2, 5925, Note_on_c, 0, 69, 0
2, 6006, Control_c, 0, 64, 0
2, 6009, Note_on_c, 0, 67, 127
2, 6010, Note_on_c, 0, 56, 127
2, 6010, Note_on_c, 0, 62, 127
2, 6079, Control_c, 0, 64, 127
2, 6127, Note_off_c, 0, 62, 0
2, 6128, Note_off_c, 0, 67, 0
2, 6154, Note_off_c, 0, 56, 0
2, 6247, Control_c, 0, 64, 0
2, 6247, Note_on_c, 0, 64, 55
2, 6248, Note_on_c, 0, 60, 88
2, 6250, Note_on_c, 0, 55, 63
2, 6252, Note_on_c, 0, 59, 82
2, 6321, Note_on_c, 0, 76, 0
2, 6329, Note_on_c, 0, 71, 112
2, 6357, Note_on_c, 0, 71, 0
2, 6374, Note_on_c, 0, 72, 79
2, 6384, Note_on_c, 0, 72, 0
2, 6409, Note_on_c, 0, 76, 127
2, 6416, Note_on_c, 0, 64, 0
2, 6428, Note_on_c, 0, 76, 0
2, 6433, Note_on_c, 0, 60, 0
2, 6446, Note_on_c, 0, 79, 127
2, 6464, Note_on_c, 0, 79, 0
2, 6489, Note_on_c, 0, 86, 127
2, 6490, Note_on_c, 0, 64, 79
2, 6491, Note_on_c, 0, 60, 112
2, 6515, Control_c, 0, 64, 127
2, 6536, Note_off_c, 0, 64, 0
2, 6542, Note_off_c, 0, 60, 0
2, 6551, Note_off_c, 0, 55, 0
2, 6552, Note_off_c, 0, 86, 0
2, 6552, Note_off_c, 0, 59, 0
2, 6563, Note_on_c, 0, 55, 38
2, 6565, Note_on_c, 0, 85, 127
2, 6566, Note_on_c, 0, 60, 71
2, 6567, Note_on_c, 0, 64, 79
2, 6568, Note_on_c, 0, 59, 57
2, 6587, Control_c, 0, 64, 0
2, 6594, Note_off_c, 0, 64, 0
2, 6601, Note_off_c, 0, 85, 0
2, 6612, Note_on_c, 0, 64, 34
2, 6619, Note_on_c, 0, 84, 118
2, 6631, Note_on_c, 0, 64, 0
2, 6633, Note_on_c, 0, 55, 0
2, 6640, Note_on_c, 0, 60, 0
2, 6641, Note_on_c, 0, 59, 0
2, 6645, Note_on_c, 0, 84, 0
2, 6687, Note_on_c, 0, 64, 71
2, 6687, Note_on_c, 0, 83, 127
2, 6687, Note_on_c, 0, 60, 69
2, 6688, Note_on_c, 0, 55, 71
2, 6690, Control_c, 0, 64, 127
2, 6691, Note_on_c, 0, 59, 84
2, 6703, Note_on_c, 0, 59, 0
2, 6704, Note_on_c, 0, 64, 0
2, 6704, Note_on_c, 0, 55, 0
2, 6710, Note_on_c, 0, 60, 0
2, 6715, Control_c, 0, 64, 0
2, 6719, Note_off_c, 0, 83, 0
2, 6737, Note_on_c, 0, 79, 108
2, 6737, Note_on_c, 0, 64, 45
2, 6739, Note_on_c, 0, 60, 51
2, 6748, Control_c, 0, 64, 127
2, 6771, Note_off_c, 0, 64, 0
2, 6776, Note_off_c, 0, 60, 0
2, 6796, Note_off_c, 0, 79, 0
2, 6804, Note_on_c, 0, 60, 67
2, 6804, Note_on_c, 0, 76, 110
2, 6805, Note_on_c, 0, 64, 53
2, 6808, Note_on_c, 0, 55, 59
2, 6810, Note_on_c, 0, 59, 57
2, 6823, Note_on_c, 0, 64, 0
2, 6825, Note_on_c, 0, 59, 0
2, 6827, Note_on_c, 0, 55, 0
2, 6827, Note_on_c, 0, 76, 0
2, 6831, Control_c, 0, 64, 0
2, 6832, Note_off_c, 0, 60, 0
2, 6848, Note_on_c, 0, 64, 59
2, 6850, Note_on_c, 0, 60, 34
2, 6850, Note_on_c, 0, 55, 65
2, 6852, Note_on_c, 0, 72, 96
2, 6854, Note_on_c, 0, 59, 49
2, 6867, Control_c, 0, 64, 127
2, 6868, Note_off_c, 0, 64, 0
2, 6882, Note_off_c, 0, 59, 0
2, 6886, Note_off_c, 0, 55, 0
2, 6891, Note_off_c, 0, 60, 0
2, 6911, Note_on_c, 0, 55, 28
2, 6921, Note_on_c, 0, 72, 0
2, 6926, Note_on_c, 0, 69, 82
2, 6928, Note_on_c, 0, 60, 18
2, 6934, Note_on_c, 0, 55, 0
2, 6945, Note_on_c, 0, 69, 0
2, 6947, Note_on_c, 0, 60, 0
2, 6957, Control_c, 0, 64, 0
2, 6968, Note_on_c, 0, 60, 65
2, 6970, Note_on_c, 0, 74, 127
2, 6970, Note_on_c, 0, 64, 86
2, 6970, Note_on_c, 0, 54, 108
2, 7006, Control_c, 0, 64, 127
2, 7053, Control_c, 0, 64, 0
2, 7081, Control_c, 0, 64, 127
2, 7092, Note_on_c, 0, 76, 123
2, 7107, Note_on_c, 0, 74, 0
2, 7117, Note_on_c, 0, 60, 0
2, 7119, Note_on_c, 0, 64, 0
2, 7126, Note_on_c, 0, 54, 0
2, 7126, Note_on_c, 0, 76, 0
2, 7195, Control_c, 0, 64, 0
2, 7206, Note_on_c, 0, 64, 127
2, 7206, Note_on_c, 0, 60, 127
2, 7207, Note_on_c, 0, 81, 127
2, 7207, Note_on_c, 0, 53, 112
2, 7207, Note_on_c, 0, 57, 116
2, 7209, Note_on_c, 0, 69, 127
2, 7209, Note_on_c, 0, 76, 127
2, 7227, Control_c, 0, 64, 127
2, 7243, Note_off_c, 0, 69, 0
2, 7249, Note_off_c, 0, 81, 0
2, 7251, Note_off_c, 0, 53, 0
2, 7252, Note_off_c, 0, 64, 0
2, 7257, Note_off_c, 0, 76, 0
2, 7259, Note_off_c, 0, 60, 0
2, 7260, Note_off_c, 0, 57, 0
2, 7285, Note_on_c, 0, 83, 127
2, 7286, Note_on_c, 0, 60, 96
2, 7287, Note_on_c, 0, 57, 75
2, 7288, Note_on_c, 0, 53, 98
2, 7288, Note_on_c, 0, 76, 125
2, 7288, Note_on_c, 0, 71, 127
2, 7289, Note_on_c, 0, 64, 102
2, 7300, Note_on_c, 0, 64, 0
2, 7307, Note_on_c, 0, 53, 0
2, 7309, Note_on_c, 0, 71, 0
2, 7311, Note_on_c, 0, 60, 0
2, 7311, Note_on_c, 0, 83, 0
2, 7315, Control_c, 0, 64, 0
2, 7317, Note_off_c, 0, 57, 0
2, 7320, Note_off_c, 0, 76, 0
2, 7329, Note_on_c, 0, 81, 116
2, 7330, Note_on_c, 0, 64, 88
2, 7332, Note_on_c, 0, 60, 94
2, 7333, Note_on_c, 0, 57, 61
2, 7333, Note_on_c, 0, 53, 84
2, 7335, Note_on_c, 0, 76, 71
2, 7337, Note_on_c, 0, 69, 104
2, 7357, Control_c, 0, 64, 127
2, 7398, Note_off_c, 0, 69, 0
2, 7398, Note_off_c, 0, 53, 0
2, 7402, Note_off_c, 0, 60, 0
2, 7402, Note_off_c, 0, 64, 0
2, 7403, Note_off_c, 0, 76, 0
2, 7412, Note_off_c, 0, 57, 0
2, 7413, Note_off_c, 0, 81, 0
2, 7518, Note_on_c, 0, 64, 123
2, 7519, Note_on_c, 0, 59, 125
2, 7521, Note_on_c, 0, 57, 98
2, 7523, Note_on_c, 0, 53, 77
2, 7529, Control_c, 0, 64, 0
2, 7562, Control_c, 0, 64, 127
2, 7619, Note_off_c, 0, 53, 0
2, 7620, Note_off_c, 0, 59, 0
2, 7625, Note_off_c, 0, 57, 0
2, 7642, Note_off_c, 0, 64, 0
2, 7672, Control_c, 0, 64, 0
2, 7684, Note_on_c, 0, 64, 127
2, 7684, Note_on_c, 0, 60, 127
2, 7685, Note_on_c, 0, 96, 127
2, 7685, Note_on_c, 0, 54, 127
2, 7685, Note_on_c, 0, 84, 127
2, 7702, Note_on_c, 0, 84, 0
2, 7714, Note_on_c, 0, 96, 0
2, 7724, Note_on_c, 0, 54, 0
2, 7728, Note_on_c, 0, 60, 0
2, 7728, Note_on_c, 0, 64, 0
2, 7728, Control_c, 0, 64, 127
2, 7739, Note_on_c, 0, 93, 57
2, 7748, Note_on_c, 0, 93, 0
2, 7752, Control_c, 0, 64, 0
2, 7769, Note_on_c, 0, 96, 127
2, 7769, Note_on_c, 0, 84, 127
2, 7770, Note_on_c, 0, 54, 127
2, 7770, Note_on_c, 0, 64, 127
2, 7770, Note_on_c, 0, 60, 127
2, 7814, Control_c, 0, 64, 127
2, 7857, Note_off_c, 0, 60, 0
2, 7860, Note_off_c, 0, 64, 0
2, 7864, Note_off_c, 0, 84, 0
2, 7874, Note_on_c, 0, 93, 127
2, 7876, Note_on_c, 0, 96, 0
2, 7879, Note_on_c, 0, 54, 0
2, 7901, Note_on_c, 0, 93, 0
2, 7909, Note_on_c, 0, 84, 120
2, 7919, Note_on_c, 0, 84, 0
2, 7938, Control_c, 0, 64, 0
2, 7943, Note_on_c, 0, 62, 127
2, 7945, Note_on_c, 0, 51, 118
2, 7946, Note_on_c, 0, 95, 127
2, 7946, Note_on_c, 0, 57, 123
2, 7949, Note_on_c, 0, 83, 127
2, 8055, Control_c, 0, 64, 127
2, 8077, Note_off_c, 0, 57, 0
2, 8082, Note_off_c, 0, 51, 0
2, 8107, Note_off_c, 0, 62, 0
2, 8152, Note_off_c, 0, 83, 0
2, 8153, Note_off_c, 0, 95, 0
2, 8160, Control_c, 0, 64, 0
2, 8165, Note_on_c, 0, 59, 77
2, 8165, Note_on_c, 0, 52, 98
2, 8165, Note_on_c, 0, 62, 86
2, 8166, Note_on_c, 0, 55, 118
2, 8198, Control_c, 0, 64, 127
2, 8255, Control_c, 0, 64, 0
2, 8286, Control_c, 0, 64, 127
2, 8288, Note_on_c, 0, 95, 127
2, 8290, Note_on_c, 0, 83, 127
2, 8292, Note_on_c, 0, 52, 0
2, 8295, Note_on_c, 0, 84, 118
2, 8299, Note_on_c, 0, 62, 0
2, 8301, Note_on_c, 0, 55, 0
2, 8302, Note_on_c, 0, 84, 0
2, 8305, Note_on_c, 0, 83, 0
2, 8306, Note_on_c, 0, 59, 0
2, 8326, Note_on_c, 0, 95, 0
2, 8326, Note_on_c, 0, 91, 127
2, 8356, Note_on_c, 0, 91, 0
2, 8365, Note_on_c, 0, 83, 127
2, 8384, Note_on_c, 0, 83, 0
2, 8414, Control_c, 0, 64, 0
2, 8452, Note_on_c, 0, 66, 127
2, 8453, Note_on_c, 0, 94, 127
2, 8455, Note_on_c, 0, 55, 127
2, 8455, Note_on_c, 0, 61, 127
2, 8455, Note_on_c, 0, 82, 127
2, 8482, Note_on_c, 0, 82, 0
2, 8498, Note_on_c, 0, 94, 0
2, 8498, Note_on_c, 0, 90, 127
2, 8499, Control_c, 0, 64, 127
2, 8508, Note_off_c, 0, 55, 0
2, 8516, Note_off_c, 0, 66, 0
2, 8524, Control_c, 0, 64, 0
2, 8536, Note_on_c, 0, 82, 125
2, 8537, Note_on_c, 0, 66, 110
2, 8540, Note_on_c, 0, 55, 112
2, 8547, Note_on_c, 0, 90, 0
2, 8567, Note_on_c, 0, 82, 0
2, 8571, Control_c, 0, 64, 127
2, 8575, Note_off_c, 0, 55, 0
2, 8581, Note_off_c, 0, 66, 0
2, 8604, Note_off_c, 0, 61, 0
2, 8617, Control_c, 0, 64, 0
2, 8636, Note_on_c, 0, 93, 127
2, 8636, Note_on_c, 0, 81, 127
2, 8637, Note_on_c, 0, 53, 108
2, 8637, Note_on_c, 0, 60, 106
2, 8639, Note_on_c, 0, 64, 79
2, 8640, Note_on_c, 0, 57, 102
2, 8667, Note_on_c, 0, 81, 0
2, 8680, Note_on_c, 0, 89, 123
2, 8681, Note_on_c, 0, 93, 0
2, 8713, Note_on_c, 0, 64, 0
2, 8713, Note_on_c, 0, 89, 0
2, 8716, Control_c, 0, 64, 127
2, 8720, Note_on_c, 0, 81, 112
2, 8742, Note_on_c, 0, 60, 0
2, 8744, Note_on_c, 0, 81, 0
2, 8751, Note_on_c, 0, 57, 0
2, 8756, Note_on_c, 0, 53, 0
2, 8791, Control_c, 0, 64, 0
2, 8899, Control_c, 0, 64, 127
2, 8958, Note_on_c, 0, 63, 127
2, 8958, Note_on_c, 0, 93, 127
2, 8959, Control_c, 0, 64, 0
2, 8959, Note_on_c, 0, 87, 127
2, 8960, Note_on_c, 0, 90, 127
2, 8960, Note_on_c, 0, 81, 127
2, 8960, Note_on_c, 0, 54, 127
2, 8961, Note_on_c, 0, 60, 125
2, 8963, Note_on_c, 0, 57, 102
2, 8992, Control_c, 0, 64, 127
2, 8998, Note_off_c, 0, 81, 0
2, 9003, Note_off_c, 0, 93, 0
2, 9004, Note_off_c, 0, 87, 0
2, 9007, Note_off_c, 0, 90, 0
2, 9009, Note_off_c, 0, 54, 0
2, 9013, Note_off_c, 0, 57, 0
2, 9014, Note_off_c, 0, 63, 0
2, 9018, Note_off_c, 0, 60, 0
2, 9033, Control_c, 0, 64, 0
2, 9038, Note_on_c, 0, 63, 127
2, 9040, Note_on_c, 0, 96, 127
2, 9040, Note_on_c, 0, 54, 127
2, 9043, Note_on_c, 0, 60, 96
2, 9043, Note_on_c, 0, 84, 127
2, 9046, Control_c, 0, 64, 127
2, 9050, Note_on_c, 0, 57, 59
2, 9071, Note_on_c, 0, 60, 0
2, 9074, Note_on_c, 0, 57, 0
2, 9076, Note_on_c, 0, 96, 0
2, 9080, Note_on_c, 0, 63, 0
2, 9083, Note_on_c, 0, 54, 0
2, 9088, Note_on_c, 0, 84, 0
2, 9113, Control_c, 0, 64, 0
2, 9116, Note_on_c, 0, 62, 82
2, 9119, Note_on_c, 0, 95, 127
2, 9122, Note_on_c, 0, 83, 106
2, 9123, Note_on_c, 0, 91, 73
2, 9125, Note_on_c, 0, 88, 106
2, 9126, Note_on_c, 0, 55, 98
2, 9127, Note_on_c, 0, 52, 65
2, 9128, Note_on_c, 0, 59, 34
2, 9151, Note_on_c, 0, 91, 0
2, 9154, Note_on_c, 0, 88, 0
2, 9154, Note_on_c, 0, 95, 0
2, 9155, Control_c, 0, 64, 127
2, 9164, Note_off_c, 0, 83, 0
2, 9168, Note_off_c, 0, 52, 0
2, 9168, Note_off_c, 0, 62, 0
2, 9168, Note_off_c, 0, 55, 0
2, 9172, Note_off_c, 0, 59, 0
2, 9198, Control_c, 0, 64, 0
2, 9199, Note_on_c, 0, 91, 77
2, 9202, Note_on_c, 0, 86, 112
2, 9204, Note_on_c, 0, 62, 82
2, 9204, Note_on_c, 0, 79, 92
2, 9206, Note_on_c, 0, 59, 63
2, 9207, Note_on_c, 0, 55, 96
2, 9207, Note_on_c, 0, 52, 71
2, 9225, Note_on_c, 0, 86, 0
2, 9225, Note_on_c, 0, 91, 0
2, 9228, Note_on_c, 0, 62, 0
2, 9231, Note_on_c, 0, 59, 0
2, 9236, Control_c, 0, 64, 127
2, 9237, Note_off_c, 0, 79, 0
2, 9240, Note_off_c, 0, 55, 0
2, 9269, Note_off_c, 0, 52, 0
2, 9327, Note_on_c, 0, 55, 67
2, 9328, Note_on_c, 0, 56, 100
2, 9338, Note_on_c, 0, 55, 0
2, 9345, Control_c, 0, 64, 0
2, 9347, Note_off_c, 0, 56, 0
2, 9349, Note_on_c, 0, 57, 61
2, 9354, Note_on_c, 0, 74, 127
2, 9357, Note_on_c, 0, 59, 116
2, 9358, Note_on_c, 0, 64, 118
2, 9358, Note_on_c, 0, 67, 108
2, 9359, Note_on_c, 0, 57, 0
2, 9376, Note_on_c, 0, 67, 0
2, 9379, Note_on_c, 0, 74, 0
2, 9380, Note_on_c, 0, 64, 0
2, 9400, Note_on_c, 0, 59, 0
2, 9435, Note_on_c, 0, 72, 127
2, 9437, Note_on_c, 0, 64, 127
2, 9439, Note_on_c, 0, 67, 112
2, 9441, Note_on_c, 0, 57, 71
2, 9443, Note_on_c, 0, 59, 71
2, 9446, Note_on_c, 0, 67, 0
2, 9446, Control_c, 0, 64, 127
2, 9450, Note_off_c, 0, 72, 0
2, 9452, Note_off_c, 0, 59, 0
2, 9453, Control_c, 0, 64, 0
2, 9455, Note_off_c, 0, 64, 0
2, 9460, Note_off_c, 0, 57, 0
2, 9483, Note_on_c, 0, 55, 98
2, 9484, Note_on_c, 0, 71, 77
2, 9486, Note_on_c, 0, 62, 90
2, 9506, Control_c, 0, 64, 127
2, 9514, Note_off_c, 0, 71, 0
2, 9517, Control_c, 0, 64, 0
2, 9519, Note_off_c, 0, 62, 0
2, 9534, Control_c, 0, 64, 127
2, 9535, Note_off_c, 0, 55, 0
2, 9558, Note_on_c, 0, 52, 96
2, 9568, Note_on_c, 0, 52, 0
2, 9594, Control_c, 0, 64, 0
2, 9600, Note_on_c, 0, 69, 125
2, 9600, Note_on_c, 0, 58, 102
2, 9601, Note_on_c, 0, 57, 112
2, 9602, Note_on_c, 0, 62, 92
2, 9606, Note_on_c, 0, 64, 92
2, 9621, Note_on_c, 0, 64, 0
2, 9624, Note_on_c, 0, 58, 0
2, 9626, Note_on_c, 0, 62, 0
2, 9632, Note_on_c, 0, 69, 0
2, 9635, Note_on_c, 0, 57, 0
2, 9647, Note_on_c, 0, 55, 77
2, 9661, Note_on_c, 0, 55, 0
2, 9678, Note_on_c, 0, 69, 118
2, 9679, Note_on_c, 0, 58, 106
2, 9681, Note_on_c, 0, 62, 116
2, 9682, Note_on_c, 0, 57, 118
2, 9685, Note_on_c, 0, 64, 94
2, 9716, Note_on_c, 0, 62, 0
2, 9716, Control_c, 0, 64, 127
2, 9718, Note_off_c, 0, 64, 0
2, 9724, Note_off_c, 0, 69, 0
2, 9726, Note_off_c, 0, 58, 0
2, 9731, Note_off_c, 0, 57, 0
2, 9756, Control_c, 0, 64, 0
2, 9771, Note_on_c, 0, 60, 127
2, 9772, Note_on_c, 0, 72, 127
2, 9774, Note_on_c, 0, 61, 127
2, 9776, Note_on_c, 0, 65, 127
2, 9801, Note_on_c, 0, 65, 0
2, 9804, Control_c, 0, 64, 127
2, 9808, Note_off_c, 0, 61, 0
2, 9812, Note_off_c, 0, 72, 0
2, 9815, Note_off_c, 0, 60, 0
2, 9817, Note_on_c, 0, 58, 102
2, 9824, Control_c, 0, 64, 0
2, 9852, Note_off_c, 0, 58, 0
2, 9852, Note_on_c, 0, 61, 127
2, 9852, Note_on_c, 0, 72, 127
2, 9852, Note_on_c, 0, 65, 127
2, 9855, Note_on_c, 0, 60, 127
2, 9857, Note_on_c, 0, 67, 104
2, 9863, Note_on_c, 0, 70, 51
2, 9869, Control_c, 0, 64, 127
2, 9875, Note_off_c, 0, 72, 0
2, 9879, Note_off_c, 0, 70, 0
2, 9881, Note_off_c, 0, 67, 0
2, 9885, Note_off_c, 0, 65, 0
2, 9896, Note_off_c, 0, 60, 0
2, 9907, Note_off_c, 0, 61, 0
2, 9943, Control_c, 0, 64, 0
2, 9951, Note_on_c, 0, 61, 104
2, 9953, Note_on_c, 0, 57, 92
2, 9953, Note_on_c, 0, 69, 98
2, 9953, Note_on_c, 0, 64, 108
2, 9953, Note_on_c, 0, 58, 71
2, 9985, Control_c, 0, 64, 127
2, 10050, Note_off_c, 0, 58, 0
2, 10053, Note_off_c, 0, 69, 0
2, 10060, Note_off_c, 0, 57, 0
2, 10065, Note_off_c, 0, 61, 0
2, 10065, Note_off_c, 0, 64, 0
2, 10289, Note_on_c, 0, 67, 127
2, 10289, Note_on_c, 0, 79, 127
2, 10290, Note_on_c, 0, 66, 127
2, 10291, Note_on_c, 0, 61, 104
2, 10293, Note_on_c, 0, 55, 102
2, 10303, Note_on_c, 0, 67, 0
2, 10306, Note_on_c, 0, 66, 0
2, 10307, Note_on_c, 0, 55, 0
2, 10313, Note_on_c, 0, 61, 0
2, 10316, Note_on_c, 0, 79, 0
2, 10322, Control_c, 0, 64, 0
2, 10357, Note_on_c, 0, 84, 127
2, 10358, Control_c, 0, 64, 127
2, 10358, Note_on_c, 0, 72, 127
2, 10358, Note_on_c, 0, 55, 127
2, 10359, Note_on_c, 0, 61, 118
2, 10359, Note_on_c, 0, 66, 127
2, 10363, Note_on_c, 0, 83, 69
2, 10371, Note_on_c, 0, 83, 0
2, 10380, Note_on_c, 0, 72, 0
2, 10391, Note_on_c, 0, 84, 0
2, 10394, Note_on_c, 0, 55, 0
2, 10405, Note_on_c, 0, 66, 0
2, 10411, Note_on_c, 0, 61, 0
2, 10428, Control_c, 0, 64, 0
2, 10440, Note_on_c, 0, 89, 127
2, 10441, Note_on_c, 0, 66, 127
2, 10441, Note_on_c, 0, 77, 127
2, 10442, Note_on_c, 0, 61, 127
2, 10443, Note_on_c, 0, 55, 127
2, 10450, Control_c, 0, 64, 127
2, 10458, Note_off_c, 0, 77, 0
2, 10469, Note_off_c, 0, 89, 0
2, 10471, Note_off_c, 0, 55, 0
2, 10476, Note_off_c, 0, 66, 0
2, 10501, Note_off_c, 0, 61, 0
2, 10524, Note_on_c, 0, 60, 127
2, 10525, Note_on_c, 0, 64, 127
2, 10527, Note_on_c, 0, 53, 112
2, 10527, Note_on_c, 0, 57, 125
2, 10527, Note_on_c, 0, 91, 127
2, 10527, Note_on_c, 0, 79, 127
2, 10528, Control_c, 0, 64, 0
2, 10555, Note_off_c, 0, 91, 0
2, 10559, Note_off_c, 0, 79, 0
2, 10568, Note_off_c, 0, 64, 0
2, 10570, Note_off_c, 0, 53, 0
2, 10571, Note_off_c, 0, 57, 0
2, 10572, Note_off_c, 0, 60, 0
2, 10575, Control_c, 0, 64, 127
2, 10600, Note_on_c, 0, 88, 123
2, 10601, Note_on_c, 0, 76, 110
2, 10603, Note_on_c, 0, 60, 71
2, 10603, Note_on_c, 0, 53, 65
2, 10605, Note_on_c, 0, 64, 71
2, 10607, Note_on_c, 0, 57, 79
2, 10628, Note_on_c, 0, 88, 0
2, 10641, Note_on_c, 0, 76, 0
2, 10648, Note_on_c, 0, 64, 0
2, 10651, Note_on_c, 0, 60, 0
2, 10651, Note_on_c, 0, 57, 0
2, 10654, Note_on_c, 0, 53, 0
2, 10671, Control_c, 0, 64, 0
2, 10682, Note_on_c, 0, 84, 110
2, 10683, Note_on_c, 0, 53, 73
2, 10686, Note_on_c, 0, 60, 73
2, 10687, Note_on_c, 0, 64, 61
2, 10687, Note_on_c, 0, 57, 77
2, 10687, Note_on_c, 0, 72, 110
2, 10693, Control_c, 0, 64, 127
2, 10706, Note_off_c, 0, 84, 0
2, 10717, Note_off_c, 0, 72, 0
2, 10718, Note_off_c, 0, 64, 0
2, 10722, Note_off_c, 0, 60, 0
2, 10724, Note_off_c, 0, 57, 0
2, 10731, Note_off_c, 0, 53, 0
2, 10764, Note_on_c, 0, 81, 104
2, 10765, Note_on_c, 0, 69, 104
2, 10769, Note_on_c, 0, 53, 57
2, 10771, Note_on_c, 0, 64, 61
2, 10771, Note_on_c, 0, 57, 75
2, 10772, Note_on_c, 0, 60, 82
2, 10772, Control_c, 0, 64, 0
2, 10816, Control_c, 0, 64, 127
2, 10857, Note_off_c, 0, 69, 0
2, 10884, Note_off_c, 0, 81, 0
2, 10891, Note_off_c, 0, 64, 0
2, 10893, Note_off_c, 0, 53, 0
2, 10893, Note_off_c, 0, 60, 0
2, 10896, Note_off_c, 0, 57, 0
2, 10908, Control_c, 0, 64, 0
2, 10929, Control_c, 0, 64, 127
2, 10945, Note_on_c, 0, 94, 127
2, 10946, Note_on_c, 0, 82, 127
2, 10947, Note_on_c, 0, 67, 127
2, 10947, Note_on_c, 0, 63, 127
2, 10947, Note_on_c, 0, 56, 127
2, 10948, Note_on_c, 0, 60, 127
2, 11000, Control_c, 0, 64, 0
2, 11001, Note_off_c, 0, 94, 0
2, 11006, Note_off_c, 0, 82, 0
2, 11007, Note_off_c, 0, 56, 0
2, 11007, Note_off_c, 0, 67, 0
2, 11015, Note_off_c, 0, 60, 0
2, 11022, Note_off_c, 0, 63, 0
2, 11028, Note_on_c, 0, 67, 116
2, 11029, Note_on_c, 0, 63, 51
2, 11030, Note_on_c, 0, 56, 100
2, 11030, Note_on_c, 0, 91, 127
2, 11032, Note_on_c, 0, 60, 127
2, 11033, Note_on_c, 0, 79, 108
2, 11038, Note_on_c, 0, 87, 71
2, 11043, Control_c, 0, 64, 127
2, 11055, Note_off_c, 0, 87, 0
2, 11071, Note_off_c, 0, 91, 0
2, 11080, Note_off_c, 0, 79, 0
2, 11081, Note_off_c, 0, 67, 0
2, 11084, Note_off_c, 0, 60, 0
2, 11084, Note_off_c, 0, 56, 0
2, 11088, Note_off_c, 0, 63, 0
2, 11103, Note_on_c, 0, 89, 125
2, 11106, Note_on_c, 0, 56, 100
2, 11106, Note_on_c, 0, 77, 104
2, 11106, Note_on_c, 0, 67, 65
2, 11107, Note_on_c, 0, 63, 102
2, 11110, Note_on_c, 0, 60, 108
2, 11132, Note_on_c, 0, 89, 0
2, 11141, Note_on_c, 0, 77, 0
2, 11143, Note_on_c, 0, 67, 0
2, 11148, Note_on_c, 0, 56, 0
2, 11148, Note_on_c, 0, 60, 0
2, 11151, Note_on_c, 0, 63, 0
2, 11165, Control_c, 0, 64, 0
2, 11172, Note_on_c, 0, 87, 123
2, 11175, Note_on_c, 0, 63, 86
2, 11178, Note_on_c, 0, 75, 75
2, 11178, Note_on_c, 0, 56, 88
2, 11179, Note_on_c, 0, 67, 79
2, 11179, Note_on_c, 0, 60, 92
2, 11183, Control_c, 0, 64, 127
2, 11183, Note_on_c, 0, 82, 65
2, 11216, Note_on_c, 0, 82, 0
2, 11220, Note_on_c, 0, 87, 0
2, 11223, Note_on_c, 0, 67, 0
2, 11223, Note_on_c, 0, 56, 0
2, 11230, Note_on_c, 0, 75, 0
2, 11234, Note_on_c, 0, 60, 0
2, 11241, Note_on_c, 0, 63, 0
2, 11252, Note_on_c, 0, 86, 116
2, 11253, Note_on_c, 0, 74, 98
2, 11254, Control_c, 0, 64, 0
2, 11255, Note_on_c, 0, 67, 77
2, 11256, Note_on_c, 0, 62, 98
2, 11257, Note_on_c, 0, 60, 82
2, 11260, Note_on_c, 0, 56, 61
2, 11300, Control_c, 0, 64, 127
2, 11348, Note_off_c, 0, 67, 0
2, 11360, Note_off_c, 0, 62, 0
2, 11369, Note_off_c, 0, 60, 0
2, 11375, Note_off_c, 0, 74, 0
2, 11386, Note_on_c, 0, 62, 71
2, 11392, Note_on_c, 0, 60, 34
2, 11395, Note_on_c, 0, 86, 0
2, 11396, Note_on_c, 0, 79, 73
2, 11410, Note_on_c, 0, 62, 0
2, 11415, Note_on_c, 0, 60, 0
2, 11435, Note_on_c, 0, 56, 0
2, 11476, Note_on_c, 0, 79, 0
2, 11482, Note_on_c, 0, 59, 88
2, 11483, Note_on_c, 0, 64, 77
2, 11484, Note_on_c, 0, 57, 79
2, 11486, Note_on_c, 0, 60, 100
2, 11494, Control_c, 0, 64, 0
2, 11658, Note_on_c, 0, 76, 127
2, 11674, Note_on_c, 0, 76, 0
2, 11676, Note_on_c, 0, 77, 98
2, 11680, Note_on_c, 0, 64, 0
2, 11684, Note_on_c, 0, 59, 0
2, 11692, Note_on_c, 0, 60, 0
2, 11700, Note_on_c, 0, 77, 0
2, 11700, Note_on_c, 0, 76, 96
2, 11735, Note_on_c, 0, 76, 0
2, 11740, Note_on_c, 0, 75, 106
2, 11754, Note_on_c, 0, 75, 0
2, 11760, Note_on_c, 0, 64, 49
2, 11764, Note_on_c, 0, 60, 65
2, 11780, Note_on_c, 0, 76, 123
2, 11790, Note_on_c, 0, 64, 0
2, 11794, Note_on_c, 0, 60, 0
2, 11814, Control_c, 0, 64, 127
2, 11854, Note_off_c, 0, 76, 0
2, 11855, Note_on_c, 0, 72, 102
2, 11858, Note_on_c, 0, 64, 65
2, 11860, Note_on_c, 0, 60, 67
2, 11865, Control_c, 0, 64, 0
2, 11889, Control_c, 0, 64, 127
2, 11904, Note_off_c, 0, 57, 0
2, 11908, Note_off_c, 0, 60, 0
2, 11937, Note_off_c, 0, 64, 0
2, 11980, Note_off_c, 0, 72, 0
2, 12106, Control_c, 0, 64, 0
2, 12118, Note_on_c, 0, 66, 90
2, 12121, Note_on_c, 0, 76, 104
2, 12121, Note_on_c, 0, 62, 67
2, 12121, Note_on_c, 0, 73, 118
2, 12123, Note_on_c, 0, 64, 69
2, 12124, Note_on_c, 0, 69, 123
2, 12138, Control_c, 0, 64, 127
2, 12165, Note_off_c, 0, 64, 0
2, 12168, Note_off_c, 0, 76, 0
2, 12179, Note_off_c, 0, 62, 0
2, 12184, Note_off_c, 0, 69, 0
2, 12191, Note_off_c, 0, 66, 0
2, 12199, Note_on_c, 0, 79, 127
2, 12223, Note_on_c, 0, 79, 0
2, 12225, Note_on_c, 0, 73, 0
2, 12237, Control_c, 0, 64, 0
2, 12242, Note_on_c, 0, 62, 71
2, 12243, Note_on_c, 0, 76, 96
2, 12245, Note_on_c, 0, 56, 73
2, 12247, Note_on_c, 0, 67, 49
2, 12248, Note_on_c, 0, 72, 82
2, 12290, Control_c, 0, 64, 127
2, 12342, Note_off_c, 0, 67, 0
2, 12344, Note_off_c, 0, 62, 0
2, 12374, Note_off_c, 0, 56, 0
2, 12386, Note_off_c, 0, 72, 0
2, 12391, Note_off_c, 0, 76, 0
2, 12454, Note_on_c, 0, 56, 59
2, 12468, Note_on_c, 0, 56, 0
2, 12473, Note_on_c, 0, 58, 116
2, 12478, Note_on_c, 0, 71, 127
2, 12480, Control_c, 0, 64, 0
2, 12481, Note_on_c, 0, 60, 127
2, 12485, Note_on_c, 0, 59, 127
2, 12486, Note_on_c, 0, 64, 127
2, 12490, Note_on_c, 0, 68, 98
2, 12498, Note_on_c, 0, 58, 0
2, 12538, Note_on_c, 0, 58, 53
2, 12552, Note_on_c, 0, 68, 0
2, 12557, Note_on_c, 0, 64, 0
2, 12559, Note_on_c, 0, 60, 0
2, 12560, Note_on_c, 0, 59, 0
2, 12562, Control_c, 0, 64, 127
2, 12564, Note_off_c, 0, 58, 0
2, 12568, Note_on_c, 0, 57, 90
2, 12583, Note_on_c, 0, 71, 0
2, 12598, Control_c, 0, 64, 0
2, 12601, Note_off_c, 0, 57, 0
2, 12602, Note_on_c, 0, 56, 112
2, 12605, Note_on_c, 0, 60, 82
2, 12610, Note_on_c, 0, 64, 75
2, 12610, Note_on_c, 0, 68, 75
2, 12659, Note_on_c, 0, 64, 0
2, 12664, Note_on_c, 0, 60, 0
2, 12676, Note_on_c, 0, 68, 0
2, 12683, Note_on_c, 0, 56, 0
2, 12686, Note_on_c, 0, 71, 116
2, 12687, Note_on_c, 0, 59, 118
2, 12687, Control_c, 0, 64, 127
2, 12689, Note_on_c, 0, 60, 94
2, 12690, Note_on_c, 0, 64, 112
2, 12696, Note_on_c, 0, 68, 47
2, 12704, Note_on_c, 0, 68, 0
2, 12718, Control_c, 0, 64, 0
2, 12719, Note_off_c, 0, 60, 0
2, 12724, Note_off_c, 0, 64, 0
2, 12727, Note_off_c, 0, 71, 0
2, 12729, Note_off_c, 0, 59, 0
2, 12741, Note_on_c, 0, 57, 77
2, 12742, Note_on_c, 0, 69, 96
2, 12747, Note_on_c, 0, 60, 34
2, 12750, Note_on_c, 0, 64, 45
2, 12758, Control_c, 0, 64, 127
2, 12774, Note_off_c, 0, 57, 0
2, 12776, Note_off_c, 0, 64, 0
2, 12782, Note_off_c, 0, 60, 0
2, 12805, Note_off_c, 0, 69, 0
2, 12809, Note_on_c, 0, 64, 94
2, 12811, Note_on_c, 0, 60, 86
2, 12813, Note_on_c, 0, 52, 69
2, 12824, Control_c, 0, 64, 0
2, 12853, Control_c, 0, 64, 127
2, 12870, Note_off_c, 0, 52, 0
2, 12872, Note_off_c, 0, 60, 0
2, 12877, Note_off_c, 0, 64, 0
2, 12952, Control_c, 0, 64, 0
2, 12954, Note_on_c, 0, 54, 94
2, 12954, Note_on_c, 0, 69, 98
2, 12956, Note_on_c, 0, 66, 86
2, 12957, Note_on_c, 0, 74, 90
2, 12960, Note_on_c, 0, 60, 61
2, 12962, Note_on_c, 0, 62, 34
2, 13001, Control_c, 0, 64, 127
2, 13010, Note_off_c, 0, 62, 0
2, 13011, Note_off_c, 0, 60, 0
2, 13023, Note_off_c, 0, 66, 0
2, 13024, Note_off_c, 0, 54, 0
2, 13027, Note_off_c, 0, 69, 0
2, 13037, Note_off_c, 0, 74, 0
2, 13082, Note_on_c, 0, 79, 127
2, 13115, Note_on_c, 0, 79, 0
2, 13162, Note_on_c, 0, 86, 127
2, 13204, Note_on_c, 0, 86, 0
2, 13221, Control_c, 0, 64, 0
2, 13222, Note_on_c, 0, 48, 61
2, 13225, Note_on_c, 0, 41, 69
2, 13225, Note_on_c, 0, 75, 127
2, 13226, Note_on_c, 0, 83, 127
2, 13228, Note_on_c, 0, 57, 102
2, 13254, Control_c, 0, 64, 127
2, 13269, Note_off_c, 0, 83, 0
2, 13270, Note_off_c, 0, 75, 0
2, 13308, Note_off_c, 0, 41, 0
2, 13313, Note_off_c, 0, 48, 0
2, 13316, Note_on_c, 0, 79, 116
2, 13317, Note_on_c, 0, 71, 82
2, 13323, Note_on_c, 0, 75, 92
2, 13332, Note_on_c, 0, 57, 0
2, 13348, Note_on_c, 0, 79, 0
2, 13348, Note_on_c, 0, 71, 0
2, 13357, Note_on_c, 0, 75, 0
2, 13403, Note_on_c, 0, 79, 82
2, 13407, Note_on_c, 0, 74, 108
2, 13407, Note_on_c, 0, 67, 92
2, 13411, Note_on_c, 0, 62, 63
2, 13412, Note_on_c, 0, 59, 69
2, 13412, Note_on_c, 0, 52, 75
2, 13415, Control_c, 0, 64, 0
2, 13417, Note_on_c, 0, 55, 69
2, 13461, Control_c, 0, 64, 127
2, 13557, Note_off_c, 0, 52, 0
2, 13562, Note_off_c, 0, 55, 0
2, 13565, Note_off_c, 0, 59, 0
2, 13574, Note_off_c, 0, 67, 0
2, 13575, Note_off_c, 0, 62, 0
2, 13591, Note_off_c, 0, 74, 0
2, 13610, Note_off_c, 0, 79, 0
2, 13694, Note_on_c, 0, 84, 127
2, 13695, Note_on_c, 0, 61, 127
2, 13695, Control_c, 0, 64, 0
2, 13696, Note_on_c, 0, 58, 127
2, 13696, Note_on_c, 0, 65, 127
2, 13696, Note_on_c, 0, 72, 127
2, 13697, Note_on_c, 0, 55, 127
2, 13697, Note_on_c, 0, 81, 127
2, 13697, Note_on_c, 0, 77, 127
2, 13757, Note_on_c, 0, 72, 0
2, 13758, Note_on_c, 0, 55, 0
2, 13759, Note_on_c, 0, 77, 0
2, 13760, Note_on_c, 0, 84, 0
2, 13761, Note_on_c, 0, 65, 0
2, 13766, Note_on_c, 0, 81, 0
2, 13766, Note_on_c, 0, 61, 0
2, 13767, Note_on_c, 0, 58, 0
2, 13778, Note_on_c, 0, 84, 123
2, 13779, Note_on_c, 0, 55, 125
2, 13780, Note_on_c, 0, 65, 127
2, 13780, Note_on_c, 0, 61, 127
2, 13781, Note_on_c, 0, 77, 125
2, 13782, Note_on_c, 0, 58, 127
2, 13783, Note_on_c, 0, 81, 96
2, 13784, Note_on_c, 0, 72, 112
2, 13793, Note_on_c, 0, 72, 0
2, 13793, Note_on_c, 0, 81, 0
2, 13798, Note_on_c, 0, 84, 0
2, 13799, Note_on_c, 0, 65, 0
2, 13802, Note_on_c, 0, 77, 0
2, 13806, Note_on_c, 0, 55, 0
2, 13811, Note_on_c, 0, 61, 0
2, 13819, Note_on_c, 0, 55, 69
2, 13823, Note_on_c, 0, 65, 102
2, 13824, Note_on_c, 0, 61, 71
2, 13826, Note_on_c, 0, 81, 114
2, 13830, Control_c, 0, 64, 127
2, 13834, Note_on_c, 0, 69, 71
2, 13847, Note_on_c, 0, 65, 0
2, 13849, Note_on_c, 0, 69, 0
2, 13851, Note_on_c, 0, 55, 0
2, 13860, Note_on_c, 0, 81, 0
2, 13869, Note_on_c, 0, 58, 0
2, 13870, Note_on_c, 0, 61, 0
2, 13901, Note_on_c, 0, 84, 127
2, 13902, Note_on_c, 0, 55, 100
2, 13902, Note_on_c, 0, 81, 127
2, 13904, Note_on_c, 0, 72, 102
2, 13904, Note_on_c, 0, 57, 120
2, 13905, Note_on_c, 0, 60, 114
2, 13905, Control_c, 0, 64, 0
2, 13906, Note_on_c, 0, 65, 102
2, 13906, Note_on_c, 0, 77, 98
2, 13961, Control_c, 0, 64, 127
2, 14010, Note_off_c, 0, 65, 0
2, 14012, Note_off_c, 0, 60, 0
2, 14024, Note_off_c, 0, 84, 0
2, 14027, Note_off_c, 0, 55, 0
2, 14031, Note_off_c, 0, 57, 0
2, 14033, Note_off_c, 0, 81, 0
2, 14040, Note_off_c, 0, 77, 0
2, 14044, Note_off_c, 0, 72, 0
2, 14165, Note_on_c, 0, 55, 127
2, 14248, Note_on_c, 0, 69, 127
2, 14248, Note_on_c, 0, 43, 118
2, 14252, Note_on_c, 0, 64, 127
2, 14252, Note_on_c, 0, 59, 127
2, 14258, Control_c, 0, 64, 0
2, 14281, Note_off_c, 0, 59, 0
2, 14283, Note_off_c, 0, 69, 0
2, 14285, Note_off_c, 0, 55, 0
2, 14288, Note_off_c, 0, 64, 0
2, 14298, Control_c, 0, 64, 127
2, 14317, Note_on_c, 0, 71, 127
2, 14319, Note_on_c, 0, 55, 118
2, 14322, Note_on_c, 0, 59, 104
2, 14331, Note_on_c, 0, 59, 0
2, 14352, Note_on_c, 0, 71, 0
2, 14361, Note_on_c, 0, 55, 0
2, 14393, Note_on_c, 0, 72, 127
2, 14394, Note_on_c, 0, 62, 127
2, 14394, Note_on_c, 0, 67, 127
2, 14402, Control_c, 0, 64, 0
2, 14403, Note_on_c, 0, 52, 79
2, 14449, Note_on_c, 0, 43, 0
2, 14459, Control_c, 0, 64, 127
2, 14491, Note_on_c, 0, 43, 127
2, 14551, Note_on_c, 0, 72, 0
2, 14558, Note_on_c, 0, 67, 0
2, 14585, Note_on_c, 0, 62, 0
2, 14644, Note_on_c, 0, 67, 90
2, 14652, Note_on_c, 0, 62, 59
2, 14653, Note_on_c, 0, 57, 45
2, 14669, Note_on_c, 0, 52, 0
2, 14731, Note_on_c, 0, 55, 127
2, 14746, Control_c, 0, 64, 0
2, 14776, Control_c, 0, 64, 127
2, 14826, Note_off_c, 0, 57, 0
2, 14852, Note_off_c, 0, 62, 0
2, 14857, Note_off_c, 0, 67, 0
2, 14878, Note_on_c, 0, 67, 106
2, 14882, Note_on_c, 0, 62, 73
2, 14884, Note_on_c, 0, 57, 75
2, 14939, Note_on_c, 0, 43, 0
2, 14942, Note_on_c, 0, 55, 0
2, 14945, Note_on_c, 0, 57, 0
2, 14966, Note_on_c, 0, 57, 127
2, 14984, Control_c, 0, 64, 0
2, 15016, Control_c, 0, 64, 127
2, 15087, Note_off_c, 0, 62, 0
2, 15088, Note_off_c, 0, 67, 0
2, 15114, Control_c, 0, 64, 0
2, 15117, Note_on_c, 0, 67, 73
2, 15122, Note_on_c, 0, 62, 69
2, 15149, Control_c, 0, 64, 127
2, 15200, Note_on_c, 0, 56, 77
2, 15217, Note_on_c, 0, 62, 0
2, 15218, Note_on_c, 0, 57, 0
2, 15218, Control_c, 0, 64, 0
2, 15228, Note_off_c, 0, 67, 0
2, 15232, Note_off_c, 0, 56, 0
2, 15243, Note_on_c, 0, 55, 90
2, 15255, Control_c, 0, 64, 127
2, 15344, Note_off_c, 0, 55, 0
2, 15356, Control_c, 0, 64, 0
2, 15358, Note_on_c, 0, 72, 127
2, 15361, Note_on_c, 0, 54, 69
2, 15478, Control_c, 0, 64, 127
2, 15503, Note_off_c, 0, 54, 0
2, 15521, Note_off_c, 0, 72, 0
2, 15528, Note_on_c, 0, 69, 110
2, 15542, Note_on_c, 0, 69, 0
2, 15568, Note_on_c, 0, 72, 96
2, 15587, Note_on_c, 0, 72, 0
2, 15593, Control_c, 0, 64, 0
2, 15603, Note_on_c, 0, 47, 63
2, 15605, Note_on_c, 0, 57, 55
2, 15610, Note_on_c, 0, 71, 90
2, 15659, Note_on_c, 0, 71, 0
2, 15678, Note_on_c, 0, 69, 123
2, 15695, Note_on_c, 0, 69, 0
2, 15725, Note_on_c, 0, 67, 90
2, 15729, Note_on_c, 0, 47, 0
2, 15747, Note_on_c, 0, 67, 0
2, 15792, Note_on_c, 0, 57, 0
2, 15799, Note_on_c, 0, 66, 94
2, 15821, Note_on_c, 0, 66, 0
2, 15839, Note_on_c, 0, 52, 73
2, 15841, Note_on_c, 0, 59, 51
2, 15843, Note_on_c, 0, 69, 102
2, 15846, Note_on_c, 0, 55, 59
2, 15903, Note_on_c, 0, 69, 0
2, 15921, Note_on_c, 0, 66, 73
2, 15939, Note_on_c, 0, 52, 0
2, 15945, Note_on_c, 0, 59, 0
2, 15946, Note_on_c, 0, 66, 0
2, 15955, Note_on_c, 0, 55, 0
2, 15961, Note_on_c, 0, 67, 84
2, 16087, Control_c, 0, 64, 127
2, 16123, Note_on_c, 0, 69, 123
2, 16126, Note_on_c, 0, 67, 0
2, 16148, Note_on_c, 0, 69, 0
2, 16162, Note_on_c, 0, 70, 127
2, 16188, Note_on_c, 0, 70, 0
2, 16192, Control_c, 0, 64, 0
2, 16194, Note_on_c, 0, 61, 108
2, 16196, Note_on_c, 0, 66, 94
2, 16196, Note_on_c, 0, 55, 100
2, 16207, Note_on_c, 0, 72, 96
2, 16227, Note_on_c, 0, 55, 0
2, 16228, Note_on_c, 0, 72, 0
2, 16244, Note_on_c, 0, 73, 127
2, 16246, Note_on_c, 0, 66, 0
2, 16267, Note_on_c, 0, 73, 0
2, 16269, Note_on_c, 0, 61, 0
2, 16280, Note_on_c, 0, 75, 127
2, 16281, Note_on_c, 0, 73, 114
2, 16285, Note_on_c, 0, 64, 110
2, 16287, Note_on_c, 0, 60, 108
2, 16287, Note_on_c, 0, 53, 104
2, 16290, Note_on_c, 0, 57, 96
2, 16292, Note_on_c, 0, 73, 0
2, 16312, Note_on_c, 0, 75, 0
2, 16326, Note_on_c, 0, 76, 127
2, 16351, Note_on_c, 0, 76, 0
2, 16366, Note_on_c, 0, 79, 127
2, 16402, Note_on_c, 0, 76, 127
2, 16408, Note_on_c, 0, 79, 0
2, 16431, Note_on_c, 0, 76, 0
2, 16445, Note_on_c, 0, 77, 127
2, 16470, Note_on_c, 0, 64, 0
2, 16476, Note_on_c, 0, 77, 0
2, 16480, Note_on_c, 0, 53, 0
2, 16484, Note_on_c, 0, 72, 106
2, 16486, Note_on_c, 0, 60, 0
2, 16487, Note_on_c, 0, 57, 0
2, 16506, Control_c, 0, 64, 127
2, 16516, Note_off_c, 0, 72, 0
2, 16529, Note_on_c, 0, 69, 98
2, 16545, Control_c, 0, 64, 0
2, 16554, Note_off_c, 0, 69, 0
2, 16635, Note_on_c, 0, 63, 61
2, 16641, Note_on_c, 0, 60, 79
2, 16646, Note_on_c, 0, 57, 69
2, 16646, Note_on_c, 0, 54, 57
2, 16689, Control_c, 0, 64, 127
2, 16723, Note_off_c, 0, 57, 0
2, 16724, Note_off_c, 0, 60, 0
2, 16759, Note_off_c, 0, 54, 0
2, 16764, Note_off_c, 0, 63, 0
2, 16799, Control_c, 0, 64, 0
2, 16821, Control_c, 0, 64, 127
2, 16878, Control_c, 0, 64, 0
2, 16879, Note_on_c, 0, 79, 102
2, 16881, Note_on_c, 0, 62, 67
2, 16883, Note_on_c, 0, 74, 108
2, 16884, Note_on_c, 0, 55, 90
2, 16884, Note_on_c, 0, 67, 86
2, 16884, Note_on_c, 0, 59, 75
2, 16885, Note_on_c, 0, 52, 65
2, 16906, Control_c, 0, 64, 127
2, 16918, Note_off_c, 0, 67, 0
2, 16919, Note_off_c, 0, 52, 0
2, 16923, Note_off_c, 0, 62, 0
2, 16928, Note_off_c, 0, 55, 0
2, 16929, Note_off_c, 0, 74, 0
2, 16930, Note_off_c, 0, 59, 0
2, 16935, Note_off_c, 0, 79, 0
2, 17006, Note_on_c, 0, 83, 127
2, 17008, Note_on_c, 0, 71, 127
2, 17012, Note_on_c, 0, 62, 127
2, 17012, Note_on_c, 0, 55, 127
2, 17013, Note_on_c, 0, 59, 127
2, 17017, Note_on_c, 0, 52, 75
2, 17020, Note_on_c, 0, 59, 0
2, 17021, Note_on_c, 0, 62, 0
2, 17022, Note_on_c, 0, 71, 0
2, 17025, Note_on_c, 0, 52, 0
2, 17025, Note_on_c, 0, 55, 0
2, 17029, Note_on_c, 0, 83, 0
2, 17033, Control_c, 0, 64, 0
2, 17050, Note_on_c, 0, 62, 127
2, 17051, Note_on_c, 0, 86, 127
2, 17051, Note_on_c, 0, 55, 127
2, 17052, Note_on_c, 0, 59, 127
2, 17053, Note_on_c, 0, 52, 127
2, 17053, Note_on_c, 0, 74, 127
2, 17066, Note_on_c, 0, 62, 0
2, 17067, Note_on_c, 0, 74, 0
2, 17068, Note_on_c, 0, 59, 0
2, 17071, Note_on_c, 0, 86, 0
2, 17085, Note_on_c, 0, 62, 98
2, 17087, Control_c, 0, 64, 127
2, 17089, Note_on_c, 0, 59, 102
2, 17090, Note_on_c, 0, 86, 123
2, 17094, Note_on_c, 0, 74, 116
2, 17106, Note_on_c, 0, 74, 0
2, 17107, Note_on_c, 0, 86, 0
2, 17108, Note_on_c, 0, 62, 0
2, 17111, Note_on_c, 0, 59, 0
2, 17111, Note_on_c, 0, 52, 0
2, 17114, Note_on_c, 0, 55, 0
2, 17148, Note_on_c, 0, 67, 127
2, 17148, Note_on_c, 0, 79, 118
2, 17153, Note_on_c, 0, 78, 75
2, 17155, Note_on_c, 0, 62, 77
2, 17156, Note_on_c, 0, 55, 98
2, 17156, Control_c, 0, 64, 0
2, 17157, Note_on_c, 0, 59, 73
2, 17158, Note_on_c, 0, 52, 69
2, 17161, Note_on_c, 0, 78, 0
2, 17163, Note_on_c, 0, 62, 0
2, 17163, Note_on_c, 0, 67, 0
2, 17165, Note_on_c, 0, 79, 0
2, 17166, Note_on_c, 0, 55, 0
2, 17166, Note_on_c, 0, 59, 0
2, 17167, Note_on_c, 0, 52, 0
2, 17187, Control_c, 0, 64, 127
2, 17197, Note_on_c, 0, 59, 82
2, 17197, Note_on_c, 0, 62, 63
2, 17198, Note_on_c, 0, 79, 127
2, 17199, Note_on_c, 0, 55, 86
2, 17200, Note_on_c, 0, 67, 110
2, 17207, Note_on_c, 0, 67, 0
2, 17207, Note_on_c, 0, 59, 0
2, 17207, Note_on_c, 0, 62, 0
2, 17209, Note_on_c, 0, 55, 0
2, 17212, Note_on_c, 0, 79, 0
2, 17216, Control_c, 0, 64, 0
2, 17222, Control_c, 0, 64, 127
2, 17240, Note_on_c, 0, 59, 116
2, 17240, Note_on_c, 0, 52, 98
2, 17240, Note_on_c, 0, 55, 108
2, 17240, Note_on_c, 0, 62, 104
2, 17240, Note_on_c, 0, 83, 127
2, 17242, Note_on_c, 0, 71, 127
2, 17250, Note_on_c, 0, 62, 0
2, 17251, Note_on_c, 0, 52, 0
2, 17257, Note_on_c, 0, 71, 0
2, 17258, Note_on_c, 0, 59, 0
2, 17259, Note_on_c, 0, 83, 0
2, 17261, Note_on_c, 0, 55, 0
2, 17278, Note_on_c, 0, 83, 125
2, 17282, Note_on_c, 0, 71, 120
2, 17284, Note_on_c, 0, 59, 59
2, 17285, Note_on_c, 0, 52, 75
2, 17285, Note_on_c, 0, 55, 104
2, 17291, Note_on_c, 0, 71, 0
2, 17293, Note_on_c, 0, 55, 0
2, 17293, Note_on_c, 0, 59, 0
2, 17294, Note_on_c, 0, 52, 0
2, 17295, Note_on_c, 0, 83, 0
2, 17310, Control_c, 0, 64, 0
2, 17327, Note_on_c, 0, 62, 86
2, 17329, Note_on_c, 0, 52, 77
2, 17334, Note_on_c, 0, 67, 63
2, 17335, Note_on_c, 0, 79, 57
2, 17336, Note_on_c, 0, 62, 0
2, 17338, Note_on_c, 0, 52, 0
2, 17342, Note_on_c, 0, 67, 0
2, 17343, Note_on_c, 0, 79, 0
2, 17396, Control_c, 0, 64, 127
2, 17407, Control_c, 0, 64, 0
2, 17423, Note_on_c, 0, 82, 127
2, 17423, Note_on_c, 0, 70, 127
2, 17424, Note_on_c, 0, 62, 127
2, 17425, Note_on_c, 0, 58, 98
2, 17426, Note_on_c, 0, 52, 116
2, 17432, Note_on_c, 0, 62, 0
2, 17435, Note_on_c, 0, 58, 0
2, 17435, Note_on_c, 0, 52, 0
2, 17438, Note_on_c, 0, 70, 0
2, 17445, Note_on_c, 0, 82, 0
2, 17453, Control_c, 0, 64, 127
2, 17500, Note_on_c, 0, 79, 127
2, 17502, Note_on_c, 0, 67, 120
2, 17504, Control_c, 0, 64, 0
2, 17504, Note_on_c, 0, 62, 88
2, 17504, Note_on_c, 0, 52, 104
2, 17504, Note_on_c, 0, 58, 96
2, 17536, Note_on_c, 0, 62, 0
2, 17537, Note_on_c, 0, 52, 0
2, 17539, Note_on_c, 0, 58, 0
2, 17540, Control_c, 0, 64, 127
2, 17542, Note_off_c, 0, 67, 0
2, 17551, Note_off_c, 0, 79, 0
2, 17556, Note_on_c, 0, 52, 53
2, 17559, Note_on_c, 0, 62, 77
2, 17560, Note_on_c, 0, 76, 90
2, 17561, Note_on_c, 0, 58, 71
2, 17604, Note_on_c, 0, 62, 0
2, 17629, Control_c, 0, 64, 0
2, 17645, Control_c, 0, 64, 127
2, 17647, Note_on_c, 0, 67, 86
2, 17649, Note_on_c, 0, 62, 88
2, 17655, Note_on_c, 0, 52, 0
2, 17669, Note_on_c, 0, 58, 0
2, 17688, Note_on_c, 0, 76, 0
2, 17692, Note_on_c, 0, 62, 0
2, 17711, Note_on_c, 0, 67, 0
2, 17722, Note_on_c, 0, 73, 116
2, 17725, Note_on_c, 0, 55, 86
2, 17731, Note_on_c, 0, 61, 90
2, 17733, Note_on_c, 0, 65, 75
2, 17738, Control_c, 0, 64, 0
2, 17784, Control_c, 0, 64, 127
2, 17884, Note_off_c, 0, 55, 0
2, 17901, Note_off_c, 0, 65, 0
2, 17905, Note_off_c, 0, 61, 0
2, 17957, Note_on_c, 0, 67, 125
2, 17958, Control_c, 0, 64, 0
2, 17959, Note_on_c, 0, 62, 114
2, 17960, Note_on_c, 0, 56, 94
2, 17991, Note_on_c, 0, 67, 0
2, 17996, Note_on_c, 0, 62, 0
2, 18006, Note_on_c, 0, 56, 0
2, 18028, Note_on_c, 0, 66, 108
2, 18028, Note_on_c, 0, 55, 110
2, 18032, Control_c, 0, 64, 127
2, 18035, Note_on_c, 0, 61, 69
2, 18080, Note_on_c, 0, 55, 0
2, 18090, Note_on_c, 0, 66, 0
2, 18101, Note_on_c, 0, 61, 0
2, 18106, Control_c, 0, 64, 0
2, 18125, Note_on_c, 0, 61, 75
2, 18127, Note_on_c, 0, 65, 94
2, 18130, Control_c, 0, 64, 127
2, 18130, Note_on_c, 0, 55, 94
2, 18159, Note_on_c, 0, 55, 0
2, 18163, Note_on_c, 0, 65, 0
2, 18187, Note_on_c, 0, 61, 0
2, 18205, Note_on_c, 0, 73, 0
2, 18205, Note_on_c, 0, 64, 90
2, 18208, Note_on_c, 0, 60, 92
2, 18209, Note_on_c, 0, 53, 75
2, 18209, Note_on_c, 0, 57, 98
2, 18213, Control_c, 0, 64, 0
2, 18265, Control_c, 0, 64, 127
2, 18350, Note_off_c, 0, 64, 0
2, 18372, Control_c, 0, 64, 0
2, 18376, Note_off_c, 0, 60, 0
2, 18403, Note_on_c, 0, 61, 114
2, 18425, Note_on_c, 0, 61, 0
2, 18437, Note_on_c, 0, 64, 127
2, 18465, Note_on_c, 0, 64, 0
2, 18465, Control_c, 0, 64, 127
2, 18474, Note_on_c, 0, 61, 104
2, 18487, Control_c, 0, 64, 0
2, 18504, Note_off_c, 0, 61, 0
2, 18511, Note_on_c, 0, 62, 63
2, 18566, Note_on_c, 0, 62, 0
2, 18579, Note_on_c, 0, 63, 114
2, 18609, Note_on_c, 0, 63, 0
2, 18623, Note_on_c, 0, 64, 100
2, 18640, Note_on_c, 0, 57, 0
2, 18645, Note_on_c, 0, 53, 0
2, 18648, Note_on_c, 0, 64, 0
2, 18658, Note_on_c, 0, 65, 108
2, 18680, Note_on_c, 0, 65, 0
2, 18693, Note_on_c, 0, 67, 127
2, 18697, Control_c, 0, 64, 127
2, 18710, Control_c, 0, 64, 0
2, 18719, Note_off_c, 0, 67, 0
2, 18732, Note_on_c, 0, 68, 127
2, 18733, Note_on_c, 0, 63, 75
2, 18736, Note_on_c, 0, 60, 71
2, 18739, Note_on_c, 0, 56, 59
2, 18740, Note_on_c, 0, 53, 45
2, 18759, Note_on_c, 0, 68, 0
2, 18767, Note_on_c, 0, 65, 96
2, 18802, Note_on_c, 0, 65, 0
2, 18802, Note_on_c, 0, 67, 116
2, 18828, Note_on_c, 0, 67, 0
2, 18834, Note_on_c, 0, 68, 123
2, 18857, Note_on_c, 0, 68, 0
2, 18873, Note_on_c, 0, 70, 67
2, 18881, Note_on_c, 0, 70, 0
2, 18887, Note_on_c, 0, 53, 0
2, 18892, Note_on_c, 0, 60, 0
2, 18901, Note_on_c, 0, 72, 123
2, 18905, Note_on_c, 0, 56, 0
2, 18915, Note_on_c, 0, 72, 0
2, 18921, Control_c, 0, 64, 127
2, 18922, Note_off_c, 0, 63, 0
2, 18928, Note_on_c, 0, 75, 127
2, 18949, Note_on_c, 0, 75, 0
2, 18962, Control_c, 0, 64, 0
2, 18962, Note_on_c, 0, 79, 127
2, 18969, Note_on_c, 0, 63, 67
2, 18971, Note_on_c, 0, 67, 75
2, 18973, Note_on_c, 0, 60, 90
2, 18975, Note_on_c, 0, 56, 65
2, 18992, Note_on_c, 0, 79, 0
2, 18996, Note_on_c, 0, 74, 110
2, 19022, Note_on_c, 0, 74, 0
2, 19029, Note_on_c, 0, 75, 120
2, 19047, Note_on_c, 0, 75, 0
2, 19059, Note_on_c, 0, 77, 118
2, 19088, Note_on_c, 0, 77, 0
2, 19088, Note_on_c, 0, 79, 112
2, 19109, Note_on_c, 0, 79, 0
2, 19122, Note_on_c, 0, 67, 0
2, 19122, Note_on_c, 0, 80, 120
2, 19126, Note_on_c, 0, 60, 0
2, 19134, Note_on_c, 0, 63, 0
2, 19143, Control_c, 0, 64, 127
2, 19145, Note_off_c, 0, 56, 0
2, 19150, Note_off_c, 0, 80, 0
2, 19153, Note_on_c, 0, 82, 123
2, 19183, Note_on_c, 0, 82, 0
2, 19184, Note_on_c, 0, 83, 127
2, 19205, Note_on_c, 0, 83, 0
2, 19206, Control_c, 0, 64, 0
2, 19217, Note_on_c, 0, 60, 92
2, 19217, Note_on_c, 0, 59, 69
2, 19218, Note_on_c, 0, 86, 127
2, 19219, Note_on_c, 0, 64, 63
2, 19245, Note_on_c, 0, 86, 0
2, 19258, Note_on_c, 0, 83, 127
2, 19286, Note_on_c, 0, 83, 0
2, 19313, Note_on_c, 0, 83, 127
2, 19336, Note_on_c, 0, 83, 0
2, 19359, Note_on_c, 0, 83, 127
2, 19374, Control_c, 0, 64, 127
2, 19383, Note_off_c, 0, 83, 0
2, 19398, Note_on_c, 0, 79, 88
2, 19418, Note_on_c, 0, 60, 0
2, 19419, Note_on_c, 0, 59, 0
2, 19420, Note_on_c, 0, 64, 0
2, 19430, Note_on_c, 0, 79, 0
2, 19439, Note_on_c, 0, 76, 104
2, 19508, Note_on_c, 0, 76, 0
2, 19521, Note_on_c, 0, 71, 67
2, 19528, Note_on_c, 0, 60, 88
2, 19529, Note_on_c, 0, 64, 57
2, 19532, Note_on_c, 0, 59, 51
2, 19535, Control_c, 0, 64, 0
2, 19564, Control_c, 0, 64, 127
2, 19566, Note_off_c, 0, 71, 0
2, 19570, Note_off_c, 0, 60, 0
2, 19571, Note_off_c, 0, 59, 0
2, 19572, Note_on_c, 0, 67, 57
2, 19578, Note_on_c, 0, 64, 0
2, 19672, Control_c, 0, 64, 0
2, 19675, Note_off_c, 0, 67, 0
2, 19678, Note_on_c, 0, 64, 71
2, 19679, Note_on_c, 0, 62, 73
2, 19680, Note_on_c, 0, 57, 73
2, 19701, Control_c, 0, 64, 127
2, 19806, Control_c, 0, 64, 0
2, 19823, Note_on_c, 0, 76, 118
2, 19834, Note_on_c, 0, 76, 0
2, 19842, Note_on_c, 0, 77, 127
2, 19862, Note_on_c, 0, 77, 0
2, 19862, Note_on_c, 0, 76, 92
2, 19873, Note_on_c, 0, 76, 0
2, 19879, Note_on_c, 0, 74, 116
2, 19890, Note_on_c, 0, 74, 0
2, 19909, Note_on_c, 0, 76, 104
2, 19926, Note_on_c, 0, 76, 0
2, 19928, Note_on_c, 0, 77, 127
2, 19935, Note_on_c, 0, 62, 0
2, 19938, Note_on_c, 0, 64, 0
2, 19944, Note_on_c, 0, 57, 0
2, 19946, Note_on_c, 0, 77, 0
2, 19948, Note_on_c, 0, 76, 92
2, 19958, Note_on_c, 0, 76, 0
2, 19965, Note_on_c, 0, 74, 106
2, 19976, Note_on_c, 0, 74, 0
2, 19992, Note_on_c, 0, 76, 108
2, 20009, Note_on_c, 0, 76, 0
2, 20019, Note_on_c, 0, 77, 118
2, 20039, Note_on_c, 0, 77, 0
2, 20043, Note_on_c, 0, 67, 45
2, 20045, Note_on_c, 0, 56, 57
2, 20046, Note_on_c, 0, 62, 49
2, 20053, Note_on_c, 0, 76, 127
2, 20106, Control_c, 0, 64, 127
2, 20137, Note_off_c, 0, 67, 0
2, 20141, Note_off_c, 0, 62, 0
2, 20166, Control_c, 0, 64, 0
2, 20167, Note_off_c, 0, 56, 0
2, 20197, Control_c, 0, 64, 127
2, 20248, Note_on_c, 0, 62, 77
2, 20249, Note_on_c, 0, 57, 63
2, 20249, Note_on_c, 0, 58, 73
2, 20250, Note_on_c, 0, 53, 67
2, 20263, Control_c, 0, 64, 0
2, 20308, Note_off_c, 0, 76, 0
2, 20348, Control_c, 0, 64, 127
2, 20356, Note_on_c, 0, 74, 127
2, 20378, Note_on_c, 0, 62, 0
2, 20382, Note_on_c, 0, 74, 0
2, 20382, Note_on_c, 0, 57, 0
2, 20383, Note_on_c, 0, 53, 0
2, 20387, Note_on_c, 0, 69, 127
2, 20396, Note_on_c, 0, 58, 0
2, 20404, Note_on_c, 0, 69, 0
2, 20408, Control_c, 0, 64, 0
2, 20422, Note_on_c, 0, 72, 127
2, 20423, Note_on_c, 0, 58, 73
2, 20423, Note_on_c, 0, 62, 90
2, 20424, Note_on_c, 0, 52, 114
2, 20448, Control_c, 0, 64, 127
2, 20481, Note_off_c, 0, 72, 0
2, 20500, Note_on_c, 0, 70, 127
2, 20502, Note_on_c, 0, 62, 0
2, 20526, Note_on_c, 0, 70, 0
2, 20532, Control_c, 0, 64, 0
2, 20537, Note_off_c, 0, 58, 0
2, 20544, Note_on_c, 0, 66, 108
2, 20559, Note_on_c, 0, 52, 0
2, 20607, Note_on_c, 0, 66, 0
2, 20618, Control_c, 0, 64, 127
2, 20618, Note_on_c, 0, 64, 123
2, 20626, Note_on_c, 0, 52, 59
2, 20633, Note_on_c, 0, 48, 61
2, 20645, Note_on_c, 0, 48, 0
2, 20649, Note_on_c, 0, 64, 0
2, 20650, Control_c, 0, 64, 0
2, 20653, Note_off_c, 0, 52, 0
2, 20673, Note_on_c, 0, 63, 79
2, 20699, Note_on_c, 0, 63, 0
2, 20735, Note_on_c, 0, 61, 127
2, 20737, Note_on_c, 0, 47, 84
2, 20741, Note_on_c, 0, 48, 92
2, 20751, Note_on_c, 0, 47, 0
2, 20765, Note_on_c, 0, 61, 0
2, 20784, Note_on_c, 0, 60, 96
2, 20845, Note_on_c, 0, 60, 0
2, 20849, Control_c, 0, 64, 127
2, 20860, Note_on_c, 0, 55, 98
2, 20875, Note_on_c, 0, 55, 0
2, 20883, Control_c, 0, 64, 0
2, 20902, Note_on_c, 0, 57, 88
2, 20931, Control_c, 0, 64, 127
2, 20952, Note_off_c, 0, 48, 0
2, 20965, Note_off_c, 0, 57, 0
2, 20972, Note_on_c, 0, 60, 127
2, 20978, Note_on_c, 0, 48, 59
2, 20988, Note_on_c, 0, 48, 0
2, 20988, Control_c, 0, 64, 0
2, 20995, Note_off_c, 0, 60, 0
2, 21015, Note_on_c, 0, 52, 96
2, 21023, Control_c, 0, 64, 127
2, 21054, Note_off_c, 0, 52, 0
2, 21089, Note_on_c, 0, 47, 67
2, 21098, Note_on_c, 0, 47, 0
2, 21119, Control_c, 0, 64, 0
2, 21127, Note_on_c, 0, 76, 127
2, 21127, Note_on_c, 0, 74, 127
2, 21128, Note_on_c, 0, 67, 108
2, 21131, Note_on_c, 0, 64, 82
2, 21133, Note_on_c, 0, 71, 84
2, 21133, Note_on_c, 0, 70, 59
2, 21134, Note_on_c, 0, 65, 71
2, 21134, Note_on_c, 0, 69, 75
2, 21142, Note_on_c, 0, 65, 0
2, 21143, Note_on_c, 0, 69, 0
2, 21147, Note_on_c, 0, 71, 0
2, 21149, Note_on_c, 0, 67, 0
2, 21151, Note_on_c, 0, 76, 0
2, 21156, Control_c, 0, 64, 127
2, 21166, Note_off_c, 0, 70, 0
2, 21177, Note_off_c, 0, 64, 0
2, 21179, Note_off_c, 0, 74, 0
2, 21208, Note_on_c, 0, 62, 75
2, 21225, Control_c, 0, 64, 0
2, 21234, Note_off_c, 0, 62, 0
2, 21238, Note_on_c, 0, 76, 127
2, 21240, Note_on_c, 0, 65, 123
2, 21242, Note_on_c, 0, 69, 127
2, 21242, Note_on_c, 0, 71, 96
2, 21245, Note_on_c, 0, 64, 88
2, 21260, Note_on_c, 0, 65, 0
2, 21260, Control_c, 0, 64, 127
2, 21263, Note_off_c, 0, 69, 0
2, 21266, Note_off_c, 0, 71, 0
2, 21274, Note_off_c, 0, 76, 0
2, 21310, Note_off_c, 0, 64, 0
2, 21358, Note_on_c, 0, 82, 127
2, 21361, Note_on_c, 0, 67, 92
2, 21362, Note_on_c, 0, 56, 73
2, 21362, Note_on_c, 0, 62, 77
2, 21365, Control_c, 0, 64, 0
2, 21380, Note_off_c, 0, 67, 0
2, 21392, Note_on_c, 0, 80, 125
2, 21406, Note_on_c, 0, 82, 0
2, 21416, Note_on_c, 0, 62, 0
2, 21422, Note_on_c, 0, 75, 108
2, 21428, Note_on_c, 0, 80, 0
2, 21451, Note_on_c, 0, 75, 0
2, 21459, Note_on_c, 0, 71, 98
2, 21462, Note_on_c, 0, 62, 57
2, 21472, Control_c, 0, 64, 127
2, 21480, Control_c, 0, 64, 0
2, 21493, Note_off_c, 0, 71, 0
2, 21496, Note_on_c, 0, 70, 116
2, 21497, Note_on_c, 0, 62, 0
2, 21519, Note_on_c, 0, 56, 0
2, 21521, Note_on_c, 0, 70, 0
2, 21528, Note_on_c, 0, 68, 110
2, 21559, Note_on_c, 0, 68, 0
2, 21573, Control_c, 0, 64, 127
2, 21608, Control_c, 0, 64, 0
2, 21619, Note_on_c, 0, 64, 34
2, 21619, Note_on_c, 0, 59, 69
2, 21619, Note_on_c, 0, 60, 86
2, 21625, Note_on_c, 0, 69, 88
2, 21625, Note_on_c, 0, 71, 67
2, 21634, Note_on_c, 0, 71, 0
2, 21653, Note_on_c, 0, 69, 0
2, 21690, Note_on_c, 0, 59, 0
2, 21695, Note_on_c, 0, 64, 0
2, 21699, Note_on_c, 0, 71, 127
2, 21729, Note_on_c, 0, 71, 0
2, 21743, Note_on_c, 0, 68, 79
2, 21766, Note_on_c, 0, 68, 0
2, 21766, Note_on_c, 0, 60, 0
2, 21775, Note_on_c, 0, 69, 125
2, 21795, Note_on_c, 0, 69, 0
2, 21816, Note_on_c, 0, 70, 127
2, 21816, Note_on_c, 0, 56, 94
2, 21816, Note_on_c, 0, 64, 96
2, 21817, Note_on_c, 0, 60, 108
2, 21840, Note_on_c, 0, 70, 0
2, 21864, Note_on_c, 0, 71, 86
2, 21885, Note_on_c, 0, 71, 0
2, 21898, Note_on_c, 0, 76, 104
2, 21899, Note_on_c, 0, 64, 0
2, 21917, Note_on_c, 0, 76, 0
2, 21919, Note_on_c, 0, 60, 0
2, 21926, Control_c, 0, 64, 127
2, 21935, Note_on_c, 0, 79, 127
2, 21950, Note_on_c, 0, 56, 0
2, 21956, Note_on_c, 0, 79, 0
2, 21964, Control_c, 0, 64, 0
2, 21972, Note_on_c, 0, 64, 75
2, 21973, Note_on_c, 0, 60, 69
2, 21974, Note_on_c, 0, 55, 86
2, 21976, Note_on_c, 0, 83, 127
2, 21977, Note_on_c, 0, 71, 127
2, 22000, Note_on_c, 0, 64, 0
2, 22003, Note_on_c, 0, 55, 0
2, 22007, Note_on_c, 0, 60, 0
2, 22007, Note_on_c, 0, 83, 0
2, 22008, Note_on_c, 0, 71, 0
2, 22021, Control_c, 0, 64, 127
2, 22022, Note_on_c, 0, 81, 108
2, 22034, Note_on_c, 0, 81, 0
2, 22044, Control_c, 0, 64, 0
2, 22055, Note_on_c, 0, 83, 127
2, 22056, Note_on_c, 0, 71, 127
2, 22058, Note_on_c, 0, 64, 100
2, 22059, Note_on_c, 0, 60, 104
2, 22059, Note_on_c, 0, 55, 112
2, 22112, Control_c, 0, 64, 127
2, 22175, Note_off_c, 0, 55, 0
2, 22176, Note_off_c, 0, 64, 0
2, 22179, Note_off_c, 0, 71, 0
2, 22185, Note_off_c, 0, 83, 0
2, 22186, Note_off_c, 0, 60, 0
2, 22196, Control_c, 0, 64, 0
2, 22205, Note_on_c, 0, 55, 84
2, 22207, Note_on_c, 0, 84, 127
2, 22209, Note_on_c, 0, 64, 75
2, 22210, Note_on_c, 0, 72, 116
2, 22210, Note_on_c, 0, 60, 88
2, 22229, Control_c, 0, 64, 127
2, 22264, Note_off_c, 0, 84, 0
2, 22266, Note_off_c, 0, 72, 0
2, 22273, Note_off_c, 0, 55, 0
2, 22274, Note_off_c, 0, 64, 0
2, 22288, Note_off_c, 0, 60, 0
2, 22308, Control_c, 0, 64, 0
2, 22323, Note_on_c, 0, 60, 92
2, 22325, Note_on_c, 0, 64, 88
2, 22326, Note_on_c, 0, 54, 100
2, 22326, Note_on_c, 0, 86, 125
2, 22328, Note_on_c, 0, 74, 110
2, 22337, Control_c, 0, 64, 127
2, 22394, Note_off_c, 0, 74, 0
2, 22397, Note_off_c, 0, 64, 0
2, 22398, Note_off_c, 0, 54, 0
2, 22402, Note_off_c, 0, 86, 0
2, 22403, Note_off_c, 0, 60, 0
2, 22425, Control_c, 0, 64, 0
2, 22440, Note_on_c, 0, 54, 127
2, 22442, Note_on_c, 0, 60, 100
2, 22443, Note_on_c, 0, 88, 127
2, 22443, Note_on_c, 0, 64, 90
2, 22444, Note_on_c, 0, 76, 114
2, 22451, Control_c, 0, 64, 127
2, 22509, Note_off_c, 0, 64, 0
2, 22511, Note_off_c, 0, 76, 0
2, 22513, Note_off_c, 0, 54, 0
2, 22516, Note_off_c, 0, 88, 0
2, 22526, Note_off_c, 0, 60, 0
2, 22542, Control_c, 0, 64, 0
2, 22560, Note_on_c, 0, 64, 110
2, 22560, Note_on_c, 0, 60, 90
2, 22563, Note_on_c, 0, 89, 127
2, 22563, Note_on_c, 0, 53, 77
2, 22563, Note_on_c, 0, 57, 102
2, 22564, Note_on_c, 0, 77, 104
2, 22565, Note_on_c, 0, 84, 84
2, 22577, Control_c, 0, 64, 127
2, 22619, Note_off_c, 0, 77, 0
2, 22622, Note_off_c, 0, 84, 0
2, 22629, Note_off_c, 0, 89, 0
2, 22631, Note_off_c, 0, 53, 0
2, 22633, Note_off_c, 0, 57, 0
2, 22633, Note_off_c, 0, 64, 0
2, 22635, Note_off_c, 0, 60, 0
2, 22665, Control_c, 0, 64, 0
2, 22681, Note_on_c, 0, 64, 127
2, 22681, Note_on_c, 0, 60, 123
2, 22681, Note_on_c, 0, 91, 127
2, 22682, Note_on_c, 0, 53, 110
2, 22682, Note_on_c, 0, 79, 127
2, 22683, Note_on_c, 0, 57, 104
2, 22684, Note_on_c, 0, 86, 127
2, 22695, Control_c, 0, 64, 127
2, 22747, Note_off_c, 0, 79, 0
2, 22749, Note_off_c, 0, 60, 0
2, 22754, Note_off_c, 0, 86, 0
2, 22759, Note_off_c, 0, 53, 0
2, 22759, Note_off_c, 0, 91, 0
2, 22765, Note_off_c, 0, 64, 0
2, 22774, Note_off_c, 0, 57, 0
2, 22787, Control_c, 0, 64, 0
2, 22804, Note_on_c, 0, 64, 127
2, 22804, Note_on_c, 0, 59, 127
2, 22805, Note_on_c, 0, 93, 127
2, 22806, Note_on_c, 0, 81, 127
2, 22806, Note_on_c, 0, 53, 116
2, 22807, Note_on_c, 0, 88, 127
2, 22808, Note_on_c, 0, 57, 127
2, 22817, Control_c, 0, 64, 127
2, 22870, Note_off_c, 0, 93, 0
2, 22875, Note_off_c, 0, 53, 0
2, 22879, Note_off_c, 0, 57, 0
2, 22880, Note_off_c, 0, 81, 0
2, 22885, Note_off_c, 0, 88, 0
2, 22888, Note_off_c, 0, 64, 0
2, 22891, Note_off_c, 0, 59, 0
2, 22910, Control_c, 0, 64, 0
2, 22925, Note_on_c, 0, 59, 127
2, 22926, Note_on_c, 0, 64, 127
2, 22927, Note_on_c, 0, 95, 127
2, 22927, Note_on_c, 0, 53, 127
2, 22927, Note_on_c, 0, 83, 127
2, 22928, Note_on_c, 0, 91, 123
2, 22929, Note_on_c, 0, 88, 127
2, 22930, Note_on_c, 0, 57, 112
2, 22943, Control_c, 0, 64, 127
2, 22959, Note_off_c, 0, 88, 0
2, 22960, Note_off_c, 0, 83, 0
2, 22963, Note_off_c, 0, 91, 0
2, 22967, Note_off_c, 0, 95, 0
2, 22975, Note_off_c, 0, 59, 0
2, 22976, Note_off_c, 0, 53, 0
2, 22977, Note_off_c, 0, 57, 0
2, 22981, Note_off_c, 0, 64, 0
2, 23015, Note_on_c, 0, 54, 127
2, 23015, Note_on_c, 0, 96, 127
2, 23015, Note_on_c, 0, 84, 127
2, 23016, Note_on_c, 0, 60, 127
2, 23017, Note_on_c, 0, 64, 125
2, 23018, Note_on_c, 0, 65, 127
2, 23020, Control_c, 0, 64, 0
2, 23025, Note_off_c, 0, 65, 0
2, 23064, Control_c, 0, 64, 127
2, 23100, Note_off_c, 0, 84, 0
2, 23114, Note_on_c, 0, 95, 51
2, 23120, Note_on_c, 0, 93, 114
2, 23139, Note_on_c, 0, 89, 112
2, 23146, Control_c, 0, 64, 0
2, 23157, Note_off_c, 0, 96, 0
2, 23160, Note_off_c, 0, 95, 0
2, 23164, Note_off_c, 0, 93, 0
2, 23166, Note_off_c, 0, 64, 0
2, 23166, Note_off_c, 0, 60, 0
2, 23175, Control_c, 0, 64, 127
2, 23175, Note_on_c, 0, 84, 96
2, 23177, Note_on_c, 0, 54, 0
2, 23178, Note_on_c, 0, 89, 0
2, 23211, Note_on_c, 0, 84, 0
2, 23250, Note_on_c, 0, 51, 127
2, 23250, Note_on_c, 0, 57, 127
2, 23252, Note_on_c, 0, 47, 127
2, 23252, Note_on_c, 0, 95, 127
2, 23253, Note_on_c, 0, 83, 127
2, 23253, Control_c, 0, 64, 0
2, 23296, Control_c, 0, 64, 127
2, 23301, Note_off_c, 0, 47, 0
2, 23312, Note_off_c, 0, 51, 0
2, 23318, Note_off_c, 0, 57, 0
2, 23323, Note_off_c, 0, 83, 0
2, 23338, Note_on_c, 0, 91, 92
2, 23341, Note_on_c, 0, 93, 34
2, 23345, Note_on_c, 0, 95, 0
2, 23371, Note_on_c, 0, 93, 0
2, 23371, Note_on_c, 0, 86, 102
2, 23383, Note_on_c, 0, 91, 0
2, 23402, Control_c, 0, 64, 0
2, 23408, Note_on_c, 0, 62, 104
2, 23408, Note_on_c, 0, 51, 104
2, 23409, Note_on_c, 0, 86, 0
2, 23410, Note_on_c, 0, 57, 104
2, 23411, Note_on_c, 0, 83, 127
2, 23421, Note_on_c, 0, 83, 0
2, 23443, Control_c, 0, 64, 127
2, 23459, Note_off_c, 0, 57, 0
2, 23465, Note_off_c, 0, 51, 0
2, 23466, Note_off_c, 0, 62, 0
2, 23484, Control_c, 0, 64, 0
2, 23485, Note_on_c, 0, 62, 127
2, 23488, Note_on_c, 0, 52, 118
2, 23488, Note_on_c, 0, 93, 127
2, 23489, Note_on_c, 0, 55, 127
2, 23490, Note_on_c, 0, 86, 127
2, 23490, Note_on_c, 0, 81, 127
2, 23490, Note_on_c, 0, 59, 127
2, 23531, Note_on_c, 0, 86, 0
2, 23556, Note_on_c, 0, 81, 0
2, 23566, Note_on_c, 0, 59, 0
2, 23569, Note_on_c, 0, 90, 120
2, 23569, Note_on_c, 0, 91, 65
2, 23581, Note_on_c, 0, 62, 0
2, 23582, Note_on_c, 0, 93, 0
2, 23584, Control_c, 0, 64, 127
2, 23595, Note_off_c, 0, 91, 0
2, 23595, Note_on_c, 0, 86, 125
2, 23610, Note_on_c, 0, 90, 0
2, 23622, Note_on_c, 0, 86, 0
2, 23629, Note_on_c, 0, 81, 65
2, 23634, Control_c, 0, 64, 0
2, 23638, Note_off_c, 0, 81, 0
2, 23645, Note_off_c, 0, 52, 0
2, 23648, Note_off_c, 0, 55, 0
2, 23680, Control_c, 0, 64, 127
2, 23719, Control_c, 0, 64, 0
2, 23722, Note_on_c, 0, 55, 127
2, 23722, Note_on_c, 0, 66, 127
2, 23723, Note_on_c, 0, 61, 127
2, 23726, Note_on_c, 0, 96, 127
2, 23774, Control_c, 0, 64, 127
2, 23789, Control_c, 0, 64, 0
2, 23794, Note_on_c, 0, 94, 127
2, 23807, Note_on_c, 0, 66, 0
2, 23808, Note_on_c, 0, 96, 0
2, 23819, Note_on_c, 0, 89, 110
2, 23832, Note_on_c, 0, 55, 0
2, 23834, Note_on_c, 0, 85, 127
2, 23841, Note_on_c, 0, 89, 0
2, 23846, Note_on_c, 0, 94, 0
2, 23850, Note_on_c, 0, 85, 0
2, 23865, Note_on_c, 0, 84, 108
2, 23876, Note_on_c, 0, 61, 0
2, 23891, Note_on_c, 0, 84, 0
2, 23918, Note_on_c, 0, 82, 127
2, 23923, Note_on_c, 0, 66, 123
2, 23924, Note_on_c, 0, 61, 108
2, 23928, Note_on_c, 0, 55, 90
2, 23939, Note_on_c, 0, 82, 0
2, 23942, Note_on_c, 0, 66, 0
2, 23944, Note_on_c, 0, 55, 0
2, 23951, Note_on_c, 0, 61, 0
2, 23965, Note_on_c, 0, 61, 100
2, 23965, Note_on_c, 0, 66, 94
2, 23965, Note_on_c, 0, 81, 127
2, 23972, Note_on_c, 0, 55, 53
2, 23983, Note_on_c, 0, 55, 0
2, 23985, Note_on_c, 0, 66, 0
2, 23991, Note_on_c, 0, 81, 0
2, 24001, Note_on_c, 0, 77, 98
2, 24012, Note_on_c, 0, 61, 0
2, 24014, Control_c, 0, 64, 127
2, 24020, Control_c, 0, 64, 0
2, 24021, Note_off_c, 0, 77, 0
2, 24032, Note_on_c, 0, 60, 65
2, 24034, Note_on_c, 0, 84, 127
2, 24034, Note_on_c, 0, 57, 71
2, 24036, Note_on_c, 0, 64, 59
2, 24037, Note_on_c, 0, 53, 59
2, 24067, Control_c, 0, 64, 127
2, 24079, Note_off_c, 0, 84, 0
2, 24087, Note_on_c, 0, 81, 127
2, 24114, Note_on_c, 0, 81, 0
2, 24129, Note_on_c, 0, 77, 118
2, 24152, Note_on_c, 0, 77, 0
2, 24169, Note_on_c, 0, 72, 41
2, 24170, Note_on_c, 0, 53, 0
2, 24172, Note_on_c, 0, 64, 0
2, 24177, Note_on_c, 0, 72, 0
2, 24181, Note_on_c, 0, 57, 0
2, 24190, Note_on_c, 0, 60, 0
2, 24228, Control_c, 0, 64, 0
2, 24323, Note_on_c, 0, 63, 127
2, 24324, Note_on_c, 0, 84, 127
2, 24325, Note_on_c, 0, 78, 127
2, 24326, Note_on_c, 0, 72, 127
2, 24326, Note_on_c, 0, 54, 98
2, 24328, Note_on_c, 0, 60, 98
2, 24330, Note_on_c, 0, 57, 82
2, 24337, Note_on_c, 0, 60, 0
2, 24345, Note_on_c, 0, 72, 0
2, 24345, Note_on_c, 0, 57, 0
2, 24347, Note_on_c, 0, 84, 0
2, 24347, Note_on_c, 0, 63, 0
2, 24349, Note_on_c, 0, 54, 0
2, 24357, Note_on_c, 0, 78, 0
2, 24367, Note_on_c, 0, 63, 77
2, 24370, Note_on_c, 0, 54, 59
2, 24372, Note_on_c, 0, 83, 127
2, 24376, Note_on_c, 0, 78, 65
2, 24376, Note_on_c, 0, 71, 100
2, 24391, Note_on_c, 0, 78, 0
2, 24395, Note_on_c, 0, 54, 0
2, 24395, Note_on_c, 0, 71, 0
2, 24396, Note_on_c, 0, 83, 0
2, 24398, Note_on_c, 0, 63, 0
2, 24440, Control_c, 0, 64, 127
2, 24445, Note_on_c, 0, 54, 96
2, 24446, Note_on_c, 0, 63, 86
2, 24448, Note_on_c, 0, 69, 127
2, 24449, Note_on_c, 0, 81, 127
2, 24462, Note_on_c, 0, 54, 0
2, 24463, Note_on_c, 0, 69, 0
2, 24465, Note_on_c, 0, 63, 0
2, 24467, Note_on_c, 0, 81, 0
2, 24482, Control_c, 0, 64, 0
2, 24494, Note_on_c, 0, 71, 120
2, 24494, Note_on_c, 0, 83, 125
2, 24500, Note_on_c, 0, 79, 67
2, 24508, Note_on_c, 0, 71, 0
2, 24510, Note_on_c, 0, 79, 0
2, 24513, Note_on_c, 0, 83, 0
2, 24530, Control_c, 0, 64, 127
2, 24572, Note_on_c, 0, 83, 127
2, 24572, Note_on_c, 0, 71, 127
2, 24573, Note_on_c, 0, 62, 65
2, 24574, Note_on_c, 0, 59, 90
2, 24576, Note_on_c, 0, 79, 82
2, 24584, Note_on_c, 0, 79, 0
2, 24585, Control_c, 0, 64, 0
2, 24587, Note_off_c, 0, 62, 0
2, 24588, Note_off_c, 0, 83, 0
2, 24588, Note_off_c, 0, 71, 0
2, 24588, Note_off_c, 0, 59, 0
2, 24614, Note_on_c, 0, 62, 69
2, 24616, Note_on_c, 0, 79, 108
2, 24620, Note_on_c, 0, 67, 77
2, 24621, Note_on_c, 0, 55, 67
2, 24622, Note_on_c, 0, 59, 55
2, 24622, Note_on_c, 0, 74, 73
2, 24627, Note_on_c, 0, 62, 0
2, 24632, Note_on_c, 0, 67, 0
2, 24632, Note_on_c, 0, 74, 0
2, 24635, Note_on_c, 0, 59, 0
2, 24635, Note_on_c, 0, 79, 0
2, 24643, Control_c, 0, 64, 127
2, 24645, Note_off_c, 0, 55, 0
2, 24742, Control_c, 0, 64, 0
2, 24746, Control_c, 0, 64, 127
2, 24813, Note_on_c, 0, 59, 127
2, 24815, Note_on_c, 0, 71, 127
2, 24816, Note_on_c, 0, 67, 118
2, 24816, Note_on_c, 0, 60, 127
2, 24816, Note_on_c, 0, 64, 127
2, 24830, Control_c, 0, 64, 0
2, 24851, Note_off_c, 0, 71, 0
2, 24853, Note_off_c, 0, 67, 0
2, 24856, Control_c, 0, 64, 127
2, 24860, Note_off_c, 0, 64, 0
2, 24860, Note_off_c, 0, 59, 0
2, 24863, Note_off_c, 0, 60, 0
2, 24896, Note_on_c, 0, 67, 118
2, 24899, Note_on_c, 0, 55, 120
2, 24899, Note_on_c, 0, 62, 94
2, 24901, Control_c, 0, 64, 0
2, 24902, Note_on_c, 0, 59, 96
2, 24909, Control_c, 0, 64, 127
2, 24911, Note_off_c, 0, 59, 0
2, 24911, Note_off_c, 0, 62, 0
2, 24912, Note_off_c, 0, 55, 0
2, 24921, Note_off_c, 0, 67, 0
2, 24936, Note_on_c, 0, 52, 106
2, 24946, Note_on_c, 0, 52, 0
2, 24973, Control_c, 0, 64, 0
2, 24979, Note_on_c, 0, 58, 127
2, 24980, Note_on_c, 0, 62, 127
2, 24980, Note_on_c, 0, 69, 127
2, 24981, Note_on_c, 0, 59, 127
2, 24982, Note_on_c, 0, 64, 125
2, 25048, Control_c, 0, 64, 127
2, 25090, Note_off_c, 0, 59, 0
2, 25095, Control_c, 0, 64, 0
2, 25146, Control_c, 0, 64, 127
2, 25220, Control_c, 0, 64, 0
2, 25274, Control_c, 0, 64, 127
2, 25282, Note_on_c, 0, 57, 116
2, 25307, Note_on_c, 0, 57, 0
2, 25331, Control_c, 0, 64, 0
2, 25331, Note_on_c, 0, 56, 94
2, 25345, Note_on_c, 0, 56, 0
2, 25411, Note_on_c, 0, 45, 110
2, 25414, Control_c, 0, 64, 127
2, 25420, Note_off_c, 0, 69, 0
2, 25422, Note_off_c, 0, 62, 0
2, 25434, Note_off_c, 0, 58, 0
2, 25434, Note_off_c, 0, 64, 0
2, 25448, Control_c, 0, 64, 0
2, 25457, Note_on_c, 0, 67, 112
2, 25457, Note_on_c, 0, 58, 100
2, 25461, Note_on_c, 0, 55, 116
2, 25461, Note_on_c, 0, 61, 96
2, 25512, Control_c, 0, 64, 127
2, 25523, Note_off_c, 0, 67, 0
2, 25525, Note_off_c, 0, 55, 0
2, 25540, Note_off_c, 0, 61, 0
2, 25542, Note_off_c, 0, 58, 0
2, 25556, Control_c, 0, 64, 0
2, 25571, Note_on_c, 0, 58, 75
2, 25571, Note_on_c, 0, 54, 94
2, 25574, Note_on_c, 0, 66, 102
2, 25574, Note_on_c, 0, 61, 96
2, 25588, Control_c, 0, 64, 127
2, 25618, Note_off_c, 0, 66, 0
2, 25622, Note_off_c, 0, 54, 0
2, 25622, Note_off_c, 0, 61, 0
2, 25626, Note_off_c, 0, 58, 0
2, 25651, Control_c, 0, 64, 0
2, 25653, Note_on_c, 0, 58, 75
2, 25654, Note_on_c, 0, 61, 79
2, 25656, Note_on_c, 0, 53, 90
2, 25658, Note_on_c, 0, 65, 94
2, 25669, Note_on_c, 0, 65, 0
2, 25678, Note_on_c, 0, 58, 0
2, 25681, Note_on_c, 0, 53, 0
2, 25682, Note_on_c, 0, 61, 0
2, 25725, Note_on_c, 0, 64, 82
2, 25726, Note_on_c, 0, 58, 63
2, 25727, Note_on_c, 0, 55, 88
2, 25728, Control_c, 0, 64, 127
2, 25729, Note_on_c, 0, 52, 92
2, 25729, Note_on_c, 0, 61, 69
2, 25778, Note_on_c, 0, 58, 0
2, 25779, Note_on_c, 0, 55, 0
2, 25782, Note_on_c, 0, 45, 0
2, 25786, Control_c, 0, 64, 0
2, 25787, Note_off_c, 0, 61, 0
2, 25789, Note_off_c, 0, 64, 0
2, 25794, Note_off_c, 0, 52, 0
2, 25801, Note_on_c, 0, 58, 98
2, 25805, Note_on_c, 0, 55, 82
2, 25805, Note_on_c, 0, 61, 59
2, 25809, Note_on_c, 0, 49, 61
2, 25809, Control_c, 0, 64, 127
2, 25824, Note_off_c, 0, 55, 0
2, 25846, Note_off_c, 0, 58, 0
2, 25847, Note_off_c, 0, 61, 0
2, 25882, Note_on_c, 0, 62, 100
2, 25882, Control_c, 0, 64, 0
2, 25884, Note_on_c, 0, 53, 94
2, 25885, Note_on_c, 0, 49, 0
2, 25886, Note_on_c, 0, 57, 94
2, 25889, Note_on_c, 0, 50, 90
2, 25902, Note_on_c, 0, 50, 0
2, 25903, Note_on_c, 0, 53, 0
2, 25913, Control_c, 0, 64, 127
2, 25914, Note_off_c, 0, 57, 0
2, 25924, Note_off_c, 0, 62, 0
2, 26039, Note_on_c, 0, 64, 114
2, 26044, Note_on_c, 0, 76, 73
2, 26054, Note_on_c, 0, 64, 0
2, 26064, Note_on_c, 0, 76, 0
2, 26116, Note_on_c, 0, 77, 127
2, 26119, Note_on_c, 0, 65, 123
2, 26120, Note_on_c, 0, 60, 127
2, 26120, Note_on_c, 0, 53, 100
2, 26121, Note_on_c, 0, 57, 94
2, 26136, Note_on_c, 0, 65, 0
2, 26142, Note_on_c, 0, 60, 0
2, 26144, Note_on_c, 0, 53, 0
2, 26147, Note_on_c, 0, 57, 0
2, 26147, Note_on_c, 0, 77, 0
2, 26178, Control_c, 0, 64, 0
2, 26186, Note_on_c, 0, 64, 110
2, 26187, Note_on_c, 0, 79, 127
2, 26187, Note_on_c, 0, 60, 100
2, 26187, Note_on_c, 0, 76, 102
2, 26188, Note_on_c, 0, 53, 71
2, 26188, Note_on_c, 0, 67, 100
2, 26190, Note_on_c, 0, 57, 75
2, 26191, Note_on_c, 0, 72, 96
2, 26213, Control_c, 0, 64, 127
2, 26281, Note_off_c, 0, 72, 0
2, 26282, Note_off_c, 0, 67, 0
2, 26282, Note_off_c, 0, 76, 0
2, 26297, Note_off_c, 0, 53, 0
2, 26297, Note_off_c, 0, 64, 0
2, 26307, Note_off_c, 0, 57, 0
2, 26310, Note_off_c, 0, 79, 0
2, 26310, Note_off_c, 0, 60, 0
2, 26456, Control_c, 0, 64, 0
2, 26459, Note_on_c, 0, 79, 127
2, 26459, Note_on_c, 0, 68, 127
2, 26462, Note_on_c, 0, 75, 127
2, 26462, Note_on_c, 0, 72, 127
2, 26462, Note_on_c, 0, 67, 127
2, 26486, Note_on_c, 0, 72, 0
2, 26488, Note_on_c, 0, 68, 0
2, 26492, Note_on_c, 0, 79, 0
2, 26494, Note_on_c, 0, 75, 0
2, 26494, Note_on_c, 0, 67, 0
2, 26506, Note_on_c, 0, 65, 86
2, 26533, Note_on_c, 0, 65, 0
2, 26542, Note_on_c, 0, 79, 127
2, 26543, Note_on_c, 0, 67, 127
2, 26545, Note_on_c, 0, 68, 127
2, 26546, Note_on_c, 0, 75, 127
2, 26547, Note_on_c, 0, 73, 51
2, 26547, Note_on_c, 0, 72, 127
2, 26561, Control_c, 0, 64, 127
2, 26565, Note_off_c, 0, 73, 0
2, 26565, Note_off_c, 0, 68, 0
2, 26566, Note_off_c, 0, 72, 0
2, 26572, Note_off_c, 0, 67, 0
2, 26573, Note_off_c, 0, 79, 0
2, 26577, Note_off_c, 0, 75, 0
2, 26601, Note_on_c, 0, 78, 79
2, 26610, Note_on_c, 0, 78, 0
2, 26619, Control_c, 0, 64, 0
2, 26622, Note_on_c, 0, 70, 127
2, 26623, Note_on_c, 0, 82, 127
2, 26623, Note_on_c, 0, 75, 127
2, 26624, Note_on_c, 0, 71, 127
2, 26631, Note_on_c, 0, 77, 57
2, 26663, Note_on_c, 0, 75, 0
2, 26665, Note_on_c, 0, 77, 0
2, 26678, Note_on_c, 0, 71, 0
2, 26678, Note_on_c, 0, 82, 0
2, 26685, Note_on_c, 0, 70, 0
2, 26696, Note_on_c, 0, 80, 108
2, 26696, Note_on_c, 0, 75, 100
2, 26696, Note_on_c, 0, 68, 114
2, 26697, Note_on_c, 0, 71, 118
2, 26702, Note_on_c, 0, 77, 84
2, 26709, Control_c, 0, 64, 127
2, 26736, Note_off_c, 0, 71, 0
2, 26738, Note_off_c, 0, 80, 0
2, 26743, Note_off_c, 0, 75, 0
2, 26748, Note_off_c, 0, 68, 0
2, 26748, Note_off_c, 0, 77, 0
2, 26762, Control_c, 0, 64, 0
2, 26770, Note_on_c, 0, 67, 73
2, 26770, Note_on_c, 0, 79, 102
2, 26773, Note_on_c, 0, 75, 102
2, 26774, Note_on_c, 0, 71, 98
2, 26786, Control_c, 0, 64, 127
2, 26796, Note_off_c, 0, 79, 0
2, 26810, Note_off_c, 0, 67, 0
2, 26811, Note_off_c, 0, 75, 0
2, 26816, Note_off_c, 0, 71, 0
2, 26841, Note_on_c, 0, 63, 73
2, 26854, Note_on_c, 0, 76, 38
2, 26871, Note_on_c, 0, 76, 0
2, 26875, Control_c, 0, 64, 0
2, 26886, Note_off_c, 0, 63, 0
2, 26889, Note_on_c, 0, 64, 94
2, 26891, Note_on_c, 0, 76, 63
2, 26893, Note_on_c, 0, 79, 92
2, 26895, Note_on_c, 0, 72, 73
2, 26898, Note_on_c, 0, 67, 32
2, 26919, Control_c, 0, 64, 127
2, 26953, Note_off_c, 0, 79, 0
2, 26958, Note_off_c, 0, 76, 0
2, 26961, Note_on_c, 0, 55, 106
2, 26962, Note_on_c, 0, 72, 0
2, 26967, Note_on_c, 0, 67, 0
2, 26978, Control_c, 0, 64, 0
2, 27000, Note_off_c, 0, 64, 0
2, 27002, Control_c, 0, 64, 127
2, 27052, Note_on_c, 0, 64, 116
2, 27063, Note_on_c, 0, 64, 0
2, 27068, Note_on_c, 0, 65, 114
2, 27081, Note_on_c, 0, 65, 0
2, 27085, Note_on_c, 0, 64, 112
2, 27110, Note_on_c, 0, 63, 102
2, 27111, Note_on_c, 0, 64, 0
2, 27117, Control_c, 0, 64, 0
2, 27121, Note_off_c, 0, 63, 0
2, 27130, Note_off_c, 0, 55, 0
2, 27140, Note_on_c, 0, 64, 112
2, 27192, Control_c, 0, 64, 127
2, 27203, Note_on_c, 0, 60, 118
2, 27221, Control_c, 0, 64, 0
2, 27233, Note_off_c, 0, 64, 0
2, 27239, Control_c, 0, 64, 127
2, 27310, Note_off_c, 0, 60, 0
2, 27319, Note_on_c, 0, 53, 75
2, 27331, Note_on_c, 0, 53, 0
2, 27341, Control_c, 0, 64, 0
2, 27355, Note_on_c, 0, 67, 79
2, 27356, Note_on_c, 0, 47, 92
2, 27357, Note_on_c, 0, 62, 94
2, 27364, Control_c, 0, 64, 127
2, 27366, Note_off_c, 0, 47, 0
2, 27377, Note_off_c, 0, 62, 0
2, 27382, Note_off_c, 0, 67, 0
2, 27443, Note_on_c, 0, 57, 108
2, 27444, Note_on_c, 0, 77, 127
2, 27444, Note_on_c, 0, 69, 127
2, 27445, Note_on_c, 0, 62, 112
2, 27448, Note_on_c, 0, 65, 73
2, 27459, Control_c, 0, 64, 0
2, 27460, Note_off_c, 0, 65, 0
2, 27468, Note_off_c, 0, 69, 0
2, 27472, Note_off_c, 0, 62, 0
2, 27478, Note_off_c, 0, 77, 0
2, 27493, Note_on_c, 0, 76, 77
2, 27497, Control_c, 0, 64, 127
2, 27511, Note_on_c, 0, 65, 10
2, 27518, Note_on_c, 0, 57, 0
2, 27536, Note_on_c, 0, 65, 0
2, 27537, Note_on_c, 0, 76, 0
2, 27559, Note_on_c, 0, 79, 127
2, 27561, Note_on_c, 0, 67, 127
2, 27562, Note_on_c, 0, 72, 127
2, 27562, Note_on_c, 0, 62, 116
2, 27562, Note_on_c, 0, 56, 127
2, 27564, Note_on_c, 0, 76, 73
2, 27568, Control_c, 0, 64, 0
2, 27601, Control_c, 0, 64, 127
2, 27622, Note_off_c, 0, 76, 0
2, 27623, Note_off_c, 0, 79, 0
2, 27627, Note_off_c, 0, 72, 0
2, 27632, Note_off_c, 0, 67, 0
2, 27642, Note_off_c, 0, 62, 0
2, 27651, Note_off_c, 0, 56, 0
2, 27679, Note_on_c, 0, 76, 104
2, 27683, Note_on_c, 0, 64, 118
2, 27683, Note_on_c, 0, 56, 94
2, 27685, Note_on_c, 0, 62, 114
2, 27687, Control_c, 0, 64, 0
2, 27687, Note_on_c, 0, 71, 82
2, 27712, Note_on_c, 0, 64, 0
2, 27716, Control_c, 0, 64, 127
2, 27725, Note_off_c, 0, 62, 0
2, 27726, Note_off_c, 0, 71, 0
2, 27732, Note_off_c, 0, 76, 0
2, 27747, Note_off_c, 0, 56, 0
2, 27800, Note_on_c, 0, 83, 127
2, 27801, Note_on_c, 0, 76, 127
2, 27802, Note_on_c, 0, 64, 127
2, 27803, Note_on_c, 0, 57, 114
2, 27804, Note_on_c, 0, 71, 127
2, 27805, Note_on_c, 0, 60, 116
2, 27810, Control_c, 0, 64, 0
2, 27840, Control_c, 0, 64, 127
2, 27908, Note_off_c, 0, 76, 0
2, 27910, Note_off_c, 0, 64, 0
2, 27911, Note_off_c, 0, 71, 0
2, 27923, Note_off_c, 0, 57, 0
2, 27933, Note_off_c, 0, 83, 0
2, 27953, Note_on_c, 0, 80, 90
2, 27953, Note_on_c, 0, 56, 90
2, 27956, Note_on_c, 0, 71, 73
2, 27958, Note_on_c, 0, 64, 77
2, 27960, Control_c, 0, 64, 0
2, 27961, Note_on_c, 0, 76, 77
2, 28019, Note_on_c, 0, 76, 0
2, 28021, Note_on_c, 0, 64, 0
2, 28023, Note_on_c, 0, 71, 0
2, 28029, Control_c, 0, 64, 127
2, 28038, Note_off_c, 0, 60, 0
2, 28040, Note_off_c, 0, 80, 0
2, 28043, Note_off_c, 0, 56, 0
2, 28044, Control_c, 0, 64, 0
2, 28078, Note_on_c, 0, 60, 77
2, 28079, Note_on_c, 0, 55, 73
2, 28080, Note_on_c, 0, 64, 55
2, 28080, Note_on_c, 0, 81, 116
2, 28081, Note_on_c, 0, 71, 90
2, 28085, Note_on_c, 0, 76, 84
2, 28093, Control_c, 0, 64, 127
2, 28108, Note_off_c, 0, 71, 0
2, 28114, Note_off_c, 0, 76, 0
2, 28122, Note_off_c, 0, 60, 0
2, 28131, Note_off_c, 0, 64, 0
2, 28138, Note_off_c, 0, 55, 0
2, 28146, Note_off_c, 0, 81, 0
2, 28190, Control_c, 0, 64, 0
2, 28203, Control_c, 0, 64, 127
2, 28206, Note_on_c, 0, 55, 59
2, 28216, Note_on_c, 0, 55, 0
2, 28257, Note_on_c, 0, 83, 55
2, 28265, Note_on_c, 0, 83, 0
2, 28279, Note_on_c, 0, 55, 2
2, 28290, Note_on_c, 0, 64, 92
2, 28292, Note_on_c, 0, 84, 90
2, 28294, Note_on_c, 0, 60, 100
2, 28294, Note_on_c, 0, 72, 77
2, 28302, Note_on_c, 0, 60, 0
2, 28303, Note_on_c, 0, 72, 0
2, 28304, Note_on_c, 0, 64, 0
2, 28305, Note_on_c, 0, 84, 0
2, 28307, Note_on_c, 0, 55, 0
2, 28327, Control_c, 0, 64, 0
2, 28328, Note_on_c, 0, 86, 127
2, 28328, Note_on_c, 0, 64, 108
2, 28329, Note_on_c, 0, 74, 127
2, 28330, Note_on_c, 0, 60, 100
2, 28332, Note_on_c, 0, 54, 127
2, 28332, Note_on_c, 0, 79, 127
2, 28382, Control_c, 0, 64, 127
2, 28415, Note_off_c, 0, 74, 0
2, 28417, Note_off_c, 0, 64, 0
2, 28419, Note_off_c, 0, 86, 0
2, 28422, Note_off_c, 0, 79, 0
2, 28426, Note_off_c, 0, 60, 0
2, 28441, Note_on_c, 0, 86, 73
2, 28442, Note_on_c, 0, 64, 73
2, 28442, Note_on_c, 0, 60, 63
2, 28444, Note_on_c, 0, 74, 73
2, 28445, Note_on_c, 0, 79, 73
2, 28467, Note_on_c, 0, 74, 0
2, 28468, Note_on_c, 0, 64, 0
2, 28471, Note_on_c, 0, 79, 0
2, 28483, Note_on_c, 0, 86, 0
2, 28486, Note_on_c, 0, 54, 0
2, 28500, Note_on_c, 0, 60, 0
2, 28521, Control_c, 0, 64, 0
2, 28521, Note_on_c, 0, 86, 127
2, 28521, Note_on_c, 0, 63, 127
2, 28522, Note_on_c, 0, 60, 127
2, 28523, Note_on_c, 0, 74, 127
2, 28523, Note_on_c, 0, 83, 127
2, 28523, Note_on_c, 0, 79, 127
2, 28524, Note_on_c, 0, 53, 127
2, 28526, Note_on_c, 0, 57, 127
2, 28563, Control_c, 0, 64, 127
2, 28575, Note_off_c, 0, 83, 0
2, 28575, Note_off_c, 0, 86, 0
2, 28579, Note_off_c, 0, 79, 0
2, 28581, Note_off_c, 0, 74, 0
2, 28607, Note_off_c, 0, 57, 0
2, 28608, Note_off_c, 0, 60, 0
2, 28618, Note_off_c, 0, 53, 0
2, 28618, Note_off_c, 0, 63, 0
2, 28642, Control_c, 0, 64, 0
2, 28643, Note_on_c, 0, 83, 127
2, 28646, Note_on_c, 0, 75, 123
2, 28646, Note_on_c, 0, 63, 102
2, 28646, Note_on_c, 0, 71, 127
2, 28648, Note_on_c, 0, 79, 104
2, 28648, Note_on_c, 0, 53, 84
2, 28651, Note_on_c, 0, 60, 116
2, 28653, Note_on_c, 0, 57, 94
2, 28669, Control_c, 0, 64, 127
2, 28670, Note_off_c, 0, 79, 0
2, 28673, Note_off_c, 0, 71, 0
2, 28675, Note_off_c, 0, 83, 0
2, 28678, Note_off_c, 0, 75, 0
2, 28679, Note_off_c, 0, 63, 0
2, 28687, Note_off_c, 0, 53, 0
2, 28695, Note_off_c, 0, 57, 0
2, 28695, Note_off_c, 0, 60, 0
2, 28725, Note_on_c, 0, 79, 77
2, 28725, Note_on_c, 0, 63, 94
2, 28728, Note_on_c, 0, 60, 90
2, 28728, Note_on_c, 0, 74, 90
2, 28732, Note_on_c, 0, 67, 61
2, 28734, Note_on_c, 0, 53, 57
2, 28755, Note_on_c, 0, 74, 0
2, 28755, Note_on_c, 0, 79, 0
2, 28756, Note_on_c, 0, 60, 0
2, 28768, Note_on_c, 0, 63, 0
2, 28768, Note_on_c, 0, 67, 0
2, 28768, Note_on_c, 0, 53, 0
2, 28802, Note_on_c, 0, 62, 79
2, 28804, Control_c, 0, 64, 0
2, 28809, Note_on_c, 0, 52, 55
2, 28810, Note_on_c, 0, 59, 67
2, 28812, Note_on_c, 0, 55, 92
2, 28850, Control_c, 0, 64, 127
2, 28889, Note_off_c, 0, 62, 0
2, 28902, Note_off_c, 0, 59, 0
2, 28919, Note_off_c, 0, 55, 0
2, 28938, Note_off_c, 0, 52, 0
2, 29040, Control_c, 0, 64, 0
2, 29046, Control_c, 0, 64, 127
2, 29124, Note_on_c, 0, 72, 127
2, 29125, Note_on_c, 0, 57, 108
2, 29127, Note_on_c, 0, 66, 127
2, 29128, Note_on_c, 0, 63, 127
2, 29145, Control_c, 0, 64, 0
2, 29151, Note_off_c, 0, 72, 0
2, 29154, Note_off_c, 0, 66, 0
2, 29159, Note_off_c, 0, 57, 0
2, 29159, Note_off_c, 0, 63, 0
2, 29176, Note_on_c, 0, 54, 86
2, 29177, Note_on_c, 0, 66, 73
2, 29192, Note_on_c, 0, 66, 0
2, 29194, Control_c, 0, 64, 127
2, 29254, Note_off_c, 0, 54, 0
2, 29254, Note_on_c, 0, 69, 114
2, 29256, Note_on_c, 0, 60, 125
2, 29256, Note_on_c, 0, 65, 127
2, 29258, Note_on_c, 0, 55, 123
2, 29262, Control_c, 0, 64, 0
2, 29315, Control_c, 0, 64, 127
2, 29369, Note_on_c, 0, 43, 127
2, 29392, Control_c, 0, 64, 0
2, 29414, Control_c, 0, 64, 127
2, 29458, Note_off_c, 0, 65, 0
2, 29463, Note_off_c, 0, 69, 0
2, 29479, Note_off_c, 0, 60, 0
2, 29491, Note_off_c, 0, 55, 0
2, 29504, Note_on_c, 0, 50, 67
2, 29515, Note_on_c, 0, 50, 0
2, 29528, Note_on_c, 0, 67, 71
2, 29529, Control_c, 0, 64, 0
2, 29529, Note_on_c, 0, 59, 90
2, 29530, Note_on_c, 0, 64, 75
2, 29530, Note_on_c, 0, 53, 67
2, 29580, Note_on_c, 0, 64, 0
2, 29581, Note_on_c, 0, 67, 0
2, 29594, Note_on_c, 0, 59, 0
2, 29614, Note_on_c, 0, 53, 0
2, 29622, Note_on_c, 0, 50, 84
2, 29635, Note_on_c, 0, 50, 0
2, 29646, Note_on_c, 0, 66, 116
2, 29648, Note_on_c, 0, 56, 88
2, 29651, Note_on_c, 0, 53, 90
2, 29669, Note_on_c, 0, 61, 16
2, 29717, Control_c, 0, 64, 127
2, 29719, Note_off_c, 0, 56, 0
2, 29724, Note_off_c, 0, 53, 0
2, 29731, Note_off_c, 0, 61, 0
2, 29742, Note_on_c, 0, 50, 49
2, 29745, Note_on_c, 0, 66, 0
2, 29752, Note_on_c, 0, 50, 0
2, 29758, Control_c, 0, 64, 0
2, 29769, Note_on_c, 0, 62, 75
2, 29769, Note_on_c, 0, 67, 88
2, 29771, Note_on_c, 0, 57, 75
2, 29795, Note_on_c, 0, 43, 0
2, 29848, Note_on_c, 0, 43, 94
2, 29850, Note_on_c, 0, 31, 116
2, 29960, Note_on_c, 0, 57, 0
2, 29963, Note_on_c, 0, 62, 0
2, 29965, Note_on_c, 0, 67, 0
2, 30005, Note_on_c, 0, 67, 96
2, 30005, Note_on_c, 0, 62, 104
2, 30007, Note_on_c, 0, 57, 77
2, 30025, Note_on_c, 0, 31, 0
2, 30036, Note_on_c, 0, 43, 0
2, 30083, Note_on_c, 0, 31, 127
2, 30085, Note_on_c, 0, 43, 110
2, 30103, Control_c, 0, 64, 127
2, 30104, Note_off_c, 0, 31, 0
2, 30113, Note_off_c, 0, 43, 0
2, 30228, Control_c, 0, 64, 0
2, 30233, Note_on_c, 0, 55, 127
2, 30243, Note_on_c, 0, 64, 59
2, 30247, Note_on_c, 0, 60, 77
2, 30249, Note_on_c, 0, 54, 55
2, 30256, Note_on_c, 0, 60, 0
2, 30262, Note_on_c, 0, 64, 0
2, 30263, Note_on_c, 0, 54, 0
2, 30319, Note_on_c, 0, 43, 127
2, 30342, Note_on_c, 0, 43, 0
2, 30367, Note_on_c, 0, 43, 63
2, 30381, Note_on_c, 0, 43, 0
2, 30397, Note_on_c, 0, 55, 0
2, 30444, Note_on_c, 0, 55, 127
2, 30444, Note_on_c, 0, 43, 110
2, 30462, Note_on_c, 0, 55, 0
2, 30464, Note_on_c, 0, 57, 0
2, 30464, Note_on_c, 0, 43, 0
2, 30480, Note_on_c, 0, 62, 0
2, 30487, Note_on_c, 0, 55, 127
2, 30488, Note_on_c, 0, 43, 108
2, 30510, Control_c, 0, 64, 127
2, 30516, Note_off_c, 0, 43, 0
2, 30518, Note_off_c, 0, 67, 0
2, 30530, Note_off_c, 0, 55, 0
2, 30561, Note_on_c, 0, 57, 127
2, 30572, Control_c, 0, 64, 0
2, 30581, Note_off_c, 0, 57, 0
2, 30602, Note_on_c, 0, 55, 127
2, 30664, Note_on_c, 0, 55, 0
2, 30843, Note_on_c, 0, 84, 127
2, 30906, Note_on_c, 0, 84, 0
2, 30965, Note_on_c, 0, 62, 106
2, 30965, Note_on_c, 0, 83, 127
2, 30966, Note_on_c, 0, 51, 86
2, 30969, Note_on_c, 0, 57, 86
2, 31101, Note_on_c, 0, 57, 0
2, 31109, Note_on_c, 0, 51, 0
2, 31148, Note_on_c, 0, 62, 0
2, 31159, Note_on_c, 0, 83, 0
2, 31167, Note_on_c, 0, 78, 118
2, 31180, Note_on_c, 0, 52, 65
2, 31183, Note_on_c, 0, 55, 94
2, 31184, Note_on_c, 0, 62, 49
2, 31184, Note_on_c, 0, 59, 65
2, 31186, Note_on_c, 0, 78, 0
2, 31212, Note_on_c, 0, 79, 127
2, 31248, Note_on_c, 0, 79, 0
2, 31264, Note_on_c, 0, 81, 34
2, 31292, Note_on_c, 0, 79, 104
2, 31303, Note_on_c, 0, 81, 0
2, 31316, Note_on_c, 0, 79, 0
2, 31320, Note_on_c, 0, 77, 104
2, 31322, Note_on_c, 0, 52, 0
2, 31329, Note_on_c, 0, 59, 0
2, 31330, Note_on_c, 0, 55, 0
2, 31342, Note_on_c, 0, 77, 0
2, 31345, Note_on_c, 0, 62, 0
2, 31345, Note_on_c, 0, 76, 108
2, 31391, Note_on_c, 0, 76, 0
2, 31414, Note_on_c, 0, 74, 127
2, 31418, Note_on_c, 0, 55, 90
2, 31419, Note_on_c, 0, 65, 82
2, 31422, Note_on_c, 0, 61, 71
2, 31431, Note_on_c, 0, 65, 0
2, 31436, Note_on_c, 0, 55, 0
2, 31442, Note_on_c, 0, 74, 0
2, 31455, Note_on_c, 0, 61, 0
2, 31464, Note_on_c, 0, 73, 104
2, 31524, Note_on_c, 0, 73, 0
2, 31539, Note_on_c, 0, 76, 125
2, 31544, Note_on_c, 0, 61, 92
2, 31551, Note_on_c, 0, 61, 0
2, 31560, Note_on_c, 0, 76, 0
2, 31576, Note_on_c, 0, 70, 51
2, 31657, Note_on_c, 0, 65, 77
2, 31658, Note_on_c, 0, 70, 0
2, 31664, Note_on_c, 0, 60, 59
2, 31667, Note_on_c, 0, 65, 0
2, 31671, Note_on_c, 0, 60, 0
2, 31687, Note_on_c, 0, 69, 127
2, 31755, Note_on_c, 0, 69, 0
2, 31770, Note_on_c, 0, 60, 127
2, 32025, Note_on_c, 0, 60, 0
2, 32044, Note_on_c, 0, 63, 123
2, 32120, Note_on_c, 0, 63, 0
2, 32129, Note_on_c, 0, 62, 92
2, 32133, Note_on_c, 0, 59, 65
2, 32136, Note_on_c, 0, 62, 0
2, 32136, Note_on_c, 0, 67, 127
2, 32141, Note_on_c, 0, 55, 53
2, 32145, Note_on_c, 0, 59, 0
2, 32151, Note_on_c, 0, 55, 0
2, 32278, Note_on_c, 0, 67, 0
2, 32288, Note_on_c, 0, 64, 88
2, 32385, Note_on_c, 0, 64, 0
2, 32400, Note_on_c, 0, 55, 90
2, 32466, Note_on_c, 0, 55, 0
2, 32489, Note_on_c, 0, 55, 112
2, 32505, Note_on_c, 0, 55, 0
2, 32644, Note_on_c, 0, 62, 90
2, 32647, Note_on_c, 0, 57, 77
2, 32648, Note_on_c, 0, 58, 69
2, 32650, Note_on_c, 0, 52, 77
2, 32677, Note_on_c, 0, 57, 0
2, 32678, Note_on_c, 0, 62, 0
2, 32680, Note_on_c, 0, 58, 0
2, 32682, Note_on_c, 0, 52, 0
2, 32764, Note_on_c, 0, 62, 98
2, 32767, Note_on_c, 0, 57, 75
2, 32769, Note_on_c, 0, 58, 65
2, 32779, Note_on_c, 0, 52, 34
2, 32813, Note_on_c, 0, 52, 0
2, 32817, Note_on_c, 0, 58, 0
2, 32821, Note_on_c, 0, 62, 0
2, 32824, Note_on_c, 0, 57, 0
2, 33002, Note_on_c, 0, 62, 127
2, 33004, Note_on_c, 0, 57, 100
2, 33007, Note_on_c, 0, 58, 71
2, 33010, Note_on_c, 0, 52, 102
2, 33050, Note_on_c, 0, 52, 0
2, 33063, Note_on_c, 0, 57, 0
2, 33071, Note_on_c, 0, 58, 0
2, 33072, Note_on_c, 0, 62, 0
2, 33207, Note_on_c, 0, 65, 125
2, 33208, Note_on_c, 0, 60, 127
2, 33209, Note_on_c, 0, 61, 94
2, 33220, Note_on_c, 0, 65, 0
2, 33229, Note_on_c, 0, 60, 0
2, 33230, Note_on_c, 0, 61, 0
2, 33250, Note_on_c, 0, 84, 127
2, 33286, Note_on_c, 0, 82, 127
2, 33290, Note_on_c, 0, 84, 0
2, 33314, Note_on_c, 0, 82, 0
2, 33323, Note_on_c, 0, 77, 127
2, 33349, Note_on_c, 0, 77, 0
2, 33359, Note_on_c, 0, 73, 100
2, 33375, Note_on_c, 0, 73, 0
2, 33399, Note_on_c, 0, 72, 94
2, 33425, Note_on_c, 0, 72, 0
2, 33459, Note_on_c, 0, 61, 86
2, 33460, Note_on_c, 0, 65, 100
2, 33462, Note_on_c, 0, 70, 127
2, 33462, Note_on_c, 0, 60, 86
2, 33468, Note_on_c, 0, 65, 0
2, 33470, Note_on_c, 0, 60, 0
2, 33476, Note_on_c, 0, 61, 0
2, 33484, Note_on_c, 0, 70, 0
2, 33512, Note_on_c, 0, 69, 73
2, 33550, Note_on_c, 0, 69, 0
2, 33572, Note_on_c, 0, 70, 127
2, 33575, Note_on_c, 0, 64, 88
2, 33580, Note_on_c, 0, 57, 90
2, 33580, Note_on_c, 0, 60, 73
2, 33584, Note_on_c, 0, 64, 0
2, 33587, Note_on_c, 0, 60, 0
2, 33597, Note_on_c, 0, 57, 0
2, 33604, Note_on_c, 0, 70, 0
2, 33622, Note_on_c, 0, 68, 102
2, 33672, Note_on_c, 0, 68, 0
2, 33690, Note_on_c, 0, 69, 127
2, 33722, Note_on_c, 0, 69, 0
2, 33735, Note_on_c, 0, 67, 120
2, 33805, Note_on_c, 0, 67, 0
2, 33812, Note_on_c, 0, 64, 102
2, 33830, Note_on_c, 0, 64, 0
2, 33845, Note_on_c, 0, 65, 127
2, 33926, Note_on_c, 0, 65, 0
2, 33932, Note_on_c, 0, 62, 59
2, 33952, Note_on_c, 0, 62, 0
2, 33963, Note_on_c, 0, 64, 118
2, 34051, Note_on_c, 0, 60, 98
2, 34053, Note_on_c, 0, 64, 0
2, 34074, Note_on_c, 0, 60, 0
2, 34089, Note_on_c, 0, 63, 102
2, 34169, Note_on_c, 0, 51, 75
2, 34170, Note_on_c, 0, 63, 0
2, 34173, Note_on_c, 0, 58, 67
2, 34187, Note_on_c, 0, 51, 0
2, 34198, Note_on_c, 0, 62, 123
2, 34215, Note_on_c, 0, 58, 0
2, 34292, Note_on_c, 0, 53, 67
2, 34294, Note_on_c, 0, 58, 63
2, 34297, Note_on_c, 0, 62, 0
2, 34304, Note_on_c, 0, 53, 0
2, 34310, Note_on_c, 0, 58, 0
2, 34326, Note_on_c, 0, 60, 123
2, 34404, Note_on_c, 0, 56, 118
2, 34418, Note_on_c, 0, 56, 0
2, 34664, Note_on_c, 0, 60, 0
2, 34682, Note_on_c, 0, 61, 96
2, 34712, Note_on_c, 0, 61, 0
2, 34717, Note_on_c, 0, 59, 61
2, 34752, Note_on_c, 0, 60, 116
2, 34759, Note_on_c, 0, 59, 0
2, 34770, Note_on_c, 0, 60, 0
2, 34783, Note_on_c, 0, 65, 127
2, 34810, Note_on_c, 0, 65, 0
2, 34828, Note_on_c, 0, 63, 38
2, 34850, Note_on_c, 0, 63, 0
2, 34853, Note_on_c, 0, 64, 112
2, 34867, Note_on_c, 0, 64, 0
2, 34885, Note_on_c, 0, 69, 127
2, 34913, Note_on_c, 0, 69, 0
2, 34920, Note_on_c, 0, 66, 127
2, 34942, Note_on_c, 0, 66, 0
2, 34956, Note_on_c, 0, 67, 127
2, 34983, Note_on_c, 0, 67, 0
2, 35167, Note_on_c, 0, 57, 90
2, 35169, Note_on_c, 0, 65, 84
2, 35170, Note_on_c, 0, 62, 71
2, 35212, Note_on_c, 0, 62, 0
2, 35215, Note_on_c, 0, 57, 0
2, 35221, Note_on_c, 0, 65, 0
2, 35289, Note_on_c, 0, 67, 94
2, 35291, Note_on_c, 0, 62, 90
2, 35291, Note_on_c, 0, 56, 100
2, 35349, Note_on_c, 0, 56, 0
2, 35352, Note_on_c, 0, 67, 0
2, 35357, Note_on_c, 0, 62, 0
2, 35372, Note_on_c, 0, 67, 127
2, 35376, Note_on_c, 0, 56, 92
2, 35376, Note_on_c, 0, 62, 123
2, 35389, Note_on_c, 0, 67, 0
2, 35391, Note_on_c, 0, 62, 0
2, 35402, Note_on_c, 0, 56, 0
2, 35524, Note_on_c, 0, 62, 88
2, 35525, Note_on_c, 0, 58, 79
2, 35526, Note_on_c, 0, 57, 90
2, 35584, Note_on_c, 0, 62, 0
2, 35587, Note_on_c, 0, 57, 0
2, 35588, Note_on_c, 0, 58, 0
2, 35736, Note_on_c, 0, 69, 127
2, 35739, Note_on_c, 0, 62, 116
2, 35740, Note_on_c, 0, 58, 94
2, 35744, Note_on_c, 0, 57, 63
2, 35748, Note_on_c, 0, 62, 0
2, 35753, Note_on_c, 0, 57, 0
2, 35759, Note_on_c, 0, 58, 0
2, 35759, Note_on_c, 0, 69, 0
2, 35773, Note_on_c, 0, 72, 127
2, 35804, Note_on_c, 0, 72, 0
2, 35810, Note_on_c, 0, 69, 127
2, 35832, Note_on_c, 0, 69, 0
2, 35850, Note_on_c, 0, 70, 127
2, 35856, Note_on_c, 0, 62, 100
2, 35858, Note_on_c, 0, 58, 77
2, 35863, Note_on_c, 0, 52, 71
2, 35871, Note_on_c, 0, 62, 0
2, 35873, Note_on_c, 0, 52, 0
2, 35881, Note_on_c, 0, 58, 0
2, 35888, Note_on_c, 0, 70, 0
2, 35893, Note_on_c, 0, 66, 96
2, 35924, Note_on_c, 0, 66, 0
2, 35930, Note_on_c, 0, 69, 127
2, 35986, Note_on_c, 0, 69, 0
2, 36006, Note_on_c, 0, 67, 127
2, 36068, Note_on_c, 0, 67, 0
2, 36076, Note_on_c, 0, 47, 114
2, 36079, Note_on_c, 0, 64, 125
2, 36081, Note_on_c, 0, 48, 98
2, 36086, Note_on_c, 0, 47, 0
2, 36103, Note_on_c, 0, 64, 0
2, 36126, Note_on_c, 0, 60, 73
2, 36205, Note_on_c, 0, 60, 0
2, 36207, Note_on_c, 0, 57, 92
2, 36220, Note_on_c, 0, 57, 0
2, 36244, Note_on_c, 0, 48, 0
2, 36247, Note_on_c, 0, 60, 88
2, 36391, Note_on_c, 0, 60, 0
2, 36487, Note_on_c, 0, 57, 67
2, 36494, Note_on_c, 0, 47, 49
2, 36554, Note_on_c, 0, 61, 127
2, 36555, Note_on_c, 0, 73, 127
2, 36563, Note_on_c, 0, 74, 127
2, 36570, Note_on_c, 0, 73, 0
2, 36570, Note_on_c, 0, 61, 0
2, 36571, Note_on_c, 0, 62, 127
2, 36594, Note_on_c, 0, 62, 0
2, 36594, Note_on_c, 0, 74, 0
2, 36623, Note_on_c, 0, 75, 127
2, 36624, Note_on_c, 0, 63, 127
2, 36631, Note_on_c, 0, 76, 127
2, 36636, Note_on_c, 0, 63, 0
2, 36639, Note_on_c, 0, 75, 0
2, 36639, Note_on_c, 0, 64, 127
2, 36662, Note_on_c, 0, 76, 0
2, 36663, Note_on_c, 0, 64, 0
2, 36691, Note_on_c, 0, 66, 127
2, 36692, Note_on_c, 0, 78, 127
2, 36706, Note_on_c, 0, 79, 94
2, 36707, Note_on_c, 0, 47, 0
2, 36709, Note_on_c, 0, 77, 112
2, 36710, Note_on_c, 0, 66, 0
2, 36711, Note_on_c, 0, 78, 0
2, 36711, Note_on_c, 0, 67, 127
2, 36714, Note_on_c, 0, 57, 0
2, 36717, Note_on_c, 0, 77, 0
2, 36726, Note_on_c, 0, 79, 0
2, 36727, Note_on_c, 0, 67, 0
2, 36753, Note_on_c, 0, 80, 118
2, 36753, Note_on_c, 0, 68, 116
2, 36766, Note_on_c, 0, 78, 41
2, 36768, Note_on_c, 0, 80, 0
2, 36770, Note_on_c, 0, 81, 112
2, 36771, Note_on_c, 0, 68, 0
2, 36774, Note_on_c, 0, 69, 127
2, 36787, Note_on_c, 0, 81, 0
2, 36790, Note_on_c, 0, 69, 0
2, 36793, Note_on_c, 0, 78, 0
2, 36815, Note_on_c, 0, 70, 116
2, 36817, Note_on_c, 0, 82, 127
2, 36819, Note_on_c, 0, 56, 69
2, 36819, Note_on_c, 0, 67, 65
2, 36823, Note_on_c, 0, 62, 67
2, 36834, Note_on_c, 0, 82, 0
2, 36835, Note_on_c, 0, 83, 123
2, 36836, Note_on_c, 0, 70, 0
2, 36838, Note_on_c, 0, 80, 38
2, 36839, Note_on_c, 0, 71, 125
2, 36843, Note_on_c, 0, 83, 0
2, 36846, Note_on_c, 0, 71, 0
2, 36849, Note_on_c, 0, 80, 0
2, 36881, Note_on_c, 0, 73, 106
2, 36883, Note_on_c, 0, 85, 120
2, 36889, Note_on_c, 0, 73, 0
2, 36894, Note_on_c, 0, 86, 116
2, 36898, Note_on_c, 0, 74, 125
2, 36913, Note_on_c, 0, 86, 0
2, 36914, Note_on_c, 0, 74, 0
2, 36918, Note_on_c, 0, 85, 0
2, 36921, Note_on_c, 0, 67, 0
2, 36925, Note_on_c, 0, 62, 0
2, 36946, Note_on_c, 0, 75, 104
2, 36947, Note_on_c, 0, 87, 127
2, 36954, Note_on_c, 0, 56, 0
2, 36956, Note_on_c, 0, 75, 0
2, 36958, Note_on_c, 0, 76, 120
2, 36959, Note_on_c, 0, 88, 127
2, 36970, Note_on_c, 0, 87, 0
2, 36974, Note_on_c, 0, 76, 0
2, 36976, Note_on_c, 0, 88, 0
2, 36988, Note_on_c, 0, 57, 55
2, 36999, Note_on_c, 0, 60, 41
2, 37000, Note_on_c, 0, 64, 20
2, 37007, Note_on_c, 0, 75, 71
2, 37007, Note_on_c, 0, 87, 71
2, 37017, Note_on_c, 0, 75, 0
2, 37018, Note_on_c, 0, 87, 0
2, 37018, Note_on_c, 0, 88, 116
2, 37026, Note_on_c, 0, 76, 71
2, 37044, Note_on_c, 0, 88, 0
2, 37046, Note_on_c, 0, 76, 0
2, 37086, Note_on_c, 0, 71, 55
2, 37097, Note_on_c, 0, 83, 34
2, 37101, Note_on_c, 0, 71, 0
2, 37110, Note_on_c, 0, 83, 0
2, 37120, Note_on_c, 0, 64, 0
2, 37130, Note_on_c, 0, 60, 0
2, 37145, Note_on_c, 0, 86, 127
2, 37147, Note_on_c, 0, 74, 82
2, 37151, Note_on_c, 0, 76, 77
2, 37152, Note_on_c, 0, 64, 59
2, 37155, Note_on_c, 0, 60, 49
2, 37160, Note_on_c, 0, 76, 0
2, 37169, Note_on_c, 0, 74, 0
2, 37183, Note_on_c, 0, 86, 0
2, 37194, Note_on_c, 0, 84, 127
2, 37214, Note_on_c, 0, 84, 0
2, 37219, Note_on_c, 0, 64, 0
2, 37224, Note_on_c, 0, 60, 0
2, 37240, Note_on_c, 0, 81, 106
2, 37272, Note_on_c, 0, 81, 0
2, 37291, Note_on_c, 0, 76, 114
2, 37319, Note_on_c, 0, 76, 0
2, 37409, Note_on_c, 0, 71, 49
2, 37416, Note_on_c, 0, 71, 0
2, 37432, Note_on_c, 0, 57, 0
2, 37559, Note_on_c, 0, 64, 49
2, 37560, Note_on_c, 0, 57, 65
2, 37564, Note_on_c, 0, 60, 59
2, 37566, Note_on_c, 0, 55, 45
2, 37573, Note_on_c, 0, 55, 0
2, 37574, Note_on_c, 0, 60, 0
2, 37576, Note_on_c, 0, 64, 0
2, 37587, Note_on_c, 0, 57, 0
2, 37656, Note_on_c, 0, 72, 127
2, 37670, Note_on_c, 0, 64, 84
2, 37670, Note_on_c, 0, 54, 73
2, 37671, Note_on_c, 0, 60, 77
2, 37691, Note_on_c, 0, 72, 0
2, 37694, Note_on_c, 0, 64, 0
2, 37716, Note_on_c, 0, 74, 127
2, 37738, Note_on_c, 0, 60, 0
2, 37759, Note_on_c, 0, 54, 0
2, 37782, Note_on_c, 0, 69, 127
2, 37783, Note_on_c, 0, 54, 57
2, 37789, Note_on_c, 0, 60, 86
2, 37789, Note_on_c, 0, 64, 63
2, 37836, Note_on_c, 0, 74, 0
2, 37888, Note_on_c, 0, 64, 0
2, 37903, Note_on_c, 0, 54, 0
2, 37905, Note_on_c, 0, 60, 0
2, 37930, Note_on_c, 0, 69, 0
2, 37931, Note_on_c, 0, 64, 59
2, 37935, Note_on_c, 0, 60, 73
2, 37941, Note_on_c, 0, 64, 0
2, 37944, Note_on_c, 0, 60, 0
2, 38020, Note_on_c, 0, 77, 110
2, 38034, Note_on_c, 0, 77, 0
2, 38051, Note_on_c, 0, 64, 108
2, 38052, Note_on_c, 0, 60, 98
2, 38054, Note_on_c, 0, 81, 127
2, 38055, Note_on_c, 0, 57, 84
2, 38056, Note_on_c, 0, 53, 69
2, 38057, Note_on_c, 0, 69, 127
2, 38061, Note_on_c, 0, 60, 0
2, 38062, Note_on_c, 0, 64, 0
2, 38064, Note_on_c, 0, 69, 0
2, 38067, Note_on_c, 0, 57, 0
2, 38068, Note_on_c, 0, 53, 0
2, 38070, Note_on_c, 0, 81, 0
2, 38137, Note_on_c, 0, 59, 127
2, 38137, Note_on_c, 0, 53, 127
2, 38138, Note_on_c, 0, 84, 127
2, 38138, Note_on_c, 0, 64, 127
2, 38140, Note_on_c, 0, 72, 127
2, 38146, Note_on_c, 0, 64, 0
2, 38154, Note_on_c, 0, 84, 0
2, 38156, Note_on_c, 0, 53, 0
2, 38157, Note_on_c, 0, 59, 0
2, 38157, Note_on_c, 0, 72, 0
2, 38174, Note_on_c, 0, 53, 94
2, 38176, Note_on_c, 0, 59, 98
2, 38178, Note_on_c, 0, 64, 110
2, 38181, Note_on_c, 0, 83, 127
2, 38181, Note_on_c, 0, 71, 127
2, 38218, Note_on_c, 0, 53, 0
2, 38219, Note_on_c, 0, 64, 0
2, 38220, Note_on_c, 0, 71, 0
2, 38228, Note_on_c, 0, 83, 0
2, 38228, Note_on_c, 0, 59, 0
2, 38253, Note_on_c, 0, 59, 118
2, 38254, Note_on_c, 0, 84, 127
2, 38254, Note_on_c, 0, 64, 120
2, 38255, Note_on_c, 0, 72, 127
2, 38262, Note_on_c, 0, 64, 0
2, 38269, Note_on_c, 0, 84, 0
2, 38270, Note_on_c, 0, 72, 0
2, 38272, Note_on_c, 0, 59, 0
2, 38288, Note_on_c, 0, 59, 127
2, 38288, Note_on_c, 0, 53, 110
2, 38288, Note_on_c, 0, 64, 127
2, 38291, Note_on_c, 0, 86, 127
2, 38292, Note_on_c, 0, 74, 127
2, 38368, Note_on_c, 0, 53, 0
2, 38368, Note_on_c, 0, 59, 0
2, 38371, Note_on_c, 0, 86, 0
2, 38378, Note_on_c, 0, 74, 0
2, 38383, Note_on_c, 0, 64, 0
2, 38409, Note_on_c, 0, 64, 127
2, 38411, Note_on_c, 0, 75, 127
2, 38411, Note_on_c, 0, 60, 127
2, 38411, Note_on_c, 0, 54, 123
2, 38412, Note_on_c, 0, 57, 127
2, 38412, Note_on_c, 0, 81, 127
2, 38412, Note_on_c, 0, 87, 104
2, 38419, Note_on_c, 0, 88, 104
2, 38429, Note_on_c, 0, 75, 0
2, 38429, Note_on_c, 0, 76, 127
2, 38430, Note_on_c, 0, 87, 0
2, 38430, Note_on_c, 0, 86, 79
2, 38432, Note_on_c, 0, 84, 65
2, 38474, Note_on_c, 0, 84, 0
2, 38476, Note_on_c, 0, 81, 0
2, 38479, Note_on_c, 0, 88, 0
2, 38480, Note_on_c, 0, 76, 0
2, 38481, Note_on_c, 0, 86, 0
2, 38481, Note_on_c, 0, 60, 0
2, 38482, Note_on_c, 0, 57, 0
2, 38486, Note_on_c, 0, 54, 0
2, 38486, Note_on_c, 0, 64, 0
2, 38529, Note_on_c, 0, 84, 127
2, 38530, Note_on_c, 0, 72, 127
2, 38533, Note_on_c, 0, 64, 127
2, 38535, Note_on_c, 0, 60, 123
2, 38536, Note_on_c, 0, 57, 114
2, 38538, Note_on_c, 0, 54, 88
2, 38580, Note_on_c, 0, 60, 0
2, 38585, Note_on_c, 0, 64, 0
2, 38585, Note_on_c, 0, 84, 0
2, 38588, Note_on_c, 0, 57, 0
2, 38599, Note_on_c, 0, 72, 0
2, 38601, Note_on_c, 0, 54, 0
2, 38646, Note_on_c, 0, 83, 127
2, 38647, Note_on_c, 0, 71, 127
2, 38648, Note_on_c, 0, 62, 127
2, 38649, Note_on_c, 0, 51, 100
2, 38651, Note_on_c, 0, 57, 112
2, 38700, Note_on_c, 0, 83, 0
2, 38707, Note_on_c, 0, 71, 0
2, 38707, Note_on_c, 0, 62, 0
2, 38709, Note_on_c, 0, 51, 0
2, 38719, Note_on_c, 0, 57, 0
2, 38727, Note_on_c, 0, 79, 100
2, 38728, Note_on_c, 0, 67, 102
2, 38730, Note_on_c, 0, 62, 84
2, 38731, Note_on_c, 0, 57, 57
2, 38734, Note_on_c, 0, 51, 65
2, 38739, Control_c, 0, 64, 127
2, 38792, Note_off_c, 0, 57, 0
2, 38801, Note_off_c, 0, 51, 0
2, 38813, Note_off_c, 0, 67, 0
2, 38819, Note_off_c, 0, 79, 0
2, 38825, Note_off_c, 0, 62, 0
2, 38873, Control_c, 0, 64, 0
2, 38885, Note_on_c, 0, 62, 127
2, 38886, Note_on_c, 0, 82, 127
2, 38887, Note_on_c, 0, 52, 127
2, 38887, Note_on_c, 0, 70, 127
2, 38893, Note_on_c, 0, 62, 0
2, 38894, Note_on_c, 0, 52, 0
2, 38896, Note_on_c, 0, 70, 0
2, 38901, Note_on_c, 0, 82, 0
2, 38947, Control_c, 0, 64, 127
2, 38960, Control_c, 0, 64, 0
2, 38969, Note_on_c, 0, 58, 127
2, 38969, Note_on_c, 0, 62, 127
2, 38969, Note_on_c, 0, 84, 127
2, 38971, Note_on_c, 0, 52, 127
2, 38971, Note_on_c, 0, 72, 127
2, 38978, Note_on_c, 0, 52, 0
2, 38982, Note_on_c, 0, 72, 0
2, 38983, Note_on_c, 0, 84, 0
2, 38983, Note_on_c, 0, 62, 0
2, 38987, Note_on_c, 0, 58, 0
2, 39001, Control_c, 0, 64, 127
2, 39007, Note_on_c, 0, 70, 123
2, 39008, Note_on_c, 0, 82, 120
2, 39012, Note_on_c, 0, 58, 75
2, 39012, Note_on_c, 0, 62, 63
2, 39013, Note_on_c, 0, 52, 82
2, 39022, Note_on_c, 0, 52, 0
2, 39037, Note_on_c, 0, 58, 0
2, 39045, Note_on_c, 0, 62, 0
2, 39048, Note_on_c, 0, 82, 0
2, 39054, Note_on_c, 0, 70, 0
2, 39081, Note_on_c, 0, 81, 127
2, 39084, Note_on_c, 0, 55, 82
2, 39085, Note_on_c, 0, 69, 92
2, 39086, Note_on_c, 0, 61, 100
2, 39089, Control_c, 0, 64, 0
2, 39119, Control_c, 0, 64, 127
2, 39155, Note_off_c, 0, 81, 0
2, 39162, Note_off_c, 0, 61, 0
2, 39202, Note_off_c, 0, 69, 0
2, 39214, Note_on_c, 0, 61, 47
2, 39233, Control_c, 0, 64, 0
2, 39244, Note_on_c, 0, 79, 127
2, 39259, Note_on_c, 0, 55, 0
2, 39282, Note_on_c, 0, 78, 127
2, 39284, Note_on_c, 0, 61, 0
2, 39296, Note_on_c, 0, 79, 0
2, 39310, Note_on_c, 0, 78, 0
2, 39322, Note_on_c, 0, 77, 125
2, 39323, Note_on_c, 0, 53, 49
2, 39324, Note_on_c, 0, 60, 73
2, 39326, Note_on_c, 0, 57, 69
2, 39326, Note_on_c, 0, 64, 38
2, 39353, Note_on_c, 0, 77, 0
2, 39364, Note_on_c, 0, 73, 100
2, 39388, Note_on_c, 0, 73, 0
2, 39405, Note_on_c, 0, 76, 127
2, 39445, Note_on_c, 0, 74, 127
2, 39450, Note_on_c, 0, 76, 0
2, 39484, Note_on_c, 0, 74, 0
2, 39494, Note_on_c, 0, 64, 0
2, 39495, Note_on_c, 0, 69, 90
2, 39525, Note_on_c, 0, 69, 0
2, 39533, Note_on_c, 0, 72, 127
2, 39550, Note_on_c, 0, 60, 0
2, 39571, Note_on_c, 0, 57, 0
2, 39576, Note_on_c, 0, 69, 127
2, 39577, Note_on_c, 0, 72, 0
2, 39583, Note_on_c, 0, 53, 0
2, 39617, Note_on_c, 0, 69, 0
2, 39730, Note_on_c, 0, 63, 92
2, 39730, Note_on_c, 0, 69, 127
2, 39743, Note_on_c, 0, 54, 53
2, 39744, Note_on_c, 0, 63, 0
2, 39757, Note_on_c, 0, 54, 0
2, 39763, Note_on_c, 0, 69, 0
2, 39770, Note_on_c, 0, 66, 127
2, 39793, Note_on_c, 0, 66, 0
2, 39802, Note_on_c, 0, 62, 71
2, 39828, Note_on_c, 0, 62, 0
2, 39831, Note_on_c, 0, 61, 69
2, 39839, Note_on_c, 0, 61, 0
2, 39867, Note_on_c, 0, 67, 127
2, 39900, Note_on_c, 0, 67, 0
2, 39913, Note_on_c, 0, 55, 123
2, 39959, Note_on_c, 0, 55, 0
2, 39978, Note_on_c, 0, 55, 123
2, 40057, Note_on_c, 0, 55, 0
2, 40086, Note_on_c, 0, 55, 125
2, 40107, Note_on_c, 0, 55, 0
2, 40116, Note_on_c, 0, 57, 108
2, 40137, Note_on_c, 0, 57, 0
2, 40148, Note_on_c, 0, 57, 127
2, 40177, Note_on_c, 0, 57, 0
2, 40180, Note_on_c, 0, 59, 127
2, 40202, Note_on_c, 0, 59, 0
2, 40213, Note_on_c, 0, 59, 127
2, 40240, Note_on_c, 0, 59, 0
2, 40247, Note_on_c, 0, 60, 127
2, 40271, Note_on_c, 0, 60, 0
2, 40280, Note_on_c, 0, 60, 116
2, 40301, Note_on_c, 0, 60, 0
2, 40317, Note_on_c, 0, 62, 127
2, 40336, Note_on_c, 0, 62, 0
2, 40362, Note_on_c, 0, 64, 127
2, 40402, Note_on_c, 0, 64, 0
2, 40563, Note_on_c, 0, 62, 98
2, 40564, Note_on_c, 0, 58, 94
2, 40570, Note_on_c, 0, 52, 77
2, 40579, Note_on_c, 0, 52, 0
2, 40586, Note_on_c, 0, 62, 0
2, 40595, Note_on_c, 0, 58, 0
2, 40689, Note_on_c, 0, 60, 116
2, 40690, Note_on_c, 0, 61, 108
2, 40690, Note_on_c, 0, 65, 123
2, 40694, Note_on_c, 0, 55, 123
2, 40746, Note_on_c, 0, 55, 0
2, 40746, Note_on_c, 0, 60, 0
2, 40747, Note_on_c, 0, 61, 0
2, 40748, Note_on_c, 0, 65, 0
2, 40936, Note_on_c, 0, 96, 127
2, 40961, Note_on_c, 0, 96, 0
2, 40978, Note_on_c, 0, 94, 127
2, 41009, Note_on_c, 0, 94, 0
2, 41044, Note_on_c, 0, 85, 127
2, 41084, Note_on_c, 0, 85, 0
2, 41088, Note_on_c, 0, 84, 127
2, 41121, Note_on_c, 0, 84, 0
2, 41158, Note_on_c, 0, 82, 127
2, 41160, Note_on_c, 0, 66, 98
2, 41162, Note_on_c, 0, 61, 86
2, 41167, Note_on_c, 0, 55, 75
2, 41192, Note_on_c, 0, 82, 0
2, 41203, Note_on_c, 0, 81, 88
2, 41218, Note_on_c, 0, 55, 0
2, 41243, Note_on_c, 0, 66, 0
2, 41261, Note_on_c, 0, 81, 0
2, 41266, Note_on_c, 0, 61, 0
2, 41281, Note_on_c, 0, 64, 90
2, 41284, Note_on_c, 0, 60, 73
2, 41284, Note_on_c, 0, 79, 114
2, 41288, Note_on_c, 0, 53, 63
2, 41289, Note_on_c, 0, 57, 77
2, 41304, Note_on_c, 0, 64, 0
2, 41306, Note_on_c, 0, 60, 0
2, 41307, Note_on_c, 0, 79, 0
2, 41313, Note_on_c, 0, 53, 0
2, 41317, Note_on_c, 0, 57, 0
2, 41321, Note_on_c, 0, 76, 96
2, 41349, Note_on_c, 0, 76, 0
2, 41356, Note_on_c, 0, 79, 127
2, 41387, Note_on_c, 0, 79, 0
2, 41400, Note_on_c, 0, 77, 123
2, 41420, Note_on_c, 0, 77, 0
2, 41438, Note_on_c, 0, 73, 110
2, 41465, Note_on_c, 0, 73, 0
2, 41470, Note_on_c, 0, 76, 127
2, 41502, Note_on_c, 0, 76, 0
2, 41506, Note_on_c, 0, 74, 112
2, 41530, Note_on_c, 0, 74, 0
2, 41541, Note_on_c, 0, 69, 120
2, 41559, Note_on_c, 0, 69, 0
2, 41577, Note_on_c, 0, 65, 73
2, 41621, Note_on_c, 0, 65, 0
2, 41662, Note_on_c, 0, 65, 88
2, 41727, Note_on_c, 0, 65, 0
2, 41877, Note_on_c, 0, 63, 61
2, 41880, Note_on_c, 0, 53, 53
2, 41880, Note_on_c, 0, 60, 84
2, 41882, Note_on_c, 0, 56, 73
2, 41924, Note_on_c, 0, 65, 49
2, 41939, Note_on_c, 0, 65, 0
2, 41955, Note_on_c, 0, 67, 82
2, 41984, Note_on_c, 0, 68, 108
2, 41986, Note_on_c, 0, 67, 0
2, 41988, Note_on_c, 0, 60, 0
2, 41989, Note_on_c, 0, 53, 0
2, 42002, Note_on_c, 0, 56, 0
2, 42003, Note_on_c, 0, 68, 0
2, 42005, Note_on_c, 0, 63, 0
2, 42008, Note_on_c, 0, 70, 116
2, 42018, Note_on_c, 0, 70, 0
2, 42035, Note_on_c, 0, 72, 127
2, 42042, Note_on_c, 0, 72, 0
2, 42063, Note_on_c, 0, 74, 127
2, 42073, Note_on_c, 0, 74, 0
2, 42091, Note_on_c, 0, 75, 127
2, 42109, Note_on_c, 0, 75, 0
2, 42122, Note_on_c, 0, 77, 127
2, 42123, Note_on_c, 0, 62, 98
2, 42123, Note_on_c, 0, 67, 67
2, 42126, Note_on_c, 0, 56, 75
2, 42146, Note_on_c, 0, 67, 0
2, 42150, Note_on_c, 0, 77, 0
2, 42155, Note_on_c, 0, 62, 0
2, 42163, Note_on_c, 0, 74, 118
2, 42181, Note_on_c, 0, 74, 0
2, 42183, Note_on_c, 0, 56, 0
2, 42325, Note_on_c, 0, 64, 73
2, 42328, Note_on_c, 0, 60, 86
2, 42330, Note_on_c, 0, 59, 88
2, 42331, Note_on_c, 0, 55, 61
2, 42338, Note_on_c, 0, 60, 0
2, 42339, Note_on_c, 0, 59, 0
2, 42340, Note_on_c, 0, 64, 0
2, 42342, Note_on_c, 0, 55, 0
2, 42498, Note_on_c, 0, 82, 110
2, 42499, Note_on_c, 0, 70, 127
2, 42510, Note_on_c, 0, 80, 71
2, 42514, Note_on_c, 0, 70, 0
2, 42520, Note_on_c, 0, 82, 0
2, 42521, Note_on_c, 0, 71, 100
2, 42526, Note_on_c, 0, 83, 71
2, 42551, Note_on_c, 0, 83, 0
2, 42564, Note_on_c, 0, 71, 0
2, 42571, Note_on_c, 0, 80, 0
2, 42613, Note_on_c, 0, 79, 112
2, 42614, Note_on_c, 0, 67, 118
2, 42665, Note_on_c, 0, 67, 0
2, 42669, Note_on_c, 0, 79, 0
2, 42918, Note_on_c, 0, 85, 127
2, 42919, Note_on_c, 0, 73, 127
2, 42926, Note_on_c, 0, 62, 94
2, 42927, Note_on_c, 0, 65, 102
2, 42928, Note_on_c, 0, 57, 86
2, 42931, Note_on_c, 0, 86, 84
2, 42936, Note_on_c, 0, 85, 0
2, 42940, Note_on_c, 0, 73, 0
2, 42940, Note_on_c, 0, 74, 127
2, 42941, Note_on_c, 0, 84, 53
2, 42954, Note_on_c, 0, 84, 0
2, 42964, Note_on_c, 0, 86, 0
2, 42964, Note_on_c, 0, 74, 0
2, 42970, Note_on_c, 0, 65, 0
2, 42973, Note_on_c, 0, 57, 0
2, 42976, Note_on_c, 0, 62, 0
2, 43003, Note_on_c, 0, 65, 127
2, 43003, Note_on_c, 0, 87, 127
2, 43005, Note_on_c, 0, 57, 118
2, 43005, Note_on_c, 0, 75, 127
2, 43005, Note_on_c, 0, 62, 63
2, 43033, Note_on_c, 0, 85, 36
2, 43039, Note_on_c, 0, 87, 0
2, 43041, Note_on_c, 0, 76, 79
2, 43045, Note_on_c, 0, 57, 0
2, 43048, Note_on_c, 0, 65, 0
2, 43050, Note_on_c, 0, 75, 0
2, 43051, Note_on_c, 0, 76, 0
2, 43054, Note_on_c, 0, 85, 0
2, 43059, Note_on_c, 0, 62, 0
2, 43088, Note_on_c, 0, 82, 127
2, 43089, Note_on_c, 0, 70, 127
2, 43089, Note_on_c, 0, 67, 110
2, 43090, Note_on_c, 0, 62, 82
2, 43095, Note_on_c, 0, 56, 90
2, 43115, Note_on_c, 0, 70, 0
2, 43116, Note_on_c, 0, 83, 94
2, 43117, Note_on_c, 0, 82, 0
2, 43118, Note_on_c, 0, 71, 116
2, 43130, Note_on_c, 0, 71, 0
2, 43131, Note_on_c, 0, 83, 0
2, 43133, Note_on_c, 0, 67, 0
2, 43134, Note_on_c, 0, 62, 0
2, 43151, Note_on_c, 0, 56, 0
2, 43173, Note_on_c, 0, 86, 127
2, 43174, Note_on_c, 0, 64, 102
2, 43175, Note_on_c, 0, 74, 127
2, 43175, Note_on_c, 0, 60, 118
2, 43175, Note_on_c, 0, 55, 102
2, 43178, Note_on_c, 0, 76, 127
2, 43179, Note_on_c, 0, 85, 116
2, 43185, Note_on_c, 0, 76, 0
2, 43194, Note_on_c, 0, 85, 0
2, 43197, Note_on_c, 0, 86, 0
2, 43201, Note_on_c, 0, 64, 0
2, 43201, Note_on_c, 0, 74, 0
2, 43205, Note_on_c, 0, 55, 0
2, 43209, Note_on_c, 0, 60, 0
2, 43245, Note_on_c, 0, 82, 127
2, 43246, Note_on_c, 0, 70, 127
2, 43252, Note_on_c, 0, 60, 118
2, 43254, Note_on_c, 0, 64, 82
2, 43255, Note_on_c, 0, 83, 127
2, 43259, Note_on_c, 0, 70, 0
2, 43259, Note_on_c, 0, 55, 75
2, 43265, Note_on_c, 0, 71, 69
2, 43274, Note_on_c, 0, 82, 0
2, 43277, Note_on_c, 0, 55, 0
2, 43278, Note_on_c, 0, 64, 0
2, 43282, Note_on_c, 0, 83, 0
2, 43286, Note_on_c, 0, 71, 0
2, 43297, Note_on_c, 0, 60, 0
2, 43322, Note_on_c, 0, 79, 82
2, 43325, Note_on_c, 0, 67, 59
2, 43329, Note_on_c, 0, 60, 73
2, 43330, Note_on_c, 0, 64, 73
2, 43332, Note_on_c, 0, 55, 90
2, 43368, Note_on_c, 0, 55, 0
2, 43368, Note_on_c, 0, 64, 0
2, 43371, Note_on_c, 0, 67, 0
2, 43378, Note_on_c, 0, 60, 0
2, 43378, Note_on_c, 0, 79, 0
2, 43407, Note_on_c, 0, 56, 127
2, 43408, Note_on_c, 0, 64, 127
2, 43409, Note_on_c, 0, 81, 127
2, 43409, Note_on_c, 0, 69, 127
2, 43411, Note_on_c, 0, 60, 127
2, 43424, Note_on_c, 0, 69, 0
2, 43427, Note_on_c, 0, 81, 0
2, 43548, Note_on_c, 0, 56, 0
2, 43564, Note_on_c, 0, 64, 0
2, 43567, Note_on_c, 0, 55, 104
2, 43614, Note_on_c, 0, 55, 0
2, 43642, Note_on_c, 0, 74, 123
2, 43642, Note_on_c, 0, 64, 127
2, 43643, Note_on_c, 0, 66, 106
2, 43645, Note_on_c, 0, 62, 94
2, 43650, Note_on_c, 0, 54, 102
2, 43653, Note_on_c, 0, 69, 55
2, 43654, Note_on_c, 0, 64, 0
2, 43655, Note_on_c, 0, 62, 0
2, 43656, Note_on_c, 0, 74, 0
2, 43658, Note_on_c, 0, 66, 0
2, 43659, Note_on_c, 0, 60, 0
2, 43660, Note_on_c, 0, 69, 0
2, 43670, Note_on_c, 0, 54, 0
2, 43742, Note_on_c, 0, 56, 82
2, 43758, Note_on_c, 0, 58, 79
2, 43761, Note_on_c, 0, 56, 0
2, 43763, Note_on_c, 0, 71, 127
2, 43764, Note_on_c, 0, 63, 118
2, 43765, Note_on_c, 0, 60, 127
2, 43766, Note_on_c, 0, 66, 100
2, 43766, Note_on_c, 0, 59, 127
2, 43778, Note_on_c, 0, 58, 0
2, 43790, Note_on_c, 0, 71, 0
2, 43798, Note_on_c, 0, 60, 0
2, 43799, Note_on_c, 0, 66, 0
2, 43804, Note_on_c, 0, 59, 0
2, 43804, Note_on_c, 0, 63, 0
2, 43817, Note_on_c, 0, 69, 108
2, 43820, Note_on_c, 0, 57, 90
2, 43823, Note_on_c, 0, 63, 63
2, 43823, Note_on_c, 0, 60, 75
2, 43824, Note_on_c, 0, 66, 65
2, 43858, Note_on_c, 0, 60, 0
2, 43861, Note_on_c, 0, 57, 0
2, 43864, Note_on_c, 0, 66, 0
2, 43869, Note_on_c, 0, 69, 0
2, 43870, Note_on_c, 0, 63, 0
2, 43900, Note_on_c, 0, 53, 92
2, 43910, Note_on_c, 0, 53, 0
2, 43927, Note_on_c, 0, 57, 112
2, 43928, Note_on_c, 0, 66, 106
2, 43933, Note_on_c, 0, 54, 104
2, 43935, Note_on_c, 0, 60, 71
2, 43936, Note_on_c, 0, 63, 73
2, 44006, Note_on_c, 0, 60, 0
2, 44010, Note_on_c, 0, 63, 0
2, 44016, Note_on_c, 0, 57, 0
2, 44033, Note_on_c, 0, 54, 0
2, 44038, Note_on_c, 0, 66, 0
2, 44046, Note_on_c, 0, 63, 86
2, 44047, Note_on_c, 0, 51, 94
2, 44048, Note_on_c, 0, 57, 90
2, 44057, Note_on_c, 0, 60, 63
2, 44070, Note_on_c, 0, 60, 0
2, 44118, Note_on_c, 0, 57, 0
2, 44142, Note_on_c, 0, 63, 0
2, 44148, Note_on_c, 0, 49, 36
2, 44161, Note_on_c, 0, 59, 88
2, 44164, Note_on_c, 0, 49, 0
2, 44166, Note_on_c, 0, 62, 92
2, 44167, Note_on_c, 0, 51, 0
2, 44167, Note_on_c, 0, 67, 51
2, 44168, Note_on_c, 0, 52, 100
2, 44169, Note_on_c, 0, 64, 55
2, 44197, Control_c, 0, 64, 127
2, 44252, Note_off_c, 0, 59, 0
2, 44259, Note_on_c, 0, 40, 118
2, 44261, Note_on_c, 0, 62, 0
2, 44267, Note_on_c, 0, 64, 0
2, 44268, Note_on_c, 0, 40, 0
2, 44270, Note_on_c, 0, 67, 0
2, 44270, Note_on_c, 0, 52, 0
2, 44484, Note_on_c, 0, 78, 127
2, 44484, Note_on_c, 0, 63, 127
2, 44486, Note_on_c, 0, 72, 127
2, 44486, Note_on_c, 0, 69, 127
2, 44487, Note_on_c, 0, 75, 127
2, 44495, Control_c, 0, 64, 0
2, 44508, Note_off_c, 0, 75, 0
2, 44513, Note_off_c, 0, 63, 0
2, 44515, Note_off_c, 0, 72, 0
2, 44521, Note_off_c, 0, 69, 0
2, 44527, Note_on_c, 0, 60, 112
2, 44535, Note_on_c, 0, 78, 0
2, 44535, Note_on_c, 0, 75, 71
2, 44538, Control_c, 0, 64, 127
2, 44545, Note_on_c, 0, 69, 63
2, 44566, Note_on_c, 0, 69, 0
2, 44592, Note_on_c, 0, 75, 0
2, 44604, Note_on_c, 0, 60, 0
2, 44604, Control_c, 0, 64, 0
2, 44605, Note_on_c, 0, 62, 127
2, 44606, Note_on_c, 0, 77, 127
2, 44607, Note_on_c, 0, 72, 127
2, 44608, Note_on_c, 0, 69, 127
2, 44632, Note_on_c, 0, 72, 0
2, 44633, Note_on_c, 0, 69, 0
2, 44633, Note_on_c, 0, 77, 0
2, 44636, Note_on_c, 0, 62, 0
2, 44721, Note_on_c, 0, 60, 127
2, 44721, Note_on_c, 0, 76, 127
2, 44723, Note_on_c, 0, 69, 127
2, 44724, Note_on_c, 0, 65, 127
2, 44728, Note_on_c, 0, 72, 77
2, 44736, Note_on_c, 0, 72, 0
2, 44740, Note_on_c, 0, 76, 0
2, 44743, Note_on_c, 0, 69, 0
2, 44747, Note_on_c, 0, 65, 0
2, 44754, Note_on_c, 0, 60, 0
2, 44773, Note_on_c, 0, 57, 98
2, 44779, Note_on_c, 0, 72, 77
2, 44779, Note_on_c, 0, 62, 63
2, 44780, Note_on_c, 0, 65, 102
2, 44783, Note_on_c, 0, 69, 69
2, 44799, Control_c, 0, 64, 127
2, 44800, Note_off_c, 0, 69, 0
2, 44803, Note_off_c, 0, 57, 0
2, 44804, Note_off_c, 0, 65, 0
2, 44806, Note_off_c, 0, 62, 0
2, 44807, Note_off_c, 0, 72, 0
2, 44810, Control_c, 0, 64, 0
2, 44849, Note_on_c, 0, 50, 98
2, 44856, Control_c, 0, 64, 127
2, 44861, Note_off_c, 0, 50, 0
2, 44884, Control_c, 0, 64, 0
2, 44898, Note_on_c, 0, 53, 104
2, 44898, Note_on_c, 0, 68, 127
2, 44901, Note_on_c, 0, 59, 125
2, 44902, Note_on_c, 0, 63, 110
2, 44928, Control_c, 0, 64, 127
2, 44969, Note_off_c, 0, 59, 0
2, 44972, Note_off_c, 0, 63, 0
2, 44976, Note_off_c, 0, 53, 0
2, 44985, Note_off_c, 0, 68, 0
2, 44985, Control_c, 0, 64, 0
2, 45006, Note_on_c, 0, 70, 127
2, 45009, Note_on_c, 0, 53, 79
2, 45010, Note_on_c, 0, 63, 112
2, 45011, Note_on_c, 0, 59, 118
2, 45014, Control_c, 0, 64, 127
2, 45029, Note_off_c, 0, 70, 0
2, 45041, Note_off_c, 0, 53, 0
2, 45050, Note_off_c, 0, 59, 0
2, 45053, Note_off_c, 0, 63, 0
2, 45087, Note_on_c, 0, 57, 108
2, 45087, Note_on_c, 0, 67, 102
2, 45088, Note_on_c, 0, 62, 92
2, 45089, Note_on_c, 0, 52, 82
2, 45091, Note_on_c, 0, 43, 73
2, 45094, Control_c, 0, 64, 0
2, 45132, Control_c, 0, 64, 127
2, 45270, Note_off_c, 0, 57, 0
2, 45283, Note_off_c, 0, 62, 0
2, 45288, Note_off_c, 0, 67, 0
2, 45343, Note_off_c, 0, 43, 0
2, 45349, Note_off_c, 0, 52, 0
2, 45364, Note_on_c, 0, 76, 127
2, 45385, Note_on_c, 0, 76, 0
2, 45402, Note_on_c, 0, 76, 127
2, 45430, Note_on_c, 0, 76, 0
2, 45444, Note_on_c, 0, 67, 127
2, 45598, Note_on_c, 0, 43, 88
2, 45606, Note_on_c, 0, 43, 0
2, 45668, Note_on_c, 0, 67, 0
2, 45719, Note_on_c, 0, 79, 127
2, 45737, Note_on_c, 0, 79, 0
2, 45752, Note_on_c, 0, 79, 127
2, 45785, Note_on_c, 0, 79, 0
2, 45801, Note_on_c, 0, 67, 127
2, 45921, Note_on_c, 0, 64, 104
2, 45923, Note_on_c, 0, 60, 110
2, 45929, Note_on_c, 0, 64, 0
2, 45930, Note_on_c, 0, 60, 0
2, 46080, Note_on_c, 0, 67, 0
2, 46084, Note_on_c, 0, 64, 82
2, 46086, Control_c, 0, 64, 0
2, 46089, Note_on_c, 0, 60, 77
2, 46090, Note_on_c, 0, 54, 71
2, 46245, Note_on_c, 0, 60, 0
2, 46251, Note_on_c, 0, 64, 0
2, 46272, Note_on_c, 0, 54, 0
2, 46322, Note_on_c, 0, 62, 63
2, 46324, Note_on_c, 0, 51, 73
2, 46330, Note_on_c, 0, 57, 73
2, 46443, Note_on_c, 0, 86, 127
2, 46472, Note_on_c, 0, 57, 0
2, 46474, Note_on_c, 0, 86, 0
2, 46474, Note_on_c, 0, 51, 0
2, 46476, Note_on_c, 0, 83, 127
2, 46500, Note_on_c, 0, 83, 0
2, 46502, Note_on_c, 0, 62, 0
2, 46508, Note_on_c, 0, 79, 98
2, 46538, Note_on_c, 0, 79, 0
2, 46667, Note_on_c, 0, 62, 67
2, 46671, Note_on_c, 0, 58, 65
2, 46675, Note_on_c, 0, 62, 0
2, 46680, Note_on_c, 0, 58, 0
2, 46786, Note_on_c, 0, 62, 67
2, 46789, Note_on_c, 0, 58, 67
2, 46796, Note_on_c, 0, 62, 0
2, 46805, Note_on_c, 0, 86, 127
2, 46811, Note_on_c, 0, 58, 0
2, 46836, Note_on_c, 0, 83, 127
2, 46837, Note_on_c, 0, 86, 0
2, 46860, Note_on_c, 0, 83, 0
2, 46866, Note_on_c, 0, 79, 114
2, 46898, Note_on_c, 0, 76, 110
2, 46899, Note_on_c, 0, 79, 0
2, 46919, Note_on_c, 0, 76, 0
2, 46923, Note_on_c, 0, 66, 82
2, 46926, Note_on_c, 0, 61, 90
2, 46928, Note_on_c, 0, 84, 127
2, 46929, Note_on_c, 0, 55, 57
2, 46932, Note_on_c, 0, 83, 120
2, 46934, Note_on_c, 0, 66, 0
2, 46939, Note_on_c, 0, 83, 0
2, 46941, Note_on_c, 0, 55, 0
2, 46949, Note_on_c, 0, 84, 0
2, 46954, Note_on_c, 0, 61, 0
2, 46964, Note_on_c, 0, 81, 127
2, 46983, Note_on_c, 0, 81, 0
2, 46991, Note_on_c, 0, 77, 110
2, 47026, Note_on_c, 0, 77, 0
2, 47027, Note_on_c, 0, 73, 88
2, 47035, Note_on_c, 0, 73, 0
2, 47049, Note_on_c, 0, 57, 45
2, 47059, Note_on_c, 0, 79, 127
2, 47060, Note_on_c, 0, 57, 0
2, 47106, Note_on_c, 0, 79, 0
2, 47171, Note_on_c, 0, 76, 127
2, 47198, Note_on_c, 0, 76, 0
2, 47204, Note_on_c, 0, 72, 127
2, 47224, Note_on_c, 0, 72, 0
2, 47236, Note_on_c, 0, 69, 86
2, 47252, Note_on_c, 0, 69, 0
2, 47291, Note_on_c, 0, 75, 127
2, 47324, Note_on_c, 0, 75, 0
2, 47330, Note_on_c, 0, 72, 116
2, 47356, Note_on_c, 0, 72, 0
2, 47362, Note_on_c, 0, 69, 55
2, 47375, Note_on_c, 0, 69, 0
2, 47386, Note_on_c, 0, 66, 86
2, 47401, Note_on_c, 0, 66, 0
2, 47401, Note_on_c, 0, 57, 45
2, 47411, Note_on_c, 0, 57, 0
2, 47415, Note_on_c, 0, 72, 127
2, 47442, Note_on_c, 0, 72, 0
2, 47453, Note_on_c, 0, 66, 114
2, 47482, Note_on_c, 0, 66, 0
2, 47507, Note_on_c, 0, 54, 69
2, 47514, Note_on_c, 0, 57, 63
2, 47523, Note_on_c, 0, 57, 0
2, 47536, Note_on_c, 0, 54, 0
2, 47537, Note_on_c, 0, 71, 127
2, 47565, Note_on_c, 0, 71, 0
2, 47568, Note_on_c, 0, 67, 112
2, 47590, Note_on_c, 0, 67, 0
2, 47602, Note_on_c, 0, 64, 34
2, 47628, Note_on_c, 0, 64, 0
2, 47641, Note_on_c, 0, 55, 41
2, 47648, Note_on_c, 0, 55, 0
2, 47655, Note_on_c, 0, 67, 127
2, 47688, Note_on_c, 0, 67, 0
2, 47700, Note_on_c, 0, 55, 127
2, 47838, Note_on_c, 0, 55, 0
2, 47854, Note_on_c, 0, 50, 82
2, 47863, Note_on_c, 0, 50, 0
2, 47875, Note_on_c, 0, 55, 127
2, 47901, Note_on_c, 0, 55, 0
2, 47910, Note_on_c, 0, 57, 112
2, 47938, Note_on_c, 0, 57, 0
2, 47942, Note_on_c, 0, 59, 100
2, 47973, Note_on_c, 0, 50, 118
2, 47976, Note_on_c, 0, 62, 116
2, 47977, Note_on_c, 0, 59, 0
2, 47978, Note_on_c, 0, 49, 55
2, 47984, Note_on_c, 0, 50, 0
2, 47985, Note_on_c, 0, 49, 0
2, 47999, Note_on_c, 0, 62, 0
2, 48013, Note_on_c, 0, 59, 108
2, 48044, Note_on_c, 0, 59, 0
2, 48046, Note_on_c, 0, 60, 118
2, 48079, Note_on_c, 0, 60, 0
2, 48080, Note_on_c, 0, 62, 104
2, 48100, Note_on_c, 0, 62, 0
2, 48110, Note_on_c, 0, 63, 94
2, 48114, Note_on_c, 0, 56, 47
2, 48121, Note_on_c, 0, 63, 0
2, 48123, Note_on_c, 0, 56, 0
2, 48138, Note_on_c, 0, 64, 108
2, 48147, Note_on_c, 0, 64, 0
2, 48202, Note_on_c, 0, 62, 127
2, 48202, Note_on_c, 0, 58, 104
2, 48203, Note_on_c, 0, 57, 116
2, 48209, Note_on_c, 0, 52, 104
2, 48269, Note_on_c, 0, 69, 127
2, 48286, Note_on_c, 0, 69, 0
2, 48297, Note_on_c, 0, 66, 96
2, 48315, Note_on_c, 0, 66, 0
2, 48322, Note_on_c, 0, 62, 0
2, 48324, Note_on_c, 0, 67, 110
2, 48346, Note_on_c, 0, 67, 0
2, 48346, Note_on_c, 0, 62, 57
2, 48355, Note_on_c, 0, 69, 116
2, 48378, Note_on_c, 0, 69, 0
2, 48387, Note_on_c, 0, 70, 98
2, 48389, Note_on_c, 0, 52, 0
2, 48392, Note_on_c, 0, 57, 0
2, 48396, Note_on_c, 0, 70, 0
2, 48405, Note_on_c, 0, 58, 0
2, 48407, Note_on_c, 0, 62, 0
2, 48412, Note_on_c, 0, 72, 116
2, 48431, Note_on_c, 0, 72, 0
2, 48440, Note_on_c, 0, 73, 127
2, 48460, Note_on_c, 0, 73, 0
2, 48474, Note_on_c, 0, 76, 94
2, 48479, Note_on_c, 0, 66, 75
2, 48483, Note_on_c, 0, 61, 67
2, 48485, Note_on_c, 0, 76, 0
2, 48494, Note_on_c, 0, 55, 49
2, 48511, Note_on_c, 0, 79, 104
2, 48520, Note_on_c, 0, 79, 0
2, 48550, Note_on_c, 0, 84, 127
2, 48563, Note_on_c, 0, 61, 0
2, 48568, Note_on_c, 0, 55, 0
2, 48571, Note_on_c, 0, 84, 0
2, 48572, Note_on_c, 0, 66, 0
2, 48684, Note_on_c, 0, 66, 127
2, 48686, Note_on_c, 0, 61, 114
2, 48695, Note_on_c, 0, 55, 55
2, 48708, Note_on_c, 0, 55, 0
2, 48714, Note_on_c, 0, 66, 0
2, 48724, Note_on_c, 0, 96, 127
2, 48751, Note_on_c, 0, 96, 0
2, 48753, Note_on_c, 0, 94, 127
2, 48774, Note_on_c, 0, 94, 0
2, 48782, Note_on_c, 0, 61, 0
2, 48790, Note_on_c, 0, 96, 127
2, 48816, Note_on_c, 0, 66, 88
2, 48818, Note_on_c, 0, 61, 82
2, 48820, Note_on_c, 0, 94, 127
2, 48826, Note_on_c, 0, 96, 0
2, 48828, Note_on_c, 0, 55, 63
2, 48847, Note_on_c, 0, 66, 0
2, 48848, Note_on_c, 0, 89, 127
2, 48856, Note_on_c, 0, 94, 0
2, 48859, Note_on_c, 0, 55, 0
2, 48863, Note_on_c, 0, 90, 123
2, 48864, Note_on_c, 0, 89, 0
2, 48875, Note_on_c, 0, 90, 0
2, 48881, Note_on_c, 0, 85, 112
2, 48907, Note_on_c, 0, 85, 0
2, 48915, Note_on_c, 0, 84, 92
2, 48929, Note_on_c, 0, 61, 0
2, 48946, Note_on_c, 0, 84, 0
2, 48955, Note_on_c, 0, 82, 71
2, 48962, Note_on_c, 0, 82, 0
2, 48962, Note_on_c, 0, 60, 34
2, 48967, Note_on_c, 0, 57, 38
2, 48976, Note_on_c, 0, 60, 0
2, 48991, Note_on_c, 0, 91, 127
2, 48996, Note_on_c, 0, 57, 0
2, 49033, Note_on_c, 0, 91, 0
2, 49048, Note_on_c, 0, 91, 127
2, 49076, Note_on_c, 0, 91, 0
2, 49092, Note_on_c, 0, 89, 127
2, 49125, Note_on_c, 0, 89, 0
2, 49165, Note_on_c, 0, 64, 77
2, 49165, Note_on_c, 0, 89, 127
2, 49168, Note_on_c, 0, 60, 77
2, 49172, Note_on_c, 0, 53, 59
2, 49172, Note_on_c, 0, 57, 57
2, 49189, Note_on_c, 0, 89, 0
2, 49210, Note_on_c, 0, 88, 116
2, 49243, Note_on_c, 0, 64, 0
2, 49244, Note_on_c, 0, 60, 0
2, 49250, Note_on_c, 0, 88, 0
2, 49250, Note_on_c, 0, 57, 0
2, 49261, Note_on_c, 0, 89, 100
2, 49267, Note_on_c, 0, 53, 0
2, 49289, Note_on_c, 0, 88, 106
2, 49303, Note_on_c, 0, 89, 0
2, 49317, Note_on_c, 0, 84, 127
2, 49320, Note_on_c, 0, 88, 0
2, 49324, Note_on_c, 0, 60, 63
2, 49325, Note_on_c, 0, 53, 49
2, 49327, Note_on_c, 0, 57, 69
2, 49344, Note_on_c, 0, 84, 0
2, 49350, Note_on_c, 0, 60, 0
2, 49354, Note_on_c, 0, 53, 0
2, 49355, Note_on_c, 0, 57, 0
2, 49355, Note_on_c, 0, 81, 79
2, 49389, Note_on_c, 0, 81, 0
2, 49413, Note_on_c, 0, 91, 127
2, 49414, Note_on_c, 0, 79, 127
2, 49415, Note_on_c, 0, 67, 127
2, 49415, Note_on_c, 0, 84, 116
2, 49415, Note_on_c, 0, 64, 110
2, 49416, Note_on_c, 0, 56, 112
2, 49420, Note_on_c, 0, 60, 112
2, 49469, Note_on_c, 0, 84, 0
2, 49496, Note_on_c, 0, 79, 0
2, 49500, Note_on_c, 0, 60, 0
2, 49502, Note_on_c, 0, 64, 0
2, 49502, Note_on_c, 0, 89, 114
2, 49509, Note_on_c, 0, 67, 0
2, 49510, Note_on_c, 0, 91, 0
2, 49511, Note_on_c, 0, 56, 0
2, 49536, Note_on_c, 0, 84, 127
2, 49538, Note_on_c, 0, 89, 0
2, 49554, Note_on_c, 0, 56, 51
2, 49561, Note_on_c, 0, 80, 86
2, 49563, Note_on_c, 0, 60, 55
2, 49564, Note_on_c, 0, 56, 0
2, 49567, Note_on_c, 0, 84, 0
2, 49583, Note_on_c, 0, 80, 0
2, 49586, Note_on_c, 0, 79, 108
2, 49596, Note_on_c, 0, 60, 0
2, 49652, Note_on_c, 0, 79, 0
2, 49809, Note_on_c, 0, 67, 73
2, 49811, Note_on_c, 0, 77, 102
2, 49811, Note_on_c, 0, 62, 71
2, 49812, Note_on_c, 0, 56, 61
2, 49812, Note_on_c, 0, 74, 94
2, 49840, Note_on_c, 0, 67, 0
2, 49842, Note_on_c, 0, 62, 0
2, 49850, Note_on_c, 0, 74, 0
2, 49850, Note_on_c, 0, 77, 0
2, 49874, Note_on_c, 0, 56, 0
2, 49920, Note_on_c, 0, 76, 127
2, 49924, Note_on_c, 0, 64, 61
2, 49924, Note_on_c, 0, 60, 84
2, 49928, Note_on_c, 0, 55, 55
2, 49929, Note_on_c, 0, 59, 67
2, 49931, Note_on_c, 0, 67, 38
2, 49934, Note_on_c, 0, 71, 36
2, 49954, Note_on_c, 0, 67, 0
2, 49960, Note_on_c, 0, 76, 0
2, 49960, Note_on_c, 0, 71, 0
2, 49965, Note_on_c, 0, 64, 0
2, 49971, Note_on_c, 0, 60, 0
2, 49974, Note_on_c, 0, 59, 0
2, 49995, Note_on_c, 0, 55, 0
2, 50061, Control_c, 0, 64, 127
2, 50063, Control_c, 0, 64, 0
2, 50133, Note_on_c, 0, 52, 127
2, 50134, Note_on_c, 0, 51, 73
2, 50134, Note_on_c, 0, 67, 106
2, 50135, Note_on_c, 0, 57, 127
2, 50136, Note_on_c, 0, 62, 127
2, 50141, Note_on_c, 0, 51, 0
2, 50156, Note_on_c, 0, 67, 0
2, 50164, Note_on_c, 0, 57, 0
2, 50171, Note_on_c, 0, 62, 0
2, 50189, Note_on_c, 0, 51, 104
2, 50190, Note_on_c, 0, 52, 0
2, 50192, Note_on_c, 0, 66, 88
2, 50193, Note_on_c, 0, 56, 77
2, 50194, Note_on_c, 0, 61, 102
2, 50237, Note_on_c, 0, 66, 0
2, 50239, Note_on_c, 0, 61, 0
2, 50243, Note_on_c, 0, 56, 0
2, 50260, Note_on_c, 0, 67, 92
2, 50260, Note_on_c, 0, 62, 118
2, 50261, Note_on_c, 0, 52, 120
2, 50262, Note_on_c, 0, 57, 112
2, 50266, Note_on_c, 0, 51, 0
2, 50268, Note_on_c, 0, 62, 0
2, 50269, Note_on_c, 0, 57, 0
2, 50270, Note_on_c, 0, 52, 0
2, 50272, Note_on_c, 0, 67, 0
2, 50301, Control_c, 0, 64, 127
2, 50314, Control_c, 0, 64, 0
2, 50372, Note_on_c, 0, 76, 127
2, 50373, Note_on_c, 0, 65, 127
2, 50375, Note_on_c, 0, 69, 127
2, 50380, Note_on_c, 0, 64, 127
2, 50403, Note_on_c, 0, 64, 0
2, 50405, Note_on_c, 0, 65, 0
2, 50408, Note_on_c, 0, 69, 0
2, 50409, Note_on_c, 0, 76, 0
2, 50427, Note_on_c, 0, 62, 73
2, 50430, Note_on_c, 0, 74, 63
2, 50434, Note_on_c, 0, 65, 67
2, 50464, Note_on_c, 0, 65, 0
2, 50478, Note_on_c, 0, 74, 0
2, 50488, Note_on_c, 0, 64, 127
2, 50490, Note_on_c, 0, 76, 127
2, 50492, Note_on_c, 0, 62, 0
2, 50492, Note_on_c, 0, 65, 127
2, 50493, Note_on_c, 0, 69, 127
2, 50495, Note_on_c, 0, 64, 0
2, 50499, Note_on_c, 0, 65, 0
2, 50500, Note_on_c, 0, 76, 0
2, 50500, Note_on_c, 0, 69, 0
2, 50642, Note_on_c, 0, 67, 127
2, 50643, Note_on_c, 0, 56, 127
2, 50644, Note_on_c, 0, 60, 127
2, 50647, Note_on_c, 0, 62, 108
2, 50649, Note_on_c, 0, 57, 118
2, 50650, Note_on_c, 0, 55, 127
2, 50670, Note_on_c, 0, 55, 0
2, 50689, Note_on_c, 0, 57, 0
2, 50711, Note_on_c, 0, 62, 0
2, 50714, Note_on_c, 0, 60, 0
2, 50714, Note_on_c, 0, 67, 0
2, 50717, Note_on_c, 0, 56, 0
2, 50724, Note_on_c, 0, 56, 77
2, 50725, Note_on_c, 0, 65, 127
2, 50731, Note_on_c, 0, 60, 73
2, 50735, Note_on_c, 0, 62, 94
2, 50736, Note_on_c, 0, 55, 108
2, 50747, Note_on_c, 0, 60, 0
2, 50752, Note_on_c, 0, 65, 0
2, 50754, Note_on_c, 0, 55, 0
2, 50774, Note_on_c, 0, 60, 112
2, 50800, Note_on_c, 0, 52, 24
2, 50817, Note_on_c, 0, 52, 0
2, 50828, Note_on_c, 0, 62, 0
2, 50832, Note_on_c, 0, 60, 0
2, 50851, Note_on_c, 0, 56, 0
2, 50852, Note_on_c, 0, 49, 61
2, 50874, Note_on_c, 0, 49, 0
2, 50882, Note_on_c, 0, 62, 77
2, 50882, Note_on_c, 0, 53, 98
2, 50885, Note_on_c, 0, 50, 94
2, 50890, Note_on_c, 0, 58, 79
2, 50917, Note_on_c, 0, 50, 0
2, 50925, Note_on_c, 0, 53, 0
2, 50941, Note_on_c, 0, 62, 0
2, 50941, Note_on_c, 0, 58, 0
2, 50966, Note_on_c, 0, 43, 82
2, 50975, Note_on_c, 0, 43, 0
2, 51000, Note_on_c, 0, 72, 127
2, 51001, Note_on_c, 0, 59, 127
2, 51003, Note_on_c, 0, 69, 116
2, 51003, Note_on_c, 0, 65, 123
2, 51004, Note_on_c, 0, 62, 112
2, 51053, Note_on_c, 0, 62, 0
2, 51058, Note_on_c, 0, 65, 0
2, 51060, Note_on_c, 0, 69, 0
2, 51061, Note_on_c, 0, 59, 0
2, 51064, Note_on_c, 0, 72, 0
2, 51094, Note_on_c, 0, 58, 120
2, 51104, Note_on_c, 0, 59, 94
2, 51111, Note_on_c, 0, 58, 0
2, 51112, Note_on_c, 0, 59, 0
2, 51123, Note_on_c, 0, 75, 127
2, 51125, Note_on_c, 0, 64, 127
2, 51125, Note_on_c, 0, 70, 127
2, 51128, Note_on_c, 0, 63, 127
2, 51184, Note_on_c, 0, 70, 0
2, 51187, Note_on_c, 0, 64, 0
2, 51188, Note_on_c, 0, 75, 0
2, 51199, Note_on_c, 0, 63, 0
2, 51201, Note_on_c, 0, 73, 127
2, 51203, Note_on_c, 0, 64, 127
2, 51204, Note_on_c, 0, 61, 120
2, 51205, Note_on_c, 0, 68, 127
2, 51207, Note_on_c, 0, 70, 75
2, 51220, Note_on_c, 0, 70, 0
2, 51225, Note_on_c, 0, 73, 0
2, 51225, Note_on_c, 0, 68, 0
2, 51230, Note_on_c, 0, 64, 0
2, 51232, Note_on_c, 0, 61, 0
2, 51270, Note_on_c, 0, 60, 123
2, 51272, Note_on_c, 0, 61, 94
2, 51273, Note_on_c, 0, 64, 88
2, 51281, Note_on_c, 0, 67, 73
2, 51286, Note_on_c, 0, 60, 0
2, 51290, Note_on_c, 0, 61, 0
2, 51292, Note_on_c, 0, 67, 0
2, 51299, Note_on_c, 0, 64, 0
2, 51313, Note_on_c, 0, 60, 82
2, 51322, Note_on_c, 0, 60, 0
2, 51349, Note_on_c, 0, 69, 127
2, 51353, Note_on_c, 0, 64, 73
2, 51353, Note_on_c, 0, 60, 79
2, 51359, Note_on_c, 0, 55, 94
2, 51366, Note_on_c, 0, 60, 0
2, 51369, Note_on_c, 0, 55, 0
2, 51372, Note_on_c, 0, 64, 0
2, 51372, Note_on_c, 0, 69, 0
2, 51426, Note_on_c, 0, 67, 94
2, 51427, Note_on_c, 0, 55, 108
2, 51428, Note_on_c, 0, 57, 102
2, 51432, Note_on_c, 0, 64, 77
2, 51434, Note_on_c, 0, 60, 110
2, 51452, Note_on_c, 0, 64, 0
2, 51456, Note_on_c, 0, 60, 0
2, 51459, Note_on_c, 0, 67, 0
2, 51466, Note_on_c, 0, 55, 0
2, 51471, Note_on_c, 0, 57, 0
2, 51497, Note_on_c, 0, 64, 92
2, 51499, Note_on_c, 0, 60, 88
2, 51499, Note_on_c, 0, 55, 77
2, 51503, Note_on_c, 0, 52, 55
2, 51504, Note_on_c, 0, 57, 75
2, 51518, Note_on_c, 0, 55, 0
2, 51523, Note_on_c, 0, 52, 0
2, 51526, Note_on_c, 0, 64, 0
2, 51529, Note_on_c, 0, 57, 0
2, 51531, Note_on_c, 0, 60, 0
2, 51538, Note_on_c, 0, 48, 49
2, 51559, Note_on_c, 0, 48, 0
2, 51567, Note_on_c, 0, 62, 114
2, 51573, Note_on_c, 0, 57, 102
2, 51574, Note_on_c, 0, 55, 79
2, 51576, Note_on_c, 0, 50, 69
2, 51706, Note_on_c, 0, 55, 0
2, 51728, Control_c, 0, 64, 127
2, 51743, Note_off_c, 0, 57, 0
2, 51749, Note_off_c, 0, 50, 0
2, 51761, Note_off_c, 0, 62, 0
2, 51807, Control_c, 0, 64, 0
2, 51828, Note_on_c, 0, 62, 67
2, 51846, Note_on_c, 0, 76, 127
2, 51849, Note_on_c, 0, 69, 127
2, 51850, Note_on_c, 0, 65, 127
2, 51850, Note_on_c, 0, 64, 127
2, 51850, Note_on_c, 0, 71, 110
2, 51851, Note_on_c, 0, 62, 0
2, 51870, Note_on_c, 0, 69, 0
2, 51870, Note_on_c, 0, 71, 0
2, 51871, Note_on_c, 0, 65, 0
2, 51878, Note_on_c, 0, 76, 0
2, 51880, Note_on_c, 0, 64, 0
2, 51889, Note_on_c, 0, 62, 90
2, 51916, Note_on_c, 0, 62, 0
2, 51919, Note_on_c, 0, 76, 127
2, 51921, Note_on_c, 0, 65, 127
2, 51922, Note_on_c, 0, 69, 127
2, 51924, Note_on_c, 0, 71, 127
2, 51924, Note_on_c, 0, 64, 127
2, 51946, Note_on_c, 0, 65, 0
2, 51952, Note_on_c, 0, 69, 0
2, 51954, Note_on_c, 0, 71, 0
2, 51955, Note_on_c, 0, 76, 0
2, 51957, Note_on_c, 0, 64, 0
2, 51964, Note_on_c, 0, 62, 98
2, 51972, Note_on_c, 0, 74, 102
2, 51975, Note_on_c, 0, 65, 61
2, 51976, Note_on_c, 0, 69, 55
2, 51987, Note_on_c, 0, 69, 0
2, 51990, Note_on_c, 0, 65, 0
2, 52003, Note_on_c, 0, 74, 0
2, 52041, Note_on_c, 0, 62, 0
2, 52045, Note_on_c, 0, 64, 114
2, 52047, Note_on_c, 0, 76, 127
2, 52047, Note_on_c, 0, 71, 125
2, 52048, Note_on_c, 0, 65, 127
2, 52048, Note_on_c, 0, 69, 114
2, 52053, Note_on_c, 0, 74, 75
2, 52055, Note_on_c, 0, 69, 0
2, 52057, Note_on_c, 0, 76, 0
2, 52063, Note_on_c, 0, 65, 0
2, 52066, Note_on_c, 0, 71, 0
2, 52073, Note_on_c, 0, 64, 0
2, 52073, Note_on_c, 0, 74, 0
2, 52086, Note_on_c, 0, 56, 86
2, 52089, Note_on_c, 0, 74, 82
2, 52089, Note_on_c, 0, 62, 79
2, 52091, Note_on_c, 0, 64, 104
2, 52091, Note_on_c, 0, 68, 114
2, 52099, Note_on_c, 0, 71, 84
2, 52111, Note_on_c, 0, 74, 0
2, 52157, Note_on_c, 0, 56, 0
2, 52166, Note_on_c, 0, 68, 0
2, 52166, Note_on_c, 0, 64, 0
2, 52166, Note_on_c, 0, 62, 0
2, 52169, Note_on_c, 0, 71, 0
2, 52203, Note_on_c, 0, 62, 82
2, 52204, Note_on_c, 0, 68, 106
2, 52205, Note_on_c, 0, 64, 94
2, 52207, Note_on_c, 0, 56, 96
2, 52207, Note_on_c, 0, 71, 96
2, 52240, Note_on_c, 0, 62, 0
2, 52290, Note_on_c, 0, 64, 0
2, 52296, Note_on_c, 0, 68, 0
2, 52301, Note_on_c, 0, 71, 0
2, 52301, Note_on_c, 0, 56, 0
2, 52320, Note_on_c, 0, 61, 59
2, 52325, Note_on_c, 0, 74, 127
2, 52325, Note_on_c, 0, 62, 127
2, 52326, Note_on_c, 0, 64, 127
2, 52327, Note_on_c, 0, 67, 127
2, 52328, Note_on_c, 0, 71, 112
2, 52329, Note_on_c, 0, 61, 0
2, 52339, Note_on_c, 0, 71, 0
2, 52342, Note_on_c, 0, 64, 0
2, 52349, Note_on_c, 0, 67, 0
2, 52350, Note_on_c, 0, 74, 0
2, 52358, Note_on_c, 0, 61, 94
2, 52376, Note_on_c, 0, 62, 0
2, 52393, Note_on_c, 0, 61, 0
2, 52399, Note_on_c, 0, 60, 77
2, 52408, Note_on_c, 0, 60, 0
2, 52420, Note_on_c, 0, 59, 96
2, 52442, Note_on_c, 0, 59, 0
2, 52450, Note_on_c, 0, 74, 127
2, 52452, Note_on_c, 0, 62, 127
2, 52453, Note_on_c, 0, 65, 125
2, 52515, Note_on_c, 0, 74, 0
2, 52520, Note_on_c, 0, 62, 0
2, 52522, Note_on_c, 0, 65, 0
2, 52531, Note_on_c, 0, 59, 75
2, 52543, Note_on_c, 0, 59, 0
2, 52563, Note_on_c, 0, 72, 92
2, 52564, Note_on_c, 0, 60, 106
2, 52565, Note_on_c, 0, 64, 106
2, 52566, Note_on_c, 0, 67, 90
2, 52579, Note_on_c, 0, 67, 0
2, 52592, Note_on_c, 0, 72, 0
2, 52598, Note_on_c, 0, 64, 0
2, 52603, Note_on_c, 0, 68, 51
2, 52622, Note_on_c, 0, 68, 0
2, 52624, Note_on_c, 0, 60, 0
2, 52644, Note_on_c, 0, 64, 84
2, 52646, Note_on_c, 0, 60, 116
2, 52650, Note_on_c, 0, 55, 104
2, 52723, Note_on_c, 0, 55, 0
2, 52761, Note_on_c, 0, 60, 0
2, 52789, Note_on_c, 0, 64, 0
2, 52929, Note_on_c, 0, 74, 127
2, 52929, Note_on_c, 0, 60, 127
2, 52930, Note_on_c, 0, 67, 127
2, 52931, Note_on_c, 0, 64, 127
2, 52947, Note_on_c, 0, 64, 0
2, 52947, Note_on_c, 0, 67, 0
2, 52954, Note_on_c, 0, 74, 0
2, 52965, Note_on_c, 0, 71, 125
2, 52974, Note_on_c, 0, 71, 0
2, 52976, Note_on_c, 0, 60, 0
2, 53011, Note_on_c, 0, 68, 127
2, 53011, Note_on_c, 0, 60, 127
2, 53013, Note_on_c, 0, 64, 127
2, 53018, Note_on_c, 0, 54, 127
2, 53153, Note_on_c, 0, 54, 0
2, 53156, Note_on_c, 0, 64, 0
2, 53164, Note_on_c, 0, 68, 0
2, 53178, Note_on_c, 0, 69, 127
2, 53178, Note_on_c, 0, 54, 110
2, 53182, Note_on_c, 0, 64, 63
2, 53182, Note_on_c, 0, 68, 51
2, 53190, Note_on_c, 0, 68, 0
2, 53198, Note_on_c, 0, 64, 0
2, 53205, Note_on_c, 0, 54, 0
2, 53208, Note_on_c, 0, 60, 0
2, 53218, Note_on_c, 0, 69, 0
2, 53297, Note_on_c, 0, 79, 127
2, 53298, Note_on_c, 0, 69, 127
2, 53298, Note_on_c, 0, 64, 127
2, 53300, Note_on_c, 0, 72, 127
2, 53307, Note_on_c, 0, 72, 0
2, 53311, Note_on_c, 0, 69, 0
2, 53312, Note_on_c, 0, 79, 0
2, 53319, Note_on_c, 0, 64, 0
2, 53336, Note_on_c, 0, 60, 100
2, 53357, Note_on_c, 0, 60, 0
2, 53367, Note_on_c, 0, 79, 127
2, 53368, Note_on_c, 0, 69, 127
2, 53369, Note_on_c, 0, 72, 127
2, 53370, Note_on_c, 0, 64, 127
2, 53438, Control_c, 0, 64, 127
2, 53475, Note_off_c, 0, 64, 0
2, 53477, Note_off_c, 0, 72, 0
2, 53486, Note_off_c, 0, 69, 0
2, 53495, Note_off_c, 0, 79, 0
2, 53535, Note_on_c, 0, 76, 108
2, 53536, Note_on_c, 0, 67, 90
2, 53536, Note_on_c, 0, 72, 102
2, 53537, Control_c, 0, 64, 0
2, 53537, Note_on_c, 0, 55, 69
2, 53538, Note_on_c, 0, 65, 45
2, 53539, Note_on_c, 0, 57, 69
2, 53539, Note_on_c, 0, 60, 65
2, 53544, Note_on_c, 0, 67, 0
2, 53545, Note_on_c, 0, 72, 0
2, 53546, Note_on_c, 0, 65, 0
2, 53547, Note_on_c, 0, 55, 0
2, 53548, Note_on_c, 0, 60, 0
2, 53551, Note_on_c, 0, 57, 0
2, 53554, Note_on_c, 0, 76, 0
2, 53581, Control_c, 0, 64, 127
2, 53622, Control_c, 0, 64, 0
2, 53652, Control_c, 0, 64, 127
2, 53654, Note_on_c, 0, 65, 65
2, 53654, Note_on_c, 0, 60, 79
2, 53662, Note_on_c, 0, 57, 45
2, 53663, Note_on_c, 0, 60, 0
2, 53663, Note_on_c, 0, 65, 0
2, 53663, Note_on_c, 0, 55, 34
2, 53672, Note_on_c, 0, 55, 0
2, 53674, Note_on_c, 0, 57, 0
2, 53756, Control_c, 0, 64, 0
2, 53771, Note_on_c, 0, 64, 127
2, 53772, Note_on_c, 0, 60, 127
2, 53772, Note_on_c, 0, 54, 127
2, 53773, Note_on_c, 0, 96, 127
2, 53774, Note_on_c, 0, 84, 127
2, 53779, Note_on_c, 0, 60, 0
2, 53785, Note_on_c, 0, 54, 0
2, 53786, Note_on_c, 0, 64, 0
2, 53787, Note_on_c, 0, 84, 0
2, 53787, Note_on_c, 0, 96, 0
2, 53813, Control_c, 0, 64, 127
2, 53839, Control_c, 0, 64, 0
2, 53889, Note_on_c, 0, 60, 127
2, 53891, Control_c, 0, 64, 127
2, 53891, Note_on_c, 0, 93, 127
2, 53892, Note_on_c, 0, 54, 127
2, 53892, Note_on_c, 0, 81, 127
2, 53894, Note_on_c, 0, 65, 84
2, 53896, Note_on_c, 0, 64, 84
2, 53902, Note_on_c, 0, 65, 0
2, 53904, Note_on_c, 0, 81, 0
2, 53904, Note_on_c, 0, 64, 0
2, 53906, Note_on_c, 0, 93, 0
2, 53907, Note_on_c, 0, 60, 0
2, 53912, Note_on_c, 0, 54, 0
2, 53926, Control_c, 0, 64, 0
2, 54004, Control_c, 0, 64, 127
2, 54008, Note_on_c, 0, 62, 127
2, 54009, Note_on_c, 0, 51, 127
2, 54011, Note_on_c, 0, 95, 127
2, 54011, Note_on_c, 0, 57, 114
2, 54012, Note_on_c, 0, 83, 127
2, 54024, Note_on_c, 0, 62, 0
2, 54028, Note_on_c, 0, 57, 0
2, 54036, Note_on_c, 0, 51, 0
2, 54037, Note_on_c, 0, 95, 0
2, 54038, Note_on_c, 0, 83, 0
2, 54109, Control_c, 0, 64, 0
2, 54127, Note_on_c, 0, 71, 127
2, 54127, Note_on_c, 0, 57, 116
2, 54127, Note_on_c, 0, 83, 127
2, 54129, Note_on_c, 0, 62, 112
2, 54129, Note_on_c, 0, 51, 108
2, 54137, Control_c, 0, 64, 127
2, 54160, Note_off_c, 0, 57, 0
2, 54160, Note_off_c, 0, 71, 0
2, 54162, Note_off_c, 0, 51, 0
2, 54176, Note_off_c, 0, 83, 0
2, 54181, Note_off_c, 0, 62, 0
2, 54227, Control_c, 0, 64, 0
2, 54241, Note_on_c, 0, 62, 127
2, 54243, Note_on_c, 0, 58, 127
2, 54243, Note_on_c, 0, 52, 127
2, 54245, Note_on_c, 0, 79, 127
2, 54245, Note_on_c, 0, 91, 127
2, 54251, Note_on_c, 0, 52, 0
2, 54254, Note_on_c, 0, 62, 0
2, 54257, Note_on_c, 0, 58, 0
2, 54260, Note_on_c, 0, 79, 0
2, 54264, Note_on_c, 0, 91, 0
2, 54328, Note_on_c, 0, 58, 127
2, 54330, Note_on_c, 0, 62, 127
2, 54333, Note_on_c, 0, 52, 118
2, 54333, Note_on_c, 0, 93, 127
2, 54334, Note_on_c, 0, 81, 127
2, 54338, Note_on_c, 0, 62, 0
2, 54339, Note_on_c, 0, 52, 0
2, 54344, Note_on_c, 0, 81, 0
2, 54344, Note_on_c, 0, 58, 0
2, 54350, Note_on_c, 0, 93, 0
2, 54368, Note_on_c, 0, 58, 116
2, 54369, Control_c, 0, 64, 127
2, 54369, Note_on_c, 0, 79, 127
2, 54371, Note_on_c, 0, 62, 110
2, 54371, Note_on_c, 0, 91, 112
2, 54371, Note_on_c, 0, 52, 108
2, 54380, Note_on_c, 0, 52, 0
2, 54385, Note_on_c, 0, 79, 0
2, 54389, Note_on_c, 0, 91, 0
2, 54393, Note_on_c, 0, 62, 0
2, 54394, Note_on_c, 0, 58, 0
2, 54445, Note_on_c, 0, 94, 127
2, 54446, Note_on_c, 0, 82, 127
2, 54446, Note_on_c, 0, 55, 127
2, 54447, Note_on_c, 0, 61, 127
2, 54448, Note_on_c, 0, 65, 127
2, 54448, Control_c, 0, 64, 0
2, 54481, Control_c, 0, 64, 127
2, 54563, Note_off_c, 0, 94, 0
2, 54565, Note_off_c, 0, 55, 0
2, 54570, Note_off_c, 0, 82, 0
2, 54576, Note_off_c, 0, 61, 0
2, 54578, Note_off_c, 0, 65, 0
2, 54589, Control_c, 0, 64, 0
2, 54606, Note_on_c, 0, 61, 96
2, 54606, Note_on_c, 0, 55, 116
2, 54606, Note_on_c, 0, 84, 127
2, 54606, Note_on_c, 0, 96, 88
2, 54607, Note_on_c, 0, 65, 96
2, 54614, Control_c, 0, 64, 127
2, 54614, Note_on_c, 0, 95, 49
2, 54627, Note_on_c, 0, 95, 0
2, 54628, Note_on_c, 0, 96, 0
2, 54640, Note_on_c, 0, 84, 0
2, 54660, Note_on_c, 0, 65, 0
2, 54664, Note_on_c, 0, 55, 0
2, 54677, Note_on_c, 0, 61, 0
2, 54714, Control_c, 0, 64, 0
2, 54722, Note_on_c, 0, 65, 96
2, 54723, Note_on_c, 0, 81, 110
2, 54724, Note_on_c, 0, 60, 104
2, 54724, Note_on_c, 0, 93, 96
2, 54725, Note_on_c, 0, 55, 63
2, 54726, Note_on_c, 0, 57, 94
2, 54726, Note_on_c, 0, 88, 82
2, 54758, Note_on_c, 0, 81, 0
2, 54759, Note_on_c, 0, 55, 0
2, 54760, Control_c, 0, 64, 127
2, 54761, Note_off_c, 0, 65, 0
2, 54761, Note_off_c, 0, 60, 0
2, 54762, Note_off_c, 0, 93, 0
2, 54763, Note_off_c, 0, 88, 0
2, 54765, Note_off_c, 0, 57, 0
2, 54808, Note_on_c, 0, 55, 127
2, 54809, Control_c, 0, 64, 0
2, 54809, Note_on_c, 0, 65, 114
2, 54809, Note_on_c, 0, 57, 112
2, 54810, Note_on_c, 0, 95, 127
2, 54810, Note_on_c, 0, 60, 120
2, 54810, Note_on_c, 0, 88, 127
2, 54811, Note_on_c, 0, 83, 127
2, 54821, Note_on_c, 0, 65, 0
2, 54823, Note_on_c, 0, 83, 0
2, 54825, Note_on_c, 0, 55, 0
2, 54826, Note_on_c, 0, 95, 0
2, 54827, Note_on_c, 0, 88, 0
2, 54830, Note_on_c, 0, 57, 0
2, 54830, Note_on_c, 0, 60, 0
2, 54843, Control_c, 0, 64, 127
2, 54844, Note_on_c, 0, 55, 127
2, 54844, Note_on_c, 0, 65, 127
2, 54847, Note_on_c, 0, 60, 127
2, 54848, Note_on_c, 0, 84, 127
2, 54849, Note_on_c, 0, 96, 127
2, 54849, Note_on_c, 0, 57, 127
2, 54881, Note_on_c, 0, 55, 0
2, 54884, Note_on_c, 0, 57, 0
2, 54891, Note_on_c, 0, 65, 0
2, 54894, Note_on_c, 0, 84, 0
2, 54897, Note_on_c, 0, 96, 0
2, 54912, Note_on_c, 0, 60, 0
2, 54924, Note_on_c, 0, 60, 96
2, 54925, Note_on_c, 0, 63, 127
2, 54928, Note_on_c, 0, 96, 127
2, 54928, Note_on_c, 0, 54, 127
2, 54929, Note_on_c, 0, 84, 127
2, 54929, Note_on_c, 0, 90, 127
2, 54930, Note_on_c, 0, 57, 127
2, 54931, Control_c, 0, 64, 0
2, 54931, Note_on_c, 0, 93, 127
2, 54972, Control_c, 0, 64, 127
2, 55015, Note_off_c, 0, 93, 0
2, 55020, Note_off_c, 0, 96, 0
2, 55030, Note_off_c, 0, 84, 0
2, 55036, Note_off_c, 0, 54, 0
2, 55039, Note_off_c, 0, 90, 0
2, 55041, Note_off_c, 0, 60, 0
2, 55042, Note_off_c, 0, 63, 0
2, 55043, Note_off_c, 0, 57, 0
2, 55055, Note_on_c, 0, 63, 127
2, 55056, Note_on_c, 0, 95, 127
2, 55057, Note_on_c, 0, 54, 116
2, 55059, Note_on_c, 0, 83, 127
2, 55062, Note_on_c, 0, 60, 108
2, 55063, Note_on_c, 0, 57, 110
2, 55068, Note_on_c, 0, 60, 0
2, 55069, Note_on_c, 0, 93, 51
2, 55075, Control_c, 0, 64, 0
2, 55076, Note_off_c, 0, 63, 0
2, 55080, Note_off_c, 0, 93, 0
2, 55082, Note_off_c, 0, 83, 0
2, 55083, Note_off_c, 0, 95, 0
2, 55092, Note_on_c, 0, 63, 102
2, 55100, Control_c, 0, 64, 127
2, 55101, Note_on_c, 0, 60, 63
2, 55102, Note_on_c, 0, 93, 96
2, 55104, Note_on_c, 0, 81, 90
2, 55125, Note_on_c, 0, 60, 0
2, 55128, Note_on_c, 0, 57, 0
2, 55136, Note_on_c, 0, 81, 0
2, 55139, Note_on_c, 0, 63, 0
2, 55139, Note_on_c, 0, 93, 0
2, 55141, Note_on_c, 0, 54, 0
2, 55166, Note_on_c, 0, 62, 116
2, 55169, Note_on_c, 0, 95, 127
2, 55170, Note_on_c, 0, 59, 108
2, 55170, Note_on_c, 0, 91, 116
2, 55170, Note_on_c, 0, 83, 127
2, 55170, Note_on_c, 0, 88, 127
2, 55173, Note_on_c, 0, 55, 114
2, 55174, Note_on_c, 0, 52, 92
2, 55180, Control_c, 0, 64, 0
2, 55227, Control_c, 0, 64, 127
2, 55259, Note_off_c, 0, 95, 0
2, 55283, Note_off_c, 0, 91, 0
2, 55290, Note_off_c, 0, 88, 0
2, 55305, Note_off_c, 0, 83, 0
2, 55354, Note_off_c, 0, 59, 0
2, 55355, Note_off_c, 0, 62, 0
2, 55429, Note_off_c, 0, 52, 0
2, 55432, Note_on_c, 0, 57, 120
2, 55438, Note_on_c, 0, 55, 0
2, 55443, Control_c, 0, 64, 0
2, 55446, Note_on_c, 0, 74, 127
2, 55447, Note_on_c, 0, 67, 127
2, 55447, Note_on_c, 0, 64, 127
2, 55448, Note_on_c, 0, 59, 127
2, 55460, Note_on_c, 0, 57, 0
2, 55491, Note_on_c, 0, 74, 0
2, 55491, Control_c, 0, 64, 127
2, 55510, Note_off_c, 0, 64, 0
2, 55510, Note_off_c, 0, 67, 0
2, 55530, Note_on_c, 0, 64, 112
2, 55531, Note_on_c, 0, 72, 112
2, 55532, Note_on_c, 0, 59, 0
2, 55533, Note_on_c, 0, 57, 102
2, 55533, Note_on_c, 0, 67, 104
2, 55541, Note_on_c, 0, 67, 0
2, 55547, Note_on_c, 0, 72, 0
2, 55553, Note_on_c, 0, 64, 0
2, 55555, Control_c, 0, 64, 0
2, 55571, Note_on_c, 0, 71, 116
2, 55574, Note_on_c, 0, 62, 79
2, 55578, Note_on_c, 0, 55, 112
2, 55578, Note_on_c, 0, 67, 86
2, 55587, Note_on_c, 0, 57, 0
2, 55591, Control_c, 0, 64, 127
2, 55601, Note_off_c, 0, 71, 0
2, 55601, Note_off_c, 0, 67, 0
2, 55610, Note_off_c, 0, 62, 0
2, 55653, Note_off_c, 0, 55, 0
2, 55680, Control_c, 0, 64, 0
2, 55685, Note_on_c, 0, 62, 92
2, 55686, Note_on_c, 0, 70, 94
2, 55688, Note_on_c, 0, 58, 79
2, 55688, Note_on_c, 0, 67, 65
2, 55688, Note_on_c, 0, 52, 71
2, 55690, Note_on_c, 0, 65, 75
2, 55806, Control_c, 0, 64, 127
2, 55841, Note_off_c, 0, 58, 0
2, 55848, Note_off_c, 0, 67, 0
2, 55855, Note_off_c, 0, 62, 0
2, 55855, Note_off_c, 0, 65, 0
2, 55902, Note_off_c, 0, 70, 0
2, 55911, Control_c, 0, 64, 0
2, 55916, Control_c, 0, 64, 127
2, 55920, Note_on_c, 0, 62, 100
2, 55922, Note_on_c, 0, 67, 57
2, 55922, Note_on_c, 0, 58, 67
2, 55925, Note_on_c, 0, 65, 65
2, 55933, Note_on_c, 0, 52, 0
2, 55935, Note_on_c, 0, 62, 0
2, 55935, Note_on_c, 0, 65, 0
2, 55937, Note_on_c, 0, 67, 0
2, 55940, Note_on_c, 0, 58, 0
2, 56046, Note_on_c, 0, 76, 127
2, 56047, Note_on_c, 0, 73, 127
2, 56047, Note_on_c, 0, 84, 127
2, 56049, Note_on_c, 0, 72, 127
2, 56051, Note_on_c, 0, 82, 125
2, 56052, Note_on_c, 0, 79, 127
2, 56053, Control_c, 0, 64, 0
2, 56069, Note_off_c, 0, 73, 0
2, 56071, Note_off_c, 0, 82, 0
2, 56071, Note_off_c, 0, 79, 0
2, 56074, Note_off_c, 0, 84, 0
2, 56074, Note_off_c, 0, 76, 0
2, 56077, Note_off_c, 0, 72, 0
2, 56123, Note_on_c, 0, 76, 127
2, 56124, Note_on_c, 0, 72, 127
2, 56124, Note_on_c, 0, 84, 127
2, 56125, Note_on_c, 0, 73, 127
2, 56128, Note_on_c, 0, 82, 102
2, 56128, Note_on_c, 0, 79, 123
2, 56169, Note_on_c, 0, 84, 0
2, 56172, Note_on_c, 0, 79, 0
2, 56173, Note_on_c, 0, 76, 0
2, 56174, Note_on_c, 0, 82, 0
2, 56183, Note_on_c, 0, 71, 112
2, 56186, Note_on_c, 0, 72, 0
2, 56190, Note_on_c, 0, 73, 0
2, 56207, Note_on_c, 0, 70, 108
2, 56208, Note_on_c, 0, 71, 0
2, 56225, Note_on_c, 0, 73, 127
2, 56226, Note_on_c, 0, 81, 127
2, 56230, Note_on_c, 0, 69, 96
2, 56230, Note_on_c, 0, 76, 116
2, 56233, Note_on_c, 0, 71, 73
2, 56240, Note_on_c, 0, 71, 0
2, 56243, Note_on_c, 0, 70, 0
2, 56244, Note_on_c, 0, 69, 0
2, 56248, Note_on_c, 0, 73, 0
2, 56248, Note_on_c, 0, 81, 0
2, 56249, Note_on_c, 0, 76, 0
2, 56278, Note_on_c, 0, 69, 127
2, 56279, Note_on_c, 0, 81, 127
2, 56279, Note_on_c, 0, 73, 123
2, 56280, Note_on_c, 0, 70, 127
2, 56285, Note_on_c, 0, 76, 75
2, 56300, Note_on_c, 0, 76, 0
2, 56300, Note_on_c, 0, 81, 0
2, 56305, Note_on_c, 0, 68, 100
2, 56307, Note_on_c, 0, 73, 0
2, 56310, Note_on_c, 0, 70, 0
2, 56314, Note_on_c, 0, 69, 0
2, 56315, Note_on_c, 0, 68, 0
2, 56320, Note_on_c, 0, 67, 112
2, 56341, Note_on_c, 0, 67, 0
2, 56343, Note_on_c, 0, 78, 116
2, 56351, Note_on_c, 0, 70, 98
2, 56351, Note_on_c, 0, 67, 96
2, 56352, Note_on_c, 0, 73, 90
2, 56354, Note_on_c, 0, 66, 75
2, 56362, Note_on_c, 0, 67, 0
2, 56366, Note_on_c, 0, 70, 0
2, 56368, Note_on_c, 0, 66, 0
2, 56369, Note_on_c, 0, 73, 0
2, 56370, Note_on_c, 0, 78, 0
2, 56401, Note_on_c, 0, 66, 116
2, 56402, Note_on_c, 0, 78, 127
2, 56404, Note_on_c, 0, 70, 127
2, 56407, Note_on_c, 0, 67, 100
2, 56407, Note_on_c, 0, 73, 116
2, 56428, Note_on_c, 0, 66, 0
2, 56431, Note_on_c, 0, 73, 0
2, 56432, Note_on_c, 0, 67, 0
2, 56434, Note_on_c, 0, 70, 0
2, 56434, Note_on_c, 0, 78, 0
2, 56436, Note_on_c, 0, 65, 100
2, 56447, Note_on_c, 0, 65, 0
2, 56465, Note_on_c, 0, 64, 82
2, 56467, Note_on_c, 0, 68, 59
2, 56474, Note_on_c, 0, 68, 0
2, 56480, Note_on_c, 0, 75, 112
2, 56481, Note_on_c, 0, 70, 127
2, 56482, Note_on_c, 0, 64, 0
2, 56484, Note_on_c, 0, 67, 108
2, 56485, Note_on_c, 0, 63, 77
2, 56502, Note_on_c, 0, 67, 0
2, 56508, Note_on_c, 0, 63, 0
2, 56510, Note_on_c, 0, 70, 0
2, 56513, Note_on_c, 0, 75, 0
2, 56542, Note_on_c, 0, 63, 98
2, 56542, Note_on_c, 0, 75, 127
2, 56547, Note_on_c, 0, 70, 114
2, 56547, Note_on_c, 0, 67, 94
2, 56547, Note_on_c, 0, 64, 116
2, 56562, Note_on_c, 0, 63, 0
2, 56570, Note_on_c, 0, 67, 0
2, 56570, Note_on_c, 0, 62, 102
2, 56571, Note_on_c, 0, 75, 0
2, 56572, Note_on_c, 0, 70, 0
2, 56573, Note_on_c, 0, 64, 0
2, 56597, Note_on_c, 0, 62, 0
2, 56603, Note_on_c, 0, 61, 88
2, 56639, Note_on_c, 0, 61, 0
2, 56646, Note_on_c, 0, 60, 127
2, 56704, Note_on_c, 0, 60, 0
2, 56720, Note_on_c, 0, 65, 116
2, 56721, Note_on_c, 0, 62, 104
2, 56724, Note_on_c, 0, 57, 102
2, 56725, Note_on_c, 0, 69, 71
2, 56730, Note_on_c, 0, 62, 0
2, 56733, Note_on_c, 0, 57, 0
2, 56734, Note_on_c, 0, 65, 0
2, 56735, Note_on_c, 0, 69, 0
2, 56841, Note_on_c, 0, 61, 127
2, 56842, Note_on_c, 0, 76, 127
2, 56843, Note_on_c, 0, 70, 127
2, 56844, Note_on_c, 0, 73, 127
2, 56868, Note_on_c, 0, 70, 0
2, 56871, Note_on_c, 0, 76, 0
2, 56873, Note_on_c, 0, 61, 0
2, 56874, Note_on_c, 0, 73, 0
2, 56882, Note_on_c, 0, 79, 127
2, 56883, Note_on_c, 0, 64, 123
2, 56884, Note_on_c, 0, 70, 108
2, 56884, Note_on_c, 0, 73, 114
2, 56903, Note_on_c, 0, 79, 0
2, 56908, Note_on_c, 0, 70, 0
2, 56910, Note_on_c, 0, 73, 0
2, 56920, Note_on_c, 0, 64, 0
2, 56924, Note_on_c, 0, 63, 118
2, 56951, Note_on_c, 0, 63, 0
2, 56967, Note_on_c, 0, 62, 127
2, 57004, Note_on_c, 0, 62, 0
2, 57007, Note_on_c, 0, 61, 120
2, 57012, Note_on_c, 0, 76, 96
2, 57014, Note_on_c, 0, 65, 75
2, 57021, Note_on_c, 0, 69, 61
2, 57033, Note_on_c, 0, 65, 0
2, 57035, Note_on_c, 0, 69, 0
2, 57044, Note_on_c, 0, 76, 0
2, 57073, Note_on_c, 0, 61, 0
2, 57084, Note_on_c, 0, 60, 127
2, 57086, Note_on_c, 0, 72, 100
2, 57087, Note_on_c, 0, 65, 116
2, 57092, Note_on_c, 0, 72, 0
2, 57105, Note_on_c, 0, 65, 0
2, 57115, Note_on_c, 0, 60, 0
2, 57152, Note_on_c, 0, 56, 127
2, 57153, Note_on_c, 0, 67, 127
2, 57154, Note_on_c, 0, 55, 127
2, 57155, Note_on_c, 0, 60, 102
2, 57163, Note_on_c, 0, 63, 51
2, 57196, Note_on_c, 0, 67, 0
2, 57210, Note_on_c, 0, 60, 0
2, 57218, Note_on_c, 0, 56, 0
2, 57219, Note_on_c, 0, 63, 0
2, 57233, Note_on_c, 0, 55, 0
2, 57238, Note_on_c, 0, 66, 98
2, 57241, Note_on_c, 0, 56, 65
2, 57241, Note_on_c, 0, 54, 100
2, 57243, Note_on_c, 0, 63, 69
2, 57248, Note_on_c, 0, 60, 94
2, 57276, Note_on_c, 0, 60, 0
2, 57287, Note_on_c, 0, 66, 0
2, 57296, Note_on_c, 0, 56, 0
2, 57309, Note_on_c, 0, 54, 0
2, 57323, Note_on_c, 0, 56, 104
2, 57328, Note_on_c, 0, 65, 108
2, 57328, Note_on_c, 0, 60, 116
2, 57329, Note_on_c, 0, 53, 82
2, 57373, Control_c, 0, 64, 127
2, 57412, Note_off_c, 0, 60, 0
2, 57419, Note_off_c, 0, 53, 0
2, 57425, Note_off_c, 0, 56, 0
2, 57434, Note_off_c, 0, 65, 0
2, 57446, Note_off_c, 0, 63, 0
2, 57467, Control_c, 0, 64, 0
2, 57482, Note_on_c, 0, 63, 90
2, 57483, Note_on_c, 0, 54, 106
2, 57485, Note_on_c, 0, 58, 98
2, 57486, Note_on_c, 0, 46, 77
2, 57495, Control_c, 0, 64, 127
2, 57536, Note_off_c, 0, 46, 0
2, 57537, Note_off_c, 0, 63, 0
2, 57541, Note_off_c, 0, 54, 0
2, 57542, Note_off_c, 0, 58, 0
2, 57563, Control_c, 0, 64, 0
2, 57566, Note_on_c, 0, 55, 120
2, 57569, Note_on_c, 0, 45, 92
2, 57570, Note_on_c, 0, 64, 69
2, 57570, Note_on_c, 0, 60, 104
2, 57574, Note_on_c, 0, 55, 0
2, 57575, Note_on_c, 0, 52, 55
2, 57579, Note_on_c, 0, 45, 0
2, 57580, Note_on_c, 0, 60, 0
2, 57589, Note_on_c, 0, 52, 0
2, 57592, Note_on_c, 0, 64, 0
2, 57606, Control_c, 0, 64, 127
2, 57687, Note_on_c, 0, 76, 127
2, 57688, Note_on_c, 0, 88, 127
2, 57690, Note_on_c, 0, 64, 110
2, 57690, Note_on_c, 0, 60, 116
2, 57693, Note_on_c, 0, 55, 73
2, 57694, Note_on_c, 0, 59, 90
2, 57699, Note_on_c, 0, 60, 0
2, 57699, Note_on_c, 0, 64, 0
2, 57701, Control_c, 0, 64, 0
2, 57702, Note_off_c, 0, 59, 0
2, 57703, Note_off_c, 0, 76, 0
2, 57703, Note_off_c, 0, 55, 0
2, 57706, Note_off_c, 0, 88, 0
2, 57725, Note_on_c, 0, 64, 108
2, 57726, Note_on_c, 0, 55, 90
2, 57727, Note_on_c, 0, 60, 90
2, 57727, Note_on_c, 0, 89, 127
2, 57728, Note_on_c, 0, 59, 71
2, 57730, Note_on_c, 0, 77, 73
2, 57734, Note_on_c, 0, 89, 0
2, 57734, Note_on_c, 0, 60, 0
2, 57734, Note_on_c, 0, 64, 0
2, 57735, Note_on_c, 0, 55, 0
2, 57737, Note_on_c, 0, 59, 0
2, 57739, Note_on_c, 0, 77, 0
2, 57806, Note_on_c, 0, 76, 127
2, 57806, Note_on_c, 0, 88, 127
2, 57807, Note_on_c, 0, 83, 123
2, 57809, Note_on_c, 0, 60, 120
2, 57810, Note_on_c, 0, 59, 79
2, 57810, Note_on_c, 0, 64, 98
2, 57814, Note_on_c, 0, 76, 0
2, 57816, Note_on_c, 0, 60, 0
2, 57816, Note_on_c, 0, 83, 0
2, 57819, Note_on_c, 0, 64, 0
2, 57819, Note_on_c, 0, 59, 0
2, 57820, Note_on_c, 0, 88, 0
2, 57841, Note_on_c, 0, 64, 106
2, 57842, Note_on_c, 0, 60, 102
2, 57843, Note_on_c, 0, 89, 127
2, 57844, Note_on_c, 0, 55, 73
2, 57845, Note_on_c, 0, 59, 77
2, 57845, Note_on_c, 0, 77, 108
2, 57846, Note_on_c, 0, 84, 106
2, 57850, Note_on_c, 0, 60, 0
2, 57851, Note_on_c, 0, 89, 0
2, 57852, Note_on_c, 0, 59, 0
2, 57853, Note_on_c, 0, 55, 0
2, 57853, Note_on_c, 0, 84, 0
2, 57854, Note_on_c, 0, 77, 0
2, 57856, Note_on_c, 0, 64, 0
2, 57925, Note_on_c, 0, 89, 127
2, 57926, Note_on_c, 0, 77, 127
2, 57926, Note_on_c, 0, 60, 125
2, 57926, Note_on_c, 0, 84, 127
2, 57927, Note_on_c, 0, 64, 100
2, 57929, Note_on_c, 0, 59, 73
2, 57930, Note_on_c, 0, 55, 73
2, 57934, Note_on_c, 0, 84, 0
2, 57934, Note_on_c, 0, 60, 0
2, 57935, Note_on_c, 0, 64, 0
2, 57935, Note_on_c, 0, 77, 0
2, 57938, Note_on_c, 0, 59, 0
2, 57938, Note_on_c, 0, 55, 0
2, 57941, Note_on_c, 0, 89, 0
2, 57959, Note_on_c, 0, 60, 123
2, 57961, Note_on_c, 0, 55, 100
2, 57961, Note_on_c, 0, 64, 114
2, 57961, Note_on_c, 0, 59, 98
2, 57963, Note_on_c, 0, 88, 127
2, 57965, Note_on_c, 0, 76, 127
2, 57965, Note_on_c, 0, 83, 127
2, 57970, Control_c, 0, 64, 127
2, 58017, Note_off_c, 0, 76, 0
2, 58024, Note_off_c, 0, 83, 0
2, 58025, Note_off_c, 0, 55, 0
2, 58030, Note_off_c, 0, 88, 0
2, 58033, Note_off_c, 0, 59, 0
2, 58037, Note_off_c, 0, 60, 0
2, 58042, Note_off_c, 0, 64, 0
2, 58072, Control_c, 0, 64, 0
2, 58081, Note_on_c, 0, 62, 127
2, 58081, Note_on_c, 0, 91, 127
2, 58082, Note_on_c, 0, 79, 123
2, 58083, Note_on_c, 0, 65, 104
2, 58083, Note_on_c, 0, 86, 104
2, 58085, Note_on_c, 0, 57, 90
2, 58089, Note_on_c, 0, 79, 0
2, 58089, Note_on_c, 0, 62, 0
2, 58089, Note_on_c, 0, 91, 0
2, 58091, Note_on_c, 0, 65, 0
2, 58092, Note_on_c, 0, 86, 0
2, 58094, Note_on_c, 0, 57, 0
2, 58164, Note_on_c, 0, 91, 127
2, 58165, Note_on_c, 0, 62, 127
2, 58165, Note_on_c, 0, 79, 127
2, 58166, Note_on_c, 0, 86, 127
2, 58169, Note_on_c, 0, 65, 92
2, 58169, Note_on_c, 0, 57, 73
2, 58176, Note_on_c, 0, 65, 0
2, 58176, Note_on_c, 0, 79, 0
2, 58176, Note_on_c, 0, 62, 0
2, 58178, Note_on_c, 0, 57, 0
2, 58178, Note_on_c, 0, 86, 0
2, 58180, Note_on_c, 0, 91, 0
2, 58196, Note_on_c, 0, 57, 116
2, 58197, Note_on_c, 0, 62, 127
2, 58199, Note_on_c, 0, 65, 108
2, 58201, Note_on_c, 0, 89, 127
2, 58204, Note_on_c, 0, 77, 102
2, 58204, Note_on_c, 0, 84, 127
2, 58205, Control_c, 0, 64, 127
2, 58254, Note_off_c, 0, 89, 0
2, 58261, Note_off_c, 0, 84, 0
2, 58266, Note_off_c, 0, 57, 0
2, 58273, Note_off_c, 0, 77, 0
2, 58282, Note_off_c, 0, 65, 0
2, 58285, Note_off_c, 0, 62, 0
2, 58313, Control_c, 0, 64, 0
2, 58318, Note_on_c, 0, 88, 104
2, 58319, Note_on_c, 0, 76, 96
2, 58319, Note_on_c, 0, 83, 123
2, 58323, Note_on_c, 0, 67, 102
2, 58324, Note_on_c, 0, 62, 102
2, 58325, Note_on_c, 0, 56, 86
2, 58358, Control_c, 0, 64, 127
2, 58404, Note_off_c, 0, 88, 0
2, 58435, Note_off_c, 0, 83, 0
2, 58445, Note_off_c, 0, 67, 0
2, 58446, Note_off_c, 0, 76, 0
2, 58446, Note_off_c, 0, 62, 0
2, 58455, Note_off_c, 0, 56, 0
2, 58529, Note_on_c, 0, 66, 59
2, 58530, Note_on_c, 0, 68, 127
2, 58544, Note_on_c, 0, 66, 0
2, 58559, Control_c, 0, 64, 0
2, 58562, Note_off_c, 0, 68, 0
2, 58562, Note_on_c, 0, 70, 82
2, 58563, Note_on_c, 0, 80, 127
2, 58563, Note_on_c, 0, 83, 127
2, 58565, Note_on_c, 0, 71, 127
2, 58565, Note_on_c, 0, 76, 127
2, 58565, Note_on_c, 0, 72, 127
2, 58570, Note_on_c, 0, 70, 0
2, 58571, Note_on_c, 0, 80, 0
2, 58578, Note_on_c, 0, 79, 49
2, 58586, Note_on_c, 0, 79, 0
2, 58592, Note_on_c, 0, 70, 123
2, 58597, Note_on_c, 0, 72, 0
2, 58603, Note_on_c, 0, 76, 0
2, 58616, Note_on_c, 0, 71, 0
2, 58630, Note_on_c, 0, 70, 0
2, 58630, Note_on_c, 0, 69, 127
2, 58632, Note_on_c, 0, 83, 0
2, 58657, Note_on_c, 0, 69, 0
2, 58657, Note_on_c, 0, 68, 106
2, 58671, Note_on_c, 0, 72, 75
2, 58674, Note_on_c, 0, 76, 73
2, 58675, Note_on_c, 0, 80, 53
2, 58701, Note_on_c, 0, 76, 0
2, 58707, Note_on_c, 0, 72, 0
2, 58716, Note_on_c, 0, 80, 0
2, 58761, Note_on_c, 0, 68, 0
2, 58766, Note_on_c, 0, 71, 127
2, 58767, Note_on_c, 0, 83, 127
2, 58768, Note_on_c, 0, 76, 127
2, 58770, Note_on_c, 0, 72, 127
2, 58773, Note_on_c, 0, 80, 67
2, 58780, Note_on_c, 0, 80, 0
2, 58803, Note_on_c, 0, 76, 0
2, 58806, Note_on_c, 0, 72, 0
2, 58811, Note_on_c, 0, 83, 0
2, 58816, Note_on_c, 0, 71, 0
2, 58820, Note_on_c, 0, 69, 90
2, 58826, Control_c, 0, 64, 127
2, 58826, Note_on_c, 0, 81, 114
2, 58829, Note_on_c, 0, 72, 61
2, 58844, Note_on_c, 0, 72, 0
2, 58844, Note_on_c, 0, 81, 0
2, 58850, Note_on_c, 0, 69, 0
2, 58892, Note_on_c, 0, 72, 94
2, 58892, Note_on_c, 0, 76, 75
2, 58893, Note_on_c, 0, 67, 90
2, 58895, Note_on_c, 0, 64, 90
2, 58903, Control_c, 0, 64, 0
2, 58914, Note_off_c, 0, 67, 0
2, 58915, Note_off_c, 0, 64, 0
2, 58923, Note_off_c, 0, 72, 0
2, 58926, Note_off_c, 0, 76, 0
2, 58932, Control_c, 0, 64, 127
2, 59031, Control_c, 0, 64, 0
2, 59041, Note_on_c, 0, 74, 116
2, 59041, Note_on_c, 0, 64, 108
2, 59042, Note_on_c, 0, 66, 94
2, 59047, Note_on_c, 0, 54, 61
2, 59047, Note_on_c, 0, 60, 102
2, 59050, Note_on_c, 0, 69, 63
2, 59067, Note_on_c, 0, 64, 0
2, 59068, Control_c, 0, 64, 127
2, 59078, Note_off_c, 0, 60, 0
2, 59088, Note_off_c, 0, 74, 0
2, 59094, Note_off_c, 0, 54, 0
2, 59123, Note_on_c, 0, 62, 127
2, 59139, Note_on_c, 0, 66, 0
2, 59146, Note_on_c, 0, 69, 0
2, 59150, Note_on_c, 0, 62, 0
2, 59174, Note_on_c, 0, 66, 98
2, 59194, Note_on_c, 0, 66, 0
2, 59243, Note_on_c, 0, 74, 127
2, 59261, Note_on_c, 0, 74, 0
2, 59290, Note_on_c, 0, 41, 71
2, 59296, Control_c, 0, 64, 0
2, 59296, Note_on_c, 0, 57, 112
2, 59296, Note_on_c, 0, 86, 127
2, 59297, Note_on_c, 0, 79, 127
2, 59299, Note_on_c, 0, 55, 71
2, 59306, Note_on_c, 0, 55, 0
2, 59328, Control_c, 0, 64, 127
2, 59375, Note_off_c, 0, 57, 0
2, 59383, Note_off_c, 0, 79, 0
2, 59391, Note_off_c, 0, 86, 0
2, 59394, Control_c, 0, 64, 0
2, 59398, Control_c, 0, 64, 127
2, 59404, Note_on_c, 0, 83, 118
2, 59406, Note_on_c, 0, 74, 110
2, 59407, Note_on_c, 0, 41, 0
2, 59409, Note_on_c, 0, 79, 49
2, 59419, Note_on_c, 0, 79, 0
2, 59422, Note_on_c, 0, 74, 0
2, 59423, Note_on_c, 0, 83, 0
2, 59519, Note_on_c, 0, 47, 61
2, 59522, Note_on_c, 0, 79, 84
2, 59523, Note_on_c, 0, 67, 77
2, 59523, Note_on_c, 0, 40, 79
2, 59524, Note_on_c, 0, 74, 86
2, 59525, Control_c, 0, 64, 0
2, 59528, Note_on_c, 0, 55, 63
2, 59631, Control_c, 0, 64, 127
2, 59637, Note_off_c, 0, 40, 0
2, 59643, Note_off_c, 0, 47, 0
2, 59656, Note_off_c, 0, 55, 0
2, 59660, Note_off_c, 0, 67, 0
2, 59668, Note_off_c, 0, 74, 0
2, 59679, Note_off_c, 0, 79, 0
2, 59760, Control_c, 0, 64, 0
2, 59761, Note_on_c, 0, 60, 127
2, 59763, Note_on_c, 0, 63, 127
2, 59763, Note_on_c, 0, 84, 127
2, 59764, Note_on_c, 0, 78, 127
2, 59764, Note_on_c, 0, 54, 127
2, 59765, Note_on_c, 0, 72, 127
2, 59765, Note_on_c, 0, 81, 127
2, 59801, Control_c, 0, 64, 127
2, 59816, Note_off_c, 0, 81, 0
2, 59818, Note_off_c, 0, 84, 0
2, 59823, Note_off_c, 0, 72, 0
2, 59828, Note_off_c, 0, 78, 0
2, 59841, Note_off_c, 0, 60, 0
2, 59842, Note_off_c, 0, 54, 0
2, 59844, Note_off_c, 0, 63, 0
2, 59875, Control_c, 0, 64, 0
2, 59884, Note_on_c, 0, 63, 110
2, 59886, Note_on_c, 0, 54, 116
2, 59886, Note_on_c, 0, 81, 125
2, 59887, Note_on_c, 0, 76, 104
2, 59888, Note_on_c, 0, 69, 112
2, 59892, Note_on_c, 0, 60, 88
2, 59894, Note_on_c, 0, 78, 43
2, 59898, Control_c, 0, 64, 127
2, 59902, Note_off_c, 0, 78, 0
2, 59902, Note_off_c, 0, 60, 0
2, 59908, Note_off_c, 0, 69, 0
2, 59913, Note_off_c, 0, 76, 0
2, 59915, Note_off_c, 0, 63, 0
2, 59917, Note_off_c, 0, 54, 0
2, 59919, Note_off_c, 0, 81, 0
2, 59948, Note_on_c, 0, 82, 41
2, 59958, Note_on_c, 0, 82, 0
2, 60002, Note_on_c, 0, 84, 127
2, 60005, Note_on_c, 0, 72, 127
2, 60006, Note_on_c, 0, 81, 116
2, 60006, Note_on_c, 0, 55, 110
2, 60008, Control_c, 0, 64, 0
2, 60009, Note_on_c, 0, 77, 112
2, 60009, Note_on_c, 0, 57, 110
2, 60009, Note_on_c, 0, 60, 120
2, 60011, Note_on_c, 0, 78, 51
2, 60012, Note_on_c, 0, 65, 114
2, 60018, Note_on_c, 0, 77, 0
2, 60074, Control_c, 0, 64, 127
2, 60089, Control_c, 0, 64, 0
2, 60110, Note_on_c, 0, 77, 2
2, 60125, Control_c, 0, 64, 127
2, 60144, Note_off_c, 0, 78, 0
2, 60151, Note_off_c, 0, 65, 0
2, 60159, Note_off_c, 0, 60, 0
2, 60164, Note_off_c, 0, 84, 0
2, 60165, Note_off_c, 0, 72, 0
2, 60165, Note_off_c, 0, 55, 0
2, 60167, Note_off_c, 0, 81, 0
2, 60170, Note_off_c, 0, 57, 0
2, 60176, Note_off_c, 0, 77, 0
2, 60239, Control_c, 0, 64, 0
2, 60244, Note_on_c, 0, 59, 104
2, 60246, Note_on_c, 0, 81, 112
2, 60247, Note_on_c, 0, 64, 90
2, 60247, Note_on_c, 0, 76, 106
2, 60247, Note_on_c, 0, 69, 118
2, 60251, Note_on_c, 0, 53, 63
2, 60260, Note_on_c, 0, 64, 0
2, 60262, Note_on_c, 0, 53, 0
2, 60263, Note_on_c, 0, 69, 0
2, 60264, Note_on_c, 0, 59, 0
2, 60267, Note_on_c, 0, 76, 0
2, 60271, Note_on_c, 0, 81, 0
2, 60328, Note_on_c, 0, 71, 127
2, 60330, Note_on_c, 0, 59, 110
2, 60330, Note_on_c, 0, 83, 123
2, 60338, Note_on_c, 0, 71, 0
2, 60341, Note_on_c, 0, 59, 0
2, 60345, Note_on_c, 0, 83, 0
2, 60364, Control_c, 0, 64, 127
2, 60367, Note_on_c, 0, 59, 90
2, 60367, Note_on_c, 0, 53, 100
2, 60368, Note_on_c, 0, 64, 86
2, 60369, Note_on_c, 0, 86, 127
2, 60369, Note_on_c, 0, 74, 127
2, 60405, Note_on_c, 0, 64, 0
2, 60409, Note_on_c, 0, 53, 0
2, 60410, Note_on_c, 0, 86, 0
2, 60420, Note_on_c, 0, 74, 0
2, 60422, Note_on_c, 0, 59, 0
2, 60449, Note_on_c, 0, 84, 127
2, 60452, Note_on_c, 0, 72, 114
2, 60452, Note_on_c, 0, 59, 69
2, 60455, Note_on_c, 0, 62, 100
2, 60457, Note_on_c, 0, 55, 104
2, 60458, Note_on_c, 0, 52, 92
2, 60464, Control_c, 0, 64, 0
2, 60510, Control_c, 0, 64, 127
2, 60547, Note_off_c, 0, 84, 0
2, 60566, Note_off_c, 0, 72, 0
2, 60574, Note_off_c, 0, 62, 0
2, 60586, Note_off_c, 0, 59, 0
2, 60592, Note_off_c, 0, 55, 0
2, 60600, Note_off_c, 0, 52, 0
2, 60726, Note_on_c, 0, 67, 77
2, 60730, Note_on_c, 0, 59, 75
2, 60731, Note_on_c, 0, 64, 77
2, 60731, Note_on_c, 0, 62, 75
2, 60731, Note_on_c, 0, 55, 86
2, 60743, Control_c, 0, 64, 0
2, 60805, Control_c, 0, 64, 127
2, 60841, Note_on_c, 0, 43, 127
2, 60885, Note_on_c, 0, 64, 0
2, 60886, Note_on_c, 0, 62, 0
2, 60892, Note_on_c, 0, 59, 0
2, 60898, Note_on_c, 0, 67, 0
2, 60956, Note_on_c, 0, 55, 0
2, 60983, Note_on_c, 0, 43, 0
2, 61079, Note_on_c, 0, 43, 127
2, 61080, Note_on_c, 0, 31, 127
2, 61087, Control_c, 0, 64, 0
2, 61129, Control_c, 0, 64, 127
2, 61225, Note_off_c, 0, 31, 0
2, 61234, Control_c, 0, 64, 127
2, 61243, Note_off_c, 0, 43, 0
2, 61325, Note_on_c, 0, 43, 112
2, 61325, Note_on_c, 0, 31, 116
2, 61327, Control_c, 0, 64, 0
2, 61413, Note_off_c, 0, 31, 0
2, 61416, Note_off_c, 0, 43, 0
2, 61458, Note_on_c, 0, 72, 127
2, 61459, Control_c, 0, 64, 0
2, 61460, Note_on_c, 0, 65, 127
2, 61460, Note_on_c, 0, 55, 127
2, 61461, Note_on_c, 0, 60, 127
2, 61462, Note_on_c, 0, 57, 102
2, 61550, Control_c, 0, 64, 127
2, 61596, Note_off_c, 0, 72, 0
2, 61614, Note_on_c, 0, 72, 127
2, 61689, Note_on_c, 0, 72, 0
2, 61760, Note_on_c, 0, 72, 127
2, 61834, Note_on_c, 0, 72, 0
2, 61953, Note_on_c, 0, 72, 86
2, 61966, Note_on_c, 0, 65, 0
2, 61975, Note_on_c, 0, 60, 0
2, 61996, Note_on_c, 0, 57, 0
2, 62007, Note_on_c, 0, 55, 0
2, 62017, Note_on_c, 0, 72, 0
2, 62186, Note_on_c, 0, 71, 67
2, 62189, Note_on_c, 0, 68, 100
2, 62189, Note_on_c, 0, 63, 86
2, 62189, Note_on_c, 0, 59, 79
2, 62193, Control_c, 0, 64, 0
2, 62193, Note_on_c, 0, 43, 67
2, 62203, Note_on_c, 0, 53, 53
2, 62250, Control_c, 0, 64, 127
2, 62298, Note_off_c, 0, 53, 0
2, 62319, Note_off_c, 0, 43, 0
2, 62372, Note_off_c, 0, 71, 0
2, 62416, Note_on_c, 0, 71, 73
2, 62585, Note_on_c, 0, 71, 0
2, 62598, Note_on_c, 0, 59, 0
2, 62599, Note_on_c, 0, 63, 0
2, 62618, Note_on_c, 0, 68, 0
2, 62710, Note_on_c, 0, 71, 49
2, 62712, Note_on_c, 0, 63, 51
2, 62713, Note_on_c, 0, 68, 53
2, 62714, Note_on_c, 0, 59, 41
2, 62720, Note_on_c, 0, 43, 30
2, 62720, Note_on_c, 0, 31, 57
2, 62844, Note_on_c, 0, 59, 0
2, 62864, Note_on_c, 0, 63, 0
2, 62876, Note_on_c, 0, 31, 0
2, 62878, Note_on_c, 0, 43, 0
2, 62887, Note_on_c, 0, 68, 0
2, 62903, Note_on_c, 0, 71, 0
2, 63169, Note_on_c, 0, 81, 127
2, 63174, Note_on_c, 0, 57, 127
2, 63246, Note_on_c, 0, 81, 0
2, 63265, Note_on_c, 0, 83, 127
2, 63266, Note_on_c, 0, 59, 127
2, 63267, Note_on_c, 0, 57, 0
2, 63331, Note_on_c, 0, 83, 0
2, 63343, Note_on_c, 0, 59, 0
2, 63372, Note_on_c, 0, 60, 127
2, 63373, Note_on_c, 0, 84, 127
2, 63374, Control_c, 0, 64, 0
2, 63402, Control_c, 0, 64, 127
2, 63480, Note_off_c, 0, 84, 0
2, 63480, Note_off_c, 0, 60, 0
2, 63701, Note_on_c, 0, 60, 127
2, 63702, Note_on_c, 0, 57, 123
2, 63704, Note_on_c, 0, 30, 90
2, 63706, Note_on_c, 0, 42, 71
2, 63709, Control_c, 0, 64, 0
2, 63750, Control_c, 0, 64, 127
2, 63785, Note_off_c, 0, 30, 0
2, 63788, Note_off_c, 0, 42, 0
2, 63790, Note_off_c, 0, 60, 0
2, 63794, Note_off_c, 0, 57, 0
2, 63851, Note_on_c, 0, 56, 106
2, 63852, Note_on_c, 0, 60, 114
2, 63855, Control_c, 0, 64, 0
2, 63857, Note_on_c, 0, 41, 73
2, 63863, Note_on_c, 0, 29, 49
2, 63907, Control_c, 0, 64, 127
2, 63947, Note_off_c, 0, 41, 0
2, 63953, Note_off_c, 0, 29, 0
2, 63961, Note_off_c, 0, 60, 0
2, 63980, Note_off_c, 0, 56, 0
2, 64041, Note_on_c, 0, 60, 116
2, 64044, Note_on_c, 0, 40, 84
2, 64046, Note_on_c, 0, 55, 112
2, 64053, Note_on_c, 0, 28, 61
2, 64058, Control_c, 0, 64, 0
2, 64118, Control_c, 0, 64, 127
2, 64155, Note_off_c, 0, 60, 0
2, 64164, Note_off_c, 0, 28, 0
2, 64168, Note_off_c, 0, 40, 0
2, 64169, Note_off_c, 0, 55, 0
2, 64291, Note_on_c, 0, 60, 118
2, 64293, Note_on_c, 0, 54, 75
2, 64294, Note_on_c, 0, 27, 67
2, 64294, Control_c, 0, 64, 0
2, 64295, Note_on_c, 0, 39, 51
2, 64349, Control_c, 0, 64, 127
2, 64423, Note_off_c, 0, 60, 0
2, 64428, Note_off_c, 0, 39, 0
2, 64429, Note_off_c, 0, 27, 0
2, 64442, Note_off_c, 0, 54, 0
2, 64573, Note_on_c, 0, 60, 108
2, 64574, Control_c, 0, 64, 0
2, 64576, Note_on_c, 0, 38, 59
2, 64576, Note_on_c, 0, 53, 84
2, 64578, Note_on_c, 0, 26, 49
2, 64648, Control_c, 0, 64, 127
2, 64714, Note_off_c, 0, 60, 0
2, 64726, Note_off_c, 0, 26, 0
2, 64729, Note_off_c, 0, 53, 0
2, 64730, Note_off_c, 0, 38, 0
2, 64919, Note_on_c, 0, 60, 88
2, 64923, Note_on_c, 0, 53, 71
2, 64923, Control_c, 0, 64, 0
2, 64925, Note_on_c, 0, 37, 59
2, 64929, Note_on_c, 0, 25, 41
2, 64994, Control_c, 0, 64, 127
2, 65028, Note_off_c, 0, 53, 0
2, 65040, Note_off_c, 0, 60, 0
2, 65155, Note_on_c, 0, 84, 71
2, 65157, Note_on_c, 0, 72, 71
2, 65179, Note_on_c, 0, 72, 0
2, 65185, Note_on_c, 0, 84, 0
2, 65331, Note_on_c, 0, 96, 90
2, 65336, Note_on_c, 0, 84, 67
2, 65558, Note_on_c, 0, 96, 0
2, 65597, Note_on_c, 0, 84, 0
2, 65689, Note_on_c, 0, 25, 0
2, 65701, Note_on_c, 0, 37, 0
2, 66020, Note_on_c, 0, 36, 69
2, 66053, Note_on_c, 0, 43, 28
2, 66060, Note_on_c, 0, 57, 71
2, 66076, Note_on_c, 0, 52, 57
2, 66084, Note_on_c, 0, 62, 59
2, 66088, Note_on_c, 0, 66, 53
2, 66096, Control_c, 0, 64, 0
2, 66103, Note_on_c, 0, 67, 98
2, 66174, Control_c, 0, 64, 127
2, 66298, Note_off_c, 0, 57, 0
2, 66317, Note_off_c, 0, 62, 0
2, 66341, Note_off_c, 0, 67, 0
2, 66358, Note_off_c, 0, 66, 0
2, 66389, Note_off_c, 0, 36, 0
2, 66401, Note_off_c, 0, 43, 0
2, 66419, Note_off_c, 0, 52, 0
2, 66704, Note_on_c, 0, 96, 123
2, 66710, Note_on_c, 0, 72, 79
2, 66907, Note_on_c, 0, 96, 0
2, 66923, Note_on_c, 0, 72, 0
2, 66923, Note_on_c, 0, 95, 100
2, 66934, Note_on_c, 0, 71, 49
2, 66968, Note_on_c, 0, 71, 0
2, 66985, Note_on_c, 0, 95, 0
2, 67056, Note_on_c, 0, 95, 92
2, 67059, Note_on_c, 0, 71, 61
2, 67155, Note_on_c, 0, 71, 0
2, 67200, Note_on_c, 0, 95, 0
2, 67599, Note_on_c, 0, 24, 49
2, 67627, Note_on_c, 0, 24, 0
2, 68296, Control_c, 0, 64, 0
2, 68296, End_track
3, 0, Start_track
3, 0, Program_c, 1, 35
3, 79, Control_c, 1, 7, 100
3, 79, Note_on_c, 1, 30, 121
3, 95, Note_on_c, 1, 30, 0
3, 317, Note_on_c, 1, 35, 127
3, 478, Note_on_c, 1, 35, 0
3, 479, Note_on_c, 1, 40, 127
3, 726, Note_on_c, 1, 47, 117
3, 733, Note_on_c, 1, 47, 0
3, 733, Note_on_c, 1, 40, 0
3, 800, Note_on_c, 1, 46, 121
3, 826, Note_on_c, 1, 46, 0
3, 838, Note_on_c, 1, 45, 90
3, 884, Note_on_c, 1, 45, 0
3, 914, Note_on_c, 1, 39, 106
3, 942, Note_on_c, 1, 39, 0
3, 956, Note_on_c, 1, 38, 75
3, 1128, Note_on_c, 1, 48, 118
3, 1151, Note_on_c, 1, 48, 0
3, 1162, Note_on_c, 1, 45, 87
3, 1172, Note_on_c, 1, 45, 0
3, 1200, Note_on_c, 1, 51, 127
3, 1217, Note_on_c, 1, 38, 0
3, 1407, Note_on_c, 1, 48, 81
3, 1415, Note_on_c, 1, 51, 0
3, 1424, Note_on_c, 1, 48, 0
3, 1442, Note_on_c, 1, 52, 127
3, 1560, Note_on_c, 1, 52, 0
3, 1564, Note_on_c, 1, 47, 78
3, 1655, Note_on_c, 1, 47, 0
3, 1681, Note_on_c, 1, 48, 99
3, 1843, Note_on_c, 1, 43, 94
3, 1847, Note_on_c, 1, 48, 0
3, 1850, Note_on_c, 1, 43, 0
3, 1880, Note_on_c, 1, 39, 108
3, 1916, Note_on_c, 1, 39, 0
3, 1920, Note_on_c, 1, 40, 120
3, 2202, Note_on_c, 1, 46, 97
3, 2211, Note_on_c, 1, 46, 0
3, 2242, Note_on_c, 1, 48, 127
3, 2263, Note_on_c, 1, 48, 0
3, 2284, Note_on_c, 1, 46, 127
3, 2291, Note_on_c, 1, 40, 0
3, 2384, Note_on_c, 1, 46, 0
3, 2401, Note_on_c, 1, 45, 127
3, 2434, Pitch_bend_c, 1, 8192
3, 2435, Pitch_bend_c, 1, 8192
3, 2436, Pitch_bend_c, 1, 8192
3, 2438, Pitch_bend_c, 1, 8712
3, 2439, Pitch_bend_c, 1, 9102
3, 2440, Pitch_bend_c, 1, 9492
3, 2442, Pitch_bend_c, 1, 9882
3, 2443, Pitch_bend_c, 1, 10142
3, 2444, Pitch_bend_c, 1, 10532
3, 2446, Pitch_bend_c, 1, 10922
3, 2448, Pitch_bend_c, 1, 11312
3, 2449, Pitch_bend_c, 1, 11572
3, 2450, Pitch_bend_c, 1, 11702
3, 2452, Pitch_bend_c, 1, 11962
3, 2455, Pitch_bend_c, 1, 12092
3, 2458, Pitch_bend_c, 1, 11962
3, 2460, Pitch_bend_c, 1, 11702
3, 2461, Pitch_bend_c, 1, 11572
3, 2462, Pitch_bend_c, 1, 11312
3, 2464, Pitch_bend_c, 1, 10922
3, 2465, Pitch_bend_c, 1, 10662
3, 2467, Pitch_bend_c, 1, 10272
3, 2468, Pitch_bend_c, 1, 9882
3, 2470, Pitch_bend_c, 1, 9362
3, 2471, Pitch_bend_c, 1, 8972
3, 2472, Pitch_bend_c, 1, 8192
3, 2473, Pitch_bend_c, 1, 8192
3, 2507, Pitch_bend_c, 1, 8192
3, 2508, Pitch_bend_c, 1, 8712
3, 2510, Pitch_bend_c, 1, 9102
3, 2511, Pitch_bend_c, 1, 9492
3, 2513, Pitch_bend_c, 1, 9882
3, 2514, Pitch_bend_c, 1, 10142
3, 2516, Pitch_bend_c, 1, 10402
3, 2517, Pitch_bend_c, 1, 10792
3, 2518, Pitch_bend_c, 1, 10922
3, 2520, Pitch_bend_c, 1, 11312
3, 2521, Pitch_bend_c, 1, 11442
3, 2523, Pitch_bend_c, 1, 11572
3, 2530, Pitch_bend_c, 1, 11312
3, 2532, Pitch_bend_c, 1, 10922
3, 2533, Pitch_bend_c, 1, 10662
3, 2535, Pitch_bend_c, 1, 10402
3, 2536, Pitch_bend_c, 1, 10012
3, 2538, Pitch_bend_c, 1, 9622
3, 2539, Pitch_bend_c, 1, 9232
3, 2540, Pitch_bend_c, 1, 8842
3, 2542, Pitch_bend_c, 1, 8192
3, 2543, Pitch_bend_c, 1, 8192
3, 2761, Note_on_c, 1, 33, 99
3, 2762, Note_on_c, 1, 45, 0
3, 2886, Note_on_c, 1, 33, 0
3, 2886, Note_on_c, 1, 38, 102
3, 3046, Note_on_c, 1, 39, 106
3, 3051, Note_on_c, 1, 38, 0
3, 3074, Note_on_c, 1, 39, 0
3, 3085, Note_on_c, 1, 40, 109
3, 3123, Note_on_c, 1, 40, 0
3, 3128, Note_on_c, 1, 41, 127
3, 3284, Note_on_c, 1, 41, 0
3, 3284, Note_on_c, 1, 40, 100
3, 3323, Note_on_c, 1, 40, 0
3, 3325, Note_on_c, 1, 41, 127
3, 3362, Note_on_c, 1, 41, 0
3, 3372, Note_on_c, 1, 44, 127
3, 3433, Note_on_c, 1, 44, 0
3, 3443, Note_on_c, 1, 48, 127
3, 3542, Note_on_c, 1, 48, 0
3, 3543, Note_on_c, 1, 47, 114
3, 3610, Note_on_c, 1, 47, 0
3, 3620, Note_on_c, 1, 46, 91
3, 3783, Note_on_c, 1, 44, 87
3, 3786, Note_on_c, 1, 46, 0
3, 3809, Note_on_c, 1, 44, 0
3, 3868, Note_on_c, 1, 50, 127
3, 3916, Note_on_c, 1, 50, 0
3, 3925, Note_on_c, 1, 47, 85
3, 3954, Note_on_c, 1, 47, 0
3, 3965, Note_on_c, 1, 48, 100
3, 4029, Note_on_c, 1, 48, 0
3, 4039, Note_on_c, 1, 43, 93
3, 4420, Note_on_c, 1, 43, 0
3, 4436, Note_on_c, 1, 47, 94
3, 4506, Note_on_c, 1, 47, 0
3, 4520, Note_on_c, 1, 52, 127
3, 4572, Note_on_c, 1, 52, 0
3, 4590, Note_on_c, 1, 44, 94
3, 4742, Note_on_c, 1, 41, 112
3, 4747, Note_on_c, 1, 44, 0
3, 4753, Note_on_c, 1, 41, 0
3, 4777, Note_on_c, 1, 32, 114
3, 4812, Note_on_c, 1, 32, 0
3, 4817, Note_on_c, 1, 31, 117
3, 5042, Note_on_c, 1, 50, 127
3, 5050, Note_on_c, 1, 31, 0
3, 5106, Note_on_c, 1, 50, 0
3, 5114, Note_on_c, 1, 49, 109
3, 5144, Note_on_c, 1, 49, 0
3, 5157, Note_on_c, 1, 48, 103
3, 5230, Note_on_c, 1, 40, 87
3, 5246, Note_on_c, 1, 48, 0
3, 5259, Note_on_c, 1, 40, 0
3, 5270, Note_on_c, 1, 41, 105
3, 5392, Note_on_c, 1, 50, 127
3, 5452, Note_on_c, 1, 41, 0
3, 5478, Note_on_c, 1, 50, 0
3, 5478, Note_on_c, 1, 48, 114
3, 5724, Note_on_c, 1, 41, 105
3, 5730, Note_on_c, 1, 48, 0
3, 5771, Note_on_c, 1, 41, 0
3, 5771, Note_on_c, 1, 47, 127
3, 5995, Note_on_c, 1, 47, 0
3, 6007, Note_on_c, 1, 40, 76
3, 6192, Note_on_c, 1, 40, 0
3, 6206, Note_on_c, 1, 46, 108
3, 6238, Note_on_c, 1, 46, 0
3, 6252, Note_on_c, 1, 45, 120
3, 6293, Pitch_bend_c, 1, 8192
3, 6294, Pitch_bend_c, 1, 8192
3, 6296, Pitch_bend_c, 1, 8712
3, 6297, Pitch_bend_c, 1, 8972
3, 6299, Pitch_bend_c, 1, 9232
3, 6300, Pitch_bend_c, 1, 9622
3, 6302, Pitch_bend_c, 1, 9882
3, 6303, Pitch_bend_c, 1, 10142
3, 6304, Pitch_bend_c, 1, 10272
3, 6307, Pitch_bend_c, 1, 10402
3, 6313, Pitch_bend_c, 1, 10142
3, 6314, Pitch_bend_c, 1, 10012
3, 6316, Pitch_bend_c, 1, 9882
3, 6317, Pitch_bend_c, 1, 9622
3, 6318, Pitch_bend_c, 1, 9362
3, 6320, Pitch_bend_c, 1, 9102
3, 6322, Pitch_bend_c, 1, 8712
3, 6323, Pitch_bend_c, 1, 8192
3, 6324, Pitch_bend_c, 1, 8192
3, 6357, Pitch_bend_c, 1, 8192
3, 6358, Pitch_bend_c, 1, 8712
3, 6360, Pitch_bend_c, 1, 9102
3, 6361, Pitch_bend_c, 1, 9492
3, 6363, Pitch_bend_c, 1, 10012
3, 6364, Pitch_bend_c, 1, 10402
3, 6366, Pitch_bend_c, 1, 10792
3, 6366, Pitch_bend_c, 1, 11312
3, 6368, Pitch_bend_c, 1, 11572
3, 6370, Pitch_bend_c, 1, 11962
3, 6371, Pitch_bend_c, 1, 12222
3, 6373, Pitch_bend_c, 1, 12352
3, 6373, Pitch_bend_c, 1, 12612
3, 6376, Pitch_bend_c, 1, 12742
3, 6385, Pitch_bend_c, 1, 12612
3, 6386, Pitch_bend_c, 1, 12352
3, 6388, Pitch_bend_c, 1, 12222
3, 6388, Pitch_bend_c, 1, 11962
3, 6390, Pitch_bend_c, 1, 11572
3, 6392, Pitch_bend_c, 1, 11312
3, 6393, Pitch_bend_c, 1, 10792
3, 6395, Pitch_bend_c, 1, 10402
3, 6396, Pitch_bend_c, 1, 10012
3, 6398, Pitch_bend_c, 1, 9492
3, 6398, Pitch_bend_c, 1, 9102
3, 6400, Pitch_bend_c, 1, 8712
3, 6401, Pitch_bend_c, 1, 8192
3, 6403, Pitch_bend_c, 1, 8192
3, 6418, Pitch_bend_c, 1, 8192
3, 6419, Pitch_bend_c, 1, 8192
3, 6420, Pitch_bend_c, 1, 8842
3, 6422, Pitch_bend_c, 1, 9232
3, 6422, Pitch_bend_c, 1, 9752
3, 6424, Pitch_bend_c, 1, 10142
3, 6426, Pitch_bend_c, 1, 10662
3, 6427, Pitch_bend_c, 1, 11052
3, 6429, Pitch_bend_c, 1, 11572
3, 6430, Pitch_bend_c, 1, 12092
3, 6432, Pitch_bend_c, 1, 12482
3, 6433, Pitch_bend_c, 1, 12872
3, 6434, Pitch_bend_c, 1, 13132
3, 6435, Pitch_bend_c, 1, 13522
3, 6437, Pitch_bend_c, 1, 13782
3, 6439, Pitch_bend_c, 1, 14042
3, 6440, Pitch_bend_c, 1, 14172
3, 6442, Pitch_bend_c, 1, 14302
3, 6443, Pitch_bend_c, 1, 14432
3, 6453, Pitch_bend_c, 1, 14302
3, 6454, Pitch_bend_c, 1, 14172
3, 6456, Pitch_bend_c, 1, 14042
3, 6456, Pitch_bend_c, 1, 13782
3, 6458, Pitch_bend_c, 1, 13522
3, 6459, Pitch_bend_c, 1, 13262
3, 6461, Pitch_bend_c, 1, 12872
3, 6463, Pitch_bend_c, 1, 12612
3, 6464, Pitch_bend_c, 1, 12222
3, 6466, Pitch_bend_c, 1, 11702
3, 6467, Pitch_bend_c, 1, 11312
3, 6468, Pitch_bend_c, 1, 10662
3, 6469, Pitch_bend_c, 1, 10012
3, 6471, Pitch_bend_c, 1, 9492
3, 6473, Pitch_bend_c, 1, 8972
3, 6474, Pitch_bend_c, 1, 8192
3, 6475, Pitch_bend_c, 1, 8192
3, 6919, Note_on_c, 1, 33, 66
3, 6952, Note_on_c, 1, 33, 0
3, 6963, Note_on_c, 1, 38, 114
3, 7282, Note_on_c, 1, 43, 84
3, 7283, Note_on_c, 1, 45, 0
3, 7300, Note_on_c, 1, 43, 0
3, 7324, Note_on_c, 1, 50, 127
3, 7444, Note_on_c, 1, 38, 0
3, 7526, Note_on_c, 1, 38, 54
3, 7534, Note_on_c, 1, 38, 0
3, 7557, Note_on_c, 1, 43, 91
3, 7585, Note_on_c, 1, 50, 0
3, 7647, Note_on_c, 1, 38, 78
3, 7655, Note_on_c, 1, 38, 0
3, 7670, Note_on_c, 1, 43, 0
3, 7681, Note_on_c, 1, 42, 85
3, 7986, Note_on_c, 1, 42, 0
3, 7997, Note_on_c, 1, 35, 121
3, 8129, Note_on_c, 1, 35, 0
3, 8232, Note_on_c, 1, 40, 118
3, 8281, Note_on_c, 1, 40, 0
3, 8405, Note_on_c, 1, 33, 103
3, 8833, Note_on_c, 1, 33, 0
3, 8835, Note_on_c, 1, 38, 105
3, 8877, Note_on_c, 1, 38, 0
3, 8883, Note_on_c, 1, 39, 105
3, 9112, Note_on_c, 1, 39, 0
3, 9114, Note_on_c, 1, 40, 93
3, 9194, Note_on_c, 1, 50, 127
3, 9209, Note_on_c, 1, 40, 0
3, 9231, Note_on_c, 1, 50, 0
3, 9243, Note_on_c, 1, 48, 117
3, 9432, Note_on_c, 1, 48, 0
3, 9438, Note_on_c, 1, 47, 118
3, 9472, Note_on_c, 1, 47, 0
3, 9486, Note_on_c, 1, 45, 87
3, 9502, Note_on_c, 1, 45, 0
3, 9560, Note_on_c, 1, 43, 97
3, 9608, Note_on_c, 1, 43, 0
3, 9608, Note_on_c, 1, 40, 96
3, 9724, Note_on_c, 1, 46, 127
3, 9777, Note_on_c, 1, 46, 0
3, 9841, Note_on_c, 1, 46, 127
3, 9861, Note_on_c, 1, 40, 0
3, 9914, Note_on_c, 1, 46, 0
3, 9920, Note_on_c, 1, 48, 93
3, 9947, Note_on_c, 1, 48, 0
3, 9963, Note_on_c, 1, 46, 81
3, 10072, Note_on_c, 1, 46, 0
3, 10082, Note_on_c, 1, 45, 90
3, 10094, Note_on_c, 1, 45, 0
3, 10115, Note_on_c, 1, 46, 97
3, 10139, Note_on_c, 1, 46, 0
3, 10159, Note_on_c, 1, 45, 127
3, 10244, Note_on_c, 1, 45, 0
3, 10260, Note_on_c, 1, 43, 88
3, 10272, Note_on_c, 1, 43, 0
3, 10293, Note_on_c, 1, 45, 127
3, 10322, Note_on_c, 1, 45, 0
3, 10334, Note_on_c, 1, 43, 127
3, 10427, Note_on_c, 1, 43, 0
3, 10441, Note_on_c, 1, 41, 94
3, 10459, Note_on_c, 1, 41, 0
3, 10476, Note_on_c, 1, 40, 109
3, 10494, Note_on_c, 1, 40, 0
3, 10515, Note_on_c, 1, 39, 124
3, 10550, Note_on_c, 1, 39, 0
3, 10562, Note_on_c, 1, 38, 105
3, 10750, Note_on_c, 1, 38, 0
3, 10756, Note_on_c, 1, 41, 61
3, 10779, Note_on_c, 1, 41, 0
3, 10801, Note_on_c, 1, 48, 127
3, 10868, Note_on_c, 1, 48, 0
3, 10888, Note_on_c, 1, 48, 127
3, 10947, Note_on_c, 1, 48, 0
3, 10961, Note_on_c, 1, 45, 84
3, 10972, Note_on_c, 1, 45, 0
3, 10998, Note_on_c, 1, 41, 82
3, 11020, Note_on_c, 1, 41, 0
3, 11043, Note_on_c, 1, 44, 121
3, 11118, Note_on_c, 1, 44, 0
3, 11122, Note_on_c, 1, 41, 61
3, 11132, Note_on_c, 1, 41, 0
3, 11158, Note_on_c, 1, 43, 102
3, 11471, Note_on_c, 1, 43, 0
3, 11480, Note_on_c, 1, 44, 99
3, 11523, Note_on_c, 1, 44, 0
3, 11532, Note_on_c, 1, 45, 72
3, 11765, Note_on_c, 1, 40, 82
3, 11781, Note_on_c, 1, 45, 0
3, 11822, Note_on_c, 1, 49, 48
3, 11838, Note_on_c, 1, 49, 0
3, 11883, Note_on_c, 1, 48, 127
3, 11891, Note_on_c, 1, 40, 0
3, 12080, Note_on_c, 1, 47, 114
3, 12083, Note_on_c, 1, 48, 0
3, 12135, Note_on_c, 1, 47, 0
3, 12137, Note_on_c, 1, 41, 127
3, 12232, Note_on_c, 1, 41, 0
3, 12248, Note_on_c, 1, 40, 118
3, 12353, Note_on_c, 1, 40, 0
3, 12356, Note_on_c, 1, 32, 126
3, 12482, Note_on_c, 1, 32, 0
3, 12486, Note_on_c, 1, 33, 121
3, 12648, Note_on_c, 1, 47, 99
3, 12665, Note_on_c, 1, 47, 0
3, 12681, Note_on_c, 1, 46, 127
3, 12712, Note_on_c, 1, 46, 0
3, 12724, Note_on_c, 1, 45, 127
3, 12742, Note_on_c, 1, 33, 0
3, 12870, Note_on_c, 1, 45, 0
3, 12879, Note_on_c, 1, 44, 105
3, 12896, Note_on_c, 1, 44, 0
3, 12914, Note_on_c, 1, 43, 99
3, 12943, Note_on_c, 1, 43, 0
3, 12960, Note_on_c, 1, 42, 127
3, 13206, Note_on_c, 1, 41, 127
3, 13211, Note_on_c, 1, 42, 0
3, 13420, Note_on_c, 1, 37, 67
3, 13425, Note_on_c, 1, 41, 0
3, 13441, Note_on_c, 1, 37, 0
3, 13442, Note_on_c, 1, 40, 127
3, 13694, Note_on_c, 1, 45, 127
3, 13704, Note_on_c, 1, 40, 0
3, 13916, Note_on_c, 1, 45, 0
3, 13917, Note_on_c, 1, 31, 127
3, 14166, Note_on_c, 1, 47, 127
3, 14283, Note_on_c, 1, 47, 0
3, 14286, Note_on_c, 1, 43, 127
3, 14297, Note_on_c, 1, 31, 0
3, 14483, Note_on_c, 1, 38, 88
3, 14493, Note_on_c, 1, 38, 0
3, 14521, Note_on_c, 1, 31, 127
3, 14522, Note_on_c, 1, 43, 0
3, 14720, Note_on_c, 1, 38, 91
3, 14731, Note_on_c, 1, 38, 0
3, 14764, Note_on_c, 1, 43, 127
3, 14780, Note_on_c, 1, 31, 0
3, 15201, Note_on_c, 1, 31, 111
3, 15210, Note_on_c, 1, 31, 0
3, 15224, Note_on_c, 1, 43, 0
3, 15242, Note_on_c, 1, 45, 127
3, 15258, Note_on_c, 1, 45, 0
3, 15325, Note_on_c, 1, 43, 127
3, 15338, Note_on_c, 1, 43, 0
3, 15362, Note_on_c, 1, 42, 109
3, 15531, Note_on_c, 1, 36, 103
3, 15540, Note_on_c, 1, 36, 0
3, 15562, Note_on_c, 1, 34, 108
3, 15569, Note_on_c, 1, 42, 0
3, 15591, Note_on_c, 1, 34, 0
3, 15600, Note_on_c, 1, 35, 117
3, 15715, Note_on_c, 1, 35, 0
3, 15721, Note_on_c, 1, 47, 127
3, 15956, Note_on_c, 1, 40, 91
3, 15963, Note_on_c, 1, 47, 0
3, 16082, Note_on_c, 1, 52, 127
3, 16105, Note_on_c, 1, 52, 0
3, 16116, Note_on_c, 1, 50, 103
3, 16149, Note_on_c, 1, 50, 0
3, 16154, Note_on_c, 1, 40, 0
3, 16160, Note_on_c, 1, 49, 126
3, 16260, Note_on_c, 1, 49, 0
3, 16262, Note_on_c, 1, 52, 97
3, 16285, Note_on_c, 1, 52, 0
3, 16292, Note_on_c, 1, 49, 87
3, 16321, Note_on_c, 1, 49, 0
3, 16336, Note_on_c, 1, 50, 127
3, 16441, Note_on_c, 1, 50, 0
3, 16450, Note_on_c, 1, 45, 94
3, 16626, Note_on_c, 1, 45, 0
3, 16633, Note_on_c, 1, 48, 127
3, 16663, Note_on_c, 1, 48, 0
3, 16685, Note_on_c, 1, 47, 109
3, 16754, Note_on_c, 1, 47, 0
3, 16761, Note_on_c, 1, 43, 93
3, 16987, Note_on_c, 1, 43, 0
3, 16994, Note_on_c, 1, 41, 100
3, 17029, Note_on_c, 1, 41, 0
3, 17045, Note_on_c, 1, 40, 84
3, 17277, Note_on_c, 1, 40, 0
3, 17280, Note_on_c, 1, 46, 127
3, 17449, Note_on_c, 1, 43, 84
3, 17458, Note_on_c, 1, 46, 0
3, 17470, Note_on_c, 1, 43, 0
3, 17478, Note_on_c, 1, 40, 82
3, 17496, Note_on_c, 1, 40, 0
3, 17521, Note_on_c, 1, 34, 108
3, 17636, Note_on_c, 1, 34, 0
3, 17644, Note_on_c, 1, 33, 114
3, 17805, Note_on_c, 1, 40, 94
3, 17822, Note_on_c, 1, 40, 0
3, 17838, Note_on_c, 1, 43, 91
3, 17849, Note_on_c, 1, 43, 0
3, 17881, Note_on_c, 1, 52, 127
3, 18038, Note_on_c, 1, 49, 106
3, 18042, Note_on_c, 1, 52, 0
3, 18046, Note_on_c, 1, 33, 0
3, 18063, Note_on_c, 1, 49, 0
3, 18072, Note_on_c, 1, 45, 108
3, 18092, Note_on_c, 1, 45, 0
3, 18116, Note_on_c, 1, 41, 93
3, 18138, Note_on_c, 1, 41, 0
3, 18149, Note_on_c, 1, 37, 126
3, 18226, Note_on_c, 1, 37, 0
3, 18234, Note_on_c, 1, 38, 120
3, 18408, Note_on_c, 1, 40, 99
3, 18418, Note_on_c, 1, 40, 0
3, 18443, Note_on_c, 1, 40, 100
3, 18466, Note_on_c, 1, 40, 0
3, 18484, Note_on_c, 1, 41, 117
3, 18510, Note_on_c, 1, 41, 0
3, 18522, Note_on_c, 1, 41, 84
3, 18549, Note_on_c, 1, 41, 0
3, 18646, Note_on_c, 1, 40, 85
3, 18663, Note_on_c, 1, 40, 0
3, 18680, Note_on_c, 1, 40, 85
3, 18708, Note_on_c, 1, 40, 0
3, 18723, Note_on_c, 1, 41, 109
3, 18741, Note_on_c, 1, 38, 0
3, 18747, Note_on_c, 1, 41, 0
3, 18761, Note_on_c, 1, 41, 111
3, 18790, Note_on_c, 1, 41, 0
3, 18803, Note_on_c, 1, 43, 127
3, 18825, Note_on_c, 1, 43, 0
3, 18841, Note_on_c, 1, 43, 100
3, 18864, Note_on_c, 1, 43, 0
3, 18879, Note_on_c, 1, 44, 121
3, 18902, Note_on_c, 1, 44, 0
3, 18915, Note_on_c, 1, 44, 115
3, 18942, Note_on_c, 1, 44, 0
3, 18960, Note_on_c, 1, 46, 127
3, 19134, Note_on_c, 1, 44, 102
3, 19148, Note_on_c, 1, 46, 0
3, 19159, Note_on_c, 1, 44, 0
3, 19168, Note_on_c, 1, 42, 85
3, 19196, Note_on_c, 1, 42, 0
3, 19207, Note_on_c, 1, 43, 108
3, 19317, Note_on_c, 1, 43, 0
3, 19321, Note_on_c, 1, 40, 105
3, 19434, Note_on_c, 1, 40, 0
3, 19441, Note_on_c, 1, 36, 109
3, 19623, Note_on_c, 1, 52, 127
3, 19644, Note_on_c, 1, 52, 0
3, 19656, Note_on_c, 1, 48, 114
3, 19678, Note_on_c, 1, 48, 0
3, 19701, Note_on_c, 1, 50, 127
3, 19715, Note_on_c, 1, 36, 0
3, 19787, Note_on_c, 1, 50, 0
3, 19804, Note_on_c, 1, 47, 99
3, 19906, Note_on_c, 1, 47, 0
3, 19920, Note_on_c, 1, 40, 93
3, 20123, Note_on_c, 1, 50, 127
3, 20172, Note_on_c, 1, 50, 0
3, 20188, Note_on_c, 1, 40, 0
3, 20193, Note_on_c, 1, 46, 123
3, 20366, Note_on_c, 1, 50, 127
3, 20382, Note_on_c, 1, 46, 0
3, 20409, Note_on_c, 1, 50, 0
3, 20423, Note_on_c, 1, 48, 120
3, 20593, Note_on_c, 1, 43, 109
3, 20596, Note_on_c, 1, 48, 0
3, 20650, Note_on_c, 1, 43, 0
3, 20660, Note_on_c, 1, 40, 85
3, 20723, Note_on_c, 1, 40, 0
3, 20724, Note_on_c, 1, 43, 108
3, 20773, Note_on_c, 1, 43, 0
3, 20779, Note_on_c, 1, 41, 100
3, 21004, Note_on_c, 1, 36, 100
3, 21018, Note_on_c, 1, 41, 0
3, 21125, Note_on_c, 1, 36, 0
3, 21125, Note_on_c, 1, 35, 106
3, 21301, Note_on_c, 1, 47, 105
3, 21317, Note_on_c, 1, 47, 0
3, 21334, Note_on_c, 1, 47, 111
3, 21362, Note_on_c, 1, 47, 0
3, 21377, Note_on_c, 1, 53, 127
3, 21435, Note_on_c, 1, 53, 0
3, 21451, Note_on_c, 1, 52, 124
3, 21482, Note_on_c, 1, 35, 0
3, 21531, Note_on_c, 1, 52, 0
3, 21536, Note_on_c, 1, 44, 75
3, 21608, Note_on_c, 1, 44, 0
3, 21613, Note_on_c, 1, 47, 112
3, 21690, Note_on_c, 1, 47, 0
3, 21695, Note_on_c, 1, 45, 87
3, 21828, Note_on_c, 1, 45, 0
3, 21837, Note_on_c, 1, 40, 96
3, 22160, Note_on_c, 1, 33, 100
3, 22164, Note_on_c, 1, 40, 0
3, 22243, Note_on_c, 1, 33, 0
3, 22243, Note_on_c, 1, 39, 109
3, 22323, Note_on_c, 1, 39, 0
3, 22329, Note_on_c, 1, 38, 96
3, 22524, Note_on_c, 1, 52, 127
3, 22568, Note_on_c, 1, 52, 0
3, 22582, Note_on_c, 1, 38, 0
3, 22584, Note_on_c, 1, 50, 117
3, 22676, Note_on_c, 1, 50, 0
3, 22688, Note_on_c, 1, 44, 85
3, 22797, Note_on_c, 1, 44, 0
3, 22803, Note_on_c, 1, 43, 88
3, 22947, Note_on_c, 1, 43, 0
3, 22958, Note_on_c, 1, 45, 99
3, 22970, Note_on_c, 1, 45, 0
3, 22997, Note_on_c, 1, 43, 88
3, 23031, Note_on_c, 1, 43, 0
3, 23047, Note_on_c, 1, 42, 103
3, 23158, Note_on_c, 1, 42, 0
3, 23159, Note_on_c, 1, 30, 127
3, 23359, Note_on_c, 1, 47, 127
3, 23383, Note_on_c, 1, 30, 0
3, 23444, Note_on_c, 1, 39, 111
3, 23453, Note_on_c, 1, 47, 0
3, 23516, Note_on_c, 1, 39, 0
3, 23520, Note_on_c, 1, 40, 100
3, 23709, Note_on_c, 1, 40, 0
3, 23715, Note_on_c, 1, 34, 105
3, 23763, Note_on_c, 1, 34, 0
3, 23769, Note_on_c, 1, 33, 96
3, 23946, Note_on_c, 1, 33, 0
3, 23956, Note_on_c, 1, 39, 97
3, 23997, Note_on_c, 1, 39, 0
3, 24008, Note_on_c, 1, 38, 81
3, 24164, Note_on_c, 1, 40, 79
3, 24175, Note_on_c, 1, 40, 0
3, 24199, Note_on_c, 1, 41, 111
3, 24224, Note_on_c, 1, 41, 0
3, 24243, Note_on_c, 1, 42, 124
3, 24246, Note_on_c, 1, 38, 0
3, 24412, Note_on_c, 1, 42, 0
3, 24417, Note_on_c, 1, 43, 102
3, 24447, Note_on_c, 1, 43, 0
3, 24451, Note_on_c, 1, 45, 120
3, 24483, Note_on_c, 1, 45, 0
3, 24496, Note_on_c, 1, 43, 96
3, 24565, Note_on_c, 1, 43, 0
3, 24566, Note_on_c, 1, 40, 94
3, 24657, Note_on_c, 1, 50, 127
3, 24662, Note_on_c, 1, 40, 0
3, 24726, Note_on_c, 1, 50, 0
3, 24731, Note_on_c, 1, 47, 108
3, 24807, Note_on_c, 1, 47, 0
3, 24816, Note_on_c, 1, 48, 108
3, 24895, Note_on_c, 1, 43, 91
3, 24896, Note_on_c, 1, 48, 0
3, 24959, Note_on_c, 1, 43, 0
3, 24967, Note_on_c, 1, 46, 100
3, 25364, Note_on_c, 1, 40, 94
3, 25373, Note_on_c, 1, 40, 0
3, 25402, Note_on_c, 1, 34, 97
3, 25435, Note_on_c, 1, 34, 0
3, 25441, Note_on_c, 1, 46, 0
3, 25443, Note_on_c, 1, 33, 115
3, 25681, Note_on_c, 1, 45, 127
3, 25839, Note_on_c, 1, 40, 96
3, 25844, Note_on_c, 1, 45, 0
3, 25850, Note_on_c, 1, 33, 0
3, 25856, Note_on_c, 1, 40, 0
3, 25875, Note_on_c, 1, 37, 105
3, 25909, Note_on_c, 1, 37, 0
3, 25918, Note_on_c, 1, 38, 124
3, 26084, Note_on_c, 1, 38, 0
3, 26086, Note_on_c, 1, 39, 106
3, 26108, Note_on_c, 1, 39, 0
3, 26121, Note_on_c, 1, 40, 103
3, 26160, Note_on_c, 1, 40, 0
3, 26165, Note_on_c, 1, 41, 127
3, 26279, Note_on_c, 1, 41, 0
3, 26283, Note_on_c, 1, 42, 72
3, 26310, Note_on_c, 1, 42, 0
3, 26325, Note_on_c, 1, 43, 91
3, 26342, Note_on_c, 1, 43, 0
3, 26366, Note_on_c, 1, 44, 127
3, 26566, Note_on_c, 1, 48, 103
3, 26577, Note_on_c, 1, 44, 0
3, 26602, Note_on_c, 1, 44, 81
3, 26617, Note_on_c, 1, 44, 0
3, 26635, Note_on_c, 1, 48, 0
3, 26648, Note_on_c, 1, 46, 91
3, 26887, Note_on_c, 1, 45, 126
3, 26896, Note_on_c, 1, 46, 0
3, 27128, Note_on_c, 1, 33, 90
3, 27324, Note_on_c, 1, 48, 127
3, 27334, Note_on_c, 1, 45, 0
3, 27349, Note_on_c, 1, 33, 0
3, 27360, Note_on_c, 1, 48, 0
3, 27368, Note_on_c, 1, 47, 121
3, 27523, Note_on_c, 1, 41, 102
3, 27543, Note_on_c, 1, 41, 0
3, 27563, Note_on_c, 1, 39, 108
3, 27582, Note_on_c, 1, 39, 0
3, 27602, Note_on_c, 1, 40, 123
3, 27610, Note_on_c, 1, 47, 0
3, 27712, Note_on_c, 1, 40, 0
3, 27719, Note_on_c, 1, 34, 127
3, 27839, Note_on_c, 1, 34, 0
3, 27840, Note_on_c, 1, 33, 111
3, 27958, Note_on_c, 1, 45, 127
3, 27976, Note_on_c, 1, 33, 0
3, 28159, Note_on_c, 1, 33, 88
3, 28169, Note_on_c, 1, 33, 0
3, 28183, Note_on_c, 1, 45, 0
3, 28196, Note_on_c, 1, 43, 115
3, 28313, Note_on_c, 1, 43, 0
3, 28317, Note_on_c, 1, 42, 108
3, 28568, Note_on_c, 1, 42, 0
3, 28570, Note_on_c, 1, 41, 112
3, 28800, Note_on_c, 1, 41, 0
3, 28806, Note_on_c, 1, 40, 120
3, 29046, Note_on_c, 1, 39, 127
3, 29050, Note_on_c, 1, 40, 0
3, 29272, Note_on_c, 1, 39, 0
3, 29280, Note_on_c, 1, 38, 102
3, 29404, Note_on_c, 1, 45, 127
3, 29408, Note_on_c, 1, 38, 0
3, 29520, Note_on_c, 1, 45, 0
3, 29527, Note_on_c, 1, 43, 112
3, 29644, Note_on_c, 1, 31, 127
3, 29646, Note_on_c, 1, 43, 0
3, 29843, Note_on_c, 1, 38, 100
3, 29850, Note_on_c, 1, 38, 0
3, 29878, Note_on_c, 1, 45, 127
3, 29880, Note_on_c, 1, 31, 0
3, 29993, Note_on_c, 1, 45, 0
3, 30001, Note_on_c, 1, 43, 127
3, 30244, Note_on_c, 1, 31, 126
3, 30354, Note_on_c, 1, 31, 0
3, 30368, Note_on_c, 1, 31, 127
3, 30389, Note_on_c, 1, 43, 0
3, 30477, Note_on_c, 1, 31, 0
3, 30486, Note_on_c, 1, 45, 127
3, 30568, Note_on_c, 1, 31, 93
3, 30576, Note_on_c, 1, 31, 0
3, 30588, Note_on_c, 1, 45, 0
3, 30602, Note_on_c, 1, 43, 127
3, 30672, Note_on_c, 1, 43, 0
3, 30729, Note_on_c, 1, 42, 127
3, 30910, Note_on_c, 1, 42, 0
3, 30926, Note_on_c, 1, 34, 106
3, 30965, Note_on_c, 1, 34, 0
3, 30967, Note_on_c, 1, 35, 114
3, 31068, Note_on_c, 1, 35, 0
3, 31089, Note_on_c, 1, 47, 123
3, 31174, Note_on_c, 1, 39, 76
3, 31193, Note_on_c, 1, 47, 0
3, 31205, Note_on_c, 1, 39, 0
3, 31210, Note_on_c, 1, 40, 97
3, 31301, Note_on_c, 1, 34, 96
3, 31316, Note_on_c, 1, 40, 0
3, 31324, Note_on_c, 1, 34, 0
3, 31326, Note_on_c, 1, 46, 127
3, 31446, Note_on_c, 1, 46, 0
3, 31448, Note_on_c, 1, 45, 114
3, 31470, Note_on_c, 1, 45, 0
3, 31529, Note_on_c, 1, 40, 88
3, 31545, Note_on_c, 1, 40, 0
3, 31562, Note_on_c, 1, 37, 111
3, 31684, Note_on_c, 1, 37, 0
3, 31686, Note_on_c, 1, 38, 111
3, 31780, Note_on_c, 1, 37, 85
3, 31794, Note_on_c, 1, 38, 0
3, 31807, Note_on_c, 1, 45, 127
3, 31811, Note_on_c, 1, 37, 0
3, 31904, Note_on_c, 1, 38, 72
3, 31913, Note_on_c, 1, 45, 0
3, 31916, Note_on_c, 1, 38, 0
3, 31924, Note_on_c, 1, 51, 118
3, 32028, Note_on_c, 1, 51, 0
3, 32043, Note_on_c, 1, 51, 126
3, 32140, Note_on_c, 1, 40, 72
3, 32154, Note_on_c, 1, 51, 0
3, 32157, Note_on_c, 1, 40, 0
3, 32164, Note_on_c, 1, 52, 114
3, 32279, Note_on_c, 1, 52, 0
3, 32289, Note_on_c, 1, 47, 105
3, 32380, Note_on_c, 1, 42, 60
3, 32388, Note_on_c, 1, 42, 0
3, 32408, Note_on_c, 1, 47, 0
3, 32411, Note_on_c, 1, 48, 127
3, 32534, Note_on_c, 1, 39, 127
3, 32544, Note_on_c, 1, 48, 0
3, 32652, Note_on_c, 1, 40, 120
3, 32654, Note_on_c, 1, 39, 0
3, 32739, Note_on_c, 1, 37, 90
3, 32757, Note_on_c, 1, 40, 0
3, 32761, Note_on_c, 1, 37, 0
3, 32768, Note_on_c, 1, 46, 127
3, 32887, Note_on_c, 1, 34, 120
3, 32891, Note_on_c, 1, 46, 0
3, 33000, Note_on_c, 1, 34, 0
3, 33004, Note_on_c, 1, 32, 112
3, 33120, Note_on_c, 1, 33, 127
3, 33121, Note_on_c, 1, 32, 0
3, 33211, Note_on_c, 1, 32, 100
3, 33227, Note_on_c, 1, 32, 0
3, 33238, Note_on_c, 1, 52, 127
3, 33242, Note_on_c, 1, 33, 0
3, 33339, Note_on_c, 1, 33, 78
3, 33347, Note_on_c, 1, 52, 0
3, 33352, Note_on_c, 1, 33, 0
3, 33359, Note_on_c, 1, 50, 126
3, 33450, Note_on_c, 1, 33, 91
3, 33467, Note_on_c, 1, 33, 0
3, 33467, Note_on_c, 1, 50, 0
3, 33479, Note_on_c, 1, 49, 127
3, 33590, Note_on_c, 1, 49, 0
3, 33597, Note_on_c, 1, 50, 124
3, 33684, Note_on_c, 1, 45, 91
3, 33696, Note_on_c, 1, 45, 0
3, 33711, Note_on_c, 1, 50, 0
3, 33718, Note_on_c, 1, 37, 108
3, 33840, Note_on_c, 1, 37, 0
3, 33841, Note_on_c, 1, 38, 127
3, 33926, Note_on_c, 1, 37, 75
3, 33949, Note_on_c, 1, 37, 0
3, 33963, Note_on_c, 1, 38, 0
3, 33963, Note_on_c, 1, 45, 127
3, 34080, Note_on_c, 1, 41, 127
3, 34091, Note_on_c, 1, 45, 0
3, 34179, Note_on_c, 1, 39, 55
3, 34203, Note_on_c, 1, 48, 127
3, 34210, Note_on_c, 1, 41, 0
3, 34212, Note_on_c, 1, 39, 0
3, 34310, Note_on_c, 1, 48, 0
3, 34323, Note_on_c, 1, 46, 124
3, 34447, Note_on_c, 1, 35, 127
3, 34451, Note_on_c, 1, 46, 0
3, 34569, Note_on_c, 1, 36, 114
3, 34571, Note_on_c, 1, 35, 0
3, 34680, Note_on_c, 1, 36, 0
3, 34686, Note_on_c, 1, 38, 117
3, 34800, Note_on_c, 1, 38, 0
3, 34804, Note_on_c, 1, 40, 114
3, 34893, Note_on_c, 1, 36, 79
3, 34910, Note_on_c, 1, 36, 0
3, 34910, Note_on_c, 1, 40, 0
3, 34925, Note_on_c, 1, 43, 115
3, 35031, Note_on_c, 1, 43, 0
3, 35040, Note_on_c, 1, 47, 120
3, 35163, Note_on_c, 1, 39, 127
3, 35171, Note_on_c, 1, 47, 0
3, 35286, Note_on_c, 1, 40, 127
3, 35289, Note_on_c, 1, 39, 0
3, 35376, Note_on_c, 1, 39, 88
3, 35403, Note_on_c, 1, 40, 0
3, 35407, Note_on_c, 1, 52, 127
3, 35412, Note_on_c, 1, 39, 0
3, 35518, Note_on_c, 1, 52, 0
3, 35530, Note_on_c, 1, 42, 123
3, 35604, Note_on_c, 1, 42, 0
3, 35610, Note_on_c, 1, 43, 108
3, 35632, Note_on_c, 1, 43, 0
3, 35650, Note_on_c, 1, 40, 109
3, 35723, Note_on_c, 1, 40, 0
3, 35724, Note_on_c, 1, 41, 114
3, 35747, Note_on_c, 1, 41, 0
3, 35842, Note_on_c, 1, 40, 127
3, 35866, Note_on_c, 1, 40, 0
3, 35882, Note_on_c, 1, 36, 115
3, 35980, Note_on_c, 1, 34, 55
3, 35991, Note_on_c, 1, 36, 0
3, 35995, Note_on_c, 1, 34, 0
3, 36002, Note_on_c, 1, 41, 127
3, 36104, Note_on_c, 1, 38, 93
3, 36110, Note_on_c, 1, 41, 0
3, 36123, Note_on_c, 1, 43, 109
3, 36126, Note_on_c, 1, 38, 0
3, 36228, Note_on_c, 1, 38, 75
3, 36229, Note_on_c, 1, 43, 0
3, 36238, Note_on_c, 1, 38, 0
3, 36239, Note_on_c, 1, 45, 114
3, 36344, Note_on_c, 1, 45, 0
3, 36358, Note_on_c, 1, 48, 126
3, 36453, Note_on_c, 1, 41, 94
3, 36463, Note_on_c, 1, 41, 0
3, 36472, Note_on_c, 1, 48, 0
3, 36482, Note_on_c, 1, 47, 112
3, 36602, Note_on_c, 1, 47, 0
3, 36605, Note_on_c, 1, 41, 127
3, 36725, Note_on_c, 1, 40, 120
3, 36726, Note_on_c, 1, 41, 0
3, 36813, Note_on_c, 1, 39, 87
3, 36836, Note_on_c, 1, 39, 0
3, 36845, Note_on_c, 1, 52, 127
3, 36852, Note_on_c, 1, 40, 0
3, 36956, Note_on_c, 1, 52, 0
3, 36967, Note_on_c, 1, 48, 124
3, 37067, Note_on_c, 1, 47, 51
3, 37070, Note_on_c, 1, 48, 0
3, 37080, Note_on_c, 1, 47, 0
3, 37090, Note_on_c, 1, 59, 127
3, 37200, Note_on_c, 1, 59, 0
3, 37209, Note_on_c, 1, 57, 111
3, 37288, Note_on_c, 1, 44, 67
3, 37300, Note_on_c, 1, 44, 0
3, 37322, Note_on_c, 1, 57, 0
3, 37324, Note_on_c, 1, 52, 120
3, 37407, Note_on_c, 1, 42, 67
3, 37415, Note_on_c, 1, 42, 0
3, 37435, Note_on_c, 1, 52, 0
3, 37448, Note_on_c, 1, 48, 94
3, 37568, Note_on_c, 1, 38, 127
3, 37640, Note_on_c, 1, 48, 0
3, 37674, Note_on_c, 1, 38, 0
3, 37689, Note_on_c, 1, 38, 127
3, 37811, Note_on_c, 1, 49, 127
3, 37914, Note_on_c, 1, 38, 0
3, 37920, Note_on_c, 1, 49, 0
3, 37929, Note_on_c, 1, 50, 127
3, 38048, Note_on_c, 1, 50, 0
3, 38052, Note_on_c, 1, 42, 127
3, 38161, Note_on_c, 1, 42, 0
3, 38168, Note_on_c, 1, 43, 127
3, 38276, Note_on_c, 1, 43, 0
3, 38292, Note_on_c, 1, 43, 127
3, 38406, Note_on_c, 1, 43, 0
3, 38414, Note_on_c, 1, 42, 126
3, 38516, Note_on_c, 1, 42, 0
3, 38531, Note_on_c, 1, 42, 126
3, 38637, Note_on_c, 1, 42, 0
3, 38649, Note_on_c, 1, 35, 114
3, 38748, Note_on_c, 1, 35, 0
3, 38767, Note_on_c, 1, 35, 127
3, 38882, Note_on_c, 1, 35, 0
3, 38886, Note_on_c, 1, 40, 127
3, 38992, Note_on_c, 1, 40, 0
3, 39005, Note_on_c, 1, 34, 127
3, 39116, Note_on_c, 1, 34, 0
3, 39126, Note_on_c, 1, 33, 120
3, 39240, Note_on_c, 1, 33, 0
3, 39250, Note_on_c, 1, 39, 127
3, 39263, Note_on_c, 1, 32, 55
3, 39271, Note_on_c, 1, 32, 0
3, 39358, Note_on_c, 1, 39, 0
3, 39370, Note_on_c, 1, 38, 120
3, 39457, Note_on_c, 1, 34, 84
3, 39488, Note_on_c, 1, 48, 127
3, 39489, Note_on_c, 1, 38, 0
3, 39499, Note_on_c, 1, 34, 0
3, 39589, Note_on_c, 1, 48, 0
3, 39604, Note_on_c, 1, 51, 127
3, 39692, Note_on_c, 1, 39, 49
3, 39712, Note_on_c, 1, 39, 0
3, 39807, Note_on_c, 1, 42, 94
3, 39820, Note_on_c, 1, 42, 0
3, 39824, Note_on_c, 1, 51, 0
3, 39842, Note_on_c, 1, 52, 124
3, 39927, Note_on_c, 1, 52, 0
3, 39927, Note_on_c, 1, 47, 108
3, 39950, Note_on_c, 1, 47, 0
3, 39966, Note_on_c, 1, 43, 100
3, 40070, Note_on_c, 1, 43, 0
3, 40085, Note_on_c, 1, 40, 112
3, 40195, Note_on_c, 1, 40, 0
3, 40208, Note_on_c, 1, 36, 114
3, 40324, Note_on_c, 1, 36, 0
3, 40326, Note_on_c, 1, 46, 118
3, 40432, Note_on_c, 1, 46, 0
3, 40448, Note_on_c, 1, 45, 117
3, 40558, Note_on_c, 1, 45, 0
3, 40569, Note_on_c, 1, 43, 99
3, 40677, Note_on_c, 1, 43, 0
3, 40687, Note_on_c, 1, 41, 114
3, 40801, Note_on_c, 1, 41, 0
3, 40809, Note_on_c, 1, 40, 109
3, 40927, Note_on_c, 1, 40, 0
3, 40928, Note_on_c, 1, 34, 121
3, 41046, Note_on_c, 1, 33, 121
3, 41050, Note_on_c, 1, 34, 0
3, 41157, Note_on_c, 1, 33, 0
3, 41164, Note_on_c, 1, 37, 112
3, 41285, Note_on_c, 1, 37, 0
3, 41288, Note_on_c, 1, 38, 117
3, 41330, Note_on_c, 1, 38, 0
3, 41376, Note_on_c, 1, 38, 109
3, 41402, Note_on_c, 1, 38, 0
3, 41411, Note_on_c, 1, 40, 118
3, 41524, Note_on_c, 1, 40, 0
3, 41526, Note_on_c, 1, 41, 117
3, 41616, Note_on_c, 1, 39, 87
3, 41638, Note_on_c, 1, 41, 0
3, 41645, Note_on_c, 1, 48, 127
3, 41654, Note_on_c, 1, 39, 0
3, 41723, Note_on_c, 1, 48, 0
3, 41728, Note_on_c, 1, 45, 87
3, 41728, Note_on_c, 1, 41, 72
3, 41739, Note_on_c, 1, 41, 0
3, 41743, Note_on_c, 1, 45, 0
3, 41765, Note_on_c, 1, 44, 127
3, 41858, Note_on_c, 1, 41, 54
3, 41868, Note_on_c, 1, 41, 0
3, 41875, Note_on_c, 1, 44, 0
3, 41884, Note_on_c, 1, 51, 127
3, 41998, Note_on_c, 1, 51, 0
3, 42007, Note_on_c, 1, 46, 97
3, 42094, Note_on_c, 1, 41, 82
3, 42105, Note_on_c, 1, 41, 0
3, 42120, Note_on_c, 1, 46, 0
3, 42125, Note_on_c, 1, 53, 124
3, 42218, Note_on_c, 1, 43, 72
3, 42228, Note_on_c, 1, 43, 0
3, 42228, Note_on_c, 1, 53, 0
3, 42249, Note_on_c, 1, 52, 109
3, 42331, Note_on_c, 1, 48, 90
3, 42344, Note_on_c, 1, 52, 0
3, 42354, Note_on_c, 1, 48, 0
3, 42369, Note_on_c, 1, 45, 88
3, 42474, Note_on_c, 1, 45, 0
3, 42486, Note_on_c, 1, 40, 105
3, 42600, Note_on_c, 1, 40, 0
3, 42604, Note_on_c, 1, 33, 97
3, 42694, Note_on_c, 1, 40, 97
3, 42701, Note_on_c, 1, 33, 0
3, 42704, Note_on_c, 1, 40, 0
3, 42723, Note_on_c, 1, 47, 112
3, 42845, Note_on_c, 1, 47, 0
3, 42848, Note_on_c, 1, 39, 118
3, 42966, Note_on_c, 1, 39, 0
3, 42967, Note_on_c, 1, 40, 123
3, 43081, Note_on_c, 1, 40, 0
3, 43084, Note_on_c, 1, 34, 118
3, 43204, Note_on_c, 1, 33, 120
3, 43205, Note_on_c, 1, 34, 0
3, 43294, Note_on_c, 1, 34, 96
3, 43311, Note_on_c, 1, 33, 0
3, 43318, Note_on_c, 1, 34, 0
3, 43325, Note_on_c, 1, 45, 127
3, 43436, Note_on_c, 1, 45, 0
3, 43445, Note_on_c, 1, 44, 121
3, 43562, Note_on_c, 1, 44, 0
3, 43563, Note_on_c, 1, 43, 112
3, 43688, Note_on_c, 1, 42, 114
3, 43701, Note_on_c, 1, 43, 0
3, 43772, Note_on_c, 1, 39, 87
3, 43804, Note_on_c, 1, 54, 127
3, 43807, Note_on_c, 1, 39, 0
3, 43821, Note_on_c, 1, 42, 0
3, 43919, Note_on_c, 1, 54, 0
3, 43925, Note_on_c, 1, 53, 111
3, 44042, Note_on_c, 1, 53, 0
3, 44048, Note_on_c, 1, 41, 127
3, 44158, Note_on_c, 1, 41, 0
3, 44170, Note_on_c, 1, 40, 120
3, 44284, Note_on_c, 1, 52, 127
3, 44298, Note_on_c, 1, 40, 0
3, 44390, Note_on_c, 1, 52, 0
3, 44400, Note_on_c, 1, 51, 121
3, 44526, Note_on_c, 1, 39, 126
3, 44543, Note_on_c, 1, 51, 0
3, 44647, Note_on_c, 1, 38, 127
3, 44648, Note_on_c, 1, 39, 0
3, 44765, Note_on_c, 1, 50, 127
3, 44776, Note_on_c, 1, 38, 0
3, 44889, Note_on_c, 1, 50, 0
3, 44892, Note_on_c, 1, 43, 127
3, 45129, Note_on_c, 1, 31, 127
3, 45183, Note_on_c, 1, 31, 0
3, 45241, Note_on_c, 1, 31, 127
3, 45376, Note_on_c, 1, 43, 0
3, 45488, Note_on_c, 1, 43, 127
3, 45573, Note_on_c, 1, 43, 0
3, 45606, Note_on_c, 1, 43, 127
3, 45746, Note_on_c, 1, 31, 0
3, 45851, Note_on_c, 1, 31, 99
3, 45861, Note_on_c, 1, 43, 0
3, 45931, Note_on_c, 1, 45, 127
3, 45937, Note_on_c, 1, 47, 79
3, 45947, Note_on_c, 1, 47, 0
3, 45950, Note_on_c, 1, 31, 0
3, 45960, Note_on_c, 1, 45, 0
3, 45971, Note_on_c, 1, 43, 124
3, 46050, Note_on_c, 1, 38, 103
3, 46052, Note_on_c, 1, 43, 0
3, 46061, Note_on_c, 1, 38, 0
3, 46084, Note_on_c, 1, 42, 102
3, 46206, Note_on_c, 1, 36, 112
3, 46214, Note_on_c, 1, 42, 0
3, 46322, Note_on_c, 1, 36, 0
3, 46327, Note_on_c, 1, 35, 106
3, 46411, Note_on_c, 1, 34, 87
3, 46432, Note_on_c, 1, 35, 0
3, 46439, Note_on_c, 1, 34, 0
3, 46444, Note_on_c, 1, 47, 117
3, 46544, Note_on_c, 1, 47, 0
3, 46544, Note_on_c, 1, 40, 63
3, 46556, Note_on_c, 1, 40, 0
3, 46563, Note_on_c, 1, 52, 127
3, 46677, Note_on_c, 1, 52, 0
3, 46689, Note_on_c, 1, 46, 96
3, 46807, Note_on_c, 1, 45, 102
3, 46809, Note_on_c, 1, 46, 0
3, 46917, Note_on_c, 1, 45, 0
3, 46927, Note_on_c, 1, 51, 127
3, 47039, Note_on_c, 1, 51, 0
3, 47049, Note_on_c, 1, 50, 117
3, 47133, Note_on_c, 1, 50, 0
3, 47133, Note_on_c, 1, 45, 111
3, 47147, Note_on_c, 1, 45, 0
3, 47171, Note_on_c, 1, 41, 120
3, 47264, Note_on_c, 1, 41, 0
3, 47287, Note_on_c, 1, 39, 127
3, 47403, Note_on_c, 1, 51, 127
3, 47443, Note_on_c, 1, 39, 0
3, 47490, Note_on_c, 1, 39, 52
3, 47507, Note_on_c, 1, 39, 0
3, 47517, Note_on_c, 1, 51, 0
3, 47525, Note_on_c, 1, 52, 127
3, 47633, Note_on_c, 1, 52, 0
3, 47647, Note_on_c, 1, 47, 105
3, 47762, Note_on_c, 1, 47, 0
3, 47772, Note_on_c, 1, 48, 120
3, 47890, Note_on_c, 1, 48, 0
3, 47894, Note_on_c, 1, 43, 93
3, 48012, Note_on_c, 1, 39, 105
3, 48123, Note_on_c, 1, 39, 0
3, 48130, Note_on_c, 1, 40, 123
3, 48240, Note_on_c, 1, 43, 0
3, 48244, Note_on_c, 1, 40, 0
3, 48248, Note_on_c, 1, 34, 123
3, 48357, Note_on_c, 1, 34, 0
3, 48365, Note_on_c, 1, 32, 123
3, 48476, Note_on_c, 1, 32, 0
3, 48486, Note_on_c, 1, 33, 123
3, 48603, Note_on_c, 1, 35, 127
3, 48607, Note_on_c, 1, 33, 0
3, 48718, Note_on_c, 1, 35, 0
3, 48724, Note_on_c, 1, 36, 121
3, 48837, Note_on_c, 1, 36, 0
3, 48847, Note_on_c, 1, 37, 127
3, 48912, Note_on_c, 1, 37, 0
3, 48932, Note_on_c, 1, 37, 96
3, 48965, Note_on_c, 1, 37, 0
3, 48965, Note_on_c, 1, 38, 127
3, 49086, Note_on_c, 1, 40, 127
3, 49099, Note_on_c, 1, 38, 0
3, 49161, Note_on_c, 1, 40, 0
3, 49181, Note_on_c, 1, 40, 96
3, 49208, Note_on_c, 1, 41, 127
3, 49218, Note_on_c, 1, 40, 0
3, 49317, Note_on_c, 1, 41, 0
3, 49333, Note_on_c, 1, 42, 127
3, 49444, Note_on_c, 1, 42, 0
3, 49447, Note_on_c, 1, 41, 120
3, 49565, Note_on_c, 1, 44, 124
3, 49579, Note_on_c, 1, 41, 0
3, 49678, Note_on_c, 1, 46, 121
3, 49679, Note_on_c, 1, 44, 0
3, 49769, Note_on_c, 1, 44, 97
3, 49782, Note_on_c, 1, 46, 0
3, 49785, Note_on_c, 1, 44, 0
3, 49799, Note_on_c, 1, 47, 109
3, 49914, Note_on_c, 1, 47, 0
3, 49922, Note_on_c, 1, 48, 117
3, 50004, Note_on_c, 1, 48, 0
3, 50008, Note_on_c, 1, 46, 102
3, 50030, Note_on_c, 1, 46, 0
3, 50041, Note_on_c, 1, 47, 124
3, 50123, Note_on_c, 1, 47, 0
3, 50128, Note_on_c, 1, 44, 102
3, 50147, Note_on_c, 1, 44, 0
3, 50160, Note_on_c, 1, 45, 121
3, 50244, Note_on_c, 1, 45, 0
3, 50253, Note_on_c, 1, 42, 93
3, 50276, Note_on_c, 1, 42, 0
3, 50282, Note_on_c, 1, 43, 121
3, 50374, Note_on_c, 1, 42, 94
3, 50383, Note_on_c, 1, 43, 0
3, 50390, Note_on_c, 1, 42, 0
3, 50402, Note_on_c, 1, 47, 127
3, 50484, Note_on_c, 1, 41, 127
3, 50487, Note_on_c, 1, 47, 0
3, 50511, Note_on_c, 1, 41, 0
3, 50521, Note_on_c, 1, 39, 106
3, 50632, Note_on_c, 1, 39, 0
3, 50639, Note_on_c, 1, 40, 120
3, 50746, Note_on_c, 1, 40, 0
3, 50762, Note_on_c, 1, 32, 121
3, 50873, Note_on_c, 1, 32, 0
3, 50883, Note_on_c, 1, 31, 108
3, 51005, Note_on_c, 1, 43, 127
3, 51120, Note_on_c, 1, 31, 0
3, 51130, Note_on_c, 1, 48, 127
3, 51133, Note_on_c, 1, 43, 0
3, 51244, Note_on_c, 1, 48, 0
3, 51247, Note_on_c, 1, 40, 103
3, 51361, Note_on_c, 1, 40, 0
3, 51367, Note_on_c, 1, 41, 114
3, 51458, Note_on_c, 1, 40, 70
3, 51481, Note_on_c, 1, 40, 0
3, 51485, Note_on_c, 1, 55, 127
3, 51489, Note_on_c, 1, 41, 0
3, 51591, Note_on_c, 1, 55, 0
3, 51606, Note_on_c, 1, 53, 120
3, 51689, Note_on_c, 1, 41, 66
3, 51704, Note_on_c, 1, 41, 0
3, 51724, Note_on_c, 1, 53, 0
3, 51727, Note_on_c, 1, 48, 103
3, 51805, Note_on_c, 1, 41, 60
3, 51817, Note_on_c, 1, 41, 0
3, 51841, Note_on_c, 1, 48, 0
3, 51848, Note_on_c, 1, 47, 100
3, 51937, Note_on_c, 1, 41, 85
3, 51950, Note_on_c, 1, 41, 0
3, 51955, Note_on_c, 1, 47, 0
3, 51966, Note_on_c, 1, 53, 118
3, 52085, Note_on_c, 1, 52, 127
3, 52086, Note_on_c, 1, 53, 0
3, 52171, Note_on_c, 1, 47, 94
3, 52183, Note_on_c, 1, 47, 0
3, 52210, Note_on_c, 1, 40, 117
3, 52273, Note_on_c, 1, 52, 0
3, 52321, Note_on_c, 1, 40, 0
3, 52326, Note_on_c, 1, 45, 127
3, 52436, Note_on_c, 1, 45, 0
3, 52443, Note_on_c, 1, 33, 127
3, 52565, Note_on_c, 1, 40, 123
3, 52582, Note_on_c, 1, 33, 0
3, 52680, Note_on_c, 1, 40, 0
3, 52685, Note_on_c, 1, 39, 118
3, 52797, Note_on_c, 1, 39, 0
3, 52806, Note_on_c, 1, 40, 114
3, 52925, Note_on_c, 1, 40, 0
3, 52925, Note_on_c, 1, 37, 120
3, 53039, Note_on_c, 1, 37, 0
3, 53047, Note_on_c, 1, 38, 121
3, 53170, Note_on_c, 1, 51, 127
3, 53253, Note_on_c, 1, 38, 0
3, 53280, Note_on_c, 1, 51, 0
3, 53289, Note_on_c, 1, 50, 124
3, 53408, Note_on_c, 1, 50, 0
3, 53408, Note_on_c, 1, 42, 127
3, 53526, Note_on_c, 1, 43, 126
3, 53528, Note_on_c, 1, 42, 0
3, 53629, Note_on_c, 1, 43, 0
3, 53647, Note_on_c, 1, 43, 127
3, 53755, Note_on_c, 1, 43, 0
3, 53763, Note_on_c, 1, 42, 114
3, 53872, Note_on_c, 1, 42, 0
3, 53888, Note_on_c, 1, 42, 121
3, 54006, Note_on_c, 1, 47, 111
3, 54010, Note_on_c, 1, 42, 0
3, 54127, Note_on_c, 1, 41, 127
3, 54129, Note_on_c, 1, 47, 0
3, 54235, Note_on_c, 1, 41, 0
3, 54246, Note_on_c, 1, 40, 127
3, 54360, Note_on_c, 1, 46, 127
3, 54386, Note_on_c, 1, 40, 0
3, 54484, Note_on_c, 1, 45, 127
3, 54500, Note_on_c, 1, 46, 0
3, 54568, Note_on_c, 1, 34, 120
3, 54588, Note_on_c, 1, 45, 0
3, 54593, Note_on_c, 1, 34, 0
3, 54607, Note_on_c, 1, 33, 124
3, 54718, Note_on_c, 1, 33, 0
3, 54724, Note_on_c, 1, 38, 120
3, 54841, Note_on_c, 1, 45, 105
3, 54856, Note_on_c, 1, 38, 0
3, 54940, Note_on_c, 1, 38, 79
3, 54950, Note_on_c, 1, 38, 0
3, 54960, Note_on_c, 1, 45, 0
3, 54966, Note_on_c, 1, 51, 106
3, 55081, Note_on_c, 1, 51, 0
3, 55081, Note_on_c, 1, 39, 127
3, 55201, Note_on_c, 1, 39, 0
3, 55207, Note_on_c, 1, 40, 120
3, 55294, Note_on_c, 1, 39, 94
3, 55314, Note_on_c, 1, 40, 0
3, 55324, Note_on_c, 1, 52, 127
3, 55327, Note_on_c, 1, 39, 0
3, 55434, Note_on_c, 1, 52, 0
3, 55448, Note_on_c, 1, 48, 105
3, 55562, Note_on_c, 1, 48, 0
3, 55563, Note_on_c, 1, 43, 111
3, 55674, Note_on_c, 1, 43, 0
3, 55685, Note_on_c, 1, 46, 109
3, 55699, Note_on_c, 1, 46, 0
3, 55766, Note_on_c, 1, 46, 105
3, 55791, Note_on_c, 1, 46, 0
3, 55803, Note_on_c, 1, 40, 127
3, 55924, Note_on_c, 1, 45, 127
3, 55932, Note_on_c, 1, 40, 0
3, 56037, Note_on_c, 1, 45, 0
3, 56040, Note_on_c, 1, 34, 127
3, 56157, Note_on_c, 1, 34, 0
3, 56164, Note_on_c, 1, 33, 123
3, 56284, Note_on_c, 1, 35, 127
3, 56293, Note_on_c, 1, 33, 0
3, 56406, Note_on_c, 1, 35, 0
3, 56409, Note_on_c, 1, 36, 127
3, 56520, Note_on_c, 1, 36, 0
3, 56528, Note_on_c, 1, 37, 120
3, 56639, Note_on_c, 1, 37, 0
3, 56648, Note_on_c, 1, 38, 117
3, 56753, Note_on_c, 1, 38, 0
3, 56762, Note_on_c, 1, 40, 118
3, 56872, Note_on_c, 1, 40, 0
3, 56880, Note_on_c, 1, 41, 123
3, 57003, Note_on_c, 1, 40, 123
3, 57005, Note_on_c, 1, 41, 0
3, 57124, Note_on_c, 1, 40, 0
3, 57128, Note_on_c, 1, 41, 126
3, 57224, Note_on_c, 1, 40, 66
3, 57237, Note_on_c, 1, 40, 0
3, 57240, Note_on_c, 1, 41, 0
3, 57246, Note_on_c, 1, 44, 111
3, 57339, Note_on_c, 1, 40, 72
3, 57351, Note_on_c, 1, 40, 0
3, 57355, Note_on_c, 1, 44, 0
3, 57363, Note_on_c, 1, 46, 106
3, 57468, Note_on_c, 1, 46, 0
3, 57480, Note_on_c, 1, 47, 127
3, 57569, Note_on_c, 1, 40, 84
3, 57582, Note_on_c, 1, 40, 0
3, 57595, Note_on_c, 1, 47, 0
3, 57604, Note_on_c, 1, 45, 97
3, 57711, Note_on_c, 1, 45, 0
3, 57720, Note_on_c, 1, 48, 127
3, 57831, Note_on_c, 1, 48, 0
3, 57839, Note_on_c, 1, 52, 127
3, 57946, Note_on_c, 1, 52, 0
3, 57968, Note_on_c, 1, 46, 127
3, 58076, Note_on_c, 1, 46, 0
3, 58085, Note_on_c, 1, 47, 118
3, 58205, Note_on_c, 1, 47, 0
3, 58205, Note_on_c, 1, 39, 115
3, 58317, Note_on_c, 1, 39, 0
3, 58322, Note_on_c, 1, 40, 124
3, 58441, Note_on_c, 1, 40, 0
3, 58441, Note_on_c, 1, 34, 127
3, 58563, Note_on_c, 1, 34, 0
3, 58565, Note_on_c, 1, 33, 124
3, 58652, Note_on_c, 1, 34, 96
3, 58674, Note_on_c, 1, 34, 0
3, 58677, Note_on_c, 1, 33, 0
3, 58683, Note_on_c, 1, 45, 127
3, 58791, Note_on_c, 1, 45, 0
3, 58802, Note_on_c, 1, 44, 124
3, 58916, Note_on_c, 1, 44, 0
3, 58920, Note_on_c, 1, 43, 121
3, 59040, Note_on_c, 1, 43, 0
3, 59044, Note_on_c, 1, 42, 121
3, 59166, Note_on_c, 1, 42, 0
3, 59168, Note_on_c, 1, 30, 118
3, 59277, Note_on_c, 1, 30, 0
3, 59289, Note_on_c, 1, 29, 108
3, 59400, Note_on_c, 1, 29, 0
3, 59407, Note_on_c, 1, 41, 127
3, 59613, Note_on_c, 1, 39, 96
3, 59639, Note_on_c, 1, 39, 0
3, 59640, Note_on_c, 1, 41, 0
3, 59651, Note_on_c, 1, 40, 127
3, 59854, Note_on_c, 1, 39, 84
3, 59872, Note_on_c, 1, 40, 0
3, 59878, Note_on_c, 1, 39, 0
3, 59884, Note_on_c, 1, 51, 127
3, 59997, Note_on_c, 1, 51, 0
3, 60006, Note_on_c, 1, 50, 123
3, 60247, Note_on_c, 1, 43, 96
3, 60252, Note_on_c, 1, 50, 0
3, 60366, Note_on_c, 1, 31, 127
3, 60530, Note_on_c, 1, 43, 0
3, 60612, Note_on_c, 1, 43, 109
3, 60810, Note_on_c, 1, 31, 0
3, 60841, Note_on_c, 1, 31, 115
3, 60981, Note_on_c, 1, 43, 0
3, 61079, Note_on_c, 1, 43, 114
3, 61223, Note_on_c, 1, 31, 0
3, 61325, Note_on_c, 1, 31, 106
3, 61332, Note_on_c, 1, 43, 0
3, 61413, Note_on_c, 1, 31, 0
3, 61413, End_track
4, 0, Start_track
4, 0, Program_c, 2, 43
4, 62677, Control_c, 2, 7, 95
4, 62677, Note_on_c, 2, 43, 14
4, 63402, Note_on_c, 2, 43, 0
4, 63687, Note_on_c, 2, 42, 56
4, 63847, Note_on_c, 2, 42, 0
4, 63851, Note_on_c, 2, 41, 44
4, 64044, Note_on_c, 2, 41, 0
4, 64050, Note_on_c, 2, 40, 46
4, 64283, Note_on_c, 2, 39, 47
4, 64294, Note_on_c, 2, 40, 0
4, 64561, Note_on_c, 2, 39, 0
4, 64581, Note_on_c, 2, 38, 44
4, 64900, Note_on_c, 2, 37, 47
4, 64928, Note_on_c, 2, 38, 0
4, 65357, Control_c, 2, 1, 2
4, 65361, Control_c, 2, 1, 4
4, 65364, Control_c, 2, 1, 6
4, 65365, Control_c, 2, 1, 7
4, 65369, Control_c, 2, 1, 9
4, 65369, Control_c, 2, 1, 10
4, 65375, Control_c, 2, 1, 11
4, 65379, Control_c, 2, 1, 12
4, 65383, Control_c, 2, 1, 13
4, 65386, Control_c, 2, 1, 14
4, 65388, Control_c, 2, 1, 15
4, 65393, Control_c, 2, 1, 16
4, 65396, Control_c, 2, 1, 17
4, 65399, Control_c, 2, 1, 19
4, 65403, Control_c, 2, 1, 20
4, 65407, Control_c, 2, 1, 22
4, 65411, Control_c, 2, 1, 23
4, 65413, Control_c, 2, 1, 25
4, 65417, Control_c, 2, 1, 27
4, 65421, Control_c, 2, 1, 28
4, 65425, Control_c, 2, 1, 30
4, 65429, Control_c, 2, 1, 31
4, 65433, Control_c, 2, 1, 33
4, 65437, Control_c, 2, 1, 34
4, 65441, Control_c, 2, 1, 35
4, 65444, Control_c, 2, 1, 36
4, 65445, Control_c, 2, 1, 37
4, 65451, Control_c, 2, 1, 38
4, 65455, Control_c, 2, 1, 39
4, 65459, Control_c, 2, 1, 40
4, 65461, Control_c, 2, 1, 41
4, 65466, Control_c, 2, 1, 42
4, 65470, Control_c, 2, 1, 43
4, 65471, Control_c, 2, 1, 44
4, 65475, Control_c, 2, 1, 45
4, 65479, Control_c, 2, 1, 46
4, 65483, Control_c, 2, 1, 47
4, 65487, Control_c, 2, 1, 48
4, 65492, Control_c, 2, 1, 49
4, 65494, Control_c, 2, 1, 50
4, 65498, Control_c, 2, 1, 51
4, 65502, Control_c, 2, 1, 52
4, 65505, Control_c, 2, 1, 54
4, 65510, Control_c, 2, 1, 55
4, 65514, Control_c, 2, 1, 56
4, 65517, Control_c, 2, 1, 57
4, 65520, Control_c, 2, 1, 58
4, 65524, Control_c, 2, 1, 60
4, 65530, Control_c, 2, 1, 61
4, 65535, Control_c, 2, 1, 62
4, 65538, Control_c, 2, 1, 63
4, 65545, Control_c, 2, 1, 64
4, 65550, Control_c, 2, 1, 65
4, 65563, Control_c, 2, 1, 66
4, 65589, Control_c, 2, 1, 65
4, 65592, Control_c, 2, 1, 64
4, 65597, Control_c, 2, 1, 62
4, 65601, Control_c, 2, 1, 61
4, 65606, Control_c, 2, 1, 60
4, 65608, Control_c, 2, 1, 59
4, 65612, Control_c, 2, 1, 57
4, 65616, Control_c, 2, 1, 56
4, 65619, Control_c, 2, 1, 55
4, 65624, Control_c, 2, 1, 53
4, 65626, Control_c, 2, 1, 52
4, 65632, Control_c, 2, 1, 50
4, 65634, Control_c, 2, 1, 49
4, 65638, Control_c, 2, 1, 48
4, 65642, Control_c, 2, 1, 47
4, 65646, Control_c, 2, 1, 45
4, 65650, Control_c, 2, 1, 44
4, 65652, Control_c, 2, 1, 42
4, 65657, Control_c, 2, 1, 41
4, 65661, Control_c, 2, 1, 39
4, 65664, Control_c, 2, 1, 38
4, 65667, Control_c, 2, 1, 36
4, 65670, Control_c, 2, 1, 35
4, 65674, Control_c, 2, 1, 34
4, 65675, Control_c, 2, 1, 33
4, 65679, Control_c, 2, 1, 31
4, 65681, Control_c, 2, 1, 29
4, 65685, Control_c, 2, 1, 27
4, 65688, Control_c, 2, 1, 25
4, 65691, Control_c, 2, 1, 23
4, 65695, Control_c, 2, 1, 21
4, 65698, Control_c, 2, 1, 19
4, 65699, Control_c, 2, 1, 18
4, 65702, Control_c, 2, 1, 16
4, 65706, Control_c, 2, 1, 15
4, 65707, Control_c, 2, 1, 14
4, 65709, Control_c, 2, 1, 13
4, 65712, Control_c, 2, 1, 11
4, 65715, Control_c, 2, 1, 10
4, 65719, Control_c, 2, 1, 8
4, 65721, Control_c, 2, 1, 7
4, 65722, Control_c, 2, 1, 6
4, 65726, Control_c, 2, 1, 5
4, 65727, Control_c, 2, 1, 4
4, 65730, Control_c, 2, 1, 3
4, 65734, Control_c, 2, 1, 1
4, 65737, Control_c, 2, 1, 0
4, 66024, Note_on_c, 2, 36, 58
4, 66031, Note_on_c, 2, 37, 0
4, 66397, Control_c, 2, 1, 1
4, 66410, Control_c, 2, 1, 2
4, 66421, Control_c, 2, 1, 3
4, 66427, Control_c, 2, 1, 4
4, 66435, Control_c, 2, 1, 5
4, 66443, Control_c, 2, 1, 7
4, 66450, Control_c, 2, 1, 8
4, 66455, Control_c, 2, 1, 9
4, 66460, Control_c, 2, 1, 11
4, 66467, Control_c, 2, 1, 12
4, 66473, Control_c, 2, 1, 13
4, 66479, Control_c, 2, 1, 14
4, 66485, Control_c, 2, 1, 15
4, 66492, Control_c, 2, 1, 17
4, 66500, Control_c, 2, 1, 18
4, 66505, Control_c, 2, 1, 19
4, 66511, Control_c, 2, 1, 20
4, 66519, Control_c, 2, 1, 21
4, 66525, Control_c, 2, 1, 22
4, 66529, Control_c, 2, 1, 23
4, 66536, Control_c, 2, 1, 24
4, 66541, Control_c, 2, 1, 25
4, 66547, Control_c, 2, 1, 26
4, 66553, Control_c, 2, 1, 27
4, 66561, Control_c, 2, 1, 28
4, 66570, Control_c, 2, 1, 29
4, 66581, Control_c, 2, 1, 30
4, 66586, Control_c, 2, 1, 31
4, 66593, Control_c, 2, 1, 32
4, 66601, Control_c, 2, 1, 33
4, 66609, Control_c, 2, 1, 34
4, 66616, Control_c, 2, 1, 35
4, 66619, Control_c, 2, 1, 36
4, 66623, Control_c, 2, 1, 37
4, 66627, Control_c, 2, 1, 38
4, 66633, Control_c, 2, 1, 39
4, 66636, Control_c, 2, 1, 41
4, 66643, Control_c, 2, 1, 42
4, 66648, Control_c, 2, 1, 43
4, 66652, Control_c, 2, 1, 44
4, 66656, Control_c, 2, 1, 45
4, 66660, Control_c, 2, 1, 46
4, 66665, Control_c, 2, 1, 47
4, 66669, Control_c, 2, 1, 48
4, 66673, Control_c, 2, 1, 49
4, 66676, Control_c, 2, 1, 50
4, 66682, Control_c, 2, 1, 51
4, 66689, Control_c, 2, 1, 52
4, 66692, Control_c, 2, 1, 53
4, 66699, Control_c, 2, 1, 54
4, 66704, Control_c, 2, 1, 55
4, 66711, Control_c, 2, 1, 56
4, 66720, Control_c, 2, 1, 57
4, 66728, Control_c, 2, 1, 58
4, 66733, Control_c, 2, 1, 59
4, 66740, Control_c, 2, 1, 60
4, 66748, Control_c, 2, 1, 61
4, 66755, Control_c, 2, 1, 62
4, 66761, Control_c, 2, 1, 63
4, 66766, Control_c, 2, 1, 64
4, 66774, Control_c, 2, 1, 65
4, 66781, Control_c, 2, 1, 66
4, 66787, Control_c, 2, 1, 67
4, 66795, Control_c, 2, 1, 68
4, 66801, Control_c, 2, 1, 69
4, 66809, Control_c, 2, 1, 70
4, 66815, Control_c, 2, 1, 71
4, 66821, Control_c, 2, 1, 72
4, 66827, Control_c, 2, 1, 73
4, 66831, Control_c, 2, 1, 74
4, 66837, Control_c, 2, 1, 75
4, 66843, Control_c, 2, 1, 76
4, 66848, Control_c, 2, 1, 77
4, 66855, Control_c, 2, 1, 78
4, 66860, Control_c, 2, 1, 79
4, 66867, Control_c, 2, 1, 80
4, 66873, Control_c, 2, 1, 81
4, 66877, Control_c, 2, 1, 82
4, 66883, Control_c, 2, 1, 83
4, 66891, Control_c, 2, 1, 84
4, 66896, Control_c, 2, 1, 85
4, 66902, Control_c, 2, 1, 86
4, 66912, Control_c, 2, 1, 87
4, 66922, Control_c, 2, 1, 88
4, 66932, Control_c, 2, 1, 89
4, 66954, Control_c, 2, 1, 90
4, 67020, Control_c, 2, 1, 91
4, 67026, Control_c, 2, 1, 92
4, 67029, Control_c, 2, 1, 93
4, 67034, Control_c, 2, 1, 94
4, 67041, Control_c, 2, 1, 95
4, 67047, Control_c, 2, 1, 96
4, 67050, Control_c, 2, 1, 97
4, 67059, Control_c, 2, 1, 98
4, 67074, Control_c, 2, 1, 99
4, 67103, Control_c, 2, 1, 100
4, 67116, Control_c, 2, 1, 101
4, 67127, Control_c, 2, 1, 102
4, 67134, Control_c, 2, 1, 103
4, 67139, Control_c, 2, 1, 104
4, 67144, Control_c, 2, 1, 105
4, 67171, Control_c, 2, 1, 106
4, 67185, Control_c, 2, 1, 105
4, 67193, Control_c, 2, 1, 104
4, 67198, Control_c, 2, 1, 103
4, 67203, Control_c, 2, 1, 102
4, 67209, Control_c, 2, 1, 101
4, 67213, Control_c, 2, 1, 100
4, 67218, Control_c, 2, 1, 99
4, 67222, Control_c, 2, 1, 98
4, 67228, Control_c, 2, 1, 97
4, 67230, Control_c, 2, 1, 96
4, 67234, Control_c, 2, 1, 95
4, 67239, Control_c, 2, 1, 94
4, 67243, Control_c, 2, 1, 92
4, 67247, Control_c, 2, 1, 91
4, 67255, Control_c, 2, 1, 90
4, 67260, Control_c, 2, 1, 89
4, 67266, Control_c, 2, 1, 88
4, 67271, Control_c, 2, 1, 87
4, 67276, Control_c, 2, 1, 86
4, 67280, Control_c, 2, 1, 85
4, 67285, Control_c, 2, 1, 84
4, 67292, Control_c, 2, 1, 83
4, 67296, Control_c, 2, 1, 81
4, 67300, Control_c, 2, 1, 80
4, 67306, Control_c, 2, 1, 79
4, 67312, Control_c, 2, 1, 78
4, 67315, Control_c, 2, 1, 77
4, 67318, Control_c, 2, 1, 76
4, 67322, Control_c, 2, 1, 75
4, 67327, Control_c, 2, 1, 73
4, 67331, Control_c, 2, 1, 72
4, 67335, Control_c, 2, 1, 70
4, 67339, Control_c, 2, 1, 69
4, 67341, Control_c, 2, 1, 68
4, 67345, Control_c, 2, 1, 66
4, 67349, Control_c, 2, 1, 65
4, 67352, Control_c, 2, 1, 64
4, 67357, Control_c, 2, 1, 63
4, 67360, Control_c, 2, 1, 62
4, 67364, Control_c, 2, 1, 61
4, 67370, Control_c, 2, 1, 60
4, 67373, Control_c, 2, 1, 58
4, 67377, Control_c, 2, 1, 57
4, 67381, Control_c, 2, 1, 56
4, 67387, Control_c, 2, 1, 55
4, 67392, Control_c, 2, 1, 54
4, 67397, Control_c, 2, 1, 52
4, 67401, Control_c, 2, 1, 51
4, 67404, Control_c, 2, 1, 50
4, 67407, Control_c, 2, 1, 49
4, 67409, Control_c, 2, 1, 48
4, 67412, Control_c, 2, 1, 47
4, 67418, Control_c, 2, 1, 46
4, 67423, Control_c, 2, 1, 44
4, 67425, Control_c, 2, 1, 43
4, 67429, Control_c, 2, 1, 41
4, 67432, Control_c, 2, 1, 40
4, 67433, Control_c, 2, 1, 39
4, 67437, Control_c, 2, 1, 37
4, 67439, Control_c, 2, 1, 36
4, 67443, Control_c, 2, 1, 35
4, 67446, Control_c, 2, 1, 34
4, 67449, Control_c, 2, 1, 32
4, 67452, Control_c, 2, 1, 31
4, 67456, Control_c, 2, 1, 30
4, 67462, Control_c, 2, 1, 29
4, 67469, Control_c, 2, 1, 28
4, 67473, Control_c, 2, 1, 27
4, 67478, Control_c, 2, 1, 26
4, 67493, Control_c, 2, 1, 27
4, 67497, Control_c, 2, 1, 29
4, 67499, Control_c, 2, 1, 30
4, 67501, Control_c, 2, 1, 31
4, 67502, Control_c, 2, 1, 32
4, 67503, Control_c, 2, 1, 33
4, 67507, Control_c, 2, 1, 35
4, 67509, Control_c, 2, 1, 37
4, 67513, Control_c, 2, 1, 39
4, 67514, Control_c, 2, 1, 40
4, 67516, Control_c, 2, 1, 41
4, 67518, Control_c, 2, 1, 43
4, 67519, Control_c, 2, 1, 44
4, 67520, Control_c, 2, 1, 45
4, 67522, Control_c, 2, 1, 46
4, 67525, Control_c, 2, 1, 48
4, 67529, Control_c, 2, 1, 50
4, 67531, Control_c, 2, 1, 52
4, 67535, Control_c, 2, 1, 53
4, 67537, Control_c, 2, 1, 54
4, 67539, Control_c, 2, 1, 56
4, 67543, Control_c, 2, 1, 59
4, 67544, Control_c, 2, 1, 60
4, 67548, Control_c, 2, 1, 61
4, 67550, Control_c, 2, 1, 63
4, 67554, Control_c, 2, 1, 65
4, 67557, Control_c, 2, 1, 67
4, 67560, Control_c, 2, 1, 69
4, 67563, Control_c, 2, 1, 71
4, 67564, Control_c, 2, 1, 72
4, 67568, Control_c, 2, 1, 73
4, 67569, Control_c, 2, 1, 74
4, 67572, Control_c, 2, 1, 76
4, 67575, Control_c, 2, 1, 77
4, 67578, Control_c, 2, 1, 79
4, 67582, Control_c, 2, 1, 80
4, 67586, Control_c, 2, 1, 82
4, 67587, Control_c, 2, 1, 83
4, 67592, Control_c, 2, 1, 84
4, 67597, Control_c, 2, 1, 85
4, 67600, Control_c, 2, 1, 86
4, 67632, Control_c, 2, 1, 85
4, 67637, Control_c, 2, 1, 84
4, 67643, Control_c, 2, 1, 83
4, 67648, Control_c, 2, 1, 82
4, 67652, Control_c, 2, 1, 81
4, 67656, Control_c, 2, 1, 80
4, 67663, Control_c, 2, 1, 78
4, 67668, Control_c, 2, 1, 77
4, 67673, Control_c, 2, 1, 76
4, 67677, Control_c, 2, 1, 74
4, 67681, Control_c, 2, 1, 73
4, 67685, Control_c, 2, 1, 71
4, 67686, Control_c, 2, 1, 70
4, 67691, Control_c, 2, 1, 69
4, 67694, Control_c, 2, 1, 67
4, 67698, Control_c, 2, 1, 65
4, 67700, Control_c, 2, 1, 64
4, 67704, Control_c, 2, 1, 62
4, 67707, Control_c, 2, 1, 61
4, 67712, Control_c, 2, 1, 59
4, 67714, Control_c, 2, 1, 57
4, 67718, Control_c, 2, 1, 56
4, 67721, Control_c, 2, 1, 55
4, 67725, Control_c, 2, 1, 53
4, 67727, Control_c, 2, 1, 52
4, 67731, Control_c, 2, 1, 50
4, 67735, Control_c, 2, 1, 49
4, 67738, Control_c, 2, 1, 47
4, 67741, Control_c, 2, 1, 46
4, 67745, Control_c, 2, 1, 44
4, 67746, Control_c, 2, 1, 43
4, 67749, Control_c, 2, 1, 42
4, 67753, Control_c, 2, 1, 40
4, 67755, Control_c, 2, 1, 38
4, 67759, Control_c, 2, 1, 36
4, 67762, Control_c, 2, 1, 34
4, 67765, Control_c, 2, 1, 32
4, 67767, Control_c, 2, 1, 31
4, 67767, Control_c, 2, 1, 29
4, 67771, Control_c, 2, 1, 27
4, 67772, Control_c, 2, 1, 26
4, 67773, Control_c, 2, 1, 25
4, 67775, Control_c, 2, 1, 24
4, 67776, Control_c, 2, 1, 23
4, 67777, Control_c, 2, 1, 21
4, 67778, Control_c, 2, 1, 20
4, 67779, Control_c, 2, 1, 19
4, 67780, Control_c, 2, 1, 18
4, 67781, Control_c, 2, 1, 16
4, 67783, Control_c, 2, 1, 15
4, 67784, Control_c, 2, 1, 14
4, 67785, Control_c, 2, 1, 13
4, 67786, Control_c, 2, 1, 11
4, 67787, Control_c, 2, 1, 10
4, 67788, Control_c, 2, 1, 9
4, 67790, Control_c, 2, 1, 7
4, 67791, Control_c, 2, 1, 6
4, 67792, Control_c, 2, 1, 4
4, 67794, Control_c, 2, 1, 3
4, 67795, Control_c, 2, 1, 1
4, 67796, Control_c, 2, 1, 0
4, 68359, Note_off_c, 2, 36, 0
4, 68359, End_track
5, 0, Start_track
5, 0, Program_c, 9, 32
5, 0, Control_c, 9, 7, 100
5, 0, Note_on_c, 9, 53, 66
5, 0, Program_c, 9, 0
5, 0, Program_c, 9, 0
5, 0, Program_c, 9, 0
5, 0, Program_c, 9, 0
5, 0, Program_c, 9, 0
5, 0, Program_c, 9, 0
5, 0, Program_c, 9, 0
5, 0, Program_c, 9, 0
5, 0, Program_c, 9, 0
5, 0, Program_c, 9, 0
5, 0, Program_c, 9, 0
5, 0, Program_c, 9, 0
5, 0, Program_c, 9, 0
5, 0, Program_c, 9, 0
5, 0, Program_c, 9, 0
5, 0, Program_c, 9, 0
5, 0, Program_c, 9, 0
5, 0, Program_c, 9, 0
5, 48, Note_off_c, 9, 53, 0
5, 139, Note_on_c, 9, 53, 13
5, 174, Note_on_c, 9, 53, 0
5, 188, Note_on_c, 9, 35, 14
5, 203, Note_on_c, 9, 35, 0
5, 231, Note_on_c, 9, 35, 1
5, 252, Note_on_c, 9, 35, 0
5, 321, Note_on_c, 9, 53, 52
5, 347, Note_on_c, 9, 53, 0
5, 362, Note_on_c, 9, 53, 48
5, 395, Note_on_c, 9, 53, 0
5, 440, Note_on_c, 9, 53, 57
5, 463, Note_on_c, 9, 53, 0
5, 607, Note_on_c, 9, 42, 31
5, 666, Note_on_c, 9, 42, 0
5, 676, Note_on_c, 9, 53, 51
5, 684, Note_on_c, 9, 53, 0
5, 723, Note_on_c, 9, 53, 36
5, 733, Note_on_c, 9, 53, 0
5, 766, Note_on_c, 9, 40, 4
5, 776, Note_on_c, 9, 40, 0
5, 807, Note_on_c, 9, 40, 6
5, 816, Note_on_c, 9, 40, 0
5, 844, Note_on_c, 9, 42, 52
5, 892, Note_on_c, 9, 42, 0
5, 893, Note_on_c, 9, 40, 5
5, 901, Note_on_c, 9, 40, 0
5, 916, Note_on_c, 9, 53, 34
5, 924, Note_on_c, 9, 42, 51
5, 926, Note_on_c, 9, 53, 0
5, 957, Note_on_c, 9, 53, 30
5, 960, Note_on_c, 9, 42, 0
5, 998, Note_on_c, 9, 53, 0
5, 1165, Note_on_c, 9, 53, 17
5, 1176, Note_on_c, 9, 53, 0
5, 1208, Note_on_c, 9, 53, 21
5, 1225, Note_on_c, 9, 53, 0
5, 1279, Note_on_c, 9, 51, 84
5, 1297, Note_on_c, 9, 51, 0
5, 1519, Note_on_c, 9, 53, 46
5, 1528, Note_on_c, 9, 53, 0
5, 1563, Note_on_c, 9, 51, 46
5, 1575, Note_on_c, 9, 51, 0
5, 1760, Note_on_c, 9, 53, 52
5, 1770, Note_on_c, 9, 53, 0
5, 1796, Note_on_c, 9, 51, 52
5, 1809, Note_on_c, 9, 44, 62
5, 1822, Note_on_c, 9, 51, 0
5, 1872, Note_on_c, 9, 44, 0
5, 1879, Note_on_c, 9, 40, 3
5, 1886, Note_on_c, 9, 51, 33
5, 1888, Note_on_c, 9, 40, 0
5, 1899, Note_on_c, 9, 51, 0
5, 1919, Note_on_c, 9, 51, 79
5, 1929, Note_on_c, 9, 40, 2
5, 1938, Note_on_c, 9, 40, 0
5, 1947, Note_on_c, 9, 51, 0
5, 2127, Note_on_c, 9, 51, 75
5, 2146, Note_on_c, 9, 51, 0
5, 2169, Note_on_c, 9, 51, 55
5, 2188, Note_on_c, 9, 51, 0
5, 2367, Note_on_c, 9, 51, 55
5, 2383, Note_on_c, 9, 51, 0
5, 2406, Note_on_c, 9, 51, 58
5, 2440, Note_on_c, 9, 51, 0
5, 2452, Note_on_c, 9, 40, 7
5, 2461, Note_on_c, 9, 40, 0
5, 2490, Note_on_c, 9, 40, 9
5, 2499, Note_on_c, 9, 40, 0
5, 2530, Note_on_c, 9, 46, 60
5, 2532, Note_on_c, 9, 42, 19
5, 2541, Note_on_c, 9, 42, 0
5, 2566, Note_on_c, 9, 42, 28
5, 2580, Note_on_c, 9, 42, 0
5, 2592, Note_on_c, 9, 46, 0
5, 2609, Note_on_c, 9, 51, 63
5, 2616, Note_on_c, 9, 46, 56
5, 2620, Note_on_c, 9, 51, 0
5, 2643, Note_on_c, 9, 46, 0
5, 2650, Note_on_c, 9, 51, 52
5, 2659, Note_on_c, 9, 51, 0
5, 2723, Note_on_c, 9, 51, 96
5, 2741, Note_on_c, 9, 51, 0
5, 2762, Note_on_c, 9, 51, 97
5, 2775, Note_on_c, 9, 42, 20
5, 2780, Note_on_c, 9, 40, 20
5, 2783, Note_on_c, 9, 42, 0
5, 2788, Note_on_c, 9, 40, 0
5, 2816, Note_on_c, 9, 51, 0
5, 2973, Note_on_c, 9, 51, 33
5, 2987, Note_on_c, 9, 51, 0
5, 3017, Note_on_c, 9, 51, 48
5, 3039, Note_on_c, 9, 51, 0
5, 3108, Note_on_c, 9, 51, 114
5, 3112, Note_on_c, 9, 51, 0
5, 3158, Note_on_c, 9, 51, 84
5, 3180, Note_on_c, 9, 51, 0
5, 3248, Note_on_c, 9, 51, 85
5, 3265, Note_on_c, 9, 51, 0
5, 3292, Note_on_c, 9, 40, 17
5, 3292, Note_on_c, 9, 42, 22
5, 3299, Note_on_c, 9, 40, 0
5, 3314, Note_on_c, 9, 42, 0
5, 3329, Note_on_c, 9, 46, 43
5, 3330, Note_on_c, 9, 40, 18
5, 3335, Note_on_c, 9, 51, 90
5, 3341, Note_on_c, 9, 40, 0
5, 3353, Note_on_c, 9, 51, 0
5, 3361, Note_on_c, 9, 46, 0
5, 3413, Note_on_c, 9, 40, 4
5, 3414, Note_on_c, 9, 42, 27
5, 3424, Note_on_c, 9, 40, 0
5, 3426, Note_on_c, 9, 42, 0
5, 3449, Note_on_c, 9, 42, 33
5, 3468, Note_on_c, 9, 42, 0
5, 3487, Note_on_c, 9, 40, 15
5, 3491, Note_on_c, 9, 46, 43
5, 3495, Note_on_c, 9, 40, 0
5, 3518, Note_on_c, 9, 46, 0
5, 3559, Note_on_c, 9, 53, 57
5, 3563, Note_on_c, 9, 40, 31
5, 3569, Note_on_c, 9, 53, 0
5, 3570, Note_on_c, 9, 40, 0
5, 3640, Note_on_c, 9, 40, 5
5, 3642, Note_on_c, 9, 53, 69
5, 3654, Note_on_c, 9, 40, 0
5, 3662, Note_on_c, 9, 53, 0
5, 3675, Note_on_c, 9, 40, 6
5, 3686, Note_on_c, 9, 40, 0
5, 3716, Note_on_c, 9, 35, 15
5, 3728, Note_on_c, 9, 35, 0
5, 3736, Note_on_c, 9, 53, 76
5, 3753, Note_on_c, 9, 53, 0
5, 3760, Note_on_c, 9, 40, 6
5, 3769, Note_on_c, 9, 40, 0
5, 3788, Note_on_c, 9, 40, 24
5, 3798, Note_on_c, 9, 40, 0
5, 3816, Note_on_c, 9, 53, 70
5, 3826, Note_on_c, 9, 53, 0
5, 3862, Note_on_c, 9, 51, 85
5, 3881, Note_on_c, 9, 51, 0
5, 4042, Note_on_c, 9, 40, 5
5, 4053, Note_on_c, 9, 51, 67
5, 4056, Note_on_c, 9, 40, 0
5, 4074, Note_on_c, 9, 51, 0
5, 4082, Note_on_c, 9, 40, 7
5, 4093, Note_on_c, 9, 40, 0
5, 4094, Note_on_c, 9, 51, 66
5, 4119, Note_on_c, 9, 51, 0
5, 4167, Note_on_c, 9, 35, 35
5, 4175, Note_on_c, 9, 35, 0
5, 4290, Note_on_c, 9, 51, 18
5, 4302, Note_on_c, 9, 51, 0
5, 4324, Note_on_c, 9, 51, 43
5, 4355, Note_on_c, 9, 51, 0
5, 4636, Note_on_c, 9, 46, 50
5, 4663, Note_on_c, 9, 46, 0
5, 4713, Note_on_c, 9, 40, 22
5, 4722, Note_on_c, 9, 46, 54
5, 4730, Note_on_c, 9, 40, 0
5, 4754, Note_on_c, 9, 40, 25
5, 4767, Note_on_c, 9, 40, 0
5, 4768, Note_on_c, 9, 46, 0
5, 4816, Note_on_c, 9, 46, 61
5, 4854, Note_on_c, 9, 46, 0
5, 5000, Note_on_c, 9, 51, 45
5, 5011, Note_on_c, 9, 51, 0
5, 5054, Note_on_c, 9, 51, 64
5, 5081, Note_on_c, 9, 51, 0
5, 5174, Note_on_c, 9, 42, 6
5, 5178, Note_on_c, 9, 40, 1
5, 5184, Note_on_c, 9, 42, 0
5, 5186, Note_on_c, 9, 40, 0
5, 5211, Note_on_c, 9, 42, 28
5, 5214, Note_on_c, 9, 40, 19
5, 5222, Note_on_c, 9, 40, 0
5, 5228, Note_on_c, 9, 42, 0
5, 5247, Note_on_c, 9, 51, 46
5, 5260, Note_on_c, 9, 51, 0
5, 5440, Note_on_c, 9, 40, 1
5, 5448, Note_on_c, 9, 40, 0
5, 5480, Note_on_c, 9, 35, 8
5, 5486, Note_on_c, 9, 51, 48
5, 5489, Note_on_c, 9, 35, 0
5, 5495, Note_on_c, 9, 51, 0
5, 5531, Note_on_c, 9, 51, 63
5, 5548, Note_on_c, 9, 51, 0
5, 5569, Note_on_c, 9, 51, 49
5, 5571, Note_on_c, 9, 40, 20
5, 5578, Note_on_c, 9, 51, 0
5, 5579, Note_on_c, 9, 40, 0
5, 5604, Note_on_c, 9, 40, 11
5, 5620, Note_on_c, 9, 40, 0
5, 5636, Note_on_c, 9, 42, 21
5, 5652, Note_on_c, 9, 51, 75
5, 5656, Note_on_c, 9, 42, 0
5, 5665, Note_on_c, 9, 51, 0
5, 5684, Note_on_c, 9, 40, 17
5, 5693, Note_on_c, 9, 40, 0
5, 5717, Note_on_c, 9, 42, 38
5, 5721, Note_on_c, 9, 40, 19
5, 5728, Note_on_c, 9, 40, 0
5, 5734, Note_on_c, 9, 42, 0
5, 5845, Note_on_c, 9, 51, 58
5, 5861, Note_on_c, 9, 51, 0
5, 5889, Note_on_c, 9, 51, 45
5, 5892, Note_on_c, 9, 42, 21
5, 5925, Note_on_c, 9, 51, 0
5, 5931, Note_on_c, 9, 42, 0
5, 5969, Note_on_c, 9, 42, 26
5, 5987, Note_on_c, 9, 42, 0
5, 6004, Note_on_c, 9, 51, 103
5, 6047, Note_on_c, 9, 51, 0
5, 6123, Note_on_c, 9, 51, 96
5, 6171, Note_on_c, 9, 51, 0
5, 6325, Note_on_c, 9, 51, 58
5, 6346, Note_on_c, 9, 51, 0
5, 6366, Note_on_c, 9, 51, 79
5, 6419, Note_on_c, 9, 51, 0
5, 6524, Note_on_c, 9, 42, 19
5, 6533, Note_on_c, 9, 42, 0
5, 6570, Note_on_c, 9, 51, 69
5, 6581, Note_on_c, 9, 51, 0
5, 6613, Note_on_c, 9, 42, 25
5, 6613, Note_on_c, 9, 51, 70
5, 6629, Note_on_c, 9, 42, 0
5, 6631, Note_on_c, 9, 51, 0
5, 6691, Note_on_c, 9, 51, 105
5, 6707, Note_on_c, 9, 51, 0
5, 6731, Note_on_c, 9, 35, 3
5, 6734, Note_on_c, 9, 51, 97
5, 6754, Note_on_c, 9, 35, 0
5, 6771, Note_on_c, 9, 51, 0
5, 6813, Note_on_c, 9, 35, 7
5, 6821, Note_on_c, 9, 35, 0
5, 6930, Note_on_c, 9, 51, 64
5, 6947, Note_on_c, 9, 51, 0
5, 6975, Note_on_c, 9, 51, 75
5, 7013, Note_on_c, 9, 51, 0
5, 7046, Note_on_c, 9, 59, 67
5, 7068, Note_on_c, 9, 59, 0
5, 7087, Note_on_c, 9, 40, 1
5, 7092, Note_on_c, 9, 59, 53
5, 7097, Note_on_c, 9, 40, 0
5, 7123, Note_on_c, 9, 59, 0
5, 7163, Note_on_c, 9, 51, 103
5, 7217, Note_on_c, 9, 51, 0
5, 7282, Note_on_c, 9, 40, 5
5, 7291, Note_on_c, 9, 40, 0
5, 7410, Note_on_c, 9, 51, 85
5, 7428, Note_on_c, 9, 51, 0
5, 7449, Note_on_c, 9, 40, 1
5, 7457, Note_on_c, 9, 40, 0
5, 7488, Note_on_c, 9, 45, 18
5, 7498, Note_on_c, 9, 45, 0
5, 7507, Note_on_c, 9, 40, 27
5, 7513, Note_on_c, 9, 40, 0
5, 7529, Note_on_c, 9, 45, 4
5, 7534, Note_on_c, 9, 53, 66
5, 7540, Note_on_c, 9, 45, 0
5, 7556, Note_on_c, 9, 53, 0
5, 7562, Note_on_c, 9, 46, 70
5, 7565, Note_on_c, 9, 43, 25
5, 7567, Note_on_c, 9, 40, 31
5, 7573, Note_on_c, 9, 40, 0
5, 7579, Note_on_c, 9, 43, 0
5, 7597, Note_on_c, 9, 40, 34
5, 7603, Note_on_c, 9, 40, 0
5, 7603, Note_on_c, 9, 41, 29
5, 7610, Note_on_c, 9, 41, 0
5, 7615, Note_on_c, 9, 53, 67
5, 7649, Note_on_c, 9, 53, 0
5, 7686, Note_on_c, 9, 35, 9
5, 7698, Note_on_c, 9, 53, 80
5, 7723, Note_on_c, 9, 35, 0
5, 7727, Note_on_c, 9, 53, 0
5, 7740, Note_on_c, 9, 46, 0
5, 7760, Note_on_c, 9, 35, 31
5, 7775, Note_on_c, 9, 51, 88
5, 7790, Note_on_c, 9, 35, 0
5, 7794, Note_on_c, 9, 46, 74
5, 7799, Note_on_c, 9, 51, 0
5, 7815, Note_on_c, 9, 35, 26
5, 7844, Note_on_c, 9, 35, 0
5, 7858, Note_on_c, 9, 51, 82
5, 7886, Note_on_c, 9, 51, 0
5, 7941, Note_on_c, 9, 51, 117
5, 7968, Note_on_c, 9, 45, 15
5, 7970, Note_on_c, 9, 46, 0
5, 7980, Note_on_c, 9, 45, 0
5, 7989, Note_on_c, 9, 51, 0
5, 8013, Note_on_c, 9, 43, 12
5, 8022, Note_on_c, 9, 43, 0
5, 8024, Note_on_c, 9, 46, 74
5, 8055, Note_on_c, 9, 43, 25
5, 8063, Note_on_c, 9, 43, 0
5, 8124, Note_on_c, 9, 43, 33
5, 8134, Note_on_c, 9, 43, 0
5, 8164, Note_on_c, 9, 57, 2
5, 8173, Note_on_c, 9, 57, 0
5, 8221, Note_on_c, 9, 46, 0
5, 8240, Note_on_c, 9, 51, 76
5, 8258, Note_on_c, 9, 51, 0
5, 8286, Note_on_c, 9, 51, 102
5, 8329, Note_on_c, 9, 51, 0
5, 8407, Note_on_c, 9, 51, 39
5, 8418, Note_on_c, 9, 51, 0
5, 8449, Note_on_c, 9, 40, 15
5, 8455, Note_on_c, 9, 51, 87
5, 8459, Note_on_c, 9, 40, 0
5, 8473, Note_on_c, 9, 51, 0
5, 8483, Note_on_c, 9, 40, 25
5, 8506, Note_on_c, 9, 40, 0
5, 8524, Note_on_c, 9, 40, 18
5, 8532, Note_on_c, 9, 40, 0
5, 8542, Note_on_c, 9, 51, 91
5, 8560, Note_on_c, 9, 51, 0
5, 8643, Note_on_c, 9, 51, 52
5, 8645, Note_on_c, 9, 40, 11
5, 8653, Note_on_c, 9, 51, 0
5, 8654, Note_on_c, 9, 40, 0
5, 8676, Note_on_c, 9, 40, 5
5, 8678, Note_on_c, 9, 51, 63
5, 8696, Note_on_c, 9, 51, 0
5, 8698, Note_on_c, 9, 40, 0
5, 8719, Note_on_c, 9, 40, 35
5, 8730, Note_on_c, 9, 40, 0
5, 8772, Program_c, 9, 1
5, 8774, Note_on_c, 9, 51, 84
5, 8790, Note_on_c, 9, 51, 0
5, 8809, Note_on_c, 9, 40, 21
5, 8819, Note_on_c, 9, 40, 0
5, 8847, Note_on_c, 9, 40, 7
5, 8855, Note_on_c, 9, 51, 94
5, 8856, Note_on_c, 9, 40, 0
5, 8872, Note_on_c, 9, 51, 0
5, 8886, Note_on_c, 9, 40, 50
5, 8907, Note_on_c, 9, 40, 0
5, 8936, Note_on_c, 9, 51, 90
5, 8955, Note_on_c, 9, 51, 0
5, 9018, Note_on_c, 9, 51, 90
5, 9037, Note_on_c, 9, 51, 0
5, 9075, Note_on_c, 9, 46, 64
5, 9104, Note_on_c, 9, 51, 58
5, 9113, Note_on_c, 9, 51, 0
5, 9133, Note_on_c, 9, 46, 0
5, 9246, Note_on_c, 9, 46, 67
5, 9304, Note_on_c, 9, 46, 0
5, 9316, Note_on_c, 9, 51, 64
5, 9329, Note_on_c, 9, 51, 0
5, 9412, Note_on_c, 9, 51, 60
5, 9432, Note_on_c, 9, 51, 0
5, 9438, Note_on_c, 9, 46, 64
5, 9469, Note_on_c, 9, 46, 0
5, 9501, Note_on_c, 9, 51, 79
5, 9516, Note_on_c, 9, 51, 0
5, 9520, Note_on_c, 9, 40, 7
5, 9527, Note_on_c, 9, 40, 0
5, 9575, Note_on_c, 9, 51, 75
5, 9593, Note_on_c, 9, 51, 0
5, 9605, Note_on_c, 9, 35, 16
5, 9618, Note_on_c, 9, 51, 76
5, 9629, Note_on_c, 9, 35, 0
5, 9637, Note_on_c, 9, 51, 0
5, 9645, Note_on_c, 9, 42, 22
5, 9653, Note_on_c, 9, 42, 0
5, 9730, Note_on_c, 9, 42, 48
5, 9789, Note_on_c, 9, 42, 0
5, 9806, Note_on_c, 9, 51, 69
5, 9824, Note_on_c, 9, 51, 0
5, 9845, Note_on_c, 9, 51, 70
5, 9867, Note_on_c, 9, 51, 0
5, 9973, Note_on_c, 9, 42, 37
5, 9988, Note_on_c, 9, 42, 0
5, 10008, Note_on_c, 9, 42, 22
5, 10015, Note_on_c, 9, 42, 0
5, 10048, Note_on_c, 9, 35, 2
5, 10057, Note_on_c, 9, 35, 0
5, 10151, Note_on_c, 9, 35, 8
5, 10160, Note_on_c, 9, 35, 0
5, 10166, Note_on_c, 9, 51, 55
5, 10181, Note_on_c, 9, 51, 0
5, 10196, Note_on_c, 9, 40, 1
5, 10200, Note_on_c, 9, 51, 79
5, 10207, Note_on_c, 9, 40, 0
5, 10222, Note_on_c, 9, 51, 0
5, 10227, Note_on_c, 9, 40, 1
5, 10255, Note_on_c, 9, 40, 0
5, 10267, Note_on_c, 9, 40, 32
5, 10320, Note_on_c, 9, 40, 0
5, 10330, Note_on_c, 9, 51, 90
5, 10357, Note_on_c, 9, 51, 0
5, 10357, Note_on_c, 9, 40, 4
5, 10376, Note_on_c, 9, 40, 0
5, 10397, Note_on_c, 9, 40, 3
5, 10407, Note_on_c, 9, 40, 0
5, 10445, Note_on_c, 9, 40, 44
5, 10452, Note_on_c, 9, 51, 94
5, 10490, Note_on_c, 9, 51, 0
5, 10491, Note_on_c, 9, 40, 0
5, 10573, Note_on_c, 9, 51, 93
5, 10599, Note_on_c, 9, 51, 0
5, 10778, Note_on_c, 9, 51, 67
5, 10798, Note_on_c, 9, 51, 0
5, 10817, Note_on_c, 9, 51, 76
5, 10838, Note_on_c, 9, 51, 0
5, 10845, Note_on_c, 9, 42, 13
5, 10853, Note_on_c, 9, 42, 0
5, 10854, Note_on_c, 9, 40, 19
5, 10862, Note_on_c, 9, 40, 0
5, 10881, Note_on_c, 9, 42, 20
5, 10887, Note_on_c, 9, 40, 1
5, 10888, Note_on_c, 9, 42, 0
5, 10907, Note_on_c, 9, 40, 0
5, 10931, Note_on_c, 9, 40, 41
5, 10978, Note_on_c, 9, 40, 0
5, 11002, Note_on_c, 9, 51, 48
5, 11018, Note_on_c, 9, 51, 0
5, 11043, Note_on_c, 9, 51, 64
5, 11074, Note_on_c, 9, 51, 0
5, 11123, Note_on_c, 9, 40, 1
5, 11132, Note_on_c, 9, 40, 0
5, 11229, Note_on_c, 9, 40, 12
5, 11237, Note_on_c, 9, 40, 0
5, 11250, Note_on_c, 9, 51, 73
5, 11268, Note_on_c, 9, 51, 0
5, 11287, Note_on_c, 9, 42, 28
5, 11294, Note_on_c, 9, 42, 0
5, 11322, Note_on_c, 9, 42, 33
5, 11332, Note_on_c, 9, 42, 0
5, 11336, Note_on_c, 9, 51, 58
5, 11352, Note_on_c, 9, 51, 0
5, 11360, Note_on_c, 9, 40, 1
5, 11372, Note_on_c, 9, 40, 0
5, 11380, Note_on_c, 9, 51, 75
5, 11399, Note_on_c, 9, 51, 0
5, 11403, Note_on_c, 9, 42, 31
5, 11412, Note_on_c, 9, 42, 0
5, 11421, Note_on_c, 9, 46, 63
5, 11440, Note_on_c, 9, 42, 38
5, 11446, Note_on_c, 9, 46, 0
5, 11452, Note_on_c, 9, 42, 0
5, 11523, Note_on_c, 9, 35, 8
5, 11525, Note_on_c, 9, 57, 9
5, 11551, Note_on_c, 9, 57, 0
5, 11561, Note_on_c, 9, 35, 0
5, 11608, Note_on_c, 9, 51, 63
5, 11623, Note_on_c, 9, 51, 0
5, 11651, Note_on_c, 9, 51, 60
5, 11670, Note_on_c, 9, 51, 0
5, 11731, Note_on_c, 9, 51, 96
5, 11750, Note_on_c, 9, 51, 0
5, 11966, Note_on_c, 9, 51, 57
5, 11981, Note_on_c, 9, 51, 0
5, 12007, Note_on_c, 9, 51, 60
5, 12042, Note_on_c, 9, 51, 0
5, 12087, Note_on_c, 9, 40, 12
5, 12095, Note_on_c, 9, 40, 0
5, 12205, Note_on_c, 9, 51, 57
5, 12207, Note_on_c, 9, 40, 4
5, 12216, Note_on_c, 9, 40, 0
5, 12221, Note_on_c, 9, 51, 0
5, 12250, Note_on_c, 9, 51, 42
5, 12275, Note_on_c, 9, 51, 0
5, 12440, Note_on_c, 9, 51, 88
5, 12447, Note_on_c, 9, 46, 53
5, 12465, Note_on_c, 9, 51, 0
5, 12472, Note_on_c, 9, 46, 0
5, 12561, Note_on_c, 9, 51, 61
5, 12571, Note_on_c, 9, 51, 0
5, 12617, Note_on_c, 9, 46, 61
5, 12617, Note_on_c, 9, 51, 108
5, 12667, Note_on_c, 9, 51, 0
5, 12675, Note_on_c, 9, 46, 0
5, 12728, Note_on_c, 9, 51, 37
5, 12739, Note_on_c, 9, 51, 0
5, 12805, Note_on_c, 9, 51, 106
5, 12807, Note_on_c, 9, 46, 63
5, 12808, Note_on_c, 9, 40, 1
5, 12817, Note_on_c, 9, 40, 0
5, 12831, Note_on_c, 9, 51, 0
5, 12847, Note_on_c, 9, 46, 0
5, 12915, Note_on_c, 9, 40, 3
5, 12921, Note_on_c, 9, 51, 75
5, 12926, Note_on_c, 9, 40, 0
5, 12940, Note_on_c, 9, 51, 0
5, 12986, Note_on_c, 9, 46, 59
5, 12986, Note_on_c, 9, 51, 108
5, 13004, Note_on_c, 9, 40, 1
5, 13023, Note_on_c, 9, 40, 0
5, 13032, Note_on_c, 9, 51, 0
5, 13044, Note_on_c, 9, 46, 0
5, 13049, Note_on_c, 9, 40, 1
5, 13065, Note_on_c, 9, 40, 0
5, 13096, Note_on_c, 9, 51, 63
5, 13110, Note_on_c, 9, 51, 0
5, 13169, Note_on_c, 9, 46, 64
5, 13169, Note_on_c, 9, 51, 106
5, 13193, Note_on_c, 9, 51, 0
5, 13202, Note_on_c, 9, 46, 0
5, 13245, Note_on_c, 9, 40, 1
5, 13262, Note_on_c, 9, 40, 0
5, 13284, Note_on_c, 9, 40, 3
5, 13286, Note_on_c, 9, 51, 72
5, 13297, Note_on_c, 9, 51, 0
5, 13300, Note_on_c, 9, 40, 0
5, 13344, Note_on_c, 9, 46, 55
5, 13349, Note_on_c, 9, 51, 108
5, 13372, Note_on_c, 9, 40, 17
5, 13381, Note_on_c, 9, 40, 0
5, 13407, Note_on_c, 9, 51, 0
5, 13416, Note_on_c, 9, 46, 0
5, 13534, Note_on_c, 9, 51, 82
5, 13554, Note_on_c, 9, 51, 0
5, 13640, Note_on_c, 9, 42, 19
5, 13642, Note_on_c, 9, 51, 70
5, 13648, Note_on_c, 9, 42, 0
5, 13660, Note_on_c, 9, 51, 0
5, 13688, Note_on_c, 9, 42, 25
5, 13690, Note_on_c, 9, 51, 94
5, 13698, Note_on_c, 9, 42, 0
5, 13723, Note_on_c, 9, 51, 0
5, 13814, Note_on_c, 9, 51, 52
5, 13831, Note_on_c, 9, 51, 0
5, 13891, Note_on_c, 9, 51, 63
5, 13896, Note_on_c, 9, 42, 24
5, 13904, Note_on_c, 9, 42, 0
5, 13910, Note_on_c, 9, 51, 0
5, 13933, Note_on_c, 9, 51, 67
5, 13942, Note_on_c, 9, 42, 37
5, 13957, Note_on_c, 9, 51, 0
5, 13962, Note_on_c, 9, 42, 0
5, 14012, Note_on_c, 9, 53, 69
5, 14033, Note_on_c, 9, 53, 0
5, 14055, Note_on_c, 9, 37, 31
5, 14061, Note_on_c, 9, 51, 81
5, 14094, Note_on_c, 9, 37, 0
5, 14096, Note_on_c, 9, 51, 0
5, 14133, Note_on_c, 9, 42, 27
5, 14145, Note_on_c, 9, 42, 0
5, 14173, Note_on_c, 9, 42, 30
5, 14190, Note_on_c, 9, 42, 0
5, 14248, Note_on_c, 9, 40, 9
5, 14250, Note_on_c, 9, 51, 84
5, 14256, Note_on_c, 9, 40, 0
5, 14267, Note_on_c, 9, 51, 0
5, 14281, Note_on_c, 9, 46, 63
5, 14290, Note_on_c, 9, 51, 70
5, 14291, Note_on_c, 9, 40, 38
5, 14324, Note_on_c, 9, 51, 0
5, 14341, Note_on_c, 9, 40, 0
5, 14466, Note_on_c, 9, 46, 0
5, 14480, Note_on_c, 9, 42, 29
5, 14492, Note_on_c, 9, 42, 0
5, 14493, Note_on_c, 9, 51, 75
5, 14511, Note_on_c, 9, 51, 0
5, 14517, Note_on_c, 9, 46, 69
5, 14530, Note_on_c, 9, 51, 81
5, 14561, Note_on_c, 9, 51, 0
5, 14607, Note_on_c, 9, 40, 1
5, 14616, Note_on_c, 9, 40, 0
5, 14719, Note_on_c, 9, 46, 0
5, 14723, Note_on_c, 9, 40, 25
5, 14731, Note_on_c, 9, 40, 0
5, 14758, Note_on_c, 9, 45, 7
5, 14761, Note_on_c, 9, 46, 63
5, 14764, Note_on_c, 9, 51, 87
5, 14769, Note_on_c, 9, 45, 0
5, 14793, Note_on_c, 9, 45, 27
5, 14799, Note_on_c, 9, 51, 0
5, 14801, Note_on_c, 9, 45, 0
5, 14963, Note_on_c, 9, 46, 0
5, 15087, Note_on_c, 9, 40, 25
5, 15090, Note_on_c, 9, 51, 70
5, 15105, Note_on_c, 9, 51, 0
5, 15106, Note_on_c, 9, 40, 0
5, 15119, Note_on_c, 9, 45, 31
5, 15127, Note_on_c, 9, 45, 0
5, 15129, Note_on_c, 9, 40, 3
5, 15130, Note_on_c, 9, 51, 66
5, 15154, Note_on_c, 9, 45, 35
5, 15159, Note_on_c, 9, 51, 0
5, 15173, Note_on_c, 9, 45, 0
5, 15175, Note_on_c, 9, 40, 0
5, 15194, Note_on_c, 9, 43, 50
5, 15200, Note_on_c, 9, 40, 20
5, 15211, Note_on_c, 9, 40, 0
5, 15215, Note_on_c, 9, 43, 0
5, 15233, Note_on_c, 9, 46, 54
5, 15243, Note_on_c, 9, 51, 106
5, 15271, Note_on_c, 9, 51, 0
5, 15279, Note_on_c, 9, 41, 49
5, 15296, Note_on_c, 9, 41, 0
5, 15313, Note_on_c, 9, 46, 0
5, 15316, Note_on_c, 9, 59, 54
5, 15334, Note_on_c, 9, 59, 0
5, 15355, Note_on_c, 9, 59, 60
5, 15356, Note_on_c, 9, 35, 12
5, 15357, Note_on_c, 9, 57, 10
5, 15381, Note_on_c, 9, 57, 0
5, 15390, Note_on_c, 9, 59, 0
5, 15392, Note_on_c, 9, 35, 0
5, 15474, Note_on_c, 9, 59, 73
5, 15537, Note_on_c, 9, 59, 0
5, 15594, Note_on_c, 9, 59, 74
5, 15653, Note_on_c, 9, 59, 0
5, 15661, Note_on_c, 9, 40, 24
5, 15668, Note_on_c, 9, 40, 0
5, 15721, Note_on_c, 9, 59, 65
5, 15777, Note_on_c, 9, 40, 27
5, 15778, Note_on_c, 9, 59, 0
5, 15783, Note_on_c, 9, 40, 0
5, 15802, Note_on_c, 9, 59, 47
5, 15809, Note_on_c, 9, 40, 20
5, 15824, Note_on_c, 9, 59, 0
5, 15828, Note_on_c, 9, 40, 0
5, 15842, Note_on_c, 9, 59, 69
5, 15855, Note_on_c, 9, 40, 1
5, 15862, Note_on_c, 9, 40, 0
5, 15913, Note_on_c, 9, 59, 0
5, 15961, Note_on_c, 9, 59, 73
5, 16029, Note_on_c, 9, 59, 0
5, 16051, Note_on_c, 9, 59, 54
5, 16065, Note_on_c, 9, 59, 0
5, 16084, Note_on_c, 9, 59, 67
5, 16165, Note_on_c, 9, 59, 0
5, 16197, Note_on_c, 9, 42, 48
5, 16205, Note_on_c, 9, 59, 75
5, 16225, Note_on_c, 9, 42, 0
5, 16278, Note_on_c, 9, 59, 0
5, 16327, Note_on_c, 9, 59, 75
5, 16386, Note_on_c, 9, 59, 0
5, 16413, Note_on_c, 9, 40, 1
5, 16423, Note_on_c, 9, 40, 0
5, 16423, Note_on_c, 9, 59, 46
5, 16435, Note_on_c, 9, 59, 0
5, 16448, Note_on_c, 9, 40, 1
5, 16452, Note_on_c, 9, 59, 71
5, 16474, Note_on_c, 9, 40, 0
5, 16539, Note_on_c, 9, 59, 0
5, 16570, Note_on_c, 9, 59, 67
5, 16639, Note_on_c, 9, 59, 0
5, 16686, Note_on_c, 9, 59, 71
5, 16755, Note_on_c, 9, 59, 0
5, 16775, Note_on_c, 9, 59, 51
5, 16786, Note_on_c, 9, 59, 0
5, 16806, Note_on_c, 9, 59, 69
5, 16885, Note_on_c, 9, 59, 0
5, 16925, Note_on_c, 9, 59, 76
5, 17000, Note_on_c, 9, 59, 0
5, 17046, Note_on_c, 9, 59, 70
5, 17115, Note_on_c, 9, 59, 0
5, 17135, Note_on_c, 9, 59, 52
5, 17151, Note_on_c, 9, 59, 0
5, 17170, Note_on_c, 9, 59, 75
5, 17234, Note_on_c, 9, 40, 2
5, 17244, Note_on_c, 9, 40, 0
5, 17256, Note_on_c, 9, 59, 0
5, 17290, Note_on_c, 9, 59, 75
5, 17368, Note_on_c, 9, 59, 0
5, 17388, Note_on_c, 9, 59, 28
5, 17400, Note_on_c, 9, 59, 0
5, 17412, Note_on_c, 9, 40, 1
5, 17415, Note_on_c, 9, 59, 73
5, 17421, Note_on_c, 9, 40, 0
5, 17452, Note_on_c, 9, 40, 29
5, 17472, Note_on_c, 9, 40, 0
5, 17492, Note_on_c, 9, 59, 0
5, 17510, Note_on_c, 9, 40, 21
5, 17521, Note_on_c, 9, 40, 0
5, 17531, Note_on_c, 9, 59, 74
5, 17594, Note_on_c, 9, 40, 21
5, 17602, Note_on_c, 9, 40, 0
5, 17621, Note_on_c, 9, 59, 0
5, 17630, Note_on_c, 9, 40, 22
5, 17638, Note_on_c, 9, 40, 0
5, 17653, Note_on_c, 9, 59, 51
5, 17657, Note_on_c, 9, 42, 5
5, 17666, Note_on_c, 9, 42, 0
5, 17675, Note_on_c, 9, 40, 25
5, 17676, Note_on_c, 9, 59, 0
5, 17694, Note_on_c, 9, 40, 0
5, 17694, Note_on_c, 9, 42, 16
5, 17696, Note_on_c, 9, 59, 63
5, 17702, Note_on_c, 9, 42, 0
5, 17715, Note_on_c, 9, 59, 0
5, 17781, Note_on_c, 9, 59, 73
5, 17808, Note_on_c, 9, 42, 21
5, 17817, Note_on_c, 9, 42, 0
5, 17841, Note_on_c, 9, 59, 0
5, 17842, Note_on_c, 9, 42, 19
5, 17852, Note_on_c, 9, 42, 0
5, 17895, Note_on_c, 9, 59, 62
5, 17937, Note_on_c, 9, 59, 0
5, 17979, Note_on_c, 9, 59, 56
5, 17991, Note_on_c, 9, 59, 0
5, 18013, Note_on_c, 9, 59, 64
5, 18046, Note_on_c, 9, 44, 28
5, 18055, Note_on_c, 9, 59, 0
5, 18057, Note_on_c, 9, 44, 0
5, 18124, Note_on_c, 9, 42, 28
5, 18128, Note_on_c, 9, 59, 58
5, 18130, Note_on_c, 9, 60, 65
5, 18140, Note_on_c, 9, 42, 0
5, 18151, Note_on_c, 9, 60, 0
5, 18161, Note_on_c, 9, 59, 0
5, 18215, Note_on_c, 9, 59, 52
5, 18233, Note_on_c, 9, 59, 0
5, 18249, Note_on_c, 9, 59, 62
5, 18329, Note_on_c, 9, 59, 0
5, 18367, Note_on_c, 9, 59, 68
5, 18433, Note_on_c, 9, 59, 0
5, 18453, Note_on_c, 9, 59, 50
5, 18467, Note_on_c, 9, 59, 0
5, 18487, Note_on_c, 9, 59, 65
5, 18564, Note_on_c, 9, 59, 0
5, 18605, Note_on_c, 9, 59, 74
5, 18684, Note_on_c, 9, 59, 0
5, 18725, Note_on_c, 9, 59, 70
5, 18791, Note_on_c, 9, 59, 0
5, 18843, Note_on_c, 9, 59, 74
5, 18909, Note_on_c, 9, 59, 0
5, 18946, Note_on_c, 9, 59, 52
5, 18955, Note_on_c, 9, 59, 0
5, 18976, Note_on_c, 9, 59, 62
5, 19057, Note_on_c, 9, 59, 0
5, 19084, Note_on_c, 9, 59, 66
5, 19139, Note_on_c, 9, 59, 0
5, 19160, Note_on_c, 9, 40, 33
5, 19167, Note_on_c, 9, 40, 0
5, 19168, Note_on_c, 9, 59, 44
5, 19181, Note_on_c, 9, 59, 0
5, 19201, Note_on_c, 9, 59, 67
5, 19279, Note_on_c, 9, 59, 0
5, 19321, Note_on_c, 9, 59, 71
5, 19383, Note_on_c, 9, 59, 0
5, 19443, Note_on_c, 9, 59, 75
5, 19494, Note_on_c, 9, 59, 0
5, 19562, Note_on_c, 9, 59, 77
5, 19611, Note_on_c, 9, 59, 0
5, 19645, Note_on_c, 9, 40, 11
5, 19653, Note_on_c, 9, 40, 0
5, 19655, Note_on_c, 9, 59, 44
5, 19666, Note_on_c, 9, 59, 0
5, 19686, Note_on_c, 9, 59, 70
5, 19759, Note_on_c, 9, 59, 0
5, 19809, Note_on_c, 9, 59, 75
5, 19851, Note_on_c, 9, 59, 0
5, 19900, Note_on_c, 9, 59, 44
5, 19912, Note_on_c, 9, 59, 0
5, 19932, Note_on_c, 9, 59, 67
5, 20013, Note_on_c, 9, 59, 0
5, 20049, Note_on_c, 9, 59, 74
5, 20105, Note_on_c, 9, 59, 0
5, 20132, Note_on_c, 9, 40, 7
5, 20140, Note_on_c, 9, 40, 0
5, 20170, Note_on_c, 9, 59, 74
5, 20231, Note_on_c, 9, 59, 0
5, 20265, Note_on_c, 9, 59, 47
5, 20280, Note_on_c, 9, 59, 0
5, 20299, Note_on_c, 9, 59, 71
5, 20369, Note_on_c, 9, 59, 0
5, 20413, Note_on_c, 9, 59, 73
5, 20476, Note_on_c, 9, 59, 0
5, 20495, Note_on_c, 9, 40, 1
5, 20504, Note_on_c, 9, 40, 0
5, 20537, Note_on_c, 9, 59, 66
5, 20591, Note_on_c, 9, 59, 0
5, 20635, Note_on_c, 9, 59, 60
5, 20649, Note_on_c, 9, 59, 0
5, 20668, Note_on_c, 9, 59, 66
5, 20698, Note_on_c, 9, 59, 0
5, 20774, Note_on_c, 9, 46, 20
5, 20778, Note_on_c, 9, 59, 71
5, 20791, Note_on_c, 9, 46, 0
5, 20817, Note_on_c, 9, 59, 0
5, 20892, Note_on_c, 9, 59, 70
5, 20939, Note_on_c, 9, 59, 0
5, 20968, Note_on_c, 9, 40, 20
5, 20985, Note_on_c, 9, 40, 0
5, 21010, Note_on_c, 9, 35, 7
5, 21013, Note_on_c, 9, 59, 71
5, 21045, Note_on_c, 9, 59, 0
5, 21071, Note_on_c, 9, 35, 0
5, 21086, Note_on_c, 9, 35, 55
5, 21097, Note_on_c, 9, 59, 52
5, 21111, Note_on_c, 9, 59, 0
5, 21127, Note_on_c, 9, 35, 0
5, 21132, Note_on_c, 9, 59, 71
5, 21188, Note_on_c, 9, 59, 0
5, 21248, Note_on_c, 9, 59, 71
5, 21288, Note_on_c, 9, 59, 0
5, 21332, Note_on_c, 9, 59, 46
5, 21348, Note_on_c, 9, 59, 0
5, 21367, Note_on_c, 9, 59, 70
5, 21404, Note_on_c, 9, 40, 18
5, 21426, Note_on_c, 9, 40, 0
5, 21430, Note_on_c, 9, 59, 0
5, 21439, Note_on_c, 9, 40, 29
5, 21446, Note_on_c, 9, 40, 0
5, 21477, Note_on_c, 9, 35, 25
5, 21481, Note_on_c, 9, 59, 76
5, 21497, Note_on_c, 9, 35, 0
5, 21549, Note_on_c, 9, 59, 0
5, 21598, Note_on_c, 9, 59, 74
5, 21601, Note_on_c, 9, 42, 22
5, 21613, Note_on_c, 9, 42, 0
5, 21636, Note_on_c, 9, 42, 12
5, 21650, Note_on_c, 9, 42, 0
5, 21666, Note_on_c, 9, 59, 0
5, 21704, Note_on_c, 9, 59, 46
5, 21714, Note_on_c, 9, 59, 0
5, 21731, Note_on_c, 9, 59, 68
5, 21731, Note_on_c, 9, 40, 6
5, 21732, Note_on_c, 9, 46, 22
5, 21743, Note_on_c, 9, 40, 0
5, 21752, Note_on_c, 9, 46, 0
5, 21822, Note_on_c, 9, 59, 0
5, 21852, Note_on_c, 9, 59, 65
5, 21889, Note_on_c, 9, 40, 1
5, 21899, Note_on_c, 9, 40, 0
5, 21901, Note_on_c, 9, 59, 0
5, 21926, Note_on_c, 9, 40, 1
5, 21932, Note_on_c, 9, 59, 49
5, 21936, Note_on_c, 9, 40, 0
5, 21950, Note_on_c, 9, 59, 0
5, 21957, Note_on_c, 9, 35, 13
5, 21965, Note_on_c, 9, 35, 0
5, 21967, Note_on_c, 9, 59, 81
5, 22010, Note_on_c, 9, 40, 3
5, 22020, Note_on_c, 9, 40, 0
5, 22051, Note_on_c, 9, 40, 13
5, 22059, Note_on_c, 9, 40, 0
5, 22067, Note_on_c, 9, 59, 0
5, 22089, Note_on_c, 9, 59, 43
5, 22116, Note_on_c, 9, 59, 0
5, 22172, Note_on_c, 9, 59, 36
5, 22183, Note_on_c, 9, 59, 0
5, 22204, Note_on_c, 9, 59, 69
5, 22214, Note_on_c, 9, 40, 4
5, 22225, Note_on_c, 9, 40, 0
5, 22249, Note_on_c, 9, 40, 5
5, 22259, Note_on_c, 9, 40, 0
5, 22289, Note_on_c, 9, 35, 5
5, 22298, Note_on_c, 9, 35, 0
5, 22304, Note_on_c, 9, 59, 0
5, 22330, Note_on_c, 9, 59, 50
5, 22365, Note_on_c, 9, 40, 11
5, 22381, Note_on_c, 9, 40, 0
5, 22384, Note_on_c, 9, 59, 0
5, 22402, Note_on_c, 9, 40, 13
5, 22420, Note_on_c, 9, 40, 0
5, 22438, Note_on_c, 9, 35, 9
5, 22449, Note_on_c, 9, 59, 59
5, 22452, Note_on_c, 9, 35, 0
5, 22493, Note_on_c, 9, 40, 7
5, 22502, Note_on_c, 9, 40, 0
5, 22527, Note_on_c, 9, 59, 0
5, 22532, Note_on_c, 9, 53, 77
5, 22567, Note_on_c, 9, 53, 0
5, 22570, Note_on_c, 9, 59, 39
5, 22625, Note_on_c, 9, 40, 17
5, 22641, Note_on_c, 9, 59, 0
5, 22646, Note_on_c, 9, 40, 0
5, 22647, Note_on_c, 9, 53, 82
5, 22658, Note_on_c, 9, 40, 18
5, 22667, Note_on_c, 9, 40, 0
5, 22686, Note_on_c, 9, 53, 0
5, 22693, Note_on_c, 9, 59, 31
5, 22697, Note_on_c, 9, 35, 3
5, 22707, Note_on_c, 9, 35, 0
5, 22739, Note_on_c, 9, 40, 17
5, 22746, Note_on_c, 9, 40, 0
5, 22754, Note_on_c, 9, 59, 0
5, 22767, Note_on_c, 9, 53, 74
5, 22770, Note_on_c, 9, 45, 32
5, 22780, Note_on_c, 9, 45, 0
5, 22801, Note_on_c, 9, 53, 0
5, 22814, Note_on_c, 9, 59, 39
5, 22850, Note_on_c, 9, 40, 23
5, 22859, Note_on_c, 9, 40, 0
5, 22867, Note_on_c, 9, 59, 0
5, 22886, Note_on_c, 9, 40, 29
5, 22889, Note_on_c, 9, 59, 51
5, 22889, Note_on_c, 9, 43, 45
5, 22900, Note_on_c, 9, 40, 0
5, 22903, Note_on_c, 9, 59, 0
5, 22909, Note_on_c, 9, 43, 0
5, 22913, Note_on_c, 9, 53, 74
5, 22931, Note_on_c, 9, 40, 40
5, 22939, Note_on_c, 9, 40, 0
5, 22944, Note_on_c, 9, 53, 0
5, 22972, Note_on_c, 9, 35, 27
5, 22989, Note_on_c, 9, 35, 0
5, 22997, Note_on_c, 9, 59, 65
5, 23003, Note_on_c, 9, 46, 69
5, 23027, Note_on_c, 9, 59, 0
5, 23047, Note_on_c, 9, 57, 46
5, 23048, Note_on_c, 9, 59, 52
5, 23055, Note_on_c, 9, 35, 41
5, 23057, Note_on_c, 9, 57, 24
5, 23068, Note_on_c, 9, 57, 0
5, 23072, Note_on_c, 9, 59, 0
5, 23077, Note_on_c, 9, 57, 0
5, 23082, Note_on_c, 9, 35, 0
5, 23104, Note_on_c, 9, 46, 0
5, 23173, Note_on_c, 9, 59, 66
5, 23210, Note_on_c, 9, 59, 0
5, 23244, Note_on_c, 9, 46, 69
5, 23254, Note_on_c, 9, 59, 49
5, 23273, Note_on_c, 9, 59, 0
5, 23295, Note_on_c, 9, 59, 55
5, 23307, Note_on_c, 9, 59, 0
5, 23332, Note_on_c, 9, 46, 0
5, 23335, Note_on_c, 9, 40, 6
5, 23343, Note_on_c, 9, 40, 0
5, 23366, Note_on_c, 9, 40, 3
5, 23372, Note_on_c, 9, 59, 94
5, 23386, Note_on_c, 9, 40, 0
5, 23406, Note_on_c, 9, 59, 0
5, 23426, Note_on_c, 9, 59, 56
5, 23453, Note_on_c, 9, 59, 0
5, 23486, Note_on_c, 9, 46, 76
5, 23540, Note_on_c, 9, 59, 46
5, 23568, Note_on_c, 9, 59, 0
5, 23572, Note_on_c, 9, 46, 0
5, 23616, Note_on_c, 9, 59, 49
5, 23628, Note_on_c, 9, 59, 0
5, 23661, Note_on_c, 9, 59, 80
5, 23715, Note_on_c, 9, 46, 69
5, 23730, Note_on_c, 9, 46, 0
5, 23732, Note_on_c, 9, 35, 1
5, 23733, Note_on_c, 9, 59, 0
5, 23745, Note_on_c, 9, 35, 0
5, 23761, Note_on_c, 9, 59, 37
5, 23775, Note_on_c, 9, 35, 2
5, 23786, Note_on_c, 9, 35, 0
5, 23787, Note_on_c, 9, 59, 0
5, 23851, Note_on_c, 9, 59, 62
5, 23878, Note_on_c, 9, 59, 0
5, 23883, Note_on_c, 9, 42, 31
5, 23884, Note_on_c, 9, 40, 29
5, 23892, Note_on_c, 9, 42, 0
5, 23893, Note_on_c, 9, 59, 82
5, 23899, Note_on_c, 9, 40, 0
5, 23917, Note_on_c, 9, 42, 33
5, 23928, Note_on_c, 9, 42, 0
5, 23958, Note_on_c, 9, 59, 0
5, 23958, Note_on_c, 9, 40, 40
5, 23981, Note_on_c, 9, 40, 0
5, 23998, Note_on_c, 9, 42, 31
5, 24004, Note_on_c, 9, 59, 45
5, 24014, Note_on_c, 9, 42, 0
5, 24035, Note_on_c, 9, 42, 22
5, 24049, Note_on_c, 9, 42, 0
5, 24063, Note_on_c, 9, 59, 0
5, 24127, Note_on_c, 9, 59, 62
5, 24168, Note_on_c, 9, 59, 0
5, 24200, Note_on_c, 9, 59, 38
5, 24220, Note_on_c, 9, 59, 0
5, 24240, Note_on_c, 9, 59, 61
5, 24310, Note_on_c, 9, 59, 0
5, 24361, Note_on_c, 9, 59, 73
5, 24409, Note_on_c, 9, 59, 0
5, 24444, Note_on_c, 9, 35, 17
5, 24446, Note_on_c, 9, 59, 35
5, 24453, Note_on_c, 9, 35, 0
5, 24459, Note_on_c, 9, 59, 0
5, 24481, Note_on_c, 9, 59, 60
5, 24541, Note_on_c, 9, 59, 0
5, 24603, Note_on_c, 9, 59, 73
5, 24672, Note_on_c, 9, 59, 0
5, 24725, Note_on_c, 9, 59, 59
5, 24771, Note_on_c, 9, 59, 0
5, 24845, Note_on_c, 9, 59, 63
5, 24897, Note_on_c, 9, 59, 0
5, 24905, Note_on_c, 9, 40, 21
5, 24912, Note_on_c, 9, 40, 0
5, 24934, Note_on_c, 9, 59, 37
5, 24943, Note_on_c, 9, 35, 6
5, 24950, Note_on_c, 9, 59, 0
5, 24952, Note_on_c, 9, 35, 0
5, 24966, Note_on_c, 9, 59, 55
5, 24980, Note_on_c, 9, 35, 19
5, 25017, Note_on_c, 9, 35, 0
5, 25037, Note_on_c, 9, 59, 0
5, 25064, Note_on_c, 9, 35, 21
5, 25078, Note_on_c, 9, 35, 0
5, 25087, Note_on_c, 9, 59, 66
5, 25143, Note_on_c, 9, 59, 0
5, 25181, Note_on_c, 9, 59, 44
5, 25191, Note_on_c, 9, 59, 0
5, 25212, Note_on_c, 9, 59, 56
5, 25282, Note_on_c, 9, 59, 0
5, 25289, Note_on_c, 9, 40, 11
5, 25297, Note_on_c, 9, 40, 0
5, 25330, Note_on_c, 9, 59, 69
5, 25373, Note_on_c, 9, 59, 0
5, 25412, Note_on_c, 9, 59, 52
5, 25422, Note_on_c, 9, 59, 0
5, 25444, Note_on_c, 9, 59, 57
5, 25496, Note_on_c, 9, 59, 0
5, 25533, Note_on_c, 9, 40, 1
5, 25554, Note_on_c, 9, 40, 0
5, 25562, Note_on_c, 9, 59, 76
5, 25603, Note_on_c, 9, 38, 15
5, 25615, Note_on_c, 9, 38, 0
5, 25635, Note_on_c, 9, 59, 0
5, 25650, Note_on_c, 9, 35, 18
5, 25658, Note_on_c, 9, 35, 0
5, 25690, Note_on_c, 9, 59, 67
5, 25764, Note_on_c, 9, 59, 0
5, 25802, Note_on_c, 9, 38, 13
5, 25811, Note_on_c, 9, 59, 74
5, 25817, Note_on_c, 9, 38, 0
5, 25870, Note_on_c, 9, 59, 0
5, 25882, Note_on_c, 9, 38, 40
5, 25883, Note_on_c, 9, 40, 9
5, 25894, Note_on_c, 9, 59, 43
5, 25900, Note_on_c, 9, 38, 0
5, 25903, Note_on_c, 9, 40, 0
5, 25916, Note_on_c, 9, 59, 0
5, 25925, Note_on_c, 9, 40, 1
5, 25932, Note_on_c, 9, 59, 68
5, 25963, Note_on_c, 9, 38, 39
5, 25964, Note_on_c, 9, 40, 0
5, 25979, Note_on_c, 9, 38, 0
5, 25997, Note_on_c, 9, 40, 1
5, 26005, Note_on_c, 9, 40, 0
5, 26013, Note_on_c, 9, 59, 0
5, 26048, Note_on_c, 9, 38, 36
5, 26050, Note_on_c, 9, 59, 70
5, 26059, Note_on_c, 9, 38, 0
5, 26098, Note_on_c, 9, 59, 0
5, 26132, Note_on_c, 9, 59, 44
5, 26153, Note_on_c, 9, 59, 0
5, 26169, Note_on_c, 9, 59, 66
5, 26251, Note_on_c, 9, 59, 0
5, 26285, Note_on_c, 9, 59, 67
5, 26332, Note_on_c, 9, 59, 0
5, 26372, Note_on_c, 9, 59, 48
5, 26387, Note_on_c, 9, 59, 0
5, 26408, Note_on_c, 9, 59, 61
5, 26488, Note_on_c, 9, 59, 0
5, 26525, Note_on_c, 9, 59, 73
5, 26576, Note_on_c, 9, 59, 0
5, 26609, Note_on_c, 9, 59, 40
5, 26623, Note_on_c, 9, 59, 0
5, 26642, Note_on_c, 9, 43, 21
5, 26646, Note_on_c, 9, 59, 67
5, 26652, Note_on_c, 9, 43, 0
5, 26730, Note_on_c, 9, 59, 0
5, 26753, Note_on_c, 9, 40, 11
5, 26761, Note_on_c, 9, 59, 67
5, 26765, Note_on_c, 9, 40, 0
5, 26769, Note_on_c, 9, 43, 20
5, 26777, Note_on_c, 9, 43, 0
5, 26795, Note_on_c, 9, 40, 1
5, 26811, Note_on_c, 9, 59, 0
5, 26812, Note_on_c, 9, 40, 0
5, 26838, Note_on_c, 9, 40, 33
5, 26848, Note_on_c, 9, 59, 42
5, 26855, Note_on_c, 9, 40, 0
5, 26861, Note_on_c, 9, 59, 0
5, 26883, Note_on_c, 9, 59, 68
5, 26889, Note_on_c, 9, 43, 22
5, 26898, Note_on_c, 9, 43, 0
5, 26959, Note_on_c, 9, 59, 0
5, 27003, Note_on_c, 9, 59, 76
5, 27077, Note_on_c, 9, 59, 0
5, 27125, Note_on_c, 9, 59, 66
5, 27182, Note_on_c, 9, 59, 0
5, 27245, Note_on_c, 9, 59, 71
5, 27299, Note_on_c, 9, 59, 0
5, 27335, Note_on_c, 9, 59, 47
5, 27350, Note_on_c, 9, 59, 0
5, 27369, Note_on_c, 9, 59, 69
5, 27443, Note_on_c, 9, 59, 0
5, 27485, Note_on_c, 9, 59, 74
5, 27535, Note_on_c, 9, 59, 0
5, 27574, Note_on_c, 9, 59, 46
5, 27585, Note_on_c, 9, 59, 0
5, 27606, Note_on_c, 9, 59, 66
5, 27683, Note_on_c, 9, 59, 0
5, 27728, Note_on_c, 9, 59, 74
5, 27799, Note_on_c, 9, 59, 0
5, 27845, Note_on_c, 9, 59, 71
5, 27904, Note_on_c, 9, 59, 0
5, 27932, Note_on_c, 9, 59, 45
5, 27947, Note_on_c, 9, 59, 0
5, 27963, Note_on_c, 9, 42, 33
5, 27968, Note_on_c, 9, 59, 69
5, 27983, Note_on_c, 9, 42, 0
5, 28044, Note_on_c, 9, 59, 0
5, 28084, Note_on_c, 9, 59, 75
5, 28151, Note_on_c, 9, 59, 0
5, 28174, Note_on_c, 9, 59, 44
5, 28188, Note_on_c, 9, 59, 0
5, 28202, Note_on_c, 9, 46, 60
5, 28208, Note_on_c, 9, 59, 70
5, 28278, Note_on_c, 9, 35, 17
5, 28282, Note_on_c, 9, 59, 0
5, 28287, Note_on_c, 9, 35, 0
5, 28321, Note_on_c, 9, 46, 0
5, 28321, Note_on_c, 9, 59, 74
5, 28376, Note_on_c, 9, 59, 0
5, 28450, Note_on_c, 9, 59, 77
5, 28506, Note_on_c, 9, 59, 0
5, 28538, Note_on_c, 9, 59, 44
5, 28551, Note_on_c, 9, 59, 0
5, 28578, Note_on_c, 9, 59, 63
5, 28600, Note_on_c, 9, 46, 9
5, 28618, Note_on_c, 9, 46, 0
5, 28627, Note_on_c, 9, 59, 0
5, 28688, Note_on_c, 9, 46, 31
5, 28693, Note_on_c, 9, 59, 69
5, 28702, Note_on_c, 9, 46, 0
5, 28737, Note_on_c, 9, 59, 0
5, 28765, Note_on_c, 9, 46, 44
5, 28774, Note_on_c, 9, 59, 40
5, 28779, Note_on_c, 9, 46, 0
5, 28786, Note_on_c, 9, 59, 0
5, 28810, Note_on_c, 9, 59, 61
5, 28866, Note_on_c, 9, 59, 0
5, 28929, Note_on_c, 9, 59, 73
5, 28985, Note_on_c, 9, 59, 0
5, 29052, Note_on_c, 9, 59, 70
5, 29084, Note_on_c, 9, 59, 0
5, 29139, Note_on_c, 9, 59, 43
5, 29148, Note_on_c, 9, 59, 0
5, 29172, Note_on_c, 9, 59, 61
5, 29211, Note_on_c, 9, 59, 0
5, 29361, Note_on_c, 9, 59, 49
5, 29361, Note_on_c, 9, 40, 7
5, 29370, Note_on_c, 9, 40, 0
5, 29375, Note_on_c, 9, 59, 0
5, 29401, Note_on_c, 9, 59, 60
5, 29408, Note_on_c, 9, 40, 15
5, 29417, Note_on_c, 9, 40, 0
5, 29466, Note_on_c, 9, 59, 0
5, 29527, Note_on_c, 9, 59, 75
5, 29529, Note_on_c, 9, 40, 8
5, 29537, Note_on_c, 9, 40, 0
5, 29560, Note_on_c, 9, 40, 8
5, 29571, Note_on_c, 9, 59, 0
5, 29572, Note_on_c, 9, 40, 0
5, 29611, Note_on_c, 9, 59, 50
5, 29630, Note_on_c, 9, 59, 0
5, 29727, Note_on_c, 9, 59, 62
5, 29750, Note_on_c, 9, 59, 0
5, 29766, Note_on_c, 9, 59, 65
5, 29824, Note_on_c, 9, 59, 0
5, 29884, Note_on_c, 9, 59, 68
5, 29888, Note_on_c, 9, 57, 36
5, 29898, Note_on_c, 9, 57, 0
5, 29917, Note_on_c, 9, 59, 0
5, 29973, Note_on_c, 9, 59, 71
5, 29998, Note_on_c, 9, 59, 0
5, 30095, Note_on_c, 9, 59, 53
5, 30107, Note_on_c, 9, 59, 0
5, 30133, Note_on_c, 9, 59, 73
5, 30187, Note_on_c, 9, 59, 0
5, 30249, Note_on_c, 9, 59, 47
5, 30261, Note_on_c, 9, 59, 0
5, 30330, Note_on_c, 9, 59, 77
5, 30360, Note_on_c, 9, 59, 0
5, 30361, Note_on_c, 9, 59, 50
5, 30443, Note_on_c, 9, 59, 45
5, 30454, Note_on_c, 9, 59, 0
5, 30484, Note_on_c, 9, 59, 67
5, 30524, Note_on_c, 9, 59, 0
5, 30540, Note_on_c, 9, 59, 0
5, 30561, Note_on_c, 9, 46, 55
5, 30574, Note_on_c, 9, 46, 0
5, 30608, Note_on_c, 9, 59, 60
5, 30636, Note_on_c, 9, 59, 0
5, 30689, Note_on_c, 9, 59, 44
5, 30699, Note_on_c, 9, 59, 0
5, 30718, Note_on_c, 9, 59, 48
5, 30720, Program_c, 9, 32
5, 30724, Note_on_c, 9, 51, 58
5, 30732, Note_on_c, 9, 59, 0
5, 30739, Note_on_c, 9, 51, 0
5, 30840, Note_on_c, 9, 44, 78
5, 30840, Note_on_c, 9, 51, 61
5, 30878, Note_on_c, 9, 51, 0
5, 30930, Note_on_c, 9, 40, 16
5, 30941, Note_on_c, 9, 40, 0
5, 30960, Note_on_c, 9, 44, 0
5, 30965, Note_on_c, 9, 51, 60
5, 30974, Note_on_c, 9, 40, 1
5, 31006, Note_on_c, 9, 51, 0
5, 31012, Note_on_c, 9, 40, 0
5, 31059, Note_on_c, 9, 51, 57
5, 31077, Note_on_c, 9, 51, 0
5, 31080, Note_on_c, 9, 44, 81
5, 31090, Note_on_c, 9, 35, 14
5, 31093, Note_on_c, 9, 51, 69
5, 31098, Note_on_c, 9, 35, 0
5, 31175, Note_on_c, 9, 51, 0
5, 31200, Note_on_c, 9, 44, 0
5, 31205, Note_on_c, 9, 51, 72
5, 31283, Note_on_c, 9, 51, 0
5, 31284, Note_on_c, 9, 35, 44
5, 31294, Note_on_c, 9, 35, 0
5, 31320, Note_on_c, 9, 44, 69
5, 31322, Note_on_c, 9, 51, 75
5, 31403, Note_on_c, 9, 51, 0
5, 31440, Note_on_c, 9, 44, 0
5, 31445, Note_on_c, 9, 51, 70
5, 31526, Note_on_c, 9, 51, 0
5, 31560, Note_on_c, 9, 44, 68
5, 31567, Note_on_c, 9, 51, 76
5, 31619, Note_on_c, 9, 40, 11
5, 31629, Note_on_c, 9, 40, 0
5, 31634, Note_on_c, 9, 51, 0
5, 31654, Note_on_c, 9, 40, 31
5, 31657, Note_on_c, 9, 51, 37
5, 31669, Note_on_c, 9, 40, 0
5, 31676, Note_on_c, 9, 51, 0
5, 31680, Note_on_c, 9, 44, 0
5, 31690, Note_on_c, 9, 51, 70
5, 31770, Note_on_c, 9, 35, 13
5, 31782, Note_on_c, 9, 51, 0
5, 31790, Note_on_c, 9, 35, 0
5, 31800, Note_on_c, 9, 44, 69
5, 31807, Note_on_c, 9, 51, 67
5, 31809, Note_on_c, 9, 35, 9
5, 31854, Note_on_c, 9, 35, 0
5, 31865, Note_on_c, 9, 40, 20
5, 31880, Note_on_c, 9, 40, 0
5, 31890, Note_on_c, 9, 35, 23
5, 31891, Note_on_c, 9, 51, 0
5, 31907, Note_on_c, 9, 35, 0
5, 31920, Note_on_c, 9, 44, 0
5, 31928, Note_on_c, 9, 51, 78
5, 32018, Note_on_c, 9, 51, 0
5, 32040, Note_on_c, 9, 46, 67
5, 32045, Note_on_c, 9, 51, 54
5, 32123, Note_on_c, 9, 51, 0
5, 32125, Note_on_c, 9, 35, 33
5, 32138, Note_on_c, 9, 35, 0
5, 32160, Note_on_c, 9, 46, 0
5, 32165, Note_on_c, 9, 35, 34
5, 32166, Note_on_c, 9, 51, 69
5, 32168, Note_on_c, 9, 53, 50
5, 32227, Note_on_c, 9, 35, 0
5, 32242, Note_on_c, 9, 53, 0
5, 32249, Note_on_c, 9, 35, 20
5, 32251, Note_on_c, 9, 51, 0
5, 32264, Note_on_c, 9, 35, 0
5, 32280, Note_on_c, 9, 44, 61
5, 32281, Note_on_c, 9, 51, 39
5, 32377, Note_on_c, 9, 51, 0
5, 32400, Note_on_c, 9, 44, 0
5, 32403, Note_on_c, 9, 51, 37
5, 32406, Note_on_c, 9, 40, 27
5, 32427, Note_on_c, 9, 40, 0
5, 32443, Note_on_c, 9, 40, 31
5, 32452, Note_on_c, 9, 40, 0
5, 32474, Note_on_c, 9, 51, 0
5, 32490, Note_on_c, 9, 35, 29
5, 32494, Note_on_c, 9, 51, 75
5, 32502, Note_on_c, 9, 35, 0
5, 32520, Note_on_c, 9, 44, 71
5, 32524, Note_on_c, 9, 51, 0
5, 32533, Note_on_c, 9, 51, 64
5, 32574, Note_on_c, 9, 40, 30
5, 32594, Note_on_c, 9, 40, 0
5, 32612, Note_on_c, 9, 40, 39
5, 32622, Note_on_c, 9, 40, 0
5, 32628, Note_on_c, 9, 51, 0
5, 32640, Note_on_c, 9, 44, 0
5, 32645, Note_on_c, 9, 51, 63
5, 32656, Note_on_c, 9, 35, 18
5, 32684, Note_on_c, 9, 35, 0
5, 32721, Note_on_c, 9, 51, 0
5, 32760, Note_on_c, 9, 44, 69
5, 32767, Note_on_c, 9, 51, 94
5, 32843, Note_on_c, 9, 51, 0
5, 32848, Note_on_c, 9, 35, 33
5, 32857, Note_on_c, 9, 35, 0
5, 32861, Note_on_c, 9, 51, 43
5, 32879, Note_on_c, 9, 51, 0
5, 32880, Note_on_c, 9, 44, 0
5, 32881, Note_on_c, 9, 35, 30
5, 32891, Note_on_c, 9, 51, 57
5, 32908, Note_on_c, 9, 35, 0
5, 32978, Note_on_c, 9, 51, 0
5, 33000, Note_on_c, 9, 44, 69
5, 33007, Note_on_c, 9, 51, 76
5, 33100, Note_on_c, 9, 51, 0
5, 33120, Note_on_c, 9, 44, 0
5, 33123, Note_on_c, 9, 51, 45
5, 33197, Note_on_c, 9, 51, 0
5, 33214, Note_on_c, 9, 51, 42
5, 33232, Note_on_c, 9, 51, 0
5, 33240, Note_on_c, 9, 44, 65
5, 33248, Note_on_c, 9, 51, 82
5, 33322, Note_on_c, 9, 35, 16
5, 33332, Note_on_c, 9, 35, 0
5, 33341, Note_on_c, 9, 51, 0
5, 33354, Note_on_c, 9, 35, 22
5, 33360, Note_on_c, 9, 44, 0
5, 33364, Note_on_c, 9, 51, 63
5, 33370, Note_on_c, 9, 35, 0
5, 33449, Note_on_c, 9, 51, 0
5, 33480, Note_on_c, 9, 46, 64
5, 33480, Note_on_c, 9, 51, 69
5, 33516, Note_on_c, 9, 40, 9
5, 33524, Note_on_c, 9, 40, 0
5, 33544, Note_on_c, 9, 51, 0
5, 33574, Note_on_c, 9, 51, 16
5, 33585, Note_on_c, 9, 51, 0
5, 33599, Note_on_c, 9, 35, 32
5, 33600, Note_on_c, 9, 46, 0
5, 33604, Note_on_c, 9, 51, 55
5, 33622, Note_on_c, 9, 35, 0
5, 33669, Note_on_c, 9, 51, 0
5, 33715, Note_on_c, 9, 51, 81
5, 33720, Note_on_c, 9, 44, 55
5, 33776, Note_on_c, 9, 51, 0
5, 33794, Note_on_c, 9, 35, 60
5, 33800, Note_on_c, 9, 40, 1
5, 33810, Note_on_c, 9, 35, 0
5, 33817, Note_on_c, 9, 40, 0
5, 33817, Note_on_c, 9, 51, 9
5, 33827, Note_on_c, 9, 51, 0
5, 33840, Note_on_c, 9, 44, 0
5, 33843, Note_on_c, 9, 51, 58
5, 33850, Note_on_c, 9, 40, 1
5, 33869, Note_on_c, 9, 40, 0
5, 33915, Note_on_c, 9, 51, 0
5, 33916, Note_on_c, 9, 40, 4
5, 33924, Note_on_c, 9, 40, 0
5, 33960, Note_on_c, 9, 44, 57
5, 33973, Note_on_c, 9, 51, 85
5, 34038, Note_on_c, 9, 51, 0
5, 34057, Note_on_c, 9, 51, 33
5, 34070, Note_on_c, 9, 51, 0
5, 34080, Note_on_c, 9, 44, 0
5, 34087, Note_on_c, 9, 51, 64
5, 34164, Note_on_c, 9, 51, 0
5, 34200, Note_on_c, 9, 44, 59
5, 34202, Note_on_c, 9, 51, 84
5, 34277, Note_on_c, 9, 51, 0
5, 34294, Note_on_c, 9, 51, 39
5, 34313, Note_on_c, 9, 51, 0
5, 34320, Note_on_c, 9, 44, 0
5, 34325, Note_on_c, 9, 51, 55
5, 34336, Note_on_c, 9, 40, 1
5, 34345, Note_on_c, 9, 40, 0
5, 34369, Note_on_c, 9, 40, 11
5, 34381, Note_on_c, 9, 40, 0
5, 34400, Note_on_c, 9, 51, 0
5, 34400, Note_on_c, 9, 40, 48
5, 34420, Note_on_c, 9, 40, 0
5, 34439, Note_on_c, 9, 51, 88
5, 34440, Note_on_c, 9, 44, 60
5, 34447, Note_on_c, 9, 40, 22
5, 34449, Note_on_c, 9, 40, 1
5, 34456, Note_on_c, 9, 40, 0
5, 34460, Note_on_c, 9, 40, 0
5, 34521, Note_on_c, 9, 35, 40
5, 34526, Note_on_c, 9, 51, 0
5, 34541, Note_on_c, 9, 35, 0
5, 34560, Note_on_c, 9, 44, 0
5, 34561, Note_on_c, 9, 51, 39
5, 34563, Note_on_c, 9, 35, 21
5, 34590, Note_on_c, 9, 35, 0
5, 34627, Note_on_c, 9, 51, 0
5, 34680, Note_on_c, 9, 44, 55
5, 34680, Note_on_c, 9, 51, 96
5, 34775, Note_on_c, 9, 51, 0
5, 34798, Note_on_c, 9, 51, 27
5, 34800, Note_on_c, 9, 44, 0
5, 34869, Note_on_c, 9, 51, 0
5, 34879, Note_on_c, 9, 40, 45
5, 34886, Note_on_c, 9, 40, 0
5, 34908, Note_on_c, 9, 35, 22
5, 34920, Note_on_c, 9, 44, 58
5, 34921, Note_on_c, 9, 51, 84
5, 34923, Note_on_c, 9, 35, 0
5, 34988, Note_on_c, 9, 51, 0
5, 35010, Note_on_c, 9, 51, 30
5, 35034, Note_on_c, 9, 51, 0
5, 35040, Note_on_c, 9, 44, 0
5, 35042, Note_on_c, 9, 40, 7
5, 35046, Note_on_c, 9, 51, 55
5, 35056, Note_on_c, 9, 40, 0
5, 35078, Note_on_c, 9, 40, 1
5, 35102, Note_on_c, 9, 40, 0
5, 35114, Note_on_c, 9, 40, 13
5, 35127, Note_on_c, 9, 51, 0
5, 35134, Note_on_c, 9, 40, 0
5, 35145, Note_on_c, 9, 40, 38
5, 35160, Note_on_c, 9, 44, 55
5, 35163, Note_on_c, 9, 51, 81
5, 35169, Note_on_c, 9, 40, 0
5, 35182, Note_on_c, 9, 40, 1
5, 35191, Note_on_c, 9, 40, 0
5, 35216, Note_on_c, 9, 40, 1
5, 35224, Note_on_c, 9, 40, 0
5, 35235, Note_on_c, 9, 51, 0
5, 35253, Note_on_c, 9, 51, 33
5, 35265, Note_on_c, 9, 51, 0
5, 35280, Note_on_c, 9, 44, 0
5, 35285, Note_on_c, 9, 40, 8
5, 35285, Note_on_c, 9, 51, 57
5, 35298, Note_on_c, 9, 40, 0
5, 35316, Note_on_c, 9, 40, 44
5, 35333, Note_on_c, 9, 40, 0
5, 35353, Note_on_c, 9, 35, 52
5, 35365, Note_on_c, 9, 51, 0
5, 35386, Note_on_c, 9, 35, 0
5, 35400, Note_on_c, 9, 46, 47
5, 35406, Note_on_c, 9, 51, 78
5, 35446, Note_on_c, 9, 40, 29
5, 35456, Note_on_c, 9, 40, 0
5, 35473, Note_on_c, 9, 51, 0
5, 35486, Note_on_c, 9, 40, 18
5, 35493, Note_on_c, 9, 51, 31
5, 35497, Note_on_c, 9, 40, 0
5, 35514, Note_on_c, 9, 51, 0
5, 35520, Note_on_c, 9, 46, 0
5, 35527, Note_on_c, 9, 51, 57
5, 35598, Note_on_c, 9, 51, 0
5, 35640, Note_on_c, 9, 44, 54
5, 35646, Note_on_c, 9, 51, 82
5, 35727, Note_on_c, 9, 51, 0
5, 35760, Note_on_c, 9, 44, 0
5, 35765, Note_on_c, 9, 51, 78
5, 35842, Note_on_c, 9, 51, 0
5, 35880, Note_on_c, 9, 44, 55
5, 35882, Note_on_c, 9, 51, 75
5, 35949, Note_on_c, 9, 51, 0
5, 35967, Note_on_c, 9, 51, 43
5, 35989, Note_on_c, 9, 51, 0
5, 36000, Note_on_c, 9, 44, 0
5, 36000, Note_on_c, 9, 51, 63
5, 36075, Note_on_c, 9, 40, 25
5, 36084, Note_on_c, 9, 51, 0
5, 36085, Note_on_c, 9, 40, 0
5, 36118, Note_on_c, 9, 51, 72
5, 36120, Note_on_c, 9, 46, 51
5, 36167, Note_on_c, 9, 40, 26
5, 36178, Note_on_c, 9, 40, 0
5, 36190, Note_on_c, 9, 51, 0
5, 36201, Note_on_c, 9, 40, 28
5, 36208, Note_on_c, 9, 51, 39
5, 36216, Note_on_c, 9, 40, 0
5, 36226, Note_on_c, 9, 51, 0
5, 36240, Note_on_c, 9, 46, 0
5, 36241, Note_on_c, 9, 51, 69
5, 36289, Note_on_c, 9, 40, 16
5, 36303, Note_on_c, 9, 40, 0
5, 36315, Note_on_c, 9, 51, 0
5, 36325, Note_on_c, 9, 40, 10
5, 36334, Note_on_c, 9, 40, 0
5, 36355, Note_on_c, 9, 51, 76
5, 36360, Note_on_c, 9, 46, 44
5, 36405, Note_on_c, 9, 40, 22
5, 36418, Note_on_c, 9, 40, 0
5, 36441, Note_on_c, 9, 51, 0
5, 36442, Note_on_c, 9, 40, 26
5, 36457, Note_on_c, 9, 40, 0
5, 36480, Note_on_c, 9, 46, 0
5, 36480, Note_on_c, 9, 51, 60
5, 36549, Note_on_c, 9, 51, 0
5, 36599, Note_on_c, 9, 51, 78
5, 36600, Note_on_c, 9, 44, 54
5, 36665, Note_on_c, 9, 51, 0
5, 36688, Note_on_c, 9, 35, 35
5, 36693, Note_on_c, 9, 51, 22
5, 36704, Note_on_c, 9, 35, 0
5, 36709, Note_on_c, 9, 51, 0
5, 36720, Note_on_c, 9, 44, 0
5, 36725, Note_on_c, 9, 51, 55
5, 36730, Note_on_c, 9, 35, 17
5, 36783, Note_on_c, 9, 35, 0
5, 36802, Note_on_c, 9, 35, 23
5, 36805, Note_on_c, 9, 51, 0
5, 36815, Note_on_c, 9, 35, 0
5, 36840, Note_on_c, 9, 44, 56
5, 36843, Note_on_c, 9, 51, 79
5, 36903, Note_on_c, 9, 51, 0
5, 36930, Note_on_c, 9, 51, 22
5, 36952, Note_on_c, 9, 51, 0
5, 36960, Note_on_c, 9, 44, 0
5, 36963, Note_on_c, 9, 51, 46
5, 37029, Note_on_c, 9, 51, 0
5, 37079, Note_on_c, 9, 51, 78
5, 37080, Note_on_c, 9, 44, 57
5, 37165, Note_on_c, 9, 51, 0
5, 37200, Note_on_c, 9, 44, 0
5, 37206, Note_on_c, 9, 51, 67
5, 37247, Note_on_c, 9, 40, 24
5, 37258, Note_on_c, 9, 40, 0
5, 37273, Note_on_c, 9, 51, 0
5, 37284, Note_on_c, 9, 40, 18
5, 37294, Note_on_c, 9, 40, 0
5, 37320, Note_on_c, 9, 44, 33
5, 37320, Note_on_c, 9, 44, 46
5, 37328, Note_on_c, 9, 51, 78
5, 37368, Note_on_c, 9, 40, 30
5, 37380, Note_on_c, 9, 40, 0
5, 37387, Note_on_c, 9, 51, 0
5, 37400, Note_on_c, 9, 40, 33
5, 37409, Note_on_c, 9, 40, 0
5, 37416, Note_on_c, 9, 51, 22
5, 37428, Note_on_c, 9, 51, 0
5, 37440, Note_on_c, 9, 44, 0
5, 37440, Note_on_c, 9, 44, 0
5, 37446, Note_on_c, 9, 51, 58
5, 37511, Note_on_c, 9, 51, 0
5, 37536, Note_on_c, 9, 35, 10
5, 37543, Note_on_c, 9, 35, 0
5, 37560, Note_on_c, 9, 44, 56
5, 37568, Note_on_c, 9, 51, 64
5, 37607, Note_on_c, 9, 51, 0
5, 37656, Note_on_c, 9, 51, 4
5, 37667, Note_on_c, 9, 51, 0
5, 37680, Note_on_c, 9, 44, 0
5, 37683, Note_on_c, 9, 51, 60
5, 37714, Note_on_c, 9, 51, 0
5, 37770, Note_on_c, 9, 35, 36
5, 37779, Note_on_c, 9, 35, 0
5, 37800, Note_on_c, 9, 44, 58
5, 37806, Note_on_c, 9, 51, 85
5, 37850, Note_on_c, 9, 51, 0
5, 37895, Note_on_c, 9, 51, 43
5, 37908, Note_on_c, 9, 51, 0
5, 37920, Note_on_c, 9, 44, 0
5, 37932, Note_on_c, 9, 51, 37
5, 37951, Note_on_c, 9, 51, 0
5, 38015, Note_on_c, 9, 51, 60
5, 38026, Note_on_c, 9, 51, 0
5, 38040, Note_on_c, 9, 44, 79
5, 38044, Note_on_c, 9, 51, 64
5, 38118, Note_on_c, 9, 51, 0
5, 38129, Note_on_c, 9, 40, 46
5, 38146, Note_on_c, 9, 40, 0
5, 38160, Note_on_c, 9, 44, 0
5, 38169, Note_on_c, 9, 51, 45
5, 38171, Note_on_c, 9, 40, 34
5, 38184, Note_on_c, 9, 40, 0
5, 38189, Note_on_c, 9, 51, 0
5, 38250, Note_on_c, 9, 51, 49
5, 38260, Note_on_c, 9, 51, 0
5, 38280, Note_on_c, 9, 44, 60
5, 38286, Note_on_c, 9, 51, 84
5, 38369, Note_on_c, 9, 51, 0
5, 38369, Note_on_c, 9, 40, 61
5, 38390, Note_on_c, 9, 40, 0
5, 38400, Note_on_c, 9, 44, 0
5, 38401, Note_on_c, 9, 51, 18
5, 38406, Note_on_c, 9, 57, 51
5, 38407, Note_on_c, 9, 35, 45
5, 38423, Note_on_c, 9, 51, 0
5, 38426, Note_on_c, 9, 57, 0
5, 38440, Note_on_c, 9, 35, 0
5, 38490, Note_on_c, 9, 51, 61
5, 38504, Note_on_c, 9, 51, 0
5, 38520, Note_on_c, 9, 44, 78
5, 38526, Note_on_c, 9, 51, 82
5, 38618, Note_on_c, 9, 51, 0
5, 38640, Note_on_c, 9, 44, 0
5, 38646, Note_on_c, 9, 51, 16
5, 38677, Note_on_c, 9, 51, 0
5, 38729, Note_on_c, 9, 51, 63
5, 38742, Note_on_c, 9, 51, 0
5, 38760, Note_on_c, 9, 44, 35
5, 38766, Note_on_c, 9, 51, 88
5, 38807, Note_on_c, 9, 40, 54
5, 38822, Note_on_c, 9, 40, 0
5, 38841, Note_on_c, 9, 40, 53
5, 38858, Note_on_c, 9, 51, 0
5, 38866, Note_on_c, 9, 40, 0
5, 38880, Note_on_c, 9, 44, 0
5, 38881, Note_on_c, 9, 35, 50
5, 38883, Note_on_c, 9, 57, 39
5, 38885, Note_on_c, 9, 51, 43
5, 38894, Note_on_c, 9, 57, 0
5, 38902, Note_on_c, 9, 35, 0
5, 38947, Note_on_c, 9, 51, 0
5, 38973, Note_on_c, 9, 51, 30
5, 38992, Note_on_c, 9, 51, 0
5, 39000, Note_on_c, 9, 44, 60
5, 39009, Note_on_c, 9, 51, 81
5, 39098, Note_on_c, 9, 51, 0
5, 39120, Note_on_c, 9, 44, 0
5, 39125, Note_on_c, 9, 51, 57
5, 39193, Note_on_c, 9, 51, 0
5, 39216, Note_on_c, 9, 51, 28
5, 39236, Note_on_c, 9, 51, 0
5, 39237, Note_on_c, 9, 35, 22
5, 39240, Note_on_c, 9, 44, 68
5, 39250, Note_on_c, 9, 51, 69
5, 39295, Note_on_c, 9, 35, 0
5, 39318, Note_on_c, 9, 35, 28
5, 39330, Note_on_c, 9, 51, 0
5, 39341, Note_on_c, 9, 35, 0
5, 39359, Note_on_c, 9, 35, 37
5, 39360, Note_on_c, 9, 44, 0
5, 39364, Note_on_c, 9, 51, 75
5, 39415, Note_on_c, 9, 35, 0
5, 39444, Note_on_c, 9, 51, 0
5, 39480, Note_on_c, 9, 44, 68
5, 39482, Note_on_c, 9, 51, 72
5, 39575, Note_on_c, 9, 51, 0
5, 39600, Note_on_c, 9, 44, 0
5, 39605, Note_on_c, 9, 51, 58
5, 39674, Note_on_c, 9, 51, 0
5, 39688, Note_on_c, 9, 53, 48
5, 39720, Note_on_c, 9, 44, 63
5, 39722, Note_on_c, 9, 53, 0
5, 39729, Note_on_c, 9, 51, 33
5, 39803, Note_on_c, 9, 35, 30
5, 39813, Note_on_c, 9, 35, 0
5, 39822, Note_on_c, 9, 51, 0
5, 39837, Note_on_c, 9, 35, 33
5, 39840, Note_on_c, 9, 44, 0
5, 39844, Note_on_c, 9, 51, 55
5, 39860, Note_on_c, 9, 35, 0
5, 39930, Note_on_c, 9, 51, 0
5, 39960, Note_on_c, 9, 44, 63
5, 39962, Note_on_c, 9, 51, 60
5, 40066, Note_on_c, 9, 51, 0
5, 40080, Note_on_c, 9, 44, 0
5, 40087, Note_on_c, 9, 51, 43
5, 40104, Note_on_c, 9, 51, 0
5, 40122, Note_on_c, 9, 51, 76
5, 40192, Note_on_c, 9, 51, 0
5, 40200, Note_on_c, 9, 44, 72
5, 40211, Note_on_c, 9, 51, 69
5, 40247, Note_on_c, 9, 45, 31
5, 40259, Note_on_c, 9, 45, 0
5, 40294, Note_on_c, 9, 51, 0
5, 40294, Note_on_c, 9, 35, 51
5, 40311, Note_on_c, 9, 35, 0
5, 40320, Note_on_c, 9, 44, 0
5, 40325, Note_on_c, 9, 51, 66
5, 40328, Note_on_c, 9, 35, 56
5, 40393, Note_on_c, 9, 35, 0
5, 40421, Note_on_c, 9, 51, 0
5, 40440, Note_on_c, 9, 44, 69
5, 40447, Note_on_c, 9, 51, 43
5, 40489, Note_on_c, 9, 51, 0
5, 40530, Note_on_c, 9, 51, 28
5, 40548, Note_on_c, 9, 51, 0
5, 40560, Note_on_c, 9, 44, 0
5, 40565, Note_on_c, 9, 51, 78
5, 40660, Note_on_c, 9, 51, 0
5, 40680, Note_on_c, 9, 46, 56
5, 40691, Note_on_c, 9, 51, 64
5, 40764, Note_on_c, 9, 51, 0
5, 40765, Note_on_c, 9, 35, 65
5, 40782, Note_on_c, 9, 51, 46
5, 40790, Note_on_c, 9, 35, 0
5, 40798, Note_on_c, 9, 51, 0
5, 40800, Note_on_c, 9, 46, 0
5, 40804, Note_on_c, 9, 35, 48
5, 40814, Note_on_c, 9, 51, 70
5, 40866, Note_on_c, 9, 35, 0
5, 40887, Note_on_c, 9, 51, 0
5, 40920, Note_on_c, 9, 44, 60
5, 40928, Note_on_c, 9, 51, 82
5, 40988, Note_on_c, 9, 51, 0
5, 41017, Note_on_c, 9, 51, 34
5, 41035, Note_on_c, 9, 51, 0
5, 41040, Note_on_c, 9, 44, 0
5, 41047, Note_on_c, 9, 51, 40
5, 41129, Note_on_c, 9, 51, 0
5, 41160, Note_on_c, 9, 44, 70
5, 41166, Note_on_c, 9, 51, 78
5, 41224, Note_on_c, 9, 51, 0
5, 41240, Note_on_c, 9, 35, 27
5, 41251, Note_on_c, 9, 35, 0
5, 41255, Note_on_c, 9, 51, 28
5, 41271, Note_on_c, 9, 51, 0
5, 41280, Note_on_c, 9, 44, 0
5, 41288, Note_on_c, 9, 51, 69
5, 41353, Note_on_c, 9, 51, 0
5, 41400, Note_on_c, 9, 44, 57
5, 41406, Note_on_c, 9, 51, 79
5, 41488, Note_on_c, 9, 51, 0
5, 41520, Note_on_c, 9, 44, 0
5, 41527, Note_on_c, 9, 51, 64
5, 41536, Note_on_c, 9, 40, 12
5, 41547, Note_on_c, 9, 40, 0
5, 41589, Note_on_c, 9, 51, 0
5, 41600, Note_on_c, 9, 40, 30
5, 41609, Note_on_c, 9, 40, 0
5, 41609, Note_on_c, 9, 51, 27
5, 41626, Note_on_c, 9, 51, 0
5, 41640, Note_on_c, 9, 44, 68
5, 41645, Note_on_c, 9, 51, 72
5, 41729, Note_on_c, 9, 51, 0
5, 41747, Note_on_c, 9, 35, 22
5, 41757, Note_on_c, 9, 35, 0
5, 41760, Note_on_c, 9, 44, 0
5, 41763, Note_on_c, 9, 51, 75
5, 41841, Note_on_c, 9, 51, 0
5, 41880, Note_on_c, 9, 44, 70
5, 41881, Note_on_c, 9, 51, 75
5, 41945, Note_on_c, 9, 51, 0
5, 41967, Note_on_c, 9, 35, 15
5, 41969, Note_on_c, 9, 51, 37
5, 41978, Note_on_c, 9, 35, 0
5, 41990, Note_on_c, 9, 51, 0
5, 42000, Note_on_c, 9, 44, 0
5, 42002, Note_on_c, 9, 51, 63
5, 42003, Note_on_c, 9, 40, 13
5, 42016, Note_on_c, 9, 40, 0
5, 42058, Note_on_c, 9, 40, 33
5, 42069, Note_on_c, 9, 40, 0
5, 42081, Note_on_c, 9, 51, 0
5, 42120, Note_on_c, 9, 44, 71
5, 42121, Note_on_c, 9, 40, 35
5, 42139, Note_on_c, 9, 40, 0
5, 42157, Note_on_c, 9, 40, 41
5, 42164, Note_on_c, 9, 40, 0
5, 42167, Note_on_c, 9, 51, 78
5, 42187, Note_on_c, 9, 51, 0
5, 42198, Note_on_c, 9, 35, 29
5, 42209, Note_on_c, 9, 51, 27
5, 42211, Note_on_c, 9, 35, 0
5, 42227, Note_on_c, 9, 51, 0
5, 42240, Note_on_c, 9, 44, 0
5, 42240, Note_on_c, 9, 51, 60
5, 42313, Note_on_c, 9, 51, 0
5, 42360, Note_on_c, 9, 44, 67
5, 42361, Note_on_c, 9, 51, 76
5, 42429, Note_on_c, 9, 51, 0
5, 42480, Note_on_c, 9, 44, 0
5, 42481, Note_on_c, 9, 51, 58
5, 42537, Note_on_c, 9, 51, 0
5, 42574, Note_on_c, 9, 51, 37
5, 42588, Note_on_c, 9, 51, 0
5, 42600, Note_on_c, 9, 44, 69
5, 42607, Note_on_c, 9, 51, 69
5, 42677, Note_on_c, 9, 51, 0
5, 42683, Note_on_c, 9, 35, 41
5, 42706, Note_on_c, 9, 35, 0
5, 42720, Note_on_c, 9, 44, 0
5, 42721, Note_on_c, 9, 51, 69
5, 42722, Note_on_c, 9, 35, 18
5, 42766, Note_on_c, 9, 35, 0
5, 42785, Note_on_c, 9, 51, 0
5, 42840, Note_on_c, 9, 44, 69
5, 42847, Note_on_c, 9, 51, 67
5, 42913, Note_on_c, 9, 51, 0
5, 42960, Note_on_c, 9, 44, 0
5, 42964, Note_on_c, 9, 51, 60
5, 43034, Note_on_c, 9, 51, 0
5, 43080, Note_on_c, 9, 44, 57
5, 43086, Note_on_c, 9, 51, 69
5, 43146, Note_on_c, 9, 51, 0
5, 43168, Note_on_c, 9, 53, 46
5, 43200, Note_on_c, 9, 44, 0
5, 43208, Note_on_c, 9, 53, 0
5, 43209, Note_on_c, 9, 51, 49
5, 43252, Note_on_c, 9, 40, 26
5, 43263, Note_on_c, 9, 40, 0
5, 43294, Note_on_c, 9, 51, 0
5, 43320, Note_on_c, 9, 44, 55
5, 43322, Note_on_c, 9, 51, 49
5, 43393, Note_on_c, 9, 51, 0
5, 43440, Note_on_c, 9, 44, 0
5, 43446, Note_on_c, 9, 51, 60
5, 43492, Note_on_c, 9, 51, 0
5, 43521, Note_on_c, 9, 35, 34
5, 43529, Note_on_c, 9, 51, 36
5, 43535, Note_on_c, 9, 35, 0
5, 43540, Note_on_c, 9, 51, 0
5, 43560, Note_on_c, 9, 35, 36
5, 43560, Note_on_c, 9, 44, 69
5, 43566, Note_on_c, 9, 51, 81
5, 43606, Note_on_c, 9, 35, 0
5, 43657, Note_on_c, 9, 51, 0
5, 43680, Note_on_c, 9, 44, 0
5, 43685, Note_on_c, 9, 51, 1
5, 43742, Note_on_c, 9, 51, 0
5, 43765, Note_on_c, 9, 35, 44
5, 43768, Note_on_c, 9, 51, 54
5, 43780, Note_on_c, 9, 35, 0
5, 43788, Note_on_c, 9, 51, 0
5, 43800, Note_on_c, 9, 44, 30
5, 43807, Note_on_c, 9, 51, 69
5, 43902, Note_on_c, 9, 51, 0
5, 43919, Note_on_c, 9, 35, 47
5, 43920, Note_on_c, 9, 44, 0
5, 43926, Note_on_c, 9, 51, 57
5, 43948, Note_on_c, 9, 35, 0
5, 43996, Note_on_c, 9, 51, 0
5, 44040, Note_on_c, 9, 44, 80
5, 44045, Note_on_c, 9, 51, 84
5, 44117, Note_on_c, 9, 51, 0
5, 44135, Note_on_c, 9, 51, 39
5, 44155, Note_on_c, 9, 51, 0
5, 44160, Note_on_c, 9, 44, 0
5, 44172, Note_on_c, 9, 51, 75
5, 44244, Note_on_c, 9, 40, 27
5, 44256, Note_on_c, 9, 40, 0
5, 44258, Note_on_c, 9, 51, 0
5, 44280, Note_on_c, 9, 44, 23
5, 44286, Note_on_c, 9, 51, 64
5, 44297, Note_on_c, 9, 40, 8
5, 44304, Note_on_c, 9, 40, 0
5, 44359, Note_on_c, 9, 35, 49
5, 44369, Note_on_c, 9, 51, 0
5, 44378, Note_on_c, 9, 35, 0
5, 44400, Note_on_c, 9, 44, 0
5, 44402, Note_on_c, 9, 51, 60
5, 44461, Note_on_c, 9, 51, 0
5, 44475, Note_on_c, 9, 40, 36
5, 44489, Note_on_c, 9, 51, 25
5, 44495, Note_on_c, 9, 40, 0
5, 44505, Note_on_c, 9, 51, 0
5, 44515, Note_on_c, 9, 40, 23
5, 44520, Note_on_c, 9, 44, 73
5, 44523, Note_on_c, 9, 51, 78
5, 44527, Note_on_c, 9, 40, 0
5, 44597, Note_on_c, 9, 35, 43
5, 44617, Note_on_c, 9, 35, 0
5, 44620, Note_on_c, 9, 51, 0
5, 44640, Note_on_c, 9, 44, 0
5, 44640, Note_on_c, 9, 51, 49
5, 44642, Note_on_c, 9, 35, 28
5, 44667, Note_on_c, 9, 35, 0
5, 44726, Note_on_c, 9, 51, 0
5, 44760, Note_on_c, 9, 44, 42
5, 44765, Note_on_c, 9, 51, 73
5, 44825, Note_on_c, 9, 51, 0
5, 44880, Note_on_c, 9, 44, 0
5, 44887, Note_on_c, 9, 51, 36
5, 44890, Note_on_c, 9, 40, 39
5, 44903, Note_on_c, 9, 40, 0
5, 44927, Note_on_c, 9, 40, 16
5, 44942, Note_on_c, 9, 40, 0
5, 44960, Note_on_c, 9, 51, 0
5, 44968, Note_on_c, 9, 35, 44
5, 44991, Note_on_c, 9, 35, 0
5, 45000, Note_on_c, 9, 46, 66
5, 45003, Note_on_c, 9, 51, 75
5, 45057, Note_on_c, 9, 40, 21
5, 45066, Note_on_c, 9, 40, 0
5, 45096, Note_on_c, 9, 51, 0
5, 45120, Note_on_c, 9, 46, 0
5, 45125, Note_on_c, 9, 51, 28
5, 45198, Note_on_c, 9, 51, 0
5, 45203, Note_on_c, 9, 40, 52
5, 45218, Note_on_c, 9, 40, 0
5, 45240, Note_on_c, 9, 46, 69
5, 45252, Note_on_c, 9, 51, 91
5, 45325, Note_on_c, 9, 40, 66
5, 45341, Note_on_c, 9, 51, 0
5, 45345, Note_on_c, 9, 40, 0
5, 45360, Note_on_c, 9, 46, 0
5, 45365, Note_on_c, 9, 51, 22
5, 45401, Note_on_c, 9, 51, 0
5, 45444, Note_on_c, 9, 40, 62
5, 45449, Note_on_c, 9, 51, 66
5, 45469, Note_on_c, 9, 51, 0
5, 45469, Note_on_c, 9, 40, 0
5, 45480, Note_on_c, 9, 46, 70
5, 45490, Note_on_c, 9, 51, 84
5, 45558, Note_on_c, 9, 40, 46
5, 45580, Note_on_c, 9, 40, 0
5, 45585, Note_on_c, 9, 51, 0
5, 45600, Note_on_c, 9, 46, 0
5, 45608, Note_on_c, 9, 51, 42
5, 45679, Note_on_c, 9, 51, 0
5, 45680, Note_on_c, 9, 40, 73
5, 45703, Note_on_c, 9, 40, 0
5, 45720, Note_on_c, 9, 46, 78
5, 45721, Note_on_c, 9, 51, 81
5, 45798, Note_on_c, 9, 40, 74
5, 45827, Note_on_c, 9, 51, 0
5, 45829, Note_on_c, 9, 40, 0
5, 45840, Note_on_c, 9, 46, 0
5, 45844, Note_on_c, 9, 51, 6
5, 45920, Note_on_c, 9, 40, 75
5, 45943, Note_on_c, 9, 51, 0
5, 45946, Note_on_c, 9, 40, 0
5, 45960, Note_on_c, 9, 46, 77
5, 45969, Note_on_c, 9, 51, 81
5, 46054, Note_on_c, 9, 51, 0
5, 46055, Note_on_c, 9, 59, 37
5, 46069, Note_on_c, 9, 59, 0
5, 46080, Note_on_c, 9, 46, 0
5, 46084, Note_on_c, 9, 35, 66
5, 46084, Note_on_c, 9, 57, 75
5, 46087, Note_on_c, 9, 40, 66
5, 46088, Note_on_c, 9, 59, 56
5, 46116, Note_on_c, 9, 40, 0
5, 46177, Note_on_c, 9, 59, 0
5, 46200, Note_on_c, 9, 44, 57
5, 46206, Note_on_c, 9, 59, 58
5, 46298, Note_on_c, 9, 59, 0
5, 46320, Note_on_c, 9, 44, 0
5, 46322, Note_on_c, 9, 59, 48
5, 46357, Note_on_c, 9, 35, 0
5, 46364, Note_on_c, 9, 57, 0
5, 46365, Note_on_c, 9, 40, 46
5, 46372, Note_on_c, 9, 40, 0
5, 46400, Note_on_c, 9, 40, 55
5, 46405, Note_on_c, 9, 59, 0
5, 46422, Note_on_c, 9, 40, 0
5, 46440, Note_on_c, 9, 40, 52
5, 46440, Note_on_c, 9, 44, 53
5, 46441, Note_on_c, 9, 59, 63
5, 46445, Note_on_c, 9, 57, 75
5, 46461, Note_on_c, 9, 35, 37
5, 46473, Note_on_c, 9, 57, 0
5, 46493, Note_on_c, 9, 35, 0
5, 46514, Note_on_c, 9, 59, 0
5, 46535, Note_on_c, 9, 59, 34
5, 46557, Note_on_c, 9, 59, 0
5, 46560, Note_on_c, 9, 44, 0
5, 46567, Note_on_c, 9, 59, 46
5, 46579, Note_on_c, 9, 40, 0
5, 46639, Note_on_c, 9, 59, 0
5, 46680, Note_on_c, 9, 44, 65
5, 46680, Note_on_c, 9, 59, 65
5, 46749, Note_on_c, 9, 59, 0
5, 46766, Note_on_c, 9, 35, 8
5, 46773, Note_on_c, 9, 35, 0
5, 46773, Note_on_c, 9, 59, 40
5, 46797, Note_on_c, 9, 59, 0
5, 46800, Note_on_c, 9, 44, 0
5, 46809, Note_on_c, 9, 59, 52
5, 46886, Note_on_c, 9, 59, 0
5, 46920, Note_on_c, 9, 46, 48
5, 46923, Note_on_c, 9, 59, 72
5, 47012, Note_on_c, 9, 35, 18
5, 47015, Note_on_c, 9, 59, 0
5, 47025, Note_on_c, 9, 35, 0
5, 47040, Note_on_c, 9, 46, 0
5, 47041, Note_on_c, 9, 59, 35
5, 47045, Note_on_c, 9, 35, 24
5, 47093, Note_on_c, 9, 35, 0
5, 47124, Note_on_c, 9, 59, 0
5, 47160, Note_on_c, 9, 44, 53
5, 47165, Note_on_c, 9, 59, 61
5, 47232, Note_on_c, 9, 59, 0
5, 47248, Note_on_c, 9, 35, 15
5, 47255, Note_on_c, 9, 59, 30
5, 47257, Note_on_c, 9, 35, 0
5, 47273, Note_on_c, 9, 59, 0
5, 47280, Note_on_c, 9, 44, 0
5, 47288, Note_on_c, 9, 59, 46
5, 47371, Note_on_c, 9, 59, 0
5, 47400, Note_on_c, 9, 44, 65
5, 47405, Note_on_c, 9, 59, 54
5, 47479, Note_on_c, 9, 59, 0
5, 47520, Note_on_c, 9, 44, 0
5, 47523, Note_on_c, 9, 59, 56
5, 47607, Note_on_c, 9, 59, 0
5, 47640, Note_on_c, 9, 44, 64
5, 47647, Note_on_c, 9, 59, 54
5, 47730, Note_on_c, 9, 59, 0
5, 47760, Note_on_c, 9, 44, 0
5, 47767, Note_on_c, 9, 59, 54
5, 47824, Note_on_c, 9, 59, 0
5, 47856, Note_on_c, 9, 59, 41
5, 47869, Note_on_c, 9, 59, 0
5, 47880, Note_on_c, 9, 44, 62
5, 47885, Note_on_c, 9, 59, 58
5, 47965, Note_on_c, 9, 35, 36
5, 47980, Note_on_c, 9, 59, 0
5, 47982, Note_on_c, 9, 35, 0
5, 48000, Note_on_c, 9, 44, 0
5, 48000, Note_on_c, 9, 35, 34
5, 48004, Note_on_c, 9, 59, 53
5, 48026, Note_on_c, 9, 35, 0
5, 48069, Note_on_c, 9, 59, 0
5, 48093, Note_on_c, 9, 59, 41
5, 48113, Note_on_c, 9, 59, 0
5, 48120, Note_on_c, 9, 44, 61
5, 48127, Note_on_c, 9, 59, 61
5, 48225, Note_on_c, 9, 59, 0
5, 48240, Note_on_c, 9, 44, 0
5, 48245, Note_on_c, 9, 59, 48
5, 48308, Note_on_c, 9, 59, 0
5, 48335, Note_on_c, 9, 59, 44
5, 48348, Note_on_c, 9, 40, 12
5, 48354, Note_on_c, 9, 59, 0
5, 48358, Note_on_c, 9, 40, 0
5, 48360, Note_on_c, 9, 44, 64
5, 48365, Note_on_c, 9, 59, 53
5, 48397, Note_on_c, 9, 40, 26
5, 48406, Note_on_c, 9, 40, 0
5, 48467, Note_on_c, 9, 59, 0
5, 48480, Note_on_c, 9, 44, 0
5, 48484, Note_on_c, 9, 59, 54
5, 48556, Note_on_c, 9, 35, 36
5, 48567, Note_on_c, 9, 35, 0
5, 48572, Note_on_c, 9, 59, 0
5, 48594, Note_on_c, 9, 35, 33
5, 48600, Note_on_c, 9, 44, 63
5, 48604, Note_on_c, 9, 59, 53
5, 48622, Note_on_c, 9, 35, 0
5, 48661, Note_on_c, 9, 59, 0
5, 48691, Note_on_c, 9, 59, 35
5, 48711, Note_on_c, 9, 59, 0
5, 48720, Note_on_c, 9, 44, 0
5, 48722, Note_on_c, 9, 59, 50
5, 48809, Note_on_c, 9, 59, 0
5, 48838, Note_on_c, 9, 59, 58
5, 48840, Note_on_c, 9, 44, 63
5, 48928, Note_on_c, 9, 59, 0
5, 48958, Note_on_c, 9, 59, 53
5, 48960, Note_on_c, 9, 44, 0
5, 49036, Note_on_c, 9, 59, 0
5, 49080, Note_on_c, 9, 44, 64
5, 49082, Note_on_c, 9, 59, 60
5, 49139, Note_on_c, 9, 59, 0
5, 49168, Note_on_c, 9, 59, 40
5, 49189, Note_on_c, 9, 59, 0
5, 49200, Note_on_c, 9, 44, 0
5, 49203, Note_on_c, 9, 59, 43
5, 49263, Note_on_c, 9, 40, 13
5, 49275, Note_on_c, 9, 40, 0
5, 49275, Note_on_c, 9, 59, 0
5, 49296, Note_on_c, 9, 40, 19
5, 49311, Note_on_c, 9, 40, 0
5, 49318, Note_on_c, 9, 59, 60
5, 49320, Note_on_c, 9, 44, 63
5, 49325, Note_on_c, 9, 40, 23
5, 49335, Note_on_c, 9, 40, 0
5, 49383, Note_on_c, 9, 59, 0
5, 49383, Note_on_c, 9, 35, 28
5, 49395, Note_on_c, 9, 35, 0
5, 49440, Note_on_c, 9, 44, 0
5, 49442, Note_on_c, 9, 59, 59
5, 49449, Note_on_c, 9, 35, 38
5, 49481, Note_on_c, 9, 35, 0
5, 49507, Note_on_c, 9, 59, 0
5, 49560, Note_on_c, 9, 44, 62
5, 49567, Note_on_c, 9, 59, 63
5, 49623, Note_on_c, 9, 59, 0
5, 49654, Note_on_c, 9, 59, 40
5, 49669, Note_on_c, 9, 59, 0
5, 49676, Note_on_c, 9, 40, 21
5, 49680, Note_on_c, 9, 44, 0
5, 49685, Note_on_c, 9, 59, 54
5, 49693, Note_on_c, 9, 40, 0
5, 49762, Note_on_c, 9, 59, 0
5, 49797, Note_on_c, 9, 40, 22
5, 49800, Note_on_c, 9, 46, 49
5, 49801, Note_on_c, 9, 59, 63
5, 49815, Note_on_c, 9, 40, 0
5, 49878, Note_on_c, 9, 59, 0
5, 49920, Note_on_c, 9, 46, 0
5, 49920, Note_on_c, 9, 40, 28
5, 49922, Note_on_c, 9, 59, 61
5, 49930, Note_on_c, 9, 40, 0
5, 49985, Note_on_c, 9, 59, 0
5, 50040, Note_on_c, 9, 44, 57
5, 50042, Note_on_c, 9, 59, 60
5, 50105, Note_on_c, 9, 59, 0
5, 50114, Note_on_c, 9, 40, 27
5, 50126, Note_on_c, 9, 40, 0
5, 50160, Note_on_c, 9, 44, 0
5, 50163, Note_on_c, 9, 59, 60
5, 50225, Note_on_c, 9, 59, 0
5, 50240, Note_on_c, 9, 40, 27
5, 50250, Note_on_c, 9, 40, 0
5, 50280, Note_on_c, 9, 44, 63
5, 50283, Note_on_c, 9, 59, 61
5, 50335, Note_on_c, 9, 59, 0
5, 50400, Note_on_c, 9, 44, 0
5, 50402, Note_on_c, 9, 59, 61
5, 50460, Note_on_c, 9, 59, 0
5, 50520, Note_on_c, 9, 44, 63
5, 50521, Note_on_c, 9, 59, 56
5, 50563, Note_on_c, 9, 59, 0
5, 50601, Note_on_c, 9, 40, 35
5, 50605, Note_on_c, 9, 59, 43
5, 50610, Note_on_c, 9, 40, 0
5, 50629, Note_on_c, 9, 59, 0
5, 50638, Note_on_c, 9, 59, 43
5, 50640, Note_on_c, 9, 44, 0
5, 50650, Note_on_c, 9, 40, 10
5, 50671, Note_on_c, 9, 40, 0
5, 50718, Note_on_c, 9, 59, 0
5, 50759, Note_on_c, 9, 59, 63
5, 50760, Note_on_c, 9, 44, 64
5, 50824, Note_on_c, 9, 59, 0
5, 50841, Note_on_c, 9, 35, 26
5, 50844, Note_on_c, 9, 59, 37
5, 50852, Note_on_c, 9, 35, 0
5, 50869, Note_on_c, 9, 59, 0
5, 50879, Note_on_c, 9, 59, 46
5, 50880, Note_on_c, 9, 44, 0
5, 50961, Note_on_c, 9, 59, 0
5, 50999, Note_on_c, 9, 59, 59
5, 51000, Note_on_c, 9, 44, 62
5, 51084, Note_on_c, 9, 59, 0
5, 51118, Note_on_c, 9, 59, 50
5, 51120, Note_on_c, 9, 44, 0
5, 51184, Note_on_c, 9, 59, 0
5, 51201, Note_on_c, 9, 40, 30
5, 51206, Note_on_c, 9, 59, 36
5, 51217, Note_on_c, 9, 40, 0
5, 51231, Note_on_c, 9, 59, 0
5, 51240, Note_on_c, 9, 44, 63
5, 51241, Note_on_c, 9, 57, 34
5, 51244, Note_on_c, 9, 35, 27
5, 51246, Note_on_c, 9, 59, 70
5, 51252, Note_on_c, 9, 57, 0
5, 51268, Note_on_c, 9, 35, 0
5, 51338, Note_on_c, 9, 59, 0
5, 51360, Note_on_c, 9, 44, 0
5, 51364, Note_on_c, 9, 59, 40
5, 51433, Note_on_c, 9, 59, 0
5, 51452, Note_on_c, 9, 59, 35
5, 51464, Note_on_c, 9, 59, 0
5, 51480, Note_on_c, 9, 44, 67
5, 51489, Note_on_c, 9, 59, 58
5, 51577, Note_on_c, 9, 59, 0
5, 51600, Note_on_c, 9, 44, 0
5, 51602, Note_on_c, 9, 40, 34
5, 51602, Note_on_c, 9, 59, 47
5, 51610, Note_on_c, 9, 40, 0
5, 51640, Note_on_c, 9, 40, 33
5, 51651, Note_on_c, 9, 40, 0
5, 51683, Note_on_c, 9, 59, 0
5, 51720, Note_on_c, 9, 46, 56
5, 51726, Note_on_c, 9, 59, 63
5, 51769, Note_on_c, 9, 40, 44
5, 51780, Note_on_c, 9, 40, 0
5, 51803, Note_on_c, 9, 40, 36
5, 51808, Note_on_c, 9, 59, 0
5, 51822, Note_on_c, 9, 59, 14
5, 51824, Note_on_c, 9, 40, 0
5, 51835, Note_on_c, 9, 59, 0
5, 51840, Note_on_c, 9, 46, 0
5, 51853, Note_on_c, 9, 59, 51
5, 51927, Note_on_c, 9, 59, 0
5, 51960, Note_on_c, 9, 44, 60
5, 51965, Note_on_c, 9, 59, 58
5, 51966, Note_on_c, 9, 40, 25
5, 51976, Note_on_c, 9, 40, 0
5, 52006, Note_on_c, 9, 40, 37
5, 52025, Note_on_c, 9, 40, 0
5, 52057, Note_on_c, 9, 59, 0
5, 52080, Note_on_c, 9, 44, 0
5, 52083, Note_on_c, 9, 59, 46
5, 52108, Note_on_c, 9, 40, 25
5, 52130, Note_on_c, 9, 40, 0
5, 52148, Note_on_c, 9, 40, 23
5, 52150, Note_on_c, 9, 59, 0
5, 52159, Note_on_c, 9, 40, 0
5, 52171, Note_on_c, 9, 59, 36
5, 52182, Note_on_c, 9, 59, 0
5, 52186, Note_on_c, 9, 35, 31
5, 52200, Note_on_c, 9, 44, 63
5, 52206, Note_on_c, 9, 59, 50
5, 52218, Note_on_c, 9, 35, 0
5, 52280, Note_on_c, 9, 35, 57
5, 52281, Note_on_c, 9, 59, 0
5, 52310, Note_on_c, 9, 35, 0
5, 52320, Note_on_c, 9, 44, 0
5, 52320, Note_on_c, 9, 59, 56
5, 52324, Note_on_c, 9, 35, 57
5, 52364, Note_on_c, 9, 35, 0
5, 52371, Note_on_c, 9, 59, 0
5, 52440, Note_on_c, 9, 44, 64
5, 52443, Note_on_c, 9, 59, 68
5, 52518, Note_on_c, 9, 59, 0
5, 52560, Note_on_c, 9, 44, 0
5, 52573, Note_on_c, 9, 59, 39
5, 52597, Note_on_c, 9, 59, 0
5, 52637, Note_on_c, 9, 40, 42
5, 52649, Note_on_c, 9, 40, 0
5, 52650, Note_on_c, 9, 59, 31
5, 52666, Note_on_c, 9, 59, 0
5, 52680, Note_on_c, 9, 44, 65
5, 52681, Note_on_c, 9, 35, 13
5, 52687, Note_on_c, 9, 59, 60
5, 52698, Note_on_c, 9, 35, 0
5, 52744, Note_on_c, 9, 59, 0
5, 52762, Note_on_c, 9, 35, 29
5, 52781, Note_on_c, 9, 35, 0
5, 52800, Note_on_c, 9, 44, 0
5, 52808, Note_on_c, 9, 59, 16
5, 52819, Note_on_c, 9, 59, 0
5, 52887, Note_on_c, 9, 59, 56
5, 52920, Note_on_c, 9, 44, 63
5, 52921, Note_on_c, 9, 59, 0
5, 53008, Note_on_c, 9, 59, 35
5, 53024, Note_on_c, 9, 59, 0
5, 53040, Note_on_c, 9, 44, 0
5, 53055, Note_on_c, 9, 59, 58
5, 53132, Note_on_c, 9, 59, 0
5, 53160, Note_on_c, 9, 44, 63
5, 53170, Note_on_c, 9, 59, 30
5, 53188, Note_on_c, 9, 59, 0
5, 53244, Note_on_c, 9, 59, 70
5, 53280, Note_on_c, 9, 44, 0
5, 53332, Note_on_c, 9, 59, 0
5, 53364, Note_on_c, 9, 59, 19
5, 53380, Note_on_c, 9, 59, 0
5, 53400, Note_on_c, 9, 44, 64
5, 53421, Note_on_c, 9, 59, 77
5, 53483, Note_on_c, 9, 45, 77
5, 53495, Note_on_c, 9, 59, 0
5, 53502, Note_on_c, 9, 45, 0
5, 53520, Note_on_c, 9, 44, 0
5, 53525, Note_on_c, 9, 45, 55
5, 53532, Note_on_c, 9, 59, 23
5, 53562, Note_on_c, 9, 59, 0
5, 53575, Note_on_c, 9, 45, 0
5, 53599, Note_on_c, 9, 43, 57
5, 53608, Note_on_c, 9, 59, 65
5, 53618, Note_on_c, 9, 43, 0
5, 53640, Note_on_c, 9, 46, 53
5, 53684, Note_on_c, 9, 59, 0
5, 53722, Note_on_c, 9, 40, 69
5, 53722, Note_on_c, 9, 59, 31
5, 53735, Note_on_c, 9, 59, 0
5, 53742, Note_on_c, 9, 40, 0
5, 53760, Note_on_c, 9, 46, 0
5, 53769, Note_on_c, 9, 38, 74
5, 53769, Note_on_c, 9, 59, 64
5, 53770, Note_on_c, 9, 57, 50
5, 53777, Note_on_c, 9, 57, 0
5, 53810, Note_on_c, 9, 38, 0
5, 53857, Note_on_c, 9, 59, 0
5, 53880, Note_on_c, 9, 44, 60
5, 53883, Note_on_c, 9, 59, 54
5, 53961, Note_on_c, 9, 59, 0
5, 53983, Note_on_c, 9, 59, 26
5, 53994, Note_on_c, 9, 59, 0
5, 54000, Note_on_c, 9, 44, 0
5, 54012, Note_on_c, 9, 59, 56
5, 54081, Note_on_c, 9, 35, 67
5, 54102, Note_on_c, 9, 59, 0
5, 54111, Note_on_c, 9, 35, 0
5, 54120, Note_on_c, 9, 44, 63
5, 54125, Note_on_c, 9, 59, 49
5, 54126, Note_on_c, 9, 35, 51
5, 54175, Note_on_c, 9, 35, 0
5, 54216, Note_on_c, 9, 59, 0
5, 54240, Note_on_c, 9, 44, 0
5, 54246, Note_on_c, 9, 59, 47
5, 54311, Note_on_c, 9, 59, 0
5, 54339, Note_on_c, 9, 59, 24
5, 54355, Note_on_c, 9, 59, 0
5, 54360, Note_on_c, 9, 44, 63
5, 54371, Note_on_c, 9, 59, 59
5, 54461, Note_on_c, 9, 59, 0
5, 54480, Note_on_c, 9, 44, 0
5, 54484, Note_on_c, 9, 59, 49
5, 54563, Note_on_c, 9, 59, 0
5, 54600, Note_on_c, 9, 44, 65
5, 54607, Note_on_c, 9, 59, 60
5, 54673, Note_on_c, 9, 59, 0
5, 54681, Note_on_c, 9, 40, 65
5, 54694, Note_on_c, 9, 59, 33
5, 54707, Note_on_c, 9, 59, 0
5, 54709, Note_on_c, 9, 40, 0
5, 54720, Note_on_c, 9, 44, 0
5, 54725, Note_on_c, 9, 35, 18
5, 54727, Note_on_c, 9, 59, 50
5, 54737, Note_on_c, 9, 35, 0
5, 54805, Note_on_c, 9, 59, 0
5, 54840, Note_on_c, 9, 44, 65
5, 54845, Note_on_c, 9, 59, 57
5, 54917, Note_on_c, 9, 59, 0
5, 54929, Note_on_c, 9, 35, 26
5, 54938, Note_on_c, 9, 59, 28
5, 54942, Note_on_c, 9, 35, 0
5, 54948, Note_on_c, 9, 59, 0
5, 54960, Note_on_c, 9, 44, 0
5, 54970, Note_on_c, 9, 59, 41
5, 55046, Note_on_c, 9, 59, 0
5, 55080, Note_on_c, 9, 44, 63
5, 55088, Note_on_c, 9, 59, 59
5, 55146, Note_on_c, 9, 59, 0
5, 55177, Note_on_c, 9, 59, 1
5, 55191, Note_on_c, 9, 59, 0
5, 55200, Note_on_c, 9, 44, 0
5, 55209, Note_on_c, 9, 59, 47
5, 55242, Note_on_c, 9, 59, 0
5, 55302, Note_on_c, 9, 59, 40
5, 55311, Note_on_c, 9, 59, 0
5, 55320, Note_on_c, 9, 44, 31
5, 55333, Note_on_c, 9, 59, 53
5, 55412, Note_on_c, 9, 59, 0
5, 55438, Note_on_c, 9, 40, 30
5, 55440, Note_on_c, 9, 44, 0
5, 55449, Note_on_c, 9, 40, 0
5, 55451, Note_on_c, 9, 59, 11
5, 55461, Note_on_c, 9, 59, 0
5, 55475, Note_on_c, 9, 40, 3
5, 55491, Note_on_c, 9, 40, 0
5, 55506, Note_on_c, 9, 40, 27
5, 55517, Note_on_c, 9, 40, 0
5, 55532, Note_on_c, 9, 59, 47
5, 55536, Note_on_c, 9, 40, 41
5, 55554, Note_on_c, 9, 40, 0
5, 55555, Note_on_c, 9, 59, 0
5, 55560, Note_on_c, 9, 44, 63
5, 55567, Note_on_c, 9, 59, 44
5, 55571, Note_on_c, 9, 40, 15
5, 55585, Note_on_c, 9, 40, 0
5, 55597, Note_on_c, 9, 40, 19
5, 55618, Note_on_c, 9, 40, 0
5, 55631, Note_on_c, 9, 40, 61
5, 55646, Note_on_c, 9, 59, 0
5, 55649, Note_on_c, 9, 40, 0
5, 55660, Note_on_c, 9, 40, 63
5, 55680, Note_on_c, 9, 40, 0
5, 55680, Note_on_c, 9, 44, 0
5, 55689, Note_on_c, 9, 40, 63
5, 55690, Note_on_c, 9, 59, 36
5, 55691, Note_on_c, 9, 38, 34
5, 55698, Note_on_c, 9, 38, 0
5, 55698, Note_on_c, 9, 40, 0
5, 55707, Note_on_c, 9, 35, 52
5, 55717, Note_on_c, 9, 59, 0
5, 55731, Note_on_c, 9, 35, 0
5, 55776, Note_on_c, 9, 59, 33
5, 55788, Note_on_c, 9, 59, 0
5, 55800, Note_on_c, 9, 44, 24
5, 55807, Note_on_c, 9, 59, 57
5, 55878, Note_on_c, 9, 35, 44
5, 55894, Note_on_c, 9, 35, 0
5, 55896, Note_on_c, 9, 59, 0
5, 55913, Note_on_c, 9, 35, 41
5, 55920, Note_on_c, 9, 44, 0
5, 55926, Note_on_c, 9, 59, 48
5, 55974, Note_on_c, 9, 35, 0
5, 56005, Note_on_c, 9, 59, 0
5, 56040, Note_on_c, 9, 44, 29
5, 56044, Note_on_c, 9, 59, 53
5, 56111, Note_on_c, 9, 59, 0
5, 56132, Note_on_c, 9, 59, 34
5, 56142, Note_on_c, 9, 59, 0
5, 56160, Note_on_c, 9, 44, 0
5, 56160, Note_on_c, 9, 44, 13
5, 56164, Note_on_c, 9, 59, 56
5, 56255, Note_on_c, 9, 59, 0
5, 56280, Note_on_c, 9, 44, 0
5, 56280, Note_on_c, 9, 44, 63
5, 56283, Note_on_c, 9, 59, 48
5, 56354, Note_on_c, 9, 59, 0
5, 56363, Note_on_c, 9, 40, 39
5, 56372, Note_on_c, 9, 40, 0
5, 56375, Note_on_c, 9, 59, 34
5, 56384, Note_on_c, 9, 59, 0
5, 56400, Note_on_c, 9, 44, 0
5, 56400, Note_on_c, 9, 44, 14
5, 56405, Note_on_c, 9, 59, 48
5, 56488, Note_on_c, 9, 59, 0
5, 56520, Note_on_c, 9, 44, 0
5, 56520, Note_on_c, 9, 44, 44
5, 56527, Note_on_c, 9, 59, 58
5, 56605, Note_on_c, 9, 40, 13
5, 56614, Note_on_c, 9, 40, 0
5, 56615, Note_on_c, 9, 59, 0
5, 56640, Note_on_c, 9, 44, 0
5, 56640, Note_on_c, 9, 44, 4
5, 56644, Note_on_c, 9, 59, 26
5, 56688, Note_on_c, 9, 59, 0
5, 56729, Note_on_c, 9, 59, 31
5, 56750, Note_on_c, 9, 59, 0
5, 56760, Note_on_c, 9, 44, 0
5, 56760, Note_on_c, 9, 44, 56
5, 56763, Note_on_c, 9, 59, 46
5, 56860, Note_on_c, 9, 59, 0
5, 56880, Note_on_c, 9, 44, 0
5, 56880, Note_on_c, 9, 44, 17
5, 56882, Note_on_c, 9, 59, 48
5, 56958, Note_on_c, 9, 40, 34
5, 56960, Note_on_c, 9, 59, 0
5, 56969, Note_on_c, 9, 40, 0
5, 57000, Note_on_c, 9, 44, 0
5, 57000, Note_on_c, 9, 35, 14
5, 57000, Note_on_c, 9, 44, 45
5, 57004, Note_on_c, 9, 59, 51
5, 57032, Note_on_c, 9, 35, 0
5, 57069, Note_on_c, 9, 59, 0
5, 57093, Note_on_c, 9, 59, 35
5, 57117, Note_on_c, 9, 59, 0
5, 57120, Note_on_c, 9, 44, 0
5, 57126, Note_on_c, 9, 59, 26
5, 57207, Note_on_c, 9, 59, 0
5, 57240, Note_on_c, 9, 44, 59
5, 57240, Note_on_c, 9, 59, 49
5, 57318, Note_on_c, 9, 40, 22
5, 57331, Note_on_c, 9, 59, 0
5, 57336, Note_on_c, 9, 40, 0
5, 57360, Note_on_c, 9, 44, 0
5, 57360, Note_on_c, 9, 44, 6
5, 57364, Note_on_c, 9, 59, 43
5, 57448, Note_on_c, 9, 59, 0
5, 57480, Note_on_c, 9, 44, 0
5, 57480, Note_on_c, 9, 44, 57
5, 57487, Note_on_c, 9, 59, 48
5, 57532, Note_on_c, 9, 59, 0
5, 57559, Note_on_c, 9, 40, 20
5, 57571, Note_on_c, 9, 59, 40
5, 57574, Note_on_c, 9, 40, 0
5, 57581, Note_on_c, 9, 59, 0
5, 57594, Note_on_c, 9, 35, 19
5, 57600, Note_on_c, 9, 44, 0
5, 57600, Note_on_c, 9, 44, 11
5, 57601, Note_on_c, 9, 59, 43
5, 57632, Note_on_c, 9, 35, 0
5, 57682, Note_on_c, 9, 35, 15
5, 57685, Note_on_c, 9, 59, 0
5, 57691, Note_on_c, 9, 35, 0
5, 57720, Note_on_c, 9, 44, 0
5, 57720, Note_on_c, 9, 44, 56
5, 57723, Note_on_c, 9, 59, 48
5, 57782, Note_on_c, 9, 59, 0
5, 57813, Note_on_c, 9, 59, 33
5, 57831, Note_on_c, 9, 59, 0
5, 57840, Note_on_c, 9, 44, 0
5, 57840, Note_on_c, 9, 44, 15
5, 57841, Note_on_c, 9, 35, 41
5, 57846, Note_on_c, 9, 59, 52
5, 57851, Note_on_c, 9, 35, 0
5, 57933, Note_on_c, 9, 59, 0
5, 57960, Note_on_c, 9, 44, 0
5, 57960, Note_on_c, 9, 44, 57
5, 57962, Note_on_c, 9, 59, 48
5, 58013, Note_on_c, 9, 59, 0
5, 58050, Note_on_c, 9, 59, 36
5, 58069, Note_on_c, 9, 59, 0
5, 58080, Note_on_c, 9, 44, 0
5, 58080, Note_on_c, 9, 44, 26
5, 58089, Note_on_c, 9, 59, 54
5, 58164, Note_on_c, 9, 59, 0
5, 58200, Note_on_c, 9, 44, 0
5, 58200, Note_on_c, 9, 44, 62
5, 58205, Note_on_c, 9, 59, 56
5, 58260, Note_on_c, 9, 59, 0
5, 58287, Note_on_c, 9, 35, 50
5, 58291, Note_on_c, 9, 59, 31
5, 58304, Note_on_c, 9, 35, 0
5, 58316, Note_on_c, 9, 59, 0
5, 58320, Note_on_c, 9, 44, 0
5, 58320, Note_on_c, 9, 44, 14
5, 58323, Note_on_c, 9, 35, 40
5, 58328, Note_on_c, 9, 59, 47
5, 58377, Note_on_c, 9, 35, 0
5, 58400, Note_on_c, 9, 35, 48
5, 58412, Note_on_c, 9, 59, 0
5, 58423, Note_on_c, 9, 35, 0
5, 58440, Note_on_c, 9, 44, 0
5, 58440, Note_on_c, 9, 44, 60
5, 58445, Note_on_c, 9, 59, 51
5, 58528, Note_on_c, 9, 59, 0
5, 58560, Note_on_c, 9, 44, 0
5, 58560, Note_on_c, 9, 44, 20
5, 58569, Note_on_c, 9, 59, 49
5, 58651, Note_on_c, 9, 53, 23
5, 58661, Note_on_c, 9, 53, 0
5, 58661, Note_on_c, 9, 59, 0
5, 58680, Note_on_c, 9, 44, 0
5, 58680, Note_on_c, 9, 44, 58
5, 58690, Note_on_c, 9, 59, 31
5, 58782, Note_on_c, 9, 59, 0
5, 58800, Note_on_c, 9, 44, 0
5, 58800, Note_on_c, 9, 44, 11
5, 58807, Note_on_c, 9, 59, 41
5, 58891, Note_on_c, 9, 59, 0
5, 58920, Note_on_c, 9, 44, 0
5, 58920, Note_on_c, 9, 44, 65
5, 58924, Note_on_c, 9, 59, 44
5, 59011, Note_on_c, 9, 53, 54
5, 59015, Note_on_c, 9, 59, 0
5, 59040, Note_on_c, 9, 53, 0
5, 59040, Note_on_c, 9, 44, 0
5, 59040, Note_on_c, 9, 44, 20
5, 59045, Note_on_c, 9, 59, 23
5, 59128, Note_on_c, 9, 40, 18
5, 59129, Note_on_c, 9, 59, 0
5, 59129, Note_on_c, 9, 53, 63
5, 59139, Note_on_c, 9, 40, 0
5, 59160, Note_on_c, 9, 44, 0
5, 59160, Note_on_c, 9, 44, 69
5, 59169, Note_on_c, 9, 59, 29
5, 59182, Note_on_c, 9, 53, 0
5, 59220, Note_on_c, 9, 40, 13
5, 59235, Note_on_c, 9, 40, 0
5, 59243, Note_on_c, 9, 53, 65
5, 59247, Note_on_c, 9, 59, 0
5, 59253, Note_on_c, 9, 40, 39
5, 59261, Note_on_c, 9, 40, 0
5, 59280, Note_on_c, 9, 44, 0
5, 59280, Note_on_c, 9, 44, 14
5, 59288, Note_on_c, 9, 35, 24
5, 59288, Note_on_c, 9, 59, 29
5, 59294, Note_on_c, 9, 53, 0
5, 59318, Note_on_c, 9, 35, 0
5, 59360, Note_on_c, 9, 59, 0
5, 59365, Note_on_c, 9, 53, 70
5, 59392, Note_on_c, 9, 40, 14
5, 59400, Note_on_c, 9, 44, 0
5, 59400, Note_on_c, 9, 44, 67
5, 59403, Note_on_c, 9, 59, 19
5, 59415, Note_on_c, 9, 40, 0
5, 59419, Note_on_c, 9, 53, 0
5, 59436, Note_on_c, 9, 40, 32
5, 59456, Note_on_c, 9, 40, 0
5, 59477, Note_on_c, 9, 59, 0
5, 59481, Note_on_c, 9, 35, 40
5, 59484, Note_on_c, 9, 53, 72
5, 59507, Note_on_c, 9, 35, 0
5, 59520, Note_on_c, 9, 44, 0
5, 59520, Note_on_c, 9, 44, 15
5, 59522, Note_on_c, 9, 53, 0
5, 59522, Note_on_c, 9, 59, 32
5, 59560, Note_on_c, 9, 40, 22
5, 59572, Note_on_c, 9, 40, 0
5, 59592, Note_on_c, 9, 40, 30
5, 59611, Note_on_c, 9, 40, 0
5, 59614, Note_on_c, 9, 59, 0
5, 59634, Note_on_c, 9, 35, 30
5, 59640, Note_on_c, 9, 44, 0
5, 59640, Note_on_c, 9, 44, 68
5, 59640, Note_on_c, 9, 59, 43
5, 59673, Note_on_c, 9, 35, 0
5, 59706, Note_on_c, 9, 59, 0
5, 59725, Note_on_c, 9, 35, 43
5, 59729, Note_on_c, 9, 59, 37
5, 59747, Note_on_c, 9, 35, 0
5, 59748, Note_on_c, 9, 59, 0
5, 59760, Note_on_c, 9, 44, 0
5, 59760, Note_on_c, 9, 44, 26
5, 59763, Note_on_c, 9, 35, 54
5, 59763, Note_on_c, 9, 59, 43
5, 59832, Note_on_c, 9, 35, 0
5, 59848, Note_on_c, 9, 59, 0
5, 59879, Note_on_c, 9, 59, 51
5, 59880, Note_on_c, 9, 44, 0
5, 59880, Note_on_c, 9, 44, 54
5, 59952, Note_on_c, 9, 59, 0
5, 59961, Note_on_c, 9, 35, 37
5, 59972, Note_on_c, 9, 35, 0
5, 59974, Note_on_c, 9, 59, 31
5, 59990, Note_on_c, 9, 59, 0
5, 59994, Note_on_c, 9, 35, 39
5, 60000, Note_on_c, 9, 44, 0
5, 60000, Note_on_c, 9, 44, 20
5, 60002, Note_on_c, 9, 59, 20
5, 60030, Note_on_c, 9, 35, 0
5, 60084, Note_on_c, 9, 59, 0
5, 60120, Note_on_c, 9, 44, 0
5, 60120, Note_on_c, 9, 44, 50
5, 60122, Note_on_c, 9, 59, 58
5, 60196, Note_on_c, 9, 59, 0
5, 60198, Note_on_c, 9, 35, 51
5, 60206, Note_on_c, 9, 35, 0
5, 60218, Note_on_c, 9, 59, 28
5, 60231, Note_on_c, 9, 59, 0
5, 60240, Note_on_c, 9, 44, 0
5, 60240, Note_on_c, 9, 44, 20
5, 60265, Note_on_c, 9, 59, 11
5, 60285, Note_on_c, 9, 59, 0
5, 60360, Note_on_c, 9, 44, 0
5, 60360, Note_on_c, 9, 44, 70
5, 60369, Note_on_c, 9, 59, 72
5, 60440, Note_on_c, 9, 59, 0
5, 60460, Note_on_c, 9, 59, 31
5, 60471, Note_on_c, 9, 59, 0
5, 60480, Note_on_c, 9, 44, 0
5, 60480, Note_on_c, 9, 44, 21
5, 60496, Note_on_c, 9, 59, 37
5, 60548, Note_on_c, 9, 59, 0
5, 60564, Note_on_c, 9, 35, 42
5, 60579, Note_on_c, 9, 35, 0
5, 60600, Note_on_c, 9, 44, 0
5, 60600, Note_on_c, 9, 44, 68
5, 60602, Note_on_c, 9, 35, 60
5, 60606, Note_on_c, 9, 59, 72
5, 60668, Note_on_c, 9, 35, 0
5, 60680, Note_on_c, 9, 59, 0
5, 60684, Note_on_c, 9, 35, 69
5, 60700, Note_on_c, 9, 59, 35
5, 60720, Note_on_c, 9, 44, 0
5, 60720, Note_on_c, 9, 44, 20
5, 60723, Note_on_c, 9, 59, 0
5, 60732, Note_on_c, 9, 59, 7
5, 60750, Note_on_c, 9, 35, 0
5, 60793, Note_on_c, 9, 59, 0
5, 60840, Note_on_c, 9, 44, 0
5, 60840, Note_on_c, 9, 44, 65
5, 60845, Note_on_c, 9, 59, 57
5, 60847, Note_on_c, 9, 53, 45
5, 60915, Note_on_c, 9, 59, 0
5, 60938, Note_on_c, 9, 59, 31
5, 60952, Note_on_c, 9, 59, 0
5, 60955, Note_on_c, 9, 53, 0
5, 60959, Note_on_c, 9, 35, 43
5, 60960, Note_on_c, 9, 44, 0
5, 60960, Note_on_c, 9, 44, 11
5, 60973, Note_on_c, 9, 59, 34
5, 60979, Note_on_c, 9, 35, 0
5, 61033, Note_on_c, 9, 59, 0
5, 61080, Note_on_c, 9, 44, 0
5, 61080, Note_on_c, 9, 44, 65
5, 61083, Note_on_c, 9, 59, 59
5, 61085, Note_on_c, 9, 53, 53
5, 61136, Note_on_c, 9, 53, 0
5, 61143, Note_on_c, 9, 59, 0
5, 61161, Note_on_c, 9, 40, 61
5, 61172, Note_on_c, 9, 59, 20
5, 61180, Note_on_c, 9, 40, 0
5, 61200, Note_on_c, 9, 44, 0
5, 61200, Note_on_c, 9, 44, 17
5, 61246, Note_on_c, 9, 59, 0
5, 61282, Note_on_c, 9, 40, 70
5, 61318, Note_on_c, 9, 40, 0
5, 61320, Note_on_c, 9, 44, 0
5, 61320, Note_on_c, 9, 44, 67
5, 61322, Note_on_c, 9, 59, 61
5, 61385, Note_on_c, 9, 59, 0
5, 61398, Note_on_c, 9, 40, 64
5, 61409, Note_on_c, 9, 59, 33
5, 61421, Note_on_c, 9, 40, 0
5, 61433, Note_on_c, 9, 59, 0
5, 61439, Note_on_c, 9, 35, 62
5, 61439, Note_on_c, 9, 57, 63
5, 61440, Note_on_c, 9, 44, 0
5, 61478, Note_on_c, 9, 57, 0
5, 61501, Note_on_c, 9, 35, 0
5, 61501, End_track
0, 0, End_of_file
