0, 0, Header, 1, 4, 960
1, 0, Start_track
1, 0, Title_t, "Isn't it Romantic"
1, 0, Text_t, "Doug McKenzie\012"
1, 0, Text_t, "dougmck@tpg.com.au - live played jazz piano\012"
1, 0, Time_signature, 4, 2, 24, 8
1, 0, Key_signature, -3, "major"
1, 0, Tempo, 1000000
1, 1896, Marker_t, "Easy Stride style"
1, 11520, Marker_t, "G triad on an Eb Bass resolves to ......"
1, 12368, Marker_t, " ...... Eb6 chord"
1, 13344, Marker_t, "Internal voice that climbs chromatically up to root of chords"
1, 23904, Marker_t, "Contrary motion - melody ascends, bottom voice (L hand) descends."
1, 32531, Marker_t, "Nice way to start an ascending run on Eb7"
1, 32640, Marker_t, "First 'surround' the root wuth upper and lower neighbors ..........."
1, 33116, Marker_t, ".......... then play fast up to target note (in this case melody note C)"
1, 37283, Marker_t, "On last beat,LH plays chromatic  run targets 7th of Bb7 at start of next bar"
1, 39258, Marker_t, "Melody harmonised in diatonic thirds"
1, 49920, Marker_t, "C triad on Ab bass resolves to Ab 6"
1, 54655, Marker_t, "Series of diatonic 4ths under melody moving  diatonically down"
1, 61440, Marker_t, "b6 upper structure on Bb7alt - RH plays Gb triad, LH plays 3rd and 7th"
1, 63268, Marker_t, "6 upper structure on Bb7b9 - RH plays G triad, LH plays 7th and 3rd"
1, 89811, Marker_t, "Another series of 4th chords "
1, 101557, Marker_t, "Nice little decoration to a G13 chord with internal voice 13th - b13th - 5th"
1, 107862, Marker_t, "Crescendo with big two handed chords 'Concerto' style - "
1, 118896, Marker_t, "On turnaround, pedal tone (Bb) played with LH just under RH chords(not low)"
1, 125536, Marker_t, "'Trio' in"
1, 126720, Marker_t, "Melody note 'drummed' on instead of just being held"
1, 134400, Marker_t, "Octave tremolo in 'lazy' triplet rhythm"
1, 143709, Marker_t, "A half/whole tone ascending diminished scale"
1, 145920, Marker_t, "The F target note is surrounded by its neighbors"
1, 151579, Marker_t, "EbMaj7#5 resolves to Eb6"
1, 153600, Marker_t, "Rolled 2 handed chords ascend chromatically"
1, 162189, Marker_t, "RH triads (2nd inversion) over LH notes Bb/C, Ab/Bb,Gb/Ab, E/Gb,Eb/F"
1, 170867, Marker_t, "On A7 (=Eb7) arpeggiated a triad"
1, 175709, Marker_t, "Fm triad notes with neighboring tones "
1, 180496, Marker_t, "Cm triad notes with neighbors"
1, 184320, Marker_t, "Upper structures again (see bar 17 above))"
1, 206294, Marker_t, "Block chords harmonise diminished scale"
1, 232731, Marker_t, "On Abm, a Gb major scale"
1, 249600, Tempo, 500000
1, 249600, Marker_t, "Double time feel"
1, 269655, Marker_t, "Half/whole diminished scale - RH and LH a minor third apart"
1, 276480, Marker_t, "Triplet 'drumming' on Bb7b9 - LH plays Ab&Bb, RH plays Em7chord"
1, 334145, Marker_t, "Big 2 hand chords-LH rootless voicing-RH  octaves with chord tones b'tween"
1, 344144, Marker_t, "On C7, begin with arpeggio - "
1, 346017, Marker_t, "Continue ascending run with diminished scale "
1, 361642, Marker_t, "On F9 easy run Eb,G,Eb,C,A,Ab,G,Gb,F,Fb,Eb - 3,5,3,2,1,3,1,3,2,1,3"
1, 364848, Marker_t, "Same notes as Bar 17, but triads in RH played  in rhthmic pattern"
1, 372480, Marker_t, "Strong pattern established in previous bars continues even tho' 'wrong ' notes"
1, 374704, Marker_t, " eventually resolve"
1, 376792, Marker_t, "Same rhythmic pattern established earlier continues up in semitones"
1, 395520, Marker_t, "Different rhythmic pattern - still using two handed block voicings"
1, 471584, Marker_t, "Chords in RH are rolled downwards instead of the usual upwards"
1, 480048, Marker_t, "Ending begins on tritone of Eb as half diminished chord (Am7b5)"
1, 486784, Marker_t, "Abm7 - hold Eb as top note of chord"
1, 492109, Marker_t, "Gm7"
1, 493280, Marker_t, "Run begins on Gm9 arpeggio ............."
1, 494749, Marker_t, "........... then 'Surround' the tonic (G) ............."
1, 495716, Marker_t, "........ then play up chromatically to target note E (third of C7b9)"
1, 498102, Marker_t, "Down to the bottom of the piano - random notes from C7 altered scale "
1, 504960, Marker_t, "Target note is  a low Gb"
1, 510099, Marker_t, "On Fm9 - block chords in close position - LH doubles top note"
1, 517488, Marker_t, "On Bb7b9, easy 2 handed run - pedal down  to catch low Bb"
1, 518400, Marker_t, "LH plays black notes (Ab&Bb) RH plays white (1st inversion G triad - B,D,G)"
1, 529920, Marker_t, "EbMaj7#11 - then F major pentatonic run to top of piano"
1, 529920, End_track
2, 0, Start_track
2, 0, Title_t, "Piano"
2, 0, Program_c, 0, 0
2, 0, Control_c, 0, 7, 100
2, 0, Control_c, 0, 91, 0
2, 0, Control_c, 0, 93, 0
2, 1891, Note_on_c, 0, 74, 72
2, 1906, Note_on_c, 0, 62, 41
2, 2154, Control_c, 0, 64, 127
2, 2396, Control_c, 0, 64, 0
2, 2481, Note_on_c, 0, 74, 0
2, 2502, Note_on_c, 0, 62, 0
2, 2505, Note_on_c, 0, 63, 53
2, 2512, Note_on_c, 0, 75, 51
2, 2837, Note_on_c, 0, 63, 0
2, 2842, Note_on_c, 0, 60, 33
2, 2857, Note_on_c, 0, 72, 36
2, 2904, Control_c, 0, 64, 127
2, 2910, Note_on_c, 0, 75, 0
2, 3005, Note_on_c, 0, 60, 0
2, 3329, Note_on_c, 0, 72, 0
2, 3461, Note_on_c, 0, 74, 38
2, 3677, Note_on_c, 0, 74, 0
2, 3771, Control_c, 0, 64, 0
2, 3785, Note_on_c, 0, 75, 46
2, 3813, Note_on_c, 0, 70, 33
2, 3820, Note_on_c, 0, 51, 27
2, 3831, Note_on_c, 0, 58, 31
2, 3840, Note_on_c, 0, 67, 35
2, 3840, Note_on_c, 0, 65, 35
2, 3931, Control_c, 0, 64, 127
2, 3952, Note_on_c, 0, 70, 0
2, 3994, Note_on_c, 0, 75, 0
2, 4143, Note_on_c, 0, 87, 58
2, 4179, Note_on_c, 0, 51, 0
2, 4184, Note_on_c, 0, 58, 0
2, 4734, Note_on_c, 0, 63, 25
2, 4748, Note_on_c, 0, 75, 39
2, 4754, Note_on_c, 0, 58, 31
2, 4757, Note_on_c, 0, 60, 29
2, 4800, Note_on_c, 0, 65, 0
2, 4800, Note_on_c, 0, 67, 0
2, 4819, Note_on_c, 0, 87, 0
2, 4823, Note_on_c, 0, 75, 0
2, 4868, Note_on_c, 0, 63, 0
2, 4894, Note_on_c, 0, 60, 0
2, 4914, Note_on_c, 0, 58, 0
2, 5724, Note_on_c, 0, 63, 29
2, 5734, Note_on_c, 0, 62, 32
2, 5744, Note_on_c, 0, 65, 24
2, 5754, Note_on_c, 0, 58, 19
2, 5762, Note_on_c, 0, 48, 24
2, 5777, Note_on_c, 0, 55, 20
2, 5789, Control_c, 0, 64, 0
2, 5998, Control_c, 0, 64, 127
2, 6229, Note_on_c, 0, 58, 0
2, 6376, Note_on_c, 0, 62, 0
2, 6403, Note_on_c, 0, 55, 0
2, 6411, Note_on_c, 0, 65, 0
2, 6498, Note_on_c, 0, 63, 0
2, 6676, Note_on_c, 0, 63, 43
2, 6688, Note_on_c, 0, 58, 25
2, 6693, Note_on_c, 0, 60, 27
2, 6717, Note_on_c, 0, 65, 17
2, 6871, Note_on_c, 0, 58, 0
2, 7109, Note_on_c, 0, 48, 0
2, 7111, Note_on_c, 0, 65, 0
2, 7146, Note_on_c, 0, 63, 0
2, 7204, Note_on_c, 0, 60, 0
2, 7562, Note_on_c, 0, 63, 60
2, 7621, Note_on_c, 0, 60, 48
2, 7624, Note_on_c, 0, 62, 28
2, 7667, Note_on_c, 0, 56, 57
2, 7725, Control_c, 0, 64, 0
2, 7748, Note_on_c, 0, 51, 25
2, 7751, Note_on_c, 0, 55, 28
2, 7761, Note_on_c, 0, 41, 32
2, 7773, Note_on_c, 0, 48, 35
2, 7836, Note_on_c, 0, 62, 0
2, 8000, Control_c, 0, 64, 127
2, 8102, Note_on_c, 0, 41, 0
2, 8124, Note_on_c, 0, 48, 0
2, 8164, Note_on_c, 0, 55, 0
2, 8173, Note_on_c, 0, 51, 0
2, 8241, Note_on_c, 0, 56, 0
2, 8249, Note_on_c, 0, 60, 0
2, 8315, Note_on_c, 0, 63, 0
2, 8658, Note_on_c, 0, 63, 35
2, 8692, Note_on_c, 0, 53, 22
2, 8694, Note_on_c, 0, 60, 24
2, 8703, Note_on_c, 0, 56, 42
2, 8956, Note_on_c, 0, 74, 103
2, 9147, Note_on_c, 0, 74, 0
2, 9176, Note_on_c, 0, 75, 84
2, 9184, Note_on_c, 0, 53, 0
2, 9201, Note_on_c, 0, 60, 0
2, 9247, Note_on_c, 0, 56, 0
2, 9274, Note_on_c, 0, 63, 0
2, 9410, Note_on_c, 0, 72, 79
2, 9445, Note_on_c, 0, 75, 0
2, 9593, Note_on_c, 0, 67, 43
2, 9597, Note_on_c, 0, 56, 45
2, 9602, Note_on_c, 0, 62, 36
2, 9643, Control_c, 0, 64, 0
2, 9818, Control_c, 0, 64, 127
2, 9828, Note_on_c, 0, 74, 74
2, 9895, Note_on_c, 0, 72, 0
2, 10043, Note_on_c, 0, 67, 0
2, 10083, Note_on_c, 0, 62, 0
2, 10112, Note_on_c, 0, 74, 0
2, 10143, Note_on_c, 0, 56, 0
2, 10152, Note_on_c, 0, 75, 73
2, 10499, Note_on_c, 0, 46, 53
2, 10510, Control_c, 0, 64, 0
2, 10618, Control_c, 0, 64, 127
2, 10814, Note_on_c, 0, 46, 0
2, 10910, Note_on_c, 0, 77, 58
2, 11058, Note_on_c, 0, 75, 0
2, 11062, Note_on_c, 0, 77, 0
2, 11240, Note_on_c, 0, 82, 60
2, 11339, Note_on_c, 0, 82, 0
2, 11517, Note_on_c, 0, 67, 43
2, 11536, Control_c, 0, 64, 0
2, 11537, Note_on_c, 0, 79, 41
2, 11543, Note_on_c, 0, 51, 30
2, 11556, Note_on_c, 0, 59, 17
2, 11760, Control_c, 0, 64, 127
2, 12168, Note_on_c, 0, 67, 0
2, 12264, Note_on_c, 0, 59, 0
2, 12470, Note_on_c, 0, 72, 40
2, 12473, Note_on_c, 0, 67, 30
2, 12481, Note_on_c, 0, 60, 29
2, 12511, Control_c, 0, 64, 0
2, 12645, Control_c, 0, 64, 127
2, 12952, Note_on_c, 0, 60, 0
2, 13084, Note_on_c, 0, 51, 0
2, 13132, Note_on_c, 0, 72, 0
2, 13211, Note_on_c, 0, 67, 0
2, 13403, Note_on_c, 0, 61, 28
2, 13410, Note_on_c, 0, 67, 28
2, 13412, Note_on_c, 0, 70, 32
2, 13431, Note_on_c, 0, 52, 29
2, 13438, Control_c, 0, 64, 0
2, 13638, Control_c, 0, 64, 127
2, 13791, Note_on_c, 0, 61, 0
2, 13818, Note_on_c, 0, 62, 48
2, 14017, Note_on_c, 0, 62, 0
2, 14103, Note_on_c, 0, 63, 63
2, 14225, Note_on_c, 0, 67, 0
2, 14229, Note_on_c, 0, 70, 0
2, 14333, Note_on_c, 0, 63, 0
2, 14366, Note_on_c, 0, 64, 56
2, 14374, Note_on_c, 0, 70, 48
2, 14376, Note_on_c, 0, 67, 46
2, 14384, Note_on_c, 0, 79, 0
2, 14396, Control_c, 0, 64, 0
2, 14547, Control_c, 0, 64, 127
2, 15005, Note_on_c, 0, 67, 0
2, 15029, Note_on_c, 0, 52, 0
2, 15076, Note_on_c, 0, 70, 0
2, 15084, Note_on_c, 0, 64, 0
2, 15414, Control_c, 0, 64, 0
2, 15416, Note_on_c, 0, 68, 45
2, 15421, Note_on_c, 0, 63, 35
2, 15423, Note_on_c, 0, 72, 50
2, 15431, Note_on_c, 0, 53, 29
2, 15686, Note_on_c, 0, 63, 0
2, 15713, Note_on_c, 0, 64, 60
2, 15822, Control_c, 0, 64, 127
2, 15944, Note_on_c, 0, 64, 0
2, 16006, Note_on_c, 0, 65, 67
2, 16159, Note_on_c, 0, 72, 0
2, 16232, Note_on_c, 0, 68, 0
2, 16245, Note_on_c, 0, 65, 0
2, 16308, Note_on_c, 0, 68, 45
2, 16316, Note_on_c, 0, 72, 51
2, 16331, Control_c, 0, 64, 0
2, 16336, Note_on_c, 0, 67, 51
2, 16346, Note_on_c, 0, 65, 54
2, 16473, Control_c, 0, 64, 127
2, 16699, Note_on_c, 0, 67, 0
2, 16712, Note_on_c, 0, 65, 0
2, 17015, Note_on_c, 0, 53, 0
2, 17098, Note_on_c, 0, 72, 0
2, 17100, Note_on_c, 0, 68, 0
2, 17288, Note_on_c, 0, 68, 42
2, 17289, Note_on_c, 0, 71, 44
2, 17300, Control_c, 0, 64, 0
2, 17303, Note_on_c, 0, 74, 46
2, 17339, Note_on_c, 0, 58, 27
2, 17556, Note_on_c, 0, 68, 0
2, 17561, Note_on_c, 0, 67, 66
2, 17734, Control_c, 0, 64, 127
2, 17776, Control_c, 0, 64, 0
2, 17857, Note_on_c, 0, 68, 54
2, 17910, Control_c, 0, 64, 127
2, 18059, Note_on_c, 0, 67, 0
2, 18116, Note_on_c, 0, 71, 0
2, 18201, Control_c, 0, 64, 0
2, 18208, Note_on_c, 0, 69, 62
2, 18209, Note_on_c, 0, 68, 0
2, 18268, Control_c, 0, 64, 127
2, 18510, Note_on_c, 0, 70, 57
2, 18520, Note_on_c, 0, 68, 33
2, 18604, Note_on_c, 0, 68, 0
2, 18667, Note_on_c, 0, 69, 0
2, 18699, Note_on_c, 0, 58, 0
2, 18740, Note_on_c, 0, 74, 0
2, 18751, Note_on_c, 0, 70, 0
2, 18816, Note_on_c, 0, 71, 32
2, 18940, Note_on_c, 0, 71, 0
2, 18955, Note_on_c, 0, 72, 45
2, 19067, Note_on_c, 0, 74, 51
2, 19088, Note_on_c, 0, 72, 0
2, 19199, Note_on_c, 0, 74, 0
2, 19200, Note_on_c, 0, 75, 35
2, 19202, Control_c, 0, 64, 0
2, 19213, Note_on_c, 0, 67, 49
2, 19259, Note_on_c, 0, 55, 30
2, 19394, Control_c, 0, 64, 127
2, 19440, Note_on_c, 0, 75, 0
2, 19462, Note_on_c, 0, 67, 0
2, 19472, Note_on_c, 0, 75, 62
2, 19601, Note_on_c, 0, 55, 0
2, 19740, Note_on_c, 0, 63, 51
2, 19915, Note_on_c, 0, 63, 0
2, 19939, Note_on_c, 0, 75, 0
2, 20076, Note_on_c, 0, 63, 58
2, 20169, Note_on_c, 0, 63, 0
2, 20686, Control_c, 0, 64, 0
2, 20697, Note_on_c, 0, 43, 35
2, 20698, Note_on_c, 0, 67, 42
2, 20700, Note_on_c, 0, 58, 48
2, 20707, Note_on_c, 0, 55, 32
2, 20708, Note_on_c, 0, 63, 33
2, 20803, Control_c, 0, 64, 127
2, 20807, Note_on_c, 0, 55, 0
2, 20841, Note_on_c, 0, 63, 0
2, 20844, Note_on_c, 0, 43, 0
2, 20845, Note_on_c, 0, 58, 0
2, 20849, Note_on_c, 0, 67, 0
2, 21053, Control_c, 0, 64, 0
2, 21063, Note_on_c, 0, 42, 37
2, 21065, Note_on_c, 0, 52, 31
2, 21066, Note_on_c, 0, 58, 35
2, 21067, Note_on_c, 0, 61, 37
2, 21075, Note_on_c, 0, 67, 33
2, 21076, Note_on_c, 0, 64, 40
2, 21287, Control_c, 0, 64, 127
2, 21448, Note_on_c, 0, 58, 0
2, 21451, Note_on_c, 0, 64, 0
2, 21492, Note_on_c, 0, 42, 0
2, 21521, Note_on_c, 0, 52, 0
2, 21523, Note_on_c, 0, 61, 0
2, 21525, Note_on_c, 0, 67, 0
2, 22042, Note_on_c, 0, 73, 40
2, 22044, Note_on_c, 0, 64, 45
2, 22050, Note_on_c, 0, 63, 37
2, 22055, Note_on_c, 0, 70, 48
2, 22059, Note_on_c, 0, 67, 36
2, 22072, Note_on_c, 0, 58, 39
2, 22083, Note_on_c, 0, 60, 27
2, 22096, Control_c, 0, 64, 0
2, 22146, Control_c, 0, 64, 127
2, 22311, Note_on_c, 0, 63, 0
2, 22317, Note_on_c, 0, 60, 0
2, 22369, Note_on_c, 0, 58, 0
2, 22529, Note_on_c, 0, 73, 0
2, 22530, Note_on_c, 0, 67, 0
2, 22560, Note_on_c, 0, 70, 0
2, 22614, Note_on_c, 0, 64, 0
2, 23043, Note_on_c, 0, 60, 38
2, 23047, Note_on_c, 0, 55, 26
2, 23048, Note_on_c, 0, 56, 46
2, 23059, Note_on_c, 0, 41, 33
2, 23065, Note_on_c, 0, 51, 21
2, 23072, Control_c, 0, 64, 0
2, 23096, Note_on_c, 0, 48, 29
2, 23255, Control_c, 0, 64, 127
2, 23309, Note_on_c, 0, 55, 0
2, 23380, Note_on_c, 0, 41, 0
2, 23390, Note_on_c, 0, 56, 0
2, 23397, Note_on_c, 0, 60, 0
2, 23414, Note_on_c, 0, 48, 0
2, 23493, Note_on_c, 0, 51, 0
2, 23991, Note_on_c, 0, 74, 53
2, 23997, Control_c, 0, 64, 0
2, 24003, Note_on_c, 0, 70, 51
2, 24006, Note_on_c, 0, 68, 48
2, 24007, Note_on_c, 0, 65, 49
2, 24013, Note_on_c, 0, 62, 39
2, 24237, Note_on_c, 0, 61, 43
2, 24238, Note_on_c, 0, 74, 0
2, 24254, Note_on_c, 0, 62, 0
2, 24276, Note_on_c, 0, 70, 0
2, 24286, Note_on_c, 0, 68, 0
2, 24308, Note_on_c, 0, 65, 0
2, 24459, Note_on_c, 0, 68, 63
2, 24459, Note_on_c, 0, 75, 64
2, 24461, Note_on_c, 0, 61, 0
2, 24464, Note_on_c, 0, 60, 34
2, 24474, Note_on_c, 0, 65, 48
2, 24531, Control_c, 0, 64, 127
2, 24759, Note_on_c, 0, 65, 0
2, 24779, Note_on_c, 0, 68, 0
2, 24822, Control_c, 0, 64, 0
2, 24823, Note_on_c, 0, 75, 0
2, 24846, Note_on_c, 0, 72, 53
2, 24849, Note_on_c, 0, 65, 36
2, 24851, Note_on_c, 0, 68, 39
2, 24860, Note_on_c, 0, 58, 36
2, 24885, Note_on_c, 0, 60, 0
2, 24931, Control_c, 0, 64, 127
2, 25094, Note_on_c, 0, 58, 0
2, 25240, Note_on_c, 0, 65, 0
2, 25306, Note_on_c, 0, 72, 0
2, 25325, Note_on_c, 0, 65, 32
2, 25330, Note_on_c, 0, 56, 40
2, 25339, Note_on_c, 0, 74, 61
2, 25538, Note_on_c, 0, 65, 0
2, 25570, Note_on_c, 0, 56, 0
2, 25648, Note_on_c, 0, 68, 0
2, 25672, Note_on_c, 0, 74, 0
2, 25798, Control_c, 0, 64, 0
2, 25813, Note_on_c, 0, 63, 37
2, 25816, Note_on_c, 0, 46, 37
2, 25822, Note_on_c, 0, 75, 44
2, 25823, Note_on_c, 0, 56, 29
2, 25826, Note_on_c, 0, 68, 35
2, 25832, Note_on_c, 0, 72, 34
2, 25925, Control_c, 0, 64, 127
2, 26067, Note_on_c, 0, 72, 0
2, 26093, Note_on_c, 0, 63, 0
2, 26152, Note_on_c, 0, 68, 0
2, 26240, Note_on_c, 0, 75, 0
2, 26320, Note_on_c, 0, 56, 0
2, 26341, Note_on_c, 0, 46, 0
2, 26660, Note_on_c, 0, 77, 56
2, 26744, Note_on_c, 0, 77, 0
2, 26835, Control_c, 0, 64, 0
2, 26881, Note_on_c, 0, 46, 31
2, 26882, Note_on_c, 0, 39, 36
2, 26888, Note_on_c, 0, 79, 46
2, 27001, Control_c, 0, 64, 127
2, 27142, Note_on_c, 0, 39, 0
2, 27162, Note_on_c, 0, 46, 0
2, 27182, Note_on_c, 0, 67, 39
2, 27275, Note_on_c, 0, 67, 0
2, 27277, Note_on_c, 0, 79, 0
2, 27403, Note_on_c, 0, 67, 27
2, 27462, Note_on_c, 0, 67, 0
2, 27677, Note_on_c, 0, 67, 43
2, 27785, Note_on_c, 0, 67, 0
2, 27859, Note_on_c, 0, 67, 46
2, 27863, Note_on_c, 0, 62, 28
2, 27868, Control_c, 0, 64, 0
2, 27877, Note_on_c, 0, 79, 32
2, 27878, Note_on_c, 0, 74, 32
2, 27977, Control_c, 0, 64, 127
2, 28272, Note_on_c, 0, 79, 0
2, 28299, Note_on_c, 0, 62, 0
2, 28346, Note_on_c, 0, 79, 38
2, 28363, Note_on_c, 0, 67, 0
2, 28429, Note_on_c, 0, 74, 0
2, 28495, Note_on_c, 0, 79, 0
2, 28778, Control_c, 0, 64, 0
2, 28785, Note_on_c, 0, 65, 36
2, 28786, Note_on_c, 0, 82, 60
2, 28794, Note_on_c, 0, 77, 51
2, 28796, Note_on_c, 0, 72, 38
2, 28812, Note_on_c, 0, 60, 29
2, 28832, Note_on_c, 0, 62, 24
2, 28953, Control_c, 0, 64, 127
2, 29027, Note_on_c, 0, 65, 0
2, 29029, Note_on_c, 0, 62, 0
2, 29033, Note_on_c, 0, 77, 0
2, 29037, Note_on_c, 0, 82, 0
2, 29060, Note_on_c, 0, 60, 0
2, 29065, Note_on_c, 0, 72, 0
2, 29651, Note_on_c, 0, 54, 37
2, 29729, Control_c, 0, 64, 0
2, 29737, Note_on_c, 0, 70, 63
2, 29744, Note_on_c, 0, 65, 61
2, 29748, Note_on_c, 0, 60, 53
2, 29756, Note_on_c, 0, 55, 49
2, 29768, Note_on_c, 0, 54, 0
2, 29815, Note_on_c, 0, 60, 0
2, 29832, Note_on_c, 0, 55, 0
2, 29840, Note_on_c, 0, 70, 0
2, 29852, Note_on_c, 0, 65, 0
2, 30080, Note_on_c, 0, 69, 41
2, 30095, Note_on_c, 0, 54, 34
2, 30161, Note_on_c, 0, 69, 0
2, 30224, Note_on_c, 0, 54, 0
2, 30251, Note_on_c, 0, 70, 55
2, 30252, Note_on_c, 0, 55, 34
2, 30253, Note_on_c, 0, 65, 43
2, 30254, Control_c, 0, 64, 127
2, 30255, Note_on_c, 0, 60, 35
2, 30359, Note_on_c, 0, 60, 0
2, 30397, Note_on_c, 0, 70, 0
2, 30430, Note_on_c, 0, 55, 0
2, 30482, Note_on_c, 0, 65, 0
2, 30670, Control_c, 0, 64, 0
2, 30686, Note_on_c, 0, 73, 46
2, 30697, Note_on_c, 0, 61, 39
2, 30703, Note_on_c, 0, 65, 44
2, 30709, Note_on_c, 0, 56, 31
2, 30710, Note_on_c, 0, 46, 36
2, 30796, Control_c, 0, 64, 127
2, 30907, Note_on_c, 0, 61, 0
2, 30914, Note_on_c, 0, 65, 0
2, 30997, Note_on_c, 0, 46, 0
2, 31042, Note_on_c, 0, 56, 0
2, 31164, Note_on_c, 0, 73, 0
2, 31675, Note_on_c, 0, 65, 33
2, 31680, Note_on_c, 0, 61, 34
2, 31700, Note_on_c, 0, 60, 29
2, 31946, Note_on_c, 0, 65, 0
2, 31999, Note_on_c, 0, 60, 0
2, 32020, Note_on_c, 0, 61, 0
2, 32714, Note_on_c, 0, 61, 42
2, 32723, Note_on_c, 0, 63, 60
2, 32731, Note_on_c, 0, 55, 31
2, 32764, Control_c, 0, 64, 0
2, 32775, Note_on_c, 0, 63, 0
2, 32849, Note_on_c, 0, 65, 40
2, 32897, Note_on_c, 0, 63, 48
2, 32906, Note_on_c, 0, 65, 0
2, 32920, Note_on_c, 0, 61, 0
2, 32997, Note_on_c, 0, 63, 0
2, 33017, Note_on_c, 0, 62, 36
2, 33131, Note_on_c, 0, 62, 0
2, 33156, Note_on_c, 0, 63, 47
2, 33253, Note_on_c, 0, 63, 0
2, 33308, Note_on_c, 0, 65, 54
2, 33382, Note_on_c, 0, 65, 0
2, 33439, Note_on_c, 0, 67, 44
2, 33524, Note_on_c, 0, 67, 0
2, 33530, Note_on_c, 0, 68, 36
2, 33532, Control_c, 0, 64, 127
2, 33597, Note_on_c, 0, 68, 0
2, 33609, Note_on_c, 0, 70, 53
2, 33631, Control_c, 0, 64, 0
2, 33637, Note_on_c, 0, 70, 0
2, 33648, Note_on_c, 0, 61, 34
2, 33650, Note_on_c, 0, 65, 30
2, 33707, Note_on_c, 0, 72, 51
2, 33747, Note_on_c, 0, 72, 0
2, 33779, Note_on_c, 0, 73, 37
2, 33845, Note_on_c, 0, 65, 0
2, 33846, Note_on_c, 0, 73, 0
2, 33859, Note_on_c, 0, 75, 44
2, 33888, Note_on_c, 0, 75, 0
2, 33890, Control_c, 0, 64, 127
2, 33925, Note_on_c, 0, 61, 0
2, 33928, Note_on_c, 0, 77, 54
2, 33953, Note_on_c, 0, 55, 0
2, 34013, Note_on_c, 0, 77, 0
2, 34021, Note_on_c, 0, 79, 44
2, 34074, Note_on_c, 0, 80, 42
2, 34120, Note_on_c, 0, 79, 0
2, 34156, Note_on_c, 0, 80, 0
2, 34156, Note_on_c, 0, 82, 42
2, 34184, Note_on_c, 0, 82, 0
2, 34239, Note_on_c, 0, 84, 53
2, 34305, Note_on_c, 0, 84, 0
2, 34322, Note_on_c, 0, 85, 60
2, 34414, Note_on_c, 0, 85, 0
2, 34429, Note_on_c, 0, 87, 48
2, 34498, Note_on_c, 0, 85, 48
2, 34501, Note_on_c, 0, 87, 0
2, 34558, Note_on_c, 0, 85, 0
2, 34591, Note_on_c, 0, 84, 78
2, 34632, Control_c, 0, 64, 0
2, 34652, Note_on_c, 0, 55, 32
2, 34660, Note_on_c, 0, 44, 28
2, 34666, Note_on_c, 0, 84, 0
2, 34681, Note_on_c, 0, 84, 38
2, 34891, Control_c, 0, 64, 127
2, 34908, Note_on_c, 0, 84, 0
2, 34922, Note_on_c, 0, 79, 55
2, 34963, Note_on_c, 0, 79, 0
2, 35014, Note_on_c, 0, 44, 0
2, 35047, Note_on_c, 0, 55, 0
2, 35104, Note_on_c, 0, 96, 62
2, 35138, Note_on_c, 0, 96, 0
2, 35582, Note_on_c, 0, 63, 30
2, 35617, Note_on_c, 0, 60, 26
2, 35619, Note_on_c, 0, 56, 38
2, 35927, Note_on_c, 0, 84, 80
2, 35937, Note_on_c, 0, 72, 74
2, 36117, Note_on_c, 0, 84, 0
2, 36142, Note_on_c, 0, 72, 0
2, 36231, Note_on_c, 0, 84, 82
2, 36236, Note_on_c, 0, 72, 72
2, 36386, Note_on_c, 0, 63, 0
2, 36403, Note_on_c, 0, 72, 0
2, 36410, Note_on_c, 0, 84, 0
2, 36429, Note_on_c, 0, 56, 0
2, 36473, Note_on_c, 0, 60, 0
2, 36512, Note_on_c, 0, 84, 61
2, 36532, Note_on_c, 0, 56, 35
2, 36533, Note_on_c, 0, 79, 58
2, 36535, Control_c, 0, 64, 0
2, 36538, Note_on_c, 0, 60, 31
2, 36540, Note_on_c, 0, 76, 68
2, 36548, Note_on_c, 0, 64, 51
2, 36551, Note_on_c, 0, 72, 66
2, 36685, Control_c, 0, 64, 127
2, 37054, Note_on_c, 0, 84, 0
2, 37104, Note_on_c, 0, 79, 0
2, 37113, Note_on_c, 0, 64, 0
2, 37118, Note_on_c, 0, 76, 0
2, 37139, Note_on_c, 0, 72, 0
2, 37420, Note_on_c, 0, 72, 36
2, 37479, Note_on_c, 0, 67, 35
2, 37550, Note_on_c, 0, 66, 48
2, 37621, Note_on_c, 0, 65, 34
2, 37665, Note_on_c, 0, 66, 0
2, 37667, Note_on_c, 0, 56, 0
2, 37694, Note_on_c, 0, 65, 0
2, 37707, Note_on_c, 0, 64, 42
2, 37761, Note_on_c, 0, 72, 0
2, 37772, Note_on_c, 0, 64, 0
2, 37796, Note_on_c, 0, 63, 48
2, 37862, Note_on_c, 0, 63, 0
2, 37880, Note_on_c, 0, 62, 44
2, 37898, Note_on_c, 0, 67, 0
2, 37930, Note_on_c, 0, 62, 0
2, 37946, Note_on_c, 0, 60, 0
2, 37959, Note_on_c, 0, 61, 41
2, 38038, Note_on_c, 0, 60, 38
2, 38112, Note_on_c, 0, 61, 0
2, 38124, Note_on_c, 0, 60, 0
2, 38127, Note_on_c, 0, 59, 42
2, 38226, Note_on_c, 0, 59, 0
2, 38234, Note_on_c, 0, 58, 39
2, 38287, Note_on_c, 0, 58, 0
2, 38330, Note_on_c, 0, 57, 48
2, 38361, Note_on_c, 0, 56, 57
2, 38361, Note_on_c, 0, 68, 61
2, 38369, Note_on_c, 0, 62, 44
2, 38387, Control_c, 0, 64, 0
2, 38391, Note_on_c, 0, 46, 61
2, 38394, Note_on_c, 0, 57, 0
2, 38529, Control_c, 0, 64, 127
2, 38648, Note_on_c, 0, 62, 0
2, 38678, Note_on_c, 0, 46, 0
2, 38758, Note_on_c, 0, 56, 0
2, 38765, Note_on_c, 0, 68, 0
2, 39320, Note_on_c, 0, 86, 85
2, 39326, Note_on_c, 0, 82, 87
2, 39338, Note_on_c, 0, 67, 38
2, 39339, Note_on_c, 0, 56, 53
2, 39341, Note_on_c, 0, 62, 33
2, 39346, Control_c, 0, 64, 0
2, 39471, Control_c, 0, 64, 127
2, 39554, Note_on_c, 0, 86, 0
2, 39555, Note_on_c, 0, 82, 0
2, 39588, Note_on_c, 0, 84, 58
2, 39597, Note_on_c, 0, 80, 69
2, 39779, Note_on_c, 0, 84, 0
2, 39782, Note_on_c, 0, 80, 0
2, 39834, Note_on_c, 0, 79, 61
2, 39843, Note_on_c, 0, 82, 67
2, 39851, Note_on_c, 0, 67, 0
2, 39877, Note_on_c, 0, 62, 0
2, 39940, Note_on_c, 0, 79, 0
2, 39964, Note_on_c, 0, 82, 0
2, 39984, Note_on_c, 0, 56, 0
2, 40069, Note_on_c, 0, 77, 62
2, 40074, Note_on_c, 0, 80, 52
2, 40167, Note_on_c, 0, 77, 0
2, 40216, Note_on_c, 0, 80, 0
2, 40297, Control_c, 0, 64, 0
2, 40308, Note_on_c, 0, 59, 36
2, 40312, Note_on_c, 0, 63, 46
2, 40318, Note_on_c, 0, 79, 44
2, 40322, Note_on_c, 0, 75, 40
2, 40327, Note_on_c, 0, 53, 25
2, 40448, Note_on_c, 0, 75, 0
2, 40485, Note_on_c, 0, 76, 27
2, 40620, Note_on_c, 0, 63, 0
2, 40629, Note_on_c, 0, 59, 0
2, 40653, Note_on_c, 0, 53, 0
2, 40656, Note_on_c, 0, 71, 35
2, 40663, Note_on_c, 0, 76, 0
2, 40838, Control_c, 0, 64, 127
2, 40895, Note_on_c, 0, 79, 0
2, 40912, Note_on_c, 0, 43, 34
2, 40949, Note_on_c, 0, 71, 0
2, 41018, Note_on_c, 0, 43, 0
2, 41525, Note_on_c, 0, 55, 36
2, 41530, Control_c, 0, 64, 0
2, 41548, Note_on_c, 0, 56, 39
2, 41551, Note_on_c, 0, 65, 32
2, 41553, Note_on_c, 0, 59, 33
2, 41559, Note_on_c, 0, 62, 33
2, 41718, Note_on_c, 0, 55, 0
2, 41726, Note_on_c, 0, 62, 0
2, 41810, Note_on_c, 0, 62, 34
2, 41831, Note_on_c, 0, 65, 0
2, 41839, Control_c, 0, 64, 127
2, 41842, Note_on_c, 0, 47, 36
2, 41964, Note_on_c, 0, 59, 0
2, 42023, Note_on_c, 0, 56, 0
2, 42058, Note_on_c, 0, 62, 0
2, 42090, Control_c, 0, 64, 0
2, 42110, Note_on_c, 0, 47, 0
2, 42136, Note_on_c, 0, 55, 31
2, 42137, Note_on_c, 0, 63, 38
2, 42155, Note_on_c, 0, 48, 32
2, 42161, Note_on_c, 0, 60, 27
2, 42265, Control_c, 0, 64, 127
2, 42317, Note_on_c, 0, 55, 0
2, 42424, Note_on_c, 0, 60, 0
2, 42511, Note_on_c, 0, 36, 46
2, 42550, Note_on_c, 0, 36, 0
2, 42564, Note_on_c, 0, 63, 0
2, 42585, Note_on_c, 0, 48, 0
2, 43738, Note_on_c, 0, 60, 51
2, 43738, Note_on_c, 0, 63, 54
2, 43740, Control_c, 0, 64, 0
2, 43749, Note_on_c, 0, 51, 50
2, 43754, Note_on_c, 0, 43, 32
2, 43762, Note_on_c, 0, 36, 37
2, 43833, Control_c, 0, 64, 127
2, 44000, Note_on_c, 0, 36, 0
2, 44005, Note_on_c, 0, 43, 0
2, 44018, Note_on_c, 0, 51, 0
2, 44041, Note_on_c, 0, 60, 0
2, 44067, Note_on_c, 0, 63, 0
2, 44157, Note_on_c, 0, 67, 42
2, 44163, Note_on_c, 0, 65, 51
2, 44172, Note_on_c, 0, 55, 46
2, 44175, Note_on_c, 0, 59, 33
2, 44177, Note_on_c, 0, 47, 47
2, 44183, Control_c, 0, 64, 0
2, 44374, Control_c, 0, 64, 127
2, 44441, Note_on_c, 0, 59, 0
2, 44530, Note_on_c, 0, 47, 0
2, 44562, Note_on_c, 0, 65, 0
2, 44585, Note_on_c, 0, 67, 0
2, 44595, Note_on_c, 0, 55, 0
2, 45129, Note_on_c, 0, 65, 39
2, 45130, Note_on_c, 0, 71, 51
2, 45134, Note_on_c, 0, 74, 52
2, 45135, Note_on_c, 0, 79, 54
2, 45144, Note_on_c, 0, 69, 40
2, 45554, Note_on_c, 0, 62, 43
2, 45572, Note_on_c, 0, 65, 0
2, 45684, Note_on_c, 0, 79, 0
2, 45686, Note_on_c, 0, 74, 0
2, 45720, Note_on_c, 0, 71, 0
2, 45756, Note_on_c, 0, 69, 0
2, 45767, Note_on_c, 0, 62, 0
2, 45781, Note_on_c, 0, 59, 41
2, 45887, Note_on_c, 0, 59, 0
2, 46025, Note_on_c, 0, 75, 51
2, 46034, Note_on_c, 0, 65, 47
2, 46037, Note_on_c, 0, 63, 49
2, 46042, Control_c, 0, 64, 0
2, 46044, Note_on_c, 0, 72, 50
2, 46047, Note_on_c, 0, 61, 47
2, 46051, Note_on_c, 0, 68, 48
2, 46193, Control_c, 0, 64, 127
2, 46316, Note_on_c, 0, 65, 0
2, 46357, Note_on_c, 0, 63, 0
2, 46403, Note_on_c, 0, 61, 0
2, 46433, Note_on_c, 0, 72, 0
2, 46442, Note_on_c, 0, 75, 0
2, 46484, Note_on_c, 0, 68, 0
2, 46998, Note_on_c, 0, 51, 49
2, 47057, Note_on_c, 0, 49, 21
2, 47058, Note_on_c, 0, 53, 35
2, 47058, Note_on_c, 0, 63, 50
2, 47079, Note_on_c, 0, 56, 34
2, 47087, Note_on_c, 0, 60, 31
2, 47318, Note_on_c, 0, 51, 0
2, 47335, Control_c, 0, 64, 0
2, 47535, Control_c, 0, 64, 127
2, 47677, Control_c, 0, 64, 0
2, 47686, Note_on_c, 0, 34, 38
2, 47774, Note_on_c, 0, 34, 0
2, 47777, Control_c, 0, 64, 127
2, 47820, Note_on_c, 0, 56, 0
2, 47829, Note_on_c, 0, 60, 0
2, 47857, Note_on_c, 0, 49, 0
2, 47858, Note_on_c, 0, 53, 0
2, 47934, Note_on_c, 0, 63, 0
2, 48040, Note_on_c, 0, 63, 45
2, 48048, Note_on_c, 0, 61, 32
2, 48055, Note_on_c, 0, 55, 26
2, 48061, Control_c, 0, 64, 0
2, 48068, Note_on_c, 0, 59, 35
2, 48554, Note_on_c, 0, 39, 46
2, 48610, Control_c, 0, 64, 127
2, 48634, Note_on_c, 0, 39, 0
2, 48654, Note_on_c, 0, 55, 0
2, 48713, Note_on_c, 0, 59, 0
2, 48756, Note_on_c, 0, 61, 0
2, 48787, Note_on_c, 0, 63, 0
2, 49048, Note_on_c, 0, 75, 69
2, 49049, Note_on_c, 0, 71, 68
2, 49053, Note_on_c, 0, 61, 54
2, 49053, Control_c, 0, 64, 0
2, 49055, Note_on_c, 0, 66, 69
2, 49072, Note_on_c, 0, 55, 40
2, 49178, Control_c, 0, 64, 127
2, 49316, Note_on_c, 0, 66, 0
2, 49380, Note_on_c, 0, 61, 0
2, 49389, Note_on_c, 0, 55, 0
2, 49403, Note_on_c, 0, 71, 0
2, 49426, Note_on_c, 0, 75, 0
2, 49533, Note_on_c, 0, 73, 29
2, 49534, Note_on_c, 0, 61, 53
2, 49544, Note_on_c, 0, 64, 49
2, 49548, Note_on_c, 0, 69, 40
2, 49566, Note_on_c, 0, 55, 24
2, 49687, Note_on_c, 0, 55, 0
2, 49702, Note_on_c, 0, 69, 0
2, 49707, Note_on_c, 0, 61, 0
2, 49753, Note_on_c, 0, 73, 0
2, 49804, Note_on_c, 0, 64, 0
2, 49984, Note_on_c, 0, 67, 50
2, 49987, Control_c, 0, 64, 0
2, 49988, Note_on_c, 0, 72, 50
2, 49989, Note_on_c, 0, 64, 57
2, 50146, Control_c, 0, 64, 127
2, 50334, Note_on_c, 0, 44, 49
2, 50383, Note_on_c, 0, 67, 0
2, 50404, Control_c, 0, 64, 0
2, 50496, Control_c, 0, 64, 127
2, 50513, Control_c, 0, 64, 0
2, 50595, Note_on_c, 0, 52, 37
2, 50598, Note_on_c, 0, 64, 0
2, 50604, Control_c, 0, 64, 127
2, 50845, Note_on_c, 0, 52, 0
2, 50866, Note_on_c, 0, 63, 39
2, 50869, Note_on_c, 0, 53, 44
2, 50870, Note_on_c, 0, 60, 39
2, 50872, Control_c, 0, 64, 0
2, 51079, Control_c, 0, 64, 127
2, 51475, Note_on_c, 0, 70, 1
2, 51630, Note_on_c, 0, 63, 0
2, 51642, Note_on_c, 0, 60, 0
2, 51809, Note_on_c, 0, 63, 44
2, 51816, Note_on_c, 0, 60, 42
2, 52108, Note_on_c, 0, 44, 0
2, 52230, Note_on_c, 0, 53, 0
2, 52505, Note_on_c, 0, 60, 0
2, 52619, Note_on_c, 0, 63, 0
2, 52784, Note_on_c, 0, 64, 60
2, 52789, Note_on_c, 0, 60, 52
2, 52797, Note_on_c, 0, 55, 34
2, 52805, Control_c, 0, 64, 0
2, 52807, Note_on_c, 0, 48, 32
2, 52947, Control_c, 0, 64, 127
2, 53023, Note_on_c, 0, 72, 0
2, 53221, Note_on_c, 0, 70, 0
2, 53262, Note_on_c, 0, 55, 0
2, 53292, Note_on_c, 0, 60, 0
2, 53308, Note_on_c, 0, 48, 0
2, 53354, Note_on_c, 0, 64, 0
2, 53810, Note_on_c, 0, 41, 36
2, 53815, Control_c, 0, 64, 0
2, 53818, Note_on_c, 0, 56, 43
2, 53819, Note_on_c, 0, 48, 27
2, 53820, Note_on_c, 0, 53, 22
2, 53856, Note_on_c, 0, 60, 29
2, 54015, Control_c, 0, 64, 127
2, 54080, Note_on_c, 0, 56, 0
2, 54143, Note_on_c, 0, 41, 0
2, 54157, Note_on_c, 0, 48, 0
2, 54208, Note_on_c, 0, 53, 0
2, 54222, Note_on_c, 0, 60, 0
2, 54600, Control_c, 0, 64, 0
2, 54704, Control_c, 0, 64, 127
2, 54757, Note_on_c, 0, 63, 57
2, 54760, Note_on_c, 0, 58, 47
2, 54762, Note_on_c, 0, 74, 69
2, 54763, Note_on_c, 0, 68, 74
2, 54924, Note_on_c, 0, 63, 0
2, 54943, Note_on_c, 0, 74, 0
2, 54948, Note_on_c, 0, 68, 0
2, 54976, Note_on_c, 0, 67, 49
2, 54978, Note_on_c, 0, 56, 47
2, 54978, Note_on_c, 0, 72, 54
2, 54984, Note_on_c, 0, 62, 33
2, 55000, Note_on_c, 0, 58, 0
2, 55149, Control_c, 0, 64, 0
2, 55152, Note_on_c, 0, 55, 47
2, 55159, Note_on_c, 0, 67, 0
2, 55170, Note_on_c, 0, 72, 0
2, 55170, Note_on_c, 0, 56, 0
2, 55182, Control_c, 0, 64, 127
2, 55183, Note_on_c, 0, 62, 0
2, 55195, Note_on_c, 0, 65, 38
2, 55204, Note_on_c, 0, 70, 53
2, 55208, Note_on_c, 0, 60, 32
2, 55248, Control_c, 0, 64, 0
2, 55322, Note_on_c, 0, 55, 0
2, 55375, Note_on_c, 0, 65, 0
2, 55382, Note_on_c, 0, 60, 0
2, 55384, Note_on_c, 0, 70, 0
2, 55391, Control_c, 0, 64, 127
2, 55412, Note_on_c, 0, 63, 45
2, 55416, Note_on_c, 0, 68, 29
2, 55417, Note_on_c, 0, 53, 47
2, 55417, Note_on_c, 0, 58, 44
2, 55625, Control_c, 0, 64, 0
2, 55632, Note_on_c, 0, 62, 35
2, 55641, Note_on_c, 0, 57, 42
2, 55647, Note_on_c, 0, 59, 37
2, 55651, Note_on_c, 0, 67, 44
2, 55662, Note_on_c, 0, 53, 0
2, 55666, Note_on_c, 0, 68, 0
2, 55667, Note_on_c, 0, 58, 0
2, 55799, Note_on_c, 0, 63, 0
2, 55850, Control_c, 0, 64, 127
2, 55879, Note_on_c, 0, 62, 0
2, 55897, Note_on_c, 0, 57, 0
2, 55906, Note_on_c, 0, 56, 51
2, 55919, Note_on_c, 0, 67, 0
2, 55949, Note_on_c, 0, 59, 0
2, 56081, Note_on_c, 0, 56, 0
2, 56109, Control_c, 0, 64, 0
2, 56145, Note_on_c, 0, 55, 44
2, 56152, Note_on_c, 0, 59, 24
2, 56168, Note_on_c, 0, 65, 37
2, 56385, Note_on_c, 0, 43, 33
2, 56392, Note_on_c, 0, 55, 0
2, 56459, Control_c, 0, 64, 127
2, 56486, Note_on_c, 0, 59, 0
2, 56571, Note_on_c, 0, 65, 0
2, 56625, Control_c, 0, 64, 0
2, 56631, Note_on_c, 0, 56, 43
2, 56640, Note_on_c, 0, 63, 38
2, 56644, Note_on_c, 0, 53, 33
2, 56645, Note_on_c, 0, 59, 41
2, 56750, Control_c, 0, 64, 127
2, 56957, Note_on_c, 0, 56, 0
2, 57034, Note_on_c, 0, 63, 0
2, 57044, Note_on_c, 0, 53, 0
2, 57075, Note_on_c, 0, 50, 36
2, 57076, Note_on_c, 0, 56, 33
2, 57084, Note_on_c, 0, 62, 39
2, 57125, Control_c, 0, 64, 0
2, 57234, Control_c, 0, 64, 127
2, 57246, Note_on_c, 0, 43, 0
2, 57253, Note_on_c, 0, 50, 0
2, 57323, Note_on_c, 0, 47, 38
2, 57372, Note_on_c, 0, 59, 0
2, 57430, Note_on_c, 0, 56, 0
2, 57477, Note_on_c, 0, 62, 0
2, 57542, Control_c, 0, 64, 0
2, 57551, Note_on_c, 0, 47, 0
2, 57571, Note_on_c, 0, 63, 39
2, 57576, Note_on_c, 0, 55, 31
2, 57596, Note_on_c, 0, 48, 31
2, 57693, Control_c, 0, 64, 127
2, 57987, Note_on_c, 0, 55, 0
2, 58103, Note_on_c, 0, 48, 0
2, 58238, Note_on_c, 0, 63, 0
2, 58542, Note_on_c, 0, 63, 38
2, 58565, Note_on_c, 0, 48, 31
2, 58582, Note_on_c, 0, 55, 16
2, 58586, Note_on_c, 0, 60, 24
2, 58651, Note_on_c, 0, 55, 0
2, 58715, Note_on_c, 0, 48, 0
2, 58798, Note_on_c, 0, 60, 0
2, 58833, Note_on_c, 0, 63, 0
2, 59128, Note_on_c, 0, 72, 54
2, 59250, Note_on_c, 0, 72, 0
2, 59275, Note_on_c, 0, 71, 46
2, 59374, Note_on_c, 0, 71, 0
2, 59477, Control_c, 0, 64, 0
2, 59488, Note_on_c, 0, 41, 32
2, 59489, Note_on_c, 0, 72, 50
2, 59509, Note_on_c, 0, 48, 24
2, 59515, Note_on_c, 0, 57, 27
2, 59611, Control_c, 0, 64, 127
2, 59985, Note_on_c, 0, 57, 0
2, 60310, Note_on_c, 0, 72, 0
2, 60453, Note_on_c, 0, 72, 31
2, 60469, Note_on_c, 0, 62, 28
2, 60471, Note_on_c, 0, 57, 29
2, 60640, Note_on_c, 0, 57, 0
2, 60642, Note_on_c, 0, 41, 0
2, 60661, Note_on_c, 0, 62, 0
2, 60715, Note_on_c, 0, 72, 0
2, 60916, Note_on_c, 0, 48, 0
2, 61437, Control_c, 0, 64, 0
2, 61440, Note_on_c, 0, 50, 52
2, 61440, Note_on_c, 0, 66, 38
2, 61440, Note_on_c, 0, 70, 25
2, 61440, Note_on_c, 0, 73, 32
2, 61440, Note_on_c, 0, 56, 47
2, 61790, Note_on_c, 0, 66, 0
2, 61810, Note_on_c, 0, 50, 0
2, 61840, Note_on_c, 0, 73, 0
2, 61840, Note_on_c, 0, 70, 0
2, 61920, Note_on_c, 0, 56, 0
2, 61974, Note_on_c, 0, 61, 46
2, 61974, Note_on_c, 0, 56, 64
2, 61979, Note_on_c, 0, 50, 47
2, 61980, Note_on_c, 0, 66, 52
2, 61983, Note_on_c, 0, 70, 42
2, 61983, Note_on_c, 0, 73, 35
2, 62146, Control_c, 0, 64, 127
2, 62344, Note_on_c, 0, 56, 0
2, 62495, Note_on_c, 0, 56, 46
2, 62726, Note_on_c, 0, 56, 0
2, 62939, Note_on_c, 0, 50, 0
2, 62948, Note_on_c, 0, 56, 37
2, 63034, Note_on_c, 0, 61, 0
2, 63054, Note_on_c, 0, 56, 0
2, 63149, Note_on_c, 0, 66, 0
2, 63154, Note_on_c, 0, 73, 0
2, 63177, Note_on_c, 0, 70, 0
2, 63339, Control_c, 0, 64, 0
2, 63354, Note_on_c, 0, 71, 34
2, 63355, Note_on_c, 0, 62, 43
2, 63356, Note_on_c, 0, 74, 45
2, 63361, Note_on_c, 0, 67, 38
2, 63375, Note_on_c, 0, 56, 35
2, 63386, Note_on_c, 0, 46, 34
2, 63458, Control_c, 0, 64, 127
2, 63624, Note_on_c, 0, 74, 0
2, 63682, Note_on_c, 0, 62, 0
2, 63796, Note_on_c, 0, 71, 0
2, 63829, Note_on_c, 0, 67, 0
2, 63889, Note_on_c, 0, 46, 0
2, 63896, Note_on_c, 0, 75, 65
2, 63918, Note_on_c, 0, 56, 0
2, 64262, Note_on_c, 0, 75, 0
2, 64267, Note_on_c, 0, 72, 36
2, 64277, Note_on_c, 0, 67, 34
2, 64291, Control_c, 0, 64, 0
2, 64296, Note_on_c, 0, 62, 27
2, 64309, Note_on_c, 0, 56, 34
2, 64534, Control_c, 0, 64, 127
2, 64929, Note_on_c, 0, 73, 35
2, 64956, Note_on_c, 0, 67, 0
2, 64960, Note_on_c, 0, 72, 0
2, 65023, Note_on_c, 0, 62, 0
2, 65029, Note_on_c, 0, 74, 49
2, 65030, Note_on_c, 0, 73, 0
2, 65139, Note_on_c, 0, 56, 0
2, 65151, Note_on_c, 0, 75, 36
2, 65181, Note_on_c, 0, 74, 0
2, 65221, Note_on_c, 0, 75, 0
2, 65223, Note_on_c, 0, 76, 54
2, 65334, Note_on_c, 0, 76, 0
2, 65342, Control_c, 0, 64, 0
2, 65348, Note_on_c, 0, 77, 66
2, 65367, Note_on_c, 0, 65, 26
2, 65373, Note_on_c, 0, 62, 20
2, 65386, Note_on_c, 0, 60, 27
2, 65388, Note_on_c, 0, 55, 18
2, 65495, Note_on_c, 0, 77, 0
2, 65506, Note_on_c, 0, 74, 43
2, 65602, Note_on_c, 0, 74, 0
2, 65684, Note_on_c, 0, 75, 57
2, 65831, Note_on_c, 0, 75, 0
2, 65834, Control_c, 0, 64, 127
2, 65874, Note_on_c, 0, 67, 38
2, 65890, Note_on_c, 0, 65, 0
2, 65987, Note_on_c, 0, 60, 0
2, 66000, Note_on_c, 0, 67, 0
2, 66042, Note_on_c, 0, 62, 0
2, 66198, Note_on_c, 0, 65, 34
2, 66233, Note_on_c, 0, 67, 40
2, 66240, Note_on_c, 0, 60, 19
2, 66322, Note_on_c, 0, 65, 0
2, 66352, Note_on_c, 0, 60, 0
2, 66461, Note_on_c, 0, 55, 0
2, 66567, Note_on_c, 0, 67, 0
2, 67160, Control_c, 0, 64, 0
2, 67177, Note_on_c, 0, 55, 27
2, 67192, Note_on_c, 0, 58, 35
2, 67196, Note_on_c, 0, 48, 24
2, 67198, Note_on_c, 0, 36, 30
2, 67293, Control_c, 0, 64, 127
2, 67367, Note_on_c, 0, 55, 0
2, 67416, Note_on_c, 0, 58, 0
2, 67426, Note_on_c, 0, 36, 0
2, 67486, Note_on_c, 0, 48, 0
2, 67918, Note_on_c, 0, 86, 74
2, 68118, Note_on_c, 0, 86, 0
2, 68149, Note_on_c, 0, 63, 37
2, 68179, Note_on_c, 0, 74, 51
2, 68181, Note_on_c, 0, 58, 35
2, 68219, Control_c, 0, 64, 0
2, 68278, Control_c, 0, 64, 127
2, 68358, Note_on_c, 0, 74, 0
2, 68457, Note_on_c, 0, 74, 35
2, 68574, Note_on_c, 0, 74, 0
2, 68703, Note_on_c, 0, 84, 66
2, 68717, Note_on_c, 0, 58, 0
2, 68733, Note_on_c, 0, 63, 0
2, 68860, Note_on_c, 0, 84, 0
2, 68934, Note_on_c, 0, 84, 46
2, 69142, Note_on_c, 0, 84, 0
2, 69145, Note_on_c, 0, 63, 29
2, 69146, Note_on_c, 0, 68, 29
2, 69149, Note_on_c, 0, 77, 44
2, 69165, Note_on_c, 0, 60, 25
2, 69170, Control_c, 0, 64, 0
2, 69293, Note_on_c, 0, 77, 0
2, 69367, Note_on_c, 0, 77, 36
2, 69421, Control_c, 0, 64, 127
2, 69489, Note_on_c, 0, 77, 0
2, 69557, Note_on_c, 0, 82, 71
2, 69789, Note_on_c, 0, 74, 42
2, 69886, Note_on_c, 0, 63, 0
2, 69901, Note_on_c, 0, 68, 0
2, 69932, Note_on_c, 0, 74, 0
2, 70026, Note_on_c, 0, 82, 0
2, 70062, Note_on_c, 0, 68, 25
2, 70063, Note_on_c, 0, 74, 44
2, 70074, Note_on_c, 0, 63, 25
2, 70283, Note_on_c, 0, 74, 0
2, 70312, Note_on_c, 0, 75, 49
2, 70381, Note_on_c, 0, 68, 0
2, 70550, Note_on_c, 0, 72, 37
2, 70670, Note_on_c, 0, 60, 0
2, 70776, Note_on_c, 0, 75, 0
2, 70790, Note_on_c, 0, 63, 0
2, 70921, Note_on_c, 0, 56, 36
2, 70932, Note_on_c, 0, 67, 24
2, 70948, Note_on_c, 0, 62, 30
2, 70963, Control_c, 0, 64, 0
2, 71088, Control_c, 0, 64, 127
2, 71364, Note_on_c, 0, 72, 0
2, 71446, Note_on_c, 0, 67, 0
2, 71454, Note_on_c, 0, 74, 77
2, 71500, Note_on_c, 0, 62, 0
2, 71571, Note_on_c, 0, 56, 0
2, 71616, Note_on_c, 0, 74, 0
2, 71689, Note_on_c, 0, 75, 86
2, 71913, Note_on_c, 0, 75, 0
2, 71922, Note_on_c, 0, 46, 44
2, 71924, Note_on_c, 0, 56, 45
2, 71926, Note_on_c, 0, 72, 71
2, 71938, Control_c, 0, 64, 0
2, 72089, Control_c, 0, 64, 127
2, 72200, Note_on_c, 0, 74, 78
2, 72202, Note_on_c, 0, 72, 0
2, 72408, Note_on_c, 0, 74, 0
2, 72413, Note_on_c, 0, 46, 0
2, 72438, Note_on_c, 0, 56, 0
2, 72453, Note_on_c, 0, 75, 77
2, 72641, Note_on_c, 0, 75, 0
2, 72689, Note_on_c, 0, 77, 66
2, 72799, Note_on_c, 0, 77, 0
2, 72914, Control_c, 0, 64, 0
2, 72923, Note_on_c, 0, 71, 50
2, 72927, Note_on_c, 0, 79, 55
2, 72931, Note_on_c, 0, 51, 39
2, 72935, Note_on_c, 0, 59, 32
2, 72938, Note_on_c, 0, 67, 30
2, 73082, Control_c, 0, 64, 127
2, 73424, Note_on_c, 0, 71, 0
2, 73484, Note_on_c, 0, 67, 0
2, 73612, Note_on_c, 0, 79, 0
2, 73920, Note_on_c, 0, 59, 0
2, 73959, Note_on_c, 0, 60, 35
2, 73963, Note_on_c, 0, 79, 43
2, 73969, Note_on_c, 0, 67, 34
2, 73978, Note_on_c, 0, 72, 40
2, 73998, Control_c, 0, 64, 0
2, 74123, Control_c, 0, 64, 127
2, 74473, Note_on_c, 0, 51, 0
2, 74487, Note_on_c, 0, 67, 0
2, 74490, Note_on_c, 0, 72, 0
2, 74512, Note_on_c, 0, 60, 0
2, 74566, Note_on_c, 0, 79, 0
2, 74924, Control_c, 0, 64, 0
2, 74929, Note_on_c, 0, 82, 50
2, 74939, Note_on_c, 0, 73, 32
2, 74951, Note_on_c, 0, 62, 28
2, 74963, Note_on_c, 0, 52, 27
2, 75049, Control_c, 0, 64, 127
2, 75528, Note_on_c, 0, 62, 0
2, 75598, Note_on_c, 0, 73, 0
2, 75689, Note_on_c, 0, 82, 0
2, 75855, Note_on_c, 0, 82, 46
2, 75864, Note_on_c, 0, 73, 35
2, 75867, Control_c, 0, 64, 0
2, 75868, Note_on_c, 0, 64, 38
2, 75983, Control_c, 0, 64, 127
2, 76319, Note_on_c, 0, 52, 0
2, 76337, Note_on_c, 0, 73, 0
2, 76423, Note_on_c, 0, 82, 0
2, 76454, Note_on_c, 0, 64, 0
2, 76838, Note_on_c, 0, 68, 52
2, 76851, Note_on_c, 0, 72, 49
2, 76867, Control_c, 0, 64, 0
2, 76868, Note_on_c, 0, 75, 38
2, 77068, Control_c, 0, 64, 127
2, 77184, Control_c, 0, 64, 0
2, 77210, Note_on_c, 0, 67, 34
2, 77326, Control_c, 0, 64, 127
2, 77560, Note_on_c, 0, 72, 0
2, 77564, Note_on_c, 0, 68, 0
2, 77592, Note_on_c, 0, 75, 0
2, 77693, Control_c, 0, 64, 0
2, 77695, Note_on_c, 0, 67, 0
2, 77699, Note_on_c, 0, 75, 36
2, 77701, Note_on_c, 0, 68, 36
2, 77717, Note_on_c, 0, 65, 32
2, 77718, Note_on_c, 0, 72, 36
2, 77818, Control_c, 0, 64, 127
2, 77957, Note_on_c, 0, 65, 0
2, 78197, Note_on_c, 0, 72, 0
2, 78212, Note_on_c, 0, 68, 0
2, 78246, Note_on_c, 0, 75, 0
2, 78530, Note_on_c, 0, 46, 44
2, 78644, Control_c, 0, 64, 0
2, 78650, Note_on_c, 0, 46, 0
2, 78721, Note_on_c, 0, 67, 36
2, 78728, Note_on_c, 0, 62, 32
2, 78729, Note_on_c, 0, 56, 46
2, 78811, Control_c, 0, 64, 127
2, 78876, Note_on_c, 0, 62, 0
2, 78907, Note_on_c, 0, 67, 0
2, 78935, Note_on_c, 0, 56, 0
2, 79016, Note_on_c, 0, 77, 64
2, 79082, Note_on_c, 0, 77, 0
2, 79635, Note_on_c, 0, 74, 74
2, 79644, Control_c, 0, 64, 0
2, 79649, Note_on_c, 0, 56, 39
2, 79649, Note_on_c, 0, 67, 30
2, 79669, Note_on_c, 0, 62, 27
2, 79726, Note_on_c, 0, 74, 0
2, 79942, Note_on_c, 0, 75, 73
2, 80060, Note_on_c, 0, 75, 0
2, 80151, Note_on_c, 0, 72, 29
2, 80211, Control_c, 0, 64, 127
2, 80326, Note_on_c, 0, 72, 0
2, 80334, Note_on_c, 0, 67, 0
2, 80362, Note_on_c, 0, 62, 0
2, 80422, Note_on_c, 0, 74, 56
2, 80452, Note_on_c, 0, 56, 0
2, 80545, Control_c, 0, 64, 0
2, 80554, Note_on_c, 0, 74, 0
2, 80612, Note_on_c, 0, 63, 35
2, 80617, Note_on_c, 0, 55, 30
2, 80620, Note_on_c, 0, 75, 59
2, 80633, Note_on_c, 0, 67, 39
2, 80662, Control_c, 0, 64, 127
2, 80746, Note_on_c, 0, 63, 0
2, 80789, Note_on_c, 0, 75, 0
2, 80797, Note_on_c, 0, 55, 0
2, 80829, Note_on_c, 0, 67, 0
2, 81570, Control_c, 0, 64, 0
2, 81611, Note_on_c, 0, 67, 20
2, 81613, Note_on_c, 0, 58, 36
2, 81615, Note_on_c, 0, 63, 31
2, 81620, Note_on_c, 0, 51, 31
2, 81624, Note_on_c, 0, 55, 18
2, 81625, Note_on_c, 0, 43, 24
2, 81763, Control_c, 0, 64, 127
2, 81849, Note_on_c, 0, 55, 0
2, 81852, Note_on_c, 0, 43, 0
2, 81857, Note_on_c, 0, 58, 0
2, 81886, Note_on_c, 0, 63, 0
2, 81890, Note_on_c, 0, 67, 0
2, 81893, Note_on_c, 0, 51, 0
2, 81938, Control_c, 0, 64, 0
2, 81978, Note_on_c, 0, 67, 36
2, 81980, Note_on_c, 0, 58, 55
2, 81984, Note_on_c, 0, 55, 37
2, 81987, Note_on_c, 0, 63, 36
2, 81988, Note_on_c, 0, 51, 46
2, 81993, Note_on_c, 0, 43, 29
2, 82023, Note_on_c, 0, 55, 0
2, 82036, Note_on_c, 0, 58, 0
2, 82042, Note_on_c, 0, 43, 0
2, 82045, Note_on_c, 0, 51, 0
2, 82052, Note_on_c, 0, 67, 0
2, 82059, Note_on_c, 0, 63, 0
2, 82429, Control_c, 0, 64, 127
2, 82580, Control_c, 0, 64, 0
2, 82640, Note_on_c, 0, 36, 30
2, 82653, Note_on_c, 0, 61, 31
2, 82660, Note_on_c, 0, 58, 20
2, 82664, Note_on_c, 0, 64, 35
2, 82837, Note_on_c, 0, 36, 0
2, 82863, Note_on_c, 0, 58, 0
2, 82884, Note_on_c, 0, 64, 0
2, 82888, Note_on_c, 0, 61, 0
2, 82971, Note_on_c, 0, 36, 20
2, 82977, Note_on_c, 0, 64, 33
2, 82982, Note_on_c, 0, 61, 45
2, 82989, Note_on_c, 0, 58, 36
2, 83000, Note_on_c, 0, 52, 24
2, 83031, Note_on_c, 0, 58, 0
2, 83050, Note_on_c, 0, 52, 0
2, 83055, Note_on_c, 0, 61, 0
2, 83072, Note_on_c, 0, 64, 0
2, 83085, Note_on_c, 0, 36, 0
2, 83323, Control_c, 0, 64, 127
2, 83497, Control_c, 0, 64, 0
2, 83545, Note_on_c, 0, 61, 47
2, 83547, Note_on_c, 0, 58, 49
2, 83551, Note_on_c, 0, 68, 42
2, 83554, Note_on_c, 0, 64, 40
2, 83558, Note_on_c, 0, 52, 39
2, 83597, Control_c, 0, 64, 127
2, 83805, Note_on_c, 0, 58, 0
2, 83812, Note_on_c, 0, 68, 0
2, 83819, Note_on_c, 0, 64, 0
2, 83826, Note_on_c, 0, 61, 0
2, 83890, Note_on_c, 0, 52, 0
2, 83893, Note_on_c, 0, 61, 61
2, 83898, Control_c, 0, 64, 0
2, 83898, Note_on_c, 0, 58, 51
2, 83901, Note_on_c, 0, 64, 39
2, 83904, Note_on_c, 0, 67, 48
2, 83917, Note_on_c, 0, 48, 44
2, 83997, Control_c, 0, 64, 127
2, 84237, Note_on_c, 0, 58, 0
2, 84276, Note_on_c, 0, 64, 0
2, 84301, Note_on_c, 0, 61, 0
2, 84363, Note_on_c, 0, 67, 0
2, 84472, Control_c, 0, 64, 0
2, 84480, Note_on_c, 0, 67, 40
2, 84497, Note_on_c, 0, 63, 38
2, 84503, Note_on_c, 0, 56, 49
2, 84522, Note_on_c, 0, 51, 29
2, 84532, Note_on_c, 0, 41, 33
2, 84566, Note_on_c, 0, 48, 0
2, 84606, Control_c, 0, 64, 127
2, 84966, Note_on_c, 0, 63, 0
2, 85092, Note_on_c, 0, 56, 0
2, 85324, Note_on_c, 0, 51, 0
2, 85440, Note_on_c, 0, 67, 0
2, 85448, Note_on_c, 0, 51, 36
2, 85452, Note_on_c, 0, 62, 60
2, 85453, Note_on_c, 0, 56, 59
2, 85457, Control_c, 0, 64, 0
2, 85582, Control_c, 0, 64, 127
2, 85706, Note_on_c, 0, 62, 57
2, 85914, Note_on_c, 0, 62, 0
2, 85952, Note_on_c, 0, 63, 77
2, 85986, Note_on_c, 0, 62, 0
2, 86018, Note_on_c, 0, 41, 0
2, 86157, Note_on_c, 0, 51, 0
2, 86222, Note_on_c, 0, 56, 0
2, 86311, Note_on_c, 0, 63, 0
2, 86354, Note_on_c, 0, 60, 61
2, 86357, Note_on_c, 0, 56, 61
2, 86366, Note_on_c, 0, 46, 46
2, 86391, Control_c, 0, 64, 0
2, 86400, Note_on_c, 0, 53, 22
2, 86566, Control_c, 0, 64, 127
2, 87061, Note_on_c, 0, 62, 49
2, 87201, Note_on_c, 0, 56, 0
2, 87214, Note_on_c, 0, 46, 0
2, 87273, Note_on_c, 0, 62, 0
2, 87315, Note_on_c, 0, 46, 51
2, 87320, Note_on_c, 0, 63, 69
2, 87328, Note_on_c, 0, 56, 58
2, 87448, Note_on_c, 0, 60, 0
2, 87508, Note_on_c, 0, 63, 0
2, 87560, Note_on_c, 0, 56, 0
2, 87650, Note_on_c, 0, 65, 59
2, 87653, Note_on_c, 0, 60, 58
2, 87690, Note_on_c, 0, 53, 0
2, 87774, Note_on_c, 0, 65, 0
2, 87783, Note_on_c, 0, 46, 0
2, 87817, Note_on_c, 0, 60, 0
2, 87959, Control_c, 0, 64, 0
2, 87978, Note_on_c, 0, 61, 48
2, 87984, Note_on_c, 0, 66, 53
2, 87991, Note_on_c, 0, 50, 36
2, 88004, Note_on_c, 0, 54, 34
2, 88008, Control_c, 0, 64, 127
2, 88112, Note_on_c, 0, 54, 0
2, 88199, Note_on_c, 0, 61, 0
2, 88211, Note_on_c, 0, 66, 0
2, 88250, Control_c, 0, 64, 0
2, 88269, Note_on_c, 0, 50, 0
2, 88299, Note_on_c, 0, 67, 48
2, 88306, Note_on_c, 0, 62, 38
2, 88318, Note_on_c, 0, 51, 45
2, 88322, Note_on_c, 0, 55, 22
2, 88385, Control_c, 0, 64, 127
2, 88434, Note_on_c, 0, 55, 0
2, 88476, Note_on_c, 0, 67, 0
2, 88477, Note_on_c, 0, 62, 0
2, 88652, Control_c, 0, 64, 0
2, 88661, Note_on_c, 0, 60, 46
2, 88662, Note_on_c, 0, 70, 49
2, 88668, Note_on_c, 0, 65, 53
2, 88677, Note_on_c, 0, 55, 50
2, 88742, Control_c, 0, 64, 127
2, 88770, Note_on_c, 0, 51, 0
2, 88906, Note_on_c, 0, 60, 0
2, 88964, Note_on_c, 0, 65, 0
2, 88964, Note_on_c, 0, 70, 0
2, 89246, Note_on_c, 0, 74, 58
2, 89252, Note_on_c, 0, 70, 62
2, 89256, Note_on_c, 0, 67, 49
2, 89259, Control_c, 0, 64, 0
2, 89283, Note_on_c, 0, 58, 37
2, 89287, Note_on_c, 0, 55, 0
2, 89343, Control_c, 0, 64, 127
2, 89360, Note_on_c, 0, 70, 0
2, 89364, Note_on_c, 0, 74, 0
2, 89484, Note_on_c, 0, 67, 0
2, 89593, Control_c, 0, 64, 0
2, 89595, Note_on_c, 0, 77, 72
2, 89600, Note_on_c, 0, 70, 64
2, 89603, Note_on_c, 0, 58, 0
2, 89603, Note_on_c, 0, 64, 20
2, 89604, Note_on_c, 0, 67, 57
2, 89621, Note_on_c, 0, 62, 20
2, 89693, Control_c, 0, 64, 127
2, 89712, Note_on_c, 0, 62, 0
2, 89720, Note_on_c, 0, 77, 0
2, 89734, Note_on_c, 0, 64, 0
2, 89748, Note_on_c, 0, 70, 0
2, 89801, Note_on_c, 0, 67, 0
2, 89890, Note_on_c, 0, 74, 61
2, 89903, Note_on_c, 0, 67, 46
2, 89915, Note_on_c, 0, 65, 44
2, 89921, Note_on_c, 0, 58, 49
2, 89960, Note_on_c, 0, 65, 0
2, 89999, Note_on_c, 0, 67, 0
2, 90009, Note_on_c, 0, 74, 0
2, 90135, Note_on_c, 0, 58, 0
2, 90210, Control_c, 0, 64, 0
2, 90217, Note_on_c, 0, 65, 44
2, 90217, Note_on_c, 0, 70, 40
2, 90220, Note_on_c, 0, 55, 31
2, 90222, Note_on_c, 0, 60, 36
2, 90333, Note_on_c, 0, 55, 0
2, 90336, Control_c, 0, 64, 127
2, 90403, Note_on_c, 0, 70, 0
2, 90410, Note_on_c, 0, 60, 0
2, 90416, Note_on_c, 0, 65, 0
2, 90477, Control_c, 0, 64, 0
2, 90486, Note_on_c, 0, 69, 40
2, 90491, Note_on_c, 0, 59, 39
2, 90492, Note_on_c, 0, 54, 31
2, 90493, Note_on_c, 0, 64, 48
2, 90577, Control_c, 0, 64, 127
2, 90589, Note_on_c, 0, 69, 0
2, 90615, Note_on_c, 0, 59, 0
2, 90644, Note_on_c, 0, 64, 0
2, 90711, Control_c, 0, 64, 0
2, 90725, Note_on_c, 0, 70, 62
2, 90729, Note_on_c, 0, 60, 50
2, 90730, Note_on_c, 0, 65, 55
2, 90742, Note_on_c, 0, 55, 41
2, 90744, Note_on_c, 0, 54, 0
2, 90861, Control_c, 0, 64, 127
2, 91031, Note_on_c, 0, 60, 0
2, 91038, Note_on_c, 0, 65, 0
2, 91044, Note_on_c, 0, 55, 0
2, 91061, Note_on_c, 0, 70, 0
2, 91136, Control_c, 0, 64, 0
2, 91150, Note_on_c, 0, 70, 49
2, 91158, Note_on_c, 0, 55, 34
2, 91159, Note_on_c, 0, 65, 51
2, 91167, Note_on_c, 0, 60, 43
2, 91236, Control_c, 0, 64, 127
2, 91691, Note_on_c, 0, 60, 0
2, 91731, Note_on_c, 0, 70, 0
2, 91752, Note_on_c, 0, 65, 0
2, 91767, Note_on_c, 0, 55, 0
2, 92137, Control_c, 0, 64, 0
2, 92151, Note_on_c, 0, 73, 38
2, 92168, Note_on_c, 0, 61, 33
2, 92171, Note_on_c, 0, 46, 34
2, 92173, Note_on_c, 0, 56, 32
2, 92174, Note_on_c, 0, 65, 41
2, 92245, Control_c, 0, 64, 127
2, 92405, Note_on_c, 0, 46, 0
2, 92459, Note_on_c, 0, 61, 0
2, 92461, Note_on_c, 0, 56, 0
2, 92475, Note_on_c, 0, 65, 0
2, 92590, Note_on_c, 0, 73, 0
2, 93171, Note_on_c, 0, 61, 40
2, 93172, Note_on_c, 0, 65, 33
2, 93238, Control_c, 0, 64, 0
2, 93271, Control_c, 0, 64, 127
2, 93616, Note_on_c, 0, 73, 21
2, 93642, Note_on_c, 0, 65, 0
2, 93644, Note_on_c, 0, 73, 0
2, 93738, Note_on_c, 0, 61, 0
2, 93819, Note_on_c, 0, 73, 60
2, 93885, Note_on_c, 0, 73, 0
2, 93915, Note_on_c, 0, 75, 55
2, 93989, Note_on_c, 0, 73, 35
2, 94054, Note_on_c, 0, 75, 0
2, 94105, Note_on_c, 0, 72, 47
2, 94106, Note_on_c, 0, 73, 0
2, 94139, Control_c, 0, 64, 0
2, 94144, Note_on_c, 0, 52, 40
2, 94158, Note_on_c, 0, 48, 50
2, 94181, Note_on_c, 0, 72, 0
2, 94242, Note_on_c, 0, 58, 35
2, 94242, Note_on_c, 0, 64, 19
2, 94242, Note_on_c, 0, 70, 29
2, 94242, Note_on_c, 0, 73, 52
2, 94347, Control_c, 0, 64, 127
2, 94624, Note_on_c, 0, 52, 0
2, 94634, Note_on_c, 0, 73, 0
2, 94638, Note_on_c, 0, 48, 0
2, 94677, Note_on_c, 0, 70, 0
2, 94727, Note_on_c, 0, 64, 0
2, 94746, Note_on_c, 0, 58, 0
2, 95047, Note_on_c, 0, 73, 60
2, 95093, Note_on_c, 0, 61, 44
2, 95097, Control_c, 0, 64, 0
2, 95102, Note_on_c, 0, 67, 43
2, 95105, Note_on_c, 0, 52, 31
2, 95114, Note_on_c, 0, 48, 36
2, 95153, Note_on_c, 0, 58, 40
2, 95222, Control_c, 0, 64, 127
2, 95513, Note_on_c, 0, 58, 0
2, 95561, Note_on_c, 0, 67, 0
2, 95628, Note_on_c, 0, 52, 0
2, 95644, Note_on_c, 0, 61, 0
2, 95651, Note_on_c, 0, 48, 0
2, 95807, Note_on_c, 0, 73, 0
2, 96019, Note_on_c, 0, 63, 48
2, 96025, Note_on_c, 0, 72, 60
2, 96026, Note_on_c, 0, 53, 36
2, 96040, Control_c, 0, 64, 0
2, 96206, Control_c, 0, 64, 127
2, 96494, Note_on_c, 0, 56, 67
2, 96564, Note_on_c, 0, 53, 0
2, 96768, Note_on_c, 0, 63, 0
2, 96781, Note_on_c, 0, 72, 0
2, 96927, Note_on_c, 0, 60, 45
2, 97040, Note_on_c, 0, 60, 0
2, 97413, Note_on_c, 0, 60, 36
2, 97741, Note_on_c, 0, 60, 0
2, 97820, Note_on_c, 0, 56, 0
2, 97910, Note_on_c, 0, 84, 81
2, 97916, Control_c, 0, 64, 0
2, 97918, Note_on_c, 0, 77, 81
2, 97922, Note_on_c, 0, 72, 76
2, 97932, Note_on_c, 0, 60, 34
2, 97983, Note_on_c, 0, 60, 0
2, 98042, Control_c, 0, 64, 127
2, 98353, Note_on_c, 0, 51, 73
2, 98383, Note_on_c, 0, 84, 0
2, 98407, Note_on_c, 0, 77, 0
2, 98448, Note_on_c, 0, 72, 0
2, 98809, Note_on_c, 0, 68, 63
2, 98812, Note_on_c, 0, 60, 57
2, 98817, Note_on_c, 0, 65, 60
2, 98825, Note_on_c, 0, 56, 59
2, 98842, Control_c, 0, 64, 0
2, 98925, Control_c, 0, 64, 127
2, 99103, Note_on_c, 0, 51, 0
2, 99266, Note_on_c, 0, 51, 68
2, 99313, Note_on_c, 0, 60, 0
2, 99373, Note_on_c, 0, 65, 0
2, 99439, Note_on_c, 0, 56, 0
2, 99440, Note_on_c, 0, 68, 0
2, 99466, Note_on_c, 0, 51, 0
2, 99717, Control_c, 0, 64, 0
2, 99723, Note_on_c, 0, 50, 79
2, 99842, Control_c, 0, 64, 127
2, 100109, Note_on_c, 0, 74, 78
2, 100112, Note_on_c, 0, 72, 38
2, 100116, Note_on_c, 0, 68, 76
2, 100122, Note_on_c, 0, 65, 68
2, 100135, Control_c, 0, 64, 0
2, 100136, Note_on_c, 0, 56, 63
2, 100137, Note_on_c, 0, 60, 58
2, 100251, Control_c, 0, 64, 127
2, 100320, Note_on_c, 0, 74, 0
2, 100335, Note_on_c, 0, 68, 0
2, 100341, Note_on_c, 0, 65, 0
2, 100345, Note_on_c, 0, 72, 0
2, 100348, Note_on_c, 0, 60, 0
2, 100375, Note_on_c, 0, 56, 0
2, 100437, Note_on_c, 0, 72, 71
2, 100437, Note_on_c, 0, 56, 55
2, 100446, Note_on_c, 0, 65, 78
2, 100448, Note_on_c, 0, 60, 40
2, 100597, Note_on_c, 0, 60, 0
2, 100617, Note_on_c, 0, 65, 0
2, 100621, Note_on_c, 0, 72, 0
2, 100647, Note_on_c, 0, 56, 0
2, 100710, Control_c, 0, 64, 0
2, 100731, Note_on_c, 0, 53, 43
2, 100736, Note_on_c, 0, 65, 44
2, 100739, Note_on_c, 0, 70, 52
2, 100751, Note_on_c, 0, 56, 40
2, 100753, Note_on_c, 0, 60, 47
2, 100784, Control_c, 0, 64, 127
2, 100992, Note_on_c, 0, 50, 0
2, 101093, Note_on_c, 0, 70, 0
2, 101097, Note_on_c, 0, 60, 0
2, 101137, Note_on_c, 0, 56, 0
2, 101170, Note_on_c, 0, 53, 0
2, 101180, Note_on_c, 0, 65, 0
2, 101509, Note_on_c, 0, 68, 49
2, 101518, Note_on_c, 0, 63, 51
2, 101600, Note_on_c, 0, 68, 0
2, 101642, Note_on_c, 0, 63, 0
2, 101761, Control_c, 0, 64, 0
2, 101782, Note_on_c, 0, 63, 49
2, 101786, Note_on_c, 0, 43, 27
2, 101804, Note_on_c, 0, 59, 28
2, 101805, Note_on_c, 0, 67, 35
2, 101807, Note_on_c, 0, 53, 18
2, 101905, Note_on_c, 0, 64, 32
2, 101915, Note_on_c, 0, 63, 0
2, 101986, Note_on_c, 0, 59, 0
2, 102048, Note_on_c, 0, 64, 0
2, 102058, Note_on_c, 0, 63, 55
2, 102062, Note_on_c, 0, 59, 18
2, 102239, Note_on_c, 0, 63, 0
2, 102286, Note_on_c, 0, 62, 33
2, 102353, Control_c, 0, 64, 127
2, 102586, Note_on_c, 0, 59, 0
2, 102611, Note_on_c, 0, 43, 0
2, 102708, Note_on_c, 0, 43, 19
2, 102712, Note_on_c, 0, 62, 0
2, 102721, Note_on_c, 0, 67, 0
2, 102739, Note_on_c, 0, 59, 30
2, 102916, Note_on_c, 0, 59, 0
2, 103020, Note_on_c, 0, 53, 0
2, 103055, Note_on_c, 0, 65, 35
2, 103070, Note_on_c, 0, 50, 31
2, 103074, Note_on_c, 0, 59, 34
2, 103083, Note_on_c, 0, 56, 28
2, 103087, Control_c, 0, 64, 0
2, 103215, Note_on_c, 0, 50, 0
2, 103228, Note_on_c, 0, 43, 0
2, 103382, Note_on_c, 0, 46, 43
2, 103470, Note_on_c, 0, 46, 0
2, 103524, Note_on_c, 0, 59, 0
2, 103537, Control_c, 0, 64, 127
2, 103549, Note_on_c, 0, 56, 0
2, 103560, Note_on_c, 0, 47, 35
2, 103585, Note_on_c, 0, 65, 0
2, 103595, Control_c, 0, 64, 0
2, 103693, Note_on_c, 0, 47, 0
2, 103720, Note_on_c, 0, 55, 32
2, 103727, Note_on_c, 0, 60, 32
2, 103730, Note_on_c, 0, 48, 34
2, 103730, Note_on_c, 0, 63, 27
2, 103762, Control_c, 0, 64, 127
2, 104266, Note_on_c, 0, 48, 0
2, 104311, Note_on_c, 0, 60, 0
2, 104319, Note_on_c, 0, 55, 0
2, 104472, Note_on_c, 0, 63, 0
2, 104652, Note_on_c, 0, 63, 48
2, 104654, Control_c, 0, 64, 0
2, 104666, Note_on_c, 0, 59, 43
2, 104670, Note_on_c, 0, 47, 35
2, 104672, Note_on_c, 0, 55, 30
2, 104796, Control_c, 0, 64, 127
2, 104957, Note_on_c, 0, 55, 0
2, 105152, Note_on_c, 0, 63, 0
2, 105158, Note_on_c, 0, 59, 0
2, 105227, Note_on_c, 0, 47, 0
2, 105621, Control_c, 0, 64, 0
2, 105639, Note_on_c, 0, 63, 37
2, 105644, Note_on_c, 0, 58, 35
2, 105644, Note_on_c, 0, 67, 32
2, 105656, Note_on_c, 0, 34, 32
2, 105658, Note_on_c, 0, 46, 29
2, 105756, Control_c, 0, 64, 127
2, 106010, Note_on_c, 0, 58, 0
2, 106034, Note_on_c, 0, 67, 0
2, 106041, Note_on_c, 0, 34, 0
2, 106108, Note_on_c, 0, 46, 0
2, 106126, Note_on_c, 0, 63, 0
2, 106578, Note_on_c, 0, 79, 47
2, 106581, Note_on_c, 0, 70, 47
2, 106585, Note_on_c, 0, 75, 40
2, 106600, Note_on_c, 0, 63, 38
2, 106728, Note_on_c, 0, 63, 0
2, 106738, Note_on_c, 0, 79, 0
2, 106818, Note_on_c, 0, 70, 0
2, 106842, Note_on_c, 0, 75, 0
2, 107465, Control_c, 0, 64, 0
2, 107491, Note_on_c, 0, 60, 38
2, 107494, Note_on_c, 0, 55, 27
2, 107505, Note_on_c, 0, 51, 32
2, 107511, Note_on_c, 0, 45, 36
2, 107581, Control_c, 0, 64, 127
2, 107623, Note_on_c, 0, 55, 0
2, 107664, Note_on_c, 0, 60, 0
2, 107669, Note_on_c, 0, 45, 0
2, 107708, Note_on_c, 0, 51, 0
2, 108100, Note_on_c, 0, 55, 58
2, 108101, Note_on_c, 0, 57, 71
2, 108103, Note_on_c, 0, 84, 81
2, 108105, Note_on_c, 0, 63, 88
2, 108105, Note_on_c, 0, 60, 55
2, 108110, Note_on_c, 0, 79, 75
2, 108111, Note_on_c, 0, 72, 81
2, 108116, Note_on_c, 0, 82, 55
2, 108145, Note_on_c, 0, 82, 0
2, 108355, Note_on_c, 0, 55, 0
2, 108372, Note_on_c, 0, 72, 0
2, 108382, Note_on_c, 0, 84, 0
2, 108390, Note_on_c, 0, 57, 0
2, 108392, Note_on_c, 0, 63, 0
2, 108398, Note_on_c, 0, 79, 0
2, 108422, Note_on_c, 0, 60, 0
2, 108480, Note_on_c, 0, 63, 78
2, 108484, Note_on_c, 0, 60, 74
2, 108486, Note_on_c, 0, 84, 77
2, 108488, Note_on_c, 0, 57, 66
2, 108489, Note_on_c, 0, 79, 77
2, 108491, Note_on_c, 0, 55, 66
2, 108493, Note_on_c, 0, 72, 78
2, 108838, Note_on_c, 0, 55, 0
2, 108840, Note_on_c, 0, 63, 0
2, 108856, Note_on_c, 0, 79, 0
2, 108859, Note_on_c, 0, 72, 0
2, 108861, Note_on_c, 0, 57, 0
2, 108868, Note_on_c, 0, 84, 0
2, 108899, Note_on_c, 0, 60, 0
2, 109063, Note_on_c, 0, 84, 63
2, 109069, Note_on_c, 0, 79, 65
2, 109071, Note_on_c, 0, 63, 67
2, 109073, Note_on_c, 0, 60, 44
2, 109074, Note_on_c, 0, 72, 62
2, 109076, Note_on_c, 0, 55, 39
2, 109127, Note_on_c, 0, 63, 0
2, 109137, Note_on_c, 0, 72, 0
2, 109151, Note_on_c, 0, 60, 0
2, 109160, Note_on_c, 0, 55, 0
2, 109169, Note_on_c, 0, 79, 0
2, 109173, Note_on_c, 0, 84, 0
2, 109425, Control_c, 0, 64, 0
2, 109426, Note_on_c, 0, 44, 62
2, 109432, Note_on_c, 0, 87, 78
2, 109432, Note_on_c, 0, 32, 77
2, 109435, Note_on_c, 0, 75, 90
2, 109437, Note_on_c, 0, 83, 82
2, 109446, Note_on_c, 0, 42, 44
2, 109507, Note_on_c, 0, 42, 0
2, 109576, Control_c, 0, 64, 127
2, 109602, Note_on_c, 0, 32, 0
2, 109648, Note_on_c, 0, 44, 0
2, 109804, Note_on_c, 0, 75, 0
2, 109882, Note_on_c, 0, 83, 0
2, 109927, Note_on_c, 0, 87, 0
2, 110056, Note_on_c, 0, 63, 80
2, 110058, Note_on_c, 0, 54, 77
2, 110065, Note_on_c, 0, 59, 72
2, 110067, Note_on_c, 0, 58, 74
2, 110434, Note_on_c, 0, 106, 84
2, 110436, Note_on_c, 0, 102, 87
2, 110644, Note_on_c, 0, 106, 0
2, 110651, Note_on_c, 0, 102, 0
2, 110680, Note_on_c, 0, 106, 50
2, 110686, Note_on_c, 0, 101, 76
2, 110782, Note_on_c, 0, 106, 0
2, 110818, Note_on_c, 0, 101, 0
2, 110874, Note_on_c, 0, 99, 70
2, 111003, Note_on_c, 0, 59, 0
2, 111040, Note_on_c, 0, 99, 0
2, 111043, Note_on_c, 0, 98, 60
2, 111055, Note_on_c, 0, 63, 0
2, 111117, Note_on_c, 0, 58, 0
2, 111187, Note_on_c, 0, 97, 56
2, 111200, Note_on_c, 0, 54, 0
2, 111223, Note_on_c, 0, 98, 0
2, 111280, Note_on_c, 0, 58, 31
2, 111282, Note_on_c, 0, 62, 32
2, 111285, Note_on_c, 0, 57, 44
2, 111288, Note_on_c, 0, 55, 24
2, 111319, Control_c, 0, 64, 0
2, 111371, Note_on_c, 0, 96, 33
2, 111389, Note_on_c, 0, 97, 0
2, 111505, Note_on_c, 0, 96, 0
2, 111556, Note_on_c, 0, 101, 74
2, 111652, Control_c, 0, 64, 127
2, 111735, Note_on_c, 0, 101, 0
2, 111767, Note_on_c, 0, 98, 54
2, 111929, Note_on_c, 0, 98, 0
2, 111946, Note_on_c, 0, 57, 0
2, 111948, Note_on_c, 0, 62, 0
2, 111978, Note_on_c, 0, 89, 43
2, 112015, Note_on_c, 0, 58, 0
2, 112150, Note_on_c, 0, 89, 0
2, 112248, Note_on_c, 0, 62, 24
2, 112257, Note_on_c, 0, 58, 36
2, 112598, Note_on_c, 0, 53, 29
2, 112708, Note_on_c, 0, 53, 0
2, 112767, Note_on_c, 0, 62, 0
2, 112770, Note_on_c, 0, 55, 0
2, 112785, Note_on_c, 0, 58, 0
2, 112867, Note_on_c, 0, 53, 36
2, 112935, Note_on_c, 0, 53, 0
2, 113206, Note_on_c, 0, 52, 35
2, 113206, Note_on_c, 0, 58, 36
2, 113206, Note_on_c, 0, 60, 35
2, 113206, Note_on_c, 0, 63, 35
2, 113206, Note_on_c, 0, 70, 35
2, 113206, Note_on_c, 0, 68, 40
2, 113212, Control_c, 0, 64, 0
2, 113220, Note_on_c, 0, 66, 37
2, 113305, Note_on_c, 0, 58, 0
2, 113338, Control_c, 0, 64, 127
2, 113587, Note_on_c, 0, 68, 0
2, 113688, Note_on_c, 0, 66, 0
2, 113696, Note_on_c, 0, 58, 48
2, 113984, Note_on_c, 0, 58, 0
2, 114166, Note_on_c, 0, 70, 0
2, 114166, Note_on_c, 0, 52, 0
2, 114166, Note_on_c, 0, 60, 0
2, 114166, Note_on_c, 0, 63, 0
2, 114240, Note_on_c, 0, 42, 35
2, 114543, Note_on_c, 0, 70, 48
2, 114546, Note_on_c, 0, 61, 46
2, 114556, Note_on_c, 0, 64, 45
2, 114562, Note_on_c, 0, 58, 47
2, 114573, Note_on_c, 0, 66, 37
2, 114580, Control_c, 0, 64, 0
2, 114631, Control_c, 0, 64, 127
2, 114836, Note_on_c, 0, 64, 0
2, 114862, Note_on_c, 0, 61, 0
2, 114875, Note_on_c, 0, 58, 0
2, 114890, Note_on_c, 0, 66, 0
2, 114940, Note_on_c, 0, 70, 0
2, 115106, Control_c, 0, 64, 0
2, 115107, Note_on_c, 0, 70, 49
2, 115108, Note_on_c, 0, 60, 47
2, 115110, Note_on_c, 0, 58, 36
2, 115113, Note_on_c, 0, 63, 44
2, 115119, Note_on_c, 0, 67, 39
2, 115200, Note_on_c, 0, 42, 0
2, 115273, Control_c, 0, 64, 127
2, 115278, Note_on_c, 0, 58, 0
2, 115503, Note_on_c, 0, 41, 45
2, 115672, Note_on_c, 0, 60, 0
2, 115745, Note_on_c, 0, 70, 0
2, 115757, Note_on_c, 0, 48, 39
2, 115768, Note_on_c, 0, 67, 0
2, 115775, Note_on_c, 0, 63, 0
2, 116037, Note_on_c, 0, 63, 37
2, 116041, Note_on_c, 0, 70, 25
2, 116049, Note_on_c, 0, 56, 36
2, 116058, Note_on_c, 0, 55, 27
2, 116089, Control_c, 0, 64, 0
2, 116215, Control_c, 0, 64, 127
2, 116453, Note_on_c, 0, 56, 0
2, 116539, Note_on_c, 0, 41, 0
2, 116553, Note_on_c, 0, 48, 0
2, 116624, Note_on_c, 0, 63, 0
2, 116633, Note_on_c, 0, 55, 0
2, 116660, Note_on_c, 0, 70, 0
2, 117050, Note_on_c, 0, 74, 37
2, 117058, Note_on_c, 0, 67, 47
2, 117058, Control_c, 0, 64, 0
2, 117060, Note_on_c, 0, 62, 42
2, 117068, Note_on_c, 0, 56, 47
2, 117074, Note_on_c, 0, 46, 46
2, 117208, Control_c, 0, 64, 127
2, 117413, Note_on_c, 0, 74, 0
2, 117559, Note_on_c, 0, 62, 0
2, 117700, Note_on_c, 0, 75, 60
2, 117738, Note_on_c, 0, 56, 0
2, 117812, Note_on_c, 0, 67, 0
2, 117851, Note_on_c, 0, 75, 0
2, 118035, Note_on_c, 0, 62, 36
2, 118038, Note_on_c, 0, 72, 46
2, 118043, Note_on_c, 0, 56, 35
2, 118061, Note_on_c, 0, 67, 17
2, 118416, Note_on_c, 0, 46, 0
2, 118494, Note_on_c, 0, 56, 0
2, 118602, Note_on_c, 0, 72, 0
2, 118641, Note_on_c, 0, 62, 0
2, 118673, Note_on_c, 0, 74, 34
2, 118753, Note_on_c, 0, 74, 0
2, 118843, Note_on_c, 0, 67, 0
2, 118986, Note_on_c, 0, 75, 42
2, 118988, Note_on_c, 0, 63, 42
2, 118996, Note_on_c, 0, 67, 37
2, 118997, Note_on_c, 0, 70, 36
2, 119034, Control_c, 0, 64, 0
2, 119506, Note_on_c, 0, 58, 46
2, 119582, Note_on_c, 0, 58, 0
2, 119954, Note_on_c, 0, 58, 47
2, 120050, Control_c, 0, 64, 127
2, 120225, Note_on_c, 0, 58, 0
2, 120333, Note_on_c, 0, 58, 49
2, 120516, Note_on_c, 0, 58, 0
2, 120598, Note_on_c, 0, 67, 0
2, 120602, Note_on_c, 0, 75, 0
2, 120629, Note_on_c, 0, 70, 0
2, 120671, Note_on_c, 0, 63, 0
2, 120966, Note_on_c, 0, 63, 45
2, 120968, Note_on_c, 0, 59, 54
2, 120974, Note_on_c, 0, 65, 43
2, 121269, Control_c, 0, 64, 0
2, 121310, Note_on_c, 0, 58, 59
2, 121370, Note_on_c, 0, 58, 0
2, 121552, Control_c, 0, 64, 127
2, 121853, Control_c, 0, 64, 0
2, 121923, Note_on_c, 0, 58, 54
2, 121944, Control_c, 0, 64, 127
2, 122142, Note_on_c, 0, 58, 0
2, 122274, Note_on_c, 0, 58, 52
2, 122566, Note_on_c, 0, 58, 0
2, 122722, Note_on_c, 0, 59, 0
2, 122784, Note_on_c, 0, 65, 0
2, 122834, Note_on_c, 0, 63, 0
2, 122903, Control_c, 0, 64, 0
2, 122909, Note_on_c, 0, 63, 37
2, 122913, Note_on_c, 0, 67, 45
2, 122917, Note_on_c, 0, 60, 41
2, 123095, Control_c, 0, 64, 127
2, 123187, Control_c, 0, 64, 0
2, 123245, Note_on_c, 0, 58, 60
2, 123362, Note_on_c, 0, 58, 0
2, 123428, Control_c, 0, 64, 127
2, 123787, Control_c, 0, 64, 0
2, 123884, Note_on_c, 0, 58, 53
2, 123895, Control_c, 0, 64, 127
2, 124128, Note_on_c, 0, 60, 0
2, 124166, Note_on_c, 0, 67, 0
2, 124203, Note_on_c, 0, 68, 56
2, 124300, Note_on_c, 0, 58, 0
2, 124636, Note_on_c, 0, 68, 0
2, 124700, Note_on_c, 0, 63, 0
2, 124805, Control_c, 0, 64, 0
2, 124815, Note_on_c, 0, 64, 41
2, 124826, Note_on_c, 0, 59, 45
2, 124827, Note_on_c, 0, 62, 36
2, 124828, Note_on_c, 0, 69, 39
2, 124847, Note_on_c, 0, 56, 36
2, 124849, Note_on_c, 0, 46, 35
2, 124938, Control_c, 0, 64, 127
2, 125434, Note_on_c, 0, 59, 0
2, 125460, Note_on_c, 0, 62, 0
2, 125487, Note_on_c, 0, 64, 0
2, 125503, Note_on_c, 0, 69, 0
2, 125615, Note_on_c, 0, 56, 0
2, 125795, Note_on_c, 0, 65, 43
2, 125796, Note_on_c, 0, 56, 34
2, 125805, Control_c, 0, 64, 0
2, 125806, Note_on_c, 0, 60, 27
2, 125808, Note_on_c, 0, 86, 95
2, 125915, Note_on_c, 0, 60, 0
2, 125939, Note_on_c, 0, 65, 0
2, 126090, Note_on_c, 0, 86, 0
2, 126121, Note_on_c, 0, 87, 60
2, 126280, Note_on_c, 0, 87, 0
2, 126300, Note_on_c, 0, 84, 34
2, 126419, Note_on_c, 0, 46, 0
2, 126441, Note_on_c, 0, 56, 0
2, 126549, Note_on_c, 0, 84, 0
2, 126602, Note_on_c, 0, 86, 61
2, 126711, Note_on_c, 0, 86, 0
2, 126750, Note_on_c, 0, 65, 20
2, 126756, Note_on_c, 0, 60, 20
2, 126757, Note_on_c, 0, 62, 24
2, 126765, Note_on_c, 0, 55, 22
2, 126774, Note_on_c, 0, 87, 42
2, 126968, Note_on_c, 0, 87, 0
2, 127251, Note_on_c, 0, 87, 53
2, 127380, Note_on_c, 0, 87, 0
2, 127726, Note_on_c, 0, 87, 57
2, 127813, Note_on_c, 0, 87, 0
2, 128185, Note_on_c, 0, 55, 0
2, 128190, Note_on_c, 0, 62, 0
2, 128197, Note_on_c, 0, 87, 72
2, 128198, Note_on_c, 0, 60, 0
2, 128239, Note_on_c, 0, 65, 0
2, 128282, Note_on_c, 0, 87, 0
2, 128512, Note_on_c, 0, 87, 91
2, 128611, Note_on_c, 0, 87, 0
2, 128685, Note_on_c, 0, 87, 86
2, 128872, Note_on_c, 0, 87, 0
2, 129024, Note_on_c, 0, 87, 61
2, 129098, Note_on_c, 0, 87, 0
2, 129169, Note_on_c, 0, 87, 57
2, 129379, Note_on_c, 0, 87, 0
2, 129650, Note_on_c, 0, 87, 28
2, 129658, Note_on_c, 0, 63, 21
2, 129660, Note_on_c, 0, 67, 22
2, 129682, Note_on_c, 0, 60, 24
2, 129688, Note_on_c, 0, 58, 27
2, 129843, Note_on_c, 0, 58, 0
2, 129845, Note_on_c, 0, 67, 0
2, 129846, Note_on_c, 0, 87, 0
2, 129852, Note_on_c, 0, 60, 0
2, 129895, Note_on_c, 0, 63, 0
2, 130600, Note_on_c, 0, 63, 29
2, 130608, Note_on_c, 0, 56, 31
2, 130610, Note_on_c, 0, 67, 20
2, 130627, Note_on_c, 0, 60, 26
2, 130750, Note_on_c, 0, 60, 0
2, 130788, Note_on_c, 0, 63, 0
2, 130803, Note_on_c, 0, 56, 0
2, 130820, Note_on_c, 0, 67, 0
2, 131446, Note_on_c, 0, 67, 35
2, 131461, Note_on_c, 0, 63, 26
2, 131472, Note_on_c, 0, 60, 27
2, 131520, Note_on_c, 0, 67, 0
2, 131528, Note_on_c, 0, 60, 0
2, 131552, Note_on_c, 0, 63, 0
2, 131886, Note_on_c, 0, 74, 95
2, 132027, Note_on_c, 0, 74, 0
2, 132073, Note_on_c, 0, 75, 82
2, 132315, Note_on_c, 0, 75, 0
2, 132357, Note_on_c, 0, 72, 60
2, 132379, Note_on_c, 0, 67, 45
2, 132386, Note_on_c, 0, 62, 31
2, 132390, Note_on_c, 0, 56, 35
2, 132440, Note_on_c, 0, 72, 0
2, 132457, Note_on_c, 0, 67, 0
2, 132485, Note_on_c, 0, 56, 0
2, 132586, Note_on_c, 0, 74, 59
2, 132602, Note_on_c, 0, 62, 0
2, 132726, Note_on_c, 0, 74, 0
2, 132870, Note_on_c, 0, 74, 75
2, 132991, Note_on_c, 0, 74, 0
2, 133070, Note_on_c, 0, 75, 69
2, 133224, Note_on_c, 0, 75, 0
2, 133336, Note_on_c, 0, 75, 70
2, 133344, Note_on_c, 0, 67, 40
2, 133349, Note_on_c, 0, 62, 33
2, 133372, Note_on_c, 0, 56, 30
2, 133406, Note_on_c, 0, 67, 0
2, 133417, Note_on_c, 0, 56, 0
2, 133483, Note_on_c, 0, 75, 0
2, 133502, Note_on_c, 0, 62, 0
2, 133547, Note_on_c, 0, 77, 58
2, 133689, Note_on_c, 0, 77, 0
2, 133797, Note_on_c, 0, 77, 53
2, 133802, Note_on_c, 0, 62, 38
2, 133817, Note_on_c, 0, 56, 40
2, 133895, Note_on_c, 0, 56, 0
2, 133908, Note_on_c, 0, 77, 0
2, 133975, Note_on_c, 0, 78, 69
2, 133988, Note_on_c, 0, 66, 56
2, 134081, Control_c, 0, 64, 127
2, 134099, Note_on_c, 0, 78, 0
2, 134111, Note_on_c, 0, 66, 0
2, 134186, Note_on_c, 0, 62, 0
2, 134252, Note_on_c, 0, 78, 60
2, 134263, Note_on_c, 0, 66, 67
2, 134301, Note_on_c, 0, 62, 45
2, 134303, Control_c, 0, 64, 0
2, 134316, Note_on_c, 0, 65, 62
2, 134328, Note_on_c, 0, 60, 37
2, 134335, Note_on_c, 0, 66, 0
2, 134352, Note_on_c, 0, 65, 0
2, 134369, Note_on_c, 0, 78, 0
2, 134424, Note_on_c, 0, 62, 0
2, 134450, Note_on_c, 0, 60, 0
2, 134458, Note_on_c, 0, 66, 68
2, 134472, Note_on_c, 0, 78, 31
2, 134560, Note_on_c, 0, 78, 0
2, 134597, Note_on_c, 0, 66, 0
2, 134605, Note_on_c, 0, 67, 60
2, 134720, Note_on_c, 0, 67, 0
2, 134736, Note_on_c, 0, 79, 31
2, 134795, Note_on_c, 0, 79, 0
2, 134800, Note_on_c, 0, 67, 41
2, 134927, Note_on_c, 0, 79, 51
2, 134940, Note_on_c, 0, 67, 0
2, 135019, Note_on_c, 0, 79, 0
2, 135026, Note_on_c, 0, 67, 34
2, 135127, Note_on_c, 0, 79, 38
2, 135139, Note_on_c, 0, 67, 0
2, 135216, Note_on_c, 0, 79, 0
2, 135231, Note_on_c, 0, 67, 40
2, 135333, Note_on_c, 0, 79, 22
2, 135341, Note_on_c, 0, 67, 0
2, 135399, Note_on_c, 0, 62, 26
2, 135401, Note_on_c, 0, 65, 33
2, 135411, Note_on_c, 0, 60, 27
2, 135423, Note_on_c, 0, 79, 0
2, 135433, Note_on_c, 0, 67, 33
2, 135458, Note_on_c, 0, 65, 0
2, 135463, Note_on_c, 0, 62, 0
2, 135479, Note_on_c, 0, 60, 0
2, 135547, Note_on_c, 0, 67, 0
2, 135556, Note_on_c, 0, 79, 34
2, 135633, Note_on_c, 0, 67, 31
2, 135641, Note_on_c, 0, 79, 0
2, 135752, Note_on_c, 0, 67, 0
2, 135763, Note_on_c, 0, 79, 32
2, 135845, Note_on_c, 0, 79, 0
2, 135847, Note_on_c, 0, 67, 28
2, 135956, Note_on_c, 0, 67, 0
2, 135966, Note_on_c, 0, 79, 30
2, 136042, Note_on_c, 0, 67, 33
2, 136053, Note_on_c, 0, 79, 0
2, 136157, Note_on_c, 0, 67, 0
2, 136175, Note_on_c, 0, 79, 34
2, 136240, Note_on_c, 0, 67, 33
2, 136255, Note_on_c, 0, 79, 0
2, 136350, Note_on_c, 0, 64, 29
2, 136360, Note_on_c, 0, 61, 29
2, 136376, Note_on_c, 0, 58, 26
2, 136399, Note_on_c, 0, 79, 36
2, 136400, Note_on_c, 0, 67, 0
2, 136466, Note_on_c, 0, 64, 0
2, 136490, Note_on_c, 0, 79, 0
2, 136502, Note_on_c, 0, 67, 34
2, 136532, Note_on_c, 0, 61, 0
2, 136535, Note_on_c, 0, 58, 0
2, 136610, Note_on_c, 0, 67, 0
2, 136631, Note_on_c, 0, 79, 35
2, 136690, Note_on_c, 0, 79, 0
2, 136699, Note_on_c, 0, 67, 28
2, 136784, Note_on_c, 0, 67, 0
2, 137352, Note_on_c, 0, 64, 31
2, 137354, Note_on_c, 0, 61, 31
2, 137379, Note_on_c, 0, 58, 26
2, 137380, Note_on_c, 0, 55, 26
2, 137420, Control_c, 0, 64, 127
2, 137848, Note_on_c, 0, 55, 0
2, 137872, Note_on_c, 0, 58, 0
2, 137890, Note_on_c, 0, 64, 0
2, 137897, Note_on_c, 0, 61, 0
2, 138218, Control_c, 0, 64, 0
2, 138235, Note_on_c, 0, 82, 85
2, 138239, Note_on_c, 0, 75, 90
2, 138241, Note_on_c, 0, 79, 74
2, 138247, Note_on_c, 0, 72, 79
2, 138256, Note_on_c, 0, 67, 70
2, 138431, Control_c, 0, 64, 127
2, 138597, Note_on_c, 0, 79, 0
2, 138632, Note_on_c, 0, 72, 0
2, 138658, Note_on_c, 0, 75, 0
2, 138665, Note_on_c, 0, 82, 0
2, 138691, Control_c, 0, 64, 0
2, 138714, Note_on_c, 0, 80, 65
2, 138718, Note_on_c, 0, 75, 67
2, 138721, Note_on_c, 0, 72, 58
2, 138735, Note_on_c, 0, 65, 53
2, 138748, Note_on_c, 0, 67, 0
2, 138788, Control_c, 0, 64, 127
2, 138902, Note_on_c, 0, 75, 0
2, 138905, Note_on_c, 0, 80, 0
2, 138937, Note_on_c, 0, 72, 0
2, 139153, Control_c, 0, 64, 0
2, 139200, Note_on_c, 0, 79, 61
2, 139206, Note_on_c, 0, 68, 56
2, 139207, Note_on_c, 0, 72, 58
2, 139217, Note_on_c, 0, 75, 49
2, 139218, Note_on_c, 0, 63, 54
2, 139253, Note_on_c, 0, 65, 0
2, 139297, Control_c, 0, 64, 127
2, 139495, Note_on_c, 0, 72, 0
2, 139511, Note_on_c, 0, 68, 0
2, 139519, Note_on_c, 0, 79, 0
2, 139530, Note_on_c, 0, 75, 0
2, 139640, Note_on_c, 0, 63, 0
2, 139682, Note_on_c, 0, 77, 62
2, 139690, Note_on_c, 0, 62, 38
2, 139698, Note_on_c, 0, 68, 53
2, 139707, Note_on_c, 0, 72, 50
2, 139724, Note_on_c, 0, 75, 29
2, 139756, Note_on_c, 0, 62, 0
2, 139793, Note_on_c, 0, 77, 0
2, 139798, Note_on_c, 0, 72, 0
2, 139810, Note_on_c, 0, 75, 0
2, 139831, Note_on_c, 0, 68, 0
2, 140157, Note_on_c, 0, 74, 64
2, 140169, Note_on_c, 0, 71, 58
2, 140174, Control_c, 0, 64, 0
2, 140182, Note_on_c, 0, 67, 58
2, 140189, Note_on_c, 0, 72, 44
2, 140193, Note_on_c, 0, 56, 48
2, 140202, Note_on_c, 0, 62, 44
2, 140450, Note_on_c, 0, 71, 0
2, 140579, Note_on_c, 0, 72, 0
2, 140583, Note_on_c, 0, 74, 0
2, 140599, Note_on_c, 0, 67, 0
2, 140606, Note_on_c, 0, 62, 0
2, 140642, Note_on_c, 0, 71, 70
2, 140647, Note_on_c, 0, 62, 20
2, 140668, Note_on_c, 0, 67, 31
2, 140672, Control_c, 0, 64, 127
2, 140711, Control_c, 0, 64, 0
2, 140741, Note_on_c, 0, 67, 0
2, 140750, Control_c, 0, 64, 127
2, 140799, Note_on_c, 0, 56, 0
2, 140926, Note_on_c, 0, 62, 0
2, 141041, Note_on_c, 0, 53, 28
2, 141065, Note_on_c, 0, 71, 0
2, 141096, Control_c, 0, 64, 0
2, 141128, Note_on_c, 0, 71, 73
2, 141136, Note_on_c, 0, 66, 76
2, 141138, Note_on_c, 0, 62, 64
2, 141147, Note_on_c, 0, 56, 68
2, 141192, Note_on_c, 0, 67, 54
2, 141200, Note_on_c, 0, 66, 0
2, 141207, Note_on_c, 0, 53, 0
2, 141482, Note_on_c, 0, 56, 0
2, 141488, Note_on_c, 0, 67, 0
2, 141490, Note_on_c, 0, 62, 0
2, 141500, Note_on_c, 0, 53, 30
2, 141550, Note_on_c, 0, 71, 0
2, 141595, Note_on_c, 0, 62, 47
2, 141597, Note_on_c, 0, 66, 73
2, 141598, Note_on_c, 0, 71, 69
2, 141612, Note_on_c, 0, 56, 74
2, 141655, Note_on_c, 0, 53, 0
2, 141663, Note_on_c, 0, 66, 0
2, 141670, Note_on_c, 0, 67, 46
2, 141731, Control_c, 0, 64, 127
2, 141884, Note_on_c, 0, 67, 0
2, 141901, Note_on_c, 0, 71, 0
2, 141959, Note_on_c, 0, 62, 0
2, 141969, Note_on_c, 0, 51, 46
2, 141989, Note_on_c, 0, 54, 52
2, 141990, Note_on_c, 0, 56, 0
2, 142049, Control_c, 0, 64, 0
2, 142062, Note_on_c, 0, 55, 77
2, 142066, Note_on_c, 0, 65, 79
2, 142067, Note_on_c, 0, 70, 78
2, 142071, Note_on_c, 0, 60, 71
2, 142122, Note_on_c, 0, 51, 0
2, 142132, Note_on_c, 0, 54, 0
2, 142395, Note_on_c, 0, 60, 0
2, 142396, Note_on_c, 0, 65, 0
2, 142397, Note_on_c, 0, 70, 0
2, 142425, Note_on_c, 0, 55, 0
2, 142536, Note_on_c, 0, 70, 61
2, 142539, Note_on_c, 0, 55, 32
2, 142550, Note_on_c, 0, 60, 48
2, 142551, Note_on_c, 0, 65, 63
2, 142736, Note_on_c, 0, 70, 0
2, 142772, Note_on_c, 0, 65, 0
2, 142821, Note_on_c, 0, 55, 0
2, 142824, Note_on_c, 0, 69, 33
2, 142826, Note_on_c, 0, 60, 0
2, 142833, Note_on_c, 0, 54, 55
2, 142931, Note_on_c, 0, 69, 0
2, 142981, Note_on_c, 0, 54, 0
2, 142982, Note_on_c, 0, 60, 41
2, 142989, Note_on_c, 0, 55, 45
2, 142992, Note_on_c, 0, 70, 35
2, 143001, Note_on_c, 0, 65, 43
2, 143207, Note_on_c, 0, 65, 0
2, 143213, Note_on_c, 0, 70, 0
2, 143252, Note_on_c, 0, 60, 0
2, 143281, Note_on_c, 0, 55, 0
2, 143332, Note_on_c, 0, 70, 55
2, 143341, Note_on_c, 0, 60, 44
2, 143357, Note_on_c, 0, 55, 42
2, 143361, Note_on_c, 0, 65, 42
2, 143457, Control_c, 0, 64, 127
2, 143712, Note_on_c, 0, 55, 0
2, 143942, Note_on_c, 0, 70, 0
2, 143962, Note_on_c, 0, 65, 0
2, 143995, Note_on_c, 0, 48, 80
2, 143998, Note_on_c, 0, 60, 0
2, 144034, Control_c, 0, 64, 0
2, 144174, Note_on_c, 0, 48, 0
2, 144304, Note_on_c, 0, 48, 35
2, 144381, Note_on_c, 0, 48, 0
2, 144415, Note_on_c, 0, 49, 42
2, 144510, Note_on_c, 0, 51, 45
2, 144513, Note_on_c, 0, 49, 0
2, 144572, Note_on_c, 0, 51, 0
2, 144584, Note_on_c, 0, 52, 55
2, 144653, Note_on_c, 0, 52, 0
2, 144672, Note_on_c, 0, 54, 60
2, 144744, Note_on_c, 0, 54, 0
2, 144759, Note_on_c, 0, 55, 57
2, 144860, Note_on_c, 0, 55, 0
2, 144874, Note_on_c, 0, 57, 61
2, 144952, Note_on_c, 0, 58, 62
2, 144955, Note_on_c, 0, 57, 0
2, 145015, Note_on_c, 0, 58, 0
2, 145050, Note_on_c, 0, 60, 58
2, 145117, Note_on_c, 0, 60, 0
2, 145128, Note_on_c, 0, 61, 60
2, 145208, Note_on_c, 0, 63, 59
2, 145218, Note_on_c, 0, 61, 0
2, 145279, Note_on_c, 0, 63, 0
2, 145301, Note_on_c, 0, 64, 64
2, 145400, Note_on_c, 0, 64, 0
2, 145404, Note_on_c, 0, 65, 46
2, 145498, Note_on_c, 0, 65, 0
2, 145516, Note_on_c, 0, 66, 36
2, 145556, Note_on_c, 0, 66, 0
2, 145611, Note_on_c, 0, 67, 22
2, 145649, Note_on_c, 0, 67, 0
2, 145673, Note_on_c, 0, 68, 31
2, 145777, Note_on_c, 0, 68, 0
2, 145800, Note_on_c, 0, 70, 59
2, 145873, Note_on_c, 0, 63, 40
2, 145885, Note_on_c, 0, 60, 28
2, 145905, Note_on_c, 0, 56, 47
2, 145907, Note_on_c, 0, 68, 51
2, 145909, Note_on_c, 0, 53, 20
2, 145951, Note_on_c, 0, 70, 0
2, 146140, Note_on_c, 0, 68, 0
2, 146195, Note_on_c, 0, 67, 53
2, 146296, Note_on_c, 0, 67, 0
2, 146326, Note_on_c, 0, 63, 0
2, 146348, Note_on_c, 0, 68, 46
2, 146406, Note_on_c, 0, 67, 42
2, 146431, Note_on_c, 0, 68, 0
2, 146495, Note_on_c, 0, 67, 0
2, 146502, Note_on_c, 0, 65, 44
2, 146597, Note_on_c, 0, 65, 0
2, 146598, Note_on_c, 0, 64, 46
2, 146673, Note_on_c, 0, 64, 0
2, 146711, Note_on_c, 0, 67, 43
2, 146800, Note_on_c, 0, 64, 22
2, 146819, Note_on_c, 0, 67, 0
2, 146838, Note_on_c, 0, 60, 0
2, 146923, Note_on_c, 0, 65, 69
2, 146927, Note_on_c, 0, 64, 0
2, 147045, Note_on_c, 0, 65, 0
2, 147052, Note_on_c, 0, 56, 0
2, 147087, Note_on_c, 0, 60, 51
2, 147130, Note_on_c, 0, 53, 0
2, 147185, Note_on_c, 0, 60, 0
2, 147267, Note_on_c, 0, 60, 55
2, 147402, Note_on_c, 0, 60, 0
2, 147471, Note_on_c, 0, 60, 55
2, 147561, Note_on_c, 0, 60, 0
2, 147634, Note_on_c, 0, 60, 40
2, 147721, Note_on_c, 0, 60, 0
2, 147794, Note_on_c, 0, 60, 53
2, 147879, Note_on_c, 0, 60, 0
2, 147957, Note_on_c, 0, 60, 51
2, 148024, Note_on_c, 0, 46, 33
2, 148030, Note_on_c, 0, 56, 32
2, 148035, Note_on_c, 0, 60, 0
2, 148102, Note_on_c, 0, 62, 43
2, 148335, Note_on_c, 0, 62, 0
2, 148338, Note_on_c, 0, 59, 50
2, 148448, Note_on_c, 0, 59, 0
2, 148604, Note_on_c, 0, 59, 58
2, 148737, Note_on_c, 0, 59, 0
2, 148833, Note_on_c, 0, 59, 49
2, 148886, Note_on_c, 0, 56, 0
2, 149008, Note_on_c, 0, 59, 0
2, 149067, Note_on_c, 0, 59, 42
2, 149079, Note_on_c, 0, 56, 31
2, 149220, Note_on_c, 0, 59, 0
2, 149258, Control_c, 0, 64, 127
2, 149291, Note_on_c, 0, 59, 45
2, 149399, Note_on_c, 0, 59, 0
2, 149466, Note_on_c, 0, 59, 38
2, 149557, Note_on_c, 0, 59, 0
2, 149570, Note_on_c, 0, 56, 0
2, 149652, Note_on_c, 0, 59, 37
2, 149760, Note_on_c, 0, 59, 0
2, 149779, Control_c, 0, 64, 0
2, 149782, Note_on_c, 0, 46, 0
2, 149849, Note_on_c, 0, 62, 41
2, 149918, Note_on_c, 0, 58, 25
2, 150433, Control_c, 0, 64, 127
2, 150437, Note_on_c, 0, 62, 0
2, 150476, Note_on_c, 0, 58, 0
2, 150702, Control_c, 0, 64, 0
2, 150765, Note_on_c, 0, 58, 47
2, 150777, Note_on_c, 0, 55, 22
2, 150858, Control_c, 0, 64, 127
2, 150927, Note_on_c, 0, 55, 0
2, 151008, Note_on_c, 0, 58, 0
2, 151229, Note_on_c, 0, 46, 42
2, 151311, Note_on_c, 0, 46, 0
2, 151620, Note_on_c, 0, 51, 44
2, 151640, Note_on_c, 0, 67, 58
2, 151654, Note_on_c, 0, 59, 24
2, 151678, Note_on_c, 0, 71, 55
2, 151685, Control_c, 0, 64, 0
2, 151712, Note_on_c, 0, 74, 57
2, 151742, Note_on_c, 0, 62, 44
2, 151755, Note_on_c, 0, 79, 68
2, 151913, Control_c, 0, 64, 127
2, 152038, Note_on_c, 0, 59, 0
2, 152058, Note_on_c, 0, 79, 0
2, 152191, Note_on_c, 0, 62, 0
2, 152199, Note_on_c, 0, 59, 52
2, 152208, Note_on_c, 0, 79, 69
2, 152263, Note_on_c, 0, 67, 0
2, 152351, Note_on_c, 0, 74, 0
2, 152359, Note_on_c, 0, 71, 0
2, 152526, Note_on_c, 0, 79, 0
2, 152626, Note_on_c, 0, 67, 33
2, 152656, Control_c, 0, 64, 0
2, 152662, Note_on_c, 0, 72, 34
2, 152677, Note_on_c, 0, 75, 55
2, 152693, Note_on_c, 0, 60, 52
2, 152695, Note_on_c, 0, 59, 0
2, 152706, Note_on_c, 0, 79, 67
2, 152849, Control_c, 0, 64, 127
2, 152878, Note_on_c, 0, 51, 0
2, 153022, Note_on_c, 0, 72, 0
2, 153031, Note_on_c, 0, 67, 0
2, 153047, Note_on_c, 0, 79, 0
2, 153092, Note_on_c, 0, 60, 0
2, 153117, Note_on_c, 0, 75, 0
2, 153138, Note_on_c, 0, 51, 46
2, 153164, Note_on_c, 0, 72, 46
2, 153166, Note_on_c, 0, 67, 39
2, 153171, Note_on_c, 0, 60, 37
2, 153183, Note_on_c, 0, 75, 46
2, 153190, Note_on_c, 0, 79, 64
2, 153250, Note_on_c, 0, 51, 0
2, 153271, Note_on_c, 0, 67, 0
2, 153333, Note_on_c, 0, 72, 0
2, 153357, Note_on_c, 0, 60, 0
2, 153360, Note_on_c, 0, 79, 0
2, 153382, Note_on_c, 0, 75, 0
2, 153525, Note_on_c, 0, 56, 50
2, 153556, Note_on_c, 0, 60, 38
2, 153582, Note_on_c, 0, 68, 45
2, 153592, Note_on_c, 0, 61, 33
2, 153618, Note_on_c, 0, 73, 49
2, 153627, Control_c, 0, 64, 0
2, 153633, Note_on_c, 0, 65, 40
2, 153662, Note_on_c, 0, 77, 50
2, 153702, Note_on_c, 0, 80, 67
2, 153763, Note_on_c, 0, 68, 0
2, 153814, Note_on_c, 0, 60, 0
2, 153830, Control_c, 0, 64, 127
2, 153832, Note_on_c, 0, 61, 0
2, 153962, Note_on_c, 0, 73, 0
2, 153964, Note_on_c, 0, 77, 0
2, 153989, Note_on_c, 0, 65, 0
2, 154019, Note_on_c, 0, 80, 0
2, 154034, Note_on_c, 0, 60, 35
2, 154061, Note_on_c, 0, 68, 55
2, 154089, Note_on_c, 0, 73, 45
2, 154097, Note_on_c, 0, 61, 36
2, 154134, Note_on_c, 0, 65, 44
2, 154143, Note_on_c, 0, 77, 55
2, 154172, Note_on_c, 0, 80, 63
2, 154209, Note_on_c, 0, 68, 0
2, 154309, Note_on_c, 0, 60, 0
2, 154326, Note_on_c, 0, 61, 0
2, 154338, Note_on_c, 0, 56, 0
2, 154342, Note_on_c, 0, 73, 0
2, 154372, Note_on_c, 0, 77, 0
2, 154376, Note_on_c, 0, 80, 0
2, 154418, Note_on_c, 0, 65, 0
2, 154517, Note_on_c, 0, 56, 51
2, 154525, Note_on_c, 0, 60, 32
2, 154528, Note_on_c, 0, 68, 60
2, 154553, Control_c, 0, 64, 0
2, 154563, Note_on_c, 0, 73, 47
2, 154570, Note_on_c, 0, 61, 49
2, 154602, Note_on_c, 0, 65, 49
2, 154606, Note_on_c, 0, 77, 50
2, 154657, Note_on_c, 0, 80, 60
2, 154671, Note_on_c, 0, 68, 0
2, 154688, Control_c, 0, 64, 127
2, 154727, Note_on_c, 0, 60, 0
2, 154751, Note_on_c, 0, 56, 0
2, 154783, Note_on_c, 0, 73, 0
2, 154785, Note_on_c, 0, 61, 0
2, 154858, Note_on_c, 0, 77, 0
2, 154873, Note_on_c, 0, 65, 0
2, 154943, Note_on_c, 0, 60, 27
2, 154954, Note_on_c, 0, 80, 0
2, 155028, Note_on_c, 0, 61, 31
2, 155039, Note_on_c, 0, 68, 64
2, 155053, Note_on_c, 0, 73, 45
2, 155071, Note_on_c, 0, 65, 56
2, 155086, Note_on_c, 0, 77, 44
2, 155098, Note_on_c, 0, 56, 44
2, 155134, Note_on_c, 0, 80, 55
2, 155179, Note_on_c, 0, 60, 0
2, 155228, Note_on_c, 0, 77, 0
2, 155245, Note_on_c, 0, 65, 0
2, 155264, Note_on_c, 0, 68, 0
2, 155266, Note_on_c, 0, 73, 0
2, 155323, Note_on_c, 0, 56, 0
2, 155324, Note_on_c, 0, 80, 0
2, 155327, Note_on_c, 0, 61, 0
2, 155448, Note_on_c, 0, 55, 38
2, 155504, Note_on_c, 0, 69, 56
2, 155505, Note_on_c, 0, 61, 27
2, 155527, Note_on_c, 0, 73, 48
2, 155532, Control_c, 0, 64, 0
2, 155556, Note_on_c, 0, 76, 56
2, 155564, Note_on_c, 0, 66, 63
2, 155615, Note_on_c, 0, 81, 68
2, 155744, Control_c, 0, 64, 127
2, 155785, Note_on_c, 0, 55, 0
2, 155829, Note_on_c, 0, 69, 0
2, 155871, Note_on_c, 0, 66, 0
2, 155876, Note_on_c, 0, 73, 0
2, 155879, Note_on_c, 0, 61, 0
2, 155890, Note_on_c, 0, 76, 0
2, 155912, Note_on_c, 0, 81, 0
2, 155931, Note_on_c, 0, 55, 30
2, 155971, Note_on_c, 0, 69, 55
2, 156002, Note_on_c, 0, 61, 25
2, 156005, Note_on_c, 0, 73, 45
2, 156043, Note_on_c, 0, 76, 47
2, 156064, Note_on_c, 0, 66, 33
2, 156102, Note_on_c, 0, 81, 54
2, 156242, Note_on_c, 0, 69, 0
2, 156305, Note_on_c, 0, 55, 0
2, 156328, Note_on_c, 0, 73, 0
2, 156341, Note_on_c, 0, 81, 0
2, 156346, Note_on_c, 0, 76, 0
2, 156350, Note_on_c, 0, 66, 0
2, 156437, Note_on_c, 0, 61, 0
2, 156541, Note_on_c, 0, 61, 21
2, 156548, Note_on_c, 0, 55, 24
2, 156561, Note_on_c, 0, 65, 28
2, 156629, Note_on_c, 0, 65, 0
2, 156633, Note_on_c, 0, 55, 0
2, 156663, Note_on_c, 0, 61, 0
2, 156909, Control_c, 0, 64, 0
2, 156913, Note_on_c, 0, 55, 36
2, 156933, Note_on_c, 0, 83, 62
2, 156944, Note_on_c, 0, 61, 39
2, 156959, Note_on_c, 0, 78, 56
2, 156966, Note_on_c, 0, 65, 43
2, 156975, Note_on_c, 0, 75, 54
2, 156976, Note_on_c, 0, 81, 26
2, 157019, Note_on_c, 0, 71, 35
2, 157054, Control_c, 0, 64, 127
2, 157071, Note_on_c, 0, 65, 0
2, 157108, Note_on_c, 0, 55, 0
2, 157177, Note_on_c, 0, 83, 0
2, 157177, Note_on_c, 0, 61, 0
2, 157212, Note_on_c, 0, 71, 0
2, 157225, Note_on_c, 0, 81, 0
2, 157227, Note_on_c, 0, 75, 0
2, 157235, Note_on_c, 0, 78, 0
2, 157411, Control_c, 0, 64, 0
2, 157430, Note_on_c, 0, 60, 44
2, 157435, Note_on_c, 0, 63, 45
2, 157442, Note_on_c, 0, 72, 49
2, 157445, Note_on_c, 0, 84, 32
2, 157451, Note_on_c, 0, 53, 29
2, 157465, Note_on_c, 0, 83, 36
2, 157466, Note_on_c, 0, 58, 44
2, 157505, Note_on_c, 0, 83, 0
2, 157590, Note_on_c, 0, 77, 1
2, 157642, Control_c, 0, 64, 127
2, 157783, Note_on_c, 0, 63, 0
2, 157833, Note_on_c, 0, 60, 0
2, 157990, Note_on_c, 0, 60, 20
2, 157997, Note_on_c, 0, 84, 0
2, 158018, Note_on_c, 0, 77, 0
2, 158096, Note_on_c, 0, 72, 0
2, 158148, Note_on_c, 0, 60, 0
2, 158467, Note_on_c, 0, 63, 32
2, 158470, Note_on_c, 0, 67, 43
2, 158493, Note_on_c, 0, 60, 24
2, 158494, Note_on_c, 0, 75, 36
2, 158495, Note_on_c, 0, 70, 32
2, 158891, Note_on_c, 0, 67, 0
2, 158930, Note_on_c, 0, 70, 0
2, 158973, Note_on_c, 0, 75, 0
2, 158995, Note_on_c, 0, 63, 0
2, 159216, Note_on_c, 0, 91, 74
2, 159226, Note_on_c, 0, 84, 71
2, 159313, Note_on_c, 0, 58, 0
2, 159327, Note_on_c, 0, 60, 0
2, 159373, Note_on_c, 0, 91, 0
2, 159384, Note_on_c, 0, 84, 0
2, 159401, Control_c, 0, 64, 0
2, 159422, Note_on_c, 0, 88, 57
2, 159429, Note_on_c, 0, 60, 34
2, 159490, Note_on_c, 0, 79, 20
2, 159507, Control_c, 0, 64, 127
2, 159511, Note_on_c, 0, 88, 0
2, 159562, Note_on_c, 0, 79, 0
2, 159690, Control_c, 0, 64, 0
2, 159712, Note_on_c, 0, 76, 29
2, 159713, Note_on_c, 0, 64, 35
2, 159753, Note_on_c, 0, 76, 0
2, 159761, Note_on_c, 0, 64, 0
2, 159937, Note_on_c, 0, 60, 0
2, 160074, Control_c, 0, 64, 127
2, 160135, Note_on_c, 0, 64, 37
2, 160140, Note_on_c, 0, 72, 46
2, 160145, Note_on_c, 0, 79, 54
2, 160224, Note_on_c, 0, 64, 0
2, 160239, Control_c, 0, 64, 0
2, 160243, Note_on_c, 0, 79, 0
2, 160262, Note_on_c, 0, 72, 0
2, 160325, Note_on_c, 0, 60, 24
2, 160333, Note_on_c, 0, 75, 36
2, 160372, Note_on_c, 0, 72, 11
2, 160390, Note_on_c, 0, 67, 11
2, 160523, Note_on_c, 0, 72, 0
2, 160587, Note_on_c, 0, 67, 0
2, 160621, Note_on_c, 0, 53, 0
2, 160625, Note_on_c, 0, 75, 0
2, 160644, Note_on_c, 0, 72, 51
2, 160645, Note_on_c, 0, 67, 36
2, 160655, Note_on_c, 0, 63, 49
2, 160746, Note_on_c, 0, 67, 0
2, 160812, Note_on_c, 0, 72, 0
2, 160821, Note_on_c, 0, 63, 0
2, 160826, Control_c, 0, 64, 127
2, 161030, Note_on_c, 0, 53, 38
2, 161078, Note_on_c, 0, 60, 0
2, 161104, Note_on_c, 0, 53, 0
2, 161192, Note_on_c, 0, 53, 28
2, 161232, Note_on_c, 0, 53, 0
2, 161307, Control_c, 0, 64, 0
2, 161344, Note_on_c, 0, 74, 40
2, 161352, Note_on_c, 0, 62, 29
2, 161357, Note_on_c, 0, 67, 33
2, 161376, Note_on_c, 0, 46, 49
2, 161568, Control_c, 0, 64, 127
2, 161632, Note_on_c, 0, 62, 0
2, 161679, Note_on_c, 0, 46, 0
2, 161741, Note_on_c, 0, 67, 0
2, 161815, Note_on_c, 0, 74, 0
2, 162231, Control_c, 0, 64, 0
2, 162278, Note_on_c, 0, 86, 62
2, 162279, Note_on_c, 0, 72, 44
2, 162286, Note_on_c, 0, 82, 54
2, 162293, Note_on_c, 0, 77, 47
2, 162357, Control_c, 0, 64, 127
2, 162462, Note_on_c, 0, 77, 0
2, 162497, Note_on_c, 0, 86, 0
2, 162547, Note_on_c, 0, 82, 0
2, 162569, Control_c, 0, 64, 0
2, 162600, Note_on_c, 0, 80, 54
2, 162608, Note_on_c, 0, 75, 42
2, 162610, Note_on_c, 0, 84, 40
2, 162612, Note_on_c, 0, 70, 47
2, 162660, Note_on_c, 0, 72, 0
2, 162762, Control_c, 0, 64, 127
2, 162816, Note_on_c, 0, 84, 0
2, 162830, Note_on_c, 0, 75, 0
2, 162853, Note_on_c, 0, 80, 0
2, 162887, Control_c, 0, 64, 0
2, 162909, Note_on_c, 0, 78, 30
2, 162936, Note_on_c, 0, 82, 40
2, 162949, Note_on_c, 0, 73, 28
2, 162959, Note_on_c, 0, 68, 46
2, 162980, Note_on_c, 0, 70, 0
2, 163002, Control_c, 0, 64, 127
2, 163122, Note_on_c, 0, 73, 0
2, 163125, Note_on_c, 0, 82, 0
2, 163149, Note_on_c, 0, 78, 0
2, 163164, Control_c, 0, 64, 0
2, 163242, Note_on_c, 0, 68, 0
2, 163273, Note_on_c, 0, 80, 52
2, 163276, Note_on_c, 0, 66, 42
2, 163299, Note_on_c, 0, 71, 22
2, 163317, Note_on_c, 0, 76, 33
2, 163319, Control_c, 0, 64, 127
2, 163382, Note_on_c, 0, 76, 0
2, 163434, Note_on_c, 0, 71, 0
2, 163484, Note_on_c, 0, 80, 0
2, 163530, Control_c, 0, 64, 0
2, 163590, Note_on_c, 0, 79, 47
2, 163593, Note_on_c, 0, 66, 0
2, 163601, Note_on_c, 0, 75, 51
2, 163614, Note_on_c, 0, 65, 36
2, 163615, Note_on_c, 0, 71, 36
2, 163694, Control_c, 0, 64, 127
2, 163744, Note_on_c, 0, 79, 0
2, 163813, Note_on_c, 0, 71, 0
2, 163838, Note_on_c, 0, 75, 0
2, 163847, Note_on_c, 0, 65, 0
2, 163876, Control_c, 0, 64, 0
2, 163955, Note_on_c, 0, 77, 55
2, 163961, Note_on_c, 0, 74, 37
2, 163962, Note_on_c, 0, 62, 33
2, 163965, Note_on_c, 0, 71, 36
2, 164030, Control_c, 0, 64, 127
2, 164058, Note_on_c, 0, 74, 0
2, 164073, Note_on_c, 0, 62, 0
2, 164077, Note_on_c, 0, 77, 0
2, 164133, Note_on_c, 0, 71, 0
2, 164213, Control_c, 0, 64, 0
2, 164265, Note_on_c, 0, 62, 22
2, 164270, Note_on_c, 0, 75, 60
2, 164286, Note_on_c, 0, 67, 35
2, 164291, Note_on_c, 0, 71, 40
2, 164358, Control_c, 0, 64, 127
2, 164427, Note_on_c, 0, 71, 0
2, 164429, Note_on_c, 0, 75, 0
2, 164473, Note_on_c, 0, 67, 0
2, 164550, Control_c, 0, 64, 0
2, 164563, Note_on_c, 0, 62, 0
2, 164585, Note_on_c, 0, 74, 53
2, 164611, Note_on_c, 0, 67, 37
2, 164612, Note_on_c, 0, 71, 47
2, 164614, Note_on_c, 0, 59, 34
2, 164723, Note_on_c, 0, 71, 0
2, 164740, Note_on_c, 0, 67, 0
2, 164827, Note_on_c, 0, 74, 0
2, 164829, Control_c, 0, 64, 127
2, 164852, Note_on_c, 0, 59, 0
2, 164910, Note_on_c, 0, 62, 29
2, 164913, Note_on_c, 0, 70, 39
2, 164914, Note_on_c, 0, 67, 34
2, 165023, Note_on_c, 0, 70, 0
2, 165040, Note_on_c, 0, 62, 0
2, 165056, Note_on_c, 0, 67, 0
2, 165146, Control_c, 0, 64, 0
2, 165190, Note_on_c, 0, 77, 62
2, 165196, Note_on_c, 0, 70, 62
2, 165202, Note_on_c, 0, 48, 49
2, 165308, Note_on_c, 0, 77, 0
2, 165349, Control_c, 0, 64, 127
2, 165420, Note_on_c, 0, 70, 0
2, 165483, Control_c, 0, 64, 0
2, 165494, Note_on_c, 0, 75, 57
2, 165523, Note_on_c, 0, 55, 29
2, 165538, Note_on_c, 0, 48, 0
2, 165598, Control_c, 0, 64, 127
2, 165676, Control_c, 0, 64, 0
2, 165764, Note_on_c, 0, 67, 44
2, 165767, Note_on_c, 0, 63, 46
2, 165775, Note_on_c, 0, 62, 41
2, 165812, Control_c, 0, 64, 127
2, 165874, Note_on_c, 0, 63, 0
2, 165906, Note_on_c, 0, 67, 0
2, 165962, Note_on_c, 0, 62, 0
2, 165994, Control_c, 0, 64, 0
2, 166107, Note_on_c, 0, 63, 49
2, 166110, Note_on_c, 0, 67, 34
2, 166115, Note_on_c, 0, 62, 42
2, 166158, Control_c, 0, 64, 127
2, 166259, Note_on_c, 0, 62, 0
2, 166295, Note_on_c, 0, 67, 0
2, 166304, Note_on_c, 0, 63, 0
2, 166471, Note_on_c, 0, 63, 48
2, 166472, Note_on_c, 0, 67, 43
2, 166477, Note_on_c, 0, 62, 35
2, 166570, Note_on_c, 0, 62, 0
2, 166627, Note_on_c, 0, 63, 0
2, 166633, Note_on_c, 0, 55, 0
2, 166638, Note_on_c, 0, 67, 0
2, 166782, Note_on_c, 0, 63, 52
2, 166799, Note_on_c, 0, 67, 40
2, 166857, Note_on_c, 0, 67, 0
2, 166857, Note_on_c, 0, 63, 0
2, 166936, Note_on_c, 0, 63, 37
2, 166963, Note_on_c, 0, 67, 35
2, 166990, Note_on_c, 0, 75, 0
2, 167041, Note_on_c, 0, 63, 0
2, 167075, Note_on_c, 0, 55, 15
2, 167076, Note_on_c, 0, 67, 0
2, 167080, Control_c, 0, 64, 0
2, 167090, Note_on_c, 0, 47, 40
2, 167110, Note_on_c, 0, 71, 51
2, 167111, Note_on_c, 0, 59, 32
2, 167112, Note_on_c, 0, 62, 40
2, 167112, Note_on_c, 0, 67, 17
2, 167282, Control_c, 0, 64, 127
2, 167404, Note_on_c, 0, 62, 0
2, 167494, Note_on_c, 0, 67, 0
2, 167513, Note_on_c, 0, 71, 0
2, 167519, Note_on_c, 0, 59, 0
2, 167698, Note_on_c, 0, 55, 0
2, 167880, Control_c, 0, 64, 0
2, 167901, Note_on_c, 0, 70, 94
2, 167905, Note_on_c, 0, 74, 81
2, 167928, Note_on_c, 0, 55, 30
2, 167936, Note_on_c, 0, 72, 33
2, 167994, Note_on_c, 0, 72, 0
2, 168031, Note_on_c, 0, 70, 0
2, 168086, Note_on_c, 0, 71, 68
2, 168125, Note_on_c, 0, 72, 22
2, 168186, Note_on_c, 0, 71, 0
2, 168189, Note_on_c, 0, 72, 0
2, 168209, Note_on_c, 0, 55, 0
2, 168261, Note_on_c, 0, 74, 0
2, 168267, Note_on_c, 0, 67, 40
2, 168341, Note_on_c, 0, 67, 0
2, 168393, Note_on_c, 0, 62, 49
2, 168475, Note_on_c, 0, 62, 0
2, 168558, Note_on_c, 0, 59, 36
2, 168566, Note_on_c, 0, 47, 0
2, 168821, Note_on_c, 0, 59, 0
2, 168864, Note_on_c, 0, 55, 30
2, 168968, Note_on_c, 0, 55, 0
2, 169007, Note_on_c, 0, 60, 55
2, 169025, Note_on_c, 0, 53, 17
2, 169026, Note_on_c, 0, 46, 35
2, 169344, Note_on_c, 0, 60, 0
2, 169348, Note_on_c, 0, 57, 41
2, 169435, Note_on_c, 0, 57, 0
2, 169480, Note_on_c, 0, 58, 51
2, 169952, Note_on_c, 0, 58, 0
2, 169962, Note_on_c, 0, 56, 33
2, 169963, Note_on_c, 0, 60, 43
2, 170518, Control_c, 0, 64, 127
2, 170584, Control_c, 0, 64, 0
2, 170585, Note_on_c, 0, 53, 0
2, 170679, Control_c, 0, 64, 127
2, 170683, Note_on_c, 0, 56, 0
2, 170750, Note_on_c, 0, 61, 39
2, 170762, Note_on_c, 0, 60, 0
2, 170765, Control_c, 0, 64, 0
2, 170812, Note_on_c, 0, 46, 0
2, 170952, Note_on_c, 0, 63, 50
2, 170955, Note_on_c, 0, 45, 36
2, 170956, Note_on_c, 0, 55, 26
2, 171000, Note_on_c, 0, 61, 0
2, 171161, Control_c, 0, 64, 127
2, 171171, Note_on_c, 0, 63, 0
2, 171218, Note_on_c, 0, 45, 0
2, 171235, Note_on_c, 0, 64, 52
2, 171277, Control_c, 0, 64, 0
2, 171282, Note_on_c, 0, 55, 0
2, 171355, Note_on_c, 0, 64, 0
2, 171425, Note_on_c, 0, 69, 45
2, 171529, Note_on_c, 0, 69, 0
2, 171569, Note_on_c, 0, 73, 53
2, 171629, Note_on_c, 0, 73, 0
2, 171721, Note_on_c, 0, 76, 73
2, 171805, Note_on_c, 0, 76, 0
2, 171889, Note_on_c, 0, 81, 62
2, 171972, Note_on_c, 0, 81, 0
2, 172050, Note_on_c, 0, 85, 59
2, 172154, Note_on_c, 0, 85, 0
2, 172200, Note_on_c, 0, 89, 81
2, 172336, Note_on_c, 0, 89, 0
2, 172581, Note_on_c, 0, 88, 70
2, 172696, Note_on_c, 0, 88, 0
2, 172743, Note_on_c, 0, 87, 62
2, 172851, Note_on_c, 0, 87, 0
2, 172900, Note_on_c, 0, 63, 36
2, 172903, Note_on_c, 0, 60, 32
2, 172912, Note_on_c, 0, 85, 64
2, 172916, Note_on_c, 0, 53, 25
2, 172928, Note_on_c, 0, 58, 46
2, 172986, Note_on_c, 0, 63, 0
2, 173003, Note_on_c, 0, 53, 0
2, 173021, Note_on_c, 0, 85, 0
2, 173028, Note_on_c, 0, 60, 0
2, 173053, Note_on_c, 0, 58, 0
2, 173118, Note_on_c, 0, 84, 68
2, 173205, Note_on_c, 0, 84, 0
2, 173432, Note_on_c, 0, 84, 64
2, 173539, Note_on_c, 0, 84, 0
2, 173721, Note_on_c, 0, 84, 53
2, 173782, Note_on_c, 0, 84, 0
2, 173938, Note_on_c, 0, 63, 38
2, 173951, Note_on_c, 0, 84, 54
2, 173961, Note_on_c, 0, 60, 28
2, 173979, Note_on_c, 0, 53, 15
2, 174005, Note_on_c, 0, 58, 23
2, 174007, Note_on_c, 0, 84, 0
2, 174024, Note_on_c, 0, 63, 0
2, 174048, Note_on_c, 0, 60, 0
2, 174050, Note_on_c, 0, 53, 0
2, 174160, Note_on_c, 0, 58, 0
2, 174217, Note_on_c, 0, 84, 64
2, 174306, Note_on_c, 0, 84, 0
2, 174336, Note_on_c, 0, 83, 47
2, 174411, Note_on_c, 0, 83, 0
2, 174459, Note_on_c, 0, 84, 53
2, 174569, Note_on_c, 0, 84, 0
2, 175218, Note_on_c, 0, 64, 39
2, 175252, Note_on_c, 0, 58, 32
2, 175261, Note_on_c, 0, 60, 24
2, 175383, Note_on_c, 0, 60, 0
2, 175403, Note_on_c, 0, 58, 0
2, 175406, Note_on_c, 0, 64, 0
2, 175877, Note_on_c, 0, 84, 91
2, 176059, Note_on_c, 0, 84, 0
2, 176074, Note_on_c, 0, 82, 53
2, 176173, Note_on_c, 0, 82, 0
2, 176229, Note_on_c, 0, 84, 77
2, 176387, Note_on_c, 0, 84, 0
2, 176451, Note_on_c, 0, 85, 73
2, 176646, Note_on_c, 0, 85, 0
2, 176647, Note_on_c, 0, 84, 77
2, 176708, Note_on_c, 0, 60, 22
2, 176724, Note_on_c, 0, 56, 33
2, 176728, Note_on_c, 0, 53, 20
2, 176789, Note_on_c, 0, 84, 0
2, 176868, Note_on_c, 0, 80, 65
2, 176876, Note_on_c, 0, 60, 0
2, 176915, Note_on_c, 0, 53, 0
2, 176923, Note_on_c, 0, 56, 0
2, 177021, Note_on_c, 0, 80, 0
2, 177090, Note_on_c, 0, 79, 42
2, 177206, Note_on_c, 0, 79, 0
2, 177264, Note_on_c, 0, 82, 67
2, 177419, Note_on_c, 0, 82, 0
2, 177433, Note_on_c, 0, 79, 53
2, 177528, Note_on_c, 0, 79, 0
2, 177593, Note_on_c, 0, 80, 69
2, 177681, Note_on_c, 0, 60, 24
2, 177684, Note_on_c, 0, 56, 37
2, 177692, Note_on_c, 0, 53, 20
2, 177694, Note_on_c, 0, 62, 18
2, 177738, Note_on_c, 0, 80, 0
2, 177760, Note_on_c, 0, 77, 55
2, 177764, Note_on_c, 0, 62, 0
2, 177839, Note_on_c, 0, 77, 0
2, 177840, Note_on_c, 0, 53, 0
2, 177855, Note_on_c, 0, 60, 0
2, 177956, Note_on_c, 0, 56, 0
2, 178349, Note_on_c, 0, 67, 24
2, 178456, Note_on_c, 0, 67, 0
2, 178500, Note_on_c, 0, 70, 72
2, 178620, Note_on_c, 0, 56, 42
2, 178629, Note_on_c, 0, 70, 0
2, 178633, Note_on_c, 0, 60, 25
2, 178645, Note_on_c, 0, 50, 27
2, 178684, Note_on_c, 0, 68, 71
2, 178843, Note_on_c, 0, 68, 0
2, 178915, Note_on_c, 0, 70, 62
2, 178981, Note_on_c, 0, 68, 53
2, 179023, Note_on_c, 0, 60, 0
2, 179029, Note_on_c, 0, 70, 0
2, 179103, Note_on_c, 0, 67, 32
2, 179116, Note_on_c, 0, 68, 0
2, 179243, Note_on_c, 0, 56, 0
2, 179258, Note_on_c, 0, 67, 0
2, 179332, Note_on_c, 0, 65, 62
2, 179481, Note_on_c, 0, 65, 0
2, 179494, Note_on_c, 0, 56, 35
2, 179513, Note_on_c, 0, 64, 46
2, 179644, Note_on_c, 0, 56, 0
2, 179717, Note_on_c, 0, 64, 0
2, 179744, Note_on_c, 0, 50, 0
2, 179767, Note_on_c, 0, 67, 60
2, 179914, Note_on_c, 0, 67, 0
2, 179977, Note_on_c, 0, 65, 57
2, 180219, Note_on_c, 0, 65, 0
2, 180262, Note_on_c, 0, 62, 38
2, 180407, Note_on_c, 0, 62, 0
2, 180459, Note_on_c, 0, 48, 34
2, 180472, Note_on_c, 0, 55, 27
2, 180474, Note_on_c, 0, 63, 62
2, 180570, Note_on_c, 0, 55, 0
2, 180600, Note_on_c, 0, 48, 0
2, 180764, Note_on_c, 0, 63, 0
2, 180786, Note_on_c, 0, 59, 39
2, 180885, Note_on_c, 0, 59, 0
2, 180943, Note_on_c, 0, 62, 37
2, 181209, Note_on_c, 0, 62, 0
2, 181263, Note_on_c, 0, 59, 29
2, 181408, Note_on_c, 0, 59, 0
2, 181431, Note_on_c, 0, 48, 27
2, 181454, Note_on_c, 0, 60, 41
2, 181488, Control_c, 0, 64, 127
2, 181587, Note_on_c, 0, 48, 0
2, 181753, Note_on_c, 0, 62, 39
2, 181776, Note_on_c, 0, 60, 0
2, 181904, Note_on_c, 0, 62, 0
2, 181981, Note_on_c, 0, 63, 30
2, 182066, Note_on_c, 0, 63, 0
2, 182372, Control_c, 0, 64, 0
2, 182413, Note_on_c, 0, 41, 38
2, 182447, Note_on_c, 0, 57, 39
2, 182473, Note_on_c, 0, 48, 16
2, 182554, Control_c, 0, 64, 127
2, 182594, Note_on_c, 0, 48, 0
2, 182616, Note_on_c, 0, 41, 0
2, 182716, Note_on_c, 0, 57, 0
2, 183409, Note_on_c, 0, 67, 33
2, 183415, Note_on_c, 0, 63, 32
2, 183416, Note_on_c, 0, 57, 35
2, 183422, Note_on_c, 0, 62, 33
2, 183617, Note_on_c, 0, 57, 0
2, 183697, Note_on_c, 0, 67, 0
2, 183698, Note_on_c, 0, 63, 0
2, 183728, Note_on_c, 0, 62, 0
2, 184179, Note_on_c, 0, 57, 62
2, 184180, Note_on_c, 0, 63, 47
2, 184183, Note_on_c, 0, 67, 48
2, 184187, Note_on_c, 0, 84, 68
2, 184198, Note_on_c, 0, 79, 59
2, 184199, Note_on_c, 0, 72, 51
2, 184215, Note_on_c, 0, 74, 47
2, 184220, Note_on_c, 0, 67, 0
2, 184248, Note_on_c, 0, 72, 0
2, 184256, Note_on_c, 0, 74, 0
2, 184260, Note_on_c, 0, 57, 0
2, 184269, Note_on_c, 0, 79, 0
2, 184272, Note_on_c, 0, 84, 0
2, 184313, Note_on_c, 0, 63, 0
2, 184354, Control_c, 0, 64, 0
2, 184377, Note_on_c, 0, 85, 75
2, 184379, Note_on_c, 0, 73, 81
2, 184381, Note_on_c, 0, 78, 80
2, 184385, Note_on_c, 0, 56, 79
2, 184386, Note_on_c, 0, 82, 67
2, 184388, Note_on_c, 0, 62, 59
2, 184390, Note_on_c, 0, 66, 77
2, 184509, Control_c, 0, 64, 127
2, 184590, Note_on_c, 0, 73, 0
2, 184599, Note_on_c, 0, 56, 0
2, 184608, Note_on_c, 0, 85, 0
2, 184625, Note_on_c, 0, 66, 0
2, 184627, Note_on_c, 0, 78, 0
2, 184644, Note_on_c, 0, 82, 0
2, 184669, Note_on_c, 0, 62, 0
2, 184700, Note_on_c, 0, 78, 48
2, 184701, Note_on_c, 0, 85, 52
2, 184702, Note_on_c, 0, 75, 56
2, 184704, Control_c, 0, 64, 0
2, 184715, Note_on_c, 0, 66, 50
2, 184720, Note_on_c, 0, 56, 64
2, 184728, Note_on_c, 0, 82, 36
2, 184736, Note_on_c, 0, 62, 44
2, 184739, Note_on_c, 0, 86, 36
2, 184779, Note_on_c, 0, 86, 0
2, 184787, Note_on_c, 0, 75, 0
2, 184804, Note_on_c, 0, 66, 0
2, 184817, Note_on_c, 0, 56, 0
2, 184819, Note_on_c, 0, 78, 0
2, 184882, Note_on_c, 0, 66, 34
2, 184891, Note_on_c, 0, 73, 21
2, 184893, Note_on_c, 0, 56, 28
2, 184905, Note_on_c, 0, 78, 30
2, 185002, Control_c, 0, 64, 127
2, 185127, Note_on_c, 0, 56, 0
2, 185129, Note_on_c, 0, 66, 0
2, 185164, Note_on_c, 0, 73, 0
2, 185179, Note_on_c, 0, 78, 0
2, 185182, Note_on_c, 0, 85, 0
2, 185186, Note_on_c, 0, 62, 0
2, 185220, Note_on_c, 0, 82, 0
2, 185262, Control_c, 0, 64, 0
2, 185376, Note_on_c, 0, 66, 39
2, 185378, Note_on_c, 0, 73, 37
2, 185388, Note_on_c, 0, 56, 38
2, 185391, Note_on_c, 0, 85, 29
2, 185405, Note_on_c, 0, 78, 37
2, 185409, Note_on_c, 0, 82, 32
2, 185417, Note_on_c, 0, 62, 18
2, 185446, Control_c, 0, 64, 127
2, 185598, Note_on_c, 0, 73, 0
2, 185606, Note_on_c, 0, 56, 0
2, 185613, Note_on_c, 0, 62, 0
2, 185614, Note_on_c, 0, 78, 0
2, 185625, Note_on_c, 0, 66, 0
2, 185637, Note_on_c, 0, 82, 0
2, 185680, Note_on_c, 0, 85, 0
2, 185705, Control_c, 0, 64, 0
2, 185782, Control_c, 0, 64, 127
2, 186089, Note_on_c, 0, 66, 70
2, 186091, Note_on_c, 0, 56, 74
2, 186096, Note_on_c, 0, 85, 53
2, 186098, Note_on_c, 0, 73, 60
2, 186102, Note_on_c, 0, 78, 59
2, 186157, Note_on_c, 0, 66, 0
2, 186174, Note_on_c, 0, 73, 0
2, 186178, Note_on_c, 0, 56, 0
2, 186208, Note_on_c, 0, 78, 0
2, 186212, Note_on_c, 0, 85, 0
2, 186252, Control_c, 0, 64, 0
2, 186282, Note_on_c, 0, 56, 83
2, 186283, Note_on_c, 0, 86, 74
2, 186284, Note_on_c, 0, 67, 80
2, 186286, Note_on_c, 0, 83, 71
2, 186287, Note_on_c, 0, 74, 76
2, 186288, Note_on_c, 0, 79, 68
2, 186289, Note_on_c, 0, 62, 61
2, 186298, Note_on_c, 0, 84, 62
2, 186516, Note_on_c, 0, 86, 0
2, 186523, Note_on_c, 0, 56, 0
2, 186527, Note_on_c, 0, 74, 0
2, 186528, Note_on_c, 0, 84, 0
2, 186541, Note_on_c, 0, 79, 0
2, 186544, Note_on_c, 0, 67, 0
2, 186554, Note_on_c, 0, 62, 0
2, 186557, Note_on_c, 0, 83, 0
2, 186595, Note_on_c, 0, 86, 49
2, 186601, Note_on_c, 0, 74, 51
2, 186604, Note_on_c, 0, 56, 55
2, 186607, Note_on_c, 0, 67, 66
2, 186608, Note_on_c, 0, 83, 58
2, 186610, Note_on_c, 0, 79, 62
2, 186618, Note_on_c, 0, 62, 61
2, 186722, Note_on_c, 0, 74, 0
2, 186731, Note_on_c, 0, 79, 0
2, 186736, Note_on_c, 0, 86, 0
2, 186739, Note_on_c, 0, 56, 0
2, 186751, Note_on_c, 0, 83, 0
2, 186779, Note_on_c, 0, 86, 31
2, 186781, Note_on_c, 0, 56, 25
2, 186797, Note_on_c, 0, 74, 45
2, 186800, Note_on_c, 0, 79, 46
2, 186801, Note_on_c, 0, 83, 35
2, 186962, Note_on_c, 0, 74, 0
2, 186971, Note_on_c, 0, 79, 0
2, 186982, Note_on_c, 0, 56, 0
2, 186983, Note_on_c, 0, 62, 0
2, 186985, Note_on_c, 0, 67, 0
2, 186990, Note_on_c, 0, 86, 0
2, 186992, Note_on_c, 0, 83, 0
2, 187231, Note_on_c, 0, 56, 51
2, 187241, Note_on_c, 0, 67, 40
2, 187242, Note_on_c, 0, 86, 49
2, 187246, Note_on_c, 0, 83, 50
2, 187252, Control_c, 0, 64, 127
2, 187255, Note_on_c, 0, 62, 36
2, 187256, Note_on_c, 0, 74, 32
2, 187257, Note_on_c, 0, 79, 38
2, 187445, Control_c, 0, 64, 0
2, 187657, Control_c, 0, 64, 127
2, 187767, Note_on_c, 0, 67, 0
2, 187794, Note_on_c, 0, 56, 0
2, 187795, Note_on_c, 0, 74, 0
2, 187818, Note_on_c, 0, 79, 0
2, 187823, Note_on_c, 0, 86, 0
2, 187838, Note_on_c, 0, 83, 0
2, 187896, Note_on_c, 0, 62, 0
2, 187962, Note_on_c, 0, 56, 56
2, 187970, Note_on_c, 0, 67, 30
2, 187974, Note_on_c, 0, 86, 56
2, 187976, Note_on_c, 0, 62, 22
2, 187981, Note_on_c, 0, 74, 53
2, 187991, Note_on_c, 0, 79, 38
2, 188039, Note_on_c, 0, 67, 0
2, 188067, Note_on_c, 0, 74, 0
2, 188085, Note_on_c, 0, 86, 0
2, 188086, Note_on_c, 0, 79, 0
2, 188087, Note_on_c, 0, 62, 0
2, 188109, Note_on_c, 0, 56, 0
2, 188129, Control_c, 0, 64, 0
2, 188172, Note_on_c, 0, 62, 30
2, 188174, Note_on_c, 0, 65, 47
2, 188189, Note_on_c, 0, 55, 32
2, 188190, Note_on_c, 0, 86, 50
2, 188206, Note_on_c, 0, 79, 41
2, 188208, Note_on_c, 0, 60, 31
2, 188212, Note_on_c, 0, 74, 40
2, 188321, Control_c, 0, 64, 127
2, 188356, Note_on_c, 0, 74, 0
2, 188361, Note_on_c, 0, 86, 0
2, 188419, Note_on_c, 0, 60, 0
2, 188420, Note_on_c, 0, 65, 0
2, 188427, Note_on_c, 0, 55, 0
2, 188438, Note_on_c, 0, 62, 0
2, 188457, Note_on_c, 0, 79, 0
2, 188476, Control_c, 0, 64, 0
2, 188517, Note_on_c, 0, 62, 39
2, 188517, Note_on_c, 0, 65, 43
2, 188520, Note_on_c, 0, 55, 34
2, 188526, Note_on_c, 0, 75, 47
2, 188527, Note_on_c, 0, 87, 55
2, 188528, Note_on_c, 0, 60, 37
2, 188530, Note_on_c, 0, 79, 44
2, 188556, Note_on_c, 0, 75, 0
2, 188569, Note_on_c, 0, 60, 0
2, 188571, Note_on_c, 0, 79, 0
2, 188579, Note_on_c, 0, 62, 0
2, 188580, Note_on_c, 0, 65, 0
2, 188609, Note_on_c, 0, 55, 0
2, 188615, Note_on_c, 0, 87, 0
2, 188804, Control_c, 0, 64, 127
2, 188967, Control_c, 0, 64, 0
2, 189106, Note_on_c, 0, 87, 50
2, 189107, Note_on_c, 0, 65, 33
2, 189120, Note_on_c, 0, 60, 30
2, 189122, Note_on_c, 0, 62, 20
2, 189124, Note_on_c, 0, 75, 31
2, 189134, Note_on_c, 0, 79, 35
2, 189141, Control_c, 0, 64, 127
2, 189144, Note_on_c, 0, 55, 18
2, 189300, Note_on_c, 0, 79, 0
2, 189340, Note_on_c, 0, 75, 0
2, 189351, Note_on_c, 0, 62, 0
2, 189360, Note_on_c, 0, 65, 0
2, 189404, Note_on_c, 0, 60, 0
2, 189406, Note_on_c, 0, 87, 0
2, 189469, Note_on_c, 0, 55, 0
2, 189647, Note_on_c, 0, 99, 77
2, 189780, Note_on_c, 0, 99, 0
2, 189982, Note_on_c, 0, 97, 74
2, 190111, Control_c, 0, 64, 0
2, 190130, Note_on_c, 0, 97, 0
2, 190173, Note_on_c, 0, 63, 37
2, 190179, Note_on_c, 0, 58, 44
2, 190184, Note_on_c, 0, 52, 34
2, 190347, Note_on_c, 0, 92, 60
2, 190428, Note_on_c, 0, 92, 0
2, 190526, Note_on_c, 0, 88, 37
2, 190587, Note_on_c, 0, 88, 0
2, 190698, Note_on_c, 0, 87, 56
2, 190792, Note_on_c, 0, 87, 0
2, 190829, Note_on_c, 0, 85, 46
2, 190923, Note_on_c, 0, 85, 0
2, 190940, Note_on_c, 0, 84, 50
2, 190978, Note_on_c, 0, 84, 0
2, 191080, Note_on_c, 0, 82, 57
2, 191227, Note_on_c, 0, 82, 0
2, 191338, Note_on_c, 0, 78, 53
2, 191401, Note_on_c, 0, 78, 0
2, 191435, Note_on_c, 0, 76, 48
2, 191528, Note_on_c, 0, 75, 62
2, 191530, Note_on_c, 0, 76, 0
2, 191630, Note_on_c, 0, 75, 0
2, 191639, Note_on_c, 0, 73, 51
2, 191703, Note_on_c, 0, 73, 0
2, 191756, Note_on_c, 0, 71, 22
2, 191789, Note_on_c, 0, 71, 0
2, 191841, Note_on_c, 0, 52, 0
2, 191875, Note_on_c, 0, 58, 0
2, 191966, Note_on_c, 0, 69, 31
2, 191971, Note_on_c, 0, 63, 0
2, 192055, Note_on_c, 0, 69, 0
2, 192094, Note_on_c, 0, 60, 24
2, 192100, Note_on_c, 0, 56, 43
2, 192131, Note_on_c, 0, 53, 17
2, 192155, Note_on_c, 0, 67, 15
2, 192445, Note_on_c, 0, 67, 0
2, 193071, Note_on_c, 0, 67, 68
2, 193130, Note_on_c, 0, 67, 0
2, 193135, Note_on_c, 0, 68, 52
2, 193220, Note_on_c, 0, 67, 34
2, 193248, Note_on_c, 0, 68, 0
2, 193311, Note_on_c, 0, 67, 0
2, 193323, Note_on_c, 0, 65, 37
2, 193381, Note_on_c, 0, 65, 0
2, 193457, Note_on_c, 0, 67, 54
2, 193563, Note_on_c, 0, 67, 0
2, 193572, Note_on_c, 0, 68, 46
2, 193652, Note_on_c, 0, 60, 0
2, 193664, Note_on_c, 0, 67, 31
2, 193683, Note_on_c, 0, 68, 0
2, 193712, Note_on_c, 0, 53, 0
2, 193771, Note_on_c, 0, 67, 0
2, 193779, Note_on_c, 0, 56, 0
2, 193784, Note_on_c, 0, 65, 40
2, 193963, Note_on_c, 0, 65, 0
2, 194039, Note_on_c, 0, 63, 61
2, 194183, Note_on_c, 0, 63, 0
2, 194272, Note_on_c, 0, 62, 49
2, 194447, Note_on_c, 0, 62, 0
2, 194551, Note_on_c, 0, 63, 68
2, 194707, Note_on_c, 0, 63, 0
2, 194822, Note_on_c, 0, 65, 66
2, 195024, Note_on_c, 0, 65, 0
2, 195091, Note_on_c, 0, 62, 46
2, 195273, Note_on_c, 0, 62, 0
2, 195330, Note_on_c, 0, 58, 67
2, 195461, Note_on_c, 0, 58, 0
2, 195545, Note_on_c, 0, 55, 26
2, 195763, Note_on_c, 0, 55, 0
2, 195794, Note_on_c, 0, 54, 46
2, 195920, Note_on_c, 0, 54, 0
2, 195981, Note_on_c, 0, 57, 61
2, 195981, Note_on_c, 0, 39, 27
2, 196010, Note_on_c, 0, 46, 31
2, 196123, Note_on_c, 0, 39, 0
2, 196164, Note_on_c, 0, 57, 0
2, 196236, Note_on_c, 0, 54, 46
2, 196376, Note_on_c, 0, 54, 0
2, 196420, Note_on_c, 0, 56, 63
2, 196601, Note_on_c, 0, 46, 0
2, 196688, Note_on_c, 0, 56, 0
2, 196725, Note_on_c, 0, 54, 35
2, 196857, Note_on_c, 0, 54, 0
2, 196895, Note_on_c, 0, 46, 33
2, 196901, Note_on_c, 0, 55, 32
2, 196906, Note_on_c, 0, 39, 35
2, 197042, Note_on_c, 0, 39, 0
2, 197076, Note_on_c, 0, 46, 0
2, 197790, Note_on_c, 0, 55, 0
2, 197867, Note_on_c, 0, 58, 50
2, 198120, Note_on_c, 0, 58, 0
2, 198151, Note_on_c, 0, 55, 27
2, 198225, Note_on_c, 0, 55, 0
2, 198308, Note_on_c, 0, 56, 52
2, 198599, Note_on_c, 0, 56, 0
2, 199077, Note_on_c, 0, 58, 50
2, 199080, Note_on_c, 0, 52, 31
2, 199146, Note_on_c, 0, 58, 0
2, 199154, Note_on_c, 0, 52, 0
2, 199224, Note_on_c, 0, 60, 85
2, 199536, Note_on_c, 0, 60, 0
2, 199537, Note_on_c, 0, 57, 49
2, 199642, Note_on_c, 0, 57, 0
2, 199716, Note_on_c, 0, 58, 34
2, 199944, Note_on_c, 0, 58, 0
2, 199977, Note_on_c, 0, 41, 49
2, 200084, Note_on_c, 0, 41, 0
2, 200156, Note_on_c, 0, 60, 63
2, 200442, Note_on_c, 0, 60, 0
2, 200625, Note_on_c, 0, 62, 63
2, 200953, Note_on_c, 0, 62, 0
2, 200975, Note_on_c, 0, 56, 34
2, 201105, Note_on_c, 0, 63, 73
2, 201118, Note_on_c, 0, 56, 0
2, 201401, Note_on_c, 0, 46, 44
2, 201429, Note_on_c, 0, 63, 0
2, 201539, Note_on_c, 0, 46, 0
2, 201577, Note_on_c, 0, 65, 50
2, 201598, Note_on_c, 0, 62, 37
2, 201600, Note_on_c, 0, 59, 45
2, 201605, Note_on_c, 0, 56, 29
2, 201780, Note_on_c, 0, 59, 0
2, 201781, Note_on_c, 0, 56, 0
2, 201810, Note_on_c, 0, 62, 0
2, 201853, Note_on_c, 0, 65, 0
2, 201916, Note_on_c, 0, 46, 44
2, 202061, Note_on_c, 0, 46, 0
2, 202079, Note_on_c, 0, 62, 45
2, 202080, Note_on_c, 0, 67, 51
2, 202089, Note_on_c, 0, 59, 56
2, 202122, Note_on_c, 0, 56, 25
2, 202309, Note_on_c, 0, 67, 0
2, 202327, Note_on_c, 0, 56, 0
2, 202370, Note_on_c, 0, 62, 0
2, 202371, Note_on_c, 0, 59, 0
2, 202433, Note_on_c, 0, 46, 47
2, 202584, Note_on_c, 0, 62, 46
2, 202592, Note_on_c, 0, 68, 46
2, 202596, Note_on_c, 0, 59, 53
2, 202745, Note_on_c, 0, 62, 0
2, 202752, Note_on_c, 0, 59, 0
2, 202801, Note_on_c, 0, 68, 0
2, 202938, Note_on_c, 0, 53, 30
2, 202962, Note_on_c, 0, 46, 0
2, 203049, Note_on_c, 0, 66, 62
2, 203054, Note_on_c, 0, 72, 56
2, 203058, Note_on_c, 0, 62, 39
2, 203067, Note_on_c, 0, 53, 0
2, 203082, Note_on_c, 0, 56, 40
2, 203214, Note_on_c, 0, 66, 0
2, 203218, Note_on_c, 0, 67, 27
2, 203356, Note_on_c, 0, 67, 0
2, 203361, Note_on_c, 0, 72, 0
2, 203370, Note_on_c, 0, 62, 0
2, 203380, Note_on_c, 0, 54, 52
2, 203385, Note_on_c, 0, 56, 0
2, 203512, Note_on_c, 0, 54, 0
2, 203547, Note_on_c, 0, 55, 32
2, 203549, Note_on_c, 0, 60, 47
2, 203550, Note_on_c, 0, 70, 56
2, 203556, Note_on_c, 0, 65, 48
2, 203781, Note_on_c, 0, 70, 0
2, 203807, Note_on_c, 0, 65, 0
2, 203833, Note_on_c, 0, 60, 0
2, 203859, Note_on_c, 0, 55, 0
2, 203914, Note_on_c, 0, 51, 35
2, 204001, Note_on_c, 0, 51, 0
2, 204016, Note_on_c, 0, 64, 48
2, 204017, Note_on_c, 0, 59, 49
2, 204024, Note_on_c, 0, 54, 64
2, 204025, Note_on_c, 0, 69, 36
2, 204255, Note_on_c, 0, 59, 0
2, 204260, Note_on_c, 0, 69, 0
2, 204284, Note_on_c, 0, 64, 0
2, 204297, Note_on_c, 0, 54, 0
2, 204374, Note_on_c, 0, 51, 37
2, 204506, Note_on_c, 0, 51, 0
2, 204517, Note_on_c, 0, 70, 64
2, 204520, Note_on_c, 0, 65, 62
2, 204528, Note_on_c, 0, 60, 52
2, 204529, Note_on_c, 0, 55, 48
2, 204894, Control_c, 0, 64, 127
2, 205109, Note_on_c, 0, 60, 0
2, 205165, Note_on_c, 0, 65, 0
2, 205328, Note_on_c, 0, 55, 0
2, 205376, Control_c, 0, 64, 0
2, 205396, Note_on_c, 0, 70, 0
2, 205461, Note_on_c, 0, 64, 44
2, 205464, Note_on_c, 0, 60, 38
2, 205474, Note_on_c, 0, 58, 34
2, 205487, Note_on_c, 0, 48, 26
2, 205578, Control_c, 0, 64, 127
2, 205598, Note_on_c, 0, 60, 0
2, 205616, Note_on_c, 0, 48, 0
2, 205648, Note_on_c, 0, 64, 0
2, 205691, Note_on_c, 0, 58, 0
2, 206078, Control_c, 0, 64, 0
2, 206101, Note_on_c, 0, 84, 66
2, 206102, Note_on_c, 0, 76, 70
2, 206111, Note_on_c, 0, 73, 57
2, 206119, Note_on_c, 0, 72, 54
2, 206198, Note_on_c, 0, 73, 0
2, 206200, Note_on_c, 0, 76, 0
2, 206236, Note_on_c, 0, 84, 0
2, 206285, Note_on_c, 0, 72, 0
2, 206314, Note_on_c, 0, 70, 48
2, 206411, Note_on_c, 0, 70, 0
2, 206459, Note_on_c, 0, 87, 78
2, 206462, Note_on_c, 0, 79, 63
2, 206468, Note_on_c, 0, 82, 59
2, 206469, Note_on_c, 0, 76, 67
2, 206472, Note_on_c, 0, 75, 69
2, 206657, Note_on_c, 0, 79, 0
2, 206664, Note_on_c, 0, 75, 0
2, 206676, Note_on_c, 0, 87, 0
2, 206681, Note_on_c, 0, 76, 0
2, 206683, Note_on_c, 0, 82, 0
2, 206749, Note_on_c, 0, 85, 51
2, 206750, Note_on_c, 0, 76, 53
2, 206754, Note_on_c, 0, 82, 50
2, 206760, Note_on_c, 0, 73, 45
2, 206764, Note_on_c, 0, 79, 29
2, 206807, Note_on_c, 0, 79, 0
2, 206831, Note_on_c, 0, 82, 0
2, 206858, Note_on_c, 0, 76, 0
2, 206861, Note_on_c, 0, 85, 0
2, 206948, Note_on_c, 0, 73, 0
2, 207043, Note_on_c, 0, 84, 57
2, 207047, Note_on_c, 0, 73, 46
2, 207048, Note_on_c, 0, 76, 56
2, 207049, Note_on_c, 0, 72, 54
2, 207151, Note_on_c, 0, 84, 0
2, 207157, Note_on_c, 0, 72, 0
2, 207159, Note_on_c, 0, 76, 0
2, 207179, Note_on_c, 0, 73, 0
2, 207226, Note_on_c, 0, 70, 31
2, 207258, Note_on_c, 0, 68, 20
2, 207321, Note_on_c, 0, 70, 0
2, 207330, Note_on_c, 0, 68, 0
2, 207354, Note_on_c, 0, 82, 58
2, 207366, Note_on_c, 0, 75, 56
2, 207367, Note_on_c, 0, 72, 52
2, 207375, Note_on_c, 0, 79, 47
2, 207387, Note_on_c, 0, 70, 61
2, 207648, Note_on_c, 0, 79, 0
2, 207665, Note_on_c, 0, 72, 0
2, 207676, Control_c, 0, 64, 127
2, 207693, Note_on_c, 0, 72, 25
2, 207702, Note_on_c, 0, 80, 57
2, 207713, Note_on_c, 0, 68, 46
2, 207717, Note_on_c, 0, 70, 0
2, 207748, Note_on_c, 0, 82, 0
2, 207753, Control_c, 0, 64, 0
2, 207791, Note_on_c, 0, 75, 0
2, 207792, Note_on_c, 0, 72, 0
2, 207800, Note_on_c, 0, 80, 0
2, 207846, Note_on_c, 0, 68, 0
2, 207860, Control_c, 0, 64, 127
2, 208061, Control_c, 0, 64, 0
2, 208191, Note_on_c, 0, 68, 58
2, 208194, Note_on_c, 0, 79, 51
2, 208198, Note_on_c, 0, 72, 50
2, 208200, Note_on_c, 0, 67, 55
2, 208210, Note_on_c, 0, 75, 33
2, 208274, Note_on_c, 0, 68, 0
2, 208285, Note_on_c, 0, 72, 0
2, 208288, Note_on_c, 0, 79, 0
2, 208317, Note_on_c, 0, 75, 0
2, 208329, Note_on_c, 0, 67, 0
2, 208361, Note_on_c, 0, 77, 56
2, 208362, Note_on_c, 0, 68, 32
2, 208392, Note_on_c, 0, 65, 38
2, 208468, Note_on_c, 0, 68, 0
2, 208470, Note_on_c, 0, 77, 0
2, 208551, Note_on_c, 0, 65, 0
2, 208781, Control_c, 0, 64, 127
2, 209123, Note_on_c, 0, 75, 58
2, 209128, Note_on_c, 0, 68, 59
2, 209160, Note_on_c, 0, 72, 25
2, 209166, Note_on_c, 0, 53, 24
2, 209204, Note_on_c, 0, 72, 0
2, 209210, Note_on_c, 0, 75, 0
2, 209219, Note_on_c, 0, 68, 0
2, 209292, Control_c, 0, 64, 0
2, 209300, Note_on_c, 0, 53, 0
2, 209309, Note_on_c, 0, 46, 32
2, 209314, Note_on_c, 0, 56, 31
2, 209316, Note_on_c, 0, 74, 44
2, 209323, Note_on_c, 0, 67, 28
2, 209335, Note_on_c, 0, 71, 36
2, 209500, Note_on_c, 0, 67, 0
2, 209507, Note_on_c, 0, 74, 0
2, 209522, Note_on_c, 0, 71, 0
2, 209546, Note_on_c, 0, 56, 0
2, 209547, Note_on_c, 0, 46, 0
2, 209743, Note_on_c, 0, 46, 36
2, 209759, Note_on_c, 0, 74, 37
2, 209761, Note_on_c, 0, 71, 44
2, 209762, Note_on_c, 0, 56, 37
2, 209770, Note_on_c, 0, 67, 44
2, 209896, Note_on_c, 0, 71, 0
2, 209960, Note_on_c, 0, 67, 0
2, 209971, Note_on_c, 0, 74, 0
2, 210040, Note_on_c, 0, 56, 0
2, 210210, Note_on_c, 0, 71, 44
2, 210218, Note_on_c, 0, 62, 42
2, 210223, Note_on_c, 0, 67, 45
2, 210237, Note_on_c, 0, 56, 46
2, 210408, Control_c, 0, 64, 127
2, 210496, Control_c, 0, 64, 0
2, 210529, Note_on_c, 0, 46, 0
2, 210717, Control_c, 0, 64, 127
2, 210727, Note_on_c, 0, 46, 46
2, 210736, Note_on_c, 0, 71, 0
2, 210765, Note_on_c, 0, 67, 0
2, 210867, Note_on_c, 0, 62, 0
2, 210936, Note_on_c, 0, 56, 0
2, 211170, Control_c, 0, 64, 0
2, 211202, Note_on_c, 0, 60, 37
2, 211203, Note_on_c, 0, 70, 44
2, 211209, Note_on_c, 0, 55, 35
2, 211213, Note_on_c, 0, 65, 42
2, 211268, Note_on_c, 0, 46, 0
2, 211400, Control_c, 0, 64, 127
2, 211441, Note_on_c, 0, 60, 0
2, 211516, Note_on_c, 0, 65, 0
2, 211563, Note_on_c, 0, 70, 0
2, 211581, Note_on_c, 0, 55, 0
2, 212209, Control_c, 0, 64, 0
2, 212229, Note_on_c, 0, 55, 50
2, 212230, Note_on_c, 0, 91, 62
2, 212331, Note_on_c, 0, 55, 0
2, 212336, Note_on_c, 0, 91, 0
2, 212351, Note_on_c, 0, 54, 57
2, 212362, Note_on_c, 0, 90, 46
2, 212454, Note_on_c, 0, 90, 0
2, 212491, Note_on_c, 0, 54, 0
2, 212508, Note_on_c, 0, 91, 69
2, 212511, Note_on_c, 0, 55, 56
2, 212716, Control_c, 0, 64, 127
2, 212916, Note_on_c, 0, 55, 0
2, 212928, Note_on_c, 0, 91, 0
2, 213453, Note_on_c, 0, 61, 36
2, 213480, Note_on_c, 0, 77, 60
2, 213486, Note_on_c, 0, 70, 54
2, 213489, Note_on_c, 0, 67, 45
2, 213497, Control_c, 0, 64, 0
2, 213499, Note_on_c, 0, 74, 41
2, 213532, Note_on_c, 0, 62, 45
2, 213533, Note_on_c, 0, 61, 0
2, 213555, Note_on_c, 0, 74, 0
2, 213569, Note_on_c, 0, 67, 0
2, 213573, Note_on_c, 0, 77, 0
2, 213586, Note_on_c, 0, 70, 0
2, 213632, Note_on_c, 0, 62, 0
2, 213674, Note_on_c, 0, 61, 56
2, 213790, Note_on_c, 0, 61, 0
2, 213796, Note_on_c, 0, 70, 58
2, 213799, Note_on_c, 0, 77, 61
2, 213800, Note_on_c, 0, 74, 55
2, 213804, Note_on_c, 0, 62, 49
2, 213814, Note_on_c, 0, 67, 49
2, 213921, Control_c, 0, 64, 127
2, 213991, Note_on_c, 0, 74, 0
2, 214004, Note_on_c, 0, 77, 0
2, 214035, Note_on_c, 0, 70, 0
2, 214072, Note_on_c, 0, 67, 0
2, 214128, Note_on_c, 0, 74, 63
2, 214133, Control_c, 0, 64, 0
2, 214134, Note_on_c, 0, 65, 62
2, 214142, Note_on_c, 0, 58, 48
2, 214154, Note_on_c, 0, 67, 33
2, 214161, Note_on_c, 0, 62, 0
2, 214197, Note_on_c, 0, 67, 0
2, 214220, Control_c, 0, 64, 127
2, 214481, Note_on_c, 0, 65, 0
2, 214565, Note_on_c, 0, 74, 0
2, 214573, Note_on_c, 0, 58, 0
2, 214589, Note_on_c, 0, 55, 40
2, 214594, Note_on_c, 0, 70, 55
2, 214596, Note_on_c, 0, 65, 49
2, 214717, Note_on_c, 0, 55, 0
2, 214753, Note_on_c, 0, 65, 0
2, 214954, Note_on_c, 0, 70, 0
2, 215058, Control_c, 0, 64, 0
2, 215094, Note_on_c, 0, 61, 46
2, 215102, Note_on_c, 0, 65, 51
2, 215110, Note_on_c, 0, 56, 46
2, 215114, Note_on_c, 0, 46, 42
2, 215225, Note_on_c, 0, 61, 0
2, 215230, Control_c, 0, 64, 127
2, 215249, Note_on_c, 0, 65, 0
2, 215250, Note_on_c, 0, 46, 0
2, 215273, Note_on_c, 0, 56, 0
2, 215577, Note_on_c, 0, 84, 80
2, 215580, Note_on_c, 0, 77, 81
2, 215586, Note_on_c, 0, 72, 74
2, 215588, Note_on_c, 0, 56, 73
2, 215589, Note_on_c, 0, 80, 63
2, 215591, Note_on_c, 0, 65, 71
2, 215592, Note_on_c, 0, 60, 61
2, 215599, Note_on_c, 0, 61, 62
2, 215869, Note_on_c, 0, 84, 0
2, 215899, Note_on_c, 0, 72, 0
2, 215909, Note_on_c, 0, 56, 0
2, 215925, Note_on_c, 0, 65, 0
2, 215929, Note_on_c, 0, 80, 0
2, 215937, Note_on_c, 0, 60, 0
2, 215946, Note_on_c, 0, 77, 0
2, 215962, Note_on_c, 0, 61, 0
2, 216074, Note_on_c, 0, 77, 80
2, 216078, Note_on_c, 0, 85, 70
2, 216078, Note_on_c, 0, 80, 69
2, 216087, Note_on_c, 0, 65, 80
2, 216088, Note_on_c, 0, 56, 81
2, 216090, Note_on_c, 0, 61, 73
2, 216091, Note_on_c, 0, 60, 66
2, 216099, Note_on_c, 0, 73, 30
2, 216102, Note_on_c, 0, 72, 58
2, 216111, Note_on_c, 0, 58, 47
2, 216332, Note_on_c, 0, 72, 0
2, 216392, Note_on_c, 0, 56, 0
2, 216408, Note_on_c, 0, 65, 0
2, 216414, Note_on_c, 0, 58, 0
2, 216419, Note_on_c, 0, 60, 0
2, 216420, Note_on_c, 0, 73, 0
2, 216421, Note_on_c, 0, 61, 0
2, 216457, Note_on_c, 0, 77, 0
2, 216480, Note_on_c, 0, 85, 0
2, 216506, Note_on_c, 0, 80, 0
2, 216554, Note_on_c, 0, 85, 44
2, 216563, Note_on_c, 0, 73, 64
2, 216565, Note_on_c, 0, 80, 69
2, 216566, Note_on_c, 0, 65, 78
2, 216568, Note_on_c, 0, 77, 69
2, 216570, Note_on_c, 0, 61, 74
2, 216571, Note_on_c, 0, 56, 77
2, 216573, Note_on_c, 0, 60, 69
2, 216600, Note_on_c, 0, 58, 38
2, 216782, Note_on_c, 0, 77, 0
2, 216829, Note_on_c, 0, 73, 0
2, 216840, Note_on_c, 0, 80, 0
2, 216872, Note_on_c, 0, 65, 0
2, 216897, Note_on_c, 0, 60, 0
2, 216906, Note_on_c, 0, 85, 0
2, 216940, Note_on_c, 0, 61, 0
2, 216948, Note_on_c, 0, 58, 0
2, 216953, Note_on_c, 0, 56, 0
2, 217095, Note_on_c, 0, 86, 78
2, 217101, Note_on_c, 0, 74, 78
2, 217102, Note_on_c, 0, 78, 77
2, 217109, Note_on_c, 0, 55, 55
2, 217115, Note_on_c, 0, 61, 49
2, 217116, Note_on_c, 0, 66, 75
2, 217125, Note_on_c, 0, 82, 52
2, 217126, Note_on_c, 0, 84, 44
2, 217134, Control_c, 0, 64, 0
2, 217307, Control_c, 0, 64, 127
2, 217395, Note_on_c, 0, 55, 0
2, 217414, Note_on_c, 0, 74, 0
2, 217416, Note_on_c, 0, 66, 0
2, 217416, Note_on_c, 0, 82, 0
2, 217420, Note_on_c, 0, 86, 0
2, 217427, Note_on_c, 0, 78, 0
2, 217440, Note_on_c, 0, 84, 0
2, 217460, Note_on_c, 0, 61, 0
2, 217540, Note_on_c, 0, 78, 76
2, 217542, Note_on_c, 0, 86, 66
2, 217544, Note_on_c, 0, 61, 70
2, 217545, Note_on_c, 0, 66, 78
2, 217550, Note_on_c, 0, 55, 70
2, 217554, Note_on_c, 0, 74, 74
2, 217577, Note_on_c, 0, 82, 34
2, 217739, Note_on_c, 0, 86, 0
2, 217752, Note_on_c, 0, 74, 0
2, 217774, Note_on_c, 0, 78, 0
2, 217800, Note_on_c, 0, 66, 0
2, 217816, Note_on_c, 0, 82, 0
2, 217833, Note_on_c, 0, 55, 0
2, 217938, Note_on_c, 0, 61, 0
2, 217953, Control_c, 0, 64, 0
2, 218001, Note_on_c, 0, 55, 49
2, 218010, Note_on_c, 0, 61, 72
2, 218020, Note_on_c, 0, 87, 64
2, 218021, Note_on_c, 0, 82, 63
2, 218022, Note_on_c, 0, 75, 65
2, 218023, Note_on_c, 0, 64, 68
2, 218116, Control_c, 0, 64, 127
2, 218257, Note_on_c, 0, 82, 0
2, 218327, Note_on_c, 0, 64, 0
2, 218329, Note_on_c, 0, 55, 0
2, 218343, Note_on_c, 0, 75, 0
2, 218351, Note_on_c, 0, 87, 0
2, 218378, Note_on_c, 0, 61, 0
2, 218482, Note_on_c, 0, 55, 39
2, 218487, Note_on_c, 0, 61, 54
2, 218488, Note_on_c, 0, 87, 56
2, 218496, Note_on_c, 0, 64, 51
2, 218497, Note_on_c, 0, 75, 49
2, 218501, Note_on_c, 0, 82, 55
2, 218615, Note_on_c, 0, 64, 0
2, 218636, Note_on_c, 0, 55, 0
2, 218784, Note_on_c, 0, 61, 0
2, 218832, Note_on_c, 0, 75, 0
2, 218866, Note_on_c, 0, 87, 0
2, 218881, Note_on_c, 0, 82, 0
2, 218944, Control_c, 0, 64, 0
2, 218954, Note_on_c, 0, 87, 46
2, 218957, Note_on_c, 0, 63, 55
2, 218962, Note_on_c, 0, 75, 50
2, 218963, Note_on_c, 0, 60, 43
2, 218966, Note_on_c, 0, 53, 34
2, 218985, Note_on_c, 0, 58, 48
2, 218990, Note_on_c, 0, 82, 36
2, 219176, Control_c, 0, 64, 127
2, 219433, Note_on_c, 0, 63, 0
2, 219491, Note_on_c, 0, 58, 0
2, 219507, Note_on_c, 0, 75, 0
2, 219551, Note_on_c, 0, 82, 0
2, 219563, Note_on_c, 0, 87, 0
2, 219684, Note_on_c, 0, 60, 0
2, 219719, Note_on_c, 0, 53, 0
2, 220340, Control_c, 0, 64, 0
2, 220365, Note_on_c, 0, 84, 95
2, 220366, Note_on_c, 0, 92, 83
2, 220368, Note_on_c, 0, 89, 82
2, 220368, Note_on_c, 0, 96, 87
2, 220376, Note_on_c, 0, 53, 76
2, 220377, Note_on_c, 0, 60, 85
2, 220378, Note_on_c, 0, 56, 77
2, 220380, Note_on_c, 0, 95, 71
2, 220386, Note_on_c, 0, 88, 51
2, 220412, Note_on_c, 0, 95, 0
2, 220421, Note_on_c, 0, 88, 0
2, 220498, Control_c, 0, 64, 127
2, 220677, Note_on_c, 0, 89, 0
2, 220677, Note_on_c, 0, 84, 0
2, 220704, Note_on_c, 0, 92, 0
2, 220706, Note_on_c, 0, 53, 0
2, 220709, Note_on_c, 0, 60, 0
2, 220711, Note_on_c, 0, 96, 0
2, 220712, Note_on_c, 0, 56, 0
2, 220767, Control_c, 0, 64, 0
2, 220831, Note_on_c, 0, 60, 67
2, 220833, Note_on_c, 0, 56, 83
2, 220836, Note_on_c, 0, 53, 60
2, 220843, Note_on_c, 0, 96, 81
2, 220844, Note_on_c, 0, 92, 76
2, 220846, Note_on_c, 0, 89, 83
2, 220847, Note_on_c, 0, 84, 83
2, 220924, Control_c, 0, 64, 127
2, 221083, Note_on_c, 0, 96, 0
2, 221102, Note_on_c, 0, 84, 0
2, 221139, Note_on_c, 0, 89, 0
2, 221148, Note_on_c, 0, 60, 0
2, 221158, Note_on_c, 0, 56, 0
2, 221168, Note_on_c, 0, 92, 0
2, 221185, Note_on_c, 0, 53, 0
2, 222657, Control_c, 0, 64, 0
2, 222702, Note_on_c, 0, 50, 41
2, 222704, Note_on_c, 0, 60, 34
2, 222706, Note_on_c, 0, 56, 51
2, 222821, Control_c, 0, 64, 127
2, 222930, Note_on_c, 0, 50, 0
2, 222965, Note_on_c, 0, 56, 0
2, 222984, Note_on_c, 0, 60, 0
2, 223600, Control_c, 0, 64, 0
2, 223625, Note_on_c, 0, 82, 56
2, 223633, Note_on_c, 0, 77, 54
2, 223641, Note_on_c, 0, 86, 57
2, 223643, Note_on_c, 0, 72, 41
2, 223715, Note_on_c, 0, 77, 0
2, 223718, Note_on_c, 0, 86, 0
2, 223792, Note_on_c, 0, 82, 0
2, 223836, Note_on_c, 0, 72, 0
2, 223859, Note_on_c, 0, 70, 47
2, 223860, Note_on_c, 0, 75, 39
2, 223863, Note_on_c, 0, 84, 40
2, 223875, Note_on_c, 0, 80, 45
2, 223953, Note_on_c, 0, 84, 0
2, 223974, Note_on_c, 0, 80, 0
2, 223988, Note_on_c, 0, 75, 0
2, 224067, Note_on_c, 0, 82, 56
2, 224076, Note_on_c, 0, 74, 49
2, 224085, Note_on_c, 0, 70, 0
2, 224088, Note_on_c, 0, 68, 34
2, 224135, Note_on_c, 0, 74, 0
2, 224178, Note_on_c, 0, 82, 0
2, 224281, Note_on_c, 0, 80, 45
2, 224285, Note_on_c, 0, 75, 34
2, 224319, Note_on_c, 0, 72, 25
2, 224324, Note_on_c, 0, 66, 23
2, 224390, Note_on_c, 0, 72, 0
2, 224424, Note_on_c, 0, 75, 0
2, 224433, Note_on_c, 0, 80, 0
2, 224437, Note_on_c, 0, 68, 0
2, 224482, Note_on_c, 0, 66, 0
2, 224511, Note_on_c, 0, 79, 46
2, 224530, Note_on_c, 0, 67, 37
2, 224536, Note_on_c, 0, 71, 26
2, 224539, Note_on_c, 0, 75, 31
2, 224626, Note_on_c, 0, 79, 0
2, 224638, Note_on_c, 0, 71, 0
2, 224668, Note_on_c, 0, 75, 0
2, 224674, Note_on_c, 0, 67, 0
2, 224820, Note_on_c, 0, 65, 42
2, 224828, Note_on_c, 0, 77, 54
2, 224830, Note_on_c, 0, 71, 45
2, 224837, Note_on_c, 0, 74, 38
2, 224880, Note_on_c, 0, 74, 0
2, 224883, Note_on_c, 0, 65, 0
2, 224904, Note_on_c, 0, 71, 0
2, 224908, Note_on_c, 0, 77, 0
2, 225268, Note_on_c, 0, 68, 48
2, 225283, Note_on_c, 0, 74, 49
2, 225287, Note_on_c, 0, 71, 43
2, 225291, Note_on_c, 0, 65, 45
2, 225354, Note_on_c, 0, 68, 0
2, 225370, Note_on_c, 0, 71, 0
2, 225391, Note_on_c, 0, 74, 0
2, 225402, Note_on_c, 0, 65, 0
2, 225436, Note_on_c, 0, 62, 31
2, 225442, Note_on_c, 0, 77, 64
2, 225471, Note_on_c, 0, 71, 34
2, 225530, Note_on_c, 0, 71, 0
2, 225564, Note_on_c, 0, 77, 0
2, 225568, Note_on_c, 0, 62, 0
2, 225622, Note_on_c, 0, 65, 52
2, 225623, Note_on_c, 0, 68, 42
2, 225631, Note_on_c, 0, 74, 54
2, 225648, Note_on_c, 0, 71, 24
2, 225779, Note_on_c, 0, 68, 0
2, 225796, Note_on_c, 0, 71, 0
2, 225822, Note_on_c, 0, 65, 0
2, 225868, Note_on_c, 0, 74, 0
2, 225893, Note_on_c, 0, 71, 49
2, 225901, Note_on_c, 0, 68, 46
2, 225917, Note_on_c, 0, 62, 34
2, 225994, Note_on_c, 0, 68, 0
2, 226023, Note_on_c, 0, 71, 0
2, 226033, Note_on_c, 0, 62, 0
2, 226243, Note_on_c, 0, 71, 45
2, 226252, Note_on_c, 0, 68, 31
2, 226256, Note_on_c, 0, 59, 41
2, 226300, Note_on_c, 0, 68, 0
2, 226340, Note_on_c, 0, 71, 0
2, 226369, Note_on_c, 0, 74, 58
2, 226378, Note_on_c, 0, 59, 0
2, 226395, Note_on_c, 0, 62, 38
2, 226455, Note_on_c, 0, 74, 0
2, 226490, Note_on_c, 0, 62, 0
2, 226542, Note_on_c, 0, 75, 69
2, 226545, Note_on_c, 0, 67, 49
2, 226594, Note_on_c, 0, 60, 54
2, 226801, Note_on_c, 0, 67, 0
2, 226847, Note_on_c, 0, 70, 52
2, 226864, Note_on_c, 0, 55, 29
2, 226865, Note_on_c, 0, 67, 28
2, 226906, Note_on_c, 0, 75, 0
2, 226913, Note_on_c, 0, 67, 0
2, 226934, Note_on_c, 0, 60, 0
2, 226935, Note_on_c, 0, 70, 0
2, 226952, Note_on_c, 0, 55, 0
2, 227137, Note_on_c, 0, 70, 47
2, 227138, Note_on_c, 0, 67, 34
2, 227163, Note_on_c, 0, 60, 31
2, 227215, Note_on_c, 0, 67, 0
2, 227237, Note_on_c, 0, 60, 0
2, 227242, Note_on_c, 0, 70, 0
2, 227438, Note_on_c, 0, 70, 38
2, 227441, Note_on_c, 0, 60, 33
2, 227443, Note_on_c, 0, 67, 36
2, 227542, Note_on_c, 0, 67, 0
2, 227543, Note_on_c, 0, 70, 0
2, 227587, Note_on_c, 0, 60, 0
2, 227779, Note_on_c, 0, 63, 47
2, 227783, Note_on_c, 0, 67, 43
2, 227784, Note_on_c, 0, 60, 34
2, 227896, Note_on_c, 0, 63, 0
2, 227917, Note_on_c, 0, 67, 0
2, 227941, Note_on_c, 0, 60, 0
2, 228054, Note_on_c, 0, 67, 41
2, 228062, Note_on_c, 0, 63, 44
2, 228091, Note_on_c, 0, 55, 26
2, 228161, Note_on_c, 0, 67, 0
2, 228180, Note_on_c, 0, 63, 0
2, 228217, Control_c, 0, 64, 127
2, 228218, Note_on_c, 0, 55, 0
2, 228265, Note_on_c, 0, 63, 43
2, 228268, Note_on_c, 0, 67, 32
2, 228282, Note_on_c, 0, 48, 51
2, 228288, Note_on_c, 0, 55, 22
2, 228368, Note_on_c, 0, 67, 0
2, 228374, Note_on_c, 0, 55, 0
2, 228390, Note_on_c, 0, 48, 0
2, 228394, Note_on_c, 0, 63, 0
2, 228527, Control_c, 0, 64, 0
2, 228575, Note_on_c, 0, 63, 55
2, 228578, Note_on_c, 0, 60, 38
2, 228583, Note_on_c, 0, 55, 43
2, 228602, Note_on_c, 0, 46, 48
2, 228603, Note_on_c, 0, 67, 37
2, 228742, Note_on_c, 0, 63, 0
2, 228819, Note_on_c, 0, 67, 0
2, 228854, Note_on_c, 0, 60, 0
2, 228878, Note_on_c, 0, 55, 0
2, 228942, Note_on_c, 0, 67, 49
2, 228943, Note_on_c, 0, 60, 45
2, 228946, Note_on_c, 0, 63, 35
2, 228962, Note_on_c, 0, 55, 37
2, 229237, Control_c, 0, 64, 127
2, 229287, Note_on_c, 0, 55, 0
2, 229338, Note_on_c, 0, 60, 0
2, 229339, Note_on_c, 0, 67, 0
2, 229382, Note_on_c, 0, 63, 0
2, 229431, Control_c, 0, 64, 0
2, 229476, Note_on_c, 0, 63, 52
2, 229481, Note_on_c, 0, 67, 34
2, 229485, Note_on_c, 0, 60, 45
2, 229487, Note_on_c, 0, 55, 29
2, 229594, Control_c, 0, 64, 127
2, 229772, Note_on_c, 0, 46, 0
2, 229958, Note_on_c, 0, 67, 0
2, 229961, Note_on_c, 0, 46, 54
2, 230037, Note_on_c, 0, 63, 0
2, 230062, Note_on_c, 0, 60, 0
2, 230106, Note_on_c, 0, 55, 0
2, 230246, Note_on_c, 0, 46, 0
2, 230413, Control_c, 0, 64, 0
2, 230470, Note_on_c, 0, 63, 37
2, 230476, Note_on_c, 0, 60, 45
2, 230480, Note_on_c, 0, 55, 36
2, 230494, Note_on_c, 0, 45, 49
2, 230605, Control_c, 0, 64, 127
2, 230711, Note_on_c, 0, 55, 0
2, 230783, Note_on_c, 0, 60, 0
2, 230792, Note_on_c, 0, 55, 47
2, 230894, Control_c, 0, 64, 0
2, 230895, Note_on_c, 0, 63, 0
2, 230899, Note_on_c, 0, 55, 0
2, 230985, Note_on_c, 0, 60, 63
2, 230999, Control_c, 0, 64, 127
2, 231137, Note_on_c, 0, 60, 0
2, 231157, Note_on_c, 0, 63, 70
2, 231250, Note_on_c, 0, 63, 0
2, 231323, Note_on_c, 0, 67, 74
2, 231374, Control_c, 0, 64, 0
2, 231376, Note_on_c, 0, 55, 20
2, 231429, Note_on_c, 0, 67, 0
2, 231487, Note_on_c, 0, 72, 70
2, 231566, Control_c, 0, 64, 127
2, 231624, Note_on_c, 0, 72, 0
2, 231645, Note_on_c, 0, 75, 67
2, 231676, Note_on_c, 0, 76, 51
2, 231696, Note_on_c, 0, 75, 0
2, 231696, Note_on_c, 0, 55, 0
2, 231718, Note_on_c, 0, 76, 0
2, 231719, Note_on_c, 0, 45, 0
2, 231793, Note_on_c, 0, 79, 74
2, 231897, Note_on_c, 0, 79, 0
2, 231954, Note_on_c, 0, 84, 78
2, 232068, Note_on_c, 0, 84, 0
2, 232128, Note_on_c, 0, 87, 71
2, 232202, Note_on_c, 0, 87, 0
2, 232269, Control_c, 0, 64, 0
2, 232270, Note_on_c, 0, 44, 55
2, 232273, Note_on_c, 0, 54, 53
2, 232295, Note_on_c, 0, 91, 64
2, 232390, Note_on_c, 0, 91, 0
2, 232442, Control_c, 0, 64, 127
2, 232457, Note_on_c, 0, 44, 0
2, 232468, Note_on_c, 0, 96, 71
2, 232507, Note_on_c, 0, 54, 0
2, 232606, Note_on_c, 0, 96, 0
2, 232645, Note_on_c, 0, 99, 71
2, 232684, Note_on_c, 0, 61, 23
2, 232728, Note_on_c, 0, 99, 0
2, 232830, Note_on_c, 0, 61, 0
2, 232848, Note_on_c, 0, 106, 83
2, 232962, Note_on_c, 0, 106, 0
2, 233012, Note_on_c, 0, 104, 79
2, 233126, Note_on_c, 0, 104, 0
2, 233177, Note_on_c, 0, 102, 75
2, 233198, Note_on_c, 0, 63, 44
2, 233220, Note_on_c, 0, 54, 34
2, 233222, Note_on_c, 0, 59, 41
2, 233242, Note_on_c, 0, 58, 48
2, 233251, Control_c, 0, 64, 0
2, 233276, Note_on_c, 0, 102, 0
2, 233326, Note_on_c, 0, 101, 58
2, 233376, Note_on_c, 0, 101, 0
2, 233468, Note_on_c, 0, 99, 60
2, 233571, Note_on_c, 0, 99, 0
2, 233572, Note_on_c, 0, 97, 55
2, 233626, Control_c, 0, 64, 127
2, 233653, Note_on_c, 0, 97, 0
2, 233676, Note_on_c, 0, 96, 38
2, 233721, Note_on_c, 0, 96, 0
2, 233786, Note_on_c, 0, 94, 49
2, 233878, Note_on_c, 0, 63, 0
2, 233912, Note_on_c, 0, 93, 70
2, 233913, Note_on_c, 0, 94, 0
2, 233918, Note_on_c, 0, 59, 0
2, 233938, Note_on_c, 0, 58, 0
2, 233972, Note_on_c, 0, 54, 0
2, 234027, Note_on_c, 0, 93, 0
2, 234037, Note_on_c, 0, 92, 47
2, 234144, Note_on_c, 0, 92, 0
2, 234198, Note_on_c, 0, 91, 15
2, 234225, Note_on_c, 0, 90, 56
2, 234232, Note_on_c, 0, 91, 0
2, 234270, Control_c, 0, 64, 0
2, 234272, Note_on_c, 0, 58, 42
2, 234282, Note_on_c, 0, 62, 26
2, 234291, Note_on_c, 0, 55, 18
2, 234334, Note_on_c, 0, 90, 0
2, 234349, Note_on_c, 0, 89, 47
2, 234613, Note_on_c, 0, 86, 62
2, 234614, Note_on_c, 0, 89, 0
2, 234728, Note_on_c, 0, 86, 0
2, 234841, Note_on_c, 0, 82, 42
2, 234943, Note_on_c, 0, 58, 0
2, 234948, Note_on_c, 0, 62, 0
2, 235043, Note_on_c, 0, 82, 0
2, 235063, Note_on_c, 0, 79, 31
2, 235090, Control_c, 0, 64, 127
2, 235205, Control_c, 0, 64, 0
2, 235210, Note_on_c, 0, 79, 0
2, 235279, Note_on_c, 0, 89, 67
2, 235284, Note_on_c, 0, 62, 24
2, 235287, Note_on_c, 0, 58, 37
2, 235442, Note_on_c, 0, 89, 0
2, 235533, Note_on_c, 0, 86, 32
2, 235619, Note_on_c, 0, 86, 0
2, 235727, Note_on_c, 0, 87, 53
2, 235762, Control_c, 0, 64, 127
2, 235769, Note_on_c, 0, 62, 0
2, 235804, Note_on_c, 0, 55, 0
2, 235885, Note_on_c, 0, 58, 0
2, 235888, Note_on_c, 0, 87, 0
2, 235986, Note_on_c, 0, 88, 58
2, 236124, Note_on_c, 0, 88, 0
2, 236138, Control_c, 0, 64, 0
2, 236177, Note_on_c, 0, 63, 23
2, 236187, Note_on_c, 0, 58, 30
2, 236189, Note_on_c, 0, 52, 24
2, 236220, Note_on_c, 0, 85, 34
2, 236358, Control_c, 0, 64, 127
2, 236422, Note_on_c, 0, 85, 0
2, 236515, Note_on_c, 0, 85, 44
2, 236641, Note_on_c, 0, 85, 0
2, 236798, Note_on_c, 0, 63, 0
2, 237062, Note_on_c, 0, 52, 0
2, 237139, Control_c, 0, 64, 0
2, 237153, Note_on_c, 0, 58, 0
2, 237182, Note_on_c, 0, 75, 58
2, 237184, Note_on_c, 0, 63, 57
2, 237194, Note_on_c, 0, 72, 50
2, 237195, Note_on_c, 0, 68, 59
2, 237203, Note_on_c, 0, 64, 62
2, 237241, Note_on_c, 0, 64, 0
2, 237264, Note_on_c, 0, 68, 0
2, 237282, Note_on_c, 0, 75, 0
2, 237288, Note_on_c, 0, 72, 0
2, 237317, Note_on_c, 0, 63, 0
2, 237336, Note_on_c, 0, 61, 37
2, 237483, Note_on_c, 0, 61, 0
2, 237498, Note_on_c, 0, 75, 61
2, 237504, Note_on_c, 0, 68, 55
2, 237506, Note_on_c, 0, 64, 58
2, 237510, Note_on_c, 0, 72, 44
2, 237511, Note_on_c, 0, 63, 58
2, 237589, Note_on_c, 0, 64, 0
2, 237604, Note_on_c, 0, 75, 0
2, 237607, Note_on_c, 0, 72, 0
2, 237618, Note_on_c, 0, 68, 0
2, 237624, Note_on_c, 0, 63, 0
2, 237677, Note_on_c, 0, 61, 46
2, 237684, Note_on_c, 0, 73, 48
2, 237689, Note_on_c, 0, 68, 33
2, 237696, Note_on_c, 0, 64, 45
2, 237841, Control_c, 0, 64, 127
2, 237853, Note_on_c, 0, 64, 0
2, 237896, Note_on_c, 0, 68, 0
2, 237899, Note_on_c, 0, 61, 0
2, 237909, Note_on_c, 0, 73, 0
2, 237918, Control_c, 0, 64, 0
2, 237998, Note_on_c, 0, 64, 53
2, 238011, Note_on_c, 0, 60, 34
2, 238073, Control_c, 0, 64, 127
2, 238074, Note_on_c, 0, 64, 0
2, 238084, Note_on_c, 0, 60, 0
2, 238121, Control_c, 0, 64, 0
2, 238193, Note_on_c, 0, 70, 67
2, 238198, Note_on_c, 0, 60, 49
2, 238219, Note_on_c, 0, 63, 35
2, 238225, Note_on_c, 0, 58, 37
2, 238226, Note_on_c, 0, 67, 33
2, 238284, Note_on_c, 0, 63, 0
2, 238293, Note_on_c, 0, 60, 0
2, 238332, Note_on_c, 0, 70, 0
2, 238361, Note_on_c, 0, 67, 0
2, 238366, Note_on_c, 0, 58, 0
2, 238518, Note_on_c, 0, 70, 46
2, 238529, Note_on_c, 0, 63, 45
2, 238531, Note_on_c, 0, 60, 41
2, 238537, Note_on_c, 0, 67, 39
2, 238549, Note_on_c, 0, 58, 49
2, 238749, Control_c, 0, 64, 127
2, 238948, Note_on_c, 0, 67, 0
2, 238988, Note_on_c, 0, 60, 0
2, 238989, Note_on_c, 0, 63, 0
2, 238995, Note_on_c, 0, 58, 0
2, 239045, Control_c, 0, 64, 0
2, 239097, Note_on_c, 0, 70, 0
2, 239137, Note_on_c, 0, 67, 36
2, 239142, Note_on_c, 0, 63, 38
2, 239154, Note_on_c, 0, 60, 36
2, 239168, Note_on_c, 0, 58, 37
2, 239248, Control_c, 0, 64, 127
2, 239472, Note_on_c, 0, 58, 0
2, 239618, Note_on_c, 0, 67, 0
2, 239747, Note_on_c, 0, 60, 0
2, 239845, Note_on_c, 0, 63, 0
2, 239916, Note_on_c, 0, 46, 49
2, 239980, Control_c, 0, 64, 0
2, 240038, Note_on_c, 0, 59, 45
2, 240040, Note_on_c, 0, 67, 44
2, 240057, Note_on_c, 0, 62, 37
2, 240061, Note_on_c, 0, 64, 35
2, 240069, Note_on_c, 0, 56, 42
2, 240083, Note_on_c, 0, 46, 0
2, 240299, Note_on_c, 0, 62, 0
2, 240302, Note_on_c, 0, 59, 0
2, 240305, Note_on_c, 0, 56, 0
2, 240306, Note_on_c, 0, 67, 0
2, 240316, Note_on_c, 0, 64, 0
2, 240391, Note_on_c, 0, 59, 43
2, 240398, Note_on_c, 0, 67, 45
2, 240400, Note_on_c, 0, 62, 29
2, 240403, Note_on_c, 0, 64, 47
2, 240434, Note_on_c, 0, 56, 28
2, 240443, Note_on_c, 0, 64, 0
2, 240454, Note_on_c, 0, 62, 0
2, 240475, Note_on_c, 0, 59, 0
2, 240479, Note_on_c, 0, 56, 0
2, 240490, Note_on_c, 0, 67, 0
2, 240549, Note_on_c, 0, 62, 36
2, 240553, Note_on_c, 0, 59, 42
2, 240557, Note_on_c, 0, 67, 31
2, 240563, Note_on_c, 0, 64, 26
2, 240567, Note_on_c, 0, 56, 43
2, 240745, Note_on_c, 0, 59, 0
2, 240775, Note_on_c, 0, 62, 0
2, 240776, Note_on_c, 0, 64, 0
2, 240804, Note_on_c, 0, 67, 0
2, 240855, Note_on_c, 0, 56, 0
2, 240902, Note_on_c, 0, 46, 45
2, 241041, Note_on_c, 0, 62, 37
2, 241047, Note_on_c, 0, 71, 49
2, 241062, Note_on_c, 0, 56, 40
2, 241169, Note_on_c, 0, 46, 0
2, 241292, Note_on_c, 0, 62, 0
2, 241298, Note_on_c, 0, 71, 0
2, 241305, Note_on_c, 0, 56, 0
2, 241425, Note_on_c, 0, 46, 40
2, 241532, Note_on_c, 0, 66, 42
2, 241537, Note_on_c, 0, 71, 38
2, 241547, Note_on_c, 0, 62, 18
2, 241559, Note_on_c, 0, 56, 23
2, 241687, Note_on_c, 0, 66, 0
2, 241709, Note_on_c, 0, 67, 24
2, 241786, Note_on_c, 0, 71, 0
2, 241853, Note_on_c, 0, 62, 0
2, 241881, Note_on_c, 0, 56, 0
2, 241890, Note_on_c, 0, 54, 35
2, 241919, Note_on_c, 0, 67, 0
2, 241920, Control_c, 0, 64, 127
2, 241920, Control_c, 0, 64, 0
2, 241991, Note_on_c, 0, 55, 47
2, 242025, Note_on_c, 0, 70, 35
2, 242026, Note_on_c, 0, 54, 0
2, 242038, Note_on_c, 0, 65, 30
2, 242043, Note_on_c, 0, 60, 20
2, 242343, Note_on_c, 0, 70, 0
2, 242358, Note_on_c, 0, 65, 0
2, 242394, Note_on_c, 0, 60, 0
2, 242458, Note_on_c, 0, 55, 0
2, 242469, Note_on_c, 0, 54, 39
2, 242482, Note_on_c, 0, 64, 32
2, 242489, Note_on_c, 0, 69, 31
2, 242515, Note_on_c, 0, 59, 17
2, 242696, Note_on_c, 0, 69, 0
2, 242697, Note_on_c, 0, 59, 0
2, 242753, Note_on_c, 0, 64, 0
2, 242835, Note_on_c, 0, 51, 25
2, 242952, Note_on_c, 0, 54, 0
2, 242965, Note_on_c, 0, 55, 31
2, 242967, Note_on_c, 0, 70, 46
2, 242968, Note_on_c, 0, 51, 0
2, 242974, Note_on_c, 0, 60, 32
2, 242977, Note_on_c, 0, 65, 35
2, 243030, Control_c, 0, 64, 127
2, 243610, Note_on_c, 0, 65, 0
2, 243660, Note_on_c, 0, 60, 0
2, 243689, Note_on_c, 0, 55, 0
2, 243697, Note_on_c, 0, 70, 0
2, 243705, Note_on_c, 0, 54, 34
2, 243790, Control_c, 0, 64, 0
2, 243811, Note_on_c, 0, 54, 0
2, 243834, Note_on_c, 0, 46, 0
2, 243846, Note_on_c, 0, 70, 68
2, 243855, Note_on_c, 0, 58, 69
2, 243857, Note_on_c, 0, 63, 72
2, 243859, Note_on_c, 0, 68, 60
2, 243860, Note_on_c, 0, 59, 68
2, 244071, Note_on_c, 0, 68, 0
2, 244289, Note_on_c, 0, 59, 0
2, 244296, Note_on_c, 0, 58, 0
2, 244330, Note_on_c, 0, 63, 0
2, 244346, Note_on_c, 0, 70, 0
2, 244364, Note_on_c, 0, 68, 54
2, 244374, Note_on_c, 0, 63, 27
2, 244377, Note_on_c, 0, 59, 41
2, 244515, Note_on_c, 0, 58, 2
2, 244680, Note_on_c, 0, 58, 0
2, 244695, Note_on_c, 0, 59, 0
2, 244710, Note_on_c, 0, 63, 0
2, 244739, Note_on_c, 0, 54, 37
2, 244792, Note_on_c, 0, 68, 0
2, 244857, Note_on_c, 0, 63, 50
2, 244866, Note_on_c, 0, 70, 50
2, 244867, Note_on_c, 0, 59, 47
2, 244882, Note_on_c, 0, 58, 39
2, 244896, Note_on_c, 0, 54, 0
2, 245341, Control_c, 0, 64, 127
2, 245538, Note_on_c, 0, 70, 0
2, 245556, Note_on_c, 0, 58, 0
2, 245616, Note_on_c, 0, 59, 0
2, 245625, Note_on_c, 0, 46, 28
2, 245634, Note_on_c, 0, 68, 40
2, 245681, Note_on_c, 0, 63, 0
2, 245706, Control_c, 0, 64, 0
2, 245739, Note_on_c, 0, 46, 0
2, 245746, Note_on_c, 0, 68, 0
2, 245772, Note_on_c, 0, 55, 38
2, 245776, Note_on_c, 0, 60, 50
2, 245791, Note_on_c, 0, 70, 37
2, 245794, Note_on_c, 0, 65, 40
2, 246141, Note_on_c, 0, 60, 0
2, 246144, Note_on_c, 0, 65, 0
2, 246197, Note_on_c, 0, 70, 0
2, 246244, Note_on_c, 0, 68, 46
2, 246246, Note_on_c, 0, 46, 47
2, 246251, Note_on_c, 0, 60, 33
2, 246266, Note_on_c, 0, 65, 34
2, 246429, Note_on_c, 0, 55, 0
2, 246447, Note_on_c, 0, 65, 0
2, 246508, Note_on_c, 0, 60, 0
2, 246666, Note_on_c, 0, 68, 0
2, 246715, Note_on_c, 0, 55, 35
2, 246745, Note_on_c, 0, 70, 60
2, 246751, Note_on_c, 0, 60, 53
2, 246752, Note_on_c, 0, 65, 56
2, 246756, Note_on_c, 0, 55, 0
2, 246783, Control_c, 0, 64, 127
2, 246798, Note_on_c, 0, 46, 0
2, 247121, Note_on_c, 0, 65, 0
2, 247125, Note_on_c, 0, 70, 0
2, 247146, Note_on_c, 0, 60, 0
2, 247177, Control_c, 0, 64, 0
2, 247222, Note_on_c, 0, 46, 85
2, 247229, Note_on_c, 0, 34, 82
2, 247319, Note_on_c, 0, 34, 0
2, 247331, Control_c, 0, 64, 127
2, 247381, Note_on_c, 0, 46, 0
2, 247678, Control_c, 0, 64, 0
2, 247699, Note_on_c, 0, 63, 52
2, 247704, Note_on_c, 0, 67, 71
2, 247711, Note_on_c, 0, 64, 80
2, 247713, Note_on_c, 0, 62, 69
2, 247714, Note_on_c, 0, 56, 94
2, 247717, Note_on_c, 0, 59, 80
2, 247718, Note_on_c, 0, 65, 57
2, 247832, Control_c, 0, 64, 127
2, 247987, Note_on_c, 0, 59, 0
2, 247992, Note_on_c, 0, 63, 0
2, 248088, Note_on_c, 0, 62, 0
2, 248145, Note_on_c, 0, 67, 0
2, 248166, Note_on_c, 0, 64, 0
2, 248169, Note_on_c, 0, 56, 0
2, 248187, Note_on_c, 0, 46, 72
2, 248204, Note_on_c, 0, 65, 0
2, 248290, Note_on_c, 0, 46, 0
2, 248669, Control_c, 0, 64, 0
2, 248678, Note_on_c, 0, 79, 89
2, 248681, Note_on_c, 0, 56, 92
2, 248682, Note_on_c, 0, 62, 68
2, 248684, Note_on_c, 0, 67, 87
2, 248685, Note_on_c, 0, 71, 90
2, 248686, Note_on_c, 0, 74, 87
2, 249240, Note_on_c, 0, 71, 0
2, 249250, Note_on_c, 0, 74, 0
2, 249273, Note_on_c, 0, 79, 0
2, 249281, Note_on_c, 0, 62, 0
2, 249293, Note_on_c, 0, 67, 0
2, 249306, Note_on_c, 0, 56, 0
2, 249459, Note_on_c, 0, 77, 83
2, 249545, Note_on_c, 0, 77, 0
2, 249663, Note_on_c, 0, 75, 55
2, 249917, Note_on_c, 0, 75, 0
2, 250447, Note_on_c, 0, 67, 44
2, 250854, Note_on_c, 0, 67, 0
2, 251422, Note_on_c, 0, 67, 70
2, 252040, Note_on_c, 0, 67, 0
2, 252378, Note_on_c, 0, 67, 36
2, 253023, Note_on_c, 0, 67, 0
2, 253125, Note_on_c, 0, 74, 77
2, 253144, Note_on_c, 0, 48, 63
2, 253319, Note_on_c, 0, 48, 0
2, 253357, Note_on_c, 0, 74, 0
2, 253557, Note_on_c, 0, 72, 38
2, 254045, Note_on_c, 0, 67, 47
2, 254068, Note_on_c, 0, 72, 0
2, 254227, Note_on_c, 0, 67, 0
2, 254344, Note_on_c, 0, 63, 60
2, 254978, Note_on_c, 0, 63, 0
2, 255087, Note_on_c, 0, 58, 32
2, 255200, Note_on_c, 0, 58, 0
2, 255258, Note_on_c, 0, 62, 37
2, 255865, Note_on_c, 0, 62, 0
2, 255922, Note_on_c, 0, 63, 57
2, 256258, Note_on_c, 0, 60, 36
2, 256260, Note_on_c, 0, 63, 0
2, 256925, Note_on_c, 0, 60, 0
2, 257211, Note_on_c, 0, 60, 26
2, 257218, Note_on_c, 0, 53, 27
2, 257224, Note_on_c, 0, 63, 34
2, 257295, Note_on_c, 0, 56, 38
2, 257704, Note_on_c, 0, 53, 0
2, 257717, Note_on_c, 0, 63, 0
2, 257731, Note_on_c, 0, 60, 0
2, 257800, Note_on_c, 0, 56, 0
2, 258785, Note_on_c, 0, 63, 61
2, 258796, Note_on_c, 0, 60, 42
2, 258852, Note_on_c, 0, 56, 37
2, 258858, Note_on_c, 0, 63, 0
2, 259058, Note_on_c, 0, 60, 0
2, 259165, Note_on_c, 0, 56, 0
2, 259204, Note_on_c, 0, 65, 24
2, 259455, Note_on_c, 0, 67, 37
2, 259463, Note_on_c, 0, 65, 0
2, 259659, Note_on_c, 0, 67, 0
2, 259787, Note_on_c, 0, 68, 70
2, 259791, Note_on_c, 0, 60, 47
2, 259795, Note_on_c, 0, 63, 65
2, 259851, Note_on_c, 0, 56, 43
2, 259954, Note_on_c, 0, 63, 0
2, 260029, Note_on_c, 0, 68, 0
2, 260045, Note_on_c, 0, 60, 0
2, 260127, Note_on_c, 0, 56, 0
2, 260175, Note_on_c, 0, 67, 26
2, 260325, Note_on_c, 0, 67, 0
2, 260496, Note_on_c, 0, 68, 57
2, 260694, Note_on_c, 0, 68, 0
2, 260797, Note_on_c, 0, 70, 75
2, 260815, Note_on_c, 0, 67, 48
2, 260839, Note_on_c, 0, 56, 36
2, 260855, Note_on_c, 0, 62, 28
2, 260982, Note_on_c, 0, 67, 0
2, 261028, Note_on_c, 0, 56, 0
2, 261041, Note_on_c, 0, 70, 0
2, 261174, Note_on_c, 0, 62, 0
2, 261204, Note_on_c, 0, 68, 45
2, 261406, Note_on_c, 0, 68, 0
2, 261479, Note_on_c, 0, 70, 57
2, 261650, Note_on_c, 0, 70, 0
2, 261788, Note_on_c, 0, 73, 57
2, 261790, Note_on_c, 0, 66, 60
2, 261809, Note_on_c, 0, 62, 30
2, 261842, Note_on_c, 0, 56, 44
2, 262001, Note_on_c, 0, 66, 0
2, 262009, Note_on_c, 0, 73, 0
2, 262032, Note_on_c, 0, 56, 0
2, 262155, Note_on_c, 0, 71, 51
2, 262358, Note_on_c, 0, 71, 0
2, 262410, Note_on_c, 0, 62, 0
2, 262758, Note_on_c, 0, 73, 57
2, 262763, Note_on_c, 0, 62, 39
2, 262777, Note_on_c, 0, 66, 60
2, 262831, Note_on_c, 0, 56, 34
2, 263036, Note_on_c, 0, 73, 0
2, 263065, Note_on_c, 0, 66, 0
2, 263147, Note_on_c, 0, 74, 36
2, 263295, Note_on_c, 0, 56, 0
2, 263549, Note_on_c, 0, 74, 0
2, 263660, Note_on_c, 0, 75, 63
2, 263664, Note_on_c, 0, 66, 61
2, 263685, Note_on_c, 0, 56, 56
2, 263856, Note_on_c, 0, 75, 0
2, 264013, Note_on_c, 0, 66, 0
2, 264132, Note_on_c, 0, 76, 43
2, 264386, Note_on_c, 0, 76, 0
2, 264430, Note_on_c, 0, 56, 0
2, 264489, Note_on_c, 0, 62, 0
2, 264591, Note_on_c, 0, 62, 34
2, 264597, Note_on_c, 0, 79, 82
2, 264614, Note_on_c, 0, 65, 63
2, 264655, Note_on_c, 0, 60, 36
2, 264662, Note_on_c, 0, 55, 31
2, 264885, Note_on_c, 0, 79, 0
2, 265035, Note_on_c, 0, 82, 73
2, 265184, Note_on_c, 0, 62, 0
2, 265292, Note_on_c, 0, 65, 0
2, 265407, Note_on_c, 0, 82, 0
2, 265567, Note_on_c, 0, 86, 83
2, 265576, Note_on_c, 0, 74, 81
2, 265603, Note_on_c, 0, 62, 27
2, 265634, Note_on_c, 0, 76, 35
2, 265728, Note_on_c, 0, 76, 0
2, 265922, Note_on_c, 0, 86, 0
2, 265951, Note_on_c, 0, 74, 0
2, 266031, Note_on_c, 0, 82, 31
2, 266296, Note_on_c, 0, 62, 0
2, 266363, Note_on_c, 0, 55, 0
2, 266390, Note_on_c, 0, 82, 0
2, 266455, Note_on_c, 0, 60, 0
2, 266528, Note_on_c, 0, 79, 68
2, 266538, Note_on_c, 0, 62, 24
2, 266540, Note_on_c, 0, 86, 64
2, 266548, Note_on_c, 0, 82, 34
2, 266561, Note_on_c, 0, 65, 33
2, 266580, Note_on_c, 0, 60, 13
2, 266630, Note_on_c, 0, 82, 0
2, 266653, Note_on_c, 0, 65, 0
2, 266765, Note_on_c, 0, 86, 0
2, 266815, Note_on_c, 0, 79, 0
2, 266841, Note_on_c, 0, 60, 0
2, 266895, Note_on_c, 0, 62, 0
2, 266939, Note_on_c, 0, 74, 34
2, 267306, Note_on_c, 0, 74, 0
2, 267454, Note_on_c, 0, 62, 31
2, 267485, Note_on_c, 0, 70, 56
2, 267502, Note_on_c, 0, 60, 28
2, 267655, Note_on_c, 0, 60, 0
2, 267663, Note_on_c, 0, 62, 0
2, 267826, Note_on_c, 0, 70, 0
2, 267878, Note_on_c, 0, 67, 29
2, 268324, Note_on_c, 0, 67, 0
2, 268441, Note_on_c, 0, 64, 48
2, 268448, Note_on_c, 0, 61, 44
2, 268464, Note_on_c, 0, 55, 26
2, 268471, Note_on_c, 0, 58, 53
2, 269451, Note_on_c, 0, 64, 0
2, 269627, Note_on_c, 0, 61, 0
2, 269689, Note_on_c, 0, 55, 0
2, 269716, Note_on_c, 0, 58, 0
2, 269766, Note_on_c, 0, 63, 52
2, 269806, Note_on_c, 0, 60, 26
2, 269915, Note_on_c, 0, 63, 0
2, 270023, Note_on_c, 0, 64, 53
2, 270098, Note_on_c, 0, 61, 44
2, 270132, Note_on_c, 0, 60, 0
2, 270186, Note_on_c, 0, 64, 0
2, 270328, Note_on_c, 0, 66, 67
2, 270374, Note_on_c, 0, 63, 62
2, 270441, Note_on_c, 0, 61, 0
2, 270463, Note_on_c, 0, 66, 0
2, 270541, Note_on_c, 0, 63, 0
2, 270570, Note_on_c, 0, 67, 60
2, 270643, Note_on_c, 0, 64, 36
2, 270722, Note_on_c, 0, 67, 0
2, 270820, Note_on_c, 0, 69, 60
2, 270831, Note_on_c, 0, 64, 0
2, 270848, Note_on_c, 0, 66, 25
2, 270889, Note_on_c, 0, 67, 41
2, 271006, Note_on_c, 0, 69, 0
2, 271035, Note_on_c, 0, 70, 62
2, 271079, Note_on_c, 0, 66, 0
2, 271104, Note_on_c, 0, 70, 0
2, 271121, Note_on_c, 0, 67, 0
2, 271217, Note_on_c, 0, 72, 62
2, 271375, Note_on_c, 0, 72, 0
2, 271423, Note_on_c, 0, 73, 46
2, 271553, Note_on_c, 0, 75, 60
2, 271568, Note_on_c, 0, 73, 0
2, 271664, Note_on_c, 0, 74, 62
2, 271682, Note_on_c, 0, 75, 0
2, 271709, Note_on_c, 0, 72, 27
2, 271724, Note_on_c, 0, 76, 68
2, 271749, Note_on_c, 0, 74, 0
2, 271783, Note_on_c, 0, 72, 0
2, 271908, Note_on_c, 0, 77, 43
2, 271910, Note_on_c, 0, 76, 0
2, 272058, Note_on_c, 0, 78, 55
2, 272073, Note_on_c, 0, 77, 0
2, 272240, Note_on_c, 0, 79, 32
2, 272454, Note_on_c, 0, 80, 82
2, 272486, Note_on_c, 0, 79, 0
2, 272557, Note_on_c, 0, 78, 0
2, 272676, Note_on_c, 0, 63, 50
2, 272690, Note_on_c, 0, 60, 44
2, 272695, Note_on_c, 0, 67, 43
2, 272701, Note_on_c, 0, 79, 63
2, 272703, Note_on_c, 0, 56, 45
2, 272930, Note_on_c, 0, 80, 0
2, 273091, Note_on_c, 0, 79, 0
2, 273235, Note_on_c, 0, 75, 76
2, 273488, Note_on_c, 0, 75, 0
2, 273502, Note_on_c, 0, 67, 0
2, 273581, Note_on_c, 0, 72, 42
2, 273949, Note_on_c, 0, 63, 0
2, 274047, Note_on_c, 0, 72, 0
2, 274241, Note_on_c, 0, 68, 57
2, 274260, Note_on_c, 0, 63, 31
2, 274464, Note_on_c, 0, 56, 0
2, 274493, Note_on_c, 0, 63, 0
2, 274546, Note_on_c, 0, 68, 0
2, 274665, Note_on_c, 0, 60, 0
2, 274675, Note_on_c, 0, 67, 28
2, 275157, Note_on_c, 0, 67, 0
2, 275201, Note_on_c, 0, 70, 71
2, 275203, Note_on_c, 0, 63, 36
2, 275247, Note_on_c, 0, 60, 31
2, 275360, Note_on_c, 0, 60, 0
2, 275372, Note_on_c, 0, 63, 0
2, 275466, Note_on_c, 0, 70, 0
2, 275587, Note_on_c, 0, 68, 32
2, 276144, Note_on_c, 0, 68, 0
2, 276190, Note_on_c, 0, 62, 36
2, 276228, Note_on_c, 0, 46, 56
2, 276274, Note_on_c, 0, 62, 0
2, 276574, Note_on_c, 0, 67, 55
2, 276587, Note_on_c, 0, 46, 0
2, 276589, Note_on_c, 0, 62, 59
2, 276614, Note_on_c, 0, 56, 49
2, 276666, Note_on_c, 0, 67, 0
2, 276679, Note_on_c, 0, 62, 0
2, 276695, Note_on_c, 0, 56, 0
2, 276964, Note_on_c, 0, 67, 52
2, 277000, Note_on_c, 0, 59, 34
2, 277077, Note_on_c, 0, 67, 0
2, 277092, Note_on_c, 0, 59, 0
2, 277401, Note_on_c, 0, 58, 55
2, 277426, Note_on_c, 0, 56, 30
2, 277465, Note_on_c, 0, 58, 0
2, 277510, Note_on_c, 0, 56, 0
2, 277578, Note_on_c, 0, 67, 65
2, 277586, Note_on_c, 0, 59, 73
2, 277595, Note_on_c, 0, 62, 47
2, 277601, Note_on_c, 0, 64, 53
2, 277749, Note_on_c, 0, 62, 0
2, 277774, Note_on_c, 0, 64, 0
2, 277808, Note_on_c, 0, 67, 0
2, 277912, Note_on_c, 0, 67, 22
2, 277916, Note_on_c, 0, 62, 43
2, 277933, Note_on_c, 0, 64, 61
2, 278060, Note_on_c, 0, 59, 0
2, 278077, Note_on_c, 0, 62, 0
2, 278114, Note_on_c, 0, 67, 0
2, 278119, Note_on_c, 0, 64, 0
2, 278242, Note_on_c, 0, 56, 47
2, 278246, Note_on_c, 0, 58, 45
2, 278327, Note_on_c, 0, 58, 0
2, 278348, Note_on_c, 0, 56, 0
2, 278511, Note_on_c, 0, 64, 66
2, 278517, Note_on_c, 0, 67, 53
2, 278521, Note_on_c, 0, 59, 64
2, 278553, Note_on_c, 0, 62, 44
2, 278621, Note_on_c, 0, 62, 0
2, 278690, Note_on_c, 0, 59, 0
2, 278695, Note_on_c, 0, 64, 0
2, 278709, Note_on_c, 0, 67, 0
2, 278828, Note_on_c, 0, 67, 27
2, 278834, Note_on_c, 0, 59, 33
2, 278841, Note_on_c, 0, 64, 62
2, 278859, Note_on_c, 0, 62, 37
2, 279007, Note_on_c, 0, 59, 0
2, 279055, Note_on_c, 0, 62, 0
2, 279074, Note_on_c, 0, 64, 0
2, 279083, Note_on_c, 0, 67, 0
2, 279183, Note_on_c, 0, 58, 55
2, 279193, Note_on_c, 0, 56, 46
2, 279291, Note_on_c, 0, 56, 0
2, 279323, Note_on_c, 0, 58, 0
2, 279471, Note_on_c, 0, 64, 58
2, 279477, Note_on_c, 0, 59, 64
2, 279483, Note_on_c, 0, 67, 40
2, 279485, Note_on_c, 0, 62, 40
2, 279617, Note_on_c, 0, 67, 0
2, 279629, Note_on_c, 0, 62, 0
2, 279642, Note_on_c, 0, 64, 0
2, 279644, Note_on_c, 0, 59, 0
2, 279805, Note_on_c, 0, 62, 48
2, 279807, Note_on_c, 0, 67, 29
2, 279809, Note_on_c, 0, 59, 38
2, 279813, Note_on_c, 0, 64, 54
2, 279922, Note_on_c, 0, 59, 0
2, 279978, Note_on_c, 0, 62, 0
2, 279999, Note_on_c, 0, 64, 0
2, 280005, Note_on_c, 0, 67, 0
2, 280370, Note_on_c, 0, 55, 60
2, 280381, Note_on_c, 0, 65, 65
2, 280389, Note_on_c, 0, 70, 64
2, 280397, Note_on_c, 0, 60, 49
2, 281295, Control_c, 0, 64, 127
2, 281958, Note_on_c, 0, 70, 0
2, 281963, Note_on_c, 0, 60, 0
2, 281979, Note_on_c, 0, 65, 0
2, 282015, Note_on_c, 0, 55, 0
2, 282034, Note_on_c, 0, 54, 36
2, 282121, Control_c, 0, 64, 0
2, 282286, Note_on_c, 0, 65, 64
2, 282292, Note_on_c, 0, 70, 59
2, 282297, Control_c, 0, 64, 127
2, 282303, Note_on_c, 0, 55, 51
2, 282305, Note_on_c, 0, 54, 0
2, 282307, Note_on_c, 0, 60, 54
2, 282751, Note_on_c, 0, 60, 0
2, 282764, Note_on_c, 0, 55, 0
2, 282946, Note_on_c, 0, 65, 0
2, 282979, Note_on_c, 0, 70, 0
2, 284143, Control_c, 0, 64, 0
2, 284192, Note_on_c, 0, 64, 80
2, 284194, Note_on_c, 0, 58, 83
2, 284200, Note_on_c, 0, 85, 76
2, 284212, Note_on_c, 0, 79, 70
2, 284219, Note_on_c, 0, 74, 58
2, 284227, Note_on_c, 0, 82, 52
2, 284273, Note_on_c, 0, 79, 0
2, 284289, Note_on_c, 0, 82, 0
2, 284290, Note_on_c, 0, 74, 0
2, 284317, Note_on_c, 0, 64, 0
2, 284375, Note_on_c, 0, 58, 0
2, 284404, Note_on_c, 0, 85, 0
2, 284830, Note_on_c, 0, 64, 80
2, 284836, Note_on_c, 0, 58, 83
2, 284840, Note_on_c, 0, 85, 83
2, 284851, Note_on_c, 0, 76, 85
2, 284865, Note_on_c, 0, 79, 65
2, 284878, Note_on_c, 0, 82, 50
2, 284928, Note_on_c, 0, 79, 0
2, 284941, Note_on_c, 0, 82, 0
2, 285007, Note_on_c, 0, 76, 0
2, 285162, Note_on_c, 0, 85, 0
2, 285181, Note_on_c, 0, 64, 0
2, 285222, Note_on_c, 0, 58, 0
2, 285254, Note_on_c, 0, 84, 60
2, 285279, Note_on_c, 0, 81, 65
2, 285293, Note_on_c, 0, 75, 44
2, 285297, Note_on_c, 0, 64, 72
2, 285318, Note_on_c, 0, 58, 54
2, 285761, Control_c, 0, 64, 127
2, 285778, Control_c, 0, 64, 0
2, 286068, Control_c, 0, 64, 127
2, 286141, Note_on_c, 0, 81, 0
2, 286153, Note_on_c, 0, 84, 0
2, 286274, Note_on_c, 0, 75, 0
2, 286322, Note_on_c, 0, 64, 0
2, 286448, Note_on_c, 0, 58, 0
2, 286760, Control_c, 0, 64, 0
2, 286765, Note_on_c, 0, 81, 66
2, 286783, Note_on_c, 0, 70, 54
2, 286790, Note_on_c, 0, 64, 68
2, 286800, Note_on_c, 0, 73, 36
2, 286804, Note_on_c, 0, 58, 68
2, 286809, Note_on_c, 0, 76, 40
2, 287088, Control_c, 0, 64, 127
2, 287199, Note_on_c, 0, 81, 0
2, 287257, Note_on_c, 0, 76, 0
2, 287280, Note_on_c, 0, 73, 0
2, 287297, Note_on_c, 0, 64, 0
2, 287303, Note_on_c, 0, 58, 0
2, 287347, Note_on_c, 0, 79, 44
2, 287401, Note_on_c, 0, 70, 0
2, 287539, Note_on_c, 0, 79, 0
2, 287560, Note_on_c, 0, 58, 59
2, 287687, Note_on_c, 0, 70, 26
2, 287806, Note_on_c, 0, 70, 0
2, 287869, Note_on_c, 0, 61, 27
2, 287917, Note_on_c, 0, 58, 0
2, 287935, Control_c, 0, 64, 0
2, 287936, Note_on_c, 0, 61, 0
2, 288027, Note_on_c, 0, 68, 73
2, 288034, Note_on_c, 0, 79, 63
2, 288052, Note_on_c, 0, 67, 80
2, 288069, Note_on_c, 0, 72, 57
2, 288073, Note_on_c, 0, 75, 43
2, 288489, Note_on_c, 0, 79, 0
2, 288591, Note_on_c, 0, 72, 0
2, 288618, Note_on_c, 0, 67, 0
2, 288633, Note_on_c, 0, 66, 55
2, 288657, Note_on_c, 0, 78, 50
2, 288703, Note_on_c, 0, 72, 24
2, 288902, Note_on_c, 0, 68, 0
2, 288908, Note_on_c, 0, 78, 0
2, 288937, Note_on_c, 0, 66, 0
2, 288989, Note_on_c, 0, 65, 46
2, 289037, Note_on_c, 0, 77, 41
2, 289044, Note_on_c, 0, 68, 27
2, 289244, Note_on_c, 0, 77, 0
2, 289292, Note_on_c, 0, 72, 0
2, 289351, Note_on_c, 0, 75, 0
2, 289409, Note_on_c, 0, 68, 0
2, 289547, Note_on_c, 0, 65, 0
2, 289586, Note_on_c, 0, 75, 52
2, 289590, Note_on_c, 0, 63, 50
2, 289636, Note_on_c, 0, 68, 32
2, 289645, Note_on_c, 0, 65, 34
2, 289672, Note_on_c, 0, 72, 25
2, 289822, Note_on_c, 0, 72, 0
2, 289920, Note_on_c, 0, 65, 0
2, 289995, Note_on_c, 0, 75, 0
2, 289999, Note_on_c, 0, 72, 35
2, 290006, Note_on_c, 0, 60, 33
2, 290093, Note_on_c, 0, 63, 0
2, 290106, Note_on_c, 0, 65, 13
2, 290361, Note_on_c, 0, 60, 0
2, 290454, Note_on_c, 0, 68, 0
2, 290603, Note_on_c, 0, 65, 0
2, 290705, Note_on_c, 0, 72, 0
2, 290882, Note_on_c, 0, 68, 38
2, 290887, Note_on_c, 0, 65, 36
2, 290935, Control_c, 0, 64, 127
2, 291475, Note_on_c, 0, 65, 0
2, 291544, Note_on_c, 0, 46, 52
2, 291621, Note_on_c, 0, 68, 0
2, 291686, Control_c, 0, 64, 0
2, 291790, Note_on_c, 0, 46, 0
2, 291824, Note_on_c, 0, 71, 50
2, 291832, Note_on_c, 0, 56, 57
2, 291851, Note_on_c, 0, 67, 43
2, 291865, Note_on_c, 0, 62, 25
2, 291932, Note_on_c, 0, 62, 0
2, 291972, Note_on_c, 0, 67, 0
2, 292038, Note_on_c, 0, 71, 0
2, 292045, Note_on_c, 0, 56, 0
2, 292151, Note_on_c, 0, 46, 40
2, 292351, Note_on_c, 0, 46, 0
2, 292385, Note_on_c, 0, 66, 59
2, 292397, Note_on_c, 0, 56, 42
2, 292404, Note_on_c, 0, 71, 55
2, 292408, Note_on_c, 0, 62, 36
2, 292502, Note_on_c, 0, 66, 0
2, 292544, Note_on_c, 0, 67, 36
2, 293059, Note_on_c, 0, 62, 0
2, 293082, Note_on_c, 0, 67, 0
2, 293119, Note_on_c, 0, 71, 0
2, 293132, Note_on_c, 0, 56, 0
2, 293272, Note_on_c, 0, 62, 35
2, 293274, Note_on_c, 0, 71, 53
2, 293289, Note_on_c, 0, 66, 57
2, 293383, Note_on_c, 0, 56, 35
2, 293437, Note_on_c, 0, 62, 0
2, 293472, Note_on_c, 0, 66, 0
2, 293537, Note_on_c, 0, 56, 0
2, 293575, Note_on_c, 0, 71, 0
2, 293679, Note_on_c, 0, 46, 39
2, 293902, Note_on_c, 0, 71, 56
2, 293904, Note_on_c, 0, 46, 0
2, 293917, Note_on_c, 0, 62, 36
2, 293919, Note_on_c, 0, 66, 49
2, 293933, Note_on_c, 0, 56, 48
2, 294217, Note_on_c, 0, 67, 20
2, 294267, Note_on_c, 0, 66, 0
2, 294415, Note_on_c, 0, 62, 0
2, 294486, Note_on_c, 0, 67, 0
2, 294487, Note_on_c, 0, 56, 0
2, 294507, Note_on_c, 0, 71, 0
2, 294637, Note_on_c, 0, 53, 17
2, 294689, Note_on_c, 0, 71, 41
2, 294708, Note_on_c, 0, 66, 52
2, 294726, Note_on_c, 0, 62, 36
2, 294766, Note_on_c, 0, 53, 0
2, 294768, Note_on_c, 0, 56, 44
2, 294873, Note_on_c, 0, 66, 0
2, 294964, Note_on_c, 0, 62, 0
2, 295027, Note_on_c, 0, 71, 0
2, 295079, Note_on_c, 0, 56, 0
2, 295154, Note_on_c, 0, 54, 34
2, 295390, Note_on_c, 0, 54, 0
2, 295394, Note_on_c, 0, 60, 57
2, 295399, Note_on_c, 0, 55, 48
2, 295411, Note_on_c, 0, 65, 53
2, 295413, Note_on_c, 0, 70, 61
2, 295845, Note_on_c, 0, 65, 0
2, 295856, Note_on_c, 0, 70, 0
2, 295858, Note_on_c, 0, 60, 0
2, 295910, Note_on_c, 0, 55, 0
2, 296000, Note_on_c, 0, 54, 18
2, 296104, Note_on_c, 0, 70, 57
2, 296114, Note_on_c, 0, 55, 29
2, 296127, Note_on_c, 0, 65, 55
2, 296131, Note_on_c, 0, 60, 38
2, 296179, Note_on_c, 0, 54, 0
2, 296311, Note_on_c, 0, 70, 0
2, 296344, Note_on_c, 0, 60, 0
2, 296373, Note_on_c, 0, 65, 0
2, 296406, Note_on_c, 0, 55, 0
2, 296459, Note_on_c, 0, 54, 50
2, 296734, Note_on_c, 0, 54, 0
2, 296740, Note_on_c, 0, 55, 51
2, 296743, Note_on_c, 0, 70, 57
2, 296753, Note_on_c, 0, 65, 59
2, 296757, Note_on_c, 0, 60, 50
2, 297166, Note_on_c, 0, 70, 0
2, 297214, Note_on_c, 0, 60, 0
2, 297214, Note_on_c, 0, 65, 0
2, 297235, Note_on_c, 0, 55, 0
2, 297318, Note_on_c, 0, 54, 29
2, 297398, Note_on_c, 0, 54, 0
2, 297450, Note_on_c, 0, 70, 57
2, 297463, Note_on_c, 0, 60, 32
2, 297467, Note_on_c, 0, 55, 34
2, 297473, Note_on_c, 0, 65, 41
2, 297627, Note_on_c, 0, 60, 0
2, 297655, Note_on_c, 0, 70, 0
2, 297696, Note_on_c, 0, 55, 0
2, 297702, Note_on_c, 0, 65, 0
2, 297853, Note_on_c, 0, 54, 37
2, 298070, Note_on_c, 0, 54, 0
2, 298122, Note_on_c, 0, 65, 64
2, 298126, Note_on_c, 0, 70, 62
2, 298134, Note_on_c, 0, 60, 57
2, 298143, Note_on_c, 0, 55, 55
2, 298450, Note_on_c, 0, 70, 0
2, 298483, Note_on_c, 0, 60, 0
2, 298531, Note_on_c, 0, 55, 0
2, 298537, Note_on_c, 0, 65, 0
2, 298761, Note_on_c, 0, 70, 61
2, 298783, Note_on_c, 0, 55, 43
2, 298792, Note_on_c, 0, 60, 42
2, 298807, Note_on_c, 0, 65, 38
2, 298967, Note_on_c, 0, 70, 0
2, 298978, Note_on_c, 0, 60, 0
2, 299013, Note_on_c, 0, 65, 0
2, 299063, Note_on_c, 0, 55, 0
2, 299157, Note_on_c, 0, 54, 50
2, 299412, Note_on_c, 0, 55, 54
2, 299414, Note_on_c, 0, 70, 63
2, 299416, Note_on_c, 0, 54, 0
2, 299426, Note_on_c, 0, 65, 62
2, 299437, Note_on_c, 0, 60, 53
2, 299501, Control_c, 0, 64, 127
2, 299687, Note_on_c, 0, 60, 0
2, 299708, Note_on_c, 0, 65, 0
2, 299779, Note_on_c, 0, 55, 0
2, 299796, Note_on_c, 0, 70, 0
2, 299885, Control_c, 0, 64, 0
2, 300054, Note_on_c, 0, 56, 71
2, 300055, Note_on_c, 0, 72, 60
2, 300071, Note_on_c, 0, 62, 50
2, 300115, Note_on_c, 0, 64, 35
2, 300201, Note_on_c, 0, 64, 0
2, 300223, Note_on_c, 0, 72, 0
2, 300238, Note_on_c, 0, 62, 0
2, 300338, Note_on_c, 0, 56, 0
2, 300470, Note_on_c, 0, 55, 40
2, 300482, Note_on_c, 0, 60, 54
2, 300489, Note_on_c, 0, 65, 46
2, 300493, Note_on_c, 0, 70, 47
2, 301113, Note_on_c, 0, 60, 0
2, 301163, Note_on_c, 0, 70, 0
2, 301175, Note_on_c, 0, 65, 0
2, 301403, Note_on_c, 0, 69, 46
2, 301407, Note_on_c, 0, 60, 40
2, 301432, Note_on_c, 0, 54, 57
2, 301446, Control_c, 0, 64, 127
2, 301474, Note_on_c, 0, 65, 32
2, 301509, Note_on_c, 0, 55, 0
2, 301732, Note_on_c, 0, 65, 0
2, 301864, Note_on_c, 0, 60, 0
2, 302233, Note_on_c, 0, 69, 0
2, 302233, Control_c, 0, 64, 0
2, 302371, Note_on_c, 0, 70, 59
2, 302381, Note_on_c, 0, 60, 48
2, 302383, Note_on_c, 0, 65, 51
2, 302388, Note_on_c, 0, 55, 58
2, 302425, Control_c, 0, 64, 127
2, 302450, Note_on_c, 0, 54, 0
2, 302455, Note_on_c, 0, 60, 0
2, 302542, Note_on_c, 0, 55, 0
2, 302546, Note_on_c, 0, 65, 0
2, 302611, Note_on_c, 0, 70, 0
2, 303256, Control_c, 0, 64, 0
2, 303346, Note_on_c, 0, 84, 80
2, 303350, Note_on_c, 0, 60, 69
2, 303354, Note_on_c, 0, 56, 79
2, 303356, Note_on_c, 0, 65, 84
2, 303356, Note_on_c, 0, 61, 64
2, 303360, Note_on_c, 0, 77, 80
2, 303364, Note_on_c, 0, 80, 64
2, 303366, Note_on_c, 0, 72, 79
2, 303415, Note_on_c, 0, 58, 39
2, 303483, Note_on_c, 0, 58, 0
2, 303579, Control_c, 0, 64, 127
2, 303796, Note_on_c, 0, 56, 0
2, 303798, Note_on_c, 0, 72, 0
2, 303834, Note_on_c, 0, 84, 0
2, 303859, Note_on_c, 0, 65, 0
2, 303861, Note_on_c, 0, 77, 0
2, 303897, Note_on_c, 0, 80, 0
2, 303899, Note_on_c, 0, 61, 0
2, 303903, Note_on_c, 0, 60, 0
2, 304018, Note_on_c, 0, 84, 70
2, 304026, Note_on_c, 0, 65, 71
2, 304036, Note_on_c, 0, 61, 74
2, 304038, Note_on_c, 0, 80, 53
2, 304039, Note_on_c, 0, 77, 67
2, 304043, Note_on_c, 0, 56, 78
2, 304045, Note_on_c, 0, 72, 71
2, 304049, Note_on_c, 0, 60, 70
2, 304080, Note_on_c, 0, 83, 54
2, 304182, Note_on_c, 0, 72, 0
2, 304183, Note_on_c, 0, 83, 0
2, 304224, Control_c, 0, 64, 0
2, 304226, Note_on_c, 0, 84, 0
2, 304243, Note_on_c, 0, 56, 0
2, 304255, Note_on_c, 0, 65, 0
2, 304291, Note_on_c, 0, 60, 0
2, 304329, Note_on_c, 0, 80, 0
2, 304333, Note_on_c, 0, 61, 0
2, 304400, Note_on_c, 0, 56, 49
2, 304402, Note_on_c, 0, 65, 67
2, 304423, Note_on_c, 0, 61, 57
2, 304425, Note_on_c, 0, 60, 62
2, 304445, Note_on_c, 0, 82, 40
2, 304566, Note_on_c, 0, 71, 13
2, 304752, Note_on_c, 0, 71, 0
2, 304817, Note_on_c, 0, 77, 0
2, 304854, Note_on_c, 0, 56, 0
2, 304896, Note_on_c, 0, 82, 0
2, 304907, Note_on_c, 0, 65, 0
2, 304948, Note_on_c, 0, 61, 0
2, 304950, Note_on_c, 0, 60, 0
2, 305019, Note_on_c, 0, 56, 67
2, 305032, Note_on_c, 0, 65, 80
2, 305032, Note_on_c, 0, 80, 54
2, 305036, Note_on_c, 0, 84, 77
2, 305040, Note_on_c, 0, 60, 60
2, 305042, Note_on_c, 0, 72, 62
2, 305046, Note_on_c, 0, 77, 69
2, 305047, Note_on_c, 0, 61, 71
2, 305360, Control_c, 0, 64, 127
2, 305643, Note_on_c, 0, 72, 0
2, 305647, Note_on_c, 0, 56, 0
2, 305660, Note_on_c, 0, 77, 0
2, 305683, Note_on_c, 0, 65, 0
2, 305700, Note_on_c, 0, 61, 0
2, 305712, Note_on_c, 0, 84, 0
2, 305737, Note_on_c, 0, 60, 0
2, 305744, Note_on_c, 0, 80, 0
2, 305885, Note_on_c, 0, 84, 64
2, 305894, Note_on_c, 0, 60, 68
2, 305896, Note_on_c, 0, 65, 68
2, 305906, Note_on_c, 0, 61, 72
2, 305908, Note_on_c, 0, 56, 74
2, 305915, Note_on_c, 0, 72, 62
2, 305919, Note_on_c, 0, 77, 68
2, 305931, Note_on_c, 0, 80, 43
2, 305954, Note_on_c, 0, 83, 39
2, 305977, Note_on_c, 0, 74, 29
2, 306013, Control_c, 0, 64, 0
2, 306040, Note_on_c, 0, 83, 0
2, 306048, Note_on_c, 0, 74, 0
2, 306071, Note_on_c, 0, 72, 0
2, 306086, Note_on_c, 0, 84, 0
2, 306140, Note_on_c, 0, 56, 0
2, 306148, Note_on_c, 0, 65, 0
2, 306207, Note_on_c, 0, 77, 0
2, 306213, Note_on_c, 0, 61, 0
2, 306230, Note_on_c, 0, 60, 0
2, 306246, Note_on_c, 0, 80, 0
2, 306284, Control_c, 0, 64, 127
2, 306288, Note_on_c, 0, 56, 45
2, 306297, Note_on_c, 0, 65, 59
2, 306307, Note_on_c, 0, 61, 37
2, 306320, Note_on_c, 0, 77, 35
2, 306330, Note_on_c, 0, 70, 39
2, 306336, Note_on_c, 0, 60, 16
2, 306336, Note_on_c, 0, 82, 29
2, 306449, Note_on_c, 0, 70, 0
2, 306480, Note_on_c, 0, 65, 0
2, 306495, Note_on_c, 0, 60, 0
2, 306516, Note_on_c, 0, 77, 0
2, 306595, Note_on_c, 0, 82, 0
2, 306689, Note_on_c, 0, 56, 0
2, 306774, Note_on_c, 0, 61, 0
2, 306900, Control_c, 0, 64, 0
2, 306962, Note_on_c, 0, 55, 67
2, 306964, Note_on_c, 0, 61, 70
2, 306979, Note_on_c, 0, 66, 83
2, 307248, Control_c, 0, 64, 127
2, 307655, Note_on_c, 0, 55, 0
2, 307697, Note_on_c, 0, 66, 0
2, 307768, Note_on_c, 0, 61, 0
2, 307851, Note_on_c, 0, 87, 78
2, 307857, Note_on_c, 0, 78, 83
2, 307870, Note_on_c, 0, 83, 77
2, 307872, Note_on_c, 0, 55, 38
2, 307880, Note_on_c, 0, 66, 79
2, 307889, Note_on_c, 0, 61, 78
2, 307922, Control_c, 0, 64, 0
2, 308148, Note_on_c, 0, 55, 0
2, 308152, Note_on_c, 0, 66, 0
2, 308175, Note_on_c, 0, 78, 0
2, 308177, Note_on_c, 0, 87, 0
2, 308216, Note_on_c, 0, 83, 0
2, 308283, Note_on_c, 0, 66, 62
2, 308285, Note_on_c, 0, 55, 56
2, 308290, Control_c, 0, 64, 127
2, 308361, Note_on_c, 0, 76, 41
2, 308482, Note_on_c, 0, 85, 14
2, 308576, Note_on_c, 0, 76, 0
2, 308686, Note_on_c, 0, 55, 0
2, 308742, Note_on_c, 0, 66, 0
2, 308788, Control_c, 0, 64, 0
2, 308817, Note_on_c, 0, 61, 0
2, 308851, Note_on_c, 0, 87, 71
2, 308872, Note_on_c, 0, 83, 77
2, 308874, Note_on_c, 0, 55, 40
2, 308878, Note_on_c, 0, 78, 69
2, 308880, Note_on_c, 0, 66, 79
2, 308893, Note_on_c, 0, 61, 64
2, 309191, Control_c, 0, 64, 127
2, 309427, Note_on_c, 0, 66, 0
2, 309429, Note_on_c, 0, 55, 0
2, 309515, Note_on_c, 0, 78, 0
2, 309523, Note_on_c, 0, 83, 0
2, 309544, Note_on_c, 0, 87, 0
2, 309569, Note_on_c, 0, 61, 0
2, 309640, Note_on_c, 0, 85, 0
2, 309742, Note_on_c, 0, 87, 74
2, 309746, Note_on_c, 0, 61, 74
2, 309752, Note_on_c, 0, 55, 73
2, 309761, Note_on_c, 0, 66, 79
2, 309769, Note_on_c, 0, 78, 62
2, 309790, Note_on_c, 0, 83, 67
2, 309801, Note_on_c, 0, 80, 45
2, 309884, Control_c, 0, 64, 0
2, 309944, Note_on_c, 0, 66, 0
2, 309978, Note_on_c, 0, 83, 0
2, 310030, Note_on_c, 0, 78, 0
2, 310053, Note_on_c, 0, 87, 0
2, 310061, Note_on_c, 0, 55, 0
2, 310097, Control_c, 0, 64, 127
2, 310136, Note_on_c, 0, 66, 59
2, 310137, Note_on_c, 0, 80, 0
2, 310143, Note_on_c, 0, 55, 37
2, 310243, Note_on_c, 0, 85, 19
2, 310393, Note_on_c, 0, 55, 0
2, 310414, Note_on_c, 0, 66, 0
2, 310635, Control_c, 0, 64, 0
2, 310646, Note_on_c, 0, 85, 0
2, 310715, Note_on_c, 0, 87, 78
2, 310721, Note_on_c, 0, 60, 77
2, 310723, Note_on_c, 0, 63, 87
2, 310727, Note_on_c, 0, 84, 80
2, 310729, Note_on_c, 0, 58, 77
2, 310731, Note_on_c, 0, 82, 75
2, 310740, Note_on_c, 0, 79, 74
2, 310750, Note_on_c, 0, 53, 70
2, 310779, Note_on_c, 0, 54, 29
2, 310785, Note_on_c, 0, 61, 0
2, 310809, Note_on_c, 0, 56, 38
2, 310844, Note_on_c, 0, 54, 0
2, 310888, Note_on_c, 0, 56, 0
2, 311174, Control_c, 0, 64, 127
2, 311787, Note_on_c, 0, 84, 0
2, 311793, Note_on_c, 0, 87, 0
2, 311873, Note_on_c, 0, 79, 0
2, 311877, Note_on_c, 0, 82, 0
2, 312311, Note_on_c, 0, 60, 0
2, 312545, Note_on_c, 0, 63, 0
2, 312712, Note_on_c, 0, 53, 0
2, 312735, Note_on_c, 0, 60, 48
2, 312845, Control_c, 0, 64, 0
2, 312908, Note_on_c, 0, 79, 82
2, 312925, Note_on_c, 0, 72, 78
2, 312933, Note_on_c, 0, 75, 68
2, 312935, Note_on_c, 0, 70, 79
2, 312943, Note_on_c, 0, 63, 83
2, 313054, Note_on_c, 0, 60, 0
2, 313056, Note_on_c, 0, 58, 0
2, 313229, Note_on_c, 0, 79, 0
2, 313321, Note_on_c, 0, 72, 0
2, 313323, Note_on_c, 0, 75, 0
2, 313382, Note_on_c, 0, 70, 0
2, 313428, Note_on_c, 0, 63, 0
2, 313657, Note_on_c, 0, 56, 19
2, 313864, Note_on_c, 0, 75, 67
2, 313881, Note_on_c, 0, 70, 69
2, 313885, Note_on_c, 0, 60, 62
2, 313889, Note_on_c, 0, 72, 60
2, 313893, Note_on_c, 0, 67, 62
2, 313966, Note_on_c, 0, 56, 0
2, 314185, Note_on_c, 0, 72, 0
2, 314196, Note_on_c, 0, 75, 0
2, 314221, Note_on_c, 0, 70, 0
2, 314277, Note_on_c, 0, 67, 0
2, 314753, Note_on_c, 0, 60, 0
2, 314822, Note_on_c, 0, 63, 68
2, 314824, Note_on_c, 0, 72, 55
2, 314832, Note_on_c, 0, 68, 56
2, 314855, Note_on_c, 0, 56, 62
2, 315127, Note_on_c, 0, 72, 0
2, 315141, Note_on_c, 0, 68, 0
2, 315252, Note_on_c, 0, 63, 0
2, 315504, Note_on_c, 0, 56, 0
2, 315538, Note_on_c, 0, 51, 53
2, 315757, Note_on_c, 0, 68, 51
2, 315763, Note_on_c, 0, 53, 36
2, 315775, Note_on_c, 0, 63, 63
2, 315809, Note_on_c, 0, 60, 48
2, 315844, Note_on_c, 0, 51, 0
2, 316011, Note_on_c, 0, 68, 0
2, 316099, Note_on_c, 0, 63, 0
2, 316191, Note_on_c, 0, 60, 0
2, 316763, Note_on_c, 0, 56, 50
2, 316773, Note_on_c, 0, 60, 44
2, 316794, Note_on_c, 0, 65, 41
2, 316802, Note_on_c, 0, 53, 0
2, 316823, Note_on_c, 0, 51, 37
2, 316873, Control_c, 0, 64, 127
2, 317328, Note_on_c, 0, 60, 0
2, 317378, Note_on_c, 0, 51, 0
2, 317431, Note_on_c, 0, 56, 0
2, 317495, Note_on_c, 0, 65, 0
2, 317506, Control_c, 0, 64, 0
2, 317729, Note_on_c, 0, 63, 50
2, 317737, Note_on_c, 0, 45, 46
2, 317746, Note_on_c, 0, 56, 52
2, 317752, Note_on_c, 0, 60, 35
2, 317854, Control_c, 0, 64, 127
2, 318059, Note_on_c, 0, 60, 0
2, 318349, Note_on_c, 0, 56, 0
2, 318468, Control_c, 0, 64, 0
2, 318514, Note_on_c, 0, 63, 0
2, 318555, Note_on_c, 0, 45, 0
2, 318703, Note_on_c, 0, 62, 40
2, 318704, Note_on_c, 0, 46, 31
2, 318720, Note_on_c, 0, 56, 45
2, 318743, Note_on_c, 0, 58, 53
2, 318893, Control_c, 0, 64, 127
2, 319515, Note_on_c, 0, 62, 0
2, 319616, Note_on_c, 0, 56, 0
2, 319812, Note_on_c, 0, 58, 0
2, 320333, Note_on_c, 0, 53, 26
2, 320707, Note_on_c, 0, 53, 0
2, 320713, Note_on_c, 0, 56, 56
2, 320776, Control_c, 0, 64, 0
2, 320826, Note_on_c, 0, 56, 0
2, 320916, Note_on_c, 0, 58, 56
2, 321133, Note_on_c, 0, 56, 58
2, 321204, Note_on_c, 0, 58, 0
2, 321346, Note_on_c, 0, 56, 0
2, 321373, Note_on_c, 0, 55, 35
2, 321558, Note_on_c, 0, 55, 0
2, 321619, Note_on_c, 0, 53, 10
2, 321707, Note_on_c, 0, 56, 64
2, 321938, Note_on_c, 0, 56, 0
2, 322038, Note_on_c, 0, 58, 67
2, 322218, Note_on_c, 0, 58, 0
2, 322228, Note_on_c, 0, 46, 0
2, 322308, Note_on_c, 0, 59, 69
2, 322525, Note_on_c, 0, 59, 0
2, 322633, Note_on_c, 0, 60, 56
2, 322688, Note_on_c, 0, 53, 0
2, 322733, Note_on_c, 0, 47, 29
2, 322744, Note_on_c, 0, 55, 24
2, 322863, Note_on_c, 0, 60, 0
2, 322980, Note_on_c, 0, 61, 54
2, 323040, Note_on_c, 0, 55, 0
2, 323147, Note_on_c, 0, 61, 0
2, 323299, Note_on_c, 0, 62, 43
2, 323309, Note_on_c, 0, 64, 40
2, 323343, Note_on_c, 0, 55, 34
2, 323460, Note_on_c, 0, 62, 0
2, 323485, Note_on_c, 0, 64, 0
2, 323514, Note_on_c, 0, 47, 0
2, 323602, Note_on_c, 0, 55, 0
2, 323610, Note_on_c, 0, 67, 56
2, 323787, Note_on_c, 0, 67, 0
2, 323933, Note_on_c, 0, 71, 76
2, 324123, Note_on_c, 0, 71, 0
2, 324242, Note_on_c, 0, 74, 85
2, 324466, Note_on_c, 0, 74, 0
2, 324635, Note_on_c, 0, 71, 63
2, 325035, Note_on_c, 0, 71, 0
2, 325090, Note_on_c, 0, 62, 40
2, 325115, Note_on_c, 0, 74, 67
2, 325138, Note_on_c, 0, 55, 26
2, 325167, Note_on_c, 0, 62, 0
2, 325181, Note_on_c, 0, 59, 22
2, 325286, Note_on_c, 0, 55, 0
2, 325317, Note_on_c, 0, 59, 0
2, 325328, Note_on_c, 0, 74, 0
2, 325528, Note_on_c, 0, 77, 94
2, 326012, Note_on_c, 0, 77, 0
2, 326056, Note_on_c, 0, 67, 66
2, 326066, Note_on_c, 0, 60, 51
2, 326075, Note_on_c, 0, 63, 53
2, 326079, Note_on_c, 0, 62, 49
2, 326081, Note_on_c, 0, 74, 88
2, 326206, Note_on_c, 0, 67, 0
2, 326321, Note_on_c, 0, 63, 0
2, 326365, Note_on_c, 0, 62, 0
2, 326394, Note_on_c, 0, 74, 0
2, 326419, Note_on_c, 0, 60, 0
2, 326605, Note_on_c, 0, 75, 81
2, 327024, Note_on_c, 0, 75, 0
2, 327068, Note_on_c, 0, 67, 59
2, 327318, Note_on_c, 0, 67, 0
2, 327542, Note_on_c, 0, 67, 30
2, 327857, Note_on_c, 0, 67, 0
2, 328032, Note_on_c, 0, 67, 47
2, 328038, Note_on_c, 0, 63, 39
2, 328112, Note_on_c, 0, 60, 24
2, 328231, Note_on_c, 0, 63, 0
2, 328345, Note_on_c, 0, 67, 0
2, 328354, Note_on_c, 0, 60, 0
2, 328473, Note_on_c, 0, 79, 48
2, 328809, Note_on_c, 0, 79, 0
2, 329301, Control_c, 0, 64, 127
2, 329821, Control_c, 0, 64, 0
2, 329936, Note_on_c, 0, 67, 75
2, 329942, Note_on_c, 0, 59, 64
2, 329948, Note_on_c, 0, 63, 71
2, 329961, Note_on_c, 0, 95, 82
2, 329977, Note_on_c, 0, 89, 80
2, 329979, Note_on_c, 0, 83, 81
2, 330017, Note_on_c, 0, 93, 40
2, 330052, Control_c, 0, 64, 127
2, 330109, Note_on_c, 0, 93, 0
2, 330247, Note_on_c, 0, 59, 0
2, 330251, Note_on_c, 0, 67, 0
2, 330307, Note_on_c, 0, 95, 0
2, 330313, Note_on_c, 0, 83, 0
2, 330355, Note_on_c, 0, 63, 0
2, 330418, Note_on_c, 0, 89, 0
2, 330670, Control_c, 0, 64, 0
2, 331344, Control_c, 0, 64, 127
2, 332133, Control_c, 0, 64, 0
2, 332233, Note_on_c, 0, 90, 72
2, 332244, Note_on_c, 0, 94, 67
2, 332246, Note_on_c, 0, 82, 86
2, 332250, Note_on_c, 0, 59, 70
2, 332256, Note_on_c, 0, 63, 68
2, 332258, Note_on_c, 0, 67, 74
2, 332298, Note_on_c, 0, 92, 34
2, 332390, Note_on_c, 0, 94, 0
2, 332440, Note_on_c, 0, 93, 32
2, 332446, Note_on_c, 0, 95, 34
2, 332461, Note_on_c, 0, 82, 0
2, 332488, Note_on_c, 0, 91, 68
2, 332496, Note_on_c, 0, 83, 36
2, 332569, Note_on_c, 0, 83, 0
2, 332598, Note_on_c, 0, 95, 0
2, 332599, Note_on_c, 0, 90, 0
2, 332649, Note_on_c, 0, 67, 0
2, 332653, Note_on_c, 0, 91, 0
2, 332672, Note_on_c, 0, 93, 0
2, 332728, Note_on_c, 0, 59, 0
2, 332730, Note_on_c, 0, 92, 0
2, 332757, Note_on_c, 0, 63, 0
2, 332903, Note_on_c, 0, 59, 69
2, 332909, Note_on_c, 0, 98, 76
2, 332922, Note_on_c, 0, 63, 65
2, 332934, Note_on_c, 0, 86, 79
2, 332935, Note_on_c, 0, 67, 71
2, 332974, Note_on_c, 0, 96, 40
2, 333058, Note_on_c, 0, 96, 0
2, 333081, Note_on_c, 0, 98, 0
2, 333095, Note_on_c, 0, 86, 0
2, 333164, Note_on_c, 0, 67, 0
2, 333229, Note_on_c, 0, 59, 0
2, 333248, Note_on_c, 0, 63, 0
2, 333343, Note_on_c, 0, 67, 48
2, 333352, Note_on_c, 0, 63, 46
2, 333369, Note_on_c, 0, 59, 64
2, 333377, Note_on_c, 0, 94, 53
2, 333383, Note_on_c, 0, 82, 58
2, 333421, Note_on_c, 0, 87, 37
2, 333446, Note_on_c, 0, 90, 29
2, 333450, Note_on_c, 0, 92, 33
2, 333554, Note_on_c, 0, 94, 0
2, 333583, Note_on_c, 0, 82, 0
2, 333590, Note_on_c, 0, 83, 58
2, 333606, Note_on_c, 0, 95, 39
2, 333611, Note_on_c, 0, 90, 0
2, 333617, Note_on_c, 0, 87, 0
2, 333661, Note_on_c, 0, 83, 0
2, 333669, Note_on_c, 0, 93, 44
2, 333671, Note_on_c, 0, 67, 0
2, 333719, Note_on_c, 0, 95, 0
2, 333748, Note_on_c, 0, 93, 0
2, 333778, Note_on_c, 0, 92, 0
2, 333784, Note_on_c, 0, 63, 0
2, 333836, Note_on_c, 0, 59, 0
2, 333936, Note_on_c, 0, 63, 75
2, 333942, Note_on_c, 0, 67, 66
2, 333976, Note_on_c, 0, 98, 80
2, 333986, Note_on_c, 0, 59, 25
2, 334007, Note_on_c, 0, 86, 68
2, 334036, Note_on_c, 0, 88, 57
2, 334049, Note_on_c, 0, 96, 31
2, 334059, Control_c, 0, 64, 127
2, 334082, Note_on_c, 0, 86, 0
2, 334084, Note_on_c, 0, 67, 0
2, 334105, Note_on_c, 0, 59, 0
2, 334112, Note_on_c, 0, 88, 0
2, 334139, Note_on_c, 0, 96, 0
2, 334145, Note_on_c, 0, 98, 0
2, 334155, Control_c, 0, 64, 0
2, 334166, Note_on_c, 0, 63, 0
2, 334370, Note_on_c, 0, 65, 73
2, 334375, Note_on_c, 0, 60, 49
2, 334383, Note_on_c, 0, 56, 71
2, 334402, Note_on_c, 0, 82, 63
2, 334414, Note_on_c, 0, 94, 39
2, 334416, Note_on_c, 0, 87, 46
2, 334431, Note_on_c, 0, 61, 34
2, 334462, Note_on_c, 0, 90, 25
2, 334537, Note_on_c, 0, 92, 25
2, 334640, Note_on_c, 0, 90, 0
2, 334650, Note_on_c, 0, 82, 0
2, 334663, Note_on_c, 0, 83, 54
2, 334665, Note_on_c, 0, 87, 0
2, 334677, Note_on_c, 0, 95, 45
2, 334711, Note_on_c, 0, 88, 37
2, 334761, Note_on_c, 0, 95, 0
2, 334806, Note_on_c, 0, 92, 0
2, 334817, Note_on_c, 0, 83, 0
2, 334823, Note_on_c, 0, 56, 0
2, 334854, Note_on_c, 0, 94, 0
2, 334857, Note_on_c, 0, 88, 0
2, 334863, Note_on_c, 0, 65, 0
2, 334896, Note_on_c, 0, 60, 0
2, 334898, Note_on_c, 0, 61, 0
2, 335168, Note_on_c, 0, 65, 64
2, 335174, Note_on_c, 0, 82, 67
2, 335178, Note_on_c, 0, 94, 58
2, 335188, Note_on_c, 0, 56, 50
2, 335193, Control_c, 0, 64, 127
2, 335193, Note_on_c, 0, 61, 45
2, 335199, Note_on_c, 0, 60, 44
2, 335207, Note_on_c, 0, 87, 46
2, 335587, Note_on_c, 0, 94, 0
2, 335647, Note_on_c, 0, 65, 0
2, 335656, Note_on_c, 0, 56, 0
2, 335679, Note_on_c, 0, 82, 0
2, 335704, Note_on_c, 0, 60, 0
2, 335710, Control_c, 0, 64, 0
2, 335718, Note_on_c, 0, 61, 0
2, 335723, Note_on_c, 0, 87, 0
2, 335850, Note_on_c, 0, 65, 56
2, 335860, Note_on_c, 0, 56, 54
2, 335865, Note_on_c, 0, 92, 45
2, 335867, Note_on_c, 0, 61, 60
2, 335875, Note_on_c, 0, 60, 45
2, 335887, Note_on_c, 0, 80, 30
2, 335888, Note_on_c, 0, 87, 49
2, 336057, Control_c, 0, 64, 127
2, 336107, Note_on_c, 0, 56, 0
2, 336136, Note_on_c, 0, 92, 0
2, 336153, Note_on_c, 0, 80, 0
2, 336175, Note_on_c, 0, 87, 0
2, 336178, Note_on_c, 0, 65, 0
2, 336205, Note_on_c, 0, 60, 0
2, 336234, Note_on_c, 0, 61, 0
2, 336457, Note_on_c, 0, 65, 60
2, 336474, Note_on_c, 0, 61, 52
2, 336480, Note_on_c, 0, 56, 56
2, 336491, Note_on_c, 0, 60, 39
2, 336570, Note_on_c, 0, 82, 49
2, 336576, Note_on_c, 0, 94, 49
2, 336651, Note_on_c, 0, 94, 0
2, 336729, Control_c, 0, 64, 0
2, 336743, Note_on_c, 0, 56, 0
2, 336747, Note_on_c, 0, 82, 0
2, 336804, Note_on_c, 0, 65, 0
2, 336820, Note_on_c, 0, 60, 0
2, 336848, Note_on_c, 0, 61, 0
2, 337000, Control_c, 0, 64, 127
2, 337094, Note_on_c, 0, 65, 66
2, 337096, Note_on_c, 0, 61, 59
2, 337098, Note_on_c, 0, 56, 67
2, 337115, Note_on_c, 0, 60, 41
2, 337119, Note_on_c, 0, 83, 55
2, 337121, Note_on_c, 0, 96, 53
2, 337136, Note_on_c, 0, 95, 51
2, 337138, Note_on_c, 0, 84, 61
2, 337171, Note_on_c, 0, 90, 21
2, 337244, Note_on_c, 0, 83, 0
2, 337246, Note_on_c, 0, 90, 0
2, 337298, Note_on_c, 0, 95, 0
2, 337309, Note_on_c, 0, 84, 0
2, 337346, Note_on_c, 0, 96, 0
2, 337449, Note_on_c, 0, 60, 0
2, 337451, Note_on_c, 0, 65, 0
2, 337559, Control_c, 0, 64, 0
2, 337570, Note_on_c, 0, 61, 0
2, 337576, Note_on_c, 0, 56, 0
2, 337697, Note_on_c, 0, 61, 68
2, 337701, Note_on_c, 0, 97, 57
2, 337707, Note_on_c, 0, 64, 62
2, 337728, Note_on_c, 0, 85, 57
2, 337737, Note_on_c, 0, 92, 55
2, 337741, Note_on_c, 0, 55, 40
2, 337743, Note_on_c, 0, 58, 48
2, 337760, Note_on_c, 0, 94, 37
2, 337943, Control_c, 0, 64, 127
2, 338144, Note_on_c, 0, 58, 0
2, 338177, Note_on_c, 0, 64, 0
2, 338179, Note_on_c, 0, 92, 0
2, 338181, Note_on_c, 0, 85, 0
2, 338185, Note_on_c, 0, 55, 0
2, 338229, Note_on_c, 0, 61, 0
2, 338231, Note_on_c, 0, 94, 0
2, 338267, Note_on_c, 0, 97, 0
2, 338561, Control_c, 0, 64, 0
2, 338596, Note_on_c, 0, 99, 67
2, 338598, Note_on_c, 0, 94, 64
2, 338607, Note_on_c, 0, 87, 60
2, 338613, Note_on_c, 0, 61, 63
2, 338617, Note_on_c, 0, 64, 74
2, 338619, Note_on_c, 0, 58, 64
2, 338632, Note_on_c, 0, 55, 49
2, 338893, Control_c, 0, 64, 127
2, 339041, Note_on_c, 0, 99, 0
2, 339064, Note_on_c, 0, 94, 0
2, 339135, Note_on_c, 0, 87, 0
2, 339227, Note_on_c, 0, 64, 0
2, 339248, Note_on_c, 0, 55, 0
2, 339279, Note_on_c, 0, 58, 0
2, 339312, Note_on_c, 0, 61, 0
2, 339469, Control_c, 0, 64, 0
2, 339538, Note_on_c, 0, 61, 71
2, 339538, Note_on_c, 0, 96, 56
2, 339540, Note_on_c, 0, 58, 71
2, 339544, Note_on_c, 0, 84, 70
2, 339548, Note_on_c, 0, 91, 64
2, 339550, Note_on_c, 0, 64, 69
2, 339559, Note_on_c, 0, 55, 57
2, 339769, Note_on_c, 0, 96, 0
2, 339796, Control_c, 0, 64, 127
2, 339859, Note_on_c, 0, 91, 0
2, 339892, Note_on_c, 0, 55, 0
2, 339907, Note_on_c, 0, 84, 0
2, 339919, Note_on_c, 0, 64, 0
2, 339993, Note_on_c, 0, 58, 0
2, 340011, Note_on_c, 0, 61, 0
2, 340105, Note_on_c, 0, 94, 57
2, 340136, Note_on_c, 0, 82, 55
2, 340143, Note_on_c, 0, 58, 55
2, 340145, Note_on_c, 0, 61, 71
2, 340147, Note_on_c, 0, 64, 44
2, 340176, Note_on_c, 0, 55, 36
2, 340466, Note_on_c, 0, 64, 0
2, 340502, Note_on_c, 0, 82, 0
2, 340512, Note_on_c, 0, 55, 0
2, 340556, Note_on_c, 0, 94, 0
2, 340567, Control_c, 0, 64, 0
2, 340602, Note_on_c, 0, 58, 0
2, 340652, Note_on_c, 0, 61, 0
2, 340781, Control_c, 0, 64, 127
2, 340786, Note_on_c, 0, 55, 44
2, 340792, Note_on_c, 0, 61, 51
2, 340809, Note_on_c, 0, 93, 62
2, 340819, Note_on_c, 0, 64, 48
2, 340831, Note_on_c, 0, 58, 48
2, 340836, Note_on_c, 0, 88, 52
2, 340844, Note_on_c, 0, 81, 53
2, 340999, Note_on_c, 0, 64, 0
2, 341013, Note_on_c, 0, 55, 0
2, 341061, Note_on_c, 0, 93, 0
2, 341101, Note_on_c, 0, 58, 0
2, 341168, Note_on_c, 0, 81, 0
2, 341170, Note_on_c, 0, 88, 0
2, 341314, Note_on_c, 0, 61, 0
2, 341455, Control_c, 0, 64, 0
2, 341522, Note_on_c, 0, 92, 50
2, 341545, Note_on_c, 0, 60, 44
2, 341552, Note_on_c, 0, 63, 58
2, 341556, Note_on_c, 0, 87, 52
2, 341564, Note_on_c, 0, 80, 37
2, 341585, Note_on_c, 0, 58, 43
2, 341591, Note_on_c, 0, 53, 29
2, 341781, Control_c, 0, 64, 127
2, 342178, Note_on_c, 0, 92, 0
2, 342349, Note_on_c, 0, 87, 0
2, 342374, Note_on_c, 0, 80, 0
2, 342927, Note_on_c, 0, 63, 0
2, 343229, Note_on_c, 0, 60, 0
2, 343876, Control_c, 0, 64, 0
2, 343916, Control_c, 0, 64, 127
2, 343952, Note_on_c, 0, 58, 0
2, 344329, Note_on_c, 0, 58, 35
2, 344513, Note_on_c, 0, 58, 0
2, 344630, Note_on_c, 0, 60, 51
2, 344742, Control_c, 0, 64, 0
2, 344803, Note_on_c, 0, 60, 0
2, 344926, Note_on_c, 0, 63, 62
2, 345122, Note_on_c, 0, 63, 0
2, 345139, Note_on_c, 0, 53, 0
2, 345210, Note_on_c, 0, 67, 58
2, 345314, Note_on_c, 0, 60, 37
2, 345448, Note_on_c, 0, 67, 0
2, 345548, Note_on_c, 0, 60, 0
2, 345575, Note_on_c, 0, 70, 64
2, 345759, Note_on_c, 0, 70, 0
2, 345874, Note_on_c, 0, 67, 45
2, 346064, Note_on_c, 0, 67, 0
2, 346180, Note_on_c, 0, 68, 60
2, 346208, Note_on_c, 0, 60, 19
2, 346247, Note_on_c, 0, 58, 20
2, 346354, Note_on_c, 0, 60, 0
2, 346399, Note_on_c, 0, 68, 0
2, 346458, Note_on_c, 0, 58, 0
2, 346541, Note_on_c, 0, 70, 50
2, 346710, Note_on_c, 0, 70, 0
2, 346863, Note_on_c, 0, 72, 51
2, 347084, Note_on_c, 0, 72, 0
2, 347165, Note_on_c, 0, 73, 62
2, 347180, Note_on_c, 0, 64, 53
2, 347211, Note_on_c, 0, 60, 34
2, 347226, Note_on_c, 0, 58, 31
2, 347264, Note_on_c, 0, 64, 0
2, 347307, Note_on_c, 0, 60, 0
2, 347334, Note_on_c, 0, 58, 0
2, 347380, Note_on_c, 0, 73, 0
2, 347531, Note_on_c, 0, 75, 58
2, 347746, Note_on_c, 0, 75, 0
2, 347858, Note_on_c, 0, 76, 60
2, 348055, Note_on_c, 0, 76, 0
2, 348153, Note_on_c, 0, 64, 62
2, 348167, Note_on_c, 0, 78, 65
2, 348173, Note_on_c, 0, 58, 56
2, 348178, Note_on_c, 0, 60, 41
2, 348311, Note_on_c, 0, 64, 0
2, 348340, Note_on_c, 0, 60, 0
2, 348372, Note_on_c, 0, 78, 0
2, 348438, Note_on_c, 0, 58, 0
2, 348489, Note_on_c, 0, 79, 60
2, 348693, Note_on_c, 0, 79, 0
2, 348827, Note_on_c, 0, 80, 64
2, 348967, Note_on_c, 0, 80, 0
2, 349136, Note_on_c, 0, 84, 83
2, 349225, Note_on_c, 0, 64, 50
2, 349240, Note_on_c, 0, 60, 28
2, 349332, Note_on_c, 0, 64, 0
2, 349355, Note_on_c, 0, 60, 0
2, 349373, Note_on_c, 0, 84, 0
2, 349515, Note_on_c, 0, 80, 57
2, 349891, Note_on_c, 0, 80, 0
2, 350054, Note_on_c, 0, 82, 77
2, 350127, Note_on_c, 0, 83, 71
2, 350340, Note_on_c, 0, 83, 0
2, 350407, Note_on_c, 0, 82, 0
2, 350446, Note_on_c, 0, 79, 47
2, 350920, Note_on_c, 0, 79, 0
2, 351033, Note_on_c, 0, 80, 73
2, 351072, Note_on_c, 0, 63, 25
2, 351133, Note_on_c, 0, 60, 15
2, 351248, Note_on_c, 0, 63, 0
2, 351289, Note_on_c, 0, 60, 0
2, 351366, Note_on_c, 0, 80, 0
2, 351423, Note_on_c, 0, 77, 51
2, 351792, Note_on_c, 0, 77, 0
2, 351976, Note_on_c, 0, 63, 51
2, 351980, Note_on_c, 0, 79, 61
2, 352007, Note_on_c, 0, 67, 33
2, 352022, Note_on_c, 0, 60, 31
2, 352043, Note_on_c, 0, 56, 29
2, 352093, Note_on_c, 0, 67, 0
2, 352130, Note_on_c, 0, 60, 0
2, 352160, Note_on_c, 0, 63, 0
2, 352191, Note_on_c, 0, 56, 0
2, 352339, Note_on_c, 0, 77, 66
2, 352443, Note_on_c, 0, 79, 0
2, 352800, Note_on_c, 0, 77, 0
2, 352913, Note_on_c, 0, 56, 57
2, 352915, Note_on_c, 0, 72, 35
2, 352917, Note_on_c, 0, 60, 51
2, 352934, Note_on_c, 0, 50, 43
2, 353140, Note_on_c, 0, 72, 0
2, 353305, Note_on_c, 0, 68, 47
2, 353332, Note_on_c, 0, 60, 0
2, 353382, Note_on_c, 0, 56, 0
2, 353869, Note_on_c, 0, 68, 0
2, 353915, Note_on_c, 0, 56, 42
2, 353917, Note_on_c, 0, 60, 29
2, 354105, Note_on_c, 0, 50, 0
2, 354180, Note_on_c, 0, 56, 0
2, 354223, Note_on_c, 0, 67, 55
2, 354232, Control_c, 0, 64, 127
2, 354345, Note_on_c, 0, 60, 0
2, 354712, Note_on_c, 0, 67, 0
2, 354772, Control_c, 0, 64, 0
2, 354831, Note_on_c, 0, 63, 62
2, 354848, Note_on_c, 0, 59, 55
2, 354866, Note_on_c, 0, 68, 64
2, 354981, Note_on_c, 0, 63, 0
2, 355090, Note_on_c, 0, 59, 0
2, 355459, Note_on_c, 0, 68, 0
2, 355538, Note_on_c, 0, 70, 70
2, 355868, Note_on_c, 0, 68, 53
2, 355889, Note_on_c, 0, 70, 0
2, 356112, Note_on_c, 0, 68, 0
2, 356150, Note_on_c, 0, 63, 49
2, 356502, Note_on_c, 0, 59, 40
2, 356519, Note_on_c, 0, 63, 0
2, 356638, Note_on_c, 0, 55, 17
2, 356761, Note_on_c, 0, 59, 0
2, 356815, Note_on_c, 0, 65, 55
2, 357104, Note_on_c, 0, 55, 0
2, 357160, Note_on_c, 0, 65, 0
2, 357166, Note_on_c, 0, 62, 31
2, 357385, Note_on_c, 0, 62, 0
2, 357492, Note_on_c, 0, 63, 56
2, 357813, Note_on_c, 0, 55, 45
2, 358105, Note_on_c, 0, 55, 0
2, 358214, Note_on_c, 0, 55, 48
2, 358669, Note_on_c, 0, 55, 0
2, 358784, Note_on_c, 0, 55, 44
2, 359049, Note_on_c, 0, 55, 0
2, 359211, Note_on_c, 0, 55, 34
2, 359752, Note_on_c, 0, 55, 0
2, 360027, Note_on_c, 0, 55, 28
2, 360061, Control_c, 0, 64, 127
2, 360378, Note_on_c, 0, 55, 0
2, 360699, Control_c, 0, 64, 0
2, 360781, Note_on_c, 0, 63, 0
2, 360958, Note_on_c, 0, 41, 35
2, 361081, Note_on_c, 0, 55, 18
2, 361083, Note_on_c, 0, 57, 20
2, 361184, Control_c, 0, 64, 127
2, 361350, Note_on_c, 0, 41, 0
2, 361369, Note_on_c, 0, 55, 0
2, 361469, Note_on_c, 0, 57, 0
2, 361916, Control_c, 0, 64, 0
2, 361933, Note_on_c, 0, 87, 42
2, 362014, Note_on_c, 0, 87, 0
2, 362081, Note_on_c, 0, 91, 67
2, 362227, Note_on_c, 0, 87, 38
2, 362346, Note_on_c, 0, 91, 0
2, 362381, Note_on_c, 0, 84, 55
2, 362471, Note_on_c, 0, 87, 0
2, 362473, Note_on_c, 0, 84, 0
2, 362546, Note_on_c, 0, 81, 55
2, 362709, Note_on_c, 0, 81, 0
2, 362786, Note_on_c, 0, 80, 51
2, 362970, Note_on_c, 0, 80, 0
2, 362993, Note_on_c, 0, 79, 39
2, 363133, Note_on_c, 0, 78, 60
2, 363135, Note_on_c, 0, 79, 0
2, 363308, Note_on_c, 0, 78, 0
2, 363348, Note_on_c, 0, 77, 45
2, 363513, Note_on_c, 0, 77, 0
2, 363575, Note_on_c, 0, 76, 32
2, 363732, Note_on_c, 0, 76, 0
2, 363809, Note_on_c, 0, 75, 37
2, 364139, Note_on_c, 0, 75, 0
2, 365088, Control_c, 0, 64, 127
2, 365478, Note_on_c, 0, 66, 47
2, 365491, Note_on_c, 0, 62, 36
2, 365495, Control_c, 0, 64, 0
2, 365535, Note_on_c, 0, 56, 52
2, 365764, Control_c, 0, 64, 127
2, 366071, Control_c, 0, 64, 0
2, 366196, Note_on_c, 0, 85, 59
2, 366213, Note_on_c, 0, 78, 68
2, 366361, Note_on_c, 0, 78, 0
2, 366420, Note_on_c, 0, 85, 0
2, 366463, Note_on_c, 0, 66, 0
2, 366484, Note_on_c, 0, 56, 0
2, 366495, Note_on_c, 0, 73, 42
2, 366505, Note_on_c, 0, 82, 50
2, 366597, Note_on_c, 0, 62, 0
2, 366660, Note_on_c, 0, 73, 0
2, 366699, Note_on_c, 0, 82, 0
2, 366820, Note_on_c, 0, 78, 69
2, 366824, Note_on_c, 0, 62, 35
2, 366831, Note_on_c, 0, 66, 52
2, 366833, Note_on_c, 0, 85, 61
2, 366875, Note_on_c, 0, 56, 45
2, 367229, Note_on_c, 0, 78, 0
2, 367300, Note_on_c, 0, 56, 0
2, 367317, Note_on_c, 0, 66, 0
2, 367344, Note_on_c, 0, 85, 0
2, 367367, Note_on_c, 0, 62, 0
2, 367678, Note_on_c, 0, 85, 53
2, 367684, Note_on_c, 0, 78, 74
2, 367697, Note_on_c, 0, 66, 47
2, 367709, Note_on_c, 0, 62, 35
2, 367810, Note_on_c, 0, 62, 0
2, 367870, Note_on_c, 0, 66, 0
2, 367897, Note_on_c, 0, 78, 0
2, 367929, Note_on_c, 0, 85, 0
2, 368022, Note_on_c, 0, 82, 57
2, 368240, Note_on_c, 0, 82, 0
2, 368317, Note_on_c, 0, 78, 55
2, 368323, Note_on_c, 0, 73, 25
2, 368337, Note_on_c, 0, 85, 53
2, 368338, Note_on_c, 0, 66, 42
2, 368381, Note_on_c, 0, 56, 60
2, 368404, Note_on_c, 0, 62, 33
2, 368409, Note_on_c, 0, 82, 29
2, 368632, Note_on_c, 0, 78, 0
2, 368634, Note_on_c, 0, 73, 0
2, 368655, Note_on_c, 0, 82, 0
2, 368659, Note_on_c, 0, 56, 0
2, 368663, Note_on_c, 0, 62, 0
2, 368722, Note_on_c, 0, 66, 0
2, 368745, Note_on_c, 0, 85, 0
2, 369012, Note_on_c, 0, 79, 62
2, 369018, Note_on_c, 0, 86, 65
2, 369041, Note_on_c, 0, 56, 67
2, 369049, Note_on_c, 0, 62, 40
2, 369070, Note_on_c, 0, 67, 38
2, 369218, Note_on_c, 0, 86, 0
2, 369235, Note_on_c, 0, 79, 0
2, 369277, Note_on_c, 0, 67, 0
2, 369381, Note_on_c, 0, 74, 45
2, 369381, Note_on_c, 0, 83, 59
2, 369415, Note_on_c, 0, 62, 0
2, 369429, Note_on_c, 0, 56, 0
2, 369542, Note_on_c, 0, 74, 0
2, 369615, Note_on_c, 0, 83, 0
2, 369696, Note_on_c, 0, 56, 68
2, 369713, Note_on_c, 0, 67, 55
2, 369715, Note_on_c, 0, 62, 53
2, 369719, Note_on_c, 0, 79, 64
2, 369721, Note_on_c, 0, 86, 70
2, 370153, Note_on_c, 0, 86, 0
2, 370174, Note_on_c, 0, 79, 0
2, 370222, Note_on_c, 0, 67, 0
2, 370231, Note_on_c, 0, 56, 0
2, 370233, Note_on_c, 0, 62, 0
2, 370544, Note_on_c, 0, 86, 67
2, 370552, Note_on_c, 0, 56, 67
2, 370554, Note_on_c, 0, 79, 68
2, 370569, Note_on_c, 0, 67, 54
2, 370592, Note_on_c, 0, 62, 41
2, 370667, Note_on_c, 0, 62, 0
2, 370700, Note_on_c, 0, 67, 0
2, 370711, Note_on_c, 0, 86, 0
2, 370717, Note_on_c, 0, 79, 0
2, 370777, Note_on_c, 0, 56, 0
2, 370880, Note_on_c, 0, 74, 46
2, 370892, Note_on_c, 0, 83, 54
2, 371055, Note_on_c, 0, 74, 0
2, 371119, Note_on_c, 0, 83, 0
2, 371253, Note_on_c, 0, 56, 68
2, 371261, Note_on_c, 0, 86, 73
2, 371266, Note_on_c, 0, 62, 53
2, 371268, Note_on_c, 0, 79, 69
2, 371276, Note_on_c, 0, 67, 59
2, 371445, Control_c, 0, 64, 127
2, 371518, Note_on_c, 0, 79, 0
2, 371558, Note_on_c, 0, 86, 0
2, 371560, Note_on_c, 0, 67, 0
2, 371622, Note_on_c, 0, 56, 0
2, 371641, Note_on_c, 0, 62, 0
2, 371712, Control_c, 0, 64, 0
2, 371873, Note_on_c, 0, 86, 66
2, 371887, Note_on_c, 0, 56, 63
2, 371894, Note_on_c, 0, 79, 57
2, 371902, Note_on_c, 0, 67, 39
2, 371904, Note_on_c, 0, 62, 26
2, 371910, Control_c, 0, 64, 127
2, 371915, Note_on_c, 0, 74, 47
2, 372007, Note_on_c, 0, 74, 0
2, 372011, Note_on_c, 0, 67, 0
2, 372063, Note_on_c, 0, 79, 0
2, 372084, Note_on_c, 0, 86, 0
2, 372125, Note_on_c, 0, 62, 0
2, 372290, Note_on_c, 0, 83, 45
2, 372309, Note_on_c, 0, 62, 28
2, 372376, Note_on_c, 0, 83, 0
2, 372420, Note_on_c, 0, 62, 0
2, 372441, Control_c, 0, 64, 0
2, 372463, Note_on_c, 0, 56, 0
2, 372578, Note_on_c, 0, 62, 55
2, 372585, Note_on_c, 0, 65, 71
2, 372591, Note_on_c, 0, 86, 76
2, 372595, Note_on_c, 0, 55, 53
2, 372612, Note_on_c, 0, 79, 53
2, 372616, Note_on_c, 0, 60, 51
2, 372628, Note_on_c, 0, 74, 60
2, 373073, Note_on_c, 0, 86, 0
2, 373075, Note_on_c, 0, 79, 0
2, 373079, Note_on_c, 0, 74, 0
2, 373096, Note_on_c, 0, 55, 0
2, 373125, Note_on_c, 0, 65, 0
2, 373140, Note_on_c, 0, 62, 0
2, 373148, Note_on_c, 0, 60, 0
2, 373380, Note_on_c, 0, 62, 34
2, 373382, Note_on_c, 0, 86, 71
2, 373386, Note_on_c, 0, 65, 69
2, 373396, Note_on_c, 0, 60, 32
2, 373399, Note_on_c, 0, 74, 62
2, 373403, Note_on_c, 0, 55, 46
2, 373411, Note_on_c, 0, 79, 58
2, 373536, Note_on_c, 0, 79, 0
2, 373557, Note_on_c, 0, 74, 0
2, 373563, Note_on_c, 0, 65, 0
2, 373572, Note_on_c, 0, 62, 0
2, 373605, Note_on_c, 0, 86, 0
2, 373611, Note_on_c, 0, 60, 0
2, 373636, Note_on_c, 0, 55, 0
2, 373759, Note_on_c, 0, 83, 54
2, 373927, Note_on_c, 0, 83, 0
2, 374091, Note_on_c, 0, 65, 71
2, 374093, Note_on_c, 0, 55, 60
2, 374096, Note_on_c, 0, 62, 51
2, 374098, Note_on_c, 0, 60, 51
2, 374106, Note_on_c, 0, 86, 74
2, 374114, Note_on_c, 0, 79, 71
2, 374129, Note_on_c, 0, 74, 66
2, 374386, Control_c, 0, 64, 127
2, 374448, Note_on_c, 0, 74, 0
2, 374480, Note_on_c, 0, 79, 0
2, 374509, Note_on_c, 0, 86, 0
2, 374542, Note_on_c, 0, 62, 0
2, 374553, Note_on_c, 0, 55, 0
2, 374555, Note_on_c, 0, 65, 0
2, 374557, Note_on_c, 0, 60, 0
2, 374811, Note_on_c, 0, 87, 59
2, 374816, Note_on_c, 0, 65, 68
2, 374820, Note_on_c, 0, 75, 50
2, 374824, Note_on_c, 0, 62, 42
2, 374830, Note_on_c, 0, 79, 38
2, 374832, Note_on_c, 0, 60, 33
2, 374836, Note_on_c, 0, 55, 41
2, 374916, Note_on_c, 0, 79, 0
2, 374997, Note_on_c, 0, 75, 0
2, 375005, Note_on_c, 0, 87, 0
2, 375007, Note_on_c, 0, 65, 0
2, 375014, Note_on_c, 0, 62, 0
2, 375083, Note_on_c, 0, 60, 0
2, 375093, Note_on_c, 0, 55, 0
2, 375216, Control_c, 0, 64, 0
2, 375460, Note_on_c, 0, 79, 70
2, 375465, Note_on_c, 0, 87, 74
2, 375467, Note_on_c, 0, 55, 51
2, 375469, Note_on_c, 0, 65, 68
2, 375471, Note_on_c, 0, 60, 53
2, 375473, Note_on_c, 0, 62, 51
2, 375490, Note_on_c, 0, 75, 67
2, 375584, Control_c, 0, 64, 127
2, 375847, Note_on_c, 0, 79, 0
2, 375899, Note_on_c, 0, 62, 0
2, 375957, Note_on_c, 0, 65, 0
2, 375961, Note_on_c, 0, 60, 0
2, 376005, Note_on_c, 0, 75, 0
2, 376024, Note_on_c, 0, 55, 0
2, 376066, Note_on_c, 0, 87, 0
2, 376297, Control_c, 0, 64, 0
2, 376944, Note_on_c, 0, 63, 85
2, 376953, Note_on_c, 0, 58, 75
2, 376955, Note_on_c, 0, 52, 73
2, 376961, Note_on_c, 0, 87, 82
2, 376963, Note_on_c, 0, 75, 86
2, 376992, Note_on_c, 0, 82, 61
2, 377057, Note_on_c, 0, 82, 0
2, 377094, Note_on_c, 0, 75, 0
2, 377178, Note_on_c, 0, 87, 0
2, 377230, Note_on_c, 0, 52, 0
2, 377234, Note_on_c, 0, 63, 0
2, 377311, Note_on_c, 0, 58, 0
2, 377343, Note_on_c, 0, 84, 47
2, 377474, Note_on_c, 0, 84, 0
2, 377620, Note_on_c, 0, 63, 83
2, 377629, Note_on_c, 0, 87, 77
2, 377631, Note_on_c, 0, 52, 74
2, 377635, Note_on_c, 0, 58, 74
2, 377637, Note_on_c, 0, 75, 82
2, 377994, Note_on_c, 0, 75, 0
2, 377996, Note_on_c, 0, 52, 0
2, 378042, Note_on_c, 0, 63, 0
2, 378046, Note_on_c, 0, 87, 0
2, 378075, Note_on_c, 0, 58, 0
2, 378299, Note_on_c, 0, 87, 73
2, 378307, Note_on_c, 0, 63, 76
2, 378315, Note_on_c, 0, 52, 68
2, 378317, Note_on_c, 0, 58, 71
2, 378319, Note_on_c, 0, 75, 77
2, 378520, Note_on_c, 0, 75, 0
2, 378578, Note_on_c, 0, 87, 0
2, 378599, Note_on_c, 0, 52, 0
2, 378607, Note_on_c, 0, 63, 0
2, 378668, Note_on_c, 0, 58, 0
2, 378710, Note_on_c, 0, 84, 26
2, 378856, Note_on_c, 0, 84, 0
2, 378954, Note_on_c, 0, 63, 81
2, 378971, Note_on_c, 0, 52, 71
2, 378983, Note_on_c, 0, 58, 70
2, 378989, Note_on_c, 0, 87, 67
2, 378998, Note_on_c, 0, 75, 69
2, 379002, Note_on_c, 0, 80, 60
2, 379039, Note_on_c, 0, 84, 40
2, 379229, Control_c, 0, 64, 127
2, 379286, Note_on_c, 0, 75, 0
2, 379303, Note_on_c, 0, 80, 0
2, 379313, Note_on_c, 0, 87, 0
2, 379336, Note_on_c, 0, 63, 0
2, 379338, Note_on_c, 0, 84, 0
2, 379350, Note_on_c, 0, 58, 0
2, 379363, Note_on_c, 0, 52, 0
2, 379478, Control_c, 0, 64, 0
2, 379670, Note_on_c, 0, 88, 70
2, 379674, Note_on_c, 0, 63, 83
2, 379680, Note_on_c, 0, 52, 71
2, 379689, Note_on_c, 0, 76, 71
2, 379703, Note_on_c, 0, 58, 69
2, 379741, Note_on_c, 0, 86, 34
2, 379785, Control_c, 0, 64, 127
2, 379824, Note_on_c, 0, 86, 0
2, 379856, Note_on_c, 0, 76, 0
2, 379858, Note_on_c, 0, 63, 0
2, 379914, Note_on_c, 0, 88, 0
2, 380020, Note_on_c, 0, 82, 64
2, 380056, Note_on_c, 0, 63, 37
2, 380114, Control_c, 0, 64, 0
2, 380160, Note_on_c, 0, 52, 0
2, 380192, Note_on_c, 0, 63, 0
2, 380208, Note_on_c, 0, 82, 0
2, 380225, Note_on_c, 0, 58, 0
2, 380300, Note_on_c, 0, 63, 78
2, 380333, Note_on_c, 0, 88, 68
2, 380342, Note_on_c, 0, 53, 36
2, 380350, Note_on_c, 0, 60, 58
2, 380356, Note_on_c, 0, 76, 76
2, 380371, Note_on_c, 0, 56, 50
2, 380400, Note_on_c, 0, 86, 44
2, 380503, Note_on_c, 0, 86, 0
2, 380515, Control_c, 0, 64, 127
2, 380809, Note_on_c, 0, 53, 0
2, 380826, Note_on_c, 0, 76, 0
2, 380834, Note_on_c, 0, 56, 0
2, 380843, Note_on_c, 0, 63, 0
2, 380857, Note_on_c, 0, 60, 0
2, 380861, Control_c, 0, 64, 0
2, 380870, Note_on_c, 0, 88, 0
2, 381122, Note_on_c, 0, 63, 71
2, 381127, Note_on_c, 0, 89, 74
2, 381137, Note_on_c, 0, 77, 74
2, 381156, Note_on_c, 0, 60, 37
2, 381160, Note_on_c, 0, 53, 32
2, 381181, Note_on_c, 0, 56, 51
2, 381304, Note_on_c, 0, 77, 0
2, 381350, Note_on_c, 0, 89, 0
2, 381423, Note_on_c, 0, 53, 0
2, 381458, Note_on_c, 0, 63, 0
2, 381475, Note_on_c, 0, 87, 30
2, 381477, Note_on_c, 0, 60, 0
2, 381494, Note_on_c, 0, 56, 0
2, 381661, Note_on_c, 0, 87, 0
2, 381751, Note_on_c, 0, 63, 67
2, 381765, Note_on_c, 0, 53, 45
2, 381775, Note_on_c, 0, 60, 40
2, 381776, Note_on_c, 0, 89, 66
2, 381782, Note_on_c, 0, 84, 46
2, 381784, Note_on_c, 0, 56, 53
2, 381790, Note_on_c, 0, 77, 54
2, 381997, Control_c, 0, 64, 127
2, 382592, Note_on_c, 0, 77, 0
2, 382610, Note_on_c, 0, 60, 0
2, 382629, Note_on_c, 0, 56, 0
2, 382648, Note_on_c, 0, 84, 0
2, 382652, Note_on_c, 0, 53, 0
2, 382660, Note_on_c, 0, 63, 0
2, 382669, Note_on_c, 0, 89, 0
2, 382973, Note_on_c, 0, 63, 46
2, 383005, Note_on_c, 0, 89, 50
2, 383019, Note_on_c, 0, 60, 29
2, 383023, Note_on_c, 0, 84, 41
2, 383028, Note_on_c, 0, 56, 46
2, 383034, Note_on_c, 0, 77, 37
2, 383247, Note_on_c, 0, 60, 0
2, 383307, Note_on_c, 0, 56, 0
2, 383343, Note_on_c, 0, 89, 0
2, 383395, Note_on_c, 0, 63, 0
2, 383418, Note_on_c, 0, 84, 0
2, 383422, Note_on_c, 0, 77, 0
2, 383827, Control_c, 0, 64, 0
2, 383958, Note_on_c, 0, 90, 48
2, 383971, Note_on_c, 0, 66, 37
2, 383990, Note_on_c, 0, 78, 30
2, 383994, Note_on_c, 0, 82, 44
2, 383998, Note_on_c, 0, 56, 44
2, 384011, Note_on_c, 0, 62, 35
2, 384071, Note_on_c, 0, 85, 21
2, 384259, Note_on_c, 0, 78, 0
2, 384272, Note_on_c, 0, 82, 0
2, 384297, Note_on_c, 0, 66, 0
2, 384301, Note_on_c, 0, 56, 0
2, 384309, Note_on_c, 0, 90, 0
2, 384311, Note_on_c, 0, 62, 0
2, 384353, Note_on_c, 0, 85, 0
2, 384612, Note_on_c, 0, 90, 44
2, 384616, Note_on_c, 0, 78, 39
2, 384618, Note_on_c, 0, 66, 43
2, 384622, Note_on_c, 0, 56, 52
2, 384626, Note_on_c, 0, 85, 47
2, 384653, Note_on_c, 0, 62, 35
2, 384789, Note_on_c, 0, 78, 0
2, 384804, Note_on_c, 0, 66, 0
2, 384816, Note_on_c, 0, 90, 0
2, 384820, Note_on_c, 0, 85, 0
2, 384841, Note_on_c, 0, 62, 0
2, 384845, Note_on_c, 0, 56, 0
2, 384996, Note_on_c, 0, 90, 36
2, 384998, Note_on_c, 0, 66, 32
2, 385014, Note_on_c, 0, 56, 31
2, 385023, Note_on_c, 0, 85, 36
2, 385033, Note_on_c, 0, 78, 26
2, 385046, Note_on_c, 0, 62, 33
2, 385279, Note_on_c, 0, 78, 0
2, 385282, Note_on_c, 0, 85, 0
2, 385305, Note_on_c, 0, 90, 0
2, 385325, Note_on_c, 0, 56, 0
2, 385327, Note_on_c, 0, 66, 0
2, 385350, Note_on_c, 0, 62, 0
2, 385569, Note_on_c, 0, 56, 54
2, 385576, Note_on_c, 0, 90, 32
2, 385578, Note_on_c, 0, 66, 48
2, 385580, Note_on_c, 0, 82, 46
2, 385588, Note_on_c, 0, 62, 24
2, 385599, Note_on_c, 0, 78, 30
2, 385728, Note_on_c, 0, 78, 0
2, 385747, Note_on_c, 0, 90, 0
2, 385772, Note_on_c, 0, 82, 0
2, 385774, Note_on_c, 0, 66, 0
2, 385808, Note_on_c, 0, 62, 0
2, 385828, Note_on_c, 0, 56, 0
2, 385945, Control_c, 0, 64, 127
2, 385979, Note_on_c, 0, 66, 38
2, 385985, Note_on_c, 0, 56, 25
2, 385995, Note_on_c, 0, 82, 34
2, 385999, Note_on_c, 0, 90, 33
2, 386008, Note_on_c, 0, 62, 32
2, 386025, Note_on_c, 0, 78, 25
2, 386066, Note_on_c, 0, 85, 1
2, 386271, Note_on_c, 0, 56, 0
2, 386340, Note_on_c, 0, 66, 0
2, 386363, Note_on_c, 0, 62, 0
2, 386369, Note_on_c, 0, 82, 0
2, 386379, Note_on_c, 0, 78, 0
2, 386415, Note_on_c, 0, 90, 0
2, 386500, Note_on_c, 0, 85, 0
2, 386582, Control_c, 0, 64, 0
2, 386832, Note_on_c, 0, 66, 54
2, 386834, Note_on_c, 0, 62, 35
2, 386836, Note_on_c, 0, 90, 46
2, 386838, Note_on_c, 0, 82, 46
2, 386841, Note_on_c, 0, 78, 37
2, 386855, Control_c, 0, 64, 127
2, 386857, Note_on_c, 0, 56, 56
2, 386918, Note_on_c, 0, 85, 19
2, 387141, Note_on_c, 0, 82, 0
2, 387185, Note_on_c, 0, 62, 0
2, 387227, Note_on_c, 0, 78, 0
2, 387233, Note_on_c, 0, 90, 0
2, 387277, Note_on_c, 0, 85, 0
2, 387279, Note_on_c, 0, 66, 0
2, 387460, Note_on_c, 0, 56, 0
2, 387659, Control_c, 0, 64, 0
2, 387840, Note_on_c, 0, 86, 40
2, 387846, Note_on_c, 0, 65, 48
2, 387865, Note_on_c, 0, 91, 59
2, 387867, Note_on_c, 0, 62, 36
2, 387869, Note_on_c, 0, 79, 49
2, 387872, Note_on_c, 0, 55, 25
2, 387892, Note_on_c, 0, 60, 34
2, 388180, Note_on_c, 0, 86, 0
2, 388208, Note_on_c, 0, 62, 0
2, 388216, Note_on_c, 0, 60, 0
2, 388237, Note_on_c, 0, 55, 0
2, 388395, Note_on_c, 0, 65, 0
2, 388404, Note_on_c, 0, 79, 0
2, 388412, Note_on_c, 0, 91, 0
2, 388777, Note_on_c, 0, 65, 51
2, 388796, Note_on_c, 0, 55, 35
2, 388798, Note_on_c, 0, 91, 60
2, 388804, Note_on_c, 0, 60, 38
2, 388806, Note_on_c, 0, 62, 38
2, 388815, Note_on_c, 0, 79, 55
2, 388827, Note_on_c, 0, 86, 49
2, 388859, Control_c, 0, 64, 127
2, 389197, Note_on_c, 0, 79, 0
2, 389232, Note_on_c, 0, 55, 0
2, 389234, Note_on_c, 0, 86, 0
2, 389239, Note_on_c, 0, 91, 0
2, 389278, Note_on_c, 0, 65, 0
2, 389286, Note_on_c, 0, 62, 0
2, 389295, Note_on_c, 0, 60, 0
2, 389472, Note_on_c, 0, 62, 51
2, 389474, Note_on_c, 0, 60, 54
2, 389487, Note_on_c, 0, 79, 64
2, 389489, Note_on_c, 0, 65, 58
2, 389491, Note_on_c, 0, 91, 68
2, 389493, Note_on_c, 0, 55, 40
2, 389512, Note_on_c, 0, 86, 63
2, 389522, Control_c, 0, 64, 0
2, 389758, Note_on_c, 0, 65, 0
2, 389758, Note_on_c, 0, 79, 0
2, 389771, Note_on_c, 0, 62, 0
2, 389781, Note_on_c, 0, 86, 0
2, 389787, Note_on_c, 0, 55, 0
2, 389804, Note_on_c, 0, 91, 0
2, 389806, Note_on_c, 0, 60, 0
2, 389931, Note_on_c, 0, 55, 52
2, 389933, Note_on_c, 0, 62, 51
2, 389935, Note_on_c, 0, 65, 52
2, 389942, Note_on_c, 0, 60, 66
2, 389960, Note_on_c, 0, 91, 54
2, 389965, Control_c, 0, 64, 127
2, 389967, Note_on_c, 0, 79, 45
2, 389969, Note_on_c, 0, 86, 51
2, 390255, Note_on_c, 0, 79, 0
2, 390280, Note_on_c, 0, 65, 0
2, 390299, Note_on_c, 0, 55, 0
2, 390311, Note_on_c, 0, 86, 0
2, 390317, Note_on_c, 0, 91, 0
2, 390361, Note_on_c, 0, 62, 0
2, 390368, Control_c, 0, 64, 0
2, 390370, Note_on_c, 0, 60, 0
2, 390543, Note_on_c, 0, 60, 53
2, 390549, Note_on_c, 0, 62, 46
2, 390564, Note_on_c, 0, 86, 56
2, 390568, Note_on_c, 0, 55, 43
2, 390570, Note_on_c, 0, 65, 64
2, 390585, Note_on_c, 0, 91, 55
2, 390587, Note_on_c, 0, 79, 52
2, 390658, Control_c, 0, 64, 127
2, 390814, Note_on_c, 0, 86, 0
2, 390852, Note_on_c, 0, 62, 0
2, 390883, Note_on_c, 0, 79, 0
2, 390889, Note_on_c, 0, 60, 0
2, 390914, Note_on_c, 0, 65, 0
2, 390937, Note_on_c, 0, 91, 0
2, 391054, Note_on_c, 0, 55, 0
2, 391332, Control_c, 0, 64, 0
2, 391425, Note_on_c, 0, 55, 68
2, 391428, Note_on_c, 0, 61, 85
2, 391430, Note_on_c, 0, 58, 81
2, 391436, Note_on_c, 0, 91, 83
2, 391438, Note_on_c, 0, 85, 85
2, 391438, Note_on_c, 0, 64, 88
2, 391444, Note_on_c, 0, 79, 85
2, 391461, Note_on_c, 0, 88, 73
2, 391757, Control_c, 0, 64, 127
2, 392047, Note_on_c, 0, 79, 0
2, 392062, Note_on_c, 0, 64, 0
2, 392064, Note_on_c, 0, 55, 0
2, 392070, Note_on_c, 0, 91, 0
2, 392085, Note_on_c, 0, 85, 0
2, 392133, Note_on_c, 0, 58, 0
2, 392135, Note_on_c, 0, 88, 0
2, 392143, Note_on_c, 0, 61, 0
2, 392386, Note_on_c, 0, 58, 77
2, 392388, Note_on_c, 0, 61, 70
2, 392392, Note_on_c, 0, 64, 80
2, 392394, Note_on_c, 0, 91, 72
2, 392396, Note_on_c, 0, 55, 64
2, 392400, Note_on_c, 0, 85, 67
2, 392406, Note_on_c, 0, 79, 67
2, 392408, Note_on_c, 0, 88, 71
2, 392636, Note_on_c, 0, 79, 0
2, 392663, Note_on_c, 0, 91, 0
2, 392678, Note_on_c, 0, 64, 0
2, 392682, Note_on_c, 0, 88, 0
2, 392684, Note_on_c, 0, 55, 0
2, 392722, Note_on_c, 0, 61, 0
2, 392732, Note_on_c, 0, 58, 0
2, 392770, Note_on_c, 0, 85, 0
2, 392818, Note_on_c, 0, 64, 62
2, 392824, Note_on_c, 0, 55, 45
2, 392828, Note_on_c, 0, 91, 56
2, 392830, Note_on_c, 0, 85, 23
2, 392832, Note_on_c, 0, 88, 47
2, 392838, Note_on_c, 0, 58, 50
2, 392839, Note_on_c, 0, 61, 64
2, 392851, Note_on_c, 0, 79, 41
2, 393120, Note_on_c, 0, 79, 0
2, 393135, Note_on_c, 0, 91, 0
2, 393137, Note_on_c, 0, 55, 0
2, 393174, Note_on_c, 0, 64, 0
2, 393177, Note_on_c, 0, 88, 0
2, 393218, Note_on_c, 0, 58, 0
2, 393231, Note_on_c, 0, 61, 0
2, 393245, Note_on_c, 0, 85, 0
2, 393364, Note_on_c, 0, 64, 49
2, 393373, Note_on_c, 0, 61, 70
2, 393373, Note_on_c, 0, 85, 30
2, 393377, Note_on_c, 0, 88, 40
2, 393379, Note_on_c, 0, 58, 53
2, 393381, Note_on_c, 0, 91, 56
2, 393394, Note_on_c, 0, 79, 46
2, 393400, Note_on_c, 0, 55, 32
2, 393460, Control_c, 0, 64, 0
2, 393590, Note_on_c, 0, 79, 0
2, 393594, Note_on_c, 0, 91, 0
2, 393598, Note_on_c, 0, 55, 0
2, 393613, Note_on_c, 0, 64, 0
2, 393632, Note_on_c, 0, 88, 0
2, 393673, Note_on_c, 0, 61, 0
2, 393688, Note_on_c, 0, 58, 0
2, 393742, Note_on_c, 0, 85, 0
2, 393786, Control_c, 0, 64, 127
2, 393788, Note_on_c, 0, 64, 50
2, 393803, Note_on_c, 0, 55, 29
2, 393805, Note_on_c, 0, 61, 58
2, 393811, Note_on_c, 0, 85, 21
2, 393815, Note_on_c, 0, 58, 48
2, 393817, Note_on_c, 0, 88, 35
2, 393824, Note_on_c, 0, 91, 53
2, 393840, Note_on_c, 0, 79, 37
2, 394137, Note_on_c, 0, 55, 0
2, 394185, Note_on_c, 0, 64, 0
2, 394193, Note_on_c, 0, 58, 0
2, 394207, Note_on_c, 0, 79, 0
2, 394208, Note_on_c, 0, 91, 0
2, 394222, Note_on_c, 0, 88, 0
2, 394233, Note_on_c, 0, 61, 0
2, 394327, Control_c, 0, 64, 0
2, 394329, Note_on_c, 0, 85, 0
2, 394594, Control_c, 0, 64, 127
2, 394614, Note_on_c, 0, 61, 55
2, 394617, Note_on_c, 0, 64, 60
2, 394623, Note_on_c, 0, 58, 52
2, 394639, Note_on_c, 0, 91, 43
2, 394650, Note_on_c, 0, 55, 35
2, 394656, Note_on_c, 0, 85, 33
2, 394665, Note_on_c, 0, 88, 37
2, 394675, Note_on_c, 0, 79, 31
2, 394836, Note_on_c, 0, 55, 0
2, 394840, Note_on_c, 0, 91, 0
2, 394879, Note_on_c, 0, 79, 0
2, 394932, Note_on_c, 0, 88, 0
2, 394965, Note_on_c, 0, 58, 0
2, 394982, Note_on_c, 0, 61, 0
2, 395030, Note_on_c, 0, 64, 0
2, 395034, Note_on_c, 0, 85, 0
2, 395193, Control_c, 0, 64, 0
2, 395286, Note_on_c, 0, 56, 67
2, 395301, Note_on_c, 0, 67, 51
2, 395305, Note_on_c, 0, 80, 58
2, 395305, Note_on_c, 0, 60, 40
2, 395307, Note_on_c, 0, 63, 46
2, 395311, Note_on_c, 0, 92, 52
2, 395312, Note_on_c, 0, 87, 56
2, 395495, Note_on_c, 0, 80, 0
2, 395512, Note_on_c, 0, 92, 0
2, 395527, Note_on_c, 0, 67, 0
2, 395562, Note_on_c, 0, 87, 0
2, 395566, Note_on_c, 0, 60, 0
2, 395572, Note_on_c, 0, 63, 0
2, 395631, Note_on_c, 0, 92, 53
2, 395637, Control_c, 0, 64, 127
2, 395658, Note_on_c, 0, 80, 33
2, 395662, Note_on_c, 0, 67, 43
2, 395673, Note_on_c, 0, 87, 38
2, 395693, Note_on_c, 0, 63, 32
2, 395714, Control_c, 0, 64, 0
2, 395721, Note_on_c, 0, 60, 32
2, 395783, Note_on_c, 0, 80, 0
2, 395814, Note_on_c, 0, 60, 0
2, 395817, Note_on_c, 0, 92, 0
2, 395819, Note_on_c, 0, 67, 0
2, 395823, Note_on_c, 0, 87, 0
2, 395860, Note_on_c, 0, 56, 0
2, 395871, Note_on_c, 0, 63, 0
2, 396034, Note_on_c, 0, 92, 57
2, 396036, Note_on_c, 0, 80, 61
2, 396048, Note_on_c, 0, 87, 63
2, 396057, Note_on_c, 0, 63, 60
2, 396063, Note_on_c, 0, 67, 64
2, 396069, Note_on_c, 0, 56, 67
2, 396075, Note_on_c, 0, 60, 48
2, 396426, Control_c, 0, 64, 127
2, 396555, Note_on_c, 0, 56, 0
2, 396562, Note_on_c, 0, 80, 0
2, 396582, Note_on_c, 0, 92, 0
2, 396587, Note_on_c, 0, 60, 0
2, 396599, Note_on_c, 0, 63, 0
2, 396605, Note_on_c, 0, 87, 0
2, 396608, Note_on_c, 0, 67, 0
2, 396697, Control_c, 0, 64, 0
2, 396931, Note_on_c, 0, 80, 35
2, 396937, Note_on_c, 0, 67, 50
2, 396943, Note_on_c, 0, 63, 47
2, 396987, Note_on_c, 0, 60, 24
2, 397006, Note_on_c, 0, 80, 0
2, 397012, Note_on_c, 0, 67, 0
2, 397014, Note_on_c, 0, 63, 0
2, 397067, Note_on_c, 0, 60, 0
2, 397234, Note_on_c, 0, 80, 55
2, 397254, Note_on_c, 0, 87, 45
2, 397259, Note_on_c, 0, 92, 33
2, 397263, Note_on_c, 0, 60, 32
2, 397288, Note_on_c, 0, 63, 35
2, 397328, Note_on_c, 0, 80, 0
2, 397348, Note_on_c, 0, 92, 0
2, 397375, Note_on_c, 0, 63, 0
2, 397376, Note_on_c, 0, 87, 0
2, 397398, Note_on_c, 0, 60, 0
2, 397609, Note_on_c, 0, 60, 49
2, 397611, Note_on_c, 0, 92, 69
2, 397616, Note_on_c, 0, 67, 74
2, 397618, Note_on_c, 0, 56, 74
2, 397620, Note_on_c, 0, 63, 69
2, 397620, Note_on_c, 0, 87, 75
2, 397622, Note_on_c, 0, 80, 72
2, 397760, Control_c, 0, 64, 127
2, 398071, Note_on_c, 0, 92, 0
2, 398127, Note_on_c, 0, 56, 0
2, 398131, Note_on_c, 0, 80, 0
2, 398156, Note_on_c, 0, 67, 0
2, 398177, Note_on_c, 0, 60, 0
2, 398179, Note_on_c, 0, 87, 0
2, 398181, Note_on_c, 0, 63, 0
2, 398402, Note_on_c, 0, 80, 36
2, 398411, Note_on_c, 0, 63, 33
2, 398417, Control_c, 0, 64, 0
2, 398423, Note_on_c, 0, 60, 18
2, 398490, Note_on_c, 0, 80, 0
2, 398519, Note_on_c, 0, 63, 0
2, 398528, Note_on_c, 0, 60, 0
2, 398684, Control_c, 0, 64, 127
2, 398747, Note_on_c, 0, 80, 62
2, 398749, Note_on_c, 0, 92, 55
2, 398759, Note_on_c, 0, 63, 67
2, 398767, Note_on_c, 0, 60, 33
2, 398768, Note_on_c, 0, 67, 66
2, 398778, Note_on_c, 0, 87, 47
2, 398803, Note_on_c, 0, 56, 44
2, 398872, Note_on_c, 0, 56, 0
2, 398891, Note_on_c, 0, 67, 0
2, 398976, Note_on_c, 0, 80, 0
2, 398991, Control_c, 0, 64, 0
2, 398997, Note_on_c, 0, 92, 0
2, 399020, Note_on_c, 0, 87, 0
2, 399033, Note_on_c, 0, 60, 0
2, 399072, Note_on_c, 0, 63, 0
2, 399131, Note_on_c, 0, 86, 64
2, 399133, Note_on_c, 0, 93, 66
2, 399141, Note_on_c, 0, 81, 60
2, 399166, Note_on_c, 0, 66, 78
2, 399172, Note_on_c, 0, 62, 57
2, 399174, Note_on_c, 0, 56, 73
2, 399187, Note_on_c, 0, 60, 53
2, 399204, Note_on_c, 0, 91, 32
2, 399252, Note_on_c, 0, 60, 0
2, 399396, Control_c, 0, 64, 127
2, 399400, Note_on_c, 0, 60, 17
2, 399631, Note_on_c, 0, 93, 0
2, 399638, Note_on_c, 0, 81, 0
2, 399642, Note_on_c, 0, 86, 0
2, 399686, Note_on_c, 0, 56, 0
2, 399696, Note_on_c, 0, 66, 0
2, 399700, Note_on_c, 0, 62, 0
2, 399702, Note_on_c, 0, 60, 0
2, 399713, Note_on_c, 0, 91, 0
2, 399853, Note_on_c, 0, 66, 53
2, 399876, Note_on_c, 0, 62, 39
2, 399882, Note_on_c, 0, 81, 36
2, 399888, Note_on_c, 0, 86, 28
2, 399903, Note_on_c, 0, 60, 30
2, 399919, Note_on_c, 0, 56, 25
2, 399982, Note_on_c, 0, 86, 0
2, 399986, Note_on_c, 0, 62, 0
2, 399991, Note_on_c, 0, 66, 0
2, 399993, Note_on_c, 0, 81, 0
2, 399997, Note_on_c, 0, 60, 0
2, 399999, Note_on_c, 0, 56, 0
2, 400162, Note_on_c, 0, 93, 61
2, 400168, Note_on_c, 0, 81, 51
2, 400178, Note_on_c, 0, 86, 59
2, 400191, Note_on_c, 0, 62, 49
2, 400193, Note_on_c, 0, 66, 63
2, 400207, Note_on_c, 0, 60, 37
2, 400222, Note_on_c, 0, 91, 41
2, 400256, Note_on_c, 0, 56, 31
2, 400308, Note_on_c, 0, 93, 0
2, 400320, Note_on_c, 0, 81, 0
2, 400326, Note_on_c, 0, 91, 0
2, 400327, Note_on_c, 0, 56, 0
2, 400339, Control_c, 0, 64, 0
2, 400341, Note_on_c, 0, 66, 0
2, 400387, Note_on_c, 0, 86, 0
2, 400414, Note_on_c, 0, 60, 0
2, 400435, Note_on_c, 0, 62, 0
2, 400506, Note_on_c, 0, 66, 76
2, 400508, Note_on_c, 0, 86, 72
2, 400512, Note_on_c, 0, 94, 71
2, 400519, Note_on_c, 0, 82, 69
2, 400527, Note_on_c, 0, 62, 58
2, 400531, Note_on_c, 0, 56, 69
2, 400548, Note_on_c, 0, 60, 62
2, 400556, Note_on_c, 0, 90, 33
2, 400589, Note_on_c, 0, 92, 33
2, 400631, Note_on_c, 0, 90, 0
2, 400725, Control_c, 0, 64, 127
2, 401076, Note_on_c, 0, 86, 0
2, 401105, Note_on_c, 0, 82, 0
2, 401136, Note_on_c, 0, 94, 0
2, 401142, Note_on_c, 0, 56, 0
2, 401155, Note_on_c, 0, 92, 0
2, 401161, Note_on_c, 0, 62, 0
2, 401163, Note_on_c, 0, 66, 0
2, 401165, Note_on_c, 0, 60, 0
2, 401309, Note_on_c, 0, 66, 40
2, 401316, Note_on_c, 0, 82, 34
2, 401332, Note_on_c, 0, 62, 35
2, 401401, Note_on_c, 0, 66, 0
2, 401403, Note_on_c, 0, 82, 0
2, 401414, Note_on_c, 0, 62, 0
2, 401658, Note_on_c, 0, 82, 60
2, 401689, Note_on_c, 0, 62, 33
2, 401695, Note_on_c, 0, 94, 35
2, 401706, Note_on_c, 0, 66, 36
2, 401710, Note_on_c, 0, 60, 20
2, 401777, Note_on_c, 0, 66, 0
2, 401814, Note_on_c, 0, 60, 0
2, 401821, Control_c, 0, 64, 0
2, 401825, Note_on_c, 0, 94, 0
2, 401831, Note_on_c, 0, 82, 0
2, 401833, Note_on_c, 0, 62, 0
2, 401973, Note_on_c, 0, 87, 64
2, 401984, Note_on_c, 0, 83, 71
2, 401990, Note_on_c, 0, 62, 73
2, 401992, Note_on_c, 0, 66, 84
2, 402000, Note_on_c, 0, 60, 55
2, 402002, Note_on_c, 0, 95, 58
2, 402002, Note_on_c, 0, 56, 83
2, 402055, Note_on_c, 0, 93, 44
2, 402148, Note_on_c, 0, 93, 0
2, 402228, Control_c, 0, 64, 127
2, 402374, Note_on_c, 0, 83, 0
2, 402420, Note_on_c, 0, 95, 0
2, 402424, Note_on_c, 0, 87, 0
2, 402466, Note_on_c, 0, 56, 0
2, 402487, Note_on_c, 0, 66, 0
2, 402489, Note_on_c, 0, 60, 0
2, 402549, Note_on_c, 0, 62, 0
2, 402697, Note_on_c, 0, 66, 37
2, 402699, Note_on_c, 0, 62, 41
2, 402701, Note_on_c, 0, 84, 45
2, 402722, Note_on_c, 0, 60, 19
2, 402774, Note_on_c, 0, 66, 0
2, 402781, Note_on_c, 0, 84, 0
2, 402808, Note_on_c, 0, 60, 0
2, 402873, Note_on_c, 0, 62, 0
2, 402975, Note_on_c, 0, 90, 52
2, 402981, Note_on_c, 0, 97, 54
2, 402994, Note_on_c, 0, 66, 60
2, 403004, Note_on_c, 0, 60, 35
2, 403008, Note_on_c, 0, 85, 37
2, 403019, Note_on_c, 0, 62, 35
2, 403023, Note_on_c, 0, 56, 54
2, 403127, Note_on_c, 0, 90, 0
2, 403146, Control_c, 0, 64, 0
2, 403148, Note_on_c, 0, 66, 0
2, 403154, Note_on_c, 0, 97, 0
2, 403163, Note_on_c, 0, 85, 0
2, 403173, Note_on_c, 0, 60, 0
2, 403215, Note_on_c, 0, 62, 0
2, 403221, Note_on_c, 0, 56, 0
2, 403300, Note_on_c, 0, 62, 28
2, 403321, Note_on_c, 0, 65, 68
2, 403330, Note_on_c, 0, 91, 66
2, 403332, Note_on_c, 0, 94, 56
2, 403334, Note_on_c, 0, 98, 67
2, 403338, Note_on_c, 0, 86, 70
2, 403353, Note_on_c, 0, 60, 44
2, 403363, Note_on_c, 0, 55, 39
2, 403409, Note_on_c, 0, 88, 25
2, 403474, Note_on_c, 0, 88, 0
2, 403628, Control_c, 0, 64, 127
2, 403939, Note_on_c, 0, 86, 0
2, 403941, Note_on_c, 0, 98, 0
2, 403997, Note_on_c, 0, 65, 0
2, 403997, Note_on_c, 0, 55, 0
2, 404039, Note_on_c, 0, 60, 0
2, 404047, Note_on_c, 0, 62, 0
2, 404066, Note_on_c, 0, 91, 0
2, 404075, Note_on_c, 0, 94, 0
2, 404091, Control_c, 0, 64, 0
2, 404196, Note_on_c, 0, 55, 28
2, 404202, Note_on_c, 0, 65, 49
2, 404204, Note_on_c, 0, 62, 44
2, 404221, Note_on_c, 0, 91, 52
2, 404227, Note_on_c, 0, 60, 32
2, 404237, Note_on_c, 0, 99, 64
2, 404246, Note_on_c, 0, 87, 53
2, 404260, Note_on_c, 0, 94, 29
2, 404283, Control_c, 0, 64, 127
2, 404498, Note_on_c, 0, 99, 0
2, 404550, Note_on_c, 0, 91, 0
2, 404590, Note_on_c, 0, 94, 0
2, 404601, Note_on_c, 0, 87, 0
2, 404747, Note_on_c, 0, 60, 0
2, 404782, Note_on_c, 0, 55, 0
2, 404805, Note_on_c, 0, 62, 0
2, 404813, Note_on_c, 0, 65, 0
2, 405131, Control_c, 0, 64, 0
2, 405158, Note_on_c, 0, 65, 37
2, 405162, Note_on_c, 0, 55, 26
2, 405168, Note_on_c, 0, 94, 49
2, 405191, Note_on_c, 0, 82, 38
2, 405193, Note_on_c, 0, 62, 33
2, 405202, Note_on_c, 0, 60, 32
2, 405510, Note_on_c, 0, 82, 0
2, 405554, Note_on_c, 0, 94, 0
2, 405617, Note_on_c, 0, 62, 0
2, 405642, Note_on_c, 0, 65, 0
2, 405659, Note_on_c, 0, 60, 0
2, 405675, Note_on_c, 0, 55, 0
2, 406132, Control_c, 0, 64, 127
2, 406786, Control_c, 0, 64, 0
2, 407032, Note_on_c, 0, 63, 33
2, 407061, Note_on_c, 0, 52, 30
2, 407084, Note_on_c, 0, 58, 44
2, 407355, Note_on_c, 0, 52, 0
2, 407362, Note_on_c, 0, 58, 0
2, 407422, Note_on_c, 0, 63, 0
2, 408055, Note_on_c, 0, 87, 83
2, 408464, Note_on_c, 0, 87, 0
2, 408699, Note_on_c, 0, 88, 91
2, 408731, Note_on_c, 0, 63, 59
2, 408743, Note_on_c, 0, 58, 52
2, 408752, Note_on_c, 0, 52, 38
2, 408875, Note_on_c, 0, 63, 0
2, 408879, Note_on_c, 0, 52, 0
2, 409040, Note_on_c, 0, 88, 0
2, 409133, Note_on_c, 0, 58, 0
2, 409223, Note_on_c, 0, 85, 70
2, 409542, Note_on_c, 0, 85, 0
2, 409709, Note_on_c, 0, 84, 73
2, 409772, Note_on_c, 0, 58, 38
2, 409933, Note_on_c, 0, 84, 0
2, 410048, Note_on_c, 0, 58, 0
2, 410137, Note_on_c, 0, 82, 47
2, 410440, Note_on_c, 0, 82, 0
2, 410623, Note_on_c, 0, 80, 64
2, 410642, Note_on_c, 0, 63, 50
2, 410651, Note_on_c, 0, 60, 36
2, 410686, Note_on_c, 0, 53, 24
2, 410719, Note_on_c, 0, 56, 45
2, 410863, Note_on_c, 0, 63, 0
2, 410914, Note_on_c, 0, 80, 0
2, 411114, Note_on_c, 0, 79, 40
2, 411233, Note_on_c, 0, 53, 0
2, 411333, Note_on_c, 0, 60, 0
2, 411344, Note_on_c, 0, 56, 0
2, 411458, Note_on_c, 0, 79, 0
2, 411634, Note_on_c, 0, 82, 64
2, 411750, Note_on_c, 0, 60, 26
2, 411894, Note_on_c, 0, 82, 0
2, 412041, Note_on_c, 0, 77, 34
2, 412266, Note_on_c, 0, 60, 0
2, 412445, Note_on_c, 0, 77, 0
2, 412535, Note_on_c, 0, 63, 47
2, 412558, Note_on_c, 0, 60, 24
2, 412577, Note_on_c, 0, 80, 64
2, 412598, Note_on_c, 0, 63, 0
2, 412852, Note_on_c, 0, 80, 0
2, 412888, Note_on_c, 0, 60, 0
2, 412975, Note_on_c, 0, 75, 40
2, 413401, Note_on_c, 0, 75, 0
2, 413479, Note_on_c, 0, 60, 47
2, 413503, Note_on_c, 0, 79, 53
2, 413535, Note_on_c, 0, 56, 37
2, 413702, Note_on_c, 0, 60, 0
2, 413739, Note_on_c, 0, 79, 0
2, 413808, Note_on_c, 0, 56, 0
2, 413915, Note_on_c, 0, 72, 38
2, 414330, Note_on_c, 0, 72, 0
2, 414453, Note_on_c, 0, 75, 67
2, 414528, Note_on_c, 0, 67, 40
2, 414576, Note_on_c, 0, 62, 22
2, 414582, Note_on_c, 0, 56, 23
2, 414662, Note_on_c, 0, 67, 0
2, 414756, Note_on_c, 0, 75, 0
2, 414758, Note_on_c, 0, 56, 0
2, 414883, Note_on_c, 0, 62, 0
2, 414904, Note_on_c, 0, 74, 43
2, 415298, Note_on_c, 0, 74, 0
2, 415382, Note_on_c, 0, 62, 32
2, 415419, Note_on_c, 0, 70, 62
2, 415643, Note_on_c, 0, 62, 0
2, 415676, Note_on_c, 0, 70, 0
2, 415780, Note_on_c, 0, 68, 32
2, 416267, Note_on_c, 0, 68, 0
2, 416361, Note_on_c, 0, 62, 22
2, 416624, Control_c, 0, 64, 127
2, 416686, Note_on_c, 0, 62, 0
2, 417105, Control_c, 0, 64, 0
2, 417264, Note_on_c, 0, 62, 36
2, 417272, Note_on_c, 0, 56, 54
2, 417489, Note_on_c, 0, 62, 0
2, 417606, Control_c, 0, 64, 127
2, 417686, Note_on_c, 0, 56, 0
2, 418596, Note_on_c, 0, 63, 20
2, 418877, Note_on_c, 0, 63, 0
2, 419142, Note_on_c, 0, 51, 40
2, 419161, Control_c, 0, 64, 0
2, 419403, Note_on_c, 0, 51, 0
2, 419437, Note_on_c, 0, 58, 53
2, 419439, Note_on_c, 0, 55, 42
2, 419447, Note_on_c, 0, 65, 42
2, 419449, Note_on_c, 0, 53, 34
2, 419464, Note_on_c, 0, 62, 35
2, 419896, Note_on_c, 0, 65, 0
2, 419923, Note_on_c, 0, 62, 0
2, 419961, Note_on_c, 0, 55, 0
2, 419998, Note_on_c, 0, 58, 0
2, 420144, Note_on_c, 0, 53, 0
2, 420150, Note_on_c, 0, 51, 32
2, 420178, Note_on_c, 0, 63, 20
2, 420338, Note_on_c, 0, 63, 0
2, 420434, Note_on_c, 0, 58, 51
2, 420440, Note_on_c, 0, 65, 51
2, 420443, Note_on_c, 0, 55, 42
2, 420451, Note_on_c, 0, 62, 38
2, 420459, Note_on_c, 0, 53, 30
2, 420480, Note_on_c, 0, 51, 0
2, 420868, Note_on_c, 0, 65, 0
2, 420902, Note_on_c, 0, 55, 0
2, 420925, Note_on_c, 0, 62, 0
2, 421108, Note_on_c, 0, 51, 42
2, 421115, Note_on_c, 0, 63, 56
2, 421150, Note_on_c, 0, 55, 30
2, 421181, Note_on_c, 0, 53, 0
2, 421373, Note_on_c, 0, 55, 0
2, 421488, Note_on_c, 0, 51, 0
2, 421507, Note_on_c, 0, 63, 0
2, 421519, Note_on_c, 0, 50, 32
2, 421576, Note_on_c, 0, 62, 29
2, 421976, Note_on_c, 0, 62, 0
2, 422118, Note_on_c, 0, 50, 0
2, 422119, Note_on_c, 0, 63, 59
2, 422144, Note_on_c, 0, 51, 56
2, 422287, Note_on_c, 0, 58, 0
2, 422381, Note_on_c, 0, 51, 0
2, 422385, Note_on_c, 0, 63, 0
2, 423456, Control_c, 0, 64, 127
2, 423533, Control_c, 0, 64, 0
2, 423961, Note_on_c, 0, 53, 32
2, 424153, Note_on_c, 0, 53, 0
2, 424195, Note_on_c, 0, 54, 25
2, 424231, Note_on_c, 0, 70, 80
2, 424235, Note_on_c, 0, 65, 79
2, 424239, Note_on_c, 0, 55, 65
2, 424251, Note_on_c, 0, 60, 73
2, 424276, Note_on_c, 0, 54, 0
2, 424713, Note_on_c, 0, 70, 0
2, 424779, Note_on_c, 0, 65, 0
2, 424811, Note_on_c, 0, 60, 0
2, 424892, Note_on_c, 0, 55, 0
2, 424902, Note_on_c, 0, 54, 54
2, 425222, Note_on_c, 0, 70, 65
2, 425224, Note_on_c, 0, 55, 58
2, 425232, Note_on_c, 0, 60, 58
2, 425241, Note_on_c, 0, 65, 62
2, 425280, Note_on_c, 0, 54, 0
2, 425360, Control_c, 0, 64, 127
2, 425552, Note_on_c, 0, 60, 0
2, 425623, Note_on_c, 0, 70, 0
2, 425739, Note_on_c, 0, 65, 0
2, 425767, Note_on_c, 0, 55, 0
2, 426128, Control_c, 0, 64, 0
2, 426209, Note_on_c, 0, 65, 67
2, 426217, Note_on_c, 0, 72, 70
2, 426224, Note_on_c, 0, 60, 62
2, 426232, Note_on_c, 0, 61, 73
2, 426877, Note_on_c, 0, 61, 0
2, 426893, Note_on_c, 0, 72, 0
2, 426943, Note_on_c, 0, 65, 0
2, 426966, Note_on_c, 0, 60, 0
2, 426996, Note_on_c, 0, 58, 37
2, 427194, Note_on_c, 0, 65, 66
2, 427196, Note_on_c, 0, 60, 36
2, 427198, Note_on_c, 0, 61, 74
2, 427206, Note_on_c, 0, 72, 60
2, 427307, Note_on_c, 0, 58, 0
2, 427340, Control_c, 0, 64, 127
2, 427563, Note_on_c, 0, 65, 0
2, 427622, Note_on_c, 0, 61, 0
2, 427657, Note_on_c, 0, 72, 0
2, 427935, Note_on_c, 0, 60, 0
2, 427997, Control_c, 0, 64, 0
2, 428002, Note_on_c, 0, 58, 36
2, 428077, Note_on_c, 0, 58, 0
2, 428129, Note_on_c, 0, 75, 72
2, 428150, Note_on_c, 0, 64, 64
2, 428156, Note_on_c, 0, 67, 62
2, 428173, Note_on_c, 0, 63, 77
2, 428912, Note_on_c, 0, 64, 0
2, 428924, Note_on_c, 0, 67, 0
2, 428939, Note_on_c, 0, 61, 32
2, 428945, Note_on_c, 0, 75, 0
2, 429045, Note_on_c, 0, 63, 0
2, 429118, Note_on_c, 0, 64, 58
2, 429120, Note_on_c, 0, 67, 49
2, 429124, Note_on_c, 0, 74, 58
2, 429127, Note_on_c, 0, 62, 53
2, 429223, Note_on_c, 0, 61, 0
2, 429360, Note_on_c, 0, 74, 0
2, 429542, Note_on_c, 0, 67, 0
2, 429602, Note_on_c, 0, 64, 0
2, 429746, Note_on_c, 0, 73, 49
2, 429761, Note_on_c, 0, 64, 64
2, 429773, Note_on_c, 0, 62, 0
2, 429780, Note_on_c, 0, 67, 30
2, 429786, Note_on_c, 0, 61, 64
2, 429807, Note_on_c, 0, 70, 33
2, 429874, Note_on_c, 0, 67, 0
2, 429880, Note_on_c, 0, 70, 0
2, 429999, Note_on_c, 0, 73, 0
2, 430043, Note_on_c, 0, 64, 0
2, 430218, Note_on_c, 0, 61, 0
2, 430333, Note_on_c, 0, 61, 61
2, 430347, Note_on_c, 0, 72, 32
2, 430349, Note_on_c, 0, 60, 45
2, 430364, Note_on_c, 0, 64, 33
2, 430819, Note_on_c, 0, 72, 0
2, 430877, Note_on_c, 0, 61, 0
2, 430888, Note_on_c, 0, 64, 0
2, 430999, Control_c, 0, 64, 127
2, 431017, Note_on_c, 0, 60, 0
2, 431042, Note_on_c, 0, 61, 48
2, 431051, Note_on_c, 0, 70, 45
2, 431080, Note_on_c, 0, 64, 41
2, 431084, Note_on_c, 0, 58, 48
2, 431311, Note_on_c, 0, 58, 0
2, 431391, Note_on_c, 0, 61, 0
2, 431405, Note_on_c, 0, 64, 0
2, 431556, Control_c, 0, 64, 0
2, 431575, Note_on_c, 0, 70, 0
2, 431723, Note_on_c, 0, 61, 48
2, 431739, Note_on_c, 0, 55, 40
2, 431741, Note_on_c, 0, 64, 41
2, 431746, Note_on_c, 0, 67, 38
2, 432142, Note_on_c, 0, 64, 0
2, 432276, Note_on_c, 0, 52, 52
2, 432317, Note_on_c, 0, 55, 0
2, 432405, Control_c, 0, 64, 127
2, 432463, Note_on_c, 0, 67, 0
2, 432578, Control_c, 0, 64, 0
2, 432616, Note_on_c, 0, 61, 0
2, 432718, Note_on_c, 0, 52, 0
2, 433004, Note_on_c, 0, 48, 63
2, 433100, Note_on_c, 0, 64, 44
2, 433131, Note_on_c, 0, 68, 37
2, 433194, Note_on_c, 0, 64, 0
2, 433244, Note_on_c, 0, 68, 0
2, 433680, Note_on_c, 0, 48, 0
2, 433830, Note_on_c, 0, 41, 66
2, 434897, Note_on_c, 0, 60, 36
2, 434901, Control_c, 0, 64, 127
2, 434916, Note_on_c, 0, 41, 0
2, 435356, Note_on_c, 0, 60, 0
2, 435366, Control_c, 0, 64, 0
2, 435535, Note_on_c, 0, 65, 64
2, 435744, Note_on_c, 0, 65, 0
2, 436016, Note_on_c, 0, 68, 42
2, 436255, Note_on_c, 0, 68, 0
2, 436491, Note_on_c, 0, 56, 47
2, 436496, Note_on_c, 0, 60, 24
2, 436510, Note_on_c, 0, 72, 54
2, 436523, Note_on_c, 0, 53, 24
2, 436663, Note_on_c, 0, 60, 0
2, 436744, Note_on_c, 0, 72, 0
2, 436769, Note_on_c, 0, 56, 0
2, 436786, Note_on_c, 0, 53, 0
2, 436907, Note_on_c, 0, 75, 59
2, 437232, Note_on_c, 0, 75, 0
2, 437447, Note_on_c, 0, 76, 95
2, 437746, Note_on_c, 0, 76, 0
2, 437789, Note_on_c, 0, 60, 53
2, 437806, Note_on_c, 0, 56, 51
2, 437815, Note_on_c, 0, 51, 49
2, 437858, Note_on_c, 0, 79, 88
2, 438363, Note_on_c, 0, 79, 0
2, 438528, Note_on_c, 0, 76, 44
2, 438653, Note_on_c, 0, 76, 0
2, 438729, Note_on_c, 0, 60, 0
2, 438822, Note_on_c, 0, 77, 89
2, 438927, Note_on_c, 0, 56, 0
2, 439338, Note_on_c, 0, 77, 0
2, 439434, Note_on_c, 0, 72, 71
2, 439476, Note_on_c, 0, 60, 34
2, 439482, Note_on_c, 0, 56, 48
2, 439680, Control_c, 0, 64, 127
2, 439699, Note_on_c, 0, 72, 0
2, 439720, Note_on_c, 0, 60, 0
2, 440052, Note_on_c, 0, 68, 56
2, 440196, Note_on_c, 0, 51, 0
2, 440419, Note_on_c, 0, 68, 0
2, 440421, Note_on_c, 0, 56, 0
2, 440623, Note_on_c, 0, 51, 42
2, 440667, Note_on_c, 0, 67, 45
2, 440699, Note_on_c, 0, 60, 18
2, 440738, Note_on_c, 0, 56, 30
2, 441076, Note_on_c, 0, 60, 0
2, 441133, Note_on_c, 0, 67, 0
2, 441199, Note_on_c, 0, 51, 0
2, 441302, Note_on_c, 0, 56, 0
2, 441325, Note_on_c, 0, 65, 58
2, 441331, Control_c, 0, 64, 0
2, 441404, Note_on_c, 0, 56, 25
2, 441423, Note_on_c, 0, 60, 36
2, 441431, Note_on_c, 0, 50, 37
2, 441715, Note_on_c, 0, 65, 0
2, 441911, Note_on_c, 0, 68, 60
2, 441967, Control_c, 0, 64, 127
2, 442141, Control_c, 0, 64, 0
2, 442441, Note_on_c, 0, 68, 0
2, 442468, Control_c, 0, 64, 127
2, 442583, Note_on_c, 0, 67, 64
2, 442662, Note_on_c, 0, 60, 0
2, 442811, Note_on_c, 0, 56, 0
2, 442869, Note_on_c, 0, 50, 0
2, 443163, Control_c, 0, 64, 0
2, 443218, Note_on_c, 0, 67, 0
2, 443241, Note_on_c, 0, 60, 29
2, 443276, Note_on_c, 0, 56, 42
2, 443282, Note_on_c, 0, 50, 19
2, 443287, Note_on_c, 0, 65, 60
2, 443474, Note_on_c, 0, 60, 0
2, 443503, Note_on_c, 0, 65, 0
2, 443528, Control_c, 0, 64, 127
2, 443698, Note_on_c, 0, 56, 0
2, 443816, Note_on_c, 0, 60, 59
2, 444065, Note_on_c, 0, 50, 0
2, 444207, Note_on_c, 0, 60, 0
2, 444497, Note_on_c, 0, 60, 41
2, 445221, Control_c, 0, 64, 0
2, 445286, Note_on_c, 0, 60, 0
2, 445438, Note_on_c, 0, 59, 49
2, 445492, Note_on_c, 0, 53, 29
2, 445496, Note_on_c, 0, 43, 28
2, 445645, Control_c, 0, 64, 127
2, 446047, Note_on_c, 0, 59, 0
2, 446049, Note_on_c, 0, 43, 0
2, 446183, Note_on_c, 0, 53, 0
2, 447302, Control_c, 0, 64, 0
2, 447362, Note_on_c, 0, 53, 30
2, 447377, Note_on_c, 0, 67, 45
2, 447381, Note_on_c, 0, 62, 28
2, 447385, Note_on_c, 0, 79, 45
2, 447404, Note_on_c, 0, 59, 42
2, 447629, Control_c, 0, 64, 127
2, 447901, Note_on_c, 0, 67, 0
2, 447905, Note_on_c, 0, 53, 0
2, 447953, Note_on_c, 0, 59, 0
2, 448036, Note_on_c, 0, 62, 0
2, 448214, Note_on_c, 0, 79, 0
2, 449205, Control_c, 0, 64, 0
2, 449255, Note_on_c, 0, 62, 57
2, 449261, Note_on_c, 0, 87, 83
2, 449266, Note_on_c, 0, 63, 71
2, 449270, Note_on_c, 0, 84, 83
2, 449272, Note_on_c, 0, 60, 63
2, 449274, Note_on_c, 0, 75, 94
2, 449276, Note_on_c, 0, 67, 80
2, 449591, Control_c, 0, 64, 127
2, 449756, Note_on_c, 0, 75, 0
2, 449769, Note_on_c, 0, 87, 0
2, 449812, Note_on_c, 0, 84, 0
2, 449814, Note_on_c, 0, 60, 0
2, 449815, Note_on_c, 0, 67, 0
2, 449829, Note_on_c, 0, 62, 0
2, 449865, Note_on_c, 0, 63, 0
2, 449936, Note_on_c, 0, 87, 69
2, 449942, Note_on_c, 0, 84, 71
2, 449944, Note_on_c, 0, 75, 74
2, 449958, Note_on_c, 0, 67, 66
2, 449963, Note_on_c, 0, 63, 45
2, 449969, Note_on_c, 0, 60, 59
2, 449973, Note_on_c, 0, 62, 63
2, 450221, Note_on_c, 0, 75, 0
2, 450246, Note_on_c, 0, 87, 0
2, 450280, Note_on_c, 0, 60, 0
2, 450288, Note_on_c, 0, 62, 0
2, 450290, Note_on_c, 0, 84, 0
2, 450294, Note_on_c, 0, 67, 0
2, 450453, Note_on_c, 0, 67, 52
2, 450466, Note_on_c, 0, 87, 64
2, 450468, Note_on_c, 0, 84, 54
2, 450470, Note_on_c, 0, 75, 69
2, 450474, Note_on_c, 0, 60, 44
2, 450491, Note_on_c, 0, 62, 45
2, 450555, Note_on_c, 0, 62, 0
2, 450741, Note_on_c, 0, 75, 0
2, 450751, Note_on_c, 0, 87, 0
2, 450789, Note_on_c, 0, 67, 0
2, 450800, Note_on_c, 0, 60, 0
2, 450808, Note_on_c, 0, 84, 0
2, 450900, Note_on_c, 0, 63, 0
2, 451031, Note_on_c, 0, 63, 53
2, 451033, Note_on_c, 0, 67, 50
2, 451044, Note_on_c, 0, 87, 63
2, 451046, Note_on_c, 0, 75, 69
2, 451052, Note_on_c, 0, 60, 34
2, 451056, Note_on_c, 0, 84, 60
2, 451267, Note_on_c, 0, 75, 0
2, 451315, Note_on_c, 0, 87, 0
2, 451327, Note_on_c, 0, 67, 0
2, 451357, Note_on_c, 0, 60, 0
2, 451367, Note_on_c, 0, 84, 0
2, 451423, Note_on_c, 0, 63, 0
2, 451438, Control_c, 0, 64, 0
2, 451553, Note_on_c, 0, 67, 34
2, 451570, Note_on_c, 0, 60, 32
2, 451572, Note_on_c, 0, 63, 47
2, 451574, Note_on_c, 0, 87, 52
2, 451591, Note_on_c, 0, 84, 50
2, 451593, Note_on_c, 0, 75, 56
2, 451628, Control_c, 0, 64, 127
2, 451864, Note_on_c, 0, 87, 0
2, 451878, Note_on_c, 0, 75, 0
2, 451935, Note_on_c, 0, 84, 0
2, 451960, Note_on_c, 0, 67, 0
2, 451977, Note_on_c, 0, 60, 0
2, 451979, Note_on_c, 0, 63, 0
2, 452327, Note_on_c, 0, 67, 42
2, 452331, Note_on_c, 0, 84, 58
2, 452335, Note_on_c, 0, 60, 36
2, 452336, Note_on_c, 0, 75, 64
2, 452350, Note_on_c, 0, 63, 34
2, 452352, Note_on_c, 0, 87, 50
2, 452492, Note_on_c, 0, 75, 0
2, 452551, Note_on_c, 0, 84, 0
2, 452655, Note_on_c, 0, 87, 0
2, 452713, Note_on_c, 0, 67, 0
2, 452874, Note_on_c, 0, 63, 0
2, 452880, Note_on_c, 0, 60, 0
2, 453114, Control_c, 0, 64, 0
2, 453223, Note_on_c, 0, 60, 44
2, 453231, Note_on_c, 0, 91, 73
2, 453239, Note_on_c, 0, 67, 47
2, 453245, Note_on_c, 0, 79, 66
2, 453254, Note_on_c, 0, 63, 40
2, 453262, Note_on_c, 0, 87, 51
2, 453270, Note_on_c, 0, 58, 57
2, 454018, Control_c, 0, 64, 127
2, 454241, Note_on_c, 0, 58, 0
2, 454320, Note_on_c, 0, 67, 0
2, 454395, Note_on_c, 0, 60, 0
2, 454425, Note_on_c, 0, 79, 0
2, 454581, Note_on_c, 0, 91, 0
2, 454614, Note_on_c, 0, 63, 0
2, 454642, Note_on_c, 0, 87, 0
2, 455095, Control_c, 0, 64, 0
2, 455136, Note_on_c, 0, 91, 54
2, 455142, Note_on_c, 0, 67, 35
2, 455153, Note_on_c, 0, 87, 43
2, 455157, Note_on_c, 0, 63, 35
2, 455163, Note_on_c, 0, 79, 36
2, 455165, Note_on_c, 0, 58, 36
2, 455203, Note_on_c, 0, 60, 26
2, 455443, Control_c, 0, 64, 127
2, 455796, Note_on_c, 0, 67, 0
2, 455871, Note_on_c, 0, 63, 0
2, 455900, Note_on_c, 0, 60, 0
2, 455902, Note_on_c, 0, 79, 0
2, 455936, Note_on_c, 0, 58, 0
2, 456078, Note_on_c, 0, 91, 0
2, 456082, Note_on_c, 0, 87, 0
2, 457672, Control_c, 0, 64, 0
2, 457751, Note_on_c, 0, 63, 84
2, 457756, Note_on_c, 0, 60, 63
2, 457758, Note_on_c, 0, 96, 87
2, 457760, Note_on_c, 0, 55, 66
2, 457764, Note_on_c, 0, 57, 72
2, 457770, Note_on_c, 0, 91, 92
2, 457772, Note_on_c, 0, 84, 91
2, 457981, Control_c, 0, 64, 127
2, 458162, Note_on_c, 0, 84, 0
2, 458194, Note_on_c, 0, 55, 0
2, 458196, Note_on_c, 0, 96, 0
2, 458225, Note_on_c, 0, 91, 0
2, 458233, Note_on_c, 0, 63, 0
2, 458254, Note_on_c, 0, 57, 0
2, 458284, Note_on_c, 0, 60, 0
2, 458421, Note_on_c, 0, 55, 51
2, 458423, Note_on_c, 0, 63, 82
2, 458427, Note_on_c, 0, 60, 78
2, 458430, Note_on_c, 0, 96, 80
2, 458440, Note_on_c, 0, 91, 92
2, 458448, Note_on_c, 0, 57, 64
2, 458452, Note_on_c, 0, 84, 81
2, 458741, Note_on_c, 0, 84, 0
2, 458774, Note_on_c, 0, 55, 0
2, 458788, Note_on_c, 0, 96, 0
2, 458818, Note_on_c, 0, 91, 0
2, 458849, Note_on_c, 0, 63, 0
2, 458878, Note_on_c, 0, 57, 0
2, 458935, Note_on_c, 0, 60, 0
2, 459070, Note_on_c, 0, 55, 66
2, 459072, Note_on_c, 0, 63, 74
2, 459077, Note_on_c, 0, 60, 68
2, 459083, Note_on_c, 0, 96, 79
2, 459091, Note_on_c, 0, 91, 89
2, 459095, Note_on_c, 0, 57, 65
2, 459097, Note_on_c, 0, 84, 88
2, 459400, Note_on_c, 0, 84, 0
2, 459408, Note_on_c, 0, 55, 0
2, 459437, Note_on_c, 0, 96, 0
2, 459438, Note_on_c, 0, 91, 0
2, 459448, Note_on_c, 0, 63, 0
2, 459502, Note_on_c, 0, 57, 0
2, 459542, Note_on_c, 0, 60, 0
2, 459692, Note_on_c, 0, 63, 74
2, 459696, Note_on_c, 0, 60, 66
2, 459703, Note_on_c, 0, 55, 55
2, 459721, Note_on_c, 0, 57, 55
2, 459723, Note_on_c, 0, 91, 90
2, 459724, Note_on_c, 0, 96, 72
2, 459740, Note_on_c, 0, 84, 82
2, 459959, Note_on_c, 0, 84, 0
2, 459972, Note_on_c, 0, 96, 0
2, 459991, Note_on_c, 0, 55, 0
2, 459999, Note_on_c, 0, 63, 0
2, 460034, Note_on_c, 0, 91, 0
2, 460045, Note_on_c, 0, 57, 0
2, 460107, Note_on_c, 0, 60, 0
2, 460235, Note_on_c, 0, 55, 32
2, 460260, Note_on_c, 0, 84, 66
2, 460262, Note_on_c, 0, 60, 49
2, 460266, Note_on_c, 0, 96, 44
2, 460266, Note_on_c, 0, 91, 61
2, 460268, Note_on_c, 0, 63, 52
2, 460320, Note_on_c, 0, 93, 31
2, 460343, Note_on_c, 0, 63, 0
2, 460348, Note_on_c, 0, 96, 0
2, 460354, Note_on_c, 0, 91, 0
2, 460362, Note_on_c, 0, 84, 0
2, 460398, Note_on_c, 0, 93, 0
2, 460420, Note_on_c, 0, 55, 0
2, 460435, Note_on_c, 0, 60, 0
2, 460546, Note_on_c, 0, 63, 46
2, 460550, Note_on_c, 0, 55, 28
2, 460552, Note_on_c, 0, 84, 58
2, 460556, Note_on_c, 0, 91, 74
2, 460562, Note_on_c, 0, 60, 26
2, 460569, Note_on_c, 0, 96, 50
2, 460617, Note_on_c, 0, 84, 0
2, 460648, Note_on_c, 0, 55, 0
2, 460658, Note_on_c, 0, 60, 0
2, 460663, Note_on_c, 0, 96, 0
2, 460679, Note_on_c, 0, 63, 0
2, 460700, Note_on_c, 0, 91, 0
2, 460752, Control_c, 0, 64, 0
2, 460850, Note_on_c, 0, 63, 80
2, 460854, Note_on_c, 0, 58, 76
2, 460875, Note_on_c, 0, 54, 74
2, 460882, Note_on_c, 0, 59, 74
2, 460892, Note_on_c, 0, 99, 83
2, 460896, Note_on_c, 0, 87, 90
2, 460905, Note_on_c, 0, 94, 76
2, 461197, Control_c, 0, 64, 127
2, 461391, Note_on_c, 0, 99, 0
2, 461397, Note_on_c, 0, 54, 0
2, 461420, Note_on_c, 0, 63, 0
2, 461435, Note_on_c, 0, 87, 0
2, 461441, Note_on_c, 0, 94, 0
2, 461447, Note_on_c, 0, 58, 0
2, 461458, Note_on_c, 0, 59, 0
2, 461554, Note_on_c, 0, 63, 67
2, 461562, Note_on_c, 0, 54, 62
2, 461577, Note_on_c, 0, 58, 55
2, 461581, Control_c, 0, 64, 0
2, 461585, Note_on_c, 0, 94, 52
2, 461587, Note_on_c, 0, 99, 64
2, 461589, Note_on_c, 0, 87, 70
2, 461593, Note_on_c, 0, 59, 74
2, 461873, Control_c, 0, 64, 127
2, 461881, Note_on_c, 0, 99, 0
2, 461913, Note_on_c, 0, 87, 0
2, 461950, Note_on_c, 0, 94, 0
2, 461952, Note_on_c, 0, 54, 0
2, 461969, Note_on_c, 0, 63, 0
2, 461977, Note_on_c, 0, 59, 0
2, 461981, Note_on_c, 0, 58, 0
2, 462207, Note_on_c, 0, 63, 51
2, 462267, Note_on_c, 0, 58, 29
2, 462274, Note_on_c, 0, 63, 0
2, 462336, Note_on_c, 0, 58, 0
2, 462507, Note_on_c, 0, 94, 62
2, 462518, Note_on_c, 0, 63, 46
2, 462520, Note_on_c, 0, 87, 50
2, 462522, Note_on_c, 0, 58, 47
2, 462524, Note_on_c, 0, 59, 53
2, 462585, Note_on_c, 0, 63, 0
2, 462589, Note_on_c, 0, 87, 0
2, 462608, Note_on_c, 0, 59, 0
2, 462643, Control_c, 0, 64, 0
2, 462647, Note_on_c, 0, 58, 0
2, 462662, Note_on_c, 0, 94, 0
2, 462833, Note_on_c, 0, 63, 94
2, 462837, Note_on_c, 0, 54, 87
2, 462839, Note_on_c, 0, 99, 86
2, 462845, Note_on_c, 0, 87, 92
2, 462848, Note_on_c, 0, 94, 80
2, 462850, Note_on_c, 0, 58, 75
2, 462852, Note_on_c, 0, 59, 80
2, 462994, Control_c, 0, 64, 127
2, 463327, Note_on_c, 0, 87, 0
2, 463330, Note_on_c, 0, 99, 0
2, 463361, Note_on_c, 0, 54, 0
2, 463369, Note_on_c, 0, 94, 0
2, 463382, Note_on_c, 0, 63, 0
2, 463403, Note_on_c, 0, 58, 0
2, 463423, Note_on_c, 0, 59, 0
2, 463478, Control_c, 0, 64, 0
2, 463503, Note_on_c, 0, 54, 64
2, 463509, Note_on_c, 0, 99, 61
2, 463511, Note_on_c, 0, 63, 69
2, 463515, Note_on_c, 0, 87, 74
2, 463524, Note_on_c, 0, 94, 51
2, 463542, Note_on_c, 0, 59, 63
2, 463545, Note_on_c, 0, 58, 71
2, 463691, Control_c, 0, 64, 127
2, 463720, Note_on_c, 0, 99, 0
2, 463736, Note_on_c, 0, 87, 0
2, 463776, Note_on_c, 0, 94, 0
2, 463793, Note_on_c, 0, 58, 0
2, 463803, Note_on_c, 0, 54, 0
2, 463803, Note_on_c, 0, 63, 0
2, 463816, Note_on_c, 0, 59, 0
2, 464029, Note_on_c, 0, 63, 37
2, 464104, Note_on_c, 0, 63, 0
2, 464310, Note_on_c, 0, 87, 56
2, 464319, Note_on_c, 0, 94, 51
2, 464321, Note_on_c, 0, 99, 40
2, 464327, Note_on_c, 0, 63, 49
2, 464335, Note_on_c, 0, 59, 49
2, 464359, Note_on_c, 0, 58, 43
2, 464386, Note_on_c, 0, 87, 0
2, 464388, Note_on_c, 0, 99, 0
2, 464390, Note_on_c, 0, 94, 0
2, 464392, Note_on_c, 0, 63, 0
2, 464421, Note_on_c, 0, 59, 0
2, 464425, Note_on_c, 0, 58, 0
2, 464546, Note_on_c, 0, 99, 47
2, 464554, Note_on_c, 0, 87, 70
2, 464561, Note_on_c, 0, 63, 58
2, 464569, Note_on_c, 0, 94, 51
2, 464582, Note_on_c, 0, 58, 57
2, 464592, Note_on_c, 0, 54, 69
2, 464705, Control_c, 0, 64, 0
2, 464707, Note_on_c, 0, 87, 0
2, 464709, Note_on_c, 0, 99, 0
2, 464717, Note_on_c, 0, 94, 0
2, 464730, Note_on_c, 0, 63, 0
2, 464767, Note_on_c, 0, 54, 0
2, 464782, Note_on_c, 0, 58, 0
2, 464834, Note_on_c, 0, 97, 76
2, 464847, Note_on_c, 0, 62, 74
2, 464864, Note_on_c, 0, 57, 80
2, 464868, Note_on_c, 0, 89, 64
2, 464872, Note_on_c, 0, 101, 82
2, 464880, Note_on_c, 0, 53, 60
2, 464886, Note_on_c, 0, 91, 74
2, 464891, Note_on_c, 0, 58, 54
2, 464911, Note_on_c, 0, 99, 25
2, 464949, Note_on_c, 0, 91, 0
2, 464976, Note_on_c, 0, 99, 0
2, 465187, Control_c, 0, 64, 127
2, 465239, Note_on_c, 0, 97, 0
2, 465402, Note_on_c, 0, 89, 0
2, 465406, Note_on_c, 0, 101, 0
2, 465435, Note_on_c, 0, 62, 0
2, 465467, Note_on_c, 0, 53, 0
2, 465490, Note_on_c, 0, 58, 0
2, 465513, Note_on_c, 0, 57, 0
2, 465784, Control_c, 0, 64, 0
2, 465801, Note_on_c, 0, 99, 79
2, 465813, Note_on_c, 0, 62, 64
2, 465815, Note_on_c, 0, 87, 82
2, 465819, Note_on_c, 0, 58, 75
2, 465821, Note_on_c, 0, 57, 71
2, 465824, Note_on_c, 0, 94, 73
2, 465834, Note_on_c, 0, 53, 48
2, 466022, Control_c, 0, 64, 127
2, 467243, Note_on_c, 0, 62, 0
2, 467305, Note_on_c, 0, 58, 0
2, 467533, Note_on_c, 0, 99, 0
2, 467574, Note_on_c, 0, 94, 0
2, 467658, Note_on_c, 0, 57, 0
2, 467672, Note_on_c, 0, 87, 0
2, 467700, Note_on_c, 0, 53, 0
2, 468426, Control_c, 0, 64, 0
2, 468497, Note_on_c, 0, 94, 53
2, 468501, Note_on_c, 0, 63, 39
2, 468520, Note_on_c, 0, 82, 36
2, 468530, Note_on_c, 0, 58, 54
2, 468539, Note_on_c, 0, 87, 42
2, 468547, Note_on_c, 0, 52, 30
2, 469217, Control_c, 0, 64, 127
2, 469657, Note_on_c, 0, 58, 0
2, 469737, Note_on_c, 0, 63, 0
2, 469835, Note_on_c, 0, 87, 0
2, 469878, Note_on_c, 0, 82, 0
2, 470262, Note_on_c, 0, 94, 0
2, 470413, Note_on_c, 0, 82, 28
2, 470419, Note_on_c, 0, 63, 23
2, 470429, Note_on_c, 0, 87, 33
2, 470479, Note_on_c, 0, 58, 34
2, 470788, Note_on_c, 0, 87, 0
2, 470878, Note_on_c, 0, 82, 0
2, 470957, Note_on_c, 0, 52, 0
2, 471049, Note_on_c, 0, 58, 0
2, 471097, Note_on_c, 0, 63, 0
2, 471930, Note_on_c, 0, 82, 62
2, 472068, Note_on_c, 0, 79, 55
2, 472216, Control_c, 0, 64, 0
2, 472237, Note_on_c, 0, 75, 60
2, 472379, Note_on_c, 0, 82, 0
2, 472494, Note_on_c, 0, 70, 53
2, 472506, Note_on_c, 0, 72, 48
2, 472544, Control_c, 0, 64, 127
2, 472609, Note_on_c, 0, 79, 0
2, 472681, Note_on_c, 0, 70, 0
2, 472761, Note_on_c, 0, 75, 0
2, 472907, Note_on_c, 0, 72, 0
2, 473877, Note_on_c, 0, 70, 58
2, 474030, Note_on_c, 0, 67, 45
2, 474130, Note_on_c, 0, 63, 45
2, 474259, Control_c, 0, 64, 0
2, 474293, Note_on_c, 0, 60, 36
2, 474380, Note_on_c, 0, 58, 34
2, 474624, Control_c, 0, 64, 127
2, 475027, Note_on_c, 0, 58, 0
2, 475163, Note_on_c, 0, 67, 0
2, 475288, Note_on_c, 0, 70, 0
2, 475376, Note_on_c, 0, 60, 0
2, 475484, Note_on_c, 0, 63, 0
2, 476029, Control_c, 0, 64, 0
2, 476110, Note_on_c, 0, 59, 39
2, 476118, Note_on_c, 0, 67, 34
2, 476127, Note_on_c, 0, 56, 31
2, 476141, Note_on_c, 0, 46, 30
2, 476152, Note_on_c, 0, 64, 36
2, 476156, Note_on_c, 0, 62, 36
2, 476190, Note_on_c, 0, 53, 27
2, 476453, Control_c, 0, 64, 127
2, 477383, Note_on_c, 0, 59, 0
2, 477387, Note_on_c, 0, 56, 0
2, 477419, Note_on_c, 0, 62, 0
2, 477494, Note_on_c, 0, 67, 0
2, 477502, Note_on_c, 0, 64, 0
2, 478014, Control_c, 0, 64, 0
2, 478082, Note_on_c, 0, 67, 25
2, 478086, Note_on_c, 0, 59, 31
2, 478095, Note_on_c, 0, 64, 27
2, 478105, Note_on_c, 0, 62, 35
2, 478110, Note_on_c, 0, 56, 31
2, 478265, Control_c, 0, 64, 127
2, 478283, Control_c, 0, 64, 127
2, 478592, Note_on_c, 0, 56, 0
2, 478675, Note_on_c, 0, 53, 0
2, 478715, Note_on_c, 0, 67, 0
2, 478844, Note_on_c, 0, 62, 0
2, 478880, Note_on_c, 0, 64, 0
2, 478909, Note_on_c, 0, 46, 0
2, 479090, Note_on_c, 0, 59, 0
2, 479877, Control_c, 0, 64, 0
2, 479899, Control_c, 0, 64, 0
2, 480058, Note_on_c, 0, 63, 51
2, 480062, Note_on_c, 0, 55, 45
2, 480070, Note_on_c, 0, 45, 44
2, 480074, Note_on_c, 0, 60, 45
2, 480124, Note_on_c, 0, 33, 42
2, 480287, Control_c, 0, 64, 127
2, 480473, Note_on_c, 0, 55, 0
2, 480585, Note_on_c, 0, 60, 0
2, 480652, Note_on_c, 0, 33, 0
2, 480684, Note_on_c, 0, 63, 0
2, 480882, Note_on_c, 0, 45, 0
2, 481214, Note_on_c, 0, 75, 77
2, 481339, Note_on_c, 0, 76, 32
2, 481558, Note_on_c, 0, 76, 0
2, 481796, Note_on_c, 0, 75, 0
2, 482251, Note_on_c, 0, 75, 83
2, 482270, Note_on_c, 0, 72, 74
2, 482274, Note_on_c, 0, 67, 77
2, 482301, Note_on_c, 0, 63, 75
2, 483269, Note_on_c, 0, 75, 0
2, 483472, Note_on_c, 0, 75, 71
2, 483710, Note_on_c, 0, 63, 0
2, 484169, Note_on_c, 0, 72, 0
2, 484252, Note_on_c, 0, 67, 0
2, 484568, Note_on_c, 0, 75, 0
2, 486988, Control_c, 0, 64, 0
2, 487009, Note_on_c, 0, 75, 72
2, 487015, Note_on_c, 0, 66, 74
2, 487016, Note_on_c, 0, 32, 59
2, 487018, Note_on_c, 0, 44, 53
2, 487022, Note_on_c, 0, 71, 61
2, 487195, Note_on_c, 0, 32, 0
2, 487262, Note_on_c, 0, 44, 0
2, 487314, Control_c, 0, 64, 127
2, 487631, Note_on_c, 0, 75, 0
2, 487802, Note_on_c, 0, 66, 0
2, 487990, Note_on_c, 0, 75, 67
2, 488011, Note_on_c, 0, 54, 56
2, 488019, Note_on_c, 0, 71, 0
2, 488240, Note_on_c, 0, 75, 0
2, 488860, Note_on_c, 0, 87, 58
2, 488887, Note_on_c, 0, 83, 58
2, 488910, Note_on_c, 0, 78, 32
2, 488925, Note_on_c, 0, 56, 35
2, 489303, Note_on_c, 0, 87, 0
2, 489317, Note_on_c, 0, 78, 0
2, 489367, Note_on_c, 0, 83, 0
2, 489893, Note_on_c, 0, 83, 47
2, 489898, Note_on_c, 0, 87, 57
2, 489914, Note_on_c, 0, 66, 32
2, 490659, Note_on_c, 0, 87, 0
2, 490832, Note_on_c, 0, 83, 0
2, 490985, Note_on_c, 0, 66, 0
2, 491121, Note_on_c, 0, 56, 0
2, 491154, Note_on_c, 0, 54, 0
2, 492325, Note_on_c, 0, 62, 36
2, 492337, Control_c, 0, 64, 0
2, 492339, Note_on_c, 0, 57, 48
2, 492341, Note_on_c, 0, 58, 49
2, 492362, Note_on_c, 0, 43, 33
2, 492373, Note_on_c, 0, 53, 32
2, 492970, Control_c, 0, 64, 127
2, 493721, Note_on_c, 0, 57, 0
2, 493834, Note_on_c, 0, 62, 0
2, 493888, Note_on_c, 0, 58, 0
2, 493952, Note_on_c, 0, 57, 63
2, 494138, Note_on_c, 0, 57, 0
2, 494251, Note_on_c, 0, 58, 75
2, 494372, Note_on_c, 0, 58, 0
2, 494397, Control_c, 0, 64, 0
2, 494518, Note_on_c, 0, 62, 54
2, 494714, Note_on_c, 0, 62, 0
2, 494794, Note_on_c, 0, 66, 50
2, 494940, Note_on_c, 0, 66, 0
2, 495034, Note_on_c, 0, 69, 28
2, 495161, Note_on_c, 0, 69, 0
2, 495211, Note_on_c, 0, 66, 38
2, 495292, Note_on_c, 0, 66, 0
2, 495363, Note_on_c, 0, 67, 55
2, 495545, Note_on_c, 0, 67, 0
2, 495599, Note_on_c, 0, 69, 41
2, 495630, Control_c, 0, 64, 127
2, 495662, Note_on_c, 0, 43, 0
2, 495795, Note_on_c, 0, 70, 56
2, 495802, Note_on_c, 0, 69, 0
2, 495889, Note_on_c, 0, 53, 0
2, 495966, Note_on_c, 0, 71, 57
2, 495970, Note_on_c, 0, 70, 0
2, 496154, Note_on_c, 0, 71, 0
2, 496192, Note_on_c, 0, 72, 42
2, 496405, Note_on_c, 0, 72, 0
2, 496411, Note_on_c, 0, 73, 43
2, 496520, Note_on_c, 0, 73, 0
2, 496584, Note_on_c, 0, 74, 47
2, 496736, Note_on_c, 0, 74, 0
2, 496826, Note_on_c, 0, 75, 44
2, 496980, Note_on_c, 0, 76, 30
2, 497056, Note_on_c, 0, 75, 0
2, 497189, Note_on_c, 0, 77, 44
2, 497200, Note_on_c, 0, 76, 0
2, 497590, Control_c, 0, 64, 0
2, 497623, Note_on_c, 0, 77, 0
2, 497636, Note_on_c, 0, 36, 36
2, 497649, Note_on_c, 0, 76, 64
2, 498062, Note_on_c, 0, 76, 0
2, 498129, Note_on_c, 0, 76, 60
2, 498417, Note_on_c, 0, 76, 0
2, 498435, Control_c, 0, 64, 127
2, 498533, Note_on_c, 0, 72, 59
2, 498669, Note_on_c, 0, 72, 0
2, 498763, Control_c, 0, 64, 0
2, 498917, Note_on_c, 0, 67, 42
2, 499137, Note_on_c, 0, 67, 0
2, 499320, Note_on_c, 0, 64, 50
2, 499521, Note_on_c, 0, 64, 0
2, 499737, Note_on_c, 0, 61, 52
2, 500138, Note_on_c, 0, 61, 0
2, 500163, Note_on_c, 0, 60, 33
2, 500284, Control_c, 0, 64, 127
2, 500433, Note_on_c, 0, 60, 0
2, 500612, Note_on_c, 0, 58, 35
2, 501055, Note_on_c, 0, 36, 0
2, 501071, Note_on_c, 0, 58, 0
2, 501086, Note_on_c, 0, 52, 53
2, 501488, Note_on_c, 0, 52, 0
2, 501557, Note_on_c, 0, 51, 71
2, 501789, Control_c, 0, 64, 0
2, 501964, Note_on_c, 0, 51, 0
2, 502052, Note_on_c, 0, 49, 81
2, 502113, Control_c, 0, 64, 127
2, 502449, Note_on_c, 0, 49, 0
2, 502513, Note_on_c, 0, 48, 74
2, 502833, Note_on_c, 0, 48, 0
2, 502993, Note_on_c, 0, 46, 71
2, 503256, Note_on_c, 0, 46, 0
2, 503515, Note_on_c, 0, 40, 82
2, 503845, Note_on_c, 0, 40, 0
2, 504145, Note_on_c, 0, 37, 80
2, 504239, Note_on_c, 0, 39, 25
2, 504339, Note_on_c, 0, 39, 0
2, 504598, Control_c, 0, 64, 0
2, 504721, Note_on_c, 0, 37, 0
2, 504773, Note_on_c, 0, 36, 80
2, 504846, Control_c, 0, 64, 127
2, 505487, Note_on_c, 0, 30, 81
2, 505502, Note_on_c, 0, 36, 0
2, 505539, Control_c, 0, 64, 0
2, 505865, Control_c, 0, 64, 127
2, 507697, Note_on_c, 0, 30, 0
2, 507843, Note_on_c, 0, 30, 35
2, 509173, Note_on_c, 0, 30, 0
2, 509273, Control_c, 0, 64, 0
2, 509294, Note_on_c, 0, 51, 48
2, 509296, Note_on_c, 0, 44, 53
2, 509317, Note_on_c, 0, 48, 47
2, 509323, Note_on_c, 0, 43, 33
2, 509327, Note_on_c, 0, 29, 35
2, 509615, Note_on_c, 0, 43, 0
2, 509715, Control_c, 0, 64, 127
2, 509776, Note_on_c, 0, 44, 0
2, 509778, Note_on_c, 0, 48, 0
2, 509874, Note_on_c, 0, 51, 0
2, 509884, Note_on_c, 0, 29, 0
2, 510615, Note_on_c, 0, 63, 57
2, 510623, Note_on_c, 0, 56, 69
2, 510636, Note_on_c, 0, 55, 46
2, 510640, Note_on_c, 0, 60, 48
2, 510659, Note_on_c, 0, 48, 54
2, 510771, Note_on_c, 0, 55, 0
2, 510828, Note_on_c, 0, 56, 0
2, 510872, Note_on_c, 0, 60, 0
2, 510926, Note_on_c, 0, 63, 0
2, 511039, Note_on_c, 0, 48, 0
2, 511531, Note_on_c, 0, 75, 67
2, 511552, Note_on_c, 0, 68, 62
2, 511554, Note_on_c, 0, 67, 62
2, 511558, Note_on_c, 0, 72, 58
2, 511562, Note_on_c, 0, 55, 53
2, 511706, Note_on_c, 0, 67, 0
2, 511731, Note_on_c, 0, 68, 0
2, 511742, Note_on_c, 0, 72, 0
2, 511771, Note_on_c, 0, 55, 0
2, 511811, Note_on_c, 0, 75, 0
2, 512370, Note_on_c, 0, 79, 70
2, 512372, Note_on_c, 0, 68, 74
2, 512378, Note_on_c, 0, 72, 64
2, 512387, Note_on_c, 0, 75, 58
2, 512389, Note_on_c, 0, 67, 71
2, 512956, Note_on_c, 0, 68, 0
2, 512961, Note_on_c, 0, 72, 0
2, 513044, Note_on_c, 0, 79, 0
2, 513123, Note_on_c, 0, 75, 0
2, 513163, Note_on_c, 0, 68, 76
2, 513182, Note_on_c, 0, 75, 30
2, 513198, Note_on_c, 0, 72, 58
2, 513200, Note_on_c, 0, 77, 58
2, 513203, Note_on_c, 0, 65, 63
2, 513219, Note_on_c, 0, 67, 0
2, 513296, Note_on_c, 0, 68, 0
2, 513319, Note_on_c, 0, 72, 0
2, 513395, Note_on_c, 0, 65, 0
2, 513399, Note_on_c, 0, 77, 0
2, 513420, Note_on_c, 0, 75, 0
2, 514029, Note_on_c, 0, 82, 83
2, 514039, Note_on_c, 0, 75, 86
2, 514048, Note_on_c, 0, 72, 82
2, 514052, Note_on_c, 0, 79, 68
2, 514054, Note_on_c, 0, 70, 82
2, 514336, Note_on_c, 0, 70, 0
2, 514384, Note_on_c, 0, 79, 0
2, 514444, Note_on_c, 0, 82, 0
2, 514490, Note_on_c, 0, 72, 0
2, 514494, Note_on_c, 0, 75, 0
2, 515004, Note_on_c, 0, 68, 68
2, 515010, Note_on_c, 0, 79, 55
2, 515012, Note_on_c, 0, 72, 65
2, 515018, Note_on_c, 0, 75, 56
2, 515024, Note_on_c, 0, 65, 55
2, 515367, Note_on_c, 0, 65, 0
2, 515413, Note_on_c, 0, 79, 0
2, 515540, Note_on_c, 0, 72, 0
2, 515630, Note_on_c, 0, 75, 0
2, 515696, Note_on_c, 0, 68, 0
2, 516099, Note_on_c, 0, 75, 53
2, 516106, Note_on_c, 0, 72, 54
2, 516108, Note_on_c, 0, 63, 48
2, 516112, Note_on_c, 0, 68, 44
2, 516418, Note_on_c, 0, 63, 0
2, 516617, Note_on_c, 0, 72, 0
2, 516652, Note_on_c, 0, 68, 0
2, 516663, Note_on_c, 0, 75, 0
2, 517665, Control_c, 0, 64, 0
2, 517681, Note_on_c, 0, 34, 67
2, 517909, Note_on_c, 0, 34, 0
2, 517936, Control_c, 0, 64, 127
2, 518554, Note_on_c, 0, 56, 63
2, 518704, Note_on_c, 0, 58, 46
2, 518745, Note_on_c, 0, 56, 0
2, 518827, Note_on_c, 0, 58, 0
2, 518844, Note_on_c, 0, 59, 51
2, 518946, Note_on_c, 0, 62, 39
2, 519052, Note_on_c, 0, 59, 0
2, 519109, Note_on_c, 0, 64, 57
2, 519205, Note_on_c, 0, 62, 0
2, 519271, Note_on_c, 0, 64, 0
2, 519380, Note_on_c, 0, 68, 50
2, 519459, Note_on_c, 0, 70, 43
2, 519559, Note_on_c, 0, 71, 63
2, 519614, Note_on_c, 0, 70, 0
2, 519643, Note_on_c, 0, 68, 0
2, 519720, Note_on_c, 0, 74, 54
2, 519741, Note_on_c, 0, 71, 0
2, 519808, Note_on_c, 0, 76, 39
2, 519906, Note_on_c, 0, 74, 0
2, 519918, Note_on_c, 0, 76, 0
2, 519925, Note_on_c, 0, 79, 44
2, 519991, Note_on_c, 0, 79, 0
2, 520081, Note_on_c, 0, 80, 62
2, 520183, Note_on_c, 0, 83, 53
2, 520215, Note_on_c, 0, 80, 0
2, 520313, Note_on_c, 0, 86, 39
2, 520363, Note_on_c, 0, 83, 0
2, 520450, Note_on_c, 0, 88, 35
2, 520499, Note_on_c, 0, 86, 0
2, 520515, Note_on_c, 0, 91, 49
2, 520538, Note_on_c, 0, 88, 0
2, 520588, Note_on_c, 0, 91, 0
2, 520755, Note_on_c, 0, 95, 57
2, 520772, Note_on_c, 0, 94, 33
2, 520835, Note_on_c, 0, 94, 0
2, 520927, Note_on_c, 0, 98, 51
2, 521006, Note_on_c, 0, 100, 43
2, 521129, Note_on_c, 0, 103, 77
2, 522235, Note_on_c, 0, 103, 0
2, 522256, Note_on_c, 0, 98, 0
2, 522287, Note_on_c, 0, 100, 0
2, 522323, Note_on_c, 0, 95, 0
2, 523940, Note_on_c, 0, 58, 74
2, 524689, Note_on_c, 0, 58, 0
2, 524917, Note_on_c, 0, 58, 76
2, 525603, Note_on_c, 0, 58, 0
2, 525937, Note_on_c, 0, 58, 51
2, 526494, Note_on_c, 0, 58, 0
2, 526806, Note_on_c, 0, 58, 51
2, 527164, Note_on_c, 0, 58, 0
2, 527699, Note_on_c, 0, 58, 51
2, 529335, Note_on_c, 0, 58, 0
2, 530063, Note_on_c, 0, 65, 47
2, 530071, Note_on_c, 0, 58, 40
2, 530094, Note_on_c, 0, 62, 38
2, 530103, Note_on_c, 0, 55, 22
2, 530107, Note_on_c, 0, 57, 29
2, 530122, Note_on_c, 0, 46, 34
2, 530126, Note_on_c, 0, 39, 38
2, 530134, Control_c, 0, 64, 0
2, 530674, Control_c, 0, 64, 127
2, 531559, Note_on_c, 0, 62, 0
2, 531632, Note_on_c, 0, 65, 0
2, 531637, Note_on_c, 0, 46, 0
2, 531720, Note_on_c, 0, 57, 0
2, 531753, Note_on_c, 0, 55, 0
2, 531779, Note_on_c, 0, 58, 0
2, 531981, Note_on_c, 0, 46, 38
2, 532484, Note_on_c, 0, 53, 35
2, 532772, Note_on_c, 0, 53, 0
2, 532793, Note_on_c, 0, 55, 34
2, 532935, Note_on_c, 0, 55, 0
2, 532958, Note_on_c, 0, 57, 63
2, 533031, Note_on_c, 0, 57, 0
2, 533181, Note_on_c, 0, 60, 54
2, 533350, Note_on_c, 0, 60, 0
2, 533367, Note_on_c, 0, 62, 57
2, 533431, Note_on_c, 0, 62, 0
2, 533575, Note_on_c, 0, 65, 63
2, 533774, Note_on_c, 0, 67, 41
2, 533816, Note_on_c, 0, 65, 0
2, 533911, Note_on_c, 0, 67, 0
2, 533934, Note_on_c, 0, 69, 57
2, 534005, Note_on_c, 0, 69, 0
2, 534110, Note_on_c, 0, 72, 65
2, 534285, Note_on_c, 0, 74, 72
2, 534298, Note_on_c, 0, 72, 0
2, 534362, Note_on_c, 0, 74, 0
2, 534508, Note_on_c, 0, 77, 63
2, 534694, Note_on_c, 0, 79, 49
2, 534740, Note_on_c, 0, 77, 0
2, 534867, Note_on_c, 0, 81, 69
2, 534869, Note_on_c, 0, 79, 0
2, 534944, Note_on_c, 0, 81, 0
2, 535078, Note_on_c, 0, 84, 68
2, 535239, Note_on_c, 0, 86, 71
2, 535247, Note_on_c, 0, 84, 0
2, 535422, Note_on_c, 0, 86, 0
2, 535473, Note_on_c, 0, 89, 62
2, 535664, Note_on_c, 0, 91, 61
2, 535687, Note_on_c, 0, 89, 0
2, 535859, Note_on_c, 0, 93, 74
2, 535865, Note_on_c, 0, 91, 0
2, 535992, Note_on_c, 0, 93, 0
2, 536105, Note_on_c, 0, 96, 62
2, 536366, Note_on_c, 0, 96, 0
2, 536400, Note_on_c, 0, 98, 50
2, 536593, Note_on_c, 0, 101, 27
2, 536640, Note_on_c, 0, 98, 0
2, 536681, Note_on_c, 0, 101, 0
2, 536871, Note_on_c, 0, 103, 50
2, 537111, Note_on_c, 0, 103, 0
2, 537154, Note_on_c, 0, 105, 71
2, 537286, Control_c, 0, 64, 0
2, 537334, Note_on_c, 0, 105, 0
2, 537343, Note_on_c, 0, 108, 103
2, 537390, Control_c, 0, 64, 127
2, 538177, Note_on_c, 0, 46, 0
2, 538292, Note_on_c, 0, 39, 0
2, 540050, Note_on_c, 0, 27, 33
2, 540173, Note_on_c, 0, 108, 0
2, 540372, Note_on_c, 0, 27, 0
2, 544760, Control_c, 0, 64, 0
2, 544760, End_track
3, 0, Start_track
3, 0, Title_t, "Bass"
3, 0, Program_c, 1, 32
3, 0, Control_c, 1, 7, 87
3, 119040, Note_on_c, 1, 39, 68
3, 119040, Note_on_c, 1, 39, 0
3, 126458, Note_on_c, 1, 38, 88
3, 126781, Note_on_c, 1, 38, 0
3, 126808, Note_on_c, 1, 39, 89
3, 127811, Control_c, 1, 64, 127
3, 128652, Note_on_c, 1, 48, 90
3, 128704, Control_c, 1, 64, 0
3, 128738, Note_on_c, 1, 39, 0
3, 129089, Control_c, 1, 64, 127
3, 129388, Control_c, 1, 64, 0
3, 129686, Control_c, 1, 64, 127
3, 130544, Control_c, 1, 64, 0
3, 130572, Note_on_c, 1, 41, 79
3, 130654, Note_on_c, 1, 48, 0
3, 130842, Control_c, 1, 64, 127
3, 131506, Control_c, 1, 64, 0
3, 131536, Note_on_c, 1, 29, 73
3, 131586, Note_on_c, 1, 41, 0
3, 132544, Control_c, 1, 64, 127
3, 133440, Control_c, 1, 64, 0
3, 133451, Note_on_c, 1, 29, 0
3, 133471, Note_on_c, 1, 34, 84
3, 133912, Control_c, 1, 64, 127
3, 134424, Note_on_c, 1, 34, 0
3, 134436, Note_on_c, 1, 39, 56
3, 134451, Control_c, 1, 64, 0
3, 135519, Control_c, 1, 64, 127
3, 137245, Note_on_c, 1, 40, 97
3, 137251, Control_c, 1, 64, 0
3, 137269, Note_on_c, 1, 39, 0
3, 137752, Control_c, 1, 64, 127
3, 138175, Control_c, 1, 64, 0
3, 138237, Note_on_c, 1, 41, 88
3, 138249, Note_on_c, 1, 40, 0
3, 138377, Control_c, 1, 64, 127
3, 138677, Control_c, 1, 64, 0
3, 138750, Note_on_c, 1, 53, 85
3, 138821, Control_c, 1, 64, 127
3, 139175, Note_on_c, 1, 53, 0
3, 139187, Control_c, 1, 64, 0
3, 139241, Note_on_c, 1, 53, 89
3, 139389, Control_c, 1, 64, 127
3, 140106, Note_on_c, 1, 41, 0
3, 140669, Note_on_c, 1, 46, 84
3, 140697, Control_c, 1, 64, 0
3, 140812, Control_c, 1, 64, 127
3, 141082, Control_c, 1, 64, 0
3, 141129, Note_on_c, 1, 46, 0
3, 141152, Note_on_c, 1, 46, 77
3, 141255, Control_c, 1, 64, 127
3, 141611, Control_c, 1, 64, 0
3, 141624, Note_on_c, 1, 46, 0
3, 141625, Note_on_c, 1, 38, 61
3, 141736, Control_c, 1, 64, 127
3, 142085, Control_c, 1, 64, 0
3, 142095, Note_on_c, 1, 38, 0
3, 142101, Note_on_c, 1, 43, 74
3, 142200, Note_on_c, 1, 53, 0
3, 142589, Note_on_c, 1, 31, 65
3, 142664, Note_on_c, 1, 43, 0
3, 142795, Control_c, 1, 64, 127
3, 143007, Control_c, 1, 64, 0
3, 143020, Note_on_c, 1, 31, 0
3, 143064, Note_on_c, 1, 31, 83
3, 143284, Control_c, 1, 64, 127
3, 144902, Note_on_c, 1, 31, 0
3, 144948, Note_on_c, 1, 48, 90
3, 144998, Control_c, 1, 64, 0
3, 145181, Control_c, 1, 64, 127
3, 145935, Note_on_c, 1, 41, 81
3, 145961, Control_c, 1, 64, 0
3, 145969, Note_on_c, 1, 48, 0
3, 146346, Control_c, 1, 64, 127
3, 148781, Control_c, 1, 64, 0
3, 148782, Note_on_c, 1, 34, 93
3, 148799, Note_on_c, 1, 41, 0
3, 149050, Control_c, 1, 64, 127
3, 149733, Control_c, 1, 64, 0
3, 149778, Note_on_c, 1, 39, 89
3, 149806, Note_on_c, 1, 34, 0
3, 150137, Control_c, 1, 64, 127
3, 150176, Control_c, 1, 64, 0
3, 150273, Control_c, 1, 64, 127
3, 150662, Note_on_c, 1, 39, 0
3, 150688, Control_c, 1, 64, 0
3, 150740, Note_on_c, 1, 39, 88
3, 150974, Control_c, 1, 64, 127
3, 153478, Note_on_c, 1, 39, 0
3, 153650, Control_c, 1, 64, 0
3, 153682, Note_on_c, 1, 46, 101
3, 153881, Control_c, 1, 64, 127
3, 155974, Note_on_c, 1, 46, 0
3, 156013, Note_on_c, 1, 39, 100
3, 156430, Control_c, 1, 64, 0
3, 156480, Note_on_c, 1, 45, 111
3, 156550, Note_on_c, 1, 39, 0
3, 156700, Control_c, 1, 64, 127
3, 156941, Control_c, 1, 64, 0
3, 156966, Note_on_c, 1, 39, 98
3, 157134, Control_c, 1, 64, 127
3, 157138, Note_on_c, 1, 45, 0
3, 157374, Control_c, 1, 64, 0
3, 157442, Note_on_c, 1, 44, 103
3, 157467, Note_on_c, 1, 39, 0
3, 158469, Control_c, 1, 64, 127
3, 159385, Control_c, 1, 64, 0
3, 159387, Note_on_c, 1, 39, 95
3, 159473, Note_on_c, 1, 44, 0
3, 160385, Control_c, 1, 64, 127
3, 161310, Control_c, 1, 64, 0
3, 161312, Note_on_c, 1, 39, 0
3, 161346, Note_on_c, 1, 34, 89
3, 162320, Control_c, 1, 64, 127
3, 163176, Control_c, 1, 64, 0
3, 163210, Note_on_c, 1, 43, 62
3, 163278, Note_on_c, 1, 34, 0
3, 163393, Note_on_c, 1, 42, 63
3, 163395, Note_on_c, 1, 43, 0
3, 163597, Note_on_c, 1, 43, 70
3, 163600, Note_on_c, 1, 42, 0
3, 164121, Control_c, 1, 64, 127
3, 164697, Note_on_c, 1, 50, 97
3, 164746, Control_c, 1, 64, 0
3, 164793, Note_on_c, 1, 43, 0
3, 164842, Control_c, 1, 64, 127
3, 164901, Note_on_c, 1, 47, 73
3, 164944, Note_on_c, 1, 50, 0
3, 165044, Control_c, 1, 64, 0
3, 165116, Note_on_c, 1, 47, 0
3, 165148, Note_on_c, 1, 48, 97
3, 166178, Control_c, 1, 64, 127
3, 166390, Control_c, 1, 64, 0
3, 166453, Note_on_c, 1, 43, 50
3, 166591, Note_on_c, 1, 43, 0
3, 166645, Note_on_c, 1, 48, 0
3, 166701, Note_on_c, 1, 39, 62
3, 166840, Note_on_c, 1, 39, 0
3, 166934, Note_on_c, 1, 36, 76
3, 167127, Note_on_c, 1, 36, 0
3, 167136, Note_on_c, 1, 35, 86
3, 168046, Note_on_c, 1, 47, 94
3, 168075, Control_c, 1, 64, 127
3, 168219, Control_c, 1, 64, 0
3, 168281, Note_on_c, 1, 47, 0
3, 168304, Note_on_c, 1, 46, 54
3, 168309, Note_on_c, 1, 35, 0
3, 168474, Note_on_c, 1, 46, 0
3, 168542, Note_on_c, 1, 47, 88
3, 168976, Note_on_c, 1, 46, 83
3, 168999, Control_c, 1, 64, 127
3, 169000, Note_on_c, 1, 47, 0
3, 169404, Control_c, 1, 64, 0
3, 170452, Note_on_c, 1, 41, 73
3, 170512, Note_on_c, 1, 46, 0
3, 170900, Note_on_c, 1, 41, 0
3, 170909, Note_on_c, 1, 39, 84
3, 171933, Control_c, 1, 64, 127
3, 172781, Control_c, 1, 64, 0
3, 172839, Note_on_c, 1, 44, 89
3, 172863, Note_on_c, 1, 39, 0
3, 173896, Control_c, 1, 64, 127
3, 174366, Note_on_c, 1, 51, 104
3, 174581, Note_on_c, 1, 44, 0
3, 174725, Control_c, 1, 64, 0
3, 174758, Note_on_c, 1, 51, 0
3, 174844, Note_on_c, 1, 51, 95
3, 174917, Control_c, 1, 64, 127
3, 175696, Control_c, 1, 64, 0
3, 175697, Note_on_c, 1, 51, 0
3, 175735, Note_on_c, 1, 55, 92
3, 176211, Note_on_c, 1, 43, 69
3, 176218, Note_on_c, 1, 55, 0
3, 176313, Control_c, 1, 64, 127
3, 176602, Control_c, 1, 64, 0
3, 176688, Note_on_c, 1, 53, 100
3, 176811, Note_on_c, 1, 43, 0
3, 177091, Note_on_c, 1, 48, 79
3, 177145, Note_on_c, 1, 53, 0
3, 177567, Note_on_c, 1, 48, 0
3, 177585, Note_on_c, 1, 41, 84
3, 177648, Control_c, 1, 64, 127
3, 178505, Control_c, 1, 64, 0
3, 178546, Note_on_c, 1, 50, 94
3, 178610, Note_on_c, 1, 41, 0
3, 178688, Control_c, 1, 64, 127
3, 179526, Note_on_c, 1, 43, 68
3, 179544, Control_c, 1, 64, 0
3, 179547, Note_on_c, 1, 50, 0
3, 179883, Control_c, 1, 64, 127
3, 180461, Note_on_c, 1, 43, 0
3, 180498, Control_c, 1, 64, 0
3, 180519, Note_on_c, 1, 36, 80
3, 180912, Control_c, 1, 64, 127
3, 182415, Note_on_c, 1, 36, 0
3, 182428, Note_on_c, 1, 29, 99
3, 182450, Control_c, 1, 64, 0
3, 183451, Control_c, 1, 64, 127
3, 184337, Control_c, 1, 64, 0
3, 184355, Note_on_c, 1, 34, 103
3, 184389, Note_on_c, 1, 29, 0
3, 184842, Note_on_c, 1, 46, 107
3, 185041, Note_on_c, 1, 46, 0
3, 185299, Note_on_c, 1, 46, 107
3, 186424, Note_on_c, 1, 34, 0
3, 186729, Note_on_c, 1, 34, 107
3, 186856, Note_on_c, 1, 34, 0
3, 187168, Note_on_c, 1, 34, 107
3, 187234, Note_on_c, 1, 46, 0
3, 188164, Note_on_c, 1, 46, 111
3, 188182, Note_on_c, 1, 34, 0
3, 188658, Note_on_c, 1, 38, 77
3, 189136, Note_on_c, 1, 39, 98
3, 189161, Note_on_c, 1, 38, 0
3, 189164, Note_on_c, 1, 46, 0
3, 190389, Note_on_c, 1, 39, 0
3, 190422, Note_on_c, 1, 50, 81
3, 190552, Note_on_c, 1, 50, 0
3, 190747, Note_on_c, 1, 49, 100
3, 191006, Note_on_c, 1, 49, 0
3, 191066, Note_on_c, 1, 48, 94
3, 191368, Note_on_c, 1, 43, 62
3, 191383, Note_on_c, 1, 48, 0
3, 191670, Note_on_c, 1, 43, 0
3, 191695, Note_on_c, 1, 40, 89
3, 192017, Note_on_c, 1, 40, 0
3, 192040, Note_on_c, 1, 41, 92
3, 192515, Note_on_c, 1, 41, 0
3, 192534, Note_on_c, 1, 29, 88
3, 192958, Note_on_c, 1, 29, 0
3, 193004, Note_on_c, 1, 29, 98
3, 193977, Note_on_c, 1, 29, 0
3, 193984, Note_on_c, 1, 34, 83
3, 195908, Note_on_c, 1, 43, 98
3, 195909, Note_on_c, 1, 34, 0
3, 196991, Control_c, 1, 64, 127
3, 197598, Control_c, 1, 64, 0
3, 197659, Note_on_c, 1, 34, 71
3, 197751, Note_on_c, 1, 34, 0
3, 197791, Note_on_c, 1, 43, 0
3, 197832, Note_on_c, 1, 42, 88
3, 197967, Note_on_c, 1, 42, 0
3, 198131, Note_on_c, 1, 36, 71
3, 198283, Note_on_c, 1, 36, 0
3, 198308, Note_on_c, 1, 30, 88
3, 198830, Control_c, 1, 64, 127
3, 199672, Note_on_c, 1, 30, 0
3, 199706, Control_c, 1, 64, 0
3, 199724, Note_on_c, 1, 29, 82
3, 200677, Control_c, 1, 64, 127
3, 201211, Note_on_c, 1, 29, 0
3, 201640, Control_c, 1, 64, 0
3, 201683, Note_on_c, 1, 46, 110
3, 201930, Pitch_bend_c, 1, 8192
3, 201934, Pitch_bend_c, 1, 8192
3, 201945, Pitch_bend_c, 1, 8192
3, 201952, Pitch_bend_c, 1, 7680
3, 201958, Pitch_bend_c, 1, 7552
3, 201972, Pitch_bend_c, 1, 7296
3, 201978, Pitch_bend_c, 1, 6912
3, 201985, Pitch_bend_c, 1, 6656
3, 201993, Pitch_bend_c, 1, 6528
3, 202000, Pitch_bend_c, 1, 6272
3, 202006, Pitch_bend_c, 1, 6016
3, 202012, Pitch_bend_c, 1, 5760
3, 202020, Pitch_bend_c, 1, 5632
3, 202026, Pitch_bend_c, 1, 5376
3, 202033, Pitch_bend_c, 1, 5120
3, 202048, Pitch_bend_c, 1, 4736
3, 202052, Pitch_bend_c, 1, 4608
3, 202061, Pitch_bend_c, 1, 4352
3, 202068, Pitch_bend_c, 1, 4224
3, 202074, Pitch_bend_c, 1, 3968
3, 202082, Pitch_bend_c, 1, 3840
3, 202089, Pitch_bend_c, 1, 3712
3, 202091, Note_on_c, 1, 46, 0
3, 202096, Pitch_bend_c, 1, 3584
3, 202102, Pitch_bend_c, 1, 3456
3, 202110, Pitch_bend_c, 1, 3328
3, 202117, Pitch_bend_c, 1, 3072
3, 202123, Pitch_bend_c, 1, 2944
3, 202130, Pitch_bend_c, 1, 2688
3, 202137, Pitch_bend_c, 1, 2560
3, 202144, Pitch_bend_c, 1, 2432
3, 202151, Pitch_bend_c, 1, 2176
3, 202158, Pitch_bend_c, 1, 1920
3, 202165, Pitch_bend_c, 1, 1792
3, 202171, Pitch_bend_c, 1, 1664
3, 202178, Pitch_bend_c, 1, 1408
3, 202185, Pitch_bend_c, 1, 1280
3, 202192, Pitch_bend_c, 1, 1024
3, 202199, Pitch_bend_c, 1, 896
3, 202212, Pitch_bend_c, 1, 640
3, 202219, Pitch_bend_c, 1, 512
3, 202233, Pitch_bend_c, 1, 384
3, 202249, Pitch_bend_c, 1, 256
3, 202264, Pitch_bend_c, 1, 512
3, 202270, Pitch_bend_c, 1, 896
3, 202277, Pitch_bend_c, 1, 1152
3, 202285, Pitch_bend_c, 1, 1536
3, 202290, Pitch_bend_c, 1, 2048
3, 202297, Pitch_bend_c, 1, 2560
3, 202305, Pitch_bend_c, 1, 3200
3, 202312, Pitch_bend_c, 1, 3712
3, 202318, Pitch_bend_c, 1, 3968
3, 202325, Pitch_bend_c, 1, 4352
3, 202332, Pitch_bend_c, 1, 4736
3, 202338, Pitch_bend_c, 1, 5376
3, 202346, Pitch_bend_c, 1, 6016
3, 202353, Pitch_bend_c, 1, 6528
3, 202360, Pitch_bend_c, 1, 7168
3, 202366, Pitch_bend_c, 1, 8192
3, 202369, Pitch_bend_c, 1, 8192
3, 202998, Note_on_c, 1, 46, 111
3, 203224, Note_on_c, 1, 46, 0
3, 203298, Note_on_c, 1, 46, 99
3, 203478, Note_on_c, 1, 46, 0
3, 203547, Note_on_c, 1, 43, 81
3, 204037, Note_on_c, 1, 38, 79
3, 204061, Note_on_c, 1, 43, 0
3, 204511, Note_on_c, 1, 31, 83
3, 204526, Note_on_c, 1, 38, 0
3, 205521, Note_on_c, 1, 36, 90
3, 205541, Note_on_c, 1, 31, 0
3, 206008, Note_on_c, 1, 48, 114
3, 206085, Note_on_c, 1, 36, 0
3, 206426, Note_on_c, 1, 48, 0
3, 206489, Note_on_c, 1, 48, 114
3, 206973, Note_on_c, 1, 36, 71
3, 207397, Note_on_c, 1, 48, 0
3, 207450, Note_on_c, 1, 41, 102
3, 207465, Note_on_c, 1, 36, 0
3, 207896, Note_on_c, 1, 36, 102
3, 207928, Note_on_c, 1, 41, 0
3, 208342, Note_on_c, 1, 29, 93
3, 208383, Note_on_c, 1, 36, 0
3, 209335, Control_c, 1, 64, 127
3, 210201, Note_on_c, 1, 29, 0
3, 210211, Control_c, 1, 64, 0
3, 210234, Note_on_c, 1, 34, 95
3, 211199, Note_on_c, 1, 39, 93
3, 211223, Note_on_c, 1, 34, 0
3, 213262, Note_on_c, 1, 50, 111
3, 213381, Note_on_c, 1, 39, 0
3, 213472, Note_on_c, 1, 51, 81
3, 213483, Note_on_c, 1, 50, 0
3, 213686, Note_on_c, 1, 50, 95
3, 213719, Note_on_c, 1, 51, 0
3, 214117, Note_on_c, 1, 50, 0
3, 214159, Note_on_c, 1, 46, 85
3, 214546, Note_on_c, 1, 46, 0
3, 214634, Note_on_c, 1, 43, 58
3, 215080, Note_on_c, 1, 43, 0
3, 215113, Note_on_c, 1, 46, 90
3, 216052, Control_c, 1, 64, 127
3, 216389, Note_on_c, 1, 46, 0
3, 216580, Note_on_c, 1, 38, 57
3, 216679, Note_on_c, 1, 38, 0
3, 216899, Control_c, 1, 64, 0
3, 216999, Note_on_c, 1, 45, 85
3, 217574, Note_on_c, 1, 40, 70
3, 217629, Note_on_c, 1, 40, 0
3, 217954, Note_on_c, 1, 33, 68
3, 218967, Note_on_c, 1, 33, 0
3, 219269, Note_on_c, 1, 45, 0
3, 219442, Note_on_c, 1, 40, 89
3, 219876, Note_on_c, 1, 40, 0
3, 219887, Note_on_c, 1, 41, 92
3, 220386, Note_on_c, 1, 36, 87
3, 220418, Note_on_c, 1, 41, 0
3, 220850, Note_on_c, 1, 39, 100
3, 220906, Note_on_c, 1, 36, 0
3, 221755, Note_on_c, 1, 39, 0
3, 221810, Note_on_c, 1, 39, 93
3, 223182, Note_on_c, 1, 39, 0
3, 223226, Note_on_c, 1, 38, 94
3, 223704, Note_on_c, 1, 44, 109
3, 224355, Note_on_c, 1, 38, 0
3, 224659, Note_on_c, 1, 44, 0
3, 224673, Note_on_c, 1, 43, 86
3, 225417, Note_on_c, 1, 38, 74
3, 225522, Note_on_c, 1, 38, 0
3, 225543, Note_on_c, 1, 43, 0
3, 225588, Note_on_c, 1, 31, 76
3, 226373, Note_on_c, 1, 35, 70
3, 226381, Note_on_c, 1, 31, 0
3, 226542, Note_on_c, 1, 35, 0
3, 226579, Note_on_c, 1, 36, 74
3, 227590, Control_c, 1, 64, 127
3, 227927, Control_c, 1, 64, 0
3, 228017, Note_on_c, 1, 48, 106
3, 228137, Note_on_c, 1, 48, 0
3, 228286, Note_on_c, 1, 47, 96
3, 228505, Note_on_c, 1, 47, 0
3, 228544, Note_on_c, 1, 46, 94
3, 228937, Note_on_c, 1, 46, 0
3, 229025, Note_on_c, 1, 46, 91
3, 229107, Note_on_c, 1, 36, 0
3, 229418, Note_on_c, 1, 46, 0
3, 229504, Note_on_c, 1, 46, 97
3, 229823, Control_c, 1, 64, 127
3, 230440, Control_c, 1, 64, 0
3, 230441, Note_on_c, 1, 46, 0
3, 230491, Note_on_c, 1, 45, 104
3, 231488, Control_c, 1, 64, 127
3, 232261, Note_on_c, 1, 45, 0
3, 232343, Control_c, 1, 64, 0
3, 232385, Note_on_c, 1, 44, 105
3, 233567, Control_c, 1, 64, 127
3, 234227, Note_on_c, 1, 44, 0
3, 234241, Control_c, 1, 64, 0
3, 234263, Note_on_c, 1, 43, 92
3, 235240, Control_c, 1, 64, 127
3, 236155, Control_c, 1, 64, 0
3, 236212, Note_on_c, 1, 43, 0
3, 236214, Note_on_c, 1, 42, 97
3, 237179, Note_on_c, 1, 30, 107
3, 237224, Note_on_c, 1, 42, 0
3, 238123, Note_on_c, 1, 30, 0
3, 238177, Note_on_c, 1, 29, 104
3, 239214, Control_c, 1, 64, 127
3, 239245, Control_c, 1, 64, 0
3, 239577, Note_on_c, 1, 41, 114
3, 239763, Note_on_c, 1, 29, 0
3, 240050, Note_on_c, 1, 34, 107
3, 240076, Note_on_c, 1, 41, 0
3, 240941, Note_on_c, 1, 34, 0
3, 241008, Note_on_c, 1, 34, 95
3, 242369, Control_c, 1, 64, 127
3, 242371, Note_on_c, 1, 46, 112
3, 242471, Control_c, 1, 64, 0
3, 242797, Note_on_c, 1, 46, 0
3, 242868, Note_on_c, 1, 46, 112
3, 243658, Note_on_c, 1, 46, 0
3, 243728, Note_on_c, 1, 46, 108
3, 243858, Note_on_c, 1, 46, 0
3, 243917, Note_on_c, 1, 46, 97
3, 244167, Note_on_c, 1, 48, 81
3, 244176, Note_on_c, 1, 46, 0
3, 244291, Note_on_c, 1, 48, 0
3, 244330, Note_on_c, 1, 46, 93
3, 244714, Note_on_c, 1, 46, 0
3, 244788, Note_on_c, 1, 46, 95
3, 244979, Note_on_c, 1, 34, 0
3, 245292, Note_on_c, 1, 34, 109
3, 245692, Note_on_c, 1, 34, 0
3, 245756, Note_on_c, 1, 34, 97
3, 245784, Note_on_c, 1, 46, 0
3, 247229, Note_on_c, 1, 46, 110
3, 247491, Note_on_c, 1, 46, 0
3, 247683, Note_on_c, 1, 46, 109
3, 247928, Note_on_c, 1, 46, 0
3, 247962, Note_on_c, 1, 48, 85
3, 248116, Note_on_c, 1, 48, 0
3, 248130, Note_on_c, 1, 46, 87
3, 248463, Note_on_c, 1, 46, 0
3, 248613, Note_on_c, 1, 46, 104
3, 248744, Note_on_c, 1, 34, 0
3, 249055, Note_on_c, 1, 46, 0
3, 249100, Note_on_c, 1, 34, 105
3, 249396, Note_on_c, 1, 38, 80
3, 249476, Note_on_c, 1, 34, 0
3, 249532, Note_on_c, 1, 38, 0
3, 249568, Note_on_c, 1, 39, 74
3, 251513, Note_on_c, 1, 43, 60
3, 251623, Note_on_c, 1, 39, 0
3, 253101, Note_on_c, 1, 39, 70
3, 253216, Note_on_c, 1, 43, 0
3, 253284, Note_on_c, 1, 39, 0
3, 253389, Note_on_c, 1, 48, 82
3, 253522, Note_on_c, 1, 48, 0
3, 254004, Note_on_c, 1, 43, 71
3, 254265, Note_on_c, 1, 43, 0
3, 254380, Note_on_c, 1, 36, 82
3, 255916, Note_on_c, 1, 34, 75
3, 256043, Note_on_c, 1, 34, 0
3, 256058, Note_on_c, 1, 36, 0
3, 256221, Note_on_c, 1, 42, 81
3, 257521, Note_on_c, 1, 41, 86
3, 257590, Note_on_c, 1, 41, 0
3, 257594, Note_on_c, 1, 42, 0
3, 257840, Note_on_c, 1, 36, 79
3, 258099, Note_on_c, 1, 36, 0
3, 258232, Note_on_c, 1, 29, 81
3, 260136, Note_on_c, 1, 35, 84
3, 260236, Note_on_c, 1, 29, 0
3, 261040, Note_on_c, 1, 35, 0
3, 261071, Note_on_c, 1, 34, 85
3, 262884, Note_on_c, 1, 34, 0
3, 262964, Note_on_c, 1, 32, 95
3, 264900, Note_on_c, 1, 32, 0
3, 264944, Note_on_c, 1, 31, 78
3, 265589, Note_on_c, 1, 34, 63
3, 265700, Note_on_c, 1, 31, 0
3, 265775, Note_on_c, 1, 34, 0
3, 265915, Note_on_c, 1, 42, 86
3, 266507, Note_on_c, 1, 38, 58
3, 266699, Note_on_c, 1, 38, 0
3, 266864, Note_on_c, 1, 42, 0
3, 266893, Note_on_c, 1, 43, 65
3, 268536, Note_on_c, 1, 39, 79
3, 268605, Note_on_c, 1, 43, 0
3, 268807, Note_on_c, 1, 39, 0
3, 268859, Note_on_c, 1, 40, 63
3, 270447, Note_on_c, 1, 39, 62
3, 270735, Note_on_c, 1, 40, 0
3, 270758, Note_on_c, 1, 52, 97
3, 270773, Note_on_c, 1, 39, 0
3, 272294, Note_on_c, 1, 41, 65
3, 272343, Note_on_c, 1, 52, 0
3, 272507, Note_on_c, 1, 41, 0
3, 272610, Note_on_c, 1, 53, 80
3, 273204, Note_on_c, 1, 53, 0
3, 273221, Note_on_c, 1, 48, 70
3, 273440, Note_on_c, 1, 48, 0
3, 273568, Note_on_c, 1, 41, 72
3, 276466, Note_on_c, 1, 41, 0
3, 276521, Note_on_c, 1, 46, 79
3, 278507, Note_on_c, 1, 34, 81
3, 278570, Note_on_c, 1, 46, 0
3, 280068, Note_on_c, 1, 39, 63
3, 280215, Note_on_c, 1, 39, 0
3, 280292, Note_on_c, 1, 34, 0
3, 280323, Note_on_c, 1, 43, 69
3, 281882, Note_on_c, 1, 38, 64
3, 282095, Note_on_c, 1, 43, 0
3, 282107, Note_on_c, 1, 38, 0
3, 282230, Note_on_c, 1, 31, 68
3, 283839, Note_on_c, 1, 34, 58
3, 284007, Note_on_c, 1, 31, 0
3, 284132, Note_on_c, 1, 34, 0
3, 284198, Note_on_c, 1, 36, 70
3, 284879, Note_on_c, 1, 34, 55
3, 284964, Note_on_c, 1, 34, 0
3, 285158, Note_on_c, 1, 42, 84
3, 285161, Note_on_c, 1, 36, 0
3, 286774, Note_on_c, 1, 36, 59
3, 286859, Note_on_c, 1, 36, 0
3, 286861, Note_on_c, 1, 42, 0
3, 287008, Note_on_c, 1, 48, 84
3, 287679, Note_on_c, 1, 48, 0
3, 287682, Note_on_c, 1, 40, 72
3, 287961, Note_on_c, 1, 40, 0
3, 288030, Note_on_c, 1, 41, 72
3, 289940, Note_on_c, 1, 36, 86
3, 289967, Note_on_c, 1, 41, 0
3, 291777, Note_on_c, 1, 36, 0
3, 291827, Note_on_c, 1, 34, 89
3, 293709, Note_on_c, 1, 38, 102
3, 293807, Note_on_c, 1, 34, 0
3, 295595, Note_on_c, 1, 38, 0
3, 295654, Note_on_c, 1, 39, 96
3, 297551, Note_on_c, 1, 46, 108
3, 297681, Note_on_c, 1, 39, 0
3, 299302, Note_on_c, 1, 39, 51
3, 299483, Note_on_c, 1, 39, 0
3, 299508, Note_on_c, 1, 56, 107
3, 299738, Note_on_c, 1, 46, 0
3, 300178, Note_on_c, 1, 39, 58
3, 300212, Note_on_c, 1, 46, 46
3, 300287, Note_on_c, 1, 56, 0
3, 300316, Note_on_c, 1, 46, 0
3, 300425, Note_on_c, 1, 39, 0
3, 300500, Note_on_c, 1, 55, 90
3, 301408, Note_on_c, 1, 51, 83
3, 301451, Note_on_c, 1, 55, 0
3, 303025, Note_on_c, 1, 47, 76
3, 303113, Note_on_c, 1, 51, 0
3, 303302, Note_on_c, 1, 47, 0
3, 303355, Note_on_c, 1, 46, 81
3, 305223, Note_on_c, 1, 51, 90
3, 305341, Note_on_c, 1, 46, 0
3, 306888, Note_on_c, 1, 53, 63
3, 306892, Note_on_c, 1, 51, 0
3, 307090, Note_on_c, 1, 53, 0
3, 307174, Note_on_c, 1, 51, 77
3, 308799, Note_on_c, 1, 44, 54
3, 308964, Note_on_c, 1, 44, 0
3, 309075, Note_on_c, 1, 45, 75
3, 309862, Note_on_c, 1, 51, 0
3, 310644, Note_on_c, 1, 33, 71
3, 310697, Note_on_c, 1, 45, 0
3, 310742, Note_on_c, 1, 33, 0
3, 310964, Note_on_c, 1, 32, 98
3, 312917, Note_on_c, 1, 39, 82
3, 312988, Note_on_c, 1, 32, 0
3, 314858, Note_on_c, 1, 44, 77
3, 314964, Note_on_c, 1, 39, 0
3, 316509, Note_on_c, 1, 39, 55
3, 316788, Note_on_c, 1, 39, 0
3, 316790, Note_on_c, 1, 51, 102
3, 316903, Note_on_c, 1, 44, 0
3, 318445, Note_on_c, 1, 41, 55
3, 318533, Note_on_c, 1, 41, 0
3, 318660, Note_on_c, 1, 51, 0
3, 318675, Note_on_c, 1, 46, 94
3, 321280, Note_on_c, 1, 41, 71
3, 321430, Note_on_c, 1, 41, 0
3, 321503, Note_on_c, 1, 46, 0
3, 321611, Note_on_c, 1, 32, 77
3, 322534, Note_on_c, 1, 31, 77
3, 322555, Note_on_c, 1, 32, 0
3, 323901, Note_on_c, 1, 33, 71
3, 323911, Note_on_c, 1, 31, 0
3, 324168, Note_on_c, 1, 34, 83
3, 324205, Note_on_c, 1, 33, 0
3, 324289, Note_on_c, 1, 34, 0
3, 324491, Note_on_c, 1, 35, 92
3, 326077, Note_on_c, 1, 38, 81
3, 326130, Note_on_c, 1, 35, 0
3, 326240, Note_on_c, 1, 38, 0
3, 326409, Note_on_c, 1, 36, 83
3, 328275, Note_on_c, 1, 43, 55
3, 328285, Note_on_c, 1, 36, 0
3, 328978, Note_on_c, 1, 36, 67
3, 329158, Note_on_c, 1, 43, 0
3, 329181, Note_on_c, 1, 36, 0
3, 329245, Note_on_c, 1, 51, 85
3, 329938, Note_on_c, 1, 36, 57
3, 330080, Note_on_c, 1, 51, 0
3, 330109, Note_on_c, 1, 36, 0
3, 330174, Note_on_c, 1, 47, 85
3, 331994, Note_on_c, 1, 47, 0
3, 332138, Note_on_c, 1, 43, 60
3, 333782, Note_on_c, 1, 38, 64
3, 333864, Note_on_c, 1, 38, 0
3, 333922, Note_on_c, 1, 43, 0
3, 334052, Note_on_c, 1, 46, 80
3, 336053, Note_on_c, 1, 41, 73
3, 336072, Note_on_c, 1, 46, 0
3, 337652, Note_on_c, 1, 34, 58
3, 337721, Note_on_c, 1, 34, 0
3, 337890, Note_on_c, 1, 41, 0
3, 337935, Note_on_c, 1, 39, 80
3, 339912, Note_on_c, 1, 33, 111
3, 339975, Note_on_c, 1, 39, 0
3, 341723, Note_on_c, 1, 33, 0
3, 341771, Note_on_c, 1, 32, 105
3, 343662, Note_on_c, 1, 39, 110
3, 343785, Note_on_c, 1, 32, 0
3, 345328, Note_on_c, 1, 32, 58
3, 345515, Note_on_c, 1, 39, 0
3, 345601, Note_on_c, 1, 43, 114
3, 345616, Note_on_c, 1, 32, 0
3, 347154, Note_on_c, 1, 38, 83
3, 347343, Note_on_c, 1, 38, 0
3, 347385, Note_on_c, 1, 43, 0
3, 347515, Note_on_c, 1, 31, 95
3, 349038, Note_on_c, 1, 36, 55
3, 349065, Note_on_c, 1, 31, 0
3, 349226, Note_on_c, 1, 36, 0
3, 349322, Note_on_c, 1, 29, 99
3, 350939, Note_on_c, 1, 36, 63
3, 351171, Note_on_c, 1, 36, 0
3, 351255, Note_on_c, 1, 41, 108
3, 351286, Note_on_c, 1, 29, 0
3, 353162, Note_on_c, 1, 41, 0
3, 353220, Note_on_c, 1, 38, 99
3, 354836, Note_on_c, 1, 44, 103
3, 354984, Note_on_c, 1, 38, 0
3, 355142, Note_on_c, 1, 44, 0
3, 355192, Note_on_c, 1, 43, 82
3, 355343, Note_on_c, 1, 43, 0
3, 355754, Note_on_c, 1, 38, 89
3, 356036, Note_on_c, 1, 38, 0
3, 356134, Note_on_c, 1, 31, 88
3, 357023, Note_on_c, 1, 31, 0
3, 357054, Note_on_c, 1, 36, 103
3, 358953, Note_on_c, 1, 48, 110
3, 360888, Note_on_c, 1, 36, 0
3, 360898, Note_on_c, 1, 48, 0
3, 360913, Note_on_c, 1, 41, 103
3, 364736, Note_on_c, 1, 41, 0
3, 364768, Note_on_c, 1, 34, 93
3, 365780, Note_on_c, 1, 46, 101
3, 366335, Note_on_c, 1, 46, 0
3, 366412, Note_on_c, 1, 45, 63
3, 366587, Note_on_c, 1, 45, 0
3, 366715, Note_on_c, 1, 46, 81
3, 368155, Note_on_c, 1, 34, 0
3, 368655, Note_on_c, 1, 46, 0
3, 368658, Note_on_c, 1, 34, 110
3, 370575, Note_on_c, 1, 46, 111
3, 370646, Note_on_c, 1, 34, 0
3, 371871, Note_on_c, 1, 37, 79
3, 372018, Note_on_c, 1, 37, 0
3, 372053, Note_on_c, 1, 46, 0
3, 372205, Note_on_c, 1, 38, 92
3, 372414, Note_on_c, 1, 38, 0
3, 372527, Note_on_c, 1, 39, 103
3, 374388, Note_on_c, 1, 38, 90
3, 374390, Note_on_c, 1, 39, 0
3, 375042, Note_on_c, 1, 34, 59
3, 375110, Note_on_c, 1, 38, 0
3, 375294, Note_on_c, 1, 34, 0
3, 375303, Note_on_c, 1, 37, 78
3, 376087, Note_on_c, 1, 34, 51
3, 376166, Note_on_c, 1, 37, 0
3, 376262, Note_on_c, 1, 34, 0
3, 376285, Note_on_c, 1, 36, 72
3, 377961, Note_on_c, 1, 34, 61
3, 378120, Note_on_c, 1, 36, 0
3, 378209, Note_on_c, 1, 48, 110
3, 378210, Note_on_c, 1, 34, 0
3, 379865, Note_on_c, 1, 41, 63
3, 379959, Note_on_c, 1, 41, 0
3, 379992, Note_on_c, 1, 48, 0
3, 380105, Note_on_c, 1, 53, 79
3, 380739, Note_on_c, 1, 41, 66
3, 380850, Note_on_c, 1, 41, 0
3, 380935, Note_on_c, 1, 53, 0
3, 381100, Note_on_c, 1, 44, 60
3, 382705, Note_on_c, 1, 41, 72
3, 382793, Note_on_c, 1, 41, 0
3, 382855, Note_on_c, 1, 44, 0
3, 382962, Note_on_c, 1, 48, 74
3, 383823, Note_on_c, 1, 48, 0
3, 383919, Note_on_c, 1, 46, 68
3, 384863, Note_on_c, 1, 46, 0
3, 384877, Note_on_c, 1, 34, 93
3, 386681, Note_on_c, 1, 34, 0
3, 386823, Note_on_c, 1, 32, 93
3, 387636, Note_on_c, 1, 32, 0
3, 387735, Note_on_c, 1, 31, 84
3, 389817, Note_on_c, 1, 43, 114
3, 391706, Note_on_c, 1, 42, 100
3, 391769, Note_on_c, 1, 43, 0
3, 391896, Note_on_c, 1, 31, 0
3, 393603, Note_on_c, 1, 30, 101
3, 393720, Note_on_c, 1, 42, 0
3, 395475, Note_on_c, 1, 30, 0
3, 395511, Note_on_c, 1, 29, 92
3, 397226, Note_on_c, 1, 36, 62
3, 397312, Note_on_c, 1, 36, 0
3, 397374, Note_on_c, 1, 29, 0
3, 397495, Note_on_c, 1, 41, 94
3, 399073, Note_on_c, 1, 36, 59
3, 399171, Note_on_c, 1, 36, 0
3, 399328, Note_on_c, 1, 41, 0
3, 399332, Note_on_c, 1, 46, 82
3, 400321, Note_on_c, 1, 40, 96
3, 400431, Note_on_c, 1, 46, 0
3, 403067, Note_on_c, 1, 35, 67
3, 403072, Note_on_c, 1, 40, 0
3, 403263, Note_on_c, 1, 39, 88
3, 403266, Note_on_c, 1, 35, 0
3, 405102, Note_on_c, 1, 31, 76
3, 405117, Note_on_c, 1, 39, 0
3, 407039, Note_on_c, 1, 36, 97
3, 407070, Note_on_c, 1, 31, 0
3, 408946, Note_on_c, 1, 48, 114
3, 409096, Note_on_c, 1, 36, 0
3, 410912, Note_on_c, 1, 41, 108
3, 410935, Note_on_c, 1, 48, 0
3, 412818, Note_on_c, 1, 53, 103
3, 412859, Note_on_c, 1, 52, 58
3, 412924, Note_on_c, 1, 52, 0
3, 413375, Note_on_c, 1, 41, 0
3, 414393, Note_on_c, 1, 41, 70
3, 414500, Note_on_c, 1, 41, 0
3, 414585, Note_on_c, 1, 53, 0
3, 414685, Note_on_c, 1, 50, 88
3, 415374, Note_on_c, 1, 41, 48
3, 415460, Note_on_c, 1, 41, 0
3, 415506, Note_on_c, 1, 50, 0
3, 415595, Note_on_c, 1, 46, 89
3, 418465, Note_on_c, 1, 39, 103
3, 418528, Note_on_c, 1, 46, 0
3, 420464, Note_on_c, 1, 46, 102
3, 422363, Note_on_c, 1, 55, 94
3, 422426, Note_on_c, 1, 46, 0
3, 422964, Note_on_c, 1, 55, 0
3, 423021, Note_on_c, 1, 54, 80
3, 423232, Note_on_c, 1, 54, 0
3, 423321, Note_on_c, 1, 55, 87
3, 424116, Note_on_c, 1, 55, 0
3, 424271, Note_on_c, 1, 46, 91
3, 424436, Note_on_c, 1, 39, 0
3, 426838, Note_on_c, 1, 45, 61
3, 426859, Note_on_c, 1, 46, 0
3, 427009, Note_on_c, 1, 45, 0
3, 427174, Note_on_c, 1, 46, 89
3, 428169, Note_on_c, 1, 41, 84
3, 429759, Note_on_c, 1, 41, 0
3, 429785, Note_on_c, 1, 34, 70
3, 429966, Note_on_c, 1, 34, 0
3, 430066, Note_on_c, 1, 39, 95
3, 430237, Note_on_c, 1, 46, 0
3, 431857, Note_on_c, 1, 39, 0
3, 431940, Note_on_c, 1, 36, 100
3, 433898, Note_on_c, 1, 41, 107
3, 434009, Note_on_c, 1, 36, 0
3, 435803, Note_on_c, 1, 29, 75
3, 437462, Note_on_c, 1, 29, 0
3, 437481, Note_on_c, 1, 36, 71
3, 437487, Note_on_c, 1, 41, 0
3, 437663, Note_on_c, 1, 36, 0
3, 437761, Note_on_c, 1, 39, 97
3, 439443, Note_on_c, 1, 39, 0
3, 439639, Note_on_c, 1, 39, 95
3, 441471, Note_on_c, 1, 39, 0
3, 441530, Note_on_c, 1, 38, 87
3, 443498, Note_on_c, 1, 51, 100
3, 443655, Note_on_c, 1, 38, 0
3, 444178, Note_on_c, 1, 38, 48
3, 444182, Note_on_c, 1, 49, 60
3, 444253, Note_on_c, 1, 38, 0
3, 444278, Note_on_c, 1, 51, 0
3, 444370, Note_on_c, 1, 49, 0
3, 444479, Note_on_c, 1, 50, 77
3, 446119, Note_on_c, 1, 42, 71
3, 446169, Note_on_c, 1, 50, 0
3, 446372, Note_on_c, 1, 42, 0
3, 446430, Note_on_c, 1, 43, 83
3, 447916, Note_on_c, 1, 38, 85
3, 447987, Note_on_c, 1, 43, 0
3, 448118, Note_on_c, 1, 38, 0
3, 448214, Note_on_c, 1, 35, 85
3, 449208, Note_on_c, 1, 35, 0
3, 449256, Note_on_c, 1, 36, 95
3, 451159, Note_on_c, 1, 48, 114
3, 452560, Note_on_c, 1, 36, 0
3, 452737, Note_on_c, 1, 36, 59
3, 453012, Note_on_c, 1, 36, 0
3, 453069, Note_on_c, 1, 48, 0
3, 453100, Note_on_c, 1, 46, 110
3, 454788, Note_on_c, 1, 36, 62
3, 454855, Note_on_c, 1, 46, 0
3, 454897, Note_on_c, 1, 36, 0
3, 455066, Note_on_c, 1, 46, 112
3, 456790, Note_on_c, 1, 38, 55
3, 456882, Note_on_c, 1, 38, 0
3, 456930, Note_on_c, 1, 46, 0
3, 457001, Note_on_c, 1, 45, 110
3, 458728, Note_on_c, 1, 45, 0
3, 458858, Note_on_c, 1, 45, 106
3, 460834, Note_on_c, 1, 44, 110
3, 460880, Note_on_c, 1, 45, 0
3, 462489, Note_on_c, 1, 44, 0
3, 462723, Note_on_c, 1, 44, 106
3, 464507, Note_on_c, 1, 44, 0
3, 464633, Note_on_c, 1, 43, 100
3, 468422, Note_on_c, 1, 30, 93
3, 468429, Note_on_c, 1, 43, 0
3, 470426, Note_on_c, 1, 42, 103
3, 470434, Note_on_c, 1, 30, 0
3, 472354, Note_on_c, 1, 42, 0
3, 472394, Note_on_c, 1, 41, 99
3, 476144, Note_on_c, 1, 34, 94
3, 476161, Note_on_c, 1, 41, 0
3, 477837, Note_on_c, 1, 34, 0
3, 478016, Note_on_c, 1, 34, 73
3, 479952, Note_on_c, 1, 34, 0
3, 479988, Note_on_c, 1, 33, 90
3, 486800, Note_on_c, 1, 33, 0
3, 486928, Note_on_c, 1, 32, 90
3, 492304, Note_on_c, 1, 32, 0
3, 492368, Note_on_c, 1, 31, 90
3, 497552, Note_on_c, 1, 31, 0
3, 497616, Note_on_c, 1, 36, 90
3, 508998, Note_on_c, 1, 36, 0
3, 509190, Note_on_c, 1, 29, 90
3, 517097, Note_on_c, 1, 29, 0
3, 517638, Note_on_c, 1, 34, 90
3, 529350, Note_on_c, 1, 34, 0
3, 530118, Note_on_c, 1, 27, 90
3, 539177, Note_on_c, 1, 27, 0
3, 539788, Note_on_c, 1, 27, 90
3, 548620, Note_on_c, 1, 27, 0
3, 548620, End_track
4, 0, Start_track
4, 0, Title_t, "Brushes"
4, 0, Program_c, 9, 40
4, 0, Control_c, 9, 7, 74
4, 122880, Note_on_c, 9, 51, 16
4, 122880, Note_on_c, 9, 51, 0
4, 126792, Note_on_c, 9, 59, 20
4, 127411, Note_on_c, 9, 59, 0
4, 127680, Note_on_c, 9, 44, 37
4, 127791, Note_on_c, 9, 59, 15
4, 128328, Note_on_c, 9, 59, 0
4, 128467, Note_on_c, 9, 44, 0
4, 128525, Note_on_c, 9, 59, 33
4, 128582, Note_on_c, 9, 59, 0
4, 128692, Note_on_c, 9, 59, 19
4, 129398, Note_on_c, 9, 59, 0
4, 129600, Note_on_c, 9, 44, 22
4, 129628, Note_on_c, 9, 59, 21
4, 129916, Note_on_c, 9, 53, 9
4, 130008, Note_on_c, 9, 53, 0
4, 130392, Note_on_c, 9, 59, 0
4, 130417, Note_on_c, 9, 53, 27
4, 130484, Note_on_c, 9, 44, 0
4, 130519, Note_on_c, 9, 53, 0
4, 130608, Note_on_c, 9, 59, 17
4, 130967, Note_on_c, 9, 59, 0
4, 131076, Note_on_c, 9, 59, 24
4, 131477, Note_on_c, 9, 59, 0
4, 131520, Note_on_c, 9, 46, 37
4, 131572, Note_on_c, 9, 59, 15
4, 132399, Note_on_c, 9, 59, 0
4, 132414, Note_on_c, 9, 46, 0
4, 132500, Note_on_c, 9, 59, 28
4, 133385, Note_on_c, 9, 59, 0
4, 133440, Note_on_c, 9, 44, 24
4, 133503, Note_on_c, 9, 59, 21
4, 133837, Note_on_c, 9, 44, 0
4, 134176, Note_on_c, 9, 59, 0
4, 134272, Note_on_c, 9, 59, 17
4, 134365, Note_on_c, 9, 59, 0
4, 134429, Note_on_c, 9, 59, 11
4, 134447, Note_on_c, 9, 36, 2
4, 134677, Note_on_c, 9, 36, 0
4, 134771, Note_on_c, 9, 36, 2
4, 134872, Note_on_c, 9, 36, 0
4, 135201, Note_on_c, 9, 59, 0
4, 135360, Note_on_c, 9, 44, 20
4, 135384, Note_on_c, 9, 59, 24
4, 135683, Note_on_c, 9, 44, 0
4, 136140, Note_on_c, 9, 53, 10
4, 136232, Note_on_c, 9, 59, 0
4, 136234, Note_on_c, 9, 53, 0
4, 136379, Note_on_c, 9, 59, 20
4, 136667, Note_on_c, 9, 36, 3
4, 136711, Note_on_c, 9, 36, 0
4, 136753, Note_on_c, 9, 53, 19
4, 136801, Note_on_c, 9, 59, 0
4, 136930, Note_on_c, 9, 53, 0
4, 137140, Note_on_c, 9, 53, 21
4, 137237, Note_on_c, 9, 53, 0
4, 137280, Note_on_c, 9, 46, 24
4, 137357, Note_on_c, 9, 59, 21
4, 137642, Note_on_c, 9, 53, 13
4, 137736, Note_on_c, 9, 53, 0
4, 137984, Note_on_c, 9, 59, 0
4, 138104, Note_on_c, 9, 59, 18
4, 138204, Note_on_c, 9, 59, 0
4, 138264, Note_on_c, 9, 59, 5
4, 138293, Note_on_c, 9, 46, 0
4, 139137, Note_on_c, 9, 59, 0
4, 139200, Note_on_c, 9, 44, 16
4, 139237, Note_on_c, 9, 59, 18
4, 139697, Note_on_c, 9, 44, 0
4, 139926, Note_on_c, 9, 59, 0
4, 140018, Note_on_c, 9, 59, 16
4, 140134, Note_on_c, 9, 59, 0
4, 140210, Note_on_c, 9, 59, 20
4, 140525, Note_on_c, 9, 53, 16
4, 140613, Note_on_c, 9, 53, 0
4, 140715, Note_on_c, 9, 53, 3
4, 140883, Note_on_c, 9, 53, 0
4, 141013, Note_on_c, 9, 36, 4
4, 141065, Note_on_c, 9, 59, 0
4, 141107, Note_on_c, 9, 36, 0
4, 141120, Note_on_c, 9, 44, 13
4, 141166, Note_on_c, 9, 59, 25
4, 141205, Note_on_c, 9, 53, 10
4, 141315, Note_on_c, 9, 53, 0
4, 141475, Note_on_c, 9, 53, 18
4, 141527, Note_on_c, 9, 44, 0
4, 141563, Note_on_c, 9, 53, 0
4, 141649, Note_on_c, 9, 53, 10
4, 141723, Note_on_c, 9, 53, 0
4, 141958, Note_on_c, 9, 36, 12
4, 142005, Note_on_c, 9, 36, 0
4, 142013, Note_on_c, 9, 59, 0
4, 142117, Note_on_c, 9, 59, 23
4, 142151, Note_on_c, 9, 36, 12
4, 142152, Note_on_c, 9, 49, 2
4, 142752, Note_on_c, 9, 49, 0
4, 142829, Note_on_c, 9, 59, 0
4, 142847, Note_on_c, 9, 53, 16
4, 142967, Note_on_c, 9, 53, 0
4, 143004, Note_on_c, 9, 59, 21
4, 143040, Note_on_c, 9, 46, 20
4, 143101, Note_on_c, 9, 36, 0
4, 143287, Note_on_c, 9, 46, 0
4, 143830, Note_on_c, 9, 59, 0
4, 143974, Note_on_c, 9, 59, 25
4, 144813, Note_on_c, 9, 59, 0
4, 144960, Note_on_c, 9, 44, 12
4, 145010, Note_on_c, 9, 59, 19
4, 145191, Note_on_c, 9, 44, 0
4, 145777, Note_on_c, 9, 59, 0
4, 145891, Note_on_c, 9, 59, 21
4, 146767, Note_on_c, 9, 59, 0
4, 146870, Note_on_c, 9, 59, 31
4, 146880, Note_on_c, 9, 44, 12
4, 147151, Note_on_c, 9, 44, 0
4, 147586, Note_on_c, 9, 59, 0
4, 147657, Note_on_c, 9, 59, 18
4, 147769, Note_on_c, 9, 59, 0
4, 147847, Note_on_c, 9, 59, 23
4, 147894, Note_on_c, 9, 59, 91
4, 148188, Note_on_c, 9, 59, 0
4, 148344, Note_on_c, 9, 59, 114
4, 148705, Note_on_c, 9, 59, 0
4, 148800, Note_on_c, 9, 46, 22
4, 148804, Note_on_c, 9, 59, 0
4, 148831, Note_on_c, 9, 36, 6
4, 148908, Note_on_c, 9, 59, 24
4, 149023, Note_on_c, 9, 46, 0
4, 149089, Note_on_c, 9, 36, 0
4, 149720, Note_on_c, 9, 59, 0
4, 149789, Note_on_c, 9, 36, 2
4, 149813, Note_on_c, 9, 59, 17
4, 149900, Note_on_c, 9, 36, 0
4, 150682, Note_on_c, 9, 59, 0
4, 150720, Note_on_c, 9, 44, 10
4, 150792, Note_on_c, 9, 59, 21
4, 150887, Note_on_c, 9, 44, 0
4, 151052, Note_on_c, 9, 53, 9
4, 151096, Note_on_c, 9, 53, 17
4, 151134, Note_on_c, 9, 59, 0
4, 151135, Note_on_c, 9, 53, 0
4, 151224, Note_on_c, 9, 53, 0
4, 151299, Note_on_c, 9, 59, 25
4, 151551, Note_on_c, 9, 59, 0
4, 151645, Note_on_c, 9, 53, 4
4, 151714, Note_on_c, 9, 53, 0
4, 151757, Note_on_c, 9, 59, 24
4, 152034, Note_on_c, 9, 53, 7
4, 152110, Note_on_c, 9, 53, 0
4, 152577, Note_on_c, 9, 59, 0
4, 152640, Note_on_c, 9, 44, 15
4, 152685, Note_on_c, 9, 53, 8
4, 152704, Note_on_c, 9, 59, 21
4, 152896, Note_on_c, 9, 44, 0
4, 152907, Note_on_c, 9, 53, 0
4, 152979, Note_on_c, 9, 36, 4
4, 153039, Note_on_c, 9, 36, 0
4, 153153, Note_on_c, 9, 36, 7
4, 153363, Note_on_c, 9, 59, 0
4, 153459, Note_on_c, 9, 36, 0
4, 153480, Note_on_c, 9, 59, 15
4, 153561, Note_on_c, 9, 59, 0
4, 153656, Note_on_c, 9, 59, 25
4, 154440, Note_on_c, 9, 59, 0
4, 154560, Note_on_c, 9, 44, 49
4, 154614, Note_on_c, 9, 59, 33
4, 155187, Note_on_c, 9, 44, 0
4, 155251, Note_on_c, 9, 59, 0
4, 155343, Note_on_c, 9, 59, 30
4, 155426, Note_on_c, 9, 59, 0
4, 155539, Note_on_c, 9, 59, 29
4, 156297, Note_on_c, 9, 53, 11
4, 156367, Note_on_c, 9, 59, 0
4, 156371, Note_on_c, 9, 53, 0
4, 156480, Note_on_c, 9, 46, 24
4, 156487, Note_on_c, 9, 53, 12
4, 156516, Note_on_c, 9, 59, 33
4, 156786, Note_on_c, 9, 53, 18
4, 156802, Note_on_c, 9, 53, 0
4, 156837, Note_on_c, 9, 36, 10
4, 156967, Note_on_c, 9, 36, 0
4, 156990, Note_on_c, 9, 53, 0
4, 157099, Note_on_c, 9, 59, 0
4, 157239, Note_on_c, 9, 36, 13
4, 157299, Note_on_c, 9, 36, 0
4, 157410, Note_on_c, 9, 46, 0
4, 157445, Note_on_c, 9, 49, 6
4, 157448, Note_on_c, 9, 59, 34
4, 157450, Note_on_c, 9, 36, 9
4, 157743, Note_on_c, 9, 53, 22
4, 157750, Note_on_c, 9, 59, 0
4, 157885, Note_on_c, 9, 53, 0
4, 158213, Note_on_c, 9, 49, 0
4, 158400, Note_on_c, 9, 44, 8
4, 158451, Note_on_c, 9, 53, 9
4, 158478, Note_on_c, 9, 36, 0
4, 158608, Note_on_c, 9, 53, 0
4, 158623, Note_on_c, 9, 44, 0
4, 159230, Note_on_c, 9, 59, 27
4, 159302, Note_on_c, 9, 59, 0
4, 159426, Note_on_c, 9, 59, 18
4, 160273, Note_on_c, 9, 59, 0
4, 160320, Note_on_c, 9, 44, 16
4, 160388, Note_on_c, 9, 59, 18
4, 160530, Note_on_c, 9, 44, 0
4, 160633, Note_on_c, 9, 45, 40
4, 160672, Note_on_c, 9, 45, 0
4, 161103, Note_on_c, 9, 45, 40
4, 161140, Note_on_c, 9, 59, 0
4, 161150, Note_on_c, 9, 45, 0
4, 161272, Note_on_c, 9, 59, 21
4, 161298, Note_on_c, 9, 36, 1
4, 161431, Note_on_c, 9, 36, 0
4, 161613, Note_on_c, 9, 36, 10
4, 161681, Note_on_c, 9, 36, 0
4, 161775, Note_on_c, 9, 36, 6
4, 161982, Note_on_c, 9, 36, 0
4, 162077, Note_on_c, 9, 59, 0
4, 162229, Note_on_c, 9, 59, 19
4, 162240, Note_on_c, 9, 44, 14
4, 162268, Note_on_c, 9, 36, 1
4, 162398, Note_on_c, 9, 44, 0
4, 162642, Note_on_c, 9, 36, 0
4, 162924, Note_on_c, 9, 59, 0
4, 163035, Note_on_c, 9, 59, 23
4, 163117, Note_on_c, 9, 59, 0
4, 163211, Note_on_c, 9, 59, 33
4, 164071, Note_on_c, 9, 59, 0
4, 164160, Note_on_c, 9, 46, 14
4, 164207, Note_on_c, 9, 59, 24
4, 164273, Note_on_c, 9, 46, 0
4, 164826, Note_on_c, 9, 59, 0
4, 164985, Note_on_c, 9, 59, 21
4, 165081, Note_on_c, 9, 59, 0
4, 165154, Note_on_c, 9, 59, 11
4, 165995, Note_on_c, 9, 59, 0
4, 166080, Note_on_c, 9, 44, 16
4, 166128, Note_on_c, 9, 59, 11
4, 166319, Note_on_c, 9, 44, 0
4, 166752, Note_on_c, 9, 59, 0
4, 166891, Note_on_c, 9, 59, 19
4, 167027, Note_on_c, 9, 59, 0
4, 167089, Note_on_c, 9, 59, 21
4, 167472, Note_on_c, 9, 59, 0
4, 167597, Note_on_c, 9, 59, 21
4, 167954, Note_on_c, 9, 59, 0
4, 168000, Note_on_c, 9, 44, 18
4, 168110, Note_on_c, 9, 59, 25
4, 168248, Note_on_c, 9, 44, 0
4, 168794, Note_on_c, 9, 59, 0
4, 168797, Note_on_c, 9, 53, 14
4, 168913, Note_on_c, 9, 53, 0
4, 169002, Note_on_c, 9, 59, 25
4, 169282, Note_on_c, 9, 53, 12
4, 169411, Note_on_c, 9, 53, 0
4, 169796, Note_on_c, 9, 59, 0
4, 169920, Note_on_c, 9, 44, 14
4, 169952, Note_on_c, 9, 36, 3
4, 169955, Note_on_c, 9, 59, 31
4, 170118, Note_on_c, 9, 36, 0
4, 170143, Note_on_c, 9, 44, 0
4, 170707, Note_on_c, 9, 59, 0
4, 170727, Note_on_c, 9, 53, 27
4, 170834, Note_on_c, 9, 53, 0
4, 170924, Note_on_c, 9, 59, 7
4, 171696, Note_on_c, 9, 59, 0
4, 171696, Note_on_c, 9, 53, 36
4, 171719, Note_on_c, 9, 53, 4
4, 171780, Note_on_c, 9, 53, 0
4, 171796, Note_on_c, 9, 53, 0
4, 171840, Note_on_c, 9, 46, 21
4, 171870, Note_on_c, 9, 59, 114
4, 171882, Note_on_c, 9, 59, 17
4, 172115, Note_on_c, 9, 59, 0
4, 172182, Note_on_c, 9, 59, 19
4, 172291, Note_on_c, 9, 59, 0
4, 172344, Note_on_c, 9, 59, 29
4, 172541, Note_on_c, 9, 59, 0
4, 172638, Note_on_c, 9, 53, 9
4, 172663, Note_on_c, 9, 46, 0
4, 172693, Note_on_c, 9, 59, 0
4, 172762, Note_on_c, 9, 53, 0
4, 172827, Note_on_c, 9, 59, 25
4, 172840, Note_on_c, 9, 36, 5
4, 173051, Note_on_c, 9, 36, 0
4, 173313, Note_on_c, 9, 36, 14
4, 173548, Note_on_c, 9, 36, 0
4, 173626, Note_on_c, 9, 59, 0
4, 173760, Note_on_c, 9, 44, 14
4, 173797, Note_on_c, 9, 59, 23
4, 174024, Note_on_c, 9, 44, 0
4, 174708, Note_on_c, 9, 59, 0
4, 174792, Note_on_c, 9, 59, 28
4, 175680, Note_on_c, 9, 44, 7
4, 175713, Note_on_c, 9, 59, 0
4, 175814, Note_on_c, 9, 59, 16
4, 175892, Note_on_c, 9, 44, 0
4, 176478, Note_on_c, 9, 59, 0
4, 176552, Note_on_c, 9, 59, 16
4, 176620, Note_on_c, 9, 59, 0
4, 176718, Note_on_c, 9, 59, 15
4, 177482, Note_on_c, 9, 59, 0
4, 177590, Note_on_c, 9, 59, 27
4, 177600, Note_on_c, 9, 44, 22
4, 177776, Note_on_c, 9, 44, 0
4, 178290, Note_on_c, 9, 59, 0
4, 178489, Note_on_c, 9, 59, 25
4, 179199, Note_on_c, 9, 59, 0
4, 179355, Note_on_c, 9, 59, 27
4, 179456, Note_on_c, 9, 59, 0
4, 179520, Note_on_c, 9, 44, 23
4, 179521, Note_on_c, 9, 59, 19
4, 179840, Note_on_c, 9, 44, 0
4, 180220, Note_on_c, 9, 59, 0
4, 180244, Note_on_c, 9, 53, 2
4, 180279, Note_on_c, 9, 53, 21
4, 180336, Note_on_c, 9, 53, 0
4, 180346, Note_on_c, 9, 53, 0
4, 180444, Note_on_c, 9, 59, 23
4, 180454, Note_on_c, 9, 53, 1
4, 180555, Note_on_c, 9, 53, 0
4, 180735, Note_on_c, 9, 59, 0
4, 180805, Note_on_c, 9, 36, 1
4, 180927, Note_on_c, 9, 36, 0
4, 180928, Note_on_c, 9, 59, 24
4, 181210, Note_on_c, 9, 59, 0
4, 181413, Note_on_c, 9, 59, 33
4, 181440, Note_on_c, 9, 44, 12
4, 181570, Note_on_c, 9, 36, 1
4, 181632, Note_on_c, 9, 44, 0
4, 181764, Note_on_c, 9, 36, 0
4, 182199, Note_on_c, 9, 59, 0
4, 182399, Note_on_c, 9, 59, 30
4, 183164, Note_on_c, 9, 59, 0
4, 183218, Note_on_c, 9, 53, 9
4, 183257, Note_on_c, 9, 59, 17
4, 183311, Note_on_c, 9, 59, 0
4, 183322, Note_on_c, 9, 53, 0
4, 183360, Note_on_c, 9, 46, 16
4, 183407, Note_on_c, 9, 59, 21
4, 183452, Note_on_c, 9, 36, 1
4, 183615, Note_on_c, 9, 36, 0
4, 183716, Note_on_c, 9, 53, 15
4, 183730, Note_on_c, 9, 59, 0
4, 183740, Note_on_c, 9, 36, 11
4, 183812, Note_on_c, 9, 53, 0
4, 183863, Note_on_c, 9, 36, 0
4, 184228, Note_on_c, 9, 59, 11
4, 184239, Note_on_c, 9, 46, 0
4, 184310, Note_on_c, 9, 59, 0
4, 184384, Note_on_c, 9, 59, 18
4, 184683, Note_on_c, 9, 59, 0
4, 184694, Note_on_c, 9, 53, 20
4, 185000, Note_on_c, 9, 53, 0
4, 185154, Note_on_c, 9, 53, 16
4, 185251, Note_on_c, 9, 53, 0
4, 185280, Note_on_c, 9, 44, 22
4, 185336, Note_on_c, 9, 53, 12
4, 185593, Note_on_c, 9, 53, 0
4, 185650, Note_on_c, 9, 44, 0
4, 185660, Note_on_c, 9, 36, 5
4, 185797, Note_on_c, 9, 36, 0
4, 185820, Note_on_c, 9, 59, 12
4, 186049, Note_on_c, 9, 59, 0
4, 186283, Note_on_c, 9, 59, 18
4, 186291, Note_on_c, 9, 36, 11
4, 186467, Note_on_c, 9, 36, 0
4, 186978, Note_on_c, 9, 59, 0
4, 187054, Note_on_c, 9, 53, 14
4, 187115, Note_on_c, 9, 53, 0
4, 187200, Note_on_c, 9, 44, 24
4, 187204, Note_on_c, 9, 53, 16
4, 187231, Note_on_c, 9, 59, 15
4, 187373, Note_on_c, 9, 53, 0
4, 187740, Note_on_c, 9, 44, 0
4, 187894, Note_on_c, 9, 59, 0
4, 187984, Note_on_c, 9, 53, 18
4, 187988, Note_on_c, 9, 53, 9
4, 188064, Note_on_c, 9, 53, 0
4, 188119, Note_on_c, 9, 53, 0
4, 188137, Note_on_c, 9, 59, 21
4, 188165, Note_on_c, 9, 36, 20
4, 188171, Note_on_c, 9, 49, 15
4, 188350, Note_on_c, 9, 59, 0
4, 188642, Note_on_c, 9, 59, 17
4, 188910, Note_on_c, 9, 59, 0
4, 189120, Note_on_c, 9, 44, 38
4, 189144, Note_on_c, 9, 59, 22
4, 189391, Note_on_c, 9, 44, 0
4, 189653, Note_on_c, 9, 49, 0
4, 189972, Note_on_c, 9, 59, 0
4, 190111, Note_on_c, 9, 59, 48
4, 190113, Note_on_c, 9, 36, 0
4, 191022, Note_on_c, 9, 59, 0
4, 191040, Note_on_c, 9, 46, 22
4, 191121, Note_on_c, 9, 59, 25
4, 191699, Note_on_c, 9, 46, 0
4, 191808, Note_on_c, 9, 59, 0
4, 191885, Note_on_c, 9, 59, 20
4, 191990, Note_on_c, 9, 59, 0
4, 192034, Note_on_c, 9, 59, 9
4, 192912, Note_on_c, 9, 59, 0
4, 192960, Note_on_c, 9, 46, 7
4, 193026, Note_on_c, 9, 59, 19
4, 193093, Note_on_c, 9, 46, 0
4, 193748, Note_on_c, 9, 59, 0
4, 193872, Note_on_c, 9, 59, 24
4, 193955, Note_on_c, 9, 59, 0
4, 194039, Note_on_c, 9, 59, 29
4, 194802, Note_on_c, 9, 59, 0
4, 194859, Note_on_c, 9, 59, 16
4, 194880, Note_on_c, 9, 44, 23
4, 194915, Note_on_c, 9, 59, 0
4, 194995, Note_on_c, 9, 59, 37
4, 195083, Note_on_c, 9, 44, 0
4, 195725, Note_on_c, 9, 59, 0
4, 195730, Note_on_c, 9, 36, 1
4, 195787, Note_on_c, 9, 36, 0
4, 195792, Note_on_c, 9, 59, 23
4, 195872, Note_on_c, 9, 59, 0
4, 195892, Note_on_c, 9, 36, 2
4, 195954, Note_on_c, 9, 59, 38
4, 196461, Note_on_c, 9, 36, 0
4, 196799, Note_on_c, 9, 59, 0
4, 196800, Note_on_c, 9, 44, 20
4, 196899, Note_on_c, 9, 59, 22
4, 197016, Note_on_c, 9, 44, 0
4, 197166, Note_on_c, 9, 53, 10
4, 197297, Note_on_c, 9, 53, 0
4, 197712, Note_on_c, 9, 59, 0
4, 197813, Note_on_c, 9, 59, 28
4, 197815, Note_on_c, 9, 36, 2
4, 198092, Note_on_c, 9, 36, 0
4, 198570, Note_on_c, 9, 59, 0
4, 198642, Note_on_c, 9, 59, 21
4, 198720, Note_on_c, 9, 44, 24
4, 198726, Note_on_c, 9, 59, 0
4, 198782, Note_on_c, 9, 59, 17
4, 199010, Note_on_c, 9, 53, 15
4, 199092, Note_on_c, 9, 44, 0
4, 199134, Note_on_c, 9, 53, 0
4, 199217, Note_on_c, 9, 36, 7
4, 199454, Note_on_c, 9, 36, 0
4, 199470, Note_on_c, 9, 59, 0
4, 199543, Note_on_c, 9, 59, 19
4, 199627, Note_on_c, 9, 59, 0
4, 199704, Note_on_c, 9, 59, 26
4, 199710, Note_on_c, 9, 36, 1
4, 199992, Note_on_c, 9, 36, 0
4, 200416, Note_on_c, 9, 59, 0
4, 200457, Note_on_c, 9, 53, 21
4, 200470, Note_on_c, 9, 59, 17
4, 200550, Note_on_c, 9, 59, 0
4, 200583, Note_on_c, 9, 53, 0
4, 200621, Note_on_c, 9, 59, 27
4, 200638, Note_on_c, 9, 53, 6
4, 200640, Note_on_c, 9, 44, 26
4, 200920, Note_on_c, 9, 53, 0
4, 200948, Note_on_c, 9, 36, 15
4, 201042, Note_on_c, 9, 44, 0
4, 201079, Note_on_c, 9, 36, 0
4, 201378, Note_on_c, 9, 59, 0
4, 201402, Note_on_c, 9, 53, 20
4, 201531, Note_on_c, 9, 53, 0
4, 201582, Note_on_c, 9, 59, 23
4, 201857, Note_on_c, 9, 53, 22
4, 201898, Note_on_c, 9, 59, 0
4, 201903, Note_on_c, 9, 53, 17
4, 202012, Note_on_c, 9, 53, 0
4, 202052, Note_on_c, 9, 53, 0
4, 202076, Note_on_c, 9, 59, 31
4, 202076, Note_on_c, 9, 36, 2
4, 202202, Note_on_c, 9, 36, 0
4, 202442, Note_on_c, 9, 59, 0
4, 202560, Note_on_c, 9, 59, 33
4, 202884, Note_on_c, 9, 59, 0
4, 202889, Note_on_c, 9, 53, 32
4, 202896, Note_on_c, 9, 53, 18
4, 203021, Note_on_c, 9, 53, 0
4, 203059, Note_on_c, 9, 53, 0
4, 203060, Note_on_c, 9, 59, 23
4, 203088, Note_on_c, 9, 36, 8
4, 203139, Note_on_c, 9, 36, 0
4, 203290, Note_on_c, 9, 59, 0
4, 203359, Note_on_c, 9, 53, 34
4, 203381, Note_on_c, 9, 36, 18
4, 203431, Note_on_c, 9, 36, 0
4, 203470, Note_on_c, 9, 53, 0
4, 203532, Note_on_c, 9, 59, 43
4, 203594, Note_on_c, 9, 36, 6
4, 203858, Note_on_c, 9, 36, 0
4, 203863, Note_on_c, 9, 59, 0
4, 204031, Note_on_c, 9, 59, 27
4, 204480, Note_on_c, 9, 44, 24
4, 204782, Note_on_c, 9, 44, 0
4, 205224, Note_on_c, 9, 59, 0
4, 205317, Note_on_c, 9, 59, 21
4, 205416, Note_on_c, 9, 59, 0
4, 205503, Note_on_c, 9, 59, 19
4, 206257, Note_on_c, 9, 53, 9
4, 206386, Note_on_c, 9, 53, 0
4, 206400, Note_on_c, 9, 46, 22
4, 206420, Note_on_c, 9, 59, 0
4, 206463, Note_on_c, 9, 53, 38
4, 206499, Note_on_c, 9, 59, 30
4, 207222, Note_on_c, 9, 53, 6
4, 207231, Note_on_c, 9, 53, 0
4, 207292, Note_on_c, 9, 46, 0
4, 207337, Note_on_c, 9, 53, 0
4, 207351, Note_on_c, 9, 59, 0
4, 207435, Note_on_c, 9, 36, 1
4, 207442, Note_on_c, 9, 59, 22
4, 207696, Note_on_c, 9, 36, 0
4, 207792, Note_on_c, 9, 36, 9
4, 207875, Note_on_c, 9, 36, 0
4, 208138, Note_on_c, 9, 59, 0
4, 208222, Note_on_c, 9, 59, 25
4, 208309, Note_on_c, 9, 59, 0
4, 208320, Note_on_c, 9, 44, 24
4, 208371, Note_on_c, 9, 59, 23
4, 208372, Note_on_c, 9, 36, 13
4, 208732, Note_on_c, 9, 36, 0
4, 208875, Note_on_c, 9, 44, 0
4, 209173, Note_on_c, 9, 59, 0
4, 209315, Note_on_c, 9, 59, 19
4, 210040, Note_on_c, 9, 59, 0
4, 210067, Note_on_c, 9, 53, 24
4, 210115, Note_on_c, 9, 59, 14
4, 210128, Note_on_c, 9, 53, 0
4, 210214, Note_on_c, 9, 59, 0
4, 210240, Note_on_c, 9, 44, 29
4, 210279, Note_on_c, 9, 59, 14
4, 210280, Note_on_c, 9, 53, 31
4, 210550, Note_on_c, 9, 53, 0
4, 210556, Note_on_c, 9, 59, 0
4, 210557, Note_on_c, 9, 53, 20
4, 210581, Note_on_c, 9, 36, 18
4, 210665, Note_on_c, 9, 53, 0
4, 210697, Note_on_c, 9, 44, 0
4, 210716, Note_on_c, 9, 36, 0
4, 211043, Note_on_c, 9, 59, 28
4, 211106, Note_on_c, 9, 59, 0
4, 211222, Note_on_c, 9, 59, 11
4, 211222, Note_on_c, 9, 36, 14
4, 211378, Note_on_c, 9, 36, 0
4, 211528, Note_on_c, 9, 59, 0
4, 211533, Note_on_c, 9, 53, 11
4, 211609, Note_on_c, 9, 53, 0
4, 212160, Note_on_c, 9, 44, 25
4, 212183, Note_on_c, 9, 59, 30
4, 212515, Note_on_c, 9, 44, 0
4, 212913, Note_on_c, 9, 59, 0
4, 213156, Note_on_c, 9, 59, 21
4, 213440, Note_on_c, 9, 53, 24
4, 213483, Note_on_c, 9, 53, 0
4, 213574, Note_on_c, 9, 53, 17
4, 213658, Note_on_c, 9, 53, 0
4, 213724, Note_on_c, 9, 53, 21
4, 213818, Note_on_c, 9, 53, 0
4, 213914, Note_on_c, 9, 59, 0
4, 214080, Note_on_c, 9, 44, 29
4, 214106, Note_on_c, 9, 53, 22
4, 214145, Note_on_c, 9, 59, 38
4, 214398, Note_on_c, 9, 53, 0
4, 214497, Note_on_c, 9, 44, 0
4, 214873, Note_on_c, 9, 59, 0
4, 214876, Note_on_c, 9, 53, 12
4, 214917, Note_on_c, 9, 53, 18
4, 214971, Note_on_c, 9, 53, 0
4, 215037, Note_on_c, 9, 53, 0
4, 215069, Note_on_c, 9, 36, 7
4, 215113, Note_on_c, 9, 59, 22
4, 215319, Note_on_c, 9, 36, 0
4, 215430, Note_on_c, 9, 36, 10
4, 215532, Note_on_c, 9, 36, 0
4, 215913, Note_on_c, 9, 59, 0
4, 216000, Note_on_c, 9, 46, 19
4, 216066, Note_on_c, 9, 59, 35
4, 216679, Note_on_c, 9, 46, 0
4, 216782, Note_on_c, 9, 59, 0
4, 216897, Note_on_c, 9, 59, 25
4, 216972, Note_on_c, 9, 59, 0
4, 217066, Note_on_c, 9, 53, 18
4, 217080, Note_on_c, 9, 59, 31
4, 217291, Note_on_c, 9, 53, 0
4, 217559, Note_on_c, 9, 53, 23
4, 217754, Note_on_c, 9, 59, 0
4, 217897, Note_on_c, 9, 59, 15
4, 217920, Note_on_c, 9, 44, 23
4, 217932, Note_on_c, 9, 53, 0
4, 217972, Note_on_c, 9, 59, 0
4, 218072, Note_on_c, 9, 59, 30
4, 218341, Note_on_c, 9, 44, 0
4, 218494, Note_on_c, 9, 53, 43
4, 218596, Note_on_c, 9, 53, 0
4, 218696, Note_on_c, 9, 59, 0
4, 218768, Note_on_c, 9, 53, 15
4, 218797, Note_on_c, 9, 59, 19
4, 218870, Note_on_c, 9, 53, 0
4, 218893, Note_on_c, 9, 59, 0
4, 218957, Note_on_c, 9, 53, 28
4, 218968, Note_on_c, 9, 36, 19
4, 218975, Note_on_c, 9, 49, 28
4, 218979, Note_on_c, 9, 59, 42
4, 219661, Note_on_c, 9, 59, 0
4, 219840, Note_on_c, 9, 44, 22
4, 219939, Note_on_c, 9, 59, 52
4, 220154, Note_on_c, 9, 44, 0
4, 220433, Note_on_c, 9, 36, 0
4, 220610, Note_on_c, 9, 59, 0
4, 220853, Note_on_c, 9, 59, 36
4, 220950, Note_on_c, 9, 49, 0
4, 221104, Note_on_c, 9, 53, 0
4, 221526, Note_on_c, 9, 59, 0
4, 221760, Note_on_c, 9, 46, 22
4, 221775, Note_on_c, 9, 59, 48
4, 222021, Note_on_c, 9, 59, 0
4, 222136, Note_on_c, 9, 59, 7
4, 222189, Note_on_c, 9, 59, 0
4, 222255, Note_on_c, 9, 59, 34
4, 222464, Note_on_c, 9, 46, 0
4, 222631, Note_on_c, 9, 59, 0
4, 222726, Note_on_c, 9, 59, 30
4, 223575, Note_on_c, 9, 59, 0
4, 223678, Note_on_c, 9, 59, 28
4, 223680, Note_on_c, 9, 44, 22
4, 224045, Note_on_c, 9, 44, 0
4, 224300, Note_on_c, 9, 59, 0
4, 224437, Note_on_c, 9, 59, 19
4, 224531, Note_on_c, 9, 59, 0
4, 224611, Note_on_c, 9, 59, 26
4, 225420, Note_on_c, 9, 59, 0
4, 225527, Note_on_c, 9, 59, 26
4, 225600, Note_on_c, 9, 44, 14
4, 226187, Note_on_c, 9, 44, 0
4, 226370, Note_on_c, 9, 59, 0
4, 226431, Note_on_c, 9, 59, 25
4, 227276, Note_on_c, 9, 59, 0
4, 227277, Note_on_c, 9, 53, 17
4, 227314, Note_on_c, 9, 59, 3
4, 227342, Note_on_c, 9, 53, 0
4, 227394, Note_on_c, 9, 59, 0
4, 227455, Note_on_c, 9, 53, 9
4, 227474, Note_on_c, 9, 59, 37
4, 227520, Note_on_c, 9, 44, 20
4, 227606, Note_on_c, 9, 53, 0
4, 227693, Note_on_c, 9, 44, 0
4, 227813, Note_on_c, 9, 36, 8
4, 227981, Note_on_c, 9, 36, 0
4, 228273, Note_on_c, 9, 59, 0
4, 228439, Note_on_c, 9, 36, 5
4, 228453, Note_on_c, 9, 59, 26
4, 228755, Note_on_c, 9, 36, 0
4, 228756, Note_on_c, 9, 59, 0
4, 228764, Note_on_c, 9, 53, 16
4, 228883, Note_on_c, 9, 53, 0
4, 228959, Note_on_c, 9, 59, 17
4, 229222, Note_on_c, 9, 59, 0
4, 229440, Note_on_c, 9, 46, 20
4, 229462, Note_on_c, 9, 59, 33
4, 230296, Note_on_c, 9, 59, 0
4, 230394, Note_on_c, 9, 46, 0
4, 230413, Note_on_c, 9, 59, 24
4, 230999, Note_on_c, 9, 53, 1
4, 231177, Note_on_c, 9, 53, 0
4, 231337, Note_on_c, 9, 59, 0
4, 231360, Note_on_c, 9, 44, 19
4, 231420, Note_on_c, 9, 53, 19
4, 231440, Note_on_c, 9, 59, 28
4, 231665, Note_on_c, 9, 44, 0
4, 231764, Note_on_c, 9, 53, 0
4, 231881, Note_on_c, 9, 36, 12
4, 232251, Note_on_c, 9, 59, 0
4, 232345, Note_on_c, 9, 36, 0
4, 232362, Note_on_c, 9, 59, 33
4, 232858, Note_on_c, 9, 53, 33
4, 233188, Note_on_c, 9, 59, 0
4, 233280, Note_on_c, 9, 44, 25
4, 233336, Note_on_c, 9, 59, 36
4, 233567, Note_on_c, 9, 53, 0
4, 233571, Note_on_c, 9, 36, 16
4, 233655, Note_on_c, 9, 44, 0
4, 233676, Note_on_c, 9, 36, 0
4, 233760, Note_on_c, 9, 36, 11
4, 233924, Note_on_c, 9, 36, 0
4, 234080, Note_on_c, 9, 59, 0
4, 234116, Note_on_c, 9, 53, 18
4, 234221, Note_on_c, 9, 53, 0
4, 234238, Note_on_c, 9, 36, 10
4, 234277, Note_on_c, 9, 59, 27
4, 234480, Note_on_c, 9, 36, 0
4, 235083, Note_on_c, 9, 59, 0
4, 235200, Note_on_c, 9, 44, 24
4, 235208, Note_on_c, 9, 59, 24
4, 235474, Note_on_c, 9, 44, 0
4, 235945, Note_on_c, 9, 59, 0
4, 236033, Note_on_c, 9, 59, 29
4, 236115, Note_on_c, 9, 59, 0
4, 236154, Note_on_c, 9, 53, 2
4, 236200, Note_on_c, 9, 59, 21
4, 236341, Note_on_c, 9, 53, 0
4, 236940, Note_on_c, 9, 53, 4
4, 237026, Note_on_c, 9, 59, 0
4, 237027, Note_on_c, 9, 53, 0
4, 237120, Note_on_c, 9, 46, 22
4, 237121, Note_on_c, 9, 53, 11
4, 237144, Note_on_c, 9, 59, 27
4, 237400, Note_on_c, 9, 53, 0
4, 237733, Note_on_c, 9, 46, 0
4, 237935, Note_on_c, 9, 59, 0
4, 237937, Note_on_c, 9, 53, 11
4, 237980, Note_on_c, 9, 53, 28
4, 238022, Note_on_c, 9, 53, 0
4, 238058, Note_on_c, 9, 53, 0
4, 238135, Note_on_c, 9, 53, 5
4, 238152, Note_on_c, 9, 59, 26
4, 238289, Note_on_c, 9, 53, 0
4, 238457, Note_on_c, 9, 36, 10
4, 238487, Note_on_c, 9, 59, 0
4, 238560, Note_on_c, 9, 36, 0
4, 238655, Note_on_c, 9, 59, 30
4, 238992, Note_on_c, 9, 59, 0
4, 239040, Note_on_c, 9, 44, 21
4, 239148, Note_on_c, 9, 53, 12
4, 239161, Note_on_c, 9, 59, 30
4, 239469, Note_on_c, 9, 53, 0
4, 239900, Note_on_c, 9, 59, 0
4, 239934, Note_on_c, 9, 53, 9
4, 239993, Note_on_c, 9, 53, 0
4, 240016, Note_on_c, 9, 44, 0
4, 240076, Note_on_c, 9, 59, 35
4, 240834, Note_on_c, 9, 53, 17
4, 240889, Note_on_c, 9, 53, 0
4, 240944, Note_on_c, 9, 59, 0
4, 240960, Note_on_c, 9, 44, 21
4, 240995, Note_on_c, 9, 53, 13
4, 241021, Note_on_c, 9, 59, 30
4, 241243, Note_on_c, 9, 53, 0
4, 241297, Note_on_c, 9, 36, 9
4, 241430, Note_on_c, 9, 36, 0
4, 241739, Note_on_c, 9, 59, 0
4, 241750, Note_on_c, 9, 53, 15
4, 241813, Note_on_c, 9, 53, 11
4, 241816, Note_on_c, 9, 53, 0
4, 241859, Note_on_c, 9, 53, 0
4, 241930, Note_on_c, 9, 59, 37
4, 241958, Note_on_c, 9, 53, 7
4, 242012, Note_on_c, 9, 44, 0
4, 242338, Note_on_c, 9, 53, 0
4, 242400, Note_on_c, 9, 44, 21
4, 242758, Note_on_c, 9, 59, 0
4, 242879, Note_on_c, 9, 59, 28
4, 243425, Note_on_c, 9, 59, 0
4, 243682, Note_on_c, 9, 53, 13
4, 243739, Note_on_c, 9, 53, 0
4, 243839, Note_on_c, 9, 53, 11
4, 243937, Note_on_c, 9, 44, 0
4, 244045, Note_on_c, 9, 53, 0
4, 244320, Note_on_c, 9, 46, 17
4, 244325, Note_on_c, 9, 53, 12
4, 245303, Note_on_c, 9, 53, 0
4, 245555, Note_on_c, 9, 53, 17
4, 245597, Note_on_c, 9, 46, 0
4, 245627, Note_on_c, 9, 53, 0
4, 245725, Note_on_c, 9, 53, 19
4, 245760, Note_on_c, 9, 44, 20
4, 245760, Note_on_c, 9, 44, 0
4, 246048, Note_on_c, 9, 53, 11
4, 246154, Note_on_c, 9, 53, 0
4, 246198, Note_on_c, 9, 53, 0
4, 246240, Note_on_c, 9, 44, 22
4, 246261, Note_on_c, 9, 59, 12
4, 246406, Note_on_c, 9, 44, 0
4, 246465, Note_on_c, 9, 59, 0
4, 246552, Note_on_c, 9, 53, 11
4, 246652, Note_on_c, 9, 53, 0
4, 246752, Note_on_c, 9, 59, 21
4, 247056, Note_on_c, 9, 59, 0
4, 247068, Note_on_c, 9, 53, 19
4, 247199, Note_on_c, 9, 53, 0
4, 247511, Note_on_c, 9, 36, 17
4, 247578, Note_on_c, 9, 36, 0
4, 247735, Note_on_c, 9, 59, 49
4, 247736, Note_on_c, 9, 36, 3
4, 247808, Note_on_c, 9, 36, 0
4, 248040, Note_on_c, 9, 53, 8
4, 248143, Note_on_c, 9, 59, 0
4, 248151, Note_on_c, 9, 53, 0
4, 248160, Note_on_c, 9, 46, 20
4, 248213, Note_on_c, 9, 53, 46
4, 248484, Note_on_c, 9, 53, 12
4, 248571, Note_on_c, 9, 53, 0
4, 248673, Note_on_c, 9, 53, 17
4, 248691, Note_on_c, 9, 53, 0
4, 248823, Note_on_c, 9, 53, 0
4, 248883, Note_on_c, 9, 46, 0
4, 248925, Note_on_c, 9, 53, 21
4, 248945, Note_on_c, 9, 36, 14
4, 248973, Note_on_c, 9, 53, 0
4, 249042, Note_on_c, 9, 36, 0
4, 249115, Note_on_c, 9, 59, 51
4, 249255, Note_on_c, 9, 59, 0
4, 249424, Note_on_c, 9, 39, 34
4, 249437, Note_on_c, 9, 36, 8
4, 249493, Note_on_c, 9, 36, 0
4, 249552, Note_on_c, 9, 39, 0
4, 249590, Note_on_c, 9, 49, 19
4, 249600, Note_on_c, 9, 36, 24
4, 249641, Note_on_c, 9, 49, 21
4, 249971, Note_on_c, 9, 49, 0
4, 250676, Note_on_c, 9, 59, 69
4, 251085, Note_on_c, 9, 59, 0
4, 251244, Note_on_c, 9, 49, 0
4, 251310, Note_on_c, 9, 59, 69
4, 251447, Note_on_c, 9, 44, 29
4, 252240, Note_on_c, 9, 59, 0
4, 252444, Note_on_c, 9, 44, 0
4, 252482, Note_on_c, 9, 59, 57
4, 252776, Note_on_c, 9, 36, 0
4, 253017, Note_on_c, 9, 59, 0
4, 253152, Note_on_c, 9, 59, 55
4, 253263, Note_on_c, 9, 59, 0
4, 253434, Note_on_c, 9, 59, 49
4, 254123, Note_on_c, 9, 59, 0
4, 254311, Note_on_c, 9, 59, 57
4, 255160, Note_on_c, 9, 59, 0
4, 255338, Note_on_c, 9, 59, 57
4, 255366, Note_on_c, 9, 44, 20
4, 256053, Note_on_c, 9, 59, 0
4, 256238, Note_on_c, 9, 44, 0
4, 256316, Note_on_c, 9, 59, 55
4, 256839, Note_on_c, 9, 39, 19
4, 256909, Note_on_c, 9, 59, 0
4, 256978, Note_on_c, 9, 53, 23
4, 257067, Note_on_c, 9, 39, 0
4, 257153, Note_on_c, 9, 53, 0
4, 257266, Note_on_c, 9, 59, 51
4, 258021, Note_on_c, 9, 59, 0
4, 258196, Note_on_c, 9, 59, 75
4, 258912, Note_on_c, 9, 59, 0
4, 259149, Note_on_c, 9, 46, 17
4, 259198, Note_on_c, 9, 59, 63
4, 259893, Note_on_c, 9, 59, 0
4, 260145, Note_on_c, 9, 59, 63
4, 260584, Note_on_c, 9, 59, 0
4, 260803, Note_on_c, 9, 59, 55
4, 260964, Note_on_c, 9, 59, 0
4, 261081, Note_on_c, 9, 59, 41
4, 261155, Note_on_c, 9, 46, 0
4, 261807, Note_on_c, 9, 59, 0
4, 262041, Note_on_c, 9, 59, 69
4, 262707, Note_on_c, 9, 59, 0
4, 263042, Note_on_c, 9, 44, 24
4, 263064, Note_on_c, 9, 59, 55
4, 263727, Note_on_c, 9, 59, 0
4, 264030, Note_on_c, 9, 59, 49
4, 264495, Note_on_c, 9, 59, 0
4, 264681, Note_on_c, 9, 59, 49
4, 264800, Note_on_c, 9, 59, 0
4, 264908, Note_on_c, 9, 59, 33
4, 265114, Note_on_c, 9, 44, 0
4, 265697, Note_on_c, 9, 59, 0
4, 265877, Note_on_c, 9, 59, 67
4, 266693, Note_on_c, 9, 59, 0
4, 266842, Note_on_c, 9, 44, 18
4, 266887, Note_on_c, 9, 59, 63
4, 267483, Note_on_c, 9, 39, 27
4, 267528, Note_on_c, 9, 59, 0
4, 267559, Note_on_c, 9, 53, 31
4, 267751, Note_on_c, 9, 53, 0
4, 267771, Note_on_c, 9, 39, 0
4, 267889, Note_on_c, 9, 59, 73
4, 267958, Note_on_c, 9, 44, 0
4, 268444, Note_on_c, 9, 59, 0
4, 268524, Note_on_c, 9, 36, 11
4, 268583, Note_on_c, 9, 59, 95
4, 268665, Note_on_c, 9, 59, 0
4, 268710, Note_on_c, 9, 36, 0
4, 268849, Note_on_c, 9, 59, 63
4, 268881, Note_on_c, 9, 36, 5
4, 269231, Note_on_c, 9, 36, 0
4, 269446, Note_on_c, 9, 36, 25
4, 269533, Note_on_c, 9, 59, 0
4, 269663, Note_on_c, 9, 36, 0
4, 269738, Note_on_c, 9, 59, 63
4, 269749, Note_on_c, 9, 46, 23
4, 270520, Note_on_c, 9, 59, 0
4, 270605, Note_on_c, 9, 46, 0
4, 270737, Note_on_c, 9, 59, 63
4, 271445, Note_on_c, 9, 59, 0
4, 271716, Note_on_c, 9, 59, 57
4, 272378, Note_on_c, 9, 59, 0
4, 272383, Note_on_c, 9, 39, 13
4, 272409, Note_on_c, 9, 53, 25
4, 272573, Note_on_c, 9, 39, 0
4, 272620, Note_on_c, 9, 53, 0
4, 272676, Note_on_c, 9, 59, 45
4, 273281, Note_on_c, 9, 59, 0
4, 273312, Note_on_c, 9, 53, 19
4, 273417, Note_on_c, 9, 53, 0
4, 273585, Note_on_c, 9, 44, 23
4, 273642, Note_on_c, 9, 59, 51
4, 274215, Note_on_c, 9, 39, 10
4, 274308, Note_on_c, 9, 59, 0
4, 274330, Note_on_c, 9, 39, 0
4, 274470, Note_on_c, 9, 44, 0
4, 274594, Note_on_c, 9, 59, 49
4, 275316, Note_on_c, 9, 59, 0
4, 275562, Note_on_c, 9, 59, 51
4, 276110, Note_on_c, 9, 47, 34
4, 276117, Note_on_c, 9, 59, 0
4, 276215, Note_on_c, 9, 47, 0
4, 276284, Note_on_c, 9, 59, 33
4, 276389, Note_on_c, 9, 59, 0
4, 276545, Note_on_c, 9, 59, 55
4, 277156, Note_on_c, 9, 45, 41
4, 277256, Note_on_c, 9, 45, 0
4, 277315, Note_on_c, 9, 59, 0
4, 277523, Note_on_c, 9, 46, 31
4, 277528, Note_on_c, 9, 59, 39
4, 278229, Note_on_c, 9, 59, 0
4, 278472, Note_on_c, 9, 59, 57
4, 279145, Note_on_c, 9, 43, 21
4, 279260, Note_on_c, 9, 59, 0
4, 279278, Note_on_c, 9, 43, 0
4, 279440, Note_on_c, 9, 59, 73
4, 279575, Note_on_c, 9, 46, 0
4, 280014, Note_on_c, 9, 59, 0
4, 280090, Note_on_c, 9, 39, 32
4, 280197, Note_on_c, 9, 39, 0
4, 280197, Note_on_c, 9, 59, 57
4, 280293, Note_on_c, 9, 59, 0
4, 280435, Note_on_c, 9, 59, 91
4, 280445, Note_on_c, 9, 49, 19
4, 280468, Note_on_c, 9, 36, 21
4, 281218, Note_on_c, 9, 59, 0
4, 281290, Note_on_c, 9, 44, 24
4, 281414, Note_on_c, 9, 59, 67
4, 281984, Note_on_c, 9, 59, 0
4, 282085, Note_on_c, 9, 44, 0
4, 282344, Note_on_c, 9, 49, 0
4, 282345, Note_on_c, 9, 59, 75
4, 283096, Note_on_c, 9, 59, 0
4, 283216, Note_on_c, 9, 44, 19
4, 283255, Note_on_c, 9, 59, 89
4, 283573, Note_on_c, 9, 36, 0
4, 283800, Note_on_c, 9, 44, 0
4, 283979, Note_on_c, 9, 59, 0
4, 284192, Note_on_c, 9, 59, 69
4, 284926, Note_on_c, 9, 59, 0
4, 285177, Note_on_c, 9, 59, 69
4, 285888, Note_on_c, 9, 59, 0
4, 286131, Note_on_c, 9, 59, 63
4, 286753, Note_on_c, 9, 59, 0
4, 286817, Note_on_c, 9, 53, 23
4, 287013, Note_on_c, 9, 53, 0
4, 287095, Note_on_c, 9, 59, 51
4, 287562, Note_on_c, 9, 59, 0
4, 287725, Note_on_c, 9, 59, 69
4, 287917, Note_on_c, 9, 59, 0
4, 288067, Note_on_c, 9, 59, 67
4, 288746, Note_on_c, 9, 59, 0
4, 288973, Note_on_c, 9, 59, 75
4, 289497, Note_on_c, 9, 59, 0
4, 289685, Note_on_c, 9, 59, 49
4, 289795, Note_on_c, 9, 59, 0
4, 289909, Note_on_c, 9, 39, 20
4, 289920, Note_on_c, 9, 59, 49
4, 289947, Note_on_c, 9, 44, 21
4, 290178, Note_on_c, 9, 39, 0
4, 290256, Note_on_c, 9, 39, 14
4, 290351, Note_on_c, 9, 39, 0
4, 290672, Note_on_c, 9, 59, 0
4, 290719, Note_on_c, 9, 44, 0
4, 290910, Note_on_c, 9, 59, 69
4, 291609, Note_on_c, 9, 59, 0
4, 291849, Note_on_c, 9, 59, 63
4, 291904, Note_on_c, 9, 36, 21
4, 292455, Note_on_c, 9, 36, 0
4, 292527, Note_on_c, 9, 59, 0
4, 292796, Note_on_c, 9, 59, 97
4, 293310, Note_on_c, 9, 59, 0
4, 293489, Note_on_c, 9, 59, 39
4, 293602, Note_on_c, 9, 59, 0
4, 293712, Note_on_c, 9, 46, 20
4, 293763, Note_on_c, 9, 59, 69
4, 294499, Note_on_c, 9, 59, 0
4, 294706, Note_on_c, 9, 59, 85
4, 295249, Note_on_c, 9, 59, 0
4, 295418, Note_on_c, 9, 59, 57
4, 295492, Note_on_c, 9, 46, 0
4, 295518, Note_on_c, 9, 59, 0
4, 295678, Note_on_c, 9, 59, 83
4, 296449, Note_on_c, 9, 59, 0
4, 296614, Note_on_c, 9, 39, 18
4, 296630, Note_on_c, 9, 59, 63
4, 296692, Note_on_c, 9, 44, 29
4, 297113, Note_on_c, 9, 39, 0
4, 297240, Note_on_c, 9, 39, 16
4, 297336, Note_on_c, 9, 59, 0
4, 297460, Note_on_c, 9, 39, 0
4, 297619, Note_on_c, 9, 59, 63
4, 298312, Note_on_c, 9, 59, 0
4, 298579, Note_on_c, 9, 59, 69
4, 298645, Note_on_c, 9, 36, 9
4, 298990, Note_on_c, 9, 36, 0
4, 299056, Note_on_c, 9, 44, 0
4, 299064, Note_on_c, 9, 59, 0
4, 299259, Note_on_c, 9, 36, 13
4, 299270, Note_on_c, 9, 59, 39
4, 299379, Note_on_c, 9, 59, 0
4, 299503, Note_on_c, 9, 36, 0
4, 299533, Note_on_c, 9, 59, 51
4, 300238, Note_on_c, 9, 59, 0
4, 300333, Note_on_c, 9, 44, 29
4, 300480, Note_on_c, 9, 59, 69
4, 300933, Note_on_c, 9, 59, 0
4, 301146, Note_on_c, 9, 59, 39
4, 301170, Note_on_c, 9, 44, 0
4, 301294, Note_on_c, 9, 59, 0
4, 301430, Note_on_c, 9, 59, 49
4, 302173, Note_on_c, 9, 59, 0
4, 302413, Note_on_c, 9, 59, 75
4, 303015, Note_on_c, 9, 39, 22
4, 303052, Note_on_c, 9, 59, 0
4, 303056, Note_on_c, 9, 53, 23
4, 303237, Note_on_c, 9, 53, 0
4, 303303, Note_on_c, 9, 39, 0
4, 303409, Note_on_c, 9, 59, 51
4, 303841, Note_on_c, 9, 59, 0
4, 303978, Note_on_c, 9, 53, 22
4, 303986, Note_on_c, 9, 36, 21
4, 304162, Note_on_c, 9, 53, 0
4, 304221, Note_on_c, 9, 36, 0
4, 304280, Note_on_c, 9, 46, 34
4, 304362, Note_on_c, 9, 59, 57
4, 304380, Note_on_c, 9, 36, 1
4, 304735, Note_on_c, 9, 36, 0
4, 304836, Note_on_c, 9, 59, 0
4, 304997, Note_on_c, 9, 59, 75
4, 305162, Note_on_c, 9, 59, 0
4, 305326, Note_on_c, 9, 59, 75
4, 305945, Note_on_c, 9, 39, 22
4, 306067, Note_on_c, 9, 59, 0
4, 306258, Note_on_c, 9, 39, 0
4, 306270, Note_on_c, 9, 59, 75
4, 306877, Note_on_c, 9, 59, 0
4, 306912, Note_on_c, 9, 46, 0
4, 306918, Note_on_c, 9, 39, 46
4, 307207, Note_on_c, 9, 59, 75
4, 307250, Note_on_c, 9, 39, 0
4, 307855, Note_on_c, 9, 39, 45
4, 308025, Note_on_c, 9, 59, 0
4, 308124, Note_on_c, 9, 44, 25
4, 308150, Note_on_c, 9, 59, 111
4, 308157, Note_on_c, 9, 39, 0
4, 308877, Note_on_c, 9, 39, 62
4, 309215, Note_on_c, 9, 39, 0
4, 309280, Note_on_c, 9, 44, 0
4, 309559, Note_on_c, 9, 59, 0
4, 309757, Note_on_c, 9, 59, 79
4, 309798, Note_on_c, 9, 39, 61
4, 309959, Note_on_c, 9, 59, 0
4, 310110, Note_on_c, 9, 59, 75
4, 310255, Note_on_c, 9, 39, 0
4, 310305, Note_on_c, 9, 36, 22
4, 310391, Note_on_c, 9, 36, 0
4, 310710, Note_on_c, 9, 36, 61
4, 310790, Note_on_c, 9, 59, 0
4, 310900, Note_on_c, 9, 36, 0
4, 311020, Note_on_c, 9, 59, 79
4, 311050, Note_on_c, 9, 49, 19
4, 311056, Note_on_c, 9, 36, 40
4, 311625, Note_on_c, 9, 59, 0
4, 311740, Note_on_c, 9, 59, 69
4, 311819, Note_on_c, 9, 59, 0
4, 311937, Note_on_c, 9, 44, 24
4, 312011, Note_on_c, 9, 59, 67
4, 312258, Note_on_c, 9, 44, 0
4, 312831, Note_on_c, 9, 59, 0
4, 312981, Note_on_c, 9, 59, 83
4, 313726, Note_on_c, 9, 59, 0
4, 313834, Note_on_c, 9, 46, 23
4, 313914, Note_on_c, 9, 59, 73
4, 314419, Note_on_c, 9, 59, 0
4, 314870, Note_on_c, 9, 59, 83
4, 314940, Note_on_c, 9, 46, 0
4, 315609, Note_on_c, 9, 59, 0
4, 315820, Note_on_c, 9, 59, 75
4, 315833, Note_on_c, 9, 44, 13
4, 315887, Note_on_c, 9, 49, 0
4, 316373, Note_on_c, 9, 59, 0
4, 316439, Note_on_c, 9, 44, 0
4, 316542, Note_on_c, 9, 59, 69
4, 316648, Note_on_c, 9, 59, 0
4, 316830, Note_on_c, 9, 59, 67
4, 317479, Note_on_c, 9, 59, 0
4, 317483, Note_on_c, 9, 53, 33
4, 317679, Note_on_c, 9, 53, 0
4, 317743, Note_on_c, 9, 44, 15
4, 317827, Note_on_c, 9, 59, 49
4, 318058, Note_on_c, 9, 36, 0
4, 318228, Note_on_c, 9, 59, 0
4, 318244, Note_on_c, 9, 44, 0
4, 318401, Note_on_c, 9, 59, 83
4, 318579, Note_on_c, 9, 59, 0
4, 318716, Note_on_c, 9, 59, 79
4, 319549, Note_on_c, 9, 59, 0
4, 319697, Note_on_c, 9, 59, 97
4, 320240, Note_on_c, 9, 59, 0
4, 320426, Note_on_c, 9, 59, 51
4, 320528, Note_on_c, 9, 59, 0
4, 320659, Note_on_c, 9, 59, 63
4, 320663, Note_on_c, 9, 44, 19
4, 321383, Note_on_c, 9, 59, 0
4, 321590, Note_on_c, 9, 59, 79
4, 322341, Note_on_c, 9, 59, 0
4, 322565, Note_on_c, 9, 59, 63
4, 323143, Note_on_c, 9, 59, 0
4, 323341, Note_on_c, 9, 59, 33
4, 323406, Note_on_c, 9, 59, 0
4, 323537, Note_on_c, 9, 59, 89
4, 323916, Note_on_c, 9, 44, 0
4, 324301, Note_on_c, 9, 59, 0
4, 324446, Note_on_c, 9, 44, 33
4, 324483, Note_on_c, 9, 59, 75
4, 324791, Note_on_c, 9, 39, 12
4, 324886, Note_on_c, 9, 39, 0
4, 325061, Note_on_c, 9, 59, 0
4, 325083, Note_on_c, 9, 39, 14
4, 325199, Note_on_c, 9, 39, 0
4, 325213, Note_on_c, 9, 59, 39
4, 325292, Note_on_c, 9, 59, 0
4, 325432, Note_on_c, 9, 59, 83
4, 326126, Note_on_c, 9, 39, 21
4, 326198, Note_on_c, 9, 59, 0
4, 326276, Note_on_c, 9, 39, 0
4, 326390, Note_on_c, 9, 59, 75
4, 326471, Note_on_c, 9, 44, 0
4, 327005, Note_on_c, 9, 39, 25
4, 327077, Note_on_c, 9, 59, 0
4, 327168, Note_on_c, 9, 39, 0
4, 327336, Note_on_c, 9, 59, 95
4, 327412, Note_on_c, 9, 39, 10
4, 327568, Note_on_c, 9, 39, 0
4, 327807, Note_on_c, 9, 59, 0
4, 328000, Note_on_c, 9, 36, 23
4, 328041, Note_on_c, 9, 59, 61
4, 328132, Note_on_c, 9, 36, 0
4, 328189, Note_on_c, 9, 59, 0
4, 328334, Note_on_c, 9, 44, 33
4, 328335, Note_on_c, 9, 59, 83
4, 328977, Note_on_c, 9, 36, 2
4, 329087, Note_on_c, 9, 36, 0
4, 329109, Note_on_c, 9, 59, 0
4, 329280, Note_on_c, 9, 59, 89
4, 329821, Note_on_c, 9, 59, 0
4, 329975, Note_on_c, 9, 59, 75
4, 330109, Note_on_c, 9, 59, 0
4, 330257, Note_on_c, 9, 59, 91
4, 330452, Note_on_c, 9, 44, 0
4, 331000, Note_on_c, 9, 59, 0
4, 331224, Note_on_c, 9, 59, 89
4, 331878, Note_on_c, 9, 39, 23
4, 331969, Note_on_c, 9, 59, 0
4, 332141, Note_on_c, 9, 44, 29
4, 332202, Note_on_c, 9, 59, 83
4, 332660, Note_on_c, 9, 39, 0
4, 332718, Note_on_c, 9, 59, 0
4, 332792, Note_on_c, 9, 36, 17
4, 332880, Note_on_c, 9, 59, 63
4, 332999, Note_on_c, 9, 36, 0
4, 333020, Note_on_c, 9, 59, 0
4, 333176, Note_on_c, 9, 36, 32
4, 333179, Note_on_c, 9, 59, 95
4, 333579, Note_on_c, 9, 36, 0
4, 333789, Note_on_c, 9, 36, 27
4, 333907, Note_on_c, 9, 59, 0
4, 334036, Note_on_c, 9, 36, 0
4, 334105, Note_on_c, 9, 44, 0
4, 334168, Note_on_c, 9, 59, 91
4, 334911, Note_on_c, 9, 59, 0
4, 335157, Note_on_c, 9, 59, 79
4, 335836, Note_on_c, 9, 59, 0
4, 335989, Note_on_c, 9, 44, 26
4, 336113, Note_on_c, 9, 59, 79
4, 336610, Note_on_c, 9, 59, 0
4, 336798, Note_on_c, 9, 59, 49
4, 336933, Note_on_c, 9, 59, 0
4, 337063, Note_on_c, 9, 59, 63
4, 337120, Note_on_c, 9, 44, 0
4, 337638, Note_on_c, 9, 39, 31
4, 337756, Note_on_c, 9, 59, 0
4, 337832, Note_on_c, 9, 39, 0
4, 338002, Note_on_c, 9, 59, 91
4, 338583, Note_on_c, 9, 39, 29
4, 338651, Note_on_c, 9, 59, 0
4, 338731, Note_on_c, 9, 39, 0
4, 338912, Note_on_c, 9, 59, 97
4, 339375, Note_on_c, 9, 59, 0
4, 339561, Note_on_c, 9, 59, 61
4, 339564, Note_on_c, 9, 36, 24
4, 339648, Note_on_c, 9, 36, 0
4, 339732, Note_on_c, 9, 59, 0
4, 339829, Note_on_c, 9, 46, 29
4, 339866, Note_on_c, 9, 59, 75
4, 339917, Note_on_c, 9, 39, 20
4, 340057, Note_on_c, 9, 39, 0
4, 340586, Note_on_c, 9, 59, 0
4, 340591, Note_on_c, 9, 45, 67
4, 340848, Note_on_c, 9, 59, 95
4, 341275, Note_on_c, 9, 43, 34
4, 341332, Note_on_c, 9, 45, 0
4, 341407, Note_on_c, 9, 43, 0
4, 341491, Note_on_c, 9, 59, 0
4, 341502, Note_on_c, 9, 53, 35
4, 341580, Note_on_c, 9, 36, 38
4, 341661, Note_on_c, 9, 36, 0
4, 341707, Note_on_c, 9, 46, 0
4, 341735, Note_on_c, 9, 53, 0
4, 341821, Note_on_c, 9, 59, 55
4, 341897, Note_on_c, 9, 36, 57
4, 342332, Note_on_c, 9, 59, 0
4, 342433, Note_on_c, 9, 53, 31
4, 342467, Note_on_c, 9, 36, 0
4, 342681, Note_on_c, 9, 53, 0
4, 342789, Note_on_c, 9, 59, 39
4, 343230, Note_on_c, 9, 59, 0
4, 343368, Note_on_c, 9, 59, 61
4, 343539, Note_on_c, 9, 59, 0
4, 343629, Note_on_c, 9, 44, 26
4, 343697, Note_on_c, 9, 59, 57
4, 344438, Note_on_c, 9, 59, 0
4, 344643, Note_on_c, 9, 59, 75
4, 345166, Note_on_c, 9, 59, 0
4, 345336, Note_on_c, 9, 59, 51
4, 345450, Note_on_c, 9, 59, 0
4, 345574, Note_on_c, 9, 44, 0
4, 345607, Note_on_c, 9, 59, 75
4, 346285, Note_on_c, 9, 59, 0
4, 346535, Note_on_c, 9, 59, 91
4, 347047, Note_on_c, 9, 59, 0
4, 347249, Note_on_c, 9, 59, 29
4, 347416, Note_on_c, 9, 59, 0
4, 347480, Note_on_c, 9, 44, 24
4, 347529, Note_on_c, 9, 59, 49
4, 348215, Note_on_c, 9, 59, 0
4, 348443, Note_on_c, 9, 59, 95
4, 348940, Note_on_c, 9, 59, 0
4, 349095, Note_on_c, 9, 39, 18
4, 349132, Note_on_c, 9, 59, 55
4, 349172, Note_on_c, 9, 39, 0
4, 349290, Note_on_c, 9, 59, 0
4, 349443, Note_on_c, 9, 59, 85
4, 349602, Note_on_c, 9, 44, 0
4, 350024, Note_on_c, 9, 39, 32
4, 350031, Note_on_c, 9, 59, 0
4, 350151, Note_on_c, 9, 39, 0
4, 350375, Note_on_c, 9, 59, 114
4, 351085, Note_on_c, 9, 59, 0
4, 351312, Note_on_c, 9, 44, 24
4, 351358, Note_on_c, 9, 59, 57
4, 351385, Note_on_c, 9, 39, 22
4, 351448, Note_on_c, 9, 59, 0
4, 351819, Note_on_c, 9, 39, 0
4, 352001, Note_on_c, 9, 59, 69
4, 352091, Note_on_c, 9, 59, 0
4, 352323, Note_on_c, 9, 59, 63
4, 352839, Note_on_c, 9, 39, 32
4, 352948, Note_on_c, 9, 39, 0
4, 353057, Note_on_c, 9, 59, 0
4, 353136, Note_on_c, 9, 44, 0
4, 353218, Note_on_c, 9, 59, 79
4, 353698, Note_on_c, 9, 59, 0
4, 353816, Note_on_c, 9, 39, 42
4, 353871, Note_on_c, 9, 59, 63
4, 353967, Note_on_c, 9, 59, 0
4, 354018, Note_on_c, 9, 39, 0
4, 354787, Note_on_c, 9, 59, 89
4, 354861, Note_on_c, 9, 36, 13
4, 354902, Note_on_c, 9, 59, 0
4, 354943, Note_on_c, 9, 36, 0
4, 355130, Note_on_c, 9, 59, 49
4, 355683, Note_on_c, 9, 59, 0
4, 355811, Note_on_c, 9, 36, 19
4, 355831, Note_on_c, 9, 59, 41
4, 355925, Note_on_c, 9, 59, 0
4, 355936, Note_on_c, 9, 36, 0
4, 356093, Note_on_c, 9, 44, 20
4, 356094, Note_on_c, 9, 59, 49
4, 356721, Note_on_c, 9, 44, 0
4, 356830, Note_on_c, 9, 59, 0
4, 357050, Note_on_c, 9, 59, 75
4, 357776, Note_on_c, 9, 59, 0
4, 357987, Note_on_c, 9, 59, 73
4, 358032, Note_on_c, 9, 44, 20
4, 358560, Note_on_c, 9, 59, 0
4, 358736, Note_on_c, 9, 59, 39
4, 358752, Note_on_c, 9, 44, 0
4, 358842, Note_on_c, 9, 59, 0
4, 358961, Note_on_c, 9, 59, 45
4, 359733, Note_on_c, 9, 59, 0
4, 359921, Note_on_c, 9, 59, 55
4, 359931, Note_on_c, 9, 46, 22
4, 360489, Note_on_c, 9, 59, 0
4, 360892, Note_on_c, 9, 59, 57
4, 361001, Note_on_c, 9, 46, 0
4, 361651, Note_on_c, 9, 59, 0
4, 361834, Note_on_c, 9, 44, 26
4, 361872, Note_on_c, 9, 59, 61
4, 362432, Note_on_c, 9, 59, 0
4, 362533, Note_on_c, 9, 39, 21
4, 362590, Note_on_c, 9, 59, 51
4, 362677, Note_on_c, 9, 39, 0
4, 362703, Note_on_c, 9, 59, 0
4, 362825, Note_on_c, 9, 44, 0
4, 362826, Note_on_c, 9, 59, 67
4, 362875, Note_on_c, 9, 39, 21
4, 363443, Note_on_c, 9, 39, 0
4, 363531, Note_on_c, 9, 36, 27
4, 363596, Note_on_c, 9, 59, 0
4, 363712, Note_on_c, 9, 36, 0
4, 363822, Note_on_c, 9, 59, 67
4, 364325, Note_on_c, 9, 59, 0
4, 364502, Note_on_c, 9, 59, 57
4, 364611, Note_on_c, 9, 59, 0
4, 364759, Note_on_c, 9, 59, 83
4, 364852, Note_on_c, 9, 36, 15
4, 365188, Note_on_c, 9, 36, 0
4, 365500, Note_on_c, 9, 59, 0
4, 365730, Note_on_c, 9, 44, 20
4, 365742, Note_on_c, 9, 59, 83
4, 366236, Note_on_c, 9, 59, 0
4, 366422, Note_on_c, 9, 59, 51
4, 366519, Note_on_c, 9, 44, 0
4, 366595, Note_on_c, 9, 59, 0
4, 366710, Note_on_c, 9, 59, 51
4, 367357, Note_on_c, 9, 59, 0
4, 367370, Note_on_c, 9, 53, 33
4, 367408, Note_on_c, 9, 45, 51
4, 367559, Note_on_c, 9, 45, 0
4, 367572, Note_on_c, 9, 53, 0
4, 367664, Note_on_c, 9, 59, 57
4, 367671, Note_on_c, 9, 44, 18
4, 368136, Note_on_c, 9, 44, 0
4, 368158, Note_on_c, 9, 59, 0
4, 368315, Note_on_c, 9, 53, 32
4, 368513, Note_on_c, 9, 53, 0
4, 368624, Note_on_c, 9, 59, 57
4, 369079, Note_on_c, 9, 59, 0
4, 369290, Note_on_c, 9, 59, 51
4, 369341, Note_on_c, 9, 36, 14
4, 369414, Note_on_c, 9, 36, 0
4, 369448, Note_on_c, 9, 59, 0
4, 369586, Note_on_c, 9, 59, 69
4, 369616, Note_on_c, 9, 46, 35
4, 369631, Note_on_c, 9, 43, 34
4, 370121, Note_on_c, 9, 43, 0
4, 370245, Note_on_c, 9, 59, 0
4, 370253, Note_on_c, 9, 43, 33
4, 370470, Note_on_c, 9, 43, 0
4, 370523, Note_on_c, 9, 59, 73
4, 370883, Note_on_c, 9, 46, 0
4, 371128, Note_on_c, 9, 59, 0
4, 371178, Note_on_c, 9, 53, 25
4, 371215, Note_on_c, 9, 39, 57
4, 371343, Note_on_c, 9, 53, 0
4, 371407, Note_on_c, 9, 39, 0
4, 371485, Note_on_c, 9, 59, 57
4, 371536, Note_on_c, 9, 44, 29
4, 372086, Note_on_c, 9, 59, 0
4, 372144, Note_on_c, 9, 53, 29
4, 372175, Note_on_c, 9, 44, 0
4, 372196, Note_on_c, 9, 39, 25
4, 372294, Note_on_c, 9, 39, 0
4, 372309, Note_on_c, 9, 53, 0
4, 372470, Note_on_c, 9, 59, 61
4, 372534, Note_on_c, 9, 59, 114
4, 372550, Note_on_c, 9, 36, 33
4, 372967, Note_on_c, 9, 59, 0
4, 373165, Note_on_c, 9, 59, 55
4, 373334, Note_on_c, 9, 59, 0
4, 373490, Note_on_c, 9, 44, 21
4, 373503, Note_on_c, 9, 59, 57
4, 374055, Note_on_c, 9, 44, 0
4, 374065, Note_on_c, 9, 59, 0
4, 374135, Note_on_c, 9, 59, 0
4, 374398, Note_on_c, 9, 59, 79
4, 374489, Note_on_c, 9, 36, 0
4, 375104, Note_on_c, 9, 59, 0
4, 375331, Note_on_c, 9, 59, 63
4, 375366, Note_on_c, 9, 44, 23
4, 375820, Note_on_c, 9, 59, 0
4, 375896, Note_on_c, 9, 44, 0
4, 376022, Note_on_c, 9, 59, 51
4, 376149, Note_on_c, 9, 59, 0
4, 376293, Note_on_c, 9, 59, 67
4, 376823, Note_on_c, 9, 39, 26
4, 376967, Note_on_c, 9, 59, 0
4, 377039, Note_on_c, 9, 39, 0
4, 377110, Note_on_c, 9, 39, 12
4, 377204, Note_on_c, 9, 39, 0
4, 377233, Note_on_c, 9, 59, 83
4, 377478, Note_on_c, 9, 39, 33
4, 377733, Note_on_c, 9, 59, 0
4, 377921, Note_on_c, 9, 59, 51
4, 377952, Note_on_c, 9, 39, 0
4, 378099, Note_on_c, 9, 59, 0
4, 378194, Note_on_c, 9, 39, 36
4, 378218, Note_on_c, 9, 59, 61
4, 378329, Note_on_c, 9, 39, 0
4, 378521, Note_on_c, 9, 39, 13
4, 378732, Note_on_c, 9, 39, 0
4, 378924, Note_on_c, 9, 39, 48
4, 378975, Note_on_c, 9, 59, 0
4, 379106, Note_on_c, 9, 39, 0
4, 379184, Note_on_c, 9, 59, 73
4, 379569, Note_on_c, 9, 39, 36
4, 379651, Note_on_c, 9, 59, 0
4, 379748, Note_on_c, 9, 39, 0
4, 379815, Note_on_c, 9, 39, 34
4, 379824, Note_on_c, 9, 59, 55
4, 379932, Note_on_c, 9, 39, 0
4, 379964, Note_on_c, 9, 59, 0
4, 380131, Note_on_c, 9, 59, 69
4, 380210, Note_on_c, 9, 36, 19
4, 380663, Note_on_c, 9, 36, 0
4, 380837, Note_on_c, 9, 59, 0
4, 380996, Note_on_c, 9, 44, 31
4, 381021, Note_on_c, 9, 39, 38
4, 381052, Note_on_c, 9, 59, 69
4, 381230, Note_on_c, 9, 39, 0
4, 381312, Note_on_c, 9, 39, 23
4, 381416, Note_on_c, 9, 39, 0
4, 381552, Note_on_c, 9, 59, 0
4, 381685, Note_on_c, 9, 36, 38
4, 381710, Note_on_c, 9, 44, 0
4, 381736, Note_on_c, 9, 59, 57
4, 381859, Note_on_c, 9, 59, 0
4, 381879, Note_on_c, 9, 36, 0
4, 382049, Note_on_c, 9, 59, 69
4, 382413, Note_on_c, 9, 39, 33
4, 382630, Note_on_c, 9, 39, 0
4, 382640, Note_on_c, 9, 59, 0
4, 382689, Note_on_c, 9, 39, 16
4, 382692, Note_on_c, 9, 53, 19
4, 382797, Note_on_c, 9, 39, 0
4, 382851, Note_on_c, 9, 53, 0
4, 382958, Note_on_c, 9, 44, 31
4, 383018, Note_on_c, 9, 59, 49
4, 383090, Note_on_c, 9, 36, 33
4, 383465, Note_on_c, 9, 44, 0
4, 383585, Note_on_c, 9, 59, 0
4, 383631, Note_on_c, 9, 53, 24
4, 383726, Note_on_c, 9, 36, 0
4, 383800, Note_on_c, 9, 53, 0
4, 383953, Note_on_c, 9, 59, 57
4, 384385, Note_on_c, 9, 59, 0
4, 384585, Note_on_c, 9, 59, 55
4, 384754, Note_on_c, 9, 59, 0
4, 384884, Note_on_c, 9, 44, 24
4, 384896, Note_on_c, 9, 59, 55
4, 385498, Note_on_c, 9, 39, 23
4, 385610, Note_on_c, 9, 59, 0
4, 385617, Note_on_c, 9, 44, 0
4, 385629, Note_on_c, 9, 39, 0
4, 385835, Note_on_c, 9, 59, 83
4, 385855, Note_on_c, 9, 45, 27
4, 386266, Note_on_c, 9, 45, 0
4, 386611, Note_on_c, 9, 59, 0
4, 386803, Note_on_c, 9, 59, 79
4, 386852, Note_on_c, 9, 46, 32
4, 387327, Note_on_c, 9, 59, 0
4, 387509, Note_on_c, 9, 59, 51
4, 387535, Note_on_c, 9, 36, 23
4, 387579, Note_on_c, 9, 46, 0
4, 387639, Note_on_c, 9, 36, 0
4, 387646, Note_on_c, 9, 59, 0
4, 387786, Note_on_c, 9, 59, 57
4, 387921, Note_on_c, 9, 36, 13
4, 388295, Note_on_c, 9, 36, 0
4, 388493, Note_on_c, 9, 36, 22
4, 388521, Note_on_c, 9, 59, 0
4, 388656, Note_on_c, 9, 36, 0
4, 388750, Note_on_c, 9, 59, 73
4, 388779, Note_on_c, 9, 44, 30
4, 389274, Note_on_c, 9, 59, 0
4, 389447, Note_on_c, 9, 59, 57
4, 389564, Note_on_c, 9, 59, 0
4, 389718, Note_on_c, 9, 44, 0
4, 389731, Note_on_c, 9, 59, 75
4, 390466, Note_on_c, 9, 59, 0
4, 390709, Note_on_c, 9, 44, 25
4, 390727, Note_on_c, 9, 59, 75
4, 391251, Note_on_c, 9, 59, 0
4, 391478, Note_on_c, 9, 59, 27
4, 391553, Note_on_c, 9, 59, 0
4, 391556, Note_on_c, 9, 44, 0
4, 391674, Note_on_c, 9, 59, 51
4, 392465, Note_on_c, 9, 59, 0
4, 392655, Note_on_c, 9, 59, 75
4, 392662, Note_on_c, 9, 44, 25
4, 393212, Note_on_c, 9, 59, 0
4, 393280, Note_on_c, 9, 44, 0
4, 393359, Note_on_c, 9, 39, 43
4, 393408, Note_on_c, 9, 59, 51
4, 393544, Note_on_c, 9, 59, 0
4, 393620, Note_on_c, 9, 39, 0
4, 393655, Note_on_c, 9, 59, 55
4, 393756, Note_on_c, 9, 39, 21
4, 393946, Note_on_c, 9, 39, 0
4, 394305, Note_on_c, 9, 39, 31
4, 394358, Note_on_c, 9, 59, 0
4, 394514, Note_on_c, 9, 39, 0
4, 394601, Note_on_c, 9, 46, 19
4, 394602, Note_on_c, 9, 59, 85
4, 394641, Note_on_c, 9, 36, 17
4, 394919, Note_on_c, 9, 36, 0
4, 395134, Note_on_c, 9, 59, 0
4, 395246, Note_on_c, 9, 36, 34
4, 395343, Note_on_c, 9, 59, 33
4, 395443, Note_on_c, 9, 59, 0
4, 395497, Note_on_c, 9, 36, 0
4, 395535, Note_on_c, 9, 59, 41
4, 395580, Note_on_c, 9, 46, 0
4, 395680, Note_on_c, 9, 36, 23
4, 395964, Note_on_c, 9, 36, 0
4, 396261, Note_on_c, 9, 59, 0
4, 396507, Note_on_c, 9, 44, 26
4, 396524, Note_on_c, 9, 59, 73
4, 397021, Note_on_c, 9, 59, 0
4, 397223, Note_on_c, 9, 44, 0
4, 397238, Note_on_c, 9, 59, 33
4, 397320, Note_on_c, 9, 59, 0
4, 397463, Note_on_c, 9, 59, 57
4, 398204, Note_on_c, 9, 59, 0
4, 398409, Note_on_c, 9, 59, 57
4, 398422, Note_on_c, 9, 44, 30
4, 398460, Note_on_c, 9, 39, 33
4, 398564, Note_on_c, 9, 39, 0
4, 398781, Note_on_c, 9, 39, 20
4, 398951, Note_on_c, 9, 59, 0
4, 399005, Note_on_c, 9, 44, 0
4, 399021, Note_on_c, 9, 39, 0
4, 399101, Note_on_c, 9, 39, 43
4, 399125, Note_on_c, 9, 59, 33
4, 399214, Note_on_c, 9, 59, 0
4, 399354, Note_on_c, 9, 59, 57
4, 399504, Note_on_c, 9, 39, 0
4, 399823, Note_on_c, 9, 39, 29
4, 399948, Note_on_c, 9, 39, 0
4, 400084, Note_on_c, 9, 39, 33
4, 400122, Note_on_c, 9, 59, 0
4, 400242, Note_on_c, 9, 39, 0
4, 400287, Note_on_c, 9, 59, 75
4, 400295, Note_on_c, 9, 44, 32
4, 400511, Note_on_c, 9, 39, 58
4, 400803, Note_on_c, 9, 59, 0
4, 400835, Note_on_c, 9, 44, 0
4, 400988, Note_on_c, 9, 59, 51
4, 401090, Note_on_c, 9, 39, 0
4, 401101, Note_on_c, 9, 59, 0
4, 401255, Note_on_c, 9, 59, 73
4, 401328, Note_on_c, 9, 39, 21
4, 401409, Note_on_c, 9, 39, 0
4, 401711, Note_on_c, 9, 39, 35
4, 401939, Note_on_c, 9, 39, 0
4, 401996, Note_on_c, 9, 59, 0
4, 402023, Note_on_c, 9, 39, 67
4, 402175, Note_on_c, 9, 44, 33
4, 402205, Note_on_c, 9, 59, 63
4, 402392, Note_on_c, 9, 39, 0
4, 402667, Note_on_c, 9, 39, 43
4, 402689, Note_on_c, 9, 59, 0
4, 402801, Note_on_c, 9, 44, 0
4, 402863, Note_on_c, 9, 59, 51
4, 402928, Note_on_c, 9, 39, 0
4, 402976, Note_on_c, 9, 39, 29
4, 402984, Note_on_c, 9, 59, 0
4, 403104, Note_on_c, 9, 39, 0
4, 403144, Note_on_c, 9, 59, 79
4, 403302, Note_on_c, 9, 36, 54
4, 403901, Note_on_c, 9, 36, 0
4, 403912, Note_on_c, 9, 59, 0
4, 404138, Note_on_c, 9, 59, 83
4, 404237, Note_on_c, 9, 44, 26
4, 404688, Note_on_c, 9, 44, 0
4, 404914, Note_on_c, 9, 59, 0
4, 405137, Note_on_c, 9, 59, 69
4, 405861, Note_on_c, 9, 59, 0
4, 406041, Note_on_c, 9, 59, 83
4, 406536, Note_on_c, 9, 59, 0
4, 406838, Note_on_c, 9, 59, 33
4, 406909, Note_on_c, 9, 59, 0
4, 407072, Note_on_c, 9, 59, 79
4, 407832, Note_on_c, 9, 59, 0
4, 408017, Note_on_c, 9, 59, 63
4, 408589, Note_on_c, 9, 59, 0
4, 408781, Note_on_c, 9, 59, 39
4, 408867, Note_on_c, 9, 59, 0
4, 408937, Note_on_c, 9, 44, 39
4, 409009, Note_on_c, 9, 59, 63
4, 409673, Note_on_c, 9, 39, 36
4, 409738, Note_on_c, 9, 39, 0
4, 409751, Note_on_c, 9, 59, 0
4, 409964, Note_on_c, 9, 59, 83
4, 410433, Note_on_c, 9, 44, 0
4, 410484, Note_on_c, 9, 59, 0
4, 410602, Note_on_c, 9, 39, 42
4, 410686, Note_on_c, 9, 59, 41
4, 410758, Note_on_c, 9, 39, 0
4, 410799, Note_on_c, 9, 59, 0
4, 410933, Note_on_c, 9, 59, 73
4, 411692, Note_on_c, 9, 59, 0
4, 411930, Note_on_c, 9, 59, 89
4, 412604, Note_on_c, 9, 59, 0
4, 412810, Note_on_c, 9, 44, 22
4, 412836, Note_on_c, 9, 59, 69
4, 412883, Note_on_c, 9, 36, 23
4, 413336, Note_on_c, 9, 36, 0
4, 413500, Note_on_c, 9, 59, 0
4, 413530, Note_on_c, 9, 36, 16
4, 413712, Note_on_c, 9, 36, 0
4, 413748, Note_on_c, 9, 59, 69
4, 413885, Note_on_c, 9, 44, 0
4, 414291, Note_on_c, 9, 59, 0
4, 414483, Note_on_c, 9, 59, 41
4, 414599, Note_on_c, 9, 59, 0
4, 414756, Note_on_c, 9, 59, 63
4, 415297, Note_on_c, 9, 59, 0
4, 415422, Note_on_c, 9, 59, 45
4, 415512, Note_on_c, 9, 59, 0
4, 415622, Note_on_c, 9, 59, 103
4, 416398, Note_on_c, 9, 59, 0
4, 416568, Note_on_c, 9, 59, 57
4, 416614, Note_on_c, 9, 44, 29
4, 417022, Note_on_c, 9, 59, 0
4, 417165, Note_on_c, 9, 44, 0
4, 417225, Note_on_c, 9, 59, 75
4, 417984, Note_on_c, 9, 59, 0
4, 418158, Note_on_c, 9, 59, 57
4, 418262, Note_on_c, 9, 59, 0
4, 418421, Note_on_c, 9, 59, 91
4, 419228, Note_on_c, 9, 59, 0
4, 419395, Note_on_c, 9, 59, 75
4, 419953, Note_on_c, 9, 59, 0
4, 420165, Note_on_c, 9, 59, 29
4, 420238, Note_on_c, 9, 59, 0
4, 420387, Note_on_c, 9, 59, 97
4, 420473, Note_on_c, 9, 44, 25
4, 421182, Note_on_c, 9, 59, 0
4, 421376, Note_on_c, 9, 59, 79
4, 421496, Note_on_c, 9, 44, 0
4, 422067, Note_on_c, 9, 59, 0
4, 422215, Note_on_c, 9, 59, 57
4, 422307, Note_on_c, 9, 59, 0
4, 422440, Note_on_c, 9, 59, 91
4, 423093, Note_on_c, 9, 59, 0
4, 423327, Note_on_c, 9, 59, 97
4, 423876, Note_on_c, 9, 59, 0
4, 424221, Note_on_c, 9, 39, 40
4, 424303, Note_on_c, 9, 44, 25
4, 424310, Note_on_c, 9, 59, 55
4, 424808, Note_on_c, 9, 44, 0
4, 424902, Note_on_c, 9, 39, 0
4, 425047, Note_on_c, 9, 59, 0
4, 425210, Note_on_c, 9, 59, 69
4, 425700, Note_on_c, 9, 59, 0
4, 425904, Note_on_c, 9, 59, 79
4, 426065, Note_on_c, 9, 59, 0
4, 426222, Note_on_c, 9, 59, 63
4, 426942, Note_on_c, 9, 59, 0
4, 427163, Note_on_c, 9, 59, 75
4, 427931, Note_on_c, 9, 59, 0
4, 428111, Note_on_c, 9, 44, 22
4, 428112, Note_on_c, 9, 59, 57
4, 428608, Note_on_c, 9, 44, 0
4, 428770, Note_on_c, 9, 53, 26
4, 428778, Note_on_c, 9, 59, 0
4, 429133, Note_on_c, 9, 59, 75
4, 429141, Note_on_c, 9, 53, 0
4, 429815, Note_on_c, 9, 45, 42
4, 429853, Note_on_c, 9, 59, 0
4, 429925, Note_on_c, 9, 45, 0
4, 430047, Note_on_c, 9, 59, 51
4, 430705, Note_on_c, 9, 43, 40
4, 430839, Note_on_c, 9, 43, 0
4, 430869, Note_on_c, 9, 59, 0
4, 431030, Note_on_c, 9, 59, 73
4, 431648, Note_on_c, 9, 59, 0
4, 431726, Note_on_c, 9, 39, 36
4, 431786, Note_on_c, 9, 59, 75
4, 431835, Note_on_c, 9, 39, 0
4, 431877, Note_on_c, 9, 59, 0
4, 431999, Note_on_c, 9, 44, 31
4, 432040, Note_on_c, 9, 59, 83
4, 432043, Note_on_c, 9, 39, 20
4, 432459, Note_on_c, 9, 39, 0
4, 432705, Note_on_c, 9, 36, 19
4, 432766, Note_on_c, 9, 59, 0
4, 432791, Note_on_c, 9, 44, 0
4, 432853, Note_on_c, 9, 36, 0
4, 432950, Note_on_c, 9, 59, 85
4, 433037, Note_on_c, 9, 36, 19
4, 433348, Note_on_c, 9, 36, 0
4, 433464, Note_on_c, 9, 59, 0
4, 433622, Note_on_c, 9, 59, 57
4, 433654, Note_on_c, 9, 36, 9
4, 433743, Note_on_c, 9, 59, 0
4, 433857, Note_on_c, 9, 36, 0
4, 433898, Note_on_c, 9, 59, 75
4, 433995, Note_on_c, 9, 49, 12
4, 434018, Note_on_c, 9, 36, 38
4, 434674, Note_on_c, 9, 59, 0
4, 434883, Note_on_c, 9, 59, 91
4, 435573, Note_on_c, 9, 59, 0
4, 435834, Note_on_c, 9, 59, 89
4, 435877, Note_on_c, 9, 44, 25
4, 436401, Note_on_c, 9, 44, 0
4, 436523, Note_on_c, 9, 59, 0
4, 436788, Note_on_c, 9, 59, 95
4, 437541, Note_on_c, 9, 59, 0
4, 437763, Note_on_c, 9, 59, 63
4, 438259, Note_on_c, 9, 59, 0
4, 438411, Note_on_c, 9, 49, 0
4, 438468, Note_on_c, 9, 59, 49
4, 438602, Note_on_c, 9, 59, 0
4, 438768, Note_on_c, 9, 59, 61
4, 439020, Note_on_c, 9, 36, 0
4, 439476, Note_on_c, 9, 59, 0
4, 439625, Note_on_c, 9, 46, 22
4, 439701, Note_on_c, 9, 59, 75
4, 440296, Note_on_c, 9, 59, 0
4, 440691, Note_on_c, 9, 59, 79
4, 441214, Note_on_c, 9, 59, 0
4, 441352, Note_on_c, 9, 53, 31
4, 441408, Note_on_c, 9, 46, 0
4, 441490, Note_on_c, 9, 53, 0
4, 441680, Note_on_c, 9, 59, 69
4, 442187, Note_on_c, 9, 59, 0
4, 442571, Note_on_c, 9, 59, 79
4, 443178, Note_on_c, 9, 59, 0
4, 443509, Note_on_c, 9, 44, 25
4, 443548, Note_on_c, 9, 59, 79
4, 444038, Note_on_c, 9, 59, 0
4, 444207, Note_on_c, 9, 59, 57
4, 444401, Note_on_c, 9, 59, 0
4, 444508, Note_on_c, 9, 59, 57
4, 445108, Note_on_c, 9, 36, 16
4, 445157, Note_on_c, 9, 59, 0
4, 445304, Note_on_c, 9, 36, 0
4, 445362, Note_on_c, 9, 44, 0
4, 445451, Note_on_c, 9, 59, 83
4, 445492, Note_on_c, 9, 36, 9
4, 445980, Note_on_c, 9, 36, 0
4, 446046, Note_on_c, 9, 59, 0
4, 446413, Note_on_c, 9, 59, 51
4, 447040, Note_on_c, 9, 36, 15
4, 447041, Note_on_c, 9, 59, 0
4, 447110, Note_on_c, 9, 53, 10
4, 447215, Note_on_c, 9, 36, 0
4, 447371, Note_on_c, 9, 53, 0
4, 447418, Note_on_c, 9, 36, 12
4, 447450, Note_on_c, 9, 59, 33
4, 447904, Note_on_c, 9, 36, 0
4, 447993, Note_on_c, 9, 59, 0
4, 448037, Note_on_c, 9, 53, 17
4, 448212, Note_on_c, 9, 53, 0
4, 448375, Note_on_c, 9, 59, 29
4, 448848, Note_on_c, 9, 59, 0
4, 448900, Note_on_c, 9, 36, 18
4, 448944, Note_on_c, 9, 53, 11
4, 449083, Note_on_c, 9, 36, 0
4, 449114, Note_on_c, 9, 53, 0
4, 449271, Note_on_c, 9, 36, 21
4, 449289, Note_on_c, 9, 59, 51
4, 449748, Note_on_c, 9, 59, 0
4, 449822, Note_on_c, 9, 36, 0
4, 449913, Note_on_c, 9, 59, 57
4, 450049, Note_on_c, 9, 59, 0
4, 450226, Note_on_c, 9, 59, 57
4, 450807, Note_on_c, 9, 36, 25
4, 450883, Note_on_c, 9, 59, 0
4, 450997, Note_on_c, 9, 36, 0
4, 451186, Note_on_c, 9, 59, 57
4, 451314, Note_on_c, 9, 44, 23
4, 451829, Note_on_c, 9, 59, 0
4, 452106, Note_on_c, 9, 59, 63
4, 452588, Note_on_c, 9, 59, 0
4, 452774, Note_on_c, 9, 59, 49
4, 452879, Note_on_c, 9, 36, 19
4, 452912, Note_on_c, 9, 59, 0
4, 453038, Note_on_c, 9, 36, 0
4, 453072, Note_on_c, 9, 59, 89
4, 453182, Note_on_c, 9, 44, 0
4, 453228, Note_on_c, 9, 39, 36
4, 453677, Note_on_c, 9, 39, 0
4, 453805, Note_on_c, 9, 59, 0
4, 453940, Note_on_c, 9, 39, 35
4, 454074, Note_on_c, 9, 59, 83
4, 454355, Note_on_c, 9, 39, 0
4, 454561, Note_on_c, 9, 59, 0
4, 454570, Note_on_c, 9, 39, 33
4, 454784, Note_on_c, 9, 59, 39
4, 454909, Note_on_c, 9, 59, 0
4, 454981, Note_on_c, 9, 39, 0
4, 455049, Note_on_c, 9, 59, 57
4, 455052, Note_on_c, 9, 44, 23
4, 455221, Note_on_c, 9, 39, 36
4, 455639, Note_on_c, 9, 39, 0
4, 455658, Note_on_c, 9, 59, 0
4, 455700, Note_on_c, 9, 53, 32
4, 455837, Note_on_c, 9, 39, 24
4, 455939, Note_on_c, 9, 44, 0
4, 456146, Note_on_c, 9, 39, 0
4, 456442, Note_on_c, 9, 39, 22
4, 456445, Note_on_c, 9, 53, 0
4, 456525, Note_on_c, 9, 39, 0
4, 456673, Note_on_c, 9, 59, 63
4, 456676, Note_on_c, 9, 39, 22
4, 456781, Note_on_c, 9, 59, 0
4, 456824, Note_on_c, 9, 39, 0
4, 456971, Note_on_c, 9, 59, 57
4, 457066, Note_on_c, 9, 36, 18
4, 457439, Note_on_c, 9, 36, 0
4, 457624, Note_on_c, 9, 59, 0
4, 457698, Note_on_c, 9, 36, 19
4, 457896, Note_on_c, 9, 59, 73
4, 457976, Note_on_c, 9, 36, 0
4, 458380, Note_on_c, 9, 59, 0
4, 458553, Note_on_c, 9, 59, 55
4, 458688, Note_on_c, 9, 59, 0
4, 458860, Note_on_c, 9, 59, 69
4, 458861, Note_on_c, 9, 44, 37
4, 458948, Note_on_c, 9, 36, 29
4, 459359, Note_on_c, 9, 36, 0
4, 459502, Note_on_c, 9, 53, 19
4, 459504, Note_on_c, 9, 59, 0
4, 459596, Note_on_c, 9, 53, 0
4, 459813, Note_on_c, 9, 59, 51
4, 460224, Note_on_c, 9, 59, 0
4, 460394, Note_on_c, 9, 59, 75
4, 460575, Note_on_c, 9, 59, 0
4, 460753, Note_on_c, 9, 59, 57
4, 460806, Note_on_c, 9, 44, 0
4, 461462, Note_on_c, 9, 59, 0
4, 461706, Note_on_c, 9, 59, 67
4, 462161, Note_on_c, 9, 59, 0
4, 462330, Note_on_c, 9, 59, 51
4, 462415, Note_on_c, 9, 45, 61
4, 462439, Note_on_c, 9, 59, 0
4, 462448, Note_on_c, 9, 46, 20
4, 462548, Note_on_c, 9, 46, 0
4, 462585, Note_on_c, 9, 59, 91
4, 462598, Note_on_c, 9, 45, 0
4, 462677, Note_on_c, 9, 59, 0
4, 462728, Note_on_c, 9, 44, 27
4, 462797, Note_on_c, 9, 45, 27
4, 462808, Note_on_c, 9, 59, 111
4, 463004, Note_on_c, 9, 59, 0
4, 463104, Note_on_c, 9, 59, 21
4, 463162, Note_on_c, 9, 45, 0
4, 463347, Note_on_c, 9, 59, 0
4, 463383, Note_on_c, 9, 36, 37
4, 463586, Note_on_c, 9, 36, 0
4, 463658, Note_on_c, 9, 59, 63
4, 463717, Note_on_c, 9, 40, 37
4, 464020, Note_on_c, 9, 40, 0
4, 464073, Note_on_c, 9, 59, 0
4, 464288, Note_on_c, 9, 59, 51
4, 464347, Note_on_c, 9, 36, 37
4, 464398, Note_on_c, 9, 59, 0
4, 464435, Note_on_c, 9, 36, 0
4, 464572, Note_on_c, 9, 59, 83
4, 464625, Note_on_c, 9, 44, 0
4, 464687, Note_on_c, 9, 36, 48
4, 465346, Note_on_c, 9, 59, 0
4, 465529, Note_on_c, 9, 36, 0
4, 465565, Note_on_c, 9, 59, 57
4, 466181, Note_on_c, 9, 59, 0
4, 466556, Note_on_c, 9, 59, 79
4, 466605, Note_on_c, 9, 44, 23
4, 467241, Note_on_c, 9, 59, 0
4, 467303, Note_on_c, 9, 53, 16
4, 467368, Note_on_c, 9, 53, 0
4, 467608, Note_on_c, 9, 59, 61
4, 468144, Note_on_c, 9, 59, 0
4, 468179, Note_on_c, 9, 40, 24
4, 468294, Note_on_c, 9, 40, 0
4, 468396, Note_on_c, 9, 44, 0
4, 468512, Note_on_c, 9, 59, 67
4, 468592, Note_on_c, 9, 36, 11
4, 468926, Note_on_c, 9, 36, 0
4, 468983, Note_on_c, 9, 59, 0
4, 469474, Note_on_c, 9, 59, 57
4, 470036, Note_on_c, 9, 36, 16
4, 470073, Note_on_c, 9, 59, 0
4, 470147, Note_on_c, 9, 36, 0
4, 470397, Note_on_c, 9, 36, 11
4, 470428, Note_on_c, 9, 59, 45
4, 470441, Note_on_c, 9, 46, 42
4, 470675, Note_on_c, 9, 36, 0
4, 470882, Note_on_c, 9, 59, 0
4, 471073, Note_on_c, 9, 59, 51
4, 471111, Note_on_c, 9, 46, 0
4, 471221, Note_on_c, 9, 59, 0
4, 471358, Note_on_c, 9, 59, 51
4, 471362, Note_on_c, 9, 36, 18
4, 471608, Note_on_c, 9, 36, 0
4, 472005, Note_on_c, 9, 59, 0
4, 472306, Note_on_c, 9, 59, 67
4, 472332, Note_on_c, 9, 49, 20
4, 472355, Note_on_c, 9, 36, 7
4, 472947, Note_on_c, 9, 59, 0
4, 473306, Note_on_c, 9, 59, 51
4, 473838, Note_on_c, 9, 59, 0
4, 474254, Note_on_c, 9, 44, 34
4, 474326, Note_on_c, 9, 59, 55
4, 474559, Note_on_c, 9, 44, 0
4, 474902, Note_on_c, 9, 53, 14
4, 474963, Note_on_c, 9, 59, 0
4, 475746, Note_on_c, 9, 36, 0
4, 475763, Note_on_c, 9, 49, 0
4, 475787, Note_on_c, 9, 53, 0
4, 475800, Note_on_c, 9, 59, 75
4, 475921, Note_on_c, 9, 59, 0
4, 476158, Note_on_c, 9, 59, 57
4, 476795, Note_on_c, 9, 59, 0
4, 477135, Note_on_c, 9, 59, 39
4, 477573, Note_on_c, 9, 59, 0
4, 478009, Note_on_c, 9, 44, 23
4, 478043, Note_on_c, 9, 53, 10
4, 478131, Note_on_c, 9, 59, 33
4, 478569, Note_on_c, 9, 59, 0
4, 478702, Note_on_c, 9, 53, 0
4, 478872, Note_on_c, 9, 44, 0
4, 479013, Note_on_c, 9, 53, 14
4, 479637, Note_on_c, 9, 53, 0
4, 479938, Note_on_c, 9, 59, 73
4, 479983, Note_on_c, 9, 49, 14
4, 480557, Note_on_c, 9, 36, 1
4, 480933, Note_on_c, 9, 59, 0
4, 481252, Note_on_c, 9, 49, 0
4, 481268, Note_on_c, 9, 36, 0
4, 486992, Note_on_c, 9, 59, 87
4, 487952, Note_on_c, 9, 59, 0
4, 488107, Note_on_c, 9, 59, 31
4, 488643, Note_on_c, 9, 59, 0
4, 489098, Note_on_c, 9, 59, 20
4, 489610, Note_on_c, 9, 59, 0
4, 490000, Note_on_c, 9, 59, 17
4, 492255, Note_on_c, 9, 49, 9
4, 492648, Note_on_c, 9, 59, 0
4, 493685, Note_on_c, 9, 49, 0
4, 497767, Note_on_c, 9, 59, 21
4, 498105, Note_on_c, 9, 59, 0
4, 505440, Note_on_c, 9, 59, 40
4, 505909, Note_on_c, 9, 59, 0
4, 509396, Note_on_c, 9, 59, 56
4, 510068, Note_on_c, 9, 59, 0
4, 516133, Note_on_c, 9, 59, 29
4, 516563, Note_on_c, 9, 59, 0
4, 517642, Note_on_c, 9, 49, 22
4, 518608, Note_on_c, 9, 49, 0
4, 523957, Note_on_c, 9, 59, 24
4, 524792, Note_on_c, 9, 59, 55
4, 524839, Note_on_c, 9, 59, 0
4, 525152, Note_on_c, 9, 59, 0
4, 525906, Note_on_c, 9, 59, 9
4, 526490, Note_on_c, 9, 59, 0
4, 526768, Note_on_c, 9, 59, 55
4, 527128, Note_on_c, 9, 59, 0
4, 527841, Note_on_c, 9, 59, 21
4, 528248, Note_on_c, 9, 59, 0
4, 529968, Note_on_c, 9, 49, 22
4, 530494, Note_on_c, 9, 49, 0
4, 539954, Note_on_c, 9, 49, 26
4, 540555, Note_on_c, 9, 49, 0
4, 540555, End_track
0, 0, End_of_file
