0, 0, Header, 1, 2, 120
1, 0, Start_track
1, 0, Title_t, "It Could Happen To You (Version 2)"
1, 0, Text_t, "Doug McKenzie dougmck@pipeline.com.au Played in real time. A bit more interesting (modern) perhaps than the other one. Done after listening to Chick Corea's great version on his fairly recent solo 'Standards' album.\012"
1, 0, Time_signature, 4, 2, 24, 8
1, 0, Key_signature, -1, "major"
1, 0, Tempo, 600000
1, 154, Marker_t, "Opening phrase played 2 hands 1 octave apart"
1, 960, Marker_t, "Root of D7 alt chord (sus pedal down)"
1, 1078, Marker_t, "While pedalling, easy run on  Whole tone scale(s) LH plays black note, RH plays white ones. "
1, 1962, Marker_t, "Similar idea on next musical phrase"
1, 2880, Marker_t, "On E7 similar idea , LH plays black notes- G# and A# while RH plays white  (B,D,E and G)"
1, 9666, Marker_t, "On G7#11, RH arpeggiates an A major triad"
1, 10368, Marker_t, "Series of parallell chords moving up in steps"
1, 10638, Marker_t, "Db/Eb"
1, 11008, Marker_t, "Eb/F"
1, 11331, Marker_t, "E/F#"
1, 11574, Marker_t, "Gb/Ab"
1, 16996, Marker_t, "Nice 2 handed 'cluster' on D7alt. LH plays Black  (Gb, Ab) RH plays white (A,C,D,E)"
1, 20640, Marker_t, "Begin in tempo - play 2 hands in unison"
1, 22080, Marker_t, "More or less the melody, with minor embellishments (neighbouring tones, passing notes etc.)"
1, 24338, Marker_t, "'Comping' in the gaps between phrases"
1, 25040, Marker_t, "Back to melody in unison."
1, 27120, Marker_t, "Same series of parallel chords on turnaround as in first chorus."
1, 27829, Marker_t, "Fourth voicing with a 'sideslip' down and up again"
1, 30976, Marker_t, "On Eb7, another series of parallel chords, a minor 3rd apart."
1, 32616, Marker_t, "On final, a deceptive cadence from C13b9 to Db7#11 - without resolving it to F"
1, 32616, End_track
2, 0, Start_track
2, 0, Title_t, "dougmck@pipeline.com.au"
2, 23, Control_c, 0, 64, 127
2, 183, Note_on_c, 0, 72, 105
2, 187, Note_on_c, 0, 60, 87
2, 192, Control_c, 0, 64, 0
2, 252, Control_c, 0, 64, 127
2, 395, Note_on_c, 0, 72, 0
2, 439, Note_on_c, 0, 74, 108
2, 441, Note_on_c, 0, 62, 71
2, 445, Note_on_c, 0, 60, 0
2, 511, Note_on_c, 0, 74, 0
2, 526, Note_on_c, 0, 75, 86
2, 527, Note_on_c, 0, 63, 78
2, 532, Control_c, 0, 64, 0
2, 535, Note_on_c, 0, 62, 0
2, 547, Control_c, 0, 64, 127
2, 591, Note_on_c, 0, 75, 0
2, 596, Note_on_c, 0, 74, 79
2, 598, Note_on_c, 0, 62, 73
2, 601, Note_on_c, 0, 63, 0
2, 618, Note_on_c, 0, 62, 0
2, 657, Note_on_c, 0, 74, 0
2, 677, Note_on_c, 0, 69, 74
2, 681, Note_on_c, 0, 81, 91
2, 689, Control_c, 0, 64, 0
2, 719, Control_c, 0, 64, 127
2, 781, Note_on_c, 0, 69, 0
2, 962, Note_on_c, 0, 26, 77
2, 968, Note_on_c, 0, 81, 0
2, 988, Note_on_c, 0, 26, 0
2, 1113, Note_on_c, 0, 54, 54
2, 1143, Note_on_c, 0, 56, 59
2, 1154, Note_on_c, 0, 58, 56
2, 1156, Note_on_c, 0, 54, 0
2, 1160, Note_on_c, 0, 56, 0
2, 1165, Note_on_c, 0, 58, 0
2, 1168, Note_on_c, 0, 60, 50
2, 1180, Note_on_c, 0, 62, 68
2, 1186, Note_on_c, 0, 60, 0
2, 1196, Note_on_c, 0, 64, 65
2, 1203, Note_on_c, 0, 62, 0
2, 1210, Note_on_c, 0, 64, 0
2, 1218, Note_on_c, 0, 66, 59
2, 1223, Note_on_c, 0, 68, 45
2, 1225, Note_on_c, 0, 70, 51
2, 1231, Note_on_c, 0, 68, 0
2, 1234, Note_on_c, 0, 66, 0
2, 1235, Note_on_c, 0, 72, 57
2, 1242, Note_on_c, 0, 70, 0
2, 1251, Note_on_c, 0, 74, 66
2, 1254, Note_on_c, 0, 72, 0
2, 1268, Note_on_c, 0, 76, 66
2, 1271, Note_on_c, 0, 74, 0
2, 1275, Note_on_c, 0, 76, 0
2, 1287, Note_on_c, 0, 78, 56
2, 1291, Note_on_c, 0, 80, 37
2, 1293, Note_on_c, 0, 82, 36
2, 1301, Note_on_c, 0, 82, 0
2, 1302, Note_on_c, 0, 80, 0
2, 1303, Note_on_c, 0, 78, 0
2, 1303, Note_on_c, 0, 84, 60
2, 1318, Note_on_c, 0, 86, 68
2, 1323, Note_on_c, 0, 84, 0
2, 1336, Note_on_c, 0, 88, 58
2, 1338, Note_on_c, 0, 86, 0
2, 1343, Note_on_c, 0, 88, 0
2, 1357, Note_on_c, 0, 92, 57
2, 1364, Note_on_c, 0, 92, 0
2, 1376, Note_on_c, 0, 96, 51
2, 1392, Note_on_c, 0, 98, 34
2, 1398, Note_on_c, 0, 96, 0
2, 1413, Note_on_c, 0, 100, 53
2, 1413, Note_on_c, 0, 101, 42
2, 1414, Note_on_c, 0, 98, 0
2, 1427, Note_on_c, 0, 100, 0
2, 1428, Note_on_c, 0, 101, 0
2, 1437, Note_on_c, 0, 105, 90
2, 1437, Note_on_c, 0, 103, 78
2, 1659, Note_on_c, 0, 103, 0
2, 1667, Note_on_c, 0, 105, 0
2, 2058, Note_on_c, 0, 58, 34
2, 2062, Note_on_c, 0, 55, 37
2, 2062, Note_on_c, 0, 53, 35
2, 2064, Note_on_c, 0, 43, 31
2, 2066, Note_on_c, 0, 50, 24
2, 2077, Control_c, 0, 64, 0
2, 2127, Control_c, 0, 64, 127
2, 2195, Note_on_c, 0, 53, 0
2, 2198, Note_on_c, 0, 55, 0
2, 2254, Note_on_c, 0, 58, 0
2, 2266, Note_on_c, 0, 50, 0
2, 2270, Note_on_c, 0, 43, 0
2, 2308, Note_on_c, 0, 62, 73
2, 2313, Note_on_c, 0, 50, 60
2, 2344, Note_on_c, 0, 50, 0
2, 2345, Note_on_c, 0, 62, 0
2, 2365, Note_on_c, 0, 62, 68
2, 2369, Note_on_c, 0, 50, 50
2, 2405, Note_on_c, 0, 62, 0
2, 2417, Note_on_c, 0, 50, 0
2, 2419, Note_on_c, 0, 64, 71
2, 2420, Note_on_c, 0, 52, 51
2, 2443, Note_on_c, 0, 52, 0
2, 2458, Note_on_c, 0, 64, 0
2, 2485, Note_on_c, 0, 53, 49
2, 2487, Note_on_c, 0, 62, 50
2, 2488, Note_on_c, 0, 65, 54
2, 2498, Control_c, 0, 64, 0
2, 2538, Control_c, 0, 64, 127
2, 2544, Note_on_c, 0, 65, 0
2, 2560, Note_on_c, 0, 53, 0
2, 2562, Note_on_c, 0, 52, 47
2, 2565, Note_on_c, 0, 64, 46
2, 2573, Note_on_c, 0, 62, 0
2, 2574, Note_on_c, 0, 52, 0
2, 2584, Note_on_c, 0, 64, 0
2, 2679, Control_c, 0, 64, 0
2, 2681, Note_on_c, 0, 68, 34
2, 2681, Note_on_c, 0, 71, 43
2, 2683, Note_on_c, 0, 62, 31
2, 2683, Note_on_c, 0, 65, 45
2, 2685, Note_on_c, 0, 56, 34
2, 2719, Control_c, 0, 64, 127
2, 2739, Note_on_c, 0, 62, 0
2, 2744, Note_on_c, 0, 65, 0
2, 2750, Note_on_c, 0, 68, 0
2, 2753, Note_on_c, 0, 71, 0
2, 2803, Note_on_c, 0, 88, 70
2, 2807, Note_on_c, 0, 56, 0
2, 2847, Note_on_c, 0, 88, 0
2, 2915, Note_on_c, 0, 68, 28
2, 2925, Note_on_c, 0, 70, 44
2, 2932, Note_on_c, 0, 68, 0
2, 2940, Note_on_c, 0, 71, 48
2, 2941, Note_on_c, 0, 70, 0
2, 2954, Note_on_c, 0, 74, 51
2, 2968, Note_on_c, 0, 71, 0
2, 2976, Note_on_c, 0, 76, 34
2, 2981, Note_on_c, 0, 74, 0
2, 2987, Note_on_c, 0, 79, 46
2, 2988, Note_on_c, 0, 76, 0
2, 2994, Note_on_c, 0, 79, 0
2, 3005, Note_on_c, 0, 80, 45
2, 3021, Note_on_c, 0, 80, 0
2, 3021, Note_on_c, 0, 83, 43
2, 3037, Note_on_c, 0, 86, 55
2, 3038, Note_on_c, 0, 83, 0
2, 3045, Note_on_c, 0, 86, 0
2, 3056, Note_on_c, 0, 91, 47
2, 3062, Note_on_c, 0, 91, 0
2, 3080, Note_on_c, 0, 92, 48
2, 3087, Note_on_c, 0, 95, 37
2, 3089, Note_on_c, 0, 94, 37
2, 3103, Note_on_c, 0, 98, 40
2, 3106, Note_on_c, 0, 94, 0
2, 3106, Note_on_c, 0, 92, 0
2, 3116, Note_on_c, 0, 100, 51
2, 3142, Note_on_c, 0, 103, 42
2, 3188, Note_on_c, 0, 103, 0
2, 3191, Note_on_c, 0, 98, 0
2, 3195, Note_on_c, 0, 100, 0
2, 3199, Note_on_c, 0, 95, 0
2, 3465, Note_on_c, 0, 107, 62
2, 3481, Note_on_c, 0, 107, 0
2, 3759, Note_on_c, 0, 41, 46
2, 3770, Control_c, 0, 64, 0
2, 3794, Control_c, 0, 64, 127
2, 3884, Note_on_c, 0, 67, 54
2, 3884, Note_on_c, 0, 72, 40
2, 3885, Note_on_c, 0, 62, 44
2, 3888, Note_on_c, 0, 57, 40
2, 3898, Control_c, 0, 64, 0
2, 3938, Control_c, 0, 64, 127
2, 3955, Note_on_c, 0, 72, 0
2, 3971, Note_on_c, 0, 72, 59
2, 4036, Note_on_c, 0, 72, 0
2, 4059, Note_on_c, 0, 41, 0
2, 4062, Note_on_c, 0, 72, 62
2, 4088, Note_on_c, 0, 57, 0
2, 4094, Note_on_c, 0, 67, 0
2, 4110, Note_on_c, 0, 62, 0
2, 4116, Note_on_c, 0, 72, 0
2, 4263, Note_on_c, 0, 72, 53
2, 4265, Note_on_c, 0, 46, 33
2, 4266, Note_on_c, 0, 65, 55
2, 4266, Note_on_c, 0, 57, 44
2, 4267, Note_on_c, 0, 61, 40
2, 4268, Note_on_c, 0, 69, 48
2, 4279, Control_c, 0, 64, 0
2, 4315, Control_c, 0, 64, 127
2, 4377, Note_on_c, 0, 57, 0
2, 4387, Note_on_c, 0, 61, 0
2, 4387, Note_on_c, 0, 72, 0
2, 4388, Note_on_c, 0, 65, 0
2, 4388, Note_on_c, 0, 69, 0
2, 4423, Note_on_c, 0, 61, 40
2, 4424, Note_on_c, 0, 70, 47
2, 4426, Note_on_c, 0, 65, 47
2, 4428, Note_on_c, 0, 55, 37
2, 4439, Control_c, 0, 64, 0
2, 4482, Control_c, 0, 64, 127
2, 4679, Note_on_c, 0, 65, 0
2, 4682, Note_on_c, 0, 61, 0
2, 4692, Note_on_c, 0, 62, 21
2, 4702, Note_on_c, 0, 65, 55
2, 4768, Note_on_c, 0, 65, 0
2, 4791, Note_on_c, 0, 62, 0
2, 4793, Note_on_c, 0, 67, 57
2, 4796, Note_on_c, 0, 70, 0
2, 4813, Note_on_c, 0, 55, 0
2, 4823, Note_on_c, 0, 67, 0
2, 4830, Note_on_c, 0, 46, 0
2, 4927, Control_c, 0, 64, 0
2, 4927, Note_on_c, 0, 66, 25
2, 4927, Note_on_c, 0, 69, 41
2, 4928, Note_on_c, 0, 62, 50
2, 4929, Note_on_c, 0, 40, 38
2, 4930, Note_on_c, 0, 57, 27
2, 4953, Note_on_c, 0, 57, 0
2, 4953, Control_c, 0, 64, 127
2, 4962, Note_on_c, 0, 62, 0
2, 4970, Note_on_c, 0, 66, 0
2, 4971, Note_on_c, 0, 69, 0
2, 4989, Note_on_c, 0, 47, 45
2, 5004, Note_on_c, 0, 40, 0
2, 5031, Note_on_c, 0, 47, 0
2, 5040, Note_on_c, 0, 74, 51
2, 5043, Note_on_c, 0, 69, 48
2, 5076, Note_on_c, 0, 69, 0
2, 5089, Note_on_c, 0, 74, 0
2, 5094, Note_on_c, 0, 78, 59
2, 5116, Note_on_c, 0, 78, 0
2, 5154, Note_on_c, 0, 61, 42
2, 5155, Note_on_c, 0, 65, 54
2, 5158, Note_on_c, 0, 60, 48
2, 5159, Note_on_c, 0, 55, 48
2, 5160, Note_on_c, 0, 71, 24
2, 5161, Note_on_c, 0, 84, 32
2, 5162, Control_c, 0, 64, 0
2, 5163, Note_on_c, 0, 58, 31
2, 5173, Note_on_c, 0, 71, 0
2, 5180, Control_c, 0, 64, 127
2, 5193, Note_on_c, 0, 84, 0
2, 5197, Note_on_c, 0, 55, 0
2, 5204, Note_on_c, 0, 60, 0
2, 5204, Note_on_c, 0, 65, 0
2, 5206, Note_on_c, 0, 58, 0
2, 5207, Note_on_c, 0, 61, 0
2, 5226, Note_on_c, 0, 77, 74
2, 5226, Note_on_c, 0, 89, 78
2, 5227, Note_on_c, 0, 86, 81
2, 5228, Note_on_c, 0, 83, 67
2, 5228, Note_on_c, 0, 61, 48
2, 5230, Note_on_c, 0, 65, 69
2, 5230, Note_on_c, 0, 60, 61
2, 5231, Note_on_c, 0, 55, 66
2, 5232, Control_c, 0, 64, 0
2, 5236, Note_on_c, 0, 58, 34
2, 5240, Control_c, 0, 64, 127
2, 5270, Note_on_c, 0, 83, 0
2, 5272, Note_on_c, 0, 77, 0
2, 5274, Note_on_c, 0, 55, 0
2, 5277, Note_on_c, 0, 58, 0
2, 5278, Note_on_c, 0, 86, 0
2, 5278, Note_on_c, 0, 60, 0
2, 5279, Note_on_c, 0, 65, 0
2, 5281, Note_on_c, 0, 61, 0
2, 5281, Note_on_c, 0, 89, 0
2, 5303, Note_on_c, 0, 93, 88
2, 5303, Note_on_c, 0, 61, 61
2, 5304, Note_on_c, 0, 81, 76
2, 5304, Note_on_c, 0, 89, 63
2, 5304, Note_on_c, 0, 55, 74
2, 5304, Note_on_c, 0, 65, 75
2, 5305, Note_on_c, 0, 60, 67
2, 5305, Note_on_c, 0, 86, 88
2, 5310, Control_c, 0, 64, 0
2, 5314, Note_on_c, 0, 58, 25
2, 5314, Control_c, 0, 64, 127
2, 5339, Note_on_c, 0, 86, 0
2, 5342, Note_on_c, 0, 81, 0
2, 5348, Note_on_c, 0, 55, 0
2, 5348, Note_on_c, 0, 89, 0
2, 5352, Note_on_c, 0, 58, 0
2, 5352, Note_on_c, 0, 93, 0
2, 5354, Note_on_c, 0, 65, 0
2, 5356, Note_on_c, 0, 60, 0
2, 5359, Note_on_c, 0, 61, 0
2, 5377, Note_on_c, 0, 61, 67
2, 5378, Note_on_c, 0, 96, 80
2, 5378, Note_on_c, 0, 84, 83
2, 5378, Note_on_c, 0, 93, 82
2, 5379, Note_on_c, 0, 89, 77
2, 5379, Note_on_c, 0, 60, 75
2, 5380, Note_on_c, 0, 55, 78
2, 5380, Note_on_c, 0, 65, 73
2, 5383, Note_on_c, 0, 58, 51
2, 5403, Note_on_c, 0, 84, 0
2, 5405, Note_on_c, 0, 89, 0
2, 5410, Note_on_c, 0, 93, 0
2, 5411, Note_on_c, 0, 60, 0
2, 5415, Note_on_c, 0, 96, 0
2, 5418, Note_on_c, 0, 65, 0
2, 5418, Note_on_c, 0, 55, 0
2, 5422, Note_on_c, 0, 58, 0
2, 5432, Note_on_c, 0, 61, 0
2, 5455, Note_on_c, 0, 61, 39
2, 5456, Note_on_c, 0, 101, 79
2, 5457, Note_on_c, 0, 89, 78
2, 5457, Note_on_c, 0, 58, 70
2, 5458, Note_on_c, 0, 65, 82
2, 5459, Note_on_c, 0, 54, 68
2, 5460, Note_on_c, 0, 96, 71
2, 5460, Note_on_c, 0, 60, 78
2, 5461, Note_on_c, 0, 98, 55
2, 5465, Control_c, 0, 64, 0
2, 5469, Note_on_c, 0, 98, 0
2, 5505, Control_c, 0, 64, 127
2, 5511, Note_on_c, 0, 101, 0
2, 5513, Note_on_c, 0, 96, 0
2, 5522, Note_on_c, 0, 54, 0
2, 5522, Note_on_c, 0, 89, 0
2, 5523, Note_on_c, 0, 65, 0
2, 5524, Note_on_c, 0, 60, 0
2, 5524, Note_on_c, 0, 61, 0
2, 5527, Note_on_c, 0, 58, 0
2, 5543, Control_c, 0, 64, 0
2, 5547, Note_on_c, 0, 98, 62
2, 5549, Note_on_c, 0, 65, 66
2, 5549, Note_on_c, 0, 58, 48
2, 5550, Note_on_c, 0, 86, 42
2, 5550, Note_on_c, 0, 93, 60
2, 5551, Note_on_c, 0, 54, 45
2, 5552, Note_on_c, 0, 60, 60
2, 5555, Note_on_c, 0, 88, 35
2, 5563, Note_on_c, 0, 93, 0
2, 5564, Note_on_c, 0, 88, 0
2, 5565, Note_on_c, 0, 60, 0
2, 5566, Note_on_c, 0, 65, 0
2, 5567, Note_on_c, 0, 86, 0
2, 5570, Note_on_c, 0, 98, 0
2, 5572, Note_on_c, 0, 54, 0
2, 5573, Note_on_c, 0, 58, 0
2, 5637, Note_on_c, 0, 92, 52
2, 5639, Note_on_c, 0, 54, 42
2, 5641, Note_on_c, 0, 65, 53
2, 5641, Note_on_c, 0, 84, 33
2, 5642, Note_on_c, 0, 60, 54
2, 5644, Note_on_c, 0, 96, 28
2, 5666, Note_on_c, 0, 92, 0
2, 5670, Note_on_c, 0, 93, 33
2, 5671, Note_on_c, 0, 96, 0
2, 5674, Control_c, 0, 64, 127
2, 5677, Note_on_c, 0, 60, 0
2, 5677, Note_on_c, 0, 65, 0
2, 5678, Note_on_c, 0, 93, 0
2, 5680, Note_on_c, 0, 84, 0
2, 5685, Note_on_c, 0, 54, 0
2, 5702, Control_c, 0, 64, 0
2, 5737, Note_on_c, 0, 93, 54
2, 5739, Note_on_c, 0, 89, 38
2, 5740, Note_on_c, 0, 54, 45
2, 5740, Note_on_c, 0, 81, 27
2, 5742, Note_on_c, 0, 64, 37
2, 5742, Note_on_c, 0, 86, 44
2, 5746, Note_on_c, 0, 60, 34
2, 5760, Control_c, 0, 64, 127
2, 5775, Note_on_c, 0, 89, 0
2, 5775, Note_on_c, 0, 93, 0
2, 5779, Note_on_c, 0, 86, 0
2, 5785, Note_on_c, 0, 81, 0
2, 5795, Note_on_c, 0, 64, 0
2, 5796, Note_on_c, 0, 54, 0
2, 5802, Note_on_c, 0, 60, 0
2, 5836, Note_on_c, 0, 89, 42
2, 5838, Note_on_c, 0, 86, 53
2, 5839, Note_on_c, 0, 77, 30
2, 5840, Note_on_c, 0, 54, 32
2, 5840, Note_on_c, 0, 64, 34
2, 5842, Note_on_c, 0, 60, 38
2, 5874, Note_on_c, 0, 86, 0
2, 5874, Note_on_c, 0, 89, 0
2, 5892, Note_on_c, 0, 77, 0
2, 5899, Note_on_c, 0, 60, 0
2, 5902, Note_on_c, 0, 64, 0
2, 5907, Note_on_c, 0, 54, 0
2, 5940, Note_on_c, 0, 86, 60
2, 5943, Note_on_c, 0, 54, 32
2, 5944, Note_on_c, 0, 74, 36
2, 5944, Note_on_c, 0, 64, 36
2, 5946, Note_on_c, 0, 60, 35
2, 5989, Note_on_c, 0, 86, 0
2, 5996, Note_on_c, 0, 60, 0
2, 5999, Note_on_c, 0, 74, 0
2, 6000, Note_on_c, 0, 64, 0
2, 6004, Note_on_c, 0, 54, 0
2, 6067, Note_on_c, 0, 54, 34
2, 6068, Note_on_c, 0, 84, 40
2, 6068, Note_on_c, 0, 77, 34
2, 6071, Note_on_c, 0, 72, 32
2, 6072, Note_on_c, 0, 64, 26
2, 6075, Note_on_c, 0, 60, 32
2, 6121, Note_on_c, 0, 84, 0
2, 6134, Note_on_c, 0, 77, 0
2, 6137, Note_on_c, 0, 72, 0
2, 6144, Note_on_c, 0, 64, 0
2, 6163, Note_on_c, 0, 60, 0
2, 6189, Note_on_c, 0, 81, 51
2, 6191, Note_on_c, 0, 74, 44
2, 6194, Note_on_c, 0, 60, 28
2, 6194, Note_on_c, 0, 64, 36
2, 6195, Note_on_c, 0, 69, 31
2, 6214, Note_on_c, 0, 60, 0
2, 6216, Note_on_c, 0, 64, 0
2, 6247, Note_on_c, 0, 54, 0
2, 6250, Note_on_c, 0, 69, 0
2, 6269, Note_on_c, 0, 74, 0
2, 6277, Note_on_c, 0, 81, 0
2, 6314, Note_on_c, 0, 81, 48
2, 6318, Note_on_c, 0, 53, 30
2, 6320, Control_c, 0, 64, 0
2, 6320, Note_on_c, 0, 74, 45
2, 6321, Note_on_c, 0, 77, 40
2, 6322, Note_on_c, 0, 58, 33
2, 6322, Note_on_c, 0, 62, 33
2, 6326, Note_on_c, 0, 57, 34
2, 6332, Note_on_c, 0, 70, 19
2, 6342, Control_c, 0, 64, 127
2, 6350, Note_on_c, 0, 57, 0
2, 6351, Note_on_c, 0, 62, 0
2, 6359, Note_on_c, 0, 58, 0
2, 6362, Note_on_c, 0, 53, 0
2, 6364, Note_on_c, 0, 81, 0
2, 6371, Note_on_c, 0, 74, 0
2, 6374, Note_on_c, 0, 77, 0
2, 6386, Note_on_c, 0, 70, 0
2, 6410, Note_on_c, 0, 43, 40
2, 6438, Note_on_c, 0, 43, 0
2, 6484, Note_on_c, 0, 58, 75
2, 6484, Note_on_c, 0, 62, 80
2, 6487, Note_on_c, 0, 57, 78
2, 6559, Note_on_c, 0, 57, 0
2, 6559, Note_on_c, 0, 56, 80
2, 6608, Note_on_c, 0, 62, 0
2, 6615, Note_on_c, 0, 58, 0
2, 6637, Note_on_c, 0, 56, 0
2, 6639, Note_on_c, 0, 58, 55
2, 6639, Note_on_c, 0, 62, 68
2, 6640, Note_on_c, 0, 55, 71
2, 6651, Control_c, 0, 64, 0
2, 6701, Control_c, 0, 64, 127
2, 6719, Note_on_c, 0, 54, 71
2, 6730, Note_on_c, 0, 55, 0
2, 6751, Note_on_c, 0, 62, 0
2, 6762, Note_on_c, 0, 58, 0
2, 6799, Note_on_c, 0, 62, 66
2, 6801, Note_on_c, 0, 54, 0
2, 6801, Note_on_c, 0, 58, 52
2, 6801, Note_on_c, 0, 53, 60
2, 6805, Control_c, 0, 64, 0
2, 6833, Control_c, 0, 64, 127
2, 6884, Note_on_c, 0, 62, 0
2, 6889, Note_on_c, 0, 67, 65
2, 6893, Note_on_c, 0, 52, 59
2, 6899, Note_on_c, 0, 53, 0
2, 6912, Note_on_c, 0, 52, 0
2, 6923, Note_on_c, 0, 58, 0
2, 6949, Note_on_c, 0, 67, 0
2, 6993, Note_on_c, 0, 69, 64
2, 6994, Note_on_c, 0, 61, 54
2, 6995, Note_on_c, 0, 39, 62
2, 6996, Note_on_c, 0, 65, 55
2, 6999, Note_on_c, 0, 55, 47
2, 7000, Note_on_c, 0, 57, 47
2, 7002, Control_c, 0, 64, 0
2, 7002, Note_on_c, 0, 67, 29
2, 7068, Control_c, 0, 64, 127
2, 7091, Note_on_c, 0, 46, 53
2, 7096, Note_on_c, 0, 39, 0
2, 7113, Note_on_c, 0, 55, 0
2, 7118, Note_on_c, 0, 57, 0
2, 7142, Note_on_c, 0, 65, 0
2, 7154, Note_on_c, 0, 61, 0
2, 7162, Note_on_c, 0, 67, 0
2, 7174, Note_on_c, 0, 69, 0
2, 7185, Note_on_c, 0, 55, 48
2, 7186, Note_on_c, 0, 61, 28
2, 7186, Note_on_c, 0, 65, 39
2, 7188, Note_on_c, 0, 46, 0
2, 7198, Note_on_c, 0, 55, 0
2, 7202, Note_on_c, 0, 61, 0
2, 7215, Note_on_c, 0, 65, 0
2, 7302, Note_on_c, 0, 65, 38
2, 7302, Note_on_c, 0, 61, 31
2, 7307, Note_on_c, 0, 55, 33
2, 7309, Note_on_c, 0, 60, 38
2, 7361, Note_on_c, 0, 60, 0
2, 7362, Note_on_c, 0, 61, 0
2, 7366, Note_on_c, 0, 55, 0
2, 7368, Note_on_c, 0, 65, 0
2, 7411, Note_on_c, 0, 61, 33
2, 7412, Note_on_c, 0, 65, 34
2, 7414, Note_on_c, 0, 55, 41
2, 7418, Note_on_c, 0, 60, 40
2, 7501, Note_on_c, 0, 65, 0
2, 7504, Note_on_c, 0, 70, 76
2, 7522, Note_on_c, 0, 61, 0
2, 7529, Note_on_c, 0, 60, 0
2, 7531, Note_on_c, 0, 70, 0
2, 7551, Note_on_c, 0, 55, 0
2, 7575, Note_on_c, 0, 65, 66
2, 7609, Note_on_c, 0, 65, 0
2, 7635, Note_on_c, 0, 67, 61
2, 7734, Note_on_c, 0, 67, 0
2, 7755, Note_on_c, 0, 61, 39
2, 7755, Note_on_c, 0, 69, 50
2, 7757, Note_on_c, 0, 57, 41
2, 7758, Note_on_c, 0, 41, 45
2, 7758, Note_on_c, 0, 64, 45
2, 7762, Note_on_c, 0, 49, 35
2, 7764, Control_c, 0, 64, 0
2, 7796, Control_c, 0, 64, 127
2, 7835, Note_on_c, 0, 57, 0
2, 7841, Note_on_c, 0, 61, 0
2, 7844, Note_on_c, 0, 64, 0
2, 7855, Note_on_c, 0, 49, 0
2, 7857, Note_on_c, 0, 57, 30
2, 7857, Note_on_c, 0, 50, 48
2, 7858, Note_on_c, 0, 62, 36
2, 7870, Control_c, 0, 64, 0
2, 7906, Control_c, 0, 64, 127
2, 7951, Note_on_c, 0, 41, 0
2, 7964, Note_on_c, 0, 57, 0
2, 7976, Note_on_c, 0, 50, 0
2, 8004, Note_on_c, 0, 62, 0
2, 8025, Note_on_c, 0, 52, 39
2, 8026, Note_on_c, 0, 60, 40
2, 8026, Note_on_c, 0, 43, 26
2, 8030, Note_on_c, 0, 64, 36
2, 8041, Control_c, 0, 64, 0
2, 8065, Control_c, 0, 64, 127
2, 8151, Note_on_c, 0, 64, 0
2, 8159, Note_on_c, 0, 60, 0
2, 8167, Note_on_c, 0, 52, 0
2, 8180, Note_on_c, 0, 65, 61
2, 8181, Note_on_c, 0, 69, 0
2, 8184, Note_on_c, 0, 60, 39
2, 8187, Note_on_c, 0, 53, 43
2, 8254, Note_on_c, 0, 43, 0
2, 8283, Note_on_c, 0, 53, 0
2, 8304, Note_on_c, 0, 60, 0
2, 8327, Note_on_c, 0, 65, 0
2, 8419, Note_on_c, 0, 46, 35
2, 8420, Note_on_c, 0, 67, 55
2, 8420, Note_on_c, 0, 62, 60
2, 8424, Note_on_c, 0, 57, 43
2, 8436, Control_c, 0, 64, 0
2, 8468, Control_c, 0, 64, 127
2, 8475, Note_on_c, 0, 57, 0
2, 8493, Note_on_c, 0, 67, 0
2, 8506, Note_on_c, 0, 65, 56
2, 8507, Note_on_c, 0, 55, 40
2, 8539, Note_on_c, 0, 62, 0
2, 8543, Note_on_c, 0, 65, 0
2, 8545, Note_on_c, 0, 55, 0
2, 8556, Note_on_c, 0, 46, 0
2, 8604, Note_on_c, 0, 62, 54
2, 8605, Note_on_c, 0, 58, 33
2, 8605, Note_on_c, 0, 52, 43
2, 8606, Note_on_c, 0, 64, 54
2, 8615, Control_c, 0, 64, 0
2, 8643, Control_c, 0, 64, 127
2, 8660, Note_on_c, 0, 58, 0
2, 8660, Note_on_c, 0, 62, 0
2, 8661, Note_on_c, 0, 64, 0
2, 8667, Note_on_c, 0, 52, 0
2, 8726, Note_on_c, 0, 70, 46
2, 8726, Note_on_c, 0, 66, 45
2, 8727, Note_on_c, 0, 55, 43
2, 8728, Note_on_c, 0, 61, 42
2, 8730, Note_on_c, 0, 45, 31
2, 8731, Control_c, 0, 64, 0
2, 8757, Note_on_c, 0, 45, 0
2, 8769, Control_c, 0, 64, 127
2, 8773, Note_on_c, 0, 55, 0
2, 8810, Note_on_c, 0, 61, 0
2, 8826, Note_on_c, 0, 70, 0
2, 8840, Note_on_c, 0, 66, 0
2, 8866, Note_on_c, 0, 38, 20
2, 8871, Note_on_c, 0, 45, 32
2, 8872, Note_on_c, 0, 69, 44
2, 8873, Note_on_c, 0, 65, 42
2, 8873, Note_on_c, 0, 60, 34
2, 8876, Note_on_c, 0, 53, 35
2, 8883, Control_c, 0, 64, 0
2, 8916, Control_c, 0, 64, 127
2, 8927, Note_on_c, 0, 60, 0
2, 8938, Note_on_c, 0, 65, 0
2, 8943, Note_on_c, 0, 69, 0
2, 8950, Note_on_c, 0, 38, 0
2, 8958, Note_on_c, 0, 45, 0
2, 8972, Note_on_c, 0, 53, 0
2, 9015, Note_on_c, 0, 79, 76
2, 9023, Note_on_c, 0, 78, 35
2, 9030, Note_on_c, 0, 78, 0
2, 9065, Note_on_c, 0, 79, 0
2, 9128, Note_on_c, 0, 73, 49
2, 9130, Note_on_c, 0, 69, 64
2, 9132, Note_on_c, 0, 61, 51
2, 9191, Note_on_c, 0, 69, 0
2, 9197, Note_on_c, 0, 77, 75
2, 9198, Note_on_c, 0, 73, 0
2, 9230, Note_on_c, 0, 77, 0
2, 9272, Note_on_c, 0, 69, 55
2, 9273, Note_on_c, 0, 65, 53
2, 9274, Note_on_c, 0, 61, 0
2, 9275, Note_on_c, 0, 60, 52
2, 9283, Control_c, 0, 64, 0
2, 9311, Control_c, 0, 64, 127
2, 9347, Note_on_c, 0, 76, 68
2, 9354, Note_on_c, 0, 69, 0
2, 9392, Note_on_c, 0, 65, 0
2, 9411, Note_on_c, 0, 76, 0
2, 9433, Note_on_c, 0, 60, 0
2, 9439, Note_on_c, 0, 65, 26
2, 9439, Note_on_c, 0, 69, 30
2, 9440, Note_on_c, 0, 57, 27
2, 9447, Control_c, 0, 64, 0
2, 9461, Control_c, 0, 64, 127
2, 9514, Note_on_c, 0, 69, 0
2, 9526, Note_on_c, 0, 57, 0
2, 9526, Note_on_c, 0, 72, 53
2, 9563, Note_on_c, 0, 65, 0
2, 9598, Note_on_c, 0, 72, 0
2, 9746, Note_on_c, 0, 64, 36
2, 9748, Note_on_c, 0, 53, 33
2, 9752, Note_on_c, 0, 59, 24
2, 9752, Note_on_c, 0, 43, 29
2, 9752, Note_on_c, 0, 57, 24
2, 9754, Control_c, 0, 64, 0
2, 9771, Note_on_c, 0, 57, 0
2, 9778, Control_c, 0, 64, 127
2, 9791, Note_on_c, 0, 59, 0
2, 9812, Note_on_c, 0, 64, 0
2, 9814, Note_on_c, 0, 43, 0
2, 9820, Note_on_c, 0, 69, 59
2, 9827, Note_on_c, 0, 53, 0
2, 9834, Note_on_c, 0, 69, 0
2, 9873, Note_on_c, 0, 73, 40
2, 9913, Note_on_c, 0, 73, 0
2, 9922, Note_on_c, 0, 76, 56
2, 9961, Note_on_c, 0, 76, 0
2, 9978, Note_on_c, 0, 76, 51
2, 9983, Note_on_c, 0, 64, 40
2, 9985, Note_on_c, 0, 59, 40
2, 9987, Note_on_c, 0, 53, 24
2, 10054, Note_on_c, 0, 71, 62
2, 10057, Note_on_c, 0, 76, 0
2, 10130, Note_on_c, 0, 71, 0
2, 10134, Note_on_c, 0, 73, 44
2, 10222, Note_on_c, 0, 76, 48
2, 10249, Note_on_c, 0, 64, 0
2, 10266, Note_on_c, 0, 59, 0
2, 10287, Note_on_c, 0, 76, 0
2, 10289, Note_on_c, 0, 53, 0
2, 10292, Note_on_c, 0, 73, 0
2, 10390, Note_on_c, 0, 65, 66
2, 10447, Note_on_c, 0, 65, 0
2, 10477, Note_on_c, 0, 65, 66
2, 10531, Note_on_c, 0, 65, 0
2, 10567, Note_on_c, 0, 65, 62
2, 10608, Note_on_c, 0, 65, 0
2, 10691, Note_on_c, 0, 51, 36
2, 10691, Note_on_c, 0, 56, 38
2, 10693, Note_on_c, 0, 61, 43
2, 10695, Note_on_c, 0, 65, 44
2, 10703, Control_c, 0, 64, 0
2, 10727, Control_c, 0, 64, 127
2, 10747, Note_on_c, 0, 56, 0
2, 10800, Note_on_c, 0, 61, 0
2, 10806, Note_on_c, 0, 65, 0
2, 10810, Note_on_c, 0, 70, 59
2, 11013, Note_on_c, 0, 70, 0
2, 11024, Note_on_c, 0, 67, 36
2, 11025, Note_on_c, 0, 63, 45
2, 11025, Note_on_c, 0, 58, 35
2, 11026, Note_on_c, 0, 53, 46
2, 11032, Note_on_c, 0, 51, 0
2, 11042, Control_c, 0, 64, 0
2, 11078, Control_c, 0, 64, 127
2, 11102, Note_on_c, 0, 58, 0
2, 11116, Note_on_c, 0, 63, 0
2, 11119, Note_on_c, 0, 67, 0
2, 11197, Note_on_c, 0, 72, 59
2, 11200, Note_on_c, 0, 73, 28
2, 11233, Note_on_c, 0, 73, 0
2, 11342, Note_on_c, 0, 72, 0
2, 11374, Note_on_c, 0, 53, 0
2, 11374, Note_on_c, 0, 68, 53
2, 11377, Note_on_c, 0, 59, 37
2, 11377, Note_on_c, 0, 64, 46
2, 11378, Note_on_c, 0, 54, 43
2, 11389, Control_c, 0, 64, 0
2, 11419, Control_c, 0, 64, 127
2, 11437, Note_on_c, 0, 68, 0
2, 11445, Note_on_c, 0, 59, 0
2, 11448, Note_on_c, 0, 64, 0
2, 11482, Note_on_c, 0, 73, 59
2, 11540, Note_on_c, 0, 73, 0
2, 11591, Note_on_c, 0, 54, 0
2, 11595, Note_on_c, 0, 56, 34
2, 11596, Note_on_c, 0, 61, 37
2, 11597, Note_on_c, 0, 66, 38
2, 11604, Note_on_c, 0, 70, 26
2, 11607, Control_c, 0, 64, 0
2, 11631, Control_c, 0, 64, 127
2, 11657, Note_on_c, 0, 61, 0
2, 11657, Note_on_c, 0, 56, 0
2, 11669, Note_on_c, 0, 66, 0
2, 11672, Note_on_c, 0, 70, 0
2, 11731, Note_on_c, 0, 75, 41
2, 11738, Control_c, 0, 64, 0
2, 11739, Note_on_c, 0, 48, 24
2, 11739, Note_on_c, 0, 58, 25
2, 11764, Control_c, 0, 64, 127
2, 11778, Note_on_c, 0, 48, 0
2, 11784, Note_on_c, 0, 58, 0
2, 11810, Note_on_c, 0, 75, 0
2, 11859, Note_on_c, 0, 41, 28
2, 11866, Note_on_c, 0, 67, 53
2, 11867, Note_on_c, 0, 62, 43
2, 11867, Note_on_c, 0, 72, 34
2, 11868, Control_c, 0, 64, 0
2, 11879, Note_on_c, 0, 57, 24
2, 11891, Note_on_c, 0, 62, 0
2, 11892, Control_c, 0, 64, 127
2, 11901, Note_on_c, 0, 67, 0
2, 11907, Note_on_c, 0, 72, 0
2, 11956, Note_on_c, 0, 48, 47
2, 11956, Note_on_c, 0, 86, 82
2, 11959, Note_on_c, 0, 41, 0
2, 11965, Note_on_c, 0, 57, 0
2, 11967, Note_on_c, 0, 48, 0
2, 11995, Note_on_c, 0, 86, 0
2, 12037, Note_on_c, 0, 84, 77
2, 12040, Note_on_c, 0, 77, 69
2, 12045, Note_on_c, 0, 53, 27
2, 12047, Note_on_c, 0, 60, 35
2, 12047, Note_on_c, 0, 62, 34
2, 12048, Note_on_c, 0, 57, 34
2, 12052, Control_c, 0, 64, 0
2, 12066, Control_c, 0, 64, 127
2, 12099, Note_on_c, 0, 77, 0
2, 12099, Note_on_c, 0, 84, 0
2, 12112, Note_on_c, 0, 81, 72
2, 12115, Note_on_c, 0, 72, 65
2, 12137, Note_on_c, 0, 81, 0
2, 12167, Note_on_c, 0, 72, 0
2, 12187, Note_on_c, 0, 77, 58
2, 12188, Note_on_c, 0, 70, 59
2, 12236, Note_on_c, 0, 70, 0
2, 12240, Note_on_c, 0, 62, 0
2, 12245, Note_on_c, 0, 60, 0
2, 12251, Note_on_c, 0, 57, 0
2, 12261, Note_on_c, 0, 69, 71
2, 12262, Note_on_c, 0, 53, 0
2, 12277, Note_on_c, 0, 77, 0
2, 12303, Note_on_c, 0, 69, 0
2, 12335, Note_on_c, 0, 65, 55
2, 12335, Note_on_c, 0, 48, 40
2, 12337, Control_c, 0, 64, 0
2, 12353, Control_c, 0, 64, 127
2, 12399, Note_on_c, 0, 65, 0
2, 12400, Note_on_c, 0, 62, 60
2, 12420, Note_on_c, 0, 48, 0
2, 12422, Note_on_c, 0, 62, 0
2, 12479, Note_on_c, 0, 60, 38
2, 12480, Note_on_c, 0, 55, 52
2, 12480, Control_c, 0, 64, 0
2, 12483, Note_on_c, 0, 51, 37
2, 12484, Note_on_c, 0, 45, 38
2, 12501, Note_on_c, 0, 55, 0
2, 12506, Control_c, 0, 64, 127
2, 12512, Note_on_c, 0, 60, 0
2, 12528, Note_on_c, 0, 45, 0
2, 12540, Note_on_c, 0, 51, 0
2, 12551, Note_on_c, 0, 75, 64
2, 12619, Note_on_c, 0, 63, 45
2, 12620, Note_on_c, 0, 67, 44
2, 12623, Note_on_c, 0, 55, 28
2, 12624, Note_on_c, 0, 57, 27
2, 12625, Control_c, 0, 64, 0
2, 12629, Note_on_c, 0, 75, 0
2, 12634, Note_on_c, 0, 63, 0
2, 12634, Note_on_c, 0, 67, 0
2, 12635, Note_on_c, 0, 55, 0
2, 12636, Note_on_c, 0, 57, 0
2, 12666, Note_on_c, 0, 72, 50
2, 12669, Control_c, 0, 64, 127
2, 12689, Note_on_c, 0, 72, 0
2, 12693, Control_c, 0, 64, 0
2, 12701, Note_on_c, 0, 75, 54
2, 12714, Note_on_c, 0, 75, 0
2, 12731, Control_c, 0, 64, 127
2, 12741, Note_on_c, 0, 79, 24
2, 12751, Note_on_c, 0, 79, 0
2, 12771, Note_on_c, 0, 84, 81
2, 12793, Note_on_c, 0, 84, 0
2, 12807, Note_on_c, 0, 87, 82
2, 12809, Control_c, 0, 64, 0
2, 12816, Note_on_c, 0, 54, 40
2, 12817, Note_on_c, 0, 60, 55
2, 12820, Note_on_c, 0, 50, 42
2, 12835, Note_on_c, 0, 87, 0
2, 12849, Note_on_c, 0, 89, 75
2, 12876, Note_on_c, 0, 89, 0
2, 12889, Note_on_c, 0, 84, 65
2, 12892, Note_on_c, 0, 89, 46
2, 12897, Note_on_c, 0, 85, 42
2, 12908, Note_on_c, 0, 50, 0
2, 12924, Note_on_c, 0, 54, 0
2, 12927, Note_on_c, 0, 85, 0
2, 12928, Note_on_c, 0, 84, 0
2, 12929, Note_on_c, 0, 60, 0
2, 12930, Note_on_c, 0, 86, 47
2, 12935, Note_on_c, 0, 89, 0
2, 12939, Note_on_c, 0, 86, 0
2, 13015, Note_on_c, 0, 65, 36
2, 13015, Note_on_c, 0, 54, 32
2, 13020, Note_on_c, 0, 60, 33
2, 13146, Note_on_c, 0, 79, 55
2, 13160, Note_on_c, 0, 80, 44
2, 13180, Note_on_c, 0, 79, 0
2, 13191, Note_on_c, 0, 80, 0
2, 13195, Note_on_c, 0, 81, 24
2, 13202, Note_on_c, 0, 81, 0
2, 13223, Note_on_c, 0, 84, 78
2, 13237, Note_on_c, 0, 60, 0
2, 13241, Note_on_c, 0, 65, 0
2, 13245, Note_on_c, 0, 84, 0
2, 13291, Note_on_c, 0, 74, 57
2, 13315, Note_on_c, 0, 54, 0
2, 13332, Note_on_c, 0, 74, 0
2, 13345, Note_on_c, 0, 81, 65
2, 13348, Note_on_c, 0, 62, 34
2, 13354, Note_on_c, 0, 58, 30
2, 13365, Control_c, 0, 64, 127
2, 13376, Note_on_c, 0, 81, 0
2, 13388, Note_on_c, 0, 62, 0
2, 13396, Note_on_c, 0, 58, 0
2, 13399, Note_on_c, 0, 70, 46
2, 13444, Note_on_c, 0, 70, 0
2, 13456, Note_on_c, 0, 69, 40
2, 13501, Note_on_c, 0, 69, 0
2, 13506, Note_on_c, 0, 43, 36
2, 13507, Control_c, 0, 64, 0
2, 13507, Note_on_c, 0, 77, 63
2, 13509, Note_on_c, 0, 50, 22
2, 13523, Control_c, 0, 64, 127
2, 13534, Note_on_c, 0, 43, 0
2, 13542, Note_on_c, 0, 50, 0
2, 13543, Note_on_c, 0, 77, 0
2, 13567, Note_on_c, 0, 65, 43
2, 13634, Note_on_c, 0, 62, 36
2, 13638, Note_on_c, 0, 58, 34
2, 13644, Note_on_c, 0, 57, 25
2, 13702, Note_on_c, 0, 58, 0
2, 13702, Note_on_c, 0, 62, 0
2, 13704, Note_on_c, 0, 57, 0
2, 13723, Note_on_c, 0, 58, 42
2, 13724, Note_on_c, 0, 62, 44
2, 13726, Note_on_c, 0, 57, 28
2, 13773, Note_on_c, 0, 58, 0
2, 13775, Note_on_c, 0, 62, 0
2, 13784, Note_on_c, 0, 57, 0
2, 13809, Note_on_c, 0, 58, 42
2, 13809, Note_on_c, 0, 62, 40
2, 13810, Note_on_c, 0, 57, 24
2, 13840, Note_on_c, 0, 62, 0
2, 13842, Note_on_c, 0, 65, 0
2, 13849, Note_on_c, 0, 58, 0
2, 13850, Note_on_c, 0, 57, 0
2, 13865, Note_on_c, 0, 74, 73
2, 13908, Note_on_c, 0, 74, 0
2, 13919, Note_on_c, 0, 47, 62
2, 13920, Note_on_c, 0, 77, 78
2, 13922, Control_c, 0, 64, 0
2, 13937, Note_on_c, 0, 47, 0
2, 13944, Control_c, 0, 64, 127
2, 13993, Note_on_c, 0, 57, 38
2, 14031, Note_on_c, 0, 57, 0
2, 14055, Note_on_c, 0, 57, 37
2, 14057, Note_on_c, 0, 62, 43
2, 14057, Note_on_c, 0, 65, 38
2, 14075, Note_on_c, 0, 65, 0
2, 14079, Note_on_c, 0, 62, 0
2, 14087, Note_on_c, 0, 57, 0
2, 14113, Note_on_c, 0, 77, 0
2, 14119, Note_on_c, 0, 76, 68
2, 14138, Note_on_c, 0, 76, 0
2, 14190, Note_on_c, 0, 28, 60
2, 14195, Control_c, 0, 64, 0
2, 14208, Note_on_c, 0, 28, 0
2, 14211, Control_c, 0, 64, 127
2, 14286, Note_on_c, 0, 83, 63
2, 14287, Note_on_c, 0, 56, 39
2, 14288, Note_on_c, 0, 71, 55
2, 14289, Note_on_c, 0, 80, 40
2, 14291, Note_on_c, 0, 76, 54
2, 14291, Note_on_c, 0, 67, 49
2, 14294, Note_on_c, 0, 62, 34
2, 14337, Note_on_c, 0, 62, 0
2, 14339, Note_on_c, 0, 56, 0
2, 14342, Note_on_c, 0, 76, 0
2, 14343, Note_on_c, 0, 71, 0
2, 14344, Note_on_c, 0, 67, 0
2, 14345, Note_on_c, 0, 83, 0
2, 14350, Note_on_c, 0, 80, 0
2, 14390, Note_on_c, 0, 83, 56
2, 14390, Note_on_c, 0, 67, 53
2, 14391, Note_on_c, 0, 80, 31
2, 14391, Note_on_c, 0, 71, 48
2, 14392, Note_on_c, 0, 62, 49
2, 14392, Note_on_c, 0, 76, 51
2, 14393, Note_on_c, 0, 56, 35
2, 14442, Note_on_c, 0, 62, 0
2, 14449, Note_on_c, 0, 56, 0
2, 14450, Note_on_c, 0, 67, 0
2, 14458, Note_on_c, 0, 76, 0
2, 14499, Note_on_c, 0, 71, 0
2, 14500, Note_on_c, 0, 80, 0
2, 14510, Note_on_c, 0, 83, 0
2, 14667, Note_on_c, 0, 86, 84
2, 14668, Note_on_c, 0, 56, 63
2, 14669, Note_on_c, 0, 83, 67
2, 14669, Note_on_c, 0, 62, 65
2, 14669, Note_on_c, 0, 74, 72
2, 14671, Note_on_c, 0, 67, 64
2, 14671, Note_on_c, 0, 79, 61
2, 14690, Note_on_c, 0, 67, 0
2, 14692, Note_on_c, 0, 62, 0
2, 14706, Note_on_c, 0, 56, 0
2, 14715, Note_on_c, 0, 86, 0
2, 14718, Note_on_c, 0, 74, 0
2, 14721, Note_on_c, 0, 83, 0
2, 14723, Note_on_c, 0, 79, 0
2, 14899, Note_on_c, 0, 74, 73
2, 14902, Note_on_c, 0, 68, 72
2, 14903, Note_on_c, 0, 58, 75
2, 14903, Note_on_c, 0, 64, 71
2, 14908, Note_on_c, 0, 73, 25
2, 14913, Control_c, 0, 64, 0
2, 14914, Note_on_c, 0, 73, 0
2, 14935, Control_c, 0, 64, 127
2, 14968, Note_on_c, 0, 74, 0
2, 14976, Note_on_c, 0, 64, 0
2, 14980, Note_on_c, 0, 58, 0
2, 14982, Note_on_c, 0, 68, 0
2, 14990, Note_on_c, 0, 72, 66
2, 14990, Note_on_c, 0, 57, 69
2, 14992, Note_on_c, 0, 67, 77
2, 14992, Note_on_c, 0, 62, 70
2, 14993, Control_c, 0, 64, 0
2, 15038, Note_on_c, 0, 72, 0
2, 15041, Control_c, 0, 64, 127
2, 15047, Note_on_c, 0, 67, 0
2, 15059, Note_on_c, 0, 62, 0
2, 15072, Note_on_c, 0, 69, 62
2, 15075, Note_on_c, 0, 53, 54
2, 15076, Note_on_c, 0, 64, 64
2, 15077, Note_on_c, 0, 57, 0
2, 15078, Note_on_c, 0, 60, 58
2, 15090, Note_on_c, 0, 53, 0
2, 15094, Note_on_c, 0, 64, 0
2, 15097, Note_on_c, 0, 69, 0
2, 15102, Note_on_c, 0, 60, 0
2, 15164, Note_on_c, 0, 65, 54
2, 15166, Note_on_c, 0, 60, 56
2, 15167, Note_on_c, 0, 57, 54
2, 15167, Note_on_c, 0, 41, 42
2, 15168, Control_c, 0, 64, 0
2, 15168, Note_on_c, 0, 48, 46
2, 15175, Note_on_c, 0, 62, 32
2, 15190, Control_c, 0, 64, 127
2, 15191, Note_on_c, 0, 41, 0
2, 15194, Note_on_c, 0, 48, 0
2, 15206, Note_on_c, 0, 57, 0
2, 15210, Note_on_c, 0, 62, 0
2, 15214, Note_on_c, 0, 60, 0
2, 15221, Note_on_c, 0, 65, 0
2, 15387, Note_on_c, 0, 72, 60
2, 15388, Note_on_c, 0, 66, 42
2, 15388, Note_on_c, 0, 62, 47
2, 15389, Note_on_c, 0, 69, 54
2, 15389, Note_on_c, 0, 46, 35
2, 15394, Note_on_c, 0, 53, 37
2, 15396, Control_c, 0, 64, 0
2, 15463, Control_c, 0, 64, 127
2, 15477, Control_c, 0, 64, 0
2, 15479, Note_on_c, 0, 53, 0
2, 15480, Note_on_c, 0, 54, 53
2, 15505, Control_c, 0, 64, 127
2, 15566, Note_on_c, 0, 54, 0
2, 15586, Note_on_c, 0, 55, 47
2, 15593, Control_c, 0, 64, 0
2, 15611, Control_c, 0, 64, 127
2, 15672, Note_on_c, 0, 72, 0
2, 15681, Note_on_c, 0, 69, 0
2, 15697, Note_on_c, 0, 70, 64
2, 15737, Note_on_c, 0, 55, 0
2, 15746, Note_on_c, 0, 46, 0
2, 15822, Note_on_c, 0, 70, 0
2, 15844, Note_on_c, 0, 70, 62
2, 15874, Note_on_c, 0, 66, 0
2, 15892, Note_on_c, 0, 62, 0
2, 15919, Note_on_c, 0, 70, 0
2, 15921, Note_on_c, 0, 62, 48
2, 15970, Note_on_c, 0, 62, 0
2, 15990, Note_on_c, 0, 62, 53
2, 16037, Note_on_c, 0, 62, 0
2, 16049, Note_on_c, 0, 65, 66
2, 16084, Note_on_c, 0, 65, 0
2, 16117, Note_on_c, 0, 65, 68
2, 16117, Note_on_c, 0, 40, 47
2, 16120, Control_c, 0, 64, 0
2, 16121, Note_on_c, 0, 55, 45
2, 16122, Note_on_c, 0, 47, 35
2, 16138, Control_c, 0, 64, 127
2, 16178, Note_on_c, 0, 65, 0
2, 16184, Note_on_c, 0, 69, 75
2, 16232, Note_on_c, 0, 55, 0
2, 16233, Note_on_c, 0, 69, 0
2, 16258, Note_on_c, 0, 69, 79
2, 16258, Note_on_c, 0, 55, 46
2, 16309, Note_on_c, 0, 40, 0
2, 16319, Note_on_c, 0, 47, 0
2, 16327, Note_on_c, 0, 62, 66
2, 16334, Note_on_c, 0, 55, 0
2, 16367, Note_on_c, 0, 62, 0
2, 16415, Note_on_c, 0, 61, 59
2, 16417, Note_on_c, 0, 45, 32
2, 16422, Note_on_c, 0, 55, 22
2, 16427, Control_c, 0, 64, 0
2, 16471, Note_on_c, 0, 61, 0
2, 16488, Note_on_c, 0, 61, 47
2, 16489, Note_on_c, 0, 63, 57
2, 16507, Note_on_c, 0, 61, 0
2, 16515, Note_on_c, 0, 63, 0
2, 16564, Note_on_c, 0, 61, 56
2, 16566, Note_on_c, 0, 63, 43
2, 16580, Note_on_c, 0, 61, 0
2, 16586, Note_on_c, 0, 63, 0
2, 16644, Note_on_c, 0, 61, 60
2, 16647, Note_on_c, 0, 63, 47
2, 16658, Control_c, 0, 64, 127
2, 16669, Note_on_c, 0, 45, 0
2, 16694, Note_on_c, 0, 63, 0
2, 16697, Note_on_c, 0, 61, 0
2, 16698, Note_on_c, 0, 55, 0
2, 16725, Note_on_c, 0, 62, 58
2, 16726, Control_c, 0, 64, 0
2, 16729, Note_on_c, 0, 64, 54
2, 16736, Note_on_c, 0, 57, 25
2, 16778, Control_c, 0, 64, 127
2, 16799, Note_on_c, 0, 50, 41
2, 16800, Note_on_c, 0, 64, 0
2, 16802, Note_on_c, 0, 62, 0
2, 16811, Note_on_c, 0, 69, 0
2, 16811, Note_on_c, 0, 57, 0
2, 16872, Note_on_c, 0, 64, 34
2, 16875, Note_on_c, 0, 67, 34
2, 16876, Note_on_c, 0, 60, 36
2, 16878, Note_on_c, 0, 69, 34
2, 16923, Note_on_c, 0, 50, 0
2, 16936, Note_on_c, 0, 60, 0
2, 16940, Note_on_c, 0, 64, 0
2, 16949, Note_on_c, 0, 72, 48
2, 16954, Note_on_c, 0, 69, 0
2, 16958, Note_on_c, 0, 67, 0
2, 16971, Note_on_c, 0, 72, 0
2, 17034, Note_on_c, 0, 77, 51
2, 17035, Note_on_c, 0, 66, 39
2, 17036, Note_on_c, 0, 72, 44
2, 17036, Note_on_c, 0, 68, 40
2, 17036, Note_on_c, 0, 69, 43
2, 17037, Note_on_c, 0, 74, 50
2, 17042, Control_c, 0, 64, 0
2, 17080, Control_c, 0, 64, 127
2, 17150, Note_on_c, 0, 77, 0
2, 17178, Note_on_c, 0, 77, 54
2, 17270, Note_on_c, 0, 77, 0
2, 17306, Note_on_c, 0, 77, 45
2, 17317, Note_on_c, 0, 74, 0
2, 17337, Note_on_c, 0, 72, 0
2, 17348, Note_on_c, 0, 77, 0
2, 17362, Note_on_c, 0, 68, 0
2, 17379, Note_on_c, 0, 66, 0
2, 17390, Note_on_c, 0, 69, 0
2, 17396, Note_on_c, 0, 72, 47
2, 17466, Note_on_c, 0, 72, 0
2, 17477, Note_on_c, 0, 69, 44
2, 17484, Note_on_c, 0, 43, 37
2, 17495, Control_c, 0, 64, 0
2, 17519, Control_c, 0, 64, 127
2, 17547, Note_on_c, 0, 50, 37
2, 17575, Note_on_c, 0, 43, 0
2, 17593, Note_on_c, 0, 50, 0
2, 17609, Note_on_c, 0, 65, 37
2, 17611, Note_on_c, 0, 57, 42
2, 17616, Note_on_c, 0, 62, 27
2, 17663, Note_on_c, 0, 62, 0
2, 17672, Note_on_c, 0, 65, 0
2, 17675, Note_on_c, 0, 57, 0
2, 17675, Note_on_c, 0, 58, 47
2, 17681, Note_on_c, 0, 69, 0
2, 17745, Note_on_c, 0, 62, 51
2, 17796, Note_on_c, 0, 69, 59
2, 17802, Note_on_c, 0, 65, 29
2, 17832, Note_on_c, 0, 69, 0
2, 17837, Note_on_c, 0, 70, 67
2, 17863, Note_on_c, 0, 70, 0
2, 17886, Note_on_c, 0, 74, 73
2, 17913, Note_on_c, 0, 74, 0
2, 17926, Note_on_c, 0, 77, 69
2, 17935, Note_on_c, 0, 62, 0
2, 17946, Note_on_c, 0, 58, 0
2, 17952, Note_on_c, 0, 65, 0
2, 17960, Note_on_c, 0, 77, 0
2, 17969, Note_on_c, 0, 81, 81
2, 18004, Note_on_c, 0, 81, 0
2, 18009, Note_on_c, 0, 82, 73
2, 18037, Note_on_c, 0, 82, 0
2, 18053, Note_on_c, 0, 61, 39
2, 18056, Note_on_c, 0, 65, 39
2, 18058, Note_on_c, 0, 60, 42
2, 18058, Note_on_c, 0, 84, 39
2, 18059, Note_on_c, 0, 55, 46
2, 18060, Note_on_c, 0, 86, 56
2, 18081, Control_c, 0, 64, 0
2, 18085, Note_on_c, 0, 86, 0
2, 18096, Note_on_c, 0, 89, 63
2, 18138, Note_on_c, 0, 94, 76
2, 18139, Control_c, 0, 64, 127
2, 18176, Note_on_c, 0, 94, 0
2, 18185, Note_on_c, 0, 96, 64
2, 18217, Note_on_c, 0, 96, 0
2, 18236, Note_on_c, 0, 94, 62
2, 18255, Note_on_c, 0, 65, 0
2, 18261, Note_on_c, 0, 60, 0
2, 18262, Note_on_c, 0, 61, 0
2, 18267, Note_on_c, 0, 55, 0
2, 18276, Note_on_c, 0, 94, 0
2, 18286, Note_on_c, 0, 96, 45
2, 18312, Note_on_c, 0, 96, 0
2, 18331, Note_on_c, 0, 94, 61
2, 18370, Note_on_c, 0, 94, 0
2, 18378, Note_on_c, 0, 96, 45
2, 18406, Note_on_c, 0, 96, 0
2, 18426, Note_on_c, 0, 39, 36
2, 18427, Note_on_c, 0, 94, 59
2, 18427, Note_on_c, 0, 46, 34
2, 18431, Control_c, 0, 64, 0
2, 18444, Note_on_c, 0, 39, 0
2, 18446, Control_c, 0, 64, 127
2, 18450, Note_on_c, 0, 46, 0
2, 18541, Note_on_c, 0, 65, 37
2, 18547, Note_on_c, 0, 55, 19
2, 18547, Note_on_c, 0, 60, 33
2, 18550, Note_on_c, 0, 58, 30
2, 18567, Note_on_c, 0, 60, 0
2, 18575, Note_on_c, 0, 65, 0
2, 18579, Note_on_c, 0, 55, 0
2, 18582, Note_on_c, 0, 58, 0
2, 18662, Note_on_c, 0, 58, 25
2, 18662, Note_on_c, 0, 65, 31
2, 18665, Note_on_c, 0, 55, 34
2, 18666, Note_on_c, 0, 60, 37
2, 18792, Note_on_c, 0, 94, 0
2, 18817, Note_on_c, 0, 93, 56
2, 18881, Note_on_c, 0, 93, 0
2, 18883, Note_on_c, 0, 89, 0
2, 18893, Note_on_c, 0, 84, 0
2, 18936, Note_on_c, 0, 60, 0
2, 18940, Note_on_c, 0, 65, 0
2, 18961, Note_on_c, 0, 55, 0
2, 18985, Note_on_c, 0, 58, 0
2, 19005, Note_on_c, 0, 81, 80
2, 19005, Note_on_c, 0, 65, 72
2, 19005, Note_on_c, 0, 76, 77
2, 19005, Note_on_c, 0, 72, 80
2, 19019, Control_c, 0, 64, 0
2, 19031, Control_c, 0, 64, 127
2, 19045, Note_on_c, 0, 81, 0
2, 19048, Note_on_c, 0, 76, 0
2, 19053, Note_on_c, 0, 72, 0
2, 19083, Note_on_c, 0, 65, 0
2, 19106, Note_on_c, 0, 76, 53
2, 19107, Note_on_c, 0, 67, 60
2, 19107, Note_on_c, 0, 69, 64
2, 19108, Note_on_c, 0, 72, 51
2, 19113, Note_on_c, 0, 60, 48
2, 19115, Control_c, 0, 64, 0
2, 19127, Control_c, 0, 64, 127
2, 19157, Note_on_c, 0, 60, 0
2, 19163, Note_on_c, 0, 67, 0
2, 19167, Note_on_c, 0, 69, 0
2, 19169, Note_on_c, 0, 72, 0
2, 19173, Note_on_c, 0, 76, 0
2, 19197, Note_on_c, 0, 75, 25
2, 19206, Note_on_c, 0, 75, 0
2, 19242, Note_on_c, 0, 79, 45
2, 19243, Note_on_c, 0, 72, 46
2, 19244, Note_on_c, 0, 76, 51
2, 19245, Note_on_c, 0, 46, 34
2, 19246, Note_on_c, 0, 56, 33
2, 19248, Note_on_c, 0, 67, 36
2, 19262, Control_c, 0, 64, 0
2, 19300, Control_c, 0, 64, 127
2, 19372, Note_on_c, 0, 67, 0
2, 19377, Note_on_c, 0, 76, 0
2, 19379, Note_on_c, 0, 79, 0
2, 19381, Note_on_c, 0, 46, 0
2, 19383, Note_on_c, 0, 56, 0
2, 19388, Note_on_c, 0, 72, 0
2, 19590, Note_on_c, 0, 77, 40
2, 19594, Note_on_c, 0, 72, 38
2, 19595, Note_on_c, 0, 67, 35
2, 19595, Note_on_c, 0, 65, 34
2, 19596, Note_on_c, 0, 56, 27
2, 19596, Note_on_c, 0, 46, 25
2, 19653, Note_on_c, 0, 77, 0
2, 19663, Note_on_c, 0, 56, 0
2, 19672, Note_on_c, 0, 72, 0
2, 19674, Note_on_c, 0, 46, 0
2, 19695, Note_on_c, 0, 67, 0
2, 19703, Note_on_c, 0, 65, 0
2, 19787, Note_on_c, 0, 72, 62
2, 19788, Note_on_c, 0, 63, 62
2, 19789, Note_on_c, 0, 67, 62
2, 19791, Note_on_c, 0, 69, 53
2, 19792, Note_on_c, 0, 62, 66
2, 19813, Control_c, 0, 64, 0
2, 19823, Control_c, 0, 64, 127
2, 19926, Note_on_c, 0, 50, 47
2, 19948, Control_c, 0, 64, 0
2, 19958, Control_c, 0, 64, 127
2, 19999, Note_on_c, 0, 62, 0
2, 20003, Note_on_c, 0, 67, 0
2, 20014, Note_on_c, 0, 63, 0
2, 20120, Note_on_c, 0, 72, 0
2, 20120, Note_on_c, 0, 67, 56
2, 20123, Note_on_c, 0, 69, 0
2, 20157, Note_on_c, 0, 72, 47
2, 20168, Note_on_c, 0, 67, 0
2, 20211, Note_on_c, 0, 66, 46
2, 20213, Note_on_c, 0, 64, 41
2, 20218, Note_on_c, 0, 60, 30
2, 20228, Control_c, 0, 64, 0
2, 20277, Control_c, 0, 64, 127
2, 20286, Note_on_c, 0, 50, 0
2, 20308, Note_on_c, 0, 50, 36
2, 20335, Note_on_c, 0, 60, 0
2, 20361, Note_on_c, 0, 64, 0
2, 20373, Note_on_c, 0, 66, 0
2, 20583, Note_on_c, 0, 50, 0
2, 20593, Note_on_c, 0, 72, 0
2, 20687, Note_on_c, 0, 72, 99
2, 20689, Note_on_c, 0, 60, 77
2, 20706, Control_c, 0, 64, 0
2, 20707, Note_on_c, 0, 60, 0
2, 20711, Note_on_c, 0, 72, 0
2, 20874, Note_on_c, 0, 60, 51
2, 20876, Note_on_c, 0, 48, 49
2, 20913, Note_on_c, 0, 48, 0
2, 20913, Note_on_c, 0, 60, 0
2, 20931, Note_on_c, 0, 48, 50
2, 20933, Note_on_c, 0, 60, 54
2, 20947, Note_on_c, 0, 48, 0
2, 20948, Note_on_c, 0, 60, 0
2, 20965, Note_on_c, 0, 60, 41
2, 20966, Note_on_c, 0, 48, 42
2, 20971, Control_c, 0, 64, 127
2, 20974, Note_on_c, 0, 60, 0
2, 20975, Note_on_c, 0, 48, 0
2, 21022, Note_on_c, 0, 70, 63
2, 21035, Control_c, 0, 64, 0
2, 21069, Control_c, 0, 64, 127
2, 21104, Note_on_c, 0, 67, 50
2, 21106, Note_on_c, 0, 55, 47
2, 21108, Note_on_c, 0, 70, 0
2, 21109, Control_c, 0, 64, 0
2, 21217, Control_c, 0, 64, 127
2, 21268, Note_on_c, 0, 67, 0
2, 21279, Note_on_c, 0, 55, 0
2, 21279, Note_on_c, 0, 57, 45
2, 21282, Note_on_c, 0, 69, 54
2, 21288, Note_on_c, 0, 57, 0
2, 21293, Control_c, 0, 64, 0
2, 21296, Note_on_c, 0, 69, 0
2, 21362, Note_on_c, 0, 65, 46
2, 21363, Note_on_c, 0, 53, 40
2, 21390, Control_c, 0, 64, 127
2, 21519, Note_on_c, 0, 65, 0
2, 21532, Note_on_c, 0, 52, 45
2, 21533, Note_on_c, 0, 53, 0
2, 21551, Note_on_c, 0, 52, 0
2, 21554, Control_c, 0, 64, 0
2, 21559, Note_on_c, 0, 67, 67
2, 21560, Note_on_c, 0, 55, 54
2, 21604, Control_c, 0, 64, 127
2, 21610, Note_on_c, 0, 55, 0
2, 21611, Note_on_c, 0, 67, 0
2, 21619, Note_on_c, 0, 52, 32
2, 21641, Note_on_c, 0, 52, 0
2, 21641, Control_c, 0, 64, 0
2, 21652, Note_on_c, 0, 53, 33
2, 21654, Note_on_c, 0, 65, 49
2, 21671, Control_c, 0, 64, 127
2, 21700, Note_on_c, 0, 65, 0
2, 21704, Note_on_c, 0, 53, 0
2, 21708, Note_on_c, 0, 50, 47
2, 21711, Note_on_c, 0, 62, 29
2, 21717, Control_c, 0, 64, 0
2, 21749, Control_c, 0, 64, 127
2, 21785, Note_on_c, 0, 62, 0
2, 21790, Note_on_c, 0, 50, 0
2, 21793, Note_on_c, 0, 58, 44
2, 21796, Note_on_c, 0, 46, 37
2, 21801, Control_c, 0, 64, 0
2, 21829, Control_c, 0, 64, 127
2, 21869, Note_on_c, 0, 58, 0
2, 21878, Note_on_c, 0, 46, 0
2, 21880, Note_on_c, 0, 61, 51
2, 21883, Note_on_c, 0, 49, 33
2, 21885, Control_c, 0, 64, 0
2, 21913, Control_c, 0, 64, 127
2, 21997, Note_on_c, 0, 49, 0
2, 22035, Note_on_c, 0, 61, 0
2, 22044, Note_on_c, 0, 47, 41
2, 22046, Note_on_c, 0, 59, 40
2, 22061, Note_on_c, 0, 59, 0
2, 22071, Note_on_c, 0, 47, 0
2, 22081, Note_on_c, 0, 60, 51
2, 22082, Control_c, 0, 64, 0
2, 22083, Note_on_c, 0, 48, 40
2, 22168, Control_c, 0, 64, 127
2, 22211, Note_on_c, 0, 60, 0
2, 22220, Note_on_c, 0, 48, 0
2, 22222, Note_on_c, 0, 59, 33
2, 22224, Note_on_c, 0, 47, 42
2, 22235, Note_on_c, 0, 59, 0
2, 22244, Control_c, 0, 64, 0
2, 22254, Note_on_c, 0, 47, 0
2, 22255, Note_on_c, 0, 60, 74
2, 22259, Note_on_c, 0, 48, 58
2, 22296, Note_on_c, 0, 48, 0
2, 22297, Note_on_c, 0, 60, 0
2, 22300, Control_c, 0, 64, 127
2, 22310, Note_on_c, 0, 48, 50
2, 22312, Note_on_c, 0, 60, 65
2, 22333, Note_on_c, 0, 60, 0
2, 22338, Control_c, 0, 64, 0
2, 22343, Note_on_c, 0, 62, 90
2, 22343, Note_on_c, 0, 50, 82
2, 22345, Note_on_c, 0, 48, 0
2, 22363, Control_c, 0, 64, 127
2, 22413, Note_on_c, 0, 62, 0
2, 22416, Note_on_c, 0, 50, 0
2, 22429, Control_c, 0, 64, 0
2, 22433, Note_on_c, 0, 63, 83
2, 22433, Note_on_c, 0, 51, 69
2, 22465, Control_c, 0, 64, 127
2, 22493, Note_on_c, 0, 51, 0
2, 22495, Control_c, 0, 64, 0
2, 22499, Note_on_c, 0, 63, 0
2, 22500, Note_on_c, 0, 50, 60
2, 22502, Note_on_c, 0, 62, 62
2, 22515, Control_c, 0, 64, 127
2, 22561, Note_on_c, 0, 62, 0
2, 22564, Note_on_c, 0, 50, 0
2, 22581, Note_on_c, 0, 69, 66
2, 22581, Note_on_c, 0, 57, 54
2, 22584, Control_c, 0, 64, 0
2, 22614, Control_c, 0, 64, 127
2, 22740, Note_on_c, 0, 69, 0
2, 22757, Note_on_c, 0, 57, 0
2, 22757, Note_on_c, 0, 54, 38
2, 22765, Note_on_c, 0, 54, 0
2, 22778, Note_on_c, 0, 57, 58
2, 22778, Note_on_c, 0, 69, 94
2, 22779, Control_c, 0, 64, 0
2, 22832, Note_on_c, 0, 69, 0
2, 22848, Note_on_c, 0, 57, 0
2, 22872, Note_on_c, 0, 61, 52
2, 22874, Note_on_c, 0, 49, 38
2, 22932, Note_on_c, 0, 61, 0
2, 22950, Note_on_c, 0, 49, 0
2, 22962, Note_on_c, 0, 62, 43
2, 22963, Note_on_c, 0, 50, 32
2, 22981, Control_c, 0, 64, 127
2, 23017, Note_on_c, 0, 62, 0
2, 23026, Note_on_c, 0, 50, 0
2, 23030, Note_on_c, 0, 64, 54
2, 23030, Note_on_c, 0, 52, 36
2, 23035, Control_c, 0, 64, 0
2, 23057, Note_on_c, 0, 64, 0
2, 23064, Control_c, 0, 64, 127
2, 23086, Note_on_c, 0, 52, 0
2, 23113, Note_on_c, 0, 53, 38
2, 23113, Note_on_c, 0, 65, 67
2, 23114, Control_c, 0, 64, 0
2, 23146, Control_c, 0, 64, 127
2, 23184, Note_on_c, 0, 65, 0
2, 23191, Note_on_c, 0, 53, 0
2, 23194, Note_on_c, 0, 64, 57
2, 23195, Note_on_c, 0, 52, 47
2, 23204, Note_on_c, 0, 64, 0
2, 23206, Note_on_c, 0, 52, 0
2, 23282, Note_on_c, 0, 60, 61
2, 23283, Note_on_c, 0, 72, 80
2, 23308, Control_c, 0, 64, 0
2, 23310, Note_on_c, 0, 60, 0
2, 23311, Note_on_c, 0, 72, 0
2, 23323, Note_on_c, 0, 58, 34
2, 23325, Note_on_c, 0, 70, 40
2, 23348, Control_c, 0, 64, 127
2, 23362, Note_on_c, 0, 70, 0
2, 23366, Note_on_c, 0, 58, 0
2, 23373, Note_on_c, 0, 71, 69
2, 23375, Note_on_c, 0, 59, 47
2, 23384, Control_c, 0, 64, 0
2, 23396, Note_on_c, 0, 59, 0
2, 23398, Note_on_c, 0, 71, 0
2, 23413, Note_on_c, 0, 56, 34
2, 23427, Note_on_c, 0, 56, 0
2, 23435, Control_c, 0, 64, 127
2, 23475, Note_on_c, 0, 65, 30
2, 23484, Note_on_c, 0, 65, 0
2, 23497, Control_c, 0, 64, 0
2, 23501, Note_on_c, 0, 73, 67
2, 23509, Note_on_c, 0, 61, 57
2, 23518, Note_on_c, 0, 61, 0
2, 23532, Note_on_c, 0, 61, 23
2, 23541, Control_c, 0, 64, 127
2, 23548, Note_on_c, 0, 73, 0
2, 23551, Note_on_c, 0, 61, 0
2, 23564, Note_on_c, 0, 70, 21
2, 23573, Control_c, 0, 64, 0
2, 23574, Note_on_c, 0, 70, 0
2, 23592, Note_on_c, 0, 72, 67
2, 23594, Note_on_c, 0, 60, 51
2, 23609, Control_c, 0, 64, 127
2, 23643, Note_on_c, 0, 60, 0
2, 23645, Note_on_c, 0, 72, 0
2, 23648, Note_on_c, 0, 69, 59
2, 23649, Control_c, 0, 64, 0
2, 23654, Note_on_c, 0, 57, 32
2, 23672, Note_on_c, 0, 69, 0
2, 23679, Note_on_c, 0, 57, 0
2, 23681, Control_c, 0, 64, 127
2, 23692, Note_on_c, 0, 65, 40
2, 23693, Note_on_c, 0, 53, 28
2, 23721, Note_on_c, 0, 53, 0
2, 23726, Note_on_c, 0, 65, 0
2, 23747, Control_c, 0, 64, 0
2, 23751, Note_on_c, 0, 50, 47
2, 23762, Note_on_c, 0, 50, 0
2, 23794, Control_c, 0, 64, 127
2, 23834, Control_c, 0, 64, 0
2, 23836, Note_on_c, 0, 72, 74
2, 23837, Note_on_c, 0, 60, 65
2, 23858, Note_on_c, 0, 60, 0
2, 23860, Note_on_c, 0, 72, 0
2, 23890, Control_c, 0, 64, 127
2, 23916, Control_c, 0, 64, 0
2, 23917, Note_on_c, 0, 70, 71
2, 23921, Note_on_c, 0, 58, 50
2, 23986, Control_c, 0, 64, 127
2, 24024, Control_c, 0, 64, 0
2, 24033, Note_on_c, 0, 58, 0
2, 24035, Note_on_c, 0, 65, 51
2, 24037, Note_on_c, 0, 53, 31
2, 24044, Control_c, 0, 64, 127
2, 24060, Note_on_c, 0, 65, 0
2, 24075, Note_on_c, 0, 53, 0
2, 24092, Note_on_c, 0, 53, 18
2, 24093, Note_on_c, 0, 65, 38
2, 24106, Note_on_c, 0, 65, 0
2, 24108, Control_c, 0, 64, 0
2, 24114, Note_on_c, 0, 70, 0
2, 24116, Note_on_c, 0, 53, 0
2, 24118, Note_on_c, 0, 55, 50
2, 24120, Note_on_c, 0, 67, 54
2, 24127, Control_c, 0, 64, 127
2, 24170, Note_on_c, 0, 67, 0
2, 24185, Note_on_c, 0, 55, 0
2, 24197, Control_c, 0, 64, 0
2, 24209, Note_on_c, 0, 69, 53
2, 24210, Note_on_c, 0, 57, 40
2, 24245, Control_c, 0, 64, 127
2, 24259, Note_on_c, 0, 57, 0
2, 24268, Note_on_c, 0, 69, 0
2, 24379, Control_c, 0, 64, 0
2, 24389, Control_c, 0, 64, 127
2, 24390, Note_on_c, 0, 84, 51
2, 24390, Note_on_c, 0, 61, 34
2, 24391, Note_on_c, 0, 55, 39
2, 24392, Note_on_c, 0, 65, 33
2, 24394, Note_on_c, 0, 77, 30
2, 24396, Note_on_c, 0, 72, 29
2, 24398, Note_on_c, 0, 81, 28
2, 24419, Note_on_c, 0, 72, 0
2, 24420, Note_on_c, 0, 77, 0
2, 24427, Note_on_c, 0, 81, 0
2, 24428, Note_on_c, 0, 55, 0
2, 24430, Note_on_c, 0, 84, 0
2, 24434, Note_on_c, 0, 65, 0
2, 24442, Note_on_c, 0, 61, 0
2, 24456, Note_on_c, 0, 61, 55
2, 24456, Note_on_c, 0, 65, 36
2, 24457, Note_on_c, 0, 89, 70
2, 24458, Note_on_c, 0, 55, 43
2, 24458, Note_on_c, 0, 88, 25
2, 24465, Control_c, 0, 64, 0
2, 24466, Note_on_c, 0, 88, 0
2, 24469, Note_on_c, 0, 65, 0
2, 24470, Note_on_c, 0, 55, 0
2, 24470, Note_on_c, 0, 89, 0
2, 24476, Note_on_c, 0, 61, 0
2, 24494, Control_c, 0, 64, 127
2, 24577, Note_on_c, 0, 89, 47
2, 24579, Note_on_c, 0, 101, 50
2, 24579, Note_on_c, 0, 65, 44
2, 24580, Note_on_c, 0, 54, 38
2, 24583, Note_on_c, 0, 96, 28
2, 24583, Note_on_c, 0, 60, 45
2, 24584, Note_on_c, 0, 58, 32
2, 24608, Note_on_c, 0, 96, 0
2, 24608, Note_on_c, 0, 101, 0
2, 24619, Note_on_c, 0, 89, 0
2, 24619, Note_on_c, 0, 65, 0
2, 24620, Note_on_c, 0, 60, 0
2, 24622, Note_on_c, 0, 54, 0
2, 24626, Note_on_c, 0, 58, 0
2, 24646, Note_on_c, 0, 65, 53
2, 24647, Note_on_c, 0, 54, 32
2, 24647, Note_on_c, 0, 98, 41
2, 24650, Note_on_c, 0, 58, 32
2, 24651, Note_on_c, 0, 86, 28
2, 24652, Note_on_c, 0, 93, 38
2, 24653, Note_on_c, 0, 60, 40
2, 24659, Note_on_c, 0, 65, 0
2, 24661, Note_on_c, 0, 93, 0
2, 24661, Note_on_c, 0, 60, 0
2, 24664, Note_on_c, 0, 54, 0
2, 24664, Control_c, 0, 64, 0
2, 24665, Note_on_c, 0, 86, 0
2, 24665, Note_on_c, 0, 98, 0
2, 24668, Note_on_c, 0, 58, 0
2, 24696, Control_c, 0, 64, 127
2, 24742, Control_c, 0, 64, 0
2, 24766, Control_c, 0, 64, 127
2, 24770, Note_on_c, 0, 92, 54
2, 24772, Note_on_c, 0, 54, 38
2, 24772, Note_on_c, 0, 80, 43
2, 24775, Note_on_c, 0, 60, 41
2, 24780, Note_on_c, 0, 86, 49
2, 24781, Note_on_c, 0, 89, 31
2, 24785, Note_on_c, 0, 80, 0
2, 24792, Note_on_c, 0, 81, 30
2, 24798, Note_on_c, 0, 92, 0
2, 24807, Note_on_c, 0, 89, 0
2, 24808, Note_on_c, 0, 81, 0
2, 24816, Note_on_c, 0, 86, 0
2, 24817, Note_on_c, 0, 54, 0
2, 24827, Note_on_c, 0, 60, 0
2, 24843, Note_on_c, 0, 54, 37
2, 24845, Note_on_c, 0, 60, 29
2, 24845, Note_on_c, 0, 65, 37
2, 24847, Note_on_c, 0, 74, 56
2, 24850, Control_c, 0, 64, 0
2, 24855, Note_on_c, 0, 74, 0
2, 24855, Note_on_c, 0, 65, 0
2, 24863, Note_on_c, 0, 60, 0
2, 24870, Note_on_c, 0, 54, 0
2, 24889, Control_c, 0, 64, 127
2, 24961, Control_c, 0, 64, 0
2, 24962, Note_on_c, 0, 89, 68
2, 24962, Note_on_c, 0, 58, 55
2, 24963, Note_on_c, 0, 86, 75
2, 24964, Note_on_c, 0, 77, 41
2, 24965, Note_on_c, 0, 62, 53
2, 24966, Note_on_c, 0, 57, 42
2, 24969, Note_on_c, 0, 86, 0
2, 24969, Note_on_c, 0, 89, 0
2, 24971, Note_on_c, 0, 62, 0
2, 24974, Note_on_c, 0, 77, 0
2, 24974, Note_on_c, 0, 57, 0
2, 24977, Note_on_c, 0, 58, 0
2, 25058, Note_on_c, 0, 68, 54
2, 25062, Note_on_c, 0, 56, 54
2, 25063, Note_on_c, 0, 57, 70
2, 25063, Note_on_c, 0, 69, 71
2, 25078, Note_on_c, 0, 56, 0
2, 25078, Note_on_c, 0, 68, 0
2, 25107, Note_on_c, 0, 69, 0
2, 25121, Note_on_c, 0, 57, 0
2, 25136, Note_on_c, 0, 54, 18
2, 25147, Note_on_c, 0, 56, 32
2, 25148, Note_on_c, 0, 54, 0
2, 25155, Note_on_c, 0, 69, 70
2, 25158, Note_on_c, 0, 57, 52
2, 25163, Control_c, 0, 64, 127
2, 25167, Note_on_c, 0, 56, 0
2, 25210, Note_on_c, 0, 69, 0
2, 25214, Note_on_c, 0, 57, 0
2, 25215, Note_on_c, 0, 68, 33
2, 25218, Note_on_c, 0, 56, 32
2, 25230, Note_on_c, 0, 68, 0
2, 25236, Control_c, 0, 64, 0
2, 25243, Note_on_c, 0, 69, 66
2, 25247, Note_on_c, 0, 56, 0
2, 25250, Note_on_c, 0, 57, 48
2, 25260, Control_c, 0, 64, 127
2, 25294, Note_on_c, 0, 69, 0
2, 25302, Note_on_c, 0, 68, 36
2, 25303, Note_on_c, 0, 57, 0
2, 25309, Note_on_c, 0, 56, 30
2, 25317, Note_on_c, 0, 68, 0
2, 25322, Control_c, 0, 64, 0
2, 25329, Note_on_c, 0, 56, 0
2, 25334, Note_on_c, 0, 69, 77
2, 25335, Note_on_c, 0, 57, 55
2, 25344, Control_c, 0, 64, 127
2, 25382, Note_on_c, 0, 57, 0
2, 25382, Note_on_c, 0, 69, 0
2, 25395, Note_on_c, 0, 58, 59
2, 25396, Note_on_c, 0, 70, 74
2, 25408, Control_c, 0, 64, 0
2, 25420, Control_c, 0, 64, 127
2, 25464, Note_on_c, 0, 58, 0
2, 25470, Note_on_c, 0, 70, 0
2, 25477, Note_on_c, 0, 53, 52
2, 25478, Control_c, 0, 64, 0
2, 25480, Note_on_c, 0, 65, 60
2, 25506, Control_c, 0, 64, 127
2, 25548, Note_on_c, 0, 65, 0
2, 25554, Note_on_c, 0, 53, 0
2, 25562, Note_on_c, 0, 67, 67
2, 25564, Note_on_c, 0, 55, 50
2, 25567, Control_c, 0, 64, 0
2, 25591, Control_c, 0, 64, 127
2, 25606, Note_on_c, 0, 67, 0
2, 25671, Note_on_c, 0, 55, 0
2, 25681, Control_c, 0, 64, 0
2, 25684, Note_on_c, 0, 69, 91
2, 25684, Note_on_c, 0, 57, 58
2, 25725, Control_c, 0, 64, 127
2, 25730, Note_on_c, 0, 69, 0
2, 25738, Note_on_c, 0, 57, 0
2, 25744, Note_on_c, 0, 68, 33
2, 25745, Note_on_c, 0, 56, 33
2, 25755, Control_c, 0, 64, 0
2, 25767, Note_on_c, 0, 68, 0
2, 25771, Note_on_c, 0, 56, 0
2, 25773, Control_c, 0, 64, 127
2, 25777, Note_on_c, 0, 57, 30
2, 25781, Note_on_c, 0, 69, 56
2, 25795, Note_on_c, 0, 57, 0
2, 25811, Note_on_c, 0, 69, 0
2, 25834, Note_on_c, 0, 60, 51
2, 25834, Note_on_c, 0, 72, 79
2, 25854, Note_on_c, 0, 60, 0
2, 25857, Control_c, 0, 64, 0
2, 25859, Note_on_c, 0, 72, 0
2, 25870, Note_on_c, 0, 57, 52
2, 25873, Note_on_c, 0, 69, 58
2, 25878, Control_c, 0, 64, 127
2, 25910, Note_on_c, 0, 69, 0
2, 25916, Note_on_c, 0, 57, 0
2, 25930, Note_on_c, 0, 65, 49
2, 25934, Note_on_c, 0, 53, 38
2, 25936, Control_c, 0, 64, 0
2, 25943, Note_on_c, 0, 65, 0
2, 25946, Note_on_c, 0, 53, 0
2, 25976, Control_c, 0, 64, 127
2, 26048, Control_c, 0, 64, 0
2, 26048, Note_on_c, 0, 58, 62
2, 26052, Note_on_c, 0, 70, 79
2, 26082, Control_c, 0, 64, 127
2, 26090, Note_on_c, 0, 70, 0
2, 26091, Note_on_c, 0, 58, 0
2, 26102, Note_on_c, 0, 67, 64
2, 26106, Note_on_c, 0, 55, 48
2, 26122, Control_c, 0, 64, 0
2, 26127, Note_on_c, 0, 67, 0
2, 26129, Note_on_c, 0, 55, 0
2, 26142, Note_on_c, 0, 64, 43
2, 26168, Control_c, 0, 64, 127
2, 26171, Note_on_c, 0, 64, 0
2, 26189, Note_on_c, 0, 62, 58
2, 26192, Note_on_c, 0, 50, 47
2, 26208, Note_on_c, 0, 62, 0
2, 26218, Note_on_c, 0, 50, 0
2, 26230, Control_c, 0, 64, 0
2, 26231, Note_on_c, 0, 61, 43
2, 26234, Note_on_c, 0, 49, 25
2, 26261, Control_c, 0, 64, 127
2, 26270, Note_on_c, 0, 61, 0
2, 26287, Note_on_c, 0, 64, 62
2, 26290, Note_on_c, 0, 50, 65
2, 26291, Note_on_c, 0, 49, 0
2, 26298, Note_on_c, 0, 50, 0
2, 26303, Note_on_c, 0, 64, 0
2, 26307, Control_c, 0, 64, 0
2, 26317, Note_on_c, 0, 67, 89
2, 26321, Note_on_c, 0, 52, 60
2, 26345, Control_c, 0, 64, 127
2, 26366, Note_on_c, 0, 67, 0
2, 26369, Note_on_c, 0, 52, 0
2, 26379, Note_on_c, 0, 49, 42
2, 26384, Note_on_c, 0, 64, 34
2, 26395, Note_on_c, 0, 64, 0
2, 26399, Control_c, 0, 64, 0
2, 26400, Note_on_c, 0, 49, 0
2, 26411, Note_on_c, 0, 50, 49
2, 26415, Note_on_c, 0, 65, 61
2, 26431, Control_c, 0, 64, 127
2, 26463, Note_on_c, 0, 65, 0
2, 26472, Note_on_c, 0, 38, 41
2, 26473, Note_on_c, 0, 62, 39
2, 26482, Note_on_c, 0, 38, 0
2, 26492, Note_on_c, 0, 62, 0
2, 26495, Note_on_c, 0, 50, 0
2, 26588, Note_on_c, 0, 61, 62
2, 26589, Note_on_c, 0, 76, 74
2, 26592, Note_on_c, 0, 65, 61
2, 26594, Note_on_c, 0, 69, 55
2, 26670, Note_on_c, 0, 65, 0
2, 26675, Note_on_c, 0, 69, 0
2, 26683, Note_on_c, 0, 61, 0
2, 26684, Note_on_c, 0, 76, 0
2, 26690, Control_c, 0, 64, 0
2, 26693, Note_on_c, 0, 65, 63
2, 26693, Note_on_c, 0, 74, 68
2, 26694, Note_on_c, 0, 69, 65
2, 26697, Note_on_c, 0, 60, 68
2, 26780, Control_c, 0, 64, 127
2, 26782, Note_on_c, 0, 60, 0
2, 26789, Note_on_c, 0, 74, 0
2, 26790, Note_on_c, 0, 69, 0
2, 26796, Note_on_c, 0, 65, 0
2, 26853, Note_on_c, 0, 43, 53
2, 26873, Note_on_c, 0, 43, 0
2, 26944, Note_on_c, 0, 43, 51
2, 26944, Note_on_c, 0, 59, 49
2, 26944, Note_on_c, 0, 67, 47
2, 26945, Note_on_c, 0, 63, 44
2, 26953, Control_c, 0, 64, 0
2, 26979, Control_c, 0, 64, 127
2, 27017, Note_on_c, 0, 59, 0
2, 27028, Note_on_c, 0, 53, 59
2, 27045, Note_on_c, 0, 53, 0
2, 27051, Note_on_c, 0, 43, 0
2, 27076, Note_on_c, 0, 67, 0
2, 27088, Note_on_c, 0, 63, 0
2, 27152, Note_on_c, 0, 61, 53
2, 27152, Note_on_c, 0, 56, 48
2, 27153, Note_on_c, 0, 65, 55
2, 27153, Note_on_c, 0, 51, 36
2, 27154, Control_c, 0, 64, 0
2, 27178, Control_c, 0, 64, 127
2, 27195, Note_on_c, 0, 56, 0
2, 27202, Note_on_c, 0, 65, 0
2, 27238, Note_on_c, 0, 56, 33
2, 27241, Note_on_c, 0, 61, 0
2, 27255, Note_on_c, 0, 51, 0
2, 27257, Note_on_c, 0, 56, 0
2, 27304, Note_on_c, 0, 53, 49
2, 27304, Note_on_c, 0, 67, 58
2, 27305, Note_on_c, 0, 63, 54
2, 27305, Note_on_c, 0, 58, 50
2, 27314, Control_c, 0, 64, 0
2, 27340, Control_c, 0, 64, 127
2, 27376, Note_on_c, 0, 58, 0
2, 27377, Note_on_c, 0, 63, 0
2, 27392, Note_on_c, 0, 63, 23
2, 27400, Note_on_c, 0, 58, 31
2, 27409, Note_on_c, 0, 58, 0
2, 27422, Note_on_c, 0, 67, 0
2, 27436, Note_on_c, 0, 63, 0
2, 27436, Note_on_c, 0, 58, 36
2, 27461, Note_on_c, 0, 58, 0
2, 27491, Note_on_c, 0, 68, 48
2, 27493, Note_on_c, 0, 54, 51
2, 27493, Note_on_c, 0, 59, 52
2, 27494, Note_on_c, 0, 64, 51
2, 27497, Control_c, 0, 64, 0
2, 27500, Note_on_c, 0, 53, 0
2, 27525, Control_c, 0, 64, 127
2, 27554, Note_on_c, 0, 59, 0
2, 27574, Note_on_c, 0, 59, 49
2, 27589, Note_on_c, 0, 59, 0
2, 27589, Note_on_c, 0, 64, 0
2, 27591, Note_on_c, 0, 68, 0
2, 27658, Note_on_c, 0, 70, 57
2, 27660, Note_on_c, 0, 66, 51
2, 27661, Note_on_c, 0, 61, 46
2, 27663, Control_c, 0, 64, 0
2, 27663, Note_on_c, 0, 56, 37
2, 27678, Note_on_c, 0, 54, 0
2, 27679, Control_c, 0, 64, 127
2, 27688, Note_on_c, 0, 61, 0
2, 27689, Note_on_c, 0, 66, 0
2, 27693, Note_on_c, 0, 70, 0
2, 27739, Note_on_c, 0, 56, 0
2, 27744, Note_on_c, 0, 73, 46
2, 27746, Note_on_c, 0, 63, 69
2, 27746, Note_on_c, 0, 58, 59
2, 27747, Note_on_c, 0, 70, 57
2, 27751, Control_c, 0, 64, 0
2, 27769, Control_c, 0, 64, 127
2, 27808, Note_on_c, 0, 73, 0
2, 27810, Note_on_c, 0, 58, 0
2, 27812, Note_on_c, 0, 70, 0
2, 27813, Note_on_c, 0, 63, 0
2, 27832, Control_c, 0, 64, 0
2, 27832, Note_on_c, 0, 72, 54
2, 27833, Note_on_c, 0, 57, 57
2, 27834, Note_on_c, 0, 67, 60
2, 27837, Note_on_c, 0, 62, 54
2, 27870, Control_c, 0, 64, 127
2, 27876, Note_on_c, 0, 67, 0
2, 27887, Note_on_c, 0, 62, 0
2, 27889, Note_on_c, 0, 72, 0
2, 27924, Note_on_c, 0, 57, 0
2, 27925, Note_on_c, 0, 56, 47
2, 27927, Note_on_c, 0, 66, 42
2, 27928, Note_on_c, 0, 61, 43
2, 27932, Note_on_c, 0, 71, 19
2, 27939, Note_on_c, 0, 61, 0
2, 27944, Note_on_c, 0, 66, 0
2, 27945, Note_on_c, 0, 71, 0
2, 27950, Control_c, 0, 64, 0
2, 27956, Note_on_c, 0, 56, 0
2, 27956, Note_on_c, 0, 72, 62
2, 27960, Note_on_c, 0, 57, 57
2, 27961, Note_on_c, 0, 67, 62
2, 27962, Note_on_c, 0, 62, 60
2, 27978, Note_on_c, 0, 67, 0
2, 27979, Note_on_c, 0, 72, 0
2, 27985, Note_on_c, 0, 57, 0
2, 27989, Note_on_c, 0, 62, 0
2, 27994, Control_c, 0, 64, 127
2, 28034, Control_c, 0, 64, 0
2, 28049, Note_on_c, 0, 63, 47
2, 28052, Note_on_c, 0, 55, 43
2, 28054, Note_on_c, 0, 60, 55
2, 28054, Note_on_c, 0, 51, 47
2, 28084, Control_c, 0, 64, 127
2, 28098, Note_on_c, 0, 51, 0
2, 28102, Note_on_c, 0, 60, 0
2, 28103, Note_on_c, 0, 55, 0
2, 28106, Note_on_c, 0, 63, 0
2, 28114, Control_c, 0, 64, 0
2, 28115, Note_on_c, 0, 49, 28
2, 28133, Note_on_c, 0, 51, 49
2, 28141, Note_on_c, 0, 49, 0
2, 28142, Note_on_c, 0, 55, 45
2, 28143, Note_on_c, 0, 63, 43
2, 28144, Control_c, 0, 64, 127
2, 28150, Note_on_c, 0, 55, 0
2, 28154, Note_on_c, 0, 51, 0
2, 28162, Note_on_c, 0, 63, 0
2, 28209, Note_on_c, 0, 67, 75
2, 28210, Note_on_c, 0, 63, 63
2, 28210, Note_on_c, 0, 74, 78
2, 28211, Note_on_c, 0, 62, 68
2, 28212, Note_on_c, 0, 69, 55
2, 28217, Control_c, 0, 64, 0
2, 28255, Control_c, 0, 64, 127
2, 28328, Note_on_c, 0, 50, 43
2, 28367, Note_on_c, 0, 74, 0
2, 28374, Note_on_c, 0, 69, 0
2, 28392, Note_on_c, 0, 72, 57
2, 28400, Note_on_c, 0, 67, 0
2, 28414, Note_on_c, 0, 62, 0
2, 28421, Note_on_c, 0, 63, 0
2, 28430, Note_on_c, 0, 72, 0
2, 28449, Note_on_c, 0, 70, 48
2, 28450, Note_on_c, 0, 66, 45
2, 28451, Note_on_c, 0, 64, 44
2, 28453, Note_on_c, 0, 60, 36
2, 28455, Control_c, 0, 64, 0
2, 28469, Note_on_c, 0, 50, 0
2, 28501, Control_c, 0, 64, 127
2, 28520, Note_on_c, 0, 50, 32
2, 28523, Note_on_c, 0, 60, 0
2, 28532, Note_on_c, 0, 50, 0
2, 28568, Note_on_c, 0, 70, 0
2, 28577, Note_on_c, 0, 66, 0
2, 28580, Note_on_c, 0, 64, 0
2, 28584, Note_on_c, 0, 70, 52
2, 28587, Note_on_c, 0, 44, 44
2, 28590, Note_on_c, 0, 54, 31
2, 28604, Note_on_c, 0, 70, 0
2, 28607, Note_on_c, 0, 54, 0
2, 28610, Note_on_c, 0, 44, 0
2, 28645, Note_on_c, 0, 53, 44
2, 28646, Note_on_c, 0, 43, 34
2, 28646, Control_c, 0, 64, 0
2, 28647, Note_on_c, 0, 62, 61
2, 28648, Note_on_c, 0, 69, 66
2, 28702, Control_c, 0, 64, 127
2, 28726, Note_on_c, 0, 53, 0
2, 28748, Note_on_c, 0, 62, 0
2, 28756, Note_on_c, 0, 69, 0
2, 28784, Control_c, 0, 64, 0
2, 28785, Note_on_c, 0, 58, 45
2, 28785, Note_on_c, 0, 67, 54
2, 28786, Note_on_c, 0, 53, 41
2, 28787, Note_on_c, 0, 62, 44
2, 28806, Control_c, 0, 64, 127
2, 28813, Note_on_c, 0, 43, 0
2, 28833, Note_on_c, 0, 58, 0
2, 28849, Note_on_c, 0, 67, 0
2, 28855, Note_on_c, 0, 62, 0
2, 28863, Note_on_c, 0, 43, 60
2, 28872, Note_on_c, 0, 43, 0
2, 28880, Note_on_c, 0, 53, 0
2, 28979, Control_c, 0, 64, 0
2, 28986, Note_on_c, 0, 77, 81
2, 28987, Note_on_c, 0, 65, 46
2, 28989, Note_on_c, 0, 57, 42
2, 28991, Note_on_c, 0, 62, 33
2, 29005, Note_on_c, 0, 77, 0
2, 29007, Note_on_c, 0, 79, 50
2, 29030, Note_on_c, 0, 77, 42
2, 29034, Note_on_c, 0, 79, 0
2, 29054, Note_on_c, 0, 77, 0
2, 29063, Note_on_c, 0, 76, 27
2, 29073, Note_on_c, 0, 76, 0
2, 29086, Note_on_c, 0, 77, 60
2, 29093, Control_c, 0, 64, 127
2, 29099, Note_on_c, 0, 57, 0
2, 29110, Note_on_c, 0, 65, 0
2, 29117, Note_on_c, 0, 62, 0
2, 29119, Note_on_c, 0, 77, 0
2, 29139, Note_on_c, 0, 79, 60
2, 29145, Note_on_c, 0, 62, 44
2, 29146, Note_on_c, 0, 56, 45
2, 29146, Note_on_c, 0, 65, 45
2, 29147, Control_c, 0, 64, 0
2, 29160, Note_on_c, 0, 79, 0
2, 29189, Control_c, 0, 64, 127
2, 29231, Note_on_c, 0, 83, 72
2, 29231, Note_on_c, 0, 84, 66
2, 29237, Control_c, 0, 64, 0
2, 29244, Note_on_c, 0, 65, 0
2, 29245, Note_on_c, 0, 84, 0
2, 29249, Note_on_c, 0, 83, 0
2, 29251, Note_on_c, 0, 62, 0
2, 29259, Note_on_c, 0, 56, 0
2, 29266, Note_on_c, 0, 86, 108
2, 29270, Control_c, 0, 64, 127
2, 29302, Note_on_c, 0, 86, 0
2, 29317, Note_on_c, 0, 85, 78
2, 29342, Control_c, 0, 64, 0
2, 29351, Note_on_c, 0, 85, 0
2, 29352, Note_on_c, 0, 48, 38
2, 29354, Note_on_c, 0, 41, 45
2, 29356, Note_on_c, 0, 84, 65
2, 29379, Note_on_c, 0, 84, 0
2, 29390, Note_on_c, 0, 41, 0
2, 29390, Note_on_c, 0, 48, 0
2, 29411, Note_on_c, 0, 81, 58
2, 29420, Note_on_c, 0, 81, 0
2, 29459, Note_on_c, 0, 76, 16
2, 29470, Control_c, 0, 64, 127
2, 29487, Note_on_c, 0, 76, 0
2, 29501, Note_on_c, 0, 76, 71
2, 29513, Note_on_c, 0, 64, 49
2, 29516, Control_c, 0, 64, 0
2, 29519, Note_on_c, 0, 57, 37
2, 29520, Note_on_c, 0, 60, 31
2, 29521, Note_on_c, 0, 53, 24
2, 29526, Note_on_c, 0, 76, 0
2, 29529, Note_on_c, 0, 64, 0
2, 29538, Note_on_c, 0, 60, 0
2, 29541, Note_on_c, 0, 57, 0
2, 29544, Note_on_c, 0, 72, 36
2, 29546, Note_on_c, 0, 53, 0
2, 29550, Control_c, 0, 64, 127
2, 29577, Note_on_c, 0, 72, 0
2, 29603, Note_on_c, 0, 72, 57
2, 29616, Note_on_c, 0, 72, 0
2, 29672, Note_on_c, 0, 34, 52
2, 29673, Note_on_c, 0, 46, 45
2, 29675, Note_on_c, 0, 81, 60
2, 29677, Control_c, 0, 64, 0
2, 29677, Note_on_c, 0, 74, 56
2, 29699, Note_on_c, 0, 34, 0
2, 29701, Control_c, 0, 64, 127
2, 29708, Note_on_c, 0, 46, 0
2, 29738, Note_on_c, 0, 74, 0
2, 29750, Note_on_c, 0, 81, 0
2, 29758, Note_on_c, 0, 77, 59
2, 29761, Note_on_c, 0, 74, 30
2, 29762, Note_on_c, 0, 69, 35
2, 29771, Note_on_c, 0, 69, 0
2, 29772, Note_on_c, 0, 74, 0
2, 29781, Note_on_c, 0, 77, 0
2, 29839, Note_on_c, 0, 62, 62
2, 29840, Note_on_c, 0, 84, 79
2, 29840, Note_on_c, 0, 77, 67
2, 29841, Note_on_c, 0, 65, 67
2, 29842, Note_on_c, 0, 81, 62
2, 29842, Note_on_c, 0, 55, 60
2, 29843, Note_on_c, 0, 60, 61
2, 29844, Note_on_c, 0, 72, 46
2, 29847, Control_c, 0, 64, 0
2, 29867, Control_c, 0, 64, 127
2, 29870, Note_on_c, 0, 81, 0
2, 29873, Note_on_c, 0, 84, 0
2, 29874, Note_on_c, 0, 65, 0
2, 29875, Note_on_c, 0, 77, 0
2, 29883, Note_on_c, 0, 62, 0
2, 29884, Note_on_c, 0, 72, 0
2, 29886, Note_on_c, 0, 60, 0
2, 29889, Note_on_c, 0, 55, 0
2, 29931, Note_on_c, 0, 81, 46
2, 29935, Note_on_c, 0, 77, 30
2, 29961, Note_on_c, 0, 77, 0
2, 29964, Note_on_c, 0, 81, 0
2, 30006, Note_on_c, 0, 57, 56
2, 30006, Note_on_c, 0, 62, 69
2, 30006, Note_on_c, 0, 58, 52
2, 30009, Note_on_c, 0, 52, 60
2, 30016, Control_c, 0, 64, 0
2, 30050, Control_c, 0, 64, 127
2, 30101, Note_on_c, 0, 52, 0
2, 30104, Note_on_c, 0, 62, 0
2, 30105, Note_on_c, 0, 57, 0
2, 30108, Note_on_c, 0, 58, 0
2, 30120, Note_on_c, 0, 62, 74
2, 30121, Note_on_c, 0, 91, 84
2, 30121, Note_on_c, 0, 58, 74
2, 30121, Note_on_c, 0, 57, 64
2, 30122, Note_on_c, 0, 86, 99
2, 30123, Note_on_c, 0, 52, 64
2, 30123, Note_on_c, 0, 79, 79
2, 30128, Control_c, 0, 64, 0
2, 30142, Control_c, 0, 64, 127
2, 30188, Note_on_c, 0, 79, 0
2, 30194, Note_on_c, 0, 52, 0
2, 30195, Note_on_c, 0, 91, 0
2, 30195, Note_on_c, 0, 86, 0
2, 30200, Note_on_c, 0, 57, 0
2, 30203, Note_on_c, 0, 58, 0
2, 30203, Note_on_c, 0, 62, 0
2, 30264, Note_on_c, 0, 61, 69
2, 30265, Note_on_c, 0, 60, 72
2, 30265, Note_on_c, 0, 65, 81
2, 30267, Note_on_c, 0, 55, 72
2, 30267, Note_on_c, 0, 96, 85
2, 30268, Note_on_c, 0, 84, 85
2, 30268, Note_on_c, 0, 89, 80
2, 30268, Note_on_c, 0, 93, 78
2, 30270, Note_on_c, 0, 58, 48
2, 30273, Control_c, 0, 64, 0
2, 30297, Control_c, 0, 64, 127
2, 30320, Note_on_c, 0, 96, 0
2, 30323, Note_on_c, 0, 93, 0
2, 30328, Note_on_c, 0, 89, 0
2, 30331, Note_on_c, 0, 84, 0
2, 30336, Note_on_c, 0, 60, 0
2, 30337, Note_on_c, 0, 65, 0
2, 30344, Note_on_c, 0, 58, 0
2, 30344, Note_on_c, 0, 55, 0
2, 30345, Note_on_c, 0, 61, 0
2, 30388, Note_on_c, 0, 83, 61
2, 30388, Note_on_c, 0, 64, 63
2, 30389, Note_on_c, 0, 88, 64
2, 30389, Note_on_c, 0, 55, 54
2, 30390, Note_on_c, 0, 57, 58
2, 30390, Note_on_c, 0, 76, 58
2, 30392, Note_on_c, 0, 60, 58
2, 30397, Control_c, 0, 64, 0
2, 30423, Control_c, 0, 64, 127
2, 30453, Note_on_c, 0, 76, 0
2, 30458, Note_on_c, 0, 88, 0
2, 30460, Note_on_c, 0, 83, 0
2, 30462, Note_on_c, 0, 60, 0
2, 30464, Note_on_c, 0, 64, 0
2, 30464, Note_on_c, 0, 55, 0
2, 30466, Note_on_c, 0, 57, 0
2, 30521, Note_on_c, 0, 77, 50
2, 30522, Note_on_c, 0, 86, 52
2, 30523, Note_on_c, 0, 89, 51
2, 30525, Note_on_c, 0, 82, 36
2, 30525, Note_on_c, 0, 65, 53
2, 30525, Note_on_c, 0, 54, 44
2, 30526, Note_on_c, 0, 60, 41
2, 30526, Control_c, 0, 64, 0
2, 30550, Control_c, 0, 64, 127
2, 30564, Note_on_c, 0, 89, 0
2, 30565, Note_on_c, 0, 86, 0
2, 30579, Note_on_c, 0, 82, 0
2, 30588, Note_on_c, 0, 77, 0
2, 30591, Note_on_c, 0, 65, 0
2, 30596, Note_on_c, 0, 60, 0
2, 30598, Note_on_c, 0, 54, 0
2, 30637, Note_on_c, 0, 54, 52
2, 30685, Note_on_c, 0, 58, 36
2, 30694, Note_on_c, 0, 58, 0
2, 30696, Note_on_c, 0, 59, 56
2, 30697, Note_on_c, 0, 54, 0
2, 30704, Note_on_c, 0, 65, 49
2, 30704, Note_on_c, 0, 62, 49
2, 30704, Note_on_c, 0, 72, 42
2, 30705, Note_on_c, 0, 59, 0
2, 30706, Note_on_c, 0, 69, 53
2, 30707, Control_c, 0, 64, 0
2, 30708, Note_on_c, 0, 60, 62
2, 30718, Note_on_c, 0, 69, 0
2, 30719, Note_on_c, 0, 65, 0
2, 30723, Note_on_c, 0, 72, 0
2, 30723, Note_on_c, 0, 60, 0
2, 30727, Note_on_c, 0, 62, 0
2, 30769, Control_c, 0, 64, 127
2, 30783, Note_on_c, 0, 62, 59
2, 30784, Note_on_c, 0, 69, 45
2, 30784, Note_on_c, 0, 57, 51
2, 30787, Note_on_c, 0, 65, 38
2, 30788, Note_on_c, 0, 58, 37
2, 30802, Note_on_c, 0, 57, 0
2, 30803, Note_on_c, 0, 69, 0
2, 30804, Note_on_c, 0, 65, 0
2, 30806, Note_on_c, 0, 62, 0
2, 30812, Note_on_c, 0, 58, 0
2, 30843, Note_on_c, 0, 51, 23
2, 30859, Control_c, 0, 64, 0
2, 30860, Note_on_c, 0, 52, 50
2, 30862, Note_on_c, 0, 51, 0
2, 30866, Note_on_c, 0, 55, 38
2, 30867, Note_on_c, 0, 52, 0
2, 30868, Note_on_c, 0, 65, 34
2, 30869, Note_on_c, 0, 62, 42
2, 30869, Note_on_c, 0, 58, 39
2, 30872, Note_on_c, 0, 53, 33
2, 30895, Control_c, 0, 64, 127
2, 30902, Note_on_c, 0, 62, 0
2, 30915, Note_on_c, 0, 58, 0
2, 30915, Note_on_c, 0, 55, 0
2, 30931, Note_on_c, 0, 65, 0
2, 30947, Note_on_c, 0, 58, 48
2, 30947, Note_on_c, 0, 55, 50
2, 30948, Control_c, 0, 64, 0
2, 30950, Note_on_c, 0, 62, 48
2, 30950, Note_on_c, 0, 50, 49
2, 30953, Note_on_c, 0, 53, 0
2, 30955, Note_on_c, 0, 55, 0
2, 30959, Note_on_c, 0, 50, 0
2, 30959, Control_c, 0, 64, 127
2, 30961, Note_on_c, 0, 58, 0
2, 30967, Note_on_c, 0, 62, 0
2, 31030, Note_on_c, 0, 84, 84
2, 31030, Note_on_c, 0, 77, 78
2, 31031, Note_on_c, 0, 73, 68
2, 31032, Control_c, 0, 64, 0
2, 31032, Note_on_c, 0, 81, 71
2, 31033, Note_on_c, 0, 72, 89
2, 31039, Note_on_c, 0, 83, 34
2, 31049, Note_on_c, 0, 83, 0
2, 31054, Note_on_c, 0, 72, 0
2, 31056, Control_c, 0, 64, 127
2, 31058, Note_on_c, 0, 84, 0
2, 31059, Note_on_c, 0, 81, 0
2, 31063, Note_on_c, 0, 77, 0
2, 31070, Note_on_c, 0, 73, 0
2, 31110, Control_c, 0, 64, 0
2, 31110, Note_on_c, 0, 80, 42
2, 31113, Note_on_c, 0, 69, 63
2, 31114, Note_on_c, 0, 73, 52
2, 31115, Note_on_c, 0, 81, 72
2, 31118, Note_on_c, 0, 70, 49
2, 31120, Note_on_c, 0, 76, 46
2, 31134, Control_c, 0, 64, 127
2, 31140, Note_on_c, 0, 81, 0
2, 31143, Note_on_c, 0, 76, 0
2, 31148, Note_on_c, 0, 69, 0
2, 31148, Note_on_c, 0, 80, 0
2, 31150, Note_on_c, 0, 73, 0
2, 31150, Note_on_c, 0, 70, 0
2, 31196, Note_on_c, 0, 78, 52
2, 31197, Note_on_c, 0, 66, 45
2, 31198, Note_on_c, 0, 70, 59
2, 31199, Note_on_c, 0, 73, 34
2, 31201, Note_on_c, 0, 67, 51
2, 31203, Control_c, 0, 64, 0
2, 31217, Control_c, 0, 64, 127
2, 31229, Note_on_c, 0, 73, 0
2, 31239, Note_on_c, 0, 70, 0
2, 31239, Note_on_c, 0, 66, 0
2, 31246, Note_on_c, 0, 67, 0
2, 31252, Note_on_c, 0, 78, 0
2, 31283, Control_c, 0, 64, 0
2, 31284, Note_on_c, 0, 70, 46
2, 31284, Note_on_c, 0, 73, 30
2, 31286, Note_on_c, 0, 63, 45
2, 31288, Note_on_c, 0, 67, 49
2, 31306, Note_on_c, 0, 70, 0
2, 31307, Note_on_c, 0, 73, 0
2, 31309, Note_on_c, 0, 63, 0
2, 31311, Note_on_c, 0, 67, 0
2, 31315, Control_c, 0, 64, 127
2, 31365, Note_on_c, 0, 72, 60
2, 31365, Note_on_c, 0, 67, 67
2, 31368, Note_on_c, 0, 60, 35
2, 31368, Note_on_c, 0, 62, 38
2, 31371, Control_c, 0, 64, 0
2, 31382, Note_on_c, 0, 60, 0
2, 31387, Note_on_c, 0, 67, 0
2, 31388, Note_on_c, 0, 72, 0
2, 31389, Note_on_c, 0, 62, 0
2, 31397, Control_c, 0, 64, 127
2, 31449, Note_on_c, 0, 57, 48
2, 31451, Control_c, 0, 64, 0
2, 31452, Note_on_c, 0, 69, 50
2, 31452, Note_on_c, 0, 62, 46
2, 31453, Note_on_c, 0, 60, 42
2, 31454, Note_on_c, 0, 65, 49
2, 31475, Control_c, 0, 64, 127
2, 31518, Note_on_c, 0, 57, 0
2, 31526, Note_on_c, 0, 62, 0
2, 31537, Note_on_c, 0, 53, 39
2, 31538, Note_on_c, 0, 60, 0
2, 31550, Note_on_c, 0, 69, 0
2, 31554, Note_on_c, 0, 53, 0
2, 31556, Note_on_c, 0, 65, 0
2, 31568, Note_on_c, 0, 67, 52
2, 31570, Note_on_c, 0, 60, 38
2, 31572, Note_on_c, 0, 64, 40
2, 31572, Note_on_c, 0, 56, 47
2, 31573, Control_c, 0, 64, 0
2, 31628, Note_on_c, 0, 46, 53
2, 31646, Control_c, 0, 64, 127
2, 31678, Note_on_c, 0, 64, 0
2, 31685, Note_on_c, 0, 67, 0
2, 31690, Note_on_c, 0, 60, 0
2, 31701, Note_on_c, 0, 56, 0
2, 31722, Note_on_c, 0, 46, 0
2, 31744, Note_on_c, 0, 45, 41
2, 31762, Control_c, 0, 64, 0
2, 31799, Note_on_c, 0, 60, 40
2, 31799, Note_on_c, 0, 63, 30
2, 31802, Note_on_c, 0, 51, 34
2, 31821, Note_on_c, 0, 51, 0
2, 31826, Note_on_c, 0, 45, 0
2, 31828, Note_on_c, 0, 60, 0
2, 31828, Control_c, 0, 64, 127
2, 31833, Note_on_c, 0, 55, 45
2, 31837, Note_on_c, 0, 63, 0
2, 31876, Note_on_c, 0, 55, 0
2, 31888, Note_on_c, 0, 54, 53
2, 31894, Control_c, 0, 64, 0
2, 31900, Note_on_c, 0, 38, 38
2, 31920, Control_c, 0, 64, 127
2, 31971, Control_c, 0, 64, 0
2, 31972, Note_on_c, 0, 45, 52
2, 31980, Note_on_c, 0, 45, 0
2, 31980, Note_on_c, 0, 38, 0
2, 31985, Control_c, 0, 64, 127
2, 32003, Note_on_c, 0, 54, 0
2, 32051, Control_c, 0, 64, 0
2, 32052, Note_on_c, 0, 46, 25
2, 32071, Note_on_c, 0, 47, 36
2, 32073, Note_on_c, 0, 59, 47
2, 32082, Note_on_c, 0, 46, 0
2, 32089, Note_on_c, 0, 48, 51
2, 32090, Note_on_c, 0, 47, 0
2, 32095, Note_on_c, 0, 60, 61
2, 32097, Note_on_c, 0, 59, 0
2, 32162, Note_on_c, 0, 60, 0
2, 32172, Note_on_c, 0, 48, 0
2, 32265, Note_on_c, 0, 62, 66
2, 32267, Note_on_c, 0, 53, 54
2, 32268, Note_on_c, 0, 58, 45
2, 32278, Note_on_c, 0, 53, 0
2, 32285, Note_on_c, 0, 58, 0
2, 32289, Note_on_c, 0, 62, 0
2, 32350, Note_on_c, 0, 62, 64
2, 32352, Note_on_c, 0, 58, 46
2, 32352, Note_on_c, 0, 53, 37
2, 32366, Note_on_c, 0, 53, 0
2, 32375, Note_on_c, 0, 62, 0
2, 32382, Note_on_c, 0, 58, 0
2, 32438, Note_on_c, 0, 64, 51
2, 32441, Note_on_c, 0, 55, 41
2, 32441, Note_on_c, 0, 58, 38
2, 32445, Note_on_c, 0, 48, 28
2, 32445, Note_on_c, 0, 36, 30
2, 32464, Control_c, 0, 64, 127
2, 32511, Note_on_c, 0, 36, 0
2, 32526, Note_on_c, 0, 64, 0
2, 32527, Note_on_c, 0, 55, 0
2, 32529, Note_on_c, 0, 48, 0
2, 32533, Note_on_c, 0, 58, 0
2, 32631, Note_on_c, 0, 69, 59
2, 32635, Note_on_c, 0, 58, 43
2, 32636, Note_on_c, 0, 52, 43
2, 32636, Control_c, 0, 64, 0
2, 32636, Note_on_c, 0, 61, 42
2, 32637, Note_on_c, 0, 64, 48
2, 32676, Control_c, 0, 64, 127
2, 32740, Note_on_c, 0, 52, 0
2, 32746, Note_on_c, 0, 69, 0
2, 32747, Note_on_c, 0, 64, 0
2, 32749, Note_on_c, 0, 58, 0
2, 32761, Note_on_c, 0, 61, 0
2, 32827, Control_c, 0, 64, 0
2, 32840, Note_on_c, 0, 65, 56
2, 32840, Note_on_c, 0, 53, 50
2, 32841, Note_on_c, 0, 60, 62
2, 32842, Note_on_c, 0, 37, 54
2, 32844, Note_on_c, 0, 44, 49
2, 32869, Control_c, 0, 64, 127
2, 32880, Note_on_c, 0, 53, 0
2, 32895, Note_on_c, 0, 60, 0
2, 32901, Note_on_c, 0, 37, 0
2, 32905, Note_on_c, 0, 44, 0
2, 32906, Note_on_c, 0, 65, 0
2, 33036, Note_on_c, 0, 53, 40
2, 33038, Note_on_c, 0, 63, 36
2, 33039, Note_on_c, 0, 72, 44
2, 33039, Note_on_c, 0, 84, 55
2, 33039, Note_on_c, 0, 58, 44
2, 33078, Note_on_c, 0, 72, 0
2, 33083, Note_on_c, 0, 53, 0
2, 33085, Note_on_c, 0, 84, 0
2, 33091, Note_on_c, 0, 63, 0
2, 33092, Note_on_c, 0, 58, 0
2, 33137, Note_on_c, 0, 65, 53
2, 33137, Note_on_c, 0, 77, 50
2, 33138, Note_on_c, 0, 89, 49
2, 33138, Note_on_c, 0, 60, 46
2, 33141, Note_on_c, 0, 55, 45
2, 33163, Note_on_c, 0, 55, 0
2, 33163, Note_on_c, 0, 77, 0
2, 33165, Note_on_c, 0, 65, 0
2, 33168, Note_on_c, 0, 60, 0
2, 33169, Note_on_c, 0, 89, 0
2, 33229, Note_on_c, 0, 63, 39
2, 33229, Note_on_c, 0, 96, 57
2, 33230, Note_on_c, 0, 53, 36
2, 33231, Note_on_c, 0, 84, 50
2, 33233, Note_on_c, 0, 58, 46
2, 33260, Note_on_c, 0, 84, 0
2, 33266, Note_on_c, 0, 53, 0
2, 33266, Note_on_c, 0, 96, 0
2, 33277, Note_on_c, 0, 58, 0
2, 33278, Note_on_c, 0, 63, 0
2, 33331, Note_on_c, 0, 101, 44
2, 33332, Note_on_c, 0, 89, 49
2, 33333, Note_on_c, 0, 65, 32
2, 33334, Note_on_c, 0, 60, 42
2, 33334, Control_c, 0, 64, 0
2, 33334, Note_on_c, 0, 55, 37
2, 33338, Control_c, 0, 64, 127
2, 33358, Note_on_c, 0, 55, 0
2, 33361, Note_on_c, 0, 89, 0
2, 33366, Note_on_c, 0, 65, 0
2, 33369, Note_on_c, 0, 101, 0
2, 33369, Note_on_c, 0, 60, 0
2, 33439, Note_on_c, 0, 63, 33
2, 33439, Note_on_c, 0, 94, 42
2, 33440, Note_on_c, 0, 53, 34
2, 33442, Note_on_c, 0, 58, 38
2, 33445, Note_on_c, 0, 106, 33
2, 33488, Note_on_c, 0, 63, 0
2, 33493, Note_on_c, 0, 53, 0
2, 33496, Note_on_c, 0, 58, 0
2, 33499, Note_on_c, 0, 94, 0
2, 33507, Note_on_c, 0, 106, 0
2, 33641, Note_on_c, 0, 108, 49
2, 33643, Note_on_c, 0, 37, 40
2, 33646, Note_on_c, 0, 96, 25
2, 33673, Note_on_c, 0, 108, 0
2, 33688, Note_on_c, 0, 96, 0
2, 33721, Note_on_c, 0, 44, 45
2, 33799, Note_on_c, 0, 37, 0
2, 33802, Note_on_c, 0, 63, 26
2, 33804, Note_on_c, 0, 48, 44
2, 33807, Note_on_c, 0, 44, 0
2, 33852, Note_on_c, 0, 63, 0
2, 33862, Note_on_c, 0, 48, 0
2, 33890, Note_on_c, 0, 56, 51
2, 33973, Note_on_c, 0, 75, 44
2, 33975, Note_on_c, 0, 68, 39
2, 33986, Note_on_c, 0, 60, 24
2, 34017, Note_on_c, 0, 68, 0
2, 34021, Note_on_c, 0, 75, 0
2, 34058, Note_on_c, 0, 60, 0
2, 34063, Note_on_c, 0, 79, 40
2, 34066, Note_on_c, 0, 65, 20
2, 34078, Note_on_c, 0, 79, 0
2, 34079, Note_on_c, 0, 56, 0
2, 34153, Note_on_c, 0, 84, 29
2, 34154, Note_on_c, 0, 68, 26
2, 34159, Note_on_c, 0, 65, 0
2, 34171, Note_on_c, 0, 84, 0
2, 34244, Note_on_c, 0, 87, 40
2, 34255, Note_on_c, 0, 87, 0
2, 34347, Note_on_c, 0, 92, 43
2, 34357, Note_on_c, 0, 77, 32
2, 34361, Note_on_c, 0, 80, 21
2, 34531, Note_on_c, 0, 80, 0
2, 34532, Note_on_c, 0, 92, 0
2, 34566, Note_on_c, 0, 72, 30
2, 34569, Note_on_c, 0, 91, 24
2, 34570, Note_on_c, 0, 79, 24
2, 34639, Note_on_c, 0, 77, 0
2, 34646, Note_on_c, 0, 72, 0
2, 34655, Note_on_c, 0, 68, 0
2, 34841, Note_on_c, 0, 79, 0
2, 34848, Note_on_c, 0, 91, 0
2, 35023, Control_c, 0, 64, 0
2, 35023, End_track
0, 0, End_of_file
