0, 0, Header, 1, 4, 960
1, 0, Start_track
1, 0, Title_t, "It Could Happen To You"
1, 0, Text_t, "dougmck@pipeline.com.au Done after listening (again) to Keith Jarrett's 'Live in Tokyo' CD. After the rubato first chorus I tried to get the group improvisation kind of feel with bass and drums supporting the piano improvisation.\012"
1, 0, Time_signature, 4, 2, 24, 8
1, 0, Key_signature, -1, "major"
1, 0, Tempo, 333333
1, 0, Marker_t, "Rubato opening chorus"
1, 2592, Marker_t, "Chromatically descending chords on each melody note"
1, 218889, Marker_t, "Bass and drums in - start is close to the original melody"
1, 295745, Marker_t, "Non chord tones on beat resolve up 1/2 step to chord tones. (appoggiatura)"
1, 341760, Marker_t, "Drummer picks up sticks"
1, 373432, Marker_t, "More appoggiatura but with chords"
1, 468480, Marker_t, "Bass player begins to walk "
1, 525130, Marker_t, "Block Chords approached from a step above. "
1, 579862, Marker_t, "Ending uses a pedal on C "
1, 591360, Marker_t, "Fade"
1, 591360, End_track
2, 0, Start_track
2, 0, Title_t, "Piano"
2, 2779, Note_on_c, 0, 57, 53
2, 2786, Note_on_c, 0, 60, 40
2, 2788, Note_on_c, 0, 41, 53
2, 2798, Note_on_c, 0, 48, 38
2, 2799, Note_on_c, 0, 55, 62
2, 3044, Control_c, 0, 64, 127
2, 3512, Note_on_c, 0, 48, 0
2, 3553, Note_on_c, 0, 55, 0
2, 3607, Note_on_c, 0, 57, 0
2, 3663, Note_on_c, 0, 41, 0
2, 3890, Note_on_c, 0, 60, 0
2, 4247, Note_on_c, 0, 62, 82
2, 4255, Control_c, 0, 64, 0
2, 4255, Note_on_c, 0, 57, 80
2, 4294, Note_on_c, 0, 40, 60
2, 4296, Note_on_c, 0, 47, 57
2, 4765, Control_c, 0, 64, 127
2, 5124, Note_on_c, 0, 57, 0
2, 5150, Note_on_c, 0, 47, 0
2, 5231, Note_on_c, 0, 40, 0
2, 5363, Note_on_c, 0, 62, 0
2, 5997, Control_c, 0, 64, 0
2, 6022, Note_on_c, 0, 60, 43
2, 6027, Note_on_c, 0, 63, 67
2, 6048, Note_on_c, 0, 39, 55
2, 6050, Note_on_c, 0, 55, 60
2, 6092, Note_on_c, 0, 46, 35
2, 6672, Control_c, 0, 64, 127
2, 6967, Note_on_c, 0, 55, 0
2, 7054, Note_on_c, 0, 39, 0
2, 7173, Note_on_c, 0, 60, 0
2, 7187, Note_on_c, 0, 46, 0
2, 7277, Note_on_c, 0, 63, 0
2, 7742, Control_c, 0, 64, 0
2, 7815, Note_on_c, 0, 54, 43
2, 7829, Note_on_c, 0, 62, 58
2, 7844, Note_on_c, 0, 60, 30
2, 7858, Note_on_c, 0, 45, 39
2, 7859, Note_on_c, 0, 38, 41
2, 8251, Control_c, 0, 64, 127
2, 8379, Note_on_c, 0, 38, 0
2, 8396, Note_on_c, 0, 54, 0
2, 8414, Note_on_c, 0, 62, 0
2, 8423, Note_on_c, 0, 60, 0
2, 8472, Note_on_c, 0, 45, 0
2, 9807, Note_on_c, 0, 32, 60
2, 9810, Control_c, 0, 64, 0
2, 9864, Note_on_c, 0, 69, 44
2, 9866, Note_on_c, 0, 66, 38
2, 9871, Note_on_c, 0, 63, 40
2, 9876, Note_on_c, 0, 60, 27
2, 9899, Note_on_c, 0, 54, 46
2, 10208, Control_c, 0, 64, 127
2, 10326, Note_on_c, 0, 60, 0
2, 10451, Note_on_c, 0, 63, 0
2, 10564, Note_on_c, 0, 69, 0
2, 10567, Note_on_c, 0, 66, 0
2, 10583, Note_on_c, 0, 54, 0
2, 10767, Note_on_c, 0, 32, 0
2, 11973, Note_on_c, 0, 81, 63
2, 12015, Note_on_c, 0, 72, 36
2, 12068, Note_on_c, 0, 66, 32
2, 12549, Note_on_c, 0, 66, 0
2, 12959, Note_on_c, 0, 81, 0
2, 13057, Note_on_c, 0, 72, 0
2, 15068, Note_on_c, 0, 58, 43
2, 15093, Note_on_c, 0, 62, 45
2, 15096, Note_on_c, 0, 53, 31
2, 15112, Note_on_c, 0, 55, 36
2, 15119, Note_on_c, 0, 43, 33
2, 15136, Note_on_c, 0, 50, 34
2, 15231, Control_c, 0, 64, 0
2, 15787, Control_c, 0, 64, 127
2, 16430, Note_on_c, 0, 53, 0
2, 16722, Note_on_c, 0, 55, 0
2, 16873, Note_on_c, 0, 50, 0
2, 17530, Note_on_c, 0, 58, 0
2, 17603, Note_on_c, 0, 62, 0
2, 17623, Note_on_c, 0, 50, 38
2, 18539, Note_on_c, 0, 53, 59
2, 18691, Note_on_c, 0, 53, 0
2, 19283, Note_on_c, 0, 62, 91
2, 19543, Note_on_c, 0, 43, 0
2, 19622, Note_on_c, 0, 50, 0
2, 19645, Note_on_c, 0, 62, 0
2, 19953, Note_on_c, 0, 64, 95
2, 20327, Note_on_c, 0, 64, 0
2, 20789, Control_c, 0, 64, 0
2, 20791, Note_on_c, 0, 62, 87
2, 20793, Note_on_c, 0, 65, 80
2, 20810, Note_on_c, 0, 47, 51
2, 21302, Control_c, 0, 64, 127
2, 21489, Note_on_c, 0, 65, 0
2, 21504, Note_on_c, 0, 62, 0
2, 21608, Note_on_c, 0, 64, 67
2, 21661, Note_on_c, 0, 57, 40
2, 21736, Note_on_c, 0, 47, 0
2, 21852, Note_on_c, 0, 64, 0
2, 22591, Note_on_c, 0, 57, 0
2, 22669, Note_on_c, 0, 71, 53
2, 22673, Control_c, 0, 64, 0
2, 22698, Note_on_c, 0, 68, 48
2, 22700, Note_on_c, 0, 62, 48
2, 22728, Note_on_c, 0, 65, 44
2, 22754, Note_on_c, 0, 56, 50
2, 23047, Control_c, 0, 64, 127
2, 23134, Note_on_c, 0, 62, 0
2, 23232, Note_on_c, 0, 65, 0
2, 23406, Note_on_c, 0, 68, 0
2, 23723, Note_on_c, 0, 71, 0
2, 23911, Note_on_c, 0, 65, 53
2, 23916, Note_on_c, 0, 62, 48
2, 24055, Note_on_c, 0, 62, 0
2, 24218, Note_on_c, 0, 65, 0
2, 24230, Note_on_c, 0, 56, 0
2, 25278, Control_c, 0, 64, 0
2, 25283, Note_on_c, 0, 72, 80
2, 25292, Note_on_c, 0, 67, 85
2, 25308, Note_on_c, 0, 64, 78
2, 25327, Note_on_c, 0, 48, 46
2, 25334, Note_on_c, 0, 57, 47
2, 25814, Control_c, 0, 64, 127
2, 26236, Note_on_c, 0, 72, 0
2, 26542, Note_on_c, 0, 72, 79
2, 26691, Note_on_c, 0, 57, 0
2, 27108, Note_on_c, 0, 72, 0
2, 27519, Note_on_c, 0, 72, 75
2, 27592, Note_on_c, 0, 57, 37
2, 28215, Note_on_c, 0, 64, 0
2, 28257, Note_on_c, 0, 57, 0
2, 28287, Note_on_c, 0, 48, 0
2, 28304, Note_on_c, 0, 67, 0
2, 28479, Note_on_c, 0, 72, 0
2, 28861, Control_c, 0, 64, 0
2, 28883, Note_on_c, 0, 72, 60
2, 28911, Note_on_c, 0, 66, 65
2, 28930, Note_on_c, 0, 57, 37
2, 28942, Note_on_c, 0, 62, 46
2, 28953, Note_on_c, 0, 47, 43
2, 29281, Control_c, 0, 64, 127
2, 29633, Note_on_c, 0, 57, 0
2, 29635, Note_on_c, 0, 47, 0
2, 29714, Note_on_c, 0, 62, 0
2, 29854, Note_on_c, 0, 72, 0
2, 30018, Note_on_c, 0, 66, 0
2, 30282, Note_on_c, 0, 72, 53
2, 30294, Note_on_c, 0, 65, 58
2, 30327, Control_c, 0, 64, 0
2, 30338, Note_on_c, 0, 46, 37
2, 30343, Note_on_c, 0, 62, 53
2, 30345, Note_on_c, 0, 56, 33
2, 30929, Control_c, 0, 64, 127
2, 31489, Note_on_c, 0, 56, 0
2, 31528, Note_on_c, 0, 53, 38
2, 31769, Note_on_c, 0, 53, 0
2, 31993, Note_on_c, 0, 46, 0
2, 32261, Note_on_c, 0, 62, 0
2, 32345, Note_on_c, 0, 65, 0
2, 32540, Note_on_c, 0, 72, 0
2, 32795, Note_on_c, 0, 70, 53
2, 32806, Note_on_c, 0, 62, 35
2, 32827, Note_on_c, 0, 65, 46
2, 32863, Note_on_c, 0, 57, 24
2, 34027, Note_on_c, 0, 65, 0
2, 34217, Note_on_c, 0, 62, 0
2, 34273, Note_on_c, 0, 57, 0
2, 34289, Note_on_c, 0, 65, 36
2, 34635, Note_on_c, 0, 70, 0
2, 34637, Note_on_c, 0, 65, 0
2, 35581, Control_c, 0, 64, 0
2, 35609, Note_on_c, 0, 47, 31
2, 35630, Note_on_c, 0, 40, 33
2, 35662, Note_on_c, 0, 62, 56
2, 35667, Note_on_c, 0, 69, 44
2, 35690, Note_on_c, 0, 66, 34
2, 35695, Note_on_c, 0, 55, 40
2, 35955, Control_c, 0, 64, 127
2, 36041, Note_on_c, 0, 62, 0
2, 36140, Note_on_c, 0, 69, 0
2, 36142, Note_on_c, 0, 66, 0
2, 36145, Note_on_c, 0, 40, 0
2, 36207, Note_on_c, 0, 47, 0
2, 36370, Note_on_c, 0, 55, 0
2, 37075, Note_on_c, 0, 78, 61
2, 37077, Note_on_c, 0, 81, 75
2, 37087, Note_on_c, 0, 74, 71
2, 37089, Note_on_c, 0, 69, 71
2, 37152, Note_on_c, 0, 52, 37
2, 37154, Note_on_c, 0, 62, 47
2, 37189, Note_on_c, 0, 58, 38
2, 37486, Note_on_c, 0, 52, 0
2, 37509, Note_on_c, 0, 69, 0
2, 37590, Note_on_c, 0, 58, 0
2, 37623, Note_on_c, 0, 74, 0
2, 37672, Note_on_c, 0, 81, 0
2, 37714, Note_on_c, 0, 78, 0
2, 37722, Note_on_c, 0, 62, 0
2, 38428, Note_on_c, 0, 84, 83
2, 38433, Note_on_c, 0, 77, 83
2, 38437, Note_on_c, 0, 72, 84
2, 38442, Note_on_c, 0, 81, 77
2, 38449, Note_on_c, 0, 55, 64
2, 38451, Note_on_c, 0, 61, 67
2, 38456, Note_on_c, 0, 65, 69
2, 38514, Control_c, 0, 64, 0
2, 39001, Control_c, 0, 64, 127
2, 39469, Note_on_c, 0, 55, 0
2, 39474, Note_on_c, 0, 72, 0
2, 39486, Note_on_c, 0, 61, 0
2, 39491, Note_on_c, 0, 77, 0
2, 39495, Note_on_c, 0, 65, 0
2, 39549, Note_on_c, 0, 81, 0
2, 39578, Note_on_c, 0, 84, 0
2, 39892, Note_on_c, 0, 84, 59
2, 39915, Note_on_c, 0, 72, 56
2, 39926, Note_on_c, 0, 55, 41
2, 39933, Note_on_c, 0, 81, 57
2, 39945, Note_on_c, 0, 65, 48
2, 39947, Note_on_c, 0, 77, 54
2, 39953, Note_on_c, 0, 61, 54
2, 40328, Note_on_c, 0, 65, 0
2, 40365, Note_on_c, 0, 84, 0
2, 40444, Note_on_c, 0, 81, 0
2, 40455, Note_on_c, 0, 61, 0
2, 40512, Note_on_c, 0, 77, 0
2, 40532, Note_on_c, 0, 55, 0
2, 40570, Note_on_c, 0, 72, 0
2, 41490, Control_c, 0, 64, 0
2, 41504, Note_on_c, 0, 64, 46
2, 41521, Note_on_c, 0, 60, 30
2, 41543, Note_on_c, 0, 52, 36
2, 41546, Note_on_c, 0, 45, 32
2, 41562, Note_on_c, 0, 55, 34
2, 41838, Control_c, 0, 64, 127
2, 41954, Note_on_c, 0, 45, 0
2, 42001, Note_on_c, 0, 52, 0
2, 42006, Note_on_c, 0, 60, 0
2, 42092, Note_on_c, 0, 64, 0
2, 42101, Note_on_c, 0, 55, 0
2, 43019, Note_on_c, 0, 67, 36
2, 43031, Note_on_c, 0, 64, 45
2, 43037, Note_on_c, 0, 71, 46
2, 43045, Note_on_c, 0, 76, 44
2, 43054, Note_on_c, 0, 72, 40
2, 43057, Note_on_c, 0, 60, 29
2, 43766, Note_on_c, 0, 64, 0
2, 43794, Note_on_c, 0, 67, 0
2, 43815, Note_on_c, 0, 71, 0
2, 43845, Note_on_c, 0, 60, 0
2, 43906, Note_on_c, 0, 72, 0
2, 44187, Note_on_c, 0, 76, 0
2, 45014, Note_on_c, 0, 72, 39
2, 45019, Note_on_c, 0, 68, 35
2, 45036, Note_on_c, 0, 64, 27
2, 45049, Note_on_c, 0, 60, 25
2, 45084, Note_on_c, 0, 54, 30
2, 45119, Control_c, 0, 64, 0
2, 45675, Control_c, 0, 64, 127
2, 46726, Note_on_c, 0, 64, 0
2, 47114, Note_on_c, 0, 68, 0
2, 47146, Note_on_c, 0, 72, 0
2, 48140, Note_on_c, 0, 84, 99
2, 49782, Note_on_c, 0, 82, 77
2, 49914, Note_on_c, 0, 84, 0
2, 50250, Note_on_c, 0, 60, 0
2, 50707, Note_on_c, 0, 82, 0
2, 50779, Note_on_c, 0, 81, 78
2, 50784, Note_on_c, 0, 54, 0
2, 51563, Note_on_c, 0, 81, 0
2, 51668, Note_on_c, 0, 78, 61
2, 52304, Note_on_c, 0, 78, 0
2, 52471, Note_on_c, 0, 79, 71
2, 53109, Note_on_c, 0, 79, 0
2, 53192, Note_on_c, 0, 82, 71
2, 53802, Note_on_c, 0, 82, 0
2, 53865, Control_c, 0, 64, 0
2, 53925, Note_on_c, 0, 81, 68
2, 53935, Note_on_c, 0, 43, 34
2, 54352, Control_c, 0, 64, 127
2, 54733, Note_on_c, 0, 81, 0
2, 54753, Note_on_c, 0, 50, 32
2, 55336, Note_on_c, 0, 43, 0
2, 55446, Note_on_c, 0, 50, 0
2, 55497, Note_on_c, 0, 74, 40
2, 55519, Note_on_c, 0, 69, 33
2, 55524, Note_on_c, 0, 57, 33
2, 56268, Note_on_c, 0, 81, 59
2, 56398, Note_on_c, 0, 57, 0
2, 56429, Note_on_c, 0, 58, 14
2, 56515, Note_on_c, 0, 74, 0
2, 56651, Note_on_c, 0, 69, 0
2, 56942, Note_on_c, 0, 81, 0
2, 57127, Note_on_c, 0, 62, 36
2, 57160, Note_on_c, 0, 77, 48
2, 57176, Note_on_c, 0, 74, 30
2, 57215, Note_on_c, 0, 69, 16
2, 57890, Note_on_c, 0, 69, 0
2, 58027, Note_on_c, 0, 65, 38
2, 58927, Note_on_c, 0, 74, 0
2, 58960, Note_on_c, 0, 69, 54
2, 59018, Note_on_c, 0, 77, 0
2, 59748, Note_on_c, 0, 69, 0
2, 59793, Note_on_c, 0, 62, 0
2, 59844, Note_on_c, 0, 81, 77
2, 59939, Note_on_c, 0, 65, 0
2, 60166, Note_on_c, 0, 58, 0
2, 60363, Note_on_c, 0, 81, 0
2, 60654, Note_on_c, 0, 55, 44
2, 60784, Note_on_c, 0, 60, 30
2, 60837, Note_on_c, 0, 81, 64
2, 60932, Note_on_c, 0, 77, 68
2, 60948, Note_on_c, 0, 61, 64
2, 60960, Control_c, 0, 64, 0
2, 60962, Note_on_c, 0, 79, 26
2, 60997, Note_on_c, 0, 73, 60
2, 61023, Note_on_c, 0, 65, 62
2, 61146, Note_on_c, 0, 69, 22
2, 61493, Control_c, 0, 64, 127
2, 61914, Note_on_c, 0, 81, 0
2, 61981, Note_on_c, 0, 79, 0
2, 62173, Note_on_c, 0, 69, 0
2, 62544, Note_on_c, 0, 82, 65
2, 62713, Note_on_c, 0, 73, 0
2, 62855, Note_on_c, 0, 65, 0
2, 62894, Note_on_c, 0, 61, 0
2, 62943, Note_on_c, 0, 77, 0
2, 62962, Note_on_c, 0, 82, 0
2, 62996, Note_on_c, 0, 60, 0
2, 63931, Note_on_c, 0, 77, 51
2, 63990, Note_on_c, 0, 72, 46
2, 64011, Note_on_c, 0, 60, 22
2, 64064, Note_on_c, 0, 65, 29
2, 64521, Note_on_c, 0, 61, 1
2, 65112, Note_on_c, 0, 55, 0
2, 65182, Note_on_c, 0, 77, 0
2, 65841, Note_on_c, 0, 72, 0
2, 66553, Note_on_c, 0, 79, 54
2, 66569, Note_on_c, 0, 65, 0
2, 66641, Note_on_c, 0, 60, 0
2, 66781, Note_on_c, 0, 61, 0
2, 66985, Note_on_c, 0, 79, 0
2, 68592, Note_on_c, 0, 61, 45
2, 68595, Note_on_c, 0, 69, 47
2, 68602, Note_on_c, 0, 57, 32
2, 68620, Note_on_c, 0, 64, 41
2, 68629, Note_on_c, 0, 41, 38
2, 68657, Control_c, 0, 64, 0
2, 68699, Note_on_c, 0, 49, 28
2, 69078, Control_c, 0, 64, 127
2, 69912, Note_on_c, 0, 52, 47
2, 70694, Note_on_c, 0, 52, 0
2, 70757, Note_on_c, 0, 57, 0
2, 70868, Note_on_c, 0, 61, 0
2, 70910, Note_on_c, 0, 64, 0
2, 70936, Note_on_c, 0, 49, 0
2, 71040, Note_on_c, 0, 50, 38
2, 71216, Control_c, 0, 64, 0
2, 71333, Control_c, 0, 64, 127
2, 72372, Note_on_c, 0, 57, 40
2, 73122, Note_on_c, 0, 41, 0
2, 73374, Note_on_c, 0, 57, 0
2, 73420, Note_on_c, 0, 69, 0
2, 73741, Note_on_c, 0, 50, 0
2, 73787, Note_on_c, 0, 62, 63
2, 73794, Note_on_c, 0, 58, 32
2, 73815, Note_on_c, 0, 40, 53
2, 73891, Control_c, 0, 64, 0
2, 74362, Note_on_c, 0, 40, 0
2, 74378, Control_c, 0, 64, 127
2, 74592, Note_on_c, 0, 58, 0
2, 74760, Note_on_c, 0, 69, 75
2, 74766, Note_on_c, 0, 58, 53
2, 75144, Note_on_c, 0, 58, 0
2, 75234, Note_on_c, 0, 62, 0
2, 75247, Note_on_c, 0, 69, 0
2, 75835, Note_on_c, 0, 70, 67
2, 75852, Note_on_c, 0, 55, 50
2, 75855, Note_on_c, 0, 61, 64
2, 75872, Note_on_c, 0, 66, 56
2, 75891, Control_c, 0, 64, 0
2, 76335, Control_c, 0, 64, 127
2, 76517, Note_on_c, 0, 66, 0
2, 76619, Note_on_c, 0, 70, 0
2, 76849, Note_on_c, 0, 72, 74
2, 76877, Note_on_c, 0, 52, 39
2, 76959, Note_on_c, 0, 65, 24
2, 76993, Note_on_c, 0, 52, 0
2, 77030, Note_on_c, 0, 61, 0
2, 77046, Note_on_c, 0, 55, 0
2, 77182, Note_on_c, 0, 65, 0
2, 77346, Note_on_c, 0, 72, 0
2, 78242, Control_c, 0, 64, 0
2, 78262, Note_on_c, 0, 50, 48
2, 78274, Note_on_c, 0, 64, 53
2, 78278, Note_on_c, 0, 67, 60
2, 78682, Control_c, 0, 64, 127
2, 78733, Note_on_c, 0, 64, 0
2, 78768, Note_on_c, 0, 67, 0
2, 79527, Note_on_c, 0, 76, 84
2, 79532, Note_on_c, 0, 69, 83
2, 79539, Note_on_c, 0, 62, 65
2, 79612, Control_c, 0, 64, 0
2, 79847, Control_c, 0, 64, 127
2, 80300, Note_on_c, 0, 69, 0
2, 80413, Note_on_c, 0, 62, 0
2, 80490, Note_on_c, 0, 76, 0
2, 80935, Note_on_c, 0, 76, 68
2, 80958, Note_on_c, 0, 69, 60
2, 80970, Note_on_c, 0, 73, 40
2, 80972, Note_on_c, 0, 65, 49
2, 80974, Note_on_c, 0, 61, 53
2, 80986, Control_c, 0, 64, 0
2, 81543, Control_c, 0, 64, 127
2, 82060, Note_on_c, 0, 65, 0
2, 82148, Note_on_c, 0, 73, 0
2, 82160, Note_on_c, 0, 69, 0
2, 82232, Note_on_c, 0, 61, 0
2, 82345, Note_on_c, 0, 74, 54
2, 82364, Note_on_c, 0, 69, 38
2, 82376, Note_on_c, 0, 65, 43
2, 82382, Note_on_c, 0, 60, 30
2, 82483, Note_on_c, 0, 76, 0
2, 83067, Note_on_c, 0, 65, 0
2, 83069, Note_on_c, 0, 69, 0
2, 83071, Note_on_c, 0, 60, 0
2, 83185, Note_on_c, 0, 50, 0
2, 83361, Note_on_c, 0, 74, 0
2, 84171, Control_c, 0, 64, 0
2, 84185, Note_on_c, 0, 76, 45
2, 84194, Note_on_c, 0, 43, 36
2, 84215, Note_on_c, 0, 73, 25
2, 84223, Note_on_c, 0, 69, 32
2, 84273, Note_on_c, 0, 65, 13
2, 84568, Control_c, 0, 64, 127
2, 84605, Note_on_c, 0, 43, 0
2, 85526, Note_on_c, 0, 59, 37
2, 86295, Note_on_c, 0, 69, 0
2, 86310, Note_on_c, 0, 65, 0
2, 86429, Note_on_c, 0, 73, 0
2, 86999, Note_on_c, 0, 65, 31
2, 87020, Note_on_c, 0, 69, 37
2, 87046, Note_on_c, 0, 61, 20
2, 87291, Note_on_c, 0, 59, 0
2, 88299, Note_on_c, 0, 65, 0
2, 88426, Note_on_c, 0, 69, 0
2, 88543, Note_on_c, 0, 61, 0
2, 88603, Note_on_c, 0, 76, 0
2, 88740, Note_on_c, 0, 74, 42
2, 88765, Note_on_c, 0, 65, 32
2, 88777, Note_on_c, 0, 62, 33
2, 88802, Note_on_c, 0, 69, 36
2, 89229, Note_on_c, 0, 62, 0
2, 89391, Note_on_c, 0, 74, 0
2, 89420, Note_on_c, 0, 69, 0
2, 89508, Note_on_c, 0, 65, 0
2, 90942, Control_c, 0, 64, 0
2, 90945, Note_on_c, 0, 65, 61
2, 90976, Note_on_c, 0, 62, 62
2, 90981, Note_on_c, 0, 58, 59
2, 91008, Note_on_c, 0, 53, 51
2, 91020, Note_on_c, 0, 31, 42
2, 91029, Note_on_c, 0, 43, 29
2, 91266, Control_c, 0, 64, 127
2, 91591, Note_on_c, 0, 62, 0
2, 91593, Note_on_c, 0, 53, 0
2, 91672, Note_on_c, 0, 65, 0
2, 91681, Note_on_c, 0, 58, 0
2, 91702, Note_on_c, 0, 31, 0
2, 91955, Note_on_c, 0, 43, 0
2, 92384, Note_on_c, 0, 67, 68
2, 92409, Note_on_c, 0, 60, 57
2, 92412, Note_on_c, 0, 64, 60
2, 92423, Note_on_c, 0, 55, 73
2, 92443, Note_on_c, 0, 45, 58
2, 92467, Note_on_c, 0, 65, 36
2, 92474, Control_c, 0, 64, 0
2, 92477, Note_on_c, 0, 33, 48
2, 92871, Control_c, 0, 64, 127
2, 93180, Note_on_c, 0, 55, 0
2, 93249, Note_on_c, 0, 60, 0
2, 93299, Note_on_c, 0, 64, 0
2, 93317, Note_on_c, 0, 67, 0
2, 93345, Note_on_c, 0, 65, 0
2, 93372, Note_on_c, 0, 33, 0
2, 93511, Note_on_c, 0, 45, 0
2, 94270, Note_on_c, 0, 69, 57
2, 94284, Note_on_c, 0, 58, 37
2, 94294, Note_on_c, 0, 62, 55
2, 94312, Control_c, 0, 64, 0
2, 94319, Note_on_c, 0, 34, 48
2, 94361, Note_on_c, 0, 65, 35
2, 94417, Note_on_c, 0, 46, 15
2, 94685, Control_c, 0, 64, 127
2, 94910, Note_on_c, 0, 69, 0
2, 95003, Note_on_c, 0, 65, 0
2, 95027, Note_on_c, 0, 62, 0
2, 95101, Note_on_c, 0, 34, 0
2, 95115, Note_on_c, 0, 46, 0
2, 95127, Note_on_c, 0, 58, 0
2, 96094, Note_on_c, 0, 65, 46
2, 96099, Note_on_c, 0, 56, 35
2, 96136, Note_on_c, 0, 62, 47
2, 96149, Control_c, 0, 64, 0
2, 96155, Note_on_c, 0, 59, 44
2, 96159, Note_on_c, 0, 35, 34
2, 96164, Note_on_c, 0, 47, 30
2, 96662, Control_c, 0, 64, 127
2, 97119, Note_on_c, 0, 62, 0
2, 97124, Note_on_c, 0, 35, 0
2, 97148, Note_on_c, 0, 59, 0
2, 97270, Note_on_c, 0, 56, 0
2, 97301, Note_on_c, 0, 47, 0
2, 97302, Note_on_c, 0, 65, 0
2, 98347, Note_on_c, 0, 62, 49
2, 98352, Note_on_c, 0, 53, 39
2, 98381, Note_on_c, 0, 58, 46
2, 98430, Control_c, 0, 64, 0
2, 98435, Note_on_c, 0, 36, 35
2, 98437, Note_on_c, 0, 48, 27
2, 99152, Control_c, 0, 64, 127
2, 99585, Note_on_c, 0, 53, 0
2, 99693, Note_on_c, 0, 48, 0
2, 99864, Note_on_c, 0, 58, 0
2, 99915, Note_on_c, 0, 62, 0
2, 100405, Note_on_c, 0, 64, 42
2, 100462, Note_on_c, 0, 55, 32
2, 100469, Note_on_c, 0, 58, 38
2, 100499, Note_on_c, 0, 48, 34
2, 100850, Note_on_c, 0, 55, 0
2, 100857, Note_on_c, 0, 36, 0
2, 101024, Note_on_c, 0, 58, 0
2, 101109, Note_on_c, 0, 48, 0
2, 101170, Note_on_c, 0, 64, 0
2, 102919, Control_c, 0, 64, 0
2, 102928, Note_on_c, 0, 76, 55
2, 102950, Note_on_c, 0, 64, 37
2, 102951, Note_on_c, 0, 68, 43
2, 102964, Note_on_c, 0, 72, 45
2, 102989, Note_on_c, 0, 58, 44
2, 103337, Control_c, 0, 64, 127
2, 103759, Note_on_c, 0, 64, 0
2, 103966, Note_on_c, 0, 72, 0
2, 103975, Note_on_c, 0, 68, 0
2, 104158, Note_on_c, 0, 76, 0
2, 105601, Note_on_c, 0, 88, 56
2, 105659, Note_on_c, 0, 64, 36
2, 105677, Note_on_c, 0, 84, 35
2, 105682, Note_on_c, 0, 76, 30
2, 105687, Note_on_c, 0, 80, 27
2, 107480, Note_on_c, 0, 88, 0
2, 107523, Note_on_c, 0, 84, 0
2, 107710, Note_on_c, 0, 64, 0
2, 107823, Note_on_c, 0, 80, 0
2, 107837, Note_on_c, 0, 76, 0
2, 108438, Note_on_c, 0, 58, 0
2, 109661, Note_on_c, 0, 72, 71
2, 109689, Control_c, 0, 64, 0
2, 109699, Note_on_c, 0, 48, 45
2, 109710, Note_on_c, 0, 67, 66
2, 109712, Note_on_c, 0, 69, 58
2, 109735, Note_on_c, 0, 57, 36
2, 109740, Note_on_c, 0, 64, 58
2, 110153, Control_c, 0, 64, 127
2, 110680, Note_on_c, 0, 57, 0
2, 110717, Note_on_c, 0, 48, 0
2, 111007, Note_on_c, 0, 48, 44
2, 111590, Note_on_c, 0, 67, 0
2, 111610, Note_on_c, 0, 64, 0
2, 111723, Note_on_c, 0, 69, 0
2, 111998, Note_on_c, 0, 72, 0
2, 112255, Note_on_c, 0, 64, 41
2, 112262, Note_on_c, 0, 67, 44
2, 112271, Note_on_c, 0, 57, 36
2, 112283, Note_on_c, 0, 69, 40
2, 112993, Note_on_c, 0, 48, 0
2, 113431, Note_on_c, 0, 57, 0
2, 113468, Note_on_c, 0, 69, 0
2, 113524, Note_on_c, 0, 64, 0
2, 113652, Note_on_c, 0, 74, 77
2, 113666, Control_c, 0, 64, 0
2, 113688, Note_on_c, 0, 46, 59
2, 113804, Note_on_c, 0, 67, 0
2, 113990, Control_c, 0, 64, 127
2, 114179, Note_on_c, 0, 74, 0
2, 114338, Note_on_c, 0, 46, 0
2, 114851, Control_c, 0, 64, 0
2, 114898, Note_on_c, 0, 75, 77
2, 114916, Note_on_c, 0, 67, 68
2, 114930, Note_on_c, 0, 63, 55
2, 114940, Note_on_c, 0, 45, 58
2, 115116, Note_on_c, 0, 45, 0
2, 115176, Control_c, 0, 64, 127
2, 115243, Note_on_c, 0, 63, 0
2, 115382, Note_on_c, 0, 67, 0
2, 115499, Note_on_c, 0, 75, 0
2, 116015, Note_on_c, 0, 74, 67
2, 116039, Note_on_c, 0, 63, 65
2, 116046, Note_on_c, 0, 55, 49
2, 116049, Note_on_c, 0, 67, 66
2, 116059, Control_c, 0, 64, 0
2, 116090, Note_on_c, 0, 60, 28
2, 116099, Note_on_c, 0, 57, 30
2, 116291, Control_c, 0, 64, 127
2, 116507, Note_on_c, 0, 67, 0
2, 116607, Note_on_c, 0, 74, 0
2, 116610, Note_on_c, 0, 60, 0
2, 116619, Note_on_c, 0, 57, 0
2, 116637, Note_on_c, 0, 55, 0
2, 116702, Note_on_c, 0, 63, 0
2, 117433, Control_c, 0, 64, 0
2, 117466, Note_on_c, 0, 81, 58
2, 117472, Note_on_c, 0, 60, 32
2, 117477, Note_on_c, 0, 72, 49
2, 117482, Note_on_c, 0, 78, 45
2, 117484, Note_on_c, 0, 65, 49
2, 117496, Note_on_c, 0, 54, 36
2, 117877, Control_c, 0, 64, 127
2, 117900, Note_on_c, 0, 65, 0
2, 117951, Note_on_c, 0, 60, 0
2, 118122, Note_on_c, 0, 54, 0
2, 119215, Note_on_c, 0, 26, 47
2, 119498, Note_on_c, 0, 26, 0
2, 119883, Note_on_c, 0, 81, 0
2, 119907, Note_on_c, 0, 78, 0
2, 120020, Note_on_c, 0, 72, 0
2, 121470, Note_on_c, 0, 57, 37
2, 121475, Note_on_c, 0, 62, 51
2, 121477, Note_on_c, 0, 58, 45
2, 121486, Note_on_c, 0, 43, 34
2, 121493, Note_on_c, 0, 50, 34
2, 121495, Note_on_c, 0, 53, 40
2, 121552, Control_c, 0, 64, 0
2, 121969, Control_c, 0, 64, 127
2, 122305, Note_on_c, 0, 50, 0
2, 122328, Note_on_c, 0, 53, 0
2, 122373, Note_on_c, 0, 62, 0
2, 122535, Note_on_c, 0, 58, 0
2, 122586, Note_on_c, 0, 57, 0
2, 123289, Note_on_c, 0, 62, 79
2, 123303, Note_on_c, 0, 58, 77
2, 123308, Note_on_c, 0, 53, 80
2, 123314, Note_on_c, 0, 55, 76
2, 123321, Note_on_c, 0, 50, 71
2, 123363, Control_c, 0, 64, 0
2, 123737, Control_c, 0, 64, 127
2, 124298, Note_on_c, 0, 62, 0
2, 124323, Note_on_c, 0, 53, 0
2, 124333, Note_on_c, 0, 55, 0
2, 124347, Note_on_c, 0, 50, 0
2, 124432, Note_on_c, 0, 58, 0
2, 124523, Note_on_c, 0, 62, 80
2, 124527, Note_on_c, 0, 58, 46
2, 124535, Note_on_c, 0, 50, 66
2, 124537, Note_on_c, 0, 53, 74
2, 124539, Note_on_c, 0, 55, 79
2, 124551, Control_c, 0, 64, 0
2, 124714, Control_c, 0, 64, 127
2, 124892, Note_on_c, 0, 55, 0
2, 124917, Note_on_c, 0, 62, 0
2, 124960, Note_on_c, 0, 53, 0
2, 125022, Note_on_c, 0, 58, 0
2, 125117, Note_on_c, 0, 50, 0
2, 125655, Note_on_c, 0, 64, 67
2, 125697, Note_on_c, 0, 58, 77
2, 125700, Note_on_c, 0, 55, 74
2, 125718, Note_on_c, 0, 52, 66
2, 125759, Control_c, 0, 64, 0
2, 125836, Note_on_c, 0, 43, 0
2, 126107, Control_c, 0, 64, 127
2, 126247, Note_on_c, 0, 55, 0
2, 126314, Note_on_c, 0, 64, 0
2, 126335, Note_on_c, 0, 52, 0
2, 126409, Note_on_c, 0, 58, 0
2, 126852, Control_c, 0, 64, 0
2, 126963, Note_on_c, 0, 65, 78
2, 126975, Note_on_c, 0, 57, 75
2, 126977, Note_on_c, 0, 62, 76
2, 127012, Note_on_c, 0, 47, 68
2, 127226, Control_c, 0, 64, 127
2, 127270, Note_on_c, 0, 57, 0
2, 127323, Note_on_c, 0, 47, 0
2, 127425, Note_on_c, 0, 62, 0
2, 127461, Note_on_c, 0, 65, 0
2, 128752, Note_on_c, 0, 64, 70
2, 128758, Note_on_c, 0, 57, 40
2, 128778, Note_on_c, 0, 62, 56
2, 131696, Note_on_c, 0, 57, 0
2, 132710, Note_on_c, 0, 64, 0
2, 132736, Note_on_c, 0, 62, 0
2, 132854, Control_c, 0, 64, 0
2, 132887, Note_on_c, 0, 83, 71
2, 132927, Note_on_c, 0, 56, 35
2, 133272, Control_c, 0, 64, 127
2, 133785, Note_on_c, 0, 56, 0
2, 133870, Note_on_c, 0, 67, 48
2, 134193, Note_on_c, 0, 67, 0
2, 134575, Note_on_c, 0, 83, 0
2, 134896, Note_on_c, 0, 68, 43
2, 134915, Note_on_c, 0, 71, 47
2, 135397, Note_on_c, 0, 68, 0
2, 135947, Note_on_c, 0, 74, 51
2, 136288, Note_on_c, 0, 71, 0
2, 137038, Note_on_c, 0, 74, 0
2, 137451, Note_on_c, 0, 72, 51
2, 137467, Note_on_c, 0, 41, 33
2, 137575, Control_c, 0, 64, 0
2, 138158, Control_c, 0, 64, 127
2, 138466, Note_on_c, 0, 48, 47
2, 138499, Note_on_c, 0, 41, 0
2, 138557, Note_on_c, 0, 48, 0
2, 139376, Note_on_c, 0, 69, 33
2, 139397, Note_on_c, 0, 76, 54
2, 139429, Note_on_c, 0, 60, 20
2, 139487, Note_on_c, 0, 69, 0
2, 139566, Note_on_c, 0, 72, 0
2, 139594, Note_on_c, 0, 76, 0
2, 140310, Note_on_c, 0, 84, 78
2, 140415, Note_on_c, 0, 64, 30
2, 140557, Note_on_c, 0, 84, 0
2, 140694, Note_on_c, 0, 60, 0
2, 141236, Note_on_c, 0, 64, 0
2, 141306, Note_on_c, 0, 69, 41
2, 141320, Note_on_c, 0, 73, 30
2, 141354, Note_on_c, 0, 76, 50
2, 141359, Note_on_c, 0, 61, 34
2, 141412, Control_c, 0, 64, 0
2, 141505, Control_c, 0, 64, 127
2, 142155, Note_on_c, 0, 69, 0
2, 142255, Note_on_c, 0, 76, 0
2, 142296, Note_on_c, 0, 73, 0
2, 142343, Control_c, 0, 64, 0
2, 142357, Note_on_c, 0, 74, 55
2, 142359, Note_on_c, 0, 62, 46
2, 142361, Note_on_c, 0, 69, 44
2, 142517, Note_on_c, 0, 61, 0
2, 142601, Control_c, 0, 64, 127
2, 143109, Note_on_c, 0, 74, 0
2, 143127, Note_on_c, 0, 69, 0
2, 143422, Note_on_c, 0, 79, 71
2, 143918, Note_on_c, 0, 79, 0
2, 144053, Note_on_c, 0, 62, 0
2, 144461, Note_on_c, 0, 79, 68
2, 145111, Note_on_c, 0, 79, 0
2, 145566, Note_on_c, 0, 79, 59
2, 145578, Control_c, 0, 64, 0
2, 145589, Note_on_c, 0, 46, 34
2, 146160, Control_c, 0, 64, 127
2, 146373, Note_on_c, 0, 79, 0
2, 146510, Note_on_c, 0, 78, 46
2, 146561, Note_on_c, 0, 57, 32
2, 146577, Note_on_c, 0, 69, 25
2, 146582, Note_on_c, 0, 74, 32
2, 146584, Note_on_c, 0, 46, 0
2, 146834, Note_on_c, 0, 57, 0
2, 146946, Note_on_c, 0, 74, 0
2, 146970, Note_on_c, 0, 78, 0
2, 147131, Note_on_c, 0, 69, 0
2, 147542, Note_on_c, 0, 62, 51
2, 147549, Note_on_c, 0, 77, 60
2, 147589, Note_on_c, 0, 69, 67
2, 147704, Note_on_c, 0, 62, 0
2, 148000, Note_on_c, 0, 69, 0
2, 148621, Note_on_c, 0, 66, 53
2, 148626, Note_on_c, 0, 62, 54
2, 148709, Note_on_c, 0, 46, 26
2, 149136, Note_on_c, 0, 77, 0
2, 149393, Note_on_c, 0, 62, 0
2, 149429, Note_on_c, 0, 46, 0
2, 149566, Note_on_c, 0, 66, 0
2, 149807, Note_on_c, 0, 62, 44
2, 149825, Note_on_c, 0, 70, 45
2, 149849, Note_on_c, 0, 65, 50
2, 149862, Note_on_c, 0, 46, 25
2, 149901, Control_c, 0, 64, 0
2, 149907, Note_on_c, 0, 55, 29
2, 150507, Control_c, 0, 64, 127
2, 150848, Note_on_c, 0, 55, 0
2, 151104, Note_on_c, 0, 55, 36
2, 151569, Note_on_c, 0, 62, 0
2, 152129, Note_on_c, 0, 65, 0
2, 152289, Note_on_c, 0, 46, 0
2, 152364, Note_on_c, 0, 62, 39
2, 152442, Note_on_c, 0, 55, 0
2, 153271, Note_on_c, 0, 62, 0
2, 153326, Note_on_c, 0, 70, 0
2, 153336, Note_on_c, 0, 65, 50
2, 153753, Note_on_c, 0, 65, 0
2, 155208, Control_c, 0, 64, 0
2, 155312, Note_on_c, 0, 47, 31
2, 155314, Note_on_c, 0, 69, 40
2, 155316, Note_on_c, 0, 40, 34
2, 155319, Note_on_c, 0, 62, 49
2, 155360, Note_on_c, 0, 66, 26
2, 155581, Note_on_c, 0, 62, 0
2, 155632, Note_on_c, 0, 69, 0
2, 155635, Note_on_c, 0, 66, 0
2, 155720, Note_on_c, 0, 40, 0
2, 155774, Note_on_c, 0, 47, 0
2, 156367, Note_on_c, 0, 40, 24
2, 156396, Note_on_c, 0, 62, 41
2, 156417, Note_on_c, 0, 47, 26
2, 156418, Note_on_c, 0, 69, 35
2, 156425, Note_on_c, 0, 66, 26
2, 156690, Note_on_c, 0, 62, 0
2, 156734, Note_on_c, 0, 69, 0
2, 156748, Note_on_c, 0, 66, 0
2, 156797, Note_on_c, 0, 47, 0
2, 156803, Note_on_c, 0, 40, 0
2, 158625, Control_c, 0, 64, 127
2, 159253, Control_c, 0, 64, 0
2, 159405, Note_on_c, 0, 59, 38
2, 159419, Note_on_c, 0, 69, 48
2, 159421, Note_on_c, 0, 62, 60
2, 159423, Note_on_c, 0, 66, 35
2, 159444, Note_on_c, 0, 57, 35
2, 159448, Note_on_c, 0, 55, 40
2, 159658, Note_on_c, 0, 59, 0
2, 159678, Note_on_c, 0, 62, 0
2, 159715, Note_on_c, 0, 57, 0
2, 159717, Note_on_c, 0, 69, 0
2, 159750, Note_on_c, 0, 55, 0
2, 159766, Note_on_c, 0, 66, 0
2, 160307, Note_on_c, 0, 66, 42
2, 160319, Note_on_c, 0, 62, 64
2, 160323, Note_on_c, 0, 59, 38
2, 160337, Note_on_c, 0, 69, 43
2, 160344, Note_on_c, 0, 55, 36
2, 160353, Note_on_c, 0, 57, 29
2, 160442, Note_on_c, 0, 59, 0
2, 160450, Note_on_c, 0, 57, 0
2, 160481, Note_on_c, 0, 55, 0
2, 160509, Note_on_c, 0, 69, 0
2, 160516, Note_on_c, 0, 62, 0
2, 160655, Note_on_c, 0, 66, 0
2, 160717, Control_c, 0, 64, 127
2, 161068, Control_c, 0, 64, 0
2, 161320, Note_on_c, 0, 61, 62
2, 161334, Note_on_c, 0, 69, 55
2, 161355, Note_on_c, 0, 66, 44
2, 161370, Note_on_c, 0, 45, 24
2, 161548, Note_on_c, 0, 55, 10
2, 161674, Control_c, 0, 64, 127
2, 162036, Note_on_c, 0, 55, 0
2, 162115, Note_on_c, 0, 52, 54
2, 162654, Note_on_c, 0, 61, 0
2, 162688, Note_on_c, 0, 69, 0
2, 162719, Control_c, 0, 64, 0
2, 162731, Note_on_c, 0, 66, 0
2, 162841, Note_on_c, 0, 64, 55
2, 162852, Note_on_c, 0, 60, 44
2, 162882, Control_c, 0, 64, 127
2, 162898, Note_on_c, 0, 45, 0
2, 162907, Note_on_c, 0, 55, 52
2, 162930, Note_on_c, 0, 52, 0
2, 163033, Note_on_c, 0, 60, 0
2, 163145, Note_on_c, 0, 55, 0
2, 163160, Note_on_c, 0, 64, 0
2, 163674, Note_on_c, 0, 60, 37
2, 163685, Note_on_c, 0, 79, 87
2, 163970, Note_on_c, 0, 79, 0
2, 164511, Control_c, 0, 64, 0
2, 164566, Note_on_c, 0, 76, 74
2, 164581, Note_on_c, 0, 64, 50
2, 164583, Note_on_c, 0, 69, 66
2, 164595, Note_on_c, 0, 72, 55
2, 164604, Note_on_c, 0, 67, 54
2, 164620, Note_on_c, 0, 60, 0
2, 164766, Control_c, 0, 64, 127
2, 165165, Note_on_c, 0, 72, 0
2, 165192, Note_on_c, 0, 76, 0
2, 165227, Note_on_c, 0, 64, 0
2, 165248, Note_on_c, 0, 69, 0
2, 165274, Note_on_c, 0, 67, 0
2, 165334, Note_on_c, 0, 60, 35
2, 165441, Note_on_c, 0, 60, 0
2, 166044, Note_on_c, 0, 67, 55
2, 166065, Note_on_c, 0, 69, 41
2, 166067, Note_on_c, 0, 64, 45
2, 166075, Note_on_c, 0, 57, 41
2, 166177, Note_on_c, 0, 69, 0
2, 166251, Note_on_c, 0, 67, 0
2, 166394, Note_on_c, 0, 64, 0
2, 166874, Note_on_c, 0, 64, 40
2, 166949, Note_on_c, 0, 60, 26
2, 167107, Note_on_c, 0, 57, 0
2, 167211, Note_on_c, 0, 64, 0
2, 167279, Note_on_c, 0, 60, 0
2, 167865, Control_c, 0, 64, 0
2, 167908, Note_on_c, 0, 68, 47
2, 167942, Note_on_c, 0, 63, 48
2, 167958, Note_on_c, 0, 60, 24
2, 167963, Note_on_c, 0, 56, 37
2, 167967, Note_on_c, 0, 66, 34
2, 167984, Note_on_c, 0, 50, 19
2, 168402, Control_c, 0, 64, 127
2, 168833, Note_on_c, 0, 63, 0
2, 168880, Note_on_c, 0, 60, 0
2, 168918, Note_on_c, 0, 68, 0
2, 168997, Note_on_c, 0, 63, 25
2, 169014, Note_on_c, 0, 69, 56
2, 169016, Note_on_c, 0, 56, 0
2, 169030, Note_on_c, 0, 57, 34
2, 169041, Note_on_c, 0, 60, 24
2, 169334, Note_on_c, 0, 50, 0
2, 169468, Note_on_c, 0, 57, 0
2, 169554, Note_on_c, 0, 60, 0
2, 169645, Note_on_c, 0, 69, 0
2, 169716, Note_on_c, 0, 63, 0
2, 169777, Note_on_c, 0, 66, 0
2, 170171, Note_on_c, 0, 50, 40
2, 171114, Note_on_c, 0, 45, 43
2, 171290, Note_on_c, 0, 50, 0
2, 171737, Note_on_c, 0, 45, 0
2, 171984, Control_c, 0, 64, 0
2, 172062, Note_on_c, 0, 43, 35
2, 172074, Note_on_c, 0, 58, 45
2, 172078, Note_on_c, 0, 53, 35
2, 172123, Note_on_c, 0, 57, 31
2, 172424, Control_c, 0, 64, 127
2, 172477, Note_on_c, 0, 57, 0
2, 172554, Note_on_c, 0, 58, 0
2, 172768, Note_on_c, 0, 53, 0
2, 173083, Note_on_c, 0, 50, 46
2, 173113, Note_on_c, 0, 69, 76
2, 173486, Note_on_c, 0, 69, 0
2, 174238, Control_c, 0, 64, 0
2, 174240, Note_on_c, 0, 69, 66
2, 174271, Note_on_c, 0, 57, 49
2, 174281, Note_on_c, 0, 62, 70
2, 174306, Note_on_c, 0, 58, 65
2, 174348, Note_on_c, 0, 65, 37
2, 174891, Control_c, 0, 64, 127
2, 174999, Note_on_c, 0, 57, 0
2, 175218, Note_on_c, 0, 69, 0
2, 175271, Note_on_c, 0, 58, 0
2, 175340, Note_on_c, 0, 62, 0
2, 175359, Note_on_c, 0, 65, 0
2, 175486, Note_on_c, 0, 69, 58
2, 175501, Note_on_c, 0, 55, 53
2, 175507, Note_on_c, 0, 58, 57
2, 175529, Note_on_c, 0, 62, 54
2, 175572, Note_on_c, 0, 65, 37
2, 175707, Note_on_c, 0, 55, 0
2, 175802, Note_on_c, 0, 50, 0
2, 175847, Note_on_c, 0, 62, 0
2, 175854, Note_on_c, 0, 58, 0
2, 175886, Note_on_c, 0, 43, 0
2, 175888, Note_on_c, 0, 69, 0
2, 175983, Note_on_c, 0, 65, 0
2, 176971, Note_on_c, 0, 69, 43
2, 176999, Note_on_c, 0, 61, 64
2, 177029, Control_c, 0, 64, 0
2, 177031, Note_on_c, 0, 65, 58
2, 177034, Note_on_c, 0, 55, 65
2, 177038, Note_on_c, 0, 46, 46
2, 177078, Note_on_c, 0, 39, 43
2, 177820, Control_c, 0, 64, 127
2, 177932, Note_on_c, 0, 55, 0
2, 178048, Note_on_c, 0, 39, 0
2, 178060, Note_on_c, 0, 69, 0
2, 178215, Note_on_c, 0, 61, 0
2, 178292, Note_on_c, 0, 65, 0
2, 178827, Note_on_c, 0, 70, 55
2, 178848, Note_on_c, 0, 61, 58
2, 178874, Note_on_c, 0, 65, 36
2, 178966, Note_on_c, 0, 55, 11
2, 179402, Note_on_c, 0, 55, 0
2, 179460, Note_on_c, 0, 70, 0
2, 179470, Note_on_c, 0, 65, 0
2, 179547, Note_on_c, 0, 61, 0
2, 179614, Note_on_c, 0, 46, 0
2, 180637, Note_on_c, 0, 65, 43
2, 180658, Note_on_c, 0, 60, 34
2, 180677, Note_on_c, 0, 55, 35
2, 180681, Control_c, 0, 64, 0
2, 180707, Note_on_c, 0, 46, 31
2, 180709, Note_on_c, 0, 39, 37
2, 181217, Control_c, 0, 64, 127
2, 182108, Note_on_c, 0, 55, 0
2, 182180, Note_on_c, 0, 60, 0
2, 182238, Note_on_c, 0, 65, 0
2, 182516, Note_on_c, 0, 39, 0
2, 182551, Note_on_c, 0, 46, 0
2, 182887, Note_on_c, 0, 67, 44
2, 182915, Note_on_c, 0, 39, 32
2, 182920, Note_on_c, 0, 61, 45
2, 182962, Control_c, 0, 64, 0
2, 182966, Note_on_c, 0, 55, 25
2, 182985, Note_on_c, 0, 46, 20
2, 183217, Control_c, 0, 64, 127
2, 183293, Note_on_c, 0, 39, 0
2, 183416, Note_on_c, 0, 46, 0
2, 183551, Note_on_c, 0, 55, 0
2, 184022, Note_on_c, 0, 67, 0
2, 184092, Note_on_c, 0, 61, 0
2, 185570, Note_on_c, 0, 41, 49
2, 185750, Note_on_c, 0, 48, 36
2, 185846, Control_c, 0, 64, 0
2, 185892, Note_on_c, 0, 69, 77
2, 185933, Note_on_c, 0, 57, 34
2, 185982, Note_on_c, 0, 65, 31
2, 186356, Control_c, 0, 64, 127
2, 186843, Note_on_c, 0, 65, 0
2, 186926, Note_on_c, 0, 69, 0
2, 186973, Note_on_c, 0, 64, 76
2, 187010, Note_on_c, 0, 41, 0
2, 187121, Note_on_c, 0, 48, 0
2, 187342, Note_on_c, 0, 57, 0
2, 187892, Note_on_c, 0, 64, 0
2, 188375, Note_on_c, 0, 64, 68
2, 188392, Note_on_c, 0, 67, 67
2, 188395, Note_on_c, 0, 60, 55
2, 188420, Note_on_c, 0, 46, 52
2, 188430, Note_on_c, 0, 56, 50
2, 188474, Control_c, 0, 64, 0
2, 189173, Control_c, 0, 64, 127
2, 189481, Note_on_c, 0, 60, 0
2, 189622, Note_on_c, 0, 64, 0
2, 189724, Note_on_c, 0, 67, 0
2, 189801, Note_on_c, 0, 64, 57
2, 189806, Note_on_c, 0, 60, 43
2, 189815, Note_on_c, 0, 65, 58
2, 190216, Note_on_c, 0, 60, 0
2, 190244, Note_on_c, 0, 46, 0
2, 190268, Note_on_c, 0, 56, 0
2, 190450, Note_on_c, 0, 65, 0
2, 190458, Note_on_c, 0, 64, 0
2, 191692, Note_on_c, 0, 72, 85
2, 191724, Note_on_c, 0, 67, 80
2, 191734, Note_on_c, 0, 55, 64
2, 191736, Note_on_c, 0, 65, 73
2, 191743, Note_on_c, 0, 60, 45
2, 191763, Note_on_c, 0, 61, 56
2, 191798, Control_c, 0, 64, 0
2, 192427, Control_c, 0, 64, 127
2, 193184, Note_on_c, 0, 67, 0
2, 193316, Note_on_c, 0, 72, 0
2, 193615, Note_on_c, 0, 70, 62
2, 194255, Note_on_c, 0, 65, 0
2, 194408, Note_on_c, 0, 60, 0
2, 194481, Note_on_c, 0, 55, 0
2, 194504, Note_on_c, 0, 61, 0
2, 194550, Note_on_c, 0, 70, 0
2, 195601, Note_on_c, 0, 77, 58
2, 195629, Note_on_c, 0, 60, 28
2, 195636, Control_c, 0, 64, 0
2, 195645, Note_on_c, 0, 50, 31
2, 195652, Note_on_c, 0, 54, 31
2, 195654, Note_on_c, 0, 72, 38
2, 195694, Note_on_c, 0, 66, 25
2, 195696, Note_on_c, 0, 70, 27
2, 196337, Control_c, 0, 64, 127
2, 197482, Note_on_c, 0, 66, 0
2, 197626, Note_on_c, 0, 72, 0
2, 197673, Note_on_c, 0, 77, 0
2, 198102, Note_on_c, 0, 70, 0
2, 198858, Note_on_c, 0, 75, 42
2, 198933, Note_on_c, 0, 66, 17
2, 198969, Note_on_c, 0, 57, 17
2, 199506, Note_on_c, 0, 57, 0
2, 199506, Note_on_c, 0, 60, 0
2, 199619, Note_on_c, 0, 66, 0
2, 199726, Note_on_c, 0, 50, 0
2, 199751, Note_on_c, 0, 75, 0
2, 199757, Note_on_c, 0, 54, 0
2, 202988, Control_c, 0, 64, 0
2, 203712, Note_on_c, 0, 72, 76
2, 203719, Note_on_c, 0, 48, 51
2, 204282, Note_on_c, 0, 72, 0
2, 204345, Note_on_c, 0, 60, 36
2, 204360, Note_on_c, 0, 36, 48
2, 204476, Note_on_c, 0, 60, 0
2, 205150, Note_on_c, 0, 48, 0
2, 205514, Note_on_c, 0, 58, 70
2, 205522, Note_on_c, 0, 60, 49
2, 205531, Note_on_c, 0, 48, 42
2, 205659, Note_on_c, 0, 58, 0
2, 205680, Note_on_c, 0, 48, 0
2, 205689, Note_on_c, 0, 60, 0
2, 206431, Note_on_c, 0, 60, 57
2, 206435, Note_on_c, 0, 48, 46
2, 206466, Note_on_c, 0, 58, 55
2, 206544, Note_on_c, 0, 58, 0
2, 206603, Note_on_c, 0, 60, 0
2, 206616, Note_on_c, 0, 48, 0
2, 207382, Note_on_c, 0, 58, 62
2, 207401, Note_on_c, 0, 70, 59
2, 207407, Note_on_c, 0, 48, 44
2, 207412, Note_on_c, 0, 62, 57
2, 207466, Note_on_c, 0, 64, 33
2, 208071, Control_c, 0, 64, 127
2, 208570, Note_on_c, 0, 62, 0
2, 208605, Note_on_c, 0, 64, 0
2, 208728, Note_on_c, 0, 48, 0
2, 208730, Note_on_c, 0, 70, 0
2, 208769, Note_on_c, 0, 58, 0
2, 209253, Note_on_c, 0, 58, 51
2, 209257, Control_c, 0, 64, 0
2, 209294, Note_on_c, 0, 67, 44
2, 209301, Note_on_c, 0, 48, 36
2, 209303, Note_on_c, 0, 64, 37
2, 209308, Note_on_c, 0, 61, 46
2, 210233, Control_c, 0, 64, 127
2, 210294, Note_on_c, 0, 36, 0
2, 210359, Note_on_c, 0, 48, 0
2, 210862, Control_c, 0, 64, 0
2, 210911, Note_on_c, 0, 67, 0
2, 210925, Note_on_c, 0, 48, 75
2, 210976, Note_on_c, 0, 47, 63
2, 211025, Note_on_c, 0, 64, 0
2, 211052, Note_on_c, 0, 47, 0
2, 211083, Note_on_c, 0, 61, 0
2, 211104, Note_on_c, 0, 58, 0
2, 212864, Note_on_c, 0, 62, 73
2, 213101, Note_on_c, 0, 62, 0
2, 213210, Note_on_c, 0, 60, 32
2, 213546, Note_on_c, 0, 60, 0
2, 213792, Note_on_c, 0, 48, 0
2, 214099, Note_on_c, 0, 62, 68
2, 214433, Note_on_c, 0, 62, 0
2, 215029, Note_on_c, 0, 60, 44
2, 215671, Note_on_c, 0, 60, 0
2, 215715, Note_on_c, 0, 36, 44
2, 216602, Note_on_c, 0, 36, 0
2, 216969, Note_on_c, 0, 36, 54
2, 217530, Note_on_c, 0, 36, 0
2, 219009, Note_on_c, 0, 74, 118
2, 219028, Note_on_c, 0, 65, 59
2, 219032, Note_on_c, 0, 60, 42
2, 219050, Note_on_c, 0, 62, 56
2, 219125, Note_on_c, 0, 65, 0
2, 219127, Note_on_c, 0, 62, 0
2, 219255, Note_on_c, 0, 60, 0
2, 219651, Note_on_c, 0, 74, 0
2, 219654, Note_on_c, 0, 71, 39
2, 219962, Note_on_c, 0, 71, 0
2, 219986, Note_on_c, 0, 72, 66
2, 220586, Note_on_c, 0, 72, 0
2, 220654, Note_on_c, 0, 65, 36
2, 220712, Note_on_c, 0, 60, 22
2, 220715, Note_on_c, 0, 62, 32
2, 220749, Note_on_c, 0, 65, 0
2, 220807, Note_on_c, 0, 62, 0
2, 220842, Note_on_c, 0, 60, 0
2, 220898, Note_on_c, 0, 69, 54
2, 221370, Note_on_c, 0, 69, 0
2, 221547, Note_on_c, 0, 69, 53
2, 221633, Note_on_c, 0, 69, 0
2, 222755, Note_on_c, 0, 63, 47
2, 222790, Note_on_c, 0, 60, 19
2, 222820, Note_on_c, 0, 57, 33
2, 222858, Note_on_c, 0, 55, 24
2, 222974, Note_on_c, 0, 63, 0
2, 222978, Note_on_c, 0, 55, 0
2, 223007, Note_on_c, 0, 60, 0
2, 223076, Note_on_c, 0, 57, 0
2, 223797, Note_on_c, 0, 75, 99
2, 224341, Note_on_c, 0, 75, 0
2, 224375, Note_on_c, 0, 74, 53
2, 224410, Note_on_c, 0, 60, 42
2, 224422, Note_on_c, 0, 64, 62
2, 224440, Note_on_c, 0, 54, 50
2, 224567, Note_on_c, 0, 74, 0
2, 225075, Note_on_c, 0, 80, 62
2, 225095, Note_on_c, 0, 68, 74
2, 225317, Note_on_c, 0, 68, 0
2, 225349, Note_on_c, 0, 69, 56
2, 225352, Note_on_c, 0, 81, 49
2, 225375, Note_on_c, 0, 80, 0
2, 225519, Note_on_c, 0, 81, 0
2, 225623, Note_on_c, 0, 69, 0
2, 225830, Note_on_c, 0, 69, 61
2, 225832, Note_on_c, 0, 81, 75
2, 225881, Note_on_c, 0, 64, 0
2, 225893, Note_on_c, 0, 60, 0
2, 226136, Note_on_c, 0, 81, 0
2, 226183, Note_on_c, 0, 69, 0
2, 226254, Note_on_c, 0, 54, 0
2, 226375, Note_on_c, 0, 69, 71
2, 226398, Note_on_c, 0, 81, 74
2, 226464, Note_on_c, 0, 62, 57
2, 226500, Note_on_c, 0, 58, 38
2, 226519, Note_on_c, 0, 53, 30
2, 226549, Note_on_c, 0, 57, 31
2, 226665, Note_on_c, 0, 81, 0
2, 226693, Note_on_c, 0, 57, 0
2, 226714, Note_on_c, 0, 62, 0
2, 226734, Note_on_c, 0, 69, 0
2, 226776, Note_on_c, 0, 53, 0
2, 226820, Note_on_c, 0, 58, 0
2, 226913, Note_on_c, 0, 81, 55
2, 226948, Note_on_c, 0, 69, 48
2, 227328, Note_on_c, 0, 69, 0
2, 227331, Note_on_c, 0, 81, 0
2, 227665, Note_on_c, 0, 74, 64
2, 228259, Note_on_c, 0, 73, 51
2, 228275, Note_on_c, 0, 74, 0
2, 228384, Note_on_c, 0, 62, 53
2, 228419, Note_on_c, 0, 58, 43
2, 228423, Note_on_c, 0, 57, 29
2, 228436, Note_on_c, 0, 73, 0
2, 228542, Note_on_c, 0, 57, 0
2, 228565, Note_on_c, 0, 62, 0
2, 228603, Note_on_c, 0, 58, 0
2, 228660, Note_on_c, 0, 74, 52
2, 229008, Note_on_c, 0, 74, 0
2, 230466, Note_on_c, 0, 62, 49
2, 230488, Note_on_c, 0, 65, 38
2, 230502, Note_on_c, 0, 57, 30
2, 230600, Note_on_c, 0, 65, 0
2, 230632, Note_on_c, 0, 62, 0
2, 230648, Note_on_c, 0, 57, 0
2, 232027, Note_on_c, 0, 76, 115
2, 232338, Note_on_c, 0, 76, 0
2, 232439, Note_on_c, 0, 65, 49
2, 232444, Note_on_c, 0, 56, 56
2, 232451, Note_on_c, 0, 77, 71
2, 232451, Note_on_c, 0, 62, 36
2, 232841, Note_on_c, 0, 62, 0
2, 232980, Note_on_c, 0, 77, 0
2, 233042, Note_on_c, 0, 76, 58
2, 233198, Note_on_c, 0, 65, 0
2, 233214, Note_on_c, 0, 76, 0
2, 233393, Note_on_c, 0, 56, 0
2, 233409, Note_on_c, 0, 83, 89
2, 233810, Note_on_c, 0, 83, 0
2, 233984, Note_on_c, 0, 83, 71
2, 234059, Note_on_c, 0, 53, 47
2, 234062, Note_on_c, 0, 60, 32
2, 234063, Note_on_c, 0, 64, 42
2, 234068, Note_on_c, 0, 57, 46
2, 234142, Note_on_c, 0, 64, 0
2, 234151, Note_on_c, 0, 53, 0
2, 234228, Note_on_c, 0, 83, 0
2, 234235, Note_on_c, 0, 60, 0
2, 234328, Note_on_c, 0, 57, 0
2, 234471, Note_on_c, 0, 84, 80
2, 234488, Note_on_c, 0, 72, 74
2, 234955, Note_on_c, 0, 84, 0
2, 234980, Note_on_c, 0, 72, 0
2, 235263, Note_on_c, 0, 84, 82
2, 235275, Note_on_c, 0, 72, 74
2, 235618, Note_on_c, 0, 84, 0
2, 235662, Note_on_c, 0, 72, 0
2, 235896, Note_on_c, 0, 72, 61
2, 235898, Note_on_c, 0, 84, 62
2, 235959, Note_on_c, 0, 60, 30
2, 235970, Note_on_c, 0, 53, 43
2, 235986, Note_on_c, 0, 84, 0
2, 235993, Note_on_c, 0, 57, 36
2, 236047, Note_on_c, 0, 72, 0
2, 236114, Note_on_c, 0, 53, 0
2, 236244, Note_on_c, 0, 60, 0
2, 236316, Note_on_c, 0, 84, 79
2, 236334, Note_on_c, 0, 72, 71
2, 236346, Note_on_c, 0, 57, 0
2, 236629, Note_on_c, 0, 84, 0
2, 236637, Note_on_c, 0, 72, 0
2, 236890, Note_on_c, 0, 86, 80
2, 236899, Note_on_c, 0, 74, 71
2, 236957, Note_on_c, 0, 53, 30
2, 236959, Note_on_c, 0, 60, 24
2, 236964, Note_on_c, 0, 57, 29
2, 237047, Note_on_c, 0, 53, 0
2, 237089, Note_on_c, 0, 57, 0
2, 237105, Note_on_c, 0, 74, 0
2, 237109, Note_on_c, 0, 60, 0
2, 237123, Note_on_c, 0, 86, 0
2, 237325, Note_on_c, 0, 84, 60
2, 237358, Note_on_c, 0, 72, 46
2, 237834, Note_on_c, 0, 84, 0
2, 237849, Note_on_c, 0, 72, 0
2, 238168, Note_on_c, 0, 55, 38
2, 238170, Note_on_c, 0, 60, 28
2, 238172, Note_on_c, 0, 65, 34
2, 238190, Note_on_c, 0, 62, 41
2, 239592, Note_on_c, 0, 65, 0
2, 239627, Note_on_c, 0, 55, 0
2, 239630, Note_on_c, 0, 60, 0
2, 239690, Note_on_c, 0, 62, 0
2, 240058, Note_on_c, 0, 65, 24
2, 240060, Note_on_c, 0, 62, 7
2, 240066, Note_on_c, 0, 55, 20
2, 240070, Note_on_c, 0, 84, 108
2, 240123, Note_on_c, 0, 60, 20
2, 240374, Note_on_c, 0, 65, 0
2, 240394, Note_on_c, 0, 62, 0
2, 240446, Note_on_c, 0, 60, 0
2, 240541, Note_on_c, 0, 84, 0
2, 240613, Note_on_c, 0, 55, 0
2, 240734, Note_on_c, 0, 81, 32
2, 241031, Note_on_c, 0, 82, 50
2, 241045, Note_on_c, 0, 81, 0
2, 241400, Note_on_c, 0, 82, 0
2, 241601, Note_on_c, 0, 57, 34
2, 241622, Note_on_c, 0, 86, 68
2, 241629, Note_on_c, 0, 62, 50
2, 241677, Note_on_c, 0, 58, 42
2, 241687, Note_on_c, 0, 52, 31
2, 241884, Note_on_c, 0, 86, 0
2, 242090, Note_on_c, 0, 90, 63
2, 242494, Note_on_c, 0, 90, 0
2, 242597, Note_on_c, 0, 93, 87
2, 242954, Note_on_c, 0, 58, 0
2, 242963, Note_on_c, 0, 93, 0
2, 242966, Note_on_c, 0, 62, 0
2, 243012, Note_on_c, 0, 90, 54
2, 243357, Note_on_c, 0, 57, 0
2, 243390, Note_on_c, 0, 90, 0
2, 243555, Note_on_c, 0, 91, 71
2, 243615, Note_on_c, 0, 57, 20
2, 243632, Note_on_c, 0, 62, 46
2, 243705, Note_on_c, 0, 58, 34
2, 243824, Note_on_c, 0, 91, 0
2, 243931, Note_on_c, 0, 58, 0
2, 244030, Note_on_c, 0, 88, 36
2, 244215, Note_on_c, 0, 62, 0
2, 244423, Note_on_c, 0, 88, 0
2, 244559, Note_on_c, 0, 62, 15
2, 244761, Note_on_c, 0, 52, 0
2, 244866, Note_on_c, 0, 57, 0
2, 244872, Note_on_c, 0, 88, 75
2, 244917, Note_on_c, 0, 62, 0
2, 245559, Note_on_c, 0, 88, 0
2, 245800, Note_on_c, 0, 63, 52
2, 245816, Note_on_c, 0, 60, 20
2, 245852, Note_on_c, 0, 87, 67
2, 245897, Note_on_c, 0, 55, 28
2, 245905, Note_on_c, 0, 57, 24
2, 246346, Note_on_c, 0, 87, 0
2, 246448, Note_on_c, 0, 88, 65
2, 246703, Note_on_c, 0, 88, 0
2, 246712, Note_on_c, 0, 60, 0
2, 246759, Note_on_c, 0, 55, 0
2, 246791, Note_on_c, 0, 57, 0
2, 246793, Note_on_c, 0, 63, 0
2, 246828, Note_on_c, 0, 84, 44
2, 247460, Note_on_c, 0, 60, 45
2, 247489, Note_on_c, 0, 63, 56
2, 247559, Note_on_c, 0, 58, 27
2, 247568, Note_on_c, 0, 63, 0
2, 247635, Note_on_c, 0, 60, 0
2, 247637, Note_on_c, 0, 58, 0
2, 248325, Note_on_c, 0, 84, 0
2, 248373, Note_on_c, 0, 87, 84
2, 248420, Note_on_c, 0, 60, 42
2, 248433, Note_on_c, 0, 64, 61
2, 248475, Note_on_c, 0, 54, 39
2, 249364, Note_on_c, 0, 60, 0
2, 249377, Note_on_c, 0, 64, 0
2, 249610, Note_on_c, 0, 54, 0
2, 249723, Note_on_c, 0, 53, 31
2, 249725, Note_on_c, 0, 62, 48
2, 249740, Note_on_c, 0, 58, 39
2, 249746, Note_on_c, 0, 57, 45
2, 250686, Note_on_c, 0, 85, 74
2, 250724, Note_on_c, 0, 87, 0
2, 250783, Note_on_c, 0, 62, 0
2, 250875, Note_on_c, 0, 58, 0
2, 250879, Note_on_c, 0, 57, 0
2, 250882, Note_on_c, 0, 53, 0
2, 251171, Note_on_c, 0, 85, 0
2, 251290, Note_on_c, 0, 86, 75
2, 251387, Note_on_c, 0, 62, 47
2, 251507, Note_on_c, 0, 62, 0
2, 251575, Note_on_c, 0, 86, 0
2, 251735, Note_on_c, 0, 81, 55
2, 252192, Note_on_c, 0, 81, 0
2, 252421, Note_on_c, 0, 62, 32
2, 252471, Note_on_c, 0, 57, 20
2, 252547, Note_on_c, 0, 62, 0
2, 252602, Note_on_c, 0, 81, 64
2, 252621, Note_on_c, 0, 57, 0
2, 253451, Note_on_c, 0, 60, 37
2, 253464, Note_on_c, 0, 65, 64
2, 253505, Note_on_c, 0, 61, 39
2, 253514, Note_on_c, 0, 55, 45
2, 254157, Note_on_c, 0, 81, 0
2, 254498, Note_on_c, 0, 82, 86
2, 255055, Note_on_c, 0, 83, 75
2, 255152, Note_on_c, 0, 82, 0
2, 255312, Note_on_c, 0, 55, 0
2, 255349, Note_on_c, 0, 83, 0
2, 255359, Note_on_c, 0, 65, 0
2, 255451, Note_on_c, 0, 84, 74
2, 255454, Note_on_c, 0, 61, 0
2, 255472, Note_on_c, 0, 60, 0
2, 255915, Note_on_c, 0, 84, 0
2, 256041, Note_on_c, 0, 81, 62
2, 256043, Note_on_c, 0, 60, 30
2, 256059, Note_on_c, 0, 65, 47
2, 256080, Note_on_c, 0, 61, 45
2, 256117, Note_on_c, 0, 55, 27
2, 256242, Note_on_c, 0, 65, 0
2, 256245, Note_on_c, 0, 81, 0
2, 256326, Note_on_c, 0, 60, 0
2, 256334, Note_on_c, 0, 61, 0
2, 256382, Note_on_c, 0, 82, 55
2, 256447, Note_on_c, 0, 55, 0
2, 256883, Note_on_c, 0, 82, 0
2, 256966, Note_on_c, 0, 80, 57
2, 257043, Note_on_c, 0, 57, 31
2, 257047, Note_on_c, 0, 64, 24
2, 257074, Note_on_c, 0, 53, 20
2, 257156, Note_on_c, 0, 64, 0
2, 257185, Note_on_c, 0, 80, 0
2, 257217, Note_on_c, 0, 53, 0
2, 257382, Note_on_c, 0, 81, 55
2, 257412, Note_on_c, 0, 57, 0
2, 257841, Note_on_c, 0, 81, 0
2, 257958, Note_on_c, 0, 72, 57
2, 258256, Note_on_c, 0, 72, 0
2, 259103, Note_on_c, 0, 57, 24
2, 259247, Note_on_c, 0, 72, 79
2, 259329, Note_on_c, 0, 57, 0
2, 259667, Note_on_c, 0, 72, 0
2, 259896, Note_on_c, 0, 72, 52
2, 260220, Note_on_c, 0, 71, 49
2, 260291, Note_on_c, 0, 72, 0
2, 260711, Note_on_c, 0, 71, 0
2, 260827, Note_on_c, 0, 72, 62
2, 260948, Note_on_c, 0, 57, 36
2, 260994, Note_on_c, 0, 52, 36
2, 261013, Note_on_c, 0, 62, 34
2, 261091, Note_on_c, 0, 72, 0
2, 261096, Note_on_c, 0, 62, 0
2, 261100, Note_on_c, 0, 52, 0
2, 261175, Note_on_c, 0, 57, 0
2, 261247, Note_on_c, 0, 74, 91
2, 261667, Note_on_c, 0, 74, 0
2, 261822, Note_on_c, 0, 70, 60
2, 262024, Note_on_c, 0, 70, 0
2, 262244, Note_on_c, 0, 67, 16
2, 262474, Note_on_c, 0, 67, 0
2, 262683, Note_on_c, 0, 65, 60
2, 262759, Note_on_c, 0, 45, 30
2, 262822, Note_on_c, 0, 55, 20
2, 262934, Note_on_c, 0, 45, 0
2, 263004, Note_on_c, 0, 65, 0
2, 263019, Note_on_c, 0, 55, 0
2, 263149, Note_on_c, 0, 64, 42
2, 263492, Note_on_c, 0, 64, 0
2, 263667, Note_on_c, 0, 62, 71
2, 263771, Note_on_c, 0, 55, 27
2, 263785, Note_on_c, 0, 52, 31
2, 263885, Note_on_c, 0, 55, 0
2, 263950, Note_on_c, 0, 52, 0
2, 263985, Note_on_c, 0, 62, 0
2, 264085, Note_on_c, 0, 61, 36
2, 264435, Note_on_c, 0, 61, 0
2, 264608, Note_on_c, 0, 64, 65
2, 264931, Note_on_c, 0, 64, 0
2, 265063, Note_on_c, 0, 61, 59
2, 265467, Note_on_c, 0, 61, 0
2, 265555, Note_on_c, 0, 62, 61
2, 265812, Note_on_c, 0, 62, 0
2, 266010, Note_on_c, 0, 64, 36
2, 266293, Note_on_c, 0, 64, 0
2, 267538, Note_on_c, 0, 60, 33
2, 267545, Note_on_c, 0, 57, 37
2, 267617, Note_on_c, 0, 60, 0
2, 267636, Note_on_c, 0, 53, 28
2, 267706, Note_on_c, 0, 57, 0
2, 267736, Note_on_c, 0, 53, 0
2, 267849, Note_on_c, 0, 65, 44
2, 267947, Note_on_c, 0, 65, 0
2, 268191, Note_on_c, 0, 69, 67
2, 268383, Note_on_c, 0, 69, 0
2, 268585, Note_on_c, 0, 76, 101
2, 268627, Note_on_c, 0, 74, 54
2, 268715, Note_on_c, 0, 74, 0
2, 268892, Note_on_c, 0, 76, 0
2, 268928, Note_on_c, 0, 53, 30
2, 268954, Note_on_c, 0, 64, 25
2, 268959, Note_on_c, 0, 59, 45
2, 268984, Note_on_c, 0, 73, 67
2, 269481, Note_on_c, 0, 64, 0
2, 269555, Note_on_c, 0, 59, 0
2, 269557, Note_on_c, 0, 53, 0
2, 269589, Note_on_c, 0, 73, 0
2, 269833, Note_on_c, 0, 59, 50
2, 269840, Note_on_c, 0, 53, 56
2, 269854, Note_on_c, 0, 64, 54
2, 269864, Note_on_c, 0, 73, 73
2, 270437, Note_on_c, 0, 53, 0
2, 270472, Note_on_c, 0, 64, 0
2, 270483, Note_on_c, 0, 73, 0
2, 270545, Note_on_c, 0, 59, 0
2, 270837, Note_on_c, 0, 59, 56
2, 270850, Note_on_c, 0, 73, 77
2, 270868, Note_on_c, 0, 64, 55
2, 270871, Note_on_c, 0, 53, 59
2, 271249, Note_on_c, 0, 73, 0
2, 271293, Note_on_c, 0, 64, 0
2, 271349, Note_on_c, 0, 53, 0
2, 271417, Note_on_c, 0, 74, 62
2, 271647, Note_on_c, 0, 74, 0
2, 271654, Note_on_c, 0, 64, 13
2, 271680, Note_on_c, 0, 53, 30
2, 271786, Note_on_c, 0, 76, 74
2, 271875, Note_on_c, 0, 74, 33
2, 271935, Note_on_c, 0, 64, 0
2, 271970, Note_on_c, 0, 59, 0
2, 272118, Note_on_c, 0, 74, 0
2, 272228, Note_on_c, 0, 76, 0
2, 272380, Note_on_c, 0, 70, 59
2, 272424, Note_on_c, 0, 62, 50
2, 272434, Note_on_c, 0, 57, 33
2, 272451, Note_on_c, 0, 58, 46
2, 272829, Note_on_c, 0, 62, 0
2, 272847, Note_on_c, 0, 57, 0
2, 272863, Note_on_c, 0, 58, 0
2, 272900, Note_on_c, 0, 53, 0
2, 273079, Note_on_c, 0, 70, 0
2, 273633, Note_on_c, 0, 62, 48
2, 273663, Note_on_c, 0, 70, 48
2, 273671, Note_on_c, 0, 58, 39
2, 273705, Note_on_c, 0, 57, 33
2, 274174, Note_on_c, 0, 62, 0
2, 274218, Note_on_c, 0, 58, 0
2, 274230, Note_on_c, 0, 70, 0
2, 274271, Note_on_c, 0, 57, 0
2, 274641, Note_on_c, 0, 70, 67
2, 275225, Note_on_c, 0, 70, 0
2, 275248, Note_on_c, 0, 72, 27
2, 275433, Note_on_c, 0, 72, 0
2, 275543, Note_on_c, 0, 74, 60
2, 276097, Note_on_c, 0, 74, 0
2, 276446, Note_on_c, 0, 61, 39
2, 276450, Note_on_c, 0, 64, 34
2, 276490, Note_on_c, 0, 58, 39
2, 277675, Note_on_c, 0, 64, 0
2, 277749, Note_on_c, 0, 58, 0
2, 277763, Note_on_c, 0, 61, 0
2, 278130, Note_on_c, 0, 64, 57
2, 278148, Note_on_c, 0, 61, 53
2, 278162, Note_on_c, 0, 58, 52
2, 278306, Note_on_c, 0, 64, 0
2, 278432, Note_on_c, 0, 73, 91
2, 278580, Note_on_c, 0, 61, 0
2, 278833, Note_on_c, 0, 58, 0
2, 278999, Note_on_c, 0, 74, 66
2, 279028, Note_on_c, 0, 73, 0
2, 279145, Note_on_c, 0, 61, 33
2, 279172, Note_on_c, 0, 58, 35
2, 279244, Note_on_c, 0, 74, 0
2, 279406, Note_on_c, 0, 76, 66
2, 279675, Note_on_c, 0, 76, 0
2, 279796, Note_on_c, 0, 61, 0
2, 279937, Note_on_c, 0, 58, 0
2, 279971, Note_on_c, 0, 70, 75
2, 280066, Note_on_c, 0, 64, 31
2, 280072, Note_on_c, 0, 60, 24
2, 280097, Note_on_c, 0, 53, 30
2, 280117, Note_on_c, 0, 57, 24
2, 280162, Note_on_c, 0, 64, 0
2, 280369, Note_on_c, 0, 70, 0
2, 280440, Note_on_c, 0, 60, 0
2, 280452, Note_on_c, 0, 69, 38
2, 280825, Note_on_c, 0, 69, 0
2, 280967, Note_on_c, 0, 70, 60
2, 281153, Note_on_c, 0, 53, 0
2, 281220, Note_on_c, 0, 70, 0
2, 281287, Note_on_c, 0, 57, 0
2, 281371, Note_on_c, 0, 73, 64
2, 281922, Note_on_c, 0, 73, 0
2, 281944, Note_on_c, 0, 64, 32
2, 282034, Note_on_c, 0, 57, 27
2, 282141, Note_on_c, 0, 64, 0
2, 282294, Note_on_c, 0, 69, 54
2, 282297, Note_on_c, 0, 57, 0
2, 282834, Note_on_c, 0, 73, 63
2, 282867, Note_on_c, 0, 61, 61
2, 282892, Note_on_c, 0, 64, 59
2, 282895, Note_on_c, 0, 69, 0
2, 282897, Note_on_c, 0, 57, 32
2, 282918, Note_on_c, 0, 53, 42
2, 283004, Note_on_c, 0, 64, 0
2, 283046, Note_on_c, 0, 73, 0
2, 283051, Note_on_c, 0, 53, 0
2, 283145, Note_on_c, 0, 57, 0
2, 283252, Note_on_c, 0, 76, 78
2, 283357, Note_on_c, 0, 61, 0
2, 283644, Note_on_c, 0, 76, 0
2, 283791, Note_on_c, 0, 81, 82
2, 283802, Note_on_c, 0, 63, 80
2, 283804, Note_on_c, 0, 60, 48
2, 283806, Note_on_c, 0, 55, 54
2, 283809, Note_on_c, 0, 57, 60
2, 284103, Note_on_c, 0, 81, 0
2, 284177, Note_on_c, 0, 63, 0
2, 284245, Note_on_c, 0, 85, 74
2, 284331, Note_on_c, 0, 57, 0
2, 284403, Note_on_c, 0, 86, 25
2, 284456, Note_on_c, 0, 55, 0
2, 284496, Note_on_c, 0, 86, 0
2, 284558, Note_on_c, 0, 85, 0
2, 284646, Note_on_c, 0, 60, 0
2, 284765, Note_on_c, 0, 60, 70
2, 284767, Note_on_c, 0, 65, 84
2, 284784, Note_on_c, 0, 54, 77
2, 284785, Note_on_c, 0, 89, 85
2, 284857, Note_on_c, 0, 58, 30
2, 284937, Note_on_c, 0, 58, 0
2, 285096, Note_on_c, 0, 89, 0
2, 285262, Note_on_c, 0, 87, 59
2, 285695, Note_on_c, 0, 65, 0
2, 285846, Note_on_c, 0, 87, 0
2, 285880, Note_on_c, 0, 60, 0
2, 285895, Note_on_c, 0, 54, 0
2, 286110, Note_on_c, 0, 85, 58
2, 286115, Note_on_c, 0, 64, 55
2, 286140, Note_on_c, 0, 60, 35
2, 286150, Note_on_c, 0, 54, 46
2, 286190, Note_on_c, 0, 86, 66
2, 286326, Note_on_c, 0, 85, 0
2, 286716, Note_on_c, 0, 86, 0
2, 287094, Note_on_c, 0, 60, 0
2, 287101, Note_on_c, 0, 84, 87
2, 287200, Note_on_c, 0, 64, 0
2, 287509, Note_on_c, 0, 54, 0
2, 287551, Note_on_c, 0, 84, 0
2, 287676, Note_on_c, 0, 82, 57
2, 287845, Note_on_c, 0, 62, 36
2, 287848, Note_on_c, 0, 53, 27
2, 287892, Note_on_c, 0, 57, 32
2, 287894, Note_on_c, 0, 58, 38
2, 288054, Note_on_c, 0, 82, 0
2, 288101, Note_on_c, 0, 81, 44
2, 288528, Note_on_c, 0, 81, 0
2, 288681, Note_on_c, 0, 84, 62
2, 288983, Note_on_c, 0, 84, 0
2, 289061, Note_on_c, 0, 81, 38
2, 289120, Note_on_c, 0, 62, 0
2, 289226, Note_on_c, 0, 58, 0
2, 289228, Note_on_c, 0, 57, 0
2, 289426, Note_on_c, 0, 53, 0
2, 289539, Note_on_c, 0, 81, 0
2, 289632, Note_on_c, 0, 82, 54
2, 289968, Note_on_c, 0, 82, 0
2, 290031, Note_on_c, 0, 74, 39
2, 290625, Note_on_c, 0, 74, 0
2, 290802, Note_on_c, 0, 58, 30
2, 290910, Note_on_c, 0, 74, 40
2, 291048, Note_on_c, 0, 58, 0
2, 291449, Note_on_c, 0, 74, 0
2, 291940, Note_on_c, 0, 65, 45
2, 291945, Note_on_c, 0, 62, 41
2, 291959, Note_on_c, 0, 57, 32
2, 292345, Note_on_c, 0, 65, 0
2, 292362, Note_on_c, 0, 62, 0
2, 292398, Note_on_c, 0, 57, 0
2, 293464, Note_on_c, 0, 62, 77
2, 293479, Note_on_c, 0, 56, 83
2, 293481, Note_on_c, 0, 67, 85
2, 294490, Note_on_c, 0, 86, 101
2, 294790, Note_on_c, 0, 67, 0
2, 294808, Note_on_c, 0, 86, 0
2, 294822, Note_on_c, 0, 62, 0
2, 294966, Note_on_c, 0, 56, 0
2, 294980, Note_on_c, 0, 88, 79
2, 295344, Note_on_c, 0, 88, 0
2, 295430, Note_on_c, 0, 60, 46
2, 295432, Note_on_c, 0, 64, 68
2, 295434, Note_on_c, 0, 89, 78
2, 295436, Note_on_c, 0, 53, 61
2, 295442, Note_on_c, 0, 57, 54
2, 295553, Note_on_c, 0, 88, 39
2, 295655, Note_on_c, 0, 88, 0
2, 295701, Note_on_c, 0, 89, 0
2, 295736, Note_on_c, 0, 64, 0
2, 295965, Note_on_c, 0, 90, 68
2, 295978, Note_on_c, 0, 78, 55
2, 296098, Note_on_c, 0, 60, 0
2, 296146, Note_on_c, 0, 91, 44
2, 296163, Note_on_c, 0, 89, 33
2, 296225, Note_on_c, 0, 78, 0
2, 296239, Note_on_c, 0, 57, 0
2, 296244, Note_on_c, 0, 79, 69
2, 296246, Note_on_c, 0, 53, 0
2, 296428, Note_on_c, 0, 91, 0
2, 296471, Note_on_c, 0, 90, 0
2, 296476, Note_on_c, 0, 89, 0
2, 296495, Note_on_c, 0, 79, 0
2, 296791, Note_on_c, 0, 87, 64
2, 296801, Note_on_c, 0, 75, 73
2, 296992, Note_on_c, 0, 88, 40
2, 297047, Note_on_c, 0, 86, 37
2, 297049, Note_on_c, 0, 75, 0
2, 297087, Note_on_c, 0, 76, 55
2, 297230, Note_on_c, 0, 87, 0
2, 297343, Note_on_c, 0, 88, 0
2, 297349, Note_on_c, 0, 86, 0
2, 297372, Note_on_c, 0, 64, 47
2, 297414, Note_on_c, 0, 76, 0
2, 297442, Note_on_c, 0, 60, 25
2, 297453, Note_on_c, 0, 64, 0
2, 297459, Note_on_c, 0, 57, 32
2, 297671, Note_on_c, 0, 84, 68
2, 297710, Note_on_c, 0, 60, 0
2, 297722, Note_on_c, 0, 72, 60
2, 297754, Note_on_c, 0, 57, 0
2, 298053, Note_on_c, 0, 84, 0
2, 298110, Note_on_c, 0, 72, 0
2, 298619, Note_on_c, 0, 64, 40
2, 298625, Note_on_c, 0, 53, 45
2, 298629, Note_on_c, 0, 60, 30
2, 298643, Note_on_c, 0, 57, 37
2, 299039, Note_on_c, 0, 57, 0
2, 299056, Note_on_c, 0, 53, 0
2, 299061, Note_on_c, 0, 60, 0
2, 299184, Note_on_c, 0, 64, 0
2, 299578, Note_on_c, 0, 62, 51
2, 299580, Note_on_c, 0, 55, 53
2, 299585, Note_on_c, 0, 65, 60
2, 299588, Note_on_c, 0, 60, 34
2, 300176, Note_on_c, 0, 55, 0
2, 300199, Note_on_c, 0, 65, 0
2, 300265, Note_on_c, 0, 60, 0
2, 300336, Note_on_c, 0, 62, 0
2, 301103, Note_on_c, 0, 62, 71
2, 301104, Note_on_c, 0, 60, 46
2, 301146, Note_on_c, 0, 55, 40
2, 301277, Note_on_c, 0, 55, 0
2, 301316, Note_on_c, 0, 62, 0
2, 301402, Note_on_c, 0, 60, 0
2, 301502, Note_on_c, 0, 96, 87
2, 301503, Note_on_c, 0, 84, 101
2, 301560, Note_on_c, 0, 95, 60
2, 301636, Note_on_c, 0, 95, 0
2, 301983, Note_on_c, 0, 96, 0
2, 302083, Note_on_c, 0, 84, 0
2, 302121, Note_on_c, 0, 62, 67
2, 302123, Note_on_c, 0, 60, 42
2, 302134, Note_on_c, 0, 65, 55
2, 302211, Note_on_c, 0, 65, 0
2, 302345, Note_on_c, 0, 62, 0
2, 302413, Note_on_c, 0, 92, 60
2, 302431, Note_on_c, 0, 80, 72
2, 302473, Note_on_c, 0, 60, 0
2, 302664, Note_on_c, 0, 93, 26
2, 302735, Note_on_c, 0, 86, 17
2, 302786, Note_on_c, 0, 81, 66
2, 302807, Note_on_c, 0, 92, 0
2, 302812, Note_on_c, 0, 80, 0
2, 302900, Note_on_c, 0, 89, 19
2, 302989, Note_on_c, 0, 93, 0
2, 303033, Note_on_c, 0, 89, 0
2, 303067, Note_on_c, 0, 81, 0
2, 303127, Note_on_c, 0, 86, 0
2, 304018, Note_on_c, 0, 58, 53
2, 304023, Note_on_c, 0, 62, 60
2, 304027, Note_on_c, 0, 55, 49
2, 304035, Note_on_c, 0, 52, 48
2, 304824, Note_on_c, 0, 58, 0
2, 305098, Note_on_c, 0, 58, 27
2, 305362, Note_on_c, 0, 58, 0
2, 305364, Note_on_c, 0, 91, 88
2, 305387, Note_on_c, 0, 79, 92
2, 305429, Note_on_c, 0, 62, 0
2, 305524, Note_on_c, 0, 91, 0
2, 305817, Note_on_c, 0, 55, 0
2, 305914, Note_on_c, 0, 79, 0
2, 305961, Note_on_c, 0, 90, 77
2, 305962, Note_on_c, 0, 55, 17
2, 305997, Note_on_c, 0, 62, 68
2, 306026, Note_on_c, 0, 58, 37
2, 306230, Note_on_c, 0, 55, 0
2, 306232, Note_on_c, 0, 52, 0
2, 306292, Note_on_c, 0, 90, 0
2, 306347, Note_on_c, 0, 58, 0
2, 306397, Note_on_c, 0, 89, 37
2, 306415, Note_on_c, 0, 62, 0
2, 306803, Note_on_c, 0, 89, 0
2, 306920, Note_on_c, 0, 88, 73
2, 306978, Note_on_c, 0, 60, 33
2, 307012, Note_on_c, 0, 63, 58
2, 307023, Note_on_c, 0, 57, 27
2, 307046, Note_on_c, 0, 55, 22
2, 307248, Note_on_c, 0, 88, 0
2, 307396, Note_on_c, 0, 87, 69
2, 307459, Note_on_c, 0, 60, 0
2, 307773, Note_on_c, 0, 87, 0
2, 307905, Note_on_c, 0, 89, 53
2, 307911, Note_on_c, 0, 60, 20
2, 308051, Note_on_c, 0, 87, 37
2, 308101, Note_on_c, 0, 57, 0
2, 308120, Note_on_c, 0, 89, 0
2, 308122, Note_on_c, 0, 63, 0
2, 308234, Note_on_c, 0, 55, 0
2, 308306, Note_on_c, 0, 84, 50
2, 308436, Note_on_c, 0, 87, 0
2, 308658, Note_on_c, 0, 60, 0
2, 308719, Note_on_c, 0, 84, 0
2, 308821, Note_on_c, 0, 85, 78
2, 308904, Note_on_c, 0, 60, 32
2, 308919, Note_on_c, 0, 64, 47
2, 308939, Note_on_c, 0, 54, 33
2, 309201, Note_on_c, 0, 85, 0
2, 309278, Note_on_c, 0, 86, 60
2, 309431, Note_on_c, 0, 60, 0
2, 309619, Note_on_c, 0, 86, 0
2, 309769, Note_on_c, 0, 87, 62
2, 309820, Note_on_c, 0, 60, 20
2, 310001, Note_on_c, 0, 64, 0
2, 310021, Note_on_c, 0, 60, 0
2, 310027, Note_on_c, 0, 87, 0
2, 310183, Note_on_c, 0, 88, 62
2, 310398, Note_on_c, 0, 54, 0
2, 310570, Note_on_c, 0, 88, 0
2, 310693, Note_on_c, 0, 89, 74
2, 310741, Note_on_c, 0, 62, 64
2, 310761, Note_on_c, 0, 53, 42
2, 310770, Note_on_c, 0, 57, 42
2, 310772, Note_on_c, 0, 58, 46
2, 310881, Note_on_c, 0, 53, 0
2, 310946, Note_on_c, 0, 62, 0
2, 310958, Note_on_c, 0, 89, 0
2, 311039, Note_on_c, 0, 58, 0
2, 311097, Note_on_c, 0, 86, 56
2, 311178, Note_on_c, 0, 57, 0
2, 311368, Note_on_c, 0, 86, 0
2, 311674, Note_on_c, 0, 77, 66
2, 311881, Note_on_c, 0, 77, 0
2, 312150, Note_on_c, 0, 77, 33
2, 312645, Note_on_c, 0, 77, 0
2, 312904, Note_on_c, 0, 62, 36
2, 312964, Note_on_c, 0, 58, 36
2, 312976, Note_on_c, 0, 57, 27
2, 312999, Note_on_c, 0, 53, 22
2, 313041, Note_on_c, 0, 77, 50
2, 313495, Note_on_c, 0, 53, 0
2, 313528, Note_on_c, 0, 57, 0
2, 313535, Note_on_c, 0, 77, 0
2, 313589, Note_on_c, 0, 58, 0
2, 313742, Note_on_c, 0, 62, 0
2, 313921, Note_on_c, 0, 77, 73
2, 314422, Note_on_c, 0, 77, 0
2, 314591, Note_on_c, 0, 76, 29
2, 314734, Note_on_c, 0, 76, 0
2, 314822, Note_on_c, 0, 61, 35
2, 314830, Note_on_c, 0, 60, 20
2, 314842, Note_on_c, 0, 65, 35
2, 314858, Note_on_c, 0, 55, 34
2, 314914, Note_on_c, 0, 77, 44
2, 315398, Note_on_c, 0, 77, 0
2, 315549, Note_on_c, 0, 84, 83
2, 315555, Note_on_c, 0, 72, 79
2, 316275, Note_on_c, 0, 84, 0
2, 316289, Note_on_c, 0, 72, 0
2, 316505, Note_on_c, 0, 55, 0
2, 316539, Note_on_c, 0, 65, 0
2, 316553, Note_on_c, 0, 61, 0
2, 316630, Note_on_c, 0, 60, 0
2, 316852, Note_on_c, 0, 65, 44
2, 316878, Note_on_c, 0, 61, 48
2, 316883, Note_on_c, 0, 60, 24
2, 316886, Note_on_c, 0, 84, 80
2, 316906, Note_on_c, 0, 72, 79
2, 316927, Note_on_c, 0, 55, 33
2, 317466, Note_on_c, 0, 84, 0
2, 317592, Note_on_c, 0, 72, 0
2, 317609, Note_on_c, 0, 60, 0
2, 317614, Note_on_c, 0, 65, 0
2, 317674, Note_on_c, 0, 61, 0
2, 317725, Note_on_c, 0, 55, 0
2, 318417, Note_on_c, 0, 82, 74
2, 318432, Note_on_c, 0, 70, 80
2, 318442, Note_on_c, 0, 64, 60
2, 318452, Note_on_c, 0, 60, 35
2, 318453, Note_on_c, 0, 53, 51
2, 318458, Note_on_c, 0, 57, 40
2, 318521, Note_on_c, 0, 64, 0
2, 318597, Note_on_c, 0, 70, 0
2, 318604, Note_on_c, 0, 82, 0
2, 318664, Note_on_c, 0, 60, 0
2, 318736, Note_on_c, 0, 53, 0
2, 318851, Note_on_c, 0, 57, 0
2, 318881, Note_on_c, 0, 80, 39
2, 318899, Note_on_c, 0, 68, 43
2, 319157, Note_on_c, 0, 80, 0
2, 319159, Note_on_c, 0, 68, 0
2, 319178, Note_on_c, 0, 81, 24
2, 319270, Note_on_c, 0, 69, 24
2, 319384, Note_on_c, 0, 81, 0
2, 319448, Note_on_c, 0, 69, 0
2, 319758, Note_on_c, 0, 81, 66
2, 319785, Note_on_c, 0, 69, 62
2, 320182, Note_on_c, 0, 81, 0
2, 320202, Note_on_c, 0, 69, 0
2, 320461, Note_on_c, 0, 77, 34
2, 320576, Note_on_c, 0, 77, 0
2, 320771, Note_on_c, 0, 79, 64
2, 320796, Note_on_c, 0, 56, 65
2, 320802, Note_on_c, 0, 62, 60
2, 320806, Note_on_c, 0, 67, 67
2, 321919, Note_on_c, 0, 62, 0
2, 321971, Note_on_c, 0, 67, 0
2, 322354, Note_on_c, 0, 56, 0
2, 322481, Note_on_c, 0, 79, 0
2, 322678, Note_on_c, 0, 77, 76
2, 322690, Note_on_c, 0, 63, 73
2, 322729, Note_on_c, 0, 60, 35
2, 322731, Note_on_c, 0, 57, 41
2, 322771, Note_on_c, 0, 55, 26
2, 323131, Note_on_c, 0, 77, 0
2, 323592, Note_on_c, 0, 57, 0
2, 323608, Note_on_c, 0, 63, 0
2, 323620, Note_on_c, 0, 75, 92
2, 323690, Note_on_c, 0, 55, 0
2, 323894, Note_on_c, 0, 60, 0
2, 324077, Note_on_c, 0, 75, 0
2, 324228, Note_on_c, 0, 74, 84
2, 324421, Note_on_c, 0, 60, 20
2, 324453, Note_on_c, 0, 62, 36
2, 324502, Note_on_c, 0, 54, 27
2, 324555, Note_on_c, 0, 74, 0
2, 324685, Note_on_c, 0, 72, 58
2, 324702, Note_on_c, 0, 60, 0
2, 325074, Note_on_c, 0, 72, 0
2, 325200, Note_on_c, 0, 70, 71
2, 325238, Note_on_c, 0, 60, 17
2, 325409, Note_on_c, 0, 60, 0
2, 325480, Note_on_c, 0, 70, 0
2, 325611, Note_on_c, 0, 69, 32
2, 325755, Note_on_c, 0, 62, 0
2, 325910, Note_on_c, 0, 54, 0
2, 326009, Note_on_c, 0, 69, 0
2, 326102, Note_on_c, 0, 72, 72
2, 326242, Note_on_c, 0, 62, 38
2, 326253, Note_on_c, 0, 53, 29
2, 326288, Note_on_c, 0, 58, 36
2, 326309, Note_on_c, 0, 57, 25
2, 326437, Note_on_c, 0, 72, 0
2, 326543, Note_on_c, 0, 62, 0
2, 326548, Note_on_c, 0, 70, 55
2, 326562, Note_on_c, 0, 58, 0
2, 326671, Note_on_c, 0, 57, 0
2, 327058, Note_on_c, 0, 57, 27
2, 327133, Note_on_c, 0, 70, 0
2, 327401, Note_on_c, 0, 62, 53
2, 327425, Note_on_c, 0, 57, 0
2, 328028, Note_on_c, 0, 62, 0
2, 328434, Note_on_c, 0, 62, 40
2, 328775, Note_on_c, 0, 53, 0
2, 329019, Note_on_c, 0, 62, 0
2, 329032, Note_on_c, 0, 63, 64
2, 329328, Note_on_c, 0, 63, 0
2, 329448, Note_on_c, 0, 64, 36
2, 329842, Note_on_c, 0, 64, 0
2, 330000, Note_on_c, 0, 67, 60
2, 330065, Note_on_c, 0, 62, 39
2, 330100, Note_on_c, 0, 58, 29
2, 330176, Note_on_c, 0, 62, 0
2, 330308, Note_on_c, 0, 67, 0
2, 330336, Note_on_c, 0, 58, 0
2, 330417, Note_on_c, 0, 64, 40
2, 331327, Note_on_c, 0, 64, 0
2, 331895, Note_on_c, 0, 62, 58
2, 331902, Note_on_c, 0, 58, 51
2, 331925, Note_on_c, 0, 52, 42
2, 331976, Note_on_c, 0, 62, 0
2, 332065, Note_on_c, 0, 52, 0
2, 332178, Note_on_c, 0, 58, 0
2, 332198, Note_on_c, 0, 65, 95
2, 332624, Note_on_c, 0, 65, 0
2, 332805, Note_on_c, 0, 66, 59
2, 332840, Note_on_c, 0, 52, 46
2, 332877, Note_on_c, 0, 62, 31
2, 332891, Note_on_c, 0, 58, 33
2, 332930, Note_on_c, 0, 52, 0
2, 332967, Note_on_c, 0, 62, 0
2, 333058, Note_on_c, 0, 58, 0
2, 333106, Note_on_c, 0, 66, 0
2, 333225, Note_on_c, 0, 67, 55
2, 333569, Note_on_c, 0, 67, 0
2, 333777, Note_on_c, 0, 62, 55
2, 333791, Note_on_c, 0, 70, 84
2, 333833, Note_on_c, 0, 53, 32
2, 333856, Note_on_c, 0, 62, 0
2, 333861, Note_on_c, 0, 60, 26
2, 333935, Note_on_c, 0, 57, 20
2, 333990, Note_on_c, 0, 53, 0
2, 334009, Note_on_c, 0, 60, 0
2, 334172, Note_on_c, 0, 57, 0
2, 334192, Note_on_c, 0, 70, 0
2, 334310, Note_on_c, 0, 68, 44
2, 334698, Note_on_c, 0, 68, 0
2, 334802, Note_on_c, 0, 69, 68
2, 335050, Note_on_c, 0, 69, 0
2, 335181, Note_on_c, 0, 72, 60
2, 335529, Note_on_c, 0, 72, 0
2, 335781, Note_on_c, 0, 76, 69
2, 335967, Note_on_c, 0, 76, 0
2, 336130, Note_on_c, 0, 79, 83
2, 336172, Note_on_c, 0, 64, 53
2, 336484, Note_on_c, 0, 79, 0
2, 336681, Note_on_c, 0, 78, 62
2, 336795, Note_on_c, 0, 64, 0
2, 336960, Note_on_c, 0, 78, 0
2, 337050, Note_on_c, 0, 77, 37
2, 337489, Note_on_c, 0, 77, 0
2, 337971, Note_on_c, 0, 57, 38
2, 337988, Note_on_c, 0, 62, 50
2, 338032, Note_on_c, 0, 58, 51
2, 338616, Note_on_c, 0, 62, 0
2, 338728, Note_on_c, 0, 57, 0
2, 338751, Note_on_c, 0, 58, 0
2, 338965, Note_on_c, 0, 74, 110
2, 339465, Note_on_c, 0, 74, 0
2, 339588, Note_on_c, 0, 73, 45
2, 339779, Note_on_c, 0, 73, 0
2, 339893, Note_on_c, 0, 64, 45
2, 339925, Note_on_c, 0, 58, 46
2, 339944, Note_on_c, 0, 61, 34
2, 339946, Note_on_c, 0, 74, 84
2, 340280, Note_on_c, 0, 64, 0
2, 340382, Note_on_c, 0, 74, 0
2, 340417, Note_on_c, 0, 61, 0
2, 340519, Note_on_c, 0, 58, 0
2, 340890, Note_on_c, 0, 59, 103
2, 341393, Note_on_c, 0, 59, 0
2, 341475, Note_on_c, 0, 58, 65
2, 341753, Note_on_c, 0, 58, 0
2, 341898, Note_on_c, 0, 57, 33
2, 342435, Note_on_c, 0, 41, 60
2, 342450, Note_on_c, 0, 57, 0
2, 342505, Note_on_c, 0, 61, 72
2, 342537, Note_on_c, 0, 41, 0
2, 342727, Note_on_c, 0, 61, 0
2, 342897, Note_on_c, 0, 64, 64
2, 343185, Note_on_c, 0, 64, 0
2, 343398, Note_on_c, 0, 69, 71
2, 343611, Note_on_c, 0, 69, 0
2, 343804, Note_on_c, 0, 73, 47
2, 344242, Note_on_c, 0, 73, 0
2, 344319, Note_on_c, 0, 76, 76
2, 344324, Note_on_c, 0, 62, 47
2, 344349, Note_on_c, 0, 67, 41
2, 344368, Note_on_c, 0, 63, 43
2, 344398, Note_on_c, 0, 57, 24
2, 344431, Note_on_c, 0, 67, 0
2, 344452, Note_on_c, 0, 76, 0
2, 344479, Note_on_c, 0, 63, 0
2, 344509, Note_on_c, 0, 57, 0
2, 344537, Note_on_c, 0, 62, 0
2, 344755, Note_on_c, 0, 81, 63
2, 345085, Note_on_c, 0, 81, 0
2, 345226, Note_on_c, 0, 85, 60
2, 345472, Note_on_c, 0, 85, 0
2, 345600, Note_on_c, 0, 88, 84
2, 346046, Note_on_c, 0, 88, 0
2, 346243, Note_on_c, 0, 85, 32
2, 346452, Note_on_c, 0, 85, 0
2, 346602, Note_on_c, 0, 63, 67
2, 346604, Note_on_c, 0, 86, 76
2, 346611, Note_on_c, 0, 55, 52
2, 346642, Note_on_c, 0, 60, 30
2, 347168, Note_on_c, 0, 55, 0
2, 347307, Note_on_c, 0, 63, 0
2, 347330, Note_on_c, 0, 60, 0
2, 347398, Note_on_c, 0, 86, 0
2, 347523, Note_on_c, 0, 60, 43
2, 347527, Note_on_c, 0, 65, 66
2, 347533, Note_on_c, 0, 54, 56
2, 347558, Note_on_c, 0, 87, 78
2, 348674, Note_on_c, 0, 60, 0
2, 348718, Note_on_c, 0, 65, 0
2, 348909, Note_on_c, 0, 87, 0
2, 349008, Note_on_c, 0, 54, 0
2, 349103, Note_on_c, 0, 86, 80
2, 349126, Note_on_c, 0, 62, 63
2, 349128, Note_on_c, 0, 53, 47
2, 349145, Note_on_c, 0, 58, 55
2, 349157, Note_on_c, 0, 57, 45
2, 349414, Note_on_c, 0, 86, 0
2, 349525, Note_on_c, 0, 84, 49
2, 349957, Note_on_c, 0, 84, 0
2, 350700, Note_on_c, 0, 62, 0
2, 350725, Note_on_c, 0, 58, 0
2, 351075, Note_on_c, 0, 62, 49
2, 351084, Note_on_c, 0, 84, 96
2, 351163, Note_on_c, 0, 58, 42
2, 351347, Note_on_c, 0, 62, 0
2, 351377, Note_on_c, 0, 53, 0
2, 351506, Note_on_c, 0, 58, 0
2, 351632, Note_on_c, 0, 57, 0
2, 351632, Note_on_c, 0, 83, 62
2, 351713, Note_on_c, 0, 84, 0
2, 351826, Note_on_c, 0, 82, 51
2, 351834, Note_on_c, 0, 83, 0
2, 352040, Note_on_c, 0, 62, 39
2, 352101, Note_on_c, 0, 82, 0
2, 352108, Note_on_c, 0, 81, 51
2, 352123, Note_on_c, 0, 58, 26
2, 352215, Note_on_c, 0, 81, 0
2, 352270, Note_on_c, 0, 58, 0
2, 352288, Note_on_c, 0, 62, 0
2, 352423, Note_on_c, 0, 78, 52
2, 352887, Note_on_c, 0, 78, 0
2, 352978, Note_on_c, 0, 81, 66
2, 353290, Note_on_c, 0, 81, 0
2, 353367, Note_on_c, 0, 79, 50
2, 353829, Note_on_c, 0, 79, 0
2, 353921, Note_on_c, 0, 77, 64
2, 353965, Note_on_c, 0, 57, 34
2, 353989, Note_on_c, 0, 62, 37
2, 354007, Note_on_c, 0, 65, 25
2, 354149, Note_on_c, 0, 65, 0
2, 354172, Note_on_c, 0, 77, 0
2, 354309, Note_on_c, 0, 74, 27
2, 354399, Note_on_c, 0, 57, 0
2, 354432, Note_on_c, 0, 62, 0
2, 354803, Note_on_c, 0, 74, 0
2, 354883, Note_on_c, 0, 71, 36
2, 355059, Note_on_c, 0, 71, 0
2, 355238, Note_on_c, 0, 62, 31
2, 355242, Note_on_c, 0, 65, 45
2, 355253, Note_on_c, 0, 76, 81
2, 355293, Note_on_c, 0, 56, 37
2, 355782, Note_on_c, 0, 76, 0
2, 355852, Note_on_c, 0, 62, 0
2, 355894, Note_on_c, 0, 71, 37
2, 355975, Note_on_c, 0, 65, 0
2, 356098, Note_on_c, 0, 71, 0
2, 356151, Note_on_c, 0, 56, 0
2, 356281, Note_on_c, 0, 72, 55
2, 356712, Note_on_c, 0, 72, 0
2, 356801, Note_on_c, 0, 74, 79
2, 356877, Note_on_c, 0, 64, 41
2, 356910, Note_on_c, 0, 53, 32
2, 356915, Note_on_c, 0, 57, 34
2, 356917, Note_on_c, 0, 60, 24
2, 356975, Note_on_c, 0, 64, 0
2, 357051, Note_on_c, 0, 60, 0
2, 357063, Note_on_c, 0, 74, 0
2, 357102, Note_on_c, 0, 53, 0
2, 357240, Note_on_c, 0, 72, 58
2, 357295, Note_on_c, 0, 57, 0
2, 357879, Note_on_c, 0, 72, 0
2, 358100, Note_on_c, 0, 69, 47
2, 358664, Note_on_c, 0, 69, 0
2, 358752, Note_on_c, 0, 64, 31
2, 358863, Note_on_c, 0, 64, 0
2, 359061, Note_on_c, 0, 69, 55
2, 359420, Note_on_c, 0, 69, 0
2, 359703, Note_on_c, 0, 60, 22
2, 359724, Note_on_c, 0, 57, 24
2, 359847, Note_on_c, 0, 57, 0
2, 359888, Note_on_c, 0, 60, 0
2, 360682, Note_on_c, 0, 65, 35
2, 360687, Note_on_c, 0, 55, 30
2, 360689, Note_on_c, 0, 60, 26
2, 360694, Note_on_c, 0, 62, 33
2, 361415, Note_on_c, 0, 62, 0
2, 361629, Note_on_c, 0, 62, 27
2, 361849, Note_on_c, 0, 65, 0
2, 362033, Note_on_c, 0, 62, 0
2, 362035, Note_on_c, 0, 69, 33
2, 362142, Note_on_c, 0, 60, 0
2, 362539, Note_on_c, 0, 69, 0
2, 362564, Note_on_c, 0, 70, 61
2, 362589, Note_on_c, 0, 62, 40
2, 362664, Note_on_c, 0, 60, 16
2, 362853, Note_on_c, 0, 70, 0
2, 362962, Note_on_c, 0, 62, 0
2, 363012, Note_on_c, 0, 74, 57
2, 363026, Note_on_c, 0, 60, 0
2, 363343, Note_on_c, 0, 74, 0
2, 363496, Note_on_c, 0, 62, 25
2, 363535, Note_on_c, 0, 77, 87
2, 363603, Note_on_c, 0, 62, 0
2, 363770, Note_on_c, 0, 55, 0
2, 363802, Note_on_c, 0, 77, 0
2, 363960, Note_on_c, 0, 81, 90
2, 364294, Note_on_c, 0, 81, 0
2, 364445, Note_on_c, 0, 82, 77
2, 364614, Note_on_c, 0, 58, 39
2, 364654, Note_on_c, 0, 62, 41
2, 364729, Note_on_c, 0, 52, 15
2, 364784, Note_on_c, 0, 82, 0
2, 364921, Note_on_c, 0, 81, 45
2, 365415, Note_on_c, 0, 81, 0
2, 365645, Note_on_c, 0, 58, 0
2, 365779, Note_on_c, 0, 62, 0
2, 365810, Note_on_c, 0, 81, 48
2, 366069, Note_on_c, 0, 81, 0
2, 366071, Note_on_c, 0, 52, 0
2, 366387, Note_on_c, 0, 62, 45
2, 366394, Note_on_c, 0, 58, 38
2, 366508, Note_on_c, 0, 62, 0
2, 366565, Note_on_c, 0, 58, 0
2, 366800, Note_on_c, 0, 69, 32
2, 366957, Note_on_c, 0, 69, 0
2, 367063, Note_on_c, 0, 70, 36
2, 367179, Note_on_c, 0, 70, 0
2, 367292, Note_on_c, 0, 72, 68
2, 367507, Note_on_c, 0, 72, 0
2, 367537, Note_on_c, 0, 74, 58
2, 367756, Note_on_c, 0, 74, 0
2, 367839, Note_on_c, 0, 76, 64
2, 367919, Note_on_c, 0, 76, 0
2, 368116, Note_on_c, 0, 77, 58
2, 368326, Note_on_c, 0, 77, 0
2, 368370, Note_on_c, 0, 79, 53
2, 368581, Note_on_c, 0, 79, 0
2, 368614, Note_on_c, 0, 82, 38
2, 368934, Note_on_c, 0, 82, 0
2, 368944, Note_on_c, 0, 86, 74
2, 369245, Note_on_c, 0, 84, 66
2, 369280, Note_on_c, 0, 86, 0
2, 369438, Note_on_c, 0, 84, 0
2, 369821, Note_on_c, 0, 63, 53
2, 369857, Note_on_c, 0, 60, 27
2, 369972, Note_on_c, 0, 57, 19
2, 370157, Note_on_c, 0, 60, 0
2, 370204, Note_on_c, 0, 57, 0
2, 370210, Note_on_c, 0, 63, 0
2, 370658, Note_on_c, 0, 65, 60
2, 370707, Note_on_c, 0, 54, 35
2, 370714, Note_on_c, 0, 60, 29
2, 370744, Note_on_c, 0, 58, 35
2, 371816, Note_on_c, 0, 60, 0
2, 371828, Note_on_c, 0, 65, 0
2, 371993, Note_on_c, 0, 58, 0
2, 372132, Note_on_c, 0, 54, 0
2, 372255, Note_on_c, 0, 62, 60
2, 372280, Note_on_c, 0, 53, 42
2, 372283, Note_on_c, 0, 58, 54
2, 372299, Note_on_c, 0, 57, 46
2, 372850, Note_on_c, 0, 58, 0
2, 373154, Note_on_c, 0, 58, 33
2, 373394, Note_on_c, 0, 58, 0
2, 373405, Note_on_c, 0, 62, 0
2, 373516, Note_on_c, 0, 92, 83
2, 373521, Note_on_c, 0, 80, 91
2, 373556, Note_on_c, 0, 86, 68
2, 373581, Note_on_c, 0, 89, 50
2, 373632, Note_on_c, 0, 86, 0
2, 373672, Note_on_c, 0, 89, 0
2, 373765, Note_on_c, 0, 57, 0
2, 373820, Note_on_c, 0, 53, 0
2, 373839, Note_on_c, 0, 92, 0
2, 373851, Note_on_c, 0, 80, 0
2, 373857, Note_on_c, 0, 89, 41
2, 373859, Note_on_c, 0, 93, 73
2, 373865, Note_on_c, 0, 86, 42
2, 373872, Note_on_c, 0, 81, 63
2, 373927, Note_on_c, 0, 91, 38
2, 374075, Note_on_c, 0, 81, 0
2, 374110, Note_on_c, 0, 93, 0
2, 374159, Note_on_c, 0, 91, 0
2, 374197, Note_on_c, 0, 86, 0
2, 374238, Note_on_c, 0, 89, 0
2, 374477, Note_on_c, 0, 92, 57
2, 374496, Note_on_c, 0, 80, 57
2, 374530, Note_on_c, 0, 89, 24
2, 374537, Note_on_c, 0, 86, 48
2, 374736, Note_on_c, 0, 92, 0
2, 374753, Note_on_c, 0, 80, 0
2, 374821, Note_on_c, 0, 93, 50
2, 374825, Note_on_c, 0, 81, 37
2, 374899, Note_on_c, 0, 91, 26
2, 374924, Note_on_c, 0, 93, 0
2, 374982, Note_on_c, 0, 81, 0
2, 375038, Note_on_c, 0, 91, 0
2, 375150, Note_on_c, 0, 86, 0
2, 375171, Note_on_c, 0, 89, 0
2, 375173, Note_on_c, 0, 62, 48
2, 375213, Note_on_c, 0, 58, 34
2, 375214, Note_on_c, 0, 57, 27
2, 375291, Note_on_c, 0, 53, 20
2, 375393, Note_on_c, 0, 53, 0
2, 375402, Note_on_c, 0, 80, 57
2, 375428, Note_on_c, 0, 92, 46
2, 375495, Note_on_c, 0, 58, 0
2, 375507, Note_on_c, 0, 62, 0
2, 375526, Note_on_c, 0, 86, 20
2, 375528, Note_on_c, 0, 57, 0
2, 375563, Note_on_c, 0, 89, 16
2, 375760, Note_on_c, 0, 92, 0
2, 375770, Note_on_c, 0, 80, 0
2, 375785, Note_on_c, 0, 93, 46
2, 375864, Note_on_c, 0, 81, 29
2, 375927, Note_on_c, 0, 93, 0
2, 375980, Note_on_c, 0, 81, 0
2, 376027, Note_on_c, 0, 89, 0
2, 376094, Note_on_c, 0, 86, 0
2, 376372, Note_on_c, 0, 61, 47
2, 376386, Note_on_c, 0, 65, 40
2, 376407, Note_on_c, 0, 89, 55
2, 376419, Note_on_c, 0, 60, 18
2, 376449, Note_on_c, 0, 77, 43
2, 376460, Note_on_c, 0, 55, 30
2, 377346, Note_on_c, 0, 55, 0
2, 377461, Note_on_c, 0, 60, 0
2, 377544, Note_on_c, 0, 65, 0
2, 377551, Note_on_c, 0, 89, 0
2, 377621, Note_on_c, 0, 77, 0
2, 377766, Note_on_c, 0, 61, 0
2, 377978, Note_on_c, 0, 61, 33
2, 378004, Note_on_c, 0, 89, 45
2, 378006, Note_on_c, 0, 65, 43
2, 378015, Note_on_c, 0, 77, 43
2, 378045, Note_on_c, 0, 60, 26
2, 378098, Note_on_c, 0, 55, 27
2, 379175, Note_on_c, 0, 60, 0
2, 379235, Note_on_c, 0, 65, 0
2, 379298, Note_on_c, 0, 55, 0
2, 379330, Note_on_c, 0, 61, 0
2, 380077, Note_on_c, 0, 89, 0
2, 380120, Note_on_c, 0, 77, 0
2, 380157, Note_on_c, 0, 53, 28
2, 380168, Note_on_c, 0, 64, 26
2, 380191, Note_on_c, 0, 60, 22
2, 380230, Note_on_c, 0, 57, 24
2, 381263, Note_on_c, 0, 88, 101
2, 381831, Note_on_c, 0, 89, 83
2, 381928, Note_on_c, 0, 88, 0
2, 382087, Note_on_c, 0, 60, 0
2, 382093, Note_on_c, 0, 64, 0
2, 382110, Note_on_c, 0, 89, 0
2, 382245, Note_on_c, 0, 91, 88
2, 382279, Note_on_c, 0, 57, 0
2, 382376, Note_on_c, 0, 53, 0
2, 382587, Note_on_c, 0, 91, 0
2, 382787, Note_on_c, 0, 89, 78
2, 382869, Note_on_c, 0, 53, 32
2, 382870, Note_on_c, 0, 64, 50
2, 382887, Note_on_c, 0, 57, 40
2, 382896, Note_on_c, 0, 61, 33
2, 383112, Note_on_c, 0, 89, 0
2, 383244, Note_on_c, 0, 88, 62
2, 383550, Note_on_c, 0, 88, 0
2, 383750, Note_on_c, 0, 85, 69
2, 383917, Note_on_c, 0, 61, 0
2, 383994, Note_on_c, 0, 57, 0
2, 384031, Note_on_c, 0, 64, 0
2, 384112, Note_on_c, 0, 85, 0
2, 384132, Note_on_c, 0, 53, 0
2, 384196, Note_on_c, 0, 81, 36
2, 384576, Note_on_c, 0, 81, 0
2, 384645, Note_on_c, 0, 86, 72
2, 384647, Note_on_c, 0, 62, 50
2, 384692, Note_on_c, 0, 57, 31
2, 384704, Note_on_c, 0, 52, 35
2, 384770, Note_on_c, 0, 58, 32
2, 384917, Note_on_c, 0, 86, 0
2, 385117, Note_on_c, 0, 82, 45
2, 385205, Note_on_c, 0, 52, 0
2, 385251, Note_on_c, 0, 57, 0
2, 385314, Note_on_c, 0, 58, 0
2, 385569, Note_on_c, 0, 62, 0
2, 385645, Note_on_c, 0, 82, 0
2, 385993, Note_on_c, 0, 81, 75
2, 386019, Note_on_c, 0, 61, 42
2, 386029, Note_on_c, 0, 64, 36
2, 386042, Note_on_c, 0, 58, 34
2, 386056, Note_on_c, 0, 55, 29
2, 386384, Note_on_c, 0, 81, 0
2, 386529, Note_on_c, 0, 82, 35
2, 386653, Note_on_c, 0, 81, 65
2, 386734, Note_on_c, 0, 64, 0
2, 386736, Note_on_c, 0, 61, 0
2, 386761, Note_on_c, 0, 82, 0
2, 386766, Note_on_c, 0, 58, 0
2, 386796, Note_on_c, 0, 55, 0
2, 386929, Note_on_c, 0, 79, 44
2, 386950, Note_on_c, 0, 81, 0
2, 387329, Note_on_c, 0, 79, 0
2, 387476, Note_on_c, 0, 77, 54
2, 387534, Note_on_c, 0, 57, 37
2, 387545, Note_on_c, 0, 60, 31
2, 387550, Note_on_c, 0, 50, 34
2, 387552, Note_on_c, 0, 53, 45
2, 387796, Note_on_c, 0, 77, 0
2, 387942, Note_on_c, 0, 76, 33
2, 388065, Note_on_c, 0, 60, 0
2, 388241, Note_on_c, 0, 57, 0
2, 388329, Note_on_c, 0, 76, 0
2, 388465, Note_on_c, 0, 79, 68
2, 388534, Note_on_c, 0, 53, 0
2, 388728, Note_on_c, 0, 79, 0
2, 388830, Note_on_c, 0, 50, 0
2, 388888, Note_on_c, 0, 77, 43
2, 389232, Note_on_c, 0, 77, 0
2, 389393, Note_on_c, 0, 60, 24
2, 389394, Note_on_c, 0, 69, 44
2, 389508, Note_on_c, 0, 60, 0
2, 389652, Note_on_c, 0, 69, 0
2, 389870, Note_on_c, 0, 69, 57
2, 390350, Note_on_c, 0, 60, 20
2, 390389, Note_on_c, 0, 69, 0
2, 390432, Note_on_c, 0, 53, 24
2, 390464, Note_on_c, 0, 60, 0
2, 390710, Note_on_c, 0, 53, 0
2, 390733, Note_on_c, 0, 69, 39
2, 391174, Note_on_c, 0, 69, 0
2, 391334, Note_on_c, 0, 68, 29
2, 391675, Note_on_c, 0, 64, 24
2, 391677, Note_on_c, 0, 59, 36
2, 391719, Note_on_c, 0, 53, 19
2, 391761, Note_on_c, 0, 68, 0
2, 391826, Note_on_c, 0, 69, 42
2, 392381, Note_on_c, 0, 69, 0
2, 392838, Note_on_c, 0, 59, 0
2, 392886, Note_on_c, 0, 64, 0
2, 393237, Note_on_c, 0, 64, 37
2, 393276, Note_on_c, 0, 59, 51
2, 393366, Note_on_c, 0, 64, 0
2, 393593, Note_on_c, 0, 82, 78
2, 393703, Note_on_c, 0, 59, 0
2, 393708, Note_on_c, 0, 53, 0
2, 393773, Note_on_c, 0, 82, 0
2, 393914, Note_on_c, 0, 80, 73
2, 394146, Note_on_c, 0, 80, 0
2, 394229, Note_on_c, 0, 59, 45
2, 394489, Note_on_c, 0, 75, 74
2, 394531, Note_on_c, 0, 59, 0
2, 394756, Note_on_c, 0, 75, 0
2, 394821, Note_on_c, 0, 71, 47
2, 395113, Note_on_c, 0, 71, 0
2, 396162, Note_on_c, 0, 62, 54
2, 396181, Note_on_c, 0, 58, 46
2, 396237, Note_on_c, 0, 57, 22
2, 396264, Note_on_c, 0, 62, 0
2, 396357, Note_on_c, 0, 57, 0
2, 396382, Note_on_c, 0, 58, 0
2, 396572, Note_on_c, 0, 69, 80
2, 396912, Note_on_c, 0, 69, 0
2, 397130, Note_on_c, 0, 70, 87
2, 397183, Note_on_c, 0, 62, 45
2, 397245, Note_on_c, 0, 58, 31
2, 397280, Note_on_c, 0, 62, 0
2, 397366, Note_on_c, 0, 58, 0
2, 397385, Note_on_c, 0, 70, 0
2, 397538, Note_on_c, 0, 72, 80
2, 397883, Note_on_c, 0, 72, 0
2, 398057, Note_on_c, 0, 69, 65
2, 398080, Note_on_c, 0, 62, 46
2, 398120, Note_on_c, 0, 58, 35
2, 398127, Note_on_c, 0, 57, 30
2, 398174, Note_on_c, 0, 62, 0
2, 398271, Note_on_c, 0, 58, 0
2, 398294, Note_on_c, 0, 69, 0
2, 398303, Note_on_c, 0, 57, 0
2, 398477, Note_on_c, 0, 65, 24
2, 398915, Note_on_c, 0, 65, 0
2, 399025, Note_on_c, 0, 62, 42
2, 399222, Note_on_c, 0, 62, 0
2, 399958, Note_on_c, 0, 60, 40
2, 400198, Note_on_c, 0, 60, 0
2, 400307, Note_on_c, 0, 61, 53
2, 400714, Note_on_c, 0, 61, 0
2, 400864, Note_on_c, 0, 63, 74
2, 401104, Note_on_c, 0, 63, 0
2, 401347, Note_on_c, 0, 65, 25
2, 401635, Note_on_c, 0, 65, 0
2, 401837, Note_on_c, 0, 68, 72
2, 401856, Note_on_c, 0, 63, 59
2, 401888, Note_on_c, 0, 58, 42
2, 401976, Note_on_c, 0, 53, 20
2, 401989, Note_on_c, 0, 63, 0
2, 402057, Note_on_c, 0, 53, 0
2, 402059, Note_on_c, 0, 68, 0
2, 402066, Note_on_c, 0, 58, 0
2, 402218, Note_on_c, 0, 70, 74
2, 402740, Note_on_c, 0, 64, 62
2, 402755, Note_on_c, 0, 73, 57
2, 402777, Note_on_c, 0, 53, 41
2, 402800, Note_on_c, 0, 57, 40
2, 402825, Note_on_c, 0, 64, 0
2, 402879, Note_on_c, 0, 53, 0
2, 402941, Note_on_c, 0, 70, 0
2, 403045, Note_on_c, 0, 57, 0
2, 403101, Note_on_c, 0, 73, 0
2, 403224, Note_on_c, 0, 75, 67
2, 403734, Note_on_c, 0, 76, 79
2, 403794, Note_on_c, 0, 64, 49
2, 403806, Note_on_c, 0, 75, 0
2, 403874, Note_on_c, 0, 64, 0
2, 403911, Note_on_c, 0, 57, 24
2, 403934, Note_on_c, 0, 76, 0
2, 404083, Note_on_c, 0, 57, 0
2, 404122, Note_on_c, 0, 79, 94
2, 404210, Note_on_c, 0, 78, 48
2, 404286, Note_on_c, 0, 78, 0
2, 404721, Note_on_c, 0, 79, 0
2, 404811, Note_on_c, 0, 76, 52
2, 404871, Note_on_c, 0, 57, 28
2, 404925, Note_on_c, 0, 76, 0
2, 405013, Note_on_c, 0, 57, 0
2, 405106, Note_on_c, 0, 77, 71
2, 405660, Note_on_c, 0, 77, 0
2, 405713, Note_on_c, 0, 72, 32
2, 405764, Note_on_c, 0, 71, 29
2, 405786, Note_on_c, 0, 64, 24
2, 405795, Note_on_c, 0, 60, 20
2, 405808, Note_on_c, 0, 57, 27
2, 405865, Note_on_c, 0, 71, 0
2, 405867, Note_on_c, 0, 64, 0
2, 405929, Note_on_c, 0, 57, 0
2, 405947, Note_on_c, 0, 72, 0
2, 406019, Note_on_c, 0, 60, 0
2, 406090, Note_on_c, 0, 69, 27
2, 406504, Note_on_c, 0, 69, 0
2, 407010, Note_on_c, 0, 63, 35
2, 407041, Note_on_c, 0, 60, 17
2, 407093, Note_on_c, 0, 57, 29
2, 407630, Note_on_c, 0, 60, 0
2, 407767, Note_on_c, 0, 57, 0
2, 407802, Note_on_c, 0, 63, 0
2, 408630, Note_on_c, 0, 64, 44
2, 408666, Note_on_c, 0, 60, 24
2, 408692, Note_on_c, 0, 54, 27
2, 409293, Note_on_c, 0, 60, 0
2, 409829, Note_on_c, 0, 64, 0
2, 409929, Note_on_c, 0, 84, 101
2, 410420, Note_on_c, 0, 84, 0
2, 410437, Note_on_c, 0, 54, 0
2, 410514, Note_on_c, 0, 81, 61
2, 410601, Note_on_c, 0, 62, 47
2, 410622, Note_on_c, 0, 58, 37
2, 410671, Note_on_c, 0, 57, 31
2, 410695, Note_on_c, 0, 53, 19
2, 410754, Note_on_c, 0, 62, 0
2, 410774, Note_on_c, 0, 81, 0
2, 410820, Note_on_c, 0, 58, 0
2, 410841, Note_on_c, 0, 53, 0
2, 410903, Note_on_c, 0, 57, 0
2, 411110, Note_on_c, 0, 82, 77
2, 411569, Note_on_c, 0, 82, 0
2, 411747, Note_on_c, 0, 74, 44
2, 412137, Note_on_c, 0, 74, 0
2, 412492, Note_on_c, 0, 74, 48
2, 412527, Note_on_c, 0, 62, 58
2, 412544, Note_on_c, 0, 57, 34
2, 412573, Note_on_c, 0, 58, 39
2, 412664, Note_on_c, 0, 57, 0
2, 412673, Note_on_c, 0, 62, 0
2, 412748, Note_on_c, 0, 58, 0
2, 412819, Note_on_c, 0, 74, 0
2, 413177, Note_on_c, 0, 74, 44
2, 413528, Note_on_c, 0, 74, 0
2, 413875, Note_on_c, 0, 74, 39
2, 414408, Note_on_c, 0, 74, 0
2, 414780, Note_on_c, 0, 62, 51
2, 414783, Note_on_c, 0, 63, 34
2, 414784, Note_on_c, 0, 67, 49
2, 414968, Note_on_c, 0, 57, 15
2, 415780, Note_on_c, 0, 89, 101
2, 416151, Note_on_c, 0, 62, 0
2, 416170, Note_on_c, 0, 67, 0
2, 416312, Note_on_c, 0, 89, 0
2, 416416, Note_on_c, 0, 86, 69
2, 416457, Note_on_c, 0, 57, 0
2, 416499, Note_on_c, 0, 63, 0
2, 416670, Note_on_c, 0, 86, 0
2, 416831, Note_on_c, 0, 67, 54
2, 416844, Note_on_c, 0, 88, 76
2, 416861, Note_on_c, 0, 56, 53
2, 416871, Note_on_c, 0, 62, 49
2, 417543, Note_on_c, 0, 79, 44
2, 417704, Note_on_c, 0, 62, 0
2, 417729, Note_on_c, 0, 67, 0
2, 417835, Note_on_c, 0, 88, 0
2, 417847, Note_on_c, 0, 79, 0
2, 417903, Note_on_c, 0, 56, 0
2, 418352, Note_on_c, 0, 88, 96
2, 418422, Note_on_c, 0, 64, 51
2, 418443, Note_on_c, 0, 60, 26
2, 418452, Note_on_c, 0, 57, 33
2, 418468, Note_on_c, 0, 53, 22
2, 419279, Note_on_c, 0, 85, 45
2, 419290, Note_on_c, 0, 88, 0
2, 419503, Note_on_c, 0, 85, 0
2, 419591, Note_on_c, 0, 64, 0
2, 419635, Note_on_c, 0, 86, 81
2, 419656, Note_on_c, 0, 60, 0
2, 419679, Note_on_c, 0, 85, 33
2, 419707, Note_on_c, 0, 57, 0
2, 419768, Note_on_c, 0, 53, 0
2, 420242, Note_on_c, 0, 86, 0
2, 420265, Note_on_c, 0, 81, 59
2, 420274, Note_on_c, 0, 85, 0
2, 420406, Note_on_c, 0, 81, 0
2, 421125, Note_on_c, 0, 64, 52
2, 421162, Note_on_c, 0, 60, 28
2, 421178, Note_on_c, 0, 57, 37
2, 421211, Note_on_c, 0, 64, 0
2, 421235, Note_on_c, 0, 53, 18
2, 421325, Note_on_c, 0, 53, 0
2, 421341, Note_on_c, 0, 60, 0
2, 421429, Note_on_c, 0, 57, 0
2, 422188, Note_on_c, 0, 86, 103
2, 422243, Note_on_c, 0, 85, 53
2, 422322, Note_on_c, 0, 85, 0
2, 422882, Note_on_c, 0, 86, 0
2, 423097, Note_on_c, 0, 83, 44
2, 423109, Note_on_c, 0, 65, 46
2, 423118, Note_on_c, 0, 62, 46
2, 423134, Note_on_c, 0, 60, 25
2, 423229, Note_on_c, 0, 65, 0
2, 423238, Note_on_c, 0, 83, 0
2, 423424, Note_on_c, 0, 85, 82
2, 423459, Note_on_c, 0, 62, 0
2, 423512, Note_on_c, 0, 60, 0
2, 423845, Note_on_c, 0, 85, 0
2, 424081, Note_on_c, 0, 82, 13
2, 424180, Note_on_c, 0, 82, 0
2, 424387, Note_on_c, 0, 84, 77
2, 424777, Note_on_c, 0, 84, 0
2, 424934, Note_on_c, 0, 81, 59
2, 424995, Note_on_c, 0, 62, 45
2, 425013, Note_on_c, 0, 65, 34
2, 425046, Note_on_c, 0, 60, 22
2, 425115, Note_on_c, 0, 65, 0
2, 425157, Note_on_c, 0, 62, 0
2, 425201, Note_on_c, 0, 81, 0
2, 425203, Note_on_c, 0, 60, 0
2, 425387, Note_on_c, 0, 77, 34
2, 425841, Note_on_c, 0, 77, 0
2, 425904, Note_on_c, 0, 74, 54
2, 426195, Note_on_c, 0, 62, 34
2, 426202, Note_on_c, 0, 58, 35
2, 426222, Note_on_c, 0, 74, 0
2, 426259, Note_on_c, 0, 57, 20
2, 426304, Note_on_c, 0, 70, 38
2, 426311, Note_on_c, 0, 52, 29
2, 426623, Note_on_c, 0, 58, 0
2, 426823, Note_on_c, 0, 70, 0
2, 427004, Note_on_c, 0, 67, 22
2, 427090, Note_on_c, 0, 67, 0
2, 427278, Note_on_c, 0, 69, 62
2, 427363, Note_on_c, 0, 57, 0
2, 427429, Note_on_c, 0, 62, 0
2, 427466, Note_on_c, 0, 52, 0
2, 428832, Note_on_c, 0, 65, 54
2, 428853, Note_on_c, 0, 58, 49
2, 428856, Note_on_c, 0, 61, 48
2, 428929, Note_on_c, 0, 69, 0
2, 428943, Note_on_c, 0, 65, 0
2, 429020, Note_on_c, 0, 61, 0
2, 429058, Note_on_c, 0, 58, 0
2, 430089, Note_on_c, 0, 60, 22
2, 430092, Note_on_c, 0, 63, 52
2, 430113, Note_on_c, 0, 57, 37
2, 430167, Note_on_c, 0, 84, 70
2, 430175, Note_on_c, 0, 72, 62
2, 430526, Note_on_c, 0, 72, 0
2, 430565, Note_on_c, 0, 84, 0
2, 430637, Note_on_c, 0, 63, 0
2, 430668, Note_on_c, 0, 57, 0
2, 430676, Note_on_c, 0, 60, 0
2, 430771, Note_on_c, 0, 63, 77
2, 430786, Note_on_c, 0, 76, 76
2, 430814, Note_on_c, 0, 88, 69
2, 430816, Note_on_c, 0, 57, 58
2, 430818, Note_on_c, 0, 60, 47
2, 430835, Note_on_c, 0, 55, 28
2, 430871, Note_on_c, 0, 76, 0
2, 430890, Note_on_c, 0, 88, 0
2, 430900, Note_on_c, 0, 60, 0
2, 430928, Note_on_c, 0, 63, 0
2, 430930, Note_on_c, 0, 55, 0
2, 431011, Note_on_c, 0, 57, 0
2, 431092, Note_on_c, 0, 63, 76
2, 431108, Note_on_c, 0, 60, 54
2, 431115, Note_on_c, 0, 55, 66
2, 431119, Note_on_c, 0, 57, 58
2, 431122, Note_on_c, 0, 79, 87
2, 431127, Note_on_c, 0, 91, 87
2, 431191, Note_on_c, 0, 89, 41
2, 431270, Note_on_c, 0, 89, 0
2, 431505, Note_on_c, 0, 91, 0
2, 431586, Note_on_c, 0, 79, 0
2, 431627, Note_on_c, 0, 55, 0
2, 431667, Note_on_c, 0, 60, 0
2, 431683, Note_on_c, 0, 57, 0
2, 431743, Note_on_c, 0, 63, 0
2, 432081, Note_on_c, 0, 80, 84
2, 432085, Note_on_c, 0, 92, 83
2, 432094, Note_on_c, 0, 87, 77
2, 432115, Note_on_c, 0, 65, 82
2, 432120, Note_on_c, 0, 58, 64
2, 432125, Note_on_c, 0, 60, 48
2, 432133, Note_on_c, 0, 54, 68
2, 432589, Note_on_c, 0, 87, 0
2, 432614, Note_on_c, 0, 65, 0
2, 432620, Note_on_c, 0, 80, 0
2, 432630, Note_on_c, 0, 92, 0
2, 432642, Note_on_c, 0, 60, 0
2, 432644, Note_on_c, 0, 58, 0
2, 432647, Note_on_c, 0, 54, 0
2, 432753, Note_on_c, 0, 87, 62
2, 432770, Note_on_c, 0, 93, 72
2, 432781, Note_on_c, 0, 65, 75
2, 432790, Note_on_c, 0, 81, 53
2, 432792, Note_on_c, 0, 54, 51
2, 432814, Note_on_c, 0, 60, 55
2, 432825, Note_on_c, 0, 58, 64
2, 432846, Note_on_c, 0, 93, 0
2, 432883, Note_on_c, 0, 81, 0
2, 432910, Note_on_c, 0, 60, 0
2, 432939, Note_on_c, 0, 87, 0
2, 432941, Note_on_c, 0, 65, 0
2, 432944, Note_on_c, 0, 58, 0
2, 433096, Note_on_c, 0, 65, 62
2, 433115, Note_on_c, 0, 82, 69
2, 433125, Note_on_c, 0, 87, 43
2, 433126, Note_on_c, 0, 94, 70
2, 433133, Note_on_c, 0, 58, 31
2, 433145, Note_on_c, 0, 60, 31
2, 433279, Note_on_c, 0, 92, 18
2, 433391, Note_on_c, 0, 87, 0
2, 433400, Note_on_c, 0, 92, 0
2, 433409, Control_c, 0, 64, 127
2, 433415, Note_on_c, 0, 82, 0
2, 433419, Note_on_c, 0, 65, 0
2, 433442, Note_on_c, 0, 94, 0
2, 433449, Note_on_c, 0, 60, 0
2, 433490, Note_on_c, 0, 58, 0
2, 433548, Note_on_c, 0, 54, 0
2, 433695, Note_on_c, 0, 60, 32
2, 433704, Note_on_c, 0, 65, 44
2, 433706, Note_on_c, 0, 54, 31
2, 433713, Note_on_c, 0, 58, 57
2, 433732, Note_on_c, 0, 83, 50
2, 433734, Note_on_c, 0, 95, 54
2, 433739, Control_c, 0, 64, 0
2, 433746, Note_on_c, 0, 94, 33
2, 433794, Note_on_c, 0, 65, 0
2, 433811, Note_on_c, 0, 95, 0
2, 433816, Note_on_c, 0, 83, 0
2, 433825, Note_on_c, 0, 60, 0
2, 433828, Note_on_c, 0, 94, 0
2, 433885, Note_on_c, 0, 58, 0
2, 433915, Note_on_c, 0, 54, 0
2, 434019, Note_on_c, 0, 89, 69
2, 434036, Note_on_c, 0, 53, 64
2, 434043, Note_on_c, 0, 96, 61
2, 434048, Note_on_c, 0, 84, 63
2, 434050, Note_on_c, 0, 98, 62
2, 434063, Note_on_c, 0, 57, 66
2, 434069, Note_on_c, 0, 62, 71
2, 434092, Note_on_c, 0, 86, 37
2, 434096, Note_on_c, 0, 93, 38
2, 434185, Note_on_c, 0, 86, 0
2, 434193, Note_on_c, 0, 93, 0
2, 434235, Note_on_c, 0, 98, 0
2, 434326, Note_on_c, 0, 96, 0
2, 434393, Note_on_c, 0, 89, 0
2, 434484, Note_on_c, 0, 84, 0
2, 434597, Note_on_c, 0, 62, 0
2, 434650, Note_on_c, 0, 53, 0
2, 434718, Note_on_c, 0, 57, 0
2, 434943, Note_on_c, 0, 57, 38
2, 434966, Note_on_c, 0, 62, 59
2, 434983, Note_on_c, 0, 92, 35
2, 434985, Note_on_c, 0, 80, 42
2, 434997, Note_on_c, 0, 53, 40
2, 434998, Note_on_c, 0, 58, 54
2, 435038, Note_on_c, 0, 86, 42
2, 435078, Note_on_c, 0, 89, 30
2, 435159, Note_on_c, 0, 93, 22
2, 435196, Note_on_c, 0, 92, 0
2, 435240, Note_on_c, 0, 80, 0
2, 435279, Note_on_c, 0, 81, 32
2, 435370, Note_on_c, 0, 93, 0
2, 435495, Note_on_c, 0, 89, 0
2, 435593, Note_on_c, 0, 86, 0
2, 435595, Note_on_c, 0, 58, 0
2, 435599, Note_on_c, 0, 53, 0
2, 435648, Note_on_c, 0, 62, 0
2, 435656, Note_on_c, 0, 81, 0
2, 435697, Note_on_c, 0, 57, 0
2, 435960, Note_on_c, 0, 89, 36
2, 435994, Note_on_c, 0, 62, 45
2, 435999, Note_on_c, 0, 57, 26
2, 436017, Note_on_c, 0, 53, 30
2, 436022, Note_on_c, 0, 58, 45
2, 436078, Note_on_c, 0, 77, 26
2, 436090, Note_on_c, 0, 84, 35
2, 436221, Note_on_c, 0, 84, 0
2, 436224, Note_on_c, 0, 89, 0
2, 436279, Note_on_c, 0, 77, 0
2, 436393, Note_on_c, 0, 53, 0
2, 436451, Note_on_c, 0, 57, 0
2, 436498, Note_on_c, 0, 58, 0
2, 436535, Note_on_c, 0, 62, 0
2, 437506, Note_on_c, 0, 61, 47
2, 437519, Note_on_c, 0, 65, 39
2, 437521, Note_on_c, 0, 60, 25
2, 437577, Note_on_c, 0, 55, 27
2, 438279, Note_on_c, 0, 61, 0
2, 438434, Note_on_c, 0, 61, 32
2, 438727, Note_on_c, 0, 65, 0
2, 438766, Note_on_c, 0, 96, 83
2, 438922, Note_on_c, 0, 61, 0
2, 438924, Note_on_c, 0, 96, 0
2, 438985, Note_on_c, 0, 55, 0
2, 438989, Note_on_c, 0, 97, 33
2, 439038, Note_on_c, 0, 60, 0
2, 439177, Note_on_c, 0, 96, 43
2, 439270, Note_on_c, 0, 97, 0
2, 439389, Note_on_c, 0, 61, 33
2, 439400, Note_on_c, 0, 65, 22
2, 439409, Note_on_c, 0, 96, 0
2, 439441, Note_on_c, 0, 60, 17
2, 439504, Note_on_c, 0, 93, 30
2, 439506, Note_on_c, 0, 65, 0
2, 439580, Note_on_c, 0, 61, 0
2, 439593, Note_on_c, 0, 93, 0
2, 439743, Note_on_c, 0, 60, 0
2, 439757, Note_on_c, 0, 96, 80
2, 440084, Note_on_c, 0, 96, 0
2, 440181, Note_on_c, 0, 97, 37
2, 440324, Note_on_c, 0, 61, 37
2, 440353, Note_on_c, 0, 96, 58
2, 440372, Note_on_c, 0, 60, 19
2, 440460, Note_on_c, 0, 97, 0
2, 440546, Note_on_c, 0, 60, 0
2, 440588, Note_on_c, 0, 61, 0
2, 440617, Note_on_c, 0, 93, 36
2, 440660, Note_on_c, 0, 96, 0
2, 441007, Note_on_c, 0, 93, 0
2, 441198, Note_on_c, 0, 94, 74
2, 441230, Note_on_c, 0, 57, 40
2, 441255, Note_on_c, 0, 64, 30
2, 441260, Note_on_c, 0, 53, 32
2, 441274, Note_on_c, 0, 60, 20
2, 441340, Note_on_c, 0, 64, 0
2, 441377, Note_on_c, 0, 53, 0
2, 441384, Note_on_c, 0, 60, 0
2, 441481, Note_on_c, 0, 57, 0
2, 441541, Note_on_c, 0, 94, 0
2, 441738, Note_on_c, 0, 95, 74
2, 442068, Note_on_c, 0, 95, 0
2, 442204, Note_on_c, 0, 96, 70
2, 442488, Note_on_c, 0, 96, 0
2, 442602, Note_on_c, 0, 93, 57
2, 442979, Note_on_c, 0, 93, 0
2, 443146, Note_on_c, 0, 89, 67
2, 443469, Note_on_c, 0, 89, 0
2, 443592, Note_on_c, 0, 84, 48
2, 443603, Note_on_c, 0, 67, 48
2, 443645, Note_on_c, 0, 56, 48
2, 443647, Note_on_c, 0, 62, 50
2, 444132, Note_on_c, 0, 56, 0
2, 444135, Note_on_c, 0, 67, 0
2, 444137, Note_on_c, 0, 62, 0
2, 444189, Note_on_c, 0, 84, 0
2, 444529, Note_on_c, 0, 56, 45
2, 444534, Note_on_c, 0, 67, 40
2, 444548, Note_on_c, 0, 84, 63
2, 444576, Note_on_c, 0, 62, 39
2, 444842, Note_on_c, 0, 62, 0
2, 444919, Note_on_c, 0, 67, 0
2, 444980, Note_on_c, 0, 84, 0
2, 445177, Note_on_c, 0, 56, 0
2, 445522, Note_on_c, 0, 61, 72
2, 445527, Note_on_c, 0, 65, 76
2, 445532, Note_on_c, 0, 60, 44
2, 445534, Note_on_c, 0, 99, 83
2, 445536, Note_on_c, 0, 87, 82
2, 445546, Note_on_c, 0, 55, 63
2, 445638, Note_on_c, 0, 100, 30
2, 445719, Note_on_c, 0, 100, 0
2, 445935, Note_on_c, 0, 99, 0
2, 445942, Note_on_c, 0, 55, 0
2, 445965, Note_on_c, 0, 65, 0
2, 445998, Note_on_c, 0, 60, 0
2, 446003, Note_on_c, 0, 61, 0
2, 446010, Note_on_c, 0, 87, 0
2, 446153, Note_on_c, 0, 89, 65
2, 446174, Note_on_c, 0, 101, 51
2, 446179, Note_on_c, 0, 60, 46
2, 446182, Note_on_c, 0, 61, 64
2, 446183, Note_on_c, 0, 65, 62
2, 446205, Note_on_c, 0, 55, 36
2, 446257, Note_on_c, 0, 89, 0
2, 446281, Note_on_c, 0, 101, 0
2, 446372, Note_on_c, 0, 65, 0
2, 446518, Note_on_c, 0, 65, 44
2, 446520, Note_on_c, 0, 99, 56
2, 446613, Note_on_c, 0, 88, 27
2, 446726, Note_on_c, 0, 60, 0
2, 446806, Note_on_c, 0, 88, 0
2, 446817, Note_on_c, 0, 65, 0
2, 446850, Note_on_c, 0, 55, 0
2, 446854, Note_on_c, 0, 99, 0
2, 446933, Note_on_c, 0, 61, 0
2, 447118, Note_on_c, 0, 64, 61
2, 447123, Note_on_c, 0, 98, 71
2, 447144, Note_on_c, 0, 86, 67
2, 447146, Note_on_c, 0, 60, 33
2, 447179, Note_on_c, 0, 54, 33
2, 447315, Note_on_c, 0, 86, 0
2, 447318, Note_on_c, 0, 98, 0
2, 447339, Note_on_c, 0, 64, 0
2, 447366, Note_on_c, 0, 60, 0
2, 447430, Note_on_c, 0, 54, 0
2, 448039, Note_on_c, 0, 60, 44
2, 448044, Note_on_c, 0, 64, 62
2, 448060, Note_on_c, 0, 54, 52
2, 448067, Note_on_c, 0, 96, 67
2, 448075, Note_on_c, 0, 84, 71
2, 448221, Note_on_c, 0, 64, 0
2, 448230, Note_on_c, 0, 96, 0
2, 448249, Note_on_c, 0, 84, 0
2, 448250, Note_on_c, 0, 60, 0
2, 448392, Note_on_c, 0, 54, 0
2, 448988, Note_on_c, 0, 80, 73
2, 448993, Note_on_c, 0, 92, 62
2, 448995, Note_on_c, 0, 57, 53
2, 448997, Note_on_c, 0, 62, 75
2, 449018, Note_on_c, 0, 58, 49
2, 449023, Note_on_c, 0, 53, 52
2, 449051, Note_on_c, 0, 86, 51
2, 449098, Note_on_c, 0, 89, 34
2, 449164, Note_on_c, 0, 80, 0
2, 449199, Note_on_c, 0, 92, 0
2, 449215, Note_on_c, 0, 81, 43
2, 449232, Note_on_c, 0, 62, 0
2, 449294, Note_on_c, 0, 58, 0
2, 449341, Note_on_c, 0, 89, 0
2, 449359, Note_on_c, 0, 81, 0
2, 449362, Note_on_c, 0, 53, 0
2, 449402, Note_on_c, 0, 86, 0
2, 449433, Note_on_c, 0, 57, 0
2, 449907, Note_on_c, 0, 57, 56
2, 449921, Note_on_c, 0, 62, 76
2, 449926, Note_on_c, 0, 89, 80
2, 449930, Note_on_c, 0, 58, 62
2, 449935, Note_on_c, 0, 53, 64
2, 449944, Note_on_c, 0, 77, 62
2, 450171, Note_on_c, 0, 77, 0
2, 450250, Note_on_c, 0, 89, 0
2, 450320, Note_on_c, 0, 86, 42
2, 450744, Note_on_c, 0, 86, 0
2, 450870, Note_on_c, 0, 62, 0
2, 450889, Note_on_c, 0, 58, 0
2, 450897, Note_on_c, 0, 53, 0
2, 450955, Note_on_c, 0, 57, 0
2, 451234, Note_on_c, 0, 62, 60
2, 451238, Note_on_c, 0, 57, 33
2, 451250, Note_on_c, 0, 89, 72
2, 451253, Note_on_c, 0, 53, 41
2, 451273, Note_on_c, 0, 58, 53
2, 451278, Note_on_c, 0, 77, 57
2, 451742, Note_on_c, 0, 89, 0
2, 451832, Note_on_c, 0, 77, 0
2, 452027, Note_on_c, 0, 62, 0
2, 452076, Note_on_c, 0, 58, 0
2, 452172, Note_on_c, 0, 53, 0
2, 452192, Control_c, 0, 64, 127
2, 452195, Note_on_c, 0, 57, 0
2, 452401, Control_c, 0, 64, 0
2, 452540, Control_c, 0, 64, 127
2, 452891, Control_c, 0, 64, 0
2, 453139, Note_on_c, 0, 70, 83
2, 453144, Note_on_c, 0, 77, 76
2, 453148, Note_on_c, 0, 74, 71
2, 453150, Note_on_c, 0, 67, 83
2, 453169, Note_on_c, 0, 65, 80
2, 453223, Note_on_c, 0, 76, 42
2, 453313, Note_on_c, 0, 76, 0
2, 453394, Note_on_c, 0, 74, 0
2, 453445, Note_on_c, 0, 77, 0
2, 453448, Note_on_c, 0, 67, 0
2, 453475, Note_on_c, 0, 65, 0
2, 453477, Note_on_c, 0, 70, 0
2, 453765, Note_on_c, 0, 74, 67
2, 453796, Note_on_c, 0, 62, 66
2, 453804, Note_on_c, 0, 65, 59
2, 453833, Note_on_c, 0, 67, 50
2, 453847, Note_on_c, 0, 70, 32
2, 453932, Note_on_c, 0, 67, 0
2, 453941, Note_on_c, 0, 65, 0
2, 453978, Note_on_c, 0, 62, 0
2, 453990, Note_on_c, 0, 74, 0
2, 454013, Note_on_c, 0, 58, 38
2, 454127, Note_on_c, 0, 70, 0
2, 455020, Note_on_c, 0, 58, 0
2, 455057, Note_on_c, 0, 60, 35
2, 455060, Note_on_c, 0, 72, 59
2, 455085, Note_on_c, 0, 64, 50
2, 455090, Note_on_c, 0, 66, 57
2, 455108, Note_on_c, 0, 68, 45
2, 455535, Note_on_c, 0, 64, 0
2, 455605, Note_on_c, 0, 72, 0
2, 455681, Note_on_c, 0, 66, 0
2, 455705, Note_on_c, 0, 68, 0
2, 455709, Note_on_c, 0, 60, 0
2, 456644, Note_on_c, 0, 73, 57
2, 456646, Note_on_c, 0, 58, 71
2, 456665, Note_on_c, 0, 68, 71
2, 456670, Note_on_c, 0, 63, 73
2, 456830, Note_on_c, 0, 63, 0
2, 456867, Note_on_c, 0, 68, 0
2, 456878, Note_on_c, 0, 58, 0
2, 456886, Note_on_c, 0, 73, 0
2, 457048, Note_on_c, 0, 57, 47
2, 457059, Note_on_c, 0, 72, 55
2, 457113, Note_on_c, 0, 67, 47
2, 457199, Note_on_c, 0, 62, 19
2, 457382, Note_on_c, 0, 72, 0
2, 457385, Note_on_c, 0, 67, 0
2, 457579, Note_on_c, 0, 62, 0
2, 457753, Note_on_c, 0, 57, 0
2, 457918, Note_on_c, 0, 69, 62
2, 457927, Note_on_c, 0, 64, 56
2, 457953, Note_on_c, 0, 53, 49
2, 457969, Note_on_c, 0, 60, 30
2, 458203, Note_on_c, 0, 69, 0
2, 458212, Note_on_c, 0, 64, 0
2, 458331, Note_on_c, 0, 53, 0
2, 458333, Note_on_c, 0, 60, 0
2, 458886, Note_on_c, 0, 60, 34
2, 458890, Note_on_c, 0, 53, 36
2, 458908, Note_on_c, 0, 65, 31
2, 458914, Note_on_c, 0, 57, 33
2, 458918, Note_on_c, 0, 62, 35
2, 458985, Note_on_c, 0, 53, 0
2, 459519, Note_on_c, 0, 57, 0
2, 459547, Note_on_c, 0, 65, 0
2, 459549, Note_on_c, 0, 60, 0
2, 459580, Note_on_c, 0, 62, 0
2, 459848, Note_on_c, 0, 48, 62
2, 459876, Note_on_c, 0, 62, 33
2, 459902, Note_on_c, 0, 55, 54
2, 459907, Note_on_c, 0, 58, 45
2, 460334, Note_on_c, 0, 55, 0
2, 460436, Note_on_c, 0, 58, 0
2, 460484, Note_on_c, 0, 62, 0
2, 460850, Note_on_c, 0, 65, 51
2, 460857, Note_on_c, 0, 58, 49
2, 460862, Note_on_c, 0, 62, 43
2, 460867, Note_on_c, 0, 48, 0
2, 460886, Note_on_c, 0, 55, 33
2, 461078, Note_on_c, 0, 55, 0
2, 461154, Note_on_c, 0, 58, 0
2, 461156, Note_on_c, 0, 62, 0
2, 461159, Note_on_c, 0, 65, 0
2, 461489, Note_on_c, 0, 51, 27
2, 461741, Note_on_c, 0, 51, 0
2, 461806, Note_on_c, 0, 58, 69
2, 461813, Note_on_c, 0, 53, 62
2, 461818, Note_on_c, 0, 62, 68
2, 461848, Note_on_c, 0, 69, 50
2, 461859, Note_on_c, 0, 65, 54
2, 462117, Note_on_c, 0, 69, 0
2, 462203, Note_on_c, 0, 58, 0
2, 462220, Note_on_c, 0, 65, 0
2, 462249, Note_on_c, 0, 62, 0
2, 462785, Note_on_c, 0, 62, 105
2, 463289, Note_on_c, 0, 62, 0
2, 463374, Note_on_c, 0, 61, 69
2, 463500, Note_on_c, 0, 53, 0
2, 463841, Note_on_c, 0, 60, 33
2, 463855, Note_on_c, 0, 61, 0
2, 464221, Note_on_c, 0, 60, 0
2, 464356, Note_on_c, 0, 58, 65
2, 464421, Note_on_c, 0, 50, 35
2, 464581, Note_on_c, 0, 50, 0
2, 464635, Note_on_c, 0, 58, 0
2, 464776, Note_on_c, 0, 57, 35
2, 465184, Note_on_c, 0, 57, 0
2, 465363, Note_on_c, 0, 58, 67
2, 465367, Note_on_c, 0, 48, 31
2, 465565, Note_on_c, 0, 48, 0
2, 465576, Note_on_c, 0, 58, 0
2, 465685, Note_on_c, 0, 60, 62
2, 466377, Note_on_c, 0, 48, 28
2, 466386, Note_on_c, 0, 60, 0
2, 466495, Note_on_c, 0, 48, 0
2, 466611, Note_on_c, 0, 57, 45
2, 467267, Note_on_c, 0, 57, 0
2, 467504, Note_on_c, 0, 48, 38
2, 468000, Note_on_c, 0, 48, 0
2, 468174, Note_on_c, 0, 53, 38
2, 468275, Note_on_c, 0, 53, 0
2, 468613, Note_on_c, 0, 55, 31
2, 468966, Note_on_c, 0, 55, 0
2, 469124, Note_on_c, 0, 60, 50
2, 469423, Note_on_c, 0, 60, 0
2, 469551, Note_on_c, 0, 63, 71
2, 469880, Note_on_c, 0, 63, 0
2, 470089, Note_on_c, 0, 67, 80
2, 470168, Note_on_c, 0, 63, 59
2, 470276, Note_on_c, 0, 63, 0
2, 470367, Note_on_c, 0, 67, 0
2, 470513, Note_on_c, 0, 72, 73
2, 470912, Note_on_c, 0, 72, 0
2, 471052, Note_on_c, 0, 60, 54
2, 471077, Note_on_c, 0, 54, 61
2, 471080, Note_on_c, 0, 62, 74
2, 471091, Note_on_c, 0, 75, 86
2, 471286, Note_on_c, 0, 62, 0
2, 471340, Note_on_c, 0, 60, 0
2, 471342, Note_on_c, 0, 75, 0
2, 471497, Note_on_c, 0, 77, 90
2, 471525, Note_on_c, 0, 54, 0
2, 471907, Note_on_c, 0, 77, 0
2, 472030, Note_on_c, 0, 74, 72
2, 472038, Note_on_c, 0, 62, 69
2, 472047, Note_on_c, 0, 58, 56
2, 472061, Note_on_c, 0, 57, 36
2, 472125, Note_on_c, 0, 53, 26
2, 472158, Note_on_c, 0, 57, 0
2, 472200, Note_on_c, 0, 62, 0
2, 472221, Note_on_c, 0, 53, 0
2, 472260, Note_on_c, 0, 58, 0
2, 472292, Note_on_c, 0, 74, 0
2, 472511, Note_on_c, 0, 69, 42
2, 472870, Note_on_c, 0, 69, 0
2, 473037, Note_on_c, 0, 72, 77
2, 473144, Note_on_c, 0, 57, 14
2, 473304, Note_on_c, 0, 72, 0
2, 473336, Note_on_c, 0, 57, 0
2, 473457, Note_on_c, 0, 70, 51
2, 473824, Note_on_c, 0, 70, 0
2, 474080, Note_on_c, 0, 58, 28
2, 474169, Note_on_c, 0, 58, 0
2, 474309, Note_on_c, 0, 69, 77
2, 474624, Note_on_c, 0, 69, 0
2, 475039, Note_on_c, 0, 57, 24
2, 475202, Note_on_c, 0, 57, 0
2, 475271, Note_on_c, 0, 66, 48
2, 475685, Note_on_c, 0, 66, 0
2, 475919, Note_on_c, 0, 57, 40
2, 475922, Note_on_c, 0, 65, 49
2, 475942, Note_on_c, 0, 62, 48
2, 476028, Note_on_c, 0, 65, 0
2, 476033, Note_on_c, 0, 62, 0
2, 476128, Note_on_c, 0, 57, 0
2, 477764, Note_on_c, 0, 67, 57
2, 477779, Note_on_c, 0, 62, 44
2, 477814, Note_on_c, 0, 56, 37
2, 479121, Note_on_c, 0, 67, 0
2, 479123, Note_on_c, 0, 62, 0
2, 479765, Note_on_c, 0, 56, 0
2, 480763, Note_on_c, 0, 64, 39
2, 480798, Note_on_c, 0, 57, 32
2, 480823, Note_on_c, 0, 60, 22
2, 480872, Note_on_c, 0, 53, 28
2, 481394, Note_on_c, 0, 60, 0
2, 481809, Note_on_c, 0, 64, 0
2, 482004, Note_on_c, 0, 79, 84
2, 482034, Note_on_c, 0, 77, 63
2, 482114, Note_on_c, 0, 77, 0
2, 482520, Note_on_c, 0, 79, 0
2, 482619, Note_on_c, 0, 76, 46
2, 482786, Note_on_c, 0, 76, 0
2, 482916, Note_on_c, 0, 53, 0
2, 482919, Note_on_c, 0, 57, 0
2, 482948, Note_on_c, 0, 77, 73
2, 483470, Note_on_c, 0, 77, 0
2, 483572, Note_on_c, 0, 79, 66
2, 483616, Note_on_c, 0, 62, 44
2, 483635, Note_on_c, 0, 65, 37
2, 483667, Note_on_c, 0, 60, 24
2, 483740, Note_on_c, 0, 65, 0
2, 483802, Note_on_c, 0, 79, 0
2, 483967, Note_on_c, 0, 62, 0
2, 483992, Note_on_c, 0, 74, 37
2, 484025, Note_on_c, 0, 60, 0
2, 484551, Note_on_c, 0, 74, 0
2, 484827, Note_on_c, 0, 74, 51
2, 485086, Note_on_c, 0, 74, 0
2, 485782, Note_on_c, 0, 65, 35
2, 485784, Note_on_c, 0, 62, 33
2, 485800, Note_on_c, 0, 60, 24
2, 486038, Note_on_c, 0, 62, 0
2, 486053, Note_on_c, 0, 65, 0
2, 486104, Note_on_c, 0, 60, 0
2, 487396, Note_on_c, 0, 57, 51
2, 487407, Note_on_c, 0, 58, 53
2, 487410, Note_on_c, 0, 62, 51
2, 487484, Note_on_c, 0, 58, 0
2, 487488, Note_on_c, 0, 62, 0
2, 487516, Note_on_c, 0, 57, 0
2, 487522, Note_on_c, 0, 80, 63
2, 487551, Note_on_c, 0, 68, 77
2, 487575, Note_on_c, 0, 74, 70
2, 487595, Note_on_c, 0, 77, 53
2, 488092, Note_on_c, 0, 74, 0
2, 488145, Note_on_c, 0, 77, 0
2, 488171, Note_on_c, 0, 68, 0
2, 488178, Note_on_c, 0, 80, 0
2, 488291, Note_on_c, 0, 69, 66
2, 488306, Note_on_c, 0, 81, 59
2, 488313, Note_on_c, 0, 74, 63
2, 488338, Note_on_c, 0, 77, 25
2, 488384, Note_on_c, 0, 79, 38
2, 488471, Note_on_c, 0, 79, 0
2, 488472, Note_on_c, 0, 69, 0
2, 488505, Note_on_c, 0, 81, 0
2, 488537, Note_on_c, 0, 74, 0
2, 488563, Note_on_c, 0, 77, 0
2, 488688, Note_on_c, 0, 81, 42
2, 488730, Note_on_c, 0, 69, 31
2, 488741, Note_on_c, 0, 74, 38
2, 488816, Note_on_c, 0, 77, 22
2, 489057, Note_on_c, 0, 69, 0
2, 489057, Note_on_c, 0, 81, 0
2, 489106, Note_on_c, 0, 74, 0
2, 489113, Note_on_c, 0, 77, 0
2, 489276, Note_on_c, 0, 81, 64
2, 489280, Note_on_c, 0, 69, 60
2, 489310, Note_on_c, 0, 74, 53
2, 489331, Note_on_c, 0, 62, 55
2, 489349, Note_on_c, 0, 57, 34
2, 489354, Note_on_c, 0, 58, 45
2, 489357, Note_on_c, 0, 77, 52
2, 489415, Note_on_c, 0, 62, 0
2, 489457, Note_on_c, 0, 57, 0
2, 489460, Note_on_c, 0, 69, 0
2, 489482, Note_on_c, 0, 81, 0
2, 489489, Note_on_c, 0, 58, 0
2, 489517, Note_on_c, 0, 74, 0
2, 489552, Note_on_c, 0, 77, 0
2, 489726, Note_on_c, 0, 81, 41
2, 489737, Note_on_c, 0, 69, 33
2, 489765, Note_on_c, 0, 77, 31
2, 489767, Note_on_c, 0, 74, 32
2, 490069, Note_on_c, 0, 69, 0
2, 490115, Note_on_c, 0, 81, 0
2, 490129, Note_on_c, 0, 74, 0
2, 490203, Note_on_c, 0, 77, 0
2, 490560, Note_on_c, 0, 81, 59
2, 490575, Note_on_c, 0, 69, 47
2, 490607, Note_on_c, 0, 74, 44
2, 490609, Note_on_c, 0, 77, 43
2, 490753, Note_on_c, 0, 69, 0
2, 491073, Note_on_c, 0, 74, 0
2, 491207, Note_on_c, 0, 81, 0
2, 491229, Note_on_c, 0, 77, 0
2, 491486, Note_on_c, 0, 63, 56
2, 491502, Note_on_c, 0, 60, 28
2, 491832, Note_on_c, 0, 60, 0
2, 491883, Note_on_c, 0, 63, 0
2, 492437, Note_on_c, 0, 60, 48
2, 492439, Note_on_c, 0, 65, 77
2, 492470, Note_on_c, 0, 61, 55
2, 492481, Note_on_c, 0, 55, 63
2, 492500, Note_on_c, 0, 75, 87
2, 492503, Note_on_c, 0, 58, 36
2, 492504, Note_on_c, 0, 87, 77
2, 492531, Note_on_c, 0, 82, 63
2, 492609, Note_on_c, 0, 82, 0
2, 493667, Note_on_c, 0, 55, 0
2, 493684, Note_on_c, 0, 65, 0
2, 493685, Note_on_c, 0, 75, 0
2, 493691, Note_on_c, 0, 87, 0
2, 493711, Note_on_c, 0, 60, 0
2, 493880, Note_on_c, 0, 58, 0
2, 493938, Note_on_c, 0, 61, 0
2, 494121, Note_on_c, 0, 60, 44
2, 494135, Note_on_c, 0, 64, 65
2, 494155, Note_on_c, 0, 81, 69
2, 494156, Note_on_c, 0, 86, 72
2, 494158, Note_on_c, 0, 54, 52
2, 494164, Note_on_c, 0, 74, 66
2, 494968, Note_on_c, 0, 86, 0
2, 495015, Note_on_c, 0, 60, 0
2, 495022, Note_on_c, 0, 81, 0
2, 495084, Note_on_c, 0, 64, 0
2, 495134, Note_on_c, 0, 74, 0
2, 495301, Note_on_c, 0, 54, 0
2, 495428, Note_on_c, 0, 72, 68
2, 495437, Note_on_c, 0, 84, 55
2, 495447, Note_on_c, 0, 80, 53
2, 495448, Note_on_c, 0, 62, 60
2, 495455, Note_on_c, 0, 53, 48
2, 495481, Note_on_c, 0, 58, 35
2, 495488, Note_on_c, 0, 57, 49
2, 496020, Note_on_c, 0, 81, 57
2, 496059, Note_on_c, 0, 80, 0
2, 496068, Note_on_c, 0, 83, 24
2, 496117, Note_on_c, 0, 84, 0
2, 496140, Note_on_c, 0, 72, 0
2, 496182, Note_on_c, 0, 62, 0
2, 496191, Note_on_c, 0, 58, 0
2, 496194, Note_on_c, 0, 83, 0
2, 496226, Note_on_c, 0, 81, 0
2, 496425, Note_on_c, 0, 53, 0
2, 496495, Note_on_c, 0, 57, 0
2, 496933, Note_on_c, 0, 73, 51
2, 496975, Note_on_c, 0, 69, 50
2, 496982, Note_on_c, 0, 57, 43
2, 497005, Note_on_c, 0, 77, 38
2, 497015, Note_on_c, 0, 81, 37
2, 497017, Note_on_c, 0, 62, 57
2, 497035, Note_on_c, 0, 58, 50
2, 497061, Note_on_c, 0, 53, 34
2, 497521, Note_on_c, 0, 73, 0
2, 497590, Note_on_c, 0, 74, 24
2, 497595, Note_on_c, 0, 57, 0
2, 497601, Note_on_c, 0, 69, 0
2, 497609, Note_on_c, 0, 53, 0
2, 497644, Note_on_c, 0, 58, 0
2, 497739, Note_on_c, 0, 81, 0
2, 497760, Note_on_c, 0, 77, 0
2, 497792, Note_on_c, 0, 74, 0
2, 497942, Note_on_c, 0, 62, 0
2, 498330, Note_on_c, 0, 84, 79
2, 498341, Note_on_c, 0, 65, 71
2, 498354, Note_on_c, 0, 60, 36
2, 498356, Note_on_c, 0, 77, 83
2, 498376, Note_on_c, 0, 55, 52
2, 498383, Note_on_c, 0, 61, 59
2, 499114, Note_on_c, 0, 84, 0
2, 499351, Note_on_c, 0, 77, 0
2, 499416, Note_on_c, 0, 55, 0
2, 499443, Note_on_c, 0, 65, 0
2, 499535, Note_on_c, 0, 61, 0
2, 499576, Note_on_c, 0, 60, 0
2, 499899, Note_on_c, 0, 60, 38
2, 499907, Note_on_c, 0, 65, 57
2, 499913, Note_on_c, 0, 69, 64
2, 499919, Note_on_c, 0, 81, 55
2, 499931, Note_on_c, 0, 61, 49
2, 499935, Note_on_c, 0, 77, 50
2, 500008, Note_on_c, 0, 69, 0
2, 500023, Note_on_c, 0, 65, 0
2, 500114, Note_on_c, 0, 61, 0
2, 500130, Note_on_c, 0, 77, 0
2, 500132, Note_on_c, 0, 60, 0
2, 500190, Note_on_c, 0, 81, 0
2, 501207, Note_on_c, 0, 60, 24
2, 501214, Note_on_c, 0, 65, 39
2, 501221, Note_on_c, 0, 81, 47
2, 501224, Note_on_c, 0, 84, 53
2, 501239, Note_on_c, 0, 61, 36
2, 501242, Note_on_c, 0, 72, 39
2, 501247, Note_on_c, 0, 77, 49
2, 501360, Note_on_c, 0, 55, 15
2, 501977, Note_on_c, 0, 84, 0
2, 502028, Note_on_c, 0, 81, 0
2, 502063, Note_on_c, 0, 60, 0
2, 502116, Note_on_c, 0, 77, 0
2, 502118, Note_on_c, 0, 65, 0
2, 502188, Note_on_c, 0, 55, 0
2, 502203, Note_on_c, 0, 61, 0
2, 502216, Note_on_c, 0, 72, 0
2, 502794, Note_on_c, 0, 81, 50
2, 502814, Note_on_c, 0, 53, 30
2, 502819, Note_on_c, 0, 57, 39
2, 502821, Note_on_c, 0, 61, 35
2, 502824, Note_on_c, 0, 64, 40
2, 502829, Note_on_c, 0, 73, 29
2, 502847, Note_on_c, 0, 69, 32
2, 502875, Note_on_c, 0, 76, 56
2, 503195, Note_on_c, 0, 76, 0
2, 503203, Note_on_c, 0, 69, 0
2, 503209, Note_on_c, 0, 73, 0
2, 503249, Note_on_c, 0, 64, 0
2, 503274, Note_on_c, 0, 61, 0
2, 503276, Note_on_c, 0, 81, 0
2, 503328, Note_on_c, 0, 57, 0
2, 503369, Note_on_c, 0, 53, 0
2, 504144, Note_on_c, 0, 81, 41
2, 504158, Note_on_c, 0, 53, 27
2, 504161, Note_on_c, 0, 73, 25
2, 504163, Note_on_c, 0, 61, 30
2, 504172, Note_on_c, 0, 64, 33
2, 504191, Note_on_c, 0, 76, 52
2, 504200, Note_on_c, 0, 69, 25
2, 504209, Note_on_c, 0, 57, 25
2, 505995, Note_on_c, 0, 61, 0
2, 506031, Note_on_c, 0, 57, 0
2, 506042, Note_on_c, 0, 64, 0
2, 506090, Control_c, 0, 64, 127
2, 506149, Note_on_c, 0, 53, 0
2, 506740, Control_c, 0, 64, 0
2, 506903, Note_on_c, 0, 81, 0
2, 506909, Note_on_c, 0, 69, 0
2, 506930, Note_on_c, 0, 62, 44
2, 506940, Note_on_c, 0, 76, 0
2, 506945, Note_on_c, 0, 57, 29
2, 506989, Note_on_c, 0, 73, 0
2, 506996, Note_on_c, 0, 52, 32
2, 508352, Note_on_c, 0, 52, 0
2, 508420, Note_on_c, 0, 57, 0
2, 508478, Note_on_c, 0, 69, 71
2, 508511, Note_on_c, 0, 62, 0
2, 508705, Note_on_c, 0, 69, 0
2, 508916, Note_on_c, 0, 70, 38
2, 509144, Note_on_c, 0, 70, 0
2, 509338, Note_on_c, 0, 72, 71
2, 509538, Note_on_c, 0, 72, 0
2, 509689, Note_on_c, 0, 58, 33
2, 509721, Note_on_c, 0, 73, 65
2, 509919, Note_on_c, 0, 58, 0
2, 509937, Note_on_c, 0, 73, 0
2, 510155, Note_on_c, 0, 75, 73
2, 510367, Note_on_c, 0, 75, 0
2, 510429, Note_on_c, 0, 75, 30
2, 510499, Note_on_c, 0, 76, 83
2, 510508, Note_on_c, 0, 75, 0
2, 510705, Note_on_c, 0, 60, 22
2, 510715, Note_on_c, 0, 76, 0
2, 510744, Note_on_c, 0, 53, 24
2, 510777, Note_on_c, 0, 50, 24
2, 510800, Note_on_c, 0, 57, 17
2, 510809, Note_on_c, 0, 79, 77
2, 510886, Note_on_c, 0, 60, 0
2, 510944, Note_on_c, 0, 57, 0
2, 511009, Note_on_c, 0, 50, 0
2, 511046, Note_on_c, 0, 79, 0
2, 511063, Note_on_c, 0, 53, 0
2, 511171, Note_on_c, 0, 76, 54
2, 511273, Note_on_c, 0, 76, 0
2, 511454, Note_on_c, 0, 77, 71
2, 511798, Note_on_c, 0, 76, 73
2, 511807, Note_on_c, 0, 77, 0
2, 512049, Note_on_c, 0, 76, 0
2, 512176, Note_on_c, 0, 73, 37
2, 512341, Note_on_c, 0, 73, 0
2, 513389, Note_on_c, 0, 60, 24
2, 513427, Note_on_c, 0, 57, 22
2, 513440, Note_on_c, 0, 53, 27
2, 513466, Note_on_c, 0, 60, 0
2, 513573, Note_on_c, 0, 57, 0
2, 513707, Note_on_c, 0, 53, 0
2, 513916, Note_on_c, 0, 72, 45
2, 514011, Note_on_c, 0, 72, 0
2, 514109, Note_on_c, 0, 74, 48
2, 514210, Note_on_c, 0, 72, 52
2, 514318, Note_on_c, 0, 74, 0
2, 514475, Note_on_c, 0, 72, 0
2, 514492, Note_on_c, 0, 69, 51
2, 514513, Note_on_c, 0, 57, 25
2, 514543, Note_on_c, 0, 53, 22
2, 514660, Note_on_c, 0, 69, 0
2, 514684, Note_on_c, 0, 53, 0
2, 514702, Note_on_c, 0, 57, 0
2, 514807, Note_on_c, 0, 70, 58
2, 515326, Note_on_c, 0, 70, 0
2, 515384, Note_on_c, 0, 71, 69
2, 515415, Note_on_c, 0, 64, 33
2, 515417, Note_on_c, 0, 59, 49
2, 515510, Note_on_c, 0, 64, 0
2, 515533, Note_on_c, 0, 59, 0
2, 515649, Note_on_c, 0, 71, 0
2, 515770, Note_on_c, 0, 72, 62
2, 516050, Note_on_c, 0, 72, 0
2, 516250, Note_on_c, 0, 73, 74
2, 516290, Note_on_c, 0, 59, 40
2, 516494, Note_on_c, 0, 59, 0
2, 516495, Note_on_c, 0, 73, 0
2, 516663, Note_on_c, 0, 74, 80
2, 516976, Note_on_c, 0, 74, 0
2, 517242, Note_on_c, 0, 71, 65
2, 517269, Note_on_c, 0, 59, 50
2, 517296, Note_on_c, 0, 53, 41
2, 517457, Note_on_c, 0, 59, 0
2, 517510, Note_on_c, 0, 71, 0
2, 517586, Note_on_c, 0, 53, 0
2, 517700, Note_on_c, 0, 67, 20
2, 518006, Note_on_c, 0, 67, 0
2, 518177, Note_on_c, 0, 64, 35
2, 518315, Note_on_c, 0, 50, 36
2, 518338, Note_on_c, 0, 64, 0
2, 518426, Note_on_c, 0, 50, 0
2, 518535, Note_on_c, 0, 69, 70
2, 518621, Note_on_c, 0, 53, 33
2, 518846, Note_on_c, 0, 53, 0
2, 518943, Note_on_c, 0, 69, 0
2, 519166, Note_on_c, 0, 65, 51
2, 519249, Note_on_c, 0, 50, 34
2, 519484, Note_on_c, 0, 65, 0
2, 519532, Note_on_c, 0, 62, 46
2, 520024, Note_on_c, 0, 62, 0
2, 520046, Note_on_c, 0, 50, 0
2, 520139, Note_on_c, 0, 58, 35
2, 520308, Note_on_c, 0, 58, 0
2, 520477, Note_on_c, 0, 65, 57
2, 520479, Note_on_c, 0, 50, 44
2, 520586, Note_on_c, 0, 63, 30
2, 520975, Note_on_c, 0, 65, 0
2, 520982, Note_on_c, 0, 63, 0
2, 521029, Note_on_c, 0, 50, 0
2, 521136, Note_on_c, 0, 55, 30
2, 521173, Note_on_c, 0, 46, 29
2, 521212, Note_on_c, 0, 55, 0
2, 521452, Note_on_c, 0, 58, 28
2, 521780, Note_on_c, 0, 58, 0
2, 521962, Note_on_c, 0, 47, 42
2, 522066, Note_on_c, 0, 58, 57
2, 522073, Note_on_c, 0, 65, 58
2, 522108, Note_on_c, 0, 47, 0
2, 522119, Note_on_c, 0, 55, 40
2, 522129, Note_on_c, 0, 62, 43
2, 522164, Note_on_c, 0, 46, 0
2, 522201, Note_on_c, 0, 55, 0
2, 522240, Note_on_c, 0, 62, 0
2, 522254, Note_on_c, 0, 50, 41
2, 522265, Note_on_c, 0, 58, 0
2, 522285, Note_on_c, 0, 65, 0
2, 522343, Note_on_c, 0, 50, 0
2, 522470, Note_on_c, 0, 61, 73
2, 522488, Note_on_c, 0, 68, 67
2, 522504, Note_on_c, 0, 58, 77
2, 522532, Note_on_c, 0, 62, 70
2, 522549, Note_on_c, 0, 61, 0
2, 522551, Note_on_c, 0, 69, 66
2, 522595, Note_on_c, 0, 55, 46
2, 522602, Note_on_c, 0, 53, 32
2, 522787, Note_on_c, 0, 53, 0
2, 523073, Note_on_c, 0, 55, 0
2, 523100, Note_on_c, 0, 58, 0
2, 523134, Note_on_c, 0, 69, 0
2, 523175, Note_on_c, 0, 62, 0
2, 523205, Note_on_c, 0, 68, 0
2, 523344, Note_on_c, 0, 65, 43
2, 523386, Note_on_c, 0, 50, 37
2, 523704, Note_on_c, 0, 65, 0
2, 523922, Note_on_c, 0, 50, 0
2, 523998, Note_on_c, 0, 67, 51
2, 524003, Note_on_c, 0, 58, 42
2, 524041, Note_on_c, 0, 52, 32
2, 524049, Note_on_c, 0, 61, 47
2, 524059, Note_on_c, 0, 64, 34
2, 524201, Note_on_c, 0, 58, 0
2, 524288, Note_on_c, 0, 52, 0
2, 524298, Note_on_c, 0, 61, 0
2, 524315, Note_on_c, 0, 64, 0
2, 524358, Note_on_c, 0, 67, 0
2, 524977, Note_on_c, 0, 54, 45
2, 525017, Note_on_c, 0, 56, 35
2, 525100, Note_on_c, 0, 54, 0
2, 525175, Note_on_c, 0, 56, 0
2, 525270, Note_on_c, 0, 73, 51
2, 525272, Note_on_c, 0, 58, 64
2, 525303, Note_on_c, 0, 63, 59
2, 525305, Note_on_c, 0, 68, 67
2, 525511, Control_c, 0, 64, 127
2, 525778, Note_on_c, 0, 68, 0
2, 525792, Control_c, 0, 64, 0
2, 525806, Note_on_c, 0, 58, 0
2, 525824, Note_on_c, 0, 63, 0
2, 525947, Note_on_c, 0, 62, 67
2, 525952, Note_on_c, 0, 67, 60
2, 525968, Note_on_c, 0, 72, 71
2, 525976, Note_on_c, 0, 57, 55
2, 526165, Note_on_c, 0, 73, 0
2, 526200, Note_on_c, 0, 62, 0
2, 526318, Note_on_c, 0, 57, 0
2, 526325, Control_c, 0, 64, 127
2, 526393, Note_on_c, 0, 67, 0
2, 526455, Note_on_c, 0, 72, 0
2, 527024, Control_c, 0, 64, 0
2, 527140, Note_on_c, 0, 80, 59
2, 527170, Note_on_c, 0, 75, 74
2, 527175, Note_on_c, 0, 70, 61
2, 527464, Control_c, 0, 64, 127
2, 527532, Note_on_c, 0, 75, 0
2, 527542, Note_on_c, 0, 80, 0
2, 527600, Note_on_c, 0, 70, 0
2, 527676, Control_c, 0, 64, 0
2, 527811, Note_on_c, 0, 67, 60
2, 527834, Note_on_c, 0, 75, 42
2, 527843, Note_on_c, 0, 79, 36
2, 527856, Note_on_c, 0, 72, 56
2, 527866, Note_on_c, 0, 71, 67
2, 527871, Note_on_c, 0, 77, 37
2, 527890, Note_on_c, 0, 67, 0
2, 527910, Note_on_c, 0, 64, 42
2, 527940, Note_on_c, 0, 71, 0
2, 527961, Note_on_c, 0, 77, 0
2, 527984, Note_on_c, 0, 72, 0
2, 527998, Note_on_c, 0, 64, 0
2, 528042, Note_on_c, 0, 75, 0
2, 528049, Note_on_c, 0, 79, 0
2, 528781, Note_on_c, 0, 61, 55
2, 529061, Note_on_c, 0, 61, 0
2, 529068, Note_on_c, 0, 87, 70
2, 529080, Note_on_c, 0, 82, 73
2, 529086, Note_on_c, 0, 75, 69
2, 529149, Note_on_c, 0, 61, 20
2, 529450, Note_on_c, 0, 61, 0
2, 529463, Note_on_c, 0, 75, 0
2, 529465, Note_on_c, 0, 87, 0
2, 529474, Note_on_c, 0, 82, 0
2, 529699, Note_on_c, 0, 61, 28
2, 529701, Note_on_c, 0, 65, 58
2, 529703, Note_on_c, 0, 86, 60
2, 529711, Note_on_c, 0, 74, 60
2, 529722, Note_on_c, 0, 60, 30
2, 529741, Note_on_c, 0, 81, 62
2, 529771, Note_on_c, 0, 58, 39
2, 529782, Note_on_c, 0, 55, 49
2, 529907, Note_on_c, 0, 74, 0
2, 530008, Note_on_c, 0, 65, 0
2, 530089, Note_on_c, 0, 81, 0
2, 530091, Note_on_c, 0, 55, 0
2, 530107, Note_on_c, 0, 61, 0
2, 530116, Note_on_c, 0, 60, 0
2, 530119, Note_on_c, 0, 86, 0
2, 530159, Note_on_c, 0, 58, 0
2, 530671, Note_on_c, 0, 60, 45
2, 530756, Note_on_c, 0, 60, 0
2, 530944, Note_on_c, 0, 90, 46
2, 530949, Note_on_c, 0, 60, 40
2, 530961, Note_on_c, 0, 61, 54
2, 530970, Note_on_c, 0, 65, 66
2, 530972, Note_on_c, 0, 85, 44
2, 530991, Note_on_c, 0, 55, 53
2, 530995, Note_on_c, 0, 78, 30
2, 531019, Note_on_c, 0, 58, 35
2, 531142, Control_c, 0, 64, 127
2, 531258, Note_on_c, 0, 60, 0
2, 531260, Note_on_c, 0, 65, 0
2, 531274, Note_on_c, 0, 55, 0
2, 531290, Note_on_c, 0, 85, 0
2, 531335, Note_on_c, 0, 90, 0
2, 531353, Note_on_c, 0, 58, 0
2, 531420, Note_on_c, 0, 78, 0
2, 531450, Note_on_c, 0, 61, 0
2, 531490, Control_c, 0, 64, 0
2, 531632, Note_on_c, 0, 78, 48
2, 531661, Note_on_c, 0, 64, 61
2, 531664, Note_on_c, 0, 60, 41
2, 531668, Note_on_c, 0, 89, 51
2, 531676, Note_on_c, 0, 54, 50
2, 531916, Note_on_c, 0, 89, 0
2, 532000, Control_c, 0, 64, 127
2, 532190, Note_on_c, 0, 78, 0
2, 532195, Note_on_c, 0, 60, 0
2, 532390, Note_on_c, 0, 64, 0
2, 532429, Note_on_c, 0, 54, 0
2, 532699, Note_on_c, 0, 60, 22
2, 532745, Control_c, 0, 64, 0
2, 532902, Note_on_c, 0, 54, 55
2, 532914, Note_on_c, 0, 64, 58
2, 532942, Note_on_c, 0, 93, 73
2, 532960, Note_on_c, 0, 81, 62
2, 533009, Note_on_c, 0, 58, 29
2, 533033, Note_on_c, 0, 86, 38
2, 533189, Control_c, 0, 64, 127
2, 533235, Note_on_c, 0, 86, 0
2, 533297, Note_on_c, 0, 60, 0
2, 533308, Note_on_c, 0, 81, 0
2, 533373, Note_on_c, 0, 64, 0
2, 533378, Note_on_c, 0, 93, 0
2, 533520, Note_on_c, 0, 58, 0
2, 533537, Note_on_c, 0, 54, 0
2, 533559, Control_c, 0, 64, 0
2, 533611, Note_on_c, 0, 84, 81
2, 533615, Note_on_c, 0, 53, 66
2, 533618, Note_on_c, 0, 96, 71
2, 533620, Note_on_c, 0, 58, 49
2, 533622, Note_on_c, 0, 62, 78
2, 533643, Note_on_c, 0, 57, 59
2, 533650, Note_on_c, 0, 92, 35
2, 533668, Note_on_c, 0, 93, 54
2, 533691, Note_on_c, 0, 89, 31
2, 533698, Note_on_c, 0, 91, 38
2, 533770, Note_on_c, 0, 92, 0
2, 533789, Note_on_c, 0, 89, 0
2, 533794, Note_on_c, 0, 91, 0
2, 534025, Note_on_c, 0, 96, 0
2, 534550, Note_on_c, 0, 93, 0
2, 534620, Note_on_c, 0, 84, 0
2, 534710, Note_on_c, 0, 62, 0
2, 534719, Note_on_c, 0, 58, 0
2, 534779, Note_on_c, 0, 53, 0
2, 534798, Note_on_c, 0, 57, 0
2, 534871, Note_on_c, 0, 62, 51
2, 534910, Note_on_c, 0, 58, 26
2, 534912, Note_on_c, 0, 53, 25
2, 534919, Note_on_c, 0, 93, 55
2, 534945, Note_on_c, 0, 86, 38
2, 534958, Note_on_c, 0, 57, 16
2, 534963, Note_on_c, 0, 81, 39
2, 534981, Note_on_c, 0, 89, 36
2, 535290, Note_on_c, 0, 89, 0
2, 535309, Note_on_c, 0, 93, 0
2, 535348, Note_on_c, 0, 86, 0
2, 535350, Note_on_c, 0, 81, 0
2, 535369, Note_on_c, 0, 62, 0
2, 535431, Note_on_c, 0, 57, 0
2, 535444, Note_on_c, 0, 58, 0
2, 535464, Note_on_c, 0, 53, 0
2, 535604, Note_on_c, 0, 62, 58
2, 535613, Note_on_c, 0, 89, 44
2, 535638, Note_on_c, 0, 84, 34
2, 535645, Note_on_c, 0, 57, 26
2, 535659, Note_on_c, 0, 58, 38
2, 535713, Note_on_c, 0, 89, 0
2, 535731, Note_on_c, 0, 84, 0
2, 535765, Note_on_c, 0, 57, 0
2, 535782, Note_on_c, 0, 58, 0
2, 535785, Note_on_c, 0, 62, 0
2, 537754, Note_on_c, 0, 62, 55
2, 537770, Note_on_c, 0, 67, 73
2, 537777, Note_on_c, 0, 63, 51
2, 537798, Note_on_c, 0, 57, 44
2, 538756, Note_on_c, 0, 67, 0
2, 538768, Note_on_c, 0, 91, 101
2, 538896, Note_on_c, 0, 62, 0
2, 538941, Note_on_c, 0, 57, 0
2, 538983, Note_on_c, 0, 63, 0
2, 539234, Note_on_c, 0, 91, 0
2, 539401, Note_on_c, 0, 87, 69
2, 539431, Note_on_c, 0, 62, 64
2, 539450, Note_on_c, 0, 66, 59
2, 539508, Note_on_c, 0, 56, 39
2, 539671, Note_on_c, 0, 87, 0
2, 539888, Note_on_c, 0, 89, 83
2, 540332, Note_on_c, 0, 89, 0
2, 540494, Note_on_c, 0, 86, 31
2, 540510, Note_on_c, 0, 66, 0
2, 540582, Note_on_c, 0, 86, 0
2, 540679, Note_on_c, 0, 62, 0
2, 540768, Note_on_c, 0, 88, 83
2, 540897, Note_on_c, 0, 56, 0
2, 541287, Note_on_c, 0, 87, 75
2, 541348, Note_on_c, 0, 88, 0
2, 541401, Note_on_c, 0, 64, 41
2, 541426, Note_on_c, 0, 57, 32
2, 541434, Note_on_c, 0, 60, 32
2, 541447, Note_on_c, 0, 53, 30
2, 541545, Note_on_c, 0, 87, 0
2, 541554, Note_on_c, 0, 64, 0
2, 541709, Note_on_c, 0, 86, 59
2, 541779, Note_on_c, 0, 60, 0
2, 541893, Note_on_c, 0, 53, 0
2, 541960, Note_on_c, 0, 57, 0
2, 542190, Note_on_c, 0, 86, 0
2, 542269, Note_on_c, 0, 81, 62
2, 542461, Note_on_c, 0, 81, 0
2, 542681, Note_on_c, 0, 77, 34
2, 543108, Note_on_c, 0, 77, 0
2, 543210, Note_on_c, 0, 64, 28
2, 543301, Note_on_c, 0, 64, 0
2, 543318, Note_on_c, 0, 57, 24
2, 543477, Note_on_c, 0, 57, 0
2, 544363, Note_on_c, 0, 66, 80
2, 544375, Note_on_c, 0, 56, 75
2, 544405, Note_on_c, 0, 63, 57
2, 545134, Note_on_c, 0, 63, 0
2, 545134, Note_on_c, 0, 66, 0
2, 545266, Note_on_c, 0, 56, 0
2, 545366, Note_on_c, 0, 62, 34
2, 545368, Note_on_c, 0, 65, 47
2, 545398, Note_on_c, 0, 55, 45
2, 545414, Note_on_c, 0, 60, 27
2, 546305, Control_c, 0, 64, 127
2, 546560, Note_on_c, 0, 60, 0
2, 546605, Note_on_c, 0, 62, 0
2, 546834, Note_on_c, 0, 55, 0
2, 546862, Note_on_c, 0, 65, 0
2, 547096, Control_c, 0, 64, 0
2, 547372, Note_on_c, 0, 65, 77
2, 547378, Note_on_c, 0, 62, 57
2, 547382, Note_on_c, 0, 86, 94
2, 547396, Note_on_c, 0, 74, 92
2, 547401, Note_on_c, 0, 60, 33
2, 547407, Note_on_c, 0, 55, 60
2, 547442, Note_on_c, 0, 76, 58
2, 547521, Note_on_c, 0, 76, 0
2, 547749, Control_c, 0, 64, 127
2, 547832, Note_on_c, 0, 86, 0
2, 548071, Note_on_c, 0, 81, 62
2, 548088, Note_on_c, 0, 74, 0
2, 548096, Control_c, 0, 64, 0
2, 548180, Note_on_c, 0, 62, 0
2, 548189, Note_on_c, 0, 65, 0
2, 548205, Note_on_c, 0, 60, 0
2, 548330, Note_on_c, 0, 55, 0
2, 548407, Note_on_c, 0, 81, 0
2, 548456, Note_on_c, 0, 78, 34
2, 548517, Control_c, 0, 64, 127
2, 548962, Note_on_c, 0, 78, 0
2, 549096, Control_c, 0, 64, 0
2, 549286, Note_on_c, 0, 57, 38
2, 549301, Note_on_c, 0, 62, 57
2, 549317, Note_on_c, 0, 81, 64
2, 549347, Note_on_c, 0, 52, 41
2, 549381, Note_on_c, 0, 69, 46
2, 549389, Note_on_c, 0, 58, 35
2, 549391, Note_on_c, 0, 71, 42
2, 549484, Note_on_c, 0, 71, 0
2, 549913, Note_on_c, 0, 58, 0
2, 549925, Note_on_c, 0, 69, 0
2, 550015, Note_on_c, 0, 81, 0
2, 550033, Note_on_c, 0, 78, 48
2, 550062, Note_on_c, 0, 62, 0
2, 550249, Note_on_c, 0, 62, 33
2, 550265, Note_on_c, 0, 81, 74
2, 550278, Note_on_c, 0, 69, 71
2, 550309, Note_on_c, 0, 74, 51
2, 550644, Note_on_c, 0, 52, 0
2, 550677, Note_on_c, 0, 57, 0
2, 550713, Note_on_c, 0, 74, 0
2, 550715, Note_on_c, 0, 81, 0
2, 550725, Control_c, 0, 64, 127
2, 550746, Note_on_c, 0, 78, 0
2, 550818, Note_on_c, 0, 62, 0
2, 550844, Note_on_c, 0, 69, 0
2, 550957, Control_c, 0, 64, 0
2, 551222, Note_on_c, 0, 64, 51
2, 551264, Note_on_c, 0, 73, 42
2, 551286, Note_on_c, 0, 79, 43
2, 551307, Note_on_c, 0, 67, 24
2, 551314, Note_on_c, 0, 76, 47
2, 551347, Note_on_c, 0, 77, 44
2, 551616, Note_on_c, 0, 67, 0
2, 551674, Note_on_c, 0, 76, 0
2, 551809, Note_on_c, 0, 79, 0
2, 551818, Note_on_c, 0, 73, 0
2, 551838, Note_on_c, 0, 64, 0
2, 551858, Note_on_c, 0, 77, 0
2, 551892, Note_on_c, 0, 61, 30
2, 552200, Note_on_c, 0, 73, 52
2, 552214, Note_on_c, 0, 61, 0
2, 552226, Note_on_c, 0, 64, 47
2, 552228, Note_on_c, 0, 79, 46
2, 552240, Note_on_c, 0, 69, 62
2, 552261, Note_on_c, 0, 76, 47
2, 552323, Note_on_c, 0, 77, 36
2, 552530, Note_on_c, 0, 76, 0
2, 552611, Note_on_c, 0, 79, 0
2, 552639, Note_on_c, 0, 77, 0
2, 552718, Note_on_c, 0, 73, 0
2, 552725, Control_c, 0, 64, 127
2, 552808, Note_on_c, 0, 64, 0
2, 552866, Note_on_c, 0, 69, 0
2, 552887, Control_c, 0, 64, 0
2, 553172, Note_on_c, 0, 60, 35
2, 553203, Note_on_c, 0, 76, 58
2, 553205, Note_on_c, 0, 67, 54
2, 553207, Note_on_c, 0, 72, 53
2, 553551, Note_on_c, 0, 76, 0
2, 553586, Note_on_c, 0, 72, 0
2, 553755, Note_on_c, 0, 67, 0
2, 553789, Note_on_c, 0, 60, 0
2, 553982, Note_on_c, 0, 57, 29
2, 554103, Note_on_c, 0, 60, 29
2, 554154, Note_on_c, 0, 72, 40
2, 554157, Note_on_c, 0, 57, 0
2, 554182, Note_on_c, 0, 64, 46
2, 554191, Note_on_c, 0, 67, 41
2, 554249, Note_on_c, 0, 69, 27
2, 554407, Note_on_c, 0, 69, 0
2, 554478, Note_on_c, 0, 72, 0
2, 554481, Note_on_c, 0, 67, 0
2, 554516, Control_c, 0, 64, 127
2, 554651, Note_on_c, 0, 60, 0
2, 554683, Note_on_c, 0, 64, 0
2, 554810, Note_on_c, 0, 54, 26
2, 554843, Control_c, 0, 64, 0
2, 555108, Note_on_c, 0, 60, 35
2, 555110, Note_on_c, 0, 68, 54
2, 555122, Note_on_c, 0, 66, 34
2, 555145, Note_on_c, 0, 54, 0
2, 555147, Note_on_c, 0, 63, 39
2, 555152, Note_on_c, 0, 56, 42
2, 555525, Note_on_c, 0, 56, 0
2, 555594, Note_on_c, 0, 60, 0
2, 555635, Control_c, 0, 64, 127
2, 555637, Note_on_c, 0, 63, 0
2, 555639, Note_on_c, 0, 68, 0
2, 555655, Control_c, 0, 64, 0
2, 555729, Note_on_c, 0, 63, 25
2, 555750, Note_on_c, 0, 69, 64
2, 555757, Note_on_c, 0, 60, 38
2, 555829, Note_on_c, 0, 44, 55
2, 555855, Note_on_c, 0, 54, 35
2, 555866, Note_on_c, 0, 60, 0
2, 555868, Note_on_c, 0, 66, 0
2, 555905, Note_on_c, 0, 63, 0
2, 555941, Note_on_c, 0, 69, 0
2, 556383, Note_on_c, 0, 54, 0
2, 556530, Note_on_c, 0, 44, 0
2, 556641, Note_on_c, 0, 58, 64
2, 556657, Note_on_c, 0, 62, 63
2, 556669, Note_on_c, 0, 65, 50
2, 556688, Note_on_c, 0, 43, 42
2, 556697, Note_on_c, 0, 53, 48
2, 556762, Note_on_c, 0, 65, 0
2, 556829, Note_on_c, 0, 62, 0
2, 556834, Note_on_c, 0, 58, 0
2, 556928, Note_on_c, 0, 53, 0
2, 557555, Note_on_c, 0, 50, 25
2, 557597, Note_on_c, 0, 43, 0
2, 557601, Note_on_c, 0, 65, 64
2, 557617, Note_on_c, 0, 62, 64
2, 557634, Note_on_c, 0, 55, 75
2, 557660, Note_on_c, 0, 53, 77
2, 557717, Note_on_c, 0, 59, 38
2, 557784, Note_on_c, 0, 50, 0
2, 557836, Note_on_c, 0, 59, 0
2, 558613, Note_on_c, 0, 62, 0
2, 558750, Note_on_c, 0, 55, 0
2, 558863, Note_on_c, 0, 65, 0
2, 558934, Note_on_c, 0, 62, 40
2, 558970, Note_on_c, 0, 50, 43
2, 558987, Note_on_c, 0, 55, 29
2, 559019, Note_on_c, 0, 53, 0
2, 559043, Note_on_c, 0, 58, 25
2, 559256, Note_on_c, 0, 55, 0
2, 559415, Note_on_c, 0, 62, 0
2, 559529, Note_on_c, 0, 65, 50
2, 559548, Note_on_c, 0, 55, 51
2, 559558, Note_on_c, 0, 50, 0
2, 559559, Note_on_c, 0, 53, 64
2, 559629, Note_on_c, 0, 62, 29
2, 559645, Note_on_c, 0, 55, 0
2, 559776, Note_on_c, 0, 62, 0
2, 559808, Note_on_c, 0, 58, 0
2, 559811, Note_on_c, 0, 65, 0
2, 559859, Note_on_c, 0, 53, 0
2, 559866, Note_on_c, 0, 50, 32
2, 560179, Note_on_c, 0, 50, 0
2, 560464, Note_on_c, 0, 49, 57
2, 560674, Note_on_c, 0, 49, 0
2, 560782, Note_on_c, 0, 72, 75
2, 560789, Note_on_c, 0, 61, 83
2, 560807, Note_on_c, 0, 65, 72
2, 560815, Note_on_c, 0, 69, 60
2, 560856, Note_on_c, 0, 60, 66
2, 561490, Note_on_c, 0, 72, 0
2, 561499, Note_on_c, 0, 61, 0
2, 561546, Note_on_c, 0, 69, 0
2, 561561, Note_on_c, 0, 65, 0
2, 561750, Note_on_c, 0, 60, 0
2, 561761, Note_on_c, 0, 70, 65
2, 561775, Note_on_c, 0, 61, 50
2, 561782, Note_on_c, 0, 58, 48
2, 561803, Note_on_c, 0, 65, 51
2, 562304, Note_on_c, 0, 61, 0
2, 562346, Note_on_c, 0, 65, 0
2, 562557, Note_on_c, 0, 70, 0
2, 562618, Note_on_c, 0, 58, 0
2, 562713, Note_on_c, 0, 57, 40
2, 562748, Note_on_c, 0, 61, 53
2, 562787, Note_on_c, 0, 69, 40
2, 562789, Note_on_c, 0, 65, 51
2, 563199, Note_on_c, 0, 61, 0
2, 563225, Note_on_c, 0, 69, 0
2, 563332, Note_on_c, 0, 65, 0
2, 563404, Note_on_c, 0, 57, 0
2, 563423, Note_on_c, 0, 61, 55
2, 563434, Note_on_c, 0, 58, 59
2, 563436, Note_on_c, 0, 70, 65
2, 563561, Note_on_c, 0, 61, 0
2, 563712, Note_on_c, 0, 70, 0
2, 563745, Note_on_c, 0, 58, 0
2, 564286, Note_on_c, 0, 58, 75
2, 564295, Note_on_c, 0, 73, 60
2, 564300, Note_on_c, 0, 63, 75
2, 564311, Note_on_c, 0, 68, 67
2, 564534, Note_on_c, 0, 58, 0
2, 564619, Note_on_c, 0, 73, 0
2, 564633, Note_on_c, 0, 68, 0
2, 564680, Note_on_c, 0, 63, 0
2, 564824, Note_on_c, 0, 57, 40
2, 564886, Note_on_c, 0, 72, 58
2, 564942, Note_on_c, 0, 62, 59
2, 564949, Note_on_c, 0, 67, 53
2, 565098, Note_on_c, 0, 67, 0
2, 565114, Note_on_c, 0, 72, 0
2, 565230, Note_on_c, 0, 62, 0
2, 565445, Note_on_c, 0, 57, 0
2, 565529, Note_on_c, 0, 69, 59
2, 565555, Note_on_c, 0, 60, 35
2, 565587, Note_on_c, 0, 53, 37
2, 565705, Note_on_c, 0, 60, 0
2, 565891, Note_on_c, 0, 69, 0
2, 566118, Note_on_c, 0, 53, 0
2, 566214, Note_on_c, 0, 64, 57
2, 566216, Note_on_c, 0, 67, 57
2, 566232, Note_on_c, 0, 60, 33
2, 566243, Note_on_c, 0, 46, 46
2, 566255, Note_on_c, 0, 56, 46
2, 566617, Control_c, 0, 64, 127
2, 567459, Note_on_c, 0, 56, 0
2, 567542, Note_on_c, 0, 64, 0
2, 567603, Note_on_c, 0, 67, 0
2, 567659, Note_on_c, 0, 60, 0
2, 567680, Note_on_c, 0, 46, 0
2, 568338, Control_c, 0, 64, 0
2, 568464, Note_on_c, 0, 55, 43
2, 568483, Note_on_c, 0, 60, 30
2, 568485, Note_on_c, 0, 63, 36
2, 568515, Note_on_c, 0, 45, 53
2, 568832, Note_on_c, 0, 55, 0
2, 568849, Control_c, 0, 64, 127
2, 569053, Note_on_c, 0, 60, 0
2, 569159, Note_on_c, 0, 63, 0
2, 569268, Note_on_c, 0, 45, 0
2, 570081, Note_on_c, 0, 80, 78
2, 570083, Note_on_c, 0, 86, 77
2, 570106, Control_c, 0, 64, 0
2, 570108, Note_on_c, 0, 74, 64
2, 570125, Note_on_c, 0, 64, 74
2, 570127, Note_on_c, 0, 54, 56
2, 570132, Note_on_c, 0, 60, 51
2, 570262, Note_on_c, 0, 80, 0
2, 570289, Note_on_c, 0, 81, 43
2, 570308, Note_on_c, 0, 64, 0
2, 570322, Note_on_c, 0, 74, 0
2, 570457, Note_on_c, 0, 86, 0
2, 570485, Note_on_c, 0, 54, 0
2, 570487, Note_on_c, 0, 60, 0
2, 570489, Note_on_c, 0, 81, 0
2, 571076, Note_on_c, 0, 77, 79
2, 571079, Note_on_c, 0, 60, 50
2, 571080, Note_on_c, 0, 89, 77
2, 571086, Note_on_c, 0, 54, 63
2, 571088, Note_on_c, 0, 84, 76
2, 571090, Note_on_c, 0, 64, 73
2, 571155, Note_on_c, 0, 77, 0
2, 571160, Note_on_c, 0, 84, 0
2, 571166, Note_on_c, 0, 64, 0
2, 571245, Note_on_c, 0, 60, 0
2, 571275, Note_on_c, 0, 89, 0
2, 571357, Note_on_c, 0, 54, 0
2, 571979, Note_on_c, 0, 57, 71
2, 571981, Note_on_c, 0, 92, 72
2, 571988, Note_on_c, 0, 62, 91
2, 571995, Note_on_c, 0, 58, 73
2, 571997, Note_on_c, 0, 53, 76
2, 571999, Note_on_c, 0, 80, 83
2, 572028, Note_on_c, 0, 86, 69
2, 572039, Note_on_c, 0, 89, 56
2, 572141, Note_on_c, 0, 80, 0
2, 572148, Note_on_c, 0, 93, 50
2, 572166, Note_on_c, 0, 92, 0
2, 572178, Note_on_c, 0, 91, 19
2, 572209, Note_on_c, 0, 81, 33
2, 572250, Note_on_c, 0, 93, 0
2, 572271, Note_on_c, 0, 62, 0
2, 572294, Note_on_c, 0, 91, 0
2, 572308, Note_on_c, 0, 81, 0
2, 572336, Note_on_c, 0, 53, 0
2, 572359, Note_on_c, 0, 89, 0
2, 572369, Note_on_c, 0, 86, 0
2, 572383, Note_on_c, 0, 58, 0
2, 572459, Note_on_c, 0, 53, 36
2, 572489, Note_on_c, 0, 62, 66
2, 572498, Note_on_c, 0, 58, 36
2, 572568, Note_on_c, 0, 89, 39
2, 572588, Note_on_c, 0, 91, 24
2, 572614, Note_on_c, 0, 77, 32
2, 572668, Note_on_c, 0, 91, 0
2, 572847, Note_on_c, 0, 77, 0
2, 572872, Note_on_c, 0, 62, 0
2, 572881, Note_on_c, 0, 89, 0
2, 572902, Note_on_c, 0, 53, 0
2, 572918, Note_on_c, 0, 57, 0
2, 572955, Note_on_c, 0, 58, 0
2, 573252, Note_on_c, 0, 89, 66
2, 573271, Note_on_c, 0, 53, 48
2, 573273, Note_on_c, 0, 77, 60
2, 573275, Note_on_c, 0, 62, 56
2, 573291, Note_on_c, 0, 57, 34
2, 573296, Note_on_c, 0, 58, 46
2, 573809, Note_on_c, 0, 77, 0
2, 573858, Note_on_c, 0, 62, 0
2, 573867, Note_on_c, 0, 53, 0
2, 573870, Note_on_c, 0, 89, 0
2, 573888, Note_on_c, 0, 58, 0
2, 573930, Note_on_c, 0, 57, 0
2, 573934, Note_on_c, 0, 86, 39
2, 574041, Note_on_c, 0, 86, 0
2, 574201, Note_on_c, 0, 62, 52
2, 574215, Note_on_c, 0, 89, 66
2, 574219, Note_on_c, 0, 57, 30
2, 574222, Note_on_c, 0, 58, 53
2, 574224, Note_on_c, 0, 53, 37
2, 574245, Note_on_c, 0, 77, 45
2, 574638, Note_on_c, 0, 77, 0
2, 574744, Note_on_c, 0, 62, 0
2, 574763, Note_on_c, 0, 53, 0
2, 574765, Note_on_c, 0, 89, 0
2, 574802, Note_on_c, 0, 58, 0
2, 574839, Note_on_c, 0, 57, 0
2, 575171, Control_c, 0, 64, 127
2, 575754, Control_c, 0, 64, 0
2, 575765, Note_on_c, 0, 62, 78
2, 575772, Note_on_c, 0, 58, 67
2, 575774, Note_on_c, 0, 93, 66
2, 575776, Note_on_c, 0, 86, 66
2, 575795, Note_on_c, 0, 91, 48
2, 575805, Note_on_c, 0, 52, 57
2, 575828, Note_on_c, 0, 81, 33
2, 575829, Note_on_c, 0, 79, 34
2, 575863, Note_on_c, 0, 86, 0
2, 575867, Note_on_c, 0, 93, 0
2, 575883, Note_on_c, 0, 62, 0
2, 575904, Note_on_c, 0, 91, 0
2, 575911, Note_on_c, 0, 79, 0
2, 575930, Note_on_c, 0, 81, 0
2, 575953, Note_on_c, 0, 58, 0
2, 576064, Note_on_c, 0, 52, 0
2, 577036, Note_on_c, 0, 69, 73
2, 577059, Note_on_c, 0, 58, 71
2, 577062, Note_on_c, 0, 62, 71
2, 577095, Note_on_c, 0, 65, 50
2, 577992, Control_c, 0, 64, 127
2, 578094, Note_on_c, 0, 65, 0
2, 578111, Note_on_c, 0, 62, 0
2, 578284, Note_on_c, 0, 58, 0
2, 578303, Note_on_c, 0, 69, 0
2, 578579, Note_on_c, 0, 58, 58
2, 578618, Control_c, 0, 64, 0
2, 578634, Note_on_c, 0, 52, 41
2, 578639, Note_on_c, 0, 67, 41
2, 578649, Note_on_c, 0, 64, 37
2, 578660, Note_on_c, 0, 61, 39
2, 578722, Note_on_c, 0, 52, 0
2, 579428, Note_on_c, 0, 67, 0
2, 579567, Note_on_c, 0, 48, 68
2, 579590, Note_on_c, 0, 64, 0
2, 579612, Note_on_c, 0, 47, 60
2, 579646, Note_on_c, 0, 58, 0
2, 579688, Note_on_c, 0, 47, 0
2, 579964, Note_on_c, 0, 61, 0
2, 580820, Note_on_c, 0, 65, 33
2, 580841, Note_on_c, 0, 55, 33
2, 580876, Note_on_c, 0, 58, 26
2, 580892, Note_on_c, 0, 62, 33
2, 581182, Note_on_c, 0, 55, 0
2, 581271, Note_on_c, 0, 62, 0
2, 581275, Note_on_c, 0, 65, 0
2, 581314, Note_on_c, 0, 58, 0
2, 581520, Note_on_c, 0, 46, 26
2, 581692, Note_on_c, 0, 48, 0
2, 581780, Note_on_c, 0, 46, 0
2, 581796, Note_on_c, 0, 65, 44
2, 581808, Note_on_c, 0, 58, 48
2, 581816, Note_on_c, 0, 62, 53
2, 581818, Note_on_c, 0, 55, 38
2, 581838, Note_on_c, 0, 48, 24
2, 582259, Note_on_c, 0, 55, 0
2, 582289, Note_on_c, 0, 62, 0
2, 582349, Note_on_c, 0, 58, 0
2, 582458, Note_on_c, 0, 65, 0
2, 582741, Note_on_c, 0, 58, 37
2, 582766, Note_on_c, 0, 62, 42
2, 582868, Note_on_c, 0, 48, 0
2, 582941, Note_on_c, 0, 58, 0
2, 582976, Note_on_c, 0, 62, 0
2, 583717, Note_on_c, 0, 72, 62
2, 583748, Note_on_c, 0, 62, 62
2, 583771, Note_on_c, 0, 69, 35
2, 583783, Note_on_c, 0, 65, 49
2, 583785, Note_on_c, 0, 60, 45
2, 583871, Note_on_c, 0, 60, 0
2, 583941, Note_on_c, 0, 62, 0
2, 584008, Note_on_c, 0, 69, 0
2, 584052, Note_on_c, 0, 72, 0
2, 584064, Note_on_c, 0, 65, 0
2, 585263, Note_on_c, 0, 69, 46
2, 585268, Note_on_c, 0, 57, 36
2, 585279, Note_on_c, 0, 58, 35
2, 585290, Note_on_c, 0, 62, 40
2, 585325, Note_on_c, 0, 65, 33
2, 587441, Note_on_c, 0, 58, 0
2, 587480, Control_c, 0, 64, 127
2, 587518, Note_on_c, 0, 57, 0
2, 587539, Note_on_c, 0, 62, 0
2, 587602, Note_on_c, 0, 65, 0
2, 588093, Note_on_c, 0, 69, 0
2, 588318, Control_c, 0, 64, 0
2, 588436, Note_on_c, 0, 62, 34
2, 588460, Note_on_c, 0, 58, 35
2, 588466, Note_on_c, 0, 53, 29
2, 588476, Note_on_c, 0, 57, 31
2, 589550, Note_on_c, 0, 69, 49
2, 589875, Note_on_c, 0, 69, 0
2, 590088, Note_on_c, 0, 70, 40
2, 590232, Note_on_c, 0, 70, 0
2, 590483, Note_on_c, 0, 74, 58
2, 590694, Note_on_c, 0, 74, 0
2, 590903, Note_on_c, 0, 62, 0
2, 591012, Note_on_c, 0, 58, 0
2, 591044, Note_on_c, 0, 57, 0
2, 591056, Note_on_c, 0, 77, 72
2, 591219, Note_on_c, 0, 77, 0
2, 591460, Note_on_c, 0, 53, 0
2, 591487, Note_on_c, 0, 81, 80
2, 591748, Note_on_c, 0, 81, 0
2, 592012, Note_on_c, 0, 84, 89
2, 592098, Note_on_c, 0, 62, 42
2, 592119, Note_on_c, 0, 58, 39
2, 592165, Note_on_c, 0, 53, 22
2, 592168, Note_on_c, 0, 57, 27
2, 592294, Note_on_c, 0, 84, 0
2, 592494, Note_on_c, 0, 82, 50
2, 592524, Note_on_c, 0, 58, 0
2, 592529, Note_on_c, 0, 57, 0
2, 592531, Note_on_c, 0, 62, 0
2, 592540, Note_on_c, 0, 53, 0
2, 592844, Note_on_c, 0, 82, 0
2, 593332, Note_on_c, 0, 81, 57
2, 593773, Note_on_c, 0, 81, 0
2, 593903, Note_on_c, 0, 78, 45
2, 593989, Note_on_c, 0, 62, 26
2, 594031, Note_on_c, 0, 58, 32
2, 594037, Note_on_c, 0, 57, 22
2, 594106, Note_on_c, 0, 78, 0
2, 594280, Note_on_c, 0, 79, 57
2, 594304, Note_on_c, 0, 62, 0
2, 594424, Note_on_c, 0, 58, 0
2, 594439, Note_on_c, 0, 57, 0
2, 594677, Note_on_c, 0, 79, 0
2, 594960, Note_on_c, 0, 76, 26
2, 595160, Note_on_c, 0, 76, 0
2, 597763, Note_on_c, 0, 61, 58
2, 597775, Note_on_c, 0, 85, 45
2, 597789, Note_on_c, 0, 86, 68
2, 597811, Note_on_c, 0, 62, 62
2, 597860, Note_on_c, 0, 85, 0
2, 597944, Note_on_c, 0, 61, 0
2, 599689, Note_on_c, 0, 62, 0
2, 599700, Note_on_c, 0, 86, 0
2, 599718, Note_on_c, 0, 83, 47
2, 599739, Note_on_c, 0, 59, 43
2, 599884, Note_on_c, 0, 83, 0
2, 599946, Note_on_c, 0, 59, 0
2, 600055, Note_on_c, 0, 84, 60
2, 600060, Note_on_c, 0, 60, 24
2, 600837, Note_on_c, 0, 84, 0
2, 600953, Note_on_c, 0, 60, 0
2, 600967, Note_on_c, 0, 58, 38
2, 600974, Note_on_c, 0, 82, 42
2, 601480, Note_on_c, 0, 82, 0
2, 601574, Note_on_c, 0, 58, 0
2, 601914, Note_on_c, 0, 57, 40
2, 601960, Note_on_c, 0, 81, 64
2, 602580, Note_on_c, 0, 57, 0
2, 602621, Note_on_c, 0, 81, 0
2, 602682, Note_on_c, 0, 54, 23
2, 602856, Note_on_c, 0, 54, 0
2, 602895, Note_on_c, 0, 55, 40
2, 602978, Note_on_c, 0, 79, 41
2, 605354, Note_on_c, 0, 79, 0
2, 605609, Note_on_c, 0, 55, 0
2, 605762, Note_on_c, 0, 48, 40
2, 605772, Note_on_c, 0, 72, 47
2, 606286, Note_on_c, 0, 48, 0
2, 606312, Note_on_c, 0, 72, 0
2, 606402, Note_on_c, 0, 71, 34
2, 606445, Note_on_c, 0, 47, 35
2, 606582, Note_on_c, 0, 47, 0
2, 606672, Note_on_c, 0, 71, 0
2, 606742, Note_on_c, 0, 72, 49
2, 606751, Note_on_c, 0, 48, 26
2, 607066, Note_on_c, 0, 48, 0
2, 607166, Note_on_c, 0, 72, 0
2, 607414, Note_on_c, 0, 81, 32
2, 607442, Note_on_c, 0, 59, 24
2, 607516, Note_on_c, 0, 81, 0
2, 607526, Note_on_c, 0, 59, 0
2, 608662, Note_on_c, 0, 57, 36
2, 608679, Note_on_c, 0, 81, 49
2, 609388, Note_on_c, 0, 81, 0
2, 609498, Note_on_c, 0, 57, 0
2, 609581, Note_on_c, 0, 55, 28
2, 609609, Note_on_c, 0, 79, 42
2, 610295, Note_on_c, 0, 55, 0
2, 611189, Note_on_c, 0, 72, 47
2, 611256, Note_on_c, 0, 79, 0
2, 611316, Note_on_c, 0, 48, 17
2, 611954, Note_on_c, 0, 72, 0
2, 612020, Note_on_c, 0, 48, 0
2, 612100, Note_on_c, 0, 71, 46
2, 612168, Note_on_c, 0, 47, 38
2, 612316, Note_on_c, 0, 71, 0
2, 612356, Note_on_c, 0, 47, 0
2, 612506, Note_on_c, 0, 72, 47
2, 612699, Note_on_c, 0, 72, 0
2, 613168, Note_on_c, 0, 62, 43
2, 613177, Note_on_c, 0, 86, 31
2, 613266, Note_on_c, 0, 86, 0
2, 613383, Note_on_c, 0, 62, 0
2, 614066, Note_on_c, 0, 86, 58
2, 614119, Note_on_c, 0, 62, 54
2, 615135, Note_on_c, 0, 86, 0
2, 615295, Note_on_c, 0, 62, 0
2, 615321, Note_on_c, 0, 60, 30
2, 615337, Note_on_c, 0, 84, 45
2, 615425, Note_on_c, 0, 60, 0
2, 615506, Note_on_c, 0, 84, 0
2, 616392, Control_c, 0, 64, 127
2, 616947, Note_on_c, 0, 60, 44
2, 616954, Control_c, 0, 64, 0
2, 617022, Note_on_c, 0, 57, 33
2, 617035, Note_on_c, 0, 48, 37
2, 618720, Control_c, 0, 64, 127
2, 619388, Note_on_c, 0, 60, 0
2, 620719, Control_c, 0, 64, 0
2, 620801, Note_on_c, 0, 69, 50
2, 620914, Note_on_c, 0, 69, 0
2, 622132, Note_on_c, 0, 69, 31
2, 622719, Control_c, 0, 64, 127
2, 623525, Note_on_c, 0, 57, 0
2, 623991, Note_on_c, 0, 48, 0
2, 626283, Note_on_c, 0, 69, 0
2, 627417, Control_c, 0, 64, 0
2, 627417, End_track
3, 0, Start_track
3, 0, Title_t, "Bass "
3, 0, Program_c, 1, 32
3, 0, Control_c, 1, 7, 96
3, 209945, Note_on_c, 1, 48, 67
3, 210068, Note_on_c, 1, 48, 0
3, 210387, Note_on_c, 1, 36, 78
3, 215077, Note_on_c, 1, 48, 69
3, 215095, Note_on_c, 1, 36, 0
3, 215203, Note_on_c, 1, 48, 0
3, 216102, Note_on_c, 1, 48, 79
3, 218334, Note_on_c, 1, 48, 0
3, 218937, Note_on_c, 1, 29, 66
3, 221873, Note_on_c, 1, 33, 95
3, 221957, Note_on_c, 1, 29, 0
3, 224277, Note_on_c, 1, 33, 0
3, 224313, Note_on_c, 1, 38, 97
3, 225780, Note_on_c, 1, 50, 106
3, 225864, Note_on_c, 1, 38, 0
3, 227316, Note_on_c, 1, 43, 100
3, 227347, Note_on_c, 1, 50, 0
3, 229394, Note_on_c, 1, 43, 0
3, 229469, Note_on_c, 1, 38, 64
3, 229802, Note_on_c, 1, 38, 0
3, 230339, Note_on_c, 1, 35, 72
3, 232225, Note_on_c, 1, 35, 0
3, 232264, Note_on_c, 1, 40, 74
3, 234040, Note_on_c, 1, 40, 0
3, 234272, Note_on_c, 1, 41, 78
3, 236775, Note_on_c, 1, 36, 76
3, 236796, Note_on_c, 1, 41, 0
3, 236937, Note_on_c, 1, 36, 0
3, 237120, Note_on_c, 1, 34, 90
3, 239789, Note_on_c, 1, 34, 0
3, 240008, Note_on_c, 1, 41, 85
3, 240220, Note_on_c, 1, 41, 0
3, 240928, Note_on_c, 1, 39, 78
3, 241320, Note_on_c, 1, 39, 0
3, 241880, Note_on_c, 1, 40, 71
3, 245687, Note_on_c, 1, 40, 0
3, 245806, Note_on_c, 1, 38, 59
3, 248720, Note_on_c, 1, 48, 85
3, 248848, Note_on_c, 1, 38, 0
3, 249768, Note_on_c, 1, 46, 77
3, 249836, Note_on_c, 1, 48, 0
3, 251387, Note_on_c, 1, 46, 0
3, 251423, Note_on_c, 1, 45, 79
3, 251652, Note_on_c, 1, 45, 0
3, 251831, Note_on_c, 1, 43, 74
3, 253426, Note_on_c, 1, 43, 0
3, 253530, Note_on_c, 1, 39, 77
3, 256265, Note_on_c, 1, 39, 0
3, 256351, Note_on_c, 1, 40, 75
3, 257188, Note_on_c, 1, 40, 0
3, 257236, Note_on_c, 1, 41, 75
3, 258040, Note_on_c, 1, 41, 0
3, 258164, Note_on_c, 1, 29, 73
3, 261063, Note_on_c, 1, 29, 0
3, 261126, Note_on_c, 1, 40, 79
3, 264015, Note_on_c, 1, 40, 0
3, 264039, Note_on_c, 1, 39, 68
3, 264926, Note_on_c, 1, 39, 0
3, 264977, Note_on_c, 1, 38, 71
3, 268592, Note_on_c, 1, 38, 0
3, 268808, Note_on_c, 1, 38, 87
3, 272594, Note_on_c, 1, 38, 0
3, 272655, Note_on_c, 1, 43, 95
3, 275480, Note_on_c, 1, 45, 87
3, 275754, Note_on_c, 1, 43, 0
3, 276970, Note_on_c, 1, 45, 0
3, 277047, Note_on_c, 1, 46, 79
3, 278391, Note_on_c, 1, 46, 0
3, 278413, Note_on_c, 1, 47, 85
3, 279345, Note_on_c, 1, 48, 78
3, 279376, Note_on_c, 1, 47, 0
3, 280191, Note_on_c, 1, 48, 0
3, 280323, Note_on_c, 1, 41, 74
3, 281314, Note_on_c, 1, 55, 101
3, 281318, Note_on_c, 1, 41, 0
3, 281918, Note_on_c, 1, 55, 0
3, 281973, Note_on_c, 1, 53, 83
3, 285099, Note_on_c, 1, 51, 92
3, 285160, Note_on_c, 1, 53, 0
3, 286675, Note_on_c, 1, 50, 91
3, 286803, Note_on_c, 1, 51, 0
3, 287875, Note_on_c, 1, 50, 0
3, 288020, Note_on_c, 1, 43, 78
3, 290969, Note_on_c, 1, 47, 101
3, 290985, Note_on_c, 1, 43, 0
3, 292519, Note_on_c, 1, 41, 87
3, 292594, Note_on_c, 1, 47, 0
3, 294435, Note_on_c, 1, 41, 0
3, 294676, Note_on_c, 1, 40, 71
3, 296051, Note_on_c, 1, 40, 0
3, 296237, Note_on_c, 1, 41, 90
3, 296912, Note_on_c, 1, 41, 0
3, 297552, Note_on_c, 1, 41, 85
3, 299408, Note_on_c, 1, 41, 0
3, 299465, Note_on_c, 1, 34, 76
3, 301982, Note_on_c, 1, 34, 0
3, 302065, Note_on_c, 1, 41, 81
3, 302155, Note_on_c, 1, 41, 0
3, 302413, Note_on_c, 1, 38, 45
3, 302591, Note_on_c, 1, 38, 0
3, 302971, Note_on_c, 1, 39, 79
3, 303128, Note_on_c, 1, 39, 0
3, 303389, Note_on_c, 1, 40, 74
3, 305135, Note_on_c, 1, 40, 0
3, 305305, Note_on_c, 1, 33, 64
3, 308112, Note_on_c, 1, 33, 0
3, 308192, Note_on_c, 1, 38, 81
3, 310934, Note_on_c, 1, 38, 0
3, 310980, Note_on_c, 1, 43, 76
3, 313913, Note_on_c, 1, 50, 93
3, 314213, Note_on_c, 1, 43, 0
3, 314845, Note_on_c, 1, 50, 0
3, 314911, Note_on_c, 1, 51, 85
3, 316790, Note_on_c, 1, 51, 0
3, 316865, Note_on_c, 1, 39, 79
3, 318694, Note_on_c, 1, 39, 0
3, 318733, Note_on_c, 1, 41, 84
3, 320591, Note_on_c, 1, 41, 0
3, 320634, Note_on_c, 1, 34, 79
3, 322557, Note_on_c, 1, 33, 78
3, 322676, Note_on_c, 1, 34, 0
3, 325428, Note_on_c, 1, 38, 76
3, 325430, Note_on_c, 1, 33, 0
3, 326447, Note_on_c, 1, 43, 103
3, 326455, Note_on_c, 1, 38, 0
3, 329079, Note_on_c, 1, 43, 0
3, 329284, Note_on_c, 1, 38, 65
3, 329861, Note_on_c, 1, 38, 0
3, 329938, Note_on_c, 1, 36, 69
3, 331861, Note_on_c, 1, 50, 99
3, 332042, Note_on_c, 1, 36, 0
3, 332124, Note_on_c, 1, 50, 0
3, 332239, Note_on_c, 1, 48, 91
3, 333076, Note_on_c, 1, 48, 0
3, 333217, Note_on_c, 1, 48, 92
3, 336007, Note_on_c, 1, 36, 89
3, 336043, Note_on_c, 1, 48, 0
3, 338409, Note_on_c, 1, 36, 0
3, 338942, Note_on_c, 1, 36, 96
3, 340800, Note_on_c, 1, 36, 0
3, 342516, Note_on_c, 1, 41, 105
3, 344626, Note_on_c, 1, 36, 81
3, 344643, Note_on_c, 1, 41, 0
3, 344933, Note_on_c, 1, 36, 0
3, 345615, Note_on_c, 1, 33, 79
3, 347174, Note_on_c, 1, 39, 77
3, 347459, Note_on_c, 1, 39, 0
3, 347535, Note_on_c, 1, 33, 0
3, 347592, Note_on_c, 1, 38, 62
3, 348433, Note_on_c, 1, 38, 0
3, 348467, Note_on_c, 1, 31, 79
3, 351374, Note_on_c, 1, 38, 73
3, 352814, Note_on_c, 1, 38, 0
3, 353014, Note_on_c, 1, 38, 52
3, 353060, Note_on_c, 1, 31, 0
3, 353317, Note_on_c, 1, 47, 88
3, 353394, Note_on_c, 1, 38, 0
3, 354219, Note_on_c, 1, 47, 0
3, 354267, Note_on_c, 1, 41, 71
3, 356146, Note_on_c, 1, 41, 0
3, 356159, Note_on_c, 1, 40, 80
3, 357076, Note_on_c, 1, 40, 0
3, 357124, Note_on_c, 1, 41, 86
3, 357719, Note_on_c, 1, 41, 0
3, 357767, Note_on_c, 1, 40, 68
3, 358043, Note_on_c, 1, 40, 0
3, 358094, Note_on_c, 1, 41, 71
3, 359628, Note_on_c, 1, 50, 91
3, 359835, Note_on_c, 1, 41, 0
3, 359929, Note_on_c, 1, 50, 0
3, 360033, Note_on_c, 1, 48, 66
3, 360730, Note_on_c, 1, 41, 56
3, 360851, Note_on_c, 1, 41, 0
3, 360853, Note_on_c, 1, 48, 0
3, 360968, Note_on_c, 1, 46, 69
3, 362892, Note_on_c, 1, 46, 0
3, 362899, Note_on_c, 1, 45, 67
3, 363544, Note_on_c, 1, 45, 0
3, 363544, Note_on_c, 1, 46, 70
3, 363752, Note_on_c, 1, 46, 0
3, 363868, Note_on_c, 1, 48, 82
3, 364569, Note_on_c, 1, 41, 57
3, 364615, Note_on_c, 1, 48, 0
3, 364704, Note_on_c, 1, 41, 0
3, 364773, Note_on_c, 1, 52, 89
3, 365478, Note_on_c, 1, 52, 0
3, 365713, Note_on_c, 1, 46, 67
3, 366553, Note_on_c, 1, 46, 0
3, 366673, Note_on_c, 1, 45, 68
3, 367501, Note_on_c, 1, 45, 0
3, 367637, Note_on_c, 1, 33, 72
3, 369641, Note_on_c, 1, 38, 78
3, 369674, Note_on_c, 1, 33, 0
3, 370589, Note_on_c, 1, 50, 122
3, 370678, Note_on_c, 1, 38, 0
3, 372188, Note_on_c, 1, 38, 63
3, 372190, Note_on_c, 1, 50, 0
3, 372284, Note_on_c, 1, 38, 0
3, 372509, Note_on_c, 1, 43, 61
3, 376366, Note_on_c, 1, 39, 78
3, 376378, Note_on_c, 1, 43, 0
3, 378301, Note_on_c, 1, 51, 100
3, 378800, Note_on_c, 1, 51, 0
3, 378934, Note_on_c, 1, 50, 59
3, 379134, Note_on_c, 1, 50, 0
3, 379275, Note_on_c, 1, 51, 77
3, 379415, Note_on_c, 1, 39, 0
3, 380007, Note_on_c, 1, 51, 0
3, 380216, Note_on_c, 1, 53, 61
3, 380310, Note_on_c, 1, 51, 67
3, 380468, Note_on_c, 1, 51, 0
3, 381125, Note_on_c, 1, 53, 0
3, 381159, Note_on_c, 1, 48, 86
3, 382990, Note_on_c, 1, 48, 0
3, 383050, Note_on_c, 1, 45, 83
3, 385032, Note_on_c, 1, 46, 86
3, 385034, Note_on_c, 1, 45, 0
3, 385683, Note_on_c, 1, 43, 56
3, 385713, Note_on_c, 1, 46, 0
3, 385819, Note_on_c, 1, 43, 0
3, 386004, Note_on_c, 1, 45, 87
3, 386767, Note_on_c, 1, 45, 0
3, 386904, Note_on_c, 1, 33, 67
3, 387778, Note_on_c, 1, 33, 0
3, 387813, Note_on_c, 1, 38, 76
3, 389788, Note_on_c, 1, 40, 75
3, 389941, Note_on_c, 1, 38, 0
3, 390725, Note_on_c, 1, 41, 91
3, 390741, Note_on_c, 1, 40, 0
3, 392216, Note_on_c, 1, 42, 74
3, 392252, Note_on_c, 1, 41, 0
3, 392527, Note_on_c, 1, 42, 0
3, 392637, Note_on_c, 1, 43, 66
3, 393490, Note_on_c, 1, 43, 0
3, 393569, Note_on_c, 1, 38, 66
3, 394328, Note_on_c, 1, 38, 0
3, 394471, Note_on_c, 1, 32, 81
3, 395379, Note_on_c, 1, 32, 0
3, 395472, Note_on_c, 1, 31, 97
3, 396863, Note_on_c, 1, 31, 0
3, 396996, Note_on_c, 1, 33, 89
3, 398360, Note_on_c, 1, 33, 0
3, 398372, Note_on_c, 1, 34, 92
3, 399933, Note_on_c, 1, 34, 0
3, 400003, Note_on_c, 1, 35, 90
3, 400950, Note_on_c, 1, 34, 56
3, 401206, Note_on_c, 1, 34, 0
3, 401272, Note_on_c, 1, 36, 78
3, 401281, Note_on_c, 1, 35, 0
3, 402030, Note_on_c, 1, 34, 69
3, 402141, Note_on_c, 1, 36, 0
3, 402227, Note_on_c, 1, 50, 117
3, 402393, Note_on_c, 1, 34, 0
3, 403046, Note_on_c, 1, 50, 0
3, 403153, Note_on_c, 1, 48, 90
3, 405079, Note_on_c, 1, 48, 0
3, 405088, Note_on_c, 1, 46, 94
3, 406930, Note_on_c, 1, 46, 0
3, 407084, Note_on_c, 1, 45, 65
3, 407795, Note_on_c, 1, 45, 0
3, 408019, Note_on_c, 1, 39, 63
3, 408794, Note_on_c, 1, 39, 0
3, 408916, Note_on_c, 1, 38, 69
3, 409896, Note_on_c, 1, 48, 113
3, 409927, Note_on_c, 1, 38, 0
3, 410735, Note_on_c, 1, 48, 0
3, 410804, Note_on_c, 1, 46, 85
3, 412849, Note_on_c, 1, 38, 76
3, 412922, Note_on_c, 1, 46, 0
3, 414718, Note_on_c, 1, 38, 0
3, 414753, Note_on_c, 1, 35, 82
3, 416229, Note_on_c, 1, 35, 0
3, 416319, Note_on_c, 1, 41, 92
3, 416567, Note_on_c, 1, 41, 0
3, 416744, Note_on_c, 1, 40, 71
3, 417665, Note_on_c, 1, 52, 98
3, 417922, Note_on_c, 1, 52, 0
3, 418836, Note_on_c, 1, 40, 0
3, 419514, Note_on_c, 1, 48, 87
3, 420287, Note_on_c, 1, 48, 0
3, 420486, Note_on_c, 1, 48, 93
3, 422182, Note_on_c, 1, 48, 0
3, 422192, Note_on_c, 1, 41, 61
3, 422287, Note_on_c, 1, 41, 0
3, 422349, Note_on_c, 1, 50, 92
3, 423326, Note_on_c, 1, 46, 59
3, 423337, Note_on_c, 1, 50, 0
3, 424038, Note_on_c, 1, 46, 0
3, 424268, Note_on_c, 1, 46, 67
3, 426045, Note_on_c, 1, 46, 0
3, 426225, Note_on_c, 1, 40, 66
3, 427005, Note_on_c, 1, 40, 0
3, 427195, Note_on_c, 1, 40, 69
3, 428128, Note_on_c, 1, 33, 71
3, 428133, Note_on_c, 1, 40, 0
3, 431629, Note_on_c, 1, 37, 80
3, 431696, Note_on_c, 1, 33, 0
3, 431912, Note_on_c, 1, 37, 0
3, 432016, Note_on_c, 1, 38, 74
3, 432759, Note_on_c, 1, 37, 57
3, 432926, Note_on_c, 1, 38, 0
3, 432942, Note_on_c, 1, 45, 98
3, 433033, Note_on_c, 1, 37, 0
3, 433469, Note_on_c, 1, 45, 0
3, 433576, Note_on_c, 1, 38, 57
3, 433699, Note_on_c, 1, 38, 0
3, 433935, Note_on_c, 1, 43, 81
3, 435853, Note_on_c, 1, 43, 0
3, 435933, Note_on_c, 1, 38, 59
3, 437784, Note_on_c, 1, 55, 85
3, 437819, Note_on_c, 1, 38, 0
3, 440309, Note_on_c, 1, 55, 0
3, 440363, Note_on_c, 1, 39, 89
3, 440649, Note_on_c, 1, 39, 0
3, 440735, Note_on_c, 1, 40, 60
3, 441563, Note_on_c, 1, 40, 0
3, 441631, Note_on_c, 1, 41, 70
3, 443173, Note_on_c, 1, 34, 80
3, 443178, Note_on_c, 1, 41, 0
3, 444559, Note_on_c, 1, 33, 85
3, 444609, Note_on_c, 1, 34, 0
3, 446090, Note_on_c, 1, 33, 0
3, 446105, Note_on_c, 1, 39, 98
3, 447045, Note_on_c, 1, 34, 68
3, 447113, Note_on_c, 1, 39, 0
3, 447340, Note_on_c, 1, 34, 0
3, 447387, Note_on_c, 1, 38, 72
3, 448249, Note_on_c, 1, 38, 0
3, 448292, Note_on_c, 1, 32, 81
3, 449191, Note_on_c, 1, 32, 0
3, 449240, Note_on_c, 1, 31, 78
3, 450786, Note_on_c, 1, 31, 0
3, 450920, Note_on_c, 1, 33, 85
3, 451676, Note_on_c, 1, 33, 0
3, 451806, Note_on_c, 1, 34, 79
3, 452035, Note_on_c, 1, 34, 0
3, 452152, Note_on_c, 1, 35, 82
3, 453033, Note_on_c, 1, 35, 0
3, 453133, Note_on_c, 1, 36, 65
3, 453869, Note_on_c, 1, 34, 63
3, 454031, Note_on_c, 1, 36, 0
3, 454077, Note_on_c, 1, 50, 88
3, 454174, Note_on_c, 1, 34, 0
3, 454931, Note_on_c, 1, 50, 0
3, 455051, Note_on_c, 1, 48, 75
3, 456492, Note_on_c, 1, 48, 0
3, 456583, Note_on_c, 1, 46, 54
3, 456852, Note_on_c, 1, 46, 0
3, 456931, Note_on_c, 1, 45, 59
3, 457618, Note_on_c, 1, 41, 75
3, 457654, Note_on_c, 1, 45, 0
3, 457794, Note_on_c, 1, 41, 0
3, 458907, Note_on_c, 1, 41, 77
3, 461378, Note_on_c, 1, 41, 0
3, 461485, Note_on_c, 1, 36, 88
3, 461717, Note_on_c, 1, 36, 0
3, 462850, Note_on_c, 1, 36, 65
3, 464617, Note_on_c, 1, 36, 0
3, 464687, Note_on_c, 1, 29, 74
3, 466385, Note_on_c, 1, 38, 96
3, 466538, Note_on_c, 1, 29, 0
3, 467598, Note_on_c, 1, 36, 92
3, 467746, Note_on_c, 1, 38, 0
3, 469123, Note_on_c, 1, 34, 98
3, 469150, Note_on_c, 1, 36, 0
3, 470349, Note_on_c, 1, 34, 0
3, 470373, Note_on_c, 1, 33, 79
3, 471023, Note_on_c, 1, 34, 79
3, 471099, Note_on_c, 1, 33, 0
3, 471277, Note_on_c, 1, 34, 0
3, 471297, Note_on_c, 1, 44, 91
3, 472234, Note_on_c, 1, 44, 0
3, 472287, Note_on_c, 1, 43, 60
3, 472948, Note_on_c, 1, 43, 0
3, 472957, Note_on_c, 1, 38, 85
3, 474224, Note_on_c, 1, 38, 0
3, 474245, Note_on_c, 1, 34, 67
3, 476024, Note_on_c, 1, 34, 0
3, 476108, Note_on_c, 1, 35, 69
3, 476734, Note_on_c, 1, 34, 74
3, 476885, Note_on_c, 1, 35, 0
3, 476996, Note_on_c, 1, 34, 0
3, 477097, Note_on_c, 1, 47, 68
3, 478033, Note_on_c, 1, 41, 77
3, 478046, Note_on_c, 1, 47, 0
3, 478991, Note_on_c, 1, 41, 0
3, 479027, Note_on_c, 1, 39, 72
3, 479764, Note_on_c, 1, 39, 0
3, 480000, Note_on_c, 1, 41, 105
3, 480819, Note_on_c, 1, 41, 0
3, 480991, Note_on_c, 1, 36, 70
3, 481855, Note_on_c, 1, 36, 0
3, 481941, Note_on_c, 1, 33, 74
3, 482744, Note_on_c, 1, 33, 0
3, 482908, Note_on_c, 1, 33, 89
3, 483750, Note_on_c, 1, 33, 0
3, 483815, Note_on_c, 1, 34, 66
3, 484752, Note_on_c, 1, 36, 78
3, 484777, Note_on_c, 1, 34, 0
3, 485727, Note_on_c, 1, 38, 66
3, 485798, Note_on_c, 1, 36, 0
3, 486443, Note_on_c, 1, 37, 56
3, 486559, Note_on_c, 1, 37, 0
3, 486599, Note_on_c, 1, 38, 0
3, 486674, Note_on_c, 1, 39, 77
3, 487400, Note_on_c, 1, 37, 46
3, 487434, Note_on_c, 1, 39, 0
3, 487576, Note_on_c, 1, 40, 82
3, 487626, Note_on_c, 1, 37, 0
3, 488594, Note_on_c, 1, 52, 102
3, 488733, Note_on_c, 1, 40, 0
3, 489235, Note_on_c, 1, 39, 57
3, 489311, Note_on_c, 1, 39, 0
3, 489353, Note_on_c, 1, 52, 0
3, 489576, Note_on_c, 1, 45, 79
3, 490522, Note_on_c, 1, 39, 77
3, 490540, Note_on_c, 1, 45, 0
3, 491471, Note_on_c, 1, 39, 0
3, 491526, Note_on_c, 1, 33, 75
3, 492276, Note_on_c, 1, 39, 72
3, 492355, Note_on_c, 1, 39, 0
3, 492464, Note_on_c, 1, 33, 0
3, 492468, Note_on_c, 1, 51, 92
3, 493429, Note_on_c, 1, 51, 0
3, 493457, Note_on_c, 1, 50, 74
3, 494257, Note_on_c, 1, 50, 0
3, 494355, Note_on_c, 1, 44, 83
3, 495310, Note_on_c, 1, 44, 0
3, 495347, Note_on_c, 1, 43, 65
3, 496095, Note_on_c, 1, 42, 54
3, 496268, Note_on_c, 1, 43, 0
3, 496306, Note_on_c, 1, 42, 0
3, 496311, Note_on_c, 1, 57, 92
3, 497166, Note_on_c, 1, 57, 0
3, 497294, Note_on_c, 1, 55, 76
3, 498134, Note_on_c, 1, 55, 0
3, 498264, Note_on_c, 1, 53, 74
3, 499104, Note_on_c, 1, 53, 0
3, 499222, Note_on_c, 1, 51, 73
3, 500175, Note_on_c, 1, 50, 77
3, 500199, Note_on_c, 1, 51, 0
3, 501013, Note_on_c, 1, 50, 0
3, 501213, Note_on_c, 1, 49, 67
3, 501853, Note_on_c, 1, 49, 0
3, 502134, Note_on_c, 1, 47, 58
3, 502971, Note_on_c, 1, 47, 0
3, 503090, Note_on_c, 1, 48, 75
3, 504011, Note_on_c, 1, 40, 75
3, 504177, Note_on_c, 1, 48, 0
3, 505004, Note_on_c, 1, 40, 0
3, 505031, Note_on_c, 1, 41, 56
3, 505850, Note_on_c, 1, 41, 0
3, 505864, Note_on_c, 1, 40, 41
3, 505954, Note_on_c, 1, 40, 0
3, 506011, Note_on_c, 1, 46, 78
3, 506859, Note_on_c, 1, 46, 0
3, 506968, Note_on_c, 1, 45, 81
3, 507739, Note_on_c, 1, 45, 0
3, 507906, Note_on_c, 1, 34, 80
3, 508813, Note_on_c, 1, 34, 0
3, 508848, Note_on_c, 1, 33, 81
3, 509767, Note_on_c, 1, 33, 0
3, 509823, Note_on_c, 1, 39, 70
3, 510792, Note_on_c, 1, 39, 0
3, 510833, Note_on_c, 1, 38, 72
3, 511759, Note_on_c, 1, 45, 91
3, 511767, Note_on_c, 1, 38, 0
3, 512553, Note_on_c, 1, 45, 0
3, 512720, Note_on_c, 1, 52, 92
3, 513393, Note_on_c, 1, 52, 0
3, 513463, Note_on_c, 1, 38, 50
3, 513594, Note_on_c, 1, 51, 77
3, 513606, Note_on_c, 1, 38, 0
3, 514333, Note_on_c, 1, 38, 53
3, 514409, Note_on_c, 1, 51, 0
3, 514446, Note_on_c, 1, 38, 0
3, 514661, Note_on_c, 1, 50, 74
3, 515648, Note_on_c, 1, 43, 71
3, 515740, Note_on_c, 1, 50, 0
3, 516555, Note_on_c, 1, 43, 0
3, 516618, Note_on_c, 1, 31, 71
3, 517446, Note_on_c, 1, 31, 0
3, 517525, Note_on_c, 1, 38, 79
3, 518518, Note_on_c, 1, 38, 0
3, 518527, Note_on_c, 1, 43, 88
3, 519451, Note_on_c, 1, 43, 0
3, 519455, Note_on_c, 1, 38, 80
3, 520267, Note_on_c, 1, 38, 0
3, 520441, Note_on_c, 1, 37, 78
3, 521272, Note_on_c, 1, 37, 0
3, 521367, Note_on_c, 1, 35, 87
3, 522288, Note_on_c, 1, 35, 0
3, 522364, Note_on_c, 1, 36, 87
3, 523297, Note_on_c, 1, 36, 0
3, 523324, Note_on_c, 1, 38, 85
3, 524241, Note_on_c, 1, 39, 85
3, 524245, Note_on_c, 1, 38, 0
3, 525027, Note_on_c, 1, 39, 0
3, 525204, Note_on_c, 1, 40, 77
3, 525954, Note_on_c, 1, 40, 0
3, 526190, Note_on_c, 1, 41, 77
3, 526795, Note_on_c, 1, 41, 0
3, 526825, Note_on_c, 1, 34, 82
3, 527072, Note_on_c, 1, 34, 0
3, 527104, Note_on_c, 1, 33, 62
3, 527911, Note_on_c, 1, 33, 0
3, 528027, Note_on_c, 1, 36, 78
3, 528793, Note_on_c, 1, 36, 0
3, 528994, Note_on_c, 1, 34, 67
3, 530007, Note_on_c, 1, 33, 75
3, 530036, Note_on_c, 1, 34, 0
3, 530937, Note_on_c, 1, 33, 0
3, 530965, Note_on_c, 1, 39, 78
3, 531539, Note_on_c, 1, 39, 0
3, 531646, Note_on_c, 1, 34, 56
3, 531932, Note_on_c, 1, 38, 70
3, 531951, Note_on_c, 1, 34, 0
3, 532624, Note_on_c, 1, 34, 59
3, 532788, Note_on_c, 1, 38, 0
3, 532867, Note_on_c, 1, 34, 0
3, 532881, Note_on_c, 1, 50, 113
3, 533728, Note_on_c, 1, 50, 0
3, 533806, Note_on_c, 1, 46, 81
3, 534793, Note_on_c, 1, 43, 60
3, 535748, Note_on_c, 1, 46, 0
3, 535758, Note_on_c, 1, 38, 70
3, 535769, Note_on_c, 1, 43, 0
3, 536677, Note_on_c, 1, 38, 0
3, 536741, Note_on_c, 1, 34, 80
3, 537609, Note_on_c, 1, 34, 0
3, 537716, Note_on_c, 1, 35, 76
3, 538676, Note_on_c, 1, 29, 83
3, 538688, Note_on_c, 1, 35, 0
3, 539539, Note_on_c, 1, 29, 0
3, 539632, Note_on_c, 1, 28, 83
3, 540550, Note_on_c, 1, 28, 0
3, 540621, Note_on_c, 1, 35, 69
3, 540980, Note_on_c, 1, 35, 0
3, 541205, Note_on_c, 1, 28, 89
3, 541407, Note_on_c, 1, 28, 0
3, 541513, Note_on_c, 1, 29, 85
3, 542441, Note_on_c, 1, 29, 0
3, 542460, Note_on_c, 1, 31, 74
3, 543210, Note_on_c, 1, 31, 0
3, 543470, Note_on_c, 1, 33, 77
3, 544225, Note_on_c, 1, 33, 0
3, 544397, Note_on_c, 1, 36, 78
3, 545408, Note_on_c, 1, 46, 79
3, 545422, Note_on_c, 1, 36, 0
3, 546186, Note_on_c, 1, 36, 53
3, 546292, Note_on_c, 1, 36, 0
3, 546318, Note_on_c, 1, 46, 0
3, 546337, Note_on_c, 1, 50, 90
3, 547383, Note_on_c, 1, 43, 64
3, 547794, Note_on_c, 1, 50, 0
3, 548165, Note_on_c, 1, 43, 0
3, 548274, Note_on_c, 1, 39, 80
3, 549158, Note_on_c, 1, 39, 0
3, 549225, Note_on_c, 1, 40, 75
3, 550144, Note_on_c, 1, 40, 0
3, 550211, Note_on_c, 1, 34, 80
3, 551104, Note_on_c, 1, 34, 0
3, 551204, Note_on_c, 1, 33, 72
3, 551897, Note_on_c, 1, 33, 0
3, 552176, Note_on_c, 1, 33, 81
3, 553065, Note_on_c, 1, 33, 0
3, 553176, Note_on_c, 1, 38, 78
3, 554016, Note_on_c, 1, 38, 0
3, 554083, Note_on_c, 1, 37, 81
3, 554997, Note_on_c, 1, 37, 0
3, 555036, Note_on_c, 1, 38, 76
3, 555985, Note_on_c, 1, 50, 100
3, 556046, Note_on_c, 1, 38, 0
3, 556640, Note_on_c, 1, 43, 53
3, 556747, Note_on_c, 1, 43, 0
3, 556823, Note_on_c, 1, 50, 0
3, 556960, Note_on_c, 1, 46, 83
3, 557816, Note_on_c, 1, 46, 0
3, 557904, Note_on_c, 1, 43, 82
3, 558856, Note_on_c, 1, 43, 0
3, 558904, Note_on_c, 1, 38, 76
3, 559598, Note_on_c, 1, 38, 0
3, 559827, Note_on_c, 1, 38, 81
3, 560642, Note_on_c, 1, 38, 0
3, 560764, Note_on_c, 1, 39, 83
3, 562607, Note_on_c, 1, 39, 0
3, 562662, Note_on_c, 1, 31, 87
3, 563503, Note_on_c, 1, 31, 0
3, 563606, Note_on_c, 1, 30, 85
3, 564384, Note_on_c, 1, 30, 0
3, 564586, Note_on_c, 1, 29, 84
3, 566516, Note_on_c, 1, 29, 0
3, 566556, Note_on_c, 1, 34, 81
3, 566558, Note_on_c, 1, 50, 89
3, 568363, Note_on_c, 1, 50, 0
3, 568497, Note_on_c, 1, 33, 89
3, 568505, Note_on_c, 1, 34, 0
3, 568576, Note_on_c, 1, 51, 96
3, 570170, Note_on_c, 1, 51, 0
3, 570340, Note_on_c, 1, 33, 0
3, 570391, Note_on_c, 1, 50, 82
3, 570404, Note_on_c, 1, 38, 74
3, 571161, Note_on_c, 1, 50, 0
3, 571337, Note_on_c, 1, 38, 0
3, 571363, Note_on_c, 1, 32, 84
3, 572789, Note_on_c, 1, 32, 0
3, 572938, Note_on_c, 1, 31, 100
3, 573958, Note_on_c, 1, 31, 0
3, 574156, Note_on_c, 1, 43, 68
3, 574169, Note_on_c, 1, 41, 76
3, 574246, Note_on_c, 1, 41, 0
3, 574291, Note_on_c, 1, 43, 0
3, 575123, Note_on_c, 1, 36, 76
3, 576063, Note_on_c, 1, 48, 78
3, 577295, Note_on_c, 1, 48, 0
3, 577636, Note_on_c, 1, 48, 65
3, 577874, Note_on_c, 1, 36, 0
3, 578937, Note_on_c, 1, 35, 95
3, 579116, Note_on_c, 1, 48, 0
3, 579599, Note_on_c, 1, 36, 89
3, 579617, Note_on_c, 1, 35, 0
3, 581584, Note_on_c, 1, 35, 55
3, 581738, Note_on_c, 1, 35, 0
3, 581787, Note_on_c, 1, 48, 70
3, 582046, Note_on_c, 1, 48, 0
3, 582756, Note_on_c, 1, 48, 63
3, 583204, Note_on_c, 1, 48, 0
3, 583726, Note_on_c, 1, 48, 66
3, 585008, Note_on_c, 1, 48, 0
3, 585317, Note_on_c, 1, 48, 59
3, 586050, Note_on_c, 1, 36, 0
3, 586213, Note_on_c, 1, 34, 65
3, 586398, Note_on_c, 1, 48, 0
3, 586428, Note_on_c, 1, 34, 0
3, 586568, Note_on_c, 1, 35, 65
3, 587194, Note_on_c, 1, 35, 0
3, 587236, Note_on_c, 1, 36, 67
3, 589440, Note_on_c, 1, 48, 56
3, 589693, Note_on_c, 1, 48, 0
3, 590433, Note_on_c, 1, 48, 46
3, 590825, Note_on_c, 1, 48, 0
3, 591422, Note_on_c, 1, 48, 52
3, 592433, Note_on_c, 1, 48, 0
3, 592957, Note_on_c, 1, 48, 54
3, 593540, Note_on_c, 1, 36, 0
3, 593892, Note_on_c, 1, 34, 55
3, 594152, Note_on_c, 1, 34, 0
3, 594356, Note_on_c, 1, 35, 45
3, 594739, Note_on_c, 1, 48, 0
3, 595096, Note_on_c, 1, 35, 0
3, 595203, Note_on_c, 1, 36, 55
3, 597140, Note_on_c, 1, 48, 45
3, 597404, Note_on_c, 1, 48, 0
3, 598084, Note_on_c, 1, 48, 51
3, 598360, Note_on_c, 1, 48, 0
3, 599056, Note_on_c, 1, 48, 46
3, 600087, Note_on_c, 1, 48, 0
3, 600608, Note_on_c, 1, 48, 48
3, 602084, Note_on_c, 1, 36, 0
3, 603084, Note_on_c, 1, 36, 45
3, 603132, Note_on_c, 1, 48, 0
3, 606766, Note_on_c, 1, 48, 41
3, 607692, Note_on_c, 1, 48, 0
3, 608351, Note_on_c, 1, 48, 47
3, 608556, Note_on_c, 1, 36, 0
3, 610374, Note_on_c, 1, 35, 49
3, 610508, Note_on_c, 1, 48, 0
3, 610570, Note_on_c, 1, 35, 0
3, 610717, Note_on_c, 1, 36, 49
3, 616023, Note_on_c, 1, 48, 58
3, 617683, Note_on_c, 1, 36, 0
3, 618248, Note_on_c, 1, 48, 0
3, 618350, Note_on_c, 1, 36, 45
3, 623633, Note_on_c, 1, 36, 0
3, 623633, End_track
4, 0, Start_track
4, 0, Title_t, "Drums"
4, 0, Program_c, 9, 40
4, 0, Control_c, 9, 7, 100
4, 209896, Note_on_c, 9, 59, 39
4, 210008, Note_on_c, 9, 59, 0
4, 210926, Note_on_c, 9, 40, 34
4, 211189, Note_on_c, 9, 40, 0
4, 212212, Note_on_c, 9, 40, 28
4, 214135, Note_on_c, 9, 59, 22
4, 214235, Note_on_c, 9, 59, 0
4, 214659, Note_on_c, 9, 59, 45
4, 214752, Note_on_c, 9, 59, 0
4, 216033, Note_on_c, 9, 59, 25
4, 216359, Note_on_c, 9, 40, 0
4, 216444, Note_on_c, 9, 59, 0
4, 217886, Note_on_c, 9, 40, 30
4, 218880, Note_on_c, 9, 40, 16
4, 218880, Note_on_c, 9, 38, 41
4, 219612, Note_on_c, 9, 38, 0
4, 219693, Note_on_c, 9, 40, 0
4, 219840, Note_on_c, 9, 40, 20
4, 219840, Note_on_c, 9, 38, 41
4, 219840, Note_on_c, 9, 44, 62
4, 219959, Note_on_c, 9, 44, 0
4, 220151, Note_on_c, 9, 40, 0
4, 220297, Note_on_c, 9, 38, 0
4, 220480, Note_on_c, 9, 38, 46
4, 220599, Note_on_c, 9, 38, 0
4, 220604, Note_on_c, 9, 40, 0
4, 220800, Note_on_c, 9, 38, 51
4, 220800, Note_on_c, 9, 40, 12
4, 221477, Note_on_c, 9, 38, 0
4, 221483, Note_on_c, 9, 40, 0
4, 221760, Note_on_c, 9, 38, 45
4, 221760, Note_on_c, 9, 40, 20
4, 221760, Note_on_c, 9, 44, 62
4, 221940, Note_on_c, 9, 44, 0
4, 222363, Note_on_c, 9, 38, 0
4, 222420, Note_on_c, 9, 40, 0
4, 222720, Note_on_c, 9, 38, 46
4, 222720, Note_on_c, 9, 40, 20
4, 223115, Note_on_c, 9, 38, 0
4, 223354, Note_on_c, 9, 40, 0
4, 223360, Note_on_c, 9, 38, 46
4, 223461, Note_on_c, 9, 38, 0
4, 223680, Note_on_c, 9, 38, 52
4, 223680, Note_on_c, 9, 40, 20
4, 223680, Note_on_c, 9, 44, 58
4, 223917, Note_on_c, 9, 44, 0
4, 224412, Note_on_c, 9, 38, 0
4, 224475, Note_on_c, 9, 40, 0
4, 224640, Note_on_c, 9, 38, 49
4, 224640, Note_on_c, 9, 40, 22
4, 225203, Note_on_c, 9, 38, 0
4, 225211, Note_on_c, 9, 40, 0
4, 225244, Note_on_c, 9, 36, 37
4, 225336, Note_on_c, 9, 36, 0
4, 225600, Note_on_c, 9, 38, 52
4, 225600, Note_on_c, 9, 40, 24
4, 226162, Note_on_c, 9, 40, 0
4, 226162, Note_on_c, 9, 38, 0
4, 226240, Note_on_c, 9, 39, 61
4, 226240, Note_on_c, 9, 40, 22
4, 226448, Note_on_c, 9, 39, 0
4, 226560, Note_on_c, 9, 38, 29
4, 227065, Note_on_c, 9, 40, 0
4, 227232, Note_on_c, 9, 38, 0
4, 227520, Note_on_c, 9, 38, 38
4, 227520, Note_on_c, 9, 40, 20
4, 227520, Note_on_c, 9, 44, 57
4, 227678, Note_on_c, 9, 44, 0
4, 228105, Note_on_c, 9, 40, 0
4, 228114, Note_on_c, 9, 38, 0
4, 228480, Note_on_c, 9, 38, 43
4, 228480, Note_on_c, 9, 40, 17
4, 229045, Note_on_c, 9, 40, 0
4, 229065, Note_on_c, 9, 38, 0
4, 229440, Note_on_c, 9, 38, 46
4, 229440, Note_on_c, 9, 40, 20
4, 229440, Note_on_c, 9, 44, 50
4, 229658, Note_on_c, 9, 44, 0
4, 229978, Note_on_c, 9, 40, 0
4, 229978, Note_on_c, 9, 38, 0
4, 230080, Note_on_c, 9, 39, 63
4, 230352, Note_on_c, 9, 39, 0
4, 230400, Note_on_c, 9, 40, 26
4, 230400, Note_on_c, 9, 38, 39
4, 231083, Note_on_c, 9, 38, 0
4, 231211, Note_on_c, 9, 40, 0
4, 231360, Note_on_c, 9, 38, 45
4, 231360, Note_on_c, 9, 40, 17
4, 231360, Note_on_c, 9, 44, 49
4, 231523, Note_on_c, 9, 44, 0
4, 231877, Note_on_c, 9, 40, 0
4, 231964, Note_on_c, 9, 38, 0
4, 232320, Note_on_c, 9, 38, 38
4, 232320, Note_on_c, 9, 40, 20
4, 232824, Note_on_c, 9, 40, 0
4, 232938, Note_on_c, 9, 38, 0
4, 233280, Note_on_c, 9, 38, 46
4, 233280, Note_on_c, 9, 40, 17
4, 233280, Note_on_c, 9, 44, 58
4, 233454, Note_on_c, 9, 44, 0
4, 233645, Note_on_c, 9, 38, 0
4, 233743, Note_on_c, 9, 40, 0
4, 233920, Note_on_c, 9, 38, 43
4, 234037, Note_on_c, 9, 38, 0
4, 234240, Note_on_c, 9, 40, 20
4, 234240, Note_on_c, 9, 38, 45
4, 234919, Note_on_c, 9, 38, 0
4, 235020, Note_on_c, 9, 40, 0
4, 235200, Note_on_c, 9, 40, 21
4, 235200, Note_on_c, 9, 38, 46
4, 235200, Note_on_c, 9, 44, 71
4, 235453, Note_on_c, 9, 44, 0
4, 235603, Note_on_c, 9, 38, 0
4, 235756, Note_on_c, 9, 40, 0
4, 235840, Note_on_c, 9, 38, 44
4, 235967, Note_on_c, 9, 38, 0
4, 236160, Note_on_c, 9, 38, 46
4, 236160, Note_on_c, 9, 40, 17
4, 236859, Note_on_c, 9, 38, 0
4, 236909, Note_on_c, 9, 40, 0
4, 237120, Note_on_c, 9, 38, 56
4, 237120, Note_on_c, 9, 40, 21
4, 237174, Note_on_c, 9, 46, 40
4, 237389, Note_on_c, 9, 46, 0
4, 237716, Note_on_c, 9, 40, 0
4, 237716, Note_on_c, 9, 38, 0
4, 238080, Note_on_c, 9, 38, 45
4, 238080, Note_on_c, 9, 40, 20
4, 238557, Note_on_c, 9, 38, 0
4, 238598, Note_on_c, 9, 40, 0
4, 238720, Note_on_c, 9, 39, 63
4, 238969, Note_on_c, 9, 39, 0
4, 239040, Note_on_c, 9, 38, 37
4, 239040, Note_on_c, 9, 40, 24
4, 239741, Note_on_c, 9, 38, 0
4, 239877, Note_on_c, 9, 40, 0
4, 240000, Note_on_c, 9, 38, 46
4, 240000, Note_on_c, 9, 40, 16
4, 240527, Note_on_c, 9, 40, 0
4, 240595, Note_on_c, 9, 38, 0
4, 240960, Note_on_c, 9, 38, 45
4, 240960, Note_on_c, 9, 40, 20
4, 240960, Note_on_c, 9, 44, 67
4, 241172, Note_on_c, 9, 44, 0
4, 241334, Note_on_c, 9, 38, 0
4, 241515, Note_on_c, 9, 40, 0
4, 241600, Note_on_c, 9, 38, 61
4, 241735, Note_on_c, 9, 38, 0
4, 241920, Note_on_c, 9, 40, 22
4, 241920, Note_on_c, 9, 38, 56
4, 242646, Note_on_c, 9, 38, 0
4, 242693, Note_on_c, 9, 40, 0
4, 242880, Note_on_c, 9, 38, 56
4, 242880, Note_on_c, 9, 40, 27
4, 242880, Note_on_c, 9, 44, 67
4, 243101, Note_on_c, 9, 44, 0
4, 243514, Note_on_c, 9, 38, 0
4, 243545, Note_on_c, 9, 40, 0
4, 243840, Note_on_c, 9, 38, 50
4, 243840, Note_on_c, 9, 40, 16
4, 244479, Note_on_c, 9, 40, 0
4, 244512, Note_on_c, 9, 38, 0
4, 244800, Note_on_c, 9, 38, 43
4, 244800, Note_on_c, 9, 40, 19
4, 244833, Note_on_c, 9, 46, 37
4, 244972, Note_on_c, 9, 46, 0
4, 245355, Note_on_c, 9, 38, 0
4, 245436, Note_on_c, 9, 40, 0
4, 245760, Note_on_c, 9, 38, 51
4, 245760, Note_on_c, 9, 40, 20
4, 245870, Note_on_c, 9, 38, 0
4, 246080, Note_on_c, 9, 38, 59
4, 246212, Note_on_c, 9, 38, 0
4, 246430, Note_on_c, 9, 40, 0
4, 246720, Note_on_c, 9, 38, 62
4, 246720, Note_on_c, 9, 40, 24
4, 247381, Note_on_c, 9, 38, 0
4, 247424, Note_on_c, 9, 40, 0
4, 247680, Note_on_c, 9, 38, 49
4, 247680, Note_on_c, 9, 40, 19
4, 248261, Note_on_c, 9, 38, 0
4, 248343, Note_on_c, 9, 40, 0
4, 248640, Note_on_c, 9, 38, 56
4, 248640, Note_on_c, 9, 40, 27
4, 248640, Note_on_c, 9, 44, 76
4, 248731, Note_on_c, 9, 38, 0
4, 248795, Note_on_c, 9, 44, 0
4, 248960, Note_on_c, 9, 38, 56
4, 249085, Note_on_c, 9, 38, 0
4, 249178, Note_on_c, 9, 40, 0
4, 249600, Note_on_c, 9, 40, 24
4, 249600, Note_on_c, 9, 38, 61
4, 249600, Note_on_c, 9, 44, 78
4, 249823, Note_on_c, 9, 44, 0
4, 250276, Note_on_c, 9, 38, 0
4, 250382, Note_on_c, 9, 40, 0
4, 250560, Note_on_c, 9, 40, 22
4, 250560, Note_on_c, 9, 38, 58
4, 251073, Note_on_c, 9, 38, 0
4, 251144, Note_on_c, 9, 40, 0
4, 251520, Note_on_c, 9, 38, 46
4, 251520, Note_on_c, 9, 40, 20
4, 251991, Note_on_c, 9, 38, 0
4, 252049, Note_on_c, 9, 40, 0
4, 252450, Note_on_c, 9, 40, 16
4, 252480, Note_on_c, 9, 38, 18
4, 253121, Note_on_c, 9, 38, 0
4, 253410, Note_on_c, 9, 40, 0
4, 253440, Note_on_c, 9, 38, 45
4, 253440, Note_on_c, 9, 40, 24
4, 254197, Note_on_c, 9, 40, 0
4, 254272, Note_on_c, 9, 38, 0
4, 254400, Note_on_c, 9, 40, 25
4, 254400, Note_on_c, 9, 39, 61
4, 254400, Note_on_c, 9, 44, 80
4, 254516, Note_on_c, 9, 39, 0
4, 254599, Note_on_c, 9, 44, 0
4, 255002, Note_on_c, 9, 40, 0
4, 255360, Note_on_c, 9, 38, 49
4, 255360, Note_on_c, 9, 40, 19
4, 256008, Note_on_c, 9, 38, 0
4, 256085, Note_on_c, 9, 40, 0
4, 256320, Note_on_c, 9, 38, 36
4, 256320, Note_on_c, 9, 40, 17
4, 256320, Note_on_c, 9, 44, 75
4, 256543, Note_on_c, 9, 44, 0
4, 256787, Note_on_c, 9, 38, 0
4, 256865, Note_on_c, 9, 40, 0
4, 257280, Note_on_c, 9, 38, 23
4, 257280, Note_on_c, 9, 40, 12
4, 257856, Note_on_c, 9, 38, 0
4, 257947, Note_on_c, 9, 40, 0
4, 258240, Note_on_c, 9, 38, 55
4, 258240, Note_on_c, 9, 40, 20
4, 258903, Note_on_c, 9, 38, 0
4, 258943, Note_on_c, 9, 40, 0
4, 259200, Note_on_c, 9, 40, 19
4, 259200, Note_on_c, 9, 38, 30
4, 259711, Note_on_c, 9, 38, 0
4, 259722, Note_on_c, 9, 40, 0
4, 259840, Note_on_c, 9, 39, 64
4, 260136, Note_on_c, 9, 39, 0
4, 260160, Note_on_c, 9, 38, 43
4, 260160, Note_on_c, 9, 40, 26
4, 260160, Note_on_c, 9, 44, 89
4, 260410, Note_on_c, 9, 44, 0
4, 260852, Note_on_c, 9, 38, 0
4, 260993, Note_on_c, 9, 40, 0
4, 261120, Note_on_c, 9, 38, 44
4, 261120, Note_on_c, 9, 40, 20
4, 261703, Note_on_c, 9, 40, 0
4, 261734, Note_on_c, 9, 38, 0
4, 262080, Note_on_c, 9, 38, 46
4, 262080, Note_on_c, 9, 40, 17
4, 262080, Note_on_c, 9, 44, 83
4, 262290, Note_on_c, 9, 44, 0
4, 262461, Note_on_c, 9, 38, 0
4, 262575, Note_on_c, 9, 40, 0
4, 262720, Note_on_c, 9, 38, 50
4, 262844, Note_on_c, 9, 38, 0
4, 263040, Note_on_c, 9, 38, 50
4, 263040, Note_on_c, 9, 40, 20
4, 263743, Note_on_c, 9, 38, 0
4, 263860, Note_on_c, 9, 40, 0
4, 264000, Note_on_c, 9, 38, 41
4, 264000, Note_on_c, 9, 40, 24
4, 264000, Note_on_c, 9, 44, 87
4, 264196, Note_on_c, 9, 44, 0
4, 264475, Note_on_c, 9, 38, 0
4, 264612, Note_on_c, 9, 40, 0
4, 264640, Note_on_c, 9, 38, 33
4, 264735, Note_on_c, 9, 38, 0
4, 264960, Note_on_c, 9, 40, 20
4, 264960, Note_on_c, 9, 38, 45
4, 265618, Note_on_c, 9, 38, 0
4, 265712, Note_on_c, 9, 40, 0
4, 265920, Note_on_c, 9, 40, 20
4, 265920, Note_on_c, 9, 38, 41
4, 265920, Note_on_c, 9, 44, 76
4, 266100, Note_on_c, 9, 44, 0
4, 266515, Note_on_c, 9, 38, 0
4, 266580, Note_on_c, 9, 40, 0
4, 266880, Note_on_c, 9, 40, 21
4, 266880, Note_on_c, 9, 38, 37
4, 267442, Note_on_c, 9, 38, 0
4, 267590, Note_on_c, 9, 40, 0
4, 267840, Note_on_c, 9, 38, 52
4, 267840, Note_on_c, 9, 40, 20
4, 267840, Note_on_c, 9, 44, 72
4, 268025, Note_on_c, 9, 44, 0
4, 268290, Note_on_c, 9, 38, 0
4, 268476, Note_on_c, 9, 40, 0
4, 268480, Note_on_c, 9, 38, 56
4, 268597, Note_on_c, 9, 38, 0
4, 268800, Note_on_c, 9, 38, 49
4, 268800, Note_on_c, 9, 40, 25
4, 269499, Note_on_c, 9, 38, 0
4, 269624, Note_on_c, 9, 40, 0
4, 269760, Note_on_c, 9, 38, 58
4, 269760, Note_on_c, 9, 40, 25
4, 269760, Note_on_c, 9, 44, 76
4, 269936, Note_on_c, 9, 44, 0
4, 270175, Note_on_c, 9, 38, 0
4, 270317, Note_on_c, 9, 40, 0
4, 270400, Note_on_c, 9, 38, 50
4, 270501, Note_on_c, 9, 38, 0
4, 270720, Note_on_c, 9, 38, 58
4, 270720, Note_on_c, 9, 40, 26
4, 270739, Note_on_c, 9, 46, 47
4, 270989, Note_on_c, 9, 46, 0
4, 271385, Note_on_c, 9, 38, 0
4, 271680, Note_on_c, 9, 38, 54
4, 272175, Note_on_c, 9, 38, 0
4, 272267, Note_on_c, 9, 40, 0
4, 272640, Note_on_c, 9, 38, 45
4, 272640, Note_on_c, 9, 40, 24
4, 273142, Note_on_c, 9, 38, 0
4, 273263, Note_on_c, 9, 40, 0
4, 273280, Note_on_c, 9, 39, 66
4, 273515, Note_on_c, 9, 39, 0
4, 273600, Note_on_c, 9, 38, 36
4, 273600, Note_on_c, 9, 40, 26
4, 273600, Note_on_c, 9, 44, 80
4, 273796, Note_on_c, 9, 44, 0
4, 274296, Note_on_c, 9, 38, 0
4, 274355, Note_on_c, 9, 40, 0
4, 274560, Note_on_c, 9, 40, 24
4, 274560, Note_on_c, 9, 38, 44
4, 275152, Note_on_c, 9, 38, 0
4, 275199, Note_on_c, 9, 40, 0
4, 275520, Note_on_c, 9, 38, 40
4, 275520, Note_on_c, 9, 40, 21
4, 275520, Note_on_c, 9, 44, 67
4, 275664, Note_on_c, 9, 44, 0
4, 276064, Note_on_c, 9, 40, 0
4, 276133, Note_on_c, 9, 38, 0
4, 276160, Note_on_c, 9, 39, 62
4, 276406, Note_on_c, 9, 39, 0
4, 276480, Note_on_c, 9, 38, 39
4, 276480, Note_on_c, 9, 40, 22
4, 277111, Note_on_c, 9, 38, 0
4, 277186, Note_on_c, 9, 40, 0
4, 277440, Note_on_c, 9, 38, 38
4, 277440, Note_on_c, 9, 40, 17
4, 277440, Note_on_c, 9, 44, 59
4, 277693, Note_on_c, 9, 44, 0
4, 277940, Note_on_c, 9, 38, 0
4, 277989, Note_on_c, 9, 40, 0
4, 278400, Note_on_c, 9, 40, 17
4, 278400, Note_on_c, 9, 38, 35
4, 278971, Note_on_c, 9, 38, 0
4, 279018, Note_on_c, 9, 40, 0
4, 279360, Note_on_c, 9, 40, 20
4, 279360, Note_on_c, 9, 38, 43
4, 279360, Note_on_c, 9, 44, 46
4, 279534, Note_on_c, 9, 44, 0
4, 279671, Note_on_c, 9, 38, 0
4, 279904, Note_on_c, 9, 40, 0
4, 280320, Note_on_c, 9, 40, 19
4, 280320, Note_on_c, 9, 38, 56
4, 280381, Note_on_c, 9, 57, 32
4, 280479, Note_on_c, 9, 57, 0
4, 281015, Note_on_c, 9, 38, 0
4, 281086, Note_on_c, 9, 40, 0
4, 281280, Note_on_c, 9, 40, 25
4, 281280, Note_on_c, 9, 38, 46
4, 281735, Note_on_c, 9, 38, 0
4, 281827, Note_on_c, 9, 40, 0
4, 281920, Note_on_c, 9, 38, 34
4, 282011, Note_on_c, 9, 38, 0
4, 282240, Note_on_c, 9, 40, 25
4, 282240, Note_on_c, 9, 38, 59
4, 282977, Note_on_c, 9, 38, 0
4, 283011, Note_on_c, 9, 40, 0
4, 283200, Note_on_c, 9, 38, 58
4, 283200, Note_on_c, 9, 40, 24
4, 283200, Note_on_c, 9, 44, 66
4, 283325, Note_on_c, 9, 44, 0
4, 283664, Note_on_c, 9, 38, 0
4, 283776, Note_on_c, 9, 40, 0
4, 283840, Note_on_c, 9, 38, 50
4, 283922, Note_on_c, 9, 38, 0
4, 284160, Note_on_c, 9, 38, 54
4, 284160, Note_on_c, 9, 40, 19
4, 284704, Note_on_c, 9, 38, 0
4, 284756, Note_on_c, 9, 40, 0
4, 285120, Note_on_c, 9, 38, 58
4, 285120, Note_on_c, 9, 40, 17
4, 285120, Note_on_c, 9, 44, 63
4, 285256, Note_on_c, 9, 44, 0
4, 285663, Note_on_c, 9, 40, 0
4, 285713, Note_on_c, 9, 38, 0
4, 286080, Note_on_c, 9, 40, 12
4, 286080, Note_on_c, 9, 38, 52
4, 286618, Note_on_c, 9, 40, 0
4, 286678, Note_on_c, 9, 38, 0
4, 287040, Note_on_c, 9, 38, 55
4, 287040, Note_on_c, 9, 40, 21
4, 287040, Note_on_c, 9, 44, 54
4, 287152, Note_on_c, 9, 44, 0
4, 287401, Note_on_c, 9, 38, 0
4, 287512, Note_on_c, 9, 40, 0
4, 287680, Note_on_c, 9, 38, 40
4, 287687, Note_on_c, 9, 36, 34
4, 287782, Note_on_c, 9, 36, 0
4, 287808, Note_on_c, 9, 38, 0
4, 288000, Note_on_c, 9, 38, 36
4, 288000, Note_on_c, 9, 40, 16
4, 288060, Note_on_c, 9, 36, 24
4, 288207, Note_on_c, 9, 36, 0
4, 288739, Note_on_c, 9, 38, 0
4, 288753, Note_on_c, 9, 40, 0
4, 288960, Note_on_c, 9, 38, 46
4, 288960, Note_on_c, 9, 40, 24
4, 288960, Note_on_c, 9, 44, 66
4, 289156, Note_on_c, 9, 44, 0
4, 289621, Note_on_c, 9, 40, 0
4, 289623, Note_on_c, 9, 38, 0
4, 289920, Note_on_c, 9, 40, 20
4, 289920, Note_on_c, 9, 38, 49
4, 290518, Note_on_c, 9, 38, 0
4, 290518, Note_on_c, 9, 40, 0
4, 290880, Note_on_c, 9, 38, 55
4, 290880, Note_on_c, 9, 40, 20
4, 291435, Note_on_c, 9, 40, 0
4, 291482, Note_on_c, 9, 38, 0
4, 291840, Note_on_c, 9, 38, 46
4, 291840, Note_on_c, 9, 40, 20
4, 292380, Note_on_c, 9, 38, 0
4, 292398, Note_on_c, 9, 40, 0
4, 292480, Note_on_c, 9, 39, 68
4, 292760, Note_on_c, 9, 39, 0
4, 292800, Note_on_c, 9, 38, 36
4, 292800, Note_on_c, 9, 40, 20
4, 292800, Note_on_c, 9, 44, 62
4, 292925, Note_on_c, 9, 44, 0
4, 293499, Note_on_c, 9, 38, 0
4, 293580, Note_on_c, 9, 40, 0
4, 293760, Note_on_c, 9, 40, 20
4, 293760, Note_on_c, 9, 38, 44
4, 294335, Note_on_c, 9, 36, 30
4, 294345, Note_on_c, 9, 40, 0
4, 294425, Note_on_c, 9, 38, 0
4, 294427, Note_on_c, 9, 36, 0
4, 294720, Note_on_c, 9, 38, 49
4, 294720, Note_on_c, 9, 40, 20
4, 295222, Note_on_c, 9, 38, 0
4, 295333, Note_on_c, 9, 40, 0
4, 295360, Note_on_c, 9, 38, 59
4, 295470, Note_on_c, 9, 38, 0
4, 295680, Note_on_c, 9, 40, 19
4, 295680, Note_on_c, 9, 38, 49
4, 295680, Note_on_c, 9, 44, 66
4, 295846, Note_on_c, 9, 44, 0
4, 296411, Note_on_c, 9, 38, 0
4, 296428, Note_on_c, 9, 40, 0
4, 296640, Note_on_c, 9, 40, 22
4, 296640, Note_on_c, 9, 38, 56
4, 297260, Note_on_c, 9, 40, 0
4, 297263, Note_on_c, 9, 38, 0
4, 297600, Note_on_c, 9, 40, 19
4, 297600, Note_on_c, 9, 38, 39
4, 298214, Note_on_c, 9, 40, 0
4, 298245, Note_on_c, 9, 38, 0
4, 298560, Note_on_c, 9, 40, 20
4, 298560, Note_on_c, 9, 38, 49
4, 298560, Note_on_c, 9, 44, 67
4, 298710, Note_on_c, 9, 44, 0
4, 299207, Note_on_c, 9, 38, 0
4, 299243, Note_on_c, 9, 40, 0
4, 299520, Note_on_c, 9, 38, 45
4, 299520, Note_on_c, 9, 40, 20
4, 300169, Note_on_c, 9, 40, 0
4, 300210, Note_on_c, 9, 38, 0
4, 300480, Note_on_c, 9, 38, 49
4, 300480, Note_on_c, 9, 40, 22
4, 300480, Note_on_c, 9, 44, 71
4, 300616, Note_on_c, 9, 44, 0
4, 300880, Note_on_c, 9, 38, 0
4, 301087, Note_on_c, 9, 40, 0
4, 301120, Note_on_c, 9, 38, 58
4, 301241, Note_on_c, 9, 38, 0
4, 301440, Note_on_c, 9, 38, 52
4, 301440, Note_on_c, 9, 40, 19
4, 302089, Note_on_c, 9, 38, 0
4, 302204, Note_on_c, 9, 40, 0
4, 302400, Note_on_c, 9, 40, 20
4, 302400, Note_on_c, 9, 38, 46
4, 302400, Note_on_c, 9, 44, 66
4, 302536, Note_on_c, 9, 44, 0
4, 302873, Note_on_c, 9, 38, 0
4, 302933, Note_on_c, 9, 40, 0
4, 303040, Note_on_c, 9, 38, 50
4, 303181, Note_on_c, 9, 38, 0
4, 303360, Note_on_c, 9, 38, 45
4, 303360, Note_on_c, 9, 40, 20
4, 304040, Note_on_c, 9, 38, 0
4, 304120, Note_on_c, 9, 40, 0
4, 304320, Note_on_c, 9, 38, 54
4, 304320, Note_on_c, 9, 40, 17
4, 304320, Note_on_c, 9, 44, 55
4, 304448, Note_on_c, 9, 44, 0
4, 304745, Note_on_c, 9, 40, 0
4, 304761, Note_on_c, 9, 38, 0
4, 304960, Note_on_c, 9, 38, 38
4, 305063, Note_on_c, 9, 38, 0
4, 305280, Note_on_c, 9, 40, 25
4, 305280, Note_on_c, 9, 38, 39
4, 305948, Note_on_c, 9, 38, 0
4, 305948, Note_on_c, 9, 40, 0
4, 306240, Note_on_c, 9, 38, 43
4, 306240, Note_on_c, 9, 40, 24
4, 306240, Note_on_c, 9, 44, 62
4, 306452, Note_on_c, 9, 44, 0
4, 306623, Note_on_c, 9, 38, 0
4, 306690, Note_on_c, 9, 40, 0
4, 306880, Note_on_c, 9, 38, 38
4, 307010, Note_on_c, 9, 38, 0
4, 307200, Note_on_c, 9, 38, 40
4, 307200, Note_on_c, 9, 40, 15
4, 307807, Note_on_c, 9, 36, 19
4, 307850, Note_on_c, 9, 38, 0
4, 307918, Note_on_c, 9, 36, 0
4, 308075, Note_on_c, 9, 40, 0
4, 308152, Note_on_c, 9, 36, 28
4, 308160, Note_on_c, 9, 38, 51
4, 308160, Note_on_c, 9, 40, 22
4, 308258, Note_on_c, 9, 36, 0
4, 308800, Note_on_c, 9, 38, 0
4, 308893, Note_on_c, 9, 40, 0
4, 309120, Note_on_c, 9, 40, 22
4, 309120, Note_on_c, 9, 38, 50
4, 309772, Note_on_c, 9, 38, 0
4, 309868, Note_on_c, 9, 40, 0
4, 310080, Note_on_c, 9, 38, 46
4, 310080, Note_on_c, 9, 40, 22
4, 310080, Note_on_c, 9, 44, 75
4, 310336, Note_on_c, 9, 44, 0
4, 310378, Note_on_c, 9, 38, 0
4, 310666, Note_on_c, 9, 40, 0
4, 310720, Note_on_c, 9, 38, 55
4, 310820, Note_on_c, 9, 38, 0
4, 311040, Note_on_c, 9, 40, 20
4, 311040, Note_on_c, 9, 38, 54
4, 311683, Note_on_c, 9, 38, 0
4, 311746, Note_on_c, 9, 40, 0
4, 312000, Note_on_c, 9, 40, 20
4, 312000, Note_on_c, 9, 38, 50
4, 312000, Note_on_c, 9, 44, 71
4, 312220, Note_on_c, 9, 44, 0
4, 312484, Note_on_c, 9, 38, 0
4, 312649, Note_on_c, 9, 40, 0
4, 312960, Note_on_c, 9, 40, 25
4, 312960, Note_on_c, 9, 38, 56
4, 313442, Note_on_c, 9, 38, 0
4, 313920, Note_on_c, 9, 38, 55
4, 313930, Note_on_c, 9, 46, 51
4, 314193, Note_on_c, 9, 38, 0
4, 314210, Note_on_c, 9, 46, 0
4, 314399, Note_on_c, 9, 40, 0
4, 314560, Note_on_c, 9, 38, 35
4, 314699, Note_on_c, 9, 38, 0
4, 314880, Note_on_c, 9, 38, 59
4, 314880, Note_on_c, 9, 40, 15
4, 315453, Note_on_c, 9, 38, 0
4, 315702, Note_on_c, 9, 40, 0
4, 315840, Note_on_c, 9, 38, 58
4, 315840, Note_on_c, 9, 40, 26
4, 315840, Note_on_c, 9, 44, 68
4, 316044, Note_on_c, 9, 44, 0
4, 316397, Note_on_c, 9, 38, 0
4, 316588, Note_on_c, 9, 40, 0
4, 316800, Note_on_c, 9, 38, 49
4, 316800, Note_on_c, 9, 40, 20
4, 316800, Note_on_c, 9, 44, 63
4, 317031, Note_on_c, 9, 44, 0
4, 317286, Note_on_c, 9, 38, 0
4, 317362, Note_on_c, 9, 40, 0
4, 317440, Note_on_c, 9, 39, 70
4, 317727, Note_on_c, 9, 39, 0
4, 317760, Note_on_c, 9, 40, 20
4, 317760, Note_on_c, 9, 38, 38
4, 318267, Note_on_c, 9, 38, 0
4, 318436, Note_on_c, 9, 40, 0
4, 318720, Note_on_c, 9, 38, 54
4, 318720, Note_on_c, 9, 40, 20
4, 319249, Note_on_c, 9, 38, 0
4, 319330, Note_on_c, 9, 40, 0
4, 319680, Note_on_c, 9, 38, 56
4, 319680, Note_on_c, 9, 40, 22
4, 319680, Note_on_c, 9, 44, 79
4, 319906, Note_on_c, 9, 44, 0
4, 320117, Note_on_c, 9, 38, 0
4, 320235, Note_on_c, 9, 40, 0
4, 320320, Note_on_c, 9, 38, 40
4, 320464, Note_on_c, 9, 38, 0
4, 320640, Note_on_c, 9, 38, 46
4, 320640, Note_on_c, 9, 40, 25
4, 321198, Note_on_c, 9, 38, 0
4, 321323, Note_on_c, 9, 40, 0
4, 321600, Note_on_c, 9, 40, 24
4, 321600, Note_on_c, 9, 38, 52
4, 321600, Note_on_c, 9, 44, 78
4, 321831, Note_on_c, 9, 44, 0
4, 322010, Note_on_c, 9, 38, 0
4, 322111, Note_on_c, 9, 40, 0
4, 322560, Note_on_c, 9, 38, 46
4, 322560, Note_on_c, 9, 40, 12
4, 323013, Note_on_c, 9, 38, 0
4, 323149, Note_on_c, 9, 40, 0
4, 323200, Note_on_c, 9, 39, 63
4, 323444, Note_on_c, 9, 39, 0
4, 323520, Note_on_c, 9, 38, 51
4, 323520, Note_on_c, 9, 40, 26
4, 323520, Note_on_c, 9, 44, 80
4, 323753, Note_on_c, 9, 44, 0
4, 324176, Note_on_c, 9, 38, 0
4, 324313, Note_on_c, 9, 40, 0
4, 324480, Note_on_c, 9, 38, 46
4, 324480, Note_on_c, 9, 40, 24
4, 324480, Note_on_c, 9, 44, 70
4, 324722, Note_on_c, 9, 44, 0
4, 325029, Note_on_c, 9, 40, 0
4, 325087, Note_on_c, 9, 38, 0
4, 325440, Note_on_c, 9, 40, 24
4, 325440, Note_on_c, 9, 38, 54
4, 326011, Note_on_c, 9, 38, 0
4, 326034, Note_on_c, 9, 40, 0
4, 326400, Note_on_c, 9, 40, 20
4, 326400, Note_on_c, 9, 38, 46
4, 326400, Note_on_c, 9, 44, 76
4, 326598, Note_on_c, 9, 44, 0
4, 326927, Note_on_c, 9, 38, 0
4, 326946, Note_on_c, 9, 40, 0
4, 327040, Note_on_c, 9, 39, 67
4, 327313, Note_on_c, 9, 39, 0
4, 327360, Note_on_c, 9, 38, 52
4, 327360, Note_on_c, 9, 40, 24
4, 327360, Note_on_c, 9, 44, 76
4, 327594, Note_on_c, 9, 44, 0
4, 327891, Note_on_c, 9, 38, 0
4, 327969, Note_on_c, 9, 40, 0
4, 328320, Note_on_c, 9, 40, 20
4, 328320, Note_on_c, 9, 38, 46
4, 328893, Note_on_c, 9, 40, 0
4, 328945, Note_on_c, 9, 38, 0
4, 329280, Note_on_c, 9, 40, 20
4, 329280, Note_on_c, 9, 38, 51
4, 329280, Note_on_c, 9, 44, 80
4, 329493, Note_on_c, 9, 44, 0
4, 329690, Note_on_c, 9, 38, 0
4, 329816, Note_on_c, 9, 40, 0
4, 329920, Note_on_c, 9, 38, 56
4, 330112, Note_on_c, 9, 38, 0
4, 330240, Note_on_c, 9, 38, 45
4, 330240, Note_on_c, 9, 40, 17
4, 330240, Note_on_c, 9, 44, 81
4, 330480, Note_on_c, 9, 44, 0
4, 330730, Note_on_c, 9, 38, 0
4, 330888, Note_on_c, 9, 40, 0
4, 331200, Note_on_c, 9, 38, 50
4, 331200, Note_on_c, 9, 40, 21
4, 331628, Note_on_c, 9, 38, 0
4, 331710, Note_on_c, 9, 40, 0
4, 331840, Note_on_c, 9, 38, 46
4, 332024, Note_on_c, 9, 38, 0
4, 332160, Note_on_c, 9, 38, 34
4, 332160, Note_on_c, 9, 40, 20
4, 332160, Note_on_c, 9, 44, 80
4, 332366, Note_on_c, 9, 44, 0
4, 332657, Note_on_c, 9, 38, 0
4, 332718, Note_on_c, 9, 40, 0
4, 333120, Note_on_c, 9, 40, 20
4, 333120, Note_on_c, 9, 38, 49
4, 333120, Note_on_c, 9, 44, 76
4, 333370, Note_on_c, 9, 44, 0
4, 333662, Note_on_c, 9, 38, 0
4, 333714, Note_on_c, 9, 40, 0
4, 334080, Note_on_c, 9, 38, 56
4, 334080, Note_on_c, 9, 40, 24
4, 334629, Note_on_c, 9, 40, 0
4, 334640, Note_on_c, 9, 38, 0
4, 335040, Note_on_c, 9, 38, 44
4, 335040, Note_on_c, 9, 40, 21
4, 335040, Note_on_c, 9, 44, 84
4, 335247, Note_on_c, 9, 44, 0
4, 335425, Note_on_c, 9, 38, 0
4, 335570, Note_on_c, 9, 40, 0
4, 335680, Note_on_c, 9, 38, 46
4, 335821, Note_on_c, 9, 38, 0
4, 336000, Note_on_c, 9, 38, 46
4, 336000, Note_on_c, 9, 40, 20
4, 336000, Note_on_c, 9, 44, 84
4, 336199, Note_on_c, 9, 44, 0
4, 336655, Note_on_c, 9, 38, 0
4, 336719, Note_on_c, 9, 40, 0
4, 336960, Note_on_c, 9, 40, 26
4, 336960, Note_on_c, 9, 38, 54
4, 337296, Note_on_c, 9, 38, 0
4, 337542, Note_on_c, 9, 40, 0
4, 337600, Note_on_c, 9, 38, 55
4, 337746, Note_on_c, 9, 38, 0
4, 337920, Note_on_c, 9, 38, 56
4, 337920, Note_on_c, 9, 40, 25
4, 337920, Note_on_c, 9, 44, 87
4, 338083, Note_on_c, 9, 44, 0
4, 338444, Note_on_c, 9, 38, 0
4, 338592, Note_on_c, 9, 40, 0
4, 338880, Note_on_c, 9, 38, 52
4, 338880, Note_on_c, 9, 40, 24
4, 338880, Note_on_c, 9, 44, 87
4, 339041, Note_on_c, 9, 44, 0
4, 339265, Note_on_c, 9, 38, 0
4, 339397, Note_on_c, 9, 40, 0
4, 339520, Note_on_c, 9, 38, 56
4, 339520, Note_on_c, 9, 40, 16
4, 339672, Note_on_c, 9, 38, 0
4, 339840, Note_on_c, 9, 38, 41
4, 339893, Note_on_c, 9, 51, 47
4, 340142, Note_on_c, 9, 38, 0
4, 340181, Note_on_c, 9, 51, 0
4, 340206, Note_on_c, 9, 40, 0
4, 340377, Program_c, 9, 0
4, 340800, Note_on_c, 9, 44, 59
4, 340944, Note_on_c, 9, 51, 42
4, 341055, Note_on_c, 9, 44, 0
4, 341546, Note_on_c, 9, 51, 0
4, 341760, Note_on_c, 9, 44, 62
4, 341983, Note_on_c, 9, 44, 0
4, 342720, Note_on_c, 9, 44, 53
4, 342727, Note_on_c, 9, 59, 65
4, 342793, Note_on_c, 9, 51, 47
4, 342875, Note_on_c, 9, 59, 0
4, 343122, Note_on_c, 9, 51, 0
4, 343142, Note_on_c, 9, 44, 0
4, 344385, Note_on_c, 9, 59, 55
4, 344503, Note_on_c, 9, 59, 0
4, 344640, Note_on_c, 9, 44, 47
4, 344671, Note_on_c, 9, 51, 64
4, 344700, Note_on_c, 9, 59, 63
4, 344876, Note_on_c, 9, 51, 0
4, 344900, Note_on_c, 9, 44, 0
4, 345059, Note_on_c, 9, 59, 0
4, 345630, Note_on_c, 9, 59, 79
4, 346076, Note_on_c, 9, 59, 0
4, 346600, Note_on_c, 9, 46, 42
4, 347225, Note_on_c, 9, 59, 43
4, 347265, Note_on_c, 9, 46, 0
4, 347352, Note_on_c, 9, 59, 0
4, 347561, Note_on_c, 9, 59, 66
4, 348121, Note_on_c, 9, 59, 0
4, 348181, Note_on_c, 9, 37, 40
4, 348347, Note_on_c, 9, 37, 0
4, 348480, Note_on_c, 9, 44, 39
4, 348504, Note_on_c, 9, 59, 80
4, 348700, Note_on_c, 9, 44, 0
4, 349077, Note_on_c, 9, 59, 0
4, 349135, Note_on_c, 9, 36, 46
4, 349279, Note_on_c, 9, 36, 0
4, 349548, Note_on_c, 9, 36, 30
4, 349917, Note_on_c, 9, 36, 0
4, 350132, Note_on_c, 9, 59, 22
4, 350247, Note_on_c, 9, 59, 0
4, 350400, Note_on_c, 9, 44, 37
4, 350423, Note_on_c, 9, 59, 65
4, 350708, Note_on_c, 9, 44, 0
4, 350943, Note_on_c, 9, 59, 0
4, 351358, Note_on_c, 9, 59, 63
4, 351848, Note_on_c, 9, 59, 0
4, 352320, Note_on_c, 9, 44, 23
4, 352628, Note_on_c, 9, 44, 0
4, 352979, Note_on_c, 9, 36, 51
4, 353062, Note_on_c, 9, 36, 0
4, 353080, Note_on_c, 9, 59, 54
4, 353208, Note_on_c, 9, 59, 0
4, 353412, Note_on_c, 9, 59, 64
4, 353914, Note_on_c, 9, 59, 0
4, 354240, Note_on_c, 9, 44, 47
4, 354281, Note_on_c, 9, 59, 78
4, 354602, Note_on_c, 9, 44, 0
4, 354731, Note_on_c, 9, 59, 0
4, 355181, Note_on_c, 9, 59, 41
4, 355305, Note_on_c, 9, 38, 11
4, 355663, Note_on_c, 9, 38, 0
4, 355708, Note_on_c, 9, 59, 0
4, 355820, Note_on_c, 9, 38, 34
4, 355849, Note_on_c, 9, 53, 53
4, 355968, Note_on_c, 9, 53, 0
4, 355979, Note_on_c, 9, 38, 0
4, 356160, Note_on_c, 9, 44, 44
4, 356187, Note_on_c, 9, 36, 29
4, 356263, Note_on_c, 9, 59, 40
4, 356416, Note_on_c, 9, 44, 0
4, 356584, Note_on_c, 9, 36, 0
4, 356747, Note_on_c, 9, 59, 0
4, 356819, Note_on_c, 9, 36, 45
4, 357103, Note_on_c, 9, 36, 0
4, 357139, Note_on_c, 9, 59, 58
4, 357209, Note_on_c, 9, 36, 38
4, 357518, Note_on_c, 9, 36, 0
4, 357661, Note_on_c, 9, 59, 0
4, 358080, Note_on_c, 9, 44, 36
4, 358132, Note_on_c, 9, 59, 56
4, 358392, Note_on_c, 9, 44, 0
4, 358526, Note_on_c, 9, 59, 0
4, 358774, Note_on_c, 9, 59, 40
4, 358971, Note_on_c, 9, 59, 0
4, 359131, Note_on_c, 9, 59, 46
4, 359675, Note_on_c, 9, 59, 0
4, 360000, Note_on_c, 9, 44, 38
4, 360041, Note_on_c, 9, 59, 71
4, 360235, Note_on_c, 9, 44, 0
4, 361357, Note_on_c, 9, 59, 0
4, 361648, Note_on_c, 9, 59, 33
4, 361828, Note_on_c, 9, 59, 0
4, 361920, Note_on_c, 9, 44, 34
4, 361973, Note_on_c, 9, 59, 63
4, 362215, Note_on_c, 9, 44, 0
4, 362569, Note_on_c, 9, 59, 0
4, 363512, Note_on_c, 9, 59, 61
4, 363655, Note_on_c, 9, 59, 0
4, 363840, Note_on_c, 9, 44, 43
4, 364246, Note_on_c, 9, 44, 0
4, 364511, Note_on_c, 9, 59, 45
4, 364634, Note_on_c, 9, 59, 0
4, 364796, Note_on_c, 9, 38, 26
4, 364820, Note_on_c, 9, 59, 57
4, 364995, Note_on_c, 9, 38, 0
4, 365282, Note_on_c, 9, 59, 0
4, 365467, Note_on_c, 9, 59, 55
4, 365566, Note_on_c, 9, 59, 0
4, 365765, Note_on_c, 9, 59, 55
4, 366312, Note_on_c, 9, 59, 0
4, 366372, Note_on_c, 9, 36, 50
4, 366598, Note_on_c, 9, 36, 0
4, 366780, Note_on_c, 9, 59, 48
4, 367168, Note_on_c, 9, 59, 0
4, 367349, Note_on_c, 9, 53, 71
4, 367528, Note_on_c, 9, 53, 0
4, 367680, Note_on_c, 9, 44, 57
4, 367757, Note_on_c, 9, 59, 38
4, 367911, Note_on_c, 9, 44, 0
4, 368276, Note_on_c, 9, 59, 0
4, 368651, Note_on_c, 9, 59, 55
4, 369161, Note_on_c, 9, 59, 0
4, 369600, Note_on_c, 9, 44, 39
4, 369636, Note_on_c, 9, 59, 61
4, 369924, Note_on_c, 9, 44, 0
4, 370268, Note_on_c, 9, 59, 0
4, 372000, Note_on_c, 9, 44, 57
4, 372216, Note_on_c, 9, 44, 0
4, 372300, Note_on_c, 9, 59, 37
4, 372384, Note_on_c, 9, 59, 0
4, 372480, Note_on_c, 9, 44, 36
4, 372553, Note_on_c, 9, 59, 60
4, 372694, Note_on_c, 9, 44, 0
4, 373117, Note_on_c, 9, 59, 0
4, 373229, Note_on_c, 9, 53, 26
4, 373372, Note_on_c, 9, 53, 0
4, 373605, Note_on_c, 9, 59, 49
4, 374044, Note_on_c, 9, 59, 0
4, 374219, Note_on_c, 9, 59, 58
4, 374403, Note_on_c, 9, 59, 0
4, 375384, Note_on_c, 9, 38, 21
4, 376300, Note_on_c, 9, 38, 0
4, 376437, Note_on_c, 9, 59, 66
4, 376889, Note_on_c, 9, 59, 0
4, 377037, Note_on_c, 9, 36, 38
4, 377109, Note_on_c, 9, 59, 52
4, 377241, Note_on_c, 9, 36, 0
4, 377270, Note_on_c, 9, 59, 0
4, 377280, Note_on_c, 9, 44, 48
4, 377485, Note_on_c, 9, 51, 37
4, 377555, Note_on_c, 9, 44, 0
4, 377727, Note_on_c, 9, 51, 0
4, 378045, Note_on_c, 9, 59, 55
4, 378135, Note_on_c, 9, 59, 0
4, 378399, Note_on_c, 9, 36, 40
4, 378708, Note_on_c, 9, 36, 0
4, 378939, Note_on_c, 9, 59, 83
4, 379129, Note_on_c, 9, 59, 0
4, 379276, Note_on_c, 9, 46, 50
4, 379528, Note_on_c, 9, 46, 0
4, 379902, Note_on_c, 9, 51, 51
4, 379933, Note_on_c, 9, 38, 28
4, 379994, Note_on_c, 9, 51, 0
4, 380027, Note_on_c, 9, 38, 0
4, 380254, Note_on_c, 9, 59, 52
4, 380296, Note_on_c, 9, 36, 20
4, 380545, Note_on_c, 9, 36, 0
4, 380765, Note_on_c, 9, 59, 0
4, 380888, Note_on_c, 9, 59, 45
4, 380935, Note_on_c, 9, 36, 37
4, 380997, Note_on_c, 9, 59, 0
4, 381120, Note_on_c, 9, 44, 52
4, 381203, Note_on_c, 9, 36, 0
4, 381208, Note_on_c, 9, 59, 58
4, 381280, Note_on_c, 9, 44, 0
4, 381811, Note_on_c, 9, 59, 0
4, 382216, Note_on_c, 9, 59, 70
4, 382252, Note_on_c, 9, 36, 24
4, 382377, Note_on_c, 9, 36, 0
4, 382621, Note_on_c, 9, 59, 0
4, 383040, Note_on_c, 9, 44, 45
4, 383228, Note_on_c, 9, 44, 0
4, 384183, Note_on_c, 9, 59, 60
4, 384564, Note_on_c, 9, 59, 0
4, 384763, Note_on_c, 9, 59, 50
4, 384908, Note_on_c, 9, 59, 0
4, 384960, Note_on_c, 9, 44, 37
4, 385095, Note_on_c, 9, 44, 0
4, 385641, Note_on_c, 9, 37, 56
4, 385811, Note_on_c, 9, 37, 0
4, 386295, Note_on_c, 9, 37, 49
4, 386575, Note_on_c, 9, 37, 0
4, 386642, Note_on_c, 9, 59, 52
4, 386765, Note_on_c, 9, 59, 0
4, 386880, Note_on_c, 9, 44, 34
4, 386989, Note_on_c, 9, 59, 42
4, 387005, Note_on_c, 9, 37, 51
4, 387095, Note_on_c, 9, 44, 0
4, 387258, Note_on_c, 9, 59, 0
4, 387336, Note_on_c, 9, 37, 0
4, 387641, Note_on_c, 9, 37, 47
4, 387899, Note_on_c, 9, 59, 62
4, 387915, Note_on_c, 9, 37, 0
4, 388248, Note_on_c, 9, 59, 0
4, 388293, Note_on_c, 9, 37, 43
4, 388497, Note_on_c, 9, 37, 0
4, 388800, Note_on_c, 9, 44, 37
4, 388893, Note_on_c, 9, 36, 30
4, 389004, Note_on_c, 9, 44, 0
4, 389012, Note_on_c, 9, 36, 0
4, 389359, Note_on_c, 9, 59, 60
4, 389512, Note_on_c, 9, 36, 66
4, 389579, Note_on_c, 9, 59, 0
4, 389729, Note_on_c, 9, 36, 0
4, 389917, Note_on_c, 9, 36, 64
4, 390307, Note_on_c, 9, 36, 0
4, 390354, Note_on_c, 9, 59, 48
4, 390528, Note_on_c, 9, 59, 0
4, 390712, Note_on_c, 9, 59, 45
4, 390729, Note_on_c, 9, 46, 39
4, 391073, Note_on_c, 9, 59, 0
4, 391128, Note_on_c, 9, 46, 0
4, 391312, Note_on_c, 9, 53, 48
4, 391393, Note_on_c, 9, 53, 0
4, 391727, Note_on_c, 9, 59, 34
4, 392081, Note_on_c, 9, 59, 0
4, 392285, Note_on_c, 9, 59, 46
4, 392401, Note_on_c, 9, 59, 0
4, 392640, Note_on_c, 9, 44, 56
4, 392665, Note_on_c, 9, 59, 36
4, 392816, Note_on_c, 9, 44, 0
4, 393060, Note_on_c, 9, 59, 0
4, 393273, Note_on_c, 9, 53, 46
4, 393385, Note_on_c, 9, 53, 0
4, 393647, Note_on_c, 9, 59, 44
4, 394135, Note_on_c, 9, 59, 0
4, 394520, Note_on_c, 9, 59, 39
4, 394892, Note_on_c, 9, 59, 0
4, 395127, Note_on_c, 9, 59, 53
4, 395333, Note_on_c, 9, 59, 0
4, 396480, Note_on_c, 9, 46, 55
4, 396669, Note_on_c, 9, 46, 0
4, 397148, Note_on_c, 9, 59, 33
4, 397266, Note_on_c, 9, 59, 0
4, 397497, Note_on_c, 9, 59, 49
4, 397903, Note_on_c, 9, 59, 0
4, 398400, Note_on_c, 9, 44, 49
4, 398552, Note_on_c, 9, 44, 0
4, 399027, Note_on_c, 9, 59, 62
4, 399217, Note_on_c, 9, 59, 0
4, 399363, Note_on_c, 9, 38, 23
4, 399424, Note_on_c, 9, 59, 40
4, 399722, Note_on_c, 9, 38, 0
4, 399771, Note_on_c, 9, 59, 0
4, 399955, Note_on_c, 9, 38, 29
4, 400033, Note_on_c, 9, 53, 24
4, 400089, Note_on_c, 9, 38, 0
4, 400132, Note_on_c, 9, 53, 0
4, 400138, Note_on_c, 9, 59, 25
4, 400261, Note_on_c, 9, 59, 0
4, 400288, Note_on_c, 9, 36, 35
4, 400320, Note_on_c, 9, 44, 60
4, 400485, Note_on_c, 9, 36, 0
4, 400486, Note_on_c, 9, 44, 0
4, 401032, Note_on_c, 9, 53, 58
4, 401135, Note_on_c, 9, 53, 0
4, 401910, Note_on_c, 9, 53, 66
4, 401950, Note_on_c, 9, 38, 18
4, 402067, Note_on_c, 9, 38, 0
4, 402112, Note_on_c, 9, 53, 0
4, 402327, Note_on_c, 9, 53, 44
4, 402419, Note_on_c, 9, 53, 0
4, 402840, Note_on_c, 9, 53, 70
4, 402858, Note_on_c, 9, 38, 42
4, 403039, Note_on_c, 9, 38, 0
4, 403073, Note_on_c, 9, 53, 0
4, 403272, Note_on_c, 9, 59, 58
4, 403628, Note_on_c, 9, 59, 0
4, 404099, Note_on_c, 9, 36, 39
4, 404175, Note_on_c, 9, 59, 62
4, 404365, Note_on_c, 9, 36, 0
4, 404717, Note_on_c, 9, 59, 0
4, 405082, Note_on_c, 9, 59, 64
4, 405438, Note_on_c, 9, 59, 0
4, 405725, Note_on_c, 9, 53, 54
4, 405803, Note_on_c, 9, 53, 0
4, 406097, Note_on_c, 9, 59, 39
4, 406495, Note_on_c, 9, 59, 0
4, 406701, Note_on_c, 9, 59, 67
4, 406968, Note_on_c, 9, 59, 0
4, 408952, Note_on_c, 9, 59, 31
4, 409269, Note_on_c, 9, 59, 0
4, 409595, Note_on_c, 9, 59, 50
4, 409683, Note_on_c, 9, 59, 0
4, 409920, Note_on_c, 9, 44, 59
4, 409923, Note_on_c, 9, 38, 22
4, 410010, Note_on_c, 9, 38, 0
4, 410174, Note_on_c, 9, 44, 0
4, 410205, Note_on_c, 9, 38, 30
4, 410281, Note_on_c, 9, 38, 0
4, 410507, Note_on_c, 9, 59, 72
4, 410534, Note_on_c, 9, 51, 50
4, 410735, Note_on_c, 9, 59, 0
4, 410767, Note_on_c, 9, 51, 0
4, 410928, Note_on_c, 9, 59, 50
4, 410935, Note_on_c, 9, 51, 47
4, 411405, Note_on_c, 9, 59, 0
4, 411428, Note_on_c, 9, 51, 0
4, 411540, Note_on_c, 9, 36, 31
4, 411699, Note_on_c, 9, 36, 0
4, 412407, Note_on_c, 9, 59, 69
4, 412456, Note_on_c, 9, 51, 54
4, 412599, Note_on_c, 9, 36, 37
4, 412711, Note_on_c, 9, 36, 0
4, 412729, Note_on_c, 9, 51, 0
4, 412763, Note_on_c, 9, 59, 0
4, 413419, Note_on_c, 9, 59, 36
4, 413509, Note_on_c, 9, 59, 0
4, 413760, Note_on_c, 9, 44, 62
4, 413762, Note_on_c, 9, 53, 45
4, 413769, Note_on_c, 9, 59, 55
4, 413805, Note_on_c, 9, 38, 16
4, 413949, Note_on_c, 9, 44, 0
4, 414026, Note_on_c, 9, 38, 0
4, 414284, Note_on_c, 9, 59, 0
4, 414299, Note_on_c, 9, 53, 0
4, 414414, Note_on_c, 9, 36, 29
4, 414539, Note_on_c, 9, 36, 0
4, 416298, Note_on_c, 9, 59, 58
4, 416428, Note_on_c, 9, 59, 0
4, 417299, Note_on_c, 9, 59, 60
4, 417453, Note_on_c, 9, 59, 0
4, 417600, Note_on_c, 9, 44, 46
4, 417866, Note_on_c, 9, 44, 0
4, 418302, Note_on_c, 9, 59, 44
4, 418406, Note_on_c, 9, 59, 0
4, 418647, Note_on_c, 9, 59, 49
4, 419059, Note_on_c, 9, 59, 0
4, 419192, Note_on_c, 9, 53, 42
4, 419293, Note_on_c, 9, 53, 0
4, 419584, Note_on_c, 9, 59, 54
4, 419604, Note_on_c, 9, 38, 19
4, 419942, Note_on_c, 9, 59, 0
4, 420105, Note_on_c, 9, 38, 0
4, 420538, Note_on_c, 9, 59, 60
4, 420641, Note_on_c, 9, 38, 20
4, 421004, Note_on_c, 9, 59, 0
4, 421051, Note_on_c, 9, 38, 0
4, 421080, Note_on_c, 9, 36, 48
4, 421166, Note_on_c, 9, 36, 0
4, 421262, Note_on_c, 9, 36, 37
4, 421474, Note_on_c, 9, 36, 0
4, 422128, Note_on_c, 9, 59, 39
4, 422222, Note_on_c, 9, 59, 0
4, 422400, Note_on_c, 9, 44, 51
4, 422442, Note_on_c, 9, 59, 48
4, 422451, Note_on_c, 9, 38, 25
4, 422606, Note_on_c, 9, 44, 0
4, 422832, Note_on_c, 9, 38, 0
4, 422923, Note_on_c, 9, 59, 0
4, 423078, Note_on_c, 9, 38, 23
4, 423096, Note_on_c, 9, 59, 60
4, 423181, Note_on_c, 9, 38, 0
4, 423208, Note_on_c, 9, 59, 0
4, 423400, Note_on_c, 9, 38, 18
4, 423434, Note_on_c, 9, 53, 40
4, 423652, Note_on_c, 9, 53, 0
4, 423829, Note_on_c, 9, 38, 0
4, 424010, Note_on_c, 9, 36, 49
4, 424207, Note_on_c, 9, 36, 0
4, 424409, Note_on_c, 9, 59, 60
4, 424926, Note_on_c, 9, 59, 0
4, 425280, Note_on_c, 9, 44, 52
4, 425311, Note_on_c, 9, 59, 72
4, 425473, Note_on_c, 9, 44, 0
4, 425943, Note_on_c, 9, 59, 0
4, 427200, Note_on_c, 9, 44, 51
4, 427362, Note_on_c, 9, 44, 0
4, 427831, Note_on_c, 9, 53, 62
4, 427979, Note_on_c, 9, 53, 0
4, 428203, Note_on_c, 9, 59, 40
4, 428589, Note_on_c, 9, 59, 0
4, 428790, Note_on_c, 9, 59, 57
4, 428927, Note_on_c, 9, 59, 0
4, 429120, Note_on_c, 9, 44, 55
4, 429288, Note_on_c, 9, 44, 0
4, 429803, Note_on_c, 9, 53, 32
4, 429892, Note_on_c, 9, 53, 0
4, 430087, Note_on_c, 9, 59, 62
4, 430569, Note_on_c, 9, 59, 0
4, 431025, Note_on_c, 9, 59, 68
4, 431044, Note_on_c, 9, 46, 46
4, 431260, Note_on_c, 9, 46, 0
4, 431592, Note_on_c, 9, 59, 0
4, 432676, Note_on_c, 9, 38, 24
4, 432750, Note_on_c, 9, 59, 36
4, 432800, Note_on_c, 9, 38, 0
4, 432847, Note_on_c, 9, 59, 0
4, 432960, Note_on_c, 9, 44, 58
4, 433075, Note_on_c, 9, 59, 47
4, 433143, Note_on_c, 9, 44, 0
4, 433593, Note_on_c, 9, 59, 0
4, 433705, Note_on_c, 9, 36, 38
4, 433738, Note_on_c, 9, 59, 79
4, 433810, Note_on_c, 9, 36, 0
4, 434018, Note_on_c, 9, 59, 0
4, 434648, Note_on_c, 9, 53, 50
4, 434726, Note_on_c, 9, 53, 0
4, 434755, Note_on_c, 9, 36, 24
4, 434840, Note_on_c, 9, 36, 0
4, 434880, Note_on_c, 9, 44, 58
4, 434982, Note_on_c, 9, 59, 36
4, 435045, Note_on_c, 9, 44, 0
4, 435396, Note_on_c, 9, 59, 0
4, 435620, Note_on_c, 9, 59, 63
4, 435947, Note_on_c, 9, 59, 0
4, 436585, Note_on_c, 9, 37, 43
4, 436601, Note_on_c, 9, 53, 48
4, 436675, Note_on_c, 9, 53, 0
4, 436735, Note_on_c, 9, 37, 0
4, 436800, Note_on_c, 9, 44, 56
4, 436946, Note_on_c, 9, 59, 62
4, 437038, Note_on_c, 9, 44, 0
4, 437452, Note_on_c, 9, 59, 0
4, 437880, Note_on_c, 9, 59, 60
4, 437904, Note_on_c, 9, 37, 44
4, 438225, Note_on_c, 9, 37, 0
4, 438422, Note_on_c, 9, 59, 0
4, 438720, Note_on_c, 9, 44, 62
4, 438902, Note_on_c, 9, 36, 34
4, 438961, Note_on_c, 9, 44, 0
4, 439007, Note_on_c, 9, 36, 0
4, 439464, Note_on_c, 9, 36, 50
4, 439565, Note_on_c, 9, 36, 0
4, 439680, Note_on_c, 9, 44, 62
4, 439744, Note_on_c, 9, 59, 68
4, 439882, Note_on_c, 9, 44, 0
4, 440115, Note_on_c, 9, 59, 0
4, 440380, Note_on_c, 9, 59, 49
4, 440474, Note_on_c, 9, 59, 0
4, 441292, Note_on_c, 9, 59, 80
4, 441500, Note_on_c, 9, 59, 0
4, 442241, Note_on_c, 9, 59, 36
4, 442333, Note_on_c, 9, 59, 0
4, 442560, Note_on_c, 9, 44, 52
4, 442660, Note_on_c, 9, 44, 0
4, 443162, Note_on_c, 9, 59, 58
4, 443238, Note_on_c, 9, 59, 0
4, 443241, Note_on_c, 9, 36, 49
4, 443407, Note_on_c, 9, 36, 0
4, 443482, Note_on_c, 9, 59, 45
4, 443607, Note_on_c, 9, 36, 40
4, 443750, Note_on_c, 9, 36, 0
4, 443957, Note_on_c, 9, 59, 0
4, 444454, Note_on_c, 9, 59, 51
4, 444480, Note_on_c, 9, 44, 44
4, 444705, Note_on_c, 9, 44, 0
4, 444929, Note_on_c, 9, 59, 0
4, 445487, Note_on_c, 9, 59, 76
4, 445968, Note_on_c, 9, 59, 0
4, 446491, Note_on_c, 9, 59, 52
4, 446591, Note_on_c, 9, 59, 0
4, 447077, Note_on_c, 9, 59, 73
4, 447301, Note_on_c, 9, 59, 0
4, 447503, Note_on_c, 9, 59, 40
4, 447546, Note_on_c, 9, 38, 19
4, 447709, Note_on_c, 9, 38, 0
4, 447918, Note_on_c, 9, 59, 0
4, 448108, Note_on_c, 9, 38, 23
4, 448119, Note_on_c, 9, 59, 36
4, 448211, Note_on_c, 9, 59, 0
4, 448244, Note_on_c, 9, 38, 0
4, 448320, Note_on_c, 9, 44, 59
4, 448401, Note_on_c, 9, 59, 66
4, 448510, Note_on_c, 9, 44, 0
4, 448990, Note_on_c, 9, 36, 42
4, 449015, Note_on_c, 9, 59, 0
4, 449152, Note_on_c, 9, 36, 0
4, 449371, Note_on_c, 9, 59, 76
4, 449423, Note_on_c, 9, 36, 33
4, 449638, Note_on_c, 9, 36, 0
4, 449766, Note_on_c, 9, 59, 0
4, 449974, Note_on_c, 9, 59, 41
4, 450070, Note_on_c, 9, 59, 0
4, 450240, Note_on_c, 9, 44, 53
4, 450388, Note_on_c, 9, 59, 30
4, 450411, Note_on_c, 9, 44, 0
4, 450507, Note_on_c, 9, 59, 0
4, 450928, Note_on_c, 9, 53, 46
4, 451145, Note_on_c, 9, 53, 0
4, 451857, Note_on_c, 9, 59, 42
4, 451860, Note_on_c, 9, 38, 21
4, 451943, Note_on_c, 9, 59, 0
4, 451952, Note_on_c, 9, 38, 0
4, 452160, Note_on_c, 9, 44, 55
4, 452184, Note_on_c, 9, 36, 26
4, 452225, Note_on_c, 9, 59, 50
4, 452252, Note_on_c, 9, 53, 52
4, 452331, Note_on_c, 9, 44, 0
4, 452413, Note_on_c, 9, 36, 0
4, 452606, Note_on_c, 9, 59, 0
4, 452823, Note_on_c, 9, 36, 54
4, 452841, Note_on_c, 9, 53, 0
4, 453094, Note_on_c, 9, 59, 48
4, 453141, Note_on_c, 9, 36, 0
4, 453287, Note_on_c, 9, 59, 0
4, 453788, Note_on_c, 9, 59, 67
4, 454080, Note_on_c, 9, 44, 45
4, 454083, Note_on_c, 9, 59, 0
4, 454115, Note_on_c, 9, 59, 54
4, 454273, Note_on_c, 9, 59, 0
4, 454303, Note_on_c, 9, 44, 0
4, 454758, Note_on_c, 9, 59, 31
4, 454839, Note_on_c, 9, 59, 0
4, 455152, Note_on_c, 9, 59, 68
4, 455177, Note_on_c, 9, 53, 55
4, 455603, Note_on_c, 9, 59, 0
4, 455634, Note_on_c, 9, 53, 0
4, 456000, Note_on_c, 9, 44, 40
4, 456000, Note_on_c, 9, 44, 37
4, 456071, Note_on_c, 9, 59, 33
4, 456098, Note_on_c, 9, 38, 16
4, 456114, Note_on_c, 9, 44, 0
4, 456137, Note_on_c, 9, 59, 60
4, 456246, Note_on_c, 9, 59, 0
4, 456312, Note_on_c, 9, 44, 0
4, 456314, Note_on_c, 9, 59, 0
4, 456322, Note_on_c, 9, 38, 0
4, 456687, Note_on_c, 9, 59, 76
4, 456703, Note_on_c, 9, 38, 26
4, 456703, Note_on_c, 9, 53, 63
4, 456837, Note_on_c, 9, 38, 0
4, 457092, Note_on_c, 9, 53, 0
4, 457113, Note_on_c, 9, 59, 0
4, 457704, Note_on_c, 9, 59, 26
4, 457713, Note_on_c, 9, 36, 34
4, 457814, Note_on_c, 9, 36, 0
4, 457832, Note_on_c, 9, 59, 0
4, 457920, Note_on_c, 9, 44, 39
4, 457980, Note_on_c, 9, 59, 52
4, 458053, Note_on_c, 9, 59, 68
4, 458071, Note_on_c, 9, 59, 0
4, 458087, Note_on_c, 9, 53, 59
4, 458134, Note_on_c, 9, 44, 0
4, 458340, Note_on_c, 9, 53, 0
4, 458419, Note_on_c, 9, 59, 0
4, 458645, Note_on_c, 9, 59, 46
4, 458860, Note_on_c, 9, 59, 0
4, 459026, Note_on_c, 9, 59, 31
4, 459382, Note_on_c, 9, 59, 0
4, 459583, Note_on_c, 9, 59, 70
4, 459691, Note_on_c, 9, 53, 37
4, 459778, Note_on_c, 9, 53, 0
4, 459801, Note_on_c, 9, 59, 0
4, 459831, Note_on_c, 9, 59, 60
4, 459840, Note_on_c, 9, 44, 43
4, 459846, Note_on_c, 9, 36, 32
4, 459914, Note_on_c, 9, 59, 0
4, 459975, Note_on_c, 9, 36, 0
4, 460025, Note_on_c, 9, 44, 0
4, 460493, Note_on_c, 9, 36, 39
4, 460605, Note_on_c, 9, 36, 0
4, 460919, Note_on_c, 9, 59, 66
4, 460959, Note_on_c, 9, 53, 53
4, 461281, Note_on_c, 9, 53, 0
4, 461362, Note_on_c, 9, 59, 0
4, 461760, Note_on_c, 9, 44, 46
4, 461794, Note_on_c, 9, 59, 58
4, 461865, Note_on_c, 9, 59, 0
4, 461926, Note_on_c, 9, 59, 35
4, 461953, Note_on_c, 9, 44, 0
4, 462137, Note_on_c, 9, 59, 0
4, 462464, Note_on_c, 9, 59, 76
4, 462484, Note_on_c, 9, 53, 65
4, 462708, Note_on_c, 9, 53, 0
4, 462827, Note_on_c, 9, 59, 0
4, 463382, Note_on_c, 9, 53, 82
4, 463413, Note_on_c, 9, 36, 65
4, 463456, Note_on_c, 9, 38, 45
4, 463573, Note_on_c, 9, 36, 0
4, 463618, Note_on_c, 9, 38, 0
4, 464319, Note_on_c, 9, 36, 56
4, 464386, Note_on_c, 9, 38, 37
4, 464434, Note_on_c, 9, 36, 0
4, 464444, Note_on_c, 9, 51, 72
4, 464464, Note_on_c, 9, 38, 0
4, 464496, Note_on_c, 9, 53, 0
4, 464603, Note_on_c, 9, 51, 0
4, 464654, Note_on_c, 9, 59, 48
4, 464744, Note_on_c, 9, 59, 0
4, 464753, Note_on_c, 9, 57, 58
4, 464762, Note_on_c, 9, 36, 58
4, 464762, Note_on_c, 9, 51, 60
4, 465013, Note_on_c, 9, 57, 0
4, 465239, Note_on_c, 9, 36, 0
4, 465307, Note_on_c, 9, 51, 0
4, 465685, Note_on_c, 9, 51, 64
4, 466283, Note_on_c, 9, 51, 0
4, 466639, Note_on_c, 9, 51, 61
4, 467226, Note_on_c, 9, 51, 0
4, 467596, Note_on_c, 9, 51, 63
4, 468031, Note_on_c, 9, 51, 0
4, 468321, Note_on_c, 9, 51, 54
4, 468418, Note_on_c, 9, 51, 0
4, 468620, Note_on_c, 9, 51, 52
4, 469186, Note_on_c, 9, 51, 0
4, 469440, Note_on_c, 9, 44, 46
4, 469562, Note_on_c, 9, 53, 77
4, 469646, Note_on_c, 9, 44, 0
4, 470042, Note_on_c, 9, 53, 0
4, 470203, Note_on_c, 9, 51, 35
4, 470279, Note_on_c, 9, 51, 0
4, 470508, Note_on_c, 9, 51, 39
4, 471023, Note_on_c, 9, 51, 0
4, 471360, Note_on_c, 9, 44, 44
4, 471391, Note_on_c, 9, 51, 58
4, 471591, Note_on_c, 9, 44, 0
4, 471906, Note_on_c, 9, 51, 0
4, 472141, Note_on_c, 9, 51, 32
4, 472215, Note_on_c, 9, 51, 0
4, 472345, Note_on_c, 9, 38, 23
4, 472351, Note_on_c, 9, 51, 67
4, 472710, Note_on_c, 9, 51, 0
4, 472884, Note_on_c, 9, 38, 0
4, 473276, Note_on_c, 9, 38, 23
4, 473276, Note_on_c, 9, 51, 64
4, 473280, Note_on_c, 9, 44, 48
4, 473502, Note_on_c, 9, 44, 0
4, 473837, Note_on_c, 9, 51, 0
4, 473908, Note_on_c, 9, 38, 0
4, 474049, Note_on_c, 9, 51, 25
4, 474126, Note_on_c, 9, 51, 0
4, 474309, Note_on_c, 9, 51, 65
4, 474827, Note_on_c, 9, 51, 0
4, 475181, Note_on_c, 9, 46, 37
4, 475241, Note_on_c, 9, 51, 77
4, 475326, Note_on_c, 9, 36, 48
4, 475447, Note_on_c, 9, 36, 0
4, 475462, Note_on_c, 9, 46, 0
4, 475647, Note_on_c, 9, 51, 0
4, 475965, Note_on_c, 9, 36, 40
4, 476162, Note_on_c, 9, 36, 0
4, 476200, Note_on_c, 9, 51, 67
4, 476605, Note_on_c, 9, 51, 0
4, 476894, Note_on_c, 9, 51, 49
4, 476975, Note_on_c, 9, 51, 0
4, 477120, Note_on_c, 9, 44, 48
4, 477188, Note_on_c, 9, 51, 52
4, 477378, Note_on_c, 9, 44, 0
4, 477777, Note_on_c, 9, 51, 0
4, 478135, Note_on_c, 9, 51, 67
4, 478585, Note_on_c, 9, 51, 0
4, 479040, Note_on_c, 9, 44, 38
4, 479065, Note_on_c, 9, 51, 61
4, 479167, Note_on_c, 9, 44, 0
4, 479463, Note_on_c, 9, 51, 0
4, 479759, Note_on_c, 9, 51, 39
4, 479838, Note_on_c, 9, 51, 0
4, 479996, Note_on_c, 9, 51, 55
4, 480612, Note_on_c, 9, 51, 0
4, 480668, Note_on_c, 9, 36, 42
4, 480754, Note_on_c, 9, 36, 0
4, 480964, Note_on_c, 9, 51, 68
4, 481034, Note_on_c, 9, 36, 24
4, 481255, Note_on_c, 9, 36, 0
4, 481432, Note_on_c, 9, 51, 0
4, 481679, Note_on_c, 9, 51, 32
4, 481755, Note_on_c, 9, 51, 0
4, 481896, Note_on_c, 9, 51, 56
4, 482554, Note_on_c, 9, 51, 0
4, 482880, Note_on_c, 9, 44, 52
4, 482911, Note_on_c, 9, 51, 68
4, 483129, Note_on_c, 9, 44, 0
4, 483305, Note_on_c, 9, 51, 0
4, 483612, Note_on_c, 9, 51, 51
4, 483688, Note_on_c, 9, 51, 0
4, 483892, Note_on_c, 9, 51, 49
4, 484434, Note_on_c, 9, 51, 0
4, 484577, Note_on_c, 9, 53, 71
4, 484800, Note_on_c, 9, 44, 52
4, 484857, Note_on_c, 9, 53, 0
4, 484907, Note_on_c, 9, 51, 47
4, 484998, Note_on_c, 9, 44, 0
4, 485487, Note_on_c, 9, 51, 0
4, 485776, Note_on_c, 9, 51, 58
4, 486401, Note_on_c, 9, 51, 0
4, 486752, Note_on_c, 9, 51, 62
4, 487158, Note_on_c, 9, 51, 0
4, 487368, Note_on_c, 9, 38, 22
4, 487451, Note_on_c, 9, 51, 44
4, 487518, Note_on_c, 9, 38, 0
4, 487529, Note_on_c, 9, 51, 0
4, 487695, Note_on_c, 9, 51, 52
4, 488316, Note_on_c, 9, 51, 0
4, 488632, Note_on_c, 9, 51, 65
4, 488640, Note_on_c, 9, 44, 57
4, 488838, Note_on_c, 9, 44, 0
4, 489037, Note_on_c, 9, 51, 0
4, 489299, Note_on_c, 9, 36, 22
4, 489375, Note_on_c, 9, 36, 0
4, 489608, Note_on_c, 9, 51, 59
4, 489620, Note_on_c, 9, 38, 16
4, 489991, Note_on_c, 9, 38, 0
4, 490041, Note_on_c, 9, 51, 0
4, 490522, Note_on_c, 9, 51, 63
4, 490988, Note_on_c, 9, 51, 0
4, 491199, Note_on_c, 9, 51, 38
4, 491252, Note_on_c, 9, 36, 29
4, 491300, Note_on_c, 9, 51, 0
4, 491327, Note_on_c, 9, 36, 0
4, 491490, Note_on_c, 9, 51, 49
4, 492054, Note_on_c, 9, 51, 0
4, 492462, Note_on_c, 9, 51, 68
4, 492480, Note_on_c, 9, 44, 40
4, 492569, Note_on_c, 9, 44, 0
4, 492850, Note_on_c, 9, 51, 0
4, 493168, Note_on_c, 9, 51, 33
4, 493244, Note_on_c, 9, 51, 0
4, 493403, Note_on_c, 9, 51, 45
4, 493564, Note_on_c, 9, 38, 12
4, 493737, Note_on_c, 9, 38, 0
4, 493963, Note_on_c, 9, 51, 0
4, 494039, Note_on_c, 9, 38, 32
4, 494202, Note_on_c, 9, 38, 0
4, 494384, Note_on_c, 9, 51, 71
4, 494415, Note_on_c, 9, 36, 33
4, 494695, Note_on_c, 9, 36, 0
4, 494872, Note_on_c, 9, 51, 0
4, 495036, Note_on_c, 9, 36, 48
4, 495222, Note_on_c, 9, 36, 0
4, 495347, Note_on_c, 9, 51, 53
4, 495479, Note_on_c, 9, 36, 45
4, 495652, Note_on_c, 9, 36, 0
4, 495835, Note_on_c, 9, 51, 0
4, 496320, Note_on_c, 9, 44, 49
4, 496351, Note_on_c, 9, 51, 64
4, 496449, Note_on_c, 9, 44, 0
4, 496722, Note_on_c, 9, 51, 0
4, 497050, Note_on_c, 9, 51, 39
4, 497123, Note_on_c, 9, 51, 0
4, 497316, Note_on_c, 9, 51, 48
4, 497562, Note_on_c, 9, 51, 0
4, 497948, Note_on_c, 9, 38, 32
4, 498040, Note_on_c, 9, 38, 0
4, 498240, Note_on_c, 9, 44, 47
4, 498257, Note_on_c, 9, 51, 70
4, 498262, Note_on_c, 9, 36, 24
4, 498396, Note_on_c, 9, 44, 0
4, 498564, Note_on_c, 9, 36, 0
4, 498763, Note_on_c, 9, 51, 0
4, 498936, Note_on_c, 9, 36, 47
4, 499178, Note_on_c, 9, 36, 0
4, 499267, Note_on_c, 9, 51, 64
4, 499740, Note_on_c, 9, 51, 0
4, 500160, Note_on_c, 9, 44, 29
4, 500224, Note_on_c, 9, 51, 72
4, 500310, Note_on_c, 9, 44, 0
4, 500611, Note_on_c, 9, 51, 0
4, 500880, Note_on_c, 9, 51, 40
4, 500956, Note_on_c, 9, 51, 0
4, 501147, Note_on_c, 9, 51, 53
4, 501790, Note_on_c, 9, 51, 0
4, 502080, Note_on_c, 9, 44, 49
4, 502132, Note_on_c, 9, 51, 77
4, 502286, Note_on_c, 9, 44, 0
4, 502730, Note_on_c, 9, 51, 0
4, 503118, Note_on_c, 9, 51, 77
4, 503564, Note_on_c, 9, 51, 0
4, 503828, Note_on_c, 9, 51, 40
4, 503918, Note_on_c, 9, 51, 0
4, 504000, Note_on_c, 9, 44, 44
4, 504094, Note_on_c, 9, 51, 49
4, 504181, Note_on_c, 9, 44, 0
4, 504724, Note_on_c, 9, 51, 0
4, 505076, Note_on_c, 9, 51, 69
4, 505510, Note_on_c, 9, 51, 0
4, 505748, Note_on_c, 9, 53, 65
4, 505750, Note_on_c, 9, 51, 45
4, 505920, Note_on_c, 9, 44, 37
4, 506080, Note_on_c, 9, 44, 0
4, 506691, Note_on_c, 9, 51, 0
4, 506783, Note_on_c, 9, 53, 0
4, 507002, Note_on_c, 9, 51, 58
4, 507362, Note_on_c, 9, 51, 0
4, 507629, Note_on_c, 9, 38, 33
4, 507642, Note_on_c, 9, 51, 64
4, 507645, Note_on_c, 9, 53, 63
4, 507782, Note_on_c, 9, 38, 0
4, 507840, Note_on_c, 9, 44, 32
4, 507950, Note_on_c, 9, 36, 34
4, 508011, Note_on_c, 9, 44, 0
4, 508306, Note_on_c, 9, 36, 0
4, 508339, Note_on_c, 9, 51, 0
4, 508429, Note_on_c, 9, 53, 0
4, 508584, Note_on_c, 9, 51, 40
4, 508586, Note_on_c, 9, 36, 52
4, 508722, Note_on_c, 9, 51, 0
4, 508821, Note_on_c, 9, 36, 0
4, 508940, Note_on_c, 9, 51, 64
4, 508946, Note_on_c, 9, 53, 66
4, 508967, Note_on_c, 9, 36, 44
4, 509446, Note_on_c, 9, 36, 0
4, 509625, Note_on_c, 9, 51, 0
4, 509629, Note_on_c, 9, 53, 0
4, 509760, Note_on_c, 9, 44, 33
4, 509905, Note_on_c, 9, 51, 43
4, 509956, Note_on_c, 9, 44, 0
4, 510169, Note_on_c, 9, 51, 0
4, 510501, Note_on_c, 9, 51, 74
4, 511247, Note_on_c, 9, 51, 0
4, 511475, Note_on_c, 9, 51, 34
4, 511574, Note_on_c, 9, 51, 0
4, 511680, Note_on_c, 9, 44, 59
4, 511767, Note_on_c, 9, 51, 50
4, 511905, Note_on_c, 9, 44, 0
4, 512387, Note_on_c, 9, 51, 0
4, 512743, Note_on_c, 9, 51, 69
4, 513339, Note_on_c, 9, 51, 0
4, 513600, Note_on_c, 9, 44, 61
4, 513688, Note_on_c, 9, 51, 56
4, 513776, Note_on_c, 9, 44, 0
4, 514051, Note_on_c, 9, 51, 0
4, 514394, Note_on_c, 9, 51, 46
4, 514474, Note_on_c, 9, 51, 0
4, 514649, Note_on_c, 9, 51, 48
4, 515279, Note_on_c, 9, 51, 0
4, 515633, Note_on_c, 9, 51, 67
4, 516179, Note_on_c, 9, 51, 0
4, 516334, Note_on_c, 9, 51, 47
4, 516417, Note_on_c, 9, 51, 0
4, 516643, Note_on_c, 9, 51, 53
4, 517108, Note_on_c, 9, 51, 0
4, 517440, Note_on_c, 9, 44, 57
4, 517613, Note_on_c, 9, 51, 83
4, 517633, Note_on_c, 9, 44, 0
4, 518471, Note_on_c, 9, 51, 0
4, 518625, Note_on_c, 9, 51, 37
4, 518702, Note_on_c, 9, 51, 0
4, 519237, Note_on_c, 9, 51, 71
4, 519360, Note_on_c, 9, 44, 63
4, 519578, Note_on_c, 9, 44, 0
4, 519956, Note_on_c, 9, 51, 0
4, 520570, Note_on_c, 9, 51, 69
4, 521192, Note_on_c, 9, 51, 0
4, 521280, Note_on_c, 9, 44, 60
4, 521455, Note_on_c, 9, 37, 57
4, 521470, Note_on_c, 9, 51, 65
4, 521501, Note_on_c, 9, 44, 0
4, 521799, Note_on_c, 9, 51, 0
4, 521880, Note_on_c, 9, 37, 0
4, 522048, Note_on_c, 9, 51, 72
4, 522261, Note_on_c, 9, 51, 0
4, 523036, Note_on_c, 9, 51, 64
4, 523191, Note_on_c, 9, 51, 0
4, 523200, Note_on_c, 9, 44, 60
4, 523359, Note_on_c, 9, 37, 68
4, 523372, Note_on_c, 9, 51, 52
4, 523395, Note_on_c, 9, 44, 0
4, 523826, Note_on_c, 9, 37, 0
4, 524019, Note_on_c, 9, 59, 96
4, 524180, Note_on_c, 9, 51, 0
4, 524931, Note_on_c, 9, 59, 0
4, 525014, Note_on_c, 9, 51, 52
4, 525166, Note_on_c, 9, 51, 0
4, 525203, Note_on_c, 9, 46, 52
4, 525235, Note_on_c, 9, 37, 64
4, 525334, Note_on_c, 9, 51, 59
4, 525401, Note_on_c, 9, 46, 0
4, 525657, Note_on_c, 9, 37, 0
4, 525773, Note_on_c, 9, 51, 0
4, 525930, Note_on_c, 9, 51, 69
4, 526564, Note_on_c, 9, 51, 0
4, 526929, Note_on_c, 9, 36, 43
4, 526954, Note_on_c, 9, 51, 55
4, 527012, Note_on_c, 9, 36, 0
4, 527040, Note_on_c, 9, 44, 54
4, 527095, Note_on_c, 9, 51, 0
4, 527182, Note_on_c, 9, 37, 71
4, 527194, Note_on_c, 9, 44, 0
4, 527288, Note_on_c, 9, 51, 46
4, 527619, Note_on_c, 9, 51, 0
4, 527729, Note_on_c, 9, 37, 0
4, 527870, Note_on_c, 9, 51, 93
4, 528358, Note_on_c, 9, 51, 0
4, 528775, Note_on_c, 9, 51, 42
4, 529039, Note_on_c, 9, 37, 67
4, 529062, Note_on_c, 9, 51, 0
4, 529086, Note_on_c, 9, 59, 73
4, 529512, Note_on_c, 9, 59, 0
4, 529633, Note_on_c, 9, 37, 0
4, 529698, Note_on_c, 9, 59, 84
4, 529725, Note_on_c, 9, 51, 74
4, 530224, Note_on_c, 9, 51, 0
4, 530421, Note_on_c, 9, 59, 0
4, 530614, Note_on_c, 9, 51, 48
4, 530692, Note_on_c, 9, 51, 0
4, 530880, Note_on_c, 9, 44, 60
4, 530918, Note_on_c, 9, 59, 60
4, 530938, Note_on_c, 9, 51, 39
4, 530968, Note_on_c, 9, 37, 69
4, 531063, Note_on_c, 9, 44, 0
4, 531373, Note_on_c, 9, 51, 0
4, 531443, Note_on_c, 9, 59, 0
4, 531496, Note_on_c, 9, 37, 0
4, 531604, Note_on_c, 9, 57, 87
4, 531633, Note_on_c, 9, 51, 83
4, 532103, Note_on_c, 9, 57, 0
4, 532287, Note_on_c, 9, 51, 0
4, 532569, Note_on_c, 9, 51, 64
4, 532717, Note_on_c, 9, 51, 0
4, 532800, Note_on_c, 9, 44, 63
4, 532901, Note_on_c, 9, 38, 25
4, 532939, Note_on_c, 9, 51, 46
4, 532998, Note_on_c, 9, 44, 0
4, 533228, Note_on_c, 9, 38, 0
4, 533313, Note_on_c, 9, 51, 0
4, 533506, Note_on_c, 9, 38, 42
4, 533591, Note_on_c, 9, 51, 91
4, 533732, Note_on_c, 9, 38, 0
4, 533902, Note_on_c, 9, 38, 38
4, 534287, Note_on_c, 9, 38, 0
4, 534437, Note_on_c, 9, 51, 0
4, 534487, Note_on_c, 9, 36, 62
4, 534720, Note_on_c, 9, 44, 55
4, 534841, Note_on_c, 9, 36, 0
4, 534872, Note_on_c, 9, 51, 38
4, 534895, Note_on_c, 9, 44, 0
4, 535127, Note_on_c, 9, 51, 0
4, 535564, Note_on_c, 9, 51, 48
4, 535645, Note_on_c, 9, 51, 0
4, 535844, Note_on_c, 9, 51, 50
4, 535916, Note_on_c, 9, 36, 53
4, 536196, Note_on_c, 9, 36, 0
4, 536339, Note_on_c, 9, 51, 0
4, 536640, Note_on_c, 9, 44, 59
4, 536778, Note_on_c, 9, 51, 67
4, 536811, Note_on_c, 9, 44, 0
4, 537266, Note_on_c, 9, 51, 0
4, 537508, Note_on_c, 9, 51, 36
4, 537589, Note_on_c, 9, 51, 0
4, 537733, Note_on_c, 9, 51, 57
4, 538353, Note_on_c, 9, 51, 0
4, 538560, Note_on_c, 9, 44, 60
4, 538700, Note_on_c, 9, 51, 72
4, 538734, Note_on_c, 9, 44, 0
4, 539113, Note_on_c, 9, 51, 0
4, 539648, Note_on_c, 9, 51, 57
4, 539686, Note_on_c, 9, 38, 48
4, 540172, Note_on_c, 9, 51, 0
4, 540174, Note_on_c, 9, 38, 0
4, 540364, Note_on_c, 9, 38, 42
4, 540480, Note_on_c, 9, 44, 60
4, 540571, Note_on_c, 9, 38, 0
4, 540651, Note_on_c, 9, 44, 0
4, 540665, Note_on_c, 9, 51, 72
4, 541115, Note_on_c, 9, 51, 0
4, 541314, Note_on_c, 9, 38, 42
4, 541409, Note_on_c, 9, 51, 29
4, 541480, Note_on_c, 9, 38, 0
4, 541485, Note_on_c, 9, 51, 0
4, 541590, Note_on_c, 9, 57, 78
4, 541621, Note_on_c, 9, 51, 52
4, 541626, Note_on_c, 9, 36, 78
4, 542156, Note_on_c, 9, 51, 0
4, 542400, Note_on_c, 9, 44, 43
4, 542548, Note_on_c, 9, 51, 73
4, 542562, Note_on_c, 9, 44, 0
4, 543089, Note_on_c, 9, 51, 0
4, 543168, Note_on_c, 9, 36, 52
4, 543299, Note_on_c, 9, 36, 0
4, 543521, Note_on_c, 9, 51, 62
4, 543570, Note_on_c, 9, 36, 29
4, 543674, Note_on_c, 9, 36, 0
4, 543906, Note_on_c, 9, 51, 0
4, 544150, Note_on_c, 9, 51, 57
4, 544168, Note_on_c, 9, 53, 62
4, 544320, Note_on_c, 9, 44, 47
4, 544508, Note_on_c, 9, 44, 0
4, 544686, Note_on_c, 9, 57, 0
4, 544972, Note_on_c, 9, 51, 0
4, 545055, Note_on_c, 9, 53, 0
4, 545066, Note_on_c, 9, 36, 0
4, 545447, Note_on_c, 9, 51, 51
4, 545808, Note_on_c, 9, 51, 0
4, 546061, Note_on_c, 9, 51, 62
4, 546068, Note_on_c, 9, 53, 64
4, 546240, Note_on_c, 9, 44, 45
4, 546419, Note_on_c, 9, 44, 0
4, 546977, Note_on_c, 9, 53, 0
4, 547035, Note_on_c, 9, 36, 69
4, 547042, Note_on_c, 9, 51, 0
4, 547189, Note_on_c, 9, 36, 0
4, 547403, Note_on_c, 9, 51, 45
4, 547799, Note_on_c, 9, 51, 0
4, 548160, Note_on_c, 9, 44, 56
4, 548321, Note_on_c, 9, 51, 55
4, 548347, Note_on_c, 9, 44, 0
4, 548859, Note_on_c, 9, 51, 0
4, 549318, Note_on_c, 9, 51, 52
4, 549916, Note_on_c, 9, 51, 0
4, 550080, Note_on_c, 9, 44, 52
4, 550274, Note_on_c, 9, 51, 64
4, 550290, Note_on_c, 9, 44, 0
4, 550680, Note_on_c, 9, 51, 0
4, 550993, Note_on_c, 9, 51, 34
4, 551067, Note_on_c, 9, 51, 0
4, 551235, Note_on_c, 9, 51, 48
4, 551260, Note_on_c, 9, 38, 14
4, 551401, Note_on_c, 9, 38, 0
4, 551878, Note_on_c, 9, 51, 0
4, 552000, Note_on_c, 9, 44, 38
4, 552134, Note_on_c, 9, 44, 0
4, 552167, Note_on_c, 9, 38, 21
4, 552230, Note_on_c, 9, 51, 69
4, 552539, Note_on_c, 9, 38, 0
4, 552720, Note_on_c, 9, 51, 0
4, 552935, Note_on_c, 9, 51, 33
4, 553048, Note_on_c, 9, 51, 0
4, 553162, Note_on_c, 9, 36, 36
4, 553229, Note_on_c, 9, 51, 58
4, 553706, Note_on_c, 9, 36, 0
4, 553840, Note_on_c, 9, 51, 0
4, 553920, Note_on_c, 9, 44, 49
4, 554080, Note_on_c, 9, 44, 0
4, 554183, Note_on_c, 9, 51, 74
4, 554192, Note_on_c, 9, 36, 48
4, 554652, Note_on_c, 9, 36, 63
4, 554678, Note_on_c, 9, 36, 0
4, 554687, Note_on_c, 9, 51, 0
4, 554760, Note_on_c, 9, 36, 0
4, 554871, Note_on_c, 9, 51, 44
4, 554974, Note_on_c, 9, 51, 0
4, 555180, Note_on_c, 9, 51, 55
4, 555599, Note_on_c, 9, 51, 0
4, 555807, Note_on_c, 9, 51, 77
4, 555840, Note_on_c, 9, 44, 48
4, 555996, Note_on_c, 9, 44, 0
4, 556033, Note_on_c, 9, 38, 24
4, 556416, Note_on_c, 9, 38, 0
4, 556560, Note_on_c, 9, 51, 0
4, 556624, Note_on_c, 9, 36, 65
4, 556744, Note_on_c, 9, 51, 37
4, 556807, Note_on_c, 9, 36, 0
4, 556838, Note_on_c, 9, 51, 0
4, 556973, Note_on_c, 9, 36, 52
4, 557028, Note_on_c, 9, 38, 28
4, 557046, Note_on_c, 9, 51, 62
4, 557079, Note_on_c, 9, 36, 0
4, 557339, Note_on_c, 9, 38, 0
4, 557660, Note_on_c, 9, 51, 0
4, 557666, Note_on_c, 9, 36, 56
4, 557760, Note_on_c, 9, 44, 53
4, 557931, Note_on_c, 9, 36, 0
4, 557945, Note_on_c, 9, 44, 0
4, 557971, Note_on_c, 9, 51, 74
4, 558401, Note_on_c, 9, 51, 0
4, 558692, Note_on_c, 9, 51, 46
4, 558780, Note_on_c, 9, 51, 0
4, 558934, Note_on_c, 9, 51, 62
4, 559010, Note_on_c, 9, 36, 53
4, 559315, Note_on_c, 9, 36, 0
4, 559525, Note_on_c, 9, 51, 0
4, 559680, Note_on_c, 9, 44, 53
4, 559896, Note_on_c, 9, 44, 0
4, 559902, Note_on_c, 9, 51, 76
4, 560328, Note_on_c, 9, 51, 0
4, 560605, Note_on_c, 9, 51, 39
4, 560688, Note_on_c, 9, 51, 0
4, 560818, Note_on_c, 9, 51, 67
4, 561436, Note_on_c, 9, 51, 0
4, 561600, Note_on_c, 9, 44, 56
4, 561754, Note_on_c, 9, 44, 0
4, 561788, Note_on_c, 9, 51, 71
4, 562288, Note_on_c, 9, 51, 0
4, 562751, Note_on_c, 9, 51, 61
4, 563313, Note_on_c, 9, 51, 0
4, 563573, Note_on_c, 9, 38, 22
4, 563629, Note_on_c, 9, 46, 51
4, 563697, Note_on_c, 9, 51, 75
4, 563781, Note_on_c, 9, 46, 0
4, 563838, Note_on_c, 9, 38, 0
4, 564238, Note_on_c, 9, 51, 0
4, 564243, Note_on_c, 9, 36, 30
4, 564377, Note_on_c, 9, 36, 0
4, 564653, Note_on_c, 9, 51, 69
4, 565101, Note_on_c, 9, 51, 0
4, 565440, Note_on_c, 9, 44, 46
4, 565607, Note_on_c, 9, 51, 62
4, 565696, Note_on_c, 9, 44, 0
4, 566134, Note_on_c, 9, 51, 0
4, 566400, Note_on_c, 9, 44, 48
4, 566532, Note_on_c, 9, 51, 67
4, 566617, Note_on_c, 9, 44, 0
4, 566947, Note_on_c, 9, 51, 0
4, 567074, Note_on_c, 9, 38, 23
4, 567195, Note_on_c, 9, 51, 31
4, 567271, Note_on_c, 9, 51, 0
4, 567274, Note_on_c, 9, 38, 0
4, 567482, Note_on_c, 9, 51, 53
4, 567550, Note_on_c, 9, 36, 51
4, 567656, Note_on_c, 9, 36, 0
4, 567791, Note_on_c, 9, 38, 22
4, 567970, Note_on_c, 9, 51, 0
4, 568035, Note_on_c, 9, 38, 0
4, 568378, Note_on_c, 9, 36, 57
4, 568429, Note_on_c, 9, 51, 71
4, 568450, Note_on_c, 9, 36, 28
4, 568488, Note_on_c, 9, 36, 0
4, 568683, Note_on_c, 9, 36, 0
4, 568859, Note_on_c, 9, 51, 0
4, 569117, Note_on_c, 9, 36, 33
4, 569270, Note_on_c, 9, 36, 0
4, 569280, Note_on_c, 9, 44, 40
4, 569375, Note_on_c, 9, 51, 69
4, 569471, Note_on_c, 9, 44, 0
4, 569717, Note_on_c, 9, 51, 0
4, 570056, Note_on_c, 9, 51, 43
4, 570188, Note_on_c, 9, 51, 0
4, 570325, Note_on_c, 9, 51, 67
4, 570414, Note_on_c, 9, 36, 33
4, 570537, Note_on_c, 9, 36, 0
4, 570705, Note_on_c, 9, 51, 0
4, 571028, Note_on_c, 9, 51, 51
4, 571033, Note_on_c, 9, 53, 67
4, 571122, Note_on_c, 9, 51, 0
4, 571597, Note_on_c, 9, 53, 0
4, 571973, Note_on_c, 9, 51, 37
4, 572242, Note_on_c, 9, 51, 0
4, 572284, Note_on_c, 9, 53, 70
4, 572862, Note_on_c, 9, 53, 0
4, 573342, Note_on_c, 9, 53, 39
4, 573355, Note_on_c, 9, 38, 23
4, 573510, Note_on_c, 9, 38, 0
4, 573777, Note_on_c, 9, 53, 0
4, 574319, Note_on_c, 9, 53, 37
4, 574838, Note_on_c, 9, 53, 0
4, 575248, Note_on_c, 9, 53, 43
4, 576137, Note_on_c, 9, 53, 0
4, 576204, Note_on_c, 9, 59, 83
4, 577277, Note_on_c, 9, 59, 0
4, 577672, Note_on_c, 9, 59, 69
4, 578402, Note_on_c, 9, 59, 0
4, 578668, Note_on_c, 9, 53, 52
4, 578850, Note_on_c, 9, 53, 0
4, 579081, Note_on_c, 9, 53, 38
4, 579368, Note_on_c, 9, 53, 0
4, 579676, Note_on_c, 9, 53, 51
4, 579907, Note_on_c, 9, 53, 0
4, 580570, Note_on_c, 9, 53, 64
4, 580655, Note_on_c, 9, 53, 0
4, 580911, Note_on_c, 9, 59, 47
4, 581287, Note_on_c, 9, 59, 0
4, 581822, Note_on_c, 9, 59, 41
4, 582250, Note_on_c, 9, 59, 0
4, 582761, Note_on_c, 9, 59, 45
4, 583216, Note_on_c, 9, 59, 0
4, 583677, Note_on_c, 9, 59, 41
4, 583698, Note_on_c, 9, 59, 55
4, 584179, Note_on_c, 9, 59, 0
4, 584222, Note_on_c, 9, 59, 0
4, 584634, Note_on_c, 9, 59, 46
4, 585057, Note_on_c, 9, 59, 0
4, 585263, Note_on_c, 9, 59, 49
4, 585312, Note_on_c, 9, 59, 61
4, 585413, Note_on_c, 9, 59, 0
4, 585483, Note_on_c, 9, 59, 0
4, 586179, Note_on_c, 9, 53, 53
4, 586208, Note_on_c, 9, 38, 47
4, 586253, Note_on_c, 9, 53, 0
4, 586421, Note_on_c, 9, 38, 0
4, 586498, Note_on_c, 9, 59, 27
4, 586688, Note_on_c, 9, 36, 36
4, 586807, Note_on_c, 9, 36, 0
4, 586860, Note_on_c, 9, 59, 0
4, 587138, Note_on_c, 9, 59, 34
4, 587208, Note_on_c, 9, 36, 51
4, 587315, Note_on_c, 9, 36, 0
4, 587485, Note_on_c, 9, 59, 0
4, 587595, Note_on_c, 9, 36, 40
4, 587936, Note_on_c, 9, 36, 0
4, 588106, Note_on_c, 9, 59, 34
4, 588305, Note_on_c, 9, 59, 0
4, 588498, Note_on_c, 9, 59, 24
4, 588531, Note_on_c, 9, 36, 41
4, 588787, Note_on_c, 9, 36, 0
4, 588818, Note_on_c, 9, 59, 0
4, 589371, Note_on_c, 9, 59, 43
4, 589824, Note_on_c, 9, 59, 0
4, 590944, Note_on_c, 9, 59, 33
4, 591150, Note_on_c, 9, 59, 0
4, 591358, Note_on_c, 9, 59, 34
4, 591757, Note_on_c, 9, 59, 0
4, 591994, Note_on_c, 9, 59, 36
4, 592124, Note_on_c, 9, 59, 0
4, 592917, Note_on_c, 9, 59, 51
4, 593045, Note_on_c, 9, 59, 0
4, 593912, Note_on_c, 9, 59, 30
4, 593979, Note_on_c, 9, 36, 24
4, 594035, Note_on_c, 9, 59, 0
4, 594107, Note_on_c, 9, 36, 0
4, 594290, Note_on_c, 9, 59, 42
4, 594689, Note_on_c, 9, 59, 0
4, 594819, Note_on_c, 9, 38, 16
4, 594987, Note_on_c, 9, 38, 0
4, 595287, Note_on_c, 9, 36, 19
4, 595451, Note_on_c, 9, 36, 0
4, 595838, Note_on_c, 9, 59, 31
4, 595964, Note_on_c, 9, 59, 0
4, 596203, Note_on_c, 9, 36, 26
4, 596226, Note_on_c, 9, 59, 25
4, 596447, Note_on_c, 9, 36, 0
4, 596591, Note_on_c, 9, 59, 0
4, 596828, Note_on_c, 9, 59, 35
4, 596943, Note_on_c, 9, 59, 0
4, 597773, Note_on_c, 9, 59, 22
4, 597870, Note_on_c, 9, 59, 0
4, 598669, Note_on_c, 9, 37, 32
4, 598692, Note_on_c, 9, 59, 30
4, 598791, Note_on_c, 9, 37, 0
4, 598860, Note_on_c, 9, 59, 0
4, 599097, Note_on_c, 9, 37, 23
4, 599364, Note_on_c, 9, 37, 0
4, 599597, Note_on_c, 9, 59, 26
4, 599680, Note_on_c, 9, 36, 30
4, 599700, Note_on_c, 9, 59, 0
4, 599879, Note_on_c, 9, 36, 0
4, 599960, Note_on_c, 9, 59, 31
4, 600240, Note_on_c, 9, 59, 0
4, 600603, Note_on_c, 9, 59, 30
4, 600629, Note_on_c, 9, 37, 25
4, 600732, Note_on_c, 9, 59, 0
4, 600793, Note_on_c, 9, 37, 0
4, 601035, Note_on_c, 9, 37, 23
4, 601295, Note_on_c, 9, 37, 0
4, 601588, Note_on_c, 9, 59, 35
4, 601702, Note_on_c, 9, 36, 24
4, 601759, Note_on_c, 9, 59, 0
4, 601839, Note_on_c, 9, 36, 0
4, 602556, Note_on_c, 9, 59, 27
4, 602829, Note_on_c, 9, 59, 0
4, 603896, Note_on_c, 9, 59, 25
4, 604211, Note_on_c, 9, 59, 0
4, 604491, Note_on_c, 9, 37, 27
4, 604646, Note_on_c, 9, 37, 0
4, 605437, Note_on_c, 9, 59, 35
4, 605504, Note_on_c, 9, 37, 21
4, 605665, Note_on_c, 9, 59, 0
4, 605674, Note_on_c, 9, 37, 0
4, 606442, Note_on_c, 9, 37, 25
4, 606599, Note_on_c, 9, 37, 0
4, 606770, Note_on_c, 9, 59, 36
4, 607099, Note_on_c, 9, 59, 0
4, 608360, Note_on_c, 9, 59, 24
4, 608568, Note_on_c, 9, 59, 0
4, 609686, Note_on_c, 9, 59, 31
4, 610004, Note_on_c, 9, 59, 0
4, 611281, Note_on_c, 9, 59, 28
4, 611382, Note_on_c, 9, 59, 0
4, 612654, Note_on_c, 9, 59, 24
4, 612887, Note_on_c, 9, 59, 0
4, 618287, Note_on_c, 9, 59, 20
4, 618509, Note_on_c, 9, 59, 0
4, 618509, End_track
0, 0, End_of_file
