0, 0, Header, 1, 6, 120
1, 0, Start_track
1, 0, Title_t, "It Might as Well be Spring"
1, 0, Text_t, "dougmck@pipeline.com.au\012"
1, 0, Text_t, "First Chorus Rubato\012"
1, 0, Text_t, "Then 3 choruses of jazz trio.\012"
1, 0, System_exclusive, 10, 65, 16, 66, 18, 64, 0, 127, 0, 65, 247
1, 0, Time_signature, 4, 2, 24, 8
1, 0, Key_signature, 1, "major"
1, 0, Tempo, 555556
1, 480, Marker_t, "G/D pedal"
1, 1396, Marker_t, "Introduction - 2 chords/scales over D pedal"
1, 2286, Marker_t, "Ab/D bass - uses Eb Major scale -i.e D Locrian"
1, 4028, Marker_t, "G/D - G Major scale"
1, 5217, Marker_t, "Ab/D"
1, 6721, Marker_t, "Melody starts here"
1, 9455, Marker_t, "Internal descendingChromatic line begins on 3rd of G Major 7"
1, 10089, Marker_t, "Chromatic line Finishes on root of next chord (Dm7)"
1, 11568, Marker_t, "Arpeggiated bass notes - leave out some - wide intervals cover more of the piano"
1, 13391, Marker_t, "Bm7"
1, 13774, Marker_t, "F9 - approaching the next dominant chord in the cycle - E7"
1, 14129, Marker_t, "E7"
1, 14563, Marker_t, "Bb7 approaching next dominant chpord  - A7 alt"
1, 15376, Marker_t, "A7 alt instead of Am7"
1, 16020, Marker_t, "D7"
1, 22080, Marker_t, "LH plays descending Chromatic scale begin on 3rd of G Maj 7 - RH plays Melody"
1, 23245, Marker_t, "Finishes on low Db before playing the root of the next chord C"
1, 27646, Marker_t, "Gospel type cadence"
1, 30242, Marker_t, "On Dm7 chord - Block chords - Dm7 on Chord tones, diminished chords on non chord tones"
1, 39928, Marker_t, "LH begins trill on 5th and 6th"
1, 40425, Marker_t, "RH plays melody with discordant lower tone"
1, 59464, Marker_t, "Bass and Drums in"
1, 59685, Marker_t, "Style like Oscar Peterson/Gene Harris"
1, 60000, Marker_t, "'Bluesy' style - much based on the blues scale G,A,Bb,B,D,E"
1, 61124, Marker_t, "Lots of sliding off black onto white chord tones "
1, 62811, Marker_t, "D/D, Db/D,C/D, B/D played in a drum like fashion with both hands "
1, 66720, Marker_t, "6ths - in key of G, all chord tones have a Black note beneath each"
1, 67200, Marker_t, "RH plays block chords - all diatonic (white notes) on this C6  chord"
1, 68879, Marker_t, "On Ab dim, an easy run to play - use 3rd finger on Black notes"
1, 85167, Marker_t, "Chromatic connections to chord tones of Ab dim7"
1, 88076, Marker_t, "On Abdim Diminished (Whole step 1/2 step scale"
1, 90928, Marker_t, "Locked hands style "
1, 105600, Marker_t, "'Red Garland' type chords - RH plays octaves with internal perfect 5th."
1, 105949, Marker_t, "LH plays rootless LH voicing"
1, 105949, End_track
2, 0, Start_track
2, 0, Title_t, "Piano"
2, 0, Control_c, 0, 64, 127
2, 592, Note_on_c, 0, 50, 38
2, 892, Note_on_c, 0, 60, 39
2, 1002, Note_on_c, 0, 60, 0
2, 1008, Note_on_c, 0, 62, 53
2, 1079, Note_on_c, 0, 62, 0
2, 1087, Note_on_c, 0, 67, 75
2, 1138, Note_on_c, 0, 67, 0
2, 1159, Note_on_c, 0, 69, 82
2, 1208, Note_on_c, 0, 69, 0
2, 1214, Note_on_c, 0, 71, 76
2, 1278, Note_on_c, 0, 67, 57
2, 1279, Note_on_c, 0, 59, 33
2, 1284, Note_on_c, 0, 62, 35
2, 1288, Control_c, 0, 64, 0
2, 1301, Note_on_c, 0, 71, 0
2, 1336, Control_c, 0, 64, 127
2, 1348, Note_on_c, 0, 74, 54
2, 1396, Note_on_c, 0, 50, 0
2, 1400, Note_on_c, 0, 62, 0
2, 1428, Note_on_c, 0, 72, 34
2, 1431, Note_on_c, 0, 50, 32
2, 1445, Note_on_c, 0, 74, 0
2, 1447, Control_c, 0, 64, 0
2, 1464, Note_on_c, 0, 67, 0
2, 1475, Control_c, 0, 64, 127
2, 1527, Note_on_c, 0, 71, 50
2, 1614, Note_on_c, 0, 72, 0
2, 1615, Note_on_c, 0, 67, 44
2, 1621, Note_on_c, 0, 60, 37
2, 1628, Note_on_c, 0, 59, 0
2, 1629, Control_c, 0, 64, 0
2, 1646, Control_c, 0, 64, 127
2, 1714, Note_on_c, 0, 62, 44
2, 1785, Note_on_c, 0, 50, 0
2, 1799, Note_on_c, 0, 62, 0
2, 1807, Note_on_c, 0, 60, 0
2, 1817, Note_on_c, 0, 67, 0
2, 1822, Note_on_c, 0, 50, 35
2, 1822, Note_on_c, 0, 62, 48
2, 1949, Control_c, 0, 64, 0
2, 1955, Note_on_c, 0, 59, 33
2, 1977, Control_c, 0, 64, 127
2, 2069, Note_on_c, 0, 71, 0
2, 2073, Note_on_c, 0, 67, 38
2, 2089, Note_on_c, 0, 62, 0
2, 2171, Note_on_c, 0, 67, 0
2, 2184, Note_on_c, 0, 76, 57
2, 2225, Note_on_c, 0, 59, 0
2, 2242, Note_on_c, 0, 50, 0
2, 2349, Note_on_c, 0, 50, 16
2, 2353, Note_on_c, 0, 51, 28
2, 2355, Note_on_c, 0, 74, 47
2, 2358, Note_on_c, 0, 60, 30
2, 2360, Note_on_c, 0, 56, 31
2, 2369, Control_c, 0, 64, 0
2, 2382, Note_on_c, 0, 76, 0
2, 2432, Control_c, 0, 64, 127
2, 2468, Note_on_c, 0, 68, 30
2, 2530, Note_on_c, 0, 60, 0
2, 2554, Note_on_c, 0, 68, 0
2, 2554, Note_on_c, 0, 67, 38
2, 2559, Note_on_c, 0, 74, 0
2, 2645, Note_on_c, 0, 67, 0
2, 2654, Note_on_c, 0, 75, 60
2, 2722, Note_on_c, 0, 72, 47
2, 2728, Note_on_c, 0, 75, 0
2, 2742, Note_on_c, 0, 60, 17
2, 2760, Note_on_c, 0, 74, 69
2, 2765, Note_on_c, 0, 72, 0
2, 2793, Note_on_c, 0, 75, 77
2, 2794, Note_on_c, 0, 74, 0
2, 2812, Note_on_c, 0, 75, 0
2, 2819, Note_on_c, 0, 77, 71
2, 2845, Note_on_c, 0, 79, 72
2, 2851, Note_on_c, 0, 77, 0
2, 2860, Note_on_c, 0, 51, 0
2, 2861, Note_on_c, 0, 50, 0
2, 2865, Note_on_c, 0, 80, 55
2, 2873, Note_on_c, 0, 79, 0
2, 2883, Note_on_c, 0, 82, 57
2, 2884, Note_on_c, 0, 80, 0
2, 2887, Note_on_c, 0, 56, 0
2, 2890, Note_on_c, 0, 60, 0
2, 2896, Note_on_c, 0, 82, 0
2, 2904, Note_on_c, 0, 84, 65
2, 2921, Note_on_c, 0, 84, 0
2, 2927, Note_on_c, 0, 86, 72
2, 2946, Note_on_c, 0, 86, 0
2, 2949, Note_on_c, 0, 87, 60
2, 2964, Note_on_c, 0, 87, 0
2, 2975, Note_on_c, 0, 89, 57
2, 3000, Note_on_c, 0, 89, 0
2, 3002, Note_on_c, 0, 87, 64
2, 3006, Note_on_c, 0, 51, 28
2, 3007, Note_on_c, 0, 50, 43
2, 3008, Control_c, 0, 64, 0
2, 3009, Note_on_c, 0, 60, 32
2, 3060, Note_on_c, 0, 87, 0
2, 3061, Note_on_c, 0, 86, 69
2, 3103, Note_on_c, 0, 86, 0
2, 3104, Control_c, 0, 64, 127
2, 3112, Note_on_c, 0, 84, 50
2, 3131, Note_on_c, 0, 84, 0
2, 3161, Note_on_c, 0, 82, 52
2, 3162, Note_on_c, 0, 56, 1
2, 3181, Note_on_c, 0, 82, 0
2, 3222, Note_on_c, 0, 82, 50
2, 3223, Note_on_c, 0, 80, 46
2, 3226, Note_on_c, 0, 60, 0
2, 3232, Note_on_c, 0, 50, 0
2, 3236, Note_on_c, 0, 56, 0
2, 3238, Note_on_c, 0, 51, 0
2, 3281, Note_on_c, 0, 80, 0
2, 3281, Note_on_c, 0, 79, 53
2, 3334, Note_on_c, 0, 79, 0
2, 3342, Note_on_c, 0, 77, 43
2, 3357, Note_on_c, 0, 82, 0
2, 3401, Note_on_c, 0, 82, 49
2, 3409, Note_on_c, 0, 77, 0
2, 3453, Note_on_c, 0, 82, 0
2, 3472, Note_on_c, 0, 80, 36
2, 3474, Note_on_c, 0, 72, 24
2, 3475, Note_on_c, 0, 62, 30
2, 3475, Note_on_c, 0, 68, 30
2, 3475, Note_on_c, 0, 82, 43
2, 3477, Note_on_c, 0, 63, 32
2, 3494, Control_c, 0, 64, 0
2, 3541, Note_on_c, 0, 79, 46
2, 3542, Control_c, 0, 64, 127
2, 3588, Note_on_c, 0, 79, 0
2, 3592, Note_on_c, 0, 80, 0
2, 3595, Note_on_c, 0, 77, 50
2, 3604, Note_on_c, 0, 82, 0
2, 3623, Note_on_c, 0, 77, 0
2, 3635, Note_on_c, 0, 72, 0
2, 3648, Note_on_c, 0, 75, 63
2, 3674, Note_on_c, 0, 75, 0
2, 3715, Note_on_c, 0, 75, 76
2, 3718, Note_on_c, 0, 77, 66
2, 3760, Note_on_c, 0, 68, 0
2, 3769, Note_on_c, 0, 62, 0
2, 3772, Note_on_c, 0, 63, 0
2, 3784, Note_on_c, 0, 74, 75
2, 3805, Note_on_c, 0, 75, 0
2, 3842, Note_on_c, 0, 74, 0
2, 3851, Note_on_c, 0, 77, 0
2, 3862, Note_on_c, 0, 74, 58
2, 3863, Note_on_c, 0, 77, 51
2, 3938, Note_on_c, 0, 72, 34
2, 3948, Note_on_c, 0, 74, 0
2, 3993, Note_on_c, 0, 72, 0
2, 3997, Note_on_c, 0, 77, 0
2, 4033, Note_on_c, 0, 72, 29
2, 4042, Note_on_c, 0, 55, 32
2, 4050, Control_c, 0, 64, 0
2, 4097, Note_on_c, 0, 72, 0
2, 4100, Control_c, 0, 64, 127
2, 4110, Note_on_c, 0, 71, 51
2, 4114, Note_on_c, 0, 62, 40
2, 4181, Note_on_c, 0, 71, 0
2, 4186, Note_on_c, 0, 74, 69
2, 4193, Note_on_c, 0, 67, 36
2, 4244, Note_on_c, 0, 62, 0
2, 4261, Note_on_c, 0, 76, 71
2, 4273, Note_on_c, 0, 67, 0
2, 4274, Note_on_c, 0, 74, 0
2, 4327, Note_on_c, 0, 76, 0
2, 4338, Note_on_c, 0, 71, 57
2, 4341, Note_on_c, 0, 62, 27
2, 4346, Note_on_c, 0, 76, 37
2, 4355, Note_on_c, 0, 62, 0
2, 4366, Note_on_c, 0, 55, 0
2, 4424, Note_on_c, 0, 50, 29
2, 4451, Note_on_c, 0, 76, 0
2, 4474, Note_on_c, 0, 71, 0
2, 4490, Note_on_c, 0, 50, 0
2, 4510, Note_on_c, 0, 62, 25
2, 4583, Note_on_c, 0, 74, 68
2, 4596, Note_on_c, 0, 62, 0
2, 4651, Note_on_c, 0, 74, 0
2, 4652, Note_on_c, 0, 71, 49
2, 4659, Note_on_c, 0, 62, 30
2, 4667, Note_on_c, 0, 50, 19
2, 4670, Control_c, 0, 64, 0
2, 4709, Control_c, 0, 64, 127
2, 4712, Note_on_c, 0, 62, 0
2, 4723, Note_on_c, 0, 59, 31
2, 4733, Note_on_c, 0, 71, 0
2, 4789, Note_on_c, 0, 86, 82
2, 4791, Note_on_c, 0, 79, 65
2, 4797, Note_on_c, 0, 62, 43
2, 4817, Note_on_c, 0, 59, 0
2, 4855, Note_on_c, 0, 86, 0
2, 4857, Note_on_c, 0, 79, 0
2, 4868, Note_on_c, 0, 74, 51
2, 4877, Note_on_c, 0, 59, 32
2, 4889, Note_on_c, 0, 62, 0
2, 4901, Note_on_c, 0, 74, 0
2, 4938, Note_on_c, 0, 71, 53
2, 4948, Note_on_c, 0, 62, 32
2, 4981, Note_on_c, 0, 59, 0
2, 5010, Note_on_c, 0, 67, 45
2, 5022, Note_on_c, 0, 59, 30
2, 5025, Note_on_c, 0, 71, 0
2, 5030, Note_on_c, 0, 67, 0
2, 5063, Note_on_c, 0, 62, 0
2, 5068, Note_on_c, 0, 50, 0
2, 5092, Note_on_c, 0, 79, 61
2, 5093, Note_on_c, 0, 50, 29
2, 5093, Note_on_c, 0, 86, 74
2, 5135, Note_on_c, 0, 50, 0
2, 5150, Note_on_c, 0, 86, 0
2, 5168, Note_on_c, 0, 74, 37
2, 5170, Note_on_c, 0, 79, 0
2, 5177, Note_on_c, 0, 50, 22
2, 5211, Note_on_c, 0, 74, 0
2, 5217, Note_on_c, 0, 50, 0
2, 5253, Note_on_c, 0, 84, 66
2, 5255, Note_on_c, 0, 59, 0
2, 5255, Note_on_c, 0, 75, 45
2, 5258, Note_on_c, 0, 50, 26
2, 5259, Control_c, 0, 64, 0
2, 5295, Note_on_c, 0, 75, 0
2, 5298, Control_c, 0, 64, 127
2, 5312, Note_on_c, 0, 84, 0
2, 5335, Note_on_c, 0, 80, 47
2, 5336, Note_on_c, 0, 72, 35
2, 5348, Note_on_c, 0, 50, 0
2, 5350, Note_on_c, 0, 60, 34
2, 5405, Note_on_c, 0, 72, 0
2, 5418, Note_on_c, 0, 75, 36
2, 5419, Note_on_c, 0, 60, 0
2, 5419, Note_on_c, 0, 63, 34
2, 5419, Note_on_c, 0, 72, 17
2, 5499, Note_on_c, 0, 68, 38
2, 5511, Note_on_c, 0, 63, 0
2, 5521, Note_on_c, 0, 72, 0
2, 5533, Note_on_c, 0, 75, 0
2, 5585, Note_on_c, 0, 75, 31
2, 5586, Note_on_c, 0, 68, 0
2, 5590, Note_on_c, 0, 72, 34
2, 5653, Note_on_c, 0, 72, 0
2, 5680, Note_on_c, 0, 72, 29
2, 5690, Note_on_c, 0, 75, 0
2, 5729, Note_on_c, 0, 72, 0
2, 5754, Note_on_c, 0, 75, 36
2, 5758, Note_on_c, 0, 72, 24
2, 5830, Note_on_c, 0, 75, 0
2, 5832, Note_on_c, 0, 68, 25
2, 5835, Note_on_c, 0, 80, 0
2, 5841, Note_on_c, 0, 68, 0
2, 5842, Note_on_c, 0, 72, 0
2, 6005, Note_on_c, 0, 50, 36
2, 6108, Note_on_c, 0, 68, 31
2, 6108, Note_on_c, 0, 63, 31
2, 6120, Note_on_c, 0, 60, 15
2, 6302, Note_on_c, 0, 63, 0
2, 6362, Note_on_c, 0, 68, 0
2, 6438, Note_on_c, 0, 60, 0
2, 6602, Note_on_c, 0, 62, 63
2, 6630, Note_on_c, 0, 50, 0
2, 6653, Note_on_c, 0, 62, 0
2, 6754, Note_on_c, 0, 62, 32
2, 6766, Note_on_c, 0, 63, 64
2, 6776, Note_on_c, 0, 62, 0
2, 6788, Note_on_c, 0, 63, 0
2, 6793, Note_on_c, 0, 64, 59
2, 6797, Note_on_c, 0, 43, 47
2, 6806, Control_c, 0, 64, 0
2, 6874, Note_on_c, 0, 64, 0
2, 6875, Note_on_c, 0, 62, 62
2, 6878, Note_on_c, 0, 50, 32
2, 6879, Control_c, 0, 64, 127
2, 6946, Note_on_c, 0, 62, 0
2, 6975, Note_on_c, 0, 43, 0
2, 7000, Note_on_c, 0, 62, 48
2, 7090, Note_on_c, 0, 62, 0
2, 7139, Note_on_c, 0, 62, 38
2, 7142, Note_on_c, 0, 59, 24
2, 7201, Note_on_c, 0, 50, 0
2, 7234, Note_on_c, 0, 59, 0
2, 7266, Note_on_c, 0, 62, 0
2, 7403, Note_on_c, 0, 62, 22
2, 7415, Note_on_c, 0, 63, 55
2, 7421, Note_on_c, 0, 62, 0
2, 7436, Note_on_c, 0, 63, 0
2, 7441, Note_on_c, 0, 64, 51
2, 7449, Note_on_c, 0, 45, 38
2, 7453, Control_c, 0, 64, 0
2, 7542, Note_on_c, 0, 54, 26
2, 7546, Note_on_c, 0, 62, 49
2, 7549, Note_on_c, 0, 64, 0
2, 7551, Control_c, 0, 64, 127
2, 7595, Note_on_c, 0, 45, 0
2, 7616, Note_on_c, 0, 62, 0
2, 7656, Note_on_c, 0, 62, 40
2, 7661, Note_on_c, 0, 57, 30
2, 7753, Note_on_c, 0, 67, 71
2, 7787, Note_on_c, 0, 57, 0
2, 7847, Note_on_c, 0, 62, 0
2, 7848, Note_on_c, 0, 67, 0
2, 7868, Note_on_c, 0, 64, 55
2, 7871, Note_on_c, 0, 47, 32
2, 7884, Control_c, 0, 64, 0
2, 7901, Note_on_c, 0, 54, 0
2, 7960, Control_c, 0, 64, 127
2, 7989, Note_on_c, 0, 62, 45
2, 7995, Note_on_c, 0, 57, 24
2, 7996, Note_on_c, 0, 64, 0
2, 8046, Note_on_c, 0, 57, 0
2, 8069, Note_on_c, 0, 47, 0
2, 8070, Note_on_c, 0, 62, 0
2, 8353, Note_on_c, 0, 62, 61
2, 8355, Note_on_c, 0, 56, 40
2, 8359, Note_on_c, 0, 46, 29
2, 8361, Note_on_c, 0, 60, 46
2, 8361, Control_c, 0, 64, 0
2, 8400, Control_c, 0, 64, 127
2, 8421, Note_on_c, 0, 62, 0
2, 8443, Note_on_c, 0, 62, 78
2, 8456, Note_on_c, 0, 60, 0
2, 8475, Note_on_c, 0, 46, 0
2, 8487, Note_on_c, 0, 56, 0
2, 8518, Note_on_c, 0, 62, 0
2, 8557, Note_on_c, 0, 62, 62
2, 8560, Note_on_c, 0, 55, 52
2, 8561, Note_on_c, 0, 60, 59
2, 8561, Note_on_c, 0, 45, 38
2, 8565, Control_c, 0, 64, 0
2, 8614, Control_c, 0, 64, 127
2, 8657, Note_on_c, 0, 62, 0
2, 8678, Note_on_c, 0, 62, 58
2, 8695, Note_on_c, 0, 45, 0
2, 8719, Note_on_c, 0, 55, 0
2, 8751, Note_on_c, 0, 60, 0
2, 8764, Note_on_c, 0, 62, 0
2, 8847, Note_on_c, 0, 54, 25
2, 8848, Note_on_c, 0, 62, 44
2, 8849, Note_on_c, 0, 32, 30
2, 8853, Note_on_c, 0, 44, 20
2, 8855, Control_c, 0, 64, 0
2, 8855, Note_on_c, 0, 60, 36
2, 8907, Control_c, 0, 64, 127
2, 8954, Note_on_c, 0, 54, 0
2, 8972, Note_on_c, 0, 60, 0
2, 8985, Note_on_c, 0, 62, 0
2, 9079, Note_on_c, 0, 32, 0
2, 9113, Note_on_c, 0, 44, 0
2, 9121, Note_on_c, 0, 62, 28
2, 9239, Note_on_c, 0, 62, 0
2, 9307, Note_on_c, 0, 62, 38
2, 9312, Control_c, 0, 64, 0
2, 9313, Note_on_c, 0, 43, 39
2, 9329, Control_c, 0, 64, 127
2, 9375, Note_on_c, 0, 43, 0
2, 9383, Note_on_c, 0, 50, 44
2, 9389, Note_on_c, 0, 71, 64
2, 9447, Note_on_c, 0, 62, 0
2, 9451, Note_on_c, 0, 50, 0
2, 9463, Note_on_c, 0, 71, 0
2, 9466, Note_on_c, 0, 74, 67
2, 9466, Note_on_c, 0, 59, 48
2, 9467, Note_on_c, 0, 62, 66
2, 9483, Control_c, 0, 64, 0
2, 9496, Control_c, 0, 64, 127
2, 9534, Note_on_c, 0, 58, 56
2, 9540, Note_on_c, 0, 59, 0
2, 9558, Note_on_c, 0, 62, 0
2, 9595, Note_on_c, 0, 58, 0
2, 9595, Note_on_c, 0, 62, 34
2, 9597, Note_on_c, 0, 74, 0
2, 9597, Note_on_c, 0, 57, 55
2, 9599, Note_on_c, 0, 67, 56
2, 9652, Note_on_c, 0, 56, 53
2, 9654, Note_on_c, 0, 57, 0
2, 9685, Note_on_c, 0, 62, 0
2, 9698, Note_on_c, 0, 67, 0
2, 9700, Note_on_c, 0, 56, 0
2, 9701, Note_on_c, 0, 55, 64
2, 9702, Control_c, 0, 64, 0
2, 9702, Note_on_c, 0, 71, 68
2, 9703, Note_on_c, 0, 62, 55
2, 9730, Control_c, 0, 64, 127
2, 9748, Note_on_c, 0, 71, 0
2, 9750, Note_on_c, 0, 54, 53
2, 9754, Note_on_c, 0, 55, 0
2, 9758, Note_on_c, 0, 62, 0
2, 9798, Note_on_c, 0, 54, 0
2, 9799, Note_on_c, 0, 62, 65
2, 9799, Note_on_c, 0, 53, 61
2, 9812, Control_c, 0, 64, 0
2, 9843, Control_c, 0, 64, 127
2, 9850, Note_on_c, 0, 52, 60
2, 9858, Note_on_c, 0, 53, 0
2, 9869, Note_on_c, 0, 62, 0
2, 9895, Note_on_c, 0, 51, 56
2, 9899, Note_on_c, 0, 52, 0
2, 9903, Note_on_c, 0, 67, 67
2, 9961, Note_on_c, 0, 67, 0
2, 9978, Note_on_c, 0, 51, 0
2, 10053, Note_on_c, 0, 49, 48
2, 10101, Note_on_c, 0, 49, 0
2, 10107, Control_c, 0, 64, 0
2, 10107, Note_on_c, 0, 57, 36
2, 10111, Note_on_c, 0, 65, 41
2, 10111, Note_on_c, 0, 60, 50
2, 10112, Note_on_c, 0, 50, 44
2, 10174, Control_c, 0, 64, 127
2, 10179, Note_on_c, 0, 38, 42
2, 10183, Note_on_c, 0, 50, 0
2, 10184, Note_on_c, 0, 60, 0
2, 10208, Note_on_c, 0, 57, 0
2, 10208, Note_on_c, 0, 65, 0
2, 10243, Note_on_c, 0, 45, 42
2, 10302, Note_on_c, 0, 53, 54
2, 10340, Note_on_c, 0, 38, 0
2, 10344, Note_on_c, 0, 53, 0
2, 10357, Note_on_c, 0, 57, 65
2, 10375, Note_on_c, 0, 45, 0
2, 10388, Note_on_c, 0, 57, 0
2, 10400, Note_on_c, 0, 61, 71
2, 10423, Note_on_c, 0, 61, 0
2, 10444, Note_on_c, 0, 64, 71
2, 10470, Note_on_c, 0, 64, 0
2, 10485, Note_on_c, 0, 69, 80
2, 10526, Note_on_c, 0, 73, 62
2, 10537, Note_on_c, 0, 69, 0
2, 10564, Note_on_c, 0, 73, 0
2, 10570, Note_on_c, 0, 76, 72
2, 10590, Note_on_c, 0, 76, 0
2, 10620, Note_on_c, 0, 81, 77
2, 10669, Note_on_c, 0, 85, 69
2, 10716, Note_on_c, 0, 81, 0
2, 10730, Note_on_c, 0, 88, 55
2, 10737, Note_on_c, 0, 55, 39
2, 10738, Control_c, 0, 64, 0
2, 10779, Control_c, 0, 64, 127
2, 10787, Note_on_c, 0, 85, 0
2, 10791, Note_on_c, 0, 88, 0
2, 10798, Note_on_c, 0, 86, 62
2, 10809, Note_on_c, 0, 86, 0
2, 10809, Note_on_c, 0, 62, 17
2, 10882, Note_on_c, 0, 82, 58
2, 10893, Note_on_c, 0, 65, 27
2, 10894, Note_on_c, 0, 62, 0
2, 10974, Note_on_c, 0, 80, 38
2, 10978, Note_on_c, 0, 71, 33
2, 10986, Note_on_c, 0, 75, 20
2, 10991, Control_c, 0, 64, 0
2, 11007, Note_on_c, 0, 62, 1
2, 11013, Control_c, 0, 64, 127
2, 11046, Note_on_c, 0, 55, 0
2, 11055, Note_on_c, 0, 82, 0
2, 11067, Note_on_c, 0, 80, 0
2, 11084, Note_on_c, 0, 62, 0
2, 11089, Note_on_c, 0, 55, 33
2, 11090, Note_on_c, 0, 79, 38
2, 11091, Control_c, 0, 64, 0
2, 11121, Control_c, 0, 64, 127
2, 11162, Note_on_c, 0, 79, 0
2, 11184, Note_on_c, 0, 75, 0
2, 11211, Note_on_c, 0, 62, 17
2, 11214, Note_on_c, 0, 71, 0
2, 11246, Note_on_c, 0, 65, 0
2, 11319, Note_on_c, 0, 68, 23
2, 11327, Note_on_c, 0, 65, 22
2, 11410, Note_on_c, 0, 65, 0
2, 11452, Note_on_c, 0, 77, 49
2, 11459, Note_on_c, 0, 62, 0
2, 11475, Note_on_c, 0, 55, 0
2, 11518, Note_on_c, 0, 77, 0
2, 11529, Note_on_c, 0, 68, 0
2, 11624, Note_on_c, 0, 48, 28
2, 11628, Control_c, 0, 64, 0
2, 11634, Note_on_c, 0, 76, 27
2, 11680, Control_c, 0, 64, 127
2, 11710, Note_on_c, 0, 48, 0
2, 11714, Note_on_c, 0, 55, 34
2, 11732, Note_on_c, 0, 76, 0
2, 11805, Note_on_c, 0, 64, 30
2, 11891, Note_on_c, 0, 79, 68
2, 11909, Note_on_c, 0, 64, 0
2, 11969, Note_on_c, 0, 69, 53
2, 11970, Note_on_c, 0, 62, 40
2, 12000, Note_on_c, 0, 55, 0
2, 12045, Note_on_c, 0, 55, 54
2, 12075, Note_on_c, 0, 69, 0
2, 12087, Note_on_c, 0, 62, 0
2, 12102, Note_on_c, 0, 79, 0
2, 12122, Note_on_c, 0, 67, 60
2, 12194, Note_on_c, 0, 79, 78
2, 12234, Note_on_c, 0, 79, 0
2, 12249, Note_on_c, 0, 67, 0
2, 12315, Note_on_c, 0, 78, 65
2, 12326, Note_on_c, 0, 48, 47
2, 12337, Note_on_c, 0, 55, 0
2, 12343, Control_c, 0, 64, 0
2, 12395, Control_c, 0, 64, 127
2, 12404, Note_on_c, 0, 57, 36
2, 12429, Note_on_c, 0, 48, 0
2, 12481, Note_on_c, 0, 69, 59
2, 12558, Note_on_c, 0, 81, 69
2, 12561, Note_on_c, 0, 78, 0
2, 12561, Note_on_c, 0, 66, 45
2, 12614, Note_on_c, 0, 57, 0
2, 12616, Note_on_c, 0, 69, 0
2, 12645, Note_on_c, 0, 66, 0
2, 12646, Note_on_c, 0, 57, 40
2, 12721, Note_on_c, 0, 57, 0
2, 12729, Note_on_c, 0, 69, 33
2, 12790, Note_on_c, 0, 69, 0
2, 12823, Note_on_c, 0, 57, 31
2, 12827, Note_on_c, 0, 69, 35
2, 12850, Note_on_c, 0, 81, 0
2, 13164, Note_on_c, 0, 79, 49
2, 13254, Note_on_c, 0, 57, 0
2, 13260, Note_on_c, 0, 79, 0
2, 13274, Note_on_c, 0, 69, 0
2, 13306, Note_on_c, 0, 81, 40
2, 13408, Note_on_c, 0, 79, 53
2, 13412, Note_on_c, 0, 47, 30
2, 13413, Control_c, 0, 64, 0
2, 13426, Note_on_c, 0, 81, 0
2, 13441, Control_c, 0, 64, 127
2, 13474, Note_on_c, 0, 79, 0
2, 13504, Note_on_c, 0, 57, 29
2, 13602, Note_on_c, 0, 66, 39
2, 13604, Note_on_c, 0, 62, 42
2, 13605, Note_on_c, 0, 57, 0
2, 13616, Note_on_c, 0, 47, 0
2, 13689, Note_on_c, 0, 62, 0
2, 13693, Note_on_c, 0, 74, 67
2, 13716, Note_on_c, 0, 66, 0
2, 13804, Note_on_c, 0, 41, 37
2, 13807, Note_on_c, 0, 67, 50
2, 13808, Note_on_c, 0, 63, 33
2, 13810, Note_on_c, 0, 57, 44
2, 13820, Control_c, 0, 64, 0
2, 13885, Control_c, 0, 64, 127
2, 13908, Note_on_c, 0, 48, 43
2, 13920, Note_on_c, 0, 57, 0
2, 13964, Note_on_c, 0, 63, 0
2, 13994, Note_on_c, 0, 63, 53
2, 13995, Note_on_c, 0, 57, 38
2, 14003, Note_on_c, 0, 57, 0
2, 14017, Note_on_c, 0, 48, 0
2, 14023, Note_on_c, 0, 41, 0
2, 14044, Note_on_c, 0, 74, 0
2, 14161, Note_on_c, 0, 63, 0
2, 14168, Note_on_c, 0, 28, 49
2, 14169, Control_c, 0, 64, 0
2, 14181, Note_on_c, 0, 28, 0
2, 14186, Control_c, 0, 64, 127
2, 14227, Note_on_c, 0, 67, 0
2, 14270, Note_on_c, 0, 56, 33
2, 14301, Note_on_c, 0, 74, 9
2, 14323, Note_on_c, 0, 74, 0
2, 14368, Note_on_c, 0, 62, 36
2, 14417, Note_on_c, 0, 62, 0
2, 14429, Note_on_c, 0, 56, 0
2, 14570, Note_on_c, 0, 34, 52
2, 14583, Control_c, 0, 64, 0
2, 14616, Note_on_c, 0, 34, 0
2, 14625, Control_c, 0, 64, 127
2, 14705, Note_on_c, 0, 56, 10
2, 14751, Note_on_c, 0, 56, 0
2, 14818, Note_on_c, 0, 67, 32
2, 14822, Note_on_c, 0, 64, 18
2, 14823, Note_on_c, 0, 56, 23
2, 14826, Note_on_c, 0, 62, 17
2, 14870, Note_on_c, 0, 64, 0
2, 14879, Note_on_c, 0, 67, 0
2, 15058, Control_c, 0, 64, 127
2, 15065, Note_on_c, 0, 74, 75
2, 15073, Control_c, 0, 64, 0
2, 15137, Note_on_c, 0, 62, 0
2, 15150, Note_on_c, 0, 56, 0
2, 15184, Control_c, 0, 64, 127
2, 15192, Control_c, 0, 64, 0
2, 15277, Note_on_c, 0, 74, 0
2, 15308, Control_c, 0, 64, 0
2, 15309, Note_on_c, 0, 84, 90
2, 15310, Note_on_c, 0, 33, 63
2, 15323, Control_c, 0, 64, 127
2, 15333, Note_on_c, 0, 33, 0
2, 15398, Note_on_c, 0, 84, 0
2, 15443, Note_on_c, 0, 84, 60
2, 15448, Note_on_c, 0, 61, 35
2, 15449, Note_on_c, 0, 81, 60
2, 15451, Note_on_c, 0, 77, 58
2, 15452, Note_on_c, 0, 55, 52
2, 15453, Note_on_c, 0, 72, 45
2, 15523, Note_on_c, 0, 55, 0
2, 15530, Note_on_c, 0, 72, 0
2, 15532, Note_on_c, 0, 61, 0
2, 15532, Note_on_c, 0, 77, 0
2, 15539, Note_on_c, 0, 84, 0
2, 15542, Note_on_c, 0, 81, 0
2, 15578, Note_on_c, 0, 61, 36
2, 15580, Note_on_c, 0, 84, 54
2, 15583, Note_on_c, 0, 55, 55
2, 15584, Note_on_c, 0, 81, 47
2, 15584, Note_on_c, 0, 77, 49
2, 15586, Note_on_c, 0, 72, 28
2, 15641, Note_on_c, 0, 55, 0
2, 15648, Note_on_c, 0, 61, 0
2, 15652, Note_on_c, 0, 72, 0
2, 15656, Note_on_c, 0, 77, 0
2, 15663, Note_on_c, 0, 81, 0
2, 15666, Note_on_c, 0, 84, 0
2, 15706, Note_on_c, 0, 61, 38
2, 15710, Note_on_c, 0, 84, 52
2, 15713, Note_on_c, 0, 55, 51
2, 15743, Note_on_c, 0, 55, 0
2, 15753, Note_on_c, 0, 61, 0
2, 15758, Note_on_c, 0, 84, 0
2, 15856, Note_on_c, 0, 84, 78
2, 15856, Control_c, 0, 64, 0
2, 15858, Note_on_c, 0, 50, 61
2, 15875, Control_c, 0, 64, 127
2, 15910, Note_on_c, 0, 84, 0
2, 16009, Note_on_c, 0, 66, 47
2, 16011, Note_on_c, 0, 64, 44
2, 16015, Note_on_c, 0, 60, 32
2, 16018, Note_on_c, 0, 57, 30
2, 16122, Note_on_c, 0, 60, 0
2, 16129, Note_on_c, 0, 64, 0
2, 16131, Note_on_c, 0, 57, 0
2, 16142, Note_on_c, 0, 66, 0
2, 16196, Note_on_c, 0, 66, 30
2, 16198, Note_on_c, 0, 64, 36
2, 16203, Note_on_c, 0, 60, 20
2, 16305, Note_on_c, 0, 60, 0
2, 16327, Note_on_c, 0, 50, 0
2, 16340, Note_on_c, 0, 64, 0
2, 16348, Note_on_c, 0, 66, 0
2, 16564, Note_on_c, 0, 78, 64
2, 16572, Note_on_c, 0, 69, 65
2, 16573, Note_on_c, 0, 48, 33
2, 16576, Note_on_c, 0, 57, 33
2, 16577, Control_c, 0, 64, 0
2, 16599, Control_c, 0, 64, 127
2, 16629, Note_on_c, 0, 78, 0
2, 16636, Note_on_c, 0, 69, 0
2, 16637, Note_on_c, 0, 57, 0
2, 16640, Note_on_c, 0, 48, 0
2, 16753, Note_on_c, 0, 83, 43
2, 16760, Note_on_c, 0, 79, 52
2, 16762, Note_on_c, 0, 47, 30
2, 16765, Note_on_c, 0, 74, 40
2, 16768, Control_c, 0, 64, 0
2, 16770, Note_on_c, 0, 55, 24
2, 16816, Control_c, 0, 64, 127
2, 16997, Note_on_c, 0, 79, 0
2, 17001, Note_on_c, 0, 47, 0
2, 17013, Note_on_c, 0, 55, 0
2, 17014, Note_on_c, 0, 74, 0
2, 17023, Note_on_c, 0, 67, 58
2, 17024, Note_on_c, 0, 83, 0
2, 17043, Note_on_c, 0, 67, 0
2, 17132, Note_on_c, 0, 76, 89
2, 17133, Note_on_c, 0, 56, 53
2, 17140, Control_c, 0, 64, 0
2, 17173, Control_c, 0, 64, 127
2, 17222, Note_on_c, 0, 62, 46
2, 17223, Note_on_c, 0, 67, 44
2, 17228, Note_on_c, 0, 72, 28
2, 17233, Note_on_c, 0, 76, 0
2, 17256, Note_on_c, 0, 67, 0
2, 17262, Note_on_c, 0, 72, 0
2, 17276, Note_on_c, 0, 56, 0
2, 17319, Note_on_c, 0, 62, 0
2, 17415, Note_on_c, 0, 81, 68
2, 17418, Note_on_c, 0, 55, 47
2, 17429, Control_c, 0, 64, 0
2, 17465, Control_c, 0, 64, 127
2, 17509, Note_on_c, 0, 61, 36
2, 17512, Note_on_c, 0, 66, 25
2, 17513, Note_on_c, 0, 77, 48
2, 17513, Note_on_c, 0, 72, 29
2, 17544, Note_on_c, 0, 72, 0
2, 17550, Note_on_c, 0, 77, 0
2, 17554, Note_on_c, 0, 81, 0
2, 17558, Note_on_c, 0, 55, 0
2, 17578, Note_on_c, 0, 66, 0
2, 17626, Note_on_c, 0, 54, 37
2, 17627, Note_on_c, 0, 86, 61
2, 17629, Note_on_c, 0, 61, 0
2, 17639, Control_c, 0, 64, 0
2, 17682, Control_c, 0, 64, 127
2, 17756, Note_on_c, 0, 77, 43
2, 17761, Note_on_c, 0, 86, 0
2, 17763, Note_on_c, 0, 82, 31
2, 17764, Note_on_c, 0, 60, 36
2, 17767, Note_on_c, 0, 65, 19
2, 18066, Note_on_c, 0, 82, 0
2, 18072, Note_on_c, 0, 77, 0
2, 18205, Note_on_c, 0, 60, 0
2, 18213, Note_on_c, 0, 54, 0
2, 18222, Note_on_c, 0, 65, 0
2, 18351, Note_on_c, 0, 74, 41
2, 18437, Note_on_c, 0, 74, 0
2, 18470, Note_on_c, 0, 74, 38
2, 18675, Note_on_c, 0, 74, 0
2, 18914, Note_on_c, 0, 76, 48
2, 18915, Note_on_c, 0, 43, 42
2, 18921, Control_c, 0, 64, 0
2, 18943, Control_c, 0, 64, 127
2, 19018, Note_on_c, 0, 76, 0
2, 19029, Note_on_c, 0, 50, 48
2, 19033, Note_on_c, 0, 43, 0
2, 19141, Note_on_c, 0, 66, 39
2, 19143, Note_on_c, 0, 62, 38
2, 19151, Note_on_c, 0, 59, 31
2, 19234, Note_on_c, 0, 59, 0
2, 19267, Note_on_c, 0, 74, 62
2, 19275, Note_on_c, 0, 57, 37
2, 19309, Note_on_c, 0, 50, 0
2, 19321, Note_on_c, 0, 66, 0
2, 19323, Note_on_c, 0, 62, 0
2, 19337, Note_on_c, 0, 74, 0
2, 19389, Note_on_c, 0, 57, 0
2, 19415, Note_on_c, 0, 76, 66
2, 19418, Note_on_c, 0, 70, 62
2, 19421, Note_on_c, 0, 64, 54
2, 19424, Control_c, 0, 64, 0
2, 19424, Note_on_c, 0, 48, 53
2, 19426, Note_on_c, 0, 58, 37
2, 19478, Control_c, 0, 64, 127
2, 19502, Note_on_c, 0, 58, 0
2, 19519, Note_on_c, 0, 55, 49
2, 19540, Note_on_c, 0, 64, 0
2, 19547, Note_on_c, 0, 55, 0
2, 19555, Note_on_c, 0, 48, 0
2, 19599, Note_on_c, 0, 76, 0
2, 19611, Note_on_c, 0, 64, 46
2, 19616, Note_on_c, 0, 60, 31
2, 19684, Note_on_c, 0, 70, 0
2, 19689, Note_on_c, 0, 64, 0
2, 19698, Note_on_c, 0, 74, 63
2, 19702, Note_on_c, 0, 48, 55
2, 19712, Note_on_c, 0, 60, 0
2, 19720, Note_on_c, 0, 48, 0
2, 19724, Note_on_c, 0, 74, 0
2, 19808, Note_on_c, 0, 76, 72
2, 19810, Note_on_c, 0, 47, 40
2, 19816, Control_c, 0, 64, 0
2, 19817, Note_on_c, 0, 69, 42
2, 19831, Note_on_c, 0, 69, 0
2, 19844, Note_on_c, 0, 69, 13
2, 19866, Control_c, 0, 64, 127
2, 19897, Note_on_c, 0, 69, 0
2, 19933, Note_on_c, 0, 57, 30
2, 19934, Note_on_c, 0, 47, 0
2, 19948, Note_on_c, 0, 57, 0
2, 20025, Note_on_c, 0, 76, 0
2, 20063, Note_on_c, 0, 74, 37
2, 20064, Note_on_c, 0, 70, 25
2, 20067, Note_on_c, 0, 65, 27
2, 20068, Note_on_c, 0, 68, 30
2, 20068, Note_on_c, 0, 62, 38
2, 20072, Note_on_c, 0, 56, 33
2, 20078, Control_c, 0, 64, 0
2, 20106, Control_c, 0, 64, 127
2, 20207, Note_on_c, 0, 74, 0
2, 20233, Note_on_c, 0, 62, 0
2, 20239, Note_on_c, 0, 74, 48
2, 20260, Note_on_c, 0, 56, 0
2, 20322, Note_on_c, 0, 65, 0
2, 20327, Note_on_c, 0, 74, 0
2, 20341, Note_on_c, 0, 70, 0
2, 20346, Note_on_c, 0, 68, 0
2, 20421, Note_on_c, 0, 74, 40
2, 20424, Note_on_c, 0, 64, 29
2, 20426, Note_on_c, 0, 67, 36
2, 20427, Note_on_c, 0, 62, 34
2, 20429, Note_on_c, 0, 69, 37
2, 20431, Control_c, 0, 64, 0
2, 20448, Control_c, 0, 64, 127
2, 20464, Note_on_c, 0, 64, 0
2, 20474, Note_on_c, 0, 67, 0
2, 20476, Note_on_c, 0, 69, 0
2, 20486, Note_on_c, 0, 74, 0
2, 20561, Note_on_c, 0, 98, 49
2, 20565, Note_on_c, 0, 50, 33
2, 20613, Note_on_c, 0, 62, 0
2, 20686, Note_on_c, 0, 98, 0
2, 20742, Note_on_c, 0, 98, 37
2, 20751, Note_on_c, 0, 62, 36
2, 20851, Note_on_c, 0, 50, 0
2, 20878, Note_on_c, 0, 98, 0
2, 20982, Note_on_c, 0, 50, 25
2, 20984, Note_on_c, 0, 98, 30
2, 21064, Note_on_c, 0, 98, 0
2, 21140, Note_on_c, 0, 62, 0
2, 21184, Note_on_c, 0, 50, 0
2, 21576, Note_on_c, 0, 74, 48
2, 21747, Note_on_c, 0, 74, 0
2, 21774, Note_on_c, 0, 74, 82
2, 21792, Control_c, 0, 64, 127
2, 21881, Note_on_c, 0, 83, 87
2, 21918, Note_on_c, 0, 55, 63
2, 21973, Note_on_c, 0, 83, 0
2, 21975, Note_on_c, 0, 86, 92
2, 21986, Note_on_c, 0, 62, 52
2, 22053, Note_on_c, 0, 86, 0
2, 22060, Note_on_c, 0, 79, 80
2, 22080, Note_on_c, 0, 71, 79
2, 22101, Note_on_c, 0, 62, 0
2, 22102, Note_on_c, 0, 55, 0
2, 22127, Note_on_c, 0, 70, 74
2, 22142, Note_on_c, 0, 83, 78
2, 22145, Note_on_c, 0, 71, 0
2, 22147, Note_on_c, 0, 74, 0
2, 22151, Note_on_c, 0, 79, 0
2, 22160, Note_on_c, 0, 70, 0
2, 22168, Note_on_c, 0, 69, 56
2, 22192, Note_on_c, 0, 69, 0
2, 22200, Note_on_c, 0, 68, 56
2, 22225, Note_on_c, 0, 68, 0
2, 22229, Note_on_c, 0, 67, 71
2, 22254, Note_on_c, 0, 74, 65
2, 22258, Note_on_c, 0, 66, 69
2, 22259, Note_on_c, 0, 83, 0
2, 22263, Note_on_c, 0, 67, 0
2, 22279, Note_on_c, 0, 65, 70
2, 22289, Note_on_c, 0, 66, 0
2, 22302, Note_on_c, 0, 65, 0
2, 22305, Note_on_c, 0, 64, 69
2, 22327, Note_on_c, 0, 64, 0
2, 22331, Note_on_c, 0, 63, 65
2, 22349, Note_on_c, 0, 63, 0
2, 22353, Note_on_c, 0, 62, 74
2, 22370, Note_on_c, 0, 62, 0
2, 22375, Note_on_c, 0, 61, 68
2, 22399, Note_on_c, 0, 61, 0
2, 22399, Note_on_c, 0, 60, 66
2, 22404, Note_on_c, 0, 74, 0
2, 22408, Note_on_c, 0, 79, 67
2, 22421, Note_on_c, 0, 60, 0
2, 22423, Note_on_c, 0, 59, 71
2, 22442, Note_on_c, 0, 59, 0
2, 22453, Note_on_c, 0, 58, 60
2, 22468, Note_on_c, 0, 58, 0
2, 22472, Note_on_c, 0, 57, 65
2, 22488, Note_on_c, 0, 57, 0
2, 22498, Note_on_c, 0, 56, 55
2, 22512, Note_on_c, 0, 56, 0
2, 22518, Note_on_c, 0, 55, 68
2, 22534, Note_on_c, 0, 55, 0
2, 22542, Note_on_c, 0, 54, 45
2, 22561, Note_on_c, 0, 53, 70
2, 22564, Note_on_c, 0, 54, 0
2, 22577, Note_on_c, 0, 79, 0
2, 22581, Note_on_c, 0, 53, 0
2, 22582, Note_on_c, 0, 74, 53
2, 22586, Note_on_c, 0, 52, 58
2, 22604, Note_on_c, 0, 52, 0
2, 22609, Note_on_c, 0, 51, 67
2, 22624, Note_on_c, 0, 51, 0
2, 22627, Note_on_c, 0, 50, 78
2, 22641, Note_on_c, 0, 50, 0
2, 22650, Note_on_c, 0, 49, 56
2, 22670, Note_on_c, 0, 48, 68
2, 22675, Note_on_c, 0, 49, 0
2, 22688, Note_on_c, 0, 48, 0
2, 22691, Note_on_c, 0, 47, 66
2, 22710, Note_on_c, 0, 47, 0
2, 22717, Note_on_c, 0, 46, 61
2, 22732, Note_on_c, 0, 46, 0
2, 22738, Note_on_c, 0, 45, 71
2, 22751, Note_on_c, 0, 45, 0
2, 22754, Note_on_c, 0, 74, 0
2, 22762, Note_on_c, 0, 44, 63
2, 22767, Note_on_c, 0, 77, 58
2, 22777, Note_on_c, 0, 72, 55
2, 22778, Note_on_c, 0, 44, 0
2, 22780, Note_on_c, 0, 69, 60
2, 22781, Note_on_c, 0, 43, 69
2, 22785, Note_on_c, 0, 45, 38
2, 22788, Control_c, 0, 64, 0
2, 22794, Note_on_c, 0, 45, 0
2, 22796, Note_on_c, 0, 43, 0
2, 22807, Note_on_c, 0, 42, 51
2, 22839, Note_on_c, 0, 41, 54
2, 22848, Note_on_c, 0, 42, 0
2, 22865, Note_on_c, 0, 41, 0
2, 22869, Note_on_c, 0, 40, 69
2, 22875, Control_c, 0, 64, 127
2, 22889, Note_on_c, 0, 40, 0
2, 22895, Note_on_c, 0, 39, 60
2, 22914, Note_on_c, 0, 39, 0
2, 22918, Note_on_c, 0, 38, 73
2, 22935, Note_on_c, 0, 38, 0
2, 22943, Note_on_c, 0, 37, 55
2, 22963, Note_on_c, 0, 36, 56
2, 22972, Note_on_c, 0, 37, 0
2, 22980, Note_on_c, 0, 36, 0
2, 22982, Note_on_c, 0, 35, 63
2, 23004, Note_on_c, 0, 35, 0
2, 23008, Note_on_c, 0, 34, 71
2, 23028, Note_on_c, 0, 34, 0
2, 23033, Note_on_c, 0, 33, 69
2, 23049, Note_on_c, 0, 33, 0
2, 23054, Note_on_c, 0, 32, 63
2, 23076, Note_on_c, 0, 32, 0
2, 23078, Note_on_c, 0, 31, 82
2, 23100, Note_on_c, 0, 31, 0
2, 23104, Note_on_c, 0, 30, 62
2, 23140, Note_on_c, 0, 30, 0
2, 23141, Note_on_c, 0, 29, 62
2, 23167, Note_on_c, 0, 29, 0
2, 23168, Note_on_c, 0, 28, 68
2, 23193, Note_on_c, 0, 30, 18
2, 23195, Note_on_c, 0, 32, 27
2, 23197, Note_on_c, 0, 27, 74
2, 23203, Note_on_c, 0, 28, 0
2, 23206, Note_on_c, 0, 32, 0
2, 23222, Note_on_c, 0, 26, 77
2, 23232, Note_on_c, 0, 27, 0
2, 23260, Note_on_c, 0, 25, 92
2, 23263, Note_on_c, 0, 30, 0
2, 23264, Note_on_c, 0, 26, 0
2, 23264, Control_c, 0, 64, 0
2, 23420, Note_on_c, 0, 69, 0
2, 23424, Note_on_c, 0, 72, 0
2, 23426, Note_on_c, 0, 77, 0
2, 23468, Control_c, 0, 64, 127
2, 23799, Control_c, 0, 64, 0
2, 23835, Note_on_c, 0, 25, 40
2, 23851, Control_c, 0, 64, 127
2, 23871, Note_on_c, 0, 25, 0
2, 23973, Note_on_c, 0, 24, 68
2, 23980, Control_c, 0, 64, 0
2, 23981, Note_on_c, 0, 25, 0
2, 24055, Control_c, 0, 64, 127
2, 24061, Note_on_c, 0, 24, 0
2, 24071, Note_on_c, 0, 48, 50
2, 24179, Note_on_c, 0, 60, 42
2, 24191, Note_on_c, 0, 48, 0
2, 24342, Note_on_c, 0, 79, 35
2, 24348, Note_on_c, 0, 67, 34
2, 24348, Note_on_c, 0, 72, 31
2, 24354, Note_on_c, 0, 64, 35
2, 24526, Note_on_c, 0, 79, 0
2, 24598, Note_on_c, 0, 72, 0
2, 24603, Note_on_c, 0, 67, 0
2, 24610, Note_on_c, 0, 76, 78
2, 24664, Note_on_c, 0, 64, 0
2, 24671, Note_on_c, 0, 60, 0
2, 24747, Note_on_c, 0, 76, 0
2, 24776, Note_on_c, 0, 78, 47
2, 24779, Note_on_c, 0, 48, 33
2, 24785, Control_c, 0, 64, 0
2, 24785, Note_on_c, 0, 69, 42
2, 24828, Control_c, 0, 64, 127
2, 24836, Note_on_c, 0, 78, 0
2, 24838, Note_on_c, 0, 69, 0
2, 24859, Note_on_c, 0, 57, 36
2, 24861, Note_on_c, 0, 81, 58
2, 24876, Note_on_c, 0, 48, 0
2, 24948, Note_on_c, 0, 81, 0
2, 24961, Note_on_c, 0, 74, 45
2, 24965, Note_on_c, 0, 69, 26
2, 24966, Note_on_c, 0, 66, 32
2, 25047, Note_on_c, 0, 57, 0
2, 25105, Note_on_c, 0, 66, 0
2, 25241, Note_on_c, 0, 81, 60
2, 25288, Note_on_c, 0, 81, 0
2, 25345, Note_on_c, 0, 69, 0
2, 25346, Note_on_c, 0, 74, 0
2, 25420, Note_on_c, 0, 79, 64
2, 25424, Control_c, 0, 64, 0
2, 25425, Note_on_c, 0, 74, 64
2, 25425, Note_on_c, 0, 47, 25
2, 25429, Note_on_c, 0, 57, 19
2, 25430, Note_on_c, 0, 69, 40
2, 25458, Control_c, 0, 64, 127
2, 25477, Note_on_c, 0, 47, 0
2, 25486, Note_on_c, 0, 57, 0
2, 25503, Note_on_c, 0, 79, 0
2, 25541, Note_on_c, 0, 79, 68
2, 25555, Note_on_c, 0, 74, 0
2, 25562, Note_on_c, 0, 79, 0
2, 25568, Note_on_c, 0, 69, 0
2, 25637, Note_on_c, 0, 41, 41
2, 25644, Note_on_c, 0, 48, 44
2, 25652, Note_on_c, 0, 74, 64
2, 25656, Note_on_c, 0, 71, 66
2, 25659, Note_on_c, 0, 57, 62
2, 25659, Note_on_c, 0, 67, 69
2, 25662, Note_on_c, 0, 63, 57
2, 25664, Control_c, 0, 64, 0
2, 25718, Control_c, 0, 64, 127
2, 25780, Note_on_c, 0, 74, 0
2, 25822, Note_on_c, 0, 74, 68
2, 25828, Note_on_c, 0, 41, 0
2, 25835, Note_on_c, 0, 48, 0
2, 25849, Note_on_c, 0, 57, 0
2, 25858, Note_on_c, 0, 63, 0
2, 25860, Note_on_c, 0, 71, 0
2, 25865, Note_on_c, 0, 67, 0
2, 25881, Note_on_c, 0, 74, 0
2, 25998, Note_on_c, 0, 76, 41
2, 25999, Note_on_c, 0, 67, 46
2, 26001, Note_on_c, 0, 69, 46
2, 26001, Note_on_c, 0, 62, 31
2, 26001, Note_on_c, 0, 56, 32
2, 26002, Note_on_c, 0, 72, 31
2, 26002, Control_c, 0, 64, 0
2, 26050, Control_c, 0, 64, 127
2, 26085, Note_on_c, 0, 62, 0
2, 26093, Note_on_c, 0, 56, 0
2, 26109, Note_on_c, 0, 76, 0
2, 26142, Note_on_c, 0, 76, 51
2, 26179, Note_on_c, 0, 69, 0
2, 26189, Note_on_c, 0, 67, 0
2, 26195, Note_on_c, 0, 72, 0
2, 26209, Note_on_c, 0, 76, 0
2, 26301, Control_c, 0, 64, 0
2, 26301, Note_on_c, 0, 34, 39
2, 26320, Note_on_c, 0, 34, 0
2, 26321, Control_c, 0, 64, 127
2, 26544, Note_on_c, 0, 68, 29
2, 26546, Note_on_c, 0, 76, 42
2, 26547, Note_on_c, 0, 67, 45
2, 26549, Note_on_c, 0, 72, 32
2, 26552, Note_on_c, 0, 62, 37
2, 26555, Note_on_c, 0, 56, 25
2, 26614, Note_on_c, 0, 67, 0
2, 26631, Note_on_c, 0, 62, 0
2, 26644, Note_on_c, 0, 76, 0
2, 26671, Note_on_c, 0, 56, 0
2, 26672, Note_on_c, 0, 72, 0
2, 26683, Note_on_c, 0, 68, 0
2, 26811, Note_on_c, 0, 61, 51
2, 26812, Note_on_c, 0, 72, 69
2, 26814, Note_on_c, 0, 69, 74
2, 26815, Note_on_c, 0, 55, 62
2, 26816, Note_on_c, 0, 65, 78
2, 26825, Control_c, 0, 64, 0
2, 26877, Note_on_c, 0, 72, 0
2, 26877, Control_c, 0, 64, 127
2, 26894, Note_on_c, 0, 72, 49
2, 26932, Note_on_c, 0, 72, 0
2, 26970, Note_on_c, 0, 72, 50
2, 26990, Note_on_c, 0, 55, 0
2, 27007, Note_on_c, 0, 61, 0
2, 27013, Note_on_c, 0, 72, 0
2, 27041, Note_on_c, 0, 69, 0
2, 27048, Note_on_c, 0, 65, 0
2, 27051, Note_on_c, 0, 72, 33
2, 27124, Note_on_c, 0, 72, 0
2, 27158, Note_on_c, 0, 72, 34
2, 27163, Note_on_c, 0, 64, 30
2, 27163, Note_on_c, 0, 66, 34
2, 27164, Note_on_c, 0, 54, 23
2, 27164, Note_on_c, 0, 60, 29
2, 27165, Note_on_c, 0, 50, 29
2, 27170, Control_c, 0, 64, 0
2, 27230, Control_c, 0, 64, 127
2, 27270, Note_on_c, 0, 54, 0
2, 27286, Note_on_c, 0, 54, 29
2, 27296, Note_on_c, 0, 72, 0
2, 27300, Note_on_c, 0, 66, 0
2, 27314, Note_on_c, 0, 60, 0
2, 27358, Note_on_c, 0, 64, 0
2, 27401, Note_on_c, 0, 66, 46
2, 27402, Note_on_c, 0, 60, 34
2, 27434, Note_on_c, 0, 60, 0
2, 27472, Note_on_c, 0, 66, 0
2, 27494, Note_on_c, 0, 54, 0
2, 27502, Note_on_c, 0, 50, 0
2, 27517, Note_on_c, 0, 66, 40
2, 27584, Note_on_c, 0, 66, 0
2, 27651, Note_on_c, 0, 50, 42
2, 27669, Note_on_c, 0, 43, 42
2, 27677, Note_on_c, 0, 60, 80
2, 27678, Note_on_c, 0, 67, 74
2, 27680, Note_on_c, 0, 50, 0
2, 27680, Note_on_c, 0, 52, 62
2, 27685, Control_c, 0, 64, 0
2, 27763, Control_c, 0, 64, 127
2, 27860, Note_on_c, 0, 57, 60
2, 27939, Note_on_c, 0, 60, 0
2, 27957, Note_on_c, 0, 67, 0
2, 27959, Note_on_c, 0, 57, 0
2, 27977, Note_on_c, 0, 52, 0
2, 28014, Note_on_c, 0, 67, 54
2, 28015, Note_on_c, 0, 59, 55
2, 28017, Control_c, 0, 64, 0
2, 28017, Note_on_c, 0, 50, 34
2, 28051, Control_c, 0, 64, 127
2, 28081, Note_on_c, 0, 59, 0
2, 28094, Note_on_c, 0, 67, 0
2, 28177, Note_on_c, 0, 76, 89
2, 28188, Note_on_c, 0, 43, 0
2, 28193, Note_on_c, 0, 50, 0
2, 28318, Note_on_c, 0, 65, 29
2, 28318, Note_on_c, 0, 69, 55
2, 28326, Note_on_c, 0, 60, 25
2, 28337, Control_c, 0, 64, 0
2, 28359, Control_c, 0, 64, 127
2, 28399, Note_on_c, 0, 76, 0
2, 28471, Note_on_c, 0, 74, 59
2, 28489, Note_on_c, 0, 60, 0
2, 28545, Note_on_c, 0, 69, 0
2, 28553, Note_on_c, 0, 74, 0
2, 28563, Note_on_c, 0, 65, 0
2, 28684, Note_on_c, 0, 63, 34
2, 28688, Note_on_c, 0, 59, 18
2, 28691, Note_on_c, 0, 43, 36
2, 28692, Note_on_c, 0, 53, 25
2, 28703, Control_c, 0, 64, 0
2, 28757, Control_c, 0, 64, 127
2, 28917, Note_on_c, 0, 68, 36
2, 28958, Note_on_c, 0, 43, 0
2, 28984, Note_on_c, 0, 53, 0
2, 29020, Note_on_c, 0, 59, 0
2, 29060, Note_on_c, 0, 68, 0
2, 29074, Note_on_c, 0, 63, 0
2, 29187, Note_on_c, 0, 43, 17
2, 29190, Note_on_c, 0, 67, 34
2, 29193, Note_on_c, 0, 62, 36
2, 29193, Note_on_c, 0, 36, 30
2, 29194, Note_on_c, 0, 59, 30
2, 29194, Note_on_c, 0, 57, 31
2, 29195, Note_on_c, 0, 52, 30
2, 29202, Control_c, 0, 64, 0
2, 29404, Control_c, 0, 64, 127
2, 29463, Note_on_c, 0, 57, 0
2, 29465, Note_on_c, 0, 59, 0
2, 29474, Note_on_c, 0, 62, 0
2, 29478, Note_on_c, 0, 67, 0
2, 29501, Note_on_c, 0, 84, 94
2, 29528, Note_on_c, 0, 36, 0
2, 29531, Note_on_c, 0, 43, 0
2, 29538, Note_on_c, 0, 52, 0
2, 29604, Note_on_c, 0, 84, 0
2, 29639, Note_on_c, 0, 84, 81
2, 29704, Note_on_c, 0, 84, 0
2, 29846, Note_on_c, 0, 72, 51
2, 29852, Control_c, 0, 64, 0
2, 29857, Note_on_c, 0, 45, 40
2, 29858, Note_on_c, 0, 67, 42
2, 29859, Note_on_c, 0, 60, 48
2, 29913, Control_c, 0, 64, 127
2, 29926, Note_on_c, 0, 72, 0
2, 29932, Note_on_c, 0, 60, 0
2, 29948, Note_on_c, 0, 67, 0
2, 29952, Note_on_c, 0, 74, 78
2, 29954, Note_on_c, 0, 52, 44
2, 30000, Note_on_c, 0, 74, 0
2, 30016, Note_on_c, 0, 45, 0
2, 30055, Note_on_c, 0, 72, 59
2, 30059, Note_on_c, 0, 59, 50
2, 30059, Note_on_c, 0, 67, 69
2, 30063, Note_on_c, 0, 62, 46
2, 30105, Note_on_c, 0, 67, 0
2, 30111, Note_on_c, 0, 72, 0
2, 30121, Note_on_c, 0, 59, 0
2, 30125, Note_on_c, 0, 62, 0
2, 30163, Note_on_c, 0, 71, 66
2, 30168, Note_on_c, 0, 57, 47
2, 30171, Note_on_c, 0, 64, 50
2, 30190, Note_on_c, 0, 52, 0
2, 30213, Note_on_c, 0, 64, 0
2, 30274, Note_on_c, 0, 71, 0
2, 30281, Control_c, 0, 64, 0
2, 30283, Note_on_c, 0, 57, 0
2, 30284, Note_on_c, 0, 69, 62
2, 30287, Note_on_c, 0, 60, 36
2, 30288, Note_on_c, 0, 65, 43
2, 30290, Note_on_c, 0, 50, 40
2, 30316, Control_c, 0, 64, 127
2, 30318, Note_on_c, 0, 60, 0
2, 30331, Note_on_c, 0, 65, 0
2, 30333, Note_on_c, 0, 69, 0
2, 30394, Note_on_c, 0, 76, 74
2, 30398, Note_on_c, 0, 61, 45
2, 30400, Note_on_c, 0, 70, 52
2, 30400, Control_c, 0, 64, 0
2, 30402, Note_on_c, 0, 67, 55
2, 30411, Control_c, 0, 64, 127
2, 30468, Note_on_c, 0, 67, 0
2, 30486, Note_on_c, 0, 70, 0
2, 30489, Note_on_c, 0, 61, 0
2, 30493, Note_on_c, 0, 76, 0
2, 30504, Control_c, 0, 64, 0
2, 30505, Note_on_c, 0, 74, 64
2, 30506, Note_on_c, 0, 50, 0
2, 30509, Note_on_c, 0, 65, 50
2, 30510, Note_on_c, 0, 60, 48
2, 30510, Note_on_c, 0, 69, 49
2, 30528, Control_c, 0, 64, 127
2, 30544, Note_on_c, 0, 65, 0
2, 30549, Note_on_c, 0, 69, 0
2, 30553, Note_on_c, 0, 74, 0
2, 30556, Note_on_c, 0, 60, 0
2, 30613, Note_on_c, 0, 73, 59
2, 30613, Note_on_c, 0, 70, 71
2, 30614, Note_on_c, 0, 79, 78
2, 30615, Note_on_c, 0, 64, 68
2, 30617, Control_c, 0, 64, 0
2, 30658, Control_c, 0, 64, 127
2, 30695, Note_on_c, 0, 70, 0
2, 30702, Note_on_c, 0, 73, 0
2, 30714, Note_on_c, 0, 79, 0
2, 30730, Note_on_c, 0, 64, 0
2, 30738, Control_c, 0, 64, 0
2, 30742, Note_on_c, 0, 77, 58
2, 30746, Note_on_c, 0, 62, 35
2, 30749, Control_c, 0, 64, 127
2, 30750, Note_on_c, 0, 69, 46
2, 30808, Note_on_c, 0, 69, 0
2, 30823, Note_on_c, 0, 77, 0
2, 30980, Note_on_c, 0, 62, 0
2, 31120, Note_on_c, 0, 82, 76
2, 31124, Note_on_c, 0, 73, 68
2, 31125, Note_on_c, 0, 76, 71
2, 31127, Note_on_c, 0, 67, 62
2, 31128, Note_on_c, 0, 79, 46
2, 31132, Control_c, 0, 64, 0
2, 31156, Control_c, 0, 64, 127
2, 31185, Note_on_c, 0, 79, 0
2, 31195, Note_on_c, 0, 76, 0
2, 31213, Note_on_c, 0, 82, 0
2, 31215, Note_on_c, 0, 73, 0
2, 31231, Note_on_c, 0, 67, 0
2, 31237, Note_on_c, 0, 81, 71
2, 31240, Note_on_c, 0, 74, 65
2, 31241, Note_on_c, 0, 72, 55
2, 31242, Note_on_c, 0, 65, 57
2, 31243, Control_c, 0, 64, 0
2, 31267, Control_c, 0, 64, 127
2, 31274, Note_on_c, 0, 81, 0
2, 31287, Note_on_c, 0, 72, 0
2, 31294, Note_on_c, 0, 74, 0
2, 31342, Note_on_c, 0, 65, 0
2, 31343, Note_on_c, 0, 79, 67
2, 31345, Note_on_c, 0, 73, 51
2, 31346, Note_on_c, 0, 70, 60
2, 31348, Note_on_c, 0, 64, 55
2, 31349, Control_c, 0, 64, 0
2, 31386, Control_c, 0, 64, 127
2, 31391, Note_on_c, 0, 79, 0
2, 31427, Note_on_c, 0, 70, 0
2, 31428, Note_on_c, 0, 64, 0
2, 31434, Note_on_c, 0, 73, 0
2, 31451, Note_on_c, 0, 77, 69
2, 31453, Note_on_c, 0, 62, 62
2, 31454, Note_on_c, 0, 69, 62
2, 31456, Note_on_c, 0, 72, 48
2, 31457, Control_c, 0, 64, 0
2, 31479, Control_c, 0, 64, 127
2, 31500, Note_on_c, 0, 77, 0
2, 31501, Note_on_c, 0, 72, 0
2, 31520, Note_on_c, 0, 69, 0
2, 31552, Note_on_c, 0, 62, 0
2, 31553, Note_on_c, 0, 76, 63
2, 31553, Note_on_c, 0, 70, 62
2, 31556, Note_on_c, 0, 67, 58
2, 31557, Note_on_c, 0, 61, 56
2, 31557, Control_c, 0, 64, 0
2, 31605, Control_c, 0, 64, 127
2, 31616, Note_on_c, 0, 76, 0
2, 31631, Note_on_c, 0, 67, 0
2, 31643, Note_on_c, 0, 70, 0
2, 31655, Note_on_c, 0, 61, 0
2, 31659, Control_c, 0, 64, 0
2, 31660, Note_on_c, 0, 74, 66
2, 31664, Note_on_c, 0, 65, 54
2, 31664, Note_on_c, 0, 69, 62
2, 31668, Note_on_c, 0, 60, 45
2, 31678, Control_c, 0, 64, 127
2, 31702, Note_on_c, 0, 69, 0
2, 31707, Note_on_c, 0, 74, 0
2, 31715, Note_on_c, 0, 65, 0
2, 31745, Note_on_c, 0, 60, 0
2, 31775, Note_on_c, 0, 72, 38
2, 31777, Note_on_c, 0, 69, 54
2, 31779, Note_on_c, 0, 65, 48
2, 31779, Note_on_c, 0, 60, 40
2, 31783, Note_on_c, 0, 57, 46
2, 31788, Note_on_c, 0, 71, 29
2, 31802, Note_on_c, 0, 57, 0
2, 31816, Note_on_c, 0, 69, 0
2, 31821, Note_on_c, 0, 72, 0
2, 31828, Note_on_c, 0, 60, 0
2, 31828, Note_on_c, 0, 65, 0
2, 31831, Note_on_c, 0, 71, 0
2, 31917, Control_c, 0, 64, 0
2, 31918, Note_on_c, 0, 53, 49
2, 31919, Note_on_c, 0, 60, 46
2, 31919, Note_on_c, 0, 69, 51
2, 31920, Note_on_c, 0, 65, 52
2, 31920, Note_on_c, 0, 50, 38
2, 31922, Note_on_c, 0, 43, 40
2, 31971, Control_c, 0, 64, 127
2, 31979, Note_on_c, 0, 65, 0
2, 31986, Note_on_c, 0, 69, 0
2, 31995, Note_on_c, 0, 60, 0
2, 32019, Note_on_c, 0, 53, 0
2, 32025, Note_on_c, 0, 43, 0
2, 32031, Note_on_c, 0, 50, 0
2, 32071, Note_on_c, 0, 53, 37
2, 32073, Note_on_c, 0, 57, 44
2, 32074, Note_on_c, 0, 43, 36
2, 32075, Note_on_c, 0, 60, 46
2, 32137, Note_on_c, 0, 43, 0
2, 32148, Note_on_c, 0, 53, 0
2, 32163, Note_on_c, 0, 57, 0
2, 32169, Note_on_c, 0, 60, 0
2, 32314, Note_on_c, 0, 67, 58
2, 32316, Note_on_c, 0, 63, 51
2, 32317, Note_on_c, 0, 59, 46
2, 32319, Note_on_c, 0, 53, 38
2, 32320, Control_c, 0, 64, 0
2, 32321, Note_on_c, 0, 43, 38
2, 32369, Control_c, 0, 64, 127
2, 32398, Note_on_c, 0, 67, 0
2, 32404, Note_on_c, 0, 63, 0
2, 32414, Note_on_c, 0, 53, 0
2, 32414, Note_on_c, 0, 59, 0
2, 32477, Note_on_c, 0, 70, 70
2, 32481, Note_on_c, 0, 63, 54
2, 32483, Note_on_c, 0, 59, 40
2, 32483, Note_on_c, 0, 53, 46
2, 32537, Note_on_c, 0, 70, 0
2, 32545, Note_on_c, 0, 59, 0
2, 32551, Note_on_c, 0, 53, 0
2, 32557, Note_on_c, 0, 63, 0
2, 32559, Note_on_c, 0, 43, 0
2, 32627, Note_on_c, 0, 67, 55
2, 32627, Control_c, 0, 64, 0
2, 32627, Note_on_c, 0, 57, 53
2, 32628, Note_on_c, 0, 62, 59
2, 32629, Note_on_c, 0, 43, 38
2, 32631, Note_on_c, 0, 52, 33
2, 32670, Control_c, 0, 64, 127
2, 32673, Note_on_c, 0, 57, 0
2, 32686, Note_on_c, 0, 62, 0
2, 32688, Note_on_c, 0, 67, 0
2, 32706, Note_on_c, 0, 43, 0
2, 32716, Note_on_c, 0, 52, 0
2, 32776, Note_on_c, 0, 79, 80
2, 32782, Note_on_c, 0, 60, 55
2, 32809, Note_on_c, 0, 79, 0
2, 32884, Note_on_c, 0, 76, 87
2, 32890, Note_on_c, 0, 67, 83
2, 32891, Note_on_c, 0, 64, 51
2, 32908, Note_on_c, 0, 60, 0
2, 32915, Note_on_c, 0, 64, 0
2, 32924, Note_on_c, 0, 76, 0
2, 32931, Note_on_c, 0, 67, 0
2, 33021, Note_on_c, 0, 72, 79
2, 33148, Note_on_c, 0, 72, 0
2, 33153, Note_on_c, 0, 71, 68
2, 33155, Note_on_c, 0, 44, 48
2, 33158, Control_c, 0, 64, 0
2, 33158, Note_on_c, 0, 53, 46
2, 33158, Note_on_c, 0, 62, 64
2, 33188, Control_c, 0, 64, 127
2, 33199, Note_on_c, 0, 44, 0
2, 33203, Note_on_c, 0, 62, 0
2, 33215, Note_on_c, 0, 53, 0
2, 33226, Note_on_c, 0, 71, 0
2, 33301, Note_on_c, 0, 79, 75
2, 33305, Note_on_c, 0, 71, 80
2, 33307, Note_on_c, 0, 74, 64
2, 33308, Note_on_c, 0, 68, 67
2, 33309, Note_on_c, 0, 67, 76
2, 33316, Note_on_c, 0, 77, 31
2, 33322, Control_c, 0, 64, 0
2, 33342, Control_c, 0, 64, 127
2, 33404, Note_on_c, 0, 67, 0
2, 33442, Note_on_c, 0, 79, 0
2, 33454, Note_on_c, 0, 77, 0
2, 33464, Note_on_c, 0, 74, 0
2, 33482, Note_on_c, 0, 71, 0
2, 33488, Note_on_c, 0, 68, 0
2, 33752, Note_on_c, 0, 88, 53
2, 33756, Note_on_c, 0, 80, 50
2, 33758, Note_on_c, 0, 77, 58
2, 33760, Note_on_c, 0, 56, 35
2, 33761, Note_on_c, 0, 65, 41
2, 33855, Note_on_c, 0, 88, 0
2, 33926, Note_on_c, 0, 86, 66
2, 33935, Note_on_c, 0, 65, 0
2, 33935, Note_on_c, 0, 62, 27
2, 33956, Note_on_c, 0, 62, 0
2, 33963, Note_on_c, 0, 56, 0
2, 33992, Note_on_c, 0, 86, 0
2, 34038, Note_on_c, 0, 77, 0
2, 34148, Note_on_c, 0, 84, 62
2, 34150, Note_on_c, 0, 80, 0
2, 34150, Control_c, 0, 64, 0
2, 34155, Note_on_c, 0, 45, 36
2, 34174, Control_c, 0, 64, 127
2, 34210, Note_on_c, 0, 84, 0
2, 34295, Note_on_c, 0, 52, 26
2, 34341, Note_on_c, 0, 45, 0
2, 34444, Note_on_c, 0, 64, 38
2, 34445, Note_on_c, 0, 60, 25
2, 34456, Note_on_c, 0, 59, 18
2, 34535, Note_on_c, 0, 59, 0
2, 34542, Note_on_c, 0, 60, 0
2, 34559, Note_on_c, 0, 64, 0
2, 34686, Note_on_c, 0, 72, 64
2, 34687, Note_on_c, 0, 57, 49
2, 34772, Note_on_c, 0, 72, 0
2, 34773, Note_on_c, 0, 57, 0
2, 34831, Note_on_c, 0, 72, 68
2, 34836, Note_on_c, 0, 67, 76
2, 34838, Note_on_c, 0, 64, 70
2, 34839, Control_c, 0, 64, 0
2, 34839, Note_on_c, 0, 55, 59
2, 34864, Note_on_c, 0, 52, 0
2, 34901, Control_c, 0, 64, 127
2, 34915, Note_on_c, 0, 72, 0
2, 34933, Note_on_c, 0, 74, 84
2, 34976, Note_on_c, 0, 74, 0
2, 34983, Note_on_c, 0, 67, 0
2, 34991, Note_on_c, 0, 55, 0
2, 34992, Note_on_c, 0, 64, 0
2, 35021, Note_on_c, 0, 72, 51
2, 35025, Note_on_c, 0, 67, 64
2, 35026, Note_on_c, 0, 64, 47
2, 35029, Note_on_c, 0, 55, 34
2, 35103, Note_on_c, 0, 55, 0
2, 35119, Note_on_c, 0, 72, 0
2, 35129, Note_on_c, 0, 71, 61
2, 35166, Note_on_c, 0, 67, 0
2, 35173, Note_on_c, 0, 71, 0
2, 35173, Note_on_c, 0, 64, 0
2, 35254, Control_c, 0, 64, 0
2, 35258, Note_on_c, 0, 69, 60
2, 35260, Note_on_c, 0, 62, 60
2, 35262, Note_on_c, 0, 66, 36
2, 35262, Note_on_c, 0, 57, 49
2, 35263, Note_on_c, 0, 42, 43
2, 35287, Control_c, 0, 64, 127
2, 35290, Note_on_c, 0, 57, 0
2, 35297, Note_on_c, 0, 42, 0
2, 35301, Note_on_c, 0, 62, 0
2, 35307, Note_on_c, 0, 66, 0
2, 35311, Note_on_c, 0, 69, 0
2, 35392, Note_on_c, 0, 81, 71
2, 35394, Note_on_c, 0, 74, 66
2, 35398, Note_on_c, 0, 58, 45
2, 35465, Note_on_c, 0, 74, 0
2, 35522, Note_on_c, 0, 81, 0
2, 35528, Note_on_c, 0, 78, 33
2, 35531, Note_on_c, 0, 74, 43
2, 35533, Note_on_c, 0, 69, 44
2, 35539, Note_on_c, 0, 64, 33
2, 35621, Note_on_c, 0, 58, 0
2, 35635, Note_on_c, 0, 78, 0
2, 35641, Note_on_c, 0, 74, 0
2, 35652, Note_on_c, 0, 69, 0
2, 35671, Note_on_c, 0, 64, 0
2, 35824, Control_c, 0, 64, 0
2, 35830, Note_on_c, 0, 35, 54
2, 35874, Control_c, 0, 64, 127
2, 35889, Note_on_c, 0, 35, 0
2, 36156, Note_on_c, 0, 63, 29
2, 36159, Note_on_c, 0, 59, 35
2, 36160, Note_on_c, 0, 57, 36
2, 36160, Note_on_c, 0, 65, 37
2, 36160, Note_on_c, 0, 51, 29
2, 36162, Note_on_c, 0, 47, 31
2, 36295, Note_on_c, 0, 57, 0
2, 36297, Note_on_c, 0, 59, 0
2, 36315, Note_on_c, 0, 65, 0
2, 36332, Note_on_c, 0, 63, 0
2, 36444, Note_on_c, 0, 79, 65
2, 36454, Note_on_c, 0, 71, 64
2, 36527, Note_on_c, 0, 79, 0
2, 36546, Note_on_c, 0, 71, 0
2, 36747, Note_on_c, 0, 81, 61
2, 36758, Note_on_c, 0, 72, 41
2, 36766, Note_on_c, 0, 47, 0
2, 36774, Note_on_c, 0, 51, 0
2, 36964, Note_on_c, 0, 72, 0
2, 36988, Note_on_c, 0, 81, 0
2, 37210, Note_on_c, 0, 83, 84
2, 37211, Note_on_c, 0, 74, 89
2, 37212, Note_on_c, 0, 79, 80
2, 37213, Note_on_c, 0, 62, 79
2, 37213, Note_on_c, 0, 67, 85
2, 37214, Note_on_c, 0, 56, 77
2, 37222, Control_c, 0, 64, 0
2, 37266, Control_c, 0, 64, 127
2, 37280, Note_on_c, 0, 83, 0
2, 37300, Note_on_c, 0, 83, 68
2, 37337, Note_on_c, 0, 83, 0
2, 37373, Note_on_c, 0, 83, 74
2, 37409, Note_on_c, 0, 83, 0
2, 37465, Note_on_c, 0, 83, 66
2, 37491, Note_on_c, 0, 67, 0
2, 37496, Note_on_c, 0, 79, 0
2, 37504, Note_on_c, 0, 62, 0
2, 37508, Note_on_c, 0, 74, 0
2, 37515, Note_on_c, 0, 83, 0
2, 37531, Note_on_c, 0, 56, 0
2, 37804, Note_on_c, 0, 85, 67
2, 37806, Note_on_c, 0, 66, 43
2, 37809, Note_on_c, 0, 61, 51
2, 37809, Note_on_c, 0, 73, 21
2, 37810, Note_on_c, 0, 55, 50
2, 37811, Note_on_c, 0, 77, 42
2, 37814, Control_c, 0, 64, 0
2, 37874, Control_c, 0, 64, 127
2, 37909, Note_on_c, 0, 85, 0
2, 37933, Note_on_c, 0, 85, 59
2, 38013, Note_on_c, 0, 85, 0
2, 38051, Note_on_c, 0, 85, 49
2, 38089, Note_on_c, 0, 85, 0
2, 38131, Note_on_c, 0, 66, 0
2, 38138, Note_on_c, 0, 55, 0
2, 38149, Note_on_c, 0, 85, 62
2, 38159, Note_on_c, 0, 73, 0
2, 38160, Note_on_c, 0, 77, 0
2, 38197, Note_on_c, 0, 85, 0
2, 38206, Note_on_c, 0, 61, 0
2, 38277, Note_on_c, 0, 86, 68
2, 38282, Note_on_c, 0, 54, 42
2, 38284, Note_on_c, 0, 82, 39
2, 38285, Note_on_c, 0, 77, 36
2, 38288, Note_on_c, 0, 65, 30
2, 38288, Note_on_c, 0, 60, 44
2, 38289, Control_c, 0, 64, 0
2, 38343, Control_c, 0, 64, 127
2, 38379, Note_on_c, 0, 86, 0
2, 38384, Note_on_c, 0, 65, 0
2, 38388, Note_on_c, 0, 60, 0
2, 38408, Note_on_c, 0, 54, 0
2, 38422, Note_on_c, 0, 86, 52
2, 38479, Note_on_c, 0, 86, 0
2, 38579, Note_on_c, 0, 26, 36
2, 38583, Note_on_c, 0, 86, 41
2, 38622, Note_on_c, 0, 26, 0
2, 38666, Note_on_c, 0, 86, 0
2, 38783, Note_on_c, 0, 86, 32
2, 38871, Note_on_c, 0, 82, 0
2, 38872, Note_on_c, 0, 86, 0
2, 38876, Note_on_c, 0, 77, 0
2, 39118, Note_on_c, 0, 70, 35
2, 39120, Note_on_c, 0, 74, 26
2, 39121, Note_on_c, 0, 54, 25
2, 39122, Note_on_c, 0, 64, 22
2, 39122, Note_on_c, 0, 66, 21
2, 39123, Note_on_c, 0, 68, 37
2, 39123, Note_on_c, 0, 60, 32
2, 39162, Control_c, 0, 64, 0
2, 39210, Control_c, 0, 64, 127
2, 39269, Note_on_c, 0, 60, 0
2, 39278, Note_on_c, 0, 54, 0
2, 39505, Note_on_c, 0, 26, 24
2, 39566, Note_on_c, 0, 64, 0
2, 39578, Note_on_c, 0, 68, 0
2, 39580, Note_on_c, 0, 26, 0
2, 39582, Note_on_c, 0, 66, 0
2, 39583, Note_on_c, 0, 74, 0
2, 39584, Note_on_c, 0, 70, 0
2, 39884, Control_c, 0, 64, 127
2, 39934, Note_on_c, 0, 74, 24
2, 39962, Note_on_c, 0, 74, 0
2, 39977, Note_on_c, 0, 76, 17
2, 39991, Note_on_c, 0, 76, 0
2, 39997, Note_on_c, 0, 74, 44
2, 40013, Note_on_c, 0, 74, 0
2, 40025, Note_on_c, 0, 76, 25
2, 40043, Note_on_c, 0, 76, 0
2, 40045, Note_on_c, 0, 74, 43
2, 40061, Note_on_c, 0, 74, 0
2, 40070, Note_on_c, 0, 76, 26
2, 40087, Note_on_c, 0, 76, 0
2, 40089, Note_on_c, 0, 74, 44
2, 40104, Note_on_c, 0, 74, 0
2, 40114, Note_on_c, 0, 76, 28
2, 40129, Note_on_c, 0, 76, 0
2, 40131, Note_on_c, 0, 74, 41
2, 40144, Note_on_c, 0, 74, 0
2, 40151, Note_on_c, 0, 76, 35
2, 40168, Note_on_c, 0, 76, 0
2, 40170, Note_on_c, 0, 74, 48
2, 40184, Note_on_c, 0, 74, 0
2, 40188, Note_on_c, 0, 76, 50
2, 40205, Note_on_c, 0, 76, 0
2, 40208, Note_on_c, 0, 74, 49
2, 40222, Note_on_c, 0, 74, 0
2, 40225, Note_on_c, 0, 76, 48
2, 40240, Note_on_c, 0, 76, 0
2, 40243, Note_on_c, 0, 74, 48
2, 40258, Note_on_c, 0, 74, 0
2, 40261, Note_on_c, 0, 76, 42
2, 40280, Note_on_c, 0, 76, 0
2, 40281, Note_on_c, 0, 74, 42
2, 40295, Note_on_c, 0, 74, 0
2, 40299, Note_on_c, 0, 76, 28
2, 40315, Note_on_c, 0, 76, 0
2, 40317, Note_on_c, 0, 74, 36
2, 40333, Note_on_c, 0, 74, 0
2, 40339, Note_on_c, 0, 76, 30
2, 40356, Note_on_c, 0, 76, 0
2, 40357, Note_on_c, 0, 74, 35
2, 40373, Note_on_c, 0, 74, 0
2, 40381, Note_on_c, 0, 76, 24
2, 40395, Note_on_c, 0, 76, 0
2, 40396, Note_on_c, 0, 74, 34
2, 40413, Note_on_c, 0, 74, 0
2, 40421, Note_on_c, 0, 76, 24
2, 40436, Note_on_c, 0, 76, 0
2, 40437, Note_on_c, 0, 74, 34
2, 40449, Note_on_c, 0, 98, 49
2, 40453, Note_on_c, 0, 85, 36
2, 40454, Note_on_c, 0, 74, 0
2, 40460, Note_on_c, 0, 76, 27
2, 40477, Note_on_c, 0, 76, 0
2, 40477, Note_on_c, 0, 74, 35
2, 40490, Note_on_c, 0, 85, 0
2, 40491, Note_on_c, 0, 98, 0
2, 40496, Note_on_c, 0, 74, 0
2, 40500, Note_on_c, 0, 76, 32
2, 40517, Note_on_c, 0, 76, 0
2, 40517, Note_on_c, 0, 74, 32
2, 40535, Note_on_c, 0, 74, 0
2, 40540, Note_on_c, 0, 76, 36
2, 40555, Note_on_c, 0, 74, 32
2, 40556, Note_on_c, 0, 76, 0
2, 40574, Note_on_c, 0, 74, 0
2, 40578, Note_on_c, 0, 76, 36
2, 40590, Note_on_c, 0, 100, 69
2, 40591, Note_on_c, 0, 76, 0
2, 40592, Note_on_c, 0, 74, 41
2, 40594, Note_on_c, 0, 87, 65
2, 40594, Note_on_c, 0, 99, 60
2, 40611, Note_on_c, 0, 74, 0
2, 40614, Note_on_c, 0, 76, 45
2, 40630, Note_on_c, 0, 76, 0
2, 40632, Note_on_c, 0, 74, 40
2, 40643, Note_on_c, 0, 100, 0
2, 40644, Note_on_c, 0, 99, 0
2, 40648, Note_on_c, 0, 74, 0
2, 40650, Note_on_c, 0, 76, 53
2, 40663, Note_on_c, 0, 87, 0
2, 40665, Note_on_c, 0, 76, 0
2, 40668, Note_on_c, 0, 74, 44
2, 40685, Note_on_c, 0, 74, 0
2, 40687, Note_on_c, 0, 76, 43
2, 40703, Note_on_c, 0, 76, 0
2, 40704, Note_on_c, 0, 74, 36
2, 40706, Note_on_c, 0, 98, 73
2, 40707, Note_on_c, 0, 85, 60
2, 40710, Note_on_c, 0, 97, 42
2, 40721, Note_on_c, 0, 74, 0
2, 40725, Note_on_c, 0, 76, 35
2, 40741, Note_on_c, 0, 76, 0
2, 40742, Note_on_c, 0, 74, 36
2, 40759, Note_on_c, 0, 74, 0
2, 40763, Note_on_c, 0, 97, 0
2, 40763, Note_on_c, 0, 76, 33
2, 40764, Note_on_c, 0, 98, 0
2, 40765, Note_on_c, 0, 85, 0
2, 40780, Note_on_c, 0, 76, 0
2, 40780, Note_on_c, 0, 74, 34
2, 40790, Note_on_c, 0, 98, 68
2, 40791, Note_on_c, 0, 85, 63
2, 40794, Note_on_c, 0, 97, 37
2, 40799, Note_on_c, 0, 74, 0
2, 40801, Note_on_c, 0, 76, 39
2, 40820, Note_on_c, 0, 76, 0
2, 40820, Note_on_c, 0, 74, 35
2, 40833, Note_on_c, 0, 97, 0
2, 40834, Note_on_c, 0, 85, 0
2, 40835, Note_on_c, 0, 98, 0
2, 40839, Note_on_c, 0, 74, 0
2, 40841, Note_on_c, 0, 76, 40
2, 40860, Note_on_c, 0, 76, 0
2, 40862, Note_on_c, 0, 85, 62
2, 40862, Note_on_c, 0, 74, 40
2, 40863, Note_on_c, 0, 98, 64
2, 40866, Note_on_c, 0, 97, 30
2, 40878, Note_on_c, 0, 74, 0
2, 40879, Note_on_c, 0, 97, 0
2, 40880, Note_on_c, 0, 85, 0
2, 40880, Note_on_c, 0, 76, 53
2, 40882, Note_on_c, 0, 98, 0
2, 40899, Note_on_c, 0, 76, 0
2, 40899, Note_on_c, 0, 74, 46
2, 40917, Note_on_c, 0, 74, 0
2, 40918, Note_on_c, 0, 76, 55
2, 40936, Note_on_c, 0, 74, 42
2, 40937, Note_on_c, 0, 76, 0
2, 40951, Note_on_c, 0, 100, 74
2, 40952, Note_on_c, 0, 87, 62
2, 40955, Note_on_c, 0, 99, 46
2, 40956, Note_on_c, 0, 74, 0
2, 40957, Note_on_c, 0, 76, 51
2, 40975, Note_on_c, 0, 74, 42
2, 40976, Note_on_c, 0, 76, 0
2, 40989, Note_on_c, 0, 100, 0
2, 40994, Note_on_c, 0, 99, 0
2, 40994, Note_on_c, 0, 74, 0
2, 40996, Note_on_c, 0, 76, 51
2, 41008, Note_on_c, 0, 87, 0
2, 41010, Note_on_c, 0, 76, 0
2, 41011, Note_on_c, 0, 74, 50
2, 41028, Note_on_c, 0, 74, 0
2, 41029, Note_on_c, 0, 76, 52
2, 41048, Note_on_c, 0, 85, 53
2, 41049, Note_on_c, 0, 76, 0
2, 41051, Note_on_c, 0, 98, 57
2, 41053, Note_on_c, 0, 74, 41
2, 41055, Note_on_c, 0, 97, 32
2, 41065, Note_on_c, 0, 74, 0
2, 41069, Note_on_c, 0, 76, 31
2, 41086, Note_on_c, 0, 76, 0
2, 41090, Note_on_c, 0, 74, 38
2, 41097, Note_on_c, 0, 98, 0
2, 41098, Note_on_c, 0, 85, 0
2, 41104, Note_on_c, 0, 97, 0
2, 41108, Note_on_c, 0, 74, 0
2, 41111, Note_on_c, 0, 76, 31
2, 41128, Note_on_c, 0, 76, 0
2, 41129, Note_on_c, 0, 74, 34
2, 41141, Note_on_c, 0, 85, 50
2, 41144, Note_on_c, 0, 98, 49
2, 41146, Note_on_c, 0, 74, 0
2, 41146, Note_on_c, 0, 97, 28
2, 41150, Note_on_c, 0, 76, 36
2, 41160, Note_on_c, 0, 85, 0
2, 41167, Note_on_c, 0, 97, 0
2, 41168, Note_on_c, 0, 98, 0
2, 41168, Note_on_c, 0, 76, 0
2, 41168, Note_on_c, 0, 74, 34
2, 41186, Note_on_c, 0, 74, 0
2, 41189, Note_on_c, 0, 76, 41
2, 41209, Note_on_c, 0, 76, 0
2, 41209, Note_on_c, 0, 74, 36
2, 41212, Control_c, 0, 64, 0
2, 41227, Note_on_c, 0, 74, 0
2, 41231, Note_on_c, 0, 76, 38
2, 41250, Note_on_c, 0, 76, 0
2, 41250, Note_on_c, 0, 74, 36
2, 41268, Note_on_c, 0, 74, 0
2, 41273, Note_on_c, 0, 76, 29
2, 41289, Note_on_c, 0, 76, 0
2, 41289, Note_on_c, 0, 74, 35
2, 41308, Note_on_c, 0, 74, 0
2, 41312, Note_on_c, 0, 76, 34
2, 41331, Note_on_c, 0, 74, 33
2, 41332, Note_on_c, 0, 76, 0
2, 41349, Note_on_c, 0, 74, 0
2, 41353, Note_on_c, 0, 76, 31
2, 41372, Note_on_c, 0, 76, 0
2, 41372, Note_on_c, 0, 74, 38
2, 41391, Note_on_c, 0, 103, 54
2, 41392, Note_on_c, 0, 74, 0
2, 41395, Note_on_c, 0, 90, 35
2, 41396, Note_on_c, 0, 76, 34
2, 41416, Note_on_c, 0, 74, 32
2, 41417, Note_on_c, 0, 76, 0
2, 41428, Note_on_c, 0, 103, 0
2, 41433, Note_on_c, 0, 74, 0
2, 41439, Note_on_c, 0, 76, 32
2, 41446, Note_on_c, 0, 90, 0
2, 41459, Note_on_c, 0, 74, 38
2, 41460, Note_on_c, 0, 76, 0
2, 41477, Control_c, 0, 64, 127
2, 41480, Note_on_c, 0, 74, 0
2, 41482, Note_on_c, 0, 76, 35
2, 41502, Note_on_c, 0, 74, 35
2, 41504, Note_on_c, 0, 76, 0
2, 41521, Note_on_c, 0, 74, 0
2, 41524, Note_on_c, 0, 100, 58
2, 41526, Note_on_c, 0, 87, 53
2, 41526, Note_on_c, 0, 76, 36
2, 41545, Note_on_c, 0, 76, 0
2, 41545, Note_on_c, 0, 74, 42
2, 41564, Note_on_c, 0, 74, 0
2, 41565, Note_on_c, 0, 100, 0
2, 41566, Note_on_c, 0, 76, 41
2, 41584, Note_on_c, 0, 74, 38
2, 41585, Note_on_c, 0, 76, 0
2, 41596, Note_on_c, 0, 87, 0
2, 41603, Note_on_c, 0, 74, 0
2, 41604, Note_on_c, 0, 76, 54
2, 41621, Note_on_c, 0, 74, 45
2, 41623, Note_on_c, 0, 76, 0
2, 41641, Note_on_c, 0, 74, 0
2, 41641, Note_on_c, 0, 76, 64
2, 41659, Note_on_c, 0, 74, 54
2, 41661, Note_on_c, 0, 76, 0
2, 41676, Note_on_c, 0, 74, 0
2, 41676, Note_on_c, 0, 76, 66
2, 41680, Note_on_c, 0, 98, 57
2, 41683, Note_on_c, 0, 85, 37
2, 41695, Note_on_c, 0, 76, 0
2, 41695, Note_on_c, 0, 74, 52
2, 41712, Note_on_c, 0, 76, 54
2, 41714, Note_on_c, 0, 74, 0
2, 41729, Note_on_c, 0, 76, 0
2, 41731, Note_on_c, 0, 74, 53
2, 41749, Note_on_c, 0, 76, 37
2, 41750, Note_on_c, 0, 74, 0
2, 41763, Note_on_c, 0, 98, 0
2, 41764, Note_on_c, 0, 85, 0
2, 41769, Note_on_c, 0, 76, 0
2, 41770, Note_on_c, 0, 74, 41
2, 41787, Note_on_c, 0, 74, 0
2, 41789, Control_c, 0, 64, 0
2, 41789, Note_on_c, 0, 76, 40
2, 41805, Note_on_c, 0, 76, 0
2, 41806, Note_on_c, 0, 74, 43
2, 41825, Note_on_c, 0, 74, 0
2, 41826, Note_on_c, 0, 76, 37
2, 41830, Note_on_c, 0, 98, 36
2, 41831, Note_on_c, 0, 85, 36
2, 41844, Note_on_c, 0, 76, 0
2, 41845, Note_on_c, 0, 74, 39
2, 41863, Note_on_c, 0, 74, 0
2, 41863, Note_on_c, 0, 76, 39
2, 41882, Note_on_c, 0, 76, 0
2, 41883, Note_on_c, 0, 74, 42
2, 41904, Note_on_c, 0, 74, 0
2, 41904, Note_on_c, 0, 76, 33
2, 41921, Note_on_c, 0, 74, 17
2, 41925, Note_on_c, 0, 76, 0
2, 41946, Note_on_c, 0, 74, 0
2, 41948, Note_on_c, 0, 76, 34
2, 41965, Note_on_c, 0, 76, 0
2, 41966, Note_on_c, 0, 74, 31
2, 41986, Note_on_c, 0, 74, 0
2, 41986, Note_on_c, 0, 76, 37
2, 42004, Note_on_c, 0, 76, 0
2, 42006, Note_on_c, 0, 74, 32
2, 42027, Note_on_c, 0, 74, 0
2, 42027, Note_on_c, 0, 76, 32
2, 42044, Note_on_c, 0, 76, 0
2, 42044, Note_on_c, 0, 74, 25
2, 42066, Note_on_c, 0, 76, 35
2, 42067, Control_c, 0, 64, 127
2, 42068, Note_on_c, 0, 74, 0
2, 42089, Note_on_c, 0, 74, 24
2, 42091, Note_on_c, 0, 76, 0
2, 42159, Note_on_c, 0, 36, 30
2, 42180, Note_on_c, 0, 35, 39
2, 42183, Note_on_c, 0, 74, 0
2, 42196, Note_on_c, 0, 36, 0
2, 42205, Note_on_c, 0, 34, 34
2, 42213, Note_on_c, 0, 35, 0
2, 42224, Note_on_c, 0, 33, 24
2, 42233, Note_on_c, 0, 34, 0
2, 42233, Note_on_c, 0, 33, 68
2, 42259, Control_c, 0, 64, 0
2, 42303, Note_on_c, 0, 33, 0
2, 42312, Control_c, 0, 64, 127
2, 42345, Note_on_c, 0, 52, 32
2, 42352, Note_on_c, 0, 98, 0
2, 42365, Note_on_c, 0, 33, 0
2, 42367, Note_on_c, 0, 85, 0
2, 42436, Note_on_c, 0, 59, 32
2, 42517, Note_on_c, 0, 60, 49
2, 42521, Note_on_c, 0, 52, 0
2, 42528, Control_c, 0, 64, 0
2, 42624, Note_on_c, 0, 60, 0
2, 42626, Note_on_c, 0, 59, 0
2, 42628, Note_on_c, 0, 62, 44
2, 42634, Note_on_c, 0, 50, 26
2, 42702, Control_c, 0, 64, 127
2, 42733, Note_on_c, 0, 64, 55
2, 42735, Note_on_c, 0, 57, 35
2, 42768, Note_on_c, 0, 62, 0
2, 42794, Note_on_c, 0, 64, 0
2, 42855, Note_on_c, 0, 66, 52
2, 42864, Note_on_c, 0, 60, 29
2, 42953, Note_on_c, 0, 60, 0
2, 42998, Note_on_c, 0, 57, 0
2, 43019, Note_on_c, 0, 67, 57
2, 43037, Note_on_c, 0, 50, 0
2, 43045, Note_on_c, 0, 66, 0
2, 43176, Note_on_c, 0, 67, 0
2, 43185, Note_on_c, 0, 43, 35
2, 43187, Note_on_c, 0, 69, 40
2, 43192, Control_c, 0, 64, 0
2, 43233, Control_c, 0, 64, 127
2, 43309, Note_on_c, 0, 69, 0
2, 43313, Note_on_c, 0, 71, 53
2, 43317, Note_on_c, 0, 50, 27
2, 43364, Note_on_c, 0, 71, 0
2, 43467, Note_on_c, 0, 59, 26
2, 43574, Note_on_c, 0, 86, 90
2, 43588, Note_on_c, 0, 43, 0
2, 43642, Note_on_c, 0, 50, 0
2, 43648, Note_on_c, 0, 86, 0
2, 43659, Note_on_c, 0, 59, 0
2, 43661, Note_on_c, 0, 79, 61
2, 43698, Note_on_c, 0, 79, 0
2, 43907, Note_on_c, 0, 83, 66
2, 43910, Note_on_c, 0, 74, 49
2, 43913, Note_on_c, 0, 59, 36
2, 43982, Note_on_c, 0, 74, 0
2, 44021, Note_on_c, 0, 83, 0
2, 44038, Note_on_c, 0, 74, 51
2, 44049, Note_on_c, 0, 69, 32
2, 44088, Note_on_c, 0, 69, 0
2, 44128, Note_on_c, 0, 74, 0
2, 44160, Note_on_c, 0, 67, 30
2, 44161, Note_on_c, 0, 79, 67
2, 44189, Note_on_c, 0, 67, 0
2, 44250, Note_on_c, 0, 79, 0
2, 44263, Note_on_c, 0, 59, 0
2, 44265, Note_on_c, 0, 74, 51
2, 44270, Note_on_c, 0, 67, 43
2, 44307, Note_on_c, 0, 74, 0
2, 44320, Note_on_c, 0, 67, 0
2, 44389, Note_on_c, 0, 77, 58
2, 44390, Note_on_c, 0, 69, 62
2, 44392, Note_on_c, 0, 61, 45
2, 44392, Note_on_c, 0, 65, 51
2, 44407, Control_c, 0, 64, 0
2, 44453, Control_c, 0, 64, 127
2, 44492, Note_on_c, 0, 77, 0
2, 44494, Note_on_c, 0, 65, 0
2, 44497, Note_on_c, 0, 69, 0
2, 44516, Note_on_c, 0, 61, 0
2, 44519, Note_on_c, 0, 65, 46
2, 44520, Note_on_c, 0, 76, 55
2, 44521, Note_on_c, 0, 69, 40
2, 44525, Note_on_c, 0, 60, 45
2, 44528, Control_c, 0, 64, 0
2, 44559, Control_c, 0, 64, 127
2, 44580, Note_on_c, 0, 76, 0
2, 44584, Note_on_c, 0, 69, 0
2, 44595, Note_on_c, 0, 65, 0
2, 44633, Note_on_c, 0, 60, 0
2, 44661, Note_on_c, 0, 69, 48
2, 44665, Note_on_c, 0, 65, 36
2, 44666, Note_on_c, 0, 57, 40
2, 44666, Note_on_c, 0, 60, 29
2, 44702, Note_on_c, 0, 69, 0
2, 44706, Note_on_c, 0, 65, 0
2, 44708, Note_on_c, 0, 57, 0
2, 44720, Note_on_c, 0, 60, 0
2, 44819, Note_on_c, 0, 53, 59
2, 44822, Note_on_c, 0, 57, 55
2, 44824, Note_on_c, 0, 60, 54
2, 44824, Note_on_c, 0, 43, 32
2, 44825, Note_on_c, 0, 50, 31
2, 44842, Control_c, 0, 64, 0
2, 44879, Note_on_c, 0, 50, 0
2, 44883, Note_on_c, 0, 43, 0
2, 44885, Note_on_c, 0, 60, 0
2, 44886, Note_on_c, 0, 57, 0
2, 44889, Note_on_c, 0, 53, 0
2, 44981, Control_c, 0, 64, 127
2, 45092, Note_on_c, 0, 53, 33
2, 45093, Note_on_c, 0, 43, 31
2, 45093, Note_on_c, 0, 50, 32
2, 45095, Note_on_c, 0, 57, 40
2, 45098, Note_on_c, 0, 60, 42
2, 45159, Note_on_c, 0, 43, 0
2, 45174, Note_on_c, 0, 50, 0
2, 45180, Note_on_c, 0, 53, 0
2, 45185, Note_on_c, 0, 60, 0
2, 45189, Note_on_c, 0, 57, 0
2, 45286, Note_on_c, 0, 56, 31
2, 45287, Note_on_c, 0, 62, 37
2, 45289, Note_on_c, 0, 43, 32
2, 45289, Note_on_c, 0, 59, 44
2, 45296, Note_on_c, 0, 53, 22
2, 45297, Control_c, 0, 64, 0
2, 45364, Control_c, 0, 64, 127
2, 45434, Note_on_c, 0, 59, 0
2, 45439, Note_on_c, 0, 56, 0
2, 45443, Note_on_c, 0, 62, 0
2, 45538, Note_on_c, 0, 65, 92
2, 45599, Note_on_c, 0, 43, 0
2, 45623, Note_on_c, 0, 53, 0
2, 45704, Note_on_c, 0, 65, 0
2, 45720, Note_on_c, 0, 65, 30
2, 45750, Note_on_c, 0, 65, 0
2, 45819, Note_on_c, 0, 76, 80
2, 45827, Note_on_c, 0, 67, 66
2, 45832, Control_c, 0, 64, 0
2, 45834, Note_on_c, 0, 48, 44
2, 45891, Control_c, 0, 64, 127
2, 46018, Note_on_c, 0, 67, 0
2, 46023, Note_on_c, 0, 55, 41
2, 46024, Note_on_c, 0, 48, 0
2, 46068, Note_on_c, 0, 76, 0
2, 46182, Note_on_c, 0, 64, 38
2, 46245, Note_on_c, 0, 55, 0
2, 46307, Note_on_c, 0, 64, 0
2, 46322, Note_on_c, 0, 55, 30
2, 46456, Note_on_c, 0, 78, 36
2, 46457, Note_on_c, 0, 55, 0
2, 46457, Note_on_c, 0, 69, 30
2, 46458, Note_on_c, 0, 48, 39
2, 46465, Control_c, 0, 64, 0
2, 46498, Control_c, 0, 64, 127
2, 46559, Note_on_c, 0, 57, 41
2, 46562, Note_on_c, 0, 69, 0
2, 46564, Note_on_c, 0, 48, 0
2, 46595, Note_on_c, 0, 78, 0
2, 46674, Note_on_c, 0, 81, 54
2, 46682, Note_on_c, 0, 69, 60
2, 46684, Note_on_c, 0, 66, 44
2, 46729, Note_on_c, 0, 57, 0
2, 46766, Note_on_c, 0, 66, 0
2, 46817, Note_on_c, 0, 57, 42
2, 46847, Note_on_c, 0, 57, 0
2, 46856, Note_on_c, 0, 81, 0
2, 46865, Note_on_c, 0, 69, 0
2, 46953, Note_on_c, 0, 47, 43
2, 46954, Note_on_c, 0, 79, 53
2, 46955, Note_on_c, 0, 71, 50
2, 46969, Control_c, 0, 64, 0
2, 47015, Control_c, 0, 64, 127
2, 47052, Note_on_c, 0, 79, 0
2, 47053, Note_on_c, 0, 55, 50
2, 47064, Note_on_c, 0, 71, 0
2, 47153, Note_on_c, 0, 71, 57
2, 47157, Note_on_c, 0, 67, 55
2, 47158, Note_on_c, 0, 62, 41
2, 47171, Note_on_c, 0, 59, 17
2, 47186, Note_on_c, 0, 55, 0
2, 47210, Note_on_c, 0, 59, 0
2, 47223, Note_on_c, 0, 47, 0
2, 47272, Note_on_c, 0, 47, 33
2, 47278, Note_on_c, 0, 67, 0
2, 47292, Note_on_c, 0, 47, 0
2, 47332, Note_on_c, 0, 62, 0
2, 47412, Note_on_c, 0, 28, 44
2, 47416, Control_c, 0, 64, 0
2, 47431, Note_on_c, 0, 71, 0
2, 47448, Control_c, 0, 64, 127
2, 47476, Note_on_c, 0, 28, 0
2, 47938, Note_on_c, 0, 78, 62
2, 47943, Note_on_c, 0, 75, 47
2, 47943, Note_on_c, 0, 71, 56
2, 47944, Note_on_c, 0, 67, 43
2, 47945, Note_on_c, 0, 63, 37
2, 47984, Note_on_c, 0, 71, 0
2, 47997, Note_on_c, 0, 67, 0
2, 48010, Note_on_c, 0, 75, 0
2, 48018, Note_on_c, 0, 78, 0
2, 48023, Note_on_c, 0, 63, 0
2, 48036, Note_on_c, 0, 79, 66
2, 48040, Note_on_c, 0, 64, 50
2, 48040, Note_on_c, 0, 74, 68
2, 48041, Note_on_c, 0, 69, 39
2, 48043, Note_on_c, 0, 71, 38
2, 48044, Control_c, 0, 64, 0
2, 48068, Control_c, 0, 64, 127
2, 48077, Note_on_c, 0, 69, 0
2, 48089, Note_on_c, 0, 71, 0
2, 48101, Note_on_c, 0, 74, 0
2, 48108, Note_on_c, 0, 79, 0
2, 48116, Note_on_c, 0, 64, 0
2, 48212, Note_on_c, 0, 81, 67
2, 48213, Note_on_c, 0, 57, 44
2, 48216, Note_on_c, 0, 67, 46
2, 48217, Note_on_c, 0, 76, 45
2, 48219, Note_on_c, 0, 72, 27
2, 48219, Control_c, 0, 64, 0
2, 48269, Control_c, 0, 64, 127
2, 48291, Note_on_c, 0, 76, 0
2, 48293, Note_on_c, 0, 81, 0
2, 48303, Note_on_c, 0, 72, 0
2, 48315, Note_on_c, 0, 64, 39
2, 48320, Note_on_c, 0, 67, 0
2, 48410, Note_on_c, 0, 69, 52
2, 48415, Note_on_c, 0, 64, 0
2, 48445, Note_on_c, 0, 57, 0
2, 48504, Note_on_c, 0, 69, 0
2, 48506, Note_on_c, 0, 76, 77
2, 48566, Note_on_c, 0, 76, 0
2, 48628, Note_on_c, 0, 76, 66
2, 48633, Note_on_c, 0, 50, 33
2, 48635, Note_on_c, 0, 66, 36
2, 48635, Note_on_c, 0, 70, 37
2, 48637, Control_c, 0, 64, 0
2, 48644, Note_on_c, 0, 60, 18
2, 48694, Control_c, 0, 64, 127
2, 48751, Note_on_c, 0, 74, 61
2, 48752, Note_on_c, 0, 76, 0
2, 48845, Note_on_c, 0, 60, 0
2, 48850, Note_on_c, 0, 74, 0
2, 48906, Note_on_c, 0, 74, 54
2, 48912, Note_on_c, 0, 60, 30
2, 48965, Note_on_c, 0, 66, 0
2, 48971, Note_on_c, 0, 74, 0
2, 48977, Note_on_c, 0, 70, 0
2, 49067, Note_on_c, 0, 60, 0
2, 49073, Note_on_c, 0, 84, 87
2, 49085, Note_on_c, 0, 50, 0
2, 49139, Note_on_c, 0, 84, 0
2, 49236, Note_on_c, 0, 83, 69
2, 49238, Note_on_c, 0, 75, 60
2, 49241, Note_on_c, 0, 41, 45
2, 49246, Control_c, 0, 64, 0
2, 49292, Control_c, 0, 64, 127
2, 49333, Note_on_c, 0, 48, 48
2, 49342, Note_on_c, 0, 41, 0
2, 49352, Note_on_c, 0, 48, 0
2, 49415, Note_on_c, 0, 75, 0
2, 49433, Note_on_c, 0, 75, 27
2, 49434, Note_on_c, 0, 71, 55
2, 49434, Note_on_c, 0, 63, 54
2, 49471, Note_on_c, 0, 83, 0
2, 49544, Note_on_c, 0, 67, 48
2, 49553, Note_on_c, 0, 75, 0
2, 49577, Note_on_c, 0, 71, 0
2, 49579, Note_on_c, 0, 63, 0
2, 49579, Note_on_c, 0, 67, 0
2, 49674, Note_on_c, 0, 67, 31
2, 49675, Note_on_c, 0, 76, 36
2, 49677, Note_on_c, 0, 56, 34
2, 49677, Note_on_c, 0, 62, 37
2, 49679, Control_c, 0, 64, 0
2, 49680, Note_on_c, 0, 72, 27
2, 49719, Control_c, 0, 64, 127
2, 49734, Note_on_c, 0, 62, 0
2, 49747, Note_on_c, 0, 56, 0
2, 49876, Note_on_c, 0, 28, 41
2, 50038, Note_on_c, 0, 67, 0
2, 50055, Note_on_c, 0, 72, 0
2, 50065, Note_on_c, 0, 76, 0
2, 50066, Note_on_c, 0, 28, 0
2, 50175, Note_on_c, 0, 83, 72
2, 50185, Note_on_c, 0, 74, 65
2, 50308, Note_on_c, 0, 74, 0
2, 50308, Note_on_c, 0, 83, 0
2, 50425, Note_on_c, 0, 84, 64
2, 50432, Note_on_c, 0, 76, 51
2, 50680, Note_on_c, 0, 84, 0
2, 50705, Note_on_c, 0, 76, 0
2, 50875, Note_on_c, 0, 85, 53
2, 50877, Control_c, 0, 64, 0
2, 50878, Note_on_c, 0, 45, 36
2, 50918, Control_c, 0, 64, 127
2, 50933, Note_on_c, 0, 85, 0
2, 50979, Note_on_c, 0, 52, 30
2, 51028, Note_on_c, 0, 45, 0
2, 51042, Note_on_c, 0, 52, 0
2, 51056, Note_on_c, 0, 57, 44
2, 51128, Note_on_c, 0, 57, 0
2, 51136, Note_on_c, 0, 59, 35
2, 51229, Note_on_c, 0, 67, 44
2, 51230, Note_on_c, 0, 73, 32
2, 51231, Note_on_c, 0, 71, 51
2, 51234, Note_on_c, 0, 61, 38
2, 51246, Control_c, 0, 64, 0
2, 51313, Control_c, 0, 64, 127
2, 51330, Note_on_c, 0, 59, 0
2, 51366, Note_on_c, 0, 59, 20
2, 51398, Note_on_c, 0, 71, 0
2, 51433, Note_on_c, 0, 67, 0
2, 51461, Note_on_c, 0, 73, 0
2, 51464, Note_on_c, 0, 59, 0
2, 51474, Note_on_c, 0, 67, 33
2, 51477, Note_on_c, 0, 69, 38
2, 51490, Note_on_c, 0, 57, 22
2, 51522, Note_on_c, 0, 69, 0
2, 51574, Note_on_c, 0, 67, 0
2, 51585, Note_on_c, 0, 61, 0
2, 51587, Note_on_c, 0, 71, 65
2, 51597, Note_on_c, 0, 57, 0
2, 51690, Note_on_c, 0, 71, 0
2, 51705, Note_on_c, 0, 72, 55
2, 51708, Note_on_c, 0, 63, 55
2, 51710, Note_on_c, 0, 67, 63
2, 51710, Note_on_c, 0, 48, 39
2, 51713, Control_c, 0, 64, 0
2, 51713, Note_on_c, 0, 58, 36
2, 51757, Control_c, 0, 64, 127
2, 51783, Note_on_c, 0, 58, 0
2, 51789, Note_on_c, 0, 48, 0
2, 51797, Note_on_c, 0, 55, 64
2, 51803, Note_on_c, 0, 67, 0
2, 51822, Note_on_c, 0, 55, 0
2, 51829, Note_on_c, 0, 63, 0
2, 51867, Note_on_c, 0, 72, 0
2, 51886, Note_on_c, 0, 63, 71
2, 51887, Note_on_c, 0, 69, 74
2, 51977, Note_on_c, 0, 62, 66
2, 51989, Note_on_c, 0, 62, 0
2, 52034, Note_on_c, 0, 69, 0
2, 52071, Note_on_c, 0, 63, 0
2, 52094, Note_on_c, 0, 66, 51
2, 52095, Note_on_c, 0, 69, 70
2, 52098, Note_on_c, 0, 60, 51
2, 52099, Note_on_c, 0, 41, 32
2, 52101, Note_on_c, 0, 51, 36
2, 52112, Control_c, 0, 64, 0
2, 52190, Control_c, 0, 64, 127
2, 52225, Note_on_c, 0, 54, 25
2, 52238, Note_on_c, 0, 66, 0
2, 52243, Note_on_c, 0, 51, 0
2, 52245, Note_on_c, 0, 69, 0
2, 52263, Note_on_c, 0, 60, 0
2, 52276, Note_on_c, 0, 54, 0
2, 52280, Note_on_c, 0, 41, 0
2, 52355, Note_on_c, 0, 57, 32
2, 52356, Note_on_c, 0, 69, 36
2, 52359, Note_on_c, 0, 63, 32
2, 52364, Note_on_c, 0, 51, 25
2, 52365, Note_on_c, 0, 41, 26
2, 52374, Control_c, 0, 64, 0
2, 52443, Control_c, 0, 64, 127
2, 52450, Note_on_c, 0, 69, 0
2, 52460, Note_on_c, 0, 57, 0
2, 52518, Note_on_c, 0, 63, 0
2, 52526, Note_on_c, 0, 70, 59
2, 52541, Note_on_c, 0, 41, 0
2, 52573, Note_on_c, 0, 51, 0
2, 52683, Note_on_c, 0, 70, 0
2, 53130, Note_on_c, 0, 71, 66
2, 53132, Note_on_c, 0, 67, 63
2, 53133, Note_on_c, 0, 55, 38
2, 53134, Note_on_c, 0, 62, 59
2, 53134, Control_c, 0, 64, 0
2, 53169, Control_c, 0, 64, 127
2, 53198, Note_on_c, 0, 67, 0
2, 53199, Note_on_c, 0, 71, 0
2, 53201, Note_on_c, 0, 55, 0
2, 53209, Note_on_c, 0, 62, 0
2, 53306, Note_on_c, 0, 67, 55
2, 53308, Note_on_c, 0, 53, 38
2, 53310, Note_on_c, 0, 59, 37
2, 53310, Note_on_c, 0, 62, 50
2, 53314, Control_c, 0, 64, 0
2, 53364, Control_c, 0, 64, 127
2, 53393, Note_on_c, 0, 53, 0
2, 53408, Note_on_c, 0, 59, 0
2, 53415, Note_on_c, 0, 62, 0
2, 53432, Note_on_c, 0, 67, 0
2, 53694, Note_on_c, 0, 67, 38
2, 53696, Note_on_c, 0, 55, 35
2, 53697, Note_on_c, 0, 62, 41
2, 53698, Note_on_c, 0, 40, 27
2, 53700, Note_on_c, 0, 52, 28
2, 53708, Control_c, 0, 64, 0
2, 53765, Control_c, 0, 64, 127
2, 53797, Note_on_c, 0, 55, 0
2, 53813, Note_on_c, 0, 52, 0
2, 53819, Note_on_c, 0, 40, 0
2, 53827, Note_on_c, 0, 67, 0
2, 53829, Note_on_c, 0, 62, 0
2, 53923, Note_on_c, 0, 71, 60
2, 53925, Note_on_c, 0, 50, 36
2, 53926, Note_on_c, 0, 62, 44
2, 53927, Control_c, 0, 64, 0
2, 53927, Note_on_c, 0, 38, 32
2, 53928, Note_on_c, 0, 59, 40
2, 53964, Control_c, 0, 64, 127
2, 53980, Note_on_c, 0, 71, 0
2, 53988, Note_on_c, 0, 62, 0
2, 53992, Note_on_c, 0, 59, 0
2, 53996, Note_on_c, 0, 50, 0
2, 54004, Note_on_c, 0, 38, 0
2, 54072, Control_c, 0, 64, 0
2, 54074, Note_on_c, 0, 69, 54
2, 54075, Note_on_c, 0, 61, 31
2, 54077, Note_on_c, 0, 64, 47
2, 54079, Note_on_c, 0, 49, 32
2, 54080, Note_on_c, 0, 57, 35
2, 54081, Note_on_c, 0, 37, 31
2, 54094, Control_c, 0, 64, 127
2, 54100, Note_on_c, 0, 57, 0
2, 54105, Note_on_c, 0, 37, 0
2, 54109, Note_on_c, 0, 64, 0
2, 54111, Note_on_c, 0, 61, 0
2, 54118, Note_on_c, 0, 69, 0
2, 54120, Note_on_c, 0, 49, 0
2, 54224, Note_on_c, 0, 81, 66
2, 54225, Note_on_c, 0, 73, 48
2, 54230, Note_on_c, 0, 49, 28
2, 54230, Note_on_c, 0, 57, 38
2, 54231, Note_on_c, 0, 69, 56
2, 54305, Note_on_c, 0, 57, 0
2, 54306, Note_on_c, 0, 69, 0
2, 54323, Note_on_c, 0, 73, 0
2, 54334, Note_on_c, 0, 81, 0
2, 54342, Note_on_c, 0, 49, 0
2, 54410, Note_on_c, 0, 79, 58
2, 54413, Note_on_c, 0, 70, 30
2, 54413, Note_on_c, 0, 58, 32
2, 54414, Note_on_c, 0, 48, 34
2, 54417, Note_on_c, 0, 75, 33
2, 54421, Control_c, 0, 64, 0
2, 54473, Control_c, 0, 64, 127
2, 54566, Note_on_c, 0, 58, 0
2, 54594, Note_on_c, 0, 79, 0
2, 54743, Note_on_c, 0, 70, 0
2, 54745, Note_on_c, 0, 75, 0
2, 54797, Note_on_c, 0, 48, 40
2, 54799, Note_on_c, 0, 58, 25
2, 54799, Note_on_c, 0, 76, 49
2, 54799, Note_on_c, 0, 70, 29
2, 54827, Note_on_c, 0, 48, 0
2, 54947, Note_on_c, 0, 70, 0
2, 54963, Note_on_c, 0, 76, 0
2, 54963, Note_on_c, 0, 75, 50
2, 54976, Note_on_c, 0, 48, 0
2, 54980, Note_on_c, 0, 58, 0
2, 55008, Note_on_c, 0, 75, 0
2, 55142, Note_on_c, 0, 74, 60
2, 55154, Note_on_c, 0, 47, 29
2, 55162, Control_c, 0, 64, 0
2, 55220, Control_c, 0, 64, 127
2, 55231, Note_on_c, 0, 57, 39
2, 55235, Note_on_c, 0, 47, 0
2, 55274, Note_on_c, 0, 57, 0
2, 55319, Note_on_c, 0, 74, 0
2, 55322, Note_on_c, 0, 66, 52
2, 55325, Note_on_c, 0, 62, 37
2, 55331, Note_on_c, 0, 59, 32
2, 55336, Note_on_c, 0, 62, 0
2, 55345, Note_on_c, 0, 66, 0
2, 55433, Note_on_c, 0, 59, 0
2, 55566, Note_on_c, 0, 41, 46
2, 55588, Note_on_c, 0, 57, 46
2, 55590, Note_on_c, 0, 75, 60
2, 55590, Note_on_c, 0, 83, 71
2, 55592, Note_on_c, 0, 71, 62
2, 55592, Note_on_c, 0, 79, 56
2, 55593, Control_c, 0, 64, 0
2, 55612, Control_c, 0, 64, 127
2, 55621, Note_on_c, 0, 57, 0
2, 55624, Note_on_c, 0, 41, 0
2, 55632, Note_on_c, 0, 79, 0
2, 55636, Note_on_c, 0, 83, 0
2, 55643, Note_on_c, 0, 75, 0
2, 55646, Note_on_c, 0, 71, 0
2, 56074, Note_on_c, 0, 40, 38
2, 56076, Note_on_c, 0, 79, 36
2, 56079, Note_on_c, 0, 67, 33
2, 56080, Control_c, 0, 64, 0
2, 56085, Note_on_c, 0, 55, 36
2, 56115, Control_c, 0, 64, 127
2, 56136, Note_on_c, 0, 67, 0
2, 56144, Note_on_c, 0, 40, 0
2, 56161, Note_on_c, 0, 55, 0
2, 56166, Note_on_c, 0, 79, 0
2, 56425, Note_on_c, 0, 88, 41
2, 56425, Note_on_c, 0, 79, 36
2, 56427, Note_on_c, 0, 74, 37
2, 56430, Note_on_c, 0, 84, 44
2, 56438, Note_on_c, 0, 68, 33
2, 56579, Note_on_c, 0, 74, 0
2, 56582, Note_on_c, 0, 88, 0
2, 56589, Note_on_c, 0, 84, 0
2, 56594, Note_on_c, 0, 68, 0
2, 56605, Note_on_c, 0, 79, 0
2, 56768, Note_on_c, 0, 76, 68
2, 56901, Note_on_c, 0, 76, 0
2, 57188, Note_on_c, 0, 74, 62
2, 57191, Note_on_c, 0, 60, 37
2, 57192, Note_on_c, 0, 67, 71
2, 57194, Note_on_c, 0, 59, 65
2, 57198, Note_on_c, 0, 52, 47
2, 57200, Control_c, 0, 64, 0
2, 57258, Control_c, 0, 64, 127
2, 57294, Note_on_c, 0, 60, 0
2, 57296, Note_on_c, 0, 52, 0
2, 57410, Note_on_c, 0, 33, 56
2, 57484, Note_on_c, 0, 59, 0
2, 57490, Note_on_c, 0, 33, 0
2, 57496, Note_on_c, 0, 67, 0
2, 57516, Note_on_c, 0, 74, 0
2, 58220, Note_on_c, 0, 84, 62
2, 58223, Note_on_c, 0, 61, 37
2, 58224, Note_on_c, 0, 77, 41
2, 58224, Note_on_c, 0, 65, 44
2, 58224, Note_on_c, 0, 81, 50
2, 58226, Note_on_c, 0, 55, 46
2, 58226, Note_on_c, 0, 72, 29
2, 58231, Control_c, 0, 64, 0
2, 58272, Control_c, 0, 64, 127
2, 58315, Note_on_c, 0, 84, 0
2, 58328, Note_on_c, 0, 81, 0
2, 58332, Note_on_c, 0, 77, 0
2, 58333, Note_on_c, 0, 72, 0
2, 58334, Note_on_c, 0, 65, 0
2, 58336, Note_on_c, 0, 55, 0
2, 58351, Note_on_c, 0, 61, 0
2, 58465, Note_on_c, 0, 81, 48
2, 58469, Note_on_c, 0, 54, 36
2, 58470, Note_on_c, 0, 64, 31
2, 58470, Control_c, 0, 64, 0
2, 58471, Note_on_c, 0, 78, 25
2, 58471, Note_on_c, 0, 60, 35
2, 58472, Note_on_c, 0, 69, 33
2, 58476, Note_on_c, 0, 74, 35
2, 58517, Control_c, 0, 64, 127
2, 58531, Note_on_c, 0, 64, 0
2, 58533, Note_on_c, 0, 60, 0
2, 58551, Note_on_c, 0, 54, 0
2, 58907, Note_on_c, 0, 26, 68
2, 58908, Note_on_c, 0, 38, 44
2, 59197, Note_on_c, 0, 74, 0
2, 59205, Note_on_c, 0, 69, 0
2, 59217, Note_on_c, 0, 81, 0
2, 59218, Note_on_c, 0, 78, 0
2, 59446, Note_on_c, 0, 26, 0
2, 59447, Note_on_c, 0, 38, 0
2, 59489, Note_on_c, 0, 62, 54
2, 59489, Note_on_c, 0, 62, 0
2, 59512, Note_on_c, 0, 62, 83
2, 59513, Note_on_c, 0, 67, 72
2, 59520, Note_on_c, 0, 63, 47
2, 59520, Control_c, 0, 64, 0
2, 59549, Note_on_c, 0, 62, 0
2, 59560, Note_on_c, 0, 64, 34
2, 59563, Note_on_c, 0, 63, 0
2, 59576, Note_on_c, 0, 67, 0
2, 59595, Note_on_c, 0, 64, 0
2, 59640, Note_on_c, 0, 62, 68
2, 59704, Note_on_c, 0, 62, 0
2, 59726, Note_on_c, 0, 60, 44
2, 59727, Note_on_c, 0, 48, 51
2, 59734, Note_on_c, 0, 60, 0
2, 59738, Note_on_c, 0, 48, 0
2, 59756, Note_on_c, 0, 62, 73
2, 59758, Note_on_c, 0, 67, 65
2, 59761, Note_on_c, 0, 63, 67
2, 59811, Note_on_c, 0, 62, 0
2, 59817, Note_on_c, 0, 64, 35
2, 59822, Note_on_c, 0, 63, 0
2, 59833, Note_on_c, 0, 67, 0
2, 59853, Note_on_c, 0, 64, 0
2, 59880, Note_on_c, 0, 62, 63
2, 59880, Note_on_c, 0, 67, 60
2, 59948, Note_on_c, 0, 67, 0
2, 59954, Note_on_c, 0, 62, 0
2, 59965, Note_on_c, 0, 60, 54
2, 59973, Note_on_c, 0, 60, 0
2, 59973, Note_on_c, 0, 53, 25
2, 59990, Note_on_c, 0, 53, 0
2, 60000, Note_on_c, 0, 62, 55
2, 60002, Note_on_c, 0, 67, 44
2, 60002, Note_on_c, 0, 57, 38
2, 60004, Note_on_c, 0, 47, 26
2, 60005, Note_on_c, 0, 63, 59
2, 60032, Note_on_c, 0, 63, 0
2, 60032, Note_on_c, 0, 62, 0
2, 60037, Note_on_c, 0, 64, 30
2, 60056, Note_on_c, 0, 57, 0
2, 60059, Note_on_c, 0, 67, 0
2, 60069, Note_on_c, 0, 47, 0
2, 60077, Note_on_c, 0, 64, 0
2, 60080, Note_on_c, 0, 62, 72
2, 60085, Note_on_c, 0, 57, 35
2, 60092, Note_on_c, 0, 62, 0
2, 60093, Note_on_c, 0, 57, 0
2, 60133, Control_c, 0, 64, 127
2, 60152, Control_c, 0, 64, 0
2, 60157, Control_c, 0, 64, 127
2, 60195, Control_c, 0, 64, 0
2, 60196, Note_on_c, 0, 64, 54
2, 60199, Note_on_c, 0, 55, 43
2, 60203, Note_on_c, 0, 60, 38
2, 60204, Note_on_c, 0, 64, 0
2, 60208, Note_on_c, 0, 55, 0
2, 60211, Note_on_c, 0, 60, 0
2, 60316, Note_on_c, 0, 64, 66
2, 60317, Note_on_c, 0, 54, 54
2, 60319, Note_on_c, 0, 60, 58
2, 60325, Note_on_c, 0, 60, 0
2, 60327, Note_on_c, 0, 64, 0
2, 60342, Note_on_c, 0, 54, 0
2, 60430, Note_on_c, 0, 43, 64
2, 60431, Note_on_c, 0, 50, 64
2, 60436, Note_on_c, 0, 43, 0
2, 60443, Note_on_c, 0, 50, 0
2, 60477, Note_on_c, 0, 62, 27
2, 60505, Note_on_c, 0, 62, 0
2, 60558, Note_on_c, 0, 59, 28
2, 60559, Note_on_c, 0, 62, 45
2, 60567, Note_on_c, 0, 59, 0
2, 60574, Note_on_c, 0, 62, 0
2, 60599, Note_on_c, 0, 67, 56
2, 60612, Note_on_c, 0, 67, 0
2, 60638, Note_on_c, 0, 71, 73
2, 60652, Note_on_c, 0, 71, 0
2, 60676, Note_on_c, 0, 74, 101
2, 60685, Note_on_c, 0, 62, 57
2, 60687, Note_on_c, 0, 59, 51
2, 60693, Note_on_c, 0, 62, 0
2, 60694, Note_on_c, 0, 57, 33
2, 60704, Note_on_c, 0, 57, 0
2, 60704, Note_on_c, 0, 59, 0
2, 60704, Note_on_c, 0, 74, 0
2, 60720, Note_on_c, 0, 67, 71
2, 60745, Note_on_c, 0, 67, 0
2, 60796, Note_on_c, 0, 62, 64
2, 60804, Note_on_c, 0, 62, 0
2, 60807, Note_on_c, 0, 57, 24
2, 60814, Note_on_c, 0, 57, 0
2, 60842, Note_on_c, 0, 67, 79
2, 60842, Note_on_c, 0, 69, 85
2, 60860, Note_on_c, 0, 69, 0
2, 60860, Note_on_c, 0, 67, 0
2, 60865, Note_on_c, 0, 71, 58
2, 60899, Note_on_c, 0, 67, 33
2, 60901, Note_on_c, 0, 65, 28
2, 60909, Note_on_c, 0, 65, 0
2, 60917, Note_on_c, 0, 71, 0
2, 60922, Note_on_c, 0, 67, 0
2, 60923, Note_on_c, 0, 62, 47
2, 60940, Note_on_c, 0, 62, 0
2, 60945, Note_on_c, 0, 60, 43
2, 60948, Note_on_c, 0, 50, 30
2, 60949, Note_on_c, 0, 57, 41
2, 60951, Note_on_c, 0, 53, 42
2, 60952, Note_on_c, 0, 65, 57
2, 60981, Control_c, 0, 64, 127
2, 60994, Note_on_c, 0, 53, 0
2, 60995, Note_on_c, 0, 57, 0
2, 60995, Note_on_c, 0, 65, 0
2, 61000, Note_on_c, 0, 50, 0
2, 61007, Note_on_c, 0, 60, 0
2, 61069, Note_on_c, 0, 53, 77
2, 61070, Note_on_c, 0, 88, 91
2, 61070, Note_on_c, 0, 60, 79
2, 61070, Note_on_c, 0, 64, 82
2, 61070, Note_on_c, 0, 93, 91
2, 61071, Note_on_c, 0, 57, 74
2, 61071, Note_on_c, 0, 81, 88
2, 61075, Note_on_c, 0, 83, 43
2, 61082, Note_on_c, 0, 83, 0
2, 61102, Note_on_c, 0, 81, 0
2, 61107, Note_on_c, 0, 88, 0
2, 61109, Note_on_c, 0, 60, 0
2, 61111, Note_on_c, 0, 64, 0
2, 61112, Note_on_c, 0, 53, 0
2, 61113, Note_on_c, 0, 57, 0
2, 61114, Note_on_c, 0, 93, 0
2, 61148, Note_on_c, 0, 84, 83
2, 61148, Note_on_c, 0, 92, 77
2, 61149, Note_on_c, 0, 96, 80
2, 61149, Note_on_c, 0, 90, 67
2, 61150, Note_on_c, 0, 53, 87
2, 61150, Note_on_c, 0, 59, 79
2, 61150, Control_c, 0, 64, 0
2, 61151, Note_on_c, 0, 64, 84
2, 61169, Note_on_c, 0, 90, 0
2, 61184, Note_on_c, 0, 93, 62
2, 61189, Note_on_c, 0, 92, 0
2, 61198, Note_on_c, 0, 84, 0
2, 61199, Note_on_c, 0, 93, 0
2, 61202, Note_on_c, 0, 53, 0
2, 61203, Note_on_c, 0, 96, 0
2, 61205, Note_on_c, 0, 64, 0
2, 61208, Note_on_c, 0, 59, 0
2, 61228, Note_on_c, 0, 95, 69
2, 61229, Note_on_c, 0, 83, 71
2, 61230, Note_on_c, 0, 90, 68
2, 61230, Note_on_c, 0, 53, 73
2, 61232, Note_on_c, 0, 64, 66
2, 61233, Note_on_c, 0, 59, 68
2, 61267, Note_on_c, 0, 91, 47
2, 61277, Note_on_c, 0, 95, 0
2, 61278, Note_on_c, 0, 83, 0
2, 61279, Note_on_c, 0, 64, 0
2, 61282, Note_on_c, 0, 53, 0
2, 61285, Note_on_c, 0, 91, 0
2, 61289, Note_on_c, 0, 90, 0
2, 61295, Note_on_c, 0, 59, 0
2, 61308, Note_on_c, 0, 92, 70
2, 61310, Note_on_c, 0, 80, 46
2, 61310, Note_on_c, 0, 53, 70
2, 61312, Note_on_c, 0, 87, 56
2, 61312, Note_on_c, 0, 59, 61
2, 61312, Note_on_c, 0, 63, 57
2, 61319, Note_on_c, 0, 56, 26
2, 61348, Note_on_c, 0, 53, 0
2, 61360, Note_on_c, 0, 63, 0
2, 61368, Note_on_c, 0, 87, 0
2, 61368, Note_on_c, 0, 56, 0
2, 61369, Note_on_c, 0, 92, 0
2, 61371, Note_on_c, 0, 80, 0
2, 61377, Note_on_c, 0, 59, 0
2, 61393, Note_on_c, 0, 62, 51
2, 61394, Note_on_c, 0, 59, 22
2, 61394, Note_on_c, 0, 52, 44
2, 61395, Note_on_c, 0, 91, 57
2, 61396, Note_on_c, 0, 86, 69
2, 61398, Note_on_c, 0, 55, 54
2, 61398, Note_on_c, 0, 79, 39
2, 61411, Note_on_c, 0, 91, 0
2, 61412, Note_on_c, 0, 86, 0
2, 61415, Note_on_c, 0, 79, 0
2, 61425, Note_on_c, 0, 62, 0
2, 61430, Note_on_c, 0, 59, 0
2, 61432, Note_on_c, 0, 55, 0
2, 61449, Note_on_c, 0, 52, 0
2, 61525, Note_on_c, 0, 59, 58
2, 61527, Note_on_c, 0, 48, 42
2, 61529, Note_on_c, 0, 55, 55
2, 61533, Note_on_c, 0, 59, 0
2, 61535, Note_on_c, 0, 55, 0
2, 61545, Note_on_c, 0, 48, 0
2, 61563, Note_on_c, 0, 64, 82
2, 61581, Note_on_c, 0, 64, 0
2, 61583, Note_on_c, 0, 65, 58
2, 61606, Note_on_c, 0, 65, 0
2, 61611, Note_on_c, 0, 64, 36
2, 61639, Note_on_c, 0, 64, 0
2, 61639, Note_on_c, 0, 48, 27
2, 61640, Note_on_c, 0, 55, 29
2, 61642, Note_on_c, 0, 63, 37
2, 61654, Note_on_c, 0, 55, 0
2, 61658, Note_on_c, 0, 63, 0
2, 61661, Note_on_c, 0, 48, 0
2, 61677, Note_on_c, 0, 64, 36
2, 61714, Note_on_c, 0, 64, 0
2, 61726, Note_on_c, 0, 66, 72
2, 61757, Note_on_c, 0, 66, 0
2, 61800, Note_on_c, 0, 66, 67
2, 61852, Note_on_c, 0, 66, 0
2, 61876, Note_on_c, 0, 42, 53
2, 61880, Note_on_c, 0, 66, 69
2, 61881, Note_on_c, 0, 52, 46
2, 61888, Note_on_c, 0, 42, 0
2, 61890, Note_on_c, 0, 52, 0
2, 61910, Note_on_c, 0, 66, 0
2, 61932, Note_on_c, 0, 67, 58
2, 61983, Note_on_c, 0, 67, 0
2, 61997, Note_on_c, 0, 62, 56
2, 62000, Note_on_c, 0, 47, 47
2, 62002, Note_on_c, 0, 57, 44
2, 62006, Note_on_c, 0, 62, 0
2, 62011, Note_on_c, 0, 47, 0
2, 62012, Note_on_c, 0, 57, 0
2, 62118, Note_on_c, 0, 56, 67
2, 62118, Note_on_c, 0, 82, 76
2, 62119, Note_on_c, 0, 70, 80
2, 62121, Note_on_c, 0, 62, 67
2, 62121, Note_on_c, 0, 65, 71
2, 62145, Note_on_c, 0, 70, 0
2, 62148, Note_on_c, 0, 82, 0
2, 62149, Note_on_c, 0, 65, 0
2, 62165, Note_on_c, 0, 71, 60
2, 62167, Note_on_c, 0, 83, 47
2, 62168, Note_on_c, 0, 65, 37
2, 62175, Note_on_c, 0, 65, 0
2, 62177, Note_on_c, 0, 71, 0
2, 62179, Note_on_c, 0, 56, 0
2, 62185, Note_on_c, 0, 83, 0
2, 62187, Note_on_c, 0, 62, 0
2, 62239, Note_on_c, 0, 88, 73
2, 62239, Note_on_c, 0, 56, 55
2, 62240, Note_on_c, 0, 76, 53
2, 62240, Note_on_c, 0, 62, 57
2, 62240, Note_on_c, 0, 65, 53
2, 62247, Note_on_c, 0, 76, 0
2, 62248, Note_on_c, 0, 65, 0
2, 62254, Note_on_c, 0, 62, 0
2, 62255, Note_on_c, 0, 88, 0
2, 62256, Note_on_c, 0, 56, 0
2, 62280, Note_on_c, 0, 79, 55
2, 62281, Note_on_c, 0, 91, 67
2, 62284, Note_on_c, 0, 56, 35
2, 62284, Note_on_c, 0, 62, 48
2, 62284, Note_on_c, 0, 65, 39
2, 62286, Note_on_c, 0, 79, 0
2, 62287, Note_on_c, 0, 91, 0
2, 62291, Note_on_c, 0, 65, 0
2, 62291, Note_on_c, 0, 56, 0
2, 62292, Note_on_c, 0, 62, 0
2, 62352, Note_on_c, 0, 56, 58
2, 62356, Note_on_c, 0, 83, 45
2, 62357, Note_on_c, 0, 95, 41
2, 62359, Note_on_c, 0, 93, 34
2, 62363, Note_on_c, 0, 83, 0
2, 62365, Note_on_c, 0, 95, 0
2, 62366, Note_on_c, 0, 93, 0
2, 62370, Note_on_c, 0, 56, 0
2, 62398, Note_on_c, 0, 64, 67
2, 62398, Note_on_c, 0, 96, 76
2, 62399, Note_on_c, 0, 86, 74
2, 62399, Note_on_c, 0, 55, 55
2, 62401, Note_on_c, 0, 91, 53
2, 62401, Note_on_c, 0, 93, 52
2, 62402, Note_on_c, 0, 57, 48
2, 62405, Note_on_c, 0, 60, 40
2, 62409, Note_on_c, 0, 93, 0
2, 62436, Note_on_c, 0, 86, 0
2, 62440, Note_on_c, 0, 55, 0
2, 62441, Note_on_c, 0, 91, 0
2, 62445, Note_on_c, 0, 60, 0
2, 62445, Note_on_c, 0, 96, 0
2, 62447, Note_on_c, 0, 64, 0
2, 62447, Note_on_c, 0, 57, 0
2, 62469, Note_on_c, 0, 96, 68
2, 62470, Note_on_c, 0, 91, 66
2, 62471, Note_on_c, 0, 64, 69
2, 62471, Note_on_c, 0, 84, 64
2, 62472, Note_on_c, 0, 93, 63
2, 62472, Note_on_c, 0, 55, 71
2, 62473, Note_on_c, 0, 57, 62
2, 62474, Note_on_c, 0, 60, 69
2, 62496, Note_on_c, 0, 84, 0
2, 62498, Note_on_c, 0, 96, 0
2, 62500, Note_on_c, 0, 91, 0
2, 62502, Note_on_c, 0, 60, 0
2, 62502, Note_on_c, 0, 93, 0
2, 62502, Note_on_c, 0, 55, 0
2, 62504, Note_on_c, 0, 64, 0
2, 62505, Note_on_c, 0, 57, 0
2, 62520, Note_on_c, 0, 96, 63
2, 62520, Note_on_c, 0, 64, 64
2, 62521, Note_on_c, 0, 55, 51
2, 62521, Note_on_c, 0, 91, 51
2, 62522, Note_on_c, 0, 84, 55
2, 62522, Note_on_c, 0, 57, 55
2, 62522, Note_on_c, 0, 93, 48
2, 62523, Note_on_c, 0, 60, 57
2, 62539, Note_on_c, 0, 84, 0
2, 62542, Note_on_c, 0, 55, 0
2, 62543, Note_on_c, 0, 91, 0
2, 62543, Note_on_c, 0, 93, 0
2, 62545, Note_on_c, 0, 96, 0
2, 62545, Note_on_c, 0, 60, 0
2, 62546, Note_on_c, 0, 64, 0
2, 62547, Note_on_c, 0, 57, 0
2, 62590, Note_on_c, 0, 55, 71
2, 62591, Note_on_c, 0, 64, 64
2, 62593, Note_on_c, 0, 96, 71
2, 62593, Note_on_c, 0, 84, 77
2, 62593, Note_on_c, 0, 60, 55
2, 62593, Note_on_c, 0, 93, 68
2, 62593, Note_on_c, 0, 91, 72
2, 62603, Note_on_c, 0, 60, 0
2, 62603, Note_on_c, 0, 64, 0
2, 62607, Note_on_c, 0, 55, 0
2, 62608, Note_on_c, 0, 91, 0
2, 62609, Note_on_c, 0, 84, 0
2, 62609, Note_on_c, 0, 96, 0
2, 62614, Note_on_c, 0, 93, 0
2, 62638, Note_on_c, 0, 60, 66
2, 62638, Note_on_c, 0, 54, 74
2, 62639, Note_on_c, 0, 64, 66
2, 62641, Note_on_c, 0, 96, 69
2, 62642, Note_on_c, 0, 90, 52
2, 62643, Note_on_c, 0, 84, 62
2, 62644, Note_on_c, 0, 93, 51
2, 62651, Note_on_c, 0, 84, 0
2, 62652, Note_on_c, 0, 93, 0
2, 62654, Note_on_c, 0, 90, 0
2, 62656, Note_on_c, 0, 64, 0
2, 62657, Note_on_c, 0, 96, 0
2, 62658, Note_on_c, 0, 60, 0
2, 62666, Note_on_c, 0, 54, 0
2, 62710, Note_on_c, 0, 54, 80
2, 62711, Note_on_c, 0, 60, 80
2, 62711, Note_on_c, 0, 96, 87
2, 62711, Note_on_c, 0, 64, 84
2, 62711, Note_on_c, 0, 84, 90
2, 62711, Note_on_c, 0, 90, 86
2, 62712, Note_on_c, 0, 93, 83
2, 62753, Note_on_c, 0, 96, 0
2, 62755, Note_on_c, 0, 93, 0
2, 62760, Note_on_c, 0, 64, 0
2, 62760, Note_on_c, 0, 90, 0
2, 62762, Note_on_c, 0, 60, 0
2, 62764, Note_on_c, 0, 84, 0
2, 62773, Note_on_c, 0, 54, 0
2, 62829, Note_on_c, 0, 49, 61
2, 62847, Note_on_c, 0, 49, 0
2, 62872, Note_on_c, 0, 66, 71
2, 62872, Note_on_c, 0, 62, 80
2, 62873, Note_on_c, 0, 57, 74
2, 62874, Note_on_c, 0, 50, 74
2, 62884, Note_on_c, 0, 57, 0
2, 62888, Note_on_c, 0, 62, 0
2, 62894, Note_on_c, 0, 66, 0
2, 62895, Note_on_c, 0, 50, 0
2, 62909, Note_on_c, 0, 62, 74
2, 62909, Note_on_c, 0, 66, 63
2, 62911, Note_on_c, 0, 57, 58
2, 62926, Note_on_c, 0, 57, 0
2, 62928, Note_on_c, 0, 62, 0
2, 62936, Note_on_c, 0, 66, 0
2, 62946, Note_on_c, 0, 50, 53
2, 62959, Note_on_c, 0, 50, 0
2, 62989, Note_on_c, 0, 65, 74
2, 62989, Note_on_c, 0, 56, 77
2, 62990, Note_on_c, 0, 61, 74
2, 62994, Note_on_c, 0, 50, 34
2, 63003, Note_on_c, 0, 50, 0
2, 63009, Note_on_c, 0, 56, 0
2, 63014, Note_on_c, 0, 65, 0
2, 63015, Note_on_c, 0, 61, 0
2, 63028, Note_on_c, 0, 61, 61
2, 63029, Note_on_c, 0, 65, 54
2, 63030, Note_on_c, 0, 56, 55
2, 63053, Note_on_c, 0, 56, 0
2, 63055, Note_on_c, 0, 65, 0
2, 63063, Note_on_c, 0, 61, 0
2, 63070, Note_on_c, 0, 50, 57
2, 63105, Note_on_c, 0, 64, 66
2, 63106, Note_on_c, 0, 55, 68
2, 63108, Note_on_c, 0, 60, 66
2, 63112, Note_on_c, 0, 50, 0
2, 63131, Note_on_c, 0, 64, 0
2, 63134, Note_on_c, 0, 60, 0
2, 63135, Note_on_c, 0, 55, 0
2, 63151, Note_on_c, 0, 55, 68
2, 63152, Note_on_c, 0, 64, 57
2, 63154, Note_on_c, 0, 60, 59
2, 63169, Note_on_c, 0, 55, 0
2, 63173, Note_on_c, 0, 60, 0
2, 63175, Note_on_c, 0, 64, 0
2, 63190, Note_on_c, 0, 50, 68
2, 63231, Note_on_c, 0, 50, 0
2, 63231, Note_on_c, 0, 54, 67
2, 63233, Note_on_c, 0, 59, 60
2, 63233, Note_on_c, 0, 63, 47
2, 63251, Note_on_c, 0, 54, 0
2, 63253, Note_on_c, 0, 59, 0
2, 63259, Note_on_c, 0, 63, 0
2, 63280, Note_on_c, 0, 63, 60
2, 63280, Note_on_c, 0, 54, 68
2, 63293, Note_on_c, 0, 54, 0
2, 63305, Note_on_c, 0, 63, 0
2, 63322, Note_on_c, 0, 50, 8
2, 63329, Note_on_c, 0, 43, 32
2, 63338, Note_on_c, 0, 43, 0
2, 63349, Note_on_c, 0, 50, 0
2, 63357, Note_on_c, 0, 67, 70
2, 63357, Note_on_c, 0, 62, 83
2, 63360, Note_on_c, 0, 63, 64
2, 63361, Note_on_c, 0, 43, 44
2, 63364, Note_on_c, 0, 52, 48
2, 63394, Note_on_c, 0, 62, 0
2, 63399, Note_on_c, 0, 64, 40
2, 63402, Note_on_c, 0, 63, 0
2, 63450, Note_on_c, 0, 67, 0
2, 63457, Note_on_c, 0, 50, 34
2, 63459, Note_on_c, 0, 52, 0
2, 63468, Note_on_c, 0, 64, 0
2, 63478, Note_on_c, 0, 50, 0
2, 63481, Note_on_c, 0, 67, 74
2, 63482, Note_on_c, 0, 62, 85
2, 63498, Note_on_c, 0, 43, 0
2, 63555, Note_on_c, 0, 46, 30
2, 63562, Note_on_c, 0, 62, 0
2, 63562, Note_on_c, 0, 47, 47
2, 63565, Note_on_c, 0, 67, 0
2, 63575, Note_on_c, 0, 46, 0
2, 63587, Note_on_c, 0, 47, 0
2, 63594, Note_on_c, 0, 62, 68
2, 63595, Note_on_c, 0, 48, 39
2, 63597, Note_on_c, 0, 67, 45
2, 63600, Note_on_c, 0, 63, 59
2, 63632, Note_on_c, 0, 62, 0
2, 63637, Note_on_c, 0, 64, 28
2, 63693, Note_on_c, 0, 46, 25
2, 63694, Note_on_c, 0, 63, 0
2, 63697, Note_on_c, 0, 67, 0
2, 63698, Note_on_c, 0, 64, 0
2, 63711, Note_on_c, 0, 48, 0
2, 63716, Note_on_c, 0, 46, 0
2, 63717, Note_on_c, 0, 64, 70
2, 63721, Note_on_c, 0, 58, 56
2, 63799, Note_on_c, 0, 46, 38
2, 63800, Note_on_c, 0, 58, 0
2, 63806, Note_on_c, 0, 64, 0
2, 63825, Note_on_c, 0, 46, 0
2, 63837, Note_on_c, 0, 47, 35
2, 63837, Note_on_c, 0, 64, 64
2, 63839, Note_on_c, 0, 57, 50
2, 63893, Note_on_c, 0, 57, 0
2, 63909, Note_on_c, 0, 47, 0
2, 63911, Note_on_c, 0, 64, 0
2, 63911, Note_on_c, 0, 62, 64
2, 63913, Note_on_c, 0, 57, 44
2, 63921, Note_on_c, 0, 57, 0
2, 63930, Note_on_c, 0, 62, 0
2, 64033, Note_on_c, 0, 57, 57
2, 64034, Note_on_c, 0, 64, 46
2, 64035, Note_on_c, 0, 74, 48
2, 64035, Note_on_c, 0, 88, 63
2, 64036, Note_on_c, 0, 86, 62
2, 64036, Note_on_c, 0, 76, 56
2, 64036, Note_on_c, 0, 55, 50
2, 64038, Note_on_c, 0, 60, 33
2, 64041, Note_on_c, 0, 88, 0
2, 64042, Note_on_c, 0, 86, 0
2, 64042, Note_on_c, 0, 74, 0
2, 64042, Note_on_c, 0, 76, 0
2, 64043, Note_on_c, 0, 55, 0
2, 64043, Note_on_c, 0, 64, 0
2, 64044, Note_on_c, 0, 60, 0
2, 64048, Note_on_c, 0, 57, 0
2, 64106, Note_on_c, 0, 84, 68
2, 64107, Note_on_c, 0, 55, 62
2, 64108, Note_on_c, 0, 79, 58
2, 64108, Note_on_c, 0, 64, 57
2, 64109, Note_on_c, 0, 72, 51
2, 64110, Note_on_c, 0, 60, 52
2, 64110, Note_on_c, 0, 57, 48
2, 64137, Note_on_c, 0, 79, 0
2, 64138, Note_on_c, 0, 84, 0
2, 64149, Note_on_c, 0, 72, 0
2, 64153, Note_on_c, 0, 64, 0
2, 64155, Note_on_c, 0, 55, 0
2, 64157, Note_on_c, 0, 57, 0
2, 64164, Note_on_c, 0, 60, 0
2, 64189, Note_on_c, 0, 81, 57
2, 64190, Note_on_c, 0, 60, 58
2, 64191, Note_on_c, 0, 54, 55
2, 64191, Note_on_c, 0, 69, 58
2, 64191, Note_on_c, 0, 64, 59
2, 64192, Note_on_c, 0, 76, 54
2, 64232, Note_on_c, 0, 76, 0
2, 64236, Note_on_c, 0, 81, 0
2, 64239, Note_on_c, 0, 54, 0
2, 64240, Note_on_c, 0, 69, 0
2, 64246, Note_on_c, 0, 64, 0
2, 64247, Note_on_c, 0, 60, 0
2, 64274, Note_on_c, 0, 79, 47
2, 64276, Note_on_c, 0, 67, 51
2, 64278, Note_on_c, 0, 62, 55
2, 64279, Note_on_c, 0, 54, 37
2, 64280, Note_on_c, 0, 59, 51
2, 64283, Note_on_c, 0, 67, 0
2, 64301, Note_on_c, 0, 79, 0
2, 64302, Note_on_c, 0, 62, 0
2, 64304, Note_on_c, 0, 59, 0
2, 64306, Note_on_c, 0, 54, 0
2, 64391, Note_on_c, 0, 62, 61
2, 64393, Note_on_c, 0, 54, 34
2, 64395, Note_on_c, 0, 59, 43
2, 64403, Note_on_c, 0, 59, 0
2, 64403, Note_on_c, 0, 62, 0
2, 64409, Note_on_c, 0, 54, 0
2, 64434, Note_on_c, 0, 82, 51
2, 64453, Note_on_c, 0, 82, 0
2, 64474, Note_on_c, 0, 83, 66
2, 64488, Note_on_c, 0, 83, 0
2, 64509, Note_on_c, 0, 86, 95
2, 64510, Note_on_c, 0, 74, 89
2, 64516, Note_on_c, 0, 62, 53
2, 64524, Note_on_c, 0, 59, 20
2, 64528, Note_on_c, 0, 62, 0
2, 64531, Note_on_c, 0, 59, 0
2, 64538, Note_on_c, 0, 86, 0
2, 64544, Note_on_c, 0, 74, 0
2, 64561, Note_on_c, 0, 82, 28
2, 64599, Note_on_c, 0, 82, 0
2, 64600, Note_on_c, 0, 83, 59
2, 64621, Note_on_c, 0, 83, 0
2, 64634, Note_on_c, 0, 74, 91
2, 64634, Note_on_c, 0, 86, 99
2, 64653, Note_on_c, 0, 62, 36
2, 64655, Note_on_c, 0, 54, 27
2, 64666, Note_on_c, 0, 86, 0
2, 64675, Note_on_c, 0, 62, 0
2, 64676, Note_on_c, 0, 54, 0
2, 64683, Note_on_c, 0, 82, 37
2, 64684, Note_on_c, 0, 74, 0
2, 64702, Note_on_c, 0, 82, 0
2, 64721, Note_on_c, 0, 83, 43
2, 64745, Note_on_c, 0, 83, 0
2, 64757, Note_on_c, 0, 74, 72
2, 64757, Note_on_c, 0, 86, 87
2, 64758, Note_on_c, 0, 64, 52
2, 64759, Note_on_c, 0, 60, 55
2, 64760, Note_on_c, 0, 53, 32
2, 64761, Note_on_c, 0, 57, 54
2, 64769, Note_on_c, 0, 64, 0
2, 64770, Note_on_c, 0, 53, 0
2, 64770, Note_on_c, 0, 74, 0
2, 64773, Note_on_c, 0, 60, 0
2, 64778, Note_on_c, 0, 86, 0
2, 64782, Note_on_c, 0, 57, 0
2, 64800, Note_on_c, 0, 53, 64
2, 64801, Note_on_c, 0, 64, 68
2, 64801, Note_on_c, 0, 87, 73
2, 64801, Note_on_c, 0, 60, 67
2, 64801, Note_on_c, 0, 79, 70
2, 64801, Note_on_c, 0, 57, 55
2, 64802, Note_on_c, 0, 91, 76
2, 64804, Note_on_c, 0, 85, 52
2, 64804, Note_on_c, 0, 77, 53
2, 64805, Note_on_c, 0, 89, 51
2, 64810, Note_on_c, 0, 77, 0
2, 64812, Note_on_c, 0, 89, 0
2, 64825, Note_on_c, 0, 85, 0
2, 64860, Note_on_c, 0, 88, 54
2, 64866, Note_on_c, 0, 87, 0
2, 64879, Note_on_c, 0, 88, 0
2, 64886, Note_on_c, 0, 91, 0
2, 64888, Note_on_c, 0, 79, 0
2, 64888, Note_on_c, 0, 53, 0
2, 64891, Note_on_c, 0, 64, 0
2, 64898, Note_on_c, 0, 57, 0
2, 64899, Note_on_c, 0, 60, 0
2, 64919, Note_on_c, 0, 64, 44
2, 64920, Note_on_c, 0, 88, 73
2, 64920, Note_on_c, 0, 53, 47
2, 64920, Note_on_c, 0, 76, 74
2, 64921, Note_on_c, 0, 57, 54
2, 64921, Note_on_c, 0, 60, 48
2, 64925, Note_on_c, 0, 86, 41
2, 64932, Note_on_c, 0, 86, 0
2, 64993, Note_on_c, 0, 60, 0
2, 65001, Note_on_c, 0, 88, 0
2, 65002, Note_on_c, 0, 53, 0
2, 65005, Note_on_c, 0, 64, 0
2, 65006, Note_on_c, 0, 57, 0
2, 65010, Note_on_c, 0, 76, 0
2, 65031, Note_on_c, 0, 53, 42
2, 65033, Note_on_c, 0, 64, 44
2, 65033, Note_on_c, 0, 86, 51
2, 65034, Note_on_c, 0, 59, 36
2, 65035, Note_on_c, 0, 83, 37
2, 65035, Note_on_c, 0, 74, 51
2, 65037, Note_on_c, 0, 80, 40
2, 65073, Control_c, 0, 64, 127
2, 65075, Note_on_c, 0, 83, 0
2, 65075, Note_on_c, 0, 86, 0
2, 65082, Note_on_c, 0, 59, 0
2, 65084, Note_on_c, 0, 80, 0
2, 65094, Note_on_c, 0, 53, 0
2, 65094, Note_on_c, 0, 64, 0
2, 65102, Note_on_c, 0, 74, 0
2, 65151, Note_on_c, 0, 80, 46
2, 65151, Note_on_c, 0, 83, 58
2, 65151, Note_on_c, 0, 53, 64
2, 65153, Note_on_c, 0, 63, 59
2, 65153, Note_on_c, 0, 59, 36
2, 65154, Note_on_c, 0, 76, 54
2, 65154, Note_on_c, 0, 71, 54
2, 65157, Note_on_c, 0, 56, 37
2, 65189, Note_on_c, 0, 59, 0
2, 65195, Note_on_c, 0, 63, 0
2, 65199, Note_on_c, 0, 80, 0
2, 65203, Note_on_c, 0, 53, 0
2, 65211, Note_on_c, 0, 83, 0
2, 65217, Note_on_c, 0, 71, 0
2, 65221, Note_on_c, 0, 56, 0
2, 65222, Note_on_c, 0, 76, 0
2, 65260, Control_c, 0, 64, 0
2, 65270, Note_on_c, 0, 67, 46
2, 65270, Note_on_c, 0, 79, 36
2, 65272, Note_on_c, 0, 52, 38
2, 65272, Note_on_c, 0, 76, 34
2, 65272, Note_on_c, 0, 62, 42
2, 65273, Note_on_c, 0, 59, 35
2, 65277, Note_on_c, 0, 55, 43
2, 65296, Control_c, 0, 64, 127
2, 65305, Note_on_c, 0, 72, 1
2, 65333, Note_on_c, 0, 79, 0
2, 65339, Note_on_c, 0, 76, 0
2, 65344, Note_on_c, 0, 72, 0
2, 65349, Note_on_c, 0, 67, 0
2, 65371, Note_on_c, 0, 62, 0
2, 65390, Note_on_c, 0, 59, 0
2, 65415, Note_on_c, 0, 55, 0
2, 65417, Note_on_c, 0, 52, 0
2, 65435, Note_on_c, 0, 63, 59
2, 65458, Note_on_c, 0, 63, 0
2, 65473, Note_on_c, 0, 64, 76
2, 65494, Control_c, 0, 64, 0
2, 65496, Note_on_c, 0, 64, 0
2, 65515, Note_on_c, 0, 64, 69
2, 65516, Note_on_c, 0, 66, 63
2, 65518, Note_on_c, 0, 59, 60
2, 65518, Note_on_c, 0, 49, 53
2, 65519, Note_on_c, 0, 55, 52
2, 65566, Note_on_c, 0, 55, 0
2, 65580, Note_on_c, 0, 49, 0
2, 65586, Note_on_c, 0, 59, 0
2, 65615, Note_on_c, 0, 64, 0
2, 65620, Note_on_c, 0, 66, 0
2, 65633, Control_c, 0, 64, 127
2, 65634, Note_on_c, 0, 42, 44
2, 65635, Note_on_c, 0, 58, 56
2, 65636, Note_on_c, 0, 64, 54
2, 65637, Note_on_c, 0, 66, 52
2, 65638, Note_on_c, 0, 52, 38
2, 65655, Note_on_c, 0, 42, 0
2, 65664, Note_on_c, 0, 52, 0
2, 65683, Note_on_c, 0, 64, 0
2, 65685, Note_on_c, 0, 58, 0
2, 65721, Note_on_c, 0, 66, 0
2, 65721, Control_c, 0, 64, 0
2, 65751, Note_on_c, 0, 57, 37
2, 65752, Note_on_c, 0, 47, 28
2, 65754, Note_on_c, 0, 67, 51
2, 65755, Note_on_c, 0, 62, 46
2, 65792, Note_on_c, 0, 57, 0
2, 65807, Note_on_c, 0, 62, 0
2, 65812, Note_on_c, 0, 47, 0
2, 65829, Note_on_c, 0, 67, 0
2, 65834, Note_on_c, 0, 47, 38
2, 65834, Note_on_c, 0, 62, 60
2, 65837, Note_on_c, 0, 57, 34
2, 65842, Note_on_c, 0, 62, 0
2, 65845, Note_on_c, 0, 57, 0
2, 65853, Note_on_c, 0, 47, 0
2, 65950, Note_on_c, 0, 74, 63
2, 65950, Note_on_c, 0, 68, 63
2, 65951, Note_on_c, 0, 71, 58
2, 65952, Note_on_c, 0, 56, 60
2, 65952, Note_on_c, 0, 65, 63
2, 65952, Note_on_c, 0, 62, 62
2, 65958, Note_on_c, 0, 65, 0
2, 65964, Note_on_c, 0, 71, 0
2, 65964, Note_on_c, 0, 68, 0
2, 65968, Note_on_c, 0, 62, 0
2, 65968, Note_on_c, 0, 74, 0
2, 65976, Note_on_c, 0, 56, 0
2, 66069, Note_on_c, 0, 56, 57
2, 66071, Note_on_c, 0, 62, 52
2, 66072, Note_on_c, 0, 65, 41
2, 66080, Note_on_c, 0, 65, 0
2, 66095, Note_on_c, 0, 62, 0
2, 66107, Note_on_c, 0, 56, 0
2, 66108, Note_on_c, 0, 69, 33
2, 66128, Note_on_c, 0, 70, 32
2, 66143, Note_on_c, 0, 69, 0
2, 66149, Note_on_c, 0, 70, 0
2, 66150, Note_on_c, 0, 71, 59
2, 66176, Note_on_c, 0, 71, 0
2, 66196, Note_on_c, 0, 74, 92
2, 66198, Note_on_c, 0, 64, 54
2, 66199, Note_on_c, 0, 55, 53
2, 66199, Note_on_c, 0, 60, 51
2, 66202, Note_on_c, 0, 57, 52
2, 66219, Note_on_c, 0, 64, 0
2, 66221, Note_on_c, 0, 74, 0
2, 66226, Note_on_c, 0, 55, 0
2, 66240, Note_on_c, 0, 74, 38
2, 66242, Note_on_c, 0, 69, 66
2, 66246, Note_on_c, 0, 60, 0
2, 66247, Note_on_c, 0, 57, 0
2, 66248, Note_on_c, 0, 70, 56
2, 66271, Note_on_c, 0, 69, 0
2, 66283, Note_on_c, 0, 70, 0
2, 66283, Note_on_c, 0, 71, 46
2, 66311, Note_on_c, 0, 71, 0
2, 66312, Note_on_c, 0, 74, 0
2, 66327, Note_on_c, 0, 57, 28
2, 66337, Note_on_c, 0, 57, 0
2, 66348, Note_on_c, 0, 62, 59
2, 66434, Note_on_c, 0, 50, 71
2, 66435, Note_on_c, 0, 49, 47
2, 66451, Note_on_c, 0, 49, 0
2, 66539, Note_on_c, 0, 50, 0
2, 66551, Note_on_c, 0, 50, 78
2, 66575, Note_on_c, 0, 62, 0
2, 66658, Note_on_c, 0, 50, 0
2, 66673, Note_on_c, 0, 50, 61
2, 66785, Note_on_c, 0, 70, 92
2, 66786, Note_on_c, 0, 61, 97
2, 66795, Note_on_c, 0, 71, 36
2, 66803, Note_on_c, 0, 71, 0
2, 66826, Note_on_c, 0, 70, 0
2, 66829, Note_on_c, 0, 61, 0
2, 66841, Note_on_c, 0, 71, 74
2, 66845, Note_on_c, 0, 62, 72
2, 66890, Note_on_c, 0, 50, 0
2, 66907, Note_on_c, 0, 62, 0
2, 66908, Note_on_c, 0, 71, 0
2, 66908, Note_on_c, 0, 50, 47
2, 66914, Note_on_c, 0, 49, 33
2, 66921, Note_on_c, 0, 49, 0
2, 66956, Note_on_c, 0, 70, 80
2, 66957, Note_on_c, 0, 61, 83
2, 66985, Note_on_c, 0, 50, 0
2, 67018, Note_on_c, 0, 70, 0
2, 67024, Note_on_c, 0, 61, 0
2, 67030, Note_on_c, 0, 50, 71
2, 67034, Note_on_c, 0, 71, 80
2, 67035, Note_on_c, 0, 62, 75
2, 67065, Note_on_c, 0, 62, 0
2, 67071, Note_on_c, 0, 71, 0
2, 67083, Note_on_c, 0, 69, 57
2, 67086, Note_on_c, 0, 50, 0
2, 67088, Note_on_c, 0, 60, 62
2, 67139, Note_on_c, 0, 60, 0
2, 67149, Note_on_c, 0, 69, 0
2, 67160, Note_on_c, 0, 55, 62
2, 67171, Note_on_c, 0, 55, 0
2, 67200, Note_on_c, 0, 72, 72
2, 67201, Note_on_c, 0, 69, 75
2, 67202, Note_on_c, 0, 64, 79
2, 67202, Note_on_c, 0, 67, 78
2, 67245, Note_on_c, 0, 67, 0
2, 67246, Note_on_c, 0, 64, 0
2, 67249, Note_on_c, 0, 72, 0
2, 67251, Note_on_c, 0, 69, 0
2, 67281, Note_on_c, 0, 72, 54
2, 67282, Note_on_c, 0, 67, 66
2, 67283, Note_on_c, 0, 64, 59
2, 67283, Note_on_c, 0, 69, 63
2, 67311, Note_on_c, 0, 64, 0
2, 67316, Note_on_c, 0, 72, 0
2, 67316, Note_on_c, 0, 67, 0
2, 67318, Note_on_c, 0, 69, 0
2, 67336, Note_on_c, 0, 72, 44
2, 67339, Note_on_c, 0, 64, 47
2, 67339, Note_on_c, 0, 67, 44
2, 67342, Note_on_c, 0, 69, 44
2, 67369, Note_on_c, 0, 64, 0
2, 67371, Note_on_c, 0, 67, 0
2, 67375, Note_on_c, 0, 69, 0
2, 67376, Note_on_c, 0, 72, 0
2, 67407, Note_on_c, 0, 72, 56
2, 67408, Note_on_c, 0, 60, 40
2, 67408, Note_on_c, 0, 67, 64
2, 67409, Note_on_c, 0, 69, 60
2, 67410, Note_on_c, 0, 64, 58
2, 67413, Note_on_c, 0, 55, 27
2, 67414, Note_on_c, 0, 59, 26
2, 67422, Note_on_c, 0, 59, 0
2, 67422, Note_on_c, 0, 60, 0
2, 67422, Note_on_c, 0, 55, 0
2, 67426, Note_on_c, 0, 64, 0
2, 67432, Note_on_c, 0, 67, 0
2, 67436, Note_on_c, 0, 69, 0
2, 67438, Note_on_c, 0, 72, 0
2, 67457, Note_on_c, 0, 74, 71
2, 67459, Note_on_c, 0, 69, 68
2, 67459, Note_on_c, 0, 65, 64
2, 67460, Note_on_c, 0, 71, 59
2, 67495, Note_on_c, 0, 74, 0
2, 67498, Note_on_c, 0, 69, 0
2, 67498, Note_on_c, 0, 71, 0
2, 67502, Note_on_c, 0, 65, 0
2, 67563, Note_on_c, 0, 72, 68
2, 67565, Note_on_c, 0, 67, 66
2, 67565, Note_on_c, 0, 64, 64
2, 67567, Note_on_c, 0, 69, 59
2, 67605, Note_on_c, 0, 69, 0
2, 67606, Note_on_c, 0, 67, 0
2, 67607, Note_on_c, 0, 72, 0
2, 67613, Note_on_c, 0, 64, 0
2, 67641, Note_on_c, 0, 71, 64
2, 67644, Note_on_c, 0, 65, 66
2, 67645, Note_on_c, 0, 62, 60
2, 67646, Note_on_c, 0, 67, 63
2, 67657, Note_on_c, 0, 57, 32
2, 67658, Note_on_c, 0, 53, 37
2, 67673, Note_on_c, 0, 57, 0
2, 67674, Note_on_c, 0, 67, 0
2, 67674, Note_on_c, 0, 71, 0
2, 67676, Note_on_c, 0, 65, 0
2, 67682, Note_on_c, 0, 62, 0
2, 67695, Note_on_c, 0, 53, 0
2, 67700, Note_on_c, 0, 69, 44
2, 67703, Note_on_c, 0, 64, 42
2, 67704, Note_on_c, 0, 65, 55
2, 67705, Note_on_c, 0, 60, 29
2, 67735, Note_on_c, 0, 65, 0
2, 67739, Note_on_c, 0, 69, 0
2, 67740, Note_on_c, 0, 64, 0
2, 67754, Note_on_c, 0, 60, 0
2, 67763, Note_on_c, 0, 53, 31
2, 67773, Note_on_c, 0, 53, 0
2, 67790, Note_on_c, 0, 65, 41
2, 67792, Note_on_c, 0, 57, 37
2, 67794, Note_on_c, 0, 60, 48
2, 67794, Note_on_c, 0, 62, 47
2, 67842, Note_on_c, 0, 65, 0
2, 67843, Note_on_c, 0, 60, 0
2, 67845, Note_on_c, 0, 57, 0
2, 67850, Note_on_c, 0, 62, 0
2, 67870, Note_on_c, 0, 65, 54
2, 67871, Note_on_c, 0, 57, 39
2, 67872, Note_on_c, 0, 60, 55
2, 67875, Note_on_c, 0, 62, 31
2, 67880, Note_on_c, 0, 57, 0
2, 67881, Note_on_c, 0, 60, 0
2, 67884, Note_on_c, 0, 62, 0
2, 67893, Note_on_c, 0, 65, 0
2, 67990, Note_on_c, 0, 64, 53
2, 67994, Note_on_c, 0, 57, 53
2, 67998, Note_on_c, 0, 60, 26
2, 68003, Note_on_c, 0, 64, 0
2, 68008, Note_on_c, 0, 60, 0
2, 68019, Note_on_c, 0, 57, 0
2, 68114, Note_on_c, 0, 57, 26
2, 68121, Note_on_c, 0, 57, 0
2, 68139, Note_on_c, 0, 53, 72
2, 68139, Note_on_c, 0, 60, 66
2, 68141, Note_on_c, 0, 72, 84
2, 68141, Note_on_c, 0, 57, 45
2, 68141, Note_on_c, 0, 64, 81
2, 68142, Note_on_c, 0, 84, 82
2, 68142, Note_on_c, 0, 80, 70
2, 68143, Note_on_c, 0, 78, 55
2, 68178, Note_on_c, 0, 78, 0
2, 68200, Note_on_c, 0, 81, 36
2, 68202, Note_on_c, 0, 80, 0
2, 68203, Note_on_c, 0, 72, 0
2, 68208, Note_on_c, 0, 60, 0
2, 68209, Note_on_c, 0, 81, 0
2, 68209, Note_on_c, 0, 84, 0
2, 68211, Note_on_c, 0, 64, 0
2, 68215, Note_on_c, 0, 57, 0
2, 68224, Note_on_c, 0, 53, 0
2, 68356, Note_on_c, 0, 59, 70
2, 68356, Note_on_c, 0, 53, 74
2, 68357, Note_on_c, 0, 64, 70
2, 68358, Note_on_c, 0, 77, 70
2, 68358, Note_on_c, 0, 72, 69
2, 68359, Note_on_c, 0, 57, 62
2, 68360, Note_on_c, 0, 74, 62
2, 68360, Note_on_c, 0, 65, 72
2, 68392, Note_on_c, 0, 64, 0
2, 68395, Note_on_c, 0, 65, 0
2, 68397, Note_on_c, 0, 72, 0
2, 68397, Note_on_c, 0, 77, 0
2, 68399, Note_on_c, 0, 53, 0
2, 68399, Note_on_c, 0, 57, 0
2, 68401, Note_on_c, 0, 74, 0
2, 68403, Note_on_c, 0, 59, 0
2, 68410, Note_on_c, 0, 53, 28
2, 68412, Note_on_c, 0, 59, 33
2, 68414, Note_on_c, 0, 64, 47
2, 68414, Note_on_c, 0, 77, 55
2, 68415, Note_on_c, 0, 72, 48
2, 68415, Note_on_c, 0, 57, 34
2, 68418, Note_on_c, 0, 65, 45
2, 68418, Note_on_c, 0, 74, 54
2, 68449, Note_on_c, 0, 64, 0
2, 68450, Note_on_c, 0, 57, 0
2, 68452, Note_on_c, 0, 74, 0
2, 68456, Note_on_c, 0, 72, 0
2, 68459, Note_on_c, 0, 59, 0
2, 68462, Note_on_c, 0, 77, 0
2, 68465, Note_on_c, 0, 53, 0
2, 68468, Note_on_c, 0, 65, 0
2, 68516, Note_on_c, 0, 53, 63
2, 68517, Note_on_c, 0, 71, 54
2, 68517, Note_on_c, 0, 76, 57
2, 68518, Note_on_c, 0, 68, 47
2, 68518, Note_on_c, 0, 65, 48
2, 68519, Note_on_c, 0, 63, 52
2, 68520, Note_on_c, 0, 59, 58
2, 68521, Note_on_c, 0, 56, 42
2, 68526, Note_on_c, 0, 74, 24
2, 68540, Note_on_c, 0, 65, 0
2, 68543, Note_on_c, 0, 63, 0
2, 68546, Note_on_c, 0, 68, 0
2, 68548, Note_on_c, 0, 74, 0
2, 68548, Note_on_c, 0, 53, 0
2, 68549, Note_on_c, 0, 71, 0
2, 68550, Note_on_c, 0, 59, 0
2, 68552, Note_on_c, 0, 56, 0
2, 68555, Note_on_c, 0, 76, 0
2, 68596, Note_on_c, 0, 63, 49
2, 68597, Note_on_c, 0, 81, 69
2, 68598, Note_on_c, 0, 59, 53
2, 68598, Note_on_c, 0, 76, 74
2, 68600, Note_on_c, 0, 56, 32
2, 68601, Note_on_c, 0, 69, 57
2, 68603, Note_on_c, 0, 71, 44
2, 68610, Note_on_c, 0, 59, 0
2, 68612, Note_on_c, 0, 63, 0
2, 68612, Note_on_c, 0, 71, 0
2, 68613, Note_on_c, 0, 56, 0
2, 68620, Note_on_c, 0, 69, 0
2, 68621, Note_on_c, 0, 76, 0
2, 68623, Note_on_c, 0, 81, 0
2, 68647, Note_on_c, 0, 64, 59
2, 68649, Note_on_c, 0, 60, 60
2, 68650, Note_on_c, 0, 76, 58
2, 68651, Note_on_c, 0, 55, 57
2, 68651, Note_on_c, 0, 79, 48
2, 68653, Note_on_c, 0, 67, 47
2, 68657, Note_on_c, 0, 72, 37
2, 68754, Control_c, 0, 64, 127
2, 68759, Note_on_c, 0, 67, 0
2, 68764, Note_on_c, 0, 60, 0
2, 68767, Note_on_c, 0, 72, 0
2, 68776, Note_on_c, 0, 55, 0
2, 68780, Note_on_c, 0, 76, 0
2, 68783, Note_on_c, 0, 79, 0
2, 68798, Note_on_c, 0, 64, 0
2, 68824, Control_c, 0, 64, 0
2, 68831, Note_on_c, 0, 56, 47
2, 68832, Note_on_c, 0, 65, 44
2, 68833, Note_on_c, 0, 62, 49
2, 68835, Note_on_c, 0, 59, 34
2, 68880, Note_on_c, 0, 65, 0
2, 68892, Note_on_c, 0, 88, 58
2, 68892, Note_on_c, 0, 89, 54
2, 68908, Note_on_c, 0, 89, 0
2, 68908, Note_on_c, 0, 88, 0
2, 68908, Note_on_c, 0, 92, 69
2, 68916, Note_on_c, 0, 62, 0
2, 68921, Note_on_c, 0, 89, 44
2, 68923, Note_on_c, 0, 59, 0
2, 68933, Note_on_c, 0, 92, 0
2, 68939, Note_on_c, 0, 89, 0
2, 68944, Note_on_c, 0, 86, 64
2, 68961, Note_on_c, 0, 86, 0
2, 68967, Note_on_c, 0, 85, 69
2, 68971, Note_on_c, 0, 56, 0
2, 68985, Note_on_c, 0, 56, 18
2, 68989, Note_on_c, 0, 84, 58
2, 68990, Note_on_c, 0, 62, 33
2, 68992, Note_on_c, 0, 59, 35
2, 68998, Note_on_c, 0, 85, 0
2, 69006, Note_on_c, 0, 84, 0
2, 69011, Note_on_c, 0, 83, 53
2, 69014, Note_on_c, 0, 62, 0
2, 69025, Note_on_c, 0, 59, 0
2, 69034, Note_on_c, 0, 83, 0
2, 69034, Note_on_c, 0, 82, 50
2, 69039, Note_on_c, 0, 56, 0
2, 69056, Note_on_c, 0, 82, 0
2, 69059, Note_on_c, 0, 81, 54
2, 69085, Note_on_c, 0, 81, 0
2, 69089, Note_on_c, 0, 80, 52
2, 69106, Note_on_c, 0, 80, 0
2, 69114, Note_on_c, 0, 64, 32
2, 69116, Note_on_c, 0, 83, 62
2, 69117, Note_on_c, 0, 60, 42
2, 69119, Note_on_c, 0, 57, 43
2, 69144, Note_on_c, 0, 83, 0
2, 69144, Note_on_c, 0, 80, 42
2, 69158, Note_on_c, 0, 80, 0
2, 69163, Note_on_c, 0, 64, 0
2, 69173, Note_on_c, 0, 81, 73
2, 69185, Note_on_c, 0, 60, 0
2, 69201, Note_on_c, 0, 81, 0
2, 69205, Note_on_c, 0, 76, 62
2, 69226, Note_on_c, 0, 76, 0
2, 69232, Note_on_c, 0, 64, 31
2, 69236, Note_on_c, 0, 60, 32
2, 69241, Note_on_c, 0, 74, 62
2, 69248, Note_on_c, 0, 64, 0
2, 69263, Note_on_c, 0, 74, 0
2, 69275, Note_on_c, 0, 60, 0
2, 69293, Note_on_c, 0, 57, 0
2, 69310, Note_on_c, 0, 72, 84
2, 69326, Note_on_c, 0, 72, 0
2, 69358, Note_on_c, 0, 55, 50
2, 69359, Note_on_c, 0, 64, 31
2, 69360, Note_on_c, 0, 60, 46
2, 69360, Note_on_c, 0, 71, 74
2, 69400, Note_on_c, 0, 71, 0
2, 69402, Note_on_c, 0, 72, 70
2, 69410, Note_on_c, 0, 55, 0
2, 69417, Note_on_c, 0, 64, 0
2, 69418, Note_on_c, 0, 60, 0
2, 69422, Note_on_c, 0, 72, 0
2, 69436, Note_on_c, 0, 74, 79
2, 69471, Note_on_c, 0, 74, 0
2, 69474, Note_on_c, 0, 55, 40
2, 69475, Note_on_c, 0, 64, 20
2, 69476, Note_on_c, 0, 67, 46
2, 69482, Note_on_c, 0, 60, 29
2, 69503, Note_on_c, 0, 67, 0
2, 69516, Note_on_c, 0, 69, 62
2, 69522, Note_on_c, 0, 64, 0
2, 69526, Note_on_c, 0, 55, 0
2, 69531, Note_on_c, 0, 60, 0
2, 69535, Note_on_c, 0, 69, 0
2, 69550, Note_on_c, 0, 71, 85
2, 69572, Note_on_c, 0, 71, 0
2, 69585, Note_on_c, 0, 54, 37
2, 69595, Note_on_c, 0, 66, 62
2, 69598, Note_on_c, 0, 60, 20
2, 69614, Note_on_c, 0, 60, 0
2, 69633, Note_on_c, 0, 66, 0
2, 69633, Note_on_c, 0, 67, 68
2, 69653, Note_on_c, 0, 54, 0
2, 69655, Note_on_c, 0, 67, 0
2, 69669, Note_on_c, 0, 69, 83
2, 69684, Note_on_c, 0, 54, 45
2, 69699, Note_on_c, 0, 69, 0
2, 69716, Note_on_c, 0, 54, 0
2, 69718, Note_on_c, 0, 64, 32
2, 69749, Note_on_c, 0, 64, 0
2, 69750, Note_on_c, 0, 66, 30
2, 69773, Note_on_c, 0, 66, 0
2, 69788, Note_on_c, 0, 67, 84
2, 69811, Note_on_c, 0, 67, 0
2, 69826, Note_on_c, 0, 47, 29
2, 69829, Note_on_c, 0, 57, 20
2, 69831, Note_on_c, 0, 66, 64
2, 69873, Note_on_c, 0, 57, 0
2, 69906, Note_on_c, 0, 66, 0
2, 69911, Note_on_c, 0, 63, 30
2, 69915, Note_on_c, 0, 66, 17
2, 69942, Note_on_c, 0, 63, 0
2, 69948, Note_on_c, 0, 59, 36
2, 69949, Note_on_c, 0, 57, 31
2, 69950, Note_on_c, 0, 66, 0
2, 69950, Control_c, 0, 64, 127
2, 69955, Note_on_c, 0, 59, 0
2, 69968, Note_on_c, 0, 47, 0
2, 69976, Note_on_c, 0, 57, 0
2, 70024, Control_c, 0, 64, 0
2, 70030, Note_on_c, 0, 78, 76
2, 70030, Note_on_c, 0, 54, 25
2, 70031, Note_on_c, 0, 58, 52
2, 70031, Note_on_c, 0, 66, 95
2, 70032, Note_on_c, 0, 73, 63
2, 70035, Note_on_c, 0, 52, 62
2, 70038, Note_on_c, 0, 60, 55
2, 70042, Note_on_c, 0, 52, 0
2, 70045, Note_on_c, 0, 60, 0
2, 70048, Note_on_c, 0, 58, 0
2, 70050, Note_on_c, 0, 52, 17
2, 70055, Note_on_c, 0, 54, 0
2, 70062, Note_on_c, 0, 52, 0
2, 70075, Note_on_c, 0, 73, 0
2, 70081, Note_on_c, 0, 66, 0
2, 70084, Note_on_c, 0, 78, 0
2, 70098, Note_on_c, 0, 79, 46
2, 70098, Note_on_c, 0, 67, 56
2, 70101, Note_on_c, 0, 74, 56
2, 70105, Note_on_c, 0, 77, 35
2, 70115, Note_on_c, 0, 77, 0
2, 70121, Note_on_c, 0, 67, 0
2, 70123, Note_on_c, 0, 79, 0
2, 70134, Note_on_c, 0, 74, 0
2, 70155, Note_on_c, 0, 62, 61
2, 70156, Note_on_c, 0, 70, 72
2, 70156, Note_on_c, 0, 82, 75
2, 70158, Note_on_c, 0, 52, 36
2, 70158, Note_on_c, 0, 55, 55
2, 70158, Note_on_c, 0, 59, 42
2, 70174, Note_on_c, 0, 62, 0
2, 70188, Note_on_c, 0, 52, 0
2, 70191, Note_on_c, 0, 55, 0
2, 70191, Note_on_c, 0, 70, 0
2, 70192, Note_on_c, 0, 82, 0
2, 70194, Note_on_c, 0, 59, 0
2, 70217, Note_on_c, 0, 71, 49
2, 70218, Note_on_c, 0, 83, 52
2, 70241, Note_on_c, 0, 71, 0
2, 70247, Note_on_c, 0, 83, 0
2, 70278, Note_on_c, 0, 55, 78
2, 70278, Note_on_c, 0, 66, 70
2, 70280, Note_on_c, 0, 61, 60
2, 70281, Note_on_c, 0, 72, 88
2, 70282, Note_on_c, 0, 84, 89
2, 70290, Note_on_c, 0, 83, 30
2, 70297, Note_on_c, 0, 83, 0
2, 70315, Note_on_c, 0, 84, 0
2, 70322, Note_on_c, 0, 72, 0
2, 70324, Note_on_c, 0, 55, 0
2, 70330, Note_on_c, 0, 66, 0
2, 70337, Note_on_c, 0, 66, 25
2, 70341, Note_on_c, 0, 55, 48
2, 70347, Note_on_c, 0, 73, 38
2, 70348, Note_on_c, 0, 85, 63
2, 70366, Note_on_c, 0, 73, 0
2, 70366, Note_on_c, 0, 55, 0
2, 70367, Note_on_c, 0, 85, 0
2, 70375, Note_on_c, 0, 66, 0
2, 70381, Note_on_c, 0, 61, 0
2, 70397, Note_on_c, 0, 55, 81
2, 70397, Note_on_c, 0, 75, 80
2, 70397, Note_on_c, 0, 66, 72
2, 70398, Note_on_c, 0, 87, 83
2, 70398, Note_on_c, 0, 61, 57
2, 70429, Note_on_c, 0, 66, 0
2, 70430, Note_on_c, 0, 55, 0
2, 70432, Note_on_c, 0, 87, 0
2, 70434, Note_on_c, 0, 75, 0
2, 70438, Note_on_c, 0, 61, 0
2, 70448, Note_on_c, 0, 66, 43
2, 70449, Note_on_c, 0, 55, 44
2, 70451, Note_on_c, 0, 61, 46
2, 70455, Note_on_c, 0, 76, 52
2, 70455, Note_on_c, 0, 88, 53
2, 70466, Note_on_c, 0, 76, 0
2, 70469, Note_on_c, 0, 55, 0
2, 70474, Note_on_c, 0, 66, 0
2, 70475, Note_on_c, 0, 88, 0
2, 70484, Note_on_c, 0, 61, 0
2, 70515, Note_on_c, 0, 55, 80
2, 70515, Note_on_c, 0, 61, 69
2, 70517, Note_on_c, 0, 79, 82
2, 70518, Note_on_c, 0, 91, 79
2, 70526, Note_on_c, 0, 89, 32
2, 70534, Note_on_c, 0, 89, 0
2, 70546, Note_on_c, 0, 79, 0
2, 70552, Note_on_c, 0, 91, 0
2, 70553, Note_on_c, 0, 55, 0
2, 70573, Note_on_c, 0, 61, 0
2, 70578, Note_on_c, 0, 55, 35
2, 70579, Note_on_c, 0, 64, 50
2, 70583, Note_on_c, 0, 60, 59
2, 70583, Note_on_c, 0, 57, 44
2, 70584, Note_on_c, 0, 83, 35
2, 70588, Note_on_c, 0, 95, 28
2, 70613, Note_on_c, 0, 83, 0
2, 70618, Note_on_c, 0, 95, 0
2, 70621, Note_on_c, 0, 55, 0
2, 70622, Note_on_c, 0, 64, 0
2, 70623, Note_on_c, 0, 60, 0
2, 70625, Note_on_c, 0, 57, 0
2, 70639, Note_on_c, 0, 98, 76
2, 70640, Note_on_c, 0, 86, 82
2, 70640, Note_on_c, 0, 64, 62
2, 70640, Note_on_c, 0, 55, 62
2, 70641, Note_on_c, 0, 60, 67
2, 70642, Note_on_c, 0, 57, 62
2, 70667, Note_on_c, 0, 86, 0
2, 70671, Note_on_c, 0, 55, 0
2, 70673, Note_on_c, 0, 98, 0
2, 70677, Note_on_c, 0, 64, 0
2, 70677, Note_on_c, 0, 57, 0
2, 70677, Note_on_c, 0, 60, 0
2, 70685, Note_on_c, 0, 55, 51
2, 70686, Note_on_c, 0, 64, 30
2, 70687, Note_on_c, 0, 60, 33
2, 70688, Note_on_c, 0, 57, 33
2, 70688, Note_on_c, 0, 98, 57
2, 70690, Note_on_c, 0, 86, 59
2, 70721, Note_on_c, 0, 86, 0
2, 70726, Note_on_c, 0, 98, 0
2, 70727, Note_on_c, 0, 64, 0
2, 70728, Note_on_c, 0, 55, 0
2, 70729, Note_on_c, 0, 60, 0
2, 70731, Note_on_c, 0, 57, 0
2, 70753, Note_on_c, 0, 55, 60
2, 70754, Note_on_c, 0, 98, 68
2, 70756, Note_on_c, 0, 64, 50
2, 70756, Note_on_c, 0, 86, 70
2, 70759, Note_on_c, 0, 60, 51
2, 70759, Note_on_c, 0, 57, 45
2, 70769, Note_on_c, 0, 57, 0
2, 70771, Note_on_c, 0, 86, 0
2, 70773, Note_on_c, 0, 64, 0
2, 70773, Note_on_c, 0, 55, 0
2, 70779, Note_on_c, 0, 98, 0
2, 70783, Note_on_c, 0, 60, 0
2, 70801, Note_on_c, 0, 60, 47
2, 70801, Note_on_c, 0, 64, 60
2, 70803, Note_on_c, 0, 54, 49
2, 70804, Note_on_c, 0, 95, 78
2, 70806, Note_on_c, 0, 86, 76
2, 70829, Note_on_c, 0, 95, 0
2, 70839, Note_on_c, 0, 86, 0
2, 70839, Note_on_c, 0, 98, 48
2, 70841, Note_on_c, 0, 60, 0
2, 70855, Note_on_c, 0, 64, 0
2, 70858, Note_on_c, 0, 95, 42
2, 70881, Note_on_c, 0, 98, 0
2, 70881, Note_on_c, 0, 91, 60
2, 70887, Note_on_c, 0, 95, 0
2, 70892, Note_on_c, 0, 60, 24
2, 70898, Note_on_c, 0, 86, 66
2, 70899, Note_on_c, 0, 91, 0
2, 70916, Note_on_c, 0, 86, 0
2, 70923, Note_on_c, 0, 54, 0
2, 70933, Note_on_c, 0, 97, 77
2, 70934, Note_on_c, 0, 85, 80
2, 70942, Note_on_c, 0, 60, 0
2, 70972, Note_on_c, 0, 85, 0
2, 70972, Note_on_c, 0, 94, 33
2, 70987, Note_on_c, 0, 90, 29
2, 70991, Note_on_c, 0, 97, 0
2, 70995, Note_on_c, 0, 96, 29
2, 71006, Note_on_c, 0, 96, 0
2, 71011, Note_on_c, 0, 90, 0
2, 71018, Note_on_c, 0, 84, 47
2, 71026, Note_on_c, 0, 94, 0
2, 71041, Note_on_c, 0, 84, 0
2, 71044, Note_on_c, 0, 62, 33
2, 71052, Note_on_c, 0, 93, 84
2, 71053, Note_on_c, 0, 54, 23
2, 71054, Note_on_c, 0, 96, 74
2, 71066, Note_on_c, 0, 62, 0
2, 71073, Note_on_c, 0, 54, 0
2, 71096, Note_on_c, 0, 93, 0
2, 71102, Note_on_c, 0, 96, 0
2, 71126, Note_on_c, 0, 83, 67
2, 71127, Note_on_c, 0, 90, 68
2, 71129, Note_on_c, 0, 95, 60
2, 71131, Note_on_c, 0, 93, 55
2, 71135, Note_on_c, 0, 62, 37
2, 71137, Note_on_c, 0, 93, 0
2, 71140, Note_on_c, 0, 59, 24
2, 71158, Note_on_c, 0, 62, 0
2, 71161, Note_on_c, 0, 90, 0
2, 71168, Note_on_c, 0, 95, 0
2, 71170, Note_on_c, 0, 83, 0
2, 71188, Note_on_c, 0, 91, 66
2, 71192, Note_on_c, 0, 79, 42
2, 71193, Note_on_c, 0, 59, 0
2, 71195, Note_on_c, 0, 86, 49
2, 71203, Note_on_c, 0, 86, 0
2, 71230, Note_on_c, 0, 79, 0
2, 71235, Note_on_c, 0, 91, 0
2, 71251, Note_on_c, 0, 91, 60
2, 71255, Note_on_c, 0, 86, 75
2, 71256, Note_on_c, 0, 79, 39
2, 71264, Note_on_c, 0, 79, 0
2, 71265, Note_on_c, 0, 88, 29
2, 71271, Note_on_c, 0, 90, 31
2, 71277, Note_on_c, 0, 90, 0
2, 71280, Note_on_c, 0, 88, 0
2, 71283, Note_on_c, 0, 91, 0
2, 71289, Note_on_c, 0, 86, 0
2, 71304, Note_on_c, 0, 80, 49
2, 71304, Note_on_c, 0, 91, 48
2, 71307, Note_on_c, 0, 86, 51
2, 71310, Note_on_c, 0, 88, 49
2, 71330, Note_on_c, 0, 86, 0
2, 71331, Note_on_c, 0, 80, 0
2, 71333, Note_on_c, 0, 91, 0
2, 71334, Note_on_c, 0, 88, 0
2, 71396, Note_on_c, 0, 62, 53
2, 71399, Note_on_c, 0, 58, 48
2, 71400, Note_on_c, 0, 57, 41
2, 71436, Note_on_c, 0, 57, 0
2, 71440, Note_on_c, 0, 58, 0
2, 71442, Note_on_c, 0, 62, 0
2, 71485, Note_on_c, 0, 62, 35
2, 71493, Note_on_c, 0, 62, 0
2, 71521, Note_on_c, 0, 82, 85
2, 71521, Note_on_c, 0, 88, 88
2, 71522, Note_on_c, 0, 76, 85
2, 71523, Note_on_c, 0, 57, 82
2, 71523, Note_on_c, 0, 65, 87
2, 71523, Note_on_c, 0, 62, 80
2, 71527, Note_on_c, 0, 86, 47
2, 71534, Note_on_c, 0, 86, 0
2, 71575, Note_on_c, 0, 83, 42
2, 71577, Note_on_c, 0, 82, 0
2, 71595, Note_on_c, 0, 83, 0
2, 71596, Note_on_c, 0, 88, 0
2, 71596, Note_on_c, 0, 76, 0
2, 71600, Note_on_c, 0, 65, 0
2, 71601, Note_on_c, 0, 57, 0
2, 71605, Note_on_c, 0, 62, 0
2, 71637, Note_on_c, 0, 65, 71
2, 71637, Note_on_c, 0, 82, 64
2, 71637, Note_on_c, 0, 62, 67
2, 71638, Note_on_c, 0, 56, 69
2, 71638, Note_on_c, 0, 86, 81
2, 71638, Note_on_c, 0, 74, 72
2, 71641, Note_on_c, 0, 80, 43
2, 71656, Note_on_c, 0, 80, 0
2, 71710, Note_on_c, 0, 83, 19
2, 71717, Note_on_c, 0, 62, 0
2, 71727, Note_on_c, 0, 74, 0
2, 71728, Note_on_c, 0, 86, 0
2, 71729, Note_on_c, 0, 65, 0
2, 71738, Note_on_c, 0, 56, 0
2, 71740, Note_on_c, 0, 83, 0
2, 71740, Note_on_c, 0, 82, 0
2, 71753, Control_c, 0, 64, 127
2, 71759, Note_on_c, 0, 64, 46
2, 71760, Note_on_c, 0, 86, 71
2, 71760, Note_on_c, 0, 55, 48
2, 71762, Note_on_c, 0, 74, 51
2, 71763, Note_on_c, 0, 60, 50
2, 71764, Note_on_c, 0, 57, 47
2, 71765, Note_on_c, 0, 81, 53
2, 71812, Note_on_c, 0, 55, 0
2, 71817, Note_on_c, 0, 57, 0
2, 71819, Note_on_c, 0, 64, 0
2, 71825, Note_on_c, 0, 60, 0
2, 71840, Note_on_c, 0, 64, 58
2, 71841, Note_on_c, 0, 54, 64
2, 71841, Note_on_c, 0, 60, 66
2, 71871, Note_on_c, 0, 74, 0
2, 71881, Note_on_c, 0, 60, 0
2, 71882, Note_on_c, 0, 64, 0
2, 71882, Note_on_c, 0, 81, 0
2, 71887, Note_on_c, 0, 86, 0
2, 71892, Note_on_c, 0, 54, 0
2, 71952, Control_c, 0, 64, 0
2, 71961, Note_on_c, 0, 59, 82
2, 71961, Note_on_c, 0, 91, 91
2, 71961, Note_on_c, 0, 62, 87
2, 71962, Note_on_c, 0, 54, 82
2, 71963, Note_on_c, 0, 79, 63
2, 71965, Note_on_c, 0, 81, 66
2, 71971, Note_on_c, 0, 81, 0
2, 71974, Note_on_c, 0, 62, 0
2, 71974, Note_on_c, 0, 79, 0
2, 71976, Note_on_c, 0, 59, 0
2, 71981, Note_on_c, 0, 91, 0
2, 71985, Note_on_c, 0, 54, 0
2, 72077, Note_on_c, 0, 54, 83
2, 72077, Note_on_c, 0, 62, 88
2, 72077, Note_on_c, 0, 59, 85
2, 72079, Note_on_c, 0, 83, 85
2, 72079, Note_on_c, 0, 95, 83
2, 72082, Note_on_c, 0, 91, 64
2, 72088, Note_on_c, 0, 91, 0
2, 72090, Note_on_c, 0, 62, 0
2, 72092, Note_on_c, 0, 59, 0
2, 72093, Note_on_c, 0, 83, 0
2, 72099, Note_on_c, 0, 95, 0
2, 72100, Note_on_c, 0, 54, 0
2, 72122, Note_on_c, 0, 54, 80
2, 72123, Note_on_c, 0, 98, 83
2, 72123, Note_on_c, 0, 62, 81
2, 72123, Note_on_c, 0, 59, 79
2, 72124, Note_on_c, 0, 86, 84
2, 72125, Note_on_c, 0, 95, 67
2, 72161, Note_on_c, 0, 95, 0
2, 72167, Note_on_c, 0, 86, 0
2, 72171, Note_on_c, 0, 62, 0
2, 72174, Note_on_c, 0, 98, 0
2, 72178, Note_on_c, 0, 59, 0
2, 72180, Note_on_c, 0, 54, 0
2, 72205, Note_on_c, 0, 54, 65
2, 72206, Note_on_c, 0, 59, 66
2, 72206, Note_on_c, 0, 98, 61
2, 72206, Note_on_c, 0, 62, 71
2, 72207, Note_on_c, 0, 86, 74
2, 72208, Note_on_c, 0, 96, 60
2, 72215, Note_on_c, 0, 96, 0
2, 72219, Note_on_c, 0, 86, 0
2, 72220, Note_on_c, 0, 98, 0
2, 72221, Note_on_c, 0, 62, 0
2, 72224, Note_on_c, 0, 59, 0
2, 72226, Note_on_c, 0, 54, 0
2, 72253, Note_on_c, 0, 54, 56
2, 72255, Note_on_c, 0, 62, 50
2, 72255, Note_on_c, 0, 59, 54
2, 72276, Note_on_c, 0, 59, 0
2, 72276, Note_on_c, 0, 62, 0
2, 72284, Note_on_c, 0, 54, 0
2, 72320, Note_on_c, 0, 79, 57
2, 72321, Note_on_c, 0, 54, 63
2, 72324, Note_on_c, 0, 62, 62
2, 72325, Note_on_c, 0, 59, 65
2, 72331, Note_on_c, 0, 79, 0
2, 72360, Note_on_c, 0, 59, 0
2, 72384, Note_on_c, 0, 54, 0
2, 72387, Note_on_c, 0, 62, 0
2, 72389, Note_on_c, 0, 98, 60
2, 72390, Note_on_c, 0, 91, 64
2, 72425, Note_on_c, 0, 91, 0
2, 72429, Note_on_c, 0, 95, 45
2, 72444, Note_on_c, 0, 91, 47
2, 72451, Note_on_c, 0, 98, 0
2, 72454, Note_on_c, 0, 95, 0
2, 72466, Note_on_c, 0, 91, 0
2, 72466, Note_on_c, 0, 86, 55
2, 72476, Note_on_c, 0, 86, 0
2, 72495, Note_on_c, 0, 96, 72
2, 72495, Note_on_c, 0, 89, 80
2, 72535, Note_on_c, 0, 89, 0
2, 72548, Note_on_c, 0, 93, 42
2, 72558, Note_on_c, 0, 89, 49
2, 72563, Note_on_c, 0, 93, 0
2, 72564, Note_on_c, 0, 96, 0
2, 72575, Note_on_c, 0, 53, 24
2, 72575, Note_on_c, 0, 60, 50
2, 72575, Note_on_c, 0, 57, 54
2, 72582, Note_on_c, 0, 89, 0
2, 72587, Note_on_c, 0, 53, 0
2, 72587, Note_on_c, 0, 84, 33
2, 72593, Note_on_c, 0, 60, 0
2, 72595, Note_on_c, 0, 84, 0
2, 72598, Note_on_c, 0, 57, 0
2, 72607, Note_on_c, 0, 89, 75
2, 72612, Note_on_c, 0, 93, 66
2, 72652, Note_on_c, 0, 89, 0
2, 72660, Note_on_c, 0, 93, 0
2, 72683, Note_on_c, 0, 59, 60
2, 72683, Note_on_c, 0, 64, 62
2, 72685, Note_on_c, 0, 53, 50
2, 72690, Note_on_c, 0, 64, 0
2, 72693, Note_on_c, 0, 59, 0
2, 72694, Note_on_c, 0, 53, 0
2, 72751, Note_on_c, 0, 87, 64
2, 72752, Note_on_c, 0, 79, 58
2, 72752, Note_on_c, 0, 53, 62
2, 72752, Note_on_c, 0, 91, 64
2, 72755, Note_on_c, 0, 59, 56
2, 72755, Note_on_c, 0, 64, 61
2, 72777, Note_on_c, 0, 88, 44
2, 72780, Note_on_c, 0, 87, 0
2, 72799, Note_on_c, 0, 88, 0
2, 72801, Note_on_c, 0, 64, 0
2, 72803, Note_on_c, 0, 59, 0
2, 72804, Note_on_c, 0, 79, 0
2, 72806, Note_on_c, 0, 53, 0
2, 72807, Note_on_c, 0, 91, 0
2, 72837, Note_on_c, 0, 77, 71
2, 72838, Note_on_c, 0, 89, 68
2, 72838, Note_on_c, 0, 63, 72
2, 72838, Note_on_c, 0, 53, 64
2, 72839, Note_on_c, 0, 85, 69
2, 72841, Note_on_c, 0, 59, 62
2, 72843, Note_on_c, 0, 56, 42
2, 72864, Note_on_c, 0, 86, 48
2, 72868, Note_on_c, 0, 85, 0
2, 72888, Note_on_c, 0, 77, 0
2, 72889, Note_on_c, 0, 53, 0
2, 72890, Note_on_c, 0, 86, 0
2, 72892, Note_on_c, 0, 89, 0
2, 72892, Note_on_c, 0, 63, 0
2, 72898, Note_on_c, 0, 56, 0
2, 72902, Note_on_c, 0, 59, 0
2, 72916, Note_on_c, 0, 59, 29
2, 72917, Note_on_c, 0, 88, 65
2, 72918, Note_on_c, 0, 62, 58
2, 72919, Note_on_c, 0, 52, 55
2, 72920, Note_on_c, 0, 55, 54
2, 72920, Note_on_c, 0, 76, 58
2, 72920, Note_on_c, 0, 83, 50
2, 72950, Control_c, 0, 64, 127
2, 72965, Note_on_c, 0, 88, 0
2, 72970, Note_on_c, 0, 83, 0
2, 72978, Note_on_c, 0, 52, 0
2, 72979, Note_on_c, 0, 76, 0
2, 72986, Note_on_c, 0, 62, 0
2, 72988, Note_on_c, 0, 55, 0
2, 72993, Note_on_c, 0, 59, 0
2, 73035, Note_on_c, 0, 59, 58
2, 73040, Note_on_c, 0, 55, 57
2, 73041, Note_on_c, 0, 52, 45
2, 73074, Note_on_c, 0, 59, 0
2, 73074, Control_c, 0, 64, 0
2, 73083, Note_on_c, 0, 64, 75
2, 73085, Note_on_c, 0, 52, 0
2, 73086, Note_on_c, 0, 55, 0
2, 73101, Note_on_c, 0, 64, 0
2, 73104, Note_on_c, 0, 65, 49
2, 73122, Note_on_c, 0, 65, 0
2, 73131, Note_on_c, 0, 64, 24
2, 73151, Note_on_c, 0, 64, 0
2, 73153, Note_on_c, 0, 63, 33
2, 73168, Note_on_c, 0, 63, 0
2, 73182, Note_on_c, 0, 64, 44
2, 73203, Note_on_c, 0, 64, 0
2, 73214, Note_on_c, 0, 66, 77
2, 73242, Note_on_c, 0, 66, 0
2, 73260, Note_on_c, 0, 66, 79
2, 73270, Note_on_c, 0, 59, 43
2, 73271, Note_on_c, 0, 49, 40
2, 73285, Note_on_c, 0, 59, 0
2, 73288, Note_on_c, 0, 66, 0
2, 73299, Note_on_c, 0, 49, 0
2, 73311, Note_on_c, 0, 66, 74
2, 73332, Note_on_c, 0, 66, 0
2, 73345, Note_on_c, 0, 66, 69
2, 73366, Note_on_c, 0, 66, 0
2, 73510, Note_on_c, 0, 67, 80
2, 73510, Note_on_c, 0, 55, 63
2, 73510, Note_on_c, 0, 62, 84
2, 73510, Note_on_c, 0, 47, 54
2, 73511, Note_on_c, 0, 59, 84
2, 73526, Note_on_c, 0, 59, 0
2, 73533, Note_on_c, 0, 67, 0
2, 73537, Note_on_c, 0, 62, 0
2, 73547, Note_on_c, 0, 55, 0
2, 73557, Note_on_c, 0, 66, 63
2, 73559, Note_on_c, 0, 61, 52
2, 73563, Note_on_c, 0, 54, 27
2, 73596, Note_on_c, 0, 61, 0
2, 73605, Note_on_c, 0, 66, 0
2, 73621, Control_c, 0, 64, 127
2, 73625, Note_on_c, 0, 54, 0
2, 73630, Note_on_c, 0, 47, 0
2, 73632, Note_on_c, 0, 67, 67
2, 73634, Note_on_c, 0, 62, 58
2, 73636, Note_on_c, 0, 55, 55
2, 73640, Note_on_c, 0, 62, 0
2, 73650, Note_on_c, 0, 55, 0
2, 73654, Note_on_c, 0, 67, 0
2, 73659, Control_c, 0, 64, 0
2, 73758, Note_on_c, 0, 66, 72
2, 73759, Note_on_c, 0, 54, 72
2, 73760, Note_on_c, 0, 59, 73
2, 73760, Note_on_c, 0, 62, 77
2, 73788, Note_on_c, 0, 59, 0
2, 73790, Note_on_c, 0, 62, 0
2, 73796, Control_c, 0, 64, 127
2, 73802, Note_on_c, 0, 66, 0
2, 73806, Note_on_c, 0, 55, 62
2, 73806, Note_on_c, 0, 67, 65
2, 73808, Note_on_c, 0, 59, 54
2, 73809, Note_on_c, 0, 54, 0
2, 73810, Note_on_c, 0, 62, 37
2, 73820, Note_on_c, 0, 55, 0
2, 73821, Note_on_c, 0, 59, 0
2, 73823, Note_on_c, 0, 62, 0
2, 73840, Note_on_c, 0, 67, 0
2, 73878, Control_c, 0, 64, 0
2, 73887, Note_on_c, 0, 60, 43
2, 73895, Note_on_c, 0, 60, 0
2, 73925, Note_on_c, 0, 55, 65
2, 73925, Note_on_c, 0, 57, 54
2, 73926, Note_on_c, 0, 64, 63
2, 73927, Note_on_c, 0, 60, 63
2, 73928, Note_on_c, 0, 68, 74
2, 73929, Note_on_c, 0, 75, 67
2, 73930, Note_on_c, 0, 80, 62
2, 73971, Note_on_c, 0, 80, 0
2, 73975, Note_on_c, 0, 68, 0
2, 73985, Note_on_c, 0, 55, 0
2, 73987, Note_on_c, 0, 64, 0
2, 73990, Note_on_c, 0, 57, 0
2, 73991, Note_on_c, 0, 60, 0
2, 73993, Note_on_c, 0, 75, 0
2, 74008, Note_on_c, 0, 81, 68
2, 74008, Note_on_c, 0, 69, 70
2, 74008, Note_on_c, 0, 55, 62
2, 74008, Note_on_c, 0, 64, 44
2, 74010, Note_on_c, 0, 57, 52
2, 74010, Note_on_c, 0, 60, 49
2, 74010, Note_on_c, 0, 76, 66
2, 74018, Note_on_c, 0, 79, 25
2, 74027, Note_on_c, 0, 79, 0
2, 74027, Note_on_c, 0, 69, 0
2, 74028, Note_on_c, 0, 64, 0
2, 74029, Note_on_c, 0, 60, 0
2, 74031, Note_on_c, 0, 76, 0
2, 74032, Note_on_c, 0, 55, 0
2, 74034, Note_on_c, 0, 57, 0
2, 74035, Note_on_c, 0, 81, 0
2, 74061, Note_on_c, 0, 81, 56
2, 74062, Note_on_c, 0, 55, 33
2, 74062, Note_on_c, 0, 76, 56
2, 74063, Note_on_c, 0, 60, 32
2, 74065, Note_on_c, 0, 69, 34
2, 74069, Note_on_c, 0, 57, 24
2, 74070, Note_on_c, 0, 81, 0
2, 74071, Note_on_c, 0, 76, 0
2, 74072, Note_on_c, 0, 69, 0
2, 74073, Note_on_c, 0, 60, 0
2, 74074, Note_on_c, 0, 55, 0
2, 74075, Note_on_c, 0, 57, 0
2, 74125, Note_on_c, 0, 60, 46
2, 74125, Note_on_c, 0, 81, 65
2, 74127, Note_on_c, 0, 69, 58
2, 74129, Note_on_c, 0, 76, 38
2, 74137, Note_on_c, 0, 60, 0
2, 74138, Note_on_c, 0, 76, 0
2, 74144, Note_on_c, 0, 69, 0
2, 74146, Note_on_c, 0, 81, 0
2, 74169, Note_on_c, 0, 81, 50
2, 74170, Note_on_c, 0, 64, 48
2, 74170, Note_on_c, 0, 60, 46
2, 74170, Note_on_c, 0, 54, 50
2, 74171, Note_on_c, 0, 69, 45
2, 74173, Control_c, 0, 64, 127
2, 74173, Note_on_c, 0, 74, 52
2, 74175, Note_on_c, 0, 78, 30
2, 74263, Note_on_c, 0, 64, 0
2, 74264, Note_on_c, 0, 60, 0
2, 74276, Note_on_c, 0, 69, 0
2, 74276, Note_on_c, 0, 74, 0
2, 74282, Note_on_c, 0, 78, 0
2, 74283, Note_on_c, 0, 54, 0
2, 74299, Note_on_c, 0, 81, 0
2, 74359, Note_on_c, 0, 57, 46
2, 74367, Note_on_c, 0, 57, 0
2, 74373, Control_c, 0, 64, 0
2, 74396, Note_on_c, 0, 51, 53
2, 74399, Note_on_c, 0, 83, 57
2, 74399, Note_on_c, 0, 71, 68
2, 74399, Note_on_c, 0, 57, 44
2, 74400, Note_on_c, 0, 79, 50
2, 74400, Note_on_c, 0, 62, 36
2, 74411, Note_on_c, 0, 62, 0
2, 74411, Note_on_c, 0, 71, 0
2, 74413, Note_on_c, 0, 79, 0
2, 74414, Note_on_c, 0, 57, 0
2, 74414, Note_on_c, 0, 83, 0
2, 74419, Note_on_c, 0, 51, 0
2, 74437, Note_on_c, 0, 51, 38
2, 74439, Note_on_c, 0, 83, 57
2, 74440, Note_on_c, 0, 71, 62
2, 74442, Note_on_c, 0, 79, 46
2, 74443, Note_on_c, 0, 62, 22
2, 74445, Note_on_c, 0, 57, 36
2, 74450, Note_on_c, 0, 79, 0
2, 74452, Note_on_c, 0, 62, 0
2, 74453, Note_on_c, 0, 71, 0
2, 74454, Note_on_c, 0, 83, 0
2, 74454, Note_on_c, 0, 57, 0
2, 74456, Note_on_c, 0, 51, 0
2, 74486, Note_on_c, 0, 81, 26
2, 74490, Note_on_c, 0, 57, 22
2, 74495, Note_on_c, 0, 81, 0
2, 74497, Note_on_c, 0, 57, 0
2, 74518, Note_on_c, 0, 51, 48
2, 74518, Note_on_c, 0, 71, 75
2, 74518, Note_on_c, 0, 83, 73
2, 74520, Note_on_c, 0, 57, 51
2, 74520, Note_on_c, 0, 62, 48
2, 74536, Note_on_c, 0, 62, 0
2, 74538, Note_on_c, 0, 57, 0
2, 74541, Note_on_c, 0, 51, 0
2, 74552, Note_on_c, 0, 71, 0
2, 74565, Note_on_c, 0, 83, 0
2, 74640, Note_on_c, 0, 76, 69
2, 74640, Note_on_c, 0, 62, 58
2, 74640, Note_on_c, 0, 80, 53
2, 74641, Note_on_c, 0, 56, 62
2, 74641, Note_on_c, 0, 83, 61
2, 74641, Note_on_c, 0, 67, 54
2, 74642, Note_on_c, 0, 88, 69
2, 74644, Note_on_c, 0, 65, 55
2, 74646, Note_on_c, 0, 86, 52
2, 74650, Note_on_c, 0, 67, 0
2, 74651, Note_on_c, 0, 65, 0
2, 74653, Note_on_c, 0, 86, 0
2, 74655, Note_on_c, 0, 62, 0
2, 74661, Note_on_c, 0, 56, 0
2, 74722, Note_on_c, 0, 40, 88
2, 74722, Note_on_c, 0, 52, 94
2, 74749, Control_c, 0, 64, 127
2, 74808, Note_on_c, 0, 40, 0
2, 74824, Note_on_c, 0, 52, 0
2, 74855, Note_on_c, 0, 88, 0
2, 74860, Note_on_c, 0, 76, 0
2, 74865, Note_on_c, 0, 80, 0
2, 74866, Note_on_c, 0, 83, 0
2, 74888, Control_c, 0, 64, 0
2, 74962, Note_on_c, 0, 55, 78
2, 74963, Note_on_c, 0, 65, 78
2, 74964, Note_on_c, 0, 97, 74
2, 74964, Note_on_c, 0, 85, 77
2, 74968, Note_on_c, 0, 87, 49
2, 74969, Note_on_c, 0, 98, 55
2, 74972, Note_on_c, 0, 60, 34
2, 74973, Note_on_c, 0, 85, 0
2, 74974, Note_on_c, 0, 87, 0
2, 74975, Note_on_c, 0, 98, 0
2, 74976, Note_on_c, 0, 65, 0
2, 74979, Note_on_c, 0, 60, 0
2, 74980, Note_on_c, 0, 55, 0
2, 74981, Note_on_c, 0, 97, 0
2, 75039, Note_on_c, 0, 93, 71
2, 75040, Note_on_c, 0, 81, 62
2, 75040, Note_on_c, 0, 88, 65
2, 75042, Note_on_c, 0, 55, 74
2, 75042, Note_on_c, 0, 61, 61
2, 75042, Note_on_c, 0, 66, 68
2, 75068, Note_on_c, 0, 88, 0
2, 75071, Note_on_c, 0, 81, 0
2, 75073, Note_on_c, 0, 55, 0
2, 75074, Note_on_c, 0, 66, 0
2, 75075, Note_on_c, 0, 93, 0
2, 75077, Note_on_c, 0, 61, 0
2, 75122, Note_on_c, 0, 66, 69
2, 75122, Note_on_c, 0, 55, 71
2, 75123, Note_on_c, 0, 61, 52
2, 75124, Note_on_c, 0, 81, 75
2, 75125, Note_on_c, 0, 93, 76
2, 75126, Note_on_c, 0, 88, 66
2, 75157, Note_on_c, 0, 88, 0
2, 75158, Note_on_c, 0, 55, 0
2, 75159, Note_on_c, 0, 81, 0
2, 75160, Note_on_c, 0, 93, 0
2, 75161, Note_on_c, 0, 66, 0
2, 75166, Note_on_c, 0, 61, 0
2, 75205, Note_on_c, 0, 66, 62
2, 75206, Note_on_c, 0, 55, 69
2, 75206, Note_on_c, 0, 61, 55
2, 75206, Note_on_c, 0, 81, 53
2, 75206, Note_on_c, 0, 93, 64
2, 75207, Note_on_c, 0, 88, 62
2, 75263, Note_on_c, 0, 93, 0
2, 75277, Note_on_c, 0, 88, 0
2, 75282, Note_on_c, 0, 55, 0
2, 75291, Note_on_c, 0, 81, 0
2, 75300, Note_on_c, 0, 61, 0
2, 75302, Note_on_c, 0, 66, 0
2, 75324, Note_on_c, 0, 61, 20
2, 75338, Note_on_c, 0, 61, 0
2, 75358, Note_on_c, 0, 58, 67
2, 75359, Note_on_c, 0, 67, 68
2, 75360, Note_on_c, 0, 80, 74
2, 75360, Note_on_c, 0, 62, 68
2, 75361, Note_on_c, 0, 63, 52
2, 75361, Note_on_c, 0, 74, 64
2, 75361, Note_on_c, 0, 86, 81
2, 75414, Note_on_c, 0, 80, 0
2, 75423, Note_on_c, 0, 74, 0
2, 75430, Note_on_c, 0, 63, 0
2, 75430, Note_on_c, 0, 62, 0
2, 75433, Note_on_c, 0, 67, 0
2, 75433, Note_on_c, 0, 86, 0
2, 75439, Note_on_c, 0, 58, 0
2, 75558, Note_on_c, 0, 63, 58
2, 75559, Note_on_c, 0, 74, 75
2, 75559, Note_on_c, 0, 69, 76
2, 75559, Note_on_c, 0, 78, 55
2, 75560, Note_on_c, 0, 81, 69
2, 75560, Note_on_c, 0, 57, 45
2, 75592, Note_on_c, 0, 74, 0
2, 75596, Note_on_c, 0, 57, 0
2, 75598, Note_on_c, 0, 78, 0
2, 75600, Note_on_c, 0, 69, 0
2, 75603, Note_on_c, 0, 63, 0
2, 75604, Note_on_c, 0, 81, 0
2, 75620, Note_on_c, 0, 63, 37
2, 75621, Note_on_c, 0, 57, 55
2, 75623, Note_on_c, 0, 81, 50
2, 75624, Note_on_c, 0, 69, 62
2, 75624, Note_on_c, 0, 74, 58
2, 75624, Note_on_c, 0, 78, 40
2, 75664, Note_on_c, 0, 69, 0
2, 75672, Note_on_c, 0, 74, 0
2, 75672, Note_on_c, 0, 81, 0
2, 75679, Note_on_c, 0, 57, 0
2, 75680, Note_on_c, 0, 63, 0
2, 75681, Note_on_c, 0, 78, 0
2, 75718, Note_on_c, 0, 82, 56
2, 75720, Note_on_c, 0, 70, 55
2, 75720, Note_on_c, 0, 78, 37
2, 75720, Note_on_c, 0, 63, 64
2, 75721, Note_on_c, 0, 57, 66
2, 75721, Note_on_c, 0, 74, 55
2, 75724, Note_on_c, 0, 67, 53
2, 75731, Note_on_c, 0, 67, 0
2, 75745, Note_on_c, 0, 74, 0
2, 75746, Note_on_c, 0, 57, 0
2, 75751, Note_on_c, 0, 63, 0
2, 75759, Note_on_c, 0, 78, 0
2, 75760, Note_on_c, 0, 70, 0
2, 75765, Note_on_c, 0, 82, 0
2, 75840, Note_on_c, 0, 66, 65
2, 75842, Note_on_c, 0, 57, 61
2, 75842, Note_on_c, 0, 78, 70
2, 75843, Note_on_c, 0, 83, 78
2, 75843, Note_on_c, 0, 71, 82
2, 75844, Note_on_c, 0, 62, 55
2, 75868, Control_c, 0, 64, 127
2, 75889, Note_on_c, 0, 83, 0
2, 75903, Note_on_c, 0, 78, 0
2, 75907, Note_on_c, 0, 71, 0
2, 75915, Note_on_c, 0, 66, 0
2, 75916, Note_on_c, 0, 57, 0
2, 75931, Note_on_c, 0, 62, 0
2, 75948, Note_on_c, 0, 66, 39
2, 75956, Note_on_c, 0, 57, 25
2, 75959, Note_on_c, 0, 66, 0
2, 75959, Note_on_c, 0, 79, 50
2, 75962, Note_on_c, 0, 67, 50
2, 75967, Note_on_c, 0, 57, 0
2, 75968, Note_on_c, 0, 77, 24
2, 75995, Note_on_c, 0, 67, 0
2, 76004, Note_on_c, 0, 79, 0
2, 76011, Note_on_c, 0, 77, 0
2, 76036, Control_c, 0, 64, 0
2, 76042, Note_on_c, 0, 59, 51
2, 76043, Note_on_c, 0, 52, 47
2, 76043, Note_on_c, 0, 79, 51
2, 76044, Note_on_c, 0, 62, 60
2, 76045, Note_on_c, 0, 74, 58
2, 76045, Note_on_c, 0, 67, 62
2, 76046, Note_on_c, 0, 55, 48
2, 76050, Note_on_c, 0, 77, 28
2, 76074, Note_on_c, 0, 67, 0
2, 76077, Note_on_c, 0, 62, 0
2, 76079, Note_on_c, 0, 79, 0
2, 76080, Note_on_c, 0, 74, 0
2, 76081, Note_on_c, 0, 55, 0
2, 76083, Note_on_c, 0, 77, 0
2, 76083, Note_on_c, 0, 59, 0
2, 76085, Control_c, 0, 64, 127
2, 76100, Note_on_c, 0, 79, 44
2, 76100, Note_on_c, 0, 62, 45
2, 76101, Note_on_c, 0, 74, 44
2, 76102, Note_on_c, 0, 59, 24
2, 76103, Note_on_c, 0, 67, 55
2, 76104, Note_on_c, 0, 55, 35
2, 76145, Note_on_c, 0, 67, 0
2, 76163, Note_on_c, 0, 62, 0
2, 76166, Note_on_c, 0, 74, 0
2, 76166, Note_on_c, 0, 55, 0
2, 76173, Note_on_c, 0, 79, 0
2, 76176, Note_on_c, 0, 52, 0
2, 76179, Note_on_c, 0, 59, 0
2, 76273, Note_on_c, 0, 55, 68
2, 76277, Note_on_c, 0, 76, 89
2, 76277, Note_on_c, 0, 83, 83
2, 76278, Note_on_c, 0, 71, 85
2, 76279, Note_on_c, 0, 79, 68
2, 76296, Note_on_c, 0, 79, 0
2, 76301, Note_on_c, 0, 76, 0
2, 76304, Control_c, 0, 64, 0
2, 76306, Note_on_c, 0, 83, 0
2, 76311, Note_on_c, 0, 71, 0
2, 76320, Note_on_c, 0, 55, 0
2, 76330, Note_on_c, 0, 81, 66
2, 76332, Note_on_c, 0, 49, 43
2, 76333, Note_on_c, 0, 57, 47
2, 76333, Note_on_c, 0, 69, 55
2, 76334, Note_on_c, 0, 73, 28
2, 76341, Note_on_c, 0, 77, 29
2, 76343, Note_on_c, 0, 76, 25
2, 76356, Control_c, 0, 64, 127
2, 76376, Note_on_c, 0, 77, 0
2, 76425, Note_on_c, 0, 81, 0
2, 76434, Note_on_c, 0, 76, 0
2, 76441, Note_on_c, 0, 69, 0
2, 76441, Note_on_c, 0, 73, 0
2, 76507, Note_on_c, 0, 57, 0
2, 76537, Note_on_c, 0, 49, 0
2, 76543, Control_c, 0, 64, 0
2, 76558, Note_on_c, 0, 67, 70
2, 76558, Note_on_c, 0, 63, 62
2, 76559, Note_on_c, 0, 58, 68
2, 76564, Note_on_c, 0, 48, 53
2, 76564, Note_on_c, 0, 55, 41
2, 76639, Note_on_c, 0, 55, 0
2, 76661, Note_on_c, 0, 58, 0
2, 76664, Note_on_c, 0, 63, 0
2, 76666, Note_on_c, 0, 67, 0
2, 76681, Note_on_c, 0, 63, 33
2, 76681, Note_on_c, 0, 54, 48
2, 76682, Note_on_c, 0, 60, 46
2, 76684, Note_on_c, 0, 57, 30
2, 76695, Note_on_c, 0, 48, 0
2, 76733, Note_on_c, 0, 54, 0
2, 76763, Note_on_c, 0, 54, 28
2, 76777, Note_on_c, 0, 60, 0
2, 76786, Note_on_c, 0, 57, 0
2, 76787, Note_on_c, 0, 54, 0
2, 76790, Note_on_c, 0, 63, 0
2, 76801, Control_c, 0, 64, 127
2, 76802, Note_on_c, 0, 57, 41
2, 76802, Note_on_c, 0, 47, 39
2, 76804, Note_on_c, 0, 54, 44
2, 76804, Note_on_c, 0, 62, 51
2, 76823, Note_on_c, 0, 57, 0
2, 76829, Note_on_c, 0, 47, 0
2, 76832, Note_on_c, 0, 54, 0
2, 76838, Note_on_c, 0, 62, 0
2, 76909, Control_c, 0, 64, 0
2, 76921, Note_on_c, 0, 57, 67
2, 76922, Note_on_c, 0, 62, 66
2, 76922, Note_on_c, 0, 83, 72
2, 76922, Note_on_c, 0, 65, 61
2, 76923, Note_on_c, 0, 78, 59
2, 76923, Note_on_c, 0, 71, 76
2, 76930, Note_on_c, 0, 65, 0
2, 76938, Note_on_c, 0, 62, 0
2, 76946, Note_on_c, 0, 57, 0
2, 76949, Note_on_c, 0, 78, 0
2, 76949, Note_on_c, 0, 79, 38
2, 76954, Note_on_c, 0, 71, 0
2, 76958, Note_on_c, 0, 83, 0
2, 76965, Note_on_c, 0, 79, 0
2, 77038, Note_on_c, 0, 79, 56
2, 77039, Note_on_c, 0, 73, 36
2, 77040, Note_on_c, 0, 67, 51
2, 77041, Note_on_c, 0, 52, 38
2, 77043, Note_on_c, 0, 62, 45
2, 77043, Note_on_c, 0, 59, 41
2, 77049, Note_on_c, 0, 55, 34
2, 77052, Control_c, 0, 64, 127
2, 77096, Note_on_c, 0, 73, 0
2, 77107, Note_on_c, 0, 67, 0
2, 77120, Note_on_c, 0, 52, 0
2, 77121, Note_on_c, 0, 55, 0
2, 77124, Note_on_c, 0, 62, 0
2, 77126, Note_on_c, 0, 59, 0
2, 77126, Note_on_c, 0, 79, 0
2, 77268, Control_c, 0, 64, 0
2, 77278, Note_on_c, 0, 55, 30
2, 77283, Note_on_c, 0, 57, 32
2, 77283, Control_c, 0, 64, 127
2, 77284, Note_on_c, 0, 62, 28
2, 77284, Note_on_c, 0, 60, 26
2, 77317, Note_on_c, 0, 60, 0
2, 77326, Note_on_c, 0, 62, 0
2, 77328, Note_on_c, 0, 55, 0
2, 77331, Note_on_c, 0, 57, 0
2, 77362, Note_on_c, 0, 69, 79
2, 77362, Note_on_c, 0, 72, 67
2, 77363, Note_on_c, 0, 62, 80
2, 77364, Note_on_c, 0, 55, 70
2, 77365, Control_c, 0, 64, 0
2, 77366, Note_on_c, 0, 60, 68
2, 77367, Note_on_c, 0, 57, 56
2, 77381, Note_on_c, 0, 60, 0
2, 77384, Control_c, 0, 64, 127
2, 77390, Note_on_c, 0, 57, 0
2, 77395, Note_on_c, 0, 55, 0
2, 77407, Note_on_c, 0, 69, 0
2, 77412, Note_on_c, 0, 72, 0
2, 77421, Note_on_c, 0, 62, 0
2, 77475, Control_c, 0, 64, 0
2, 77476, Note_on_c, 0, 50, 76
2, 77476, Note_on_c, 0, 69, 71
2, 77477, Note_on_c, 0, 49, 51
2, 77479, Note_on_c, 0, 66, 57
2, 77479, Note_on_c, 0, 63, 51
2, 77481, Note_on_c, 0, 60, 46
2, 77487, Note_on_c, 0, 49, 0
2, 77513, Control_c, 0, 64, 127
2, 77598, Note_on_c, 0, 60, 0
2, 77644, Note_on_c, 0, 63, 0
2, 77645, Note_on_c, 0, 66, 0
2, 77652, Note_on_c, 0, 69, 0
2, 77728, Note_on_c, 0, 43, 55
2, 77755, Note_on_c, 0, 43, 0
2, 77755, Note_on_c, 0, 50, 0
2, 77759, Control_c, 0, 64, 0
2, 77766, Note_on_c, 0, 70, 88
2, 77817, Note_on_c, 0, 70, 0
2, 77880, Note_on_c, 0, 70, 78
2, 77888, Note_on_c, 0, 79, 37
2, 77931, Note_on_c, 0, 79, 0
2, 77941, Note_on_c, 0, 70, 0
2, 78002, Note_on_c, 0, 71, 76
2, 78003, Note_on_c, 0, 79, 65
2, 78057, Note_on_c, 0, 79, 0
2, 78063, Note_on_c, 0, 71, 0
2, 78118, Note_on_c, 0, 71, 71
2, 78119, Note_on_c, 0, 79, 60
2, 78179, Note_on_c, 0, 71, 0
2, 78181, Note_on_c, 0, 79, 0
2, 78202, Note_on_c, 0, 67, 52
2, 78218, Note_on_c, 0, 67, 0
2, 78243, Note_on_c, 0, 70, 83
2, 78245, Note_on_c, 0, 73, 50
2, 78292, Note_on_c, 0, 70, 0
2, 78293, Note_on_c, 0, 73, 0
2, 78316, Note_on_c, 0, 74, 80
2, 78318, Note_on_c, 0, 71, 83
2, 78351, Note_on_c, 0, 71, 0
2, 78354, Note_on_c, 0, 74, 0
2, 78368, Note_on_c, 0, 67, 49
2, 78414, Note_on_c, 0, 67, 0
2, 78438, Note_on_c, 0, 50, 55
2, 78452, Note_on_c, 0, 50, 0
2, 78495, Note_on_c, 0, 67, 64
2, 78496, Note_on_c, 0, 61, 68
2, 78503, Note_on_c, 0, 62, 50
2, 78522, Note_on_c, 0, 62, 0
2, 78523, Note_on_c, 0, 61, 0
2, 78532, Note_on_c, 0, 65, 49
2, 78546, Note_on_c, 0, 62, 54
2, 78554, Note_on_c, 0, 67, 0
2, 78560, Note_on_c, 0, 65, 0
2, 78569, Note_on_c, 0, 62, 0
2, 78580, Note_on_c, 0, 55, 30
2, 78580, Note_on_c, 0, 50, 52
2, 78591, Note_on_c, 0, 55, 0
2, 78592, Note_on_c, 0, 50, 0
2, 78605, Note_on_c, 0, 58, 68
2, 78607, Note_on_c, 0, 62, 50
2, 78665, Note_on_c, 0, 62, 0
2, 78665, Note_on_c, 0, 58, 0
2, 78685, Note_on_c, 0, 55, 47
2, 78698, Note_on_c, 0, 55, 0
2, 78811, Note_on_c, 0, 82, 57
2, 78841, Note_on_c, 0, 82, 0
2, 78856, Note_on_c, 0, 83, 33
2, 78874, Note_on_c, 0, 83, 0
2, 78894, Note_on_c, 0, 86, 55
2, 78900, Note_on_c, 0, 86, 0
2, 78935, Note_on_c, 0, 88, 77
2, 78948, Note_on_c, 0, 88, 0
2, 78973, Note_on_c, 0, 82, 77
2, 78973, Note_on_c, 0, 94, 83
2, 78975, Note_on_c, 0, 62, 49
2, 78976, Note_on_c, 0, 57, 54
2, 78977, Note_on_c, 0, 58, 45
2, 78985, Note_on_c, 0, 82, 0
2, 78986, Note_on_c, 0, 62, 0
2, 78987, Note_on_c, 0, 57, 0
2, 78991, Note_on_c, 0, 94, 0
2, 78992, Note_on_c, 0, 58, 0
2, 79046, Note_on_c, 0, 94, 81
2, 79047, Note_on_c, 0, 62, 68
2, 79047, Note_on_c, 0, 82, 74
2, 79048, Note_on_c, 0, 58, 48
2, 79049, Note_on_c, 0, 57, 60
2, 79054, Note_on_c, 0, 57, 0
2, 79055, Note_on_c, 0, 62, 0
2, 79058, Note_on_c, 0, 94, 0
2, 79058, Note_on_c, 0, 82, 0
2, 79060, Note_on_c, 0, 58, 0
2, 79091, Note_on_c, 0, 91, 74
2, 79093, Note_on_c, 0, 79, 60
2, 79096, Note_on_c, 0, 58, 59
2, 79096, Note_on_c, 0, 62, 66
2, 79097, Note_on_c, 0, 57, 58
2, 79139, Note_on_c, 0, 57, 0
2, 79147, Note_on_c, 0, 58, 0
2, 79154, Note_on_c, 0, 62, 0
2, 79180, Note_on_c, 0, 79, 0
2, 79185, Note_on_c, 0, 91, 0
2, 79206, Note_on_c, 0, 57, 60
2, 79206, Note_on_c, 0, 66, 46
2, 79207, Note_on_c, 0, 62, 52
2, 79212, Note_on_c, 0, 66, 0
2, 79212, Note_on_c, 0, 57, 0
2, 79214, Note_on_c, 0, 62, 0
2, 79274, Note_on_c, 0, 89, 73
2, 79275, Note_on_c, 0, 57, 66
2, 79276, Note_on_c, 0, 66, 56
2, 79280, Note_on_c, 0, 62, 48
2, 79297, Note_on_c, 0, 89, 0
2, 79301, Note_on_c, 0, 66, 0
2, 79305, Note_on_c, 0, 57, 0
2, 79305, Note_on_c, 0, 62, 0
2, 79319, Note_on_c, 0, 86, 77
2, 79320, Note_on_c, 0, 57, 65
2, 79320, Note_on_c, 0, 66, 60
2, 79326, Note_on_c, 0, 62, 49
2, 79365, Note_on_c, 0, 57, 0
2, 79379, Note_on_c, 0, 66, 0
2, 79380, Note_on_c, 0, 62, 0
2, 79386, Note_on_c, 0, 86, 0
2, 79395, Note_on_c, 0, 65, 72
2, 79396, Note_on_c, 0, 56, 64
2, 79396, Note_on_c, 0, 62, 59
2, 79397, Note_on_c, 0, 88, 88
2, 79419, Note_on_c, 0, 62, 0
2, 79419, Note_on_c, 0, 65, 0
2, 79431, Note_on_c, 0, 88, 0
2, 79434, Note_on_c, 0, 56, 0
2, 79445, Note_on_c, 0, 55, 54
2, 79448, Note_on_c, 0, 84, 60
2, 79448, Note_on_c, 0, 64, 40
2, 79452, Note_on_c, 0, 60, 46
2, 79464, Note_on_c, 0, 60, 0
2, 79466, Note_on_c, 0, 84, 0
2, 79477, Note_on_c, 0, 64, 0
2, 79483, Note_on_c, 0, 55, 0
2, 79517, Note_on_c, 0, 55, 67
2, 79518, Note_on_c, 0, 84, 73
2, 79520, Note_on_c, 0, 64, 47
2, 79521, Note_on_c, 0, 60, 49
2, 79528, Note_on_c, 0, 60, 0
2, 79528, Note_on_c, 0, 64, 0
2, 79533, Note_on_c, 0, 55, 0
2, 79540, Note_on_c, 0, 84, 0
2, 79564, Note_on_c, 0, 79, 46
2, 79565, Note_on_c, 0, 64, 45
2, 79566, Note_on_c, 0, 60, 36
2, 79567, Note_on_c, 0, 54, 35
2, 79584, Note_on_c, 0, 60, 0
2, 79589, Note_on_c, 0, 64, 0
2, 79598, Note_on_c, 0, 54, 0
2, 79601, Note_on_c, 0, 79, 0
2, 79640, Note_on_c, 0, 54, 59
2, 79640, Note_on_c, 0, 78, 59
2, 79641, Note_on_c, 0, 60, 49
2, 79642, Note_on_c, 0, 64, 41
2, 79648, Note_on_c, 0, 60, 0
2, 79649, Note_on_c, 0, 64, 0
2, 79655, Note_on_c, 0, 78, 0
2, 79659, Note_on_c, 0, 54, 0
2, 79679, Note_on_c, 0, 83, 85
2, 79681, Note_on_c, 0, 62, 71
2, 79681, Note_on_c, 0, 54, 62
2, 79682, Note_on_c, 0, 59, 58
2, 79697, Note_on_c, 0, 83, 0
2, 79709, Note_on_c, 0, 54, 0
2, 79710, Note_on_c, 0, 62, 0
2, 79713, Note_on_c, 0, 59, 0
2, 79720, Note_on_c, 0, 78, 59
2, 79742, Note_on_c, 0, 78, 0
2, 79762, Note_on_c, 0, 78, 61
2, 79762, Note_on_c, 0, 76, 75
2, 79789, Note_on_c, 0, 76, 0
2, 79793, Note_on_c, 0, 78, 0
2, 79802, Note_on_c, 0, 71, 53
2, 79831, Note_on_c, 0, 71, 0
2, 79843, Note_on_c, 0, 70, 72
2, 79845, Note_on_c, 0, 76, 53
2, 79880, Note_on_c, 0, 70, 0
2, 79888, Note_on_c, 0, 69, 43
2, 79916, Note_on_c, 0, 76, 0
2, 79917, Note_on_c, 0, 69, 0
2, 79927, Note_on_c, 0, 67, 47
2, 79956, Note_on_c, 0, 67, 0
2, 79961, Note_on_c, 0, 66, 52
2, 79991, Note_on_c, 0, 66, 0
2, 79995, Note_on_c, 0, 69, 76
2, 80021, Note_on_c, 0, 69, 0
2, 80026, Note_on_c, 0, 66, 37
2, 80041, Note_on_c, 0, 66, 0
2, 80053, Note_on_c, 0, 67, 66
2, 80076, Note_on_c, 0, 67, 0
2, 80088, Note_on_c, 0, 62, 44
2, 80127, Note_on_c, 0, 62, 0
2, 80252, Note_on_c, 0, 64, 80
2, 80278, Note_on_c, 0, 64, 0
2, 80280, Note_on_c, 0, 65, 63
2, 80302, Note_on_c, 0, 65, 0
2, 80311, Note_on_c, 0, 69, 38
2, 80323, Note_on_c, 0, 69, 0
2, 80335, Note_on_c, 0, 72, 28
2, 80341, Note_on_c, 0, 72, 0
2, 80361, Note_on_c, 0, 76, 66
2, 80376, Note_on_c, 0, 76, 0
2, 80391, Note_on_c, 0, 79, 83
2, 80409, Note_on_c, 0, 79, 0
2, 80417, Note_on_c, 0, 78, 69
2, 80422, Note_on_c, 0, 59, 36
2, 80423, Note_on_c, 0, 64, 24
2, 80424, Note_on_c, 0, 53, 24
2, 80433, Note_on_c, 0, 59, 0
2, 80435, Note_on_c, 0, 53, 0
2, 80435, Note_on_c, 0, 64, 0
2, 80442, Note_on_c, 0, 78, 0
2, 80485, Note_on_c, 0, 77, 78
2, 80536, Note_on_c, 0, 59, 32
2, 80542, Note_on_c, 0, 59, 0
2, 80588, Note_on_c, 0, 77, 0
2, 80607, Note_on_c, 0, 76, 89
2, 80630, Note_on_c, 0, 76, 0
2, 80649, Note_on_c, 0, 74, 87
2, 80678, Note_on_c, 0, 74, 0
2, 80683, Note_on_c, 0, 76, 62
2, 80700, Note_on_c, 0, 74, 34
2, 80702, Note_on_c, 0, 76, 0
2, 80723, Note_on_c, 0, 74, 0
2, 80724, Note_on_c, 0, 71, 48
2, 80751, Note_on_c, 0, 71, 0
2, 80763, Note_on_c, 0, 72, 68
2, 80840, Note_on_c, 0, 72, 0
2, 80841, Note_on_c, 0, 74, 67
2, 80853, Note_on_c, 0, 76, 19
2, 80863, Note_on_c, 0, 74, 0
2, 80866, Note_on_c, 0, 76, 0
2, 80880, Note_on_c, 0, 78, 53
2, 80898, Note_on_c, 0, 78, 0
2, 80917, Note_on_c, 0, 81, 57
2, 80930, Note_on_c, 0, 81, 0
2, 80943, Note_on_c, 0, 86, 80
2, 80960, Note_on_c, 0, 86, 0
2, 80977, Note_on_c, 0, 90, 83
2, 80982, Note_on_c, 0, 57, 71
2, 80985, Note_on_c, 0, 48, 44
2, 80992, Note_on_c, 0, 48, 0
2, 80994, Note_on_c, 0, 57, 0
2, 81000, Note_on_c, 0, 90, 0
2, 81008, Note_on_c, 0, 93, 87
2, 81036, Note_on_c, 0, 93, 0
2, 81058, Note_on_c, 0, 93, 89
2, 81087, Note_on_c, 0, 93, 0
2, 81101, Note_on_c, 0, 93, 71
2, 81107, Note_on_c, 0, 91, 30
2, 81113, Note_on_c, 0, 91, 0
2, 81127, Note_on_c, 0, 93, 0
2, 81142, Note_on_c, 0, 93, 74
2, 81166, Note_on_c, 0, 93, 0
2, 81179, Note_on_c, 0, 90, 68
2, 81197, Note_on_c, 0, 90, 0
2, 81215, Note_on_c, 0, 86, 60
2, 81233, Note_on_c, 0, 86, 0
2, 81250, Note_on_c, 0, 81, 50
2, 81271, Note_on_c, 0, 81, 0
2, 81321, Note_on_c, 0, 66, 42
2, 81325, Note_on_c, 0, 57, 30
2, 81332, Note_on_c, 0, 57, 0
2, 81343, Note_on_c, 0, 66, 0
2, 81366, Note_on_c, 0, 67, 55
2, 81370, Note_on_c, 0, 62, 34
2, 81375, Note_on_c, 0, 67, 0
2, 81379, Note_on_c, 0, 62, 0
2, 81439, Note_on_c, 0, 88, 87
2, 81440, Note_on_c, 0, 76, 82
2, 81441, Note_on_c, 0, 67, 77
2, 81442, Note_on_c, 0, 56, 55
2, 81443, Note_on_c, 0, 62, 60
2, 81446, Note_on_c, 0, 67, 0
2, 81448, Note_on_c, 0, 62, 0
2, 81450, Note_on_c, 0, 76, 0
2, 81452, Note_on_c, 0, 56, 0
2, 81455, Note_on_c, 0, 88, 0
2, 81482, Note_on_c, 0, 86, 85
2, 81485, Note_on_c, 0, 74, 65
2, 81491, Note_on_c, 0, 74, 0
2, 81496, Note_on_c, 0, 86, 0
2, 81560, Note_on_c, 0, 84, 78
2, 81561, Note_on_c, 0, 64, 60
2, 81561, Note_on_c, 0, 57, 69
2, 81562, Note_on_c, 0, 72, 67
2, 81569, Note_on_c, 0, 64, 0
2, 81575, Note_on_c, 0, 72, 0
2, 81577, Note_on_c, 0, 84, 0
2, 81580, Note_on_c, 0, 57, 0
2, 81604, Note_on_c, 0, 82, 75
2, 81605, Note_on_c, 0, 70, 81
2, 81608, Note_on_c, 0, 83, 64
2, 81614, Note_on_c, 0, 83, 0
2, 81614, Note_on_c, 0, 70, 0
2, 81624, Note_on_c, 0, 71, 19
2, 81628, Note_on_c, 0, 82, 0
2, 81654, Note_on_c, 0, 83, 54
2, 81659, Note_on_c, 0, 71, 0
2, 81671, Note_on_c, 0, 83, 0
2, 81688, Note_on_c, 0, 79, 64
2, 81688, Note_on_c, 0, 67, 71
2, 81695, Note_on_c, 0, 67, 0
2, 81702, Note_on_c, 0, 79, 0
2, 81801, Note_on_c, 0, 82, 88
2, 81801, Note_on_c, 0, 70, 93
2, 81802, Note_on_c, 0, 64, 59
2, 81804, Note_on_c, 0, 55, 38
2, 81805, Note_on_c, 0, 57, 45
2, 81808, Note_on_c, 0, 64, 0
2, 81810, Note_on_c, 0, 70, 0
2, 81811, Note_on_c, 0, 57, 0
2, 81811, Note_on_c, 0, 55, 0
2, 81816, Note_on_c, 0, 82, 0
2, 81849, Note_on_c, 0, 70, 95
2, 81849, Note_on_c, 0, 54, 70
2, 81849, Note_on_c, 0, 64, 72
2, 81849, Note_on_c, 0, 82, 86
2, 81852, Note_on_c, 0, 60, 47
2, 81858, Note_on_c, 0, 60, 0
2, 81858, Note_on_c, 0, 64, 0
2, 81860, Note_on_c, 0, 83, 61
2, 81864, Note_on_c, 0, 71, 75
2, 81865, Note_on_c, 0, 70, 0
2, 81865, Note_on_c, 0, 54, 0
2, 81869, Note_on_c, 0, 82, 0
2, 81887, Note_on_c, 0, 83, 0
2, 81895, Note_on_c, 0, 71, 0
2, 81921, Note_on_c, 0, 79, 55
2, 81926, Note_on_c, 0, 67, 29
2, 81927, Note_on_c, 0, 78, 27
2, 81937, Note_on_c, 0, 78, 0
2, 81939, Note_on_c, 0, 67, 0
2, 81939, Note_on_c, 0, 79, 0
2, 81963, Note_on_c, 0, 79, 68
2, 81966, Note_on_c, 0, 67, 47
2, 81979, Note_on_c, 0, 67, 0
2, 81982, Note_on_c, 0, 79, 0
2, 82041, Note_on_c, 0, 79, 80
2, 82042, Note_on_c, 0, 57, 56
2, 82043, Note_on_c, 0, 62, 52
2, 82043, Note_on_c, 0, 66, 46
2, 82124, Note_on_c, 0, 69, 53
2, 82136, Note_on_c, 0, 69, 0
2, 82137, Note_on_c, 0, 79, 0
2, 82141, Note_on_c, 0, 57, 0
2, 82153, Note_on_c, 0, 66, 0
2, 82153, Note_on_c, 0, 74, 60
2, 82171, Note_on_c, 0, 74, 0
2, 82173, Note_on_c, 0, 62, 0
2, 82182, Note_on_c, 0, 78, 72
2, 82206, Note_on_c, 0, 78, 0
2, 82211, Note_on_c, 0, 77, 69
2, 82212, Note_on_c, 0, 67, 36
2, 82213, Note_on_c, 0, 56, 30
2, 82214, Note_on_c, 0, 62, 39
2, 82244, Note_on_c, 0, 77, 0
2, 82252, Note_on_c, 0, 73, 50
2, 82268, Note_on_c, 0, 67, 0
2, 82271, Note_on_c, 0, 73, 0
2, 82279, Note_on_c, 0, 62, 0
2, 82310, Note_on_c, 0, 56, 0
2, 82325, Note_on_c, 0, 76, 92
2, 82334, Note_on_c, 0, 57, 38
2, 82336, Note_on_c, 0, 55, 15
2, 82363, Note_on_c, 0, 76, 0
2, 82364, Note_on_c, 0, 69, 58
2, 82381, Note_on_c, 0, 69, 0
2, 82417, Note_on_c, 0, 55, 0
2, 82421, Note_on_c, 0, 57, 0
2, 82440, Note_on_c, 0, 74, 96
2, 82445, Note_on_c, 0, 64, 35
2, 82448, Note_on_c, 0, 54, 40
2, 82451, Note_on_c, 0, 60, 24
2, 82457, Note_on_c, 0, 60, 0
2, 82460, Note_on_c, 0, 64, 0
2, 82465, Note_on_c, 0, 54, 0
2, 82475, Note_on_c, 0, 74, 0
2, 82522, Note_on_c, 0, 70, 74
2, 82541, Note_on_c, 0, 70, 0
2, 82599, Note_on_c, 0, 76, 84
2, 82600, Note_on_c, 0, 70, 93
2, 82646, Note_on_c, 0, 76, 0
2, 82649, Note_on_c, 0, 70, 0
2, 82655, Note_on_c, 0, 71, 79
2, 82656, Note_on_c, 0, 76, 80
2, 82685, Note_on_c, 0, 71, 0
2, 82693, Note_on_c, 0, 76, 0
2, 82699, Note_on_c, 0, 67, 47
2, 82759, Note_on_c, 0, 67, 0
2, 82773, Note_on_c, 0, 64, 55
2, 82784, Note_on_c, 0, 64, 0
2, 82811, Note_on_c, 0, 67, 71
2, 82816, Note_on_c, 0, 58, 35
2, 82817, Note_on_c, 0, 48, 31
2, 82823, Note_on_c, 0, 48, 0
2, 82823, Note_on_c, 0, 58, 0
2, 82925, Note_on_c, 0, 67, 0
2, 82930, Note_on_c, 0, 64, 55
2, 83000, Note_on_c, 0, 64, 0
2, 83012, Note_on_c, 0, 62, 37
2, 83025, Note_on_c, 0, 62, 0
2, 83082, Note_on_c, 0, 67, 85
2, 83150, Note_on_c, 0, 67, 0
2, 83160, Note_on_c, 0, 64, 53
2, 83189, Note_on_c, 0, 64, 0
2, 83244, Note_on_c, 0, 56, 57
2, 83244, Note_on_c, 0, 67, 68
2, 83245, Note_on_c, 0, 62, 54
2, 83264, Note_on_c, 0, 62, 0
2, 83264, Note_on_c, 0, 67, 0
2, 83280, Note_on_c, 0, 56, 0
2, 83297, Note_on_c, 0, 55, 51
2, 83299, Note_on_c, 0, 64, 45
2, 83303, Note_on_c, 0, 60, 45
2, 83358, Note_on_c, 0, 60, 0
2, 83358, Note_on_c, 0, 55, 0
2, 83365, Note_on_c, 0, 64, 0
2, 83403, Note_on_c, 0, 54, 37
2, 83403, Note_on_c, 0, 64, 45
2, 83406, Note_on_c, 0, 60, 47
2, 83435, Note_on_c, 0, 60, 0
2, 83443, Note_on_c, 0, 64, 0
2, 83449, Note_on_c, 0, 54, 0
2, 83485, Note_on_c, 0, 81, 51
2, 83502, Note_on_c, 0, 81, 0
2, 83524, Note_on_c, 0, 82, 62
2, 83547, Note_on_c, 0, 82, 0
2, 83557, Note_on_c, 0, 83, 58
2, 83573, Note_on_c, 0, 83, 0
2, 83596, Note_on_c, 0, 88, 88
2, 83597, Note_on_c, 0, 76, 80
2, 83675, Note_on_c, 0, 88, 0
2, 83678, Note_on_c, 0, 76, 0
2, 83686, Note_on_c, 0, 86, 85
2, 83742, Note_on_c, 0, 86, 0
2, 83840, Note_on_c, 0, 62, 42
2, 83842, Note_on_c, 0, 59, 48
2, 83849, Note_on_c, 0, 62, 0
2, 83851, Note_on_c, 0, 59, 0
2, 83886, Note_on_c, 0, 81, 80
2, 83911, Note_on_c, 0, 81, 0
2, 83920, Note_on_c, 0, 82, 72
2, 83940, Note_on_c, 0, 82, 0
2, 83955, Note_on_c, 0, 83, 71
2, 83975, Note_on_c, 0, 83, 0
2, 83988, Note_on_c, 0, 86, 70
2, 83988, Note_on_c, 0, 88, 63
2, 84003, Note_on_c, 0, 86, 0
2, 84008, Note_on_c, 0, 88, 0
2, 84025, Note_on_c, 0, 91, 90
2, 84026, Note_on_c, 0, 88, 84
2, 84050, Note_on_c, 0, 88, 0
2, 84062, Note_on_c, 0, 91, 0
2, 84082, Note_on_c, 0, 90, 80
2, 84083, Note_on_c, 0, 87, 85
2, 84093, Note_on_c, 0, 60, 34
2, 84098, Note_on_c, 0, 53, 32
2, 84099, Note_on_c, 0, 57, 22
2, 84103, Note_on_c, 0, 60, 0
2, 84109, Note_on_c, 0, 57, 0
2, 84112, Note_on_c, 0, 53, 0
2, 84113, Note_on_c, 0, 87, 0
2, 84117, Note_on_c, 0, 90, 0
2, 84125, Note_on_c, 0, 89, 62
2, 84129, Note_on_c, 0, 86, 60
2, 84148, Note_on_c, 0, 86, 0
2, 84155, Note_on_c, 0, 89, 0
2, 84162, Note_on_c, 0, 77, 39
2, 84181, Note_on_c, 0, 77, 0
2, 84199, Note_on_c, 0, 84, 84
2, 84199, Note_on_c, 0, 88, 82
2, 84224, Note_on_c, 0, 88, 0
2, 84224, Note_on_c, 0, 84, 0
2, 84238, Note_on_c, 0, 87, 64
2, 84243, Note_on_c, 0, 75, 47
2, 84267, Note_on_c, 0, 87, 0
2, 84269, Note_on_c, 0, 75, 0
2, 84282, Note_on_c, 0, 74, 31
2, 84294, Note_on_c, 0, 74, 0
2, 84313, Note_on_c, 0, 86, 76
2, 84313, Note_on_c, 0, 83, 62
2, 84314, Note_on_c, 0, 74, 57
2, 84317, Note_on_c, 0, 64, 36
2, 84318, Note_on_c, 0, 53, 34
2, 84319, Note_on_c, 0, 57, 47
2, 84321, Note_on_c, 0, 60, 34
2, 84343, Note_on_c, 0, 60, 0
2, 84345, Note_on_c, 0, 83, 0
2, 84345, Note_on_c, 0, 64, 0
2, 84348, Note_on_c, 0, 74, 0
2, 84349, Note_on_c, 0, 86, 0
2, 84349, Note_on_c, 0, 57, 0
2, 84351, Note_on_c, 0, 53, 0
2, 84394, Note_on_c, 0, 81, 62
2, 84395, Note_on_c, 0, 84, 64
2, 84397, Note_on_c, 0, 72, 45
2, 84398, Note_on_c, 0, 64, 49
2, 84398, Note_on_c, 0, 59, 49
2, 84400, Note_on_c, 0, 53, 40
2, 84434, Note_on_c, 0, 81, 0
2, 84439, Note_on_c, 0, 64, 0
2, 84442, Note_on_c, 0, 84, 0
2, 84444, Note_on_c, 0, 53, 0
2, 84448, Note_on_c, 0, 59, 0
2, 84449, Note_on_c, 0, 72, 0
2, 84478, Note_on_c, 0, 62, 39
2, 84478, Note_on_c, 0, 79, 46
2, 84479, Note_on_c, 0, 71, 33
2, 84480, Note_on_c, 0, 55, 46
2, 84480, Note_on_c, 0, 52, 31
2, 84481, Note_on_c, 0, 59, 24
2, 84482, Note_on_c, 0, 76, 41
2, 84605, Control_c, 0, 64, 127
2, 84620, Note_on_c, 0, 71, 0
2, 84626, Note_on_c, 0, 76, 0
2, 84627, Note_on_c, 0, 52, 0
2, 84631, Note_on_c, 0, 79, 0
2, 84675, Note_on_c, 0, 59, 0
2, 84680, Note_on_c, 0, 52, 51
2, 84681, Note_on_c, 0, 62, 0
2, 84682, Note_on_c, 0, 55, 0
2, 84687, Note_on_c, 0, 52, 0
2, 84714, Control_c, 0, 64, 0
2, 84724, Note_on_c, 0, 93, 96
2, 84724, Note_on_c, 0, 86, 108
2, 84749, Note_on_c, 0, 86, 0
2, 84750, Note_on_c, 0, 93, 0
2, 84760, Note_on_c, 0, 81, 56
2, 84761, Note_on_c, 0, 90, 49
2, 84772, Note_on_c, 0, 81, 0
2, 84779, Note_on_c, 0, 90, 0
2, 84799, Note_on_c, 0, 62, 65
2, 84800, Note_on_c, 0, 52, 65
2, 84800, Note_on_c, 0, 86, 101
2, 84800, Note_on_c, 0, 58, 50
2, 84800, Note_on_c, 0, 93, 90
2, 84882, Note_on_c, 0, 90, 68
2, 84883, Note_on_c, 0, 81, 58
2, 84884, Note_on_c, 0, 93, 0
2, 84889, Note_on_c, 0, 86, 0
2, 84903, Note_on_c, 0, 52, 0
2, 84909, Note_on_c, 0, 58, 0
2, 84909, Control_c, 0, 64, 127
2, 84913, Note_on_c, 0, 81, 0
2, 84914, Note_on_c, 0, 90, 0
2, 84915, Note_on_c, 0, 62, 0
2, 84922, Note_on_c, 0, 86, 68
2, 84947, Note_on_c, 0, 86, 0
2, 84960, Control_c, 0, 64, 0
2, 84961, Note_on_c, 0, 66, 51
2, 84963, Note_on_c, 0, 62, 53
2, 84964, Note_on_c, 0, 57, 52
2, 85154, Note_on_c, 0, 83, 91
2, 85165, Note_on_c, 0, 57, 0
2, 85168, Note_on_c, 0, 83, 0
2, 85175, Note_on_c, 0, 66, 0
2, 85177, Note_on_c, 0, 62, 0
2, 85199, Note_on_c, 0, 83, 84
2, 85203, Note_on_c, 0, 56, 35
2, 85205, Note_on_c, 0, 62, 27
2, 85206, Note_on_c, 0, 65, 32
2, 85236, Note_on_c, 0, 84, 55
2, 85242, Note_on_c, 0, 85, 65
2, 85243, Note_on_c, 0, 83, 0
2, 85253, Note_on_c, 0, 84, 0
2, 85263, Note_on_c, 0, 85, 0
2, 85263, Note_on_c, 0, 86, 81
2, 85278, Note_on_c, 0, 65, 0
2, 85282, Note_on_c, 0, 86, 0
2, 85326, Note_on_c, 0, 80, 69
2, 85332, Note_on_c, 0, 65, 37
2, 85355, Note_on_c, 0, 80, 0
2, 85360, Note_on_c, 0, 81, 32
2, 85362, Note_on_c, 0, 82, 57
2, 85363, Note_on_c, 0, 65, 0
2, 85375, Note_on_c, 0, 81, 0
2, 85379, Note_on_c, 0, 62, 0
2, 85383, Note_on_c, 0, 82, 0
2, 85384, Note_on_c, 0, 83, 67
2, 85403, Note_on_c, 0, 83, 0
2, 85409, Note_on_c, 0, 56, 0
2, 85418, Note_on_c, 0, 76, 68
2, 85456, Note_on_c, 0, 77, 32
2, 85462, Note_on_c, 0, 76, 0
2, 85463, Note_on_c, 0, 78, 37
2, 85475, Note_on_c, 0, 77, 0
2, 85481, Note_on_c, 0, 79, 66
2, 85487, Note_on_c, 0, 78, 0
2, 85498, Note_on_c, 0, 79, 0
2, 85508, Note_on_c, 0, 75, 57
2, 85538, Note_on_c, 0, 75, 0
2, 85552, Note_on_c, 0, 76, 76
2, 85573, Note_on_c, 0, 76, 0
2, 85584, Note_on_c, 0, 72, 47
2, 85601, Note_on_c, 0, 72, 0
2, 85611, Note_on_c, 0, 67, 57
2, 85628, Note_on_c, 0, 67, 0
2, 85644, Note_on_c, 0, 65, 17
2, 85659, Note_on_c, 0, 65, 0
2, 85669, Note_on_c, 0, 62, 36
2, 85678, Note_on_c, 0, 62, 0
2, 85687, Note_on_c, 0, 66, 58
2, 85711, Note_on_c, 0, 66, 0
2, 85720, Note_on_c, 0, 69, 73
2, 85739, Note_on_c, 0, 69, 0
2, 85796, Note_on_c, 0, 63, 64
2, 85824, Note_on_c, 0, 63, 0
2, 85833, Note_on_c, 0, 60, 39
2, 85851, Note_on_c, 0, 60, 0
2, 85898, Note_on_c, 0, 50, 33
2, 85907, Note_on_c, 0, 50, 0
2, 85908, Note_on_c, 0, 58, 64
2, 85937, Note_on_c, 0, 58, 0
2, 85942, Note_on_c, 0, 59, 66
2, 85962, Note_on_c, 0, 59, 0
2, 85971, Note_on_c, 0, 60, 60
2, 85988, Note_on_c, 0, 60, 0
2, 86000, Note_on_c, 0, 61, 59
2, 86016, Note_on_c, 0, 61, 0
2, 86022, Note_on_c, 0, 62, 49
2, 86064, Note_on_c, 0, 53, 47
2, 86120, Note_on_c, 0, 53, 0
2, 86132, Note_on_c, 0, 62, 0
2, 86237, Note_on_c, 0, 76, 89
2, 86238, Note_on_c, 0, 64, 78
2, 86238, Note_on_c, 0, 69, 84
2, 86238, Note_on_c, 0, 72, 68
2, 86239, Note_on_c, 0, 65, 90
2, 86260, Note_on_c, 0, 69, 0
2, 86263, Note_on_c, 0, 72, 0
2, 86265, Note_on_c, 0, 64, 0
2, 86267, Note_on_c, 0, 76, 0
2, 86269, Note_on_c, 0, 65, 0
2, 86288, Note_on_c, 0, 74, 56
2, 86289, Note_on_c, 0, 62, 56
2, 86290, Note_on_c, 0, 65, 64
2, 86290, Note_on_c, 0, 71, 57
2, 86294, Note_on_c, 0, 68, 44
2, 86325, Note_on_c, 0, 68, 0
2, 86328, Note_on_c, 0, 65, 0
2, 86329, Note_on_c, 0, 71, 0
2, 86335, Note_on_c, 0, 74, 0
2, 86336, Note_on_c, 0, 62, 0
2, 86366, Note_on_c, 0, 68, 47
2, 86367, Note_on_c, 0, 59, 40
2, 86367, Note_on_c, 0, 65, 56
2, 86375, Note_on_c, 0, 59, 0
2, 86392, Note_on_c, 0, 65, 0
2, 86401, Note_on_c, 0, 68, 0
2, 86411, Note_on_c, 0, 57, 31
2, 86411, Note_on_c, 0, 60, 27
2, 86412, Note_on_c, 0, 67, 43
2, 86413, Note_on_c, 0, 64, 24
2, 86417, Note_on_c, 0, 52, 15
2, 86461, Note_on_c, 0, 64, 0
2, 86484, Note_on_c, 0, 67, 0
2, 86574, Note_on_c, 0, 57, 0
2, 86577, Note_on_c, 0, 52, 0
2, 86592, Note_on_c, 0, 60, 0
2, 86610, Note_on_c, 0, 93, 91
2, 86630, Note_on_c, 0, 93, 0
2, 86650, Note_on_c, 0, 64, 34
2, 86650, Note_on_c, 0, 86, 95
2, 86652, Note_on_c, 0, 93, 72
2, 86653, Note_on_c, 0, 60, 36
2, 86653, Note_on_c, 0, 57, 40
2, 86671, Note_on_c, 0, 86, 0
2, 86675, Note_on_c, 0, 87, 51
2, 86686, Note_on_c, 0, 93, 0
2, 86692, Note_on_c, 0, 86, 59
2, 86700, Note_on_c, 0, 64, 0
2, 86702, Note_on_c, 0, 60, 0
2, 86706, Note_on_c, 0, 87, 0
2, 86718, Note_on_c, 0, 86, 0
2, 86722, Note_on_c, 0, 84, 46
2, 86740, Note_on_c, 0, 84, 0
2, 86753, Note_on_c, 0, 83, 28
2, 86767, Note_on_c, 0, 83, 0
2, 86777, Note_on_c, 0, 86, 85
2, 86810, Note_on_c, 0, 86, 0
2, 86816, Note_on_c, 0, 57, 0
2, 86835, Note_on_c, 0, 84, 80
2, 86862, Note_on_c, 0, 84, 0
2, 86868, Note_on_c, 0, 81, 57
2, 86894, Note_on_c, 0, 81, 0
2, 86900, Note_on_c, 0, 76, 33
2, 86922, Note_on_c, 0, 76, 0
2, 86934, Note_on_c, 0, 74, 54
2, 86952, Note_on_c, 0, 74, 0
2, 87014, Note_on_c, 0, 79, 68
2, 87052, Note_on_c, 0, 79, 0
2, 87059, Note_on_c, 0, 76, 51
2, 87081, Note_on_c, 0, 76, 0
2, 87097, Note_on_c, 0, 77, 76
2, 87126, Note_on_c, 0, 77, 0
2, 87200, Note_on_c, 0, 76, 80
2, 87231, Note_on_c, 0, 76, 0
2, 87248, Note_on_c, 0, 69, 17
2, 87302, Note_on_c, 0, 69, 0
2, 87314, Note_on_c, 0, 72, 64
2, 87317, Note_on_c, 0, 64, 48
2, 87324, Note_on_c, 0, 64, 0
2, 87339, Note_on_c, 0, 72, 0
2, 87361, Note_on_c, 0, 64, 27
2, 87426, Note_on_c, 0, 64, 0
2, 87432, Note_on_c, 0, 69, 66
2, 87447, Note_on_c, 0, 57, 24
2, 87457, Note_on_c, 0, 57, 0
2, 87462, Note_on_c, 0, 69, 0
2, 87475, Note_on_c, 0, 64, 39
2, 87504, Note_on_c, 0, 64, 0
2, 87514, Note_on_c, 0, 65, 57
2, 87531, Note_on_c, 0, 65, 0
2, 87550, Note_on_c, 0, 69, 74
2, 87551, Note_on_c, 0, 64, 35
2, 87553, Note_on_c, 0, 57, 40
2, 87556, Note_on_c, 0, 60, 34
2, 87556, Note_on_c, 0, 53, 26
2, 87567, Note_on_c, 0, 64, 0
2, 87570, Note_on_c, 0, 60, 0
2, 87575, Note_on_c, 0, 53, 0
2, 87577, Note_on_c, 0, 57, 0
2, 87580, Note_on_c, 0, 69, 0
2, 87592, Note_on_c, 0, 72, 50
2, 87611, Note_on_c, 0, 72, 0
2, 87633, Note_on_c, 0, 76, 71
2, 87650, Note_on_c, 0, 76, 0
2, 87672, Note_on_c, 0, 53, 61
2, 87672, Note_on_c, 0, 57, 53
2, 87672, Note_on_c, 0, 64, 58
2, 87672, Note_on_c, 0, 79, 83
2, 87672, Note_on_c, 0, 67, 94
2, 87672, Note_on_c, 0, 60, 54
2, 87680, Note_on_c, 0, 77, 30
2, 87683, Note_on_c, 0, 79, 0
2, 87687, Note_on_c, 0, 60, 0
2, 87688, Note_on_c, 0, 77, 0
2, 87690, Note_on_c, 0, 64, 0
2, 87692, Note_on_c, 0, 77, 22
2, 87695, Note_on_c, 0, 53, 0
2, 87696, Note_on_c, 0, 67, 0
2, 87702, Note_on_c, 0, 57, 0
2, 87705, Note_on_c, 0, 77, 0
2, 87718, Note_on_c, 0, 53, 75
2, 87719, Note_on_c, 0, 64, 76
2, 87719, Note_on_c, 0, 59, 72
2, 87720, Note_on_c, 0, 80, 69
2, 87722, Note_on_c, 0, 69, 65
2, 87722, Note_on_c, 0, 81, 85
2, 87725, Note_on_c, 0, 71, 54
2, 87732, Note_on_c, 0, 71, 0
2, 87761, Note_on_c, 0, 69, 0
2, 87762, Note_on_c, 0, 81, 0
2, 87769, Note_on_c, 0, 80, 0
2, 87772, Note_on_c, 0, 53, 0
2, 87772, Note_on_c, 0, 64, 0
2, 87776, Note_on_c, 0, 59, 0
2, 87796, Note_on_c, 0, 70, 82
2, 87796, Note_on_c, 0, 82, 64
2, 87798, Note_on_c, 0, 53, 61
2, 87799, Note_on_c, 0, 64, 62
2, 87800, Note_on_c, 0, 59, 69
2, 87800, Note_on_c, 0, 76, 58
2, 87804, Note_on_c, 0, 83, 48
2, 87804, Note_on_c, 0, 79, 31
2, 87809, Note_on_c, 0, 70, 0
2, 87809, Note_on_c, 0, 71, 70
2, 87813, Note_on_c, 0, 82, 0
2, 87814, Note_on_c, 0, 64, 0
2, 87820, Note_on_c, 0, 59, 0
2, 87822, Note_on_c, 0, 53, 0
2, 87823, Note_on_c, 0, 83, 0
2, 87824, Note_on_c, 0, 79, 0
2, 87828, Note_on_c, 0, 76, 0
2, 87830, Note_on_c, 0, 71, 0
2, 87853, Note_on_c, 0, 79, 41
2, 87854, Note_on_c, 0, 64, 51
2, 87855, Note_on_c, 0, 67, 44
2, 87856, Note_on_c, 0, 60, 36
2, 87858, Note_on_c, 0, 55, 24
2, 87898, Note_on_c, 0, 64, 0
2, 87902, Note_on_c, 0, 55, 0
2, 87903, Note_on_c, 0, 67, 0
2, 87904, Note_on_c, 0, 60, 0
2, 87906, Note_on_c, 0, 79, 0
2, 87961, Note_on_c, 0, 79, 50
2, 87962, Note_on_c, 0, 74, 54
2, 87963, Note_on_c, 0, 67, 41
2, 87964, Note_on_c, 0, 55, 35
2, 87965, Note_on_c, 0, 64, 24
2, 87967, Note_on_c, 0, 60, 41
2, 87986, Note_on_c, 0, 67, 0
2, 88001, Note_on_c, 0, 55, 0
2, 88001, Note_on_c, 0, 60, 0
2, 88009, Note_on_c, 0, 74, 0
2, 88011, Note_on_c, 0, 64, 0
2, 88018, Note_on_c, 0, 79, 0
2, 88082, Note_on_c, 0, 65, 43
2, 88085, Note_on_c, 0, 62, 41
2, 88086, Note_on_c, 0, 56, 25
2, 88104, Note_on_c, 0, 65, 0
2, 88128, Note_on_c, 0, 67, 62
2, 88143, Note_on_c, 0, 67, 0
2, 88146, Note_on_c, 0, 68, 36
2, 88156, Note_on_c, 0, 62, 0
2, 88162, Note_on_c, 0, 70, 55
2, 88165, Note_on_c, 0, 68, 0
2, 88166, Note_on_c, 0, 56, 0
2, 88175, Note_on_c, 0, 70, 0
2, 88180, Note_on_c, 0, 71, 66
2, 88196, Note_on_c, 0, 71, 0
2, 88200, Note_on_c, 0, 73, 50
2, 88206, Note_on_c, 0, 65, 33
2, 88208, Note_on_c, 0, 62, 24
2, 88209, Note_on_c, 0, 56, 20
2, 88214, Note_on_c, 0, 73, 0
2, 88222, Note_on_c, 0, 65, 0
2, 88227, Note_on_c, 0, 74, 57
2, 88232, Note_on_c, 0, 62, 0
2, 88244, Note_on_c, 0, 74, 0
2, 88259, Note_on_c, 0, 75, 63
2, 88262, Note_on_c, 0, 56, 0
2, 88274, Note_on_c, 0, 75, 0
2, 88284, Note_on_c, 0, 76, 66
2, 88300, Note_on_c, 0, 76, 0
2, 88309, Note_on_c, 0, 79, 52
2, 88322, Note_on_c, 0, 64, 20
2, 88323, Note_on_c, 0, 57, 26
2, 88325, Note_on_c, 0, 60, 33
2, 88331, Note_on_c, 0, 83, 52
2, 88332, Note_on_c, 0, 79, 0
2, 88350, Note_on_c, 0, 83, 0
2, 88358, Note_on_c, 0, 86, 84
2, 88376, Note_on_c, 0, 64, 0
2, 88378, Note_on_c, 0, 86, 0
2, 88383, Note_on_c, 0, 60, 0
2, 88391, Note_on_c, 0, 83, 68
2, 88406, Note_on_c, 0, 83, 0
2, 88412, Note_on_c, 0, 57, 0
2, 88421, Note_on_c, 0, 84, 75
2, 88438, Note_on_c, 0, 84, 0
2, 88449, Note_on_c, 0, 57, 31
2, 88450, Note_on_c, 0, 64, 19
2, 88450, Note_on_c, 0, 60, 36
2, 88453, Note_on_c, 0, 81, 59
2, 88474, Note_on_c, 0, 81, 0
2, 88492, Note_on_c, 0, 64, 0
2, 88494, Note_on_c, 0, 79, 62
2, 88507, Note_on_c, 0, 60, 0
2, 88519, Note_on_c, 0, 79, 0
2, 88531, Note_on_c, 0, 76, 58
2, 88536, Note_on_c, 0, 57, 0
2, 88551, Note_on_c, 0, 76, 0
2, 88573, Note_on_c, 0, 55, 32
2, 88581, Note_on_c, 0, 60, 18
2, 88582, Note_on_c, 0, 72, 9
2, 88604, Note_on_c, 0, 72, 0
2, 88607, Note_on_c, 0, 69, 53
2, 88617, Note_on_c, 0, 60, 0
2, 88630, Note_on_c, 0, 69, 0
2, 88654, Note_on_c, 0, 55, 0
2, 88682, Note_on_c, 0, 69, 55
2, 88688, Note_on_c, 0, 55, 22
2, 88693, Note_on_c, 0, 64, 14
2, 88731, Note_on_c, 0, 64, 0
2, 88740, Note_on_c, 0, 55, 0
2, 88742, Note_on_c, 0, 69, 0
2, 88801, Note_on_c, 0, 81, 96
2, 88806, Note_on_c, 0, 54, 33
2, 88808, Note_on_c, 0, 60, 33
2, 88810, Note_on_c, 0, 64, 19
2, 88830, Note_on_c, 0, 60, 0
2, 88833, Note_on_c, 0, 64, 0
2, 88839, Note_on_c, 0, 81, 0
2, 88842, Note_on_c, 0, 83, 58
2, 88844, Note_on_c, 0, 54, 0
2, 88864, Note_on_c, 0, 83, 0
2, 88877, Note_on_c, 0, 84, 75
2, 88903, Note_on_c, 0, 84, 0
2, 88921, Note_on_c, 0, 84, 71
2, 88921, Note_on_c, 0, 54, 25
2, 88925, Note_on_c, 0, 60, 30
2, 88936, Note_on_c, 0, 60, 0
2, 88973, Note_on_c, 0, 54, 0
2, 88985, Note_on_c, 0, 84, 0
2, 88999, Note_on_c, 0, 72, 47
2, 89039, Note_on_c, 0, 51, 34
2, 89044, Note_on_c, 0, 57, 26
2, 89052, Note_on_c, 0, 57, 0
2, 89054, Note_on_c, 0, 51, 0
2, 89099, Note_on_c, 0, 72, 0
2, 89124, Note_on_c, 0, 75, 47
2, 89126, Note_on_c, 0, 71, 50
2, 89175, Note_on_c, 0, 71, 0
2, 89184, Note_on_c, 0, 75, 0
2, 89359, Note_on_c, 0, 82, 77
2, 89360, Note_on_c, 0, 70, 87
2, 89361, Note_on_c, 0, 75, 72
2, 89362, Note_on_c, 0, 59, 63
2, 89362, Note_on_c, 0, 62, 72
2, 89364, Note_on_c, 0, 52, 60
2, 89364, Note_on_c, 0, 55, 56
2, 89374, Note_on_c, 0, 59, 0
2, 89375, Note_on_c, 0, 62, 0
2, 89378, Note_on_c, 0, 70, 0
2, 89379, Note_on_c, 0, 55, 0
2, 89380, Note_on_c, 0, 52, 0
2, 89382, Note_on_c, 0, 75, 0
2, 89385, Note_on_c, 0, 82, 0
2, 89405, Note_on_c, 0, 83, 68
2, 89406, Note_on_c, 0, 71, 76
2, 89407, Note_on_c, 0, 59, 61
2, 89407, Note_on_c, 0, 76, 60
2, 89407, Note_on_c, 0, 62, 71
2, 89408, Note_on_c, 0, 55, 58
2, 89409, Note_on_c, 0, 52, 49
2, 89415, Note_on_c, 0, 52, 0
2, 89416, Note_on_c, 0, 59, 0
2, 89418, Note_on_c, 0, 71, 0
2, 89418, Note_on_c, 0, 55, 0
2, 89419, Note_on_c, 0, 62, 0
2, 89419, Note_on_c, 0, 76, 0
2, 89424, Note_on_c, 0, 83, 0
2, 89478, Note_on_c, 0, 72, 80
2, 89479, Note_on_c, 0, 84, 78
2, 89479, Note_on_c, 0, 62, 58
2, 89479, Note_on_c, 0, 59, 51
2, 89481, Note_on_c, 0, 78, 34
2, 89482, Note_on_c, 0, 55, 34
2, 89484, Note_on_c, 0, 83, 32
2, 89485, Note_on_c, 0, 59, 0
2, 89485, Note_on_c, 0, 62, 0
2, 89487, Note_on_c, 0, 78, 0
2, 89488, Note_on_c, 0, 55, 0
2, 89490, Note_on_c, 0, 72, 0
2, 89490, Note_on_c, 0, 84, 0
2, 89491, Note_on_c, 0, 83, 0
2, 89522, Note_on_c, 0, 73, 70
2, 89522, Note_on_c, 0, 55, 80
2, 89522, Note_on_c, 0, 85, 83
2, 89523, Note_on_c, 0, 61, 61
2, 89524, Note_on_c, 0, 65, 71
2, 89525, Note_on_c, 0, 80, 61
2, 89535, Note_on_c, 0, 80, 0
2, 89561, Control_c, 0, 64, 127
2, 89583, Note_on_c, 0, 55, 0
2, 89584, Note_on_c, 0, 85, 0
2, 89585, Note_on_c, 0, 65, 0
2, 89590, Note_on_c, 0, 73, 0
2, 89592, Note_on_c, 0, 61, 0
2, 89602, Note_on_c, 0, 85, 67
2, 89602, Note_on_c, 0, 55, 52
2, 89603, Note_on_c, 0, 73, 37
2, 89604, Note_on_c, 0, 61, 52
2, 89604, Note_on_c, 0, 65, 42
2, 89619, Note_on_c, 0, 65, 0
2, 89620, Note_on_c, 0, 55, 0
2, 89623, Note_on_c, 0, 73, 0
2, 89627, Note_on_c, 0, 85, 0
2, 89629, Note_on_c, 0, 61, 0
2, 89629, Control_c, 0, 64, 0
2, 89656, Control_c, 0, 64, 127
2, 89717, Note_on_c, 0, 65, 62
2, 89717, Note_on_c, 0, 61, 60
2, 89722, Note_on_c, 0, 55, 36
2, 89725, Note_on_c, 0, 65, 0
2, 89726, Control_c, 0, 64, 0
2, 89730, Note_on_c, 0, 55, 0
2, 89738, Note_on_c, 0, 61, 0
2, 89759, Note_on_c, 0, 57, 43
2, 89759, Note_on_c, 0, 64, 40
2, 89762, Note_on_c, 0, 55, 30
2, 89764, Note_on_c, 0, 60, 45
2, 89816, Note_on_c, 0, 64, 0
2, 89818, Note_on_c, 0, 60, 0
2, 89826, Note_on_c, 0, 55, 0
2, 89840, Note_on_c, 0, 64, 55
2, 89840, Note_on_c, 0, 55, 41
2, 89846, Note_on_c, 0, 60, 45
2, 89852, Note_on_c, 0, 64, 0
2, 89856, Note_on_c, 0, 60, 0
2, 89870, Note_on_c, 0, 55, 0
2, 89878, Note_on_c, 0, 57, 0
2, 89879, Note_on_c, 0, 84, 51
2, 89882, Note_on_c, 0, 85, 71
2, 89895, Note_on_c, 0, 84, 0
2, 89898, Note_on_c, 0, 86, 75
2, 89899, Note_on_c, 0, 85, 0
2, 89918, Note_on_c, 0, 86, 0
2, 89957, Note_on_c, 0, 91, 94
2, 89975, Note_on_c, 0, 91, 0
2, 90024, Note_on_c, 0, 82, 83
2, 90025, Note_on_c, 0, 88, 84
2, 90048, Note_on_c, 0, 82, 0
2, 90056, Note_on_c, 0, 86, 54
2, 90071, Note_on_c, 0, 88, 0
2, 90079, Note_on_c, 0, 82, 27
2, 90095, Note_on_c, 0, 79, 43
2, 90101, Note_on_c, 0, 82, 0
2, 90101, Note_on_c, 0, 86, 0
2, 90104, Note_on_c, 0, 79, 0
2, 90130, Note_on_c, 0, 88, 80
2, 90131, Note_on_c, 0, 81, 78
2, 90156, Note_on_c, 0, 88, 0
2, 90161, Note_on_c, 0, 81, 0
2, 90169, Note_on_c, 0, 76, 34
2, 90183, Note_on_c, 0, 76, 0
2, 90202, Note_on_c, 0, 79, 71
2, 90226, Note_on_c, 0, 79, 0
2, 90250, Note_on_c, 0, 81, 56
2, 90252, Note_on_c, 0, 79, 49
2, 90258, Note_on_c, 0, 79, 0
2, 90266, Note_on_c, 0, 81, 0
2, 90299, Note_on_c, 0, 81, 71
2, 90299, Note_on_c, 0, 79, 76
2, 90300, Note_on_c, 0, 86, 58
2, 90301, Note_on_c, 0, 84, 60
2, 90306, Note_on_c, 0, 82, 68
2, 90307, Note_on_c, 0, 84, 0
2, 90312, Note_on_c, 0, 79, 0
2, 90324, Note_on_c, 0, 81, 0
2, 90334, Note_on_c, 0, 82, 0
2, 90337, Note_on_c, 0, 83, 41
2, 90344, Note_on_c, 0, 83, 0
2, 90350, Note_on_c, 0, 86, 0
2, 90363, Note_on_c, 0, 79, 65
2, 90365, Note_on_c, 0, 86, 54
2, 90388, Note_on_c, 0, 86, 0
2, 90390, Note_on_c, 0, 79, 0
2, 90401, Note_on_c, 0, 74, 50
2, 90417, Note_on_c, 0, 74, 0
2, 90438, Note_on_c, 0, 72, 17
2, 90457, Note_on_c, 0, 72, 0
2, 90464, Note_on_c, 0, 71, 47
2, 90488, Note_on_c, 0, 71, 0
2, 90497, Note_on_c, 0, 70, 47
2, 90569, Note_on_c, 0, 62, 51
2, 90571, Note_on_c, 0, 58, 43
2, 90575, Note_on_c, 0, 62, 0
2, 90579, Note_on_c, 0, 58, 0
2, 90683, Note_on_c, 0, 64, 38
2, 90705, Note_on_c, 0, 64, 0
2, 90707, Note_on_c, 0, 70, 0
2, 90728, Note_on_c, 0, 62, 47
2, 90739, Note_on_c, 0, 62, 0
2, 90797, Note_on_c, 0, 76, 71
2, 90799, Note_on_c, 0, 57, 51
2, 90800, Note_on_c, 0, 71, 69
2, 90800, Note_on_c, 0, 47, 44
2, 90800, Note_on_c, 0, 64, 68
2, 90807, Note_on_c, 0, 47, 0
2, 90808, Note_on_c, 0, 57, 0
2, 90814, Note_on_c, 0, 64, 0
2, 90814, Note_on_c, 0, 71, 0
2, 90818, Note_on_c, 0, 76, 0
2, 90843, Note_on_c, 0, 74, 47
2, 90845, Note_on_c, 0, 56, 58
2, 90846, Note_on_c, 0, 64, 44
2, 90846, Note_on_c, 0, 62, 33
2, 90853, Note_on_c, 0, 62, 0
2, 90853, Note_on_c, 0, 64, 0
2, 90855, Note_on_c, 0, 56, 0
2, 90861, Note_on_c, 0, 74, 0
2, 90962, Note_on_c, 0, 62, 76
2, 90963, Note_on_c, 0, 74, 82
2, 90964, Note_on_c, 0, 67, 77
2, 90964, Note_on_c, 0, 64, 79
2, 90965, Note_on_c, 0, 71, 62
2, 90976, Note_on_c, 0, 64, 0
2, 90976, Note_on_c, 0, 67, 0
2, 90979, Note_on_c, 0, 71, 0
2, 90981, Note_on_c, 0, 62, 0
2, 90982, Note_on_c, 0, 74, 0
2, 91005, Note_on_c, 0, 72, 60
2, 91006, Note_on_c, 0, 59, 54
2, 91008, Note_on_c, 0, 64, 64
2, 91009, Note_on_c, 0, 67, 65
2, 91010, Note_on_c, 0, 69, 46
2, 91016, Note_on_c, 0, 59, 0
2, 91032, Note_on_c, 0, 69, 0
2, 91042, Note_on_c, 0, 67, 0
2, 91048, Note_on_c, 0, 72, 0
2, 91052, Note_on_c, 0, 64, 0
2, 91080, Note_on_c, 0, 71, 54
2, 91082, Note_on_c, 0, 66, 53
2, 91086, Note_on_c, 0, 59, 44
2, 91086, Note_on_c, 0, 60, 34
2, 91086, Note_on_c, 0, 63, 37
2, 91100, Note_on_c, 0, 59, 0
2, 91106, Note_on_c, 0, 60, 0
2, 91107, Note_on_c, 0, 71, 0
2, 91110, Note_on_c, 0, 66, 0
2, 91112, Note_on_c, 0, 63, 0
2, 91122, Note_on_c, 0, 60, 33
2, 91125, Note_on_c, 0, 54, 29
2, 91136, Note_on_c, 0, 60, 0
2, 91150, Note_on_c, 0, 54, 0
2, 91163, Note_on_c, 0, 69, 64
2, 91164, Note_on_c, 0, 59, 64
2, 91164, Note_on_c, 0, 66, 46
2, 91166, Note_on_c, 0, 62, 66
2, 91166, Note_on_c, 0, 57, 63
2, 91229, Note_on_c, 0, 69, 0
2, 91230, Note_on_c, 0, 59, 0
2, 91231, Note_on_c, 0, 57, 0
2, 91233, Note_on_c, 0, 62, 0
2, 91236, Note_on_c, 0, 54, 33
2, 91237, Note_on_c, 0, 66, 0
2, 91245, Note_on_c, 0, 59, 54
2, 91246, Note_on_c, 0, 62, 39
2, 91247, Note_on_c, 0, 69, 37
2, 91248, Note_on_c, 0, 67, 33
2, 91250, Note_on_c, 0, 54, 0
2, 91251, Note_on_c, 0, 55, 50
2, 91269, Note_on_c, 0, 69, 0
2, 91299, Note_on_c, 0, 62, 0
2, 91301, Note_on_c, 0, 59, 0
2, 91306, Note_on_c, 0, 67, 0
2, 91324, Note_on_c, 0, 55, 0
2, 91325, Note_on_c, 0, 66, 48
2, 91327, Note_on_c, 0, 59, 37
2, 91327, Note_on_c, 0, 54, 40
2, 91334, Note_on_c, 0, 62, 46
2, 91354, Note_on_c, 0, 62, 0
2, 91356, Note_on_c, 0, 59, 0
2, 91366, Note_on_c, 0, 67, 60
2, 91369, Note_on_c, 0, 55, 54
2, 91370, Note_on_c, 0, 54, 0
2, 91383, Note_on_c, 0, 66, 0
2, 91385, Note_on_c, 0, 67, 0
2, 91387, Note_on_c, 0, 55, 0
2, 91453, Note_on_c, 0, 52, 46
2, 91456, Note_on_c, 0, 64, 53
2, 91457, Note_on_c, 0, 59, 50
2, 91459, Note_on_c, 0, 62, 43
2, 91477, Note_on_c, 0, 55, 1
2, 91538, Note_on_c, 0, 62, 0
2, 91547, Note_on_c, 0, 55, 0
2, 91550, Note_on_c, 0, 59, 0
2, 91570, Note_on_c, 0, 62, 55
2, 91572, Note_on_c, 0, 52, 0
2, 91572, Note_on_c, 0, 55, 48
2, 91574, Note_on_c, 0, 59, 36
2, 91574, Note_on_c, 0, 50, 39
2, 91609, Note_on_c, 0, 55, 0
2, 91619, Note_on_c, 0, 50, 0
2, 91621, Note_on_c, 0, 59, 0
2, 91629, Note_on_c, 0, 62, 0
2, 91629, Note_on_c, 0, 64, 0
2, 91671, Note_on_c, 0, 62, 39
2, 91678, Note_on_c, 0, 62, 0
2, 91686, Note_on_c, 0, 64, 81
2, 91687, Note_on_c, 0, 76, 87
2, 91687, Note_on_c, 0, 72, 71
2, 91688, Note_on_c, 0, 69, 92
2, 91689, Note_on_c, 0, 65, 95
2, 91719, Note_on_c, 0, 65, 0
2, 91720, Note_on_c, 0, 72, 0
2, 91722, Note_on_c, 0, 69, 0
2, 91727, Note_on_c, 0, 76, 0
2, 91732, Note_on_c, 0, 64, 0
2, 91735, Note_on_c, 0, 62, 54
2, 91736, Note_on_c, 0, 74, 48
2, 91751, Note_on_c, 0, 74, 0
2, 91754, Note_on_c, 0, 62, 0
2, 91768, Note_on_c, 0, 79, 84
2, 91769, Note_on_c, 0, 72, 80
2, 91769, Note_on_c, 0, 69, 90
2, 91770, Note_on_c, 0, 67, 80
2, 91771, Note_on_c, 0, 78, 33
2, 91772, Note_on_c, 0, 77, 64
2, 91774, Note_on_c, 0, 74, 34
2, 91776, Note_on_c, 0, 76, 25
2, 91782, Note_on_c, 0, 74, 0
2, 91784, Note_on_c, 0, 76, 0
2, 91788, Note_on_c, 0, 78, 0
2, 91798, Note_on_c, 0, 67, 0
2, 91798, Note_on_c, 0, 72, 0
2, 91799, Note_on_c, 0, 79, 0
2, 91799, Note_on_c, 0, 77, 0
2, 91800, Note_on_c, 0, 69, 0
2, 91812, Note_on_c, 0, 77, 78
2, 91814, Note_on_c, 0, 72, 54
2, 91814, Note_on_c, 0, 65, 69
2, 91815, Note_on_c, 0, 69, 69
2, 91835, Note_on_c, 0, 72, 0
2, 91840, Note_on_c, 0, 77, 0
2, 91844, Note_on_c, 0, 69, 0
2, 91845, Note_on_c, 0, 65, 0
2, 91879, Note_on_c, 0, 76, 73
2, 91880, Note_on_c, 0, 64, 54
2, 91882, Note_on_c, 0, 69, 70
2, 91883, Note_on_c, 0, 65, 70
2, 91884, Note_on_c, 0, 72, 40
2, 91907, Note_on_c, 0, 64, 0
2, 91909, Note_on_c, 0, 69, 0
2, 91911, Note_on_c, 0, 72, 0
2, 91911, Note_on_c, 0, 76, 0
2, 91914, Note_on_c, 0, 65, 0
2, 91927, Note_on_c, 0, 62, 57
2, 91929, Note_on_c, 0, 74, 49
2, 91931, Note_on_c, 0, 69, 53
2, 91932, Note_on_c, 0, 65, 33
2, 91934, Note_on_c, 0, 71, 47
2, 91958, Note_on_c, 0, 71, 0
2, 91961, Note_on_c, 0, 69, 0
2, 91965, Note_on_c, 0, 74, 0
2, 91968, Note_on_c, 0, 62, 0
2, 91972, Note_on_c, 0, 65, 0
2, 91998, Note_on_c, 0, 71, 57
2, 92002, Note_on_c, 0, 59, 44
2, 92003, Note_on_c, 0, 65, 54
2, 92004, Note_on_c, 0, 62, 49
2, 92005, Note_on_c, 0, 68, 32
2, 92024, Note_on_c, 0, 68, 0
2, 92025, Note_on_c, 0, 65, 0
2, 92033, Note_on_c, 0, 59, 0
2, 92034, Note_on_c, 0, 62, 0
2, 92043, Note_on_c, 0, 71, 0
2, 92048, Note_on_c, 0, 56, 25
2, 92049, Note_on_c, 0, 68, 25
2, 92052, Note_on_c, 0, 62, 24
2, 92060, Note_on_c, 0, 65, 13
2, 92092, Note_on_c, 0, 65, 0
2, 92099, Note_on_c, 0, 56, 0
2, 92102, Note_on_c, 0, 68, 0
2, 92108, Note_on_c, 0, 62, 0
2, 92123, Note_on_c, 0, 52, 30
2, 92146, Note_on_c, 0, 52, 0
2, 92158, Note_on_c, 0, 67, 58
2, 92160, Note_on_c, 0, 55, 40
2, 92162, Note_on_c, 0, 59, 24
2, 92167, Note_on_c, 0, 62, 19
2, 92191, Note_on_c, 0, 64, 1
2, 92250, Note_on_c, 0, 59, 0
2, 92274, Note_on_c, 0, 62, 0
2, 92282, Note_on_c, 0, 59, 46
2, 92298, Note_on_c, 0, 64, 0
2, 92299, Note_on_c, 0, 67, 0
2, 92300, Note_on_c, 0, 55, 0
2, 92309, Note_on_c, 0, 59, 0
2, 92315, Note_on_c, 0, 62, 58
2, 92341, Note_on_c, 0, 62, 0
2, 92346, Note_on_c, 0, 67, 66
2, 92359, Note_on_c, 0, 67, 0
2, 92379, Note_on_c, 0, 74, 64
2, 92394, Note_on_c, 0, 74, 0
2, 92414, Note_on_c, 0, 77, 37
2, 92428, Note_on_c, 0, 77, 0
2, 92440, Note_on_c, 0, 79, 63
2, 92467, Note_on_c, 0, 78, 69
2, 92483, Note_on_c, 0, 79, 0
2, 92488, Note_on_c, 0, 78, 0
2, 92499, Note_on_c, 0, 74, 62
2, 92512, Note_on_c, 0, 57, 20
2, 92512, Note_on_c, 0, 48, 24
2, 92515, Note_on_c, 0, 74, 0
2, 92527, Note_on_c, 0, 69, 46
2, 92544, Note_on_c, 0, 69, 0
2, 92553, Note_on_c, 0, 66, 54
2, 92570, Note_on_c, 0, 66, 0
2, 92580, Note_on_c, 0, 48, 0
2, 92609, Note_on_c, 0, 48, 20
2, 92613, Note_on_c, 0, 57, 0
2, 92617, Note_on_c, 0, 48, 0
2, 92636, Note_on_c, 0, 62, 35
2, 92637, Note_on_c, 0, 55, 36
2, 92643, Note_on_c, 0, 47, 27
2, 92673, Note_on_c, 0, 62, 0
2, 92694, Note_on_c, 0, 58, 65
2, 92709, Note_on_c, 0, 55, 0
2, 92717, Note_on_c, 0, 58, 0
2, 92726, Note_on_c, 0, 59, 71
2, 92746, Note_on_c, 0, 59, 0
2, 92760, Note_on_c, 0, 61, 63
2, 92765, Note_on_c, 0, 55, 26
2, 92780, Note_on_c, 0, 61, 0
2, 92791, Note_on_c, 0, 62, 55
2, 92807, Note_on_c, 0, 62, 0
2, 92813, Note_on_c, 0, 47, 0
2, 92820, Note_on_c, 0, 67, 72
2, 92822, Note_on_c, 0, 55, 0
2, 92838, Note_on_c, 0, 67, 0
2, 92852, Note_on_c, 0, 71, 89
2, 92875, Note_on_c, 0, 71, 0
2, 92882, Note_on_c, 0, 74, 82
2, 92908, Note_on_c, 0, 74, 0
2, 92920, Note_on_c, 0, 71, 60
2, 92936, Note_on_c, 0, 71, 0
2, 92946, Note_on_c, 0, 72, 54
2, 92965, Note_on_c, 0, 72, 0
2, 92978, Note_on_c, 0, 76, 66
2, 92986, Note_on_c, 0, 62, 50
2, 92995, Note_on_c, 0, 55, 27
2, 93004, Note_on_c, 0, 62, 0
2, 93004, Note_on_c, 0, 76, 0
2, 93006, Note_on_c, 0, 55, 0
2, 93009, Note_on_c, 0, 79, 66
2, 93025, Note_on_c, 0, 79, 0
2, 93041, Note_on_c, 0, 83, 67
2, 93060, Note_on_c, 0, 83, 0
2, 93068, Note_on_c, 0, 86, 79
2, 93083, Note_on_c, 0, 86, 0
2, 93102, Note_on_c, 0, 87, 73
2, 93104, Note_on_c, 0, 75, 62
2, 93118, Note_on_c, 0, 75, 0
2, 93121, Note_on_c, 0, 87, 0
2, 93126, Note_on_c, 0, 64, 43
2, 93130, Note_on_c, 0, 75, 36
2, 93130, Note_on_c, 0, 55, 30
2, 93130, Note_on_c, 0, 87, 39
2, 93131, Note_on_c, 0, 57, 39
2, 93132, Note_on_c, 0, 60, 49
2, 93144, Note_on_c, 0, 81, 19
2, 93148, Note_on_c, 0, 88, 57
2, 93148, Note_on_c, 0, 84, 31
2, 93149, Note_on_c, 0, 87, 0
2, 93152, Note_on_c, 0, 75, 0
2, 93155, Note_on_c, 0, 76, 53
2, 93155, Note_on_c, 0, 86, 27
2, 93184, Note_on_c, 0, 84, 0
2, 93188, Note_on_c, 0, 88, 0
2, 93189, Note_on_c, 0, 81, 0
2, 93190, Note_on_c, 0, 86, 0
2, 93195, Note_on_c, 0, 76, 0
2, 93199, Note_on_c, 0, 60, 0
2, 93208, Note_on_c, 0, 64, 0
2, 93215, Note_on_c, 0, 57, 0
2, 93216, Note_on_c, 0, 55, 0
2, 93248, Note_on_c, 0, 84, 50
2, 93248, Note_on_c, 0, 55, 34
2, 93248, Note_on_c, 0, 72, 38
2, 93249, Note_on_c, 0, 64, 28
2, 93250, Note_on_c, 0, 57, 40
2, 93251, Note_on_c, 0, 81, 32
2, 93256, Note_on_c, 0, 60, 32
2, 93267, Note_on_c, 0, 55, 0
2, 93275, Note_on_c, 0, 84, 0
2, 93276, Note_on_c, 0, 81, 0
2, 93279, Note_on_c, 0, 72, 0
2, 93285, Note_on_c, 0, 60, 0
2, 93289, Note_on_c, 0, 64, 0
2, 93291, Note_on_c, 0, 57, 0
2, 93326, Note_on_c, 0, 55, 56
2, 93327, Note_on_c, 0, 81, 59
2, 93329, Note_on_c, 0, 64, 30
2, 93332, Note_on_c, 0, 60, 34
2, 93332, Note_on_c, 0, 69, 68
2, 93341, Note_on_c, 0, 60, 0
2, 93341, Note_on_c, 0, 64, 0
2, 93343, Note_on_c, 0, 55, 0
2, 93352, Note_on_c, 0, 81, 0
2, 93353, Note_on_c, 0, 69, 0
2, 93375, Note_on_c, 0, 79, 45
2, 93378, Note_on_c, 0, 54, 34
2, 93379, Note_on_c, 0, 67, 54
2, 93381, Note_on_c, 0, 64, 17
2, 93384, Note_on_c, 0, 60, 24
2, 93417, Note_on_c, 0, 79, 0
2, 93427, Note_on_c, 0, 67, 0
2, 93428, Note_on_c, 0, 64, 0
2, 93435, Note_on_c, 0, 54, 0
2, 93436, Note_on_c, 0, 60, 0
2, 93445, Note_on_c, 0, 78, 49
2, 93447, Note_on_c, 0, 54, 35
2, 93449, Note_on_c, 0, 66, 46
2, 93450, Note_on_c, 0, 60, 24
2, 93452, Note_on_c, 0, 64, 20
2, 93513, Note_on_c, 0, 54, 0
2, 93518, Note_on_c, 0, 60, 0
2, 93531, Note_on_c, 0, 64, 0
2, 93542, Note_on_c, 0, 66, 0
2, 93551, Note_on_c, 0, 54, 46
2, 93566, Note_on_c, 0, 54, 0
2, 93566, Note_on_c, 0, 78, 0
2, 93595, Note_on_c, 0, 67, 59
2, 93598, Note_on_c, 0, 63, 36
2, 93615, Note_on_c, 0, 57, 8
2, 93653, Note_on_c, 0, 57, 0
2, 93654, Note_on_c, 0, 67, 0
2, 93665, Note_on_c, 0, 63, 0
2, 93676, Note_on_c, 0, 83, 84
2, 93678, Note_on_c, 0, 63, 46
2, 93679, Note_on_c, 0, 67, 69
2, 93680, Note_on_c, 0, 57, 65
2, 93707, Note_on_c, 0, 83, 0
2, 93718, Note_on_c, 0, 87, 81
2, 93724, Note_on_c, 0, 57, 0
2, 93727, Note_on_c, 0, 67, 0
2, 93734, Note_on_c, 0, 87, 0
2, 93735, Note_on_c, 0, 63, 0
2, 93757, Note_on_c, 0, 87, 69
2, 93779, Note_on_c, 0, 87, 0
2, 93796, Note_on_c, 0, 89, 88
2, 93800, Note_on_c, 0, 57, 50
2, 93800, Note_on_c, 0, 63, 43
2, 93800, Note_on_c, 0, 67, 48
2, 93812, Note_on_c, 0, 57, 0
2, 93814, Note_on_c, 0, 67, 0
2, 93827, Note_on_c, 0, 89, 0
2, 93829, Note_on_c, 0, 63, 0
2, 93841, Note_on_c, 0, 88, 72
2, 93842, Note_on_c, 0, 62, 41
2, 93843, Note_on_c, 0, 65, 38
2, 93845, Note_on_c, 0, 56, 29
2, 93859, Note_on_c, 0, 88, 0
2, 93868, Note_on_c, 0, 89, 41
2, 93885, Note_on_c, 0, 88, 63
2, 93897, Note_on_c, 0, 89, 0
2, 93900, Note_on_c, 0, 65, 0
2, 93905, Note_on_c, 0, 88, 0
2, 93907, Note_on_c, 0, 83, 58
2, 93930, Note_on_c, 0, 83, 0
2, 93939, Note_on_c, 0, 62, 0
2, 93943, Note_on_c, 0, 56, 0
2, 93944, Note_on_c, 0, 81, 68
2, 93967, Note_on_c, 0, 81, 0
2, 93977, Note_on_c, 0, 80, 39
2, 93979, Note_on_c, 0, 65, 38
2, 93979, Note_on_c, 0, 62, 26
2, 93986, Note_on_c, 0, 56, 18
2, 94004, Note_on_c, 0, 80, 0
2, 94014, Note_on_c, 0, 88, 82
2, 94030, Note_on_c, 0, 65, 0
2, 94034, Note_on_c, 0, 88, 0
2, 94049, Note_on_c, 0, 62, 0
2, 94071, Note_on_c, 0, 56, 0
2, 94074, Note_on_c, 0, 77, 51
2, 94094, Note_on_c, 0, 77, 0
2, 94102, Note_on_c, 0, 76, 55
2, 94107, Note_on_c, 0, 60, 17
2, 94116, Note_on_c, 0, 60, 0
2, 94130, Note_on_c, 0, 76, 0
2, 94133, Note_on_c, 0, 55, 1
2, 94136, Note_on_c, 0, 74, 54
2, 94156, Note_on_c, 0, 74, 0
2, 94169, Note_on_c, 0, 73, 30
2, 94176, Note_on_c, 0, 55, 0
2, 94190, Note_on_c, 0, 73, 0
2, 94195, Note_on_c, 0, 76, 63
2, 94215, Note_on_c, 0, 76, 0
2, 94217, Note_on_c, 0, 61, 25
2, 94224, Note_on_c, 0, 70, 49
2, 94233, Note_on_c, 0, 61, 0
2, 94252, Note_on_c, 0, 70, 0
2, 94259, Note_on_c, 0, 67, 30
2, 94268, Note_on_c, 0, 67, 0
2, 94281, Note_on_c, 0, 69, 68
2, 94300, Note_on_c, 0, 69, 0
2, 94316, Note_on_c, 0, 70, 34
2, 94322, Note_on_c, 0, 69, 51
2, 94335, Note_on_c, 0, 61, 31
2, 94336, Note_on_c, 0, 70, 0
2, 94341, Note_on_c, 0, 67, 40
2, 94345, Note_on_c, 0, 69, 0
2, 94351, Note_on_c, 0, 61, 0
2, 94363, Note_on_c, 0, 67, 0
2, 94377, Note_on_c, 0, 65, 55
2, 94395, Note_on_c, 0, 65, 0
2, 94407, Note_on_c, 0, 64, 36
2, 94425, Note_on_c, 0, 64, 0
2, 94436, Note_on_c, 0, 67, 75
2, 94450, Note_on_c, 0, 61, 32
2, 94457, Note_on_c, 0, 61, 0
2, 94463, Note_on_c, 0, 67, 0
2, 94464, Note_on_c, 0, 64, 49
2, 94491, Note_on_c, 0, 64, 0
2, 94497, Note_on_c, 0, 61, 50
2, 94514, Note_on_c, 0, 61, 0
2, 94635, Note_on_c, 0, 74, 83
2, 94636, Note_on_c, 0, 67, 82
2, 94637, Note_on_c, 0, 70, 68
2, 94637, Note_on_c, 0, 63, 80
2, 94638, Note_on_c, 0, 62, 78
2, 94665, Note_on_c, 0, 63, 0
2, 94665, Note_on_c, 0, 74, 0
2, 94667, Note_on_c, 0, 70, 0
2, 94669, Note_on_c, 0, 67, 0
2, 94670, Note_on_c, 0, 62, 0
2, 94681, Note_on_c, 0, 60, 53
2, 94681, Note_on_c, 0, 72, 42
2, 94683, Note_on_c, 0, 63, 44
2, 94685, Note_on_c, 0, 67, 60
2, 94687, Note_on_c, 0, 70, 27
2, 94706, Note_on_c, 0, 60, 0
2, 94732, Note_on_c, 0, 67, 0
2, 94743, Note_on_c, 0, 63, 0
2, 94745, Note_on_c, 0, 70, 0
2, 94752, Note_on_c, 0, 72, 0
2, 94756, Note_on_c, 0, 63, 42
2, 94757, Note_on_c, 0, 51, 35
2, 94776, Note_on_c, 0, 63, 0
2, 94795, Note_on_c, 0, 51, 0
2, 94796, Note_on_c, 0, 66, 46
2, 94799, Note_on_c, 0, 69, 49
2, 94799, Note_on_c, 0, 62, 36
2, 94799, Note_on_c, 0, 57, 48
2, 94869, Note_on_c, 0, 62, 0
2, 94878, Note_on_c, 0, 51, 53
2, 94880, Note_on_c, 0, 66, 0
2, 94880, Note_on_c, 0, 69, 0
2, 94971, Note_on_c, 0, 57, 0
2, 94984, Note_on_c, 0, 51, 0
2, 94992, Note_on_c, 0, 51, 33
2, 94999, Note_on_c, 0, 85, 79
2, 95005, Note_on_c, 0, 85, 0
2, 95006, Note_on_c, 0, 84, 66
2, 95012, Note_on_c, 0, 84, 0
2, 95013, Note_on_c, 0, 51, 0
2, 95039, Note_on_c, 0, 85, 76
2, 95040, Note_on_c, 0, 73, 64
2, 95073, Note_on_c, 0, 73, 0
2, 95075, Note_on_c, 0, 85, 0
2, 95081, Note_on_c, 0, 74, 20
2, 95114, Note_on_c, 0, 86, 47
2, 95132, Note_on_c, 0, 86, 0
2, 95132, Note_on_c, 0, 74, 0
2, 95152, Note_on_c, 0, 66, 37
2, 95154, Note_on_c, 0, 83, 54
2, 95156, Note_on_c, 0, 62, 34
2, 95156, Note_on_c, 0, 57, 32
2, 95157, Note_on_c, 0, 71, 51
2, 95167, Note_on_c, 0, 66, 0
2, 95169, Note_on_c, 0, 62, 0
2, 95170, Note_on_c, 0, 57, 0
2, 95214, Note_on_c, 0, 83, 0
2, 95233, Note_on_c, 0, 71, 0
2, 95236, Note_on_c, 0, 59, 34
2, 95245, Note_on_c, 0, 59, 0
2, 95271, Note_on_c, 0, 79, 50
2, 95272, Note_on_c, 0, 67, 49
2, 95276, Note_on_c, 0, 62, 36
2, 95329, Note_on_c, 0, 79, 0
2, 95330, Note_on_c, 0, 67, 0
2, 95351, Note_on_c, 0, 67, 49
2, 95351, Note_on_c, 0, 79, 38
2, 95368, Note_on_c, 0, 67, 0
2, 95378, Note_on_c, 0, 52, 33
2, 95386, Note_on_c, 0, 79, 0
2, 95391, Note_on_c, 0, 52, 0
2, 95391, Note_on_c, 0, 62, 0
2, 95393, Control_c, 0, 64, 127
2, 95470, Note_on_c, 0, 49, 76
2, 95471, Note_on_c, 0, 57, 74
2, 95472, Note_on_c, 0, 93, 88
2, 95473, Note_on_c, 0, 81, 91
2, 95476, Note_on_c, 0, 92, 64
2, 95477, Control_c, 0, 64, 0
2, 95481, Note_on_c, 0, 92, 0
2, 95502, Control_c, 0, 64, 127
2, 95527, Note_on_c, 0, 49, 0
2, 95533, Note_on_c, 0, 57, 0
2, 95560, Note_on_c, 0, 93, 0
2, 95564, Note_on_c, 0, 81, 0
2, 95645, Note_on_c, 0, 88, 71
2, 95647, Control_c, 0, 64, 0
2, 95648, Note_on_c, 0, 64, 43
2, 95648, Note_on_c, 0, 61, 38
2, 95649, Note_on_c, 0, 76, 59
2, 95649, Note_on_c, 0, 58, 43
2, 95681, Note_on_c, 0, 88, 0
2, 95682, Note_on_c, 0, 58, 0
2, 95683, Note_on_c, 0, 61, 0
2, 95684, Note_on_c, 0, 64, 0
2, 95692, Note_on_c, 0, 76, 0
2, 95693, Control_c, 0, 64, 127
2, 95753, Control_c, 0, 64, 0
2, 95761, Note_on_c, 0, 87, 83
2, 95761, Note_on_c, 0, 63, 47
2, 95762, Note_on_c, 0, 62, 59
2, 95762, Note_on_c, 0, 75, 85
2, 95762, Note_on_c, 0, 67, 61
2, 95766, Note_on_c, 0, 58, 40
2, 95785, Control_c, 0, 64, 127
2, 95809, Note_on_c, 0, 75, 0
2, 95814, Note_on_c, 0, 67, 0
2, 95816, Note_on_c, 0, 58, 0
2, 95817, Note_on_c, 0, 87, 0
2, 95818, Note_on_c, 0, 63, 0
2, 95820, Note_on_c, 0, 62, 0
2, 95836, Note_on_c, 0, 89, 69
2, 95839, Note_on_c, 0, 67, 55
2, 95839, Note_on_c, 0, 77, 66
2, 95840, Note_on_c, 0, 58, 46
2, 95841, Note_on_c, 0, 63, 34
2, 95841, Note_on_c, 0, 62, 46
2, 95855, Note_on_c, 0, 89, 0
2, 95857, Note_on_c, 0, 67, 0
2, 95859, Note_on_c, 0, 77, 0
2, 95864, Note_on_c, 0, 63, 0
2, 95865, Note_on_c, 0, 62, 0
2, 95869, Note_on_c, 0, 58, 0
2, 95876, Control_c, 0, 64, 0
2, 95878, Note_on_c, 0, 58, 36
2, 95879, Note_on_c, 0, 67, 54
2, 95881, Note_on_c, 0, 63, 33
2, 95885, Note_on_c, 0, 86, 64
2, 95889, Note_on_c, 0, 74, 54
2, 95897, Note_on_c, 0, 67, 0
2, 95905, Note_on_c, 0, 86, 0
2, 95907, Note_on_c, 0, 63, 0
2, 95918, Note_on_c, 0, 74, 0
2, 95922, Control_c, 0, 64, 127
2, 95929, Note_on_c, 0, 58, 0
2, 95955, Note_on_c, 0, 63, 43
2, 95957, Note_on_c, 0, 58, 27
2, 95957, Note_on_c, 0, 84, 58
2, 95959, Note_on_c, 0, 72, 43
2, 95966, Note_on_c, 0, 58, 0
2, 95971, Note_on_c, 0, 84, 0
2, 95973, Note_on_c, 0, 63, 0
2, 95975, Note_on_c, 0, 72, 0
2, 95993, Control_c, 0, 64, 0
2, 95999, Note_on_c, 0, 66, 35
2, 96001, Note_on_c, 0, 83, 43
2, 96004, Note_on_c, 0, 57, 26
2, 96005, Note_on_c, 0, 62, 32
2, 96005, Note_on_c, 0, 71, 36
2, 96020, Note_on_c, 0, 66, 0
2, 96021, Note_on_c, 0, 71, 0
2, 96026, Note_on_c, 0, 62, 0
2, 96027, Note_on_c, 0, 57, 0
2, 96029, Note_on_c, 0, 83, 0
2, 96115, Note_on_c, 0, 66, 51
2, 96116, Note_on_c, 0, 86, 74
2, 96116, Note_on_c, 0, 57, 55
2, 96118, Note_on_c, 0, 74, 60
2, 96119, Note_on_c, 0, 62, 45
2, 96144, Note_on_c, 0, 57, 0
2, 96146, Note_on_c, 0, 74, 0
2, 96147, Note_on_c, 0, 62, 0
2, 96148, Note_on_c, 0, 66, 0
2, 96154, Note_on_c, 0, 86, 0
2, 96176, Control_c, 0, 64, 127
2, 96220, Control_c, 0, 64, 0
2, 96237, Note_on_c, 0, 67, 43
2, 96237, Note_on_c, 0, 88, 68
2, 96237, Note_on_c, 0, 62, 45
2, 96238, Note_on_c, 0, 56, 37
2, 96239, Note_on_c, 0, 76, 57
2, 96241, Control_c, 0, 64, 127
2, 96263, Note_on_c, 0, 76, 0
2, 96267, Note_on_c, 0, 88, 0
2, 96272, Note_on_c, 0, 67, 0
2, 96276, Note_on_c, 0, 56, 0
2, 96279, Note_on_c, 0, 62, 0
2, 96311, Note_on_c, 0, 91, 74
2, 96313, Note_on_c, 0, 79, 74
2, 96315, Note_on_c, 0, 56, 67
2, 96315, Note_on_c, 0, 62, 71
2, 96316, Note_on_c, 0, 67, 73
2, 96325, Note_on_c, 0, 67, 0
2, 96326, Note_on_c, 0, 79, 0
2, 96330, Note_on_c, 0, 56, 0
2, 96333, Note_on_c, 0, 91, 0
2, 96334, Note_on_c, 0, 62, 0
2, 96344, Control_c, 0, 64, 0
2, 96352, Note_on_c, 0, 62, 90
2, 96352, Note_on_c, 0, 95, 91
2, 96352, Note_on_c, 0, 56, 80
2, 96353, Note_on_c, 0, 67, 91
2, 96353, Note_on_c, 0, 83, 96
2, 96354, Note_on_c, 0, 93, 75
2, 96358, Control_c, 0, 64, 127
2, 96360, Note_on_c, 0, 93, 0
2, 96379, Note_on_c, 0, 83, 0
2, 96381, Note_on_c, 0, 67, 0
2, 96383, Note_on_c, 0, 62, 0
2, 96384, Note_on_c, 0, 95, 0
2, 96400, Note_on_c, 0, 56, 0
2, 96434, Note_on_c, 0, 64, 94
2, 96434, Note_on_c, 0, 55, 90
2, 96435, Note_on_c, 0, 60, 88
2, 96435, Note_on_c, 0, 57, 83
2, 96435, Note_on_c, 0, 86, 118
2, 96435, Note_on_c, 0, 98, 95
2, 96436, Note_on_c, 0, 91, 94
2, 96437, Note_on_c, 0, 95, 84
2, 96439, Control_c, 0, 64, 0
2, 96440, Note_on_c, 0, 96, 47
2, 96468, Control_c, 0, 64, 127
2, 96534, Note_on_c, 0, 95, 0
2, 96540, Note_on_c, 0, 96, 0
2, 96540, Note_on_c, 0, 91, 0
2, 96540, Note_on_c, 0, 98, 0
2, 96552, Note_on_c, 0, 86, 0
2, 96565, Note_on_c, 0, 55, 0
2, 96568, Note_on_c, 0, 57, 0
2, 96569, Note_on_c, 0, 60, 0
2, 96569, Note_on_c, 0, 64, 0
2, 96596, Control_c, 0, 64, 0
2, 96598, Note_on_c, 0, 95, 68
2, 96598, Note_on_c, 0, 83, 67
2, 96598, Note_on_c, 0, 90, 64
2, 96600, Note_on_c, 0, 55, 56
2, 96600, Note_on_c, 0, 64, 53
2, 96602, Note_on_c, 0, 60, 51
2, 96602, Note_on_c, 0, 57, 53
2, 96633, Control_c, 0, 64, 127
2, 96635, Note_on_c, 0, 91, 50
2, 96638, Note_on_c, 0, 90, 0
2, 96643, Note_on_c, 0, 91, 0
2, 96647, Note_on_c, 0, 83, 0
2, 96649, Note_on_c, 0, 95, 0
2, 96655, Note_on_c, 0, 55, 0
2, 96656, Note_on_c, 0, 64, 0
2, 96659, Note_on_c, 0, 57, 0
2, 96662, Note_on_c, 0, 60, 0
2, 96705, Control_c, 0, 64, 0
2, 96713, Note_on_c, 0, 91, 58
2, 96715, Note_on_c, 0, 64, 50
2, 96715, Note_on_c, 0, 86, 68
2, 96716, Note_on_c, 0, 79, 49
2, 96718, Note_on_c, 0, 60, 37
2, 96718, Note_on_c, 0, 54, 37
2, 96722, Note_on_c, 0, 64, 0
2, 96725, Note_on_c, 0, 60, 0
2, 96725, Note_on_c, 0, 79, 0
2, 96728, Note_on_c, 0, 86, 0
2, 96729, Note_on_c, 0, 91, 0
2, 96740, Note_on_c, 0, 54, 0
2, 96796, Note_on_c, 0, 79, 41
2, 96805, Note_on_c, 0, 79, 0
2, 96842, Note_on_c, 0, 89, 55
2, 96845, Note_on_c, 0, 77, 36
2, 96846, Note_on_c, 0, 79, 37
2, 96853, Note_on_c, 0, 77, 0
2, 96857, Note_on_c, 0, 79, 0
2, 96857, Note_on_c, 0, 89, 0
2, 96916, Note_on_c, 0, 50, 77
2, 96919, Note_on_c, 0, 49, 55
2, 96930, Note_on_c, 0, 49, 0
2, 97034, Note_on_c, 0, 79, 55
2, 97042, Note_on_c, 0, 79, 0
2, 97077, Note_on_c, 0, 50, 0
2, 97087, Note_on_c, 0, 89, 84
2, 97087, Note_on_c, 0, 82, 86
2, 97107, Note_on_c, 0, 83, 29
2, 97125, Note_on_c, 0, 82, 0
2, 97131, Note_on_c, 0, 83, 0
2, 97132, Note_on_c, 0, 89, 0
2, 97159, Note_on_c, 0, 89, 80
2, 97160, Note_on_c, 0, 82, 81
2, 97177, Note_on_c, 0, 83, 54
2, 97180, Note_on_c, 0, 82, 0
2, 97201, Note_on_c, 0, 83, 0
2, 97204, Note_on_c, 0, 89, 0
2, 97213, Note_on_c, 0, 79, 36
2, 97257, Note_on_c, 0, 79, 0
2, 97276, Note_on_c, 0, 79, 41
2, 97293, Note_on_c, 0, 79, 0
2, 97315, Note_on_c, 0, 88, 79
2, 97316, Note_on_c, 0, 84, 82
2, 97368, Note_on_c, 0, 84, 0
2, 97369, Note_on_c, 0, 88, 0
2, 97390, Note_on_c, 0, 88, 80
2, 97391, Note_on_c, 0, 84, 83
2, 97415, Note_on_c, 0, 84, 0
2, 97416, Note_on_c, 0, 88, 0
2, 97432, Note_on_c, 0, 86, 68
2, 97432, Note_on_c, 0, 82, 64
2, 97455, Note_on_c, 0, 82, 0
2, 97455, Note_on_c, 0, 86, 0
2, 97466, Note_on_c, 0, 86, 65
2, 97469, Note_on_c, 0, 83, 64
2, 97482, Note_on_c, 0, 86, 0
2, 97490, Note_on_c, 0, 83, 0
2, 97502, Note_on_c, 0, 86, 64
2, 97505, Note_on_c, 0, 79, 67
2, 97526, Note_on_c, 0, 86, 0
2, 97534, Note_on_c, 0, 79, 0
2, 97545, Note_on_c, 0, 74, 49
2, 97598, Note_on_c, 0, 74, 0
2, 97678, Note_on_c, 0, 79, 74
2, 97679, Note_on_c, 0, 72, 73
2, 97680, Note_on_c, 0, 74, 58
2, 97687, Note_on_c, 0, 74, 0
2, 97701, Note_on_c, 0, 79, 0
2, 97705, Note_on_c, 0, 72, 0
2, 97722, Note_on_c, 0, 67, 28
2, 97729, Note_on_c, 0, 67, 0
2, 97757, Note_on_c, 0, 74, 71
2, 97757, Note_on_c, 0, 70, 79
2, 97788, Note_on_c, 0, 70, 0
2, 97792, Note_on_c, 0, 71, 53
2, 97813, Note_on_c, 0, 71, 0
2, 97815, Note_on_c, 0, 74, 0
2, 97815, Note_on_c, 0, 67, 52
2, 97838, Note_on_c, 0, 67, 0
2, 97848, Note_on_c, 0, 62, 53
2, 97863, Note_on_c, 0, 62, 0
2, 97873, Note_on_c, 0, 60, 55
2, 97896, Note_on_c, 0, 60, 0
2, 97913, Note_on_c, 0, 59, 67
2, 97983, Note_on_c, 0, 59, 0
2, 97997, Note_on_c, 0, 67, 74
2, 98026, Note_on_c, 0, 67, 0
2, 98119, Note_on_c, 0, 64, 79
2, 98134, Note_on_c, 0, 64, 0
2, 98160, Note_on_c, 0, 67, 110
2, 98233, Note_on_c, 0, 67, 0
2, 98244, Note_on_c, 0, 67, 95
2, 98298, Note_on_c, 0, 67, 0
2, 98366, Note_on_c, 0, 64, 44
2, 98374, Note_on_c, 0, 64, 0
2, 98403, Note_on_c, 0, 67, 123
2, 98404, Note_on_c, 0, 57, 74
2, 98407, Note_on_c, 0, 47, 51
2, 98415, Note_on_c, 0, 47, 0
2, 98424, Note_on_c, 0, 57, 0
2, 98605, Note_on_c, 0, 62, 55
2, 98607, Note_on_c, 0, 56, 44
2, 98609, Note_on_c, 0, 65, 40
2, 98614, Note_on_c, 0, 62, 0
2, 98615, Note_on_c, 0, 65, 0
2, 98625, Note_on_c, 0, 67, 0
2, 98628, Note_on_c, 0, 56, 0
2, 98648, Note_on_c, 0, 55, 62
2, 98650, Note_on_c, 0, 64, 54
2, 98656, Note_on_c, 0, 60, 43
2, 98733, Note_on_c, 0, 55, 0
2, 98739, Note_on_c, 0, 64, 0
2, 98746, Note_on_c, 0, 60, 0
2, 98764, Note_on_c, 0, 64, 56
2, 98765, Note_on_c, 0, 54, 47
2, 98766, Note_on_c, 0, 60, 49
2, 98785, Note_on_c, 0, 64, 0
2, 98790, Note_on_c, 0, 60, 0
2, 98807, Note_on_c, 0, 65, 55
2, 98815, Note_on_c, 0, 65, 0
2, 98881, Note_on_c, 0, 54, 0
2, 98955, Note_on_c, 0, 73, 84
2, 98957, Note_on_c, 0, 79, 80
2, 98990, Note_on_c, 0, 79, 0
2, 98999, Note_on_c, 0, 73, 0
2, 99002, Note_on_c, 0, 79, 67
2, 99004, Note_on_c, 0, 74, 80
2, 99031, Note_on_c, 0, 79, 0
2, 99037, Note_on_c, 0, 74, 0
2, 99046, Note_on_c, 0, 67, 53
2, 99058, Note_on_c, 0, 67, 0
2, 99084, Note_on_c, 0, 77, 80
2, 99084, Note_on_c, 0, 72, 88
2, 99143, Note_on_c, 0, 72, 0
2, 99143, Note_on_c, 0, 77, 0
2, 99159, Note_on_c, 0, 76, 68
2, 99160, Note_on_c, 0, 69, 80
2, 99221, Note_on_c, 0, 69, 0
2, 99224, Note_on_c, 0, 76, 0
2, 99236, Note_on_c, 0, 72, 46
2, 99237, Note_on_c, 0, 65, 58
2, 99264, Note_on_c, 0, 72, 0
2, 99290, Note_on_c, 0, 65, 0
2, 99316, Note_on_c, 0, 64, 28
2, 99327, Note_on_c, 0, 53, 32
2, 99335, Note_on_c, 0, 64, 0
2, 99345, Note_on_c, 0, 53, 0
2, 99358, Note_on_c, 0, 69, 74
2, 99360, Note_on_c, 0, 60, 68
2, 99360, Note_on_c, 0, 64, 72
2, 99362, Note_on_c, 0, 55, 58
2, 99382, Note_on_c, 0, 64, 0
2, 99387, Note_on_c, 0, 69, 0
2, 99387, Note_on_c, 0, 60, 0
2, 99397, Note_on_c, 0, 55, 0
2, 99400, Note_on_c, 0, 54, 39
2, 99435, Note_on_c, 0, 54, 0
2, 99440, Note_on_c, 0, 67, 54
2, 99442, Note_on_c, 0, 57, 52
2, 99442, Note_on_c, 0, 64, 57
2, 99443, Note_on_c, 0, 53, 49
2, 99444, Note_on_c, 0, 60, 61
2, 99491, Note_on_c, 0, 64, 0
2, 99502, Note_on_c, 0, 60, 0
2, 99504, Note_on_c, 0, 57, 0
2, 99505, Note_on_c, 0, 67, 0
2, 99524, Note_on_c, 0, 65, 41
2, 99525, Note_on_c, 0, 60, 61
2, 99528, Note_on_c, 0, 57, 42
2, 99539, Note_on_c, 0, 50, 32
2, 99543, Note_on_c, 0, 60, 0
2, 99543, Note_on_c, 0, 65, 0
2, 99544, Note_on_c, 0, 57, 0
2, 99552, Note_on_c, 0, 53, 0
2, 99566, Note_on_c, 0, 50, 0
2, 99571, Note_on_c, 0, 43, 51
2, 99610, Note_on_c, 0, 59, 54
2, 99610, Note_on_c, 0, 56, 43
2, 99610, Note_on_c, 0, 64, 50
2, 99611, Note_on_c, 0, 53, 54
2, 99703, Note_on_c, 0, 53, 0
2, 99707, Note_on_c, 0, 56, 0
2, 99710, Note_on_c, 0, 59, 0
2, 99715, Note_on_c, 0, 64, 0
2, 99723, Note_on_c, 0, 62, 44
2, 99723, Note_on_c, 0, 56, 36
2, 99728, Note_on_c, 0, 59, 34
2, 99730, Note_on_c, 0, 52, 35
2, 99756, Note_on_c, 0, 59, 0
2, 99791, Note_on_c, 0, 52, 0
2, 99795, Note_on_c, 0, 46, 31
2, 99797, Note_on_c, 0, 43, 0
2, 99806, Note_on_c, 0, 56, 0
2, 99823, Note_on_c, 0, 46, 0
2, 99824, Note_on_c, 0, 62, 0
2, 99833, Note_on_c, 0, 55, 51
2, 99833, Note_on_c, 0, 48, 33
2, 99837, Note_on_c, 0, 60, 37
2, 99843, Note_on_c, 0, 55, 0
2, 99863, Note_on_c, 0, 60, 0
2, 99918, Note_on_c, 0, 36, 54
2, 99925, Note_on_c, 0, 36, 0
2, 99933, Note_on_c, 0, 48, 0
2, 99961, Note_on_c, 0, 67, 31
2, 99973, Note_on_c, 0, 67, 0
2, 99997, Note_on_c, 0, 72, 66
2, 100011, Note_on_c, 0, 72, 0
2, 100036, Note_on_c, 0, 76, 92
2, 100043, Note_on_c, 0, 75, 42
2, 100050, Note_on_c, 0, 75, 0
2, 100064, Note_on_c, 0, 76, 0
2, 100193, Note_on_c, 0, 78, 86
2, 100195, Note_on_c, 0, 74, 90
2, 100195, Note_on_c, 0, 69, 101
2, 100197, Note_on_c, 0, 62, 71
2, 100224, Note_on_c, 0, 78, 0
2, 100225, Note_on_c, 0, 74, 0
2, 100226, Note_on_c, 0, 69, 0
2, 100228, Note_on_c, 0, 62, 0
2, 100236, Note_on_c, 0, 78, 56
2, 100238, Note_on_c, 0, 69, 76
2, 100238, Note_on_c, 0, 74, 69
2, 100241, Note_on_c, 0, 62, 49
2, 100261, Note_on_c, 0, 69, 0
2, 100263, Note_on_c, 0, 74, 0
2, 100264, Note_on_c, 0, 78, 0
2, 100264, Note_on_c, 0, 62, 0
2, 100292, Note_on_c, 0, 48, 39
2, 100299, Note_on_c, 0, 48, 0
2, 100318, Note_on_c, 0, 78, 79
2, 100319, Note_on_c, 0, 69, 92
2, 100319, Note_on_c, 0, 74, 83
2, 100326, Note_on_c, 0, 59, 42
2, 100327, Note_on_c, 0, 57, 53
2, 100333, Note_on_c, 0, 57, 0
2, 100367, Note_on_c, 0, 59, 0
2, 100379, Note_on_c, 0, 74, 0
2, 100379, Note_on_c, 0, 78, 0
2, 100380, Note_on_c, 0, 69, 0
2, 100398, Note_on_c, 0, 78, 70
2, 100401, Note_on_c, 0, 69, 77
2, 100403, Note_on_c, 0, 74, 55
2, 100407, Note_on_c, 0, 57, 35
2, 100412, Note_on_c, 0, 74, 0
2, 100415, Note_on_c, 0, 57, 0
2, 100418, Note_on_c, 0, 69, 0
2, 100419, Note_on_c, 0, 78, 0
2, 100520, Note_on_c, 0, 56, 31
2, 100527, Note_on_c, 0, 56, 0
2, 100557, Note_on_c, 0, 83, 91
2, 100557, Note_on_c, 0, 88, 90
2, 100557, Note_on_c, 0, 76, 94
2, 100558, Note_on_c, 0, 62, 83
2, 100559, Note_on_c, 0, 67, 92
2, 100559, Note_on_c, 0, 56, 80
2, 100563, Note_on_c, 0, 86, 44
2, 100570, Note_on_c, 0, 86, 0
2, 100628, Note_on_c, 0, 83, 0
2, 100628, Note_on_c, 0, 88, 0
2, 100631, Note_on_c, 0, 67, 0
2, 100636, Note_on_c, 0, 56, 0
2, 100638, Note_on_c, 0, 76, 0
2, 100640, Note_on_c, 0, 62, 0
2, 100755, Note_on_c, 0, 62, 71
2, 100756, Note_on_c, 0, 56, 71
2, 100758, Note_on_c, 0, 67, 74
2, 100759, Note_on_c, 0, 86, 95
2, 100760, Note_on_c, 0, 74, 91
2, 100761, Note_on_c, 0, 79, 68
2, 100763, Note_on_c, 0, 83, 64
2, 100765, Note_on_c, 0, 77, 36
2, 100769, Note_on_c, 0, 83, 0
2, 100774, Note_on_c, 0, 77, 0
2, 100774, Note_on_c, 0, 67, 0
2, 100784, Note_on_c, 0, 62, 0
2, 100784, Note_on_c, 0, 79, 0
2, 100786, Note_on_c, 0, 86, 0
2, 100787, Note_on_c, 0, 74, 0
2, 100794, Note_on_c, 0, 56, 0
2, 100807, Note_on_c, 0, 83, 60
2, 100809, Note_on_c, 0, 55, 62
2, 100810, Note_on_c, 0, 57, 63
2, 100811, Note_on_c, 0, 76, 45
2, 100811, Note_on_c, 0, 64, 62
2, 100811, Note_on_c, 0, 71, 46
2, 100813, Note_on_c, 0, 79, 49
2, 100818, Note_on_c, 0, 60, 36
2, 100853, Note_on_c, 0, 76, 0
2, 100854, Note_on_c, 0, 71, 0
2, 100861, Note_on_c, 0, 83, 0
2, 100862, Note_on_c, 0, 79, 0
2, 100863, Note_on_c, 0, 55, 0
2, 100866, Note_on_c, 0, 60, 0
2, 100868, Note_on_c, 0, 64, 0
2, 100869, Note_on_c, 0, 57, 0
2, 100887, Note_on_c, 0, 74, 90
2, 100887, Note_on_c, 0, 86, 94
2, 100888, Note_on_c, 0, 79, 79
2, 100889, Note_on_c, 0, 55, 71
2, 100889, Note_on_c, 0, 64, 70
2, 100889, Note_on_c, 0, 83, 68
2, 100890, Note_on_c, 0, 57, 60
2, 100891, Note_on_c, 0, 60, 71
2, 100910, Note_on_c, 0, 83, 0
2, 100915, Note_on_c, 0, 86, 0
2, 100915, Note_on_c, 0, 55, 0
2, 100917, Note_on_c, 0, 79, 0
2, 100919, Note_on_c, 0, 64, 0
2, 100920, Note_on_c, 0, 60, 0
2, 100920, Note_on_c, 0, 74, 0
2, 100924, Note_on_c, 0, 57, 0
2, 100933, Note_on_c, 0, 55, 55
2, 100935, Note_on_c, 0, 64, 52
2, 100935, Note_on_c, 0, 84, 62
2, 100936, Note_on_c, 0, 57, 39
2, 100937, Note_on_c, 0, 60, 54
2, 100939, Note_on_c, 0, 79, 32
2, 100939, Note_on_c, 0, 72, 40
2, 100943, Note_on_c, 0, 77, 33
2, 100967, Note_on_c, 0, 84, 0
2, 100968, Note_on_c, 0, 79, 0
2, 100971, Note_on_c, 0, 77, 0
2, 100979, Note_on_c, 0, 55, 0
2, 100982, Note_on_c, 0, 64, 0
2, 100983, Note_on_c, 0, 60, 0
2, 100984, Note_on_c, 0, 72, 0
2, 100985, Note_on_c, 0, 57, 0
2, 101005, Note_on_c, 0, 83, 57
2, 101006, Note_on_c, 0, 55, 61
2, 101008, Note_on_c, 0, 77, 47
2, 101009, Note_on_c, 0, 64, 44
2, 101009, Note_on_c, 0, 71, 68
2, 101010, Note_on_c, 0, 60, 51
2, 101022, Note_on_c, 0, 64, 0
2, 101023, Note_on_c, 0, 55, 0
2, 101032, Note_on_c, 0, 83, 0
2, 101032, Note_on_c, 0, 60, 0
2, 101033, Note_on_c, 0, 71, 0
2, 101035, Note_on_c, 0, 77, 0
2, 101050, Note_on_c, 0, 54, 51
2, 101051, Note_on_c, 0, 64, 44
2, 101051, Note_on_c, 0, 81, 55
2, 101053, Note_on_c, 0, 60, 36
2, 101055, Note_on_c, 0, 76, 51
2, 101057, Note_on_c, 0, 69, 42
2, 101119, Note_on_c, 0, 81, 0
2, 101122, Note_on_c, 0, 64, 0
2, 101124, Note_on_c, 0, 76, 0
2, 101128, Note_on_c, 0, 54, 0
2, 101132, Note_on_c, 0, 69, 0
2, 101135, Note_on_c, 0, 60, 0
2, 101151, Note_on_c, 0, 79, 55
2, 101152, Note_on_c, 0, 74, 61
2, 101153, Note_on_c, 0, 54, 50
2, 101154, Note_on_c, 0, 67, 51
2, 101157, Note_on_c, 0, 60, 40
2, 101157, Note_on_c, 0, 64, 36
2, 101195, Note_on_c, 0, 60, 0
2, 101203, Note_on_c, 0, 74, 0
2, 101204, Note_on_c, 0, 54, 0
2, 101208, Note_on_c, 0, 79, 0
2, 101238, Note_on_c, 0, 67, 0
2, 101249, Note_on_c, 0, 64, 0
2, 101270, Note_on_c, 0, 78, 57
2, 101271, Note_on_c, 0, 57, 57
2, 101272, Note_on_c, 0, 74, 58
2, 101272, Note_on_c, 0, 66, 60
2, 101274, Note_on_c, 0, 72, 41
2, 101274, Note_on_c, 0, 62, 47
2, 101279, Control_c, 0, 64, 127
2, 101335, Note_on_c, 0, 57, 0
2, 101341, Note_on_c, 0, 72, 0
2, 101344, Note_on_c, 0, 66, 0
2, 101345, Note_on_c, 0, 74, 0
2, 101347, Note_on_c, 0, 62, 0
2, 101352, Note_on_c, 0, 78, 0
2, 101392, Note_on_c, 0, 77, 81
2, 101392, Note_on_c, 0, 72, 82
2, 101392, Note_on_c, 0, 62, 80
2, 101393, Note_on_c, 0, 56, 76
2, 101394, Note_on_c, 0, 65, 89
2, 101395, Control_c, 0, 64, 0
2, 101443, Control_c, 0, 64, 127
2, 101446, Note_on_c, 0, 62, 0
2, 101467, Note_on_c, 0, 56, 0
2, 101473, Note_on_c, 0, 77, 0
2, 101474, Note_on_c, 0, 72, 0
2, 101483, Note_on_c, 0, 65, 0
2, 101514, Note_on_c, 0, 76, 74
2, 101515, Note_on_c, 0, 71, 72
2, 101516, Note_on_c, 0, 55, 66
2, 101517, Note_on_c, 0, 60, 64
2, 101517, Note_on_c, 0, 64, 53
2, 101517, Control_c, 0, 64, 0
2, 101556, Note_on_c, 0, 60, 0
2, 101556, Control_c, 0, 64, 127
2, 101559, Note_on_c, 0, 55, 0
2, 101576, Note_on_c, 0, 76, 0
2, 101580, Note_on_c, 0, 71, 0
2, 101590, Note_on_c, 0, 64, 0
2, 101635, Control_c, 0, 64, 0
2, 101637, Note_on_c, 0, 75, 70
2, 101638, Note_on_c, 0, 54, 56
2, 101638, Note_on_c, 0, 70, 74
2, 101639, Note_on_c, 0, 63, 65
2, 101639, Note_on_c, 0, 60, 62
2, 101663, Note_on_c, 0, 60, 0
2, 101672, Control_c, 0, 64, 127
2, 101678, Note_on_c, 0, 54, 0
2, 101690, Note_on_c, 0, 63, 0
2, 101690, Note_on_c, 0, 70, 0
2, 101699, Note_on_c, 0, 75, 0
2, 101753, Control_c, 0, 64, 0
2, 101757, Note_on_c, 0, 74, 65
2, 101759, Note_on_c, 0, 62, 76
2, 101759, Note_on_c, 0, 54, 64
2, 101759, Note_on_c, 0, 66, 72
2, 101783, Note_on_c, 0, 74, 0
2, 101786, Note_on_c, 0, 66, 0
2, 101793, Note_on_c, 0, 62, 0
2, 101796, Note_on_c, 0, 54, 0
2, 101843, Note_on_c, 0, 54, 76
2, 101843, Note_on_c, 0, 69, 74
2, 101845, Note_on_c, 0, 62, 83
2, 101845, Note_on_c, 0, 59, 82
2, 101846, Note_on_c, 0, 66, 67
2, 101874, Note_on_c, 0, 66, 0
2, 101876, Note_on_c, 0, 59, 0
2, 101880, Note_on_c, 0, 62, 0
2, 101883, Note_on_c, 0, 54, 0
2, 101884, Note_on_c, 0, 69, 0
2, 101895, Note_on_c, 0, 66, 57
2, 101896, Note_on_c, 0, 52, 46
2, 101897, Note_on_c, 0, 59, 52
2, 101899, Note_on_c, 0, 62, 62
2, 101945, Note_on_c, 0, 52, 0
2, 101953, Note_on_c, 0, 62, 0
2, 101957, Note_on_c, 0, 59, 0
2, 101970, Note_on_c, 0, 66, 0
2, 101973, Note_on_c, 0, 51, 47
2, 101996, Note_on_c, 0, 51, 0
2, 102007, Note_on_c, 0, 69, 82
2, 102007, Note_on_c, 0, 57, 79
2, 102008, Note_on_c, 0, 58, 81
2, 102008, Note_on_c, 0, 66, 63
2, 102008, Note_on_c, 0, 62, 85
2, 102073, Note_on_c, 0, 58, 0
2, 102075, Note_on_c, 0, 69, 0
2, 102077, Note_on_c, 0, 62, 0
2, 102092, Note_on_c, 0, 58, 67
2, 102094, Note_on_c, 0, 67, 69
2, 102095, Note_on_c, 0, 62, 77
2, 102100, Note_on_c, 0, 55, 56
2, 102102, Note_on_c, 0, 57, 0
2, 102206, Note_on_c, 0, 58, 0
2, 102207, Note_on_c, 0, 55, 0
2, 102211, Note_on_c, 0, 62, 0
2, 102212, Note_on_c, 0, 67, 0
2, 102221, Note_on_c, 0, 66, 0
2, 102238, Note_on_c, 0, 66, 49
2, 102238, Note_on_c, 0, 62, 69
2, 102239, Note_on_c, 0, 69, 71
2, 102240, Note_on_c, 0, 57, 58
2, 102292, Note_on_c, 0, 69, 0
2, 102293, Note_on_c, 0, 57, 0
2, 102310, Note_on_c, 0, 66, 0
2, 102314, Note_on_c, 0, 62, 0
2, 102323, Note_on_c, 0, 47, 57
2, 102341, Note_on_c, 0, 47, 0
2, 102411, Note_on_c, 0, 56, 61
2, 102412, Note_on_c, 0, 62, 68
2, 102417, Note_on_c, 0, 64, 55
2, 102426, Note_on_c, 0, 56, 0
2, 102430, Note_on_c, 0, 64, 0
2, 102431, Note_on_c, 0, 62, 0
2, 102452, Note_on_c, 0, 33, 59
2, 102461, Note_on_c, 0, 33, 0
2, 102489, Note_on_c, 0, 64, 65
2, 102490, Note_on_c, 0, 55, 70
2, 102490, Note_on_c, 0, 60, 71
2, 102507, Note_on_c, 0, 55, 0
2, 102517, Note_on_c, 0, 60, 0
2, 102520, Note_on_c, 0, 64, 0
2, 102563, Note_on_c, 0, 59, 68
2, 102563, Note_on_c, 0, 64, 81
2, 102563, Note_on_c, 0, 71, 74
2, 102564, Note_on_c, 0, 67, 74
2, 102565, Note_on_c, 0, 60, 83
2, 102589, Note_on_c, 0, 60, 0
2, 102589, Note_on_c, 0, 64, 0
2, 102589, Note_on_c, 0, 67, 0
2, 102592, Note_on_c, 0, 59, 0
2, 102599, Note_on_c, 0, 71, 0
2, 102615, Note_on_c, 0, 69, 66
2, 102616, Note_on_c, 0, 66, 60
2, 102616, Note_on_c, 0, 63, 58
2, 102617, Note_on_c, 0, 60, 65
2, 102618, Note_on_c, 0, 57, 60
2, 102649, Note_on_c, 0, 60, 0
2, 102652, Note_on_c, 0, 57, 0
2, 102654, Note_on_c, 0, 66, 0
2, 102656, Note_on_c, 0, 63, 0
2, 102657, Note_on_c, 0, 69, 0
2, 102682, Note_on_c, 0, 54, 46
2, 102714, Note_on_c, 0, 54, 0
2, 102720, Note_on_c, 0, 67, 64
2, 102722, Note_on_c, 0, 55, 61
2, 102723, Note_on_c, 0, 64, 50
2, 102723, Note_on_c, 0, 62, 53
2, 102732, Control_c, 0, 64, 127
2, 102738, Note_on_c, 0, 62, 0
2, 102739, Note_on_c, 0, 55, 0
2, 102748, Note_on_c, 0, 64, 0
2, 102756, Note_on_c, 0, 67, 0
2, 102804, Control_c, 0, 64, 0
2, 102835, Note_on_c, 0, 81, 59
2, 102856, Note_on_c, 0, 82, 50
2, 102868, Note_on_c, 0, 81, 0
2, 102870, Note_on_c, 0, 82, 0
2, 102870, Note_on_c, 0, 83, 61
2, 102890, Note_on_c, 0, 83, 0
2, 102906, Note_on_c, 0, 86, 95
2, 102908, Note_on_c, 0, 74, 90
2, 102933, Note_on_c, 0, 74, 0
2, 102935, Note_on_c, 0, 86, 0
2, 102953, Note_on_c, 0, 86, 82
2, 102955, Note_on_c, 0, 74, 81
2, 102977, Note_on_c, 0, 74, 0
2, 102978, Note_on_c, 0, 86, 0
2, 102998, Note_on_c, 0, 86, 77
2, 103001, Note_on_c, 0, 74, 69
2, 103018, Note_on_c, 0, 74, 0
2, 103021, Note_on_c, 0, 86, 0
2, 103042, Note_on_c, 0, 86, 80
2, 103044, Note_on_c, 0, 74, 80
2, 103066, Note_on_c, 0, 74, 0
2, 103067, Note_on_c, 0, 86, 0
2, 103084, Note_on_c, 0, 65, 59
2, 103084, Note_on_c, 0, 86, 76
2, 103087, Note_on_c, 0, 74, 68
2, 103088, Note_on_c, 0, 60, 43
2, 103093, Note_on_c, 0, 55, 24
2, 103096, Note_on_c, 0, 65, 0
2, 103097, Note_on_c, 0, 60, 0
2, 103100, Note_on_c, 0, 55, 0
2, 103107, Note_on_c, 0, 74, 0
2, 103112, Note_on_c, 0, 86, 0
2, 103123, Note_on_c, 0, 79, 62
2, 103143, Note_on_c, 0, 79, 0
2, 103152, Note_on_c, 0, 74, 56
2, 103174, Note_on_c, 0, 74, 0
2, 103190, Note_on_c, 0, 71, 40
2, 103198, Note_on_c, 0, 71, 0
2, 103212, Note_on_c, 0, 57, 31
2, 103217, Note_on_c, 0, 84, 88
2, 103225, Note_on_c, 0, 57, 0
2, 103244, Note_on_c, 0, 84, 0
2, 103255, Note_on_c, 0, 81, 68
2, 103277, Note_on_c, 0, 81, 0
2, 103284, Note_on_c, 0, 77, 60
2, 103306, Note_on_c, 0, 77, 0
2, 103317, Note_on_c, 0, 72, 41
2, 103322, Note_on_c, 0, 57, 33
2, 103323, Note_on_c, 0, 60, 34
2, 103325, Note_on_c, 0, 53, 24
2, 103325, Note_on_c, 0, 64, 16
2, 103331, Note_on_c, 0, 72, 0
2, 103342, Note_on_c, 0, 64, 0
2, 103347, Note_on_c, 0, 79, 78
2, 103356, Note_on_c, 0, 60, 0
2, 103367, Note_on_c, 0, 57, 0
2, 103373, Note_on_c, 0, 53, 0
2, 103378, Note_on_c, 0, 79, 0
2, 103383, Note_on_c, 0, 75, 43
2, 103398, Note_on_c, 0, 75, 0
2, 103407, Note_on_c, 0, 77, 71
2, 103434, Note_on_c, 0, 77, 0
2, 103445, Note_on_c, 0, 73, 30
2, 103453, Note_on_c, 0, 73, 0
2, 103467, Note_on_c, 0, 76, 80
2, 103497, Note_on_c, 0, 76, 0
2, 103499, Note_on_c, 0, 74, 65
2, 103519, Note_on_c, 0, 74, 0
2, 103532, Note_on_c, 0, 69, 26
2, 103538, Note_on_c, 0, 69, 0
2, 103567, Note_on_c, 0, 64, 31
2, 103569, Note_on_c, 0, 59, 42
2, 103574, Note_on_c, 0, 53, 22
2, 103579, Note_on_c, 0, 72, 70
2, 103602, Note_on_c, 0, 72, 0
2, 103609, Note_on_c, 0, 64, 0
2, 103617, Note_on_c, 0, 59, 0
2, 103621, Note_on_c, 0, 70, 81
2, 103622, Note_on_c, 0, 53, 0
2, 103645, Note_on_c, 0, 70, 0
2, 103656, Note_on_c, 0, 71, 83
2, 103667, Note_on_c, 0, 62, 37
2, 103670, Note_on_c, 0, 55, 38
2, 103670, Note_on_c, 0, 59, 30
2, 103671, Note_on_c, 0, 52, 29
2, 103682, Note_on_c, 0, 71, 0
2, 103684, Note_on_c, 0, 62, 0
2, 103688, Note_on_c, 0, 59, 0
2, 103697, Note_on_c, 0, 67, 61
2, 103749, Note_on_c, 0, 55, 0
2, 103753, Note_on_c, 0, 67, 0
2, 103762, Note_on_c, 0, 64, 60
2, 103782, Note_on_c, 0, 64, 0
2, 103798, Note_on_c, 0, 52, 0
2, 103802, Note_on_c, 0, 64, 47
2, 103861, Note_on_c, 0, 64, 0
2, 103881, Note_on_c, 0, 64, 53
2, 103902, Note_on_c, 0, 64, 0
2, 103920, Note_on_c, 0, 48, 38
2, 103920, Note_on_c, 0, 66, 56
2, 103923, Note_on_c, 0, 57, 25
2, 103951, Note_on_c, 0, 66, 0
2, 103958, Note_on_c, 0, 69, 64
2, 103990, Note_on_c, 0, 69, 0
2, 103996, Note_on_c, 0, 62, 66
2, 104056, Note_on_c, 0, 48, 0
2, 104116, Note_on_c, 0, 48, 35
2, 104126, Note_on_c, 0, 57, 0
2, 104130, Note_on_c, 0, 48, 0
2, 104159, Note_on_c, 0, 57, 36
2, 104160, Note_on_c, 0, 47, 38
2, 104241, Note_on_c, 0, 53, 39
2, 104243, Note_on_c, 0, 62, 0
2, 104245, Note_on_c, 0, 57, 0
2, 104258, Note_on_c, 0, 47, 0
2, 104259, Note_on_c, 0, 53, 0
2, 104276, Note_on_c, 0, 66, 73
2, 104304, Note_on_c, 0, 66, 0
2, 104344, Note_on_c, 0, 62, 66
2, 104378, Note_on_c, 0, 66, 70
2, 104382, Note_on_c, 0, 62, 0
2, 104394, Note_on_c, 0, 66, 0
2, 104408, Note_on_c, 0, 69, 82
2, 104428, Note_on_c, 0, 69, 0
2, 104440, Note_on_c, 0, 74, 79
2, 104462, Note_on_c, 0, 74, 0
2, 104472, Note_on_c, 0, 78, 77
2, 104492, Note_on_c, 0, 78, 0
2, 104504, Note_on_c, 0, 77, 85
2, 104528, Note_on_c, 0, 77, 0
2, 104536, Note_on_c, 0, 67, 33
2, 104537, Note_on_c, 0, 76, 67
2, 104540, Note_on_c, 0, 56, 21
2, 104541, Note_on_c, 0, 62, 32
2, 104558, Note_on_c, 0, 67, 0
2, 104563, Note_on_c, 0, 76, 0
2, 104568, Note_on_c, 0, 74, 69
2, 104577, Note_on_c, 0, 62, 0
2, 104590, Note_on_c, 0, 74, 0
2, 104602, Note_on_c, 0, 71, 24
2, 104629, Note_on_c, 0, 56, 0
2, 104646, Note_on_c, 0, 71, 0
2, 104654, Note_on_c, 0, 74, 70
2, 104657, Note_on_c, 0, 57, 24
2, 104659, Note_on_c, 0, 55, 30
2, 104659, Note_on_c, 0, 64, 27
2, 104661, Note_on_c, 0, 60, 40
2, 104687, Note_on_c, 0, 74, 0
2, 104696, Note_on_c, 0, 71, 32
2, 104706, Note_on_c, 0, 71, 0
2, 104707, Note_on_c, 0, 60, 0
2, 104714, Note_on_c, 0, 64, 0
2, 104722, Note_on_c, 0, 72, 59
2, 104733, Note_on_c, 0, 55, 0
2, 104735, Note_on_c, 0, 57, 0
2, 104743, Note_on_c, 0, 72, 0
2, 104757, Note_on_c, 0, 74, 78
2, 104761, Note_on_c, 0, 71, 34
2, 104770, Note_on_c, 0, 71, 0
2, 104773, Note_on_c, 0, 74, 0
2, 104774, Note_on_c, 0, 64, 29
2, 104779, Note_on_c, 0, 60, 48
2, 104782, Note_on_c, 0, 57, 25
2, 104786, Note_on_c, 0, 55, 17
2, 104790, Note_on_c, 0, 69, 48
2, 104791, Note_on_c, 0, 71, 50
2, 104799, Note_on_c, 0, 69, 0
2, 104827, Note_on_c, 0, 71, 0
2, 104834, Note_on_c, 0, 60, 0
2, 104838, Note_on_c, 0, 64, 0
2, 104852, Note_on_c, 0, 55, 0
2, 104855, Note_on_c, 0, 57, 0
2, 104969, Note_on_c, 0, 64, 55
2, 104970, Note_on_c, 0, 60, 54
2, 104976, Note_on_c, 0, 60, 0
2, 104976, Note_on_c, 0, 64, 0
2, 105013, Note_on_c, 0, 69, 38
2, 105031, Note_on_c, 0, 69, 0
2, 105052, Note_on_c, 0, 70, 80
2, 105071, Note_on_c, 0, 70, 0
2, 105088, Note_on_c, 0, 71, 92
2, 105117, Note_on_c, 0, 71, 0
2, 105126, Note_on_c, 0, 43, 34
2, 105134, Note_on_c, 0, 67, 40
2, 105135, Note_on_c, 0, 43, 0
2, 105172, Note_on_c, 0, 67, 0
2, 105206, Note_on_c, 0, 67, 55
2, 105228, Note_on_c, 0, 67, 0
2, 105252, Note_on_c, 0, 68, 57
2, 105256, Note_on_c, 0, 65, 49
2, 105263, Note_on_c, 0, 65, 0
2, 105318, Note_on_c, 0, 68, 0
2, 105326, Note_on_c, 0, 69, 67
2, 105328, Note_on_c, 0, 53, 35
2, 105328, Note_on_c, 0, 65, 47
2, 105329, Note_on_c, 0, 64, 36
2, 105331, Note_on_c, 0, 59, 48
2, 105372, Control_c, 0, 64, 127
2, 105374, Note_on_c, 0, 64, 0
2, 105377, Note_on_c, 0, 59, 0
2, 105383, Note_on_c, 0, 69, 0
2, 105384, Note_on_c, 0, 53, 0
2, 105400, Note_on_c, 0, 65, 0
2, 105445, Note_on_c, 0, 71, 58
2, 105445, Note_on_c, 0, 53, 58
2, 105446, Note_on_c, 0, 68, 48
2, 105446, Note_on_c, 0, 76, 64
2, 105447, Note_on_c, 0, 63, 50
2, 105447, Note_on_c, 0, 65, 60
2, 105448, Note_on_c, 0, 59, 58
2, 105452, Control_c, 0, 64, 0
2, 105483, Control_c, 0, 64, 127
2, 105489, Note_on_c, 0, 59, 0
2, 105492, Note_on_c, 0, 63, 0
2, 105492, Note_on_c, 0, 65, 0
2, 105497, Note_on_c, 0, 68, 0
2, 105497, Note_on_c, 0, 53, 0
2, 105508, Note_on_c, 0, 71, 0
2, 105513, Note_on_c, 0, 76, 0
2, 105595, Control_c, 0, 64, 0
2, 105602, Note_on_c, 0, 60, 47
2, 105604, Note_on_c, 0, 84, 66
2, 105604, Note_on_c, 0, 57, 41
2, 105606, Note_on_c, 0, 79, 44
2, 105608, Note_on_c, 0, 52, 33
2, 105608, Note_on_c, 0, 72, 24
2, 105609, Note_on_c, 0, 55, 51
2, 105626, Note_on_c, 0, 72, 0
2, 105627, Note_on_c, 0, 79, 0
2, 105628, Note_on_c, 0, 60, 0
2, 105629, Note_on_c, 0, 57, 0
2, 105629, Note_on_c, 0, 55, 0
2, 105632, Note_on_c, 0, 84, 0
2, 105632, Note_on_c, 0, 52, 0
2, 105723, Note_on_c, 0, 60, 64
2, 105724, Note_on_c, 0, 55, 63
2, 105724, Note_on_c, 0, 79, 69
2, 105724, Note_on_c, 0, 72, 68
2, 105724, Note_on_c, 0, 57, 58
2, 105725, Note_on_c, 0, 52, 57
2, 105725, Note_on_c, 0, 84, 74
2, 105732, Note_on_c, 0, 52, 0
2, 105733, Note_on_c, 0, 55, 0
2, 105734, Note_on_c, 0, 60, 0
2, 105735, Note_on_c, 0, 57, 0
2, 105736, Note_on_c, 0, 72, 0
2, 105739, Note_on_c, 0, 79, 0
2, 105740, Note_on_c, 0, 84, 0
2, 105813, Note_on_c, 0, 57, 51
2, 105820, Note_on_c, 0, 57, 0
2, 105847, Note_on_c, 0, 72, 87
2, 105847, Note_on_c, 0, 79, 80
2, 105847, Note_on_c, 0, 84, 88
2, 105848, Note_on_c, 0, 57, 74
2, 105848, Note_on_c, 0, 64, 87
2, 105849, Note_on_c, 0, 55, 76
2, 105851, Note_on_c, 0, 60, 66
2, 105856, Control_c, 0, 64, 127
2, 105892, Note_on_c, 0, 72, 0
2, 105893, Note_on_c, 0, 55, 0
2, 105896, Note_on_c, 0, 84, 0
2, 105899, Note_on_c, 0, 64, 0
2, 105901, Note_on_c, 0, 79, 0
2, 105901, Note_on_c, 0, 60, 0
2, 105903, Note_on_c, 0, 57, 0
2, 105926, Note_on_c, 0, 86, 96
2, 105927, Note_on_c, 0, 79, 85
2, 105928, Note_on_c, 0, 74, 89
2, 105928, Note_on_c, 0, 64, 88
2, 105928, Note_on_c, 0, 57, 80
2, 105929, Note_on_c, 0, 55, 82
2, 105929, Note_on_c, 0, 60, 79
2, 105952, Note_on_c, 0, 55, 0
2, 105953, Note_on_c, 0, 86, 0
2, 105954, Note_on_c, 0, 64, 0
2, 105954, Note_on_c, 0, 74, 0
2, 105957, Note_on_c, 0, 60, 0
2, 105958, Note_on_c, 0, 79, 0
2, 105959, Note_on_c, 0, 57, 0
2, 105964, Control_c, 0, 64, 0
2, 105970, Note_on_c, 0, 64, 71
2, 105970, Note_on_c, 0, 79, 73
2, 105970, Note_on_c, 0, 55, 73
2, 105971, Note_on_c, 0, 57, 62
2, 105971, Note_on_c, 0, 60, 80
2, 105971, Note_on_c, 0, 84, 80
2, 105974, Note_on_c, 0, 72, 65
2, 105986, Control_c, 0, 64, 127
2, 106008, Note_on_c, 0, 79, 0
2, 106009, Note_on_c, 0, 84, 0
2, 106014, Note_on_c, 0, 72, 0
2, 106016, Note_on_c, 0, 55, 0
2, 106017, Note_on_c, 0, 64, 0
2, 106021, Note_on_c, 0, 57, 0
2, 106023, Note_on_c, 0, 60, 0
2, 106043, Note_on_c, 0, 83, 81
2, 106044, Note_on_c, 0, 55, 73
2, 106044, Note_on_c, 0, 60, 74
2, 106045, Note_on_c, 0, 64, 72
2, 106046, Note_on_c, 0, 77, 71
2, 106046, Note_on_c, 0, 71, 76
2, 106047, Note_on_c, 0, 78, 51
2, 106048, Note_on_c, 0, 57, 53
2, 106053, Note_on_c, 0, 78, 0
2, 106055, Note_on_c, 0, 57, 0
2, 106060, Note_on_c, 0, 64, 0
2, 106062, Note_on_c, 0, 55, 0
2, 106070, Note_on_c, 0, 77, 0
2, 106071, Note_on_c, 0, 83, 0
2, 106073, Note_on_c, 0, 71, 0
2, 106075, Note_on_c, 0, 60, 0
2, 106083, Note_on_c, 0, 60, 47
2, 106084, Control_c, 0, 64, 0
2, 106087, Note_on_c, 0, 53, 68
2, 106088, Note_on_c, 0, 64, 65
2, 106088, Note_on_c, 0, 81, 67
2, 106090, Note_on_c, 0, 76, 57
2, 106090, Note_on_c, 0, 57, 57
2, 106092, Note_on_c, 0, 69, 60
2, 106112, Control_c, 0, 64, 127
2, 106121, Note_on_c, 0, 81, 0
2, 106125, Note_on_c, 0, 76, 0
2, 106132, Note_on_c, 0, 69, 0
2, 106141, Note_on_c, 0, 64, 0
2, 106143, Note_on_c, 0, 53, 0
2, 106144, Note_on_c, 0, 57, 0
2, 106149, Note_on_c, 0, 60, 0
2, 106166, Note_on_c, 0, 77, 63
2, 106166, Note_on_c, 0, 53, 48
2, 106167, Note_on_c, 0, 57, 61
2, 106168, Note_on_c, 0, 60, 47
2, 106168, Note_on_c, 0, 64, 54
2, 106169, Note_on_c, 0, 72, 53
2, 106172, Note_on_c, 0, 65, 64
2, 106196, Note_on_c, 0, 64, 0
2, 106197, Note_on_c, 0, 72, 0
2, 106199, Note_on_c, 0, 77, 0
2, 106202, Note_on_c, 0, 65, 0
2, 106203, Note_on_c, 0, 60, 0
2, 106209, Control_c, 0, 64, 0
2, 106210, Note_on_c, 0, 77, 39
2, 106213, Note_on_c, 0, 72, 40
2, 106214, Note_on_c, 0, 64, 46
2, 106215, Note_on_c, 0, 60, 22
2, 106216, Note_on_c, 0, 65, 54
2, 106235, Control_c, 0, 64, 127
2, 106243, Note_on_c, 0, 72, 0
2, 106247, Note_on_c, 0, 60, 0
2, 106248, Note_on_c, 0, 64, 0
2, 106248, Note_on_c, 0, 77, 0
2, 106256, Note_on_c, 0, 53, 0
2, 106257, Note_on_c, 0, 57, 0
2, 106263, Note_on_c, 0, 65, 0
2, 106281, Note_on_c, 0, 76, 82
2, 106283, Note_on_c, 0, 69, 87
2, 106283, Note_on_c, 0, 73, 54
2, 106283, Note_on_c, 0, 61, 81
2, 106284, Note_on_c, 0, 65, 88
2, 106288, Note_on_c, 0, 75, 32
2, 106291, Control_c, 0, 64, 0
2, 106313, Note_on_c, 0, 75, 0
2, 106324, Control_c, 0, 64, 127
2, 106372, Note_on_c, 0, 73, 0
2, 106375, Note_on_c, 0, 65, 0
2, 106376, Note_on_c, 0, 61, 0
2, 106377, Note_on_c, 0, 69, 0
2, 106382, Note_on_c, 0, 76, 0
2, 106391, Note_on_c, 0, 74, 71
2, 106392, Note_on_c, 0, 69, 76
2, 106394, Note_on_c, 0, 60, 78
2, 106394, Note_on_c, 0, 65, 72
2, 106402, Control_c, 0, 64, 0
2, 106437, Control_c, 0, 64, 127
2, 106442, Note_on_c, 0, 65, 0
2, 106454, Note_on_c, 0, 69, 0
2, 106455, Note_on_c, 0, 60, 0
2, 106468, Note_on_c, 0, 74, 0
2, 106514, Note_on_c, 0, 60, 61
2, 106524, Note_on_c, 0, 60, 0
2, 106542, Control_c, 0, 64, 0
2, 106546, Note_on_c, 0, 93, 90
2, 106546, Note_on_c, 0, 53, 87
2, 106546, Note_on_c, 0, 87, 92
2, 106547, Note_on_c, 0, 60, 85
2, 106547, Note_on_c, 0, 64, 87
2, 106547, Note_on_c, 0, 81, 89
2, 106548, Note_on_c, 0, 57, 76
2, 106549, Note_on_c, 0, 90, 53
2, 106551, Note_on_c, 0, 62, 57
2, 106552, Note_on_c, 0, 91, 45
2, 106555, Note_on_c, 0, 90, 0
2, 106557, Note_on_c, 0, 62, 0
2, 106560, Note_on_c, 0, 91, 0
2, 106597, Note_on_c, 0, 88, 71
2, 106599, Note_on_c, 0, 87, 0
2, 106604, Note_on_c, 0, 64, 0
2, 106609, Note_on_c, 0, 60, 0
2, 106610, Note_on_c, 0, 57, 0
2, 106611, Note_on_c, 0, 81, 0
2, 106611, Note_on_c, 0, 93, 0
2, 106613, Note_on_c, 0, 88, 0
2, 106613, Note_on_c, 0, 53, 0
2, 106746, Note_on_c, 0, 77, 88
2, 106746, Note_on_c, 0, 85, 84
2, 106746, Note_on_c, 0, 53, 89
2, 106746, Note_on_c, 0, 89, 88
2, 106747, Note_on_c, 0, 59, 80
2, 106747, Note_on_c, 0, 64, 88
2, 106752, Note_on_c, 0, 79, 34
2, 106753, Note_on_c, 0, 86, 49
2, 106758, Note_on_c, 0, 79, 0
2, 106784, Note_on_c, 0, 77, 0
2, 106786, Note_on_c, 0, 85, 0
2, 106787, Note_on_c, 0, 64, 0
2, 106788, Note_on_c, 0, 89, 0
2, 106788, Note_on_c, 0, 86, 0
2, 106788, Note_on_c, 0, 53, 0
2, 106792, Note_on_c, 0, 59, 0
2, 106817, Note_on_c, 0, 77, 84
2, 106818, Note_on_c, 0, 85, 77
2, 106818, Note_on_c, 0, 89, 73
2, 106820, Note_on_c, 0, 64, 81
2, 106821, Note_on_c, 0, 53, 82
2, 106821, Note_on_c, 0, 59, 78
2, 106860, Note_on_c, 0, 86, 60
2, 106867, Note_on_c, 0, 86, 0
2, 106867, Note_on_c, 0, 85, 0
2, 106872, Note_on_c, 0, 53, 0
2, 106873, Note_on_c, 0, 77, 0
2, 106874, Note_on_c, 0, 89, 0
2, 106875, Note_on_c, 0, 64, 0
2, 106876, Note_on_c, 0, 59, 0
2, 106902, Note_on_c, 0, 88, 71
2, 106903, Note_on_c, 0, 64, 71
2, 106904, Note_on_c, 0, 83, 65
2, 106904, Note_on_c, 0, 59, 65
2, 106904, Note_on_c, 0, 76, 61
2, 106905, Note_on_c, 0, 53, 61
2, 106906, Control_c, 0, 64, 127
2, 106926, Note_on_c, 0, 76, 0
2, 106930, Note_on_c, 0, 83, 0
2, 106930, Note_on_c, 0, 53, 0
2, 106935, Note_on_c, 0, 88, 0
2, 106956, Note_on_c, 0, 59, 0
2, 106957, Note_on_c, 0, 64, 0
2, 106989, Note_on_c, 0, 93, 83
2, 106991, Note_on_c, 0, 88, 82
2, 106992, Note_on_c, 0, 81, 79
2, 106992, Note_on_c, 0, 64, 76
2, 106992, Note_on_c, 0, 53, 78
2, 106992, Note_on_c, 0, 59, 74
2, 107018, Note_on_c, 0, 59, 0
2, 107018, Note_on_c, 0, 88, 0
2, 107019, Note_on_c, 0, 53, 0
2, 107023, Note_on_c, 0, 93, 0
2, 107023, Note_on_c, 0, 64, 0
2, 107026, Note_on_c, 0, 81, 0
2, 107042, Control_c, 0, 64, 0
2, 107056, Note_on_c, 0, 91, 70
2, 107056, Note_on_c, 0, 64, 62
2, 107057, Note_on_c, 0, 55, 71
2, 107058, Note_on_c, 0, 60, 60
2, 107059, Note_on_c, 0, 79, 59
2, 107063, Note_on_c, 0, 84, 51
2, 107086, Control_c, 0, 64, 127
2, 107087, Note_on_c, 0, 84, 0
2, 107093, Note_on_c, 0, 91, 0
2, 107097, Note_on_c, 0, 79, 0
2, 107114, Note_on_c, 0, 60, 0
2, 107119, Note_on_c, 0, 64, 0
2, 107122, Note_on_c, 0, 55, 0
2, 107147, Control_c, 0, 64, 0
2, 107150, Note_on_c, 0, 88, 64
2, 107151, Note_on_c, 0, 81, 69
2, 107153, Note_on_c, 0, 55, 71
2, 107154, Note_on_c, 0, 76, 58
2, 107154, Note_on_c, 0, 84, 55
2, 107154, Note_on_c, 0, 64, 64
2, 107155, Note_on_c, 0, 60, 64
2, 107159, Note_on_c, 0, 86, 34
2, 107168, Control_c, 0, 64, 127
2, 107172, Note_on_c, 0, 86, 0
2, 107172, Note_on_c, 0, 84, 0
2, 107172, Note_on_c, 0, 88, 0
2, 107177, Note_on_c, 0, 81, 0
2, 107180, Note_on_c, 0, 64, 0
2, 107180, Note_on_c, 0, 60, 0
2, 107181, Note_on_c, 0, 76, 0
2, 107188, Note_on_c, 0, 55, 0
2, 107235, Note_on_c, 0, 56, 79
2, 107236, Note_on_c, 0, 71, 66
2, 107237, Note_on_c, 0, 67, 63
2, 107237, Note_on_c, 0, 70, 46
2, 107238, Note_on_c, 0, 62, 71
2, 107239, Note_on_c, 0, 65, 68
2, 107241, Control_c, 0, 64, 0
2, 107245, Note_on_c, 0, 65, 0
2, 107260, Note_on_c, 0, 70, 0
2, 107262, Note_on_c, 0, 62, 0
2, 107270, Note_on_c, 0, 67, 0
2, 107277, Note_on_c, 0, 71, 0
2, 107288, Note_on_c, 0, 59, 75
2, 107288, Note_on_c, 0, 74, 78
2, 107289, Note_on_c, 0, 65, 78
2, 107292, Note_on_c, 0, 56, 0
2, 107292, Note_on_c, 0, 70, 50
2, 107295, Control_c, 0, 64, 127
2, 107308, Note_on_c, 0, 65, 0
2, 107314, Note_on_c, 0, 70, 0
2, 107318, Note_on_c, 0, 74, 0
2, 107354, Note_on_c, 0, 59, 0
2, 107355, Note_on_c, 0, 77, 53
2, 107357, Note_on_c, 0, 68, 76
2, 107357, Note_on_c, 0, 62, 80
2, 107358, Control_c, 0, 64, 0
2, 107374, Note_on_c, 0, 68, 0
2, 107380, Note_on_c, 0, 77, 0
2, 107383, Note_on_c, 0, 62, 0
2, 107402, Note_on_c, 0, 65, 53
2, 107405, Control_c, 0, 64, 127
2, 107454, Note_on_c, 0, 65, 0
2, 107470, Note_on_c, 0, 68, 71
2, 107471, Note_on_c, 0, 86, 94
2, 107472, Note_on_c, 0, 80, 82
2, 107473, Note_on_c, 0, 83, 75
2, 107474, Note_on_c, 0, 74, 81
2, 107476, Note_on_c, 0, 76, 77
2, 107480, Note_on_c, 0, 84, 33
2, 107482, Note_on_c, 0, 76, 0
2, 107483, Note_on_c, 0, 68, 0
2, 107487, Note_on_c, 0, 84, 0
2, 107495, Note_on_c, 0, 83, 0
2, 107496, Note_on_c, 0, 74, 0
2, 107499, Note_on_c, 0, 86, 0
2, 107501, Note_on_c, 0, 80, 0
2, 107513, Control_c, 0, 64, 0
2, 107518, Note_on_c, 0, 64, 55
2, 107519, Note_on_c, 0, 55, 53
2, 107520, Note_on_c, 0, 60, 48
2, 107520, Note_on_c, 0, 84, 71
2, 107523, Note_on_c, 0, 81, 62
2, 107525, Note_on_c, 0, 72, 35
2, 107540, Note_on_c, 0, 57, 19
2, 107567, Note_on_c, 0, 81, 0
2, 107579, Note_on_c, 0, 60, 0
2, 107586, Note_on_c, 0, 72, 0
2, 107588, Note_on_c, 0, 64, 0
2, 107590, Note_on_c, 0, 57, 0
2, 107594, Note_on_c, 0, 84, 0
2, 107606, Note_on_c, 0, 55, 0
2, 107640, Note_on_c, 0, 64, 51
2, 107641, Note_on_c, 0, 57, 47
2, 107642, Note_on_c, 0, 72, 68
2, 107642, Note_on_c, 0, 84, 77
2, 107643, Note_on_c, 0, 60, 55
2, 107644, Note_on_c, 0, 81, 62
2, 107675, Note_on_c, 0, 72, 0
2, 107678, Note_on_c, 0, 81, 0
2, 107679, Note_on_c, 0, 84, 0
2, 107684, Note_on_c, 0, 64, 0
2, 107688, Note_on_c, 0, 60, 0
2, 107699, Note_on_c, 0, 57, 0
2, 107720, Note_on_c, 0, 84, 81
2, 107721, Note_on_c, 0, 64, 50
2, 107721, Note_on_c, 0, 72, 71
2, 107723, Note_on_c, 0, 57, 46
2, 107723, Note_on_c, 0, 60, 52
2, 107748, Note_on_c, 0, 72, 0
2, 107750, Note_on_c, 0, 57, 0
2, 107753, Note_on_c, 0, 84, 0
2, 107769, Note_on_c, 0, 81, 53
2, 107770, Note_on_c, 0, 55, 36
2, 107770, Note_on_c, 0, 72, 24
2, 107807, Note_on_c, 0, 55, 0
2, 107809, Note_on_c, 0, 72, 0
2, 107810, Note_on_c, 0, 81, 0
2, 107811, Note_on_c, 0, 60, 0
2, 107821, Note_on_c, 0, 64, 0
2, 107843, Note_on_c, 0, 81, 64
2, 107843, Note_on_c, 0, 72, 50
2, 107852, Note_on_c, 0, 72, 0
2, 107857, Note_on_c, 0, 81, 0
2, 107858, Note_on_c, 0, 55, 22
2, 107905, Note_on_c, 0, 55, 0
2, 107957, Note_on_c, 0, 54, 75
2, 107957, Note_on_c, 0, 80, 83
2, 107957, Note_on_c, 0, 72, 90
2, 107958, Note_on_c, 0, 64, 79
2, 107958, Note_on_c, 0, 84, 88
2, 107959, Note_on_c, 0, 60, 71
2, 107959, Note_on_c, 0, 78, 59
2, 107965, Note_on_c, 0, 78, 0
2, 107981, Note_on_c, 0, 81, 59
2, 107984, Note_on_c, 0, 83, 1
2, 107990, Note_on_c, 0, 80, 0
2, 107998, Note_on_c, 0, 83, 0
2, 107998, Note_on_c, 0, 84, 0
2, 107998, Note_on_c, 0, 72, 0
2, 107999, Note_on_c, 0, 81, 0
2, 108000, Note_on_c, 0, 64, 0
2, 108006, Note_on_c, 0, 54, 0
2, 108010, Note_on_c, 0, 60, 0
2, 108021, Note_on_c, 0, 81, 62
2, 108022, Note_on_c, 0, 54, 56
2, 108024, Note_on_c, 0, 77, 58
2, 108025, Note_on_c, 0, 69, 57
2, 108026, Note_on_c, 0, 64, 43
2, 108028, Note_on_c, 0, 60, 56
2, 108055, Control_c, 0, 64, 127
2, 108080, Note_on_c, 0, 77, 0
2, 108081, Note_on_c, 0, 64, 0
2, 108081, Note_on_c, 0, 69, 0
2, 108086, Note_on_c, 0, 60, 0
2, 108087, Note_on_c, 0, 81, 0
2, 108087, Note_on_c, 0, 54, 0
2, 108096, Control_c, 0, 64, 0
2, 108123, Note_on_c, 0, 64, 39
2, 108123, Note_on_c, 0, 54, 42
2, 108125, Note_on_c, 0, 60, 45
2, 108132, Note_on_c, 0, 64, 0
2, 108133, Note_on_c, 0, 60, 0
2, 108144, Note_on_c, 0, 54, 0
2, 108200, Note_on_c, 0, 78, 76
2, 108201, Note_on_c, 0, 66, 84
2, 108201, Note_on_c, 0, 51, 69
2, 108201, Note_on_c, 0, 62, 66
2, 108203, Note_on_c, 0, 57, 63
2, 108237, Note_on_c, 0, 57, 0
2, 108238, Note_on_c, 0, 62, 0
2, 108241, Note_on_c, 0, 66, 0
2, 108244, Note_on_c, 0, 51, 0
2, 108248, Note_on_c, 0, 78, 0
2, 108276, Note_on_c, 0, 78, 67
2, 108278, Note_on_c, 0, 51, 69
2, 108278, Note_on_c, 0, 66, 75
2, 108279, Note_on_c, 0, 57, 66
2, 108279, Note_on_c, 0, 62, 68
2, 108299, Control_c, 0, 64, 127
2, 108324, Note_on_c, 0, 62, 0
2, 108325, Note_on_c, 0, 78, 0
2, 108328, Note_on_c, 0, 57, 0
2, 108328, Note_on_c, 0, 66, 0
2, 108331, Note_on_c, 0, 51, 0
2, 108358, Control_c, 0, 64, 0
2, 108374, Control_c, 0, 64, 127
2, 108413, Control_c, 0, 64, 0
2, 108415, Note_on_c, 0, 67, 64
2, 108416, Note_on_c, 0, 79, 47
2, 108419, Note_on_c, 0, 51, 36
2, 108422, Note_on_c, 0, 67, 0
2, 108422, Note_on_c, 0, 57, 32
2, 108424, Control_c, 0, 64, 127
2, 108425, Note_on_c, 0, 79, 0
2, 108431, Note_on_c, 0, 57, 0
2, 108434, Note_on_c, 0, 51, 0
2, 108446, Note_on_c, 0, 51, 36
2, 108449, Note_on_c, 0, 81, 70
2, 108449, Note_on_c, 0, 62, 49
2, 108450, Note_on_c, 0, 69, 64
2, 108450, Note_on_c, 0, 57, 43
2, 108457, Note_on_c, 0, 69, 0
2, 108458, Note_on_c, 0, 57, 0
2, 108461, Note_on_c, 0, 62, 0
2, 108464, Note_on_c, 0, 81, 0
2, 108465, Note_on_c, 0, 51, 0
2, 108485, Control_c, 0, 64, 0
2, 108489, Note_on_c, 0, 83, 87
2, 108489, Note_on_c, 0, 55, 75
2, 108489, Note_on_c, 0, 62, 83
2, 108490, Note_on_c, 0, 71, 90
2, 108491, Note_on_c, 0, 59, 70
2, 108491, Note_on_c, 0, 52, 69
2, 108491, Note_on_c, 0, 76, 80
2, 108492, Note_on_c, 0, 79, 70
2, 108528, Control_c, 0, 64, 127
2, 108544, Note_on_c, 0, 52, 0
2, 108549, Note_on_c, 0, 76, 0
2, 108549, Note_on_c, 0, 62, 0
2, 108550, Note_on_c, 0, 71, 0
2, 108552, Note_on_c, 0, 79, 0
2, 108553, Note_on_c, 0, 59, 0
2, 108554, Note_on_c, 0, 83, 0
2, 108554, Note_on_c, 0, 55, 0
2, 108571, Note_on_c, 0, 83, 58
2, 108571, Note_on_c, 0, 62, 72
2, 108572, Note_on_c, 0, 59, 53
2, 108573, Note_on_c, 0, 55, 57
2, 108574, Note_on_c, 0, 71, 68
2, 108575, Note_on_c, 0, 79, 54
2, 108576, Note_on_c, 0, 76, 58
2, 108576, Note_on_c, 0, 52, 45
2, 108593, Note_on_c, 0, 52, 0
2, 108593, Note_on_c, 0, 76, 0
2, 108593, Note_on_c, 0, 62, 0
2, 108595, Note_on_c, 0, 59, 0
2, 108595, Note_on_c, 0, 79, 0
2, 108598, Note_on_c, 0, 71, 0
2, 108599, Note_on_c, 0, 55, 0
2, 108600, Note_on_c, 0, 83, 0
2, 108619, Note_on_c, 0, 83, 48
2, 108620, Note_on_c, 0, 62, 62
2, 108621, Note_on_c, 0, 55, 47
2, 108622, Note_on_c, 0, 59, 45
2, 108623, Note_on_c, 0, 71, 48
2, 108625, Note_on_c, 0, 76, 36
2, 108625, Note_on_c, 0, 79, 41
2, 108633, Note_on_c, 0, 79, 0
2, 108633, Note_on_c, 0, 59, 0
2, 108633, Note_on_c, 0, 71, 0
2, 108634, Note_on_c, 0, 76, 0
2, 108635, Note_on_c, 0, 62, 0
2, 108638, Note_on_c, 0, 83, 0
2, 108640, Note_on_c, 0, 55, 0
2, 108691, Note_on_c, 0, 62, 63
2, 108691, Note_on_c, 0, 52, 60
2, 108691, Note_on_c, 0, 55, 58
2, 108692, Note_on_c, 0, 83, 74
2, 108693, Note_on_c, 0, 76, 70
2, 108693, Note_on_c, 0, 59, 40
2, 108693, Note_on_c, 0, 71, 76
2, 108694, Note_on_c, 0, 79, 47
2, 108697, Note_on_c, 0, 52, 0
2, 108697, Note_on_c, 0, 62, 0
2, 108698, Note_on_c, 0, 55, 0
2, 108700, Note_on_c, 0, 59, 0
2, 108700, Note_on_c, 0, 76, 0
2, 108700, Note_on_c, 0, 79, 0
2, 108700, Note_on_c, 0, 71, 0
2, 108706, Note_on_c, 0, 83, 0
2, 108725, Control_c, 0, 64, 0
2, 108732, Note_on_c, 0, 55, 89
2, 108733, Note_on_c, 0, 73, 71
2, 108733, Note_on_c, 0, 65, 84
2, 108734, Note_on_c, 0, 61, 69
2, 108735, Note_on_c, 0, 80, 72
2, 108735, Note_on_c, 0, 85, 63
2, 108760, Note_on_c, 0, 85, 0
2, 108778, Note_on_c, 0, 73, 0
2, 108783, Note_on_c, 0, 65, 0
2, 108786, Note_on_c, 0, 80, 0
2, 108787, Note_on_c, 0, 55, 0
2, 108797, Note_on_c, 0, 61, 0
2, 108847, Control_c, 0, 64, 127
2, 108851, Note_on_c, 0, 61, 71
2, 108852, Note_on_c, 0, 65, 71
2, 108853, Note_on_c, 0, 73, 60
2, 108853, Note_on_c, 0, 85, 76
2, 108854, Note_on_c, 0, 55, 74
2, 108854, Note_on_c, 0, 80, 68
2, 108893, Note_on_c, 0, 73, 0
2, 108894, Note_on_c, 0, 80, 0
2, 108895, Note_on_c, 0, 85, 0
2, 108904, Note_on_c, 0, 65, 0
2, 108924, Note_on_c, 0, 61, 0
2, 108928, Note_on_c, 0, 55, 0
2, 108969, Control_c, 0, 64, 0
2, 108972, Note_on_c, 0, 57, 67
2, 108972, Note_on_c, 0, 55, 74
2, 108972, Note_on_c, 0, 64, 74
2, 108973, Note_on_c, 0, 60, 68
2, 108974, Note_on_c, 0, 86, 99
2, 108975, Note_on_c, 0, 74, 94
2, 109036, Note_on_c, 0, 74, 0
2, 109048, Note_on_c, 0, 86, 0
2, 109052, Note_on_c, 0, 74, 38
2, 109066, Note_on_c, 0, 74, 0
2, 109084, Note_on_c, 0, 64, 0
2, 109091, Note_on_c, 0, 60, 0
2, 109096, Note_on_c, 0, 88, 87
2, 109097, Note_on_c, 0, 84, 83
2, 109101, Note_on_c, 0, 55, 0
2, 109101, Note_on_c, 0, 57, 0
2, 109129, Note_on_c, 0, 84, 0
2, 109135, Note_on_c, 0, 88, 0
2, 109171, Note_on_c, 0, 86, 90
2, 109171, Note_on_c, 0, 82, 86
2, 109173, Note_on_c, 0, 50, 90
2, 109174, Note_on_c, 0, 49, 64
2, 109189, Note_on_c, 0, 49, 0
2, 109204, Note_on_c, 0, 82, 0
2, 109205, Note_on_c, 0, 86, 0
2, 109220, Note_on_c, 0, 86, 73
2, 109226, Note_on_c, 0, 83, 68
2, 109245, Note_on_c, 0, 86, 0
2, 109254, Note_on_c, 0, 83, 0
2, 109262, Note_on_c, 0, 79, 62
2, 109285, Note_on_c, 0, 79, 0
2, 109300, Note_on_c, 0, 74, 58
2, 109329, Note_on_c, 0, 74, 0
2, 109340, Note_on_c, 0, 79, 64
2, 109340, Note_on_c, 0, 72, 64
2, 109351, Note_on_c, 0, 50, 0
2, 109370, Note_on_c, 0, 79, 0
2, 109377, Note_on_c, 0, 72, 0
2, 109386, Note_on_c, 0, 67, 32
2, 109405, Note_on_c, 0, 67, 0
2, 109415, Note_on_c, 0, 70, 64
2, 109417, Note_on_c, 0, 73, 38
2, 109453, Note_on_c, 0, 70, 0
2, 109454, Note_on_c, 0, 73, 0
2, 109457, Note_on_c, 0, 74, 55
2, 109458, Note_on_c, 0, 71, 48
2, 109461, Note_on_c, 0, 62, 30
2, 109462, Note_on_c, 0, 55, 32
2, 109462, Note_on_c, 0, 59, 37
2, 109519, Note_on_c, 0, 71, 0
2, 109520, Note_on_c, 0, 74, 0
2, 109521, Control_c, 0, 64, 127
2, 109526, Note_on_c, 0, 59, 0
2, 109527, Note_on_c, 0, 62, 0
2, 109531, Note_on_c, 0, 76, 70
2, 109531, Note_on_c, 0, 64, 66
2, 109533, Note_on_c, 0, 71, 72
2, 109535, Note_on_c, 0, 67, 62
2, 109543, Control_c, 0, 64, 0
2, 109558, Note_on_c, 0, 67, 0
2, 109565, Note_on_c, 0, 71, 0
2, 109572, Note_on_c, 0, 76, 0
2, 109577, Note_on_c, 0, 64, 0
2, 109577, Note_on_c, 0, 62, 36
2, 109579, Note_on_c, 0, 55, 0
2, 109580, Note_on_c, 0, 74, 35
2, 109583, Note_on_c, 0, 71, 37
2, 109583, Note_on_c, 0, 67, 32
2, 109604, Note_on_c, 0, 62, 0
2, 109622, Control_c, 0, 64, 127
2, 109625, Note_on_c, 0, 67, 0
2, 109630, Note_on_c, 0, 71, 0
2, 109642, Note_on_c, 0, 74, 0
2, 109679, Control_c, 0, 64, 0
2, 109683, Note_on_c, 0, 70, 49
2, 109685, Note_on_c, 0, 76, 41
2, 109686, Note_on_c, 0, 64, 38
2, 109687, Note_on_c, 0, 48, 39
2, 109689, Note_on_c, 0, 58, 25
2, 109729, Control_c, 0, 64, 127
2, 109759, Control_c, 0, 64, 0
2, 109785, Note_on_c, 0, 48, 0
2, 109788, Control_c, 0, 64, 127
2, 109795, Note_on_c, 0, 64, 0
2, 109801, Note_on_c, 0, 58, 0
2, 109807, Note_on_c, 0, 70, 0
2, 109819, Note_on_c, 0, 76, 0
2, 109878, Note_on_c, 0, 74, 108
2, 109906, Note_on_c, 0, 74, 0
2, 109919, Control_c, 0, 64, 0
2, 109924, Note_on_c, 0, 66, 31
2, 109924, Note_on_c, 0, 62, 40
2, 109925, Note_on_c, 0, 57, 40
2, 109926, Note_on_c, 0, 74, 64
2, 109943, Note_on_c, 0, 75, 35
2, 109968, Note_on_c, 0, 74, 0
2, 109974, Note_on_c, 0, 75, 0
2, 109975, Note_on_c, 0, 76, 41
2, 109995, Note_on_c, 0, 76, 0
2, 110038, Note_on_c, 0, 57, 0
2, 110038, Note_on_c, 0, 74, 64
2, 110049, Note_on_c, 0, 62, 0
2, 110054, Note_on_c, 0, 66, 0
2, 110091, Note_on_c, 0, 74, 0
2, 110111, Note_on_c, 0, 65, 49
2, 110112, Note_on_c, 0, 56, 37
2, 110112, Note_on_c, 0, 62, 43
2, 110138, Note_on_c, 0, 65, 0
2, 110140, Note_on_c, 0, 62, 0
2, 110161, Note_on_c, 0, 56, 0
2, 110188, Note_on_c, 0, 55, 56
2, 110191, Note_on_c, 0, 64, 38
2, 110194, Note_on_c, 0, 60, 46
2, 110223, Note_on_c, 0, 64, 0
2, 110223, Note_on_c, 0, 55, 0
2, 110225, Note_on_c, 0, 60, 0
2, 110271, Note_on_c, 0, 64, 55
2, 110273, Note_on_c, 0, 54, 40
2, 110275, Note_on_c, 0, 60, 46
2, 110297, Note_on_c, 0, 60, 0
2, 110308, Note_on_c, 0, 64, 0
2, 110319, Note_on_c, 0, 54, 0
2, 110352, Note_on_c, 0, 62, 60
2, 110354, Note_on_c, 0, 59, 56
2, 110359, Note_on_c, 0, 54, 23
2, 110383, Note_on_c, 0, 54, 0
2, 110393, Note_on_c, 0, 59, 0
2, 110400, Note_on_c, 0, 62, 0
2, 110403, Note_on_c, 0, 74, 54
2, 110446, Note_on_c, 0, 74, 0
2, 110482, Note_on_c, 0, 62, 62
2, 110486, Note_on_c, 0, 59, 48
2, 110487, Note_on_c, 0, 74, 51
2, 110494, Note_on_c, 0, 59, 0
2, 110500, Note_on_c, 0, 62, 0
2, 110502, Note_on_c, 0, 74, 0
2, 110528, Note_on_c, 0, 82, 77
2, 110528, Note_on_c, 0, 74, 82
2, 110530, Note_on_c, 0, 86, 69
2, 110536, Note_on_c, 0, 86, 0
2, 110553, Note_on_c, 0, 83, 68
2, 110559, Note_on_c, 0, 74, 0
2, 110560, Note_on_c, 0, 82, 0
2, 110586, Note_on_c, 0, 83, 0
2, 110636, Note_on_c, 0, 86, 95
2, 110637, Note_on_c, 0, 74, 91
2, 110719, Note_on_c, 0, 62, 58
2, 110728, Note_on_c, 0, 62, 0
2, 110795, Note_on_c, 0, 86, 0
2, 110830, Note_on_c, 0, 74, 0
2, 110844, Note_on_c, 0, 79, 80
2, 110846, Note_on_c, 0, 64, 44
2, 110847, Note_on_c, 0, 60, 37
2, 110847, Note_on_c, 0, 57, 57
2, 110852, Note_on_c, 0, 53, 31
2, 110853, Note_on_c, 0, 64, 0
2, 110863, Note_on_c, 0, 53, 0
2, 110870, Note_on_c, 0, 57, 0
2, 110871, Note_on_c, 0, 60, 0
2, 110878, Note_on_c, 0, 79, 0
2, 110920, Note_on_c, 0, 77, 73
2, 110981, Note_on_c, 0, 77, 0
2, 111001, Note_on_c, 0, 72, 43
2, 111002, Note_on_c, 0, 69, 54
2, 111006, Note_on_c, 0, 60, 45
2, 111034, Note_on_c, 0, 60, 0
2, 111048, Note_on_c, 0, 72, 0
2, 111050, Note_on_c, 0, 69, 0
2, 111078, Note_on_c, 0, 71, 54
2, 111081, Note_on_c, 0, 65, 50
2, 111084, Note_on_c, 0, 59, 53
2, 111085, Note_on_c, 0, 64, 43
2, 111086, Note_on_c, 0, 53, 35
2, 111119, Note_on_c, 0, 64, 0
2, 111123, Note_on_c, 0, 71, 0
2, 111126, Note_on_c, 0, 53, 0
2, 111128, Note_on_c, 0, 65, 0
2, 111129, Note_on_c, 0, 59, 0
2, 111153, Note_on_c, 0, 63, 52
2, 111154, Note_on_c, 0, 65, 38
2, 111154, Note_on_c, 0, 68, 45
2, 111155, Note_on_c, 0, 53, 51
2, 111157, Note_on_c, 0, 59, 44
2, 111168, Control_c, 0, 64, 127
2, 111192, Note_on_c, 0, 59, 0
2, 111194, Note_on_c, 0, 63, 0
2, 111196, Note_on_c, 0, 65, 0
2, 111204, Note_on_c, 0, 53, 0
2, 111209, Note_on_c, 0, 68, 0
2, 111226, Control_c, 0, 64, 0
2, 111233, Note_on_c, 0, 53, 41
2, 111234, Note_on_c, 0, 62, 50
2, 111236, Note_on_c, 0, 59, 45
2, 111236, Note_on_c, 0, 67, 45
2, 111237, Note_on_c, 0, 65, 47
2, 111246, Control_c, 0, 64, 127
2, 111249, Note_on_c, 0, 59, 0
2, 111253, Note_on_c, 0, 62, 0
2, 111263, Note_on_c, 0, 53, 0
2, 111271, Note_on_c, 0, 65, 0
2, 111277, Note_on_c, 0, 67, 0
2, 111314, Note_on_c, 0, 64, 54
2, 111316, Note_on_c, 0, 57, 58
2, 111320, Control_c, 0, 64, 0
2, 111328, Note_on_c, 0, 57, 0
2, 111335, Note_on_c, 0, 64, 0
2, 111364, Control_c, 0, 64, 127
2, 111392, Control_c, 0, 64, 0
2, 111396, Note_on_c, 0, 64, 57
2, 111396, Note_on_c, 0, 55, 51
2, 111397, Note_on_c, 0, 60, 54
2, 111407, Note_on_c, 0, 55, 0
2, 111412, Note_on_c, 0, 60, 0
2, 111416, Note_on_c, 0, 64, 0
2, 111432, Note_on_c, 0, 55, 53
2, 111433, Note_on_c, 0, 64, 50
2, 111435, Note_on_c, 0, 60, 45
2, 111446, Note_on_c, 0, 55, 0
2, 111448, Note_on_c, 0, 60, 0
2, 111454, Note_on_c, 0, 64, 0
2, 111479, Note_on_c, 0, 64, 66
2, 111479, Note_on_c, 0, 55, 69
2, 111481, Note_on_c, 0, 60, 60
2, 111493, Note_on_c, 0, 60, 0
2, 111493, Note_on_c, 0, 55, 0
2, 111513, Note_on_c, 0, 55, 46
2, 111518, Note_on_c, 0, 60, 26
2, 111522, Note_on_c, 0, 55, 0
2, 111525, Note_on_c, 0, 60, 0
2, 111535, Note_on_c, 0, 64, 0
2, 111553, Note_on_c, 0, 48, 61
2, 111571, Note_on_c, 0, 48, 0
2, 111629, Note_on_c, 0, 66, 70
2, 111631, Note_on_c, 0, 57, 72
2, 111632, Note_on_c, 0, 62, 68
2, 111644, Note_on_c, 0, 57, 0
2, 111651, Note_on_c, 0, 62, 0
2, 111652, Note_on_c, 0, 66, 0
2, 111667, Note_on_c, 0, 66, 67
2, 111669, Note_on_c, 0, 57, 67
2, 111671, Note_on_c, 0, 62, 58
2, 111681, Note_on_c, 0, 57, 0
2, 111688, Note_on_c, 0, 62, 0
2, 111690, Note_on_c, 0, 66, 0
2, 111707, Note_on_c, 0, 66, 69
2, 111709, Note_on_c, 0, 57, 70
2, 111711, Note_on_c, 0, 62, 64
2, 111723, Note_on_c, 0, 57, 0
2, 111729, Note_on_c, 0, 66, 0
2, 111730, Note_on_c, 0, 62, 0
2, 111747, Note_on_c, 0, 66, 64
2, 111749, Note_on_c, 0, 62, 67
2, 111750, Note_on_c, 0, 57, 64
2, 111756, Note_on_c, 0, 57, 0
2, 111765, Note_on_c, 0, 62, 0
2, 111768, Note_on_c, 0, 66, 0
2, 111787, Note_on_c, 0, 48, 51
2, 111796, Note_on_c, 0, 48, 0
2, 111828, Note_on_c, 0, 59, 70
2, 111828, Note_on_c, 0, 67, 74
2, 111829, Note_on_c, 0, 55, 65
2, 111830, Note_on_c, 0, 62, 58
2, 111838, Note_on_c, 0, 55, 0
2, 111842, Note_on_c, 0, 59, 0
2, 111844, Note_on_c, 0, 67, 0
2, 111845, Note_on_c, 0, 62, 0
2, 111868, Note_on_c, 0, 67, 40
2, 111869, Note_on_c, 0, 59, 48
2, 111870, Note_on_c, 0, 55, 53
2, 111874, Note_on_c, 0, 62, 26
2, 111877, Note_on_c, 0, 55, 0
2, 111883, Note_on_c, 0, 59, 0
2, 111886, Note_on_c, 0, 62, 0
2, 111894, Note_on_c, 0, 67, 0
2, 111915, Note_on_c, 0, 35, 29
2, 111923, Note_on_c, 0, 35, 0
2, 111953, Note_on_c, 0, 76, 68
2, 111953, Note_on_c, 0, 67, 80
2, 111954, Note_on_c, 0, 74, 72
2, 111968, Note_on_c, 0, 76, 0
2, 111972, Note_on_c, 0, 67, 0
2, 111977, Note_on_c, 0, 74, 0
2, 111993, Note_on_c, 0, 59, 47
2, 112005, Note_on_c, 0, 59, 0
2, 112028, Control_c, 0, 64, 127
2, 112034, Note_on_c, 0, 62, 71
2, 112034, Control_c, 0, 64, 0
2, 112034, Note_on_c, 0, 69, 70
2, 112035, Note_on_c, 0, 59, 41
2, 112036, Note_on_c, 0, 64, 64
2, 112039, Note_on_c, 0, 60, 39
2, 112042, Note_on_c, 0, 53, 66
2, 112045, Note_on_c, 0, 60, 0
2, 112090, Control_c, 0, 64, 127
2, 112146, Note_on_c, 0, 59, 0
2, 112150, Note_on_c, 0, 62, 0
2, 112153, Note_on_c, 0, 69, 0
2, 112154, Note_on_c, 0, 64, 0
2, 112160, Note_on_c, 0, 59, 68
2, 112161, Note_on_c, 0, 67, 34
2, 112162, Note_on_c, 0, 64, 37
2, 112162, Note_on_c, 0, 62, 64
2, 112164, Note_on_c, 0, 53, 0
2, 112164, Note_on_c, 0, 52, 60
2, 112171, Control_c, 0, 64, 0
2, 112219, Control_c, 0, 64, 127
2, 112245, Note_on_c, 0, 59, 0
2, 112261, Note_on_c, 0, 62, 0
2, 112265, Note_on_c, 0, 64, 0
2, 112271, Note_on_c, 0, 67, 0
2, 112284, Note_on_c, 0, 46, 58
2, 112295, Note_on_c, 0, 52, 0
2, 112307, Note_on_c, 0, 46, 0
2, 112307, Control_c, 0, 64, 0
2, 112324, Note_on_c, 0, 45, 74
2, 112330, Control_c, 0, 64, 127
2, 112339, Note_on_c, 0, 45, 0
2, 112405, Note_on_c, 0, 55, 75
2, 112406, Note_on_c, 0, 76, 94
2, 112406, Note_on_c, 0, 81, 89
2, 112406, Note_on_c, 0, 64, 80
2, 112406, Note_on_c, 0, 69, 101
2, 112407, Note_on_c, 0, 57, 74
2, 112408, Note_on_c, 0, 60, 76
2, 112415, Note_on_c, 0, 79, 24
2, 112421, Note_on_c, 0, 79, 0
2, 112437, Note_on_c, 0, 69, 0
2, 112438, Note_on_c, 0, 64, 0
2, 112439, Note_on_c, 0, 55, 0
2, 112440, Note_on_c, 0, 81, 0
2, 112442, Note_on_c, 0, 60, 0
2, 112445, Note_on_c, 0, 76, 0
2, 112446, Note_on_c, 0, 57, 0
2, 112455, Note_on_c, 0, 55, 66
2, 112456, Note_on_c, 0, 64, 66
2, 112457, Note_on_c, 0, 57, 64
2, 112457, Note_on_c, 0, 81, 67
2, 112458, Note_on_c, 0, 76, 71
2, 112458, Note_on_c, 0, 60, 69
2, 112460, Note_on_c, 0, 69, 74
2, 112488, Note_on_c, 0, 69, 0
2, 112492, Note_on_c, 0, 55, 0
2, 112492, Note_on_c, 0, 81, 0
2, 112493, Note_on_c, 0, 64, 0
2, 112494, Note_on_c, 0, 76, 0
2, 112498, Note_on_c, 0, 60, 0
2, 112500, Note_on_c, 0, 57, 0
2, 112525, Note_on_c, 0, 55, 63
2, 112527, Note_on_c, 0, 81, 66
2, 112527, Note_on_c, 0, 60, 58
2, 112528, Note_on_c, 0, 76, 71
2, 112529, Note_on_c, 0, 69, 74
2, 112530, Note_on_c, 0, 75, 33
2, 112530, Note_on_c, 0, 57, 42
2, 112535, Note_on_c, 0, 60, 0
2, 112537, Note_on_c, 0, 57, 0
2, 112538, Note_on_c, 0, 55, 0
2, 112545, Note_on_c, 0, 76, 0
2, 112545, Note_on_c, 0, 69, 0
2, 112550, Note_on_c, 0, 81, 0
2, 112553, Note_on_c, 0, 75, 0
2, 112564, Control_c, 0, 64, 0
2, 112569, Note_on_c, 0, 54, 68
2, 112570, Note_on_c, 0, 81, 74
2, 112571, Note_on_c, 0, 60, 67
2, 112571, Note_on_c, 0, 64, 71
2, 112572, Note_on_c, 0, 69, 76
2, 112573, Note_on_c, 0, 78, 43
2, 112573, Note_on_c, 0, 74, 68
2, 112601, Control_c, 0, 64, 127
2, 112662, Control_c, 0, 64, 0
2, 112673, Control_c, 0, 64, 127
2, 112685, Note_on_c, 0, 81, 0
2, 112687, Note_on_c, 0, 69, 0
2, 112697, Note_on_c, 0, 74, 0
2, 112704, Note_on_c, 0, 78, 0
2, 112709, Note_on_c, 0, 64, 0
2, 112718, Note_on_c, 0, 54, 0
2, 112719, Note_on_c, 0, 60, 0
2, 112750, Note_on_c, 0, 78, 57
2, 112751, Note_on_c, 0, 68, 62
2, 112751, Note_on_c, 0, 54, 47
2, 112752, Note_on_c, 0, 74, 64
2, 112755, Note_on_c, 0, 64, 50
2, 112758, Note_on_c, 0, 79, 35
2, 112759, Note_on_c, 0, 74, 0
2, 112760, Note_on_c, 0, 68, 0
2, 112763, Note_on_c, 0, 64, 0
2, 112764, Note_on_c, 0, 78, 0
2, 112765, Note_on_c, 0, 79, 0
2, 112766, Note_on_c, 0, 54, 0
2, 112789, Note_on_c, 0, 80, 30
2, 112797, Note_on_c, 0, 80, 0
2, 112813, Control_c, 0, 64, 0
2, 112814, Note_on_c, 0, 83, 79
2, 112814, Note_on_c, 0, 79, 79
2, 112815, Note_on_c, 0, 71, 92
2, 112815, Note_on_c, 0, 57, 81
2, 112816, Note_on_c, 0, 67, 85
2, 112816, Note_on_c, 0, 63, 79
2, 112818, Note_on_c, 0, 82, 34
2, 112819, Note_on_c, 0, 76, 61
2, 112836, Note_on_c, 0, 76, 0
2, 112839, Note_on_c, 0, 82, 0
2, 112843, Note_on_c, 0, 71, 0
2, 112843, Note_on_c, 0, 67, 0
2, 112844, Note_on_c, 0, 57, 0
2, 112844, Note_on_c, 0, 83, 0
2, 112844, Note_on_c, 0, 79, 0
2, 112848, Note_on_c, 0, 63, 0
2, 112888, Note_on_c, 0, 75, 83
2, 112889, Note_on_c, 0, 79, 73
2, 112889, Note_on_c, 0, 83, 79
2, 112889, Note_on_c, 0, 63, 81
2, 112889, Note_on_c, 0, 71, 92
2, 112891, Note_on_c, 0, 67, 85
2, 112891, Note_on_c, 0, 57, 87
2, 112905, Note_on_c, 0, 67, 0
2, 112907, Note_on_c, 0, 57, 0
2, 112911, Note_on_c, 0, 75, 0
2, 112912, Note_on_c, 0, 71, 0
2, 112913, Note_on_c, 0, 83, 0
2, 112916, Note_on_c, 0, 79, 0
2, 112917, Note_on_c, 0, 63, 0
2, 112945, Note_on_c, 0, 75, 78
2, 112946, Note_on_c, 0, 83, 74
2, 112946, Note_on_c, 0, 57, 80
2, 112946, Note_on_c, 0, 79, 66
2, 112946, Note_on_c, 0, 63, 71
2, 112947, Note_on_c, 0, 67, 75
2, 112947, Note_on_c, 0, 71, 82
2, 112963, Note_on_c, 0, 71, 0
2, 112963, Note_on_c, 0, 67, 0
2, 112966, Note_on_c, 0, 83, 0
2, 112968, Note_on_c, 0, 75, 0
2, 112968, Note_on_c, 0, 57, 0
2, 112969, Note_on_c, 0, 79, 0
2, 112978, Note_on_c, 0, 57, 50
2, 112978, Note_on_c, 0, 67, 65
2, 112978, Note_on_c, 0, 75, 64
2, 112979, Note_on_c, 0, 83, 50
2, 112980, Control_c, 0, 64, 127
2, 112980, Note_on_c, 0, 71, 58
2, 112982, Note_on_c, 0, 79, 52
2, 113001, Note_on_c, 0, 71, 0
2, 113001, Note_on_c, 0, 57, 0
2, 113004, Note_on_c, 0, 67, 0
2, 113008, Note_on_c, 0, 75, 0
2, 113009, Note_on_c, 0, 83, 0
2, 113010, Note_on_c, 0, 79, 0
2, 113015, Note_on_c, 0, 63, 0
2, 113022, Control_c, 0, 64, 0
2, 113022, Note_on_c, 0, 79, 70
2, 113023, Note_on_c, 0, 83, 72
2, 113023, Note_on_c, 0, 76, 74
2, 113024, Note_on_c, 0, 72, 66
2, 113025, Note_on_c, 0, 62, 87
2, 113025, Note_on_c, 0, 56, 80
2, 113025, Note_on_c, 0, 67, 83
2, 113067, Control_c, 0, 64, 127
2, 113132, Note_on_c, 0, 72, 0
2, 113145, Note_on_c, 0, 76, 0
2, 113152, Note_on_c, 0, 79, 0
2, 113152, Note_on_c, 0, 67, 0
2, 113155, Note_on_c, 0, 56, 0
2, 113169, Note_on_c, 0, 83, 0
2, 113178, Note_on_c, 0, 62, 0
2, 113196, Note_on_c, 0, 83, 63
2, 113198, Note_on_c, 0, 71, 64
2, 113199, Note_on_c, 0, 62, 63
2, 113201, Note_on_c, 0, 76, 42
2, 113204, Note_on_c, 0, 67, 32
2, 113206, Note_on_c, 0, 71, 0
2, 113208, Note_on_c, 0, 76, 0
2, 113211, Note_on_c, 0, 67, 0
2, 113213, Note_on_c, 0, 83, 0
2, 113217, Note_on_c, 0, 62, 0
2, 113229, Note_on_c, 0, 62, 62
2, 113230, Note_on_c, 0, 56, 71
2, 113231, Note_on_c, 0, 84, 84
2, 113232, Note_on_c, 0, 72, 80
2, 113234, Note_on_c, 0, 67, 26
2, 113241, Note_on_c, 0, 67, 0
2, 113246, Note_on_c, 0, 62, 0
2, 113253, Note_on_c, 0, 72, 0
2, 113253, Note_on_c, 0, 84, 0
2, 113255, Note_on_c, 0, 56, 0
2, 113274, Note_on_c, 0, 61, 74
2, 113274, Note_on_c, 0, 55, 85
2, 113275, Control_c, 0, 64, 0
2, 113275, Note_on_c, 0, 66, 77
2, 113276, Note_on_c, 0, 73, 71
2, 113276, Note_on_c, 0, 85, 84
2, 113277, Note_on_c, 0, 79, 73
2, 113332, Control_c, 0, 64, 127
2, 113348, Note_on_c, 0, 79, 0
2, 113350, Note_on_c, 0, 85, 0
2, 113362, Note_on_c, 0, 73, 0
2, 113366, Note_on_c, 0, 55, 0
2, 113372, Note_on_c, 0, 66, 0
2, 113377, Note_on_c, 0, 61, 0
2, 113406, Note_on_c, 0, 81, 54
2, 113406, Control_c, 0, 64, 0
2, 113407, Note_on_c, 0, 66, 47
2, 113407, Note_on_c, 0, 61, 44
2, 113407, Note_on_c, 0, 76, 49
2, 113408, Note_on_c, 0, 69, 36
2, 113409, Note_on_c, 0, 55, 57
2, 113449, Note_on_c, 0, 69, 0
2, 113450, Note_on_c, 0, 76, 0
2, 113450, Note_on_c, 0, 81, 0
2, 113451, Note_on_c, 0, 55, 0
2, 113457, Note_on_c, 0, 61, 0
2, 113458, Note_on_c, 0, 66, 0
2, 113528, Note_on_c, 0, 66, 38
2, 113528, Note_on_c, 0, 81, 48
2, 113529, Note_on_c, 0, 55, 54
2, 113530, Note_on_c, 0, 61, 39
2, 113530, Note_on_c, 0, 76, 44
2, 113530, Note_on_c, 0, 69, 45
2, 113568, Note_on_c, 0, 69, 0
2, 113573, Note_on_c, 0, 55, 0
2, 113576, Note_on_c, 0, 76, 0
2, 113580, Note_on_c, 0, 81, 0
2, 113581, Note_on_c, 0, 66, 0
2, 113584, Note_on_c, 0, 61, 0
2, 113644, Control_c, 0, 64, 127
2, 113647, Note_on_c, 0, 81, 51
2, 113647, Note_on_c, 0, 76, 49
2, 113648, Note_on_c, 0, 66, 42
2, 113650, Note_on_c, 0, 69, 47
2, 113650, Note_on_c, 0, 61, 40
2, 113651, Note_on_c, 0, 55, 46
2, 113672, Note_on_c, 0, 55, 0
2, 113681, Note_on_c, 0, 69, 0
2, 113687, Note_on_c, 0, 76, 0
2, 113689, Note_on_c, 0, 61, 0
2, 113690, Note_on_c, 0, 66, 0
2, 113695, Note_on_c, 0, 81, 0
2, 113954, Note_on_c, 0, 63, 58
2, 113954, Note_on_c, 0, 58, 78
2, 113955, Note_on_c, 0, 67, 87
2, 113956, Note_on_c, 0, 84, 94
2, 113956, Note_on_c, 0, 62, 75
2, 113958, Note_on_c, 0, 74, 84
2, 113958, Note_on_c, 0, 72, 84
2, 113964, Note_on_c, 0, 74, 0
2, 113968, Note_on_c, 0, 72, 0
2, 113974, Note_on_c, 0, 84, 0
2, 113976, Note_on_c, 0, 67, 0
2, 113979, Note_on_c, 0, 62, 0
2, 113988, Note_on_c, 0, 58, 0
2, 113989, Note_on_c, 0, 63, 0
2, 114003, Note_on_c, 0, 78, 28
2, 114008, Control_c, 0, 64, 0
2, 114010, Note_on_c, 0, 67, 68
2, 114011, Note_on_c, 0, 63, 51
2, 114011, Note_on_c, 0, 57, 57
2, 114012, Note_on_c, 0, 81, 53
2, 114015, Note_on_c, 0, 80, 28
2, 114016, Note_on_c, 0, 69, 35
2, 114018, Note_on_c, 0, 71, 30
2, 114021, Note_on_c, 0, 78, 0
2, 114047, Control_c, 0, 64, 127
2, 114065, Note_on_c, 0, 71, 0
2, 114066, Note_on_c, 0, 57, 0
2, 114066, Note_on_c, 0, 69, 0
2, 114067, Note_on_c, 0, 67, 0
2, 114068, Note_on_c, 0, 81, 0
2, 114069, Note_on_c, 0, 80, 0
2, 114074, Note_on_c, 0, 63, 0
2, 114084, Note_on_c, 0, 81, 62
2, 114085, Note_on_c, 0, 63, 58
2, 114085, Note_on_c, 0, 57, 59
2, 114086, Note_on_c, 0, 78, 53
2, 114087, Note_on_c, 0, 67, 51
2, 114087, Note_on_c, 0, 69, 62
2, 114087, Note_on_c, 0, 74, 64
2, 114094, Control_c, 0, 64, 0
2, 114113, Control_c, 0, 64, 127
2, 114129, Note_on_c, 0, 69, 0
2, 114136, Note_on_c, 0, 81, 0
2, 114139, Note_on_c, 0, 74, 0
2, 114141, Note_on_c, 0, 67, 0
2, 114142, Note_on_c, 0, 57, 0
2, 114148, Note_on_c, 0, 63, 0
2, 114148, Note_on_c, 0, 78, 0
2, 114167, Note_on_c, 0, 82, 67
2, 114169, Note_on_c, 0, 70, 67
2, 114169, Note_on_c, 0, 63, 62
2, 114170, Note_on_c, 0, 57, 64
2, 114170, Note_on_c, 0, 75, 54
2, 114171, Note_on_c, 0, 67, 53
2, 114188, Note_on_c, 0, 67, 0
2, 114190, Note_on_c, 0, 75, 0
2, 114195, Note_on_c, 0, 70, 0
2, 114199, Note_on_c, 0, 57, 0
2, 114203, Note_on_c, 0, 82, 0
2, 114217, Note_on_c, 0, 63, 0
2, 114236, Control_c, 0, 64, 0
2, 114242, Note_on_c, 0, 66, 67
2, 114242, Note_on_c, 0, 83, 62
2, 114244, Note_on_c, 0, 78, 57
2, 114244, Note_on_c, 0, 57, 63
2, 114245, Note_on_c, 0, 62, 58
2, 114246, Note_on_c, 0, 71, 64
2, 114266, Control_c, 0, 64, 127
2, 114284, Note_on_c, 0, 83, 0
2, 114296, Note_on_c, 0, 78, 0
2, 114301, Note_on_c, 0, 71, 0
2, 114317, Note_on_c, 0, 66, 0
2, 114319, Note_on_c, 0, 57, 0
2, 114329, Note_on_c, 0, 62, 0
2, 114356, Control_c, 0, 64, 0
2, 114359, Note_on_c, 0, 66, 52
2, 114361, Note_on_c, 0, 79, 56
2, 114363, Note_on_c, 0, 67, 53
2, 114363, Note_on_c, 0, 57, 53
2, 114364, Note_on_c, 0, 74, 48
2, 114365, Note_on_c, 0, 62, 40
2, 114369, Control_c, 0, 64, 127
2, 114390, Note_on_c, 0, 62, 0
2, 114390, Note_on_c, 0, 57, 0
2, 114393, Note_on_c, 0, 66, 0
2, 114399, Note_on_c, 0, 74, 0
2, 114418, Note_on_c, 0, 67, 0
2, 114440, Note_on_c, 0, 79, 0
2, 114480, Control_c, 0, 64, 0
2, 114484, Note_on_c, 0, 79, 48
2, 114485, Note_on_c, 0, 67, 51
2, 114485, Note_on_c, 0, 62, 54
2, 114486, Note_on_c, 0, 59, 36
2, 114487, Note_on_c, 0, 74, 36
2, 114487, Note_on_c, 0, 71, 47
2, 114489, Note_on_c, 0, 77, 33
2, 114490, Note_on_c, 0, 52, 40
2, 114519, Control_c, 0, 64, 127
2, 114610, Note_on_c, 0, 59, 0
2, 114613, Note_on_c, 0, 79, 0
2, 114614, Note_on_c, 0, 62, 0
2, 114620, Note_on_c, 0, 74, 0
2, 114624, Note_on_c, 0, 67, 0
2, 114625, Note_on_c, 0, 52, 0
2, 114625, Note_on_c, 0, 77, 0
2, 114630, Note_on_c, 0, 71, 0
2, 114798, Note_on_c, 0, 61, 93
2, 114799, Note_on_c, 0, 69, 90
2, 114799, Note_on_c, 0, 64, 87
2, 114799, Note_on_c, 0, 49, 86
2, 114799, Note_on_c, 0, 57, 91
2, 114834, Note_on_c, 0, 69, 0
2, 114837, Note_on_c, 0, 61, 0
2, 114837, Note_on_c, 0, 57, 0
2, 114839, Note_on_c, 0, 49, 0
2, 114840, Note_on_c, 0, 64, 0
2, 114847, Control_c, 0, 64, 0
2, 114850, Note_on_c, 0, 49, 52
2, 114852, Note_on_c, 0, 61, 59
2, 114852, Note_on_c, 0, 57, 63
2, 114853, Note_on_c, 0, 69, 65
2, 114854, Note_on_c, 0, 64, 74
2, 114858, Control_c, 0, 64, 127
2, 114878, Note_on_c, 0, 69, 0
2, 114882, Note_on_c, 0, 57, 0
2, 114882, Note_on_c, 0, 49, 0
2, 114885, Note_on_c, 0, 61, 0
2, 114887, Note_on_c, 0, 64, 0
2, 114921, Note_on_c, 0, 49, 73
2, 114940, Note_on_c, 0, 49, 0
2, 114967, Control_c, 0, 64, 0
2, 114968, Note_on_c, 0, 74, 84
2, 114968, Note_on_c, 0, 63, 85
2, 114968, Note_on_c, 0, 58, 88
2, 114969, Note_on_c, 0, 70, 72
2, 114969, Note_on_c, 0, 67, 87
2, 115004, Control_c, 0, 64, 127
2, 115029, Note_on_c, 0, 67, 0
2, 115033, Note_on_c, 0, 73, 9
2, 115037, Note_on_c, 0, 63, 0
2, 115043, Note_on_c, 0, 74, 0
2, 115046, Note_on_c, 0, 70, 0
2, 115050, Note_on_c, 0, 58, 0
2, 115058, Note_on_c, 0, 73, 0
2, 115080, Control_c, 0, 64, 0
2, 115081, Note_on_c, 0, 72, 59
2, 115083, Note_on_c, 0, 57, 67
2, 115084, Note_on_c, 0, 63, 73
2, 115084, Note_on_c, 0, 65, 67
2, 115084, Note_on_c, 0, 69, 70
2, 115104, Control_c, 0, 64, 127
2, 115120, Note_on_c, 0, 72, 0
2, 115121, Note_on_c, 0, 69, 0
2, 115124, Note_on_c, 0, 57, 0
2, 115131, Note_on_c, 0, 65, 0
2, 115134, Note_on_c, 0, 63, 0
2, 115202, Control_c, 0, 64, 0
2, 115208, Note_on_c, 0, 62, 64
2, 115209, Note_on_c, 0, 57, 44
2, 115211, Note_on_c, 0, 47, 47
2, 115227, Control_c, 0, 64, 127
2, 115229, Note_on_c, 0, 57, 0
2, 115242, Note_on_c, 0, 62, 0
2, 115289, Note_on_c, 0, 71, 57
2, 115290, Note_on_c, 0, 66, 70
2, 115290, Note_on_c, 0, 62, 78
2, 115294, Note_on_c, 0, 59, 37
2, 115301, Control_c, 0, 64, 0
2, 115325, Control_c, 0, 64, 127
2, 115352, Note_on_c, 0, 59, 0
2, 115372, Note_on_c, 0, 71, 0
2, 115382, Note_on_c, 0, 66, 0
2, 115389, Note_on_c, 0, 62, 0
2, 115415, Note_on_c, 0, 51, 21
2, 115432, Note_on_c, 0, 51, 0
2, 115433, Note_on_c, 0, 47, 0
2, 115444, Note_on_c, 0, 52, 36
2, 115445, Note_on_c, 0, 59, 36
2, 115445, Note_on_c, 0, 67, 51
2, 115446, Note_on_c, 0, 62, 41
2, 115448, Note_on_c, 0, 64, 44
2, 115451, Control_c, 0, 64, 0
2, 115497, Control_c, 0, 64, 127
2, 115567, Note_on_c, 0, 52, 0
2, 115597, Note_on_c, 0, 59, 0
2, 115609, Note_on_c, 0, 64, 0
2, 115611, Note_on_c, 0, 62, 0
2, 115612, Note_on_c, 0, 67, 0
2, 115683, Note_on_c, 0, 55, 55
2, 115685, Control_c, 0, 64, 0
2, 115686, Note_on_c, 0, 64, 46
2, 115689, Note_on_c, 0, 60, 34
2, 115722, Control_c, 0, 64, 127
2, 115736, Note_on_c, 0, 60, 0
2, 115743, Note_on_c, 0, 64, 0
2, 115778, Note_on_c, 0, 55, 0
2, 115874, Note_on_c, 0, 59, 85
2, 115875, Note_on_c, 0, 64, 92
2, 115876, Note_on_c, 0, 71, 87
2, 115876, Note_on_c, 0, 67, 83
2, 115877, Note_on_c, 0, 60, 101
2, 115896, Note_on_c, 0, 64, 0
2, 115898, Note_on_c, 0, 67, 0
2, 115907, Note_on_c, 0, 59, 0
2, 115907, Note_on_c, 0, 60, 0
2, 115914, Note_on_c, 0, 71, 0
2, 115927, Note_on_c, 0, 69, 74
2, 115927, Control_c, 0, 64, 0
2, 115929, Note_on_c, 0, 60, 71
2, 115929, Note_on_c, 0, 57, 63
2, 115931, Note_on_c, 0, 63, 55
2, 115932, Note_on_c, 0, 66, 57
2, 115948, Note_on_c, 0, 60, 0
2, 115956, Note_on_c, 0, 69, 0
2, 115962, Note_on_c, 0, 63, 0
2, 115962, Note_on_c, 0, 66, 0
2, 116008, Note_on_c, 0, 60, 56
2, 116016, Note_on_c, 0, 60, 0
2, 116019, Note_on_c, 0, 57, 0
2, 116045, Note_on_c, 0, 61, 85
2, 116046, Note_on_c, 0, 67, 78
2, 116069, Note_on_c, 0, 62, 67
2, 116070, Note_on_c, 0, 61, 0
2, 116088, Note_on_c, 0, 67, 0
2, 116090, Note_on_c, 0, 62, 0
2, 116120, Note_on_c, 0, 61, 87
2, 116121, Note_on_c, 0, 67, 80
2, 116126, Note_on_c, 0, 66, 40
2, 116135, Note_on_c, 0, 61, 0
2, 116135, Note_on_c, 0, 62, 60
2, 116157, Note_on_c, 0, 62, 0
2, 116159, Note_on_c, 0, 66, 0
2, 116161, Note_on_c, 0, 67, 0
2, 116274, Note_on_c, 0, 58, 80
2, 116299, Note_on_c, 0, 58, 0
2, 116309, Note_on_c, 0, 59, 58
2, 116330, Note_on_c, 0, 59, 0
2, 116347, Note_on_c, 0, 60, 87
2, 116371, Note_on_c, 0, 60, 0
2, 116386, Note_on_c, 0, 61, 74
2, 116419, Note_on_c, 0, 61, 0
2, 116421, Note_on_c, 0, 62, 66
2, 116438, Note_on_c, 0, 62, 0
2, 116470, Note_on_c, 0, 59, 66
2, 116484, Note_on_c, 0, 59, 0
2, 116523, Note_on_c, 0, 50, 50
2, 116575, Note_on_c, 0, 50, 0
2, 116642, Note_on_c, 0, 53, 74
2, 116677, Note_on_c, 0, 53, 0
2, 116719, Note_on_c, 0, 36, 29
2, 116727, Note_on_c, 0, 36, 0
2, 116762, Note_on_c, 0, 30, 49
2, 116762, Note_on_c, 0, 42, 48
2, 116772, Control_c, 0, 64, 127
2, 116807, Note_on_c, 0, 42, 0
2, 116808, Note_on_c, 0, 30, 0
2, 116849, Note_on_c, 0, 64, 47
2, 116849, Note_on_c, 0, 41, 44
2, 116849, Note_on_c, 0, 53, 29
2, 116849, Note_on_c, 0, 57, 49
2, 116850, Note_on_c, 0, 61, 36
2, 116851, Note_on_c, 0, 29, 37
2, 116853, Control_c, 0, 64, 0
2, 116890, Control_c, 0, 64, 127
2, 116910, Note_on_c, 0, 53, 0
2, 116911, Note_on_c, 0, 57, 0
2, 116923, Note_on_c, 0, 61, 0
2, 116932, Note_on_c, 0, 64, 0
2, 116975, Note_on_c, 0, 65, 46
2, 116997, Note_on_c, 0, 65, 0
2, 117013, Note_on_c, 0, 69, 44
2, 117039, Note_on_c, 0, 69, 0
2, 117047, Note_on_c, 0, 76, 57
2, 117062, Note_on_c, 0, 76, 0
2, 117081, Note_on_c, 0, 81, 51
2, 117108, Note_on_c, 0, 81, 0
2, 117115, Note_on_c, 0, 88, 64
2, 117139, Note_on_c, 0, 88, 0
2, 117153, Note_on_c, 0, 85, 33
2, 117162, Note_on_c, 0, 85, 0
2, 117188, Note_on_c, 0, 88, 44
2, 117208, Note_on_c, 0, 88, 0
2, 117217, Note_on_c, 0, 93, 66
2, 117242, Note_on_c, 0, 93, 0
2, 117252, Note_on_c, 0, 100, 65
2, 117279, Note_on_c, 0, 100, 0
2, 117284, Note_on_c, 0, 93, 49
2, 117304, Note_on_c, 0, 93, 0
2, 117322, Note_on_c, 0, 97, 43
2, 117328, Note_on_c, 0, 97, 0
2, 117357, Note_on_c, 0, 98, 29
2, 117358, Note_on_c, 0, 100, 34
2, 117367, Note_on_c, 0, 98, 0
2, 117368, Note_on_c, 0, 100, 0
2, 117391, Note_on_c, 0, 105, 54
2, 117417, Note_on_c, 0, 105, 0
2, 117429, Note_on_c, 0, 108, 24
2, 117435, Note_on_c, 0, 108, 0
2, 117461, Note_on_c, 0, 105, 58
2, 117476, Note_on_c, 0, 105, 0
2, 117497, Note_on_c, 0, 29, 0
2, 117506, Note_on_c, 0, 41, 0
2, 117632, Control_c, 0, 64, 0
2, 117632, End_track
3, 0, Start_track
3, 0, Title_t, "Bass"
3, 127, Program_c, 1, 32
3, 59518, Note_on_c, 1, 31, 68
3, 59684, Note_on_c, 1, 38, 48
3, 59689, Note_on_c, 1, 31, 0
3, 59711, Note_on_c, 1, 38, 0
3, 59719, Note_on_c, 1, 37, 46
3, 59748, Note_on_c, 1, 37, 0
3, 59767, Note_on_c, 1, 36, 55
3, 59951, Note_on_c, 1, 36, 0
3, 59951, Note_on_c, 1, 34, 52
3, 59989, Note_on_c, 1, 34, 0
3, 59995, Note_on_c, 1, 35, 62
3, 60118, Note_on_c, 1, 28, 79
3, 60121, Note_on_c, 1, 35, 0
3, 60238, Note_on_c, 1, 33, 64
3, 60249, Note_on_c, 1, 28, 0
3, 60301, Note_on_c, 1, 33, 0
3, 60323, Note_on_c, 1, 33, 42
3, 60358, Note_on_c, 1, 38, 74
3, 60360, Note_on_c, 1, 33, 0
3, 60446, Note_on_c, 1, 33, 54
3, 60452, Note_on_c, 1, 38, 0
3, 60464, Note_on_c, 1, 33, 0
3, 60485, Note_on_c, 1, 31, 70
3, 60604, Note_on_c, 1, 47, 85
3, 60610, Note_on_c, 1, 31, 0
3, 60803, Note_on_c, 1, 38, 35
3, 60804, Note_on_c, 1, 34, 29
3, 60812, Note_on_c, 1, 34, 0
3, 60812, Note_on_c, 1, 38, 0
3, 60836, Note_on_c, 1, 47, 0
3, 60837, Note_on_c, 1, 43, 47
3, 60891, Note_on_c, 1, 43, 0
3, 60918, Note_on_c, 1, 37, 39
3, 60945, Note_on_c, 1, 37, 0
3, 60951, Note_on_c, 1, 38, 54
3, 61120, Note_on_c, 1, 33, 50
3, 61123, Note_on_c, 1, 38, 0
3, 61147, Note_on_c, 1, 33, 0
3, 61157, Note_on_c, 1, 32, 62
3, 61180, Note_on_c, 1, 32, 0
3, 61196, Note_on_c, 1, 31, 67
3, 61311, Note_on_c, 1, 31, 0
3, 61318, Note_on_c, 1, 35, 62
3, 61398, Note_on_c, 1, 34, 31
3, 61427, Note_on_c, 1, 34, 0
3, 61431, Note_on_c, 1, 35, 0
3, 61436, Note_on_c, 1, 36, 55
3, 61614, Note_on_c, 1, 36, 0
3, 61634, Note_on_c, 1, 40, 51
3, 61659, Note_on_c, 1, 40, 0
3, 61677, Note_on_c, 1, 37, 47
3, 61798, Note_on_c, 1, 42, 77
3, 61811, Note_on_c, 1, 37, 0
3, 61871, Note_on_c, 1, 42, 0
3, 61882, Note_on_c, 1, 37, 27
3, 61907, Note_on_c, 1, 37, 0
3, 61923, Note_on_c, 1, 35, 65
3, 62040, Note_on_c, 1, 47, 79
3, 62049, Note_on_c, 1, 35, 0
3, 62110, Note_on_c, 1, 47, 0
3, 62121, Note_on_c, 1, 35, 63
3, 62143, Note_on_c, 1, 35, 0
3, 62160, Note_on_c, 1, 40, 64
3, 62357, Note_on_c, 1, 35, 48
3, 62362, Note_on_c, 1, 40, 0
3, 62382, Note_on_c, 1, 35, 0
3, 62393, Note_on_c, 1, 33, 49
3, 62594, Note_on_c, 1, 33, 0
3, 62594, Note_on_c, 1, 37, 43
3, 62622, Note_on_c, 1, 37, 0
3, 62637, Note_on_c, 1, 38, 60
3, 62911, Note_on_c, 1, 38, 0
3, 62955, Note_on_c, 1, 37, 69
3, 62987, Note_on_c, 1, 37, 0
3, 63001, Note_on_c, 1, 38, 64
3, 63070, Note_on_c, 1, 38, 0
3, 63081, Note_on_c, 1, 38, 84
3, 63209, Note_on_c, 1, 38, 0
3, 63209, Note_on_c, 1, 37, 44
3, 63243, Note_on_c, 1, 37, 0
3, 63246, Note_on_c, 1, 38, 71
3, 63297, Note_on_c, 1, 38, 0
3, 63324, Note_on_c, 1, 38, 57
3, 63357, Note_on_c, 1, 38, 0
3, 63366, Note_on_c, 1, 31, 64
3, 63529, Note_on_c, 1, 38, 51
3, 63531, Note_on_c, 1, 31, 0
3, 63541, Note_on_c, 1, 38, 0
3, 63559, Note_on_c, 1, 37, 55
3, 63581, Note_on_c, 1, 37, 0
3, 63604, Note_on_c, 1, 36, 63
3, 63724, Note_on_c, 1, 48, 60
3, 63725, Note_on_c, 1, 36, 0
3, 63746, Note_on_c, 1, 48, 0
3, 63760, Note_on_c, 1, 48, 29
3, 63797, Note_on_c, 1, 36, 52
3, 63800, Note_on_c, 1, 48, 0
3, 63805, Note_on_c, 1, 36, 0
3, 63835, Note_on_c, 1, 47, 54
3, 63924, Note_on_c, 1, 47, 0
3, 63954, Note_on_c, 1, 35, 53
3, 64078, Note_on_c, 1, 45, 49
3, 64116, Note_on_c, 1, 35, 0
3, 64149, Note_on_c, 1, 45, 0
3, 64158, Note_on_c, 1, 38, 65
3, 64181, Note_on_c, 1, 38, 0
3, 64203, Note_on_c, 1, 33, 45
3, 64279, Note_on_c, 1, 38, 33
3, 64285, Note_on_c, 1, 33, 0
3, 64300, Note_on_c, 1, 38, 0
3, 64313, Note_on_c, 1, 31, 59
3, 64500, Note_on_c, 1, 31, 0
3, 64513, Note_on_c, 1, 37, 49
3, 64541, Note_on_c, 1, 37, 0
3, 64553, Note_on_c, 1, 38, 42
3, 64638, Note_on_c, 1, 37, 42
3, 64656, Note_on_c, 1, 37, 0
3, 64667, Note_on_c, 1, 38, 0
3, 64678, Note_on_c, 1, 44, 47
3, 64763, Note_on_c, 1, 38, 30
3, 64769, Note_on_c, 1, 44, 0
3, 64774, Note_on_c, 1, 38, 0
3, 64798, Note_on_c, 1, 41, 29
3, 64878, Note_on_c, 1, 38, 40
3, 64881, Note_on_c, 1, 41, 0
3, 64888, Note_on_c, 1, 38, 0
3, 64910, Note_on_c, 1, 50, 62
3, 64997, Note_on_c, 1, 38, 38
3, 65009, Note_on_c, 1, 38, 0
3, 65020, Note_on_c, 1, 50, 0
3, 65036, Note_on_c, 1, 47, 45
3, 65109, Note_on_c, 1, 47, 0
3, 65118, Note_on_c, 1, 38, 57
3, 65138, Note_on_c, 1, 38, 0
3, 65156, Note_on_c, 1, 35, 59
3, 65265, Note_on_c, 1, 35, 0
3, 65274, Note_on_c, 1, 36, 57
3, 65456, Note_on_c, 1, 36, 0
3, 65480, Note_on_c, 1, 36, 41
3, 65508, Note_on_c, 1, 36, 0
3, 65522, Note_on_c, 1, 37, 56
3, 65639, Note_on_c, 1, 42, 74
3, 65648, Note_on_c, 1, 37, 0
3, 65705, Note_on_c, 1, 42, 0
3, 65718, Note_on_c, 1, 37, 48
3, 65743, Note_on_c, 1, 37, 0
3, 65759, Note_on_c, 1, 35, 63
3, 65909, Note_on_c, 1, 35, 0
3, 65916, Note_on_c, 1, 38, 58
3, 65939, Note_on_c, 1, 38, 0
3, 65951, Note_on_c, 1, 39, 55
3, 65975, Note_on_c, 1, 39, 0
3, 65990, Note_on_c, 1, 40, 62
3, 66194, Note_on_c, 1, 40, 0
3, 66196, Note_on_c, 1, 35, 54
3, 66222, Note_on_c, 1, 35, 0
3, 66234, Note_on_c, 1, 33, 58
3, 66478, Note_on_c, 1, 38, 54
3, 66480, Note_on_c, 1, 33, 0
3, 66565, Note_on_c, 1, 34, 31
3, 66583, Note_on_c, 1, 34, 0
3, 66585, Note_on_c, 1, 38, 0
3, 66597, Note_on_c, 1, 42, 50
3, 66679, Note_on_c, 1, 37, 28
3, 66686, Note_on_c, 1, 37, 0
3, 66697, Note_on_c, 1, 42, 0
3, 66708, Note_on_c, 1, 43, 52
3, 66920, Note_on_c, 1, 38, 44
3, 66932, Note_on_c, 1, 38, 0
3, 66935, Note_on_c, 1, 43, 0
3, 66957, Note_on_c, 1, 31, 62
3, 67072, Note_on_c, 1, 31, 0
3, 67078, Note_on_c, 1, 35, 62
3, 67174, Note_on_c, 1, 34, 28
3, 67190, Note_on_c, 1, 35, 0
3, 67198, Note_on_c, 1, 34, 0
3, 67199, Note_on_c, 1, 36, 61
3, 67322, Note_on_c, 1, 36, 0
3, 67327, Note_on_c, 1, 35, 46
3, 67383, Note_on_c, 1, 35, 0
3, 67404, Note_on_c, 1, 34, 44
3, 67430, Note_on_c, 1, 34, 0
3, 67443, Note_on_c, 1, 33, 46
3, 67521, Note_on_c, 1, 38, 24
3, 67527, Note_on_c, 1, 33, 0
3, 67529, Note_on_c, 1, 38, 0
3, 67559, Note_on_c, 1, 40, 54
3, 67593, Note_on_c, 1, 40, 0
3, 67639, Note_on_c, 1, 37, 42
3, 67667, Note_on_c, 1, 37, 0
3, 67671, Note_on_c, 1, 38, 42
3, 67760, Note_on_c, 1, 37, 38
3, 67770, Note_on_c, 1, 38, 0
3, 67787, Note_on_c, 1, 37, 0
3, 67792, Note_on_c, 1, 45, 75
3, 67899, Note_on_c, 1, 45, 0
3, 67912, Note_on_c, 1, 41, 44
3, 67989, Note_on_c, 1, 41, 0
3, 67992, Note_on_c, 1, 38, 50
3, 68016, Note_on_c, 1, 38, 0
3, 68027, Note_on_c, 1, 32, 57
3, 68136, Note_on_c, 1, 32, 0
3, 68160, Note_on_c, 1, 31, 61
3, 68273, Note_on_c, 1, 43, 75
3, 68380, Note_on_c, 1, 43, 0
3, 68393, Note_on_c, 1, 43, 71
3, 68465, Note_on_c, 1, 31, 0
3, 68476, Note_on_c, 1, 34, 50
3, 68484, Note_on_c, 1, 43, 0
3, 68504, Note_on_c, 1, 34, 0
3, 68515, Note_on_c, 1, 35, 55
3, 68594, Note_on_c, 1, 35, 0
3, 68608, Note_on_c, 1, 31, 34
3, 68618, Note_on_c, 1, 31, 0
3, 68640, Note_on_c, 1, 43, 70
3, 68756, Note_on_c, 1, 31, 68
3, 68762, Note_on_c, 1, 43, 0
3, 68843, Note_on_c, 1, 38, 48
3, 68860, Note_on_c, 1, 31, 0
3, 68875, Note_on_c, 1, 38, 0
3, 68883, Note_on_c, 1, 44, 62
3, 68973, Note_on_c, 1, 38, 27
3, 68987, Note_on_c, 1, 38, 0
3, 68999, Note_on_c, 1, 32, 67
3, 69000, Note_on_c, 1, 44, 0
3, 69093, Note_on_c, 1, 38, 34
3, 69095, Note_on_c, 1, 32, 0
3, 69107, Note_on_c, 1, 38, 0
3, 69120, Note_on_c, 1, 33, 51
3, 69237, Note_on_c, 1, 40, 58
3, 69292, Note_on_c, 1, 40, 0
3, 69322, Note_on_c, 1, 40, 49
3, 69345, Note_on_c, 1, 33, 0
3, 69347, Note_on_c, 1, 40, 0
3, 69355, Note_on_c, 1, 43, 71
3, 69452, Note_on_c, 1, 40, 25
3, 69456, Note_on_c, 1, 43, 0
3, 69467, Note_on_c, 1, 40, 0
3, 69473, Note_on_c, 1, 43, 65
3, 69573, Note_on_c, 1, 43, 0
3, 69592, Note_on_c, 1, 42, 50
3, 69677, Note_on_c, 1, 36, 63
3, 69685, Note_on_c, 1, 42, 0
3, 69699, Note_on_c, 1, 36, 0
3, 69719, Note_on_c, 1, 34, 51
3, 69793, Note_on_c, 1, 32, 36
3, 69825, Note_on_c, 1, 34, 0
3, 69827, Note_on_c, 1, 32, 0
3, 69835, Note_on_c, 1, 35, 49
3, 69932, Note_on_c, 1, 34, 35
3, 69943, Note_on_c, 1, 35, 0
3, 69953, Note_on_c, 1, 39, 61
3, 69958, Note_on_c, 1, 34, 0
3, 70039, Note_on_c, 1, 35, 31
3, 70052, Note_on_c, 1, 35, 0
3, 70061, Note_on_c, 1, 39, 0
3, 70072, Note_on_c, 1, 40, 45
3, 70158, Note_on_c, 1, 40, 0
3, 70158, Note_on_c, 1, 35, 49
3, 70179, Note_on_c, 1, 35, 0
3, 70194, Note_on_c, 1, 34, 47
3, 70305, Note_on_c, 1, 34, 0
3, 70314, Note_on_c, 1, 33, 62
3, 70509, Note_on_c, 1, 33, 0
3, 70515, Note_on_c, 1, 37, 52
3, 70542, Note_on_c, 1, 37, 0
3, 70553, Note_on_c, 1, 38, 57
3, 70637, Note_on_c, 1, 50, 94
3, 70823, Note_on_c, 1, 38, 0
3, 70879, Note_on_c, 1, 38, 84
3, 71036, Note_on_c, 1, 50, 0
3, 71037, Note_on_c, 1, 31, 70
3, 71038, Note_on_c, 1, 38, 0
3, 71201, Note_on_c, 1, 38, 43
3, 71207, Note_on_c, 1, 31, 0
3, 71218, Note_on_c, 1, 38, 0
3, 71240, Note_on_c, 1, 37, 49
3, 71259, Note_on_c, 1, 37, 0
3, 71279, Note_on_c, 1, 36, 60
3, 71474, Note_on_c, 1, 36, 0
3, 71479, Note_on_c, 1, 34, 44
3, 71512, Note_on_c, 1, 34, 0
3, 71519, Note_on_c, 1, 35, 50
3, 71630, Note_on_c, 1, 35, 0
3, 71630, Note_on_c, 1, 32, 56
3, 71734, Note_on_c, 1, 32, 0
3, 71753, Note_on_c, 1, 33, 54
3, 71847, Note_on_c, 1, 32, 35
3, 71863, Note_on_c, 1, 33, 0
3, 71877, Note_on_c, 1, 32, 0
3, 71878, Note_on_c, 1, 38, 55
3, 71967, Note_on_c, 1, 32, 51
3, 71968, Note_on_c, 1, 38, 0
3, 71987, Note_on_c, 1, 32, 0
3, 72004, Note_on_c, 1, 31, 62
3, 72200, Note_on_c, 1, 38, 44
3, 72208, Note_on_c, 1, 38, 0
3, 72242, Note_on_c, 1, 31, 0
3, 72246, Note_on_c, 1, 47, 64
3, 72332, Note_on_c, 1, 38, 34
3, 72343, Note_on_c, 1, 38, 0
3, 72360, Note_on_c, 1, 47, 0
3, 72367, Note_on_c, 1, 49, 60
3, 72452, Note_on_c, 1, 38, 43
3, 72460, Note_on_c, 1, 38, 0
3, 72470, Note_on_c, 1, 49, 0
3, 72485, Note_on_c, 1, 50, 67
3, 72567, Note_on_c, 1, 38, 34
3, 72578, Note_on_c, 1, 38, 0
3, 72591, Note_on_c, 1, 50, 0
3, 72601, Note_on_c, 1, 45, 45
3, 72684, Note_on_c, 1, 38, 36
3, 72693, Note_on_c, 1, 38, 0
3, 72704, Note_on_c, 1, 45, 0
3, 72721, Note_on_c, 1, 47, 55
3, 72803, Note_on_c, 1, 40, 56
3, 72814, Note_on_c, 1, 40, 0
3, 72818, Note_on_c, 1, 47, 0
3, 72842, Note_on_c, 1, 38, 49
3, 72928, Note_on_c, 1, 34, 36
3, 72930, Note_on_c, 1, 38, 0
3, 72948, Note_on_c, 1, 34, 0
3, 72960, Note_on_c, 1, 36, 55
3, 73111, Note_on_c, 1, 36, 0
3, 73117, Note_on_c, 1, 43, 53
3, 73127, Note_on_c, 1, 43, 0
3, 73158, Note_on_c, 1, 36, 54
3, 73185, Note_on_c, 1, 36, 0
3, 73199, Note_on_c, 1, 37, 58
3, 73319, Note_on_c, 1, 42, 74
3, 73324, Note_on_c, 1, 37, 0
3, 73373, Note_on_c, 1, 42, 0
3, 73398, Note_on_c, 1, 37, 39
3, 73429, Note_on_c, 1, 37, 0
3, 73440, Note_on_c, 1, 35, 64
3, 73688, Note_on_c, 1, 43, 77
3, 73694, Note_on_c, 1, 35, 0
3, 73771, Note_on_c, 1, 43, 0
3, 73781, Note_on_c, 1, 35, 34
3, 73797, Note_on_c, 1, 35, 0
3, 73803, Note_on_c, 1, 40, 57
3, 73890, Note_on_c, 1, 35, 47
3, 73905, Note_on_c, 1, 35, 0
3, 73906, Note_on_c, 1, 40, 0
3, 73927, Note_on_c, 1, 33, 52
3, 74119, Note_on_c, 1, 37, 38
3, 74129, Note_on_c, 1, 33, 0
3, 74150, Note_on_c, 1, 37, 0
3, 74158, Note_on_c, 1, 38, 59
3, 74271, Note_on_c, 1, 38, 0
3, 74284, Note_on_c, 1, 36, 53
3, 74389, Note_on_c, 1, 36, 0
3, 74400, Note_on_c, 1, 35, 55
3, 74642, Note_on_c, 1, 40, 58
3, 74643, Note_on_c, 1, 35, 0
3, 74801, Note_on_c, 1, 40, 0
3, 74804, Note_on_c, 1, 35, 51
3, 74823, Note_on_c, 1, 35, 0
3, 74843, Note_on_c, 1, 34, 61
3, 74865, Note_on_c, 1, 34, 0
3, 74883, Note_on_c, 1, 33, 56
3, 75126, Note_on_c, 1, 49, 67
3, 75301, Note_on_c, 1, 33, 0
3, 75328, Note_on_c, 1, 35, 24
3, 75348, Note_on_c, 1, 35, 0
3, 75360, Note_on_c, 1, 36, 64
3, 75365, Note_on_c, 1, 49, 0
3, 75567, Note_on_c, 1, 34, 32
3, 75583, Note_on_c, 1, 36, 0
3, 75602, Note_on_c, 1, 41, 62
3, 75603, Note_on_c, 1, 34, 0
3, 75798, Note_on_c, 1, 34, 50
3, 75809, Note_on_c, 1, 41, 0
3, 75825, Note_on_c, 1, 34, 0
3, 75834, Note_on_c, 1, 35, 64
3, 76037, Note_on_c, 1, 34, 34
3, 76049, Note_on_c, 1, 35, 0
3, 76071, Note_on_c, 1, 34, 0
3, 76078, Note_on_c, 1, 40, 62
3, 76281, Note_on_c, 1, 38, 68
3, 76287, Note_on_c, 1, 40, 0
3, 76313, Note_on_c, 1, 38, 0
3, 76329, Note_on_c, 1, 37, 67
3, 76523, Note_on_c, 1, 34, 35
3, 76542, Note_on_c, 1, 37, 0
3, 76553, Note_on_c, 1, 34, 0
3, 76558, Note_on_c, 1, 36, 58
3, 76761, Note_on_c, 1, 36, 0
3, 76762, Note_on_c, 1, 34, 52
3, 76797, Note_on_c, 1, 34, 0
3, 76801, Note_on_c, 1, 35, 47
3, 76890, Note_on_c, 1, 34, 35
3, 76900, Note_on_c, 1, 35, 0
3, 76914, Note_on_c, 1, 34, 0
3, 76918, Note_on_c, 1, 47, 72
3, 77001, Note_on_c, 1, 39, 33
3, 77005, Note_on_c, 1, 47, 0
3, 77038, Note_on_c, 1, 40, 63
3, 77039, Note_on_c, 1, 39, 0
3, 77145, Note_on_c, 1, 40, 0
3, 77157, Note_on_c, 1, 34, 62
3, 77262, Note_on_c, 1, 34, 0
3, 77278, Note_on_c, 1, 33, 38
3, 77354, Note_on_c, 1, 33, 0
3, 77362, Note_on_c, 1, 40, 75
3, 77384, Note_on_c, 1, 40, 0
3, 77399, Note_on_c, 1, 39, 56
3, 77481, Note_on_c, 1, 39, 0
3, 77486, Note_on_c, 1, 37, 47
3, 77512, Note_on_c, 1, 37, 0
3, 77522, Note_on_c, 1, 38, 47
3, 77599, Note_on_c, 1, 37, 30
3, 77606, Note_on_c, 1, 37, 0
3, 77622, Note_on_c, 1, 38, 0
3, 77638, Note_on_c, 1, 38, 46
3, 77735, Note_on_c, 1, 37, 42
3, 77737, Note_on_c, 1, 38, 0
3, 77754, Note_on_c, 1, 37, 0
3, 77760, Note_on_c, 1, 38, 62
3, 78556, Note_on_c, 1, 38, 0
3, 78684, Note_on_c, 1, 42, 56
3, 78711, Note_on_c, 1, 42, 0
3, 78725, Note_on_c, 1, 43, 45
3, 78825, Note_on_c, 1, 43, 0
3, 78841, Note_on_c, 1, 43, 68
3, 78953, Note_on_c, 1, 43, 0
3, 78972, Note_on_c, 1, 36, 42
3, 79081, Note_on_c, 1, 36, 0
3, 79098, Note_on_c, 1, 36, 66
3, 79198, Note_on_c, 1, 36, 0
3, 79207, Note_on_c, 1, 35, 57
3, 79311, Note_on_c, 1, 35, 0
3, 79328, Note_on_c, 1, 35, 74
3, 79438, Note_on_c, 1, 45, 69
3, 79449, Note_on_c, 1, 35, 0
3, 79553, Note_on_c, 1, 45, 0
3, 79559, Note_on_c, 1, 38, 57
3, 79651, Note_on_c, 1, 37, 48
3, 79663, Note_on_c, 1, 38, 0
3, 79670, Note_on_c, 1, 37, 0
3, 79680, Note_on_c, 1, 43, 80
3, 79792, Note_on_c, 1, 43, 0
3, 79795, Note_on_c, 1, 38, 53
3, 79916, Note_on_c, 1, 38, 0
3, 79919, Note_on_c, 1, 35, 52
3, 80032, Note_on_c, 1, 35, 0
3, 80040, Note_on_c, 1, 39, 86
3, 80155, Note_on_c, 1, 39, 0
3, 80159, Note_on_c, 1, 38, 66
3, 80251, Note_on_c, 1, 34, 31
3, 80271, Note_on_c, 1, 38, 0
3, 80277, Note_on_c, 1, 45, 99
3, 80279, Note_on_c, 1, 34, 0
3, 80396, Note_on_c, 1, 45, 0
3, 80396, Note_on_c, 1, 43, 55
3, 80507, Note_on_c, 1, 43, 0
3, 80516, Note_on_c, 1, 50, 76
3, 80640, Note_on_c, 1, 50, 0
3, 80644, Note_on_c, 1, 48, 67
3, 80749, Note_on_c, 1, 48, 0
3, 80763, Note_on_c, 1, 48, 75
3, 80853, Note_on_c, 1, 38, 36
3, 80871, Note_on_c, 1, 38, 0
3, 80871, Note_on_c, 1, 48, 0
3, 80894, Note_on_c, 1, 36, 58
3, 81005, Note_on_c, 1, 48, 75
3, 81009, Note_on_c, 1, 36, 0
3, 81112, Note_on_c, 1, 48, 0
3, 81125, Note_on_c, 1, 47, 35
3, 81250, Note_on_c, 1, 35, 57
3, 81271, Note_on_c, 1, 47, 0
3, 81361, Note_on_c, 1, 35, 0
3, 81369, Note_on_c, 1, 40, 62
3, 81482, Note_on_c, 1, 40, 0
3, 81485, Note_on_c, 1, 34, 84
3, 81592, Note_on_c, 1, 34, 0
3, 81602, Note_on_c, 1, 33, 69
3, 81718, Note_on_c, 1, 33, 0
3, 81718, Note_on_c, 1, 40, 88
3, 81824, Note_on_c, 1, 40, 0
3, 81838, Note_on_c, 1, 38, 73
3, 81957, Note_on_c, 1, 38, 0
3, 81964, Note_on_c, 1, 36, 95
3, 81965, Note_on_c, 1, 38, 34
3, 81974, Note_on_c, 1, 38, 0
3, 82077, Note_on_c, 1, 36, 0
3, 82085, Note_on_c, 1, 35, 81
3, 82183, Note_on_c, 1, 33, 19
3, 82192, Note_on_c, 1, 33, 0
3, 82202, Note_on_c, 1, 41, 75
3, 82208, Note_on_c, 1, 35, 0
3, 82296, Note_on_c, 1, 33, 43
3, 82306, Note_on_c, 1, 33, 0
3, 82312, Note_on_c, 1, 41, 0
3, 82320, Note_on_c, 1, 45, 79
3, 82436, Note_on_c, 1, 38, 82
3, 82439, Note_on_c, 1, 45, 0
3, 82526, Note_on_c, 1, 34, 35
3, 82550, Note_on_c, 1, 38, 0
3, 82559, Note_on_c, 1, 43, 95
3, 82565, Note_on_c, 1, 34, 0
3, 82720, Note_on_c, 1, 38, 56
3, 82738, Note_on_c, 1, 43, 0
3, 82745, Note_on_c, 1, 38, 0
3, 82761, Note_on_c, 1, 37, 55
3, 82794, Note_on_c, 1, 37, 0
3, 82803, Note_on_c, 1, 36, 62
3, 82919, Note_on_c, 1, 36, 0
3, 82928, Note_on_c, 1, 34, 69
3, 83042, Note_on_c, 1, 34, 0
3, 83051, Note_on_c, 1, 35, 58
3, 83136, Note_on_c, 1, 34, 37
3, 83141, Note_on_c, 1, 35, 0
3, 83149, Note_on_c, 1, 34, 0
3, 83165, Note_on_c, 1, 40, 68
3, 83246, Note_on_c, 1, 33, 37
3, 83256, Note_on_c, 1, 33, 0
3, 83265, Note_on_c, 1, 40, 0
3, 83279, Note_on_c, 1, 45, 64
3, 83401, Note_on_c, 1, 38, 57
3, 83412, Note_on_c, 1, 45, 0
3, 83515, Note_on_c, 1, 38, 0
3, 83523, Note_on_c, 1, 43, 69
3, 83621, Note_on_c, 1, 43, 0
3, 83638, Note_on_c, 1, 43, 67
3, 83747, Note_on_c, 1, 43, 0
3, 83757, Note_on_c, 1, 35, 66
3, 83857, Note_on_c, 1, 35, 0
3, 83877, Note_on_c, 1, 35, 70
3, 83988, Note_on_c, 1, 35, 0
3, 83994, Note_on_c, 1, 38, 64
3, 84087, Note_on_c, 1, 37, 28
3, 84110, Note_on_c, 1, 37, 0
3, 84114, Note_on_c, 1, 38, 0
3, 84115, Note_on_c, 1, 52, 90
3, 84231, Note_on_c, 1, 52, 0
3, 84238, Note_on_c, 1, 47, 37
3, 84332, Note_on_c, 1, 43, 20
3, 84341, Note_on_c, 1, 43, 0
3, 84344, Note_on_c, 1, 47, 0
3, 84355, Note_on_c, 1, 50, 78
3, 84472, Note_on_c, 1, 48, 68
3, 84482, Note_on_c, 1, 50, 0
3, 84595, Note_on_c, 1, 43, 68
3, 84598, Note_on_c, 1, 48, 0
3, 84719, Note_on_c, 1, 43, 0
3, 84719, Note_on_c, 1, 36, 60
3, 84807, Note_on_c, 1, 43, 50
3, 84816, Note_on_c, 1, 43, 0
3, 84835, Note_on_c, 1, 36, 0
3, 84836, Note_on_c, 1, 54, 83
3, 84948, Note_on_c, 1, 54, 0
3, 84955, Note_on_c, 1, 50, 68
3, 85068, Note_on_c, 1, 50, 0
3, 85079, Note_on_c, 1, 45, 54
3, 85192, Note_on_c, 1, 45, 0
3, 85197, Note_on_c, 1, 40, 66
3, 85291, Note_on_c, 1, 39, 29
3, 85301, Note_on_c, 1, 39, 0
3, 85317, Note_on_c, 1, 40, 0
3, 85317, Note_on_c, 1, 44, 78
3, 85422, Note_on_c, 1, 44, 0
3, 85432, Note_on_c, 1, 45, 60
3, 85531, Note_on_c, 1, 40, 20
3, 85534, Note_on_c, 1, 45, 0
3, 85541, Note_on_c, 1, 40, 0
3, 85552, Note_on_c, 1, 45, 82
3, 85659, Note_on_c, 1, 45, 0
3, 85668, Note_on_c, 1, 38, 58
3, 85777, Note_on_c, 1, 38, 0
3, 85790, Note_on_c, 1, 38, 89
3, 85908, Note_on_c, 1, 47, 90
3, 85926, Note_on_c, 1, 38, 0
3, 85999, Note_on_c, 1, 38, 51
3, 86009, Note_on_c, 1, 38, 0
3, 86017, Note_on_c, 1, 47, 0
3, 86029, Note_on_c, 1, 43, 61
3, 86150, Note_on_c, 1, 43, 0
3, 86152, Note_on_c, 1, 41, 65
3, 86269, Note_on_c, 1, 41, 0
3, 86277, Note_on_c, 1, 35, 78
3, 86398, Note_on_c, 1, 35, 0
3, 86401, Note_on_c, 1, 36, 64
3, 86494, Note_on_c, 1, 34, 50
3, 86518, Note_on_c, 1, 36, 0
3, 86525, Note_on_c, 1, 48, 108
3, 86535, Note_on_c, 1, 34, 0
3, 86632, Note_on_c, 1, 48, 0
3, 86646, Note_on_c, 1, 45, 64
3, 86769, Note_on_c, 1, 39, 77
3, 86775, Note_on_c, 1, 45, 0
3, 86892, Note_on_c, 1, 38, 69
3, 86894, Note_on_c, 1, 39, 0
3, 86985, Note_on_c, 1, 37, 43
3, 87008, Note_on_c, 1, 53, 84
3, 87019, Note_on_c, 1, 37, 0
3, 87020, Note_on_c, 1, 38, 0
3, 87115, Note_on_c, 1, 53, 0
3, 87128, Note_on_c, 1, 52, 66
3, 87243, Note_on_c, 1, 52, 0
3, 87254, Note_on_c, 1, 48, 46
3, 87262, Note_on_c, 1, 48, 0
3, 87301, Note_on_c, 1, 45, 64
3, 87321, Note_on_c, 1, 45, 0
3, 87340, Note_on_c, 1, 41, 80
3, 87356, Note_on_c, 1, 41, 0
3, 87386, Note_on_c, 1, 42, 79
3, 87487, Note_on_c, 1, 42, 0
3, 87492, Note_on_c, 1, 43, 64
3, 87605, Note_on_c, 1, 43, 0
3, 87607, Note_on_c, 1, 31, 71
3, 87717, Note_on_c, 1, 31, 0
3, 87727, Note_on_c, 1, 33, 62
3, 87827, Note_on_c, 1, 33, 0
3, 87831, Note_on_c, 1, 35, 68
3, 87954, Note_on_c, 1, 35, 0
3, 87965, Note_on_c, 1, 36, 57
3, 88055, Note_on_c, 1, 36, 0
3, 88055, Note_on_c, 1, 40, 37
3, 88069, Note_on_c, 1, 40, 0
3, 88087, Note_on_c, 1, 44, 72
3, 88192, Note_on_c, 1, 44, 0
3, 88198, Note_on_c, 1, 47, 64
3, 88280, Note_on_c, 1, 47, 0
3, 88281, Note_on_c, 1, 50, 76
3, 88305, Note_on_c, 1, 50, 0
3, 88322, Note_on_c, 1, 48, 54
3, 88430, Note_on_c, 1, 48, 0
3, 88439, Note_on_c, 1, 45, 51
3, 88550, Note_on_c, 1, 45, 0
3, 88559, Note_on_c, 1, 40, 63
3, 88646, Note_on_c, 1, 39, 43
3, 88661, Note_on_c, 1, 39, 0
3, 88671, Note_on_c, 1, 40, 0
3, 88677, Note_on_c, 1, 43, 75
3, 88773, Note_on_c, 1, 43, 0
3, 88793, Note_on_c, 1, 42, 61
3, 88915, Note_on_c, 1, 42, 0
3, 88921, Note_on_c, 1, 40, 59
3, 89027, Note_on_c, 1, 40, 0
3, 89036, Note_on_c, 1, 41, 62
3, 89157, Note_on_c, 1, 41, 0
3, 89166, Note_on_c, 1, 35, 43
3, 89167, Note_on_c, 1, 36, 38
3, 89177, Note_on_c, 1, 36, 0
3, 89178, Note_on_c, 1, 35, 0
3, 89221, Note_on_c, 1, 36, 8
3, 89247, Note_on_c, 1, 34, 33
3, 89265, Note_on_c, 1, 36, 0
3, 89275, Note_on_c, 1, 34, 0
3, 89276, Note_on_c, 1, 40, 68
3, 89394, Note_on_c, 1, 40, 0
3, 89395, Note_on_c, 1, 35, 60
3, 89466, Note_on_c, 1, 35, 0
3, 89481, Note_on_c, 1, 34, 60
3, 89498, Note_on_c, 1, 34, 0
3, 89516, Note_on_c, 1, 33, 60
3, 89602, Note_on_c, 1, 40, 54
3, 89615, Note_on_c, 1, 40, 0
3, 89624, Note_on_c, 1, 33, 0
3, 89637, Note_on_c, 1, 49, 83
3, 89742, Note_on_c, 1, 49, 0
3, 89758, Note_on_c, 1, 50, 76
3, 89874, Note_on_c, 1, 38, 75
3, 89881, Note_on_c, 1, 50, 0
3, 89998, Note_on_c, 1, 55, 101
3, 90016, Note_on_c, 1, 38, 0
3, 90083, Note_on_c, 1, 38, 48
3, 90098, Note_on_c, 1, 55, 0
3, 90099, Note_on_c, 1, 38, 0
3, 90115, Note_on_c, 1, 54, 61
3, 90215, Note_on_c, 1, 54, 0
3, 90237, Note_on_c, 1, 55, 79
3, 90347, Note_on_c, 1, 55, 0
3, 90360, Note_on_c, 1, 50, 51
3, 90452, Note_on_c, 1, 45, 30
3, 90461, Note_on_c, 1, 45, 0
3, 90471, Note_on_c, 1, 50, 0
3, 90482, Note_on_c, 1, 52, 62
3, 90595, Note_on_c, 1, 52, 0
3, 90604, Note_on_c, 1, 46, 51
3, 90716, Note_on_c, 1, 46, 0
3, 90720, Note_on_c, 1, 47, 43
3, 90840, Note_on_c, 1, 47, 0
3, 90844, Note_on_c, 1, 40, 47
3, 90958, Note_on_c, 1, 40, 0
3, 90961, Note_on_c, 1, 33, 54
3, 91078, Note_on_c, 1, 33, 0
3, 91081, Note_on_c, 1, 38, 73
3, 91198, Note_on_c, 1, 38, 0
3, 91201, Note_on_c, 1, 31, 71
3, 91304, Note_on_c, 1, 31, 0
3, 91319, Note_on_c, 1, 31, 76
3, 91410, Note_on_c, 1, 38, 28
3, 91421, Note_on_c, 1, 38, 0
3, 91438, Note_on_c, 1, 43, 103
3, 91452, Note_on_c, 1, 31, 0
3, 91543, Note_on_c, 1, 43, 0
3, 91562, Note_on_c, 1, 43, 82
3, 91682, Note_on_c, 1, 43, 0
3, 91682, Note_on_c, 1, 38, 68
3, 91771, Note_on_c, 1, 37, 42
3, 91787, Note_on_c, 1, 37, 0
3, 91802, Note_on_c, 1, 42, 82
3, 91813, Note_on_c, 1, 38, 0
3, 91916, Note_on_c, 1, 42, 0
3, 91923, Note_on_c, 1, 43, 72
3, 92041, Note_on_c, 1, 43, 0
3, 92042, Note_on_c, 1, 35, 89
3, 92167, Note_on_c, 1, 35, 0
3, 92167, Note_on_c, 1, 36, 76
3, 92268, Note_on_c, 1, 36, 0
3, 92282, Note_on_c, 1, 36, 78
3, 92400, Note_on_c, 1, 50, 91
3, 92418, Note_on_c, 1, 36, 0
3, 92495, Note_on_c, 1, 36, 30
3, 92506, Note_on_c, 1, 36, 0
3, 92512, Note_on_c, 1, 50, 0
3, 92522, Note_on_c, 1, 48, 71
3, 92634, Note_on_c, 1, 48, 0
3, 92640, Note_on_c, 1, 47, 72
3, 92744, Note_on_c, 1, 47, 0
3, 92759, Note_on_c, 1, 47, 75
3, 92876, Note_on_c, 1, 47, 0
3, 92879, Note_on_c, 1, 40, 66
3, 92999, Note_on_c, 1, 47, 91
3, 93010, Note_on_c, 1, 40, 0
3, 93089, Note_on_c, 1, 40, 47
3, 93099, Note_on_c, 1, 40, 0
3, 93102, Note_on_c, 1, 47, 0
3, 93117, Note_on_c, 1, 45, 82
3, 93238, Note_on_c, 1, 36, 71
3, 93239, Note_on_c, 1, 45, 0
3, 93357, Note_on_c, 1, 36, 0
3, 93361, Note_on_c, 1, 38, 64
3, 93450, Note_on_c, 1, 34, 37
3, 93479, Note_on_c, 1, 38, 0
3, 93481, Note_on_c, 1, 48, 99
3, 93486, Note_on_c, 1, 34, 0
3, 93591, Note_on_c, 1, 48, 0
3, 93598, Note_on_c, 1, 47, 74
3, 93711, Note_on_c, 1, 47, 0
3, 93716, Note_on_c, 1, 35, 78
3, 93798, Note_on_c, 1, 34, 51
3, 93814, Note_on_c, 1, 34, 0
3, 93835, Note_on_c, 1, 35, 0
3, 93840, Note_on_c, 1, 45, 84
3, 93919, Note_on_c, 1, 35, 38
3, 93932, Note_on_c, 1, 35, 0
3, 93949, Note_on_c, 1, 45, 0
3, 93952, Note_on_c, 1, 44, 77
3, 94057, Note_on_c, 1, 44, 0
3, 94070, Note_on_c, 1, 45, 79
3, 94182, Note_on_c, 1, 45, 0
3, 94189, Note_on_c, 1, 40, 73
3, 94315, Note_on_c, 1, 33, 56
3, 94320, Note_on_c, 1, 40, 0
3, 94434, Note_on_c, 1, 33, 0
3, 94436, Note_on_c, 1, 39, 64
3, 94526, Note_on_c, 1, 34, 55
3, 94527, Note_on_c, 1, 39, 0
3, 94555, Note_on_c, 1, 34, 0
3, 94559, Note_on_c, 1, 36, 58
3, 94648, Note_on_c, 1, 34, 32
3, 94664, Note_on_c, 1, 36, 0
3, 94677, Note_on_c, 1, 34, 0
3, 94678, Note_on_c, 1, 48, 85
3, 94793, Note_on_c, 1, 41, 59
3, 94796, Note_on_c, 1, 48, 0
3, 94872, Note_on_c, 1, 39, 42
3, 94897, Note_on_c, 1, 39, 0
3, 94912, Note_on_c, 1, 41, 0
3, 94912, Note_on_c, 1, 46, 75
3, 95021, Note_on_c, 1, 46, 0
3, 95029, Note_on_c, 1, 47, 68
3, 95132, Note_on_c, 1, 47, 0
3, 95152, Note_on_c, 1, 47, 53
3, 95252, Note_on_c, 1, 40, 24
3, 95263, Note_on_c, 1, 40, 0
3, 95265, Note_on_c, 1, 47, 0
3, 95273, Note_on_c, 1, 52, 68
3, 95379, Note_on_c, 1, 52, 0
3, 95388, Note_on_c, 1, 50, 72
3, 95493, Note_on_c, 1, 50, 0
3, 95506, Note_on_c, 1, 49, 64
3, 95613, Note_on_c, 1, 49, 0
3, 95630, Note_on_c, 1, 49, 76
3, 95738, Note_on_c, 1, 48, 100
3, 95742, Note_on_c, 1, 49, 0
3, 95853, Note_on_c, 1, 48, 100
3, 95858, Note_on_c, 1, 48, 0
3, 95973, Note_on_c, 1, 48, 0
3, 95995, Note_on_c, 1, 47, 57
3, 96094, Note_on_c, 1, 47, 0
3, 96111, Note_on_c, 1, 47, 55
3, 96194, Note_on_c, 1, 47, 0
3, 96199, Note_on_c, 1, 39, 65
3, 96232, Note_on_c, 1, 39, 0
3, 96239, Note_on_c, 1, 40, 40
3, 96313, Note_on_c, 1, 39, 32
3, 96325, Note_on_c, 1, 40, 0
3, 96335, Note_on_c, 1, 39, 0
3, 96350, Note_on_c, 1, 47, 74
3, 96458, Note_on_c, 1, 47, 0
3, 96465, Note_on_c, 1, 45, 55
3, 96474, Note_on_c, 1, 45, 0
3, 96549, Note_on_c, 1, 40, 62
3, 96570, Note_on_c, 1, 40, 0
3, 96586, Note_on_c, 1, 36, 50
3, 96693, Note_on_c, 1, 36, 0
3, 96704, Note_on_c, 1, 38, 55
3, 96788, Note_on_c, 1, 34, 46
3, 96796, Note_on_c, 1, 34, 0
3, 96809, Note_on_c, 1, 38, 0
3, 96823, Note_on_c, 1, 42, 84
3, 96931, Note_on_c, 1, 42, 0
3, 96948, Note_on_c, 1, 43, 92
3, 97752, Note_on_c, 1, 38, 69
3, 97785, Note_on_c, 1, 38, 0
3, 97827, Note_on_c, 1, 30, 65
3, 97835, Note_on_c, 1, 30, 0
3, 97835, Note_on_c, 1, 29, 53
3, 97843, Note_on_c, 1, 29, 0
3, 97866, Note_on_c, 1, 30, 67
3, 97887, Note_on_c, 1, 30, 0
3, 97907, Note_on_c, 1, 31, 71
3, 97910, Note_on_c, 1, 43, 0
3, 98102, Note_on_c, 1, 30, 52
3, 98105, Note_on_c, 1, 31, 0
3, 98121, Note_on_c, 1, 30, 0
3, 98146, Note_on_c, 1, 36, 56
3, 98341, Note_on_c, 1, 36, 0
3, 98357, Note_on_c, 1, 43, 62
3, 98376, Note_on_c, 1, 43, 0
3, 98399, Note_on_c, 1, 47, 61
3, 98477, Note_on_c, 1, 47, 0
3, 98484, Note_on_c, 1, 36, 36
3, 98496, Note_on_c, 1, 36, 0
3, 98520, Note_on_c, 1, 40, 58
3, 98670, Note_on_c, 1, 40, 0
3, 98683, Note_on_c, 1, 45, 62
3, 98703, Note_on_c, 1, 45, 0
3, 98713, Note_on_c, 1, 40, 64
3, 98735, Note_on_c, 1, 40, 0
3, 98764, Note_on_c, 1, 37, 32
3, 98772, Note_on_c, 1, 37, 0
3, 98772, Note_on_c, 1, 38, 70
3, 98884, Note_on_c, 1, 38, 0
3, 98884, Note_on_c, 1, 43, 57
3, 98976, Note_on_c, 1, 38, 37
3, 98982, Note_on_c, 1, 43, 0
3, 98986, Note_on_c, 1, 38, 0
3, 99000, Note_on_c, 1, 43, 58
3, 99083, Note_on_c, 1, 38, 53
3, 99091, Note_on_c, 1, 43, 0
3, 99098, Note_on_c, 1, 38, 0
3, 99120, Note_on_c, 1, 35, 49
3, 99224, Note_on_c, 1, 35, 0
3, 99234, Note_on_c, 1, 39, 69
3, 99323, Note_on_c, 1, 34, 36
3, 99330, Note_on_c, 1, 39, 0
3, 99352, Note_on_c, 1, 38, 44
3, 99355, Note_on_c, 1, 34, 0
3, 99442, Note_on_c, 1, 34, 35
3, 99480, Note_on_c, 1, 53, 84
3, 99481, Note_on_c, 1, 34, 0
3, 99482, Note_on_c, 1, 38, 0
3, 99582, Note_on_c, 1, 53, 0
3, 99592, Note_on_c, 1, 52, 62
3, 99681, Note_on_c, 1, 43, 36
3, 99693, Note_on_c, 1, 43, 0
3, 99705, Note_on_c, 1, 52, 0
3, 99713, Note_on_c, 1, 50, 65
3, 99833, Note_on_c, 1, 50, 0
3, 99839, Note_on_c, 1, 48, 57
3, 99935, Note_on_c, 1, 48, 0
3, 99954, Note_on_c, 1, 48, 57
3, 100043, Note_on_c, 1, 43, 36
3, 100053, Note_on_c, 1, 43, 0
3, 100054, Note_on_c, 1, 48, 0
3, 100072, Note_on_c, 1, 54, 71
3, 100167, Note_on_c, 1, 43, 33
3, 100177, Note_on_c, 1, 43, 0
3, 100190, Note_on_c, 1, 50, 53
3, 100218, Note_on_c, 1, 54, 0
3, 100286, Note_on_c, 1, 41, 30
3, 100294, Note_on_c, 1, 41, 0
3, 100295, Note_on_c, 1, 50, 0
3, 100310, Note_on_c, 1, 47, 46
3, 100412, Note_on_c, 1, 47, 0
3, 100431, Note_on_c, 1, 47, 56
3, 100537, Note_on_c, 1, 47, 0
3, 100550, Note_on_c, 1, 52, 66
3, 100663, Note_on_c, 1, 52, 0
3, 100673, Note_on_c, 1, 44, 59
3, 100783, Note_on_c, 1, 44, 0
3, 100797, Note_on_c, 1, 48, 71
3, 100914, Note_on_c, 1, 48, 0
3, 100917, Note_on_c, 1, 45, 55
3, 101000, Note_on_c, 1, 37, 34
3, 101017, Note_on_c, 1, 45, 0
3, 101018, Note_on_c, 1, 37, 0
3, 101033, Note_on_c, 1, 38, 46
3, 101127, Note_on_c, 1, 38, 0
3, 101130, Note_on_c, 1, 34, 37
3, 101147, Note_on_c, 1, 34, 0
3, 101156, Note_on_c, 1, 36, 51
3, 101242, Note_on_c, 1, 36, 0
3, 101245, Note_on_c, 1, 34, 35
3, 101262, Note_on_c, 1, 34, 0
3, 101274, Note_on_c, 1, 35, 43
3, 101383, Note_on_c, 1, 35, 0
3, 101391, Note_on_c, 1, 32, 58
3, 101497, Note_on_c, 1, 32, 0
3, 101510, Note_on_c, 1, 33, 62
3, 101608, Note_on_c, 1, 32, 34
3, 101619, Note_on_c, 1, 32, 0
3, 101624, Note_on_c, 1, 33, 0
3, 101630, Note_on_c, 1, 35, 56
3, 101695, Note_on_c, 1, 35, 0
3, 101721, Note_on_c, 1, 36, 49
3, 101729, Note_on_c, 1, 36, 0
3, 101760, Note_on_c, 1, 43, 54
3, 101851, Note_on_c, 1, 43, 0
3, 101854, Note_on_c, 1, 38, 30
3, 101865, Note_on_c, 1, 38, 0
3, 101874, Note_on_c, 1, 45, 71
3, 101964, Note_on_c, 1, 38, 40
3, 101974, Note_on_c, 1, 38, 0
3, 101974, Note_on_c, 1, 45, 0
3, 101995, Note_on_c, 1, 48, 72
3, 102112, Note_on_c, 1, 48, 0
3, 102121, Note_on_c, 1, 43, 53
3, 102208, Note_on_c, 1, 36, 40
3, 102219, Note_on_c, 1, 36, 0
3, 102221, Note_on_c, 1, 43, 0
3, 102241, Note_on_c, 1, 47, 60
3, 102358, Note_on_c, 1, 35, 57
3, 102359, Note_on_c, 1, 47, 0
3, 102466, Note_on_c, 1, 35, 0
3, 102474, Note_on_c, 1, 45, 74
3, 102592, Note_on_c, 1, 38, 53
3, 102598, Note_on_c, 1, 45, 0
3, 102680, Note_on_c, 1, 37, 37
3, 102697, Note_on_c, 1, 37, 0
3, 102702, Note_on_c, 1, 43, 87
3, 102716, Note_on_c, 1, 38, 0
3, 102815, Note_on_c, 1, 43, 0
3, 102822, Note_on_c, 1, 43, 59
3, 102927, Note_on_c, 1, 43, 0
3, 102952, Note_on_c, 1, 40, 59
3, 103065, Note_on_c, 1, 40, 0
3, 103067, Note_on_c, 1, 39, 52
3, 103180, Note_on_c, 1, 39, 0
3, 103186, Note_on_c, 1, 53, 82
3, 103259, Note_on_c, 1, 53, 0
3, 103279, Note_on_c, 1, 48, 82
3, 103300, Note_on_c, 1, 48, 0
3, 103323, Note_on_c, 1, 45, 66
3, 103401, Note_on_c, 1, 41, 35
3, 103411, Note_on_c, 1, 41, 0
3, 103416, Note_on_c, 1, 45, 0
3, 103432, Note_on_c, 1, 43, 56
3, 103511, Note_on_c, 1, 43, 0
3, 103514, Note_on_c, 1, 38, 54
3, 103532, Note_on_c, 1, 38, 0
3, 103551, Note_on_c, 1, 35, 58
3, 103656, Note_on_c, 1, 35, 0
3, 103668, Note_on_c, 1, 36, 50
3, 103761, Note_on_c, 1, 34, 28
3, 103762, Note_on_c, 1, 36, 0
3, 103782, Note_on_c, 1, 34, 0
3, 103791, Note_on_c, 1, 36, 57
3, 103887, Note_on_c, 1, 36, 0
3, 103888, Note_on_c, 1, 34, 23
3, 103899, Note_on_c, 1, 34, 0
3, 103912, Note_on_c, 1, 36, 51
3, 104003, Note_on_c, 1, 34, 25
3, 104020, Note_on_c, 1, 36, 0
3, 104030, Note_on_c, 1, 48, 81
3, 104032, Note_on_c, 1, 34, 0
3, 104128, Note_on_c, 1, 34, 21
3, 104137, Note_on_c, 1, 34, 0
3, 104140, Note_on_c, 1, 48, 0
3, 104151, Note_on_c, 1, 47, 54
3, 104248, Note_on_c, 1, 47, 0
3, 104267, Note_on_c, 1, 47, 50
3, 104355, Note_on_c, 1, 34, 25
3, 104365, Note_on_c, 1, 37, 25
3, 104368, Note_on_c, 1, 47, 0
3, 104373, Note_on_c, 1, 37, 0
3, 104376, Note_on_c, 1, 34, 0
3, 104388, Note_on_c, 1, 40, 55
3, 104502, Note_on_c, 1, 44, 73
3, 104504, Note_on_c, 1, 40, 0
3, 104615, Note_on_c, 1, 44, 0
3, 104628, Note_on_c, 1, 45, 57
3, 104734, Note_on_c, 1, 45, 0
3, 104746, Note_on_c, 1, 52, 75
3, 104856, Note_on_c, 1, 52, 0
3, 104873, Note_on_c, 1, 50, 58
3, 104978, Note_on_c, 1, 50, 0
3, 104988, Note_on_c, 1, 38, 57
3, 105111, Note_on_c, 1, 43, 74
3, 105112, Note_on_c, 1, 38, 0
3, 105208, Note_on_c, 1, 38, 34
3, 105211, Note_on_c, 1, 43, 0
3, 105222, Note_on_c, 1, 38, 0
3, 105235, Note_on_c, 1, 43, 60
3, 105323, Note_on_c, 1, 38, 43
3, 105333, Note_on_c, 1, 38, 0
3, 105342, Note_on_c, 1, 43, 0
3, 105354, Note_on_c, 1, 41, 59
3, 105472, Note_on_c, 1, 41, 0
3, 105477, Note_on_c, 1, 35, 80
3, 105582, Note_on_c, 1, 36, 70
3, 105594, Note_on_c, 1, 35, 0
3, 105772, Note_on_c, 1, 44, 54
3, 105790, Note_on_c, 1, 44, 0
3, 105812, Note_on_c, 1, 36, 0
3, 105815, Note_on_c, 1, 45, 79
3, 105838, Note_on_c, 1, 45, 0
3, 105853, Note_on_c, 1, 48, 70
3, 106047, Note_on_c, 1, 38, 57
3, 106052, Note_on_c, 1, 48, 0
3, 106062, Note_on_c, 1, 38, 0
3, 106083, Note_on_c, 1, 50, 69
3, 106286, Note_on_c, 1, 45, 61
3, 106289, Note_on_c, 1, 50, 0
3, 106294, Note_on_c, 1, 45, 0
3, 106327, Note_on_c, 1, 41, 46
3, 106435, Note_on_c, 1, 41, 0
3, 106438, Note_on_c, 1, 38, 51
3, 106553, Note_on_c, 1, 48, 87
3, 106562, Note_on_c, 1, 38, 0
3, 106739, Note_on_c, 1, 48, 0
3, 106746, Note_on_c, 1, 45, 54
3, 106754, Note_on_c, 1, 38, 28
3, 106763, Note_on_c, 1, 38, 0
3, 106766, Note_on_c, 1, 45, 0
3, 106784, Note_on_c, 1, 47, 51
3, 106859, Note_on_c, 1, 47, 0
3, 106866, Note_on_c, 1, 43, 61
3, 106874, Note_on_c, 1, 43, 0
3, 106900, Note_on_c, 1, 38, 59
3, 107000, Note_on_c, 1, 38, 0
3, 107021, Note_on_c, 1, 36, 61
3, 107230, Note_on_c, 1, 34, 47
3, 107239, Note_on_c, 1, 36, 0
3, 107257, Note_on_c, 1, 34, 0
3, 107265, Note_on_c, 1, 43, 65
3, 107367, Note_on_c, 1, 38, 28
3, 107373, Note_on_c, 1, 43, 0
3, 107378, Note_on_c, 1, 38, 0
3, 107392, Note_on_c, 1, 44, 73
3, 107510, Note_on_c, 1, 44, 0
3, 107514, Note_on_c, 1, 45, 73
3, 107706, Note_on_c, 1, 45, 0
3, 107717, Note_on_c, 1, 52, 60
3, 107737, Note_on_c, 1, 52, 0
3, 107764, Note_on_c, 1, 43, 53
3, 107958, Note_on_c, 1, 39, 46
3, 107967, Note_on_c, 1, 43, 0
3, 107984, Note_on_c, 1, 39, 0
3, 107999, Note_on_c, 1, 42, 52
3, 108197, Note_on_c, 1, 39, 20
3, 108204, Note_on_c, 1, 46, 85
3, 108214, Note_on_c, 1, 42, 0
3, 108214, Note_on_c, 1, 47, 36
3, 108221, Note_on_c, 1, 39, 0
3, 108224, Note_on_c, 1, 47, 0
3, 108228, Note_on_c, 1, 46, 0
3, 108245, Note_on_c, 1, 48, 51
3, 108246, Note_on_c, 1, 47, 64
3, 108258, Note_on_c, 1, 48, 0
3, 108262, Note_on_c, 1, 47, 0
3, 108320, Note_on_c, 1, 41, 45
3, 108334, Note_on_c, 1, 41, 0
3, 108362, Note_on_c, 1, 40, 64
3, 108451, Note_on_c, 1, 40, 0
3, 108473, Note_on_c, 1, 40, 58
3, 108647, Note_on_c, 1, 40, 0
3, 108650, Note_on_c, 1, 35, 51
3, 108659, Note_on_c, 1, 35, 0
3, 108688, Note_on_c, 1, 34, 60
3, 108705, Note_on_c, 1, 34, 0
3, 108730, Note_on_c, 1, 33, 63
3, 108929, Note_on_c, 1, 33, 0
3, 108934, Note_on_c, 1, 37, 52
3, 108959, Note_on_c, 1, 37, 0
3, 108960, Note_on_c, 1, 38, 58
3, 109052, Note_on_c, 1, 37, 34
3, 109070, Note_on_c, 1, 37, 0
3, 109088, Note_on_c, 1, 50, 95
3, 109188, Note_on_c, 1, 38, 0
3, 109415, Note_on_c, 1, 42, 52
3, 109423, Note_on_c, 1, 50, 0
3, 109440, Note_on_c, 1, 43, 32
3, 109441, Note_on_c, 1, 42, 0
3, 109595, Note_on_c, 1, 43, 0
3, 109618, Note_on_c, 1, 38, 35
3, 109630, Note_on_c, 1, 38, 0
3, 109655, Note_on_c, 1, 37, 53
3, 109669, Note_on_c, 1, 37, 0
3, 109698, Note_on_c, 1, 36, 65
3, 109880, Note_on_c, 1, 36, 0
3, 109896, Note_on_c, 1, 34, 42
3, 109917, Note_on_c, 1, 34, 0
3, 109920, Note_on_c, 1, 35, 44
3, 110105, Note_on_c, 1, 35, 0
3, 110116, Note_on_c, 1, 28, 45
3, 110145, Note_on_c, 1, 28, 0
3, 110162, Note_on_c, 1, 33, 26
3, 110230, Note_on_c, 1, 33, 0
3, 110247, Note_on_c, 1, 31, 35
3, 110259, Note_on_c, 1, 31, 0
3, 110275, Note_on_c, 1, 31, 74
3, 110370, Note_on_c, 1, 31, 0
3, 110387, Note_on_c, 1, 31, 64
3, 110599, Note_on_c, 1, 31, 0
3, 110605, Note_on_c, 1, 38, 38
3, 110620, Note_on_c, 1, 38, 0
3, 110640, Note_on_c, 1, 43, 58
3, 110730, Note_on_c, 1, 39, 35
3, 110746, Note_on_c, 1, 43, 0
3, 110749, Note_on_c, 1, 39, 0
3, 110761, Note_on_c, 1, 51, 85
3, 110862, Note_on_c, 1, 51, 0
3, 110880, Note_on_c, 1, 50, 60
3, 111041, Note_on_c, 1, 50, 0
3, 111047, Note_on_c, 1, 48, 63
3, 111057, Note_on_c, 1, 48, 0
3, 111088, Note_on_c, 1, 42, 44
3, 111112, Note_on_c, 1, 42, 0
3, 111120, Note_on_c, 1, 43, 51
3, 111237, Note_on_c, 1, 43, 0
3, 111237, Note_on_c, 1, 47, 62
3, 111309, Note_on_c, 1, 47, 0
3, 111310, Note_on_c, 1, 38, 43
3, 111326, Note_on_c, 1, 38, 0
3, 111342, Note_on_c, 1, 48, 66
3, 111541, Note_on_c, 1, 48, 0
3, 111568, Note_on_c, 1, 36, 30
3, 111597, Note_on_c, 1, 54, 70
3, 111598, Note_on_c, 1, 36, 0
3, 111789, Note_on_c, 1, 43, 42
3, 111798, Note_on_c, 1, 43, 0
3, 111818, Note_on_c, 1, 54, 0
3, 111830, Note_on_c, 1, 52, 54
3, 111934, Note_on_c, 1, 52, 0
3, 111945, Note_on_c, 1, 47, 42
3, 112067, Note_on_c, 1, 47, 0
3, 112067, Note_on_c, 1, 50, 46
3, 112172, Note_on_c, 1, 50, 0
3, 112187, Note_on_c, 1, 40, 52
3, 112307, Note_on_c, 1, 48, 74
3, 112320, Note_on_c, 1, 40, 0
3, 112528, Note_on_c, 1, 37, 40
3, 112544, Note_on_c, 1, 48, 0
3, 112556, Note_on_c, 1, 37, 0
3, 112560, Note_on_c, 1, 38, 50
3, 112740, Note_on_c, 1, 38, 0
3, 112764, Note_on_c, 1, 36, 54
3, 112776, Note_on_c, 1, 36, 0
3, 112803, Note_on_c, 1, 35, 54
3, 113046, Note_on_c, 1, 40, 90
3, 113058, Note_on_c, 1, 35, 0
3, 113256, Note_on_c, 1, 37, 25
3, 113278, Note_on_c, 1, 40, 0
3, 113282, Note_on_c, 1, 45, 91
3, 113287, Note_on_c, 1, 37, 0
3, 113520, Note_on_c, 1, 45, 0
3, 113520, Note_on_c, 1, 33, 38
3, 113613, Note_on_c, 1, 49, 56
3, 113758, Note_on_c, 1, 33, 0
3, 113760, Note_on_c, 1, 36, 61
3, 113780, Note_on_c, 1, 49, 0
3, 114101, Note_on_c, 1, 36, 0
3, 114103, Note_on_c, 1, 34, 32
3, 114129, Note_on_c, 1, 34, 0
3, 114129, Note_on_c, 1, 41, 58
3, 114228, Note_on_c, 1, 41, 0
3, 114241, Note_on_c, 1, 35, 50
3, 114470, Note_on_c, 1, 35, 0
3, 114477, Note_on_c, 1, 40, 66
3, 114645, Note_on_c, 1, 39, 55
3, 114647, Note_on_c, 1, 40, 0
3, 114663, Note_on_c, 1, 39, 0
3, 114686, Note_on_c, 1, 38, 36
3, 114697, Note_on_c, 1, 38, 0
3, 114716, Note_on_c, 1, 37, 59
3, 114931, Note_on_c, 1, 34, 25
3, 114945, Note_on_c, 1, 37, 0
3, 114949, Note_on_c, 1, 34, 0
3, 114958, Note_on_c, 1, 36, 68
3, 115080, Note_on_c, 1, 35, 64
3, 115185, Note_on_c, 1, 36, 0
3, 115310, Note_on_c, 1, 35, 0
3, 115445, Note_on_c, 1, 40, 84
3, 115675, Note_on_c, 1, 45, 91
3, 115684, Note_on_c, 1, 40, 0
3, 115907, Note_on_c, 1, 45, 0
3, 115917, Note_on_c, 1, 38, 60
3, 116091, Note_on_c, 1, 38, 0
3, 116131, Note_on_c, 1, 43, 66
3, 116139, Note_on_c, 1, 43, 0
3, 116235, Note_on_c, 1, 35, 82
3, 116439, Note_on_c, 1, 35, 0
3, 116444, Note_on_c, 1, 36, 62
3, 116460, Note_on_c, 1, 36, 0
3, 116482, Note_on_c, 1, 37, 64
3, 116496, Note_on_c, 1, 37, 0
3, 116640, Note_on_c, 1, 38, 61
3, 116736, Note_on_c, 1, 38, 0
3, 116755, Note_on_c, 1, 30, 42
3, 116837, Note_on_c, 1, 30, 0
3, 116843, Note_on_c, 1, 31, 58
3, 117472, Note_on_c, 1, 31, 0
3, 117472, End_track
4, 0, Start_track
4, 0, Title_t, "Drums - brush set"
4, 0, End_track
5, 0, Start_track
5, 0, Title_t, ""
5, 59507, Note_on_c, 9, 46, 44
5, 59510, Note_on_c, 9, 36, 62
5, 59514, Note_on_c, 9, 51, 39
5, 59515, Note_on_c, 9, 46, 0
5, 59516, Note_on_c, 9, 59, 67
5, 59523, Note_on_c, 9, 59, 0
5, 59525, Note_on_c, 9, 36, 0
5, 59526, Note_on_c, 9, 51, 0
5, 59639, Note_on_c, 9, 59, 80
5, 59640, Note_on_c, 9, 44, 69
5, 59706, Note_on_c, 9, 44, 0
5, 59714, Note_on_c, 9, 59, 0
5, 59754, Note_on_c, 9, 59, 74
5, 59826, Note_on_c, 9, 59, 0
5, 59850, Note_on_c, 9, 59, 64
5, 59867, Note_on_c, 9, 59, 0
5, 59880, Note_on_c, 9, 44, 67
5, 59881, Note_on_c, 9, 59, 87
5, 59936, Note_on_c, 9, 44, 0
5, 59963, Note_on_c, 9, 59, 0
5, 60006, Note_on_c, 9, 59, 94
5, 60085, Note_on_c, 9, 59, 0
5, 60120, Note_on_c, 9, 44, 56
5, 60123, Note_on_c, 9, 59, 91
5, 60193, Note_on_c, 9, 44, 0
5, 60200, Note_on_c, 9, 36, 24
5, 60205, Note_on_c, 9, 59, 0
5, 60211, Note_on_c, 9, 36, 0
5, 60215, Note_on_c, 9, 59, 65
5, 60231, Note_on_c, 9, 59, 0
5, 60240, Note_on_c, 9, 36, 27
5, 60242, Note_on_c, 9, 59, 95
5, 60272, Note_on_c, 9, 36, 0
5, 60336, Note_on_c, 9, 59, 0
5, 60360, Note_on_c, 9, 59, 95
5, 60360, Note_on_c, 9, 44, 64
5, 60440, Note_on_c, 9, 36, 50
5, 60442, Note_on_c, 9, 44, 0
5, 60443, Note_on_c, 9, 59, 0
5, 60449, Note_on_c, 9, 36, 0
5, 60457, Note_on_c, 9, 59, 68
5, 60464, Note_on_c, 9, 59, 0
5, 60480, Note_on_c, 9, 59, 91
5, 60565, Note_on_c, 9, 59, 0
5, 60598, Note_on_c, 9, 59, 94
5, 60600, Note_on_c, 9, 44, 63
5, 60644, Note_on_c, 9, 44, 0
5, 60673, Note_on_c, 9, 59, 0
5, 60690, Note_on_c, 9, 59, 58
5, 60707, Note_on_c, 9, 59, 0
5, 60720, Note_on_c, 9, 59, 91
5, 60800, Note_on_c, 9, 59, 0
5, 60834, Note_on_c, 9, 59, 94
5, 60840, Note_on_c, 9, 46, 38
5, 60865, Note_on_c, 9, 46, 0
5, 60912, Note_on_c, 9, 59, 0
5, 60954, Note_on_c, 9, 59, 96
5, 61030, Note_on_c, 9, 59, 0
5, 61045, Note_on_c, 9, 59, 68
5, 61057, Note_on_c, 9, 59, 0
5, 61073, Note_on_c, 9, 59, 91
5, 61080, Note_on_c, 9, 44, 53
5, 61128, Note_on_c, 9, 44, 0
5, 61162, Note_on_c, 9, 59, 0
5, 61192, Note_on_c, 9, 59, 88
5, 61271, Note_on_c, 9, 59, 0
5, 61308, Note_on_c, 9, 59, 92
5, 61320, Note_on_c, 9, 44, 57
5, 61348, Note_on_c, 9, 44, 0
5, 61386, Note_on_c, 9, 59, 0
5, 61400, Note_on_c, 9, 36, 57
5, 61404, Note_on_c, 9, 59, 62
5, 61422, Note_on_c, 9, 59, 0
5, 61423, Note_on_c, 9, 36, 0
5, 61435, Note_on_c, 9, 59, 85
5, 61440, Note_on_c, 9, 36, 44
5, 61501, Note_on_c, 9, 36, 0
5, 61520, Note_on_c, 9, 36, 47
5, 61525, Note_on_c, 9, 59, 0
5, 61533, Note_on_c, 9, 36, 0
5, 61560, Note_on_c, 9, 59, 90
5, 61560, Note_on_c, 9, 44, 53
5, 61588, Note_on_c, 9, 44, 0
5, 61635, Note_on_c, 9, 59, 0
5, 61653, Note_on_c, 9, 59, 62
5, 61669, Note_on_c, 9, 59, 0
5, 61681, Note_on_c, 9, 59, 94
5, 61769, Note_on_c, 9, 59, 0
5, 61799, Note_on_c, 9, 59, 94
5, 61800, Note_on_c, 9, 44, 50
5, 61838, Note_on_c, 9, 44, 0
5, 61870, Note_on_c, 9, 59, 0
5, 61914, Note_on_c, 9, 59, 88
5, 61987, Note_on_c, 9, 59, 0
5, 62010, Note_on_c, 9, 59, 56
5, 62019, Note_on_c, 9, 59, 0
5, 62036, Note_on_c, 9, 59, 88
5, 62040, Note_on_c, 9, 44, 50
5, 62064, Note_on_c, 9, 44, 0
5, 62123, Note_on_c, 9, 59, 0
5, 62156, Note_on_c, 9, 59, 89
5, 62233, Note_on_c, 9, 59, 0
5, 62248, Note_on_c, 9, 59, 66
5, 62259, Note_on_c, 9, 59, 0
5, 62276, Note_on_c, 9, 59, 90
5, 62280, Note_on_c, 9, 44, 49
5, 62311, Note_on_c, 9, 44, 0
5, 62354, Note_on_c, 9, 59, 0
5, 62399, Note_on_c, 9, 59, 95
5, 62459, Note_on_c, 9, 59, 0
5, 62515, Note_on_c, 9, 59, 99
5, 62520, Note_on_c, 9, 46, 45
5, 62520, Note_on_c, 9, 37, 49
5, 62540, Note_on_c, 9, 37, 0
5, 62547, Note_on_c, 9, 46, 0
5, 62563, Note_on_c, 9, 59, 0
5, 62609, Note_on_c, 9, 59, 58
5, 62619, Note_on_c, 9, 59, 0
5, 62635, Note_on_c, 9, 59, 83
5, 62708, Note_on_c, 9, 59, 0
5, 62725, Note_on_c, 9, 59, 62
5, 62733, Note_on_c, 9, 59, 0
5, 62757, Note_on_c, 9, 59, 90
5, 62760, Note_on_c, 9, 44, 37
5, 62801, Note_on_c, 9, 44, 0
5, 62819, Note_on_c, 9, 59, 0
5, 62840, Note_on_c, 9, 59, 94
5, 62840, Note_on_c, 9, 36, 56
5, 62865, Note_on_c, 9, 36, 0
5, 62880, Note_on_c, 9, 36, 32
5, 62904, Note_on_c, 9, 36, 0
5, 62916, Note_on_c, 9, 59, 0
5, 62951, Note_on_c, 9, 59, 55
5, 62960, Note_on_c, 9, 59, 0
5, 62992, Note_on_c, 9, 59, 95
5, 62993, Note_on_c, 9, 53, 80
5, 63000, Note_on_c, 9, 44, 52
5, 63014, Note_on_c, 9, 59, 0
5, 63019, Note_on_c, 9, 53, 0
5, 63038, Note_on_c, 9, 44, 0
5, 63075, Note_on_c, 9, 59, 89
5, 63075, Note_on_c, 9, 53, 80
5, 63115, Note_on_c, 9, 59, 0
5, 63127, Note_on_c, 9, 53, 0
5, 63147, Note_on_c, 9, 59, 68
5, 63160, Note_on_c, 9, 59, 0
5, 63188, Note_on_c, 9, 59, 84
5, 63190, Note_on_c, 9, 53, 77
5, 63200, Note_on_c, 9, 46, 55
5, 63212, Note_on_c, 9, 59, 0
5, 63215, Note_on_c, 9, 53, 0
5, 63225, Note_on_c, 9, 46, 0
5, 63232, Note_on_c, 9, 59, 84
5, 63233, Note_on_c, 9, 53, 75
5, 63272, Note_on_c, 9, 59, 0
5, 63273, Note_on_c, 9, 53, 0
5, 63310, Note_on_c, 9, 53, 94
5, 63316, Note_on_c, 9, 59, 90
5, 63330, Note_on_c, 9, 59, 0
5, 63336, Note_on_c, 9, 53, 0
5, 63355, Note_on_c, 9, 59, 95
5, 63360, Note_on_c, 9, 46, 52
5, 63375, Note_on_c, 9, 46, 0
5, 63432, Note_on_c, 9, 59, 0
5, 63478, Note_on_c, 9, 59, 88
5, 63480, Note_on_c, 9, 44, 55
5, 63512, Note_on_c, 9, 44, 0
5, 63550, Note_on_c, 9, 59, 0
5, 63601, Note_on_c, 9, 59, 82
5, 63672, Note_on_c, 9, 59, 0
5, 63680, Note_on_c, 9, 36, 32
5, 63690, Note_on_c, 9, 36, 0
5, 63720, Note_on_c, 9, 46, 32
5, 63721, Note_on_c, 9, 59, 87
5, 63744, Note_on_c, 9, 46, 0
5, 63796, Note_on_c, 9, 59, 0
5, 63813, Note_on_c, 9, 59, 58
5, 63820, Note_on_c, 9, 59, 0
5, 63838, Note_on_c, 9, 59, 82
5, 63840, Note_on_c, 9, 36, 43
5, 63855, Note_on_c, 9, 36, 0
5, 63919, Note_on_c, 9, 59, 0
5, 63959, Note_on_c, 9, 59, 88
5, 63960, Note_on_c, 9, 44, 40
5, 63989, Note_on_c, 9, 44, 0
5, 64026, Note_on_c, 9, 59, 0
5, 64040, Note_on_c, 9, 36, 39
5, 64042, Note_on_c, 9, 59, 71
5, 64052, Note_on_c, 9, 36, 0
5, 64058, Note_on_c, 9, 59, 0
5, 64072, Note_on_c, 9, 59, 83
5, 64147, Note_on_c, 9, 59, 0
5, 64191, Note_on_c, 9, 59, 91
5, 64200, Note_on_c, 9, 44, 49
5, 64235, Note_on_c, 9, 44, 0
5, 64258, Note_on_c, 9, 59, 0
5, 64278, Note_on_c, 9, 59, 62
5, 64293, Note_on_c, 9, 59, 0
5, 64308, Note_on_c, 9, 59, 83
5, 64383, Note_on_c, 9, 59, 0
5, 64429, Note_on_c, 9, 59, 89
5, 64440, Note_on_c, 9, 44, 51
5, 64481, Note_on_c, 9, 44, 0
5, 64490, Note_on_c, 9, 59, 0
5, 64519, Note_on_c, 9, 59, 64
5, 64531, Note_on_c, 9, 59, 0
5, 64548, Note_on_c, 9, 59, 81
5, 64623, Note_on_c, 9, 59, 0
5, 64666, Note_on_c, 9, 59, 87
5, 64680, Note_on_c, 9, 44, 57
5, 64718, Note_on_c, 9, 44, 0
5, 64739, Note_on_c, 9, 59, 0
5, 64786, Note_on_c, 9, 59, 85
5, 64854, Note_on_c, 9, 59, 0
5, 64885, Note_on_c, 9, 59, 55
5, 64896, Note_on_c, 9, 59, 0
5, 64914, Note_on_c, 9, 59, 73
5, 64920, Note_on_c, 9, 44, 61
5, 64920, Note_on_c, 9, 59, 28
5, 64934, Note_on_c, 9, 59, 0
5, 64962, Note_on_c, 9, 44, 0
5, 64993, Note_on_c, 9, 59, 0
5, 65000, Note_on_c, 9, 59, 60
5, 65010, Note_on_c, 9, 59, 0
5, 65036, Note_on_c, 9, 59, 80
5, 65110, Note_on_c, 9, 59, 0
5, 65120, Note_on_c, 9, 36, 47
5, 65133, Note_on_c, 9, 36, 0
5, 65157, Note_on_c, 9, 59, 84
5, 65160, Note_on_c, 9, 44, 67
5, 65160, Note_on_c, 9, 36, 49
5, 65199, Note_on_c, 9, 36, 0
5, 65207, Note_on_c, 9, 44, 0
5, 65222, Note_on_c, 9, 59, 0
5, 65240, Note_on_c, 9, 36, 57
5, 65248, Note_on_c, 9, 59, 55
5, 65262, Note_on_c, 9, 59, 0
5, 65269, Note_on_c, 9, 36, 0
5, 65278, Note_on_c, 9, 59, 80
5, 65348, Note_on_c, 9, 59, 0
5, 65398, Note_on_c, 9, 59, 85
5, 65400, Note_on_c, 9, 44, 56
5, 65451, Note_on_c, 9, 44, 0
5, 65457, Note_on_c, 9, 59, 0
5, 65486, Note_on_c, 9, 59, 59
5, 65498, Note_on_c, 9, 59, 0
5, 65519, Note_on_c, 9, 59, 76
5, 65585, Note_on_c, 9, 59, 0
5, 65639, Note_on_c, 9, 59, 87
5, 65640, Note_on_c, 9, 44, 58
5, 65678, Note_on_c, 9, 44, 0
5, 65708, Note_on_c, 9, 59, 0
5, 65730, Note_on_c, 9, 59, 57
5, 65739, Note_on_c, 9, 59, 0
5, 65760, Note_on_c, 9, 59, 75
5, 65829, Note_on_c, 9, 59, 0
5, 65877, Note_on_c, 9, 59, 87
5, 65880, Note_on_c, 9, 44, 61
5, 65915, Note_on_c, 9, 44, 0
5, 65939, Note_on_c, 9, 59, 0
5, 65985, Note_on_c, 9, 59, 87
5, 66052, Note_on_c, 9, 59, 0
5, 66077, Note_on_c, 9, 59, 55
5, 66080, Note_on_c, 9, 36, 36
5, 66089, Note_on_c, 9, 59, 0
5, 66091, Note_on_c, 9, 36, 0
5, 66105, Note_on_c, 9, 59, 85
5, 66120, Note_on_c, 9, 44, 58
5, 66158, Note_on_c, 9, 44, 0
5, 66180, Note_on_c, 9, 59, 0
5, 66228, Note_on_c, 9, 59, 87
5, 66240, Note_on_c, 9, 36, 44
5, 66255, Note_on_c, 9, 36, 0
5, 66301, Note_on_c, 9, 59, 0
5, 66354, Note_on_c, 9, 59, 82
5, 66360, Note_on_c, 9, 44, 61
5, 66396, Note_on_c, 9, 44, 0
5, 66428, Note_on_c, 9, 59, 0
5, 66448, Note_on_c, 9, 59, 51
5, 66462, Note_on_c, 9, 59, 0
5, 66480, Note_on_c, 9, 59, 75
5, 66554, Note_on_c, 9, 59, 0
5, 66600, Note_on_c, 9, 44, 64
5, 66603, Note_on_c, 9, 59, 91
5, 66646, Note_on_c, 9, 44, 0
5, 66666, Note_on_c, 9, 59, 0
5, 66689, Note_on_c, 9, 59, 50
5, 66701, Note_on_c, 9, 59, 0
5, 66721, Note_on_c, 9, 59, 75
5, 66785, Note_on_c, 9, 59, 0
5, 66836, Note_on_c, 9, 59, 96
5, 66840, Note_on_c, 9, 44, 62
5, 66878, Note_on_c, 9, 59, 0
5, 66902, Note_on_c, 9, 44, 0
5, 66925, Note_on_c, 9, 59, 55
5, 66934, Note_on_c, 9, 59, 0
5, 66955, Note_on_c, 9, 59, 80
5, 67019, Note_on_c, 9, 59, 0
5, 67040, Note_on_c, 9, 36, 35
5, 67050, Note_on_c, 9, 36, 0
5, 67076, Note_on_c, 9, 59, 90
5, 67080, Note_on_c, 9, 44, 65
5, 67080, Note_on_c, 9, 37, 67
5, 67098, Note_on_c, 9, 37, 0
5, 67124, Note_on_c, 9, 59, 0
5, 67137, Note_on_c, 9, 44, 0
5, 67156, Note_on_c, 9, 51, 75
5, 67160, Note_on_c, 9, 57, 66
5, 67160, Note_on_c, 9, 36, 60
5, 67168, Note_on_c, 9, 57, 0
5, 67171, Note_on_c, 9, 51, 0
5, 67180, Note_on_c, 9, 36, 0
5, 67191, Note_on_c, 9, 51, 69
5, 67196, Note_on_c, 9, 46, 48
5, 67200, Note_on_c, 9, 36, 48
5, 67238, Note_on_c, 9, 36, 0
5, 67250, Note_on_c, 9, 46, 0
5, 67250, Note_on_c, 9, 51, 0
5, 67323, Note_on_c, 9, 51, 73
5, 67324, Note_on_c, 9, 46, 34
5, 67387, Note_on_c, 9, 46, 0
5, 67391, Note_on_c, 9, 51, 0
5, 67400, Note_on_c, 9, 36, 55
5, 67408, Note_on_c, 9, 36, 0
5, 67450, Note_on_c, 9, 51, 71
5, 67450, Note_on_c, 9, 46, 29
5, 67512, Note_on_c, 9, 46, 0
5, 67515, Note_on_c, 9, 51, 0
5, 67571, Note_on_c, 9, 51, 74
5, 67573, Note_on_c, 9, 46, 32
5, 67626, Note_on_c, 9, 51, 0
5, 67630, Note_on_c, 9, 46, 0
5, 67654, Note_on_c, 9, 51, 60
5, 67672, Note_on_c, 9, 51, 0
5, 67685, Note_on_c, 9, 46, 26
5, 67686, Note_on_c, 9, 51, 71
5, 67757, Note_on_c, 9, 51, 0
5, 67762, Note_on_c, 9, 46, 0
5, 67801, Note_on_c, 9, 51, 74
5, 67805, Note_on_c, 9, 46, 29
5, 67867, Note_on_c, 9, 51, 0
5, 67871, Note_on_c, 9, 46, 0
5, 67917, Note_on_c, 9, 51, 74
5, 67918, Note_on_c, 9, 46, 30
5, 67980, Note_on_c, 9, 51, 0
5, 67987, Note_on_c, 9, 46, 0
5, 68033, Note_on_c, 9, 51, 70
5, 68033, Note_on_c, 9, 46, 30
5, 68085, Note_on_c, 9, 51, 0
5, 68096, Note_on_c, 9, 46, 0
5, 68116, Note_on_c, 9, 51, 60
5, 68120, Note_on_c, 9, 36, 66
5, 68134, Note_on_c, 9, 51, 0
5, 68141, Note_on_c, 9, 36, 0
5, 68148, Note_on_c, 9, 51, 71
5, 68148, Note_on_c, 9, 46, 30
5, 68220, Note_on_c, 9, 51, 0
5, 68228, Note_on_c, 9, 46, 0
5, 68267, Note_on_c, 9, 51, 76
5, 68269, Note_on_c, 9, 46, 32
5, 68333, Note_on_c, 9, 51, 0
5, 68342, Note_on_c, 9, 46, 0
5, 68356, Note_on_c, 9, 51, 44
5, 68372, Note_on_c, 9, 51, 0
5, 68386, Note_on_c, 9, 51, 65
5, 68388, Note_on_c, 9, 46, 30
5, 68462, Note_on_c, 9, 51, 0
5, 68466, Note_on_c, 9, 46, 0
5, 68507, Note_on_c, 9, 51, 73
5, 68509, Note_on_c, 9, 46, 30
5, 68575, Note_on_c, 9, 51, 0
5, 68579, Note_on_c, 9, 46, 0
5, 68606, Note_on_c, 9, 51, 48
5, 68618, Note_on_c, 9, 51, 0
5, 68633, Note_on_c, 9, 51, 60
5, 68633, Note_on_c, 9, 46, 30
5, 68705, Note_on_c, 9, 51, 0
5, 68709, Note_on_c, 9, 46, 0
5, 68758, Note_on_c, 9, 51, 73
5, 68759, Note_on_c, 9, 46, 30
5, 68828, Note_on_c, 9, 51, 0
5, 68832, Note_on_c, 9, 46, 0
5, 68879, Note_on_c, 9, 51, 71
5, 68880, Note_on_c, 9, 46, 30
5, 68943, Note_on_c, 9, 51, 0
5, 68949, Note_on_c, 9, 46, 0
5, 68960, Note_on_c, 9, 36, 36
5, 68966, Note_on_c, 9, 51, 46
5, 68971, Note_on_c, 9, 36, 0
5, 68982, Note_on_c, 9, 51, 0
5, 68994, Note_on_c, 9, 46, 36
5, 68995, Note_on_c, 9, 51, 71
5, 69000, Note_on_c, 9, 46, 50
5, 69034, Note_on_c, 9, 46, 0
5, 69072, Note_on_c, 9, 51, 0
5, 69078, Note_on_c, 9, 46, 0
5, 69080, Note_on_c, 9, 36, 45
5, 69090, Note_on_c, 9, 36, 0
5, 69116, Note_on_c, 9, 51, 71
5, 69116, Note_on_c, 9, 46, 34
5, 69120, Note_on_c, 9, 46, 37
5, 69120, Note_on_c, 9, 36, 27
5, 69147, Note_on_c, 9, 36, 0
5, 69155, Note_on_c, 9, 46, 0
5, 69184, Note_on_c, 9, 51, 0
5, 69191, Note_on_c, 9, 46, 0
5, 69234, Note_on_c, 9, 51, 69
5, 69234, Note_on_c, 9, 46, 34
5, 69306, Note_on_c, 9, 51, 0
5, 69312, Note_on_c, 9, 46, 0
5, 69351, Note_on_c, 9, 51, 70
5, 69353, Note_on_c, 9, 46, 30
5, 69412, Note_on_c, 9, 51, 0
5, 69420, Note_on_c, 9, 46, 0
5, 69440, Note_on_c, 9, 36, 34
5, 69441, Note_on_c, 9, 51, 43
5, 69452, Note_on_c, 9, 36, 0
5, 69456, Note_on_c, 9, 51, 0
5, 69472, Note_on_c, 9, 51, 59
5, 69472, Note_on_c, 9, 46, 32
5, 69480, Note_on_c, 9, 36, 32
5, 69505, Note_on_c, 9, 36, 0
5, 69545, Note_on_c, 9, 51, 0
5, 69550, Note_on_c, 9, 46, 0
5, 69590, Note_on_c, 9, 51, 69
5, 69591, Note_on_c, 9, 46, 32
5, 69659, Note_on_c, 9, 51, 0
5, 69661, Note_on_c, 9, 46, 0
5, 69709, Note_on_c, 9, 51, 69
5, 69709, Note_on_c, 9, 46, 33
5, 69761, Note_on_c, 9, 51, 0
5, 69764, Note_on_c, 9, 46, 0
5, 69800, Note_on_c, 9, 51, 74
5, 69802, Note_on_c, 9, 46, 37
5, 69819, Note_on_c, 9, 51, 0
5, 69833, Note_on_c, 9, 51, 60
5, 69904, Note_on_c, 9, 51, 0
5, 69916, Note_on_c, 9, 46, 0
5, 69946, Note_on_c, 9, 51, 69
5, 69947, Note_on_c, 9, 46, 33
5, 70015, Note_on_c, 9, 51, 0
5, 70024, Note_on_c, 9, 46, 0
5, 70071, Note_on_c, 9, 51, 71
5, 70073, Note_on_c, 9, 46, 32
5, 70139, Note_on_c, 9, 46, 0
5, 70139, Note_on_c, 9, 51, 0
5, 70159, Note_on_c, 9, 51, 44
5, 70176, Note_on_c, 9, 51, 0
5, 70191, Note_on_c, 9, 51, 59
5, 70193, Note_on_c, 9, 46, 30
5, 70267, Note_on_c, 9, 51, 0
5, 70272, Note_on_c, 9, 46, 0
5, 70314, Note_on_c, 9, 51, 69
5, 70314, Note_on_c, 9, 46, 32
5, 70380, Note_on_c, 9, 51, 0
5, 70383, Note_on_c, 9, 46, 0
5, 70400, Note_on_c, 9, 59, 70
5, 70407, Note_on_c, 9, 59, 0
5, 70437, Note_on_c, 9, 51, 68
5, 70438, Note_on_c, 9, 46, 33
5, 70494, Note_on_c, 9, 51, 0
5, 70499, Note_on_c, 9, 46, 0
5, 70558, Note_on_c, 9, 51, 67
5, 70558, Note_on_c, 9, 46, 29
5, 70560, Note_on_c, 9, 59, 76
5, 70616, Note_on_c, 9, 46, 0
5, 70616, Note_on_c, 9, 51, 0
5, 70668, Note_on_c, 9, 59, 0
5, 70676, Note_on_c, 9, 51, 69
5, 70677, Note_on_c, 9, 46, 31
5, 70680, Note_on_c, 9, 44, 60
5, 70726, Note_on_c, 9, 46, 0
5, 70726, Note_on_c, 9, 51, 0
5, 70742, Note_on_c, 9, 44, 0
5, 70760, Note_on_c, 9, 59, 95
5, 70760, Note_on_c, 9, 36, 64
5, 70775, Note_on_c, 9, 51, 72
5, 70778, Note_on_c, 9, 36, 0
5, 70787, Note_on_c, 9, 51, 0
5, 70800, Note_on_c, 9, 46, 16
5, 70803, Note_on_c, 9, 51, 69
5, 70864, Note_on_c, 9, 51, 0
5, 70872, Note_on_c, 9, 46, 0
5, 70877, Note_on_c, 9, 59, 0
5, 70880, Note_on_c, 9, 36, 50
5, 70889, Note_on_c, 9, 36, 0
5, 70915, Note_on_c, 9, 46, 36
5, 70917, Note_on_c, 9, 51, 75
5, 70920, Note_on_c, 9, 59, 113
5, 70920, Note_on_c, 9, 44, 64
5, 70943, Note_on_c, 9, 51, 0
5, 70963, Note_on_c, 9, 46, 0
5, 70973, Note_on_c, 9, 44, 0
5, 70996, Note_on_c, 9, 59, 0
5, 71028, Note_on_c, 9, 59, 78
5, 71040, Program_c, 9, 32
5, 71040, Note_on_c, 9, 59, 125
5, 71043, Note_on_c, 9, 59, 0
5, 71118, Note_on_c, 9, 59, 0
5, 71120, Note_on_c, 9, 36, 51
5, 71127, Note_on_c, 9, 44, 67
5, 71136, Note_on_c, 9, 36, 0
5, 71160, Note_on_c, 9, 59, 94
5, 71232, Note_on_c, 9, 44, 0
5, 71233, Note_on_c, 9, 59, 0
5, 71240, Note_on_c, 9, 59, 61
5, 71260, Note_on_c, 9, 59, 0
5, 71280, Note_on_c, 9, 59, 94
5, 71362, Note_on_c, 9, 59, 0
5, 71400, Note_on_c, 9, 59, 95
5, 71407, Note_on_c, 9, 44, 68
5, 71466, Note_on_c, 9, 59, 0
5, 71471, Note_on_c, 9, 44, 0
5, 71520, Note_on_c, 9, 59, 99
5, 71589, Note_on_c, 9, 59, 0
5, 71600, Note_on_c, 9, 59, 58
5, 71618, Note_on_c, 9, 59, 0
5, 71640, Note_on_c, 9, 59, 90
5, 71640, Note_on_c, 9, 44, 64
5, 71708, Note_on_c, 9, 44, 0
5, 71715, Note_on_c, 9, 59, 0
5, 71760, Note_on_c, 9, 59, 91
5, 71830, Note_on_c, 9, 59, 0
5, 71880, Note_on_c, 9, 59, 88
5, 71883, Note_on_c, 9, 44, 64
5, 71947, Note_on_c, 9, 59, 0
5, 71960, Note_on_c, 9, 59, 59
5, 71960, Note_on_c, 9, 36, 54
5, 71968, Note_on_c, 9, 59, 0
5, 71969, Note_on_c, 9, 36, 0
5, 71994, Note_on_c, 9, 44, 0
5, 72000, Note_on_c, 9, 59, 89
5, 72000, Note_on_c, 9, 36, 60
5, 72061, Note_on_c, 9, 36, 0
5, 72071, Note_on_c, 9, 59, 0
5, 72120, Note_on_c, 9, 59, 90
5, 72120, Note_on_c, 9, 44, 67
5, 72188, Note_on_c, 9, 59, 0
5, 72193, Note_on_c, 9, 44, 0
5, 72240, Note_on_c, 9, 59, 87
5, 72304, Note_on_c, 9, 59, 0
5, 72320, Note_on_c, 9, 44, 62
5, 72350, Note_on_c, 9, 44, 0
5, 72360, Note_on_c, 9, 59, 80
5, 72431, Note_on_c, 9, 59, 0
5, 72440, Note_on_c, 9, 36, 42
5, 72449, Note_on_c, 9, 36, 0
5, 72480, Note_on_c, 9, 59, 88
5, 72557, Note_on_c, 9, 59, 0
5, 72560, Note_on_c, 9, 53, 60
5, 72600, Note_on_c, 9, 59, 52
5, 72600, Note_on_c, 9, 44, 64
5, 72601, Note_on_c, 9, 53, 0
5, 72642, Note_on_c, 9, 44, 0
5, 72683, Note_on_c, 9, 59, 0
5, 72720, Note_on_c, 9, 59, 68
5, 72793, Note_on_c, 9, 59, 0
5, 72800, Note_on_c, 9, 59, 51
5, 72808, Note_on_c, 9, 59, 0
5, 72840, Note_on_c, 9, 59, 88
5, 72840, Note_on_c, 9, 44, 68
5, 72882, Note_on_c, 9, 44, 0
5, 72916, Note_on_c, 9, 59, 0
5, 72960, Note_on_c, 9, 59, 90
5, 72960, Note_on_c, 9, 36, 51
5, 72981, Note_on_c, 9, 36, 0
5, 73028, Note_on_c, 9, 59, 0
5, 73080, Note_on_c, 9, 59, 91
5, 73080, Note_on_c, 9, 44, 64
5, 73132, Note_on_c, 9, 44, 0
5, 73149, Note_on_c, 9, 59, 0
5, 73160, Note_on_c, 9, 59, 55
5, 73178, Note_on_c, 9, 59, 0
5, 73200, Note_on_c, 9, 59, 81
5, 73274, Note_on_c, 9, 59, 0
5, 73320, Note_on_c, 9, 59, 84
5, 73320, Note_on_c, 9, 36, 57
5, 73320, Note_on_c, 9, 44, 64
5, 73347, Note_on_c, 9, 36, 0
5, 73380, Note_on_c, 9, 44, 0
5, 73384, Note_on_c, 9, 59, 0
5, 73400, Note_on_c, 9, 59, 48
5, 73400, Note_on_c, 9, 36, 66
5, 73417, Note_on_c, 9, 59, 0
5, 73429, Note_on_c, 9, 36, 0
5, 73440, Note_on_c, 9, 59, 78
5, 73509, Note_on_c, 9, 59, 0
5, 73560, Note_on_c, 9, 59, 88
5, 73560, Note_on_c, 9, 44, 60
5, 73619, Note_on_c, 9, 44, 0
5, 73624, Note_on_c, 9, 59, 0
5, 73640, Note_on_c, 9, 59, 49
5, 73658, Note_on_c, 9, 59, 0
5, 73680, Note_on_c, 9, 59, 78
5, 73745, Note_on_c, 9, 59, 0
5, 73800, Note_on_c, 9, 59, 94
5, 73800, Note_on_c, 9, 44, 48
5, 73849, Note_on_c, 9, 44, 0
5, 73860, Note_on_c, 9, 59, 0
5, 73920, Note_on_c, 9, 59, 92
5, 73979, Note_on_c, 9, 59, 0
5, 74000, Note_on_c, 9, 59, 57
5, 74009, Note_on_c, 9, 59, 0
5, 74040, Note_on_c, 9, 59, 79
5, 74040, Note_on_c, 9, 44, 67
5, 74073, Note_on_c, 9, 44, 0
5, 74116, Note_on_c, 9, 59, 0
5, 74160, Note_on_c, 9, 59, 87
5, 74160, Note_on_c, 9, 36, 36
5, 74172, Note_on_c, 9, 36, 0
5, 74228, Note_on_c, 9, 59, 0
5, 74280, Note_on_c, 9, 59, 81
5, 74280, Note_on_c, 9, 44, 69
5, 74319, Note_on_c, 9, 44, 0
5, 74343, Note_on_c, 9, 59, 0
5, 74360, Note_on_c, 9, 59, 52
5, 74373, Note_on_c, 9, 59, 0
5, 74400, Note_on_c, 9, 59, 76
5, 74463, Note_on_c, 9, 59, 0
5, 74520, Note_on_c, 9, 59, 91
5, 74520, Note_on_c, 9, 44, 71
5, 74552, Note_on_c, 9, 44, 0
5, 74582, Note_on_c, 9, 59, 0
5, 74640, Note_on_c, 9, 59, 89
5, 74705, Note_on_c, 9, 59, 0
5, 74720, Note_on_c, 9, 53, 94
5, 74720, Note_on_c, 9, 51, 69
5, 74767, Note_on_c, 9, 46, 60
5, 74790, Note_on_c, 9, 46, 0
5, 74840, Note_on_c, 9, 37, 47
5, 74849, Note_on_c, 9, 37, 0
5, 74866, Note_on_c, 9, 51, 0
5, 74867, Note_on_c, 9, 53, 0
5, 74880, Note_on_c, 9, 53, 68
5, 74880, Note_on_c, 9, 51, 74
5, 74880, Note_on_c, 9, 57, 89
5, 74880, Note_on_c, 9, 36, 75
5, 74902, Note_on_c, 9, 57, 0
5, 74913, Note_on_c, 9, 36, 0
5, 74958, Note_on_c, 9, 51, 0
5, 74968, Note_on_c, 9, 53, 0
5, 75000, Note_on_c, 9, 53, 68
5, 75000, Note_on_c, 9, 44, 67
5, 75036, Note_on_c, 9, 44, 0
5, 75045, Note_on_c, 9, 53, 0
5, 75120, Note_on_c, 9, 59, 80
5, 75201, Note_on_c, 9, 59, 0
5, 75240, Note_on_c, 9, 59, 84
5, 75240, Note_on_c, 9, 57, 91
5, 75240, Note_on_c, 9, 36, 83
5, 75240, Note_on_c, 9, 44, 68
5, 75256, Note_on_c, 9, 57, 0
5, 75278, Note_on_c, 9, 44, 0
5, 75285, Note_on_c, 9, 36, 0
5, 75310, Note_on_c, 9, 59, 0
5, 75320, Note_on_c, 9, 59, 51
5, 75337, Note_on_c, 9, 59, 0
5, 75360, Note_on_c, 9, 59, 82
5, 75429, Note_on_c, 9, 59, 0
5, 75480, Note_on_c, 9, 59, 105
5, 75480, Note_on_c, 9, 44, 71
5, 75515, Note_on_c, 9, 44, 0
5, 75561, Note_on_c, 9, 59, 0
5, 75600, Note_on_c, 9, 59, 69
5, 75642, Note_on_c, 9, 59, 0
5, 75680, Note_on_c, 9, 59, 66
5, 75697, Note_on_c, 9, 59, 0
5, 75720, Note_on_c, 9, 59, 82
5, 75720, Note_on_c, 9, 44, 71
5, 75764, Note_on_c, 9, 44, 0
5, 75798, Note_on_c, 9, 59, 0
5, 75840, Note_on_c, 9, 59, 65
5, 75889, Note_on_c, 9, 59, 0
5, 75920, Note_on_c, 9, 59, 91
5, 75960, Note_on_c, 9, 44, 73
5, 75998, Note_on_c, 9, 59, 0
5, 76008, Note_on_c, 9, 44, 0
5, 76040, Note_on_c, 9, 59, 46
5, 76050, Note_on_c, 9, 59, 0
5, 76080, Note_on_c, 9, 59, 101
5, 76158, Note_on_c, 9, 59, 0
5, 76200, Note_on_c, 9, 59, 63
5, 76200, Note_on_c, 9, 37, 83
5, 76200, Note_on_c, 9, 44, 75
5, 76244, Note_on_c, 9, 44, 0
5, 76250, Note_on_c, 9, 59, 0
5, 76254, Note_on_c, 9, 37, 0
5, 76280, Note_on_c, 9, 59, 103
5, 76320, Note_on_c, 9, 36, 29
5, 76332, Note_on_c, 9, 36, 0
5, 76371, Note_on_c, 9, 59, 0
5, 76400, Note_on_c, 9, 59, 54
5, 76400, Note_on_c, 9, 36, 65
5, 76413, Note_on_c, 9, 59, 0
5, 76428, Note_on_c, 9, 36, 0
5, 76440, Note_on_c, 9, 53, 68
5, 76440, Note_on_c, 9, 59, 87
5, 76440, Note_on_c, 9, 44, 72
5, 76501, Note_on_c, 9, 44, 0
5, 76501, Note_on_c, 9, 53, 0
5, 76533, Note_on_c, 9, 59, 0
5, 76560, Note_on_c, 9, 59, 59
5, 76560, Note_on_c, 9, 36, 53
5, 76589, Note_on_c, 9, 36, 0
5, 76611, Note_on_c, 9, 59, 0
5, 76640, Note_on_c, 9, 59, 91
5, 76680, Note_on_c, 9, 44, 72
5, 76717, Note_on_c, 9, 44, 0
5, 76744, Note_on_c, 9, 59, 0
5, 76760, Note_on_c, 9, 59, 42
5, 76769, Note_on_c, 9, 59, 0
5, 76800, Note_on_c, 9, 59, 77
5, 76887, Note_on_c, 9, 59, 0
5, 76920, Note_on_c, 9, 59, 80
5, 76920, Note_on_c, 9, 44, 76
5, 76961, Note_on_c, 9, 44, 0
5, 76982, Note_on_c, 9, 59, 0
5, 77000, Note_on_c, 9, 59, 43
5, 77009, Note_on_c, 9, 59, 0
5, 77040, Note_on_c, 9, 59, 74
5, 77119, Note_on_c, 9, 59, 0
5, 77160, Note_on_c, 9, 59, 81
5, 77160, Note_on_c, 9, 44, 73
5, 77201, Note_on_c, 9, 44, 0
5, 77225, Note_on_c, 9, 59, 0
5, 77240, Note_on_c, 9, 59, 44
5, 77240, Note_on_c, 9, 36, 67
5, 77260, Note_on_c, 9, 59, 0
5, 77265, Note_on_c, 9, 36, 0
5, 77280, Note_on_c, 9, 59, 66
5, 77372, Note_on_c, 9, 59, 0
5, 77400, Note_on_c, 9, 59, 80
5, 77400, Note_on_c, 9, 44, 76
5, 77436, Note_on_c, 9, 44, 0
5, 77472, Note_on_c, 9, 59, 0
5, 77480, Note_on_c, 9, 59, 50
5, 77494, Note_on_c, 9, 59, 0
5, 77520, Note_on_c, 9, 59, 72
5, 77611, Note_on_c, 9, 59, 0
5, 77640, Note_on_c, 9, 59, 83
5, 77640, Note_on_c, 9, 44, 75
5, 77698, Note_on_c, 9, 44, 0
5, 77703, Note_on_c, 9, 59, 0
5, 77720, Note_on_c, 9, 59, 46
5, 77738, Note_on_c, 9, 59, 0
5, 77760, Note_on_c, 9, 59, 73
5, 77848, Note_on_c, 9, 59, 0
5, 77880, Note_on_c, 9, 59, 81
5, 77880, Note_on_c, 9, 44, 75
5, 77932, Note_on_c, 9, 44, 0
5, 77950, Note_on_c, 9, 59, 0
5, 78000, Note_on_c, 9, 59, 84
5, 78068, Note_on_c, 9, 59, 0
5, 78080, Note_on_c, 9, 59, 57
5, 78091, Note_on_c, 9, 59, 0
5, 78120, Note_on_c, 9, 59, 85
5, 78120, Note_on_c, 9, 44, 77
5, 78158, Note_on_c, 9, 44, 0
5, 78200, Note_on_c, 9, 36, 54
5, 78208, Note_on_c, 9, 59, 0
5, 78209, Note_on_c, 9, 36, 0
5, 78240, Note_on_c, 9, 59, 80
5, 78322, Note_on_c, 9, 59, 0
5, 78360, Note_on_c, 9, 59, 87
5, 78360, Note_on_c, 9, 44, 76
5, 78396, Note_on_c, 9, 44, 0
5, 78438, Note_on_c, 9, 59, 0
5, 78480, Note_on_c, 9, 59, 82
5, 78536, Note_on_c, 9, 59, 0
5, 78560, Note_on_c, 9, 59, 41
5, 78560, Note_on_c, 9, 36, 74
5, 78570, Note_on_c, 9, 59, 0
5, 78581, Note_on_c, 9, 36, 0
5, 78600, Note_on_c, 9, 59, 81
5, 78600, Note_on_c, 9, 44, 71
5, 78635, Note_on_c, 9, 44, 0
5, 78670, Note_on_c, 9, 59, 0
5, 78680, Note_on_c, 9, 59, 94
5, 78680, Note_on_c, 9, 36, 87
5, 78696, Note_on_c, 9, 36, 0
5, 78720, Note_on_c, 9, 57, 82
5, 78736, Note_on_c, 9, 57, 0
5, 78784, Note_on_c, 9, 59, 0
5, 78800, Note_on_c, 9, 59, 46
5, 78812, Note_on_c, 9, 59, 0
5, 78840, Note_on_c, 9, 59, 94
5, 78840, Note_on_c, 9, 44, 71
5, 78876, Note_on_c, 9, 44, 0
5, 78927, Note_on_c, 9, 59, 0
5, 78960, Note_on_c, 9, 59, 82
5, 79024, Note_on_c, 9, 59, 0
5, 79080, Note_on_c, 9, 59, 87
5, 79080, Note_on_c, 9, 57, 90
5, 79080, Note_on_c, 9, 36, 77
5, 79080, Note_on_c, 9, 44, 69
5, 79113, Note_on_c, 9, 44, 0
5, 79113, Note_on_c, 9, 57, 0
5, 79120, Note_on_c, 9, 36, 0
5, 79141, Note_on_c, 9, 59, 0
5, 79200, Note_on_c, 9, 59, 90
5, 79200, Note_on_c, 9, 53, 71
5, 79256, Note_on_c, 9, 59, 0
5, 79270, Note_on_c, 9, 53, 0
5, 79280, Note_on_c, 9, 59, 59
5, 79295, Note_on_c, 9, 59, 0
5, 79320, Note_on_c, 9, 59, 51
5, 79320, Note_on_c, 9, 44, 70
5, 79347, Note_on_c, 9, 44, 0
5, 79377, Note_on_c, 9, 59, 0
5, 79400, Note_on_c, 9, 59, 88
5, 79400, Note_on_c, 9, 53, 82
5, 79441, Note_on_c, 9, 59, 0
5, 79478, Note_on_c, 9, 53, 0
5, 79520, Note_on_c, 9, 59, 64
5, 79527, Note_on_c, 9, 59, 0
5, 79560, Note_on_c, 9, 53, 80
5, 79560, Note_on_c, 9, 59, 95
5, 79567, Note_on_c, 9, 46, 60
5, 79599, Note_on_c, 9, 46, 0
5, 79626, Note_on_c, 9, 59, 0
5, 79634, Note_on_c, 9, 53, 0
5, 79640, Note_on_c, 9, 59, 41
5, 79640, Note_on_c, 9, 36, 46
5, 79650, Note_on_c, 9, 36, 0
5, 79663, Note_on_c, 9, 59, 0
5, 79680, Note_on_c, 9, 59, 38
5, 79737, Note_on_c, 9, 59, 0
5, 79760, Note_on_c, 9, 53, 84
5, 79760, Note_on_c, 9, 59, 84
5, 79790, Note_on_c, 9, 53, 0
5, 79791, Note_on_c, 9, 59, 0
5, 79800, Note_on_c, 9, 44, 69
5, 79839, Note_on_c, 9, 44, 0
5, 79840, Note_on_c, 9, 59, 38
5, 79880, Note_on_c, 9, 59, 55
5, 79889, Note_on_c, 9, 59, 0
5, 79894, Note_on_c, 9, 59, 0
5, 79920, Note_on_c, 9, 59, 91
5, 79996, Note_on_c, 9, 59, 0
5, 80040, Note_on_c, 9, 59, 90
5, 80040, Note_on_c, 9, 44, 64
5, 80083, Note_on_c, 9, 44, 0
5, 80107, Note_on_c, 9, 59, 0
5, 80120, Note_on_c, 9, 36, 39
5, 80145, Note_on_c, 9, 36, 0
5, 80160, Note_on_c, 9, 59, 90
5, 80216, Note_on_c, 9, 59, 0
5, 80280, Note_on_c, 9, 59, 91
5, 80280, Note_on_c, 9, 44, 74
5, 80316, Note_on_c, 9, 44, 0
5, 80353, Note_on_c, 9, 59, 0
5, 80360, Note_on_c, 9, 36, 35
5, 80376, Note_on_c, 9, 36, 0
5, 80400, Note_on_c, 9, 59, 83
5, 80467, Note_on_c, 9, 59, 0
5, 80480, Note_on_c, 9, 59, 49
5, 80491, Note_on_c, 9, 59, 0
5, 80520, Note_on_c, 9, 59, 87
5, 80520, Note_on_c, 9, 44, 65
5, 80576, Note_on_c, 9, 44, 0
5, 80600, Note_on_c, 9, 36, 46
5, 80604, Note_on_c, 9, 59, 0
5, 80611, Note_on_c, 9, 36, 0
5, 80640, Note_on_c, 9, 59, 90
5, 80724, Note_on_c, 9, 59, 0
5, 80760, Note_on_c, 9, 59, 87
5, 80760, Note_on_c, 9, 44, 72
5, 80806, Note_on_c, 9, 44, 0
5, 80830, Note_on_c, 9, 59, 0
5, 80840, Note_on_c, 9, 59, 64
5, 80840, Note_on_c, 9, 36, 51
5, 80854, Note_on_c, 9, 36, 0
5, 80855, Note_on_c, 9, 59, 0
5, 80880, Note_on_c, 9, 59, 87
5, 80880, Note_on_c, 9, 36, 41
5, 80911, Note_on_c, 9, 36, 0
5, 80982, Note_on_c, 9, 59, 0
5, 81000, Note_on_c, 9, 59, 82
5, 81000, Note_on_c, 9, 44, 74
5, 81045, Note_on_c, 9, 44, 0
5, 81094, Note_on_c, 9, 59, 0
5, 81120, Note_on_c, 9, 59, 81
5, 81203, Note_on_c, 9, 59, 0
5, 81240, Note_on_c, 9, 59, 84
5, 81240, Note_on_c, 9, 44, 65
5, 81288, Note_on_c, 9, 44, 0
5, 81313, Note_on_c, 9, 59, 0
5, 81360, Note_on_c, 9, 59, 80
5, 81427, Note_on_c, 9, 59, 0
5, 81440, Note_on_c, 9, 59, 55
5, 81456, Note_on_c, 9, 59, 0
5, 81480, Note_on_c, 9, 59, 78
5, 81480, Note_on_c, 9, 44, 71
5, 81517, Note_on_c, 9, 44, 0
5, 81560, Note_on_c, 9, 36, 34
5, 81564, Note_on_c, 9, 59, 0
5, 81570, Note_on_c, 9, 36, 0
5, 81600, Note_on_c, 9, 59, 82
5, 81670, Note_on_c, 9, 59, 0
5, 81680, Note_on_c, 9, 59, 31
5, 81689, Note_on_c, 9, 59, 0
5, 81720, Note_on_c, 9, 59, 80
5, 81720, Note_on_c, 9, 44, 73
5, 81756, Note_on_c, 9, 44, 0
5, 81806, Note_on_c, 9, 59, 0
5, 81840, Note_on_c, 9, 59, 78
5, 81910, Note_on_c, 9, 59, 0
5, 81920, Note_on_c, 9, 36, 27
5, 81929, Note_on_c, 9, 36, 0
5, 81960, Note_on_c, 9, 59, 78
5, 81960, Note_on_c, 9, 44, 72
5, 81995, Note_on_c, 9, 44, 0
5, 82040, Note_on_c, 9, 36, 58
5, 82053, Note_on_c, 9, 59, 0
5, 82063, Note_on_c, 9, 36, 0
5, 82080, Note_on_c, 9, 59, 77
5, 82149, Note_on_c, 9, 59, 0
5, 82160, Note_on_c, 9, 59, 49
5, 82160, Note_on_c, 9, 36, 71
5, 82170, Note_on_c, 9, 59, 0
5, 82182, Note_on_c, 9, 36, 0
5, 82200, Note_on_c, 9, 59, 73
5, 82200, Note_on_c, 9, 44, 62
5, 82229, Note_on_c, 9, 44, 0
5, 82282, Note_on_c, 9, 59, 0
5, 82320, Note_on_c, 9, 59, 79
5, 82390, Note_on_c, 9, 59, 0
5, 82400, Note_on_c, 9, 59, 64
5, 82419, Note_on_c, 9, 59, 0
5, 82447, Note_on_c, 9, 46, 55
5, 82476, Note_on_c, 9, 46, 0
5, 82520, Note_on_c, 9, 59, 94
5, 82554, Note_on_c, 9, 59, 0
5, 82560, Note_on_c, 9, 57, 91
5, 82560, Note_on_c, 9, 36, 80
5, 82567, Note_on_c, 9, 51, 95
5, 82575, Note_on_c, 9, 57, 0
5, 82582, Note_on_c, 9, 36, 0
5, 82616, Note_on_c, 9, 51, 0
5, 82640, Note_on_c, 9, 44, 67
5, 82687, Note_on_c, 9, 51, 99
5, 82745, Note_on_c, 9, 44, 0
5, 82747, Note_on_c, 9, 51, 0
5, 82807, Note_on_c, 9, 51, 97
5, 82861, Note_on_c, 9, 51, 0
5, 82887, Note_on_c, 9, 51, 56
5, 82898, Note_on_c, 9, 51, 0
5, 82920, Note_on_c, 9, 44, 68
5, 82927, Note_on_c, 9, 51, 82
5, 82984, Note_on_c, 9, 44, 0
5, 83015, Note_on_c, 9, 51, 0
5, 83040, Note_on_c, 9, 36, 42
5, 83047, Note_on_c, 9, 51, 88
5, 83055, Note_on_c, 9, 36, 0
5, 83125, Note_on_c, 9, 51, 0
5, 83160, Note_on_c, 9, 44, 64
5, 83167, Note_on_c, 9, 51, 87
5, 83228, Note_on_c, 9, 44, 0
5, 83247, Note_on_c, 9, 51, 64
5, 83250, Note_on_c, 9, 51, 0
5, 83262, Note_on_c, 9, 51, 0
5, 83287, Note_on_c, 9, 51, 70
5, 83367, Note_on_c, 9, 51, 80
5, 83379, Note_on_c, 9, 51, 0
5, 83400, Note_on_c, 9, 44, 64
5, 83454, Note_on_c, 9, 51, 0
5, 83487, Note_on_c, 9, 51, 59
5, 83497, Note_on_c, 9, 51, 0
5, 83511, Note_on_c, 9, 44, 0
5, 83527, Note_on_c, 9, 51, 90
5, 83621, Note_on_c, 9, 51, 0
5, 83640, Note_on_c, 9, 44, 67
5, 83647, Note_on_c, 9, 51, 84
5, 83713, Note_on_c, 9, 44, 0
5, 83727, Note_on_c, 9, 51, 52
5, 83730, Note_on_c, 9, 51, 0
5, 83735, Note_on_c, 9, 51, 0
5, 83767, Note_on_c, 9, 51, 77
5, 83840, Note_on_c, 9, 44, 62
5, 83864, Note_on_c, 9, 51, 0
5, 83870, Note_on_c, 9, 44, 0
5, 83887, Note_on_c, 9, 51, 84
5, 83968, Note_on_c, 9, 51, 0
5, 84007, Note_on_c, 9, 51, 81
5, 84080, Note_on_c, 9, 36, 24
5, 84084, Note_on_c, 9, 51, 0
5, 84088, Note_on_c, 9, 36, 0
5, 84120, Note_on_c, 9, 44, 64
5, 84127, Note_on_c, 9, 51, 83
5, 84162, Note_on_c, 9, 44, 0
5, 84200, Note_on_c, 9, 51, 0
5, 84207, Note_on_c, 9, 51, 45
5, 84207, Note_on_c, 9, 51, 68
5, 84215, Note_on_c, 9, 51, 0
5, 84291, Note_on_c, 9, 51, 0
5, 84327, Note_on_c, 9, 51, 88
5, 84360, Note_on_c, 9, 44, 68
5, 84400, Note_on_c, 9, 51, 0
5, 84402, Note_on_c, 9, 44, 0
5, 84447, Note_on_c, 9, 51, 64
5, 84464, Note_on_c, 9, 51, 0
5, 84487, Note_on_c, 9, 51, 83
5, 84560, Note_on_c, 9, 36, 32
5, 84571, Note_on_c, 9, 36, 0
5, 84585, Note_on_c, 9, 51, 0
5, 84600, Note_on_c, 9, 44, 64
5, 84607, Note_on_c, 9, 51, 81
5, 84652, Note_on_c, 9, 44, 0
5, 84673, Note_on_c, 9, 51, 0
5, 84687, Note_on_c, 9, 51, 42
5, 84697, Note_on_c, 9, 51, 0
5, 84727, Note_on_c, 9, 51, 83
5, 84800, Note_on_c, 9, 36, 24
5, 84809, Note_on_c, 9, 36, 0
5, 84817, Note_on_c, 9, 51, 0
5, 84840, Note_on_c, 9, 37, 88
5, 84840, Note_on_c, 9, 44, 64
5, 84847, Note_on_c, 9, 51, 88
5, 84900, Note_on_c, 9, 44, 0
5, 84907, Note_on_c, 9, 37, 0
5, 84920, Note_on_c, 9, 37, 77
5, 84947, Note_on_c, 9, 51, 0
5, 84958, Note_on_c, 9, 37, 0
5, 84967, Note_on_c, 9, 51, 82
5, 85040, Note_on_c, 9, 36, 46
5, 85046, Note_on_c, 9, 51, 0
5, 85047, Note_on_c, 9, 51, 58
5, 85050, Note_on_c, 9, 36, 0
5, 85057, Note_on_c, 9, 51, 0
5, 85080, Note_on_c, 9, 44, 60
5, 85087, Note_on_c, 9, 51, 82
5, 85139, Note_on_c, 9, 44, 0
5, 85189, Note_on_c, 9, 51, 0
5, 85207, Note_on_c, 9, 51, 81
5, 85287, Note_on_c, 9, 51, 48
5, 85293, Note_on_c, 9, 51, 0
5, 85295, Note_on_c, 9, 51, 0
5, 85320, Note_on_c, 9, 44, 48
5, 85327, Note_on_c, 9, 51, 80
5, 85369, Note_on_c, 9, 44, 0
5, 85426, Note_on_c, 9, 51, 0
5, 85447, Note_on_c, 9, 51, 80
5, 85545, Note_on_c, 9, 51, 0
5, 85560, Note_on_c, 9, 44, 67
5, 85567, Note_on_c, 9, 51, 77
5, 85593, Note_on_c, 9, 44, 0
5, 85628, Note_on_c, 9, 51, 0
5, 85647, Note_on_c, 9, 51, 62
5, 85670, Note_on_c, 9, 51, 0
5, 85687, Note_on_c, 9, 51, 67
5, 85687, Note_on_c, 9, 53, 73
5, 85775, Note_on_c, 9, 51, 0
5, 85785, Note_on_c, 9, 53, 0
5, 85800, Note_on_c, 9, 44, 69
5, 85807, Note_on_c, 9, 51, 74
5, 85839, Note_on_c, 9, 44, 0
5, 85856, Note_on_c, 9, 51, 0
5, 85887, Note_on_c, 9, 51, 79
5, 85887, Note_on_c, 9, 53, 80
5, 85970, Note_on_c, 9, 51, 0
5, 86000, Note_on_c, 9, 53, 0
5, 86007, Note_on_c, 9, 51, 35
5, 86016, Note_on_c, 9, 51, 0
5, 86040, Note_on_c, 9, 44, 71
5, 86047, Note_on_c, 9, 53, 80
5, 86047, Note_on_c, 9, 51, 79
5, 86072, Note_on_c, 9, 44, 0
5, 86129, Note_on_c, 9, 51, 0
5, 86156, Note_on_c, 9, 53, 0
5, 86167, Note_on_c, 9, 51, 60
5, 86193, Note_on_c, 9, 51, 0
5, 86247, Note_on_c, 9, 51, 92
5, 86247, Note_on_c, 9, 53, 88
5, 86287, Note_on_c, 9, 46, 60
5, 86310, Note_on_c, 9, 46, 0
5, 86332, Note_on_c, 9, 51, 0
5, 86345, Note_on_c, 9, 53, 0
5, 86360, Note_on_c, 9, 36, 50
5, 86367, Note_on_c, 9, 51, 58
5, 86369, Note_on_c, 9, 36, 0
5, 86379, Note_on_c, 9, 51, 0
5, 86400, Note_on_c, 9, 57, 65
5, 86400, Note_on_c, 9, 36, 60
5, 86407, Note_on_c, 9, 51, 90
5, 86416, Note_on_c, 9, 57, 0
5, 86433, Note_on_c, 9, 36, 0
5, 86502, Note_on_c, 9, 51, 0
5, 86520, Note_on_c, 9, 44, 67
5, 86527, Note_on_c, 9, 51, 85
5, 86556, Note_on_c, 9, 44, 0
5, 86595, Note_on_c, 9, 51, 0
5, 86607, Note_on_c, 9, 51, 57
5, 86621, Note_on_c, 9, 51, 0
5, 86647, Note_on_c, 9, 51, 85
5, 86741, Note_on_c, 9, 51, 0
5, 86760, Note_on_c, 9, 44, 68
5, 86767, Note_on_c, 9, 51, 85
5, 86798, Note_on_c, 9, 44, 0
5, 86850, Note_on_c, 9, 51, 0
5, 86887, Note_on_c, 9, 51, 85
5, 86972, Note_on_c, 9, 51, 0
5, 87000, Note_on_c, 9, 44, 71
5, 87007, Note_on_c, 9, 51, 84
5, 87035, Note_on_c, 9, 44, 0
5, 87081, Note_on_c, 9, 51, 0
5, 87087, Note_on_c, 9, 51, 57
5, 87102, Note_on_c, 9, 51, 0
5, 87127, Note_on_c, 9, 51, 84
5, 87219, Note_on_c, 9, 51, 0
5, 87240, Note_on_c, 9, 44, 71
5, 87247, Note_on_c, 9, 51, 83
5, 87284, Note_on_c, 9, 44, 0
5, 87314, Note_on_c, 9, 51, 0
5, 87320, Note_on_c, 9, 36, 32
5, 87327, Note_on_c, 9, 51, 53
5, 87329, Note_on_c, 9, 36, 0
5, 87345, Note_on_c, 9, 51, 0
5, 87367, Note_on_c, 9, 51, 83
5, 87450, Note_on_c, 9, 51, 0
5, 87480, Note_on_c, 9, 44, 73
5, 87487, Note_on_c, 9, 51, 84
5, 87528, Note_on_c, 9, 44, 0
5, 87565, Note_on_c, 9, 51, 0
5, 87607, Note_on_c, 9, 51, 79
5, 87660, Note_on_c, 9, 51, 0
5, 87680, Note_on_c, 9, 36, 46
5, 87687, Note_on_c, 9, 51, 93
5, 87687, Note_on_c, 9, 53, 83
5, 87694, Note_on_c, 9, 36, 0
5, 87720, Note_on_c, 9, 44, 75
5, 87764, Note_on_c, 9, 44, 0
5, 87775, Note_on_c, 9, 51, 0
5, 87784, Note_on_c, 9, 53, 0
5, 87807, Note_on_c, 9, 51, 52
5, 87824, Note_on_c, 9, 51, 0
5, 87847, Note_on_c, 9, 51, 84
5, 87847, Note_on_c, 9, 53, 85
5, 87937, Note_on_c, 9, 53, 0
5, 87938, Note_on_c, 9, 51, 0
5, 87960, Note_on_c, 9, 44, 72
5, 87967, Note_on_c, 9, 51, 63
5, 88015, Note_on_c, 9, 51, 0
5, 88021, Note_on_c, 9, 44, 0
5, 88047, Note_on_c, 9, 51, 83
5, 88145, Note_on_c, 9, 51, 0
5, 88160, Note_on_c, 9, 36, 28
5, 88167, Note_on_c, 9, 51, 51
5, 88168, Note_on_c, 9, 36, 0
5, 88186, Note_on_c, 9, 51, 0
5, 88200, Note_on_c, 9, 44, 72
5, 88207, Note_on_c, 9, 51, 71
5, 88237, Note_on_c, 9, 44, 0
5, 88269, Note_on_c, 9, 51, 0
5, 88287, Note_on_c, 9, 51, 63
5, 88304, Note_on_c, 9, 51, 0
5, 88320, Note_on_c, 9, 36, 30
5, 88327, Note_on_c, 9, 51, 85
5, 88338, Note_on_c, 9, 36, 0
5, 88400, Note_on_c, 9, 36, 51
5, 88414, Note_on_c, 9, 51, 0
5, 88422, Note_on_c, 9, 36, 0
5, 88440, Note_on_c, 9, 44, 76
5, 88447, Note_on_c, 9, 51, 87
5, 88481, Note_on_c, 9, 44, 0
5, 88527, Note_on_c, 9, 51, 61
5, 88529, Note_on_c, 9, 51, 0
5, 88542, Note_on_c, 9, 51, 0
5, 88567, Note_on_c, 9, 51, 80
5, 88663, Note_on_c, 9, 51, 0
5, 88680, Note_on_c, 9, 44, 73
5, 88687, Note_on_c, 9, 51, 79
5, 88721, Note_on_c, 9, 44, 0
5, 88766, Note_on_c, 9, 51, 0
5, 88767, Note_on_c, 9, 51, 57
5, 88781, Note_on_c, 9, 51, 0
5, 88807, Note_on_c, 9, 51, 81
5, 88903, Note_on_c, 9, 51, 0
5, 88920, Note_on_c, 9, 44, 76
5, 88927, Note_on_c, 9, 51, 81
5, 88956, Note_on_c, 9, 44, 0
5, 88999, Note_on_c, 9, 51, 0
5, 89000, Note_on_c, 9, 36, 32
5, 89007, Note_on_c, 9, 51, 61
5, 89013, Note_on_c, 9, 36, 0
5, 89023, Note_on_c, 9, 51, 0
5, 89047, Note_on_c, 9, 51, 82
5, 89141, Note_on_c, 9, 51, 0
5, 89160, Note_on_c, 9, 44, 75
5, 89167, Note_on_c, 9, 51, 81
5, 89218, Note_on_c, 9, 44, 0
5, 89240, Note_on_c, 9, 51, 0
5, 89247, Note_on_c, 9, 51, 59
5, 89264, Note_on_c, 9, 51, 0
5, 89287, Note_on_c, 9, 51, 80
5, 89360, Note_on_c, 9, 36, 37
5, 89370, Note_on_c, 9, 36, 0
5, 89375, Note_on_c, 9, 51, 0
5, 89400, Note_on_c, 9, 44, 75
5, 89407, Note_on_c, 9, 51, 82
5, 89452, Note_on_c, 9, 44, 0
5, 89487, Note_on_c, 9, 51, 44
5, 89489, Note_on_c, 9, 51, 0
5, 89503, Note_on_c, 9, 51, 0
5, 89527, Note_on_c, 9, 51, 74
5, 89616, Note_on_c, 9, 51, 0
5, 89640, Note_on_c, 9, 44, 77
5, 89647, Note_on_c, 9, 51, 83
5, 89678, Note_on_c, 9, 44, 0
5, 89718, Note_on_c, 9, 51, 0
5, 89720, Note_on_c, 9, 37, 51
5, 89725, Note_on_c, 9, 37, 0
5, 89727, Note_on_c, 9, 51, 53
5, 89743, Note_on_c, 9, 51, 0
5, 89767, Note_on_c, 9, 51, 74
5, 89800, Note_on_c, 9, 37, 55
5, 89818, Note_on_c, 9, 37, 0
5, 89854, Note_on_c, 9, 51, 0
5, 89880, Note_on_c, 9, 37, 53
5, 89880, Note_on_c, 9, 44, 76
5, 89887, Note_on_c, 9, 51, 84
5, 89890, Note_on_c, 9, 37, 0
5, 89916, Note_on_c, 9, 44, 0
5, 89960, Note_on_c, 9, 37, 61
5, 89962, Note_on_c, 9, 51, 0
5, 89967, Note_on_c, 9, 51, 46
5, 89977, Note_on_c, 9, 51, 0
5, 89983, Note_on_c, 9, 37, 0
5, 90007, Note_on_c, 9, 51, 74
5, 90040, Note_on_c, 9, 37, 56
5, 90062, Note_on_c, 9, 37, 0
5, 90095, Note_on_c, 9, 51, 0
5, 90120, Note_on_c, 9, 37, 62
5, 90120, Note_on_c, 9, 44, 71
5, 90127, Note_on_c, 9, 51, 87
5, 90145, Note_on_c, 9, 37, 0
5, 90155, Note_on_c, 9, 44, 0
5, 90200, Note_on_c, 9, 37, 74
5, 90200, Note_on_c, 9, 36, 78
5, 90200, Note_on_c, 9, 57, 85
5, 90206, Note_on_c, 9, 51, 0
5, 90217, Note_on_c, 9, 36, 0
5, 90218, Note_on_c, 9, 57, 0
5, 90219, Note_on_c, 9, 37, 0
5, 90247, Note_on_c, 9, 51, 88
5, 90326, Note_on_c, 9, 51, 0
5, 90360, Note_on_c, 9, 44, 71
5, 90367, Note_on_c, 9, 51, 90
5, 90396, Note_on_c, 9, 44, 0
5, 90445, Note_on_c, 9, 51, 0
5, 90487, Note_on_c, 9, 51, 85
5, 90560, Note_on_c, 9, 36, 46
5, 90564, Note_on_c, 9, 51, 0
5, 90567, Note_on_c, 9, 51, 50
5, 90574, Note_on_c, 9, 36, 0
5, 90580, Note_on_c, 9, 51, 0
5, 90600, Note_on_c, 9, 36, 61
5, 90600, Note_on_c, 9, 37, 50
5, 90600, Note_on_c, 9, 57, 79
5, 90600, Note_on_c, 9, 44, 69
5, 90607, Note_on_c, 9, 51, 83
5, 90618, Note_on_c, 9, 57, 0
5, 90631, Note_on_c, 9, 37, 0
5, 90633, Note_on_c, 9, 44, 0
5, 90640, Note_on_c, 9, 36, 0
5, 90694, Note_on_c, 9, 51, 0
5, 90727, Note_on_c, 9, 51, 88
5, 90804, Note_on_c, 9, 51, 0
5, 90807, Note_on_c, 9, 51, 40
5, 90818, Note_on_c, 9, 51, 0
5, 90840, Note_on_c, 9, 44, 70
5, 90847, Note_on_c, 9, 51, 74
5, 90867, Note_on_c, 9, 44, 0
5, 90922, Note_on_c, 9, 51, 0
5, 90927, Note_on_c, 9, 51, 47
5, 90940, Note_on_c, 9, 51, 0
5, 90967, Note_on_c, 9, 51, 84
5, 91049, Note_on_c, 9, 51, 0
5, 91087, Note_on_c, 9, 51, 85
5, 91087, Note_on_c, 9, 46, 60
5, 91119, Note_on_c, 9, 46, 0
5, 91155, Note_on_c, 9, 51, 0
5, 91167, Note_on_c, 9, 51, 50
5, 91185, Note_on_c, 9, 51, 0
5, 91200, Note_on_c, 9, 36, 33
5, 91207, Note_on_c, 9, 51, 85
5, 91222, Note_on_c, 9, 36, 0
5, 91296, Note_on_c, 9, 51, 0
5, 91320, Note_on_c, 9, 44, 69
5, 91327, Note_on_c, 9, 51, 79
5, 91359, Note_on_c, 9, 44, 0
5, 91407, Note_on_c, 9, 51, 48
5, 91409, Note_on_c, 9, 51, 0
5, 91416, Note_on_c, 9, 51, 0
5, 91447, Note_on_c, 9, 51, 82
5, 91520, Note_on_c, 9, 36, 30
5, 91529, Note_on_c, 9, 36, 0
5, 91545, Note_on_c, 9, 51, 0
5, 91560, Note_on_c, 9, 44, 64
5, 91567, Note_on_c, 9, 51, 78
5, 91603, Note_on_c, 9, 44, 0
5, 91647, Note_on_c, 9, 51, 42
5, 91650, Note_on_c, 9, 51, 0
5, 91661, Note_on_c, 9, 51, 0
5, 91687, Note_on_c, 9, 51, 78
5, 91783, Note_on_c, 9, 51, 0
5, 91800, Note_on_c, 9, 44, 74
5, 91807, Note_on_c, 9, 51, 76
5, 91836, Note_on_c, 9, 44, 0
5, 91877, Note_on_c, 9, 51, 0
5, 91887, Note_on_c, 9, 51, 78
5, 91887, Note_on_c, 9, 53, 71
5, 91990, Note_on_c, 9, 51, 0
5, 92007, Note_on_c, 9, 51, 40
5, 92012, Note_on_c, 9, 53, 0
5, 92025, Note_on_c, 9, 51, 0
5, 92040, Note_on_c, 9, 44, 65
5, 92047, Note_on_c, 9, 53, 80
5, 92047, Note_on_c, 9, 51, 80
5, 92096, Note_on_c, 9, 44, 0
5, 92151, Note_on_c, 9, 53, 0
5, 92152, Note_on_c, 9, 51, 0
5, 92167, Note_on_c, 9, 51, 69
5, 92244, Note_on_c, 9, 51, 0
5, 92247, Note_on_c, 9, 51, 39
5, 92258, Note_on_c, 9, 51, 0
5, 92280, Note_on_c, 9, 44, 72
5, 92287, Note_on_c, 9, 51, 83
5, 92326, Note_on_c, 9, 44, 0
5, 92391, Note_on_c, 9, 51, 0
5, 92407, Note_on_c, 9, 51, 76
5, 92487, Note_on_c, 9, 51, 35
5, 92491, Note_on_c, 9, 51, 0
5, 92502, Note_on_c, 9, 51, 0
5, 92520, Note_on_c, 9, 44, 74
5, 92527, Note_on_c, 9, 51, 83
5, 92565, Note_on_c, 9, 44, 0
5, 92625, Note_on_c, 9, 51, 0
5, 92647, Note_on_c, 9, 51, 77
5, 92731, Note_on_c, 9, 51, 0
5, 92760, Note_on_c, 9, 44, 65
5, 92767, Note_on_c, 9, 51, 81
5, 92808, Note_on_c, 9, 44, 0
5, 92847, Note_on_c, 9, 51, 36
5, 92855, Note_on_c, 9, 51, 0
5, 92856, Note_on_c, 9, 51, 0
5, 92887, Note_on_c, 9, 51, 82
5, 92978, Note_on_c, 9, 51, 0
5, 93000, Note_on_c, 9, 44, 71
5, 93007, Note_on_c, 9, 51, 79
5, 93037, Note_on_c, 9, 44, 0
5, 93085, Note_on_c, 9, 51, 0
5, 93087, Note_on_c, 9, 51, 51
5, 93096, Note_on_c, 9, 51, 0
5, 93127, Note_on_c, 9, 51, 69
5, 93215, Note_on_c, 9, 51, 0
5, 93240, Note_on_c, 9, 44, 73
5, 93247, Note_on_c, 9, 51, 73
5, 93276, Note_on_c, 9, 44, 0
5, 93327, Note_on_c, 9, 51, 53
5, 93328, Note_on_c, 9, 51, 0
5, 93344, Note_on_c, 9, 51, 0
5, 93367, Note_on_c, 9, 51, 64
5, 93458, Note_on_c, 9, 51, 0
5, 93480, Note_on_c, 9, 44, 72
5, 93487, Note_on_c, 9, 51, 79
5, 93515, Note_on_c, 9, 44, 0
5, 93560, Note_on_c, 9, 51, 0
5, 93567, Note_on_c, 9, 51, 46
5, 93587, Note_on_c, 9, 51, 0
5, 93607, Note_on_c, 9, 51, 83
5, 93699, Note_on_c, 9, 51, 0
5, 93720, Note_on_c, 9, 44, 62
5, 93727, Note_on_c, 9, 51, 79
5, 93749, Note_on_c, 9, 44, 0
5, 93789, Note_on_c, 9, 51, 0
5, 93807, Note_on_c, 9, 51, 51
5, 93825, Note_on_c, 9, 51, 0
5, 93847, Note_on_c, 9, 51, 60
5, 93898, Note_on_c, 9, 51, 0
5, 93927, Note_on_c, 9, 51, 73
5, 93927, Note_on_c, 9, 53, 74
5, 93967, Note_on_c, 9, 46, 55
5, 93996, Note_on_c, 9, 46, 0
5, 94040, Note_on_c, 9, 57, 60
5, 94049, Note_on_c, 9, 57, 0
5, 94049, Note_on_c, 9, 51, 0
5, 94053, Note_on_c, 9, 53, 0
5, 94080, Note_on_c, 9, 51, 95
5, 94129, Note_on_c, 9, 51, 0
5, 94153, Note_on_c, 9, 44, 67
5, 94200, Note_on_c, 9, 51, 99
5, 94258, Note_on_c, 9, 44, 0
5, 94260, Note_on_c, 9, 51, 0
5, 94320, Note_on_c, 9, 51, 97
5, 94374, Note_on_c, 9, 51, 0
5, 94400, Note_on_c, 9, 51, 56
5, 94411, Note_on_c, 9, 51, 0
5, 94433, Note_on_c, 9, 44, 68
5, 94440, Note_on_c, 9, 51, 82
5, 94497, Note_on_c, 9, 44, 0
5, 94528, Note_on_c, 9, 51, 0
5, 94560, Note_on_c, 9, 51, 88
5, 94638, Note_on_c, 9, 51, 0
5, 94673, Note_on_c, 9, 44, 64
5, 94680, Note_on_c, 9, 51, 87
5, 94741, Note_on_c, 9, 44, 0
5, 94760, Note_on_c, 9, 51, 64
5, 94763, Note_on_c, 9, 51, 0
5, 94775, Note_on_c, 9, 51, 0
5, 94800, Note_on_c, 9, 51, 70
5, 94880, Note_on_c, 9, 51, 80
5, 94892, Note_on_c, 9, 51, 0
5, 94913, Note_on_c, 9, 44, 64
5, 94967, Note_on_c, 9, 51, 0
5, 95000, Note_on_c, 9, 51, 59
5, 95010, Note_on_c, 9, 51, 0
5, 95024, Note_on_c, 9, 44, 0
5, 95040, Note_on_c, 9, 51, 90
5, 95134, Note_on_c, 9, 51, 0
5, 95153, Note_on_c, 9, 44, 67
5, 95160, Note_on_c, 9, 51, 84
5, 95226, Note_on_c, 9, 44, 0
5, 95240, Note_on_c, 9, 51, 52
5, 95243, Note_on_c, 9, 51, 0
5, 95248, Note_on_c, 9, 51, 0
5, 95280, Note_on_c, 9, 51, 77
5, 95353, Note_on_c, 9, 44, 62
5, 95377, Note_on_c, 9, 51, 0
5, 95383, Note_on_c, 9, 44, 0
5, 95400, Note_on_c, 9, 51, 84
5, 95400, Note_on_c, 9, 36, 17
5, 95427, Note_on_c, 9, 36, 0
5, 95480, Note_on_c, 9, 36, 40
5, 95481, Note_on_c, 9, 51, 0
5, 95496, Note_on_c, 9, 36, 0
5, 95520, Note_on_c, 9, 51, 81
5, 95597, Note_on_c, 9, 51, 0
5, 95633, Note_on_c, 9, 44, 64
5, 95640, Note_on_c, 9, 51, 83
5, 95675, Note_on_c, 9, 44, 0
5, 95713, Note_on_c, 9, 51, 0
5, 95720, Note_on_c, 9, 51, 45
5, 95720, Note_on_c, 9, 51, 68
5, 95728, Note_on_c, 9, 51, 0
5, 95804, Note_on_c, 9, 51, 0
5, 95840, Note_on_c, 9, 51, 88
5, 95873, Note_on_c, 9, 44, 68
5, 95913, Note_on_c, 9, 51, 0
5, 95915, Note_on_c, 9, 44, 0
5, 95960, Note_on_c, 9, 51, 64
5, 95960, Note_on_c, 9, 57, 66
5, 95960, Note_on_c, 9, 36, 41
5, 95971, Note_on_c, 9, 57, 0
5, 95974, Note_on_c, 9, 36, 0
5, 95977, Note_on_c, 9, 51, 0
5, 96000, Note_on_c, 9, 51, 83
5, 96098, Note_on_c, 9, 51, 0
5, 96113, Note_on_c, 9, 44, 64
5, 96120, Note_on_c, 9, 51, 81
5, 96165, Note_on_c, 9, 44, 0
5, 96186, Note_on_c, 9, 51, 0
5, 96200, Note_on_c, 9, 51, 42
5, 96210, Note_on_c, 9, 51, 0
5, 96240, Note_on_c, 9, 51, 83
5, 96330, Note_on_c, 9, 51, 0
5, 96353, Note_on_c, 9, 44, 64
5, 96360, Note_on_c, 9, 51, 88
5, 96413, Note_on_c, 9, 44, 0
5, 96460, Note_on_c, 9, 51, 0
5, 96480, Note_on_c, 9, 51, 82
5, 96559, Note_on_c, 9, 51, 0
5, 96560, Note_on_c, 9, 51, 58
5, 96570, Note_on_c, 9, 51, 0
5, 96593, Note_on_c, 9, 44, 60
5, 96600, Note_on_c, 9, 51, 82
5, 96652, Note_on_c, 9, 44, 0
5, 96702, Note_on_c, 9, 51, 0
5, 96720, Note_on_c, 9, 51, 81
5, 96800, Note_on_c, 9, 51, 48
5, 96806, Note_on_c, 9, 51, 0
5, 96808, Note_on_c, 9, 51, 0
5, 96833, Note_on_c, 9, 44, 48
5, 96840, Note_on_c, 9, 51, 80
5, 96880, Note_on_c, 9, 36, 61
5, 96882, Note_on_c, 9, 44, 0
5, 96901, Note_on_c, 9, 36, 0
5, 96939, Note_on_c, 9, 51, 0
5, 96960, Note_on_c, 9, 51, 80
5, 96960, Note_on_c, 9, 36, 68
5, 96993, Note_on_c, 9, 36, 0
5, 97040, Note_on_c, 9, 36, 57
5, 97058, Note_on_c, 9, 51, 0
5, 97062, Note_on_c, 9, 36, 0
5, 97073, Note_on_c, 9, 44, 67
5, 97080, Note_on_c, 9, 51, 77
5, 97106, Note_on_c, 9, 44, 0
5, 97141, Note_on_c, 9, 51, 0
5, 97160, Note_on_c, 9, 51, 62
5, 97183, Note_on_c, 9, 51, 0
5, 97200, Note_on_c, 9, 51, 67
5, 97200, Note_on_c, 9, 53, 73
5, 97288, Note_on_c, 9, 51, 0
5, 97298, Note_on_c, 9, 53, 0
5, 97313, Note_on_c, 9, 44, 69
5, 97320, Note_on_c, 9, 51, 74
5, 97352, Note_on_c, 9, 44, 0
5, 97369, Note_on_c, 9, 51, 0
5, 97400, Note_on_c, 9, 51, 79
5, 97400, Note_on_c, 9, 53, 80
5, 97483, Note_on_c, 9, 51, 0
5, 97513, Note_on_c, 9, 53, 0
5, 97520, Note_on_c, 9, 51, 35
5, 97529, Note_on_c, 9, 51, 0
5, 97553, Note_on_c, 9, 44, 71
5, 97560, Note_on_c, 9, 53, 80
5, 97560, Note_on_c, 9, 51, 79
5, 97560, Note_on_c, 9, 36, 24
5, 97572, Note_on_c, 9, 36, 0
5, 97585, Note_on_c, 9, 44, 0
5, 97642, Note_on_c, 9, 51, 0
5, 97669, Note_on_c, 9, 53, 0
5, 97680, Note_on_c, 9, 51, 60
5, 97706, Note_on_c, 9, 51, 0
5, 97760, Note_on_c, 9, 51, 92
5, 97760, Note_on_c, 9, 53, 88
5, 97800, Note_on_c, 9, 46, 60
5, 97823, Note_on_c, 9, 46, 0
5, 97845, Note_on_c, 9, 51, 0
5, 97858, Note_on_c, 9, 53, 0
5, 97880, Note_on_c, 9, 51, 58
5, 97880, Note_on_c, 9, 57, 80
5, 97880, Note_on_c, 9, 36, 71
5, 97888, Note_on_c, 9, 57, 0
5, 97889, Note_on_c, 9, 36, 0
5, 97892, Note_on_c, 9, 51, 0
5, 97920, Note_on_c, 9, 51, 90
5, 98015, Note_on_c, 9, 51, 0
5, 98033, Note_on_c, 9, 44, 67
5, 98040, Note_on_c, 9, 51, 85
5, 98069, Note_on_c, 9, 44, 0
5, 98108, Note_on_c, 9, 51, 0
5, 98120, Note_on_c, 9, 51, 57
5, 98134, Note_on_c, 9, 51, 0
5, 98160, Note_on_c, 9, 51, 85
5, 98254, Note_on_c, 9, 51, 0
5, 98273, Note_on_c, 9, 44, 68
5, 98280, Note_on_c, 9, 51, 85
5, 98311, Note_on_c, 9, 44, 0
5, 98360, Note_on_c, 9, 57, 55
5, 98360, Note_on_c, 9, 36, 66
5, 98363, Note_on_c, 9, 51, 0
5, 98369, Note_on_c, 9, 57, 0
5, 98386, Note_on_c, 9, 36, 0
5, 98400, Note_on_c, 9, 51, 85
5, 98485, Note_on_c, 9, 51, 0
5, 98513, Note_on_c, 9, 44, 71
5, 98520, Note_on_c, 9, 51, 84
5, 98548, Note_on_c, 9, 44, 0
5, 98594, Note_on_c, 9, 51, 0
5, 98600, Note_on_c, 9, 51, 57
5, 98615, Note_on_c, 9, 51, 0
5, 98640, Note_on_c, 9, 51, 84
5, 98732, Note_on_c, 9, 51, 0
5, 98753, Note_on_c, 9, 44, 71
5, 98760, Note_on_c, 9, 51, 83
5, 98797, Note_on_c, 9, 44, 0
5, 98827, Note_on_c, 9, 51, 0
5, 98840, Note_on_c, 9, 51, 53
5, 98858, Note_on_c, 9, 51, 0
5, 98880, Note_on_c, 9, 51, 83
5, 98963, Note_on_c, 9, 51, 0
5, 98993, Note_on_c, 9, 44, 73
5, 99000, Note_on_c, 9, 51, 84
5, 99041, Note_on_c, 9, 44, 0
5, 99078, Note_on_c, 9, 51, 0
5, 99120, Note_on_c, 9, 51, 79
5, 99173, Note_on_c, 9, 51, 0
5, 99200, Note_on_c, 9, 51, 93
5, 99200, Note_on_c, 9, 53, 83
5, 99233, Note_on_c, 9, 44, 75
5, 99277, Note_on_c, 9, 44, 0
5, 99288, Note_on_c, 9, 51, 0
5, 99297, Note_on_c, 9, 53, 0
5, 99320, Note_on_c, 9, 51, 52
5, 99337, Note_on_c, 9, 51, 0
5, 99360, Note_on_c, 9, 51, 84
5, 99360, Note_on_c, 9, 53, 85
5, 99450, Note_on_c, 9, 53, 0
5, 99451, Note_on_c, 9, 51, 0
5, 99473, Note_on_c, 9, 44, 72
5, 99480, Note_on_c, 9, 51, 63
5, 99528, Note_on_c, 9, 51, 0
5, 99534, Note_on_c, 9, 44, 0
5, 99560, Note_on_c, 9, 51, 83
5, 99658, Note_on_c, 9, 51, 0
5, 99680, Note_on_c, 9, 51, 51
5, 99680, Note_on_c, 9, 36, 36
5, 99699, Note_on_c, 9, 51, 0
5, 99704, Note_on_c, 9, 36, 0
5, 99713, Note_on_c, 9, 44, 72
5, 99720, Note_on_c, 9, 51, 71
5, 99750, Note_on_c, 9, 44, 0
5, 99782, Note_on_c, 9, 51, 0
5, 99800, Note_on_c, 9, 51, 63
5, 99800, Note_on_c, 9, 36, 57
5, 99817, Note_on_c, 9, 51, 0
5, 99825, Note_on_c, 9, 36, 0
5, 99840, Note_on_c, 9, 51, 85
5, 99927, Note_on_c, 9, 51, 0
5, 99953, Note_on_c, 9, 44, 76
5, 99960, Note_on_c, 9, 51, 87
5, 99994, Note_on_c, 9, 44, 0
5, 100040, Note_on_c, 9, 51, 61
5, 100042, Note_on_c, 9, 51, 0
5, 100055, Note_on_c, 9, 51, 0
5, 100080, Note_on_c, 9, 51, 80
5, 100176, Note_on_c, 9, 51, 0
5, 100193, Note_on_c, 9, 44, 73
5, 100200, Note_on_c, 9, 51, 79
5, 100234, Note_on_c, 9, 44, 0
5, 100279, Note_on_c, 9, 51, 0
5, 100280, Note_on_c, 9, 51, 57
5, 100294, Note_on_c, 9, 51, 0
5, 100320, Note_on_c, 9, 51, 81
5, 100416, Note_on_c, 9, 51, 0
5, 100433, Note_on_c, 9, 44, 76
5, 100440, Note_on_c, 9, 51, 81
5, 100469, Note_on_c, 9, 44, 0
5, 100512, Note_on_c, 9, 51, 0
5, 100520, Note_on_c, 9, 51, 61
5, 100536, Note_on_c, 9, 51, 0
5, 100560, Note_on_c, 9, 51, 82
5, 100654, Note_on_c, 9, 51, 0
5, 100673, Note_on_c, 9, 44, 75
5, 100680, Note_on_c, 9, 51, 81
5, 100731, Note_on_c, 9, 44, 0
5, 100753, Note_on_c, 9, 51, 0
5, 100760, Note_on_c, 9, 51, 59
5, 100777, Note_on_c, 9, 51, 0
5, 100800, Note_on_c, 9, 51, 80
5, 100873, Note_on_c, 9, 44, 39
5, 100882, Note_on_c, 9, 44, 0
5, 100888, Note_on_c, 9, 51, 0
5, 100913, Note_on_c, 9, 44, 75
5, 100920, Note_on_c, 9, 51, 82
5, 100965, Note_on_c, 9, 44, 0
5, 100993, Note_on_c, 9, 44, 53
5, 101000, Note_on_c, 9, 51, 44
5, 101002, Note_on_c, 9, 44, 0
5, 101002, Note_on_c, 9, 51, 0
5, 101016, Note_on_c, 9, 51, 0
5, 101040, Note_on_c, 9, 51, 74
5, 101113, Note_on_c, 9, 44, 53
5, 101122, Note_on_c, 9, 44, 0
5, 101129, Note_on_c, 9, 51, 0
5, 101153, Note_on_c, 9, 44, 77
5, 101160, Note_on_c, 9, 51, 83
5, 101191, Note_on_c, 9, 44, 0
5, 101231, Note_on_c, 9, 51, 0
5, 101240, Note_on_c, 9, 51, 53
5, 101256, Note_on_c, 9, 51, 0
5, 101280, Note_on_c, 9, 51, 74
5, 101367, Note_on_c, 9, 51, 0
5, 101393, Note_on_c, 9, 44, 76
5, 101400, Note_on_c, 9, 51, 84
5, 101429, Note_on_c, 9, 44, 0
5, 101475, Note_on_c, 9, 51, 0
5, 101480, Note_on_c, 9, 51, 46
5, 101490, Note_on_c, 9, 51, 0
5, 101520, Note_on_c, 9, 51, 74
5, 101608, Note_on_c, 9, 51, 0
5, 101633, Note_on_c, 9, 44, 71
5, 101640, Note_on_c, 9, 51, 87
5, 101668, Note_on_c, 9, 44, 0
5, 101719, Note_on_c, 9, 51, 0
5, 101760, Note_on_c, 9, 51, 88
5, 101760, Note_on_c, 9, 57, 88
5, 101760, Note_on_c, 9, 36, 75
5, 101768, Note_on_c, 9, 36, 0
5, 101770, Note_on_c, 9, 57, 0
5, 101839, Note_on_c, 9, 51, 0
5, 101873, Note_on_c, 9, 44, 71
5, 101880, Note_on_c, 9, 51, 90
5, 101909, Note_on_c, 9, 44, 0
5, 101958, Note_on_c, 9, 51, 0
5, 102000, Note_on_c, 9, 51, 85
5, 102077, Note_on_c, 9, 51, 0
5, 102080, Note_on_c, 9, 51, 50
5, 102093, Note_on_c, 9, 51, 0
5, 102113, Note_on_c, 9, 44, 69
5, 102120, Note_on_c, 9, 51, 83
5, 102146, Note_on_c, 9, 44, 0
5, 102207, Note_on_c, 9, 51, 0
5, 102240, Note_on_c, 9, 51, 88
5, 102313, Note_on_c, 9, 44, 39
5, 102317, Note_on_c, 9, 51, 0
5, 102320, Note_on_c, 9, 51, 40
5, 102322, Note_on_c, 9, 44, 0
5, 102331, Note_on_c, 9, 51, 0
5, 102353, Note_on_c, 9, 44, 70
5, 102360, Note_on_c, 9, 51, 74
5, 102380, Note_on_c, 9, 44, 0
5, 102433, Note_on_c, 9, 44, 51
5, 102435, Note_on_c, 9, 51, 0
5, 102440, Note_on_c, 9, 51, 47
5, 102441, Note_on_c, 9, 44, 0
5, 102453, Note_on_c, 9, 51, 0
5, 102480, Note_on_c, 9, 51, 84
5, 102562, Note_on_c, 9, 51, 0
5, 102600, Note_on_c, 9, 51, 85
5, 102600, Note_on_c, 9, 46, 60
5, 102632, Note_on_c, 9, 46, 0
5, 102668, Note_on_c, 9, 51, 0
5, 102680, Note_on_c, 9, 51, 50
5, 102698, Note_on_c, 9, 51, 0
5, 102720, Note_on_c, 9, 51, 85
5, 102720, Note_on_c, 9, 36, 24
5, 102735, Note_on_c, 9, 36, 0
5, 102800, Note_on_c, 9, 36, 59
5, 102809, Note_on_c, 9, 51, 0
5, 102819, Note_on_c, 9, 36, 0
5, 102833, Note_on_c, 9, 44, 69
5, 102840, Note_on_c, 9, 51, 79
5, 102840, Note_on_c, 9, 36, 24
5, 102861, Note_on_c, 9, 36, 0
5, 102872, Note_on_c, 9, 44, 0
5, 102920, Note_on_c, 9, 51, 48
5, 102920, Note_on_c, 9, 36, 44
5, 102922, Note_on_c, 9, 51, 0
5, 102929, Note_on_c, 9, 51, 0
5, 102940, Note_on_c, 9, 36, 0
5, 102960, Note_on_c, 9, 51, 82
5, 103058, Note_on_c, 9, 51, 0
5, 103073, Note_on_c, 9, 44, 64
5, 103080, Note_on_c, 9, 51, 78
5, 103116, Note_on_c, 9, 44, 0
5, 103160, Note_on_c, 9, 51, 42
5, 103163, Note_on_c, 9, 51, 0
5, 103174, Note_on_c, 9, 51, 0
5, 103200, Note_on_c, 9, 51, 78
5, 103296, Note_on_c, 9, 51, 0
5, 103313, Note_on_c, 9, 44, 74
5, 103320, Note_on_c, 9, 51, 76
5, 103349, Note_on_c, 9, 44, 0
5, 103390, Note_on_c, 9, 51, 0
5, 103400, Note_on_c, 9, 51, 78
5, 103400, Note_on_c, 9, 53, 71
5, 103503, Note_on_c, 9, 51, 0
5, 103520, Note_on_c, 9, 51, 40
5, 103525, Note_on_c, 9, 53, 0
5, 103538, Note_on_c, 9, 51, 0
5, 103553, Note_on_c, 9, 44, 65
5, 103560, Note_on_c, 9, 53, 80
5, 103560, Note_on_c, 9, 51, 80
5, 103609, Note_on_c, 9, 44, 0
5, 103640, Note_on_c, 9, 36, 60
5, 103650, Note_on_c, 9, 36, 0
5, 103664, Note_on_c, 9, 53, 0
5, 103665, Note_on_c, 9, 51, 0
5, 103680, Note_on_c, 9, 51, 69
5, 103757, Note_on_c, 9, 51, 0
5, 103760, Note_on_c, 9, 51, 39
5, 103771, Note_on_c, 9, 51, 0
5, 103793, Note_on_c, 9, 44, 72
5, 103800, Note_on_c, 9, 51, 83
5, 103839, Note_on_c, 9, 44, 0
5, 103904, Note_on_c, 9, 51, 0
5, 103920, Note_on_c, 9, 51, 76
5, 104000, Note_on_c, 9, 51, 35
5, 104004, Note_on_c, 9, 51, 0
5, 104015, Note_on_c, 9, 51, 0
5, 104033, Note_on_c, 9, 44, 74
5, 104040, Note_on_c, 9, 51, 83
5, 104040, Note_on_c, 9, 36, 36
5, 104073, Note_on_c, 9, 36, 0
5, 104078, Note_on_c, 9, 44, 0
5, 104120, Note_on_c, 9, 36, 34
5, 104133, Note_on_c, 9, 36, 0
5, 104138, Note_on_c, 9, 51, 0
5, 104160, Note_on_c, 9, 51, 77
5, 104244, Note_on_c, 9, 51, 0
5, 104273, Note_on_c, 9, 44, 65
5, 104280, Note_on_c, 9, 51, 81
5, 104321, Note_on_c, 9, 44, 0
5, 104360, Note_on_c, 9, 51, 36
5, 104368, Note_on_c, 9, 51, 0
5, 104369, Note_on_c, 9, 51, 0
5, 104400, Note_on_c, 9, 51, 82
5, 104491, Note_on_c, 9, 51, 0
5, 104513, Note_on_c, 9, 44, 71
5, 104520, Note_on_c, 9, 51, 79
5, 104550, Note_on_c, 9, 44, 0
5, 104598, Note_on_c, 9, 51, 0
5, 104600, Note_on_c, 9, 51, 51
5, 104609, Note_on_c, 9, 51, 0
5, 104640, Note_on_c, 9, 51, 69
5, 104728, Note_on_c, 9, 51, 0
5, 104753, Note_on_c, 9, 44, 73
5, 104760, Note_on_c, 9, 51, 73
5, 104760, Note_on_c, 9, 36, 32
5, 104776, Note_on_c, 9, 36, 0
5, 104789, Note_on_c, 9, 44, 0
5, 104840, Note_on_c, 9, 51, 53
5, 104840, Note_on_c, 9, 36, 48
5, 104841, Note_on_c, 9, 51, 0
5, 104853, Note_on_c, 9, 36, 0
5, 104857, Note_on_c, 9, 51, 0
5, 104880, Note_on_c, 9, 51, 64
5, 104971, Note_on_c, 9, 51, 0
5, 104993, Note_on_c, 9, 44, 72
5, 105000, Note_on_c, 9, 51, 79
5, 105028, Note_on_c, 9, 44, 0
5, 105073, Note_on_c, 9, 51, 0
5, 105080, Note_on_c, 9, 51, 46
5, 105100, Note_on_c, 9, 51, 0
5, 105120, Note_on_c, 9, 51, 83
5, 105212, Note_on_c, 9, 51, 0
5, 105233, Note_on_c, 9, 44, 62
5, 105240, Note_on_c, 9, 51, 79
5, 105262, Note_on_c, 9, 44, 0
5, 105302, Note_on_c, 9, 51, 0
5, 105320, Note_on_c, 9, 51, 51
5, 105338, Note_on_c, 9, 51, 0
5, 105360, Note_on_c, 9, 51, 60
5, 105411, Note_on_c, 9, 51, 0
5, 105440, Note_on_c, 9, 51, 73
5, 105440, Note_on_c, 9, 53, 74
5, 105480, Note_on_c, 9, 46, 55
5, 105509, Note_on_c, 9, 46, 0
5, 105562, Note_on_c, 9, 51, 0
5, 105566, Note_on_c, 9, 53, 0
5, 105600, Program_c, 9, 40
5, 105600, Note_on_c, 9, 36, 31
5, 105603, Note_on_c, 9, 59, 92
5, 105632, Note_on_c, 9, 36, 0
5, 105687, Note_on_c, 9, 59, 0
5, 105713, Note_on_c, 9, 44, 69
5, 105723, Note_on_c, 9, 59, 96
5, 105779, Note_on_c, 9, 44, 0
5, 105792, Note_on_c, 9, 59, 0
5, 105811, Note_on_c, 9, 59, 59
5, 105822, Note_on_c, 9, 59, 0
5, 105839, Note_on_c, 9, 59, 91
5, 105924, Note_on_c, 9, 59, 0
5, 105953, Note_on_c, 9, 44, 67
5, 105961, Note_on_c, 9, 59, 99
5, 106009, Note_on_c, 9, 44, 0
5, 106019, Note_on_c, 9, 59, 0
5, 106050, Note_on_c, 9, 59, 75
5, 106066, Note_on_c, 9, 59, 0
5, 106082, Note_on_c, 9, 59, 91
5, 106144, Note_on_c, 9, 59, 0
5, 106193, Note_on_c, 9, 44, 56
5, 106205, Note_on_c, 9, 59, 115
5, 106252, Note_on_c, 9, 59, 0
5, 106266, Note_on_c, 9, 44, 0
5, 106322, Note_on_c, 9, 59, 125
5, 106374, Note_on_c, 9, 59, 0
5, 106404, Note_on_c, 9, 59, 70
5, 106421, Note_on_c, 9, 59, 0
5, 106433, Note_on_c, 9, 59, 90
5, 106433, Note_on_c, 9, 44, 64
5, 106495, Note_on_c, 9, 59, 0
5, 106515, Note_on_c, 9, 44, 0
5, 106517, Note_on_c, 9, 59, 101
5, 106534, Note_on_c, 9, 59, 0
5, 106551, Note_on_c, 9, 59, 90
5, 106633, Note_on_c, 9, 59, 0
5, 106663, Note_on_c, 9, 59, 101
5, 106673, Note_on_c, 9, 44, 63
5, 106717, Note_on_c, 9, 44, 0
5, 106741, Note_on_c, 9, 59, 0
5, 106785, Note_on_c, 9, 59, 105
5, 106868, Note_on_c, 9, 53, 90
5, 106869, Note_on_c, 9, 59, 0
5, 106878, Note_on_c, 9, 53, 0
5, 106880, Note_on_c, 9, 36, 24
5, 106889, Note_on_c, 9, 36, 0
5, 106915, Note_on_c, 9, 59, 44
5, 106920, Note_on_c, 9, 46, 38
5, 106920, Note_on_c, 9, 36, 24
5, 106943, Note_on_c, 9, 36, 0
5, 106945, Note_on_c, 9, 46, 0
5, 107000, Note_on_c, 9, 36, 48
5, 107004, Note_on_c, 9, 59, 0
5, 107011, Note_on_c, 9, 36, 0
5, 107029, Note_on_c, 9, 59, 80
5, 107120, Note_on_c, 9, 59, 0
5, 107151, Note_on_c, 9, 59, 88
5, 107153, Note_on_c, 9, 44, 53
5, 107201, Note_on_c, 9, 44, 0
5, 107229, Note_on_c, 9, 59, 0
5, 107245, Note_on_c, 9, 59, 60
5, 107254, Note_on_c, 9, 59, 0
5, 107276, Note_on_c, 9, 59, 89
5, 107363, Note_on_c, 9, 59, 0
5, 107393, Note_on_c, 9, 44, 57
5, 107398, Note_on_c, 9, 59, 101
5, 107421, Note_on_c, 9, 44, 0
5, 107479, Note_on_c, 9, 59, 0
5, 107489, Note_on_c, 9, 59, 46
5, 107503, Note_on_c, 9, 59, 0
5, 107517, Note_on_c, 9, 59, 88
5, 107612, Note_on_c, 9, 59, 0
5, 107633, Note_on_c, 9, 44, 53
5, 107639, Note_on_c, 9, 59, 94
5, 107661, Note_on_c, 9, 44, 0
5, 107717, Note_on_c, 9, 59, 0
5, 107737, Note_on_c, 9, 59, 45
5, 107748, Note_on_c, 9, 59, 0
5, 107768, Note_on_c, 9, 59, 76
5, 107813, Note_on_c, 9, 59, 0
5, 107849, Note_on_c, 9, 59, 108
5, 107873, Note_on_c, 9, 44, 50
5, 107880, Note_on_c, 9, 36, 20
5, 107882, Note_on_c, 9, 59, 0
5, 107889, Note_on_c, 9, 36, 0
5, 107897, Note_on_c, 9, 59, 71
5, 107911, Note_on_c, 9, 44, 0
5, 107960, Note_on_c, 9, 36, 59
5, 107974, Note_on_c, 9, 59, 0
5, 107983, Note_on_c, 9, 36, 0
5, 108001, Note_on_c, 9, 59, 90
5, 108076, Note_on_c, 9, 59, 0
5, 108093, Note_on_c, 9, 59, 57
5, 108104, Note_on_c, 9, 59, 0
5, 108113, Note_on_c, 9, 44, 50
5, 108119, Note_on_c, 9, 59, 92
5, 108137, Note_on_c, 9, 44, 0
5, 108215, Note_on_c, 9, 59, 0
5, 108244, Note_on_c, 9, 59, 92
5, 108320, Note_on_c, 9, 36, 28
5, 108333, Note_on_c, 9, 59, 0
5, 108336, Note_on_c, 9, 36, 0
5, 108353, Note_on_c, 9, 44, 49
5, 108363, Note_on_c, 9, 59, 88
5, 108384, Note_on_c, 9, 44, 0
5, 108436, Note_on_c, 9, 59, 0
5, 108453, Note_on_c, 9, 59, 55
5, 108464, Note_on_c, 9, 59, 0
5, 108480, Note_on_c, 9, 59, 88
5, 108482, Note_on_c, 9, 46, 55
5, 108499, Note_on_c, 9, 46, 0
5, 108569, Note_on_c, 9, 59, 0
5, 108600, Note_on_c, 9, 46, 45
5, 108606, Note_on_c, 9, 59, 91
5, 108627, Note_on_c, 9, 46, 0
5, 108675, Note_on_c, 9, 59, 0
5, 108698, Note_on_c, 9, 53, 69
5, 108706, Note_on_c, 9, 53, 0
5, 108735, Note_on_c, 9, 59, 63
5, 108814, Note_on_c, 9, 59, 0
5, 108833, Note_on_c, 9, 44, 37
5, 108850, Note_on_c, 9, 59, 89
5, 108874, Note_on_c, 9, 44, 0
5, 108880, Note_on_c, 9, 36, 50
5, 108892, Note_on_c, 9, 36, 0
5, 108920, Note_on_c, 9, 36, 47
5, 108926, Note_on_c, 9, 59, 0
5, 108935, Note_on_c, 9, 36, 0
5, 108971, Note_on_c, 9, 59, 91
5, 109038, Note_on_c, 9, 59, 0
5, 109068, Note_on_c, 9, 59, 53
5, 109073, Note_on_c, 9, 44, 52
5, 109076, Note_on_c, 9, 59, 0
5, 109097, Note_on_c, 9, 59, 82
5, 109109, Note_on_c, 9, 59, 0
5, 109111, Note_on_c, 9, 44, 0
5, 109182, Note_on_c, 9, 59, 123
5, 109197, Note_on_c, 9, 59, 0
5, 109280, Note_on_c, 9, 46, 55
5, 109302, Note_on_c, 9, 59, 58
5, 109305, Note_on_c, 9, 46, 0
5, 109310, Note_on_c, 9, 59, 0
5, 109338, Note_on_c, 9, 59, 94
5, 109396, Note_on_c, 9, 59, 0
5, 109400, Note_on_c, 9, 36, 46
5, 109410, Note_on_c, 9, 36, 0
5, 109440, Note_on_c, 9, 59, 51
5, 109449, Note_on_c, 9, 59, 0
5, 109455, Note_on_c, 9, 59, 55
5, 109463, Note_on_c, 9, 59, 0
5, 109534, Note_on_c, 9, 59, 108
5, 109553, Note_on_c, 9, 44, 55
5, 109574, Note_on_c, 9, 59, 0
5, 109585, Note_on_c, 9, 44, 0
5, 109693, Note_on_c, 9, 59, 82
5, 109757, Note_on_c, 9, 59, 0
5, 109760, Note_on_c, 9, 59, 61
5, 109769, Note_on_c, 9, 59, 0
5, 109800, Note_on_c, 9, 46, 32
5, 109800, Note_on_c, 9, 36, 20
5, 109811, Note_on_c, 9, 36, 0
5, 109812, Note_on_c, 9, 59, 84
5, 109824, Note_on_c, 9, 46, 0
5, 109862, Note_on_c, 9, 59, 0
5, 109880, Note_on_c, 9, 36, 58
5, 109893, Note_on_c, 9, 59, 60
5, 109904, Note_on_c, 9, 36, 0
5, 109907, Note_on_c, 9, 59, 0
5, 109923, Note_on_c, 9, 59, 80
5, 109985, Note_on_c, 9, 59, 0
5, 110033, Note_on_c, 9, 44, 40
5, 110040, Note_on_c, 9, 59, 91
5, 110062, Note_on_c, 9, 44, 0
5, 110099, Note_on_c, 9, 59, 0
5, 110128, Note_on_c, 9, 59, 61
5, 110140, Note_on_c, 9, 59, 0
5, 110158, Note_on_c, 9, 59, 83
5, 110226, Note_on_c, 9, 59, 0
5, 110273, Note_on_c, 9, 44, 49
5, 110276, Note_on_c, 9, 59, 89
5, 110308, Note_on_c, 9, 44, 0
5, 110344, Note_on_c, 9, 59, 0
5, 110395, Note_on_c, 9, 59, 83
5, 110462, Note_on_c, 9, 59, 0
5, 110513, Note_on_c, 9, 44, 51
5, 110518, Note_on_c, 9, 59, 88
5, 110554, Note_on_c, 9, 44, 0
5, 110575, Note_on_c, 9, 59, 0
5, 110610, Note_on_c, 9, 59, 57
5, 110619, Note_on_c, 9, 59, 0
5, 110640, Note_on_c, 9, 59, 80
5, 110713, Note_on_c, 9, 59, 0
5, 110753, Note_on_c, 9, 44, 57
5, 110763, Note_on_c, 9, 59, 89
5, 110791, Note_on_c, 9, 44, 0
5, 110827, Note_on_c, 9, 59, 0
5, 110851, Note_on_c, 9, 59, 56
5, 110862, Note_on_c, 9, 59, 0
5, 110884, Note_on_c, 9, 59, 80
5, 110958, Note_on_c, 9, 59, 0
5, 110993, Note_on_c, 9, 44, 61
5, 111000, Note_on_c, 9, 59, 89
5, 111035, Note_on_c, 9, 44, 0
5, 111063, Note_on_c, 9, 59, 0
5, 111120, Note_on_c, 9, 59, 95
5, 111120, Note_on_c, 9, 36, 43
5, 111131, Note_on_c, 9, 36, 0
5, 111190, Note_on_c, 9, 59, 0
5, 111207, Note_on_c, 9, 59, 58
5, 111216, Note_on_c, 9, 59, 0
5, 111233, Note_on_c, 9, 44, 67
5, 111238, Note_on_c, 9, 59, 91
5, 111280, Note_on_c, 9, 44, 0
5, 111320, Note_on_c, 9, 36, 53
5, 111322, Note_on_c, 9, 59, 0
5, 111330, Note_on_c, 9, 36, 0
5, 111358, Note_on_c, 9, 59, 91
5, 111429, Note_on_c, 9, 59, 0
5, 111473, Note_on_c, 9, 44, 56
5, 111475, Note_on_c, 9, 59, 89
5, 111524, Note_on_c, 9, 44, 0
5, 111544, Note_on_c, 9, 59, 0
5, 111567, Note_on_c, 9, 59, 60
5, 111579, Note_on_c, 9, 59, 0
5, 111597, Note_on_c, 9, 59, 85
5, 111674, Note_on_c, 9, 59, 0
5, 111713, Note_on_c, 9, 44, 58
5, 111714, Note_on_c, 9, 59, 89
5, 111751, Note_on_c, 9, 44, 0
5, 111787, Note_on_c, 9, 59, 0
5, 111800, Note_on_c, 9, 59, 44
5, 111809, Note_on_c, 9, 59, 0
5, 111831, Note_on_c, 9, 59, 40
5, 111894, Note_on_c, 9, 59, 0
5, 111914, Note_on_c, 9, 59, 59
5, 111927, Note_on_c, 9, 59, 0
5, 111947, Note_on_c, 9, 59, 85
5, 111953, Note_on_c, 9, 44, 61
5, 111988, Note_on_c, 9, 44, 0
5, 112039, Note_on_c, 9, 59, 0
5, 112070, Note_on_c, 9, 59, 82
5, 112151, Note_on_c, 9, 59, 0
5, 112192, Note_on_c, 9, 59, 82
5, 112193, Note_on_c, 9, 44, 58
5, 112231, Note_on_c, 9, 44, 0
5, 112265, Note_on_c, 9, 59, 0
5, 112281, Note_on_c, 9, 59, 58
5, 112295, Note_on_c, 9, 59, 0
5, 112312, Note_on_c, 9, 59, 78
5, 112399, Note_on_c, 9, 59, 0
5, 112433, Note_on_c, 9, 44, 61
5, 112437, Note_on_c, 9, 59, 81
5, 112469, Note_on_c, 9, 44, 0
5, 112505, Note_on_c, 9, 59, 0
5, 112530, Note_on_c, 9, 59, 40
5, 112541, Note_on_c, 9, 59, 0
5, 112555, Note_on_c, 9, 59, 79
5, 112641, Note_on_c, 9, 59, 0
5, 112673, Note_on_c, 9, 44, 64
5, 112676, Note_on_c, 9, 59, 80
5, 112719, Note_on_c, 9, 44, 0
5, 112739, Note_on_c, 9, 59, 0
5, 112769, Note_on_c, 9, 59, 57
5, 112778, Note_on_c, 9, 59, 0
5, 112799, Note_on_c, 9, 59, 71
5, 112869, Note_on_c, 9, 59, 0
5, 112913, Note_on_c, 9, 44, 62
5, 112922, Note_on_c, 9, 59, 92
5, 112975, Note_on_c, 9, 44, 0
5, 112995, Note_on_c, 9, 59, 0
5, 113046, Note_on_c, 9, 59, 51
5, 113055, Note_on_c, 9, 59, 0
5, 113110, Note_on_c, 9, 59, 92
5, 113120, Note_on_c, 9, 59, 68
5, 113133, Note_on_c, 9, 59, 0
5, 113138, Note_on_c, 9, 59, 0
5, 113153, Note_on_c, 9, 44, 65
5, 113210, Note_on_c, 9, 44, 0
5, 113233, Note_on_c, 9, 59, 28
5, 113240, Note_on_c, 9, 36, 65
5, 113240, Note_on_c, 9, 57, 66
5, 113241, Note_on_c, 9, 59, 0
5, 113248, Note_on_c, 9, 57, 0
5, 113263, Note_on_c, 9, 36, 0
5, 113269, Note_on_c, 9, 59, 91
5, 113280, Note_on_c, 9, 36, 64
5, 113320, Note_on_c, 9, 36, 0
5, 113345, Note_on_c, 9, 59, 0
5, 113393, Note_on_c, 9, 44, 60
5, 113403, Note_on_c, 9, 59, 59
5, 113411, Note_on_c, 9, 59, 0
5, 113431, Note_on_c, 9, 44, 0
5, 113487, Note_on_c, 9, 59, 67
5, 113507, Note_on_c, 9, 59, 0
5, 113522, Note_on_c, 9, 59, 67
5, 113592, Note_on_c, 9, 59, 0
5, 113600, Note_on_c, 9, 59, 54
5, 113609, Note_on_c, 9, 59, 0
5, 113633, Note_on_c, 9, 44, 57
5, 113639, Note_on_c, 9, 59, 91
5, 113640, Note_on_c, 9, 36, 39
5, 113675, Note_on_c, 9, 44, 0
5, 113700, Note_on_c, 9, 36, 0
5, 113706, Note_on_c, 9, 59, 0
5, 113720, Note_on_c, 9, 36, 51
5, 113729, Note_on_c, 9, 59, 47
5, 113739, Note_on_c, 9, 59, 0
5, 113747, Note_on_c, 9, 36, 0
5, 113762, Note_on_c, 9, 59, 67
5, 113824, Note_on_c, 9, 59, 0
5, 113873, Note_on_c, 9, 44, 57
5, 113876, Note_on_c, 9, 59, 92
5, 113916, Note_on_c, 9, 44, 0
5, 113948, Note_on_c, 9, 59, 0
5, 113992, Note_on_c, 9, 59, 87
5, 114058, Note_on_c, 9, 59, 0
5, 114090, Note_on_c, 9, 59, 48
5, 114099, Note_on_c, 9, 59, 0
5, 114113, Note_on_c, 9, 44, 59
5, 114118, Note_on_c, 9, 59, 84
5, 114162, Note_on_c, 9, 44, 0
5, 114199, Note_on_c, 9, 59, 0
5, 114236, Note_on_c, 9, 59, 85
5, 114240, Note_on_c, 9, 36, 45
5, 114250, Note_on_c, 9, 36, 0
5, 114314, Note_on_c, 9, 59, 0
5, 114353, Note_on_c, 9, 44, 59
5, 114358, Note_on_c, 9, 59, 85
5, 114393, Note_on_c, 9, 44, 0
5, 114426, Note_on_c, 9, 59, 0
5, 114447, Note_on_c, 9, 59, 51
5, 114463, Note_on_c, 9, 59, 0
5, 114478, Note_on_c, 9, 59, 84
5, 114562, Note_on_c, 9, 59, 0
5, 114593, Note_on_c, 9, 44, 56
5, 114600, Note_on_c, 9, 59, 90
5, 114600, Note_on_c, 9, 36, 22
5, 114627, Note_on_c, 9, 36, 0
5, 114630, Note_on_c, 9, 44, 0
5, 114668, Note_on_c, 9, 59, 0
5, 114680, Note_on_c, 9, 36, 41
5, 114688, Note_on_c, 9, 59, 53
5, 114697, Note_on_c, 9, 36, 0
5, 114701, Note_on_c, 9, 59, 0
5, 114721, Note_on_c, 9, 59, 78
5, 114792, Note_on_c, 9, 59, 0
5, 114833, Note_on_c, 9, 44, 59
5, 114839, Note_on_c, 9, 59, 92
5, 114880, Note_on_c, 9, 44, 0
5, 114911, Note_on_c, 9, 59, 0
5, 114967, Note_on_c, 9, 59, 67
5, 115009, Note_on_c, 9, 59, 0
5, 115049, Note_on_c, 9, 59, 84
5, 115050, Note_on_c, 9, 53, 81
5, 115080, Note_on_c, 9, 46, 50
5, 115114, Note_on_c, 9, 46, 0
5, 115143, Note_on_c, 9, 53, 0
5, 115144, Note_on_c, 9, 59, 0
5, 115160, Note_on_c, 9, 36, 66
5, 115168, Note_on_c, 9, 59, 59
5, 115185, Note_on_c, 9, 59, 0
5, 115194, Note_on_c, 9, 36, 0
5, 115212, Note_on_c, 9, 59, 83
5, 115215, Note_on_c, 9, 53, 76
5, 115240, Note_on_c, 9, 36, 24
5, 115270, Note_on_c, 9, 36, 0
5, 115285, Note_on_c, 9, 59, 0
5, 115296, Note_on_c, 9, 53, 0
5, 115313, Note_on_c, 9, 44, 55
5, 115335, Note_on_c, 9, 59, 53
5, 115358, Note_on_c, 9, 44, 0
5, 115368, Note_on_c, 9, 59, 0
5, 115412, Note_on_c, 9, 59, 85
5, 115511, Note_on_c, 9, 59, 0
5, 115545, Note_on_c, 9, 59, 41
5, 115553, Note_on_c, 9, 44, 59
5, 115554, Note_on_c, 9, 59, 0
5, 115583, Note_on_c, 9, 59, 64
5, 115590, Note_on_c, 9, 59, 0
5, 115592, Note_on_c, 9, 44, 0
5, 115640, Note_on_c, 9, 59, 39
5, 115650, Note_on_c, 9, 59, 0
5, 115651, Note_on_c, 9, 59, 92
5, 115673, Note_on_c, 9, 59, 0
5, 115693, Note_on_c, 9, 59, 73
5, 115751, Note_on_c, 9, 59, 0
5, 115760, Note_on_c, 9, 59, 57
5, 115769, Note_on_c, 9, 59, 0
5, 115793, Note_on_c, 9, 44, 60
5, 115833, Note_on_c, 9, 44, 0
5, 115876, Note_on_c, 9, 59, 74
5, 115880, Note_on_c, 9, 59, 61
5, 115888, Note_on_c, 9, 59, 0
5, 115896, Note_on_c, 9, 59, 0
5, 115914, Note_on_c, 9, 59, 74
5, 115984, Note_on_c, 9, 59, 0
5, 116000, Note_on_c, 9, 59, 56
5, 116008, Note_on_c, 9, 59, 0
5, 116033, Note_on_c, 9, 44, 60
5, 116072, Note_on_c, 9, 44, 0
5, 116124, Note_on_c, 9, 59, 46
5, 116134, Note_on_c, 9, 59, 0
5, 116158, Note_on_c, 9, 59, 90
5, 116217, Note_on_c, 9, 59, 0
5, 116273, Note_on_c, 9, 44, 60
5, 116315, Note_on_c, 9, 44, 0
5, 116357, Note_on_c, 9, 59, 50
5, 116368, Note_on_c, 9, 59, 0
5, 116392, Note_on_c, 9, 59, 62
5, 116449, Note_on_c, 9, 59, 0
5, 116480, Note_on_c, 9, 59, 70
5, 116487, Note_on_c, 9, 59, 0
5, 116513, Note_on_c, 9, 44, 62
5, 116573, Note_on_c, 9, 44, 0
5, 116603, Note_on_c, 9, 59, 54
5, 116613, Note_on_c, 9, 59, 0
5, 116640, Note_on_c, 9, 59, 49
5, 116640, Note_on_c, 9, 59, 76
5, 116641, Note_on_c, 9, 59, 70
5, 116650, Note_on_c, 9, 59, 0
5, 116682, Note_on_c, 9, 59, 0
5, 116748, Note_on_c, 9, 59, 0
5, 116753, Note_on_c, 9, 44, 60
5, 116760, Note_on_c, 9, 36, 55
5, 116770, Note_on_c, 9, 36, 0
5, 116815, Note_on_c, 9, 44, 0
5, 116840, Note_on_c, 9, 59, 95
5, 116840, Note_on_c, 9, 57, 57
5, 116840, Note_on_c, 9, 36, 46
5, 116847, Note_on_c, 9, 59, 85
5, 116854, Note_on_c, 9, 57, 0
5, 116872, Note_on_c, 9, 36, 0
5, 116957, Note_on_c, 9, 59, 0
5, 116993, Note_on_c, 9, 44, 64
5, 117000, Note_on_c, 9, 59, 113
5, 117046, Note_on_c, 9, 44, 0
5, 117076, Note_on_c, 9, 59, 0
5, 117403, Note_on_c, 9, 59, 0
5, 117403, End_track
6, 0, Start_track
6, 0, Title_t, ""
6, 132, Program_c, 2, 24
6, 132, End_track
0, 0, End_of_file
