0, 0, Header, 1, 4, 480
1, 0, Start_track
1, 0, Title_t, "It's Almost Like Being In Love"
1, 0, Copyright_t, "1997"
1, 0, Text_t, "\012"
1, 0, Time_signature, 4, 2, 24, 8
1, 0, Key_signature, 0, "major"
1, 0, Tempo, 428571
1, 0, End_track
2, 0, Start_track
2, 0, MIDI_port, 0
2, 0, Title_t, "dougmck@pipeline.com.au"
2, 0, Program_c, 0, 0
2, 0, Control_c, 0, 7, 100
2, 7, Note_on_c, 0, 86, 58
2, 12, Note_on_c, 0, 55, 43
2, 28, Note_on_c, 0, 60, 28
2, 39, Note_on_c, 0, 62, 38
2, 41, Note_on_c, 0, 79, 58
2, 71, Note_on_c, 0, 74, 58
2, 73, Note_on_c, 0, 65, 43
2, 90, Control_c, 0, 64, 127
2, 801, Note_on_c, 0, 86, 0
2, 919, Note_on_c, 0, 79, 0
2, 959, Note_on_c, 0, 82, 82
2, 961, Note_on_c, 0, 74, 0
2, 1198, Note_on_c, 0, 82, 0
2, 1418, Note_on_c, 0, 55, 0
2, 1425, Note_on_c, 0, 62, 0
2, 1434, Note_on_c, 0, 65, 0
2, 1450, Note_on_c, 0, 60, 0
2, 1678, Note_on_c, 0, 79, 69
2, 1761, Note_on_c, 0, 79, 0
2, 1918, Note_on_c, 0, 81, 63
2, 1929, Control_c, 0, 64, 0
2, 1940, Note_on_c, 0, 63, 35
2, 1942, Note_on_c, 0, 67, 36
2, 1948, Note_on_c, 0, 74, 36
2, 1964, Note_on_c, 0, 57, 32
2, 2246, Control_c, 0, 64, 127
2, 2421, Note_on_c, 0, 67, 0
2, 2501, Note_on_c, 0, 63, 0
2, 2508, Note_on_c, 0, 74, 0
2, 2780, Note_on_c, 0, 78, 34
2, 2803, Note_on_c, 0, 74, 33
2, 2807, Note_on_c, 0, 63, 23
2, 2814, Note_on_c, 0, 67, 25
2, 2819, Note_on_c, 0, 81, 0
2, 2825, Note_on_c, 0, 69, 30
2, 3191, Note_on_c, 0, 67, 0
2, 3221, Note_on_c, 0, 63, 0
2, 3229, Note_on_c, 0, 69, 0
2, 3241, Note_on_c, 0, 57, 0
2, 3283, Note_on_c, 0, 74, 0
2, 3346, Note_on_c, 0, 78, 0
2, 3933, Note_on_c, 0, 84, 91
2, 3935, Note_on_c, 0, 77, 91
2, 3937, Note_on_c, 0, 81, 83
2, 3938, Note_on_c, 0, 60, 80
2, 3939, Note_on_c, 0, 72, 90
2, 3941, Note_on_c, 0, 57, 62
2, 3949, Note_on_c, 0, 50, 66
2, 3951, Note_on_c, 0, 53, 66
2, 3953, Control_c, 0, 64, 0
2, 4164, Control_c, 0, 64, 127
2, 4598, Note_on_c, 0, 60, 0
2, 4641, Note_on_c, 0, 57, 0
2, 4865, Note_on_c, 0, 81, 0
2, 4870, Note_on_c, 0, 84, 0
2, 4891, Note_on_c, 0, 77, 0
2, 4900, Note_on_c, 0, 57, 30
2, 4906, Note_on_c, 0, 60, 29
2, 4923, Note_on_c, 0, 72, 0
2, 5354, Note_on_c, 0, 60, 0
2, 5358, Note_on_c, 0, 50, 0
2, 5413, Note_on_c, 0, 57, 0
2, 5414, Note_on_c, 0, 53, 0
2, 5532, Note_on_c, 0, 81, 72
2, 5638, Note_on_c, 0, 81, 0
2, 5680, Note_on_c, 0, 77, 49
2, 5766, Note_on_c, 0, 77, 0
2, 5809, Control_c, 0, 64, 0
2, 5810, Note_on_c, 0, 64, 40
2, 5826, Note_on_c, 0, 79, 59
2, 5829, Note_on_c, 0, 59, 43
2, 5831, Note_on_c, 0, 53, 33
2, 6223, Control_c, 0, 64, 127
2, 6606, Note_on_c, 0, 79, 0
2, 7180, Note_on_c, 0, 59, 0
2, 7184, Note_on_c, 0, 53, 0
2, 7245, Note_on_c, 0, 64, 0
2, 7344, Note_on_c, 0, 67, 44
2, 7413, Note_on_c, 0, 67, 0
2, 7509, Note_on_c, 0, 69, 57
2, 7583, Note_on_c, 0, 69, 0
2, 7670, Note_on_c, 0, 63, 32
2, 7680, Note_on_c, 0, 67, 29
2, 7686, Control_c, 0, 64, 0
2, 7688, Note_on_c, 0, 58, 33
2, 7692, Note_on_c, 0, 70, 53
2, 7703, Note_on_c, 0, 62, 30
2, 8178, Control_c, 0, 64, 127
2, 8662, Note_on_c, 0, 67, 0
2, 9163, Note_on_c, 0, 62, 0
2, 9209, Note_on_c, 0, 58, 0
2, 9249, Note_on_c, 0, 63, 0
2, 9293, Note_on_c, 0, 70, 0
2, 9311, Note_on_c, 0, 67, 45
2, 9349, Note_on_c, 0, 67, 0
2, 9447, Note_on_c, 0, 69, 66
2, 9509, Note_on_c, 0, 69, 0
2, 9601, Control_c, 0, 64, 0
2, 9602, Note_on_c, 0, 67, 43
2, 9611, Note_on_c, 0, 63, 38
2, 9614, Note_on_c, 0, 70, 79
2, 9622, Note_on_c, 0, 57, 40
2, 9729, Note_on_c, 0, 70, 0
2, 9778, Note_on_c, 0, 72, 61
2, 9895, Note_on_c, 0, 72, 0
2, 9938, Note_on_c, 0, 70, 51
2, 10534, Note_on_c, 0, 70, 0
2, 10583, Note_on_c, 0, 69, 39
2, 10586, Note_on_c, 0, 67, 0
2, 10654, Note_on_c, 0, 69, 0
2, 10724, Note_on_c, 0, 70, 57
2, 10862, Note_on_c, 0, 70, 0
2, 10900, Note_on_c, 0, 69, 66
2, 10924, Note_on_c, 0, 67, 32
2, 11159, Note_on_c, 0, 67, 0
2, 11180, Control_c, 0, 64, 127
2, 11269, Note_on_c, 0, 57, 0
2, 11309, Note_on_c, 0, 63, 0
2, 11313, Note_on_c, 0, 70, 64
2, 11314, Note_on_c, 0, 69, 0
2, 11406, Note_on_c, 0, 70, 0
2, 11440, Note_on_c, 0, 71, 47
2, 11525, Note_on_c, 0, 71, 0
2, 11550, Note_on_c, 0, 65, 35
2, 11555, Control_c, 0, 64, 0
2, 11571, Note_on_c, 0, 72, 60
2, 11588, Note_on_c, 0, 60, 32
2, 11589, Note_on_c, 0, 62, 29
2, 11731, Note_on_c, 0, 65, 0
2, 11846, Note_on_c, 0, 72, 0
2, 11892, Note_on_c, 0, 69, 33
2, 11946, Note_on_c, 0, 69, 0
2, 11950, Note_on_c, 0, 53, 44
2, 12031, Note_on_c, 0, 65, 35
2, 12163, Note_on_c, 0, 62, 0
2, 12214, Note_on_c, 0, 60, 0
2, 12334, Note_on_c, 0, 62, 42
2, 12351, Note_on_c, 0, 65, 0
2, 12508, Control_c, 0, 64, 127
2, 12737, Note_on_c, 0, 62, 0
2, 12897, Note_on_c, 0, 53, 0
2, 13451, Note_on_c, 0, 63, 34
2, 13464, Note_on_c, 0, 67, 26
2, 13465, Note_on_c, 0, 56, 33
2, 13469, Note_on_c, 0, 60, 40
2, 13480, Control_c, 0, 64, 0
2, 13774, Note_on_c, 0, 91, 92
2, 13893, Note_on_c, 0, 91, 0
2, 13925, Note_on_c, 0, 67, 0
2, 13941, Note_on_c, 0, 87, 55
2, 13999, Note_on_c, 0, 63, 0
2, 14002, Note_on_c, 0, 56, 0
2, 14011, Note_on_c, 0, 60, 0
2, 14014, Note_on_c, 0, 87, 0
2, 14086, Note_on_c, 0, 84, 64
2, 14181, Note_on_c, 0, 84, 0
2, 14221, Control_c, 0, 64, 127
2, 14238, Note_on_c, 0, 80, 53
2, 14289, Note_on_c, 0, 80, 0
2, 14289, Control_c, 0, 64, 0
2, 14624, Note_on_c, 0, 89, 84
2, 14637, Note_on_c, 0, 66, 53
2, 14648, Note_on_c, 0, 56, 44
2, 14652, Note_on_c, 0, 62, 42
2, 14780, Note_on_c, 0, 86, 51
2, 14784, Note_on_c, 0, 89, 0
2, 14791, Note_on_c, 0, 66, 0
2, 14821, Note_on_c, 0, 62, 0
2, 14831, Note_on_c, 0, 56, 0
2, 14901, Note_on_c, 0, 86, 0
2, 14943, Note_on_c, 0, 83, 62
2, 14952, Note_on_c, 0, 62, 34
2, 14956, Note_on_c, 0, 66, 38
2, 14960, Note_on_c, 0, 56, 39
2, 14991, Control_c, 0, 64, 127
2, 15029, Note_on_c, 0, 66, 0
2, 15032, Note_on_c, 0, 83, 0
2, 15091, Note_on_c, 0, 79, 49
2, 15098, Note_on_c, 0, 62, 0
2, 15124, Note_on_c, 0, 79, 0
2, 15209, Note_on_c, 0, 56, 0
2, 15250, Note_on_c, 0, 86, 90
2, 15257, Note_on_c, 0, 62, 52
2, 15270, Control_c, 0, 64, 0
2, 15274, Note_on_c, 0, 65, 66
2, 15302, Note_on_c, 0, 60, 39
2, 15310, Note_on_c, 0, 55, 45
2, 15421, Note_on_c, 0, 82, 53
2, 15453, Note_on_c, 0, 60, 0
2, 15462, Note_on_c, 0, 65, 0
2, 15478, Note_on_c, 0, 86, 0
2, 15478, Note_on_c, 0, 62, 0
2, 15523, Note_on_c, 0, 82, 0
2, 15582, Note_on_c, 0, 79, 47
2, 15670, Note_on_c, 0, 79, 0
2, 15703, Control_c, 0, 64, 127
2, 15735, Note_on_c, 0, 74, 36
2, 15799, Control_c, 0, 64, 0
2, 15811, Note_on_c, 0, 74, 0
2, 15856, Note_on_c, 0, 62, 19
2, 15891, Note_on_c, 0, 70, 34
2, 16050, Note_on_c, 0, 70, 0
2, 16054, Note_on_c, 0, 62, 0
2, 16105, Note_on_c, 0, 55, 0
2, 16628, Control_c, 0, 64, 127
2, 16683, Note_on_c, 0, 74, 78
2, 16686, Control_c, 0, 64, 0
2, 16690, Note_on_c, 0, 65, 44
2, 16708, Note_on_c, 0, 60, 32
2, 16716, Note_on_c, 0, 62, 20
2, 16726, Note_on_c, 0, 65, 0
2, 16748, Note_on_c, 0, 62, 0
2, 16754, Note_on_c, 0, 60, 0
2, 16807, Note_on_c, 0, 74, 0
2, 17003, Note_on_c, 0, 70, 64
2, 17080, Control_c, 0, 64, 127
2, 17135, Note_on_c, 0, 70, 0
2, 17144, Note_on_c, 0, 67, 45
2, 17226, Note_on_c, 0, 67, 0
2, 17253, Control_c, 0, 64, 0
2, 17326, Note_on_c, 0, 69, 64
2, 17767, Note_on_c, 0, 67, 62
2, 17785, Note_on_c, 0, 63, 37
2, 17788, Note_on_c, 0, 57, 35
2, 17840, Note_on_c, 0, 63, 0
2, 17841, Note_on_c, 0, 57, 0
2, 17843, Note_on_c, 0, 67, 0
2, 18273, Note_on_c, 0, 67, 35
2, 18291, Note_on_c, 0, 57, 27
2, 18296, Note_on_c, 0, 63, 23
2, 18426, Note_on_c, 0, 67, 0
2, 18440, Note_on_c, 0, 63, 0
2, 18443, Note_on_c, 0, 57, 0
2, 18465, Control_c, 0, 64, 127
2, 18591, Note_on_c, 0, 69, 0
2, 18613, Note_on_c, 0, 57, 46
2, 18618, Note_on_c, 0, 63, 42
2, 18622, Note_on_c, 0, 67, 32
2, 18658, Control_c, 0, 64, 0
2, 18663, Note_on_c, 0, 67, 0
2, 18684, Note_on_c, 0, 63, 0
2, 18697, Note_on_c, 0, 57, 0
2, 18774, Note_on_c, 0, 71, 52
2, 18863, Note_on_c, 0, 71, 0
2, 19256, Note_on_c, 0, 74, 78
2, 19435, Note_on_c, 0, 74, 0
2, 19803, Control_c, 0, 64, 127
2, 20059, Note_on_c, 0, 60, 69
2, 20063, Note_on_c, 0, 72, 80
2, 20069, Note_on_c, 0, 65, 80
2, 20070, Note_on_c, 0, 62, 84
2, 20076, Note_on_c, 0, 69, 63
2, 20139, Note_on_c, 0, 60, 0
2, 20145, Note_on_c, 0, 69, 0
2, 20150, Control_c, 0, 64, 0
2, 20168, Note_on_c, 0, 65, 0
2, 20182, Note_on_c, 0, 72, 0
2, 20202, Note_on_c, 0, 62, 0
2, 20369, Note_on_c, 0, 69, 66
2, 20381, Note_on_c, 0, 57, 37
2, 20388, Note_on_c, 0, 60, 49
2, 20390, Note_on_c, 0, 65, 51
2, 20392, Control_c, 0, 64, 127
2, 20426, Note_on_c, 0, 65, 0
2, 20433, Note_on_c, 0, 60, 0
2, 20456, Note_on_c, 0, 69, 0
2, 20569, Note_on_c, 0, 57, 0
2, 20621, Control_c, 0, 64, 0
2, 20672, Note_on_c, 0, 65, 49
2, 20693, Note_on_c, 0, 62, 37
2, 20699, Note_on_c, 0, 59, 29
2, 20710, Note_on_c, 0, 53, 27
2, 20728, Control_c, 0, 64, 127
2, 20753, Note_on_c, 0, 59, 0
2, 20770, Note_on_c, 0, 65, 0
2, 20771, Note_on_c, 0, 62, 0
2, 20849, Note_on_c, 0, 53, 0
2, 21036, Note_on_c, 0, 67, 36
2, 21038, Note_on_c, 0, 64, 33
2, 21045, Control_c, 0, 64, 0
2, 21050, Note_on_c, 0, 55, 37
2, 21061, Note_on_c, 0, 60, 32
2, 21062, Note_on_c, 0, 59, 27
2, 21063, Note_on_c, 0, 57, 25
2, 21238, Control_c, 0, 64, 127
2, 21268, Note_on_c, 0, 64, 0
2, 21279, Note_on_c, 0, 59, 0
2, 21310, Note_on_c, 0, 60, 0
2, 21339, Note_on_c, 0, 67, 0
2, 21343, Note_on_c, 0, 57, 0
2, 21354, Note_on_c, 0, 55, 0
2, 21410, Control_c, 0, 64, 0
2, 21436, Note_on_c, 0, 57, 47
2, 21445, Note_on_c, 0, 66, 47
2, 21453, Note_on_c, 0, 63, 33
2, 21477, Note_on_c, 0, 54, 30
2, 21489, Note_on_c, 0, 60, 25
2, 21517, Control_c, 0, 64, 127
2, 21589, Note_on_c, 0, 66, 0
2, 21622, Note_on_c, 0, 60, 0
2, 21641, Note_on_c, 0, 57, 0
2, 21661, Note_on_c, 0, 63, 0
2, 21686, Note_on_c, 0, 54, 0
2, 21738, Control_c, 0, 64, 0
2, 21771, Note_on_c, 0, 57, 30
2, 21772, Note_on_c, 0, 65, 40
2, 21773, Note_on_c, 0, 59, 39
2, 21775, Note_on_c, 0, 62, 33
2, 21808, Note_on_c, 0, 53, 27
2, 22199, Control_c, 0, 64, 127
2, 22284, Note_on_c, 0, 57, 0
2, 22342, Note_on_c, 0, 59, 0
2, 22369, Note_on_c, 0, 62, 0
2, 22494, Note_on_c, 0, 50, 37
2, 22519, Note_on_c, 0, 53, 0
2, 22567, Note_on_c, 0, 50, 0
2, 22605, Control_c, 0, 64, 0
2, 22633, Note_on_c, 0, 62, 47
2, 22642, Note_on_c, 0, 55, 34
2, 22643, Note_on_c, 0, 59, 47
2, 22687, Note_on_c, 0, 47, 34
2, 22854, Control_c, 0, 64, 127
2, 22895, Note_on_c, 0, 65, 0
2, 22918, Note_on_c, 0, 55, 0
2, 22926, Note_on_c, 0, 59, 0
2, 22976, Note_on_c, 0, 62, 0
2, 23037, Control_c, 0, 64, 0
2, 23056, Note_on_c, 0, 47, 0
2, 23093, Note_on_c, 0, 55, 33
2, 23101, Note_on_c, 0, 63, 37
2, 23104, Note_on_c, 0, 48, 37
2, 23119, Note_on_c, 0, 58, 33
2, 23239, Control_c, 0, 64, 127
2, 23371, Note_on_c, 0, 55, 0
2, 23435, Note_on_c, 0, 58, 0
2, 23503, Note_on_c, 0, 63, 0
2, 23506, Note_on_c, 0, 48, 0
2, 24311, Note_on_c, 0, 82, 80
2, 24320, Note_on_c, 0, 63, 60
2, 24321, Note_on_c, 0, 58, 60
2, 24324, Note_on_c, 0, 62, 65
2, 24325, Note_on_c, 0, 67, 72
2, 24326, Note_on_c, 0, 75, 81
2, 24331, Note_on_c, 0, 70, 79
2, 24346, Control_c, 0, 64, 0
2, 24528, Control_c, 0, 64, 127
2, 24982, Note_on_c, 0, 70, 0
2, 24986, Note_on_c, 0, 75, 0
2, 24989, Note_on_c, 0, 62, 0
2, 25011, Note_on_c, 0, 58, 0
2, 25029, Note_on_c, 0, 67, 0
2, 25045, Note_on_c, 0, 63, 0
2, 25150, Note_on_c, 0, 82, 0
2, 25453, Control_c, 0, 64, 0
2, 25459, Note_on_c, 0, 67, 36
2, 25474, Note_on_c, 0, 79, 44
2, 25500, Note_on_c, 0, 67, 0
2, 25521, Note_on_c, 0, 79, 0
2, 25761, Control_c, 0, 64, 127
2, 25807, Note_on_c, 0, 81, 71
2, 25825, Note_on_c, 0, 63, 21
2, 25847, Control_c, 0, 64, 0
2, 25851, Note_on_c, 0, 81, 0
2, 25858, Note_on_c, 0, 63, 0
2, 25939, Note_on_c, 0, 63, 39
2, 25941, Note_on_c, 0, 57, 52
2, 25943, Note_on_c, 0, 67, 32
2, 25969, Note_on_c, 0, 82, 61
2, 25982, Control_c, 0, 64, 127
2, 26126, Note_on_c, 0, 67, 0
2, 26144, Note_on_c, 0, 57, 0
2, 26156, Note_on_c, 0, 63, 0
2, 26231, Note_on_c, 0, 82, 0
2, 26272, Note_on_c, 0, 79, 51
2, 26347, Note_on_c, 0, 79, 0
2, 26367, Control_c, 0, 64, 0
2, 26431, Note_on_c, 0, 63, 40
2, 26432, Note_on_c, 0, 81, 67
2, 26433, Note_on_c, 0, 57, 48
2, 26446, Note_on_c, 0, 67, 33
2, 26472, Control_c, 0, 64, 127
2, 26521, Note_on_c, 0, 67, 0
2, 26586, Note_on_c, 0, 57, 0
2, 26608, Note_on_c, 0, 63, 0
2, 26660, Note_on_c, 0, 81, 0
2, 26762, Note_on_c, 0, 65, 42
2, 26763, Note_on_c, 0, 82, 71
2, 26781, Control_c, 0, 64, 0
2, 26783, Note_on_c, 0, 62, 35
2, 26787, Note_on_c, 0, 60, 37
2, 26916, Control_c, 0, 64, 127
2, 26917, Note_on_c, 0, 65, 0
2, 27260, Note_on_c, 0, 53, 53
2, 27269, Note_on_c, 0, 82, 0
2, 27604, Note_on_c, 0, 62, 0
2, 27618, Note_on_c, 0, 60, 0
2, 27746, Note_on_c, 0, 96, 82
2, 27848, Note_on_c, 0, 96, 0
2, 27887, Control_c, 0, 64, 0
2, 27920, Note_on_c, 0, 93, 64
2, 27985, Note_on_c, 0, 93, 0
2, 28074, Note_on_c, 0, 94, 52
2, 28143, Note_on_c, 0, 94, 0
2, 28157, Control_c, 0, 64, 127
2, 28214, Note_on_c, 0, 96, 72
2, 28234, Control_c, 0, 64, 0
2, 28339, Note_on_c, 0, 65, 25
2, 28351, Note_on_c, 0, 96, 0
2, 28356, Note_on_c, 0, 89, 24
2, 28368, Note_on_c, 0, 62, 17
2, 28484, Note_on_c, 0, 65, 0
2, 28491, Note_on_c, 0, 89, 0
2, 28504, Control_c, 0, 64, 127
2, 28513, Note_on_c, 0, 91, 44
2, 28582, Note_on_c, 0, 62, 0
2, 28608, Note_on_c, 0, 91, 0
2, 28660, Note_on_c, 0, 93, 79
2, 28739, Note_on_c, 0, 93, 0
2, 28753, Control_c, 0, 64, 0
2, 28829, Note_on_c, 0, 86, 30
2, 28927, Control_c, 0, 64, 127
2, 28953, Note_on_c, 0, 86, 0
2, 28966, Note_on_c, 0, 87, 64
2, 29051, Note_on_c, 0, 87, 0
2, 29123, Note_on_c, 0, 89, 61
2, 29227, Note_on_c, 0, 89, 0
2, 29245, Control_c, 0, 64, 0
2, 29305, Note_on_c, 0, 84, 44
2, 29346, Note_on_c, 0, 84, 0
2, 29456, Control_c, 0, 64, 127
2, 29687, Control_c, 0, 64, 0
2, 29826, Note_on_c, 0, 86, 58
2, 29925, Note_on_c, 0, 86, 0
2, 29976, Control_c, 0, 64, 127
2, 29979, Note_on_c, 0, 87, 65
2, 30045, Note_on_c, 0, 87, 0
2, 30125, Note_on_c, 0, 88, 66
2, 30192, Note_on_c, 0, 65, 26
2, 30197, Control_c, 0, 64, 0
2, 30202, Note_on_c, 0, 62, 17
2, 30215, Note_on_c, 0, 88, 0
2, 30247, Note_on_c, 0, 65, 0
2, 30259, Note_on_c, 0, 62, 0
2, 30273, Note_on_c, 0, 91, 58
2, 30347, Note_on_c, 0, 91, 0
2, 30352, Control_c, 0, 64, 127
2, 30382, Note_on_c, 0, 53, 0
2, 30422, Note_on_c, 0, 95, 71
2, 30498, Note_on_c, 0, 95, 0
2, 30582, Note_on_c, 0, 96, 80
2, 30689, Note_on_c, 0, 96, 0
2, 30727, Control_c, 0, 64, 0
2, 30747, Note_on_c, 0, 60, 48
2, 30750, Note_on_c, 0, 86, 63
2, 30753, Note_on_c, 0, 98, 72
2, 30756, Note_on_c, 0, 64, 37
2, 30773, Note_on_c, 0, 59, 39
2, 30782, Note_on_c, 0, 55, 29
2, 31237, Control_c, 0, 64, 127
2, 31542, Note_on_c, 0, 98, 0
2, 31597, Note_on_c, 0, 86, 0
2, 31693, Note_on_c, 0, 59, 0
2, 31797, Note_on_c, 0, 64, 0
2, 31811, Note_on_c, 0, 60, 0
2, 31832, Note_on_c, 0, 55, 0
2, 31918, Note_on_c, 0, 81, 61
2, 31927, Note_on_c, 0, 93, 49
2, 31941, Note_on_c, 0, 60, 42
2, 31950, Note_on_c, 0, 81, 0
2, 31965, Note_on_c, 0, 93, 0
2, 31973, Note_on_c, 0, 60, 0
2, 32068, Note_on_c, 0, 95, 59
2, 32069, Note_on_c, 0, 83, 61
2, 32077, Note_on_c, 0, 60, 38
2, 32101, Note_on_c, 0, 83, 0
2, 32110, Note_on_c, 0, 95, 0
2, 32114, Note_on_c, 0, 60, 0
2, 32189, Control_c, 0, 64, 0
2, 32199, Note_on_c, 0, 55, 68
2, 32202, Note_on_c, 0, 64, 71
2, 32203, Note_on_c, 0, 60, 69
2, 32207, Note_on_c, 0, 59, 67
2, 32216, Note_on_c, 0, 84, 90
2, 32217, Note_on_c, 0, 96, 89
2, 32373, Control_c, 0, 64, 127
2, 32536, Control_c, 0, 64, 0
2, 32564, Note_on_c, 0, 59, 0
2, 32589, Note_on_c, 0, 55, 0
2, 32600, Note_on_c, 0, 64, 0
2, 32616, Note_on_c, 0, 60, 0
2, 32687, Note_on_c, 0, 64, 58
2, 32690, Control_c, 0, 64, 127
2, 32697, Note_on_c, 0, 60, 42
2, 32701, Note_on_c, 0, 54, 59
2, 33131, Note_on_c, 0, 84, 0
2, 33167, Note_on_c, 0, 54, 0
2, 33168, Note_on_c, 0, 60, 0
2, 33180, Note_on_c, 0, 96, 0
2, 33209, Note_on_c, 0, 64, 0
2, 33575, Control_c, 0, 64, 0
2, 33615, Note_on_c, 0, 94, 69
2, 33618, Note_on_c, 0, 54, 69
2, 33619, Note_on_c, 0, 60, 64
2, 33621, Note_on_c, 0, 88, 67
2, 33622, Note_on_c, 0, 100, 70
2, 33625, Note_on_c, 0, 64, 57
2, 33772, Note_on_c, 0, 94, 0
2, 33782, Note_on_c, 0, 95, 54
2, 33811, Note_on_c, 0, 64, 0
2, 33825, Note_on_c, 0, 54, 0
2, 33829, Note_on_c, 0, 60, 0
2, 33830, Note_on_c, 0, 95, 0
2, 33837, Note_on_c, 0, 100, 0
2, 33841, Note_on_c, 0, 88, 0
2, 34076, Note_on_c, 0, 86, 73
2, 34079, Note_on_c, 0, 98, 71
2, 34081, Note_on_c, 0, 94, 60
2, 34089, Note_on_c, 0, 92, 49
2, 34099, Note_on_c, 0, 60, 62
2, 34105, Note_on_c, 0, 64, 54
2, 34106, Note_on_c, 0, 54, 59
2, 34224, Note_on_c, 0, 92, 0
2, 34275, Note_on_c, 0, 86, 0
2, 34290, Note_on_c, 0, 95, 36
2, 34305, Note_on_c, 0, 94, 0
2, 34306, Note_on_c, 0, 98, 0
2, 34328, Note_on_c, 0, 95, 0
2, 34341, Note_on_c, 0, 60, 0
2, 34368, Note_on_c, 0, 64, 0
2, 34421, Note_on_c, 0, 54, 0
2, 34566, Note_on_c, 0, 94, 36
2, 34568, Note_on_c, 0, 90, 61
2, 34581, Note_on_c, 0, 62, 51
2, 34588, Note_on_c, 0, 82, 40
2, 34590, Note_on_c, 0, 59, 45
2, 34594, Note_on_c, 0, 54, 46
2, 34669, Note_on_c, 0, 95, 48
2, 34695, Note_on_c, 0, 94, 0
2, 34703, Note_on_c, 0, 82, 0
2, 34704, Note_on_c, 0, 91, 49
2, 34721, Note_on_c, 0, 83, 24
2, 34763, Note_on_c, 0, 90, 0
2, 34881, Note_on_c, 0, 91, 0
2, 34890, Note_on_c, 0, 95, 0
2, 34903, Note_on_c, 0, 83, 0
2, 34943, Note_on_c, 0, 59, 0
2, 34947, Note_on_c, 0, 62, 0
2, 34998, Note_on_c, 0, 54, 0
2, 35173, Control_c, 0, 64, 127
2, 35494, Note_on_c, 0, 56, 35
2, 35528, Note_on_c, 0, 56, 0
2, 35536, Note_on_c, 0, 69, 71
2, 35539, Control_c, 0, 64, 0
2, 35542, Note_on_c, 0, 66, 64
2, 35546, Note_on_c, 0, 62, 71
2, 35550, Note_on_c, 0, 59, 69
2, 35554, Note_on_c, 0, 57, 70
2, 35778, Note_on_c, 0, 56, 40
2, 35844, Note_on_c, 0, 57, 0
2, 35845, Note_on_c, 0, 59, 0
2, 35858, Note_on_c, 0, 62, 0
2, 35866, Note_on_c, 0, 66, 0
2, 35880, Note_on_c, 0, 56, 0
2, 35904, Control_c, 0, 64, 127
2, 35915, Note_on_c, 0, 55, 37
2, 35927, Note_on_c, 0, 69, 0
2, 35972, Control_c, 0, 64, 0
2, 36021, Note_on_c, 0, 55, 0
2, 36029, Note_on_c, 0, 54, 36
2, 36031, Note_on_c, 0, 59, 36
2, 36047, Note_on_c, 0, 66, 30
2, 36055, Note_on_c, 0, 62, 40
2, 36253, Note_on_c, 0, 62, 0
2, 36268, Note_on_c, 0, 59, 0
2, 36287, Note_on_c, 0, 66, 0
2, 36339, Note_on_c, 0, 54, 0
2, 36353, Note_on_c, 0, 69, 60
2, 36363, Note_on_c, 0, 66, 36
2, 36364, Note_on_c, 0, 59, 50
2, 36366, Note_on_c, 0, 62, 45
2, 36367, Note_on_c, 0, 57, 49
2, 36823, Note_on_c, 0, 57, 0
2, 36829, Note_on_c, 0, 59, 0
2, 36838, Note_on_c, 0, 62, 0
2, 36852, Note_on_c, 0, 54, 25
2, 36858, Control_c, 0, 64, 127
2, 36884, Note_on_c, 0, 66, 0
2, 36900, Note_on_c, 0, 69, 0
2, 36915, Control_c, 0, 64, 0
2, 36961, Note_on_c, 0, 54, 0
2, 36990, Note_on_c, 0, 59, 40
2, 37005, Note_on_c, 0, 67, 34
2, 37006, Note_on_c, 0, 55, 45
2, 37006, Note_on_c, 0, 62, 40
2, 37185, Control_c, 0, 64, 127
2, 37210, Note_on_c, 0, 67, 0
2, 37228, Note_on_c, 0, 59, 0
2, 37258, Note_on_c, 0, 55, 0
2, 37263, Note_on_c, 0, 62, 0
2, 37331, Note_on_c, 0, 59, 34
2, 37339, Control_c, 0, 64, 0
2, 37340, Note_on_c, 0, 66, 48
2, 37343, Note_on_c, 0, 62, 49
2, 37378, Note_on_c, 0, 50, 30
2, 37752, Note_on_c, 0, 59, 0
2, 37759, Note_on_c, 0, 62, 0
2, 37907, Control_c, 0, 64, 127
2, 37922, Note_on_c, 0, 62, 34
2, 37927, Note_on_c, 0, 59, 37
2, 37940, Note_on_c, 0, 55, 22
2, 37972, Note_on_c, 0, 50, 0
2, 37990, Note_on_c, 0, 55, 0
2, 37992, Note_on_c, 0, 59, 0
2, 38037, Note_on_c, 0, 62, 0
2, 38086, Note_on_c, 0, 66, 0
2, 38289, Note_on_c, 0, 70, 50
2, 38291, Note_on_c, 0, 58, 46
2, 38293, Note_on_c, 0, 62, 50
2, 38310, Control_c, 0, 64, 0
2, 38326, Note_on_c, 0, 65, 40
2, 38329, Note_on_c, 0, 55, 32
2, 38338, Note_on_c, 0, 43, 32
2, 38561, Control_c, 0, 64, 127
2, 38721, Note_on_c, 0, 43, 0
2, 38759, Note_on_c, 0, 58, 0
2, 38792, Note_on_c, 0, 55, 0
2, 38795, Note_on_c, 0, 62, 0
2, 38817, Note_on_c, 0, 65, 0
2, 38914, Note_on_c, 0, 70, 0
2, 39396, Note_on_c, 0, 81, 64
2, 39399, Control_c, 0, 64, 0
2, 39400, Note_on_c, 0, 58, 42
2, 39404, Note_on_c, 0, 62, 39
2, 39410, Note_on_c, 0, 76, 55
2, 39413, Note_on_c, 0, 69, 51
2, 39414, Note_on_c, 0, 57, 34
2, 39462, Note_on_c, 0, 69, 0
2, 39463, Note_on_c, 0, 62, 0
2, 39466, Note_on_c, 0, 57, 0
2, 39472, Note_on_c, 0, 76, 0
2, 39486, Note_on_c, 0, 58, 0
2, 39488, Note_on_c, 0, 81, 0
2, 39727, Note_on_c, 0, 81, 48
2, 39733, Note_on_c, 0, 69, 60
2, 39738, Note_on_c, 0, 76, 53
2, 39754, Note_on_c, 0, 57, 44
2, 39766, Note_on_c, 0, 69, 0
2, 39776, Note_on_c, 0, 81, 0
2, 39789, Note_on_c, 0, 76, 0
2, 39798, Note_on_c, 0, 57, 0
2, 39887, Note_on_c, 0, 62, 36
2, 39891, Note_on_c, 0, 57, 36
2, 39895, Note_on_c, 0, 82, 43
2, 39911, Note_on_c, 0, 58, 27
2, 39928, Note_on_c, 0, 82, 0
2, 39932, Note_on_c, 0, 62, 0
2, 39938, Note_on_c, 0, 57, 0
2, 39943, Note_on_c, 0, 58, 0
2, 40196, Note_on_c, 0, 58, 52
2, 40198, Note_on_c, 0, 82, 63
2, 40201, Note_on_c, 0, 70, 58
2, 40207, Control_c, 0, 64, 127
2, 40234, Note_on_c, 0, 70, 0
2, 40244, Note_on_c, 0, 82, 0
2, 40269, Note_on_c, 0, 58, 0
2, 40284, Control_c, 0, 64, 0
2, 40358, Note_on_c, 0, 58, 50
2, 40367, Note_on_c, 0, 64, 53
2, 40380, Note_on_c, 0, 86, 58
2, 40381, Note_on_c, 0, 84, 50
2, 40385, Note_on_c, 0, 72, 33
2, 40412, Note_on_c, 0, 86, 0
2, 40506, Control_c, 0, 64, 127
2, 40743, Note_on_c, 0, 84, 0
2, 40804, Note_on_c, 0, 72, 0
2, 40869, Note_on_c, 0, 64, 0
2, 40962, Note_on_c, 0, 58, 0
2, 41573, Control_c, 0, 64, 0
2, 41585, Note_on_c, 0, 79, 62
2, 41606, Note_on_c, 0, 68, 69
2, 41618, Note_on_c, 0, 64, 46
2, 41636, Note_on_c, 0, 58, 31
2, 41653, Note_on_c, 0, 68, 0
2, 41663, Note_on_c, 0, 64, 0
2, 41679, Control_c, 0, 64, 127
2, 41685, Note_on_c, 0, 79, 0
2, 41758, Note_on_c, 0, 58, 0
2, 41900, Note_on_c, 0, 83, 45
2, 41910, Note_on_c, 0, 58, 36
2, 41912, Note_on_c, 0, 64, 50
2, 41914, Note_on_c, 0, 84, 31
2, 41916, Note_on_c, 0, 72, 37
2, 41951, Note_on_c, 0, 82, 27
2, 41991, Note_on_c, 0, 72, 0
2, 41997, Note_on_c, 0, 82, 0
2, 41999, Note_on_c, 0, 83, 0
2, 42003, Note_on_c, 0, 84, 0
2, 42016, Note_on_c, 0, 64, 0
2, 42050, Note_on_c, 0, 58, 0
2, 42244, Note_on_c, 0, 86, 52
2, 42247, Control_c, 0, 64, 0
2, 42249, Note_on_c, 0, 60, 41
2, 42253, Note_on_c, 0, 55, 54
2, 42256, Note_on_c, 0, 64, 41
2, 42262, Note_on_c, 0, 83, 52
2, 42269, Note_on_c, 0, 79, 34
2, 42270, Note_on_c, 0, 74, 29
2, 42488, Control_c, 0, 64, 127
2, 42758, Note_on_c, 0, 64, 0
2, 42759, Note_on_c, 0, 86, 0
2, 42778, Note_on_c, 0, 83, 0
2, 42792, Note_on_c, 0, 79, 0
2, 42838, Note_on_c, 0, 74, 0
2, 42842, Note_on_c, 0, 60, 0
2, 43345, Note_on_c, 0, 55, 0
2, 43643, Control_c, 0, 64, 0
2, 43647, Note_on_c, 0, 79, 75
2, 43655, Note_on_c, 0, 63, 60
2, 43656, Note_on_c, 0, 67, 73
2, 43658, Note_on_c, 0, 75, 68
2, 43659, Note_on_c, 0, 56, 67
2, 43661, Note_on_c, 0, 72, 79
2, 43663, Note_on_c, 0, 68, 76
2, 43664, Note_on_c, 0, 60, 66
2, 43787, Control_c, 0, 64, 127
2, 44037, Note_on_c, 0, 68, 0
2, 44044, Note_on_c, 0, 72, 0
2, 44096, Note_on_c, 0, 75, 0
2, 44101, Note_on_c, 0, 67, 0
2, 44130, Note_on_c, 0, 79, 0
2, 44137, Note_on_c, 0, 56, 0
2, 44172, Note_on_c, 0, 63, 0
2, 44225, Note_on_c, 0, 60, 0
2, 44441, Note_on_c, 0, 94, 75
2, 44449, Note_on_c, 0, 56, 71
2, 44450, Note_on_c, 0, 63, 71
2, 44451, Note_on_c, 0, 67, 85
2, 44458, Note_on_c, 0, 60, 71
2, 44459, Note_on_c, 0, 82, 77
2, 44462, Note_on_c, 0, 87, 77
2, 44482, Control_c, 0, 64, 0
2, 44617, Control_c, 0, 64, 127
2, 44862, Note_on_c, 0, 94, 0
2, 44879, Note_on_c, 0, 82, 0
2, 44900, Note_on_c, 0, 87, 0
2, 44904, Note_on_c, 0, 67, 0
2, 44928, Note_on_c, 0, 56, 0
2, 44964, Note_on_c, 0, 60, 0
2, 44972, Note_on_c, 0, 63, 0
2, 45175, Control_c, 0, 64, 0
2, 45193, Note_on_c, 0, 90, 77
2, 45199, Note_on_c, 0, 66, 81
2, 45200, Note_on_c, 0, 78, 71
2, 45204, Note_on_c, 0, 62, 67
2, 45206, Note_on_c, 0, 56, 63
2, 45207, Note_on_c, 0, 85, 72
2, 45210, Note_on_c, 0, 60, 65
2, 45339, Control_c, 0, 64, 127
2, 45646, Note_on_c, 0, 60, 0
2, 45655, Note_on_c, 0, 62, 0
2, 45665, Note_on_c, 0, 85, 0
2, 45670, Note_on_c, 0, 66, 0
2, 45692, Note_on_c, 0, 78, 0
2, 45697, Note_on_c, 0, 90, 0
2, 45746, Note_on_c, 0, 56, 0
2, 46148, Control_c, 0, 64, 0
2, 46151, Note_on_c, 0, 65, 41
2, 46159, Note_on_c, 0, 60, 37
2, 46162, Note_on_c, 0, 77, 31
2, 46164, Note_on_c, 0, 62, 32
2, 46165, Note_on_c, 0, 55, 39
2, 46211, Note_on_c, 0, 77, 0
2, 47087, Note_on_c, 0, 74, 87
2, 47591, Control_c, 0, 64, 127
2, 47686, Note_on_c, 0, 74, 0
2, 47980, Note_on_c, 0, 65, 0
2, 47986, Control_c, 0, 64, 0
2, 48010, Note_on_c, 0, 55, 0
2, 48014, Note_on_c, 0, 62, 0
2, 48029, Note_on_c, 0, 70, 48
2, 48092, Note_on_c, 0, 60, 0
2, 48142, Note_on_c, 0, 70, 0
2, 48211, Note_on_c, 0, 67, 29
2, 48279, Note_on_c, 0, 67, 0
2, 48377, Note_on_c, 0, 57, 31
2, 48382, Note_on_c, 0, 63, 25
2, 48385, Note_on_c, 0, 69, 61
2, 48678, Control_c, 0, 64, 127
2, 48857, Note_on_c, 0, 69, 0
2, 48929, Control_c, 0, 64, 0
2, 48986, Note_on_c, 0, 63, 0
2, 49000, Note_on_c, 0, 69, 50
2, 49055, Note_on_c, 0, 69, 0
2, 49074, Control_c, 0, 64, 127
2, 49083, Note_on_c, 0, 57, 0
2, 49165, Note_on_c, 0, 69, 47
2, 49224, Note_on_c, 0, 69, 0
2, 49320, Note_on_c, 0, 70, 71
2, 49323, Control_c, 0, 64, 0
2, 49345, Note_on_c, 0, 57, 39
2, 49410, Note_on_c, 0, 70, 0
2, 49465, Note_on_c, 0, 57, 0
2, 49489, Note_on_c, 0, 70, 51
2, 49577, Note_on_c, 0, 70, 0
2, 49672, Note_on_c, 0, 71, 63
2, 49737, Control_c, 0, 64, 127
2, 49738, Note_on_c, 0, 71, 0
2, 49826, Note_on_c, 0, 71, 57
2, 49918, Note_on_c, 0, 71, 0
2, 49988, Control_c, 0, 64, 0
2, 50007, Note_on_c, 0, 60, 30
2, 50014, Note_on_c, 0, 50, 32
2, 50015, Note_on_c, 0, 72, 64
2, 50019, Note_on_c, 0, 57, 31
2, 50248, Note_on_c, 0, 60, 0
2, 50331, Note_on_c, 0, 57, 0
2, 50428, Note_on_c, 0, 60, 29
2, 50556, Control_c, 0, 64, 127
2, 50636, Note_on_c, 0, 60, 0
2, 50741, Note_on_c, 0, 60, 39
2, 50796, Control_c, 0, 64, 0
2, 50802, Note_on_c, 0, 57, 31
2, 50815, Note_on_c, 0, 60, 0
2, 50853, Note_on_c, 0, 57, 0
2, 50872, Note_on_c, 0, 72, 0
2, 50888, Note_on_c, 0, 50, 0
2, 50988, Control_c, 0, 64, 127
2, 51219, Control_c, 0, 64, 0
2, 51255, Note_on_c, 0, 81, 58
2, 51267, Note_on_c, 0, 77, 50
2, 51279, Note_on_c, 0, 69, 31
2, 51280, Note_on_c, 0, 60, 50
2, 51304, Note_on_c, 0, 77, 0
2, 51311, Note_on_c, 0, 81, 0
2, 51314, Note_on_c, 0, 60, 0
2, 51317, Note_on_c, 0, 69, 0
2, 51571, Note_on_c, 0, 77, 59
2, 51593, Note_on_c, 0, 65, 39
2, 51596, Note_on_c, 0, 57, 40
2, 51633, Control_c, 0, 64, 127
2, 51635, Note_on_c, 0, 65, 0
2, 51639, Note_on_c, 0, 57, 0
2, 51691, Note_on_c, 0, 77, 0
2, 51874, Control_c, 0, 64, 0
2, 51932, Note_on_c, 0, 79, 49
2, 51942, Note_on_c, 0, 73, 49
2, 51951, Note_on_c, 0, 67, 31
2, 51954, Note_on_c, 0, 64, 27
2, 51956, Note_on_c, 0, 59, 41
2, 51962, Note_on_c, 0, 53, 27
2, 52056, Note_on_c, 0, 73, 0
2, 52097, Note_on_c, 0, 74, 25
2, 52413, Control_c, 0, 64, 127
2, 52503, Note_on_c, 0, 67, 0
2, 52519, Note_on_c, 0, 74, 0
2, 52536, Note_on_c, 0, 64, 0
2, 52539, Note_on_c, 0, 59, 0
2, 52612, Note_on_c, 0, 53, 0
2, 52616, Note_on_c, 0, 79, 0
2, 52769, Control_c, 0, 64, 0
2, 53135, Note_on_c, 0, 79, 58
2, 53140, Note_on_c, 0, 67, 46
2, 53148, Note_on_c, 0, 59, 38
2, 53149, Note_on_c, 0, 74, 40
2, 53153, Note_on_c, 0, 62, 28
2, 53171, Note_on_c, 0, 79, 0
2, 53174, Note_on_c, 0, 67, 0
2, 53186, Note_on_c, 0, 62, 0
2, 53188, Note_on_c, 0, 59, 0
2, 53189, Note_on_c, 0, 74, 0
2, 53270, Note_on_c, 0, 62, 43
2, 53279, Note_on_c, 0, 53, 25
2, 53286, Note_on_c, 0, 59, 36
2, 53298, Note_on_c, 0, 81, 45
2, 53324, Note_on_c, 0, 53, 0
2, 53326, Note_on_c, 0, 59, 0
2, 53337, Note_on_c, 0, 81, 0
2, 53340, Note_on_c, 0, 62, 0
2, 53558, Control_c, 0, 64, 127
2, 53616, Control_c, 0, 64, 0
2, 53748, Note_on_c, 0, 82, 49
2, 53752, Note_on_c, 0, 63, 37
2, 53759, Note_on_c, 0, 67, 39
2, 53760, Note_on_c, 0, 62, 39
2, 53764, Note_on_c, 0, 70, 45
2, 53767, Note_on_c, 0, 58, 35
2, 53768, Note_on_c, 0, 75, 50
2, 53777, Note_on_c, 0, 79, 37
2, 53847, Control_c, 0, 64, 127
2, 54169, Note_on_c, 0, 79, 0
2, 54221, Note_on_c, 0, 67, 0
2, 54223, Note_on_c, 0, 82, 0
2, 54227, Note_on_c, 0, 70, 0
2, 54228, Note_on_c, 0, 58, 0
2, 54242, Note_on_c, 0, 62, 0
2, 54265, Note_on_c, 0, 75, 0
2, 54290, Note_on_c, 0, 63, 0
2, 54722, Control_c, 0, 64, 0
2, 54753, Note_on_c, 0, 63, 30
2, 54754, Note_on_c, 0, 58, 34
2, 54755, Note_on_c, 0, 75, 43
2, 54757, Note_on_c, 0, 67, 52
2, 54769, Note_on_c, 0, 79, 32
2, 54770, Note_on_c, 0, 62, 29
2, 54791, Note_on_c, 0, 67, 0
2, 54811, Note_on_c, 0, 62, 0
2, 54814, Note_on_c, 0, 63, 0
2, 54815, Note_on_c, 0, 58, 0
2, 54833, Note_on_c, 0, 79, 0
2, 54838, Note_on_c, 0, 75, 0
2, 55225, Note_on_c, 0, 67, 35
2, 55229, Note_on_c, 0, 63, 29
2, 55230, Note_on_c, 0, 58, 34
2, 55231, Note_on_c, 0, 81, 41
2, 55242, Note_on_c, 0, 75, 30
2, 55244, Note_on_c, 0, 69, 36
2, 55264, Note_on_c, 0, 67, 0
2, 55282, Note_on_c, 0, 63, 0
2, 55290, Note_on_c, 0, 69, 0
2, 55320, Note_on_c, 0, 75, 0
2, 55324, Note_on_c, 0, 81, 0
2, 55328, Note_on_c, 0, 58, 0
2, 55701, Note_on_c, 0, 82, 48
2, 55717, Note_on_c, 0, 58, 35
2, 55719, Note_on_c, 0, 55, 48
2, 55720, Note_on_c, 0, 64, 44
2, 55727, Note_on_c, 0, 75, 53
2, 55728, Note_on_c, 0, 61, 31
2, 55730, Note_on_c, 0, 70, 49
2, 55734, Note_on_c, 0, 79, 38
2, 55765, Control_c, 0, 64, 127
2, 56126, Note_on_c, 0, 79, 0
2, 56175, Note_on_c, 0, 82, 0
2, 56179, Note_on_c, 0, 70, 0
2, 56213, Note_on_c, 0, 64, 0
2, 56220, Note_on_c, 0, 61, 0
2, 56241, Note_on_c, 0, 75, 0
2, 56264, Note_on_c, 0, 58, 0
2, 56360, Note_on_c, 0, 55, 0
2, 56525, Note_on_c, 0, 79, 60
2, 56531, Note_on_c, 0, 73, 57
2, 56535, Note_on_c, 0, 67, 58
2, 56538, Note_on_c, 0, 76, 53
2, 56551, Note_on_c, 0, 58, 43
2, 56554, Control_c, 0, 64, 0
2, 56555, Note_on_c, 0, 61, 40
2, 56556, Note_on_c, 0, 55, 50
2, 56558, Note_on_c, 0, 64, 56
2, 56775, Control_c, 0, 64, 127
2, 57071, Note_on_c, 0, 67, 0
2, 57085, Note_on_c, 0, 79, 0
2, 57112, Note_on_c, 0, 76, 0
2, 57113, Note_on_c, 0, 64, 0
2, 57132, Note_on_c, 0, 61, 0
2, 57201, Note_on_c, 0, 58, 0
2, 57210, Note_on_c, 0, 73, 0
2, 57236, Note_on_c, 0, 55, 0
2, 57410, Control_c, 0, 64, 0
2, 57434, Note_on_c, 0, 73, 68
2, 57436, Note_on_c, 0, 81, 65
2, 57440, Note_on_c, 0, 61, 53
2, 57443, Note_on_c, 0, 58, 46
2, 57445, Note_on_c, 0, 76, 58
2, 57446, Note_on_c, 0, 64, 58
2, 57447, Note_on_c, 0, 69, 68
2, 57455, Note_on_c, 0, 55, 52
2, 57471, Note_on_c, 0, 79, 36
2, 57487, Note_on_c, 0, 64, 0
2, 57513, Note_on_c, 0, 61, 0
2, 57514, Note_on_c, 0, 69, 0
2, 57517, Note_on_c, 0, 79, 0
2, 57517, Control_c, 0, 64, 127
2, 57518, Note_on_c, 0, 55, 0
2, 57535, Note_on_c, 0, 76, 0
2, 57536, Note_on_c, 0, 58, 0
2, 57552, Note_on_c, 0, 73, 0
2, 57566, Note_on_c, 0, 81, 0
2, 57755, Note_on_c, 0, 82, 68
2, 57760, Note_on_c, 0, 50, 63
2, 57765, Note_on_c, 0, 58, 64
2, 57766, Control_c, 0, 64, 0
2, 57768, Note_on_c, 0, 70, 74
2, 57769, Note_on_c, 0, 74, 71
2, 57780, Note_on_c, 0, 77, 63
2, 57832, Note_on_c, 0, 80, 18
2, 57901, Control_c, 0, 64, 127
2, 58112, Note_on_c, 0, 82, 0
2, 58135, Note_on_c, 0, 77, 0
2, 58140, Note_on_c, 0, 74, 0
2, 58151, Note_on_c, 0, 80, 0
2, 58168, Note_on_c, 0, 70, 0
2, 58411, Note_on_c, 0, 58, 0
2, 58542, Note_on_c, 0, 50, 0
2, 58556, Control_c, 0, 64, 0
2, 58578, Note_on_c, 0, 58, 64
2, 58580, Note_on_c, 0, 67, 64
2, 58582, Note_on_c, 0, 62, 70
2, 58603, Note_on_c, 0, 50, 38
2, 58652, Control_c, 0, 64, 127
2, 58797, Note_on_c, 0, 62, 0
2, 58855, Note_on_c, 0, 50, 0
2, 58874, Note_on_c, 0, 67, 0
2, 58899, Note_on_c, 0, 58, 0
2, 59017, Control_c, 0, 64, 0
2, 59086, Note_on_c, 0, 69, 66
2, 59087, Note_on_c, 0, 58, 49
2, 59091, Note_on_c, 0, 50, 38
2, 59098, Note_on_c, 0, 62, 66
2, 59102, Note_on_c, 0, 65, 51
2, 59133, Control_c, 0, 64, 127
2, 59220, Note_on_c, 0, 69, 0
2, 59227, Note_on_c, 0, 62, 0
2, 59229, Note_on_c, 0, 65, 0
2, 59369, Note_on_c, 0, 50, 0
2, 59422, Note_on_c, 0, 58, 0
2, 59460, Note_on_c, 0, 55, 41
2, 59514, Note_on_c, 0, 55, 0
2, 59561, Note_on_c, 0, 58, 54
2, 59566, Control_c, 0, 64, 0
2, 59567, Note_on_c, 0, 70, 70
2, 59570, Note_on_c, 0, 64, 66
2, 59572, Note_on_c, 0, 61, 71
2, 59575, Note_on_c, 0, 67, 57
2, 59576, Note_on_c, 0, 49, 57
2, 60009, Control_c, 0, 64, 127
2, 60064, Note_on_c, 0, 67, 0
2, 60077, Note_on_c, 0, 70, 0
2, 60110, Note_on_c, 0, 64, 0
2, 60126, Note_on_c, 0, 58, 0
2, 60176, Note_on_c, 0, 61, 0
2, 60461, Control_c, 0, 64, 0
2, 60485, Note_on_c, 0, 58, 46
2, 60490, Note_on_c, 0, 67, 31
2, 60494, Note_on_c, 0, 61, 44
2, 60513, Note_on_c, 0, 55, 24
2, 60515, Note_on_c, 0, 64, 32
2, 60570, Note_on_c, 0, 64, 0
2, 60572, Note_on_c, 0, 67, 0
2, 60576, Note_on_c, 0, 58, 0
2, 60601, Note_on_c, 0, 61, 0
2, 60711, Note_on_c, 0, 55, 0
2, 60721, Control_c, 0, 64, 127
2, 60808, Control_c, 0, 64, 0
2, 60830, Note_on_c, 0, 70, 68
2, 60831, Note_on_c, 0, 61, 62
2, 60842, Note_on_c, 0, 64, 60
2, 60847, Note_on_c, 0, 55, 28
2, 60848, Note_on_c, 0, 67, 48
2, 60870, Note_on_c, 0, 58, 50
2, 60900, Note_on_c, 0, 55, 0
2, 60922, Note_on_c, 0, 61, 0
2, 60958, Note_on_c, 0, 64, 0
2, 60973, Note_on_c, 0, 67, 0
2, 60990, Note_on_c, 0, 49, 0
2, 60992, Note_on_c, 0, 70, 0
2, 60994, Note_on_c, 0, 58, 0
2, 61001, Control_c, 0, 64, 127
2, 61307, Note_on_c, 0, 74, 80
2, 61311, Note_on_c, 0, 67, 78
2, 61313, Note_on_c, 0, 63, 78
2, 61314, Note_on_c, 0, 60, 43
2, 61315, Note_on_c, 0, 70, 73
2, 61318, Note_on_c, 0, 62, 90
2, 61327, Control_c, 0, 64, 0
2, 61354, Note_on_c, 0, 60, 0
2, 61953, Control_c, 0, 64, 127
2, 62206, Note_on_c, 0, 63, 0
2, 62230, Note_on_c, 0, 70, 0
2, 62245, Note_on_c, 0, 67, 0
2, 62313, Note_on_c, 0, 74, 0
2, 62376, Control_c, 0, 64, 0
2, 62395, Note_on_c, 0, 70, 38
2, 62408, Note_on_c, 0, 62, 0
2, 62413, Note_on_c, 0, 58, 37
2, 62434, Note_on_c, 0, 67, 33
2, 62502, Note_on_c, 0, 67, 0
2, 62554, Note_on_c, 0, 70, 0
2, 62795, Note_on_c, 0, 58, 0
2, 62858, Note_on_c, 0, 63, 39
2, 62870, Note_on_c, 0, 60, 43
2, 62872, Note_on_c, 0, 72, 40
2, 62875, Note_on_c, 0, 70, 35
2, 62884, Note_on_c, 0, 67, 32
2, 62950, Note_on_c, 0, 60, 0
2, 63005, Note_on_c, 0, 67, 0
2, 63025, Note_on_c, 0, 63, 0
2, 63042, Note_on_c, 0, 70, 0
2, 63072, Note_on_c, 0, 72, 0
2, 63245, Note_on_c, 0, 55, 16
2, 63354, Note_on_c, 0, 74, 50
2, 63355, Note_on_c, 0, 63, 44
2, 63357, Note_on_c, 0, 70, 50
2, 63361, Note_on_c, 0, 58, 42
2, 63362, Note_on_c, 0, 67, 40
2, 63368, Note_on_c, 0, 55, 0
2, 63522, Control_c, 0, 64, 127
2, 63652, Note_on_c, 0, 58, 0
2, 63686, Control_c, 0, 64, 0
2, 63703, Note_on_c, 0, 48, 66
2, 63839, Control_c, 0, 64, 127
2, 63954, Note_on_c, 0, 67, 0
2, 63970, Note_on_c, 0, 63, 0
2, 63972, Note_on_c, 0, 74, 0
2, 64166, Note_on_c, 0, 70, 0
2, 64238, Note_on_c, 0, 51, 33
2, 64240, Note_on_c, 0, 48, 0
2, 64272, Control_c, 0, 64, 0
2, 64313, Note_on_c, 0, 66, 61
2, 64314, Note_on_c, 0, 72, 62
2, 64317, Note_on_c, 0, 57, 57
2, 64324, Note_on_c, 0, 69, 62
2, 64326, Note_on_c, 0, 62, 50
2, 64782, Control_c, 0, 64, 127
2, 64834, Note_on_c, 0, 69, 0
2, 64842, Note_on_c, 0, 62, 0
2, 64976, Note_on_c, 0, 57, 0
2, 64977, Note_on_c, 0, 72, 0
2, 65023, Note_on_c, 0, 66, 0
2, 65179, Note_on_c, 0, 54, 37
2, 65254, Control_c, 0, 64, 0
2, 65271, Note_on_c, 0, 70, 58
2, 65279, Note_on_c, 0, 65, 54
2, 65281, Note_on_c, 0, 60, 54
2, 65282, Note_on_c, 0, 55, 59
2, 65283, Note_on_c, 0, 54, 0
2, 65290, Note_on_c, 0, 51, 0
2, 65589, Note_on_c, 0, 60, 0
2, 65618, Note_on_c, 0, 65, 0
2, 65638, Note_on_c, 0, 70, 0
2, 65685, Note_on_c, 0, 55, 0
2, 66284, Note_on_c, 0, 70, 79
2, 66565, Note_on_c, 0, 70, 0
2, 66609, Note_on_c, 0, 65, 32
2, 66647, Note_on_c, 0, 65, 0
2, 66767, Note_on_c, 0, 67, 40
2, 67052, Note_on_c, 0, 67, 0
2, 67070, Note_on_c, 0, 68, 75
2, 67508, Note_on_c, 0, 68, 0
2, 67553, Note_on_c, 0, 70, 58
2, 67670, Note_on_c, 0, 70, 0
2, 67739, Note_on_c, 0, 72, 51
2, 67953, Note_on_c, 0, 72, 0
2, 68014, Note_on_c, 0, 66, 76
2, 68023, Note_on_c, 0, 56, 69
2, 68027, Note_on_c, 0, 74, 84
2, 68036, Note_on_c, 0, 62, 54
2, 68212, Note_on_c, 0, 74, 0
2, 68277, Note_on_c, 0, 75, 38
2, 68477, Note_on_c, 0, 75, 0
2, 68531, Note_on_c, 0, 77, 65
2, 68638, Note_on_c, 0, 77, 0
2, 68750, Note_on_c, 0, 66, 0
2, 68759, Note_on_c, 0, 79, 33
2, 68960, Note_on_c, 0, 62, 0
2, 68965, Note_on_c, 0, 79, 0
2, 69010, Note_on_c, 0, 84, 83
2, 69038, Note_on_c, 0, 56, 0
2, 69053, Note_on_c, 0, 65, 47
2, 69055, Note_on_c, 0, 62, 32
2, 69078, Note_on_c, 0, 55, 35
2, 69081, Note_on_c, 0, 60, 39
2, 69135, Note_on_c, 0, 84, 0
2, 69227, Note_on_c, 0, 82, 37
2, 69423, Note_on_c, 0, 82, 0
2, 69509, Note_on_c, 0, 79, 64
2, 69602, Note_on_c, 0, 79, 0
2, 69603, Note_on_c, 0, 65, 0
2, 69718, Note_on_c, 0, 62, 0
2, 69738, Note_on_c, 0, 60, 0
2, 69743, Note_on_c, 0, 74, 17
2, 69809, Control_c, 0, 64, 127
2, 69841, Note_on_c, 0, 74, 0
2, 69981, Note_on_c, 0, 70, 53
2, 70079, Note_on_c, 0, 70, 0
2, 70079, Control_c, 0, 64, 0
2, 70180, Note_on_c, 0, 67, 19
2, 70483, Note_on_c, 0, 67, 0
2, 70525, Note_on_c, 0, 55, 0
2, 70541, Note_on_c, 0, 60, 27
2, 70587, Note_on_c, 0, 60, 0
2, 70593, Note_on_c, 0, 67, 45
2, 70918, Note_on_c, 0, 67, 0
2, 71087, Note_on_c, 0, 67, 59
2, 71329, Control_c, 0, 64, 127
2, 71383, Note_on_c, 0, 67, 0
2, 71439, Note_on_c, 0, 65, 33
2, 71464, Control_c, 0, 64, 0
2, 71489, Note_on_c, 0, 65, 0
2, 71570, Note_on_c, 0, 67, 41
2, 71762, Control_c, 0, 64, 127
2, 71820, Note_on_c, 0, 67, 0
2, 71876, Note_on_c, 0, 74, 78
2, 71892, Note_on_c, 0, 67, 47
2, 71900, Note_on_c, 0, 63, 35
2, 71925, Note_on_c, 0, 67, 0
2, 71941, Note_on_c, 0, 63, 0
2, 71946, Control_c, 0, 64, 0
2, 72021, Note_on_c, 0, 67, 30
2, 72151, Note_on_c, 0, 74, 0
2, 72319, Note_on_c, 0, 67, 0
2, 72381, Note_on_c, 0, 65, 24
2, 72436, Note_on_c, 0, 65, 0
2, 72497, Note_on_c, 0, 67, 44
2, 72783, Control_c, 0, 64, 127
2, 72790, Note_on_c, 0, 67, 0
2, 72846, Note_on_c, 0, 60, 44
2, 72866, Note_on_c, 0, 65, 24
2, 72883, Note_on_c, 0, 60, 0
2, 72904, Note_on_c, 0, 65, 0
2, 72917, Control_c, 0, 64, 0
2, 72972, Note_on_c, 0, 67, 43
2, 73262, Note_on_c, 0, 67, 0
2, 73305, Note_on_c, 0, 76, 90
2, 73479, Note_on_c, 0, 67, 41
2, 73522, Note_on_c, 0, 76, 0
2, 73697, Control_c, 0, 64, 127
2, 73767, Note_on_c, 0, 67, 0
2, 73806, Note_on_c, 0, 65, 33
2, 73822, Control_c, 0, 64, 0
2, 73884, Note_on_c, 0, 65, 0
2, 73957, Control_c, 0, 64, 127
2, 73959, Note_on_c, 0, 67, 29
2, 74110, Note_on_c, 0, 67, 0
2, 74263, Note_on_c, 0, 79, 82
2, 74275, Note_on_c, 0, 60, 46
2, 74303, Note_on_c, 0, 57, 26
2, 74307, Note_on_c, 0, 60, 0
2, 74314, Note_on_c, 0, 53, 27
2, 74323, Control_c, 0, 64, 0
2, 74352, Note_on_c, 0, 57, 0
2, 74360, Note_on_c, 0, 53, 0
2, 74367, Note_on_c, 0, 79, 0
2, 74879, Note_on_c, 0, 64, 39
2, 74897, Note_on_c, 0, 59, 41
2, 74905, Note_on_c, 0, 53, 32
2, 74950, Note_on_c, 0, 59, 0
2, 74975, Note_on_c, 0, 64, 0
2, 74977, Note_on_c, 0, 53, 0
2, 75350, Note_on_c, 0, 63, 57
2, 75361, Note_on_c, 0, 59, 49
2, 75468, Note_on_c, 0, 59, 0
2, 75540, Note_on_c, 0, 63, 0
2, 75829, Note_on_c, 0, 62, 31
2, 75835, Note_on_c, 0, 53, 34
2, 75851, Note_on_c, 0, 59, 32
2, 75882, Control_c, 0, 64, 127
2, 76175, Note_on_c, 0, 67, 30
2, 76218, Note_on_c, 0, 67, 0
2, 76232, Note_on_c, 0, 59, 0
2, 76256, Note_on_c, 0, 53, 0
2, 76267, Control_c, 0, 64, 0
2, 76331, Note_on_c, 0, 71, 71
2, 76411, Control_c, 0, 64, 127
2, 76466, Note_on_c, 0, 62, 0
2, 76585, Note_on_c, 0, 71, 0
2, 76657, Note_on_c, 0, 74, 81
2, 76658, Note_on_c, 0, 67, 53
2, 76661, Note_on_c, 0, 62, 41
2, 76662, Note_on_c, 0, 63, 36
2, 76685, Note_on_c, 0, 58, 34
2, 76690, Control_c, 0, 64, 0
2, 76801, Note_on_c, 0, 74, 0
2, 76844, Note_on_c, 0, 71, 41
2, 77056, Control_c, 0, 64, 127
2, 77099, Note_on_c, 0, 71, 0
2, 77154, Note_on_c, 0, 72, 44
2, 77161, Control_c, 0, 64, 0
2, 77199, Note_on_c, 0, 72, 0
2, 77304, Note_on_c, 0, 79, 81
2, 77412, Control_c, 0, 64, 127
2, 77590, Note_on_c, 0, 79, 0
2, 77618, Note_on_c, 0, 67, 0
2, 77623, Note_on_c, 0, 74, 58
2, 77686, Note_on_c, 0, 74, 0
2, 77701, Control_c, 0, 64, 0
2, 77767, Note_on_c, 0, 77, 69
2, 77804, Note_on_c, 0, 63, 0
2, 77872, Note_on_c, 0, 62, 0
2, 77888, Note_on_c, 0, 77, 0
2, 77937, Note_on_c, 0, 75, 45
2, 78032, Note_on_c, 0, 75, 0
2, 78057, Control_c, 0, 64, 127
2, 78072, Note_on_c, 0, 71, 38
2, 78119, Note_on_c, 0, 71, 0
2, 78154, Note_on_c, 0, 67, 33
2, 78162, Note_on_c, 0, 62, 1
2, 78182, Control_c, 0, 64, 0
2, 78192, Note_on_c, 0, 63, 25
2, 78237, Note_on_c, 0, 74, 68
2, 78239, Note_on_c, 0, 67, 0
2, 78257, Note_on_c, 0, 62, 0
2, 78312, Note_on_c, 0, 63, 0
2, 78381, Note_on_c, 0, 74, 0
2, 78399, Note_on_c, 0, 58, 0
2, 78419, Note_on_c, 0, 72, 53
2, 78537, Note_on_c, 0, 72, 0
2, 78567, Control_c, 0, 64, 127
2, 78574, Note_on_c, 0, 69, 50
2, 78633, Note_on_c, 0, 69, 0
2, 78672, Control_c, 0, 64, 0
2, 78680, Note_on_c, 0, 57, 28
2, 78744, Note_on_c, 0, 57, 0
2, 79079, Note_on_c, 0, 63, 34
2, 79087, Note_on_c, 0, 67, 28
2, 79124, Note_on_c, 0, 67, 0
2, 79136, Note_on_c, 0, 63, 0
2, 79220, Note_on_c, 0, 68, 83
2, 79319, Note_on_c, 0, 68, 0
2, 79365, Note_on_c, 0, 69, 68
2, 79498, Note_on_c, 0, 69, 0
2, 79507, Note_on_c, 0, 68, 64
2, 79539, Control_c, 0, 64, 127
2, 79553, Note_on_c, 0, 63, 34
2, 79593, Note_on_c, 0, 63, 0
2, 79600, Note_on_c, 0, 57, 26
2, 79635, Control_c, 0, 64, 0
2, 79641, Note_on_c, 0, 68, 0
2, 79659, Note_on_c, 0, 57, 0
2, 79662, Note_on_c, 0, 66, 35
2, 79770, Note_on_c, 0, 66, 0
2, 79806, Note_on_c, 0, 65, 30
2, 79859, Note_on_c, 0, 65, 0
2, 79923, Note_on_c, 0, 63, 40
2, 80059, Control_c, 0, 64, 127
2, 80060, Note_on_c, 0, 63, 0
2, 80087, Control_c, 0, 64, 0
2, 80088, Note_on_c, 0, 62, 39
2, 80183, Note_on_c, 0, 62, 0
2, 80252, Note_on_c, 0, 61, 34
2, 80349, Note_on_c, 0, 61, 0
2, 80508, Note_on_c, 0, 58, 55
2, 80520, Control_c, 0, 64, 127
2, 80560, Note_on_c, 0, 50, 30
2, 80599, Note_on_c, 0, 58, 0
2, 80617, Note_on_c, 0, 50, 0
2, 80637, Control_c, 0, 64, 0
2, 80656, Note_on_c, 0, 63, 73
2, 80788, Note_on_c, 0, 63, 0
2, 80824, Note_on_c, 0, 61, 37
2, 80902, Note_on_c, 0, 61, 0
2, 80930, Note_on_c, 0, 62, 58
2, 81005, Note_on_c, 0, 62, 0
2, 81464, Control_c, 0, 64, 127
2, 81484, Note_on_c, 0, 58, 47
2, 81522, Control_c, 0, 64, 0
2, 81533, Note_on_c, 0, 50, 24
2, 81534, Note_on_c, 0, 58, 0
2, 81578, Note_on_c, 0, 50, 0
2, 81659, Note_on_c, 0, 67, 71
2, 81752, Control_c, 0, 64, 127
2, 81753, Note_on_c, 0, 67, 0
2, 81840, Note_on_c, 0, 64, 29
2, 81886, Note_on_c, 0, 64, 0
2, 81972, Note_on_c, 0, 65, 59
2, 82003, Control_c, 0, 64, 0
2, 82018, Note_on_c, 0, 65, 0
2, 82137, Note_on_c, 0, 67, 55
2, 82147, Control_c, 0, 64, 127
2, 82218, Note_on_c, 0, 67, 0
2, 82296, Note_on_c, 0, 68, 71
2, 82418, Note_on_c, 0, 68, 0
2, 82453, Note_on_c, 0, 65, 64
2, 82464, Control_c, 0, 64, 0
2, 82466, Note_on_c, 0, 63, 35
2, 82494, Note_on_c, 0, 56, 21
2, 82497, Note_on_c, 0, 60, 33
2, 82538, Note_on_c, 0, 60, 0
2, 82544, Note_on_c, 0, 65, 0
2, 82573, Note_on_c, 0, 56, 0
2, 82588, Note_on_c, 0, 63, 0
2, 82632, Note_on_c, 0, 67, 41
2, 82667, Control_c, 0, 64, 127
2, 82712, Note_on_c, 0, 67, 0
2, 82777, Note_on_c, 0, 68, 69
2, 82876, Note_on_c, 0, 68, 0
2, 82917, Note_on_c, 0, 70, 65
2, 82963, Note_on_c, 0, 63, 33
2, 82966, Control_c, 0, 64, 0
2, 82967, Note_on_c, 0, 67, 32
2, 82990, Note_on_c, 0, 70, 0
2, 83006, Note_on_c, 0, 67, 0
2, 83018, Note_on_c, 0, 63, 0
2, 83068, Note_on_c, 0, 72, 40
2, 83113, Note_on_c, 0, 72, 0
2, 83158, Control_c, 0, 64, 127
2, 83210, Note_on_c, 0, 74, 63
2, 83294, Note_on_c, 0, 74, 0
2, 83364, Note_on_c, 0, 75, 63
2, 83383, Note_on_c, 0, 66, 46
2, 83387, Note_on_c, 0, 62, 43
2, 83408, Control_c, 0, 64, 0
2, 83419, Note_on_c, 0, 56, 25
2, 83446, Note_on_c, 0, 66, 0
2, 83460, Note_on_c, 0, 75, 0
2, 83528, Note_on_c, 0, 76, 55
2, 83542, Control_c, 0, 64, 127
2, 83544, Note_on_c, 0, 56, 0
2, 83615, Note_on_c, 0, 62, 0
2, 83619, Note_on_c, 0, 76, 0
2, 83679, Note_on_c, 0, 78, 63
2, 83756, Note_on_c, 0, 78, 0
2, 83829, Note_on_c, 0, 62, 62
2, 83830, Note_on_c, 0, 66, 67
2, 83845, Note_on_c, 0, 56, 60
2, 83846, Note_on_c, 0, 80, 59
2, 83881, Note_on_c, 0, 80, 0
2, 83889, Control_c, 0, 64, 0
2, 84021, Note_on_c, 0, 83, 48
2, 84052, Control_c, 0, 64, 127
2, 84103, Note_on_c, 0, 83, 0
2, 84116, Note_on_c, 0, 66, 0
2, 84124, Note_on_c, 0, 56, 0
2, 84167, Note_on_c, 0, 87, 67
2, 84175, Note_on_c, 0, 62, 0
2, 84239, Note_on_c, 0, 87, 0
2, 84292, Note_on_c, 0, 66, 59
2, 84301, Note_on_c, 0, 56, 56
2, 84311, Note_on_c, 0, 62, 50
2, 84325, Note_on_c, 0, 92, 67
2, 84396, Note_on_c, 0, 92, 0
2, 84401, Note_on_c, 0, 66, 0
2, 84428, Control_c, 0, 64, 0
2, 84455, Note_on_c, 0, 56, 0
2, 84476, Note_on_c, 0, 65, 56
2, 84477, Note_on_c, 0, 88, 65
2, 84492, Note_on_c, 0, 60, 39
2, 84503, Note_on_c, 0, 55, 50
2, 84967, Control_c, 0, 64, 127
2, 85209, Note_on_c, 0, 65, 0
2, 85257, Note_on_c, 0, 60, 0
2, 85258, Note_on_c, 0, 62, 0
2, 85282, Note_on_c, 0, 88, 0
2, 85312, Note_on_c, 0, 89, 77
2, 85313, Note_on_c, 0, 62, 34
2, 85321, Note_on_c, 0, 65, 40
2, 85336, Note_on_c, 0, 60, 34
2, 85439, Control_c, 0, 64, 0
2, 85507, Note_on_c, 0, 89, 0
2, 85545, Note_on_c, 0, 86, 63
2, 85689, Control_c, 0, 64, 127
2, 85751, Note_on_c, 0, 86, 0
2, 85798, Note_on_c, 0, 87, 80
2, 85862, Control_c, 0, 64, 0
2, 85992, Note_on_c, 0, 65, 0
2, 86010, Note_on_c, 0, 87, 0
2, 86011, Note_on_c, 0, 60, 0
2, 86014, Note_on_c, 0, 62, 0
2, 86034, Note_on_c, 0, 84, 49
2, 86068, Note_on_c, 0, 55, 0
2, 86074, Control_c, 0, 64, 127
2, 86247, Note_on_c, 0, 84, 0
2, 86287, Note_on_c, 0, 86, 75
2, 86373, Control_c, 0, 64, 0
2, 86434, Note_on_c, 0, 86, 0
2, 86523, Note_on_c, 0, 82, 39
2, 86709, Note_on_c, 0, 82, 0
2, 86758, Note_on_c, 0, 84, 72
2, 86782, Note_on_c, 0, 67, 31
2, 86797, Note_on_c, 0, 63, 25
2, 86823, Note_on_c, 0, 67, 0
2, 86848, Note_on_c, 0, 63, 0
2, 86882, Note_on_c, 0, 84, 0
2, 86990, Note_on_c, 0, 83, 49
2, 87066, Control_c, 0, 64, 127
2, 87250, Note_on_c, 0, 83, 0
2, 87252, Note_on_c, 0, 80, 50
2, 87315, Control_c, 0, 64, 0
2, 87417, Note_on_c, 0, 80, 0
2, 87467, Note_on_c, 0, 79, 50
2, 87527, Control_c, 0, 64, 127
2, 87670, Note_on_c, 0, 79, 0
2, 87730, Note_on_c, 0, 82, 67
2, 87743, Note_on_c, 0, 66, 37
2, 87745, Note_on_c, 0, 63, 43
2, 87747, Note_on_c, 0, 57, 45
2, 87781, Note_on_c, 0, 66, 0
2, 87806, Control_c, 0, 64, 0
2, 87846, Note_on_c, 0, 57, 0
2, 87889, Note_on_c, 0, 63, 0
2, 87895, Note_on_c, 0, 82, 0
2, 87947, Note_on_c, 0, 78, 31
2, 88037, Control_c, 0, 64, 127
2, 88198, Note_on_c, 0, 78, 0
2, 88238, Note_on_c, 0, 65, 51
2, 88254, Note_on_c, 0, 62, 43
2, 88275, Note_on_c, 0, 81, 87
2, 88278, Note_on_c, 0, 65, 0
2, 88295, Note_on_c, 0, 62, 0
2, 88326, Control_c, 0, 64, 0
2, 88406, Note_on_c, 0, 81, 0
2, 88510, Note_on_c, 0, 79, 35
2, 88513, Note_on_c, 0, 77, 37
2, 88547, Note_on_c, 0, 79, 0
2, 88615, Note_on_c, 0, 77, 0
2, 88662, Control_c, 0, 64, 127
2, 88745, Note_on_c, 0, 60, 52
2, 88760, Note_on_c, 0, 57, 31
2, 88761, Note_on_c, 0, 53, 40
2, 88768, Note_on_c, 0, 72, 66
2, 88777, Note_on_c, 0, 60, 0
2, 88798, Control_c, 0, 64, 0
2, 88805, Note_on_c, 0, 53, 0
2, 88808, Note_on_c, 0, 57, 0
2, 88875, Note_on_c, 0, 72, 0
2, 89135, Control_c, 0, 64, 127
2, 89290, Note_on_c, 0, 60, 35
2, 89326, Note_on_c, 0, 60, 0
2, 89336, Control_c, 0, 64, 0
2, 89381, Note_on_c, 0, 76, 73
2, 89393, Note_on_c, 0, 64, 57
2, 89394, Note_on_c, 0, 65, 62
2, 89663, Note_on_c, 0, 64, 0
2, 89667, Note_on_c, 0, 65, 0
2, 89702, Note_on_c, 0, 76, 0
2, 89827, Note_on_c, 0, 68, 48
2, 89830, Note_on_c, 0, 62, 42
2, 89832, Note_on_c, 0, 65, 39
2, 89833, Note_on_c, 0, 72, 46
2, 89906, Control_c, 0, 64, 127
2, 90016, Note_on_c, 0, 72, 0
2, 90023, Note_on_c, 0, 68, 0
2, 90024, Note_on_c, 0, 62, 0
2, 90067, Note_on_c, 0, 65, 0
2, 90214, Note_on_c, 0, 53, 55
2, 90264, Note_on_c, 0, 53, 0
2, 90287, Note_on_c, 0, 54, 19
2, 90291, Control_c, 0, 64, 0
2, 90308, Note_on_c, 0, 55, 68
2, 90310, Note_on_c, 0, 67, 40
2, 90335, Note_on_c, 0, 57, 24
2, 90343, Note_on_c, 0, 65, 20
2, 90346, Note_on_c, 0, 54, 0
2, 90350, Note_on_c, 0, 60, 35
2, 90359, Note_on_c, 0, 64, 20
2, 90602, Note_on_c, 0, 67, 0
2, 90638, Note_on_c, 0, 60, 0
2, 90639, Note_on_c, 0, 57, 0
2, 90658, Note_on_c, 0, 55, 0
2, 90679, Note_on_c, 0, 64, 0
2, 90687, Note_on_c, 0, 65, 0
2, 90767, Note_on_c, 0, 54, 37
2, 90779, Note_on_c, 0, 66, 50
2, 90780, Note_on_c, 0, 63, 38
2, 90784, Note_on_c, 0, 57, 35
2, 90816, Note_on_c, 0, 60, 40
2, 90850, Control_c, 0, 64, 127
2, 90928, Note_on_c, 0, 66, 0
2, 90946, Note_on_c, 0, 57, 0
2, 90959, Note_on_c, 0, 60, 0
2, 91023, Note_on_c, 0, 54, 0
2, 91033, Note_on_c, 0, 63, 0
2, 91110, Control_c, 0, 64, 0
2, 91111, Note_on_c, 0, 65, 49
2, 91117, Note_on_c, 0, 62, 45
2, 91119, Note_on_c, 0, 59, 54
2, 91134, Note_on_c, 0, 53, 40
2, 91135, Note_on_c, 0, 55, 33
2, 91291, Note_on_c, 0, 55, 0
2, 91321, Control_c, 0, 64, 127
2, 91385, Note_on_c, 0, 59, 0
2, 91417, Note_on_c, 0, 62, 0
2, 91458, Note_on_c, 0, 65, 0
2, 91544, Note_on_c, 0, 53, 0
2, 91588, Note_on_c, 0, 43, 62
2, 91620, Note_on_c, 0, 43, 0
2, 91678, Control_c, 0, 64, 0
2, 91753, Note_on_c, 0, 67, 45
2, 91783, Control_c, 0, 64, 127
2, 91938, Note_on_c, 0, 67, 0
2, 92034, Note_on_c, 0, 62, 87
2, 92038, Note_on_c, 0, 74, 80
2, 92042, Note_on_c, 0, 67, 66
2, 92045, Note_on_c, 0, 63, 79
2, 92053, Control_c, 0, 64, 0
2, 92055, Note_on_c, 0, 70, 61
2, 92156, Note_on_c, 0, 63, 0
2, 92184, Note_on_c, 0, 62, 0
2, 92186, Note_on_c, 0, 74, 0
2, 92188, Note_on_c, 0, 70, 0
2, 92189, Note_on_c, 0, 67, 0
2, 92253, Note_on_c, 0, 60, 54
2, 92263, Note_on_c, 0, 63, 33
2, 92270, Note_on_c, 0, 72, 53
2, 92283, Note_on_c, 0, 67, 43
2, 92293, Note_on_c, 0, 70, 32
2, 92371, Control_c, 0, 64, 127
2, 92388, Note_on_c, 0, 67, 0
2, 92403, Note_on_c, 0, 72, 0
2, 92405, Note_on_c, 0, 70, 0
2, 92453, Note_on_c, 0, 63, 0
2, 92455, Note_on_c, 0, 60, 0
2, 92534, Control_c, 0, 64, 0
2, 92606, Note_on_c, 0, 70, 51
2, 92627, Note_on_c, 0, 58, 42
2, 92639, Note_on_c, 0, 63, 44
2, 92644, Note_on_c, 0, 60, 45
2, 92656, Note_on_c, 0, 67, 26
2, 92698, Control_c, 0, 64, 127
2, 92847, Note_on_c, 0, 67, 0
2, 92906, Note_on_c, 0, 60, 0
2, 92914, Note_on_c, 0, 63, 0
2, 92915, Note_on_c, 0, 58, 0
2, 93016, Note_on_c, 0, 70, 0
2, 93045, Control_c, 0, 64, 0
2, 93084, Note_on_c, 0, 63, 42
2, 93096, Note_on_c, 0, 60, 38
2, 93109, Note_on_c, 0, 67, 25
2, 93208, Control_c, 0, 64, 127
2, 93422, Note_on_c, 0, 48, 59
2, 93443, Note_on_c, 0, 60, 0
2, 93449, Control_c, 0, 64, 0
2, 93473, Note_on_c, 0, 48, 0
2, 93480, Note_on_c, 0, 67, 0
2, 93486, Note_on_c, 0, 63, 0
2, 93593, Control_c, 0, 64, 127
2, 93824, Control_c, 0, 64, 0
2, 93884, Note_on_c, 0, 70, 51
2, 93885, Note_on_c, 0, 63, 57
2, 93886, Note_on_c, 0, 58, 62
2, 93906, Note_on_c, 0, 41, 46
2, 93910, Note_on_c, 0, 43, 41
2, 93917, Note_on_c, 0, 58, 0
2, 93937, Note_on_c, 0, 41, 0
2, 93951, Note_on_c, 0, 43, 0
2, 93956, Note_on_c, 0, 63, 0
2, 93978, Control_c, 0, 64, 127
2, 93991, Note_on_c, 0, 70, 0
2, 94357, Note_on_c, 0, 82, 60
2, 94373, Note_on_c, 0, 67, 62
2, 94379, Note_on_c, 0, 63, 42
2, 94380, Note_on_c, 0, 58, 46
2, 94381, Note_on_c, 0, 75, 47
2, 94382, Note_on_c, 0, 70, 37
2, 94405, Note_on_c, 0, 67, 0
2, 94412, Note_on_c, 0, 58, 0
2, 94414, Note_on_c, 0, 75, 0
2, 94415, Note_on_c, 0, 70, 0
2, 94417, Note_on_c, 0, 63, 0
2, 94435, Note_on_c, 0, 82, 0
2, 94471, Control_c, 0, 64, 0
2, 94486, Note_on_c, 0, 75, 37
2, 94490, Note_on_c, 0, 82, 37
2, 94495, Note_on_c, 0, 70, 34
2, 94498, Note_on_c, 0, 63, 39
2, 94504, Note_on_c, 0, 67, 33
2, 94528, Note_on_c, 0, 70, 0
2, 94533, Note_on_c, 0, 75, 0
2, 94539, Note_on_c, 0, 82, 0
2, 94542, Note_on_c, 0, 67, 0
2, 94548, Note_on_c, 0, 63, 0
2, 94823, Note_on_c, 0, 70, 76
2, 94826, Note_on_c, 0, 82, 57
2, 94833, Note_on_c, 0, 63, 45
2, 94834, Note_on_c, 0, 75, 50
2, 94835, Note_on_c, 0, 67, 53
2, 94854, Note_on_c, 0, 57, 38
2, 94856, Note_on_c, 0, 70, 0
2, 94860, Note_on_c, 0, 82, 0
2, 94866, Note_on_c, 0, 75, 0
2, 94868, Note_on_c, 0, 67, 0
2, 94872, Note_on_c, 0, 63, 0
2, 94931, Note_on_c, 0, 82, 50
2, 94943, Note_on_c, 0, 70, 45
2, 94943, Note_on_c, 0, 75, 33
2, 94957, Note_on_c, 0, 63, 25
2, 94975, Note_on_c, 0, 70, 0
2, 94981, Note_on_c, 0, 75, 0
2, 95003, Note_on_c, 0, 63, 0
2, 95010, Note_on_c, 0, 57, 0
2, 95017, Note_on_c, 0, 82, 0
2, 95247, Note_on_c, 0, 82, 71
2, 95248, Note_on_c, 0, 63, 62
2, 95250, Note_on_c, 0, 70, 83
2, 95256, Note_on_c, 0, 75, 64
2, 95260, Note_on_c, 0, 67, 49
2, 95261, Note_on_c, 0, 57, 56
2, 95272, Note_on_c, 0, 79, 42
2, 95289, Note_on_c, 0, 70, 0
2, 95290, Note_on_c, 0, 75, 0
2, 95294, Note_on_c, 0, 67, 0
2, 95295, Note_on_c, 0, 57, 0
2, 95306, Note_on_c, 0, 79, 0
2, 95316, Note_on_c, 0, 63, 0
2, 95357, Note_on_c, 0, 70, 67
2, 95368, Note_on_c, 0, 75, 39
2, 95377, Note_on_c, 0, 79, 45
2, 95389, Note_on_c, 0, 63, 56
2, 95396, Note_on_c, 0, 57, 35
2, 95418, Note_on_c, 0, 79, 0
2, 95419, Note_on_c, 0, 70, 0
2, 95432, Note_on_c, 0, 75, 0
2, 95443, Note_on_c, 0, 57, 0
2, 95451, Note_on_c, 0, 82, 0
2, 95467, Note_on_c, 0, 63, 0
2, 95612, Note_on_c, 0, 63, 70
2, 95616, Note_on_c, 0, 67, 69
2, 95619, Note_on_c, 0, 70, 80
2, 95620, Note_on_c, 0, 82, 60
2, 95622, Note_on_c, 0, 57, 67
2, 95623, Note_on_c, 0, 75, 68
2, 95633, Note_on_c, 0, 79, 54
2, 95655, Control_c, 0, 64, 127
2, 95660, Note_on_c, 0, 75, 0
2, 95662, Note_on_c, 0, 70, 0
2, 95665, Note_on_c, 0, 79, 0
2, 95669, Note_on_c, 0, 67, 0
2, 95679, Note_on_c, 0, 82, 0
2, 95737, Note_on_c, 0, 82, 38
2, 95751, Note_on_c, 0, 75, 36
2, 95755, Note_on_c, 0, 70, 30
2, 95761, Note_on_c, 0, 79, 32
2, 95787, Note_on_c, 0, 70, 0
2, 95791, Note_on_c, 0, 75, 0
2, 95804, Note_on_c, 0, 79, 0
2, 95818, Note_on_c, 0, 57, 0
2, 95855, Note_on_c, 0, 63, 0
2, 95856, Note_on_c, 0, 82, 0
2, 95934, Control_c, 0, 64, 0
2, 95938, Note_on_c, 0, 62, 74
2, 95942, Note_on_c, 0, 65, 73
2, 95944, Note_on_c, 0, 84, 87
2, 95950, Note_on_c, 0, 72, 82
2, 95952, Note_on_c, 0, 77, 80
2, 95954, Note_on_c, 0, 55, 67
2, 95956, Note_on_c, 0, 60, 67
2, 96100, Control_c, 0, 64, 127
2, 96310, Note_on_c, 0, 84, 0
2, 96317, Note_on_c, 0, 77, 0
2, 96346, Note_on_c, 0, 65, 0
2, 96357, Note_on_c, 0, 72, 0
2, 96376, Note_on_c, 0, 55, 0
2, 96379, Note_on_c, 0, 62, 0
2, 96382, Note_on_c, 0, 60, 0
2, 96418, Control_c, 0, 64, 0
2, 96442, Note_on_c, 0, 65, 49
2, 96444, Note_on_c, 0, 62, 42
2, 96451, Note_on_c, 0, 55, 26
2, 96453, Note_on_c, 0, 81, 69
2, 96460, Note_on_c, 0, 60, 49
2, 96476, Control_c, 0, 64, 127
2, 96485, Note_on_c, 0, 69, 30
2, 96490, Note_on_c, 0, 74, 28
2, 96506, Note_on_c, 0, 77, 27
2, 96559, Note_on_c, 0, 77, 0
2, 96564, Note_on_c, 0, 74, 0
2, 96588, Note_on_c, 0, 65, 0
2, 96589, Note_on_c, 0, 81, 0
2, 96613, Note_on_c, 0, 69, 0
2, 96666, Note_on_c, 0, 55, 0
2, 96673, Note_on_c, 0, 60, 0
2, 96682, Note_on_c, 0, 62, 0
2, 96782, Note_on_c, 0, 77, 58
2, 96791, Note_on_c, 0, 62, 46
2, 96800, Note_on_c, 0, 60, 54
2, 96810, Note_on_c, 0, 65, 44
2, 96813, Control_c, 0, 64, 0
2, 96815, Note_on_c, 0, 72, 26
2, 96819, Note_on_c, 0, 55, 54
2, 96822, Note_on_c, 0, 74, 34
2, 96957, Control_c, 0, 64, 127
2, 97163, Note_on_c, 0, 65, 0
2, 97278, Note_on_c, 0, 72, 0
2, 97318, Note_on_c, 0, 74, 0
2, 97319, Note_on_c, 0, 55, 0
2, 97335, Note_on_c, 0, 77, 0
2, 97386, Note_on_c, 0, 62, 0
2, 97433, Note_on_c, 0, 60, 0
2, 97746, Control_c, 0, 64, 0
2, 97764, Note_on_c, 0, 85, 78
2, 97768, Note_on_c, 0, 89, 80
2, 97771, Note_on_c, 0, 77, 79
2, 97774, Note_on_c, 0, 65, 72
2, 97778, Note_on_c, 0, 62, 59
2, 97793, Note_on_c, 0, 55, 46
2, 97798, Note_on_c, 0, 60, 53
2, 97826, Note_on_c, 0, 77, 0
2, 97841, Note_on_c, 0, 55, 0
2, 97846, Note_on_c, 0, 65, 0
2, 97854, Note_on_c, 0, 85, 0
2, 97879, Note_on_c, 0, 62, 0
2, 97880, Note_on_c, 0, 60, 0
2, 97886, Note_on_c, 0, 86, 35
2, 97895, Note_on_c, 0, 89, 0
2, 97926, Note_on_c, 0, 86, 0
2, 97948, Control_c, 0, 64, 127
2, 98045, Note_on_c, 0, 65, 66
2, 98049, Note_on_c, 0, 89, 74
2, 98052, Note_on_c, 0, 62, 60
2, 98053, Note_on_c, 0, 85, 74
2, 98056, Note_on_c, 0, 55, 52
2, 98060, Note_on_c, 0, 60, 45
2, 98062, Note_on_c, 0, 77, 64
2, 98172, Note_on_c, 0, 86, 54
2, 98181, Note_on_c, 0, 85, 0
2, 98219, Note_on_c, 0, 86, 0
2, 98227, Note_on_c, 0, 65, 0
2, 98233, Note_on_c, 0, 89, 0
2, 98238, Note_on_c, 0, 55, 0
2, 98244, Note_on_c, 0, 77, 0
2, 98255, Note_on_c, 0, 60, 0
2, 98262, Note_on_c, 0, 62, 0
2, 98284, Control_c, 0, 64, 0
2, 98373, Note_on_c, 0, 62, 43
2, 98374, Note_on_c, 0, 65, 66
2, 98386, Note_on_c, 0, 86, 62
2, 98387, Note_on_c, 0, 55, 55
2, 98390, Note_on_c, 0, 60, 45
2, 98399, Note_on_c, 0, 74, 60
2, 98420, Control_c, 0, 64, 127
2, 98467, Note_on_c, 0, 65, 0
2, 98527, Note_on_c, 0, 60, 0
2, 98547, Note_on_c, 0, 62, 0
2, 98555, Note_on_c, 0, 55, 0
2, 98558, Note_on_c, 0, 74, 0
2, 98618, Note_on_c, 0, 86, 0
2, 98715, Note_on_c, 0, 55, 68
2, 98718, Note_on_c, 0, 72, 30
2, 98721, Note_on_c, 0, 62, 58
2, 98724, Note_on_c, 0, 65, 66
2, 98728, Control_c, 0, 64, 0
2, 98729, Note_on_c, 0, 60, 60
2, 98759, Note_on_c, 0, 72, 0
2, 98853, Control_c, 0, 64, 127
2, 98993, Note_on_c, 0, 65, 0
2, 99022, Note_on_c, 0, 60, 0
2, 99028, Note_on_c, 0, 62, 0
2, 99131, Note_on_c, 0, 55, 0
2, 99335, Note_on_c, 0, 65, 51
2, 99340, Note_on_c, 0, 86, 74
2, 99342, Note_on_c, 0, 55, 15
2, 99345, Note_on_c, 0, 62, 33
2, 99357, Note_on_c, 0, 74, 53
2, 99359, Note_on_c, 0, 60, 37
2, 99384, Note_on_c, 0, 65, 0
2, 99388, Note_on_c, 0, 62, 0
2, 99395, Note_on_c, 0, 74, 0
2, 99400, Note_on_c, 0, 60, 0
2, 99415, Note_on_c, 0, 55, 0
2, 99423, Note_on_c, 0, 86, 0
2, 99526, Note_on_c, 0, 83, 44
2, 99569, Note_on_c, 0, 83, 0
2, 99632, Control_c, 0, 64, 0
2, 99654, Note_on_c, 0, 86, 79
2, 99658, Note_on_c, 0, 60, 51
2, 99662, Note_on_c, 0, 59, 45
2, 99669, Note_on_c, 0, 65, 44
2, 99670, Note_on_c, 0, 74, 74
2, 99672, Note_on_c, 0, 64, 40
2, 99673, Note_on_c, 0, 57, 31
2, 99689, Note_on_c, 0, 55, 24
2, 99726, Note_on_c, 0, 65, 0
2, 99814, Note_on_c, 0, 55, 0
2, 99815, Note_on_c, 0, 64, 0
2, 99819, Note_on_c, 0, 60, 0
2, 99835, Control_c, 0, 64, 127
2, 99839, Note_on_c, 0, 59, 0
2, 99917, Note_on_c, 0, 59, 10
2, 100075, Note_on_c, 0, 59, 0
2, 100098, Note_on_c, 0, 57, 0
2, 100155, Note_on_c, 0, 74, 0
2, 100206, Note_on_c, 0, 86, 0
2, 100296, Control_c, 0, 64, 0
2, 100317, Note_on_c, 0, 86, 62
2, 100320, Note_on_c, 0, 55, 32
2, 100328, Note_on_c, 0, 64, 30
2, 100330, Note_on_c, 0, 74, 53
2, 100342, Note_on_c, 0, 57, 26
2, 100374, Note_on_c, 0, 74, 0
2, 100384, Note_on_c, 0, 64, 0
2, 100386, Note_on_c, 0, 55, 0
2, 100394, Note_on_c, 0, 57, 0
2, 100407, Note_on_c, 0, 86, 0
2, 100641, Note_on_c, 0, 64, 57
2, 100647, Note_on_c, 0, 55, 52
2, 100648, Note_on_c, 0, 86, 76
2, 100653, Note_on_c, 0, 57, 43
2, 100654, Note_on_c, 0, 60, 51
2, 100660, Note_on_c, 0, 74, 66
2, 100787, Control_c, 0, 64, 127
2, 101226, Note_on_c, 0, 74, 0
2, 101254, Note_on_c, 0, 86, 0
2, 101451, Note_on_c, 0, 57, 0
2, 101463, Note_on_c, 0, 55, 0
2, 101514, Note_on_c, 0, 64, 0
2, 101536, Note_on_c, 0, 60, 0
2, 101775, Note_on_c, 0, 92, 80
2, 101778, Control_c, 0, 64, 0
2, 101782, Note_on_c, 0, 65, 51
2, 101784, Note_on_c, 0, 54, 60
2, 101786, Note_on_c, 0, 60, 57
2, 101787, Note_on_c, 0, 80, 71
2, 101795, Note_on_c, 0, 58, 43
2, 102298, Control_c, 0, 64, 127
2, 102322, Note_on_c, 0, 54, 0
2, 102335, Note_on_c, 0, 80, 0
2, 102360, Note_on_c, 0, 65, 0
2, 102404, Note_on_c, 0, 92, 0
2, 102437, Note_on_c, 0, 60, 0
2, 102467, Note_on_c, 0, 58, 0
2, 102600, Note_on_c, 0, 65, 59
2, 102606, Note_on_c, 0, 58, 42
2, 102609, Note_on_c, 0, 54, 42
2, 102617, Note_on_c, 0, 60, 52
2, 102645, Control_c, 0, 64, 0
2, 103099, Note_on_c, 0, 94, 71
2, 103125, Note_on_c, 0, 82, 68
2, 103198, Note_on_c, 0, 65, 0
2, 103247, Note_on_c, 0, 60, 0
2, 103249, Note_on_c, 0, 82, 0
2, 103297, Note_on_c, 0, 94, 0
2, 103313, Note_on_c, 0, 54, 0
2, 103321, Note_on_c, 0, 58, 0
2, 103352, Note_on_c, 0, 93, 45
2, 103498, Note_on_c, 0, 93, 0
2, 103603, Note_on_c, 0, 91, 58
2, 103614, Note_on_c, 0, 59, 39
2, 103654, Note_on_c, 0, 59, 0
2, 103726, Note_on_c, 0, 91, 0
2, 103841, Note_on_c, 0, 93, 64
2, 103966, Note_on_c, 0, 93, 0
2, 104067, Note_on_c, 0, 50, 57
2, 104075, Note_on_c, 0, 43, 61
2, 104077, Note_on_c, 0, 90, 69
2, 104131, Note_on_c, 0, 43, 0
2, 104185, Note_on_c, 0, 50, 0
2, 104208, Note_on_c, 0, 90, 0
2, 104301, Note_on_c, 0, 88, 34
2, 104362, Note_on_c, 0, 88, 0
2, 104520, Note_on_c, 0, 54, 49
2, 104529, Note_on_c, 0, 64, 50
2, 104535, Note_on_c, 0, 84, 62
2, 104538, Note_on_c, 0, 59, 53
2, 104592, Note_on_c, 0, 64, 0
2, 104607, Note_on_c, 0, 84, 0
2, 104640, Note_on_c, 0, 54, 0
2, 104642, Note_on_c, 0, 59, 0
2, 104763, Note_on_c, 0, 78, 44
2, 105030, Note_on_c, 0, 78, 0
2, 105155, Note_on_c, 0, 78, 69
2, 105162, Note_on_c, 0, 54, 49
2, 105166, Note_on_c, 0, 64, 53
2, 105192, Note_on_c, 0, 59, 40
2, 105605, Note_on_c, 0, 78, 0
2, 105634, Note_on_c, 0, 76, 63
2, 105798, Note_on_c, 0, 64, 0
2, 105808, Note_on_c, 0, 76, 0
2, 105850, Note_on_c, 0, 59, 0
2, 105867, Note_on_c, 0, 54, 0
2, 105918, Note_on_c, 0, 78, 54
2, 105974, Note_on_c, 0, 76, 59
2, 106014, Note_on_c, 0, 59, 31
2, 106017, Note_on_c, 0, 54, 18
2, 106062, Note_on_c, 0, 78, 0
2, 106071, Note_on_c, 0, 76, 0
2, 106098, Note_on_c, 0, 54, 0
2, 106115, Note_on_c, 0, 71, 51
2, 106201, Note_on_c, 0, 71, 0
2, 106218, Note_on_c, 0, 59, 0
2, 106272, Control_c, 0, 64, 127
2, 106410, Note_on_c, 0, 66, 59
2, 106426, Note_on_c, 0, 54, 35
2, 106431, Note_on_c, 0, 59, 38
2, 106437, Control_c, 0, 64, 0
2, 106480, Note_on_c, 0, 59, 0
2, 106502, Note_on_c, 0, 66, 0
2, 106523, Note_on_c, 0, 54, 0
2, 106558, Note_on_c, 0, 64, 51
2, 106580, Note_on_c, 0, 54, 26
2, 106612, Note_on_c, 0, 59, 26
2, 106668, Control_c, 0, 64, 127
2, 106678, Note_on_c, 0, 59, 0
2, 106779, Note_on_c, 0, 54, 0
2, 106830, Note_on_c, 0, 64, 0
2, 106895, Note_on_c, 0, 59, 27
2, 106937, Control_c, 0, 64, 0
2, 106941, Note_on_c, 0, 59, 0
2, 106982, Note_on_c, 0, 54, 28
2, 107035, Note_on_c, 0, 64, 44
2, 107110, Control_c, 0, 64, 127
2, 107157, Note_on_c, 0, 54, 0
2, 107264, Note_on_c, 0, 64, 0
2, 107347, Note_on_c, 0, 66, 53
2, 107453, Note_on_c, 0, 66, 0
2, 107476, Control_c, 0, 64, 0
2, 107545, Note_on_c, 0, 53, 24
2, 107560, Note_on_c, 0, 58, 30
2, 107565, Note_on_c, 0, 62, 40
2, 107568, Note_on_c, 0, 57, 28
2, 107571, Note_on_c, 0, 69, 50
2, 107582, Note_on_c, 0, 65, 33
2, 107986, Control_c, 0, 64, 127
2, 107993, Note_on_c, 0, 57, 0
2, 108017, Note_on_c, 0, 53, 0
2, 108036, Note_on_c, 0, 58, 0
2, 108074, Note_on_c, 0, 62, 0
2, 108418, Note_on_c, 0, 65, 0
2, 108802, Note_on_c, 0, 69, 0
2, 108900, Control_c, 0, 64, 0
2, 108973, Note_on_c, 0, 60, 59
2, 108979, Note_on_c, 0, 65, 59
2, 108981, Note_on_c, 0, 55, 60
2, 109016, Control_c, 0, 64, 127
2, 109062, Note_on_c, 0, 60, 0
2, 109064, Note_on_c, 0, 65, 0
2, 109069, Note_on_c, 0, 55, 0
2, 109863, Control_c, 0, 64, 0
2, 109929, Note_on_c, 0, 65, 69
2, 109930, Note_on_c, 0, 60, 66
2, 109932, Note_on_c, 0, 91, 80
2, 109934, Note_on_c, 0, 55, 65
2, 109935, Note_on_c, 0, 79, 77
2, 109938, Note_on_c, 0, 86, 73
2, 109972, Note_on_c, 0, 55, 0
2, 109998, Control_c, 0, 64, 127
2, 110014, Note_on_c, 0, 60, 0
2, 110031, Note_on_c, 0, 65, 0
2, 110050, Note_on_c, 0, 79, 0
2, 110067, Note_on_c, 0, 86, 0
2, 110094, Note_on_c, 0, 91, 0
2, 110393, Control_c, 0, 64, 0
2, 110416, Note_on_c, 0, 93, 81
2, 110419, Note_on_c, 0, 88, 78
2, 110424, Note_on_c, 0, 81, 82
2, 110425, Note_on_c, 0, 64, 71
2, 110426, Note_on_c, 0, 85, 69
2, 110427, Note_on_c, 0, 69, 81
2, 110429, Note_on_c, 0, 58, 74
2, 110439, Note_on_c, 0, 91, 50
2, 110476, Note_on_c, 0, 91, 0
2, 110604, Control_c, 0, 64, 127
2, 110764, Note_on_c, 0, 93, 0
2, 110767, Note_on_c, 0, 81, 0
2, 110776, Note_on_c, 0, 58, 0
2, 110783, Note_on_c, 0, 85, 0
2, 110794, Note_on_c, 0, 69, 0
2, 110817, Note_on_c, 0, 64, 0
2, 110822, Note_on_c, 0, 88, 0
2, 110844, Control_c, 0, 64, 0
2, 110887, Note_on_c, 0, 58, 34
2, 110898, Note_on_c, 0, 69, 30
2, 110909, Note_on_c, 0, 85, 37
2, 110912, Control_c, 0, 64, 127
2, 110913, Note_on_c, 0, 91, 30
2, 110939, Note_on_c, 0, 69, 0
2, 110952, Note_on_c, 0, 85, 0
2, 110983, Note_on_c, 0, 91, 0
2, 111009, Note_on_c, 0, 58, 0
2, 111255, Note_on_c, 0, 55, 61
2, 111256, Note_on_c, 0, 57, 58
2, 111257, Note_on_c, 0, 91, 58
2, 111258, Note_on_c, 0, 64, 64
2, 111260, Note_on_c, 0, 98, 65
2, 111261, Note_on_c, 0, 60, 62
2, 111263, Control_c, 0, 64, 0
2, 111270, Note_on_c, 0, 86, 46
2, 111271, Note_on_c, 0, 84, 53
2, 111273, Note_on_c, 0, 96, 58
2, 111282, Note_on_c, 0, 93, 45
2, 111307, Note_on_c, 0, 96, 0
2, 111312, Note_on_c, 0, 84, 0
2, 111332, Note_on_c, 0, 93, 0
2, 111339, Note_on_c, 0, 64, 0
2, 111357, Note_on_c, 0, 91, 0
2, 111358, Note_on_c, 0, 55, 0
2, 111364, Note_on_c, 0, 60, 0
2, 111365, Note_on_c, 0, 86, 0
2, 111406, Note_on_c, 0, 57, 0
2, 111407, Note_on_c, 0, 98, 0
2, 111738, Note_on_c, 0, 64, 70
2, 111739, Note_on_c, 0, 96, 78
2, 111742, Note_on_c, 0, 55, 65
2, 111745, Note_on_c, 0, 57, 56
2, 111749, Note_on_c, 0, 91, 56
2, 111751, Note_on_c, 0, 84, 57
2, 111752, Note_on_c, 0, 60, 60
2, 111763, Note_on_c, 0, 93, 45
2, 111901, Control_c, 0, 64, 127
2, 111951, Note_on_c, 0, 96, 0
2, 111968, Note_on_c, 0, 93, 0
2, 111980, Note_on_c, 0, 91, 0
2, 112014, Note_on_c, 0, 84, 0
2, 112145, Note_on_c, 0, 60, 0
2, 112158, Note_on_c, 0, 64, 0
2, 112170, Note_on_c, 0, 55, 0
2, 112188, Note_on_c, 0, 57, 0
2, 112295, Control_c, 0, 64, 0
2, 112355, Note_on_c, 0, 55, 60
2, 112360, Note_on_c, 0, 93, 54
2, 112366, Note_on_c, 0, 64, 47
2, 112369, Note_on_c, 0, 81, 43
2, 112370, Note_on_c, 0, 57, 47
2, 112372, Note_on_c, 0, 88, 48
2, 112375, Note_on_c, 0, 60, 48
2, 112410, Note_on_c, 0, 88, 0
2, 112416, Note_on_c, 0, 60, 0
2, 112428, Note_on_c, 0, 93, 0
2, 112437, Note_on_c, 0, 81, 0
2, 112440, Note_on_c, 0, 64, 0
2, 112491, Note_on_c, 0, 55, 0
2, 112526, Control_c, 0, 64, 127
2, 112527, Note_on_c, 0, 57, 0
2, 112642, Control_c, 0, 64, 0
2, 112782, Note_on_c, 0, 55, 57
2, 112806, Note_on_c, 0, 64, 44
2, 112811, Note_on_c, 0, 60, 54
2, 112815, Note_on_c, 0, 88, 49
2, 112819, Note_on_c, 0, 84, 51
2, 112820, Note_on_c, 0, 81, 53
2, 112821, Note_on_c, 0, 76, 49
2, 112825, Control_c, 0, 64, 127
2, 112842, Note_on_c, 0, 57, 20
2, 112889, Note_on_c, 0, 57, 0
2, 112920, Note_on_c, 0, 60, 0
2, 112923, Note_on_c, 0, 55, 0
2, 112950, Note_on_c, 0, 88, 0
2, 112955, Note_on_c, 0, 76, 0
2, 112965, Note_on_c, 0, 81, 0
2, 113013, Note_on_c, 0, 84, 0
2, 113033, Note_on_c, 0, 64, 0
2, 113238, Control_c, 0, 64, 0
2, 113298, Note_on_c, 0, 87, 76
2, 113301, Note_on_c, 0, 67, 73
2, 113303, Note_on_c, 0, 60, 61
2, 113309, Note_on_c, 0, 63, 50
2, 113311, Note_on_c, 0, 80, 67
2, 113312, Note_on_c, 0, 56, 53
2, 113314, Note_on_c, 0, 75, 72
2, 113364, Control_c, 0, 64, 127
2, 113447, Note_on_c, 0, 87, 0
2, 113461, Note_on_c, 0, 75, 0
2, 113470, Note_on_c, 0, 80, 0
2, 113483, Note_on_c, 0, 67, 0
2, 113501, Note_on_c, 0, 60, 0
2, 113526, Note_on_c, 0, 56, 0
2, 113530, Note_on_c, 0, 63, 0
2, 113645, Note_on_c, 0, 78, 56
2, 113658, Note_on_c, 0, 84, 66
2, 113661, Note_on_c, 0, 67, 64
2, 113663, Note_on_c, 0, 56, 49
2, 113663, Note_on_c, 0, 63, 53
2, 113674, Note_on_c, 0, 60, 53
2, 113682, Control_c, 0, 64, 0
2, 113683, Note_on_c, 0, 72, 45
2, 113714, Note_on_c, 0, 60, 0
2, 113715, Note_on_c, 0, 72, 0
2, 113734, Note_on_c, 0, 67, 0
2, 113753, Note_on_c, 0, 63, 0
2, 113769, Note_on_c, 0, 56, 0
2, 113791, Note_on_c, 0, 84, 0
2, 113797, Note_on_c, 0, 78, 0
2, 113826, Control_c, 0, 64, 127
2, 113850, Note_on_c, 0, 56, 29
2, 113851, Note_on_c, 0, 67, 32
2, 113852, Note_on_c, 0, 63, 47
2, 113870, Note_on_c, 0, 60, 51
2, 113928, Note_on_c, 0, 67, 0
2, 113989, Note_on_c, 0, 56, 0
2, 113991, Note_on_c, 0, 63, 0
2, 114040, Note_on_c, 0, 60, 0
2, 114150, Note_on_c, 0, 56, 64
2, 114153, Control_c, 0, 64, 0
2, 114154, Note_on_c, 0, 66, 74
2, 114157, Note_on_c, 0, 62, 68
2, 114158, Note_on_c, 0, 85, 79
2, 114163, Note_on_c, 0, 73, 83
2, 114167, Note_on_c, 0, 82, 61
2, 114169, Note_on_c, 0, 78, 69
2, 114297, Control_c, 0, 64, 127
2, 114423, Note_on_c, 0, 85, 0
2, 114441, Note_on_c, 0, 82, 0
2, 114455, Note_on_c, 0, 78, 0
2, 114464, Note_on_c, 0, 73, 0
2, 114493, Note_on_c, 0, 66, 0
2, 114521, Note_on_c, 0, 56, 0
2, 114547, Note_on_c, 0, 62, 0
2, 114631, Note_on_c, 0, 82, 58
2, 114644, Control_c, 0, 64, 0
2, 114648, Note_on_c, 0, 75, 67
2, 114650, Note_on_c, 0, 56, 64
2, 114652, Note_on_c, 0, 66, 67
2, 114654, Note_on_c, 0, 62, 60
2, 114659, Note_on_c, 0, 70, 55
2, 114778, Control_c, 0, 64, 127
2, 114887, Note_on_c, 0, 82, 0
2, 114889, Note_on_c, 0, 70, 0
2, 114906, Note_on_c, 0, 66, 0
2, 114932, Note_on_c, 0, 75, 0
2, 115014, Note_on_c, 0, 62, 0
2, 115036, Note_on_c, 0, 56, 0
2, 115112, Note_on_c, 0, 79, 62
2, 115115, Note_on_c, 0, 62, 54
2, 115119, Note_on_c, 0, 67, 68
2, 115122, Note_on_c, 0, 74, 69
2, 115126, Control_c, 0, 64, 0
2, 115128, Note_on_c, 0, 65, 67
2, 115135, Note_on_c, 0, 55, 60
2, 115137, Note_on_c, 0, 60, 54
2, 115298, Control_c, 0, 64, 127
2, 115355, Note_on_c, 0, 74, 0
2, 115360, Note_on_c, 0, 65, 0
2, 115373, Note_on_c, 0, 79, 0
2, 115422, Note_on_c, 0, 62, 0
2, 115424, Note_on_c, 0, 60, 0
2, 115431, Note_on_c, 0, 67, 0
2, 115613, Note_on_c, 0, 58, 18
2, 115645, Note_on_c, 0, 57, 33
2, 115690, Note_on_c, 0, 55, 0
2, 115694, Note_on_c, 0, 57, 0
2, 115741, Note_on_c, 0, 60, 68
2, 115753, Note_on_c, 0, 62, 90
2, 115758, Note_on_c, 0, 74, 81
2, 115761, Control_c, 0, 64, 0
2, 115766, Note_on_c, 0, 67, 77
2, 115768, Note_on_c, 0, 70, 71
2, 115770, Note_on_c, 0, 63, 83
2, 115810, Note_on_c, 0, 60, 0
2, 115817, Note_on_c, 0, 58, 0
2, 116121, Note_on_c, 0, 70, 0
2, 116159, Note_on_c, 0, 63, 0
2, 116163, Note_on_c, 0, 67, 0
2, 116202, Note_on_c, 0, 74, 0
2, 116246, Note_on_c, 0, 70, 51
2, 116254, Note_on_c, 0, 63, 34
2, 116255, Note_on_c, 0, 58, 48
2, 116260, Note_on_c, 0, 67, 42
2, 116263, Note_on_c, 0, 62, 0
2, 116311, Control_c, 0, 64, 127
2, 116464, Note_on_c, 0, 67, 0
2, 116529, Note_on_c, 0, 63, 0
2, 116650, Note_on_c, 0, 58, 0
2, 116658, Control_c, 0, 64, 0
2, 116661, Note_on_c, 0, 70, 0
2, 116707, Note_on_c, 0, 63, 37
2, 116725, Control_c, 0, 64, 127
2, 116735, Note_on_c, 0, 55, 40
2, 116767, Note_on_c, 0, 63, 0
2, 116975, Control_c, 0, 64, 0
2, 116988, Note_on_c, 0, 55, 0
2, 116993, Note_on_c, 0, 56, 55
2, 117015, Note_on_c, 0, 69, 55
2, 117017, Note_on_c, 0, 60, 57
2, 117020, Note_on_c, 0, 63, 47
2, 117032, Note_on_c, 0, 65, 36
2, 117034, Note_on_c, 0, 57, 45
2, 117093, Note_on_c, 0, 56, 0
2, 117249, Note_on_c, 0, 56, 51
2, 117257, Note_on_c, 0, 57, 0
2, 117263, Note_on_c, 0, 69, 0
2, 117278, Note_on_c, 0, 65, 0
2, 117319, Note_on_c, 0, 60, 0
2, 117340, Note_on_c, 0, 63, 0
2, 117355, Note_on_c, 0, 56, 0
2, 117394, Note_on_c, 0, 55, 35
2, 117441, Note_on_c, 0, 55, 0
2, 117473, Note_on_c, 0, 54, 52
2, 117551, Note_on_c, 0, 54, 0
2, 117607, Note_on_c, 0, 63, 34
2, 117612, Note_on_c, 0, 53, 48
2, 117616, Note_on_c, 0, 57, 37
2, 117635, Note_on_c, 0, 65, 40
2, 117652, Note_on_c, 0, 60, 25
2, 117822, Note_on_c, 0, 53, 0
2, 117942, Note_on_c, 0, 41, 44
2, 118011, Note_on_c, 0, 60, 0
2, 118026, Note_on_c, 0, 41, 0
2, 118069, Note_on_c, 0, 63, 0
2, 118075, Note_on_c, 0, 57, 0
2, 118090, Note_on_c, 0, 65, 0
2, 118189, Note_on_c, 0, 51, 47
2, 118231, Note_on_c, 0, 60, 38
2, 118424, Note_on_c, 0, 51, 0
2, 118430, Note_on_c, 0, 60, 0
2, 118535, Note_on_c, 0, 51, 53
2, 118563, Control_c, 0, 64, 127
2, 118788, Note_on_c, 0, 51, 0
2, 118814, Control_c, 0, 64, 0
2, 118865, Note_on_c, 0, 65, 43
2, 118874, Note_on_c, 0, 50, 53
2, 118881, Note_on_c, 0, 57, 38
2, 118882, Note_on_c, 0, 60, 49
2, 118951, Note_on_c, 0, 38, 18
2, 118993, Note_on_c, 0, 57, 0
2, 119006, Control_c, 0, 64, 127
2, 119032, Note_on_c, 0, 38, 0
2, 119057, Note_on_c, 0, 65, 0
2, 119099, Note_on_c, 0, 60, 0
2, 119324, Control_c, 0, 64, 0
2, 119328, Note_on_c, 0, 38, 72
2, 119385, Note_on_c, 0, 50, 0
2, 119405, Note_on_c, 0, 38, 0
2, 119429, Control_c, 0, 64, 127
2, 119823, Note_on_c, 0, 80, 81
2, 119825, Note_on_c, 0, 84, 92
2, 119829, Note_on_c, 0, 72, 91
2, 119832, Note_on_c, 0, 78, 71
2, 119837, Note_on_c, 0, 57, 66
2, 119841, Note_on_c, 0, 60, 80
2, 119849, Note_on_c, 0, 53, 58
2, 119851, Note_on_c, 0, 50, 60
2, 119853, Control_c, 0, 64, 0
2, 119915, Note_on_c, 0, 78, 0
2, 119942, Note_on_c, 0, 60, 0
2, 119970, Note_on_c, 0, 72, 0
2, 119978, Note_on_c, 0, 84, 0
2, 119979, Note_on_c, 0, 50, 0
2, 119993, Note_on_c, 0, 80, 0
2, 120010, Note_on_c, 0, 53, 0
2, 120015, Note_on_c, 0, 57, 0
2, 120145, Note_on_c, 0, 80, 51
2, 120164, Note_on_c, 0, 68, 56
2, 120169, Note_on_c, 0, 60, 66
2, 120175, Note_on_c, 0, 57, 42
2, 120183, Note_on_c, 0, 53, 50
2, 120184, Note_on_c, 0, 50, 48
2, 120187, Note_on_c, 0, 81, 36
2, 120217, Note_on_c, 0, 77, 30
2, 120233, Note_on_c, 0, 68, 0
2, 120245, Note_on_c, 0, 69, 58
2, 120254, Note_on_c, 0, 74, 33
2, 120266, Control_c, 0, 64, 127
2, 120305, Note_on_c, 0, 80, 0
2, 120311, Note_on_c, 0, 60, 0
2, 120316, Note_on_c, 0, 81, 0
2, 120327, Note_on_c, 0, 69, 0
2, 120334, Note_on_c, 0, 57, 0
2, 120344, Control_c, 0, 64, 0
2, 120354, Note_on_c, 0, 53, 0
2, 120359, Note_on_c, 0, 77, 0
2, 120382, Note_on_c, 0, 74, 0
2, 120491, Note_on_c, 0, 77, 58
2, 120493, Note_on_c, 0, 60, 58
2, 120515, Note_on_c, 0, 65, 27
2, 120517, Control_c, 0, 64, 127
2, 120518, Note_on_c, 0, 57, 30
2, 120538, Note_on_c, 0, 50, 0
2, 120549, Note_on_c, 0, 65, 0
2, 120564, Note_on_c, 0, 57, 0
2, 120585, Note_on_c, 0, 77, 0
2, 120604, Note_on_c, 0, 60, 0
2, 120777, Control_c, 0, 64, 0
2, 120816, Note_on_c, 0, 53, 58
2, 120818, Note_on_c, 0, 79, 74
2, 120821, Note_on_c, 0, 64, 63
2, 120822, Note_on_c, 0, 74, 75
2, 120826, Note_on_c, 0, 67, 71
2, 120827, Note_on_c, 0, 59, 54
2, 120839, Note_on_c, 0, 76, 58
2, 120890, Note_on_c, 0, 67, 0
2, 120905, Note_on_c, 0, 64, 0
2, 120911, Note_on_c, 0, 59, 0
2, 120952, Note_on_c, 0, 74, 0
2, 120956, Note_on_c, 0, 79, 0
2, 120975, Note_on_c, 0, 76, 0
2, 120998, Note_on_c, 0, 67, 38
2, 121032, Note_on_c, 0, 59, 33
2, 121066, Note_on_c, 0, 64, 43
2, 121068, Note_on_c, 0, 79, 22
2, 121069, Note_on_c, 0, 67, 0
2, 121074, Note_on_c, 0, 53, 0
2, 121078, Note_on_c, 0, 74, 31
2, 121078, Note_on_c, 0, 76, 32
2, 121124, Note_on_c, 0, 79, 0
2, 121132, Note_on_c, 0, 59, 0
2, 121135, Note_on_c, 0, 76, 0
2, 121136, Note_on_c, 0, 74, 0
2, 121152, Note_on_c, 0, 64, 0
2, 121166, Note_on_c, 0, 67, 30
2, 121190, Note_on_c, 0, 53, 31
2, 121222, Note_on_c, 0, 67, 0
2, 121229, Control_c, 0, 64, 127
2, 121248, Control_c, 0, 64, 0
2, 121250, Note_on_c, 0, 53, 0
2, 121557, Control_c, 0, 64, 127
2, 121576, Control_c, 0, 64, 0
2, 121939, Note_on_c, 0, 73, 67
2, 121940, Note_on_c, 0, 79, 72
2, 121941, Note_on_c, 0, 67, 71
2, 121952, Note_on_c, 0, 64, 47
2, 121954, Note_on_c, 0, 59, 42
2, 121969, Note_on_c, 0, 53, 38
2, 122063, Note_on_c, 0, 64, 0
2, 122081, Note_on_c, 0, 53, 0
2, 122085, Note_on_c, 0, 67, 0
2, 122105, Note_on_c, 0, 73, 0
2, 122110, Note_on_c, 0, 74, 51
2, 122115, Note_on_c, 0, 59, 0
2, 122137, Note_on_c, 0, 79, 0
2, 122168, Note_on_c, 0, 74, 0
2, 122422, Note_on_c, 0, 73, 71
2, 122423, Note_on_c, 0, 69, 72
2, 122441, Note_on_c, 0, 81, 54
2, 122445, Note_on_c, 0, 59, 56
2, 122450, Note_on_c, 0, 53, 52
2, 122461, Note_on_c, 0, 64, 55
2, 122589, Note_on_c, 0, 74, 45
2, 122590, Note_on_c, 0, 73, 0
2, 122596, Note_on_c, 0, 69, 0
2, 122609, Note_on_c, 0, 59, 0
2, 122616, Note_on_c, 0, 53, 0
2, 122644, Note_on_c, 0, 81, 0
2, 122645, Note_on_c, 0, 74, 0
2, 122724, Note_on_c, 0, 64, 0
2, 122929, Note_on_c, 0, 58, 47
2, 122932, Note_on_c, 0, 82, 55
2, 122945, Note_on_c, 0, 75, 57
2, 122948, Note_on_c, 0, 62, 47
2, 122949, Note_on_c, 0, 63, 39
2, 122955, Note_on_c, 0, 79, 45
2, 122957, Note_on_c, 0, 70, 46
2, 122958, Note_on_c, 0, 67, 46
2, 123183, Control_c, 0, 64, 127
2, 123323, Note_on_c, 0, 79, 0
2, 123349, Note_on_c, 0, 70, 0
2, 123359, Note_on_c, 0, 67, 0
2, 123365, Note_on_c, 0, 62, 0
2, 123379, Note_on_c, 0, 58, 0
2, 123397, Note_on_c, 0, 75, 0
2, 123413, Note_on_c, 0, 63, 0
2, 123482, Note_on_c, 0, 82, 0
2, 123828, Control_c, 0, 64, 0
2, 123879, Note_on_c, 0, 91, 57
2, 123881, Note_on_c, 0, 58, 37
2, 123883, Note_on_c, 0, 63, 39
2, 123889, Note_on_c, 0, 67, 40
2, 123896, Note_on_c, 0, 86, 48
2, 123897, Note_on_c, 0, 62, 35
2, 123899, Note_on_c, 0, 79, 30
2, 123913, Note_on_c, 0, 58, 0
2, 123922, Note_on_c, 0, 67, 0
2, 123938, Note_on_c, 0, 86, 0
2, 123941, Note_on_c, 0, 62, 0
2, 123949, Note_on_c, 0, 79, 0
2, 123955, Note_on_c, 0, 91, 0
2, 123974, Note_on_c, 0, 63, 0
2, 124214, Note_on_c, 0, 91, 62
2, 124215, Note_on_c, 0, 79, 62
2, 124229, Note_on_c, 0, 86, 43
2, 124230, Note_on_c, 0, 62, 37
2, 124246, Note_on_c, 0, 79, 0
2, 124255, Note_on_c, 0, 91, 0
2, 124265, Note_on_c, 0, 86, 0
2, 124274, Note_on_c, 0, 62, 0
2, 124364, Note_on_c, 0, 63, 34
2, 124368, Note_on_c, 0, 93, 56
2, 124369, Note_on_c, 0, 58, 37
2, 124372, Note_on_c, 0, 62, 36
2, 124393, Note_on_c, 0, 88, 24
2, 124402, Note_on_c, 0, 93, 0
2, 124407, Note_on_c, 0, 62, 0
2, 124426, Note_on_c, 0, 88, 0
2, 124435, Note_on_c, 0, 63, 0
2, 124463, Note_on_c, 0, 58, 0
2, 124691, Note_on_c, 0, 93, 71
2, 124709, Note_on_c, 0, 88, 46
2, 124716, Note_on_c, 0, 83, 37
2, 124717, Note_on_c, 0, 81, 25
2, 124719, Note_on_c, 0, 90, 26
2, 124725, Note_on_c, 0, 93, 0
2, 124751, Note_on_c, 0, 81, 0
2, 124754, Note_on_c, 0, 90, 0
2, 124755, Note_on_c, 0, 83, 0
2, 124765, Note_on_c, 0, 88, 0
2, 124833, Note_on_c, 0, 61, 33
2, 124834, Note_on_c, 0, 58, 39
2, 124840, Note_on_c, 0, 55, 58
2, 124845, Note_on_c, 0, 82, 52
2, 124847, Note_on_c, 0, 64, 53
2, 124848, Control_c, 0, 64, 127
2, 124856, Note_on_c, 0, 88, 47
2, 124867, Note_on_c, 0, 94, 52
2, 124901, Note_on_c, 0, 88, 0
2, 125061, Note_on_c, 0, 94, 0
2, 125101, Note_on_c, 0, 82, 0
2, 125113, Note_on_c, 0, 64, 0
2, 125119, Note_on_c, 0, 55, 0
2, 125142, Note_on_c, 0, 61, 0
2, 125151, Note_on_c, 0, 58, 0
2, 125261, Control_c, 0, 64, 0
2, 125311, Note_on_c, 0, 91, 53
2, 125316, Note_on_c, 0, 79, 55
2, 125319, Note_on_c, 0, 85, 49
2, 125320, Note_on_c, 0, 58, 39
2, 125321, Note_on_c, 0, 55, 55
2, 125325, Note_on_c, 0, 64, 48
2, 125329, Note_on_c, 0, 61, 38
2, 125340, Note_on_c, 0, 88, 43
2, 125839, Control_c, 0, 64, 127
2, 126278, Note_on_c, 0, 79, 0
2, 126299, Note_on_c, 0, 91, 0
2, 126321, Note_on_c, 0, 61, 0
2, 126336, Note_on_c, 0, 64, 0
2, 126341, Note_on_c, 0, 88, 0
2, 126385, Note_on_c, 0, 85, 0
2, 126397, Note_on_c, 0, 58, 0
2, 126407, Note_on_c, 0, 55, 0
2, 126532, Control_c, 0, 64, 0
2, 126601, Note_on_c, 0, 85, 64
2, 126607, Note_on_c, 0, 93, 63
2, 126608, Note_on_c, 0, 88, 58
2, 126609, Note_on_c, 0, 81, 64
2, 126611, Note_on_c, 0, 58, 50
2, 126613, Note_on_c, 0, 55, 64
2, 126618, Note_on_c, 0, 61, 48
2, 126619, Note_on_c, 0, 64, 62
2, 126652, Note_on_c, 0, 55, 0
2, 126660, Note_on_c, 0, 64, 0
2, 126667, Note_on_c, 0, 81, 0
2, 126673, Note_on_c, 0, 85, 0
2, 126683, Note_on_c, 0, 61, 0
2, 126703, Note_on_c, 0, 58, 0
2, 126707, Note_on_c, 0, 88, 0
2, 126744, Note_on_c, 0, 93, 0
2, 126891, Control_c, 0, 64, 127
2, 127074, Control_c, 0, 64, 0
2, 127199, Note_on_c, 0, 94, 74
2, 127210, Note_on_c, 0, 62, 58
2, 127211, Note_on_c, 0, 65, 65
2, 127213, Note_on_c, 0, 82, 77
2, 127217, Note_on_c, 0, 89, 78
2, 127218, Note_on_c, 0, 60, 61
2, 127336, Control_c, 0, 64, 127
2, 127390, Note_on_c, 0, 65, 0
2, 127526, Note_on_c, 0, 89, 0
2, 127533, Note_on_c, 0, 94, 0
2, 127573, Note_on_c, 0, 82, 0
2, 127582, Note_on_c, 0, 53, 49
2, 127820, Note_on_c, 0, 62, 0
2, 127832, Note_on_c, 0, 60, 0
2, 128033, Note_on_c, 0, 67, 42
2, 128069, Note_on_c, 0, 67, 0
2, 128106, Control_c, 0, 64, 0
2, 128182, Note_on_c, 0, 69, 57
2, 128211, Control_c, 0, 64, 127
2, 128221, Note_on_c, 0, 69, 0
2, 128530, Note_on_c, 0, 56, 47
2, 128531, Note_on_c, 0, 53, 0
2, 128636, Note_on_c, 0, 56, 0
2, 128646, Note_on_c, 0, 70, 64
2, 128657, Note_on_c, 0, 61, 68
2, 128662, Note_on_c, 0, 64, 68
2, 128663, Control_c, 0, 64, 0
2, 128669, Note_on_c, 0, 67, 51
2, 128684, Note_on_c, 0, 58, 76
2, 128879, Note_on_c, 0, 51, 19
2, 128903, Note_on_c, 0, 58, 0
2, 128907, Note_on_c, 0, 67, 0
2, 128928, Note_on_c, 0, 64, 0
2, 128931, Note_on_c, 0, 57, 46
2, 128934, Note_on_c, 0, 70, 0
2, 128962, Control_c, 0, 64, 127
2, 128973, Note_on_c, 0, 57, 0
2, 128993, Note_on_c, 0, 56, 42
2, 129011, Note_on_c, 0, 61, 0
2, 129018, Note_on_c, 0, 51, 0
2, 129021, Note_on_c, 0, 54, 46
2, 129084, Note_on_c, 0, 56, 0
2, 129088, Control_c, 0, 64, 0
2, 129108, Note_on_c, 0, 54, 0
2, 129141, Note_on_c, 0, 58, 48
2, 129146, Note_on_c, 0, 61, 40
2, 129153, Note_on_c, 0, 55, 55
2, 129167, Note_on_c, 0, 67, 40
2, 129170, Note_on_c, 0, 64, 28
2, 129346, Note_on_c, 0, 67, 0
2, 129357, Note_on_c, 0, 64, 0
2, 129366, Control_c, 0, 64, 127
2, 129401, Note_on_c, 0, 58, 0
2, 129406, Note_on_c, 0, 61, 0
2, 129451, Note_on_c, 0, 55, 0
2, 129473, Control_c, 0, 64, 0
2, 129510, Note_on_c, 0, 58, 42
2, 129515, Note_on_c, 0, 52, 50
2, 129516, Note_on_c, 0, 61, 27
2, 129525, Note_on_c, 0, 55, 49
2, 129533, Note_on_c, 0, 64, 45
2, 129761, Control_c, 0, 64, 127
2, 129833, Note_on_c, 0, 55, 0
2, 129839, Note_on_c, 0, 58, 0
2, 129840, Note_on_c, 0, 61, 0
2, 129906, Control_c, 0, 64, 0
2, 129920, Note_on_c, 0, 64, 0
2, 129933, Note_on_c, 0, 61, 39
2, 129940, Note_on_c, 0, 58, 39
2, 129945, Note_on_c, 0, 49, 54
2, 129946, Note_on_c, 0, 55, 48
2, 129974, Note_on_c, 0, 52, 0
2, 130000, Note_on_c, 0, 55, 0
2, 130043, Note_on_c, 0, 58, 0
2, 130062, Note_on_c, 0, 61, 0
2, 130089, Control_c, 0, 64, 127
2, 130228, Note_on_c, 0, 49, 0
2, 130404, Note_on_c, 0, 63, 64
2, 130415, Control_c, 0, 64, 0
2, 130420, Note_on_c, 0, 60, 55
2, 130435, Note_on_c, 0, 58, 53
2, 130437, Note_on_c, 0, 48, 50
2, 130486, Note_on_c, 0, 60, 0
2, 130530, Note_on_c, 0, 63, 0
2, 130531, Note_on_c, 0, 48, 0
2, 130540, Note_on_c, 0, 58, 0
2, 130550, Control_c, 0, 64, 127
2, 130897, Note_on_c, 0, 62, 73
2, 130900, Note_on_c, 0, 74, 73
2, 130907, Note_on_c, 0, 67, 69
2, 130908, Note_on_c, 0, 63, 71
2, 130915, Note_on_c, 0, 70, 60
2, 130965, Control_c, 0, 64, 0
2, 131369, Control_c, 0, 64, 127
2, 131385, Note_on_c, 0, 70, 0
2, 131411, Note_on_c, 0, 67, 0
2, 131421, Note_on_c, 0, 63, 0
2, 131484, Control_c, 0, 64, 0
2, 131513, Note_on_c, 0, 74, 0
2, 131525, Note_on_c, 0, 63, 39
2, 131535, Note_on_c, 0, 70, 46
2, 131542, Note_on_c, 0, 58, 38
2, 131572, Note_on_c, 0, 62, 0
2, 131629, Note_on_c, 0, 63, 0
2, 131707, Note_on_c, 0, 70, 0
2, 131781, Note_on_c, 0, 58, 0
2, 131972, Note_on_c, 0, 63, 47
2, 131988, Note_on_c, 0, 60, 50
2, 131999, Note_on_c, 0, 72, 44
2, 132007, Note_on_c, 0, 67, 29
2, 132012, Note_on_c, 0, 70, 30
2, 132158, Control_c, 0, 64, 127
2, 132250, Note_on_c, 0, 67, 0
2, 132265, Note_on_c, 0, 70, 0
2, 132287, Note_on_c, 0, 63, 0
2, 132334, Note_on_c, 0, 72, 0
2, 132374, Note_on_c, 0, 58, 23
2, 132427, Control_c, 0, 64, 0
2, 132432, Note_on_c, 0, 60, 0
2, 132454, Note_on_c, 0, 58, 0
2, 132486, Note_on_c, 0, 62, 45
2, 132493, Note_on_c, 0, 74, 63
2, 132494, Note_on_c, 0, 63, 59
2, 132514, Note_on_c, 0, 67, 46
2, 132526, Note_on_c, 0, 70, 33
2, 132561, Note_on_c, 0, 70, 0
2, 132581, Control_c, 0, 64, 127
2, 132714, Note_on_c, 0, 67, 0
2, 132715, Note_on_c, 0, 74, 0
2, 132733, Note_on_c, 0, 63, 0
2, 132851, Note_on_c, 0, 70, 38
2, 132888, Note_on_c, 0, 62, 0
2, 132889, Note_on_c, 0, 70, 0
2, 132899, Control_c, 0, 64, 0
2, 132988, Note_on_c, 0, 72, 49
2, 133033, Control_c, 0, 64, 127
2, 133202, Note_on_c, 0, 72, 0
2, 133302, Note_on_c, 0, 74, 75
2, 133308, Note_on_c, 0, 63, 40
2, 133311, Note_on_c, 0, 67, 38
2, 133321, Note_on_c, 0, 57, 43
2, 133341, Control_c, 0, 64, 0
2, 133610, Control_c, 0, 64, 127
2, 133732, Note_on_c, 0, 74, 0
2, 133763, Note_on_c, 0, 70, 43
2, 133813, Control_c, 0, 64, 0
2, 133842, Note_on_c, 0, 70, 0
2, 133875, Note_on_c, 0, 67, 0
2, 133939, Note_on_c, 0, 72, 52
2, 133983, Note_on_c, 0, 63, 0
2, 134083, Control_c, 0, 64, 127
2, 134179, Note_on_c, 0, 72, 0
2, 134201, Note_on_c, 0, 57, 0
2, 134246, Control_c, 0, 64, 0
2, 134247, Note_on_c, 0, 65, 55
2, 134249, Note_on_c, 0, 62, 48
2, 134250, Note_on_c, 0, 74, 75
2, 134275, Note_on_c, 0, 60, 58
2, 134433, Note_on_c, 0, 65, 0
2, 134583, Control_c, 0, 64, 127
2, 134635, Note_on_c, 0, 74, 0
2, 134727, Note_on_c, 0, 70, 42
2, 134775, Note_on_c, 0, 53, 28
2, 134785, Control_c, 0, 64, 0
2, 134800, Note_on_c, 0, 70, 0
2, 134861, Note_on_c, 0, 62, 0
2, 134876, Note_on_c, 0, 60, 0
2, 134930, Note_on_c, 0, 72, 38
2, 134949, Control_c, 0, 64, 127
2, 135153, Note_on_c, 0, 72, 0
2, 135180, Control_c, 0, 64, 0
2, 135193, Note_on_c, 0, 74, 73
2, 135197, Note_on_c, 0, 65, 63
2, 135205, Note_on_c, 0, 62, 49
2, 135207, Note_on_c, 0, 60, 42
2, 135391, Control_c, 0, 64, 127
2, 135616, Note_on_c, 0, 74, 0
2, 135690, Note_on_c, 0, 75, 56
2, 135747, Control_c, 0, 64, 0
2, 135789, Note_on_c, 0, 75, 0
2, 135841, Note_on_c, 0, 53, 0
2, 135862, Control_c, 0, 64, 127
2, 135869, Note_on_c, 0, 62, 0
2, 135880, Note_on_c, 0, 77, 60
2, 135908, Note_on_c, 0, 60, 0
2, 135918, Note_on_c, 0, 65, 0
2, 136115, Note_on_c, 0, 77, 0
2, 136171, Control_c, 0, 64, 0
2, 136173, Note_on_c, 0, 63, 48
2, 136174, Note_on_c, 0, 67, 59
2, 136175, Note_on_c, 0, 79, 74
2, 136184, Note_on_c, 0, 56, 48
2, 136186, Note_on_c, 0, 60, 54
2, 136335, Control_c, 0, 64, 127
2, 136548, Note_on_c, 0, 79, 0
2, 136636, Note_on_c, 0, 80, 54
2, 136706, Note_on_c, 0, 80, 0
2, 136808, Note_on_c, 0, 82, 67
2, 136841, Note_on_c, 0, 67, 0
2, 136892, Note_on_c, 0, 56, 0
2, 136920, Note_on_c, 0, 63, 0
2, 137016, Note_on_c, 0, 60, 0
2, 137027, Note_on_c, 0, 82, 0
2, 137136, Note_on_c, 0, 62, 57
2, 137137, Note_on_c, 0, 83, 73
2, 137138, Note_on_c, 0, 66, 62
2, 137153, Control_c, 0, 64, 0
2, 137158, Note_on_c, 0, 56, 46
2, 137281, Note_on_c, 0, 83, 0
2, 137306, Control_c, 0, 64, 127
2, 137397, Note_on_c, 0, 86, 62
2, 137527, Note_on_c, 0, 86, 0
2, 137718, Note_on_c, 0, 87, 79
2, 137749, Control_c, 0, 64, 0
2, 137807, Note_on_c, 0, 87, 0
2, 137896, Note_on_c, 0, 66, 0
2, 137947, Note_on_c, 0, 89, 88
2, 138019, Control_c, 0, 64, 127
2, 138078, Note_on_c, 0, 62, 0
2, 138100, Note_on_c, 0, 89, 0
2, 138157, Note_on_c, 0, 56, 0
2, 138174, Note_on_c, 0, 86, 76
2, 138189, Note_on_c, 0, 65, 43
2, 138192, Note_on_c, 0, 62, 40
2, 138208, Note_on_c, 0, 60, 43
2, 138219, Note_on_c, 0, 55, 37
2, 138250, Control_c, 0, 64, 0
2, 138282, Note_on_c, 0, 86, 0
2, 138369, Note_on_c, 0, 65, 0
2, 138433, Note_on_c, 0, 82, 47
2, 138453, Note_on_c, 0, 62, 0
2, 138454, Note_on_c, 0, 60, 0
2, 138458, Note_on_c, 0, 55, 0
2, 138568, Control_c, 0, 64, 127
2, 138578, Note_on_c, 0, 82, 0
2, 138635, Control_c, 0, 64, 0
2, 138637, Note_on_c, 0, 79, 58
2, 138722, Note_on_c, 0, 79, 0
2, 138812, Note_on_c, 0, 74, 56
2, 139028, Note_on_c, 0, 74, 0
2, 139071, Note_on_c, 0, 77, 67
2, 139188, Note_on_c, 0, 77, 0
2, 139277, Note_on_c, 0, 75, 32
2, 139425, Note_on_c, 0, 75, 0
2, 139521, Note_on_c, 0, 74, 65
2, 139624, Note_on_c, 0, 74, 0
2, 139694, Note_on_c, 0, 70, 45
2, 139955, Note_on_c, 0, 70, 0
2, 139986, Note_on_c, 0, 67, 50
2, 140104, Note_on_c, 0, 67, 0
2, 140196, Note_on_c, 0, 63, 25
2, 140526, Note_on_c, 0, 63, 0
2, 140576, Note_on_c, 0, 48, 24
2, 140617, Note_on_c, 0, 48, 0
2, 140630, Note_on_c, 0, 51, 23
2, 140665, Note_on_c, 0, 51, 0
2, 140666, Note_on_c, 0, 62, 42
2, 140940, Note_on_c, 0, 62, 0
2, 141142, Note_on_c, 0, 60, 56
2, 141460, Note_on_c, 0, 60, 0
2, 141483, Note_on_c, 0, 53, 47
2, 141563, Note_on_c, 0, 53, 0
2, 143064, Note_on_c, 0, 64, 35
2, 143066, Note_on_c, 0, 57, 37
2, 143072, Note_on_c, 0, 60, 32
2, 143075, Note_on_c, 0, 53, 25
2, 143150, Note_on_c, 0, 60, 0
2, 143159, Note_on_c, 0, 64, 0
2, 143213, Note_on_c, 0, 57, 0
2, 143215, Note_on_c, 0, 53, 0
2, 143860, Note_on_c, 0, 64, 40
2, 143864, Note_on_c, 0, 59, 49
2, 143882, Note_on_c, 0, 53, 24
2, 143892, Note_on_c, 0, 57, 25
2, 143916, Note_on_c, 0, 64, 0
2, 143923, Note_on_c, 0, 59, 0
2, 143947, Note_on_c, 0, 57, 0
2, 143951, Note_on_c, 0, 53, 0
2, 144479, Note_on_c, 0, 91, 85
2, 144482, Note_on_c, 0, 79, 81
2, 144713, Note_on_c, 0, 91, 0
2, 144737, Note_on_c, 0, 79, 0
2, 144814, Note_on_c, 0, 91, 49
2, 144821, Note_on_c, 0, 79, 60
2, 144823, Note_on_c, 0, 64, 53
2, 144838, Note_on_c, 0, 59, 54
2, 144859, Note_on_c, 0, 53, 31
2, 144874, Note_on_c, 0, 64, 0
2, 144879, Note_on_c, 0, 59, 0
2, 144903, Note_on_c, 0, 53, 0
2, 144935, Note_on_c, 0, 79, 0
2, 144944, Note_on_c, 0, 91, 0
2, 146413, Note_on_c, 0, 62, 69
2, 146416, Note_on_c, 0, 86, 88
2, 146514, Note_on_c, 0, 86, 0
2, 146537, Note_on_c, 0, 62, 0
2, 146569, Note_on_c, 0, 89, 88
2, 146578, Note_on_c, 0, 65, 74
2, 146801, Note_on_c, 0, 89, 0
2, 146867, Note_on_c, 0, 65, 0
2, 146893, Note_on_c, 0, 63, 59
2, 146908, Note_on_c, 0, 87, 72
2, 147026, Note_on_c, 0, 63, 0
2, 147037, Note_on_c, 0, 87, 0
2, 147094, Note_on_c, 0, 83, 39
2, 147097, Note_on_c, 0, 59, 35
2, 147155, Note_on_c, 0, 83, 0
2, 147181, Note_on_c, 0, 59, 0
2, 147242, Note_on_c, 0, 86, 80
2, 147250, Note_on_c, 0, 62, 60
2, 147492, Note_on_c, 0, 62, 0
2, 147502, Note_on_c, 0, 86, 0
2, 147603, Note_on_c, 0, 84, 72
2, 147616, Note_on_c, 0, 60, 62
2, 147755, Note_on_c, 0, 60, 0
2, 147791, Note_on_c, 0, 84, 0
2, 147912, Note_on_c, 0, 57, 34
2, 147923, Note_on_c, 0, 81, 62
2, 148089, Note_on_c, 0, 57, 0
2, 148135, Note_on_c, 0, 81, 0
2, 148796, Note_on_c, 0, 56, 61
2, 148799, Note_on_c, 0, 80, 77
2, 148902, Note_on_c, 0, 56, 0
2, 148903, Note_on_c, 0, 80, 0
2, 148927, Note_on_c, 0, 57, 51
2, 148936, Note_on_c, 0, 81, 63
2, 149014, Note_on_c, 0, 57, 0
2, 149025, Note_on_c, 0, 56, 55
2, 149055, Note_on_c, 0, 81, 0
2, 149064, Note_on_c, 0, 80, 39
2, 149143, Note_on_c, 0, 56, 0
2, 149170, Note_on_c, 0, 54, 40
2, 149203, Note_on_c, 0, 80, 0
2, 149207, Note_on_c, 0, 78, 42
2, 149258, Note_on_c, 0, 54, 0
2, 149325, Note_on_c, 0, 78, 0
2, 149327, Note_on_c, 0, 53, 36
2, 149341, Note_on_c, 0, 77, 41
2, 149394, Note_on_c, 0, 53, 0
2, 149409, Note_on_c, 0, 77, 0
2, 149471, Note_on_c, 0, 51, 36
2, 149555, Note_on_c, 0, 74, 28
2, 149602, Note_on_c, 0, 51, 0
2, 149675, Note_on_c, 0, 74, 0
2, 149728, Note_on_c, 0, 73, 49
2, 149759, Note_on_c, 0, 73, 0
2, 149811, Note_on_c, 0, 51, 48
2, 149827, Note_on_c, 0, 75, 70
2, 149944, Note_on_c, 0, 51, 0
2, 149957, Note_on_c, 0, 75, 0
2, 150000, Note_on_c, 0, 49, 25
2, 150004, Note_on_c, 0, 73, 29
2, 150036, Note_on_c, 0, 73, 0
2, 150051, Note_on_c, 0, 49, 0
2, 150085, Note_on_c, 0, 74, 66
2, 150090, Note_on_c, 0, 50, 61
2, 150213, Note_on_c, 0, 74, 0
2, 150246, Note_on_c, 0, 50, 0
2, 150326, Note_on_c, 0, 69, 56
2, 150373, Note_on_c, 0, 45, 39
2, 150420, Note_on_c, 0, 69, 0
2, 150486, Note_on_c, 0, 45, 0
2, 151700, Note_on_c, 0, 58, 71
2, 151802, Note_on_c, 0, 58, 0
2, 151846, Note_on_c, 0, 55, 39
2, 151894, Note_on_c, 0, 55, 0
2, 151895, Note_on_c, 0, 43, 24
2, 151986, Note_on_c, 0, 56, 23
2, 151992, Note_on_c, 0, 43, 0
2, 151997, Note_on_c, 0, 44, 39
2, 152058, Note_on_c, 0, 56, 0
2, 152079, Note_on_c, 0, 58, 36
2, 152080, Note_on_c, 0, 44, 0
2, 152131, Note_on_c, 0, 46, 33
2, 152166, Note_on_c, 0, 58, 0
2, 152179, Note_on_c, 0, 46, 0
2, 152204, Note_on_c, 0, 60, 64
2, 152218, Note_on_c, 0, 48, 48
2, 152271, Note_on_c, 0, 60, 0
2, 152346, Note_on_c, 0, 48, 0
2, 152400, Note_on_c, 0, 44, 33
2, 152461, Note_on_c, 0, 58, 33
2, 152529, Note_on_c, 0, 46, 32
2, 152584, Note_on_c, 0, 58, 0
2, 152586, Note_on_c, 0, 60, 32
2, 152606, Note_on_c, 0, 44, 0
2, 152649, Note_on_c, 0, 46, 0
2, 152667, Note_on_c, 0, 60, 0
2, 152674, Note_on_c, 0, 50, 38
2, 152683, Note_on_c, 0, 62, 59
2, 152759, Note_on_c, 0, 62, 0
2, 152802, Note_on_c, 0, 50, 0
2, 153078, Note_on_c, 0, 63, 37
2, 153172, Note_on_c, 0, 63, 0
2, 153198, Note_on_c, 0, 65, 56
2, 153297, Note_on_c, 0, 65, 0
2, 153444, Note_on_c, 0, 63, 38
2, 153581, Note_on_c, 0, 63, 0
2, 153603, Note_on_c, 0, 65, 51
2, 153696, Note_on_c, 0, 65, 0
2, 153698, Note_on_c, 0, 67, 45
2, 153741, Note_on_c, 0, 67, 0
2, 153823, Note_on_c, 0, 63, 37
2, 153898, Note_on_c, 0, 63, 0
2, 153966, Control_c, 0, 64, 127
2, 154063, Control_c, 0, 64, 0
2, 154064, Note_on_c, 0, 67, 26
2, 154116, Note_on_c, 0, 67, 0
2, 154118, Note_on_c, 0, 51, 34
2, 154122, Note_on_c, 0, 58, 35
2, 154146, Note_on_c, 0, 55, 34
2, 154147, Note_on_c, 0, 68, 56
2, 154156, Note_on_c, 0, 51, 0
2, 154186, Note_on_c, 0, 55, 0
2, 154229, Note_on_c, 0, 58, 0
2, 154239, Note_on_c, 0, 68, 0
2, 154322, Control_c, 0, 64, 127
2, 154463, Note_on_c, 0, 68, 55
2, 154587, Note_on_c, 0, 68, 0
2, 154592, Note_on_c, 0, 70, 64
2, 154606, Note_on_c, 0, 65, 40
2, 154611, Control_c, 0, 64, 0
2, 154622, Note_on_c, 0, 62, 36
2, 154643, Note_on_c, 0, 65, 0
2, 154658, Note_on_c, 0, 62, 0
2, 154704, Note_on_c, 0, 70, 0
2, 154822, Control_c, 0, 64, 127
2, 154886, Note_on_c, 0, 68, 23
2, 154956, Note_on_c, 0, 68, 0
2, 154969, Note_on_c, 0, 70, 60
2, 155025, Control_c, 0, 64, 0
2, 155038, Note_on_c, 0, 70, 0
2, 155057, Note_on_c, 0, 51, 33
2, 155065, Note_on_c, 0, 58, 25
2, 155086, Note_on_c, 0, 55, 24
2, 155096, Note_on_c, 0, 71, 50
2, 155110, Note_on_c, 0, 51, 0
2, 155121, Note_on_c, 0, 55, 0
2, 155138, Note_on_c, 0, 71, 0
2, 155163, Note_on_c, 0, 58, 0
2, 155266, Control_c, 0, 64, 127
2, 155299, Note_on_c, 0, 74, 49
2, 155390, Note_on_c, 0, 74, 0
2, 155437, Note_on_c, 0, 75, 52
2, 155470, Note_on_c, 0, 75, 0
2, 155484, Note_on_c, 0, 67, 52
2, 155506, Control_c, 0, 64, 0
2, 155509, Note_on_c, 0, 62, 26
2, 155522, Note_on_c, 0, 63, 23
2, 155529, Note_on_c, 0, 57, 24
2, 155558, Note_on_c, 0, 67, 0
2, 155561, Note_on_c, 0, 79, 46
2, 155576, Note_on_c, 0, 63, 0
2, 155582, Note_on_c, 0, 57, 0
2, 155593, Note_on_c, 0, 62, 0
2, 155599, Note_on_c, 0, 79, 0
2, 155690, Note_on_c, 0, 83, 66
2, 155726, Note_on_c, 0, 83, 0
2, 155779, Note_on_c, 0, 86, 92
2, 155918, Note_on_c, 0, 86, 0
2, 155931, Note_on_c, 0, 83, 57
2, 155964, Note_on_c, 0, 83, 0
2, 156023, Note_on_c, 0, 84, 75
2, 156147, Note_on_c, 0, 84, 0
2, 156166, Note_on_c, 0, 79, 54
2, 156206, Note_on_c, 0, 79, 0
2, 156492, Note_on_c, 0, 62, 39
2, 156493, Note_on_c, 0, 67, 40
2, 156507, Note_on_c, 0, 63, 28
2, 156528, Note_on_c, 0, 57, 25
2, 156542, Note_on_c, 0, 67, 0
2, 156550, Note_on_c, 0, 63, 0
2, 156580, Note_on_c, 0, 57, 0
2, 156588, Note_on_c, 0, 62, 0
2, 156978, Note_on_c, 0, 67, 26
2, 156979, Note_on_c, 0, 57, 30
2, 156980, Note_on_c, 0, 63, 30
2, 156988, Note_on_c, 0, 62, 24
2, 157007, Control_c, 0, 64, 127
2, 157041, Note_on_c, 0, 62, 0
2, 157071, Note_on_c, 0, 67, 0
2, 157086, Note_on_c, 0, 63, 0
2, 157101, Note_on_c, 0, 57, 0
2, 157412, Control_c, 0, 64, 0
2, 157771, Note_on_c, 0, 60, 63
2, 157791, Note_on_c, 0, 57, 40
2, 157796, Note_on_c, 0, 50, 28
2, 157798, Note_on_c, 0, 53, 42
2, 157836, Note_on_c, 0, 57, 0
2, 157846, Note_on_c, 0, 50, 0
2, 157848, Note_on_c, 0, 53, 0
2, 157855, Note_on_c, 0, 60, 0
2, 158391, Note_on_c, 0, 64, 43
2, 158393, Note_on_c, 0, 60, 43
2, 158401, Note_on_c, 0, 57, 38
2, 158418, Note_on_c, 0, 53, 30
2, 158432, Control_c, 0, 64, 127
2, 158840, Note_on_c, 0, 64, 0
2, 158855, Control_c, 0, 64, 0
2, 158901, Note_on_c, 0, 53, 0
2, 158911, Note_on_c, 0, 60, 0
2, 158914, Note_on_c, 0, 93, 94
2, 159004, Note_on_c, 0, 57, 0
2, 159052, Note_on_c, 0, 89, 57
2, 159102, Note_on_c, 0, 93, 0
2, 159116, Control_c, 0, 64, 127
2, 159179, Note_on_c, 0, 89, 0
2, 159322, Note_on_c, 0, 79, 26
2, 159356, Control_c, 0, 64, 0
2, 159359, Note_on_c, 0, 79, 0
2, 159413, Note_on_c, 0, 64, 61
2, 159424, Note_on_c, 0, 59, 58
2, 159425, Note_on_c, 0, 91, 81
2, 159435, Note_on_c, 0, 53, 49
2, 159807, Note_on_c, 0, 91, 0
2, 159823, Note_on_c, 0, 59, 0
2, 159891, Note_on_c, 0, 64, 0
2, 159895, Control_c, 0, 64, 127
2, 159904, Control_c, 0, 64, 0
2, 159912, Note_on_c, 0, 88, 67
2, 159991, Control_c, 0, 64, 127
2, 159992, Note_on_c, 0, 53, 0
2, 160025, Note_on_c, 0, 88, 0
2, 160044, Note_on_c, 0, 84, 67
2, 160143, Note_on_c, 0, 84, 0
2, 160211, Note_on_c, 0, 79, 35
2, 160257, Note_on_c, 0, 79, 0
2, 160262, Note_on_c, 0, 64, 28
2, 160308, Note_on_c, 0, 57, 27
2, 160309, Note_on_c, 0, 64, 0
2, 160319, Control_c, 0, 64, 0
2, 160355, Note_on_c, 0, 88, 74
2, 160438, Note_on_c, 0, 57, 0
2, 160472, Note_on_c, 0, 84, 35
2, 160479, Note_on_c, 0, 88, 0
2, 160558, Note_on_c, 0, 81, 36
2, 160569, Note_on_c, 0, 84, 0
2, 160678, Note_on_c, 0, 81, 0
2, 160715, Note_on_c, 0, 77, 47
2, 160754, Note_on_c, 0, 77, 0
2, 160762, Note_on_c, 0, 64, 36
2, 160774, Note_on_c, 0, 59, 43
2, 160819, Note_on_c, 0, 64, 0
2, 160828, Note_on_c, 0, 86, 73
2, 160829, Note_on_c, 0, 59, 0
2, 160976, Note_on_c, 0, 83, 39
2, 160993, Note_on_c, 0, 86, 0
2, 161068, Note_on_c, 0, 80, 34
2, 161078, Note_on_c, 0, 83, 0
2, 161108, Control_c, 0, 64, 127
2, 161203, Note_on_c, 0, 77, 46
2, 161239, Note_on_c, 0, 80, 0
2, 161251, Note_on_c, 0, 77, 0
2, 161271, Control_c, 0, 64, 0
2, 161281, Note_on_c, 0, 63, 29
2, 161290, Note_on_c, 0, 58, 31
2, 161292, Note_on_c, 0, 67, 26
2, 161295, Note_on_c, 0, 62, 26
2, 161318, Note_on_c, 0, 86, 75
2, 161457, Note_on_c, 0, 86, 0
2, 161470, Note_on_c, 0, 82, 38
2, 161522, Note_on_c, 0, 63, 0
2, 161527, Note_on_c, 0, 62, 0
2, 161596, Note_on_c, 0, 79, 19
2, 161648, Note_on_c, 0, 62, 14
2, 161673, Note_on_c, 0, 63, 14
2, 161679, Note_on_c, 0, 82, 0
2, 161684, Note_on_c, 0, 79, 0
2, 161709, Note_on_c, 0, 75, 30
2, 161726, Note_on_c, 0, 67, 0
2, 161741, Note_on_c, 0, 75, 0
2, 161799, Note_on_c, 0, 84, 77
2, 161867, Note_on_c, 0, 62, 0
2, 161892, Note_on_c, 0, 63, 0
2, 161984, Note_on_c, 0, 84, 0
2, 162069, Control_c, 0, 64, 127
2, 162190, Note_on_c, 0, 74, 43
2, 162226, Note_on_c, 0, 63, 21
2, 162231, Note_on_c, 0, 62, 22
2, 162234, Control_c, 0, 64, 0
2, 162240, Note_on_c, 0, 74, 0
2, 162271, Note_on_c, 0, 82, 64
2, 162347, Note_on_c, 0, 58, 0
2, 162365, Note_on_c, 0, 79, 36
2, 162379, Note_on_c, 0, 63, 0
2, 162428, Note_on_c, 0, 82, 0
2, 162439, Note_on_c, 0, 62, 0
2, 162485, Note_on_c, 0, 79, 0
2, 162494, Note_on_c, 0, 75, 42
2, 162561, Control_c, 0, 64, 127
2, 162653, Note_on_c, 0, 75, 0
2, 162655, Note_on_c, 0, 72, 26
2, 162657, Control_c, 0, 64, 0
2, 162694, Note_on_c, 0, 72, 0
2, 162694, Note_on_c, 0, 63, 29
2, 162764, Note_on_c, 0, 81, 63
2, 162805, Note_on_c, 0, 63, 0
2, 162870, Note_on_c, 0, 77, 46
2, 162896, Note_on_c, 0, 81, 0
2, 162936, Control_c, 0, 64, 127
2, 163017, Note_on_c, 0, 75, 19
2, 163041, Note_on_c, 0, 77, 0
2, 163091, Note_on_c, 0, 75, 0
2, 163094, Note_on_c, 0, 72, 46
2, 163139, Note_on_c, 0, 72, 0
2, 163150, Note_on_c, 0, 67, 28
2, 163163, Note_on_c, 0, 63, 26
2, 163187, Note_on_c, 0, 67, 0
2, 163194, Note_on_c, 0, 57, 18
2, 163197, Control_c, 0, 64, 0
2, 163211, Note_on_c, 0, 79, 54
2, 163244, Note_on_c, 0, 57, 0
2, 163254, Note_on_c, 0, 63, 0
2, 163299, Note_on_c, 0, 75, 46
2, 163383, Note_on_c, 0, 79, 0
2, 163517, Note_on_c, 0, 75, 0
2, 163567, Note_on_c, 0, 69, 45
2, 163608, Note_on_c, 0, 69, 0
2, 163694, Note_on_c, 0, 77, 60
2, 163735, Note_on_c, 0, 77, 0
2, 163978, Note_on_c, 0, 67, 68
2, 163979, Note_on_c, 0, 63, 61
2, 163984, Note_on_c, 0, 57, 60
2, 164197, Control_c, 0, 64, 127
2, 164356, Note_on_c, 0, 63, 0
2, 164451, Note_on_c, 0, 63, 31
2, 164563, Control_c, 0, 64, 0
2, 164579, Note_on_c, 0, 67, 0
2, 164639, Note_on_c, 0, 69, 66
2, 164658, Note_on_c, 0, 63, 0
2, 164671, Note_on_c, 0, 69, 0
2, 164703, Note_on_c, 0, 57, 0
2, 164716, Control_c, 0, 64, 127
2, 164756, Note_on_c, 0, 70, 59
2, 164853, Note_on_c, 0, 70, 0
2, 164905, Note_on_c, 0, 74, 45
2, 165019, Note_on_c, 0, 77, 43
2, 165043, Note_on_c, 0, 74, 0
2, 165056, Note_on_c, 0, 77, 0
2, 165082, Control_c, 0, 64, 0
2, 165124, Note_on_c, 0, 73, 57
2, 165129, Note_on_c, 0, 65, 41
2, 165132, Note_on_c, 0, 62, 32
2, 165142, Note_on_c, 0, 60, 32
2, 165143, Note_on_c, 0, 55, 43
2, 165232, Note_on_c, 0, 74, 55
2, 165265, Control_c, 0, 64, 127
2, 165294, Note_on_c, 0, 73, 0
2, 165302, Note_on_c, 0, 55, 0
2, 165311, Note_on_c, 0, 60, 0
2, 165347, Note_on_c, 0, 65, 0
2, 165348, Note_on_c, 0, 62, 0
2, 165380, Note_on_c, 0, 77, 33
2, 165388, Note_on_c, 0, 74, 0
2, 165507, Note_on_c, 0, 77, 0
2, 165642, Note_on_c, 0, 66, 60
2, 165645, Note_on_c, 0, 62, 45
2, 165650, Control_c, 0, 64, 0
2, 165653, Note_on_c, 0, 56, 50
2, 165662, Note_on_c, 0, 76, 49
2, 165787, Note_on_c, 0, 76, 0
2, 165794, Control_c, 0, 64, 127
2, 165798, Note_on_c, 0, 77, 38
2, 165890, Note_on_c, 0, 62, 0
2, 165943, Note_on_c, 0, 81, 44
2, 165948, Note_on_c, 0, 77, 0
2, 165984, Note_on_c, 0, 56, 0
2, 166011, Note_on_c, 0, 66, 0
2, 166037, Note_on_c, 0, 84, 57
2, 166072, Note_on_c, 0, 81, 0
2, 166096, Note_on_c, 0, 84, 0
2, 166141, Control_c, 0, 64, 0
2, 166145, Note_on_c, 0, 57, 50
2, 166153, Note_on_c, 0, 67, 36
2, 166162, Note_on_c, 0, 63, 40
2, 166224, Note_on_c, 0, 81, 38
2, 166286, Control_c, 0, 64, 127
2, 166294, Note_on_c, 0, 81, 0
2, 166303, Note_on_c, 0, 82, 58
2, 166353, Note_on_c, 0, 57, 0
2, 166422, Note_on_c, 0, 86, 55
2, 166435, Note_on_c, 0, 63, 0
2, 166437, Note_on_c, 0, 67, 0
2, 166453, Note_on_c, 0, 82, 0
2, 166529, Note_on_c, 0, 89, 64
2, 166542, Note_on_c, 0, 86, 0
2, 166602, Note_on_c, 0, 89, 0
2, 166631, Control_c, 0, 64, 0
2, 166643, Note_on_c, 0, 68, 51
2, 166647, Note_on_c, 0, 64, 50
2, 166654, Note_on_c, 0, 58, 50
2, 166681, Note_on_c, 0, 85, 61
2, 166796, Control_c, 0, 64, 127
2, 166798, Note_on_c, 0, 85, 0
2, 166803, Note_on_c, 0, 86, 54
2, 166822, Note_on_c, 0, 64, 0
2, 166890, Note_on_c, 0, 68, 0
2, 166905, Note_on_c, 0, 89, 31
2, 166967, Note_on_c, 0, 86, 0
2, 166983, Note_on_c, 0, 58, 0
2, 167002, Note_on_c, 0, 89, 0
2, 167006, Note_on_c, 0, 93, 62
2, 167042, Note_on_c, 0, 93, 0
2, 167114, Note_on_c, 0, 65, 46
2, 167123, Control_c, 0, 64, 0
2, 167124, Note_on_c, 0, 62, 41
2, 167134, Note_on_c, 0, 60, 34
2, 167165, Note_on_c, 0, 65, 0
2, 167172, Note_on_c, 0, 60, 0
2, 167176, Note_on_c, 0, 62, 0
2, 167585, Control_c, 0, 64, 127
2, 167835, Note_on_c, 0, 62, 62
2, 167838, Note_on_c, 0, 65, 70
2, 167848, Note_on_c, 0, 60, 57
2, 167879, Note_on_c, 0, 60, 0
2, 167882, Note_on_c, 0, 65, 0
2, 167926, Note_on_c, 0, 62, 0
2, 167931, Control_c, 0, 64, 0
2, 168152, Control_c, 0, 64, 127
2, 168183, Note_on_c, 0, 89, 60
2, 168207, Note_on_c, 0, 62, 31
2, 168227, Note_on_c, 0, 89, 0
2, 168258, Note_on_c, 0, 62, 0
2, 168297, Note_on_c, 0, 90, 62
2, 168325, Note_on_c, 0, 62, 24
2, 168364, Control_c, 0, 64, 0
2, 168419, Note_on_c, 0, 65, 24
2, 168428, Note_on_c, 0, 60, 6
2, 168434, Note_on_c, 0, 55, 22
2, 168462, Note_on_c, 0, 94, 51
2, 168474, Note_on_c, 0, 65, 0
2, 168479, Control_c, 0, 64, 127
2, 168496, Note_on_c, 0, 90, 0
2, 168500, Note_on_c, 0, 94, 0
2, 168503, Note_on_c, 0, 55, 0
2, 168504, Note_on_c, 0, 60, 0
2, 168511, Note_on_c, 0, 62, 0
2, 168592, Note_on_c, 0, 62, 32
2, 168598, Note_on_c, 0, 60, 31
2, 168619, Note_on_c, 0, 95, 36
2, 168640, Note_on_c, 0, 60, 0
2, 168642, Note_on_c, 0, 62, 0
2, 168668, Note_on_c, 0, 95, 0
2, 168746, Note_on_c, 0, 62, 51
2, 168747, Note_on_c, 0, 65, 49
2, 168752, Note_on_c, 0, 55, 50
2, 168754, Note_on_c, 0, 60, 48
2, 168767, Note_on_c, 0, 98, 65
2, 168768, Note_on_c, 0, 96, 61
2, 168785, Note_on_c, 0, 65, 0
2, 168790, Note_on_c, 0, 60, 0
2, 168801, Note_on_c, 0, 62, 0
2, 168838, Note_on_c, 0, 98, 0
2, 168850, Note_on_c, 0, 55, 0
2, 168852, Note_on_c, 0, 96, 0
2, 168896, Control_c, 0, 64, 0
2, 168913, Note_on_c, 0, 98, 78
2, 168919, Note_on_c, 0, 64, 77
2, 168920, Note_on_c, 0, 86, 76
2, 168925, Note_on_c, 0, 57, 66
2, 168926, Note_on_c, 0, 95, 68
2, 168930, Note_on_c, 0, 91, 69
2, 168931, Note_on_c, 0, 55, 74
2, 168946, Note_on_c, 0, 60, 72
2, 168947, Note_on_c, 0, 96, 29
2, 168982, Note_on_c, 0, 96, 0
2, 169059, Control_c, 0, 64, 127
2, 169233, Control_c, 0, 64, 0
2, 169329, Control_c, 0, 64, 127
2, 169566, Note_on_c, 0, 64, 0
2, 169577, Note_on_c, 0, 98, 0
2, 169595, Note_on_c, 0, 95, 0
2, 169605, Note_on_c, 0, 86, 0
2, 169617, Note_on_c, 0, 91, 0
2, 169661, Note_on_c, 0, 57, 0
2, 169691, Note_on_c, 0, 60, 0
2, 169704, Note_on_c, 0, 55, 0
2, 169895, Note_on_c, 0, 60, 52
2, 169896, Note_on_c, 0, 55, 44
2, 169902, Note_on_c, 0, 64, 42
2, 169906, Control_c, 0, 64, 0
2, 169912, Note_on_c, 0, 95, 47
2, 169914, Note_on_c, 0, 83, 47
2, 169918, Note_on_c, 0, 57, 30
2, 169936, Note_on_c, 0, 60, 0
2, 169940, Note_on_c, 0, 64, 0
2, 169943, Note_on_c, 0, 55, 0
2, 169951, Note_on_c, 0, 91, 22
2, 169952, Note_on_c, 0, 83, 0
2, 169958, Note_on_c, 0, 95, 0
2, 169963, Note_on_c, 0, 57, 0
2, 169983, Note_on_c, 0, 91, 0
2, 170030, Note_on_c, 0, 83, 45
2, 170036, Note_on_c, 0, 95, 36
2, 170040, Note_on_c, 0, 64, 38
2, 170049, Note_on_c, 0, 60, 55
2, 170056, Note_on_c, 0, 57, 30
2, 170063, Note_on_c, 0, 55, 38
2, 170066, Note_on_c, 0, 88, 36
2, 170070, Note_on_c, 0, 83, 0
2, 170073, Note_on_c, 0, 91, 39
2, 170080, Control_c, 0, 64, 127
2, 170084, Note_on_c, 0, 60, 0
2, 170086, Note_on_c, 0, 64, 0
2, 170101, Note_on_c, 0, 55, 0
2, 170102, Note_on_c, 0, 57, 0
2, 170106, Note_on_c, 0, 88, 0
2, 170112, Note_on_c, 0, 91, 0
2, 170133, Note_on_c, 0, 95, 0
2, 170185, Control_c, 0, 64, 0
2, 170278, Note_on_c, 0, 100, 78
2, 170283, Note_on_c, 0, 64, 73
2, 170288, Note_on_c, 0, 60, 65
2, 170289, Note_on_c, 0, 55, 67
2, 170295, Note_on_c, 0, 88, 60
2, 170299, Note_on_c, 0, 57, 50
2, 170330, Note_on_c, 0, 88, 0
2, 170336, Note_on_c, 0, 57, 0
2, 170361, Note_on_c, 0, 60, 0
2, 170365, Note_on_c, 0, 64, 0
2, 170368, Note_on_c, 0, 55, 0
2, 170370, Note_on_c, 0, 100, 0
2, 170443, Note_on_c, 0, 100, 57
2, 170457, Note_on_c, 0, 64, 31
2, 170463, Note_on_c, 0, 88, 53
2, 170469, Note_on_c, 0, 55, 31
2, 170477, Note_on_c, 0, 60, 27
2, 170486, Note_on_c, 0, 95, 29
2, 170495, Note_on_c, 0, 57, 30
2, 170506, Note_on_c, 0, 88, 0
2, 170513, Control_c, 0, 64, 127
2, 170518, Note_on_c, 0, 64, 0
2, 170520, Note_on_c, 0, 95, 0
2, 170529, Note_on_c, 0, 60, 0
2, 170531, Note_on_c, 0, 100, 0
2, 170540, Note_on_c, 0, 57, 0
2, 170546, Note_on_c, 0, 55, 0
2, 170599, Control_c, 0, 64, 0
2, 170651, Note_on_c, 0, 55, 42
2, 170654, Note_on_c, 0, 96, 64
2, 170658, Note_on_c, 0, 60, 48
2, 170660, Note_on_c, 0, 64, 51
2, 170661, Note_on_c, 0, 84, 65
2, 170670, Note_on_c, 0, 57, 39
2, 170689, Note_on_c, 0, 91, 27
2, 170698, Note_on_c, 0, 84, 0
2, 170714, Note_on_c, 0, 96, 0
2, 170715, Note_on_c, 0, 64, 0
2, 170720, Note_on_c, 0, 57, 0
2, 170724, Note_on_c, 0, 91, 0
2, 170734, Note_on_c, 0, 60, 0
2, 170812, Note_on_c, 0, 92, 35
2, 170814, Note_on_c, 0, 84, 25
2, 170815, Note_on_c, 0, 91, 34
2, 170827, Note_on_c, 0, 96, 24
2, 170832, Note_on_c, 0, 55, 0
2, 170845, Note_on_c, 0, 92, 0
2, 170846, Note_on_c, 0, 84, 0
2, 170854, Note_on_c, 0, 91, 0
2, 170865, Note_on_c, 0, 96, 0
2, 170958, Note_on_c, 0, 64, 44
2, 170960, Note_on_c, 0, 60, 64
2, 170973, Note_on_c, 0, 54, 69
2, 170975, Note_on_c, 0, 99, 77
2, 170983, Note_on_c, 0, 87, 72
2, 171039, Note_on_c, 0, 87, 0
2, 171075, Note_on_c, 0, 99, 0
2, 171083, Note_on_c, 0, 64, 0
2, 171110, Control_c, 0, 64, 127
2, 171138, Note_on_c, 0, 87, 53
2, 171142, Note_on_c, 0, 99, 49
2, 171162, Note_on_c, 0, 64, 36
2, 171214, Note_on_c, 0, 87, 0
2, 171215, Note_on_c, 0, 99, 0
2, 171228, Note_on_c, 0, 64, 0
2, 171270, Note_on_c, 0, 60, 0
2, 171276, Note_on_c, 0, 54, 0
2, 171292, Control_c, 0, 64, 0
2, 171356, Note_on_c, 0, 64, 34
2, 171357, Note_on_c, 0, 54, 33
2, 171359, Note_on_c, 0, 80, 50
2, 171365, Note_on_c, 0, 60, 41
2, 171367, Note_on_c, 0, 92, 36
2, 171401, Note_on_c, 0, 80, 0
2, 171407, Note_on_c, 0, 60, 0
2, 171421, Note_on_c, 0, 64, 0
2, 171424, Note_on_c, 0, 92, 0
2, 171458, Note_on_c, 0, 54, 0
2, 171529, Note_on_c, 0, 80, 46
2, 171533, Note_on_c, 0, 92, 52
2, 171552, Control_c, 0, 64, 127
2, 171563, Note_on_c, 0, 80, 0
2, 171605, Note_on_c, 0, 92, 0
2, 171658, Control_c, 0, 64, 0
2, 171698, Note_on_c, 0, 54, 56
2, 171717, Note_on_c, 0, 64, 48
2, 171720, Note_on_c, 0, 60, 58
2, 171734, Note_on_c, 0, 98, 55
2, 171743, Note_on_c, 0, 96, 40
2, 171765, Note_on_c, 0, 98, 0
2, 171780, Note_on_c, 0, 96, 0
2, 171832, Control_c, 0, 64, 127
2, 171866, Note_on_c, 0, 86, 55
2, 171891, Note_on_c, 0, 98, 25
2, 171899, Note_on_c, 0, 96, 29
2, 171929, Note_on_c, 0, 98, 0
2, 171934, Note_on_c, 0, 86, 0
2, 171936, Note_on_c, 0, 96, 0
2, 171952, Note_on_c, 0, 64, 0
2, 171975, Note_on_c, 0, 60, 0
2, 171997, Note_on_c, 0, 54, 0
2, 172057, Note_on_c, 0, 54, 52
2, 172062, Control_c, 0, 64, 0
2, 172070, Note_on_c, 0, 64, 37
2, 172072, Note_on_c, 0, 90, 54
2, 172078, Note_on_c, 0, 78, 65
2, 172085, Note_on_c, 0, 60, 57
2, 172148, Note_on_c, 0, 78, 0
2, 172159, Note_on_c, 0, 90, 0
2, 172165, Note_on_c, 0, 64, 0
2, 172223, Note_on_c, 0, 78, 52
2, 172226, Control_c, 0, 64, 127
2, 172228, Note_on_c, 0, 90, 53
2, 172244, Note_on_c, 0, 64, 49
2, 172321, Note_on_c, 0, 78, 0
2, 172340, Note_on_c, 0, 90, 0
2, 172341, Note_on_c, 0, 64, 0
2, 172348, Note_on_c, 0, 60, 0
2, 172390, Note_on_c, 0, 54, 0
2, 172439, Note_on_c, 0, 54, 53
2, 172444, Note_on_c, 0, 62, 68
2, 172450, Note_on_c, 0, 93, 70
2, 172451, Note_on_c, 0, 95, 76
2, 172459, Note_on_c, 0, 59, 66
2, 172463, Note_on_c, 0, 81, 59
2, 172464, Note_on_c, 0, 83, 57
2, 172468, Control_c, 0, 64, 0
2, 172473, Note_on_c, 0, 92, 29
2, 172496, Note_on_c, 0, 83, 0
2, 172498, Note_on_c, 0, 81, 0
2, 172510, Note_on_c, 0, 92, 0
2, 172531, Note_on_c, 0, 95, 0
2, 172542, Note_on_c, 0, 93, 0
2, 172611, Control_c, 0, 64, 127
2, 172651, Note_on_c, 0, 81, 40
2, 172657, Note_on_c, 0, 92, 32
2, 172660, Note_on_c, 0, 83, 33
2, 172689, Note_on_c, 0, 81, 0
2, 172697, Note_on_c, 0, 92, 0
2, 172699, Note_on_c, 0, 62, 0
2, 172701, Note_on_c, 0, 83, 0
2, 172707, Note_on_c, 0, 59, 0
2, 172720, Note_on_c, 0, 54, 0
2, 172755, Control_c, 0, 64, 0
2, 172804, Note_on_c, 0, 90, 55
2, 172805, Note_on_c, 0, 59, 37
2, 172806, Note_on_c, 0, 54, 48
2, 172810, Note_on_c, 0, 62, 26
2, 172814, Note_on_c, 0, 78, 44
2, 172886, Note_on_c, 0, 90, 0
2, 172898, Note_on_c, 0, 78, 0
2, 172913, Note_on_c, 0, 62, 0
2, 172928, Control_c, 0, 64, 127
2, 172970, Note_on_c, 0, 90, 39
2, 172973, Note_on_c, 0, 78, 39
2, 173012, Note_on_c, 0, 62, 32
2, 173016, Note_on_c, 0, 90, 0
2, 173045, Note_on_c, 0, 78, 0
2, 173056, Note_on_c, 0, 54, 0
2, 173060, Note_on_c, 0, 62, 0
2, 173097, Note_on_c, 0, 59, 0
2, 173146, Note_on_c, 0, 54, 33
2, 173151, Note_on_c, 0, 59, 26
2, 173152, Note_on_c, 0, 74, 35
2, 173153, Note_on_c, 0, 76, 41
2, 173154, Note_on_c, 0, 62, 39
2, 173161, Control_c, 0, 64, 0
2, 173163, Note_on_c, 0, 88, 33
2, 173167, Note_on_c, 0, 86, 30
2, 173188, Note_on_c, 0, 74, 0
2, 173215, Note_on_c, 0, 86, 0
2, 173239, Control_c, 0, 64, 127
2, 173305, Note_on_c, 0, 88, 0
2, 173343, Note_on_c, 0, 76, 0
2, 173344, Note_on_c, 0, 62, 0
2, 173360, Note_on_c, 0, 54, 0
2, 173366, Note_on_c, 0, 59, 0
2, 173405, Note_on_c, 0, 86, 66
2, 173414, Note_on_c, 0, 59, 33
2, 173415, Note_on_c, 0, 54, 36
2, 173417, Note_on_c, 0, 62, 56
2, 173421, Note_on_c, 0, 74, 53
2, 173441, Control_c, 0, 64, 0
2, 173624, Control_c, 0, 64, 127
2, 173657, Note_on_c, 0, 62, 0
2, 173678, Note_on_c, 0, 74, 0
2, 173691, Note_on_c, 0, 59, 0
2, 173696, Note_on_c, 0, 54, 0
2, 173701, Note_on_c, 0, 86, 0
2, 173711, Control_c, 0, 64, 0
2, 173773, Note_on_c, 0, 74, 39
2, 173779, Note_on_c, 0, 62, 30
2, 173782, Note_on_c, 0, 83, 55
2, 173796, Note_on_c, 0, 59, 40
2, 173814, Note_on_c, 0, 54, 38
2, 174079, Note_on_c, 0, 59, 0
2, 174193, Note_on_c, 0, 74, 0
2, 174196, Note_on_c, 0, 83, 0
2, 174217, Note_on_c, 0, 62, 0
2, 174250, Note_on_c, 0, 54, 0
2, 174619, Note_on_c, 0, 62, 30
2, 174653, Note_on_c, 0, 59, 24
2, 174664, Note_on_c, 0, 62, 0
2, 174702, Note_on_c, 0, 59, 0
2, 175090, Note_on_c, 0, 78, 68
2, 175176, Note_on_c, 0, 59, 29
2, 175211, Note_on_c, 0, 78, 0
2, 175268, Note_on_c, 0, 59, 0
2, 175296, Note_on_c, 0, 76, 40
2, 175538, Note_on_c, 0, 76, 0
2, 175576, Note_on_c, 0, 71, 63
2, 175588, Note_on_c, 0, 54, 42
2, 175604, Note_on_c, 0, 59, 34
2, 175606, Note_on_c, 0, 62, 24
2, 175639, Note_on_c, 0, 62, 0
2, 175674, Note_on_c, 0, 59, 0
2, 175680, Note_on_c, 0, 71, 0
2, 175684, Note_on_c, 0, 54, 0
2, 175776, Note_on_c, 0, 66, 49
2, 175971, Note_on_c, 0, 66, 0
2, 176039, Note_on_c, 0, 66, 55
2, 176224, Note_on_c, 0, 66, 0
2, 176495, Note_on_c, 0, 62, 51
2, 176584, Note_on_c, 0, 58, 23
2, 176586, Note_on_c, 0, 62, 0
2, 176615, Note_on_c, 0, 58, 0
2, 176673, Note_on_c, 0, 65, 41
2, 176898, Note_on_c, 0, 65, 0
2, 176979, Note_on_c, 0, 50, 62
2, 176988, Note_on_c, 0, 43, 65
2, 177029, Note_on_c, 0, 43, 0
2, 177041, Note_on_c, 0, 50, 0
2, 177519, Note_on_c, 0, 52, 51
2, 177609, Note_on_c, 0, 65, 44
2, 177621, Note_on_c, 0, 52, 0
2, 177623, Note_on_c, 0, 53, 63
2, 177626, Note_on_c, 0, 62, 36
2, 177627, Note_on_c, 0, 58, 47
2, 177639, Note_on_c, 0, 57, 48
2, 177729, Note_on_c, 0, 62, 0
2, 177737, Note_on_c, 0, 58, 0
2, 177738, Note_on_c, 0, 57, 0
2, 177749, Note_on_c, 0, 65, 0
2, 177936, Note_on_c, 0, 53, 0
2, 178041, Note_on_c, 0, 55, 45
2, 178096, Note_on_c, 0, 55, 0
2, 178103, Note_on_c, 0, 69, 58
2, 178104, Note_on_c, 0, 58, 59
2, 178109, Note_on_c, 0, 57, 49
2, 178110, Note_on_c, 0, 62, 56
2, 178134, Note_on_c, 0, 65, 44
2, 178205, Note_on_c, 0, 58, 0
2, 178229, Note_on_c, 0, 62, 0
2, 178251, Note_on_c, 0, 65, 0
2, 178271, Note_on_c, 0, 69, 0
2, 178538, Note_on_c, 0, 57, 0
2, 178600, Note_on_c, 0, 72, 66
2, 178606, Note_on_c, 0, 68, 56
2, 178609, Note_on_c, 0, 66, 52
2, 178614, Note_on_c, 0, 58, 54
2, 178615, Note_on_c, 0, 64, 57
2, 179119, Control_c, 0, 64, 127
2, 179460, Note_on_c, 0, 72, 0
2, 179465, Note_on_c, 0, 58, 0
2, 179489, Note_on_c, 0, 64, 0
2, 179497, Note_on_c, 0, 68, 0
2, 179508, Note_on_c, 0, 66, 0
2, 179822, Control_c, 0, 64, 0
2, 179847, Note_on_c, 0, 61, 62
2, 179849, Note_on_c, 0, 67, 43
2, 179860, Note_on_c, 0, 58, 36
2, 179877, Note_on_c, 0, 55, 62
2, 179902, Note_on_c, 0, 58, 0
2, 179906, Note_on_c, 0, 67, 0
2, 179923, Note_on_c, 0, 55, 0
2, 179933, Note_on_c, 0, 61, 0
2, 179986, Control_c, 0, 64, 127
2, 180189, Note_on_c, 0, 62, 54
2, 180190, Note_on_c, 0, 74, 62
2, 180190, Note_on_c, 0, 72, 55
2, 180253, Note_on_c, 0, 62, 0
2, 180279, Note_on_c, 0, 74, 0
2, 180284, Note_on_c, 0, 72, 0
2, 180448, Control_c, 0, 64, 0
2, 180481, Note_on_c, 0, 74, 54
2, 180482, Note_on_c, 0, 55, 58
2, 180494, Note_on_c, 0, 45, 41
2, 180497, Note_on_c, 0, 62, 36
2, 180533, Note_on_c, 0, 62, 0
2, 180541, Note_on_c, 0, 45, 0
2, 180545, Note_on_c, 0, 55, 0
2, 180573, Control_c, 0, 64, 127
2, 180588, Note_on_c, 0, 74, 0
2, 180802, Note_on_c, 0, 74, 63
2, 180805, Note_on_c, 0, 64, 49
2, 180806, Note_on_c, 0, 86, 57
2, 180814, Control_c, 0, 64, 0
2, 180825, Note_on_c, 0, 60, 48
2, 180827, Note_on_c, 0, 59, 24
2, 180836, Note_on_c, 0, 74, 0
2, 180842, Note_on_c, 0, 55, 24
2, 180844, Note_on_c, 0, 64, 0
2, 180860, Note_on_c, 0, 60, 0
2, 180865, Note_on_c, 0, 86, 0
2, 180873, Note_on_c, 0, 59, 0
2, 180875, Note_on_c, 0, 55, 0
2, 180977, Control_c, 0, 64, 127
2, 181112, Note_on_c, 0, 55, 64
2, 181113, Note_on_c, 0, 88, 83
2, 181114, Note_on_c, 0, 76, 80
2, 181116, Note_on_c, 0, 59, 48
2, 181117, Note_on_c, 0, 64, 55
2, 181119, Note_on_c, 0, 60, 50
2, 181271, Note_on_c, 0, 76, 0
2, 181308, Note_on_c, 0, 55, 0
2, 181310, Note_on_c, 0, 64, 0
2, 181330, Note_on_c, 0, 88, 0
2, 181331, Note_on_c, 0, 59, 0
2, 181335, Note_on_c, 0, 60, 0
2, 181384, Control_c, 0, 64, 0
2, 181469, Note_on_c, 0, 64, 48
2, 181471, Note_on_c, 0, 79, 59
2, 181472, Note_on_c, 0, 55, 47
2, 181475, Note_on_c, 0, 91, 57
2, 181477, Note_on_c, 0, 60, 36
2, 181480, Control_c, 0, 64, 127
2, 181484, Note_on_c, 0, 59, 35
2, 181515, Note_on_c, 0, 60, 0
2, 181522, Note_on_c, 0, 64, 0
2, 181525, Note_on_c, 0, 79, 0
2, 181526, Note_on_c, 0, 59, 0
2, 181533, Note_on_c, 0, 55, 0
2, 181583, Note_on_c, 0, 91, 0
2, 181702, Control_c, 0, 64, 0
2, 181793, Note_on_c, 0, 59, 43
2, 181794, Note_on_c, 0, 64, 48
2, 181795, Note_on_c, 0, 55, 57
2, 181796, Note_on_c, 0, 60, 46
2, 181798, Note_on_c, 0, 83, 74
2, 181798, Note_on_c, 0, 95, 69
2, 181835, Note_on_c, 0, 60, 0
2, 181837, Note_on_c, 0, 64, 0
2, 181838, Note_on_c, 0, 83, 0
2, 181840, Note_on_c, 0, 55, 0
2, 181849, Note_on_c, 0, 59, 0
2, 181867, Control_c, 0, 64, 127
2, 181871, Note_on_c, 0, 95, 0
2, 181973, Control_c, 0, 64, 0
2, 182108, Note_on_c, 0, 59, 57
2, 182109, Note_on_c, 0, 55, 69
2, 182109, Note_on_c, 0, 64, 68
2, 182111, Note_on_c, 0, 60, 58
2, 182113, Note_on_c, 0, 98, 83
2, 182118, Note_on_c, 0, 86, 79
2, 182124, Note_on_c, 0, 95, 68
2, 182127, Control_c, 0, 64, 127
2, 182133, Note_on_c, 0, 91, 60
2, 182164, Note_on_c, 0, 91, 0
2, 182213, Note_on_c, 0, 91, 26
2, 182292, Note_on_c, 0, 95, 0
2, 182302, Note_on_c, 0, 59, 0
2, 182310, Note_on_c, 0, 64, 0
2, 182311, Note_on_c, 0, 91, 0
2, 182317, Note_on_c, 0, 86, 0
2, 182318, Note_on_c, 0, 60, 0
2, 182321, Note_on_c, 0, 55, 0
2, 182324, Note_on_c, 0, 98, 0
2, 182638, Control_c, 0, 64, 0
2, 182677, Note_on_c, 0, 99, 76
2, 182684, Note_on_c, 0, 63, 60
2, 182685, Note_on_c, 0, 67, 74
2, 182686, Note_on_c, 0, 87, 78
2, 182686, Note_on_c, 0, 92, 74
2, 182688, Note_on_c, 0, 56, 59
2, 182690, Note_on_c, 0, 96, 70
2, 182705, Note_on_c, 0, 60, 62
2, 182783, Control_c, 0, 64, 127
2, 182807, Note_on_c, 0, 92, 0
2, 182821, Note_on_c, 0, 87, 0
2, 182830, Note_on_c, 0, 96, 0
2, 182850, Note_on_c, 0, 67, 0
2, 182879, Note_on_c, 0, 56, 0
2, 182883, Note_on_c, 0, 99, 0
2, 182886, Note_on_c, 0, 60, 0
2, 182900, Note_on_c, 0, 63, 0
2, 182988, Note_on_c, 0, 101, 76
2, 182990, Note_on_c, 0, 63, 52
2, 182998, Note_on_c, 0, 56, 64
2, 182998, Note_on_c, 0, 89, 75
2, 182999, Note_on_c, 0, 67, 74
2, 183001, Note_on_c, 0, 60, 60
2, 183029, Note_on_c, 0, 97, 35
2, 183064, Note_on_c, 0, 97, 0
2, 183128, Note_on_c, 0, 89, 0
2, 183153, Note_on_c, 0, 67, 0
2, 183167, Note_on_c, 0, 101, 0
2, 183174, Note_on_c, 0, 60, 0
2, 183176, Note_on_c, 0, 56, 0
2, 183195, Note_on_c, 0, 63, 0
2, 183236, Control_c, 0, 64, 0
2, 183290, Note_on_c, 0, 99, 59
2, 183291, Note_on_c, 0, 96, 72
2, 183293, Note_on_c, 0, 103, 73
2, 183295, Note_on_c, 0, 63, 57
2, 183300, Note_on_c, 0, 56, 63
2, 183303, Note_on_c, 0, 91, 61
2, 183306, Note_on_c, 0, 67, 71
2, 183313, Note_on_c, 0, 60, 56
2, 183371, Control_c, 0, 64, 127
2, 183390, Note_on_c, 0, 91, 0
2, 183391, Note_on_c, 0, 67, 0
2, 183420, Note_on_c, 0, 96, 0
2, 183441, Note_on_c, 0, 103, 0
2, 183447, Note_on_c, 0, 63, 0
2, 183463, Note_on_c, 0, 56, 0
2, 183466, Note_on_c, 0, 99, 0
2, 183467, Note_on_c, 0, 60, 0
2, 183525, Control_c, 0, 64, 0
2, 183589, Note_on_c, 0, 66, 76
2, 183590, Note_on_c, 0, 56, 55
2, 183593, Note_on_c, 0, 104, 71
2, 183595, Note_on_c, 0, 92, 77
2, 183596, Note_on_c, 0, 62, 60
2, 183603, Note_on_c, 0, 60, 49
2, 183621, Control_c, 0, 64, 127
2, 183636, Note_on_c, 0, 60, 0
2, 183666, Note_on_c, 0, 66, 0
2, 183724, Note_on_c, 0, 56, 0
2, 183735, Note_on_c, 0, 92, 0
2, 183747, Note_on_c, 0, 62, 0
2, 183766, Note_on_c, 0, 104, 0
2, 183879, Note_on_c, 0, 66, 79
2, 183881, Note_on_c, 0, 93, 71
2, 183883, Note_on_c, 0, 105, 72
2, 183884, Note_on_c, 0, 56, 67
2, 183886, Note_on_c, 0, 62, 57
2, 183904, Note_on_c, 0, 60, 58
2, 183936, Note_on_c, 0, 60, 0
2, 183949, Note_on_c, 0, 93, 0
2, 183981, Note_on_c, 0, 105, 0
2, 183995, Note_on_c, 0, 66, 0
2, 184005, Note_on_c, 0, 56, 0
2, 184041, Note_on_c, 0, 62, 0
2, 184162, Note_on_c, 0, 56, 63
2, 184164, Note_on_c, 0, 66, 71
2, 184175, Note_on_c, 0, 62, 42
2, 184180, Note_on_c, 0, 108, 84
2, 184185, Note_on_c, 0, 96, 83
2, 184289, Note_on_c, 0, 96, 0
2, 184293, Note_on_c, 0, 108, 0
2, 184296, Note_on_c, 0, 66, 0
2, 184339, Note_on_c, 0, 56, 0
2, 184340, Note_on_c, 0, 62, 0
2, 184404, Note_on_c, 0, 62, 68
2, 184409, Note_on_c, 0, 65, 75
2, 184416, Note_on_c, 0, 60, 64
2, 184422, Note_on_c, 0, 55, 67
2, 184427, Note_on_c, 0, 106, 70
2, 184429, Control_c, 0, 64, 0
2, 184433, Note_on_c, 0, 94, 67
2, 184834, Control_c, 0, 64, 127
2, 185174, Note_on_c, 0, 106, 0
2, 185252, Note_on_c, 0, 94, 0
2, 185767, Note_on_c, 0, 60, 0
2, 185774, Note_on_c, 0, 62, 0
2, 185781, Note_on_c, 0, 55, 0
2, 185878, Note_on_c, 0, 65, 0
2, 186234, Note_on_c, 0, 67, 49
2, 186238, Note_on_c, 0, 62, 38
2, 186240, Note_on_c, 0, 63, 44
2, 186250, Note_on_c, 0, 57, 44
2, 186258, Control_c, 0, 64, 0
2, 187096, Note_on_c, 0, 63, 0
2, 187204, Note_on_c, 0, 79, 22
2, 187227, Note_on_c, 0, 80, 48
2, 187269, Note_on_c, 0, 79, 0
2, 187303, Note_on_c, 0, 67, 0
2, 187355, Note_on_c, 0, 80, 0
2, 187369, Note_on_c, 0, 81, 36
2, 187473, Note_on_c, 0, 81, 0
2, 187546, Note_on_c, 0, 84, 85
2, 187547, Note_on_c, 0, 67, 57
2, 187554, Note_on_c, 0, 72, 71
2, 187559, Note_on_c, 0, 63, 49
2, 187613, Note_on_c, 0, 67, 0
2, 187635, Note_on_c, 0, 63, 0
2, 187654, Note_on_c, 0, 62, 0
2, 187670, Note_on_c, 0, 72, 0
2, 187672, Note_on_c, 0, 84, 0
2, 187705, Note_on_c, 0, 57, 0
2, 187851, Note_on_c, 0, 80, 25
2, 187950, Note_on_c, 0, 80, 0
2, 187966, Note_on_c, 0, 81, 50
2, 188033, Note_on_c, 0, 81, 0
2, 188072, Note_on_c, 0, 84, 80
2, 188078, Note_on_c, 0, 60, 36
2, 188093, Note_on_c, 0, 57, 32
2, 188095, Note_on_c, 0, 53, 44
2, 188100, Note_on_c, 0, 50, 31
2, 188152, Note_on_c, 0, 60, 0
2, 188153, Note_on_c, 0, 57, 0
2, 188205, Note_on_c, 0, 84, 0
2, 188229, Note_on_c, 0, 80, 34
2, 188290, Note_on_c, 0, 53, 0
2, 188299, Note_on_c, 0, 80, 0
2, 188341, Note_on_c, 0, 79, 32
2, 188349, Note_on_c, 0, 50, 0
2, 188436, Note_on_c, 0, 79, 0
2, 188460, Note_on_c, 0, 77, 49
2, 188563, Note_on_c, 0, 77, 0
2, 188572, Note_on_c, 0, 74, 49
2, 188637, Note_on_c, 0, 74, 0
2, 188710, Note_on_c, 0, 79, 70
2, 188974, Note_on_c, 0, 79, 0
2, 189026, Note_on_c, 0, 81, 77
2, 189157, Note_on_c, 0, 81, 0
2, 189225, Note_on_c, 0, 77, 26
2, 189446, Note_on_c, 0, 77, 0
2, 189468, Note_on_c, 0, 74, 62
2, 189515, Note_on_c, 0, 50, 33
2, 189530, Note_on_c, 0, 57, 34
2, 189545, Note_on_c, 0, 53, 26
2, 189550, Note_on_c, 0, 60, 19
2, 189551, Note_on_c, 0, 74, 0
2, 189579, Note_on_c, 0, 50, 0
2, 189590, Note_on_c, 0, 60, 0
2, 189599, Note_on_c, 0, 57, 0
2, 189604, Note_on_c, 0, 53, 0
2, 189734, Note_on_c, 0, 72, 4
2, 189914, Note_on_c, 0, 72, 0
2, 189958, Note_on_c, 0, 67, 29
2, 189976, Note_on_c, 0, 53, 30
2, 190046, Note_on_c, 0, 67, 0
2, 190083, Note_on_c, 0, 64, 29
2, 190113, Note_on_c, 0, 68, 47
2, 190162, Note_on_c, 0, 64, 0
2, 190291, Note_on_c, 0, 68, 0
2, 190328, Note_on_c, 0, 69, 45
2, 190439, Note_on_c, 0, 69, 0
2, 190471, Note_on_c, 0, 65, 40
2, 190477, Note_on_c, 0, 59, 37
2, 190513, Note_on_c, 0, 65, 0
2, 190581, Note_on_c, 0, 67, 66
2, 190671, Note_on_c, 0, 59, 0
2, 190891, Note_on_c, 0, 67, 0
2, 190964, Note_on_c, 0, 62, 20
2, 191014, Note_on_c, 0, 62, 0
2, 191067, Note_on_c, 0, 53, 0
2, 191102, Note_on_c, 0, 65, 30
2, 191347, Note_on_c, 0, 65, 0
2, 191394, Note_on_c, 0, 67, 54
2, 191419, Note_on_c, 0, 53, 28
2, 191448, Note_on_c, 0, 67, 0
2, 191498, Note_on_c, 0, 53, 0
2, 191865, Note_on_c, 0, 55, 43
2, 191923, Note_on_c, 0, 55, 0
2, 191974, Note_on_c, 0, 70, 62
2, 191995, Note_on_c, 0, 63, 49
2, 192005, Note_on_c, 0, 67, 34
2, 192008, Note_on_c, 0, 48, 44
2, 192010, Note_on_c, 0, 58, 34
2, 192014, Note_on_c, 0, 62, 34
2, 192047, Note_on_c, 0, 62, 0
2, 192047, Note_on_c, 0, 48, 0
2, 192048, Note_on_c, 0, 67, 0
2, 192052, Note_on_c, 0, 58, 0
2, 192068, Note_on_c, 0, 63, 0
2, 192093, Note_on_c, 0, 70, 0
2, 192484, Note_on_c, 0, 67, 64
2, 192486, Note_on_c, 0, 54, 57
2, 192494, Note_on_c, 0, 55, 77
2, 192495, Note_on_c, 0, 63, 69
2, 192499, Note_on_c, 0, 58, 71
2, 192519, Note_on_c, 0, 54, 0
2, 192550, Note_on_c, 0, 53, 42
2, 192583, Note_on_c, 0, 53, 0
2, 192976, Control_c, 0, 64, 127
2, 193066, Note_on_c, 0, 67, 0
2, 193103, Note_on_c, 0, 58, 0
2, 193180, Note_on_c, 0, 63, 0
2, 193308, Note_on_c, 0, 55, 0
2, 193339, Note_on_c, 0, 54, 34
2, 193399, Control_c, 0, 64, 0
2, 193426, Note_on_c, 0, 69, 51
2, 193438, Note_on_c, 0, 63, 39
2, 193442, Note_on_c, 0, 57, 39
2, 193446, Note_on_c, 0, 60, 43
2, 193470, Note_on_c, 0, 54, 0
2, 193592, Control_c, 0, 64, 127
2, 193608, Note_on_c, 0, 69, 0
2, 193723, Note_on_c, 0, 60, 0
2, 193764, Note_on_c, 0, 63, 0
2, 193765, Note_on_c, 0, 57, 0
2, 193835, Note_on_c, 0, 54, 23
2, 193862, Control_c, 0, 64, 0
2, 193872, Note_on_c, 0, 54, 0
2, 193874, Note_on_c, 0, 55, 48
2, 193912, Note_on_c, 0, 70, 50
2, 193917, Note_on_c, 0, 55, 0
2, 193918, Note_on_c, 0, 61, 42
2, 193927, Note_on_c, 0, 58, 35
2, 193940, Note_on_c, 0, 64, 48
2, 193956, Note_on_c, 0, 67, 25
2, 193998, Note_on_c, 0, 67, 0
2, 194006, Control_c, 0, 64, 127
2, 194019, Note_on_c, 0, 70, 0
2, 194028, Note_on_c, 0, 64, 0
2, 194121, Note_on_c, 0, 58, 0
2, 194136, Note_on_c, 0, 61, 0
2, 194177, Note_on_c, 0, 66, 34
2, 194208, Note_on_c, 0, 66, 0
2, 194278, Note_on_c, 0, 58, 51
2, 194284, Note_on_c, 0, 61, 49
2, 194298, Note_on_c, 0, 67, 28
2, 194299, Note_on_c, 0, 55, 50
2, 194304, Control_c, 0, 64, 0
2, 194319, Note_on_c, 0, 64, 32
2, 194420, Note_on_c, 0, 67, 0
2, 194434, Note_on_c, 0, 64, 0
2, 194458, Control_c, 0, 64, 127
2, 194484, Note_on_c, 0, 61, 0
2, 194510, Note_on_c, 0, 58, 0
2, 194747, Control_c, 0, 64, 0
2, 194755, Note_on_c, 0, 70, 69
2, 194761, Note_on_c, 0, 61, 57
2, 194780, Note_on_c, 0, 64, 50
2, 194808, Note_on_c, 0, 52, 30
2, 194814, Note_on_c, 0, 64, 0
2, 194815, Note_on_c, 0, 55, 0
2, 194829, Note_on_c, 0, 61, 0
2, 194847, Note_on_c, 0, 52, 0
2, 194862, Control_c, 0, 64, 127
2, 194872, Note_on_c, 0, 70, 0
2, 195233, Note_on_c, 0, 64, 66
2, 195234, Note_on_c, 0, 55, 57
2, 195236, Note_on_c, 0, 58, 48
2, 195242, Note_on_c, 0, 61, 44
2, 195266, Control_c, 0, 64, 0
2, 195401, Control_c, 0, 64, 127
2, 195499, Note_on_c, 0, 64, 0
2, 195547, Note_on_c, 0, 61, 0
2, 195556, Note_on_c, 0, 55, 0
2, 195562, Note_on_c, 0, 58, 0
2, 195595, Note_on_c, 0, 67, 46
2, 195640, Note_on_c, 0, 67, 0
2, 195750, Note_on_c, 0, 74, 81
2, 195883, Control_c, 0, 64, 0
2, 195913, Note_on_c, 0, 58, 31
2, 195915, Note_on_c, 0, 50, 45
2, 195938, Note_on_c, 0, 74, 0
2, 195946, Note_on_c, 0, 70, 52
2, 196084, Control_c, 0, 64, 127
2, 196152, Control_c, 0, 64, 0
2, 196200, Note_on_c, 0, 58, 0
2, 196218, Note_on_c, 0, 65, 58
2, 196373, Control_c, 0, 64, 127
2, 196677, Note_on_c, 0, 58, 59
2, 196684, Note_on_c, 0, 62, 50
2, 196711, Note_on_c, 0, 50, 0
2, 196717, Note_on_c, 0, 62, 0
2, 196729, Control_c, 0, 64, 0
2, 196751, Note_on_c, 0, 58, 0
2, 196902, Control_c, 0, 64, 127
2, 197052, Note_on_c, 0, 70, 0
2, 197123, Note_on_c, 0, 67, 64
2, 197139, Note_on_c, 0, 65, 0
2, 197182, Control_c, 0, 64, 0
2, 197248, Note_on_c, 0, 67, 0
2, 197350, Note_on_c, 0, 69, 41
2, 197480, Control_c, 0, 64, 127
2, 197544, Note_on_c, 0, 69, 0
2, 197595, Note_on_c, 0, 70, 67
2, 197604, Note_on_c, 0, 61, 58
2, 197610, Note_on_c, 0, 64, 53
2, 197614, Note_on_c, 0, 58, 42
2, 197642, Note_on_c, 0, 64, 0
2, 197676, Note_on_c, 0, 70, 0
2, 197683, Control_c, 0, 64, 0
2, 197684, Note_on_c, 0, 61, 0
2, 197699, Note_on_c, 0, 58, 0
2, 197811, Note_on_c, 0, 72, 24
2, 198041, Note_on_c, 0, 72, 0
2, 198075, Note_on_c, 0, 73, 68
2, 198092, Note_on_c, 0, 61, 59
2, 198105, Note_on_c, 0, 58, 39
2, 198124, Note_on_c, 0, 61, 0
2, 198143, Note_on_c, 0, 58, 0
2, 198201, Note_on_c, 0, 73, 0
2, 198276, Note_on_c, 0, 75, 37
2, 198494, Note_on_c, 0, 75, 0
2, 198547, Note_on_c, 0, 61, 69
2, 198548, Note_on_c, 0, 76, 59
2, 198551, Note_on_c, 0, 58, 56
2, 198555, Note_on_c, 0, 64, 68
2, 198565, Note_on_c, 0, 55, 63
2, 198702, Note_on_c, 0, 76, 0
2, 198732, Control_c, 0, 64, 127
2, 198772, Note_on_c, 0, 78, 37
2, 198967, Note_on_c, 0, 78, 0
2, 199045, Note_on_c, 0, 79, 55
2, 199097, Control_c, 0, 64, 0
2, 199143, Note_on_c, 0, 79, 0
2, 199154, Note_on_c, 0, 64, 0
2, 199185, Note_on_c, 0, 61, 0
2, 199203, Note_on_c, 0, 58, 0
2, 199209, Note_on_c, 0, 55, 0
2, 199233, Note_on_c, 0, 81, 44
2, 199242, Control_c, 0, 64, 127
2, 199438, Note_on_c, 0, 81, 0
2, 199627, Control_c, 0, 64, 0
2, 199643, Note_on_c, 0, 62, 37
2, 199656, Note_on_c, 0, 55, 31
2, 199659, Note_on_c, 0, 51, 35
2, 199681, Note_on_c, 0, 58, 25
2, 199688, Note_on_c, 0, 86, 51
2, 199694, Note_on_c, 0, 74, 48
2, 199779, Note_on_c, 0, 58, 0
2, 199857, Note_on_c, 0, 55, 0
2, 199878, Note_on_c, 0, 51, 0
2, 199906, Control_c, 0, 64, 127
2, 199910, Note_on_c, 0, 74, 0
2, 199912, Note_on_c, 0, 62, 0
2, 199934, Note_on_c, 0, 86, 0
2, 200012, Control_c, 0, 64, 0
2, 200013, Note_on_c, 0, 82, 36
2, 200065, Note_on_c, 0, 82, 0
2, 200140, Note_on_c, 0, 86, 68
2, 200151, Note_on_c, 0, 74, 51
2, 200159, Note_on_c, 0, 82, 35
2, 200169, Note_on_c, 0, 79, 43
2, 200173, Note_on_c, 0, 62, 53
2, 200223, Control_c, 0, 64, 127
2, 200284, Note_on_c, 0, 79, 0
2, 200303, Note_on_c, 0, 74, 0
2, 200310, Note_on_c, 0, 82, 0
2, 200317, Note_on_c, 0, 86, 0
2, 200323, Note_on_c, 0, 62, 0
2, 200468, Note_on_c, 0, 86, 67
2, 200473, Note_on_c, 0, 74, 65
2, 200496, Note_on_c, 0, 82, 43
2, 200499, Note_on_c, 0, 79, 55
2, 200525, Note_on_c, 0, 58, 38
2, 200534, Note_on_c, 0, 62, 35
2, 200540, Note_on_c, 0, 63, 31
2, 200543, Note_on_c, 0, 67, 32
2, 200550, Note_on_c, 0, 86, 0
2, 200552, Note_on_c, 0, 74, 0
2, 200569, Control_c, 0, 64, 0
2, 200592, Note_on_c, 0, 79, 0
2, 200593, Note_on_c, 0, 82, 0
2, 200605, Note_on_c, 0, 67, 0
2, 200675, Note_on_c, 0, 84, 35
2, 200687, Note_on_c, 0, 72, 27
2, 200705, Note_on_c, 0, 58, 0
2, 200740, Note_on_c, 0, 62, 0
2, 200782, Note_on_c, 0, 63, 0
2, 200783, Note_on_c, 0, 84, 0
2, 200813, Note_on_c, 0, 72, 0
2, 200958, Note_on_c, 0, 82, 37
2, 200962, Note_on_c, 0, 79, 37
2, 200969, Note_on_c, 0, 67, 43
2, 200972, Note_on_c, 0, 86, 40
2, 200973, Note_on_c, 0, 63, 37
2, 200989, Note_on_c, 0, 58, 23
2, 201007, Note_on_c, 0, 79, 0
2, 201008, Note_on_c, 0, 67, 0
2, 201040, Note_on_c, 0, 82, 0
2, 201042, Note_on_c, 0, 58, 0
2, 201054, Note_on_c, 0, 86, 0
2, 201060, Note_on_c, 0, 63, 0
2, 201138, Control_c, 0, 64, 127
2, 201455, Control_c, 0, 64, 0
2, 201460, Note_on_c, 0, 89, 76
2, 201465, Note_on_c, 0, 57, 62
2, 201470, Note_on_c, 0, 67, 61
2, 201470, Note_on_c, 0, 63, 56
2, 201470, Note_on_c, 0, 77, 66
2, 201498, Note_on_c, 0, 57, 0
2, 201500, Note_on_c, 0, 67, 0
2, 201503, Note_on_c, 0, 77, 0
2, 201520, Note_on_c, 0, 89, 0
2, 201544, Note_on_c, 0, 63, 0
2, 201938, Note_on_c, 0, 78, 80
2, 201944, Note_on_c, 0, 86, 74
2, 201946, Note_on_c, 0, 74, 78
2, 201958, Note_on_c, 0, 63, 69
2, 201962, Note_on_c, 0, 57, 70
2, 201963, Note_on_c, 0, 67, 74
2, 201971, Note_on_c, 0, 82, 32
2, 202004, Note_on_c, 0, 82, 0
2, 202084, Note_on_c, 0, 79, 31
2, 202090, Control_c, 0, 64, 127
2, 202101, Note_on_c, 0, 78, 0
2, 202379, Note_on_c, 0, 86, 0
2, 202425, Note_on_c, 0, 57, 0
2, 202426, Note_on_c, 0, 74, 0
2, 202432, Note_on_c, 0, 67, 0
2, 202434, Note_on_c, 0, 79, 0
2, 202488, Note_on_c, 0, 63, 0
2, 202513, Control_c, 0, 64, 0
2, 202559, Note_on_c, 0, 84, 56
2, 202561, Note_on_c, 0, 63, 55
2, 202566, Note_on_c, 0, 79, 55
2, 202576, Note_on_c, 0, 57, 49
2, 202577, Note_on_c, 0, 72, 39
2, 202614, Note_on_c, 0, 79, 0
2, 202616, Note_on_c, 0, 84, 0
2, 202629, Note_on_c, 0, 72, 0
2, 202679, Note_on_c, 0, 63, 0
2, 202700, Note_on_c, 0, 57, 0
2, 202726, Control_c, 0, 64, 127
2, 202985, Control_c, 0, 64, 0
2, 203039, Note_on_c, 0, 63, 62
2, 203059, Note_on_c, 0, 73, 64
2, 203068, Note_on_c, 0, 77, 64
2, 203069, Note_on_c, 0, 69, 68
2, 203139, Control_c, 0, 64, 127
2, 203359, Note_on_c, 0, 69, 0
2, 203394, Note_on_c, 0, 77, 0
2, 203421, Note_on_c, 0, 63, 0
2, 203439, Note_on_c, 0, 58, 25
2, 203454, Note_on_c, 0, 73, 0
2, 203505, Control_c, 0, 64, 0
2, 203529, Note_on_c, 0, 77, 62
2, 203530, Note_on_c, 0, 72, 62
2, 203536, Note_on_c, 0, 67, 48
2, 203537, Note_on_c, 0, 62, 48
2, 203548, Note_on_c, 0, 58, 0
2, 204005, Control_c, 0, 64, 127
2, 204026, Note_on_c, 0, 77, 0
2, 204038, Note_on_c, 0, 72, 0
2, 204082, Note_on_c, 0, 67, 0
2, 204187, Note_on_c, 0, 62, 0
2, 204449, Control_c, 0, 64, 0
2, 204488, Note_on_c, 0, 70, 60
2, 204501, Note_on_c, 0, 65, 54
2, 204518, Note_on_c, 0, 58, 36
2, 204519, Note_on_c, 0, 60, 31
2, 204602, Control_c, 0, 64, 127
2, 204704, Note_on_c, 0, 60, 0
2, 204790, Note_on_c, 0, 70, 0
2, 204860, Note_on_c, 0, 65, 0
2, 204889, Note_on_c, 0, 58, 0
2, 205401, Control_c, 0, 64, 0
2, 205473, Note_on_c, 0, 67, 79
2, 205475, Note_on_c, 0, 79, 75
2, 205478, Note_on_c, 0, 68, 79
2, 205480, Note_on_c, 0, 72, 72
2, 205487, Note_on_c, 0, 75, 59
2, 205546, Control_c, 0, 64, 127
2, 205585, Note_on_c, 0, 68, 0
2, 205586, Note_on_c, 0, 72, 0
2, 205611, Note_on_c, 0, 79, 0
2, 205642, Note_on_c, 0, 75, 0
2, 205696, Note_on_c, 0, 67, 0
2, 205821, Note_on_c, 0, 82, 74
2, 205824, Control_c, 0, 64, 0
2, 205828, Note_on_c, 0, 75, 69
2, 205835, Note_on_c, 0, 70, 86
2, 205846, Note_on_c, 0, 77, 63
2, 205848, Note_on_c, 0, 71, 45
2, 205865, Note_on_c, 0, 72, 32
2, 205898, Note_on_c, 0, 72, 0
2, 205953, Note_on_c, 0, 70, 0
2, 205953, Note_on_c, 0, 71, 0
2, 205974, Note_on_c, 0, 77, 0
2, 205978, Control_c, 0, 64, 127
2, 205986, Note_on_c, 0, 82, 0
2, 205987, Note_on_c, 0, 75, 0
2, 206219, Control_c, 0, 64, 0
2, 206278, Note_on_c, 0, 79, 62
2, 206291, Note_on_c, 0, 74, 53
2, 206293, Note_on_c, 0, 71, 68
2, 206297, Note_on_c, 0, 68, 56
2, 206300, Note_on_c, 0, 67, 70
2, 206394, Note_on_c, 0, 79, 0
2, 206408, Note_on_c, 0, 67, 0
2, 206421, Control_c, 0, 64, 127
2, 206422, Note_on_c, 0, 71, 0
2, 206425, Note_on_c, 0, 74, 0
2, 206454, Note_on_c, 0, 68, 0
2, 206755, Note_on_c, 0, 68, 57
2, 206763, Note_on_c, 0, 71, 54
2, 206777, Control_c, 0, 64, 0
2, 206779, Note_on_c, 0, 65, 46
2, 206781, Note_on_c, 0, 62, 54
2, 206820, Note_on_c, 0, 65, 0
2, 206854, Note_on_c, 0, 68, 0
2, 206858, Note_on_c, 0, 71, 0
2, 206909, Note_on_c, 0, 62, 0
2, 207026, Note_on_c, 0, 77, 62
2, 207030, Note_on_c, 0, 65, 64
2, 207042, Note_on_c, 0, 74, 52
2, 207050, Note_on_c, 0, 70, 39
2, 207053, Note_on_c, 0, 67, 32
2, 207056, Control_c, 0, 64, 127
2, 207233, Note_on_c, 0, 74, 0
2, 207257, Note_on_c, 0, 65, 0
2, 207259, Note_on_c, 0, 77, 0
2, 207262, Note_on_c, 0, 67, 0
2, 207269, Note_on_c, 0, 70, 0
2, 207343, Note_on_c, 0, 74, 38
2, 207354, Note_on_c, 0, 63, 51
2, 207393, Control_c, 0, 64, 0
2, 207407, Note_on_c, 0, 74, 0
2, 207521, Note_on_c, 0, 63, 0
2, 207623, Note_on_c, 0, 74, 55
2, 207632, Note_on_c, 0, 62, 48
2, 207636, Note_on_c, 0, 70, 43
2, 207653, Note_on_c, 0, 67, 52
2, 207663, Note_on_c, 0, 63, 47
2, 207809, Note_on_c, 0, 63, 0
2, 207833, Note_on_c, 0, 70, 0
2, 207836, Note_on_c, 0, 67, 0
2, 207838, Note_on_c, 0, 74, 0
2, 207853, Note_on_c, 0, 62, 0
2, 207903, Note_on_c, 0, 70, 27
2, 207913, Control_c, 0, 64, 127
2, 207914, Note_on_c, 0, 63, 34
2, 207919, Note_on_c, 0, 58, 35
2, 207952, Note_on_c, 0, 70, 0
2, 207990, Note_on_c, 0, 63, 0
2, 208105, Note_on_c, 0, 58, 0
2, 208229, Note_on_c, 0, 63, 47
2, 208235, Note_on_c, 0, 62, 50
2, 208249, Control_c, 0, 64, 0
2, 208250, Note_on_c, 0, 67, 36
2, 208252, Note_on_c, 0, 55, 34
2, 208309, Note_on_c, 0, 67, 0
2, 208374, Note_on_c, 0, 63, 0
2, 208385, Note_on_c, 0, 62, 0
2, 208394, Control_c, 0, 64, 127
2, 208647, Note_on_c, 0, 62, 61
2, 208656, Note_on_c, 0, 55, 0
2, 208658, Note_on_c, 0, 58, 31
2, 208670, Note_on_c, 0, 51, 44
2, 208741, Control_c, 0, 64, 0
2, 208744, Note_on_c, 0, 51, 0
2, 208827, Note_on_c, 0, 42, 48
2, 208843, Note_on_c, 0, 62, 0
2, 208895, Control_c, 0, 64, 127
2, 209096, Note_on_c, 0, 58, 0
2, 209127, Note_on_c, 0, 42, 0
2, 209190, Note_on_c, 0, 48, 34
2, 209261, Note_on_c, 0, 48, 0
2, 209289, Control_c, 0, 64, 0
2, 209308, Note_on_c, 0, 62, 44
2, 209324, Note_on_c, 0, 57, 38
2, 209326, Note_on_c, 0, 41, 44
2, 209337, Note_on_c, 0, 51, 28
2, 209361, Note_on_c, 0, 65, 31
2, 209627, Note_on_c, 0, 62, 0
2, 209663, Note_on_c, 0, 57, 0
2, 209676, Note_on_c, 0, 48, 33
2, 209684, Note_on_c, 0, 51, 0
2, 209761, Note_on_c, 0, 48, 0
2, 209782, Note_on_c, 0, 61, 49
2, 209784, Note_on_c, 0, 57, 33
2, 209811, Note_on_c, 0, 51, 15
2, 209984, Note_on_c, 0, 51, 0
2, 210032, Note_on_c, 0, 57, 0
2, 210052, Note_on_c, 0, 61, 0
2, 210122, Note_on_c, 0, 60, 41
2, 210123, Note_on_c, 0, 57, 29
2, 210124, Note_on_c, 0, 51, 32
2, 210713, Note_on_c, 0, 41, 0
2, 210756, Note_on_c, 0, 51, 0
2, 210861, Note_on_c, 0, 57, 0
2, 211173, Note_on_c, 0, 60, 0
2, 211224, Note_on_c, 0, 60, 25
2, 211226, Note_on_c, 0, 50, 32
2, 211232, Note_on_c, 0, 57, 26
2, 211240, Note_on_c, 0, 53, 26
2, 211251, Note_on_c, 0, 65, 0
2, 211806, Note_on_c, 0, 53, 0
2, 211820, Note_on_c, 0, 57, 0
2, 211830, Note_on_c, 0, 50, 0
2, 211849, Control_c, 0, 64, 127
2, 211901, Note_on_c, 0, 60, 0
2, 212495, Control_c, 0, 64, 0
2, 212499, Note_on_c, 0, 96, 80
2, 212511, Note_on_c, 0, 64, 53
2, 212513, Note_on_c, 0, 84, 80
2, 212518, Note_on_c, 0, 57, 43
2, 212518, Note_on_c, 0, 60, 48
2, 212522, Note_on_c, 0, 53, 32
2, 212610, Control_c, 0, 64, 127
2, 212611, Note_on_c, 0, 96, 0
2, 212634, Note_on_c, 0, 84, 0
2, 212637, Note_on_c, 0, 64, 0
2, 212640, Note_on_c, 0, 60, 0
2, 212651, Note_on_c, 0, 53, 0
2, 212666, Note_on_c, 0, 57, 0
2, 212808, Note_on_c, 0, 93, 79
2, 212817, Note_on_c, 0, 81, 70
2, 212824, Note_on_c, 0, 64, 39
2, 212831, Note_on_c, 0, 60, 29
2, 212865, Note_on_c, 0, 64, 0
2, 212866, Note_on_c, 0, 81, 0
2, 212875, Note_on_c, 0, 60, 0
2, 212883, Note_on_c, 0, 93, 0
2, 212972, Note_on_c, 0, 64, 33
2, 212991, Note_on_c, 0, 77, 57
2, 213007, Note_on_c, 0, 89, 24
2, 213016, Note_on_c, 0, 64, 0
2, 213024, Note_on_c, 0, 77, 0
2, 213039, Note_on_c, 0, 89, 0
2, 213110, Control_c, 0, 64, 0
2, 213141, Note_on_c, 0, 53, 47
2, 213143, Note_on_c, 0, 64, 53
2, 213145, Note_on_c, 0, 79, 74
2, 213147, Note_on_c, 0, 91, 76
2, 213155, Note_on_c, 0, 59, 57
2, 213293, Control_c, 0, 64, 127
2, 213776, Note_on_c, 0, 64, 0
2, 213815, Note_on_c, 0, 59, 0
2, 213818, Note_on_c, 0, 53, 0
2, 213827, Note_on_c, 0, 91, 0
2, 213830, Note_on_c, 0, 79, 0
2, 214082, Control_c, 0, 64, 0
2, 214124, Note_on_c, 0, 91, 64
2, 214130, Note_on_c, 0, 64, 60
2, 214132, Note_on_c, 0, 59, 50
2, 214136, Note_on_c, 0, 79, 56
2, 214156, Note_on_c, 0, 91, 0
2, 214163, Note_on_c, 0, 64, 0
2, 214168, Note_on_c, 0, 79, 0
2, 214172, Note_on_c, 0, 59, 0
2, 214246, Control_c, 0, 64, 127
2, 214269, Note_on_c, 0, 91, 57
2, 214271, Note_on_c, 0, 79, 33
2, 214274, Note_on_c, 0, 59, 38
2, 214307, Note_on_c, 0, 91, 0
2, 214310, Note_on_c, 0, 79, 0
2, 214315, Note_on_c, 0, 59, 0
2, 214351, Control_c, 0, 64, 0
2, 214544, Control_c, 0, 64, 127
2, 214588, Note_on_c, 0, 64, 52
2, 214590, Note_on_c, 0, 81, 71
2, 214591, Note_on_c, 0, 93, 69
2, 214598, Note_on_c, 0, 59, 30
2, 214606, Note_on_c, 0, 53, 38
2, 214623, Note_on_c, 0, 81, 0
2, 214624, Note_on_c, 0, 93, 0
2, 214627, Note_on_c, 0, 64, 0
2, 214640, Control_c, 0, 64, 0
2, 214659, Control_c, 0, 64, 127
2, 214697, Note_on_c, 0, 64, 19
2, 214706, Note_on_c, 0, 53, 0
2, 214711, Note_on_c, 0, 59, 0
2, 214731, Note_on_c, 0, 93, 36
2, 214732, Note_on_c, 0, 81, 32
2, 214767, Note_on_c, 0, 64, 0
2, 214773, Note_on_c, 0, 93, 0
2, 214774, Note_on_c, 0, 81, 0
2, 215063, Control_c, 0, 64, 0
2, 215071, Note_on_c, 0, 58, 42
2, 215079, Note_on_c, 0, 63, 37
2, 215080, Note_on_c, 0, 67, 40
2, 215081, Note_on_c, 0, 94, 62
2, 215087, Note_on_c, 0, 62, 35
2, 215096, Note_on_c, 0, 82, 53
2, 215555, Control_c, 0, 64, 127
2, 215651, Note_on_c, 0, 94, 0
2, 215655, Note_on_c, 0, 82, 0
2, 215669, Note_on_c, 0, 62, 0
2, 215670, Note_on_c, 0, 58, 0
2, 215719, Note_on_c, 0, 67, 0
2, 215811, Note_on_c, 0, 63, 0
2, 216026, Control_c, 0, 64, 0
2, 216037, Note_on_c, 0, 58, 42
2, 216049, Note_on_c, 0, 67, 33
2, 216052, Note_on_c, 0, 91, 54
2, 216059, Note_on_c, 0, 63, 31
2, 216060, Note_on_c, 0, 62, 30
2, 216069, Note_on_c, 0, 79, 42
2, 216092, Note_on_c, 0, 87, 29
2, 216100, Note_on_c, 0, 67, 0
2, 216103, Note_on_c, 0, 62, 0
2, 216116, Note_on_c, 0, 63, 0
2, 216117, Note_on_c, 0, 79, 0
2, 216127, Note_on_c, 0, 87, 0
2, 216137, Note_on_c, 0, 91, 0
2, 216143, Note_on_c, 0, 58, 0
2, 216555, Control_c, 0, 64, 127
2, 216633, Control_c, 0, 64, 0
2, 216796, Control_c, 0, 64, 127
2, 216844, Note_on_c, 0, 63, 45
2, 216852, Note_on_c, 0, 58, 45
2, 216857, Note_on_c, 0, 62, 31
2, 216858, Note_on_c, 0, 67, 37
2, 216869, Note_on_c, 0, 93, 69
2, 216873, Note_on_c, 0, 81, 68
2, 216875, Note_on_c, 0, 87, 60
2, 216899, Note_on_c, 0, 67, 0
2, 216900, Note_on_c, 0, 62, 0
2, 216911, Note_on_c, 0, 81, 0
2, 216945, Note_on_c, 0, 93, 0
2, 216948, Note_on_c, 0, 63, 0
2, 216949, Note_on_c, 0, 87, 0
2, 216970, Note_on_c, 0, 58, 0
2, 217046, Control_c, 0, 64, 0
2, 217102, Note_on_c, 0, 67, 54
2, 217103, Note_on_c, 0, 63, 46
2, 217103, Note_on_c, 0, 57, 54
2, 217104, Note_on_c, 0, 87, 64
2, 217105, Note_on_c, 0, 94, 68
2, 217107, Note_on_c, 0, 82, 60
2, 217141, Note_on_c, 0, 91, 31
2, 217466, Note_on_c, 0, 91, 0
2, 217475, Control_c, 0, 64, 127
2, 217521, Note_on_c, 0, 57, 0
2, 217523, Note_on_c, 0, 94, 0
2, 217547, Note_on_c, 0, 87, 0
2, 217554, Note_on_c, 0, 82, 0
2, 217580, Note_on_c, 0, 67, 0
2, 217630, Note_on_c, 0, 63, 0
2, 217820, Note_on_c, 0, 91, 53
2, 217823, Note_on_c, 0, 87, 45
2, 217826, Note_on_c, 0, 79, 50
2, 217831, Control_c, 0, 64, 0
2, 217844, Note_on_c, 0, 84, 53
2, 217846, Note_on_c, 0, 57, 41
2, 217846, Note_on_c, 0, 63, 39
2, 217854, Note_on_c, 0, 67, 35
2, 218004, Control_c, 0, 64, 127
2, 218402, Note_on_c, 0, 84, 0
2, 218423, Note_on_c, 0, 79, 0
2, 218465, Note_on_c, 0, 67, 0
2, 218484, Note_on_c, 0, 87, 0
2, 218494, Note_on_c, 0, 91, 0
2, 218518, Note_on_c, 0, 57, 0
2, 218522, Note_on_c, 0, 63, 0
2, 218860, Control_c, 0, 64, 0
2, 218897, Note_on_c, 0, 94, 49
2, 218907, Note_on_c, 0, 65, 40
2, 218920, Note_on_c, 0, 62, 31
2, 218923, Note_on_c, 0, 60, 25
2, 218927, Note_on_c, 0, 55, 40
2, 218931, Note_on_c, 0, 82, 50
2, 219044, Control_c, 0, 64, 127
2, 219233, Note_on_c, 0, 94, 0
2, 219301, Note_on_c, 0, 82, 0
2, 219421, Note_on_c, 0, 65, 0
2, 219428, Note_on_c, 0, 60, 0
2, 219437, Note_on_c, 0, 62, 0
2, 219506, Note_on_c, 0, 55, 0
2, 219869, Note_on_c, 0, 58, 36
2, 219871, Control_c, 0, 64, 0
2, 219881, Note_on_c, 0, 70, 45
2, 219916, Note_on_c, 0, 70, 0
2, 219965, Note_on_c, 0, 58, 0
2, 220051, Note_on_c, 0, 60, 38
2, 220131, Note_on_c, 0, 60, 0
2, 220183, Note_on_c, 0, 74, 69
2, 220194, Note_on_c, 0, 62, 49
2, 220465, Note_on_c, 0, 74, 0
2, 220477, Control_c, 0, 64, 127
2, 220491, Note_on_c, 0, 62, 0
2, 220559, Note_on_c, 0, 63, 32
2, 220573, Note_on_c, 0, 75, 31
2, 220618, Note_on_c, 0, 75, 0
2, 220664, Note_on_c, 0, 63, 0
2, 220699, Note_on_c, 0, 77, 61
2, 220713, Note_on_c, 0, 65, 35
2, 220747, Control_c, 0, 64, 0
2, 220752, Note_on_c, 0, 65, 0
2, 220783, Note_on_c, 0, 77, 0
2, 220846, Note_on_c, 0, 61, 21
2, 220890, Note_on_c, 0, 79, 64
2, 220893, Control_c, 0, 64, 127
2, 220921, Note_on_c, 0, 67, 32
2, 220931, Note_on_c, 0, 60, 49
2, 220933, Note_on_c, 0, 63, 23
2, 221084, Note_on_c, 0, 61, 0
2, 221092, Note_on_c, 0, 60, 0
2, 221097, Note_on_c, 0, 79, 0
2, 221107, Note_on_c, 0, 63, 0
2, 221110, Note_on_c, 0, 67, 0
2, 221180, Control_c, 0, 64, 0
2, 221286, Control_c, 0, 64, 127
2, 221312, Note_on_c, 0, 80, 51
2, 221321, Note_on_c, 0, 68, 42
2, 221329, Note_on_c, 0, 63, 33
2, 221355, Note_on_c, 0, 68, 0
2, 221356, Note_on_c, 0, 80, 0
2, 221360, Note_on_c, 0, 60, 22
2, 221372, Note_on_c, 0, 63, 0
2, 221393, Note_on_c, 0, 60, 0
2, 221489, Note_on_c, 0, 70, 39
2, 221495, Note_on_c, 0, 82, 47
2, 221496, Note_on_c, 0, 63, 30
2, 221501, Note_on_c, 0, 60, 24
2, 221521, Note_on_c, 0, 70, 0
2, 221527, Note_on_c, 0, 82, 0
2, 221550, Note_on_c, 0, 63, 0
2, 221555, Control_c, 0, 64, 0
2, 221561, Note_on_c, 0, 60, 0
2, 221649, Note_on_c, 0, 56, 52
2, 221657, Note_on_c, 0, 84, 60
2, 221660, Note_on_c, 0, 66, 62
2, 221663, Note_on_c, 0, 71, 51
2, 221669, Note_on_c, 0, 82, 42
2, 221670, Note_on_c, 0, 72, 48
2, 221671, Note_on_c, 0, 83, 52
2, 221673, Note_on_c, 0, 62, 53
2, 221702, Control_c, 0, 64, 127
2, 221760, Note_on_c, 0, 83, 0
2, 221768, Note_on_c, 0, 71, 0
2, 221826, Note_on_c, 0, 72, 0
2, 221830, Note_on_c, 0, 84, 0
2, 221856, Note_on_c, 0, 82, 0
2, 221877, Note_on_c, 0, 66, 0
2, 221879, Note_on_c, 0, 62, 0
2, 221916, Note_on_c, 0, 56, 0
2, 221997, Note_on_c, 0, 86, 39
2, 222006, Note_on_c, 0, 56, 37
2, 222007, Note_on_c, 0, 82, 35
2, 222008, Note_on_c, 0, 79, 46
2, 222021, Note_on_c, 0, 62, 34
2, 222023, Note_on_c, 0, 66, 30
2, 222035, Note_on_c, 0, 86, 0
2, 222047, Note_on_c, 0, 79, 0
2, 222054, Note_on_c, 0, 82, 0
2, 222063, Note_on_c, 0, 66, 0
2, 222067, Note_on_c, 0, 56, 0
2, 222070, Note_on_c, 0, 62, 0
2, 222117, Control_c, 0, 64, 0
2, 222141, Note_on_c, 0, 87, 62
2, 222152, Note_on_c, 0, 75, 31
2, 222164, Note_on_c, 0, 62, 27
2, 222184, Note_on_c, 0, 75, 0
2, 222210, Note_on_c, 0, 87, 0
2, 222212, Note_on_c, 0, 62, 0
2, 222296, Note_on_c, 0, 56, 60
2, 222309, Control_c, 0, 64, 127
2, 222309, Note_on_c, 0, 62, 50
2, 222310, Note_on_c, 0, 66, 61
2, 222313, Note_on_c, 0, 89, 76
2, 222318, Note_on_c, 0, 77, 72
2, 222573, Note_on_c, 0, 77, 0
2, 222596, Note_on_c, 0, 62, 0
2, 222597, Note_on_c, 0, 66, 0
2, 222600, Note_on_c, 0, 89, 0
2, 222636, Note_on_c, 0, 56, 0
2, 222665, Control_c, 0, 64, 0
2, 222743, Note_on_c, 0, 62, 28
2, 222751, Control_c, 0, 64, 127
2, 222754, Note_on_c, 0, 91, 53
2, 222757, Note_on_c, 0, 65, 31
2, 222766, Note_on_c, 0, 79, 40
2, 222781, Note_on_c, 0, 90, 37
2, 222789, Note_on_c, 0, 91, 0
2, 222795, Note_on_c, 0, 65, 0
2, 222798, Note_on_c, 0, 62, 0
2, 222803, Note_on_c, 0, 79, 0
2, 222814, Note_on_c, 0, 90, 0
2, 222933, Control_c, 0, 64, 0
2, 222937, Note_on_c, 0, 62, 29
2, 222948, Note_on_c, 0, 92, 47
2, 222976, Note_on_c, 0, 62, 0
2, 222981, Note_on_c, 0, 92, 0
2, 223109, Note_on_c, 0, 65, 69
2, 223110, Note_on_c, 0, 62, 48
2, 223111, Note_on_c, 0, 82, 74
2, 223114, Note_on_c, 0, 94, 72
2, 223117, Control_c, 0, 64, 127
2, 223123, Note_on_c, 0, 60, 54
2, 223125, Note_on_c, 0, 55, 57
2, 223299, Note_on_c, 0, 82, 0
2, 223315, Note_on_c, 0, 94, 0
2, 223320, Note_on_c, 0, 60, 0
2, 223328, Note_on_c, 0, 55, 0
2, 223329, Note_on_c, 0, 65, 0
2, 223341, Note_on_c, 0, 62, 0
2, 223455, Note_on_c, 0, 96, 70
2, 223468, Note_on_c, 0, 62, 36
2, 223473, Note_on_c, 0, 84, 35
2, 223487, Note_on_c, 0, 96, 0
2, 223487, Note_on_c, 0, 60, 38
2, 223509, Note_on_c, 0, 84, 0
2, 223517, Note_on_c, 0, 62, 0
2, 223518, Note_on_c, 0, 60, 0
2, 223614, Note_on_c, 0, 62, 53
2, 223625, Note_on_c, 0, 65, 53
2, 223630, Note_on_c, 0, 60, 42
2, 223655, Control_c, 0, 64, 0
2, 223657, Note_on_c, 0, 65, 0
2, 223663, Note_on_c, 0, 60, 0
2, 223682, Note_on_c, 0, 62, 0
2, 223777, Note_on_c, 0, 87, 68
2, 223779, Note_on_c, 0, 99, 67
2, 223788, Note_on_c, 0, 62, 38
2, 223798, Note_on_c, 0, 65, 66
2, 223800, Control_c, 0, 64, 127
2, 223804, Note_on_c, 0, 55, 58
2, 223809, Note_on_c, 0, 60, 48
2, 223952, Note_on_c, 0, 99, 0
2, 223966, Note_on_c, 0, 87, 0
2, 224003, Note_on_c, 0, 60, 0
2, 224016, Note_on_c, 0, 65, 0
2, 224022, Note_on_c, 0, 62, 0
2, 224023, Note_on_c, 0, 55, 0
2, 224128, Control_c, 0, 64, 0
2, 224176, Control_c, 0, 64, 127
2, 224177, Note_on_c, 0, 89, 48
2, 224178, Note_on_c, 0, 101, 54
2, 224181, Note_on_c, 0, 62, 30
2, 224210, Note_on_c, 0, 89, 0
2, 224218, Note_on_c, 0, 101, 0
2, 224221, Note_on_c, 0, 62, 0
2, 224341, Note_on_c, 0, 55, 32
2, 224342, Note_on_c, 0, 60, 38
2, 224343, Note_on_c, 0, 103, 55
2, 224351, Note_on_c, 0, 91, 36
2, 224352, Note_on_c, 0, 65, 42
2, 224378, Note_on_c, 0, 55, 0
2, 224385, Note_on_c, 0, 103, 0
2, 224387, Note_on_c, 0, 60, 0
2, 224391, Note_on_c, 0, 91, 0
2, 224393, Note_on_c, 0, 65, 0
2, 224493, Control_c, 0, 64, 0
2, 224514, Note_on_c, 0, 105, 80
2, 224518, Note_on_c, 0, 93, 69
2, 224527, Note_on_c, 0, 67, 72
2, 224531, Note_on_c, 0, 63, 52
2, 224536, Note_on_c, 0, 57, 58
2, 224541, Note_on_c, 0, 62, 64
2, 224547, Note_on_c, 0, 98, 40
2, 224594, Note_on_c, 0, 98, 0
2, 224628, Control_c, 0, 64, 127
2, 224802, Note_on_c, 0, 93, 0
2, 224842, Note_on_c, 0, 105, 0
2, 225057, Note_on_c, 0, 67, 0
2, 225071, Note_on_c, 0, 63, 0
2, 225071, Control_c, 0, 64, 0
2, 225086, Note_on_c, 0, 62, 0
2, 225129, Note_on_c, 0, 57, 0
2, 225583, Note_on_c, 0, 63, 35
2, 225605, Note_on_c, 0, 53, 24
2, 225621, Note_on_c, 0, 60, 24
2, 225626, Note_on_c, 0, 57, 31
2, 225633, Note_on_c, 0, 63, 0
2, 225641, Note_on_c, 0, 53, 0
2, 225664, Note_on_c, 0, 60, 0
2, 225674, Note_on_c, 0, 57, 0
2, 226113, Note_on_c, 0, 69, 57
2, 226162, Note_on_c, 0, 69, 0
2, 226417, Note_on_c, 0, 72, 84
2, 226590, Note_on_c, 0, 57, 34
2, 226597, Note_on_c, 0, 69, 41
2, 226606, Note_on_c, 0, 62, 44
2, 226614, Note_on_c, 0, 65, 35
2, 227101, Note_on_c, 0, 72, 0
2, 227108, Note_on_c, 0, 69, 0
2, 227110, Control_c, 0, 64, 127
2, 227121, Note_on_c, 0, 57, 0
2, 227153, Note_on_c, 0, 65, 0
2, 227188, Note_on_c, 0, 62, 0
2, 227406, Note_on_c, 0, 51, 29
2, 227464, Note_on_c, 0, 51, 0
2, 227489, Note_on_c, 0, 52, 29
2, 227528, Note_on_c, 0, 52, 0
2, 227531, Note_on_c, 0, 57, 40
2, 227535, Note_on_c, 0, 65, 47
2, 227541, Note_on_c, 0, 53, 47
2, 227542, Note_on_c, 0, 62, 34
2, 227550, Note_on_c, 0, 60, 34
2, 227573, Control_c, 0, 64, 0
2, 228003, Note_on_c, 0, 50, 36
2, 228029, Note_on_c, 0, 53, 0
2, 228165, Note_on_c, 0, 57, 0
2, 228166, Note_on_c, 0, 65, 0
2, 228208, Note_on_c, 0, 60, 0
2, 228232, Note_on_c, 0, 62, 0
2, 228423, Note_on_c, 0, 50, 0
2, 228501, Note_on_c, 0, 43, 42
2, 228509, Note_on_c, 0, 62, 36
2, 228511, Note_on_c, 0, 67, 52
2, 228526, Note_on_c, 0, 53, 40
2, 228529, Note_on_c, 0, 60, 34
2, 228532, Note_on_c, 0, 57, 35
2, 228945, Note_on_c, 0, 43, 0
2, 228998, Control_c, 0, 64, 127
2, 229002, Note_on_c, 0, 57, 0
2, 229013, Note_on_c, 0, 53, 0
2, 229016, Note_on_c, 0, 60, 0
2, 229021, Note_on_c, 0, 62, 0
2, 229250, Note_on_c, 0, 67, 0
2, 229469, Control_c, 0, 64, 0
2, 229486, Note_on_c, 0, 67, 77
2, 229490, Note_on_c, 0, 64, 82
2, 229494, Note_on_c, 0, 60, 87
2, 229498, Note_on_c, 0, 53, 66
2, 229502, Note_on_c, 0, 57, 63
2, 229504, Note_on_c, 0, 55, 62
2, 229652, Control_c, 0, 64, 127
2, 229742, Note_on_c, 0, 67, 0
2, 229786, Note_on_c, 0, 55, 0
2, 229810, Note_on_c, 0, 64, 0
2, 229811, Note_on_c, 0, 60, 0
2, 229856, Note_on_c, 0, 57, 0
2, 229865, Note_on_c, 0, 53, 0
2, 229960, Control_c, 0, 64, 0
2, 229977, Note_on_c, 0, 69, 65
2, 229981, Note_on_c, 0, 65, 58
2, 229982, Note_on_c, 0, 63, 62
2, 229990, Note_on_c, 0, 55, 60
2, 229991, Note_on_c, 0, 59, 53
2, 230124, Control_c, 0, 64, 127
2, 230167, Note_on_c, 0, 59, 0
2, 230215, Note_on_c, 0, 65, 0
2, 230249, Note_on_c, 0, 69, 0
2, 230299, Note_on_c, 0, 63, 0
2, 230400, Note_on_c, 0, 48, 47
2, 230419, Note_on_c, 0, 70, 67
2, 230427, Note_on_c, 0, 62, 53
2, 230430, Note_on_c, 0, 67, 57
2, 230440, Note_on_c, 0, 63, 52
2, 230442, Control_c, 0, 64, 0
2, 230443, Note_on_c, 0, 55, 0
2, 230444, Note_on_c, 0, 58, 45
2, 230875, Control_c, 0, 64, 127
2, 230956, Note_on_c, 0, 62, 0
2, 230965, Note_on_c, 0, 67, 0
2, 230977, Note_on_c, 0, 58, 0
2, 231083, Note_on_c, 0, 63, 0
2, 231289, Note_on_c, 0, 55, 14
2, 231295, Note_on_c, 0, 70, 0
2, 231308, Control_c, 0, 64, 0
2, 231321, Note_on_c, 0, 67, 33
2, 231334, Note_on_c, 0, 63, 34
2, 231340, Note_on_c, 0, 60, 38
2, 231349, Note_on_c, 0, 58, 26
2, 231405, Note_on_c, 0, 55, 0
2, 231519, Control_c, 0, 64, 127
2, 231556, Note_on_c, 0, 60, 0
2, 231616, Control_c, 0, 64, 0
2, 231636, Note_on_c, 0, 67, 0
2, 231661, Note_on_c, 0, 60, 36
2, 231673, Note_on_c, 0, 69, 55
2, 231674, Note_on_c, 0, 58, 0
2, 231694, Note_on_c, 0, 55, 36
2, 231695, Note_on_c, 0, 60, 0
2, 231714, Note_on_c, 0, 63, 0
2, 231718, Note_on_c, 0, 48, 0
2, 231721, Note_on_c, 0, 69, 0
2, 231739, Note_on_c, 0, 55, 0
2, 231845, Note_on_c, 0, 48, 24
2, 231997, Note_on_c, 0, 48, 0
2, 232117, Note_on_c, 0, 70, 56
2, 232119, Note_on_c, 0, 54, 35
2, 232135, Note_on_c, 0, 55, 52
2, 232136, Note_on_c, 0, 63, 42
2, 232142, Note_on_c, 0, 60, 46
2, 232153, Note_on_c, 0, 67, 24
2, 232170, Note_on_c, 0, 55, 0
2, 232175, Note_on_c, 0, 60, 0
2, 232177, Note_on_c, 0, 54, 0
2, 232187, Note_on_c, 0, 67, 0
2, 232200, Note_on_c, 0, 70, 0
2, 232213, Note_on_c, 0, 63, 0
2, 232610, Note_on_c, 0, 41, 43
2, 232659, Note_on_c, 0, 41, 0
2, 232754, Note_on_c, 0, 57, 49
2, 232757, Note_on_c, 0, 61, 45
2, 232769, Note_on_c, 0, 51, 51
2, 232776, Note_on_c, 0, 65, 28
2, 232781, Note_on_c, 0, 67, 31
2, 232892, Note_on_c, 0, 61, 0
2, 232929, Note_on_c, 0, 62, 25
2, 233080, Note_on_c, 0, 67, 0
2, 233084, Note_on_c, 0, 57, 0
2, 233105, Note_on_c, 0, 62, 0
2, 233114, Note_on_c, 0, 51, 0
2, 233144, Note_on_c, 0, 65, 0
2, 233163, Note_on_c, 0, 48, 33
2, 233211, Note_on_c, 0, 48, 0
2, 233248, Note_on_c, 0, 51, 42
2, 233249, Note_on_c, 0, 57, 36
2, 233255, Note_on_c, 0, 67, 35
2, 233257, Note_on_c, 0, 61, 46
2, 233269, Note_on_c, 0, 65, 22
2, 233345, Note_on_c, 0, 61, 0
2, 233381, Note_on_c, 0, 62, 32
2, 233723, Note_on_c, 0, 57, 0
2, 233743, Note_on_c, 0, 51, 0
2, 233766, Note_on_c, 0, 62, 0
2, 233767, Note_on_c, 0, 65, 0
2, 233771, Control_c, 0, 64, 127
2, 233796, Note_on_c, 0, 67, 0
2, 234149, Note_on_c, 0, 54, 30
2, 234166, Control_c, 0, 64, 0
2, 234210, Note_on_c, 0, 54, 0
2, 234245, Note_on_c, 0, 70, 56
2, 234254, Note_on_c, 0, 55, 41
2, 234262, Note_on_c, 0, 65, 43
2, 234280, Note_on_c, 0, 60, 36
2, 234357, Note_on_c, 0, 60, 0
2, 234363, Note_on_c, 0, 65, 0
2, 234389, Note_on_c, 0, 70, 0
2, 234477, Note_on_c, 0, 55, 0
2, 234581, Note_on_c, 0, 69, 43
2, 234583, Note_on_c, 0, 59, 45
2, 234584, Note_on_c, 0, 64, 47
2, 234607, Note_on_c, 0, 54, 32
2, 234623, Note_on_c, 0, 69, 0
2, 234624, Note_on_c, 0, 59, 0
2, 234664, Note_on_c, 0, 64, 0
2, 234739, Note_on_c, 0, 54, 0
2, 234764, Note_on_c, 0, 70, 45
2, 234768, Note_on_c, 0, 55, 35
2, 234815, Note_on_c, 0, 70, 0
2, 234846, Note_on_c, 0, 55, 0
2, 235060, Note_on_c, 0, 71, 61
2, 235064, Note_on_c, 0, 56, 51
2, 235076, Note_on_c, 0, 61, 57
2, 235077, Note_on_c, 0, 66, 59
2, 235137, Note_on_c, 0, 71, 0
2, 235190, Note_on_c, 0, 66, 0
2, 235196, Note_on_c, 0, 61, 0
2, 235210, Note_on_c, 0, 56, 0
2, 235255, Note_on_c, 0, 70, 58
2, 235270, Note_on_c, 0, 55, 43
2, 235301, Note_on_c, 0, 65, 31
2, 235305, Note_on_c, 0, 60, 30
2, 235545, Note_on_c, 0, 65, 0
2, 235572, Note_on_c, 0, 70, 0
2, 235580, Note_on_c, 0, 60, 0
2, 235702, Note_on_c, 0, 69, 38
2, 235708, Note_on_c, 0, 55, 0
2, 235717, Note_on_c, 0, 54, 37
2, 235731, Note_on_c, 0, 59, 28
2, 235734, Note_on_c, 0, 64, 29
2, 235790, Note_on_c, 0, 69, 0
2, 235797, Note_on_c, 0, 59, 0
2, 235812, Control_c, 0, 64, 127
2, 235843, Note_on_c, 0, 64, 0
2, 235975, Control_c, 0, 64, 0
2, 236030, Note_on_c, 0, 70, 56
2, 236033, Note_on_c, 0, 54, 0
2, 236045, Note_on_c, 0, 65, 30
2, 236047, Note_on_c, 0, 55, 61
2, 236055, Note_on_c, 0, 60, 39
2, 236086, Note_on_c, 0, 60, 0
2, 236090, Control_c, 0, 64, 127
2, 236099, Note_on_c, 0, 65, 0
2, 236156, Note_on_c, 0, 70, 0
2, 236240, Note_on_c, 0, 55, 0
2, 236548, Note_on_c, 0, 86, 76
2, 236601, Control_c, 0, 64, 0
2, 236660, Note_on_c, 0, 86, 0
2, 236690, Note_on_c, 0, 74, 50
2, 236733, Note_on_c, 0, 74, 0
2, 236868, Note_on_c, 0, 74, 42
2, 236924, Note_on_c, 0, 74, 0
2, 237022, Note_on_c, 0, 86, 71
2, 237139, Note_on_c, 0, 86, 0
2, 237343, Note_on_c, 0, 74, 47
2, 237412, Note_on_c, 0, 74, 0
2, 237477, Note_on_c, 0, 86, 73
2, 237601, Note_on_c, 0, 86, 0
2, 237634, Note_on_c, 0, 74, 37
2, 237678, Note_on_c, 0, 74, 0
2, 237804, Note_on_c, 0, 74, 40
2, 237878, Note_on_c, 0, 74, 0
2, 237960, Note_on_c, 0, 86, 71
2, 237968, Note_on_c, 0, 64, 50
2, 237978, Note_on_c, 0, 60, 49
2, 237992, Note_on_c, 0, 59, 42
2, 238015, Note_on_c, 0, 60, 0
2, 238037, Note_on_c, 0, 64, 0
2, 238038, Note_on_c, 0, 59, 0
2, 238085, Note_on_c, 0, 86, 0
2, 238141, Note_on_c, 0, 74, 34
2, 238185, Note_on_c, 0, 74, 0
2, 238296, Note_on_c, 0, 74, 37
2, 238369, Note_on_c, 0, 74, 0
2, 238437, Note_on_c, 0, 86, 73
2, 238569, Note_on_c, 0, 86, 0
2, 238604, Note_on_c, 0, 74, 35
2, 238656, Note_on_c, 0, 74, 0
2, 238780, Note_on_c, 0, 74, 47
2, 238847, Note_on_c, 0, 74, 0
2, 238925, Note_on_c, 0, 86, 75
2, 238936, Note_on_c, 0, 64, 63
2, 238959, Note_on_c, 0, 60, 44
2, 238969, Note_on_c, 0, 59, 36
2, 238993, Note_on_c, 0, 60, 0
2, 239001, Note_on_c, 0, 64, 0
2, 239061, Note_on_c, 0, 86, 0
2, 239073, Note_on_c, 0, 59, 0
2, 239089, Note_on_c, 0, 74, 40
2, 239131, Note_on_c, 0, 74, 0
2, 239265, Note_on_c, 0, 74, 51
2, 239348, Note_on_c, 0, 74, 0
2, 239433, Note_on_c, 0, 87, 79
2, 239547, Note_on_c, 0, 87, 0
2, 239752, Note_on_c, 0, 75, 63
2, 239819, Note_on_c, 0, 75, 0
2, 239890, Note_on_c, 0, 87, 78
2, 239941, Note_on_c, 0, 65, 45
2, 239954, Note_on_c, 0, 60, 37
2, 239957, Note_on_c, 0, 54, 29
2, 239976, Note_on_c, 0, 65, 0
2, 239993, Note_on_c, 0, 60, 0
2, 240018, Note_on_c, 0, 54, 0
2, 240032, Note_on_c, 0, 87, 0
2, 240052, Note_on_c, 0, 75, 37
2, 240087, Note_on_c, 0, 75, 0
2, 240211, Note_on_c, 0, 75, 56
2, 240272, Note_on_c, 0, 75, 0
2, 240354, Note_on_c, 0, 87, 80
2, 240387, Note_on_c, 0, 38, 53
2, 240424, Note_on_c, 0, 38, 0
2, 240494, Note_on_c, 0, 87, 0
2, 240511, Note_on_c, 0, 85, 46
2, 240575, Control_c, 0, 64, 127
2, 240696, Note_on_c, 0, 80, 45
2, 240697, Note_on_c, 0, 85, 0
2, 240794, Note_on_c, 0, 80, 0
2, 240845, Control_c, 0, 64, 0
2, 241013, Note_on_c, 0, 65, 41
2, 241026, Note_on_c, 0, 54, 36
2, 241040, Note_on_c, 0, 60, 40
2, 241468, Note_on_c, 0, 60, 0
2, 241477, Note_on_c, 0, 65, 0
2, 241499, Control_c, 0, 64, 127
2, 241576, Note_on_c, 0, 54, 0
2, 241814, Note_on_c, 0, 57, 39
2, 241823, Note_on_c, 0, 52, 50
2, 241826, Note_on_c, 0, 59, 32
2, 241840, Note_on_c, 0, 62, 16
2, 241845, Control_c, 0, 64, 0
2, 242326, Note_on_c, 0, 88, 81
2, 242330, Note_on_c, 0, 76, 71
2, 242434, Note_on_c, 0, 76, 0
2, 242517, Note_on_c, 0, 86, 62
2, 242543, Note_on_c, 0, 62, 0
2, 242549, Note_on_c, 0, 88, 0
2, 242613, Note_on_c, 0, 57, 0
2, 242614, Note_on_c, 0, 59, 0
2, 242664, Note_on_c, 0, 83, 57
2, 242669, Note_on_c, 0, 86, 0
2, 242784, Note_on_c, 0, 83, 0
2, 242794, Note_on_c, 0, 52, 0
2, 242823, Note_on_c, 0, 76, 44
2, 242857, Note_on_c, 0, 62, 34
2, 242878, Note_on_c, 0, 59, 35
2, 242879, Note_on_c, 0, 57, 29
2, 242894, Note_on_c, 0, 76, 0
2, 242924, Note_on_c, 0, 59, 0
2, 242933, Note_on_c, 0, 62, 0
2, 242940, Note_on_c, 0, 57, 0
2, 243408, Note_on_c, 0, 62, 36
2, 243417, Note_on_c, 0, 59, 42
2, 243421, Note_on_c, 0, 52, 36
2, 243428, Note_on_c, 0, 57, 33
2, 243444, Control_c, 0, 64, 127
2, 243695, Note_on_c, 0, 59, 0
2, 243745, Note_on_c, 0, 59, 25
2, 243807, Note_on_c, 0, 62, 0
2, 243819, Control_c, 0, 64, 0
2, 243892, Note_on_c, 0, 93, 82
2, 243910, Note_on_c, 0, 81, 71
2, 243967, Note_on_c, 0, 59, 0
2, 243973, Control_c, 0, 64, 127
2, 243974, Note_on_c, 0, 81, 0
2, 243995, Note_on_c, 0, 93, 0
2, 243998, Note_on_c, 0, 57, 0
2, 244054, Note_on_c, 0, 91, 44
2, 244139, Note_on_c, 0, 91, 0
2, 244204, Control_c, 0, 64, 0
2, 244212, Note_on_c, 0, 93, 88
2, 244215, Note_on_c, 0, 62, 58
2, 244217, Note_on_c, 0, 59, 53
2, 244225, Note_on_c, 0, 81, 66
2, 244234, Note_on_c, 0, 57, 37
2, 244302, Note_on_c, 0, 62, 0
2, 244309, Note_on_c, 0, 81, 0
2, 244367, Note_on_c, 0, 91, 57
2, 244426, Note_on_c, 0, 93, 0
2, 244463, Control_c, 0, 64, 127
2, 244479, Note_on_c, 0, 59, 0
2, 244496, Note_on_c, 0, 57, 0
2, 244517, Note_on_c, 0, 86, 50
2, 244575, Note_on_c, 0, 91, 0
2, 244651, Note_on_c, 0, 86, 0
2, 244689, Note_on_c, 0, 81, 50
2, 244724, Note_on_c, 0, 59, 35
2, 244726, Note_on_c, 0, 81, 0
2, 244744, Note_on_c, 0, 57, 25
2, 244800, Control_c, 0, 64, 0
2, 244841, Note_on_c, 0, 88, 80
2, 244868, Note_on_c, 0, 57, 0
2, 244894, Note_on_c, 0, 59, 0
2, 244991, Note_on_c, 0, 88, 0
2, 245034, Note_on_c, 0, 86, 33
2, 245081, Note_on_c, 0, 86, 0
2, 245160, Note_on_c, 0, 88, 88
2, 245174, Note_on_c, 0, 62, 55
2, 245195, Note_on_c, 0, 59, 41
2, 245207, Note_on_c, 0, 57, 31
2, 245284, Note_on_c, 0, 62, 0
2, 245320, Note_on_c, 0, 86, 66
2, 245358, Note_on_c, 0, 88, 0
2, 245359, Note_on_c, 0, 52, 0
2, 245379, Note_on_c, 0, 59, 0
2, 245393, Note_on_c, 0, 57, 0
2, 245406, Control_c, 0, 64, 127
2, 245480, Note_on_c, 0, 86, 0
2, 245603, Note_on_c, 0, 79, 8
2, 245655, Note_on_c, 0, 79, 0
2, 245782, Control_c, 0, 64, 0
2, 245822, Note_on_c, 0, 84, 80
2, 245833, Note_on_c, 0, 65, 36
2, 245843, Note_on_c, 0, 60, 29
2, 245845, Note_on_c, 0, 58, 25
2, 245851, Note_on_c, 0, 55, 42
2, 245966, Note_on_c, 0, 84, 0
2, 245993, Note_on_c, 0, 82, 46
2, 246006, Note_on_c, 0, 60, 0
2, 246036, Note_on_c, 0, 82, 0
2, 246065, Note_on_c, 0, 65, 0
2, 246144, Note_on_c, 0, 84, 89
2, 246158, Note_on_c, 0, 60, 31
2, 246236, Note_on_c, 0, 58, 0
2, 246261, Note_on_c, 0, 82, 47
2, 246268, Note_on_c, 0, 60, 0
2, 246304, Note_on_c, 0, 84, 0
2, 246377, Note_on_c, 0, 77, 45
2, 246411, Note_on_c, 0, 55, 0
2, 246426, Note_on_c, 0, 82, 0
2, 246475, Note_on_c, 0, 77, 0
2, 246524, Control_c, 0, 64, 127
2, 246525, Note_on_c, 0, 72, 46
2, 246641, Note_on_c, 0, 72, 0
2, 246696, Control_c, 0, 64, 0
2, 247073, Note_on_c, 0, 65, 59
2, 247089, Note_on_c, 0, 58, 35
2, 247098, Note_on_c, 0, 60, 44
2, 247108, Note_on_c, 0, 65, 0
2, 247133, Note_on_c, 0, 60, 0
2, 247225, Note_on_c, 0, 58, 0
2, 247416, Note_on_c, 0, 69, 64
2, 247498, Note_on_c, 0, 69, 0
2, 247556, Note_on_c, 0, 70, 71
2, 247613, Note_on_c, 0, 58, 26
2, 247642, Note_on_c, 0, 70, 0
2, 247683, Note_on_c, 0, 58, 0
2, 247698, Control_c, 0, 64, 127
2, 247719, Note_on_c, 0, 72, 55
2, 247821, Note_on_c, 0, 72, 0
2, 247861, Note_on_c, 0, 73, 54
2, 247961, Note_on_c, 0, 73, 0
2, 248035, Note_on_c, 0, 75, 53
2, 248073, Control_c, 0, 64, 0
2, 248079, Note_on_c, 0, 69, 26
2, 248086, Note_on_c, 0, 75, 0
2, 248096, Note_on_c, 0, 58, 20
2, 248102, Note_on_c, 0, 64, 28
2, 248112, Note_on_c, 0, 69, 0
2, 248142, Note_on_c, 0, 64, 0
2, 248172, Note_on_c, 0, 58, 0
2, 248246, Control_c, 0, 64, 127
2, 248488, Note_on_c, 0, 80, 62
2, 248554, Control_c, 0, 64, 0
2, 248620, Note_on_c, 0, 80, 0
2, 248631, Note_on_c, 0, 63, 34
2, 248635, Note_on_c, 0, 85, 54
2, 248652, Note_on_c, 0, 58, 35
2, 248663, Note_on_c, 0, 52, 29
2, 248717, Control_c, 0, 64, 127
2, 248760, Note_on_c, 0, 63, 0
2, 248791, Note_on_c, 0, 52, 0
2, 248794, Note_on_c, 0, 90, 63
2, 248839, Note_on_c, 0, 85, 0
2, 248882, Note_on_c, 0, 58, 0
2, 248904, Note_on_c, 0, 90, 0
2, 248927, Note_on_c, 0, 92, 72
2, 248940, Note_on_c, 0, 80, 50
2, 249049, Note_on_c, 0, 80, 0
2, 249054, Control_c, 0, 64, 0
2, 249056, Note_on_c, 0, 92, 0
2, 249074, Note_on_c, 0, 90, 45
2, 249113, Note_on_c, 0, 90, 0
2, 249194, Note_on_c, 0, 92, 77
2, 249204, Note_on_c, 0, 63, 32
2, 249205, Note_on_c, 0, 80, 55
2, 249215, Note_on_c, 0, 58, 37
2, 249223, Note_on_c, 0, 52, 40
2, 249289, Note_on_c, 0, 80, 0
2, 249347, Note_on_c, 0, 90, 62
2, 249373, Note_on_c, 0, 92, 0
2, 249391, Control_c, 0, 64, 127
2, 249427, Note_on_c, 0, 52, 0
2, 249477, Note_on_c, 0, 85, 37
2, 249485, Note_on_c, 0, 58, 0
2, 249487, Note_on_c, 0, 63, 0
2, 249498, Note_on_c, 0, 90, 0
2, 249574, Note_on_c, 0, 85, 0
2, 249575, Note_on_c, 0, 80, 23
2, 249614, Note_on_c, 0, 80, 0
2, 249678, Note_on_c, 0, 79, 46
2, 249699, Control_c, 0, 64, 0
2, 249707, Note_on_c, 0, 64, 36
2, 249730, Note_on_c, 0, 55, 40
2, 249731, Note_on_c, 0, 60, 30
2, 249753, Note_on_c, 0, 91, 42
2, 249775, Note_on_c, 0, 57, 24
2, 249901, Control_c, 0, 64, 127
2, 249940, Control_c, 0, 64, 0
2, 250067, Note_on_c, 0, 60, 0
2, 250094, Control_c, 0, 64, 127
2, 250103, Note_on_c, 0, 79, 0
2, 250109, Note_on_c, 0, 55, 0
2, 250117, Note_on_c, 0, 91, 0
2, 250139, Note_on_c, 0, 64, 0
2, 250273, Note_on_c, 0, 57, 0
2, 250429, Note_on_c, 0, 88, 64
2, 250440, Note_on_c, 0, 76, 64
2, 250444, Note_on_c, 0, 64, 53
2, 250448, Note_on_c, 0, 55, 41
2, 250456, Note_on_c, 0, 60, 41
2, 250460, Note_on_c, 0, 57, 35
2, 250466, Note_on_c, 0, 81, 35
2, 250488, Control_c, 0, 64, 0
2, 250502, Note_on_c, 0, 60, 0
2, 250507, Note_on_c, 0, 81, 0
2, 250517, Note_on_c, 0, 88, 0
2, 250529, Note_on_c, 0, 76, 0
2, 250531, Note_on_c, 0, 64, 0
2, 250559, Note_on_c, 0, 55, 0
2, 250585, Note_on_c, 0, 57, 0
2, 250630, Note_on_c, 0, 55, 24
2, 250632, Control_c, 0, 64, 127
2, 250640, Note_on_c, 0, 84, 58
2, 250643, Note_on_c, 0, 64, 34
2, 250657, Note_on_c, 0, 57, 18
2, 250668, Note_on_c, 0, 60, 43
2, 250670, Note_on_c, 0, 72, 47
2, 250706, Note_on_c, 0, 60, 0
2, 250754, Note_on_c, 0, 64, 0
2, 250794, Note_on_c, 0, 55, 0
2, 250795, Note_on_c, 0, 72, 0
2, 250808, Note_on_c, 0, 57, 0
2, 250846, Note_on_c, 0, 84, 0
2, 250915, Note_on_c, 0, 81, 64
2, 250921, Control_c, 0, 64, 0
2, 250924, Note_on_c, 0, 55, 50
2, 250943, Note_on_c, 0, 64, 44
2, 250947, Note_on_c, 0, 60, 41
2, 250948, Note_on_c, 0, 57, 34
2, 251013, Note_on_c, 0, 81, 0
2, 251028, Control_c, 0, 64, 127
2, 251039, Note_on_c, 0, 60, 0
2, 251039, Note_on_c, 0, 55, 0
2, 251062, Note_on_c, 0, 57, 0
2, 251124, Note_on_c, 0, 64, 0
2, 251369, Note_on_c, 0, 82, 69
2, 251374, Note_on_c, 0, 67, 80
2, 251375, Note_on_c, 0, 60, 72
2, 251375, Note_on_c, 0, 63, 65
2, 251378, Note_on_c, 0, 56, 67
2, 251384, Control_c, 0, 64, 0
2, 251386, Note_on_c, 0, 70, 77
2, 251387, Note_on_c, 0, 79, 61
2, 251388, Note_on_c, 0, 75, 69
2, 251518, Control_c, 0, 64, 127
2, 251667, Note_on_c, 0, 79, 0
2, 251708, Note_on_c, 0, 82, 0
2, 251715, Note_on_c, 0, 70, 0
2, 251726, Note_on_c, 0, 75, 0
2, 251730, Note_on_c, 0, 67, 0
2, 251773, Note_on_c, 0, 56, 0
2, 251776, Note_on_c, 0, 60, 0
2, 251783, Note_on_c, 0, 63, 0
2, 251857, Note_on_c, 0, 75, 72
2, 251865, Note_on_c, 0, 63, 62
2, 251867, Note_on_c, 0, 79, 74
2, 251868, Note_on_c, 0, 56, 60
2, 251875, Control_c, 0, 64, 0
2, 251876, Note_on_c, 0, 60, 68
2, 251878, Note_on_c, 0, 67, 61
2, 251878, Note_on_c, 0, 73, 51
2, 251911, Note_on_c, 0, 73, 0
2, 252009, Control_c, 0, 64, 127
2, 252058, Note_on_c, 0, 76, 27
2, 252081, Note_on_c, 0, 67, 0
2, 252137, Note_on_c, 0, 76, 0
2, 252162, Note_on_c, 0, 75, 0
2, 252184, Note_on_c, 0, 79, 0
2, 252204, Note_on_c, 0, 56, 0
2, 252249, Note_on_c, 0, 63, 0
2, 252261, Note_on_c, 0, 60, 0
2, 252315, Note_on_c, 0, 77, 76
2, 252320, Note_on_c, 0, 73, 73
2, 252327, Control_c, 0, 64, 0
2, 252329, Note_on_c, 0, 56, 62
2, 252332, Note_on_c, 0, 62, 66
2, 252334, Note_on_c, 0, 66, 70
2, 252344, Note_on_c, 0, 75, 37
2, 252466, Note_on_c, 0, 75, 0
2, 252471, Control_c, 0, 64, 127
2, 252527, Note_on_c, 0, 73, 0
2, 252529, Note_on_c, 0, 74, 55
2, 252607, Note_on_c, 0, 66, 0
2, 252623, Note_on_c, 0, 74, 0
2, 252654, Note_on_c, 0, 62, 0
2, 252677, Note_on_c, 0, 77, 0
2, 252679, Note_on_c, 0, 56, 0
2, 252803, Note_on_c, 0, 74, 71
2, 252812, Note_on_c, 0, 70, 63
2, 252814, Note_on_c, 0, 67, 60
2, 252816, Note_on_c, 0, 56, 61
2, 252821, Note_on_c, 0, 66, 69
2, 252825, Note_on_c, 0, 62, 59
2, 252837, Control_c, 0, 64, 0
2, 252881, Note_on_c, 0, 70, 0
2, 252940, Note_on_c, 0, 67, 0
2, 252981, Control_c, 0, 64, 127
2, 253030, Note_on_c, 0, 70, 32
2, 253289, Note_on_c, 0, 66, 0
2, 253323, Note_on_c, 0, 74, 0
2, 253340, Note_on_c, 0, 62, 0
2, 253347, Note_on_c, 0, 70, 0
2, 253359, Note_on_c, 0, 67, 29
2, 253389, Note_on_c, 0, 56, 0
2, 253399, Note_on_c, 0, 67, 0
2, 253449, Note_on_c, 0, 65, 47
2, 253453, Control_c, 0, 64, 0
2, 253462, Note_on_c, 0, 62, 46
2, 253474, Note_on_c, 0, 55, 54
2, 253483, Note_on_c, 0, 60, 48
2, 253588, Control_c, 0, 64, 127
2, 253632, Note_on_c, 0, 65, 0
2, 253685, Note_on_c, 0, 62, 0
2, 253717, Note_on_c, 0, 60, 0
2, 253870, Note_on_c, 0, 62, 42
2, 253912, Note_on_c, 0, 62, 0
2, 253943, Control_c, 0, 64, 0
2, 253955, Note_on_c, 0, 63, 50
2, 253990, Note_on_c, 0, 63, 0
2, 254062, Note_on_c, 0, 65, 55
2, 254107, Note_on_c, 0, 65, 0
2, 254139, Note_on_c, 0, 66, 53
2, 254221, Note_on_c, 0, 68, 57
2, 254222, Note_on_c, 0, 66, 0
2, 254253, Note_on_c, 0, 68, 0
2, 254327, Note_on_c, 0, 69, 33
2, 254381, Note_on_c, 0, 69, 0
2, 254411, Note_on_c, 0, 71, 40
2, 254475, Note_on_c, 0, 71, 0
2, 254496, Note_on_c, 0, 72, 51
2, 254529, Note_on_c, 0, 72, 0
2, 254589, Note_on_c, 0, 74, 60
2, 254658, Note_on_c, 0, 74, 0
2, 254671, Note_on_c, 0, 75, 50
2, 254755, Note_on_c, 0, 75, 0
2, 254837, Note_on_c, 0, 77, 51
2, 254890, Note_on_c, 0, 77, 0
2, 254935, Note_on_c, 0, 79, 70
2, 254939, Note_on_c, 0, 55, 0
2, 255036, Note_on_c, 0, 79, 0
2, 255124, Note_on_c, 0, 77, 67
2, 255204, Note_on_c, 0, 77, 0
2, 255265, Note_on_c, 0, 75, 64
2, 255359, Note_on_c, 0, 75, 0
2, 255416, Note_on_c, 0, 74, 59
2, 255483, Note_on_c, 0, 63, 28
2, 255491, Note_on_c, 0, 74, 0
2, 255493, Note_on_c, 0, 67, 24
2, 255509, Note_on_c, 0, 57, 25
2, 255571, Note_on_c, 0, 75, 56
2, 255625, Note_on_c, 0, 67, 0
2, 255674, Note_on_c, 0, 75, 0
2, 255713, Note_on_c, 0, 72, 30
2, 255751, Note_on_c, 0, 72, 0
2, 255838, Note_on_c, 0, 74, 49
2, 255904, Note_on_c, 0, 74, 0
2, 255963, Note_on_c, 0, 71, 31
2, 256003, Note_on_c, 0, 71, 0
2, 256081, Note_on_c, 0, 72, 48
2, 256144, Note_on_c, 0, 72, 0
2, 256175, Note_on_c, 0, 63, 0
2, 256246, Note_on_c, 0, 69, 63
2, 256319, Note_on_c, 0, 69, 0
2, 256375, Note_on_c, 0, 57, 0
2, 256477, Note_on_c, 0, 65, 32
2, 256542, Note_on_c, 0, 65, 0
2, 256640, Note_on_c, 0, 63, 51
2, 256725, Note_on_c, 0, 63, 0
2, 256849, Note_on_c, 0, 62, 59
2, 256932, Note_on_c, 0, 62, 0
2, 256998, Note_on_c, 0, 63, 57
2, 257104, Note_on_c, 0, 63, 0
2, 257141, Note_on_c, 0, 65, 65
2, 257235, Control_c, 0, 64, 127
2, 257276, Note_on_c, 0, 65, 0
2, 257302, Control_c, 0, 64, 0
2, 257351, Note_on_c, 0, 62, 51
2, 257352, Note_on_c, 0, 50, 26
2, 257421, Note_on_c, 0, 50, 0
2, 257600, Note_on_c, 0, 57, 55
2, 257672, Note_on_c, 0, 62, 0
2, 257686, Note_on_c, 0, 57, 0
2, 257957, Control_c, 0, 64, 127
2, 258069, Note_on_c, 0, 54, 25
2, 258072, Control_c, 0, 64, 0
2, 258093, Note_on_c, 0, 72, 64
2, 258099, Note_on_c, 0, 62, 70
2, 258105, Note_on_c, 0, 65, 62
2, 258109, Note_on_c, 0, 69, 45
2, 258110, Note_on_c, 0, 54, 0
2, 258119, Note_on_c, 0, 57, 55
2, 258145, Note_on_c, 0, 69, 0
2, 258155, Note_on_c, 0, 65, 0
2, 258175, Note_on_c, 0, 72, 0
2, 258206, Note_on_c, 0, 62, 0
2, 258313, Control_c, 0, 64, 127
2, 258324, Note_on_c, 0, 57, 0
2, 258342, Note_on_c, 0, 69, 62
2, 258366, Note_on_c, 0, 60, 38
2, 258370, Note_on_c, 0, 65, 35
2, 258372, Note_on_c, 0, 62, 37
2, 258389, Note_on_c, 0, 53, 32
2, 258421, Note_on_c, 0, 65, 0
2, 258431, Note_on_c, 0, 62, 0
2, 258470, Note_on_c, 0, 69, 0
2, 258521, Note_on_c, 0, 60, 0
2, 258621, Control_c, 0, 64, 0
2, 258674, Note_on_c, 0, 53, 0
2, 258740, Note_on_c, 0, 50, 37
2, 258746, Control_c, 0, 64, 127
2, 258749, Note_on_c, 0, 65, 47
2, 258760, Note_on_c, 0, 60, 43
2, 258790, Note_on_c, 0, 50, 0
2, 258794, Note_on_c, 0, 57, 20
2, 258801, Note_on_c, 0, 60, 0
2, 258834, Note_on_c, 0, 57, 0
2, 258843, Note_on_c, 0, 65, 0
2, 259079, Note_on_c, 0, 65, 40
2, 259081, Note_on_c, 0, 67, 57
2, 259084, Control_c, 0, 64, 0
2, 259091, Note_on_c, 0, 57, 60
2, 259093, Note_on_c, 0, 60, 64
2, 259103, Note_on_c, 0, 55, 60
2, 259333, Control_c, 0, 64, 127
2, 259449, Note_on_c, 0, 57, 0
2, 259527, Note_on_c, 0, 65, 0
2, 259535, Control_c, 0, 64, 0
2, 259538, Note_on_c, 0, 55, 0
2, 259557, Note_on_c, 0, 60, 0
2, 259569, Note_on_c, 0, 43, 71
2, 259583, Control_c, 0, 64, 127
2, 259585, Note_on_c, 0, 67, 0
2, 259659, Note_on_c, 0, 43, 0
2, 260209, Control_c, 0, 64, 0
2, 260215, Note_on_c, 0, 59, 68
2, 260217, Note_on_c, 0, 53, 71
2, 260218, Note_on_c, 0, 64, 72
2, 260219, Note_on_c, 0, 91, 77
2, 260226, Note_on_c, 0, 86, 73
2, 260228, Note_on_c, 0, 79, 72
2, 260284, Note_on_c, 0, 64, 0
2, 260296, Note_on_c, 0, 79, 0
2, 260302, Note_on_c, 0, 86, 0
2, 260320, Note_on_c, 0, 53, 0
2, 260321, Note_on_c, 0, 59, 0
2, 260344, Note_on_c, 0, 91, 0
2, 260697, Note_on_c, 0, 93, 76
2, 260700, Note_on_c, 0, 59, 59
2, 260701, Note_on_c, 0, 53, 64
2, 260703, Note_on_c, 0, 88, 74
2, 260706, Note_on_c, 0, 64, 70
2, 260708, Note_on_c, 0, 81, 71
2, 260744, Note_on_c, 0, 53, 0
2, 260760, Note_on_c, 0, 81, 0
2, 260776, Note_on_c, 0, 64, 0
2, 260785, Note_on_c, 0, 88, 0
2, 260788, Note_on_c, 0, 59, 0
2, 260801, Note_on_c, 0, 93, 0
2, 261176, Note_on_c, 0, 58, 69
2, 261182, Note_on_c, 0, 63, 64
2, 261183, Note_on_c, 0, 94, 82
2, 261185, Note_on_c, 0, 62, 68
2, 261186, Note_on_c, 0, 82, 90
2, 261187, Note_on_c, 0, 67, 73
2, 261190, Control_c, 0, 64, 127
2, 261190, Note_on_c, 0, 87, 81
2, 261198, Note_on_c, 0, 91, 66
2, 261239, Note_on_c, 0, 82, 0
2, 261300, Note_on_c, 0, 87, 0
2, 261317, Note_on_c, 0, 62, 0
2, 261333, Note_on_c, 0, 63, 0
2, 261343, Note_on_c, 0, 91, 0
2, 261353, Note_on_c, 0, 82, 55
2, 261354, Note_on_c, 0, 67, 0
2, 261367, Note_on_c, 0, 94, 0
2, 261413, Note_on_c, 0, 94, 29
2, 261440, Note_on_c, 0, 82, 0
2, 261442, Note_on_c, 0, 91, 36
2, 261454, Note_on_c, 0, 87, 35
2, 261462, Note_on_c, 0, 62, 18
2, 261513, Note_on_c, 0, 94, 0
2, 261562, Note_on_c, 0, 82, 52
2, 261564, Note_on_c, 0, 62, 0
2, 261565, Note_on_c, 0, 91, 0
2, 261572, Note_on_c, 0, 67, 32
2, 261584, Note_on_c, 0, 94, 35
2, 261588, Note_on_c, 0, 87, 0
2, 261638, Note_on_c, 0, 82, 0
2, 261648, Note_on_c, 0, 67, 0
2, 261660, Control_c, 0, 64, 0
2, 261661, Note_on_c, 0, 94, 0
2, 261690, Note_on_c, 0, 58, 0
2, 262169, Note_on_c, 0, 87, 57
2, 262171, Note_on_c, 0, 63, 43
2, 262175, Note_on_c, 0, 91, 51
2, 262176, Note_on_c, 0, 62, 36
2, 262184, Note_on_c, 0, 67, 32
2, 262188, Note_on_c, 0, 79, 35
2, 262196, Note_on_c, 0, 58, 27
2, 262228, Note_on_c, 0, 67, 0
2, 262246, Note_on_c, 0, 79, 0
2, 262264, Note_on_c, 0, 62, 0
2, 262265, Note_on_c, 0, 58, 0
2, 262291, Note_on_c, 0, 91, 0
2, 262296, Note_on_c, 0, 63, 0
2, 262306, Note_on_c, 0, 87, 0
2, 262631, Note_on_c, 0, 93, 52
2, 262640, Note_on_c, 0, 63, 39
2, 262641, Note_on_c, 0, 87, 46
2, 262645, Note_on_c, 0, 81, 40
2, 262646, Note_on_c, 0, 58, 38
2, 262653, Note_on_c, 0, 67, 32
2, 262692, Note_on_c, 0, 67, 0
2, 262702, Note_on_c, 0, 81, 0
2, 262727, Note_on_c, 0, 63, 0
2, 262740, Note_on_c, 0, 93, 0
2, 262750, Note_on_c, 0, 58, 0
2, 262755, Note_on_c, 0, 87, 0
2, 263109, Note_on_c, 0, 94, 52
2, 263127, Note_on_c, 0, 61, 36
2, 263132, Note_on_c, 0, 58, 35
2, 263140, Note_on_c, 0, 64, 38
2, 263141, Note_on_c, 0, 82, 37
2, 263144, Control_c, 0, 64, 127
2, 263145, Note_on_c, 0, 87, 43
2, 263151, Note_on_c, 0, 55, 36
2, 263154, Note_on_c, 0, 91, 34
2, 263489, Note_on_c, 0, 91, 0
2, 263541, Note_on_c, 0, 94, 0
2, 263554, Note_on_c, 0, 82, 0
2, 263555, Note_on_c, 0, 55, 0
2, 263587, Note_on_c, 0, 87, 0
2, 263600, Note_on_c, 0, 64, 0
2, 263608, Note_on_c, 0, 61, 0
2, 263629, Note_on_c, 0, 58, 0
2, 263661, Note_on_c, 0, 55, 9
2, 263741, Note_on_c, 0, 55, 0
2, 263893, Control_c, 0, 64, 0
2, 263896, Note_on_c, 0, 91, 44
2, 263904, Note_on_c, 0, 85, 42
2, 263909, Note_on_c, 0, 88, 50
2, 263911, Note_on_c, 0, 79, 34
2, 263922, Note_on_c, 0, 64, 40
2, 263930, Note_on_c, 0, 58, 31
2, 263939, Note_on_c, 0, 61, 30
2, 263940, Note_on_c, 0, 55, 31
2, 264085, Control_c, 0, 64, 127
2, 264378, Note_on_c, 0, 64, 0
2, 264398, Note_on_c, 0, 55, 0
2, 264407, Note_on_c, 0, 79, 0
2, 264416, Note_on_c, 0, 58, 0
2, 264417, Note_on_c, 0, 91, 0
2, 264427, Note_on_c, 0, 61, 0
2, 264441, Note_on_c, 0, 85, 0
2, 264465, Note_on_c, 0, 88, 0
2, 264814, Note_on_c, 0, 58, 48
2, 264815, Note_on_c, 0, 61, 44
2, 264817, Note_on_c, 0, 93, 77
2, 264820, Note_on_c, 0, 64, 44
2, 264833, Note_on_c, 0, 81, 71
2, 264854, Note_on_c, 0, 55, 31
2, 264860, Note_on_c, 0, 64, 0
2, 264879, Note_on_c, 0, 61, 0
2, 264888, Note_on_c, 0, 81, 0
2, 264903, Note_on_c, 0, 55, 0
2, 264912, Note_on_c, 0, 58, 0
2, 264924, Note_on_c, 0, 93, 0
2, 265077, Control_c, 0, 64, 0
2, 265106, Note_on_c, 0, 94, 62
2, 265113, Note_on_c, 0, 53, 51
2, 265122, Note_on_c, 0, 58, 53
2, 265126, Note_on_c, 0, 62, 58
2, 265126, Note_on_c, 0, 82, 53
2, 265130, Note_on_c, 0, 89, 61
2, 265490, Control_c, 0, 64, 127
2, 265517, Note_on_c, 0, 89, 0
2, 265539, Note_on_c, 0, 94, 0
2, 265563, Note_on_c, 0, 58, 0
2, 265564, Note_on_c, 0, 82, 0
2, 265578, Note_on_c, 0, 62, 0
2, 265693, Note_on_c, 0, 53, 0
2, 265699, Note_on_c, 0, 90, 18
2, 265747, Note_on_c, 0, 90, 0
2, 265885, Control_c, 0, 64, 0
2, 265937, Note_on_c, 0, 91, 52
2, 265939, Note_on_c, 0, 62, 46
2, 265941, Note_on_c, 0, 79, 56
2, 265942, Note_on_c, 0, 58, 38
2, 265950, Note_on_c, 0, 86, 52
2, 265974, Note_on_c, 0, 53, 25
2, 265989, Note_on_c, 0, 62, 0
2, 265990, Note_on_c, 0, 86, 0
2, 265993, Note_on_c, 0, 79, 0
2, 266018, Note_on_c, 0, 53, 0
2, 266025, Note_on_c, 0, 91, 0
2, 266030, Note_on_c, 0, 58, 0
2, 266404, Note_on_c, 0, 88, 64
2, 266405, Note_on_c, 0, 93, 60
2, 266411, Note_on_c, 0, 81, 48
2, 266417, Note_on_c, 0, 58, 37
2, 266424, Note_on_c, 0, 62, 36
2, 266470, Note_on_c, 0, 81, 0
2, 266498, Note_on_c, 0, 88, 0
2, 266500, Note_on_c, 0, 62, 0
2, 266510, Note_on_c, 0, 58, 0
2, 266511, Note_on_c, 0, 93, 0
2, 266904, Note_on_c, 0, 94, 69
2, 266915, Note_on_c, 0, 82, 62
2, 266917, Note_on_c, 0, 58, 55
2, 266918, Note_on_c, 0, 87, 64
2, 266925, Note_on_c, 0, 61, 53
2, 266927, Note_on_c, 0, 91, 52
2, 266928, Note_on_c, 0, 55, 61
2, 266930, Note_on_c, 0, 64, 57
2, 266934, Control_c, 0, 64, 127
2, 267286, Note_on_c, 0, 91, 0
2, 267330, Note_on_c, 0, 94, 0
2, 267366, Note_on_c, 0, 82, 0
2, 267388, Note_on_c, 0, 61, 0
2, 267396, Note_on_c, 0, 64, 0
2, 267398, Note_on_c, 0, 87, 0
2, 267437, Note_on_c, 0, 58, 0
2, 267507, Note_on_c, 0, 55, 0
2, 267704, Control_c, 0, 64, 0
2, 267708, Note_on_c, 0, 58, 56
2, 267713, Note_on_c, 0, 64, 64
2, 267716, Note_on_c, 0, 91, 54
2, 267717, Note_on_c, 0, 61, 50
2, 267717, Note_on_c, 0, 87, 45
2, 267722, Note_on_c, 0, 79, 53
2, 267723, Note_on_c, 0, 85, 46
2, 267724, Note_on_c, 0, 55, 54
2, 267764, Note_on_c, 0, 55, 0
2, 267785, Note_on_c, 0, 79, 0
2, 267796, Note_on_c, 0, 85, 0
2, 267801, Note_on_c, 0, 64, 0
2, 267802, Note_on_c, 0, 87, 0
2, 267803, Note_on_c, 0, 91, 0
2, 267826, Note_on_c, 0, 61, 0
2, 267880, Control_c, 0, 64, 127
2, 267882, Note_on_c, 0, 58, 0
2, 268129, Control_c, 0, 64, 0
2, 268173, Note_on_c, 0, 58, 59
2, 268175, Note_on_c, 0, 61, 59
2, 268176, Note_on_c, 0, 94, 67
2, 268180, Note_on_c, 0, 64, 68
2, 268181, Note_on_c, 0, 55, 66
2, 268183, Note_on_c, 0, 82, 69
2, 268190, Note_on_c, 0, 87, 62
2, 268212, Note_on_c, 0, 91, 32
2, 268262, Note_on_c, 0, 91, 0
2, 268266, Note_on_c, 0, 55, 0
2, 268273, Note_on_c, 0, 82, 0
2, 268274, Note_on_c, 0, 87, 0
2, 268284, Control_c, 0, 64, 127
2, 268299, Note_on_c, 0, 58, 0
2, 268315, Note_on_c, 0, 64, 0
2, 268327, Note_on_c, 0, 94, 0
2, 268335, Note_on_c, 0, 61, 0
2, 268493, Note_on_c, 0, 61, 25
2, 268534, Note_on_c, 0, 61, 0
2, 268664, Note_on_c, 0, 62, 78
2, 268665, Note_on_c, 0, 63, 70
2, 268667, Note_on_c, 0, 67, 87
2, 268668, Note_on_c, 0, 58, 78
2, 268669, Note_on_c, 0, 98, 89
2, 268670, Note_on_c, 0, 94, 80
2, 268674, Control_c, 0, 64, 0
2, 268674, Note_on_c, 0, 86, 88
2, 268676, Note_on_c, 0, 91, 80
2, 268876, Control_c, 0, 64, 127
2, 269333, Note_on_c, 0, 58, 0
2, 269348, Note_on_c, 0, 67, 0
2, 269370, Note_on_c, 0, 98, 0
2, 269390, Note_on_c, 0, 91, 0
2, 269405, Note_on_c, 0, 94, 0
2, 269410, Note_on_c, 0, 63, 0
2, 269453, Note_on_c, 0, 62, 0
2, 269456, Note_on_c, 0, 86, 0
2, 269761, Control_c, 0, 64, 0
2, 269762, Note_on_c, 0, 94, 53
2, 269780, Note_on_c, 0, 58, 37
2, 269783, Note_on_c, 0, 63, 40
2, 269791, Note_on_c, 0, 67, 39
2, 269796, Note_on_c, 0, 62, 35
2, 269797, Note_on_c, 0, 82, 29
2, 269829, Note_on_c, 0, 67, 0
2, 269830, Note_on_c, 0, 82, 0
2, 269838, Note_on_c, 0, 62, 0
2, 269866, Note_on_c, 0, 58, 0
2, 269874, Note_on_c, 0, 63, 0
2, 269887, Note_on_c, 0, 94, 0
2, 270255, Note_on_c, 0, 58, 40
2, 270260, Note_on_c, 0, 96, 62
2, 270274, Note_on_c, 0, 84, 47
2, 270275, Note_on_c, 0, 67, 28
2, 270276, Note_on_c, 0, 63, 30
2, 270277, Note_on_c, 0, 62, 33
2, 270279, Note_on_c, 0, 91, 46
2, 270323, Note_on_c, 0, 62, 0
2, 270327, Note_on_c, 0, 84, 0
2, 270334, Note_on_c, 0, 67, 0
2, 270338, Note_on_c, 0, 91, 0
2, 270366, Note_on_c, 0, 63, 0
2, 270377, Note_on_c, 0, 96, 0
2, 270416, Note_on_c, 0, 58, 0
2, 270739, Note_on_c, 0, 98, 50
2, 270744, Note_on_c, 0, 67, 44
2, 270745, Note_on_c, 0, 86, 36
2, 270747, Note_on_c, 0, 63, 37
2, 270748, Note_on_c, 0, 57, 46
2, 270757, Note_on_c, 0, 94, 33
2, 270767, Note_on_c, 0, 91, 41
2, 270800, Control_c, 0, 64, 127
2, 271170, Note_on_c, 0, 98, 0
2, 271189, Note_on_c, 0, 91, 0
2, 271195, Note_on_c, 0, 67, 0
2, 271212, Note_on_c, 0, 94, 0
2, 271221, Note_on_c, 0, 86, 0
2, 271237, Note_on_c, 0, 63, 0
2, 271273, Note_on_c, 0, 57, 0
2, 272110, Control_c, 0, 64, 0
2, 272167, Note_on_c, 0, 63, 47
2, 272196, Note_on_c, 0, 73, 46
2, 272204, Note_on_c, 0, 69, 33
2, 272207, Note_on_c, 0, 77, 33
2, 272211, Note_on_c, 0, 57, 32
2, 272225, Control_c, 0, 64, 127
2, 272373, Note_on_c, 0, 77, 0
2, 272378, Note_on_c, 0, 63, 0
2, 272382, Note_on_c, 0, 69, 0
2, 272457, Note_on_c, 0, 73, 0
2, 272463, Note_on_c, 0, 57, 0
2, 272525, Note_on_c, 0, 67, 47
2, 272528, Note_on_c, 0, 72, 58
2, 272533, Control_c, 0, 64, 0
2, 272534, Note_on_c, 0, 77, 45
2, 272541, Note_on_c, 0, 62, 47
2, 272704, Note_on_c, 0, 67, 0
2, 272721, Note_on_c, 0, 72, 0
2, 272733, Note_on_c, 0, 62, 0
2, 272758, Note_on_c, 0, 77, 0
2, 273181, Note_on_c, 0, 82, 57
2, 273206, Note_on_c, 0, 77, 47
2, 273215, Note_on_c, 0, 67, 27
2, 273215, Note_on_c, 0, 72, 22
2, 273320, Note_on_c, 0, 72, 0
2, 273330, Note_on_c, 0, 77, 0
2, 273334, Note_on_c, 0, 82, 0
2, 273373, Note_on_c, 0, 67, 0
2, 273667, Note_on_c, 0, 81, 46
2, 273678, Note_on_c, 0, 66, 37
2, 273681, Note_on_c, 0, 71, 32
2, 273698, Note_on_c, 0, 76, 32
2, 273760, Note_on_c, 0, 71, 0
2, 273765, Note_on_c, 0, 81, 0
2, 273804, Control_c, 0, 64, 127
2, 273808, Note_on_c, 0, 76, 0
2, 273961, Note_on_c, 0, 82, 54
2, 273967, Control_c, 0, 64, 0
2, 273971, Note_on_c, 0, 72, 40
2, 273975, Note_on_c, 0, 77, 40
2, 273982, Note_on_c, 0, 67, 41
2, 273997, Note_on_c, 0, 66, 0
2, 274007, Note_on_c, 0, 72, 0
2, 274022, Note_on_c, 0, 77, 0
2, 274023, Note_on_c, 0, 67, 0
2, 274077, Note_on_c, 0, 82, 0
2, 274529, Note_on_c, 0, 78, 23
2, 274580, Note_on_c, 0, 78, 0
2, 274605, Note_on_c, 0, 94, 59
2, 274613, Note_on_c, 0, 79, 39
2, 274616, Note_on_c, 0, 89, 53
2, 274647, Note_on_c, 0, 84, 27
2, 274725, Note_on_c, 0, 89, 0
2, 274750, Note_on_c, 0, 94, 0
2, 274757, Note_on_c, 0, 84, 0
2, 274775, Control_c, 0, 64, 127
2, 274848, Note_on_c, 0, 79, 0
2, 274881, Control_c, 0, 64, 0
2, 275036, Control_c, 0, 64, 127
2, 275070, Note_on_c, 0, 78, 38
2, 275072, Note_on_c, 0, 93, 34
2, 275074, Note_on_c, 0, 83, 33
2, 275101, Note_on_c, 0, 88, 33
2, 275123, Note_on_c, 0, 93, 0
2, 275132, Note_on_c, 0, 83, 0
2, 275150, Note_on_c, 0, 88, 0
2, 275256, Control_c, 0, 64, 0
2, 275328, Note_on_c, 0, 78, 0
2, 275373, Note_on_c, 0, 94, 55
2, 275382, Note_on_c, 0, 89, 53
2, 275383, Note_on_c, 0, 79, 37
2, 275385, Note_on_c, 0, 84, 48
2, 275401, Control_c, 0, 64, 127
2, 275421, Note_on_c, 0, 79, 0
2, 275504, Note_on_c, 0, 84, 0
2, 275510, Note_on_c, 0, 89, 0
2, 275544, Note_on_c, 0, 94, 0
2, 276078, Note_on_c, 0, 22, 50
2, 276716, Note_on_c, 0, 22, 0
2, 279918, Lyric_t, " "
2, 279918, End_track
3, 0, Start_track
3, 0, MIDI_port, 0
3, 0, Program_c, 1, 35
3, 0, Control_c, 1, 7, 90
3, 14, Note_on_c, 1, 39, 46
3, 1298, Note_on_c, 1, 53, 75
3, 1417, Note_on_c, 1, 39, 0
3, 3693, Note_on_c, 1, 48, 56
3, 3775, Note_on_c, 1, 48, 0
3, 4209, Note_on_c, 1, 50, 74
3, 5123, Note_on_c, 1, 45, 46
3, 5133, Note_on_c, 1, 50, 0
3, 5180, Note_on_c, 1, 53, 0
3, 5189, Note_on_c, 1, 45, 0
3, 5269, Note_on_c, 1, 42, 43
3, 5578, Note_on_c, 1, 42, 0
3, 5604, Note_on_c, 1, 43, 37
3, 6076, Note_on_c, 1, 38, 24
3, 6111, Note_on_c, 1, 38, 0
3, 6136, Note_on_c, 1, 43, 0
3, 6203, Note_on_c, 1, 35, 47
3, 7169, Note_on_c, 1, 35, 0
3, 7212, Note_on_c, 1, 38, 45
3, 7494, Note_on_c, 1, 38, 0
3, 7520, Note_on_c, 1, 36, 51
3, 8031, Note_on_c, 1, 50, 46
3, 8089, Note_on_c, 1, 50, 0
3, 8226, Note_on_c, 1, 48, 49
3, 9107, Note_on_c, 1, 48, 0
3, 9122, Note_on_c, 1, 55, 72
3, 9418, Note_on_c, 1, 55, 0
3, 9432, Note_on_c, 1, 53, 74
3, 9491, Note_on_c, 1, 36, 0
3, 10080, Note_on_c, 1, 41, 57
3, 10110, Note_on_c, 1, 53, 0
3, 10581, Note_on_c, 1, 29, 49
3, 11028, Note_on_c, 1, 29, 0
3, 11062, Note_on_c, 1, 34, 77
3, 11097, Note_on_c, 1, 41, 0
3, 12501, Note_on_c, 1, 46, 60
3, 12947, Note_on_c, 1, 46, 0
3, 12977, Note_on_c, 1, 55, 71
3, 13259, Note_on_c, 1, 55, 0
3, 13298, Note_on_c, 1, 53, 57
3, 13355, Note_on_c, 1, 34, 0
3, 13743, Note_on_c, 1, 48, 58
3, 13911, Note_on_c, 1, 48, 0
3, 13918, Note_on_c, 1, 53, 0
3, 13978, Note_on_c, 1, 47, 57
3, 14718, Note_on_c, 1, 46, 50
3, 14800, Note_on_c, 1, 47, 0
3, 14867, Note_on_c, 1, 46, 0
3, 14926, Note_on_c, 1, 38, 57
3, 15348, Note_on_c, 1, 38, 0
3, 15377, Note_on_c, 1, 39, 45
3, 16345, Note_on_c, 1, 42, 60
3, 16458, Note_on_c, 1, 42, 0
3, 16498, Note_on_c, 1, 43, 40
3, 16606, Note_on_c, 1, 43, 0
3, 16692, Note_on_c, 1, 46, 67
3, 17200, Note_on_c, 1, 39, 0
3, 17235, Note_on_c, 1, 46, 0
3, 17298, Note_on_c, 1, 45, 38
3, 17619, Note_on_c, 1, 45, 0
3, 17622, Note_on_c, 1, 41, 38
3, 17756, Note_on_c, 1, 41, 0
3, 17789, Note_on_c, 1, 53, 53
3, 19220, Note_on_c, 1, 38, 51
3, 19239, Note_on_c, 1, 53, 0
3, 20485, Note_on_c, 1, 57, 64
3, 20572, Note_on_c, 1, 38, 0
3, 20721, Note_on_c, 1, 57, 0
3, 20781, Note_on_c, 1, 55, 64
3, 21435, Note_on_c, 1, 50, 45
3, 21444, Note_on_c, 1, 55, 0
3, 21541, Note_on_c, 1, 50, 0
3, 21625, Note_on_c, 1, 47, 53
3, 22357, Note_on_c, 1, 43, 57
3, 22450, Note_on_c, 1, 43, 0
3, 22577, Note_on_c, 1, 38, 38
3, 22833, Note_on_c, 1, 47, 0
3, 23030, Note_on_c, 1, 38, 0
3, 23048, Note_on_c, 1, 36, 60
3, 24005, Note_on_c, 1, 38, 40
3, 24027, Note_on_c, 1, 36, 0
3, 24108, Note_on_c, 1, 38, 0
3, 24335, Note_on_c, 1, 39, 36
3, 24418, Note_on_c, 1, 39, 0
3, 24464, Note_on_c, 1, 43, 44
3, 24791, Note_on_c, 1, 43, 0
3, 24826, Note_on_c, 1, 39, 36
3, 24921, Note_on_c, 1, 39, 0
3, 24984, Note_on_c, 1, 41, 48
3, 26259, Note_on_c, 1, 50, 54
3, 26355, Note_on_c, 1, 50, 0
3, 26419, Note_on_c, 1, 41, 0
3, 26454, Note_on_c, 1, 48, 62
3, 27140, Note_on_c, 1, 48, 0
3, 27180, Note_on_c, 1, 45, 39
3, 27272, Note_on_c, 1, 45, 0
3, 27381, Note_on_c, 1, 46, 44
3, 27833, Note_on_c, 1, 41, 48
3, 28085, Note_on_c, 1, 41, 0
3, 28161, Note_on_c, 1, 46, 0
3, 28171, Note_on_c, 1, 41, 54
3, 28301, Note_on_c, 1, 41, 0
3, 28857, Note_on_c, 1, 41, 37
3, 29105, Note_on_c, 1, 41, 0
3, 29170, Note_on_c, 1, 40, 38
3, 29277, Note_on_c, 1, 40, 0
3, 29326, Note_on_c, 1, 41, 55
3, 30536, Note_on_c, 1, 51, 71
3, 30556, Note_on_c, 1, 41, 0
3, 30663, Note_on_c, 1, 51, 0
3, 30717, Note_on_c, 1, 50, 53
3, 31053, Note_on_c, 1, 45, 43
3, 31129, Note_on_c, 1, 45, 0
3, 31159, Note_on_c, 1, 50, 0
3, 31252, Note_on_c, 1, 40, 60
3, 31984, Note_on_c, 1, 40, 0
3, 32006, Note_on_c, 1, 45, 44
3, 32083, Note_on_c, 1, 45, 0
3, 32200, Note_on_c, 1, 39, 54
3, 32655, Note_on_c, 1, 39, 0
3, 32676, Note_on_c, 1, 38, 51
3, 33624, Note_on_c, 1, 51, 67
3, 33738, Note_on_c, 1, 51, 0
3, 33956, Note_on_c, 1, 50, 73
3, 34258, Note_on_c, 1, 38, 0
3, 34966, Note_on_c, 1, 50, 0
3, 35064, Note_on_c, 1, 47, 40
3, 35178, Note_on_c, 1, 47, 0
3, 35204, Note_on_c, 1, 46, 42
3, 35308, Note_on_c, 1, 46, 0
3, 35377, Note_on_c, 1, 47, 58
3, 35775, Note_on_c, 1, 43, 53
3, 35838, Note_on_c, 1, 43, 0
3, 35858, Note_on_c, 1, 47, 0
3, 35921, Note_on_c, 1, 42, 44
3, 36044, Note_on_c, 1, 42, 0
3, 36087, Note_on_c, 1, 43, 56
3, 36507, Note_on_c, 1, 38, 41
3, 36509, Note_on_c, 1, 43, 0
3, 36622, Note_on_c, 1, 38, 0
3, 36686, Note_on_c, 1, 37, 42
3, 36782, Note_on_c, 1, 37, 0
3, 36829, Note_on_c, 1, 38, 46
3, 37757, Note_on_c, 1, 38, 0
3, 37764, Note_on_c, 1, 35, 58
3, 37810, Note_on_c, 1, 35, 0
3, 37938, Note_on_c, 1, 40, 62
3, 38006, Note_on_c, 1, 40, 0
3, 38258, Note_on_c, 1, 41, 59
3, 38333, Note_on_c, 1, 41, 0
3, 38447, Note_on_c, 1, 43, 63
3, 39324, Note_on_c, 1, 43, 0
3, 39359, Note_on_c, 1, 45, 55
3, 39659, Note_on_c, 1, 45, 0
3, 39790, Note_on_c, 1, 46, 47
3, 40260, Note_on_c, 1, 46, 0
3, 40318, Note_on_c, 1, 48, 52
3, 41297, Note_on_c, 1, 48, 0
3, 41302, Note_on_c, 1, 43, 44
3, 42084, Note_on_c, 1, 52, 53
3, 42157, Note_on_c, 1, 52, 0
3, 42170, Note_on_c, 1, 43, 0
3, 42230, Note_on_c, 1, 50, 54
3, 43201, Note_on_c, 1, 38, 53
3, 44562, Note_on_c, 1, 50, 0
3, 44673, Note_on_c, 1, 53, 91
3, 44777, Note_on_c, 1, 38, 0
3, 45312, Note_on_c, 1, 53, 0
3, 45436, Note_on_c, 1, 46, 71
3, 46104, Note_on_c, 1, 46, 0
3, 46107, Note_on_c, 1, 39, 50
3, 46583, Note_on_c, 1, 55, 94
3, 47697, Note_on_c, 1, 39, 0
3, 47828, Note_on_c, 1, 40, 33
3, 47943, Note_on_c, 1, 55, 0
3, 47965, Note_on_c, 1, 40, 0
3, 48047, Note_on_c, 1, 41, 37
3, 48949, Note_on_c, 1, 41, 0
3, 48977, Note_on_c, 1, 36, 51
3, 49908, Note_on_c, 1, 36, 0
3, 49936, Note_on_c, 1, 38, 52
3, 50756, Note_on_c, 1, 51, 75
3, 50919, Note_on_c, 1, 38, 0
3, 50920, Note_on_c, 1, 51, 0
3, 50955, Note_on_c, 1, 50, 51
3, 51698, Note_on_c, 1, 42, 42
3, 51749, Note_on_c, 1, 50, 0
3, 51823, Note_on_c, 1, 42, 0
3, 51866, Note_on_c, 1, 43, 43
3, 52711, Note_on_c, 1, 42, 18
3, 52773, Note_on_c, 1, 42, 0
3, 52782, Note_on_c, 1, 43, 0
3, 52811, Note_on_c, 1, 47, 53
3, 53605, Note_on_c, 1, 47, 0
3, 53646, Note_on_c, 1, 50, 59
3, 53744, Note_on_c, 1, 50, 0
3, 53809, Note_on_c, 1, 48, 64
3, 53849, Note_on_c, 1, 48, 0
3, 54140, Note_on_c, 1, 43, 49
3, 54194, Note_on_c, 1, 43, 0
3, 54287, Note_on_c, 1, 38, 62
3, 55066, Note_on_c, 1, 36, 71
3, 55087, Note_on_c, 1, 38, 0
3, 55625, Note_on_c, 1, 36, 0
3, 55683, Note_on_c, 1, 37, 48
3, 56063, Note_on_c, 1, 52, 56
3, 57231, Note_on_c, 1, 37, 0
3, 57299, Note_on_c, 1, 36, 49
3, 57340, Note_on_c, 1, 52, 0
3, 57421, Note_on_c, 1, 36, 0
3, 57424, Note_on_c, 1, 37, 59
3, 57524, Note_on_c, 1, 37, 0
3, 57591, Note_on_c, 1, 38, 68
3, 58915, Note_on_c, 1, 50, 55
3, 59142, Note_on_c, 1, 38, 0
3, 59378, Note_on_c, 1, 38, 41
3, 59423, Note_on_c, 1, 38, 0
3, 59513, Note_on_c, 1, 50, 0
3, 59546, Note_on_c, 1, 49, 51
3, 59878, Note_on_c, 1, 49, 0
3, 60337, Note_on_c, 1, 46, 45
3, 60401, Note_on_c, 1, 46, 0
3, 60493, Note_on_c, 1, 46, 57
3, 60589, Note_on_c, 1, 46, 0
3, 60789, Note_on_c, 1, 43, 62
3, 60870, Note_on_c, 1, 43, 0
3, 60944, Note_on_c, 1, 43, 63
3, 61018, Note_on_c, 1, 43, 0
3, 61297, Note_on_c, 1, 38, 58
3, 61378, Note_on_c, 1, 38, 0
3, 61450, Note_on_c, 1, 36, 70
3, 62412, Note_on_c, 1, 48, 63
3, 62478, Note_on_c, 1, 36, 0
3, 63224, Note_on_c, 1, 39, 29
3, 63325, Note_on_c, 1, 39, 0
3, 63343, Note_on_c, 1, 48, 0
3, 63375, Note_on_c, 1, 41, 60
3, 64176, Note_on_c, 1, 39, 36
3, 64279, Note_on_c, 1, 41, 0
3, 64319, Note_on_c, 1, 39, 0
3, 64341, Note_on_c, 1, 53, 71
3, 65160, Note_on_c, 1, 41, 36
3, 65179, Note_on_c, 1, 53, 0
3, 65202, Note_on_c, 1, 41, 0
3, 65317, Note_on_c, 1, 46, 59
3, 67690, Note_on_c, 1, 41, 74
3, 68584, Note_on_c, 1, 41, 0
3, 68602, Note_on_c, 1, 38, 57
3, 68618, Note_on_c, 1, 46, 0
3, 69104, Note_on_c, 1, 38, 0
3, 69119, Note_on_c, 1, 39, 46
3, 69579, Note_on_c, 1, 39, 0
3, 69633, Note_on_c, 1, 51, 51
3, 70076, Note_on_c, 1, 51, 0
3, 70135, Note_on_c, 1, 50, 38
3, 70433, Note_on_c, 1, 39, 42
3, 70537, Note_on_c, 1, 39, 0
3, 70555, Note_on_c, 1, 50, 0
3, 70577, Note_on_c, 1, 42, 53
3, 70928, Note_on_c, 1, 39, 34
3, 70983, Note_on_c, 1, 42, 0
3, 71021, Note_on_c, 1, 39, 0
3, 71063, Note_on_c, 1, 41, 48
3, 71498, Note_on_c, 1, 41, 0
3, 71537, Note_on_c, 1, 36, 46
3, 71975, Note_on_c, 1, 36, 0
3, 72022, Note_on_c, 1, 33, 36
3, 72416, Note_on_c, 1, 33, 0
3, 72463, Note_on_c, 1, 39, 61
3, 72957, Note_on_c, 1, 39, 0
3, 72979, Note_on_c, 1, 38, 53
3, 73290, Note_on_c, 1, 51, 77
3, 73326, Note_on_c, 1, 38, 0
3, 73423, Note_on_c, 1, 51, 0
3, 73484, Note_on_c, 1, 50, 44
3, 73870, Note_on_c, 1, 50, 0
3, 73922, Note_on_c, 1, 45, 42
3, 74252, Note_on_c, 1, 44, 42
3, 74255, Note_on_c, 1, 45, 0
3, 74342, Note_on_c, 1, 44, 0
3, 74398, Note_on_c, 1, 43, 66
3, 75184, Note_on_c, 1, 38, 60
3, 75218, Note_on_c, 1, 43, 0
3, 75271, Note_on_c, 1, 38, 0
3, 75352, Note_on_c, 1, 35, 44
3, 75825, Note_on_c, 1, 35, 0
3, 75840, Note_on_c, 1, 38, 51
3, 76146, Note_on_c, 1, 38, 0
3, 76177, Note_on_c, 1, 34, 42
3, 76260, Note_on_c, 1, 34, 0
3, 76304, Note_on_c, 1, 35, 57
3, 76660, Note_on_c, 1, 34, 28
3, 76728, Note_on_c, 1, 35, 0
3, 76757, Note_on_c, 1, 34, 0
3, 76797, Note_on_c, 1, 36, 45
3, 77132, Note_on_c, 1, 34, 37
3, 77196, Note_on_c, 1, 36, 0
3, 77210, Note_on_c, 1, 34, 0
3, 77287, Note_on_c, 1, 38, 54
3, 77643, Note_on_c, 1, 35, 28
3, 77703, Note_on_c, 1, 35, 0
3, 77712, Note_on_c, 1, 38, 0
3, 77740, Note_on_c, 1, 39, 51
3, 78108, Note_on_c, 1, 36, 30
3, 78145, Note_on_c, 1, 36, 0
3, 78220, Note_on_c, 1, 39, 0
3, 78224, Note_on_c, 1, 40, 62
3, 78592, Note_on_c, 1, 36, 36
3, 78643, Note_on_c, 1, 36, 0
3, 78683, Note_on_c, 1, 40, 0
3, 78702, Note_on_c, 1, 41, 48
3, 79157, Note_on_c, 1, 41, 0
3, 79164, Note_on_c, 1, 46, 65
3, 79647, Note_on_c, 1, 46, 0
3, 79690, Note_on_c, 1, 45, 35
3, 80008, Note_on_c, 1, 39, 35
3, 80068, Note_on_c, 1, 39, 0
3, 80100, Note_on_c, 1, 45, 0
3, 80158, Note_on_c, 1, 51, 64
3, 80644, Note_on_c, 1, 51, 0
3, 80652, Note_on_c, 1, 50, 53
3, 81056, Note_on_c, 1, 50, 0
3, 81113, Note_on_c, 1, 48, 42
3, 81584, Note_on_c, 1, 48, 0
3, 81595, Note_on_c, 1, 46, 51
3, 81965, Note_on_c, 1, 39, 25
3, 82004, Note_on_c, 1, 39, 0
3, 82055, Note_on_c, 1, 46, 0
3, 82064, Note_on_c, 1, 45, 63
3, 82492, Note_on_c, 1, 45, 0
3, 82535, Note_on_c, 1, 44, 46
3, 82987, Note_on_c, 1, 44, 0
3, 83022, Note_on_c, 1, 41, 63
3, 83490, Note_on_c, 1, 41, 0
3, 83519, Note_on_c, 1, 38, 55
3, 83870, Note_on_c, 1, 38, 0
3, 83969, Note_on_c, 1, 38, 53
3, 84434, Note_on_c, 1, 38, 0
3, 84453, Note_on_c, 1, 39, 50
3, 84954, Note_on_c, 1, 50, 54
3, 85027, Note_on_c, 1, 39, 0
3, 85426, Note_on_c, 1, 50, 0
3, 85451, Note_on_c, 1, 46, 38
3, 85901, Note_on_c, 1, 39, 73
3, 85934, Note_on_c, 1, 46, 0
3, 86383, Note_on_c, 1, 39, 0
3, 86416, Note_on_c, 1, 41, 46
3, 86867, Note_on_c, 1, 41, 0
3, 86886, Note_on_c, 1, 33, 65
3, 87354, Note_on_c, 1, 33, 0
3, 87376, Note_on_c, 1, 36, 54
3, 87721, Note_on_c, 1, 34, 37
3, 87814, Note_on_c, 1, 36, 0
3, 87843, Note_on_c, 1, 34, 0
3, 87887, Note_on_c, 1, 46, 71
3, 87896, Note_on_c, 1, 48, 42
3, 87929, Note_on_c, 1, 48, 0
3, 88341, Note_on_c, 1, 46, 0
3, 88401, Note_on_c, 1, 45, 71
3, 88798, Note_on_c, 1, 45, 0
3, 88859, Note_on_c, 1, 41, 42
3, 89310, Note_on_c, 1, 41, 0
3, 89315, Note_on_c, 1, 38, 42
3, 89749, Note_on_c, 1, 38, 0
3, 89796, Note_on_c, 1, 37, 47
3, 90163, Note_on_c, 1, 34, 25
3, 90222, Note_on_c, 1, 34, 0
3, 90227, Note_on_c, 1, 37, 0
3, 90239, Note_on_c, 1, 38, 62
3, 90569, Note_on_c, 1, 45, 61
3, 90626, Note_on_c, 1, 38, 0
3, 90673, Note_on_c, 1, 45, 0
3, 90727, Note_on_c, 1, 43, 58
3, 91163, Note_on_c, 1, 43, 0
3, 91195, Note_on_c, 1, 38, 47
3, 91632, Note_on_c, 1, 38, 0
3, 91671, Note_on_c, 1, 35, 71
3, 92128, Note_on_c, 1, 35, 0
3, 92161, Note_on_c, 1, 36, 55
3, 92490, Note_on_c, 1, 50, 75
3, 92558, Note_on_c, 1, 36, 0
3, 92641, Note_on_c, 1, 50, 0
3, 92663, Note_on_c, 1, 48, 49
3, 92970, Note_on_c, 1, 36, 47
3, 93016, Note_on_c, 1, 36, 0
3, 93106, Note_on_c, 1, 43, 53
3, 93154, Note_on_c, 1, 48, 0
3, 93546, Note_on_c, 1, 43, 0
3, 93586, Note_on_c, 1, 42, 70
3, 94024, Note_on_c, 1, 42, 0
3, 94071, Note_on_c, 1, 41, 52
3, 94203, Note_on_c, 1, 41, 0
3, 94231, Note_on_c, 1, 36, 63
3, 94317, Note_on_c, 1, 36, 0
3, 94389, Note_on_c, 1, 34, 60
3, 94511, Note_on_c, 1, 34, 0
3, 94552, Note_on_c, 1, 33, 70
3, 94980, Note_on_c, 1, 33, 0
3, 95015, Note_on_c, 1, 31, 67
3, 95476, Note_on_c, 1, 31, 0
3, 95505, Note_on_c, 1, 29, 55
3, 95919, Note_on_c, 1, 29, 0
3, 95987, Note_on_c, 1, 34, 60
3, 96439, Note_on_c, 1, 34, 0
3, 96481, Note_on_c, 1, 38, 60
3, 96834, Note_on_c, 1, 34, 45
3, 96886, Note_on_c, 1, 38, 0
3, 96934, Note_on_c, 1, 34, 0
3, 96969, Note_on_c, 1, 45, 68
3, 97378, Note_on_c, 1, 45, 0
3, 97426, Note_on_c, 1, 44, 53
3, 97904, Note_on_c, 1, 44, 0
3, 97915, Note_on_c, 1, 43, 45
3, 98355, Note_on_c, 1, 43, 0
3, 98385, Note_on_c, 1, 42, 47
3, 98864, Note_on_c, 1, 42, 0
3, 98876, Note_on_c, 1, 41, 48
3, 99342, Note_on_c, 1, 41, 0
3, 99370, Note_on_c, 1, 39, 51
3, 99820, Note_on_c, 1, 39, 0
3, 99837, Note_on_c, 1, 38, 50
3, 100194, Note_on_c, 1, 52, 54
3, 100278, Note_on_c, 1, 52, 0
3, 100372, Note_on_c, 1, 50, 48
3, 100428, Note_on_c, 1, 38, 0
3, 100669, Note_on_c, 1, 38, 51
3, 100721, Note_on_c, 1, 38, 0
3, 100731, Note_on_c, 1, 50, 0
3, 100799, Note_on_c, 1, 50, 62
3, 101288, Note_on_c, 1, 38, 49
3, 101306, Note_on_c, 1, 50, 0
3, 101600, Note_on_c, 1, 45, 32
3, 101644, Note_on_c, 1, 45, 0
3, 101728, Note_on_c, 1, 38, 0
3, 101766, Note_on_c, 1, 51, 59
3, 102173, Note_on_c, 1, 51, 0
3, 102242, Note_on_c, 1, 50, 53
3, 102597, Note_on_c, 1, 45, 53
3, 102636, Note_on_c, 1, 45, 0
3, 102653, Note_on_c, 1, 50, 0
3, 102734, Note_on_c, 1, 38, 64
3, 103165, Note_on_c, 1, 38, 0
3, 103225, Note_on_c, 1, 45, 79
3, 103662, Note_on_c, 1, 45, 0
3, 103714, Note_on_c, 1, 50, 73
3, 104071, Note_on_c, 1, 50, 0
3, 104196, Note_on_c, 1, 50, 65
3, 104553, Note_on_c, 1, 50, 0
3, 104654, Note_on_c, 1, 50, 55
3, 104955, Note_on_c, 1, 43, 37
3, 104996, Note_on_c, 1, 43, 0
3, 105033, Note_on_c, 1, 50, 0
3, 105124, Note_on_c, 1, 47, 51
3, 105433, Note_on_c, 1, 43, 60
3, 105450, Note_on_c, 1, 47, 0
3, 105515, Note_on_c, 1, 43, 0
3, 105596, Note_on_c, 1, 38, 59
3, 106069, Note_on_c, 1, 50, 91
3, 106129, Note_on_c, 1, 38, 0
3, 106404, Note_on_c, 1, 38, 31
3, 106469, Note_on_c, 1, 50, 0
3, 106511, Note_on_c, 1, 38, 0
3, 106541, Note_on_c, 1, 50, 64
3, 106852, Note_on_c, 1, 43, 42
3, 106892, Note_on_c, 1, 43, 0
3, 106894, Note_on_c, 1, 50, 0
3, 107008, Note_on_c, 1, 47, 59
3, 107321, Note_on_c, 1, 47, 0
3, 107356, Note_on_c, 1, 42, 49
3, 107466, Note_on_c, 1, 42, 0
3, 107500, Note_on_c, 1, 43, 51
3, 107940, Note_on_c, 1, 43, 0
3, 107987, Note_on_c, 1, 38, 48
3, 108429, Note_on_c, 1, 38, 0
3, 108471, Note_on_c, 1, 34, 56
3, 108951, Note_on_c, 1, 35, 49
3, 108976, Note_on_c, 1, 34, 0
3, 109420, Note_on_c, 1, 35, 0
3, 109432, Note_on_c, 1, 36, 61
3, 109857, Note_on_c, 1, 36, 0
3, 109899, Note_on_c, 1, 38, 54
3, 110233, Note_on_c, 1, 36, 37
3, 110280, Note_on_c, 1, 36, 0
3, 110360, Note_on_c, 1, 38, 0
3, 110384, Note_on_c, 1, 39, 55
3, 110707, Note_on_c, 1, 36, 31
3, 110752, Note_on_c, 1, 36, 0
3, 110835, Note_on_c, 1, 39, 0
3, 110861, Note_on_c, 1, 40, 51
3, 111196, Note_on_c, 1, 34, 38
3, 111271, Note_on_c, 1, 40, 0
3, 111278, Note_on_c, 1, 34, 0
3, 111338, Note_on_c, 1, 45, 46
3, 111722, Note_on_c, 1, 40, 33
3, 111779, Note_on_c, 1, 40, 0
3, 111807, Note_on_c, 1, 45, 0
3, 111851, Note_on_c, 1, 43, 47
3, 112200, Note_on_c, 1, 40, 31
3, 112250, Note_on_c, 1, 40, 0
3, 112329, Note_on_c, 1, 52, 59
3, 112352, Note_on_c, 1, 43, 0
3, 112767, Note_on_c, 1, 52, 0
3, 112824, Note_on_c, 1, 50, 44
3, 113151, Note_on_c, 1, 41, 28
3, 113199, Note_on_c, 1, 41, 0
3, 113257, Note_on_c, 1, 50, 0
3, 113323, Note_on_c, 1, 46, 50
3, 113767, Note_on_c, 1, 45, 56
3, 113910, Note_on_c, 1, 46, 0
3, 114184, Note_on_c, 1, 45, 0
3, 114269, Note_on_c, 1, 46, 57
3, 114740, Note_on_c, 1, 46, 0
3, 114757, Note_on_c, 1, 48, 52
3, 115103, Note_on_c, 1, 41, 37
3, 115110, Note_on_c, 1, 48, 0
3, 115145, Note_on_c, 1, 41, 0
3, 115246, Note_on_c, 1, 51, 62
3, 115677, Note_on_c, 1, 51, 0
3, 115695, Note_on_c, 1, 46, 45
3, 116181, Note_on_c, 1, 43, 33
3, 116564, Note_on_c, 1, 46, 0
3, 116573, Note_on_c, 1, 43, 0
3, 116649, Note_on_c, 1, 40, 72
3, 117071, Note_on_c, 1, 40, 0
3, 117119, Note_on_c, 1, 41, 50
3, 117562, Note_on_c, 1, 41, 0
3, 117575, Note_on_c, 1, 36, 53
3, 118031, Note_on_c, 1, 36, 0
3, 118054, Note_on_c, 1, 33, 47
3, 118495, Note_on_c, 1, 33, 0
3, 118526, Note_on_c, 1, 39, 64
3, 118948, Note_on_c, 1, 39, 0
3, 119033, Note_on_c, 1, 38, 41
3, 119393, Note_on_c, 1, 37, 32
3, 119496, Note_on_c, 1, 38, 0
3, 119526, Note_on_c, 1, 46, 73
3, 119527, Note_on_c, 1, 37, 0
3, 119998, Note_on_c, 1, 45, 62
3, 120337, Note_on_c, 1, 38, 37
3, 120379, Note_on_c, 1, 38, 0
3, 120410, Note_on_c, 1, 45, 0
3, 120430, Note_on_c, 1, 46, 0
3, 120476, Note_on_c, 1, 41, 58
3, 120909, Note_on_c, 1, 41, 0
3, 120948, Note_on_c, 1, 43, 57
3, 121412, Note_on_c, 1, 43, 0
3, 121446, Note_on_c, 1, 31, 66
3, 121897, Note_on_c, 1, 31, 0
3, 121937, Note_on_c, 1, 33, 49
3, 122393, Note_on_c, 1, 33, 0
3, 122409, Note_on_c, 1, 35, 57
3, 122835, Note_on_c, 1, 35, 0
3, 122878, Note_on_c, 1, 36, 52
3, 123141, Note_on_c, 1, 36, 0
3, 123223, Note_on_c, 1, 36, 63
3, 123298, Note_on_c, 1, 36, 0
3, 123383, Note_on_c, 1, 38, 50
3, 123833, Note_on_c, 1, 39, 57
3, 123840, Note_on_c, 1, 38, 0
3, 124194, Note_on_c, 1, 36, 36
3, 124233, Note_on_c, 1, 36, 0
3, 124282, Note_on_c, 1, 39, 0
3, 124318, Note_on_c, 1, 40, 61
3, 124562, Note_on_c, 1, 40, 0
3, 124643, Note_on_c, 1, 40, 55
3, 124733, Note_on_c, 1, 40, 0
3, 124790, Note_on_c, 1, 41, 58
3, 125222, Note_on_c, 1, 41, 0
3, 125268, Note_on_c, 1, 42, 58
3, 125706, Note_on_c, 1, 42, 0
3, 125748, Note_on_c, 1, 43, 47
3, 126105, Note_on_c, 1, 36, 24
3, 126138, Note_on_c, 1, 36, 0
3, 126156, Note_on_c, 1, 43, 0
3, 126211, Note_on_c, 1, 45, 73
3, 126639, Note_on_c, 1, 45, 0
3, 126695, Note_on_c, 1, 46, 51
3, 127168, Note_on_c, 1, 46, 0
3, 127174, Note_on_c, 1, 48, 60
3, 127606, Note_on_c, 1, 48, 0
3, 127662, Note_on_c, 1, 50, 60
3, 128123, Note_on_c, 1, 50, 0
3, 128142, Note_on_c, 1, 52, 51
3, 128578, Note_on_c, 1, 52, 0
3, 128620, Note_on_c, 1, 49, 51
3, 129098, Note_on_c, 1, 46, 57
3, 129333, Note_on_c, 1, 49, 0
3, 129529, Note_on_c, 1, 46, 0
3, 129589, Note_on_c, 1, 43, 51
3, 129909, Note_on_c, 1, 34, 39
3, 129924, Note_on_c, 1, 43, 0
3, 129999, Note_on_c, 1, 34, 0
3, 130087, Note_on_c, 1, 35, 57
3, 130521, Note_on_c, 1, 35, 0
3, 130545, Note_on_c, 1, 36, 53
3, 130777, Note_on_c, 1, 36, 0
3, 130866, Note_on_c, 1, 36, 51
3, 130939, Note_on_c, 1, 36, 0
3, 131018, Note_on_c, 1, 38, 54
3, 131463, Note_on_c, 1, 38, 0
3, 131498, Note_on_c, 1, 39, 53
3, 131717, Note_on_c, 1, 39, 0
3, 131829, Note_on_c, 1, 39, 43
3, 131940, Note_on_c, 1, 39, 0
3, 131973, Note_on_c, 1, 40, 51
3, 132412, Note_on_c, 1, 40, 0
3, 132476, Note_on_c, 1, 41, 44
3, 132661, Note_on_c, 1, 41, 0
3, 132806, Note_on_c, 1, 41, 44
3, 132915, Note_on_c, 1, 41, 0
3, 132955, Note_on_c, 1, 43, 57
3, 133396, Note_on_c, 1, 43, 0
3, 133445, Note_on_c, 1, 44, 40
3, 133641, Note_on_c, 1, 44, 0
3, 133760, Note_on_c, 1, 44, 40
3, 133852, Note_on_c, 1, 44, 0
3, 133892, Note_on_c, 1, 45, 45
3, 134302, Note_on_c, 1, 45, 0
3, 134365, Note_on_c, 1, 46, 51
3, 134848, Note_on_c, 1, 46, 0
3, 134881, Note_on_c, 1, 41, 37
3, 135304, Note_on_c, 1, 41, 0
3, 135356, Note_on_c, 1, 53, 57
3, 135833, Note_on_c, 1, 41, 44
3, 135837, Note_on_c, 1, 53, 0
3, 136202, Note_on_c, 1, 37, 17
3, 136222, Note_on_c, 1, 41, 0
3, 136256, Note_on_c, 1, 37, 0
3, 136312, Note_on_c, 1, 41, 46
3, 136678, Note_on_c, 1, 38, 32
3, 136718, Note_on_c, 1, 41, 0
3, 136719, Note_on_c, 1, 38, 0
3, 136788, Note_on_c, 1, 53, 66
3, 137269, Note_on_c, 1, 41, 47
3, 137350, Note_on_c, 1, 41, 0
3, 137576, Note_on_c, 1, 53, 0
3, 137610, Note_on_c, 1, 38, 45
3, 137697, Note_on_c, 1, 38, 0
3, 137749, Note_on_c, 1, 40, 57
3, 138182, Note_on_c, 1, 40, 0
3, 138235, Note_on_c, 1, 39, 49
3, 138562, Note_on_c, 1, 37, 28
3, 138660, Note_on_c, 1, 39, 0
3, 138673, Note_on_c, 1, 37, 0
3, 138701, Note_on_c, 1, 50, 82
3, 139144, Note_on_c, 1, 50, 0
3, 139189, Note_on_c, 1, 46, 37
3, 139673, Note_on_c, 1, 40, 77
3, 139688, Note_on_c, 1, 46, 0
3, 140116, Note_on_c, 1, 40, 0
3, 140164, Note_on_c, 1, 41, 51
3, 140613, Note_on_c, 1, 33, 78
3, 140616, Note_on_c, 1, 41, 0
3, 141091, Note_on_c, 1, 33, 0
3, 141116, Note_on_c, 1, 36, 64
3, 141560, Note_on_c, 1, 36, 0
3, 141574, Note_on_c, 1, 35, 60
3, 142030, Note_on_c, 1, 35, 0
3, 142051, Note_on_c, 1, 34, 53
3, 142536, Note_on_c, 1, 38, 67
3, 142538, Note_on_c, 1, 34, 0
3, 142913, Note_on_c, 1, 34, 31
3, 143032, Note_on_c, 1, 38, 0
3, 143050, Note_on_c, 1, 50, 79
3, 143051, Note_on_c, 1, 34, 0
3, 143478, Note_on_c, 1, 50, 0
3, 143526, Note_on_c, 1, 42, 55
3, 143986, Note_on_c, 1, 42, 0
3, 144012, Note_on_c, 1, 43, 60
3, 144438, Note_on_c, 1, 43, 0
3, 144488, Note_on_c, 1, 38, 48
3, 144963, Note_on_c, 1, 46, 47
3, 144971, Note_on_c, 1, 38, 0
3, 145368, Note_on_c, 1, 46, 0
3, 145429, Note_on_c, 1, 47, 57
3, 145836, Note_on_c, 1, 47, 0
3, 145923, Note_on_c, 1, 48, 60
3, 146336, Note_on_c, 1, 48, 0
3, 146381, Note_on_c, 1, 39, 59
3, 146816, Note_on_c, 1, 37, 31
3, 146867, Note_on_c, 1, 37, 0
3, 146872, Note_on_c, 1, 39, 0
3, 146894, Note_on_c, 1, 43, 78
3, 147319, Note_on_c, 1, 43, 0
3, 147372, Note_on_c, 1, 40, 68
3, 147799, Note_on_c, 1, 40, 0
3, 147846, Note_on_c, 1, 41, 47
3, 148277, Note_on_c, 1, 41, 0
3, 148304, Note_on_c, 1, 33, 63
3, 148780, Note_on_c, 1, 33, 0
3, 148784, Note_on_c, 1, 38, 60
3, 149218, Note_on_c, 1, 38, 0
3, 149266, Note_on_c, 1, 33, 62
3, 149645, Note_on_c, 1, 33, 0
3, 149725, Note_on_c, 1, 34, 65
3, 150207, Note_on_c, 1, 36, 66
3, 150208, Note_on_c, 1, 34, 0
3, 150693, Note_on_c, 1, 36, 0
3, 150701, Note_on_c, 1, 38, 60
3, 151111, Note_on_c, 1, 38, 0
3, 151162, Note_on_c, 1, 39, 64
3, 151663, Note_on_c, 1, 41, 65
3, 151689, Note_on_c, 1, 39, 0
3, 152007, Note_on_c, 1, 39, 44
3, 152146, Note_on_c, 1, 52, 61
3, 152191, Note_on_c, 1, 39, 0
3, 152329, Note_on_c, 1, 41, 0
3, 152603, Note_on_c, 1, 52, 0
3, 152649, Note_on_c, 1, 47, 68
3, 153006, Note_on_c, 1, 40, 40
3, 153048, Note_on_c, 1, 40, 0
3, 153131, Note_on_c, 1, 47, 0
3, 153134, Note_on_c, 1, 44, 57
3, 153461, Note_on_c, 1, 37, 38
3, 153505, Note_on_c, 1, 44, 0
3, 153586, Note_on_c, 1, 39, 50
3, 153589, Note_on_c, 1, 37, 0
3, 153952, Note_on_c, 1, 37, 30
3, 154053, Note_on_c, 1, 39, 0
3, 154057, Note_on_c, 1, 37, 0
3, 154078, Note_on_c, 1, 43, 38
3, 154419, Note_on_c, 1, 39, 36
3, 154453, Note_on_c, 1, 39, 0
3, 154500, Note_on_c, 1, 43, 0
3, 154563, Note_on_c, 1, 46, 47
3, 155033, Note_on_c, 1, 41, 92
3, 155078, Note_on_c, 1, 46, 0
3, 155474, Note_on_c, 1, 41, 0
3, 155515, Note_on_c, 1, 36, 53
3, 155933, Note_on_c, 1, 36, 0
3, 155986, Note_on_c, 1, 33, 47
3, 156392, Note_on_c, 1, 33, 0
3, 156491, Note_on_c, 1, 45, 40
3, 156925, Note_on_c, 1, 45, 0
3, 156963, Note_on_c, 1, 41, 67
3, 157387, Note_on_c, 1, 41, 0
3, 157479, Note_on_c, 1, 46, 29
3, 157873, Note_on_c, 1, 46, 0
3, 157918, Note_on_c, 1, 41, 62
3, 158317, Note_on_c, 1, 41, 0
3, 158434, Note_on_c, 1, 38, 30
3, 158866, Note_on_c, 1, 38, 0
3, 158892, Note_on_c, 1, 34, 46
3, 159394, Note_on_c, 1, 45, 54
3, 159444, Note_on_c, 1, 34, 0
3, 159849, Note_on_c, 1, 38, 73
3, 159905, Note_on_c, 1, 45, 0
3, 160326, Note_on_c, 1, 38, 0
3, 160335, Note_on_c, 1, 43, 48
3, 160667, Note_on_c, 1, 35, 52
3, 160747, Note_on_c, 1, 35, 0
3, 160748, Note_on_c, 1, 43, 0
3, 160815, Note_on_c, 1, 35, 78
3, 161252, Note_on_c, 1, 35, 0
3, 161292, Note_on_c, 1, 36, 53
3, 161543, Note_on_c, 1, 36, 0
3, 161617, Note_on_c, 1, 36, 62
3, 161744, Note_on_c, 1, 36, 0
3, 161753, Note_on_c, 1, 38, 69
3, 162192, Note_on_c, 1, 38, 0
3, 162226, Note_on_c, 1, 39, 51
3, 162493, Note_on_c, 1, 39, 0
3, 162560, Note_on_c, 1, 39, 42
3, 162645, Note_on_c, 1, 39, 0
3, 162682, Note_on_c, 1, 40, 45
3, 163061, Note_on_c, 1, 39, 27
3, 163101, Note_on_c, 1, 39, 0
3, 163147, Note_on_c, 1, 40, 0
3, 163164, Note_on_c, 1, 41, 47
3, 163667, Note_on_c, 1, 50, 68
3, 163797, Note_on_c, 1, 41, 0
3, 164105, Note_on_c, 1, 50, 0
3, 164152, Note_on_c, 1, 48, 61
3, 164478, Note_on_c, 1, 41, 38
3, 164529, Note_on_c, 1, 41, 0
3, 164593, Note_on_c, 1, 48, 0
3, 164626, Note_on_c, 1, 45, 55
3, 164970, Note_on_c, 1, 38, 20
3, 165002, Note_on_c, 1, 38, 0
3, 165131, Note_on_c, 1, 45, 0
3, 165170, Note_on_c, 1, 46, 49
3, 165295, Note_on_c, 1, 41, 57
3, 165329, Note_on_c, 1, 41, 0
3, 165332, Note_on_c, 1, 46, 0
3, 165451, Note_on_c, 1, 37, 62
3, 165594, Note_on_c, 1, 37, 0
3, 165622, Note_on_c, 1, 38, 71
3, 166069, Note_on_c, 1, 38, 0
3, 166107, Note_on_c, 1, 39, 44
3, 166438, Note_on_c, 1, 38, 38
3, 166482, Note_on_c, 1, 38, 0
3, 166531, Note_on_c, 1, 39, 0
3, 166568, Note_on_c, 1, 40, 49
3, 167012, Note_on_c, 1, 40, 0
3, 167032, Note_on_c, 1, 41, 59
3, 167375, Note_on_c, 1, 38, 33
3, 167426, Note_on_c, 1, 41, 0
3, 167444, Note_on_c, 1, 38, 0
3, 167508, Note_on_c, 1, 46, 58
3, 167916, Note_on_c, 1, 46, 0
3, 167993, Note_on_c, 1, 46, 53
3, 168463, Note_on_c, 1, 34, 56
3, 168818, Note_on_c, 1, 38, 42
3, 168877, Note_on_c, 1, 38, 0
3, 168903, Note_on_c, 1, 34, 0
3, 168912, Note_on_c, 1, 46, 0
3, 168951, Note_on_c, 1, 50, 55
3, 169444, Note_on_c, 1, 38, 54
3, 169474, Note_on_c, 1, 50, 0
3, 169937, Note_on_c, 1, 48, 62
3, 169971, Note_on_c, 1, 38, 0
3, 170278, Note_on_c, 1, 38, 35
3, 170320, Note_on_c, 1, 48, 0
3, 170330, Note_on_c, 1, 38, 0
3, 170401, Note_on_c, 1, 47, 60
3, 170818, Note_on_c, 1, 47, 0
3, 170930, Note_on_c, 1, 45, 62
3, 171254, Note_on_c, 1, 38, 47
3, 171300, Note_on_c, 1, 38, 0
3, 171328, Note_on_c, 1, 45, 0
3, 171392, Note_on_c, 1, 42, 52
3, 171710, Note_on_c, 1, 42, 0
3, 171713, Note_on_c, 1, 38, 30
3, 171750, Note_on_c, 1, 38, 0
3, 171831, Note_on_c, 1, 38, 44
3, 172250, Note_on_c, 1, 38, 0
3, 172299, Note_on_c, 1, 32, 52
3, 172749, Note_on_c, 1, 32, 0
3, 172762, Note_on_c, 1, 31, 50
3, 173257, Note_on_c, 1, 33, 60
3, 173260, Note_on_c, 1, 31, 0
3, 173719, Note_on_c, 1, 33, 0
3, 173742, Note_on_c, 1, 35, 54
3, 174085, Note_on_c, 1, 34, 38
3, 174145, Note_on_c, 1, 34, 0
3, 174210, Note_on_c, 1, 35, 0
3, 174220, Note_on_c, 1, 45, 65
3, 174661, Note_on_c, 1, 45, 0
3, 174719, Note_on_c, 1, 43, 40
3, 175072, Note_on_c, 1, 38, 33
3, 175115, Note_on_c, 1, 43, 0
3, 175116, Note_on_c, 1, 38, 0
3, 175190, Note_on_c, 1, 52, 68
3, 175605, Note_on_c, 1, 52, 0
3, 175668, Note_on_c, 1, 50, 45
3, 176105, Note_on_c, 1, 50, 0
3, 176139, Note_on_c, 1, 44, 60
3, 176608, Note_on_c, 1, 43, 51
3, 176670, Note_on_c, 1, 44, 0
3, 177060, Note_on_c, 1, 43, 0
3, 177110, Note_on_c, 1, 49, 63
3, 177573, Note_on_c, 1, 49, 0
3, 177621, Note_on_c, 1, 46, 44
3, 178023, Note_on_c, 1, 46, 0
3, 178073, Note_on_c, 1, 47, 51
3, 178542, Note_on_c, 1, 48, 57
3, 178550, Note_on_c, 1, 47, 0
3, 178588, Note_on_c, 1, 48, 0
3, 178879, Note_on_c, 1, 43, 59
3, 178977, Note_on_c, 1, 43, 0
3, 179018, Note_on_c, 1, 37, 52
3, 179508, Note_on_c, 1, 37, 0
3, 179519, Note_on_c, 1, 36, 60
3, 179851, Note_on_c, 1, 36, 0
3, 179994, Note_on_c, 1, 36, 64
3, 180323, Note_on_c, 1, 37, 40
3, 180356, Note_on_c, 1, 37, 0
3, 180461, Note_on_c, 1, 36, 0
3, 180487, Note_on_c, 1, 50, 54
3, 180950, Note_on_c, 1, 50, 0
3, 180960, Note_on_c, 1, 38, 57
3, 181307, Note_on_c, 1, 34, 13
3, 181439, Note_on_c, 1, 34, 0
3, 181444, Note_on_c, 1, 50, 54
3, 181711, Note_on_c, 1, 38, 0
3, 181799, Note_on_c, 1, 39, 51
3, 181869, Note_on_c, 1, 39, 0
3, 181872, Note_on_c, 1, 50, 0
3, 181916, Note_on_c, 1, 40, 44
3, 182240, Note_on_c, 1, 39, 36
3, 182326, Note_on_c, 1, 40, 0
3, 182355, Note_on_c, 1, 39, 0
3, 182428, Note_on_c, 1, 41, 31
3, 182726, Note_on_c, 1, 39, 33
3, 182841, Note_on_c, 1, 41, 0
3, 182872, Note_on_c, 1, 44, 64
3, 182878, Note_on_c, 1, 39, 0
3, 183211, Note_on_c, 1, 39, 34
3, 183276, Note_on_c, 1, 39, 0
3, 183344, Note_on_c, 1, 44, 0
3, 183369, Note_on_c, 1, 46, 49
3, 183841, Note_on_c, 1, 38, 62
3, 183857, Note_on_c, 1, 46, 0
3, 184283, Note_on_c, 1, 38, 0
3, 184316, Note_on_c, 1, 39, 54
3, 184554, Note_on_c, 1, 39, 0
3, 184646, Note_on_c, 1, 39, 40
3, 184721, Note_on_c, 1, 39, 0
3, 184783, Note_on_c, 1, 41, 53
3, 185210, Note_on_c, 1, 41, 0
3, 185261, Note_on_c, 1, 43, 46
3, 185626, Note_on_c, 1, 39, 33
3, 185687, Note_on_c, 1, 43, 0
3, 185690, Note_on_c, 1, 39, 0
3, 185747, Note_on_c, 1, 46, 53
3, 186199, Note_on_c, 1, 46, 0
3, 186244, Note_on_c, 1, 45, 49
3, 186569, Note_on_c, 1, 41, 53
3, 186648, Note_on_c, 1, 41, 0
3, 186732, Note_on_c, 1, 36, 69
3, 186842, Note_on_c, 1, 45, 0
3, 187180, Note_on_c, 1, 36, 0
3, 187210, Note_on_c, 1, 33, 50
3, 187682, Note_on_c, 1, 33, 0
3, 187687, Note_on_c, 1, 41, 51
3, 187956, Note_on_c, 1, 41, 0
3, 188016, Note_on_c, 1, 39, 36
3, 188062, Note_on_c, 1, 39, 0
3, 188163, Note_on_c, 1, 38, 49
3, 188496, Note_on_c, 1, 37, 43
3, 188560, Note_on_c, 1, 38, 0
3, 188650, Note_on_c, 1, 37, 0
3, 188655, Note_on_c, 1, 52, 71
3, 189041, Note_on_c, 1, 52, 0
3, 189105, Note_on_c, 1, 50, 57
3, 189451, Note_on_c, 1, 39, 38
3, 189508, Note_on_c, 1, 50, 0
3, 189543, Note_on_c, 1, 39, 0
3, 189590, Note_on_c, 1, 42, 57
3, 190004, Note_on_c, 1, 42, 0
3, 190054, Note_on_c, 1, 43, 53
3, 190507, Note_on_c, 1, 43, 0
3, 190545, Note_on_c, 1, 38, 56
3, 190995, Note_on_c, 1, 38, 0
3, 191016, Note_on_c, 1, 35, 60
3, 191448, Note_on_c, 1, 35, 0
3, 191512, Note_on_c, 1, 35, 74
3, 191950, Note_on_c, 1, 35, 0
3, 192008, Note_on_c, 1, 36, 57
3, 192271, Note_on_c, 1, 36, 0
3, 192346, Note_on_c, 1, 36, 61
3, 192437, Note_on_c, 1, 36, 0
3, 192478, Note_on_c, 1, 38, 45
3, 192944, Note_on_c, 1, 38, 0
3, 192952, Note_on_c, 1, 39, 53
3, 193318, Note_on_c, 1, 36, 53
3, 193357, Note_on_c, 1, 36, 0
3, 193406, Note_on_c, 1, 39, 0
3, 193444, Note_on_c, 1, 40, 66
3, 193706, Note_on_c, 1, 40, 0
3, 193771, Note_on_c, 1, 40, 55
3, 193863, Note_on_c, 1, 40, 0
3, 193908, Note_on_c, 1, 41, 58
3, 194364, Note_on_c, 1, 41, 0
3, 194391, Note_on_c, 1, 43, 57
3, 194800, Note_on_c, 1, 38, 20
3, 194840, Note_on_c, 1, 38, 0
3, 194858, Note_on_c, 1, 43, 0
3, 194886, Note_on_c, 1, 45, 54
3, 195348, Note_on_c, 1, 45, 0
3, 195405, Note_on_c, 1, 46, 52
3, 195733, Note_on_c, 1, 38, 40
3, 195780, Note_on_c, 1, 38, 0
3, 195839, Note_on_c, 1, 50, 63
3, 195935, Note_on_c, 1, 46, 0
3, 196254, Note_on_c, 1, 50, 0
3, 196328, Note_on_c, 1, 46, 44
3, 196629, Note_on_c, 1, 39, 38
3, 196717, Note_on_c, 1, 39, 0
3, 196727, Note_on_c, 1, 46, 0
3, 196768, Note_on_c, 1, 52, 71
3, 197093, Note_on_c, 1, 39, 20
3, 197136, Note_on_c, 1, 39, 0
3, 197170, Note_on_c, 1, 52, 0
3, 197253, Note_on_c, 1, 49, 55
3, 197594, Note_on_c, 1, 37, 30
3, 197626, Note_on_c, 1, 37, 0
3, 197691, Note_on_c, 1, 49, 0
3, 197744, Note_on_c, 1, 46, 44
3, 198202, Note_on_c, 1, 46, 0
3, 198240, Note_on_c, 1, 43, 49
3, 198743, Note_on_c, 1, 43, 0
3, 198750, Note_on_c, 1, 40, 54
3, 199169, Note_on_c, 1, 40, 0
3, 199207, Note_on_c, 1, 37, 40
3, 199544, Note_on_c, 1, 34, 34
3, 199599, Note_on_c, 1, 37, 0
3, 199642, Note_on_c, 1, 34, 0
3, 199654, Note_on_c, 1, 36, 45
3, 200016, Note_on_c, 1, 34, 38
3, 200025, Note_on_c, 1, 36, 0
3, 200141, Note_on_c, 1, 34, 0
3, 200145, Note_on_c, 1, 38, 57
3, 200475, Note_on_c, 1, 37, 37
3, 200528, Note_on_c, 1, 38, 0
3, 200601, Note_on_c, 1, 37, 0
3, 200630, Note_on_c, 1, 39, 49
3, 200986, Note_on_c, 1, 37, 37
3, 201044, Note_on_c, 1, 39, 0
3, 201109, Note_on_c, 1, 40, 53
3, 201138, Note_on_c, 1, 37, 0
3, 201464, Note_on_c, 1, 39, 40
3, 201466, Note_on_c, 1, 40, 0
3, 201594, Note_on_c, 1, 41, 54
3, 201612, Note_on_c, 1, 39, 0
3, 201936, Note_on_c, 1, 39, 33
3, 201951, Note_on_c, 1, 41, 0
3, 202073, Note_on_c, 1, 43, 58
3, 202084, Note_on_c, 1, 39, 0
3, 202529, Note_on_c, 1, 43, 0
3, 202560, Note_on_c, 1, 44, 43
3, 202994, Note_on_c, 1, 44, 0
3, 203018, Note_on_c, 1, 45, 54
3, 203399, Note_on_c, 1, 45, 0
3, 203516, Note_on_c, 1, 46, 57
3, 203944, Note_on_c, 1, 46, 0
3, 203983, Note_on_c, 1, 41, 48
3, 204471, Note_on_c, 1, 34, 53
3, 204519, Note_on_c, 1, 41, 0
3, 204951, Note_on_c, 1, 34, 0
3, 204982, Note_on_c, 1, 41, 68
3, 205414, Note_on_c, 1, 41, 0
3, 205434, Note_on_c, 1, 46, 81
3, 206363, Note_on_c, 1, 46, 0
3, 206398, Note_on_c, 1, 38, 60
3, 207328, Note_on_c, 1, 38, 0
3, 207359, Note_on_c, 1, 39, 52
3, 208178, Note_on_c, 1, 50, 45
3, 208303, Note_on_c, 1, 39, 0
3, 208304, Note_on_c, 1, 50, 0
3, 208367, Note_on_c, 1, 48, 47
3, 209124, Note_on_c, 1, 48, 0
3, 209125, Note_on_c, 1, 46, 57
3, 209229, Note_on_c, 1, 46, 0
3, 209295, Note_on_c, 1, 45, 51
3, 209373, Note_on_c, 1, 45, 0
3, 209600, Note_on_c, 1, 43, 52
3, 209712, Note_on_c, 1, 43, 0
3, 209775, Note_on_c, 1, 41, 62
3, 211017, Note_on_c, 1, 39, 59
3, 211050, Note_on_c, 1, 41, 0
3, 211114, Note_on_c, 1, 39, 0
3, 211189, Note_on_c, 1, 38, 55
3, 211967, Note_on_c, 1, 50, 57
3, 212068, Note_on_c, 1, 50, 0
3, 212148, Note_on_c, 1, 38, 0
3, 212150, Note_on_c, 1, 48, 64
3, 212929, Note_on_c, 1, 48, 0
3, 212939, Note_on_c, 1, 45, 62
3, 213056, Note_on_c, 1, 45, 0
3, 213142, Note_on_c, 1, 43, 40
3, 214028, Note_on_c, 1, 43, 0
3, 214080, Note_on_c, 1, 41, 55
3, 214395, Note_on_c, 1, 41, 0
3, 214408, Note_on_c, 1, 38, 45
3, 214513, Note_on_c, 1, 38, 0
3, 214580, Note_on_c, 1, 35, 58
3, 215038, Note_on_c, 1, 35, 0
3, 215063, Note_on_c, 1, 36, 55
3, 216512, Note_on_c, 1, 38, 46
3, 216553, Note_on_c, 1, 38, 0
3, 216577, Note_on_c, 1, 36, 0
3, 216644, Note_on_c, 1, 38, 57
3, 216783, Note_on_c, 1, 38, 0
3, 216930, Note_on_c, 1, 39, 69
3, 217387, Note_on_c, 1, 39, 0
3, 217456, Note_on_c, 1, 40, 52
3, 217507, Note_on_c, 1, 40, 0
3, 217603, Note_on_c, 1, 40, 48
3, 217709, Note_on_c, 1, 40, 0
3, 217795, Note_on_c, 1, 41, 74
3, 218838, Note_on_c, 1, 41, 0
3, 218931, Note_on_c, 1, 46, 65
3, 219868, Note_on_c, 1, 34, 47
3, 219971, Note_on_c, 1, 46, 0
3, 221289, Note_on_c, 1, 34, 0
3, 221298, Note_on_c, 1, 46, 73
3, 221779, Note_on_c, 1, 53, 96
3, 222166, Note_on_c, 1, 46, 0
3, 222214, Note_on_c, 1, 53, 0
3, 222253, Note_on_c, 1, 50, 66
3, 222699, Note_on_c, 1, 50, 0
3, 222728, Note_on_c, 1, 51, 51
3, 223210, Note_on_c, 1, 51, 0
3, 223214, Note_on_c, 1, 42, 36
3, 223683, Note_on_c, 1, 42, 0
3, 223709, Note_on_c, 1, 43, 46
3, 225006, Note_on_c, 1, 52, 75
3, 225071, Note_on_c, 1, 43, 0
3, 225455, Note_on_c, 1, 52, 0
3, 225600, Note_on_c, 1, 51, 75
3, 225932, Note_on_c, 1, 48, 58
3, 225933, Note_on_c, 1, 51, 0
3, 226027, Note_on_c, 1, 48, 0
3, 226116, Note_on_c, 1, 45, 35
3, 226469, Note_on_c, 1, 45, 0
3, 226565, Note_on_c, 1, 50, 57
3, 226962, Note_on_c, 1, 50, 0
3, 227065, Note_on_c, 1, 41, 44
3, 227462, Note_on_c, 1, 41, 0
3, 227517, Note_on_c, 1, 45, 52
3, 228354, Note_on_c, 1, 38, 34
3, 228398, Note_on_c, 1, 38, 0
3, 228428, Note_on_c, 1, 45, 0
3, 228475, Note_on_c, 1, 43, 37
3, 229403, Note_on_c, 1, 43, 0
3, 229413, Note_on_c, 1, 55, 64
3, 229604, Note_on_c, 1, 55, 0
3, 229746, Note_on_c, 1, 47, 35
3, 229846, Note_on_c, 1, 47, 0
3, 229894, Note_on_c, 1, 50, 54
3, 230335, Note_on_c, 1, 50, 0
3, 230399, Note_on_c, 1, 48, 35
3, 230823, Note_on_c, 1, 48, 0
3, 230882, Note_on_c, 1, 46, 44
3, 231302, Note_on_c, 1, 46, 0
3, 231349, Note_on_c, 1, 45, 46
3, 232158, Note_on_c, 1, 45, 0
3, 232181, Note_on_c, 1, 43, 54
3, 232278, Note_on_c, 1, 43, 0
3, 232357, Note_on_c, 1, 40, 68
3, 232630, Note_on_c, 1, 40, 0
3, 232674, Note_on_c, 1, 43, 62
3, 232782, Note_on_c, 1, 43, 0
3, 232855, Note_on_c, 1, 41, 59
3, 233830, Note_on_c, 1, 33, 38
3, 233905, Note_on_c, 1, 33, 0
3, 234133, Note_on_c, 1, 36, 70
3, 234152, Note_on_c, 1, 41, 0
3, 234274, Note_on_c, 1, 36, 0
3, 234288, Note_on_c, 1, 34, 59
3, 235204, Note_on_c, 1, 37, 57
3, 235269, Note_on_c, 1, 37, 0
3, 235507, Note_on_c, 1, 39, 64
3, 235539, Note_on_c, 1, 34, 0
3, 235670, Note_on_c, 1, 39, 0
3, 235685, Note_on_c, 1, 38, 61
3, 236479, Note_on_c, 1, 38, 0
3, 236604, Note_on_c, 1, 43, 64
3, 237096, Note_on_c, 1, 43, 0
3, 237119, Note_on_c, 1, 41, 53
3, 237469, Note_on_c, 1, 38, 33
3, 237514, Note_on_c, 1, 38, 0
3, 237542, Note_on_c, 1, 41, 0
3, 237607, Note_on_c, 1, 51, 61
3, 238012, Note_on_c, 1, 51, 0
3, 238091, Note_on_c, 1, 50, 54
3, 238542, Note_on_c, 1, 50, 0
3, 238573, Note_on_c, 1, 45, 54
3, 240009, Note_on_c, 1, 54, 39
3, 240109, Note_on_c, 1, 54, 0
3, 240341, Note_on_c, 1, 57, 77
3, 240436, Note_on_c, 1, 57, 0
3, 240537, Note_on_c, 1, 55, 62
3, 240851, Note_on_c, 1, 55, 0
3, 240997, Note_on_c, 1, 54, 47
3, 241429, Note_on_c, 1, 45, 0
3, 241434, Note_on_c, 1, 54, 0
3, 241460, Note_on_c, 1, 50, 41
3, 241770, Note_on_c, 1, 42, 38
3, 241854, Note_on_c, 1, 50, 0
3, 241899, Note_on_c, 1, 42, 0
3, 241942, Note_on_c, 1, 43, 36
3, 242778, Note_on_c, 1, 43, 0
3, 242895, Note_on_c, 1, 59, 74
3, 243279, Note_on_c, 1, 59, 0
3, 243376, Note_on_c, 1, 54, 59
3, 243757, Note_on_c, 1, 54, 0
3, 243839, Note_on_c, 1, 52, 51
3, 244047, Pitch_bend_c, 1, 8192
3, 244106, Pitch_bend_c, 1, 8192
3, 244287, Pitch_bend_c, 1, 8192
3, 244294, Pitch_bend_c, 1, 8712
3, 244300, Pitch_bend_c, 1, 9232
3, 244307, Pitch_bend_c, 1, 9622
3, 244315, Pitch_bend_c, 1, 10142
3, 244321, Pitch_bend_c, 1, 10662
3, 244328, Pitch_bend_c, 1, 11052
3, 244335, Pitch_bend_c, 1, 11702
3, 244341, Pitch_bend_c, 1, 12092
3, 244348, Pitch_bend_c, 1, 12482
3, 244355, Pitch_bend_c, 1, 12872
3, 244362, Pitch_bend_c, 1, 13132
3, 244369, Pitch_bend_c, 1, 13522
3, 244376, Pitch_bend_c, 1, 13782
3, 244383, Pitch_bend_c, 1, 14042
3, 244390, Pitch_bend_c, 1, 14302
3, 244396, Pitch_bend_c, 1, 14432
3, 244414, Pitch_bend_c, 1, 14562
3, 244430, Pitch_bend_c, 1, 14302
3, 244437, Pitch_bend_c, 1, 14172
3, 244444, Pitch_bend_c, 1, 14042
3, 244451, Pitch_bend_c, 1, 13782
3, 244458, Pitch_bend_c, 1, 13392
3, 244464, Pitch_bend_c, 1, 13002
3, 244471, Pitch_bend_c, 1, 12742
3, 244478, Pitch_bend_c, 1, 12352
3, 244485, Pitch_bend_c, 1, 11962
3, 244492, Pitch_bend_c, 1, 11572
3, 244499, Pitch_bend_c, 1, 11312
3, 244506, Pitch_bend_c, 1, 10792
3, 244512, Pitch_bend_c, 1, 10402
3, 244519, Pitch_bend_c, 1, 10142
3, 244526, Pitch_bend_c, 1, 9882
3, 244533, Pitch_bend_c, 1, 9752
3, 244540, Pitch_bend_c, 1, 9622
3, 244547, Pitch_bend_c, 1, 9492
3, 244581, Pitch_bend_c, 1, 9752
3, 244587, Pitch_bend_c, 1, 9882
3, 244594, Pitch_bend_c, 1, 10012
3, 244601, Pitch_bend_c, 1, 10142
3, 244607, Pitch_bend_c, 1, 10402
3, 244614, Pitch_bend_c, 1, 10662
3, 244622, Pitch_bend_c, 1, 10922
3, 244629, Pitch_bend_c, 1, 11312
3, 244635, Pitch_bend_c, 1, 11572
3, 244642, Pitch_bend_c, 1, 11832
3, 244649, Pitch_bend_c, 1, 12222
3, 244655, Pitch_bend_c, 1, 12482
3, 244663, Pitch_bend_c, 1, 12742
3, 244670, Pitch_bend_c, 1, 13002
3, 244677, Pitch_bend_c, 1, 13262
3, 244683, Pitch_bend_c, 1, 13522
3, 244690, Pitch_bend_c, 1, 13652
3, 244697, Pitch_bend_c, 1, 13782
3, 244710, Pitch_bend_c, 1, 13912
3, 244741, Pitch_bend_c, 1, 13782
3, 244748, Pitch_bend_c, 1, 13652
3, 244754, Pitch_bend_c, 1, 13262
3, 244761, Pitch_bend_c, 1, 13002
3, 244768, Pitch_bend_c, 1, 12742
3, 244774, Pitch_bend_c, 1, 12352
3, 244781, Pitch_bend_c, 1, 11962
3, 244789, Pitch_bend_c, 1, 11572
3, 244796, Pitch_bend_c, 1, 11052
3, 244802, Pitch_bend_c, 1, 10662
3, 244809, Pitch_bend_c, 1, 10142
3, 244816, Pitch_bend_c, 1, 9752
3, 244822, Pitch_bend_c, 1, 9362
3, 244829, Pitch_bend_c, 1, 8972
3, 244837, Pitch_bend_c, 1, 8712
3, 244844, Pitch_bend_c, 1, 8192
3, 244847, Pitch_bend_c, 1, 8192
3, 244861, Pitch_bend_c, 1, 8192
3, 244895, Pitch_bend_c, 1, 8192
3, 244904, Pitch_bend_c, 1, 8192
3, 244917, Pitch_bend_c, 1, 8842
3, 244924, Pitch_bend_c, 1, 9102
3, 244931, Pitch_bend_c, 1, 9362
3, 244939, Pitch_bend_c, 1, 9622
3, 244945, Pitch_bend_c, 1, 9882
3, 244952, Pitch_bend_c, 1, 10142
3, 244959, Pitch_bend_c, 1, 10532
3, 244965, Pitch_bend_c, 1, 10792
3, 244972, Pitch_bend_c, 1, 11052
3, 244979, Pitch_bend_c, 1, 11572
3, 244987, Pitch_bend_c, 1, 11832
3, 244993, Pitch_bend_c, 1, 12092
3, 245000, Pitch_bend_c, 1, 12222
3, 245007, Pitch_bend_c, 1, 12482
3, 245014, Pitch_bend_c, 1, 12742
3, 245020, Pitch_bend_c, 1, 12872
3, 245027, Pitch_bend_c, 1, 13002
3, 245067, Pitch_bend_c, 1, 12352
3, 245074, Pitch_bend_c, 1, 11312
3, 245082, Pitch_bend_c, 1, 9882
3, 245088, Pitch_bend_c, 1, 8192
3, 245091, Pitch_bend_c, 1, 8192
3, 245605, Note_on_c, 1, 52, 0
3, 245649, Note_on_c, 1, 47, 16
3, 245735, Note_on_c, 1, 47, 0
3, 245782, Note_on_c, 1, 50, 69
3, 246727, Note_on_c, 1, 50, 0
3, 246754, Note_on_c, 1, 46, 43
3, 247655, Note_on_c, 1, 46, 0
3, 247710, Note_on_c, 1, 48, 56
3, 248649, Note_on_c, 1, 48, 0
3, 248656, Note_on_c, 1, 43, 56
3, 249575, Note_on_c, 1, 43, 0
3, 249607, Note_on_c, 1, 45, 55
3, 250096, Note_on_c, 1, 62, 63
3, 250186, Note_on_c, 1, 62, 0
3, 251046, Note_on_c, 1, 61, 67
3, 251806, Note_on_c, 1, 45, 0
3, 251873, Note_on_c, 1, 40, 18
3, 251879, Note_on_c, 1, 61, 0
3, 251984, Note_on_c, 1, 40, 0
3, 252009, Note_on_c, 1, 41, 43
3, 252426, Note_on_c, 1, 41, 0
3, 252482, Note_on_c, 1, 46, 55
3, 252810, Note_on_c, 1, 37, 49
3, 252889, Note_on_c, 1, 37, 0
3, 252898, Note_on_c, 1, 46, 0
3, 252977, Note_on_c, 1, 38, 49
3, 253402, Note_on_c, 1, 38, 0
3, 253439, Note_on_c, 1, 39, 49
3, 254248, Note_on_c, 1, 48, 60
3, 254344, Note_on_c, 1, 48, 0
3, 254388, Note_on_c, 1, 39, 0
3, 254438, Note_on_c, 1, 46, 33
3, 254771, Note_on_c, 1, 40, 47
3, 254843, Note_on_c, 1, 46, 0
3, 254871, Note_on_c, 1, 40, 0
3, 254926, Note_on_c, 1, 41, 62
3, 255759, Note_on_c, 1, 39, 21
3, 255841, Note_on_c, 1, 39, 0
3, 255874, Note_on_c, 1, 53, 85
3, 255896, Note_on_c, 1, 41, 0
3, 256676, Note_on_c, 1, 41, 54
3, 256729, Note_on_c, 1, 41, 0
3, 256754, Note_on_c, 1, 53, 0
3, 256830, Note_on_c, 1, 51, 62
3, 257256, Note_on_c, 1, 51, 0
3, 257291, Note_on_c, 1, 50, 60
3, 258215, Note_on_c, 1, 50, 0
3, 258256, Note_on_c, 1, 46, 44
3, 259215, Note_on_c, 1, 41, 53
3, 259285, Note_on_c, 1, 46, 0
3, 260088, Note_on_c, 1, 41, 0
3, 260174, Note_on_c, 1, 43, 43
3, 260684, Note_on_c, 1, 43, 0
3, 260686, Note_on_c, 1, 37, 55
3, 261112, Note_on_c, 1, 37, 0
3, 261160, Note_on_c, 1, 36, 49
3, 262093, Note_on_c, 1, 51, 55
3, 262925, Note_on_c, 1, 34, 33
3, 262972, Note_on_c, 1, 51, 0
3, 263011, Note_on_c, 1, 36, 0
3, 263060, Note_on_c, 1, 37, 48
3, 263066, Note_on_c, 1, 52, 40
3, 263080, Note_on_c, 1, 34, 0
3, 264281, Note_on_c, 1, 37, 0
3, 264310, Note_on_c, 1, 36, 47
3, 264351, Note_on_c, 1, 52, 0
3, 264442, Note_on_c, 1, 36, 0
3, 264470, Note_on_c, 1, 37, 64
3, 264914, Note_on_c, 1, 37, 0
3, 264938, Note_on_c, 1, 38, 69
3, 265758, Note_on_c, 1, 37, 27
3, 265799, Note_on_c, 1, 38, 0
3, 265916, Note_on_c, 1, 41, 71
3, 265957, Note_on_c, 1, 37, 0
3, 266879, Note_on_c, 1, 41, 0
3, 266927, Note_on_c, 1, 37, 65
3, 267839, Note_on_c, 1, 37, 0
3, 267850, Note_on_c, 1, 40, 48
3, 268185, Note_on_c, 1, 43, 40
3, 268286, Note_on_c, 1, 43, 0
3, 268305, Note_on_c, 1, 40, 0
3, 268339, Note_on_c, 1, 46, 46
3, 268668, Note_on_c, 1, 37, 36
3, 268745, Note_on_c, 1, 37, 0
3, 268751, Note_on_c, 1, 46, 0
3, 268832, Note_on_c, 1, 50, 57
3, 269739, Note_on_c, 1, 50, 0
3, 269758, Note_on_c, 1, 43, 38
3, 270198, Note_on_c, 1, 43, 0
3, 270248, Note_on_c, 1, 42, 40
3, 270613, Note_on_c, 1, 39, 28
3, 270623, Note_on_c, 1, 42, 0
3, 270736, Note_on_c, 1, 41, 48
3, 270740, Note_on_c, 1, 39, 0
3, 271553, Note_on_c, 1, 36, 38
3, 271631, Note_on_c, 1, 41, 0
3, 271678, Note_on_c, 1, 36, 0
3, 271722, Note_on_c, 1, 33, 46
3, 272641, Note_on_c, 1, 34, 51
3, 272642, Note_on_c, 1, 33, 0
3, 276508, Note_on_c, 1, 34, 0
3, 276508, End_track
4, 0, Start_track
4, 0, MIDI_port, 0
4, 0, Control_c, 9, 7, 90
4, 42, Note_on_c, 9, 59, 51
4, 132, Note_on_c, 9, 59, 0
4, 821, Note_on_c, 9, 46, 59
4, 827, Note_on_c, 9, 59, 53
4, 863, Note_on_c, 9, 46, 0
4, 871, Note_on_c, 9, 59, 0
4, 1036, Note_on_c, 9, 59, 28
4, 1133, Note_on_c, 9, 59, 0
4, 1784, Note_on_c, 9, 59, 51
4, 1824, Note_on_c, 9, 59, 0
4, 2280, Note_on_c, 9, 59, 71
4, 2318, Note_on_c, 9, 59, 0
4, 2324, Note_on_c, 9, 31, 47
4, 2370, Note_on_c, 9, 31, 0
4, 2786, Note_on_c, 9, 59, 46
4, 2830, Note_on_c, 9, 59, 0
4, 2952, Note_on_c, 9, 59, 64
4, 3447, Note_on_c, 9, 46, 59
4, 3615, Note_on_c, 9, 59, 0
4, 3634, Note_on_c, 9, 46, 0
4, 3775, Note_on_c, 9, 31, 45
4, 3839, Note_on_c, 9, 31, 0
4, 3936, Note_on_c, 9, 31, 43
4, 3986, Note_on_c, 9, 31, 0
4, 4224, Note_on_c, 9, 59, 76
4, 4303, Note_on_c, 9, 59, 0
4, 4667, Note_on_c, 9, 46, 45
4, 4723, Note_on_c, 9, 46, 0
4, 4835, Note_on_c, 9, 46, 42
4, 4844, Note_on_c, 9, 59, 48
4, 4887, Note_on_c, 9, 59, 0
4, 4989, Note_on_c, 9, 46, 0
4, 5625, Note_on_c, 9, 59, 55
4, 5665, Note_on_c, 9, 59, 0
4, 5777, Note_on_c, 9, 59, 50
4, 5929, Note_on_c, 9, 59, 0
4, 6525, Note_on_c, 9, 59, 58
4, 6563, Note_on_c, 9, 59, 0
4, 6690, Note_on_c, 9, 59, 67
4, 6846, Note_on_c, 9, 59, 0
4, 7036, Note_on_c, 9, 44, 32
4, 7051, Note_on_c, 9, 31, 34
4, 7088, Note_on_c, 9, 44, 0
4, 7120, Note_on_c, 9, 31, 0
4, 7257, Note_on_c, 9, 35, 30
4, 7342, Note_on_c, 9, 35, 0
4, 7368, Note_on_c, 9, 44, 51
4, 7452, Note_on_c, 9, 44, 0
4, 7533, Note_on_c, 9, 59, 46
4, 7544, Note_on_c, 9, 35, 63
4, 7576, Note_on_c, 9, 59, 0
4, 7651, Note_on_c, 9, 35, 0
4, 7693, Note_on_c, 9, 59, 54
4, 7720, Note_on_c, 9, 44, 50
4, 7797, Note_on_c, 9, 44, 0
4, 7839, Note_on_c, 9, 59, 0
4, 8043, Note_on_c, 9, 44, 46
4, 8125, Note_on_c, 9, 44, 0
4, 8404, Note_on_c, 9, 46, 36
4, 8489, Note_on_c, 9, 59, 60
4, 8502, Note_on_c, 9, 46, 0
4, 8528, Note_on_c, 9, 59, 0
4, 8672, Note_on_c, 9, 59, 58
4, 8814, Note_on_c, 9, 59, 0
4, 9133, Note_on_c, 9, 59, 96
4, 9393, Note_on_c, 9, 59, 0
4, 10100, Note_on_c, 9, 59, 37
4, 10229, Note_on_c, 9, 59, 0
4, 10411, Note_on_c, 9, 42, 47
4, 10452, Note_on_c, 9, 59, 54
4, 10476, Note_on_c, 9, 42, 0
4, 10489, Note_on_c, 9, 59, 0
4, 10603, Note_on_c, 9, 59, 71
4, 10627, Note_on_c, 9, 42, 40
4, 10694, Note_on_c, 9, 42, 0
4, 10912, Note_on_c, 9, 59, 0
4, 10950, Note_on_c, 9, 46, 44
4, 11046, Note_on_c, 9, 46, 0
4, 11363, Note_on_c, 9, 38, 46
4, 11377, Note_on_c, 9, 59, 39
4, 11410, Note_on_c, 9, 38, 0
4, 11429, Note_on_c, 9, 59, 0
4, 11535, Note_on_c, 9, 35, 31
4, 11559, Note_on_c, 9, 59, 50
4, 11624, Note_on_c, 9, 35, 0
4, 11742, Note_on_c, 9, 59, 0
4, 11891, Note_on_c, 9, 53, 53
4, 11931, Note_on_c, 9, 53, 0
4, 12338, Note_on_c, 9, 38, 24
4, 12347, Note_on_c, 9, 42, 47
4, 12376, Note_on_c, 9, 38, 0
4, 12398, Note_on_c, 9, 42, 0
4, 12541, Note_on_c, 9, 42, 47
4, 12565, Note_on_c, 9, 59, 50
4, 12606, Note_on_c, 9, 42, 0
4, 12609, Note_on_c, 9, 59, 0
4, 12818, Note_on_c, 9, 46, 71
4, 12854, Note_on_c, 9, 38, 34
4, 12861, Note_on_c, 9, 59, 81
4, 12903, Note_on_c, 9, 38, 0
4, 12905, Note_on_c, 9, 59, 0
4, 13000, Note_on_c, 9, 35, 26
4, 13012, Note_on_c, 9, 46, 0
4, 13167, Note_on_c, 9, 35, 0
4, 13313, Note_on_c, 9, 59, 74
4, 13351, Note_on_c, 9, 59, 0
4, 13440, Note_on_c, 9, 42, 29
4, 13488, Note_on_c, 9, 42, 0
4, 13746, Note_on_c, 9, 42, 45
4, 13809, Note_on_c, 9, 59, 60
4, 13817, Note_on_c, 9, 42, 0
4, 13848, Note_on_c, 9, 59, 0
4, 13930, Note_on_c, 9, 46, 74
4, 14201, Note_on_c, 9, 46, 0
4, 14255, Note_on_c, 9, 38, 26
4, 14293, Note_on_c, 9, 38, 0
4, 14295, Note_on_c, 9, 59, 53
4, 14335, Note_on_c, 9, 59, 0
4, 14691, Note_on_c, 9, 59, 73
4, 14724, Note_on_c, 9, 38, 37
4, 14752, Note_on_c, 9, 59, 0
4, 14775, Note_on_c, 9, 38, 0
4, 14900, Note_on_c, 9, 59, 45
4, 14951, Note_on_c, 9, 59, 0
4, 15077, Note_on_c, 9, 38, 57
4, 15186, Note_on_c, 9, 57, 73
4, 15192, Note_on_c, 9, 59, 68
4, 15200, Note_on_c, 9, 46, 40
4, 15230, Note_on_c, 9, 38, 0
4, 15231, Note_on_c, 9, 59, 0
4, 15265, Note_on_c, 9, 57, 0
4, 15270, Note_on_c, 9, 46, 0
4, 15339, Note_on_c, 9, 35, 72
4, 15392, Note_on_c, 9, 46, 29
4, 15436, Note_on_c, 9, 35, 0
4, 15549, Note_on_c, 9, 46, 0
4, 15715, Note_on_c, 9, 59, 60
4, 15753, Note_on_c, 9, 59, 0
4, 16197, Note_on_c, 9, 59, 56
4, 16238, Note_on_c, 9, 59, 0
4, 16617, Note_on_c, 9, 38, 52
4, 16627, Note_on_c, 9, 46, 48
4, 16652, Note_on_c, 9, 59, 94
4, 16659, Note_on_c, 9, 38, 0
4, 16670, Note_on_c, 9, 46, 0
4, 16726, Note_on_c, 9, 59, 0
4, 16779, Note_on_c, 9, 35, 47
4, 16851, Note_on_c, 9, 59, 80
4, 16893, Note_on_c, 9, 35, 0
4, 17028, Note_on_c, 9, 59, 0
4, 17624, Note_on_c, 9, 46, 34
4, 17646, Note_on_c, 9, 59, 49
4, 17689, Note_on_c, 9, 59, 0
4, 17690, Note_on_c, 9, 46, 0
4, 17800, Note_on_c, 9, 46, 38
4, 17915, Note_on_c, 9, 46, 0
4, 18135, Note_on_c, 9, 59, 51
4, 18190, Note_on_c, 9, 59, 0
4, 18622, Note_on_c, 9, 59, 64
4, 18673, Note_on_c, 9, 59, 0
4, 19042, Note_on_c, 9, 59, 63
4, 19082, Note_on_c, 9, 59, 0
4, 19126, Note_on_c, 9, 46, 34
4, 19155, Note_on_c, 9, 59, 81
4, 19166, Note_on_c, 9, 46, 0
4, 19235, Note_on_c, 9, 59, 0
4, 19256, Note_on_c, 9, 35, 44
4, 19314, Note_on_c, 9, 59, 79
4, 19423, Note_on_c, 9, 59, 0
4, 19432, Note_on_c, 9, 35, 0
4, 19770, Note_on_c, 9, 59, 66
4, 19810, Note_on_c, 9, 59, 0
4, 20058, Note_on_c, 9, 35, 46
4, 20117, Note_on_c, 9, 35, 0
4, 20141, Note_on_c, 9, 59, 69
4, 20179, Note_on_c, 9, 59, 0
4, 21283, Note_on_c, 9, 42, 57
4, 21324, Note_on_c, 9, 42, 0
4, 21634, Note_on_c, 9, 42, 57
4, 21672, Note_on_c, 9, 42, 0
4, 21942, Note_on_c, 9, 31, 50
4, 21965, Note_on_c, 9, 42, 56
4, 22003, Note_on_c, 9, 42, 0
4, 22016, Note_on_c, 9, 31, 0
4, 22120, Note_on_c, 9, 35, 41
4, 22262, Note_on_c, 9, 42, 62
4, 22307, Note_on_c, 9, 42, 0
4, 22325, Note_on_c, 9, 35, 0
4, 22410, Note_on_c, 9, 59, 53
4, 22439, Note_on_c, 9, 35, 40
4, 22450, Note_on_c, 9, 59, 0
4, 22491, Note_on_c, 9, 35, 0
4, 22559, Note_on_c, 9, 59, 44
4, 22607, Note_on_c, 9, 42, 44
4, 22651, Note_on_c, 9, 59, 0
4, 22716, Note_on_c, 9, 42, 0
4, 22846, Note_on_c, 9, 59, 88
4, 22886, Note_on_c, 9, 46, 65
4, 23015, Note_on_c, 9, 46, 0
4, 23088, Note_on_c, 9, 42, 48
4, 23164, Note_on_c, 9, 59, 0
4, 23182, Note_on_c, 9, 42, 0
4, 23308, Note_on_c, 9, 59, 44
4, 23357, Note_on_c, 9, 59, 0
4, 23782, Note_on_c, 9, 59, 85
4, 23862, Note_on_c, 9, 59, 0
4, 23978, Note_on_c, 9, 59, 59
4, 24070, Note_on_c, 9, 59, 0
4, 24284, Note_on_c, 9, 31, 35
4, 24349, Note_on_c, 9, 31, 0
4, 24499, Note_on_c, 9, 46, 34
4, 24615, Note_on_c, 9, 46, 0
4, 24810, Note_on_c, 9, 59, 60
4, 24850, Note_on_c, 9, 59, 0
4, 24969, Note_on_c, 9, 59, 57
4, 25153, Note_on_c, 9, 59, 0
4, 25790, Note_on_c, 9, 59, 70
4, 25828, Note_on_c, 9, 59, 0
4, 25979, Note_on_c, 9, 59, 45
4, 26081, Note_on_c, 9, 59, 0
4, 26274, Note_on_c, 9, 59, 83
4, 26285, Note_on_c, 9, 46, 57
4, 26307, Note_on_c, 9, 35, 20
4, 26332, Note_on_c, 9, 46, 0
4, 26354, Note_on_c, 9, 35, 0
4, 26355, Note_on_c, 9, 59, 0
4, 26910, Note_on_c, 9, 59, 71
4, 26948, Note_on_c, 9, 59, 0
4, 27694, Note_on_c, 9, 46, 39
4, 27724, Note_on_c, 9, 59, 44
4, 27738, Note_on_c, 9, 46, 0
4, 27769, Note_on_c, 9, 59, 0
4, 27854, Note_on_c, 9, 59, 59
4, 27861, Note_on_c, 9, 46, 74
4, 28014, Note_on_c, 9, 46, 0
4, 28043, Note_on_c, 9, 59, 0
4, 28162, Note_on_c, 9, 59, 68
4, 28226, Note_on_c, 9, 59, 0
4, 28833, Note_on_c, 9, 59, 79
4, 28929, Note_on_c, 9, 59, 0
4, 28976, Note_on_c, 9, 38, 38
4, 29022, Note_on_c, 9, 38, 0
4, 29171, Note_on_c, 9, 46, 45
4, 29216, Note_on_c, 9, 46, 0
4, 29342, Note_on_c, 9, 38, 36
4, 29343, Note_on_c, 9, 46, 64
4, 29438, Note_on_c, 9, 38, 0
4, 29549, Note_on_c, 9, 46, 0
4, 29647, Note_on_c, 9, 59, 71
4, 29669, Note_on_c, 9, 46, 71
4, 29680, Note_on_c, 9, 38, 55
4, 29688, Note_on_c, 9, 59, 0
4, 29728, Note_on_c, 9, 38, 0
4, 29816, Note_on_c, 9, 59, 62
4, 29854, Note_on_c, 9, 59, 0
4, 29859, Note_on_c, 9, 46, 0
4, 29985, Note_on_c, 9, 38, 58
4, 30031, Note_on_c, 9, 38, 0
4, 30118, Note_on_c, 9, 59, 83
4, 30156, Note_on_c, 9, 59, 0
4, 30329, Note_on_c, 9, 38, 57
4, 30367, Note_on_c, 9, 38, 0
4, 30623, Note_on_c, 9, 59, 92
4, 30639, Note_on_c, 9, 34, 50
4, 30679, Note_on_c, 9, 46, 49
4, 30704, Note_on_c, 9, 59, 0
4, 30721, Note_on_c, 9, 46, 0
4, 30758, Note_on_c, 9, 34, 0
4, 30813, Note_on_c, 9, 59, 80
4, 30839, Note_on_c, 9, 35, 72
4, 30917, Note_on_c, 9, 59, 0
4, 30924, Note_on_c, 9, 35, 0
4, 31570, Note_on_c, 9, 59, 51
4, 31611, Note_on_c, 9, 59, 0
4, 31693, Note_on_c, 9, 59, 65
4, 31863, Note_on_c, 9, 59, 0
4, 32043, Note_on_c, 9, 46, 67
4, 32080, Note_on_c, 9, 46, 0
4, 32220, Note_on_c, 9, 46, 62
4, 32297, Note_on_c, 9, 46, 0
4, 32499, Note_on_c, 9, 35, 36
4, 32550, Note_on_c, 9, 35, 0
4, 32689, Note_on_c, 9, 59, 68
4, 32710, Note_on_c, 9, 35, 25
4, 32806, Note_on_c, 9, 35, 0
4, 32822, Note_on_c, 9, 59, 0
4, 33025, Note_on_c, 9, 59, 71
4, 33071, Note_on_c, 9, 59, 0
4, 33161, Note_on_c, 9, 59, 67
4, 33228, Note_on_c, 9, 59, 0
4, 33480, Note_on_c, 9, 35, 49
4, 33492, Note_on_c, 9, 46, 60
4, 33494, Note_on_c, 9, 59, 92
4, 33525, Note_on_c, 9, 35, 0
4, 33533, Note_on_c, 9, 46, 0
4, 33665, Note_on_c, 9, 59, 0
4, 33972, Note_on_c, 9, 59, 92
4, 34081, Note_on_c, 9, 59, 0
4, 34455, Note_on_c, 9, 35, 46
4, 34458, Note_on_c, 9, 59, 66
4, 34505, Note_on_c, 9, 35, 0
4, 34556, Note_on_c, 9, 59, 0
4, 34607, Note_on_c, 9, 35, 33
4, 34619, Note_on_c, 9, 59, 77
4, 34733, Note_on_c, 9, 35, 0
4, 34870, Note_on_c, 9, 59, 0
4, 35388, Note_on_c, 9, 59, 44
4, 35438, Note_on_c, 9, 59, 0
4, 35535, Note_on_c, 9, 59, 69
4, 35730, Note_on_c, 9, 59, 0
4, 35853, Note_on_c, 9, 38, 48
4, 35896, Note_on_c, 9, 38, 0
4, 36033, Note_on_c, 9, 35, 30
4, 36131, Note_on_c, 9, 35, 0
4, 36225, Note_on_c, 9, 59, 74
4, 36304, Note_on_c, 9, 59, 0
4, 36582, Note_on_c, 9, 59, 74
4, 36671, Note_on_c, 9, 59, 0
4, 36802, Note_on_c, 9, 42, 42
4, 36886, Note_on_c, 9, 42, 0
4, 36927, Note_on_c, 9, 59, 78
4, 36965, Note_on_c, 9, 59, 0
4, 37188, Note_on_c, 9, 42, 52
4, 37287, Note_on_c, 9, 59, 69
4, 37306, Note_on_c, 9, 42, 0
4, 37326, Note_on_c, 9, 59, 0
4, 37522, Note_on_c, 9, 42, 49
4, 37621, Note_on_c, 9, 59, 75
4, 37654, Note_on_c, 9, 42, 0
4, 37687, Note_on_c, 9, 59, 0
4, 37861, Note_on_c, 9, 42, 39
4, 37957, Note_on_c, 9, 42, 0
4, 37981, Note_on_c, 9, 59, 76
4, 38074, Note_on_c, 9, 59, 0
4, 38173, Note_on_c, 9, 42, 56
4, 38254, Note_on_c, 9, 59, 65
4, 38306, Note_on_c, 9, 42, 0
4, 38311, Note_on_c, 9, 59, 0
4, 38325, Note_on_c, 9, 46, 58
4, 38406, Note_on_c, 9, 59, 70
4, 38409, Note_on_c, 9, 46, 0
4, 38466, Note_on_c, 9, 42, 43
4, 38520, Note_on_c, 9, 59, 0
4, 38703, Note_on_c, 9, 42, 0
4, 38720, Note_on_c, 9, 38, 46
4, 38747, Note_on_c, 9, 59, 62
4, 38785, Note_on_c, 9, 59, 0
4, 38798, Note_on_c, 9, 38, 0
4, 38895, Note_on_c, 9, 59, 51
4, 38906, Note_on_c, 9, 35, 34
4, 38949, Note_on_c, 9, 59, 0
4, 39093, Note_on_c, 9, 35, 0
4, 39212, Note_on_c, 9, 35, 42
4, 39237, Note_on_c, 9, 59, 88
4, 39297, Note_on_c, 9, 35, 0
4, 39314, Note_on_c, 9, 59, 0
4, 39411, Note_on_c, 9, 59, 77
4, 39608, Note_on_c, 9, 59, 0
4, 39872, Note_on_c, 9, 59, 65
4, 39911, Note_on_c, 9, 59, 0
4, 40204, Note_on_c, 9, 59, 76
4, 40241, Note_on_c, 9, 59, 0
4, 40357, Note_on_c, 9, 59, 85
4, 40678, Note_on_c, 9, 59, 0
4, 40856, Note_on_c, 9, 59, 54
4, 40897, Note_on_c, 9, 59, 0
4, 41168, Note_on_c, 9, 59, 101
4, 41472, Note_on_c, 9, 46, 50
4, 41492, Note_on_c, 9, 59, 0
4, 41518, Note_on_c, 9, 46, 0
4, 41594, Note_on_c, 9, 42, 60
4, 41649, Note_on_c, 9, 59, 43
4, 41696, Note_on_c, 9, 59, 0
4, 41743, Note_on_c, 9, 42, 0
4, 41781, Note_on_c, 9, 35, 51
4, 41839, Note_on_c, 9, 59, 103
4, 41996, Note_on_c, 9, 35, 0
4, 42116, Note_on_c, 9, 35, 40
4, 42211, Note_on_c, 9, 59, 0
4, 42237, Note_on_c, 9, 35, 0
4, 42581, Note_on_c, 9, 59, 54
4, 42619, Note_on_c, 9, 59, 0
4, 42746, Note_on_c, 9, 59, 63
4, 42986, Note_on_c, 9, 59, 0
4, 43087, Note_on_c, 9, 59, 92
4, 43423, Note_on_c, 9, 59, 0
4, 43458, Note_on_c, 9, 46, 53
4, 43511, Note_on_c, 9, 46, 0
4, 43576, Note_on_c, 9, 59, 43
4, 43591, Note_on_c, 9, 42, 42
4, 43625, Note_on_c, 9, 59, 0
4, 43713, Note_on_c, 9, 42, 0
4, 43753, Note_on_c, 9, 59, 43
4, 43797, Note_on_c, 9, 59, 0
4, 44035, Note_on_c, 9, 59, 110
4, 44311, Note_on_c, 9, 59, 0
4, 44735, Note_on_c, 9, 59, 99
4, 45029, Note_on_c, 9, 59, 0
4, 45197, Note_on_c, 9, 59, 36
4, 45246, Note_on_c, 9, 59, 0
4, 45483, Note_on_c, 9, 59, 87
4, 45501, Note_on_c, 9, 60, 62
4, 45508, Note_on_c, 9, 46, 63
4, 45539, Note_on_c, 9, 60, 0
4, 45565, Note_on_c, 9, 46, 0
4, 45690, Note_on_c, 9, 59, 0
4, 45963, Note_on_c, 9, 59, 56
4, 45991, Note_on_c, 9, 34, 60
4, 46007, Note_on_c, 9, 59, 0
4, 46077, Note_on_c, 9, 34, 0
4, 46165, Note_on_c, 9, 59, 92
4, 46176, Note_on_c, 9, 35, 45
4, 46340, Note_on_c, 9, 35, 0
4, 46396, Note_on_c, 9, 59, 0
4, 46610, Note_on_c, 9, 59, 51
4, 46650, Note_on_c, 9, 59, 0
4, 46899, Note_on_c, 9, 59, 96
4, 46933, Note_on_c, 9, 46, 40
4, 46976, Note_on_c, 9, 46, 0
4, 47081, Note_on_c, 9, 46, 45
4, 47126, Note_on_c, 9, 59, 0
4, 47236, Note_on_c, 9, 46, 0
4, 47394, Note_on_c, 9, 34, 48
4, 47453, Note_on_c, 9, 34, 0
4, 47525, Note_on_c, 9, 57, 70
4, 47558, Note_on_c, 9, 35, 53
4, 47577, Note_on_c, 9, 57, 0
4, 47689, Note_on_c, 9, 35, 0
4, 47876, Note_on_c, 9, 59, 54
4, 47918, Note_on_c, 9, 59, 0
4, 48033, Note_on_c, 9, 59, 75
4, 48230, Note_on_c, 9, 59, 0
4, 48536, Note_on_c, 9, 46, 59
4, 48724, Note_on_c, 9, 46, 0
4, 48841, Note_on_c, 9, 59, 59
4, 48882, Note_on_c, 9, 59, 0
4, 48986, Note_on_c, 9, 59, 71
4, 49188, Note_on_c, 9, 59, 0
4, 49303, Note_on_c, 9, 46, 69
4, 49376, Note_on_c, 9, 46, 0
4, 49788, Note_on_c, 9, 59, 57
4, 49829, Note_on_c, 9, 59, 0
4, 49945, Note_on_c, 9, 59, 47
4, 50003, Note_on_c, 9, 35, 31
4, 50098, Note_on_c, 9, 59, 0
4, 50226, Note_on_c, 9, 35, 0
4, 50270, Note_on_c, 9, 59, 64
4, 50308, Note_on_c, 9, 59, 0
4, 50327, Note_on_c, 9, 35, 45
4, 50382, Note_on_c, 9, 35, 0
4, 50437, Note_on_c, 9, 59, 91
4, 50740, Note_on_c, 9, 59, 0
4, 50916, Note_on_c, 9, 59, 36
4, 51023, Note_on_c, 9, 59, 0
4, 51251, Note_on_c, 9, 59, 60
4, 51289, Note_on_c, 9, 59, 0
4, 51417, Note_on_c, 9, 59, 88
4, 51720, Note_on_c, 9, 59, 0
4, 51912, Note_on_c, 9, 59, 30
4, 51955, Note_on_c, 9, 59, 0
4, 52179, Note_on_c, 9, 59, 88
4, 52334, Note_on_c, 9, 59, 0
4, 52631, Note_on_c, 9, 59, 36
4, 52682, Note_on_c, 9, 59, 0
4, 52811, Note_on_c, 9, 59, 78
4, 53046, Note_on_c, 9, 59, 0
4, 53166, Note_on_c, 9, 46, 29
4, 53263, Note_on_c, 9, 46, 0
4, 53371, Note_on_c, 9, 31, 32
4, 53417, Note_on_c, 9, 31, 0
4, 53493, Note_on_c, 9, 31, 63
4, 53530, Note_on_c, 9, 31, 0
4, 53632, Note_on_c, 9, 59, 87
4, 53737, Note_on_c, 9, 59, 0
4, 53750, Note_on_c, 9, 35, 50
4, 53847, Note_on_c, 9, 35, 0
4, 53862, Note_on_c, 9, 59, 41
4, 53957, Note_on_c, 9, 59, 0
4, 54287, Note_on_c, 9, 59, 74
4, 54501, Note_on_c, 9, 59, 0
4, 54902, Note_on_c, 9, 31, 44
4, 54950, Note_on_c, 9, 31, 0
4, 55053, Note_on_c, 9, 35, 53
4, 55081, Note_on_c, 9, 59, 79
4, 55097, Note_on_c, 9, 46, 38
4, 55102, Note_on_c, 9, 35, 0
4, 55154, Note_on_c, 9, 46, 0
4, 55171, Note_on_c, 9, 59, 0
4, 55235, Note_on_c, 9, 31, 58
4, 55303, Note_on_c, 9, 31, 0
4, 55508, Note_on_c, 9, 51, 49
4, 55546, Note_on_c, 9, 51, 0
4, 55713, Note_on_c, 9, 59, 55
4, 55841, Note_on_c, 9, 59, 0
4, 56162, Note_on_c, 9, 59, 75
4, 56338, Note_on_c, 9, 59, 0
4, 56641, Note_on_c, 9, 59, 74
4, 56888, Note_on_c, 9, 59, 0
4, 56956, Note_on_c, 9, 52, 51
4, 56993, Note_on_c, 9, 52, 0
4, 57094, Note_on_c, 9, 42, 70
4, 57268, Note_on_c, 9, 42, 0
4, 57320, Note_on_c, 9, 38, 43
4, 57365, Note_on_c, 9, 38, 0
4, 57447, Note_on_c, 9, 31, 53
4, 57448, Note_on_c, 9, 59, 67
4, 57490, Note_on_c, 9, 31, 0
4, 57516, Note_on_c, 9, 59, 0
4, 57567, Note_on_c, 9, 35, 58
4, 57622, Note_on_c, 9, 59, 65
4, 57680, Note_on_c, 9, 35, 0
4, 57799, Note_on_c, 9, 59, 0
4, 58101, Note_on_c, 9, 59, 82
4, 58290, Note_on_c, 9, 59, 0
4, 58323, Note_on_c, 9, 38, 42
4, 58365, Note_on_c, 9, 38, 0
4, 58460, Note_on_c, 9, 31, 52
4, 58513, Note_on_c, 9, 31, 0
4, 58597, Note_on_c, 9, 59, 81
4, 58640, Note_on_c, 9, 38, 61
4, 58703, Note_on_c, 9, 38, 0
4, 58768, Note_on_c, 9, 59, 0
4, 58946, Note_on_c, 9, 59, 53
4, 58989, Note_on_c, 9, 59, 0
4, 59057, Note_on_c, 9, 42, 67
4, 59101, Note_on_c, 9, 59, 49
4, 59141, Note_on_c, 9, 59, 0
4, 59249, Note_on_c, 9, 42, 0
4, 59412, Note_on_c, 9, 59, 87
4, 59491, Note_on_c, 9, 59, 0
4, 59877, Note_on_c, 9, 59, 82
4, 59970, Note_on_c, 9, 59, 0
4, 60351, Note_on_c, 9, 59, 76
4, 60444, Note_on_c, 9, 59, 0
4, 60839, Note_on_c, 9, 59, 69
4, 60896, Note_on_c, 9, 38, 36
4, 60939, Note_on_c, 9, 59, 0
4, 60961, Note_on_c, 9, 38, 0
4, 60999, Note_on_c, 9, 59, 66
4, 61006, Note_on_c, 9, 46, 34
4, 61094, Note_on_c, 9, 46, 0
4, 61124, Note_on_c, 9, 59, 0
4, 61303, Note_on_c, 9, 59, 66
4, 61341, Note_on_c, 9, 59, 0
4, 61473, Note_on_c, 9, 59, 73
4, 61610, Note_on_c, 9, 59, 0
4, 61758, Note_on_c, 9, 38, 36
4, 61813, Note_on_c, 9, 38, 0
4, 61919, Note_on_c, 9, 42, 69
4, 61937, Note_on_c, 9, 59, 87
4, 62083, Note_on_c, 9, 42, 0
4, 62108, Note_on_c, 9, 59, 0
4, 62299, Note_on_c, 9, 59, 42
4, 62374, Note_on_c, 9, 59, 0
4, 62723, Note_on_c, 9, 38, 24
4, 62734, Note_on_c, 9, 59, 80
4, 62763, Note_on_c, 9, 38, 0
4, 62819, Note_on_c, 9, 59, 0
4, 63203, Note_on_c, 9, 59, 87
4, 63279, Note_on_c, 9, 59, 0
4, 63652, Note_on_c, 9, 38, 29
4, 63710, Note_on_c, 9, 59, 66
4, 63712, Note_on_c, 9, 38, 0
4, 63760, Note_on_c, 9, 59, 0
4, 63907, Note_on_c, 9, 59, 54
4, 63908, Note_on_c, 9, 46, 37
4, 63928, Note_on_c, 9, 46, 0
4, 63944, Note_on_c, 9, 59, 0
4, 64101, Note_on_c, 9, 38, 31
4, 64149, Note_on_c, 9, 38, 0
4, 64340, Note_on_c, 9, 59, 83
4, 64444, Note_on_c, 9, 59, 0
4, 64880, Note_on_c, 9, 57, 24
4, 64918, Note_on_c, 9, 57, 0
4, 65177, Note_on_c, 9, 59, 101
4, 65183, Note_on_c, 9, 57, 87
4, 65250, Note_on_c, 9, 57, 0
4, 65268, Note_on_c, 9, 59, 0
4, 65634, Note_on_c, 9, 34, 49
4, 65720, Note_on_c, 9, 34, 0
4, 65766, Note_on_c, 9, 42, 55
4, 65829, Note_on_c, 9, 35, 35
4, 65901, Note_on_c, 9, 42, 0
4, 66011, Note_on_c, 9, 35, 0
4, 66154, Note_on_c, 9, 35, 50
4, 66214, Note_on_c, 9, 35, 0
4, 67093, Note_on_c, 9, 40, 65
4, 67173, Note_on_c, 9, 40, 0
4, 67321, Note_on_c, 9, 38, 26
4, 67430, Note_on_c, 9, 38, 0
4, 67576, Note_on_c, 9, 38, 41
4, 67625, Note_on_c, 9, 38, 0
4, 68025, Note_on_c, 9, 53, 68
4, 68063, Note_on_c, 9, 53, 0
4, 68508, Note_on_c, 9, 31, 73
4, 68601, Note_on_c, 9, 31, 0
4, 68687, Note_on_c, 9, 34, 72
4, 68760, Note_on_c, 9, 34, 0
4, 68970, Note_on_c, 9, 34, 71
4, 68999, Note_on_c, 9, 51, 68
4, 69062, Note_on_c, 9, 51, 0
4, 69079, Note_on_c, 9, 34, 0
4, 69153, Note_on_c, 9, 35, 90
4, 69172, Note_on_c, 9, 51, 69
4, 69188, Note_on_c, 9, 59, 71
4, 69197, Note_on_c, 9, 57, 79
4, 69234, Note_on_c, 9, 57, 0
4, 69239, Note_on_c, 9, 51, 0
4, 69250, Note_on_c, 9, 59, 0
4, 69438, Note_on_c, 9, 35, 0
4, 69620, Note_on_c, 9, 51, 77
4, 69632, Note_on_c, 9, 46, 81
4, 69738, Note_on_c, 9, 51, 0
4, 69817, Note_on_c, 9, 46, 0
4, 70132, Note_on_c, 9, 51, 71
4, 70247, Note_on_c, 9, 51, 0
4, 70393, Note_on_c, 9, 31, 66
4, 70527, Note_on_c, 9, 31, 0
4, 70552, Note_on_c, 9, 34, 54
4, 70575, Note_on_c, 9, 51, 71
4, 70589, Note_on_c, 9, 57, 94
4, 70606, Note_on_c, 9, 35, 81
4, 70658, Note_on_c, 9, 34, 0
4, 70677, Note_on_c, 9, 51, 0
4, 70941, Note_on_c, 9, 51, 69
4, 71015, Note_on_c, 9, 51, 0
4, 71075, Note_on_c, 9, 51, 71
4, 71178, Note_on_c, 9, 51, 0
4, 71521, Note_on_c, 9, 51, 77
4, 71532, Note_on_c, 9, 42, 63
4, 71644, Note_on_c, 9, 51, 0
4, 71647, Note_on_c, 9, 42, 0
4, 71918, Note_on_c, 9, 57, 0
4, 72019, Note_on_c, 9, 51, 75
4, 72087, Note_on_c, 9, 51, 0
4, 72143, Note_on_c, 9, 51, 73
4, 72223, Note_on_c, 9, 51, 0
4, 72476, Note_on_c, 9, 46, 50
4, 72536, Note_on_c, 9, 51, 80
4, 72574, Note_on_c, 9, 46, 0
4, 72719, Note_on_c, 9, 51, 0
4, 72992, Note_on_c, 9, 51, 73
4, 73028, Note_on_c, 9, 35, 0
4, 73095, Note_on_c, 9, 51, 0
4, 73467, Note_on_c, 9, 51, 79
4, 73582, Note_on_c, 9, 51, 0
4, 73828, Note_on_c, 9, 51, 49
4, 73881, Note_on_c, 9, 51, 0
4, 73956, Note_on_c, 9, 51, 75
4, 74173, Note_on_c, 9, 51, 0
4, 74257, Note_on_c, 9, 35, 29
4, 74301, Note_on_c, 9, 35, 0
4, 74397, Note_on_c, 9, 37, 78
4, 74431, Note_on_c, 9, 51, 82
4, 74457, Note_on_c, 9, 46, 73
4, 74526, Note_on_c, 9, 46, 0
4, 74623, Note_on_c, 9, 51, 0
4, 74678, Note_on_c, 9, 37, 0
4, 74815, Note_on_c, 9, 51, 46
4, 74854, Note_on_c, 9, 51, 0
4, 74926, Note_on_c, 9, 51, 72
4, 75232, Note_on_c, 9, 51, 0
4, 75391, Note_on_c, 9, 51, 84
4, 75662, Note_on_c, 9, 51, 0
4, 75854, Note_on_c, 9, 51, 83
4, 76093, Note_on_c, 9, 51, 0
4, 76176, Note_on_c, 9, 35, 35
4, 76227, Note_on_c, 9, 35, 0
4, 76227, Note_on_c, 9, 51, 52
4, 76290, Note_on_c, 9, 51, 0
4, 76303, Note_on_c, 9, 37, 82
4, 76346, Note_on_c, 9, 51, 79
4, 76350, Note_on_c, 9, 46, 77
4, 76479, Note_on_c, 9, 46, 0
4, 76565, Note_on_c, 9, 37, 0
4, 76636, Note_on_c, 9, 37, 67
4, 76640, Note_on_c, 9, 51, 0
4, 76736, Note_on_c, 9, 37, 0
4, 76812, Note_on_c, 9, 51, 83
4, 77136, Note_on_c, 9, 51, 0
4, 77290, Note_on_c, 9, 51, 71
4, 77303, Note_on_c, 9, 46, 83
4, 77537, Note_on_c, 9, 51, 0
4, 77562, Note_on_c, 9, 46, 0
4, 78116, Note_on_c, 9, 34, 43
4, 78173, Note_on_c, 9, 34, 0
4, 78248, Note_on_c, 9, 51, 70
4, 78483, Note_on_c, 9, 51, 0
4, 78734, Note_on_c, 9, 51, 74
4, 78972, Note_on_c, 9, 51, 0
4, 79093, Note_on_c, 9, 51, 38
4, 79157, Note_on_c, 9, 51, 0
4, 79187, Note_on_c, 9, 42, 53
4, 79224, Note_on_c, 9, 51, 77
4, 79348, Note_on_c, 9, 42, 0
4, 79528, Note_on_c, 9, 51, 0
4, 79691, Note_on_c, 9, 51, 73
4, 79937, Note_on_c, 9, 51, 0
4, 80163, Note_on_c, 9, 51, 71
4, 80198, Note_on_c, 9, 42, 43
4, 80269, Note_on_c, 9, 42, 0
4, 80462, Note_on_c, 9, 51, 0
4, 80480, Note_on_c, 9, 42, 58
4, 80570, Note_on_c, 9, 42, 0
4, 80648, Note_on_c, 9, 51, 62
4, 80909, Note_on_c, 9, 42, 50
4, 80918, Note_on_c, 9, 51, 0
4, 80992, Note_on_c, 9, 53, 80
4, 80993, Note_on_c, 9, 42, 0
4, 81019, Note_on_c, 9, 34, 32
4, 81062, Note_on_c, 9, 34, 0
4, 81117, Note_on_c, 9, 35, 74
4, 81129, Note_on_c, 9, 57, 77
4, 81141, Note_on_c, 9, 53, 0
4, 81168, Note_on_c, 9, 51, 46
4, 81189, Note_on_c, 9, 42, 53
4, 81261, Note_on_c, 9, 35, 0
4, 81335, Note_on_c, 9, 42, 0
4, 81358, Note_on_c, 9, 57, 0
4, 81493, Note_on_c, 9, 51, 0
4, 81586, Note_on_c, 9, 51, 57
4, 81634, Note_on_c, 9, 42, 60
4, 81706, Note_on_c, 9, 42, 0
4, 81893, Note_on_c, 9, 51, 0
4, 81930, Note_on_c, 9, 42, 61
4, 82022, Note_on_c, 9, 42, 0
4, 82071, Note_on_c, 9, 51, 57
4, 82296, Note_on_c, 9, 42, 59
4, 82314, Note_on_c, 9, 51, 0
4, 82383, Note_on_c, 9, 42, 0
4, 82441, Note_on_c, 9, 51, 42
4, 82482, Note_on_c, 9, 51, 0
4, 82561, Note_on_c, 9, 51, 59
4, 82597, Note_on_c, 9, 42, 55
4, 82667, Note_on_c, 9, 42, 0
4, 82804, Note_on_c, 9, 51, 0
4, 83059, Note_on_c, 9, 51, 42
4, 83104, Note_on_c, 9, 51, 0
4, 83238, Note_on_c, 9, 51, 63
4, 83293, Note_on_c, 9, 51, 0
4, 83573, Note_on_c, 9, 51, 74
4, 83672, Note_on_c, 9, 46, 54
4, 83713, Note_on_c, 9, 46, 0
4, 83745, Note_on_c, 9, 51, 0
4, 83814, Note_on_c, 9, 42, 49
4, 83908, Note_on_c, 9, 42, 0
4, 83913, Note_on_c, 9, 51, 43
4, 83957, Note_on_c, 9, 51, 0
4, 83963, Note_on_c, 9, 46, 69
4, 84019, Note_on_c, 9, 37, 73
4, 84049, Note_on_c, 9, 46, 0
4, 84200, Note_on_c, 9, 51, 71
4, 84274, Note_on_c, 9, 51, 0
4, 84304, Note_on_c, 9, 37, 0
4, 84348, Note_on_c, 9, 51, 63
4, 84434, Note_on_c, 9, 51, 0
4, 84493, Note_on_c, 9, 57, 51
4, 84497, Note_on_c, 9, 35, 53
4, 84517, Note_on_c, 9, 51, 73
4, 84573, Note_on_c, 9, 57, 0
4, 84635, Note_on_c, 9, 35, 0
4, 84688, Note_on_c, 9, 51, 0
4, 84938, Note_on_c, 9, 51, 52
4, 85114, Note_on_c, 9, 51, 0
4, 85311, Note_on_c, 9, 51, 57
4, 85349, Note_on_c, 9, 51, 0
4, 85445, Note_on_c, 9, 51, 59
4, 85727, Note_on_c, 9, 51, 0
4, 85872, Note_on_c, 9, 51, 74
4, 85904, Note_on_c, 9, 35, 64
4, 86118, Note_on_c, 9, 51, 0
4, 86149, Note_on_c, 9, 35, 0
4, 86214, Note_on_c, 9, 35, 56
4, 86344, Note_on_c, 9, 35, 0
4, 86365, Note_on_c, 9, 51, 73
4, 86623, Note_on_c, 9, 51, 0
4, 86879, Note_on_c, 9, 51, 67
4, 87058, Note_on_c, 9, 51, 0
4, 87160, Note_on_c, 9, 46, 47
4, 87201, Note_on_c, 9, 46, 0
4, 87248, Note_on_c, 9, 51, 45
4, 87266, Note_on_c, 9, 42, 47
4, 87289, Note_on_c, 9, 51, 0
4, 87331, Note_on_c, 9, 42, 0
4, 87373, Note_on_c, 9, 51, 58
4, 87658, Note_on_c, 9, 51, 0
4, 87842, Note_on_c, 9, 51, 75
4, 88055, Note_on_c, 9, 51, 0
4, 88166, Note_on_c, 9, 46, 35
4, 88204, Note_on_c, 9, 46, 0
4, 88232, Note_on_c, 9, 51, 42
4, 88268, Note_on_c, 9, 42, 37
4, 88274, Note_on_c, 9, 51, 0
4, 88315, Note_on_c, 9, 42, 0
4, 88353, Note_on_c, 9, 51, 60
4, 88608, Note_on_c, 9, 51, 0
4, 88834, Note_on_c, 9, 51, 75
4, 88995, Note_on_c, 9, 51, 0
4, 89323, Note_on_c, 9, 51, 69
4, 89327, Note_on_c, 9, 38, 26
4, 89366, Note_on_c, 9, 38, 0
4, 89491, Note_on_c, 9, 51, 0
4, 89797, Note_on_c, 9, 51, 72
4, 89803, Note_on_c, 9, 38, 42
4, 89847, Note_on_c, 9, 38, 0
4, 89972, Note_on_c, 9, 51, 0
4, 90126, Note_on_c, 9, 38, 47
4, 90155, Note_on_c, 9, 51, 56
4, 90168, Note_on_c, 9, 38, 0
4, 90212, Note_on_c, 9, 51, 0
4, 90285, Note_on_c, 9, 51, 67
4, 90464, Note_on_c, 9, 38, 43
4, 90487, Note_on_c, 9, 51, 0
4, 90507, Note_on_c, 9, 38, 0
4, 90721, Note_on_c, 9, 51, 73
4, 90812, Note_on_c, 9, 38, 57
4, 90854, Note_on_c, 9, 38, 0
4, 90929, Note_on_c, 9, 51, 0
4, 91093, Note_on_c, 9, 51, 53
4, 91132, Note_on_c, 9, 51, 0
4, 91149, Note_on_c, 9, 38, 44
4, 91192, Note_on_c, 9, 38, 0
4, 91216, Note_on_c, 9, 51, 56
4, 91346, Note_on_c, 9, 51, 0
4, 91435, Note_on_c, 9, 38, 44
4, 91482, Note_on_c, 9, 38, 0
4, 91647, Note_on_c, 9, 35, 56
4, 91648, Note_on_c, 9, 51, 69
4, 91658, Note_on_c, 9, 42, 56
4, 91777, Note_on_c, 9, 42, 0
4, 91811, Note_on_c, 9, 35, 0
4, 91856, Note_on_c, 9, 51, 0
4, 91969, Note_on_c, 9, 34, 50
4, 92002, Note_on_c, 9, 33, 47
4, 92028, Note_on_c, 9, 51, 37
4, 92053, Note_on_c, 9, 33, 0
4, 92053, Note_on_c, 9, 34, 0
4, 92066, Note_on_c, 9, 51, 0
4, 92069, Note_on_c, 9, 42, 53
4, 92144, Note_on_c, 9, 51, 49
4, 92161, Note_on_c, 9, 35, 48
4, 92170, Note_on_c, 9, 42, 0
4, 92297, Note_on_c, 9, 35, 0
4, 92352, Note_on_c, 9, 51, 0
4, 92607, Note_on_c, 9, 51, 74
4, 92895, Note_on_c, 9, 51, 0
4, 93097, Note_on_c, 9, 51, 74
4, 93313, Note_on_c, 9, 51, 0
4, 93472, Note_on_c, 9, 51, 52
4, 93527, Note_on_c, 9, 51, 0
4, 93597, Note_on_c, 9, 51, 72
4, 93896, Note_on_c, 9, 51, 0
4, 94048, Note_on_c, 9, 51, 73
4, 94180, Note_on_c, 9, 42, 56
4, 94228, Note_on_c, 9, 42, 0
4, 94298, Note_on_c, 9, 51, 0
4, 94509, Note_on_c, 9, 51, 65
4, 94540, Note_on_c, 9, 42, 53
4, 94578, Note_on_c, 9, 42, 0
4, 94709, Note_on_c, 9, 51, 0
4, 95018, Note_on_c, 9, 51, 65
4, 95241, Note_on_c, 9, 51, 0
4, 95489, Note_on_c, 9, 31, 51
4, 95512, Note_on_c, 9, 51, 68
4, 95535, Note_on_c, 9, 31, 0
4, 95700, Note_on_c, 9, 51, 0
4, 95862, Note_on_c, 9, 51, 52
4, 95927, Note_on_c, 9, 51, 0
4, 96004, Note_on_c, 9, 51, 69
4, 96256, Note_on_c, 9, 51, 0
4, 96313, Note_on_c, 9, 42, 38
4, 96353, Note_on_c, 9, 42, 0
4, 96453, Note_on_c, 9, 51, 74
4, 96459, Note_on_c, 9, 31, 49
4, 96508, Note_on_c, 9, 31, 0
4, 96599, Note_on_c, 9, 31, 42
4, 96671, Note_on_c, 9, 31, 0
4, 96771, Note_on_c, 9, 51, 0
4, 96949, Note_on_c, 9, 51, 69
4, 97124, Note_on_c, 9, 31, 26
4, 97164, Note_on_c, 9, 31, 0
4, 97261, Note_on_c, 9, 51, 0
4, 97430, Note_on_c, 9, 42, 59
4, 97434, Note_on_c, 9, 31, 49
4, 97448, Note_on_c, 9, 51, 68
4, 97482, Note_on_c, 9, 31, 0
4, 97543, Note_on_c, 9, 42, 0
4, 97740, Note_on_c, 9, 51, 0
4, 97935, Note_on_c, 9, 51, 69
4, 98068, Note_on_c, 9, 31, 51
4, 98110, Note_on_c, 9, 31, 0
4, 98174, Note_on_c, 9, 51, 0
4, 98287, Note_on_c, 9, 51, 47
4, 98319, Note_on_c, 9, 42, 53
4, 98347, Note_on_c, 9, 51, 0
4, 98358, Note_on_c, 9, 42, 0
4, 98414, Note_on_c, 9, 51, 77
4, 98467, Note_on_c, 9, 31, 53
4, 98511, Note_on_c, 9, 31, 0
4, 98760, Note_on_c, 9, 51, 0
4, 98880, Note_on_c, 9, 51, 67
4, 99132, Note_on_c, 9, 51, 0
4, 99190, Note_on_c, 9, 42, 60
4, 99214, Note_on_c, 9, 31, 28
4, 99228, Note_on_c, 9, 42, 0
4, 99232, Note_on_c, 9, 33, 27
4, 99240, Note_on_c, 9, 51, 37
4, 99271, Note_on_c, 9, 31, 0
4, 99274, Note_on_c, 9, 33, 0
4, 99309, Note_on_c, 9, 51, 0
4, 99342, Note_on_c, 9, 34, 56
4, 99366, Note_on_c, 9, 51, 80
4, 99604, Note_on_c, 9, 34, 0
4, 99636, Note_on_c, 9, 57, 71
4, 99654, Note_on_c, 9, 35, 61
4, 99675, Note_on_c, 9, 57, 0
4, 99707, Note_on_c, 9, 35, 0
4, 99708, Note_on_c, 9, 42, 48
4, 99720, Note_on_c, 9, 51, 0
4, 99746, Note_on_c, 9, 42, 0
4, 99840, Note_on_c, 9, 51, 48
4, 99866, Note_on_c, 9, 42, 44
4, 99921, Note_on_c, 9, 42, 0
4, 100002, Note_on_c, 9, 51, 0
4, 100192, Note_on_c, 9, 51, 42
4, 100233, Note_on_c, 9, 51, 0
4, 100310, Note_on_c, 9, 51, 69
4, 100666, Note_on_c, 9, 51, 0
4, 100789, Note_on_c, 9, 51, 52
4, 100910, Note_on_c, 9, 51, 0
4, 100990, Note_on_c, 9, 51, 59
4, 101057, Note_on_c, 9, 51, 0
4, 101226, Note_on_c, 9, 31, 36
4, 101279, Note_on_c, 9, 31, 0
4, 101308, Note_on_c, 9, 51, 78
4, 101368, Note_on_c, 9, 31, 36
4, 101419, Note_on_c, 9, 31, 0
4, 101601, Note_on_c, 9, 51, 0
4, 101681, Note_on_c, 9, 51, 50
4, 101713, Note_on_c, 9, 31, 37
4, 101725, Note_on_c, 9, 51, 0
4, 101764, Note_on_c, 9, 31, 0
4, 101830, Note_on_c, 9, 51, 49
4, 101875, Note_on_c, 9, 51, 0
4, 102097, Note_on_c, 9, 46, 45
4, 102118, Note_on_c, 9, 51, 82
4, 102155, Note_on_c, 9, 46, 0
4, 102220, Note_on_c, 9, 51, 0
4, 102274, Note_on_c, 9, 42, 27
4, 102312, Note_on_c, 9, 42, 0
4, 102422, Note_on_c, 9, 51, 69
4, 102614, Note_on_c, 9, 51, 0
4, 102819, Note_on_c, 9, 51, 76
4, 102980, Note_on_c, 9, 51, 0
4, 102991, Note_on_c, 9, 35, 34
4, 103042, Note_on_c, 9, 35, 0
4, 103215, Note_on_c, 9, 31, 11
4, 103227, Note_on_c, 9, 51, 67
4, 103292, Note_on_c, 9, 31, 0
4, 103333, Note_on_c, 9, 51, 0
4, 103533, Note_on_c, 9, 51, 50
4, 103571, Note_on_c, 9, 51, 0
4, 103664, Note_on_c, 9, 51, 49
4, 103943, Note_on_c, 9, 51, 0
4, 103976, Note_on_c, 9, 31, 26
4, 104016, Note_on_c, 9, 31, 0
4, 104133, Note_on_c, 9, 31, 26
4, 104162, Note_on_c, 9, 51, 74
4, 104173, Note_on_c, 9, 31, 0
4, 104189, Note_on_c, 9, 46, 61
4, 104263, Note_on_c, 9, 31, 53
4, 104264, Note_on_c, 9, 46, 0
4, 104309, Note_on_c, 9, 31, 0
4, 104361, Note_on_c, 9, 51, 0
4, 104541, Note_on_c, 9, 51, 42
4, 104582, Note_on_c, 9, 51, 0
4, 104659, Note_on_c, 9, 51, 63
4, 104680, Note_on_c, 9, 35, 52
4, 104803, Note_on_c, 9, 35, 0
4, 104830, Note_on_c, 9, 51, 0
4, 104942, Note_on_c, 9, 35, 49
4, 105012, Note_on_c, 9, 35, 0
4, 105107, Note_on_c, 9, 51, 74
4, 105248, Note_on_c, 9, 51, 0
4, 105361, Note_on_c, 9, 31, 33
4, 105412, Note_on_c, 9, 31, 0
4, 105465, Note_on_c, 9, 31, 30
4, 105518, Note_on_c, 9, 31, 0
4, 105598, Note_on_c, 9, 51, 69
4, 105731, Note_on_c, 9, 51, 0
4, 105954, Note_on_c, 9, 31, 37
4, 106008, Note_on_c, 9, 31, 0
4, 106068, Note_on_c, 9, 51, 74
4, 106075, Note_on_c, 9, 46, 70
4, 106178, Note_on_c, 9, 51, 0
4, 106364, Note_on_c, 9, 46, 0
4, 106404, Note_on_c, 9, 51, 64
4, 106407, Note_on_c, 9, 31, 58
4, 106451, Note_on_c, 9, 31, 0
4, 106480, Note_on_c, 9, 51, 0
4, 106539, Note_on_c, 9, 51, 56
4, 106596, Note_on_c, 9, 35, 26
4, 106646, Note_on_c, 9, 35, 0
4, 106713, Note_on_c, 9, 51, 0
4, 106732, Note_on_c, 9, 31, 38
4, 106787, Note_on_c, 9, 31, 0
4, 107009, Note_on_c, 9, 51, 71
4, 107011, Note_on_c, 9, 46, 88
4, 107147, Note_on_c, 9, 31, 47
4, 107153, Note_on_c, 9, 51, 0
4, 107200, Note_on_c, 9, 31, 0
4, 107337, Note_on_c, 9, 31, 58
4, 107389, Note_on_c, 9, 31, 0
4, 107437, Note_on_c, 9, 46, 0
4, 107485, Note_on_c, 9, 35, 64
4, 107486, Note_on_c, 9, 51, 60
4, 107628, Note_on_c, 9, 35, 0
4, 107662, Note_on_c, 9, 51, 0
4, 107743, Note_on_c, 9, 35, 47
4, 107831, Note_on_c, 9, 35, 0
4, 107845, Note_on_c, 9, 53, 70
4, 107952, Note_on_c, 9, 53, 0
4, 107962, Note_on_c, 9, 46, 88
4, 108023, Note_on_c, 9, 51, 23
4, 108131, Note_on_c, 9, 51, 0
4, 108324, Note_on_c, 9, 51, 65
4, 108399, Note_on_c, 9, 51, 0
4, 108488, Note_on_c, 9, 51, 44
4, 108538, Note_on_c, 9, 46, 0
4, 108588, Note_on_c, 9, 51, 0
4, 108921, Note_on_c, 9, 51, 74
4, 108974, Note_on_c, 9, 46, 94
4, 109051, Note_on_c, 9, 51, 0
4, 109416, Note_on_c, 9, 51, 65
4, 109424, Note_on_c, 9, 46, 0
4, 109552, Note_on_c, 9, 51, 0
4, 109930, Note_on_c, 9, 51, 69
4, 110067, Note_on_c, 9, 51, 0
4, 110242, Note_on_c, 9, 31, 58
4, 110288, Note_on_c, 9, 31, 0
4, 110307, Note_on_c, 9, 51, 51
4, 110359, Note_on_c, 9, 51, 0
4, 110440, Note_on_c, 9, 51, 59
4, 110515, Note_on_c, 9, 38, 42
4, 110566, Note_on_c, 9, 38, 0
4, 110699, Note_on_c, 9, 51, 0
4, 110922, Note_on_c, 9, 51, 77
4, 111111, Note_on_c, 9, 51, 0
4, 111280, Note_on_c, 9, 51, 35
4, 111323, Note_on_c, 9, 51, 0
4, 111389, Note_on_c, 9, 51, 69
4, 111420, Note_on_c, 9, 35, 22
4, 111563, Note_on_c, 9, 35, 0
4, 111583, Note_on_c, 9, 51, 0
4, 111660, Note_on_c, 9, 35, 56
4, 111703, Note_on_c, 9, 35, 0
4, 111832, Note_on_c, 9, 46, 71
4, 111850, Note_on_c, 9, 51, 78
4, 112047, Note_on_c, 9, 51, 0
4, 112318, Note_on_c, 9, 51, 74
4, 112429, Note_on_c, 9, 46, 0
4, 112503, Note_on_c, 9, 51, 0
4, 112711, Note_on_c, 9, 51, 39
4, 112749, Note_on_c, 9, 51, 0
4, 112814, Note_on_c, 9, 51, 64
4, 113055, Note_on_c, 9, 51, 0
4, 113310, Note_on_c, 9, 51, 78
4, 113563, Note_on_c, 9, 51, 0
4, 113675, Note_on_c, 9, 51, 49
4, 113748, Note_on_c, 9, 51, 0
4, 113815, Note_on_c, 9, 51, 72
4, 114103, Note_on_c, 9, 51, 0
4, 114287, Note_on_c, 9, 51, 77
4, 114502, Note_on_c, 9, 51, 0
4, 114625, Note_on_c, 9, 30, 67
4, 114648, Note_on_c, 9, 51, 33
4, 114692, Note_on_c, 9, 51, 0
4, 114709, Note_on_c, 9, 30, 0
4, 114769, Note_on_c, 9, 51, 63
4, 114793, Note_on_c, 9, 30, 35
4, 114801, Note_on_c, 9, 40, 46
4, 114839, Note_on_c, 9, 30, 0
4, 114846, Note_on_c, 9, 40, 0
4, 115057, Note_on_c, 9, 51, 0
4, 115072, Note_on_c, 9, 31, 84
4, 115234, Note_on_c, 9, 31, 0
4, 115248, Note_on_c, 9, 51, 76
4, 115280, Note_on_c, 9, 38, 49
4, 115482, Note_on_c, 9, 51, 0
4, 115538, Note_on_c, 9, 38, 0
4, 115739, Note_on_c, 9, 51, 74
4, 115744, Note_on_c, 9, 42, 60
4, 115793, Note_on_c, 9, 42, 0
4, 115940, Note_on_c, 9, 51, 0
4, 116101, Note_on_c, 9, 51, 48
4, 116146, Note_on_c, 9, 51, 0
4, 116218, Note_on_c, 9, 51, 67
4, 116474, Note_on_c, 9, 51, 0
4, 116669, Note_on_c, 9, 51, 73
4, 116848, Note_on_c, 9, 51, 0
4, 117216, Note_on_c, 9, 51, 48
4, 117254, Note_on_c, 9, 51, 0
4, 117509, Note_on_c, 9, 51, 87
4, 117633, Note_on_c, 9, 42, 81
4, 117730, Note_on_c, 9, 42, 0
4, 117772, Note_on_c, 9, 51, 0
4, 117948, Note_on_c, 9, 51, 35
4, 117986, Note_on_c, 9, 51, 0
4, 118095, Note_on_c, 9, 51, 53
4, 118413, Note_on_c, 9, 51, 0
4, 118591, Note_on_c, 9, 51, 63
4, 118778, Note_on_c, 9, 51, 0
4, 118857, Note_on_c, 9, 34, 75
4, 118924, Note_on_c, 9, 51, 36
4, 118968, Note_on_c, 9, 51, 0
4, 119010, Note_on_c, 9, 34, 0
4, 119039, Note_on_c, 9, 51, 64
4, 119083, Note_on_c, 9, 35, 28
4, 119164, Note_on_c, 9, 35, 0
4, 119323, Note_on_c, 9, 51, 0
4, 119506, Note_on_c, 9, 51, 82
4, 119748, Note_on_c, 9, 51, 0
4, 119912, Note_on_c, 9, 51, 38
4, 119952, Note_on_c, 9, 51, 0
4, 120020, Note_on_c, 9, 51, 62
4, 120268, Note_on_c, 9, 51, 0
4, 120455, Note_on_c, 9, 42, 65
4, 120482, Note_on_c, 9, 51, 81
4, 120545, Note_on_c, 9, 42, 0
4, 120678, Note_on_c, 9, 51, 0
4, 120808, Note_on_c, 9, 51, 36
4, 120857, Note_on_c, 9, 51, 0
4, 120923, Note_on_c, 9, 42, 74
4, 120941, Note_on_c, 9, 51, 59
4, 121023, Note_on_c, 9, 42, 0
4, 121231, Note_on_c, 9, 51, 0
4, 121416, Note_on_c, 9, 51, 79
4, 121727, Note_on_c, 9, 51, 0
4, 121950, Note_on_c, 9, 51, 74
4, 121955, Note_on_c, 9, 42, 75
4, 122078, Note_on_c, 9, 42, 0
4, 122099, Note_on_c, 9, 38, 44
4, 122140, Note_on_c, 9, 38, 0
4, 122247, Note_on_c, 9, 51, 0
4, 122419, Note_on_c, 9, 42, 77
4, 122444, Note_on_c, 9, 51, 75
4, 122479, Note_on_c, 9, 38, 74
4, 122549, Note_on_c, 9, 42, 0
4, 122584, Note_on_c, 9, 38, 0
4, 122642, Note_on_c, 9, 51, 0
4, 122761, Note_on_c, 9, 38, 57
4, 122771, Note_on_c, 9, 51, 45
4, 122811, Note_on_c, 9, 38, 0
4, 122821, Note_on_c, 9, 51, 0
4, 122907, Note_on_c, 9, 51, 57
4, 122925, Note_on_c, 9, 34, 39
4, 122982, Note_on_c, 9, 34, 0
4, 123173, Note_on_c, 9, 51, 0
4, 123369, Note_on_c, 9, 51, 78
4, 123380, Note_on_c, 9, 42, 74
4, 123503, Note_on_c, 9, 42, 0
4, 123585, Note_on_c, 9, 51, 0
4, 123853, Note_on_c, 9, 42, 65
4, 123862, Note_on_c, 9, 46, 42
4, 123866, Note_on_c, 9, 51, 71
4, 123935, Note_on_c, 9, 46, 0
4, 123937, Note_on_c, 9, 42, 0
4, 124079, Note_on_c, 9, 51, 0
4, 124174, Note_on_c, 9, 35, 62
4, 124213, Note_on_c, 9, 51, 49
4, 124218, Note_on_c, 9, 35, 0
4, 124277, Note_on_c, 9, 51, 0
4, 124342, Note_on_c, 9, 38, 48
4, 124349, Note_on_c, 9, 51, 74
4, 124526, Note_on_c, 9, 38, 0
4, 124538, Note_on_c, 9, 51, 0
4, 124683, Note_on_c, 9, 51, 84
4, 124991, Note_on_c, 9, 51, 0
4, 125146, Note_on_c, 9, 51, 52
4, 125208, Note_on_c, 9, 51, 0
4, 125290, Note_on_c, 9, 46, 40
4, 125327, Note_on_c, 9, 51, 67
4, 125356, Note_on_c, 9, 46, 0
4, 125519, Note_on_c, 9, 51, 0
4, 125608, Note_on_c, 9, 38, 48
4, 125641, Note_on_c, 9, 51, 86
4, 125662, Note_on_c, 9, 38, 0
4, 125783, Note_on_c, 9, 35, 29
4, 125830, Note_on_c, 9, 35, 0
4, 125965, Note_on_c, 9, 51, 0
4, 126102, Note_on_c, 9, 51, 37
4, 126176, Note_on_c, 9, 51, 0
4, 126261, Note_on_c, 9, 51, 68
4, 126567, Note_on_c, 9, 51, 0
4, 126567, Note_on_c, 9, 31, 69
4, 126632, Note_on_c, 9, 31, 0
4, 126722, Note_on_c, 9, 51, 70
4, 126935, Note_on_c, 9, 35, 19
4, 126944, Note_on_c, 9, 51, 0
4, 126979, Note_on_c, 9, 35, 0
4, 127202, Note_on_c, 9, 51, 87
4, 127206, Note_on_c, 9, 42, 55
4, 127221, Note_on_c, 9, 46, 35
4, 127249, Note_on_c, 9, 42, 0
4, 127272, Note_on_c, 9, 46, 0
4, 127438, Note_on_c, 9, 51, 0
4, 127529, Note_on_c, 9, 31, 80
4, 127611, Note_on_c, 9, 31, 0
4, 127717, Note_on_c, 9, 51, 26
4, 127722, Note_on_c, 9, 35, 41
4, 127767, Note_on_c, 9, 51, 0
4, 127852, Note_on_c, 9, 35, 0
4, 128047, Note_on_c, 9, 51, 25
4, 128090, Note_on_c, 9, 51, 0
4, 128159, Note_on_c, 9, 42, 74
4, 128168, Note_on_c, 9, 51, 72
4, 128286, Note_on_c, 9, 42, 0
4, 128466, Note_on_c, 9, 31, 63
4, 128508, Note_on_c, 9, 51, 0
4, 128510, Note_on_c, 9, 31, 0
4, 128597, Note_on_c, 9, 34, 49
4, 128645, Note_on_c, 9, 51, 42
4, 128706, Note_on_c, 9, 34, 0
4, 128837, Note_on_c, 9, 51, 0
4, 129107, Note_on_c, 9, 51, 75
4, 129119, Note_on_c, 9, 42, 81
4, 129270, Note_on_c, 9, 42, 0
4, 129312, Note_on_c, 9, 51, 0
4, 129475, Note_on_c, 9, 51, 48
4, 129527, Note_on_c, 9, 51, 0
4, 129620, Note_on_c, 9, 51, 54
4, 129940, Note_on_c, 9, 51, 0
4, 129963, Note_on_c, 9, 42, 53
4, 130014, Note_on_c, 9, 42, 0
4, 130087, Note_on_c, 9, 51, 84
4, 130096, Note_on_c, 9, 42, 71
4, 130300, Note_on_c, 9, 51, 0
4, 130329, Note_on_c, 9, 42, 0
4, 130465, Note_on_c, 9, 51, 33
4, 130505, Note_on_c, 9, 51, 0
4, 130606, Note_on_c, 9, 51, 38
4, 130625, Note_on_c, 9, 35, 49
4, 130753, Note_on_c, 9, 35, 0
4, 130873, Note_on_c, 9, 51, 0
4, 131038, Note_on_c, 9, 42, 82
4, 131059, Note_on_c, 9, 51, 78
4, 131172, Note_on_c, 9, 42, 0
4, 131285, Note_on_c, 9, 51, 0
4, 131367, Note_on_c, 9, 31, 84
4, 131407, Note_on_c, 9, 51, 37
4, 131447, Note_on_c, 9, 31, 0
4, 131451, Note_on_c, 9, 51, 0
4, 131515, Note_on_c, 9, 51, 67
4, 131558, Note_on_c, 9, 35, 34
4, 131721, Note_on_c, 9, 35, 0
4, 131855, Note_on_c, 9, 51, 0
4, 131996, Note_on_c, 9, 46, 59
4, 131999, Note_on_c, 9, 51, 80
4, 132115, Note_on_c, 9, 46, 0
4, 132221, Note_on_c, 9, 51, 0
4, 132313, Note_on_c, 9, 31, 64
4, 132355, Note_on_c, 9, 31, 0
4, 132366, Note_on_c, 9, 51, 50
4, 132421, Note_on_c, 9, 51, 0
4, 132457, Note_on_c, 9, 35, 44
4, 132490, Note_on_c, 9, 51, 56
4, 132504, Note_on_c, 9, 35, 0
4, 132633, Note_on_c, 9, 51, 0
4, 132943, Note_on_c, 9, 51, 71
4, 132960, Note_on_c, 9, 42, 71
4, 133094, Note_on_c, 9, 42, 0
4, 133157, Note_on_c, 9, 51, 0
4, 133287, Note_on_c, 9, 31, 83
4, 133340, Note_on_c, 9, 51, 50
4, 133391, Note_on_c, 9, 31, 0
4, 133450, Note_on_c, 9, 51, 0
4, 133520, Note_on_c, 9, 35, 29
4, 133571, Note_on_c, 9, 35, 0
4, 133931, Note_on_c, 9, 51, 71
4, 133954, Note_on_c, 9, 42, 70
4, 134042, Note_on_c, 9, 42, 0
4, 134180, Note_on_c, 9, 51, 0
4, 134281, Note_on_c, 9, 35, 55
4, 134329, Note_on_c, 9, 35, 0
4, 134436, Note_on_c, 9, 51, 53
4, 134701, Note_on_c, 9, 51, 0
4, 134868, Note_on_c, 9, 51, 69
4, 135166, Note_on_c, 9, 51, 0
4, 135180, Note_on_c, 9, 38, 80
4, 135288, Note_on_c, 9, 38, 0
4, 135338, Note_on_c, 9, 51, 64
4, 135400, Note_on_c, 9, 35, 36
4, 135454, Note_on_c, 9, 35, 0
4, 135661, Note_on_c, 9, 51, 0
4, 135817, Note_on_c, 9, 46, 55
4, 135841, Note_on_c, 9, 51, 75
4, 135904, Note_on_c, 9, 46, 0
4, 136058, Note_on_c, 9, 51, 0
4, 136188, Note_on_c, 9, 51, 57
4, 136269, Note_on_c, 9, 51, 0
4, 136335, Note_on_c, 9, 51, 69
4, 136656, Note_on_c, 9, 51, 0
4, 136661, Note_on_c, 9, 38, 74
4, 136721, Note_on_c, 9, 38, 0
4, 136776, Note_on_c, 9, 46, 69
4, 136781, Note_on_c, 9, 51, 67
4, 136916, Note_on_c, 9, 46, 0
4, 137089, Note_on_c, 9, 51, 0
4, 137097, Note_on_c, 9, 38, 76
4, 137128, Note_on_c, 9, 39, 30
4, 137181, Note_on_c, 9, 39, 0
4, 137215, Note_on_c, 9, 38, 0
4, 137267, Note_on_c, 9, 51, 67
4, 137576, Note_on_c, 9, 38, 84
4, 137584, Note_on_c, 9, 51, 0
4, 137589, Note_on_c, 9, 39, 47
4, 137626, Note_on_c, 9, 39, 0
4, 137680, Note_on_c, 9, 38, 0
4, 137735, Note_on_c, 9, 51, 67
4, 137759, Note_on_c, 9, 46, 74
4, 137883, Note_on_c, 9, 46, 0
4, 138011, Note_on_c, 9, 31, 65
4, 138012, Note_on_c, 9, 51, 0
4, 138084, Note_on_c, 9, 59, 71
4, 138108, Note_on_c, 9, 31, 0
4, 138151, Note_on_c, 9, 34, 80
4, 138153, Note_on_c, 9, 59, 0
4, 138190, Note_on_c, 9, 57, 70
4, 138234, Note_on_c, 9, 59, 80
4, 138264, Note_on_c, 9, 36, 42
4, 138282, Note_on_c, 9, 34, 0
4, 138317, Note_on_c, 9, 57, 0
4, 138562, Note_on_c, 9, 59, 0
4, 138694, Note_on_c, 9, 59, 91
4, 138707, Note_on_c, 9, 42, 56
4, 138809, Note_on_c, 9, 42, 0
4, 139047, Note_on_c, 9, 59, 0
4, 139229, Note_on_c, 9, 59, 76
4, 139515, Note_on_c, 9, 36, 0
4, 139518, Note_on_c, 9, 59, 0
4, 139556, Note_on_c, 9, 31, 31
4, 139612, Note_on_c, 9, 31, 0
4, 139666, Note_on_c, 9, 42, 64
4, 139678, Note_on_c, 9, 35, 73
4, 139687, Note_on_c, 9, 57, 64
4, 139702, Note_on_c, 9, 59, 83
4, 139716, Note_on_c, 9, 59, 39
4, 139761, Note_on_c, 9, 59, 0
4, 139814, Note_on_c, 9, 42, 0
4, 139977, Note_on_c, 9, 59, 0
4, 140077, Note_on_c, 9, 59, 53
4, 140130, Note_on_c, 9, 59, 0
4, 140206, Note_on_c, 9, 59, 80
4, 140523, Note_on_c, 9, 59, 0
4, 140659, Note_on_c, 9, 59, 84
4, 140956, Note_on_c, 9, 57, 0
4, 140974, Note_on_c, 9, 35, 0
4, 141015, Note_on_c, 9, 34, 47
4, 141018, Note_on_c, 9, 59, 0
4, 141055, Note_on_c, 9, 34, 0
4, 141125, Note_on_c, 9, 35, 82
4, 141141, Note_on_c, 9, 57, 74
4, 141160, Note_on_c, 9, 59, 52
4, 141399, Note_on_c, 9, 59, 0
4, 141489, Note_on_c, 9, 57, 0
4, 141576, Note_on_c, 9, 35, 0
4, 141601, Note_on_c, 9, 59, 77
4, 141646, Note_on_c, 9, 42, 93
4, 141794, Note_on_c, 9, 42, 0
4, 141965, Note_on_c, 9, 59, 0
4, 142082, Note_on_c, 9, 59, 64
4, 142355, Note_on_c, 9, 59, 0
4, 142437, Note_on_c, 9, 59, 64
4, 142480, Note_on_c, 9, 59, 0
4, 142557, Note_on_c, 9, 59, 81
4, 142931, Note_on_c, 9, 59, 0
4, 143024, Note_on_c, 9, 59, 74
4, 143286, Note_on_c, 9, 59, 0
4, 143376, Note_on_c, 9, 59, 61
4, 143419, Note_on_c, 9, 59, 0
4, 143504, Note_on_c, 9, 59, 74
4, 143523, Note_on_c, 9, 42, 83
4, 143627, Note_on_c, 9, 42, 0
4, 143875, Note_on_c, 9, 59, 0
4, 143991, Note_on_c, 9, 59, 72
4, 144304, Note_on_c, 9, 42, 74
4, 144323, Note_on_c, 9, 59, 0
4, 144362, Note_on_c, 9, 42, 0
4, 144480, Note_on_c, 9, 59, 80
4, 144816, Note_on_c, 9, 59, 0
4, 144977, Note_on_c, 9, 59, 78
4, 145204, Note_on_c, 9, 59, 0
4, 145344, Note_on_c, 9, 59, 54
4, 145385, Note_on_c, 9, 59, 0
4, 145452, Note_on_c, 9, 59, 77
4, 145453, Note_on_c, 9, 37, 85
4, 145465, Note_on_c, 9, 42, 76
4, 145574, Note_on_c, 9, 42, 0
4, 145663, Note_on_c, 9, 37, 0
4, 145824, Note_on_c, 9, 59, 0
4, 145920, Note_on_c, 9, 59, 75
4, 146208, Note_on_c, 9, 59, 0
4, 146282, Note_on_c, 9, 59, 52
4, 146327, Note_on_c, 9, 59, 0
4, 146403, Note_on_c, 9, 59, 74
4, 146417, Note_on_c, 9, 42, 74
4, 146512, Note_on_c, 9, 42, 0
4, 146774, Note_on_c, 9, 59, 0
4, 146870, Note_on_c, 9, 59, 70
4, 147186, Note_on_c, 9, 59, 0
4, 147359, Note_on_c, 9, 59, 76
4, 147382, Note_on_c, 9, 42, 79
4, 147383, Note_on_c, 9, 37, 85
4, 147477, Note_on_c, 9, 42, 0
4, 147621, Note_on_c, 9, 59, 0
4, 147644, Note_on_c, 9, 37, 0
4, 147720, Note_on_c, 9, 59, 44
4, 147779, Note_on_c, 9, 59, 0
4, 147858, Note_on_c, 9, 59, 81
4, 148165, Note_on_c, 9, 59, 0
4, 148281, Note_on_c, 9, 46, 61
4, 148295, Note_on_c, 9, 59, 78
4, 148366, Note_on_c, 9, 46, 0
4, 148568, Note_on_c, 9, 59, 0
4, 148670, Note_on_c, 9, 59, 50
4, 148737, Note_on_c, 9, 59, 0
4, 148817, Note_on_c, 9, 59, 83
4, 149186, Note_on_c, 9, 59, 0
4, 149268, Note_on_c, 9, 37, 82
4, 149291, Note_on_c, 9, 59, 75
4, 149455, Note_on_c, 9, 37, 0
4, 149576, Note_on_c, 9, 59, 0
4, 149663, Note_on_c, 9, 59, 54
4, 149706, Note_on_c, 9, 59, 0
4, 149780, Note_on_c, 9, 59, 74
4, 150053, Note_on_c, 9, 59, 0
4, 150123, Note_on_c, 9, 59, 82
4, 150271, Note_on_c, 9, 42, 62
4, 150320, Note_on_c, 9, 42, 0
4, 150534, Note_on_c, 9, 59, 0
4, 150616, Note_on_c, 9, 59, 59
4, 150656, Note_on_c, 9, 59, 0
4, 150752, Note_on_c, 9, 59, 74
4, 151095, Note_on_c, 9, 59, 0
4, 151201, Note_on_c, 9, 37, 74
4, 151227, Note_on_c, 9, 59, 68
4, 151357, Note_on_c, 9, 37, 0
4, 151435, Note_on_c, 9, 59, 0
4, 151543, Note_on_c, 9, 59, 49
4, 151595, Note_on_c, 9, 59, 0
4, 151680, Note_on_c, 9, 59, 80
4, 151976, Note_on_c, 9, 59, 0
4, 152133, Note_on_c, 9, 42, 86
4, 152136, Note_on_c, 9, 59, 84
4, 152229, Note_on_c, 9, 42, 0
4, 152363, Note_on_c, 9, 59, 0
4, 152460, Note_on_c, 9, 59, 49
4, 152511, Note_on_c, 9, 59, 0
4, 152593, Note_on_c, 9, 59, 80
4, 152974, Note_on_c, 9, 59, 0
4, 153070, Note_on_c, 9, 37, 82
4, 153093, Note_on_c, 9, 59, 80
4, 153134, Note_on_c, 9, 42, 74
4, 153172, Note_on_c, 9, 42, 0
4, 153208, Note_on_c, 9, 37, 0
4, 153265, Note_on_c, 9, 42, 53
4, 153303, Note_on_c, 9, 42, 0
4, 153340, Note_on_c, 9, 59, 0
4, 153461, Note_on_c, 9, 59, 44
4, 153506, Note_on_c, 9, 59, 0
4, 153762, Note_on_c, 9, 59, 77
4, 153818, Note_on_c, 9, 59, 0
4, 154061, Note_on_c, 9, 42, 77
4, 154093, Note_on_c, 9, 59, 92
4, 154139, Note_on_c, 9, 42, 0
4, 154319, Note_on_c, 9, 59, 0
4, 154437, Note_on_c, 9, 59, 52
4, 154481, Note_on_c, 9, 59, 0
4, 154500, Note_on_c, 9, 37, 71
4, 154632, Note_on_c, 9, 37, 0
4, 154713, Note_on_c, 9, 42, 69
4, 154723, Note_on_c, 9, 59, 70
4, 154763, Note_on_c, 9, 42, 0
4, 154766, Note_on_c, 9, 59, 0
4, 155036, Note_on_c, 9, 59, 96
4, 155082, Note_on_c, 9, 42, 80
4, 155114, Note_on_c, 9, 42, 0
4, 155253, Note_on_c, 9, 59, 0
4, 155389, Note_on_c, 9, 59, 57
4, 155395, Note_on_c, 9, 42, 70
4, 155433, Note_on_c, 9, 42, 0
4, 155436, Note_on_c, 9, 59, 0
4, 155693, Note_on_c, 9, 59, 70
4, 155712, Note_on_c, 9, 42, 78
4, 155784, Note_on_c, 9, 42, 0
4, 155785, Note_on_c, 9, 59, 0
4, 155973, Note_on_c, 9, 37, 73
4, 156023, Note_on_c, 9, 59, 84
4, 156049, Note_on_c, 9, 42, 80
4, 156091, Note_on_c, 9, 37, 0
4, 156122, Note_on_c, 9, 42, 0
4, 156235, Note_on_c, 9, 59, 0
4, 156354, Note_on_c, 9, 59, 66
4, 156532, Note_on_c, 9, 59, 0
4, 156692, Note_on_c, 9, 59, 63
4, 156788, Note_on_c, 9, 59, 0
4, 156993, Note_on_c, 9, 59, 90
4, 157152, Note_on_c, 9, 59, 0
4, 157293, Note_on_c, 9, 59, 68
4, 157372, Note_on_c, 9, 59, 0
4, 157453, Note_on_c, 9, 59, 72
4, 157670, Note_on_c, 9, 59, 0
4, 157915, Note_on_c, 9, 59, 73
4, 158148, Note_on_c, 9, 59, 0
4, 158283, Note_on_c, 9, 59, 41
4, 158367, Note_on_c, 9, 59, 0
4, 158444, Note_on_c, 9, 59, 74
4, 158609, Note_on_c, 9, 46, 42
4, 158647, Note_on_c, 9, 46, 0
4, 158736, Note_on_c, 9, 59, 0
4, 158876, Note_on_c, 9, 37, 77
4, 158881, Note_on_c, 9, 59, 72
4, 158937, Note_on_c, 9, 46, 60
4, 158977, Note_on_c, 9, 46, 0
4, 159048, Note_on_c, 9, 37, 0
4, 159106, Note_on_c, 9, 59, 0
4, 159226, Note_on_c, 9, 59, 44
4, 159274, Note_on_c, 9, 46, 54
4, 159277, Note_on_c, 9, 59, 0
4, 159312, Note_on_c, 9, 46, 0
4, 159360, Note_on_c, 9, 59, 75
4, 159587, Note_on_c, 9, 46, 35
4, 159628, Note_on_c, 9, 46, 0
4, 159681, Note_on_c, 9, 59, 0
4, 159833, Note_on_c, 9, 59, 68
4, 159889, Note_on_c, 9, 46, 60
4, 159973, Note_on_c, 9, 46, 0
4, 160103, Note_on_c, 9, 59, 0
4, 160196, Note_on_c, 9, 37, 33
4, 160210, Note_on_c, 9, 59, 39
4, 160233, Note_on_c, 9, 37, 0
4, 160283, Note_on_c, 9, 59, 0
4, 160329, Note_on_c, 9, 41, 62
4, 160355, Note_on_c, 9, 59, 67
4, 160366, Note_on_c, 9, 41, 0
4, 160457, Note_on_c, 9, 41, 43
4, 160507, Note_on_c, 9, 41, 0
4, 160554, Note_on_c, 9, 59, 0
4, 160667, Note_on_c, 9, 59, 71
4, 160835, Note_on_c, 9, 59, 0
4, 160970, Note_on_c, 9, 59, 57
4, 161020, Note_on_c, 9, 59, 0
4, 161110, Note_on_c, 9, 59, 72
4, 161187, Note_on_c, 9, 37, 50
4, 161197, Note_on_c, 9, 59, 0
4, 161224, Note_on_c, 9, 37, 0
4, 161285, Note_on_c, 9, 59, 67
4, 161536, Note_on_c, 9, 59, 0
4, 161738, Note_on_c, 9, 59, 66
4, 161903, Note_on_c, 9, 59, 0
4, 162102, Note_on_c, 9, 59, 58
4, 162144, Note_on_c, 9, 59, 0
4, 162230, Note_on_c, 9, 59, 68
4, 162430, Note_on_c, 9, 59, 0
4, 162666, Note_on_c, 9, 37, 62
4, 162679, Note_on_c, 9, 59, 60
4, 162754, Note_on_c, 9, 37, 0
4, 162801, Note_on_c, 9, 59, 0
4, 163165, Note_on_c, 9, 59, 44
4, 163210, Note_on_c, 9, 59, 0
4, 163289, Note_on_c, 9, 59, 71
4, 163410, Note_on_c, 9, 59, 0
4, 163655, Note_on_c, 9, 46, 53
4, 163661, Note_on_c, 9, 59, 85
4, 163760, Note_on_c, 9, 46, 0
4, 163928, Note_on_c, 9, 59, 0
4, 164110, Note_on_c, 9, 38, 35
4, 164156, Note_on_c, 9, 38, 0
4, 164197, Note_on_c, 9, 59, 75
4, 164499, Note_on_c, 9, 59, 0
4, 164601, Note_on_c, 9, 38, 38
4, 164649, Note_on_c, 9, 59, 62
4, 164650, Note_on_c, 9, 38, 0
4, 164766, Note_on_c, 9, 59, 0
4, 164932, Note_on_c, 9, 38, 55
4, 164970, Note_on_c, 9, 38, 0
4, 164993, Note_on_c, 9, 59, 57
4, 165034, Note_on_c, 9, 59, 0
4, 165135, Note_on_c, 9, 59, 64
4, 165443, Note_on_c, 9, 59, 0
4, 165587, Note_on_c, 9, 42, 65
4, 165590, Note_on_c, 9, 59, 49
4, 165758, Note_on_c, 9, 59, 0
4, 165759, Note_on_c, 9, 42, 0
4, 165927, Note_on_c, 9, 59, 46
4, 165975, Note_on_c, 9, 59, 0
4, 166078, Note_on_c, 9, 59, 68
4, 166384, Note_on_c, 9, 59, 0
4, 166574, Note_on_c, 9, 59, 58
4, 166636, Note_on_c, 9, 59, 0
4, 166712, Note_on_c, 9, 59, 56
4, 166823, Note_on_c, 9, 59, 0
4, 167077, Note_on_c, 9, 59, 89
4, 167209, Note_on_c, 9, 38, 64
4, 167247, Note_on_c, 9, 38, 0
4, 167357, Note_on_c, 9, 38, 37
4, 167395, Note_on_c, 9, 59, 0
4, 167406, Note_on_c, 9, 38, 0
4, 167488, Note_on_c, 9, 35, 63
4, 167516, Note_on_c, 9, 42, 71
4, 167531, Note_on_c, 9, 59, 50
4, 167572, Note_on_c, 9, 59, 0
4, 167580, Note_on_c, 9, 35, 0
4, 167643, Note_on_c, 9, 42, 0
4, 167711, Note_on_c, 9, 59, 22
4, 167789, Note_on_c, 9, 59, 0
4, 167999, Note_on_c, 9, 38, 34
4, 168046, Note_on_c, 9, 38, 0
4, 168130, Note_on_c, 9, 38, 52
4, 168181, Note_on_c, 9, 38, 0
4, 168259, Note_on_c, 9, 59, 64
4, 168302, Note_on_c, 9, 59, 0
4, 168364, Note_on_c, 9, 35, 24
4, 168382, Note_on_c, 9, 59, 75
4, 168402, Note_on_c, 9, 35, 0
4, 168420, Note_on_c, 9, 59, 0
4, 168494, Note_on_c, 9, 42, 64
4, 168547, Note_on_c, 9, 42, 0
4, 168554, Note_on_c, 9, 59, 90
4, 168615, Note_on_c, 9, 42, 71
4, 168672, Note_on_c, 9, 38, 52
4, 168684, Note_on_c, 9, 42, 0
4, 168710, Note_on_c, 9, 38, 0
4, 168771, Note_on_c, 9, 59, 0
4, 168789, Note_on_c, 9, 38, 68
4, 168829, Note_on_c, 9, 38, 0
4, 168959, Note_on_c, 9, 35, 57
4, 168988, Note_on_c, 9, 59, 58
4, 169025, Note_on_c, 9, 59, 0
4, 169084, Note_on_c, 9, 35, 0
4, 169142, Note_on_c, 9, 59, 55
4, 169223, Note_on_c, 9, 59, 0
4, 169320, Note_on_c, 9, 59, 91
4, 169399, Note_on_c, 9, 38, 44
4, 169442, Note_on_c, 9, 38, 0
4, 169546, Note_on_c, 9, 38, 44
4, 169548, Note_on_c, 9, 59, 0
4, 169595, Note_on_c, 9, 38, 0
4, 169699, Note_on_c, 9, 59, 36
4, 169729, Note_on_c, 9, 35, 64
4, 169750, Note_on_c, 9, 59, 0
4, 169777, Note_on_c, 9, 35, 0
4, 169832, Note_on_c, 9, 59, 60
4, 169920, Note_on_c, 9, 59, 0
4, 170006, Note_on_c, 9, 59, 88
4, 170073, Note_on_c, 9, 38, 66
4, 170112, Note_on_c, 9, 38, 0
4, 170216, Note_on_c, 9, 38, 65
4, 170288, Note_on_c, 9, 59, 0
4, 170299, Note_on_c, 9, 38, 0
4, 170390, Note_on_c, 9, 35, 66
4, 170407, Note_on_c, 9, 59, 46
4, 170475, Note_on_c, 9, 35, 0
4, 170500, Note_on_c, 9, 59, 0
4, 170753, Note_on_c, 9, 59, 71
4, 170803, Note_on_c, 9, 38, 64
4, 170825, Note_on_c, 9, 59, 0
4, 170869, Note_on_c, 9, 38, 0
4, 170908, Note_on_c, 9, 59, 69
4, 170963, Note_on_c, 9, 38, 74
4, 171040, Note_on_c, 9, 38, 0
4, 171164, Note_on_c, 9, 35, 55
4, 171204, Note_on_c, 9, 42, 45
4, 171220, Note_on_c, 9, 35, 0
4, 171245, Note_on_c, 9, 42, 0
4, 171287, Note_on_c, 9, 59, 0
4, 171339, Note_on_c, 9, 42, 54
4, 171385, Note_on_c, 9, 59, 59
4, 171520, Note_on_c, 9, 42, 0
4, 171584, Note_on_c, 9, 59, 0
4, 171767, Note_on_c, 9, 59, 58
4, 171808, Note_on_c, 9, 59, 0
4, 171884, Note_on_c, 9, 59, 80
4, 172242, Note_on_c, 9, 59, 0
4, 172379, Note_on_c, 9, 59, 55
4, 172600, Note_on_c, 9, 59, 0
4, 172661, Note_on_c, 9, 46, 52
4, 172716, Note_on_c, 9, 59, 39
4, 172767, Note_on_c, 9, 59, 0
4, 172767, Note_on_c, 9, 46, 0
4, 172841, Note_on_c, 9, 59, 74
4, 172848, Note_on_c, 9, 42, 32
4, 172916, Note_on_c, 9, 42, 0
4, 173165, Note_on_c, 9, 59, 0
4, 173315, Note_on_c, 9, 59, 74
4, 173580, Note_on_c, 9, 59, 0
4, 173669, Note_on_c, 9, 59, 57
4, 173714, Note_on_c, 9, 59, 0
4, 173805, Note_on_c, 9, 59, 66
4, 174126, Note_on_c, 9, 59, 0
4, 174130, Note_on_c, 9, 31, 46
4, 174173, Note_on_c, 9, 31, 0
4, 174279, Note_on_c, 9, 59, 75
4, 174307, Note_on_c, 9, 34, 33
4, 174502, Note_on_c, 9, 59, 0
4, 174596, Note_on_c, 9, 34, 0
4, 174613, Note_on_c, 9, 59, 51
4, 174662, Note_on_c, 9, 59, 0
4, 174724, Note_on_c, 9, 46, 53
4, 174768, Note_on_c, 9, 59, 62
4, 174900, Note_on_c, 9, 46, 0
4, 174925, Note_on_c, 9, 59, 0
4, 175211, Note_on_c, 9, 46, 69
4, 175218, Note_on_c, 9, 59, 94
4, 175559, Note_on_c, 9, 59, 0
4, 175595, Note_on_c, 9, 46, 0
4, 175735, Note_on_c, 9, 59, 54
4, 175775, Note_on_c, 9, 59, 0
4, 176001, Note_on_c, 9, 31, 63
4, 176007, Note_on_c, 9, 59, 83
4, 176078, Note_on_c, 9, 59, 0
4, 176084, Note_on_c, 9, 31, 0
4, 176157, Note_on_c, 9, 46, 77
4, 176159, Note_on_c, 9, 59, 80
4, 176161, Note_on_c, 9, 34, 57
4, 176371, Note_on_c, 9, 46, 0
4, 176410, Note_on_c, 9, 34, 0
4, 176451, Note_on_c, 9, 57, 91
4, 176466, Note_on_c, 9, 35, 82
4, 176497, Note_on_c, 9, 59, 0
4, 176600, Note_on_c, 9, 46, 83
4, 176655, Note_on_c, 9, 59, 40
4, 176729, Note_on_c, 9, 59, 0
4, 176893, Note_on_c, 9, 46, 0
4, 176974, Note_on_c, 9, 59, 62
4, 177018, Note_on_c, 9, 59, 0
4, 177118, Note_on_c, 9, 59, 81
4, 177457, Note_on_c, 9, 59, 0
4, 177603, Note_on_c, 9, 59, 80
4, 177821, Note_on_c, 9, 57, 0
4, 177907, Note_on_c, 9, 31, 39
4, 177908, Note_on_c, 9, 35, 0
4, 177928, Note_on_c, 9, 59, 0
4, 177954, Note_on_c, 9, 31, 0
4, 178013, Note_on_c, 9, 34, 51
4, 178094, Note_on_c, 9, 59, 74
4, 178316, Note_on_c, 9, 34, 0
4, 178371, Note_on_c, 9, 57, 85
4, 178375, Note_on_c, 9, 59, 0
4, 178385, Note_on_c, 9, 35, 74
4, 178468, Note_on_c, 9, 59, 42
4, 178520, Note_on_c, 9, 59, 0
4, 178595, Note_on_c, 9, 59, 74
4, 178867, Note_on_c, 9, 44, 60
4, 178906, Note_on_c, 9, 44, 0
4, 178940, Note_on_c, 9, 59, 0
4, 179077, Note_on_c, 9, 59, 68
4, 179128, Note_on_c, 9, 57, 0
4, 179204, Note_on_c, 9, 44, 64
4, 179219, Note_on_c, 9, 59, 0
4, 179289, Note_on_c, 9, 44, 0
4, 179419, Note_on_c, 9, 59, 57
4, 179458, Note_on_c, 9, 59, 0
4, 179574, Note_on_c, 9, 59, 66
4, 179581, Note_on_c, 9, 44, 54
4, 179604, Note_on_c, 9, 35, 0
4, 179659, Note_on_c, 9, 44, 0
4, 179731, Note_on_c, 9, 59, 0
4, 179879, Note_on_c, 9, 59, 84
4, 179884, Note_on_c, 9, 42, 65
4, 179972, Note_on_c, 9, 42, 0
4, 180227, Note_on_c, 9, 59, 0
4, 180358, Note_on_c, 9, 59, 49
4, 180407, Note_on_c, 9, 59, 0
4, 180519, Note_on_c, 9, 59, 84
4, 180715, Note_on_c, 9, 35, 36
4, 180768, Note_on_c, 9, 35, 0
4, 180800, Note_on_c, 9, 59, 0
4, 180943, Note_on_c, 9, 42, 71
4, 180984, Note_on_c, 9, 59, 32
4, 181005, Note_on_c, 9, 35, 42
4, 181031, Note_on_c, 9, 59, 0
4, 181069, Note_on_c, 9, 35, 0
4, 181131, Note_on_c, 9, 42, 0
4, 181285, Note_on_c, 9, 59, 94
4, 181313, Note_on_c, 9, 35, 46
4, 181360, Note_on_c, 9, 35, 0
4, 181619, Note_on_c, 9, 59, 0
4, 181783, Note_on_c, 9, 59, 42
4, 181822, Note_on_c, 9, 35, 40
4, 181826, Note_on_c, 9, 59, 0
4, 181874, Note_on_c, 9, 35, 0
4, 181969, Note_on_c, 9, 59, 94
4, 182217, Note_on_c, 9, 38, 60
4, 182255, Note_on_c, 9, 38, 0
4, 182272, Note_on_c, 9, 59, 0
4, 182470, Note_on_c, 9, 59, 32
4, 182513, Note_on_c, 9, 38, 69
4, 182525, Note_on_c, 9, 59, 0
4, 182585, Note_on_c, 9, 38, 0
4, 182747, Note_on_c, 9, 59, 95
4, 182892, Note_on_c, 9, 38, 65
4, 182988, Note_on_c, 9, 38, 0
4, 183235, Note_on_c, 9, 38, 57
4, 183244, Note_on_c, 9, 59, 0
4, 183275, Note_on_c, 9, 38, 0
4, 183391, Note_on_c, 9, 59, 48
4, 183434, Note_on_c, 9, 59, 0
4, 183521, Note_on_c, 9, 38, 68
4, 183559, Note_on_c, 9, 38, 0
4, 183669, Note_on_c, 9, 59, 99
4, 183707, Note_on_c, 9, 42, 44
4, 183757, Note_on_c, 9, 42, 0
4, 183832, Note_on_c, 9, 34, 56
4, 183896, Note_on_c, 9, 46, 77
4, 183933, Note_on_c, 9, 34, 0
4, 184143, Note_on_c, 9, 59, 0
4, 184184, Note_on_c, 9, 57, 82
4, 184194, Note_on_c, 9, 35, 80
4, 184225, Note_on_c, 9, 59, 57
4, 184261, Note_on_c, 9, 57, 0
4, 184265, Note_on_c, 9, 59, 0
4, 184341, Note_on_c, 9, 35, 0
4, 184375, Note_on_c, 9, 59, 87
4, 184714, Note_on_c, 9, 59, 0
4, 184866, Note_on_c, 9, 59, 71
4, 184902, Note_on_c, 9, 46, 0
4, 185121, Note_on_c, 9, 42, 39
4, 185125, Note_on_c, 9, 59, 0
4, 185173, Note_on_c, 9, 42, 0
4, 185218, Note_on_c, 9, 59, 45
4, 185263, Note_on_c, 9, 59, 0
4, 185295, Note_on_c, 9, 46, 74
4, 185329, Note_on_c, 9, 59, 77
4, 185654, Note_on_c, 9, 34, 53
4, 185684, Note_on_c, 9, 59, 0
4, 185708, Note_on_c, 9, 34, 0
4, 185820, Note_on_c, 9, 35, 80
4, 185825, Note_on_c, 9, 46, 0
4, 185825, Note_on_c, 9, 59, 69
4, 185924, Note_on_c, 9, 57, 66
4, 186063, Note_on_c, 9, 59, 0
4, 186154, Note_on_c, 9, 59, 49
4, 186197, Note_on_c, 9, 59, 0
4, 186266, Note_on_c, 9, 59, 72
4, 186578, Note_on_c, 9, 59, 0
4, 186731, Note_on_c, 9, 59, 75
4, 187050, Note_on_c, 9, 59, 0
4, 187198, Note_on_c, 9, 59, 72
4, 187526, Note_on_c, 9, 59, 0
4, 187570, Note_on_c, 9, 57, 0
4, 187643, Note_on_c, 9, 35, 0
4, 187686, Note_on_c, 9, 59, 76
4, 187686, Note_on_c, 9, 42, 67
4, 187768, Note_on_c, 9, 42, 0
4, 188053, Note_on_c, 9, 59, 0
4, 188178, Note_on_c, 9, 59, 72
4, 188452, Note_on_c, 9, 59, 0
4, 188537, Note_on_c, 9, 59, 54
4, 188577, Note_on_c, 9, 59, 0
4, 188682, Note_on_c, 9, 59, 62
4, 189006, Note_on_c, 9, 31, 65
4, 189009, Note_on_c, 9, 59, 0
4, 189051, Note_on_c, 9, 31, 0
4, 189171, Note_on_c, 9, 59, 55
4, 189194, Note_on_c, 9, 31, 42
4, 189262, Note_on_c, 9, 59, 0
4, 189324, Note_on_c, 9, 59, 66
4, 189358, Note_on_c, 9, 31, 0
4, 189406, Note_on_c, 9, 59, 0
4, 189458, Note_on_c, 9, 31, 41
4, 189505, Note_on_c, 9, 31, 0
4, 189661, Note_on_c, 9, 59, 78
4, 189666, Note_on_c, 9, 42, 69
4, 189727, Note_on_c, 9, 42, 0
4, 189981, Note_on_c, 9, 59, 0
4, 190059, Note_on_c, 9, 59, 59
4, 190102, Note_on_c, 9, 59, 0
4, 190199, Note_on_c, 9, 59, 76
4, 190316, Note_on_c, 9, 59, 0
4, 190576, Note_on_c, 9, 42, 69
4, 190588, Note_on_c, 9, 59, 84
4, 190672, Note_on_c, 9, 42, 0
4, 190936, Note_on_c, 9, 59, 0
4, 191031, Note_on_c, 9, 59, 30
4, 191075, Note_on_c, 9, 59, 0
4, 191117, Note_on_c, 9, 59, 71
4, 191141, Note_on_c, 9, 38, 33
4, 191187, Note_on_c, 9, 38, 0
4, 191424, Note_on_c, 9, 59, 0
4, 191530, Note_on_c, 9, 59, 73
4, 191774, Note_on_c, 9, 59, 0
4, 191880, Note_on_c, 9, 59, 45
4, 191930, Note_on_c, 9, 59, 0
4, 192029, Note_on_c, 9, 59, 66
4, 192158, Note_on_c, 9, 38, 58
4, 192196, Note_on_c, 9, 38, 0
4, 192343, Note_on_c, 9, 59, 0
4, 192492, Note_on_c, 9, 59, 84
4, 192516, Note_on_c, 9, 42, 70
4, 192523, Note_on_c, 9, 35, 40
4, 192632, Note_on_c, 9, 42, 0
4, 192659, Note_on_c, 9, 35, 0
4, 192739, Note_on_c, 9, 59, 0
4, 192859, Note_on_c, 9, 59, 46
4, 192913, Note_on_c, 9, 59, 0
4, 192992, Note_on_c, 9, 59, 79
4, 193272, Note_on_c, 9, 59, 0
4, 193431, Note_on_c, 9, 59, 87
4, 193516, Note_on_c, 9, 35, 24
4, 193578, Note_on_c, 9, 35, 0
4, 193697, Note_on_c, 9, 59, 0
4, 193772, Note_on_c, 9, 35, 85
4, 193816, Note_on_c, 9, 59, 47
4, 193865, Note_on_c, 9, 59, 0
4, 193886, Note_on_c, 9, 35, 0
4, 193949, Note_on_c, 9, 59, 72
4, 193970, Note_on_c, 9, 35, 69
4, 194247, Note_on_c, 9, 59, 0
4, 194252, Note_on_c, 9, 35, 0
4, 194403, Note_on_c, 9, 59, 91
4, 194410, Note_on_c, 9, 46, 77
4, 194533, Note_on_c, 9, 46, 0
4, 194657, Note_on_c, 9, 59, 0
4, 194752, Note_on_c, 9, 35, 53
4, 194772, Note_on_c, 9, 59, 55
4, 194802, Note_on_c, 9, 35, 0
4, 194848, Note_on_c, 9, 59, 0
4, 194912, Note_on_c, 9, 59, 80
4, 195216, Note_on_c, 9, 59, 0
4, 195221, Note_on_c, 9, 31, 58
4, 195302, Note_on_c, 9, 31, 0
4, 195387, Note_on_c, 9, 59, 85
4, 195404, Note_on_c, 9, 34, 30
4, 195450, Note_on_c, 9, 34, 0
4, 195496, Note_on_c, 9, 42, 65
4, 195496, Note_on_c, 9, 42, 0
4, 195629, Note_on_c, 9, 59, 0
4, 195691, Note_on_c, 9, 38, 68
4, 195701, Note_on_c, 9, 34, 59
4, 195707, Note_on_c, 9, 35, 69
4, 195730, Note_on_c, 9, 38, 0
4, 195747, Note_on_c, 9, 34, 0
4, 195754, Note_on_c, 9, 59, 41
4, 195783, Note_on_c, 9, 35, 0
4, 195806, Note_on_c, 9, 59, 0
4, 195891, Note_on_c, 9, 59, 72
4, 196142, Note_on_c, 9, 59, 0
4, 196355, Note_on_c, 9, 59, 103
4, 196721, Note_on_c, 9, 59, 0
4, 196856, Note_on_c, 9, 59, 39
4, 196958, Note_on_c, 9, 59, 0
4, 197131, Note_on_c, 9, 59, 88
4, 197144, Note_on_c, 9, 34, 64
4, 197202, Note_on_c, 9, 59, 0
4, 197224, Note_on_c, 9, 34, 0
4, 197282, Note_on_c, 9, 38, 77
4, 197290, Note_on_c, 9, 46, 64
4, 197298, Note_on_c, 9, 59, 95
4, 197300, Note_on_c, 9, 35, 79
4, 197394, Note_on_c, 9, 46, 0
4, 197628, Note_on_c, 9, 35, 0
4, 197640, Note_on_c, 9, 59, 0
4, 197662, Note_on_c, 9, 38, 0
4, 197786, Note_on_c, 9, 59, 52
4, 197838, Note_on_c, 9, 59, 0
4, 198083, Note_on_c, 9, 59, 96
4, 198253, Note_on_c, 9, 42, 69
4, 198374, Note_on_c, 9, 42, 0
4, 198406, Note_on_c, 9, 59, 0
4, 198595, Note_on_c, 9, 59, 40
4, 198643, Note_on_c, 9, 59, 0
4, 198767, Note_on_c, 9, 59, 90
4, 199040, Note_on_c, 9, 59, 0
4, 199230, Note_on_c, 9, 59, 38
4, 199278, Note_on_c, 9, 59, 0
4, 199525, Note_on_c, 9, 35, 90
4, 199540, Note_on_c, 9, 59, 88
4, 199612, Note_on_c, 9, 35, 0
4, 199638, Note_on_c, 9, 59, 0
4, 199709, Note_on_c, 9, 59, 78
4, 199974, Note_on_c, 9, 59, 0
4, 200170, Note_on_c, 9, 42, 71
4, 200174, Note_on_c, 9, 59, 79
4, 200258, Note_on_c, 9, 42, 0
4, 200379, Note_on_c, 9, 59, 0
4, 200653, Note_on_c, 9, 59, 79
4, 200965, Note_on_c, 9, 59, 0
4, 200977, Note_on_c, 9, 34, 63
4, 201065, Note_on_c, 9, 34, 0
4, 201106, Note_on_c, 9, 46, 57
4, 201116, Note_on_c, 9, 59, 80
4, 201125, Note_on_c, 9, 57, 77
4, 201135, Note_on_c, 9, 35, 77
4, 201226, Note_on_c, 9, 46, 0
4, 201333, Note_on_c, 9, 59, 0
4, 201395, Note_on_c, 9, 57, 0
4, 201396, Note_on_c, 9, 35, 0
4, 201458, Note_on_c, 9, 57, 80
4, 201466, Note_on_c, 9, 35, 78
4, 201467, Note_on_c, 9, 59, 52
4, 201521, Note_on_c, 9, 59, 0
4, 201607, Note_on_c, 9, 59, 74
4, 201778, Note_on_c, 9, 57, 0
4, 201814, Note_on_c, 9, 35, 0
4, 201915, Note_on_c, 9, 59, 0
4, 202067, Note_on_c, 9, 59, 84
4, 202083, Note_on_c, 9, 42, 69
4, 202218, Note_on_c, 9, 42, 0
4, 202353, Note_on_c, 9, 59, 0
4, 202448, Note_on_c, 9, 59, 48
4, 202497, Note_on_c, 9, 59, 0
4, 202577, Note_on_c, 9, 59, 76
4, 202854, Note_on_c, 9, 59, 0
4, 203032, Note_on_c, 9, 59, 84
4, 203268, Note_on_c, 9, 59, 0
4, 203341, Note_on_c, 9, 35, 75
4, 203355, Note_on_c, 9, 34, 48
4, 203404, Note_on_c, 9, 34, 0
4, 203414, Note_on_c, 9, 59, 42
4, 203424, Note_on_c, 9, 35, 0
4, 203461, Note_on_c, 9, 59, 0
4, 203542, Note_on_c, 9, 59, 68
4, 203800, Note_on_c, 9, 59, 0
4, 204023, Note_on_c, 9, 59, 96
4, 204326, Note_on_c, 9, 59, 0
4, 204523, Note_on_c, 9, 59, 87
4, 204774, Note_on_c, 9, 59, 0
4, 204978, Note_on_c, 9, 42, 67
4, 204997, Note_on_c, 9, 59, 82
4, 205076, Note_on_c, 9, 42, 0
4, 205325, Note_on_c, 9, 59, 0
4, 205489, Note_on_c, 9, 59, 80
4, 205738, Note_on_c, 9, 59, 0
4, 205941, Note_on_c, 9, 59, 80
4, 205946, Note_on_c, 9, 42, 70
4, 206051, Note_on_c, 9, 42, 0
4, 206189, Note_on_c, 9, 59, 0
4, 206404, Note_on_c, 9, 59, 74
4, 206721, Note_on_c, 9, 59, 0
4, 206742, Note_on_c, 9, 51, 69
4, 206846, Note_on_c, 9, 51, 0
4, 207220, Note_on_c, 9, 51, 64
4, 207288, Note_on_c, 9, 51, 0
4, 207364, Note_on_c, 9, 51, 71
4, 207459, Note_on_c, 9, 51, 0
4, 207854, Note_on_c, 9, 46, 63
4, 207973, Note_on_c, 9, 46, 0
4, 208210, Note_on_c, 9, 51, 78
4, 208290, Note_on_c, 9, 51, 0
4, 208384, Note_on_c, 9, 51, 59
4, 208626, Note_on_c, 9, 51, 0
4, 209166, Note_on_c, 9, 51, 45
4, 209219, Note_on_c, 9, 51, 0
4, 209328, Note_on_c, 9, 51, 48
4, 209593, Note_on_c, 9, 51, 0
4, 210111, Note_on_c, 9, 51, 60
4, 210177, Note_on_c, 9, 51, 0
4, 210294, Note_on_c, 9, 51, 38
4, 210352, Note_on_c, 9, 38, 32
4, 210400, Note_on_c, 9, 38, 0
4, 210405, Note_on_c, 9, 51, 0
4, 210617, Note_on_c, 9, 53, 70
4, 210719, Note_on_c, 9, 53, 0
4, 210739, Note_on_c, 9, 38, 53
4, 210787, Note_on_c, 9, 38, 0
4, 211064, Note_on_c, 9, 34, 46
4, 211082, Note_on_c, 9, 51, 29
4, 211120, Note_on_c, 9, 51, 0
4, 211192, Note_on_c, 9, 34, 0
4, 211249, Note_on_c, 9, 51, 33
4, 211252, Note_on_c, 9, 35, 32
4, 211396, Note_on_c, 9, 51, 0
4, 211401, Note_on_c, 9, 35, 0
4, 211542, Note_on_c, 9, 53, 68
4, 211564, Note_on_c, 9, 35, 34
4, 211587, Note_on_c, 9, 53, 0
4, 211632, Note_on_c, 9, 35, 0
4, 211740, Note_on_c, 9, 53, 48
4, 211790, Note_on_c, 9, 53, 0
4, 212027, Note_on_c, 9, 51, 43
4, 212082, Note_on_c, 9, 51, 0
4, 212270, Note_on_c, 9, 51, 25
4, 212314, Note_on_c, 9, 51, 0
4, 212631, Note_on_c, 9, 38, 35
4, 212682, Note_on_c, 9, 38, 0
4, 212780, Note_on_c, 9, 38, 49
4, 212868, Note_on_c, 9, 38, 0
4, 212969, Note_on_c, 9, 51, 36
4, 212997, Note_on_c, 9, 35, 31
4, 213015, Note_on_c, 9, 51, 0
4, 213098, Note_on_c, 9, 35, 0
4, 213153, Note_on_c, 9, 51, 36
4, 213274, Note_on_c, 9, 51, 0
4, 213770, Note_on_c, 9, 42, 39
4, 213817, Note_on_c, 9, 42, 0
4, 213946, Note_on_c, 9, 51, 35
4, 213986, Note_on_c, 9, 51, 0
4, 214095, Note_on_c, 9, 51, 42
4, 214133, Note_on_c, 9, 51, 0
4, 214156, Note_on_c, 9, 42, 60
4, 214208, Note_on_c, 9, 42, 0
4, 214223, Note_on_c, 9, 51, 57
4, 214289, Note_on_c, 9, 51, 0
4, 214426, Note_on_c, 9, 31, 37
4, 214523, Note_on_c, 9, 31, 0
4, 214617, Note_on_c, 9, 51, 77
4, 214624, Note_on_c, 9, 35, 39
4, 214734, Note_on_c, 9, 51, 0
4, 214776, Note_on_c, 9, 35, 0
4, 214917, Note_on_c, 9, 35, 40
4, 214967, Note_on_c, 9, 35, 0
4, 214974, Note_on_c, 9, 51, 28
4, 215012, Note_on_c, 9, 51, 0
4, 215212, Note_on_c, 9, 42, 53
4, 215254, Note_on_c, 9, 42, 0
4, 215359, Note_on_c, 9, 51, 51
4, 215393, Note_on_c, 9, 31, 35
4, 215397, Note_on_c, 9, 51, 0
4, 215454, Note_on_c, 9, 31, 0
4, 215497, Note_on_c, 9, 51, 53
4, 215537, Note_on_c, 9, 35, 26
4, 215558, Note_on_c, 9, 51, 0
4, 215579, Note_on_c, 9, 42, 51
4, 215619, Note_on_c, 9, 42, 0
4, 215625, Note_on_c, 9, 51, 83
4, 215663, Note_on_c, 9, 35, 0
4, 215794, Note_on_c, 9, 51, 0
4, 215840, Note_on_c, 9, 35, 33
4, 215889, Note_on_c, 9, 35, 0
4, 216270, Note_on_c, 9, 51, 52
4, 216315, Note_on_c, 9, 51, 0
4, 216372, Note_on_c, 9, 31, 52
4, 216402, Note_on_c, 9, 51, 78
4, 216416, Note_on_c, 9, 31, 0
4, 216602, Note_on_c, 9, 51, 0
4, 216773, Note_on_c, 9, 51, 31
4, 216812, Note_on_c, 9, 51, 0
4, 216884, Note_on_c, 9, 51, 58
4, 216957, Note_on_c, 9, 51, 0
4, 217048, Note_on_c, 9, 51, 78
4, 217288, Note_on_c, 9, 46, 43
4, 217325, Note_on_c, 9, 51, 0
4, 217347, Note_on_c, 9, 46, 0
4, 217454, Note_on_c, 9, 42, 40
4, 217497, Note_on_c, 9, 42, 0
4, 217815, Note_on_c, 9, 51, 52
4, 217857, Note_on_c, 9, 51, 0
4, 217950, Note_on_c, 9, 51, 65
4, 218203, Note_on_c, 9, 51, 0
4, 218266, Note_on_c, 9, 31, 57
4, 218313, Note_on_c, 9, 31, 0
4, 218524, Note_on_c, 9, 51, 32
4, 218563, Note_on_c, 9, 51, 0
4, 218603, Note_on_c, 9, 31, 58
4, 218630, Note_on_c, 9, 51, 68
4, 218693, Note_on_c, 9, 31, 0
4, 218728, Note_on_c, 9, 51, 0
4, 218799, Note_on_c, 9, 51, 74
4, 218908, Note_on_c, 9, 51, 0
4, 218951, Note_on_c, 9, 31, 51
4, 219060, Note_on_c, 9, 31, 0
4, 219184, Note_on_c, 9, 51, 46
4, 219231, Note_on_c, 9, 51, 0
4, 219303, Note_on_c, 9, 51, 57
4, 219346, Note_on_c, 9, 51, 0
4, 219357, Note_on_c, 9, 46, 56
4, 219433, Note_on_c, 9, 51, 80
4, 219468, Note_on_c, 9, 46, 0
4, 219648, Note_on_c, 9, 51, 0
4, 219864, Note_on_c, 9, 51, 31
4, 219904, Note_on_c, 9, 51, 0
4, 220022, Note_on_c, 9, 51, 54
4, 220075, Note_on_c, 9, 51, 0
4, 220160, Note_on_c, 9, 51, 78
4, 220208, Note_on_c, 9, 31, 38
4, 220262, Note_on_c, 9, 31, 0
4, 220318, Note_on_c, 9, 46, 57
4, 220381, Note_on_c, 9, 51, 0
4, 220448, Note_on_c, 9, 46, 0
4, 220557, Note_on_c, 9, 51, 34
4, 220595, Note_on_c, 9, 51, 0
4, 220713, Note_on_c, 9, 51, 46
4, 220768, Note_on_c, 9, 51, 0
4, 220856, Note_on_c, 9, 51, 81
4, 221046, Note_on_c, 9, 37, 30
4, 221084, Note_on_c, 9, 37, 0
4, 221092, Note_on_c, 9, 51, 0
4, 221368, Note_on_c, 9, 37, 76
4, 221499, Note_on_c, 9, 37, 0
4, 221603, Note_on_c, 9, 51, 37
4, 221618, Note_on_c, 9, 46, 39
4, 221640, Note_on_c, 9, 51, 0
4, 221656, Note_on_c, 9, 46, 0
4, 221713, Note_on_c, 9, 37, 79
4, 221790, Note_on_c, 9, 46, 53
4, 221816, Note_on_c, 9, 37, 0
4, 221819, Note_on_c, 9, 53, 68
4, 221893, Note_on_c, 9, 46, 0
4, 221986, Note_on_c, 9, 53, 0
4, 222032, Note_on_c, 9, 37, 78
4, 222140, Note_on_c, 9, 53, 54
4, 222145, Note_on_c, 9, 37, 0
4, 222235, Note_on_c, 9, 53, 0
4, 222321, Note_on_c, 9, 34, 65
4, 222461, Note_on_c, 9, 34, 0
4, 222550, Note_on_c, 9, 46, 47
4, 222571, Note_on_c, 9, 51, 56
4, 222594, Note_on_c, 9, 46, 0
4, 222611, Note_on_c, 9, 34, 74
4, 222614, Note_on_c, 9, 51, 0
4, 222710, Note_on_c, 9, 46, 51
4, 222725, Note_on_c, 9, 51, 62
4, 222785, Note_on_c, 9, 34, 0
4, 222803, Note_on_c, 9, 57, 65
4, 222831, Note_on_c, 9, 46, 0
4, 222843, Note_on_c, 9, 35, 61
4, 223001, Note_on_c, 9, 51, 0
4, 223512, Note_on_c, 9, 57, 0
4, 223554, Note_on_c, 9, 51, 39
4, 223597, Note_on_c, 9, 51, 0
4, 223725, Note_on_c, 9, 51, 62
4, 223932, Note_on_c, 9, 51, 0
4, 224001, Note_on_c, 9, 46, 50
4, 224056, Note_on_c, 9, 46, 0
4, 224168, Note_on_c, 9, 46, 50
4, 224318, Note_on_c, 9, 46, 0
4, 224537, Note_on_c, 9, 51, 53
4, 224588, Note_on_c, 9, 51, 0
4, 224682, Note_on_c, 9, 51, 56
4, 224891, Note_on_c, 9, 51, 0
4, 224903, Note_on_c, 9, 37, 35
4, 224941, Note_on_c, 9, 37, 0
4, 224959, Note_on_c, 9, 35, 0
4, 225187, Note_on_c, 9, 42, 60
4, 225231, Note_on_c, 9, 37, 48
4, 225270, Note_on_c, 9, 37, 0
4, 225347, Note_on_c, 9, 42, 0
4, 225487, Note_on_c, 9, 51, 34
4, 225511, Note_on_c, 9, 42, 55
4, 225525, Note_on_c, 9, 51, 0
4, 225582, Note_on_c, 9, 37, 36
4, 225608, Note_on_c, 9, 42, 0
4, 225615, Note_on_c, 9, 51, 48
4, 225620, Note_on_c, 9, 37, 0
4, 225820, Note_on_c, 9, 42, 55
4, 225835, Note_on_c, 9, 51, 0
4, 225893, Note_on_c, 9, 37, 49
4, 225915, Note_on_c, 9, 42, 0
4, 225932, Note_on_c, 9, 37, 0
4, 226076, Note_on_c, 9, 51, 72
4, 226165, Note_on_c, 9, 42, 54
4, 226198, Note_on_c, 9, 31, 40
4, 226243, Note_on_c, 9, 42, 0
4, 226279, Note_on_c, 9, 51, 0
4, 226305, Note_on_c, 9, 31, 0
4, 226424, Note_on_c, 9, 51, 33
4, 226466, Note_on_c, 9, 34, 51
4, 226524, Note_on_c, 9, 51, 0
4, 226588, Note_on_c, 9, 34, 0
4, 226596, Note_on_c, 9, 51, 59
4, 226684, Note_on_c, 9, 35, 49
4, 226818, Note_on_c, 9, 51, 0
4, 226987, Note_on_c, 9, 35, 0
4, 227040, Note_on_c, 9, 51, 74
4, 227280, Note_on_c, 9, 51, 0
4, 227415, Note_on_c, 9, 51, 25
4, 227457, Note_on_c, 9, 51, 0
4, 227528, Note_on_c, 9, 51, 57
4, 227810, Note_on_c, 9, 51, 0
4, 228012, Note_on_c, 9, 51, 74
4, 228346, Note_on_c, 9, 51, 0
4, 228539, Note_on_c, 9, 51, 20
4, 228713, Note_on_c, 9, 51, 0
4, 228915, Note_on_c, 9, 46, 49
4, 228975, Note_on_c, 9, 51, 81
4, 229151, Note_on_c, 9, 46, 0
4, 229267, Note_on_c, 9, 51, 0
4, 229333, Note_on_c, 9, 51, 37
4, 229377, Note_on_c, 9, 51, 0
4, 229481, Note_on_c, 9, 51, 47
4, 229736, Note_on_c, 9, 38, 34
4, 229770, Note_on_c, 9, 51, 0
4, 229786, Note_on_c, 9, 38, 0
4, 229934, Note_on_c, 9, 51, 69
4, 230145, Note_on_c, 9, 51, 0
4, 230279, Note_on_c, 9, 51, 39
4, 230317, Note_on_c, 9, 51, 0
4, 230430, Note_on_c, 9, 51, 48
4, 230647, Note_on_c, 9, 51, 0
4, 230731, Note_on_c, 9, 44, 46
4, 230780, Note_on_c, 9, 44, 0
4, 230851, Note_on_c, 9, 38, 40
4, 230866, Note_on_c, 9, 46, 42
4, 230889, Note_on_c, 9, 51, 50
4, 230992, Note_on_c, 9, 46, 0
4, 231013, Note_on_c, 9, 38, 0
4, 231148, Note_on_c, 9, 38, 30
4, 231163, Note_on_c, 9, 51, 0
4, 231194, Note_on_c, 9, 38, 0
4, 231384, Note_on_c, 9, 51, 62
4, 231626, Note_on_c, 9, 51, 0
4, 231839, Note_on_c, 9, 51, 67
4, 232020, Note_on_c, 9, 51, 0
4, 232179, Note_on_c, 9, 51, 54
4, 232235, Note_on_c, 9, 51, 0
4, 232343, Note_on_c, 9, 51, 45
4, 232600, Note_on_c, 9, 42, 51
4, 232604, Note_on_c, 9, 51, 0
4, 232640, Note_on_c, 9, 46, 52
4, 232706, Note_on_c, 9, 42, 0
4, 232944, Note_on_c, 9, 38, 24
4, 232995, Note_on_c, 9, 38, 0
4, 233161, Note_on_c, 9, 46, 0
4, 233253, Note_on_c, 9, 51, 59
4, 233623, Note_on_c, 9, 51, 0
4, 233782, Note_on_c, 9, 51, 46
4, 233949, Note_on_c, 9, 51, 0
4, 234272, Note_on_c, 9, 51, 67
4, 234513, Note_on_c, 9, 51, 0
4, 234584, Note_on_c, 9, 38, 46
4, 234627, Note_on_c, 9, 38, 0
4, 234629, Note_on_c, 9, 51, 49
4, 234691, Note_on_c, 9, 51, 0
4, 234741, Note_on_c, 9, 31, 46
4, 234785, Note_on_c, 9, 51, 55
4, 234796, Note_on_c, 9, 31, 0
4, 234802, Note_on_c, 9, 35, 46
4, 235117, Note_on_c, 9, 35, 0
4, 235123, Note_on_c, 9, 51, 0
4, 235258, Note_on_c, 9, 51, 67
4, 235500, Note_on_c, 9, 51, 0
4, 235557, Note_on_c, 9, 31, 61
4, 235691, Note_on_c, 9, 31, 0
4, 235692, Note_on_c, 9, 42, 48
4, 235702, Note_on_c, 9, 51, 69
4, 235745, Note_on_c, 9, 38, 32
4, 235749, Note_on_c, 9, 35, 44
4, 235817, Note_on_c, 9, 42, 0
4, 235825, Note_on_c, 9, 38, 0
4, 235890, Note_on_c, 9, 35, 0
4, 235997, Note_on_c, 9, 51, 0
4, 236174, Note_on_c, 9, 51, 46
4, 236376, Note_on_c, 9, 51, 0
4, 236510, Note_on_c, 9, 31, 44
4, 236582, Note_on_c, 9, 31, 0
4, 236651, Note_on_c, 9, 51, 73
4, 236694, Note_on_c, 9, 38, 42
4, 236695, Note_on_c, 9, 35, 36
4, 236747, Note_on_c, 9, 38, 0
4, 236795, Note_on_c, 9, 35, 0
4, 236925, Note_on_c, 9, 51, 0
4, 237131, Note_on_c, 9, 51, 67
4, 237228, Note_on_c, 9, 51, 0
4, 237431, Note_on_c, 9, 51, 68
4, 237546, Note_on_c, 9, 51, 0
4, 237592, Note_on_c, 9, 59, 76
4, 237913, Note_on_c, 9, 59, 0
4, 237931, Note_on_c, 9, 35, 20
4, 237969, Note_on_c, 9, 35, 0
4, 238051, Note_on_c, 9, 59, 85
4, 238072, Note_on_c, 9, 57, 57
4, 238108, Note_on_c, 9, 57, 0
4, 238460, Note_on_c, 9, 59, 0
4, 238566, Note_on_c, 9, 59, 81
4, 238580, Note_on_c, 9, 42, 88
4, 238580, Note_on_c, 9, 35, 53
4, 238748, Note_on_c, 9, 42, 0
4, 238922, Note_on_c, 9, 59, 0
4, 239045, Note_on_c, 9, 35, 0
4, 239060, Note_on_c, 9, 59, 83
4, 239371, Note_on_c, 9, 59, 0
4, 239446, Note_on_c, 9, 59, 57
4, 239486, Note_on_c, 9, 59, 0
4, 239506, Note_on_c, 9, 42, 83
4, 239562, Note_on_c, 9, 59, 80
4, 239710, Note_on_c, 9, 42, 0
4, 239936, Note_on_c, 9, 59, 0
4, 240035, Note_on_c, 9, 59, 79
4, 240345, Note_on_c, 9, 59, 0
4, 240507, Note_on_c, 9, 59, 84
4, 240818, Note_on_c, 9, 59, 0
4, 240838, Note_on_c, 9, 35, 39
4, 240887, Note_on_c, 9, 35, 0
4, 240993, Note_on_c, 9, 59, 83
4, 240997, Note_on_c, 9, 35, 46
4, 241184, Note_on_c, 9, 59, 0
4, 241219, Note_on_c, 9, 35, 0
4, 241317, Note_on_c, 9, 35, 40
4, 241348, Note_on_c, 9, 59, 46
4, 241385, Note_on_c, 9, 35, 0
4, 241390, Note_on_c, 9, 59, 0
4, 241470, Note_on_c, 9, 46, 73
4, 241475, Note_on_c, 9, 59, 76
4, 241611, Note_on_c, 9, 46, 0
4, 242173, Note_on_c, 9, 59, 0
4, 242329, Note_on_c, 9, 59, 52
4, 242375, Note_on_c, 9, 59, 0
4, 242463, Note_on_c, 9, 59, 79
4, 242483, Note_on_c, 9, 42, 74
4, 242585, Note_on_c, 9, 42, 0
4, 242919, Note_on_c, 9, 59, 0
4, 243156, Note_on_c, 9, 59, 67
4, 243164, Note_on_c, 9, 38, 46
4, 243196, Note_on_c, 9, 59, 0
4, 243205, Note_on_c, 9, 38, 0
4, 243452, Note_on_c, 9, 59, 91
4, 243472, Note_on_c, 9, 38, 50
4, 243535, Note_on_c, 9, 38, 0
4, 243754, Note_on_c, 9, 59, 0
4, 243785, Note_on_c, 9, 38, 57
4, 243835, Note_on_c, 9, 38, 0
4, 244085, Note_on_c, 9, 38, 34
4, 244139, Note_on_c, 9, 38, 0
4, 244161, Note_on_c, 9, 59, 91
4, 244274, Note_on_c, 9, 59, 0
4, 244383, Note_on_c, 9, 42, 76
4, 244417, Note_on_c, 9, 38, 60
4, 244462, Note_on_c, 9, 38, 0
4, 244474, Note_on_c, 9, 42, 0
4, 244499, Note_on_c, 9, 59, 88
4, 244759, Note_on_c, 9, 59, 0
4, 244848, Note_on_c, 9, 42, 77
4, 244882, Note_on_c, 9, 59, 54
4, 244936, Note_on_c, 9, 59, 0
4, 244999, Note_on_c, 9, 42, 0
4, 245202, Note_on_c, 9, 59, 87
4, 245236, Note_on_c, 9, 35, 57
4, 245283, Note_on_c, 9, 35, 0
4, 245294, Note_on_c, 9, 59, 0
4, 245537, Note_on_c, 9, 59, 77
4, 245613, Note_on_c, 9, 34, 51
4, 245624, Note_on_c, 9, 59, 0
4, 245685, Note_on_c, 9, 59, 74
4, 245727, Note_on_c, 9, 34, 0
4, 245768, Note_on_c, 9, 59, 0
4, 245803, Note_on_c, 9, 57, 63
4, 245833, Note_on_c, 9, 35, 47
4, 245857, Note_on_c, 9, 59, 80
4, 246168, Note_on_c, 9, 59, 0
4, 246286, Note_on_c, 9, 59, 66
4, 246440, Note_on_c, 9, 59, 0
4, 246598, Note_on_c, 9, 59, 61
4, 246647, Note_on_c, 9, 59, 0
4, 246707, Note_on_c, 9, 57, 0
4, 246760, Note_on_c, 9, 59, 79
4, 247237, Note_on_c, 9, 42, 81
4, 247417, Note_on_c, 9, 59, 0
4, 247421, Note_on_c, 9, 42, 0
4, 247567, Note_on_c, 9, 59, 55
4, 247620, Note_on_c, 9, 59, 0
4, 247719, Note_on_c, 9, 59, 76
4, 247901, Note_on_c, 9, 38, 34
4, 247948, Note_on_c, 9, 38, 0
4, 247955, Note_on_c, 9, 35, 0
4, 248194, Note_on_c, 9, 42, 77
4, 248212, Note_on_c, 9, 38, 44
4, 248256, Note_on_c, 9, 38, 0
4, 248285, Note_on_c, 9, 59, 0
4, 248376, Note_on_c, 9, 42, 0
4, 248528, Note_on_c, 9, 59, 50
4, 248531, Note_on_c, 9, 38, 53
4, 248574, Note_on_c, 9, 59, 0
4, 248577, Note_on_c, 9, 38, 0
4, 248678, Note_on_c, 9, 59, 68
4, 248839, Note_on_c, 9, 38, 61
4, 248916, Note_on_c, 9, 38, 0
4, 248949, Note_on_c, 9, 59, 0
4, 248953, Note_on_c, 9, 35, 38
4, 249004, Note_on_c, 9, 42, 77
4, 249053, Note_on_c, 9, 35, 0
4, 249058, Note_on_c, 9, 31, 69
4, 249107, Note_on_c, 9, 42, 0
4, 249125, Note_on_c, 9, 59, 84
4, 249192, Note_on_c, 9, 31, 0
4, 249215, Note_on_c, 9, 35, 80
4, 249426, Note_on_c, 9, 59, 0
4, 249507, Note_on_c, 9, 59, 65
4, 249538, Note_on_c, 9, 35, 0
4, 249547, Note_on_c, 9, 59, 0
4, 249640, Note_on_c, 9, 59, 68
4, 249818, Note_on_c, 9, 59, 0
4, 250108, Note_on_c, 9, 59, 105
4, 250115, Note_on_c, 9, 42, 78
4, 250263, Note_on_c, 9, 42, 0
4, 250430, Note_on_c, 9, 34, 33
4, 250483, Note_on_c, 9, 34, 0
4, 250502, Note_on_c, 9, 59, 0
4, 250587, Note_on_c, 9, 35, 34
4, 250655, Note_on_c, 9, 59, 38
4, 250703, Note_on_c, 9, 59, 0
4, 250773, Note_on_c, 9, 35, 0
4, 250899, Note_on_c, 9, 38, 43
4, 250929, Note_on_c, 9, 59, 95
4, 250943, Note_on_c, 9, 38, 0
4, 251031, Note_on_c, 9, 59, 0
4, 251091, Note_on_c, 9, 59, 74
4, 251102, Note_on_c, 9, 42, 74
4, 251234, Note_on_c, 9, 42, 0
4, 251402, Note_on_c, 9, 35, 32
4, 251452, Note_on_c, 9, 35, 0
4, 251517, Note_on_c, 9, 59, 0
4, 251832, Note_on_c, 9, 35, 80
4, 251869, Note_on_c, 9, 59, 56
4, 251914, Note_on_c, 9, 59, 0
4, 251941, Note_on_c, 9, 35, 0
4, 252020, Note_on_c, 9, 46, 70
4, 252023, Note_on_c, 9, 59, 81
4, 252150, Note_on_c, 9, 46, 0
4, 252514, Note_on_c, 9, 59, 0
4, 252814, Note_on_c, 9, 32, 60
4, 252829, Note_on_c, 9, 59, 56
4, 252853, Note_on_c, 9, 32, 0
4, 252869, Note_on_c, 9, 59, 0
4, 252950, Note_on_c, 9, 34, 74
4, 252987, Note_on_c, 9, 59, 77
4, 253287, Note_on_c, 9, 59, 0
4, 253422, Note_on_c, 9, 57, 108
4, 253426, Note_on_c, 9, 57, 64
4, 253430, Note_on_c, 9, 35, 92
4, 253442, Note_on_c, 9, 59, 82
4, 253446, Note_on_c, 9, 34, 0
4, 253464, Note_on_c, 9, 57, 0
4, 253772, Note_on_c, 9, 59, 0
4, 253934, Note_on_c, 9, 59, 83
4, 254255, Note_on_c, 9, 59, 0
4, 254336, Note_on_c, 9, 59, 61
4, 254374, Note_on_c, 9, 59, 0
4, 254461, Note_on_c, 9, 59, 71
4, 254887, Note_on_c, 9, 46, 50
4, 254968, Note_on_c, 9, 46, 0
4, 255089, Note_on_c, 9, 59, 0
4, 255109, Note_on_c, 9, 57, 0
4, 255242, Note_on_c, 9, 59, 56
4, 255283, Note_on_c, 9, 59, 0
4, 255381, Note_on_c, 9, 59, 74
4, 255686, Note_on_c, 9, 34, 32
4, 255762, Note_on_c, 9, 34, 0
4, 255762, Note_on_c, 9, 35, 0
4, 256111, Note_on_c, 9, 59, 0
4, 256225, Note_on_c, 9, 59, 45
4, 256272, Note_on_c, 9, 59, 0
4, 256379, Note_on_c, 9, 59, 65
4, 256630, Note_on_c, 9, 59, 0
4, 256679, Note_on_c, 9, 35, 38
4, 256732, Note_on_c, 9, 35, 0
4, 256835, Note_on_c, 9, 59, 84
4, 256849, Note_on_c, 9, 46, 59
4, 257002, Note_on_c, 9, 46, 0
4, 257097, Note_on_c, 9, 38, 60
4, 257145, Note_on_c, 9, 38, 0
4, 257395, Note_on_c, 9, 38, 53
4, 257523, Note_on_c, 9, 38, 0
4, 257557, Note_on_c, 9, 59, 0
4, 257661, Note_on_c, 9, 46, 36
4, 257677, Note_on_c, 9, 59, 45
4, 257703, Note_on_c, 9, 46, 0
4, 257723, Note_on_c, 9, 59, 0
4, 257753, Note_on_c, 9, 38, 51
4, 257803, Note_on_c, 9, 59, 76
4, 257814, Note_on_c, 9, 46, 56
4, 257832, Note_on_c, 9, 38, 0
4, 257950, Note_on_c, 9, 46, 0
4, 258079, Note_on_c, 9, 34, 48
4, 258107, Note_on_c, 9, 59, 0
4, 258205, Note_on_c, 9, 34, 0
4, 258242, Note_on_c, 9, 59, 81
4, 258277, Note_on_c, 9, 35, 44
4, 258333, Note_on_c, 9, 38, 24
4, 258374, Note_on_c, 9, 38, 0
4, 258451, Note_on_c, 9, 35, 0
4, 258522, Note_on_c, 9, 59, 0
4, 258567, Note_on_c, 9, 38, 34
4, 258613, Note_on_c, 9, 59, 48
4, 258615, Note_on_c, 9, 38, 0
4, 258616, Note_on_c, 9, 35, 24
4, 258658, Note_on_c, 9, 59, 0
4, 258682, Note_on_c, 9, 35, 0
4, 258731, Note_on_c, 9, 59, 76
4, 259076, Note_on_c, 9, 59, 0
4, 259213, Note_on_c, 9, 59, 74
4, 259494, Note_on_c, 9, 59, 0
4, 259561, Note_on_c, 9, 46, 54
4, 259616, Note_on_c, 9, 46, 0
4, 259717, Note_on_c, 9, 46, 59
4, 259721, Note_on_c, 9, 59, 54
4, 259763, Note_on_c, 9, 59, 0
4, 259923, Note_on_c, 9, 59, 85
4, 259939, Note_on_c, 9, 46, 0
4, 259999, Note_on_c, 9, 59, 0
4, 260260, Note_on_c, 9, 59, 88
4, 260522, Note_on_c, 9, 59, 0
4, 260543, Note_on_c, 9, 38, 60
4, 260667, Note_on_c, 9, 38, 0
4, 260719, Note_on_c, 9, 35, 32
4, 260900, Note_on_c, 9, 35, 0
4, 260951, Note_on_c, 9, 59, 80
4, 261016, Note_on_c, 9, 35, 34
4, 261065, Note_on_c, 9, 59, 0
4, 261084, Note_on_c, 9, 35, 0
4, 261234, Note_on_c, 9, 59, 75
4, 261521, Note_on_c, 9, 59, 0
4, 261662, Note_on_c, 9, 59, 60
4, 261669, Note_on_c, 9, 46, 79
4, 261733, Note_on_c, 9, 59, 0
4, 261751, Note_on_c, 9, 46, 0
4, 262126, Note_on_c, 9, 59, 83
4, 262155, Note_on_c, 9, 35, 31
4, 262272, Note_on_c, 9, 35, 0
4, 262373, Note_on_c, 9, 59, 0
4, 262899, Note_on_c, 9, 35, 43
4, 262924, Note_on_c, 9, 59, 87
4, 262947, Note_on_c, 9, 35, 0
4, 262994, Note_on_c, 9, 59, 0
4, 263086, Note_on_c, 9, 59, 68
4, 263204, Note_on_c, 9, 59, 0
4, 263549, Note_on_c, 9, 42, 56
4, 263637, Note_on_c, 9, 42, 0
4, 263829, Note_on_c, 9, 35, 49
4, 263860, Note_on_c, 9, 59, 45
4, 263874, Note_on_c, 9, 35, 0
4, 263906, Note_on_c, 9, 59, 0
4, 264009, Note_on_c, 9, 59, 68
4, 264030, Note_on_c, 9, 35, 26
4, 264161, Note_on_c, 9, 35, 0
4, 264240, Note_on_c, 9, 59, 0
4, 264301, Note_on_c, 9, 35, 38
4, 264354, Note_on_c, 9, 35, 0
4, 264492, Note_on_c, 9, 42, 59
4, 264596, Note_on_c, 9, 42, 0
4, 264833, Note_on_c, 9, 59, 52
4, 264878, Note_on_c, 9, 59, 0
4, 265003, Note_on_c, 9, 59, 60
4, 265217, Note_on_c, 9, 59, 0
4, 265280, Note_on_c, 9, 35, 26
4, 265321, Note_on_c, 9, 35, 0
4, 265437, Note_on_c, 9, 35, 26
4, 265643, Note_on_c, 9, 35, 0
4, 265773, Note_on_c, 9, 35, 43
4, 265780, Note_on_c, 9, 51, 61
4, 265833, Note_on_c, 9, 35, 0
4, 265843, Note_on_c, 9, 51, 0
4, 265956, Note_on_c, 9, 59, 67
4, 266165, Note_on_c, 9, 59, 0
4, 266419, Note_on_c, 9, 46, 69
4, 266420, Note_on_c, 9, 59, 76
4, 266537, Note_on_c, 9, 46, 0
4, 266561, Note_on_c, 9, 59, 0
4, 266900, Note_on_c, 9, 59, 78
4, 267099, Note_on_c, 9, 59, 0
4, 267362, Note_on_c, 9, 38, 26
4, 267402, Note_on_c, 9, 59, 73
4, 267463, Note_on_c, 9, 38, 0
4, 267636, Note_on_c, 9, 59, 0
4, 267671, Note_on_c, 9, 35, 57
4, 267739, Note_on_c, 9, 51, 50
4, 267762, Note_on_c, 9, 53, 37
4, 267776, Note_on_c, 9, 35, 0
4, 267804, Note_on_c, 9, 53, 0
4, 267847, Note_on_c, 9, 51, 0
4, 268165, Note_on_c, 9, 35, 43
4, 268197, Note_on_c, 9, 51, 60
4, 268203, Note_on_c, 9, 53, 66
4, 268228, Note_on_c, 9, 35, 0
4, 268294, Note_on_c, 9, 53, 0
4, 268333, Note_on_c, 9, 51, 0
4, 268343, Note_on_c, 9, 46, 40
4, 268476, Note_on_c, 9, 46, 0
4, 268661, Note_on_c, 9, 38, 40
4, 268672, Note_on_c, 9, 53, 72
4, 268672, Note_on_c, 9, 51, 57
4, 268707, Note_on_c, 9, 53, 0
4, 268708, Note_on_c, 9, 38, 0
4, 268747, Note_on_c, 9, 51, 0
4, 268832, Note_on_c, 9, 59, 70
4, 269103, Note_on_c, 9, 59, 0
4, 269301, Note_on_c, 9, 59, 74
4, 269302, Note_on_c, 9, 42, 68
4, 269440, Note_on_c, 9, 42, 0
4, 269481, Note_on_c, 9, 59, 0
4, 269600, Note_on_c, 9, 38, 59
4, 269638, Note_on_c, 9, 38, 0
4, 269812, Note_on_c, 9, 59, 77
4, 269963, Note_on_c, 9, 59, 0
4, 270109, Note_on_c, 9, 59, 47
4, 270154, Note_on_c, 9, 59, 0
4, 270228, Note_on_c, 9, 42, 62
4, 270253, Note_on_c, 9, 59, 53
4, 270322, Note_on_c, 9, 42, 0
4, 270346, Note_on_c, 9, 59, 0
4, 270573, Note_on_c, 9, 51, 60
4, 270590, Note_on_c, 9, 53, 58
4, 270628, Note_on_c, 9, 53, 0
4, 270660, Note_on_c, 9, 51, 0
4, 270741, Note_on_c, 9, 59, 56
4, 270890, Note_on_c, 9, 59, 0
4, 271066, Note_on_c, 9, 51, 60
4, 271075, Note_on_c, 9, 53, 57
4, 271113, Note_on_c, 9, 53, 0
4, 271150, Note_on_c, 9, 51, 0
4, 271169, Note_on_c, 9, 38, 56
4, 271207, Note_on_c, 9, 42, 58
4, 271211, Note_on_c, 9, 38, 0
4, 271237, Note_on_c, 9, 59, 66
4, 271285, Note_on_c, 9, 42, 0
4, 271435, Note_on_c, 9, 59, 0
4, 271532, Note_on_c, 9, 51, 51
4, 271535, Note_on_c, 9, 53, 59
4, 271573, Note_on_c, 9, 53, 0
4, 271618, Note_on_c, 9, 51, 0
4, 271695, Note_on_c, 9, 38, 79
4, 271722, Note_on_c, 9, 59, 48
4, 271722, Note_on_c, 9, 39, 31
4, 271765, Note_on_c, 9, 39, 0
4, 271820, Note_on_c, 9, 38, 0
4, 271868, Note_on_c, 9, 59, 0
4, 272005, Note_on_c, 9, 31, 55
4, 272037, Note_on_c, 9, 59, 53
4, 272089, Note_on_c, 9, 59, 0
4, 272134, Note_on_c, 9, 31, 0
4, 272213, Note_on_c, 9, 59, 46
4, 272216, Note_on_c, 9, 34, 30
4, 272265, Note_on_c, 9, 34, 0
4, 272278, Note_on_c, 9, 59, 0
4, 272479, Note_on_c, 9, 35, 87
4, 272498, Note_on_c, 9, 59, 72
4, 272504, Note_on_c, 9, 57, 62
4, 272607, Note_on_c, 9, 57, 84
4, 272972, Note_on_c, 9, 42, 64
4, 273101, Note_on_c, 9, 42, 0
4, 273551, Note_on_c, 9, 57, 0
4, 273568, Note_on_c, 9, 59, 0
4, 273632, Note_on_c, 9, 46, 40
4, 273664, Note_on_c, 9, 42, 64
4, 273715, Note_on_c, 9, 57, 0
4, 273716, Note_on_c, 9, 46, 0
4, 273773, Note_on_c, 9, 42, 0
4, 273880, Note_on_c, 9, 35, 0
4, 274083, Note_on_c, 9, 34, 42
4, 274199, Note_on_c, 9, 34, 0
4, 274568, Note_on_c, 9, 46, 49
4, 274587, Note_on_c, 9, 35, 58
4, 274605, Note_on_c, 9, 42, 56
4, 274686, Note_on_c, 9, 46, 0
4, 274698, Note_on_c, 9, 42, 0
4, 274754, Note_on_c, 9, 35, 0
4, 275332, Note_on_c, 9, 35, 65
4, 275355, Note_on_c, 9, 59, 63
4, 275357, Note_on_c, 9, 42, 62
4, 275392, Note_on_c, 9, 59, 0
4, 275436, Note_on_c, 9, 35, 0
4, 275460, Note_on_c, 9, 42, 0
4, 275968, Note_on_c, 9, 35, 68
4, 275980, Note_on_c, 9, 46, 48
4, 276042, Note_on_c, 9, 59, 76
4, 276112, Note_on_c, 9, 46, 0
4, 276726, Note_on_c, 9, 59, 0
4, 277596, Note_on_c, 9, 35, 0
4, 277596, End_track
0, 0, End_of_file
