0, 0, Header, 1, 5, 960
1, 0, Start_track
1, 0, Title_t, "untitled"
1, 0, Copyright_t, "Copyright © 2006 by "
1, 0, Text_t, "Doug McKenzie\012"
1, 0, Time_signature, 4, 2, 24, 8
1, 0, Key_signature, 0, "major"
1, 0, Tempo, 333333
1, 0, End_track
2, 0, Start_track
2, 0, Title_t, "MIDI 1"
2, 0, Program_c, 0, 0
2, 18736, Control_c, 0, 11, 127
2, 18736, Control_c, 0, 94, 0
2, 18736, Control_c, 0, 101, 0
2, 18737, Control_c, 0, 100, 1
2, 18738, Control_c, 0, 6, 64
2, 18739, Control_c, 0, 38, 0
2, 18739, Control_c, 0, 71, 43
2, 18739, Control_c, 0, 74, 46
2, 18739, Control_c, 0, 64, 127
2, 20656, Note_on_c, 0, 82, 107
2, 20656, Note_on_c, 0, 70, 107
2, 20686, Note_on_c, 0, 58, 92
2, 20876, Control_c, 0, 64, 0
2, 21556, Control_c, 0, 64, 127
2, 23316, Note_on_c, 0, 70, 0
2, 23386, Note_on_c, 0, 58, 0
2, 23386, Note_on_c, 0, 82, 0
2, 23716, Note_on_c, 0, 82, 32
2, 23856, Note_on_c, 0, 82, 0
2, 24266, Control_c, 0, 64, 0
2, 24266, Note_on_c, 0, 84, 102
2, 24276, Note_on_c, 0, 72, 99
2, 24276, Note_on_c, 0, 60, 94
2, 24426, Note_on_c, 0, 83, 30
2, 24476, Control_c, 0, 64, 127
2, 24546, Note_on_c, 0, 83, 0
2, 25076, Note_on_c, 0, 84, 0
2, 25126, Note_on_c, 0, 72, 0
2, 25666, Control_c, 0, 64, 0
2, 25676, Note_on_c, 0, 60, 0
2, 25726, Note_on_c, 0, 61, 85
2, 25756, Note_on_c, 0, 85, 102
2, 25756, Note_on_c, 0, 73, 98
2, 26306, Control_c, 0, 64, 127
2, 26956, Note_on_c, 0, 85, 0
2, 26996, Note_on_c, 0, 73, 0
2, 27536, Note_on_c, 0, 84, 84
2, 27546, Note_on_c, 0, 60, 73
2, 27556, Note_on_c, 0, 72, 80
2, 27586, Note_on_c, 0, 61, 0
2, 28066, Note_on_c, 0, 60, 0
2, 28096, Note_on_c, 0, 72, 0
2, 28286, Note_on_c, 0, 84, 0
2, 29556, Control_c, 0, 64, 88
2, 29566, Control_c, 0, 64, 0
2, 29606, Note_on_c, 0, 91, 98
2, 29616, Note_on_c, 0, 79, 89
2, 29616, Note_on_c, 0, 67, 75
2, 29716, Note_on_c, 0, 89, 40
2, 29846, Note_on_c, 0, 89, 0
2, 29986, Control_c, 0, 64, 127
2, 30406, Note_on_c, 0, 67, 0
2, 32346, Note_on_c, 0, 91, 0
2, 32456, Note_on_c, 0, 79, 0
2, 33036, Note_on_c, 0, 36, 88
2, 33046, Note_on_c, 0, 24, 96
2, 33156, Control_c, 0, 64, 0
2, 33676, Control_c, 0, 64, 127
2, 34536, Note_on_c, 0, 24, 0
2, 34766, Note_on_c, 0, 36, 0
2, 37206, Note_on_c, 0, 54, 66
2, 37506, Note_on_c, 0, 56, 63
2, 37726, Note_on_c, 0, 60, 66
2, 37776, Note_on_c, 0, 54, 0
2, 37796, Note_on_c, 0, 58, 36
2, 37856, Note_on_c, 0, 56, 0
2, 37946, Note_on_c, 0, 58, 0
2, 38006, Note_on_c, 0, 62, 73
2, 38026, Note_on_c, 0, 60, 0
2, 38306, Note_on_c, 0, 64, 56
2, 38406, Note_on_c, 0, 62, 0
2, 38536, Note_on_c, 0, 64, 0
2, 38566, Note_on_c, 0, 66, 56
2, 38666, Note_on_c, 0, 68, 59
2, 38896, Note_on_c, 0, 70, 49
2, 39076, Note_on_c, 0, 66, 0
2, 39086, Note_on_c, 0, 72, 45
2, 39136, Note_on_c, 0, 68, 0
2, 39146, Note_on_c, 0, 70, 0
2, 39306, Note_on_c, 0, 74, 63
2, 39436, Note_on_c, 0, 72, 0
2, 39556, Note_on_c, 0, 76, 54
2, 39726, Note_on_c, 0, 74, 0
2, 39896, Note_on_c, 0, 76, 0
2, 39896, Note_on_c, 0, 78, 54
2, 39986, Note_on_c, 0, 80, 57
2, 40186, Note_on_c, 0, 82, 66
2, 40426, Note_on_c, 0, 78, 0
2, 40426, Note_on_c, 0, 84, 56
2, 40496, Note_on_c, 0, 80, 0
2, 40506, Note_on_c, 0, 82, 0
2, 40696, Note_on_c, 0, 86, 62
2, 40836, Note_on_c, 0, 84, 0
2, 41016, Note_on_c, 0, 88, 57
2, 41176, Note_on_c, 0, 86, 0
2, 41316, Note_on_c, 0, 90, 61
2, 41326, Note_on_c, 0, 88, 0
2, 41766, Note_on_c, 0, 94, 60
2, 41796, Note_on_c, 0, 91, 43
2, 42076, Note_on_c, 0, 91, 0
2, 42366, Note_on_c, 0, 96, 122
2, 43206, Note_on_c, 0, 94, 0
2, 43226, Note_on_c, 0, 90, 0
2, 44216, Note_on_c, 0, 96, 0
2, 46676, Note_on_c, 0, 63, 86
2, 47396, Note_on_c, 0, 63, 0
2, 47576, Note_on_c, 0, 62, 64
2, 47876, Note_on_c, 0, 61, 61
2, 47906, Note_on_c, 0, 62, 0
2, 48176, Note_on_c, 0, 60, 58
2, 48356, Note_on_c, 0, 61, 0
2, 48466, Note_on_c, 0, 60, 0
2, 48486, Note_on_c, 0, 59, 57
2, 48736, Note_on_c, 0, 59, 0
2, 48806, Note_on_c, 0, 58, 50
2, 49066, Note_on_c, 0, 58, 0
2, 49146, Note_on_c, 0, 57, 55
2, 49426, Note_on_c, 0, 57, 0
2, 49476, Note_on_c, 0, 55, 64
2, 49766, Note_on_c, 0, 55, 0
2, 49856, Note_on_c, 0, 51, 48
2, 49896, Note_on_c, 0, 56, 71
2, 49896, Note_on_c, 0, 41, 50
2, 49946, Control_c, 0, 64, 0
2, 50936, Control_c, 0, 64, 127
2, 51876, Note_on_c, 0, 51, 0
2, 51876, Note_on_c, 0, 48, 53
2, 52016, Note_on_c, 0, 56, 0
2, 53716, Note_on_c, 0, 56, 56
2, 53766, Note_on_c, 0, 60, 58
2, 53836, Note_on_c, 0, 51, 39
2, 53926, Note_on_c, 0, 41, 0
2, 54066, Note_on_c, 0, 56, 0
2, 54226, Note_on_c, 0, 60, 0
2, 54346, Note_on_c, 0, 48, 0
2, 54546, Note_on_c, 0, 51, 0
2, 55816, Note_on_c, 0, 74, 107
2, 55836, Note_on_c, 0, 62, 99
2, 55836, Note_on_c, 0, 50, 88
2, 55866, Control_c, 0, 64, 0
2, 56246, Control_c, 0, 64, 24
2, 56256, Control_c, 0, 64, 127
2, 56926, Note_on_c, 0, 74, 0
2, 56946, Note_on_c, 0, 62, 0
2, 57526, Note_on_c, 0, 50, 0
2, 57566, Note_on_c, 0, 75, 90
2, 57576, Control_c, 0, 64, 0
2, 57576, Note_on_c, 0, 51, 82
2, 57586, Note_on_c, 0, 63, 86
2, 58166, Control_c, 0, 64, 127
2, 59306, Note_on_c, 0, 63, 0
2, 59326, Note_on_c, 0, 75, 0
2, 60346, Note_on_c, 0, 51, 0
2, 60446, Note_on_c, 0, 50, 63
2, 60486, Note_on_c, 0, 74, 79
2, 60516, Note_on_c, 0, 62, 65
2, 61996, Note_on_c, 0, 62, 0
2, 62006, Note_on_c, 0, 74, 0
2, 62006, Note_on_c, 0, 50, 0
2, 69376, Note_on_c, 0, 65, 72
2, 69396, Note_on_c, 0, 66, 57
2, 69396, Note_on_c, 0, 60, 67
2, 69396, Note_on_c, 0, 69, 69
2, 69606, Control_c, 0, 64, 0
2, 70156, Control_c, 0, 64, 127
2, 71986, Note_on_c, 0, 60, 0
2, 72346, Note_on_c, 0, 65, 0
2, 72746, Note_on_c, 0, 69, 0
2, 72786, Note_on_c, 0, 60, 64
2, 72926, Note_on_c, 0, 66, 0
2, 73096, Note_on_c, 0, 60, 0
2, 73246, Note_on_c, 0, 65, 58
2, 73696, Note_on_c, 0, 69, 63
2, 73706, Note_on_c, 0, 65, 0
2, 73936, Note_on_c, 0, 69, 0
2, 74056, Note_on_c, 0, 78, 75
2, 74276, Note_on_c, 0, 78, 0
2, 74466, Note_on_c, 0, 72, 47
2, 74696, Note_on_c, 0, 72, 0
2, 74766, Note_on_c, 0, 77, 58
2, 75086, Note_on_c, 0, 77, 0
2, 75086, Note_on_c, 0, 81, 75
2, 75286, Note_on_c, 0, 81, 0
2, 75456, Note_on_c, 0, 90, 82
2, 75626, Note_on_c, 0, 90, 0
2, 75766, Note_on_c, 0, 84, 56
2, 75906, Note_on_c, 0, 90, 54
2, 76006, Note_on_c, 0, 90, 0
2, 76056, Note_on_c, 0, 84, 0
2, 76086, Note_on_c, 0, 89, 55
2, 76416, Note_on_c, 0, 89, 0
2, 76416, Note_on_c, 0, 93, 70
2, 76626, Note_on_c, 0, 93, 0
2, 76856, Note_on_c, 0, 99, 55
2, 76946, Note_on_c, 0, 99, 0
2, 77156, Note_on_c, 0, 96, 37
2, 77346, Note_on_c, 0, 101, 60
2, 77696, Note_on_c, 0, 105, 73
2, 78866, Note_on_c, 0, 101, 0
2, 78926, Note_on_c, 0, 105, 0
2, 79116, Note_on_c, 0, 96, 0
2, 82486, Control_c, 0, 64, 0
2, 82516, Note_on_c, 0, 39, 52
2, 82546, Note_on_c, 0, 58, 55
2, 82596, Note_on_c, 0, 46, 42
2, 82916, Control_c, 0, 64, 127
2, 83156, Note_on_c, 0, 39, 0
2, 83216, Note_on_c, 0, 58, 0
2, 84376, Note_on_c, 0, 70, 88
2, 84416, Note_on_c, 0, 65, 77
2, 84436, Note_on_c, 0, 55, 60
2, 84926, Note_on_c, 0, 55, 0
2, 84936, Note_on_c, 0, 46, 0
2, 84946, Note_on_c, 0, 70, 0
2, 85336, Note_on_c, 0, 65, 0
2, 85806, Control_c, 0, 64, 0
2, 85866, Note_on_c, 0, 70, 84
2, 85876, Note_on_c, 0, 61, 84
2, 85896, Note_on_c, 0, 45, 60
2, 85896, Note_on_c, 0, 66, 71
2, 85946, Note_on_c, 0, 55, 52
2, 86396, Control_c, 0, 64, 127
2, 86426, Note_on_c, 0, 70, 0
2, 86696, Note_on_c, 0, 70, 69
2, 86706, Note_on_c, 0, 61, 0
2, 86746, Note_on_c, 0, 66, 0
2, 86796, Note_on_c, 0, 55, 0
2, 86796, Note_on_c, 0, 45, 0
2, 87206, Note_on_c, 0, 70, 0
2, 87656, Control_c, 0, 64, 0
2, 87676, Note_on_c, 0, 70, 66
2, 87676, Note_on_c, 0, 44, 58
2, 87726, Note_on_c, 0, 55, 47
2, 87746, Note_on_c, 0, 60, 63
2, 87746, Note_on_c, 0, 63, 56
2, 87776, Note_on_c, 0, 67, 57
2, 88216, Control_c, 0, 64, 127
2, 88386, Note_on_c, 0, 67, 0
2, 88446, Note_on_c, 0, 70, 0
2, 88586, Note_on_c, 0, 60, 0
2, 88686, Note_on_c, 0, 69, 74
2, 88806, Note_on_c, 0, 55, 0
2, 89106, Note_on_c, 0, 63, 0
2, 89346, Note_on_c, 0, 69, 0
2, 89796, Note_on_c, 0, 54, 49
2, 89826, Note_on_c, 0, 68, 61
2, 89826, Control_c, 0, 64, 0
2, 89876, Note_on_c, 0, 63, 46
2, 89946, Note_on_c, 0, 60, 24
2, 90156, Control_c, 0, 64, 127
2, 90906, Note_on_c, 0, 63, 0
2, 91246, Note_on_c, 0, 68, 0
2, 91456, Note_on_c, 0, 63, 66
2, 91686, Note_on_c, 0, 60, 0
2, 92226, Note_on_c, 0, 54, 0
2, 92946, Note_on_c, 0, 44, 0
2, 93726, Note_on_c, 0, 63, 0
2, 94786, Control_c, 0, 64, 0
2, 94816, Note_on_c, 0, 67, 64
2, 94866, Note_on_c, 0, 64, 66
2, 94886, Note_on_c, 0, 60, 67
2, 94906, Note_on_c, 0, 53, 46
2, 94926, Note_on_c, 0, 57, 52
2, 94936, Note_on_c, 0, 55, 44
2, 95286, Control_c, 0, 64, 127
2, 95756, Note_on_c, 0, 67, 0
2, 96426, Note_on_c, 0, 57, 0
2, 96436, Note_on_c, 0, 55, 0
2, 96486, Note_on_c, 0, 53, 0
2, 96546, Note_on_c, 0, 67, 66
2, 97006, Note_on_c, 0, 60, 0
2, 97026, Note_on_c, 0, 64, 0
2, 97586, Note_on_c, 0, 67, 0
2, 97896, Note_on_c, 0, 59, 56
2, 97906, Note_on_c, 0, 63, 60
2, 97936, Note_on_c, 0, 67, 49
2, 97936, Control_c, 0, 64, 0
2, 97986, Note_on_c, 0, 43, 52
2, 97996, Note_on_c, 0, 53, 50
2, 98196, Note_on_c, 0, 64, 49
2, 98236, Note_on_c, 0, 63, 0
2, 98696, Control_c, 0, 64, 127
2, 99086, Note_on_c, 0, 63, 66
2, 99166, Note_on_c, 0, 64, 0
2, 99996, Note_on_c, 0, 63, 0
2, 100066, Note_on_c, 0, 59, 0
2, 100266, Note_on_c, 0, 62, 61
2, 100316, Note_on_c, 0, 59, 24
2, 101536, Note_on_c, 0, 53, 0
2, 101646, Note_on_c, 0, 62, 0
2, 101726, Note_on_c, 0, 59, 0
2, 101896, Note_on_c, 0, 67, 0
2, 102116, Note_on_c, 0, 62, 66
2, 102526, Note_on_c, 0, 62, 0
2, 103486, Note_on_c, 0, 61, 75
2, 103496, Control_c, 0, 64, 0
2, 103506, Note_on_c, 0, 58, 74
2, 103526, Note_on_c, 0, 53, 63
2, 103786, Control_c, 0, 64, 127
2, 103956, Note_on_c, 0, 43, 0
2, 104426, Note_on_c, 0, 53, 0
2, 104656, Control_c, 0, 64, 0
2, 104656, Note_on_c, 0, 55, 78
2, 104856, Control_c, 0, 64, 127
2, 105356, Note_on_c, 0, 58, 0
2, 105426, Note_on_c, 0, 55, 0
2, 105776, Note_on_c, 0, 61, 0
2, 106046, Note_on_c, 0, 61, 54
2, 106056, Control_c, 0, 64, 0
2, 106096, Note_on_c, 0, 64, 63
2, 106106, Note_on_c, 0, 58, 64
2, 106146, Note_on_c, 0, 48, 57
2, 106516, Control_c, 0, 64, 127
2, 106866, Note_on_c, 0, 64, 0
2, 106876, Note_on_c, 0, 61, 0
2, 107316, Note_on_c, 0, 58, 0
2, 107816, Note_on_c, 0, 73, 67
2, 107896, Note_on_c, 0, 68, 57
2, 107906, Note_on_c, 0, 64, 45
2, 107946, Note_on_c, 0, 58, 48
2, 108256, Note_on_c, 0, 48, 0
2, 108616, Note_on_c, 0, 58, 0
2, 108626, Note_on_c, 0, 64, 0
2, 108736, Note_on_c, 0, 73, 0
2, 108906, Note_on_c, 0, 68, 0
2, 111136, Note_on_c, 0, 53, 19
2, 111136, Note_on_c, 0, 63, 52
2, 111156, Control_c, 0, 64, 72
2, 111166, Control_c, 0, 64, 0
2, 111176, Note_on_c, 0, 70, 52
2, 111186, Note_on_c, 0, 67, 53
2, 111216, Note_on_c, 0, 58, 44
2, 111236, Note_on_c, 0, 56, 39
2, 111236, Note_on_c, 0, 60, 43
2, 111556, Control_c, 0, 64, 127
2, 111606, Note_on_c, 0, 60, 0
2, 111706, Note_on_c, 0, 58, 0
2, 111746, Note_on_c, 0, 56, 0
2, 111756, Note_on_c, 0, 53, 0
2, 112066, Note_on_c, 0, 67, 0
2, 112496, Note_on_c, 0, 70, 0
2, 112596, Note_on_c, 0, 41, 63
2, 112616, Note_on_c, 0, 63, 0
2, 112936, Note_on_c, 0, 41, 0
2, 114106, Note_on_c, 0, 60, 59
2, 114126, Note_on_c, 0, 56, 47
2, 114176, Note_on_c, 0, 55, 49
2, 114486, Note_on_c, 0, 56, 0
2, 114706, Note_on_c, 0, 60, 0
2, 115466, Note_on_c, 0, 55, 0
2, 115566, Note_on_c, 0, 67, 68
2, 115576, Note_on_c, 0, 56, 68
2, 115596, Note_on_c, 0, 60, 69
2, 115616, Note_on_c, 0, 63, 57
2, 115646, Note_on_c, 0, 53, 54
2, 115816, Note_on_c, 0, 53, 0
2, 115996, Note_on_c, 0, 56, 0
2, 116056, Note_on_c, 0, 60, 0
2, 116286, Note_on_c, 0, 63, 0
2, 116636, Note_on_c, 0, 67, 0
2, 117726, Note_on_c, 0, 67, 72
2, 117726, Note_on_c, 0, 58, 71
2, 117746, Note_on_c, 0, 63, 67
2, 117816, Note_on_c, 0, 37, 56
2, 117856, Control_c, 0, 64, 88
2, 117866, Control_c, 0, 64, 0
2, 118296, Control_c, 0, 64, 127
2, 118366, Note_on_c, 0, 67, 0
2, 118616, Note_on_c, 0, 58, 0
2, 118836, Note_on_c, 0, 63, 0
2, 119086, Note_on_c, 0, 68, 64
2, 119086, Note_on_c, 0, 44, 61
2, 119116, Note_on_c, 0, 37, 0
2, 119116, Note_on_c, 0, 64, 60
2, 119116, Note_on_c, 0, 59, 59
2, 119486, Note_on_c, 0, 64, 0
2, 119496, Note_on_c, 0, 68, 0
2, 119546, Note_on_c, 0, 44, 0
2, 119576, Note_on_c, 0, 59, 0
2, 119686, Note_on_c, 0, 44, 22
2, 120426, Control_c, 0, 64, 0
2, 120436, Note_on_c, 0, 63, 57
2, 120436, Note_on_c, 0, 54, 57
2, 120446, Note_on_c, 0, 59, 63
2, 120486, Note_on_c, 0, 53, 54
2, 120736, Control_c, 0, 64, 127
2, 121036, Note_on_c, 0, 59, 0
2, 121046, Note_on_c, 0, 54, 0
2, 121216, Note_on_c, 0, 63, 0
2, 121336, Note_on_c, 0, 44, 0
2, 121876, Note_on_c, 0, 53, 0
2, 122286, Note_on_c, 0, 56, 64
2, 122306, Note_on_c, 0, 44, 63
2, 122316, Note_on_c, 0, 65, 57
2, 122366, Note_on_c, 0, 62, 60
2, 122856, Note_on_c, 0, 62, 0
2, 122856, Note_on_c, 0, 65, 0
2, 122886, Note_on_c, 0, 56, 0
2, 123296, Note_on_c, 0, 44, 0
2, 124326, Control_c, 0, 64, 0
2, 124446, Note_on_c, 0, 50, 59
2, 124446, Note_on_c, 0, 62, 66
2, 124446, Note_on_c, 0, 39, 56
2, 124446, Note_on_c, 0, 67, 62
2, 124446, Note_on_c, 0, 55, 64
2, 124946, Control_c, 0, 64, 127
2, 125416, Note_on_c, 0, 50, 0
2, 125626, Note_on_c, 0, 55, 0
2, 125746, Note_on_c, 0, 46, 61
2, 125766, Note_on_c, 0, 58, 72
2, 125896, Control_c, 0, 64, 0
2, 126196, Control_c, 0, 64, 127
2, 126246, Note_on_c, 0, 67, 0
2, 126336, Note_on_c, 0, 62, 0
2, 126536, Note_on_c, 0, 46, 0
2, 126656, Note_on_c, 0, 47, 62
2, 126666, Note_on_c, 0, 58, 0
2, 126686, Note_on_c, 0, 59, 66
2, 127356, Note_on_c, 0, 59, 0
2, 127476, Note_on_c, 0, 47, 0
2, 127586, Note_on_c, 0, 50, 68
2, 127646, Note_on_c, 0, 62, 83
2, 128276, Note_on_c, 0, 50, 0
2, 128516, Note_on_c, 0, 62, 0
2, 128786, Note_on_c, 0, 62, 78
2, 128796, Note_on_c, 0, 50, 55
2, 129086, Note_on_c, 0, 50, 0
2, 129736, Note_on_c, 0, 49, 54
2, 129776, Note_on_c, 0, 61, 71
2, 129936, Note_on_c, 0, 62, 0
2, 130126, Note_on_c, 0, 39, 0
2, 130436, Note_on_c, 0, 61, 0
2, 130526, Note_on_c, 0, 49, 0
2, 130876, Control_c, 0, 64, 0
2, 130906, Note_on_c, 0, 60, 68
2, 130946, Note_on_c, 0, 56, 57
2, 130946, Note_on_c, 0, 41, 52
2, 130966, Note_on_c, 0, 53, 47
2, 130966, Note_on_c, 0, 51, 48
2, 131386, Control_c, 0, 64, 127
2, 132036, Note_on_c, 0, 53, 0
2, 132076, Note_on_c, 0, 48, 60
2, 132126, Note_on_c, 0, 41, 0
2, 132436, Note_on_c, 0, 56, 0
2, 132506, Note_on_c, 0, 60, 0
2, 132536, Note_on_c, 0, 51, 0
2, 133276, Note_on_c, 0, 48, 0
2, 136296, Note_on_c, 0, 58, 68
2, 136316, Control_c, 0, 64, 0
2, 136346, Note_on_c, 0, 53, 48
2, 136366, Note_on_c, 0, 55, 55
2, 136376, Note_on_c, 0, 43, 60
2, 136666, Note_on_c, 0, 55, 0
2, 136706, Note_on_c, 0, 53, 0
2, 136756, Control_c, 0, 64, 127
2, 136906, Note_on_c, 0, 58, 0
2, 137466, Note_on_c, 0, 43, 0
2, 137546, Note_on_c, 0, 58, 66
2, 137546, Note_on_c, 0, 50, 68
2, 137566, Note_on_c, 0, 62, 75
2, 138046, Note_on_c, 0, 58, 0
2, 138176, Note_on_c, 0, 62, 0
2, 138686, Note_on_c, 0, 50, 0
2, 138726, Note_on_c, 0, 57, 67
2, 138726, Note_on_c, 0, 62, 75
2, 138726, Note_on_c, 0, 69, 81
2, 138746, Note_on_c, 0, 58, 68
2, 139626, Note_on_c, 0, 69, 0
2, 139806, Note_on_c, 0, 58, 0
2, 139896, Note_on_c, 0, 67, 71
2, 139906, Note_on_c, 0, 62, 0
2, 139926, Note_on_c, 0, 55, 71
2, 140016, Note_on_c, 0, 57, 0
2, 140286, Note_on_c, 0, 55, 0
2, 140316, Note_on_c, 0, 67, 0
2, 141106, Control_c, 0, 64, 0
2, 141186, Note_on_c, 0, 71, 68
2, 141226, Note_on_c, 0, 66, 68
2, 141226, Note_on_c, 0, 56, 71
2, 141266, Note_on_c, 0, 60, 60
2, 141286, Note_on_c, 0, 64, 35
2, 141356, Note_on_c, 0, 65, 34
2, 141456, Note_on_c, 0, 64, 0
2, 141466, Control_c, 0, 64, 127
2, 141496, Note_on_c, 0, 65, 0
2, 141516, Note_on_c, 0, 66, 0
2, 141586, Note_on_c, 0, 71, 0
2, 142436, Note_on_c, 0, 75, 81
2, 142586, Note_on_c, 0, 56, 0
2, 142626, Note_on_c, 0, 60, 0
2, 142876, Note_on_c, 0, 75, 0
2, 143816, Control_c, 0, 64, 0
2, 143816, Note_on_c, 0, 75, 56
2, 143836, Note_on_c, 0, 79, 67
2, 143866, Note_on_c, 0, 71, 57
2, 143876, Note_on_c, 0, 63, 54
2, 143886, Note_on_c, 0, 59, 52
2, 143896, Note_on_c, 0, 67, 49
2, 143916, Note_on_c, 0, 53, 48
2, 144216, Control_c, 0, 64, 56
2, 144236, Control_c, 0, 64, 127
2, 145316, Note_on_c, 0, 79, 0
2, 145366, Note_on_c, 0, 67, 0
2, 145376, Note_on_c, 0, 63, 0
2, 145396, Note_on_c, 0, 71, 0
2, 145436, Note_on_c, 0, 59, 0
2, 145456, Note_on_c, 0, 77, 64
2, 145476, Note_on_c, 0, 53, 0
2, 145626, Note_on_c, 0, 75, 0
2, 146396, Note_on_c, 0, 77, 0
2, 146796, Control_c, 0, 64, 0
2, 146826, Note_on_c, 0, 48, 54
2, 146826, Note_on_c, 0, 75, 60
2, 147226, Control_c, 0, 64, 127
2, 147836, Note_on_c, 0, 48, 0
2, 147886, Note_on_c, 0, 75, 0
2, 147976, Note_on_c, 0, 55, 57
2, 149196, Note_on_c, 0, 63, 54
2, 149246, Note_on_c, 0, 67, 49
2, 149266, Note_on_c, 0, 62, 54
2, 149596, Note_on_c, 0, 55, 0
2, 149796, Note_on_c, 0, 63, 0
2, 151696, Note_on_c, 0, 74, 81
2, 151786, Note_on_c, 0, 67, 0
2, 152716, Note_on_c, 0, 74, 0
2, 153176, Note_on_c, 0, 62, 0
2, 153196, Note_on_c, 0, 74, 61
2, 153206, Control_c, 0, 64, 0
2, 153226, Note_on_c, 0, 67, 58
2, 153226, Note_on_c, 0, 59, 48
2, 153656, Control_c, 0, 64, 127
2, 154346, Note_on_c, 0, 74, 0
2, 154376, Note_on_c, 0, 62, 56
2, 154556, Note_on_c, 0, 67, 0
2, 155036, Note_on_c, 0, 62, 0
2, 155306, Note_on_c, 0, 67, 52
2, 156226, Note_on_c, 0, 74, 63
2, 156406, Note_on_c, 0, 59, 0
2, 156536, Note_on_c, 0, 74, 0
2, 156576, Note_on_c, 0, 67, 0
2, 157296, Control_c, 0, 64, 0
2, 157346, Note_on_c, 0, 74, 71
2, 157386, Note_on_c, 0, 63, 52
2, 157396, Note_on_c, 0, 67, 52
2, 157396, Note_on_c, 0, 58, 47
2, 157416, Note_on_c, 0, 62, 46
2, 157696, Control_c, 0, 64, 127
2, 158006, Note_on_c, 0, 74, 0
2, 158416, Note_on_c, 0, 63, 0
2, 158466, Note_on_c, 0, 75, 71
2, 158796, Note_on_c, 0, 67, 0
2, 158906, Note_on_c, 0, 63, 1
2, 159256, Note_on_c, 0, 63, 0
2, 159396, Note_on_c, 0, 75, 0
2, 159616, Note_on_c, 0, 67, 54
2, 159866, Note_on_c, 0, 62, 0
2, 160646, Note_on_c, 0, 67, 0
2, 160816, Note_on_c, 0, 69, 66
2, 160876, Note_on_c, 0, 58, 0
2, 161356, Note_on_c, 0, 69, 0
2, 162156, Control_c, 0, 64, 0
2, 162216, Note_on_c, 0, 63, 52
2, 162226, Note_on_c, 0, 70, 57
2, 162266, Note_on_c, 0, 51, 48
2, 162296, Note_on_c, 0, 57, 37
2, 162506, Control_c, 0, 64, 127
2, 163056, Note_on_c, 0, 57, 0
2, 163176, Note_on_c, 0, 70, 0
2, 163286, Note_on_c, 0, 51, 0
2, 163526, Note_on_c, 0, 72, 57
2, 163616, Note_on_c, 0, 70, 42
2, 163886, Note_on_c, 0, 72, 0
2, 163936, Note_on_c, 0, 63, 0
2, 164336, Note_on_c, 0, 70, 0
2, 165156, Note_on_c, 0, 72, 50
2, 165156, Note_on_c, 0, 66, 48
2, 165166, Control_c, 0, 64, 0
2, 165166, Note_on_c, 0, 60, 46
2, 165206, Note_on_c, 0, 51, 42
2, 165256, Note_on_c, 0, 69, 46
2, 165286, Note_on_c, 0, 41, 43
2, 165836, Control_c, 0, 64, 127
2, 166446, Note_on_c, 0, 72, 0
2, 166516, Note_on_c, 0, 60, 0
2, 166706, Note_on_c, 0, 69, 0
2, 167046, Note_on_c, 0, 66, 0
2, 167396, Note_on_c, 0, 74, 72
2, 167446, Note_on_c, 0, 62, 49
2, 167546, Note_on_c, 0, 41, 0
2, 168286, Note_on_c, 0, 51, 0
2, 169316, Note_on_c, 0, 62, 0
2, 169696, Note_on_c, 0, 74, 0
2, 171546, Control_c, 0, 64, 0
2, 171556, Note_on_c, 0, 75, 63
2, 171556, Note_on_c, 0, 66, 52
2, 171556, Note_on_c, 0, 61, 45
2, 171596, Note_on_c, 0, 71, 57
2, 171906, Control_c, 0, 64, 127
2, 172116, Note_on_c, 0, 71, 0
2, 172526, Note_on_c, 0, 66, 0
2, 172576, Note_on_c, 0, 71, 57
2, 172606, Note_on_c, 0, 75, 0
2, 172736, Note_on_c, 0, 71, 0
2, 173546, Note_on_c, 0, 63, 54
2, 173556, Note_on_c, 0, 77, 63
2, 173586, Note_on_c, 0, 73, 51
2, 173596, Note_on_c, 0, 68, 45
2, 173606, Control_c, 0, 64, 0
2, 173716, Note_on_c, 0, 61, 0
2, 173926, Control_c, 0, 64, 127
2, 174126, Note_on_c, 0, 73, 0
2, 174416, Note_on_c, 0, 77, 0
2, 174426, Note_on_c, 0, 68, 0
2, 174466, Note_on_c, 0, 73, 48
2, 174856, Note_on_c, 0, 73, 0
2, 175516, Note_on_c, 0, 69, 61
2, 175546, Note_on_c, 0, 78, 57
2, 175546, Note_on_c, 0, 64, 49
2, 175546, Note_on_c, 0, 74, 57
2, 175576, Control_c, 0, 64, 0
2, 175596, Note_on_c, 0, 63, 0
2, 175916, Control_c, 0, 64, 127
2, 175956, Note_on_c, 0, 74, 0
2, 176526, Note_on_c, 0, 78, 0
2, 176566, Note_on_c, 0, 69, 0
2, 176576, Note_on_c, 0, 74, 58
2, 176706, Note_on_c, 0, 74, 0
2, 177836, Note_on_c, 0, 80, 57
2, 177876, Note_on_c, 0, 66, 50
2, 177896, Control_c, 0, 64, 0
2, 177896, Note_on_c, 0, 76, 62
2, 177896, Note_on_c, 0, 71, 42
2, 177956, Note_on_c, 0, 64, 0
2, 178346, Control_c, 0, 64, 127
2, 179696, Note_on_c, 0, 66, 0
2, 180136, Note_on_c, 0, 71, 0
2, 180146, Note_on_c, 0, 76, 0
2, 180406, Note_on_c, 0, 80, 0
2, 180756, Note_on_c, 0, 81, 61
2, 180796, Note_on_c, 0, 69, 54
2, 181126, Note_on_c, 0, 69, 0
2, 181156, Note_on_c, 0, 81, 0
2, 181836, Control_c, 0, 64, 72
2, 181846, Control_c, 0, 64, 0
2, 181866, Note_on_c, 0, 82, 60
2, 181986, Note_on_c, 0, 70, 31
2, 182006, Note_on_c, 0, 39, 44
2, 182026, Note_on_c, 0, 74, 36
2, 182156, Control_c, 0, 64, 127
2, 182376, Note_on_c, 0, 74, 0
2, 182476, Note_on_c, 0, 70, 0
2, 182706, Note_on_c, 0, 39, 0
2, 182816, Note_on_c, 0, 82, 0
2, 182816, Note_on_c, 0, 46, 48
2, 183536, Note_on_c, 0, 46, 0
2, 183706, Note_on_c, 0, 55, 54
2, 184576, Note_on_c, 0, 58, 58
2, 184656, Note_on_c, 0, 55, 0
2, 185536, Note_on_c, 0, 89, 73
2, 185556, Note_on_c, 0, 82, 58
2, 185596, Note_on_c, 0, 77, 46
2, 185616, Note_on_c, 0, 62, 50
2, 186446, Note_on_c, 0, 89, 0
2, 186666, Note_on_c, 0, 77, 0
2, 186676, Note_on_c, 0, 82, 0
2, 186726, Note_on_c, 0, 62, 0
2, 186746, Note_on_c, 0, 67, 49
2, 188196, Note_on_c, 0, 86, 53
2, 188256, Note_on_c, 0, 62, 38
2, 188256, Note_on_c, 0, 74, 38
2, 188316, Note_on_c, 0, 79, 28
2, 189326, Note_on_c, 0, 58, 0
2, 189516, Note_on_c, 0, 67, 0
2, 189776, Note_on_c, 0, 62, 0
2, 190386, Note_on_c, 0, 79, 0
2, 190416, Note_on_c, 0, 74, 0
2, 190976, Note_on_c, 0, 86, 0
2, 191756, Note_on_c, 0, 85, 83
2, 192486, Note_on_c, 0, 85, 0
2, 192676, Note_on_c, 0, 84, 54
2, 193006, Note_on_c, 0, 83, 62
2, 193116, Note_on_c, 0, 84, 0
2, 193376, Note_on_c, 0, 83, 0
2, 193476, Note_on_c, 0, 81, 50
2, 193776, Note_on_c, 0, 81, 0
2, 193916, Control_c, 0, 64, 0
2, 193976, Note_on_c, 0, 82, 67
2, 194106, Note_on_c, 0, 43, 43
2, 194266, Control_c, 0, 64, 127
2, 194956, Note_on_c, 0, 82, 0
2, 195216, Note_on_c, 0, 43, 0
2, 195246, Note_on_c, 0, 53, 55
2, 196366, Note_on_c, 0, 53, 0
2, 196406, Note_on_c, 0, 61, 50
2, 196426, Note_on_c, 0, 58, 50
2, 196466, Note_on_c, 0, 65, 55
2, 197016, Note_on_c, 0, 61, 0
2, 197336, Note_on_c, 0, 65, 0
2, 197406, Note_on_c, 0, 70, 73
2, 197436, Note_on_c, 0, 58, 0
2, 197476, Note_on_c, 0, 60, 49
2, 198206, Note_on_c, 0, 60, 0
2, 198316, Note_on_c, 0, 70, 0
2, 198496, Note_on_c, 0, 73, 63
2, 198526, Note_on_c, 0, 64, 56
2, 198546, Note_on_c, 0, 68, 57
2, 198546, Control_c, 0, 64, 0
2, 198556, Note_on_c, 0, 70, 57
2, 198586, Note_on_c, 0, 61, 57
2, 198896, Control_c, 0, 64, 127
2, 199266, Note_on_c, 0, 73, 0
2, 199466, Note_on_c, 0, 64, 0
2, 199566, Note_on_c, 0, 63, 63
2, 199586, Note_on_c, 0, 61, 0
2, 199586, Note_on_c, 0, 75, 83
2, 199706, Note_on_c, 0, 63, 0
2, 199886, Note_on_c, 0, 75, 0
2, 199896, Note_on_c, 0, 70, 0
2, 199996, Note_on_c, 0, 68, 0
2, 200806, Control_c, 0, 64, 0
2, 200826, Note_on_c, 0, 72, 66
2, 200826, Note_on_c, 0, 67, 62
2, 200856, Note_on_c, 0, 58, 46
2, 200876, Note_on_c, 0, 48, 44
2, 200876, Note_on_c, 0, 64, 57
2, 201346, Control_c, 0, 64, 127
2, 201766, Note_on_c, 0, 67, 0
2, 202176, Note_on_c, 0, 70, 77
2, 202266, Note_on_c, 0, 72, 0
2, 202326, Note_on_c, 0, 48, 0
2, 202556, Note_on_c, 0, 64, 0
2, 202666, Note_on_c, 0, 58, 0
2, 202966, Note_on_c, 0, 70, 0
2, 203656, Note_on_c, 0, 68, 81
2, 203656, Note_on_c, 0, 70, 72
2, 203666, Note_on_c, 0, 56, 39
2, 203666, Note_on_c, 0, 63, 52
2, 203686, Control_c, 0, 64, 0
2, 203786, Note_on_c, 0, 60, 31
2, 203806, Note_on_c, 0, 53, 31
2, 203976, Note_on_c, 0, 60, 0
2, 204066, Control_c, 0, 64, 127
2, 204516, Note_on_c, 0, 70, 0
2, 204526, Note_on_c, 0, 68, 0
2, 205136, Note_on_c, 0, 63, 0
2, 205416, Note_on_c, 0, 68, 86
2, 205476, Note_on_c, 0, 65, 71
2, 206086, Note_on_c, 0, 65, 0
2, 206196, Note_on_c, 0, 68, 0
2, 206566, Note_on_c, 0, 63, 53
2, 206566, Note_on_c, 0, 68, 82
2, 206586, Note_on_c, 0, 65, 75
2, 206646, Note_on_c, 0, 60, 48
2, 206716, Note_on_c, 0, 63, 0
2, 206876, Note_on_c, 0, 65, 0
2, 206906, Note_on_c, 0, 68, 0
2, 207216, Note_on_c, 0, 60, 0
2, 207406, Note_on_c, 0, 63, 84
2, 207416, Note_on_c, 0, 67, 76
2, 207426, Note_on_c, 0, 53, 0
2, 207586, Note_on_c, 0, 56, 0
2, 207826, Note_on_c, 0, 63, 0
2, 207866, Note_on_c, 0, 67, 0
2, 208226, Note_on_c, 0, 63, 81
2, 208226, Note_on_c, 0, 67, 75
2, 208276, Note_on_c, 0, 56, 56
2, 208676, Note_on_c, 0, 56, 0
2, 208796, Note_on_c, 0, 67, 0
2, 208826, Note_on_c, 0, 63, 0
2, 209066, Note_on_c, 0, 62, 75
2, 209066, Note_on_c, 0, 65, 75
2, 209386, Note_on_c, 0, 62, 0
2, 209506, Note_on_c, 0, 65, 0
2, 209936, Note_on_c, 0, 65, 72
2, 209946, Note_on_c, 0, 62, 75
2, 210306, Note_on_c, 0, 62, 0
2, 210836, Note_on_c, 0, 65, 0
2, 210866, Note_on_c, 0, 63, 75
2, 210916, Note_on_c, 0, 60, 66
2, 211436, Note_on_c, 0, 60, 0
2, 211506, Note_on_c, 0, 63, 0
2, 211806, Control_c, 0, 64, 0
2, 211906, Note_on_c, 0, 63, 75
2, 211956, Note_on_c, 0, 55, 55
2, 211956, Note_on_c, 0, 60, 63
2, 211976, Note_on_c, 0, 45, 48
2, 212056, Note_on_c, 0, 60, 0
2, 212066, Control_c, 0, 64, 127
2, 212226, Note_on_c, 0, 63, 0
2, 212526, Note_on_c, 0, 45, 0
2, 212636, Note_on_c, 0, 55, 0
2, 213096, Note_on_c, 0, 75, 85
2, 213116, Note_on_c, 0, 67, 72
2, 213556, Note_on_c, 0, 67, 0
2, 213766, Note_on_c, 0, 75, 0
2, 214256, Note_on_c, 0, 75, 78
2, 214306, Note_on_c, 0, 63, 68
2, 214326, Note_on_c, 0, 67, 62
2, 214356, Note_on_c, 0, 62, 49
2, 214896, Note_on_c, 0, 75, 0
2, 215166, Note_on_c, 0, 63, 0
2, 215246, Note_on_c, 0, 62, 0
2, 215306, Note_on_c, 0, 74, 85
2, 215496, Note_on_c, 0, 67, 0
2, 215826, Note_on_c, 0, 74, 0
2, 216436, Control_c, 0, 64, 0
2, 216486, Note_on_c, 0, 66, 66
2, 216486, Note_on_c, 0, 74, 75
2, 216526, Note_on_c, 0, 63, 56
2, 216556, Note_on_c, 0, 60, 51
2, 216696, Note_on_c, 0, 50, 35
2, 216856, Control_c, 0, 64, 127
2, 217446, Note_on_c, 0, 74, 0
2, 217676, Note_on_c, 0, 72, 70
2, 217726, Note_on_c, 0, 57, 49
2, 217866, Note_on_c, 0, 60, 0
2, 218476, Note_on_c, 0, 72, 0
2, 218966, Note_on_c, 0, 71, 67
2, 219026, Note_on_c, 0, 60, 42
2, 219406, Note_on_c, 0, 50, 0
2, 219486, Note_on_c, 0, 57, 0
2, 219646, Note_on_c, 0, 60, 0
2, 219656, Note_on_c, 0, 63, 0
2, 219976, Note_on_c, 0, 71, 0
2, 219996, Note_on_c, 0, 66, 0
2, 220086, Note_on_c, 0, 69, 71
2, 220176, Note_on_c, 0, 50, 50
2, 220316, Note_on_c, 0, 50, 0
2, 221276, Note_on_c, 0, 69, 0
2, 221416, Control_c, 0, 64, 0
2, 221416, Note_on_c, 0, 70, 67
2, 221476, Note_on_c, 0, 39, 57
2, 221926, Control_c, 0, 64, 127
2, 222406, Note_on_c, 0, 39, 0
2, 222486, Note_on_c, 0, 46, 55
2, 222546, Note_on_c, 0, 62, 70
2, 223236, Note_on_c, 0, 62, 0
2, 223286, Note_on_c, 0, 70, 0
2, 223386, Note_on_c, 0, 46, 0
2, 223426, Note_on_c, 0, 67, 81
2, 223446, Note_on_c, 0, 55, 61
2, 224116, Note_on_c, 0, 67, 0
2, 224246, Note_on_c, 0, 55, 0
2, 224276, Note_on_c, 0, 70, 85
2, 224316, Note_on_c, 0, 58, 63
2, 224756, Note_on_c, 0, 70, 0
2, 225276, Note_on_c, 0, 77, 102
2, 225316, Note_on_c, 0, 62, 69
2, 226176, Note_on_c, 0, 62, 0
2, 226286, Note_on_c, 0, 77, 0
2, 226426, Note_on_c, 0, 67, 55
2, 226466, Note_on_c, 0, 75, 85
2, 226476, Note_on_c, 0, 62, 48
2, 226526, Note_on_c, 0, 67, 0
2, 226596, Note_on_c, 0, 62, 0
2, 226806, Note_on_c, 0, 58, 0
2, 226926, Note_on_c, 0, 75, 0
2, 228846, Note_on_c, 0, 75, 63
2, 228876, Note_on_c, 0, 61, 57
2, 228886, Note_on_c, 0, 45, 60
2, 228896, Control_c, 0, 64, 0
2, 228896, Note_on_c, 0, 55, 57
2, 228896, Note_on_c, 0, 67, 55
2, 229226, Control_c, 0, 64, 127
2, 229406, Note_on_c, 0, 75, 0
2, 229876, Note_on_c, 0, 73, 66
2, 230016, Note_on_c, 0, 55, 0
2, 230046, Note_on_c, 0, 45, 0
2, 230306, Note_on_c, 0, 67, 0
2, 230356, Note_on_c, 0, 73, 0
2, 230396, Note_on_c, 0, 61, 0
2, 230976, Control_c, 0, 64, 0
2, 231046, Note_on_c, 0, 72, 59
2, 231066, Note_on_c, 0, 67, 59
2, 231096, Note_on_c, 0, 60, 54
2, 231116, Note_on_c, 0, 44, 44
2, 231136, Note_on_c, 0, 55, 42
2, 231546, Control_c, 0, 64, 127
2, 231696, Note_on_c, 0, 72, 0
2, 232046, Note_on_c, 0, 67, 0
2, 232166, Note_on_c, 0, 71, 68
2, 232536, Note_on_c, 0, 55, 0
2, 232766, Note_on_c, 0, 71, 0
2, 232846, Note_on_c, 0, 60, 0
2, 233406, Note_on_c, 0, 70, 59
2, 233446, Note_on_c, 0, 60, 49
2, 233466, Note_on_c, 0, 54, 41
2, 233506, Control_c, 0, 64, 0
2, 233526, Note_on_c, 0, 65, 42
2, 233886, Control_c, 0, 64, 127
2, 234496, Note_on_c, 0, 54, 0
2, 234726, Note_on_c, 0, 53, 56
2, 235406, Note_on_c, 0, 53, 0
2, 235496, Note_on_c, 0, 65, 0
2, 235516, Note_on_c, 0, 60, 0
2, 235516, Note_on_c, 0, 70, 0
2, 236196, Note_on_c, 0, 63, 48
2, 236216, Note_on_c, 0, 68, 58
2, 236226, Note_on_c, 0, 60, 41
2, 236296, Control_c, 0, 64, 0
2, 236326, Note_on_c, 0, 53, 42
2, 237026, Control_c, 0, 64, 127
2, 237376, Note_on_c, 0, 53, 0
2, 237776, Note_on_c, 0, 53, 54
2, 238396, Note_on_c, 0, 63, 0
2, 238416, Note_on_c, 0, 60, 0
2, 239146, Note_on_c, 0, 63, 49
2, 239156, Note_on_c, 0, 60, 41
2, 239386, Note_on_c, 0, 44, 0
2, 240306, Note_on_c, 0, 63, 0
2, 240596, Note_on_c, 0, 60, 0
2, 240776, Note_on_c, 0, 63, 57
2, 240786, Note_on_c, 0, 44, 48
2, 241316, Note_on_c, 0, 53, 0
2, 241646, Note_on_c, 0, 44, 0
2, 242416, Note_on_c, 0, 68, 0
2, 243036, Note_on_c, 0, 63, 0
2, 243546, Control_c, 0, 64, 56
2, 243556, Control_c, 0, 64, 0
2, 243656, Note_on_c, 0, 67, 63
2, 243656, Note_on_c, 0, 60, 63
2, 243656, Note_on_c, 0, 64, 65
2, 243696, Note_on_c, 0, 53, 43
2, 243746, Note_on_c, 0, 55, 45
2, 243766, Note_on_c, 0, 57, 42
2, 243896, Control_c, 0, 64, 127
2, 244496, Note_on_c, 0, 67, 0
2, 244766, Note_on_c, 0, 60, 0
2, 244836, Note_on_c, 0, 64, 0
2, 244896, Note_on_c, 0, 57, 0
2, 244926, Note_on_c, 0, 55, 0
2, 245026, Note_on_c, 0, 53, 0
2, 245466, Control_c, 0, 64, 0
2, 245516, Note_on_c, 0, 67, 58
2, 245526, Note_on_c, 0, 63, 59
2, 245536, Note_on_c, 0, 59, 57
2, 245576, Note_on_c, 0, 57, 49
2, 245586, Note_on_c, 0, 53, 43
2, 245626, Note_on_c, 0, 55, 44
2, 245706, Control_c, 0, 64, 127
2, 246266, Note_on_c, 0, 55, 0
2, 246416, Note_on_c, 0, 57, 0
2, 246416, Note_on_c, 0, 53, 0
2, 246446, Note_on_c, 0, 59, 0
2, 246586, Note_on_c, 0, 67, 0
2, 246906, Note_on_c, 0, 63, 0
2, 247286, Control_c, 0, 64, 0
2, 247306, Note_on_c, 0, 66, 61
2, 247316, Note_on_c, 0, 63, 67
2, 247336, Note_on_c, 0, 56, 31
2, 247346, Note_on_c, 0, 59, 57
2, 247356, Note_on_c, 0, 54, 40
2, 247596, Control_c, 0, 64, 127
2, 247716, Note_on_c, 0, 54, 0
2, 247766, Note_on_c, 0, 59, 0
2, 247776, Note_on_c, 0, 56, 0
2, 248216, Note_on_c, 0, 66, 0
2, 248236, Note_on_c, 0, 63, 0
2, 248546, Note_on_c, 0, 66, 54
2, 248556, Note_on_c, 0, 56, 51
2, 248576, Note_on_c, 0, 63, 60
2, 248596, Note_on_c, 0, 58, 61
2, 248656, Note_on_c, 0, 54, 43
2, 248816, Note_on_c, 0, 54, 0
2, 248976, Note_on_c, 0, 56, 0
2, 249186, Note_on_c, 0, 58, 0
2, 249316, Note_on_c, 0, 63, 0
2, 249336, Note_on_c, 0, 66, 0
2, 249626, Control_c, 0, 64, 0
2, 249746, Note_on_c, 0, 55, 39
2, 249756, Note_on_c, 0, 58, 63
2, 249766, Note_on_c, 0, 62, 65
2, 249766, Note_on_c, 0, 65, 57
2, 249806, Note_on_c, 0, 53, 47
2, 249956, Control_c, 0, 64, 127
2, 250366, Note_on_c, 0, 53, 0
2, 250456, Note_on_c, 0, 62, 0
2, 250466, Note_on_c, 0, 55, 0
2, 250466, Note_on_c, 0, 58, 0
2, 250636, Note_on_c, 0, 65, 0
2, 251226, Note_on_c, 0, 58, 60
2, 251236, Note_on_c, 0, 61, 57
2, 251266, Note_on_c, 0, 55, 30
2, 251286, Note_on_c, 0, 65, 48
2, 251306, Note_on_c, 0, 53, 32
2, 251486, Note_on_c, 0, 53, 0
2, 251516, Note_on_c, 0, 55, 0
2, 252356, Note_on_c, 0, 58, 0
2, 252386, Note_on_c, 0, 65, 0
2, 252656, Note_on_c, 0, 61, 0
2, 254826, Note_on_c, 0, 61, 51
2, 254846, Note_on_c, 0, 58, 52
2, 254886, Note_on_c, 0, 53, 33
2, 254896, Note_on_c, 0, 50, 43
2, 254926, Control_c, 0, 64, 0
2, 255146, Control_c, 0, 64, 127
2, 255316, Note_on_c, 0, 50, 0
2, 255886, Note_on_c, 0, 53, 0
2, 256176, Note_on_c, 0, 61, 0
2, 256196, Note_on_c, 0, 63, 57
2, 256806, Note_on_c, 0, 58, 0
2, 256836, Note_on_c, 0, 63, 0
2, 257836, Control_c, 0, 64, 0
2, 257866, Note_on_c, 0, 64, 47
2, 257876, Note_on_c, 0, 24, 40
2, 257906, Note_on_c, 0, 58, 45
2, 257916, Note_on_c, 0, 52, 34
2, 257926, Note_on_c, 0, 36, 28
2, 258436, Note_on_c, 0, 52, 0
2, 258446, Control_c, 0, 64, 127
2, 258736, Note_on_c, 0, 64, 0
2, 258826, Note_on_c, 0, 58, 0
2, 258876, Note_on_c, 0, 24, 0
2, 259176, Note_on_c, 0, 36, 0
2, 259476, Note_on_c, 0, 67, 63
2, 259996, Note_on_c, 0, 67, 0
2, 260856, Control_c, 0, 64, 0
2, 260936, Note_on_c, 0, 67, 56
2, 260956, Note_on_c, 0, 56, 52
2, 260986, Note_on_c, 0, 60, 52
2, 261006, Note_on_c, 0, 63, 45
2, 261066, Note_on_c, 0, 41, 46
2, 261186, Control_c, 0, 64, 127
2, 262086, Note_on_c, 0, 56, 0
2, 262106, Note_on_c, 0, 41, 0
2, 262166, Note_on_c, 0, 55, 76
2, 262436, Note_on_c, 0, 60, 0
2, 262906, Note_on_c, 0, 67, 0
2, 263086, Note_on_c, 0, 63, 0
2, 263176, Note_on_c, 0, 55, 0
2, 263246, Note_on_c, 0, 56, 79
2, 264276, Note_on_c, 0, 60, 71
2, 265626, Note_on_c, 0, 67, 73
2, 265656, Note_on_c, 0, 63, 75
2, 266386, Note_on_c, 0, 60, 0
2, 266596, Note_on_c, 0, 66, 1
2, 266786, Note_on_c, 0, 63, 0
2, 266796, Note_on_c, 0, 66, 0
2, 266806, Note_on_c, 0, 67, 0
2, 266956, Note_on_c, 0, 68, 77
2, 266986, Note_on_c, 0, 60, 57
2, 266996, Note_on_c, 0, 65, 80
2, 267736, Note_on_c, 0, 65, 0
2, 267936, Note_on_c, 0, 68, 0
2, 268186, Note_on_c, 0, 70, 71
2, 268186, Note_on_c, 0, 67, 76
2, 268216, Note_on_c, 0, 63, 61
2, 268736, Note_on_c, 0, 56, 0
2, 268826, Note_on_c, 0, 63, 0
2, 269136, Note_on_c, 0, 70, 0
2, 269286, Note_on_c, 0, 67, 0
2, 270236, Note_on_c, 0, 75, 73
2, 270336, Note_on_c, 0, 56, 54
2, 270436, Note_on_c, 0, 60, 0
2, 270716, Note_on_c, 0, 56, 0
2, 271726, Note_on_c, 0, 75, 0
2, 271866, Control_c, 0, 64, 0
2, 271886, Note_on_c, 0, 65, 51
2, 271886, Note_on_c, 0, 71, 59
2, 271946, Note_on_c, 0, 37, 52
2, 272196, Control_c, 0, 64, 127
2, 272536, Note_on_c, 0, 65, 0
2, 272746, Note_on_c, 0, 71, 0
2, 272886, Note_on_c, 0, 37, 0
2, 273036, Note_on_c, 0, 44, 57
2, 274166, Note_on_c, 0, 44, 0
2, 274166, Note_on_c, 0, 82, 64
2, 274226, Note_on_c, 0, 53, 49
2, 274246, Note_on_c, 0, 75, 46
2, 274256, Note_on_c, 0, 71, 40
2, 274386, Note_on_c, 0, 53, 0
2, 275466, Note_on_c, 0, 59, 40
2, 275886, Note_on_c, 0, 75, 0
2, 276156, Note_on_c, 0, 71, 0
2, 276806, Note_on_c, 0, 82, 0
2, 276866, Note_on_c, 0, 75, 46
2, 276886, Note_on_c, 0, 63, 37
2, 276916, Note_on_c, 0, 71, 41
2, 276926, Note_on_c, 0, 56, 36
2, 279166, Note_on_c, 0, 80, 68
2, 279616, Note_on_c, 0, 75, 0
2, 280206, Note_on_c, 0, 71, 0
2, 280216, Note_on_c, 0, 80, 0
2, 280586, Note_on_c, 0, 75, 88
2, 280906, Note_on_c, 0, 63, 0
2, 281536, Note_on_c, 0, 59, 0
2, 281676, Note_on_c, 0, 75, 0
2, 281786, Note_on_c, 0, 77, 83
2, 281826, Note_on_c, 0, 56, 0
2, 282176, Note_on_c, 0, 77, 0
2, 285126, Control_c, 0, 64, 0
2, 285216, Note_on_c, 0, 67, 86
2, 285216, Note_on_c, 0, 79, 86
2, 285226, Note_on_c, 0, 74, 80
2, 285256, Note_on_c, 0, 39, 70
2, 285266, Note_on_c, 0, 78, 55
2, 285366, Note_on_c, 0, 78, 0
2, 285526, Control_c, 0, 64, 127
2, 286176, Note_on_c, 0, 79, 0
2, 286256, Note_on_c, 0, 39, 0
2, 286296, Note_on_c, 0, 74, 0
2, 286316, Note_on_c, 0, 67, 0
2, 286346, Note_on_c, 0, 46, 63
2, 287606, Note_on_c, 0, 55, 78
2, 288966, Note_on_c, 0, 63, 90
2, 289186, Note_on_c, 0, 55, 0
2, 289626, Note_on_c, 0, 46, 0
2, 289716, Note_on_c, 0, 63, 0
2, 290536, Note_on_c, 0, 65, 70
2, 290546, Note_on_c, 0, 58, 81
2, 290546, Note_on_c, 0, 62, 72
2, 290576, Note_on_c, 0, 44, 68
2, 290586, Note_on_c, 0, 54, 60
2, 290606, Control_c, 0, 64, 0
2, 291126, Note_on_c, 0, 54, 0
2, 291136, Note_on_c, 0, 58, 0
2, 291166, Note_on_c, 0, 65, 0
2, 291176, Note_on_c, 0, 44, 0
2, 291206, Note_on_c, 0, 62, 0
2, 291956, Note_on_c, 0, 44, 61
2, 291986, Note_on_c, 0, 65, 68
2, 291996, Note_on_c, 0, 62, 69
2, 291996, Note_on_c, 0, 58, 76
2, 291996, Note_on_c, 0, 54, 50
2, 292666, Note_on_c, 0, 65, 0
2, 292706, Note_on_c, 0, 58, 0
2, 292716, Note_on_c, 0, 44, 0
2, 292716, Note_on_c, 0, 54, 0
2, 292776, Note_on_c, 0, 62, 0
2, 293506, Note_on_c, 0, 44, 63
2, 293506, Note_on_c, 0, 58, 64
2, 293516, Note_on_c, 0, 62, 60
2, 293536, Note_on_c, 0, 65, 56
2, 293556, Note_on_c, 0, 54, 49
2, 293636, Control_c, 0, 64, 127
2, 294656, Note_on_c, 0, 65, 0
2, 294746, Note_on_c, 0, 62, 0
2, 294926, Note_on_c, 0, 63, 72
2, 295166, Note_on_c, 0, 58, 0
2, 295546, Note_on_c, 0, 54, 0
2, 295556, Note_on_c, 0, 63, 0
2, 295656, Note_on_c, 0, 44, 0
2, 296606, Control_c, 0, 64, 0
2, 296716, Note_on_c, 0, 70, 72
2, 296726, Note_on_c, 0, 61, 67
2, 296746, Note_on_c, 0, 58, 66
2, 296786, Note_on_c, 0, 43, 63
2, 296796, Note_on_c, 0, 65, 49
2, 296846, Note_on_c, 0, 53, 49
2, 297016, Control_c, 0, 64, 127
2, 297106, Note_on_c, 0, 43, 0
2, 297246, Note_on_c, 0, 58, 0
2, 297276, Note_on_c, 0, 65, 0
2, 297336, Note_on_c, 0, 61, 0
2, 297376, Note_on_c, 0, 53, 0
2, 297516, Note_on_c, 0, 70, 0
2, 298436, Note_on_c, 0, 70, 86
2, 298436, Note_on_c, 0, 73, 81
2, 298466, Note_on_c, 0, 65, 83
2, 298516, Note_on_c, 0, 61, 78
2, 299256, Note_on_c, 0, 73, 0
2, 299266, Note_on_c, 0, 65, 0
2, 299396, Note_on_c, 0, 61, 0
2, 299456, Note_on_c, 0, 70, 0
2, 300036, Note_on_c, 0, 75, 89
2, 300056, Note_on_c, 0, 64, 85
2, 300056, Note_on_c, 0, 70, 79
2, 300056, Note_on_c, 0, 68, 81
2, 300116, Note_on_c, 0, 63, 84
2, 300126, Control_c, 0, 64, 0
2, 300346, Control_c, 0, 64, 127
2, 300656, Note_on_c, 0, 68, 0
2, 301336, Note_on_c, 0, 64, 0
2, 301386, Note_on_c, 0, 70, 0
2, 301436, Note_on_c, 0, 75, 0
2, 301506, Note_on_c, 0, 63, 0
2, 301636, Note_on_c, 0, 73, 75
2, 301636, Note_on_c, 0, 70, 67
2, 301686, Note_on_c, 0, 64, 57
2, 301696, Note_on_c, 0, 61, 54
2, 301706, Note_on_c, 0, 68, 57
2, 301826, Note_on_c, 0, 61, 0
2, 302076, Note_on_c, 0, 64, 0
2, 302206, Note_on_c, 0, 73, 0
2, 302246, Note_on_c, 0, 68, 0
2, 302306, Note_on_c, 0, 70, 0
2, 303326, Note_on_c, 0, 72, 69
2, 303326, Note_on_c, 0, 65, 68
2, 303376, Note_on_c, 0, 62, 62
2, 303376, Note_on_c, 0, 58, 58
2, 303396, Note_on_c, 0, 48, 54
2, 303396, Control_c, 0, 64, 0
2, 304026, Control_c, 0, 64, 127
2, 305226, Note_on_c, 0, 72, 0
2, 305326, Note_on_c, 0, 70, 66
2, 305426, Note_on_c, 0, 55, 46
2, 305816, Note_on_c, 0, 58, 0
2, 305946, Note_on_c, 0, 48, 0
2, 306166, Note_on_c, 0, 62, 0
2, 306386, Note_on_c, 0, 65, 0
2, 306636, Note_on_c, 0, 70, 0
2, 306826, Note_on_c, 0, 55, 0
2, 307516, Note_on_c, 0, 61, 52
2, 307536, Note_on_c, 0, 68, 56
2, 307536, Control_c, 0, 64, 0
2, 307556, Note_on_c, 0, 64, 51
2, 307576, Note_on_c, 0, 58, 48
2, 307646, Note_on_c, 0, 48, 38
2, 307996, Control_c, 0, 64, 127
2, 308776, Note_on_c, 0, 58, 0
2, 308916, Note_on_c, 0, 64, 0
2, 308916, Note_on_c, 0, 61, 0
2, 309216, Note_on_c, 0, 68, 0
2, 310066, Note_on_c, 0, 61, 36
2, 310106, Note_on_c, 0, 67, 48
2, 310106, Note_on_c, 0, 55, 41
2, 310106, Note_on_c, 0, 64, 48
2, 310796, Note_on_c, 0, 55, 0
2, 311836, Note_on_c, 0, 48, 0
2, 312146, Note_on_c, 0, 67, 0
2, 312236, Note_on_c, 0, 64, 0
2, 312356, Note_on_c, 0, 61, 0
2, 317436, Control_c, 0, 64, 0
2, 317446, Note_on_c, 0, 51, 49
2, 317456, Note_on_c, 0, 46, 42
2, 317456, Note_on_c, 0, 34, 43
2, 317456, Note_on_c, 0, 56, 55
2, 317456, Note_on_c, 0, 60, 48
2, 317816, Control_c, 0, 64, 127
2, 318256, Note_on_c, 0, 60, 0
2, 318626, Note_on_c, 0, 60, 57
2, 318776, Note_on_c, 0, 46, 0
2, 318936, Note_on_c, 0, 60, 0
2, 319186, Note_on_c, 0, 51, 0
2, 319286, Note_on_c, 0, 56, 0
2, 319626, Control_c, 0, 64, 0
2, 319706, Note_on_c, 0, 61, 57
2, 319736, Note_on_c, 0, 46, 46
2, 319736, Note_on_c, 0, 52, 54
2, 319756, Note_on_c, 0, 57, 55
2, 320026, Control_c, 0, 64, 127
2, 321066, Note_on_c, 0, 52, 0
2, 321156, Note_on_c, 0, 57, 0
2, 321446, Note_on_c, 0, 46, 0
2, 321756, Note_on_c, 0, 61, 0
2, 322266, Control_c, 0, 64, 0
2, 322396, Note_on_c, 0, 46, 48
2, 322416, Note_on_c, 0, 62, 56
2, 322416, Note_on_c, 0, 58, 61
2, 322456, Note_on_c, 0, 53, 52
2, 322936, Control_c, 0, 64, 127
2, 322966, Note_on_c, 0, 62, 0
2, 323116, Note_on_c, 0, 53, 0
2, 323346, Note_on_c, 0, 62, 50
2, 323386, Note_on_c, 0, 53, 37
2, 323456, Note_on_c, 0, 62, 0
2, 323516, Note_on_c, 0, 53, 0
2, 323696, Note_on_c, 0, 58, 0
2, 323716, Note_on_c, 0, 46, 0
2, 324266, Control_c, 0, 64, 0
2, 324376, Note_on_c, 0, 63, 55
2, 324386, Note_on_c, 0, 54, 53
2, 324396, Note_on_c, 0, 46, 45
2, 324406, Note_on_c, 0, 59, 57
2, 324616, Control_c, 0, 64, 127
2, 324996, Note_on_c, 0, 34, 0
2, 325496, Note_on_c, 0, 34, 56
2, 326136, Note_on_c, 0, 34, 0
2, 326526, Note_on_c, 0, 34, 54
2, 327056, Note_on_c, 0, 34, 0
2, 327196, Note_on_c, 0, 59, 0
2, 327256, Note_on_c, 0, 54, 0
2, 327366, Note_on_c, 0, 63, 0
2, 327426, Note_on_c, 0, 46, 0
2, 327556, Note_on_c, 0, 55, 81
2, 327566, Note_on_c, 0, 64, 79
2, 327566, Note_on_c, 0, 60, 75
2, 327606, Note_on_c, 0, 46, 79
2, 327656, Control_c, 0, 64, 0
2, 328046, Control_c, 0, 64, 127
2, 328306, Note_on_c, 0, 64, 0
2, 328406, Note_on_c, 0, 55, 0
2, 328426, Note_on_c, 0, 46, 0
2, 328446, Note_on_c, 0, 60, 0
2, 328556, Note_on_c, 0, 64, 68
2, 328576, Note_on_c, 0, 46, 66
2, 328606, Note_on_c, 0, 60, 45
2, 328616, Note_on_c, 0, 55, 75
2, 328866, Note_on_c, 0, 55, 0
2, 328916, Note_on_c, 0, 64, 0
2, 329016, Note_on_c, 0, 60, 0
2, 329376, Note_on_c, 0, 46, 0
2, 329536, Control_c, 0, 64, 0
2, 329596, Note_on_c, 0, 65, 78
2, 329616, Note_on_c, 0, 46, 66
2, 329616, Note_on_c, 0, 61, 77
2, 329646, Note_on_c, 0, 56, 79
2, 329876, Control_c, 0, 64, 127
2, 330516, Note_on_c, 0, 46, 0
2, 330936, Note_on_c, 0, 46, 60
2, 331286, Note_on_c, 0, 46, 0
2, 331556, Note_on_c, 0, 46, 52
2, 331846, Note_on_c, 0, 46, 0
2, 332226, Note_on_c, 0, 65, 0
2, 332286, Note_on_c, 0, 46, 58
2, 332366, Note_on_c, 0, 56, 0
2, 332586, Note_on_c, 0, 61, 0
2, 332786, Note_on_c, 0, 66, 66
2, 332786, Control_c, 0, 64, 0
2, 332806, Note_on_c, 0, 34, 63
2, 332806, Note_on_c, 0, 57, 75
2, 332806, Note_on_c, 0, 62, 73
2, 332896, Note_on_c, 0, 61, 33
2, 333046, Note_on_c, 0, 61, 0
2, 333156, Control_c, 0, 64, 127
2, 333416, Note_on_c, 0, 66, 0
2, 333446, Note_on_c, 0, 46, 0
2, 333496, Note_on_c, 0, 57, 0
2, 333586, Note_on_c, 0, 62, 0
2, 333666, Note_on_c, 0, 66, 56
2, 333706, Note_on_c, 0, 46, 52
2, 333746, Control_c, 0, 64, 0
2, 333766, Note_on_c, 0, 57, 56
2, 333836, Control_c, 0, 64, 127
2, 333856, Note_on_c, 0, 57, 0
2, 334006, Note_on_c, 0, 46, 0
2, 334106, Control_c, 0, 64, 0
2, 334126, Note_on_c, 0, 66, 0
2, 334246, Control_c, 0, 64, 127
2, 334476, Control_c, 0, 64, 0
2, 334806, Note_on_c, 0, 58, 66
2, 334806, Note_on_c, 0, 67, 63
2, 334826, Note_on_c, 0, 63, 62
2, 334856, Note_on_c, 0, 46, 49
2, 335276, Control_c, 0, 64, 127
2, 336156, Note_on_c, 0, 46, 0
2, 336636, Note_on_c, 0, 46, 55
2, 337166, Note_on_c, 0, 34, 0
2, 337396, Note_on_c, 0, 34, 58
2, 337486, Note_on_c, 0, 67, 0
2, 337556, Note_on_c, 0, 46, 0
2, 337646, Note_on_c, 0, 58, 0
2, 337706, Note_on_c, 0, 63, 0
2, 337886, Control_c, 0, 64, 0
2, 337966, Note_on_c, 0, 68, 68
2, 337966, Note_on_c, 0, 46, 63
2, 337996, Note_on_c, 0, 59, 71
2, 338016, Note_on_c, 0, 64, 61
2, 338406, Note_on_c, 0, 68, 0
2, 338506, Note_on_c, 0, 59, 0
2, 338516, Note_on_c, 0, 46, 0
2, 338676, Control_c, 0, 64, 127
2, 338776, Note_on_c, 0, 68, 58
2, 338786, Note_on_c, 0, 46, 54
2, 338796, Note_on_c, 0, 59, 62
2, 338996, Note_on_c, 0, 59, 0
2, 339026, Note_on_c, 0, 64, 0
2, 339086, Note_on_c, 0, 46, 0
2, 339236, Note_on_c, 0, 68, 0
2, 339636, Control_c, 0, 64, 24
2, 339656, Control_c, 0, 64, 0
2, 339856, Note_on_c, 0, 65, 56
2, 339856, Note_on_c, 0, 60, 54
2, 339856, Note_on_c, 0, 69, 56
2, 339886, Note_on_c, 0, 46, 52
2, 340176, Control_c, 0, 64, 127
2, 340746, Note_on_c, 0, 34, 0
2, 340986, Note_on_c, 0, 34, 54
2, 341396, Note_on_c, 0, 34, 0
2, 342046, Note_on_c, 0, 69, 0
2, 342096, Note_on_c, 0, 60, 0
2, 342106, Note_on_c, 0, 65, 0
2, 342266, Note_on_c, 0, 34, 48
2, 342296, Note_on_c, 0, 46, 0
2, 342726, Control_c, 0, 64, 0
2, 342746, Note_on_c, 0, 70, 60
2, 342776, Note_on_c, 0, 46, 46
2, 342806, Note_on_c, 0, 61, 44
2, 342836, Note_on_c, 0, 66, 46
2, 343066, Note_on_c, 0, 61, 0
2, 343126, Note_on_c, 0, 46, 0
2, 343166, Note_on_c, 0, 66, 0
2, 343196, Note_on_c, 0, 70, 0
2, 343996, Note_on_c, 0, 46, 43
2, 344006, Note_on_c, 0, 70, 50
2, 344076, Note_on_c, 0, 66, 44
2, 344096, Note_on_c, 0, 61, 35
2, 344496, Note_on_c, 0, 46, 0
2, 344706, Note_on_c, 0, 66, 0
2, 344726, Note_on_c, 0, 61, 0
2, 344786, Note_on_c, 0, 70, 0
2, 345296, Note_on_c, 0, 62, 55
2, 345296, Note_on_c, 0, 71, 57
2, 345306, Control_c, 0, 64, 127
2, 345336, Note_on_c, 0, 46, 43
2, 345376, Note_on_c, 0, 67, 41
2, 345733, Note_on_c, 0, 58, 77
2, 345733, Note_on_c, 0, 82, 92
2, 346166, Note_on_c, 0, 34, 0
2, 346766, Note_on_c, 0, 67, 0
2, 346826, Note_on_c, 0, 71, 0
2, 346876, Note_on_c, 0, 62, 0
2, 347516, Note_on_c, 0, 46, 0
2, 349211, Note_on_c, 0, 84, 75
2, 349261, Note_on_c, 0, 82, 0
2, 349281, Note_on_c, 0, 60, 53
2, 349301, Note_on_c, 0, 58, 0
2, 349391, Note_on_c, 0, 60, 0
2, 349441, Note_on_c, 0, 84, 0
2, 350311, Note_on_c, 0, 85, 77
2, 350331, Note_on_c, 0, 61, 58
2, 350431, Note_on_c, 0, 61, 0
2, 350571, Note_on_c, 0, 85, 0
2, 351201, Note_on_c, 0, 84, 70
2, 351201, Note_on_c, 0, 60, 56
2, 351431, Note_on_c, 0, 84, 0
2, 351661, Note_on_c, 0, 60, 0
2, 352111, Note_on_c, 0, 91, 83
2, 352141, Note_on_c, 0, 58, 58
2, 352141, Note_on_c, 0, 64, 54
2, 352941, Control_c, 0, 64, 127
2, 353271, Note_on_c, 0, 64, 0
2, 353271, Note_on_c, 0, 58, 0
2, 353371, Note_on_c, 0, 91, 0
2, 354961, Control_c, 0, 64, 0
2, 355021, Note_on_c, 0, 84, 82
2, 355021, Note_on_c, 0, 72, 85
2, 355041, Note_on_c, 0, 67, 68
2, 355041, Note_on_c, 0, 63, 58
2, 355071, Note_on_c, 0, 56, 52
2, 355091, Note_on_c, 0, 60, 60
2, 355111, Note_on_c, 0, 82, 49
2, 355221, Note_on_c, 0, 82, 0
2, 355861, Control_c, 0, 64, 127
2, 355991, Note_on_c, 0, 84, 0
2, 356081, Note_on_c, 0, 72, 0
2, 356201, Note_on_c, 0, 67, 0
2, 356221, Note_on_c, 0, 56, 0
2, 356231, Note_on_c, 0, 60, 0
2, 356341, Note_on_c, 0, 63, 0
2, 356551, Note_on_c, 0, 86, 80
2, 356571, Control_c, 0, 64, 0
2, 356591, Note_on_c, 0, 74, 75
2, 356611, Note_on_c, 0, 79, 70
2, 356611, Note_on_c, 0, 82, 62
2, 356631, Note_on_c, 0, 63, 58
2, 356641, Note_on_c, 0, 67, 70
2, 356671, Note_on_c, 0, 56, 55
2, 356691, Note_on_c, 0, 60, 56
2, 357221, Note_on_c, 0, 74, 0
2, 357271, Note_on_c, 0, 86, 0
2, 357271, Note_on_c, 0, 67, 0
2, 357351, Note_on_c, 0, 63, 0
2, 357411, Note_on_c, 0, 56, 0
2, 357421, Note_on_c, 0, 79, 0
2, 357551, Note_on_c, 0, 82, 0
2, 357581, Note_on_c, 0, 60, 0
2, 357891, Note_on_c, 0, 56, 51
2, 357891, Note_on_c, 0, 60, 48
2, 357901, Note_on_c, 0, 87, 75
2, 357911, Note_on_c, 0, 75, 75
2, 357931, Note_on_c, 0, 63, 40
2, 357971, Note_on_c, 0, 79, 50
2, 358001, Note_on_c, 0, 56, 0
2, 358021, Note_on_c, 0, 62, 32
2, 358031, Note_on_c, 0, 82, 29
2, 358071, Note_on_c, 0, 63, 0
2, 358071, Note_on_c, 0, 75, 0
2, 358071, Note_on_c, 0, 79, 0
2, 358131, Note_on_c, 0, 87, 0
2, 358181, Note_on_c, 0, 82, 0
2, 358191, Note_on_c, 0, 62, 0
2, 358201, Note_on_c, 0, 60, 0
2, 358781, Note_on_c, 0, 56, 72
2, 358811, Note_on_c, 0, 86, 69
2, 358821, Note_on_c, 0, 62, 49
2, 358821, Note_on_c, 0, 74, 55
2, 358851, Note_on_c, 0, 82, 52
2, 358931, Note_on_c, 0, 74, 0
2, 358931, Note_on_c, 0, 62, 0
2, 358951, Note_on_c, 0, 82, 0
2, 359061, Note_on_c, 0, 86, 0
2, 359061, Note_on_c, 0, 56, 0
2, 359801, Note_on_c, 0, 65, 63
2, 359801, Note_on_c, 0, 93, 66
2, 359851, Note_on_c, 0, 54, 49
2, 359851, Note_on_c, 0, 81, 52
2, 359851, Note_on_c, 0, 58, 49
2, 359881, Note_on_c, 0, 60, 53
2, 359901, Note_on_c, 0, 88, 54
2, 360141, Control_c, 0, 64, 127
2, 360511, Note_on_c, 0, 60, 0
2, 360631, Note_on_c, 0, 93, 0
2, 360661, Note_on_c, 0, 65, 0
2, 360661, Note_on_c, 0, 88, 0
2, 360671, Note_on_c, 0, 58, 0
2, 360731, Note_on_c, 0, 54, 0
2, 360841, Note_on_c, 0, 81, 0
2, 361771, Note_on_c, 0, 65, 49
2, 361781, Note_on_c, 0, 62, 45
2, 361801, Note_on_c, 0, 60, 47
2, 361811, Control_c, 0, 64, 0
2, 361821, Note_on_c, 0, 55, 45
2, 362791, Note_on_c, 0, 82, 82
2, 362951, Note_on_c, 0, 65, 0
2, 363191, Note_on_c, 0, 82, 0
2, 363271, Note_on_c, 0, 62, 0
2, 363301, Note_on_c, 0, 60, 0
2, 363381, Note_on_c, 0, 84, 57
2, 363481, Note_on_c, 0, 82, 50
2, 363511, Note_on_c, 0, 84, 0
2, 363581, Note_on_c, 0, 55, 0
2, 363831, Note_on_c, 0, 81, 50
2, 363851, Note_on_c, 0, 82, 0
2, 364211, Note_on_c, 0, 81, 0
2, 364331, Note_on_c, 0, 82, 63
2, 364451, Note_on_c, 0, 82, 0
2, 364461, Note_on_c, 0, 62, 43
2, 364461, Note_on_c, 0, 60, 53
2, 364531, Note_on_c, 0, 65, 25
2, 364561, Note_on_c, 0, 55, 34
2, 364601, Note_on_c, 0, 62, 0
2, 364641, Note_on_c, 0, 65, 0
2, 364651, Note_on_c, 0, 60, 0
2, 364701, Note_on_c, 0, 86, 74
2, 364771, Note_on_c, 0, 55, 0
2, 365001, Note_on_c, 0, 86, 0
2, 365211, Note_on_c, 0, 89, 80
2, 365491, Note_on_c, 0, 89, 0
2, 365691, Note_on_c, 0, 96, 122
2, 366321, Note_on_c, 0, 94, 85
2, 366391, Note_on_c, 0, 96, 0
2, 366401, Note_on_c, 0, 60, 37
2, 366581, Note_on_c, 0, 93, 47
2, 366591, Note_on_c, 0, 60, 0
2, 366591, Note_on_c, 0, 94, 0
2, 366681, Note_on_c, 0, 93, 0
2, 367071, Note_on_c, 0, 91, 85
2, 367161, Note_on_c, 0, 63, 42
2, 367161, Note_on_c, 0, 60, 46
2, 367241, Note_on_c, 0, 58, 39
2, 367291, Note_on_c, 0, 53, 26
2, 367401, Note_on_c, 0, 63, 0
2, 367401, Note_on_c, 0, 91, 0
2, 367671, Note_on_c, 0, 53, 0
2, 367691, Note_on_c, 0, 58, 0
2, 367731, Note_on_c, 0, 87, 68
2, 367741, Note_on_c, 0, 60, 0
2, 367891, Note_on_c, 0, 63, 47
2, 367921, Note_on_c, 0, 60, 13
2, 368001, Note_on_c, 0, 63, 0
2, 368051, Note_on_c, 0, 58, 24
2, 368351, Note_on_c, 0, 60, 0
2, 368351, Note_on_c, 0, 87, 0
2, 368481, Note_on_c, 0, 58, 0
2, 368481, Note_on_c, 0, 84, 63
2, 368761, Note_on_c, 0, 84, 0
2, 369141, Note_on_c, 0, 62, 55
2, 369161, Note_on_c, 0, 89, 72
2, 369191, Note_on_c, 0, 58, 44
2, 369291, Note_on_c, 0, 55, 27
2, 369431, Note_on_c, 0, 62, 0
2, 369451, Note_on_c, 0, 58, 0
2, 369481, Note_on_c, 0, 89, 0
2, 369481, Note_on_c, 0, 55, 0
2, 370001, Note_on_c, 0, 85, 68
2, 370251, Note_on_c, 0, 85, 0
2, 370491, Note_on_c, 0, 77, 46
2, 370891, Note_on_c, 0, 77, 0
2, 371371, Note_on_c, 0, 77, 49
2, 371641, Note_on_c, 0, 77, 0
2, 373266, Note_on_c, 0, 63, 48
2, 373331, Note_on_c, 0, 58, 50
2, 373351, Note_on_c, 0, 52, 38
2, 373481, Note_on_c, 0, 52, 0
2, 373481, Note_on_c, 0, 58, 0
2, 373521, Note_on_c, 0, 63, 0
2, 375171, Note_on_c, 0, 63, 68
2, 375191, Note_on_c, 0, 75, 82
2, 375221, Note_on_c, 0, 68, 67
2, 375221, Note_on_c, 0, 64, 72
2, 375221, Note_on_c, 0, 70, 64
2, 375601, Note_on_c, 0, 75, 0
2, 375621, Note_on_c, 0, 70, 0
2, 375671, Note_on_c, 0, 64, 0
2, 375721, Note_on_c, 0, 68, 0
2, 375821, Note_on_c, 0, 73, 63
2, 375831, Note_on_c, 0, 63, 0
2, 375881, Note_on_c, 0, 61, 56
2, 375891, Note_on_c, 0, 68, 31
2, 375981, Note_on_c, 0, 70, 35
2, 376031, Note_on_c, 0, 61, 0
2, 376121, Note_on_c, 0, 68, 0
2, 376151, Note_on_c, 0, 70, 0
2, 376171, Note_on_c, 0, 73, 0
2, 376751, Note_on_c, 0, 63, 56
2, 376751, Note_on_c, 0, 72, 46
2, 376771, Note_on_c, 0, 62, 46
2, 376791, Note_on_c, 0, 70, 43
2, 376791, Note_on_c, 0, 67, 40
2, 376871, Note_on_c, 0, 72, 0
2, 376901, Note_on_c, 0, 62, 0
2, 376911, Note_on_c, 0, 70, 0
2, 376931, Note_on_c, 0, 67, 0
2, 376941, Note_on_c, 0, 63, 0
2, 377641, Note_on_c, 0, 70, 63
2, 377661, Note_on_c, 0, 63, 64
2, 377671, Note_on_c, 0, 60, 66
2, 377681, Note_on_c, 0, 67, 61
2, 377681, Note_on_c, 0, 58, 50
2, 378631, Note_on_c, 0, 60, 0
2, 378661, Note_on_c, 0, 70, 0
2, 378741, Note_on_c, 0, 63, 0
2, 378751, Note_on_c, 0, 67, 0
2, 379081, Note_on_c, 0, 68, 63
2, 379101, Note_on_c, 0, 60, 57
2, 379111, Note_on_c, 0, 63, 36
2, 379121, Note_on_c, 0, 56, 55
2, 379171, Note_on_c, 0, 58, 0
2, 379231, Note_on_c, 0, 56, 0
2, 379291, Note_on_c, 0, 63, 0
2, 379311, Note_on_c, 0, 60, 0
2, 379451, Note_on_c, 0, 68, 0
2, 380011, Note_on_c, 0, 56, 49
2, 380051, Note_on_c, 0, 60, 57
2, 380061, Note_on_c, 0, 67, 54
2, 380081, Note_on_c, 0, 63, 46
2, 380121, Note_on_c, 0, 56, 0
2, 380211, Note_on_c, 0, 63, 0
2, 380291, Note_on_c, 0, 60, 0
2, 380321, Note_on_c, 0, 67, 0
2, 381061, Note_on_c, 0, 67, 61
2, 381081, Note_on_c, 0, 59, 56
2, 381091, Note_on_c, 0, 63, 55
2, 381131, Note_on_c, 0, 56, 45
2, 381131, Note_on_c, 0, 49, 35
2, 382451, Note_on_c, 0, 59, 0
2, 383151, Note_on_c, 0, 56, 0
2, 383231, Note_on_c, 0, 63, 0
2, 383361, Note_on_c, 0, 67, 0
2, 383591, Note_on_c, 0, 68, 48
2, 383611, Note_on_c, 0, 63, 49
2, 383621, Note_on_c, 0, 59, 38
2, 383641, Note_on_c, 0, 58, 56
2, 383641, Note_on_c, 0, 65, 50
2, 383671, Note_on_c, 0, 49, 0
2, 383751, Note_on_c, 0, 58, 0
2, 383831, Note_on_c, 0, 59, 0
2, 384091, Note_on_c, 0, 65, 0
2, 384231, Note_on_c, 0, 63, 0
2, 384401, Note_on_c, 0, 68, 0
2, 384811, Note_on_c, 0, 67, 68
2, 384831, Note_on_c, 0, 60, 41
2, 384851, Note_on_c, 0, 62, 39
2, 384851, Note_on_c, 0, 55, 39
2, 385051, Note_on_c, 0, 55, 0
2, 385231, Note_on_c, 0, 67, 0
2, 385381, Note_on_c, 0, 68, 33
2, 385441, Note_on_c, 0, 67, 67
2, 385521, Note_on_c, 0, 68, 0
2, 385551, Note_on_c, 0, 67, 0
2, 385561, Note_on_c, 0, 60, 0
2, 385651, Note_on_c, 0, 66, 40
2, 385881, Note_on_c, 0, 62, 0
2, 385991, Note_on_c, 0, 67, 61
2, 386001, Note_on_c, 0, 66, 0
2, 386511, Note_on_c, 0, 67, 0
2, 386631, Note_on_c, 0, 74, 94
2, 386641, Note_on_c, 0, 65, 49
2, 386761, Note_on_c, 0, 65, 0
2, 386801, Note_on_c, 0, 62, 27
2, 386851, Note_on_c, 0, 60, 29
2, 386981, Note_on_c, 0, 62, 0
2, 387031, Note_on_c, 0, 60, 0
2, 387411, Note_on_c, 0, 74, 0
2, 387561, Note_on_c, 0, 67, 57
2, 387841, Note_on_c, 0, 67, 0
2, 389251, Note_on_c, 0, 65, 57
2, 389291, Note_on_c, 0, 56, 43
2, 389381, Note_on_c, 0, 65, 0
2, 389601, Note_on_c, 0, 56, 0
2, 390551, Note_on_c, 0, 63, 50
2, 390591, Note_on_c, 0, 59, 48
2, 390601, Note_on_c, 0, 53, 45
2, 391331, Note_on_c, 0, 59, 0
2, 391521, Note_on_c, 0, 53, 0
2, 391691, Note_on_c, 0, 63, 0
2, 392071, Note_on_c, 0, 51, 51
2, 392091, Note_on_c, 0, 62, 49
2, 392201, Note_on_c, 0, 57, 42
2, 392211, Note_on_c, 0, 51, 0
2, 392261, Note_on_c, 0, 62, 0
2, 392401, Note_on_c, 0, 57, 0
2, 392571, Note_on_c, 0, 70, 40
2, 393001, Note_on_c, 0, 70, 0
2, 393101, Note_on_c, 0, 71, 60
2, 393201, Note_on_c, 0, 57, 34
2, 393221, Note_on_c, 0, 71, 0
2, 393371, Note_on_c, 0, 57, 0
2, 393491, Note_on_c, 0, 76, 84
2, 393531, Note_on_c, 0, 77, 69
2, 393641, Note_on_c, 0, 77, 0
2, 393851, Note_on_c, 0, 76, 0
2, 394121, Note_on_c, 0, 57, 42
2, 394261, Note_on_c, 0, 57, 0
2, 395101, Note_on_c, 0, 57, 54
2, 395121, Note_on_c, 0, 62, 37
2, 395161, Note_on_c, 0, 51, 26
2, 395201, Note_on_c, 0, 57, 0
2, 395251, Note_on_c, 0, 62, 0
2, 395281, Note_on_c, 0, 51, 0
2, 396121, Note_on_c, 0, 56, 35
2, 396151, Note_on_c, 0, 67, 31
2, 396161, Note_on_c, 0, 60, 37
2, 396281, Note_on_c, 0, 67, 0
2, 396281, Note_on_c, 0, 56, 0
2, 396351, Note_on_c, 0, 60, 0
2, 396351, Note_on_c, 0, 74, 102
2, 396801, Note_on_c, 0, 74, 0
2, 396961, Note_on_c, 0, 77, 94
2, 397251, Note_on_c, 0, 77, 0
2, 397371, Note_on_c, 0, 75, 54
2, 397921, Note_on_c, 0, 63, 38
2, 397941, Note_on_c, 0, 75, 0
2, 398161, Note_on_c, 0, 63, 0
2, 398231, Note_on_c, 0, 74, 84
2, 398721, Note_on_c, 0, 74, 0
2, 398841, Note_on_c, 0, 63, 55
2, 398871, Note_on_c, 0, 71, 40
2, 399011, Note_on_c, 0, 71, 0
2, 399041, Note_on_c, 0, 63, 0
2, 399241, Note_on_c, 0, 72, 54
2, 399631, Note_on_c, 0, 72, 0
2, 399801, Note_on_c, 0, 74, 81
2, 400061, Note_on_c, 0, 74, 0
2, 400116, Note_on_c, 0, 68, 56
2, 400121, Note_on_c, 0, 58, 48
2, 400161, Note_on_c, 0, 63, 50
2, 400181, Note_on_c, 0, 75, 70
2, 400281, Note_on_c, 0, 60, 36
2, 400561, Note_on_c, 0, 68, 0
2, 400741, Note_on_c, 0, 75, 0
2, 400901, Note_on_c, 0, 72, 57
2, 401011, Note_on_c, 0, 72, 0
2, 401061, Note_on_c, 0, 60, 0
2, 401141, Note_on_c, 0, 58, 0
2, 401161, Note_on_c, 0, 63, 0
2, 401621, Note_on_c, 0, 68, 65
2, 401901, Note_on_c, 0, 68, 0
2, 402071, Note_on_c, 0, 67, 49
2, 402871, Note_on_c, 0, 67, 0
2, 402961, Note_on_c, 0, 70, 78
2, 403671, Note_on_c, 0, 70, 0
2, 403951, Note_on_c, 0, 46, 47
2, 403951, Note_on_c, 0, 68, 67
2, 403981, Note_on_c, 0, 56, 46
2, 404091, Note_on_c, 0, 70, 28
2, 404251, Note_on_c, 0, 70, 0
2, 404261, Note_on_c, 0, 56, 0
2, 404471, Note_on_c, 0, 46, 0
2, 404531, Note_on_c, 0, 68, 0
2, 404891, Note_on_c, 0, 62, 54
2, 405461, Note_on_c, 0, 62, 0
2, 405611, Note_on_c, 0, 46, 23
2, 405761, Note_on_c, 0, 46, 0
2, 405881, Note_on_c, 0, 65, 79
2, 406551, Note_on_c, 0, 65, 0
2, 406841, Note_on_c, 0, 62, 68
2, 407261, Note_on_c, 0, 62, 0
2, 407461, Note_on_c, 0, 39, 48
2, 407511, Note_on_c, 0, 46, 37
2, 407601, Note_on_c, 0, 39, 0
2, 407681, Note_on_c, 0, 46, 0
2, 407801, Note_on_c, 0, 58, 58
2, 408381, Note_on_c, 0, 58, 0
2, 408511, Note_on_c, 0, 55, 39
2, 408651, Note_on_c, 0, 55, 0
2, 408871, Note_on_c, 0, 57, 54
2, 409341, Note_on_c, 0, 57, 0
2, 409471, Note_on_c, 0, 58, 68
2, 409561, Note_on_c, 0, 46, 52
2, 409681, Note_on_c, 0, 46, 0
2, 409751, Note_on_c, 0, 58, 0
2, 409961, Note_on_c, 0, 60, 47
2, 410391, Note_on_c, 0, 60, 0
2, 410471, Note_on_c, 0, 61, 58
2, 410761, Note_on_c, 0, 61, 0
2, 411351, Note_on_c, 0, 63, 62
2, 411641, Note_on_c, 0, 63, 0
2, 411781, Note_on_c, 0, 65, 85
2, 412411, Note_on_c, 0, 58, 37
2, 412481, Note_on_c, 0, 55, 22
2, 412551, Note_on_c, 0, 65, 0
2, 412561, Note_on_c, 0, 58, 0
2, 412691, Note_on_c, 0, 55, 0
2, 412711, Note_on_c, 0, 61, 52
2, 413201, Note_on_c, 0, 61, 0
2, 413251, Note_on_c, 0, 64, 76
2, 413701, Note_on_c, 0, 64, 0
2, 413831, Note_on_c, 0, 61, 60
2, 413991, Note_on_c, 0, 58, 48
2, 414151, Note_on_c, 0, 58, 0
2, 414431, Note_on_c, 0, 61, 0
2, 414561, Note_on_c, 0, 60, 52
2, 414891, Note_on_c, 0, 60, 0
2, 415131, Note_on_c, 0, 58, 65
2, 415581, Note_on_c, 0, 58, 0
2, 415631, Note_on_c, 0, 56, 52
2, 416171, Note_on_c, 0, 56, 0
2, 416171, Note_on_c, 0, 48, 38
2, 416411, Note_on_c, 0, 48, 0
2, 416461, Note_on_c, 0, 55, 57
2, 416961, Note_on_c, 0, 55, 0
2, 417101, Note_on_c, 0, 53, 52
2, 417401, Note_on_c, 0, 53, 0
2, 419461, Note_on_c, 0, 63, 52
2, 419521, Note_on_c, 0, 55, 40
2, 419601, Note_on_c, 0, 57, 34
2, 419711, Note_on_c, 0, 63, 0
2, 419731, Note_on_c, 0, 55, 0
2, 419766, Note_on_c, 0, 57, 0
2, 420951, Note_on_c, 0, 65, 61
2, 420971, Note_on_c, 0, 58, 54
2, 420971, Note_on_c, 0, 54, 49
2, 420991, Note_on_c, 0, 60, 56
2, 422281, Note_on_c, 0, 60, 0
2, 422371, Note_on_c, 0, 58, 0
2, 422461, Note_on_c, 0, 54, 0
2, 422611, Note_on_c, 0, 65, 0
2, 423171, Note_on_c, 0, 65, 41
2, 423181, Note_on_c, 0, 55, 48
2, 423191, Note_on_c, 0, 60, 52
2, 423361, Note_on_c, 0, 65, 0
2, 423371, Note_on_c, 0, 60, 0
2, 423441, Note_on_c, 0, 55, 0
2, 424681, Note_on_c, 0, 65, 55
2, 424731, Note_on_c, 0, 60, 49
2, 424781, Note_on_c, 0, 55, 34
2, 424881, Note_on_c, 0, 65, 0
2, 424891, Note_on_c, 0, 60, 0
2, 424931, Note_on_c, 0, 55, 0
2, 425681, Note_on_c, 0, 65, 45
2, 425741, Note_on_c, 0, 60, 47
2, 425741, Note_on_c, 0, 55, 35
2, 425791, Note_on_c, 0, 65, 0
2, 425891, Note_on_c, 0, 55, 0
2, 425931, Note_on_c, 0, 60, 0
2, 425941, Note_on_c, 0, 84, 96
2, 425971, Note_on_c, 0, 72, 89
2, 426061, Note_on_c, 0, 72, 0
2, 426431, Note_on_c, 0, 84, 0
2, 426951, Note_on_c, 0, 84, 88
2, 426951, Note_on_c, 0, 63, 59
2, 426961, Note_on_c, 0, 72, 82
2, 427041, Note_on_c, 0, 60, 44
2, 427051, Note_on_c, 0, 58, 45
2, 427051, Note_on_c, 0, 53, 36
2, 427401, Note_on_c, 0, 84, 0
2, 427551, Note_on_c, 0, 72, 0
2, 427701, Note_on_c, 0, 63, 0
2, 427881, Note_on_c, 0, 53, 0
2, 427941, Note_on_c, 0, 82, 75
2, 427971, Note_on_c, 0, 70, 65
2, 428241, Note_on_c, 0, 58, 0
2, 428281, Note_on_c, 0, 70, 0
2, 428291, Note_on_c, 0, 60, 0
2, 428371, Note_on_c, 0, 82, 0
2, 428611, Note_on_c, 0, 63, 29
2, 428621, Note_on_c, 0, 60, 39
2, 428671, Note_on_c, 0, 58, 28
2, 428751, Note_on_c, 0, 63, 0
2, 428791, Note_on_c, 0, 60, 0
2, 428921, Note_on_c, 0, 58, 0
2, 428921, Note_on_c, 0, 84, 87
2, 428941, Note_on_c, 0, 72, 76
2, 429351, Note_on_c, 0, 84, 0
2, 429471, Note_on_c, 0, 72, 0
2, 429601, Note_on_c, 0, 60, 45
2, 429671, Note_on_c, 0, 58, 39
2, 429901, Note_on_c, 0, 82, 77
2, 429931, Note_on_c, 0, 70, 72
2, 429941, Note_on_c, 0, 60, 0
2, 430031, Note_on_c, 0, 80, 38
2, 430101, Note_on_c, 0, 58, 0
2, 430101, Note_on_c, 0, 53, 17
2, 430191, Note_on_c, 0, 80, 0
2, 430381, Note_on_c, 0, 70, 0
2, 430441, Note_on_c, 0, 82, 0
2, 430471, Note_on_c, 0, 53, 0
2, 430851, Note_on_c, 0, 53, 33
2, 430851, Note_on_c, 0, 84, 78
2, 430871, Note_on_c, 0, 72, 71
2, 430871, Note_on_c, 0, 62, 48
2, 430871, Note_on_c, 0, 58, 49
2, 430871, Note_on_c, 0, 55, 41
2, 431271, Note_on_c, 0, 84, 0
2, 431411, Note_on_c, 0, 72, 0
2, 431731, Note_on_c, 0, 62, 0
2, 431821, Note_on_c, 0, 82, 72
2, 431841, Note_on_c, 0, 70, 68
2, 431941, Note_on_c, 0, 53, 0
2, 431951, Note_on_c, 0, 55, 0
2, 431991, Note_on_c, 0, 58, 0
2, 432271, Note_on_c, 0, 70, 0
2, 432301, Note_on_c, 0, 82, 0
2, 432471, Note_on_c, 0, 58, 45
2, 432641, Note_on_c, 0, 58, 0
2, 432791, Note_on_c, 0, 84, 77
2, 432801, Note_on_c, 0, 72, 72
2, 433121, Note_on_c, 0, 84, 0
2, 433171, Note_on_c, 0, 72, 0
2, 433511, Note_on_c, 0, 58, 39
2, 433701, Note_on_c, 0, 82, 65
2, 433721, Note_on_c, 0, 70, 58
2, 433741, Note_on_c, 0, 58, 0
2, 434051, Note_on_c, 0, 70, 0
2, 434051, Note_on_c, 0, 82, 0
2, 434351, Note_on_c, 0, 63, 57
2, 434381, Note_on_c, 0, 73, 68
2, 434391, Note_on_c, 0, 52, 56
2, 434391, Note_on_c, 0, 58, 55
2, 434391, Note_on_c, 0, 85, 77
2, 434841, Note_on_c, 0, 73, 0
2, 434891, Note_on_c, 0, 85, 0
2, 434971, Note_on_c, 0, 52, 0
2, 435001, Note_on_c, 0, 63, 0
2, 435251, Note_on_c, 0, 75, 72
2, 435251, Note_on_c, 0, 87, 80
2, 435281, Note_on_c, 0, 63, 57
2, 435281, Note_on_c, 0, 52, 48
2, 435501, Control_c, 0, 64, 127
2, 435551, Note_on_c, 0, 63, 0
2, 435561, Note_on_c, 0, 87, 0
2, 435581, Note_on_c, 0, 75, 0
2, 435651, Note_on_c, 0, 52, 0
2, 435791, Note_on_c, 0, 58, 0
2, 435971, Control_c, 0, 64, 0
2, 436191, Note_on_c, 0, 84, 76
2, 436201, Note_on_c, 0, 72, 75
2, 436251, Note_on_c, 0, 52, 61
2, 436256, Note_on_c, 0, 58, 54
2, 436301, Note_on_c, 0, 60, 56
2, 436551, Control_c, 0, 64, 127
2, 437141, Note_on_c, 0, 84, 0
2, 437211, Note_on_c, 0, 60, 0
2, 437301, Note_on_c, 0, 72, 0
2, 437341, Note_on_c, 0, 58, 0
2, 437491, Note_on_c, 0, 52, 0
2, 438461, Note_on_c, 0, 67, 60
2, 438491, Note_on_c, 0, 56, 60
2, 438501, Note_on_c, 0, 55, 60
2, 438521, Note_on_c, 0, 63, 50
2, 438541, Control_c, 0, 64, 0
2, 438541, Note_on_c, 0, 60, 55
2, 440261, Note_on_c, 0, 56, 0
2, 440281, Note_on_c, 0, 60, 0
2, 440341, Note_on_c, 0, 67, 0
2, 440441, Note_on_c, 0, 63, 0
2, 440521, Note_on_c, 0, 56, 52
2, 440551, Note_on_c, 0, 65, 58
2, 440571, Note_on_c, 0, 53, 61
2, 440581, Note_on_c, 0, 60, 53
2, 440581, Note_on_c, 0, 63, 18
2, 440621, Note_on_c, 0, 55, 0
2, 441491, Note_on_c, 0, 56, 0
2, 441531, Control_c, 0, 64, 127
2, 441541, Note_on_c, 0, 60, 0
2, 441611, Note_on_c, 0, 65, 0
2, 441691, Note_on_c, 0, 63, 0
2, 442031, Note_on_c, 0, 53, 0
2, 442501, Control_c, 0, 64, 0
2, 442521, Note_on_c, 0, 70, 82
2, 442531, Note_on_c, 0, 58, 78
2, 442541, Note_on_c, 0, 63, 80
2, 442551, Note_on_c, 0, 67, 71
2, 442551, Note_on_c, 0, 59, 79
2, 442611, Note_on_c, 0, 68, 46
2, 442611, Note_on_c, 0, 60, 68
2, 442711, Note_on_c, 0, 60, 0
2, 443231, Control_c, 0, 64, 127
2, 443371, Note_on_c, 0, 68, 0
2, 443861, Note_on_c, 0, 67, 0
2, 443991, Note_on_c, 0, 59, 0
2, 444071, Note_on_c, 0, 63, 0
2, 444201, Note_on_c, 0, 70, 0
2, 444371, Note_on_c, 0, 58, 0
2, 444481, Note_on_c, 0, 68, 70
2, 444491, Control_c, 0, 64, 0
2, 444521, Note_on_c, 0, 56, 55
2, 444521, Note_on_c, 0, 63, 62
2, 444541, Note_on_c, 0, 59, 56
2, 445111, Control_c, 0, 64, 127
2, 445291, Note_on_c, 0, 68, 0
2, 445331, Note_on_c, 0, 59, 0
2, 445671, Note_on_c, 0, 63, 0
2, 445981, Note_on_c, 0, 54, 48
2, 446061, Note_on_c, 0, 56, 0
2, 446091, Control_c, 0, 64, 0
2, 446301, Note_on_c, 0, 58, 55
2, 446311, Note_on_c, 0, 67, 57
2, 446341, Note_on_c, 0, 55, 48
2, 446381, Note_on_c, 0, 62, 49
2, 446601, Note_on_c, 0, 54, 0
2, 446671, Note_on_c, 0, 58, 0
2, 446751, Note_on_c, 0, 62, 0
2, 446781, Note_on_c, 0, 67, 0
2, 446941, Note_on_c, 0, 55, 0
2, 447731, Note_on_c, 0, 44, 68
2, 448451, Note_on_c, 0, 44, 0
2, 448741, Note_on_c, 0, 70, 85
2, 449111, Note_on_c, 0, 70, 0
2, 449681, Note_on_c, 0, 65, 55
2, 449861, Note_on_c, 0, 58, 45
2, 449891, Note_on_c, 0, 62, 33
2, 449901, Note_on_c, 0, 55, 44
2, 450016, Note_on_c, 0, 58, 0
2, 450041, Note_on_c, 0, 62, 0
2, 450061, Note_on_c, 0, 65, 0
2, 450061, Note_on_c, 0, 55, 0
2, 450101, Note_on_c, 0, 66, 53
2, 450331, Note_on_c, 0, 66, 0
2, 450381, Note_on_c, 0, 67, 56
2, 450691, Note_on_c, 0, 67, 0
2, 450761, Note_on_c, 0, 58, 40
2, 450841, Note_on_c, 0, 55, 32
2, 450881, Note_on_c, 0, 58, 0
2, 450921, Note_on_c, 0, 70, 99
2, 450991, Note_on_c, 0, 55, 0
2, 451481, Note_on_c, 0, 70, 0
2, 451511, Note_on_c, 0, 58, 43
2, 451821, Note_on_c, 0, 58, 0
2, 451831, Note_on_c, 0, 68, 72
2, 452431, Note_on_c, 0, 68, 0
2, 452561, Note_on_c, 0, 58, 43
2, 452811, Note_on_c, 0, 67, 82
2, 452831, Note_on_c, 0, 58, 0
2, 453411, Note_on_c, 0, 67, 0
2, 453791, Note_on_c, 0, 65, 78
2, 453861, Note_on_c, 0, 60, 42
2, 453861, Note_on_c, 0, 53, 33
2, 453861, Note_on_c, 0, 56, 40
2, 454451, Note_on_c, 0, 65, 0
2, 454501, Note_on_c, 0, 60, 0
2, 454751, Note_on_c, 0, 53, 0
2, 454771, Note_on_c, 0, 63, 70
2, 454781, Note_on_c, 0, 56, 0
2, 455271, Note_on_c, 0, 63, 0
2, 455741, Note_on_c, 0, 60, 57
2, 456211, Note_on_c, 0, 60, 0
2, 456431, Note_on_c, 0, 60, 68
2, 456691, Note_on_c, 0, 60, 0
2, 459371, Note_on_c, 0, 34, 58
2, 460671, Note_on_c, 0, 60, 63
2, 460701, Note_on_c, 0, 51, 76
2, 460711, Note_on_c, 0, 56, 68
2, 460711, Note_on_c, 0, 46, 55
2, 461281, Control_c, 0, 64, 127
2, 461451, Note_on_c, 0, 60, 0
2, 461841, Note_on_c, 0, 51, 0
2, 461951, Note_on_c, 0, 46, 0
2, 462061, Control_c, 0, 64, 0
2, 462071, Note_on_c, 0, 56, 0
2, 462221, Note_on_c, 0, 61, 74
2, 462241, Note_on_c, 0, 52, 82
2, 462251, Note_on_c, 0, 57, 68
2, 462281, Note_on_c, 0, 46, 56
2, 462551, Control_c, 0, 64, 127
2, 462881, Note_on_c, 0, 57, 0
2, 462921, Note_on_c, 0, 52, 0
2, 463091, Note_on_c, 0, 46, 0
2, 463201, Note_on_c, 0, 61, 0
2, 463521, Note_on_c, 0, 58, 79
2, 463531, Control_c, 0, 64, 0
2, 463531, Note_on_c, 0, 62, 78
2, 463531, Note_on_c, 0, 46, 63
2, 463551, Note_on_c, 0, 53, 77
2, 464291, Control_c, 0, 64, 127
2, 464441, Note_on_c, 0, 62, 0
2, 464631, Note_on_c, 0, 53, 0
2, 464771, Note_on_c, 0, 58, 0
2, 465031, Note_on_c, 0, 46, 0
2, 465461, Note_on_c, 0, 63, 73
2, 465461, Note_on_c, 0, 59, 77
2, 465461, Note_on_c, 0, 46, 66
2, 465481, Note_on_c, 0, 54, 82
2, 465531, Control_c, 0, 64, 0
2, 466021, Control_c, 0, 64, 127
2, 466341, Note_on_c, 0, 59, 0
2, 466441, Note_on_c, 0, 54, 0
2, 466531, Note_on_c, 0, 63, 0
2, 466561, Note_on_c, 0, 46, 0
2, 466981, Control_c, 0, 64, 72
2, 466991, Control_c, 0, 64, 0
2, 467111, Note_on_c, 0, 65, 76
2, 467131, Note_on_c, 0, 60, 81
2, 467151, Note_on_c, 0, 55, 81
2, 467181, Note_on_c, 0, 46, 60
2, 467401, Control_c, 0, 64, 127
2, 467431, Note_on_c, 0, 34, 0
2, 467591, Note_on_c, 0, 65, 0
2, 467701, Note_on_c, 0, 55, 0
2, 467801, Note_on_c, 0, 46, 0
2, 467811, Note_on_c, 0, 60, 0
2, 467981, Note_on_c, 0, 34, 64
2, 468131, Note_on_c, 0, 46, 57
2, 468261, Note_on_c, 0, 46, 0
2, 468261, Note_on_c, 0, 34, 0
2, 468341, Note_on_c, 0, 66, 76
2, 468351, Note_on_c, 0, 61, 77
2, 468391, Note_on_c, 0, 54, 69
2, 468451, Control_c, 0, 64, 0
2, 468811, Note_on_c, 0, 54, 0
2, 469031, Note_on_c, 0, 61, 0
2, 469031, Note_on_c, 0, 66, 0
2, 469341, Note_on_c, 0, 67, 70
2, 469381, Note_on_c, 0, 55, 57
2, 469381, Note_on_c, 0, 62, 71
2, 469471, Note_on_c, 0, 55, 0
2, 470811, Note_on_c, 0, 62, 0
2, 471291, Note_on_c, 0, 51, 59
2, 471301, Note_on_c, 0, 62, 54
2, 471371, Note_on_c, 0, 58, 50
2, 471391, Note_on_c, 0, 51, 0
2, 471431, Note_on_c, 0, 62, 0
2, 471481, Note_on_c, 0, 58, 0
2, 472581, Note_on_c, 0, 67, 0
2, 473091, Note_on_c, 0, 61, 50
2, 473121, Note_on_c, 0, 58, 48
2, 473141, Note_on_c, 0, 53, 39
2, 473221, Note_on_c, 0, 55, 35
2, 473371, Note_on_c, 0, 53, 0
2, 473371, Note_on_c, 0, 61, 0
2, 473441, Note_on_c, 0, 55, 0
2, 473531, Note_on_c, 0, 58, 0
2, 474741, Note_on_c, 0, 61, 60
2, 474811, Note_on_c, 0, 58, 43
2, 474831, Note_on_c, 0, 61, 0
2, 474981, Note_on_c, 0, 58, 0
2, 475071, Note_on_c, 0, 70, 54
2, 475071, Note_on_c, 0, 85, 50
2, 475361, Note_on_c, 0, 70, 0
2, 475461, Note_on_c, 0, 85, 0
2, 475681, Note_on_c, 0, 85, 50
2, 475731, Note_on_c, 0, 70, 44
2, 475891, Note_on_c, 0, 70, 0
2, 476031, Note_on_c, 0, 85, 0
2, 476631, Note_on_c, 0, 67, 48
2, 476631, Note_on_c, 0, 56, 46
2, 476661, Note_on_c, 0, 84, 81
2, 476671, Note_on_c, 0, 63, 45
2, 476761, Note_on_c, 0, 60, 42
2, 477181, Note_on_c, 0, 84, 0
2, 477561, Note_on_c, 0, 82, 82
2, 477651, Note_on_c, 0, 67, 0
2, 477671, Note_on_c, 0, 56, 0
2, 477961, Note_on_c, 0, 80, 63
2, 477981, Note_on_c, 0, 63, 0
2, 478041, Note_on_c, 0, 82, 0
2, 478041, Note_on_c, 0, 60, 0
2, 478251, Note_on_c, 0, 80, 0
2, 478481, Note_on_c, 0, 79, 73
2, 478661, Note_on_c, 0, 67, 39
2, 478701, Note_on_c, 0, 63, 40
2, 478721, Note_on_c, 0, 56, 32
2, 478791, Note_on_c, 0, 79, 0
2, 478981, Note_on_c, 0, 77, 45
2, 479021, Note_on_c, 0, 60, 20
2, 479611, Note_on_c, 0, 56, 0
2, 479621, Note_on_c, 0, 67, 0
2, 479651, Note_on_c, 0, 77, 0
2, 479801, Note_on_c, 0, 75, 61
2, 479811, Note_on_c, 0, 63, 0
2, 479871, Note_on_c, 0, 60, 0
2, 479971, Note_on_c, 0, 75, 0
2, 480791, Note_on_c, 0, 63, 55
2, 480861, Note_on_c, 0, 55, 39
2, 480911, Note_on_c, 0, 60, 40
2, 481091, Note_on_c, 0, 60, 0
2, 481101, Note_on_c, 0, 55, 0
2, 481201, Note_on_c, 0, 63, 0
2, 482341, Note_on_c, 0, 65, 59
2, 482361, Note_on_c, 0, 58, 46
2, 482391, Note_on_c, 0, 60, 53
2, 482391, Note_on_c, 0, 54, 43
2, 483031, Note_on_c, 0, 60, 0
2, 483401, Note_on_c, 0, 54, 0
2, 483531, Note_on_c, 0, 65, 0
2, 483591, Note_on_c, 0, 84, 40
2, 483711, Note_on_c, 0, 58, 0
2, 483771, Note_on_c, 0, 84, 0
2, 483771, Note_on_c, 0, 85, 48
2, 483911, Note_on_c, 0, 85, 0
2, 484011, Note_on_c, 0, 86, 55
2, 484111, Note_on_c, 0, 86, 0
2, 484251, Note_on_c, 0, 89, 99
2, 484331, Note_on_c, 0, 65, 52
2, 484391, Note_on_c, 0, 62, 41
2, 484401, Note_on_c, 0, 60, 49
2, 484431, Note_on_c, 0, 65, 0
2, 484531, Note_on_c, 0, 60, 0
2, 484551, Note_on_c, 0, 62, 0
2, 484591, Note_on_c, 0, 89, 0
2, 484791, Note_on_c, 0, 84, 26
2, 484841, Note_on_c, 0, 85, 48
2, 485021, Note_on_c, 0, 84, 0
2, 485101, Note_on_c, 0, 85, 0
2, 485141, Note_on_c, 0, 86, 54
2, 485281, Note_on_c, 0, 86, 0
2, 485311, Note_on_c, 0, 89, 63
2, 485541, Note_on_c, 0, 89, 0
2, 485581, Note_on_c, 0, 79, 63
2, 485971, Note_on_c, 0, 79, 0
2, 486511, Note_on_c, 0, 65, 42
2, 486541, Note_on_c, 0, 79, 60
2, 486591, Note_on_c, 0, 62, 40
2, 486621, Note_on_c, 0, 60, 40
2, 486671, Note_on_c, 0, 79, 0
2, 486681, Note_on_c, 0, 55, 31
2, 486921, Note_on_c, 0, 62, 0
2, 486931, Note_on_c, 0, 65, 0
2, 486981, Note_on_c, 0, 60, 0
2, 487181, Note_on_c, 0, 55, 0
2, 488071, Note_on_c, 0, 63, 57
2, 488131, Note_on_c, 0, 60, 49
2, 488171, Note_on_c, 0, 58, 44
2, 488231, Note_on_c, 0, 53, 24
2, 488261, Note_on_c, 0, 60, 0
2, 488301, Note_on_c, 0, 63, 0
2, 488311, Note_on_c, 0, 58, 0
2, 488381, Note_on_c, 0, 53, 0
2, 489391, Note_on_c, 0, 63, 48
2, 489401, Note_on_c, 0, 53, 48
2, 489401, Note_on_c, 0, 60, 49
2, 489471, Note_on_c, 0, 58, 42
2, 491051, Note_on_c, 0, 53, 0
2, 491281, Note_on_c, 0, 58, 0
2, 491281, Note_on_c, 0, 60, 0
2, 491326, Note_on_c, 0, 63, 0
2, 492391, Note_on_c, 0, 56, 41
2, 492411, Note_on_c, 0, 62, 34
2, 492421, Note_on_c, 0, 60, 37
2, 492561, Note_on_c, 0, 62, 0
2, 492591, Note_on_c, 0, 60, 0
2, 492711, Note_on_c, 0, 56, 0
2, 493341, Note_on_c, 0, 75, 77
2, 493701, Note_on_c, 0, 75, 0
2, 493901, Note_on_c, 0, 76, 81
2, 494021, Note_on_c, 0, 56, 41
2, 494181, Note_on_c, 0, 76, 0
2, 494311, Note_on_c, 0, 79, 89
2, 494351, Note_on_c, 0, 56, 0
2, 494691, Note_on_c, 0, 79, 0
2, 494811, Note_on_c, 0, 77, 81
2, 494981, Note_on_c, 0, 63, 50
2, 495021, Note_on_c, 0, 59, 50
2, 495081, Note_on_c, 0, 63, 0
2, 495191, Note_on_c, 0, 59, 0
2, 495201, Note_on_c, 0, 77, 0
2, 495261, Note_on_c, 0, 73, 54
2, 495751, Note_on_c, 0, 73, 0
2, 496211, Note_on_c, 0, 77, 90
2, 496641, Note_on_c, 0, 77, 0
2, 496801, Note_on_c, 0, 73, 43
2, 496861, Note_on_c, 0, 61, 31
2, 496921, Note_on_c, 0, 73, 0
2, 497011, Note_on_c, 0, 61, 0
2, 497141, Note_on_c, 0, 75, 84
2, 497581, Note_on_c, 0, 75, 0
2, 497741, Note_on_c, 0, 73, 68
2, 497841, Note_on_c, 0, 58, 47
2, 497841, Note_on_c, 0, 63, 42
2, 498001, Note_on_c, 0, 73, 0
2, 498041, Note_on_c, 0, 52, 24
2, 498161, Note_on_c, 0, 72, 51
2, 498531, Note_on_c, 0, 72, 0
2, 498661, Note_on_c, 0, 52, 0
2, 498731, Note_on_c, 0, 70, 67
2, 498811, Note_on_c, 0, 63, 0
2, 498911, Note_on_c, 0, 58, 0
2, 499061, Note_on_c, 0, 70, 0
2, 499691, Note_on_c, 0, 63, 48
2, 499691, Note_on_c, 0, 68, 63
2, 499791, Note_on_c, 0, 68, 0
2, 499791, Note_on_c, 0, 60, 38
2, 499801, Note_on_c, 0, 63, 0
2, 499831, Note_on_c, 0, 56, 36
2, 499941, Note_on_c, 0, 60, 0
2, 500041, Note_on_c, 0, 56, 0
2, 500081, Note_on_c, 0, 67, 71
2, 500651, Note_on_c, 0, 67, 0
2, 500791, Note_on_c, 0, 68, 38
2, 500871, Note_on_c, 0, 67, 72
2, 500931, Note_on_c, 0, 68, 0
2, 501111, Note_on_c, 0, 65, 50
2, 501191, Note_on_c, 0, 67, 0
2, 501531, Note_on_c, 0, 65, 0
2, 501761, Note_on_c, 0, 64, 48
2, 501881, Note_on_c, 0, 64, 0
2, 501981, Note_on_c, 0, 67, 63
2, 502521, Note_on_c, 0, 60, 32
2, 502591, Note_on_c, 0, 67, 0
2, 502591, Note_on_c, 0, 56, 31
2, 502661, Note_on_c, 0, 60, 0
2, 502661, Note_on_c, 0, 64, 47
2, 502761, Note_on_c, 0, 56, 0
2, 502951, Note_on_c, 0, 65, 63
2, 502961, Note_on_c, 0, 64, 0
2, 503311, Note_on_c, 0, 65, 0
2, 503551, Note_on_c, 0, 63, 57
2, 503571, Note_on_c, 0, 49, 41
2, 503581, Note_on_c, 0, 59, 43
2, 503601, Note_on_c, 0, 56, 42
2, 503861, Note_on_c, 0, 59, 0
2, 503891, Note_on_c, 0, 63, 0
2, 503921, Note_on_c, 0, 56, 0
2, 504171, Note_on_c, 0, 63, 50
2, 504221, Note_on_c, 0, 59, 54
2, 504271, Note_on_c, 0, 56, 43
2, 504451, Note_on_c, 0, 59, 0
2, 504541, Note_on_c, 0, 63, 0
2, 504581, Note_on_c, 0, 56, 0
2, 504841, Note_on_c, 0, 56, 48
2, 504861, Note_on_c, 0, 63, 55
2, 504941, Note_on_c, 0, 59, 49
2, 505271, Note_on_c, 0, 59, 0
2, 505341, Note_on_c, 0, 63, 0
2, 505391, Note_on_c, 0, 56, 0
2, 505581, Note_on_c, 0, 63, 59
2, 505621, Note_on_c, 0, 59, 54
2, 505631, Note_on_c, 0, 58, 54
2, 506641, Note_on_c, 0, 58, 0
2, 506641, Note_on_c, 0, 59, 0
2, 506831, Note_on_c, 0, 63, 0
2, 506861, Note_on_c, 0, 56, 44
2, 507501, Note_on_c, 0, 70, 61
2, 507531, Note_on_c, 0, 60, 50
2, 507541, Note_on_c, 0, 56, 0
2, 507541, Note_on_c, 0, 65, 57
2, 507571, Note_on_c, 0, 49, 0
2, 507591, Note_on_c, 0, 55, 48
2, 508481, Note_on_c, 0, 60, 0
2, 508741, Note_on_c, 0, 65, 0
2, 509061, Note_on_c, 0, 70, 0
2, 509441, Note_on_c, 0, 54, 57
2, 509601, Note_on_c, 0, 54, 0
2, 509601, Note_on_c, 0, 55, 0
2, 509691, Note_on_c, 0, 66, 56
2, 510121, Note_on_c, 0, 66, 0
2, 510301, Note_on_c, 0, 67, 46
2, 510731, Note_on_c, 0, 67, 0
2, 511481, Note_on_c, 0, 65, 72
2, 511521, Note_on_c, 0, 56, 57
2, 511551, Note_on_c, 0, 60, 48
2, 511691, Note_on_c, 0, 55, 28
2, 512481, Note_on_c, 0, 55, 0
2, 512481, Note_on_c, 0, 65, 0
2, 512531, Note_on_c, 0, 60, 0
2, 512661, Note_on_c, 0, 56, 0
2, 513141, Note_on_c, 0, 63, 70
2, 513181, Note_on_c, 0, 56, 48
2, 513181, Note_on_c, 0, 59, 61
2, 513301, Note_on_c, 0, 53, 34
2, 514041, Note_on_c, 0, 67, 66
2, 514181, Note_on_c, 0, 63, 0
2, 514291, Note_on_c, 0, 67, 0
2, 514331, Note_on_c, 0, 59, 0
2, 514481, Note_on_c, 0, 70, 57
2, 514511, Note_on_c, 0, 53, 0
2, 514811, Note_on_c, 0, 70, 0
2, 514811, Note_on_c, 0, 56, 0
2, 515031, Note_on_c, 0, 71, 107
2, 515241, Note_on_c, 0, 51, 57
2, 515241, Note_on_c, 0, 62, 60
2, 515321, Note_on_c, 0, 71, 0
2, 515341, Note_on_c, 0, 57, 50
2, 515491, Note_on_c, 0, 74, 122
2, 515811, Note_on_c, 0, 62, 0
2, 515841, Note_on_c, 0, 74, 0
2, 516041, Note_on_c, 0, 74, 115
2, 516371, Note_on_c, 0, 74, 0
2, 516421, Note_on_c, 0, 57, 0
2, 516431, Note_on_c, 0, 67, 64
2, 516531, Note_on_c, 0, 51, 0
2, 516761, Note_on_c, 0, 67, 0
2, 516961, Note_on_c, 0, 57, 49
2, 516981, Note_on_c, 0, 67, 79
2, 517261, Note_on_c, 0, 67, 0
2, 517341, Note_on_c, 0, 57, 0
2, 517371, Note_on_c, 0, 72, 79
2, 517651, Note_on_c, 0, 72, 0
2, 517941, Note_on_c, 0, 72, 82
2, 517951, Note_on_c, 0, 51, 43
2, 517981, Note_on_c, 0, 57, 55
2, 518081, Note_on_c, 0, 51, 0
2, 518221, Note_on_c, 0, 57, 0
2, 518281, Note_on_c, 0, 72, 0
2, 518371, Note_on_c, 0, 65, 57
2, 518501, Note_on_c, 0, 65, 0
2, 518861, Note_on_c, 0, 65, 64
2, 519051, Note_on_c, 0, 65, 0
2, 519221, Note_on_c, 0, 67, 73
2, 519521, Note_on_c, 0, 67, 0
2, 519741, Note_on_c, 0, 67, 76
2, 519931, Note_on_c, 0, 60, 34
2, 519981, Note_on_c, 0, 56, 34
2, 520031, Note_on_c, 0, 53, 31
2, 520041, Note_on_c, 0, 67, 0
2, 520061, Note_on_c, 0, 60, 0
2, 520111, Note_on_c, 0, 63, 63
2, 520181, Note_on_c, 0, 53, 0
2, 520201, Note_on_c, 0, 56, 0
2, 520471, Note_on_c, 0, 63, 0
2, 520601, Note_on_c, 0, 56, 46
2, 520721, Note_on_c, 0, 63, 75
2, 520731, Note_on_c, 0, 56, 0
2, 521131, Note_on_c, 0, 63, 0
2, 521151, Note_on_c, 0, 60, 58
2, 521641, Note_on_c, 0, 56, 49
2, 521771, Note_on_c, 0, 56, 0
2, 521821, Note_on_c, 0, 60, 0
2, 522031, Note_on_c, 0, 62, 79
2, 522751, Note_on_c, 0, 62, 0
2, 522991, Note_on_c, 0, 63, 69
2, 523021, Note_on_c, 0, 56, 55
2, 523031, Note_on_c, 0, 60, 57
2, 523601, Note_on_c, 0, 60, 0
2, 523911, Note_on_c, 0, 65, 70
2, 523921, Note_on_c, 0, 46, 60
2, 523941, Note_on_c, 0, 60, 60
2, 524181, Control_c, 0, 64, 127
2, 524261, Note_on_c, 0, 60, 0
2, 524261, Note_on_c, 0, 56, 0
2, 524291, Note_on_c, 0, 63, 0
2, 524701, Note_on_c, 0, 65, 0
2, 524911, Note_on_c, 0, 67, 72
2, 524941, Note_on_c, 0, 62, 75
2, 524961, Note_on_c, 0, 59, 75
2, 524971, Note_on_c, 0, 56, 60
2, 525001, Control_c, 0, 64, 0
2, 525731, Control_c, 0, 64, 127
2, 526031, Note_on_c, 0, 67, 0
2, 526101, Note_on_c, 0, 59, 0
2, 526171, Note_on_c, 0, 62, 0
2, 526561, Note_on_c, 0, 56, 0
2, 526871, Note_on_c, 0, 68, 76
2, 526891, Control_c, 0, 64, 0
2, 526891, Note_on_c, 0, 63, 75
2, 526921, Note_on_c, 0, 56, 60
2, 526941, Note_on_c, 0, 60, 73
2, 527531, Control_c, 0, 64, 127
2, 527711, Note_on_c, 0, 60, 0
2, 527851, Note_on_c, 0, 68, 0
2, 527961, Note_on_c, 0, 56, 0
2, 528051, Note_on_c, 0, 63, 0
2, 528241, Control_c, 0, 64, 0
2, 528411, Note_on_c, 0, 69, 79
2, 528431, Note_on_c, 0, 65, 75
2, 528461, Note_on_c, 0, 62, 77
2, 528541, Note_on_c, 0, 56, 64
2, 528701, Control_c, 0, 64, 127
2, 529011, Note_on_c, 0, 65, 0
2, 529011, Note_on_c, 0, 69, 0
2, 529211, Note_on_c, 0, 62, 0
2, 529391, Note_on_c, 0, 46, 0
2, 529431, Note_on_c, 0, 56, 0
2, 529451, Note_on_c, 0, 54, 50
2, 529731, Control_c, 0, 64, 0
2, 529741, Note_on_c, 0, 70, 84
2, 529751, Note_on_c, 0, 65, 82
2, 529761, Note_on_c, 0, 55, 66
2, 529781, Note_on_c, 0, 60, 75
2, 529841, Note_on_c, 0, 54, 0
2, 530931, Note_on_c, 0, 65, 0
2, 530961, Note_on_c, 0, 70, 0
2, 531031, Note_on_c, 0, 60, 0
2, 531291, Note_on_c, 0, 69, 71
2, 531311, Note_on_c, 0, 64, 72
2, 531331, Note_on_c, 0, 59, 64
2, 531371, Note_on_c, 0, 54, 63
2, 531471, Note_on_c, 0, 55, 0
2, 531831, Note_on_c, 0, 69, 0
2, 531911, Note_on_c, 0, 59, 0
2, 532071, Note_on_c, 0, 64, 0
2, 532251, Note_on_c, 0, 51, 48
2, 532541, Note_on_c, 0, 70, 75
2, 532561, Note_on_c, 0, 55, 60
2, 532601, Note_on_c, 0, 51, 0
2, 532601, Note_on_c, 0, 65, 71
2, 532601, Note_on_c, 0, 60, 63
2, 532631, Note_on_c, 0, 54, 0
2, 532781, Note_on_c, 0, 55, 0
2, 532851, Note_on_c, 0, 60, 0
2, 532961, Note_on_c, 0, 65, 0
2, 532981, Note_on_c, 0, 70, 0
2, 533571, Note_on_c, 0, 62, 63
2, 533601, Note_on_c, 0, 53, 49
2, 533611, Note_on_c, 0, 58, 58
2, 533621, Note_on_c, 0, 55, 50
2, 533741, Note_on_c, 0, 53, 0
2, 533801, Note_on_c, 0, 62, 0
2, 533851, Note_on_c, 0, 55, 0
2, 534081, Note_on_c, 0, 58, 0
2, 534551, Note_on_c, 0, 63, 73
2, 534551, Note_on_c, 0, 58, 61
2, 534571, Note_on_c, 0, 52, 66
2, 535731, Note_on_c, 0, 63, 0
2, 535831, Note_on_c, 0, 58, 0
2, 535941, Note_on_c, 0, 52, 0
2, 536451, Note_on_c, 0, 85, 94
2, 536471, Note_on_c, 0, 63, 82
2, 536471, Note_on_c, 0, 73, 90
2, 536481, Note_on_c, 0, 80, 87
2, 536491, Note_on_c, 0, 58, 68
2, 536491, Note_on_c, 0, 52, 74
2, 536901, Note_on_c, 0, 63, 0
2, 536971, Note_on_c, 0, 73, 0
2, 537011, Note_on_c, 0, 80, 0
2, 537011, Note_on_c, 0, 85, 0
2, 537111, Note_on_c, 0, 63, 63
2, 537111, Note_on_c, 0, 84, 69
2, 537141, Note_on_c, 0, 72, 61
2, 537191, Note_on_c, 0, 79, 63
2, 537401, Note_on_c, 0, 52, 0
2, 537441, Note_on_c, 0, 84, 0
2, 537471, Note_on_c, 0, 72, 0
2, 537471, Note_on_c, 0, 79, 0
2, 537521, Note_on_c, 0, 58, 0
2, 537561, Note_on_c, 0, 63, 0
2, 538021, Note_on_c, 0, 82, 86
2, 538021, Note_on_c, 0, 56, 67
2, 538031, Note_on_c, 0, 63, 62
2, 538031, Note_on_c, 0, 60, 61
2, 538031, Note_on_c, 0, 67, 72
2, 538031, Note_on_c, 0, 70, 82
2, 538171, Note_on_c, 0, 76, 40
2, 538241, Control_c, 0, 64, 127
2, 538281, Note_on_c, 0, 76, 0
2, 538881, Note_on_c, 0, 82, 0
2, 538881, Note_on_c, 0, 67, 0
2, 538991, Note_on_c, 0, 70, 0
2, 539001, Note_on_c, 0, 56, 0
2, 539071, Note_on_c, 0, 60, 0
2, 539131, Note_on_c, 0, 63, 0
2, 539341, Note_on_c, 0, 80, 58
2, 539371, Note_on_c, 0, 56, 49
2, 539381, Control_c, 0, 64, 0
2, 539381, Note_on_c, 0, 63, 58
2, 539401, Note_on_c, 0, 68, 61
2, 539401, Note_on_c, 0, 75, 66
2, 539401, Note_on_c, 0, 60, 43
2, 539551, Note_on_c, 0, 60, 0
2, 539701, Note_on_c, 0, 80, 0
2, 539701, Note_on_c, 0, 68, 0
2, 539711, Note_on_c, 0, 63, 0
2, 539721, Note_on_c, 0, 56, 0
2, 539791, Note_on_c, 0, 75, 0
2, 540311, Note_on_c, 0, 79, 75
2, 540361, Note_on_c, 0, 63, 50
2, 540361, Note_on_c, 0, 56, 52
2, 540361, Note_on_c, 0, 67, 56
2, 540441, Note_on_c, 0, 60, 52
2, 540661, Note_on_c, 0, 79, 0
2, 540801, Note_on_c, 0, 67, 0
2, 540831, Note_on_c, 0, 56, 0
2, 540901, Note_on_c, 0, 60, 0
2, 540951, Note_on_c, 0, 63, 0
2, 541101, Note_on_c, 0, 77, 66
2, 541101, Note_on_c, 0, 56, 49
2, 541131, Control_c, 0, 64, 127
2, 541141, Note_on_c, 0, 65, 55
2, 541221, Note_on_c, 0, 75, 40
2, 541231, Note_on_c, 0, 65, 0
2, 541361, Note_on_c, 0, 75, 0
2, 541411, Note_on_c, 0, 77, 0
2, 541431, Note_on_c, 0, 56, 0
2, 541841, Control_c, 0, 64, 0
2, 541991, Note_on_c, 0, 89, 98
2, 542001, Note_on_c, 0, 63, 85
2, 542011, Note_on_c, 0, 88, 98
2, 542011, Note_on_c, 0, 55, 75
2, 542011, Note_on_c, 0, 76, 88
2, 542011, Note_on_c, 0, 77, 94
2, 542011, Note_on_c, 0, 60, 71
2, 542011, Note_on_c, 0, 57, 69
2, 542051, Note_on_c, 0, 58, 48
2, 542081, Note_on_c, 0, 87, 45
2, 542131, Note_on_c, 0, 76, 0
2, 542171, Note_on_c, 0, 58, 0
2, 542201, Note_on_c, 0, 87, 0
2, 542461, Control_c, 0, 64, 127
2, 542901, Note_on_c, 0, 55, 0
2, 542911, Note_on_c, 0, 88, 0
2, 542941, Note_on_c, 0, 89, 0
2, 542991, Note_on_c, 0, 77, 0
2, 543031, Note_on_c, 0, 57, 0
2, 543031, Note_on_c, 0, 63, 0
2, 543171, Control_c, 0, 64, 0
2, 543221, Note_on_c, 0, 63, 75
2, 543241, Note_on_c, 0, 55, 63
2, 543261, Note_on_c, 0, 87, 79
2, 543301, Note_on_c, 0, 75, 80
2, 543331, Note_on_c, 0, 57, 52
2, 543601, Note_on_c, 0, 75, 0
2, 543601, Note_on_c, 0, 55, 0
2, 543611, Note_on_c, 0, 57, 0
2, 543631, Note_on_c, 0, 63, 0
2, 543661, Note_on_c, 0, 87, 0
2, 543771, Note_on_c, 0, 60, 0
2, 544221, Note_on_c, 0, 86, 80
2, 544231, Note_on_c, 0, 54, 63
2, 544251, Note_on_c, 0, 64, 61
2, 544261, Note_on_c, 0, 74, 77
2, 544261, Note_on_c, 0, 81, 69
2, 544261, Note_on_c, 0, 60, 50
2, 544521, Note_on_c, 0, 81, 0
2, 544521, Note_on_c, 0, 64, 0
2, 544571, Note_on_c, 0, 86, 0
2, 544671, Note_on_c, 0, 54, 0
2, 544701, Note_on_c, 0, 60, 0
2, 544701, Note_on_c, 0, 74, 0
2, 545141, Note_on_c, 0, 54, 58
2, 545161, Note_on_c, 0, 84, 75
2, 545191, Note_on_c, 0, 72, 67
2, 545191, Note_on_c, 0, 64, 59
2, 545291, Control_c, 0, 64, 127
2, 545381, Note_on_c, 0, 64, 0
2, 545451, Note_on_c, 0, 84, 0
2, 545471, Note_on_c, 0, 54, 0
2, 545491, Note_on_c, 0, 72, 0
2, 546141, Control_c, 0, 64, 0
2, 546141, Note_on_c, 0, 65, 63
2, 546161, Note_on_c, 0, 82, 74
2, 546161, Note_on_c, 0, 62, 49
2, 546211, Note_on_c, 0, 60, 56
2, 546221, Note_on_c, 0, 70, 68
2, 546251, Note_on_c, 0, 55, 45
2, 546951, Control_c, 0, 64, 127
2, 547311, Note_on_c, 0, 55, 0
2, 547331, Note_on_c, 0, 65, 0
2, 547401, Note_on_c, 0, 60, 0
2, 547491, Note_on_c, 0, 62, 0
2, 547631, Note_on_c, 0, 70, 0
2, 547771, Note_on_c, 0, 65, 54
2, 547791, Note_on_c, 0, 60, 49
2, 547811, Note_on_c, 0, 62, 56
2, 547841, Note_on_c, 0, 55, 44
2, 547961, Note_on_c, 0, 82, 0
2, 548121, Control_c, 0, 64, 0
2, 548851, Note_on_c, 0, 58, 22
2, 548931, Note_on_c, 0, 62, 0
2, 548981, Note_on_c, 0, 65, 0
2, 549021, Note_on_c, 0, 60, 0
2, 549121, Note_on_c, 0, 55, 0
2, 549201, Note_on_c, 0, 58, 0
2, 549971, Note_on_c, 0, 63, 57
2, 549981, Note_on_c, 0, 58, 52
2, 549991, Note_on_c, 0, 60, 54
2, 550111, Note_on_c, 0, 53, 36
2, 551071, Note_on_c, 0, 63, 0
2, 551141, Note_on_c, 0, 60, 0
2, 551271, Note_on_c, 0, 58, 0
2, 551521, Note_on_c, 0, 63, 42
2, 551561, Note_on_c, 0, 60, 38
2, 551651, Note_on_c, 0, 63, 0
2, 551671, Note_on_c, 0, 58, 34
2, 551841, Note_on_c, 0, 82, 94
2, 552421, Note_on_c, 0, 81, 68
2, 552551, Note_on_c, 0, 82, 0
2, 552591, Note_on_c, 0, 80, 61
2, 552661, Note_on_c, 0, 81, 0
2, 552691, Note_on_c, 0, 53, 0
2, 552711, Note_on_c, 0, 60, 0
2, 552831, Note_on_c, 0, 58, 0
2, 552881, Note_on_c, 0, 79, 55
2, 553091, Note_on_c, 0, 80, 0
2, 553161, Note_on_c, 0, 79, 0
2, 553461, Note_on_c, 0, 82, 88
2, 554061, Note_on_c, 0, 81, 49
2, 554191, Note_on_c, 0, 82, 0
2, 554251, Note_on_c, 0, 80, 56
2, 554341, Note_on_c, 0, 81, 0
2, 554531, Note_on_c, 0, 79, 49
2, 554611, Note_on_c, 0, 80, 0
2, 554651, Note_on_c, 0, 79, 0
2, 554861, Note_on_c, 0, 82, 89
2, 555481, Note_on_c, 0, 58, 39
2, 555611, Note_on_c, 0, 58, 0
2, 556261, Note_on_c, 0, 58, 58
2, 556281, Note_on_c, 0, 62, 56
2, 556331, Note_on_c, 0, 55, 39
2, 556381, Note_on_c, 0, 62, 0
2, 556451, Note_on_c, 0, 55, 0
2, 556531, Note_on_c, 0, 58, 0
2, 557581, Note_on_c, 0, 63, 57
2, 557611, Note_on_c, 0, 58, 51
2, 557631, Note_on_c, 0, 82, 0
2, 557631, Note_on_c, 0, 52, 57
2, 558581, Note_on_c, 0, 78, 84
2, 558831, Note_on_c, 0, 52, 0
2, 558941, Note_on_c, 0, 63, 0
2, 559011, Note_on_c, 0, 78, 0
2, 559171, Note_on_c, 0, 58, 0
2, 559281, Note_on_c, 0, 79, 94
2, 559731, Note_on_c, 0, 79, 0
2, 560091, Note_on_c, 0, 78, 83
2, 560091, Note_on_c, 0, 63, 66
2, 560151, Note_on_c, 0, 52, 45
2, 560161, Note_on_c, 0, 58, 45
2, 560201, Note_on_c, 0, 63, 0
2, 560261, Note_on_c, 0, 52, 0
2, 560301, Note_on_c, 0, 58, 0
2, 560421, Note_on_c, 0, 78, 0
2, 560581, Note_on_c, 0, 73, 65
2, 560871, Note_on_c, 0, 73, 0
2, 561471, Note_on_c, 0, 72, 61
2, 561481, Note_on_c, 0, 67, 46
2, 561481, Note_on_c, 0, 56, 38
2, 561531, Note_on_c, 0, 63, 46
2, 561571, Note_on_c, 0, 60, 47
2, 562541, Note_on_c, 0, 67, 0
2, 562571, Note_on_c, 0, 60, 0
2, 562601, Note_on_c, 0, 63, 0
2, 562651, Note_on_c, 0, 56, 0
2, 562771, Note_on_c, 0, 72, 0
2, 562851, Note_on_c, 0, 75, 72
2, 563161, Note_on_c, 0, 67, 43
2, 563191, Note_on_c, 0, 63, 42
2, 563241, Note_on_c, 0, 75, 0
2, 563251, Note_on_c, 0, 56, 24
2, 563311, Note_on_c, 0, 67, 0
2, 563361, Note_on_c, 0, 68, 49
2, 563601, Note_on_c, 0, 56, 0
2, 563601, Note_on_c, 0, 60, 10
2, 563721, Note_on_c, 0, 68, 0
2, 563911, Note_on_c, 0, 63, 0
2, 563951, Note_on_c, 0, 60, 0
2, 563971, Note_on_c, 0, 68, 63
2, 564221, Note_on_c, 0, 68, 0
2, 564791, Note_on_c, 0, 63, 56
2, 564851, Note_on_c, 0, 59, 54
2, 564901, Note_on_c, 0, 53, 33
2, 565051, Note_on_c, 0, 53, 0
2, 565101, Note_on_c, 0, 59, 0
2, 565101, Note_on_c, 0, 63, 0
2, 566131, Note_on_c, 0, 63, 54
2, 566151, Note_on_c, 0, 59, 56
2, 566161, Note_on_c, 0, 53, 54
2, 566171, Note_on_c, 0, 58, 48
2, 567301, Control_c, 0, 64, 127
2, 567341, Note_on_c, 0, 53, 0
2, 567351, Note_on_c, 0, 59, 0
2, 567371, Note_on_c, 0, 63, 0
2, 567381, Note_on_c, 0, 58, 0
2, 567811, Note_on_c, 0, 63, 61
2, 567881, Note_on_c, 0, 59, 48
2, 567881, Note_on_c, 0, 58, 42
2, 568021, Note_on_c, 0, 59, 0
2, 568131, Note_on_c, 0, 58, 0
2, 568261, Note_on_c, 0, 63, 0
2, 569041, Control_c, 0, 64, 0
2, 569121, Note_on_c, 0, 65, 50
2, 569151, Note_on_c, 0, 62, 51
2, 569151, Note_on_c, 0, 55, 44
2, 569181, Note_on_c, 0, 60, 52
2, 569911, Control_c, 0, 64, 127
2, 570061, Note_on_c, 0, 62, 0
2, 570071, Note_on_c, 0, 58, 1
2, 570121, Note_on_c, 0, 60, 0
2, 570201, Note_on_c, 0, 65, 0
2, 570331, Note_on_c, 0, 58, 0
2, 570341, Note_on_c, 0, 55, 0
2, 570601, Note_on_c, 0, 82, 90
2, 570951, Note_on_c, 0, 82, 0
2, 571101, Control_c, 0, 64, 0
2, 571161, Note_on_c, 0, 80, 80
2, 571161, Note_on_c, 0, 65, 57
2, 571161, Note_on_c, 0, 54, 50
2, 571181, Note_on_c, 0, 58, 48
2, 571191, Note_on_c, 0, 82, 49
2, 571191, Note_on_c, 0, 60, 54
2, 571311, Note_on_c, 0, 82, 0
2, 571721, Note_on_c, 0, 80, 0
2, 571831, Note_on_c, 0, 72, 50
2, 571851, Note_on_c, 0, 65, 0
2, 571881, Note_on_c, 0, 60, 0
2, 571881, Control_c, 0, 64, 127
2, 571961, Note_on_c, 0, 58, 0
2, 572061, Note_on_c, 0, 72, 0
2, 572221, Note_on_c, 0, 54, 0
2, 572371, Control_c, 0, 64, 0
2, 572611, Note_on_c, 0, 53, 57
2, 572641, Note_on_c, 0, 58, 61
2, 572641, Note_on_c, 0, 62, 60
2, 572681, Note_on_c, 0, 55, 55
2, 572911, Control_c, 0, 64, 127
2, 573611, Note_on_c, 0, 62, 0
2, 573621, Note_on_c, 0, 65, 38
2, 573631, Note_on_c, 0, 67, 42
2, 573641, Note_on_c, 0, 55, 0
2, 573671, Note_on_c, 0, 53, 0
2, 573751, Note_on_c, 0, 67, 0
2, 573751, Note_on_c, 0, 65, 0
2, 573861, Note_on_c, 0, 58, 0
2, 573941, Note_on_c, 0, 73, 63
2, 574261, Note_on_c, 0, 73, 0
2, 574411, Control_c, 0, 64, 40
2, 574421, Control_c, 0, 64, 0
2, 574591, Note_on_c, 0, 78, 82
2, 574601, Note_on_c, 0, 63, 61
2, 574601, Note_on_c, 0, 68, 72
2, 574631, Note_on_c, 0, 66, 57
2, 574631, Note_on_c, 0, 58, 57
2, 574631, Note_on_c, 0, 52, 54
2, 574741, Note_on_c, 0, 66, 0
2, 574851, Control_c, 0, 64, 127
2, 575071, Note_on_c, 0, 63, 0
2, 575251, Note_on_c, 0, 52, 0
2, 575291, Note_on_c, 0, 58, 0
2, 575341, Note_on_c, 0, 78, 0
2, 575391, Note_on_c, 0, 68, 0
2, 576281, Note_on_c, 0, 34, 63
2, 576761, Note_on_c, 0, 46, 53
2, 576891, Control_c, 0, 64, 88
2, 576911, Note_on_c, 0, 46, 0
2, 576911, Control_c, 0, 64, 0
2, 578431, Note_on_c, 0, 41, 45
2, 578611, Note_on_c, 0, 41, 0
2, 578731, Note_on_c, 0, 60, 66
2, 578741, Note_on_c, 0, 46, 57
2, 578771, Note_on_c, 0, 51, 66
2, 578791, Note_on_c, 0, 56, 57
2, 578991, Note_on_c, 0, 60, 0
2, 579061, Note_on_c, 0, 51, 0
2, 579071, Note_on_c, 0, 46, 0
2, 579131, Note_on_c, 0, 56, 0
2, 579761, Note_on_c, 0, 61, 66
2, 579791, Note_on_c, 0, 46, 57
2, 579791, Note_on_c, 0, 52, 65
2, 579871, Note_on_c, 0, 57, 47
2, 579901, Note_on_c, 0, 56, 31
2, 579991, Note_on_c, 0, 52, 0
2, 580051, Note_on_c, 0, 56, 0
2, 580081, Note_on_c, 0, 61, 0
2, 580111, Note_on_c, 0, 57, 0
2, 580171, Note_on_c, 0, 46, 0
2, 580731, Note_on_c, 0, 53, 78
2, 580731, Note_on_c, 0, 62, 68
2, 580731, Note_on_c, 0, 46, 57
2, 580731, Note_on_c, 0, 58, 60
2, 581481, Note_on_c, 0, 62, 0
2, 581731, Note_on_c, 0, 53, 0
2, 581821, Note_on_c, 0, 46, 0
2, 581911, Note_on_c, 0, 58, 0
2, 582251, Note_on_c, 0, 63, 71
2, 582271, Note_on_c, 0, 54, 78
2, 582271, Note_on_c, 0, 59, 75
2, 582321, Note_on_c, 0, 46, 62
2, 582341, Control_c, 0, 64, 127
2, 582381, Note_on_c, 0, 34, 0
2, 582491, Note_on_c, 0, 46, 0
2, 582751, Note_on_c, 0, 54, 0
2, 582771, Note_on_c, 0, 59, 0
2, 582901, Note_on_c, 0, 63, 0
2, 583596, Note_on_c, 0, 46, 69
2, 583596, Note_on_c, 0, 56, 75
2, 583596, Note_on_c, 0, 61, 63
2, 583641, Note_on_c, 0, 65, 57
2, 583651, Control_c, 0, 64, 0
2, 584241, Note_on_c, 0, 65, 0
2, 584311, Control_c, 0, 64, 127
2, 584571, Note_on_c, 0, 56, 0
2, 584621, Note_on_c, 0, 61, 0
2, 584781, Note_on_c, 0, 46, 0
2, 585121, Control_c, 0, 64, 0
2, 585141, Note_on_c, 0, 66, 72
2, 585161, Note_on_c, 0, 62, 78
2, 585171, Note_on_c, 0, 46, 72
2, 585171, Note_on_c, 0, 57, 75
2, 585531, Control_c, 0, 64, 127
2, 585601, Note_on_c, 0, 57, 0
2, 585701, Note_on_c, 0, 62, 0
2, 585881, Note_on_c, 0, 66, 0
2, 586301, Note_on_c, 0, 53, 24
2, 586441, Note_on_c, 0, 53, 0
2, 586481, Note_on_c, 0, 67, 75
2, 586501, Note_on_c, 0, 59, 74
2, 586501, Note_on_c, 0, 63, 68
2, 586531, Note_on_c, 0, 56, 64
2, 586551, Control_c, 0, 64, 0
2, 587201, Control_c, 0, 64, 127
2, 587291, Note_on_c, 0, 67, 0
2, 587321, Note_on_c, 0, 59, 0
2, 587521, Note_on_c, 0, 63, 0
2, 587771, Note_on_c, 0, 56, 0
2, 588331, Control_c, 0, 64, 0
2, 588381, Note_on_c, 0, 68, 75
2, 588411, Note_on_c, 0, 65, 68
2, 588421, Note_on_c, 0, 60, 82
2, 588431, Note_on_c, 0, 56, 72
2, 588521, Note_on_c, 0, 63, 44
2, 588991, Control_c, 0, 64, 127
2, 589071, Note_on_c, 0, 60, 0
2, 589091, Note_on_c, 0, 63, 0
2, 589171, Note_on_c, 0, 65, 0
2, 589171, Note_on_c, 0, 68, 0
2, 589341, Note_on_c, 0, 56, 0
2, 589631, Control_c, 0, 64, 0
2, 589881, Note_on_c, 0, 69, 75
2, 589921, Note_on_c, 0, 63, 80
2, 589951, Note_on_c, 0, 60, 63
2, 589961, Note_on_c, 0, 56, 63
2, 589991, Note_on_c, 0, 46, 0
2, 590091, Note_on_c, 0, 60, 0
2, 590111, Control_c, 0, 64, 127
2, 590161, Note_on_c, 0, 56, 0
2, 590211, Note_on_c, 0, 63, 0
2, 590211, Note_on_c, 0, 69, 0
2, 590671, Note_on_c, 0, 61, 57
2, 590801, Note_on_c, 0, 61, 0
2, 591211, Note_on_c, 0, 72, 80
2, 591211, Note_on_c, 0, 66, 81
2, 591221, Note_on_c, 0, 62, 75
2, 591221, Note_on_c, 0, 56, 60
2, 591221, Note_on_c, 0, 61, 49
2, 591371, Control_c, 0, 64, 0
2, 591671, Note_on_c, 0, 67, 49
2, 591681, Note_on_c, 0, 61, 0
2, 591691, Note_on_c, 0, 66, 0
2, 591741, Note_on_c, 0, 56, 0
2, 592011, Note_on_c, 0, 72, 0
2, 592061, Note_on_c, 0, 67, 0
2, 592211, Note_on_c, 0, 60, 57
2, 592251, Note_on_c, 0, 55, 52
2, 592261, Note_on_c, 0, 70, 85
2, 593371, Note_on_c, 0, 62, 0
2, 593521, Note_on_c, 0, 60, 0
2, 593871, Note_on_c, 0, 62, 54
2, 593901, Note_on_c, 0, 60, 40
2, 594061, Note_on_c, 0, 70, 0
2, 594081, Note_on_c, 0, 60, 0
2, 594091, Note_on_c, 0, 55, 0
2, 594171, Note_on_c, 0, 62, 0
2, 594171, Note_on_c, 0, 67, 72
2, 594681, Note_on_c, 0, 67, 0
2, 594761, Note_on_c, 0, 66, 49
2, 594871, Note_on_c, 0, 60, 37
2, 594931, Note_on_c, 0, 66, 0
2, 595021, Note_on_c, 0, 60, 0
2, 595161, Note_on_c, 0, 67, 49
2, 595561, Note_on_c, 0, 67, 0
2, 595661, Note_on_c, 0, 74, 78
2, 596041, Note_on_c, 0, 74, 0
2, 596081, Note_on_c, 0, 72, 66
2, 596581, Note_on_c, 0, 72, 0
2, 596721, Note_on_c, 0, 62, 39
2, 596721, Note_on_c, 0, 58, 41
2, 596861, Note_on_c, 0, 62, 0
2, 596911, Note_on_c, 0, 58, 0
2, 597061, Note_on_c, 0, 66, 56
2, 597521, Note_on_c, 0, 62, 38
2, 597611, Note_on_c, 0, 66, 0
2, 597641, Note_on_c, 0, 58, 31
2, 597651, Note_on_c, 0, 62, 0
2, 597791, Note_on_c, 0, 58, 0
2, 597931, Note_on_c, 0, 65, 61
2, 598381, Note_on_c, 0, 65, 0
2, 598661, Note_on_c, 0, 58, 43
2, 598891, Note_on_c, 0, 64, 63
2, 598931, Note_on_c, 0, 58, 0
2, 599521, Note_on_c, 0, 64, 0
2, 599881, Note_on_c, 0, 61, 59
2, 600491, Note_on_c, 0, 61, 0
2, 600791, Note_on_c, 0, 60, 57
2, 601251, Note_on_c, 0, 60, 0
2, 602401, Note_on_c, 0, 63, 50
2, 602401, Note_on_c, 0, 60, 48
2, 602481, Note_on_c, 0, 56, 39
2, 602531, Note_on_c, 0, 60, 0
2, 602551, Note_on_c, 0, 63, 0
2, 602621, Note_on_c, 0, 56, 0
2, 603701, Note_on_c, 0, 63, 58
2, 603801, Note_on_c, 0, 60, 42
2, 603831, Note_on_c, 0, 63, 0
2, 603931, Note_on_c, 0, 60, 0
2, 605221, Note_on_c, 0, 65, 50
2, 605281, Note_on_c, 0, 54, 38
2, 605291, Note_on_c, 0, 60, 42
2, 605291, Note_on_c, 0, 58, 40
2, 605371, Note_on_c, 0, 65, 0
2, 605411, Note_on_c, 0, 60, 0
2, 605471, Note_on_c, 0, 54, 0
2, 605491, Note_on_c, 0, 58, 0
2, 607111, Note_on_c, 0, 65, 65
2, 607131, Note_on_c, 0, 62, 57
2, 607171, Note_on_c, 0, 60, 49
2, 607201, Note_on_c, 0, 65, 0
2, 607261, Note_on_c, 0, 62, 0
2, 607271, Note_on_c, 0, 60, 0
2, 607411, Note_on_c, 0, 89, 66
2, 607451, Note_on_c, 0, 77, 47
2, 607511, Note_on_c, 0, 89, 0
2, 607561, Note_on_c, 0, 77, 0
2, 607831, Note_on_c, 0, 86, 45
2, 607941, Note_on_c, 0, 86, 0
2, 608001, Note_on_c, 0, 89, 82
2, 608051, Note_on_c, 0, 62, 54
2, 608171, Note_on_c, 0, 62, 0
2, 608301, Note_on_c, 0, 86, 52
2, 608341, Note_on_c, 0, 89, 0
2, 608641, Note_on_c, 0, 82, 55
2, 608731, Note_on_c, 0, 86, 0
2, 608921, Note_on_c, 0, 82, 0
2, 608991, Note_on_c, 0, 77, 56
2, 609091, Note_on_c, 0, 77, 0
2, 609111, Note_on_c, 0, 62, 37
2, 609111, Note_on_c, 0, 60, 40
2, 609231, Note_on_c, 0, 60, 0
2, 609241, Note_on_c, 0, 62, 0
2, 610351, Note_on_c, 0, 63, 66
2, 610366, Note_on_c, 0, 60, 62
2, 610391, Note_on_c, 0, 58, 54
2, 610451, Note_on_c, 0, 53, 46
2, 611951, Note_on_c, 0, 63, 0
2, 612191, Note_on_c, 0, 53, 0
2, 612311, Note_on_c, 0, 58, 0
2, 612331, Note_on_c, 0, 60, 0
2, 612791, Note_on_c, 0, 63, 68
2, 612821, Note_on_c, 0, 60, 61
2, 612831, Note_on_c, 0, 58, 47
2, 612901, Note_on_c, 0, 53, 37
2, 612911, Note_on_c, 0, 63, 0
2, 612921, Note_on_c, 0, 60, 0
2, 613041, Note_on_c, 0, 53, 0
2, 613151, Note_on_c, 0, 58, 0
2, 613901, Note_on_c, 0, 62, 48
2, 614011, Note_on_c, 0, 62, 0
2, 614021, Note_on_c, 0, 55, 31
2, 614171, Note_on_c, 0, 55, 0
2, 614191, Note_on_c, 0, 89, 76
2, 614241, Note_on_c, 0, 77, 53
2, 614291, Note_on_c, 0, 89, 0
2, 614341, Note_on_c, 0, 77, 0
2, 614611, Note_on_c, 0, 86, 31
2, 614641, Note_on_c, 0, 58, 48
2, 614751, Note_on_c, 0, 86, 0
2, 614761, Note_on_c, 0, 89, 77
2, 614781, Note_on_c, 0, 77, 50
2, 614851, Note_on_c, 0, 58, 0
2, 614881, Note_on_c, 0, 77, 0
2, 615011, Note_on_c, 0, 86, 61
2, 615141, Note_on_c, 0, 89, 0
2, 615381, Note_on_c, 0, 82, 63
2, 615411, Note_on_c, 0, 86, 0
2, 615721, Note_on_c, 0, 82, 0
2, 615821, Note_on_c, 0, 58, 51
2, 615841, Note_on_c, 0, 62, 36
2, 615881, Note_on_c, 0, 77, 42
2, 615981, Note_on_c, 0, 62, 0
2, 615991, Note_on_c, 0, 77, 0
2, 616071, Note_on_c, 0, 58, 0
2, 616151, Note_on_c, 0, 85, 67
2, 616671, Note_on_c, 0, 85, 0
2, 617671, Note_on_c, 0, 84, 99
2, 617821, Note_on_c, 0, 58, 43
2, 617941, Note_on_c, 0, 58, 0
2, 618041, Note_on_c, 0, 84, 0
2, 618231, Note_on_c, 0, 85, 50
2, 618411, Note_on_c, 0, 84, 56
2, 618551, Note_on_c, 0, 85, 0
2, 618691, Note_on_c, 0, 84, 0
2, 618711, Note_on_c, 0, 83, 58
2, 618891, Note_on_c, 0, 58, 39
2, 618901, Note_on_c, 0, 83, 0
2, 619021, Note_on_c, 0, 82, 76
2, 619041, Note_on_c, 0, 58, 0
2, 619441, Note_on_c, 0, 82, 0
2, 619611, Note_on_c, 0, 84, 77
2, 619761, Note_on_c, 0, 58, 45
2, 619901, Note_on_c, 0, 58, 0
2, 619926, Note_on_c, 0, 84, 0
2, 620081, Note_on_c, 0, 79, 54
2, 620461, Note_on_c, 0, 79, 0
2, 620601, Note_on_c, 0, 77, 77
2, 620671, Note_on_c, 0, 63, 52
2, 620691, Note_on_c, 0, 58, 50
2, 620771, Note_on_c, 0, 63, 0
2, 620791, Note_on_c, 0, 58, 0
2, 620821, Note_on_c, 0, 77, 0
2, 621181, Note_on_c, 0, 75, 14
2, 621511, Note_on_c, 0, 75, 0
2, 621611, Note_on_c, 0, 72, 56
2, 621671, Note_on_c, 0, 58, 53
2, 621751, Note_on_c, 0, 72, 0
2, 621911, Note_on_c, 0, 58, 0
2, 621951, Note_on_c, 0, 75, 57
2, 622351, Note_on_c, 0, 75, 0
2, 622501, Note_on_c, 0, 77, 81
2, 622611, Note_on_c, 0, 63, 49
2, 622631, Note_on_c, 0, 60, 48
2, 622691, Note_on_c, 0, 56, 46
2, 622721, Note_on_c, 0, 63, 0
2, 622721, Note_on_c, 0, 53, 30
2, 622801, Note_on_c, 0, 77, 0
2, 622901, Note_on_c, 0, 53, 0
2, 622901, Note_on_c, 0, 79, 102
2, 622961, Note_on_c, 0, 60, 0
2, 623121, Note_on_c, 0, 56, 0
2, 623501, Note_on_c, 0, 79, 0
2, 623831, Note_on_c, 0, 72, 72
2, 624331, Note_on_c, 0, 72, 0
2, 624401, Note_on_c, 0, 68, 63
2, 624561, Note_on_c, 0, 63, 42
2, 624711, Note_on_c, 0, 63, 0
2, 624756, Note_on_c, 0, 68, 0
2, 624831, Note_on_c, 0, 67, 55
2, 625121, Note_on_c, 0, 67, 0
2, 625401, Note_on_c, 0, 63, 58
2, 625411, Note_on_c, 0, 56, 52
2, 625441, Note_on_c, 0, 60, 51
2, 625821, Note_on_c, 0, 60, 0
2, 625881, Note_on_c, 0, 63, 0
2, 625941, Note_on_c, 0, 56, 0
2, 626711, Note_on_c, 0, 63, 60
2, 626801, Note_on_c, 0, 59, 49
2, 626881, Note_on_c, 0, 53, 41
2, 627331, Note_on_c, 0, 59, 0
2, 627341, Note_on_c, 0, 53, 0
2, 627391, Note_on_c, 0, 63, 0
2, 628251, Note_on_c, 0, 63, 63
2, 628271, Note_on_c, 0, 59, 57
2, 628311, Note_on_c, 0, 53, 44
2, 628381, Note_on_c, 0, 58, 38
2, 628641, Note_on_c, 0, 53, 0
2, 628761, Note_on_c, 0, 59, 0
2, 628791, Note_on_c, 0, 58, 0
2, 628941, Note_on_c, 0, 63, 0
2, 629651, Note_on_c, 0, 62, 39
2, 629661, Note_on_c, 0, 65, 57
2, 629661, Note_on_c, 0, 55, 47
2, 629721, Note_on_c, 0, 60, 45
2, 630081, Note_on_c, 0, 65, 0
2, 630221, Note_on_c, 0, 60, 0
2, 630241, Note_on_c, 0, 55, 0
2, 630291, Note_on_c, 0, 62, 0
2, 631161, Note_on_c, 0, 65, 59
2, 631171, Note_on_c, 0, 62, 56
2, 631191, Note_on_c, 0, 60, 55
2, 631261, Note_on_c, 0, 65, 0
2, 631301, Note_on_c, 0, 62, 0
2, 631331, Note_on_c, 0, 60, 0
2, 631621, Note_on_c, 0, 74, 54
2, 632011, Note_on_c, 0, 74, 0
2, 632211, Note_on_c, 0, 74, 92
2, 632511, Note_on_c, 0, 74, 0
2, 632601, Note_on_c, 0, 77, 99
2, 632981, Note_on_c, 0, 77, 0
2, 633141, Note_on_c, 0, 65, 39
2, 633161, Note_on_c, 0, 77, 89
2, 633191, Note_on_c, 0, 62, 41
2, 633251, Note_on_c, 0, 60, 40
2, 633271, Note_on_c, 0, 65, 0
2, 633381, Note_on_c, 0, 60, 0
2, 633381, Note_on_c, 0, 62, 0
2, 633521, Note_on_c, 0, 77, 0
2, 633581, Note_on_c, 0, 70, 36
2, 633911, Note_on_c, 0, 70, 0
2, 634041, Note_on_c, 0, 70, 43
2, 634351, Note_on_c, 0, 70, 0
2, 634471, Note_on_c, 0, 74, 78
2, 634801, Note_on_c, 0, 74, 0
2, 635031, Note_on_c, 0, 74, 81
2, 635041, Note_on_c, 0, 65, 61
2, 635121, Note_on_c, 0, 55, 43
2, 635141, Note_on_c, 0, 65, 0
2, 635141, Note_on_c, 0, 56, 38
2, 635171, Note_on_c, 0, 60, 41
2, 635281, Note_on_c, 0, 55, 0
2, 635301, Note_on_c, 0, 60, 0
2, 635311, Note_on_c, 0, 56, 0
2, 635341, Note_on_c, 0, 74, 0
2, 636021, Note_on_c, 0, 67, 61
2, 636201, Note_on_c, 0, 63, 64
2, 636241, Note_on_c, 0, 59, 54
2, 636301, Note_on_c, 0, 67, 0
2, 636341, Note_on_c, 0, 63, 0
2, 636361, Note_on_c, 0, 59, 0
2, 636361, Note_on_c, 0, 56, 35
2, 636401, Note_on_c, 0, 70, 79
2, 636561, Note_on_c, 0, 56, 0
2, 636741, Note_on_c, 0, 70, 0
2, 636931, Note_on_c, 0, 56, 41
2, 636971, Note_on_c, 0, 70, 78
2, 636991, Note_on_c, 0, 53, 36
2, 637131, Note_on_c, 0, 53, 0
2, 637231, Note_on_c, 0, 56, 0
2, 637361, Note_on_c, 0, 70, 0
2, 637961, Note_on_c, 0, 62, 51
2, 637961, Note_on_c, 0, 51, 52
2, 638011, Note_on_c, 0, 65, 61
2, 638071, Note_on_c, 0, 62, 0
2, 638071, Note_on_c, 0, 57, 56
2, 638251, Note_on_c, 0, 65, 0
2, 638271, Note_on_c, 0, 51, 0
2, 638371, Note_on_c, 0, 57, 0
2, 638471, Note_on_c, 0, 67, 86
2, 638761, Note_on_c, 0, 67, 0
2, 638861, Note_on_c, 0, 57, 41
2, 638961, Note_on_c, 0, 67, 81
2, 639011, Note_on_c, 0, 57, 0
2, 639251, Note_on_c, 0, 67, 0
2, 639881, Note_on_c, 0, 57, 49
2, 640081, Note_on_c, 0, 62, 69
2, 640121, Note_on_c, 0, 57, 0
2, 640201, Note_on_c, 0, 62, 0
2, 640361, Note_on_c, 0, 65, 81
2, 640751, Note_on_c, 0, 65, 0
2, 640911, Note_on_c, 0, 65, 92
2, 640921, Note_on_c, 0, 57, 57
2, 641141, Note_on_c, 0, 57, 0
2, 641251, Note_on_c, 0, 65, 0
2, 641661, Note_on_c, 0, 56, 47
2, 641771, Note_on_c, 0, 56, 0
2, 641871, Note_on_c, 0, 59, 57
2, 642021, Note_on_c, 0, 59, 0
2, 642231, Note_on_c, 0, 63, 83
2, 642521, Note_on_c, 0, 63, 0
2, 642661, Note_on_c, 0, 54, 48
2, 642721, Note_on_c, 0, 63, 81
2, 642781, Note_on_c, 0, 54, 0
2, 643041, Note_on_c, 0, 63, 0
2, 643191, Note_on_c, 0, 59, 42
2, 643311, Note_on_c, 0, 59, 0
2, 643711, Note_on_c, 0, 51, 45
2, 643791, Note_on_c, 0, 59, 54
2, 643796, Note_on_c, 0, 51, 0
2, 643911, Note_on_c, 0, 59, 0
2, 644101, Note_on_c, 0, 62, 75
2, 644531, Note_on_c, 0, 62, 0
2, 644651, Note_on_c, 0, 57, 66
2, 644811, Note_on_c, 0, 57, 0
2, 645061, Note_on_c, 0, 59, 57
2, 645441, Note_on_c, 0, 59, 0
2, 645611, Note_on_c, 0, 60, 75
2, 645961, Note_on_c, 0, 60, 0
2, 646031, Note_on_c, 0, 62, 76
2, 647441, Note_on_c, 0, 62, 0
2, 647571, Note_on_c, 0, 59, 63
2, 647611, Note_on_c, 0, 56, 55
2, 647741, Note_on_c, 0, 56, 0
2, 647821, Note_on_c, 0, 59, 0
2, 647981, Note_on_c, 0, 60, 57
2, 648351, Note_on_c, 0, 60, 0
2, 648541, Note_on_c, 0, 62, 69
2, 648861, Note_on_c, 0, 62, 0
2, 648931, Note_on_c, 0, 63, 56
2, 649361, Note_on_c, 0, 63, 0
2, 649571, Note_on_c, 0, 64, 50
2, 649901, Note_on_c, 0, 64, 0
2, 649941, Note_on_c, 0, 66, 52
2, 650391, Note_on_c, 0, 66, 0
2, 650491, Note_on_c, 0, 67, 69
2, 650651, Note_on_c, 0, 62, 38
2, 650711, Note_on_c, 0, 56, 35
2, 650791, Note_on_c, 0, 67, 0
2, 650831, Note_on_c, 0, 62, 0
2, 650861, Note_on_c, 0, 56, 0
2, 650991, Note_on_c, 0, 68, 54
2, 651391, Note_on_c, 0, 68, 0
2, 651451, Note_on_c, 0, 70, 81
2, 651581, Note_on_c, 0, 66, 66
2, 651601, Note_on_c, 0, 56, 56
2, 651631, Note_on_c, 0, 62, 42
2, 651761, Control_c, 0, 64, 127
2, 651801, Note_on_c, 0, 70, 0
2, 651951, Note_on_c, 0, 71, 58
2, 651971, Control_c, 0, 64, 0
2, 652151, Control_c, 0, 64, 127
2, 652171, Control_c, 0, 64, 0
2, 652311, Note_on_c, 0, 71, 0
2, 652331, Note_on_c, 0, 66, 0
2, 652491, Note_on_c, 0, 73, 70
2, 652551, Note_on_c, 0, 66, 63
2, 652631, Note_on_c, 0, 73, 0
2, 652701, Control_c, 0, 64, 127
2, 652821, Note_on_c, 0, 74, 63
2, 652841, Note_on_c, 0, 66, 0
2, 652871, Control_c, 0, 64, 0
2, 652971, Note_on_c, 0, 74, 0
2, 653041, Note_on_c, 0, 75, 49
2, 653341, Note_on_c, 0, 56, 0
2, 653381, Note_on_c, 0, 75, 0
2, 653381, Note_on_c, 0, 76, 66
2, 653631, Note_on_c, 0, 62, 0
2, 653651, Note_on_c, 0, 76, 0
2, 653691, Note_on_c, 0, 77, 88
2, 653801, Note_on_c, 0, 62, 27
2, 653821, Note_on_c, 0, 65, 63
2, 653871, Note_on_c, 0, 60, 55
2, 653891, Note_on_c, 0, 55, 52
2, 654001, Note_on_c, 0, 74, 79
2, 654011, Note_on_c, 0, 76, 63
2, 654101, Note_on_c, 0, 76, 0
2, 654161, Note_on_c, 0, 77, 0
2, 654741, Note_on_c, 0, 74, 0
2, 654781, Note_on_c, 0, 71, 54
2, 654791, Note_on_c, 0, 65, 0
2, 654921, Note_on_c, 0, 71, 0
2, 655361, Note_on_c, 0, 67, 63
2, 655651, Note_on_c, 0, 67, 0
2, 655661, Note_on_c, 0, 55, 0
2, 655701, Note_on_c, 0, 60, 0
2, 655751, Note_on_c, 0, 62, 0
2, 656321, Note_on_c, 0, 62, 56
2, 656321, Note_on_c, 0, 65, 59
2, 656351, Note_on_c, 0, 60, 54
2, 656411, Note_on_c, 0, 65, 0
2, 656411, Note_on_c, 0, 55, 36
2, 656441, Note_on_c, 0, 62, 0
2, 656451, Note_on_c, 0, 60, 0
2, 656591, Note_on_c, 0, 55, 0
2, 657551, Note_on_c, 0, 62, 59
2, 657551, Note_on_c, 0, 58, 54
2, 657561, Note_on_c, 0, 53, 55
2, 657581, Note_on_c, 0, 55, 51
2, 658521, Control_c, 0, 64, 127
2, 658691, Note_on_c, 0, 53, 0
2, 658711, Note_on_c, 0, 55, 0
2, 658751, Note_on_c, 0, 62, 0
2, 659071, Note_on_c, 0, 58, 0
2, 659481, Note_on_c, 0, 94, 89
2, 659491, Note_on_c, 0, 58, 72
2, 659491, Note_on_c, 0, 63, 83
2, 659491, Note_on_c, 0, 87, 88
2, 659491, Note_on_c, 0, 82, 88
2, 659521, Note_on_c, 0, 52, 68
2, 659521, Note_on_c, 0, 56, 54
2, 659871, Note_on_c, 0, 87, 0
2, 659881, Note_on_c, 0, 82, 0
2, 659911, Note_on_c, 0, 63, 0
2, 659911, Note_on_c, 0, 56, 0
2, 659961, Note_on_c, 0, 52, 0
2, 659981, Control_c, 0, 64, 0
2, 659991, Note_on_c, 0, 94, 0
2, 660061, Note_on_c, 0, 58, 0
2, 660421, Note_on_c, 0, 52, 79
2, 660431, Note_on_c, 0, 96, 111
2, 660431, Note_on_c, 0, 63, 84
2, 660451, Note_on_c, 0, 84, 99
2, 660456, Note_on_c, 0, 58, 75
2, 660511, Note_on_c, 0, 56, 53
2, 660531, Note_on_c, 0, 95, 49
2, 660571, Note_on_c, 0, 90, 33
2, 660641, Note_on_c, 0, 95, 0
2, 660691, Note_on_c, 0, 90, 0
2, 660781, Note_on_c, 0, 96, 0
2, 660881, Note_on_c, 0, 63, 0
2, 660911, Note_on_c, 0, 52, 0
2, 660961, Note_on_c, 0, 84, 0
2, 660971, Note_on_c, 0, 56, 0
2, 661101, Note_on_c, 0, 58, 0
2, 661411, Control_c, 0, 64, 127
2, 661431, Note_on_c, 0, 94, 88
2, 661431, Note_on_c, 0, 56, 63
2, 661431, Note_on_c, 0, 63, 81
2, 661431, Note_on_c, 0, 53, 72
2, 661431, Note_on_c, 0, 82, 86
2, 661431, Note_on_c, 0, 60, 75
2, 661461, Note_on_c, 0, 87, 82
2, 662331, Note_on_c, 0, 53, 0
2, 662391, Note_on_c, 0, 63, 0
2, 662431, Note_on_c, 0, 56, 0
2, 662451, Note_on_c, 0, 60, 0
2, 662461, Note_on_c, 0, 94, 0
2, 662531, Note_on_c, 0, 82, 0
2, 662591, Note_on_c, 0, 87, 0
2, 662701, Control_c, 0, 64, 0
2, 662911, Note_on_c, 0, 92, 82
2, 662931, Note_on_c, 0, 80, 77
2, 662931, Note_on_c, 0, 87, 81
2, 662981, Note_on_c, 0, 60, 63
2, 662981, Note_on_c, 0, 63, 73
2, 662991, Note_on_c, 0, 53, 59
2, 663026, Note_on_c, 0, 56, 56
2, 663091, Control_c, 0, 64, 127
2, 663771, Note_on_c, 0, 53, 0
2, 663971, Note_on_c, 0, 60, 0
2, 663971, Note_on_c, 0, 56, 0
2, 664071, Note_on_c, 0, 63, 0
2, 664091, Note_on_c, 0, 87, 0
2, 664171, Note_on_c, 0, 80, 0
2, 664231, Note_on_c, 0, 92, 0
2, 665141, Control_c, 0, 64, 0
2, 665221, Note_on_c, 0, 87, 75
2, 665221, Note_on_c, 0, 63, 76
2, 665221, Note_on_c, 0, 84, 79
2, 665221, Note_on_c, 0, 91, 82
2, 665221, Note_on_c, 0, 79, 79
2, 665261, Note_on_c, 0, 55, 57
2, 665271, Note_on_c, 0, 60, 59
2, 665281, Note_on_c, 0, 57, 56
2, 665821, Control_c, 0, 64, 127
2, 666121, Note_on_c, 0, 91, 0
2, 666136, Note_on_c, 0, 55, 0
2, 666141, Note_on_c, 0, 57, 0
2, 666271, Note_on_c, 0, 63, 0
2, 666311, Note_on_c, 0, 79, 0
2, 666321, Note_on_c, 0, 60, 0
2, 666471, Note_on_c, 0, 87, 0
2, 666481, Note_on_c, 0, 84, 0
2, 667181, Note_on_c, 0, 78, 84
2, 667191, Note_on_c, 0, 54, 63
2, 667191, Note_on_c, 0, 90, 73
2, 667211, Note_on_c, 0, 87, 61
2, 667211, Note_on_c, 0, 60, 60
2, 667211, Note_on_c, 0, 65, 52
2, 667221, Control_c, 0, 64, 0
2, 667221, Note_on_c, 0, 58, 56
2, 667221, Note_on_c, 0, 84, 63
2, 667311, Note_on_c, 0, 64, 40
2, 667321, Note_on_c, 0, 84, 0
2, 667451, Note_on_c, 0, 64, 0
2, 667571, Note_on_c, 0, 84, 25
2, 667771, Note_on_c, 0, 60, 0
2, 667771, Control_c, 0, 64, 127
2, 667921, Note_on_c, 0, 58, 0
2, 667981, Note_on_c, 0, 54, 0
2, 668001, Note_on_c, 0, 84, 0
2, 668011, Note_on_c, 0, 65, 0
2, 668281, Note_on_c, 0, 78, 0
2, 668351, Note_on_c, 0, 87, 0
2, 668401, Note_on_c, 0, 90, 0
2, 668481, Control_c, 0, 64, 0
2, 668761, Note_on_c, 0, 89, 75
2, 668761, Note_on_c, 0, 82, 68
2, 668781, Note_on_c, 0, 62, 60
2, 668781, Note_on_c, 0, 65, 68
2, 668781, Note_on_c, 0, 77, 63
2, 668781, Note_on_c, 0, 55, 59
2, 668811, Note_on_c, 0, 86, 63
2, 668811, Note_on_c, 0, 60, 56
2, 668991, Control_c, 0, 64, 127
2, 669431, Note_on_c, 0, 86, 0
2, 669481, Note_on_c, 0, 89, 0
2, 669531, Note_on_c, 0, 65, 0
2, 669651, Note_on_c, 0, 62, 0
2, 669701, Note_on_c, 0, 77, 0
2, 669711, Note_on_c, 0, 82, 0
2, 669731, Note_on_c, 0, 60, 0
2, 669961, Note_on_c, 0, 55, 0
2, 670681, Note_on_c, 0, 53, 52
2, 670911, Note_on_c, 0, 54, 56
2, 670971, Note_on_c, 0, 53, 0
2, 671021, Note_on_c, 0, 55, 79
2, 671031, Note_on_c, 0, 70, 92
2, 671051, Control_c, 0, 64, 0
2, 671051, Note_on_c, 0, 65, 89
2, 671071, Note_on_c, 0, 60, 86
2, 671321, Note_on_c, 0, 54, 0
2, 671491, Note_on_c, 0, 60, 0
2, 671541, Note_on_c, 0, 70, 0
2, 671551, Note_on_c, 0, 65, 0
2, 671561, Note_on_c, 0, 55, 0
2, 671991, Note_on_c, 0, 70, 82
2, 672001, Note_on_c, 0, 55, 75
2, 672021, Note_on_c, 0, 65, 82
2, 672031, Note_on_c, 0, 60, 87
2, 672431, Note_on_c, 0, 60, 0
2, 672481, Note_on_c, 0, 65, 0
2, 672501, Note_on_c, 0, 70, 0
2, 672611, Note_on_c, 0, 55, 0
2, 673011, Note_on_c, 0, 70, 79
2, 673041, Note_on_c, 0, 63, 77
2, 673051, Note_on_c, 0, 60, 81
2, 673051, Note_on_c, 0, 44, 69
2, 673071, Note_on_c, 0, 55, 70
2, 673101, Note_on_c, 0, 67, 50
2, 674151, Note_on_c, 0, 60, 0
2, 674201, Note_on_c, 0, 55, 0
2, 674261, Note_on_c, 0, 70, 0
2, 674321, Note_on_c, 0, 67, 0
2, 674371, Note_on_c, 0, 63, 0
2, 674511, Note_on_c, 0, 68, 76
2, 674531, Note_on_c, 0, 60, 68
2, 674531, Note_on_c, 0, 63, 75
2, 674571, Note_on_c, 0, 53, 59
2, 674741, Control_c, 0, 64, 127
2, 675181, Note_on_c, 0, 44, 0
2, 675251, Note_on_c, 0, 63, 0
2, 675461, Note_on_c, 0, 60, 0
2, 675511, Note_on_c, 0, 44, 56
2, 675661, Note_on_c, 0, 68, 0
2, 675661, Note_on_c, 0, 53, 0
2, 675771, Note_on_c, 0, 63, 71
2, 675841, Note_on_c, 0, 44, 0
2, 676001, Note_on_c, 0, 63, 0
2, 676261, Control_c, 0, 64, 0
2, 676741, Note_on_c, 0, 67, 70
2, 676771, Note_on_c, 0, 60, 61
2, 676771, Note_on_c, 0, 56, 54
2, 676821, Note_on_c, 0, 55, 54
2, 676871, Note_on_c, 0, 62, 38
2, 677541, Control_c, 0, 64, 127
2, 677901, Note_on_c, 0, 62, 0
2, 678001, Note_on_c, 0, 60, 0
2, 678071, Note_on_c, 0, 67, 0
2, 678111, Note_on_c, 0, 56, 0
2, 678221, Note_on_c, 0, 55, 0
2, 678681, Note_on_c, 0, 56, 60
2, 678731, Note_on_c, 0, 60, 65
2, 678741, Control_c, 0, 64, 0
2, 678781, Note_on_c, 0, 62, 58
2, 679381, Control_c, 0, 64, 127
2, 679691, Note_on_c, 0, 62, 0
2, 679791, Note_on_c, 0, 60, 0
2, 679981, Note_on_c, 0, 56, 0
2, 680171, Note_on_c, 0, 46, 25
2, 680501, Note_on_c, 0, 46, 0
2, 680671, Note_on_c, 0, 48, 49
2, 680671, Note_on_c, 0, 58, 60
2, 680681, Note_on_c, 0, 61, 57
2, 680731, Control_c, 0, 64, 0
2, 680771, Note_on_c, 0, 53, 37
2, 680791, Note_on_c, 0, 52, 31
2, 681201, Note_on_c, 0, 52, 0
2, 681351, Control_c, 0, 64, 127
2, 681641, Note_on_c, 0, 53, 0
2, 681691, Note_on_c, 0, 61, 0
2, 681771, Note_on_c, 0, 48, 0
2, 681811, Note_on_c, 0, 58, 0
2, 681991, Control_c, 0, 64, 0
2, 682161, Note_on_c, 0, 48, 43
2, 682171, Note_on_c, 0, 58, 60
2, 682211, Note_on_c, 0, 60, 60
2, 682221, Note_on_c, 0, 52, 65
2, 682491, Note_on_c, 0, 52, 0
2, 682591, Control_c, 0, 64, 127
2, 682721, Note_on_c, 0, 60, 0
2, 682761, Note_on_c, 0, 58, 0
2, 683051, Note_on_c, 0, 48, 0
2, 683131, Note_on_c, 0, 36, 81
2, 683381, Note_on_c, 0, 36, 0
2, 684591, Note_on_c, 0, 63, 40
2, 684721, Note_on_c, 0, 63, 0
2, 684991, Control_c, 0, 64, 0
2, 685021, Note_on_c, 0, 91, 86
2, 685041, Note_on_c, 0, 87, 70
2, 685051, Note_on_c, 0, 79, 79
2, 685051, Note_on_c, 0, 84, 76
2, 685051, Note_on_c, 0, 67, 82
2, 685051, Note_on_c, 0, 56, 75
2, 685051, Note_on_c, 0, 63, 62
2, 685051, Note_on_c, 0, 60, 64
2, 685581, Note_on_c, 0, 79, 0
2, 685631, Note_on_c, 0, 84, 0
2, 685641, Note_on_c, 0, 91, 0
2, 685661, Note_on_c, 0, 67, 0
2, 685681, Note_on_c, 0, 60, 0
2, 685681, Note_on_c, 0, 56, 0
2, 685701, Note_on_c, 0, 87, 0
2, 685721, Note_on_c, 0, 63, 0
2, 685841, Note_on_c, 0, 91, 71
2, 685851, Note_on_c, 0, 67, 75
2, 685851, Note_on_c, 0, 79, 61
2, 685861, Note_on_c, 0, 84, 75
2, 685861, Note_on_c, 0, 56, 75
2, 685861, Note_on_c, 0, 87, 63
2, 685861, Note_on_c, 0, 63, 58
2, 685911, Note_on_c, 0, 60, 73
2, 686201, Note_on_c, 0, 84, 0
2, 686201, Note_on_c, 0, 79, 0
2, 686221, Note_on_c, 0, 67, 0
2, 686251, Note_on_c, 0, 91, 0
2, 686261, Note_on_c, 0, 56, 0
2, 686281, Note_on_c, 0, 60, 0
2, 686291, Note_on_c, 0, 87, 0
2, 686331, Note_on_c, 0, 63, 0
2, 686421, Note_on_c, 0, 91, 58
2, 686431, Control_c, 0, 64, 127
2, 686441, Note_on_c, 0, 67, 73
2, 686441, Note_on_c, 0, 56, 72
2, 686441, Note_on_c, 0, 63, 41
2, 686441, Note_on_c, 0, 79, 74
2, 686441, Note_on_c, 0, 87, 66
2, 686441, Note_on_c, 0, 84, 65
2, 686491, Note_on_c, 0, 60, 68
2, 686821, Note_on_c, 0, 67, 0
2, 686851, Note_on_c, 0, 79, 0
2, 686861, Note_on_c, 0, 84, 0
2, 686871, Note_on_c, 0, 56, 0
2, 686891, Note_on_c, 0, 91, 0
2, 686891, Note_on_c, 0, 60, 0
2, 686941, Note_on_c, 0, 87, 0
2, 686941, Control_c, 0, 64, 0
2, 686971, Note_on_c, 0, 63, 0
2, 687061, Control_c, 0, 64, 127
2, 687121, Note_on_c, 0, 56, 58
2, 687121, Note_on_c, 0, 84, 66
2, 687121, Note_on_c, 0, 79, 66
2, 687121, Note_on_c, 0, 91, 71
2, 687121, Note_on_c, 0, 63, 59
2, 687121, Note_on_c, 0, 87, 72
2, 687121, Note_on_c, 0, 67, 63
2, 687161, Note_on_c, 0, 60, 61
2, 687321, Note_on_c, 0, 79, 0
2, 687351, Note_on_c, 0, 84, 0
2, 687371, Note_on_c, 0, 67, 0
2, 687391, Note_on_c, 0, 91, 0
2, 687401, Note_on_c, 0, 87, 0
2, 687421, Note_on_c, 0, 56, 0
2, 687451, Note_on_c, 0, 63, 0
2, 687461, Note_on_c, 0, 60, 0
2, 687581, Control_c, 0, 64, 0
2, 687941, Note_on_c, 0, 87, 80
2, 687941, Note_on_c, 0, 91, 87
2, 687941, Note_on_c, 0, 84, 86
2, 687941, Note_on_c, 0, 79, 87
2, 687981, Note_on_c, 0, 56, 75
2, 687981, Note_on_c, 0, 67, 86
2, 688001, Note_on_c, 0, 62, 71
2, 688001, Note_on_c, 0, 60, 58
2, 688191, Control_c, 0, 64, 127
2, 688251, Note_on_c, 0, 79, 0
2, 688331, Note_on_c, 0, 91, 0
2, 688401, Note_on_c, 0, 67, 0
2, 688441, Note_on_c, 0, 60, 0
2, 688441, Note_on_c, 0, 84, 0
2, 688451, Note_on_c, 0, 56, 0
2, 688491, Note_on_c, 0, 62, 0
2, 688561, Note_on_c, 0, 87, 0
2, 688741, Control_c, 0, 64, 0
2, 688901, Note_on_c, 0, 92, 86
2, 688941, Note_on_c, 0, 80, 80
2, 688941, Note_on_c, 0, 84, 76
2, 688941, Note_on_c, 0, 87, 71
2, 688941, Note_on_c, 0, 56, 81
2, 688941, Note_on_c, 0, 67, 89
2, 688981, Note_on_c, 0, 62, 72
2, 688991, Note_on_c, 0, 60, 68
2, 689181, Control_c, 0, 64, 127
2, 689371, Note_on_c, 0, 92, 0
2, 689441, Note_on_c, 0, 80, 0
2, 689441, Note_on_c, 0, 67, 0
2, 689551, Note_on_c, 0, 84, 0
2, 689561, Note_on_c, 0, 87, 0
2, 689641, Note_on_c, 0, 60, 0
2, 689661, Note_on_c, 0, 62, 0
2, 689731, Note_on_c, 0, 56, 0
2, 690211, Note_on_c, 0, 87, 67
2, 690261, Note_on_c, 0, 75, 62
2, 690281, Note_on_c, 0, 65, 65
2, 690281, Control_c, 0, 64, 0
2, 690301, Note_on_c, 0, 56, 48
2, 690311, Note_on_c, 0, 82, 56
2, 690311, Note_on_c, 0, 62, 54
2, 690331, Note_on_c, 0, 60, 48
2, 690391, Note_on_c, 0, 82, 0
2, 690391, Note_on_c, 0, 65, 0
2, 690391, Note_on_c, 0, 75, 0
2, 690441, Note_on_c, 0, 62, 0
2, 690451, Note_on_c, 0, 60, 0
2, 690491, Note_on_c, 0, 87, 0
2, 690521, Note_on_c, 0, 56, 0
2, 691111, Note_on_c, 0, 56, 58
2, 691181, Note_on_c, 0, 89, 74
2, 691211, Note_on_c, 0, 77, 58
2, 691221, Note_on_c, 0, 84, 66
2, 691271, Note_on_c, 0, 65, 23
2, 691331, Note_on_c, 0, 77, 0
2, 691331, Note_on_c, 0, 56, 0
2, 691361, Control_c, 0, 64, 127
2, 691381, Note_on_c, 0, 65, 0
2, 691421, Note_on_c, 0, 84, 0
2, 691521, Note_on_c, 0, 89, 0
2, 691591, Control_c, 0, 64, 0
2, 692131, Note_on_c, 0, 65, 63
2, 692141, Note_on_c, 0, 91, 67
2, 692141, Note_on_c, 0, 62, 54
2, 692141, Note_on_c, 0, 55, 54
2, 692141, Note_on_c, 0, 60, 56
2, 692141, Note_on_c, 0, 86, 68
2, 692141, Note_on_c, 0, 79, 57
2, 692231, Control_c, 0, 64, 127
2, 692791, Note_on_c, 0, 62, 0
2, 692821, Note_on_c, 0, 65, 0
2, 692851, Note_on_c, 0, 60, 0
2, 692971, Note_on_c, 0, 86, 0
2, 693001, Note_on_c, 0, 91, 0
2, 693011, Note_on_c, 0, 55, 0
2, 693121, Note_on_c, 0, 79, 0
2, 693971, Control_c, 0, 64, 0
2, 694081, Note_on_c, 0, 65, 73
2, 694091, Note_on_c, 0, 54, 65
2, 694091, Note_on_c, 0, 89, 82
2, 694091, Note_on_c, 0, 58, 60
2, 694111, Note_on_c, 0, 60, 60
2, 694111, Note_on_c, 0, 84, 75
2, 694111, Note_on_c, 0, 77, 72
2, 694711, Control_c, 0, 64, 127
2, 694921, Note_on_c, 0, 65, 0
2, 694981, Note_on_c, 0, 60, 0
2, 695001, Note_on_c, 0, 77, 0
2, 695031, Note_on_c, 0, 89, 0
2, 695041, Note_on_c, 0, 58, 0
2, 695071, Note_on_c, 0, 84, 0
2, 695291, Note_on_c, 0, 54, 0
2, 696001, Control_c, 0, 64, 0
2, 696051, Note_on_c, 0, 62, 60
2, 696051, Note_on_c, 0, 94, 72
2, 696051, Note_on_c, 0, 58, 56
2, 696071, Note_on_c, 0, 53, 56
2, 696091, Note_on_c, 0, 55, 52
2, 696111, Note_on_c, 0, 82, 54
2, 696181, Note_on_c, 0, 87, 39
2, 696571, Control_c, 0, 64, 127
2, 696611, Note_on_c, 0, 87, 0
2, 696731, Note_on_c, 0, 53, 0
2, 696741, Note_on_c, 0, 55, 0
2, 696781, Note_on_c, 0, 82, 0
2, 696801, Note_on_c, 0, 62, 0
2, 696811, Note_on_c, 0, 94, 0
2, 696971, Note_on_c, 0, 58, 0
2, 697371, Control_c, 0, 64, 0
2, 697581, Note_on_c, 0, 63, 69
2, 697591, Note_on_c, 0, 96, 72
2, 697601, Note_on_c, 0, 52, 68
2, 697601, Note_on_c, 0, 58, 63
2, 697601, Note_on_c, 0, 91, 71
2, 697601, Note_on_c, 0, 84, 66
2, 697921, Control_c, 0, 64, 127
2, 697961, Note_on_c, 0, 96, 0
2, 698011, Note_on_c, 0, 63, 0
2, 698081, Note_on_c, 0, 91, 0
2, 698251, Note_on_c, 0, 52, 0
2, 698251, Note_on_c, 0, 84, 0
2, 698261, Note_on_c, 0, 58, 0
2, 699031, Control_c, 0, 64, 0
2, 700351, Note_on_c, 0, 70, 63
2, 700381, Note_on_c, 0, 58, 57
2, 700401, Note_on_c, 0, 63, 58
2, 700401, Note_on_c, 0, 60, 56
2, 700501, Note_on_c, 0, 60, 0
2, 700521, Note_on_c, 0, 67, 30
2, 700621, Note_on_c, 0, 58, 0
2, 700641, Note_on_c, 0, 63, 0
2, 700651, Note_on_c, 0, 70, 0
2, 700651, Note_on_c, 0, 67, 0
2, 701661, Note_on_c, 0, 56, 56
2, 701671, Note_on_c, 0, 63, 48
2, 701681, Note_on_c, 0, 46, 56
2, 701691, Note_on_c, 0, 60, 56
2, 701771, Note_on_c, 0, 56, 0
2, 701801, Note_on_c, 0, 63, 0
2, 701801, Note_on_c, 0, 60, 0
2, 702011, Note_on_c, 0, 46, 0
2, 702611, Note_on_c, 0, 60, 57
2, 702641, Note_on_c, 0, 46, 48
2, 702651, Note_on_c, 0, 56, 42
2, 702781, Note_on_c, 0, 56, 0
2, 702811, Note_on_c, 0, 46, 0
2, 702901, Note_on_c, 0, 60, 0
2, 703611, Note_on_c, 0, 60, 63
2, 703611, Note_on_c, 0, 68, 57
2, 703611, Note_on_c, 0, 46, 54
2, 703691, Note_on_c, 0, 34, 38
2, 704621, Note_on_c, 0, 68, 0
2, 704641, Note_on_c, 0, 60, 0
2, 704681, Note_on_c, 0, 46, 0
2, 705151, Note_on_c, 0, 56, 53
2, 705171, Note_on_c, 0, 63, 51
2, 705191, Note_on_c, 0, 65, 50
2, 705201, Note_on_c, 0, 46, 42
2, 705201, Note_on_c, 0, 60, 49
2, 706011, Note_on_c, 0, 34, 0
2, 706391, Note_on_c, 0, 34, 57
2, 706631, Control_c, 0, 64, 127
2, 707261, Note_on_c, 0, 34, 0
2, 707581, Note_on_c, 0, 46, 0
2, 707601, Note_on_c, 0, 56, 0
2, 707611, Note_on_c, 0, 65, 0
2, 707611, Note_on_c, 0, 60, 0
2, 707861, Note_on_c, 0, 63, 0
2, 709451, Note_on_c, 0, 46, 34
2, 709601, Note_on_c, 0, 46, 0
2, 710001, Control_c, 0, 64, 0
2, 710271, Note_on_c, 0, 58, 41
2, 710271, Note_on_c, 0, 54, 37
2, 710301, Note_on_c, 0, 46, 38
2, 710391, Note_on_c, 0, 58, 0
2, 710421, Note_on_c, 0, 54, 0
2, 710461, Note_on_c, 0, 46, 0
2, 711191, Note_on_c, 0, 68, 66
2, 711211, Note_on_c, 0, 61, 57
2, 711251, Note_on_c, 0, 46, 48
2, 711671, Control_c, 0, 64, 127
2, 711851, Note_on_c, 0, 68, 0
2, 712071, Note_on_c, 0, 61, 0
2, 712181, Note_on_c, 0, 46, 0
2, 712871, Note_on_c, 0, 46, 44
2, 713311, Control_c, 0, 64, 0
2, 713851, Note_on_c, 0, 34, 49
2, 714571, Control_c, 0, 64, 127
2, 714751, Note_on_c, 0, 46, 0
2, 715541, Control_c, 0, 64, 56
2, 715551, Control_c, 0, 64, 0
2, 715571, Note_on_c, 0, 60, 56
2, 715611, Note_on_c, 0, 51, 48
2, 715611, Note_on_c, 0, 56, 48
2, 715671, Note_on_c, 0, 46, 36
2, 715941, Control_c, 0, 64, 127
2, 716181, Note_on_c, 0, 51, 0
2, 716221, Note_on_c, 0, 46, 0
2, 716281, Note_on_c, 0, 60, 0
2, 716441, Note_on_c, 0, 56, 0
2, 716821, Control_c, 0, 64, 0
2, 716931, Note_on_c, 0, 46, 43
2, 716951, Note_on_c, 0, 52, 51
2, 716951, Note_on_c, 0, 61, 49
2, 716971, Note_on_c, 0, 57, 46
2, 717611, Control_c, 0, 64, 127
2, 717761, Note_on_c, 0, 52, 0
2, 717781, Note_on_c, 0, 57, 0
2, 717961, Note_on_c, 0, 46, 0
2, 718181, Note_on_c, 0, 61, 0
2, 718321, Control_c, 0, 64, 0
2, 718451, Note_on_c, 0, 58, 48
2, 718471, Note_on_c, 0, 53, 41
2, 718471, Note_on_c, 0, 62, 48
2, 718471, Note_on_c, 0, 46, 41
2, 718881, Note_on_c, 0, 62, 0
2, 719021, Note_on_c, 0, 53, 0
2, 719241, Note_on_c, 0, 46, 0
2, 719241, Note_on_c, 0, 58, 0
2, 719821, Note_on_c, 0, 54, 51
2, 719831, Note_on_c, 0, 63, 49
2, 719861, Note_on_c, 0, 46, 39
2, 719901, Note_on_c, 0, 59, 54
2, 720541, Control_c, 0, 64, 127
2, 720741, Note_on_c, 0, 46, 0
2, 721321, Note_on_c, 0, 46, 47
2, 721771, Note_on_c, 0, 34, 0
2, 721841, Note_on_c, 0, 59, 0
2, 722051, Note_on_c, 0, 54, 0
2, 722251, Note_on_c, 0, 63, 0
2, 722261, Note_on_c, 0, 46, 0
2, 722281, Note_on_c, 0, 34, 39
2, 722661, Note_on_c, 0, 46, 45
2, 722691, Control_c, 0, 64, 0
2, 722746, Note_on_c, 0, 55, 43
2, 722746, Note_on_c, 0, 60, 45
2, 722771, Note_on_c, 0, 64, 39
2, 723541, Control_c, 0, 64, 127
2, 723791, Note_on_c, 0, 60, 0
2, 723831, Note_on_c, 0, 64, 0
2, 723901, Note_on_c, 0, 55, 0
2, 724191, Note_on_c, 0, 46, 0
2, 724731, Note_on_c, 0, 65, 49
2, 724751, Note_on_c, 0, 46, 38
2, 724761, Note_on_c, 0, 56, 43
2, 724771, Note_on_c, 0, 61, 47
2, 724801, Control_c, 0, 64, 0
2, 725441, Control_c, 0, 64, 127
2, 725481, Note_on_c, 0, 65, 0
2, 725671, Note_on_c, 0, 46, 0
2, 725841, Note_on_c, 0, 61, 0
2, 725861, Note_on_c, 0, 56, 0
2, 726481, Control_c, 0, 64, 0
2, 726671, Note_on_c, 0, 66, 45
2, 726751, Note_on_c, 0, 46, 34
2, 726751, Note_on_c, 0, 57, 33
2, 726831, Note_on_c, 0, 62, 22
2, 727101, Control_c, 0, 64, 127
2, 727161, Note_on_c, 0, 62, 0
2, 727171, Note_on_c, 0, 57, 0
2, 727181, Note_on_c, 0, 46, 0
2, 727481, Note_on_c, 0, 66, 0
2, 727981, Control_c, 0, 64, 0
2, 728091, Note_on_c, 0, 46, 41
2, 728091, Note_on_c, 0, 58, 41
2, 728111, Note_on_c, 0, 67, 39
2, 728121, Note_on_c, 0, 63, 48
2, 728281, Control_c, 0, 64, 127
2, 728761, Control_c, 0, 64, 0
2, 733701, Note_on_c, 0, 58, 0
2, 733711, Note_on_c, 0, 63, 0
2, 733791, Note_on_c, 0, 67, 0
2, 734331, Note_on_c, 0, 34, 0
2, 734761, Note_on_c, 0, 46, 0
2, 734761, End_track
3, 0, Start_track
3, 0, Title_t, "MIDI 2"
3, 0, Program_c, 1, 35
3, 0, Control_c, 1, 7, 96
3, 0, Control_c, 1, 10, 64
3, 0, Control_c, 1, 91, 40
3, 0, Control_c, 1, 93, 0
3, 349151, Control_c, 1, 0, 0
3, 349151, Control_c, 1, 32, 122
3, 349153, Control_c, 1, 0, 0
3, 349153, Control_c, 1, 32, 122
3, 349153, Control_c, 1, 0, 0
3, 349153, Control_c, 1, 32, 122
3, 349153, Program_c, 1, 35
3, 349153, Control_c, 1, 11, 127
3, 349153, Control_c, 1, 94, 0
3, 349154, Control_c, 1, 101, 0
3, 349155, Control_c, 1, 100, 1
3, 349156, Control_c, 1, 6, 64
3, 349157, Control_c, 1, 38, 0
3, 349161, Control_c, 1, 71, 64
3, 349161, Control_c, 1, 74, 64
3, 349531, Note_on_c, 1, 31, 95
3, 351936, Note_on_c, 1, 31, 0
3, 351971, Note_on_c, 1, 36, 97
3, 353441, Note_on_c, 1, 48, 106
3, 353526, Note_on_c, 1, 36, 0
3, 354976, Note_on_c, 1, 41, 100
3, 355006, Note_on_c, 1, 48, 0
3, 357056, Note_on_c, 1, 41, 0
3, 357131, Note_on_c, 1, 36, 64
3, 357461, Note_on_c, 1, 36, 0
3, 358001, Note_on_c, 1, 33, 72
3, 359886, Note_on_c, 1, 33, 0
3, 359926, Note_on_c, 1, 38, 74
3, 361701, Note_on_c, 1, 38, 0
3, 361931, Note_on_c, 1, 39, 78
3, 364436, Note_on_c, 1, 34, 76
3, 364456, Note_on_c, 1, 39, 0
3, 364596, Note_on_c, 1, 34, 0
3, 364781, Note_on_c, 1, 32, 90
3, 367451, Note_on_c, 1, 32, 0
3, 367666, Note_on_c, 1, 39, 85
3, 367881, Note_on_c, 1, 39, 0
3, 368586, Note_on_c, 1, 37, 78
3, 368981, Note_on_c, 1, 37, 0
3, 369541, Note_on_c, 1, 38, 71
3, 373346, Note_on_c, 1, 38, 0
3, 373466, Note_on_c, 1, 36, 59
3, 376381, Note_on_c, 1, 46, 85
3, 376506, Note_on_c, 1, 36, 0
3, 377426, Note_on_c, 1, 44, 77
3, 377496, Note_on_c, 1, 46, 0
3, 379046, Note_on_c, 1, 44, 0
3, 379081, Note_on_c, 1, 43, 79
3, 379311, Note_on_c, 1, 43, 0
3, 379491, Note_on_c, 1, 41, 74
3, 381086, Note_on_c, 1, 41, 0
3, 381191, Note_on_c, 1, 37, 77
3, 383926, Note_on_c, 1, 37, 0
3, 384011, Note_on_c, 1, 38, 75
3, 384846, Note_on_c, 1, 38, 0
3, 384896, Note_on_c, 1, 39, 75
3, 385701, Note_on_c, 1, 39, 0
3, 385826, Note_on_c, 1, 39, 73
3, 388721, Note_on_c, 1, 39, 0
3, 388786, Note_on_c, 1, 38, 79
3, 391676, Note_on_c, 1, 38, 0
3, 391701, Note_on_c, 1, 37, 68
3, 392586, Note_on_c, 1, 37, 0
3, 392636, Note_on_c, 1, 36, 71
3, 396251, Note_on_c, 1, 36, 0
3, 396466, Note_on_c, 1, 36, 87
3, 400256, Note_on_c, 1, 36, 0
3, 400316, Note_on_c, 1, 41, 95
3, 403141, Note_on_c, 1, 43, 87
3, 403416, Note_on_c, 1, 41, 0
3, 404631, Note_on_c, 1, 43, 0
3, 404706, Note_on_c, 1, 44, 79
3, 406051, Note_on_c, 1, 44, 0
3, 406071, Note_on_c, 1, 45, 85
3, 407006, Note_on_c, 1, 46, 78
3, 407036, Note_on_c, 1, 45, 0
3, 407851, Note_on_c, 1, 46, 0
3, 407981, Note_on_c, 1, 39, 74
3, 408976, Note_on_c, 1, 39, 0
3, 408976, Note_on_c, 1, 53, 101
3, 409576, Note_on_c, 1, 53, 0
3, 409631, Note_on_c, 1, 51, 83
3, 412761, Note_on_c, 1, 49, 92
3, 412821, Note_on_c, 1, 51, 0
3, 414336, Note_on_c, 1, 48, 91
3, 414461, Note_on_c, 1, 49, 0
3, 415536, Note_on_c, 1, 48, 0
3, 415681, Note_on_c, 1, 41, 78
3, 418631, Note_on_c, 1, 45, 101
3, 418646, Note_on_c, 1, 41, 0
3, 420181, Note_on_c, 1, 39, 87
3, 420256, Note_on_c, 1, 45, 0
3, 422096, Note_on_c, 1, 39, 0
3, 422336, Note_on_c, 1, 38, 71
3, 423711, Note_on_c, 1, 38, 0
3, 423896, Note_on_c, 1, 39, 90
3, 424571, Note_on_c, 1, 39, 0
3, 425211, Note_on_c, 1, 39, 85
3, 427066, Note_on_c, 1, 39, 0
3, 427126, Note_on_c, 1, 32, 76
3, 429641, Note_on_c, 1, 32, 0
3, 429726, Note_on_c, 1, 39, 81
3, 429816, Note_on_c, 1, 39, 0
3, 430071, Note_on_c, 1, 36, 45
3, 430251, Note_on_c, 1, 36, 0
3, 430631, Note_on_c, 1, 37, 79
3, 430786, Note_on_c, 1, 37, 0
3, 431051, Note_on_c, 1, 38, 74
3, 432796, Note_on_c, 1, 38, 0
3, 432966, Note_on_c, 1, 31, 64
3, 435771, Note_on_c, 1, 31, 0
3, 435851, Note_on_c, 1, 36, 81
3, 438596, Note_on_c, 1, 36, 0
3, 438641, Note_on_c, 1, 41, 76
3, 441571, Note_on_c, 1, 48, 93
3, 441871, Note_on_c, 1, 41, 0
3, 442506, Note_on_c, 1, 48, 0
3, 442571, Note_on_c, 1, 49, 85
3, 444451, Note_on_c, 1, 49, 0
3, 444526, Note_on_c, 1, 37, 79
3, 446356, Note_on_c, 1, 37, 0
3, 446391, Note_on_c, 1, 39, 84
3, 448251, Note_on_c, 1, 39, 0
3, 448296, Note_on_c, 1, 32, 79
3, 450216, Note_on_c, 1, 31, 78
3, 450336, Note_on_c, 1, 32, 0
3, 453086, Note_on_c, 1, 36, 76
3, 453091, Note_on_c, 1, 31, 0
3, 454106, Note_on_c, 1, 41, 103
3, 454116, Note_on_c, 1, 36, 0
3, 456741, Note_on_c, 1, 41, 0
3, 456946, Note_on_c, 1, 36, 65
3, 457521, Note_on_c, 1, 36, 0
3, 457596, Note_on_c, 1, 34, 69
3, 459521, Note_on_c, 1, 48, 99
3, 459701, Note_on_c, 1, 34, 0
3, 459786, Note_on_c, 1, 48, 0
3, 459901, Note_on_c, 1, 46, 91
3, 460736, Note_on_c, 1, 46, 0
3, 460876, Note_on_c, 1, 46, 92
3, 463666, Note_on_c, 1, 34, 89
3, 463701, Note_on_c, 1, 46, 0
3, 466071, Note_on_c, 1, 34, 0
3, 466601, Note_on_c, 1, 34, 96
3, 468461, Note_on_c, 1, 34, 0
3, 470176, Note_on_c, 1, 39, 105
3, 472286, Note_on_c, 1, 34, 81
3, 472301, Note_on_c, 1, 39, 0
3, 472591, Note_on_c, 1, 34, 0
3, 473276, Note_on_c, 1, 31, 79
3, 474836, Note_on_c, 1, 37, 77
3, 475121, Note_on_c, 1, 37, 0
3, 475196, Note_on_c, 1, 31, 0
3, 475251, Note_on_c, 1, 36, 62
3, 476091, Note_on_c, 1, 36, 0
3, 476126, Note_on_c, 1, 29, 79
3, 479036, Note_on_c, 1, 36, 73
3, 480476, Note_on_c, 1, 36, 0
3, 480676, Note_on_c, 1, 36, 52
3, 480721, Note_on_c, 1, 29, 0
3, 480976, Note_on_c, 1, 45, 88
3, 481056, Note_on_c, 1, 36, 0
3, 481881, Note_on_c, 1, 45, 0
3, 481926, Note_on_c, 1, 39, 71
3, 483806, Note_on_c, 1, 39, 0
3, 483821, Note_on_c, 1, 38, 80
3, 484736, Note_on_c, 1, 38, 0
3, 484786, Note_on_c, 1, 39, 86
3, 485381, Note_on_c, 1, 39, 0
3, 485426, Note_on_c, 1, 38, 68
3, 485701, Note_on_c, 1, 38, 0
3, 485756, Note_on_c, 1, 39, 71
3, 487286, Note_on_c, 1, 48, 91
3, 487496, Note_on_c, 1, 39, 0
3, 487591, Note_on_c, 1, 48, 0
3, 487691, Note_on_c, 1, 46, 66
3, 488391, Note_on_c, 1, 39, 56
3, 488511, Note_on_c, 1, 39, 0
3, 488511, Note_on_c, 1, 46, 0
3, 488626, Note_on_c, 1, 44, 69
3, 490551, Note_on_c, 1, 44, 0
3, 490561, Note_on_c, 1, 43, 67
3, 491206, Note_on_c, 1, 43, 0
3, 491206, Note_on_c, 1, 44, 70
3, 491411, Note_on_c, 1, 44, 0
3, 491526, Note_on_c, 1, 46, 82
3, 492231, Note_on_c, 1, 39, 57
3, 492276, Note_on_c, 1, 46, 0
3, 492366, Note_on_c, 1, 39, 0
3, 492431, Note_on_c, 1, 50, 89
3, 493136, Note_on_c, 1, 50, 0
3, 493371, Note_on_c, 1, 44, 67
3, 494211, Note_on_c, 1, 44, 0
3, 494331, Note_on_c, 1, 43, 68
3, 495161, Note_on_c, 1, 43, 0
3, 495296, Note_on_c, 1, 31, 72
3, 497301, Note_on_c, 1, 36, 78
3, 497336, Note_on_c, 1, 31, 0
3, 498251, Note_on_c, 1, 48, 122
3, 498336, Note_on_c, 1, 36, 0
3, 499846, Note_on_c, 1, 36, 63
3, 499851, Note_on_c, 1, 48, 0
3, 499946, Note_on_c, 1, 36, 0
3, 500171, Note_on_c, 1, 41, 61
3, 504026, Note_on_c, 1, 37, 78
3, 504036, Note_on_c, 1, 41, 0
3, 505961, Note_on_c, 1, 49, 100
3, 506461, Note_on_c, 1, 49, 0
3, 506596, Note_on_c, 1, 48, 59
3, 506796, Note_on_c, 1, 48, 0
3, 506936, Note_on_c, 1, 49, 77
3, 507076, Note_on_c, 1, 37, 0
3, 507666, Note_on_c, 1, 49, 0
3, 507876, Note_on_c, 1, 51, 61
3, 507971, Note_on_c, 1, 49, 67
3, 508126, Note_on_c, 1, 49, 0
3, 508786, Note_on_c, 1, 51, 0
3, 508821, Note_on_c, 1, 46, 86
3, 510651, Note_on_c, 1, 46, 0
3, 510711, Note_on_c, 1, 43, 83
3, 512691, Note_on_c, 1, 44, 86
3, 512696, Note_on_c, 1, 43, 0
3, 513341, Note_on_c, 1, 41, 56
3, 513371, Note_on_c, 1, 44, 0
3, 513481, Note_on_c, 1, 41, 0
3, 513666, Note_on_c, 1, 43, 87
3, 514426, Note_on_c, 1, 43, 0
3, 514566, Note_on_c, 1, 31, 67
3, 515436, Note_on_c, 1, 31, 0
3, 515471, Note_on_c, 1, 36, 76
3, 517446, Note_on_c, 1, 38, 75
3, 517601, Note_on_c, 1, 36, 0
3, 518386, Note_on_c, 1, 39, 91
3, 518401, Note_on_c, 1, 38, 0
3, 519876, Note_on_c, 1, 40, 74
3, 519911, Note_on_c, 1, 39, 0
3, 520186, Note_on_c, 1, 40, 0
3, 520296, Note_on_c, 1, 41, 66
3, 521151, Note_on_c, 1, 41, 0
3, 521231, Note_on_c, 1, 36, 66
3, 521986, Note_on_c, 1, 36, 0
3, 522131, Note_on_c, 1, 30, 81
3, 523041, Note_on_c, 1, 30, 0
3, 523131, Note_on_c, 1, 29, 97
3, 524521, Note_on_c, 1, 29, 0
3, 524656, Note_on_c, 1, 31, 89
3, 526021, Note_on_c, 1, 31, 0
3, 526031, Note_on_c, 1, 32, 92
3, 527591, Note_on_c, 1, 32, 0
3, 527661, Note_on_c, 1, 33, 90
3, 528611, Note_on_c, 1, 32, 56
3, 528866, Note_on_c, 1, 32, 0
3, 528931, Note_on_c, 1, 34, 78
3, 528941, Note_on_c, 1, 33, 0
3, 529691, Note_on_c, 1, 32, 69
3, 529801, Note_on_c, 1, 34, 0
3, 529886, Note_on_c, 1, 48, 117
3, 530051, Note_on_c, 1, 32, 0
3, 530706, Note_on_c, 1, 48, 0
3, 530811, Note_on_c, 1, 46, 90
3, 532741, Note_on_c, 1, 46, 0
3, 532746, Note_on_c, 1, 44, 94
3, 534591, Note_on_c, 1, 44, 0
3, 534746, Note_on_c, 1, 43, 65
3, 535456, Note_on_c, 1, 43, 0
3, 535681, Note_on_c, 1, 37, 63
3, 536456, Note_on_c, 1, 37, 0
3, 536576, Note_on_c, 1, 36, 69
3, 537556, Note_on_c, 1, 46, 113
3, 537586, Note_on_c, 1, 36, 0
3, 538396, Note_on_c, 1, 46, 0
3, 538466, Note_on_c, 1, 44, 85
3, 540511, Note_on_c, 1, 36, 76
3, 540581, Note_on_c, 1, 44, 0
3, 542376, Note_on_c, 1, 36, 0
3, 542411, Note_on_c, 1, 33, 82
3, 543891, Note_on_c, 1, 33, 0
3, 543981, Note_on_c, 1, 39, 92
3, 544226, Note_on_c, 1, 39, 0
3, 544406, Note_on_c, 1, 38, 71
3, 545326, Note_on_c, 1, 50, 98
3, 545581, Note_on_c, 1, 50, 0
3, 546496, Note_on_c, 1, 38, 0
3, 547176, Note_on_c, 1, 46, 87
3, 547946, Note_on_c, 1, 46, 0
3, 548146, Note_on_c, 1, 46, 93
3, 549841, Note_on_c, 1, 46, 0
3, 549851, Note_on_c, 1, 39, 61
3, 549946, Note_on_c, 1, 39, 0
3, 550011, Note_on_c, 1, 48, 92
3, 550986, Note_on_c, 1, 44, 59
3, 550996, Note_on_c, 1, 48, 0
3, 551696, Note_on_c, 1, 44, 0
3, 551926, Note_on_c, 1, 44, 67
3, 553706, Note_on_c, 1, 44, 0
3, 553886, Note_on_c, 1, 38, 66
3, 554666, Note_on_c, 1, 38, 0
3, 554856, Note_on_c, 1, 38, 69
3, 555786, Note_on_c, 1, 31, 71
3, 555791, Note_on_c, 1, 38, 0
3, 559291, Note_on_c, 1, 35, 80
3, 559356, Note_on_c, 1, 31, 0
3, 559571, Note_on_c, 1, 35, 0
3, 559676, Note_on_c, 1, 36, 74
3, 560421, Note_on_c, 1, 35, 57
3, 560586, Note_on_c, 1, 36, 0
3, 560601, Note_on_c, 1, 43, 98
3, 560691, Note_on_c, 1, 35, 0
3, 561131, Note_on_c, 1, 43, 0
3, 561236, Note_on_c, 1, 36, 57
3, 561361, Note_on_c, 1, 36, 0
3, 561596, Note_on_c, 1, 41, 81
3, 563511, Note_on_c, 1, 41, 0
3, 563591, Note_on_c, 1, 36, 59
3, 565446, Note_on_c, 1, 53, 85
3, 565481, Note_on_c, 1, 36, 0
3, 567971, Note_on_c, 1, 53, 0
3, 568021, Note_on_c, 1, 37, 89
3, 568311, Note_on_c, 1, 37, 0
3, 568396, Note_on_c, 1, 38, 60
3, 569221, Note_on_c, 1, 38, 0
3, 569291, Note_on_c, 1, 39, 70
3, 570831, Note_on_c, 1, 32, 80
3, 570836, Note_on_c, 1, 39, 0
3, 572221, Note_on_c, 1, 31, 85
3, 572271, Note_on_c, 1, 32, 0
3, 573751, Note_on_c, 1, 31, 0
3, 573766, Note_on_c, 1, 37, 98
3, 574706, Note_on_c, 1, 32, 68
3, 574771, Note_on_c, 1, 37, 0
3, 575001, Note_on_c, 1, 32, 0
3, 575046, Note_on_c, 1, 36, 72
3, 575911, Note_on_c, 1, 36, 0
3, 575951, Note_on_c, 1, 30, 81
3, 576851, Note_on_c, 1, 30, 0
3, 576901, Note_on_c, 1, 29, 78
3, 578446, Note_on_c, 1, 29, 0
3, 578581, Note_on_c, 1, 31, 85
3, 579336, Note_on_c, 1, 31, 0
3, 579466, Note_on_c, 1, 32, 79
3, 579696, Note_on_c, 1, 32, 0
3, 579811, Note_on_c, 1, 33, 82
3, 580691, Note_on_c, 1, 33, 0
3, 580791, Note_on_c, 1, 34, 65
3, 581531, Note_on_c, 1, 32, 63
3, 581691, Note_on_c, 1, 34, 0
3, 581736, Note_on_c, 1, 48, 88
3, 581836, Note_on_c, 1, 32, 0
3, 582591, Note_on_c, 1, 48, 0
3, 582711, Note_on_c, 1, 46, 75
3, 584151, Note_on_c, 1, 46, 0
3, 584241, Note_on_c, 1, 44, 54
3, 584511, Note_on_c, 1, 44, 0
3, 584591, Note_on_c, 1, 43, 59
3, 585276, Note_on_c, 1, 39, 75
3, 585316, Note_on_c, 1, 43, 0
3, 585456, Note_on_c, 1, 39, 0
3, 586566, Note_on_c, 1, 39, 77
3, 589036, Note_on_c, 1, 39, 0
3, 589146, Note_on_c, 1, 34, 88
3, 589376, Note_on_c, 1, 34, 0
3, 590511, Note_on_c, 1, 34, 65
3, 592276, Note_on_c, 1, 34, 0
3, 592346, Note_on_c, 1, 39, 74
3, 594046, Note_on_c, 1, 36, 96
3, 594196, Note_on_c, 1, 39, 0
3, 595256, Note_on_c, 1, 34, 92
3, 595406, Note_on_c, 1, 36, 0
3, 596781, Note_on_c, 1, 32, 98
3, 596811, Note_on_c, 1, 34, 0
3, 598011, Note_on_c, 1, 32, 0
3, 598031, Note_on_c, 1, 31, 79
3, 598681, Note_on_c, 1, 32, 79
3, 598761, Note_on_c, 1, 31, 0
3, 598936, Note_on_c, 1, 32, 0
3, 598956, Note_on_c, 1, 42, 91
3, 599896, Note_on_c, 1, 42, 0
3, 599946, Note_on_c, 1, 41, 60
3, 600606, Note_on_c, 1, 41, 0
3, 600616, Note_on_c, 1, 36, 85
3, 601886, Note_on_c, 1, 36, 0
3, 601906, Note_on_c, 1, 32, 67
3, 603686, Note_on_c, 1, 32, 0
3, 603766, Note_on_c, 1, 33, 69
3, 604396, Note_on_c, 1, 32, 74
3, 604546, Note_on_c, 1, 33, 0
3, 604656, Note_on_c, 1, 32, 0
3, 604756, Note_on_c, 1, 45, 68
3, 605691, Note_on_c, 1, 39, 77
3, 605706, Note_on_c, 1, 45, 0
3, 606651, Note_on_c, 1, 39, 0
3, 606686, Note_on_c, 1, 37, 72
3, 607426, Note_on_c, 1, 37, 0
3, 607661, Note_on_c, 1, 39, 105
3, 608481, Note_on_c, 1, 39, 0
3, 608651, Note_on_c, 1, 34, 70
3, 609516, Note_on_c, 1, 34, 0
3, 609601, Note_on_c, 1, 31, 74
3, 610406, Note_on_c, 1, 31, 0
3, 610566, Note_on_c, 1, 31, 89
3, 611411, Note_on_c, 1, 31, 0
3, 611476, Note_on_c, 1, 32, 66
3, 612411, Note_on_c, 1, 34, 78
3, 612436, Note_on_c, 1, 32, 0
3, 613386, Note_on_c, 1, 36, 66
3, 613456, Note_on_c, 1, 34, 0
3, 614101, Note_on_c, 1, 35, 56
3, 614221, Note_on_c, 1, 35, 0
3, 614261, Note_on_c, 1, 36, 0
3, 614336, Note_on_c, 1, 37, 77
3, 615061, Note_on_c, 1, 35, 46
3, 615096, Note_on_c, 1, 37, 0
3, 615236, Note_on_c, 1, 38, 82
3, 615286, Note_on_c, 1, 35, 0
3, 616256, Note_on_c, 1, 50, 102
3, 616391, Note_on_c, 1, 38, 0
3, 616896, Note_on_c, 1, 37, 57
3, 616971, Note_on_c, 1, 37, 0
3, 617011, Note_on_c, 1, 50, 0
3, 617236, Note_on_c, 1, 43, 79
3, 618181, Note_on_c, 1, 37, 77
3, 618201, Note_on_c, 1, 43, 0
3, 619131, Note_on_c, 1, 37, 0
3, 619186, Note_on_c, 1, 31, 75
3, 619936, Note_on_c, 1, 37, 72
3, 620016, Note_on_c, 1, 37, 0
3, 620126, Note_on_c, 1, 31, 0
3, 620126, Note_on_c, 1, 49, 92
3, 621091, Note_on_c, 1, 49, 0
3, 621116, Note_on_c, 1, 48, 74
3, 621916, Note_on_c, 1, 48, 0
3, 622016, Note_on_c, 1, 42, 83
3, 622971, Note_on_c, 1, 42, 0
3, 623006, Note_on_c, 1, 41, 65
3, 623756, Note_on_c, 1, 40, 54
3, 623926, Note_on_c, 1, 41, 0
3, 623966, Note_on_c, 1, 40, 0
3, 623971, Note_on_c, 1, 55, 92
3, 624826, Note_on_c, 1, 55, 0
3, 624956, Note_on_c, 1, 53, 76
3, 625796, Note_on_c, 1, 53, 0
3, 625926, Note_on_c, 1, 51, 74
3, 626766, Note_on_c, 1, 51, 0
3, 626881, Note_on_c, 1, 49, 73
3, 627836, Note_on_c, 1, 48, 77
3, 627861, Note_on_c, 1, 49, 0
3, 628671, Note_on_c, 1, 48, 0
3, 628871, Note_on_c, 1, 47, 67
3, 629511, Note_on_c, 1, 47, 0
3, 629796, Note_on_c, 1, 45, 58
3, 630631, Note_on_c, 1, 45, 0
3, 630751, Note_on_c, 1, 46, 75
3, 631671, Note_on_c, 1, 38, 75
3, 631836, Note_on_c, 1, 46, 0
3, 632666, Note_on_c, 1, 38, 0
3, 632691, Note_on_c, 1, 39, 56
3, 633511, Note_on_c, 1, 39, 0
3, 633526, Note_on_c, 1, 38, 41
3, 633616, Note_on_c, 1, 38, 0
3, 633671, Note_on_c, 1, 44, 78
3, 634521, Note_on_c, 1, 44, 0
3, 634626, Note_on_c, 1, 43, 81
3, 635401, Note_on_c, 1, 43, 0
3, 635566, Note_on_c, 1, 32, 80
3, 636471, Note_on_c, 1, 32, 0
3, 636506, Note_on_c, 1, 31, 81
3, 637426, Note_on_c, 1, 31, 0
3, 637481, Note_on_c, 1, 37, 70
3, 638451, Note_on_c, 1, 37, 0
3, 638491, Note_on_c, 1, 36, 72
3, 639421, Note_on_c, 1, 43, 91
3, 639426, Note_on_c, 1, 36, 0
3, 640211, Note_on_c, 1, 43, 0
3, 640381, Note_on_c, 1, 50, 92
3, 641051, Note_on_c, 1, 50, 0
3, 641121, Note_on_c, 1, 36, 50
3, 641256, Note_on_c, 1, 49, 77
3, 641266, Note_on_c, 1, 36, 0
3, 641991, Note_on_c, 1, 36, 53
3, 642071, Note_on_c, 1, 49, 0
3, 642106, Note_on_c, 1, 36, 0
3, 642321, Note_on_c, 1, 48, 74
3, 643306, Note_on_c, 1, 41, 71
3, 643401, Note_on_c, 1, 48, 0
3, 644216, Note_on_c, 1, 41, 0
3, 644276, Note_on_c, 1, 29, 71
3, 645106, Note_on_c, 1, 29, 0
3, 645186, Note_on_c, 1, 36, 79
3, 646176, Note_on_c, 1, 36, 0
3, 646186, Note_on_c, 1, 41, 88
3, 647111, Note_on_c, 1, 41, 0
3, 647116, Note_on_c, 1, 36, 80
3, 647926, Note_on_c, 1, 36, 0
3, 648101, Note_on_c, 1, 35, 78
3, 648931, Note_on_c, 1, 35, 0
3, 649026, Note_on_c, 1, 33, 87
3, 649946, Note_on_c, 1, 33, 0
3, 650026, Note_on_c, 1, 34, 87
3, 650956, Note_on_c, 1, 34, 0
3, 650986, Note_on_c, 1, 36, 85
3, 651901, Note_on_c, 1, 37, 85
3, 651906, Note_on_c, 1, 36, 0
3, 652686, Note_on_c, 1, 37, 0
3, 652866, Note_on_c, 1, 38, 77
3, 653616, Note_on_c, 1, 38, 0
3, 653851, Note_on_c, 1, 39, 77
3, 654456, Note_on_c, 1, 39, 0
3, 654486, Note_on_c, 1, 32, 82
3, 654731, Note_on_c, 1, 32, 0
3, 654766, Note_on_c, 1, 31, 62
3, 655571, Note_on_c, 1, 31, 0
3, 655686, Note_on_c, 1, 34, 78
3, 656451, Note_on_c, 1, 34, 0
3, 656656, Note_on_c, 1, 32, 67
3, 657666, Note_on_c, 1, 31, 75
3, 657696, Note_on_c, 1, 32, 0
3, 658596, Note_on_c, 1, 31, 0
3, 658626, Note_on_c, 1, 37, 78
3, 659201, Note_on_c, 1, 37, 0
3, 659306, Note_on_c, 1, 32, 56
3, 659591, Note_on_c, 1, 36, 70
3, 659611, Note_on_c, 1, 32, 0
3, 660286, Note_on_c, 1, 32, 59
3, 660446, Note_on_c, 1, 36, 0
3, 660526, Note_on_c, 1, 32, 0
3, 660541, Note_on_c, 1, 48, 113
3, 661386, Note_on_c, 1, 48, 0
3, 661466, Note_on_c, 1, 44, 81
3, 662451, Note_on_c, 1, 41, 60
3, 663406, Note_on_c, 1, 44, 0
3, 663416, Note_on_c, 1, 36, 70
3, 663431, Note_on_c, 1, 41, 0
3, 664336, Note_on_c, 1, 36, 0
3, 664401, Note_on_c, 1, 32, 80
3, 665271, Note_on_c, 1, 32, 0
3, 665376, Note_on_c, 1, 33, 76
3, 666336, Note_on_c, 1, 39, 83
3, 666346, Note_on_c, 1, 33, 0
3, 667201, Note_on_c, 1, 39, 0
3, 667291, Note_on_c, 1, 38, 83
3, 668211, Note_on_c, 1, 38, 0
3, 668281, Note_on_c, 1, 33, 69
3, 668641, Note_on_c, 1, 33, 0
3, 668866, Note_on_c, 1, 38, 89
3, 669066, Note_on_c, 1, 38, 0
3, 669171, Note_on_c, 1, 39, 85
3, 670101, Note_on_c, 1, 39, 0
3, 670121, Note_on_c, 1, 29, 74
3, 670871, Note_on_c, 1, 29, 0
3, 671131, Note_on_c, 1, 31, 77
3, 671886, Note_on_c, 1, 31, 0
3, 672056, Note_on_c, 1, 34, 78
3, 673066, Note_on_c, 1, 44, 79
3, 673081, Note_on_c, 1, 34, 0
3, 673846, Note_on_c, 1, 34, 53
3, 673951, Note_on_c, 1, 34, 0
3, 673976, Note_on_c, 1, 44, 0
3, 673996, Note_on_c, 1, 48, 90
3, 675041, Note_on_c, 1, 41, 64
3, 675456, Note_on_c, 1, 48, 0
3, 675826, Note_on_c, 1, 41, 0
3, 675936, Note_on_c, 1, 37, 80
3, 676816, Note_on_c, 1, 37, 0
3, 676886, Note_on_c, 1, 38, 75
3, 677806, Note_on_c, 1, 38, 0
3, 677871, Note_on_c, 1, 32, 80
3, 678766, Note_on_c, 1, 32, 0
3, 678866, Note_on_c, 1, 31, 72
3, 679556, Note_on_c, 1, 31, 0
3, 679836, Note_on_c, 1, 31, 81
3, 680726, Note_on_c, 1, 31, 0
3, 680836, Note_on_c, 1, 36, 78
3, 681676, Note_on_c, 1, 36, 0
3, 681741, Note_on_c, 1, 35, 81
3, 682656, Note_on_c, 1, 35, 0
3, 682696, Note_on_c, 1, 36, 76
3, 683646, Note_on_c, 1, 48, 100
3, 683706, Note_on_c, 1, 36, 0
3, 684301, Note_on_c, 1, 41, 53
3, 684406, Note_on_c, 1, 41, 0
3, 684481, Note_on_c, 1, 48, 0
3, 684621, Note_on_c, 1, 44, 83
3, 685476, Note_on_c, 1, 44, 0
3, 685566, Note_on_c, 1, 41, 82
3, 686516, Note_on_c, 1, 41, 0
3, 686566, Note_on_c, 1, 36, 76
3, 687256, Note_on_c, 1, 36, 0
3, 687486, Note_on_c, 1, 36, 81
3, 688301, Note_on_c, 1, 36, 0
3, 688426, Note_on_c, 1, 37, 83
3, 690266, Note_on_c, 1, 37, 0
3, 690321, Note_on_c, 1, 29, 87
3, 691161, Note_on_c, 1, 29, 0
3, 691266, Note_on_c, 1, 28, 85
3, 692046, Note_on_c, 1, 28, 0
3, 692246, Note_on_c, 1, 39, 84
3, 694176, Note_on_c, 1, 39, 0
3, 694216, Note_on_c, 1, 32, 81
3, 694216, Note_on_c, 1, 48, 89
3, 696021, Note_on_c, 1, 48, 0
3, 696156, Note_on_c, 1, 31, 89
3, 696166, Note_on_c, 1, 32, 0
3, 696236, Note_on_c, 1, 49, 96
3, 697831, Note_on_c, 1, 49, 0
3, 698001, Note_on_c, 1, 31, 0
3, 698051, Note_on_c, 1, 48, 82
3, 698066, Note_on_c, 1, 36, 74
3, 698821, Note_on_c, 1, 48, 0
3, 698996, Note_on_c, 1, 36, 0
3, 699021, Note_on_c, 1, 30, 84
3, 700451, Note_on_c, 1, 30, 0
3, 700596, Note_on_c, 1, 29, 100
3, 701616, Note_on_c, 1, 29, 0
3, 701816, Note_on_c, 1, 41, 68
3, 701831, Note_on_c, 1, 39, 76
3, 701906, Note_on_c, 1, 39, 0
3, 701951, Note_on_c, 1, 41, 0
3, 702781, Note_on_c, 1, 34, 76
3, 703721, Note_on_c, 1, 46, 78
3, 704956, Note_on_c, 1, 46, 0
3, 705296, Note_on_c, 1, 46, 65
3, 705536, Note_on_c, 1, 34, 0
3, 706596, Note_on_c, 1, 33, 95
3, 706776, Note_on_c, 1, 46, 0
3, 707261, Note_on_c, 1, 34, 89
3, 707276, Note_on_c, 1, 33, 0
3, 709246, Note_on_c, 1, 33, 55
3, 709396, Note_on_c, 1, 33, 0
3, 709446, Note_on_c, 1, 46, 70
3, 709706, Note_on_c, 1, 46, 0
3, 710416, Note_on_c, 1, 46, 63
3, 710866, Note_on_c, 1, 46, 0
3, 711386, Note_on_c, 1, 46, 66
3, 712666, Note_on_c, 1, 46, 0
3, 712976, Note_on_c, 1, 46, 59
3, 713711, Note_on_c, 1, 34, 0
3, 713871, Note_on_c, 1, 32, 65
3, 714056, Note_on_c, 1, 46, 0
3, 714086, Note_on_c, 1, 32, 0
3, 714226, Note_on_c, 1, 33, 65
3, 714856, Note_on_c, 1, 33, 0
3, 714896, Note_on_c, 1, 34, 67
3, 717101, Note_on_c, 1, 46, 56
3, 717351, Note_on_c, 1, 46, 0
3, 718091, Note_on_c, 1, 46, 46
3, 718486, Note_on_c, 1, 46, 0
3, 719081, Note_on_c, 1, 46, 52
3, 720091, Note_on_c, 1, 46, 0
3, 720616, Note_on_c, 1, 46, 54
3, 721201, Note_on_c, 1, 34, 0
3, 721551, Note_on_c, 1, 32, 55
3, 721811, Note_on_c, 1, 32, 0
3, 722016, Note_on_c, 1, 33, 45
3, 722401, Note_on_c, 1, 46, 0
3, 722756, Note_on_c, 1, 33, 0
3, 722861, Note_on_c, 1, 34, 55
3, 724801, Note_on_c, 1, 46, 45
3, 725066, Note_on_c, 1, 46, 0
3, 725746, Note_on_c, 1, 46, 51
3, 726021, Note_on_c, 1, 46, 0
3, 726716, Note_on_c, 1, 46, 46
3, 727746, Note_on_c, 1, 46, 0
3, 728266, Note_on_c, 1, 46, 48
3, 729746, Note_on_c, 1, 34, 0
3, 730746, Note_on_c, 1, 34, 45
3, 730791, Note_on_c, 1, 46, 0
3, 734426, Note_on_c, 1, 46, 41
3, 735351, Note_on_c, 1, 46, 0
3, 736011, Note_on_c, 1, 46, 47
3, 736216, Note_on_c, 1, 34, 0
3, 738036, Note_on_c, 1, 33, 49
3, 738166, Note_on_c, 1, 46, 0
3, 738231, Note_on_c, 1, 33, 0
3, 738326, Note_on_c, 1, 34, 49
3, 748171, Note_on_c, 1, 34, 0
3, 748171, End_track
4, 0, Start_track
4, 0, Title_t, "MIDI 2"
4, 0, Program_c, 9, 40
4, 347493, Note_on_c, 9, 28, 36
4, 347493, Note_on_c, 9, 44, 62
4, 347613, Note_on_c, 9, 44, 0
4, 348453, Note_on_c, 9, 28, 0
4, 348453, Note_on_c, 9, 28, 22
4, 349421, Note_on_c, 9, 28, 0
4, 349421, Note_on_c, 9, 28, 36
4, 349421, Note_on_c, 9, 44, 62
4, 349601, Note_on_c, 9, 44, 0
4, 350381, Note_on_c, 9, 28, 0
4, 350381, Note_on_c, 9, 28, 36
4, 351341, Note_on_c, 9, 28, 0
4, 351341, Note_on_c, 9, 28, 36
4, 351341, Note_on_c, 9, 44, 58
4, 351576, Note_on_c, 9, 44, 0
4, 352301, Note_on_c, 9, 28, 0
4, 352301, Note_on_c, 9, 28, 40
4, 352906, Note_on_c, 9, 36, 37
4, 352996, Note_on_c, 9, 36, 0
4, 353261, Note_on_c, 9, 28, 0
4, 353261, Note_on_c, 9, 28, 45
4, 353901, Note_on_c, 9, 27, 61
4, 353901, Note_on_c, 9, 28, 40
4, 354106, Note_on_c, 9, 27, 0
4, 354221, Note_on_c, 9, 28, 0
4, 355181, Note_on_c, 9, 28, 0
4, 355181, Note_on_c, 9, 28, 36
4, 355181, Note_on_c, 9, 44, 57
4, 355336, Note_on_c, 9, 44, 0
4, 356141, Note_on_c, 9, 28, 0
4, 356141, Note_on_c, 9, 28, 31
4, 357101, Note_on_c, 9, 28, 0
4, 357101, Note_on_c, 9, 28, 36
4, 357101, Note_on_c, 9, 44, 50
4, 357316, Note_on_c, 9, 44, 0
4, 357741, Note_on_c, 9, 27, 63
4, 358011, Note_on_c, 9, 27, 0
4, 358061, Note_on_c, 9, 28, 0
4, 358061, Note_on_c, 9, 28, 48
4, 359021, Note_on_c, 9, 28, 0
4, 359021, Note_on_c, 9, 28, 31
4, 359021, Note_on_c, 9, 44, 49
4, 359181, Note_on_c, 9, 44, 0
4, 359981, Note_on_c, 9, 28, 0
4, 359981, Note_on_c, 9, 28, 36
4, 360941, Note_on_c, 9, 28, 0
4, 360941, Note_on_c, 9, 28, 31
4, 360941, Note_on_c, 9, 44, 58
4, 361116, Note_on_c, 9, 44, 0
4, 361901, Note_on_c, 9, 28, 0
4, 361901, Note_on_c, 9, 28, 36
4, 362861, Note_on_c, 9, 28, 0
4, 362861, Note_on_c, 9, 28, 38
4, 362861, Note_on_c, 9, 44, 71
4, 363111, Note_on_c, 9, 44, 0
4, 363821, Note_on_c, 9, 28, 0
4, 363821, Note_on_c, 9, 28, 31
4, 364781, Note_on_c, 9, 28, 0
4, 364781, Note_on_c, 9, 28, 38
4, 364836, Note_on_c, 9, 46, 40
4, 365051, Note_on_c, 9, 46, 0
4, 365741, Note_on_c, 9, 28, 0
4, 365741, Note_on_c, 9, 28, 36
4, 366381, Note_on_c, 9, 27, 63
4, 366631, Note_on_c, 9, 27, 0
4, 366701, Note_on_c, 9, 28, 0
4, 366701, Note_on_c, 9, 28, 45
4, 367661, Note_on_c, 9, 28, 0
4, 367661, Note_on_c, 9, 28, 29
4, 368621, Note_on_c, 9, 28, 0
4, 368621, Note_on_c, 9, 28, 36
4, 368621, Note_on_c, 9, 44, 67
4, 368831, Note_on_c, 9, 44, 0
4, 369581, Note_on_c, 9, 28, 0
4, 369581, Note_on_c, 9, 28, 40
4, 370541, Note_on_c, 9, 28, 0
4, 370541, Note_on_c, 9, 28, 50
4, 370541, Note_on_c, 9, 44, 67
4, 370761, Note_on_c, 9, 44, 0
4, 371501, Note_on_c, 9, 28, 0
4, 371501, Note_on_c, 9, 28, 29
4, 372461, Note_on_c, 9, 28, 0
4, 372461, Note_on_c, 9, 28, 34
4, 372491, Note_on_c, 9, 46, 37
4, 372631, Note_on_c, 9, 46, 0
4, 373421, Note_on_c, 9, 28, 0
4, 373421, Note_on_c, 9, 28, 36
4, 374381, Note_on_c, 9, 28, 0
4, 374381, Note_on_c, 9, 28, 45
4, 375341, Note_on_c, 9, 28, 0
4, 375341, Note_on_c, 9, 28, 34
4, 376301, Note_on_c, 9, 28, 0
4, 376301, Note_on_c, 9, 28, 50
4, 376301, Note_on_c, 9, 44, 76
4, 376456, Note_on_c, 9, 44, 0
4, 377261, Note_on_c, 9, 28, 0
4, 377261, Note_on_c, 9, 28, 45
4, 377261, Note_on_c, 9, 44, 78
4, 377481, Note_on_c, 9, 44, 0
4, 378221, Note_on_c, 9, 28, 0
4, 378221, Note_on_c, 9, 28, 40
4, 379181, Note_on_c, 9, 28, 0
4, 379181, Note_on_c, 9, 28, 36
4, 380111, Note_on_c, 9, 28, 29
4, 380141, Note_on_c, 9, 28, 0
4, 381101, Note_on_c, 9, 28, 0
4, 381101, Note_on_c, 9, 28, 45
4, 382061, Note_on_c, 9, 28, 0
4, 382061, Note_on_c, 9, 28, 47
4, 382061, Note_on_c, 9, 27, 61
4, 382061, Note_on_c, 9, 44, 80
4, 382176, Note_on_c, 9, 27, 0
4, 382261, Note_on_c, 9, 44, 0
4, 383021, Note_on_c, 9, 28, 0
4, 383021, Note_on_c, 9, 28, 34
4, 383981, Note_on_c, 9, 28, 0
4, 383981, Note_on_c, 9, 28, 31
4, 383981, Note_on_c, 9, 44, 75
4, 384201, Note_on_c, 9, 44, 0
4, 384941, Note_on_c, 9, 28, 0
4, 384941, Note_on_c, 9, 28, 22
4, 385901, Note_on_c, 9, 28, 0
4, 385901, Note_on_c, 9, 28, 36
4, 386861, Note_on_c, 9, 28, 0
4, 386861, Note_on_c, 9, 28, 34
4, 387501, Note_on_c, 9, 27, 64
4, 387796, Note_on_c, 9, 27, 0
4, 387821, Note_on_c, 9, 28, 0
4, 387821, Note_on_c, 9, 28, 48
4, 387821, Note_on_c, 9, 44, 89
4, 388071, Note_on_c, 9, 44, 0
4, 388781, Note_on_c, 9, 28, 0
4, 388781, Note_on_c, 9, 28, 36
4, 389741, Note_on_c, 9, 28, 0
4, 389741, Note_on_c, 9, 28, 31
4, 389741, Note_on_c, 9, 44, 83
4, 389951, Note_on_c, 9, 44, 0
4, 390701, Note_on_c, 9, 28, 0
4, 390701, Note_on_c, 9, 28, 36
4, 391661, Note_on_c, 9, 28, 0
4, 391661, Note_on_c, 9, 28, 45
4, 391661, Note_on_c, 9, 44, 87
4, 391856, Note_on_c, 9, 44, 0
4, 392621, Note_on_c, 9, 28, 0
4, 392621, Note_on_c, 9, 28, 36
4, 393581, Note_on_c, 9, 28, 0
4, 393581, Note_on_c, 9, 28, 36
4, 393581, Note_on_c, 9, 44, 76
4, 393761, Note_on_c, 9, 44, 0
4, 394541, Note_on_c, 9, 28, 0
4, 394541, Note_on_c, 9, 28, 38
4, 395501, Note_on_c, 9, 28, 0
4, 395501, Note_on_c, 9, 28, 36
4, 395501, Note_on_c, 9, 44, 72
4, 395686, Note_on_c, 9, 44, 0
4, 396461, Note_on_c, 9, 28, 0
4, 396461, Note_on_c, 9, 28, 47
4, 397421, Note_on_c, 9, 28, 0
4, 397421, Note_on_c, 9, 28, 47
4, 397421, Note_on_c, 9, 44, 76
4, 397596, Note_on_c, 9, 44, 0
4, 398381, Note_on_c, 9, 28, 0
4, 398381, Note_on_c, 9, 28, 48
4, 398401, Note_on_c, 9, 46, 47
4, 398651, Note_on_c, 9, 46, 0
4, 400301, Note_on_c, 9, 28, 0
4, 400301, Note_on_c, 9, 28, 45
4, 400941, Note_on_c, 9, 27, 66
4, 401176, Note_on_c, 9, 27, 0
4, 401261, Note_on_c, 9, 28, 0
4, 401261, Note_on_c, 9, 28, 48
4, 401261, Note_on_c, 9, 44, 80
4, 401456, Note_on_c, 9, 44, 0
4, 402221, Note_on_c, 9, 28, 0
4, 402221, Note_on_c, 9, 28, 45
4, 403181, Note_on_c, 9, 28, 0
4, 403181, Note_on_c, 9, 28, 38
4, 403181, Note_on_c, 9, 44, 67
4, 403326, Note_on_c, 9, 44, 0
4, 403821, Note_on_c, 9, 27, 62
4, 404066, Note_on_c, 9, 27, 0
4, 404141, Note_on_c, 9, 28, 0
4, 404141, Note_on_c, 9, 28, 40
4, 405101, Note_on_c, 9, 28, 0
4, 405101, Note_on_c, 9, 28, 31
4, 405101, Note_on_c, 9, 44, 59
4, 405351, Note_on_c, 9, 44, 0
4, 406061, Note_on_c, 9, 28, 0
4, 406061, Note_on_c, 9, 28, 31
4, 407021, Note_on_c, 9, 28, 0
4, 407021, Note_on_c, 9, 28, 36
4, 407021, Note_on_c, 9, 44, 46
4, 407196, Note_on_c, 9, 44, 0
4, 407981, Note_on_c, 9, 28, 0
4, 407981, Note_on_c, 9, 28, 34
4, 408041, Note_on_c, 9, 57, 16
4, 408141, Note_on_c, 9, 57, 0
4, 408941, Note_on_c, 9, 28, 0
4, 408941, Note_on_c, 9, 28, 47
4, 409901, Note_on_c, 9, 28, 0
4, 409901, Note_on_c, 9, 28, 47
4, 410861, Note_on_c, 9, 28, 0
4, 410861, Note_on_c, 9, 28, 45
4, 410861, Note_on_c, 9, 44, 66
4, 410986, Note_on_c, 9, 44, 0
4, 411821, Note_on_c, 9, 28, 0
4, 411821, Note_on_c, 9, 28, 34
4, 412781, Note_on_c, 9, 28, 0
4, 412781, Note_on_c, 9, 28, 31
4, 412781, Note_on_c, 9, 44, 63
4, 412916, Note_on_c, 9, 44, 0
4, 413741, Note_on_c, 9, 28, 0
4, 413741, Note_on_c, 9, 28, 22
4, 414701, Note_on_c, 9, 28, 0
4, 414701, Note_on_c, 9, 28, 38
4, 414701, Note_on_c, 9, 44, 54
4, 414811, Note_on_c, 9, 44, 0
4, 415346, Note_on_c, 9, 36, 34
4, 415441, Note_on_c, 9, 36, 0
4, 415661, Note_on_c, 9, 28, 0
4, 415661, Note_on_c, 9, 28, 29
4, 415721, Note_on_c, 9, 36, 24
4, 415866, Note_on_c, 9, 36, 0
4, 416621, Note_on_c, 9, 28, 0
4, 416621, Note_on_c, 9, 28, 45
4, 416621, Note_on_c, 9, 44, 66
4, 416816, Note_on_c, 9, 44, 0
4, 417581, Note_on_c, 9, 28, 0
4, 417581, Note_on_c, 9, 28, 36
4, 418541, Note_on_c, 9, 28, 0
4, 418541, Note_on_c, 9, 28, 36
4, 419501, Note_on_c, 9, 28, 0
4, 419501, Note_on_c, 9, 28, 36
4, 420141, Note_on_c, 9, 27, 68
4, 420421, Note_on_c, 9, 27, 0
4, 420461, Note_on_c, 9, 28, 0
4, 420461, Note_on_c, 9, 28, 36
4, 420461, Note_on_c, 9, 44, 62
4, 420586, Note_on_c, 9, 44, 0
4, 421421, Note_on_c, 9, 28, 0
4, 421421, Note_on_c, 9, 28, 36
4, 421996, Note_on_c, 9, 36, 30
4, 422086, Note_on_c, 9, 36, 0
4, 422381, Note_on_c, 9, 28, 0
4, 422381, Note_on_c, 9, 28, 36
4, 423341, Note_on_c, 9, 28, 0
4, 423341, Note_on_c, 9, 28, 34
4, 423341, Note_on_c, 9, 44, 66
4, 423506, Note_on_c, 9, 44, 0
4, 424301, Note_on_c, 9, 28, 0
4, 424301, Note_on_c, 9, 28, 40
4, 425261, Note_on_c, 9, 28, 0
4, 425261, Note_on_c, 9, 28, 34
4, 426221, Note_on_c, 9, 28, 0
4, 426221, Note_on_c, 9, 28, 36
4, 426221, Note_on_c, 9, 44, 67
4, 426371, Note_on_c, 9, 44, 0
4, 427181, Note_on_c, 9, 28, 0
4, 427181, Note_on_c, 9, 28, 36
4, 428141, Note_on_c, 9, 28, 0
4, 428141, Note_on_c, 9, 28, 40
4, 428141, Note_on_c, 9, 44, 71
4, 428276, Note_on_c, 9, 44, 0
4, 429101, Note_on_c, 9, 28, 0
4, 429101, Note_on_c, 9, 28, 34
4, 430061, Note_on_c, 9, 28, 0
4, 430061, Note_on_c, 9, 28, 36
4, 430061, Note_on_c, 9, 44, 66
4, 430196, Note_on_c, 9, 44, 0
4, 431021, Note_on_c, 9, 28, 0
4, 431021, Note_on_c, 9, 28, 36
4, 431981, Note_on_c, 9, 28, 0
4, 431981, Note_on_c, 9, 28, 31
4, 431981, Note_on_c, 9, 44, 55
4, 432106, Note_on_c, 9, 44, 0
4, 432941, Note_on_c, 9, 28, 0
4, 432941, Note_on_c, 9, 28, 47
4, 433901, Note_on_c, 9, 28, 0
4, 433901, Note_on_c, 9, 28, 45
4, 433901, Note_on_c, 9, 44, 62
4, 434111, Note_on_c, 9, 44, 0
4, 434861, Note_on_c, 9, 28, 0
4, 434861, Note_on_c, 9, 28, 27
4, 435466, Note_on_c, 9, 36, 19
4, 435576, Note_on_c, 9, 36, 0
4, 435811, Note_on_c, 9, 36, 28
4, 435821, Note_on_c, 9, 28, 0
4, 435821, Note_on_c, 9, 28, 40
4, 435916, Note_on_c, 9, 36, 0
4, 436781, Note_on_c, 9, 28, 0
4, 436781, Note_on_c, 9, 28, 40
4, 437741, Note_on_c, 9, 28, 0
4, 437741, Note_on_c, 9, 28, 40
4, 437741, Note_on_c, 9, 44, 75
4, 437996, Note_on_c, 9, 44, 0
4, 438701, Note_on_c, 9, 28, 0
4, 438701, Note_on_c, 9, 28, 36
4, 439661, Note_on_c, 9, 28, 0
4, 439661, Note_on_c, 9, 28, 36
4, 439661, Note_on_c, 9, 44, 71
4, 439881, Note_on_c, 9, 44, 0
4, 440621, Note_on_c, 9, 28, 0
4, 440621, Note_on_c, 9, 28, 47
4, 441581, Note_on_c, 9, 28, 0
4, 441591, Note_on_c, 9, 46, 51
4, 441871, Note_on_c, 9, 46, 0
4, 442541, Note_on_c, 9, 28, 27
4, 443501, Note_on_c, 9, 28, 0
4, 443501, Note_on_c, 9, 28, 48
4, 443501, Note_on_c, 9, 44, 68
4, 443706, Note_on_c, 9, 44, 0
4, 444461, Note_on_c, 9, 28, 0
4, 444461, Note_on_c, 9, 28, 36
4, 444461, Note_on_c, 9, 44, 63
4, 444691, Note_on_c, 9, 44, 0
4, 445101, Note_on_c, 9, 27, 70
4, 445386, Note_on_c, 9, 27, 0
4, 445421, Note_on_c, 9, 28, 0
4, 445421, Note_on_c, 9, 28, 36
4, 446381, Note_on_c, 9, 28, 0
4, 446381, Note_on_c, 9, 28, 36
4, 447341, Note_on_c, 9, 28, 0
4, 447341, Note_on_c, 9, 28, 40
4, 447341, Note_on_c, 9, 44, 79
4, 447566, Note_on_c, 9, 44, 0
4, 448301, Note_on_c, 9, 28, 0
4, 448301, Note_on_c, 9, 28, 47
4, 449261, Note_on_c, 9, 28, 0
4, 449261, Note_on_c, 9, 28, 45
4, 449261, Note_on_c, 9, 44, 78
4, 449491, Note_on_c, 9, 44, 0
4, 450221, Note_on_c, 9, 28, 0
4, 450221, Note_on_c, 9, 28, 22
4, 450861, Note_on_c, 9, 27, 63
4, 451106, Note_on_c, 9, 27, 0
4, 451181, Note_on_c, 9, 28, 0
4, 451181, Note_on_c, 9, 28, 48
4, 451181, Note_on_c, 9, 44, 80
4, 451411, Note_on_c, 9, 44, 0
4, 452141, Note_on_c, 9, 28, 0
4, 452141, Note_on_c, 9, 28, 45
4, 452141, Note_on_c, 9, 44, 70
4, 452381, Note_on_c, 9, 44, 0
4, 453101, Note_on_c, 9, 28, 0
4, 453101, Note_on_c, 9, 28, 45
4, 454061, Note_on_c, 9, 28, 0
4, 454061, Note_on_c, 9, 28, 36
4, 454061, Note_on_c, 9, 44, 76
4, 454256, Note_on_c, 9, 44, 0
4, 454701, Note_on_c, 9, 27, 67
4, 454971, Note_on_c, 9, 27, 0
4, 455021, Note_on_c, 9, 28, 0
4, 455021, Note_on_c, 9, 28, 45
4, 455021, Note_on_c, 9, 44, 76
4, 455256, Note_on_c, 9, 44, 0
4, 455981, Note_on_c, 9, 28, 0
4, 455981, Note_on_c, 9, 28, 36
4, 456941, Note_on_c, 9, 28, 0
4, 456941, Note_on_c, 9, 28, 36
4, 456941, Note_on_c, 9, 44, 80
4, 457151, Note_on_c, 9, 44, 0
4, 457901, Note_on_c, 9, 28, 0
4, 457901, Note_on_c, 9, 28, 31
4, 457901, Note_on_c, 9, 44, 81
4, 458141, Note_on_c, 9, 44, 0
4, 458861, Note_on_c, 9, 28, 0
4, 458861, Note_on_c, 9, 28, 38
4, 459821, Note_on_c, 9, 28, 0
4, 459821, Note_on_c, 9, 28, 36
4, 459821, Note_on_c, 9, 44, 80
4, 460026, Note_on_c, 9, 44, 0
4, 460781, Note_on_c, 9, 28, 0
4, 460781, Note_on_c, 9, 28, 36
4, 460781, Note_on_c, 9, 44, 76
4, 461031, Note_on_c, 9, 44, 0
4, 461741, Note_on_c, 9, 28, 0
4, 461741, Note_on_c, 9, 28, 45
4, 462701, Note_on_c, 9, 28, 0
4, 462701, Note_on_c, 9, 28, 38
4, 462701, Note_on_c, 9, 44, 84
4, 462906, Note_on_c, 9, 44, 0
4, 463661, Note_on_c, 9, 28, 0
4, 463661, Note_on_c, 9, 28, 36
4, 463661, Note_on_c, 9, 44, 84
4, 463861, Note_on_c, 9, 44, 0
4, 464621, Note_on_c, 9, 28, 0
4, 464621, Note_on_c, 9, 28, 48
4, 465581, Note_on_c, 9, 28, 0
4, 465581, Note_on_c, 9, 28, 47
4, 465581, Note_on_c, 9, 44, 87
4, 465741, Note_on_c, 9, 44, 0
4, 466541, Note_on_c, 9, 28, 0
4, 466541, Note_on_c, 9, 28, 45
4, 466541, Note_on_c, 9, 44, 87
4, 466701, Note_on_c, 9, 44, 0
4, 467181, Note_on_c, 9, 28, 29
4, 467501, Note_on_c, 9, 28, 0
4, 467551, Note_on_c, 9, 59, 94
4, 467841, Note_on_c, 9, 59, 0
4, 468036, Program_c, 9, 1
4, 468461, Note_on_c, 9, 28, 0
4, 468461, Note_on_c, 9, 44, 59
4, 468606, Note_on_c, 9, 59, 84
4, 468716, Note_on_c, 9, 44, 0
4, 469206, Note_on_c, 9, 59, 0
4, 469421, Note_on_c, 9, 44, 62
4, 469641, Note_on_c, 9, 44, 0
4, 470381, Note_on_c, 9, 44, 53
4, 470386, Note_on_c, 9, 59, 65
4, 470451, Note_on_c, 9, 59, 94
4, 470536, Note_on_c, 9, 59, 0
4, 470781, Note_on_c, 9, 59, 0
4, 470801, Note_on_c, 9, 44, 0
4, 472046, Note_on_c, 9, 59, 55
4, 472161, Note_on_c, 9, 59, 0
4, 472301, Note_on_c, 9, 44, 47
4, 472331, Note_on_c, 9, 59, 127
4, 472361, Note_on_c, 9, 59, 63
4, 472536, Note_on_c, 9, 59, 0
4, 472561, Note_on_c, 9, 44, 0
4, 472721, Note_on_c, 9, 59, 0
4, 473291, Note_on_c, 9, 59, 79
4, 473736, Note_on_c, 9, 59, 0
4, 474261, Note_on_c, 9, 46, 42
4, 474886, Note_on_c, 9, 59, 43
4, 474926, Note_on_c, 9, 46, 0
4, 475011, Note_on_c, 9, 59, 0
4, 475221, Note_on_c, 9, 59, 66
4, 475781, Note_on_c, 9, 59, 0
4, 475841, Note_on_c, 9, 37, 40
4, 476006, Note_on_c, 9, 37, 0
4, 476141, Note_on_c, 9, 44, 39
4, 476166, Note_on_c, 9, 59, 80
4, 476361, Note_on_c, 9, 44, 0
4, 476736, Note_on_c, 9, 59, 0
4, 476796, Note_on_c, 9, 36, 46
4, 476941, Note_on_c, 9, 36, 0
4, 477206, Note_on_c, 9, 36, 30
4, 477576, Note_on_c, 9, 36, 0
4, 477791, Note_on_c, 9, 59, 22
4, 477906, Note_on_c, 9, 59, 0
4, 478061, Note_on_c, 9, 44, 37
4, 478081, Note_on_c, 9, 59, 65
4, 478366, Note_on_c, 9, 44, 0
4, 478601, Note_on_c, 9, 59, 0
4, 479016, Note_on_c, 9, 59, 63
4, 479506, Note_on_c, 9, 59, 0
4, 479981, Note_on_c, 9, 44, 23
4, 480286, Note_on_c, 9, 44, 0
4, 480641, Note_on_c, 9, 36, 51
4, 480721, Note_on_c, 9, 36, 0
4, 480741, Note_on_c, 9, 59, 54
4, 480866, Note_on_c, 9, 59, 0
4, 481071, Note_on_c, 9, 59, 64
4, 481576, Note_on_c, 9, 59, 0
4, 481901, Note_on_c, 9, 44, 47
4, 481941, Note_on_c, 9, 59, 78
4, 482261, Note_on_c, 9, 44, 0
4, 482391, Note_on_c, 9, 59, 0
4, 482841, Note_on_c, 9, 59, 41
4, 483366, Note_on_c, 9, 59, 0
4, 483511, Note_on_c, 9, 53, 53
4, 483626, Note_on_c, 9, 53, 0
4, 483821, Note_on_c, 9, 44, 44
4, 483846, Note_on_c, 9, 36, 29
4, 483921, Note_on_c, 9, 59, 40
4, 484076, Note_on_c, 9, 44, 0
4, 484246, Note_on_c, 9, 36, 0
4, 484406, Note_on_c, 9, 59, 0
4, 484481, Note_on_c, 9, 36, 45
4, 484761, Note_on_c, 9, 36, 0
4, 484801, Note_on_c, 9, 59, 58
4, 484871, Note_on_c, 9, 36, 38
4, 485176, Note_on_c, 9, 36, 0
4, 485321, Note_on_c, 9, 59, 0
4, 485741, Note_on_c, 9, 44, 36
4, 485791, Note_on_c, 9, 59, 56
4, 486051, Note_on_c, 9, 44, 0
4, 486186, Note_on_c, 9, 59, 0
4, 486436, Note_on_c, 9, 59, 40
4, 486631, Note_on_c, 9, 59, 0
4, 486791, Note_on_c, 9, 59, 46
4, 487336, Note_on_c, 9, 59, 0
4, 487661, Note_on_c, 9, 44, 38
4, 487701, Note_on_c, 9, 59, 71
4, 487896, Note_on_c, 9, 44, 0
4, 489016, Note_on_c, 9, 59, 0
4, 489306, Note_on_c, 9, 59, 33
4, 489486, Note_on_c, 9, 59, 0
4, 489581, Note_on_c, 9, 44, 34
4, 489631, Note_on_c, 9, 59, 63
4, 489876, Note_on_c, 9, 44, 0
4, 490231, Note_on_c, 9, 59, 0
4, 491171, Note_on_c, 9, 59, 61
4, 491316, Note_on_c, 9, 59, 0
4, 491501, Note_on_c, 9, 44, 43
4, 491906, Note_on_c, 9, 44, 0
4, 492171, Note_on_c, 9, 59, 45
4, 492296, Note_on_c, 9, 59, 0
4, 492481, Note_on_c, 9, 59, 57
4, 492941, Note_on_c, 9, 59, 0
4, 493126, Note_on_c, 9, 59, 55
4, 493226, Note_on_c, 9, 59, 0
4, 493426, Note_on_c, 9, 59, 55
4, 493971, Note_on_c, 9, 59, 0
4, 494031, Note_on_c, 9, 36, 50
4, 494256, Note_on_c, 9, 36, 0
4, 494441, Note_on_c, 9, 59, 48
4, 494826, Note_on_c, 9, 59, 0
4, 495011, Note_on_c, 9, 53, 71
4, 495186, Note_on_c, 9, 53, 0
4, 495341, Note_on_c, 9, 44, 57
4, 495416, Note_on_c, 9, 59, 38
4, 495571, Note_on_c, 9, 44, 0
4, 495936, Note_on_c, 9, 59, 0
4, 496311, Note_on_c, 9, 59, 55
4, 496821, Note_on_c, 9, 59, 0
4, 497261, Note_on_c, 9, 44, 39
4, 497296, Note_on_c, 9, 59, 61
4, 497586, Note_on_c, 9, 44, 0
4, 497926, Note_on_c, 9, 59, 0
4, 499661, Note_on_c, 9, 44, 57
4, 499876, Note_on_c, 9, 44, 0
4, 499961, Note_on_c, 9, 59, 37
4, 500046, Note_on_c, 9, 59, 0
4, 500141, Note_on_c, 9, 44, 36
4, 500211, Note_on_c, 9, 59, 60
4, 500356, Note_on_c, 9, 44, 0
4, 500776, Note_on_c, 9, 59, 0
4, 500891, Note_on_c, 9, 53, 26
4, 501031, Note_on_c, 9, 53, 0
4, 501266, Note_on_c, 9, 59, 49
4, 501706, Note_on_c, 9, 59, 0
4, 501881, Note_on_c, 9, 59, 58
4, 502061, Note_on_c, 9, 59, 0
4, 504096, Note_on_c, 9, 59, 66
4, 504551, Note_on_c, 9, 59, 0
4, 504696, Note_on_c, 9, 36, 38
4, 504771, Note_on_c, 9, 59, 52
4, 504901, Note_on_c, 9, 36, 0
4, 504931, Note_on_c, 9, 59, 0
4, 504941, Note_on_c, 9, 44, 48
4, 505146, Note_on_c, 9, 59, 74
4, 505216, Note_on_c, 9, 44, 0
4, 505386, Note_on_c, 9, 59, 0
4, 505706, Note_on_c, 9, 59, 55
4, 505796, Note_on_c, 9, 59, 0
4, 506061, Note_on_c, 9, 36, 40
4, 506366, Note_on_c, 9, 36, 0
4, 506601, Note_on_c, 9, 59, 83
4, 506791, Note_on_c, 9, 59, 0
4, 506936, Note_on_c, 9, 46, 50
4, 507186, Note_on_c, 9, 46, 0
4, 507561, Note_on_c, 9, 59, 102
4, 507656, Note_on_c, 9, 59, 0
4, 507916, Note_on_c, 9, 59, 52
4, 507956, Note_on_c, 9, 36, 20
4, 508206, Note_on_c, 9, 36, 0
4, 508426, Note_on_c, 9, 59, 0
4, 508546, Note_on_c, 9, 59, 45
4, 508596, Note_on_c, 9, 36, 37
4, 508656, Note_on_c, 9, 59, 0
4, 508781, Note_on_c, 9, 44, 52
4, 508861, Note_on_c, 9, 36, 0
4, 508866, Note_on_c, 9, 59, 58
4, 508941, Note_on_c, 9, 44, 0
4, 509471, Note_on_c, 9, 59, 0
4, 509876, Note_on_c, 9, 59, 70
4, 509911, Note_on_c, 9, 36, 24
4, 510036, Note_on_c, 9, 36, 0
4, 510281, Note_on_c, 9, 59, 0
4, 510701, Note_on_c, 9, 44, 45
4, 510886, Note_on_c, 9, 44, 0
4, 511841, Note_on_c, 9, 59, 60
4, 512226, Note_on_c, 9, 59, 0
4, 512421, Note_on_c, 9, 59, 50
4, 512566, Note_on_c, 9, 59, 0
4, 512621, Note_on_c, 9, 44, 37
4, 512756, Note_on_c, 9, 44, 0
4, 513301, Note_on_c, 9, 37, 56
4, 513471, Note_on_c, 9, 37, 0
4, 513956, Note_on_c, 9, 37, 49
4, 514236, Note_on_c, 9, 37, 0
4, 514301, Note_on_c, 9, 59, 52
4, 514426, Note_on_c, 9, 59, 0
4, 514541, Note_on_c, 9, 44, 34
4, 514651, Note_on_c, 9, 59, 42
4, 514666, Note_on_c, 9, 37, 51
4, 514756, Note_on_c, 9, 44, 0
4, 514916, Note_on_c, 9, 59, 0
4, 514996, Note_on_c, 9, 37, 0
4, 515301, Note_on_c, 9, 37, 47
4, 515561, Note_on_c, 9, 59, 62
4, 515576, Note_on_c, 9, 37, 0
4, 515906, Note_on_c, 9, 59, 0
4, 515951, Note_on_c, 9, 37, 43
4, 516156, Note_on_c, 9, 37, 0
4, 516461, Note_on_c, 9, 44, 37
4, 516551, Note_on_c, 9, 36, 30
4, 516666, Note_on_c, 9, 44, 0
4, 516671, Note_on_c, 9, 36, 0
4, 517021, Note_on_c, 9, 59, 60
4, 517171, Note_on_c, 9, 36, 66
4, 517241, Note_on_c, 9, 59, 0
4, 517391, Note_on_c, 9, 36, 0
4, 517576, Note_on_c, 9, 36, 64
4, 517966, Note_on_c, 9, 36, 0
4, 518016, Note_on_c, 9, 59, 48
4, 518186, Note_on_c, 9, 59, 0
4, 518371, Note_on_c, 9, 59, 45
4, 518391, Note_on_c, 9, 46, 39
4, 518731, Note_on_c, 9, 59, 0
4, 518786, Note_on_c, 9, 46, 0
4, 518971, Note_on_c, 9, 53, 48
4, 519051, Note_on_c, 9, 53, 0
4, 519386, Note_on_c, 9, 59, 34
4, 519741, Note_on_c, 9, 59, 0
4, 519946, Note_on_c, 9, 59, 46
4, 520061, Note_on_c, 9, 59, 0
4, 520301, Note_on_c, 9, 44, 56
4, 520326, Note_on_c, 9, 59, 36
4, 520476, Note_on_c, 9, 44, 0
4, 520721, Note_on_c, 9, 59, 0
4, 520931, Note_on_c, 9, 53, 46
4, 521046, Note_on_c, 9, 53, 0
4, 521306, Note_on_c, 9, 59, 44
4, 521796, Note_on_c, 9, 59, 0
4, 522181, Note_on_c, 9, 59, 39
4, 522551, Note_on_c, 9, 59, 0
4, 522786, Note_on_c, 9, 59, 53
4, 522991, Note_on_c, 9, 59, 0
4, 524141, Note_on_c, 9, 46, 55
4, 524331, Note_on_c, 9, 46, 0
4, 524806, Note_on_c, 9, 59, 33
4, 524926, Note_on_c, 9, 59, 0
4, 525156, Note_on_c, 9, 59, 49
4, 525561, Note_on_c, 9, 59, 0
4, 526061, Note_on_c, 9, 44, 49
4, 526211, Note_on_c, 9, 44, 0
4, 526686, Note_on_c, 9, 59, 62
4, 526876, Note_on_c, 9, 59, 0
4, 527086, Note_on_c, 9, 59, 40
4, 527431, Note_on_c, 9, 59, 0
4, 527691, Note_on_c, 9, 53, 24
4, 527791, Note_on_c, 9, 53, 0
4, 527796, Note_on_c, 9, 59, 25
4, 527921, Note_on_c, 9, 59, 0
4, 527946, Note_on_c, 9, 36, 35
4, 527981, Note_on_c, 9, 44, 60
4, 528146, Note_on_c, 9, 44, 0
4, 528146, Note_on_c, 9, 36, 0
4, 528691, Note_on_c, 9, 53, 58
4, 528796, Note_on_c, 9, 53, 0
4, 529571, Note_on_c, 9, 53, 66
4, 529771, Note_on_c, 9, 53, 0
4, 529986, Note_on_c, 9, 53, 44
4, 530081, Note_on_c, 9, 53, 0
4, 530501, Note_on_c, 9, 53, 70
4, 530731, Note_on_c, 9, 53, 0
4, 530931, Note_on_c, 9, 59, 58
4, 531286, Note_on_c, 9, 59, 0
4, 531761, Note_on_c, 9, 36, 39
4, 531836, Note_on_c, 9, 59, 62
4, 532026, Note_on_c, 9, 36, 0
4, 532376, Note_on_c, 9, 59, 0
4, 532741, Note_on_c, 9, 59, 64
4, 533096, Note_on_c, 9, 59, 0
4, 533386, Note_on_c, 9, 53, 54
4, 533461, Note_on_c, 9, 53, 0
4, 533756, Note_on_c, 9, 59, 39
4, 534156, Note_on_c, 9, 59, 0
4, 534361, Note_on_c, 9, 59, 67
4, 534626, Note_on_c, 9, 59, 0
4, 536611, Note_on_c, 9, 59, 31
4, 536931, Note_on_c, 9, 59, 0
4, 537256, Note_on_c, 9, 59, 50
4, 537341, Note_on_c, 9, 59, 0
4, 537581, Note_on_c, 9, 44, 59
4, 537836, Note_on_c, 9, 44, 0
4, 538166, Note_on_c, 9, 59, 72
4, 538196, Note_on_c, 9, 59, 100
4, 538396, Note_on_c, 9, 59, 0
4, 538426, Note_on_c, 9, 59, 0
4, 538586, Note_on_c, 9, 59, 50
4, 538596, Note_on_c, 9, 59, 94
4, 539066, Note_on_c, 9, 59, 0
4, 539086, Note_on_c, 9, 59, 0
4, 539201, Note_on_c, 9, 36, 31
4, 539361, Note_on_c, 9, 36, 0
4, 540066, Note_on_c, 9, 59, 69
4, 540116, Note_on_c, 9, 59, 108
4, 540261, Note_on_c, 9, 36, 37
4, 540371, Note_on_c, 9, 36, 0
4, 540391, Note_on_c, 9, 59, 0
4, 540421, Note_on_c, 9, 59, 0
4, 541081, Note_on_c, 9, 59, 36
4, 541171, Note_on_c, 9, 59, 0
4, 541421, Note_on_c, 9, 44, 62
4, 541421, Note_on_c, 9, 53, 45
4, 541431, Note_on_c, 9, 59, 55
4, 541611, Note_on_c, 9, 44, 0
4, 541946, Note_on_c, 9, 59, 0
4, 541961, Note_on_c, 9, 53, 0
4, 542076, Note_on_c, 9, 36, 29
4, 542201, Note_on_c, 9, 36, 0
4, 543956, Note_on_c, 9, 59, 58
4, 544086, Note_on_c, 9, 59, 0
4, 544961, Note_on_c, 9, 59, 60
4, 545111, Note_on_c, 9, 59, 0
4, 545261, Note_on_c, 9, 44, 46
4, 545526, Note_on_c, 9, 44, 0
4, 545961, Note_on_c, 9, 59, 44
4, 546066, Note_on_c, 9, 59, 0
4, 546306, Note_on_c, 9, 59, 49
4, 546721, Note_on_c, 9, 59, 0
4, 546851, Note_on_c, 9, 53, 42
4, 546951, Note_on_c, 9, 53, 0
4, 547246, Note_on_c, 9, 59, 54
4, 547601, Note_on_c, 9, 59, 0
4, 548196, Note_on_c, 9, 59, 60
4, 548666, Note_on_c, 9, 59, 0
4, 548741, Note_on_c, 9, 36, 48
4, 548826, Note_on_c, 9, 36, 0
4, 548921, Note_on_c, 9, 36, 37
4, 549136, Note_on_c, 9, 36, 0
4, 549786, Note_on_c, 9, 59, 39
4, 549881, Note_on_c, 9, 59, 0
4, 550061, Note_on_c, 9, 44, 51
4, 550101, Note_on_c, 9, 59, 48
4, 550266, Note_on_c, 9, 44, 0
4, 550581, Note_on_c, 9, 59, 0
4, 550756, Note_on_c, 9, 59, 60
4, 550866, Note_on_c, 9, 59, 0
4, 551096, Note_on_c, 9, 53, 40
4, 551311, Note_on_c, 9, 53, 0
4, 551671, Note_on_c, 9, 36, 49
4, 551866, Note_on_c, 9, 36, 0
4, 552071, Note_on_c, 9, 59, 60
4, 552586, Note_on_c, 9, 59, 0
4, 552941, Note_on_c, 9, 44, 52
4, 552971, Note_on_c, 9, 59, 72
4, 553131, Note_on_c, 9, 44, 0
4, 553601, Note_on_c, 9, 59, 0
4, 554861, Note_on_c, 9, 44, 51
4, 555021, Note_on_c, 9, 44, 0
4, 555491, Note_on_c, 9, 53, 62
4, 555641, Note_on_c, 9, 53, 0
4, 555861, Note_on_c, 9, 59, 40
4, 556251, Note_on_c, 9, 59, 0
4, 556451, Note_on_c, 9, 59, 57
4, 556586, Note_on_c, 9, 59, 0
4, 556781, Note_on_c, 9, 44, 55
4, 556946, Note_on_c, 9, 44, 0
4, 557461, Note_on_c, 9, 53, 32
4, 557551, Note_on_c, 9, 53, 0
4, 557746, Note_on_c, 9, 59, 62
4, 558231, Note_on_c, 9, 59, 0
4, 558686, Note_on_c, 9, 59, 68
4, 558706, Note_on_c, 9, 46, 46
4, 558921, Note_on_c, 9, 46, 0
4, 559251, Note_on_c, 9, 59, 0
4, 560411, Note_on_c, 9, 59, 36
4, 560506, Note_on_c, 9, 59, 0
4, 560621, Note_on_c, 9, 44, 58
4, 560736, Note_on_c, 9, 59, 47
4, 560801, Note_on_c, 9, 44, 0
4, 561251, Note_on_c, 9, 59, 0
4, 561366, Note_on_c, 9, 36, 38
4, 561396, Note_on_c, 9, 59, 79
4, 561471, Note_on_c, 9, 36, 0
4, 561676, Note_on_c, 9, 59, 0
4, 562306, Note_on_c, 9, 53, 50
4, 562386, Note_on_c, 9, 53, 0
4, 562416, Note_on_c, 9, 36, 24
4, 562501, Note_on_c, 9, 36, 0
4, 562541, Note_on_c, 9, 44, 58
4, 562641, Note_on_c, 9, 59, 36
4, 562706, Note_on_c, 9, 44, 0
4, 563056, Note_on_c, 9, 59, 0
4, 563281, Note_on_c, 9, 59, 63
4, 563606, Note_on_c, 9, 59, 0
4, 564246, Note_on_c, 9, 37, 43
4, 564261, Note_on_c, 9, 53, 48
4, 564336, Note_on_c, 9, 53, 0
4, 564396, Note_on_c, 9, 37, 0
4, 564461, Note_on_c, 9, 44, 56
4, 564606, Note_on_c, 9, 59, 62
4, 564696, Note_on_c, 9, 44, 0
4, 565111, Note_on_c, 9, 59, 0
4, 565541, Note_on_c, 9, 59, 60
4, 565566, Note_on_c, 9, 37, 44
4, 565886, Note_on_c, 9, 37, 0
4, 566081, Note_on_c, 9, 59, 0
4, 566381, Note_on_c, 9, 44, 62
4, 566561, Note_on_c, 9, 36, 34
4, 566621, Note_on_c, 9, 44, 0
4, 566666, Note_on_c, 9, 36, 0
4, 567126, Note_on_c, 9, 36, 50
4, 567226, Note_on_c, 9, 36, 0
4, 567341, Note_on_c, 9, 44, 62
4, 567406, Note_on_c, 9, 59, 68
4, 567541, Note_on_c, 9, 44, 0
4, 567776, Note_on_c, 9, 59, 0
4, 568041, Note_on_c, 9, 59, 49
4, 568136, Note_on_c, 9, 59, 0
4, 568951, Note_on_c, 9, 59, 80
4, 569161, Note_on_c, 9, 59, 0
4, 569901, Note_on_c, 9, 59, 36
4, 569991, Note_on_c, 9, 59, 0
4, 570221, Note_on_c, 9, 44, 52
4, 570321, Note_on_c, 9, 44, 0
4, 570821, Note_on_c, 9, 59, 58
4, 570896, Note_on_c, 9, 59, 0
4, 570901, Note_on_c, 9, 36, 49
4, 571066, Note_on_c, 9, 36, 0
4, 571141, Note_on_c, 9, 59, 45
4, 571266, Note_on_c, 9, 36, 40
4, 571411, Note_on_c, 9, 36, 0
4, 571616, Note_on_c, 9, 59, 0
4, 572116, Note_on_c, 9, 59, 51
4, 572141, Note_on_c, 9, 44, 44
4, 572366, Note_on_c, 9, 44, 0
4, 572591, Note_on_c, 9, 59, 0
4, 573146, Note_on_c, 9, 59, 76
4, 573626, Note_on_c, 9, 59, 0
4, 574151, Note_on_c, 9, 59, 52
4, 574251, Note_on_c, 9, 59, 0
4, 574736, Note_on_c, 9, 59, 73
4, 574961, Note_on_c, 9, 59, 0
4, 575161, Note_on_c, 9, 59, 40
4, 575576, Note_on_c, 9, 59, 0
4, 575781, Note_on_c, 9, 59, 36
4, 575871, Note_on_c, 9, 59, 0
4, 575981, Note_on_c, 9, 44, 59
4, 576061, Note_on_c, 9, 59, 66
4, 576171, Note_on_c, 9, 44, 0
4, 576651, Note_on_c, 9, 36, 42
4, 576676, Note_on_c, 9, 59, 0
4, 576811, Note_on_c, 9, 36, 0
4, 577031, Note_on_c, 9, 59, 76
4, 577081, Note_on_c, 9, 36, 33
4, 577296, Note_on_c, 9, 36, 0
4, 577426, Note_on_c, 9, 59, 0
4, 577636, Note_on_c, 9, 59, 41
4, 577731, Note_on_c, 9, 59, 0
4, 577901, Note_on_c, 9, 44, 53
4, 578046, Note_on_c, 9, 59, 30
4, 578071, Note_on_c, 9, 44, 0
4, 578166, Note_on_c, 9, 59, 0
4, 578586, Note_on_c, 9, 53, 46
4, 578806, Note_on_c, 9, 53, 0
4, 579516, Note_on_c, 9, 59, 42
4, 579601, Note_on_c, 9, 59, 0
4, 579821, Note_on_c, 9, 44, 55
4, 579846, Note_on_c, 9, 36, 26
4, 579886, Note_on_c, 9, 59, 50
4, 579911, Note_on_c, 9, 53, 52
4, 579991, Note_on_c, 9, 44, 0
4, 580071, Note_on_c, 9, 36, 0
4, 580266, Note_on_c, 9, 59, 0
4, 580481, Note_on_c, 9, 36, 54
4, 580501, Note_on_c, 9, 53, 0
4, 580756, Note_on_c, 9, 59, 48
4, 580801, Note_on_c, 9, 36, 0
4, 580946, Note_on_c, 9, 59, 0
4, 581446, Note_on_c, 9, 59, 67
4, 581741, Note_on_c, 9, 59, 0
4, 581741, Note_on_c, 9, 44, 45
4, 581776, Note_on_c, 9, 59, 54
4, 581931, Note_on_c, 9, 59, 0
4, 581961, Note_on_c, 9, 44, 0
4, 582416, Note_on_c, 9, 59, 31
4, 582501, Note_on_c, 9, 59, 0
4, 582811, Note_on_c, 9, 59, 68
4, 582836, Note_on_c, 9, 53, 55
4, 583261, Note_on_c, 9, 59, 0
4, 583296, Note_on_c, 9, 53, 0
4, 583661, Note_on_c, 9, 44, 40
4, 583661, Note_on_c, 9, 44, 37
4, 583731, Note_on_c, 9, 59, 33
4, 583776, Note_on_c, 9, 44, 0
4, 583796, Note_on_c, 9, 59, 60
4, 583906, Note_on_c, 9, 59, 0
4, 583971, Note_on_c, 9, 44, 0
4, 583976, Note_on_c, 9, 59, 0
4, 584346, Note_on_c, 9, 59, 76
4, 584361, Note_on_c, 9, 53, 63
4, 584751, Note_on_c, 9, 53, 0
4, 584771, Note_on_c, 9, 59, 0
4, 585366, Note_on_c, 9, 59, 26
4, 585371, Note_on_c, 9, 36, 34
4, 585476, Note_on_c, 9, 36, 0
4, 585491, Note_on_c, 9, 59, 0
4, 585581, Note_on_c, 9, 44, 39
4, 585641, Note_on_c, 9, 59, 52
4, 585711, Note_on_c, 9, 59, 68
4, 585731, Note_on_c, 9, 59, 0
4, 585746, Note_on_c, 9, 53, 59
4, 585796, Note_on_c, 9, 44, 0
4, 586001, Note_on_c, 9, 53, 0
4, 586081, Note_on_c, 9, 59, 0
4, 586306, Note_on_c, 9, 59, 46
4, 586521, Note_on_c, 9, 59, 0
4, 586686, Note_on_c, 9, 59, 31
4, 587041, Note_on_c, 9, 59, 0
4, 587241, Note_on_c, 9, 59, 70
4, 587351, Note_on_c, 9, 53, 37
4, 587436, Note_on_c, 9, 53, 0
4, 587461, Note_on_c, 9, 59, 0
4, 587491, Note_on_c, 9, 59, 60
4, 587501, Note_on_c, 9, 44, 43
4, 587506, Note_on_c, 9, 36, 32
4, 587576, Note_on_c, 9, 59, 0
4, 587636, Note_on_c, 9, 36, 0
4, 587686, Note_on_c, 9, 44, 0
4, 588151, Note_on_c, 9, 36, 39
4, 588266, Note_on_c, 9, 36, 0
4, 588581, Note_on_c, 9, 59, 66
4, 588621, Note_on_c, 9, 53, 53
4, 588941, Note_on_c, 9, 53, 0
4, 589021, Note_on_c, 9, 59, 0
4, 589421, Note_on_c, 9, 44, 46
4, 589456, Note_on_c, 9, 59, 58
4, 589526, Note_on_c, 9, 59, 0
4, 589586, Note_on_c, 9, 59, 35
4, 589611, Note_on_c, 9, 44, 0
4, 589796, Note_on_c, 9, 59, 0
4, 590126, Note_on_c, 9, 59, 76
4, 590146, Note_on_c, 9, 53, 65
4, 590366, Note_on_c, 9, 53, 0
4, 590486, Note_on_c, 9, 59, 0
4, 591041, Note_on_c, 9, 53, 82
4, 591071, Note_on_c, 9, 36, 65
4, 591231, Note_on_c, 9, 36, 0
4, 591981, Note_on_c, 9, 36, 56
4, 592096, Note_on_c, 9, 36, 0
4, 592106, Note_on_c, 9, 59, 127
4, 592156, Note_on_c, 9, 53, 0
4, 592261, Note_on_c, 9, 59, 0
4, 592316, Note_on_c, 9, 59, 36
4, 592406, Note_on_c, 9, 59, 0
4, 592411, Note_on_c, 9, 57, 21
4, 592421, Note_on_c, 9, 36, 43
4, 592421, Note_on_c, 9, 59, 90
4, 592671, Note_on_c, 9, 57, 0
4, 592901, Note_on_c, 9, 36, 0
4, 592966, Note_on_c, 9, 59, 0
4, 593346, Note_on_c, 9, 59, 95
4, 593941, Note_on_c, 9, 59, 0
4, 594301, Note_on_c, 9, 59, 91
4, 594886, Note_on_c, 9, 59, 0
4, 595256, Note_on_c, 9, 59, 94
4, 595691, Note_on_c, 9, 59, 0
4, 595981, Note_on_c, 9, 59, 81
4, 596076, Note_on_c, 9, 59, 0
4, 596281, Note_on_c, 9, 59, 78
4, 596846, Note_on_c, 9, 59, 0
4, 597101, Note_on_c, 9, 44, 34
4, 597221, Note_on_c, 9, 53, 57
4, 597306, Note_on_c, 9, 44, 0
4, 597701, Note_on_c, 9, 53, 0
4, 597861, Note_on_c, 9, 59, 52
4, 597941, Note_on_c, 9, 59, 0
4, 598166, Note_on_c, 9, 59, 58
4, 598681, Note_on_c, 9, 59, 0
4, 599021, Note_on_c, 9, 44, 33
4, 599051, Note_on_c, 9, 59, 87
4, 599251, Note_on_c, 9, 44, 0
4, 599566, Note_on_c, 9, 59, 0
4, 599801, Note_on_c, 9, 59, 48
4, 599876, Note_on_c, 9, 59, 0
4, 600011, Note_on_c, 9, 59, 95
4, 600371, Note_on_c, 9, 59, 0
4, 600936, Note_on_c, 9, 59, 95
4, 600941, Note_on_c, 9, 44, 36
4, 601161, Note_on_c, 9, 44, 0
4, 601496, Note_on_c, 9, 59, 0
4, 601711, Note_on_c, 9, 59, 37
4, 601786, Note_on_c, 9, 59, 0
4, 601971, Note_on_c, 9, 59, 95
4, 602486, Note_on_c, 9, 59, 0
4, 602841, Note_on_c, 9, 46, 27
4, 602901, Note_on_c, 9, 59, 95
4, 602986, Note_on_c, 9, 36, 36
4, 603106, Note_on_c, 9, 36, 0
4, 603121, Note_on_c, 9, 46, 0
4, 603306, Note_on_c, 9, 59, 0
4, 603626, Note_on_c, 9, 36, 30
4, 603821, Note_on_c, 9, 36, 0
4, 603861, Note_on_c, 9, 59, 95
4, 604266, Note_on_c, 9, 59, 0
4, 604556, Note_on_c, 9, 59, 73
4, 604636, Note_on_c, 9, 59, 0
4, 604781, Note_on_c, 9, 44, 36
4, 604846, Note_on_c, 9, 59, 78
4, 605036, Note_on_c, 9, 44, 0
4, 605436, Note_on_c, 9, 59, 0
4, 605796, Note_on_c, 9, 59, 95
4, 606246, Note_on_c, 9, 59, 0
4, 606701, Note_on_c, 9, 44, 28
4, 606726, Note_on_c, 9, 59, 91
4, 606826, Note_on_c, 9, 44, 0
4, 607121, Note_on_c, 9, 59, 0
4, 607421, Note_on_c, 9, 59, 58
4, 607496, Note_on_c, 9, 59, 0
4, 607656, Note_on_c, 9, 59, 82
4, 608271, Note_on_c, 9, 59, 0
4, 608326, Note_on_c, 9, 36, 31
4, 608416, Note_on_c, 9, 36, 0
4, 608626, Note_on_c, 9, 59, 95
4, 608696, Note_on_c, 9, 36, 18
4, 608916, Note_on_c, 9, 36, 0
4, 609091, Note_on_c, 9, 59, 0
4, 609341, Note_on_c, 9, 59, 48
4, 609416, Note_on_c, 9, 59, 0
4, 609556, Note_on_c, 9, 59, 84
4, 610216, Note_on_c, 9, 59, 0
4, 610541, Note_on_c, 9, 44, 39
4, 610571, Note_on_c, 9, 59, 95
4, 610791, Note_on_c, 9, 44, 0
4, 610966, Note_on_c, 9, 59, 0
4, 611271, Note_on_c, 9, 59, 76
4, 611346, Note_on_c, 9, 59, 0
4, 611551, Note_on_c, 9, 59, 73
4, 612096, Note_on_c, 9, 59, 0
4, 612236, Note_on_c, 9, 53, 53
4, 612461, Note_on_c, 9, 44, 39
4, 612516, Note_on_c, 9, 53, 0
4, 612566, Note_on_c, 9, 59, 70
4, 612656, Note_on_c, 9, 44, 0
4, 613146, Note_on_c, 9, 59, 0
4, 613436, Note_on_c, 9, 59, 87
4, 614061, Note_on_c, 9, 59, 0
4, 614411, Note_on_c, 9, 59, 93
4, 614816, Note_on_c, 9, 59, 0
4, 615111, Note_on_c, 9, 59, 66
4, 615191, Note_on_c, 9, 59, 0
4, 615356, Note_on_c, 9, 59, 78
4, 615976, Note_on_c, 9, 59, 0
4, 616291, Note_on_c, 9, 59, 95
4, 616301, Note_on_c, 9, 44, 42
4, 616496, Note_on_c, 9, 44, 0
4, 616696, Note_on_c, 9, 59, 0
4, 616961, Note_on_c, 9, 36, 16
4, 617036, Note_on_c, 9, 36, 0
4, 617266, Note_on_c, 9, 59, 88
4, 617701, Note_on_c, 9, 59, 0
4, 618181, Note_on_c, 9, 59, 94
4, 618646, Note_on_c, 9, 59, 0
4, 618861, Note_on_c, 9, 59, 57
4, 618911, Note_on_c, 9, 36, 21
4, 618961, Note_on_c, 9, 59, 0
4, 618986, Note_on_c, 9, 36, 0
4, 619151, Note_on_c, 9, 59, 73
4, 619716, Note_on_c, 9, 59, 0
4, 620121, Note_on_c, 9, 59, 95
4, 620141, Note_on_c, 9, 44, 30
4, 620231, Note_on_c, 9, 44, 0
4, 620511, Note_on_c, 9, 59, 0
4, 620826, Note_on_c, 9, 59, 49
4, 620906, Note_on_c, 9, 59, 0
4, 621061, Note_on_c, 9, 59, 67
4, 621621, Note_on_c, 9, 59, 0
4, 622046, Note_on_c, 9, 59, 95
4, 622076, Note_on_c, 9, 36, 24
4, 622356, Note_on_c, 9, 36, 0
4, 622531, Note_on_c, 9, 59, 0
4, 622696, Note_on_c, 9, 36, 36
4, 622881, Note_on_c, 9, 36, 0
4, 623006, Note_on_c, 9, 59, 79
4, 623141, Note_on_c, 9, 36, 33
4, 623311, Note_on_c, 9, 36, 0
4, 623496, Note_on_c, 9, 59, 0
4, 623981, Note_on_c, 9, 44, 36
4, 624011, Note_on_c, 9, 59, 95
4, 624111, Note_on_c, 9, 44, 0
4, 624381, Note_on_c, 9, 59, 0
4, 624711, Note_on_c, 9, 59, 58
4, 624781, Note_on_c, 9, 59, 0
4, 624976, Note_on_c, 9, 59, 72
4, 625221, Note_on_c, 9, 59, 0
4, 625901, Note_on_c, 9, 44, 35
4, 625916, Note_on_c, 9, 59, 95
4, 625921, Note_on_c, 9, 36, 18
4, 626056, Note_on_c, 9, 44, 0
4, 626226, Note_on_c, 9, 36, 0
4, 626421, Note_on_c, 9, 59, 0
4, 626596, Note_on_c, 9, 36, 35
4, 626836, Note_on_c, 9, 36, 0
4, 626926, Note_on_c, 9, 59, 95
4, 627401, Note_on_c, 9, 59, 0
4, 627821, Note_on_c, 9, 44, 21
4, 627886, Note_on_c, 9, 59, 95
4, 627971, Note_on_c, 9, 44, 0
4, 628271, Note_on_c, 9, 59, 0
4, 628541, Note_on_c, 9, 59, 60
4, 628616, Note_on_c, 9, 59, 0
4, 628806, Note_on_c, 9, 59, 79
4, 629451, Note_on_c, 9, 59, 0
4, 629741, Note_on_c, 9, 44, 36
4, 629791, Note_on_c, 9, 59, 95
4, 629946, Note_on_c, 9, 44, 0
4, 630391, Note_on_c, 9, 59, 0
4, 630776, Note_on_c, 9, 59, 95
4, 631226, Note_on_c, 9, 59, 0
4, 631486, Note_on_c, 9, 59, 60
4, 631576, Note_on_c, 9, 59, 0
4, 631661, Note_on_c, 9, 44, 33
4, 631756, Note_on_c, 9, 59, 73
4, 631841, Note_on_c, 9, 44, 0
4, 632386, Note_on_c, 9, 59, 0
4, 632736, Note_on_c, 9, 59, 95
4, 633171, Note_on_c, 9, 59, 0
4, 633406, Note_on_c, 9, 53, 48
4, 633411, Note_on_c, 9, 59, 67
4, 633581, Note_on_c, 9, 44, 27
4, 633741, Note_on_c, 9, 44, 0
4, 634351, Note_on_c, 9, 59, 0
4, 634441, Note_on_c, 9, 53, 0
4, 634661, Note_on_c, 9, 59, 87
4, 635021, Note_on_c, 9, 59, 0
4, 635301, Note_on_c, 9, 59, 95
4, 635306, Note_on_c, 9, 53, 47
4, 635501, Note_on_c, 9, 44, 24
4, 635611, Note_on_c, 9, 36, 25
4, 635671, Note_on_c, 9, 44, 0
4, 635966, Note_on_c, 9, 36, 0
4, 636001, Note_on_c, 9, 59, 0
4, 636091, Note_on_c, 9, 53, 0
4, 636246, Note_on_c, 9, 59, 60
4, 636246, Note_on_c, 9, 36, 39
4, 636381, Note_on_c, 9, 59, 0
4, 636481, Note_on_c, 9, 36, 0
4, 636601, Note_on_c, 9, 59, 95
4, 636606, Note_on_c, 9, 53, 49
4, 636626, Note_on_c, 9, 36, 33
4, 637106, Note_on_c, 9, 36, 0
4, 637286, Note_on_c, 9, 59, 0
4, 637291, Note_on_c, 9, 53, 0
4, 637421, Note_on_c, 9, 44, 24
4, 637566, Note_on_c, 9, 59, 64
4, 637616, Note_on_c, 9, 44, 0
4, 637831, Note_on_c, 9, 59, 0
4, 638161, Note_on_c, 9, 59, 95
4, 638906, Note_on_c, 9, 59, 0
4, 639136, Note_on_c, 9, 59, 51
4, 639236, Note_on_c, 9, 59, 0
4, 639341, Note_on_c, 9, 44, 44
4, 639426, Note_on_c, 9, 59, 75
4, 639566, Note_on_c, 9, 44, 0
4, 640046, Note_on_c, 9, 59, 0
4, 640401, Note_on_c, 9, 59, 95
4, 641001, Note_on_c, 9, 59, 0
4, 641261, Note_on_c, 9, 44, 45
4, 641346, Note_on_c, 9, 59, 84
4, 641436, Note_on_c, 9, 44, 0
4, 641711, Note_on_c, 9, 59, 0
4, 642056, Note_on_c, 9, 59, 69
4, 642136, Note_on_c, 9, 59, 0
4, 642311, Note_on_c, 9, 59, 72
4, 642941, Note_on_c, 9, 59, 0
4, 643291, Note_on_c, 9, 59, 95
4, 643841, Note_on_c, 9, 59, 0
4, 643996, Note_on_c, 9, 59, 70
4, 644076, Note_on_c, 9, 59, 0
4, 644301, Note_on_c, 9, 59, 79
4, 644766, Note_on_c, 9, 59, 0
4, 645101, Note_on_c, 9, 44, 42
4, 645271, Note_on_c, 9, 59, 95
4, 645291, Note_on_c, 9, 44, 0
4, 646131, Note_on_c, 9, 59, 0
4, 646286, Note_on_c, 9, 59, 55
4, 646361, Note_on_c, 9, 59, 0
4, 646896, Note_on_c, 9, 59, 95
4, 647021, Note_on_c, 9, 44, 47
4, 647236, Note_on_c, 9, 44, 0
4, 647616, Note_on_c, 9, 59, 0
4, 648231, Note_on_c, 9, 59, 95
4, 648851, Note_on_c, 9, 59, 0
4, 648941, Note_on_c, 9, 44, 45
4, 649116, Note_on_c, 9, 37, 42
4, 649131, Note_on_c, 9, 59, 95
4, 649161, Note_on_c, 9, 44, 0
4, 649461, Note_on_c, 9, 59, 0
4, 649541, Note_on_c, 9, 37, 0
4, 649706, Note_on_c, 9, 59, 95
4, 649921, Note_on_c, 9, 59, 0
4, 650696, Note_on_c, 9, 59, 95
4, 650851, Note_on_c, 9, 59, 0
4, 650861, Note_on_c, 9, 44, 45
4, 651021, Note_on_c, 9, 37, 51
4, 651031, Note_on_c, 9, 59, 78
4, 651056, Note_on_c, 9, 44, 0
4, 651486, Note_on_c, 9, 37, 0
4, 651681, Note_on_c, 9, 59, 72
4, 651841, Note_on_c, 9, 59, 0
4, 652591, Note_on_c, 9, 59, 0
4, 652676, Note_on_c, 9, 59, 78
4, 652826, Note_on_c, 9, 59, 0
4, 652861, Note_on_c, 9, 46, 39
4, 652896, Note_on_c, 9, 37, 48
4, 652996, Note_on_c, 9, 59, 88
4, 653061, Note_on_c, 9, 46, 0
4, 653316, Note_on_c, 9, 37, 0
4, 653431, Note_on_c, 9, 59, 0
4, 653591, Note_on_c, 9, 59, 95
4, 654226, Note_on_c, 9, 59, 0
4, 654591, Note_on_c, 9, 36, 32
4, 654616, Note_on_c, 9, 59, 82
4, 654671, Note_on_c, 9, 36, 0
4, 654701, Note_on_c, 9, 44, 40
4, 654756, Note_on_c, 9, 59, 0
4, 654841, Note_on_c, 9, 37, 53
4, 654856, Note_on_c, 9, 44, 0
4, 654946, Note_on_c, 9, 59, 69
4, 655281, Note_on_c, 9, 59, 0
4, 655391, Note_on_c, 9, 37, 0
4, 655531, Note_on_c, 9, 59, 95
4, 656016, Note_on_c, 9, 59, 0
4, 656436, Note_on_c, 9, 59, 63
4, 656701, Note_on_c, 9, 37, 50
4, 656721, Note_on_c, 9, 59, 0
4, 656746, Note_on_c, 9, 59, 54
4, 657171, Note_on_c, 9, 59, 0
4, 657291, Note_on_c, 9, 37, 0
4, 657356, Note_on_c, 9, 59, 63
4, 657386, Note_on_c, 9, 59, 95
4, 657886, Note_on_c, 9, 59, 0
4, 658081, Note_on_c, 9, 59, 0
4, 658276, Note_on_c, 9, 59, 72
4, 658351, Note_on_c, 9, 59, 0
4, 658541, Note_on_c, 9, 44, 45
4, 658576, Note_on_c, 9, 59, 45
4, 658596, Note_on_c, 9, 59, 58
4, 658626, Note_on_c, 9, 37, 51
4, 658721, Note_on_c, 9, 44, 0
4, 659031, Note_on_c, 9, 59, 0
4, 659101, Note_on_c, 9, 59, 0
4, 659156, Note_on_c, 9, 37, 0
4, 659266, Note_on_c, 9, 57, 32
4, 659291, Note_on_c, 9, 59, 95
4, 659761, Note_on_c, 9, 57, 0
4, 659946, Note_on_c, 9, 59, 0
4, 660231, Note_on_c, 9, 59, 95
4, 660376, Note_on_c, 9, 59, 0
4, 660461, Note_on_c, 9, 44, 47
4, 660601, Note_on_c, 9, 59, 69
4, 660656, Note_on_c, 9, 44, 0
4, 660971, Note_on_c, 9, 59, 0
4, 661251, Note_on_c, 9, 59, 95
4, 662096, Note_on_c, 9, 59, 0
4, 662146, Note_on_c, 9, 36, 46
4, 662381, Note_on_c, 9, 44, 41
4, 662501, Note_on_c, 9, 36, 0
4, 662531, Note_on_c, 9, 59, 57
4, 662556, Note_on_c, 9, 44, 0
4, 662786, Note_on_c, 9, 59, 0
4, 663226, Note_on_c, 9, 59, 72
4, 663306, Note_on_c, 9, 59, 0
4, 663506, Note_on_c, 9, 59, 75
4, 663576, Note_on_c, 9, 36, 39
4, 663856, Note_on_c, 9, 36, 0
4, 664001, Note_on_c, 9, 59, 0
4, 664301, Note_on_c, 9, 44, 44
4, 664436, Note_on_c, 9, 59, 95
4, 664471, Note_on_c, 9, 44, 0
4, 664926, Note_on_c, 9, 59, 0
4, 665166, Note_on_c, 9, 59, 54
4, 665251, Note_on_c, 9, 59, 0
4, 665391, Note_on_c, 9, 59, 85
4, 666011, Note_on_c, 9, 59, 0
4, 666221, Note_on_c, 9, 44, 45
4, 666361, Note_on_c, 9, 59, 95
4, 666396, Note_on_c, 9, 44, 0
4, 666771, Note_on_c, 9, 59, 0
4, 667306, Note_on_c, 9, 59, 85
4, 667831, Note_on_c, 9, 59, 0
4, 668141, Note_on_c, 9, 44, 45
4, 668311, Note_on_c, 9, 44, 0
4, 668326, Note_on_c, 9, 59, 95
4, 668776, Note_on_c, 9, 59, 0
4, 669071, Note_on_c, 9, 59, 43
4, 669146, Note_on_c, 9, 59, 0
4, 669251, Note_on_c, 9, 57, 29
4, 669281, Note_on_c, 9, 59, 78
4, 669286, Note_on_c, 9, 36, 58
4, 669816, Note_on_c, 9, 59, 0
4, 670061, Note_on_c, 9, 44, 32
4, 670206, Note_on_c, 9, 59, 95
4, 670221, Note_on_c, 9, 44, 0
4, 670751, Note_on_c, 9, 59, 0
4, 670826, Note_on_c, 9, 36, 39
4, 670961, Note_on_c, 9, 36, 0
4, 671181, Note_on_c, 9, 59, 93
4, 671231, Note_on_c, 9, 36, 21
4, 671336, Note_on_c, 9, 36, 0
4, 671566, Note_on_c, 9, 59, 0
4, 671811, Note_on_c, 9, 59, 85
4, 671826, Note_on_c, 9, 53, 46
4, 671981, Note_on_c, 9, 44, 35
4, 672166, Note_on_c, 9, 44, 0
4, 672346, Note_on_c, 9, 57, 0
4, 672631, Note_on_c, 9, 59, 0
4, 672716, Note_on_c, 9, 53, 0
4, 672726, Note_on_c, 9, 36, 0
4, 673106, Note_on_c, 9, 59, 76
4, 673466, Note_on_c, 9, 59, 0
4, 673721, Note_on_c, 9, 59, 93
4, 673726, Note_on_c, 9, 53, 48
4, 673901, Note_on_c, 9, 44, 33
4, 674081, Note_on_c, 9, 44, 0
4, 674636, Note_on_c, 9, 53, 0
4, 674696, Note_on_c, 9, 36, 51
4, 674701, Note_on_c, 9, 59, 0
4, 674851, Note_on_c, 9, 36, 0
4, 675061, Note_on_c, 9, 59, 67
4, 675461, Note_on_c, 9, 59, 0
4, 675821, Note_on_c, 9, 44, 42
4, 675981, Note_on_c, 9, 59, 82
4, 676006, Note_on_c, 9, 44, 0
4, 676521, Note_on_c, 9, 59, 0
4, 676976, Note_on_c, 9, 59, 78
4, 677576, Note_on_c, 9, 59, 0
4, 677741, Note_on_c, 9, 44, 39
4, 677936, Note_on_c, 9, 59, 95
4, 677951, Note_on_c, 9, 44, 0
4, 678341, Note_on_c, 9, 59, 0
4, 678651, Note_on_c, 9, 59, 51
4, 678726, Note_on_c, 9, 59, 0
4, 678896, Note_on_c, 9, 59, 72
4, 679536, Note_on_c, 9, 59, 0
4, 679661, Note_on_c, 9, 44, 28
4, 679796, Note_on_c, 9, 44, 0
4, 679891, Note_on_c, 9, 59, 95
4, 680381, Note_on_c, 9, 59, 0
4, 680596, Note_on_c, 9, 59, 49
4, 680706, Note_on_c, 9, 59, 0
4, 680821, Note_on_c, 9, 36, 27
4, 680891, Note_on_c, 9, 59, 87
4, 681366, Note_on_c, 9, 36, 0
4, 681501, Note_on_c, 9, 59, 0
4, 681581, Note_on_c, 9, 44, 36
4, 681741, Note_on_c, 9, 44, 0
4, 681841, Note_on_c, 9, 59, 95
4, 681851, Note_on_c, 9, 36, 36
4, 682311, Note_on_c, 9, 36, 47
4, 682336, Note_on_c, 9, 36, 0
4, 682346, Note_on_c, 9, 59, 0
4, 682421, Note_on_c, 9, 36, 0
4, 682531, Note_on_c, 9, 59, 66
4, 682636, Note_on_c, 9, 59, 0
4, 682841, Note_on_c, 9, 59, 82
4, 683261, Note_on_c, 9, 59, 0
4, 683466, Note_on_c, 9, 59, 95
4, 683501, Note_on_c, 9, 44, 36
4, 683656, Note_on_c, 9, 44, 0
4, 684221, Note_on_c, 9, 59, 0
4, 684286, Note_on_c, 9, 36, 48
4, 684406, Note_on_c, 9, 59, 55
4, 684466, Note_on_c, 9, 36, 0
4, 684496, Note_on_c, 9, 59, 0
4, 684631, Note_on_c, 9, 36, 39
4, 684706, Note_on_c, 9, 59, 93
4, 684741, Note_on_c, 9, 36, 0
4, 685321, Note_on_c, 9, 59, 0
4, 685326, Note_on_c, 9, 36, 42
4, 685421, Note_on_c, 9, 44, 39
4, 685591, Note_on_c, 9, 36, 0
4, 685606, Note_on_c, 9, 44, 0
4, 685631, Note_on_c, 9, 59, 95
4, 686061, Note_on_c, 9, 59, 0
4, 686351, Note_on_c, 9, 59, 69
4, 686441, Note_on_c, 9, 59, 0
4, 686596, Note_on_c, 9, 59, 93
4, 686671, Note_on_c, 9, 36, 39
4, 686976, Note_on_c, 9, 36, 0
4, 687186, Note_on_c, 9, 59, 0
4, 687341, Note_on_c, 9, 44, 39
4, 687556, Note_on_c, 9, 44, 0
4, 687561, Note_on_c, 9, 59, 95
4, 687986, Note_on_c, 9, 59, 0
4, 688266, Note_on_c, 9, 59, 58
4, 688346, Note_on_c, 9, 59, 0
4, 688476, Note_on_c, 9, 59, 95
4, 689096, Note_on_c, 9, 59, 0
4, 689261, Note_on_c, 9, 44, 42
4, 689416, Note_on_c, 9, 44, 0
4, 689446, Note_on_c, 9, 59, 95
4, 689946, Note_on_c, 9, 59, 0
4, 690411, Note_on_c, 9, 59, 91
4, 690971, Note_on_c, 9, 59, 0
4, 691291, Note_on_c, 9, 46, 38
4, 691356, Note_on_c, 9, 59, 95
4, 691441, Note_on_c, 9, 46, 0
4, 691896, Note_on_c, 9, 59, 0
4, 691901, Note_on_c, 9, 36, 22
4, 692036, Note_on_c, 9, 36, 0
4, 692311, Note_on_c, 9, 59, 95
4, 692761, Note_on_c, 9, 59, 0
4, 693101, Note_on_c, 9, 44, 34
4, 693266, Note_on_c, 9, 59, 93
4, 693356, Note_on_c, 9, 44, 0
4, 693796, Note_on_c, 9, 59, 0
4, 694061, Note_on_c, 9, 44, 36
4, 694191, Note_on_c, 9, 59, 95
4, 694276, Note_on_c, 9, 44, 0
4, 694606, Note_on_c, 9, 59, 0
4, 694856, Note_on_c, 9, 59, 46
4, 694931, Note_on_c, 9, 59, 0
4, 695141, Note_on_c, 9, 59, 79
4, 695211, Note_on_c, 9, 36, 38
4, 695316, Note_on_c, 9, 36, 0
4, 695631, Note_on_c, 9, 59, 0
4, 696036, Note_on_c, 9, 36, 42
4, 696091, Note_on_c, 9, 59, 95
4, 696111, Note_on_c, 9, 36, 21
4, 696146, Note_on_c, 9, 36, 0
4, 696341, Note_on_c, 9, 36, 0
4, 696521, Note_on_c, 9, 59, 0
4, 696776, Note_on_c, 9, 36, 24
4, 696931, Note_on_c, 9, 36, 0
4, 696941, Note_on_c, 9, 44, 30
4, 697036, Note_on_c, 9, 59, 95
4, 697131, Note_on_c, 9, 44, 0
4, 697376, Note_on_c, 9, 59, 0
4, 697716, Note_on_c, 9, 59, 64
4, 697846, Note_on_c, 9, 59, 0
4, 697986, Note_on_c, 9, 59, 95
4, 698076, Note_on_c, 9, 36, 33
4, 698196, Note_on_c, 9, 36, 0
4, 698366, Note_on_c, 9, 59, 0
4, 698686, Note_on_c, 9, 59, 102
4, 698691, Note_on_c, 9, 53, 67
4, 698781, Note_on_c, 9, 59, 0
4, 699256, Note_on_c, 9, 53, 0
4, 699631, Note_on_c, 9, 59, 74
4, 699901, Note_on_c, 9, 59, 0
4, 699946, Note_on_c, 9, 53, 70
4, 700521, Note_on_c, 9, 53, 0
4, 701001, Note_on_c, 9, 53, 39
4, 701436, Note_on_c, 9, 53, 0
4, 701981, Note_on_c, 9, 53, 37
4, 702496, Note_on_c, 9, 53, 0
4, 702906, Note_on_c, 9, 53, 43
4, 703796, Note_on_c, 9, 53, 0
4, 703866, Note_on_c, 9, 59, 83
4, 704936, Note_on_c, 9, 59, 0
4, 705331, Note_on_c, 9, 59, 69
4, 706061, Note_on_c, 9, 59, 0
4, 706326, Note_on_c, 9, 53, 52
4, 706511, Note_on_c, 9, 53, 0
4, 706741, Note_on_c, 9, 53, 38
4, 707026, Note_on_c, 9, 53, 0
4, 707336, Note_on_c, 9, 53, 51
4, 707566, Note_on_c, 9, 53, 0
4, 708231, Note_on_c, 9, 53, 64
4, 708316, Note_on_c, 9, 53, 0
4, 708571, Note_on_c, 9, 59, 47
4, 708946, Note_on_c, 9, 59, 0
4, 709481, Note_on_c, 9, 59, 41
4, 709911, Note_on_c, 9, 59, 0
4, 710421, Note_on_c, 9, 59, 45
4, 710876, Note_on_c, 9, 59, 0
4, 711336, Note_on_c, 9, 59, 41
4, 711356, Note_on_c, 9, 59, 55
4, 711841, Note_on_c, 9, 59, 0
4, 711881, Note_on_c, 9, 59, 0
4, 712296, Note_on_c, 9, 59, 46
4, 712716, Note_on_c, 9, 59, 0
4, 712921, Note_on_c, 9, 59, 49
4, 712971, Note_on_c, 9, 59, 61
4, 713071, Note_on_c, 9, 59, 0
4, 713141, Note_on_c, 9, 59, 0
4, 713841, Note_on_c, 9, 53, 53
4, 713911, Note_on_c, 9, 53, 0
4, 714156, Note_on_c, 9, 59, 27
4, 714346, Note_on_c, 9, 36, 36
4, 714466, Note_on_c, 9, 36, 0
4, 714521, Note_on_c, 9, 59, 0
4, 714796, Note_on_c, 9, 59, 34
4, 714866, Note_on_c, 9, 36, 51
4, 714976, Note_on_c, 9, 36, 0
4, 715146, Note_on_c, 9, 59, 0
4, 715256, Note_on_c, 9, 36, 40
4, 715596, Note_on_c, 9, 36, 0
4, 715766, Note_on_c, 9, 59, 34
4, 715966, Note_on_c, 9, 59, 0
4, 716156, Note_on_c, 9, 59, 24
4, 716191, Note_on_c, 9, 36, 41
4, 716446, Note_on_c, 9, 36, 0
4, 716476, Note_on_c, 9, 59, 0
4, 717031, Note_on_c, 9, 59, 43
4, 717486, Note_on_c, 9, 59, 0
4, 718606, Note_on_c, 9, 59, 33
4, 718811, Note_on_c, 9, 59, 0
4, 719016, Note_on_c, 9, 59, 34
4, 719416, Note_on_c, 9, 59, 0
4, 719656, Note_on_c, 9, 59, 36
4, 719786, Note_on_c, 9, 59, 0
4, 720576, Note_on_c, 9, 59, 51
4, 720706, Note_on_c, 9, 59, 0
4, 721571, Note_on_c, 9, 59, 30
4, 721641, Note_on_c, 9, 36, 24
4, 721696, Note_on_c, 9, 59, 0
4, 721766, Note_on_c, 9, 36, 0
4, 721951, Note_on_c, 9, 59, 42
4, 722351, Note_on_c, 9, 59, 0
4, 722946, Note_on_c, 9, 36, 19
4, 723111, Note_on_c, 9, 36, 0
4, 723496, Note_on_c, 9, 59, 31
4, 723626, Note_on_c, 9, 59, 0
4, 723861, Note_on_c, 9, 36, 26
4, 723886, Note_on_c, 9, 59, 25
4, 724106, Note_on_c, 9, 36, 0
4, 724251, Note_on_c, 9, 59, 0
4, 724486, Note_on_c, 9, 59, 35
4, 724601, Note_on_c, 9, 59, 0
4, 725431, Note_on_c, 9, 59, 22
4, 725531, Note_on_c, 9, 59, 0
4, 726331, Note_on_c, 9, 37, 32
4, 726351, Note_on_c, 9, 59, 30
4, 726451, Note_on_c, 9, 37, 0
4, 726521, Note_on_c, 9, 59, 0
4, 726756, Note_on_c, 9, 37, 23
4, 727026, Note_on_c, 9, 37, 0
4, 727256, Note_on_c, 9, 59, 26
4, 727341, Note_on_c, 9, 36, 30
4, 727361, Note_on_c, 9, 59, 0
4, 727541, Note_on_c, 9, 36, 0
4, 727621, Note_on_c, 9, 59, 31
4, 727901, Note_on_c, 9, 59, 0
4, 728261, Note_on_c, 9, 59, 30
4, 728291, Note_on_c, 9, 37, 25
4, 728391, Note_on_c, 9, 59, 0
4, 728451, Note_on_c, 9, 37, 0
4, 728696, Note_on_c, 9, 37, 23
4, 728956, Note_on_c, 9, 37, 0
4, 729246, Note_on_c, 9, 59, 35
4, 729361, Note_on_c, 9, 36, 24
4, 729421, Note_on_c, 9, 59, 0
4, 729501, Note_on_c, 9, 36, 0
4, 730216, Note_on_c, 9, 59, 27
4, 730491, Note_on_c, 9, 59, 0
4, 731556, Note_on_c, 9, 59, 25
4, 731871, Note_on_c, 9, 59, 0
4, 732151, Note_on_c, 9, 37, 27
4, 732306, Note_on_c, 9, 37, 0
4, 733096, Note_on_c, 9, 59, 35
4, 733166, Note_on_c, 9, 37, 21
4, 733326, Note_on_c, 9, 59, 0
4, 733336, Note_on_c, 9, 37, 0
4, 734101, Note_on_c, 9, 37, 25
4, 734261, Note_on_c, 9, 37, 0
4, 734431, Note_on_c, 9, 59, 36
4, 734761, Note_on_c, 9, 59, 0
4, 736021, Note_on_c, 9, 59, 24
4, 736226, Note_on_c, 9, 59, 0
4, 737346, Note_on_c, 9, 59, 31
4, 737666, Note_on_c, 9, 59, 0
4, 738941, Note_on_c, 9, 59, 28
4, 739041, Note_on_c, 9, 59, 0
4, 740316, Note_on_c, 9, 59, 24
4, 740546, Note_on_c, 9, 59, 0
4, 745946, Note_on_c, 9, 59, 20
4, 746171, Note_on_c, 9, 59, 0
4, 746171, End_track
5, 0, Start_track
5, 0, Title_t, "Track 4"
5, 0, End_track
0, 0, End_of_file
