0, 0, Header, 1, 2, 960
1, 0, Start_track
1, 0, Title_t, " It Don't Mean a thing if it ain't got that swing"
1, 0, Text_t, "Doug McKenzie (dougmck@pipeline.com.au)\012"
1, 0, Text_t, "Live played improvised solo piano midi - minimal editing. Annotation added after to explain some of the techniques used.\012"
1, 0, Time_signature, 4, 2, 24, 8
1, 0, Key_signature, -2, "major"
1, 0, Tempo, 400000
1, 3888, Marker_t, "On Gm, a chromatic descending bass from root"
1, 21474, Marker_t, "Root and chords suggest 3/4  briefly"
1, 21777, Marker_t, "Displaced (anticipated) root of next chord on beat 4 instead of 1"
1, 34560, Marker_t, "On Gm, a chromatically rising 5th in chords"
1, 52536, Marker_t, "Another anticipated root of next chord on 4 (ahead of the beat)"
1, 55687, Marker_t, "Deliberately 'corny' phrasing"
1, 72960, Marker_t, "On Eb, chromatically rising 10ths on E, F,F#"
1, 88320, Marker_t, "'Whole tone' 7th chords (stack of major 2nds) first on Db7, then C7"
1, 142044, Marker_t, "Chord subs-Em7b5,Eb7,Bb/D,Dbdim,Cm7,BMaj7 - with Bb common tone on top"
1, 180510, Marker_t, "On BbMaj7,stack of perfect 4ths - RH plays top 3 notes, LH bottom note"
1, 187566, Marker_t, "Quote from other Ellington(?) song"
1, 199680, Marker_t, "10ths as triplets - RH reaches down to play the 10th"
1, 211248, Marker_t, "On F7,the 10ths descend from the 3rd and 5th instead of rise from  root and  3rd"
1, 218730, Marker_t, "Easy LH stride using descending root that keeps hand in one position"
1, 234527, Marker_t, "Deliberately discordant chords (using whole tone clusters)"
1, 280320, Marker_t, "Both hands play together - no stride LH - deliberately offbeat rhythm"
1, 300234, Marker_t, "More displaced chord roots - Monk?"
1, 310806, Marker_t, "LH bass notes play on the 'ands' while chord on beat - kind of shuffle rhythm"
1, 364838, Marker_t, "More stacked 4ths"
1, 371400, Marker_t, "Typical (Peterson-esque?) repeating blues lick"
1, 464640, Marker_t, "RH briefly moves to a double time feel"
1, 470988, Marker_t, "Same melodic idea shifted down in steps to fit changing harmony"
1, 480085, Marker_t, "On C7 to F7, 10ths step up diatonically to F7"
1, 483784, Marker_t, "Common way around circle of 5ths chords using 10ths continues from F7 to Bb7"
1, 572160, Marker_t, "On Gm7,a nice Minor 11th voicing when the melody is the 11th on a m7 chord"
1, 575132, Marker_t, "The RH plays a triad (F triad), LH plays a 3 note cluster(Bb,C,D)"
1, 575132, End_track
2, 0, Start_track
2, 0, Title_t, "Track 1"
2, 2845, Note_on_c, 0, 74, 99
2, 3246, Note_on_c, 0, 74, 0
2, 3722, Note_on_c, 0, 43, 32
2, 3755, Note_on_c, 0, 55, 36
2, 3776, Note_on_c, 0, 67, 43
2, 3826, Note_on_c, 0, 43, 0
2, 3947, Note_on_c, 0, 55, 0
2, 4204, Note_on_c, 0, 67, 0
2, 4734, Note_on_c, 0, 58, 49
2, 4746, Note_on_c, 0, 62, 34
2, 5184, Note_on_c, 0, 62, 0
2, 5185, Note_on_c, 0, 58, 0
2, 5712, Note_on_c, 0, 54, 42
2, 6389, Note_on_c, 0, 67, 54
2, 6485, Note_on_c, 0, 67, 0
2, 6664, Note_on_c, 0, 70, 87
2, 6710, Note_on_c, 0, 58, 34
2, 6712, Note_on_c, 0, 62, 24
2, 7015, Note_on_c, 0, 70, 0
2, 7280, Note_on_c, 0, 54, 0
2, 7486, Note_on_c, 0, 62, 0
2, 7614, Note_on_c, 0, 74, 74
2, 7649, Note_on_c, 0, 53, 40
2, 7664, Note_on_c, 0, 58, 0
2, 7925, Note_on_c, 0, 74, 0
2, 8165, Note_on_c, 0, 53, 0
2, 8603, Note_on_c, 0, 62, 31
2, 8605, Note_on_c, 0, 58, 34
2, 8843, Note_on_c, 0, 62, 0
2, 8960, Note_on_c, 0, 58, 0
2, 9586, Note_on_c, 0, 52, 64
2, 9601, Note_on_c, 0, 78, 80
2, 9615, Note_on_c, 0, 66, 83
2, 10001, Note_on_c, 0, 78, 0
2, 10047, Note_on_c, 0, 66, 0
2, 10195, Note_on_c, 0, 67, 59
2, 10250, Note_on_c, 0, 79, 26
2, 10262, Note_on_c, 0, 67, 0
2, 10316, Note_on_c, 0, 79, 0
2, 10506, Note_on_c, 0, 70, 71
2, 10515, Note_on_c, 0, 82, 75
2, 10560, Note_on_c, 0, 58, 20
2, 10669, Note_on_c, 0, 62, 7
2, 10865, Note_on_c, 0, 52, 0
2, 10869, Note_on_c, 0, 70, 0
2, 10913, Note_on_c, 0, 82, 0
2, 11015, Note_on_c, 0, 62, 0
2, 11109, Note_on_c, 0, 84, 64
2, 11116, Note_on_c, 0, 72, 61
2, 11281, Note_on_c, 0, 72, 0
2, 11281, Note_on_c, 0, 58, 0
2, 11293, Note_on_c, 0, 84, 0
2, 11427, Note_on_c, 0, 73, 48
2, 11433, Note_on_c, 0, 51, 48
2, 11439, Note_on_c, 0, 85, 69
2, 11879, Note_on_c, 0, 73, 0
2, 11907, Note_on_c, 0, 85, 0
2, 12387, Note_on_c, 0, 61, 46
2, 12395, Note_on_c, 0, 84, 57
2, 12399, Note_on_c, 0, 72, 54
2, 12662, Note_on_c, 0, 84, 0
2, 12714, Note_on_c, 0, 72, 0
2, 12946, Note_on_c, 0, 61, 0
2, 13067, Note_on_c, 0, 82, 40
2, 13138, Note_on_c, 0, 70, 36
2, 13142, Note_on_c, 0, 51, 0
2, 13209, Note_on_c, 0, 70, 0
2, 13249, Note_on_c, 0, 82, 0
2, 13344, Note_on_c, 0, 50, 41
2, 13374, Note_on_c, 0, 84, 63
2, 13401, Note_on_c, 0, 72, 56
2, 13653, Note_on_c, 0, 84, 0
2, 13776, Note_on_c, 0, 72, 0
2, 14037, Note_on_c, 0, 82, 63
2, 14054, Note_on_c, 0, 70, 60
2, 14192, Note_on_c, 0, 54, 35
2, 14202, Note_on_c, 0, 60, 22
2, 14321, Control_c, 0, 64, 127
2, 14590, Note_on_c, 0, 60, 0
2, 14615, Note_on_c, 0, 54, 0
2, 14616, Note_on_c, 0, 50, 0
2, 14762, Note_on_c, 0, 82, 0
2, 14935, Note_on_c, 0, 70, 0
2, 15223, Control_c, 0, 64, 0
2, 15302, Note_on_c, 0, 79, 78
2, 15304, Note_on_c, 0, 74, 75
2, 15319, Note_on_c, 0, 67, 61
2, 15323, Note_on_c, 0, 55, 63
2, 15336, Note_on_c, 0, 69, 52
2, 15342, Note_on_c, 0, 43, 36
2, 15373, Note_on_c, 0, 45, 45
2, 15415, Note_on_c, 0, 69, 0
2, 15459, Note_on_c, 0, 45, 0
2, 15540, Note_on_c, 0, 55, 0
2, 15548, Note_on_c, 0, 79, 0
2, 15565, Note_on_c, 0, 74, 0
2, 15576, Note_on_c, 0, 43, 0
2, 15688, Note_on_c, 0, 67, 0
2, 16248, Note_on_c, 0, 44, 48
2, 16260, Note_on_c, 0, 54, 34
2, 16807, Note_on_c, 0, 54, 0
2, 16924, Note_on_c, 0, 44, 0
2, 17258, Note_on_c, 0, 43, 35
2, 17262, Note_on_c, 0, 63, 67
2, 17264, Note_on_c, 0, 59, 71
2, 17266, Note_on_c, 0, 70, 71
2, 17285, Note_on_c, 0, 53, 46
2, 17295, Note_on_c, 0, 65, 57
2, 17679, Note_on_c, 0, 70, 0
2, 17761, Note_on_c, 0, 65, 0
2, 17804, Note_on_c, 0, 59, 0
2, 17892, Note_on_c, 0, 59, 24
2, 17905, Note_on_c, 0, 68, 52
2, 17942, Note_on_c, 0, 43, 0
2, 17944, Note_on_c, 0, 53, 0
2, 17946, Note_on_c, 0, 50, 50
2, 18053, Note_on_c, 0, 59, 0
2, 18080, Note_on_c, 0, 50, 0
2, 18117, Note_on_c, 0, 63, 0
2, 18178, Note_on_c, 0, 68, 0
2, 18236, Note_on_c, 0, 47, 35
2, 18940, Note_on_c, 0, 46, 34
2, 19056, Note_on_c, 0, 47, 0
2, 19104, Note_on_c, 0, 48, 49
2, 19157, Note_on_c, 0, 46, 0
2, 19198, Note_on_c, 0, 48, 0
2, 19217, Note_on_c, 0, 70, 48
2, 19240, Note_on_c, 0, 64, 58
2, 19574, Note_on_c, 0, 70, 0
2, 19578, Note_on_c, 0, 64, 0
2, 20150, Note_on_c, 0, 70, 60
2, 20161, Note_on_c, 0, 63, 50
2, 20213, Note_on_c, 0, 55, 22
2, 20369, Note_on_c, 0, 55, 0
2, 20557, Note_on_c, 0, 63, 0
2, 20574, Note_on_c, 0, 70, 0
2, 21085, Note_on_c, 0, 48, 44
2, 21098, Note_on_c, 0, 58, 34
2, 21102, Note_on_c, 0, 70, 64
2, 21116, Note_on_c, 0, 64, 71
2, 21169, Note_on_c, 0, 58, 0
2, 21187, Note_on_c, 0, 48, 0
2, 21648, Note_on_c, 0, 70, 0
2, 21703, Note_on_c, 0, 64, 0
2, 22056, Note_on_c, 0, 42, 84
2, 22068, Note_on_c, 0, 30, 84
2, 22417, Note_on_c, 0, 30, 0
2, 22515, Note_on_c, 0, 42, 0
2, 23040, Note_on_c, 0, 61, 51
2, 23041, Note_on_c, 0, 70, 59
2, 23074, Note_on_c, 0, 58, 46
2, 23076, Note_on_c, 0, 64, 60
2, 23316, Note_on_c, 0, 58, 0
2, 23376, Note_on_c, 0, 61, 0
2, 23460, Note_on_c, 0, 70, 0
2, 23466, Note_on_c, 0, 64, 0
2, 24005, Note_on_c, 0, 70, 69
2, 24015, Note_on_c, 0, 61, 59
2, 24019, Note_on_c, 0, 64, 71
2, 24506, Note_on_c, 0, 61, 0
2, 24510, Note_on_c, 0, 64, 0
2, 24599, Note_on_c, 0, 70, 0
2, 24898, Note_on_c, 0, 52, 71
2, 24902, Note_on_c, 0, 42, 67
2, 24958, Note_on_c, 0, 41, 58
2, 25165, Note_on_c, 0, 41, 0
2, 25238, Note_on_c, 0, 42, 0
2, 25407, Note_on_c, 0, 52, 0
2, 25885, Note_on_c, 0, 70, 62
2, 25895, Note_on_c, 0, 67, 66
2, 25902, Note_on_c, 0, 63, 74
2, 25908, Note_on_c, 0, 41, 76
2, 25910, Note_on_c, 0, 58, 81
2, 26211, Note_on_c, 0, 41, 0
2, 26325, Note_on_c, 0, 58, 0
2, 26376, Note_on_c, 0, 70, 0
2, 26396, Note_on_c, 0, 63, 0
2, 26455, Note_on_c, 0, 67, 0
2, 26881, Note_on_c, 0, 70, 52
2, 26891, Note_on_c, 0, 67, 55
2, 26895, Note_on_c, 0, 58, 59
2, 26899, Note_on_c, 0, 63, 59
2, 27231, Note_on_c, 0, 58, 0
2, 27264, Note_on_c, 0, 70, 0
2, 27281, Note_on_c, 0, 63, 0
2, 27321, Note_on_c, 0, 67, 0
2, 27847, Note_on_c, 0, 70, 71
2, 27851, Note_on_c, 0, 53, 88
2, 27861, Note_on_c, 0, 58, 81
2, 27868, Note_on_c, 0, 63, 69
2, 27878, Note_on_c, 0, 67, 63
2, 27886, Note_on_c, 0, 52, 74
2, 27951, Note_on_c, 0, 52, 0
2, 28331, Note_on_c, 0, 70, 0
2, 28356, Note_on_c, 0, 58, 0
2, 28385, Note_on_c, 0, 63, 0
2, 28410, Note_on_c, 0, 67, 0
2, 28815, Note_on_c, 0, 70, 52
2, 28830, Note_on_c, 0, 63, 61
2, 28838, Note_on_c, 0, 58, 60
2, 28886, Note_on_c, 0, 67, 43
2, 29233, Note_on_c, 0, 58, 0
2, 29241, Note_on_c, 0, 67, 0
2, 29343, Note_on_c, 0, 70, 0
2, 29418, Note_on_c, 0, 53, 0
2, 29475, Note_on_c, 0, 52, 43
2, 29619, Note_on_c, 0, 63, 0
2, 29704, Note_on_c, 0, 52, 0
2, 29754, Note_on_c, 0, 70, 49
2, 29760, Note_on_c, 0, 63, 35
2, 29761, Note_on_c, 0, 58, 38
2, 29783, Note_on_c, 0, 53, 51
2, 30209, Note_on_c, 0, 70, 0
2, 30224, Note_on_c, 0, 58, 0
2, 30280, Note_on_c, 0, 63, 0
2, 30462, Note_on_c, 0, 53, 0
2, 30481, Note_on_c, 0, 54, 52
2, 30666, Note_on_c, 0, 54, 0
2, 30683, Note_on_c, 0, 55, 68
2, 30706, Note_on_c, 0, 70, 71
2, 30712, Note_on_c, 0, 65, 81
2, 30729, Note_on_c, 0, 60, 74
2, 30829, Note_on_c, 0, 55, 0
2, 31142, Note_on_c, 0, 60, 0
2, 31180, Note_on_c, 0, 70, 0
2, 31205, Note_on_c, 0, 65, 0
2, 31474, Note_on_c, 0, 39, 90
2, 31478, Note_on_c, 0, 51, 92
2, 31536, Note_on_c, 0, 38, 49
2, 31599, Note_on_c, 0, 38, 0
2, 32647, Control_c, 0, 64, 127
2, 32995, Note_on_c, 0, 51, 0
2, 33066, Note_on_c, 0, 39, 0
2, 33273, Note_on_c, 0, 50, 89
2, 33277, Note_on_c, 0, 38, 83
2, 33281, Control_c, 0, 64, 0
2, 33703, Control_c, 0, 64, 127
2, 33724, Note_on_c, 0, 38, 0
2, 34010, Note_on_c, 0, 50, 0
2, 34456, Control_c, 0, 64, 0
2, 34567, Note_on_c, 0, 67, 55
2, 34581, Note_on_c, 0, 43, 37
2, 34584, Note_on_c, 0, 50, 44
2, 34604, Note_on_c, 0, 79, 37
2, 34794, Note_on_c, 0, 79, 0
2, 34824, Note_on_c, 0, 67, 0
2, 34828, Note_on_c, 0, 43, 0
2, 34838, Note_on_c, 0, 50, 0
2, 35456, Note_on_c, 0, 43, 33
2, 35489, Note_on_c, 0, 50, 32
2, 35761, Note_on_c, 0, 43, 0
2, 35982, Note_on_c, 0, 50, 0
2, 36435, Note_on_c, 0, 51, 40
2, 36437, Note_on_c, 0, 43, 36
2, 36769, Note_on_c, 0, 43, 0
2, 36837, Note_on_c, 0, 51, 0
2, 37392, Note_on_c, 0, 65, 42
2, 37399, Note_on_c, 0, 51, 29
2, 37461, Note_on_c, 0, 66, 45
2, 37464, Note_on_c, 0, 43, 22
2, 37599, Note_on_c, 0, 66, 0
2, 37632, Note_on_c, 0, 65, 0
2, 37645, Note_on_c, 0, 67, 47
2, 37783, Note_on_c, 0, 43, 0
2, 37937, Note_on_c, 0, 67, 0
2, 38035, Note_on_c, 0, 51, 0
2, 38133, Note_on_c, 0, 70, 87
2, 38313, Note_on_c, 0, 43, 35
2, 38340, Note_on_c, 0, 52, 34
2, 38400, Note_on_c, 0, 70, 0
2, 38688, Note_on_c, 0, 52, 0
2, 38718, Note_on_c, 0, 43, 0
2, 38828, Note_on_c, 0, 73, 62
2, 38843, Note_on_c, 0, 61, 80
2, 39102, Note_on_c, 0, 61, 0
2, 39112, Note_on_c, 0, 62, 62
2, 39166, Note_on_c, 0, 73, 0
2, 39281, Note_on_c, 0, 52, 27
2, 39402, Note_on_c, 0, 62, 0
2, 39459, Note_on_c, 0, 74, 46
2, 39636, Note_on_c, 0, 74, 0
2, 39653, Note_on_c, 0, 62, 39
2, 39684, Note_on_c, 0, 52, 0
2, 39924, Note_on_c, 0, 74, 58
2, 39926, Note_on_c, 0, 62, 0
2, 39991, Note_on_c, 0, 73, 33
2, 40058, Note_on_c, 0, 73, 0
2, 40137, Note_on_c, 0, 74, 0
2, 40224, Note_on_c, 0, 53, 37
2, 40279, Note_on_c, 0, 43, 17
2, 40926, Note_on_c, 0, 53, 0
2, 41199, Note_on_c, 0, 70, 74
2, 41207, Note_on_c, 0, 52, 42
2, 41220, Note_on_c, 0, 58, 71
2, 41721, Note_on_c, 0, 43, 0
2, 41725, Note_on_c, 0, 58, 0
2, 41738, Note_on_c, 0, 52, 0
2, 41752, Note_on_c, 0, 70, 0
2, 41890, Note_on_c, 0, 49, 42
2, 41904, Note_on_c, 0, 67, 46
2, 42092, Note_on_c, 0, 67, 0
2, 42094, Note_on_c, 0, 49, 0
2, 42190, Note_on_c, 0, 70, 67
2, 42192, Note_on_c, 0, 61, 71
2, 42213, Note_on_c, 0, 65, 70
2, 42218, Note_on_c, 0, 51, 57
2, 42737, Note_on_c, 0, 61, 0
2, 42744, Note_on_c, 0, 51, 0
2, 42762, Note_on_c, 0, 65, 0
2, 42766, Note_on_c, 0, 70, 0
2, 42864, Note_on_c, 0, 39, 75
2, 44177, Note_on_c, 0, 39, 0
2, 44211, Note_on_c, 0, 38, 64
2, 44839, Note_on_c, 0, 69, 49
2, 44843, Note_on_c, 0, 66, 61
2, 44849, Note_on_c, 0, 63, 59
2, 44893, Note_on_c, 0, 50, 50
2, 44960, Note_on_c, 0, 38, 0
2, 45091, Note_on_c, 0, 69, 0
2, 45168, Note_on_c, 0, 66, 0
2, 45237, Note_on_c, 0, 60, 44
2, 45308, Note_on_c, 0, 63, 0
2, 45317, Note_on_c, 0, 50, 0
2, 45834, Note_on_c, 0, 60, 0
2, 45845, Note_on_c, 0, 50, 45
2, 46033, Note_on_c, 0, 50, 0
2, 46135, Note_on_c, 0, 60, 91
2, 46147, Note_on_c, 0, 67, 79
2, 46154, Note_on_c, 0, 55, 50
2, 46494, Note_on_c, 0, 67, 0
2, 46659, Note_on_c, 0, 55, 0
2, 46740, Note_on_c, 0, 60, 0
2, 46792, Note_on_c, 0, 58, 36
2, 46834, Note_on_c, 0, 50, 32
2, 46945, Note_on_c, 0, 58, 0
2, 46972, Note_on_c, 0, 50, 0
2, 47055, Note_on_c, 0, 55, 44
2, 47061, Note_on_c, 0, 60, 74
2, 47086, Note_on_c, 0, 67, 73
2, 47700, Note_on_c, 0, 55, 0
2, 47994, Note_on_c, 0, 43, 51
2, 48138, Control_c, 0, 64, 127
2, 48178, Note_on_c, 0, 67, 0
2, 48654, Note_on_c, 0, 43, 0
2, 48660, Note_on_c, 0, 60, 0
2, 48662, Note_on_c, 0, 46, 47
2, 48814, Control_c, 0, 64, 0
2, 48816, Note_on_c, 0, 46, 0
2, 48952, Note_on_c, 0, 47, 57
2, 49802, Note_on_c, 0, 47, 0
2, 49847, Note_on_c, 0, 48, 39
2, 49891, Note_on_c, 0, 82, 53
2, 49910, Note_on_c, 0, 70, 60
2, 49921, Note_on_c, 0, 48, 0
2, 50332, Note_on_c, 0, 82, 0
2, 50371, Note_on_c, 0, 70, 0
2, 50636, Note_on_c, 0, 79, 33
2, 50755, Note_on_c, 0, 79, 0
2, 50784, Note_on_c, 0, 64, 54
2, 50843, Note_on_c, 0, 82, 71
2, 50862, Note_on_c, 0, 64, 0
2, 50866, Note_on_c, 0, 70, 57
2, 50868, Note_on_c, 0, 58, 25
2, 51060, Note_on_c, 0, 58, 0
2, 51310, Note_on_c, 0, 82, 0
2, 51352, Note_on_c, 0, 70, 0
2, 51471, Note_on_c, 0, 82, 39
2, 51672, Note_on_c, 0, 82, 0
2, 51680, Note_on_c, 0, 79, 32
2, 51776, Note_on_c, 0, 79, 0
2, 51788, Note_on_c, 0, 52, 60
2, 52632, Note_on_c, 0, 52, 0
2, 52734, Note_on_c, 0, 42, 65
2, 53220, Note_on_c, 0, 42, 0
2, 53752, Note_on_c, 0, 82, 84
2, 53775, Note_on_c, 0, 70, 83
2, 53775, Note_on_c, 0, 75, 80
2, 54234, Note_on_c, 0, 70, 0
2, 54276, Note_on_c, 0, 82, 0
2, 54278, Note_on_c, 0, 75, 0
2, 54712, Note_on_c, 0, 64, 62
2, 54714, Note_on_c, 0, 82, 74
2, 54716, Note_on_c, 0, 70, 86
2, 54720, Note_on_c, 0, 58, 56
2, 54729, Note_on_c, 0, 75, 72
2, 54756, Note_on_c, 0, 79, 50
2, 54796, Note_on_c, 0, 64, 0
2, 54948, Note_on_c, 0, 58, 0
2, 55194, Note_on_c, 0, 70, 0
2, 55242, Note_on_c, 0, 75, 0
2, 55246, Note_on_c, 0, 82, 0
2, 55288, Note_on_c, 0, 79, 0
2, 55655, Note_on_c, 0, 42, 73
2, 55664, Note_on_c, 0, 82, 83
2, 55681, Note_on_c, 0, 70, 88
2, 55697, Note_on_c, 0, 75, 68
2, 55704, Note_on_c, 0, 53, 34
2, 55726, Note_on_c, 0, 79, 47
2, 55787, Note_on_c, 0, 53, 0
2, 56081, Note_on_c, 0, 70, 0
2, 56117, Note_on_c, 0, 82, 0
2, 56127, Note_on_c, 0, 75, 0
2, 56184, Note_on_c, 0, 79, 0
2, 56315, Note_on_c, 0, 82, 56
2, 56332, Note_on_c, 0, 70, 62
2, 56350, Note_on_c, 0, 75, 55
2, 56371, Note_on_c, 0, 79, 43
2, 56461, Note_on_c, 0, 70, 0
2, 56486, Note_on_c, 0, 82, 0
2, 56507, Note_on_c, 0, 75, 0
2, 56559, Note_on_c, 0, 79, 0
2, 56622, Note_on_c, 0, 82, 62
2, 56640, Note_on_c, 0, 75, 60
2, 56651, Note_on_c, 0, 70, 51
2, 56668, Note_on_c, 0, 79, 33
2, 57029, Note_on_c, 0, 70, 0
2, 57047, Note_on_c, 0, 82, 0
2, 57098, Note_on_c, 0, 75, 0
2, 57121, Note_on_c, 0, 42, 0
2, 57154, Note_on_c, 0, 79, 0
2, 57252, Note_on_c, 0, 82, 77
2, 57258, Note_on_c, 0, 41, 78
2, 57275, Note_on_c, 0, 75, 71
2, 57281, Note_on_c, 0, 70, 73
2, 57296, Note_on_c, 0, 79, 70
2, 57573, Note_on_c, 0, 70, 0
2, 57613, Note_on_c, 0, 82, 0
2, 57638, Note_on_c, 0, 79, 0
2, 57648, Note_on_c, 0, 75, 0
2, 57690, Note_on_c, 0, 41, 0
2, 58252, Note_on_c, 0, 82, 72
2, 58266, Note_on_c, 0, 75, 73
2, 58268, Note_on_c, 0, 70, 78
2, 58296, Note_on_c, 0, 79, 47
2, 58377, Note_on_c, 0, 70, 0
2, 58408, Note_on_c, 0, 75, 0
2, 58435, Note_on_c, 0, 82, 0
2, 58471, Note_on_c, 0, 79, 0
2, 58573, Note_on_c, 0, 82, 60
2, 58583, Note_on_c, 0, 75, 52
2, 58600, Note_on_c, 0, 70, 45
2, 58636, Note_on_c, 0, 79, 31
2, 58884, Note_on_c, 0, 70, 0
2, 58947, Note_on_c, 0, 82, 0
2, 58957, Note_on_c, 0, 75, 0
2, 59005, Note_on_c, 0, 79, 0
2, 59253, Note_on_c, 0, 70, 56
2, 59256, Note_on_c, 0, 82, 37
2, 59262, Note_on_c, 0, 75, 49
2, 59306, Note_on_c, 0, 79, 32
2, 59328, Note_on_c, 0, 70, 0
2, 59331, Note_on_c, 0, 82, 0
2, 59376, Note_on_c, 0, 75, 0
2, 59412, Note_on_c, 0, 79, 0
2, 59535, Note_on_c, 0, 82, 69
2, 59544, Note_on_c, 0, 75, 68
2, 59552, Note_on_c, 0, 70, 73
2, 59569, Note_on_c, 0, 79, 52
2, 59604, Note_on_c, 0, 67, 44
2, 59617, Note_on_c, 0, 65, 65
2, 59904, Note_on_c, 0, 70, 0
2, 59928, Note_on_c, 0, 65, 0
2, 59938, Note_on_c, 0, 67, 0
2, 59950, Note_on_c, 0, 82, 0
2, 59967, Note_on_c, 0, 75, 0
2, 60017, Note_on_c, 0, 79, 0
2, 60432, Note_on_c, 0, 67, 60
2, 60439, Note_on_c, 0, 75, 77
2, 60447, Note_on_c, 0, 82, 62
2, 60456, Note_on_c, 0, 70, 73
2, 60466, Note_on_c, 0, 79, 60
2, 60904, Note_on_c, 0, 70, 0
2, 60912, Note_on_c, 0, 82, 0
2, 60954, Note_on_c, 0, 75, 0
2, 60965, Note_on_c, 0, 67, 0
2, 61013, Note_on_c, 0, 79, 0
2, 61409, Note_on_c, 0, 82, 80
2, 61420, Note_on_c, 0, 77, 79
2, 61424, Note_on_c, 0, 67, 64
2, 61432, Note_on_c, 0, 72, 66
2, 61893, Note_on_c, 0, 72, 0
2, 61921, Note_on_c, 0, 77, 0
2, 62050, Note_on_c, 0, 82, 0
2, 62125, Note_on_c, 0, 67, 0
2, 62336, Note_on_c, 0, 81, 62
2, 62344, Note_on_c, 0, 76, 66
2, 62353, Note_on_c, 0, 71, 62
2, 62359, Control_c, 0, 64, 127
2, 62367, Note_on_c, 0, 66, 56
2, 62634, Note_on_c, 0, 71, 0
2, 62651, Note_on_c, 0, 81, 0
2, 62795, Note_on_c, 0, 76, 0
2, 63000, Note_on_c, 0, 67, 74
2, 63014, Control_c, 0, 64, 0
2, 63020, Note_on_c, 0, 82, 85
2, 63022, Note_on_c, 0, 77, 87
2, 63029, Note_on_c, 0, 72, 76
2, 63100, Note_on_c, 0, 66, 0
2, 63129, Note_on_c, 0, 67, 0
2, 63189, Control_c, 0, 64, 127
2, 63288, Note_on_c, 0, 82, 0
2, 63312, Note_on_c, 0, 77, 0
2, 63390, Note_on_c, 0, 72, 0
2, 63899, Control_c, 0, 64, 0
2, 63964, Note_on_c, 0, 59, 108
2, 63970, Note_on_c, 0, 52, 62
2, 63997, Note_on_c, 0, 42, 57
2, 64477, Control_c, 0, 64, 127
2, 64922, Note_on_c, 0, 52, 0
2, 64980, Note_on_c, 0, 48, 40
2, 65082, Note_on_c, 0, 58, 70
2, 65124, Note_on_c, 0, 42, 0
2, 65136, Note_on_c, 0, 59, 0
2, 65226, Note_on_c, 0, 58, 0
2, 65256, Note_on_c, 0, 57, 49
2, 65285, Control_c, 0, 64, 0
2, 65349, Note_on_c, 0, 48, 0
2, 65462, Note_on_c, 0, 56, 57
2, 65468, Note_on_c, 0, 41, 44
2, 65525, Note_on_c, 0, 51, 35
2, 65527, Note_on_c, 0, 57, 0
2, 65652, Note_on_c, 0, 51, 0
2, 65738, Note_on_c, 0, 41, 0
2, 65888, Note_on_c, 0, 56, 0
2, 66384, Note_on_c, 0, 59, 24
2, 66387, Note_on_c, 0, 60, 29
2, 66414, Note_on_c, 0, 56, 20
2, 66480, Note_on_c, 0, 60, 0
2, 66489, Note_on_c, 0, 59, 0
2, 66574, Note_on_c, 0, 56, 0
2, 66898, Note_on_c, 0, 68, 53
2, 66904, Note_on_c, 0, 72, 55
2, 66906, Note_on_c, 0, 60, 65
2, 66908, Note_on_c, 0, 65, 67
2, 67040, Note_on_c, 0, 60, 0
2, 67079, Note_on_c, 0, 72, 0
2, 67086, Note_on_c, 0, 65, 0
2, 67119, Note_on_c, 0, 68, 0
2, 67127, Note_on_c, 0, 56, 31
2, 67833, Note_on_c, 0, 68, 60
2, 67839, Note_on_c, 0, 63, 68
2, 67848, Note_on_c, 0, 60, 66
2, 67887, Note_on_c, 0, 56, 0
2, 67916, Note_on_c, 0, 60, 0
2, 68006, Note_on_c, 0, 68, 0
2, 68010, Note_on_c, 0, 63, 0
2, 68029, Note_on_c, 0, 53, 36
2, 68747, Note_on_c, 0, 46, 44
2, 68856, Note_on_c, 0, 53, 0
2, 69052, Note_on_c, 0, 63, 55
2, 69068, Note_on_c, 0, 56, 57
2, 69070, Note_on_c, 0, 67, 62
2, 69085, Note_on_c, 0, 60, 62
2, 69480, Note_on_c, 0, 67, 0
2, 69519, Note_on_c, 0, 60, 0
2, 69575, Note_on_c, 0, 56, 0
2, 69628, Note_on_c, 0, 63, 0
2, 69830, Note_on_c, 0, 53, 26
2, 69872, Note_on_c, 0, 46, 0
2, 70022, Note_on_c, 0, 56, 48
2, 70026, Note_on_c, 0, 66, 59
2, 70030, Note_on_c, 0, 63, 57
2, 70076, Note_on_c, 0, 60, 53
2, 70122, Note_on_c, 0, 53, 0
2, 70488, Note_on_c, 0, 66, 0
2, 70502, Note_on_c, 0, 60, 0
2, 70560, Note_on_c, 0, 56, 0
2, 70730, Note_on_c, 0, 53, 30
2, 70778, Note_on_c, 0, 63, 0
2, 70984, Note_on_c, 0, 56, 47
2, 71015, Note_on_c, 0, 65, 58
2, 71036, Note_on_c, 0, 60, 61
2, 71045, Note_on_c, 0, 62, 46
2, 71155, Note_on_c, 0, 56, 0
2, 71387, Note_on_c, 0, 65, 0
2, 71441, Note_on_c, 0, 53, 0
2, 71533, Note_on_c, 0, 60, 0
2, 71664, Note_on_c, 0, 46, 46
2, 71821, Note_on_c, 0, 46, 0
2, 71957, Note_on_c, 0, 54, 75
2, 72001, Control_c, 0, 64, 127
2, 72679, Note_on_c, 0, 54, 0
2, 72685, Note_on_c, 0, 62, 0
2, 72829, Control_c, 0, 64, 0
2, 72925, Note_on_c, 0, 39, 61
2, 73555, Note_on_c, 0, 46, 34
2, 73879, Note_on_c, 0, 55, 48
2, 74000, Note_on_c, 0, 39, 0
2, 74423, Note_on_c, 0, 46, 0
2, 74515, Note_on_c, 0, 40, 66
2, 75440, Note_on_c, 0, 55, 0
2, 75473, Note_on_c, 0, 47, 72
2, 76383, Note_on_c, 0, 56, 78
2, 76510, Note_on_c, 0, 40, 0
2, 76744, Note_on_c, 0, 56, 0
2, 76750, Note_on_c, 0, 47, 0
2, 76815, Note_on_c, 0, 41, 64
2, 77435, Note_on_c, 0, 48, 65
2, 78113, Note_on_c, 0, 57, 76
2, 78359, Note_on_c, 0, 41, 0
2, 78614, Note_on_c, 0, 48, 0
2, 78662, Note_on_c, 0, 57, 0
2, 78700, Note_on_c, 0, 42, 67
2, 79320, Note_on_c, 0, 49, 54
2, 79950, Note_on_c, 0, 58, 48
2, 80104, Note_on_c, 0, 49, 0
2, 80183, Note_on_c, 0, 58, 0
2, 80252, Note_on_c, 0, 60, 67
2, 80453, Note_on_c, 0, 42, 0
2, 80538, Note_on_c, 0, 60, 0
2, 80605, Note_on_c, 0, 43, 55
2, 80641, Control_c, 0, 64, 127
2, 80845, Note_on_c, 0, 43, 0
2, 81490, Control_c, 0, 64, 0
2, 81550, Note_on_c, 0, 84, 65
2, 81552, Note_on_c, 0, 72, 67
2, 81555, Note_on_c, 0, 58, 56
2, 81573, Note_on_c, 0, 83, 64
2, 81636, Note_on_c, 0, 83, 0
2, 81757, Note_on_c, 0, 58, 0
2, 82020, Note_on_c, 0, 84, 0
2, 82043, Note_on_c, 0, 72, 0
2, 82248, Note_on_c, 0, 82, 49
2, 82431, Note_on_c, 0, 82, 0
2, 82488, Note_on_c, 0, 50, 43
2, 82525, Note_on_c, 0, 84, 60
2, 82540, Note_on_c, 0, 72, 39
2, 82834, Note_on_c, 0, 72, 0
2, 82836, Note_on_c, 0, 50, 0
2, 82846, Note_on_c, 0, 84, 0
2, 83441, Note_on_c, 0, 51, 48
2, 83460, Note_on_c, 0, 39, 35
2, 83646, Note_on_c, 0, 39, 0
2, 83696, Note_on_c, 0, 51, 0
2, 84028, Note_on_c, 0, 36, 40
2, 84266, Note_on_c, 0, 36, 0
2, 84401, Note_on_c, 0, 52, 41
2, 84451, Note_on_c, 0, 84, 38
2, 84470, Note_on_c, 0, 72, 27
2, 84512, Note_on_c, 0, 52, 0
2, 84952, Note_on_c, 0, 72, 0
2, 84992, Note_on_c, 0, 84, 0
2, 85324, Note_on_c, 0, 64, 44
2, 85382, Note_on_c, 0, 58, 27
2, 85405, Note_on_c, 0, 64, 0
2, 85553, Note_on_c, 0, 58, 0
2, 86060, Note_on_c, 0, 82, 57
2, 86225, Note_on_c, 0, 82, 0
2, 86334, Note_on_c, 0, 58, 54
2, 86344, Note_on_c, 0, 72, 73
2, 86352, Note_on_c, 0, 84, 80
2, 86386, Note_on_c, 0, 48, 37
2, 86480, Note_on_c, 0, 48, 0
2, 86509, Note_on_c, 0, 58, 0
2, 86856, Note_on_c, 0, 72, 0
2, 86931, Note_on_c, 0, 84, 0
2, 87262, Note_on_c, 0, 42, 42
2, 87292, Note_on_c, 0, 82, 54
2, 87310, Note_on_c, 0, 52, 26
2, 87313, Note_on_c, 0, 72, 53
2, 87465, Note_on_c, 0, 82, 0
2, 87513, Note_on_c, 0, 72, 0
2, 87728, Note_on_c, 0, 52, 0
2, 87880, Note_on_c, 0, 42, 0
2, 88266, Note_on_c, 0, 75, 73
2, 88272, Note_on_c, 0, 69, 85
2, 88281, Note_on_c, 0, 77, 69
2, 88283, Note_on_c, 0, 71, 72
2, 88289, Note_on_c, 0, 73, 40
2, 88619, Note_on_c, 0, 71, 0
2, 88696, Note_on_c, 0, 69, 0
2, 88730, Note_on_c, 0, 73, 0
2, 88736, Note_on_c, 0, 77, 0
2, 88773, Note_on_c, 0, 75, 0
2, 89220, Note_on_c, 0, 75, 61
2, 89226, Note_on_c, 0, 73, 45
2, 89228, Note_on_c, 0, 69, 71
2, 89233, Note_on_c, 0, 65, 55
2, 89243, Note_on_c, 0, 77, 60
2, 89247, Note_on_c, 0, 71, 60
2, 89694, Note_on_c, 0, 65, 0
2, 89694, Note_on_c, 0, 69, 0
2, 89704, Note_on_c, 0, 71, 0
2, 89708, Note_on_c, 0, 77, 0
2, 89725, Note_on_c, 0, 73, 0
2, 89777, Note_on_c, 0, 75, 0
2, 90236, Note_on_c, 0, 75, 52
2, 90240, Note_on_c, 0, 65, 57
2, 90241, Note_on_c, 0, 69, 67
2, 90247, Note_on_c, 0, 77, 57
2, 90249, Note_on_c, 0, 73, 35
2, 90251, Note_on_c, 0, 71, 59
2, 90552, Note_on_c, 0, 77, 0
2, 90577, Note_on_c, 0, 71, 0
2, 90606, Note_on_c, 0, 73, 0
2, 90616, Note_on_c, 0, 65, 0
2, 90637, Note_on_c, 0, 69, 0
2, 90679, Note_on_c, 0, 75, 0
2, 91150, Note_on_c, 0, 76, 60
2, 91171, Note_on_c, 0, 66, 57
2, 91173, Note_on_c, 0, 70, 63
2, 91194, Note_on_c, 0, 72, 57
2, 91196, Note_on_c, 0, 62, 58
2, 91428, Note_on_c, 0, 62, 0
2, 91441, Note_on_c, 0, 76, 0
2, 91478, Note_on_c, 0, 72, 0
2, 91534, Note_on_c, 0, 70, 0
2, 91578, Note_on_c, 0, 66, 0
2, 92110, Note_on_c, 0, 64, 71
2, 92112, Note_on_c, 0, 70, 44
2, 92117, Note_on_c, 0, 60, 53
2, 92121, Note_on_c, 0, 66, 54
2, 92135, Note_on_c, 0, 72, 55
2, 92140, Note_on_c, 0, 68, 49
2, 92436, Note_on_c, 0, 72, 0
2, 92471, Note_on_c, 0, 68, 0
2, 92492, Note_on_c, 0, 66, 0
2, 92497, Note_on_c, 0, 70, 0
2, 92536, Note_on_c, 0, 60, 0
2, 92542, Note_on_c, 0, 64, 0
2, 93106, Note_on_c, 0, 60, 49
2, 93110, Note_on_c, 0, 66, 44
2, 93116, Note_on_c, 0, 64, 59
2, 93125, Note_on_c, 0, 54, 46
2, 93427, Note_on_c, 0, 54, 0
2, 93459, Note_on_c, 0, 64, 0
2, 93519, Note_on_c, 0, 66, 0
2, 93521, Note_on_c, 0, 60, 0
2, 94081, Control_c, 0, 64, 127
2, 94709, Note_on_c, 0, 62, 95
2, 94734, Control_c, 0, 64, 0
2, 94790, Note_on_c, 0, 54, 52
2, 94800, Note_on_c, 0, 44, 50
2, 94968, Note_on_c, 0, 54, 0
2, 95184, Note_on_c, 0, 61, 51
2, 95216, Note_on_c, 0, 44, 0
2, 95235, Control_c, 0, 64, 127
2, 95285, Note_on_c, 0, 62, 0
2, 95427, Note_on_c, 0, 60, 46
2, 95537, Note_on_c, 0, 61, 0
2, 95662, Note_on_c, 0, 60, 0
2, 95679, Note_on_c, 0, 59, 43
2, 95877, Note_on_c, 0, 59, 0
2, 95890, Control_c, 0, 64, 0
2, 95963, Note_on_c, 0, 43, 31
2, 96001, Note_on_c, 0, 50, 34
2, 96021, Note_on_c, 0, 55, 60
2, 96577, Note_on_c, 0, 50, 0
2, 96885, Note_on_c, 0, 50, 52
2, 97144, Note_on_c, 0, 43, 0
2, 97787, Note_on_c, 0, 50, 0
2, 97875, Note_on_c, 0, 43, 37
2, 97883, Note_on_c, 0, 51, 42
2, 97943, Note_on_c, 0, 55, 0
2, 98369, Note_on_c, 0, 43, 0
2, 98436, Note_on_c, 0, 51, 0
2, 98549, Note_on_c, 0, 55, 35
2, 98655, Note_on_c, 0, 55, 0
2, 98791, Note_on_c, 0, 51, 32
2, 98816, Note_on_c, 0, 43, 25
2, 98866, Note_on_c, 0, 58, 59
2, 99089, Note_on_c, 0, 58, 0
2, 99338, Note_on_c, 0, 43, 0
2, 99475, Note_on_c, 0, 51, 0
2, 99550, Note_on_c, 0, 61, 77
2, 99690, Note_on_c, 0, 43, 36
2, 99786, Note_on_c, 0, 61, 0
2, 100147, Note_on_c, 0, 61, 59
2, 100151, Note_on_c, 0, 43, 0
2, 100231, Note_on_c, 0, 61, 0
2, 100256, Note_on_c, 0, 62, 54
2, 100538, Note_on_c, 0, 62, 0
2, 100698, Note_on_c, 0, 67, 81
2, 100736, Note_on_c, 0, 43, 24
2, 100742, Note_on_c, 0, 52, 26
2, 100926, Note_on_c, 0, 67, 0
2, 101005, Note_on_c, 0, 43, 0
2, 101099, Note_on_c, 0, 52, 0
2, 101370, Note_on_c, 0, 58, 55
2, 101575, Note_on_c, 0, 53, 31
2, 101579, Note_on_c, 0, 43, 24
2, 101976, Note_on_c, 0, 43, 0
2, 102059, Note_on_c, 0, 53, 0
2, 102625, Note_on_c, 0, 43, 33
2, 102645, Note_on_c, 0, 53, 28
2, 102804, Note_on_c, 0, 53, 0
2, 103029, Note_on_c, 0, 43, 0
2, 103324, Note_on_c, 0, 55, 34
2, 103488, Note_on_c, 0, 58, 0
2, 103536, Note_on_c, 0, 55, 0
2, 103630, Note_on_c, 0, 61, 62
2, 103647, Note_on_c, 0, 39, 50
2, 103925, Note_on_c, 0, 61, 0
2, 104006, Note_on_c, 0, 39, 0
2, 104313, Note_on_c, 0, 49, 28
2, 104478, Note_on_c, 0, 49, 0
2, 104572, Note_on_c, 0, 70, 64
2, 104576, Note_on_c, 0, 65, 70
2, 104580, Note_on_c, 0, 61, 59
2, 104584, Note_on_c, 0, 57, 67
2, 104797, Note_on_c, 0, 57, 0
2, 105039, Note_on_c, 0, 65, 0
2, 105070, Note_on_c, 0, 61, 0
2, 105081, Note_on_c, 0, 70, 0
2, 105527, Note_on_c, 0, 69, 58
2, 105534, Note_on_c, 0, 60, 47
2, 105534, Note_on_c, 0, 66, 48
2, 105542, Note_on_c, 0, 63, 35
2, 105544, Note_on_c, 0, 54, 40
2, 105563, Note_on_c, 0, 50, 36
2, 105707, Note_on_c, 0, 50, 0
2, 105732, Note_on_c, 0, 54, 0
2, 105936, Note_on_c, 0, 60, 0
2, 105960, Note_on_c, 0, 69, 0
2, 106032, Note_on_c, 0, 63, 0
2, 106081, Note_on_c, 0, 66, 0
2, 106467, Note_on_c, 0, 44, 67
2, 107001, Note_on_c, 0, 44, 0
2, 107422, Note_on_c, 0, 43, 29
2, 107491, Note_on_c, 0, 78, 67
2, 107506, Note_on_c, 0, 66, 71
2, 107510, Note_on_c, 0, 73, 50
2, 107518, Note_on_c, 0, 43, 0
2, 108001, Note_on_c, 0, 66, 0
2, 108007, Note_on_c, 0, 78, 0
2, 108021, Note_on_c, 0, 73, 0
2, 108167, Note_on_c, 0, 79, 61
2, 108170, Note_on_c, 0, 67, 55
2, 108232, Note_on_c, 0, 74, 55
2, 108336, Note_on_c, 0, 79, 0
2, 108351, Note_on_c, 0, 67, 0
2, 108405, Note_on_c, 0, 58, 37
2, 108435, Note_on_c, 0, 74, 0
2, 108520, Note_on_c, 0, 66, 59
2, 108524, Note_on_c, 0, 74, 36
2, 108543, Note_on_c, 0, 78, 44
2, 108627, Note_on_c, 0, 58, 0
2, 108929, Note_on_c, 0, 74, 0
2, 108946, Note_on_c, 0, 78, 0
2, 108988, Note_on_c, 0, 66, 0
2, 109153, Note_on_c, 0, 67, 51
2, 109159, Note_on_c, 0, 74, 40
2, 109163, Note_on_c, 0, 79, 38
2, 109248, Note_on_c, 0, 50, 40
2, 109249, Note_on_c, 0, 79, 0
2, 109265, Note_on_c, 0, 67, 0
2, 109280, Note_on_c, 0, 74, 0
2, 109428, Note_on_c, 0, 77, 49
2, 109466, Note_on_c, 0, 65, 64
2, 109472, Note_on_c, 0, 43, 32
2, 109486, Note_on_c, 0, 50, 0
2, 109488, Note_on_c, 0, 53, 33
2, 109620, Note_on_c, 0, 43, 0
2, 109779, Note_on_c, 0, 53, 0
2, 109948, Note_on_c, 0, 77, 0
2, 110104, Note_on_c, 0, 65, 0
2, 110375, Note_on_c, 0, 74, 62
2, 110380, Note_on_c, 0, 49, 37
2, 110400, Note_on_c, 0, 59, 27
2, 110442, Note_on_c, 0, 62, 44
2, 110828, Note_on_c, 0, 59, 0
2, 110885, Note_on_c, 0, 62, 0
2, 110931, Note_on_c, 0, 74, 0
2, 111062, Note_on_c, 0, 55, 29
2, 111093, Note_on_c, 0, 49, 0
2, 111252, Note_on_c, 0, 55, 0
2, 111375, Note_on_c, 0, 75, 60
2, 111394, Note_on_c, 0, 63, 49
2, 111425, Note_on_c, 0, 70, 45
2, 111822, Note_on_c, 0, 63, 0
2, 111863, Note_on_c, 0, 75, 0
2, 111882, Note_on_c, 0, 70, 0
2, 112018, Note_on_c, 0, 64, 52
2, 112020, Note_on_c, 0, 70, 30
2, 112026, Note_on_c, 0, 76, 44
2, 112095, Note_on_c, 0, 64, 0
2, 112135, Note_on_c, 0, 70, 0
2, 112179, Note_on_c, 0, 76, 0
2, 112272, Note_on_c, 0, 58, 34
2, 112356, Note_on_c, 0, 67, 64
2, 112358, Note_on_c, 0, 79, 63
2, 112416, Note_on_c, 0, 58, 0
2, 112567, Note_on_c, 0, 67, 0
2, 112682, Note_on_c, 0, 79, 0
2, 113241, Note_on_c, 0, 58, 54
2, 113251, Note_on_c, 0, 84, 75
2, 113260, Note_on_c, 0, 72, 68
2, 113274, Note_on_c, 0, 48, 44
2, 113278, Note_on_c, 0, 79, 62
2, 113458, Note_on_c, 0, 58, 0
2, 113518, Note_on_c, 0, 48, 0
2, 114284, Note_on_c, 0, 43, 87
2, 114902, Note_on_c, 0, 43, 0
2, 115223, Note_on_c, 0, 30, 53
2, 115226, Note_on_c, 0, 42, 46
2, 115424, Note_on_c, 0, 30, 0
2, 115495, Note_on_c, 0, 42, 0
2, 115672, Note_on_c, 0, 72, 0
2, 115710, Note_on_c, 0, 84, 0
2, 115718, Note_on_c, 0, 79, 0
2, 116175, Note_on_c, 0, 64, 53
2, 116177, Note_on_c, 0, 82, 57
2, 116200, Note_on_c, 0, 78, 38
2, 116202, Note_on_c, 0, 84, 50
2, 116221, Note_on_c, 0, 58, 34
2, 116234, Note_on_c, 0, 72, 29
2, 116305, Note_on_c, 0, 64, 0
2, 116438, Note_on_c, 0, 58, 0
2, 116559, Note_on_c, 0, 72, 0
2, 116578, Note_on_c, 0, 78, 0
2, 116659, Note_on_c, 0, 82, 0
2, 116664, Note_on_c, 0, 84, 0
2, 117104, Note_on_c, 0, 82, 64
2, 117108, Note_on_c, 0, 44, 44
2, 117114, Note_on_c, 0, 78, 65
2, 117116, Note_on_c, 0, 84, 66
2, 117120, Note_on_c, 0, 42, 59
2, 117133, Note_on_c, 0, 72, 54
2, 117379, Note_on_c, 0, 44, 0
2, 117480, Note_on_c, 0, 72, 0
2, 117488, Note_on_c, 0, 42, 0
2, 117515, Note_on_c, 0, 78, 0
2, 117517, Note_on_c, 0, 84, 0
2, 117582, Note_on_c, 0, 82, 0
2, 118056, Note_on_c, 0, 29, 73
2, 118062, Note_on_c, 0, 41, 82
2, 118488, Note_on_c, 0, 29, 0
2, 118604, Note_on_c, 0, 41, 0
2, 119051, Note_on_c, 0, 84, 78
2, 119055, Note_on_c, 0, 72, 80
2, 119057, Note_on_c, 0, 81, 71
2, 119063, Note_on_c, 0, 77, 74
2, 119496, Note_on_c, 0, 77, 0
2, 119502, Note_on_c, 0, 84, 0
2, 119520, Note_on_c, 0, 72, 0
2, 119569, Note_on_c, 0, 81, 0
2, 119986, Note_on_c, 0, 84, 80
2, 119990, Note_on_c, 0, 51, 58
2, 119994, Note_on_c, 0, 81, 77
2, 119996, Note_on_c, 0, 72, 82
2, 120000, Note_on_c, 0, 77, 80
2, 120007, Note_on_c, 0, 62, 72
2, 120015, Note_on_c, 0, 57, 64
2, 120128, Note_on_c, 0, 62, 0
2, 120209, Note_on_c, 0, 57, 0
2, 120241, Note_on_c, 0, 51, 0
2, 120447, Note_on_c, 0, 77, 0
2, 120455, Note_on_c, 0, 72, 0
2, 120503, Note_on_c, 0, 81, 0
2, 120504, Note_on_c, 0, 84, 0
2, 120942, Note_on_c, 0, 84, 77
2, 120946, Note_on_c, 0, 72, 82
2, 120956, Note_on_c, 0, 81, 74
2, 120958, Note_on_c, 0, 77, 75
2, 120961, Note_on_c, 0, 53, 82
2, 120961, Note_on_c, 0, 41, 82
2, 121301, Note_on_c, 0, 77, 0
2, 121315, Note_on_c, 0, 72, 0
2, 121328, Note_on_c, 0, 41, 0
2, 121367, Note_on_c, 0, 53, 0
2, 121372, Note_on_c, 0, 81, 0
2, 121374, Note_on_c, 0, 84, 0
2, 121862, Note_on_c, 0, 41, 67
2, 121864, Note_on_c, 0, 53, 74
2, 121868, Note_on_c, 0, 84, 80
2, 121870, Note_on_c, 0, 77, 84
2, 121872, Note_on_c, 0, 81, 77
2, 121881, Note_on_c, 0, 72, 80
2, 122012, Note_on_c, 0, 41, 0
2, 122152, Note_on_c, 0, 53, 0
2, 122225, Note_on_c, 0, 81, 0
2, 122231, Note_on_c, 0, 72, 0
2, 122256, Note_on_c, 0, 84, 0
2, 122263, Note_on_c, 0, 77, 0
2, 122805, Note_on_c, 0, 66, 90
2, 122822, Note_on_c, 0, 55, 88
2, 122833, Note_on_c, 0, 70, 63
2, 122843, Note_on_c, 0, 60, 80
2, 122849, Note_on_c, 0, 65, 89
2, 122858, Note_on_c, 0, 62, 73
2, 122860, Note_on_c, 0, 71, 79
2, 122872, Note_on_c, 0, 66, 0
2, 122924, Note_on_c, 0, 62, 0
2, 123108, Note_on_c, 0, 71, 0
2, 123304, Note_on_c, 0, 70, 0
2, 123365, Note_on_c, 0, 60, 0
2, 123411, Note_on_c, 0, 65, 0
2, 123482, Note_on_c, 0, 55, 0
2, 123542, Note_on_c, 0, 54, 52
2, 123772, Note_on_c, 0, 70, 86
2, 123774, Note_on_c, 0, 65, 92
2, 123782, Note_on_c, 0, 60, 89
2, 123784, Note_on_c, 0, 55, 87
2, 123790, Note_on_c, 0, 54, 0
2, 124296, Note_on_c, 0, 60, 0
2, 124360, Note_on_c, 0, 70, 0
2, 124379, Note_on_c, 0, 65, 0
2, 124454, Note_on_c, 0, 55, 0
2, 124721, Note_on_c, 0, 70, 85
2, 124732, Note_on_c, 0, 65, 89
2, 124744, Note_on_c, 0, 55, 66
2, 124750, Note_on_c, 0, 60, 83
2, 125210, Note_on_c, 0, 55, 0
2, 125266, Note_on_c, 0, 60, 0
2, 125331, Note_on_c, 0, 65, 0
2, 125333, Note_on_c, 0, 70, 0
2, 125400, Note_on_c, 0, 44, 80
2, 125758, Control_c, 0, 64, 127
2, 126495, Note_on_c, 0, 44, 0
2, 126568, Control_c, 0, 64, 0
2, 126691, Note_on_c, 0, 70, 74
2, 127173, Note_on_c, 0, 70, 0
2, 127332, Note_on_c, 0, 69, 28
2, 127505, Note_on_c, 0, 69, 0
2, 127595, Note_on_c, 0, 70, 60
2, 127597, Note_on_c, 0, 55, 32
2, 127616, Note_on_c, 0, 62, 28
2, 127637, Note_on_c, 0, 58, 33
2, 127704, Note_on_c, 0, 62, 0
2, 127812, Note_on_c, 0, 58, 0
2, 127845, Note_on_c, 0, 55, 0
2, 128499, Note_on_c, 0, 70, 0
2, 128565, Note_on_c, 0, 44, 52
2, 128576, Note_on_c, 0, 54, 56
2, 128593, Note_on_c, 0, 74, 69
2, 128782, Note_on_c, 0, 44, 0
2, 128918, Note_on_c, 0, 54, 0
2, 129189, Note_on_c, 0, 74, 0
2, 129561, Note_on_c, 0, 68, 45
2, 129576, Note_on_c, 0, 64, 45
2, 129914, Note_on_c, 0, 64, 0
2, 129985, Note_on_c, 0, 68, 0
2, 130487, Note_on_c, 0, 43, 31
2, 130513, Note_on_c, 0, 70, 55
2, 130521, Note_on_c, 0, 53, 43
2, 130536, Note_on_c, 0, 62, 55
2, 130596, Note_on_c, 0, 43, 0
2, 130730, Note_on_c, 0, 53, 0
2, 130959, Note_on_c, 0, 62, 0
2, 131063, Note_on_c, 0, 70, 0
2, 131454, Note_on_c, 0, 67, 59
2, 131456, Note_on_c, 0, 56, 45
2, 131470, Note_on_c, 0, 62, 45
2, 131591, Note_on_c, 0, 56, 0
2, 131873, Note_on_c, 0, 62, 0
2, 131879, Note_on_c, 0, 67, 0
2, 132384, Note_on_c, 0, 43, 30
2, 132408, Note_on_c, 0, 52, 44
2, 132435, Note_on_c, 0, 74, 70
2, 132447, Note_on_c, 0, 62, 72
2, 132478, Note_on_c, 0, 43, 0
2, 132600, Note_on_c, 0, 52, 0
2, 132852, Note_on_c, 0, 62, 0
2, 132958, Note_on_c, 0, 74, 0
2, 133280, Note_on_c, 0, 56, 43
2, 133317, Note_on_c, 0, 70, 54
2, 133332, Note_on_c, 0, 62, 49
2, 133399, Note_on_c, 0, 56, 0
2, 133616, Note_on_c, 0, 62, 0
2, 133814, Note_on_c, 0, 70, 0
2, 134008, Note_on_c, 0, 61, 70
2, 134017, Note_on_c, 0, 72, 44
2, 134046, Note_on_c, 0, 65, 64
2, 134062, Note_on_c, 0, 69, 44
2, 134136, Note_on_c, 0, 61, 0
2, 134156, Note_on_c, 0, 65, 0
2, 134167, Note_on_c, 0, 39, 48
2, 134232, Note_on_c, 0, 51, 18
2, 134236, Note_on_c, 0, 69, 0
2, 134286, Note_on_c, 0, 72, 0
2, 134350, Note_on_c, 0, 39, 0
2, 134434, Note_on_c, 0, 51, 0
2, 135004, Note_on_c, 0, 84, 74
2, 135010, Note_on_c, 0, 77, 68
2, 135031, Note_on_c, 0, 72, 60
2, 135131, Note_on_c, 0, 77, 0
2, 135135, Note_on_c, 0, 61, 37
2, 135143, Note_on_c, 0, 72, 0
2, 135150, Note_on_c, 0, 65, 34
2, 135152, Note_on_c, 0, 84, 0
2, 135206, Note_on_c, 0, 55, 19
2, 135229, Note_on_c, 0, 65, 0
2, 135292, Note_on_c, 0, 82, 60
2, 135294, Note_on_c, 0, 61, 0
2, 135315, Note_on_c, 0, 55, 0
2, 135471, Note_on_c, 0, 82, 0
2, 135563, Note_on_c, 0, 84, 81
2, 135573, Note_on_c, 0, 72, 77
2, 135623, Note_on_c, 0, 83, 40
2, 135692, Note_on_c, 0, 83, 0
2, 135955, Note_on_c, 0, 72, 0
2, 135972, Note_on_c, 0, 84, 0
2, 136108, Note_on_c, 0, 38, 51
2, 136172, Note_on_c, 0, 82, 76
2, 136260, Note_on_c, 0, 38, 0
2, 136558, Note_on_c, 0, 82, 0
2, 137191, Note_on_c, 0, 54, 53
2, 137193, Note_on_c, 0, 65, 48
2, 137212, Note_on_c, 0, 60, 51
2, 137272, Note_on_c, 0, 65, 0
2, 137287, Note_on_c, 0, 60, 0
2, 137414, Note_on_c, 0, 54, 0
2, 137927, Note_on_c, 0, 50, 48
2, 137936, Note_on_c, 0, 78, 47
2, 138080, Note_on_c, 0, 78, 0
2, 138096, Note_on_c, 0, 50, 0
2, 138201, Note_on_c, 0, 43, 33
2, 138205, Note_on_c, 0, 81, 88
2, 138278, Note_on_c, 0, 43, 0
2, 138293, Note_on_c, 0, 55, 25
2, 138372, Note_on_c, 0, 55, 0
2, 138771, Note_on_c, 0, 81, 0
2, 138850, Note_on_c, 0, 78, 36
2, 139008, Note_on_c, 0, 78, 0
2, 139117, Note_on_c, 0, 58, 38
2, 139121, Note_on_c, 0, 79, 79
2, 139301, Note_on_c, 0, 58, 0
2, 139912, Note_on_c, 0, 79, 0
2, 140054, Note_on_c, 0, 81, 79
2, 140067, Note_on_c, 0, 55, 60
2, 140113, Control_c, 0, 64, 127
2, 140555, Note_on_c, 0, 55, 0
2, 140595, Note_on_c, 0, 81, 0
2, 140764, Note_on_c, 0, 50, 40
2, 140858, Note_on_c, 0, 50, 0
2, 140922, Control_c, 0, 64, 0
2, 141039, Note_on_c, 0, 51, 80
2, 141152, Control_c, 0, 64, 127
2, 141696, Note_on_c, 0, 49, 43
2, 141711, Control_c, 0, 64, 0
2, 141959, Note_on_c, 0, 49, 0
2, 141962, Note_on_c, 0, 51, 0
2, 142007, Note_on_c, 0, 70, 91
2, 142014, Note_on_c, 0, 52, 87
2, 142018, Note_on_c, 0, 67, 92
2, 142024, Note_on_c, 0, 62, 96
2, 142433, Note_on_c, 0, 62, 0
2, 142458, Note_on_c, 0, 52, 0
2, 142481, Note_on_c, 0, 70, 0
2, 142490, Note_on_c, 0, 67, 0
2, 142636, Note_on_c, 0, 70, 58
2, 142652, Note_on_c, 0, 67, 60
2, 142654, Note_on_c, 0, 62, 68
2, 142661, Note_on_c, 0, 52, 60
2, 142694, Control_c, 0, 64, 127
2, 142830, Note_on_c, 0, 62, 0
2, 142846, Note_on_c, 0, 70, 0
2, 142863, Note_on_c, 0, 67, 0
2, 142970, Note_on_c, 0, 70, 58
2, 142982, Note_on_c, 0, 67, 72
2, 142986, Note_on_c, 0, 62, 65
2, 143057, Control_c, 0, 64, 0
2, 143255, Note_on_c, 0, 52, 0
2, 143276, Note_on_c, 0, 62, 0
2, 143281, Note_on_c, 0, 67, 0
2, 143450, Note_on_c, 0, 70, 0
2, 143942, Note_on_c, 0, 70, 59
2, 143952, Note_on_c, 0, 51, 48
2, 143961, Note_on_c, 0, 61, 59
2, 143969, Note_on_c, 0, 39, 47
2, 143988, Note_on_c, 0, 66, 45
2, 144318, Note_on_c, 0, 51, 0
2, 144334, Note_on_c, 0, 39, 0
2, 144336, Note_on_c, 0, 61, 0
2, 144366, Note_on_c, 0, 70, 0
2, 144378, Note_on_c, 0, 66, 0
2, 145597, Note_on_c, 0, 61, 67
2, 145599, Note_on_c, 0, 51, 53
2, 145601, Note_on_c, 0, 39, 54
2, 145622, Note_on_c, 0, 66, 55
2, 145626, Note_on_c, 0, 70, 45
2, 145841, Note_on_c, 0, 51, 0
2, 145858, Note_on_c, 0, 70, 0
2, 145910, Note_on_c, 0, 66, 0
2, 145931, Note_on_c, 0, 39, 0
2, 145933, Note_on_c, 0, 61, 0
2, 146071, Note_on_c, 0, 70, 28
2, 146110, Note_on_c, 0, 50, 44
2, 146127, Note_on_c, 0, 60, 43
2, 146131, Note_on_c, 0, 65, 49
2, 146426, Note_on_c, 0, 65, 0
2, 146430, Note_on_c, 0, 70, 0
2, 146446, Note_on_c, 0, 50, 0
2, 146471, Note_on_c, 0, 60, 0
2, 146691, Note_on_c, 0, 60, 38
2, 146701, Note_on_c, 0, 50, 47
2, 146705, Note_on_c, 0, 65, 54
2, 146707, Note_on_c, 0, 70, 34
2, 146801, Note_on_c, 0, 70, 0
2, 146828, Note_on_c, 0, 60, 0
2, 146833, Note_on_c, 0, 65, 0
2, 146904, Note_on_c, 0, 50, 0
2, 147515, Note_on_c, 0, 70, 61
2, 147521, Note_on_c, 0, 64, 68
2, 147536, Note_on_c, 0, 59, 47
2, 147588, Note_on_c, 0, 49, 42
2, 147684, Note_on_c, 0, 59, 0
2, 147709, Note_on_c, 0, 70, 0
2, 147726, Note_on_c, 0, 64, 0
2, 147757, Note_on_c, 0, 49, 0
2, 148504, Note_on_c, 0, 47, 47
2, 148700, Note_on_c, 0, 47, 0
2, 148755, Note_on_c, 0, 70, 35
2, 148782, Note_on_c, 0, 58, 44
2, 148786, Note_on_c, 0, 63, 51
2, 148788, Note_on_c, 0, 48, 47
2, 149120, Note_on_c, 0, 70, 0
2, 149162, Note_on_c, 0, 48, 0
2, 149187, Note_on_c, 0, 58, 0
2, 149189, Note_on_c, 0, 63, 0
2, 149385, Note_on_c, 0, 58, 45
2, 149391, Note_on_c, 0, 70, 37
2, 149393, Note_on_c, 0, 63, 51
2, 149408, Note_on_c, 0, 48, 52
2, 149573, Note_on_c, 0, 70, 0
2, 149577, Note_on_c, 0, 48, 0
2, 149598, Note_on_c, 0, 58, 0
2, 149617, Note_on_c, 0, 63, 0
2, 149767, Note_on_c, 0, 48, 46
2, 149771, Note_on_c, 0, 58, 33
2, 149773, Note_on_c, 0, 70, 31
2, 149779, Note_on_c, 0, 63, 52
2, 150061, Note_on_c, 0, 48, 0
2, 150096, Note_on_c, 0, 63, 0
2, 150105, Note_on_c, 0, 70, 0
2, 150126, Note_on_c, 0, 58, 0
2, 150385, Note_on_c, 0, 63, 54
2, 150387, Note_on_c, 0, 70, 35
2, 150399, Note_on_c, 0, 48, 49
2, 150407, Note_on_c, 0, 58, 34
2, 150491, Note_on_c, 0, 58, 0
2, 150566, Note_on_c, 0, 63, 0
2, 150581, Note_on_c, 0, 48, 0
2, 150616, Note_on_c, 0, 70, 0
2, 151651, Note_on_c, 0, 63, 67
2, 151653, Note_on_c, 0, 70, 64
2, 151656, Note_on_c, 0, 59, 64
2, 151693, Note_on_c, 0, 47, 55
2, 152526, Control_c, 0, 64, 127
2, 154204, Note_on_c, 0, 53, 39
2, 154375, Control_c, 0, 64, 0
2, 154417, Note_on_c, 0, 47, 0
2, 154446, Note_on_c, 0, 53, 0
2, 154544, Note_on_c, 0, 54, 69
2, 155009, Note_on_c, 0, 54, 0
2, 155168, Note_on_c, 0, 54, 71
2, 155454, Control_c, 0, 64, 127
2, 155627, Note_on_c, 0, 54, 0
2, 156084, Note_on_c, 0, 54, 74
2, 156165, Control_c, 0, 64, 0
2, 156280, Note_on_c, 0, 54, 0
2, 156376, Control_c, 0, 64, 127
2, 156881, Note_on_c, 0, 59, 0
2, 157079, Note_on_c, 0, 70, 0
2, 157096, Note_on_c, 0, 50, 27
2, 157128, Control_c, 0, 64, 0
2, 157167, Note_on_c, 0, 63, 0
2, 157192, Note_on_c, 0, 50, 0
2, 157296, Note_on_c, 0, 43, 44
2, 157315, Note_on_c, 0, 55, 54
2, 157334, Note_on_c, 0, 58, 44
2, 157338, Note_on_c, 0, 67, 53
2, 157409, Note_on_c, 0, 62, 33
2, 157470, Note_on_c, 0, 43, 0
2, 157499, Note_on_c, 0, 58, 0
2, 157509, Note_on_c, 0, 55, 0
2, 157566, Note_on_c, 0, 62, 0
2, 157662, Note_on_c, 0, 67, 0
2, 158315, Note_on_c, 0, 58, 38
2, 158321, Note_on_c, 0, 72, 31
2, 158380, Note_on_c, 0, 73, 37
2, 158409, Note_on_c, 0, 58, 0
2, 158545, Note_on_c, 0, 73, 0
2, 158565, Note_on_c, 0, 74, 49
2, 158611, Note_on_c, 0, 72, 0
2, 158764, Note_on_c, 0, 74, 0
2, 159312, Note_on_c, 0, 50, 55
2, 159319, Note_on_c, 0, 67, 62
2, 159323, Note_on_c, 0, 79, 63
2, 159375, Note_on_c, 0, 38, 22
2, 159450, Note_on_c, 0, 38, 0
2, 159567, Note_on_c, 0, 50, 0
2, 159623, Note_on_c, 0, 79, 0
2, 159765, Note_on_c, 0, 67, 0
2, 160296, Note_on_c, 0, 54, 30
2, 160310, Note_on_c, 0, 67, 36
2, 160312, Note_on_c, 0, 73, 35
2, 160412, Note_on_c, 0, 54, 0
2, 160609, Note_on_c, 0, 73, 0
2, 160657, Note_on_c, 0, 74, 38
2, 160775, Note_on_c, 0, 67, 0
2, 160851, Note_on_c, 0, 74, 0
2, 161218, Note_on_c, 0, 43, 53
2, 161258, Note_on_c, 0, 79, 83
2, 161266, Note_on_c, 0, 67, 80
2, 161322, Note_on_c, 0, 78, 38
2, 161385, Note_on_c, 0, 78, 0
2, 161406, Note_on_c, 0, 43, 0
2, 161788, Note_on_c, 0, 67, 0
2, 161802, Note_on_c, 0, 79, 0
2, 162197, Note_on_c, 0, 54, 50
2, 162203, Note_on_c, 0, 73, 35
2, 162216, Note_on_c, 0, 67, 36
2, 162412, Note_on_c, 0, 73, 0
2, 162414, Note_on_c, 0, 54, 0
2, 162468, Note_on_c, 0, 74, 39
2, 162787, Note_on_c, 0, 67, 0
2, 162839, Note_on_c, 0, 74, 0
2, 163163, Note_on_c, 0, 79, 74
2, 163169, Note_on_c, 0, 67, 72
2, 163662, Note_on_c, 0, 67, 0
2, 163739, Note_on_c, 0, 79, 0
2, 164010, Note_on_c, 0, 50, 50
2, 164094, Note_on_c, 0, 73, 38
2, 164106, Note_on_c, 0, 67, 43
2, 164194, Note_on_c, 0, 50, 0
2, 164304, Note_on_c, 0, 73, 0
2, 164309, Note_on_c, 0, 74, 44
2, 164620, Note_on_c, 0, 74, 0
2, 164699, Note_on_c, 0, 67, 0
2, 165014, Note_on_c, 0, 39, 45
2, 165066, Note_on_c, 0, 51, 28
2, 165070, Note_on_c, 0, 79, 62
2, 165089, Note_on_c, 0, 67, 55
2, 165114, Note_on_c, 0, 72, 46
2, 165154, Note_on_c, 0, 39, 0
2, 165208, Note_on_c, 0, 51, 0
2, 165377, Note_on_c, 0, 67, 0
2, 165444, Note_on_c, 0, 72, 0
2, 165513, Note_on_c, 0, 79, 0
2, 166028, Note_on_c, 0, 77, 69
2, 166032, Note_on_c, 0, 84, 70
2, 166033, Note_on_c, 0, 61, 55
2, 166035, Note_on_c, 0, 65, 63
2, 166039, Note_on_c, 0, 55, 53
2, 166041, Note_on_c, 0, 81, 57
2, 166043, Note_on_c, 0, 72, 64
2, 166172, Note_on_c, 0, 65, 0
2, 166260, Note_on_c, 0, 61, 0
2, 166308, Note_on_c, 0, 55, 0
2, 166414, Note_on_c, 0, 84, 0
2, 166421, Note_on_c, 0, 72, 0
2, 166429, Note_on_c, 0, 81, 0
2, 166469, Note_on_c, 0, 77, 0
2, 166972, Note_on_c, 0, 38, 56
2, 166990, Note_on_c, 0, 82, 67
2, 167009, Note_on_c, 0, 75, 61
2, 167026, Note_on_c, 0, 70, 50
2, 167139, Note_on_c, 0, 38, 0
2, 167456, Note_on_c, 0, 70, 0
2, 167514, Note_on_c, 0, 82, 0
2, 167546, Note_on_c, 0, 75, 0
2, 167677, Note_on_c, 0, 75, 55
2, 167679, Note_on_c, 0, 81, 55
2, 167700, Note_on_c, 0, 69, 46
2, 167888, Note_on_c, 0, 54, 51
2, 167930, Note_on_c, 0, 60, 39
2, 168232, Note_on_c, 0, 60, 0
2, 168326, Note_on_c, 0, 54, 0
2, 168637, Note_on_c, 0, 81, 0
2, 168698, Note_on_c, 0, 69, 0
2, 168783, Note_on_c, 0, 75, 0
2, 168931, Note_on_c, 0, 79, 63
2, 168933, Note_on_c, 0, 55, 56
2, 168946, Note_on_c, 0, 74, 68
2, 168950, Note_on_c, 0, 67, 58
2, 168954, Note_on_c, 0, 62, 51
2, 168975, Note_on_c, 0, 58, 55
2, 169211, Note_on_c, 0, 62, 0
2, 169296, Note_on_c, 0, 58, 0
2, 169315, Note_on_c, 0, 55, 0
2, 169351, Note_on_c, 0, 67, 0
2, 169361, Note_on_c, 0, 79, 0
2, 169374, Note_on_c, 0, 74, 0
2, 169854, Note_on_c, 0, 44, 71
2, 170330, Note_on_c, 0, 44, 0
2, 170492, Note_on_c, 0, 43, 71
2, 170749, Note_on_c, 0, 43, 0
2, 171058, Note_on_c, 0, 70, 78
2, 171075, Note_on_c, 0, 63, 71
2, 171077, Note_on_c, 0, 59, 69
2, 171536, Note_on_c, 0, 59, 0
2, 171590, Note_on_c, 0, 63, 0
2, 171609, Note_on_c, 0, 70, 0
2, 171799, Note_on_c, 0, 47, 64
2, 171809, Note_on_c, 0, 68, 60
2, 171826, Note_on_c, 0, 63, 58
2, 171830, Note_on_c, 0, 59, 60
2, 172147, Note_on_c, 0, 59, 0
2, 172321, Note_on_c, 0, 68, 0
2, 172416, Note_on_c, 0, 63, 0
2, 172452, Note_on_c, 0, 47, 0
2, 172490, Note_on_c, 0, 67, 64
2, 172494, Note_on_c, 0, 58, 59
2, 172500, Note_on_c, 0, 64, 66
2, 172538, Note_on_c, 0, 48, 68
2, 173306, Note_on_c, 0, 58, 0
2, 173393, Note_on_c, 0, 36, 82
2, 173441, Control_c, 0, 64, 127
2, 173510, Note_on_c, 0, 67, 0
2, 173564, Note_on_c, 0, 64, 0
2, 173733, Note_on_c, 0, 36, 0
2, 173788, Note_on_c, 0, 48, 0
2, 174597, Control_c, 0, 64, 0
2, 174741, Note_on_c, 0, 72, 90
2, 174743, Note_on_c, 0, 84, 89
2, 175224, Note_on_c, 0, 84, 0
2, 175332, Note_on_c, 0, 72, 0
2, 175401, Note_on_c, 0, 82, 43
2, 175564, Note_on_c, 0, 82, 0
2, 175664, Note_on_c, 0, 84, 65
2, 175670, Note_on_c, 0, 72, 47
2, 176184, Note_on_c, 0, 84, 0
2, 176240, Note_on_c, 0, 72, 0
2, 176321, Note_on_c, 0, 82, 37
2, 176501, Note_on_c, 0, 82, 0
2, 176597, Note_on_c, 0, 62, 42
2, 176599, Note_on_c, 0, 51, 37
2, 176607, Note_on_c, 0, 84, 43
2, 176638, Note_on_c, 0, 72, 26
2, 176640, Note_on_c, 0, 57, 38
2, 177047, Note_on_c, 0, 57, 0
2, 177050, Note_on_c, 0, 62, 0
2, 177060, Note_on_c, 0, 84, 0
2, 177093, Note_on_c, 0, 72, 0
2, 177096, Note_on_c, 0, 51, 0
2, 177546, Note_on_c, 0, 84, 50
2, 177550, Note_on_c, 0, 51, 39
2, 177557, Note_on_c, 0, 62, 37
2, 177592, Note_on_c, 0, 72, 25
2, 177617, Note_on_c, 0, 57, 36
2, 177982, Note_on_c, 0, 57, 0
2, 177984, Note_on_c, 0, 62, 0
2, 178030, Note_on_c, 0, 51, 0
2, 178032, Note_on_c, 0, 72, 0
2, 178035, Note_on_c, 0, 84, 0
2, 179111, Note_on_c, 0, 84, 71
2, 179136, Note_on_c, 0, 72, 53
2, 179157, Note_on_c, 0, 51, 49
2, 179159, Note_on_c, 0, 57, 51
2, 179164, Note_on_c, 0, 62, 45
2, 179331, Control_c, 0, 64, 127
2, 179479, Note_on_c, 0, 57, 0
2, 179520, Note_on_c, 0, 51, 0
2, 179583, Note_on_c, 0, 84, 0
2, 179627, Note_on_c, 0, 62, 0
2, 179877, Note_on_c, 0, 72, 0
2, 180213, Note_on_c, 0, 66, 36
2, 180293, Control_c, 0, 64, 0
2, 180345, Note_on_c, 0, 66, 0
2, 180466, Note_on_c, 0, 67, 53
2, 180468, Note_on_c, 0, 82, 77
2, 180474, Note_on_c, 0, 72, 68
2, 180480, Note_on_c, 0, 77, 71
2, 180771, Note_on_c, 0, 77, 0
2, 180789, Note_on_c, 0, 82, 0
2, 180798, Note_on_c, 0, 72, 0
2, 180814, Note_on_c, 0, 67, 0
2, 181109, Note_on_c, 0, 81, 38
2, 181128, Note_on_c, 0, 76, 35
2, 181144, Note_on_c, 0, 66, 44
2, 181192, Note_on_c, 0, 81, 0
2, 181255, Note_on_c, 0, 76, 0
2, 181365, Note_on_c, 0, 66, 0
2, 181376, Note_on_c, 0, 82, 76
2, 181392, Note_on_c, 0, 77, 70
2, 181405, Note_on_c, 0, 72, 59
2, 181407, Note_on_c, 0, 67, 63
2, 181612, Note_on_c, 0, 67, 0
2, 181624, Note_on_c, 0, 77, 0
2, 181649, Note_on_c, 0, 82, 0
2, 181710, Note_on_c, 0, 72, 0
2, 182319, Note_on_c, 0, 77, 42
2, 182325, Note_on_c, 0, 67, 36
2, 182350, Note_on_c, 0, 62, 42
2, 182363, Note_on_c, 0, 72, 51
2, 182632, Note_on_c, 0, 77, 0
2, 182655, Note_on_c, 0, 67, 0
2, 182655, Note_on_c, 0, 62, 0
2, 182657, Note_on_c, 0, 72, 0
2, 183242, Note_on_c, 0, 75, 55
2, 183264, Note_on_c, 0, 61, 42
2, 183285, Note_on_c, 0, 70, 42
2, 183294, Note_on_c, 0, 67, 33
2, 183655, Note_on_c, 0, 67, 0
2, 183672, Note_on_c, 0, 70, 0
2, 183765, Note_on_c, 0, 75, 0
2, 183928, Note_on_c, 0, 77, 54
2, 183932, Note_on_c, 0, 67, 54
2, 183945, Note_on_c, 0, 61, 0
2, 183947, Note_on_c, 0, 62, 54
2, 183964, Note_on_c, 0, 72, 43
2, 183980, Note_on_c, 0, 71, 40
2, 184014, Note_on_c, 0, 62, 0
2, 184014, Note_on_c, 0, 67, 0
2, 184018, Note_on_c, 0, 77, 0
2, 184045, Note_on_c, 0, 72, 0
2, 184062, Note_on_c, 0, 71, 0
2, 184896, Note_on_c, 0, 72, 58
2, 184901, Note_on_c, 0, 62, 66
2, 184930, Note_on_c, 0, 57, 45
2, 184932, Note_on_c, 0, 65, 66
2, 185825, Note_on_c, 0, 62, 0
2, 185894, Note_on_c, 0, 57, 0
2, 185896, Note_on_c, 0, 54, 34
2, 185913, Note_on_c, 0, 65, 0
2, 185969, Note_on_c, 0, 72, 0
2, 186111, Note_on_c, 0, 54, 0
2, 186147, Note_on_c, 0, 70, 55
2, 186167, Note_on_c, 0, 55, 44
2, 186174, Note_on_c, 0, 65, 39
2, 186178, Note_on_c, 0, 62, 39
2, 186501, Note_on_c, 0, 55, 0
2, 186574, Note_on_c, 0, 65, 0
2, 186595, Note_on_c, 0, 62, 0
2, 186600, Note_on_c, 0, 70, 0
2, 187098, Note_on_c, 0, 69, 51
2, 187117, Note_on_c, 0, 42, 33
2, 187119, Note_on_c, 0, 64, 64
2, 187121, Note_on_c, 0, 52, 29
2, 187221, Control_c, 0, 64, 127
2, 187507, Note_on_c, 0, 52, 0
2, 187524, Note_on_c, 0, 69, 0
2, 187624, Control_c, 0, 64, 0
2, 187632, Note_on_c, 0, 64, 0
2, 187660, Note_on_c, 0, 42, 0
2, 187868, Note_on_c, 0, 68, 30
2, 187872, Note_on_c, 0, 63, 42
2, 187912, Note_on_c, 0, 60, 25
2, 187973, Note_on_c, 0, 41, 47
2, 187985, Note_on_c, 0, 60, 0
2, 188029, Control_c, 0, 64, 127
2, 188062, Note_on_c, 0, 63, 0
2, 188096, Note_on_c, 0, 41, 0
2, 188115, Note_on_c, 0, 68, 0
2, 188736, Note_on_c, 0, 75, 67
2, 188757, Note_on_c, 0, 68, 63
2, 189010, Control_c, 0, 64, 0
2, 189012, Note_on_c, 0, 75, 0
2, 189020, Note_on_c, 0, 63, 35
2, 189127, Note_on_c, 0, 65, 37
2, 189129, Note_on_c, 0, 72, 53
2, 189216, Note_on_c, 0, 63, 0
2, 189490, Note_on_c, 0, 60, 18
2, 189659, Note_on_c, 0, 68, 0
2, 189734, Note_on_c, 0, 65, 0
2, 189811, Note_on_c, 0, 60, 0
2, 189980, Note_on_c, 0, 72, 0
2, 190032, Note_on_c, 0, 68, 50
2, 190051, Control_c, 0, 64, 127
2, 190068, Note_on_c, 0, 56, 40
2, 190072, Note_on_c, 0, 65, 44
2, 190250, Note_on_c, 0, 56, 0
2, 190260, Note_on_c, 0, 65, 0
2, 190293, Note_on_c, 0, 68, 0
2, 190878, Control_c, 0, 64, 0
2, 190974, Note_on_c, 0, 67, 50
2, 191001, Note_on_c, 0, 62, 44
2, 191015, Note_on_c, 0, 57, 33
2, 191028, Note_on_c, 0, 47, 27
2, 191470, Note_on_c, 0, 47, 0
2, 191592, Note_on_c, 0, 57, 0
2, 191616, Note_on_c, 0, 62, 0
2, 191616, Note_on_c, 0, 67, 0
2, 191767, Note_on_c, 0, 53, 17
2, 191867, Note_on_c, 0, 53, 0
2, 191917, Note_on_c, 0, 46, 49
2, 191940, Note_on_c, 0, 56, 50
2, 191952, Note_on_c, 0, 66, 45
2, 191973, Note_on_c, 0, 62, 44
2, 192092, Control_c, 0, 64, 127
2, 192192, Note_on_c, 0, 46, 0
2, 192345, Note_on_c, 0, 56, 0
2, 192518, Note_on_c, 0, 62, 0
2, 192648, Note_on_c, 0, 66, 0
2, 192888, Note_on_c, 0, 66, 59
2, 192892, Note_on_c, 0, 56, 46
2, 192915, Note_on_c, 0, 62, 49
2, 192956, Control_c, 0, 64, 0
2, 193109, Control_c, 0, 64, 127
2, 193336, Note_on_c, 0, 62, 0
2, 193438, Control_c, 0, 64, 0
2, 193451, Note_on_c, 0, 66, 0
2, 193584, Note_on_c, 0, 65, 68
2, 193597, Note_on_c, 0, 62, 51
2, 193676, Note_on_c, 0, 46, 40
2, 193802, Control_c, 0, 64, 127
2, 193956, Note_on_c, 0, 56, 0
2, 194206, Note_on_c, 0, 65, 0
2, 194213, Note_on_c, 0, 62, 0
2, 194244, Note_on_c, 0, 46, 0
2, 194528, Note_on_c, 0, 46, 30
2, 194545, Note_on_c, 0, 53, 31
2, 194630, Note_on_c, 0, 53, 0
2, 194645, Note_on_c, 0, 46, 0
2, 194728, Control_c, 0, 64, 0
2, 194785, Note_on_c, 0, 54, 67
2, 195248, Note_on_c, 0, 54, 0
2, 195469, Note_on_c, 0, 63, 48
2, 195482, Note_on_c, 0, 53, 43
2, 195492, Note_on_c, 0, 58, 42
2, 195615, Note_on_c, 0, 39, 33
2, 195628, Note_on_c, 0, 46, 28
2, 195953, Note_on_c, 0, 46, 0
2, 196141, Note_on_c, 0, 53, 0
2, 196421, Note_on_c, 0, 63, 0
2, 196464, Note_on_c, 0, 58, 0
2, 196548, Note_on_c, 0, 46, 50
2, 196592, Note_on_c, 0, 39, 0
2, 196640, Note_on_c, 0, 63, 35
2, 196680, Note_on_c, 0, 58, 50
2, 196698, Note_on_c, 0, 55, 40
2, 196801, Note_on_c, 0, 46, 0
2, 196903, Note_on_c, 0, 55, 0
2, 196945, Note_on_c, 0, 63, 0
2, 197034, Note_on_c, 0, 58, 0
2, 197377, Note_on_c, 0, 49, 13
2, 197637, Note_on_c, 0, 55, 39
2, 197688, Note_on_c, 0, 63, 52
2, 197698, Note_on_c, 0, 67, 55
2, 197700, Note_on_c, 0, 58, 52
2, 197702, Note_on_c, 0, 49, 0
2, 197710, Control_c, 0, 64, 127
2, 198145, Note_on_c, 0, 58, 0
2, 198172, Note_on_c, 0, 67, 0
2, 198282, Note_on_c, 0, 55, 0
2, 198531, Note_on_c, 0, 51, 31
2, 198606, Note_on_c, 0, 51, 0
2, 198702, Note_on_c, 0, 54, 49
2, 199503, Note_on_c, 0, 54, 0
2, 199557, Control_c, 0, 64, 0
2, 199645, Note_on_c, 0, 39, 55
2, 199994, Note_on_c, 0, 46, 33
2, 200062, Note_on_c, 0, 63, 0
2, 200104, Note_on_c, 0, 39, 0
2, 200277, Note_on_c, 0, 55, 28
2, 200365, Note_on_c, 0, 46, 0
2, 200480, Note_on_c, 0, 55, 0
2, 200590, Note_on_c, 0, 41, 41
2, 200924, Note_on_c, 0, 48, 40
2, 201108, Note_on_c, 0, 41, 0
2, 201164, Note_on_c, 0, 56, 59
2, 201306, Note_on_c, 0, 48, 0
2, 201406, Note_on_c, 0, 56, 0
2, 201502, Note_on_c, 0, 42, 42
2, 201864, Note_on_c, 0, 49, 34
2, 202012, Note_on_c, 0, 42, 0
2, 202095, Note_on_c, 0, 57, 71
2, 202185, Note_on_c, 0, 49, 0
2, 202331, Note_on_c, 0, 57, 0
2, 202896, Note_on_c, 0, 50, 44
2, 203120, Note_on_c, 0, 50, 0
2, 203139, Note_on_c, 0, 60, 51
2, 203143, Note_on_c, 0, 59, 44
2, 203220, Note_on_c, 0, 59, 0
2, 203274, Note_on_c, 0, 60, 0
2, 203366, Note_on_c, 0, 43, 71
2, 203733, Control_c, 0, 64, 127
2, 203840, Note_on_c, 0, 43, 0
2, 204311, Control_c, 0, 64, 0
2, 204345, Note_on_c, 0, 58, 63
2, 204349, Note_on_c, 0, 72, 72
2, 204353, Note_on_c, 0, 65, 88
2, 204380, Note_on_c, 0, 62, 34
2, 204443, Note_on_c, 0, 62, 0
2, 204468, Note_on_c, 0, 58, 0
2, 204885, Note_on_c, 0, 72, 0
2, 204887, Note_on_c, 0, 65, 0
2, 205032, Note_on_c, 0, 70, 36
2, 205213, Note_on_c, 0, 70, 0
2, 205305, Note_on_c, 0, 50, 53
2, 205324, Note_on_c, 0, 65, 54
2, 205328, Note_on_c, 0, 62, 60
2, 205361, Note_on_c, 0, 72, 50
2, 205560, Note_on_c, 0, 62, 0
2, 205689, Note_on_c, 0, 65, 0
2, 205697, Note_on_c, 0, 50, 0
2, 205850, Note_on_c, 0, 72, 0
2, 206008, Note_on_c, 0, 43, 24
2, 206190, Note_on_c, 0, 43, 0
2, 206265, Note_on_c, 0, 51, 57
2, 206607, Note_on_c, 0, 51, 0
2, 206985, Note_on_c, 0, 36, 40
2, 207144, Note_on_c, 0, 36, 0
2, 207302, Note_on_c, 0, 52, 33
2, 207369, Note_on_c, 0, 84, 77
2, 207379, Note_on_c, 0, 72, 67
2, 207381, Note_on_c, 0, 52, 0
2, 207907, Note_on_c, 0, 72, 0
2, 207947, Note_on_c, 0, 84, 0
2, 208254, Note_on_c, 0, 64, 36
2, 208291, Note_on_c, 0, 58, 34
2, 208302, Note_on_c, 0, 60, 33
2, 208339, Note_on_c, 0, 64, 0
2, 208379, Note_on_c, 0, 60, 0
2, 208398, Note_on_c, 0, 58, 0
2, 208955, Note_on_c, 0, 82, 51
2, 209116, Note_on_c, 0, 82, 0
2, 209187, Note_on_c, 0, 58, 39
2, 209228, Note_on_c, 0, 48, 30
2, 209230, Note_on_c, 0, 84, 78
2, 209235, Note_on_c, 0, 72, 67
2, 209364, Note_on_c, 0, 58, 0
2, 209366, Note_on_c, 0, 48, 0
2, 209735, Note_on_c, 0, 84, 0
2, 209794, Note_on_c, 0, 72, 0
2, 210134, Note_on_c, 0, 42, 47
2, 210161, Note_on_c, 0, 52, 39
2, 210330, Note_on_c, 0, 52, 0
2, 210564, Note_on_c, 0, 42, 0
2, 210850, Note_on_c, 0, 42, 56
2, 211086, Note_on_c, 0, 42, 0
2, 211119, Note_on_c, 0, 60, 80
2, 211146, Note_on_c, 0, 45, 70
2, 211875, Note_on_c, 0, 42, 38
2, 211887, Note_on_c, 0, 45, 0
2, 212048, Note_on_c, 0, 42, 0
2, 212094, Note_on_c, 0, 60, 0
2, 212110, Note_on_c, 0, 43, 39
2, 212125, Note_on_c, 0, 58, 53
2, 212778, Note_on_c, 0, 43, 0
2, 212818, Note_on_c, 0, 39, 37
2, 213014, Note_on_c, 0, 39, 0
2, 213048, Note_on_c, 0, 57, 60
2, 213054, Note_on_c, 0, 58, 0
2, 213066, Note_on_c, 0, 41, 40
2, 213703, Note_on_c, 0, 41, 0
2, 213744, Note_on_c, 0, 37, 29
2, 213964, Note_on_c, 0, 37, 0
2, 213987, Note_on_c, 0, 55, 54
2, 214028, Note_on_c, 0, 40, 35
2, 214099, Note_on_c, 0, 57, 0
2, 214696, Note_on_c, 0, 40, 0
2, 214709, Note_on_c, 0, 37, 40
2, 214809, Note_on_c, 0, 55, 0
2, 214917, Note_on_c, 0, 37, 0
2, 214959, Note_on_c, 0, 54, 60
2, 214976, Note_on_c, 0, 38, 64
2, 215531, Control_c, 0, 64, 127
2, 215581, Note_on_c, 0, 54, 0
2, 215665, Note_on_c, 0, 26, 76
2, 215838, Note_on_c, 0, 38, 0
2, 215844, Note_on_c, 0, 26, 0
2, 216819, Control_c, 0, 64, 0
2, 216946, Note_on_c, 0, 54, 83
2, 216948, Note_on_c, 0, 64, 89
2, 216956, Note_on_c, 0, 60, 74
2, 216958, Note_on_c, 0, 87, 88
2, 216961, Note_on_c, 0, 75, 97
2, 216973, Note_on_c, 0, 82, 60
2, 216992, Note_on_c, 0, 81, 84
2, 217034, Note_on_c, 0, 82, 0
2, 217057, Note_on_c, 0, 81, 0
2, 217102, Note_on_c, 0, 81, 31
2, 217434, Note_on_c, 0, 64, 0
2, 217455, Note_on_c, 0, 81, 0
2, 217512, Note_on_c, 0, 75, 0
2, 217528, Note_on_c, 0, 87, 0
2, 217591, Note_on_c, 0, 86, 72
2, 217608, Note_on_c, 0, 60, 0
2, 217622, Note_on_c, 0, 74, 69
2, 217624, Note_on_c, 0, 81, 56
2, 217628, Note_on_c, 0, 85, 55
2, 217693, Note_on_c, 0, 76, 31
2, 217697, Note_on_c, 0, 64, 60
2, 217754, Note_on_c, 0, 74, 0
2, 217758, Note_on_c, 0, 60, 29
2, 217776, Note_on_c, 0, 86, 0
2, 217783, Note_on_c, 0, 76, 0
2, 217802, Note_on_c, 0, 81, 0
2, 217841, Note_on_c, 0, 85, 0
2, 217887, Note_on_c, 0, 60, 0
2, 217902, Note_on_c, 0, 64, 0
2, 217921, Note_on_c, 0, 84, 59
2, 217937, Note_on_c, 0, 72, 60
2, 217952, Note_on_c, 0, 54, 0
2, 218628, Note_on_c, 0, 84, 0
2, 218674, Note_on_c, 0, 72, 0
2, 218866, Note_on_c, 0, 55, 36
2, 218876, Note_on_c, 0, 82, 43
2, 219181, Note_on_c, 0, 82, 0
2, 219816, Note_on_c, 0, 72, 31
2, 219822, Note_on_c, 0, 79, 37
2, 219828, Note_on_c, 0, 58, 33
2, 219834, Note_on_c, 0, 62, 28
2, 219968, Note_on_c, 0, 72, 0
2, 219987, Note_on_c, 0, 55, 0
2, 220369, Note_on_c, 0, 79, 0
2, 220498, Note_on_c, 0, 72, 33
2, 220654, Note_on_c, 0, 72, 0
2, 220725, Note_on_c, 0, 58, 0
2, 220765, Note_on_c, 0, 54, 57
2, 220780, Note_on_c, 0, 82, 62
2, 220798, Note_on_c, 0, 62, 0
2, 221120, Note_on_c, 0, 82, 0
2, 221738, Note_on_c, 0, 62, 32
2, 221750, Note_on_c, 0, 79, 40
2, 221775, Note_on_c, 0, 58, 30
2, 221886, Note_on_c, 0, 79, 0
2, 222418, Note_on_c, 0, 54, 0
2, 222735, Note_on_c, 0, 82, 73
2, 222739, Note_on_c, 0, 53, 44
2, 222743, Note_on_c, 0, 62, 0
2, 222936, Note_on_c, 0, 58, 0
2, 223121, Note_on_c, 0, 82, 0
2, 223242, Note_on_c, 0, 84, 48
2, 223395, Note_on_c, 0, 82, 57
2, 223478, Note_on_c, 0, 84, 0
2, 223630, Note_on_c, 0, 58, 32
2, 223681, Note_on_c, 0, 62, 17
2, 223708, Note_on_c, 0, 79, 28
2, 223733, Note_on_c, 0, 82, 0
2, 224079, Note_on_c, 0, 53, 0
2, 224087, Note_on_c, 0, 79, 0
2, 224340, Note_on_c, 0, 82, 77
2, 224448, Note_on_c, 0, 62, 0
2, 224453, Note_on_c, 0, 52, 40
2, 224461, Note_on_c, 0, 58, 0
2, 224951, Note_on_c, 0, 82, 0
2, 225016, Note_on_c, 0, 84, 44
2, 225194, Note_on_c, 0, 82, 55
2, 225258, Note_on_c, 0, 84, 0
2, 225419, Note_on_c, 0, 82, 0
2, 225536, Note_on_c, 0, 62, 38
2, 225553, Note_on_c, 0, 58, 25
2, 225619, Note_on_c, 0, 82, 74
2, 225943, Note_on_c, 0, 82, 0
2, 225970, Note_on_c, 0, 52, 0
2, 226160, Note_on_c, 0, 62, 0
2, 226195, Note_on_c, 0, 88, 72
2, 226214, Note_on_c, 0, 84, 79
2, 226339, Note_on_c, 0, 58, 0
2, 226440, Note_on_c, 0, 51, 31
2, 226598, Note_on_c, 0, 84, 0
2, 226721, Note_on_c, 0, 85, 42
2, 226846, Note_on_c, 0, 88, 0
2, 226944, Note_on_c, 0, 84, 37
2, 227089, Note_on_c, 0, 58, 30
2, 227124, Note_on_c, 0, 85, 0
2, 227164, Note_on_c, 0, 82, 52
2, 227230, Note_on_c, 0, 84, 0
2, 227328, Note_on_c, 0, 82, 0
2, 227339, Note_on_c, 0, 58, 0
2, 227379, Note_on_c, 0, 61, 38
2, 227485, Note_on_c, 0, 88, 80
2, 227489, Note_on_c, 0, 84, 79
2, 227823, Note_on_c, 0, 61, 0
2, 227869, Note_on_c, 0, 84, 0
2, 228036, Note_on_c, 0, 51, 0
2, 228159, Note_on_c, 0, 82, 28
2, 228178, Note_on_c, 0, 79, 43
2, 228207, Note_on_c, 0, 50, 52
2, 228303, Note_on_c, 0, 79, 0
2, 228357, Note_on_c, 0, 82, 0
2, 228385, Note_on_c, 0, 88, 0
2, 228622, Note_on_c, 0, 84, 77
2, 228702, Note_on_c, 0, 86, 32
2, 228819, Note_on_c, 0, 86, 0
2, 228938, Note_on_c, 0, 84, 0
2, 229071, Note_on_c, 0, 82, 71
2, 229153, Note_on_c, 0, 54, 40
2, 229207, Note_on_c, 0, 60, 34
2, 229328, Note_on_c, 0, 50, 0
2, 229384, Note_on_c, 0, 82, 0
2, 229455, Note_on_c, 0, 54, 0
2, 229511, Note_on_c, 0, 79, 25
2, 230010, Note_on_c, 0, 79, 0
2, 230046, Note_on_c, 0, 77, 45
2, 230194, Note_on_c, 0, 60, 0
2, 230198, Note_on_c, 0, 77, 0
2, 230273, Note_on_c, 0, 55, 36
2, 230350, Note_on_c, 0, 79, 60
2, 230814, Note_on_c, 0, 79, 0
2, 231265, Note_on_c, 0, 62, 56
2, 231281, Note_on_c, 0, 58, 51
2, 231336, Control_c, 0, 64, 127
2, 231348, Note_on_c, 0, 62, 0
2, 231486, Note_on_c, 0, 58, 0
2, 231569, Note_on_c, 0, 55, 0
2, 232181, Control_c, 0, 64, 0
2, 232254, Note_on_c, 0, 67, 72
2, 232270, Note_on_c, 0, 62, 69
2, 232934, Note_on_c, 0, 47, 91
2, 233930, Note_on_c, 0, 46, 36
2, 234126, Note_on_c, 0, 67, 0
2, 234140, Note_on_c, 0, 62, 0
2, 234161, Note_on_c, 0, 46, 0
2, 234165, Note_on_c, 0, 47, 0
2, 234236, Note_on_c, 0, 48, 71
2, 235104, Note_on_c, 0, 36, 69
2, 235196, Note_on_c, 0, 64, 96
2, 235198, Note_on_c, 0, 66, 82
2, 235200, Note_on_c, 0, 70, 80
2, 235207, Note_on_c, 0, 72, 68
2, 235265, Note_on_c, 0, 36, 0
2, 235296, Note_on_c, 0, 48, 0
2, 235566, Note_on_c, 0, 66, 0
2, 235580, Note_on_c, 0, 64, 0
2, 235614, Note_on_c, 0, 72, 0
2, 235689, Note_on_c, 0, 70, 0
2, 235893, Note_on_c, 0, 64, 64
2, 235900, Note_on_c, 0, 70, 39
2, 235914, Note_on_c, 0, 66, 52
2, 235916, Note_on_c, 0, 68, 45
2, 235921, Note_on_c, 0, 72, 39
2, 236115, Note_on_c, 0, 66, 0
2, 236121, Note_on_c, 0, 72, 0
2, 236138, Note_on_c, 0, 64, 0
2, 236140, Note_on_c, 0, 68, 0
2, 236231, Note_on_c, 0, 64, 16
2, 236254, Note_on_c, 0, 72, 17
2, 236269, Note_on_c, 0, 66, 29
2, 236273, Note_on_c, 0, 68, 31
2, 236672, Note_on_c, 0, 72, 0
2, 236684, Note_on_c, 0, 64, 0
2, 236695, Note_on_c, 0, 66, 0
2, 236716, Note_on_c, 0, 68, 0
2, 236747, Note_on_c, 0, 70, 0
2, 236872, Note_on_c, 0, 64, 44
2, 236880, Note_on_c, 0, 66, 47
2, 236895, Note_on_c, 0, 68, 36
2, 236901, Note_on_c, 0, 70, 43
2, 236916, Note_on_c, 0, 72, 36
2, 237004, Note_on_c, 0, 72, 0
2, 237029, Note_on_c, 0, 64, 0
2, 237058, Note_on_c, 0, 66, 0
2, 237073, Note_on_c, 0, 68, 0
2, 237131, Note_on_c, 0, 70, 0
2, 238076, Control_c, 0, 64, 127
2, 238087, Note_on_c, 0, 30, 53
2, 238095, Note_on_c, 0, 42, 48
2, 238239, Note_on_c, 0, 30, 0
2, 238289, Note_on_c, 0, 42, 0
2, 238980, Control_c, 0, 64, 0
2, 239076, Note_on_c, 0, 68, 56
2, 239091, Note_on_c, 0, 63, 55
2, 239109, Note_on_c, 0, 72, 40
2, 239128, Note_on_c, 0, 64, 35
2, 239134, Note_on_c, 0, 54, 29
2, 239149, Note_on_c, 0, 58, 36
2, 239247, Note_on_c, 0, 63, 0
2, 239314, Note_on_c, 0, 72, 0
2, 239425, Note_on_c, 0, 64, 0
2, 239475, Note_on_c, 0, 54, 0
2, 239506, Note_on_c, 0, 68, 0
2, 239516, Note_on_c, 0, 58, 0
2, 239662, Note_on_c, 0, 70, 52
2, 239665, Note_on_c, 0, 61, 53
2, 239706, Note_on_c, 0, 66, 42
2, 239806, Note_on_c, 0, 61, 0
2, 239867, Note_on_c, 0, 66, 0
2, 239880, Note_on_c, 0, 70, 0
2, 239998, Note_on_c, 0, 63, 60
2, 240000, Note_on_c, 0, 72, 59
2, 240021, Note_on_c, 0, 64, 51
2, 240024, Note_on_c, 0, 68, 50
2, 240044, Note_on_c, 0, 54, 29
2, 240078, Note_on_c, 0, 58, 35
2, 240380, Note_on_c, 0, 63, 0
2, 240393, Note_on_c, 0, 72, 0
2, 240395, Note_on_c, 0, 64, 0
2, 240428, Note_on_c, 0, 54, 0
2, 240439, Note_on_c, 0, 58, 0
2, 240535, Note_on_c, 0, 68, 0
2, 240650, Note_on_c, 0, 61, 64
2, 240656, Note_on_c, 0, 70, 60
2, 240677, Note_on_c, 0, 66, 53
2, 240679, Note_on_c, 0, 58, 37
2, 240696, Note_on_c, 0, 54, 29
2, 240735, Note_on_c, 0, 61, 0
2, 240743, Note_on_c, 0, 66, 0
2, 240777, Note_on_c, 0, 58, 0
2, 240781, Note_on_c, 0, 54, 0
2, 240867, Note_on_c, 0, 70, 0
2, 241551, Note_on_c, 0, 41, 58
2, 241555, Note_on_c, 0, 29, 56
2, 241655, Control_c, 0, 64, 127
2, 241739, Note_on_c, 0, 29, 0
2, 241810, Note_on_c, 0, 41, 0
2, 242014, Note_on_c, 0, 75, 77
2, 242016, Note_on_c, 0, 63, 84
2, 242019, Note_on_c, 0, 67, 82
2, 242027, Note_on_c, 0, 70, 74
2, 242060, Control_c, 0, 64, 0
2, 242254, Control_c, 0, 64, 127
2, 242480, Note_on_c, 0, 63, 0
2, 242526, Note_on_c, 0, 67, 0
2, 242551, Note_on_c, 0, 75, 0
2, 242561, Control_c, 0, 64, 0
2, 242574, Note_on_c, 0, 70, 0
2, 242929, Note_on_c, 0, 75, 85
2, 242937, Note_on_c, 0, 63, 93
2, 242943, Note_on_c, 0, 70, 80
2, 242945, Note_on_c, 0, 67, 85
2, 243294, Note_on_c, 0, 63, 0
2, 243371, Note_on_c, 0, 75, 0
2, 243379, Note_on_c, 0, 67, 0
2, 243419, Note_on_c, 0, 70, 0
2, 243528, Note_on_c, 0, 75, 62
2, 243534, Note_on_c, 0, 63, 73
2, 243546, Note_on_c, 0, 67, 67
2, 243548, Note_on_c, 0, 70, 53
2, 243601, Note_on_c, 0, 53, 72
2, 243717, Note_on_c, 0, 63, 0
2, 243790, Note_on_c, 0, 67, 0
2, 243792, Note_on_c, 0, 75, 0
2, 243801, Note_on_c, 0, 70, 0
2, 243855, Control_c, 0, 64, 127
2, 243911, Note_on_c, 0, 75, 57
2, 243924, Note_on_c, 0, 67, 67
2, 243926, Note_on_c, 0, 70, 58
2, 243934, Note_on_c, 0, 63, 53
2, 244206, Note_on_c, 0, 63, 0
2, 244268, Note_on_c, 0, 67, 0
2, 244272, Note_on_c, 0, 75, 0
2, 244335, Note_on_c, 0, 70, 0
2, 244414, Control_c, 0, 64, 0
2, 244462, Note_on_c, 0, 53, 0
2, 244494, Note_on_c, 0, 75, 63
2, 244506, Note_on_c, 0, 70, 56
2, 244513, Note_on_c, 0, 63, 70
2, 244525, Note_on_c, 0, 67, 71
2, 244561, Note_on_c, 0, 53, 43
2, 244615, Note_on_c, 0, 52, 37
2, 244640, Note_on_c, 0, 75, 0
2, 244656, Note_on_c, 0, 67, 0
2, 244688, Note_on_c, 0, 70, 0
2, 244692, Note_on_c, 0, 52, 0
2, 244700, Note_on_c, 0, 63, 0
2, 244721, Note_on_c, 0, 53, 0
2, 245420, Note_on_c, 0, 55, 94
2, 245422, Note_on_c, 0, 70, 90
2, 245424, Note_on_c, 0, 65, 94
2, 245427, Note_on_c, 0, 54, 83
2, 245437, Note_on_c, 0, 60, 91
2, 245550, Note_on_c, 0, 54, 0
2, 245577, Note_on_c, 0, 55, 0
2, 245808, Note_on_c, 0, 60, 0
2, 245852, Note_on_c, 0, 70, 0
2, 245854, Note_on_c, 0, 65, 0
2, 246355, Note_on_c, 0, 50, 103
2, 246357, Note_on_c, 0, 38, 91
2, 246397, Note_on_c, 0, 40, 43
2, 246472, Note_on_c, 0, 40, 0
2, 246512, Note_on_c, 0, 38, 72
2, 246683, Control_c, 0, 64, 127
2, 247098, Note_on_c, 0, 38, 0
2, 247190, Note_on_c, 0, 38, 0
2, 247201, Note_on_c, 0, 50, 0
2, 247626, Control_c, 0, 64, 0
2, 247701, Note_on_c, 0, 86, 76
2, 247708, Note_on_c, 0, 74, 88
2, 247718, Note_on_c, 0, 65, 71
2, 247724, Note_on_c, 0, 54, 64
2, 247731, Note_on_c, 0, 78, 62
2, 247733, Note_on_c, 0, 84, 65
2, 247745, Note_on_c, 0, 59, 30
2, 247754, Note_on_c, 0, 77, 105
2, 247758, Note_on_c, 0, 64, 64
2, 247777, Note_on_c, 0, 60, 33
2, 247795, Note_on_c, 0, 78, 0
2, 247797, Note_on_c, 0, 84, 0
2, 247822, Note_on_c, 0, 64, 0
2, 247835, Note_on_c, 0, 59, 0
2, 248138, Note_on_c, 0, 77, 0
2, 248148, Note_on_c, 0, 65, 0
2, 248154, Note_on_c, 0, 74, 0
2, 248177, Note_on_c, 0, 60, 0
2, 248223, Note_on_c, 0, 54, 0
2, 248225, Note_on_c, 0, 86, 0
2, 248651, Note_on_c, 0, 75, 85
2, 249081, Note_on_c, 0, 75, 0
2, 249317, Note_on_c, 0, 73, 53
2, 249532, Note_on_c, 0, 73, 0
2, 249588, Note_on_c, 0, 43, 43
2, 249630, Note_on_c, 0, 74, 66
2, 249711, Note_on_c, 0, 43, 0
2, 250085, Note_on_c, 0, 74, 0
2, 250588, Note_on_c, 0, 55, 40
2, 250590, Note_on_c, 0, 62, 44
2, 250608, Note_on_c, 0, 58, 38
2, 250654, Note_on_c, 0, 62, 0
2, 250738, Note_on_c, 0, 58, 0
2, 250788, Note_on_c, 0, 55, 0
2, 251544, Note_on_c, 0, 75, 85
2, 251612, Note_on_c, 0, 54, 74
2, 251625, Note_on_c, 0, 42, 52
2, 251688, Note_on_c, 0, 42, 0
2, 251735, Note_on_c, 0, 54, 0
2, 252170, Note_on_c, 0, 75, 0
2, 252197, Note_on_c, 0, 70, 37
2, 252397, Note_on_c, 0, 70, 0
2, 252497, Note_on_c, 0, 74, 77
2, 253102, Note_on_c, 0, 74, 0
2, 253416, Note_on_c, 0, 43, 33
2, 253424, Note_on_c, 0, 53, 48
2, 253436, Note_on_c, 0, 75, 83
2, 253497, Note_on_c, 0, 43, 0
2, 253608, Note_on_c, 0, 53, 0
2, 253958, Note_on_c, 0, 75, 0
2, 254117, Note_on_c, 0, 73, 27
2, 254294, Note_on_c, 0, 73, 0
2, 254346, Note_on_c, 0, 55, 44
2, 254365, Note_on_c, 0, 62, 39
2, 254376, Note_on_c, 0, 58, 46
2, 254384, Note_on_c, 0, 74, 73
2, 254434, Note_on_c, 0, 62, 0
2, 254544, Note_on_c, 0, 58, 0
2, 254553, Note_on_c, 0, 55, 0
2, 255096, Note_on_c, 0, 74, 0
2, 255294, Note_on_c, 0, 43, 35
2, 255313, Note_on_c, 0, 52, 46
2, 255317, Note_on_c, 0, 70, 71
2, 255373, Note_on_c, 0, 43, 0
2, 255473, Note_on_c, 0, 52, 0
2, 256020, Note_on_c, 0, 67, 71
2, 256235, Note_on_c, 0, 53, 36
2, 256423, Note_on_c, 0, 53, 0
2, 256938, Note_on_c, 0, 46, 35
2, 257082, Note_on_c, 0, 70, 0
2, 257134, Note_on_c, 0, 67, 0
2, 257264, Note_on_c, 0, 39, 67
2, 257268, Note_on_c, 0, 51, 67
2, 257278, Note_on_c, 0, 72, 69
2, 257281, Note_on_c, 0, 65, 87
2, 257347, Note_on_c, 0, 46, 0
2, 257462, Note_on_c, 0, 39, 0
2, 257493, Note_on_c, 0, 51, 0
2, 257644, Note_on_c, 0, 72, 0
2, 257788, Note_on_c, 0, 65, 0
2, 257911, Note_on_c, 0, 69, 65
2, 257921, Note_on_c, 0, 61, 69
2, 257927, Note_on_c, 0, 65, 34
2, 258009, Note_on_c, 0, 65, 0
2, 258015, Note_on_c, 0, 61, 0
2, 258115, Note_on_c, 0, 69, 0
2, 258247, Note_on_c, 0, 55, 62
2, 258276, Note_on_c, 0, 61, 53
2, 258278, Note_on_c, 0, 65, 60
2, 258301, Note_on_c, 0, 77, 90
2, 258312, Note_on_c, 0, 84, 90
2, 258343, Note_on_c, 0, 64, 34
2, 258416, Note_on_c, 0, 64, 0
2, 258526, Note_on_c, 0, 65, 0
2, 258647, Note_on_c, 0, 61, 0
2, 258664, Note_on_c, 0, 55, 0
2, 258718, Note_on_c, 0, 84, 0
2, 258735, Note_on_c, 0, 77, 0
2, 258854, Note_on_c, 0, 84, 65
2, 258867, Note_on_c, 0, 77, 66
2, 259017, Note_on_c, 0, 84, 0
2, 259052, Note_on_c, 0, 77, 0
2, 259176, Note_on_c, 0, 38, 59
2, 259238, Note_on_c, 0, 82, 51
2, 259251, Note_on_c, 0, 72, 41
2, 259253, Note_on_c, 0, 76, 47
2, 259317, Note_on_c, 0, 38, 0
2, 259754, Note_on_c, 0, 82, 0
2, 259766, Note_on_c, 0, 72, 0
2, 259783, Note_on_c, 0, 76, 0
2, 260104, Note_on_c, 0, 81, 70
2, 260131, Note_on_c, 0, 54, 57
2, 260146, Note_on_c, 0, 72, 52
2, 260173, Note_on_c, 0, 60, 39
2, 260246, Note_on_c, 0, 60, 0
2, 260338, Note_on_c, 0, 54, 0
2, 260643, Note_on_c, 0, 81, 0
2, 260678, Note_on_c, 0, 72, 0
2, 260835, Note_on_c, 0, 50, 38
2, 261043, Note_on_c, 0, 43, 43
2, 261054, Note_on_c, 0, 50, 0
2, 261072, Note_on_c, 0, 55, 60
2, 261137, Note_on_c, 0, 83, 74
2, 261141, Note_on_c, 0, 81, 74
2, 261143, Note_on_c, 0, 71, 81
2, 261158, Note_on_c, 0, 69, 51
2, 261196, Note_on_c, 0, 43, 0
2, 261229, Note_on_c, 0, 69, 0
2, 261281, Note_on_c, 0, 55, 0
2, 261381, Note_on_c, 0, 83, 0
2, 261436, Note_on_c, 0, 81, 0
2, 261504, Note_on_c, 0, 71, 0
2, 262041, Note_on_c, 0, 78, 75
2, 262060, Note_on_c, 0, 81, 76
2, 262066, Note_on_c, 0, 62, 58
2, 262076, Note_on_c, 0, 55, 44
2, 262078, Note_on_c, 0, 69, 79
2, 262093, Note_on_c, 0, 58, 55
2, 262095, Note_on_c, 0, 74, 69
2, 262344, Note_on_c, 0, 78, 0
2, 262508, Note_on_c, 0, 81, 0
2, 262519, Note_on_c, 0, 69, 0
2, 262529, Note_on_c, 0, 74, 0
2, 262617, Note_on_c, 0, 62, 0
2, 262646, Note_on_c, 0, 55, 0
2, 262763, Note_on_c, 0, 58, 0
2, 263016, Note_on_c, 0, 80, 79
2, 263038, Note_on_c, 0, 74, 85
2, 263038, Note_on_c, 0, 68, 81
2, 263111, Note_on_c, 0, 59, 46
2, 263116, Note_on_c, 0, 53, 48
2, 263272, Note_on_c, 0, 53, 0
2, 263339, Note_on_c, 0, 59, 0
2, 263424, Note_on_c, 0, 74, 0
2, 263485, Note_on_c, 0, 68, 0
2, 263537, Note_on_c, 0, 80, 0
2, 263683, Note_on_c, 0, 67, 76
2, 263692, Note_on_c, 0, 79, 64
2, 263696, Note_on_c, 0, 75, 60
2, 263727, Note_on_c, 0, 59, 36
2, 263744, Note_on_c, 0, 73, 36
2, 263748, Note_on_c, 0, 63, 63
2, 263775, Control_c, 0, 64, 127
2, 263783, Note_on_c, 0, 53, 46
2, 263811, Note_on_c, 0, 73, 0
2, 264013, Note_on_c, 0, 59, 0
2, 264017, Note_on_c, 0, 63, 0
2, 264090, Note_on_c, 0, 53, 0
2, 264433, Note_on_c, 0, 79, 0
2, 264510, Note_on_c, 0, 67, 0
2, 264612, Note_on_c, 0, 75, 0
2, 265011, Note_on_c, 0, 55, 52
2, 265017, Note_on_c, 0, 70, 80
2, 265021, Note_on_c, 0, 77, 71
2, 265025, Note_on_c, 0, 74, 69
2, 265027, Note_on_c, 0, 48, 75
2, 265029, Note_on_c, 0, 65, 84
2, 265034, Control_c, 0, 64, 0
2, 265674, Note_on_c, 0, 48, 0
2, 265751, Note_on_c, 0, 65, 0
2, 265781, Note_on_c, 0, 77, 0
2, 265785, Note_on_c, 0, 74, 0
2, 265866, Note_on_c, 0, 70, 0
2, 265977, Note_on_c, 0, 76, 46
2, 265979, Note_on_c, 0, 60, 54
2, 265983, Note_on_c, 0, 70, 70
2, 265996, Note_on_c, 0, 64, 66
2, 266073, Control_c, 0, 64, 127
2, 266227, Note_on_c, 0, 60, 0
2, 266411, Note_on_c, 0, 70, 0
2, 266424, Note_on_c, 0, 76, 0
2, 266565, Note_on_c, 0, 64, 0
2, 266843, Control_c, 0, 64, 0
2, 266910, Note_on_c, 0, 74, 64
2, 266926, Note_on_c, 0, 55, 0
2, 266943, Note_on_c, 0, 62, 48
2, 266945, Note_on_c, 0, 70, 49
2, 266951, Note_on_c, 0, 58, 39
2, 266952, Note_on_c, 0, 67, 51
2, 267133, Control_c, 0, 64, 127
2, 267331, Note_on_c, 0, 74, 0
2, 267525, Note_on_c, 0, 67, 0
2, 267527, Note_on_c, 0, 62, 0
2, 267598, Note_on_c, 0, 70, 0
2, 267671, Note_on_c, 0, 58, 0
2, 267832, Note_on_c, 0, 73, 48
2, 267857, Note_on_c, 0, 62, 37
2, 267868, Note_on_c, 0, 67, 53
2, 267888, Note_on_c, 0, 56, 31
2, 267974, Note_on_c, 0, 56, 0
2, 268074, Note_on_c, 0, 62, 0
2, 268189, Note_on_c, 0, 73, 0
2, 268289, Note_on_c, 0, 67, 0
2, 268748, Control_c, 0, 64, 0
2, 268784, Note_on_c, 0, 70, 1
2, 268809, Note_on_c, 0, 64, 56
2, 268823, Note_on_c, 0, 54, 36
2, 268828, Note_on_c, 0, 72, 51
2, 268834, Note_on_c, 0, 66, 40
2, 269018, Control_c, 0, 64, 127
2, 269020, Note_on_c, 0, 54, 0
2, 269266, Note_on_c, 0, 64, 0
2, 269328, Note_on_c, 0, 66, 0
2, 269402, Note_on_c, 0, 72, 0
2, 269514, Note_on_c, 0, 70, 0
2, 269594, Control_c, 0, 64, 0
2, 269725, Note_on_c, 0, 70, 44
2, 269748, Note_on_c, 0, 42, 33
2, 269773, Note_on_c, 0, 64, 42
2, 269784, Note_on_c, 0, 52, 33
2, 269798, Note_on_c, 0, 66, 53
2, 269827, Control_c, 0, 64, 127
2, 270044, Note_on_c, 0, 64, 0
2, 270097, Note_on_c, 0, 70, 0
2, 270099, Note_on_c, 0, 42, 0
2, 270107, Note_on_c, 0, 66, 0
2, 270140, Note_on_c, 0, 52, 0
2, 270635, Control_c, 0, 64, 0
2, 270733, Note_on_c, 0, 61, 36
2, 270737, Note_on_c, 0, 52, 36
2, 270752, Note_on_c, 0, 68, 37
2, 270769, Note_on_c, 0, 58, 30
2, 270791, Note_on_c, 0, 64, 40
2, 271357, Note_on_c, 0, 52, 0
2, 271405, Note_on_c, 0, 64, 0
2, 271430, Note_on_c, 0, 58, 0
2, 271430, Note_on_c, 0, 68, 0
2, 271474, Note_on_c, 0, 61, 0
2, 271664, Note_on_c, 0, 58, 47
2, 271676, Note_on_c, 0, 42, 35
2, 271681, Note_on_c, 0, 61, 25
2, 271693, Control_c, 0, 64, 127
2, 271712, Note_on_c, 0, 64, 17
2, 272025, Note_on_c, 0, 64, 0
2, 272106, Note_on_c, 0, 58, 0
2, 272186, Note_on_c, 0, 61, 0
2, 272430, Note_on_c, 0, 42, 0
2, 272557, Control_c, 0, 64, 0
2, 272655, Note_on_c, 0, 63, 50
2, 272666, Note_on_c, 0, 55, 37
2, 272676, Note_on_c, 0, 53, 35
2, 272678, Note_on_c, 0, 65, 48
2, 272684, Note_on_c, 0, 58, 47
2, 273073, Note_on_c, 0, 55, 0
2, 273089, Note_on_c, 0, 65, 0
2, 273129, Note_on_c, 0, 53, 0
2, 273139, Note_on_c, 0, 58, 0
2, 273285, Note_on_c, 0, 55, 31
2, 273287, Note_on_c, 0, 58, 32
2, 273288, Note_on_c, 0, 65, 34
2, 273321, Note_on_c, 0, 53, 44
2, 273461, Note_on_c, 0, 65, 0
2, 273480, Note_on_c, 0, 55, 0
2, 273525, Note_on_c, 0, 53, 0
2, 273544, Note_on_c, 0, 58, 0
2, 273655, Note_on_c, 0, 65, 38
2, 273661, Note_on_c, 0, 58, 21
2, 273676, Note_on_c, 0, 55, 20
2, 273705, Note_on_c, 0, 53, 16
2, 274076, Note_on_c, 0, 58, 0
2, 274083, Note_on_c, 0, 55, 0
2, 274093, Note_on_c, 0, 65, 0
2, 274137, Note_on_c, 0, 53, 0
2, 274225, Note_on_c, 0, 63, 0
2, 274604, Note_on_c, 0, 63, 33
2, 274606, Note_on_c, 0, 55, 32
2, 274611, Note_on_c, 0, 65, 43
2, 274615, Note_on_c, 0, 58, 47
2, 274632, Note_on_c, 0, 53, 29
2, 274907, Note_on_c, 0, 55, 0
2, 274968, Note_on_c, 0, 58, 0
2, 274980, Note_on_c, 0, 65, 0
2, 275011, Note_on_c, 0, 53, 0
2, 275026, Note_on_c, 0, 63, 0
2, 276128, Note_on_c, 0, 63, 42
2, 276134, Note_on_c, 0, 58, 51
2, 276172, Note_on_c, 0, 55, 33
2, 276190, Note_on_c, 0, 65, 36
2, 276205, Note_on_c, 0, 53, 41
2, 276311, Note_on_c, 0, 55, 0
2, 276345, Note_on_c, 0, 65, 0
2, 276355, Note_on_c, 0, 53, 0
2, 276424, Note_on_c, 0, 58, 0
2, 276468, Note_on_c, 0, 63, 0
2, 276547, Note_on_c, 0, 57, 50
2, 276576, Note_on_c, 0, 53, 35
2, 276577, Note_on_c, 0, 65, 35
2, 276593, Note_on_c, 0, 62, 46
2, 276597, Note_on_c, 0, 60, 50
2, 276988, Note_on_c, 0, 65, 0
2, 276996, Note_on_c, 0, 53, 0
2, 277031, Note_on_c, 0, 57, 0
2, 277036, Note_on_c, 0, 62, 0
2, 277044, Note_on_c, 0, 60, 0
2, 277188, Note_on_c, 0, 57, 54
2, 277213, Note_on_c, 0, 60, 54
2, 277215, Note_on_c, 0, 65, 28
2, 277236, Note_on_c, 0, 62, 51
2, 277269, Note_on_c, 0, 53, 38
2, 277280, Note_on_c, 0, 57, 0
2, 277301, Note_on_c, 0, 62, 0
2, 277319, Note_on_c, 0, 60, 0
2, 277320, Note_on_c, 0, 65, 0
2, 277363, Note_on_c, 0, 53, 0
2, 278096, Note_on_c, 0, 53, 52
2, 278106, Note_on_c, 0, 65, 46
2, 278108, Note_on_c, 0, 60, 60
2, 278133, Note_on_c, 0, 62, 49
2, 278188, Note_on_c, 0, 65, 0
2, 278196, Note_on_c, 0, 62, 0
2, 278240, Note_on_c, 0, 53, 0
2, 278263, Note_on_c, 0, 60, 0
2, 279037, Note_on_c, 0, 65, 76
2, 279041, Note_on_c, 0, 58, 70
2, 279048, Note_on_c, 0, 50, 68
2, 279052, Note_on_c, 0, 54, 74
2, 279054, Note_on_c, 0, 60, 65
2, 279068, Note_on_c, 0, 38, 46
2, 279096, Note_on_c, 0, 40, 45
2, 279108, Note_on_c, 0, 63, 31
2, 279175, Note_on_c, 0, 40, 0
2, 279793, Note_on_c, 0, 38, 0
2, 279941, Note_on_c, 0, 42, 37
2, 279989, Note_on_c, 0, 65, 0
2, 280014, Note_on_c, 0, 50, 0
2, 280045, Note_on_c, 0, 54, 0
2, 280087, Note_on_c, 0, 63, 0
2, 280141, Note_on_c, 0, 58, 0
2, 280170, Note_on_c, 0, 60, 0
2, 280179, Note_on_c, 0, 42, 0
2, 280264, Note_on_c, 0, 58, 34
2, 280268, Note_on_c, 0, 55, 55
2, 280283, Note_on_c, 0, 62, 64
2, 280289, Note_on_c, 0, 43, 47
2, 280440, Note_on_c, 0, 55, 0
2, 280531, Note_on_c, 0, 43, 0
2, 280584, Note_on_c, 0, 62, 0
2, 280646, Note_on_c, 0, 58, 0
2, 281247, Note_on_c, 0, 62, 71
2, 281256, Note_on_c, 0, 58, 64
2, 281266, Note_on_c, 0, 55, 60
2, 281658, Note_on_c, 0, 55, 0
2, 281702, Note_on_c, 0, 62, 0
2, 281740, Note_on_c, 0, 58, 0
2, 283136, Note_on_c, 0, 43, 48
2, 283138, Note_on_c, 0, 58, 90
2, 283144, Note_on_c, 0, 54, 69
2, 283150, Note_on_c, 0, 62, 84
2, 283626, Note_on_c, 0, 43, 0
2, 283647, Note_on_c, 0, 54, 0
2, 283681, Note_on_c, 0, 62, 0
2, 283697, Note_on_c, 0, 58, 0
2, 284770, Note_on_c, 0, 43, 74
2, 284776, Note_on_c, 0, 58, 91
2, 284785, Note_on_c, 0, 62, 87
2, 284793, Note_on_c, 0, 53, 74
2, 285135, Note_on_c, 0, 58, 0
2, 285141, Note_on_c, 0, 53, 0
2, 285146, Note_on_c, 0, 62, 0
2, 285269, Note_on_c, 0, 58, 55
2, 285275, Note_on_c, 0, 62, 56
2, 285281, Note_on_c, 0, 53, 62
2, 285671, Note_on_c, 0, 43, 0
2, 285680, Note_on_c, 0, 62, 0
2, 285690, Note_on_c, 0, 58, 0
2, 285703, Note_on_c, 0, 53, 0
2, 286185, Note_on_c, 0, 43, 71
2, 286187, Note_on_c, 0, 52, 76
2, 286189, Note_on_c, 0, 58, 91
2, 286202, Note_on_c, 0, 62, 85
2, 286629, Note_on_c, 0, 52, 0
2, 286656, Note_on_c, 0, 43, 0
2, 286694, Note_on_c, 0, 58, 0
2, 286696, Note_on_c, 0, 62, 0
2, 286819, Note_on_c, 0, 58, 67
2, 286828, Note_on_c, 0, 43, 36
2, 286834, Note_on_c, 0, 52, 67
2, 286836, Note_on_c, 0, 62, 72
2, 287013, Note_on_c, 0, 52, 0
2, 287078, Note_on_c, 0, 43, 0
2, 287112, Note_on_c, 0, 62, 0
2, 287130, Note_on_c, 0, 58, 0
2, 287740, Note_on_c, 0, 39, 78
2, 287771, Note_on_c, 0, 27, 82
2, 287936, Control_c, 0, 64, 127
2, 288011, Note_on_c, 0, 27, 0
2, 288015, Note_on_c, 0, 28, 43
2, 288096, Note_on_c, 0, 28, 0
2, 288230, Note_on_c, 0, 39, 0
2, 288936, Control_c, 0, 64, 0
2, 288958, Note_on_c, 0, 70, 81
2, 288961, Note_on_c, 0, 65, 87
2, 288971, Note_on_c, 0, 61, 86
2, 289011, Note_on_c, 0, 58, 77
2, 289307, Note_on_c, 0, 58, 0
2, 289376, Note_on_c, 0, 65, 0
2, 289409, Note_on_c, 0, 61, 0
2, 289505, Note_on_c, 0, 70, 0
2, 289916, Note_on_c, 0, 69, 67
2, 289935, Note_on_c, 0, 57, 61
2, 289937, Note_on_c, 0, 66, 61
2, 289939, Note_on_c, 0, 63, 56
2, 289950, Note_on_c, 0, 50, 47
2, 289952, Note_on_c, 0, 60, 53
2, 290121, Note_on_c, 0, 57, 0
2, 290163, Note_on_c, 0, 50, 0
2, 290340, Note_on_c, 0, 60, 0
2, 290355, Note_on_c, 0, 63, 0
2, 290375, Note_on_c, 0, 66, 0
2, 290432, Note_on_c, 0, 69, 0
2, 290868, Note_on_c, 0, 44, 37
2, 290870, Note_on_c, 0, 63, 42
2, 290878, Note_on_c, 0, 66, 47
2, 290889, Note_on_c, 0, 60, 36
2, 291098, Note_on_c, 0, 60, 0
2, 291179, Note_on_c, 0, 44, 0
2, 291404, Note_on_c, 0, 63, 0
2, 291463, Note_on_c, 0, 66, 0
2, 291803, Note_on_c, 0, 43, 32
2, 291820, Note_on_c, 0, 58, 48
2, 291824, Note_on_c, 0, 67, 53
2, 291849, Note_on_c, 0, 62, 54
2, 291863, Note_on_c, 0, 55, 26
2, 291866, Control_c, 0, 64, 127
2, 292043, Note_on_c, 0, 43, 0
2, 292051, Note_on_c, 0, 62, 0
2, 292055, Note_on_c, 0, 58, 0
2, 292099, Note_on_c, 0, 55, 0
2, 292131, Note_on_c, 0, 67, 0
2, 293445, Control_c, 0, 64, 0
2, 293458, Note_on_c, 0, 82, 83
2, 293464, Note_on_c, 0, 75, 77
2, 293466, Note_on_c, 0, 71, 77
2, 293481, Note_on_c, 0, 64, 74
2, 293489, Note_on_c, 0, 59, 58
2, 293496, Note_on_c, 0, 53, 63
2, 294234, Control_c, 0, 64, 127
2, 294460, Note_on_c, 0, 64, 0
2, 294551, Note_on_c, 0, 59, 0
2, 294662, Note_on_c, 0, 53, 0
2, 295269, Note_on_c, 0, 82, 0
2, 295340, Note_on_c, 0, 71, 0
2, 295384, Note_on_c, 0, 80, 51
2, 295416, Note_on_c, 0, 43, 36
2, 295455, Note_on_c, 0, 75, 0
2, 295555, Note_on_c, 0, 80, 0
2, 295560, Control_c, 0, 64, 0
2, 295639, Note_on_c, 0, 36, 56
2, 295704, Note_on_c, 0, 36, 0
2, 295708, Note_on_c, 0, 43, 0
2, 295724, Note_on_c, 0, 73, 58
2, 295729, Note_on_c, 0, 78, 62
2, 295741, Note_on_c, 0, 85, 60
2, 296183, Note_on_c, 0, 73, 0
2, 296213, Note_on_c, 0, 85, 0
2, 296252, Note_on_c, 0, 78, 0
2, 296332, Note_on_c, 0, 74, 40
2, 296340, Note_on_c, 0, 86, 56
2, 296376, Note_on_c, 0, 82, 28
2, 296419, Note_on_c, 0, 79, 38
2, 296503, Note_on_c, 0, 74, 0
2, 296515, Note_on_c, 0, 86, 0
2, 296595, Note_on_c, 0, 64, 45
2, 296603, Note_on_c, 0, 79, 0
2, 296626, Note_on_c, 0, 82, 0
2, 296676, Note_on_c, 0, 64, 0
2, 296678, Note_on_c, 0, 58, 18
2, 296682, Note_on_c, 0, 73, 38
2, 296716, Note_on_c, 0, 85, 32
2, 296757, Note_on_c, 0, 58, 0
2, 296801, Note_on_c, 0, 79, 14
2, 296864, Note_on_c, 0, 82, 13
2, 297066, Note_on_c, 0, 79, 0
2, 297112, Note_on_c, 0, 73, 0
2, 297116, Note_on_c, 0, 82, 0
2, 297171, Note_on_c, 0, 85, 0
2, 297221, Note_on_c, 0, 86, 62
2, 297329, Note_on_c, 0, 79, 28
2, 297348, Note_on_c, 0, 82, 18
2, 297396, Note_on_c, 0, 86, 0
2, 297490, Note_on_c, 0, 79, 0
2, 297576, Note_on_c, 0, 48, 19
2, 297648, Note_on_c, 0, 48, 0
2, 297905, Note_on_c, 0, 82, 0
2, 298513, Note_on_c, 0, 64, 41
2, 298552, Note_on_c, 0, 82, 51
2, 298556, Note_on_c, 0, 58, 34
2, 298581, Note_on_c, 0, 60, 36
2, 298584, Note_on_c, 0, 55, 24
2, 298604, Note_on_c, 0, 64, 0
2, 298657, Note_on_c, 0, 60, 0
2, 298717, Note_on_c, 0, 55, 0
2, 298736, Note_on_c, 0, 58, 0
2, 299091, Note_on_c, 0, 82, 0
2, 299508, Note_on_c, 0, 85, 74
2, 299523, Note_on_c, 0, 73, 52
2, 300072, Note_on_c, 0, 73, 0
2, 300176, Note_on_c, 0, 85, 0
2, 300403, Note_on_c, 0, 30, 59
2, 300616, Note_on_c, 0, 30, 0
2, 301382, Note_on_c, 0, 82, 57
2, 301397, Note_on_c, 0, 73, 45
2, 301422, Note_on_c, 0, 78, 49
2, 301424, Note_on_c, 0, 58, 51
2, 301603, Note_on_c, 0, 58, 0
2, 301791, Note_on_c, 0, 73, 0
2, 301818, Note_on_c, 0, 78, 0
2, 301918, Note_on_c, 0, 82, 0
2, 302332, Note_on_c, 0, 42, 65
2, 302336, Note_on_c, 0, 52, 67
2, 302858, Note_on_c, 0, 52, 0
2, 303018, Note_on_c, 0, 42, 0
2, 303047, Note_on_c, 0, 48, 39
2, 303141, Note_on_c, 0, 48, 0
2, 303313, Note_on_c, 0, 51, 67
2, 303317, Note_on_c, 0, 41, 62
2, 303333, Note_on_c, 0, 82, 80
2, 303336, Note_on_c, 0, 86, 87
2, 303338, Note_on_c, 0, 79, 84
2, 303340, Note_on_c, 0, 74, 95
2, 303459, Note_on_c, 0, 41, 0
2, 303565, Note_on_c, 0, 51, 0
2, 303864, Note_on_c, 0, 74, 0
2, 303897, Note_on_c, 0, 86, 0
2, 303966, Note_on_c, 0, 79, 0
2, 304066, Note_on_c, 0, 82, 0
2, 304258, Note_on_c, 0, 85, 72
2, 304266, Note_on_c, 0, 73, 64
2, 304285, Note_on_c, 0, 63, 47
2, 304287, Note_on_c, 0, 67, 44
2, 304289, Note_on_c, 0, 57, 48
2, 304293, Note_on_c, 0, 82, 55
2, 304295, Note_on_c, 0, 79, 60
2, 304456, Note_on_c, 0, 67, 0
2, 304696, Note_on_c, 0, 73, 0
2, 304702, Note_on_c, 0, 79, 0
2, 304752, Note_on_c, 0, 85, 0
2, 304788, Note_on_c, 0, 82, 0
2, 304828, Note_on_c, 0, 63, 0
2, 304859, Note_on_c, 0, 57, 0
2, 304922, Note_on_c, 0, 86, 38
2, 304957, Note_on_c, 0, 82, 49
2, 304974, Note_on_c, 0, 79, 42
2, 305030, Note_on_c, 0, 86, 0
2, 305128, Note_on_c, 0, 79, 0
2, 305157, Note_on_c, 0, 82, 0
2, 305314, Note_on_c, 0, 57, 45
2, 305326, Note_on_c, 0, 63, 42
2, 305366, Note_on_c, 0, 82, 23
2, 305372, Note_on_c, 0, 83, 20
2, 305383, Note_on_c, 0, 69, 24
2, 305385, Note_on_c, 0, 71, 22
2, 305479, Note_on_c, 0, 83, 0
2, 305508, Note_on_c, 0, 69, 0
2, 305541, Note_on_c, 0, 57, 0
2, 305566, Note_on_c, 0, 71, 0
2, 305592, Note_on_c, 0, 63, 0
2, 305829, Note_on_c, 0, 82, 0
2, 305907, Note_on_c, 0, 84, 66
2, 305930, Note_on_c, 0, 79, 61
2, 305936, Note_on_c, 0, 72, 52
2, 305955, Note_on_c, 0, 63, 61
2, 305959, Note_on_c, 0, 82, 29
2, 305963, Note_on_c, 0, 57, 62
2, 305984, Note_on_c, 0, 67, 47
2, 306009, Note_on_c, 0, 72, 0
2, 306032, Note_on_c, 0, 82, 0
2, 306057, Note_on_c, 0, 67, 0
2, 306082, Note_on_c, 0, 84, 0
2, 306084, Note_on_c, 0, 79, 0
2, 306115, Note_on_c, 0, 57, 0
2, 306126, Note_on_c, 0, 63, 0
2, 306823, Note_on_c, 0, 82, 74
2, 306833, Note_on_c, 0, 65, 74
2, 306846, Note_on_c, 0, 62, 71
2, 306848, Note_on_c, 0, 77, 80
2, 306856, Note_on_c, 0, 60, 60
2, 306862, Note_on_c, 0, 70, 77
2, 306994, Note_on_c, 0, 65, 0
2, 307031, Control_c, 0, 64, 127
2, 307069, Note_on_c, 0, 62, 0
2, 307094, Note_on_c, 0, 60, 0
2, 307182, Note_on_c, 0, 77, 0
2, 307198, Note_on_c, 0, 70, 0
2, 307198, Note_on_c, 0, 82, 0
2, 307795, Note_on_c, 0, 54, 35
2, 307983, Note_on_c, 0, 54, 0
2, 308071, Control_c, 0, 64, 0
2, 308096, Note_on_c, 0, 70, 78
2, 308110, Note_on_c, 0, 63, 83
2, 308112, Note_on_c, 0, 58, 83
2, 308113, Note_on_c, 0, 67, 75
2, 308129, Note_on_c, 0, 60, 80
2, 309129, Control_c, 0, 64, 127
2, 309584, Note_on_c, 0, 67, 0
2, 309626, Note_on_c, 0, 60, 0
2, 309703, Note_on_c, 0, 63, 0
2, 309792, Note_on_c, 0, 58, 0
2, 309815, Note_on_c, 0, 70, 0
2, 309826, Note_on_c, 0, 53, 19
2, 309861, Control_c, 0, 64, 0
2, 309893, Note_on_c, 0, 53, 0
2, 309970, Note_on_c, 0, 68, 56
2, 309972, Note_on_c, 0, 60, 57
2, 309974, Note_on_c, 0, 63, 59
2, 310053, Control_c, 0, 64, 127
2, 310174, Note_on_c, 0, 60, 0
2, 310473, Note_on_c, 0, 63, 0
2, 310642, Note_on_c, 0, 68, 0
2, 310657, Note_on_c, 0, 41, 35
2, 310742, Note_on_c, 0, 48, 25
2, 310901, Control_c, 0, 64, 0
2, 310974, Note_on_c, 0, 70, 53
2, 310982, Note_on_c, 0, 63, 58
2, 310988, Note_on_c, 0, 55, 27
2, 310999, Note_on_c, 0, 56, 54
2, 311370, Note_on_c, 0, 48, 0
2, 311416, Note_on_c, 0, 70, 0
2, 311422, Note_on_c, 0, 56, 0
2, 311424, Note_on_c, 0, 55, 0
2, 311443, Note_on_c, 0, 63, 0
2, 311493, Note_on_c, 0, 41, 0
2, 311856, Note_on_c, 0, 48, 19
2, 312001, Note_on_c, 0, 70, 42
2, 312005, Note_on_c, 0, 55, 36
2, 312017, Note_on_c, 0, 63, 49
2, 312038, Note_on_c, 0, 56, 39
2, 312391, Note_on_c, 0, 48, 0
2, 312414, Note_on_c, 0, 55, 0
2, 312478, Note_on_c, 0, 56, 0
2, 312485, Note_on_c, 0, 63, 0
2, 312506, Note_on_c, 0, 70, 0
2, 312591, Note_on_c, 0, 41, 42
2, 312887, Note_on_c, 0, 48, 20
2, 312956, Note_on_c, 0, 55, 45
2, 312963, Note_on_c, 0, 70, 28
2, 312973, Note_on_c, 0, 63, 37
2, 312984, Note_on_c, 0, 56, 30
2, 313109, Note_on_c, 0, 41, 0
2, 313259, Note_on_c, 0, 48, 0
2, 313305, Note_on_c, 0, 55, 0
2, 313372, Note_on_c, 0, 70, 0
2, 313378, Note_on_c, 0, 63, 0
2, 313388, Note_on_c, 0, 56, 0
2, 313591, Note_on_c, 0, 41, 40
2, 313868, Note_on_c, 0, 48, 18
2, 313875, Note_on_c, 0, 41, 0
2, 313910, Note_on_c, 0, 56, 38
2, 313927, Note_on_c, 0, 63, 46
2, 313956, Note_on_c, 0, 70, 20
2, 313971, Note_on_c, 0, 55, 39
2, 313979, Note_on_c, 0, 48, 0
2, 314102, Note_on_c, 0, 56, 0
2, 314277, Note_on_c, 0, 55, 0
2, 314426, Note_on_c, 0, 63, 0
2, 314505, Note_on_c, 0, 70, 0
2, 314593, Note_on_c, 0, 46, 62
2, 314864, Note_on_c, 0, 46, 0
2, 314908, Note_on_c, 0, 56, 25
2, 314937, Note_on_c, 0, 70, 30
2, 314972, Note_on_c, 0, 65, 42
2, 315000, Note_on_c, 0, 62, 29
2, 315020, Note_on_c, 0, 67, 29
2, 315239, Note_on_c, 0, 67, 0
2, 315288, Note_on_c, 0, 65, 0
2, 315321, Note_on_c, 0, 62, 0
2, 315375, Note_on_c, 0, 56, 0
2, 315404, Note_on_c, 0, 70, 0
2, 315550, Note_on_c, 0, 46, 55
2, 315799, Note_on_c, 0, 46, 0
2, 315870, Note_on_c, 0, 66, 49
2, 315874, Note_on_c, 0, 56, 37
2, 315899, Note_on_c, 0, 71, 33
2, 315932, Note_on_c, 0, 62, 17
2, 316099, Note_on_c, 0, 67, 35
2, 316344, Note_on_c, 0, 56, 0
2, 316344, Note_on_c, 0, 66, 0
2, 316387, Note_on_c, 0, 62, 0
2, 316389, Note_on_c, 0, 71, 0
2, 316473, Note_on_c, 0, 67, 0
2, 316483, Note_on_c, 0, 46, 48
2, 316702, Note_on_c, 0, 46, 0
2, 316801, Note_on_c, 0, 56, 40
2, 316819, Note_on_c, 0, 62, 33
2, 316846, Note_on_c, 0, 66, 43
2, 316857, Note_on_c, 0, 71, 18
2, 317218, Note_on_c, 0, 67, 43
2, 317224, Note_on_c, 0, 66, 0
2, 317312, Note_on_c, 0, 56, 0
2, 317331, Note_on_c, 0, 62, 0
2, 317404, Note_on_c, 0, 71, 0
2, 317433, Note_on_c, 0, 67, 0
2, 317443, Note_on_c, 0, 46, 51
2, 317704, Note_on_c, 0, 46, 0
2, 317727, Note_on_c, 0, 56, 43
2, 317754, Note_on_c, 0, 62, 39
2, 317758, Note_on_c, 0, 71, 33
2, 317784, Note_on_c, 0, 66, 47
2, 318071, Note_on_c, 0, 67, 37
2, 318115, Note_on_c, 0, 66, 0
2, 318230, Note_on_c, 0, 62, 0
2, 318251, Note_on_c, 0, 56, 0
2, 318297, Note_on_c, 0, 71, 0
2, 318349, Note_on_c, 0, 46, 35
2, 318508, Note_on_c, 0, 67, 0
2, 318602, Note_on_c, 0, 46, 0
2, 318641, Note_on_c, 0, 53, 24
2, 318723, Note_on_c, 0, 53, 0
2, 318737, Note_on_c, 0, 55, 40
2, 318771, Note_on_c, 0, 70, 23
2, 318848, Note_on_c, 0, 60, 9
2, 318904, Note_on_c, 0, 65, 13
2, 319196, Note_on_c, 0, 60, 0
2, 319221, Note_on_c, 0, 65, 0
2, 319226, Note_on_c, 0, 70, 0
2, 319249, Note_on_c, 0, 55, 0
2, 319411, Note_on_c, 0, 54, 39
2, 319649, Note_on_c, 0, 55, 52
2, 319658, Note_on_c, 0, 70, 48
2, 319674, Note_on_c, 0, 54, 0
2, 319681, Note_on_c, 0, 65, 49
2, 319724, Note_on_c, 0, 60, 28
2, 320088, Note_on_c, 0, 70, 0
2, 320173, Note_on_c, 0, 60, 0
2, 320213, Note_on_c, 0, 55, 0
2, 320219, Note_on_c, 0, 65, 0
2, 320328, Note_on_c, 0, 54, 38
2, 320643, Note_on_c, 0, 70, 60
2, 320664, Note_on_c, 0, 65, 62
2, 320668, Note_on_c, 0, 60, 48
2, 320670, Note_on_c, 0, 54, 0
2, 320678, Note_on_c, 0, 55, 44
2, 320714, Control_c, 0, 64, 127
2, 320960, Note_on_c, 0, 60, 0
2, 320993, Note_on_c, 0, 70, 0
2, 321022, Note_on_c, 0, 65, 0
2, 321192, Note_on_c, 0, 55, 0
2, 321313, Note_on_c, 0, 54, 38
2, 321381, Note_on_c, 0, 54, 0
2, 321484, Control_c, 0, 64, 0
2, 321573, Note_on_c, 0, 54, 73
2, 322295, Note_on_c, 0, 39, 61
2, 322408, Note_on_c, 0, 54, 0
2, 322592, Note_on_c, 0, 55, 60
2, 323333, Note_on_c, 0, 39, 0
2, 323356, Note_on_c, 0, 41, 38
2, 323385, Note_on_c, 0, 55, 0
2, 323525, Note_on_c, 0, 56, 64
2, 324349, Note_on_c, 0, 56, 0
2, 324397, Note_on_c, 0, 41, 0
2, 324432, Note_on_c, 0, 42, 49
2, 324481, Note_on_c, 0, 57, 59
2, 325080, Note_on_c, 0, 42, 0
2, 325092, Note_on_c, 0, 39, 37
2, 325221, Note_on_c, 0, 57, 0
2, 325409, Note_on_c, 0, 42, 38
2, 325455, Note_on_c, 0, 58, 39
2, 325480, Note_on_c, 0, 39, 0
2, 325989, Note_on_c, 0, 39, 40
2, 326065, Note_on_c, 0, 58, 0
2, 326200, Note_on_c, 0, 42, 0
2, 326298, Note_on_c, 0, 43, 43
2, 326309, Note_on_c, 0, 39, 0
2, 326327, Note_on_c, 0, 60, 54
2, 326430, Control_c, 0, 64, 127
2, 326503, Note_on_c, 0, 43, 0
2, 326592, Note_on_c, 0, 60, 0
2, 327239, Control_c, 0, 64, 0
2, 327317, Note_on_c, 0, 68, 55
2, 327319, Note_on_c, 0, 65, 64
2, 327321, Note_on_c, 0, 72, 67
2, 327325, Note_on_c, 0, 62, 75
2, 327369, Note_on_c, 0, 64, 32
2, 327436, Note_on_c, 0, 64, 0
2, 327563, Note_on_c, 0, 62, 0
2, 327578, Note_on_c, 0, 65, 0
2, 327607, Note_on_c, 0, 68, 0
2, 327667, Note_on_c, 0, 72, 0
2, 328283, Note_on_c, 0, 72, 54
2, 328300, Note_on_c, 0, 60, 36
2, 328310, Note_on_c, 0, 62, 47
2, 328318, Note_on_c, 0, 65, 59
2, 328705, Note_on_c, 0, 60, 0
2, 328771, Note_on_c, 0, 62, 0
2, 328811, Note_on_c, 0, 65, 0
2, 328920, Note_on_c, 0, 72, 0
2, 329241, Note_on_c, 0, 70, 64
2, 329245, Note_on_c, 0, 65, 71
2, 329270, Note_on_c, 0, 62, 64
2, 329272, Note_on_c, 0, 72, 50
2, 329310, Note_on_c, 0, 58, 25
2, 329395, Note_on_c, 0, 58, 0
2, 329635, Note_on_c, 0, 62, 0
2, 329748, Note_on_c, 0, 65, 0
2, 329825, Note_on_c, 0, 72, 0
2, 329827, Note_on_c, 0, 70, 0
2, 329890, Note_on_c, 0, 48, 58
2, 330034, Note_on_c, 0, 48, 0
2, 330259, Note_on_c, 0, 64, 59
2, 330268, Note_on_c, 0, 70, 55
2, 330270, Note_on_c, 0, 66, 51
2, 330274, Note_on_c, 0, 68, 45
2, 330276, Note_on_c, 0, 72, 45
2, 330286, Note_on_c, 0, 60, 55
2, 330656, Note_on_c, 0, 60, 0
2, 330731, Note_on_c, 0, 64, 0
2, 330754, Note_on_c, 0, 66, 0
2, 330764, Note_on_c, 0, 68, 0
2, 330771, Note_on_c, 0, 72, 0
2, 330844, Note_on_c, 0, 70, 0
2, 331207, Note_on_c, 0, 70, 62
2, 331224, Note_on_c, 0, 64, 71
2, 331230, Note_on_c, 0, 66, 51
2, 331232, Note_on_c, 0, 60, 60
2, 331238, Note_on_c, 0, 68, 51
2, 331253, Note_on_c, 0, 72, 42
2, 331658, Note_on_c, 0, 60, 0
2, 331670, Note_on_c, 0, 64, 0
2, 331697, Note_on_c, 0, 66, 0
2, 331703, Note_on_c, 0, 72, 0
2, 331716, Note_on_c, 0, 68, 0
2, 331741, Note_on_c, 0, 70, 0
2, 332167, Note_on_c, 0, 48, 82
2, 332601, Note_on_c, 0, 48, 0
2, 333127, Note_on_c, 0, 66, 75
2, 333135, Note_on_c, 0, 70, 61
2, 333143, Note_on_c, 0, 64, 81
2, 333144, Note_on_c, 0, 58, 51
2, 333146, Note_on_c, 0, 60, 39
2, 333148, Note_on_c, 0, 72, 58
2, 333150, Note_on_c, 0, 68, 50
2, 333240, Note_on_c, 0, 60, 0
2, 333340, Note_on_c, 0, 58, 0
2, 333463, Note_on_c, 0, 64, 0
2, 333571, Note_on_c, 0, 68, 0
2, 333703, Note_on_c, 0, 70, 0
2, 333713, Note_on_c, 0, 72, 0
2, 333715, Note_on_c, 0, 66, 0
2, 334120, Note_on_c, 0, 72, 57
2, 334131, Note_on_c, 0, 65, 74
2, 334139, Note_on_c, 0, 69, 62
2, 334141, Note_on_c, 0, 63, 62
2, 334498, Note_on_c, 0, 72, 0
2, 334525, Note_on_c, 0, 63, 0
2, 334533, Note_on_c, 0, 65, 0
2, 334588, Note_on_c, 0, 69, 0
2, 335022, Note_on_c, 0, 57, 78
2, 335560, Note_on_c, 0, 57, 0
2, 336003, Note_on_c, 0, 63, 74
2, 336007, Note_on_c, 0, 69, 68
2, 336009, Note_on_c, 0, 65, 71
2, 336286, Note_on_c, 0, 63, 0
2, 336397, Note_on_c, 0, 65, 0
2, 336468, Note_on_c, 0, 69, 0
2, 336894, Note_on_c, 0, 39, 77
2, 336900, Note_on_c, 0, 51, 77
2, 337428, Note_on_c, 0, 51, 0
2, 337495, Note_on_c, 0, 39, 0
2, 337898, Note_on_c, 0, 38, 71
2, 337900, Note_on_c, 0, 94, 87
2, 337904, Note_on_c, 0, 50, 77
2, 338081, Note_on_c, 0, 38, 0
2, 338177, Note_on_c, 0, 50, 0
2, 338357, Note_on_c, 0, 94, 0
2, 338534, Note_on_c, 0, 90, 78
2, 338787, Note_on_c, 0, 54, 35
2, 338860, Note_on_c, 0, 60, 34
2, 338928, Note_on_c, 0, 90, 0
2, 338974, Note_on_c, 0, 60, 0
2, 339050, Note_on_c, 0, 88, 60
2, 339066, Note_on_c, 0, 54, 0
2, 339356, Note_on_c, 0, 88, 0
2, 339500, Note_on_c, 0, 87, 74
2, 339753, Note_on_c, 0, 54, 34
2, 339784, Note_on_c, 0, 45, 33
2, 339807, Note_on_c, 0, 87, 0
2, 339943, Note_on_c, 0, 86, 59
2, 340089, Note_on_c, 0, 45, 0
2, 340202, Note_on_c, 0, 54, 0
2, 340273, Note_on_c, 0, 86, 0
2, 340410, Note_on_c, 0, 85, 79
2, 340755, Note_on_c, 0, 54, 33
2, 340773, Note_on_c, 0, 44, 36
2, 340824, Note_on_c, 0, 85, 0
2, 340834, Note_on_c, 0, 84, 51
2, 341207, Note_on_c, 0, 84, 0
2, 341274, Note_on_c, 0, 54, 0
2, 341303, Note_on_c, 0, 44, 0
2, 341385, Note_on_c, 0, 82, 67
2, 341710, Note_on_c, 0, 82, 0
2, 341817, Note_on_c, 0, 81, 60
2, 342186, Note_on_c, 0, 81, 0
2, 342368, Note_on_c, 0, 79, 52
2, 342622, Note_on_c, 0, 55, 33
2, 342625, Note_on_c, 0, 62, 35
2, 342635, Note_on_c, 0, 79, 0
2, 342658, Note_on_c, 0, 58, 40
2, 342693, Note_on_c, 0, 62, 0
2, 342808, Note_on_c, 0, 58, 0
2, 342823, Note_on_c, 0, 55, 0
2, 342984, Note_on_c, 0, 74, 66
2, 343351, Note_on_c, 0, 74, 0
2, 343418, Note_on_c, 0, 73, 64
2, 343549, Note_on_c, 0, 43, 34
2, 343633, Note_on_c, 0, 43, 0
2, 343701, Note_on_c, 0, 73, 0
2, 343960, Note_on_c, 0, 72, 45
2, 344588, Note_on_c, 0, 62, 53
2, 344592, Note_on_c, 0, 55, 43
2, 344607, Note_on_c, 0, 58, 49
2, 344653, Note_on_c, 0, 62, 0
2, 344716, Note_on_c, 0, 58, 0
2, 344741, Note_on_c, 0, 55, 0
2, 345300, Note_on_c, 0, 50, 37
2, 345329, Note_on_c, 0, 70, 53
2, 345404, Note_on_c, 0, 72, 0
2, 345415, Note_on_c, 0, 43, 33
2, 345429, Note_on_c, 0, 50, 0
2, 345477, Note_on_c, 0, 70, 0
2, 345586, Note_on_c, 0, 53, 42
2, 345642, Note_on_c, 0, 72, 69
2, 345851, Note_on_c, 0, 43, 0
2, 345889, Note_on_c, 0, 53, 0
2, 346369, Note_on_c, 0, 72, 0
2, 346504, Note_on_c, 0, 70, 76
2, 346903, Note_on_c, 0, 70, 0
2, 347243, Note_on_c, 0, 72, 89
2, 347324, Note_on_c, 0, 43, 44
2, 347360, Note_on_c, 0, 52, 43
2, 347437, Note_on_c, 0, 43, 0
2, 347493, Note_on_c, 0, 52, 0
2, 347692, Note_on_c, 0, 72, 0
2, 347725, Note_on_c, 0, 73, 32
2, 347988, Note_on_c, 0, 72, 49
2, 348044, Note_on_c, 0, 73, 0
2, 348295, Note_on_c, 0, 70, 56
2, 348301, Note_on_c, 0, 72, 0
2, 348336, Note_on_c, 0, 58, 50
2, 348445, Note_on_c, 0, 70, 0
2, 348478, Note_on_c, 0, 58, 0
2, 348581, Note_on_c, 0, 72, 77
2, 349059, Note_on_c, 0, 72, 0
2, 349063, Note_on_c, 0, 73, 46
2, 349223, Note_on_c, 0, 72, 55
2, 349322, Note_on_c, 0, 73, 0
2, 349355, Note_on_c, 0, 51, 51
2, 349401, Note_on_c, 0, 43, 38
2, 349493, Note_on_c, 0, 43, 0
2, 349509, Note_on_c, 0, 70, 51
2, 349597, Note_on_c, 0, 72, 0
2, 349630, Note_on_c, 0, 51, 0
2, 350307, Note_on_c, 0, 58, 72
2, 350488, Note_on_c, 0, 58, 0
2, 350983, Note_on_c, 0, 38, 84
2, 351143, Note_on_c, 0, 38, 0
2, 351469, Note_on_c, 0, 60, 73
2, 351492, Note_on_c, 0, 65, 67
2, 351530, Note_on_c, 0, 55, 51
2, 351772, Note_on_c, 0, 55, 0
2, 351797, Note_on_c, 0, 65, 0
2, 351897, Note_on_c, 0, 60, 0
2, 352177, Note_on_c, 0, 70, 0
2, 352266, Note_on_c, 0, 44, 64
2, 352273, Note_on_c, 0, 54, 58
2, 352965, Note_on_c, 0, 54, 0
2, 353061, Note_on_c, 0, 44, 0
2, 353185, Note_on_c, 0, 43, 42
2, 353216, Note_on_c, 0, 55, 51
2, 353239, Note_on_c, 0, 73, 57
2, 353268, Note_on_c, 0, 70, 69
2, 353272, Note_on_c, 0, 61, 79
2, 353546, Note_on_c, 0, 55, 0
2, 353708, Note_on_c, 0, 61, 0
2, 353738, Note_on_c, 0, 73, 0
2, 353800, Note_on_c, 0, 70, 0
2, 353865, Note_on_c, 0, 74, 66
2, 353888, Note_on_c, 0, 70, 33
2, 353892, Note_on_c, 0, 62, 52
2, 353944, Note_on_c, 0, 64, 40
2, 353952, Note_on_c, 0, 72, 36
2, 354026, Note_on_c, 0, 64, 0
2, 354069, Note_on_c, 0, 74, 0
2, 354071, Note_on_c, 0, 62, 0
2, 354130, Note_on_c, 0, 72, 0
2, 354140, Note_on_c, 0, 55, 42
2, 354153, Note_on_c, 0, 43, 0
2, 354184, Note_on_c, 0, 70, 0
2, 354263, Note_on_c, 0, 61, 60
2, 354276, Note_on_c, 0, 73, 32
2, 354282, Note_on_c, 0, 70, 26
2, 354591, Note_on_c, 0, 55, 0
2, 354666, Note_on_c, 0, 61, 0
2, 354700, Note_on_c, 0, 70, 0
2, 354748, Note_on_c, 0, 73, 0
2, 354802, Note_on_c, 0, 72, 62
2, 354806, Note_on_c, 0, 50, 36
2, 354833, Note_on_c, 0, 60, 54
2, 354854, Note_on_c, 0, 69, 62
2, 354898, Note_on_c, 0, 62, 27
2, 354925, Note_on_c, 0, 71, 29
2, 354961, Note_on_c, 0, 62, 0
2, 354994, Note_on_c, 0, 71, 0
2, 355021, Note_on_c, 0, 72, 0
2, 355056, Note_on_c, 0, 69, 0
2, 355075, Note_on_c, 0, 60, 0
2, 355153, Note_on_c, 0, 50, 0
2, 355176, Note_on_c, 0, 43, 36
2, 355211, Note_on_c, 0, 53, 35
2, 355265, Note_on_c, 0, 71, 44
2, 355282, Note_on_c, 0, 66, 46
2, 355284, Note_on_c, 0, 59, 52
2, 355480, Note_on_c, 0, 67, 52
2, 355655, Note_on_c, 0, 66, 0
2, 355827, Note_on_c, 0, 67, 0
2, 355885, Note_on_c, 0, 59, 0
2, 355991, Note_on_c, 0, 43, 0
2, 355992, Note_on_c, 0, 71, 0
2, 356035, Note_on_c, 0, 53, 0
2, 356077, Note_on_c, 0, 67, 50
2, 356096, Note_on_c, 0, 59, 48
2, 356100, Note_on_c, 0, 47, 47
2, 356424, Note_on_c, 0, 59, 0
2, 356770, Note_on_c, 0, 70, 60
2, 356787, Note_on_c, 0, 58, 61
2, 356793, Note_on_c, 0, 64, 69
2, 356841, Note_on_c, 0, 47, 0
2, 356870, Note_on_c, 0, 48, 62
2, 357717, Note_on_c, 0, 36, 81
2, 357905, Control_c, 0, 64, 127
2, 358066, Note_on_c, 0, 58, 0
2, 358183, Note_on_c, 0, 36, 0
2, 358341, Note_on_c, 0, 48, 0
2, 358506, Note_on_c, 0, 64, 0
2, 358546, Note_on_c, 0, 67, 0
2, 358558, Note_on_c, 0, 70, 0
2, 358965, Control_c, 0, 64, 0
2, 359013, Note_on_c, 0, 70, 60
2, 359041, Note_on_c, 0, 58, 80
2, 359043, Note_on_c, 0, 64, 77
2, 359059, Note_on_c, 0, 67, 64
2, 359898, Note_on_c, 0, 58, 0
2, 359944, Note_on_c, 0, 64, 0
2, 359950, Note_on_c, 0, 67, 0
2, 359990, Note_on_c, 0, 41, 91
2, 359994, Note_on_c, 0, 29, 83
2, 360013, Note_on_c, 0, 70, 0
2, 360466, Control_c, 0, 64, 127
2, 360468, Note_on_c, 0, 29, 0
2, 360572, Note_on_c, 0, 41, 0
2, 360954, Note_on_c, 0, 70, 77
2, 360965, Note_on_c, 0, 63, 87
2, 360967, Note_on_c, 0, 58, 95
2, 360979, Note_on_c, 0, 67, 76
2, 360984, Note_on_c, 0, 53, 89
2, 361063, Control_c, 0, 64, 0
2, 361075, Note_on_c, 0, 47, 31
2, 361100, Control_c, 0, 64, 127
2, 361153, Note_on_c, 0, 47, 0
2, 361405, Note_on_c, 0, 70, 0
2, 361428, Note_on_c, 0, 58, 0
2, 361474, Note_on_c, 0, 53, 0
2, 361474, Note_on_c, 0, 63, 0
2, 361520, Note_on_c, 0, 67, 0
2, 361589, Note_on_c, 0, 63, 74
2, 361607, Note_on_c, 0, 58, 78
2, 361614, Note_on_c, 0, 70, 57
2, 361616, Note_on_c, 0, 67, 54
2, 361628, Note_on_c, 0, 53, 81
2, 361656, Control_c, 0, 64, 0
2, 361783, Note_on_c, 0, 58, 0
2, 361824, Note_on_c, 0, 70, 0
2, 361829, Note_on_c, 0, 53, 0
2, 361837, Note_on_c, 0, 63, 0
2, 361923, Note_on_c, 0, 63, 65
2, 361931, Note_on_c, 0, 53, 69
2, 361933, Note_on_c, 0, 70, 48
2, 361935, Note_on_c, 0, 58, 62
2, 362396, Note_on_c, 0, 70, 0
2, 362409, Note_on_c, 0, 58, 0
2, 362436, Note_on_c, 0, 63, 0
2, 362448, Note_on_c, 0, 53, 0
2, 362476, Note_on_c, 0, 67, 0
2, 362889, Note_on_c, 0, 70, 72
2, 362895, Note_on_c, 0, 58, 91
2, 362897, Note_on_c, 0, 63, 83
2, 362901, Note_on_c, 0, 53, 87
2, 362906, Note_on_c, 0, 67, 74
2, 363290, Note_on_c, 0, 53, 0
2, 363304, Note_on_c, 0, 58, 0
2, 363312, Note_on_c, 0, 63, 0
2, 363327, Note_on_c, 0, 70, 0
2, 363354, Note_on_c, 0, 67, 0
2, 363855, Note_on_c, 0, 53, 88
2, 363870, Note_on_c, 0, 70, 71
2, 363872, Note_on_c, 0, 63, 84
2, 363874, Note_on_c, 0, 58, 93
2, 363882, Note_on_c, 0, 67, 74
2, 364287, Note_on_c, 0, 70, 0
2, 364304, Note_on_c, 0, 63, 0
2, 364308, Note_on_c, 0, 58, 0
2, 364323, Note_on_c, 0, 53, 0
2, 364375, Note_on_c, 0, 67, 0
2, 364886, Note_on_c, 0, 55, 99
2, 364896, Note_on_c, 0, 70, 91
2, 364899, Note_on_c, 0, 65, 92
2, 364905, Note_on_c, 0, 60, 91
2, 365472, Note_on_c, 0, 60, 0
2, 365527, Note_on_c, 0, 65, 0
2, 365556, Note_on_c, 0, 70, 0
2, 365573, Note_on_c, 0, 55, 0
2, 366453, Note_on_c, 0, 70, 91
2, 366458, Note_on_c, 0, 55, 91
2, 366460, Note_on_c, 0, 65, 95
2, 366466, Note_on_c, 0, 60, 94
2, 366837, Note_on_c, 0, 55, 0
2, 367009, Note_on_c, 0, 60, 0
2, 367044, Note_on_c, 0, 70, 0
2, 367073, Note_on_c, 0, 65, 0
2, 367800, Note_on_c, 0, 38, 85
2, 367802, Note_on_c, 0, 50, 88
2, 367804, Note_on_c, 0, 70, 87
2, 367822, Note_on_c, 0, 60, 92
2, 367824, Note_on_c, 0, 64, 90
2, 367829, Note_on_c, 0, 66, 71
2, 368315, Note_on_c, 0, 70, 0
2, 368328, Note_on_c, 0, 60, 0
2, 368353, Note_on_c, 0, 64, 0
2, 368375, Note_on_c, 0, 66, 0
2, 368467, Note_on_c, 0, 70, 61
2, 368484, Note_on_c, 0, 64, 84
2, 368486, Note_on_c, 0, 66, 73
2, 368496, Note_on_c, 0, 60, 74
2, 368714, Note_on_c, 0, 60, 0
2, 368755, Note_on_c, 0, 64, 0
2, 368759, Note_on_c, 0, 50, 0
2, 368784, Note_on_c, 0, 70, 0
2, 368801, Note_on_c, 0, 38, 0
2, 368807, Note_on_c, 0, 66, 0
2, 369390, Note_on_c, 0, 50, 96
2, 369394, Note_on_c, 0, 38, 92
2, 371322, Note_on_c, 0, 45, 65
2, 371393, Note_on_c, 0, 38, 0
2, 371498, Note_on_c, 0, 45, 0
2, 371518, Note_on_c, 0, 50, 0
2, 371571, Note_on_c, 0, 84, 85
2, 371579, Note_on_c, 0, 88, 80
2, 371758, Note_on_c, 0, 84, 0
2, 371907, Note_on_c, 0, 85, 37
2, 371976, Note_on_c, 0, 88, 0
2, 372051, Note_on_c, 0, 84, 46
2, 372216, Note_on_c, 0, 85, 0
2, 372309, Note_on_c, 0, 82, 52
2, 372324, Note_on_c, 0, 84, 0
2, 372445, Note_on_c, 0, 50, 43
2, 372451, Note_on_c, 0, 43, 30
2, 372456, Note_on_c, 0, 82, 0
2, 372549, Note_on_c, 0, 43, 0
2, 372566, Note_on_c, 0, 84, 74
2, 372568, Note_on_c, 0, 88, 75
2, 372572, Note_on_c, 0, 83, 75
2, 372635, Note_on_c, 0, 83, 0
2, 372641, Note_on_c, 0, 50, 0
2, 372961, Note_on_c, 0, 84, 0
2, 373052, Note_on_c, 0, 85, 37
2, 373094, Note_on_c, 0, 88, 0
2, 373167, Note_on_c, 0, 84, 36
2, 373311, Note_on_c, 0, 59, 32
2, 373317, Note_on_c, 0, 82, 62
2, 373382, Note_on_c, 0, 84, 0
2, 373390, Note_on_c, 0, 85, 0
2, 373401, Note_on_c, 0, 59, 0
2, 373463, Note_on_c, 0, 82, 0
2, 373520, Note_on_c, 0, 84, 74
2, 373534, Note_on_c, 0, 88, 74
2, 374135, Note_on_c, 0, 85, 63
2, 374138, Note_on_c, 0, 84, 0
2, 374209, Note_on_c, 0, 88, 0
2, 374280, Note_on_c, 0, 84, 46
2, 374403, Note_on_c, 0, 43, 44
2, 374423, Note_on_c, 0, 82, 46
2, 374424, Note_on_c, 0, 54, 57
2, 374426, Note_on_c, 0, 85, 0
2, 374446, Note_on_c, 0, 88, 33
2, 374486, Note_on_c, 0, 43, 0
2, 374497, Note_on_c, 0, 84, 0
2, 374622, Note_on_c, 0, 54, 0
2, 374782, Note_on_c, 0, 88, 0
2, 374989, Note_on_c, 0, 82, 0
2, 375346, Note_on_c, 0, 58, 63
2, 375640, Note_on_c, 0, 58, 0
2, 376024, Note_on_c, 0, 84, 87
2, 376024, Note_on_c, 0, 88, 83
2, 376028, Note_on_c, 0, 83, 88
2, 376195, Note_on_c, 0, 43, 38
2, 376199, Note_on_c, 0, 53, 48
2, 376318, Note_on_c, 0, 83, 0
2, 376410, Note_on_c, 0, 43, 0
2, 376529, Note_on_c, 0, 53, 0
2, 376533, Note_on_c, 0, 84, 0
2, 376609, Note_on_c, 0, 85, 40
2, 376682, Note_on_c, 0, 88, 0
2, 376836, Note_on_c, 0, 84, 47
2, 377026, Note_on_c, 0, 82, 53
2, 377066, Note_on_c, 0, 84, 0
2, 377082, Note_on_c, 0, 85, 0
2, 377191, Note_on_c, 0, 82, 0
2, 377235, Note_on_c, 0, 58, 36
2, 377295, Note_on_c, 0, 88, 83
2, 377297, Note_on_c, 0, 84, 88
2, 377356, Note_on_c, 0, 58, 0
2, 377594, Note_on_c, 0, 84, 0
2, 377696, Note_on_c, 0, 85, 51
2, 377758, Note_on_c, 0, 88, 0
2, 377856, Note_on_c, 0, 84, 41
2, 378024, Note_on_c, 0, 82, 56
2, 378032, Note_on_c, 0, 85, 0
2, 378059, Note_on_c, 0, 84, 0
2, 378149, Note_on_c, 0, 82, 0
2, 378174, Note_on_c, 0, 43, 45
2, 378184, Note_on_c, 0, 52, 55
2, 378232, Note_on_c, 0, 84, 80
2, 378238, Note_on_c, 0, 88, 77
2, 378249, Note_on_c, 0, 83, 58
2, 378312, Note_on_c, 0, 83, 0
2, 378324, Note_on_c, 0, 43, 0
2, 378397, Note_on_c, 0, 52, 0
2, 378583, Note_on_c, 0, 84, 0
2, 378606, Note_on_c, 0, 88, 0
2, 379146, Note_on_c, 0, 53, 69
2, 379155, Note_on_c, 0, 62, 60
2, 379161, Note_on_c, 0, 58, 69
2, 379299, Note_on_c, 0, 62, 0
2, 379407, Note_on_c, 0, 58, 0
2, 379424, Note_on_c, 0, 53, 0
2, 379808, Note_on_c, 0, 49, 39
2, 379996, Note_on_c, 0, 49, 0
2, 380121, Note_on_c, 0, 51, 71
2, 380144, Note_on_c, 0, 84, 88
2, 380148, Note_on_c, 0, 88, 83
2, 380154, Note_on_c, 0, 83, 92
2, 380181, Note_on_c, 0, 44, 29
2, 380184, Note_on_c, 0, 43, 41
2, 380279, Note_on_c, 0, 43, 0
2, 380344, Note_on_c, 0, 44, 0
2, 380405, Note_on_c, 0, 83, 0
2, 380411, Note_on_c, 0, 51, 0
2, 380488, Note_on_c, 0, 84, 0
2, 380536, Note_on_c, 0, 85, 55
2, 380563, Note_on_c, 0, 88, 0
2, 380772, Note_on_c, 0, 84, 52
2, 380860, Note_on_c, 0, 85, 0
2, 380887, Note_on_c, 0, 82, 62
2, 380945, Note_on_c, 0, 84, 0
2, 381025, Note_on_c, 0, 82, 0
2, 381106, Note_on_c, 0, 51, 83
2, 381125, Note_on_c, 0, 88, 80
2, 381129, Note_on_c, 0, 39, 77
2, 381131, Note_on_c, 0, 84, 80
2, 381356, Note_on_c, 0, 40, 58
2, 381657, Note_on_c, 0, 39, 0
2, 381709, Note_on_c, 0, 40, 0
2, 381801, Note_on_c, 0, 84, 0
2, 381807, Note_on_c, 0, 88, 0
2, 381889, Note_on_c, 0, 51, 0
2, 382089, Note_on_c, 0, 38, 76
2, 382091, Note_on_c, 0, 50, 74
2, 382394, Note_on_c, 0, 38, 0
2, 382494, Note_on_c, 0, 50, 0
2, 382796, Note_on_c, 0, 86, 81
2, 382803, Note_on_c, 0, 82, 81
2, 382805, Note_on_c, 0, 74, 90
2, 383001, Note_on_c, 0, 60, 53
2, 383038, Note_on_c, 0, 54, 34
2, 383064, Note_on_c, 0, 82, 0
2, 383066, Note_on_c, 0, 74, 0
2, 383109, Note_on_c, 0, 86, 0
2, 383136, Note_on_c, 0, 54, 0
2, 383191, Note_on_c, 0, 60, 0
2, 383326, Note_on_c, 0, 79, 73
2, 383700, Note_on_c, 0, 79, 0
2, 383784, Note_on_c, 0, 74, 75
2, 383984, Note_on_c, 0, 55, 44
2, 384015, Note_on_c, 0, 58, 35
2, 384021, Note_on_c, 0, 62, 28
2, 384063, Note_on_c, 0, 74, 0
2, 384084, Note_on_c, 0, 62, 0
2, 384113, Note_on_c, 0, 58, 0
2, 384211, Note_on_c, 0, 55, 0
2, 384295, Note_on_c, 0, 72, 60
2, 384297, Note_on_c, 0, 79, 64
2, 384474, Note_on_c, 0, 79, 0
2, 384526, Note_on_c, 0, 72, 0
2, 384727, Note_on_c, 0, 70, 77
2, 384823, Note_on_c, 0, 43, 44
2, 384971, Note_on_c, 0, 43, 0
2, 384994, Note_on_c, 0, 70, 0
2, 385109, Note_on_c, 0, 67, 50
2, 385470, Note_on_c, 0, 67, 0
2, 385641, Note_on_c, 0, 65, 75
2, 385704, Note_on_c, 0, 60, 49
2, 385708, Note_on_c, 0, 56, 43
2, 385756, Note_on_c, 0, 55, 30
2, 385772, Note_on_c, 0, 60, 0
2, 385776, Note_on_c, 0, 56, 0
2, 385824, Note_on_c, 0, 52, 20
2, 385847, Note_on_c, 0, 55, 0
2, 385906, Note_on_c, 0, 52, 0
2, 385966, Note_on_c, 0, 65, 0
2, 386110, Note_on_c, 0, 62, 46
2, 386254, Note_on_c, 0, 49, 26
2, 386401, Note_on_c, 0, 49, 0
2, 386424, Note_on_c, 0, 62, 0
2, 386557, Note_on_c, 0, 61, 69
2, 386628, Note_on_c, 0, 60, 66
2, 386649, Note_on_c, 0, 43, 42
2, 386655, Note_on_c, 0, 53, 64
2, 386820, Note_on_c, 0, 43, 0
2, 386828, Note_on_c, 0, 60, 0
2, 386856, Note_on_c, 0, 53, 0
2, 386952, Note_on_c, 0, 61, 0
2, 387006, Note_on_c, 0, 47, 55
2, 387037, Note_on_c, 0, 62, 66
2, 387409, Note_on_c, 0, 62, 0
2, 387542, Note_on_c, 0, 62, 79
2, 387544, Note_on_c, 0, 65, 73
2, 387544, Note_on_c, 0, 59, 71
2, 387609, Note_on_c, 0, 47, 0
2, 387619, Note_on_c, 0, 48, 77
2, 387745, Note_on_c, 0, 62, 0
2, 387816, Note_on_c, 0, 65, 0
2, 387830, Note_on_c, 0, 59, 0
2, 387972, Note_on_c, 0, 63, 59
2, 388632, Note_on_c, 0, 48, 0
2, 388665, Note_on_c, 0, 63, 0
2, 388700, Note_on_c, 0, 36, 56
2, 388769, Note_on_c, 0, 64, 71
2, 388796, Note_on_c, 0, 48, 45
2, 388807, Note_on_c, 0, 55, 41
2, 389239, Note_on_c, 0, 55, 0
2, 389301, Note_on_c, 0, 64, 0
2, 389379, Note_on_c, 0, 48, 0
2, 389433, Note_on_c, 0, 43, 35
2, 389644, Note_on_c, 0, 43, 0
2, 389735, Note_on_c, 0, 48, 55
2, 389746, Note_on_c, 0, 58, 65
2, 389769, Note_on_c, 0, 52, 58
2, 389953, Note_on_c, 0, 48, 0
2, 390063, Note_on_c, 0, 36, 0
2, 390282, Note_on_c, 0, 52, 0
2, 390504, Note_on_c, 0, 58, 0
2, 390662, Note_on_c, 0, 29, 78
2, 390668, Note_on_c, 0, 41, 83
2, 391140, Note_on_c, 0, 29, 0
2, 391215, Note_on_c, 0, 41, 0
2, 391626, Note_on_c, 0, 42, 71
2, 391632, Note_on_c, 0, 56, 71
2, 391633, Note_on_c, 0, 52, 71
2, 391637, Note_on_c, 0, 54, 67
2, 391683, Note_on_c, 0, 58, 35
2, 391906, Note_on_c, 0, 52, 0
2, 392012, Note_on_c, 0, 56, 0
2, 392014, Note_on_c, 0, 54, 0
2, 392075, Note_on_c, 0, 58, 0
2, 392567, Note_on_c, 0, 30, 45
2, 392592, Note_on_c, 0, 66, 79
2, 392595, Note_on_c, 0, 68, 69
2, 392599, Note_on_c, 0, 64, 90
2, 392613, Note_on_c, 0, 72, 63
2, 392693, Note_on_c, 0, 30, 0
2, 392774, Note_on_c, 0, 42, 0
2, 393187, Note_on_c, 0, 64, 0
2, 393252, Note_on_c, 0, 66, 0
2, 393281, Note_on_c, 0, 68, 0
2, 393310, Note_on_c, 0, 72, 0
2, 393592, Note_on_c, 0, 66, 80
2, 393598, Note_on_c, 0, 68, 65
2, 393603, Note_on_c, 0, 64, 90
2, 393605, Note_on_c, 0, 72, 66
2, 393653, Note_on_c, 0, 70, 36
2, 394429, Note_on_c, 0, 70, 0
2, 394458, Note_on_c, 0, 68, 0
2, 394563, Note_on_c, 0, 70, 64
2, 394596, Note_on_c, 0, 68, 51
2, 394598, Note_on_c, 0, 58, 48
2, 394705, Note_on_c, 0, 72, 0
2, 394813, Note_on_c, 0, 64, 0
2, 395045, Note_on_c, 0, 68, 0
2, 395408, Note_on_c, 0, 66, 0
2, 395460, Note_on_c, 0, 70, 0
2, 395464, Note_on_c, 0, 58, 0
2, 395502, Note_on_c, 0, 57, 49
2, 395504, Note_on_c, 0, 69, 55
2, 395535, Note_on_c, 0, 63, 33
2, 396013, Note_on_c, 0, 63, 0
2, 396057, Note_on_c, 0, 69, 0
2, 396126, Note_on_c, 0, 70, 38
2, 396163, Note_on_c, 0, 58, 54
2, 396168, Note_on_c, 0, 57, 0
2, 396180, Note_on_c, 0, 63, 42
2, 396326, Note_on_c, 0, 63, 0
2, 396393, Note_on_c, 0, 70, 0
2, 396455, Note_on_c, 0, 72, 54
2, 396466, Note_on_c, 0, 58, 0
2, 396483, Note_on_c, 0, 60, 51
2, 396487, Note_on_c, 0, 67, 58
2, 396495, Note_on_c, 0, 63, 30
2, 396698, Note_on_c, 0, 72, 0
2, 396768, Note_on_c, 0, 63, 0
2, 396935, Note_on_c, 0, 67, 0
2, 397146, Note_on_c, 0, 60, 0
2, 397219, Note_on_c, 0, 58, 23
2, 397349, Note_on_c, 0, 58, 0
2, 397403, Note_on_c, 0, 62, 46
2, 397411, Note_on_c, 0, 67, 47
2, 397418, Note_on_c, 0, 74, 47
2, 397438, Note_on_c, 0, 70, 43
2, 397630, Note_on_c, 0, 67, 0
2, 397656, Note_on_c, 0, 74, 0
2, 397741, Note_on_c, 0, 70, 0
2, 398054, Note_on_c, 0, 62, 0
2, 398062, Note_on_c, 0, 75, 50
2, 398096, Note_on_c, 0, 63, 46
2, 398135, Note_on_c, 0, 68, 25
2, 398161, Note_on_c, 0, 63, 0
2, 398211, Note_on_c, 0, 61, 30
2, 398215, Note_on_c, 0, 68, 0
2, 398263, Note_on_c, 0, 75, 0
2, 398282, Note_on_c, 0, 61, 0
2, 398382, Note_on_c, 0, 61, 57
2, 398384, Note_on_c, 0, 76, 60
2, 398736, Note_on_c, 0, 76, 0
2, 399302, Note_on_c, 0, 61, 0
2, 399325, Note_on_c, 0, 62, 49
2, 399338, Note_on_c, 0, 77, 37
2, 399340, Note_on_c, 0, 72, 44
2, 399381, Note_on_c, 0, 69, 22
2, 399384, Note_on_c, 0, 74, 39
2, 399730, Note_on_c, 0, 74, 0
2, 399757, Note_on_c, 0, 69, 0
2, 399778, Note_on_c, 0, 72, 0
2, 399784, Note_on_c, 0, 77, 0
2, 399943, Note_on_c, 0, 62, 0
2, 400035, Note_on_c, 0, 61, 39
2, 400310, Note_on_c, 0, 77, 53
2, 400318, Note_on_c, 0, 72, 40
2, 400327, Note_on_c, 0, 62, 48
2, 400329, Note_on_c, 0, 69, 42
2, 400346, Note_on_c, 0, 61, 0
2, 400392, Note_on_c, 0, 62, 0
2, 400517, Note_on_c, 0, 77, 0
2, 400586, Note_on_c, 0, 72, 0
2, 400613, Note_on_c, 0, 69, 0
2, 401994, Note_on_c, 0, 50, 78
2, 402046, Note_on_c, 0, 49, 42
2, 402149, Note_on_c, 0, 49, 0
2, 402796, Note_on_c, 0, 50, 0
2, 402867, Note_on_c, 0, 43, 66
2, 403059, Note_on_c, 0, 43, 0
2, 403666, Note_on_c, 0, 69, 72
2, 403873, Note_on_c, 0, 69, 0
2, 404073, Note_on_c, 0, 62, 56
2, 404081, Note_on_c, 0, 55, 45
2, 404100, Note_on_c, 0, 58, 40
2, 404138, Note_on_c, 0, 62, 0
2, 404223, Note_on_c, 0, 58, 0
2, 404263, Note_on_c, 0, 55, 0
2, 404267, Note_on_c, 0, 74, 85
2, 404634, Note_on_c, 0, 74, 0
2, 404862, Note_on_c, 0, 74, 76
2, 404991, Note_on_c, 0, 43, 60
2, 405166, Note_on_c, 0, 43, 0
2, 405191, Note_on_c, 0, 74, 0
2, 405406, Note_on_c, 0, 67, 64
2, 405680, Note_on_c, 0, 67, 0
2, 405968, Note_on_c, 0, 56, 48
2, 406051, Note_on_c, 0, 56, 0
2, 406076, Note_on_c, 0, 67, 75
2, 406464, Note_on_c, 0, 67, 0
2, 406811, Note_on_c, 0, 54, 79
2, 406821, Note_on_c, 0, 43, 64
2, 406832, Note_on_c, 0, 44, 35
2, 407095, Note_on_c, 0, 43, 0
2, 407109, Note_on_c, 0, 54, 0
2, 407122, Note_on_c, 0, 44, 0
2, 407685, Note_on_c, 0, 67, 67
2, 407698, Note_on_c, 0, 62, 55
2, 407821, Note_on_c, 0, 58, 57
2, 407856, Note_on_c, 0, 56, 42
2, 407877, Note_on_c, 0, 62, 0
2, 407938, Note_on_c, 0, 67, 0
2, 407940, Note_on_c, 0, 56, 0
2, 407969, Note_on_c, 0, 58, 0
2, 408059, Note_on_c, 0, 74, 65
2, 408122, Note_on_c, 0, 67, 26
2, 408326, Note_on_c, 0, 67, 0
2, 408380, Note_on_c, 0, 74, 0
2, 408616, Note_on_c, 0, 74, 69
2, 408664, Note_on_c, 0, 43, 60
2, 408681, Note_on_c, 0, 53, 68
2, 408825, Note_on_c, 0, 53, 0
2, 408906, Note_on_c, 0, 74, 0
2, 408944, Note_on_c, 0, 43, 0
2, 408975, Note_on_c, 0, 67, 51
2, 408992, Note_on_c, 0, 62, 51
2, 409430, Note_on_c, 0, 62, 0
2, 409489, Note_on_c, 0, 67, 0
2, 409562, Note_on_c, 0, 43, 61
2, 409858, Note_on_c, 0, 52, 66
2, 409864, Note_on_c, 0, 67, 61
2, 409881, Note_on_c, 0, 62, 51
2, 410256, Note_on_c, 0, 43, 0
2, 410269, Note_on_c, 0, 52, 0
2, 410290, Note_on_c, 0, 67, 0
2, 410340, Note_on_c, 0, 62, 0
2, 410595, Note_on_c, 0, 45, 32
2, 410689, Note_on_c, 0, 45, 0
2, 410776, Note_on_c, 0, 51, 59
2, 410803, Note_on_c, 0, 61, 61
2, 410812, Note_on_c, 0, 69, 60
2, 410826, Note_on_c, 0, 65, 64
2, 410968, Note_on_c, 0, 51, 0
2, 410993, Control_c, 0, 64, 127
2, 411008, Note_on_c, 0, 61, 0
2, 411079, Note_on_c, 0, 65, 0
2, 411154, Note_on_c, 0, 69, 0
2, 411744, Control_c, 0, 64, 0
2, 411784, Note_on_c, 0, 55, 79
2, 411797, Note_on_c, 0, 77, 80
2, 411803, Note_on_c, 0, 61, 72
2, 411807, Note_on_c, 0, 81, 74
2, 411809, Note_on_c, 0, 84, 77
2, 411811, Note_on_c, 0, 65, 79
2, 411818, Note_on_c, 0, 72, 76
2, 412070, Control_c, 0, 64, 127
2, 412197, Note_on_c, 0, 72, 0
2, 412237, Note_on_c, 0, 77, 0
2, 412256, Note_on_c, 0, 81, 0
2, 412321, Note_on_c, 0, 84, 0
2, 412440, Note_on_c, 0, 65, 0
2, 412464, Note_on_c, 0, 55, 0
2, 412682, Note_on_c, 0, 61, 0
2, 412763, Control_c, 0, 64, 0
2, 412801, Note_on_c, 0, 78, 79
2, 412803, Note_on_c, 0, 86, 69
2, 412805, Note_on_c, 0, 64, 80
2, 412809, Note_on_c, 0, 74, 82
2, 412811, Note_on_c, 0, 60, 74
2, 412813, Note_on_c, 0, 54, 83
2, 412826, Note_on_c, 0, 84, 75
2, 412848, Note_on_c, 0, 82, 51
2, 412911, Note_on_c, 0, 82, 0
2, 413153, Control_c, 0, 64, 127
2, 413220, Note_on_c, 0, 86, 0
2, 413255, Note_on_c, 0, 84, 0
2, 413278, Note_on_c, 0, 74, 0
2, 413322, Note_on_c, 0, 78, 0
2, 413481, Note_on_c, 0, 64, 0
2, 413510, Note_on_c, 0, 54, 0
2, 413539, Control_c, 0, 64, 0
2, 413544, Note_on_c, 0, 60, 0
2, 413765, Note_on_c, 0, 82, 54
2, 413767, Note_on_c, 0, 75, 64
2, 413777, Note_on_c, 0, 54, 62
2, 413784, Note_on_c, 0, 64, 59
2, 413792, Note_on_c, 0, 60, 46
2, 413798, Note_on_c, 0, 70, 47
2, 413846, Control_c, 0, 64, 127
2, 414124, Note_on_c, 0, 64, 0
2, 414147, Note_on_c, 0, 60, 0
2, 414165, Note_on_c, 0, 70, 0
2, 414190, Note_on_c, 0, 82, 0
2, 414274, Note_on_c, 0, 75, 0
2, 414312, Note_on_c, 0, 54, 0
2, 414556, Control_c, 0, 64, 0
2, 414668, Note_on_c, 0, 55, 42
2, 414683, Note_on_c, 0, 62, 49
2, 414691, Note_on_c, 0, 74, 46
2, 414702, Note_on_c, 0, 67, 41
2, 414708, Note_on_c, 0, 79, 40
2, 414731, Note_on_c, 0, 58, 37
2, 415215, Note_on_c, 0, 62, 0
2, 415217, Note_on_c, 0, 58, 0
2, 415265, Note_on_c, 0, 67, 0
2, 415267, Note_on_c, 0, 79, 0
2, 415274, Note_on_c, 0, 74, 0
2, 415296, Note_on_c, 0, 55, 0
2, 415655, Control_c, 0, 64, 127
2, 415656, Note_on_c, 0, 55, 45
2, 415660, Note_on_c, 0, 74, 58
2, 415668, Note_on_c, 0, 62, 51
2, 415670, Note_on_c, 0, 67, 56
2, 415672, Note_on_c, 0, 58, 56
2, 415681, Note_on_c, 0, 79, 38
2, 415962, Note_on_c, 0, 74, 0
2, 415966, Note_on_c, 0, 79, 0
2, 416056, Note_on_c, 0, 55, 0
2, 416077, Note_on_c, 0, 62, 0
2, 416096, Note_on_c, 0, 67, 0
2, 416179, Note_on_c, 0, 58, 0
2, 416488, Control_c, 0, 64, 0
2, 416613, Note_on_c, 0, 63, 69
2, 416615, Note_on_c, 0, 75, 62
2, 416630, Note_on_c, 0, 68, 62
2, 416647, Note_on_c, 0, 65, 63
2, 416663, Note_on_c, 0, 71, 52
2, 416688, Note_on_c, 0, 73, 25
2, 416833, Control_c, 0, 64, 127
2, 416914, Note_on_c, 0, 63, 0
2, 416966, Note_on_c, 0, 71, 0
2, 416972, Note_on_c, 0, 75, 0
2, 416985, Note_on_c, 0, 73, 0
2, 417025, Note_on_c, 0, 68, 0
2, 417085, Note_on_c, 0, 65, 0
2, 417431, Control_c, 0, 64, 0
2, 417584, Note_on_c, 0, 70, 49
2, 417607, Note_on_c, 0, 63, 51
2, 417628, Note_on_c, 0, 49, 33
2, 417632, Note_on_c, 0, 56, 36
2, 417634, Note_on_c, 0, 59, 27
2, 417638, Note_on_c, 0, 67, 47
2, 417701, Control_c, 0, 64, 127
2, 417897, Note_on_c, 0, 67, 0
2, 418070, Note_on_c, 0, 70, 0
2, 418093, Note_on_c, 0, 56, 0
2, 418114, Note_on_c, 0, 59, 0
2, 418195, Note_on_c, 0, 49, 0
2, 418285, Note_on_c, 0, 63, 0
2, 418527, Control_c, 0, 64, 0
2, 418598, Note_on_c, 0, 58, 72
2, 418615, Note_on_c, 0, 67, 66
2, 418632, Note_on_c, 0, 64, 68
2, 419247, Note_on_c, 0, 36, 64
2, 419249, Note_on_c, 0, 48, 68
2, 419335, Control_c, 0, 64, 127
2, 419591, Note_on_c, 0, 58, 0
2, 420015, Note_on_c, 0, 67, 0
2, 420105, Note_on_c, 0, 64, 0
2, 420107, Note_on_c, 0, 36, 0
2, 420157, Note_on_c, 0, 48, 0
2, 420504, Note_on_c, 0, 36, 54
2, 420533, Note_on_c, 0, 48, 56
2, 420604, Note_on_c, 0, 36, 0
2, 420689, Note_on_c, 0, 48, 0
2, 422357, Control_c, 0, 64, 0
2, 422417, Note_on_c, 0, 68, 57
2, 422419, Note_on_c, 0, 75, 52
2, 422430, Note_on_c, 0, 64, 47
2, 422436, Note_on_c, 0, 54, 46
2, 422444, Note_on_c, 0, 72, 55
2, 422507, Note_on_c, 0, 58, 37
2, 422664, Note_on_c, 0, 68, 0
2, 422755, Note_on_c, 0, 75, 0
2, 422851, Note_on_c, 0, 64, 0
2, 422862, Note_on_c, 0, 54, 0
2, 422883, Note_on_c, 0, 72, 0
2, 422924, Note_on_c, 0, 58, 0
2, 423024, Note_on_c, 0, 73, 30
2, 423073, Note_on_c, 0, 66, 25
2, 423108, Note_on_c, 0, 70, 39
2, 423139, Note_on_c, 0, 64, 36
2, 423144, Note_on_c, 0, 58, 33
2, 423148, Note_on_c, 0, 66, 0
2, 423196, Note_on_c, 0, 70, 0
2, 423227, Note_on_c, 0, 64, 0
2, 423264, Note_on_c, 0, 73, 0
2, 423292, Note_on_c, 0, 58, 0
2, 423342, Note_on_c, 0, 75, 56
2, 423356, Note_on_c, 0, 68, 49
2, 423377, Note_on_c, 0, 64, 57
2, 423379, Note_on_c, 0, 54, 25
2, 423388, Note_on_c, 0, 72, 57
2, 423429, Note_on_c, 0, 58, 15
2, 423732, Note_on_c, 0, 68, 0
2, 423805, Note_on_c, 0, 75, 0
2, 423836, Note_on_c, 0, 54, 0
2, 423849, Note_on_c, 0, 64, 0
2, 423912, Note_on_c, 0, 58, 0
2, 423914, Note_on_c, 0, 72, 0
2, 424037, Note_on_c, 0, 73, 39
2, 424053, Note_on_c, 0, 64, 49
2, 424056, Note_on_c, 0, 66, 42
2, 424074, Note_on_c, 0, 70, 50
2, 424093, Note_on_c, 0, 58, 34
2, 424116, Note_on_c, 0, 54, 21
2, 424151, Note_on_c, 0, 66, 0
2, 424202, Note_on_c, 0, 70, 0
2, 424231, Note_on_c, 0, 64, 0
2, 424237, Note_on_c, 0, 54, 0
2, 424283, Note_on_c, 0, 73, 0
2, 424295, Note_on_c, 0, 58, 0
2, 425001, Note_on_c, 0, 68, 62
2, 425003, Note_on_c, 0, 75, 59
2, 425041, Note_on_c, 0, 72, 43
2, 425043, Note_on_c, 0, 64, 62
2, 425045, Note_on_c, 0, 54, 53
2, 425072, Note_on_c, 0, 58, 37
2, 425139, Note_on_c, 0, 64, 0
2, 425145, Note_on_c, 0, 68, 0
2, 425187, Note_on_c, 0, 72, 0
2, 425197, Note_on_c, 0, 58, 0
2, 425220, Note_on_c, 0, 54, 0
2, 425224, Note_on_c, 0, 75, 0
2, 427253, Note_on_c, 0, 73, 80
2, 427255, Note_on_c, 0, 80, 83
2, 427276, Note_on_c, 0, 63, 74
2, 427276, Note_on_c, 0, 77, 71
2, 427303, Note_on_c, 0, 53, 60
2, 427474, Control_c, 0, 64, 127
2, 427668, Note_on_c, 0, 73, 0
2, 427695, Note_on_c, 0, 77, 0
2, 427726, Note_on_c, 0, 63, 0
2, 427739, Note_on_c, 0, 80, 0
2, 427864, Note_on_c, 0, 71, 57
2, 427881, Note_on_c, 0, 78, 57
2, 427889, Note_on_c, 0, 75, 61
2, 427912, Note_on_c, 0, 58, 53
2, 427956, Control_c, 0, 64, 0
2, 428104, Note_on_c, 0, 71, 0
2, 428223, Note_on_c, 0, 78, 0
2, 428227, Note_on_c, 0, 75, 0
2, 428545, Note_on_c, 0, 63, 58
2, 428547, Note_on_c, 0, 73, 60
2, 428551, Note_on_c, 0, 68, 59
2, 428616, Note_on_c, 0, 58, 0
2, 428818, Note_on_c, 0, 68, 0
2, 428904, Note_on_c, 0, 53, 0
2, 428947, Note_on_c, 0, 73, 0
2, 428983, Note_on_c, 0, 63, 0
2, 429112, Control_c, 0, 64, 127
2, 429144, Note_on_c, 0, 58, 58
2, 429214, Note_on_c, 0, 65, 30
2, 429369, Note_on_c, 0, 65, 0
2, 429555, Note_on_c, 0, 58, 0
2, 429690, Control_c, 0, 64, 0
2, 429757, Note_on_c, 0, 66, 58
2, 429774, Note_on_c, 0, 62, 64
2, 429790, Note_on_c, 0, 58, 76
2, 429803, Note_on_c, 0, 70, 43
2, 429824, Note_on_c, 0, 66, 0
2, 429838, Note_on_c, 0, 62, 0
2, 429866, Note_on_c, 0, 70, 0
2, 429912, Note_on_c, 0, 58, 0
2, 430220, Note_on_c, 0, 51, 25
2, 430456, Note_on_c, 0, 51, 0
2, 430646, Note_on_c, 0, 55, 71
2, 430652, Note_on_c, 0, 54, 56
2, 430665, Note_on_c, 0, 70, 63
2, 430669, Note_on_c, 0, 65, 60
2, 430682, Note_on_c, 0, 60, 65
2, 430759, Note_on_c, 0, 54, 0
2, 431247, Control_c, 0, 64, 127
2, 431658, Note_on_c, 0, 60, 0
2, 431786, Control_c, 0, 64, 0
2, 431802, Note_on_c, 0, 65, 0
2, 431813, Note_on_c, 0, 70, 0
2, 431909, Note_on_c, 0, 54, 49
2, 431911, Note_on_c, 0, 55, 0
2, 431961, Note_on_c, 0, 60, 55
2, 431990, Note_on_c, 0, 69, 43
2, 431998, Note_on_c, 0, 65, 40
2, 432048, Note_on_c, 0, 54, 0
2, 432096, Control_c, 0, 64, 127
2, 432382, Note_on_c, 0, 60, 0
2, 432401, Note_on_c, 0, 65, 0
2, 432520, Note_on_c, 0, 69, 0
2, 432610, Note_on_c, 0, 70, 55
2, 432654, Control_c, 0, 64, 0
2, 432656, Note_on_c, 0, 65, 51
2, 432664, Note_on_c, 0, 60, 45
2, 432725, Note_on_c, 0, 65, 0
2, 432746, Note_on_c, 0, 60, 0
2, 432754, Note_on_c, 0, 70, 0
2, 432814, Note_on_c, 0, 52, 46
2, 432823, Note_on_c, 0, 42, 37
2, 432942, Control_c, 0, 64, 127
2, 433503, Note_on_c, 0, 52, 0
2, 433576, Note_on_c, 0, 48, 53
2, 433608, Note_on_c, 0, 42, 0
2, 433797, Note_on_c, 0, 48, 0
2, 433831, Note_on_c, 0, 41, 49
2, 433885, Control_c, 0, 64, 0
2, 433923, Note_on_c, 0, 55, 43
2, 434027, Note_on_c, 0, 55, 0
2, 434104, Note_on_c, 0, 56, 56
2, 434219, Note_on_c, 0, 55, 36
2, 434315, Note_on_c, 0, 56, 0
2, 434386, Note_on_c, 0, 55, 0
2, 434503, Note_on_c, 0, 52, 26
2, 434655, Note_on_c, 0, 52, 0
2, 434695, Note_on_c, 0, 51, 27
2, 434914, Note_on_c, 0, 55, 80
2, 434952, Note_on_c, 0, 51, 0
2, 435181, Note_on_c, 0, 55, 0
2, 435240, Note_on_c, 0, 52, 48
2, 435312, Note_on_c, 0, 52, 0
2, 435477, Note_on_c, 0, 53, 71
2, 435523, Note_on_c, 0, 51, 44
2, 435672, Note_on_c, 0, 53, 0
2, 435782, Note_on_c, 0, 55, 60
2, 435822, Note_on_c, 0, 51, 0
2, 435934, Note_on_c, 0, 55, 0
2, 436166, Note_on_c, 0, 56, 44
2, 436295, Note_on_c, 0, 56, 0
2, 436379, Note_on_c, 0, 58, 53
2, 436492, Note_on_c, 0, 51, 32
2, 436540, Note_on_c, 0, 58, 0
2, 436654, Note_on_c, 0, 51, 0
2, 436738, Note_on_c, 0, 60, 48
2, 436821, Note_on_c, 0, 60, 0
2, 437036, Note_on_c, 0, 62, 62
2, 437130, Note_on_c, 0, 62, 0
2, 437216, Note_on_c, 0, 41, 0
2, 437351, Note_on_c, 0, 63, 75
2, 437539, Note_on_c, 0, 63, 0
2, 437685, Note_on_c, 0, 64, 73
2, 437777, Note_on_c, 0, 46, 53
2, 437790, Control_c, 0, 64, 127
2, 437796, Note_on_c, 0, 56, 33
2, 437928, Note_on_c, 0, 56, 0
2, 437957, Note_on_c, 0, 46, 0
2, 438643, Note_on_c, 0, 56, 55
2, 438677, Note_on_c, 0, 62, 43
2, 438743, Note_on_c, 0, 62, 0
2, 438829, Control_c, 0, 64, 0
2, 438846, Note_on_c, 0, 56, 0
2, 438869, Control_c, 0, 64, 127
2, 438984, Note_on_c, 0, 64, 0
2, 439031, Note_on_c, 0, 65, 56
2, 439207, Note_on_c, 0, 65, 0
2, 439253, Control_c, 0, 64, 0
2, 439317, Note_on_c, 0, 67, 67
2, 439539, Note_on_c, 0, 46, 47
2, 439541, Note_on_c, 0, 56, 57
2, 439557, Note_on_c, 0, 67, 0
2, 439620, Control_c, 0, 64, 127
2, 439628, Note_on_c, 0, 46, 0
2, 439668, Note_on_c, 0, 68, 71
2, 439687, Note_on_c, 0, 56, 0
2, 440532, Note_on_c, 0, 56, 59
2, 440555, Note_on_c, 0, 70, 74
2, 440561, Note_on_c, 0, 62, 46
2, 440582, Control_c, 0, 64, 0
2, 440626, Note_on_c, 0, 62, 0
2, 440630, Note_on_c, 0, 68, 0
2, 440730, Note_on_c, 0, 56, 0
2, 440741, Note_on_c, 0, 70, 0
2, 440841, Note_on_c, 0, 71, 63
2, 441027, Note_on_c, 0, 71, 0
2, 441183, Note_on_c, 0, 72, 61
2, 441386, Note_on_c, 0, 39, 37
2, 441396, Note_on_c, 0, 72, 0
2, 441421, Note_on_c, 0, 46, 39
2, 441475, Note_on_c, 0, 73, 64
2, 441515, Note_on_c, 0, 39, 0
2, 441544, Control_c, 0, 64, 127
2, 441624, Note_on_c, 0, 46, 0
2, 441667, Note_on_c, 0, 73, 0
2, 441807, Note_on_c, 0, 74, 45
2, 442135, Note_on_c, 0, 74, 0
2, 442306, Note_on_c, 0, 79, 63
2, 442467, Control_c, 0, 64, 0
2, 442502, Note_on_c, 0, 65, 41
2, 442523, Note_on_c, 0, 79, 0
2, 442535, Note_on_c, 0, 60, 42
2, 442567, Note_on_c, 0, 55, 19
2, 442623, Note_on_c, 0, 82, 79
2, 442625, Note_on_c, 0, 65, 0
2, 442627, Note_on_c, 0, 60, 0
2, 442680, Note_on_c, 0, 55, 0
2, 443112, Note_on_c, 0, 82, 0
2, 443212, Note_on_c, 0, 86, 70
2, 443487, Note_on_c, 0, 67, 42
2, 443489, Note_on_c, 0, 86, 0
2, 443527, Note_on_c, 0, 56, 42
2, 443543, Note_on_c, 0, 62, 42
2, 443585, Note_on_c, 0, 82, 53
2, 443938, Note_on_c, 0, 62, 0
2, 444003, Note_on_c, 0, 67, 0
2, 444009, Note_on_c, 0, 82, 0
2, 444069, Note_on_c, 0, 56, 0
2, 444470, Note_on_c, 0, 56, 51
2, 444476, Note_on_c, 0, 82, 64
2, 444481, Note_on_c, 0, 67, 36
2, 444537, Note_on_c, 0, 62, 44
2, 444823, Note_on_c, 0, 62, 0
2, 444871, Note_on_c, 0, 67, 0
2, 445034, Note_on_c, 0, 56, 0
2, 445382, Note_on_c, 0, 82, 0
2, 445451, Note_on_c, 0, 65, 50
2, 445486, Note_on_c, 0, 62, 36
2, 445503, Note_on_c, 0, 60, 40
2, 445520, Note_on_c, 0, 79, 36
2, 445547, Note_on_c, 0, 55, 16
2, 445572, Note_on_c, 0, 62, 0
2, 445605, Control_c, 0, 64, 127
2, 445607, Note_on_c, 0, 60, 0
2, 445614, Note_on_c, 0, 65, 0
2, 445728, Note_on_c, 0, 55, 0
2, 446269, Note_on_c, 0, 79, 0
2, 446394, Control_c, 0, 64, 0
2, 446451, Note_on_c, 0, 39, 81
2, 446455, Note_on_c, 0, 46, 82
2, 446664, Control_c, 0, 64, 127
2, 447087, Note_on_c, 0, 39, 0
2, 447091, Note_on_c, 0, 46, 0
2, 447336, Control_c, 0, 64, 0
2, 447440, Note_on_c, 0, 46, 90
2, 447450, Note_on_c, 0, 39, 83
2, 447607, Control_c, 0, 64, 127
2, 447790, Note_on_c, 0, 39, 0
2, 447895, Note_on_c, 0, 46, 0
2, 448339, Control_c, 0, 64, 0
2, 448377, Note_on_c, 0, 54, 83
2, 448381, Note_on_c, 0, 44, 73
2, 449170, Note_on_c, 0, 44, 0
2, 449184, Note_on_c, 0, 54, 0
2, 449312, Note_on_c, 0, 43, 58
2, 449316, Note_on_c, 0, 53, 54
2, 449571, Note_on_c, 0, 43, 0
2, 449698, Note_on_c, 0, 53, 0
2, 450238, Note_on_c, 0, 73, 63
2, 450247, Note_on_c, 0, 65, 76
2, 450253, Note_on_c, 0, 77, 72
2, 450278, Note_on_c, 0, 55, 17
2, 450420, Note_on_c, 0, 74, 58
2, 450426, Note_on_c, 0, 55, 0
2, 450497, Note_on_c, 0, 73, 0
2, 450698, Note_on_c, 0, 65, 0
2, 450700, Note_on_c, 0, 77, 0
2, 450791, Note_on_c, 0, 74, 0
2, 450921, Note_on_c, 0, 77, 59
2, 450931, Note_on_c, 0, 65, 62
2, 450954, Note_on_c, 0, 74, 60
2, 451121, Note_on_c, 0, 50, 37
2, 451255, Note_on_c, 0, 77, 0
2, 451305, Note_on_c, 0, 74, 0
2, 451324, Note_on_c, 0, 65, 0
2, 451584, Note_on_c, 0, 65, 58
2, 451591, Note_on_c, 0, 77, 44
2, 451595, Note_on_c, 0, 74, 60
2, 451616, Note_on_c, 0, 50, 0
2, 451895, Note_on_c, 0, 74, 0
2, 451950, Note_on_c, 0, 65, 0
2, 451981, Note_on_c, 0, 77, 0
2, 452112, Note_on_c, 0, 51, 49
2, 452135, Note_on_c, 0, 37, 34
2, 452167, Control_c, 0, 64, 127
2, 452192, Note_on_c, 0, 73, 44
2, 452194, Note_on_c, 0, 77, 49
2, 452232, Note_on_c, 0, 65, 43
2, 452257, Note_on_c, 0, 37, 0
2, 452279, Note_on_c, 0, 51, 0
2, 452509, Note_on_c, 0, 65, 0
2, 452522, Note_on_c, 0, 73, 0
2, 452626, Note_on_c, 0, 77, 0
2, 452841, Control_c, 0, 64, 0
2, 452843, Note_on_c, 0, 77, 55
2, 452887, Note_on_c, 0, 72, 38
2, 452910, Note_on_c, 0, 64, 35
2, 452933, Note_on_c, 0, 36, 46
2, 452976, Note_on_c, 0, 72, 0
2, 452983, Note_on_c, 0, 52, 27
2, 452999, Note_on_c, 0, 64, 0
2, 453058, Note_on_c, 0, 77, 0
2, 453095, Note_on_c, 0, 36, 0
2, 453225, Control_c, 0, 64, 127
2, 453298, Note_on_c, 0, 52, 0
2, 453834, Note_on_c, 0, 76, 64
2, 453849, Note_on_c, 0, 70, 68
2, 453861, Note_on_c, 0, 64, 71
2, 453864, Note_on_c, 0, 72, 59
2, 453880, Control_c, 0, 64, 0
2, 454001, Note_on_c, 0, 58, 37
2, 454055, Note_on_c, 0, 55, 22
2, 454172, Note_on_c, 0, 55, 0
2, 454189, Note_on_c, 0, 58, 0
2, 454206, Control_c, 0, 64, 127
2, 454510, Note_on_c, 0, 76, 0
2, 454512, Note_on_c, 0, 72, 0
2, 454604, Note_on_c, 0, 70, 0
2, 454623, Note_on_c, 0, 64, 0
2, 454696, Note_on_c, 0, 74, 70
2, 454853, Note_on_c, 0, 70, 38
2, 454880, Control_c, 0, 64, 0
2, 454968, Note_on_c, 0, 67, 55
2, 454999, Note_on_c, 0, 74, 0
2, 455166, Note_on_c, 0, 70, 0
2, 455185, Note_on_c, 0, 67, 0
2, 455237, Note_on_c, 0, 64, 55
2, 455504, Note_on_c, 0, 64, 0
2, 455556, Note_on_c, 0, 63, 37
2, 455784, Note_on_c, 0, 63, 0
2, 455817, Note_on_c, 0, 42, 35
2, 455846, Note_on_c, 0, 62, 39
2, 455859, Note_on_c, 0, 52, 24
2, 455963, Note_on_c, 0, 62, 0
2, 455978, Note_on_c, 0, 52, 0
2, 455992, Note_on_c, 0, 61, 54
2, 456151, Note_on_c, 0, 61, 0
2, 456232, Note_on_c, 0, 60, 35
2, 456401, Note_on_c, 0, 60, 0
2, 456439, Note_on_c, 0, 59, 46
2, 456541, Note_on_c, 0, 42, 0
2, 456645, Note_on_c, 0, 58, 57
2, 456647, Note_on_c, 0, 59, 0
2, 456800, Note_on_c, 0, 58, 0
2, 456869, Note_on_c, 0, 57, 32
2, 456912, Note_on_c, 0, 41, 41
2, 457551, Note_on_c, 0, 57, 0
2, 457560, Note_on_c, 0, 58, 61
2, 457708, Note_on_c, 0, 57, 45
2, 457935, Note_on_c, 0, 58, 0
2, 457937, Note_on_c, 0, 56, 46
2, 457950, Note_on_c, 0, 57, 0
2, 458352, Note_on_c, 0, 56, 0
2, 458532, Note_on_c, 0, 57, 61
2, 458638, Note_on_c, 0, 48, 30
2, 458739, Note_on_c, 0, 57, 0
2, 458931, Note_on_c, 0, 60, 53
2, 459118, Note_on_c, 0, 48, 0
2, 459381, Note_on_c, 0, 60, 0
2, 459450, Note_on_c, 0, 61, 71
2, 459517, Note_on_c, 0, 53, 34
2, 459609, Note_on_c, 0, 41, 0
2, 459749, Note_on_c, 0, 53, 0
2, 459753, Note_on_c, 0, 61, 0
2, 459901, Note_on_c, 0, 62, 48
2, 460279, Note_on_c, 0, 62, 0
2, 460387, Note_on_c, 0, 63, 67
2, 460694, Note_on_c, 0, 63, 0
2, 460721, Note_on_c, 0, 54, 42
2, 460771, Note_on_c, 0, 60, 22
2, 460776, Note_on_c, 0, 50, 22
2, 460817, Note_on_c, 0, 64, 47
2, 461193, Note_on_c, 0, 64, 0
2, 461331, Note_on_c, 0, 50, 0
2, 461341, Note_on_c, 0, 65, 64
2, 461370, Note_on_c, 0, 60, 0
2, 461523, Note_on_c, 0, 65, 0
2, 461543, Note_on_c, 0, 54, 0
2, 461786, Note_on_c, 0, 66, 52
2, 462182, Note_on_c, 0, 66, 0
2, 462355, Note_on_c, 0, 68, 59
2, 462430, Note_on_c, 0, 54, 40
2, 462437, Note_on_c, 0, 60, 32
2, 462545, Note_on_c, 0, 60, 0
2, 462641, Note_on_c, 0, 68, 0
2, 462695, Note_on_c, 0, 54, 0
2, 462817, Note_on_c, 0, 69, 32
2, 463113, Note_on_c, 0, 69, 0
2, 463276, Note_on_c, 0, 70, 57
2, 463522, Note_on_c, 0, 70, 0
2, 463560, Note_on_c, 0, 44, 29
2, 463708, Note_on_c, 0, 71, 50
2, 463789, Note_on_c, 0, 44, 0
2, 464025, Note_on_c, 0, 71, 0
2, 464256, Note_on_c, 0, 72, 57
2, 464474, Note_on_c, 0, 43, 26
2, 464486, Note_on_c, 0, 72, 0
2, 464561, Note_on_c, 0, 43, 0
2, 464628, Note_on_c, 0, 70, 60
2, 464760, Note_on_c, 0, 70, 0
2, 465123, Note_on_c, 0, 70, 60
2, 465298, Note_on_c, 0, 70, 0
2, 465396, Note_on_c, 0, 69, 46
2, 465505, Note_on_c, 0, 69, 0
2, 465623, Note_on_c, 0, 58, 30
2, 465628, Note_on_c, 0, 70, 63
2, 465778, Note_on_c, 0, 70, 0
2, 465880, Note_on_c, 0, 58, 0
2, 466051, Note_on_c, 0, 70, 50
2, 466248, Note_on_c, 0, 70, 0
2, 466287, Note_on_c, 0, 69, 50
2, 466450, Note_on_c, 0, 69, 0
2, 466535, Note_on_c, 0, 58, 32
2, 466577, Note_on_c, 0, 70, 52
2, 466659, Note_on_c, 0, 54, 23
2, 466757, Note_on_c, 0, 70, 0
2, 466821, Note_on_c, 0, 74, 64
2, 466857, Note_on_c, 0, 58, 0
2, 467005, Note_on_c, 0, 74, 0
2, 467512, Note_on_c, 0, 69, 48
2, 467577, Note_on_c, 0, 62, 24
2, 467583, Note_on_c, 0, 58, 32
2, 468289, Note_on_c, 0, 69, 0
2, 468299, Note_on_c, 0, 54, 0
2, 468512, Note_on_c, 0, 53, 41
2, 468860, Note_on_c, 0, 58, 0
2, 468904, Note_on_c, 0, 62, 0
2, 469109, Note_on_c, 0, 53, 0
2, 469399, Note_on_c, 0, 58, 55
2, 469416, Note_on_c, 0, 62, 53
2, 470284, Note_on_c, 0, 62, 0
2, 470321, Note_on_c, 0, 58, 0
2, 470390, Note_on_c, 0, 52, 49
2, 471331, Note_on_c, 0, 58, 39
2, 471356, Note_on_c, 0, 69, 84
2, 471392, Note_on_c, 0, 62, 27
2, 471517, Note_on_c, 0, 69, 0
2, 471548, Note_on_c, 0, 52, 0
2, 471682, Note_on_c, 0, 62, 0
2, 471826, Note_on_c, 0, 69, 57
2, 472085, Note_on_c, 0, 69, 0
2, 472097, Note_on_c, 0, 68, 55
2, 472220, Note_on_c, 0, 58, 0
2, 472245, Note_on_c, 0, 68, 0
2, 472323, Note_on_c, 0, 51, 37
2, 472352, Note_on_c, 0, 69, 49
2, 472581, Note_on_c, 0, 69, 0
2, 472646, Note_on_c, 0, 74, 70
2, 473132, Note_on_c, 0, 74, 0
2, 473306, Note_on_c, 0, 67, 60
2, 473339, Note_on_c, 0, 58, 37
2, 473781, Note_on_c, 0, 51, 0
2, 474207, Note_on_c, 0, 58, 0
2, 474249, Note_on_c, 0, 50, 57
2, 474908, Note_on_c, 0, 67, 0
2, 475132, Note_on_c, 0, 54, 33
2, 475192, Note_on_c, 0, 66, 69
2, 475286, Note_on_c, 0, 54, 0
2, 475317, Note_on_c, 0, 50, 0
2, 475388, Note_on_c, 0, 66, 0
2, 475672, Note_on_c, 0, 66, 55
2, 475944, Note_on_c, 0, 66, 0
2, 475987, Note_on_c, 0, 65, 47
2, 476090, Note_on_c, 0, 50, 42
2, 476104, Note_on_c, 0, 65, 0
2, 476217, Note_on_c, 0, 66, 43
2, 476449, Note_on_c, 0, 66, 0
2, 476542, Note_on_c, 0, 72, 44
2, 477027, Note_on_c, 0, 50, 0
2, 477062, Note_on_c, 0, 72, 0
2, 477308, Note_on_c, 0, 65, 74
2, 477924, Note_on_c, 0, 50, 24
2, 478033, Note_on_c, 0, 50, 0
2, 478122, Note_on_c, 0, 65, 0
2, 478145, Note_on_c, 0, 62, 67
2, 478156, Note_on_c, 0, 55, 43
2, 478642, Note_on_c, 0, 55, 0
2, 478750, Note_on_c, 0, 50, 38
2, 478859, Note_on_c, 0, 62, 0
2, 478896, Note_on_c, 0, 50, 0
2, 479041, Note_on_c, 0, 59, 61
2, 479614, Note_on_c, 0, 59, 0
2, 479639, Note_on_c, 0, 47, 51
2, 479656, Note_on_c, 0, 62, 70
2, 479942, Note_on_c, 0, 62, 0
2, 479975, Note_on_c, 0, 47, 0
2, 480023, Note_on_c, 0, 64, 48
2, 480076, Note_on_c, 0, 48, 42
2, 480875, Note_on_c, 0, 48, 0
2, 480938, Note_on_c, 0, 65, 55
2, 480942, Note_on_c, 0, 50, 42
2, 480958, Note_on_c, 0, 55, 40
2, 481105, Note_on_c, 0, 65, 0
2, 481244, Note_on_c, 0, 55, 0
2, 481464, Note_on_c, 0, 64, 0
2, 481547, Note_on_c, 0, 50, 0
2, 481570, Note_on_c, 0, 66, 39
2, 481616, Note_on_c, 0, 51, 39
2, 481728, Note_on_c, 0, 66, 0
2, 481804, Note_on_c, 0, 51, 0
2, 481885, Note_on_c, 0, 67, 59
2, 481902, Note_on_c, 0, 52, 49
2, 482136, Note_on_c, 0, 67, 0
2, 482296, Note_on_c, 0, 52, 0
2, 482868, Note_on_c, 0, 52, 71
2, 482870, Note_on_c, 0, 68, 83
2, 482889, Note_on_c, 0, 60, 81
2, 483709, Note_on_c, 0, 60, 0
2, 483745, Note_on_c, 0, 68, 0
2, 483797, Note_on_c, 0, 60, 37
2, 483813, Note_on_c, 0, 52, 0
2, 483820, Note_on_c, 0, 69, 61
2, 483838, Note_on_c, 0, 53, 50
2, 484120, Note_on_c, 0, 69, 0
2, 484588, Note_on_c, 0, 60, 0
2, 484750, Note_on_c, 0, 53, 0
2, 484809, Note_on_c, 0, 70, 56
2, 484811, Note_on_c, 0, 55, 44
2, 484851, Note_on_c, 0, 60, 35
2, 485068, Note_on_c, 0, 60, 0
2, 485126, Note_on_c, 0, 70, 0
2, 485397, Note_on_c, 0, 55, 0
2, 485473, Note_on_c, 0, 71, 53
2, 485518, Note_on_c, 0, 60, 32
2, 485554, Note_on_c, 0, 71, 0
2, 485579, Note_on_c, 0, 56, 25
2, 485608, Note_on_c, 0, 60, 0
2, 485652, Note_on_c, 0, 56, 0
2, 485817, Note_on_c, 0, 57, 41
2, 485886, Note_on_c, 0, 72, 24
2, 486124, Note_on_c, 0, 72, 0
2, 486305, Note_on_c, 0, 57, 0
2, 486723, Note_on_c, 0, 73, 44
2, 486744, Note_on_c, 0, 57, 43
2, 486771, Note_on_c, 0, 61, 34
2, 486973, Note_on_c, 0, 61, 0
2, 487447, Note_on_c, 0, 73, 0
2, 487534, Note_on_c, 0, 57, 0
2, 487687, Note_on_c, 0, 74, 51
2, 487728, Note_on_c, 0, 65, 39
2, 487749, Note_on_c, 0, 58, 35
2, 487964, Note_on_c, 0, 74, 0
2, 488110, Note_on_c, 0, 65, 0
2, 488534, Note_on_c, 0, 58, 0
2, 488649, Note_on_c, 0, 75, 52
2, 488664, Note_on_c, 0, 60, 31
2, 488703, Note_on_c, 0, 66, 27
2, 488922, Note_on_c, 0, 66, 0
2, 488993, Note_on_c, 0, 75, 0
2, 489066, Note_on_c, 0, 60, 0
2, 489281, Note_on_c, 0, 67, 42
2, 489285, Note_on_c, 0, 76, 36
2, 489313, Note_on_c, 0, 61, 37
2, 489411, Note_on_c, 0, 67, 0
2, 489417, Note_on_c, 0, 61, 0
2, 489444, Note_on_c, 0, 76, 0
2, 489634, Note_on_c, 0, 62, 41
2, 489989, Note_on_c, 0, 62, 0
2, 490527, Note_on_c, 0, 62, 37
2, 490558, Note_on_c, 0, 77, 45
2, 490602, Note_on_c, 0, 69, 30
2, 490611, Note_on_c, 0, 62, 0
2, 490732, Note_on_c, 0, 69, 0
2, 490907, Note_on_c, 0, 77, 0
2, 491514, Note_on_c, 0, 77, 72
2, 491529, Note_on_c, 0, 70, 70
2, 491533, Note_on_c, 0, 54, 59
2, 491537, Note_on_c, 0, 66, 73
2, 491541, Note_on_c, 0, 60, 59
2, 491552, Note_on_c, 0, 72, 59
2, 491556, Note_on_c, 0, 50, 40
2, 491591, Note_on_c, 0, 75, 29
2, 491606, Note_on_c, 0, 60, 0
2, 491687, Note_on_c, 0, 54, 0
2, 491692, Note_on_c, 0, 50, 0
2, 491744, Note_on_c, 0, 66, 0
2, 491786, Note_on_c, 0, 70, 0
2, 491821, Note_on_c, 0, 77, 0
2, 491836, Note_on_c, 0, 72, 0
2, 491882, Note_on_c, 0, 75, 0
2, 492529, Note_on_c, 0, 50, 96
2, 492533, Note_on_c, 0, 38, 95
2, 492572, Note_on_c, 0, 48, 52
2, 492645, Note_on_c, 0, 48, 0
2, 493491, Note_on_c, 0, 84, 85
2, 493532, Note_on_c, 0, 85, 60
2, 493610, Note_on_c, 0, 86, 50
2, 493656, Note_on_c, 0, 85, 0
2, 493887, Note_on_c, 0, 84, 0
2, 493921, Note_on_c, 0, 86, 0
2, 494023, Note_on_c, 0, 38, 0
2, 494269, Note_on_c, 0, 50, 0
2, 494409, Note_on_c, 0, 79, 84
2, 494411, Note_on_c, 0, 91, 89
2, 495375, Note_on_c, 0, 43, 28
2, 495386, Note_on_c, 0, 50, 51
2, 495452, Note_on_c, 0, 43, 0
2, 495496, Note_on_c, 0, 50, 0
2, 495507, Control_c, 0, 64, 127
2, 495836, Note_on_c, 0, 79, 0
2, 496183, Note_on_c, 0, 91, 0
2, 496258, Control_c, 0, 64, 0
2, 496371, Note_on_c, 0, 57, 37
2, 496379, Note_on_c, 0, 64, 35
2, 496392, Note_on_c, 0, 58, 43
2, 496462, Note_on_c, 0, 58, 0
2, 496815, Note_on_c, 0, 57, 0
2, 497057, Note_on_c, 0, 64, 0
2, 497283, Note_on_c, 0, 54, 65
2, 497301, Note_on_c, 0, 91, 81
2, 497794, Note_on_c, 0, 91, 0
2, 498251, Note_on_c, 0, 94, 69
2, 498253, Note_on_c, 0, 62, 38
2, 498268, Note_on_c, 0, 58, 38
2, 498422, Note_on_c, 0, 94, 0
2, 498938, Note_on_c, 0, 97, 73
2, 498954, Note_on_c, 0, 85, 69
2, 498983, Note_on_c, 0, 54, 0
2, 499230, Note_on_c, 0, 85, 0
2, 499242, Note_on_c, 0, 97, 0
2, 499303, Note_on_c, 0, 53, 19
2, 499464, Note_on_c, 0, 62, 0
2, 499516, Note_on_c, 0, 97, 37
2, 499568, Note_on_c, 0, 85, 47
2, 499587, Note_on_c, 0, 58, 0
2, 499789, Note_on_c, 0, 97, 0
2, 499799, Note_on_c, 0, 86, 64
2, 499812, Note_on_c, 0, 85, 0
2, 499900, Note_on_c, 0, 98, 26
2, 499983, Note_on_c, 0, 86, 0
2, 499992, Note_on_c, 0, 98, 0
2, 500188, Note_on_c, 0, 58, 44
2, 500196, Note_on_c, 0, 62, 46
2, 500803, Note_on_c, 0, 53, 0
2, 501025, Note_on_c, 0, 62, 0
2, 501091, Note_on_c, 0, 58, 0
2, 501095, Note_on_c, 0, 91, 88
2, 501098, Note_on_c, 0, 52, 58
2, 501498, Note_on_c, 0, 91, 0
2, 502047, Note_on_c, 0, 58, 55
2, 502070, Note_on_c, 0, 94, 78
2, 502078, Note_on_c, 0, 62, 42
2, 502177, Note_on_c, 0, 62, 0
2, 502191, Note_on_c, 0, 52, 0
2, 502596, Note_on_c, 0, 94, 0
2, 502742, Note_on_c, 0, 91, 47
2, 502824, Note_on_c, 0, 58, 0
2, 502907, Note_on_c, 0, 91, 0
2, 503009, Note_on_c, 0, 51, 62
2, 503018, Note_on_c, 0, 91, 76
2, 503041, Note_on_c, 0, 58, 42
2, 503045, Note_on_c, 0, 60, 48
2, 503047, Note_on_c, 0, 85, 75
2, 503049, Note_on_c, 0, 97, 73
2, 503429, Note_on_c, 0, 60, 0
2, 503491, Note_on_c, 0, 91, 0
2, 503529, Note_on_c, 0, 85, 0
2, 503546, Note_on_c, 0, 97, 0
2, 503554, Note_on_c, 0, 51, 0
2, 503608, Note_on_c, 0, 58, 0
2, 503692, Note_on_c, 0, 96, 62
2, 503715, Note_on_c, 0, 91, 58
2, 503725, Note_on_c, 0, 84, 49
2, 503827, Note_on_c, 0, 84, 0
2, 503834, Note_on_c, 0, 96, 0
2, 503907, Note_on_c, 0, 91, 0
2, 503984, Note_on_c, 0, 50, 68
2, 503986, Note_on_c, 0, 54, 60
2, 503988, Note_on_c, 0, 60, 69
2, 504021, Note_on_c, 0, 94, 68
2, 504023, Note_on_c, 0, 82, 74
2, 504065, Note_on_c, 0, 90, 34
2, 504140, Note_on_c, 0, 90, 0
2, 504541, Note_on_c, 0, 82, 0
2, 504545, Note_on_c, 0, 94, 0
2, 504551, Note_on_c, 0, 60, 0
2, 504554, Note_on_c, 0, 50, 0
2, 504622, Note_on_c, 0, 54, 0
2, 504977, Note_on_c, 0, 54, 56
2, 504984, Note_on_c, 0, 60, 68
2, 504984, Note_on_c, 0, 94, 77
2, 504986, Note_on_c, 0, 50, 61
2, 505006, Note_on_c, 0, 82, 75
2, 505503, Note_on_c, 0, 94, 0
2, 505516, Note_on_c, 0, 82, 0
2, 505904, Note_on_c, 0, 91, 61
2, 505918, Control_c, 0, 64, 127
2, 505939, Note_on_c, 0, 79, 41
2, 506010, Note_on_c, 0, 50, 0
2, 506102, Note_on_c, 0, 54, 0
2, 506131, Note_on_c, 0, 60, 0
2, 506267, Note_on_c, 0, 79, 0
2, 506344, Note_on_c, 0, 91, 0
2, 506613, Note_on_c, 0, 89, 17
2, 506712, Note_on_c, 0, 89, 0
2, 506764, Control_c, 0, 64, 0
2, 506807, Note_on_c, 0, 58, 51
2, 506822, Note_on_c, 0, 55, 40
2, 506845, Note_on_c, 0, 56, 44
2, 506866, Note_on_c, 0, 86, 68
2, 506872, Note_on_c, 0, 91, 75
2, 506887, Note_on_c, 0, 58, 0
2, 506891, Note_on_c, 0, 79, 52
2, 506910, Note_on_c, 0, 56, 0
2, 506949, Note_on_c, 0, 55, 0
2, 507208, Note_on_c, 0, 91, 0
2, 507302, Note_on_c, 0, 86, 0
2, 507371, Note_on_c, 0, 79, 0
2, 507536, Note_on_c, 0, 50, 101
2, 507557, Note_on_c, 0, 49, 85
2, 507970, Note_on_c, 0, 49, 0
2, 508510, Note_on_c, 0, 49, 40
2, 508769, Note_on_c, 0, 49, 0
2, 508821, Note_on_c, 0, 62, 103
2, 508940, Control_c, 0, 64, 127
2, 509184, Note_on_c, 0, 62, 0
2, 509377, Note_on_c, 0, 62, 42
2, 509495, Note_on_c, 0, 62, 0
2, 509514, Note_on_c, 0, 49, 29
2, 509616, Note_on_c, 0, 50, 0
2, 509652, Control_c, 0, 64, 0
2, 509692, Note_on_c, 0, 49, 0
2, 509763, Note_on_c, 0, 70, 73
2, 509813, Note_on_c, 0, 71, 62
2, 509882, Note_on_c, 0, 71, 0
2, 510105, Note_on_c, 0, 70, 0
2, 510397, Note_on_c, 0, 70, 68
2, 510645, Note_on_c, 0, 70, 0
2, 510708, Note_on_c, 0, 67, 60
2, 510733, Note_on_c, 0, 62, 43
2, 510754, Note_on_c, 0, 52, 43
2, 511109, Note_on_c, 0, 52, 0
2, 511123, Note_on_c, 0, 62, 0
2, 511136, Note_on_c, 0, 67, 0
2, 511656, Note_on_c, 0, 67, 57
2, 511685, Note_on_c, 0, 52, 40
2, 511687, Note_on_c, 0, 62, 48
2, 512044, Note_on_c, 0, 52, 0
2, 512077, Note_on_c, 0, 62, 0
2, 512144, Note_on_c, 0, 67, 0
2, 512323, Note_on_c, 0, 72, 46
2, 512496, Note_on_c, 0, 72, 0
2, 512947, Note_on_c, 0, 70, 60
2, 512964, Note_on_c, 0, 61, 60
2, 512977, Note_on_c, 0, 51, 53
2, 512983, Note_on_c, 0, 39, 49
2, 513002, Note_on_c, 0, 66, 38
2, 513068, Note_on_c, 0, 61, 0
2, 513079, Note_on_c, 0, 66, 0
2, 513131, Note_on_c, 0, 51, 0
2, 513141, Note_on_c, 0, 70, 0
2, 513154, Note_on_c, 0, 39, 0
2, 513636, Note_on_c, 0, 51, 53
2, 513644, Note_on_c, 0, 39, 50
2, 513646, Note_on_c, 0, 66, 51
2, 513648, Note_on_c, 0, 70, 42
2, 513651, Note_on_c, 0, 61, 51
2, 514114, Note_on_c, 0, 61, 0
2, 514139, Note_on_c, 0, 66, 0
2, 514156, Note_on_c, 0, 51, 0
2, 514181, Note_on_c, 0, 70, 0
2, 514200, Note_on_c, 0, 39, 0
2, 514302, Note_on_c, 0, 65, 52
2, 514308, Note_on_c, 0, 60, 46
2, 514321, Note_on_c, 0, 50, 50
2, 514329, Note_on_c, 0, 38, 47
2, 515116, Note_on_c, 0, 60, 0
2, 515151, Note_on_c, 0, 65, 0
2, 515518, Note_on_c, 0, 65, 51
2, 515529, Note_on_c, 0, 60, 36
2, 515673, Note_on_c, 0, 50, 0
2, 515690, Note_on_c, 0, 60, 0
2, 515700, Note_on_c, 0, 38, 0
2, 515706, Note_on_c, 0, 65, 0
2, 516115, Note_on_c, 0, 38, 41
2, 516132, Note_on_c, 0, 50, 42
2, 516153, Note_on_c, 0, 65, 64
2, 516178, Note_on_c, 0, 60, 48
2, 516268, Note_on_c, 0, 50, 0
2, 516316, Note_on_c, 0, 38, 0
2, 516339, Note_on_c, 0, 60, 0
2, 516378, Note_on_c, 0, 65, 0
2, 516708, Note_on_c, 0, 70, 53
2, 516725, Note_on_c, 0, 37, 49
2, 516729, Note_on_c, 0, 64, 60
2, 516731, Note_on_c, 0, 49, 40
2, 516733, Note_on_c, 0, 59, 47
2, 516877, Note_on_c, 0, 37, 0
2, 516881, Note_on_c, 0, 49, 0
2, 516887, Note_on_c, 0, 59, 0
2, 516936, Note_on_c, 0, 70, 0
2, 516986, Note_on_c, 0, 64, 0
2, 517420, Note_on_c, 0, 64, 62
2, 517443, Note_on_c, 0, 49, 53
2, 517445, Note_on_c, 0, 70, 42
2, 517449, Note_on_c, 0, 37, 55
2, 517468, Note_on_c, 0, 59, 52
2, 517848, Note_on_c, 0, 64, 0
2, 517864, Note_on_c, 0, 59, 0
2, 517929, Note_on_c, 0, 70, 0
2, 518021, Note_on_c, 0, 49, 0
2, 518029, Note_on_c, 0, 37, 0
2, 518148, Note_on_c, 0, 70, 34
2, 518171, Note_on_c, 0, 63, 60
2, 518173, Note_on_c, 0, 36, 66
2, 518192, Note_on_c, 0, 48, 29
2, 518196, Note_on_c, 0, 58, 48
2, 518336, Note_on_c, 0, 58, 0
2, 518355, Note_on_c, 0, 70, 0
2, 518363, Note_on_c, 0, 48, 0
2, 518376, Note_on_c, 0, 63, 0
2, 518378, Note_on_c, 0, 36, 0
2, 518743, Note_on_c, 0, 63, 62
2, 518745, Note_on_c, 0, 70, 47
2, 518747, Note_on_c, 0, 48, 57
2, 518757, Note_on_c, 0, 36, 57
2, 518797, Note_on_c, 0, 58, 33
2, 518914, Note_on_c, 0, 58, 0
2, 518937, Note_on_c, 0, 48, 0
2, 518954, Note_on_c, 0, 70, 0
2, 518972, Note_on_c, 0, 63, 0
2, 519022, Note_on_c, 0, 36, 0
2, 519402, Note_on_c, 0, 70, 62
2, 519409, Note_on_c, 0, 63, 64
2, 519413, Control_c, 0, 64, 127
2, 519417, Note_on_c, 0, 48, 47
2, 519496, Note_on_c, 0, 48, 0
2, 519709, Note_on_c, 0, 63, 0
2, 519801, Note_on_c, 0, 70, 0
2, 520043, Note_on_c, 0, 70, 70
2, 520049, Control_c, 0, 64, 0
2, 520055, Note_on_c, 0, 63, 77
2, 520066, Note_on_c, 0, 66, 71
2, 520074, Note_on_c, 0, 59, 72
2, 520920, Note_on_c, 0, 58, 67
2, 521191, Note_on_c, 0, 58, 0
2, 521335, Note_on_c, 0, 56, 44
2, 521882, Note_on_c, 0, 59, 0
2, 521955, Note_on_c, 0, 66, 0
2, 521959, Note_on_c, 0, 63, 0
2, 522032, Note_on_c, 0, 70, 0
2, 522038, Note_on_c, 0, 54, 32
2, 522207, Note_on_c, 0, 70, 38
2, 522234, Note_on_c, 0, 59, 43
2, 522241, Note_on_c, 0, 63, 48
2, 522263, Note_on_c, 0, 54, 0
2, 522264, Note_on_c, 0, 58, 36
2, 522268, Note_on_c, 0, 66, 46
2, 522286, Note_on_c, 0, 56, 0
2, 523155, Note_on_c, 0, 58, 0
2, 523165, Note_on_c, 0, 56, 55
2, 523691, Note_on_c, 0, 66, 0
2, 523693, Note_on_c, 0, 59, 0
2, 523733, Note_on_c, 0, 63, 0
2, 523929, Note_on_c, 0, 70, 0
2, 523960, Note_on_c, 0, 54, 21
2, 524077, Note_on_c, 0, 54, 0
2, 524094, Note_on_c, 0, 56, 0
2, 524117, Note_on_c, 0, 70, 59
2, 524125, Note_on_c, 0, 58, 21
2, 524129, Note_on_c, 0, 63, 59
2, 524136, Note_on_c, 0, 59, 50
2, 524140, Note_on_c, 0, 66, 61
2, 524263, Note_on_c, 0, 58, 0
2, 525027, Note_on_c, 0, 44, 72
2, 525029, Note_on_c, 0, 54, 77
2, 525252, Note_on_c, 0, 59, 0
2, 525651, Note_on_c, 0, 70, 0
2, 525742, Note_on_c, 0, 54, 0
2, 525838, Note_on_c, 0, 66, 0
2, 525838, Note_on_c, 0, 44, 0
2, 525872, Note_on_c, 0, 63, 0
2, 525985, Note_on_c, 0, 43, 31
2, 526008, Note_on_c, 0, 55, 53
2, 526026, Note_on_c, 0, 67, 50
2, 526035, Note_on_c, 0, 58, 38
2, 526041, Note_on_c, 0, 62, 56
2, 526078, Note_on_c, 0, 43, 0
2, 526195, Note_on_c, 0, 58, 0
2, 526222, Note_on_c, 0, 55, 0
2, 526231, Note_on_c, 0, 62, 0
2, 526335, Note_on_c, 0, 67, 0
2, 526986, Note_on_c, 0, 62, 45
2, 527011, Note_on_c, 0, 55, 30
2, 527038, Note_on_c, 0, 58, 32
2, 527063, Note_on_c, 0, 62, 0
2, 527226, Note_on_c, 0, 55, 0
2, 527251, Note_on_c, 0, 58, 0
2, 527990, Note_on_c, 0, 45, 40
2, 528032, Note_on_c, 0, 54, 57
2, 528151, Note_on_c, 0, 45, 0
2, 528167, Note_on_c, 0, 54, 0
2, 528940, Note_on_c, 0, 67, 72
2, 529557, Note_on_c, 0, 67, 0
2, 529593, Note_on_c, 0, 66, 39
2, 529795, Note_on_c, 0, 66, 0
2, 529856, Note_on_c, 0, 43, 33
2, 529893, Note_on_c, 0, 53, 35
2, 529918, Note_on_c, 0, 67, 53
2, 530010, Note_on_c, 0, 43, 0
2, 530125, Note_on_c, 0, 53, 0
2, 530526, Note_on_c, 0, 67, 0
2, 530822, Note_on_c, 0, 74, 78
2, 530835, Note_on_c, 0, 56, 60
2, 530878, Note_on_c, 0, 60, 27
2, 530956, Note_on_c, 0, 60, 0
2, 530991, Note_on_c, 0, 56, 0
2, 531340, Note_on_c, 0, 74, 0
2, 531782, Note_on_c, 0, 52, 44
2, 531807, Note_on_c, 0, 43, 27
2, 531822, Note_on_c, 0, 67, 58
2, 531947, Note_on_c, 0, 43, 0
2, 532066, Note_on_c, 0, 52, 0
2, 532442, Note_on_c, 0, 67, 0
2, 532481, Note_on_c, 0, 66, 32
2, 532659, Note_on_c, 0, 66, 0
2, 532744, Note_on_c, 0, 67, 55
2, 533456, Note_on_c, 0, 73, 67
2, 533525, Note_on_c, 0, 67, 0
2, 533589, Note_on_c, 0, 51, 40
2, 533683, Note_on_c, 0, 43, 19
2, 533773, Note_on_c, 0, 43, 0
2, 533865, Note_on_c, 0, 51, 0
2, 534147, Note_on_c, 0, 73, 0
2, 534622, Note_on_c, 0, 54, 57
2, 534656, Note_on_c, 0, 67, 68
2, 534785, Note_on_c, 0, 54, 0
2, 535238, Note_on_c, 0, 67, 0
2, 535297, Note_on_c, 0, 66, 31
2, 535493, Note_on_c, 0, 66, 0
2, 535570, Note_on_c, 0, 38, 37
2, 535614, Note_on_c, 0, 67, 52
2, 535639, Note_on_c, 0, 50, 28
2, 535662, Note_on_c, 0, 38, 0
2, 535785, Note_on_c, 0, 50, 0
2, 536188, Note_on_c, 0, 67, 0
2, 536296, Note_on_c, 0, 72, 62
2, 536480, Note_on_c, 0, 54, 39
2, 536486, Note_on_c, 0, 62, 35
2, 536503, Note_on_c, 0, 60, 40
2, 536551, Note_on_c, 0, 62, 0
2, 536578, Note_on_c, 0, 60, 0
2, 536680, Note_on_c, 0, 54, 0
2, 537087, Note_on_c, 0, 72, 0
2, 537256, Note_on_c, 0, 70, 54
2, 537442, Note_on_c, 0, 70, 0
2, 537563, Note_on_c, 0, 43, 19
2, 537615, Note_on_c, 0, 71, 53
2, 537619, Note_on_c, 0, 55, 24
2, 537684, Note_on_c, 0, 55, 0
2, 538072, Note_on_c, 0, 43, 0
2, 538081, Note_on_c, 0, 71, 0
2, 538179, Note_on_c, 0, 67, 59
2, 538224, Note_on_c, 0, 50, 33
2, 538408, Note_on_c, 0, 67, 0
2, 538604, Note_on_c, 0, 62, 36
2, 538609, Note_on_c, 0, 54, 25
2, 538669, Note_on_c, 0, 44, 19
2, 538702, Note_on_c, 0, 50, 0
2, 538970, Note_on_c, 0, 62, 0
2, 539076, Note_on_c, 0, 54, 0
2, 539130, Note_on_c, 0, 60, 54
2, 539159, Note_on_c, 0, 50, 30
2, 539235, Note_on_c, 0, 44, 0
2, 539291, Note_on_c, 0, 50, 0
2, 539356, Note_on_c, 0, 43, 29
2, 539448, Note_on_c, 0, 60, 0
2, 539604, Note_on_c, 0, 59, 30
2, 540021, Note_on_c, 0, 59, 0
2, 540109, Note_on_c, 0, 50, 45
2, 540117, Note_on_c, 0, 62, 68
2, 540180, Note_on_c, 0, 43, 0
2, 540339, Note_on_c, 0, 50, 0
2, 540341, Note_on_c, 0, 62, 0
2, 540462, Note_on_c, 0, 65, 82
2, 540464, Note_on_c, 0, 47, 51
2, 540954, Note_on_c, 0, 65, 0
2, 541059, Note_on_c, 0, 62, 45
2, 541086, Note_on_c, 0, 46, 37
2, 541236, Note_on_c, 0, 47, 0
2, 541301, Note_on_c, 0, 62, 0
2, 541309, Note_on_c, 0, 46, 0
2, 541388, Note_on_c, 0, 48, 44
2, 541411, Note_on_c, 0, 64, 52
2, 541449, Note_on_c, 0, 58, 34
2, 541751, Note_on_c, 0, 58, 0
2, 541766, Note_on_c, 0, 64, 0
2, 541791, Note_on_c, 0, 48, 0
2, 542031, Note_on_c, 0, 43, 37
2, 542231, Note_on_c, 0, 43, 0
2, 542346, Note_on_c, 0, 53, 50
2, 542350, Note_on_c, 0, 37, 46
2, 542926, Note_on_c, 0, 43, 30
2, 543022, Note_on_c, 0, 37, 0
2, 543064, Note_on_c, 0, 53, 0
2, 543164, Note_on_c, 0, 43, 0
2, 543269, Note_on_c, 0, 36, 54
2, 543346, Note_on_c, 0, 52, 45
2, 543964, Note_on_c, 0, 52, 0
2, 543982, Note_on_c, 0, 36, 0
2, 544012, Note_on_c, 0, 39, 42
2, 544272, Note_on_c, 0, 56, 38
2, 544289, Note_on_c, 0, 39, 0
2, 544298, Note_on_c, 0, 42, 46
2, 544915, Note_on_c, 0, 39, 37
2, 544976, Note_on_c, 0, 42, 0
2, 545128, Note_on_c, 0, 56, 0
2, 545205, Note_on_c, 0, 39, 0
2, 545251, Note_on_c, 0, 41, 39
2, 545266, Note_on_c, 0, 57, 51
2, 545489, Note_on_c, 0, 41, 0
2, 545544, Note_on_c, 0, 57, 0
2, 545648, Note_on_c, 0, 58, 33
2, 545763, Note_on_c, 0, 43, 18
2, 545765, Note_on_c, 0, 58, 0
2, 545911, Note_on_c, 0, 59, 52
2, 545973, Note_on_c, 0, 43, 0
2, 546090, Note_on_c, 0, 59, 0
2, 546193, Note_on_c, 0, 60, 83
2, 546213, Note_on_c, 0, 45, 54
2, 546652, Note_on_c, 0, 45, 0
2, 546725, Note_on_c, 0, 60, 0
2, 547201, Note_on_c, 0, 57, 66
2, 547211, Note_on_c, 0, 41, 49
2, 547466, Note_on_c, 0, 41, 0
2, 547505, Note_on_c, 0, 57, 0
2, 548820, Note_on_c, 0, 66, 68
2, 548824, Note_on_c, 0, 61, 55
2, 548826, Note_on_c, 0, 59, 66
2, 548853, Note_on_c, 0, 63, 40
2, 548855, Note_on_c, 0, 51, 53
2, 549014, Note_on_c, 0, 51, 0
2, 549054, Note_on_c, 0, 66, 0
2, 549072, Note_on_c, 0, 59, 0
2, 549106, Note_on_c, 0, 63, 0
2, 549118, Note_on_c, 0, 61, 0
2, 549244, Note_on_c, 0, 65, 51
2, 549265, Note_on_c, 0, 60, 57
2, 549275, Note_on_c, 0, 50, 36
2, 549452, Note_on_c, 0, 60, 0
2, 549461, Note_on_c, 0, 65, 0
2, 549475, Note_on_c, 0, 50, 0
2, 550137, Note_on_c, 0, 70, 64
2, 550151, Note_on_c, 0, 55, 45
2, 550177, Note_on_c, 0, 65, 58
2, 550191, Note_on_c, 0, 60, 40
2, 550356, Note_on_c, 0, 70, 0
2, 550406, Note_on_c, 0, 65, 0
2, 550416, Note_on_c, 0, 60, 0
2, 550636, Note_on_c, 0, 55, 0
2, 550742, Note_on_c, 0, 54, 46
2, 550757, Note_on_c, 0, 64, 57
2, 550917, Note_on_c, 0, 64, 0
2, 551041, Note_on_c, 0, 54, 0
2, 551086, Note_on_c, 0, 55, 52
2, 551089, Note_on_c, 0, 70, 47
2, 551103, Note_on_c, 0, 65, 44
2, 551197, Note_on_c, 0, 65, 0
2, 551220, Note_on_c, 0, 55, 0
2, 551287, Note_on_c, 0, 70, 0
2, 551969, Note_on_c, 0, 77, 65
2, 551992, Note_on_c, 0, 67, 48
2, 551994, Note_on_c, 0, 62, 51
2, 552013, Note_on_c, 0, 72, 51
2, 552259, Note_on_c, 0, 67, 0
2, 552276, Note_on_c, 0, 72, 0
2, 552351, Note_on_c, 0, 77, 0
2, 552355, Note_on_c, 0, 62, 0
2, 552581, Note_on_c, 0, 61, 36
2, 552587, Note_on_c, 0, 76, 30
2, 552766, Note_on_c, 0, 76, 0
2, 552883, Note_on_c, 0, 61, 0
2, 552900, Note_on_c, 0, 62, 54
2, 552904, Note_on_c, 0, 72, 52
2, 552904, Note_on_c, 0, 77, 57
2, 552927, Note_on_c, 0, 67, 41
2, 553015, Note_on_c, 0, 67, 0
2, 553082, Note_on_c, 0, 62, 0
2, 553150, Note_on_c, 0, 72, 0
2, 553153, Note_on_c, 0, 77, 0
2, 553845, Note_on_c, 0, 82, 74
2, 553852, Note_on_c, 0, 67, 64
2, 553864, Note_on_c, 0, 77, 71
2, 553881, Note_on_c, 0, 72, 55
2, 554133, Note_on_c, 0, 77, 0
2, 554169, Note_on_c, 0, 82, 0
2, 554171, Note_on_c, 0, 72, 0
2, 554179, Note_on_c, 0, 67, 0
2, 554778, Note_on_c, 0, 71, 58
2, 554780, Note_on_c, 0, 76, 63
2, 554784, Note_on_c, 0, 81, 56
2, 554785, Note_on_c, 0, 66, 50
2, 554977, Note_on_c, 0, 81, 0
2, 554983, Note_on_c, 0, 71, 0
2, 555083, Note_on_c, 0, 76, 0
2, 555473, Note_on_c, 0, 77, 76
2, 555475, Note_on_c, 0, 67, 67
2, 555484, Note_on_c, 0, 82, 51
2, 555511, Note_on_c, 0, 72, 55
2, 555544, Note_on_c, 0, 66, 0
2, 555576, Note_on_c, 0, 72, 0
2, 555598, Note_on_c, 0, 67, 0
2, 555624, Note_on_c, 0, 77, 0
2, 555644, Note_on_c, 0, 82, 0
2, 556060, Control_c, 0, 64, 127
2, 556331, Control_c, 0, 64, 0
2, 556439, Note_on_c, 0, 80, 81
2, 556444, Note_on_c, 0, 68, 84
2, 556452, Note_on_c, 0, 75, 69
2, 556454, Note_on_c, 0, 72, 68
2, 556600, Note_on_c, 0, 68, 0
2, 556744, Note_on_c, 0, 80, 0
2, 556761, Note_on_c, 0, 72, 0
2, 556790, Note_on_c, 0, 68, 53
2, 556853, Note_on_c, 0, 75, 0
2, 556896, Note_on_c, 0, 80, 25
2, 556944, Note_on_c, 0, 68, 0
2, 556995, Note_on_c, 0, 75, 25
2, 557028, Note_on_c, 0, 72, 20
2, 557120, Control_c, 0, 64, 127
2, 557160, Note_on_c, 0, 68, 53
2, 557230, Note_on_c, 0, 72, 0
2, 557237, Note_on_c, 0, 75, 0
2, 557352, Note_on_c, 0, 68, 0
2, 557410, Note_on_c, 0, 72, 22
2, 557437, Note_on_c, 0, 75, 35
2, 557600, Control_c, 0, 64, 0
2, 557612, Note_on_c, 0, 80, 0
2, 557621, Note_on_c, 0, 72, 0
2, 557642, Note_on_c, 0, 75, 0
2, 557662, Note_on_c, 0, 46, 83
2, 557671, Note_on_c, 0, 58, 88
2, 558600, Control_c, 0, 64, 127
2, 558629, Note_on_c, 0, 58, 0
2, 558666, Note_on_c, 0, 70, 70
2, 558687, Note_on_c, 0, 63, 77
2, 558695, Note_on_c, 0, 67, 69
2, 558706, Note_on_c, 0, 60, 80
2, 558744, Note_on_c, 0, 46, 0
2, 558996, Note_on_c, 0, 67, 0
2, 559036, Note_on_c, 0, 70, 0
2, 559100, Note_on_c, 0, 63, 0
2, 559142, Note_on_c, 0, 60, 0
2, 559543, Control_c, 0, 64, 0
2, 559655, Note_on_c, 0, 63, 67
2, 559662, Note_on_c, 0, 67, 72
2, 559670, Note_on_c, 0, 34, 72
2, 559674, Note_on_c, 0, 60, 80
2, 559676, Note_on_c, 0, 46, 77
2, 559678, Note_on_c, 0, 56, 73
2, 560584, Control_c, 0, 64, 127
2, 560620, Note_on_c, 0, 56, 0
2, 560638, Note_on_c, 0, 34, 0
2, 560724, Note_on_c, 0, 60, 0
2, 560737, Note_on_c, 0, 46, 0
2, 560772, Note_on_c, 0, 67, 0
2, 560801, Note_on_c, 0, 63, 0
2, 561277, Control_c, 0, 64, 0
2, 561338, Note_on_c, 0, 70, 82
2, 561348, Note_on_c, 0, 61, 95
2, 561358, Note_on_c, 0, 66, 76
2, 561642, Note_on_c, 0, 70, 0
2, 561674, Note_on_c, 0, 61, 0
2, 561692, Note_on_c, 0, 66, 0
2, 562260, Note_on_c, 0, 64, 70
2, 562264, Note_on_c, 0, 67, 67
2, 562279, Note_on_c, 0, 62, 72
2, 562287, Note_on_c, 0, 59, 70
2, 562300, Note_on_c, 0, 56, 77
2, 562302, Note_on_c, 0, 46, 64
2, 562339, Note_on_c, 0, 65, 33
2, 562604, Control_c, 0, 64, 127
2, 562815, Note_on_c, 0, 56, 0
2, 562903, Note_on_c, 0, 46, 0
2, 562909, Note_on_c, 0, 64, 0
2, 562919, Note_on_c, 0, 62, 0
2, 563011, Note_on_c, 0, 65, 0
2, 563018, Note_on_c, 0, 67, 0
2, 563089, Note_on_c, 0, 59, 0
2, 563224, Note_on_c, 0, 49, 48
2, 563354, Control_c, 0, 64, 0
2, 563460, Note_on_c, 0, 49, 0
2, 563502, Note_on_c, 0, 65, 61
2, 563510, Note_on_c, 0, 58, 65
2, 563512, Note_on_c, 0, 62, 68
2, 563546, Note_on_c, 0, 55, 54
2, 563548, Note_on_c, 0, 53, 57
2, 563564, Note_on_c, 0, 57, 55
2, 563629, Note_on_c, 0, 57, 0
2, 563721, Note_on_c, 0, 53, 0
2, 563973, Note_on_c, 0, 55, 0
2, 564021, Note_on_c, 0, 65, 0
2, 564023, Note_on_c, 0, 62, 0
2, 564209, Note_on_c, 0, 58, 0
2, 564464, Note_on_c, 0, 63, 44
2, 564495, Note_on_c, 0, 58, 46
2, 564506, Note_on_c, 0, 39, 48
2, 564508, Note_on_c, 0, 53, 32
2, 564516, Note_on_c, 0, 46, 37
2, 565169, Note_on_c, 0, 53, 0
2, 565274, Note_on_c, 0, 39, 0
2, 565290, Note_on_c, 0, 46, 0
2, 565340, Note_on_c, 0, 63, 0
2, 565361, Note_on_c, 0, 58, 0
2, 565434, Control_c, 0, 64, 127
2, 566202, Control_c, 0, 64, 0
2, 566459, Note_on_c, 0, 39, 42
2, 566463, Note_on_c, 0, 60, 47
2, 566465, Note_on_c, 0, 53, 35
2, 566476, Note_on_c, 0, 57, 38
2, 566490, Note_on_c, 0, 46, 32
2, 566724, Note_on_c, 0, 57, 0
2, 566749, Note_on_c, 0, 53, 0
2, 566903, Note_on_c, 0, 39, 0
2, 566931, Note_on_c, 0, 60, 0
2, 566968, Note_on_c, 0, 46, 0
2, 567072, Note_on_c, 0, 61, 35
2, 567081, Note_on_c, 0, 54, 47
2, 567118, Note_on_c, 0, 58, 52
2, 567129, Note_on_c, 0, 46, 49
2, 567131, Note_on_c, 0, 39, 36
2, 567264, Note_on_c, 0, 54, 0
2, 567308, Note_on_c, 0, 46, 0
2, 567319, Note_on_c, 0, 39, 0
2, 567344, Note_on_c, 0, 58, 0
2, 567421, Note_on_c, 0, 61, 0
2, 567984, Note_on_c, 0, 63, 57
2, 567995, Note_on_c, 0, 56, 67
2, 568032, Note_on_c, 0, 59, 44
2, 568047, Note_on_c, 0, 46, 52
2, 568058, Note_on_c, 0, 39, 51
2, 568128, Note_on_c, 0, 59, 0
2, 568137, Note_on_c, 0, 56, 0
2, 568168, Note_on_c, 0, 63, 0
2, 568206, Note_on_c, 0, 46, 0
2, 568237, Note_on_c, 0, 39, 0
2, 568944, Note_on_c, 0, 63, 50
2, 568965, Note_on_c, 0, 39, 56
2, 568967, Note_on_c, 0, 56, 62
2, 568974, Note_on_c, 0, 46, 50
2, 569013, Note_on_c, 0, 59, 34
2, 569034, Note_on_c, 0, 61, 25
2, 569153, Note_on_c, 0, 56, 0
2, 569212, Note_on_c, 0, 63, 0
2, 569218, Note_on_c, 0, 59, 0
2, 569228, Note_on_c, 0, 39, 0
2, 569285, Note_on_c, 0, 46, 0
2, 569291, Note_on_c, 0, 61, 0
2, 569399, Note_on_c, 0, 55, 46
2, 569408, Note_on_c, 0, 63, 32
2, 569410, Note_on_c, 0, 39, 42
2, 569420, Note_on_c, 0, 58, 53
2, 569424, Note_on_c, 0, 46, 57
2, 569431, Note_on_c, 0, 60, 55
2, 570205, Control_c, 0, 64, 127
2, 570412, Note_on_c, 0, 46, 0
2, 570458, Note_on_c, 0, 55, 0
2, 570510, Note_on_c, 0, 39, 0
2, 570549, Note_on_c, 0, 63, 0
2, 570552, Note_on_c, 0, 58, 0
2, 570570, Note_on_c, 0, 60, 0
2, 570783, Control_c, 0, 64, 0
2, 570844, Note_on_c, 0, 63, 71
2, 570862, Note_on_c, 0, 39, 58
2, 570864, Note_on_c, 0, 58, 74
2, 570871, Note_on_c, 0, 46, 68
2, 570887, Note_on_c, 0, 60, 60
2, 570888, Note_on_c, 0, 55, 57
2, 571034, Control_c, 0, 64, 127
2, 571059, Note_on_c, 0, 55, 0
2, 571061, Note_on_c, 0, 39, 0
2, 571188, Note_on_c, 0, 46, 0
2, 571201, Note_on_c, 0, 60, 0
2, 571240, Note_on_c, 0, 58, 0
2, 571284, Note_on_c, 0, 63, 0
2, 572171, Control_c, 0, 64, 0
2, 572277, Note_on_c, 0, 62, 92
2, 572280, Note_on_c, 0, 69, 91
2, 572286, Note_on_c, 0, 72, 80
2, 572290, Note_on_c, 0, 65, 90
2, 572292, Note_on_c, 0, 58, 71
2, 572294, Note_on_c, 0, 60, 74
2, 572327, Note_on_c, 0, 67, 59
2, 572392, Note_on_c, 0, 67, 0
2, 572739, Note_on_c, 0, 72, 0
2, 572778, Note_on_c, 0, 62, 0
2, 572780, Note_on_c, 0, 69, 0
2, 572797, Note_on_c, 0, 65, 0
2, 572805, Note_on_c, 0, 60, 0
2, 572818, Note_on_c, 0, 58, 0
2, 572914, Note_on_c, 0, 65, 50
2, 572918, Note_on_c, 0, 72, 36
2, 572924, Note_on_c, 0, 69, 62
2, 572935, Note_on_c, 0, 62, 62
2, 572941, Note_on_c, 0, 58, 35
2, 572964, Note_on_c, 0, 60, 68
2, 573135, Note_on_c, 0, 62, 0
2, 573144, Note_on_c, 0, 72, 0
2, 573156, Note_on_c, 0, 69, 0
2, 573177, Note_on_c, 0, 60, 0
2, 573267, Note_on_c, 0, 72, 24
2, 573285, Note_on_c, 0, 62, 39
2, 573287, Note_on_c, 0, 69, 57
2, 573323, Note_on_c, 0, 60, 47
2, 573661, Note_on_c, 0, 62, 0
2, 573669, Note_on_c, 0, 72, 0
2, 573676, Note_on_c, 0, 60, 0
2, 573680, Note_on_c, 0, 65, 0
2, 573696, Note_on_c, 0, 69, 0
2, 573740, Note_on_c, 0, 58, 0
2, 573849, Note_on_c, 0, 72, 35
2, 573853, Note_on_c, 0, 65, 55
2, 573864, Note_on_c, 0, 69, 66
2, 573893, Note_on_c, 0, 58, 60
2, 573897, Note_on_c, 0, 62, 49
2, 573912, Note_on_c, 0, 60, 54
2, 574045, Note_on_c, 0, 62, 0
2, 574068, Note_on_c, 0, 65, 0
2, 574076, Note_on_c, 0, 69, 0
2, 574095, Note_on_c, 0, 72, 0
2, 574103, Note_on_c, 0, 60, 0
2, 574177, Note_on_c, 0, 58, 0
2, 574225, Note_on_c, 0, 72, 22
2, 574258, Note_on_c, 0, 69, 49
2, 574268, Note_on_c, 0, 62, 43
2, 574273, Note_on_c, 0, 58, 21
2, 574275, Note_on_c, 0, 65, 43
2, 574298, Note_on_c, 0, 60, 52
2, 574571, Note_on_c, 0, 60, 0
2, 574573, Note_on_c, 0, 62, 0
2, 574636, Note_on_c, 0, 58, 0
2, 574644, Note_on_c, 0, 69, 0
2, 574677, Note_on_c, 0, 65, 0
2, 574744, Note_on_c, 0, 72, 0
2, 575141, Note_on_c, 0, 58, 48
2, 575159, Note_on_c, 0, 62, 34
2, 575160, Note_on_c, 0, 65, 50
2, 575166, Note_on_c, 0, 72, 42
2, 575174, Note_on_c, 0, 60, 45
2, 575180, Note_on_c, 0, 69, 44
2, 575356, Note_on_c, 0, 62, 0
2, 575368, Note_on_c, 0, 60, 0
2, 575441, Note_on_c, 0, 65, 0
2, 575448, Note_on_c, 0, 58, 0
2, 575458, Note_on_c, 0, 69, 0
2, 575477, Note_on_c, 0, 72, 0
2, 575765, Note_on_c, 0, 65, 53
2, 575773, Note_on_c, 0, 69, 44
2, 575775, Note_on_c, 0, 72, 37
2, 575798, Note_on_c, 0, 58, 50
2, 575800, Note_on_c, 0, 62, 51
2, 575819, Note_on_c, 0, 60, 53
2, 575934, Note_on_c, 0, 65, 0
2, 575936, Note_on_c, 0, 69, 0
2, 575950, Note_on_c, 0, 62, 0
2, 575975, Note_on_c, 0, 60, 0
2, 576021, Note_on_c, 0, 72, 0
2, 576048, Note_on_c, 0, 58, 0
2, 576297, Note_on_c, 0, 64, 64
2, 576320, Note_on_c, 0, 72, 36
2, 576324, Note_on_c, 0, 62, 45
2, 576334, Note_on_c, 0, 58, 44
2, 576341, Note_on_c, 0, 68, 42
2, 576357, Note_on_c, 0, 60, 49
2, 576508, Note_on_c, 0, 62, 0
2, 576537, Note_on_c, 0, 60, 0
2, 576597, Note_on_c, 0, 58, 0
2, 576600, Note_on_c, 0, 68, 0
2, 576612, Note_on_c, 0, 64, 0
2, 576660, Note_on_c, 0, 72, 0
2, 576969, Note_on_c, 0, 72, 39
2, 576975, Note_on_c, 0, 62, 45
2, 576979, Note_on_c, 0, 64, 53
2, 576981, Note_on_c, 0, 58, 49
2, 577000, Note_on_c, 0, 68, 45
2, 577006, Note_on_c, 0, 60, 54
2, 577088, Note_on_c, 0, 60, 0
2, 577136, Note_on_c, 0, 62, 0
2, 577180, Note_on_c, 0, 64, 0
2, 577224, Note_on_c, 0, 58, 0
2, 577255, Note_on_c, 0, 68, 0
2, 577284, Note_on_c, 0, 72, 0
2, 577762, Note_on_c, 0, 64, 54
2, 577764, Note_on_c, 0, 68, 40
2, 577768, Note_on_c, 0, 72, 45
2, 577774, Note_on_c, 0, 62, 47
2, 577776, Note_on_c, 0, 58, 44
2, 577795, Note_on_c, 0, 60, 46
2, 577939, Note_on_c, 0, 64, 0
2, 577946, Note_on_c, 0, 62, 0
2, 578008, Note_on_c, 0, 68, 0
2, 578027, Note_on_c, 0, 72, 0
2, 578029, Note_on_c, 0, 60, 0
2, 578094, Note_on_c, 0, 58, 0
2, 578647, Note_on_c, 0, 64, 66
2, 578661, Note_on_c, 0, 68, 45
2, 578663, Note_on_c, 0, 60, 48
2, 578664, Note_on_c, 0, 58, 48
2, 578670, Note_on_c, 0, 62, 40
2, 578680, Note_on_c, 0, 72, 37
2, 578753, Note_on_c, 0, 62, 0
2, 578841, Note_on_c, 0, 64, 0
2, 578851, Note_on_c, 0, 60, 0
2, 578872, Note_on_c, 0, 72, 0
2, 578893, Note_on_c, 0, 58, 0
2, 578895, Note_on_c, 0, 68, 0
2, 579072, Note_on_c, 0, 64, 41
2, 579073, Note_on_c, 0, 68, 47
2, 579083, Note_on_c, 0, 58, 44
2, 579102, Note_on_c, 0, 62, 37
2, 579106, Note_on_c, 0, 60, 42
2, 579118, Note_on_c, 0, 72, 29
2, 579287, Note_on_c, 0, 64, 0
2, 579294, Note_on_c, 0, 62, 0
2, 579336, Note_on_c, 0, 60, 0
2, 579421, Note_on_c, 0, 68, 0
2, 579431, Note_on_c, 0, 58, 0
2, 579500, Note_on_c, 0, 72, 0
2, 579920, Note_on_c, 0, 60, 50
2, 579941, Note_on_c, 0, 63, 50
2, 579951, Note_on_c, 0, 72, 38
2, 579972, Note_on_c, 0, 65, 51
2, 579976, Note_on_c, 0, 69, 40
2, 579987, Note_on_c, 0, 57, 48
2, 580312, Note_on_c, 0, 72, 0
2, 580314, Note_on_c, 0, 57, 0
2, 580318, Note_on_c, 0, 65, 0
2, 580321, Note_on_c, 0, 63, 0
2, 580344, Note_on_c, 0, 60, 0
2, 580425, Note_on_c, 0, 69, 0
2, 580544, Note_on_c, 0, 63, 49
2, 580592, Note_on_c, 0, 65, 50
2, 580598, Note_on_c, 0, 72, 25
2, 580604, Note_on_c, 0, 60, 39
2, 580615, Note_on_c, 0, 57, 50
2, 580617, Note_on_c, 0, 69, 20
2, 580746, Note_on_c, 0, 72, 0
2, 580767, Note_on_c, 0, 63, 0
2, 580794, Note_on_c, 0, 65, 0
2, 580840, Note_on_c, 0, 57, 0
2, 580851, Note_on_c, 0, 60, 0
2, 580970, Note_on_c, 0, 63, 29
2, 580980, Note_on_c, 0, 60, 22
2, 581001, Note_on_c, 0, 65, 39
2, 581003, Note_on_c, 0, 72, 19
2, 581005, Note_on_c, 0, 57, 32
2, 581243, Note_on_c, 0, 72, 0
2, 581264, Note_on_c, 0, 63, 0
2, 581283, Note_on_c, 0, 65, 0
2, 581293, Note_on_c, 0, 60, 0
2, 581295, Note_on_c, 0, 57, 0
2, 581362, Note_on_c, 0, 69, 0
2, 581506, Note_on_c, 0, 63, 51
2, 581531, Note_on_c, 0, 60, 35
2, 581535, Note_on_c, 0, 65, 55
2, 581537, Note_on_c, 0, 57, 45
2, 581544, Note_on_c, 0, 72, 29
2, 581571, Note_on_c, 0, 69, 28
2, 581681, Note_on_c, 0, 72, 0
2, 581698, Note_on_c, 0, 63, 0
2, 581729, Note_on_c, 0, 60, 0
2, 581746, Note_on_c, 0, 57, 0
2, 581756, Note_on_c, 0, 65, 0
2, 581815, Note_on_c, 0, 69, 0
2, 581940, Note_on_c, 0, 63, 52
2, 581955, Note_on_c, 0, 65, 45
2, 581998, Note_on_c, 0, 72, 24
2, 582026, Note_on_c, 0, 69, 19
2, 582330, Note_on_c, 0, 63, 0
2, 582416, Note_on_c, 0, 65, 0
2, 582489, Note_on_c, 0, 69, 0
2, 582493, Note_on_c, 0, 72, 0
2, 582608, Note_on_c, 0, 50, 92
2, 582616, Note_on_c, 0, 38, 90
2, 583221, Control_c, 0, 64, 127
2, 583756, Note_on_c, 0, 38, 0
2, 583800, Note_on_c, 0, 86, 82
2, 583810, Note_on_c, 0, 74, 83
2, 583845, Note_on_c, 0, 82, 60
2, 583866, Note_on_c, 0, 50, 0
2, 584375, Control_c, 0, 64, 0
2, 584438, Note_on_c, 0, 54, 85
2, 584442, Note_on_c, 0, 60, 81
2, 584444, Note_on_c, 0, 65, 88
2, 584985, Note_on_c, 0, 74, 0
2, 585277, Note_on_c, 0, 86, 0
2, 585321, Note_on_c, 0, 82, 0
2, 585619, Note_on_c, 0, 82, 86
2, 586149, Note_on_c, 0, 82, 0
2, 586408, Note_on_c, 0, 65, 0
2, 586504, Note_on_c, 0, 60, 0
2, 586561, Note_on_c, 0, 81, 71
2, 586590, Note_on_c, 0, 54, 0
2, 586988, Note_on_c, 0, 81, 0
2, 587470, Note_on_c, 0, 79, 44
2, 587504, Note_on_c, 0, 50, 28
2, 587633, Note_on_c, 0, 50, 0
2, 587831, Note_on_c, 0, 79, 0
2, 588441, Note_on_c, 0, 62, 34
2, 588478, Note_on_c, 0, 58, 37
2, 588495, Note_on_c, 0, 55, 24
2, 588591, Note_on_c, 0, 62, 0
2, 588660, Note_on_c, 0, 55, 0
2, 588702, Note_on_c, 0, 58, 0
2, 589397, Note_on_c, 0, 51, 50
2, 589486, Note_on_c, 0, 43, 40
2, 589622, Note_on_c, 0, 43, 0
2, 589741, Note_on_c, 0, 51, 0
2, 590346, Note_on_c, 0, 56, 52
2, 590373, Note_on_c, 0, 79, 64
2, 590415, Note_on_c, 0, 56, 0
2, 590791, Note_on_c, 0, 79, 0
2, 590964, Note_on_c, 0, 82, 48
2, 591237, Note_on_c, 0, 82, 0
2, 591288, Note_on_c, 0, 43, 43
2, 591312, Note_on_c, 0, 52, 30
2, 591327, Note_on_c, 0, 86, 67
2, 591346, Note_on_c, 0, 74, 55
2, 591457, Note_on_c, 0, 43, 0
2, 591523, Note_on_c, 0, 52, 0
2, 591792, Note_on_c, 0, 86, 0
2, 591878, Note_on_c, 0, 74, 0
2, 592262, Note_on_c, 0, 58, 53
2, 592285, Note_on_c, 0, 56, 32
2, 592400, Note_on_c, 0, 58, 0
2, 592410, Note_on_c, 0, 56, 0
2, 593222, Note_on_c, 0, 43, 48
2, 593256, Note_on_c, 0, 53, 39
2, 593289, Note_on_c, 0, 79, 66
2, 593385, Note_on_c, 0, 43, 0
2, 593498, Note_on_c, 0, 53, 0
2, 593646, Note_on_c, 0, 79, 0
2, 594184, Note_on_c, 0, 82, 72
2, 594218, Note_on_c, 0, 74, 68
2, 594222, Note_on_c, 0, 53, 42
2, 594297, Note_on_c, 0, 53, 0
2, 594677, Note_on_c, 0, 74, 0
2, 594883, Note_on_c, 0, 82, 0
2, 595134, Note_on_c, 0, 49, 49
2, 595148, Note_on_c, 0, 82, 77
2, 595150, Note_on_c, 0, 73, 79
2, 595153, Note_on_c, 0, 78, 80
2, 595155, Note_on_c, 0, 85, 74
2, 595180, Note_on_c, 0, 38, 36
2, 595265, Note_on_c, 0, 38, 0
2, 595276, Note_on_c, 0, 49, 0
2, 595651, Note_on_c, 0, 78, 0
2, 595655, Note_on_c, 0, 73, 0
2, 595691, Note_on_c, 0, 85, 0
2, 595726, Note_on_c, 0, 82, 0
2, 595816, Note_on_c, 0, 85, 36
2, 595825, Note_on_c, 0, 73, 43
2, 595858, Note_on_c, 0, 78, 46
2, 595870, Note_on_c, 0, 82, 37
2, 596004, Note_on_c, 0, 73, 0
2, 596040, Note_on_c, 0, 78, 0
2, 596067, Note_on_c, 0, 85, 0
2, 596088, Note_on_c, 0, 61, 40
2, 596096, Note_on_c, 0, 65, 53
2, 596115, Note_on_c, 0, 55, 34
2, 596138, Note_on_c, 0, 72, 43
2, 596140, Note_on_c, 0, 84, 53
2, 596175, Note_on_c, 0, 77, 51
2, 596357, Note_on_c, 0, 65, 0
2, 596426, Note_on_c, 0, 55, 0
2, 596428, Note_on_c, 0, 61, 0
2, 596732, Note_on_c, 0, 72, 0
2, 596737, Note_on_c, 0, 84, 0
2, 596899, Note_on_c, 0, 77, 0
2, 596956, Note_on_c, 0, 82, 0
2, 597060, Note_on_c, 0, 82, 25
2, 597062, Note_on_c, 0, 50, 38
2, 597068, Note_on_c, 0, 60, 43
2, 597100, Note_on_c, 0, 54, 38
2, 597102, Note_on_c, 0, 70, 44
2, 597106, Note_on_c, 0, 77, 39
2, 597256, Note_on_c, 0, 50, 0
2, 597336, Note_on_c, 0, 54, 0
2, 597356, Note_on_c, 0, 60, 0
2, 597456, Note_on_c, 0, 77, 0
2, 597534, Note_on_c, 0, 70, 0
2, 597536, Note_on_c, 0, 82, 0
2, 598008, Note_on_c, 0, 80, 44
2, 598012, Note_on_c, 0, 54, 47
2, 598039, Note_on_c, 0, 60, 37
2, 598049, Note_on_c, 0, 68, 35
2, 598051, Note_on_c, 0, 75, 50
2, 598208, Note_on_c, 0, 60, 0
2, 598279, Control_c, 0, 64, 127
2, 598450, Note_on_c, 0, 54, 0
2, 598529, Note_on_c, 0, 80, 0
2, 598540, Note_on_c, 0, 68, 0
2, 598581, Note_on_c, 0, 75, 0
2, 598646, Control_c, 0, 64, 0
2, 598705, Note_on_c, 0, 74, 66
2, 598707, Note_on_c, 0, 67, 59
2, 598713, Note_on_c, 0, 79, 57
2, 598717, Note_on_c, 0, 55, 52
2, 598730, Note_on_c, 0, 58, 56
2, 598738, Note_on_c, 0, 62, 50
2, 598801, Note_on_c, 0, 62, 0
2, 598880, Note_on_c, 0, 58, 0
2, 598922, Note_on_c, 0, 55, 0
2, 598934, Control_c, 0, 64, 127
2, 599589, Control_c, 0, 64, 0
2, 599700, Note_on_c, 0, 49, 87
2, 600059, Note_on_c, 0, 49, 0
2, 600071, Note_on_c, 0, 50, 79
2, 600145, Control_c, 0, 64, 127
2, 600564, Note_on_c, 0, 50, 0
2, 600570, Control_c, 0, 64, 0
2, 600716, Note_on_c, 0, 50, 90
2, 600898, Control_c, 0, 64, 127
2, 601138, Note_on_c, 0, 50, 0
2, 601524, Note_on_c, 0, 74, 0
2, 601532, Note_on_c, 0, 79, 0
2, 601557, Note_on_c, 0, 67, 0
2, 601626, Note_on_c, 0, 50, 96
2, 602023, Note_on_c, 0, 50, 0
2, 602624, Note_on_c, 0, 47, 65
2, 602743, Control_c, 0, 64, 0
2, 602776, Note_on_c, 0, 47, 0
2, 602910, Note_on_c, 0, 70, 90
2, 602916, Note_on_c, 0, 67, 94
2, 602937, Note_on_c, 0, 52, 90
2, 602937, Note_on_c, 0, 62, 95
2, 602937, Note_on_c, 0, 40, 80
2, 602939, Note_on_c, 0, 46, 67
2, 603066, Note_on_c, 0, 46, 0
2, 603411, Note_on_c, 0, 62, 0
2, 603419, Note_on_c, 0, 40, 0
2, 603429, Note_on_c, 0, 52, 0
2, 603444, Note_on_c, 0, 70, 0
2, 603448, Note_on_c, 0, 67, 0
2, 603550, Note_on_c, 0, 70, 68
2, 603561, Note_on_c, 0, 52, 65
2, 603567, Note_on_c, 0, 67, 77
2, 603575, Note_on_c, 0, 40, 53
2, 603576, Note_on_c, 0, 62, 66
2, 603598, Note_on_c, 0, 46, 57
2, 603665, Note_on_c, 0, 46, 0
2, 603757, Note_on_c, 0, 52, 0
2, 603774, Note_on_c, 0, 62, 0
2, 603795, Note_on_c, 0, 70, 0
2, 603805, Note_on_c, 0, 67, 0
2, 603813, Note_on_c, 0, 40, 0
2, 603874, Note_on_c, 0, 40, 29
2, 603889, Note_on_c, 0, 52, 69
2, 603891, Note_on_c, 0, 70, 60
2, 603911, Note_on_c, 0, 67, 59
2, 603912, Note_on_c, 0, 62, 60
2, 604199, Note_on_c, 0, 62, 0
2, 604200, Note_on_c, 0, 52, 0
2, 604220, Note_on_c, 0, 40, 0
2, 604287, Note_on_c, 0, 67, 0
2, 604302, Note_on_c, 0, 70, 0
2, 604826, Note_on_c, 0, 39, 60
2, 604846, Note_on_c, 0, 51, 60
2, 604853, Note_on_c, 0, 70, 63
2, 604880, Note_on_c, 0, 66, 57
2, 604882, Note_on_c, 0, 61, 57
2, 605262, Note_on_c, 0, 39, 0
2, 605272, Note_on_c, 0, 51, 0
2, 605303, Note_on_c, 0, 61, 0
2, 605304, Note_on_c, 0, 66, 0
2, 605345, Note_on_c, 0, 70, 0
2, 606401, Note_on_c, 0, 39, 51
2, 606430, Note_on_c, 0, 51, 39
2, 606501, Note_on_c, 0, 51, 0
2, 606564, Note_on_c, 0, 39, 0
2, 606689, Note_on_c, 0, 70, 42
2, 606733, Note_on_c, 0, 65, 53
2, 606735, Note_on_c, 0, 50, 46
2, 606741, Note_on_c, 0, 60, 31
2, 606754, Note_on_c, 0, 38, 44
2, 607128, Note_on_c, 0, 60, 0
2, 607140, Note_on_c, 0, 70, 0
2, 607161, Note_on_c, 0, 38, 0
2, 607169, Note_on_c, 0, 65, 0
2, 607171, Note_on_c, 0, 50, 0
2, 607345, Note_on_c, 0, 70, 44
2, 607374, Note_on_c, 0, 60, 50
2, 607378, Note_on_c, 0, 65, 55
2, 607382, Note_on_c, 0, 38, 37
2, 607388, Note_on_c, 0, 50, 46
2, 607526, Note_on_c, 0, 70, 0
2, 607534, Note_on_c, 0, 60, 0
2, 607553, Note_on_c, 0, 50, 0
2, 607560, Note_on_c, 0, 38, 0
2, 607624, Note_on_c, 0, 65, 0
2, 608275, Note_on_c, 0, 70, 46
2, 608311, Note_on_c, 0, 64, 61
2, 608315, Note_on_c, 0, 37, 53
2, 608317, Note_on_c, 0, 49, 50
2, 608334, Note_on_c, 0, 58, 39
2, 609688, Note_on_c, 0, 49, 0
2, 609705, Note_on_c, 0, 37, 0
2, 609765, Note_on_c, 0, 64, 0
2, 609855, Note_on_c, 0, 58, 0
2, 609978, Note_on_c, 0, 70, 0
2, 610571, Note_on_c, 0, 70, 35
2, 610609, Note_on_c, 0, 63, 44
2, 610615, Note_on_c, 0, 36, 39
2, 610623, Note_on_c, 0, 58, 30
2, 610644, Note_on_c, 0, 48, 19
2, 610928, Note_on_c, 0, 36, 0
2, 610972, Note_on_c, 0, 48, 0
2, 610974, Note_on_c, 0, 63, 0
2, 610980, Note_on_c, 0, 70, 0
2, 611022, Note_on_c, 0, 58, 0
2, 611184, Note_on_c, 0, 70, 25
2, 611203, Note_on_c, 0, 63, 39
2, 611218, Note_on_c, 0, 58, 29
2, 611222, Note_on_c, 0, 36, 41
2, 611266, Note_on_c, 0, 48, 24
2, 611393, Note_on_c, 0, 48, 0
2, 611424, Note_on_c, 0, 63, 0
2, 611558, Note_on_c, 0, 48, 29
2, 611566, Note_on_c, 0, 63, 27
2, 611765, Note_on_c, 0, 48, 0
2, 611808, Note_on_c, 0, 36, 0
2, 611811, Note_on_c, 0, 63, 0
2, 611859, Note_on_c, 0, 70, 0
2, 611865, Note_on_c, 0, 58, 0
2, 612466, Note_on_c, 0, 70, 33
2, 612512, Note_on_c, 0, 35, 37
2, 612514, Note_on_c, 0, 63, 38
2, 612552, Note_on_c, 0, 47, 16
2, 612556, Note_on_c, 0, 59, 24
2, 612714, Note_on_c, 0, 59, 0
2, 612731, Note_on_c, 0, 47, 0
2, 612756, Note_on_c, 0, 63, 0
2, 612762, Note_on_c, 0, 35, 0
2, 612837, Note_on_c, 0, 70, 0
2, 613392, Note_on_c, 0, 63, 39
2, 613426, Note_on_c, 0, 70, 28
2, 613449, Note_on_c, 0, 35, 13
2, 613482, Control_c, 0, 64, 127
2, 613568, Note_on_c, 0, 35, 0
2, 613683, Note_on_c, 0, 70, 0
2, 613699, Note_on_c, 0, 63, 0
2, 613868, Control_c, 0, 64, 0
2, 614087, Note_on_c, 0, 70, 26
2, 614092, Note_on_c, 0, 34, 40
2, 614100, Note_on_c, 0, 46, 34
2, 614112, Note_on_c, 0, 60, 25
2, 614113, Note_on_c, 0, 65, 39
2, 614227, Note_on_c, 0, 60, 0
2, 614269, Note_on_c, 0, 34, 0
2, 614271, Note_on_c, 0, 46, 0
2, 614294, Note_on_c, 0, 65, 0
2, 614380, Note_on_c, 0, 70, 0
2, 615093, Note_on_c, 0, 74, 87
2, 615264, Note_on_c, 0, 74, 0
2, 616085, Note_on_c, 0, 74, 99
2, 616412, Note_on_c, 0, 74, 0
2, 617034, Note_on_c, 0, 74, 80
2, 617351, Control_c, 0, 64, 127
2, 617416, Note_on_c, 0, 74, 0
2, 618051, Note_on_c, 0, 66, 43
2, 618082, Control_c, 0, 64, 0
2, 618304, Note_on_c, 0, 64, 36
2, 618330, Note_on_c, 0, 82, 42
2, 618332, Note_on_c, 0, 66, 0
2, 618334, Note_on_c, 0, 79, 36
2, 618336, Note_on_c, 0, 74, 34
2, 618657, Note_on_c, 0, 64, 0
2, 618666, Note_on_c, 0, 79, 0
2, 618670, Note_on_c, 0, 74, 0
2, 618727, Note_on_c, 0, 82, 0
2, 619217, Note_on_c, 0, 74, 41
2, 619226, Note_on_c, 0, 82, 33
2, 619232, Note_on_c, 0, 64, 38
2, 619251, Note_on_c, 0, 79, 35
2, 619537, Note_on_c, 0, 64, 0
2, 619549, Note_on_c, 0, 74, 0
2, 619568, Note_on_c, 0, 79, 0
2, 619572, Note_on_c, 0, 82, 0
2, 619712, Note_on_c, 0, 64, 48
2, 619797, Note_on_c, 0, 74, 33
2, 619812, Note_on_c, 0, 82, 35
2, 619854, Note_on_c, 0, 79, 22
2, 619900, Note_on_c, 0, 64, 0
2, 619929, Note_on_c, 0, 74, 0
2, 620017, Note_on_c, 0, 79, 0
2, 620096, Note_on_c, 0, 82, 0
2, 620208, Note_on_c, 0, 63, 31
2, 620259, Note_on_c, 0, 82, 35
2, 620265, Note_on_c, 0, 73, 27
2, 620275, Note_on_c, 0, 78, 45
2, 620408, Note_on_c, 0, 63, 0
2, 620545, Note_on_c, 0, 78, 0
2, 620595, Note_on_c, 0, 73, 0
2, 620630, Note_on_c, 0, 82, 0
2, 622149, Note_on_c, 0, 82, 46
2, 622170, Note_on_c, 0, 62, 45
2, 622179, Note_on_c, 0, 72, 36
2, 622210, Note_on_c, 0, 77, 43
2, 622510, Note_on_c, 0, 62, 0
2, 622535, Note_on_c, 0, 77, 0
2, 622586, Note_on_c, 0, 72, 0
2, 622606, Note_on_c, 0, 82, 0
2, 622813, Note_on_c, 0, 82, 43
2, 622834, Note_on_c, 0, 72, 45
2, 622844, Note_on_c, 0, 62, 52
2, 622857, Note_on_c, 0, 77, 49
2, 622928, Note_on_c, 0, 62, 0
2, 622955, Note_on_c, 0, 77, 0
2, 622961, Note_on_c, 0, 72, 0
2, 622990, Note_on_c, 0, 82, 0
2, 623698, Note_on_c, 0, 82, 54
2, 623713, Note_on_c, 0, 61, 52
2, 623723, Note_on_c, 0, 71, 41
2, 623735, Note_on_c, 0, 76, 57
2, 623930, Note_on_c, 0, 71, 0
2, 623950, Note_on_c, 0, 61, 0
2, 623973, Note_on_c, 0, 76, 0
2, 623980, Note_on_c, 0, 82, 0
2, 625534, Note_on_c, 0, 71, 35
2, 625551, Note_on_c, 0, 76, 44
2, 625560, Note_on_c, 0, 61, 57
2, 625564, Note_on_c, 0, 82, 25
2, 625676, Note_on_c, 0, 82, 0
2, 625678, Note_on_c, 0, 71, 0
2, 625779, Note_on_c, 0, 76, 0
2, 625800, Note_on_c, 0, 61, 0
2, 625956, Note_on_c, 0, 82, 30
2, 625966, Note_on_c, 0, 60, 35
2, 625975, Note_on_c, 0, 75, 44
2, 625983, Note_on_c, 0, 70, 27
2, 626315, Note_on_c, 0, 82, 0
2, 626317, Note_on_c, 0, 60, 0
2, 626355, Note_on_c, 0, 70, 0
2, 626367, Note_on_c, 0, 75, 0
2, 626509, Note_on_c, 0, 82, 39
2, 626534, Note_on_c, 0, 70, 46
2, 626536, Note_on_c, 0, 75, 48
2, 626565, Note_on_c, 0, 60, 40
2, 626732, Note_on_c, 0, 82, 0
2, 626734, Note_on_c, 0, 70, 0
2, 626751, Note_on_c, 0, 60, 0
2, 626772, Note_on_c, 0, 75, 0
2, 626924, Note_on_c, 0, 82, 27
2, 626939, Note_on_c, 0, 75, 37
2, 626947, Note_on_c, 0, 70, 30
2, 626987, Note_on_c, 0, 60, 34
2, 627177, Note_on_c, 0, 82, 0
2, 627185, Note_on_c, 0, 70, 0
2, 627204, Note_on_c, 0, 75, 0
2, 627525, Note_on_c, 0, 82, 48
2, 627552, Note_on_c, 0, 75, 46
2, 627563, Note_on_c, 0, 70, 28
2, 627692, Note_on_c, 0, 70, 0
2, 627703, Note_on_c, 0, 82, 0
2, 627761, Note_on_c, 0, 75, 0
2, 627882, Note_on_c, 0, 60, 0
2, 627936, Note_on_c, 0, 82, 49
2, 627959, Note_on_c, 0, 75, 47
2, 627968, Note_on_c, 0, 70, 34
2, 627980, Note_on_c, 0, 59, 45
2, 628270, Note_on_c, 0, 75, 0
2, 628291, Note_on_c, 0, 59, 0
2, 628306, Note_on_c, 0, 70, 0
2, 628318, Note_on_c, 0, 82, 0
2, 628759, Note_on_c, 0, 75, 52
2, 628763, Note_on_c, 0, 82, 42
2, 628767, Note_on_c, 0, 59, 41
2, 628775, Note_on_c, 0, 70, 37
2, 628967, Note_on_c, 0, 75, 0
2, 629105, Note_on_c, 0, 70, 0
2, 629170, Note_on_c, 0, 82, 0
2, 629408, Note_on_c, 0, 58, 58
2, 629429, Note_on_c, 0, 82, 64
2, 629445, Note_on_c, 0, 70, 68
2, 629450, Note_on_c, 0, 77, 72
2, 629472, Note_on_c, 0, 59, 0
2, 629546, Note_on_c, 0, 58, 0
2, 629631, Note_on_c, 0, 70, 0
2, 629721, Note_on_c, 0, 77, 0
2, 629767, Note_on_c, 0, 82, 0
2, 630391, Note_on_c, 0, 46, 95
2, 630410, Note_on_c, 0, 34, 87
2, 630466, Note_on_c, 0, 47, 34
2, 630470, Note_on_c, 0, 37, 35
2, 630535, Note_on_c, 0, 37, 0
2, 630545, Note_on_c, 0, 47, 0
2, 630577, Note_on_c, 0, 34, 0
2, 630802, Note_on_c, 0, 46, 0
2, 631372, Note_on_c, 0, 46, 90
2, 631386, Note_on_c, 0, 34, 82
2, 631668, Note_on_c, 0, 34, 0
2, 631710, Note_on_c, 0, 46, 0
2, 632353, Note_on_c, 0, 46, 84
2, 632365, Note_on_c, 0, 34, 83
2, 632376, Note_on_c, 0, 44, 73
2, 632409, Note_on_c, 0, 37, 55
2, 632423, Note_on_c, 0, 38, 53
2, 632424, Note_on_c, 0, 41, 44
2, 632444, Note_on_c, 0, 36, 33
2, 632472, Note_on_c, 0, 37, 0
2, 632492, Note_on_c, 0, 38, 0
2, 632511, Note_on_c, 0, 41, 0
2, 632513, Note_on_c, 0, 36, 0
2, 632520, Note_on_c, 0, 44, 0
2, 632561, Note_on_c, 0, 46, 0
2, 632574, Control_c, 0, 64, 127
2, 632630, Note_on_c, 0, 34, 0
2, 633651, Control_c, 0, 64, 0
2, 634364, Note_on_c, 0, 70, 71
2, 634381, Note_on_c, 0, 58, 83
2, 634383, Note_on_c, 0, 24, 74
2, 634385, Note_on_c, 0, 36, 74
2, 634391, Note_on_c, 0, 64, 74
2, 634400, Note_on_c, 0, 67, 61
2, 634504, Note_on_c, 0, 58, 0
2, 634567, Note_on_c, 0, 36, 0
2, 634575, Note_on_c, 0, 70, 0
2, 634581, Note_on_c, 0, 64, 0
2, 634592, Note_on_c, 0, 24, 0
2, 634602, Note_on_c, 0, 67, 0
2, 635230, Note_on_c, 0, 36, 77
2, 635237, Note_on_c, 0, 70, 67
2, 635241, Note_on_c, 0, 24, 79
2, 635253, Note_on_c, 0, 58, 82
2, 635260, Note_on_c, 0, 64, 76
2, 635262, Note_on_c, 0, 67, 64
2, 635493, Note_on_c, 0, 58, 0
2, 635502, Note_on_c, 0, 70, 0
2, 635525, Note_on_c, 0, 24, 0
2, 635529, Note_on_c, 0, 36, 0
2, 635571, Note_on_c, 0, 64, 0
2, 635616, Note_on_c, 0, 67, 0
2, 635696, Note_on_c, 0, 70, 59
2, 635700, Note_on_c, 0, 36, 68
2, 635704, Note_on_c, 0, 24, 79
2, 635712, Note_on_c, 0, 64, 74
2, 635717, Note_on_c, 0, 58, 75
2, 635744, Note_on_c, 0, 67, 57
2, 636021, Note_on_c, 0, 58, 0
2, 636040, Note_on_c, 0, 70, 0
2, 636084, Note_on_c, 0, 64, 0
2, 636103, Note_on_c, 0, 24, 0
2, 636132, Note_on_c, 0, 67, 0
2, 636136, Note_on_c, 0, 36, 0
2, 636316, Note_on_c, 0, 70, 62
2, 636320, Note_on_c, 0, 24, 76
2, 636324, Note_on_c, 0, 36, 76
2, 636332, Note_on_c, 0, 67, 61
2, 636334, Note_on_c, 0, 58, 77
2, 636336, Note_on_c, 0, 64, 74
2, 636528, Note_on_c, 0, 58, 0
2, 636585, Note_on_c, 0, 24, 0
2, 636587, Note_on_c, 0, 67, 0
2, 636593, Note_on_c, 0, 64, 0
2, 636595, Note_on_c, 0, 70, 0
2, 636631, Note_on_c, 0, 36, 0
2, 638455, Note_on_c, 0, 70, 79
2, 638463, Note_on_c, 0, 29, 71
2, 638465, Note_on_c, 0, 63, 82
2, 638467, Note_on_c, 0, 58, 88
2, 638474, Note_on_c, 0, 41, 74
2, 638484, Note_on_c, 0, 66, 68
2, 638833, Note_on_c, 0, 58, 0
2, 638851, Note_on_c, 0, 29, 0
2, 638855, Note_on_c, 0, 66, 0
2, 638858, Note_on_c, 0, 63, 0
2, 638870, Note_on_c, 0, 70, 0
2, 638878, Note_on_c, 0, 41, 0
2, 639058, Note_on_c, 0, 70, 56
2, 639075, Note_on_c, 0, 29, 50
2, 639083, Note_on_c, 0, 58, 60
2, 639085, Note_on_c, 0, 63, 57
2, 639089, Note_on_c, 0, 41, 62
2, 639108, Note_on_c, 0, 66, 56
2, 639267, Note_on_c, 0, 58, 0
2, 639292, Note_on_c, 0, 70, 0
2, 639296, Note_on_c, 0, 41, 0
2, 639298, Note_on_c, 0, 63, 0
2, 639310, Note_on_c, 0, 66, 0
2, 639319, Note_on_c, 0, 29, 0
2, 639417, Note_on_c, 0, 70, 53
2, 639423, Note_on_c, 0, 29, 54
2, 639425, Note_on_c, 0, 41, 64
2, 639429, Note_on_c, 0, 63, 60
2, 639436, Note_on_c, 0, 58, 55
2, 639454, Note_on_c, 0, 66, 53
2, 639820, Note_on_c, 0, 58, 0
2, 639826, Note_on_c, 0, 66, 0
2, 639851, Note_on_c, 0, 70, 0
2, 639861, Note_on_c, 0, 63, 0
2, 639863, Note_on_c, 0, 29, 0
2, 639895, Note_on_c, 0, 41, 0
2, 640055, Note_on_c, 0, 41, 67
2, 640058, Note_on_c, 0, 63, 68
2, 640060, Note_on_c, 0, 29, 46
2, 640064, Note_on_c, 0, 70, 53
2, 640066, Note_on_c, 0, 58, 71
2, 640089, Note_on_c, 0, 66, 55
2, 640224, Note_on_c, 0, 58, 0
2, 640279, Note_on_c, 0, 70, 0
2, 640289, Note_on_c, 0, 63, 0
2, 640298, Note_on_c, 0, 66, 0
2, 640325, Note_on_c, 0, 41, 0
2, 640362, Note_on_c, 0, 29, 0
2, 641362, Note_on_c, 0, 70, 67
2, 641372, Note_on_c, 0, 63, 77
2, 641374, Note_on_c, 0, 29, 66
2, 641379, Note_on_c, 0, 65, 71
2, 641381, Note_on_c, 0, 41, 77
2, 641383, Note_on_c, 0, 58, 80
2, 641773, Note_on_c, 0, 58, 0
2, 641806, Note_on_c, 0, 29, 0
2, 641808, Note_on_c, 0, 70, 0
2, 641815, Note_on_c, 0, 63, 0
2, 641823, Note_on_c, 0, 41, 0
2, 641844, Note_on_c, 0, 65, 0
2, 642931, Note_on_c, 0, 70, 71
2, 642935, Note_on_c, 0, 29, 68
2, 642936, Note_on_c, 0, 58, 87
2, 642938, Note_on_c, 0, 63, 76
2, 642942, Note_on_c, 0, 41, 77
2, 642958, Note_on_c, 0, 65, 62
2, 643196, Note_on_c, 0, 58, 0
2, 643232, Note_on_c, 0, 70, 0
2, 643261, Note_on_c, 0, 41, 0
2, 643263, Note_on_c, 0, 29, 0
2, 643276, Note_on_c, 0, 65, 0
2, 643276, Note_on_c, 0, 63, 0
2, 643436, Note_on_c, 0, 29, 38
2, 643453, Note_on_c, 0, 41, 67
2, 643459, Note_on_c, 0, 63, 62
2, 643466, Note_on_c, 0, 70, 58
2, 643472, Note_on_c, 0, 58, 74
2, 643486, Note_on_c, 0, 65, 60
2, 643678, Note_on_c, 0, 41, 0
2, 643716, Note_on_c, 0, 70, 0
2, 643720, Note_on_c, 0, 58, 0
2, 643756, Note_on_c, 0, 29, 0
2, 643774, Note_on_c, 0, 63, 0
2, 643806, Note_on_c, 0, 65, 0
2, 644008, Note_on_c, 0, 41, 64
2, 644012, Note_on_c, 0, 29, 33
2, 644025, Note_on_c, 0, 63, 70
2, 644029, Note_on_c, 0, 31, 38
2, 644033, Note_on_c, 0, 70, 60
2, 644044, Note_on_c, 0, 58, 62
2, 644112, Note_on_c, 0, 31, 0
2, 644113, Note_on_c, 0, 29, 0
2, 644138, Note_on_c, 0, 58, 0
2, 644173, Note_on_c, 0, 41, 0
2, 644221, Control_c, 0, 64, 127
2, 644236, Note_on_c, 0, 63, 0
2, 644311, Note_on_c, 0, 70, 0
2, 644703, Control_c, 0, 64, 0
2, 644814, Note_on_c, 0, 46, 88
2, 644822, Note_on_c, 0, 70, 88
2, 644826, Note_on_c, 0, 34, 71
2, 644832, Note_on_c, 0, 65, 92
2, 644845, Note_on_c, 0, 60, 92
2, 645025, Note_on_c, 0, 46, 0
2, 645064, Note_on_c, 0, 60, 0
2, 645121, Note_on_c, 0, 34, 0
2, 645139, Note_on_c, 0, 65, 0
2, 645202, Note_on_c, 0, 70, 0
2, 645790, Note_on_c, 0, 37, 52
2, 646152, Note_on_c, 0, 37, 0
2, 646185, Note_on_c, 0, 38, 65
2, 646692, Note_on_c, 0, 38, 0
2, 646780, Note_on_c, 0, 34, 65
2, 646897, Control_c, 0, 64, 127
2, 647022, Note_on_c, 0, 34, 0
2, 648222, Note_on_c, 0, 88, 74
2, 648232, Note_on_c, 0, 100, 75
2, 648238, Note_on_c, 0, 106, 80
2, 648303, Note_on_c, 0, 107, 60
2, 648524, Note_on_c, 0, 107, 0
2, 649213, Note_on_c, 0, 100, 0
2, 649236, Note_on_c, 0, 106, 0
2, 649332, Note_on_c, 0, 88, 0
2, 650918, Control_c, 0, 64, 0
2, 650918, End_track
0, 0, End_of_file
