0, 0, Header, 1, 2, 384
1, 0, Start_track
1, 0, Text_t, "YAMAHA DOU 10                   \012"
1, 0, MIDI_port, 0
1, 0, System_exclusive, 5, 126, 127, 9, 1, 247
1, 0, System_exclusive, 8, 67, 115, 1, 17, 15, 89, 0, 247
1, 0, MIDI_port, 0
1, 0, Time_signature, 4, 2, 24, 8
1, 0, Key_signature, 0, "major"
1, 0, Tempo, 500000
1, 0, End_track
2, 0, Start_track
2, 0, MIDI_port, 0
2, 0, Note_on_c, 0, 84, 63
2, 0, Control_c, 0, 64, 127
2, 56, Note_on_c, 0, 84, 0
2, 104, Control_c, 0, 64, 0
2, 144, Note_on_c, 0, 88, 62
2, 148, Note_on_c, 0, 76, 51
2, 160, Note_on_c, 0, 81, 33
2, 192, Note_on_c, 0, 48, 19
2, 208, Note_on_c, 0, 41, 9
2, 212, Control_c, 0, 64, 127
2, 228, Note_on_c, 0, 48, 0
2, 236, Note_on_c, 0, 41, 0
2, 328, Note_on_c, 0, 81, 0
2, 392, Note_on_c, 0, 76, 0
2, 436, Note_on_c, 0, 88, 0
2, 540, Note_on_c, 0, 84, 55
2, 620, Note_on_c, 0, 84, 0
2, 696, Note_on_c, 0, 62, 44
2, 700, Note_on_c, 0, 60, 32
2, 708, Note_on_c, 0, 76, 55
2, 708, Note_on_c, 0, 88, 61
2, 712, Note_on_c, 0, 84, 58
2, 716, Note_on_c, 0, 81, 49
2, 720, Control_c, 0, 64, 0
2, 728, Note_on_c, 0, 53, 26
2, 732, Note_on_c, 0, 62, 0
2, 756, Note_on_c, 0, 60, 0
2, 760, Control_c, 0, 64, 127
2, 768, Note_on_c, 0, 53, 0
2, 848, Note_on_c, 0, 81, 0
2, 852, Note_on_c, 0, 84, 0
2, 864, Note_on_c, 0, 88, 0
2, 904, Note_on_c, 0, 76, 0
2, 1040, Note_on_c, 0, 86, 50
2, 1044, Note_on_c, 0, 80, 37
2, 1052, Note_on_c, 0, 83, 55
2, 1056, Note_on_c, 0, 74, 29
2, 1112, Control_c, 0, 64, 0
2, 1176, Note_on_c, 0, 47, 44
2, 1180, Note_on_c, 0, 56, 27
2, 1204, Control_c, 0, 64, 127
2, 1256, Note_on_c, 0, 47, 0
2, 1280, Note_on_c, 0, 56, 0
2, 1432, Note_on_c, 0, 74, 0
2, 1452, Note_on_c, 0, 80, 0
2, 1488, Note_on_c, 0, 83, 0
2, 1544, Note_on_c, 0, 86, 0
2, 1692, Note_on_c, 0, 80, 49
2, 1708, Note_on_c, 0, 59, 22
2, 1708, Note_on_c, 0, 74, 46
2, 1708, Note_on_c, 0, 62, 20
2, 1712, Note_on_c, 0, 56, 25
2, 1732, Note_on_c, 0, 53, 24
2, 1736, Note_on_c, 0, 80, 0
2, 1740, Note_on_c, 0, 62, 0
2, 1740, Note_on_c, 0, 74, 0
2, 1748, Note_on_c, 0, 59, 0
2, 1784, Note_on_c, 0, 56, 0
2, 1784, Note_on_c, 0, 53, 0
2, 2200, Note_on_c, 0, 58, 49
2, 2204, Note_on_c, 0, 43, 39
2, 2208, Control_c, 0, 64, 0
2, 2268, Control_c, 0, 64, 127
2, 2276, Note_on_c, 0, 50, 15
2, 2320, Note_on_c, 0, 43, 0
2, 2332, Note_on_c, 0, 50, 0
2, 2392, Note_on_c, 0, 58, 0
2, 2648, Note_on_c, 0, 51, 34
2, 2676, Note_on_c, 0, 51, 0
2, 2680, Note_on_c, 0, 52, 55
2, 2716, Note_on_c, 0, 58, 83
2, 2720, Note_on_c, 0, 52, 0
2, 2720, Note_on_c, 0, 62, 84
2, 2720, Note_on_c, 0, 65, 81
2, 2724, Note_on_c, 0, 55, 95
2, 2728, Note_on_c, 0, 53, 69
2, 2748, Control_c, 0, 64, 0
2, 2836, Note_on_c, 0, 53, 0
2, 2888, Control_c, 0, 64, 127
2, 3048, Note_on_c, 0, 62, 0
2, 3092, Note_on_c, 0, 43, 41
2, 3096, Note_on_c, 0, 65, 0
2, 3104, Note_on_c, 0, 55, 0
2, 3112, Note_on_c, 0, 58, 0
2, 3140, Note_on_c, 0, 43, 0
2, 3200, Control_c, 0, 64, 0
2, 3224, Note_on_c, 0, 61, 48
2, 3228, Note_on_c, 0, 55, 63
2, 3228, Note_on_c, 0, 58, 42
2, 3240, Note_on_c, 0, 64, 51
2, 3248, Note_on_c, 0, 36, 36
2, 3256, Control_c, 0, 64, 127
2, 3284, Note_on_c, 0, 36, 0
2, 3312, Note_on_c, 0, 55, 0
2, 3348, Note_on_c, 0, 58, 0
2, 3360, Note_on_c, 0, 64, 0
2, 3376, Note_on_c, 0, 61, 0
2, 3616, Note_on_c, 0, 76, 78
2, 3620, Note_on_c, 0, 68, 81
2, 3620, Note_on_c, 0, 73, 76
2, 3620, Note_on_c, 0, 64, 83
2, 3640, Note_on_c, 0, 74, 58
2, 3664, Note_on_c, 0, 74, 0
2, 3732, Control_c, 0, 64, 0
2, 3756, Note_on_c, 0, 61, 44
2, 3760, Note_on_c, 0, 58, 34
2, 3816, Control_c, 0, 64, 127
2, 3988, Note_on_c, 0, 61, 0
2, 4068, Note_on_c, 0, 76, 0
2, 4084, Note_on_c, 0, 73, 0
2, 4096, Note_on_c, 0, 64, 0
2, 4120, Note_on_c, 0, 68, 0
2, 4276, Note_on_c, 0, 58, 0
2, 4292, Note_on_c, 0, 72, 55
2, 4300, Note_on_c, 0, 67, 57
2, 4300, Note_on_c, 0, 62, 44
2, 4304, Control_c, 0, 64, 0
2, 4304, Note_on_c, 0, 57, 44
2, 4380, Control_c, 0, 64, 127
2, 4404, Note_on_c, 0, 72, 0
2, 4416, Note_on_c, 0, 57, 0
2, 4436, Note_on_c, 0, 67, 0
2, 4472, Note_on_c, 0, 62, 0
2, 4668, Note_on_c, 0, 41, 33
2, 4972, Control_c, 0, 64, 0
2, 5048, Note_on_c, 0, 67, 78
2, 5052, Note_on_c, 0, 64, 70
2, 5056, Note_on_c, 0, 56, 69
2, 5056, Note_on_c, 0, 59, 76
2, 5064, Note_on_c, 0, 65, 67
2, 5140, Control_c, 0, 64, 127
2, 5160, Note_on_c, 0, 65, 0
2, 5160, Note_on_c, 0, 67, 0
2, 5188, Note_on_c, 0, 56, 0
2, 5204, Note_on_c, 0, 59, 0
2, 5204, Note_on_c, 0, 64, 0
2, 5228, Note_on_c, 0, 56, 38
2, 5228, Note_on_c, 0, 67, 68
2, 5236, Note_on_c, 0, 64, 20
2, 5244, Note_on_c, 0, 59, 27
2, 5244, Note_on_c, 0, 65, 53
2, 5252, Note_on_c, 0, 52, 44
2, 5284, Note_on_c, 0, 59, 0
2, 5288, Note_on_c, 0, 64, 0
2, 5288, Note_on_c, 0, 52, 0
2, 5320, Note_on_c, 0, 67, 0
2, 5332, Note_on_c, 0, 65, 0
2, 5332, Note_on_c, 0, 56, 0
2, 5428, Note_on_c, 0, 41, 0
2, 5432, Note_on_c, 0, 65, 44
2, 5440, Note_on_c, 0, 58, 61
2, 5448, Control_c, 0, 64, 0
2, 5456, Note_on_c, 0, 63, 53
2, 5456, Note_on_c, 0, 55, 50
2, 5468, Note_on_c, 0, 48, 37
2, 5572, Control_c, 0, 64, 127
2, 5696, Note_on_c, 0, 58, 0
2, 5700, Note_on_c, 0, 55, 0
2, 5716, Note_on_c, 0, 63, 0
2, 5896, Note_on_c, 0, 65, 0
2, 5928, Note_on_c, 0, 48, 0
2, 5944, Note_on_c, 0, 63, 39
2, 5948, Note_on_c, 0, 47, 36
2, 5952, Note_on_c, 0, 57, 42
2, 5956, Control_c, 0, 64, 0
2, 5968, Note_on_c, 0, 61, 38
2, 6080, Control_c, 0, 64, 127
2, 6164, Note_on_c, 0, 47, 0
2, 6208, Note_on_c, 0, 57, 0
2, 6220, Note_on_c, 0, 61, 0
2, 6248, Note_on_c, 0, 63, 0
2, 6324, Note_on_c, 0, 58, 42
2, 6328, Note_on_c, 0, 62, 53
2, 6344, Note_on_c, 0, 57, 46
2, 6388, Control_c, 0, 64, 0
2, 6448, Note_on_c, 0, 46, 30
2, 6456, Note_on_c, 0, 53, 29
2, 6460, Note_on_c, 0, 57, 0
2, 6476, Note_on_c, 0, 58, 0
2, 6484, Note_on_c, 0, 62, 0
2, 6488, Control_c, 0, 64, 127
2, 6616, Note_on_c, 0, 53, 0
2, 6644, Note_on_c, 0, 69, 62
2, 6652, Note_on_c, 0, 61, 56
2, 6652, Note_on_c, 0, 57, 68
2, 6664, Note_on_c, 0, 64, 69
2, 6672, Control_c, 0, 64, 0
2, 6696, Note_on_c, 0, 53, 37
2, 6772, Control_c, 0, 64, 127
2, 6856, Note_on_c, 0, 64, 0
2, 6868, Note_on_c, 0, 57, 0
2, 6916, Note_on_c, 0, 61, 0
2, 6948, Note_on_c, 0, 69, 0
2, 7008, Note_on_c, 0, 57, 38
2, 7020, Control_c, 0, 64, 0
2, 7024, Note_on_c, 0, 69, 52
2, 7028, Note_on_c, 0, 65, 65
2, 7028, Note_on_c, 0, 62, 58
2, 7084, Control_c, 0, 64, 127
2, 7172, Note_on_c, 0, 57, 0
2, 7204, Note_on_c, 0, 62, 0
2, 7232, Note_on_c, 0, 65, 0
2, 7240, Note_on_c, 0, 69, 0
2, 7284, Note_on_c, 0, 53, 0
2, 7304, Note_on_c, 0, 46, 0
2, 7360, Note_on_c, 0, 67, 33
2, 7380, Note_on_c, 0, 61, 63
2, 7388, Control_c, 0, 64, 0
2, 7392, Note_on_c, 0, 51, 46
2, 7484, Control_c, 0, 64, 127
2, 7516, Note_on_c, 0, 51, 0
2, 7556, Note_on_c, 0, 67, 0
2, 7580, Note_on_c, 0, 61, 0
2, 7768, Note_on_c, 0, 60, 41
2, 7768, Note_on_c, 0, 61, 33
2, 7768, Note_on_c, 0, 55, 59
2, 7776, Note_on_c, 0, 65, 58
2, 7940, Note_on_c, 0, 65, 0
2, 7956, Note_on_c, 0, 60, 0
2, 7988, Note_on_c, 0, 61, 0
2, 7992, Note_on_c, 0, 55, 0
2, 7992, Note_on_c, 0, 69, 78
2, 8084, Note_on_c, 0, 69, 0
2, 8132, Note_on_c, 0, 70, 82
2, 8208, Note_on_c, 0, 70, 0
2, 8264, Note_on_c, 0, 71, 80
2, 8340, Note_on_c, 0, 71, 0
2, 8388, Note_on_c, 0, 74, 82
2, 8472, Note_on_c, 0, 74, 0
2, 8508, Control_c, 0, 64, 0
2, 8516, Note_on_c, 0, 48, 35
2, 8532, Note_on_c, 0, 72, 66
2, 8540, Note_on_c, 0, 41, 17
2, 8544, Note_on_c, 0, 57, 25
2, 8592, Control_c, 0, 64, 127
2, 8612, Note_on_c, 0, 41, 0
2, 8628, Note_on_c, 0, 48, 0
2, 8668, Note_on_c, 0, 57, 0
2, 9048, Note_on_c, 0, 53, 30
2, 9060, Note_on_c, 0, 62, 27
2, 9068, Note_on_c, 0, 57, 24
2, 9072, Note_on_c, 0, 60, 19
2, 9156, Note_on_c, 0, 57, 0
2, 9172, Note_on_c, 0, 53, 0
2, 9172, Note_on_c, 0, 60, 0
2, 9208, Note_on_c, 0, 62, 0
2, 9248, Note_on_c, 0, 72, 0
2, 9592, Note_on_c, 0, 57, 57
2, 9592, Note_on_c, 0, 73, 76
2, 9596, Note_on_c, 0, 66, 64
2, 9596, Note_on_c, 0, 76, 81
2, 9600, Note_on_c, 0, 69, 87
2, 9604, Note_on_c, 0, 62, 45
2, 9608, Control_c, 0, 64, 0
2, 9724, Control_c, 0, 64, 127
2, 9844, Note_on_c, 0, 69, 0
2, 9872, Note_on_c, 0, 57, 0
2, 9920, Note_on_c, 0, 62, 0
2, 9936, Note_on_c, 0, 73, 0
2, 9968, Note_on_c, 0, 66, 0
2, 10024, Note_on_c, 0, 76, 0
2, 10116, Note_on_c, 0, 74, 71
2, 10120, Note_on_c, 0, 67, 54
2, 10120, Note_on_c, 0, 70, 64
2, 10124, Note_on_c, 0, 62, 57
2, 10136, Note_on_c, 0, 56, 39
2, 10152, Control_c, 0, 64, 0
2, 10232, Control_c, 0, 64, 127
2, 10320, Note_on_c, 0, 67, 0
2, 10328, Note_on_c, 0, 62, 0
2, 10384, Note_on_c, 0, 74, 0
2, 10404, Note_on_c, 0, 70, 0
2, 10632, Note_on_c, 0, 65, 54
2, 10640, Note_on_c, 0, 70, 59
2, 10664, Note_on_c, 0, 61, 37
2, 10664, Note_on_c, 0, 60, 39
2, 10668, Control_c, 0, 64, 0
2, 10776, Control_c, 0, 64, 127
2, 10852, Note_on_c, 0, 60, 0
2, 10960, Note_on_c, 0, 65, 0
2, 10972, Note_on_c, 0, 56, 0
2, 10984, Note_on_c, 0, 61, 0
2, 11136, Note_on_c, 0, 65, 51
2, 11140, Note_on_c, 0, 61, 30
2, 11148, Note_on_c, 0, 55, 40
2, 11156, Control_c, 0, 64, 0
2, 11232, Note_on_c, 0, 55, 0
2, 11232, Control_c, 0, 64, 127
2, 11436, Note_on_c, 0, 65, 0
2, 11476, Note_on_c, 0, 45, 48
2, 11484, Note_on_c, 0, 61, 0
2, 11548, Note_on_c, 0, 70, 0
2, 11608, Control_c, 0, 64, 0
2, 11648, Note_on_c, 0, 64, 41
2, 11652, Note_on_c, 0, 60, 31
2, 11652, Note_on_c, 0, 55, 41
2, 11676, Note_on_c, 0, 45, 0
2, 11692, Control_c, 0, 64, 127
2, 11772, Note_on_c, 0, 55, 0
2, 11776, Note_on_c, 0, 60, 0
2, 11784, Note_on_c, 0, 64, 0
2, 11976, Note_on_c, 0, 54, 68
2, 12100, Control_c, 0, 64, 0
2, 12148, Note_on_c, 0, 60, 60
2, 12164, Note_on_c, 0, 64, 51
2, 12164, Note_on_c, 0, 68, 49
2, 12216, Control_c, 0, 64, 127
2, 12276, Note_on_c, 0, 60, 0
2, 12276, Note_on_c, 0, 54, 0
2, 12416, Note_on_c, 0, 68, 0
2, 12432, Note_on_c, 0, 64, 0
2, 12472, Note_on_c, 0, 50, 60
2, 12632, Control_c, 0, 64, 0
2, 12640, Note_on_c, 0, 50, 0
2, 12660, Note_on_c, 0, 69, 53
2, 12664, Note_on_c, 0, 43, 41
2, 12664, Note_on_c, 0, 59, 34
2, 12664, Note_on_c, 0, 53, 51
2, 12668, Note_on_c, 0, 64, 40
2, 12692, Note_on_c, 0, 53, 0
2, 12712, Note_on_c, 0, 59, 0
2, 12736, Control_c, 0, 64, 127
2, 12740, Note_on_c, 0, 43, 0
2, 12760, Note_on_c, 0, 64, 0
2, 12812, Note_on_c, 0, 69, 0
2, 13136, Note_on_c, 0, 65, 50
2, 13140, Note_on_c, 0, 54, 44
2, 13140, Note_on_c, 0, 60, 42
2, 13168, Control_c, 0, 64, 0
2, 13236, Control_c, 0, 64, 127
2, 13436, Note_on_c, 0, 60, 0
2, 13472, Note_on_c, 0, 65, 0
2, 13560, Note_on_c, 0, 54, 0
2, 13612, Note_on_c, 0, 64, 55
2, 13628, Control_c, 0, 64, 0
2, 13632, Note_on_c, 0, 59, 45
2, 13648, Note_on_c, 0, 53, 34
2, 13712, Control_c, 0, 64, 127
2, 13716, Note_on_c, 0, 59, 0
2, 13716, Note_on_c, 0, 64, 0
2, 13772, Note_on_c, 0, 53, 0
2, 13840, Note_on_c, 0, 81, 68
2, 13852, Note_on_c, 0, 69, 49
2, 13872, Note_on_c, 0, 71, 33
2, 13900, Note_on_c, 0, 71, 0
2, 13900, Note_on_c, 0, 69, 0
2, 13908, Note_on_c, 0, 81, 0
2, 13976, Note_on_c, 0, 81, 64
2, 13980, Note_on_c, 0, 69, 65
2, 14008, Note_on_c, 0, 69, 0
2, 14048, Note_on_c, 0, 81, 0
2, 14100, Note_on_c, 0, 43, 52
2, 14104, Control_c, 0, 64, 0
2, 14132, Note_on_c, 0, 86, 80
2, 14184, Control_c, 0, 64, 127
2, 14200, Note_on_c, 0, 43, 0
2, 14228, Note_on_c, 0, 86, 0
2, 14296, Note_on_c, 0, 86, 66
2, 14380, Note_on_c, 0, 86, 0
2, 14444, Note_on_c, 0, 79, 64
2, 14520, Note_on_c, 0, 81, 45
2, 14544, Note_on_c, 0, 79, 0
2, 14572, Note_on_c, 0, 57, 36
2, 14576, Control_c, 0, 64, 0
2, 14580, Note_on_c, 0, 62, 34
2, 14588, Note_on_c, 0, 58, 32
2, 14592, Note_on_c, 0, 81, 0
2, 14640, Note_on_c, 0, 79, 55
2, 14712, Control_c, 0, 64, 127
2, 14772, Note_on_c, 0, 57, 0
2, 14896, Note_on_c, 0, 62, 0
2, 14912, Note_on_c, 0, 52, 48
2, 14920, Note_on_c, 0, 79, 0
2, 14960, Note_on_c, 0, 58, 0
2, 15096, Note_on_c, 0, 74, 50
2, 15108, Note_on_c, 0, 62, 46
2, 15112, Note_on_c, 0, 58, 28
2, 15140, Note_on_c, 0, 62, 0
2, 15160, Note_on_c, 0, 52, 0
2, 15172, Note_on_c, 0, 58, 0
2, 15208, Note_on_c, 0, 74, 0
2, 15400, Note_on_c, 0, 48, 64
2, 15516, Control_c, 0, 64, 0
2, 15576, Note_on_c, 0, 58, 46
2, 15580, Note_on_c, 0, 70, 53
2, 15584, Note_on_c, 0, 76, 41
2, 15588, Note_on_c, 0, 73, 38
2, 15592, Note_on_c, 0, 64, 38
2, 15644, Control_c, 0, 64, 127
2, 15700, Note_on_c, 0, 58, 0
2, 15708, Note_on_c, 0, 76, 0
2, 15720, Note_on_c, 0, 48, 0
2, 15740, Note_on_c, 0, 70, 0
2, 15748, Note_on_c, 0, 73, 0
2, 15760, Note_on_c, 0, 64, 0
2, 15900, Note_on_c, 0, 48, 58
2, 15940, Note_on_c, 0, 48, 0
2, 16100, Control_c, 0, 64, 0
2, 16272, Note_on_c, 0, 63, 55
2, 16280, Note_on_c, 0, 58, 43
2, 16284, Note_on_c, 0, 56, 49
2, 16292, Note_on_c, 0, 52, 41
2, 16292, Note_on_c, 0, 42, 48
2, 16300, Note_on_c, 0, 49, 43
2, 16340, Control_c, 0, 64, 127
2, 16416, Note_on_c, 0, 52, 0
2, 16452, Note_on_c, 0, 58, 0
2, 16480, Note_on_c, 0, 63, 0
2, 16492, Note_on_c, 0, 56, 0
2, 16512, Note_on_c, 0, 49, 0
2, 16532, Note_on_c, 0, 42, 0
2, 16648, Note_on_c, 0, 64, 55
2, 16656, Note_on_c, 0, 56, 55
2, 16660, Control_c, 0, 64, 0
2, 16664, Note_on_c, 0, 52, 62
2, 16668, Note_on_c, 0, 59, 56
2, 16672, Note_on_c, 0, 48, 53
2, 16680, Note_on_c, 0, 41, 43
2, 16808, Control_c, 0, 64, 127
2, 16936, Note_on_c, 0, 52, 0
2, 16996, Note_on_c, 0, 59, 0
2, 17024, Note_on_c, 0, 56, 0
2, 17052, Note_on_c, 0, 64, 0
2, 17172, Note_on_c, 0, 48, 0
2, 17184, Note_on_c, 0, 62, 43
2, 17196, Note_on_c, 0, 55, 40
2, 17204, Note_on_c, 0, 57, 51
2, 17208, Control_c, 0, 64, 0
2, 17208, Note_on_c, 0, 60, 58
2, 17212, Note_on_c, 0, 50, 41
2, 17316, Note_on_c, 0, 41, 0
2, 17340, Control_c, 0, 64, 127
2, 17484, Note_on_c, 0, 57, 0
2, 17508, Note_on_c, 0, 60, 0
2, 17528, Note_on_c, 0, 55, 0
2, 17536, Note_on_c, 0, 50, 0
2, 17604, Note_on_c, 0, 62, 0
2, 17684, Control_c, 0, 64, 0
2, 17708, Note_on_c, 0, 44, 47
2, 17712, Note_on_c, 0, 56, 30
2, 17712, Note_on_c, 0, 59, 44
2, 17720, Note_on_c, 0, 50, 17
2, 17728, Note_on_c, 0, 53, 38
2, 17772, Note_on_c, 0, 53, 0
2, 17784, Control_c, 0, 64, 127
2, 17820, Note_on_c, 0, 50, 0
2, 17828, Note_on_c, 0, 59, 0
2, 17828, Note_on_c, 0, 56, 0
2, 17852, Note_on_c, 0, 44, 0
2, 18060, Note_on_c, 0, 74, 89
2, 18220, Note_on_c, 0, 74, 0
2, 18220, Note_on_c, 0, 62, 35
2, 18228, Note_on_c, 0, 56, 29
2, 18248, Note_on_c, 0, 65, 43
2, 18252, Note_on_c, 0, 62, 0
2, 18272, Control_c, 0, 64, 0
2, 18280, Note_on_c, 0, 65, 0
2, 18308, Control_c, 0, 64, 127
2, 18324, Note_on_c, 0, 56, 0
2, 18364, Note_on_c, 0, 68, 60
2, 18428, Note_on_c, 0, 68, 0
2, 18492, Note_on_c, 0, 71, 68
2, 18556, Note_on_c, 0, 71, 0
2, 18604, Note_on_c, 0, 74, 80
2, 18708, Note_on_c, 0, 74, 0
2, 18716, Control_c, 0, 64, 0
2, 18732, Note_on_c, 0, 43, 44
2, 18744, Note_on_c, 0, 50, 35
2, 18756, Note_on_c, 0, 70, 49
2, 18816, Note_on_c, 0, 43, 0
2, 18832, Control_c, 0, 64, 127
2, 18848, Note_on_c, 0, 50, 0
2, 18984, Note_on_c, 0, 70, 0
2, 19256, Note_on_c, 0, 62, 41
2, 19264, Note_on_c, 0, 58, 33
2, 19272, Note_on_c, 0, 60, 35
2, 19296, Note_on_c, 0, 62, 0
2, 19308, Note_on_c, 0, 60, 0
2, 19344, Note_on_c, 0, 58, 0
2, 19788, Note_on_c, 0, 58, 45
2, 19796, Note_on_c, 0, 48, 54
2, 19904, Note_on_c, 0, 48, 0
2, 19972, Note_on_c, 0, 58, 0
2, 20316, Note_on_c, 0, 61, 48
2, 20316, Note_on_c, 0, 58, 35
2, 20324, Note_on_c, 0, 64, 24
2, 20528, Note_on_c, 0, 64, 0
2, 20536, Note_on_c, 0, 58, 0
2, 20596, Note_on_c, 0, 61, 0
2, 20760, Note_on_c, 0, 61, 17
2, 20796, Note_on_c, 0, 62, 62
2, 20836, Control_c, 0, 64, 0
2, 20836, Note_on_c, 0, 79, 90
2, 20840, Note_on_c, 0, 64, 80
2, 20840, Note_on_c, 0, 72, 84
2, 20840, Note_on_c, 0, 69, 90
2, 20868, Note_on_c, 0, 62, 0
2, 20936, Note_on_c, 0, 61, 0
2, 20976, Control_c, 0, 64, 127
2, 21196, Note_on_c, 0, 72, 0
2, 21204, Note_on_c, 0, 69, 0
2, 21220, Note_on_c, 0, 79, 0
2, 21312, Note_on_c, 0, 64, 0
2, 21348, Note_on_c, 0, 79, 65
2, 21356, Note_on_c, 0, 62, 54
2, 21356, Note_on_c, 0, 72, 66
2, 21360, Note_on_c, 0, 69, 64
2, 21504, Note_on_c, 0, 62, 0
2, 21616, Note_on_c, 0, 72, 0
2, 21624, Note_on_c, 0, 69, 0
2, 21628, Note_on_c, 0, 79, 0
2, 21864, Note_on_c, 0, 63, 49
2, 21864, Note_on_c, 0, 77, 68
2, 21876, Note_on_c, 0, 73, 52
2, 21880, Note_on_c, 0, 70, 39
2, 21884, Control_c, 0, 64, 0
2, 21884, Note_on_c, 0, 67, 37
2, 21892, Note_on_c, 0, 58, 35
2, 21984, Control_c, 0, 64, 127
2, 22020, Note_on_c, 0, 63, 0
2, 22044, Note_on_c, 0, 77, 0
2, 22048, Note_on_c, 0, 58, 0
2, 22092, Note_on_c, 0, 73, 0
2, 22096, Note_on_c, 0, 67, 0
2, 22100, Note_on_c, 0, 70, 0
2, 22384, Control_c, 0, 64, 0
2, 22384, Note_on_c, 0, 69, 55
2, 22388, Note_on_c, 0, 65, 55
2, 22396, Note_on_c, 0, 61, 26
2, 22424, Note_on_c, 0, 57, 20
2, 22492, Control_c, 0, 64, 127
2, 22576, Note_on_c, 0, 69, 0
2, 22604, Note_on_c, 0, 65, 0
2, 22676, Note_on_c, 0, 57, 0
2, 22688, Note_on_c, 0, 61, 0
2, 22884, Control_c, 0, 64, 0
2, 22884, Note_on_c, 0, 46, 33
2, 22888, Note_on_c, 0, 57, 34
2, 22892, Note_on_c, 0, 65, 36
2, 22900, Note_on_c, 0, 62, 38
2, 22912, Note_on_c, 0, 53, 24
2, 22984, Control_c, 0, 64, 127
2, 22996, Note_on_c, 0, 57, 0
2, 23008, Note_on_c, 0, 53, 0
2, 23028, Note_on_c, 0, 62, 0
2, 23048, Note_on_c, 0, 65, 0
2, 23052, Note_on_c, 0, 46, 0
2, 23388, Note_on_c, 0, 69, 82
2, 23408, Note_on_c, 0, 65, 39
2, 23424, Note_on_c, 0, 61, 21
2, 23432, Note_on_c, 0, 60, 22
2, 23440, Note_on_c, 0, 65, 0
2, 23460, Control_c, 0, 64, 0
2, 23464, Note_on_c, 0, 69, 0
2, 23464, Note_on_c, 0, 60, 0
2, 23496, Note_on_c, 0, 61, 0
2, 23524, Note_on_c, 0, 70, 57
2, 23588, Note_on_c, 0, 70, 0
2, 23644, Note_on_c, 0, 71, 60
2, 23648, Control_c, 0, 64, 127
2, 23704, Note_on_c, 0, 71, 0
2, 23768, Note_on_c, 0, 72, 68
2, 23852, Note_on_c, 0, 72, 0
2, 23868, Note_on_c, 0, 39, 40
2, 23876, Control_c, 0, 64, 0
2, 23892, Note_on_c, 0, 46, 26
2, 23916, Note_on_c, 0, 69, 36
2, 23956, Note_on_c, 0, 69, 0
2, 23964, Note_on_c, 0, 39, 0
2, 23972, Control_c, 0, 64, 127
2, 24084, Note_on_c, 0, 61, 19
2, 24316, Note_on_c, 0, 61, 0
2, 24408, Note_on_c, 0, 61, 18
2, 24412, Note_on_c, 0, 55, 38
2, 24412, Note_on_c, 0, 65, 40
2, 24460, Note_on_c, 0, 46, 0
2, 24604, Note_on_c, 0, 65, 0
2, 24612, Note_on_c, 0, 55, 0
2, 24716, Note_on_c, 0, 51, 37
2, 24732, Note_on_c, 0, 61, 0
2, 24800, Note_on_c, 0, 51, 0
2, 24872, Control_c, 0, 64, 0
2, 24876, Note_on_c, 0, 52, 44
2, 24884, Note_on_c, 0, 67, 49
2, 24888, Note_on_c, 0, 62, 41
2, 24888, Note_on_c, 0, 72, 37
2, 25008, Control_c, 0, 64, 127
2, 25120, Note_on_c, 0, 62, 0
2, 25208, Note_on_c, 0, 41, 76
2, 25324, Note_on_c, 0, 41, 0
2, 25348, Note_on_c, 0, 67, 0
2, 25360, Note_on_c, 0, 52, 0
2, 25372, Note_on_c, 0, 72, 0
2, 25916, Note_on_c, 0, 66, 81
2, 25916, Note_on_c, 0, 73, 92
2, 25920, Note_on_c, 0, 64, 72
2, 25924, Note_on_c, 0, 76, 89
2, 25928, Control_c, 0, 64, 0
2, 25928, Note_on_c, 0, 69, 96
2, 25928, Note_on_c, 0, 62, 68
2, 26088, Control_c, 0, 64, 127
2, 26636, Note_on_c, 0, 74, 74
2, 26648, Note_on_c, 0, 64, 0
2, 26676, Note_on_c, 0, 62, 0
2, 26696, Note_on_c, 0, 76, 0
2, 26712, Note_on_c, 0, 66, 0
2, 26728, Note_on_c, 0, 73, 0
2, 26748, Note_on_c, 0, 69, 0
2, 26920, Note_on_c, 0, 74, 0
2, 26960, Note_on_c, 0, 70, 50
2, 26960, Note_on_c, 0, 73, 49
2, 26972, Note_on_c, 0, 65, 44
2, 26980, Note_on_c, 0, 61, 29
2, 26992, Note_on_c, 0, 60, 43
2, 27004, Control_c, 0, 64, 0
2, 27196, Control_c, 0, 64, 127
2, 27308, Note_on_c, 0, 56, 57
2, 27328, Note_on_c, 0, 60, 0
2, 27472, Note_on_c, 0, 56, 0
2, 27564, Note_on_c, 0, 65, 0
2, 27592, Note_on_c, 0, 70, 0
2, 27596, Note_on_c, 0, 73, 0
2, 27600, Note_on_c, 0, 61, 0
2, 27732, Note_on_c, 0, 56, 75
2, 27772, Control_c, 0, 64, 0
2, 27820, Control_c, 0, 64, 127
2, 27876, Note_on_c, 0, 46, 57
2, 27968, Note_on_c, 0, 56, 0
2, 28004, Note_on_c, 0, 46, 0
2, 28052, Note_on_c, 0, 64, 51
2, 28056, Control_c, 0, 64, 0
2, 28060, Note_on_c, 0, 55, 60
2, 28060, Note_on_c, 0, 60, 39
2, 28072, Note_on_c, 0, 45, 44
2, 28164, Control_c, 0, 64, 127
2, 28168, Note_on_c, 0, 45, 0
2, 28252, Note_on_c, 0, 55, 0
2, 28316, Note_on_c, 0, 64, 0
2, 28340, Note_on_c, 0, 60, 0
2, 28544, Note_on_c, 0, 68, 48
2, 28556, Note_on_c, 0, 60, 38
2, 28560, Note_on_c, 0, 64, 41
2, 28564, Note_on_c, 0, 57, 38
2, 28568, Control_c, 0, 64, 0
2, 28572, Note_on_c, 0, 50, 50
2, 28636, Note_on_c, 0, 57, 0
2, 28676, Note_on_c, 0, 50, 0
2, 28680, Control_c, 0, 64, 127
2, 28804, Note_on_c, 0, 64, 0
2, 28808, Note_on_c, 0, 68, 0
2, 28852, Note_on_c, 0, 60, 0
2, 28876, Note_on_c, 0, 43, 42
2, 29044, Control_c, 0, 64, 0
2, 29052, Note_on_c, 0, 53, 43
2, 29068, Note_on_c, 0, 59, 46
2, 29300, Note_on_c, 0, 53, 0
2, 29320, Control_c, 0, 64, 127
2, 29368, Note_on_c, 0, 61, 75
2, 29436, Note_on_c, 0, 59, 0
2, 29512, Note_on_c, 0, 61, 0
2, 29536, Note_on_c, 0, 62, 59
2, 29548, Note_on_c, 0, 43, 0
2, 29576, Control_c, 0, 64, 0
2, 29616, Note_on_c, 0, 62, 0
2, 29676, Note_on_c, 0, 65, 60
2, 29744, Control_c, 0, 64, 127
2, 29768, Note_on_c, 0, 65, 0
2, 29832, Note_on_c, 0, 68, 77
2, 29920, Note_on_c, 0, 68, 0
2, 30012, Note_on_c, 0, 69, 63
2, 30016, Control_c, 0, 64, 0
2, 30016, Note_on_c, 0, 36, 45
2, 30016, Note_on_c, 0, 61, 61
2, 30040, Note_on_c, 0, 61, 0
2, 30044, Note_on_c, 0, 62, 57
2, 30116, Note_on_c, 0, 36, 0
2, 30168, Control_c, 0, 64, 127
2, 30240, Note_on_c, 0, 62, 0
2, 30268, Note_on_c, 0, 69, 0
2, 30368, Note_on_c, 0, 69, 58
2, 30368, Note_on_c, 0, 66, 50
2, 30372, Note_on_c, 0, 62, 65
2, 30380, Note_on_c, 0, 57, 41
2, 30384, Note_on_c, 0, 48, 49
2, 30392, Note_on_c, 0, 58, 34
2, 30404, Control_c, 0, 64, 0
2, 30460, Note_on_c, 0, 58, 0
2, 30512, Control_c, 0, 64, 127
2, 30520, Note_on_c, 0, 48, 0
2, 30536, Note_on_c, 0, 57, 0
2, 30548, Note_on_c, 0, 62, 0
2, 30556, Note_on_c, 0, 66, 0
2, 30572, Note_on_c, 0, 69, 0
2, 30628, Control_c, 0, 64, 0
2, 30696, Note_on_c, 0, 66, 49
2, 30700, Note_on_c, 0, 62, 58
2, 30704, Note_on_c, 0, 69, 40
2, 30712, Note_on_c, 0, 57, 51
2, 30720, Note_on_c, 0, 48, 34
2, 30728, Control_c, 0, 64, 127
2, 30772, Note_on_c, 0, 69, 0
2, 30784, Note_on_c, 0, 62, 0
2, 30824, Note_on_c, 0, 66, 0
2, 30840, Note_on_c, 0, 57, 0
2, 30912, Note_on_c, 0, 48, 0
2, 31028, Note_on_c, 0, 65, 43
2, 31036, Note_on_c, 0, 60, 46
2, 31040, Note_on_c, 0, 55, 40
2, 31040, Note_on_c, 0, 57, 36
2, 31052, Control_c, 0, 64, 0
2, 31232, Note_on_c, 0, 48, 67
2, 31272, Note_on_c, 0, 48, 0
2, 31360, Control_c, 0, 64, 127
2, 31468, Control_c, 0, 64, 0
2, 31576, Note_on_c, 0, 48, 73
2, 31576, Control_c, 0, 64, 127
2, 31780, Note_on_c, 0, 55, 0
2, 31900, Note_on_c, 0, 57, 0
2, 31948, Note_on_c, 0, 60, 0
2, 31988, Note_on_c, 0, 65, 0
2, 32060, Note_on_c, 0, 48, 0
2, 32100, Note_on_c, 0, 63, 40
2, 32100, Note_on_c, 0, 57, 51
2, 32112, Note_on_c, 0, 65, 43
2, 32116, Note_on_c, 0, 47, 41
2, 32124, Note_on_c, 0, 61, 42
2, 32132, Control_c, 0, 64, 0
2, 32244, Control_c, 0, 64, 127
2, 32380, Note_on_c, 0, 57, 0
2, 32500, Note_on_c, 0, 61, 0
2, 32576, Note_on_c, 0, 63, 0
2, 32624, Note_on_c, 0, 61, 37
2, 32632, Note_on_c, 0, 57, 43
2, 32768, Note_on_c, 0, 47, 0
2, 32796, Note_on_c, 0, 57, 0
2, 32836, Note_on_c, 0, 65, 0
2, 32888, Note_on_c, 0, 61, 0
2, 33076, Control_c, 0, 64, 0
2, 33112, Note_on_c, 0, 46, 45
2, 33132, Control_c, 0, 64, 127
2, 33184, Note_on_c, 0, 46, 0
2, 33444, Note_on_c, 0, 79, 81
2, 33452, Note_on_c, 0, 74, 80
2, 33456, Note_on_c, 0, 67, 75
2, 33560, Note_on_c, 0, 67, 0
2, 33572, Note_on_c, 0, 79, 0
2, 33596, Note_on_c, 0, 74, 0
2, 33596, Note_on_c, 0, 62, 51
2, 33608, Control_c, 0, 64, 0
2, 33616, Note_on_c, 0, 60, 37
2, 33624, Note_on_c, 0, 78, 33
2, 33644, Note_on_c, 0, 62, 0
2, 33652, Note_on_c, 0, 78, 0
2, 33652, Note_on_c, 0, 60, 0
2, 33760, Note_on_c, 0, 78, 40
2, 33784, Note_on_c, 0, 66, 30
2, 33816, Note_on_c, 0, 78, 0
2, 33816, Control_c, 0, 64, 127
2, 33820, Note_on_c, 0, 66, 0
2, 33916, Note_on_c, 0, 79, 56
2, 33916, Note_on_c, 0, 67, 58
2, 33932, Note_on_c, 0, 74, 43
2, 33944, Note_on_c, 0, 67, 0
2, 33956, Note_on_c, 0, 79, 0
2, 34012, Note_on_c, 0, 74, 0
2, 34052, Note_on_c, 0, 38, 52
2, 34072, Note_on_c, 0, 80, 62
2, 34080, Control_c, 0, 64, 0
2, 34088, Note_on_c, 0, 38, 0
2, 34172, Note_on_c, 0, 68, 56
2, 34228, Note_on_c, 0, 80, 0
2, 34236, Note_on_c, 0, 68, 0
2, 34264, Note_on_c, 0, 69, 43
2, 34304, Note_on_c, 0, 69, 0
2, 34316, Note_on_c, 0, 81, 56
2, 34384, Note_on_c, 0, 69, 45
2, 34392, Note_on_c, 0, 81, 0
2, 34408, Control_c, 0, 64, 127
2, 34464, Note_on_c, 0, 69, 0
2, 34508, Control_c, 0, 64, 0
2, 34520, Note_on_c, 0, 65, 40
2, 34528, Note_on_c, 0, 60, 39
2, 34532, Note_on_c, 0, 54, 35
2, 34556, Note_on_c, 0, 65, 0
2, 34560, Note_on_c, 0, 60, 0
2, 34612, Note_on_c, 0, 54, 0
2, 34664, Control_c, 0, 64, 127
2, 34836, Note_on_c, 0, 50, 46
2, 34840, Note_on_c, 0, 84, 83
2, 34840, Note_on_c, 0, 72, 71
2, 34972, Note_on_c, 0, 72, 0
2, 35000, Note_on_c, 0, 84, 0
2, 35008, Note_on_c, 0, 43, 50
2, 35024, Control_c, 0, 64, 0
2, 35028, Note_on_c, 0, 50, 0
2, 35064, Note_on_c, 0, 43, 0
2, 35072, Note_on_c, 0, 82, 52
2, 35112, Control_c, 0, 64, 127
2, 35212, Note_on_c, 0, 82, 0
2, 35392, Note_on_c, 0, 84, 68
2, 35442, Note_on_c, 0, 82, 43
2, 35508, Note_on_c, 0, 81, 62
2, 35512, Note_on_c, 0, 84, 0
2, 35512, Note_on_c, 0, 62, 33
2, 35520, Control_c, 0, 64, 0
2, 35524, Note_on_c, 0, 54, 33
2, 35540, Note_on_c, 0, 58, 26
2, 35616, Note_on_c, 0, 81, 0
2, 35724, Control_c, 0, 64, 127
2, 35748, Note_on_c, 0, 54, 0
2, 35826, Note_on_c, 0, 82, 0
2, 35828, Note_on_c, 0, 62, 0
2, 35868, Note_on_c, 0, 58, 0
2, 35896, Note_on_c, 0, 84, 75
2, 36020, Control_c, 0, 64, 0
2, 36028, Note_on_c, 0, 63, 38
2, 36036, Note_on_c, 0, 55, 43
2, 36048, Note_on_c, 0, 60, 20
2, 36100, Note_on_c, 0, 60, 0
2, 36104, Control_c, 0, 64, 127
2, 36120, Note_on_c, 0, 55, 0
2, 36124, Note_on_c, 0, 63, 0
2, 36380, Note_on_c, 0, 51, 57
2, 36448, Note_on_c, 0, 51, 0
2, 36520, Control_c, 0, 64, 0
2, 36536, Note_on_c, 0, 60, 47
2, 36544, Note_on_c, 0, 72, 50
2, 36556, Note_on_c, 0, 50, 38
2, 36584, Note_on_c, 0, 60, 0
2, 36604, Control_c, 0, 64, 127
2, 36628, Note_on_c, 0, 50, 0
2, 36824, Note_on_c, 0, 72, 0
2, 36868, Note_on_c, 0, 84, 0
2, 36884, Note_on_c, 0, 50, 68
2, 37004, Note_on_c, 0, 50, 0
2, 37012, Control_c, 0, 64, 0
2, 37040, Note_on_c, 0, 43, 60
2, 37048, Note_on_c, 0, 86, 69
2, 37056, Note_on_c, 0, 74, 66
2, 37064, Note_on_c, 0, 79, 46
2, 37084, Note_on_c, 0, 82, 31
2, 37116, Note_on_c, 0, 43, 0
2, 37172, Note_on_c, 0, 74, 0
2, 37196, Note_on_c, 0, 86, 0
2, 37204, Note_on_c, 0, 79, 0
2, 37220, Note_on_c, 0, 82, 0
2, 37384, Note_on_c, 0, 85, 58
2, 37396, Control_c, 0, 64, 127
2, 37400, Note_on_c, 0, 73, 62
2, 37428, Note_on_c, 0, 82, 31
2, 37436, Note_on_c, 0, 79, 30
2, 37468, Note_on_c, 0, 73, 0
2, 37488, Note_on_c, 0, 79, 0
2, 37520, Note_on_c, 0, 58, 39
2, 37524, Note_on_c, 0, 82, 0
2, 37524, Note_on_c, 0, 62, 48
2, 37528, Note_on_c, 0, 55, 46
2, 37552, Control_c, 0, 64, 0
2, 37572, Note_on_c, 0, 73, 46
2, 37640, Note_on_c, 0, 73, 0
2, 37640, Note_on_c, 0, 85, 0
2, 37656, Note_on_c, 0, 74, 59
2, 37696, Note_on_c, 0, 62, 0
2, 37720, Note_on_c, 0, 74, 0
2, 37720, Note_on_c, 0, 86, 41
2, 37800, Note_on_c, 0, 86, 0
2, 37800, Note_on_c, 0, 74, 51
2, 37852, Note_on_c, 0, 55, 0
2, 37860, Control_c, 0, 64, 127
2, 37872, Note_on_c, 0, 74, 0
2, 37880, Note_on_c, 0, 86, 46
2, 37952, Note_on_c, 0, 86, 0
2, 38024, Note_on_c, 0, 54, 50
2, 38028, Control_c, 0, 64, 0
2, 38036, Note_on_c, 0, 62, 48
2, 38260, Control_c, 0, 64, 127
2, 38324, Note_on_c, 0, 62, 0
2, 38356, Note_on_c, 0, 82, 43
2, 38380, Note_on_c, 0, 70, 55
2, 38384, Note_on_c, 0, 77, 60
2, 38388, Note_on_c, 0, 54, 0
2, 38424, Note_on_c, 0, 58, 0
2, 38484, Control_c, 0, 64, 0
2, 38516, Note_on_c, 0, 62, 38
2, 38516, Note_on_c, 0, 58, 19
2, 38520, Note_on_c, 0, 53, 52
2, 38524, Control_c, 0, 64, 127
2, 38560, Note_on_c, 0, 62, 0
2, 38572, Note_on_c, 0, 77, 0
2, 38576, Note_on_c, 0, 82, 0
2, 38596, Note_on_c, 0, 70, 0
2, 38596, Note_on_c, 0, 53, 0
2, 38600, Note_on_c, 0, 58, 0
2, 39008, Control_c, 0, 64, 0
2, 39032, Note_on_c, 0, 39, 50
2, 39036, Note_on_c, 0, 69, 82
2, 39048, Note_on_c, 0, 65, 80
2, 39048, Note_on_c, 0, 46, 54
2, 39052, Note_on_c, 0, 61, 75
2, 39124, Control_c, 0, 64, 127
2, 39132, Note_on_c, 0, 39, 0
2, 39168, Note_on_c, 0, 69, 0
2, 39180, Note_on_c, 0, 46, 0
2, 39188, Note_on_c, 0, 61, 0
2, 39200, Note_on_c, 0, 65, 0
2, 39220, Note_on_c, 0, 72, 68
2, 39276, Note_on_c, 0, 72, 0
2, 39384, Note_on_c, 0, 77, 88
2, 39436, Note_on_c, 0, 77, 0
2, 39548, Note_on_c, 0, 84, 87
2, 39608, Note_on_c, 0, 84, 0
2, 39712, Note_on_c, 0, 89, 61
2, 39756, Note_on_c, 0, 89, 0
2, 39868, Note_on_c, 0, 96, 91
2, 39976, Note_on_c, 0, 96, 0
2, 40024, Control_c, 0, 64, 0
2, 40036, Note_on_c, 0, 50, 44
2, 40048, Note_on_c, 0, 54, 37
2, 40064, Note_on_c, 0, 50, 0
2, 40076, Note_on_c, 0, 54, 0
2, 40196, Note_on_c, 0, 60, 59
2, 40200, Note_on_c, 0, 65, 71
2, 40204, Note_on_c, 0, 54, 64
2, 40316, Control_c, 0, 64, 127
2, 40400, Note_on_c, 0, 65, 0
2, 40428, Note_on_c, 0, 60, 0
2, 40452, Note_on_c, 0, 54, 0
2, 40532, Control_c, 0, 64, 0
2, 40544, Note_on_c, 0, 54, 78
2, 40560, Note_on_c, 0, 44, 71
2, 40688, Control_c, 0, 64, 127
2, 40792, Note_on_c, 0, 54, 0
2, 40808, Note_on_c, 0, 44, 0
2, 40872, Note_on_c, 0, 43, 75
2, 40876, Note_on_c, 0, 53, 77
2, 40900, Control_c, 0, 64, 0
2, 41064, Control_c, 0, 64, 127
2, 41216, Control_c, 0, 64, 0
2, 41228, Note_on_c, 0, 43, 0
2, 41232, Note_on_c, 0, 67, 60
2, 41244, Note_on_c, 0, 62, 57
2, 41264, Note_on_c, 0, 59, 33
2, 41304, Note_on_c, 0, 59, 0
2, 41308, Note_on_c, 0, 67, 0
2, 41320, Note_on_c, 0, 62, 0
2, 41348, Control_c, 0, 64, 127
2, 41368, Note_on_c, 0, 53, 0
2, 41380, Note_on_c, 0, 52, 72
2, 41504, Control_c, 0, 64, 0
2, 41520, Note_on_c, 0, 52, 0
2, 41556, Note_on_c, 0, 67, 62
2, 41556, Note_on_c, 0, 62, 63
2, 41564, Note_on_c, 0, 53, 44
2, 41564, Note_on_c, 0, 59, 52
2, 41640, Control_c, 0, 64, 127
2, 41816, Note_on_c, 0, 59, 0
2, 41852, Note_on_c, 0, 62, 0
2, 41856, Note_on_c, 0, 67, 0
2, 41868, Note_on_c, 0, 53, 0
2, 41868, Note_on_c, 0, 43, 60
2, 42048, Control_c, 0, 64, 0
2, 42244, Note_on_c, 0, 69, 58
2, 42244, Note_on_c, 0, 64, 70
2, 42248, Note_on_c, 0, 60, 57
2, 42332, Note_on_c, 0, 60, 0
2, 42360, Note_on_c, 0, 64, 0
2, 42376, Note_on_c, 0, 69, 0
2, 42400, Note_on_c, 0, 55, 56
2, 42428, Note_on_c, 0, 55, 0
2, 42432, Control_c, 0, 64, 127
2, 42504, Control_c, 0, 64, 0
2, 42560, Note_on_c, 0, 69, 66
2, 42568, Note_on_c, 0, 64, 68
2, 42572, Note_on_c, 0, 60, 58
2, 42592, Note_on_c, 0, 55, 66
2, 42716, Note_on_c, 0, 43, 0
2, 42804, Control_c, 0, 64, 127
2, 42820, Note_on_c, 0, 60, 0
2, 42848, Note_on_c, 0, 64, 0
2, 42856, Note_on_c, 0, 55, 0
2, 42864, Note_on_c, 0, 69, 0
2, 42900, Note_on_c, 0, 43, 57
2, 43072, Control_c, 0, 64, 0
2, 43088, Note_on_c, 0, 71, 57
2, 43092, Note_on_c, 0, 63, 53
2, 43096, Note_on_c, 0, 59, 57
2, 43096, Note_on_c, 0, 67, 53
2, 43108, Note_on_c, 0, 53, 55
2, 43172, Note_on_c, 0, 43, 0
2, 43204, Control_c, 0, 64, 127
2, 43228, Note_on_c, 0, 53, 0
2, 43280, Note_on_c, 0, 59, 0
2, 43364, Note_on_c, 0, 67, 0
2, 43384, Note_on_c, 0, 63, 0
2, 43424, Note_on_c, 0, 71, 0
2, 43600, Note_on_c, 0, 57, 45
2, 43604, Note_on_c, 0, 53, 44
2, 43608, Note_on_c, 0, 71, 50
2, 43608, Note_on_c, 0, 67, 52
2, 43612, Note_on_c, 0, 63, 59
2, 43652, Control_c, 0, 64, 0
2, 43696, Note_on_c, 0, 53, 0
2, 43712, Control_c, 0, 64, 127
2, 43716, Note_on_c, 0, 57, 0
2, 43844, Note_on_c, 0, 67, 0
2, 43844, Note_on_c, 0, 63, 0
2, 43884, Note_on_c, 0, 71, 0
2, 44132, Note_on_c, 0, 68, 64
2, 44136, Note_on_c, 0, 74, 68
2, 44136, Note_on_c, 0, 71, 58
2, 44140, Note_on_c, 0, 64, 69
2, 44144, Note_on_c, 0, 59, 58
2, 44152, Note_on_c, 0, 53, 33
2, 44164, Control_c, 0, 64, 0
2, 44328, Control_c, 0, 64, 127
2, 44420, Note_on_c, 0, 53, 0
2, 44468, Note_on_c, 0, 59, 0
2, 44492, Note_on_c, 0, 64, 0
2, 44508, Note_on_c, 0, 68, 0
2, 44516, Note_on_c, 0, 71, 0
2, 44516, Note_on_c, 0, 74, 0
2, 44676, Note_on_c, 0, 68, 51
2, 44676, Note_on_c, 0, 71, 50
2, 44680, Note_on_c, 0, 74, 52
2, 44680, Note_on_c, 0, 59, 53
2, 44684, Note_on_c, 0, 64, 57
2, 44700, Note_on_c, 0, 53, 34
2, 44736, Control_c, 0, 64, 0
2, 44780, Control_c, 0, 64, 127
2, 44876, Note_on_c, 0, 53, 0
2, 44920, Note_on_c, 0, 59, 0
2, 44944, Note_on_c, 0, 64, 0
2, 45024, Note_on_c, 0, 74, 0
2, 45028, Note_on_c, 0, 68, 0
2, 45052, Note_on_c, 0, 71, 0
2, 45208, Note_on_c, 0, 74, 88
2, 45216, Note_on_c, 0, 69, 88
2, 45216, Note_on_c, 0, 65, 81
2, 45220, Note_on_c, 0, 64, 84
2, 45228, Control_c, 0, 64, 0
2, 45376, Control_c, 0, 64, 127
2, 45380, Note_on_c, 0, 74, 0
2, 45452, Note_on_c, 0, 65, 0
2, 45488, Note_on_c, 0, 69, 0
2, 45552, Note_on_c, 0, 75, 52
2, 45556, Note_on_c, 0, 64, 0
2, 45556, Note_on_c, 0, 63, 57
2, 45580, Note_on_c, 0, 65, 24
2, 45640, Note_on_c, 0, 65, 0
2, 45684, Note_on_c, 0, 75, 0
2, 45712, Control_c, 0, 64, 0
2, 45720, Note_on_c, 0, 63, 0
2, 45764, Note_on_c, 0, 62, 59
2, 45768, Note_on_c, 0, 65, 49
2, 45768, Note_on_c, 0, 69, 48
2, 45772, Note_on_c, 0, 76, 49
2, 45820, Note_on_c, 0, 76, 0
2, 45844, Note_on_c, 0, 69, 0
2, 45868, Note_on_c, 0, 65, 0
2, 45904, Note_on_c, 0, 62, 0
2, 45944, Note_on_c, 0, 61, 37
2, 46016, Note_on_c, 0, 61, 0
2, 46060, Control_c, 0, 64, 127
2, 46176, Control_c, 0, 64, 0
2, 46324, Note_on_c, 0, 69, 70
2, 46336, Note_on_c, 0, 59, 62
2, 46340, Note_on_c, 0, 64, 74
2, 46372, Note_on_c, 0, 53, 36
2, 46404, Note_on_c, 0, 53, 0
2, 46496, Note_on_c, 0, 44, 70
2, 46528, Note_on_c, 0, 59, 0
2, 46532, Note_on_c, 0, 64, 0
2, 46608, Control_c, 0, 64, 127
2, 46820, Note_on_c, 0, 44, 0
2, 46852, Note_on_c, 0, 62, 57
2, 46856, Note_on_c, 0, 59, 44
2, 46868, Note_on_c, 0, 53, 48
2, 46884, Control_c, 0, 64, 0
2, 46888, Note_on_c, 0, 69, 0
2, 47008, Control_c, 0, 64, 127
2, 47068, Note_on_c, 0, 59, 0
2, 47128, Note_on_c, 0, 62, 0
2, 47148, Note_on_c, 0, 53, 0
2, 47168, Note_on_c, 0, 43, 58
2, 47196, Note_on_c, 0, 43, 0
2, 47364, Note_on_c, 0, 62, 72
2, 47372, Note_on_c, 0, 58, 44
2, 47376, Control_c, 0, 64, 0
2, 47380, Note_on_c, 0, 60, 48
2, 47380, Note_on_c, 0, 74, 91
2, 47532, Control_c, 0, 64, 127
2, 47548, Note_on_c, 0, 74, 0
2, 47556, Note_on_c, 0, 60, 0
2, 47560, Note_on_c, 0, 62, 0
2, 47616, Note_on_c, 0, 58, 0
2, 47692, Note_on_c, 0, 75, 62
2, 47796, Note_on_c, 0, 75, 0
2, 47811, Note_on_c, 0, 64, 52
2, 47856, Control_c, 0, 64, 0
2, 47864, Note_on_c, 0, 76, 67
2, 47879, Note_on_c, 0, 64, 0
2, 47900, Control_c, 0, 64, 127
2, 47916, Control_c, 0, 64, 0
2, 47956, Note_on_c, 0, 76, 0
2, 47984, Control_c, 0, 64, 127
2, 48188, Note_on_c, 0, 48, 47
2, 48356, Control_c, 0, 64, 0
2, 48368, Note_on_c, 0, 68, 53
2, 48376, Note_on_c, 0, 64, 53
2, 48380, Note_on_c, 0, 48, 0
2, 48380, Note_on_c, 0, 60, 46
2, 48448, Control_c, 0, 64, 127
2, 48484, Note_on_c, 0, 60, 0
2, 48492, Note_on_c, 0, 64, 0
2, 48520, Note_on_c, 0, 68, 0
2, 48696, Note_on_c, 0, 68, 67
2, 48696, Note_on_c, 0, 72, 71
2, 48704, Note_on_c, 0, 66, 63
2, 48708, Note_on_c, 0, 64, 74
2, 48828, Note_on_c, 0, 72, 0
2, 48848, Note_on_c, 0, 68, 0
2, 48852, Note_on_c, 0, 58, 40
2, 48856, Note_on_c, 0, 64, 0
2, 48864, Control_c, 0, 64, 0
2, 48864, Note_on_c, 0, 52, 43
2, 48868, Note_on_c, 0, 66, 0
2, 48904, Note_on_c, 0, 52, 0
2, 48912, Note_on_c, 0, 58, 0
2, 48988, Note_on_c, 0, 68, 55
2, 48996, Note_on_c, 0, 60, 45
2, 49000, Note_on_c, 0, 64, 53
2, 49064, Note_on_c, 0, 60, 0
2, 49076, Note_on_c, 0, 64, 0
2, 49076, Note_on_c, 0, 68, 0
2, 49124, Control_c, 0, 64, 127
2, 49180, Note_on_c, 0, 48, 15
2, 49320, Note_on_c, 0, 48, 0
2, 49380, Note_on_c, 0, 64, 51
2, 49384, Note_on_c, 0, 56, 43
2, 49392, Note_on_c, 0, 59, 50
2, 49424, Note_on_c, 0, 48, 17
2, 49440, Control_c, 0, 64, 0
2, 49452, Note_on_c, 0, 41, 26
2, 49564, Control_c, 0, 64, 127
2, 49656, Note_on_c, 0, 59, 0
2, 49696, Note_on_c, 0, 56, 0
2, 49788, Note_on_c, 0, 64, 0
2, 49912, Note_on_c, 0, 64, 50
2, 49916, Control_c, 0, 64, 0
2, 49920, Note_on_c, 0, 60, 46
2, 49928, Note_on_c, 0, 48, 0
2, 49932, Note_on_c, 0, 57, 42
2, 49936, Note_on_c, 0, 55, 33
2, 49944, Note_on_c, 0, 50, 33
2, 50056, Control_c, 0, 64, 127
2, 50080, Note_on_c, 0, 41, 0
2, 50180, Note_on_c, 0, 50, 0
2, 50196, Note_on_c, 0, 57, 0
2, 50208, Note_on_c, 0, 60, 0
2, 50212, Note_on_c, 0, 55, 0
2, 50272, Note_on_c, 0, 50, 31
2, 50292, Note_on_c, 0, 64, 0
2, 50348, Note_on_c, 0, 50, 0
2, 50416, Control_c, 0, 64, 0
2, 50424, Note_on_c, 0, 62, 36
2, 50424, Note_on_c, 0, 56, 31
2, 50428, Note_on_c, 0, 44, 38
2, 50444, Note_on_c, 0, 53, 40
2, 50444, Note_on_c, 0, 59, 37
2, 50508, Control_c, 0, 64, 127
2, 50540, Note_on_c, 0, 56, 0
2, 50548, Note_on_c, 0, 59, 0
2, 50548, Note_on_c, 0, 44, 0
2, 50556, Note_on_c, 0, 53, 0
2, 50580, Note_on_c, 0, 62, 0
2, 50980, Note_on_c, 0, 62, 62
2, 51004, Note_on_c, 0, 59, 36
2, 51004, Note_on_c, 0, 56, 34
2, 51016, Note_on_c, 0, 53, 28
2, 51020, Note_on_c, 0, 62, 0
2, 51040, Note_on_c, 0, 59, 0
2, 51076, Note_on_c, 0, 56, 0
2, 51076, Note_on_c, 0, 53, 0
2, 51312, Note_on_c, 0, 50, 74
2, 51456, Note_on_c, 0, 50, 0
2, 51504, Control_c, 0, 64, 0
2, 51512, Note_on_c, 0, 43, 57
2, 51540, Control_c, 0, 64, 127
2, 51552, Note_on_c, 0, 43, 0
2, 51852, Note_on_c, 0, 77, 89
2, 51948, Note_on_c, 0, 77, 0
2, 52004, Note_on_c, 0, 58, 35
2, 52016, Note_on_c, 0, 73, 57
2, 52052, Note_on_c, 0, 58, 0
2, 52084, Note_on_c, 0, 73, 0
2, 52088, Control_c, 0, 64, 0
2, 52176, Note_on_c, 0, 74, 24
2, 52220, Note_on_c, 0, 74, 0
2, 52256, Control_c, 0, 64, 127
2, 52284, Note_on_c, 0, 77, 55
2, 52348, Note_on_c, 0, 77, 0
2, 52412, Note_on_c, 0, 81, 72
2, 52488, Note_on_c, 0, 81, 0
2, 52500, Note_on_c, 0, 36, 37
2, 52528, Control_c, 0, 64, 0
2, 52540, Note_on_c, 0, 52, 62
2, 52548, Note_on_c, 0, 84, 72
2, 52552, Note_on_c, 0, 72, 55
2, 52576, Note_on_c, 0, 36, 0
2, 52636, Note_on_c, 0, 52, 0
2, 52636, Control_c, 0, 64, 127
2, 52756, Note_on_c, 0, 84, 0
2, 52760, Note_on_c, 0, 72, 0
2, 52868, Note_on_c, 0, 86, 70
2, 52876, Note_on_c, 0, 74, 60
2, 52964, Note_on_c, 0, 86, 0
2, 52968, Note_on_c, 0, 74, 0
2, 52980, Note_on_c, 0, 85, 32
2, 53008, Note_on_c, 0, 85, 0
2, 53028, Note_on_c, 0, 58, 40
2, 53028, Note_on_c, 0, 61, 39
2, 53032, Note_on_c, 0, 64, 38
2, 53068, Note_on_c, 0, 64, 0
2, 53080, Note_on_c, 0, 61, 0
2, 53080, Control_c, 0, 64, 0
2, 53088, Note_on_c, 0, 58, 0
2, 53092, Note_on_c, 0, 87, 57
2, 53096, Note_on_c, 0, 75, 38
2, 53144, Note_on_c, 0, 75, 0
2, 53156, Note_on_c, 0, 87, 0
2, 53172, Control_c, 0, 64, 127
2, 53224, Note_on_c, 0, 88, 59
2, 53224, Note_on_c, 0, 76, 55
2, 53252, Note_on_c, 0, 76, 0
2, 53284, Note_on_c, 0, 88, 0
2, 53372, Note_on_c, 0, 93, 85
2, 53380, Note_on_c, 0, 81, 71
2, 53448, Note_on_c, 0, 81, 0
2, 53460, Note_on_c, 0, 93, 0
2, 53540, Note_on_c, 0, 80, 64
2, 53540, Note_on_c, 0, 92, 65
2, 53576, Note_on_c, 0, 41, 47
2, 53620, Note_on_c, 0, 57, 29
2, 53628, Control_c, 0, 64, 0
2, 53652, Note_on_c, 0, 92, 0
2, 53660, Note_on_c, 0, 80, 0
2, 53692, Note_on_c, 0, 41, 0
2, 53728, Control_c, 0, 64, 127
2, 53736, Note_on_c, 0, 79, 54
2, 53744, Note_on_c, 0, 91, 46
2, 53752, Note_on_c, 0, 57, 0
2, 53808, Note_on_c, 0, 91, 0
2, 53828, Note_on_c, 0, 79, 0
2, 53948, Note_on_c, 0, 88, 63
2, 53960, Note_on_c, 0, 76, 55
2, 54072, Note_on_c, 0, 88, 0
2, 54104, Note_on_c, 0, 76, 0
2, 54104, Note_on_c, 0, 64, 45
2, 54128, Note_on_c, 0, 60, 33
2, 54132, Note_on_c, 0, 57, 32
2, 54144, Note_on_c, 0, 53, 29
2, 54188, Note_on_c, 0, 64, 0
2, 54220, Note_on_c, 0, 57, 0
2, 54224, Note_on_c, 0, 60, 0
2, 54252, Note_on_c, 0, 53, 0
2, 54652, Control_c, 0, 64, 0
2, 54656, Note_on_c, 0, 74, 89
2, 54656, Note_on_c, 0, 77, 82
2, 54660, Note_on_c, 0, 58, 46
2, 54660, Note_on_c, 0, 48, 60
2, 54736, Note_on_c, 0, 48, 0
2, 54748, Control_c, 0, 64, 127
2, 54800, Note_on_c, 0, 58, 0
2, 55012, Note_on_c, 0, 74, 0
2, 55096, Note_on_c, 0, 77, 0
2, 55176, Note_on_c, 0, 75, 57
2, 55184, Note_on_c, 0, 57, 41
2, 55184, Note_on_c, 0, 63, 39
2, 55192, Note_on_c, 0, 71, 54
2, 55212, Note_on_c, 0, 67, 22
2, 55224, Control_c, 0, 64, 0
2, 55252, Note_on_c, 0, 67, 0
2, 55276, Control_c, 0, 64, 127
2, 55336, Note_on_c, 0, 63, 0
2, 55360, Note_on_c, 0, 57, 0
2, 55388, Note_on_c, 0, 75, 0
2, 55408, Note_on_c, 0, 71, 0
2, 55720, Note_on_c, 0, 65, 51
2, 55724, Note_on_c, 0, 72, 47
2, 55724, Note_on_c, 0, 62, 43
2, 55728, Note_on_c, 0, 69, 51
2, 55732, Control_c, 0, 64, 0
2, 55748, Note_on_c, 0, 57, 33
2, 55840, Control_c, 0, 64, 127
2, 55912, Note_on_c, 0, 69, 0
2, 55928, Note_on_c, 0, 72, 0
2, 55940, Note_on_c, 0, 65, 0
2, 55976, Note_on_c, 0, 62, 0
2, 56084, Note_on_c, 0, 57, 0
2, 56236, Note_on_c, 0, 65, 57
2, 56252, Note_on_c, 0, 58, 27
2, 56256, Note_on_c, 0, 62, 42
2, 56264, Note_on_c, 0, 46, 42
2, 56272, Control_c, 0, 64, 0
2, 56272, Note_on_c, 0, 53, 22
2, 56392, Control_c, 0, 64, 127
2, 56396, Note_on_c, 0, 53, 0
2, 56436, Note_on_c, 0, 62, 0
2, 56436, Note_on_c, 0, 65, 0
2, 56468, Note_on_c, 0, 58, 0
2, 56468, Note_on_c, 0, 46, 0
2, 56588, Note_on_c, 0, 46, 48
2, 56660, Note_on_c, 0, 46, 0
2, 56780, Note_on_c, 0, 60, 69
2, 56788, Note_on_c, 0, 55, 69
2, 56788, Note_on_c, 0, 46, 50
2, 56792, Note_on_c, 0, 39, 52
2, 56808, Control_c, 0, 64, 0
2, 57016, Control_c, 0, 64, 127
2, 57020, Note_on_c, 0, 55, 0
2, 57084, Note_on_c, 0, 60, 0
2, 57116, Note_on_c, 0, 61, 83
2, 57292, Note_on_c, 0, 61, 0
2, 57304, Note_on_c, 0, 51, 47
2, 57304, Note_on_c, 0, 65, 72
2, 57344, Note_on_c, 0, 39, 0
2, 57348, Note_on_c, 0, 51, 0
2, 57364, Note_on_c, 0, 46, 0
2, 57384, Note_on_c, 0, 65, 0
2, 57452, Note_on_c, 0, 69, 66
2, 57520, Note_on_c, 0, 69, 0
2, 57576, Note_on_c, 0, 70, 64
2, 57644, Note_on_c, 0, 70, 0
2, 57712, Note_on_c, 0, 74, 91
2, 57796, Note_on_c, 0, 74, 0
2, 57828, Note_on_c, 0, 41, 30
2, 57832, Control_c, 0, 64, 0
2, 57836, Note_on_c, 0, 48, 35
2, 57852, Note_on_c, 0, 57, 46
2, 57860, Note_on_c, 0, 72, 64
2, 57956, Control_c, 0, 64, 127
2, 57964, Note_on_c, 0, 41, 0
2, 57988, Note_on_c, 0, 57, 0
2, 58000, Note_on_c, 0, 48, 0
2, 58080, Note_on_c, 0, 72, 0
2, 58080, Note_on_c, 0, 60, 57
2, 58268, Note_on_c, 0, 60, 0
2, 58344, Note_on_c, 0, 60, 42
2, 58368, Note_on_c, 0, 57, 45
2, 58448, Note_on_c, 0, 60, 0
2, 58464, Note_on_c, 0, 57, 0
2, 58544, Note_on_c, 0, 65, 64
2, 58616, Note_on_c, 0, 65, 0
2, 58704, Note_on_c, 0, 69, 70
2, 58760, Note_on_c, 0, 69, 0
2, 58888, Note_on_c, 0, 73, 76
2, 58888, Note_on_c, 0, 76, 82
2, 58892, Note_on_c, 0, 66, 67
2, 58896, Note_on_c, 0, 69, 81
2, 58904, Note_on_c, 0, 64, 67
2, 58908, Note_on_c, 0, 62, 59
2, 58920, Control_c, 0, 64, 0
2, 59056, Control_c, 0, 64, 127
2, 59144, Note_on_c, 0, 64, 0
2, 59180, Note_on_c, 0, 62, 0
2, 59208, Note_on_c, 0, 66, 0
2, 59304, Note_on_c, 0, 69, 0
2, 59356, Note_on_c, 0, 73, 0
2, 59412, Note_on_c, 0, 76, 0
2, 59652, Note_on_c, 0, 74, 73
2, 59944, Note_on_c, 0, 74, 0
2, 60000, Note_on_c, 0, 70, 50
2, 60004, Note_on_c, 0, 65, 32
2, 60012, Note_on_c, 0, 61, 29
2, 60016, Note_on_c, 0, 60, 31
2, 60020, Control_c, 0, 64, 0
2, 60120, Control_c, 0, 64, 127
2, 60232, Note_on_c, 0, 65, 0
2, 60244, Note_on_c, 0, 60, 0
2, 60268, Note_on_c, 0, 70, 0
2, 60324, Note_on_c, 0, 61, 0
2, 60536, Note_on_c, 0, 55, 50
2, 60540, Note_on_c, 0, 61, 34
2, 60540, Note_on_c, 0, 65, 53
2, 60568, Control_c, 0, 64, 0
2, 60620, Control_c, 0, 64, 127
2, 60704, Note_on_c, 0, 55, 0
2, 60800, Note_on_c, 0, 65, 0
2, 60824, Note_on_c, 0, 61, 0
2, 60888, Note_on_c, 0, 45, 66
2, 60952, Note_on_c, 0, 45, 0
2, 61320, Note_on_c, 0, 71, 87
2, 61320, Note_on_c, 0, 74, 85
2, 61324, Note_on_c, 0, 67, 84
2, 61332, Note_on_c, 0, 64, 66
2, 61332, Note_on_c, 0, 62, 60
2, 61340, Note_on_c, 0, 60, 60
2, 61352, Control_c, 0, 64, 0
2, 61452, Control_c, 0, 64, 127
2, 61488, Note_on_c, 0, 62, 0
2, 61516, Note_on_c, 0, 71, 0
2, 61516, Note_on_c, 0, 67, 0
2, 61516, Note_on_c, 0, 64, 0
2, 61516, Note_on_c, 0, 60, 0
2, 61584, Note_on_c, 0, 74, 0
2, 61688, Note_on_c, 0, 71, 54
2, 61692, Note_on_c, 0, 68, 57
2, 61700, Note_on_c, 0, 64, 50
2, 61704, Note_on_c, 0, 60, 48
2, 61712, Note_on_c, 0, 54, 40
2, 61720, Control_c, 0, 64, 0
2, 61844, Control_c, 0, 64, 127
2, 61940, Note_on_c, 0, 68, 0
2, 61964, Note_on_c, 0, 64, 0
2, 61988, Note_on_c, 0, 71, 0
2, 62004, Note_on_c, 0, 60, 0
2, 62040, Note_on_c, 0, 72, 65
2, 62044, Note_on_c, 0, 69, 68
2, 62068, Control_c, 0, 64, 0
2, 62072, Note_on_c, 0, 54, 0
2, 62128, Note_on_c, 0, 72, 0
2, 62132, Note_on_c, 0, 69, 0
2, 62364, Note_on_c, 0, 69, 65
2, 62368, Note_on_c, 0, 64, 62
2, 62372, Note_on_c, 0, 59, 40
2, 62376, Note_on_c, 0, 53, 57
2, 62508, Control_c, 0, 64, 127
2, 62572, Note_on_c, 0, 64, 0
2, 62576, Note_on_c, 0, 43, 58
2, 62644, Note_on_c, 0, 53, 0
2, 62692, Note_on_c, 0, 59, 0
2, 62736, Note_on_c, 0, 69, 0
2, 62780, Note_on_c, 0, 53, 60
2, 62780, Note_on_c, 0, 64, 25
2, 62808, Note_on_c, 0, 64, 0
2, 62824, Note_on_c, 0, 53, 0
2, 63040, Note_on_c, 0, 43, 0
2, 63100, Note_on_c, 0, 47, 68
2, 63256, Note_on_c, 0, 47, 0
2, 63284, Note_on_c, 0, 58, 59
2, 63288, Note_on_c, 0, 48, 64
2, 63292, Note_on_c, 0, 62, 64
2, 63292, Control_c, 0, 64, 0
2, 63296, Note_on_c, 0, 69, 54
2, 63300, Note_on_c, 0, 65, 57
2, 63388, Note_on_c, 0, 69, 0
2, 63400, Note_on_c, 0, 58, 0
2, 63440, Note_on_c, 0, 65, 0
2, 63452, Note_on_c, 0, 62, 0
2, 63644, Note_on_c, 0, 60, 84
2, 63708, Control_c, 0, 64, 127
2, 63720, Note_on_c, 0, 60, 0
2, 63800, Note_on_c, 0, 61, 64
2, 63808, Control_c, 0, 64, 0
2, 63848, Note_on_c, 0, 61, 0
2, 63848, Note_on_c, 0, 62, 70
2, 63916, Note_on_c, 0, 62, 0
2, 63968, Note_on_c, 0, 65, 71
2, 64052, Note_on_c, 0, 65, 0
2, 64120, Note_on_c, 0, 67, 85
2, 64240, Note_on_c, 0, 67, 0
2, 64288, Note_on_c, 0, 65, 75
2, 64360, Note_on_c, 0, 48, 0
2, 64432, Note_on_c, 0, 60, 49
2, 64548, Note_on_c, 0, 60, 0
2, 64600, Note_on_c, 0, 65, 0
2, 64600, Note_on_c, 0, 62, 73
2, 64692, Note_on_c, 0, 62, 0
2, 64776, Note_on_c, 0, 65, 85
2, 64892, Note_on_c, 0, 65, 0
2, 64900, Note_on_c, 0, 67, 71
2, 65020, Note_on_c, 0, 67, 0
2, 65088, Note_on_c, 0, 65, 81
2, 65244, Note_on_c, 0, 48, 72
2, 65260, Note_on_c, 0, 47, 41
2, 65292, Note_on_c, 0, 47, 0
2, 65496, Control_c, 0, 64, 127
2, 65532, Note_on_c, 0, 65, 0
2, 65576, Note_on_c, 0, 48, 0
2, 65588, Note_on_c, 0, 36, 77
2, 65732, Control_c, 0, 64, 0
2, 65776, Note_on_c, 0, 36, 0
2, 65784, Note_on_c, 0, 61, 69
2, 65788, Note_on_c, 0, 65, 64
2, 65788, Note_on_c, 0, 58, 64
2, 65788, Note_on_c, 0, 55, 78
2, 65792, Note_on_c, 0, 48, 64
2, 65856, Control_c, 0, 64, 127
2, 65860, Note_on_c, 0, 48, 0
2, 66076, Note_on_c, 0, 65, 0
2, 66080, Note_on_c, 0, 55, 0
2, 66108, Note_on_c, 0, 58, 0
2, 66136, Note_on_c, 0, 61, 0
2, 66136, Note_on_c, 0, 48, 54
2, 66184, Note_on_c, 0, 48, 0
2, 66272, Control_c, 0, 64, 0
2, 66312, Note_on_c, 0, 56, 40
2, 66316, Note_on_c, 0, 64, 45
2, 66324, Note_on_c, 0, 52, 45
2, 66324, Note_on_c, 0, 41, 39
2, 66324, Note_on_c, 0, 59, 48
2, 66360, Note_on_c, 0, 52, 0
2, 66396, Control_c, 0, 64, 127
2, 66400, Note_on_c, 0, 41, 0
2, 66404, Note_on_c, 0, 59, 0
2, 66416, Note_on_c, 0, 56, 0
2, 66428, Note_on_c, 0, 64, 0
2, 66578, Note_on_c, 0, 64, 64
2, 66806, Note_on_c, 0, 64, 0
2, 66824, Note_on_c, 0, 60, 34
2, 66832, Note_on_c, 0, 53, 35
2, 66853, Note_on_c, 0, 64, 44
2, 66860, Note_on_c, 0, 57, 20
2, 66880, Note_on_c, 0, 60, 0
2, 66889, Note_on_c, 0, 64, 0
2, 66892, Note_on_c, 0, 57, 0
2, 66932, Note_on_c, 0, 53, 0
2, 67320, Note_on_c, 0, 56, 54
2, 67324, Note_on_c, 0, 47, 57
2, 67336, Note_on_c, 0, 74, 96
2, 67388, Control_c, 0, 64, 0
2, 67396, Note_on_c, 0, 47, 0
2, 67408, Note_on_c, 0, 74, 0
2, 67432, Note_on_c, 0, 56, 0
2, 67468, Note_on_c, 0, 73, 74
2, 67548, Note_on_c, 0, 73, 0
2, 67604, Note_on_c, 0, 72, 64
2, 67628, Control_c, 0, 64, 127
2, 67680, Note_on_c, 0, 72, 0
2, 67732, Note_on_c, 0, 71, 70
2, 67816, Note_on_c, 0, 71, 0
2, 67820, Note_on_c, 0, 62, 47
2, 67832, Note_on_c, 0, 56, 36
2, 67848, Control_c, 0, 64, 0
2, 67852, Note_on_c, 0, 62, 0
2, 67864, Note_on_c, 0, 53, 20
2, 67920, Note_on_c, 0, 53, 0
2, 67928, Note_on_c, 0, 56, 0
2, 67988, Note_on_c, 0, 65, 64
2, 68020, Note_on_c, 0, 65, 0
2, 68036, Control_c, 0, 64, 127
2, 68204, Note_on_c, 0, 50, 43
2, 68236, Note_on_c, 0, 59, 36
2, 68276, Note_on_c, 0, 59, 0
2, 68296, Note_on_c, 0, 50, 0
2, 68324, Note_on_c, 0, 43, 41
2, 68340, Note_on_c, 0, 65, 71
2, 68340, Note_on_c, 0, 53, 45
2, 68352, Control_c, 0, 64, 0
2, 68424, Note_on_c, 0, 43, 0
2, 68444, Note_on_c, 0, 65, 0
2, 68448, Note_on_c, 0, 53, 0
2, 68472, Note_on_c, 0, 57, 60
2, 68532, Note_on_c, 0, 57, 0
2, 68544, Control_c, 0, 64, 127
2, 68588, Note_on_c, 0, 58, 54
2, 68640, Note_on_c, 0, 58, 0
2, 68716, Note_on_c, 0, 62, 69
2, 68780, Note_on_c, 0, 58, 45
2, 68788, Note_on_c, 0, 62, 0
2, 68828, Control_c, 0, 64, 0
2, 68836, Note_on_c, 0, 65, 66
2, 68896, Note_on_c, 0, 58, 0
2, 68912, Note_on_c, 0, 65, 0
2, 68972, Note_on_c, 0, 69, 62
2, 69020, Control_c, 0, 64, 127
2, 69036, Note_on_c, 0, 69, 0
2, 69092, Note_on_c, 0, 70, 53
2, 69144, Note_on_c, 0, 70, 0
2, 69200, Note_on_c, 0, 71, 57
2, 69240, Note_on_c, 0, 71, 0
2, 69304, Note_on_c, 0, 58, 26
2, 69308, Note_on_c, 0, 74, 72
2, 69320, Note_on_c, 0, 48, 39
2, 69320, Control_c, 0, 64, 0
2, 69392, Note_on_c, 0, 48, 0
2, 69416, Note_on_c, 0, 74, 0
2, 69432, Note_on_c, 0, 71, 50
2, 69472, Note_on_c, 0, 71, 0
2, 69472, Note_on_c, 0, 58, 0
2, 69544, Note_on_c, 0, 72, 46
2, 69568, Control_c, 0, 64, 127
2, 69636, Note_on_c, 0, 72, 0
2, 69660, Note_on_c, 0, 73, 67
2, 69760, Note_on_c, 0, 73, 0
2, 69792, Note_on_c, 0, 75, 63
2, 69796, Note_on_c, 0, 63, 33
2, 69800, Note_on_c, 0, 58, 34
2, 69812, Note_on_c, 0, 52, 41
2, 69828, Control_c, 0, 64, 0
2, 69896, Note_on_c, 0, 63, 0
2, 69904, Note_on_c, 0, 75, 0
2, 69912, Note_on_c, 0, 52, 0
2, 69916, Note_on_c, 0, 58, 0
2, 69928, Note_on_c, 0, 76, 67
2, 69976, Control_c, 0, 64, 127
2, 70016, Note_on_c, 0, 76, 0
2, 70268, Control_c, 0, 64, 0
2, 70304, Note_on_c, 0, 48, 40
2, 70308, Note_on_c, 0, 41, 48
2, 70308, Note_on_c, 0, 79, 77
2, 70376, Note_on_c, 0, 41, 0
2, 70400, Note_on_c, 0, 48, 0
2, 70444, Note_on_c, 0, 79, 0
2, 70464, Note_on_c, 0, 76, 45
2, 70500, Note_on_c, 0, 76, 0
2, 70544, Control_c, 0, 64, 127
2, 70560, Note_on_c, 0, 79, 85
2, 70688, Note_on_c, 0, 79, 0
2, 70692, Note_on_c, 0, 76, 72
2, 70780, Note_on_c, 0, 76, 0
2, 70816, Note_on_c, 0, 60, 29
2, 70816, Note_on_c, 0, 72, 55
2, 70828, Note_on_c, 0, 53, 26
2, 70840, Note_on_c, 0, 57, 26
2, 70872, Note_on_c, 0, 53, 0
2, 70884, Note_on_c, 0, 57, 0
2, 70908, Note_on_c, 0, 60, 0
2, 70916, Note_on_c, 0, 72, 0
2, 70952, Note_on_c, 0, 69, 36
2, 71004, Note_on_c, 0, 69, 0
2, 71200, Note_on_c, 0, 64, 62
2, 71244, Note_on_c, 0, 64, 0
2, 71300, Note_on_c, 0, 63, 40
2, 71308, Note_on_c, 0, 77, 71
2, 71320, Note_on_c, 0, 57, 33
2, 71328, Control_c, 0, 64, 0
2, 71424, Note_on_c, 0, 77, 0
2, 71440, Note_on_c, 0, 57, 0
2, 71460, Control_c, 0, 64, 127
2, 71464, Note_on_c, 0, 74, 50
2, 71492, Note_on_c, 0, 74, 0
2, 71528, Note_on_c, 0, 63, 0
2, 71560, Note_on_c, 0, 75, 79
2, 71799, Note_on_c, 0, 63, 45
2, 71808, Note_on_c, 0, 54, 46
2, 71832, Control_c, 0, 64, 0
2, 71860, Note_on_c, 0, 75, 0
2, 71940, Control_c, 0, 64, 127
2, 72175, Note_on_c, 0, 63, 0
2, 72212, Note_on_c, 0, 54, 0
2, 72300, Control_c, 0, 64, 0
2, 72312, Note_on_c, 0, 65, 58
2, 72312, Note_on_c, 0, 62, 51
2, 72320, Note_on_c, 0, 81, 103
2, 72324, Note_on_c, 0, 60, 50
2, 72372, Note_on_c, 0, 65, 0
2, 72416, Note_on_c, 0, 60, 0
2, 72424, Control_c, 0, 64, 127
2, 72428, Note_on_c, 0, 62, 0
2, 72596, Note_on_c, 0, 81, 0
2, 72652, Note_on_c, 0, 77, 74
2, 72788, Note_on_c, 0, 58, 32
2, 72796, Note_on_c, 0, 50, 44
2, 72800, Control_c, 0, 64, 0
2, 72824, Note_on_c, 0, 77, 0
2, 72824, Note_on_c, 0, 74, 53
2, 72836, Note_on_c, 0, 50, 0
2, 72864, Note_on_c, 0, 58, 0
2, 72868, Control_c, 0, 64, 127
2, 72932, Note_on_c, 0, 74, 0
2, 72984, Note_on_c, 0, 69, 39
2, 73016, Note_on_c, 0, 69, 0
2, 73136, Note_on_c, 0, 72, 80
2, 73140, Note_on_c, 0, 65, 84
2, 73284, Note_on_c, 0, 39, 46
2, 73312, Note_on_c, 0, 46, 39
2, 73316, Control_c, 0, 64, 0
2, 73388, Note_on_c, 0, 39, 0
2, 73432, Note_on_c, 0, 46, 0
2, 73432, Note_on_c, 0, 72, 0
2, 73456, Note_on_c, 0, 69, 59
2, 73484, Note_on_c, 0, 61, 46
2, 73508, Control_c, 0, 64, 127
2, 73628, Note_on_c, 0, 57, 76
2, 73660, Note_on_c, 0, 65, 0
2, 73780, Note_on_c, 0, 61, 0
2, 73832, Note_on_c, 0, 61, 32
2, 73836, Note_on_c, 0, 65, 70
2, 73936, Note_on_c, 0, 69, 0
2, 73972, Note_on_c, 0, 65, 0
2, 73984, Note_on_c, 0, 57, 0
2, 73988, Note_on_c, 0, 51, 50
2, 74052, Note_on_c, 0, 51, 0
2, 74052, Note_on_c, 0, 61, 0
2, 74160, Note_on_c, 0, 63, 67
2, 74160, Note_on_c, 0, 68, 60
2, 74160, Note_on_c, 0, 52, 68
2, 74180, Note_on_c, 0, 60, 56
2, 74260, Note_on_c, 0, 60, 0
2, 74276, Note_on_c, 0, 63, 0
2, 74288, Control_c, 0, 64, 0
2, 74320, Note_on_c, 0, 52, 0
2, 74328, Note_on_c, 0, 68, 0
2, 74348, Note_on_c, 0, 60, 53
2, 74352, Note_on_c, 0, 64, 60
2, 74356, Note_on_c, 0, 53, 57
2, 74360, Note_on_c, 0, 69, 58
2, 74388, Control_c, 0, 64, 127
2, 74396, Note_on_c, 0, 60, 0
2, 74408, Note_on_c, 0, 64, 0
2, 74416, Note_on_c, 0, 53, 0
2, 74424, Note_on_c, 0, 69, 0
2, 74480, Control_c, 0, 64, 0
2, 74496, Note_on_c, 0, 62, 77
2, 74504, Note_on_c, 0, 67, 70
2, 74504, Note_on_c, 0, 72, 71
2, 74504, Note_on_c, 0, 74, 59
2, 74508, Note_on_c, 0, 57, 74
2, 74532, Note_on_c, 0, 74, 0
2, 74608, Control_c, 0, 64, 127
2, 74784, Note_on_c, 0, 62, 0
2, 74796, Note_on_c, 0, 67, 0
2, 74804, Note_on_c, 0, 72, 0
2, 74808, Control_c, 0, 64, 0
2, 74824, Note_on_c, 0, 57, 0
2, 74836, Note_on_c, 0, 56, 50
2, 74844, Note_on_c, 0, 71, 54
2, 74876, Note_on_c, 0, 62, 22
2, 74884, Note_on_c, 0, 67, 34
2, 74904, Control_c, 0, 64, 127
2, 74924, Note_on_c, 0, 67, 0
2, 74944, Note_on_c, 0, 62, 0
2, 75108, Note_on_c, 0, 71, 0
2, 75144, Note_on_c, 0, 56, 0
2, 75144, Note_on_c, 0, 67, 71
2, 75144, Note_on_c, 0, 72, 66
2, 75152, Note_on_c, 0, 62, 55
2, 75152, Note_on_c, 0, 57, 36
2, 75168, Note_on_c, 0, 71, 20
2, 75176, Note_on_c, 0, 62, 0
2, 75184, Note_on_c, 0, 57, 0
2, 75208, Note_on_c, 0, 67, 0
2, 75228, Note_on_c, 0, 72, 0
2, 75228, Note_on_c, 0, 71, 0
2, 75420, Control_c, 0, 64, 0
2, 75520, Note_on_c, 0, 76, 84
2, 75528, Note_on_c, 0, 66, 55
2, 75540, Note_on_c, 0, 62, 46
2, 75544, Note_on_c, 0, 64, 52
2, 75620, Control_c, 0, 64, 127
2, 75644, Note_on_c, 0, 64, 0
2, 75676, Note_on_c, 0, 62, 0
2, 75684, Note_on_c, 0, 66, 0
2, 75684, Note_on_c, 0, 69, 35
2, 75688, Note_on_c, 0, 76, 0
2, 75724, Note_on_c, 0, 69, 0
2, 75848, Note_on_c, 0, 68, 50
2, 75852, Note_on_c, 0, 74, 60
2, 75860, Note_on_c, 0, 62, 51
2, 75864, Control_c, 0, 64, 0
2, 75868, Note_on_c, 0, 56, 45
2, 75868, Note_on_c, 0, 71, 53
2, 75980, Control_c, 0, 64, 127
2, 76040, Note_on_c, 0, 62, 0
2, 76068, Note_on_c, 0, 68, 0
2, 76084, Note_on_c, 0, 71, 0
2, 76120, Note_on_c, 0, 74, 0
2, 76316, Note_on_c, 0, 56, 0
2, 76344, Note_on_c, 0, 61, 37
2, 76348, Note_on_c, 0, 65, 49
2, 76348, Note_on_c, 0, 72, 59
2, 76356, Control_c, 0, 64, 0
2, 76392, Note_on_c, 0, 65, 0
2, 76400, Note_on_c, 0, 72, 0
2, 76404, Note_on_c, 0, 73, 64
2, 76472, Note_on_c, 0, 73, 0
2, 76528, Note_on_c, 0, 69, 54
2, 76572, Note_on_c, 0, 69, 0
2, 76600, Note_on_c, 0, 70, 57
2, 76656, Note_on_c, 0, 70, 0
2, 76696, Note_on_c, 0, 72, 60
2, 76704, Control_c, 0, 64, 127
2, 76744, Note_on_c, 0, 61, 0
2, 76760, Note_on_c, 0, 72, 0
2, 76780, Note_on_c, 0, 73, 61
2, 76812, Control_c, 0, 64, 0
2, 76816, Note_on_c, 0, 61, 17
2, 76836, Note_on_c, 0, 55, 33
2, 76852, Note_on_c, 0, 73, 0
2, 76864, Note_on_c, 0, 75, 51
2, 76888, Note_on_c, 0, 75, 0
2, 76916, Note_on_c, 0, 55, 0
2, 76920, Note_on_c, 0, 61, 0
2, 76940, Note_on_c, 0, 76, 54
2, 76984, Note_on_c, 0, 76, 0
2, 77024, Note_on_c, 0, 77, 46
2, 77070, Note_on_c, 0, 79, 52
2, 77096, Note_on_c, 0, 77, 0
2, 77138, Note_on_c, 0, 79, 0
2, 77142, Note_on_c, 0, 81, 52
2, 77172, Control_c, 0, 64, 127
2, 77210, Note_on_c, 0, 81, 0
2, 77244, Control_c, 0, 64, 0
2, 77320, Note_on_c, 0, 55, 46
2, 77320, Note_on_c, 0, 45, 49
2, 77320, Note_on_c, 0, 86, 76
2, 77356, Note_on_c, 0, 52, 22
2, 77360, Control_c, 0, 64, 127
2, 77408, Note_on_c, 0, 45, 0
2, 77432, Note_on_c, 0, 52, 0
2, 77448, Note_on_c, 0, 55, 0
2, 77492, Note_on_c, 0, 84, 76
2, 77512, Note_on_c, 0, 86, 0
2, 77608, Note_on_c, 0, 84, 0
2, 77636, Note_on_c, 0, 83, 71
2, 77736, Note_on_c, 0, 83, 0
2, 77804, Note_on_c, 0, 65, 45
2, 77804, Note_on_c, 0, 81, 62
2, 77812, Control_c, 0, 64, 0
2, 77816, Note_on_c, 0, 60, 36
2, 77824, Note_on_c, 0, 54, 31
2, 77828, Note_on_c, 0, 58, 28
2, 77936, Note_on_c, 0, 81, 0
2, 77952, Control_c, 0, 64, 127
2, 77952, Note_on_c, 0, 79, 50
2, 78024, Note_on_c, 0, 79, 0
2, 78080, Note_on_c, 0, 60, 0
2, 78088, Note_on_c, 0, 78, 46
2, 78092, Note_on_c, 0, 65, 0
2, 78180, Note_on_c, 0, 78, 0
2, 78208, Note_on_c, 0, 58, 0
2, 78212, Note_on_c, 0, 81, 64
2, 78244, Note_on_c, 0, 54, 0
2, 78292, Note_on_c, 0, 64, 40
2, 78296, Note_on_c, 0, 81, 0
2, 78296, Control_c, 0, 64, 0
2, 78324, Note_on_c, 0, 53, 28
2, 78328, Note_on_c, 0, 59, 35
2, 78392, Note_on_c, 0, 59, 0
2, 78392, Note_on_c, 0, 64, 0
2, 78448, Note_on_c, 0, 53, 0
2, 78516, Note_on_c, 0, 80, 67
2, 78592, Note_on_c, 0, 80, 0
2, 78656, Note_on_c, 0, 80, 53
2, 78684, Note_on_c, 0, 80, 0
2, 78684, Note_on_c, 0, 81, 80
2, 78712, Control_c, 0, 64, 127
2, 78776, Control_c, 0, 64, 0
2, 78832, Note_on_c, 0, 43, 50
2, 78844, Note_on_c, 0, 76, 57
2, 78904, Control_c, 0, 64, 127
2, 78960, Note_on_c, 0, 43, 0
2, 79100, Note_on_c, 0, 81, 0
2, 79140, Note_on_c, 0, 76, 0
2, 79172, Note_on_c, 0, 71, 35
2, 79368, Note_on_c, 0, 54, 35
2, 79368, Note_on_c, 0, 60, 34
2, 79384, Control_c, 0, 64, 0
2, 79388, Note_on_c, 0, 71, 0
2, 79480, Note_on_c, 0, 64, 1
2, 79560, Control_c, 0, 64, 127
2, 79608, Note_on_c, 0, 60, 0
2, 79632, Note_on_c, 0, 64, 0
2, 79696, Note_on_c, 0, 71, 59
2, 79736, Note_on_c, 0, 54, 0
2, 79860, Note_on_c, 0, 64, 39
2, 79876, Note_on_c, 0, 59, 40
2, 79884, Note_on_c, 0, 53, 30
2, 79884, Note_on_c, 0, 67, 47
2, 79900, Note_on_c, 0, 64, 0
2, 79920, Note_on_c, 0, 59, 0
2, 79980, Note_on_c, 0, 53, 0
2, 80108, Note_on_c, 0, 71, 0
2, 80136, Note_on_c, 0, 67, 0
2, 80224, Note_on_c, 0, 43, 61
2, 80384, Note_on_c, 0, 65, 70
2, 80396, Note_on_c, 0, 58, 60
2, 80400, Note_on_c, 0, 55, 68
2, 80412, Note_on_c, 0, 53, 64
2, 80436, Control_c, 0, 64, 0
2, 80488, Note_on_c, 0, 55, 0
2, 80500, Note_on_c, 0, 53, 0
2, 80512, Note_on_c, 0, 65, 0
2, 80548, Note_on_c, 0, 61, 51
2, 80548, Note_on_c, 0, 49, 39
2, 80624, Note_on_c, 0, 58, 0
2, 80636, Note_on_c, 0, 43, 0
2, 80644, Note_on_c, 0, 61, 0
2, 80656, Note_on_c, 0, 49, 0
2, 80704, Note_on_c, 0, 62, 49
2, 80732, Control_c, 0, 64, 127
2, 80736, Note_on_c, 0, 50, 51
2, 80808, Note_on_c, 0, 62, 0
2, 80844, Note_on_c, 0, 65, 66
2, 80852, Note_on_c, 0, 55, 42
2, 80864, Note_on_c, 0, 50, 0
2, 80884, Note_on_c, 0, 55, 0
2, 80892, Note_on_c, 0, 65, 0
2, 80908, Note_on_c, 0, 53, 34
2, 80936, Note_on_c, 0, 53, 0
2, 81020, Note_on_c, 0, 58, 74
2, 81028, Note_on_c, 0, 62, 69
2, 81028, Note_on_c, 0, 69, 62
2, 81032, Control_c, 0, 64, 0
2, 81036, Note_on_c, 0, 57, 60
2, 81040, Note_on_c, 0, 55, 64
2, 81044, Note_on_c, 0, 65, 37
2, 81124, Control_c, 0, 64, 127
2, 81176, Note_on_c, 0, 58, 0
2, 81184, Note_on_c, 0, 65, 0
2, 81196, Note_on_c, 0, 62, 0
2, 81212, Note_on_c, 0, 55, 0
2, 81220, Note_on_c, 0, 69, 0
2, 81228, Note_on_c, 0, 57, 0
2, 81368, Control_c, 0, 64, 0
2, 81372, Note_on_c, 0, 58, 56
2, 81372, Note_on_c, 0, 68, 80
2, 81372, Note_on_c, 0, 72, 81
2, 81376, Note_on_c, 0, 64, 87
2, 81380, Note_on_c, 0, 66, 69
2, 81476, Control_c, 0, 64, 127
2, 81536, Note_on_c, 0, 58, 0
2, 81568, Note_on_c, 0, 66, 0
2, 81576, Note_on_c, 0, 72, 0
2, 81588, Note_on_c, 0, 68, 0
2, 81616, Note_on_c, 0, 64, 0
2, 81752, Note_on_c, 0, 64, 80
2, 81752, Note_on_c, 0, 68, 74
2, 81760, Note_on_c, 0, 60, 67
2, 81768, Note_on_c, 0, 56, 46
2, 81772, Note_on_c, 0, 48, 62
2, 81832, Control_c, 0, 64, 0
2, 81956, Control_c, 0, 64, 127
2, 82040, Note_on_c, 0, 48, 0
2, 82076, Note_on_c, 0, 56, 0
2, 82128, Note_on_c, 0, 64, 0
2, 82140, Note_on_c, 0, 68, 0
2, 82188, Note_on_c, 0, 60, 0
2, 82536, Note_on_c, 0, 67, 54
2, 82548, Note_on_c, 0, 60, 61
2, 82548, Note_on_c, 0, 57, 67
2, 82552, Note_on_c, 0, 64, 49
2, 82552, Note_on_c, 0, 52, 57
2, 82556, Control_c, 0, 64, 0
2, 82568, Note_on_c, 0, 65, 35
2, 82600, Note_on_c, 0, 65, 0
2, 82792, Note_on_c, 0, 64, 0
2, 82808, Note_on_c, 0, 57, 0
2, 82816, Control_c, 0, 64, 127
2, 82828, Note_on_c, 0, 52, 0
2, 82840, Note_on_c, 0, 60, 0
2, 82848, Note_on_c, 0, 67, 0
2, 82904, Note_on_c, 0, 64, 39
2, 82916, Note_on_c, 0, 48, 37
2, 82992, Note_on_c, 0, 64, 0
2, 83032, Control_c, 0, 64, 0
2, 83056, Note_on_c, 0, 48, 0
2, 83068, Note_on_c, 0, 65, 66
2, 83072, Note_on_c, 0, 50, 43
2, 83076, Note_on_c, 0, 60, 46
2, 83084, Note_on_c, 0, 57, 39
2, 83116, Control_c, 0, 64, 127
2, 83196, Note_on_c, 0, 60, 0
2, 83204, Note_on_c, 0, 50, 0
2, 83236, Note_on_c, 0, 57, 0
2, 83240, Note_on_c, 0, 65, 0
2, 83404, Note_on_c, 0, 67, 61
2, 83408, Note_on_c, 0, 53, 64
2, 83412, Note_on_c, 0, 66, 42
2, 83412, Note_on_c, 0, 60, 67
2, 83416, Note_on_c, 0, 57, 64
2, 83464, Note_on_c, 0, 67, 0
2, 83476, Note_on_c, 0, 60, 0
2, 83484, Note_on_c, 0, 66, 0
2, 83488, Note_on_c, 0, 57, 0
2, 83512, Note_on_c, 0, 53, 0
2, 83580, Control_c, 0, 64, 0
2, 83604, Note_on_c, 0, 65, 58
2, 83612, Note_on_c, 0, 62, 46
2, 83620, Note_on_c, 0, 44, 46
2, 83620, Note_on_c, 0, 56, 40
2, 83624, Note_on_c, 0, 59, 44
2, 83624, Note_on_c, 0, 53, 50
2, 83680, Control_c, 0, 64, 127
2, 83684, Note_on_c, 0, 56, 0
2, 83696, Note_on_c, 0, 59, 0
2, 83700, Note_on_c, 0, 62, 0
2, 83704, Note_on_c, 0, 44, 0
2, 83712, Note_on_c, 0, 53, 0
2, 83720, Note_on_c, 0, 65, 0
2, 84008, Note_on_c, 0, 77, 90
2, 84012, Note_on_c, 0, 68, 86
2, 84020, Note_on_c, 0, 59, 81
2, 84024, Note_on_c, 0, 71, 75
2, 84080, Control_c, 0, 64, 0
2, 84172, Note_on_c, 0, 71, 0
2, 84184, Note_on_c, 0, 77, 0
2, 84216, Note_on_c, 0, 68, 0
2, 84348, Control_c, 0, 64, 127
2, 84352, Note_on_c, 0, 59, 0
2, 84364, Note_on_c, 0, 56, 50
2, 84368, Note_on_c, 0, 74, 66
2, 84368, Note_on_c, 0, 68, 57
2, 84372, Note_on_c, 0, 65, 67
2, 84396, Note_on_c, 0, 56, 0
2, 84400, Note_on_c, 0, 74, 0
2, 84404, Note_on_c, 0, 65, 0
2, 84424, Note_on_c, 0, 68, 0
2, 84524, Note_on_c, 0, 44, 47
2, 84588, Note_on_c, 0, 44, 0
2, 84640, Control_c, 0, 64, 0
2, 84676, Note_on_c, 0, 43, 53
2, 84696, Note_on_c, 0, 58, 37
2, 84696, Note_on_c, 0, 62, 54
2, 84704, Note_on_c, 0, 53, 34
2, 84704, Note_on_c, 0, 65, 51
2, 84712, Control_c, 0, 64, 127
2, 84764, Note_on_c, 0, 43, 0
2, 84804, Note_on_c, 0, 58, 0
2, 84808, Note_on_c, 0, 53, 0
2, 84808, Note_on_c, 0, 62, 0
2, 84832, Note_on_c, 0, 65, 0
2, 85224, Note_on_c, 0, 62, 46
2, 85244, Note_on_c, 0, 58, 30
2, 85252, Note_on_c, 0, 60, 35
2, 85284, Note_on_c, 0, 62, 0
2, 85288, Note_on_c, 0, 60, 0
2, 85360, Note_on_c, 0, 58, 0
2, 85388, Note_on_c, 0, 74, 66
2, 85432, Note_on_c, 0, 75, 59
2, 85464, Note_on_c, 0, 74, 0
2, 85472, Control_c, 0, 64, 0
2, 85476, Note_on_c, 0, 76, 73
2, 85484, Note_on_c, 0, 75, 0
2, 85536, Note_on_c, 0, 76, 0
2, 85568, Note_on_c, 0, 77, 62
2, 85660, Note_on_c, 0, 76, 53
2, 85684, Note_on_c, 0, 77, 0
2, 85728, Note_on_c, 0, 76, 0
2, 85728, Note_on_c, 0, 75, 44
2, 85756, Note_on_c, 0, 63, 31
2, 85764, Note_on_c, 0, 58, 33
2, 85772, Note_on_c, 0, 52, 40
2, 85788, Note_on_c, 0, 75, 0
2, 85804, Note_on_c, 0, 74, 33
2, 85844, Note_on_c, 0, 74, 0
2, 85908, Note_on_c, 0, 76, 84
2, 85928, Note_on_c, 0, 63, 0
2, 85932, Note_on_c, 0, 52, 0
2, 85964, Note_on_c, 0, 58, 0
2, 86040, Note_on_c, 0, 76, 0
2, 86044, Note_on_c, 0, 75, 74
2, 86120, Control_c, 0, 64, 127
2, 86136, Note_on_c, 0, 75, 0
2, 86152, Note_on_c, 0, 73, 62
2, 86272, Note_on_c, 0, 73, 0
2, 86272, Control_c, 0, 64, 0
2, 86276, Note_on_c, 0, 72, 59
2, 86304, Note_on_c, 0, 58, 26
2, 86304, Note_on_c, 0, 48, 43
2, 86356, Note_on_c, 0, 72, 0
2, 86408, Note_on_c, 0, 70, 48
2, 86416, Note_on_c, 0, 58, 0
2, 86428, Note_on_c, 0, 48, 0
2, 86464, Note_on_c, 0, 70, 0
2, 86528, Note_on_c, 0, 69, 48
2, 86560, Control_c, 0, 64, 127
2, 86580, Note_on_c, 0, 69, 0
2, 86772, Note_on_c, 0, 41, 24
2, 86776, Note_on_c, 0, 69, 64
2, 86848, Note_on_c, 0, 57, 28
2, 86860, Control_c, 0, 64, 0
2, 86872, Note_on_c, 0, 69, 0
2, 86908, Note_on_c, 0, 67, 55
2, 86912, Note_on_c, 0, 41, 0
2, 86948, Note_on_c, 0, 57, 0
2, 86976, Control_c, 0, 64, 127
2, 87096, Note_on_c, 0, 67, 0
2, 87112, Note_on_c, 0, 64, 37
2, 87144, Note_on_c, 0, 64, 0
2, 87380, Note_on_c, 0, 62, 49
2, 87396, Note_on_c, 0, 53, 36
2, 87400, Note_on_c, 0, 60, 44
2, 87420, Note_on_c, 0, 57, 32
2, 87456, Note_on_c, 0, 62, 0
2, 87460, Note_on_c, 0, 53, 0
2, 87464, Note_on_c, 0, 57, 0
2, 87484, Note_on_c, 0, 60, 0
2, 87584, Note_on_c, 0, 72, 68
2, 87644, Note_on_c, 0, 72, 0
2, 87736, Note_on_c, 0, 77, 96
2, 87856, Note_on_c, 0, 77, 0
2, 87896, Note_on_c, 0, 62, 55
2, 87904, Note_on_c, 0, 63, 37
2, 87908, Note_on_c, 0, 67, 47
2, 87916, Note_on_c, 0, 58, 35
2, 87928, Control_c, 0, 64, 0
2, 87932, Note_on_c, 0, 74, 71
2, 88072, Note_on_c, 0, 74, 0
2, 88096, Note_on_c, 0, 77, 66
2, 88104, Control_c, 0, 64, 127
2, 88208, Note_on_c, 0, 62, 0
2, 88244, Note_on_c, 0, 67, 0
2, 88336, Note_on_c, 0, 58, 0
2, 88352, Note_on_c, 0, 63, 0
2, 88392, Note_on_c, 0, 77, 0
2, 88424, Note_on_c, 0, 63, 32
2, 88428, Note_on_c, 0, 73, 59
2, 88428, Note_on_c, 0, 66, 45
2, 88444, Note_on_c, 0, 57, 36
2, 88452, Note_on_c, 0, 61, 42
2, 88452, Control_c, 0, 64, 0
2, 88568, Control_c, 0, 64, 127
2, 88628, Note_on_c, 0, 73, 0
2, 88640, Note_on_c, 0, 77, 43
2, 88740, Note_on_c, 0, 63, 0
2, 88740, Note_on_c, 0, 61, 0
2, 88760, Note_on_c, 0, 57, 0
2, 88772, Note_on_c, 0, 66, 0
2, 88936, Note_on_c, 0, 77, 0
2, 88968, Note_on_c, 0, 65, 47
2, 88980, Note_on_c, 0, 72, 53
2, 88984, Note_on_c, 0, 62, 35
2, 88992, Control_c, 0, 64, 0
2, 89020, Note_on_c, 0, 60, 24
2, 89100, Control_c, 0, 64, 127
2, 89112, Note_on_c, 0, 65, 0
2, 89172, Note_on_c, 0, 69, 47
2, 89224, Note_on_c, 0, 72, 0
2, 89348, Note_on_c, 0, 53, 68
2, 89404, Note_on_c, 0, 69, 0
2, 89700, Note_on_c, 0, 70, 77
2, 89792, Note_on_c, 0, 70, 0
2, 89820, Note_on_c, 0, 53, 0
2, 89820, Note_on_c, 0, 62, 0
2, 89860, Note_on_c, 0, 60, 0
2, 89864, Note_on_c, 0, 72, 76
2, 90024, Note_on_c, 0, 72, 0
2, 90068, Control_c, 0, 64, 0
2, 90072, Note_on_c, 0, 61, 33
2, 90072, Note_on_c, 0, 69, 40
2, 90076, Note_on_c, 0, 65, 28
2, 90084, Note_on_c, 0, 55, 33
2, 90160, Control_c, 0, 64, 127
2, 90216, Note_on_c, 0, 61, 0
2, 90224, Note_on_c, 0, 55, 0
2, 90352, Note_on_c, 0, 65, 0
2, 90392, Note_on_c, 0, 69, 0
2, 90424, Note_on_c, 0, 61, 55
2, 90596, Note_on_c, 0, 39, 47
2, 90616, Note_on_c, 0, 46, 34
2, 90620, Note_on_c, 0, 61, 0
2, 90632, Control_c, 0, 64, 0
2, 90688, Note_on_c, 0, 39, 0
2, 90704, Note_on_c, 0, 46, 0
2, 90792, Control_c, 0, 64, 127
2, 90828, Note_on_c, 0, 83, 72
2, 90832, Note_on_c, 0, 71, 66
2, 90892, Note_on_c, 0, 71, 0
2, 90912, Note_on_c, 0, 83, 0
2, 91004, Note_on_c, 0, 84, 79
2, 91008, Note_on_c, 0, 72, 68
2, 91072, Note_on_c, 0, 72, 0
2, 91108, Note_on_c, 0, 84, 0
2, 91156, Control_c, 0, 64, 0
2, 91156, Note_on_c, 0, 41, 42
2, 91172, Note_on_c, 0, 57, 40
2, 91208, Control_c, 0, 64, 127
2, 91224, Note_on_c, 0, 41, 0
2, 91244, Note_on_c, 0, 57, 0
2, 91364, Note_on_c, 0, 88, 54
2, 91364, Note_on_c, 0, 76, 55
2, 91396, Note_on_c, 0, 76, 0
2, 91424, Note_on_c, 0, 88, 0
2, 91536, Note_on_c, 0, 89, 74
2, 91536, Note_on_c, 0, 77, 66
2, 91580, Note_on_c, 0, 77, 0
2, 91596, Note_on_c, 0, 89, 0
2, 91712, Note_on_c, 0, 60, 45
2, 91716, Note_on_c, 0, 53, 40
2, 91720, Note_on_c, 0, 62, 43
2, 91724, Control_c, 0, 64, 0
2, 91728, Note_on_c, 0, 57, 35
2, 91748, Note_on_c, 0, 62, 0
2, 91748, Note_on_c, 0, 53, 0
2, 91764, Note_on_c, 0, 57, 0
2, 91768, Note_on_c, 0, 60, 0
2, 91840, Control_c, 0, 64, 127
2, 92060, Note_on_c, 0, 57, 77
2, 92232, Note_on_c, 0, 57, 0
2, 92260, Note_on_c, 0, 57, 48
2, 92264, Note_on_c, 0, 85, 80
2, 92268, Note_on_c, 0, 81, 89
2, 92268, Note_on_c, 0, 88, 89
2, 92272, Note_on_c, 0, 76, 87
2, 92272, Note_on_c, 0, 66, 77
2, 92276, Note_on_c, 0, 62, 71
2, 92308, Control_c, 0, 64, 0
2, 92416, Control_c, 0, 64, 127
2, 92576, Note_on_c, 0, 81, 0
2, 92584, Note_on_c, 0, 57, 0
2, 92588, Note_on_c, 0, 85, 0
2, 92616, Note_on_c, 0, 88, 0
2, 92624, Note_on_c, 0, 76, 0
2, 92656, Note_on_c, 0, 66, 0
2, 92672, Note_on_c, 0, 62, 0
2, 92804, Note_on_c, 0, 86, 74
2, 92808, Note_on_c, 0, 66, 59
2, 92812, Note_on_c, 0, 62, 56
2, 92816, Note_on_c, 0, 56, 61
2, 92820, Note_on_c, 0, 80, 59
2, 92828, Note_on_c, 0, 76, 62
2, 92840, Control_c, 0, 64, 0
2, 92972, Control_c, 0, 64, 127
2, 93016, Note_on_c, 0, 86, 0
2, 93044, Note_on_c, 0, 76, 0
2, 93056, Note_on_c, 0, 80, 0
2, 93056, Note_on_c, 0, 62, 0
2, 93116, Note_on_c, 0, 66, 0
2, 93264, Note_on_c, 0, 56, 0
2, 93356, Control_c, 0, 64, 0
2, 93368, Note_on_c, 0, 85, 91
2, 93376, Note_on_c, 0, 77, 82
2, 93376, Note_on_c, 0, 73, 79
2, 93384, Note_on_c, 0, 61, 64
2, 93388, Note_on_c, 0, 56, 69
2, 93388, Note_on_c, 0, 65, 75
2, 93488, Note_on_c, 0, 77, 0
2, 93496, Control_c, 0, 64, 127
2, 93544, Note_on_c, 0, 73, 0
2, 93580, Note_on_c, 0, 81, 62
2, 93620, Note_on_c, 0, 85, 0
2, 93636, Note_on_c, 0, 65, 0
2, 93656, Note_on_c, 0, 77, 49
2, 93672, Note_on_c, 0, 73, 50
2, 93688, Note_on_c, 0, 81, 0
2, 93688, Note_on_c, 0, 56, 0
2, 93692, Note_on_c, 0, 77, 0
2, 93728, Note_on_c, 0, 73, 0
2, 93728, Note_on_c, 0, 82, 18
2, 93748, Note_on_c, 0, 72, 55
2, 93760, Note_on_c, 0, 82, 0
2, 93804, Note_on_c, 0, 61, 0
2, 93872, Note_on_c, 0, 72, 0
2, 93880, Control_c, 0, 64, 0
2, 93888, Note_on_c, 0, 61, 25
2, 93892, Note_on_c, 0, 65, 41
2, 93900, Note_on_c, 0, 55, 40
2, 93900, Note_on_c, 0, 70, 61
2, 94056, Note_on_c, 0, 69, 51
2, 94064, Control_c, 0, 64, 127
2, 94068, Note_on_c, 0, 65, 0
2, 94076, Note_on_c, 0, 70, 0
2, 94196, Note_on_c, 0, 69, 0
2, 94200, Note_on_c, 0, 61, 0
2, 94248, Note_on_c, 0, 55, 0
2, 94312, Note_on_c, 0, 69, 18
2, 94416, Note_on_c, 0, 69, 0
2, 94428, Note_on_c, 0, 64, 55
2, 94436, Control_c, 0, 64, 0
2, 94436, Note_on_c, 0, 60, 43
2, 94440, Note_on_c, 0, 54, 34
2, 94484, Note_on_c, 0, 54, 0
2, 94588, Control_c, 0, 64, 127
2, 94776, Note_on_c, 0, 55, 64
2, 94800, Note_on_c, 0, 55, 0
2, 94824, Note_on_c, 0, 64, 0
2, 94920, Note_on_c, 0, 60, 0
2, 94956, Note_on_c, 0, 66, 60
2, 94964, Control_c, 0, 64, 0
2, 94972, Note_on_c, 0, 64, 64
2, 94976, Note_on_c, 0, 54, 34
2, 95004, Note_on_c, 0, 54, 0
2, 95144, Control_c, 0, 64, 127
2, 95248, Note_on_c, 0, 66, 0
2, 95256, Note_on_c, 0, 64, 0
2, 95308, Note_on_c, 0, 43, 76
2, 95528, Control_c, 0, 64, 0
2, 95688, Note_on_c, 0, 61, 56
2, 95700, Note_on_c, 0, 53, 60
2, 95704, Note_on_c, 0, 49, 46
2, 95704, Note_on_c, 0, 58, 40
2, 95764, Note_on_c, 0, 53, 0
2, 95792, Note_on_c, 0, 58, 0
2, 95812, Control_c, 0, 64, 127
2, 95824, Note_on_c, 0, 49, 0
2, 95852, Note_on_c, 0, 62, 66
2, 95860, Note_on_c, 0, 61, 0
2, 95872, Note_on_c, 0, 50, 58
2, 95884, Note_on_c, 0, 62, 0
2, 95996, Control_c, 0, 64, 0
2, 96012, Note_on_c, 0, 50, 0
2, 96024, Note_on_c, 0, 63, 59
2, 96036, Note_on_c, 0, 43, 0
2, 96036, Note_on_c, 0, 57, 52
2, 96036, Note_on_c, 0, 53, 75
2, 96040, Note_on_c, 0, 65, 65
2, 96040, Note_on_c, 0, 67, 55
2, 96052, Note_on_c, 0, 62, 44
2, 96056, Note_on_c, 0, 60, 43
2, 96112, Note_on_c, 0, 57, 0
2, 96116, Note_on_c, 0, 67, 0
2, 96136, Note_on_c, 0, 60, 0
2, 96140, Note_on_c, 0, 65, 0
2, 96148, Note_on_c, 0, 62, 0
2, 96164, Note_on_c, 0, 63, 0
2, 96184, Control_c, 0, 64, 127
2, 96268, Note_on_c, 0, 53, 0
2, 96352, Control_c, 0, 64, 0
2, 96352, Note_on_c, 0, 62, 80
2, 96356, Note_on_c, 0, 57, 77
2, 96360, Note_on_c, 0, 58, 65
2, 96360, Note_on_c, 0, 69, 79
2, 96364, Note_on_c, 0, 65, 68
2, 96508, Control_c, 0, 64, 127
2, 96552, Note_on_c, 0, 58, 0
2, 96552, Note_on_c, 0, 62, 0
2, 96556, Note_on_c, 0, 65, 0
2, 96572, Note_on_c, 0, 69, 0
2, 96616, Note_on_c, 0, 57, 0
2, 96884, Note_on_c, 0, 72, 80
2, 96888, Note_on_c, 0, 64, 80
2, 96892, Note_on_c, 0, 58, 64
2, 96896, Note_on_c, 0, 69, 74
2, 96896, Note_on_c, 0, 48, 56
2, 96924, Control_c, 0, 64, 0
2, 97068, Control_c, 0, 64, 127
2, 97148, Note_on_c, 0, 48, 0
2, 97208, Note_on_c, 0, 72, 0
2, 97236, Note_on_c, 0, 69, 0
2, 97260, Note_on_c, 0, 64, 0
2, 97264, Note_on_c, 0, 58, 0
2, 97424, Note_on_c, 0, 48, 68
2, 97672, Control_c, 0, 64, 0
2, 97784, Note_on_c, 0, 65, 66
2, 97788, Note_on_c, 0, 57, 62
2, 97796, Note_on_c, 0, 55, 64
2, 97796, Note_on_c, 0, 60, 53
2, 97852, Note_on_c, 0, 48, 0
2, 97920, Note_on_c, 0, 55, 0
2, 97932, Note_on_c, 0, 57, 0
2, 97944, Note_on_c, 0, 65, 0
2, 97956, Note_on_c, 0, 60, 0
2, 97964, Note_on_c, 0, 48, 73
2, 97972, Control_c, 0, 64, 127
2, 97980, Note_on_c, 0, 50, 37
2, 98008, Note_on_c, 0, 50, 0
2, 98064, Control_c, 0, 64, 0
2, 98144, Note_on_c, 0, 57, 68
2, 98148, Note_on_c, 0, 65, 58
2, 98148, Note_on_c, 0, 60, 56
2, 98152, Note_on_c, 0, 55, 72
2, 98208, Control_c, 0, 64, 127
2, 98356, Note_on_c, 0, 55, 0
2, 98364, Note_on_c, 0, 57, 0
2, 98388, Note_on_c, 0, 60, 0
2, 98544, Note_on_c, 0, 65, 0
2, 98684, Note_on_c, 0, 48, 0
2, 98704, Note_on_c, 0, 65, 78
2, 98704, Note_on_c, 0, 61, 74
2, 98712, Note_on_c, 0, 57, 79
2, 98716, Control_c, 0, 64, 0
2, 98720, Note_on_c, 0, 47, 65
2, 98856, Control_c, 0, 64, 127
2, 98928, Note_on_c, 0, 57, 0
2, 98972, Note_on_c, 0, 65, 0
2, 98992, Note_on_c, 0, 61, 0
2, 99264, Note_on_c, 0, 68, 85
2, 99268, Note_on_c, 0, 65, 80
2, 99272, Note_on_c, 0, 51, 71
2, 99272, Note_on_c, 0, 61, 83
2, 99276, Note_on_c, 0, 57, 78
2, 99280, Control_c, 0, 64, 0
2, 99292, Note_on_c, 0, 64, 32
2, 99324, Note_on_c, 0, 64, 0
2, 99432, Control_c, 0, 64, 127
2, 99560, Note_on_c, 0, 47, 0
2, 99600, Note_on_c, 0, 65, 0
2, 99612, Note_on_c, 0, 61, 0
2, 99628, Note_on_c, 0, 57, 0
2, 99688, Note_on_c, 0, 68, 0
2, 99732, Note_on_c, 0, 51, 0
2, 99756, Control_c, 0, 64, 0
2, 99808, Note_on_c, 0, 65, 52
2, 99820, Note_on_c, 0, 57, 53
2, 99820, Note_on_c, 0, 62, 54
2, 99832, Note_on_c, 0, 53, 42
2, 99836, Note_on_c, 0, 46, 50
2, 99880, Control_c, 0, 64, 127
2, 99888, Note_on_c, 0, 57, 0
2, 99920, Note_on_c, 0, 62, 0
2, 99932, Note_on_c, 0, 65, 0
2, 99944, Note_on_c, 0, 53, 0
2, 99956, Note_on_c, 0, 46, 0
2, 100180, Note_on_c, 0, 79, 90
2, 100308, Note_on_c, 0, 79, 0
2, 100320, Note_on_c, 0, 65, 48
2, 100332, Note_on_c, 0, 62, 40
2, 100348, Note_on_c, 0, 60, 32
2, 100352, Note_on_c, 0, 65, 0
2, 100364, Control_c, 0, 64, 0
2, 100388, Note_on_c, 0, 62, 0
2, 100396, Note_on_c, 0, 60, 0
2, 100484, Note_on_c, 0, 75, 48
2, 100536, Note_on_c, 0, 75, 0
2, 100540, Control_c, 0, 64, 127
2, 100600, Note_on_c, 0, 76, 58
2, 100680, Note_on_c, 0, 76, 0
2, 100728, Note_on_c, 0, 77, 65
2, 100800, Note_on_c, 0, 77, 0
2, 100836, Control_c, 0, 64, 0
2, 100852, Note_on_c, 0, 50, 49
2, 100864, Note_on_c, 0, 58, 25
2, 100864, Note_on_c, 0, 81, 73
2, 100980, Note_on_c, 0, 81, 0
2, 101004, Note_on_c, 0, 50, 0
2, 101020, Note_on_c, 0, 69, 53
2, 101048, Note_on_c, 0, 58, 0
2, 101088, Control_c, 0, 64, 127
2, 101248, Note_on_c, 0, 69, 0
2, 101364, Note_on_c, 0, 65, 52
2, 101376, Note_on_c, 0, 58, 35
2, 101380, Note_on_c, 0, 60, 36
2, 101388, Control_c, 0, 64, 0
2, 101392, Note_on_c, 0, 54, 43
2, 101456, Control_c, 0, 64, 127
2, 101608, Note_on_c, 0, 60, 0
2, 101608, Note_on_c, 0, 65, 0
2, 101652, Note_on_c, 0, 58, 0
2, 101716, Note_on_c, 0, 84, 94
2, 101728, Note_on_c, 0, 54, 0
2, 101820, Note_on_c, 0, 84, 0
2, 101856, Note_on_c, 0, 55, 51
2, 101856, Note_on_c, 0, 62, 44
2, 101868, Note_on_c, 0, 58, 34
2, 101880, Control_c, 0, 64, 0
2, 101884, Note_on_c, 0, 82, 69
2, 101904, Note_on_c, 0, 62, 0
2, 101944, Note_on_c, 0, 58, 0
2, 101956, Note_on_c, 0, 55, 0
2, 101996, Note_on_c, 0, 82, 0
2, 102024, Note_on_c, 0, 78, 37
2, 102064, Note_on_c, 0, 78, 0
2, 102132, Note_on_c, 0, 81, 83
2, 102224, Note_on_c, 0, 81, 0
2, 102244, Control_c, 0, 64, 127
2, 102268, Note_on_c, 0, 79, 68
2, 102328, Control_c, 0, 64, 0
2, 102352, Note_on_c, 0, 50, 40
2, 102356, Note_on_c, 0, 43, 41
2, 102376, Note_on_c, 0, 79, 0
2, 102392, Note_on_c, 0, 74, 55
2, 102472, Note_on_c, 0, 74, 0
2, 102524, Note_on_c, 0, 43, 0
2, 102536, Note_on_c, 0, 72, 66
2, 102564, Note_on_c, 0, 50, 0
2, 102568, Control_c, 0, 64, 127
2, 102588, Note_on_c, 0, 72, 0
2, 102736, Note_on_c, 0, 46, 49
2, 102856, Note_on_c, 0, 46, 0
2, 102880, Note_on_c, 0, 55, 51
2, 102884, Note_on_c, 0, 45, 52
2, 102892, Control_c, 0, 64, 0
2, 102892, Note_on_c, 0, 70, 67
2, 103008, Note_on_c, 0, 45, 0
2, 103028, Note_on_c, 0, 70, 0
2, 103036, Note_on_c, 0, 55, 0
2, 103036, Note_on_c, 0, 67, 37
2, 103072, Note_on_c, 0, 67, 0
2, 103120, Control_c, 0, 64, 127
2, 103160, Note_on_c, 0, 69, 58
2, 103212, Note_on_c, 0, 69, 0
2, 103284, Note_on_c, 0, 70, 73
2, 103360, Note_on_c, 0, 70, 0
2, 103388, Note_on_c, 0, 60, 42
2, 103388, Note_on_c, 0, 65, 43
2, 103392, Note_on_c, 0, 54, 39
2, 103412, Control_c, 0, 64, 0
2, 103416, Note_on_c, 0, 71, 47
2, 103500, Note_on_c, 0, 71, 0
2, 103508, Note_on_c, 0, 65, 0
2, 103544, Note_on_c, 0, 72, 74
2, 103552, Note_on_c, 0, 60, 0
2, 103616, Note_on_c, 0, 54, 0
2, 103628, Control_c, 0, 64, 127
2, 103632, Note_on_c, 0, 72, 0
2, 103672, Note_on_c, 0, 69, 34
2, 103708, Note_on_c, 0, 69, 0
2, 103820, Note_on_c, 0, 43, 59
2, 103880, Note_on_c, 0, 50, 40
2, 103912, Note_on_c, 0, 50, 0
2, 103912, Control_c, 0, 64, 0
2, 103936, Note_on_c, 0, 70, 69
2, 104032, Note_on_c, 0, 54, 6
2, 104112, Control_c, 0, 64, 127
2, 104160, Note_on_c, 0, 70, 0
2, 104332, Note_on_c, 0, 54, 0
2, 104420, Note_on_c, 0, 54, 60
2, 104424, Note_on_c, 0, 58, 48
2, 104432, Note_on_c, 0, 62, 60
2, 104460, Control_c, 0, 64, 0
2, 104600, Control_c, 0, 64, 127
2, 104764, Note_on_c, 0, 54, 0
2, 104772, Note_on_c, 0, 50, 47
2, 104832, Note_on_c, 0, 62, 0
2, 104848, Note_on_c, 0, 58, 0
2, 104860, Note_on_c, 0, 50, 0
2, 104960, Control_c, 0, 64, 0
2, 104968, Note_on_c, 0, 58, 33
2, 104972, Note_on_c, 0, 62, 54
2, 104980, Note_on_c, 0, 53, 47
2, 105068, Note_on_c, 0, 43, 0
2, 105108, Control_c, 0, 64, 127
2, 105188, Note_on_c, 0, 58, 0
2, 105188, Note_on_c, 0, 62, 0
2, 105512, Note_on_c, 0, 43, 53
2, 105528, Note_on_c, 0, 69, 90
2, 105552, Control_c, 0, 64, 0
2, 105560, Note_on_c, 0, 53, 0
2, 105588, Note_on_c, 0, 69, 0
2, 105612, Note_on_c, 0, 43, 0
2, 105648, Note_on_c, 0, 70, 63
2, 105712, Note_on_c, 0, 70, 0
2, 105788, Note_on_c, 0, 71, 71
2, 105800, Control_c, 0, 64, 127
2, 105872, Note_on_c, 0, 71, 0
2, 105920, Note_on_c, 0, 72, 72
2, 106000, Note_on_c, 0, 72, 0
2, 106048, Note_on_c, 0, 39, 57
2, 106052, Note_on_c, 0, 46, 48
2, 106060, Note_on_c, 0, 69, 65
2, 106100, Control_c, 0, 64, 0
2, 106148, Note_on_c, 0, 69, 0
2, 106168, Note_on_c, 0, 39, 0
2, 106192, Note_on_c, 0, 65, 53
2, 106204, Note_on_c, 0, 46, 0
2, 106288, Note_on_c, 0, 65, 0
2, 106304, Note_on_c, 0, 61, 44
2, 106308, Control_c, 0, 64, 127
2, 106400, Note_on_c, 0, 61, 0
2, 106468, Note_on_c, 0, 60, 36
2, 106508, Note_on_c, 0, 60, 0
2, 106576, Note_on_c, 0, 63, 74
2, 106608, Control_c, 0, 64, 0
2, 106696, Note_on_c, 0, 63, 0
2, 106716, Note_on_c, 0, 60, 46
2, 106768, Note_on_c, 0, 60, 0
2, 106848, Note_on_c, 0, 61, 46
2, 106856, Control_c, 0, 64, 127
2, 106964, Note_on_c, 0, 61, 0
2, 106980, Note_on_c, 0, 62, 66
2, 107060, Note_on_c, 0, 62, 0
2, 107072, Control_c, 0, 64, 0
2, 107080, Note_on_c, 0, 38, 46
2, 107108, Note_on_c, 0, 65, 43
2, 107132, Note_on_c, 0, 38, 0
2, 107200, Note_on_c, 0, 65, 0
2, 107252, Note_on_c, 0, 66, 60
2, 107324, Note_on_c, 0, 66, 0
2, 107340, Control_c, 0, 64, 127
2, 107376, Note_on_c, 0, 67, 66
2, 107452, Note_on_c, 0, 67, 0
2, 107496, Note_on_c, 0, 68, 81
2, 107592, Note_on_c, 0, 68, 0
2, 107620, Note_on_c, 0, 69, 79
2, 107620, Note_on_c, 0, 65, 61
2, 107628, Note_on_c, 0, 60, 50
2, 107632, Note_on_c, 0, 54, 39
2, 107644, Note_on_c, 0, 58, 35
2, 107664, Control_c, 0, 64, 0
2, 107700, Note_on_c, 0, 69, 0
2, 107756, Note_on_c, 0, 70, 74
2, 107816, Note_on_c, 0, 70, 0
2, 107840, Control_c, 0, 64, 127
2, 107880, Note_on_c, 0, 71, 37
2, 107888, Note_on_c, 0, 65, 0
2, 107896, Note_on_c, 0, 60, 0
2, 107936, Note_on_c, 0, 71, 0
2, 108016, Note_on_c, 0, 74, 50
2, 108084, Note_on_c, 0, 74, 0
2, 108088, Note_on_c, 0, 58, 0
2, 108100, Note_on_c, 0, 54, 0
2, 108132, Note_on_c, 0, 64, 53
2, 108144, Note_on_c, 0, 59, 53
2, 108144, Note_on_c, 0, 81, 71
2, 108152, Note_on_c, 0, 69, 64
2, 108156, Control_c, 0, 64, 0
2, 108172, Note_on_c, 0, 53, 36
2, 108208, Note_on_c, 0, 64, 0
2, 108220, Note_on_c, 0, 69, 0
2, 108232, Note_on_c, 0, 81, 0
2, 108296, Note_on_c, 0, 81, 50
2, 108336, Note_on_c, 0, 59, 0
2, 108336, Note_on_c, 0, 74, 52
2, 108344, Note_on_c, 0, 81, 0
2, 108364, Note_on_c, 0, 74, 0
2, 108376, Note_on_c, 0, 53, 0
2, 108424, Note_on_c, 0, 80, 46
2, 108428, Note_on_c, 0, 74, 46
2, 108428, Note_on_c, 0, 68, 56
2, 108452, Note_on_c, 0, 68, 0
2, 108468, Note_on_c, 0, 74, 0
2, 108488, Note_on_c, 0, 80, 0
2, 108524, Control_c, 0, 64, 127
2, 108568, Note_on_c, 0, 80, 61
2, 108572, Note_on_c, 0, 68, 68
2, 108588, Note_on_c, 0, 74, 64
2, 108616, Note_on_c, 0, 74, 0
2, 108624, Control_c, 0, 64, 0
2, 108640, Note_on_c, 0, 68, 0
2, 108660, Note_on_c, 0, 80, 0
2, 108684, Note_on_c, 0, 43, 60
2, 108696, Note_on_c, 0, 79, 60
2, 108700, Note_on_c, 0, 67, 34
2, 108700, Note_on_c, 0, 78, 31
2, 108712, Note_on_c, 0, 74, 46
2, 108764, Note_on_c, 0, 78, 0
2, 108772, Control_c, 0, 64, 127
2, 108852, Note_on_c, 0, 79, 0
2, 108860, Note_on_c, 0, 74, 0
2, 108872, Note_on_c, 0, 67, 0
2, 108948, Note_on_c, 0, 43, 0
2, 108988, Note_on_c, 0, 78, 62
2, 108992, Note_on_c, 0, 73, 71
2, 108996, Note_on_c, 0, 66, 60
2, 109108, Note_on_c, 0, 73, 0
2, 109120, Note_on_c, 0, 66, 0
2, 109132, Note_on_c, 0, 78, 0
2, 109256, Control_c, 0, 64, 0
2, 109268, Note_on_c, 0, 72, 80
2, 109268, Note_on_c, 0, 79, 74
2, 109276, Note_on_c, 0, 65, 64
2, 109284, Note_on_c, 0, 77, 64
2, 109284, Note_on_c, 0, 67, 60
2, 109316, Note_on_c, 0, 77, 0
2, 109556, Control_c, 0, 64, 127
2, 109588, Note_on_c, 0, 61, 77
2, 109736, Note_on_c, 0, 61, 0
2, 109756, Control_c, 0, 64, 0
2, 109812, Note_on_c, 0, 60, 67
2, 109844, Control_c, 0, 64, 127
2, 109964, Note_on_c, 0, 79, 0
2, 109972, Note_on_c, 0, 72, 0
2, 110020, Note_on_c, 0, 67, 0
2, 110044, Note_on_c, 0, 65, 0
2, 110132, Note_on_c, 0, 60, 0
2, 110148, Note_on_c, 0, 50, 58
2, 110244, Note_on_c, 0, 50, 0
2, 110356, Control_c, 0, 64, 0
2, 110360, Note_on_c, 0, 68, 51
2, 110364, Note_on_c, 0, 74, 60
2, 110364, Note_on_c, 0, 71, 56
2, 110368, Note_on_c, 0, 64, 53
2, 110388, Note_on_c, 0, 55, 30
2, 110392, Note_on_c, 0, 57, 27
2, 110420, Note_on_c, 0, 57, 0
2, 110612, Note_on_c, 0, 71, 0
2, 110616, Note_on_c, 0, 74, 0
2, 110644, Note_on_c, 0, 68, 0
2, 110644, Control_c, 0, 64, 127
2, 110648, Note_on_c, 0, 55, 0
2, 110648, Note_on_c, 0, 64, 0
2, 110692, Note_on_c, 0, 43, 53
2, 110904, Note_on_c, 0, 54, 50
2, 110904, Control_c, 0, 64, 0
2, 110908, Note_on_c, 0, 59, 54
2, 110916, Note_on_c, 0, 63, 42
2, 110916, Note_on_c, 0, 71, 49
2, 110924, Note_on_c, 0, 67, 47
2, 111012, Control_c, 0, 64, 127
2, 111040, Note_on_c, 0, 54, 0
2, 111040, Note_on_c, 0, 43, 0
2, 111048, Note_on_c, 0, 59, 0
2, 111080, Note_on_c, 0, 67, 0
2, 111088, Note_on_c, 0, 63, 0
2, 111112, Note_on_c, 0, 71, 0
2, 111256, Note_on_c, 0, 65, 69
2, 111256, Note_on_c, 0, 74, 73
2, 111260, Note_on_c, 0, 69, 60
2, 111268, Note_on_c, 0, 62, 62
2, 111272, Note_on_c, 0, 53, 68
2, 111276, Control_c, 0, 64, 0
2, 111428, Control_c, 0, 64, 127
2, 111468, Note_on_c, 0, 53, 0
2, 111504, Note_on_c, 0, 62, 0
2, 111600, Note_on_c, 0, 65, 0
2, 111624, Note_on_c, 0, 74, 0
2, 111628, Note_on_c, 0, 69, 0
2, 111800, Note_on_c, 0, 53, 58
2, 111800, Note_on_c, 0, 69, 81
2, 111804, Note_on_c, 0, 60, 44
2, 111804, Note_on_c, 0, 74, 82
2, 111808, Note_on_c, 0, 65, 80
2, 111876, Control_c, 0, 64, 0
2, 111968, Control_c, 0, 64, 127
2, 112104, Note_on_c, 0, 53, 0
2, 112180, Note_on_c, 0, 60, 0
2, 112236, Note_on_c, 0, 65, 0
2, 112284, Note_on_c, 0, 69, 0
2, 112296, Note_on_c, 0, 74, 0
2, 112544, Control_c, 0, 64, 0
2, 112560, Note_on_c, 0, 74, 82
2, 112568, Note_on_c, 0, 69, 80
2, 112568, Note_on_c, 0, 65, 76
2, 112568, Note_on_c, 0, 64, 76
2, 112720, Note_on_c, 0, 69, 0
2, 112720, Note_on_c, 0, 74, 0
2, 112732, Note_on_c, 0, 65, 0
2, 112744, Note_on_c, 0, 64, 0
2, 112744, Note_on_c, 0, 63, 56
2, 112744, Control_c, 0, 64, 127
2, 112876, Control_c, 0, 64, 0
2, 112892, Note_on_c, 0, 63, 0
2, 112916, Note_on_c, 0, 75, 69
2, 112920, Note_on_c, 0, 69, 68
2, 112924, Note_on_c, 0, 65, 54
2, 112928, Note_on_c, 0, 62, 60
2, 113052, Control_c, 0, 64, 127
2, 113104, Note_on_c, 0, 69, 0
2, 113128, Note_on_c, 0, 65, 0
2, 113160, Note_on_c, 0, 75, 0
2, 113192, Control_c, 0, 64, 0
2, 113212, Note_on_c, 0, 62, 0
2, 113268, Note_on_c, 0, 76, 67
2, 113268, Note_on_c, 0, 61, 56
2, 113268, Note_on_c, 0, 69, 69
2, 113272, Note_on_c, 0, 65, 62
2, 113316, Control_c, 0, 64, 127
2, 113356, Note_on_c, 0, 76, 0
2, 113368, Note_on_c, 0, 69, 0
2, 113388, Note_on_c, 0, 61, 0
2, 113400, Note_on_c, 0, 65, 0
2, 113816, Control_c, 0, 64, 0
2, 113820, Note_on_c, 0, 43, 58
2, 113872, Control_c, 0, 64, 127
2, 113880, Note_on_c, 0, 43, 0
2, 114184, Note_on_c, 0, 69, 58
2, 114188, Note_on_c, 0, 61, 55
2, 114192, Note_on_c, 0, 64, 64
2, 114192, Note_on_c, 0, 59, 46
2, 114212, Note_on_c, 0, 53, 38
2, 114352, Note_on_c, 0, 53, 0
2, 114368, Note_on_c, 0, 59, 0
2, 114384, Note_on_c, 0, 69, 0
2, 114396, Note_on_c, 0, 64, 0
2, 114412, Note_on_c, 0, 61, 0
2, 114532, Note_on_c, 0, 61, 60
2, 114532, Note_on_c, 0, 69, 58
2, 114536, Note_on_c, 0, 64, 63
2, 114536, Note_on_c, 0, 59, 48
2, 114544, Note_on_c, 0, 53, 53
2, 114652, Note_on_c, 0, 53, 0
2, 114664, Note_on_c, 0, 64, 0
2, 114676, Note_on_c, 0, 59, 0
2, 114684, Note_on_c, 0, 61, 0
2, 114688, Note_on_c, 0, 69, 0
2, 114912, Control_c, 0, 64, 0
2, 114924, Note_on_c, 0, 74, 72
2, 114928, Note_on_c, 0, 70, 70
2, 114932, Note_on_c, 0, 58, 52
2, 114936, Note_on_c, 0, 65, 69
2, 114968, Note_on_c, 0, 65, 0
2, 114984, Note_on_c, 0, 74, 0
2, 115016, Note_on_c, 0, 70, 0
2, 115056, Control_c, 0, 64, 127
2, 115060, Note_on_c, 0, 58, 0
2, 115064, Control_c, 0, 64, 0
2, 115068, Note_on_c, 0, 75, 70
2, 115140, Note_on_c, 0, 75, 0
2, 115216, Note_on_c, 0, 76, 84
2, 115232, Control_c, 0, 64, 127
2, 115252, Note_on_c, 0, 75, 30
2, 115276, Note_on_c, 0, 75, 0
2, 115324, Note_on_c, 0, 76, 0
2, 115512, Note_on_c, 0, 68, 73
2, 115516, Note_on_c, 0, 64, 67
2, 115532, Note_on_c, 0, 48, 54
2, 115556, Note_on_c, 0, 58, 31
2, 115596, Control_c, 0, 64, 0
2, 115704, Control_c, 0, 64, 127
2, 115848, Note_on_c, 0, 58, 0
2, 115904, Note_on_c, 0, 64, 0
2, 116064, Note_on_c, 0, 58, 55
2, 116116, Note_on_c, 0, 58, 0
2, 116144, Note_on_c, 0, 48, 0
2, 116220, Note_on_c, 0, 68, 0
2, 116244, Note_on_c, 0, 60, 55
2, 116324, Note_on_c, 0, 60, 0
2, 116400, Note_on_c, 0, 64, 70
2, 116492, Note_on_c, 0, 64, 0
2, 116556, Note_on_c, 0, 68, 70
2, 116620, Note_on_c, 0, 68, 0
2, 116740, Note_on_c, 0, 41, 31
2, 116748, Note_on_c, 0, 72, 64
2, 116752, Control_c, 0, 64, 0
2, 116752, Note_on_c, 0, 57, 40
2, 116844, Control_c, 0, 64, 127
2, 116848, Note_on_c, 0, 41, 0
2, 116928, Note_on_c, 0, 57, 0
2, 117028, Note_on_c, 0, 72, 0
2, 117100, Note_on_c, 0, 76, 73
2, 117260, Note_on_c, 0, 64, 54
2, 117280, Note_on_c, 0, 60, 36
2, 117288, Note_on_c, 0, 53, 29
2, 117300, Note_on_c, 0, 57, 28
2, 117332, Note_on_c, 0, 64, 0
2, 117364, Note_on_c, 0, 57, 0
2, 117372, Note_on_c, 0, 60, 0
2, 117384, Note_on_c, 0, 53, 0
2, 117628, Note_on_c, 0, 76, 0
2, 117780, Control_c, 0, 64, 0
2, 117800, Note_on_c, 0, 56, 43
2, 117808, Note_on_c, 0, 47, 49
2, 117888, Control_c, 0, 64, 127
2, 117936, Note_on_c, 0, 47, 0
2, 117980, Note_on_c, 0, 56, 0
2, 118152, Note_on_c, 0, 77, 113
2, 118304, Note_on_c, 0, 62, 41
2, 118320, Note_on_c, 0, 76, 60
2, 118332, Note_on_c, 0, 59, 28
2, 118332, Note_on_c, 0, 56, 20
2, 118340, Note_on_c, 0, 62, 0
2, 118340, Note_on_c, 0, 77, 0
2, 118340, Note_on_c, 0, 53, 22
2, 118352, Control_c, 0, 64, 0
2, 118384, Note_on_c, 0, 53, 0
2, 118384, Note_on_c, 0, 59, 0
2, 118388, Note_on_c, 0, 75, 62
2, 118392, Note_on_c, 0, 76, 0
2, 118416, Note_on_c, 0, 56, 0
2, 118460, Note_on_c, 0, 74, 34
2, 118492, Note_on_c, 0, 75, 0
2, 118560, Control_c, 0, 64, 127
2, 118580, Note_on_c, 0, 74, 0
2, 118688, Note_on_c, 0, 71, 68
2, 118828, Note_on_c, 0, 71, 0
2, 118836, Note_on_c, 0, 43, 59
2, 118836, Control_c, 0, 64, 0
2, 118892, Note_on_c, 0, 72, 66
2, 118928, Note_on_c, 0, 43, 0
2, 118992, Control_c, 0, 64, 127
2, 119184, Note_on_c, 0, 72, 0
2, 119208, Note_on_c, 0, 69, 55
2, 119372, Note_on_c, 0, 58, 25
2, 119388, Note_on_c, 0, 70, 60
2, 119412, Note_on_c, 0, 69, 0
2, 119432, Note_on_c, 0, 58, 0
2, 119464, Note_on_c, 0, 70, 0
2, 119708, Note_on_c, 0, 74, 94
2, 119872, Note_on_c, 0, 74, 0
2, 119884, Note_on_c, 0, 58, 33
2, 119892, Note_on_c, 0, 48, 46
2, 119916, Control_c, 0, 64, 0
2, 119932, Note_on_c, 0, 72, 47
2, 120000, Control_c, 0, 64, 127
2, 120084, Note_on_c, 0, 72, 0
2, 120084, Note_on_c, 0, 48, 0
2, 120156, Note_on_c, 0, 58, 0
2, 120248, Note_on_c, 0, 60, 71
2, 120384, Note_on_c, 0, 60, 0
2, 120424, Note_on_c, 0, 58, 32
2, 120456, Note_on_c, 0, 62, 67
2, 120476, Note_on_c, 0, 58, 0
2, 120516, Control_c, 0, 64, 0
2, 120560, Note_on_c, 0, 62, 0
2, 120616, Note_on_c, 0, 60, 31
2, 120652, Note_on_c, 0, 60, 0
2, 120684, Control_c, 0, 64, 127
2, 120768, Note_on_c, 0, 64, 74
2, 120768, Note_on_c, 0, 67, 66
2, 120868, Control_c, 0, 64, 0
2, 120948, Control_c, 0, 64, 127
2, 120948, Note_on_c, 0, 41, 43
2, 120960, Note_on_c, 0, 48, 34
2, 121016, Note_on_c, 0, 64, 0
2, 121020, Note_on_c, 0, 67, 0
2, 121020, Note_on_c, 0, 41, 0
2, 121056, Note_on_c, 0, 48, 0
2, 121520, Note_on_c, 0, 62, 47
2, 121524, Note_on_c, 0, 60, 37
2, 121528, Note_on_c, 0, 53, 41
2, 121544, Note_on_c, 0, 57, 36
2, 121604, Note_on_c, 0, 62, 0
2, 121632, Note_on_c, 0, 57, 0
2, 121632, Note_on_c, 0, 53, 0
2, 121636, Note_on_c, 0, 60, 0
2, 122080, Note_on_c, 0, 80, 77
2, 122084, Control_c, 0, 64, 0
2, 122092, Note_on_c, 0, 77, 74
2, 122092, Note_on_c, 0, 68, 90
2, 122096, Note_on_c, 0, 73, 80
2, 122100, Note_on_c, 0, 63, 71
2, 122104, Note_on_c, 0, 57, 66
2, 122240, Control_c, 0, 64, 127
2, 122448, Note_on_c, 0, 77, 0
2, 122488, Note_on_c, 0, 63, 0
2, 122492, Note_on_c, 0, 73, 0
2, 122500, Note_on_c, 0, 68, 0
2, 122560, Note_on_c, 0, 80, 0
2, 122644, Note_on_c, 0, 63, 50
2, 122648, Note_on_c, 0, 77, 71
2, 122648, Control_c, 0, 64, 0
2, 122656, Note_on_c, 0, 53, 47
2, 122668, Note_on_c, 0, 73, 61
2, 122672, Note_on_c, 0, 68, 60
2, 122680, Control_c, 0, 64, 127
2, 122696, Note_on_c, 0, 57, 0
2, 122788, Note_on_c, 0, 63, 0
2, 122824, Note_on_c, 0, 53, 0
2, 122844, Note_on_c, 0, 77, 0
2, 122876, Note_on_c, 0, 73, 0
2, 122880, Note_on_c, 0, 68, 0
2, 123172, Control_c, 0, 64, 0
2, 123172, Note_on_c, 0, 69, 46
2, 123180, Note_on_c, 0, 77, 46
2, 123180, Note_on_c, 0, 65, 45
2, 123188, Note_on_c, 0, 46, 50
2, 123196, Note_on_c, 0, 76, 45
2, 123224, Note_on_c, 0, 76, 0
2, 123240, Note_on_c, 0, 57, 19
2, 123308, Control_c, 0, 64, 127
2, 123316, Note_on_c, 0, 46, 0
2, 123376, Note_on_c, 0, 57, 0
2, 123400, Note_on_c, 0, 65, 0
2, 123416, Note_on_c, 0, 69, 0
2, 123464, Note_on_c, 0, 77, 0
2, 123736, Note_on_c, 0, 65, 56
2, 123744, Note_on_c, 0, 62, 37
2, 123744, Note_on_c, 0, 60, 48
2, 123744, Note_on_c, 0, 81, 87
2, 123756, Note_on_c, 0, 55, 40
2, 123808, Note_on_c, 0, 65, 0
2, 123812, Note_on_c, 0, 81, 0
2, 123816, Control_c, 0, 64, 0
2, 123820, Note_on_c, 0, 55, 0
2, 123856, Note_on_c, 0, 62, 0
2, 123876, Note_on_c, 0, 82, 61
2, 123888, Note_on_c, 0, 60, 0
2, 123888, Control_c, 0, 64, 127
2, 123944, Note_on_c, 0, 82, 0
2, 123988, Note_on_c, 0, 84, 81
2, 124000, Note_on_c, 0, 86, 36
2, 124028, Note_on_c, 0, 86, 0
2, 124080, Note_on_c, 0, 84, 0
2, 124104, Note_on_c, 0, 81, 76
2, 124172, Note_on_c, 0, 81, 0
2, 124236, Note_on_c, 0, 77, 62
2, 124236, Note_on_c, 0, 65, 44
2, 124236, Note_on_c, 0, 61, 37
2, 124256, Note_on_c, 0, 55, 34
2, 124256, Control_c, 0, 64, 0
2, 124280, Note_on_c, 0, 65, 0
2, 124284, Note_on_c, 0, 77, 0
2, 124292, Note_on_c, 0, 55, 0
2, 124368, Note_on_c, 0, 61, 0
2, 124368, Note_on_c, 0, 79, 67
2, 124432, Note_on_c, 0, 79, 0
2, 124456, Control_c, 0, 64, 127
2, 124488, Note_on_c, 0, 81, 70
2, 124556, Note_on_c, 0, 81, 0
2, 124624, Note_on_c, 0, 77, 59
2, 124688, Note_on_c, 0, 77, 0
2, 124760, Note_on_c, 0, 73, 50
2, 124772, Note_on_c, 0, 55, 34
2, 124780, Control_c, 0, 64, 0
2, 124804, Note_on_c, 0, 55, 0
2, 124824, Note_on_c, 0, 73, 0
2, 124988, Control_c, 0, 64, 127
2, 125264, Note_on_c, 0, 57, 49
2, 125296, Control_c, 0, 64, 0
2, 125340, Note_on_c, 0, 72, 49
2, 125364, Note_on_c, 0, 57, 0
2, 125372, Note_on_c, 0, 69, 30
2, 125404, Note_on_c, 0, 69, 0
2, 125412, Control_c, 0, 64, 127
2, 125460, Note_on_c, 0, 72, 0
2, 125832, Note_on_c, 0, 60, 48
2, 125836, Note_on_c, 0, 62, 44
2, 125840, Note_on_c, 0, 53, 36
2, 125848, Note_on_c, 0, 57, 38
2, 125868, Note_on_c, 0, 62, 0
2, 125896, Note_on_c, 0, 60, 0
2, 125896, Control_c, 0, 64, 0
2, 125932, Note_on_c, 0, 57, 0
2, 125944, Note_on_c, 0, 53, 0
2, 125964, Note_on_c, 0, 72, 46
2, 126000, Note_on_c, 0, 72, 0
2, 126004, Note_on_c, 0, 74, 71
2, 126072, Note_on_c, 0, 72, 46
2, 126104, Note_on_c, 0, 74, 0
2, 126104, Control_c, 0, 64, 127
2, 126152, Note_on_c, 0, 72, 0
2, 126168, Note_on_c, 0, 71, 32
2, 126212, Note_on_c, 0, 71, 0
2, 126264, Note_on_c, 0, 72, 45
2, 126344, Note_on_c, 0, 74, 74
2, 126356, Note_on_c, 0, 72, 0
2, 126372, Control_c, 0, 64, 0
2, 126404, Note_on_c, 0, 57, 40
2, 126408, Note_on_c, 0, 74, 0
2, 126408, Note_on_c, 0, 47, 52
2, 126440, Note_on_c, 0, 76, 80
2, 126488, Note_on_c, 0, 47, 0
2, 126504, Note_on_c, 0, 57, 0
2, 126504, Control_c, 0, 64, 127
2, 126656, Note_on_c, 0, 69, 66
2, 126740, Note_on_c, 0, 76, 0
2, 126908, Note_on_c, 0, 68, 60
2, 126920, Note_on_c, 0, 62, 49
2, 126932, Note_on_c, 0, 56, 53
2, 126940, Note_on_c, 0, 69, 0
2, 127168, Note_on_c, 0, 62, 0
2, 127296, Note_on_c, 0, 68, 0
2, 127444, Note_on_c, 0, 61, 62
2, 127448, Note_on_c, 0, 65, 74
2, 127476, Control_c, 0, 64, 0
2, 127476, Note_on_c, 0, 72, 79
2, 127480, Note_on_c, 0, 60, 30
2, 127508, Note_on_c, 0, 60, 0
2, 127552, Note_on_c, 0, 72, 0
2, 127628, Control_c, 0, 64, 127
2, 127712, Note_on_c, 0, 65, 0
2, 127776, Note_on_c, 0, 55, 83
2, 127780, Note_on_c, 0, 56, 0
2, 127788, Note_on_c, 0, 61, 0
2, 127928, Control_c, 0, 64, 0
2, 128000, Note_on_c, 0, 70, 69
2, 128004, Note_on_c, 0, 61, 63
2, 128008, Note_on_c, 0, 65, 72
2, 128024, Note_on_c, 0, 55, 0
2, 128092, Control_c, 0, 64, 127
2, 128308, Note_on_c, 0, 65, 0
2, 128320, Note_on_c, 0, 45, 75
2, 128336, Note_on_c, 0, 61, 0
2, 128344, Note_on_c, 0, 70, 0
2, 128476, Control_c, 0, 64, 0
2, 128524, Note_on_c, 0, 69, 58
2, 128532, Note_on_c, 0, 64, 56
2, 128536, Note_on_c, 0, 60, 49
2, 128540, Note_on_c, 0, 55, 55
2, 128584, Note_on_c, 0, 45, 0
2, 128624, Control_c, 0, 64, 127
2, 128748, Note_on_c, 0, 69, 0
2, 128752, Note_on_c, 0, 55, 0
2, 128812, Note_on_c, 0, 64, 0
2, 128836, Note_on_c, 0, 50, 69
2, 128872, Note_on_c, 0, 60, 0
2, 129020, Note_on_c, 0, 50, 0
2, 129036, Control_c, 0, 64, 0
2, 129040, Note_on_c, 0, 56, 53
2, 129044, Note_on_c, 0, 68, 65
2, 129052, Note_on_c, 0, 64, 61
2, 129052, Note_on_c, 0, 60, 59
2, 129128, Note_on_c, 0, 56, 0
2, 129252, Control_c, 0, 64, 127
2, 129372, Note_on_c, 0, 60, 0
2, 129376, Note_on_c, 0, 43, 71
2, 129384, Note_on_c, 0, 68, 0
2, 129396, Note_on_c, 0, 64, 0
2, 129540, Control_c, 0, 64, 0
2, 129580, Note_on_c, 0, 53, 62
2, 129580, Note_on_c, 0, 64, 55
2, 129584, Note_on_c, 0, 67, 57
2, 129584, Note_on_c, 0, 59, 57
2, 129648, Note_on_c, 0, 59, 0
2, 129660, Control_c, 0, 64, 127
2, 129692, Note_on_c, 0, 64, 0
2, 129708, Note_on_c, 0, 67, 0
2, 129784, Note_on_c, 0, 43, 0
2, 129824, Note_on_c, 0, 53, 0
2, 130132, Note_on_c, 0, 64, 68
2, 130136, Note_on_c, 0, 59, 64
2, 130140, Note_on_c, 0, 53, 57
2, 130148, Control_c, 0, 64, 0
2, 130200, Control_c, 0, 64, 127
2, 130324, Note_on_c, 0, 64, 0
2, 130340, Note_on_c, 0, 59, 0
2, 130372, Note_on_c, 0, 53, 0
2, 130676, Control_c, 0, 64, 0
2, 130684, Note_on_c, 0, 74, 72
2, 130684, Note_on_c, 0, 58, 63
2, 130684, Note_on_c, 0, 70, 77
2, 130688, Note_on_c, 0, 77, 68
2, 130692, Note_on_c, 0, 65, 81
2, 130816, Control_c, 0, 64, 127
2, 130836, Note_on_c, 0, 74, 0
2, 130840, Note_on_c, 0, 77, 0
2, 130880, Note_on_c, 0, 70, 0
2, 130904, Note_on_c, 0, 65, 0
2, 130920, Note_on_c, 0, 58, 0
2, 131028, Note_on_c, 0, 48, 58
2, 131216, Control_c, 0, 64, 0
2, 131232, Note_on_c, 0, 58, 50
2, 131236, Note_on_c, 0, 57, 50
2, 131240, Note_on_c, 0, 64, 58
2, 131248, Note_on_c, 0, 61, 46
2, 131248, Note_on_c, 0, 69, 49
2, 131252, Note_on_c, 0, 68, 25
2, 131324, Control_c, 0, 64, 127
2, 131472, Note_on_c, 0, 69, 0
2, 131528, Note_on_c, 0, 58, 0
2, 131532, Note_on_c, 0, 68, 0
2, 131536, Note_on_c, 0, 64, 0
2, 131544, Note_on_c, 0, 57, 0
2, 131760, Note_on_c, 0, 60, 62
2, 131760, Note_on_c, 0, 67, 65
2, 131764, Note_on_c, 0, 57, 65
2, 131768, Note_on_c, 0, 64, 58
2, 131776, Note_on_c, 0, 61, 0
2, 131780, Control_c, 0, 64, 0
2, 131804, Note_on_c, 0, 48, 0
2, 132120, Control_c, 0, 64, 127
2, 132124, Note_on_c, 0, 48, 96
2, 132296, Note_on_c, 0, 48, 0
2, 132352, Note_on_c, 0, 48, 81
2, 132524, Note_on_c, 0, 48, 0
2, 132632, Note_on_c, 0, 64, 0
2, 132648, Note_on_c, 0, 67, 0
2, 132652, Note_on_c, 0, 60, 0
2, 132696, Note_on_c, 0, 48, 95
2, 132728, Note_on_c, 0, 57, 0
2, 132904, Control_c, 0, 64, 0
2, 132912, Note_on_c, 0, 65, 66
2, 132912, Note_on_c, 0, 58, 67
2, 132916, Note_on_c, 0, 62, 70
2, 132920, Note_on_c, 0, 55, 72
2, 133044, Control_c, 0, 64, 127
2, 133116, Note_on_c, 0, 48, 0
2, 133180, Note_on_c, 0, 62, 0
2, 133200, Note_on_c, 0, 65, 0
2, 133228, Note_on_c, 0, 55, 0
2, 133260, Note_on_c, 0, 58, 0
2, 133284, Note_on_c, 0, 48, 79
2, 133388, Note_on_c, 0, 48, 0
2, 133436, Control_c, 0, 64, 0
2, 133460, Note_on_c, 0, 64, 68
2, 133460, Note_on_c, 0, 56, 60
2, 133468, Note_on_c, 0, 61, 46
2, 133476, Note_on_c, 0, 52, 34
2, 133484, Note_on_c, 0, 53, 34
2, 133512, Control_c, 0, 64, 127
2, 133516, Note_on_c, 0, 52, 0
2, 133532, Note_on_c, 0, 53, 0
2, 133556, Note_on_c, 0, 56, 0
2, 133576, Note_on_c, 0, 64, 0
2, 133580, Note_on_c, 0, 61, 0
2, 133820, Note_on_c, 0, 76, 94
2, 133824, Note_on_c, 0, 69, 96
2, 133976, Note_on_c, 0, 69, 0
2, 133996, Control_c, 0, 64, 0
2, 134008, Note_on_c, 0, 76, 0
2, 134024, Note_on_c, 0, 57, 41
2, 134028, Note_on_c, 0, 48, 48
2, 134032, Note_on_c, 0, 64, 55
2, 134032, Note_on_c, 0, 72, 58
2, 134052, Note_on_c, 0, 69, 50
2, 134068, Note_on_c, 0, 41, 6
2, 134144, Control_c, 0, 64, 127
2, 134172, Note_on_c, 0, 41, 0
2, 134208, Note_on_c, 0, 48, 0
2, 134244, Note_on_c, 0, 57, 0
2, 134368, Note_on_c, 0, 64, 0
2, 134492, Note_on_c, 0, 69, 0
2, 134524, Note_on_c, 0, 72, 0
2, 134556, Note_on_c, 0, 60, 48
2, 134568, Note_on_c, 0, 53, 45
2, 134632, Note_on_c, 0, 60, 0
2, 134664, Note_on_c, 0, 53, 0
2, 134928, Note_on_c, 0, 79, 89
2, 134932, Note_on_c, 0, 74, 96
2, 135076, Note_on_c, 0, 74, 0
2, 135084, Control_c, 0, 64, 0
2, 135092, Note_on_c, 0, 79, 0
2, 135104, Note_on_c, 0, 47, 49
2, 135108, Note_on_c, 0, 56, 35
2, 135140, Note_on_c, 0, 71, 38
2, 135144, Note_on_c, 0, 77, 57
2, 135220, Control_c, 0, 64, 127
2, 135268, Note_on_c, 0, 47, 0
2, 135296, Note_on_c, 0, 71, 0
2, 135316, Note_on_c, 0, 56, 0
2, 135408, Note_on_c, 0, 77, 0
2, 135480, Note_on_c, 0, 68, 43
2, 135480, Note_on_c, 0, 74, 59
2, 135636, Note_on_c, 0, 62, 47
2, 135640, Note_on_c, 0, 56, 37
2, 135644, Note_on_c, 0, 53, 38
2, 135652, Note_on_c, 0, 59, 36
2, 135672, Note_on_c, 0, 62, 0
2, 135688, Note_on_c, 0, 59, 0
2, 135704, Note_on_c, 0, 74, 0
2, 135732, Note_on_c, 0, 68, 0
2, 135732, Note_on_c, 0, 56, 0
2, 135732, Note_on_c, 0, 53, 0
2, 136012, Note_on_c, 0, 50, 37
2, 136124, Note_on_c, 0, 50, 0
2, 136168, Note_on_c, 0, 43, 51
2, 136192, Note_on_c, 0, 64, 66
2, 136212, Note_on_c, 0, 43, 0
2, 136224, Note_on_c, 0, 64, 0
2, 136252, Control_c, 0, 64, 0
2, 136316, Note_on_c, 0, 65, 54
2, 136476, Note_on_c, 0, 65, 0
2, 136492, Control_c, 0, 64, 127
2, 136524, Note_on_c, 0, 69, 85
2, 136592, Note_on_c, 0, 69, 0
2, 136656, Note_on_c, 0, 70, 81
2, 136660, Note_on_c, 0, 62, 51
2, 136660, Control_c, 0, 64, 0
2, 136676, Note_on_c, 0, 60, 41
2, 136688, Note_on_c, 0, 58, 25
2, 136692, Note_on_c, 0, 62, 0
2, 136708, Note_on_c, 0, 60, 0
2, 136764, Note_on_c, 0, 58, 0
2, 136784, Note_on_c, 0, 70, 0
2, 136864, Note_on_c, 0, 72, 73
2, 136932, Note_on_c, 0, 72, 0
2, 136996, Note_on_c, 0, 73, 77
2, 137000, Control_c, 0, 64, 127
2, 137080, Note_on_c, 0, 73, 0
2, 137140, Control_c, 0, 64, 0
2, 137164, Note_on_c, 0, 58, 49
2, 137172, Note_on_c, 0, 74, 78
2, 137176, Note_on_c, 0, 48, 58
2, 137324, Note_on_c, 0, 74, 0
2, 137324, Note_on_c, 0, 75, 65
2, 137332, Note_on_c, 0, 48, 0
2, 137416, Note_on_c, 0, 58, 0
2, 137440, Control_c, 0, 64, 127
2, 137480, Note_on_c, 0, 75, 0
2, 137512, Note_on_c, 0, 76, 85
2, 137648, Note_on_c, 0, 63, 62
2, 137652, Note_on_c, 0, 58, 52
2, 137660, Note_on_c, 0, 52, 49
2, 137680, Note_on_c, 0, 63, 0
2, 137700, Control_c, 0, 64, 0
2, 137704, Note_on_c, 0, 52, 0
2, 137720, Note_on_c, 0, 58, 0
2, 137780, Note_on_c, 0, 76, 0
2, 137800, Control_c, 0, 64, 127
2, 137816, Note_on_c, 0, 77, 70
2, 137924, Note_on_c, 0, 77, 0
2, 137972, Note_on_c, 0, 79, 75
2, 138052, Note_on_c, 0, 79, 0
2, 138088, Note_on_c, 0, 80, 69
2, 138104, Note_on_c, 0, 41, 38
2, 138156, Note_on_c, 0, 48, 28
2, 138184, Control_c, 0, 64, 0
2, 138192, Note_on_c, 0, 80, 0
2, 138192, Note_on_c, 0, 57, 49
2, 138224, Note_on_c, 0, 79, 66
2, 138236, Note_on_c, 0, 41, 0
2, 138252, Note_on_c, 0, 48, 0
2, 138300, Control_c, 0, 64, 127
2, 138324, Note_on_c, 0, 57, 0
2, 138536, Note_on_c, 0, 76, 64
2, 138560, Note_on_c, 0, 74, 30
2, 138584, Note_on_c, 0, 74, 0
2, 138700, Note_on_c, 0, 53, 33
2, 138704, Note_on_c, 0, 64, 27
2, 138704, Note_on_c, 0, 60, 32
2, 138708, Note_on_c, 0, 76, 0
2, 138708, Note_on_c, 0, 79, 0
2, 138732, Note_on_c, 0, 57, 24
2, 138740, Note_on_c, 0, 72, 36
2, 138744, Note_on_c, 0, 64, 0
2, 138772, Note_on_c, 0, 53, 0
2, 138780, Note_on_c, 0, 57, 0
2, 138792, Note_on_c, 0, 60, 0
2, 138944, Note_on_c, 0, 72, 0
2, 139048, Note_on_c, 0, 58, 60
2, 139232, Note_on_c, 0, 63, 56
2, 139232, Control_c, 0, 64, 0
2, 139236, Note_on_c, 0, 77, 62
2, 139236, Note_on_c, 0, 67, 55
2, 139240, Note_on_c, 0, 70, 56
2, 139244, Note_on_c, 0, 74, 47
2, 139404, Control_c, 0, 64, 127
2, 139464, Note_on_c, 0, 67, 0
2, 139516, Note_on_c, 0, 74, 0
2, 139584, Note_on_c, 0, 63, 0
2, 139584, Note_on_c, 0, 58, 0
2, 139592, Note_on_c, 0, 70, 0
2, 139652, Note_on_c, 0, 77, 0
2, 139768, Note_on_c, 0, 63, 43
2, 139772, Note_on_c, 0, 75, 44
2, 139780, Control_c, 0, 64, 0
2, 139780, Note_on_c, 0, 66, 51
2, 139780, Note_on_c, 0, 57, 40
2, 139784, Note_on_c, 0, 69, 51
2, 139804, Note_on_c, 0, 73, 30
2, 139832, Note_on_c, 0, 61, 20
2, 139856, Note_on_c, 0, 69, 0
2, 139868, Note_on_c, 0, 73, 0
2, 139888, Note_on_c, 0, 75, 0
2, 139888, Control_c, 0, 64, 127
2, 140120, Note_on_c, 0, 57, 0
2, 140184, Note_on_c, 0, 66, 0
2, 140260, Note_on_c, 0, 63, 0
2, 140296, Note_on_c, 0, 61, 0
2, 140312, Note_on_c, 0, 65, 60
2, 140312, Note_on_c, 0, 62, 58
2, 140320, Control_c, 0, 64, 0
2, 140324, Note_on_c, 0, 84, 94
2, 140324, Note_on_c, 0, 60, 55
2, 140360, Note_on_c, 0, 55, 30
2, 140452, Note_on_c, 0, 84, 0
2, 140460, Note_on_c, 0, 81, 54
2, 140504, Note_on_c, 0, 81, 0
2, 140580, Note_on_c, 0, 82, 38
2, 140656, Note_on_c, 0, 82, 0
2, 140708, Note_on_c, 0, 84, 73
2, 140772, Control_c, 0, 64, 127
2, 140812, Note_on_c, 0, 84, 0
2, 140876, Note_on_c, 0, 77, 22
2, 140924, Note_on_c, 0, 77, 0
2, 140988, Note_on_c, 0, 79, 66
2, 141024, Note_on_c, 0, 65, 0
2, 141032, Note_on_c, 0, 62, 0
2, 141048, Note_on_c, 0, 79, 0
2, 141052, Note_on_c, 0, 60, 0
2, 141080, Note_on_c, 0, 55, 0
2, 141096, Note_on_c, 0, 81, 69
2, 141168, Note_on_c, 0, 81, 0
2, 141236, Note_on_c, 0, 73, 64
2, 141296, Note_on_c, 0, 73, 0
2, 141344, Note_on_c, 0, 77, 54
2, 141352, Note_on_c, 0, 61, 35
2, 141364, Note_on_c, 0, 65, 51
2, 141380, Control_c, 0, 64, 0
2, 141388, Note_on_c, 0, 55, 34
2, 141448, Note_on_c, 0, 77, 0
2, 141452, Note_on_c, 0, 65, 0
2, 141568, Note_on_c, 0, 55, 0
2, 141668, Note_on_c, 0, 61, 0
2, 141796, Control_c, 0, 64, 127
2, 141812, Note_on_c, 0, 70, 82
2, 141824, Note_on_c, 0, 61, 50
2, 141828, Note_on_c, 0, 65, 68
2, 141836, Note_on_c, 0, 68, 31
2, 141840, Note_on_c, 0, 55, 55
2, 141856, Note_on_c, 0, 65, 0
2, 141860, Note_on_c, 0, 68, 0
2, 141904, Control_c, 0, 64, 0
2, 141932, Note_on_c, 0, 70, 0
2, 141940, Note_on_c, 0, 55, 0
2, 141952, Note_on_c, 0, 61, 0
2, 142124, Note_on_c, 0, 69, 74
2, 142168, Note_on_c, 0, 69, 0
2, 142172, Note_on_c, 0, 70, 55
2, 142264, Note_on_c, 0, 70, 0
2, 142280, Note_on_c, 0, 71, 51
2, 142304, Control_c, 0, 64, 127
2, 142356, Note_on_c, 0, 71, 0
2, 142368, Note_on_c, 0, 72, 80
2, 142396, Control_c, 0, 64, 0
2, 142440, Note_on_c, 0, 41, 46
2, 142460, Note_on_c, 0, 69, 67
2, 142468, Note_on_c, 0, 72, 0
2, 142484, Note_on_c, 0, 41, 0
2, 142544, Control_c, 0, 64, 127
2, 142548, Note_on_c, 0, 69, 0
2, 142620, Note_on_c, 0, 60, 64
2, 142892, Note_on_c, 0, 60, 0
2, 142976, Note_on_c, 0, 60, 44
2, 142996, Note_on_c, 0, 57, 47
2, 143076, Note_on_c, 0, 57, 0
2, 143124, Note_on_c, 0, 60, 0
2, 143344, Note_on_c, 0, 47, 52
2, 143372, Note_on_c, 0, 47, 0
2, 143548, Note_on_c, 0, 69, 70
2, 143548, Note_on_c, 0, 76, 69
2, 143552, Note_on_c, 0, 73, 55
2, 143552, Note_on_c, 0, 57, 61
2, 143560, Note_on_c, 0, 66, 37
2, 143608, Control_c, 0, 64, 0
2, 143628, Note_on_c, 0, 62, 6
2, 143736, Control_c, 0, 64, 127
2, 143852, Note_on_c, 0, 57, 0
2, 143860, Note_on_c, 0, 69, 0
2, 143868, Note_on_c, 0, 73, 0
2, 143888, Note_on_c, 0, 62, 0
2, 143896, Note_on_c, 0, 66, 0
2, 143960, Note_on_c, 0, 76, 0
2, 144088, Note_on_c, 0, 74, 55
2, 144088, Note_on_c, 0, 62, 51
2, 144092, Note_on_c, 0, 56, 52
2, 144100, Note_on_c, 0, 71, 52
2, 144104, Note_on_c, 0, 68, 47
2, 144120, Control_c, 0, 64, 0
2, 144200, Note_on_c, 0, 62, 0
2, 144208, Control_c, 0, 64, 127
2, 144248, Note_on_c, 0, 74, 0
2, 144260, Note_on_c, 0, 56, 0
2, 144280, Note_on_c, 0, 71, 0
2, 144308, Note_on_c, 0, 68, 0
2, 144620, Note_on_c, 0, 73, 78
2, 144624, Note_on_c, 0, 57, 54
2, 144632, Note_on_c, 0, 65, 82
2, 144636, Note_on_c, 0, 61, 69
2, 144652, Control_c, 0, 64, 0
2, 144808, Control_c, 0, 64, 127
2, 144980, Note_on_c, 0, 65, 0
2, 144992, Note_on_c, 0, 57, 0
2, 145012, Note_on_c, 0, 73, 0
2, 145036, Note_on_c, 0, 61, 0
2, 145148, Note_on_c, 0, 61, 53
2, 145156, Note_on_c, 0, 56, 40
2, 145156, Note_on_c, 0, 72, 54
2, 145160, Control_c, 0, 64, 0
2, 145164, Note_on_c, 0, 65, 59
2, 145168, Note_on_c, 0, 46, 37
2, 145292, Control_c, 0, 64, 127
2, 145396, Note_on_c, 0, 65, 0
2, 145400, Note_on_c, 0, 72, 0
2, 145408, Note_on_c, 0, 56, 0
2, 145416, Note_on_c, 0, 61, 0
2, 145424, Note_on_c, 0, 46, 0
2, 145676, Control_c, 0, 64, 0
2, 145680, Note_on_c, 0, 45, 43
2, 145680, Note_on_c, 0, 55, 45
2, 145684, Note_on_c, 0, 69, 61
2, 145684, Note_on_c, 0, 64, 54
2, 145692, Note_on_c, 0, 60, 32
2, 145808, Control_c, 0, 64, 127
2, 145944, Note_on_c, 0, 69, 0
2, 145972, Note_on_c, 0, 64, 0
2, 146008, Note_on_c, 0, 60, 0
2, 146020, Note_on_c, 0, 55, 0
2, 146088, Note_on_c, 0, 45, 0
2, 146208, Note_on_c, 0, 54, 50
2, 146212, Note_on_c, 0, 66, 57
2, 146216, Control_c, 0, 64, 0
2, 146220, Note_on_c, 0, 60, 54
2, 146300, Control_c, 0, 64, 127
2, 146304, Note_on_c, 0, 54, 0
2, 146384, Note_on_c, 0, 60, 0
2, 146448, Note_on_c, 0, 66, 0
2, 146588, Note_on_c, 0, 50, 50
2, 146704, Note_on_c, 0, 50, 0
2, 146764, Control_c, 0, 64, 0
2, 146776, Note_on_c, 0, 43, 46
2, 146784, Control_c, 0, 64, 127
2, 146812, Note_on_c, 0, 43, 0
2, 147268, Note_on_c, 0, 64, 54
2, 147268, Note_on_c, 0, 59, 62
2, 147288, Note_on_c, 0, 53, 31
2, 147288, Note_on_c, 0, 83, 87
2, 147296, Note_on_c, 0, 64, 0
2, 147324, Control_c, 0, 64, 0
2, 147336, Note_on_c, 0, 59, 0
2, 147352, Note_on_c, 0, 83, 0
2, 147356, Note_on_c, 0, 53, 0
2, 147408, Note_on_c, 0, 91, 68
2, 147496, Note_on_c, 0, 91, 0
2, 147512, Note_on_c, 0, 83, 53
2, 147608, Control_c, 0, 64, 127
2, 147628, Note_on_c, 0, 83, 0
2, 147640, Note_on_c, 0, 82, 59
2, 147704, Note_on_c, 0, 82, 0
2, 147740, Control_c, 0, 64, 0
2, 147748, Note_on_c, 0, 43, 57
2, 147756, Note_on_c, 0, 81, 40
2, 147816, Note_on_c, 0, 43, 0
2, 147848, Note_on_c, 0, 81, 0
2, 147892, Note_on_c, 0, 89, 71
2, 147980, Note_on_c, 0, 89, 0
2, 147980, Note_on_c, 0, 81, 43
2, 148048, Control_c, 0, 64, 127
2, 148056, Note_on_c, 0, 81, 0
2, 148112, Note_on_c, 0, 80, 59
2, 148228, Note_on_c, 0, 80, 0
2, 148236, Note_on_c, 0, 79, 46
2, 148248, Control_c, 0, 64, 0
2, 148252, Note_on_c, 0, 64, 40
2, 148252, Note_on_c, 0, 59, 53
2, 148268, Note_on_c, 0, 53, 24
2, 148348, Control_c, 0, 64, 127
2, 148412, Note_on_c, 0, 64, 0
2, 148424, Note_on_c, 0, 59, 0
2, 148452, Note_on_c, 0, 53, 0
2, 148648, Note_on_c, 0, 77, 43
2, 148680, Note_on_c, 0, 79, 0
2, 148788, Control_c, 0, 64, 0
2, 148804, Note_on_c, 0, 74, 74
2, 148812, Note_on_c, 0, 77, 0
2, 149020, Control_c, 0, 64, 127
2, 149072, Note_on_c, 0, 74, 0
2, 149116, Note_on_c, 0, 77, 71
2, 149264, Note_on_c, 0, 77, 0
2, 149280, Note_on_c, 0, 58, 42
2, 149288, Note_on_c, 0, 62, 39
2, 149316, Note_on_c, 0, 62, 0
2, 149336, Note_on_c, 0, 58, 0
2, 149340, Control_c, 0, 64, 0
2, 149436, Note_on_c, 0, 74, 60
2, 149488, Note_on_c, 0, 74, 0
2, 149548, Note_on_c, 0, 75, 68
2, 149620, Note_on_c, 0, 75, 0
2, 149628, Control_c, 0, 64, 127
2, 149680, Note_on_c, 0, 76, 83
2, 149760, Note_on_c, 0, 76, 0
2, 149764, Control_c, 0, 64, 0
2, 149784, Note_on_c, 0, 58, 25
2, 149792, Note_on_c, 0, 48, 49
2, 149800, Note_on_c, 0, 77, 78
2, 149884, Note_on_c, 0, 77, 0
2, 149904, Control_c, 0, 64, 127
2, 150032, Note_on_c, 0, 48, 0
2, 150036, Note_on_c, 0, 64, 48
2, 150100, Note_on_c, 0, 58, 0
2, 150196, Note_on_c, 0, 64, 0
2, 150288, Note_on_c, 0, 63, 67
2, 150296, Note_on_c, 0, 58, 44
2, 150304, Note_on_c, 0, 52, 53
2, 150336, Control_c, 0, 64, 0
2, 150352, Note_on_c, 0, 58, 0
2, 150376, Note_on_c, 0, 52, 0
2, 150480, Note_on_c, 0, 73, 73
2, 150512, Control_c, 0, 64, 127
2, 150780, Note_on_c, 0, 73, 0
2, 150796, Note_on_c, 0, 63, 0
2, 150836, Note_on_c, 0, 48, 43
2, 150840, Note_on_c, 0, 62, 62
2, 150844, Note_on_c, 0, 57, 58
2, 150844, Note_on_c, 0, 72, 57
2, 150852, Note_on_c, 0, 67, 47
2, 150860, Control_c, 0, 64, 0
2, 150996, Control_c, 0, 64, 127
2, 151056, Note_on_c, 0, 48, 0
2, 151060, Note_on_c, 0, 57, 0
2, 151072, Note_on_c, 0, 67, 0
2, 151084, Note_on_c, 0, 72, 0
2, 151140, Note_on_c, 0, 62, 0
2, 151388, Note_on_c, 0, 50, 34
2, 151392, Note_on_c, 0, 62, 61
2, 151392, Note_on_c, 0, 57, 58
2, 151392, Note_on_c, 0, 67, 62
2, 151396, Note_on_c, 0, 52, 65
2, 151412, Control_c, 0, 64, 0
2, 151420, Note_on_c, 0, 50, 0
2, 151552, Control_c, 0, 64, 127
2, 151604, Note_on_c, 0, 62, 0
2, 151612, Note_on_c, 0, 67, 0
2, 151700, Note_on_c, 0, 57, 0
2, 151712, Note_on_c, 0, 52, 0
2, 151920, Control_c, 0, 64, 0
2, 151936, Note_on_c, 0, 65, 48
2, 151936, Note_on_c, 0, 44, 43
2, 151940, Note_on_c, 0, 56, 43
2, 151948, Note_on_c, 0, 59, 49
2, 151948, Note_on_c, 0, 62, 42
2, 151952, Note_on_c, 0, 53, 38
2, 152036, Control_c, 0, 64, 127
2, 152064, Note_on_c, 0, 59, 0
2, 152064, Note_on_c, 0, 56, 0
2, 152064, Note_on_c, 0, 44, 0
2, 152080, Note_on_c, 0, 62, 0
2, 152084, Note_on_c, 0, 53, 0
2, 152088, Note_on_c, 0, 65, 0
2, 152492, Note_on_c, 0, 62, 49
2, 152504, Note_on_c, 0, 68, 48
2, 152504, Note_on_c, 0, 65, 60
2, 152508, Note_on_c, 0, 59, 42
2, 152508, Note_on_c, 0, 74, 48
2, 152508, Note_on_c, 0, 71, 39
2, 152512, Note_on_c, 0, 56, 35
2, 152544, Control_c, 0, 64, 0
2, 152568, Control_c, 0, 64, 127
2, 152608, Note_on_c, 0, 59, 0
2, 152608, Note_on_c, 0, 62, 0
2, 152648, Note_on_c, 0, 74, 0
2, 152660, Note_on_c, 0, 71, 0
2, 152664, Note_on_c, 0, 56, 0
2, 152680, Note_on_c, 0, 65, 0
2, 152684, Note_on_c, 0, 68, 0
2, 152860, Note_on_c, 0, 50, 55
2, 153000, Note_on_c, 0, 50, 0
2, 153052, Note_on_c, 0, 43, 46
2, 153056, Note_on_c, 0, 53, 49
2, 153060, Note_on_c, 0, 57, 64
2, 153136, Control_c, 0, 64, 0
2, 153140, Note_on_c, 0, 43, 0
2, 153160, Note_on_c, 0, 53, 0
2, 153172, Note_on_c, 0, 57, 0
2, 153196, Note_on_c, 0, 58, 59
2, 153256, Note_on_c, 0, 58, 0
2, 153332, Note_on_c, 0, 62, 60
2, 153404, Note_on_c, 0, 62, 0
2, 153408, Control_c, 0, 64, 127
2, 153472, Note_on_c, 0, 65, 63
2, 153536, Note_on_c, 0, 65, 0
2, 153592, Control_c, 0, 64, 0
2, 153596, Note_on_c, 0, 62, 37
2, 153600, Note_on_c, 0, 58, 37
2, 153604, Note_on_c, 0, 60, 46
2, 153632, Note_on_c, 0, 62, 0
2, 153640, Note_on_c, 0, 60, 0
2, 153640, Note_on_c, 0, 70, 76
2, 153696, Note_on_c, 0, 58, 0
2, 153720, Note_on_c, 0, 70, 0
2, 153732, Note_on_c, 0, 71, 63
2, 153824, Note_on_c, 0, 70, 51
2, 153832, Note_on_c, 0, 71, 0
2, 153892, Note_on_c, 0, 68, 51
2, 153904, Note_on_c, 0, 70, 0
2, 153940, Control_c, 0, 64, 127
2, 153976, Note_on_c, 0, 65, 57
2, 153992, Note_on_c, 0, 68, 0
2, 154024, Note_on_c, 0, 65, 0
2, 154076, Control_c, 0, 64, 0
2, 154080, Note_on_c, 0, 70, 85
2, 154088, Note_on_c, 0, 58, 46
2, 154096, Note_on_c, 0, 48, 48
2, 154352, Note_on_c, 0, 70, 0
2, 154376, Note_on_c, 0, 58, 0
2, 154396, Note_on_c, 0, 68, 40
2, 154436, Note_on_c, 0, 68, 0
2, 154448, Note_on_c, 0, 70, 62
2, 154528, Note_on_c, 0, 68, 52
2, 154544, Note_on_c, 0, 70, 0
2, 154552, Control_c, 0, 64, 127
2, 154608, Note_on_c, 0, 65, 55
2, 154612, Note_on_c, 0, 68, 0
2, 154616, Control_c, 0, 64, 0
2, 154632, Note_on_c, 0, 58, 36
2, 154668, Note_on_c, 0, 58, 0
2, 154680, Note_on_c, 0, 65, 0
2, 154752, Note_on_c, 0, 63, 64
2, 154756, Note_on_c, 0, 48, 0
2, 154836, Note_on_c, 0, 63, 0
2, 154868, Note_on_c, 0, 60, 46
2, 154948, Note_on_c, 0, 60, 0
2, 155016, Control_c, 0, 64, 127
2, 155020, Note_on_c, 0, 48, 32
2, 155112, Note_on_c, 0, 53, 58
2, 155120, Note_on_c, 0, 48, 0
2, 155148, Note_on_c, 0, 53, 0
2, 155156, Control_c, 0, 64, 0
2, 155176, Note_on_c, 0, 48, 17
2, 155180, Note_on_c, 0, 41, 39
2, 155188, Note_on_c, 0, 56, 39
2, 155216, Note_on_c, 0, 56, 0
2, 155232, Note_on_c, 0, 57, 44
2, 155376, Note_on_c, 0, 57, 0
2, 155432, Note_on_c, 0, 60, 47
2, 155476, Control_c, 0, 64, 127
2, 155500, Note_on_c, 0, 48, 0
2, 155556, Note_on_c, 0, 60, 0
2, 155576, Note_on_c, 0, 64, 77
2, 155712, Note_on_c, 0, 64, 0
2, 155740, Note_on_c, 0, 57, 43
2, 155772, Note_on_c, 0, 41, 0
2, 155832, Note_on_c, 0, 57, 0
2, 156080, Note_on_c, 0, 55, 49
2, 156116, Note_on_c, 0, 55, 0
2, 156248, Control_c, 0, 64, 0
2, 156260, Note_on_c, 0, 63, 52
2, 156264, Note_on_c, 0, 58, 64
2, 156268, Note_on_c, 0, 65, 53
2, 156276, Note_on_c, 0, 48, 58
2, 156360, Note_on_c, 0, 48, 0
2, 156396, Control_c, 0, 64, 127
2, 156404, Note_on_c, 0, 58, 0
2, 156452, Note_on_c, 0, 65, 0
2, 156464, Note_on_c, 0, 63, 0
2, 156620, Note_on_c, 0, 47, 68
2, 156688, Note_on_c, 0, 47, 0
2, 156800, Note_on_c, 0, 68, 73
2, 156800, Note_on_c, 0, 65, 79
2, 156804, Control_c, 0, 64, 0
2, 156808, Note_on_c, 0, 61, 61
2, 156812, Note_on_c, 0, 57, 69
2, 157016, Control_c, 0, 64, 127
2, 157052, Note_on_c, 0, 65, 0
2, 157080, Note_on_c, 0, 68, 0
2, 157092, Note_on_c, 0, 57, 0
2, 157104, Note_on_c, 0, 61, 0
2, 157148, Note_on_c, 0, 47, 36
2, 157184, Note_on_c, 0, 47, 0
2, 157288, Control_c, 0, 64, 0
2, 157324, Note_on_c, 0, 61, 57
2, 157328, Note_on_c, 0, 64, 62
2, 157336, Note_on_c, 0, 46, 47
2, 157340, Note_on_c, 0, 57, 52
2, 157360, Note_on_c, 0, 53, 35
2, 157404, Control_c, 0, 64, 127
2, 157448, Note_on_c, 0, 57, 0
2, 157480, Note_on_c, 0, 64, 0
2, 157512, Note_on_c, 0, 69, 68
2, 157548, Note_on_c, 0, 64, 28
2, 157568, Note_on_c, 0, 57, 32
2, 157584, Note_on_c, 0, 64, 0
2, 157600, Note_on_c, 0, 57, 0
2, 157680, Note_on_c, 0, 53, 0
2, 157708, Note_on_c, 0, 61, 0
2, 157724, Note_on_c, 0, 65, 79
2, 157732, Note_on_c, 0, 62, 71
2, 157732, Note_on_c, 0, 57, 60
2, 157740, Note_on_c, 0, 69, 0
2, 157748, Note_on_c, 0, 55, 61
2, 157772, Control_c, 0, 64, 0
2, 157912, Control_c, 0, 64, 127
2, 157972, Note_on_c, 0, 57, 0
2, 157988, Note_on_c, 0, 62, 0
2, 158000, Note_on_c, 0, 65, 0
2, 158004, Note_on_c, 0, 46, 0
2, 158036, Note_on_c, 0, 55, 0
2, 158188, Note_on_c, 0, 69, 71
2, 158188, Note_on_c, 0, 61, 53
2, 158204, Note_on_c, 0, 65, 41
2, 158252, Note_on_c, 0, 65, 0
2, 158292, Note_on_c, 0, 69, 0
2, 158308, Note_on_c, 0, 61, 0
2, 158320, Note_on_c, 0, 72, 69
2, 158428, Note_on_c, 0, 72, 0
2, 158500, Note_on_c, 0, 65, 63
2, 158504, Note_on_c, 0, 61, 37
2, 158504, Note_on_c, 0, 69, 66
2, 158504, Control_c, 0, 64, 0
2, 158508, Note_on_c, 0, 55, 51
2, 158640, Control_c, 0, 64, 127
2, 158748, Note_on_c, 0, 61, 0
2, 158776, Note_on_c, 0, 69, 0
2, 158828, Note_on_c, 0, 65, 0
2, 159036, Note_on_c, 0, 55, 0
2, 159068, Note_on_c, 0, 67, 54
2, 159072, Note_on_c, 0, 61, 29
2, 159072, Note_on_c, 0, 65, 58
2, 159104, Control_c, 0, 64, 0
2, 159204, Control_c, 0, 64, 127
2, 159352, Note_on_c, 0, 65, 0
2, 159440, Note_on_c, 0, 61, 0
2, 159444, Note_on_c, 0, 67, 0
2, 159448, Note_on_c, 0, 48, 44
2, 159516, Note_on_c, 0, 48, 0
2, 159604, Control_c, 0, 64, 0
2, 159636, Note_on_c, 0, 41, 54
2, 159660, Note_on_c, 0, 60, 31
2, 159716, Note_on_c, 0, 41, 0
2, 159728, Control_c, 0, 64, 127
2, 159808, Note_on_c, 0, 60, 0
2, 160216, Note_on_c, 0, 62, 48
2, 160220, Note_on_c, 0, 60, 34
2, 160224, Note_on_c, 0, 57, 44
2, 160240, Note_on_c, 0, 53, 31
2, 160340, Note_on_c, 0, 53, 0
2, 160356, Note_on_c, 0, 57, 0
2, 160356, Note_on_c, 0, 62, 0
2, 160360, Note_on_c, 0, 60, 0
2, 160804, Note_on_c, 0, 66, 59
2, 160804, Control_c, 0, 64, 0
2, 160808, Note_on_c, 0, 57, 61
2, 160808, Note_on_c, 0, 62, 57
2, 160808, Note_on_c, 0, 76, 90
2, 160872, Note_on_c, 0, 76, 0
2, 160876, Note_on_c, 0, 77, 70
2, 160936, Control_c, 0, 64, 127
2, 160948, Note_on_c, 0, 77, 0
2, 160960, Note_on_c, 0, 76, 57
2, 161008, Note_on_c, 0, 76, 0
2, 161036, Note_on_c, 0, 77, 47
2, 161044, Note_on_c, 0, 66, 0
2, 161072, Note_on_c, 0, 57, 0
2, 161076, Note_on_c, 0, 76, 46
2, 161080, Note_on_c, 0, 77, 0
2, 161136, Note_on_c, 0, 76, 0
2, 161152, Note_on_c, 0, 77, 44
2, 161156, Note_on_c, 0, 62, 0
2, 161228, Note_on_c, 0, 76, 50
2, 161232, Note_on_c, 0, 77, 0
2, 161288, Note_on_c, 0, 76, 0
2, 161300, Note_on_c, 0, 74, 49
2, 161332, Note_on_c, 0, 74, 0
2, 161348, Note_on_c, 0, 67, 53
2, 161352, Control_c, 0, 64, 0
2, 161356, Note_on_c, 0, 62, 48
2, 161356, Note_on_c, 0, 56, 46
2, 161372, Note_on_c, 0, 76, 60
2, 161492, Control_c, 0, 64, 127
2, 161732, Note_on_c, 0, 76, 0
2, 161744, Note_on_c, 0, 62, 0
2, 161748, Note_on_c, 0, 67, 0
2, 161844, Note_on_c, 0, 56, 0
2, 161912, Note_on_c, 0, 65, 56
2, 161920, Note_on_c, 0, 61, 44
2, 161920, Note_on_c, 0, 56, 26
2, 161924, Control_c, 0, 64, 0
2, 161924, Note_on_c, 0, 60, 36
2, 161936, Note_on_c, 0, 75, 37
2, 161964, Note_on_c, 0, 75, 0
2, 161972, Note_on_c, 0, 60, 0
2, 161980, Note_on_c, 0, 77, 29
2, 162032, Note_on_c, 0, 75, 32
2, 162044, Note_on_c, 0, 77, 0
2, 162100, Note_on_c, 0, 75, 0
2, 162108, Note_on_c, 0, 77, 57
2, 162144, Control_c, 0, 64, 127
2, 162172, Note_on_c, 0, 75, 46
2, 162204, Note_on_c, 0, 77, 0
2, 162228, Note_on_c, 0, 65, 0
2, 162260, Note_on_c, 0, 77, 46
2, 162268, Note_on_c, 0, 75, 0
2, 162284, Note_on_c, 0, 56, 0
2, 162320, Note_on_c, 0, 73, 47
2, 162360, Note_on_c, 0, 61, 0
2, 162380, Note_on_c, 0, 77, 0
2, 162384, Note_on_c, 0, 73, 0
2, 162412, Note_on_c, 0, 61, 30
2, 162416, Note_on_c, 0, 75, 56
2, 162432, Control_c, 0, 64, 0
2, 162432, Note_on_c, 0, 65, 51
2, 162432, Note_on_c, 0, 55, 49
2, 162492, Note_on_c, 0, 65, 0
2, 162540, Note_on_c, 0, 55, 0
2, 162544, Control_c, 0, 64, 127
2, 162556, Note_on_c, 0, 61, 0
2, 162660, Note_on_c, 0, 75, 0
2, 162780, Note_on_c, 0, 52, 33
2, 162788, Note_on_c, 0, 45, 68
2, 162816, Note_on_c, 0, 52, 0
2, 162824, Note_on_c, 0, 73, 17
2, 162860, Note_on_c, 0, 73, 0
2, 162964, Note_on_c, 0, 74, 74
2, 162968, Control_c, 0, 64, 0
2, 162972, Note_on_c, 0, 67, 74
2, 162972, Note_on_c, 0, 71, 60
2, 162972, Note_on_c, 0, 64, 73
2, 162976, Note_on_c, 0, 55, 73
2, 163004, Note_on_c, 0, 45, 0
2, 163108, Control_c, 0, 64, 127
2, 163196, Note_on_c, 0, 74, 0
2, 163204, Note_on_c, 0, 71, 0
2, 163212, Note_on_c, 0, 55, 0
2, 163236, Note_on_c, 0, 67, 0
2, 163260, Note_on_c, 0, 64, 0
2, 163312, Note_on_c, 0, 50, 57
2, 163492, Control_c, 0, 64, 0
2, 163504, Note_on_c, 0, 57, 58
2, 163504, Note_on_c, 0, 68, 51
2, 163504, Note_on_c, 0, 64, 60
2, 163508, Note_on_c, 0, 71, 47
2, 163508, Note_on_c, 0, 60, 44
2, 163552, Note_on_c, 0, 57, 0
2, 163596, Note_on_c, 0, 50, 0
2, 163656, Control_c, 0, 64, 127
2, 163752, Note_on_c, 0, 71, 0
2, 163780, Note_on_c, 0, 64, 0
2, 163792, Note_on_c, 0, 68, 0
2, 163824, Note_on_c, 0, 60, 0
2, 163848, Note_on_c, 0, 43, 55
2, 164024, Control_c, 0, 64, 0
2, 164028, Note_on_c, 0, 64, 53
2, 164040, Note_on_c, 0, 59, 57
2, 164048, Note_on_c, 0, 53, 48
2, 164080, Note_on_c, 0, 53, 0
2, 164088, Note_on_c, 0, 64, 0
2, 164112, Note_on_c, 0, 59, 0
2, 164372, Note_on_c, 0, 61, 65
2, 164376, Note_on_c, 0, 56, 62
2, 164384, Note_on_c, 0, 53, 60
2, 164396, Note_on_c, 0, 49, 57
2, 164496, Note_on_c, 0, 53, 0
2, 164516, Note_on_c, 0, 56, 0
2, 164520, Note_on_c, 0, 49, 0
2, 164528, Note_on_c, 0, 43, 0
2, 164568, Note_on_c, 0, 62, 53
2, 164584, Note_on_c, 0, 61, 0
2, 164584, Note_on_c, 0, 50, 41
2, 164604, Note_on_c, 0, 62, 0
2, 164692, Note_on_c, 0, 50, 0
2, 164716, Note_on_c, 0, 65, 43
2, 164728, Note_on_c, 0, 53, 58
2, 164772, Note_on_c, 0, 65, 0
2, 164780, Note_on_c, 0, 53, 0
2, 164816, Control_c, 0, 64, 127
2, 164888, Note_on_c, 0, 55, 68
2, 164907, Note_on_c, 0, 67, 43
2, 164947, Note_on_c, 0, 67, 0
2, 165024, Note_on_c, 0, 55, 0
2, 165040, Control_c, 0, 64, 0
2, 165052, Note_on_c, 0, 69, 74
2, 165060, Note_on_c, 0, 58, 56
2, 165064, Note_on_c, 0, 62, 72
2, 165068, Note_on_c, 0, 65, 66
2, 165068, Note_on_c, 0, 57, 68
2, 165204, Control_c, 0, 64, 127
2, 165268, Note_on_c, 0, 65, 0
2, 165268, Note_on_c, 0, 62, 0
2, 165284, Note_on_c, 0, 58, 0
2, 165288, Note_on_c, 0, 69, 0
2, 165292, Note_on_c, 0, 57, 0
2, 165396, Note_on_c, 0, 48, 52
2, 165480, Control_c, 0, 64, 0
2, 165572, Note_on_c, 0, 58, 59
2, 165580, Note_on_c, 0, 61, 53
2, 165584, Note_on_c, 0, 64, 55
2, 165584, Note_on_c, 0, 57, 60
2, 165628, Note_on_c, 0, 64, 0
2, 165640, Note_on_c, 0, 58, 0
2, 165648, Note_on_c, 0, 57, 0
2, 165684, Note_on_c, 0, 61, 0
2, 165732, Note_on_c, 0, 60, 68
2, 165804, Note_on_c, 0, 60, 0
2, 165824, Note_on_c, 0, 48, 0
2, 165884, Note_on_c, 0, 61, 88
2, 165988, Note_on_c, 0, 61, 0
2, 166052, Note_on_c, 0, 60, 78
2, 166080, Note_on_c, 0, 61, 49
2, 166116, Note_on_c, 0, 60, 0
2, 166140, Note_on_c, 0, 62, 68
2, 166148, Note_on_c, 0, 61, 0
2, 166216, Note_on_c, 0, 62, 0
2, 166252, Note_on_c, 0, 65, 84
2, 166328, Note_on_c, 0, 65, 0
2, 166396, Note_on_c, 0, 62, 75
2, 166452, Note_on_c, 0, 62, 0
2, 166560, Note_on_c, 0, 53, 60
2, 166740, Note_on_c, 0, 48, 72
2, 167012, Control_c, 0, 64, 127
2, 167028, Note_on_c, 0, 53, 0
2, 167056, Note_on_c, 0, 48, 0
2, 167096, Note_on_c, 0, 41, 36
2, 167132, Note_on_c, 0, 41, 0
2, 167456, Note_on_c, 0, 68, 54
2, 167464, Note_on_c, 0, 47, 46
2, 167464, Note_on_c, 0, 65, 62
2, 167468, Note_on_c, 0, 61, 60
2, 167468, Note_on_c, 0, 57, 43
2, 167472, Note_on_c, 0, 56, 38
2, 167476, Note_on_c, 0, 51, 39
2, 167524, Control_c, 0, 64, 0
2, 167652, Control_c, 0, 64, 127
2, 167868, Note_on_c, 0, 65, 0
2, 167876, Note_on_c, 0, 57, 0
2, 167888, Note_on_c, 0, 56, 0
2, 167900, Note_on_c, 0, 68, 0
2, 167900, Note_on_c, 0, 47, 0
2, 167964, Note_on_c, 0, 61, 0
2, 168028, Note_on_c, 0, 51, 0
2, 168260, Note_on_c, 0, 65, 57
2, 168264, Control_c, 0, 64, 0
2, 168264, Note_on_c, 0, 62, 43
2, 168268, Note_on_c, 0, 46, 39
2, 168272, Note_on_c, 0, 57, 31
2, 168328, Note_on_c, 0, 57, 0
2, 168380, Note_on_c, 0, 46, 0
2, 168384, Control_c, 0, 64, 127
2, 168464, Note_on_c, 0, 62, 0
2, 168524, Note_on_c, 0, 65, 0
2, 168808, Note_on_c, 0, 60, 55
2, 168820, Note_on_c, 0, 62, 40
2, 168852, Note_on_c, 0, 62, 0
2, 168872, Note_on_c, 0, 60, 0
2, 169280, Note_on_c, 0, 38, 36
2, 169312, Note_on_c, 0, 38, 0
2, 169316, Control_c, 0, 64, 0
2, 169520, Note_on_c, 0, 74, 58
2, 169520, Note_on_c, 0, 81, 51
2, 169520, Note_on_c, 0, 69, 44
2, 169524, Note_on_c, 0, 78, 38
2, 169616, Control_c, 0, 64, 127
2, 169700, Note_on_c, 0, 74, 0
2, 169708, Note_on_c, 0, 78, 0
2, 169740, Control_c, 0, 64, 0
2, 169760, Note_on_c, 0, 54, 42
2, 169776, Note_on_c, 0, 69, 0
2, 169780, Note_on_c, 0, 81, 0
2, 169980, Control_c, 0, 64, 127
2, 169996, Note_on_c, 0, 44, 44
2, 170136, Note_on_c, 0, 54, 0
2, 170156, Note_on_c, 0, 44, 0
2, 170248, Note_on_c, 0, 43, 58
2, 170276, Note_on_c, 0, 43, 0
2, 170288, Control_c, 0, 64, 0
2, 170464, Control_c, 0, 64, 127
2, 170492, Note_on_c, 0, 70, 71
2, 170504, Note_on_c, 0, 62, 41
2, 170548, Note_on_c, 0, 62, 0
2, 170716, Note_on_c, 0, 58, 43
2, 170744, Note_on_c, 0, 58, 0
2, 170956, Note_on_c, 0, 46, 42
2, 171032, Note_on_c, 0, 70, 0
2, 171068, Note_on_c, 0, 46, 0
2, 171108, Note_on_c, 0, 60, 54
2, 171108, Note_on_c, 0, 67, 53
2, 171112, Note_on_c, 0, 72, 60
2, 171128, Control_c, 0, 64, 0
2, 171172, Note_on_c, 0, 45, 31
2, 171180, Note_on_c, 0, 55, 29
2, 171204, Note_on_c, 0, 45, 0
2, 171212, Note_on_c, 0, 55, 0
2, 171212, Control_c, 0, 64, 127
2, 171256, Note_on_c, 0, 60, 0
2, 171420, Note_on_c, 0, 62, 53
2, 171436, Note_on_c, 0, 60, 30
2, 171442, Note_on_c, 0, 55, 43
2, 171448, Note_on_c, 0, 62, 0
2, 171472, Note_on_c, 0, 60, 0
2, 171482, Note_on_c, 0, 55, 0
2, 171620, Control_c, 0, 64, 0
2, 171648, Note_on_c, 0, 50, 59
2, 171668, Note_on_c, 0, 67, 0
2, 171856, Note_on_c, 0, 72, 0
2, 171860, Control_c, 0, 64, 127
2, 171872, Note_on_c, 0, 60, 48
2, 171888, Note_on_c, 0, 64, 46
2, 171888, Note_on_c, 0, 68, 38
2, 171904, Note_on_c, 0, 60, 0
2, 171912, Note_on_c, 0, 54, 28
2, 171920, Note_on_c, 0, 64, 0
2, 171932, Note_on_c, 0, 68, 0
2, 171952, Note_on_c, 0, 54, 0
2, 172012, Note_on_c, 0, 50, 0
2, 172112, Note_on_c, 0, 74, 78
2, 172116, Note_on_c, 0, 67, 68
2, 172120, Control_c, 0, 64, 0
2, 172124, Note_on_c, 0, 70, 64
2, 172124, Note_on_c, 0, 62, 69
2, 172136, Note_on_c, 0, 58, 56
2, 172292, Control_c, 0, 64, 127
2, 172500, Note_on_c, 0, 67, 0
2, 172504, Note_on_c, 0, 62, 0
2, 172520, Note_on_c, 0, 70, 0
2, 172532, Note_on_c, 0, 74, 0
2, 172568, Note_on_c, 0, 58, 0
2, 172600, Note_on_c, 0, 74, 59
2, 172604, Note_on_c, 0, 57, 58
2, 172608, Control_c, 0, 64, 0
2, 172608, Note_on_c, 0, 67, 51
2, 172612, Note_on_c, 0, 62, 50
2, 172620, Note_on_c, 0, 70, 40
2, 172884, Control_c, 0, 64, 127
2, 172900, Note_on_c, 0, 57, 0
2, 172928, Note_on_c, 0, 56, 47
2, 172940, Note_on_c, 0, 67, 0
2, 172964, Note_on_c, 0, 70, 0
2, 172964, Note_on_c, 0, 62, 0
2, 173004, Note_on_c, 0, 56, 0
2, 173028, Note_on_c, 0, 74, 0
2, 173048, Note_on_c, 0, 55, 62
2, 173100, Control_c, 0, 64, 0
2, 173120, Note_on_c, 0, 55, 0
2, 173132, Note_on_c, 0, 54, 67
2, 173160, Note_on_c, 0, 74, 51
2, 173164, Note_on_c, 0, 66, 50
2, 173168, Note_on_c, 0, 62, 42
2, 173244, Control_c, 0, 64, 127
2, 173304, Note_on_c, 0, 54, 0
2, 173484, Note_on_c, 0, 66, 0
2, 173488, Note_on_c, 0, 62, 0
2, 173616, Note_on_c, 0, 74, 0
2, 173628, Note_on_c, 0, 66, 48
2, 173632, Note_on_c, 0, 54, 39
2, 173644, Note_on_c, 0, 62, 29
2, 173768, Note_on_c, 0, 54, 0
2, 173844, Note_on_c, 0, 62, 0
2, 173908, Note_on_c, 0, 66, 0
2, 173952, Note_on_c, 0, 66, 32
2, 173952, Note_on_c, 0, 70, 63
2, 174044, Note_on_c, 0, 66, 0
2, 174080, Note_on_c, 0, 70, 0
2, 174108, Control_c, 0, 64, 0
2, 174128, Note_on_c, 0, 39, 42
2, 174136, Note_on_c, 0, 69, 60
2, 174136, Note_on_c, 0, 65, 51
2, 174140, Note_on_c, 0, 46, 42
2, 174164, Note_on_c, 0, 61, 18
2, 174208, Control_c, 0, 64, 127
2, 174224, Note_on_c, 0, 39, 0
2, 174248, Note_on_c, 0, 65, 0
2, 174252, Note_on_c, 0, 46, 0
2, 174272, Note_on_c, 0, 61, 0
2, 174304, Note_on_c, 0, 69, 0
2, 174404, Note_on_c, 0, 69, 87
2, 174524, Note_on_c, 0, 70, 83
2, 174536, Note_on_c, 0, 69, 0
2, 174616, Note_on_c, 0, 70, 0
2, 174652, Note_on_c, 0, 55, 55
2, 174656, Note_on_c, 0, 65, 41
2, 174660, Note_on_c, 0, 61, 37
2, 174668, Note_on_c, 0, 72, 61
2, 174668, Control_c, 0, 64, 0
2, 174748, Note_on_c, 0, 72, 0
2, 174764, Note_on_c, 0, 65, 0
2, 174784, Control_c, 0, 64, 127
2, 174816, Note_on_c, 0, 77, 35
2, 174824, Note_on_c, 0, 55, 0
2, 174856, Note_on_c, 0, 61, 0
2, 174884, Note_on_c, 0, 77, 0
2, 174936, Note_on_c, 0, 81, 64
2, 175000, Note_on_c, 0, 81, 0
2, 175056, Note_on_c, 0, 82, 73
2, 175148, Control_c, 0, 64, 0
2, 175168, Note_on_c, 0, 60, 34
2, 175172, Note_on_c, 0, 54, 40
2, 175172, Note_on_c, 0, 50, 44
2, 175192, Note_on_c, 0, 82, 0
2, 175200, Note_on_c, 0, 83, 72
2, 175256, Control_c, 0, 64, 127
2, 175360, Note_on_c, 0, 83, 0
2, 175376, Note_on_c, 0, 50, 0
2, 175384, Note_on_c, 0, 54, 0
2, 175404, Note_on_c, 0, 84, 82
2, 175408, Note_on_c, 0, 72, 59
2, 175412, Note_on_c, 0, 60, 0
2, 175572, Note_on_c, 0, 84, 0
2, 175584, Note_on_c, 0, 72, 0
2, 175700, Note_on_c, 0, 60, 49
2, 175704, Note_on_c, 0, 65, 49
2, 175704, Note_on_c, 0, 54, 47
2, 175708, Note_on_c, 0, 85, 60
2, 175716, Note_on_c, 0, 73, 45
2, 175748, Control_c, 0, 64, 0
2, 175776, Note_on_c, 0, 73, 0
2, 175788, Note_on_c, 0, 85, 0
2, 175844, Note_on_c, 0, 86, 58
2, 175848, Note_on_c, 0, 74, 58
2, 175880, Note_on_c, 0, 74, 0
2, 175880, Control_c, 0, 64, 127
2, 175884, Note_on_c, 0, 86, 0
2, 175916, Note_on_c, 0, 60, 0
2, 175924, Note_on_c, 0, 65, 0
2, 175960, Note_on_c, 0, 54, 0
2, 176136, Note_on_c, 0, 53, 56
2, 176236, Note_on_c, 0, 59, 40
2, 176256, Control_c, 0, 64, 0
2, 176264, Note_on_c, 0, 64, 68
2, 176268, Note_on_c, 0, 93, 74
2, 176272, Note_on_c, 0, 88, 68
2, 176276, Note_on_c, 0, 81, 57
2, 176328, Note_on_c, 0, 64, 0
2, 176348, Note_on_c, 0, 59, 0
2, 176372, Note_on_c, 0, 93, 0
2, 176372, Control_c, 0, 64, 127
2, 176380, Note_on_c, 0, 53, 0
2, 176400, Control_c, 0, 64, 0
2, 176408, Note_on_c, 0, 88, 0
2, 176432, Note_on_c, 0, 81, 0
2, 176440, Control_c, 0, 64, 127
2, 176600, Note_on_c, 0, 43, 49
2, 176628, Note_on_c, 0, 43, 0
2, 176656, Note_on_c, 0, 50, 20
2, 176684, Note_on_c, 0, 50, 0
2, 176768, Note_on_c, 0, 69, 65
2, 176768, Note_on_c, 0, 54, 51
2, 176772, Note_on_c, 0, 64, 66
2, 176780, Control_c, 0, 64, 0
2, 176788, Note_on_c, 0, 59, 50
2, 176924, Control_c, 0, 64, 127
2, 177048, Note_on_c, 0, 64, 0
2, 177092, Note_on_c, 0, 54, 0
2, 177096, Note_on_c, 0, 59, 0
2, 177124, Note_on_c, 0, 50, 40
2, 177156, Note_on_c, 0, 69, 0
2, 177252, Note_on_c, 0, 50, 0
2, 177280, Note_on_c, 0, 67, 46
2, 177296, Control_c, 0, 64, 0
2, 177296, Note_on_c, 0, 55, 51
2, 177300, Note_on_c, 0, 60, 49
2, 177304, Note_on_c, 0, 64, 35
2, 177592, Note_on_c, 0, 55, 0
2, 177628, Note_on_c, 0, 43, 81
2, 177740, Note_on_c, 0, 43, 0
2, 177788, Note_on_c, 0, 60, 0
2, 177820, Control_c, 0, 64, 127
2, 177832, Note_on_c, 0, 43, 64
2, 177840, Note_on_c, 0, 64, 0
2, 177868, Note_on_c, 0, 67, 0
2, 177904, Note_on_c, 0, 43, 0
2, 178168, Note_on_c, 0, 82, 57
2, 178176, Note_on_c, 0, 70, 74
2, 178176, Note_on_c, 0, 79, 56
2, 178176, Note_on_c, 0, 59, 69
2, 178184, Note_on_c, 0, 53, 66
2, 178184, Note_on_c, 0, 64, 71
2, 178188, Note_on_c, 0, 76, 53
2, 178196, Control_c, 0, 64, 0
2, 178224, Note_on_c, 0, 76, 0
2, 178228, Note_on_c, 0, 82, 0
2, 178240, Note_on_c, 0, 83, 47
2, 178248, Note_on_c, 0, 70, 0
2, 178256, Note_on_c, 0, 71, 64
2, 178264, Note_on_c, 0, 80, 23
2, 178268, Note_on_c, 0, 81, 30
2, 178268, Note_on_c, 0, 76, 17
2, 178276, Note_on_c, 0, 83, 0
2, 178300, Note_on_c, 0, 53, 0
2, 178300, Note_on_c, 0, 76, 0
2, 178300, Note_on_c, 0, 81, 0
2, 178316, Note_on_c, 0, 79, 0
2, 178316, Note_on_c, 0, 80, 0
2, 178332, Note_on_c, 0, 59, 0
2, 178340, Control_c, 0, 64, 127
2, 178352, Note_on_c, 0, 64, 0
2, 178352, Note_on_c, 0, 71, 0
2, 178372, Note_on_c, 0, 53, 45
2, 178388, Note_on_c, 0, 79, 33
2, 178396, Note_on_c, 0, 76, 36
2, 178436, Note_on_c, 0, 79, 0
2, 178436, Note_on_c, 0, 59, 37
2, 178440, Note_on_c, 0, 71, 56
2, 178448, Note_on_c, 0, 53, 0
2, 178452, Note_on_c, 0, 76, 0
2, 178476, Note_on_c, 0, 64, 42
2, 178484, Note_on_c, 0, 59, 0
2, 178496, Note_on_c, 0, 71, 0
2, 178504, Note_on_c, 0, 83, 37
2, 178512, Note_on_c, 0, 64, 0
2, 178520, Note_on_c, 0, 76, 49
2, 178532, Note_on_c, 0, 79, 27
2, 178540, Note_on_c, 0, 53, 44
2, 178560, Note_on_c, 0, 76, 0
2, 178560, Note_on_c, 0, 83, 0
2, 178564, Note_on_c, 0, 79, 0
2, 178564, Note_on_c, 0, 71, 60
2, 178608, Note_on_c, 0, 53, 0
2, 178616, Note_on_c, 0, 59, 37
2, 178628, Note_on_c, 0, 71, 0
2, 178640, Note_on_c, 0, 64, 45
2, 178644, Note_on_c, 0, 76, 47
2, 178652, Note_on_c, 0, 79, 32
2, 178664, Note_on_c, 0, 59, 0
2, 178676, Note_on_c, 0, 64, 0
2, 178688, Note_on_c, 0, 79, 0
2, 178692, Note_on_c, 0, 71, 55
2, 178704, Note_on_c, 0, 76, 0
2, 178704, Note_on_c, 0, 53, 53
2, 178760, Note_on_c, 0, 71, 0
2, 178768, Note_on_c, 0, 83, 32
2, 178768, Note_on_c, 0, 76, 67
2, 178796, Note_on_c, 0, 76, 0
2, 178796, Note_on_c, 0, 59, 45
2, 178800, Note_on_c, 0, 83, 0
2, 178804, Control_c, 0, 64, 0
2, 178828, Note_on_c, 0, 59, 0
2, 178836, Note_on_c, 0, 53, 0
2, 178996, Control_c, 0, 64, 127
2, 179112, Note_on_c, 0, 43, 71
2, 179176, Note_on_c, 0, 43, 0
2, 179448, Note_on_c, 0, 86, 90
2, 179452, Note_on_c, 0, 81, 88
2, 179452, Note_on_c, 0, 74, 91
2, 179456, Note_on_c, 0, 59, 82
2, 179460, Note_on_c, 0, 64, 85
2, 179460, Note_on_c, 0, 53, 88
2, 179476, Note_on_c, 0, 62, 70
2, 179500, Note_on_c, 0, 62, 0
2, 179664, Note_on_c, 0, 74, 0
2, 179676, Note_on_c, 0, 64, 0
2, 179680, Note_on_c, 0, 86, 0
2, 179684, Note_on_c, 0, 53, 0
2, 179684, Note_on_c, 0, 81, 0
2, 179720, Note_on_c, 0, 59, 0
2, 179812, Note_on_c, 0, 86, 88
2, 179812, Note_on_c, 0, 59, 82
2, 179812, Note_on_c, 0, 64, 91
2, 179816, Note_on_c, 0, 81, 92
2, 179816, Note_on_c, 0, 53, 88
2, 179816, Note_on_c, 0, 74, 91
2, 180192, Note_on_c, 0, 86, 0
2, 180220, Note_on_c, 0, 81, 0
2, 180228, Note_on_c, 0, 53, 0
2, 180252, Note_on_c, 0, 74, 0
2, 180304, Note_on_c, 0, 64, 0
2, 180320, Note_on_c, 0, 59, 0
2, 180400, Note_on_c, 0, 53, 42
2, 180436, Note_on_c, 0, 53, 0
2, 180608, Note_on_c, 0, 74, 94
2, 180612, Note_on_c, 0, 69, 95
2, 180612, Note_on_c, 0, 65, 94
2, 180616, Note_on_c, 0, 64, 91
2, 180628, Control_c, 0, 64, 0
2, 180736, Control_c, 0, 64, 127
2, 180792, Note_on_c, 0, 74, 0
2, 180884, Note_on_c, 0, 65, 0
2, 180912, Note_on_c, 0, 69, 0
2, 180956, Note_on_c, 0, 75, 58
2, 180956, Note_on_c, 0, 63, 63
2, 180968, Note_on_c, 0, 65, 25
2, 180976, Note_on_c, 0, 69, 39
2, 180980, Note_on_c, 0, 64, 0
2, 181044, Note_on_c, 0, 65, 0
2, 181060, Note_on_c, 0, 69, 0
2, 181100, Note_on_c, 0, 75, 0
2, 181144, Note_on_c, 0, 63, 0
2, 181152, Control_c, 0, 64, 0
2, 181164, Note_on_c, 0, 76, 58
2, 181168, Note_on_c, 0, 62, 60
2, 181172, Note_on_c, 0, 65, 53
2, 181184, Note_on_c, 0, 69, 38
2, 181196, Note_on_c, 0, 76, 0
2, 181200, Control_c, 0, 64, 127
2, 181212, Note_on_c, 0, 62, 0
2, 181224, Note_on_c, 0, 69, 0
2, 181256, Note_on_c, 0, 65, 0
2, 181472, Note_on_c, 0, 43, 57
2, 181508, Note_on_c, 0, 43, 0
2, 181692, Note_on_c, 0, 53, 57
2, 181692, Note_on_c, 0, 61, 46
2, 181696, Note_on_c, 0, 59, 52
2, 181700, Note_on_c, 0, 69, 50
2, 181704, Note_on_c, 0, 64, 56
2, 181720, Control_c, 0, 64, 0
2, 181820, Control_c, 0, 64, 127
2, 181968, Note_on_c, 0, 69, 0
2, 181968, Note_on_c, 0, 59, 0
2, 181972, Note_on_c, 0, 53, 0
2, 181976, Note_on_c, 0, 61, 0
2, 181980, Note_on_c, 0, 64, 0
2, 182060, Note_on_c, 0, 61, 47
2, 182060, Note_on_c, 0, 59, 51
2, 182064, Note_on_c, 0, 69, 53
2, 182068, Note_on_c, 0, 64, 51
2, 182072, Note_on_c, 0, 53, 47
2, 182232, Note_on_c, 0, 64, 0
2, 182264, Note_on_c, 0, 53, 0
2, 182268, Note_on_c, 0, 59, 0
2, 182304, Note_on_c, 0, 61, 0
2, 182336, Note_on_c, 0, 69, 0
2, 182400, Note_on_c, 0, 69, 36
2, 182408, Note_on_c, 0, 59, 49
2, 182412, Note_on_c, 0, 62, 55
2, 182416, Note_on_c, 0, 65, 55
2, 182420, Note_on_c, 0, 53, 58
2, 182488, Note_on_c, 0, 59, 0
2, 182500, Note_on_c, 0, 53, 0
2, 182516, Note_on_c, 0, 62, 0
2, 182524, Note_on_c, 0, 65, 0
2, 182548, Note_on_c, 0, 69, 0
2, 182776, Control_c, 0, 64, 0
2, 182784, Note_on_c, 0, 74, 85
2, 182788, Note_on_c, 0, 70, 78
2, 182792, Note_on_c, 0, 67, 85
2, 182792, Note_on_c, 0, 58, 67
2, 182792, Note_on_c, 0, 65, 84
2, 182796, Note_on_c, 0, 62, 73
2, 182804, Note_on_c, 0, 57, 55
2, 182908, Control_c, 0, 64, 127
2, 182940, Note_on_c, 0, 74, 0
2, 183048, Note_on_c, 0, 65, 0
2, 183048, Note_on_c, 0, 58, 0
2, 183080, Note_on_c, 0, 70, 0
2, 183088, Note_on_c, 0, 67, 0
2, 183112, Note_on_c, 0, 58, 45
2, 183128, Note_on_c, 0, 75, 74
2, 183240, Note_on_c, 0, 75, 0
2, 183240, Note_on_c, 0, 62, 0
2, 183272, Note_on_c, 0, 57, 0
2, 183288, Note_on_c, 0, 58, 0
2, 183344, Note_on_c, 0, 76, 63
2, 183390, Note_on_c, 0, 76, 0
2, 183600, Control_c, 0, 64, 0
2, 183608, Note_on_c, 0, 48, 64
2, 183632, Control_c, 0, 64, 127
2, 183648, Note_on_c, 0, 48, 0
2, 183824, Note_on_c, 0, 58, 48
2, 183852, Note_on_c, 0, 68, 55
2, 183892, Note_on_c, 0, 72, 60
2, 183916, Note_on_c, 0, 64, 58
2, 183924, Control_c, 0, 64, 0
2, 183940, Note_on_c, 0, 76, 70
2, 183968, Note_on_c, 0, 80, 64
2, 184032, Control_c, 0, 64, 127
2, 184408, Note_on_c, 0, 64, 0
2, 184436, Note_on_c, 0, 58, 0
2, 184492, Note_on_c, 0, 72, 0
2, 184496, Note_on_c, 0, 76, 0
2, 184500, Note_on_c, 0, 80, 0
2, 184536, Note_on_c, 0, 68, 0
2, 184928, Note_on_c, 0, 41, 57
2, 184936, Note_on_c, 0, 48, 64
2, 184972, Note_on_c, 0, 52, 64
2, 184988, Note_on_c, 0, 56, 67
2, 185028, Note_on_c, 0, 59, 67
2, 185032, Note_on_c, 0, 48, 0
2, 185048, Note_on_c, 0, 50, 74
2, 185048, Note_on_c, 0, 64, 85
2, 185056, Control_c, 0, 64, 0
2, 185256, Note_on_c, 0, 64, 0
2, 185256, Control_c, 0, 64, 127
2, 185320, Note_on_c, 0, 64, 70
2, 185356, Note_on_c, 0, 62, 30
2, 185444, Note_on_c, 0, 64, 0
2, 185464, Note_on_c, 0, 62, 0
2, 185548, Note_on_c, 0, 64, 76
2, 185664, Note_on_c, 0, 64, 0
2, 185732, Note_on_c, 0, 52, 0
2, 185756, Note_on_c, 0, 64, 60
2, 185800, Note_on_c, 0, 59, 0
2, 185856, Note_on_c, 0, 50, 0
2, 185868, Note_on_c, 0, 56, 0
2, 186000, Note_on_c, 0, 64, 0
2, 186112, Note_on_c, 0, 41, 0
2, 186132, Note_on_c, 0, 56, 39
2, 186132, Note_on_c, 0, 62, 58
2, 186136, Note_on_c, 0, 53, 53
2, 186144, Note_on_c, 0, 59, 55
2, 186180, Control_c, 0, 64, 0
2, 186364, Note_on_c, 0, 53, 0
2, 186368, Note_on_c, 0, 44, 56
2, 186400, Note_on_c, 0, 59, 0
2, 186404, Note_on_c, 0, 56, 0
2, 186428, Note_on_c, 0, 62, 0
2, 186588, Note_on_c, 0, 53, 40
2, 186600, Note_on_c, 0, 56, 44
2, 186604, Note_on_c, 0, 62, 53
2, 186612, Note_on_c, 0, 59, 35
2, 186680, Control_c, 0, 64, 127
2, 186720, Note_on_c, 0, 59, 0
2, 186724, Note_on_c, 0, 62, 0
2, 186744, Note_on_c, 0, 56, 0
2, 186772, Note_on_c, 0, 65, 69
2, 186804, Note_on_c, 0, 53, 0
2, 186880, Note_on_c, 0, 44, 0
2, 186884, Note_on_c, 0, 65, 0
2, 186956, Control_c, 0, 64, 0
2, 186960, Note_on_c, 0, 43, 50
2, 186960, Note_on_c, 0, 62, 58
2, 186964, Note_on_c, 0, 58, 35
2, 186972, Note_on_c, 0, 55, 37
2, 187004, Note_on_c, 0, 55, 0
2, 187020, Note_on_c, 0, 58, 0
2, 187028, Control_c, 0, 64, 127
2, 187032, Note_on_c, 0, 62, 0
2, 187156, Note_on_c, 0, 43, 0
2, 187172, Note_on_c, 0, 53, 45
2, 187184, Note_on_c, 0, 77, 65
2, 187204, Note_on_c, 0, 53, 0
2, 187292, Note_on_c, 0, 77, 0
2, 187432, Note_on_c, 0, 58, 40
2, 187436, Note_on_c, 0, 70, 46
2, 187444, Note_on_c, 0, 77, 57
2, 187448, Note_on_c, 0, 74, 52
2, 187464, Note_on_c, 0, 65, 27
2, 187572, Note_on_c, 0, 77, 0
2, 187584, Note_on_c, 0, 65, 0
2, 187604, Note_on_c, 0, 74, 0
2, 187672, Note_on_c, 0, 77, 53
2, 187680, Note_on_c, 0, 62, 43
2, 187708, Note_on_c, 0, 62, 0
2, 187736, Note_on_c, 0, 70, 0
2, 187740, Note_on_c, 0, 77, 0
2, 187744, Note_on_c, 0, 58, 0
2, 187964, Note_on_c, 0, 73, 35
2, 187964, Note_on_c, 0, 76, 54
2, 187964, Note_on_c, 0, 68, 47
2, 187972, Note_on_c, 0, 64, 44
2, 187988, Note_on_c, 0, 61, 46
2, 187996, Control_c, 0, 64, 0
2, 188144, Control_c, 0, 64, 127
2, 188200, Note_on_c, 0, 61, 0
2, 188284, Note_on_c, 0, 61, 47
2, 188468, Note_on_c, 0, 73, 0
2, 188476, Note_on_c, 0, 64, 0
2, 188500, Note_on_c, 0, 68, 0
2, 188576, Note_on_c, 0, 76, 0
2, 188624, Note_on_c, 0, 61, 0
2, 188644, Note_on_c, 0, 60, 49
2, 188648, Note_on_c, 0, 64, 40
2, 188656, Note_on_c, 0, 72, 45
2, 188800, Note_on_c, 0, 60, 0
2, 188816, Note_on_c, 0, 72, 0
2, 188884, Note_on_c, 0, 64, 0
2, 189052, Note_on_c, 0, 60, 36
2, 189056, Note_on_c, 0, 64, 51
2, 189072, Note_on_c, 0, 48, 45
2, 189080, Control_c, 0, 64, 0
2, 189084, Note_on_c, 0, 58, 27
2, 189212, Control_c, 0, 64, 127
2, 189860, Note_on_c, 0, 58, 0
2, 189880, Note_on_c, 0, 48, 0
2, 189904, Note_on_c, 0, 64, 0
2, 189932, Note_on_c, 0, 60, 0
2, 191012, Note_on_c, 0, 41, 40
2, 191020, Note_on_c, 0, 56, 52
2, 191044, Note_on_c, 0, 59, 71
2, 191056, Note_on_c, 0, 48, 49
2, 191076, Note_on_c, 0, 64, 72
2, 191100, Note_on_c, 0, 67, 68
2, 191108, Control_c, 0, 64, 0
2, 191128, Note_on_c, 0, 65, 30
2, 191292, Control_c, 0, 64, 127
2, 191388, Note_on_c, 0, 67, 0
2, 191400, Note_on_c, 0, 65, 0
2, 191516, Control_c, 0, 64, 0
2, 191536, Note_on_c, 0, 67, 67
2, 191548, Note_on_c, 0, 49, 45
2, 191568, Note_on_c, 0, 48, 0
2, 191592, Note_on_c, 0, 65, 17
2, 191632, Note_on_c, 0, 59, 0
2, 191644, Control_c, 0, 64, 127
2, 191764, Note_on_c, 0, 67, 0
2, 191772, Note_on_c, 0, 56, 0
2, 191788, Note_on_c, 0, 64, 0
2, 191816, Note_on_c, 0, 65, 0
2, 191884, Note_on_c, 0, 49, 0
2, 191976, Note_on_c, 0, 67, 48
2, 191976, Note_on_c, 0, 62, 51
2, 191984, Note_on_c, 0, 57, 40
2, 192008, Note_on_c, 0, 50, 28
2, 192024, Control_c, 0, 64, 0
2, 192168, Control_c, 0, 64, 127
2, 192336, Note_on_c, 0, 67, 0
2, 192404, Note_on_c, 0, 41, 0
2, 192408, Note_on_c, 0, 67, 50
2, 192476, Note_on_c, 0, 50, 0
2, 192480, Note_on_c, 0, 57, 0
2, 192704, Note_on_c, 0, 62, 0
2, 192772, Note_on_c, 0, 67, 0
2, 193240, Note_on_c, 0, 74, 58
2, 193244, Note_on_c, 0, 77, 55
2, 193248, Note_on_c, 0, 63, 44
2, 193248, Note_on_c, 0, 67, 38
2, 193256, Note_on_c, 0, 70, 46
2, 193268, Note_on_c, 0, 62, 33
2, 193324, Control_c, 0, 64, 0
2, 193356, Control_c, 0, 64, 127
2, 193572, Note_on_c, 0, 77, 0
2, 193600, Note_on_c, 0, 74, 0
2, 193620, Note_on_c, 0, 67, 0
2, 193636, Note_on_c, 0, 77, 46
2, 193640, Note_on_c, 0, 62, 0
2, 193696, Note_on_c, 0, 70, 0
2, 193732, Note_on_c, 0, 63, 0
2, 193924, Note_on_c, 0, 77, 0
2, 194156, Note_on_c, 0, 73, 48
2, 194156, Note_on_c, 0, 68, 46
2, 194156, Note_on_c, 0, 77, 52
2, 194164, Note_on_c, 0, 63, 31
2, 194168, Note_on_c, 0, 57, 48
2, 194212, Control_c, 0, 64, 0
2, 194372, Control_c, 0, 64, 127
2, 194540, Note_on_c, 0, 77, 0
2, 194696, Note_on_c, 0, 77, 51
2, 194844, Note_on_c, 0, 63, 0
2, 194880, Note_on_c, 0, 77, 0
2, 194936, Note_on_c, 0, 57, 0
2, 194944, Note_on_c, 0, 68, 0
2, 195032, Note_on_c, 0, 73, 0
2, 196340, Note_on_c, 0, 46, 59
2, 196388, Note_on_c, 0, 61, 33
2, 196424, Note_on_c, 0, 64, 68
2, 196424, Note_on_c, 0, 53, 57
2, 196468, Control_c, 0, 64, 0
2, 196480, Note_on_c, 0, 69, 72
2, 196492, Note_on_c, 0, 72, 81
2, 196704, Control_c, 0, 64, 127
2, 196860, Note_on_c, 0, 69, 0
2, 196924, Note_on_c, 0, 72, 0
2, 197088, Note_on_c, 0, 72, 64
2, 197200, Note_on_c, 0, 46, 0
2, 197212, Note_on_c, 0, 64, 0
2, 197292, Note_on_c, 0, 53, 0
2, 197316, Note_on_c, 0, 72, 0
2, 197328, Note_on_c, 0, 61, 0
2, 197616, Note_on_c, 0, 69, 59
2, 197616, Note_on_c, 0, 62, 47
2, 197620, Note_on_c, 0, 58, 30
2, 197624, Note_on_c, 0, 46, 35
2, 197624, Note_on_c, 0, 65, 45
2, 197644, Note_on_c, 0, 53, 29
2, 197660, Control_c, 0, 64, 0
2, 197824, Note_on_c, 0, 65, 0
2, 197868, Control_c, 0, 64, 127
2, 197908, Note_on_c, 0, 62, 0
2, 197908, Note_on_c, 0, 69, 0
2, 197920, Note_on_c, 0, 65, 58
2, 197936, Note_on_c, 0, 53, 0
2, 197980, Note_on_c, 0, 58, 0
2, 197992, Note_on_c, 0, 46, 0
2, 198024, Note_on_c, 0, 65, 0
2, 198228, Note_on_c, 0, 67, 44
2, 198236, Note_on_c, 0, 60, 45
2, 198236, Note_on_c, 0, 55, 45
2, 198252, Control_c, 0, 64, 0
2, 198268, Note_on_c, 0, 39, 46
2, 198320, Note_on_c, 0, 55, 0
2, 198380, Note_on_c, 0, 60, 0
2, 198392, Control_c, 0, 64, 127
2, 198412, Note_on_c, 0, 67, 0
2, 198480, Note_on_c, 0, 46, 56
2, 198504, Note_on_c, 0, 39, 0
2, 198636, Note_on_c, 0, 46, 0
2, 198700, Note_on_c, 0, 79, 53
2, 198704, Note_on_c, 0, 72, 54
2, 198712, Note_on_c, 0, 55, 26
2, 198816, Note_on_c, 0, 55, 0
2, 198904, Note_on_c, 0, 58, 46
2, 198928, Note_on_c, 0, 72, 0
2, 199128, Note_on_c, 0, 67, 42
2, 199132, Note_on_c, 0, 72, 53
2, 199136, Note_on_c, 0, 61, 42
2, 199224, Note_on_c, 0, 67, 0
2, 199252, Note_on_c, 0, 79, 0
2, 199312, Note_on_c, 0, 72, 0
2, 199340, Note_on_c, 0, 65, 57
2, 199352, Note_on_c, 0, 61, 0
2, 199580, Note_on_c, 0, 70, 63
2, 199584, Note_on_c, 0, 61, 47
2, 199588, Note_on_c, 0, 65, 0
2, 199628, Note_on_c, 0, 58, 0
2, 199772, Note_on_c, 0, 70, 0
2, 199792, Note_on_c, 0, 73, 62
2, 199792, Note_on_c, 0, 58, 40
2, 199796, Note_on_c, 0, 61, 0
2, 199808, Note_on_c, 0, 70, 25
2, 199852, Note_on_c, 0, 70, 0
2, 199872, Note_on_c, 0, 73, 0
2, 200036, Note_on_c, 0, 58, 0
2, 200036, Note_on_c, 0, 69, 62
2, 200040, Note_on_c, 0, 64, 55
2, 200052, Note_on_c, 0, 72, 60
2, 200076, Control_c, 0, 64, 0
2, 200080, Note_on_c, 0, 57, 30
2, 200180, Note_on_c, 0, 57, 0
2, 200232, Control_c, 0, 64, 127
2, 200328, Note_on_c, 0, 69, 0
2, 200340, Note_on_c, 0, 41, 62
2, 200348, Note_on_c, 0, 72, 0
2, 200352, Note_on_c, 0, 64, 0
2, 200592, Note_on_c, 0, 60, 67
2, 200600, Note_on_c, 0, 48, 57
2, 200640, Note_on_c, 0, 41, 0
2, 200684, Note_on_c, 0, 48, 0
2, 200736, Note_on_c, 0, 60, 0
2, 200804, Note_on_c, 0, 64, 77
2, 200852, Note_on_c, 0, 64, 0
2, 201088, Note_on_c, 0, 76, 94
2, 201088, Note_on_c, 0, 69, 103
2, 201096, Control_c, 0, 64, 0
2, 201100, Note_on_c, 0, 57, 74
2, 201100, Note_on_c, 0, 47, 71
2, 201232, Control_c, 0, 64, 127
2, 201312, Note_on_c, 0, 76, 0
2, 201340, Note_on_c, 0, 47, 0
2, 201388, Note_on_c, 0, 57, 0
2, 201404, Note_on_c, 0, 76, 87
2, 201456, Note_on_c, 0, 69, 0
2, 201532, Note_on_c, 0, 76, 0
2, 201704, Note_on_c, 0, 74, 80
2, 201704, Note_on_c, 0, 70, 76
2, 201708, Note_on_c, 0, 65, 80
2, 201720, Note_on_c, 0, 62, 56
2, 201732, Note_on_c, 0, 56, 56
2, 201740, Control_c, 0, 64, 0
2, 201864, Control_c, 0, 64, 127
2, 201908, Note_on_c, 0, 74, 0
2, 201964, Note_on_c, 0, 62, 0
2, 201984, Note_on_c, 0, 65, 0
2, 202000, Note_on_c, 0, 70, 0
2, 202000, Note_on_c, 0, 74, 77
2, 202020, Note_on_c, 0, 56, 0
2, 202088, Note_on_c, 0, 74, 0
2, 202140, Note_on_c, 0, 66, 21
2, 202168, Note_on_c, 0, 66, 0
2, 202268, Note_on_c, 0, 65, 78
2, 202268, Note_on_c, 0, 61, 73
2, 202272, Note_on_c, 0, 70, 72
2, 202272, Note_on_c, 0, 46, 59
2, 202276, Note_on_c, 0, 56, 60
2, 202312, Control_c, 0, 64, 0
2, 202440, Control_c, 0, 64, 127
2, 202492, Note_on_c, 0, 70, 0
2, 202520, Note_on_c, 0, 56, 0
2, 202528, Note_on_c, 0, 46, 0
2, 202560, Note_on_c, 0, 70, 59
2, 202676, Note_on_c, 0, 61, 0
2, 202676, Note_on_c, 0, 65, 0
2, 202748, Note_on_c, 0, 70, 0
2, 202884, Note_on_c, 0, 39, 48
2, 202884, Note_on_c, 0, 70, 56
2, 202888, Note_on_c, 0, 61, 40
2, 202896, Note_on_c, 0, 65, 60
2, 202896, Note_on_c, 0, 46, 37
2, 202912, Control_c, 0, 64, 0
2, 203036, Control_c, 0, 64, 127
2, 203116, Note_on_c, 0, 70, 0
2, 203148, Note_on_c, 0, 39, 0
2, 203172, Note_on_c, 0, 46, 0
2, 203216, Note_on_c, 0, 70, 57
2, 203232, Note_on_c, 0, 65, 0
2, 203304, Note_on_c, 0, 61, 0
2, 203320, Note_on_c, 0, 70, 0
2, 203564, Note_on_c, 0, 69, 57
2, 203572, Note_on_c, 0, 59, 42
2, 203576, Note_on_c, 0, 64, 58
2, 203576, Note_on_c, 0, 60, 37
2, 203580, Control_c, 0, 64, 0
2, 203584, Note_on_c, 0, 55, 48
2, 203584, Note_on_c, 0, 45, 44
2, 203712, Control_c, 0, 64, 127
2, 203848, Note_on_c, 0, 69, 0
2, 203872, Note_on_c, 0, 45, 0
2, 203920, Note_on_c, 0, 60, 0
2, 203928, Note_on_c, 0, 59, 0
2, 203940, Note_on_c, 0, 69, 36
2, 203948, Note_on_c, 0, 55, 0
2, 204012, Note_on_c, 0, 64, 0
2, 204024, Note_on_c, 0, 69, 0
2, 204460, Note_on_c, 0, 64, 48
2, 204464, Note_on_c, 0, 69, 55
2, 204472, Note_on_c, 0, 60, 38
2, 204472, Note_on_c, 0, 54, 30
2, 204504, Note_on_c, 0, 50, 36
2, 204552, Control_c, 0, 64, 0
2, 204700, Note_on_c, 0, 63, 40
2, 204720, Note_on_c, 0, 64, 0
2, 204952, Control_c, 0, 64, 127
2, 204964, Note_on_c, 0, 63, 0
2, 205020, Note_on_c, 0, 62, 40
2, 205240, Note_on_c, 0, 50, 0
2, 205244, Note_on_c, 0, 60, 0
2, 205252, Note_on_c, 0, 54, 0
2, 205804, Note_on_c, 0, 69, 0
2, 205892, Note_on_c, 0, 62, 0
2, 206592, Note_on_c, 0, 50, 25
2, 206604, Note_on_c, 0, 58, 56
2, 206604, Note_on_c, 0, 57, 58
2, 206644, Note_on_c, 0, 43, 46
2, 206664, Note_on_c, 0, 50, 0
2, 206664, Note_on_c, 0, 53, 49
2, 206672, Note_on_c, 0, 59, 74
2, 206676, Note_on_c, 0, 58, 0
2, 206688, Note_on_c, 0, 62, 55
2, 206708, Control_c, 0, 64, 0
2, 206716, Note_on_c, 0, 57, 0
2, 207036, Control_c, 0, 64, 127
2, 207400, Note_on_c, 0, 59, 0
2, 207512, Note_on_c, 0, 62, 0
2, 208016, Note_on_c, 0, 60, 68
2, 208044, Note_on_c, 0, 61, 71
2, 208076, Control_c, 0, 64, 0
2, 208080, Note_on_c, 0, 62, 77
2, 208092, Note_on_c, 0, 61, 0
2, 208096, Note_on_c, 0, 60, 0
2, 208204, Note_on_c, 0, 62, 0
2, 208272, Note_on_c, 0, 65, 81
2, 208392, Control_c, 0, 64, 127
2, 208416, Note_on_c, 0, 65, 0
2, 208516, Note_on_c, 0, 67, 87
2, 208660, Note_on_c, 0, 53, 0
2, 208672, Note_on_c, 0, 43, 0
2, 208696, Note_on_c, 0, 67, 0
2, 208732, Note_on_c, 0, 65, 65
2, 209152, Note_on_c, 0, 65, 0
2, 210028, Note_on_c, 0, 36, 67
2, 210072, Note_on_c, 0, 36, 0
2, 210596, Note_on_c, 0, 95, 89
2, 210596, Note_on_c, 0, 90, 74
2, 210600, Note_on_c, 0, 87, 76
2, 210600, Note_on_c, 0, 83, 84
2, 210608, Note_on_c, 0, 58, 75
2, 210612, Note_on_c, 0, 69, 83
2, 210612, Note_on_c, 0, 64, 73
2, 210864, Note_on_c, 0, 95, 0
2, 210876, Note_on_c, 0, 83, 0
2, 210888, Note_on_c, 0, 87, 0
2, 210908, Note_on_c, 0, 69, 0
2, 210912, Note_on_c, 0, 58, 0
2, 210916, Note_on_c, 0, 90, 0
2, 210924, Note_on_c, 0, 64, 0
2, 211016, Note_on_c, 0, 94, 74
2, 211020, Note_on_c, 0, 82, 72
2, 211024, Note_on_c, 0, 90, 59
2, 211024, Note_on_c, 0, 87, 72
2, 211036, Note_on_c, 0, 58, 68
2, 211036, Note_on_c, 0, 64, 75
2, 211040, Note_on_c, 0, 69, 74
2, 211140, Note_on_c, 0, 69, 0
2, 211160, Note_on_c, 0, 64, 0
2, 211212, Note_on_c, 0, 58, 0
2, 211232, Note_on_c, 0, 94, 0
2, 211240, Note_on_c, 0, 82, 0
2, 211276, Note_on_c, 0, 90, 0
2, 211284, Note_on_c, 0, 87, 0
2, 211492, Note_on_c, 0, 58, 53
2, 211496, Note_on_c, 0, 92, 69
2, 211496, Note_on_c, 0, 63, 60
2, 211496, Note_on_c, 0, 87, 69
2, 211504, Note_on_c, 0, 80, 46
2, 211504, Note_on_c, 0, 52, 64
2, 211712, Note_on_c, 0, 63, 0
2, 211720, Note_on_c, 0, 52, 0
2, 211728, Note_on_c, 0, 58, 0
2, 211812, Note_on_c, 0, 92, 0
2, 211828, Note_on_c, 0, 87, 0
2, 211836, Note_on_c, 0, 80, 0
2, 212476, Note_on_c, 0, 76, 54
2, 212476, Note_on_c, 0, 88, 58
2, 212480, Note_on_c, 0, 58, 46
2, 212488, Note_on_c, 0, 83, 49
2, 212492, Note_on_c, 0, 48, 57
2, 212536, Control_c, 0, 64, 0
2, 212664, Control_c, 0, 64, 127
2, 212868, Note_on_c, 0, 48, 0
2, 212916, Note_on_c, 0, 88, 0
2, 212920, Note_on_c, 0, 83, 0
2, 212944, Note_on_c, 0, 76, 0
2, 212952, Note_on_c, 0, 58, 0
2, 215080, Note_on_c, 0, 76, 55
2, 215080, Note_on_c, 0, 70, 48
2, 215108, Note_on_c, 0, 58, 37
2, 215116, Note_on_c, 0, 64, 37
2, 215544, Note_on_c, 0, 64, 0
2, 215592, Note_on_c, 0, 58, 0
2, 215824, Note_on_c, 0, 76, 0
2, 215912, Note_on_c, 0, 70, 0
2, 217052, Note_on_c, 0, 47, 40
2, 217056, Note_on_c, 0, 65, 55
2, 217060, Note_on_c, 0, 57, 54
2, 217060, Note_on_c, 0, 62, 52
2, 217068, Control_c, 0, 64, 0
2, 217132, Control_c, 0, 64, 127
2, 217184, Note_on_c, 0, 47, 0
2, 217244, Note_on_c, 0, 57, 0
2, 217292, Note_on_c, 0, 65, 0
2, 217396, Note_on_c, 0, 62, 0
2, 217420, Note_on_c, 0, 65, 45
2, 217432, Note_on_c, 0, 61, 46
2, 217436, Note_on_c, 0, 56, 36
2, 217440, Control_c, 0, 64, 0
2, 217444, Note_on_c, 0, 46, 33
2, 217492, Control_c, 0, 64, 127
2, 217676, Note_on_c, 0, 56, 0
2, 217676, Note_on_c, 0, 65, 0
2, 217692, Note_on_c, 0, 46, 0
2, 217716, Note_on_c, 0, 61, 0
2, 217740, Note_on_c, 0, 45, 34
2, 217744, Note_on_c, 0, 65, 34
2, 217748, Control_c, 0, 64, 0
2, 217752, Note_on_c, 0, 55, 42
2, 217764, Note_on_c, 0, 60, 39
2, 217856, Control_c, 0, 64, 127
2, 217948, Note_on_c, 0, 55, 0
2, 217992, Note_on_c, 0, 60, 0
2, 218020, Note_on_c, 0, 65, 0
2, 218068, Note_on_c, 0, 65, 30
2, 218096, Note_on_c, 0, 54, 29
2, 218100, Note_on_c, 0, 45, 0
2, 218100, Note_on_c, 0, 59, 48
2, 218104, Note_on_c, 0, 44, 36
2, 218108, Control_c, 0, 64, 0
2, 218208, Control_c, 0, 64, 127
2, 218316, Note_on_c, 0, 59, 0
2, 218344, Note_on_c, 0, 65, 0
2, 218360, Note_on_c, 0, 54, 0
2, 218476, Note_on_c, 0, 44, 0
2, 218488, Note_on_c, 0, 65, 28
2, 218496, Note_on_c, 0, 53, 34
2, 218496, Note_on_c, 0, 58, 35
2, 218500, Note_on_c, 0, 43, 33
2, 218516, Control_c, 0, 64, 0
2, 218688, Control_c, 0, 64, 127
2, 219564, Note_on_c, 0, 53, 0
2, 219608, Note_on_c, 0, 43, 0
2, 219624, Note_on_c, 0, 58, 0
2, 219636, Note_on_c, 0, 65, 0
2, 220080, Note_on_c, 0, 42, 37
2, 220080, Note_on_c, 0, 68, 47
2, 220088, Note_on_c, 0, 58, 34
2, 220096, Note_on_c, 0, 63, 49
2, 220112, Control_c, 0, 64, 0
2, 220116, Note_on_c, 0, 49, 32
2, 220116, Note_on_c, 0, 52, 20
2, 220220, Control_c, 0, 64, 127
2, 220276, Note_on_c, 0, 52, 0
2, 220292, Note_on_c, 0, 49, 0
2, 220296, Note_on_c, 0, 42, 0
2, 220304, Note_on_c, 0, 68, 0
2, 220312, Note_on_c, 0, 58, 0
2, 220336, Note_on_c, 0, 63, 0
2, 220568, Note_on_c, 0, 67, 37
2, 220572, Note_on_c, 0, 62, 40
2, 220576, Note_on_c, 0, 57, 29
2, 220584, Note_on_c, 0, 41, 43
2, 220588, Control_c, 0, 64, 0
2, 220592, Note_on_c, 0, 48, 30
2, 220712, Control_c, 0, 64, 127
2, 220776, Note_on_c, 0, 57, 0
2, 220816, Note_on_c, 0, 48, 0
2, 220836, Note_on_c, 0, 62, 0
2, 220876, Note_on_c, 0, 41, 0
2, 220900, Note_on_c, 0, 67, 0
2, 221288, Note_on_c, 0, 29, 38
2, 221736, Note_on_c, 0, 101, 35
2, 222404, Note_on_c, 0, 29, 0
2, 222420, Note_on_c, 0, 101, 0
2, 223712, Control_c, 0, 64, 0
2, 223712, End_track
0, 0, End_of_file
