0, 0, Header, 1, 4, 120
1, 0, Start_track
1, 0, Title_t, "It's Easy To Remember"
1, 0, Title_t, "Rodgers and Hart"
1, 0, Text_t, "dougmck@pipeline.com.au Jessica Williams plays a great solo piano version of this on her Maybeck Hall CD\012"
1, 0, SMPTE_offset, 96, 0, 3, 0, 0
1, 0, Time_signature, 4, 2, 24, 8
1, 0, Key_signature, -1, "major"
1, 0, Tempo, 500000
1, 0, Marker_t, "First 8 bars played freely"
1, 339, Marker_t, "Using thumb and forefinger to 'drum' on one note - sus pedal down."
1, 4517, Marker_t, "Arpeggio on F7sus - finishing with surround tones of tonic"
1, 8177, Marker_t, "D7#11"
1, 8470, Marker_t, "Db9 (b13)"
1, 8766, Marker_t, "C9sus4"
1, 8944, Marker_t, "Bb9#11"
1, 9120, Marker_t, "Am7"
1, 12480, Marker_t, "F7sus"
1, 12530, Marker_t, "Ascending run is F mixolydian(Bb Maj scale) finishing on 5th (C) after its leading tone (B)"
1, 13241, Marker_t, "A/Bb"
1, 13383, Marker_t, "BbMaj7"
1, 14106, Marker_t, "Eb7#11"
1, 14217, Marker_t, "Internal voice moves chromatically up from A to the b7th of Eb7 "
1, 16405, Marker_t, "Faster tempo"
1, 18240, Marker_t, "BbMaj7/F"
1, 18358, Marker_t, "Ascending Bbscale in 16th notes"
1, 18720, Marker_t, "scale links to 9th of Bbm7 and continues up chromatically to melody note (F)"
1, 20641, Marker_t, "Am7"
1, 20796, Marker_t, "Ab7"
1, 20959, Marker_t, "Gm11"
1, 21353, Marker_t, "'Drumming' on a note and the same note an octave down"
1, 22080, Marker_t, "More 'drumming' on two notes"
1, 33179, Marker_t, "Descending 8 note run on F7  - easy to finger -  G (5) Eb(3),C(2), A(1),Ab(3),G(1),Gb(3),F(1)"
1, 35292, Marker_t, "Perfect 4ths with tonic on top"
1, 36114, Marker_t, "More 'drum-like' patterns - this time with a repeated upper tone and other scale notes echo below."
1, 37605, Marker_t, "the two melody notes are linnked chromatically"
1, 38282, Marker_t, "Series of diatonic 4th chords from BbMaj scale"
1, 43370, Marker_t, "On C7+ the altered scale begins on the 3rd"
1, 45124, Marker_t, "On Eb7#11, internal line plays from B chromatically down to the 3rd (G)"
1, 46310, Marker_t, "Nice voicing on C7 resolving to F 6/9"
1, 46908, Marker_t, "Same thing up a 4th to F7 resolving to Bb 6/9"
1, 47520, Marker_t, "Back to C7 resolving to F 6/9"
1, 47520, End_track
2, 0, Start_track
2, 0, Title_t, "Solo piano"
2, 0, Control_c, 0, 0, 0
2, 0, Control_c, 0, 32, 0
2, 0, Program_c, 0, 0
2, 347, Note_on_c, 0, 72, 38
2, 372, Control_c, 0, 64, 127
2, 407, Note_on_c, 0, 72, 0
2, 424, Note_on_c, 0, 72, 58
2, 473, Note_on_c, 0, 72, 0
2, 495, Note_on_c, 0, 72, 62
2, 543, Note_on_c, 0, 72, 0
2, 569, Note_on_c, 0, 72, 48
2, 626, Note_on_c, 0, 72, 0
2, 650, Note_on_c, 0, 72, 47
2, 689, Note_on_c, 0, 72, 0
2, 731, Note_on_c, 0, 72, 44
2, 786, Note_on_c, 0, 72, 0
2, 818, Note_on_c, 0, 72, 41
2, 850, Note_on_c, 0, 72, 0
2, 901, Note_on_c, 0, 43, 32
2, 928, Note_on_c, 0, 50, 32
2, 931, Note_on_c, 0, 58, 33
2, 944, Note_on_c, 0, 57, 31
2, 945, Note_on_c, 0, 65, 55
2, 958, Note_on_c, 0, 72, 40
2, 1040, Note_on_c, 0, 72, 0
2, 1058, Note_on_c, 0, 70, 59
2, 1095, Note_on_c, 0, 57, 0
2, 1096, Note_on_c, 0, 50, 0
2, 1102, Note_on_c, 0, 65, 0
2, 1114, Note_on_c, 0, 43, 0
2, 1152, Note_on_c, 0, 58, 0
2, 1333, Note_on_c, 0, 58, 31
2, 1334, Note_on_c, 0, 64, 37
2, 1336, Note_on_c, 0, 36, 24
2, 1336, Note_on_c, 0, 24, 35
2, 1347, Control_c, 0, 64, 0
2, 1381, Control_c, 0, 64, 127
2, 1405, Note_on_c, 0, 58, 0
2, 1416, Note_on_c, 0, 64, 0
2, 1425, Note_on_c, 0, 24, 0
2, 1428, Note_on_c, 0, 70, 0
2, 1430, Note_on_c, 0, 36, 0
2, 1536, Note_on_c, 0, 84, 82
2, 1538, Note_on_c, 0, 60, 78
2, 1540, Note_on_c, 0, 72, 64
2, 1619, Note_on_c, 0, 72, 0
2, 1624, Note_on_c, 0, 84, 0
2, 1629, Note_on_c, 0, 60, 0
2, 1643, Note_on_c, 0, 84, 68
2, 1645, Note_on_c, 0, 72, 66
2, 1647, Note_on_c, 0, 60, 66
2, 1717, Note_on_c, 0, 60, 0
2, 1723, Note_on_c, 0, 72, 0
2, 1726, Note_on_c, 0, 84, 0
2, 1752, Note_on_c, 0, 84, 54
2, 1755, Note_on_c, 0, 72, 31
2, 1756, Note_on_c, 0, 60, 47
2, 1788, Note_on_c, 0, 60, 0
2, 1845, Note_on_c, 0, 84, 0
2, 1846, Note_on_c, 0, 72, 0
2, 1910, Note_on_c, 0, 84, 49
2, 1912, Note_on_c, 0, 72, 40
2, 1912, Note_on_c, 0, 45, 30
2, 1933, Note_on_c, 0, 72, 0
2, 1938, Note_on_c, 0, 84, 0
2, 1977, Note_on_c, 0, 45, 0
2, 1979, Note_on_c, 0, 89, 66
2, 1980, Note_on_c, 0, 57, 34
2, 1987, Note_on_c, 0, 57, 0
2, 2008, Note_on_c, 0, 89, 0
2, 2075, Note_on_c, 0, 81, 51
2, 2084, Note_on_c, 0, 57, 24
2, 2153, Note_on_c, 0, 81, 0
2, 2153, Note_on_c, 0, 60, 31
2, 2232, Note_on_c, 0, 65, 20
2, 2276, Note_on_c, 0, 65, 0
2, 2300, Note_on_c, 0, 65, 29
2, 2309, Note_on_c, 0, 65, 0
2, 2323, Note_on_c, 0, 57, 0
2, 2364, Note_on_c, 0, 77, 38
2, 2366, Note_on_c, 0, 70, 37
2, 2368, Note_on_c, 0, 74, 32
2, 2368, Note_on_c, 0, 65, 27
2, 2371, Note_on_c, 0, 54, 27
2, 2376, Control_c, 0, 64, 0
2, 2377, Note_on_c, 0, 60, 0
2, 2406, Control_c, 0, 64, 127
2, 2410, Note_on_c, 0, 65, 0
2, 2415, Note_on_c, 0, 70, 0
2, 2418, Note_on_c, 0, 74, 0
2, 2426, Note_on_c, 0, 77, 0
2, 2442, Note_on_c, 0, 60, 39
2, 2458, Note_on_c, 0, 60, 0
2, 2464, Note_on_c, 0, 54, 0
2, 2550, Note_on_c, 0, 89, 53
2, 2553, Note_on_c, 0, 77, 24
2, 2554, Note_on_c, 0, 26, 38
2, 2554, Note_on_c, 0, 38, 40
2, 2666, Note_on_c, 0, 26, 0
2, 2667, Note_on_c, 0, 89, 0
2, 2684, Note_on_c, 0, 77, 0
2, 2686, Note_on_c, 0, 38, 0
2, 2958, Note_on_c, 0, 69, 67
2, 2962, Note_on_c, 0, 57, 46
2, 3000, Note_on_c, 0, 57, 0
2, 3008, Note_on_c, 0, 69, 0
2, 3045, Note_on_c, 0, 69, 54
2, 3049, Note_on_c, 0, 57, 37
2, 3081, Note_on_c, 0, 69, 0
2, 3088, Note_on_c, 0, 57, 0
2, 3114, Note_on_c, 0, 72, 72
2, 3140, Note_on_c, 0, 72, 0
2, 3238, Note_on_c, 0, 43, 45
2, 3263, Note_on_c, 0, 58, 37
2, 3263, Note_on_c, 0, 50, 34
2, 3274, Note_on_c, 0, 57, 36
2, 3275, Note_on_c, 0, 65, 62
2, 3292, Note_on_c, 0, 72, 47
2, 3373, Note_on_c, 0, 72, 0
2, 3495, Note_on_c, 0, 58, 0
2, 3499, Note_on_c, 0, 67, 54
2, 3505, Note_on_c, 0, 65, 0
2, 3555, Note_on_c, 0, 57, 0
2, 3560, Note_on_c, 0, 43, 0
2, 3567, Note_on_c, 0, 50, 0
2, 3573, Note_on_c, 0, 67, 0
2, 3601, Note_on_c, 0, 72, 54
2, 3643, Note_on_c, 0, 72, 0
2, 3752, Note_on_c, 0, 48, 49
2, 3767, Note_on_c, 0, 48, 0
2, 3813, Note_on_c, 0, 58, 38
2, 3824, Note_on_c, 0, 68, 43
2, 3829, Note_on_c, 0, 64, 37
2, 3837, Note_on_c, 0, 72, 51
2, 3848, Note_on_c, 0, 75, 53
2, 3857, Note_on_c, 0, 80, 46
2, 4069, Note_on_c, 0, 68, 0
2, 4079, Note_on_c, 0, 72, 0
2, 4104, Note_on_c, 0, 75, 0
2, 4113, Note_on_c, 0, 80, 0
2, 4243, Note_on_c, 0, 64, 0
2, 4244, Note_on_c, 0, 88, 60
2, 4261, Note_on_c, 0, 58, 0
2, 4272, Note_on_c, 0, 88, 0
2, 4349, Note_on_c, 0, 63, 27
2, 4350, Note_on_c, 0, 84, 45
2, 4351, Note_on_c, 0, 75, 31
2, 4352, Note_on_c, 0, 53, 30
2, 4354, Note_on_c, 0, 79, 44
2, 4354, Note_on_c, 0, 58, 35
2, 4358, Control_c, 0, 64, 0
2, 4382, Control_c, 0, 64, 127
2, 4418, Note_on_c, 0, 84, 0
2, 4421, Note_on_c, 0, 79, 0
2, 4432, Note_on_c, 0, 75, 0
2, 4535, Note_on_c, 0, 70, 55
2, 4549, Note_on_c, 0, 70, 0
2, 4566, Note_on_c, 0, 72, 58
2, 4579, Note_on_c, 0, 72, 0
2, 4610, Note_on_c, 0, 75, 65
2, 4622, Note_on_c, 0, 75, 0
2, 4647, Note_on_c, 0, 77, 56
2, 4664, Note_on_c, 0, 77, 0
2, 4679, Note_on_c, 0, 82, 60
2, 4690, Note_on_c, 0, 82, 0
2, 4712, Note_on_c, 0, 84, 60
2, 4727, Note_on_c, 0, 84, 0
2, 4749, Note_on_c, 0, 89, 58
2, 4763, Note_on_c, 0, 89, 0
2, 4786, Note_on_c, 0, 94, 60
2, 4811, Note_on_c, 0, 94, 0
2, 4829, Note_on_c, 0, 96, 66
2, 4845, Note_on_c, 0, 96, 0
2, 4876, Note_on_c, 0, 53, 0
2, 4880, Note_on_c, 0, 97, 50
2, 4888, Note_on_c, 0, 63, 0
2, 4894, Note_on_c, 0, 58, 0
2, 4904, Note_on_c, 0, 97, 0
2, 4938, Note_on_c, 0, 98, 48
2, 4939, Note_on_c, 0, 63, 25
2, 4940, Note_on_c, 0, 86, 41
2, 4943, Note_on_c, 0, 57, 35
2, 4947, Control_c, 0, 64, 0
2, 4965, Control_c, 0, 64, 127
2, 4975, Note_on_c, 0, 98, 0
2, 4978, Note_on_c, 0, 86, 0
2, 5002, Note_on_c, 0, 63, 0
2, 5006, Note_on_c, 0, 99, 49
2, 5008, Note_on_c, 0, 57, 0
2, 5008, Note_on_c, 0, 87, 31
2, 5034, Note_on_c, 0, 87, 0
2, 5038, Note_on_c, 0, 99, 0
2, 5068, Note_on_c, 0, 100, 45
2, 5069, Note_on_c, 0, 88, 46
2, 5083, Note_on_c, 0, 88, 0
2, 5087, Note_on_c, 0, 100, 0
2, 5140, Note_on_c, 0, 103, 38
2, 5144, Note_on_c, 0, 91, 29
2, 5170, Note_on_c, 0, 103, 0
2, 5174, Note_on_c, 0, 91, 0
2, 5239, Note_on_c, 0, 101, 39
2, 5243, Note_on_c, 0, 89, 29
2, 5246, Note_on_c, 0, 29, 26
2, 5247, Note_on_c, 0, 41, 20
2, 5322, Note_on_c, 0, 101, 0
2, 5364, Note_on_c, 0, 29, 0
2, 5368, Note_on_c, 0, 89, 0
2, 5369, Note_on_c, 0, 41, 0
2, 5562, Note_on_c, 0, 65, 44
2, 5625, Note_on_c, 0, 65, 0
2, 5650, Note_on_c, 0, 65, 51
2, 5715, Note_on_c, 0, 65, 0
2, 5735, Note_on_c, 0, 65, 48
2, 5779, Note_on_c, 0, 65, 0
2, 5814, Note_on_c, 0, 65, 50
2, 5861, Note_on_c, 0, 65, 0
2, 5892, Note_on_c, 0, 65, 38
2, 5927, Note_on_c, 0, 65, 0
2, 5960, Note_on_c, 0, 65, 38
2, 5985, Note_on_c, 0, 65, 0
2, 6036, Note_on_c, 0, 65, 38
2, 6080, Note_on_c, 0, 65, 0
2, 6125, Note_on_c, 0, 65, 27
2, 6171, Note_on_c, 0, 65, 0
2, 6220, Note_on_c, 0, 65, 35
2, 6248, Note_on_c, 0, 65, 0
2, 6498, Note_on_c, 0, 73, 53
2, 6502, Note_on_c, 0, 57, 30
2, 6502, Note_on_c, 0, 65, 30
2, 6504, Note_on_c, 0, 53, 35
2, 6504, Note_on_c, 0, 62, 25
2, 6504, Note_on_c, 0, 69, 45
2, 6506, Note_on_c, 0, 46, 25
2, 6509, Control_c, 0, 64, 0
2, 6530, Control_c, 0, 64, 127
2, 6547, Note_on_c, 0, 62, 0
2, 6548, Note_on_c, 0, 65, 0
2, 6551, Note_on_c, 0, 69, 0
2, 6555, Note_on_c, 0, 57, 0
2, 6568, Note_on_c, 0, 73, 0
2, 6582, Note_on_c, 0, 53, 0
2, 6600, Note_on_c, 0, 74, 39
2, 6603, Note_on_c, 0, 65, 43
2, 6604, Note_on_c, 0, 70, 52
2, 6607, Control_c, 0, 64, 0
2, 6607, Note_on_c, 0, 58, 29
2, 6626, Control_c, 0, 64, 127
2, 6642, Note_on_c, 0, 65, 0
2, 6644, Note_on_c, 0, 46, 0
2, 6647, Note_on_c, 0, 74, 0
2, 6648, Note_on_c, 0, 70, 0
2, 6654, Note_on_c, 0, 58, 0
2, 6710, Note_on_c, 0, 77, 53
2, 6711, Note_on_c, 0, 67, 35
2, 6712, Note_on_c, 0, 72, 51
2, 6720, Note_on_c, 0, 62, 33
2, 6724, Control_c, 0, 64, 0
2, 6737, Control_c, 0, 64, 127
2, 6817, Note_on_c, 0, 72, 0
2, 6817, Note_on_c, 0, 77, 0
2, 6851, Note_on_c, 0, 62, 0
2, 6856, Note_on_c, 0, 67, 0
2, 6976, Note_on_c, 0, 62, 35
2, 6978, Note_on_c, 0, 69, 46
2, 6979, Note_on_c, 0, 57, 25
2, 6980, Note_on_c, 0, 65, 36
2, 6981, Note_on_c, 0, 46, 19
2, 6982, Note_on_c, 0, 53, 27
2, 7013, Note_on_c, 0, 69, 0
2, 7016, Note_on_c, 0, 57, 0
2, 7018, Note_on_c, 0, 62, 0
2, 7019, Note_on_c, 0, 65, 0
2, 7019, Note_on_c, 0, 46, 0
2, 7059, Note_on_c, 0, 53, 0
2, 7068, Note_on_c, 0, 72, 46
2, 7068, Note_on_c, 0, 65, 46
2, 7069, Note_on_c, 0, 58, 30
2, 7070, Note_on_c, 0, 61, 26
2, 7070, Note_on_c, 0, 51, 36
2, 7072, Note_on_c, 0, 69, 44
2, 7080, Control_c, 0, 64, 0
2, 7119, Control_c, 0, 64, 127
2, 7155, Note_on_c, 0, 72, 0
2, 7160, Note_on_c, 0, 69, 0
2, 7166, Note_on_c, 0, 58, 0
2, 7168, Note_on_c, 0, 70, 48
2, 7182, Note_on_c, 0, 51, 0
2, 7319, Note_on_c, 0, 27, 33
2, 7401, Note_on_c, 0, 27, 0
2, 7448, Note_on_c, 0, 65, 0
2, 7496, Note_on_c, 0, 61, 0
2, 7526, Note_on_c, 0, 70, 0
2, 7652, Note_on_c, 0, 65, 47
2, 7696, Note_on_c, 0, 65, 0
2, 7730, Note_on_c, 0, 65, 53
2, 7779, Note_on_c, 0, 65, 0
2, 7798, Note_on_c, 0, 65, 60
2, 7841, Note_on_c, 0, 65, 0
2, 7870, Note_on_c, 0, 65, 63
2, 7918, Note_on_c, 0, 65, 0
2, 7944, Note_on_c, 0, 65, 54
2, 7986, Note_on_c, 0, 65, 0
2, 8023, Note_on_c, 0, 65, 43
2, 8064, Note_on_c, 0, 65, 0
2, 8103, Note_on_c, 0, 65, 35
2, 8142, Note_on_c, 0, 65, 0
2, 8208, Note_on_c, 0, 64, 38
2, 8209, Note_on_c, 0, 68, 50
2, 8213, Note_on_c, 0, 60, 30
2, 8215, Note_on_c, 0, 50, 27
2, 8218, Note_on_c, 0, 54, 31
2, 8225, Control_c, 0, 64, 0
2, 8255, Control_c, 0, 64, 127
2, 8290, Note_on_c, 0, 60, 0
2, 8301, Note_on_c, 0, 50, 0
2, 8369, Note_on_c, 0, 54, 0
2, 8387, Note_on_c, 0, 64, 0
2, 8405, Note_on_c, 0, 68, 0
2, 8481, Note_on_c, 0, 63, 45
2, 8482, Note_on_c, 0, 69, 54
2, 8484, Note_on_c, 0, 53, 36
2, 8484, Note_on_c, 0, 59, 25
2, 8485, Control_c, 0, 64, 0
2, 8487, Note_on_c, 0, 49, 31
2, 8518, Control_c, 0, 64, 127
2, 8555, Note_on_c, 0, 59, 0
2, 8560, Note_on_c, 0, 53, 0
2, 8564, Note_on_c, 0, 63, 0
2, 8565, Note_on_c, 0, 69, 0
2, 8603, Note_on_c, 0, 49, 0
2, 8782, Note_on_c, 0, 48, 39
2, 8786, Note_on_c, 0, 62, 33
2, 8790, Note_on_c, 0, 65, 55
2, 8801, Note_on_c, 0, 58, 28
2, 8805, Note_on_c, 0, 74, 62
2, 8811, Control_c, 0, 64, 0
2, 8848, Control_c, 0, 64, 127
2, 8873, Note_on_c, 0, 74, 0
2, 8880, Note_on_c, 0, 65, 0
2, 8880, Note_on_c, 0, 58, 0
2, 8881, Note_on_c, 0, 48, 0
2, 8882, Note_on_c, 0, 62, 0
2, 8954, Note_on_c, 0, 64, 46
2, 8955, Note_on_c, 0, 60, 36
2, 8958, Note_on_c, 0, 46, 30
2, 8958, Note_on_c, 0, 56, 28
2, 8963, Control_c, 0, 64, 0
2, 8991, Control_c, 0, 64, 127
2, 9062, Note_on_c, 0, 56, 0
2, 9072, Note_on_c, 0, 60, 0
2, 9076, Note_on_c, 0, 64, 0
2, 9083, Note_on_c, 0, 46, 0
2, 9167, Note_on_c, 0, 72, 55
2, 9169, Note_on_c, 0, 45, 34
2, 9170, Note_on_c, 0, 60, 44
2, 9172, Control_c, 0, 64, 0
2, 9174, Note_on_c, 0, 55, 22
2, 9191, Control_c, 0, 64, 127
2, 9193, Note_on_c, 0, 60, 0
2, 9204, Note_on_c, 0, 72, 0
2, 9214, Note_on_c, 0, 45, 0
2, 9223, Note_on_c, 0, 55, 0
2, 9272, Note_on_c, 0, 84, 30
2, 9294, Note_on_c, 0, 84, 0
2, 9362, Note_on_c, 0, 91, 42
2, 9363, Note_on_c, 0, 79, 34
2, 9366, Note_on_c, 0, 60, 26
2, 9378, Note_on_c, 0, 79, 0
2, 9383, Note_on_c, 0, 91, 0
2, 9418, Note_on_c, 0, 60, 0
2, 9448, Note_on_c, 0, 84, 29
2, 9449, Note_on_c, 0, 96, 41
2, 9463, Note_on_c, 0, 84, 0
2, 9470, Note_on_c, 0, 96, 0
2, 9541, Note_on_c, 0, 101, 47
2, 9543, Note_on_c, 0, 65, 30
2, 9543, Note_on_c, 0, 89, 37
2, 9544, Control_c, 0, 64, 0
2, 9544, Note_on_c, 0, 60, 30
2, 9545, Note_on_c, 0, 54, 25
2, 9559, Control_c, 0, 64, 127
2, 9576, Note_on_c, 0, 65, 0
2, 9578, Note_on_c, 0, 60, 0
2, 9588, Note_on_c, 0, 54, 0
2, 9597, Note_on_c, 0, 101, 0
2, 9600, Note_on_c, 0, 89, 0
2, 9737, Note_on_c, 0, 38, 34
2, 9739, Note_on_c, 0, 26, 24
2, 9758, Note_on_c, 0, 26, 0
2, 9761, Note_on_c, 0, 38, 0
2, 9826, Note_on_c, 0, 72, 65
2, 9863, Note_on_c, 0, 72, 0
2, 9884, Note_on_c, 0, 72, 49
2, 9896, Note_on_c, 0, 72, 0
2, 9908, Note_on_c, 0, 72, 54
2, 9914, Note_on_c, 0, 72, 0
2, 9931, Note_on_c, 0, 72, 62
2, 9945, Note_on_c, 0, 72, 0
2, 9951, Note_on_c, 0, 72, 58
2, 9967, Note_on_c, 0, 72, 0
2, 9970, Note_on_c, 0, 57, 41
2, 9971, Control_c, 0, 64, 0
2, 9973, Note_on_c, 0, 62, 36
2, 9974, Note_on_c, 0, 58, 52
2, 9979, Note_on_c, 0, 72, 72
2, 10001, Control_c, 0, 64, 127
2, 10006, Note_on_c, 0, 72, 0
2, 10027, Note_on_c, 0, 72, 50
2, 10043, Note_on_c, 0, 72, 0
2, 10044, Note_on_c, 0, 62, 0
2, 10049, Note_on_c, 0, 58, 0
2, 10049, Note_on_c, 0, 57, 0
2, 10068, Note_on_c, 0, 72, 58
2, 10083, Note_on_c, 0, 72, 0
2, 10106, Note_on_c, 0, 72, 47
2, 10121, Note_on_c, 0, 72, 0
2, 10155, Note_on_c, 0, 72, 56
2, 10157, Note_on_c, 0, 50, 34
2, 10159, Note_on_c, 0, 43, 35
2, 10175, Note_on_c, 0, 43, 0
2, 10176, Note_on_c, 0, 50, 0
2, 10192, Note_on_c, 0, 72, 0
2, 10213, Note_on_c, 0, 70, 52
2, 10244, Note_on_c, 0, 70, 0
2, 10261, Note_on_c, 0, 70, 37
2, 10289, Note_on_c, 0, 70, 0
2, 10310, Note_on_c, 0, 70, 31
2, 10332, Note_on_c, 0, 70, 0
2, 10357, Note_on_c, 0, 43, 27
2, 10358, Note_on_c, 0, 70, 43
2, 10360, Control_c, 0, 64, 0
2, 10361, Note_on_c, 0, 36, 27
2, 10363, Note_on_c, 0, 52, 26
2, 10385, Control_c, 0, 64, 127
2, 10388, Note_on_c, 0, 70, 0
2, 10410, Note_on_c, 0, 36, 0
2, 10419, Note_on_c, 0, 43, 0
2, 10424, Note_on_c, 0, 84, 63
2, 10431, Note_on_c, 0, 52, 0
2, 10560, Note_on_c, 0, 69, 37
2, 10560, Note_on_c, 0, 58, 23
2, 10561, Note_on_c, 0, 72, 33
2, 10563, Note_on_c, 0, 64, 34
2, 10596, Note_on_c, 0, 69, 0
2, 10599, Note_on_c, 0, 64, 0
2, 10613, Note_on_c, 0, 58, 0
2, 10671, Note_on_c, 0, 84, 0
2, 10675, Note_on_c, 0, 72, 0
2, 10708, Note_on_c, 0, 84, 96
2, 10728, Note_on_c, 0, 84, 0
2, 10759, Note_on_c, 0, 84, 77
2, 10760, Control_c, 0, 64, 0
2, 10764, Note_on_c, 0, 55, 37
2, 10764, Note_on_c, 0, 45, 32
2, 10764, Note_on_c, 0, 52, 33
2, 10769, Note_on_c, 0, 72, 32
2, 10784, Control_c, 0, 64, 127
2, 10794, Note_on_c, 0, 84, 0
2, 10803, Note_on_c, 0, 72, 0
2, 10822, Note_on_c, 0, 45, 0
2, 10827, Note_on_c, 0, 52, 0
2, 10830, Note_on_c, 0, 81, 48
2, 10836, Note_on_c, 0, 55, 0
2, 10836, Note_on_c, 0, 69, 45
2, 10959, Note_on_c, 0, 64, 24
2, 10961, Note_on_c, 0, 59, 32
2, 10963, Note_on_c, 0, 60, 30
2, 10968, Note_on_c, 0, 57, 24
2, 10979, Note_on_c, 0, 69, 0
2, 10998, Note_on_c, 0, 81, 0
2, 11046, Note_on_c, 0, 60, 0
2, 11051, Note_on_c, 0, 59, 0
2, 11051, Note_on_c, 0, 64, 0
2, 11052, Note_on_c, 0, 57, 0
2, 11058, Note_on_c, 0, 89, 75
2, 11080, Note_on_c, 0, 89, 0
2, 11102, Note_on_c, 0, 77, 47
2, 11116, Note_on_c, 0, 77, 0
2, 11158, Note_on_c, 0, 50, 43
2, 11169, Note_on_c, 0, 50, 0
2, 11361, Note_on_c, 0, 54, 29
2, 11364, Note_on_c, 0, 50, 35
2, 11365, Note_on_c, 0, 58, 32
2, 11365, Note_on_c, 0, 60, 38
2, 11392, Control_c, 0, 64, 0
2, 11410, Control_c, 0, 64, 127
2, 11439, Note_on_c, 0, 38, 33
2, 11440, Note_on_c, 0, 54, 0
2, 11448, Note_on_c, 0, 60, 0
2, 11451, Note_on_c, 0, 58, 0
2, 11484, Note_on_c, 0, 38, 0
2, 11500, Note_on_c, 0, 50, 0
2, 11516, Note_on_c, 0, 65, 56
2, 11530, Note_on_c, 0, 65, 0
2, 11569, Note_on_c, 0, 43, 37
2, 11575, Note_on_c, 0, 58, 45
2, 11576, Note_on_c, 0, 50, 36
2, 11578, Note_on_c, 0, 65, 62
2, 11584, Note_on_c, 0, 57, 32
2, 11587, Note_on_c, 0, 72, 56
2, 11588, Control_c, 0, 64, 0
2, 11634, Control_c, 0, 64, 127
2, 11698, Note_on_c, 0, 57, 0
2, 11712, Note_on_c, 0, 58, 0
2, 11716, Note_on_c, 0, 72, 0
2, 11734, Note_on_c, 0, 65, 0
2, 11785, Note_on_c, 0, 65, 41
2, 11786, Note_on_c, 0, 58, 21
2, 11787, Note_on_c, 0, 67, 28
2, 11788, Note_on_c, 0, 55, 22
2, 11825, Note_on_c, 0, 58, 0
2, 11828, Note_on_c, 0, 67, 0
2, 11837, Note_on_c, 0, 65, 0
2, 11849, Note_on_c, 0, 43, 0
2, 11851, Note_on_c, 0, 50, 0
2, 11853, Note_on_c, 0, 55, 0
2, 11935, Note_on_c, 0, 72, 57
2, 11971, Note_on_c, 0, 72, 0
2, 11981, Control_c, 0, 64, 0
2, 11986, Note_on_c, 0, 64, 44
2, 11986, Note_on_c, 0, 68, 40
2, 11987, Note_on_c, 0, 58, 26
2, 11987, Note_on_c, 0, 48, 35
2, 11999, Note_on_c, 0, 64, 0
2, 12000, Control_c, 0, 64, 127
2, 12003, Note_on_c, 0, 68, 0
2, 12020, Note_on_c, 0, 48, 0
2, 12038, Note_on_c, 0, 58, 0
2, 12041, Note_on_c, 0, 84, 70
2, 12078, Note_on_c, 0, 84, 0
2, 12091, Note_on_c, 0, 76, 44
2, 12095, Note_on_c, 0, 80, 29
2, 12108, Note_on_c, 0, 76, 0
2, 12114, Note_on_c, 0, 80, 0
2, 12197, Note_on_c, 0, 96, 71
2, 12200, Note_on_c, 0, 70, 39
2, 12203, Note_on_c, 0, 76, 29
2, 12250, Note_on_c, 0, 96, 0
2, 12258, Note_on_c, 0, 76, 0
2, 12264, Note_on_c, 0, 88, 43
2, 12264, Note_on_c, 0, 92, 39
2, 12274, Note_on_c, 0, 70, 0
2, 12276, Note_on_c, 0, 88, 0
2, 12278, Note_on_c, 0, 92, 0
2, 12374, Note_on_c, 0, 76, 61
2, 12415, Note_on_c, 0, 76, 0
2, 12423, Note_on_c, 0, 72, 44
2, 12423, Note_on_c, 0, 67, 27
2, 12425, Note_on_c, 0, 63, 29
2, 12427, Note_on_c, 0, 58, 27
2, 12431, Note_on_c, 0, 53, 28
2, 12433, Control_c, 0, 64, 0
2, 12464, Control_c, 0, 64, 127
2, 12488, Note_on_c, 0, 72, 0
2, 12492, Note_on_c, 0, 60, 34
2, 12497, Note_on_c, 0, 63, 0
2, 12499, Note_on_c, 0, 67, 0
2, 12526, Note_on_c, 0, 63, 34
2, 12555, Note_on_c, 0, 67, 51
2, 12578, Note_on_c, 0, 67, 0
2, 12581, Note_on_c, 0, 69, 58
2, 12598, Note_on_c, 0, 69, 0
2, 12605, Note_on_c, 0, 70, 69
2, 12615, Note_on_c, 0, 70, 0
2, 12625, Note_on_c, 0, 72, 64
2, 12640, Note_on_c, 0, 72, 0
2, 12649, Control_c, 0, 64, 0
2, 12650, Note_on_c, 0, 74, 63
2, 12666, Note_on_c, 0, 74, 0
2, 12672, Note_on_c, 0, 75, 59
2, 12681, Note_on_c, 0, 75, 0
2, 12696, Note_on_c, 0, 77, 38
2, 12705, Note_on_c, 0, 77, 0
2, 12718, Note_on_c, 0, 79, 60
2, 12724, Note_on_c, 0, 79, 0
2, 12733, Note_on_c, 0, 53, 0
2, 12744, Note_on_c, 0, 81, 64
2, 12751, Note_on_c, 0, 81, 0
2, 12751, Note_on_c, 0, 63, 0
2, 12756, Note_on_c, 0, 58, 0
2, 12756, Note_on_c, 0, 60, 0
2, 12768, Note_on_c, 0, 82, 52
2, 12774, Note_on_c, 0, 82, 0
2, 12783, Control_c, 0, 64, 127
2, 12795, Note_on_c, 0, 63, 33
2, 12796, Control_c, 0, 64, 0
2, 12799, Note_on_c, 0, 83, 57
2, 12804, Note_on_c, 0, 60, 35
2, 12804, Note_on_c, 0, 53, 18
2, 12816, Note_on_c, 0, 83, 0
2, 12826, Note_on_c, 0, 84, 58
2, 12840, Control_c, 0, 64, 127
2, 12842, Note_on_c, 0, 84, 0
2, 12849, Note_on_c, 0, 63, 0
2, 12850, Note_on_c, 0, 60, 0
2, 12853, Note_on_c, 0, 53, 0
2, 12855, Note_on_c, 0, 72, 40
2, 12896, Note_on_c, 0, 72, 0
2, 12911, Note_on_c, 0, 41, 54
2, 12919, Note_on_c, 0, 41, 0
2, 13082, Note_on_c, 0, 41, 29
2, 13140, Note_on_c, 0, 41, 0
2, 13167, Note_on_c, 0, 66, 49
2, 13169, Note_on_c, 0, 57, 38
2, 13170, Note_on_c, 0, 62, 38
2, 13192, Note_on_c, 0, 57, 0
2, 13195, Note_on_c, 0, 62, 0
2, 13203, Note_on_c, 0, 69, 56
2, 13213, Note_on_c, 0, 66, 0
2, 13218, Note_on_c, 0, 69, 0
2, 13243, Control_c, 0, 64, 0
2, 13243, Note_on_c, 0, 46, 33
2, 13264, Control_c, 0, 64, 127
2, 13320, Note_on_c, 0, 64, 58
2, 13321, Note_on_c, 0, 73, 69
2, 13323, Note_on_c, 0, 69, 61
2, 13326, Note_on_c, 0, 58, 38
2, 13335, Control_c, 0, 64, 0
2, 13349, Control_c, 0, 64, 127
2, 13369, Note_on_c, 0, 64, 0
2, 13377, Note_on_c, 0, 69, 0
2, 13380, Note_on_c, 0, 73, 0
2, 13388, Note_on_c, 0, 58, 0
2, 13409, Note_on_c, 0, 74, 71
2, 13409, Note_on_c, 0, 65, 74
2, 13410, Note_on_c, 0, 69, 68
2, 13413, Control_c, 0, 64, 0
2, 13413, Note_on_c, 0, 58, 44
2, 13429, Control_c, 0, 64, 127
2, 13441, Note_on_c, 0, 65, 0
2, 13445, Note_on_c, 0, 69, 0
2, 13449, Note_on_c, 0, 46, 0
2, 13450, Note_on_c, 0, 74, 0
2, 13454, Note_on_c, 0, 58, 0
2, 13490, Note_on_c, 0, 77, 61
2, 13492, Note_on_c, 0, 67, 44
2, 13492, Note_on_c, 0, 72, 58
2, 13493, Note_on_c, 0, 62, 45
2, 13500, Control_c, 0, 64, 0
2, 13522, Control_c, 0, 64, 127
2, 13591, Note_on_c, 0, 77, 0
2, 13594, Note_on_c, 0, 72, 0
2, 13615, Note_on_c, 0, 67, 0
2, 13647, Note_on_c, 0, 62, 0
2, 13704, Note_on_c, 0, 65, 35
2, 13704, Note_on_c, 0, 60, 34
2, 13705, Note_on_c, 0, 62, 30
2, 13707, Note_on_c, 0, 57, 30
2, 13746, Note_on_c, 0, 57, 0
2, 13782, Note_on_c, 0, 65, 0
2, 13787, Note_on_c, 0, 62, 0
2, 13793, Note_on_c, 0, 60, 0
2, 13892, Note_on_c, 0, 62, 39
2, 13906, Note_on_c, 0, 46, 25
2, 13907, Note_on_c, 0, 53, 24
2, 13909, Note_on_c, 0, 57, 17
2, 13926, Note_on_c, 0, 57, 0
2, 13926, Note_on_c, 0, 62, 0
2, 14020, Note_on_c, 0, 53, 0
2, 14033, Note_on_c, 0, 46, 0
2, 14064, Note_on_c, 0, 72, 54
2, 14080, Note_on_c, 0, 72, 0
2, 14093, Note_on_c, 0, 65, 32
2, 14113, Note_on_c, 0, 65, 0
2, 14125, Control_c, 0, 64, 0
2, 14126, Note_on_c, 0, 72, 54
2, 14128, Note_on_c, 0, 39, 33
2, 14151, Control_c, 0, 64, 127
2, 14165, Note_on_c, 0, 46, 34
2, 14166, Note_on_c, 0, 39, 0
2, 14189, Note_on_c, 0, 46, 0
2, 14239, Note_on_c, 0, 57, 40
2, 14285, Note_on_c, 0, 58, 45
2, 14286, Note_on_c, 0, 57, 0
2, 14309, Note_on_c, 0, 58, 0
2, 14316, Note_on_c, 0, 59, 50
2, 14336, Note_on_c, 0, 59, 0
2, 14341, Note_on_c, 0, 60, 54
2, 14360, Note_on_c, 0, 72, 0
2, 14362, Note_on_c, 0, 60, 0
2, 14372, Note_on_c, 0, 61, 58
2, 14375, Note_on_c, 0, 65, 57
2, 14376, Note_on_c, 0, 70, 53
2, 14379, Note_on_c, 0, 72, 20
2, 14380, Control_c, 0, 64, 0
2, 14412, Control_c, 0, 64, 127
2, 14467, Note_on_c, 0, 61, 0
2, 14539, Note_on_c, 0, 65, 0
2, 14584, Note_on_c, 0, 61, 27
2, 14584, Note_on_c, 0, 65, 43
2, 14586, Note_on_c, 0, 55, 36
2, 14622, Note_on_c, 0, 55, 0
2, 14641, Note_on_c, 0, 72, 0
2, 14653, Note_on_c, 0, 65, 0
2, 14657, Note_on_c, 0, 61, 0
2, 14659, Note_on_c, 0, 70, 0
2, 14798, Note_on_c, 0, 55, 29
2, 14798, Note_on_c, 0, 61, 31
2, 14800, Note_on_c, 0, 39, 15
2, 14800, Note_on_c, 0, 51, 20
2, 14801, Note_on_c, 0, 46, 28
2, 14830, Note_on_c, 0, 55, 0
2, 14843, Note_on_c, 0, 61, 0
2, 14856, Note_on_c, 0, 39, 0
2, 14863, Note_on_c, 0, 46, 0
2, 14869, Note_on_c, 0, 51, 0
2, 14915, Note_on_c, 0, 65, 57
2, 14928, Note_on_c, 0, 65, 0
2, 14971, Note_on_c, 0, 65, 55
2, 14983, Note_on_c, 0, 65, 0
2, 15019, Note_on_c, 0, 59, 46
2, 15022, Note_on_c, 0, 64, 49
2, 15022, Note_on_c, 0, 68, 45
2, 15025, Note_on_c, 0, 54, 38
2, 15026, Note_on_c, 0, 50, 38
2, 15033, Control_c, 0, 64, 0
2, 15067, Control_c, 0, 64, 127
2, 15084, Note_on_c, 0, 68, 0
2, 15101, Note_on_c, 0, 68, 47
2, 15159, Note_on_c, 0, 50, 0
2, 15165, Note_on_c, 0, 59, 0
2, 15172, Note_on_c, 0, 64, 0
2, 15179, Note_on_c, 0, 54, 0
2, 15187, Note_on_c, 0, 68, 0
2, 15236, Note_on_c, 0, 69, 48
2, 15239, Note_on_c, 0, 59, 34
2, 15240, Note_on_c, 0, 49, 33
2, 15240, Note_on_c, 0, 65, 34
2, 15248, Control_c, 0, 64, 0
2, 15279, Control_c, 0, 64, 127
2, 15287, Note_on_c, 0, 69, 0
2, 15311, Note_on_c, 0, 69, 41
2, 15346, Note_on_c, 0, 69, 0
2, 15349, Note_on_c, 0, 59, 0
2, 15351, Note_on_c, 0, 65, 0
2, 15401, Note_on_c, 0, 49, 0
2, 15456, Note_on_c, 0, 74, 26
2, 15460, Note_on_c, 0, 65, 38
2, 15461, Note_on_c, 0, 62, 33
2, 15464, Note_on_c, 0, 58, 25
2, 15466, Note_on_c, 0, 48, 33
2, 15473, Control_c, 0, 64, 0
2, 15505, Control_c, 0, 64, 127
2, 15521, Note_on_c, 0, 58, 0
2, 15522, Note_on_c, 0, 48, 0
2, 15536, Note_on_c, 0, 74, 0
2, 15547, Note_on_c, 0, 65, 0
2, 15548, Note_on_c, 0, 62, 0
2, 15621, Note_on_c, 0, 24, 58
2, 15630, Note_on_c, 0, 24, 0
2, 15686, Note_on_c, 0, 76, 66
2, 15687, Note_on_c, 0, 68, 67
2, 15688, Note_on_c, 0, 58, 54
2, 15689, Note_on_c, 0, 72, 66
2, 15690, Note_on_c, 0, 64, 64
2, 15805, Note_on_c, 0, 64, 0
2, 15825, Note_on_c, 0, 68, 0
2, 15841, Note_on_c, 0, 72, 0
2, 15848, Note_on_c, 0, 76, 0
2, 15906, Note_on_c, 0, 58, 0
2, 15925, Note_on_c, 0, 77, 36
2, 15926, Note_on_c, 0, 67, 33
2, 15926, Note_on_c, 0, 72, 40
2, 15928, Note_on_c, 0, 57, 40
2, 15928, Note_on_c, 0, 62, 43
2, 15954, Control_c, 0, 64, 0
2, 16024, Control_c, 0, 64, 127
2, 16072, Note_on_c, 0, 72, 0
2, 16075, Note_on_c, 0, 67, 0
2, 16078, Note_on_c, 0, 62, 0
2, 16194, Note_on_c, 0, 72, 31
2, 16194, Note_on_c, 0, 67, 24
2, 16197, Note_on_c, 0, 62, 19
2, 16315, Note_on_c, 0, 62, 0
2, 16326, Note_on_c, 0, 77, 0
2, 16327, Note_on_c, 0, 57, 0
2, 16331, Note_on_c, 0, 72, 0
2, 16336, Note_on_c, 0, 67, 0
2, 16446, Note_on_c, 0, 46, 25
2, 16470, Note_on_c, 0, 65, 43
2, 16472, Note_on_c, 0, 60, 45
2, 16473, Note_on_c, 0, 50, 32
2, 16473, Note_on_c, 0, 57, 24
2, 16483, Control_c, 0, 64, 0
2, 16485, Note_on_c, 0, 46, 0
2, 16509, Note_on_c, 0, 57, 0
2, 16511, Note_on_c, 0, 60, 0
2, 16513, Note_on_c, 0, 50, 0
2, 16519, Note_on_c, 0, 65, 0
2, 16554, Control_c, 0, 64, 127
2, 16586, Note_on_c, 0, 64, 30
2, 16587, Note_on_c, 0, 56, 25
2, 16589, Note_on_c, 0, 49, 31
2, 16590, Note_on_c, 0, 59, 37
2, 16594, Control_c, 0, 64, 0
2, 16624, Note_on_c, 0, 64, 0
2, 16625, Note_on_c, 0, 59, 0
2, 16630, Note_on_c, 0, 49, 0
2, 16630, Note_on_c, 0, 56, 0
2, 16650, Control_c, 0, 64, 127
2, 16697, Control_c, 0, 64, 0
2, 16709, Note_on_c, 0, 63, 35
2, 16714, Note_on_c, 0, 58, 29
2, 16717, Note_on_c, 0, 48, 27
2, 16718, Control_c, 0, 64, 127
2, 16727, Note_on_c, 0, 58, 0
2, 16728, Note_on_c, 0, 48, 0
2, 16731, Note_on_c, 0, 63, 0
2, 16794, Note_on_c, 0, 77, 77
2, 16821, Note_on_c, 0, 77, 0
2, 16838, Note_on_c, 0, 63, 28
2, 16839, Note_on_c, 0, 58, 32
2, 16839, Note_on_c, 0, 77, 61
2, 16847, Note_on_c, 0, 60, 27
2, 16876, Note_on_c, 0, 77, 0
2, 16880, Note_on_c, 0, 60, 0
2, 16897, Note_on_c, 0, 63, 0
2, 16901, Note_on_c, 0, 58, 0
2, 16915, Note_on_c, 0, 77, 62
2, 16946, Note_on_c, 0, 77, 0
2, 16961, Control_c, 0, 64, 0
2, 16963, Note_on_c, 0, 63, 27
2, 16964, Note_on_c, 0, 77, 45
2, 16969, Note_on_c, 0, 57, 29
2, 16970, Note_on_c, 0, 53, 17
2, 16977, Control_c, 0, 64, 127
2, 16978, Note_on_c, 0, 57, 0
2, 16978, Note_on_c, 0, 63, 0
2, 16984, Note_on_c, 0, 53, 0
2, 17026, Note_on_c, 0, 77, 0
2, 17041, Note_on_c, 0, 65, 53
2, 17088, Note_on_c, 0, 41, 34
2, 17091, Control_c, 0, 64, 0
2, 17096, Note_on_c, 0, 41, 0
2, 17099, Control_c, 0, 64, 127
2, 17135, Note_on_c, 0, 65, 0
2, 17172, Note_on_c, 0, 77, 87
2, 17201, Note_on_c, 0, 77, 0
2, 17220, Note_on_c, 0, 77, 70
2, 17220, Note_on_c, 0, 65, 38
2, 17223, Control_c, 0, 64, 0
2, 17224, Note_on_c, 0, 62, 26
2, 17224, Note_on_c, 0, 60, 36
2, 17244, Control_c, 0, 64, 127
2, 17245, Note_on_c, 0, 65, 0
2, 17301, Note_on_c, 0, 74, 36
2, 17341, Note_on_c, 0, 53, 32
2, 17345, Note_on_c, 0, 77, 0
2, 17352, Note_on_c, 0, 74, 0
2, 17353, Note_on_c, 0, 62, 0
2, 17358, Note_on_c, 0, 60, 0
2, 17373, Note_on_c, 0, 53, 0
2, 17464, Note_on_c, 0, 59, 34
2, 17464, Note_on_c, 0, 61, 52
2, 17468, Note_on_c, 0, 43, 32
2, 17471, Note_on_c, 0, 53, 27
2, 17478, Control_c, 0, 64, 0
2, 17507, Control_c, 0, 64, 127
2, 17529, Note_on_c, 0, 53, 0
2, 17538, Note_on_c, 0, 59, 0
2, 17551, Note_on_c, 0, 61, 0
2, 17553, Note_on_c, 0, 43, 0
2, 17591, Note_on_c, 0, 56, 30
2, 17593, Note_on_c, 0, 62, 40
2, 17595, Note_on_c, 0, 53, 33
2, 17595, Note_on_c, 0, 59, 39
2, 17597, Note_on_c, 0, 47, 30
2, 17600, Control_c, 0, 64, 0
2, 17629, Control_c, 0, 64, 127
2, 17641, Note_on_c, 0, 53, 0
2, 17652, Note_on_c, 0, 59, 0
2, 17655, Note_on_c, 0, 56, 0
2, 17660, Note_on_c, 0, 62, 0
2, 17695, Note_on_c, 0, 47, 0
2, 17719, Note_on_c, 0, 63, 32
2, 17720, Control_c, 0, 64, 0
2, 17722, Note_on_c, 0, 58, 38
2, 17724, Note_on_c, 0, 48, 48
2, 17725, Note_on_c, 0, 55, 22
2, 17741, Note_on_c, 0, 55, 0
2, 17741, Note_on_c, 0, 48, 0
2, 17741, Control_c, 0, 64, 127
2, 17749, Note_on_c, 0, 58, 0
2, 17755, Note_on_c, 0, 63, 0
2, 17810, Note_on_c, 0, 70, 91
2, 17850, Note_on_c, 0, 58, 34
2, 17851, Note_on_c, 0, 62, 34
2, 17852, Note_on_c, 0, 63, 25
2, 17856, Control_c, 0, 64, 0
2, 17880, Control_c, 0, 64, 127
2, 17898, Note_on_c, 0, 62, 0
2, 17898, Note_on_c, 0, 67, 37
2, 17899, Note_on_c, 0, 70, 0
2, 17906, Note_on_c, 0, 63, 0
2, 17919, Note_on_c, 0, 67, 0
2, 17925, Note_on_c, 0, 58, 0
2, 17939, Note_on_c, 0, 70, 80
2, 17968, Note_on_c, 0, 70, 0
2, 17982, Note_on_c, 0, 75, 79
2, 17983, Control_c, 0, 64, 0
2, 17984, Note_on_c, 0, 57, 41
2, 17984, Note_on_c, 0, 67, 34
2, 17984, Note_on_c, 0, 63, 40
2, 18014, Control_c, 0, 64, 127
2, 18017, Note_on_c, 0, 67, 0
2, 18025, Note_on_c, 0, 63, 0
2, 18026, Note_on_c, 0, 57, 0
2, 18114, Note_on_c, 0, 58, 33
2, 18117, Note_on_c, 0, 63, 13
2, 18121, Note_on_c, 0, 53, 17
2, 18155, Note_on_c, 0, 53, 0
2, 18162, Note_on_c, 0, 63, 0
2, 18164, Note_on_c, 0, 58, 0
2, 18202, Note_on_c, 0, 69, 40
2, 18208, Note_on_c, 0, 75, 0
2, 18230, Note_on_c, 0, 69, 0
2, 18246, Note_on_c, 0, 65, 36
2, 18246, Note_on_c, 0, 77, 61
2, 18248, Note_on_c, 0, 62, 32
2, 18251, Control_c, 0, 64, 0
2, 18251, Note_on_c, 0, 60, 37
2, 18270, Note_on_c, 0, 65, 0
2, 18277, Control_c, 0, 64, 127
2, 18283, Note_on_c, 0, 77, 0
2, 18290, Note_on_c, 0, 65, 43
2, 18379, Note_on_c, 0, 53, 29
2, 18392, Control_c, 0, 64, 0
2, 18410, Note_on_c, 0, 65, 0
2, 18411, Note_on_c, 0, 67, 47
2, 18414, Note_on_c, 0, 60, 0
2, 18418, Note_on_c, 0, 62, 0
2, 18423, Note_on_c, 0, 67, 0
2, 18445, Note_on_c, 0, 69, 41
2, 18452, Note_on_c, 0, 69, 0
2, 18475, Note_on_c, 0, 70, 55
2, 18480, Control_c, 0, 64, 127
2, 18486, Note_on_c, 0, 70, 0
2, 18492, Control_c, 0, 64, 0
2, 18506, Note_on_c, 0, 72, 51
2, 18508, Note_on_c, 0, 65, 40
2, 18509, Note_on_c, 0, 60, 32
2, 18509, Note_on_c, 0, 62, 33
2, 18514, Note_on_c, 0, 72, 0
2, 18520, Note_on_c, 0, 65, 0
2, 18540, Note_on_c, 0, 74, 43
2, 18541, Note_on_c, 0, 53, 0
2, 18547, Note_on_c, 0, 74, 0
2, 18572, Note_on_c, 0, 75, 55
2, 18584, Note_on_c, 0, 75, 0
2, 18604, Note_on_c, 0, 77, 41
2, 18608, Note_on_c, 0, 79, 34
2, 18612, Note_on_c, 0, 77, 0
2, 18614, Note_on_c, 0, 79, 0
2, 18635, Note_on_c, 0, 53, 38
2, 18635, Note_on_c, 0, 79, 68
2, 18648, Note_on_c, 0, 79, 0
2, 18651, Note_on_c, 0, 53, 0
2, 18656, Note_on_c, 0, 62, 0
2, 18663, Note_on_c, 0, 60, 0
2, 18669, Note_on_c, 0, 81, 68
2, 18681, Note_on_c, 0, 81, 0
2, 18699, Note_on_c, 0, 82, 62
2, 18710, Control_c, 0, 64, 127
2, 18713, Note_on_c, 0, 82, 0
2, 18731, Note_on_c, 0, 84, 60
2, 18736, Note_on_c, 0, 72, 40
2, 18741, Note_on_c, 0, 72, 0
2, 18744, Note_on_c, 0, 84, 0
2, 18767, Note_on_c, 0, 65, 31
2, 18768, Note_on_c, 0, 61, 33
2, 18768, Note_on_c, 0, 85, 57
2, 18768, Control_c, 0, 64, 0
2, 18769, Note_on_c, 0, 73, 42
2, 18772, Note_on_c, 0, 56, 23
2, 18778, Note_on_c, 0, 73, 0
2, 18781, Note_on_c, 0, 85, 0
2, 18800, Note_on_c, 0, 74, 46
2, 18803, Note_on_c, 0, 86, 43
2, 18806, Note_on_c, 0, 74, 0
2, 18808, Note_on_c, 0, 86, 0
2, 18817, Note_on_c, 0, 65, 0
2, 18828, Control_c, 0, 64, 127
2, 18831, Note_on_c, 0, 87, 58
2, 18834, Note_on_c, 0, 75, 33
2, 18841, Note_on_c, 0, 75, 0
2, 18844, Note_on_c, 0, 87, 0
2, 18845, Note_on_c, 0, 61, 0
2, 18866, Note_on_c, 0, 76, 55
2, 18866, Note_on_c, 0, 88, 62
2, 18876, Note_on_c, 0, 76, 0
2, 18878, Note_on_c, 0, 88, 0
2, 18894, Control_c, 0, 64, 0
2, 18897, Note_on_c, 0, 60, 38
2, 18897, Note_on_c, 0, 89, 73
2, 18898, Note_on_c, 0, 77, 56
2, 18899, Note_on_c, 0, 61, 39
2, 18899, Note_on_c, 0, 65, 50
2, 18920, Control_c, 0, 64, 127
2, 18928, Note_on_c, 0, 56, 0
2, 18934, Note_on_c, 0, 89, 0
2, 18936, Note_on_c, 0, 77, 0
2, 18949, Note_on_c, 0, 89, 55
2, 18951, Note_on_c, 0, 77, 48
2, 18964, Note_on_c, 0, 77, 0
2, 18965, Note_on_c, 0, 89, 0
2, 18986, Note_on_c, 0, 89, 70
2, 18988, Note_on_c, 0, 77, 51
2, 18990, Note_on_c, 0, 56, 34
2, 18991, Note_on_c, 0, 60, 0
2, 19003, Note_on_c, 0, 77, 0
2, 19005, Note_on_c, 0, 89, 0
2, 19007, Note_on_c, 0, 65, 0
2, 19017, Note_on_c, 0, 56, 0
2, 19018, Note_on_c, 0, 61, 0
2, 19029, Control_c, 0, 64, 0
2, 19032, Note_on_c, 0, 89, 64
2, 19034, Note_on_c, 0, 65, 33
2, 19034, Note_on_c, 0, 77, 44
2, 19035, Note_on_c, 0, 61, 34
2, 19036, Note_on_c, 0, 55, 38
2, 19045, Note_on_c, 0, 65, 0
2, 19052, Control_c, 0, 64, 127
2, 19053, Note_on_c, 0, 61, 0
2, 19055, Note_on_c, 0, 55, 0
2, 19157, Note_on_c, 0, 89, 0
2, 19164, Note_on_c, 0, 27, 34
2, 19166, Note_on_c, 0, 39, 25
2, 19172, Note_on_c, 0, 27, 0
2, 19174, Note_on_c, 0, 39, 0
2, 19184, Note_on_c, 0, 77, 0
2, 19244, Note_on_c, 0, 87, 67
2, 19265, Note_on_c, 0, 87, 0
2, 19293, Note_on_c, 0, 87, 57
2, 19294, Note_on_c, 0, 44, 47
2, 19296, Control_c, 0, 64, 0
2, 19297, Note_on_c, 0, 55, 38
2, 19299, Note_on_c, 0, 79, 24
2, 19316, Control_c, 0, 64, 127
2, 19318, Note_on_c, 0, 44, 0
2, 19319, Note_on_c, 0, 87, 0
2, 19320, Note_on_c, 0, 79, 0
2, 19327, Note_on_c, 0, 55, 0
2, 19380, Note_on_c, 0, 84, 53
2, 19384, Note_on_c, 0, 72, 40
2, 19417, Note_on_c, 0, 84, 0
2, 19425, Note_on_c, 0, 63, 33
2, 19431, Note_on_c, 0, 56, 30
2, 19432, Note_on_c, 0, 60, 25
2, 19434, Note_on_c, 0, 72, 0
2, 19440, Note_on_c, 0, 60, 0
2, 19445, Note_on_c, 0, 63, 0
2, 19456, Note_on_c, 0, 56, 0
2, 19519, Note_on_c, 0, 48, 29
2, 19543, Note_on_c, 0, 48, 0
2, 19566, Note_on_c, 0, 70, 37
2, 19567, Note_on_c, 0, 48, 24
2, 19567, Note_on_c, 0, 63, 40
2, 19570, Note_on_c, 0, 56, 31
2, 19574, Note_on_c, 0, 55, 34
2, 19576, Note_on_c, 0, 41, 17
2, 19583, Control_c, 0, 64, 0
2, 19620, Control_c, 0, 64, 127
2, 19638, Note_on_c, 0, 55, 0
2, 19652, Note_on_c, 0, 70, 0
2, 19662, Note_on_c, 0, 56, 0
2, 19671, Note_on_c, 0, 63, 0
2, 19700, Note_on_c, 0, 68, 49
2, 19703, Note_on_c, 0, 56, 37
2, 19706, Note_on_c, 0, 63, 40
2, 19706, Note_on_c, 0, 53, 29
2, 19712, Control_c, 0, 64, 0
2, 19735, Note_on_c, 0, 56, 0
2, 19737, Control_c, 0, 64, 127
2, 19741, Note_on_c, 0, 41, 0
2, 19743, Note_on_c, 0, 68, 0
2, 19744, Note_on_c, 0, 63, 0
2, 19748, Note_on_c, 0, 48, 0
2, 19754, Note_on_c, 0, 53, 0
2, 19788, Note_on_c, 0, 72, 76
2, 19815, Note_on_c, 0, 72, 0
2, 19838, Note_on_c, 0, 72, 39
2, 19840, Note_on_c, 0, 65, 41
2, 19840, Note_on_c, 0, 60, 41
2, 19844, Note_on_c, 0, 57, 35
2, 19847, Control_c, 0, 64, 0
2, 19848, Note_on_c, 0, 50, 37
2, 19888, Control_c, 0, 64, 127
2, 19907, Note_on_c, 0, 60, 0
2, 19917, Note_on_c, 0, 65, 0
2, 19921, Note_on_c, 0, 57, 0
2, 19924, Note_on_c, 0, 72, 0
2, 19930, Note_on_c, 0, 69, 50
2, 19949, Note_on_c, 0, 69, 0
2, 19977, Note_on_c, 0, 60, 36
2, 19978, Note_on_c, 0, 72, 66
2, 19999, Note_on_c, 0, 50, 0
2, 20000, Note_on_c, 0, 72, 0
2, 20006, Note_on_c, 0, 60, 0
2, 20064, Note_on_c, 0, 74, 50
2, 20066, Note_on_c, 0, 71, 51
2, 20067, Note_on_c, 0, 65, 37
2, 20071, Note_on_c, 0, 64, 34
2, 20072, Note_on_c, 0, 59, 35
2, 20073, Note_on_c, 0, 53, 26
2, 20073, Control_c, 0, 64, 0
2, 20125, Control_c, 0, 64, 127
2, 20186, Note_on_c, 0, 71, 0
2, 20189, Note_on_c, 0, 65, 0
2, 20202, Note_on_c, 0, 71, 36
2, 20263, Note_on_c, 0, 71, 0
2, 20271, Note_on_c, 0, 74, 0
2, 20280, Note_on_c, 0, 64, 0
2, 20289, Note_on_c, 0, 67, 45
2, 20300, Note_on_c, 0, 53, 0
2, 20307, Note_on_c, 0, 67, 0
2, 20308, Note_on_c, 0, 59, 0
2, 20380, Note_on_c, 0, 76, 42
2, 20384, Note_on_c, 0, 70, 40
2, 20385, Note_on_c, 0, 67, 24
2, 20385, Note_on_c, 0, 65, 30
2, 20389, Note_on_c, 0, 62, 24
2, 20390, Note_on_c, 0, 55, 39
2, 20393, Control_c, 0, 64, 0
2, 20426, Control_c, 0, 64, 127
2, 20451, Note_on_c, 0, 65, 0
2, 20453, Note_on_c, 0, 62, 0
2, 20454, Note_on_c, 0, 67, 0
2, 20460, Note_on_c, 0, 70, 0
2, 20526, Note_on_c, 0, 70, 45
2, 20528, Note_on_c, 0, 65, 29
2, 20530, Note_on_c, 0, 67, 27
2, 20530, Note_on_c, 0, 62, 28
2, 20538, Note_on_c, 0, 67, 0
2, 20541, Note_on_c, 0, 62, 0
2, 20553, Note_on_c, 0, 76, 0
2, 20557, Note_on_c, 0, 55, 0
2, 20564, Note_on_c, 0, 70, 0
2, 20568, Note_on_c, 0, 65, 0
2, 20672, Note_on_c, 0, 67, 58
2, 20672, Note_on_c, 0, 60, 61
2, 20672, Note_on_c, 0, 72, 61
2, 20675, Note_on_c, 0, 45, 40
2, 20677, Note_on_c, 0, 52, 42
2, 20677, Note_on_c, 0, 55, 49
2, 20683, Control_c, 0, 64, 0
2, 20696, Note_on_c, 0, 52, 0
2, 20719, Control_c, 0, 64, 127
2, 20751, Note_on_c, 0, 67, 0
2, 20752, Note_on_c, 0, 60, 0
2, 20753, Note_on_c, 0, 45, 0
2, 20753, Note_on_c, 0, 55, 0
2, 20765, Note_on_c, 0, 72, 0
2, 20817, Note_on_c, 0, 72, 44
2, 20817, Note_on_c, 0, 60, 49
2, 20818, Note_on_c, 0, 66, 48
2, 20821, Note_on_c, 0, 44, 30
2, 20823, Note_on_c, 0, 54, 23
2, 20824, Control_c, 0, 64, 0
2, 20855, Control_c, 0, 64, 127
2, 20880, Note_on_c, 0, 60, 0
2, 20883, Note_on_c, 0, 72, 0
2, 20884, Note_on_c, 0, 54, 0
2, 20893, Note_on_c, 0, 44, 0
2, 20899, Note_on_c, 0, 66, 0
2, 20969, Note_on_c, 0, 43, 36
2, 20969, Note_on_c, 0, 65, 48
2, 20969, Note_on_c, 0, 58, 26
2, 20970, Control_c, 0, 64, 0
2, 20970, Note_on_c, 0, 72, 20
2, 20971, Note_on_c, 0, 53, 34
2, 20996, Control_c, 0, 64, 127
2, 21001, Note_on_c, 0, 58, 0
2, 21003, Note_on_c, 0, 43, 0
2, 21007, Note_on_c, 0, 65, 0
2, 21014, Note_on_c, 0, 53, 0
2, 21027, Note_on_c, 0, 72, 0
2, 21069, Note_on_c, 0, 72, 74
2, 21071, Note_on_c, 0, 65, 72
2, 21072, Note_on_c, 0, 69, 68
2, 21072, Note_on_c, 0, 62, 48
2, 21073, Note_on_c, 0, 58, 39
2, 21073, Note_on_c, 0, 60, 60
2, 21087, Control_c, 0, 64, 0
2, 21113, Control_c, 0, 64, 127
2, 21158, Note_on_c, 0, 60, 0
2, 21158, Note_on_c, 0, 62, 0
2, 21168, Note_on_c, 0, 58, 0
2, 21186, Note_on_c, 0, 65, 0
2, 21188, Note_on_c, 0, 69, 0
2, 21225, Note_on_c, 0, 72, 0
2, 21261, Control_c, 0, 64, 0
2, 21262, Note_on_c, 0, 70, 34
2, 21264, Note_on_c, 0, 67, 30
2, 21264, Note_on_c, 0, 64, 42
2, 21264, Note_on_c, 0, 58, 23
2, 21265, Note_on_c, 0, 48, 34
2, 21280, Note_on_c, 0, 64, 0
2, 21281, Note_on_c, 0, 67, 0
2, 21286, Note_on_c, 0, 70, 0
2, 21286, Control_c, 0, 64, 127
2, 21315, Note_on_c, 0, 48, 0
2, 21330, Note_on_c, 0, 58, 0
2, 21362, Note_on_c, 0, 84, 78
2, 21411, Note_on_c, 0, 69, 38
2, 21413, Control_c, 0, 64, 0
2, 21413, Note_on_c, 0, 58, 25
2, 21414, Note_on_c, 0, 64, 33
2, 21417, Note_on_c, 0, 72, 25
2, 21421, Note_on_c, 0, 84, 0
2, 21422, Note_on_c, 0, 64, 0
2, 21422, Note_on_c, 0, 69, 0
2, 21425, Note_on_c, 0, 72, 0
2, 21432, Note_on_c, 0, 58, 0
2, 21453, Control_c, 0, 64, 127
2, 21459, Note_on_c, 0, 72, 37
2, 21476, Note_on_c, 0, 72, 0
2, 21507, Note_on_c, 0, 84, 62
2, 21552, Control_c, 0, 64, 0
2, 21556, Note_on_c, 0, 72, 37
2, 21558, Note_on_c, 0, 45, 29
2, 21560, Note_on_c, 0, 55, 22
2, 21575, Note_on_c, 0, 72, 0
2, 21578, Note_on_c, 0, 45, 0
2, 21584, Control_c, 0, 64, 127
2, 21589, Note_on_c, 0, 55, 0
2, 21593, Note_on_c, 0, 84, 0
2, 21604, Note_on_c, 0, 72, 34
2, 21611, Note_on_c, 0, 72, 0
2, 21650, Note_on_c, 0, 84, 69
2, 21664, Note_on_c, 0, 84, 0
2, 21697, Note_on_c, 0, 81, 55
2, 21704, Note_on_c, 0, 64, 25
2, 21705, Control_c, 0, 64, 0
2, 21705, Note_on_c, 0, 69, 42
2, 21706, Note_on_c, 0, 60, 27
2, 21707, Note_on_c, 0, 55, 14
2, 21707, Note_on_c, 0, 57, 29
2, 21724, Control_c, 0, 64, 127
2, 21729, Note_on_c, 0, 81, 0
2, 21733, Note_on_c, 0, 60, 0
2, 21737, Note_on_c, 0, 64, 0
2, 21738, Note_on_c, 0, 69, 0
2, 21741, Note_on_c, 0, 55, 0
2, 21742, Note_on_c, 0, 57, 0
2, 21848, Note_on_c, 0, 65, 35
2, 21849, Note_on_c, 0, 60, 32
2, 21852, Control_c, 0, 64, 0
2, 21854, Note_on_c, 0, 54, 25
2, 21855, Note_on_c, 0, 50, 24
2, 21875, Control_c, 0, 64, 127
2, 21878, Note_on_c, 0, 60, 0
2, 21887, Note_on_c, 0, 54, 0
2, 21894, Note_on_c, 0, 65, 0
2, 21894, Note_on_c, 0, 50, 0
2, 21990, Note_on_c, 0, 38, 40
2, 21998, Note_on_c, 0, 38, 0
2, 22080, Note_on_c, 0, 72, 89
2, 22097, Note_on_c, 0, 72, 0
2, 22143, Note_on_c, 0, 62, 38
2, 22144, Note_on_c, 0, 58, 31
2, 22144, Note_on_c, 0, 53, 26
2, 22144, Note_on_c, 0, 57, 24
2, 22145, Note_on_c, 0, 69, 57
2, 22149, Control_c, 0, 64, 0
2, 22160, Note_on_c, 0, 69, 0
2, 22189, Note_on_c, 0, 72, 56
2, 22195, Note_on_c, 0, 72, 0
2, 22242, Note_on_c, 0, 72, 70
2, 22245, Note_on_c, 0, 62, 0
2, 22247, Note_on_c, 0, 58, 0
2, 22252, Control_c, 0, 64, 127
2, 22253, Note_on_c, 0, 72, 0
2, 22289, Control_c, 0, 64, 0
2, 22295, Note_on_c, 0, 62, 36
2, 22295, Note_on_c, 0, 72, 74
2, 22299, Note_on_c, 0, 58, 25
2, 22316, Control_c, 0, 64, 127
2, 22322, Note_on_c, 0, 62, 0
2, 22335, Note_on_c, 0, 72, 0
2, 22338, Note_on_c, 0, 67, 43
2, 22347, Note_on_c, 0, 57, 0
2, 22352, Note_on_c, 0, 67, 0
2, 22354, Note_on_c, 0, 58, 0
2, 22358, Note_on_c, 0, 53, 0
2, 22390, Note_on_c, 0, 72, 78
2, 22427, Note_on_c, 0, 72, 0
2, 22437, Note_on_c, 0, 68, 33
2, 22438, Note_on_c, 0, 64, 40
2, 22439, Note_on_c, 0, 48, 32
2, 22440, Control_c, 0, 64, 0
2, 22440, Note_on_c, 0, 58, 25
2, 22460, Control_c, 0, 64, 127
2, 22482, Note_on_c, 0, 48, 0
2, 22487, Note_on_c, 0, 68, 0
2, 22488, Note_on_c, 0, 64, 0
2, 22489, Note_on_c, 0, 72, 38
2, 22498, Note_on_c, 0, 58, 0
2, 22499, Note_on_c, 0, 72, 0
2, 22533, Note_on_c, 0, 84, 64
2, 22578, Note_on_c, 0, 64, 40
2, 22582, Note_on_c, 0, 58, 32
2, 22585, Note_on_c, 0, 64, 0
2, 22595, Note_on_c, 0, 58, 0
2, 22628, Note_on_c, 0, 84, 0
2, 22628, Note_on_c, 0, 76, 29
2, 22641, Note_on_c, 0, 76, 0
2, 22720, Note_on_c, 0, 41, 53
2, 22722, Control_c, 0, 64, 0
2, 22730, Control_c, 0, 64, 127
2, 22735, Note_on_c, 0, 41, 0
2, 22814, Note_on_c, 0, 75, 70
2, 22816, Note_on_c, 0, 70, 69
2, 22818, Note_on_c, 0, 58, 50
2, 22818, Note_on_c, 0, 67, 55
2, 22820, Note_on_c, 0, 63, 52
2, 22824, Note_on_c, 0, 53, 42
2, 22901, Note_on_c, 0, 67, 0
2, 22902, Note_on_c, 0, 75, 0
2, 22908, Note_on_c, 0, 77, 60
2, 22929, Note_on_c, 0, 63, 0
2, 22934, Note_on_c, 0, 77, 0
2, 22941, Note_on_c, 0, 70, 0
2, 22966, Note_on_c, 0, 53, 0
2, 22969, Note_on_c, 0, 58, 0
2, 23014, Note_on_c, 0, 71, 44
2, 23014, Note_on_c, 0, 67, 47
2, 23016, Note_on_c, 0, 63, 39
2, 23018, Note_on_c, 0, 53, 33
2, 23019, Note_on_c, 0, 62, 32
2, 23023, Control_c, 0, 64, 0
2, 23057, Control_c, 0, 64, 127
2, 23075, Note_on_c, 0, 74, 47
2, 23099, Note_on_c, 0, 62, 0
2, 23112, Note_on_c, 0, 71, 0
2, 23119, Note_on_c, 0, 67, 0
2, 23119, Note_on_c, 0, 74, 0
2, 23120, Note_on_c, 0, 63, 0
2, 23176, Note_on_c, 0, 72, 36
2, 23179, Note_on_c, 0, 66, 33
2, 23181, Note_on_c, 0, 62, 17
2, 23182, Note_on_c, 0, 69, 37
2, 23182, Note_on_c, 0, 60, 30
2, 23223, Note_on_c, 0, 60, 0
2, 23233, Note_on_c, 0, 53, 0
2, 23253, Note_on_c, 0, 62, 0
2, 23280, Note_on_c, 0, 53, 38
2, 23292, Note_on_c, 0, 69, 0
2, 23292, Note_on_c, 0, 66, 0
2, 23294, Note_on_c, 0, 53, 0
2, 23309, Note_on_c, 0, 72, 0
2, 23338, Note_on_c, 0, 53, 34
2, 23339, Control_c, 0, 64, 0
2, 23341, Note_on_c, 0, 46, 35
2, 23355, Control_c, 0, 64, 127
2, 23420, Note_on_c, 0, 53, 0
2, 23439, Note_on_c, 0, 73, 67
2, 23441, Note_on_c, 0, 65, 58
2, 23441, Note_on_c, 0, 57, 42
2, 23441, Note_on_c, 0, 62, 43
2, 23444, Note_on_c, 0, 69, 54
2, 23455, Control_c, 0, 64, 0
2, 23468, Control_c, 0, 64, 127
2, 23475, Note_on_c, 0, 62, 0
2, 23476, Note_on_c, 0, 65, 0
2, 23482, Note_on_c, 0, 57, 0
2, 23482, Note_on_c, 0, 73, 0
2, 23482, Note_on_c, 0, 69, 0
2, 23508, Note_on_c, 0, 74, 68
2, 23508, Note_on_c, 0, 65, 65
2, 23509, Note_on_c, 0, 69, 61
2, 23512, Note_on_c, 0, 58, 48
2, 23517, Control_c, 0, 64, 0
2, 23545, Control_c, 0, 64, 127
2, 23552, Note_on_c, 0, 65, 0
2, 23555, Note_on_c, 0, 69, 0
2, 23555, Note_on_c, 0, 46, 0
2, 23561, Note_on_c, 0, 74, 0
2, 23566, Note_on_c, 0, 58, 0
2, 23609, Note_on_c, 0, 77, 38
2, 23612, Note_on_c, 0, 72, 52
2, 23614, Note_on_c, 0, 67, 44
2, 23616, Note_on_c, 0, 62, 40
2, 23628, Control_c, 0, 64, 0
2, 23649, Control_c, 0, 64, 127
2, 23672, Note_on_c, 0, 77, 0
2, 23676, Note_on_c, 0, 72, 0
2, 23677, Note_on_c, 0, 62, 0
2, 23686, Note_on_c, 0, 67, 0
2, 23764, Note_on_c, 0, 65, 51
2, 23865, Note_on_c, 0, 65, 34
2, 23882, Note_on_c, 0, 65, 0
2, 23894, Note_on_c, 0, 65, 0
2, 23960, Control_c, 0, 64, 0
2, 23962, Note_on_c, 0, 72, 42
2, 23966, Note_on_c, 0, 39, 27
2, 23968, Note_on_c, 0, 46, 23
2, 23979, Note_on_c, 0, 72, 0
2, 23981, Control_c, 0, 64, 127
2, 23990, Note_on_c, 0, 39, 0
2, 23997, Note_on_c, 0, 46, 0
2, 24022, Note_on_c, 0, 84, 62
2, 24084, Note_on_c, 0, 72, 4
2, 24141, Note_on_c, 0, 68, 10
2, 24175, Note_on_c, 0, 68, 0
2, 24188, Note_on_c, 0, 84, 0
2, 24205, Note_on_c, 0, 72, 0
2, 24273, Note_on_c, 0, 82, 40
2, 24279, Note_on_c, 0, 70, 34
2, 24279, Note_on_c, 0, 55, 35
2, 24279, Note_on_c, 0, 61, 34
2, 24281, Note_on_c, 0, 65, 22
2, 24289, Control_c, 0, 64, 0
2, 24313, Control_c, 0, 64, 127
2, 24317, Note_on_c, 0, 65, 0
2, 24324, Note_on_c, 0, 61, 0
2, 24326, Note_on_c, 0, 82, 0
2, 24330, Note_on_c, 0, 55, 0
2, 24336, Note_on_c, 0, 70, 0
2, 24425, Note_on_c, 0, 39, 32
2, 24428, Note_on_c, 0, 46, 26
2, 24455, Note_on_c, 0, 39, 0
2, 24461, Note_on_c, 0, 46, 0
2, 24674, Note_on_c, 0, 68, 58
2, 24677, Note_on_c, 0, 64, 53
2, 24679, Note_on_c, 0, 60, 40
2, 24679, Note_on_c, 0, 54, 45
2, 24680, Note_on_c, 0, 50, 33
2, 24687, Control_c, 0, 64, 0
2, 24711, Control_c, 0, 64, 127
2, 24718, Note_on_c, 0, 60, 0
2, 24721, Note_on_c, 0, 50, 0
2, 24728, Note_on_c, 0, 64, 0
2, 24729, Note_on_c, 0, 54, 0
2, 24743, Note_on_c, 0, 68, 0
2, 24783, Note_on_c, 0, 69, 51
2, 24784, Note_on_c, 0, 64, 47
2, 24784, Note_on_c, 0, 59, 32
2, 24788, Note_on_c, 0, 53, 35
2, 24788, Note_on_c, 0, 49, 29
2, 24790, Control_c, 0, 64, 0
2, 24812, Control_c, 0, 64, 127
2, 24813, Note_on_c, 0, 64, 0
2, 24815, Note_on_c, 0, 69, 0
2, 24823, Note_on_c, 0, 53, 0
2, 24823, Note_on_c, 0, 59, 0
2, 24835, Note_on_c, 0, 49, 0
2, 24872, Note_on_c, 0, 74, 45
2, 24875, Note_on_c, 0, 62, 40
2, 24876, Note_on_c, 0, 67, 38
2, 24876, Note_on_c, 0, 70, 45
2, 24877, Note_on_c, 0, 58, 37
2, 24878, Note_on_c, 0, 48, 32
2, 24881, Control_c, 0, 64, 0
2, 24908, Control_c, 0, 64, 127
2, 24925, Note_on_c, 0, 74, 0
2, 24929, Note_on_c, 0, 58, 0
2, 24936, Note_on_c, 0, 67, 0
2, 24941, Note_on_c, 0, 70, 0
2, 24950, Note_on_c, 0, 62, 0
2, 24992, Note_on_c, 0, 48, 0
2, 25118, Note_on_c, 0, 52, 29
2, 25119, Note_on_c, 0, 64, 31
2, 25120, Note_on_c, 0, 58, 33
2, 25120, Note_on_c, 0, 61, 34
2, 25128, Note_on_c, 0, 52, 0
2, 25137, Note_on_c, 0, 64, 0
2, 25140, Note_on_c, 0, 58, 0
2, 25144, Note_on_c, 0, 61, 0
2, 25176, Note_on_c, 0, 57, 36
2, 25177, Note_on_c, 0, 65, 41
2, 25178, Note_on_c, 0, 62, 37
2, 25179, Note_on_c, 0, 60, 43
2, 25194, Control_c, 0, 64, 0
2, 25279, Note_on_c, 0, 47, 45
2, 25290, Control_c, 0, 64, 127
2, 25319, Note_on_c, 0, 47, 0
2, 25319, Control_c, 0, 64, 0
2, 25330, Note_on_c, 0, 48, 45
2, 25368, Note_on_c, 0, 48, 0
2, 25375, Control_c, 0, 64, 127
2, 25402, Control_c, 0, 64, 0
2, 25420, Control_c, 0, 64, 127
2, 25421, Note_on_c, 0, 32, 45
2, 25428, Note_on_c, 0, 57, 0
2, 25431, Note_on_c, 0, 60, 0
2, 25438, Note_on_c, 0, 62, 0
2, 25452, Note_on_c, 0, 65, 0
2, 25456, Note_on_c, 0, 32, 0
2, 25478, Note_on_c, 0, 55, 47
2, 25478, Note_on_c, 0, 64, 36
2, 25480, Note_on_c, 0, 45, 36
2, 25482, Note_on_c, 0, 33, 32
2, 25482, Note_on_c, 0, 60, 42
2, 25488, Control_c, 0, 64, 0
2, 25512, Control_c, 0, 64, 127
2, 25559, Note_on_c, 0, 55, 0
2, 25560, Note_on_c, 0, 45, 0
2, 25567, Note_on_c, 0, 33, 0
2, 25568, Note_on_c, 0, 64, 0
2, 25580, Note_on_c, 0, 38, 42
2, 25583, Note_on_c, 0, 60, 0
2, 25616, Note_on_c, 0, 38, 0
2, 25629, Note_on_c, 0, 54, 35
2, 25631, Note_on_c, 0, 63, 34
2, 25632, Note_on_c, 0, 32, 37
2, 25633, Note_on_c, 0, 59, 35
2, 25634, Note_on_c, 0, 44, 29
2, 25635, Control_c, 0, 64, 0
2, 25672, Control_c, 0, 64, 127
2, 25705, Note_on_c, 0, 44, 0
2, 25714, Note_on_c, 0, 59, 0
2, 25719, Note_on_c, 0, 54, 0
2, 25726, Note_on_c, 0, 32, 0
2, 25726, Note_on_c, 0, 63, 0
2, 25733, Note_on_c, 0, 38, 20
2, 25770, Note_on_c, 0, 38, 0
2, 25773, Control_c, 0, 64, 0
2, 25779, Note_on_c, 0, 62, 29
2, 25779, Note_on_c, 0, 31, 39
2, 25782, Note_on_c, 0, 53, 38
2, 25782, Note_on_c, 0, 58, 28
2, 25784, Note_on_c, 0, 43, 22
2, 25791, Note_on_c, 0, 53, 0
2, 25796, Control_c, 0, 64, 127
2, 25798, Note_on_c, 0, 58, 0
2, 25800, Note_on_c, 0, 62, 0
2, 25806, Note_on_c, 0, 31, 0
2, 25814, Note_on_c, 0, 43, 0
2, 25864, Note_on_c, 0, 84, 84
2, 25865, Note_on_c, 0, 72, 81
2, 25893, Note_on_c, 0, 72, 0
2, 25898, Note_on_c, 0, 84, 0
2, 25909, Note_on_c, 0, 81, 53
2, 25929, Note_on_c, 0, 81, 0
2, 25943, Control_c, 0, 64, 0
2, 25944, Note_on_c, 0, 62, 40
2, 25945, Note_on_c, 0, 53, 28
2, 25945, Note_on_c, 0, 58, 42
2, 25945, Note_on_c, 0, 57, 26
2, 25950, Note_on_c, 0, 84, 74
2, 25951, Note_on_c, 0, 72, 54
2, 25978, Control_c, 0, 64, 127
2, 25984, Note_on_c, 0, 62, 0
2, 25985, Note_on_c, 0, 84, 0
2, 25986, Note_on_c, 0, 57, 0
2, 25989, Note_on_c, 0, 72, 0
2, 25994, Note_on_c, 0, 58, 0
2, 25996, Note_on_c, 0, 53, 0
2, 26002, Note_on_c, 0, 84, 60
2, 26006, Note_on_c, 0, 72, 37
2, 26019, Note_on_c, 0, 72, 0
2, 26030, Note_on_c, 0, 84, 0
2, 26048, Note_on_c, 0, 81, 40
2, 26056, Note_on_c, 0, 81, 0
2, 26072, Note_on_c, 0, 55, 19
2, 26090, Note_on_c, 0, 55, 0
2, 26094, Control_c, 0, 64, 0
2, 26094, Note_on_c, 0, 84, 62
2, 26096, Note_on_c, 0, 58, 33
2, 26097, Note_on_c, 0, 72, 42
2, 26098, Note_on_c, 0, 48, 37
2, 26118, Control_c, 0, 64, 127
2, 26127, Note_on_c, 0, 48, 0
2, 26144, Note_on_c, 0, 58, 0
2, 26158, Note_on_c, 0, 84, 0
2, 26159, Note_on_c, 0, 72, 0
2, 26191, Note_on_c, 0, 84, 53
2, 26194, Note_on_c, 0, 72, 37
2, 26240, Note_on_c, 0, 58, 37
2, 26241, Note_on_c, 0, 62, 33
2, 26242, Note_on_c, 0, 52, 34
2, 26246, Control_c, 0, 64, 0
2, 26249, Note_on_c, 0, 62, 0
2, 26256, Note_on_c, 0, 58, 0
2, 26257, Note_on_c, 0, 52, 0
2, 26317, Control_c, 0, 64, 127
2, 26335, Note_on_c, 0, 52, 41
2, 26381, Note_on_c, 0, 45, 4
2, 26389, Control_c, 0, 64, 0
2, 26411, Control_c, 0, 64, 127
2, 26430, Note_on_c, 0, 45, 0
2, 26436, Note_on_c, 0, 52, 0
2, 26451, Note_on_c, 0, 72, 0
2, 26469, Note_on_c, 0, 84, 0
2, 26483, Note_on_c, 0, 81, 64
2, 26508, Note_on_c, 0, 81, 0
2, 26529, Note_on_c, 0, 60, 49
2, 26531, Note_on_c, 0, 84, 84
2, 26531, Note_on_c, 0, 64, 57
2, 26534, Note_on_c, 0, 55, 49
2, 26534, Note_on_c, 0, 72, 78
2, 26536, Control_c, 0, 64, 0
2, 26556, Control_c, 0, 64, 127
2, 26563, Note_on_c, 0, 84, 0
2, 26570, Note_on_c, 0, 72, 0
2, 26571, Note_on_c, 0, 64, 0
2, 26575, Note_on_c, 0, 60, 0
2, 26580, Note_on_c, 0, 55, 0
2, 26583, Note_on_c, 0, 84, 60
2, 26585, Note_on_c, 0, 72, 46
2, 26604, Note_on_c, 0, 72, 0
2, 26615, Note_on_c, 0, 84, 0
2, 26631, Note_on_c, 0, 81, 55
2, 26649, Note_on_c, 0, 81, 0
2, 26676, Control_c, 0, 64, 0
2, 26676, Note_on_c, 0, 84, 55
2, 26678, Note_on_c, 0, 72, 43
2, 26678, Note_on_c, 0, 38, 42
2, 26699, Control_c, 0, 64, 127
2, 26705, Note_on_c, 0, 38, 0
2, 26732, Note_on_c, 0, 72, 0
2, 26736, Note_on_c, 0, 84, 0
2, 26771, Note_on_c, 0, 86, 50
2, 26771, Note_on_c, 0, 74, 35
2, 26772, Note_on_c, 0, 78, 30
2, 26776, Note_on_c, 0, 81, 34
2, 26823, Note_on_c, 0, 65, 37
2, 26826, Note_on_c, 0, 54, 31
2, 26827, Note_on_c, 0, 60, 42
2, 26847, Note_on_c, 0, 86, 0
2, 26852, Note_on_c, 0, 74, 0
2, 26860, Note_on_c, 0, 81, 0
2, 26865, Note_on_c, 0, 78, 0
2, 26875, Note_on_c, 0, 84, 53
2, 26878, Note_on_c, 0, 78, 26
2, 26879, Note_on_c, 0, 81, 48
2, 26880, Note_on_c, 0, 72, 25
2, 26884, Note_on_c, 0, 65, 0
2, 26888, Note_on_c, 0, 60, 0
2, 26899, Note_on_c, 0, 72, 0
2, 26916, Note_on_c, 0, 54, 0
2, 26924, Note_on_c, 0, 78, 0
2, 26929, Note_on_c, 0, 81, 0
2, 26932, Note_on_c, 0, 84, 0
2, 26967, Note_on_c, 0, 84, 57
2, 26968, Control_c, 0, 64, 0
2, 26970, Note_on_c, 0, 77, 40
2, 26970, Note_on_c, 0, 53, 29
2, 26970, Note_on_c, 0, 55, 31
2, 26971, Note_on_c, 0, 62, 28
2, 26971, Note_on_c, 0, 72, 37
2, 26972, Note_on_c, 0, 58, 32
2, 26994, Control_c, 0, 64, 127
2, 27000, Note_on_c, 0, 84, 0
2, 27008, Note_on_c, 0, 62, 0
2, 27010, Note_on_c, 0, 77, 0
2, 27015, Note_on_c, 0, 53, 0
2, 27015, Note_on_c, 0, 58, 0
2, 27018, Note_on_c, 0, 55, 0
2, 27018, Note_on_c, 0, 72, 0
2, 27110, Note_on_c, 0, 58, 35
2, 27111, Note_on_c, 0, 50, 38
2, 27111, Note_on_c, 0, 62, 40
2, 27112, Note_on_c, 0, 43, 36
2, 27140, Note_on_c, 0, 43, 0
2, 27148, Note_on_c, 0, 50, 0
2, 27152, Note_on_c, 0, 58, 0
2, 27155, Note_on_c, 0, 62, 0
2, 27258, Note_on_c, 0, 76, 68
2, 27262, Note_on_c, 0, 68, 63
2, 27263, Note_on_c, 0, 72, 50
2, 27263, Note_on_c, 0, 58, 43
2, 27265, Note_on_c, 0, 48, 37
2, 27265, Note_on_c, 0, 64, 55
2, 27268, Control_c, 0, 64, 0
2, 27297, Control_c, 0, 64, 127
2, 27299, Note_on_c, 0, 48, 0
2, 27319, Note_on_c, 0, 72, 0
2, 27320, Note_on_c, 0, 58, 0
2, 27336, Note_on_c, 0, 64, 0
2, 27367, Note_on_c, 0, 68, 0
2, 27372, Note_on_c, 0, 76, 0
2, 27416, Note_on_c, 0, 68, 36
2, 27416, Note_on_c, 0, 72, 49
2, 27418, Note_on_c, 0, 64, 31
2, 27418, Note_on_c, 0, 58, 37
2, 27460, Note_on_c, 0, 64, 0
2, 27474, Note_on_c, 0, 72, 0
2, 27475, Note_on_c, 0, 68, 0
2, 27516, Note_on_c, 0, 79, 81
2, 27529, Note_on_c, 0, 58, 0
2, 27542, Note_on_c, 0, 79, 0
2, 27568, Note_on_c, 0, 70, 71
2, 27568, Note_on_c, 0, 77, 57
2, 27572, Note_on_c, 0, 63, 39
2, 27573, Note_on_c, 0, 67, 48
2, 27574, Note_on_c, 0, 58, 34
2, 27576, Note_on_c, 0, 53, 40
2, 27578, Control_c, 0, 64, 0
2, 27607, Control_c, 0, 64, 127
2, 27619, Note_on_c, 0, 67, 0
2, 27623, Note_on_c, 0, 70, 0
2, 27631, Note_on_c, 0, 77, 0
2, 27632, Note_on_c, 0, 63, 0
2, 27632, Note_on_c, 0, 60, 55
2, 27683, Note_on_c, 0, 60, 0
2, 27690, Note_on_c, 0, 89, 91
2, 27759, Note_on_c, 0, 89, 0
2, 27776, Note_on_c, 0, 87, 73
2, 27796, Note_on_c, 0, 53, 0
2, 27804, Note_on_c, 0, 87, 0
2, 27852, Note_on_c, 0, 58, 0
2, 27875, Note_on_c, 0, 86, 50
2, 27877, Note_on_c, 0, 74, 24
2, 27878, Note_on_c, 0, 78, 36
2, 27879, Note_on_c, 0, 81, 42
2, 27880, Note_on_c, 0, 63, 23
2, 27883, Note_on_c, 0, 57, 42
2, 27887, Control_c, 0, 64, 0
2, 27910, Control_c, 0, 64, 127
2, 27928, Note_on_c, 0, 86, 0
2, 27932, Note_on_c, 0, 81, 0
2, 27936, Note_on_c, 0, 78, 0
2, 27939, Note_on_c, 0, 74, 0
2, 27943, Note_on_c, 0, 63, 0
2, 28046, Note_on_c, 0, 53, 20
2, 28092, Note_on_c, 0, 57, 0
2, 28100, Note_on_c, 0, 53, 0
2, 28143, Note_on_c, 0, 65, 41
2, 28158, Note_on_c, 0, 65, 0
2, 28198, Note_on_c, 0, 73, 53
2, 28200, Note_on_c, 0, 65, 30
2, 28200, Control_c, 0, 64, 0
2, 28200, Note_on_c, 0, 62, 27
2, 28201, Note_on_c, 0, 53, 29
2, 28201, Note_on_c, 0, 69, 48
2, 28202, Note_on_c, 0, 46, 27
2, 28226, Control_c, 0, 64, 127
2, 28242, Note_on_c, 0, 73, 0
2, 28269, Note_on_c, 0, 65, 0
2, 28273, Note_on_c, 0, 62, 0
2, 28274, Note_on_c, 0, 69, 0
2, 28328, Note_on_c, 0, 53, 0
2, 28352, Note_on_c, 0, 74, 48
2, 28354, Note_on_c, 0, 65, 49
2, 28355, Note_on_c, 0, 69, 53
2, 28356, Note_on_c, 0, 62, 46
2, 28357, Control_c, 0, 64, 0
2, 28360, Note_on_c, 0, 55, 34
2, 28383, Control_c, 0, 64, 127
2, 28411, Note_on_c, 0, 62, 0
2, 28419, Note_on_c, 0, 65, 0
2, 28423, Note_on_c, 0, 55, 0
2, 28427, Note_on_c, 0, 69, 0
2, 28432, Note_on_c, 0, 74, 0
2, 28514, Note_on_c, 0, 77, 57
2, 28519, Note_on_c, 0, 67, 32
2, 28519, Note_on_c, 0, 72, 48
2, 28531, Note_on_c, 0, 46, 0
2, 28585, Note_on_c, 0, 72, 0
2, 28587, Note_on_c, 0, 77, 0
2, 28598, Note_on_c, 0, 67, 0
2, 28677, Note_on_c, 0, 65, 31
2, 28679, Note_on_c, 0, 62, 20
2, 28681, Note_on_c, 0, 60, 29
2, 28720, Note_on_c, 0, 65, 0
2, 28726, Note_on_c, 0, 62, 0
2, 28739, Note_on_c, 0, 60, 0
2, 28742, Note_on_c, 0, 65, 68
2, 28780, Note_on_c, 0, 65, 55
2, 28795, Note_on_c, 0, 65, 0
2, 28800, Note_on_c, 0, 65, 0
2, 28835, Note_on_c, 0, 69, 18
2, 28841, Note_on_c, 0, 70, 50
2, 28849, Note_on_c, 0, 69, 0
2, 28849, Note_on_c, 0, 71, 67
2, 28850, Note_on_c, 0, 66, 30
2, 28851, Note_on_c, 0, 55, 33
2, 28853, Note_on_c, 0, 61, 38
2, 28856, Note_on_c, 0, 70, 0
2, 28856, Control_c, 0, 64, 0
2, 28866, Note_on_c, 0, 71, 0
2, 28871, Note_on_c, 0, 72, 59
2, 28923, Control_c, 0, 64, 127
2, 28929, Note_on_c, 0, 70, 48
2, 28937, Note_on_c, 0, 72, 0
2, 28952, Note_on_c, 0, 70, 0
2, 29000, Note_on_c, 0, 66, 0
2, 29000, Note_on_c, 0, 84, 66
2, 29007, Note_on_c, 0, 55, 0
2, 29009, Note_on_c, 0, 61, 0
2, 29049, Note_on_c, 0, 84, 0
2, 29068, Note_on_c, 0, 73, 34
2, 29075, Note_on_c, 0, 73, 0
2, 29115, Note_on_c, 0, 96, 58
2, 29156, Note_on_c, 0, 39, 36
2, 29158, Note_on_c, 0, 46, 30
2, 29169, Note_on_c, 0, 39, 0
2, 29172, Note_on_c, 0, 46, 0
2, 29196, Note_on_c, 0, 96, 0
2, 29204, Note_on_c, 0, 93, 43
2, 29210, Note_on_c, 0, 93, 0
2, 29253, Note_on_c, 0, 101, 49
2, 29265, Note_on_c, 0, 101, 0
2, 29318, Note_on_c, 0, 66, 34
2, 29321, Note_on_c, 0, 61, 34
2, 29323, Note_on_c, 0, 55, 35
2, 29348, Note_on_c, 0, 66, 0
2, 29350, Note_on_c, 0, 55, 0
2, 29356, Note_on_c, 0, 61, 0
2, 29470, Note_on_c, 0, 68, 48
2, 29470, Note_on_c, 0, 59, 46
2, 29472, Note_on_c, 0, 64, 44
2, 29475, Note_on_c, 0, 54, 38
2, 29478, Note_on_c, 0, 50, 37
2, 29490, Control_c, 0, 64, 0
2, 29520, Control_c, 0, 64, 127
2, 29552, Note_on_c, 0, 50, 0
2, 29557, Note_on_c, 0, 59, 0
2, 29561, Note_on_c, 0, 54, 0
2, 29563, Note_on_c, 0, 64, 0
2, 29579, Note_on_c, 0, 68, 0
2, 29625, Note_on_c, 0, 59, 37
2, 29625, Note_on_c, 0, 63, 48
2, 29627, Note_on_c, 0, 53, 35
2, 29627, Note_on_c, 0, 69, 55
2, 29629, Note_on_c, 0, 49, 35
2, 29634, Control_c, 0, 64, 0
2, 29663, Control_c, 0, 64, 127
2, 29675, Note_on_c, 0, 69, 0
2, 29676, Note_on_c, 0, 63, 0
2, 29720, Note_on_c, 0, 59, 0
2, 29722, Note_on_c, 0, 53, 0
2, 29735, Note_on_c, 0, 74, 89
2, 29753, Note_on_c, 0, 49, 0
2, 29766, Note_on_c, 0, 74, 0
2, 29791, Note_on_c, 0, 74, 49
2, 29793, Note_on_c, 0, 67, 43
2, 29795, Note_on_c, 0, 62, 39
2, 29796, Note_on_c, 0, 58, 27
2, 29797, Note_on_c, 0, 48, 30
2, 29799, Control_c, 0, 64, 0
2, 29822, Control_c, 0, 64, 127
2, 29823, Note_on_c, 0, 62, 0
2, 29827, Note_on_c, 0, 67, 0
2, 29833, Note_on_c, 0, 74, 0
2, 29887, Note_on_c, 0, 58, 0
2, 29888, Note_on_c, 0, 48, 0
2, 29901, Note_on_c, 0, 79, 71
2, 29902, Note_on_c, 0, 81, 68
2, 29902, Note_on_c, 0, 72, 76
2, 29907, Note_on_c, 0, 81, 0
2, 29943, Note_on_c, 0, 79, 0
2, 29945, Note_on_c, 0, 72, 0
2, 29955, Note_on_c, 0, 72, 30
2, 29955, Control_c, 0, 64, 0
2, 29957, Note_on_c, 0, 76, 45
2, 29959, Note_on_c, 0, 56, 33
2, 29959, Note_on_c, 0, 46, 35
2, 29963, Note_on_c, 0, 67, 31
2, 29979, Control_c, 0, 64, 127
2, 29989, Note_on_c, 0, 67, 0
2, 29992, Note_on_c, 0, 72, 0
2, 29997, Note_on_c, 0, 76, 0
2, 30049, Note_on_c, 0, 56, 0
2, 30055, Note_on_c, 0, 86, 68
2, 30058, Note_on_c, 0, 74, 37
2, 30065, Note_on_c, 0, 46, 0
2, 30084, Note_on_c, 0, 86, 0
2, 30095, Note_on_c, 0, 74, 0
2, 30114, Note_on_c, 0, 72, 32
2, 30114, Note_on_c, 0, 84, 43
2, 30115, Note_on_c, 0, 45, 39
2, 30115, Control_c, 0, 64, 0
2, 30118, Note_on_c, 0, 55, 24
2, 30138, Control_c, 0, 64, 127
2, 30147, Note_on_c, 0, 45, 0
2, 30160, Note_on_c, 0, 55, 0
2, 30184, Note_on_c, 0, 84, 0
2, 30184, Note_on_c, 0, 72, 0
2, 30220, Note_on_c, 0, 72, 40
2, 30220, Note_on_c, 0, 84, 44
2, 30240, Note_on_c, 0, 72, 0
2, 30262, Note_on_c, 0, 84, 0
2, 30277, Note_on_c, 0, 55, 24
2, 30279, Note_on_c, 0, 60, 17
2, 30280, Note_on_c, 0, 61, 19
2, 30281, Note_on_c, 0, 65, 17
2, 30295, Control_c, 0, 64, 0
2, 30324, Note_on_c, 0, 93, 67
2, 30329, Control_c, 0, 64, 127
2, 30349, Note_on_c, 0, 94, 50
2, 30354, Note_on_c, 0, 93, 0
2, 30355, Note_on_c, 0, 65, 0
2, 30362, Note_on_c, 0, 60, 0
2, 30363, Note_on_c, 0, 94, 0
2, 30365, Note_on_c, 0, 95, 55
2, 30368, Note_on_c, 0, 61, 0
2, 30369, Control_c, 0, 64, 0
2, 30372, Note_on_c, 0, 55, 0
2, 30380, Note_on_c, 0, 95, 0
2, 30393, Control_c, 0, 64, 127
2, 30393, Note_on_c, 0, 98, 71
2, 30394, Note_on_c, 0, 86, 60
2, 30417, Note_on_c, 0, 86, 0
2, 30418, Note_on_c, 0, 98, 0
2, 30442, Note_on_c, 0, 54, 35
2, 30442, Note_on_c, 0, 65, 26
2, 30443, Note_on_c, 0, 86, 32
2, 30444, Control_c, 0, 64, 0
2, 30446, Note_on_c, 0, 60, 33
2, 30464, Note_on_c, 0, 86, 0
2, 30471, Control_c, 0, 64, 127
2, 30504, Note_on_c, 0, 84, 51
2, 30504, Note_on_c, 0, 96, 62
2, 30505, Note_on_c, 0, 65, 0
2, 30507, Note_on_c, 0, 60, 0
2, 30521, Note_on_c, 0, 84, 0
2, 30521, Note_on_c, 0, 54, 0
2, 30525, Note_on_c, 0, 96, 0
2, 30552, Note_on_c, 0, 96, 80
2, 30554, Note_on_c, 0, 84, 68
2, 30581, Note_on_c, 0, 84, 0
2, 30584, Note_on_c, 0, 96, 0
2, 30606, Note_on_c, 0, 60, 34
2, 30606, Note_on_c, 0, 96, 69
2, 30606, Note_on_c, 0, 50, 33
2, 30607, Note_on_c, 0, 84, 55
2, 30608, Note_on_c, 0, 57, 20
2, 30610, Note_on_c, 0, 54, 37
2, 30613, Control_c, 0, 64, 0
2, 30628, Note_on_c, 0, 57, 0
2, 30630, Note_on_c, 0, 60, 0
2, 30630, Control_c, 0, 64, 127
2, 30636, Note_on_c, 0, 84, 0
2, 30636, Note_on_c, 0, 96, 0
2, 30640, Note_on_c, 0, 54, 0
2, 30642, Note_on_c, 0, 50, 0
2, 30658, Note_on_c, 0, 96, 60
2, 30661, Note_on_c, 0, 84, 41
2, 30681, Note_on_c, 0, 84, 0
2, 30689, Note_on_c, 0, 96, 0
2, 30705, Note_on_c, 0, 50, 36
2, 30708, Note_on_c, 0, 93, 48
2, 30722, Note_on_c, 0, 93, 0
2, 30755, Note_on_c, 0, 50, 0
2, 30757, Control_c, 0, 64, 0
2, 30760, Note_on_c, 0, 43, 47
2, 30763, Note_on_c, 0, 96, 74
2, 30766, Note_on_c, 0, 84, 45
2, 30781, Control_c, 0, 64, 127
2, 30792, Note_on_c, 0, 43, 0
2, 30807, Note_on_c, 0, 84, 0
2, 30807, Note_on_c, 0, 96, 0
2, 30872, Note_on_c, 0, 84, 83
2, 30872, Note_on_c, 0, 96, 87
2, 30902, Note_on_c, 0, 84, 0
2, 30911, Note_on_c, 0, 96, 0
2, 30924, Note_on_c, 0, 62, 31
2, 30924, Note_on_c, 0, 84, 34
2, 30924, Note_on_c, 0, 58, 36
2, 30925, Note_on_c, 0, 57, 24
2, 30927, Note_on_c, 0, 93, 41
2, 30931, Note_on_c, 0, 62, 0
2, 30933, Control_c, 0, 64, 0
2, 30934, Note_on_c, 0, 57, 0
2, 30939, Note_on_c, 0, 58, 0
2, 30940, Note_on_c, 0, 84, 0
2, 30945, Note_on_c, 0, 93, 0
2, 30956, Control_c, 0, 64, 127
2, 30973, Note_on_c, 0, 96, 59
2, 30980, Note_on_c, 0, 84, 29
2, 30989, Note_on_c, 0, 84, 0
2, 30998, Note_on_c, 0, 96, 0
2, 31023, Note_on_c, 0, 93, 58
2, 31033, Note_on_c, 0, 93, 0
2, 31073, Note_on_c, 0, 43, 29
2, 31075, Note_on_c, 0, 94, 50
2, 31078, Note_on_c, 0, 82, 34
2, 31078, Note_on_c, 0, 36, 34
2, 31081, Control_c, 0, 64, 0
2, 31096, Control_c, 0, 64, 127
2, 31106, Note_on_c, 0, 36, 0
2, 31111, Note_on_c, 0, 43, 0
2, 31118, Note_on_c, 0, 94, 0
2, 31119, Note_on_c, 0, 82, 0
2, 31182, Note_on_c, 0, 98, 81
2, 31183, Note_on_c, 0, 86, 68
2, 31184, Note_on_c, 0, 94, 57
2, 31184, Note_on_c, 0, 91, 62
2, 31233, Note_on_c, 0, 64, 36
2, 31235, Note_on_c, 0, 58, 36
2, 31239, Note_on_c, 0, 60, 26
2, 31240, Note_on_c, 0, 64, 0
2, 31245, Note_on_c, 0, 60, 0
2, 31251, Note_on_c, 0, 58, 0
2, 31276, Note_on_c, 0, 91, 0
2, 31277, Note_on_c, 0, 98, 0
2, 31287, Note_on_c, 0, 94, 0
2, 31290, Note_on_c, 0, 86, 0
2, 31336, Note_on_c, 0, 46, 45
2, 31369, Note_on_c, 0, 46, 0
2, 31392, Control_c, 0, 64, 0
2, 31392, Note_on_c, 0, 55, 40
2, 31393, Note_on_c, 0, 45, 35
2, 31393, Note_on_c, 0, 72, 38
2, 31395, Note_on_c, 0, 67, 29
2, 31396, Note_on_c, 0, 60, 32
2, 31396, Note_on_c, 0, 52, 27
2, 31406, Note_on_c, 0, 60, 0
2, 31410, Control_c, 0, 64, 127
2, 31412, Note_on_c, 0, 45, 0
2, 31414, Note_on_c, 0, 67, 0
2, 31419, Note_on_c, 0, 52, 0
2, 31423, Note_on_c, 0, 55, 0
2, 31423, Note_on_c, 0, 72, 0
2, 31500, Note_on_c, 0, 76, 56
2, 31500, Note_on_c, 0, 84, 66
2, 31500, Note_on_c, 0, 69, 56
2, 31502, Note_on_c, 0, 79, 50
2, 31511, Note_on_c, 0, 79, 0
2, 31513, Note_on_c, 0, 84, 0
2, 31515, Note_on_c, 0, 76, 0
2, 31516, Note_on_c, 0, 69, 0
2, 31560, Note_on_c, 0, 79, 44
2, 31561, Note_on_c, 0, 72, 47
2, 31561, Note_on_c, 0, 76, 44
2, 31563, Note_on_c, 0, 64, 38
2, 31565, Control_c, 0, 64, 0
2, 31574, Note_on_c, 0, 72, 0
2, 31578, Note_on_c, 0, 76, 0
2, 31579, Note_on_c, 0, 64, 0
2, 31583, Note_on_c, 0, 79, 0
2, 31599, Control_c, 0, 64, 127
2, 31656, Note_on_c, 0, 50, 44
2, 31659, Note_on_c, 0, 77, 58
2, 31665, Note_on_c, 0, 50, 0
2, 31738, Note_on_c, 0, 77, 0
2, 31752, Note_on_c, 0, 74, 37
2, 31753, Note_on_c, 0, 70, 37
2, 31753, Note_on_c, 0, 60, 40
2, 31754, Note_on_c, 0, 65, 37
2, 31756, Note_on_c, 0, 54, 36
2, 31778, Note_on_c, 0, 60, 0
2, 31781, Note_on_c, 0, 74, 0
2, 31789, Note_on_c, 0, 70, 0
2, 31791, Note_on_c, 0, 54, 0
2, 31794, Note_on_c, 0, 65, 0
2, 31865, Note_on_c, 0, 54, 43
2, 31866, Note_on_c, 0, 65, 38
2, 31869, Note_on_c, 0, 58, 37
2, 31870, Note_on_c, 0, 50, 40
2, 31871, Note_on_c, 0, 60, 44
2, 31883, Control_c, 0, 64, 0
2, 31894, Control_c, 0, 64, 127
2, 31906, Note_on_c, 0, 54, 0
2, 31929, Note_on_c, 0, 58, 0
2, 31945, Note_on_c, 0, 60, 0
2, 31966, Note_on_c, 0, 44, 36
2, 31966, Note_on_c, 0, 59, 41
2, 31968, Note_on_c, 0, 55, 31
2, 31975, Note_on_c, 0, 50, 0
2, 31997, Note_on_c, 0, 55, 0
2, 31998, Note_on_c, 0, 59, 0
2, 32010, Note_on_c, 0, 44, 0
2, 32014, Note_on_c, 0, 65, 0
2, 32021, Control_c, 0, 64, 0
2, 32030, Note_on_c, 0, 58, 37
2, 32031, Note_on_c, 0, 43, 34
2, 32032, Note_on_c, 0, 55, 29
2, 32034, Note_on_c, 0, 50, 31
2, 32042, Note_on_c, 0, 55, 0
2, 32048, Control_c, 0, 64, 127
2, 32049, Note_on_c, 0, 58, 0
2, 32053, Note_on_c, 0, 43, 0
2, 32055, Note_on_c, 0, 50, 0
2, 32138, Control_c, 0, 64, 0
2, 32143, Note_on_c, 0, 59, 44
2, 32144, Note_on_c, 0, 65, 52
2, 32144, Note_on_c, 0, 72, 62
2, 32144, Note_on_c, 0, 62, 61
2, 32145, Note_on_c, 0, 60, 64
2, 32145, Note_on_c, 0, 69, 62
2, 32149, Note_on_c, 0, 59, 0
2, 32172, Control_c, 0, 64, 127
2, 32236, Note_on_c, 0, 62, 0
2, 32238, Note_on_c, 0, 65, 0
2, 32240, Note_on_c, 0, 69, 0
2, 32247, Note_on_c, 0, 72, 0
2, 32262, Note_on_c, 0, 62, 33
2, 32263, Note_on_c, 0, 60, 0
2, 32263, Note_on_c, 0, 70, 47
2, 32263, Note_on_c, 0, 65, 40
2, 32265, Note_on_c, 0, 58, 35
2, 32305, Note_on_c, 0, 62, 0
2, 32309, Note_on_c, 0, 65, 0
2, 32318, Note_on_c, 0, 58, 0
2, 32335, Note_on_c, 0, 70, 0
2, 32355, Note_on_c, 0, 68, 46
2, 32356, Note_on_c, 0, 72, 51
2, 32361, Note_on_c, 0, 58, 27
2, 32361, Note_on_c, 0, 64, 19
2, 32361, Note_on_c, 0, 52, 39
2, 32365, Control_c, 0, 64, 0
2, 32384, Control_c, 0, 64, 127
2, 32385, Note_on_c, 0, 52, 0
2, 32385, Note_on_c, 0, 72, 0
2, 32390, Note_on_c, 0, 58, 0
2, 32394, Note_on_c, 0, 68, 0
2, 32396, Note_on_c, 0, 64, 0
2, 32457, Note_on_c, 0, 68, 47
2, 32462, Note_on_c, 0, 61, 40
2, 32463, Note_on_c, 0, 48, 33
2, 32463, Note_on_c, 0, 58, 23
2, 32465, Note_on_c, 0, 55, 36
2, 32466, Note_on_c, 0, 64, 35
2, 32475, Control_c, 0, 64, 0
2, 32496, Control_c, 0, 64, 127
2, 32527, Note_on_c, 0, 58, 0
2, 32530, Note_on_c, 0, 61, 0
2, 32531, Note_on_c, 0, 64, 0
2, 32535, Note_on_c, 0, 68, 0
2, 32569, Note_on_c, 0, 48, 0
2, 32578, Note_on_c, 0, 55, 0
2, 32611, Note_on_c, 0, 77, 63
2, 32646, Note_on_c, 0, 77, 0
2, 32664, Note_on_c, 0, 75, 51
2, 32666, Note_on_c, 0, 70, 42
2, 32666, Note_on_c, 0, 63, 33
2, 32667, Note_on_c, 0, 67, 32
2, 32669, Control_c, 0, 64, 0
2, 32670, Note_on_c, 0, 53, 29
2, 32671, Note_on_c, 0, 58, 27
2, 32679, Control_c, 0, 64, 127
2, 32706, Note_on_c, 0, 67, 0
2, 32718, Note_on_c, 0, 70, 0
2, 32720, Note_on_c, 0, 75, 0
2, 32734, Note_on_c, 0, 65, 36
2, 32744, Note_on_c, 0, 65, 0
2, 32752, Note_on_c, 0, 67, 37
2, 32759, Control_c, 0, 64, 0
2, 32772, Note_on_c, 0, 67, 0
2, 32774, Note_on_c, 0, 69, 39
2, 32784, Note_on_c, 0, 69, 0
2, 32787, Note_on_c, 0, 70, 47
2, 32792, Note_on_c, 0, 70, 0
2, 32803, Note_on_c, 0, 72, 41
2, 32811, Note_on_c, 0, 72, 0
2, 32828, Note_on_c, 0, 74, 51
2, 32833, Note_on_c, 0, 74, 0
2, 32850, Note_on_c, 0, 75, 71
2, 32857, Note_on_c, 0, 75, 0
2, 32875, Note_on_c, 0, 77, 48
2, 32883, Note_on_c, 0, 77, 0
2, 32896, Note_on_c, 0, 79, 64
2, 32906, Note_on_c, 0, 79, 0
2, 32919, Note_on_c, 0, 53, 0
2, 32920, Note_on_c, 0, 81, 63
2, 32930, Note_on_c, 0, 81, 0
2, 32933, Note_on_c, 0, 63, 0
2, 32939, Note_on_c, 0, 58, 0
2, 32943, Note_on_c, 0, 82, 50
2, 32961, Note_on_c, 0, 82, 0
2, 32965, Note_on_c, 0, 83, 59
2, 32976, Control_c, 0, 64, 127
2, 32979, Note_on_c, 0, 83, 0
2, 32988, Note_on_c, 0, 86, 74
2, 33005, Control_c, 0, 64, 0
2, 33005, Note_on_c, 0, 63, 26
2, 33007, Note_on_c, 0, 86, 0
2, 33007, Note_on_c, 0, 60, 38
2, 33017, Note_on_c, 0, 83, 33
2, 33025, Note_on_c, 0, 83, 0
2, 33042, Note_on_c, 0, 84, 65
2, 33055, Note_on_c, 0, 84, 0
2, 33074, Note_on_c, 0, 81, 45
2, 33082, Note_on_c, 0, 81, 0
2, 33096, Note_on_c, 0, 63, 0
2, 33104, Note_on_c, 0, 53, 1
2, 33113, Note_on_c, 0, 77, 36
2, 33126, Note_on_c, 0, 77, 0
2, 33127, Control_c, 0, 64, 127
2, 33144, Note_on_c, 0, 72, 31
2, 33160, Note_on_c, 0, 72, 0
2, 33172, Note_on_c, 0, 60, 0
2, 33173, Note_on_c, 0, 63, 29
2, 33184, Control_c, 0, 64, 0
2, 33187, Note_on_c, 0, 57, 17
2, 33193, Note_on_c, 0, 79, 62
2, 33210, Note_on_c, 0, 63, 0
2, 33213, Note_on_c, 0, 75, 46
2, 33214, Note_on_c, 0, 79, 0
2, 33228, Control_c, 0, 64, 127
2, 33229, Note_on_c, 0, 72, 44
2, 33234, Note_on_c, 0, 75, 0
2, 33242, Note_on_c, 0, 57, 0
2, 33244, Note_on_c, 0, 72, 0
2, 33248, Note_on_c, 0, 69, 57
2, 33254, Note_on_c, 0, 69, 0
2, 33256, Note_on_c, 0, 53, 0
2, 33270, Note_on_c, 0, 68, 42
2, 33272, Control_c, 0, 64, 0
2, 33283, Note_on_c, 0, 68, 0
2, 33285, Control_c, 0, 64, 127
2, 33302, Note_on_c, 0, 66, 36
2, 33318, Note_on_c, 0, 66, 0
2, 33324, Note_on_c, 0, 65, 39
2, 33336, Note_on_c, 0, 46, 29
2, 33336, Note_on_c, 0, 53, 30
2, 33337, Control_c, 0, 64, 0
2, 33360, Note_on_c, 0, 65, 0
2, 33362, Note_on_c, 0, 62, 40
2, 33375, Control_c, 0, 64, 127
2, 33387, Note_on_c, 0, 53, 0
2, 33392, Note_on_c, 0, 46, 0
2, 33395, Note_on_c, 0, 62, 0
2, 33502, Note_on_c, 0, 85, 70
2, 33504, Note_on_c, 0, 73, 56
2, 33504, Note_on_c, 0, 65, 32
2, 33505, Note_on_c, 0, 62, 25
2, 33507, Note_on_c, 0, 60, 30
2, 33547, Note_on_c, 0, 65, 0
2, 33569, Note_on_c, 0, 73, 0
2, 33573, Note_on_c, 0, 85, 0
2, 33595, Note_on_c, 0, 53, 62
2, 33598, Note_on_c, 0, 74, 58
2, 33599, Note_on_c, 0, 86, 46
2, 33608, Note_on_c, 0, 74, 0
2, 33612, Note_on_c, 0, 86, 0
2, 33624, Note_on_c, 0, 60, 0
2, 33626, Note_on_c, 0, 62, 0
2, 33646, Control_c, 0, 64, 0
2, 33658, Note_on_c, 0, 62, 36
2, 33659, Note_on_c, 0, 60, 33
2, 33659, Note_on_c, 0, 89, 73
2, 33660, Note_on_c, 0, 65, 46
2, 33662, Note_on_c, 0, 77, 44
2, 33669, Control_c, 0, 64, 127
2, 33699, Note_on_c, 0, 65, 0
2, 33727, Note_on_c, 0, 89, 0
2, 33736, Note_on_c, 0, 53, 0
2, 33743, Note_on_c, 0, 77, 0
2, 33821, Note_on_c, 0, 53, 32
2, 33864, Note_on_c, 0, 62, 0
2, 33875, Note_on_c, 0, 53, 0
2, 33875, Note_on_c, 0, 60, 0
2, 33912, Note_on_c, 0, 65, 36
2, 33928, Note_on_c, 0, 65, 0
2, 33980, Note_on_c, 0, 72, 48
2, 33981, Note_on_c, 0, 69, 45
2, 33982, Note_on_c, 0, 66, 25
2, 33983, Control_c, 0, 64, 0
2, 33985, Note_on_c, 0, 61, 35
2, 33990, Note_on_c, 0, 55, 22
2, 34000, Note_on_c, 0, 69, 0
2, 34001, Note_on_c, 0, 72, 0
2, 34002, Control_c, 0, 64, 127
2, 34034, Note_on_c, 0, 77, 53
2, 34035, Note_on_c, 0, 84, 63
2, 34071, Note_on_c, 0, 66, 0
2, 34072, Note_on_c, 0, 55, 0
2, 34072, Note_on_c, 0, 84, 0
2, 34077, Note_on_c, 0, 61, 0
2, 34080, Note_on_c, 0, 81, 52
2, 34087, Note_on_c, 0, 72, 26
2, 34102, Note_on_c, 0, 77, 0
2, 34110, Note_on_c, 0, 72, 0
2, 34121, Note_on_c, 0, 81, 0
2, 34141, Note_on_c, 0, 77, 41
2, 34141, Note_on_c, 0, 72, 33
2, 34142, Note_on_c, 0, 55, 30
2, 34143, Note_on_c, 0, 61, 30
2, 34144, Note_on_c, 0, 60, 36
2, 34145, Note_on_c, 0, 65, 31
2, 34147, Control_c, 0, 64, 0
2, 34171, Control_c, 0, 64, 127
2, 34182, Note_on_c, 0, 65, 0
2, 34187, Note_on_c, 0, 77, 0
2, 34187, Note_on_c, 0, 60, 0
2, 34188, Note_on_c, 0, 61, 0
2, 34192, Note_on_c, 0, 55, 0
2, 34193, Note_on_c, 0, 72, 0
2, 34250, Note_on_c, 0, 39, 32
2, 34256, Note_on_c, 0, 39, 0
2, 34257, Note_on_c, 0, 46, 20
2, 34265, Note_on_c, 0, 46, 0
2, 34316, Note_on_c, 0, 72, 41
2, 34317, Note_on_c, 0, 61, 49
2, 34319, Note_on_c, 0, 65, 49
2, 34319, Note_on_c, 0, 57, 43
2, 34321, Note_on_c, 0, 69, 39
2, 34336, Control_c, 0, 64, 0
2, 34353, Control_c, 0, 64, 127
2, 34424, Note_on_c, 0, 61, 0
2, 34432, Note_on_c, 0, 57, 0
2, 34435, Note_on_c, 0, 72, 0
2, 34442, Note_on_c, 0, 65, 0
2, 34450, Note_on_c, 0, 69, 0
2, 34484, Note_on_c, 0, 70, 50
2, 34487, Note_on_c, 0, 61, 34
2, 34490, Note_on_c, 0, 65, 46
2, 34493, Note_on_c, 0, 55, 28
2, 34503, Control_c, 0, 64, 0
2, 34530, Control_c, 0, 64, 127
2, 34571, Note_on_c, 0, 55, 0
2, 34579, Note_on_c, 0, 61, 0
2, 34581, Note_on_c, 0, 65, 0
2, 34587, Note_on_c, 0, 70, 0
2, 34647, Note_on_c, 0, 68, 46
2, 34648, Note_on_c, 0, 59, 37
2, 34650, Note_on_c, 0, 64, 41
2, 34652, Note_on_c, 0, 54, 31
2, 34653, Note_on_c, 0, 50, 36
2, 34660, Control_c, 0, 64, 0
2, 34692, Control_c, 0, 64, 127
2, 34720, Note_on_c, 0, 59, 0
2, 34722, Note_on_c, 0, 50, 0
2, 34731, Note_on_c, 0, 64, 0
2, 34737, Note_on_c, 0, 54, 0
2, 34752, Note_on_c, 0, 68, 0
2, 34812, Note_on_c, 0, 63, 48
2, 34813, Note_on_c, 0, 69, 52
2, 34817, Note_on_c, 0, 59, 31
2, 34818, Note_on_c, 0, 49, 31
2, 34824, Control_c, 0, 64, 0
2, 34849, Control_c, 0, 64, 127
2, 34871, Note_on_c, 0, 63, 0
2, 34874, Note_on_c, 0, 69, 0
2, 34888, Note_on_c, 0, 59, 0
2, 34916, Note_on_c, 0, 49, 0
2, 34976, Note_on_c, 0, 74, 33
2, 34980, Note_on_c, 0, 70, 34
2, 34980, Note_on_c, 0, 62, 24
2, 34980, Note_on_c, 0, 58, 30
2, 34981, Note_on_c, 0, 67, 26
2, 34981, Control_c, 0, 64, 0
2, 34984, Note_on_c, 0, 48, 29
2, 34998, Note_on_c, 0, 58, 0
2, 35001, Note_on_c, 0, 48, 0
2, 35007, Control_c, 0, 64, 127
2, 35066, Note_on_c, 0, 67, 0
2, 35067, Note_on_c, 0, 74, 0
2, 35077, Note_on_c, 0, 62, 0
2, 35077, Note_on_c, 0, 70, 0
2, 35088, Note_on_c, 0, 24, 34
2, 35096, Note_on_c, 0, 24, 0
2, 35231, Note_on_c, 0, 68, 42
2, 35231, Note_on_c, 0, 64, 41
2, 35232, Note_on_c, 0, 76, 37
2, 35232, Note_on_c, 0, 73, 42
2, 35233, Note_on_c, 0, 58, 37
2, 35253, Note_on_c, 0, 64, 0
2, 35257, Note_on_c, 0, 68, 0
2, 35264, Note_on_c, 0, 76, 0
2, 35267, Note_on_c, 0, 73, 0
2, 35289, Note_on_c, 0, 58, 0
2, 35307, Note_on_c, 0, 67, 27
2, 35308, Note_on_c, 0, 77, 36
2, 35310, Note_on_c, 0, 62, 33
2, 35310, Note_on_c, 0, 72, 44
2, 35312, Note_on_c, 0, 57, 37
2, 35316, Control_c, 0, 64, 0
2, 35348, Control_c, 0, 64, 127
2, 35421, Note_on_c, 0, 67, 0
2, 35426, Note_on_c, 0, 72, 0
2, 35429, Note_on_c, 0, 62, 0
2, 35473, Note_on_c, 0, 62, 42
2, 35473, Note_on_c, 0, 72, 45
2, 35474, Note_on_c, 0, 67, 28
2, 35487, Note_on_c, 0, 62, 0
2, 35494, Note_on_c, 0, 77, 0
2, 35496, Note_on_c, 0, 57, 0
2, 35499, Note_on_c, 0, 72, 0
2, 35512, Note_on_c, 0, 67, 0
2, 35643, Note_on_c, 0, 55, 47
2, 35644, Note_on_c, 0, 65, 38
2, 35645, Note_on_c, 0, 60, 55
2, 35650, Note_on_c, 0, 50, 33
2, 35659, Control_c, 0, 64, 0
2, 35690, Control_c, 0, 64, 127
2, 35740, Note_on_c, 0, 55, 0
2, 35745, Note_on_c, 0, 60, 0
2, 35746, Note_on_c, 0, 50, 0
2, 35792, Note_on_c, 0, 65, 0
2, 35810, Note_on_c, 0, 65, 18
2, 35813, Note_on_c, 0, 61, 34
2, 35814, Note_on_c, 0, 56, 25
2, 35814, Note_on_c, 0, 37, 28
2, 35815, Note_on_c, 0, 49, 25
2, 35819, Note_on_c, 0, 59, 34
2, 35820, Control_c, 0, 64, 0
2, 35850, Control_c, 0, 64, 127
2, 35896, Note_on_c, 0, 49, 0
2, 35908, Note_on_c, 0, 59, 0
2, 35920, Note_on_c, 0, 37, 0
2, 35928, Note_on_c, 0, 56, 0
2, 35930, Note_on_c, 0, 43, 19
2, 35937, Note_on_c, 0, 65, 0
2, 35938, Note_on_c, 0, 61, 0
2, 35966, Note_on_c, 0, 43, 0
2, 35982, Control_c, 0, 64, 0
2, 35984, Note_on_c, 0, 63, 36
2, 35984, Note_on_c, 0, 36, 35
2, 35988, Note_on_c, 0, 55, 33
2, 35991, Note_on_c, 0, 58, 25
2, 35995, Note_on_c, 0, 55, 0
2, 35998, Note_on_c, 0, 58, 0
2, 36000, Control_c, 0, 64, 127
2, 36005, Note_on_c, 0, 63, 0
2, 36011, Note_on_c, 0, 36, 0
2, 36103, Note_on_c, 0, 89, 94
2, 36120, Note_on_c, 0, 89, 0
2, 36159, Note_on_c, 0, 67, 33
2, 36160, Note_on_c, 0, 62, 32
2, 36160, Note_on_c, 0, 77, 37
2, 36160, Note_on_c, 0, 63, 27
2, 36161, Control_c, 0, 64, 0
2, 36161, Note_on_c, 0, 58, 23
2, 36165, Note_on_c, 0, 67, 0
2, 36167, Note_on_c, 0, 62, 0
2, 36169, Note_on_c, 0, 63, 0
2, 36175, Note_on_c, 0, 77, 0
2, 36175, Note_on_c, 0, 58, 0
2, 36217, Note_on_c, 0, 77, 36
2, 36226, Note_on_c, 0, 77, 0
2, 36266, Control_c, 0, 64, 127
2, 36272, Note_on_c, 0, 89, 73
2, 36286, Note_on_c, 0, 89, 0
2, 36315, Control_c, 0, 64, 0
2, 36328, Note_on_c, 0, 48, 39
2, 36332, Note_on_c, 0, 57, 30
2, 36332, Note_on_c, 0, 77, 40
2, 36338, Note_on_c, 0, 41, 20
2, 36343, Note_on_c, 0, 77, 0
2, 36349, Note_on_c, 0, 57, 0
2, 36353, Note_on_c, 0, 48, 0
2, 36357, Note_on_c, 0, 41, 0
2, 36390, Note_on_c, 0, 77, 31
2, 36395, Control_c, 0, 64, 127
2, 36398, Note_on_c, 0, 77, 0
2, 36442, Note_on_c, 0, 89, 73
2, 36490, Note_on_c, 0, 89, 0
2, 36496, Note_on_c, 0, 63, 26
2, 36496, Note_on_c, 0, 79, 35
2, 36498, Note_on_c, 0, 62, 31
2, 36500, Note_on_c, 0, 67, 24
2, 36501, Note_on_c, 0, 57, 30
2, 36501, Control_c, 0, 64, 0
2, 36526, Note_on_c, 0, 79, 0
2, 36529, Control_c, 0, 64, 127
2, 36556, Note_on_c, 0, 62, 0
2, 36556, Note_on_c, 0, 79, 36
2, 36562, Note_on_c, 0, 79, 0
2, 36566, Note_on_c, 0, 67, 0
2, 36572, Note_on_c, 0, 63, 0
2, 36612, Note_on_c, 0, 89, 92
2, 36656, Note_on_c, 0, 57, 0
2, 36672, Note_on_c, 0, 81, 36
2, 36672, Note_on_c, 0, 62, 27
2, 36672, Note_on_c, 0, 65, 27
2, 36674, Note_on_c, 0, 60, 29
2, 36675, Control_c, 0, 64, 0
2, 36696, Note_on_c, 0, 65, 0
2, 36702, Control_c, 0, 64, 127
2, 36705, Note_on_c, 0, 81, 0
2, 36730, Note_on_c, 0, 89, 0
2, 36731, Note_on_c, 0, 81, 41
2, 36782, Note_on_c, 0, 93, 89
2, 36818, Note_on_c, 0, 81, 0
2, 36837, Note_on_c, 0, 53, 27
2, 36840, Note_on_c, 0, 81, 47
2, 36858, Note_on_c, 0, 62, 0
2, 36863, Note_on_c, 0, 60, 0
2, 36877, Note_on_c, 0, 81, 0
2, 36879, Note_on_c, 0, 53, 0
2, 36890, Note_on_c, 0, 93, 0
2, 36901, Note_on_c, 0, 81, 47
2, 36916, Note_on_c, 0, 81, 0
2, 36954, Note_on_c, 0, 94, 73
2, 37007, Note_on_c, 0, 43, 43
2, 37009, Note_on_c, 0, 53, 42
2, 37010, Control_c, 0, 64, 0
2, 37011, Note_on_c, 0, 82, 40
2, 37036, Control_c, 0, 64, 127
2, 37044, Note_on_c, 0, 82, 0
2, 37066, Note_on_c, 0, 43, 0
2, 37070, Note_on_c, 0, 82, 37
2, 37074, Note_on_c, 0, 53, 0
2, 37074, Note_on_c, 0, 94, 0
2, 37102, Note_on_c, 0, 82, 0
2, 37125, Note_on_c, 0, 95, 57
2, 37167, Note_on_c, 0, 95, 0
2, 37180, Note_on_c, 0, 64, 24
2, 37181, Note_on_c, 0, 53, 24
2, 37181, Note_on_c, 0, 59, 35
2, 37183, Note_on_c, 0, 83, 43
2, 37204, Note_on_c, 0, 83, 0
2, 37208, Note_on_c, 0, 64, 0
2, 37213, Note_on_c, 0, 59, 0
2, 37227, Note_on_c, 0, 53, 0
2, 37240, Note_on_c, 0, 83, 42
2, 37257, Note_on_c, 0, 83, 0
2, 37294, Note_on_c, 0, 96, 66
2, 37331, Note_on_c, 0, 96, 0
2, 37352, Note_on_c, 0, 94, 52
2, 37353, Note_on_c, 0, 48, 38
2, 37353, Note_on_c, 0, 58, 25
2, 37357, Note_on_c, 0, 55, 42
2, 37363, Control_c, 0, 64, 0
2, 37377, Control_c, 0, 64, 127
2, 37392, Note_on_c, 0, 55, 0
2, 37394, Note_on_c, 0, 48, 0
2, 37397, Note_on_c, 0, 94, 0
2, 37410, Note_on_c, 0, 58, 0
2, 37533, Note_on_c, 0, 58, 30
2, 37534, Note_on_c, 0, 67, 34
2, 37534, Note_on_c, 0, 62, 31
2, 37535, Note_on_c, 0, 63, 35
2, 37600, Note_on_c, 0, 82, 88
2, 37616, Note_on_c, 0, 67, 0
2, 37618, Note_on_c, 0, 62, 0
2, 37632, Note_on_c, 0, 58, 0
2, 37633, Note_on_c, 0, 63, 0
2, 37650, Note_on_c, 0, 81, 53
2, 37655, Note_on_c, 0, 82, 0
2, 37673, Note_on_c, 0, 81, 0
2, 37673, Note_on_c, 0, 80, 37
2, 37692, Note_on_c, 0, 80, 0
2, 37695, Note_on_c, 0, 79, 42
2, 37709, Note_on_c, 0, 79, 0
2, 37718, Note_on_c, 0, 63, 35
2, 37719, Note_on_c, 0, 87, 71
2, 37720, Note_on_c, 0, 67, 22
2, 37720, Note_on_c, 0, 57, 34
2, 37725, Control_c, 0, 64, 0
2, 37740, Note_on_c, 0, 67, 0
2, 37743, Note_on_c, 0, 87, 0
2, 37744, Control_c, 0, 64, 127
2, 37745, Note_on_c, 0, 63, 0
2, 37751, Note_on_c, 0, 57, 0
2, 37809, Note_on_c, 0, 41, 38
2, 37889, Note_on_c, 0, 51, 30
2, 37889, Note_on_c, 0, 60, 47
2, 37893, Note_on_c, 0, 57, 22
2, 37894, Note_on_c, 0, 55, 19
2, 37905, Note_on_c, 0, 55, 0
2, 37905, Note_on_c, 0, 57, 0
2, 37911, Note_on_c, 0, 60, 0
2, 37981, Note_on_c, 0, 41, 0
2, 37982, Note_on_c, 0, 79, 66
2, 37983, Note_on_c, 0, 77, 74
2, 37987, Note_on_c, 0, 51, 0
2, 38001, Note_on_c, 0, 79, 0
2, 38010, Note_on_c, 0, 77, 0
2, 38061, Note_on_c, 0, 74, 64
2, 38064, Note_on_c, 0, 46, 45
2, 38071, Control_c, 0, 64, 0
2, 38101, Control_c, 0, 64, 127
2, 38138, Note_on_c, 0, 74, 0
2, 38143, Note_on_c, 0, 69, 30
2, 38145, Note_on_c, 0, 62, 34
2, 38146, Note_on_c, 0, 65, 44
2, 38149, Note_on_c, 0, 46, 0
2, 38150, Note_on_c, 0, 57, 29
2, 38156, Note_on_c, 0, 62, 0
2, 38162, Note_on_c, 0, 65, 0
2, 38165, Note_on_c, 0, 57, 0
2, 38169, Note_on_c, 0, 69, 0
2, 38313, Note_on_c, 0, 79, 66
2, 38315, Note_on_c, 0, 69, 58
2, 38315, Note_on_c, 0, 74, 60
2, 38316, Note_on_c, 0, 63, 45
2, 38354, Note_on_c, 0, 79, 0
2, 38355, Note_on_c, 0, 74, 0
2, 38366, Note_on_c, 0, 69, 0
2, 38388, Note_on_c, 0, 63, 0
2, 38392, Note_on_c, 0, 77, 47
2, 38393, Note_on_c, 0, 62, 39
2, 38395, Note_on_c, 0, 72, 46
2, 38395, Control_c, 0, 64, 0
2, 38395, Note_on_c, 0, 67, 26
2, 38416, Control_c, 0, 64, 127
2, 38422, Note_on_c, 0, 77, 0
2, 38424, Note_on_c, 0, 72, 0
2, 38430, Note_on_c, 0, 67, 0
2, 38457, Note_on_c, 0, 62, 0
2, 38474, Note_on_c, 0, 74, 36
2, 38475, Note_on_c, 0, 64, 40
2, 38476, Note_on_c, 0, 69, 49
2, 38480, Note_on_c, 0, 58, 34
2, 38484, Control_c, 0, 64, 0
2, 38494, Control_c, 0, 64, 127
2, 38508, Note_on_c, 0, 69, 0
2, 38510, Note_on_c, 0, 74, 0
2, 38524, Note_on_c, 0, 64, 0
2, 38545, Note_on_c, 0, 58, 0
2, 38554, Note_on_c, 0, 72, 50
2, 38557, Note_on_c, 0, 62, 35
2, 38557, Note_on_c, 0, 67, 37
2, 38560, Note_on_c, 0, 57, 26
2, 38560, Control_c, 0, 64, 0
2, 38570, Note_on_c, 0, 72, 0
2, 38571, Note_on_c, 0, 67, 0
2, 38571, Control_c, 0, 64, 127
2, 38581, Note_on_c, 0, 62, 0
2, 38613, Note_on_c, 0, 57, 0
2, 38631, Note_on_c, 0, 60, 54
2, 38632, Note_on_c, 0, 69, 47
2, 38636, Note_on_c, 0, 65, 42
2, 38636, Note_on_c, 0, 53, 30
2, 38654, Note_on_c, 0, 60, 0
2, 38658, Note_on_c, 0, 69, 0
2, 38666, Note_on_c, 0, 65, 0
2, 38685, Note_on_c, 0, 53, 0
2, 38711, Note_on_c, 0, 61, 45
2, 38712, Note_on_c, 0, 56, 32
2, 38712, Note_on_c, 0, 65, 49
2, 38713, Note_on_c, 0, 46, 34
2, 38715, Control_c, 0, 64, 0
2, 38739, Control_c, 0, 64, 127
2, 38740, Note_on_c, 0, 56, 0
2, 38745, Note_on_c, 0, 65, 0
2, 38746, Note_on_c, 0, 61, 0
2, 38774, Note_on_c, 0, 46, 0
2, 38817, Note_on_c, 0, 77, 58
2, 38817, Note_on_c, 0, 89, 73
2, 38843, Note_on_c, 0, 77, 0
2, 38857, Note_on_c, 0, 89, 0
2, 38882, Note_on_c, 0, 89, 68
2, 38884, Note_on_c, 0, 61, 34
2, 38884, Note_on_c, 0, 65, 33
2, 38885, Note_on_c, 0, 77, 54
2, 38887, Note_on_c, 0, 56, 30
2, 38889, Note_on_c, 0, 60, 29
2, 38890, Control_c, 0, 64, 0
2, 38900, Note_on_c, 0, 77, 0
2, 38902, Note_on_c, 0, 89, 0
2, 38929, Control_c, 0, 64, 127
2, 38939, Note_on_c, 0, 89, 68
2, 38945, Note_on_c, 0, 77, 25
2, 38955, Note_on_c, 0, 77, 0
2, 38960, Note_on_c, 0, 89, 0
2, 38967, Note_on_c, 0, 65, 0
2, 38975, Note_on_c, 0, 60, 0
2, 38982, Note_on_c, 0, 61, 0
2, 38993, Note_on_c, 0, 88, 55
2, 38995, Note_on_c, 0, 56, 0
2, 39019, Note_on_c, 0, 88, 0
2, 39051, Note_on_c, 0, 89, 58
2, 39054, Note_on_c, 0, 66, 27
2, 39055, Note_on_c, 0, 77, 28
2, 39056, Note_on_c, 0, 61, 30
2, 39057, Control_c, 0, 64, 0
2, 39058, Note_on_c, 0, 55, 32
2, 39073, Note_on_c, 0, 66, 0
2, 39075, Note_on_c, 0, 89, 0
2, 39076, Note_on_c, 0, 61, 0
2, 39076, Note_on_c, 0, 55, 0
2, 39077, Note_on_c, 0, 77, 0
2, 39104, Control_c, 0, 64, 127
2, 39212, Note_on_c, 0, 27, 37
2, 39215, Note_on_c, 0, 39, 23
2, 39233, Note_on_c, 0, 27, 0
2, 39237, Note_on_c, 0, 39, 0
2, 39329, Note_on_c, 0, 75, 51
2, 39352, Note_on_c, 0, 75, 0
2, 39386, Note_on_c, 0, 75, 53
2, 39390, Note_on_c, 0, 44, 36
2, 39391, Note_on_c, 0, 67, 27
2, 39394, Control_c, 0, 64, 0
2, 39423, Control_c, 0, 64, 127
2, 39456, Note_on_c, 0, 75, 0
2, 39460, Note_on_c, 0, 67, 0
2, 39564, Note_on_c, 0, 67, 32
2, 39564, Note_on_c, 0, 72, 34
2, 39567, Note_on_c, 0, 60, 37
2, 39567, Note_on_c, 0, 55, 34
2, 39595, Note_on_c, 0, 55, 0
2, 39604, Note_on_c, 0, 72, 0
2, 39609, Note_on_c, 0, 44, 0
2, 39611, Note_on_c, 0, 67, 0
2, 39623, Note_on_c, 0, 60, 0
2, 39734, Note_on_c, 0, 70, 42
2, 39737, Note_on_c, 0, 56, 25
2, 39737, Note_on_c, 0, 41, 35
2, 39737, Note_on_c, 0, 63, 39
2, 39742, Note_on_c, 0, 48, 22
2, 39745, Note_on_c, 0, 53, 19
2, 39755, Control_c, 0, 64, 0
2, 39792, Control_c, 0, 64, 127
2, 39821, Note_on_c, 0, 53, 0
2, 39827, Note_on_c, 0, 56, 0
2, 39847, Note_on_c, 0, 63, 0
2, 39849, Note_on_c, 0, 70, 0
2, 39907, Note_on_c, 0, 68, 44
2, 39907, Note_on_c, 0, 56, 33
2, 39910, Note_on_c, 0, 63, 38
2, 39914, Note_on_c, 0, 53, 19
2, 39940, Note_on_c, 0, 56, 0
2, 39948, Note_on_c, 0, 63, 0
2, 39952, Note_on_c, 0, 68, 0
2, 39968, Note_on_c, 0, 53, 0
2, 39984, Note_on_c, 0, 41, 0
2, 39987, Note_on_c, 0, 48, 0
2, 40023, Note_on_c, 0, 73, 57
2, 40047, Note_on_c, 0, 73, 0
2, 40081, Note_on_c, 0, 72, 44
2, 40083, Note_on_c, 0, 65, 38
2, 40086, Note_on_c, 0, 50, 43
2, 40089, Note_on_c, 0, 57, 32
2, 40098, Control_c, 0, 64, 0
2, 40132, Control_c, 0, 64, 127
2, 40246, Note_on_c, 0, 65, 0
2, 40276, Note_on_c, 0, 72, 0
2, 40357, Note_on_c, 0, 69, 28
2, 40363, Note_on_c, 0, 57, 0
2, 40365, Note_on_c, 0, 50, 0
2, 40379, Note_on_c, 0, 69, 0
2, 40392, Note_on_c, 0, 72, 51
2, 40417, Note_on_c, 0, 72, 0
2, 40437, Note_on_c, 0, 74, 61
2, 40441, Note_on_c, 0, 64, 24
2, 40442, Note_on_c, 0, 59, 36
2, 40444, Note_on_c, 0, 53, 28
2, 40459, Control_c, 0, 64, 0
2, 40512, Control_c, 0, 64, 127
2, 40655, Note_on_c, 0, 64, 0
2, 40665, Note_on_c, 0, 53, 0
2, 40681, Note_on_c, 0, 59, 0
2, 40722, Note_on_c, 0, 71, 34
2, 40723, Note_on_c, 0, 74, 0
2, 40744, Note_on_c, 0, 71, 0
2, 40744, Note_on_c, 0, 67, 36
2, 40773, Note_on_c, 0, 67, 0
2, 40781, Note_on_c, 0, 76, 68
2, 40783, Note_on_c, 0, 62, 31
2, 40785, Note_on_c, 0, 55, 44
2, 40793, Control_c, 0, 64, 0
2, 40818, Control_c, 0, 64, 127
2, 40855, Note_on_c, 0, 62, 0
2, 40873, Note_on_c, 0, 76, 0
2, 40953, Note_on_c, 0, 70, 37
2, 40956, Note_on_c, 0, 62, 28
2, 40956, Note_on_c, 0, 65, 28
2, 40958, Note_on_c, 0, 67, 30
2, 40975, Note_on_c, 0, 62, 0
2, 40981, Note_on_c, 0, 67, 0
2, 40988, Note_on_c, 0, 55, 0
2, 40994, Note_on_c, 0, 70, 0
2, 40999, Note_on_c, 0, 65, 0
2, 41123, Note_on_c, 0, 64, 33
2, 41126, Note_on_c, 0, 33, 34
2, 41127, Note_on_c, 0, 60, 40
2, 41127, Note_on_c, 0, 55, 30
2, 41127, Note_on_c, 0, 45, 26
2, 41142, Control_c, 0, 64, 0
2, 41173, Control_c, 0, 64, 127
2, 41205, Note_on_c, 0, 64, 0
2, 41207, Note_on_c, 0, 45, 0
2, 41211, Note_on_c, 0, 33, 0
2, 41211, Note_on_c, 0, 55, 0
2, 41216, Note_on_c, 0, 60, 0
2, 41296, Note_on_c, 0, 32, 37
2, 41297, Note_on_c, 0, 63, 34
2, 41299, Note_on_c, 0, 44, 25
2, 41301, Note_on_c, 0, 59, 40
2, 41302, Note_on_c, 0, 54, 25
2, 41314, Control_c, 0, 64, 0
2, 41343, Control_c, 0, 64, 127
2, 41379, Note_on_c, 0, 32, 0
2, 41380, Note_on_c, 0, 59, 0
2, 41382, Note_on_c, 0, 44, 0
2, 41394, Note_on_c, 0, 54, 0
2, 41444, Note_on_c, 0, 63, 0
2, 41479, Note_on_c, 0, 31, 35
2, 41480, Note_on_c, 0, 53, 34
2, 41481, Note_on_c, 0, 43, 22
2, 41482, Note_on_c, 0, 58, 33
2, 41482, Note_on_c, 0, 60, 34
2, 41487, Control_c, 0, 64, 0
2, 41503, Note_on_c, 0, 53, 0
2, 41508, Note_on_c, 0, 60, 0
2, 41511, Control_c, 0, 64, 127
2, 41512, Note_on_c, 0, 58, 0
2, 41533, Note_on_c, 0, 31, 0
2, 41546, Note_on_c, 0, 43, 0
2, 41601, Note_on_c, 0, 84, 96
2, 41658, Note_on_c, 0, 57, 32
2, 41659, Note_on_c, 0, 62, 28
2, 41663, Note_on_c, 0, 58, 20
2, 41732, Note_on_c, 0, 84, 0
2, 41734, Note_on_c, 0, 62, 0
2, 41735, Note_on_c, 0, 72, 60
2, 41736, Note_on_c, 0, 57, 0
2, 41737, Note_on_c, 0, 58, 0
2, 41753, Note_on_c, 0, 72, 0
2, 41794, Note_on_c, 0, 86, 90
2, 41839, Note_on_c, 0, 69, 45
2, 41841, Note_on_c, 0, 58, 32
2, 41841, Note_on_c, 0, 64, 37
2, 41848, Control_c, 0, 64, 0
2, 41872, Control_c, 0, 64, 127
2, 41883, Note_on_c, 0, 84, 74
2, 41889, Note_on_c, 0, 86, 0
2, 41903, Note_on_c, 0, 69, 0
2, 41905, Note_on_c, 0, 64, 0
2, 41928, Note_on_c, 0, 58, 0
2, 41943, Note_on_c, 0, 84, 0
2, 41950, Note_on_c, 0, 72, 54
2, 41999, Note_on_c, 0, 72, 0
2, 42010, Note_on_c, 0, 63, 31
2, 42014, Note_on_c, 0, 52, 37
2, 42015, Note_on_c, 0, 58, 31
2, 42017, Note_on_c, 0, 72, 42
2, 42041, Note_on_c, 0, 52, 0
2, 42041, Note_on_c, 0, 63, 0
2, 42046, Note_on_c, 0, 58, 0
2, 42099, Note_on_c, 0, 86, 80
2, 42142, Note_on_c, 0, 72, 0
2, 42159, Note_on_c, 0, 72, 68
2, 42163, Note_on_c, 0, 86, 0
2, 42187, Note_on_c, 0, 45, 42
2, 42191, Note_on_c, 0, 52, 32
2, 42192, Note_on_c, 0, 57, 33
2, 42198, Control_c, 0, 64, 0
2, 42225, Control_c, 0, 64, 127
2, 42236, Note_on_c, 0, 84, 74
2, 42255, Note_on_c, 0, 45, 0
2, 42260, Note_on_c, 0, 57, 0
2, 42261, Note_on_c, 0, 52, 0
2, 42267, Note_on_c, 0, 84, 0
2, 42300, Note_on_c, 0, 72, 0
2, 42304, Note_on_c, 0, 81, 67
2, 42361, Note_on_c, 0, 55, 33
2, 42363, Note_on_c, 0, 60, 28
2, 42364, Note_on_c, 0, 59, 27
2, 42367, Note_on_c, 0, 64, 26
2, 42435, Note_on_c, 0, 81, 0
2, 42436, Note_on_c, 0, 60, 0
2, 42437, Note_on_c, 0, 59, 0
2, 42438, Note_on_c, 0, 64, 0
2, 42450, Note_on_c, 0, 55, 0
2, 42540, Note_on_c, 0, 65, 31
2, 42541, Note_on_c, 0, 60, 28
2, 42542, Note_on_c, 0, 54, 42
2, 42542, Note_on_c, 0, 50, 27
2, 42546, Control_c, 0, 64, 0
2, 42567, Note_on_c, 0, 60, 0
2, 42567, Control_c, 0, 64, 127
2, 42576, Note_on_c, 0, 54, 0
2, 42579, Note_on_c, 0, 50, 0
2, 42642, Note_on_c, 0, 65, 0
2, 42650, Note_on_c, 0, 26, 49
2, 42791, Note_on_c, 0, 26, 0
2, 42926, Note_on_c, 0, 43, 36
2, 42926, Note_on_c, 0, 58, 34
2, 42930, Note_on_c, 0, 50, 32
2, 42932, Note_on_c, 0, 55, 29
2, 42937, Control_c, 0, 64, 0
2, 42958, Control_c, 0, 64, 127
2, 42967, Note_on_c, 0, 58, 0
2, 42985, Note_on_c, 0, 55, 0
2, 42989, Note_on_c, 0, 43, 0
2, 42990, Note_on_c, 0, 50, 0
2, 43043, Note_on_c, 0, 84, 89
2, 43049, Note_on_c, 0, 72, 77
2, 43087, Note_on_c, 0, 84, 0
2, 43088, Note_on_c, 0, 72, 0
2, 43110, Note_on_c, 0, 62, 34
2, 43110, Note_on_c, 0, 84, 85
2, 43111, Note_on_c, 0, 58, 32
2, 43113, Note_on_c, 0, 72, 62
2, 43116, Note_on_c, 0, 60, 29
2, 43154, Note_on_c, 0, 60, 0
2, 43173, Note_on_c, 0, 62, 0
2, 43176, Note_on_c, 0, 58, 0
2, 43200, Note_on_c, 0, 72, 0
2, 43208, Note_on_c, 0, 84, 0
2, 43224, Note_on_c, 0, 81, 50
2, 43239, Note_on_c, 0, 81, 0
2, 43282, Control_c, 0, 64, 0
2, 43282, Note_on_c, 0, 76, 35
2, 43284, Note_on_c, 0, 84, 38
2, 43285, Note_on_c, 0, 64, 34
2, 43286, Note_on_c, 0, 69, 27
2, 43286, Note_on_c, 0, 58, 26
2, 43287, Note_on_c, 0, 80, 36
2, 43295, Control_c, 0, 64, 127
2, 43335, Note_on_c, 0, 69, 0
2, 43338, Note_on_c, 0, 76, 0
2, 43341, Note_on_c, 0, 64, 0
2, 43347, Note_on_c, 0, 80, 0
2, 43350, Note_on_c, 0, 84, 0
2, 43351, Note_on_c, 0, 76, 29
2, 43358, Note_on_c, 0, 58, 0
2, 43366, Note_on_c, 0, 76, 0
2, 43373, Note_on_c, 0, 78, 27
2, 43389, Note_on_c, 0, 80, 33
2, 43392, Note_on_c, 0, 78, 0
2, 43400, Note_on_c, 0, 82, 52
2, 43403, Note_on_c, 0, 80, 0
2, 43406, Control_c, 0, 64, 0
2, 43410, Note_on_c, 0, 82, 0
2, 43420, Note_on_c, 0, 84, 68
2, 43428, Note_on_c, 0, 84, 0
2, 43443, Note_on_c, 0, 85, 67
2, 43448, Note_on_c, 0, 85, 0
2, 43468, Note_on_c, 0, 87, 56
2, 43473, Note_on_c, 0, 87, 0
2, 43487, Note_on_c, 0, 88, 54
2, 43493, Note_on_c, 0, 88, 0
2, 43516, Note_on_c, 0, 90, 57
2, 43522, Note_on_c, 0, 90, 0
2, 43550, Note_on_c, 0, 92, 71
2, 43561, Note_on_c, 0, 92, 0
2, 43570, Note_on_c, 0, 52, 20
2, 43579, Note_on_c, 0, 63, 1
2, 43586, Note_on_c, 0, 94, 57
2, 43591, Note_on_c, 0, 52, 0
2, 43595, Control_c, 0, 64, 127
2, 43601, Note_on_c, 0, 94, 0
2, 43605, Note_on_c, 0, 63, 0
2, 43618, Note_on_c, 0, 96, 62
2, 43630, Note_on_c, 0, 96, 0
2, 43656, Note_on_c, 0, 98, 70
2, 43659, Note_on_c, 0, 63, 36
2, 43663, Note_on_c, 0, 58, 32
2, 43671, Note_on_c, 0, 98, 0
2, 43672, Note_on_c, 0, 53, 18
2, 43675, Control_c, 0, 64, 0
2, 43695, Note_on_c, 0, 99, 56
2, 43702, Control_c, 0, 64, 127
2, 43715, Note_on_c, 0, 99, 0
2, 43735, Note_on_c, 0, 101, 72
2, 43752, Note_on_c, 0, 63, 0
2, 43757, Note_on_c, 0, 101, 0
2, 43774, Note_on_c, 0, 58, 0
2, 43777, Note_on_c, 0, 98, 70
2, 43804, Note_on_c, 0, 98, 0
2, 43827, Note_on_c, 0, 63, 37
2, 43828, Note_on_c, 0, 99, 72
2, 43834, Note_on_c, 0, 58, 32
2, 43840, Control_c, 0, 64, 0
2, 43853, Control_c, 0, 64, 127
2, 43866, Note_on_c, 0, 99, 0
2, 43873, Note_on_c, 0, 96, 60
2, 43888, Note_on_c, 0, 58, 0
2, 43888, Note_on_c, 0, 63, 0
2, 43893, Note_on_c, 0, 96, 0
2, 43920, Note_on_c, 0, 98, 73
2, 43945, Note_on_c, 0, 98, 0
2, 43966, Note_on_c, 0, 96, 65
2, 43998, Note_on_c, 0, 96, 0
2, 44010, Note_on_c, 0, 94, 50
2, 44011, Note_on_c, 0, 57, 36
2, 44011, Note_on_c, 0, 63, 20
2, 44015, Control_c, 0, 64, 0
2, 44038, Control_c, 0, 64, 127
2, 44052, Note_on_c, 0, 53, 0
2, 44056, Note_on_c, 0, 94, 0
2, 44060, Note_on_c, 0, 96, 53
2, 44091, Note_on_c, 0, 96, 0
2, 44105, Note_on_c, 0, 93, 51
2, 44169, Note_on_c, 0, 93, 0
2, 44188, Note_on_c, 0, 91, 36
2, 44190, Note_on_c, 0, 53, 32
2, 44227, Note_on_c, 0, 91, 0
2, 44235, Note_on_c, 0, 93, 55
2, 44241, Note_on_c, 0, 63, 0
2, 44263, Note_on_c, 0, 57, 0
2, 44263, Note_on_c, 0, 93, 0
2, 44281, Note_on_c, 0, 89, 59
2, 44282, Note_on_c, 0, 53, 0
2, 44314, Note_on_c, 0, 89, 0
2, 44370, Note_on_c, 0, 65, 32
2, 44370, Control_c, 0, 64, 0
2, 44370, Note_on_c, 0, 62, 31
2, 44371, Note_on_c, 0, 55, 36
2, 44371, Note_on_c, 0, 60, 36
2, 44392, Control_c, 0, 64, 127
2, 44400, Note_on_c, 0, 65, 0
2, 44401, Note_on_c, 0, 62, 0
2, 44406, Note_on_c, 0, 60, 0
2, 44412, Note_on_c, 0, 55, 0
2, 44470, Note_on_c, 0, 46, 49
2, 44493, Note_on_c, 0, 46, 0
2, 44537, Note_on_c, 0, 46, 39
2, 44539, Note_on_c, 0, 73, 75
2, 44540, Note_on_c, 0, 61, 71
2, 44543, Note_on_c, 0, 55, 43
2, 44554, Control_c, 0, 64, 0
2, 44574, Control_c, 0, 64, 127
2, 44587, Note_on_c, 0, 55, 0
2, 44615, Note_on_c, 0, 61, 0
2, 44618, Note_on_c, 0, 73, 0
2, 44647, Note_on_c, 0, 74, 46
2, 44648, Note_on_c, 0, 46, 0
2, 44650, Note_on_c, 0, 62, 62
2, 44663, Note_on_c, 0, 62, 0
2, 44671, Note_on_c, 0, 74, 0
2, 44718, Note_on_c, 0, 77, 58
2, 44720, Note_on_c, 0, 62, 32
2, 44720, Note_on_c, 0, 65, 49
2, 44721, Note_on_c, 0, 74, 43
2, 44723, Note_on_c, 0, 60, 38
2, 44724, Note_on_c, 0, 72, 32
2, 44727, Control_c, 0, 64, 0
2, 44755, Control_c, 0, 64, 127
2, 44778, Note_on_c, 0, 62, 0
2, 44784, Note_on_c, 0, 60, 0
2, 44885, Note_on_c, 0, 65, 0
2, 44903, Note_on_c, 0, 72, 0
2, 44907, Note_on_c, 0, 74, 0
2, 44907, Note_on_c, 0, 77, 0
2, 45007, Note_on_c, 0, 69, 36
2, 45031, Note_on_c, 0, 69, 0
2, 45070, Note_on_c, 0, 51, 38
2, 45072, Note_on_c, 0, 72, 36
2, 45073, Note_on_c, 0, 61, 27
2, 45074, Note_on_c, 0, 69, 37
2, 45074, Note_on_c, 0, 65, 41
2, 45076, Note_on_c, 0, 60, 37
2, 45087, Control_c, 0, 64, 0
2, 45117, Control_c, 0, 64, 127
2, 45142, Note_on_c, 0, 60, 0
2, 45170, Note_on_c, 0, 59, 36
2, 45187, Note_on_c, 0, 59, 0
2, 45192, Note_on_c, 0, 58, 34
2, 45209, Note_on_c, 0, 58, 0
2, 45210, Note_on_c, 0, 57, 37
2, 45231, Note_on_c, 0, 57, 0
2, 45233, Note_on_c, 0, 56, 36
2, 45254, Note_on_c, 0, 56, 0
2, 45258, Note_on_c, 0, 55, 44
2, 45262, Control_c, 0, 64, 0
2, 45297, Control_c, 0, 64, 127
2, 45316, Note_on_c, 0, 55, 0
2, 45321, Note_on_c, 0, 51, 0
2, 45330, Note_on_c, 0, 72, 0
2, 45332, Note_on_c, 0, 69, 0
2, 45332, Note_on_c, 0, 65, 0
2, 45342, Note_on_c, 0, 61, 0
2, 45428, Note_on_c, 0, 70, 27
2, 45429, Note_on_c, 0, 51, 30
2, 45430, Note_on_c, 0, 61, 35
2, 45433, Note_on_c, 0, 55, 29
2, 45518, Note_on_c, 0, 61, 0
2, 45522, Note_on_c, 0, 55, 0
2, 45552, Note_on_c, 0, 51, 0
2, 45619, Note_on_c, 0, 55, 30
2, 45620, Note_on_c, 0, 61, 39
2, 45621, Note_on_c, 0, 39, 25
2, 45622, Note_on_c, 0, 51, 21
2, 45637, Note_on_c, 0, 55, 0
2, 45649, Note_on_c, 0, 61, 0
2, 45654, Note_on_c, 0, 70, 0
2, 45671, Note_on_c, 0, 39, 0
2, 45682, Note_on_c, 0, 51, 0
2, 45727, Note_on_c, 0, 65, 66
2, 45752, Note_on_c, 0, 65, 0
2, 45870, Note_on_c, 0, 68, 68
2, 45872, Note_on_c, 0, 59, 51
2, 45873, Note_on_c, 0, 64, 54
2, 45874, Note_on_c, 0, 50, 47
2, 45878, Note_on_c, 0, 57, 37
2, 45882, Control_c, 0, 64, 0
2, 45902, Control_c, 0, 64, 127
2, 45920, Note_on_c, 0, 57, 0
2, 45925, Note_on_c, 0, 59, 0
2, 45926, Note_on_c, 0, 50, 0
2, 45931, Note_on_c, 0, 64, 0
2, 45944, Note_on_c, 0, 68, 0
2, 45962, Note_on_c, 0, 65, 57
2, 45964, Note_on_c, 0, 59, 34
2, 45970, Note_on_c, 0, 69, 66
2, 45974, Note_on_c, 0, 49, 33
2, 45977, Control_c, 0, 64, 0
2, 46000, Control_c, 0, 64, 127
2, 46009, Note_on_c, 0, 65, 0
2, 46016, Note_on_c, 0, 69, 0
2, 46033, Note_on_c, 0, 59, 0
2, 46065, Note_on_c, 0, 49, 0
2, 46156, Note_on_c, 0, 74, 33
2, 46156, Note_on_c, 0, 70, 33
2, 46158, Note_on_c, 0, 65, 41
2, 46159, Note_on_c, 0, 62, 34
2, 46161, Note_on_c, 0, 48, 34
2, 46161, Note_on_c, 0, 58, 26
2, 46161, Control_c, 0, 64, 0
2, 46185, Control_c, 0, 64, 127
2, 46207, Note_on_c, 0, 48, 0
2, 46210, Note_on_c, 0, 62, 0
2, 46210, Note_on_c, 0, 65, 0
2, 46224, Note_on_c, 0, 58, 0
2, 46225, Note_on_c, 0, 74, 0
2, 46229, Note_on_c, 0, 70, 0
2, 46330, Note_on_c, 0, 68, 34
2, 46333, Note_on_c, 0, 76, 25
2, 46333, Note_on_c, 0, 64, 32
2, 46334, Note_on_c, 0, 72, 45
2, 46335, Note_on_c, 0, 58, 35
2, 46338, Control_c, 0, 64, 0
2, 46356, Control_c, 0, 64, 127
2, 46365, Note_on_c, 0, 64, 0
2, 46368, Note_on_c, 0, 72, 0
2, 46368, Note_on_c, 0, 68, 0
2, 46376, Note_on_c, 0, 76, 0
2, 46396, Note_on_c, 0, 58, 0
2, 46435, Note_on_c, 0, 77, 41
2, 46438, Note_on_c, 0, 67, 32
2, 46441, Note_on_c, 0, 57, 31
2, 46441, Note_on_c, 0, 62, 26
2, 46442, Note_on_c, 0, 72, 31
2, 46450, Control_c, 0, 64, 0
2, 46484, Control_c, 0, 64, 127
2, 46596, Note_on_c, 0, 67, 0
2, 46608, Note_on_c, 0, 72, 0
2, 46624, Note_on_c, 0, 57, 0
2, 46626, Note_on_c, 0, 77, 0
2, 46631, Note_on_c, 0, 62, 0
2, 46939, Note_on_c, 0, 90, 50
2, 46941, Note_on_c, 0, 75, 43
2, 46943, Note_on_c, 0, 81, 34
2, 46944, Note_on_c, 0, 86, 39
2, 46944, Note_on_c, 0, 93, 47
2, 46944, Note_on_c, 0, 69, 44
2, 46965, Note_on_c, 0, 69, 0
2, 46969, Note_on_c, 0, 75, 0
2, 46970, Note_on_c, 0, 86, 0
2, 46970, Note_on_c, 0, 81, 0
2, 46976, Note_on_c, 0, 93, 0
2, 46986, Note_on_c, 0, 90, 0
2, 47042, Note_on_c, 0, 74, 53
2, 47045, Note_on_c, 0, 94, 65
2, 47046, Note_on_c, 0, 89, 50
2, 47046, Note_on_c, 0, 79, 50
2, 47047, Note_on_c, 0, 84, 56
2, 47062, Control_c, 0, 64, 0
2, 47078, Control_c, 0, 64, 127
2, 47104, Note_on_c, 0, 79, 0
2, 47112, Note_on_c, 0, 89, 0
2, 47115, Note_on_c, 0, 74, 0
2, 47117, Note_on_c, 0, 94, 0
2, 47123, Note_on_c, 0, 84, 0
2, 47255, Note_on_c, 0, 46, 21
2, 47256, Note_on_c, 0, 34, 28
2, 47305, Note_on_c, 0, 34, 0
2, 47307, Note_on_c, 0, 46, 0
2, 47352, Note_on_c, 0, 34, 42
2, 47352, Note_on_c, 0, 46, 33
2, 47373, Note_on_c, 0, 46, 0
2, 47374, Note_on_c, 0, 34, 0
2, 47407, Control_c, 0, 64, 0
2, 47485, Control_c, 0, 64, 127
2, 47541, Control_c, 0, 64, 0
2, 47546, Note_on_c, 0, 73, 32
2, 47547, Note_on_c, 0, 81, 38
2, 47548, Note_on_c, 0, 69, 35
2, 47548, Note_on_c, 0, 58, 42
2, 47550, Note_on_c, 0, 76, 32
2, 47551, Note_on_c, 0, 64, 26
2, 47568, Control_c, 0, 64, 127
2, 47576, Note_on_c, 0, 76, 0
2, 47576, Note_on_c, 0, 81, 0
2, 47583, Note_on_c, 0, 73, 0
2, 47583, Note_on_c, 0, 69, 0
2, 47583, Note_on_c, 0, 64, 0
2, 47602, Note_on_c, 0, 58, 0
2, 47642, Note_on_c, 0, 77, 34
2, 47644, Note_on_c, 0, 67, 27
2, 47647, Note_on_c, 0, 62, 27
2, 47648, Note_on_c, 0, 72, 39
2, 47648, Note_on_c, 0, 57, 36
2, 47657, Control_c, 0, 64, 0
2, 47686, Control_c, 0, 64, 127
2, 47719, Note_on_c, 0, 62, 0
2, 47726, Note_on_c, 0, 57, 0
2, 47940, Note_on_c, 0, 41, 41
2, 47944, Note_on_c, 0, 29, 29
2, 48010, Note_on_c, 0, 67, 0
2, 48032, Note_on_c, 0, 72, 0
2, 48042, Note_on_c, 0, 77, 0
2, 48045, Note_on_c, 0, 29, 0
2, 48107, Note_on_c, 0, 41, 0
2, 48119, Note_on_c, 0, 29, 25
2, 48124, Note_on_c, 0, 29, 0
2, 48291, Note_on_c, 0, 63, 62
2, 48291, Note_on_c, 0, 78, 65
2, 48292, Note_on_c, 0, 74, 69
2, 48292, Note_on_c, 0, 86, 75
2, 48292, Note_on_c, 0, 81, 69
2, 48294, Note_on_c, 0, 57, 60
2, 48298, Control_c, 0, 64, 0
2, 48308, Control_c, 0, 64, 127
2, 48316, Note_on_c, 0, 57, 0
2, 48318, Note_on_c, 0, 74, 0
2, 48320, Note_on_c, 0, 81, 0
2, 48321, Note_on_c, 0, 86, 0
2, 48325, Note_on_c, 0, 63, 0
2, 48329, Note_on_c, 0, 78, 0
2, 48354, Note_on_c, 0, 67, 47
2, 48355, Note_on_c, 0, 82, 73
2, 48358, Note_on_c, 0, 72, 52
2, 48358, Note_on_c, 0, 62, 54
2, 48358, Note_on_c, 0, 77, 44
2, 48365, Note_on_c, 0, 77, 0
2, 48366, Note_on_c, 0, 72, 0
2, 48366, Control_c, 0, 64, 0
2, 48368, Note_on_c, 0, 67, 0
2, 48373, Note_on_c, 0, 82, 0
2, 48373, Note_on_c, 0, 62, 0
2, 48443, Control_c, 0, 64, 127
2, 48489, Note_on_c, 0, 34, 35
2, 48492, Note_on_c, 0, 46, 21
2, 48501, Control_c, 0, 64, 0
2, 48508, Note_on_c, 0, 46, 0
2, 48515, Note_on_c, 0, 34, 0
2, 48573, Control_c, 0, 64, 127
2, 48647, Note_on_c, 0, 22, 36
2, 48648, Note_on_c, 0, 34, 27
2, 48669, Note_on_c, 0, 22, 0
2, 48669, Control_c, 0, 64, 0
2, 48673, Note_on_c, 0, 34, 0
2, 48733, Control_c, 0, 64, 127
2, 48797, Control_c, 0, 64, 0
2, 48800, Note_on_c, 0, 69, 68
2, 48801, Note_on_c, 0, 61, 33
2, 48805, Note_on_c, 0, 64, 34
2, 48810, Note_on_c, 0, 58, 24
2, 48811, Note_on_c, 0, 52, 33
2, 48822, Note_on_c, 0, 64, 0
2, 48827, Note_on_c, 0, 61, 0
2, 48832, Note_on_c, 0, 58, 0
2, 48836, Note_on_c, 0, 69, 0
2, 48836, Control_c, 0, 64, 127
2, 48838, Note_on_c, 0, 52, 0
2, 48902, Note_on_c, 0, 41, 55
2, 48903, Note_on_c, 0, 65, 40
2, 48904, Note_on_c, 0, 55, 31
2, 48905, Note_on_c, 0, 60, 45
2, 48913, Control_c, 0, 64, 0
2, 48948, Control_c, 0, 64, 127
2, 48977, Note_on_c, 0, 41, 0
2, 48978, Note_on_c, 0, 55, 0
2, 48994, Note_on_c, 0, 60, 0
2, 49003, Note_on_c, 0, 65, 0
2, 49276, Note_on_c, 0, 29, 29
2, 49278, Note_on_c, 0, 101, 33
2, 49300, Note_on_c, 0, 101, 0
2, 49304, Note_on_c, 0, 29, 0
2, 49367, Control_c, 0, 64, 0
2, 49426, Control_c, 0, 64, 127
2, 49521, Note_on_c, 0, 29, 31
2, 49523, Note_on_c, 0, 101, 35
2, 49534, Control_c, 0, 64, 0
2, 49562, Control_c, 0, 64, 127
2, 49656, Note_on_c, 0, 101, 0
2, 49666, Note_on_c, 0, 29, 0
2, 49949, Control_c, 0, 64, 0
2, 49949, End_track
3, 0, Start_track
3, 0, Title_t, "Solo piano"
3, 0, End_track
4, 0, Start_track
4, 0, End_track
0, 0, End_of_file
