0, 0, Header, 0, 1, 384
1, 0, Start_track
1, 0, Title_t, "untitled"
1, 0, System_exclusive, 5, 126, 127, 9, 1, 247
1, 1, System_exclusive, 8, 67, 16, 76, 0, 0, 126, 0, 247
1, 1, System_exclusive, 8, 67, 16, 76, 8, 15, 0, 1, 247
1, 1, System_exclusive, 8, 67, 16, 76, 8, 14, 0, 1, 247
1, 1, System_exclusive, 8, 67, 16, 76, 8, 13, 0, 1, 247
1, 1, System_exclusive, 8, 67, 16, 76, 8, 12, 0, 1, 247
1, 1, System_exclusive, 8, 67, 16, 76, 8, 11, 0, 1, 247
1, 1, System_exclusive, 8, 67, 16, 76, 8, 10, 0, 1, 247
1, 1, System_exclusive, 8, 67, 16, 76, 8, 9, 0, 0, 247
1, 1, System_exclusive, 8, 67, 16, 76, 8, 8, 0, 1, 247
1, 1, System_exclusive, 8, 67, 16, 76, 8, 7, 0, 1, 247
1, 1, System_exclusive, 8, 67, 16, 76, 8, 6, 0, 1, 247
1, 1, System_exclusive, 8, 67, 16, 76, 8, 5, 0, 1, 247
1, 1, System_exclusive, 8, 67, 16, 76, 8, 4, 0, 2, 247
1, 1, System_exclusive, 8, 67, 16, 76, 8, 3, 0, 2, 247
1, 1, System_exclusive, 8, 67, 16, 76, 8, 2, 0, 4, 247
1, 1, System_exclusive, 8, 67, 16, 76, 8, 1, 0, 4, 247
1, 1, System_exclusive, 8, 67, 16, 76, 8, 0, 0, 8, 247
1, 1, System_exclusive, 8, 67, 16, 76, 8, 0, 7, 0, 247
1, 1, System_exclusive, 8, 67, 16, 76, 8, 1, 7, 0, 247
1, 1, System_exclusive, 8, 67, 16, 76, 8, 2, 7, 0, 247
1, 1, System_exclusive, 8, 67, 16, 76, 8, 3, 7, 0, 247
1, 1, System_exclusive, 8, 67, 16, 76, 8, 4, 7, 0, 247
1, 1, System_exclusive, 8, 67, 16, 76, 8, 5, 7, 0, 247
1, 1, System_exclusive, 8, 67, 16, 76, 8, 6, 7, 0, 247
1, 1, System_exclusive, 8, 67, 16, 76, 8, 7, 7, 0, 247
1, 1, System_exclusive, 8, 67, 16, 76, 8, 8, 7, 0, 247
1, 1, System_exclusive, 8, 67, 16, 76, 8, 9, 7, 2, 247
1, 1, System_exclusive, 8, 67, 16, 76, 8, 10, 7, 0, 247
1, 1, System_exclusive, 8, 67, 16, 76, 8, 11, 7, 0, 247
1, 1, System_exclusive, 8, 67, 16, 76, 8, 12, 7, 0, 247
1, 1, System_exclusive, 8, 67, 16, 76, 8, 13, 7, 0, 247
1, 1, System_exclusive, 8, 67, 16, 76, 8, 14, 7, 0, 247
1, 1, System_exclusive, 8, 67, 16, 76, 8, 15, 7, 0, 247
1, 1, System_exclusive, 9, 67, 16, 76, 2, 1, 0, 1, 0, 247
1, 1, System_exclusive, 9, 67, 16, 76, 2, 1, 32, 65, 0, 247
1, 1, System_exclusive, 9, 67, 16, 76, 2, 1, 64, 5, 0, 247
1, 1, System_exclusive, 8, 67, 16, 76, 8, 1, 32, 16, 247
1, 1, System_exclusive, 8, 67, 16, 76, 8, 9, 32, 16, 247
1, 1, System_exclusive, 9, 67, 16, 76, 3, 0, 0, 3, 18, 247
1, 1, System_exclusive, 8, 67, 16, 76, 3, 0, 11, 5, 247
1, 1, System_exclusive, 8, 67, 16, 76, 3, 0, 12, 0, 247
1, 1, System_exclusive, 8, 67, 16, 76, 8, 0, 114, 64, 247
1, 1, System_exclusive, 8, 67, 16, 76, 8, 0, 115, 95, 247
1, 1, System_exclusive, 8, 67, 16, 76, 8, 0, 119, 46, 247
1, 1, Time_signature, 4, 2, 24, 8
1, 1, Key_signature, 0, "major"
1, 1, Tempo, 324324
1, 1, Sequencer_specific, 21, 67, 115, 10, 0, 5, 75, 90, 79, 79, 79, 79, 79, 79, 79, 90, 79, 79, 79, 79, 79, 79
1, 1, Sequencer_specific, 6, 67, 115, 10, 0, 4, 1
1, 1, Sequencer_specific, 9, 67, 123, 0, 88, 70, 48, 50, 0, 0
1, 385, Control_c, 0, 0, 0
1, 385, Control_c, 0, 32, 0
1, 385, Program_c, 0, 0
1, 386, Control_c, 0, 7, 107
1, 386, Control_c, 0, 10, 64
1, 386, Control_c, 0, 91, 0
1, 386, Control_c, 0, 93, 0
1, 387, Control_c, 1, 0, 0
1, 387, Control_c, 1, 32, 0
1, 387, Program_c, 1, 35
1, 388, Control_c, 1, 7, 102
1, 388, Control_c, 1, 10, 64
1, 388, Control_c, 1, 91, 0
1, 388, Control_c, 1, 93, 0
1, 404, Control_c, 9, 7, 63
1, 769, Control_c, 0, 11, 127
1, 769, Control_c, 0, 94, 0
1, 769, Control_c, 0, 101, 0
1, 770, Control_c, 0, 100, 1
1, 771, Control_c, 0, 6, 64
1, 772, Control_c, 0, 38, 0
1, 772, Control_c, 0, 71, 43
1, 772, Control_c, 0, 74, 46
1, 772, Program_c, 1, 32
1, 772, Control_c, 1, 7, 99
1, 1537, Note_on_c, 0, 76, 89
1, 1537, Note_on_c, 1, 36, 63
1, 1537, Note_on_c, 9, 28, 69
1, 1553, Note_on_c, 0, 52, 79
1, 1633, Note_on_c, 0, 76, 0
1, 1673, Note_on_c, 0, 52, 0
1, 1877, Note_on_c, 1, 36, 0
1, 1907, Note_on_c, 9, 28, 43
1, 1911, Note_on_c, 9, 44, 101
1, 1921, Note_on_c, 9, 28, 0
1, 1941, Note_on_c, 1, 31, 41
1, 1957, Note_on_c, 0, 55, 60
1, 1961, Note_on_c, 0, 79, 70
1, 2009, Note_on_c, 0, 79, 0
1, 2013, Note_on_c, 0, 55, 0
1, 2097, Note_on_c, 9, 44, 0
1, 2167, Note_on_c, 9, 36, 42
1, 2193, Note_on_c, 9, 36, 0
1, 2253, Note_on_c, 1, 31, 0
1, 2291, Note_on_c, 9, 28, 41
1, 2305, Note_on_c, 9, 28, 0
1, 2305, Note_on_c, 1, 28, 44
1, 2669, Note_on_c, 1, 28, 0
1, 2675, Note_on_c, 9, 28, 41
1, 2679, Note_on_c, 9, 44, 98
1, 2689, Note_on_c, 9, 28, 0
1, 2697, Note_on_c, 0, 76, 71
1, 2701, Note_on_c, 1, 29, 39
1, 2705, Note_on_c, 0, 52, 62
1, 2737, Note_on_c, 0, 76, 0
1, 2765, Note_on_c, 0, 52, 0
1, 2769, Note_on_c, 9, 44, 0
1, 2785, System_exclusive, 9, 67, 16, 76, 2, 1, 0, 1, 0, 247
1, 2785, System_exclusive, 9, 67, 16, 76, 2, 1, 32, 65, 0, 247
1, 2877, System_exclusive, 9, 67, 16, 76, 2, 1, 0, 1, 0, 247
1, 2877, System_exclusive, 9, 67, 16, 76, 2, 1, 32, 65, 0, 247
1, 2933, Note_on_c, 1, 29, 0
1, 2957, Note_on_c, 1, 27, 50
1, 3057, Note_on_c, 1, 27, 0
1, 3059, Note_on_c, 9, 28, 50
1, 3061, Note_on_c, 1, 30, 57
1, 3073, Note_on_c, 9, 28, 0
1, 3073, Note_on_c, 9, 28, 69
1, 3129, Note_on_c, 0, 79, 66
1, 3129, Note_on_c, 0, 55, 55
1, 3385, Note_on_c, 1, 27, 39
1, 3443, Note_on_c, 9, 28, 43
1, 3447, Note_on_c, 9, 44, 101
1, 3453, Note_on_c, 1, 27, 0
1, 3457, Note_on_c, 9, 28, 0
1, 3457, Note_on_c, 9, 28, 0
1, 3465, Note_on_c, 1, 30, 0
1, 3469, Note_on_c, 1, 31, 46
1, 3633, Note_on_c, 9, 44, 0
1, 3703, Note_on_c, 9, 36, 42
1, 3729, Note_on_c, 9, 36, 0
1, 3801, Note_on_c, 0, 55, 0
1, 3801, Note_on_c, 0, 79, 0
1, 3827, Note_on_c, 9, 28, 41
1, 3833, Note_on_c, 1, 32, 57
1, 3841, Note_on_c, 9, 28, 0
1, 3841, Note_on_c, 1, 31, 0
1, 3897, Note_on_c, 0, 76, 39
1, 3921, Note_on_c, 0, 52, 34
1, 4189, Note_on_c, 0, 52, 0
1, 4209, Note_on_c, 0, 76, 0
1, 4211, Note_on_c, 9, 28, 41
1, 4215, Note_on_c, 9, 44, 98
1, 4225, Note_on_c, 9, 28, 0
1, 4233, Note_on_c, 1, 32, 0
1, 4237, Note_on_c, 1, 33, 52
1, 4241, Note_on_c, 0, 55, 44
1, 4273, Note_on_c, 0, 79, 50
1, 4305, Note_on_c, 9, 44, 0
1, 4453, Note_on_c, 0, 79, 0
1, 4465, Note_on_c, 0, 55, 0
1, 4521, Note_on_c, 0, 77, 49
1, 4529, Note_on_c, 1, 32, 43
1, 4541, Note_on_c, 1, 33, 0
1, 4545, Note_on_c, 0, 53, 35
1, 4577, Note_on_c, 1, 32, 0
1, 4595, Note_on_c, 9, 28, 50
1, 4609, Note_on_c, 9, 28, 0
1, 4621, Note_on_c, 1, 38, 56
1, 4961, Note_on_c, 0, 77, 0
1, 4979, Note_on_c, 9, 28, 31
1, 4983, Note_on_c, 9, 44, 91
1, 4989, Note_on_c, 0, 53, 0
1, 5009, Note_on_c, 1, 45, 82
1, 5013, Note_on_c, 0, 55, 40
1, 5021, Note_on_c, 0, 79, 44
1, 5085, Note_on_c, 1, 38, 0
1, 5089, Note_on_c, 0, 79, 0
1, 5105, Note_on_c, 0, 55, 0
1, 5137, Note_on_c, 9, 44, 0
1, 5233, Note_on_c, 9, 36, 35
1, 5265, Note_on_c, 9, 36, 0
1, 5301, Note_on_c, 1, 45, 0
1, 5317, Note_on_c, 1, 38, 48
1, 5367, Note_on_c, 9, 28, 36
1, 5373, Note_on_c, 1, 38, 0
1, 5377, Note_on_c, 9, 28, 0
1, 5377, Note_on_c, 9, 28, 0
1, 5397, Note_on_c, 1, 52, 77
1, 5449, Note_on_c, 1, 53, 31
1, 5685, Note_on_c, 1, 53, 0
1, 5693, Note_on_c, 1, 52, 0
1, 5721, Note_on_c, 1, 38, 42
1, 5751, Note_on_c, 9, 28, 35
1, 5761, Note_on_c, 9, 28, 0
1, 5761, Note_on_c, 1, 51, 63
1, 5761, Note_on_c, 9, 44, 80
1, 5769, Note_on_c, 1, 38, 0
1, 5939, Note_on_c, 9, 44, 0
1, 6057, Note_on_c, 0, 89, 57
1, 6085, Note_on_c, 0, 65, 50
1, 6105, Note_on_c, 1, 51, 0
1, 6131, Note_on_c, 9, 28, 42
1, 6145, Note_on_c, 9, 28, 0
1, 6157, Note_on_c, 1, 50, 68
1, 6161, Note_on_c, 0, 89, 0
1, 6193, Note_on_c, 0, 65, 0
1, 6217, Note_on_c, 0, 67, 46
1, 6237, Note_on_c, 0, 91, 48
1, 6417, Note_on_c, 1, 41, 68
1, 6449, Note_on_c, 0, 67, 0
1, 6453, Note_on_c, 1, 50, 0
1, 6461, Note_on_c, 0, 91, 0
1, 6515, Note_on_c, 9, 28, 42
1, 6519, Note_on_c, 9, 44, 84
1, 6525, Note_on_c, 1, 41, 0
1, 6529, Note_on_c, 9, 28, 0
1, 6529, Note_on_c, 1, 45, 72
1, 6775, Note_on_c, 9, 44, 0
1, 6791, Note_on_c, 9, 36, 28
1, 6809, Note_on_c, 9, 36, 0
1, 6849, Note_on_c, 1, 45, 0
1, 6893, Note_on_c, 1, 48, 68
1, 6899, Note_on_c, 9, 28, 31
1, 6913, Note_on_c, 9, 28, 0
1, 7145, Note_on_c, 1, 44, 66
1, 7209, Note_on_c, 1, 48, 0
1, 7245, Note_on_c, 1, 44, 0
1, 7283, Note_on_c, 9, 28, 60
1, 7285, Note_on_c, 0, 101, 95
1, 7287, Note_on_c, 9, 46, 36
1, 7289, Note_on_c, 1, 42, 54
1, 7297, Note_on_c, 9, 28, 0
1, 7297, Note_on_c, 0, 77, 73
1, 7393, Note_on_c, 9, 46, 0
1, 7431, Note_on_c, 9, 40, 32
1, 7453, Note_on_c, 9, 40, 0
1, 7489, Note_on_c, 0, 101, 0
1, 7537, Note_on_c, 0, 103, 107
1, 7541, Note_on_c, 0, 79, 93
1, 7555, Note_on_c, 9, 36, 52
1, 7565, Note_on_c, 0, 77, 0
1, 7593, Note_on_c, 9, 36, 0
1, 7613, Note_on_c, 1, 42, 0
1, 7667, Note_on_c, 9, 28, 62
1, 7673, Note_on_c, 1, 43, 56
1, 7681, Note_on_c, 9, 28, 0
1, 7689, Note_on_c, 9, 36, 35
1, 7757, Note_on_c, 9, 36, 0
1, 8013, Note_on_c, 1, 43, 0
1, 8051, Note_on_c, 9, 28, 55
1, 8055, Note_on_c, 9, 44, 89
1, 8061, Note_on_c, 0, 103, 0
1, 8065, Note_on_c, 9, 28, 0
1, 8065, Note_on_c, 1, 38, 56
1, 8077, Note_on_c, 0, 101, 48
1, 8089, Note_on_c, 0, 79, 0
1, 8105, Note_on_c, 0, 77, 54
1, 8151, Note_on_c, 9, 44, 0
1, 8237, Note_on_c, 0, 101, 0
1, 8297, Note_on_c, 9, 36, 38
1, 8329, Note_on_c, 9, 36, 0
1, 8333, Note_on_c, 0, 77, 0
1, 8417, Note_on_c, 1, 38, 0
1, 8435, Note_on_c, 9, 28, 52
1, 8449, Note_on_c, 9, 28, 0
1, 8449, Note_on_c, 1, 31, 76
1, 8465, Note_on_c, 0, 103, 49
1, 8489, Note_on_c, 0, 79, 46
1, 8629, Note_on_c, 0, 103, 0
1, 8693, Note_on_c, 0, 79, 0
1, 8801, Note_on_c, 1, 31, 0
1, 8819, Note_on_c, 9, 28, 46
1, 8823, Note_on_c, 9, 44, 87
1, 8829, Note_on_c, 0, 77, 51
1, 8829, Note_on_c, 1, 32, 81
1, 8833, Note_on_c, 9, 28, 0
1, 8845, Note_on_c, 0, 101, 43
1, 8957, Note_on_c, 0, 101, 0
1, 8961, Note_on_c, 9, 44, 0
1, 9041, Note_on_c, 0, 77, 0
1, 9081, Note_on_c, 9, 36, 36
1, 9149, Note_on_c, 9, 36, 0
1, 9165, Note_on_c, 1, 32, 0
1, 9201, Note_on_c, 1, 31, 72
1, 9203, Note_on_c, 9, 28, 44
1, 9217, Note_on_c, 9, 28, 0
1, 9223, Note_on_c, 0, 79, 56
1, 9223, Note_on_c, 9, 36, 33
1, 9237, Note_on_c, 0, 103, 50
1, 9401, Note_on_c, 9, 36, 0
1, 9553, Note_on_c, 1, 31, 0
1, 9585, Note_on_c, 1, 39, 75
1, 9587, Note_on_c, 9, 28, 40
1, 9591, Note_on_c, 9, 44, 68
1, 9601, Note_on_c, 9, 28, 0
1, 9751, Note_on_c, 9, 44, 0
1, 9921, Note_on_c, 1, 39, 0
1, 9945, Note_on_c, 1, 38, 60
1, 9961, Note_on_c, 0, 103, 0
1, 9971, Note_on_c, 9, 28, 43
1, 9985, Note_on_c, 9, 28, 0
1, 9993, Note_on_c, 0, 101, 55
1, 10005, Note_on_c, 0, 77, 50
1, 10017, Note_on_c, 0, 79, 0
1, 10209, Note_on_c, 1, 38, 0
1, 10237, Note_on_c, 1, 34, 74
1, 10333, Note_on_c, 1, 35, 81
1, 10337, Note_on_c, 1, 34, 0
1, 10353, Note_on_c, 9, 28, 49
1, 10359, Note_on_c, 9, 44, 82
1, 10369, Note_on_c, 9, 28, 0
1, 10471, Note_on_c, 9, 44, 0
1, 10549, Note_on_c, 0, 77, 0
1, 10557, Note_on_c, 0, 101, 0
1, 10617, Note_on_c, 9, 36, 54
1, 10649, Note_on_c, 9, 36, 0
1, 10729, Note_on_c, 1, 36, 63
1, 10737, Note_on_c, 1, 35, 0
1, 10739, Note_on_c, 9, 28, 51
1, 10753, Note_on_c, 9, 28, 0
1, 11029, Note_on_c, 1, 34, 60
1, 11085, Note_on_c, 1, 36, 0
1, 11123, Note_on_c, 9, 28, 46
1, 11127, Note_on_c, 9, 44, 87
1, 11129, Note_on_c, 1, 45, 94
1, 11137, Note_on_c, 9, 28, 0
1, 11169, Note_on_c, 1, 34, 0
1, 11261, Note_on_c, 9, 44, 0
1, 11507, Note_on_c, 9, 28, 38
1, 11521, Note_on_c, 9, 28, 0
1, 11521, Note_on_c, 1, 43, 67
1, 11585, Note_on_c, 1, 45, 0
1, 11891, Note_on_c, 9, 28, 50
1, 11893, Note_on_c, 1, 43, 0
1, 11895, Note_on_c, 9, 44, 87
1, 11905, Note_on_c, 9, 28, 0
1, 11905, Note_on_c, 1, 39, 78
1, 12017, Note_on_c, 9, 44, 0
1, 12269, Note_on_c, 1, 39, 0
1, 12275, Note_on_c, 9, 28, 46
1, 12289, Note_on_c, 9, 28, 0
1, 12297, Note_on_c, 1, 40, 61
1, 12313, Note_on_c, 0, 60, 45
1, 12353, Note_on_c, 0, 57, 30
1, 12645, Note_on_c, 0, 57, 0
1, 12645, Note_on_c, 1, 40, 0
1, 12659, Note_on_c, 9, 28, 52
1, 12661, Note_on_c, 1, 31, 78
1, 12663, Note_on_c, 9, 44, 105
1, 12673, Note_on_c, 0, 60, 0
1, 12673, Note_on_c, 9, 28, 0
1, 12769, Note_on_c, 9, 44, 0
1, 12909, Note_on_c, 0, 56, 54
1, 12933, Note_on_c, 0, 50, 30
1, 12933, Note_on_c, 0, 63, 48
1, 12969, Note_on_c, 0, 59, 51
1, 13043, Note_on_c, 9, 28, 46
1, 13057, Note_on_c, 9, 28, 0
1, 13057, Note_on_c, 1, 33, 71
1, 13061, Note_on_c, 1, 31, 0
1, 13269, Note_on_c, 1, 33, 0
1, 13305, Note_on_c, 1, 34, 73
1, 13315, Note_on_c, 9, 36, 52
1, 13357, Note_on_c, 9, 36, 0
1, 13385, Note_on_c, 1, 34, 0
1, 13427, Note_on_c, 9, 28, 42
1, 13431, Note_on_c, 9, 44, 103
1, 13433, Note_on_c, 1, 35, 73
1, 13441, Note_on_c, 9, 28, 0
1, 13443, Note_on_c, 9, 36, 28
1, 13509, Note_on_c, 0, 50, 0
1, 13559, Note_on_c, 9, 44, 0
1, 13573, Note_on_c, 0, 59, 0
1, 13591, Note_on_c, 9, 36, 0
1, 13683, Note_on_c, 9, 36, 42
1, 13689, Note_on_c, 0, 56, 0
1, 13697, Note_on_c, 0, 63, 0
1, 13719, Note_on_c, 9, 36, 0
1, 13811, Note_on_c, 9, 28, 46
1, 13825, Note_on_c, 9, 28, 0
1, 13825, Note_on_c, 1, 35, 0
1, 13829, Note_on_c, 1, 36, 63
1, 13841, Note_on_c, 0, 55, 50
1, 13857, Note_on_c, 0, 48, 45
1, 13857, Note_on_c, 0, 64, 48
1, 13909, Note_on_c, 0, 59, 32
1, 13933, Note_on_c, 0, 55, 0
1, 13953, Note_on_c, 0, 64, 0
1, 13969, Note_on_c, 0, 59, 0
1, 14125, Note_on_c, 1, 34, 67
1, 14149, Note_on_c, 0, 48, 0
1, 14177, Note_on_c, 1, 36, 0
1, 14195, Note_on_c, 9, 28, 60
1, 14199, Note_on_c, 9, 44, 80
1, 14209, Note_on_c, 9, 28, 0
1, 14217, Note_on_c, 1, 50, 99
1, 14225, Note_on_c, 1, 34, 0
1, 14229, Note_on_c, 0, 67, 65
1, 14249, Note_on_c, 0, 57, 53
1, 14261, Note_on_c, 0, 52, 45
1, 14261, Note_on_c, 0, 62, 62
1, 14343, Note_on_c, 9, 44, 0
1, 14579, Note_on_c, 9, 28, 35
1, 14593, Note_on_c, 1, 50, 0
1, 14593, Note_on_c, 9, 28, 0
1, 14605, Note_on_c, 1, 48, 68
1, 14629, Note_on_c, 0, 62, 0
1, 14657, Note_on_c, 0, 67, 0
1, 14765, Note_on_c, 0, 57, 0
1, 14841, Note_on_c, 9, 27, 64
1, 14867, Note_on_c, 9, 27, 0
1, 14963, Note_on_c, 9, 28, 58
1, 14965, Note_on_c, 0, 52, 0
1, 14965, Note_on_c, 0, 64, 69
1, 14967, Note_on_c, 9, 44, 92
1, 14969, Note_on_c, 1, 42, 68
1, 14977, Note_on_c, 9, 28, 0
1, 14981, Note_on_c, 0, 55, 53
1, 14985, Note_on_c, 0, 48, 51
1, 15001, Note_on_c, 1, 48, 0
1, 15009, Note_on_c, 0, 57, 52
1, 15097, Note_on_c, 9, 44, 0
1, 15105, Note_on_c, 0, 57, 0
1, 15113, Note_on_c, 0, 55, 0
1, 15165, Note_on_c, 0, 64, 0
1, 15345, Note_on_c, 1, 42, 0
1, 15347, Note_on_c, 9, 28, 55
1, 15353, Note_on_c, 0, 48, 0
1, 15361, Note_on_c, 9, 28, 0
1, 15369, Note_on_c, 1, 43, 63
1, 15389, Note_on_c, 0, 67, 85
1, 15389, Note_on_c, 0, 50, 39
1, 15413, Note_on_c, 0, 57, 64
1, 15413, Note_on_c, 0, 60, 67
1, 15421, Note_on_c, 0, 52, 65
1, 15425, Note_on_c, 0, 64, 64
1, 15445, Note_on_c, 0, 50, 0
1, 15731, Note_on_c, 9, 28, 62
1, 15735, Note_on_c, 9, 44, 84
1, 15745, Note_on_c, 9, 28, 0
1, 15745, Note_on_c, 0, 64, 0
1, 15745, Note_on_c, 1, 43, 0
1, 15765, Note_on_c, 1, 39, 68
1, 15793, Note_on_c, 0, 67, 0
1, 15801, Note_on_c, 0, 60, 0
1, 15845, Note_on_c, 0, 57, 0
1, 15879, Note_on_c, 9, 44, 0
1, 15879, Note_on_c, 9, 27, 64
1, 15905, Note_on_c, 9, 27, 0
1, 15993, Note_on_c, 9, 27, 84
1, 16033, Note_on_c, 9, 27, 0
1, 16037, Note_on_c, 0, 64, 67
1, 16041, Note_on_c, 0, 48, 58
1, 16053, Note_on_c, 0, 52, 0
1, 16057, Note_on_c, 0, 57, 61
1, 16065, Note_on_c, 0, 55, 44
1, 16065, Note_on_c, 0, 60, 58
1, 16115, Note_on_c, 9, 28, 54
1, 16121, Note_on_c, 0, 55, 0
1, 16129, Note_on_c, 9, 28, 0
1, 16145, Note_on_c, 1, 39, 0
1, 16153, Note_on_c, 1, 40, 70
1, 16189, Note_on_c, 0, 57, 0
1, 16245, Note_on_c, 0, 60, 0
1, 16253, Note_on_c, 0, 64, 0
1, 16265, Note_on_c, 9, 27, 80
1, 16313, Note_on_c, 9, 27, 0
1, 16401, Note_on_c, 1, 36, 66
1, 16413, Note_on_c, 1, 40, 0
1, 16469, Note_on_c, 0, 50, 48
1, 16481, Note_on_c, 1, 36, 0
1, 16499, Note_on_c, 9, 28, 56
1, 16503, Note_on_c, 9, 44, 99
1, 16513, Note_on_c, 9, 28, 0
1, 16529, Note_on_c, 0, 48, 0
1, 16533, Note_on_c, 1, 37, 69
1, 16541, Note_on_c, 0, 67, 78
1, 16549, Note_on_c, 0, 50, 0
1, 16557, Note_on_c, 0, 60, 65
1, 16561, Note_on_c, 0, 52, 61
1, 16577, Note_on_c, 0, 64, 54
1, 16589, Note_on_c, 0, 57, 42
1, 16597, Note_on_c, 0, 59, 47
1, 16629, Note_on_c, 0, 64, 0
1, 16645, Note_on_c, 0, 57, 0
1, 16657, Note_on_c, 9, 44, 0
1, 16741, Note_on_c, 0, 60, 0
1, 16755, Note_on_c, 9, 28, 54
1, 16765, Note_on_c, 0, 59, 0
1, 16765, Note_on_c, 0, 67, 0
1, 16849, Note_on_c, 1, 34, 39
1, 16883, Note_on_c, 9, 28, 54
1, 16897, Note_on_c, 9, 28, 0
1, 16905, Note_on_c, 1, 34, 0
1, 16913, Note_on_c, 1, 37, 0
1, 16937, Note_on_c, 1, 38, 68
1, 16941, Note_on_c, 0, 52, 0
1, 16945, Note_on_c, 0, 65, 76
1, 16957, Note_on_c, 0, 60, 63
1, 16957, Note_on_c, 0, 50, 55
1, 16957, Note_on_c, 0, 57, 65
1, 16981, Note_on_c, 0, 62, 64
1, 17209, Note_on_c, 1, 38, 0
1, 17209, Note_on_c, 1, 37, 54
1, 17267, Note_on_c, 9, 28, 63
1, 17271, Note_on_c, 9, 44, 98
1, 17281, Note_on_c, 9, 28, 0
1, 17281, Note_on_c, 9, 28, 0
1, 17313, Note_on_c, 1, 40, 68
1, 17345, Note_on_c, 1, 37, 0
1, 17399, Note_on_c, 9, 44, 0
1, 17457, Note_on_c, 0, 65, 0
1, 17481, Note_on_c, 0, 57, 0
1, 17505, Note_on_c, 9, 27, 59
1, 17513, Note_on_c, 0, 60, 0
1, 17523, Note_on_c, 9, 27, 0
1, 17529, Note_on_c, 0, 62, 0
1, 17597, Note_on_c, 1, 40, 0
1, 17597, Note_on_c, 1, 39, 54
1, 17605, Note_on_c, 0, 57, 58
1, 17605, Note_on_c, 0, 67, 64
1, 17613, Note_on_c, 0, 60, 70
1, 17613, Note_on_c, 0, 62, 44
1, 17625, Note_on_c, 0, 50, 0
1, 17651, Note_on_c, 9, 28, 60
1, 17665, Note_on_c, 9, 28, 0
1, 17697, Note_on_c, 1, 41, 63
1, 17713, Note_on_c, 1, 39, 0
1, 17973, Note_on_c, 1, 42, 56
1, 17989, Note_on_c, 1, 41, 0
1, 18013, Note_on_c, 1, 42, 0
1, 18035, Note_on_c, 9, 28, 55
1, 18039, Note_on_c, 9, 44, 94
1, 18049, Note_on_c, 9, 28, 0
1, 18065, Note_on_c, 1, 44, 61
1, 18113, Note_on_c, 9, 44, 0
1, 18113, Note_on_c, 0, 43, 97
1, 18125, Note_on_c, 0, 31, 93
1, 18345, Note_on_c, 1, 41, 44
1, 18389, Note_on_c, 1, 41, 0
1, 18419, Note_on_c, 9, 28, 46
1, 18433, Note_on_c, 9, 28, 0
1, 18445, Note_on_c, 1, 44, 0
1, 18465, Note_on_c, 1, 45, 49
1, 18665, Note_on_c, 0, 67, 0
1, 18733, Note_on_c, 0, 57, 0
1, 18737, Note_on_c, 0, 60, 0
1, 18769, Note_on_c, 1, 41, 42
1, 18781, Note_on_c, 1, 45, 0
1, 18793, Note_on_c, 0, 62, 0
1, 18803, Note_on_c, 9, 28, 55
1, 18807, Note_on_c, 9, 44, 105
1, 18813, Note_on_c, 1, 41, 0
1, 18817, Note_on_c, 9, 28, 0
1, 18821, Note_on_c, 1, 48, 60
1, 18873, Note_on_c, 0, 31, 0
1, 18873, Note_on_c, 0, 57, 55
1, 18885, Note_on_c, 0, 65, 61
1, 18897, Note_on_c, 9, 44, 0
1, 18901, Note_on_c, 0, 60, 53
1, 18917, Note_on_c, 0, 62, 37
1, 18957, Note_on_c, 0, 43, 0
1, 18985, Note_on_c, 0, 57, 0
1, 18993, Note_on_c, 0, 60, 0
1, 18997, Note_on_c, 0, 62, 0
1, 19009, Note_on_c, 0, 65, 0
1, 19073, Note_on_c, 1, 42, 39
1, 19129, Note_on_c, 1, 42, 0
1, 19187, Note_on_c, 9, 28, 40
1, 19201, Note_on_c, 9, 28, 0
1, 19201, Note_on_c, 1, 55, 70
1, 19249, Note_on_c, 0, 67, 54
1, 19253, Note_on_c, 1, 48, 0
1, 19293, Note_on_c, 0, 60, 42
1, 19309, Note_on_c, 0, 62, 36
1, 19333, Note_on_c, 0, 57, 25
1, 19393, Note_on_c, 0, 67, 0
1, 19405, Note_on_c, 0, 60, 0
1, 19413, Note_on_c, 0, 62, 0
1, 19433, Note_on_c, 0, 57, 0
1, 19443, Note_on_c, 9, 27, 49
1, 19513, Note_on_c, 1, 55, 0
1, 19523, Note_on_c, 9, 27, 0
1, 19529, Note_on_c, 1, 43, 46
1, 19569, Note_on_c, 1, 54, 69
1, 19571, Note_on_c, 9, 28, 49
1, 19575, Note_on_c, 9, 46, 63
1, 19577, Note_on_c, 1, 43, 0
1, 19585, Note_on_c, 9, 28, 0
1, 19621, Note_on_c, 0, 65, 56
1, 19637, Note_on_c, 0, 57, 44
1, 19653, Note_on_c, 0, 60, 44
1, 19685, Note_on_c, 0, 62, 28
1, 19713, Note_on_c, 9, 46, 0
1, 19717, Note_on_c, 0, 60, 0
1, 19721, Note_on_c, 0, 65, 0
1, 19725, Note_on_c, 0, 57, 0
1, 19749, Note_on_c, 0, 62, 0
1, 19877, Note_on_c, 1, 43, 45
1, 19905, Note_on_c, 1, 54, 0
1, 19921, Note_on_c, 1, 43, 0
1, 19955, Note_on_c, 9, 28, 73
1, 19969, Note_on_c, 9, 28, 0
1, 19981, Note_on_c, 0, 65, 60
1, 19981, Note_on_c, 1, 53, 51
1, 20009, Note_on_c, 0, 57, 35
1, 20037, Note_on_c, 0, 60, 44
1, 20057, Note_on_c, 0, 62, 40
1, 20093, Note_on_c, 0, 57, 0
1, 20101, Note_on_c, 0, 60, 0
1, 20103, Note_on_c, 9, 27, 73
1, 20105, Note_on_c, 0, 65, 0
1, 20137, Note_on_c, 0, 62, 0
1, 20153, Note_on_c, 9, 27, 0
1, 20285, Note_on_c, 1, 43, 45
1, 20293, Note_on_c, 1, 53, 0
1, 20329, Note_on_c, 1, 43, 0
1, 20339, Note_on_c, 9, 28, 40
1, 20343, Note_on_c, 9, 27, 56
1, 20343, Note_on_c, 9, 44, 82
1, 20353, Note_on_c, 9, 28, 0
1, 20361, Note_on_c, 1, 52, 57
1, 20377, Note_on_c, 0, 67, 57
1, 20385, Note_on_c, 0, 57, 47
1, 20389, Note_on_c, 0, 60, 57
1, 20409, Note_on_c, 0, 55, 45
1, 20409, Note_on_c, 9, 27, 0
1, 20413, Note_on_c, 0, 62, 41
1, 20455, Note_on_c, 9, 44, 0
1, 20473, Note_on_c, 0, 55, 0
1, 20517, Note_on_c, 0, 67, 0
1, 20521, Note_on_c, 0, 60, 0
1, 20533, Note_on_c, 0, 57, 0
1, 20541, Note_on_c, 0, 62, 0
1, 20577, Note_on_c, 9, 27, 64
1, 20633, Note_on_c, 1, 43, 50
1, 20643, Note_on_c, 9, 27, 0
1, 20673, Note_on_c, 1, 43, 0
1, 20717, Note_on_c, 1, 52, 0
1, 20723, Note_on_c, 9, 28, 42
1, 20737, Note_on_c, 9, 28, 0
1, 20765, Note_on_c, 1, 50, 62
1, 20801, Note_on_c, 0, 55, 41
1, 20857, Note_on_c, 0, 55, 0
1, 21073, Note_on_c, 1, 50, 0
1, 21107, Note_on_c, 9, 28, 46
1, 21111, Note_on_c, 9, 44, 87
1, 21121, Note_on_c, 9, 28, 0
1, 21125, Note_on_c, 1, 42, 65
1, 21157, Note_on_c, 0, 53, 47
1, 21161, Note_on_c, 0, 65, 51
1, 21181, Note_on_c, 0, 57, 41
1, 21223, Note_on_c, 9, 44, 0
1, 21237, Note_on_c, 0, 57, 0
1, 21293, Note_on_c, 0, 65, 0
1, 21301, Note_on_c, 0, 53, 0
1, 21481, Note_on_c, 1, 42, 0
1, 21491, Note_on_c, 9, 28, 51
1, 21497, Note_on_c, 9, 27, 43
1, 21505, Note_on_c, 9, 28, 0
1, 21505, Note_on_c, 0, 67, 60
1, 21509, Note_on_c, 1, 43, 59
1, 21525, Note_on_c, 0, 55, 45
1, 21529, Note_on_c, 0, 57, 51
1, 21537, Note_on_c, 0, 60, 46
1, 21557, Note_on_c, 0, 62, 41
1, 21577, Note_on_c, 9, 27, 0
1, 21853, Note_on_c, 1, 43, 0
1, 21875, Note_on_c, 9, 28, 42
1, 21879, Note_on_c, 9, 44, 108
1, 21885, Note_on_c, 0, 57, 0
1, 21885, Note_on_c, 0, 60, 0
1, 21889, Note_on_c, 9, 28, 0
1, 21897, Note_on_c, 1, 38, 68
1, 21941, Note_on_c, 0, 62, 0
1, 21949, Note_on_c, 0, 67, 0
1, 21969, Note_on_c, 9, 44, 0
1, 22045, Note_on_c, 0, 55, 0
1, 22097, Note_on_c, 0, 65, 56
1, 22101, Note_on_c, 0, 60, 40
1, 22135, Note_on_c, 9, 27, 66
1, 22153, Note_on_c, 0, 60, 0
1, 22185, Note_on_c, 9, 27, 0
1, 22221, Note_on_c, 0, 65, 0
1, 22249, Note_on_c, 1, 38, 0
1, 22259, Note_on_c, 9, 28, 36
1, 22273, Note_on_c, 9, 28, 0
1, 22273, Note_on_c, 1, 31, 63
1, 22509, Note_on_c, 1, 31, 0
1, 22537, Note_on_c, 1, 34, 75
1, 22643, Note_on_c, 9, 28, 48
1, 22645, Note_on_c, 1, 34, 0
1, 22647, Note_on_c, 9, 44, 103
1, 22657, Note_on_c, 9, 28, 0
1, 22689, Note_on_c, 1, 35, 63
1, 22823, Note_on_c, 9, 44, 0
1, 22871, Note_on_c, 9, 27, 56
1, 22909, Note_on_c, 0, 65, 60
1, 22913, Note_on_c, 0, 74, 57
1, 22917, Note_on_c, 0, 68, 55
1, 22921, Note_on_c, 0, 62, 65
1, 22953, Note_on_c, 0, 65, 0
1, 22961, Note_on_c, 9, 27, 0
1, 22961, Note_on_c, 0, 62, 0
1, 22965, Note_on_c, 0, 68, 0
1, 22989, Note_on_c, 1, 35, 0
1, 23001, Note_on_c, 0, 74, 0
1, 23027, Note_on_c, 9, 28, 52
1, 23029, Note_on_c, 1, 36, 57
1, 23041, Note_on_c, 9, 28, 0
1, 23289, Note_on_c, 1, 34, 54
1, 23333, Note_on_c, 1, 36, 0
1, 23381, Note_on_c, 1, 34, 0
1, 23397, Note_on_c, 1, 38, 58
1, 23411, Note_on_c, 9, 28, 37
1, 23415, Note_on_c, 9, 44, 103
1, 23425, Note_on_c, 9, 28, 0
1, 23465, Note_on_c, 0, 72, 64
1, 23473, Note_on_c, 0, 64, 64
1, 23481, Note_on_c, 0, 60, 50
1, 23489, Note_on_c, 0, 67, 58
1, 23505, Note_on_c, 0, 59, 43
1, 23505, Note_on_c, 0, 69, 50
1, 23557, Note_on_c, 0, 59, 0
1, 23591, Note_on_c, 9, 44, 0
1, 23683, Note_on_c, 9, 27, 56
1, 23685, Note_on_c, 1, 38, 0
1, 23685, Note_on_c, 1, 34, 49
1, 23721, Note_on_c, 9, 27, 0
1, 23795, Note_on_c, 9, 28, 44
1, 23805, Note_on_c, 1, 40, 59
1, 23809, Note_on_c, 9, 28, 0
1, 23821, Note_on_c, 1, 34, 0
1, 24041, Note_on_c, 9, 33, 87
1, 24057, Note_on_c, 0, 64, 0
1, 24081, Note_on_c, 0, 67, 0
1, 24083, Note_on_c, 9, 33, 0
1, 24101, Note_on_c, 0, 72, 0
1, 24113, Note_on_c, 1, 40, 0
1, 24117, Note_on_c, 1, 36, 40
1, 24125, Note_on_c, 0, 69, 0
1, 24165, Note_on_c, 1, 36, 0
1, 24165, Note_on_c, 0, 60, 0
1, 24177, Note_on_c, 1, 43, 58
1, 24179, Note_on_c, 9, 28, 36
1, 24183, Note_on_c, 9, 44, 92
1, 24193, Note_on_c, 9, 28, 0
1, 24205, Note_on_c, 0, 59, 46
1, 24205, Note_on_c, 0, 71, 40
1, 24217, Note_on_c, 0, 64, 25
1, 24293, Note_on_c, 0, 64, 0
1, 24345, Note_on_c, 9, 44, 0
1, 24357, Note_on_c, 0, 71, 0
1, 24437, Note_on_c, 0, 64, 46
1, 24439, Note_on_c, 9, 27, 66
1, 24441, Note_on_c, 0, 59, 0
1, 24449, Note_on_c, 0, 60, 61
1, 24465, Note_on_c, 0, 72, 40
1, 24465, Note_on_c, 0, 67, 47
1, 24465, Note_on_c, 0, 69, 56
1, 24471, Note_on_c, 9, 27, 0
1, 24497, Note_on_c, 1, 36, 52
1, 24525, Note_on_c, 1, 43, 0
1, 24557, Note_on_c, 1, 36, 0
1, 24563, Note_on_c, 9, 28, 42
1, 24577, Note_on_c, 9, 28, 0
1, 24577, Note_on_c, 1, 50, 73
1, 24841, Note_on_c, 0, 64, 0
1, 24849, Note_on_c, 9, 35, 49
1, 24853, Note_on_c, 1, 40, 38
1, 24897, Note_on_c, 9, 35, 0
1, 24897, Note_on_c, 1, 50, 0
1, 24901, Note_on_c, 0, 67, 0
1, 24925, Note_on_c, 1, 40, 0
1, 24947, Note_on_c, 9, 28, 41
1, 24951, Note_on_c, 9, 44, 108
1, 24957, Note_on_c, 1, 49, 68
1, 24961, Note_on_c, 9, 28, 0
1, 25097, Note_on_c, 0, 69, 0
1, 25101, Note_on_c, 0, 72, 0
1, 25117, Note_on_c, 0, 60, 0
1, 25137, Note_on_c, 9, 44, 0
1, 25223, Note_on_c, 9, 27, 54
1, 25253, Note_on_c, 1, 42, 49
1, 25257, Note_on_c, 9, 27, 0
1, 25261, Note_on_c, 1, 49, 0
1, 25289, Note_on_c, 0, 59, 58
1, 25293, Note_on_c, 1, 42, 0
1, 25331, Note_on_c, 9, 28, 43
1, 25337, Note_on_c, 0, 72, 94
1, 25341, Note_on_c, 0, 60, 66
1, 25341, Note_on_c, 1, 48, 68
1, 25345, Note_on_c, 9, 28, 0
1, 25353, Note_on_c, 0, 67, 84
1, 25353, Note_on_c, 0, 64, 92
1, 25353, Note_on_c, 0, 69, 83
1, 25401, Note_on_c, 0, 59, 0
1, 25517, Note_on_c, 0, 64, 0
1, 25529, Note_on_c, 0, 67, 0
1, 25545, Note_on_c, 0, 69, 0
1, 25613, Note_on_c, 1, 42, 48
1, 25617, Note_on_c, 0, 72, 0
1, 25649, Note_on_c, 0, 60, 0
1, 25669, Note_on_c, 1, 42, 0
1, 25681, Note_on_c, 1, 48, 0
1, 25715, Note_on_c, 9, 28, 49
1, 25717, Note_on_c, 0, 59, 55
1, 25719, Note_on_c, 9, 44, 75
1, 25721, Note_on_c, 1, 47, 62
1, 25729, Note_on_c, 9, 28, 0
1, 25745, Note_on_c, 0, 71, 76
1, 25753, Note_on_c, 9, 46, 22
1, 25765, Note_on_c, 0, 64, 60
1, 25777, Note_on_c, 9, 46, 0
1, 25781, Note_on_c, 0, 59, 0
1, 25781, Note_on_c, 0, 67, 46
1, 25841, Note_on_c, 0, 67, 0
1, 25863, Note_on_c, 9, 44, 0
1, 25913, Note_on_c, 0, 64, 0
1, 25971, Note_on_c, 9, 35, 31
1, 25971, Note_on_c, 9, 28, 43
1, 25997, Note_on_c, 9, 35, 0
1, 26017, Note_on_c, 0, 71, 0
1, 26081, Note_on_c, 1, 47, 0
1, 26099, Note_on_c, 9, 28, 56
1, 26105, Note_on_c, 1, 48, 63
1, 26113, Note_on_c, 9, 28, 0
1, 26117, Note_on_c, 0, 58, 46
1, 26125, Note_on_c, 0, 70, 64
1, 26161, Note_on_c, 0, 62, 22
1, 26173, Note_on_c, 0, 57, 23
1, 26173, Note_on_c, 0, 53, 32
1, 26483, Note_on_c, 9, 28, 43
1, 26487, Note_on_c, 9, 44, 89
1, 26497, Note_on_c, 9, 28, 0
1, 26497, Note_on_c, 9, 28, 0
1, 26501, Note_on_c, 1, 42, 61
1, 26517, Note_on_c, 1, 48, 0
1, 26529, Note_on_c, 0, 58, 0
1, 26609, Note_on_c, 0, 62, 0
1, 26665, Note_on_c, 0, 70, 0
1, 26673, Note_on_c, 9, 44, 0
1, 26821, Note_on_c, 0, 62, 38
1, 26845, Note_on_c, 1, 42, 0
1, 26845, Note_on_c, 0, 58, 42
1, 26867, Note_on_c, 9, 28, 40
1, 26881, Note_on_c, 9, 28, 0
1, 26881, Note_on_c, 1, 43, 63
1, 26905, Note_on_c, 0, 72, 113
1, 26925, Note_on_c, 0, 58, 0
1, 27057, Note_on_c, 0, 72, 0
1, 27137, Note_on_c, 1, 43, 0
1, 27137, Note_on_c, 9, 27, 63
1, 27145, Note_on_c, 0, 72, 75
1, 27149, Note_on_c, 1, 38, 65
1, 27159, Note_on_c, 9, 27, 0
1, 27161, Note_on_c, 0, 58, 21
1, 27201, Note_on_c, 0, 62, 0
1, 27233, Note_on_c, 1, 38, 0
1, 27237, Note_on_c, 0, 58, 0
1, 27251, Note_on_c, 9, 28, 46
1, 27255, Note_on_c, 9, 44, 84
1, 27265, Note_on_c, 9, 28, 0
1, 27273, Note_on_c, 1, 37, 71
1, 27273, Note_on_c, 9, 27, 52
1, 27281, Note_on_c, 0, 72, 0
1, 27297, Note_on_c, 9, 27, 0
1, 27301, Note_on_c, 0, 57, 0
1, 27321, Note_on_c, 0, 70, 53
1, 27345, Note_on_c, 0, 53, 0
1, 27449, Note_on_c, 9, 44, 0
1, 27477, Note_on_c, 0, 70, 0
1, 27511, Note_on_c, 9, 27, 77
1, 27549, Note_on_c, 0, 72, 87
1, 27553, Note_on_c, 9, 27, 0
1, 27593, Note_on_c, 1, 37, 0
1, 27613, Note_on_c, 0, 58, 34
1, 27635, Note_on_c, 9, 28, 48
1, 27649, Note_on_c, 9, 28, 0
1, 27649, Note_on_c, 1, 35, 64
1, 27661, Note_on_c, 0, 72, 0
1, 27709, Note_on_c, 0, 58, 0
1, 27725, Note_on_c, 0, 72, 81
1, 27897, Note_on_c, 9, 35, 29
1, 27923, Note_on_c, 9, 35, 0
1, 27985, Note_on_c, 0, 72, 0
1, 27985, Note_on_c, 0, 58, 38
1, 28017, Note_on_c, 1, 35, 0
1, 28019, Note_on_c, 9, 28, 50
1, 28023, Note_on_c, 9, 44, 103
1, 28025, Note_on_c, 1, 36, 70
1, 28033, Note_on_c, 9, 28, 0
1, 28049, Note_on_c, 0, 58, 0
1, 28049, Note_on_c, 9, 35, 47
1, 28225, Note_on_c, 9, 44, 0
1, 28241, Note_on_c, 9, 35, 0
1, 28289, Note_on_c, 9, 35, 54
1, 28317, Note_on_c, 0, 70, 91
1, 28337, Note_on_c, 9, 35, 0
1, 28389, Note_on_c, 1, 36, 0
1, 28403, Note_on_c, 9, 28, 46
1, 28409, Note_on_c, 0, 70, 0
1, 28417, Note_on_c, 9, 28, 0
1, 28417, Note_on_c, 1, 38, 63
1, 28477, Note_on_c, 0, 70, 92
1, 28521, Note_on_c, 9, 27, 66
1, 28533, Note_on_c, 1, 38, 0
1, 28561, Note_on_c, 9, 27, 0
1, 28653, Note_on_c, 1, 38, 73
1, 28717, Note_on_c, 0, 62, 45
1, 28725, Note_on_c, 0, 70, 0
1, 28729, Note_on_c, 0, 58, 48
1, 28775, Note_on_c, 9, 27, 78
1, 28785, Note_on_c, 0, 62, 0
1, 28787, Note_on_c, 9, 28, 43
1, 28791, Note_on_c, 9, 44, 82
1, 28801, Note_on_c, 9, 28, 0
1, 28813, Note_on_c, 1, 40, 78
1, 28821, Note_on_c, 0, 58, 0
1, 28825, Note_on_c, 9, 27, 0
1, 28829, Note_on_c, 0, 72, 92
1, 28861, Note_on_c, 1, 38, 0
1, 28969, Note_on_c, 9, 44, 0
1, 29041, Note_on_c, 9, 27, 64
1, 29053, Note_on_c, 0, 72, 0
1, 29111, Note_on_c, 9, 27, 0
1, 29129, Note_on_c, 1, 40, 0
1, 29171, Note_on_c, 9, 28, 50
1, 29173, Note_on_c, 1, 41, 60
1, 29185, Note_on_c, 9, 28, 0
1, 29213, Note_on_c, 0, 68, 32
1, 29281, Note_on_c, 0, 69, 53
1, 29289, Note_on_c, 0, 68, 0
1, 29425, Note_on_c, 1, 41, 0
1, 29441, Note_on_c, 1, 39, 58
1, 29469, Note_on_c, 0, 69, 0
1, 29505, Note_on_c, 1, 39, 0
1, 29529, Note_on_c, 1, 41, 48
1, 29555, Note_on_c, 9, 28, 43
1, 29559, Note_on_c, 9, 44, 91
1, 29561, Note_on_c, 1, 50, 79
1, 29569, Note_on_c, 9, 28, 0
1, 29581, Note_on_c, 0, 72, 95
1, 29589, Note_on_c, 1, 41, 0
1, 29671, Note_on_c, 9, 44, 0
1, 29817, Note_on_c, 0, 72, 0
1, 29939, Note_on_c, 9, 28, 41
1, 29945, Note_on_c, 1, 48, 65
1, 29953, Note_on_c, 9, 28, 0
1, 29985, Note_on_c, 1, 50, 0
1, 29989, Note_on_c, 0, 69, 59
1, 30277, Note_on_c, 1, 48, 0
1, 30323, Note_on_c, 9, 28, 41
1, 30325, Note_on_c, 1, 44, 66
1, 30327, Note_on_c, 9, 44, 89
1, 30337, Note_on_c, 9, 28, 0
1, 30361, Note_on_c, 0, 69, 0
1, 30423, Note_on_c, 9, 44, 0
1, 30705, Note_on_c, 1, 44, 0
1, 30707, Note_on_c, 9, 28, 34
1, 30713, Note_on_c, 1, 45, 59
1, 30721, Note_on_c, 9, 28, 0
1, 30953, Note_on_c, 0, 56, 46
1, 30963, Note_on_c, 9, 35, 31
1, 30981, Note_on_c, 0, 46, 40
1, 31001, Note_on_c, 9, 35, 0
1, 31013, Note_on_c, 1, 44, 55
1, 31029, Note_on_c, 1, 45, 0
1, 31091, Note_on_c, 0, 46, 0
1, 31091, Note_on_c, 9, 28, 58
1, 31093, Note_on_c, 0, 56, 0
1, 31095, Note_on_c, 9, 35, 33
1, 31095, Note_on_c, 9, 44, 87
1, 31105, Note_on_c, 9, 28, 0
1, 31109, Note_on_c, 1, 50, 72
1, 31117, Note_on_c, 1, 44, 0
1, 31137, Note_on_c, 9, 35, 0
1, 31191, Note_on_c, 9, 44, 0
1, 31475, Note_on_c, 9, 28, 41
1, 31489, Note_on_c, 9, 28, 0
1, 31489, Note_on_c, 0, 46, 50
1, 31497, Note_on_c, 1, 48, 67
1, 31501, Note_on_c, 0, 56, 42
1, 31553, Note_on_c, 1, 50, 0
1, 31747, Note_on_c, 9, 35, 24
1, 31783, Note_on_c, 9, 35, 0
1, 31813, Note_on_c, 0, 46, 0
1, 31859, Note_on_c, 9, 28, 56
1, 31863, Note_on_c, 9, 44, 82
1, 31869, Note_on_c, 1, 45, 68
1, 31873, Note_on_c, 9, 28, 0
1, 31881, Note_on_c, 1, 48, 0
1, 31889, Note_on_c, 0, 56, 0
1, 32001, Note_on_c, 9, 44, 0
1, 32173, Note_on_c, 1, 45, 0
1, 32217, Note_on_c, 1, 39, 65
1, 32243, Note_on_c, 9, 28, 46
1, 32257, Note_on_c, 9, 28, 0
1, 32265, Note_on_c, 9, 35, 42
1, 32273, Note_on_c, 9, 46, 26
1, 32305, Note_on_c, 9, 46, 0
1, 32307, Note_on_c, 9, 35, 0
1, 32341, Note_on_c, 1, 40, 76
1, 32365, Note_on_c, 1, 39, 0
1, 32627, Note_on_c, 9, 28, 40
1, 32631, Note_on_c, 9, 44, 99
1, 32633, Note_on_c, 1, 40, 0
1, 32641, Note_on_c, 9, 28, 0
1, 32669, Note_on_c, 1, 34, 68
1, 32759, Note_on_c, 9, 44, 0
1, 32887, Note_on_c, 9, 35, 38
1, 32925, Note_on_c, 9, 35, 0
1, 32993, Note_on_c, 1, 34, 0
1, 33011, Note_on_c, 9, 28, 37
1, 33025, Note_on_c, 9, 28, 0
1, 33025, Note_on_c, 9, 35, 35
1, 33033, Note_on_c, 1, 31, 67
1, 33073, Note_on_c, 9, 35, 0
1, 33267, Note_on_c, 9, 28, 34
1, 33301, Note_on_c, 0, 76, 70
1, 33309, Note_on_c, 0, 88, 64
1, 33317, Note_on_c, 0, 52, 56
1, 33317, Note_on_c, 0, 62, 45
1, 33321, Note_on_c, 0, 58, 51
1, 33321, Note_on_c, 0, 83, 55
1, 33349, Control_c, 0, 64, 127
1, 33357, Note_on_c, 0, 52, 0
1, 33377, Note_on_c, 0, 83, 0
1, 33381, Note_on_c, 0, 76, 0
1, 33385, Note_on_c, 1, 31, 0
1, 33385, Note_on_c, 0, 62, 0
1, 33393, Note_on_c, 0, 58, 0
1, 33395, Note_on_c, 9, 28, 42
1, 33399, Note_on_c, 9, 44, 110
1, 33409, Note_on_c, 9, 28, 0
1, 33413, Note_on_c, 1, 32, 75
1, 33429, Note_on_c, 0, 88, 0
1, 33461, Control_c, 0, 64, 0
1, 33561, Note_on_c, 9, 44, 0
1, 33649, Note_on_c, 9, 35, 43
1, 33681, Note_on_c, 9, 35, 0
1, 33745, Note_on_c, 1, 32, 0
1, 33779, Note_on_c, 9, 28, 55
1, 33793, Note_on_c, 9, 28, 0
1, 33793, Note_on_c, 9, 28, 0
1, 33793, Note_on_c, 0, 93, 79
1, 33793, Control_c, 0, 64, 127
1, 33793, Note_on_c, 0, 81, 76
1, 33793, Note_on_c, 1, 33, 74
1, 33809, Note_on_c, 0, 88, 66
1, 33817, Note_on_c, 0, 55, 67
1, 33829, Note_on_c, 0, 65, 61
1, 33837, Note_on_c, 0, 61, 58
1, 33981, Note_on_c, 1, 33, 0
1, 34065, Note_on_c, 1, 38, 54
1, 34081, Note_on_c, 1, 33, 58
1, 34101, Note_on_c, 1, 38, 0
1, 34163, Note_on_c, 9, 28, 44
1, 34167, Note_on_c, 9, 44, 92
1, 34169, Note_on_c, 1, 33, 0
1, 34177, Note_on_c, 9, 28, 0
1, 34177, Note_on_c, 1, 45, 65
1, 34229, Note_on_c, 0, 81, 0
1, 34269, Note_on_c, 0, 88, 0
1, 34309, Note_on_c, 0, 93, 0
1, 34309, Note_on_c, 0, 65, 0
1, 34309, Note_on_c, 0, 55, 0
1, 34313, Note_on_c, 9, 44, 0
1, 34337, Note_on_c, 0, 61, 0
1, 34425, Note_on_c, 9, 27, 63
1, 34483, Note_on_c, 9, 27, 0
1, 34513, Control_c, 0, 64, 0
1, 34541, Note_on_c, 1, 45, 0
1, 34547, Note_on_c, 9, 28, 44
1, 34561, Note_on_c, 9, 28, 0
1, 34565, Note_on_c, 1, 49, 63
1, 34581, Note_on_c, 0, 98, 65
1, 34589, Note_on_c, 0, 86, 56
1, 34601, Note_on_c, 0, 55, 49
1, 34617, Note_on_c, 0, 61, 51
1, 34629, Note_on_c, 0, 93, 47
1, 34633, Note_on_c, 0, 65, 22
1, 34833, Note_on_c, 9, 27, 59
1, 34857, Control_c, 0, 64, 127
1, 34883, Note_on_c, 9, 27, 0
1, 34909, Note_on_c, 0, 86, 0
1, 34931, Note_on_c, 9, 28, 54
1, 34935, Note_on_c, 9, 44, 105
1, 34945, Note_on_c, 9, 28, 0
1, 34949, Note_on_c, 1, 37, 68
1, 34957, Note_on_c, 0, 93, 0
1, 34977, Note_on_c, 1, 49, 0
1, 34989, Note_on_c, 0, 98, 0
1, 34997, Note_on_c, 0, 55, 0
1, 35013, Note_on_c, 0, 65, 0
1, 35063, Note_on_c, 9, 44, 0
1, 35089, Note_on_c, 9, 27, 84
1, 35111, Note_on_c, 9, 27, 0
1, 35117, Note_on_c, 0, 61, 0
1, 35187, Note_on_c, 9, 28, 32
1, 35225, Note_on_c, 9, 35, 35
1, 35257, Note_on_c, 9, 35, 0
1, 35315, Note_on_c, 9, 28, 46
1, 35329, Note_on_c, 9, 28, 0
1, 35337, Note_on_c, 1, 38, 63
1, 35349, Note_on_c, 1, 37, 0
1, 35353, Note_on_c, 0, 103, 58
1, 35361, Note_on_c, 0, 65, 52
1, 35365, Note_on_c, 0, 91, 43
1, 35377, Note_on_c, 0, 54, 47
1, 35381, Control_c, 0, 64, 0
1, 35381, Note_on_c, 0, 98, 50
1, 35401, Note_on_c, 0, 60, 55
1, 35621, Control_c, 0, 64, 127
1, 35621, Note_on_c, 1, 37, 51
1, 35673, Note_on_c, 1, 38, 0
1, 35693, Note_on_c, 1, 45, 49
1, 35699, Note_on_c, 9, 28, 43
1, 35701, Note_on_c, 1, 37, 0
1, 35703, Note_on_c, 9, 44, 98
1, 35713, Note_on_c, 9, 28, 0
1, 35713, Note_on_c, 9, 28, 0
1, 35769, Note_on_c, 0, 91, 0
1, 35793, Note_on_c, 0, 103, 0
1, 35805, Note_on_c, 0, 98, 0
1, 35813, Note_on_c, 0, 60, 0
1, 35821, Note_on_c, 0, 65, 0
1, 35825, Note_on_c, 9, 44, 0
1, 35853, Note_on_c, 0, 54, 0
1, 35981, Note_on_c, 1, 42, 32
1, 36033, Note_on_c, 1, 42, 0
1, 36045, Note_on_c, 1, 45, 0
1, 36083, Note_on_c, 9, 28, 44
1, 36093, Note_on_c, 1, 52, 68
1, 36097, Note_on_c, 9, 28, 0
1, 36117, Note_on_c, 0, 104, 60
1, 36125, Note_on_c, 0, 92, 47
1, 36129, Note_on_c, 0, 54, 47
1, 36137, Note_on_c, 0, 65, 44
1, 36149, Note_on_c, 0, 99, 47
1, 36165, Note_on_c, 0, 60, 50
1, 36169, Control_c, 0, 64, 0
1, 36365, Control_c, 0, 64, 127
1, 36401, Note_on_c, 0, 60, 0
1, 36409, Note_on_c, 0, 65, 0
1, 36449, Note_on_c, 1, 52, 0
1, 36465, Note_on_c, 9, 28, 43
1, 36471, Note_on_c, 9, 44, 105
1, 36473, Note_on_c, 1, 44, 61
1, 36481, Note_on_c, 9, 28, 0
1, 36517, Note_on_c, 0, 92, 0
1, 36533, Note_on_c, 0, 104, 0
1, 36561, Note_on_c, 9, 44, 0
1, 36569, Note_on_c, 0, 99, 0
1, 36593, Note_on_c, 0, 54, 0
1, 36661, Control_c, 0, 64, 72
1, 36665, Control_c, 0, 64, 0
1, 36741, Note_on_c, 0, 105, 60
1, 36749, Note_on_c, 0, 64, 57
1, 36765, Note_on_c, 0, 53, 50
1, 36769, Note_on_c, 0, 93, 33
1, 36769, Note_on_c, 0, 100, 57
1, 36769, Note_on_c, 0, 59, 55
1, 36829, Note_on_c, 1, 44, 0
1, 36829, Control_c, 0, 64, 127
1, 36851, Note_on_c, 9, 28, 51
1, 36865, Note_on_c, 9, 28, 0
1, 36865, Note_on_c, 1, 43, 62
1, 36963, Note_on_c, 9, 46, 26
1, 36989, Note_on_c, 9, 46, 0
1, 37009, Note_on_c, 0, 105, 0
1, 37025, Note_on_c, 0, 64, 0
1, 37033, Note_on_c, 0, 59, 0
1, 37037, Note_on_c, 0, 100, 0
1, 37091, Note_on_c, 9, 35, 45
1, 37109, Note_on_c, 0, 53, 0
1, 37121, Note_on_c, 0, 93, 0
1, 37129, Note_on_c, 9, 35, 0
1, 37221, Note_on_c, 1, 43, 0
1, 37235, Note_on_c, 9, 46, 22
1, 37235, Note_on_c, 9, 28, 41
1, 37239, Note_on_c, 9, 44, 108
1, 37245, Note_on_c, 1, 31, 83
1, 37249, Note_on_c, 9, 28, 0
1, 37283, Note_on_c, 9, 46, 0
1, 37345, Note_on_c, 9, 44, 0
1, 37511, Note_on_c, 9, 46, 63
1, 37561, Note_on_c, 9, 46, 0
1, 37619, Note_on_c, 9, 28, 49
1, 37633, Note_on_c, 9, 28, 0
1, 37641, Note_on_c, 0, 43, 62
1, 37653, Note_on_c, 1, 31, 0
1, 37661, Note_on_c, 1, 33, 54
1, 37717, Control_c, 0, 64, 0
1, 37773, Note_on_c, 1, 33, 0
1, 37799, Note_on_c, 9, 46, 57
1, 37825, Control_c, 0, 64, 127
1, 37847, Note_on_c, 9, 46, 0
1, 37877, Note_on_c, 1, 34, 54
1, 37945, Note_on_c, 9, 35, 36
1, 37965, Note_on_c, 1, 34, 0
1, 37977, Note_on_c, 9, 35, 0
1, 38003, Note_on_c, 9, 28, 40
1, 38007, Note_on_c, 9, 46, 54
1, 38013, Note_on_c, 1, 35, 80
1, 38017, Note_on_c, 9, 28, 0
1, 38017, Note_on_c, 0, 68, 93
1, 38033, Note_on_c, 0, 59, 80
1, 38033, Note_on_c, 0, 63, 80
1, 38069, Note_on_c, 0, 50, 48
1, 38073, Control_c, 0, 64, 0
1, 38073, Note_on_c, 9, 35, 47
1, 38081, Note_on_c, 0, 53, 45
1, 38089, Note_on_c, 9, 46, 0
1, 38099, Note_on_c, 9, 35, 0
1, 38137, Note_on_c, 0, 53, 0
1, 38161, Note_on_c, 0, 50, 0
1, 38241, Note_on_c, 0, 68, 0
1, 38259, Note_on_c, 9, 28, 54
1, 38293, Note_on_c, 0, 59, 0
1, 38295, Note_on_c, 9, 35, 42
1, 38337, Note_on_c, 9, 35, 0
1, 38341, Note_on_c, 0, 63, 0
1, 38365, Note_on_c, 1, 35, 0
1, 38381, Note_on_c, 0, 50, 47
1, 38381, Note_on_c, 1, 36, 59
1, 38387, Note_on_c, 9, 28, 57
1, 38401, Note_on_c, 9, 28, 0
1, 38445, Note_on_c, 0, 43, 0
1, 38457, Note_on_c, 0, 67, 64
1, 38461, Note_on_c, 0, 57, 56
1, 38469, Note_on_c, 0, 62, 51
1, 38481, Note_on_c, 0, 52, 51
1, 38545, Note_on_c, 0, 50, 0
1, 38669, Note_on_c, 1, 34, 62
1, 38717, Note_on_c, 1, 36, 0
1, 38771, Note_on_c, 9, 28, 50
1, 38775, Note_on_c, 9, 44, 96
1, 38785, Note_on_c, 9, 28, 0
1, 38785, Note_on_c, 9, 28, 0
1, 38789, Note_on_c, 1, 34, 0
1, 38789, Note_on_c, 1, 45, 60
1, 38793, Note_on_c, 0, 62, 0
1, 38857, Note_on_c, 0, 67, 0
1, 38897, Note_on_c, 9, 44, 0
1, 38941, Note_on_c, 0, 57, 0
1, 39155, Note_on_c, 9, 28, 43
1, 39169, Note_on_c, 9, 28, 0
1, 39177, Note_on_c, 1, 43, 55
1, 39177, Note_on_c, 9, 35, 33
1, 39185, Note_on_c, 1, 45, 0
1, 39209, Note_on_c, 9, 35, 0
1, 39221, Note_on_c, 0, 64, 51
1, 39225, Note_on_c, 0, 52, 0
1, 39225, Note_on_c, 0, 55, 48
1, 39241, Note_on_c, 0, 48, 40
1, 39381, Note_on_c, 0, 55, 0
1, 39393, Note_on_c, 9, 27, 70
1, 39417, Note_on_c, 0, 64, 0
1, 39431, Note_on_c, 9, 27, 0
1, 39465, Note_on_c, 0, 48, 0
1, 39465, Note_on_c, 0, 67, 76
1, 39497, Note_on_c, 1, 43, 0
1, 39497, Note_on_c, 0, 52, 54
1, 39521, Note_on_c, 0, 55, 34
1, 39521, Note_on_c, 0, 60, 28
1, 39539, Note_on_c, 9, 28, 46
1, 39543, Note_on_c, 9, 44, 87
1, 39545, Note_on_c, 1, 39, 59
1, 39553, Note_on_c, 9, 28, 0
1, 39577, Note_on_c, 0, 55, 0
1, 39577, Note_on_c, 0, 67, 0
1, 39581, Note_on_c, 0, 60, 0
1, 39593, Note_on_c, 0, 52, 0
1, 39609, Note_on_c, 0, 48, 42
1, 39681, Note_on_c, 9, 44, 0
1, 39923, Note_on_c, 9, 28, 50
1, 39929, Note_on_c, 1, 39, 0
1, 39937, Note_on_c, 9, 28, 0
1, 39937, Note_on_c, 1, 40, 57
1, 39965, Note_on_c, 0, 48, 0
1, 39997, Note_on_c, 0, 67, 65
1, 39997, Note_on_c, 0, 52, 60
1, 40025, Note_on_c, 0, 60, 51
1, 40041, Note_on_c, 0, 55, 46
1, 40067, Note_on_c, 9, 27, 63
1, 40093, Note_on_c, 9, 27, 0
1, 40193, Note_on_c, 9, 27, 66
1, 40227, Note_on_c, 9, 27, 0
1, 40245, Note_on_c, 1, 39, 46
1, 40257, Note_on_c, 1, 40, 0
1, 40305, Note_on_c, 1, 39, 0
1, 40307, Note_on_c, 9, 28, 46
1, 40311, Note_on_c, 9, 44, 96
1, 40317, Note_on_c, 1, 45, 71
1, 40321, Note_on_c, 9, 28, 0
1, 40325, Note_on_c, 0, 55, 0
1, 40333, Note_on_c, 0, 67, 0
1, 40333, Note_on_c, 1, 46, 43
1, 40377, Note_on_c, 0, 52, 0
1, 40401, Note_on_c, 9, 44, 0
1, 40429, Note_on_c, 0, 48, 43
1, 40465, Note_on_c, 0, 64, 37
1, 40513, Note_on_c, 0, 60, 0
1, 40545, Note_on_c, 0, 64, 0
1, 40567, Note_on_c, 9, 35, 35
1, 40593, Note_on_c, 0, 48, 0
1, 40599, Note_on_c, 9, 35, 0
1, 40621, Note_on_c, 0, 67, 77
1, 40645, Note_on_c, 0, 60, 61
1, 40645, Note_on_c, 0, 52, 57
1, 40669, Note_on_c, 0, 55, 42
1, 40685, Note_on_c, 1, 45, 0
1, 40689, Note_on_c, 1, 43, 62
1, 40691, Note_on_c, 9, 28, 43
1, 40705, Note_on_c, 9, 28, 0
1, 40713, Note_on_c, 0, 60, 0
1, 40725, Note_on_c, 0, 52, 0
1, 40729, Note_on_c, 0, 55, 0
1, 40737, Note_on_c, 0, 67, 0
1, 40877, Note_on_c, 0, 48, 8
1, 41025, Note_on_c, 1, 43, 0
1, 41065, Note_on_c, 1, 37, 70
1, 41075, Note_on_c, 9, 28, 49
1, 41079, Note_on_c, 9, 44, 96
1, 41085, Note_on_c, 1, 46, 0
1, 41089, Note_on_c, 9, 28, 0
1, 41133, Note_on_c, 0, 67, 70
1, 41145, Note_on_c, 0, 52, 56
1, 41153, Note_on_c, 0, 48, 0
1, 41157, Note_on_c, 0, 55, 52
1, 41177, Note_on_c, 0, 60, 51
1, 41191, Note_on_c, 9, 44, 0
1, 41297, Note_on_c, 0, 67, 0
1, 41333, Note_on_c, 0, 55, 0
1, 41345, Note_on_c, 9, 35, 35
1, 41353, Note_on_c, 0, 60, 0
1, 41377, Note_on_c, 9, 35, 0
1, 41441, Note_on_c, 1, 37, 0
1, 41459, Note_on_c, 9, 28, 41
1, 41461, Note_on_c, 1, 38, 55
1, 41469, Note_on_c, 0, 52, 0
1, 41473, Note_on_c, 9, 28, 0
1, 41513, Note_on_c, 0, 65, 64
1, 41525, Note_on_c, 0, 50, 49
1, 41549, Note_on_c, 0, 60, 31
1, 41693, Note_on_c, 0, 65, 0
1, 41729, Note_on_c, 0, 60, 0
1, 41761, Note_on_c, 1, 37, 55
1, 41805, Note_on_c, 1, 38, 0
1, 41843, Note_on_c, 9, 28, 48
1, 41847, Note_on_c, 9, 44, 89
1, 41857, Note_on_c, 9, 28, 0
1, 41861, Note_on_c, 1, 46, 75
1, 41873, Note_on_c, 0, 50, 0
1, 41889, Note_on_c, 1, 37, 0
1, 41889, Note_on_c, 0, 52, 57
1, 41897, Note_on_c, 0, 67, 70
1, 41901, Note_on_c, 0, 57, 53
1, 41917, Note_on_c, 0, 60, 50
1, 41975, Note_on_c, 9, 44, 0
1, 42085, Note_on_c, 0, 57, 0
1, 42087, Note_on_c, 9, 35, 42
1, 42097, Note_on_c, 0, 60, 0
1, 42113, Note_on_c, 9, 35, 0
1, 42117, Note_on_c, 0, 67, 0
1, 42181, Note_on_c, 0, 52, 0
1, 42209, Note_on_c, 1, 46, 0
1, 42227, Note_on_c, 9, 28, 49
1, 42241, Note_on_c, 9, 28, 0
1, 42257, Note_on_c, 1, 45, 59
1, 42309, Note_on_c, 0, 50, 38
1, 42341, Note_on_c, 0, 65, 26
1, 42449, Note_on_c, 0, 65, 0
1, 42505, Note_on_c, 1, 38, 63
1, 42517, Note_on_c, 1, 45, 0
1, 42525, Note_on_c, 0, 67, 58
1, 42549, Note_on_c, 0, 57, 55
1, 42561, Note_on_c, 0, 52, 60
1, 42561, Note_on_c, 0, 60, 56
1, 42569, Note_on_c, 0, 50, 0
1, 42585, Note_on_c, 1, 38, 0
1, 42597, Note_on_c, 0, 57, 0
1, 42601, Note_on_c, 0, 52, 0
1, 42605, Note_on_c, 0, 60, 0
1, 42611, Note_on_c, 9, 28, 49
1, 42615, Note_on_c, 9, 44, 87
1, 42617, Note_on_c, 1, 44, 68
1, 42625, Note_on_c, 9, 28, 0
1, 42649, Note_on_c, 0, 67, 0
1, 42753, Note_on_c, 9, 44, 0
1, 42865, Note_on_c, 9, 28, 50
1, 42941, Note_on_c, 1, 44, 0
1, 42995, Note_on_c, 9, 28, 32
1, 42997, Note_on_c, 1, 43, 63
1, 43009, Note_on_c, 9, 28, 0
1, 43033, Note_on_c, 9, 35, 22
1, 43041, Note_on_c, 0, 31, 64
1, 43053, Note_on_c, 9, 35, 0
1, 43057, Note_on_c, 0, 43, 36
1, 43209, Note_on_c, 0, 43, 0
1, 43209, Note_on_c, 0, 31, 0
1, 43353, Note_on_c, 1, 43, 0
1, 43379, Note_on_c, 9, 28, 48
1, 43381, Note_on_c, 1, 38, 67
1, 43383, Note_on_c, 9, 44, 87
1, 43393, Note_on_c, 9, 28, 0
1, 43393, Note_on_c, 9, 28, 0
1, 43441, Note_on_c, 0, 43, 44
1, 43445, Note_on_c, 0, 31, 37
1, 43525, Note_on_c, 0, 31, 0
1, 43527, Note_on_c, 9, 44, 0
1, 43597, Note_on_c, 0, 43, 0
1, 43763, Note_on_c, 9, 28, 52
1, 43777, Note_on_c, 9, 28, 0
1, 43777, Note_on_c, 1, 29, 68
1, 43789, Note_on_c, 1, 38, 0
1, 44041, Note_on_c, 9, 35, 36
1, 44083, Note_on_c, 9, 35, 0
1, 44147, Note_on_c, 9, 28, 46
1, 44149, Note_on_c, 1, 30, 68
1, 44151, Note_on_c, 9, 44, 84
1, 44161, Note_on_c, 1, 29, 0
1, 44161, Note_on_c, 9, 28, 0
1, 44193, Note_on_c, 9, 35, 49
1, 44289, Note_on_c, 9, 44, 0
1, 44313, Note_on_c, 9, 35, 0
1, 44425, Note_on_c, 9, 35, 57
1, 44477, Note_on_c, 9, 35, 0
1, 44497, Note_on_c, 1, 30, 0
1, 44531, Note_on_c, 9, 28, 58
1, 44533, Note_on_c, 1, 31, 63
1, 44541, Note_on_c, 0, 53, 62
1, 44545, Note_on_c, 9, 28, 0
1, 44557, Note_on_c, 0, 65, 65
1, 44569, Note_on_c, 0, 57, 57
1, 44569, Note_on_c, 0, 60, 57
1, 44681, Note_on_c, 1, 31, 0
1, 44713, Note_on_c, 0, 57, 0
1, 44713, Note_on_c, 0, 65, 0
1, 44729, Note_on_c, 0, 60, 0
1, 44777, Note_on_c, 1, 31, 61
1, 44861, Note_on_c, 1, 31, 0
1, 44877, Note_on_c, 0, 53, 0
1, 44909, Note_on_c, 1, 32, 63
1, 44915, Note_on_c, 9, 28, 44
1, 44919, Note_on_c, 9, 44, 85
1, 44929, Note_on_c, 9, 28, 0
1, 44949, Note_on_c, 0, 66, 56
1, 44949, Note_on_c, 0, 54, 58
1, 44953, Note_on_c, 0, 61, 53
1, 44953, Note_on_c, 0, 57, 61
1, 44953, Note_on_c, 0, 63, 53
1, 45015, Note_on_c, 9, 44, 0
1, 45171, Note_on_c, 9, 28, 48
1, 45177, Note_on_c, 0, 57, 0
1, 45181, Note_on_c, 0, 66, 0
1, 45205, Note_on_c, 0, 63, 0
1, 45205, Note_on_c, 0, 61, 0
1, 45299, Note_on_c, 9, 28, 56
1, 45313, Note_on_c, 1, 32, 0
1, 45313, Note_on_c, 9, 28, 0
1, 45321, Note_on_c, 0, 54, 0
1, 45321, Note_on_c, 1, 33, 64
1, 45329, Note_on_c, 0, 67, 73
1, 45329, Note_on_c, 0, 55, 61
1, 45337, Note_on_c, 0, 60, 68
1, 45341, Note_on_c, 0, 57, 61
1, 45381, Note_on_c, 0, 62, 45
1, 45457, Note_on_c, 0, 67, 0
1, 45497, Note_on_c, 0, 57, 0
1, 45521, Note_on_c, 0, 60, 0
1, 45529, Note_on_c, 0, 62, 0
1, 45597, Note_on_c, 0, 55, 0
1, 45681, Note_on_c, 1, 34, 68
1, 45683, Note_on_c, 9, 28, 60
1, 45687, Note_on_c, 9, 44, 82
1, 45697, Note_on_c, 9, 28, 0
1, 45697, Note_on_c, 9, 28, 0
1, 45701, Note_on_c, 0, 53, 53
1, 45701, Note_on_c, 0, 65, 62
1, 45705, Note_on_c, 1, 33, 0
1, 45717, Note_on_c, 0, 57, 51
1, 45729, Note_on_c, 0, 60, 58
1, 45805, Note_on_c, 0, 65, 0
1, 45815, Note_on_c, 9, 44, 0
1, 45897, Note_on_c, 0, 60, 0
1, 45925, Note_on_c, 0, 57, 0
1, 45955, Note_on_c, 9, 35, 59
1, 46023, Note_on_c, 9, 35, 0
1, 46065, Note_on_c, 0, 53, 0
1, 46067, Note_on_c, 9, 28, 56
1, 46077, Note_on_c, 1, 34, 0
1, 46081, Note_on_c, 9, 28, 0
1, 46081, Note_on_c, 0, 54, 63
1, 46089, Note_on_c, 0, 66, 67
1, 46089, Note_on_c, 1, 35, 68
1, 46109, Note_on_c, 0, 60, 58
1, 46113, Note_on_c, 0, 57, 56
1, 46161, Note_on_c, 0, 62, 32
1, 46233, Note_on_c, 0, 62, 0
1, 46261, Note_on_c, 0, 57, 0
1, 46277, Note_on_c, 0, 66, 0
1, 46277, Note_on_c, 0, 60, 0
1, 46297, Note_on_c, 0, 54, 0
1, 46341, Note_on_c, 0, 55, 64
1, 46349, Note_on_c, 0, 57, 47
1, 46357, Note_on_c, 0, 67, 56
1, 46369, Note_on_c, 0, 60, 40
1, 46405, Note_on_c, 0, 62, 44
1, 46451, Note_on_c, 9, 28, 55
1, 46455, Note_on_c, 9, 44, 70
1, 46457, Note_on_c, 1, 35, 0
1, 46465, Note_on_c, 9, 28, 0
1, 46481, Note_on_c, 1, 31, 68
1, 46513, Note_on_c, 9, 44, 0
1, 46513, Note_on_c, 0, 67, 0
1, 46601, Note_on_c, 0, 62, 0
1, 46641, Note_on_c, 0, 60, 0
1, 46653, Note_on_c, 0, 57, 0
1, 46781, Note_on_c, 0, 55, 0
1, 46813, Note_on_c, 1, 31, 0
1, 46835, Note_on_c, 9, 28, 46
1, 46849, Note_on_c, 9, 28, 0
1, 46853, Note_on_c, 0, 65, 46
1, 46853, Note_on_c, 0, 57, 56
1, 46861, Note_on_c, 0, 53, 41
1, 46861, Note_on_c, 0, 60, 51
1, 46861, Note_on_c, 1, 35, 64
1, 46913, Note_on_c, 0, 65, 0
1, 46981, Note_on_c, 0, 57, 0
1, 47001, Note_on_c, 0, 60, 0
1, 47209, Note_on_c, 1, 35, 0
1, 47219, Note_on_c, 9, 28, 43
1, 47223, Note_on_c, 9, 44, 66
1, 47229, Note_on_c, 0, 66, 74
1, 47229, Note_on_c, 0, 54, 62
1, 47233, Note_on_c, 9, 28, 0
1, 47233, Note_on_c, 1, 38, 68
1, 47249, Note_on_c, 9, 35, 31
1, 47261, Note_on_c, 0, 57, 62
1, 47261, Note_on_c, 0, 60, 55
1, 47287, Note_on_c, 9, 35, 0
1, 47329, Note_on_c, 9, 44, 0
1, 47377, Note_on_c, 0, 53, 0
1, 47409, Note_on_c, 0, 60, 0
1, 47421, Note_on_c, 0, 57, 0
1, 47475, Note_on_c, 9, 28, 49
1, 47485, Note_on_c, 0, 66, 0
1, 47485, Note_on_c, 0, 54, 0
1, 47497, Note_on_c, 9, 35, 52
1, 47523, Note_on_c, 9, 35, 0
1, 47533, Note_on_c, 1, 38, 0
1, 47569, Note_on_c, 1, 35, 56
1, 47601, Note_on_c, 0, 55, 64
1, 47603, Note_on_c, 9, 28, 46
1, 47617, Note_on_c, 9, 28, 0
1, 47625, Note_on_c, 0, 60, 68
1, 47625, Note_on_c, 0, 67, 65
1, 47633, Note_on_c, 0, 57, 58
1, 47653, Note_on_c, 1, 36, 73
1, 47673, Note_on_c, 0, 67, 0
1, 47701, Note_on_c, 1, 35, 0
1, 47721, Note_on_c, 0, 55, 0
1, 47729, Note_on_c, 0, 60, 0
1, 47753, Note_on_c, 0, 57, 0
1, 47965, Note_on_c, 1, 34, 57
1, 47981, Note_on_c, 0, 52, 68
1, 47985, Note_on_c, 0, 64, 70
1, 47987, Note_on_c, 9, 28, 41
1, 47991, Note_on_c, 9, 44, 80
1, 48001, Note_on_c, 9, 28, 0
1, 48001, Note_on_c, 9, 28, 0
1, 48001, Note_on_c, 0, 55, 61
1, 48001, Note_on_c, 0, 57, 66
1, 48029, Note_on_c, 1, 36, 0
1, 48029, Note_on_c, 1, 45, 62
1, 48041, Note_on_c, 0, 60, 46
1, 48093, Note_on_c, 1, 34, 0
1, 48109, Note_on_c, 9, 44, 0
1, 48259, Note_on_c, 9, 35, 33
1, 48291, Note_on_c, 9, 35, 0
1, 48313, Note_on_c, 1, 36, 39
1, 48321, Note_on_c, 0, 55, 0
1, 48353, Note_on_c, 0, 57, 0
1, 48361, Note_on_c, 0, 60, 0
1, 48365, Note_on_c, 1, 36, 0
1, 48371, Note_on_c, 9, 28, 41
1, 48385, Note_on_c, 9, 28, 0
1, 48401, Note_on_c, 0, 64, 0
1, 48401, Note_on_c, 1, 43, 66
1, 48405, Note_on_c, 1, 45, 0
1, 48441, Note_on_c, 0, 52, 0
1, 48473, Note_on_c, 0, 51, 43
1, 48565, Note_on_c, 0, 51, 0
1, 48609, Note_on_c, 0, 67, 76
1, 48617, Note_on_c, 0, 59, 76
1, 48617, Note_on_c, 0, 62, 68
1, 48621, Note_on_c, 0, 55, 62
1, 48625, Note_on_c, 9, 37, 35
1, 48645, Note_on_c, 0, 64, 54
1, 48647, Note_on_c, 9, 37, 0
1, 48725, Note_on_c, 0, 55, 0
1, 48753, Note_on_c, 1, 43, 0
1, 48755, Note_on_c, 9, 28, 48
1, 48759, Note_on_c, 9, 44, 78
1, 48769, Note_on_c, 9, 28, 0
1, 48777, Note_on_c, 1, 39, 63
1, 48871, Note_on_c, 9, 44, 0
1, 49069, Note_on_c, 0, 59, 0
1, 49097, Note_on_c, 0, 62, 0
1, 49105, Note_on_c, 0, 64, 0
1, 49125, Note_on_c, 1, 39, 0
1, 49139, Note_on_c, 9, 28, 48
1, 49145, Note_on_c, 0, 67, 0
1, 49153, Note_on_c, 9, 28, 0
1, 49153, Note_on_c, 1, 40, 65
1, 49157, Note_on_c, 0, 43, 90
1, 49425, Note_on_c, 9, 35, 29
1, 49449, Note_on_c, 9, 35, 0
1, 49509, Note_on_c, 1, 40, 0
1, 49523, Note_on_c, 9, 28, 48
1, 49527, Note_on_c, 9, 44, 85
1, 49537, Note_on_c, 9, 28, 0
1, 49545, Note_on_c, 1, 37, 60
1, 49655, Note_on_c, 9, 44, 0
1, 49779, Note_on_c, 9, 28, 46
1, 49797, Note_on_c, 0, 31, 76
1, 49877, Note_on_c, 1, 37, 0
1, 49905, Note_on_c, 9, 28, 42
1, 49911, Note_on_c, 9, 29, 64
1, 49917, Note_on_c, 1, 38, 60
1, 49921, Note_on_c, 9, 28, 0
1, 49993, Note_on_c, 0, 43, 0
1, 50225, Note_on_c, 0, 43, 73
1, 50277, Note_on_c, 1, 38, 0
1, 50291, Note_on_c, 9, 28, 56
1, 50295, Note_on_c, 9, 44, 85
1, 50305, Note_on_c, 9, 28, 0
1, 50305, Note_on_c, 9, 28, 0
1, 50305, Note_on_c, 1, 35, 66
1, 50317, Note_on_c, 0, 31, 0
1, 50353, Note_on_c, 0, 71, 67
1, 50369, Note_on_c, 0, 43, 0
1, 50423, Note_on_c, 9, 44, 0
1, 50521, Note_on_c, 0, 71, 0
1, 50589, Note_on_c, 0, 74, 73
1, 50675, Note_on_c, 9, 51, 127
1, 50679, Note_on_c, 9, 29, 0
1, 50681, Note_on_c, 9, 57, 19
1, 50689, Note_on_c, 9, 28, 0
1, 50689, Note_on_c, 1, 35, 0
1, 50689, Note_on_c, 1, 36, 63
1, 50709, Note_on_c, 0, 74, 0
1, 50753, Note_on_c, 9, 51, 0
1, 50769, Note_on_c, 9, 35, 40
1, 50785, Note_on_c, 0, 72, 45
1, 50793, Note_on_c, 9, 35, 0
1, 50997, Note_on_c, 1, 34, 57
1, 51001, Note_on_c, 0, 72, 0
1, 51009, Note_on_c, 0, 62, 28
1, 51033, Note_on_c, 0, 57, 53
1, 51059, Note_on_c, 0, 62, 0
1, 51059, Note_on_c, 9, 51, 64
1, 51061, Note_on_c, 1, 36, 0
1, 51063, Note_on_c, 9, 44, 91
1, 51069, Note_on_c, 1, 50, 87
1, 51081, Note_on_c, 0, 57, 0
1, 51097, Note_on_c, 0, 67, 46
1, 51109, Note_on_c, 1, 34, 0
1, 51201, Note_on_c, 9, 44, 0
1, 51281, Note_on_c, 0, 67, 0
1, 51385, Note_on_c, 9, 51, 0
1, 51443, Note_on_c, 9, 51, 98
1, 51449, Note_on_c, 1, 50, 0
1, 51457, Note_on_c, 1, 48, 68
1, 51473, Note_on_c, 0, 67, 47
1, 51513, Note_on_c, 9, 57, 0
1, 51685, Note_on_c, 0, 67, 0
1, 51763, Note_on_c, 9, 51, 0
1, 51827, Note_on_c, 9, 51, 59
1, 51831, Note_on_c, 9, 44, 98
1, 51853, Note_on_c, 0, 65, 58
1, 51853, Note_on_c, 1, 42, 81
1, 51943, Note_on_c, 9, 44, 0
1, 51949, Note_on_c, 1, 48, 0
1, 52041, Note_on_c, 9, 51, 0
1, 52045, Note_on_c, 0, 65, 0
1, 52083, Note_on_c, 9, 51, 75
1, 52105, Note_on_c, 9, 35, 28
1, 52137, Note_on_c, 0, 57, 29
1, 52151, Note_on_c, 9, 51, 0
1, 52163, Note_on_c, 9, 35, 0
1, 52189, Note_on_c, 0, 57, 0
1, 52211, Note_on_c, 9, 51, 66
1, 52225, Note_on_c, 9, 35, 24
1, 52229, Note_on_c, 1, 42, 0
1, 52253, Note_on_c, 0, 64, 54
1, 52257, Note_on_c, 1, 43, 67
1, 52407, Note_on_c, 9, 35, 0
1, 52441, Note_on_c, 0, 64, 0
1, 52497, Note_on_c, 0, 60, 53
1, 52499, Note_on_c, 9, 51, 0
1, 52503, Note_on_c, 9, 35, 31
1, 52535, Note_on_c, 9, 35, 0
1, 52569, Note_on_c, 1, 43, 0
1, 52595, Note_on_c, 9, 51, 64
1, 52599, Note_on_c, 9, 44, 84
1, 52609, Note_on_c, 1, 39, 66
1, 52737, Note_on_c, 0, 60, 0
1, 52745, Note_on_c, 9, 44, 0
1, 52777, Note_on_c, 9, 51, 0
1, 52851, Note_on_c, 9, 51, 82
1, 52915, Note_on_c, 9, 51, 0
1, 52941, Note_on_c, 1, 39, 0
1, 52969, Note_on_c, 1, 40, 66
1, 52979, Note_on_c, 9, 51, 47
1, 53017, Note_on_c, 0, 60, 65
1, 53207, Note_on_c, 9, 51, 0
1, 53235, Note_on_c, 9, 53, 64
1, 53315, Note_on_c, 9, 53, 0
1, 53329, Note_on_c, 1, 40, 0
1, 53349, Note_on_c, 0, 60, 0
1, 53357, Note_on_c, 1, 37, 64
1, 53363, Note_on_c, 9, 51, 78
1, 53367, Note_on_c, 9, 44, 91
1, 53511, Note_on_c, 9, 44, 0
1, 53511, Note_on_c, 9, 34, 43
1, 53549, Note_on_c, 9, 34, 0
1, 53597, Note_on_c, 0, 74, 81
1, 53653, Note_on_c, 0, 65, 59
1, 53689, Note_on_c, 9, 51, 0
1, 53697, Note_on_c, 0, 65, 0
1, 53709, Note_on_c, 0, 56, 31
1, 53713, Note_on_c, 1, 37, 0
1, 53721, Note_on_c, 0, 60, 27
1, 53733, Note_on_c, 1, 38, 50
1, 53747, Note_on_c, 9, 51, 84
1, 53773, Note_on_c, 0, 60, 0
1, 53805, Note_on_c, 0, 72, 61
1, 53813, Note_on_c, 0, 56, 0
1, 53901, Note_on_c, 0, 74, 0
1, 54021, Note_on_c, 0, 72, 0
1, 54065, Note_on_c, 1, 38, 0
1, 54071, Note_on_c, 9, 51, 0
1, 54131, Note_on_c, 9, 51, 75
1, 54135, Note_on_c, 9, 44, 99
1, 54141, Note_on_c, 0, 69, 58
1, 54141, Note_on_c, 1, 40, 61
1, 54153, Note_on_c, 9, 35, 17
1, 54257, Note_on_c, 9, 44, 0
1, 54307, Note_on_c, 9, 35, 0
1, 54339, Note_on_c, 9, 51, 0
1, 54385, Note_on_c, 9, 51, 75
1, 54403, Note_on_c, 9, 35, 26
1, 54405, Note_on_c, 0, 69, 0
1, 54435, Note_on_c, 9, 35, 0
1, 54439, Note_on_c, 9, 51, 0
1, 54515, Note_on_c, 9, 51, 87
1, 54517, Note_on_c, 1, 41, 63
1, 54529, Note_on_c, 1, 40, 0
1, 54537, Note_on_c, 0, 69, 62
1, 54809, Note_on_c, 0, 69, 0
1, 54809, Note_on_c, 1, 39, 42
1, 54819, Note_on_c, 9, 51, 0
1, 54873, Note_on_c, 1, 39, 0
1, 54885, Note_on_c, 1, 41, 0
1, 54897, Note_on_c, 1, 45, 63
1, 54899, Note_on_c, 9, 51, 73
1, 54903, Note_on_c, 9, 44, 96
1, 54937, Note_on_c, 0, 65, 53
1, 55073, Note_on_c, 9, 44, 0
1, 55123, Note_on_c, 9, 51, 0
1, 55141, Note_on_c, 0, 65, 0
1, 55155, Note_on_c, 9, 51, 75
1, 55159, Note_on_c, 9, 35, 24
1, 55193, Note_on_c, 0, 60, 42
1, 55201, Note_on_c, 9, 35, 0
1, 55207, Note_on_c, 9, 51, 0
1, 55209, Note_on_c, 1, 41, 45
1, 55249, Note_on_c, 0, 60, 0
1, 55253, Note_on_c, 1, 45, 0
1, 55261, Note_on_c, 1, 41, 0
1, 55281, Note_on_c, 9, 35, 33
1, 55283, Note_on_c, 9, 51, 77
1, 55297, Note_on_c, 1, 52, 63
1, 55313, Note_on_c, 0, 65, 40
1, 55481, Note_on_c, 9, 35, 0
1, 55513, Note_on_c, 0, 65, 0
1, 55555, Note_on_c, 9, 35, 36
1, 55565, Note_on_c, 0, 62, 52
1, 55577, Note_on_c, 9, 51, 0
1, 55581, Note_on_c, 9, 35, 0
1, 55605, Note_on_c, 1, 52, 0
1, 55661, Note_on_c, 1, 51, 66
1, 55667, Note_on_c, 9, 51, 87
1, 55671, Note_on_c, 9, 44, 98
1, 55825, Note_on_c, 0, 62, 0
1, 55831, Note_on_c, 9, 44, 0
1, 55881, Note_on_c, 9, 51, 0
1, 55923, Note_on_c, 9, 51, 70
1, 55959, Note_on_c, 9, 51, 0
1, 56049, Note_on_c, 1, 49, 58
1, 56051, Note_on_c, 9, 51, 75
1, 56057, Note_on_c, 1, 51, 0
1, 56077, Note_on_c, 0, 62, 56
1, 56231, Note_on_c, 9, 51, 0
1, 56269, Note_on_c, 0, 62, 0
1, 56307, Note_on_c, 9, 51, 77
1, 56329, Note_on_c, 9, 51, 0
1, 56377, Note_on_c, 0, 60, 57
1, 56389, Note_on_c, 0, 56, 43
1, 56401, Note_on_c, 0, 55, 38
1, 56433, Note_on_c, 9, 40, 38
1, 56435, Note_on_c, 9, 51, 112
1, 56439, Note_on_c, 9, 46, 42
1, 56441, Note_on_c, 1, 44, 69
1, 56445, Note_on_c, 0, 60, 0
1, 56449, Note_on_c, 0, 56, 0
1, 56451, Note_on_c, 9, 40, 0
1, 56457, Note_on_c, 0, 55, 0
1, 56485, Note_on_c, 1, 49, 0
1, 56551, Note_on_c, 9, 46, 0
1, 56649, Note_on_c, 9, 51, 0
1, 56665, Note_on_c, 9, 40, 46
1, 56713, Note_on_c, 9, 40, 0
1, 56819, Note_on_c, 9, 51, 99
1, 56841, Note_on_c, 1, 43, 63
1, 56845, Note_on_c, 1, 44, 0
1, 56873, Note_on_c, 0, 65, 45
1, 56885, Note_on_c, 0, 55, 24
1, 56889, Note_on_c, 0, 60, 50
1, 56913, Note_on_c, 0, 57, 28
1, 56913, Note_on_c, 9, 35, 40
1, 56937, Note_on_c, 9, 35, 0
1, 57053, Note_on_c, 0, 60, 0
1, 57061, Note_on_c, 0, 55, 0
1, 57097, Note_on_c, 0, 65, 0
1, 57111, Note_on_c, 9, 51, 0
1, 57117, Note_on_c, 0, 57, 0
1, 57193, Note_on_c, 1, 43, 0
1, 57203, Note_on_c, 9, 51, 64
1, 57207, Note_on_c, 9, 44, 91
1, 57269, Note_on_c, 1, 33, 39
1, 57269, Note_on_c, 1, 31, 54
1, 57345, Note_on_c, 9, 44, 0
1, 57449, Note_on_c, 1, 33, 0
1, 57469, Note_on_c, 0, 65, 46
1, 57473, Note_on_c, 1, 31, 0
1, 57477, Note_on_c, 0, 60, 53
1, 57501, Note_on_c, 0, 55, 39
1, 57501, Note_on_c, 0, 57, 44
1, 57529, Note_on_c, 9, 51, 0
1, 57587, Note_on_c, 9, 51, 98
1, 57613, Note_on_c, 1, 31, 75
1, 57907, Note_on_c, 9, 51, 0
1, 57937, Note_on_c, 0, 57, 0
1, 57969, Note_on_c, 0, 65, 0
1, 57971, Note_on_c, 9, 51, 59
1, 57973, Note_on_c, 1, 43, 82
1, 57975, Note_on_c, 9, 44, 98
1, 57997, Note_on_c, 1, 31, 0
1, 58017, Note_on_c, 0, 79, 97
1, 58037, Note_on_c, 0, 60, 0
1, 58057, Note_on_c, 0, 55, 0
1, 58087, Note_on_c, 9, 44, 0
1, 58185, Note_on_c, 9, 51, 0
1, 58227, Note_on_c, 9, 51, 75
1, 58249, Note_on_c, 9, 35, 28
1, 58261, Note_on_c, 0, 78, 68
1, 58293, Note_on_c, 0, 79, 0
1, 58295, Note_on_c, 9, 51, 0
1, 58307, Note_on_c, 9, 35, 0
1, 58333, Note_on_c, 0, 65, 41
1, 58355, Note_on_c, 9, 51, 66
1, 58357, Note_on_c, 0, 60, 51
1, 58369, Note_on_c, 9, 35, 24
1, 58373, Note_on_c, 0, 56, 40
1, 58373, Note_on_c, 1, 31, 54
1, 58381, Note_on_c, 0, 55, 32
1, 58397, Note_on_c, 0, 78, 0
1, 58433, Note_on_c, 0, 79, 54
1, 58551, Note_on_c, 9, 35, 0
1, 58617, Note_on_c, 0, 65, 0
1, 58643, Note_on_c, 9, 51, 0
1, 58647, Note_on_c, 9, 35, 31
1, 58649, Note_on_c, 0, 79, 0
1, 58661, Note_on_c, 0, 80, 71
1, 58679, Note_on_c, 9, 35, 0
1, 58713, Note_on_c, 1, 43, 0
1, 58737, Note_on_c, 0, 56, 0
1, 58739, Note_on_c, 0, 60, 0
1, 58739, Note_on_c, 9, 51, 64
1, 58743, Note_on_c, 9, 44, 84
1, 58761, Note_on_c, 1, 44, 84
1, 58769, Note_on_c, 0, 55, 0
1, 58789, Note_on_c, 1, 31, 0
1, 58853, Note_on_c, 0, 82, 69
1, 58857, Note_on_c, 0, 80, 0
1, 58889, Note_on_c, 9, 44, 0
1, 58921, Note_on_c, 9, 51, 0
1, 58995, Note_on_c, 9, 51, 82
1, 59005, Note_on_c, 0, 82, 0
1, 59029, Note_on_c, 0, 83, 86
1, 59041, Note_on_c, 0, 65, 55
1, 59059, Note_on_c, 9, 51, 0
1, 59089, Note_on_c, 0, 65, 0
1, 59093, Note_on_c, 0, 56, 38
1, 59097, Note_on_c, 0, 60, 39
1, 59123, Note_on_c, 9, 51, 47
1, 59153, Note_on_c, 0, 60, 0
1, 59165, Note_on_c, 1, 43, 66
1, 59177, Note_on_c, 0, 83, 0
1, 59201, Note_on_c, 0, 85, 68
1, 59241, Note_on_c, 0, 56, 0
1, 59289, Note_on_c, 1, 44, 0
1, 59351, Note_on_c, 9, 51, 0
1, 59365, Note_on_c, 0, 85, 0
1, 59379, Note_on_c, 9, 53, 64
1, 59393, Note_on_c, 1, 38, 66
1, 59397, Note_on_c, 1, 43, 0
1, 59401, Note_on_c, 0, 86, 101
1, 59429, Note_on_c, 0, 64, 70
1, 59437, Note_on_c, 0, 59, 70
1, 59459, Note_on_c, 9, 53, 0
1, 59461, Note_on_c, 0, 53, 55
1, 59505, Note_on_c, 1, 38, 0
1, 59507, Note_on_c, 9, 51, 78
1, 59511, Note_on_c, 9, 44, 91
1, 59521, Note_on_c, 0, 86, 0
1, 59525, Note_on_c, 1, 31, 70
1, 59569, Note_on_c, 0, 87, 69
1, 59655, Note_on_c, 9, 44, 0
1, 59655, Note_on_c, 9, 34, 43
1, 59665, Note_on_c, 0, 64, 0
1, 59689, Note_on_c, 0, 53, 0
1, 59693, Note_on_c, 9, 34, 0
1, 59785, Note_on_c, 0, 87, 0
1, 59785, Note_on_c, 0, 59, 0
1, 59805, Note_on_c, 0, 88, 85
1, 59833, Note_on_c, 9, 51, 0
1, 59837, Note_on_c, 1, 38, 49
1, 59881, Note_on_c, 1, 38, 0
1, 59891, Note_on_c, 9, 51, 84
1, 59913, Note_on_c, 0, 88, 0
1, 59913, Note_on_c, 1, 44, 71
1, 59929, Note_on_c, 1, 31, 0
1, 59957, Note_on_c, 0, 62, 56
1, 59965, Note_on_c, 0, 89, 109
1, 59981, Note_on_c, 0, 55, 60
1, 59989, Note_on_c, 0, 59, 52
1, 59993, Note_on_c, 0, 52, 47
1, 60181, Note_on_c, 0, 89, 0
1, 60193, Note_on_c, 0, 87, 80
1, 60215, Note_on_c, 9, 51, 0
1, 60225, Note_on_c, 1, 38, 34
1, 60275, Note_on_c, 9, 51, 75
1, 60279, Note_on_c, 9, 44, 99
1, 60281, Note_on_c, 1, 38, 0
1, 60289, Note_on_c, 0, 62, 0
1, 60289, Note_on_c, 1, 43, 62
1, 60297, Note_on_c, 9, 35, 17
1, 60301, Note_on_c, 0, 87, 0
1, 60313, Note_on_c, 0, 59, 0
1, 60361, Note_on_c, 0, 88, 78
1, 60401, Note_on_c, 9, 44, 0
1, 60451, Note_on_c, 9, 35, 0
1, 60469, Note_on_c, 0, 55, 0
1, 60483, Note_on_c, 9, 51, 0
1, 60529, Note_on_c, 0, 88, 0
1, 60529, Note_on_c, 9, 51, 75
1, 60547, Note_on_c, 9, 35, 26
1, 60569, Note_on_c, 0, 84, 82
1, 60579, Note_on_c, 9, 35, 0
1, 60583, Note_on_c, 9, 51, 0
1, 60621, Note_on_c, 0, 59, 48
1, 60637, Note_on_c, 1, 43, 0
1, 60637, Note_on_c, 0, 52, 0
1, 60637, Note_on_c, 1, 44, 0
1, 60637, Note_on_c, 0, 62, 46
1, 60659, Note_on_c, 9, 51, 87
1, 60685, Note_on_c, 1, 31, 63
1, 60701, Note_on_c, 0, 84, 0
1, 60741, Note_on_c, 0, 79, 67
1, 60757, Note_on_c, 0, 59, 0
1, 60861, Note_on_c, 0, 79, 0
1, 60941, Note_on_c, 0, 77, 90
1, 60957, Note_on_c, 1, 37, 32
1, 60963, Note_on_c, 9, 51, 0
1, 61009, Note_on_c, 1, 37, 0
1, 61013, Note_on_c, 1, 31, 0
1, 61033, Note_on_c, 0, 77, 0
1, 61037, Note_on_c, 1, 42, 65
1, 61043, Note_on_c, 9, 51, 73
1, 61047, Note_on_c, 9, 44, 96
1, 61209, Note_on_c, 0, 62, 0
1, 61217, Note_on_c, 9, 44, 0
1, 61267, Note_on_c, 9, 51, 0
1, 61299, Note_on_c, 9, 51, 75
1, 61303, Note_on_c, 9, 35, 24
1, 61321, Note_on_c, 0, 71, 42
1, 61325, Note_on_c, 0, 72, 40
1, 61345, Note_on_c, 9, 35, 0
1, 61351, Note_on_c, 9, 51, 0
1, 61369, Note_on_c, 0, 61, 56
1, 61377, Note_on_c, 0, 71, 0
1, 61385, Note_on_c, 0, 72, 0
1, 61425, Note_on_c, 9, 35, 33
1, 61427, Note_on_c, 9, 51, 77
1, 61453, Note_on_c, 1, 42, 0
1, 61457, Note_on_c, 1, 43, 63
1, 61465, Note_on_c, 0, 75, 83
1, 61493, Note_on_c, 0, 61, 0
1, 61597, Note_on_c, 0, 75, 0
1, 61625, Note_on_c, 9, 35, 0
1, 61681, Note_on_c, 0, 76, 93
1, 61699, Note_on_c, 9, 35, 36
1, 61721, Note_on_c, 9, 51, 0
1, 61725, Note_on_c, 9, 35, 0
1, 61765, Note_on_c, 0, 61, 50
1, 61785, Note_on_c, 0, 55, 38
1, 61801, Note_on_c, 1, 43, 0
1, 61811, Note_on_c, 9, 51, 87
1, 61815, Note_on_c, 9, 44, 98
1, 61817, Note_on_c, 0, 76, 0
1, 61841, Note_on_c, 0, 55, 0
1, 61841, Note_on_c, 0, 61, 0
1, 61849, Note_on_c, 0, 77, 92
1, 61849, Note_on_c, 1, 31, 85
1, 61975, Note_on_c, 9, 44, 0
1, 61997, Note_on_c, 0, 77, 0
1, 62025, Note_on_c, 9, 51, 0
1, 62049, Note_on_c, 0, 78, 102
1, 62067, Note_on_c, 9, 51, 70
1, 62103, Note_on_c, 9, 51, 0
1, 62105, Note_on_c, 0, 64, 67
1, 62105, Note_on_c, 0, 59, 68
1, 62145, Note_on_c, 0, 53, 42
1, 62177, Note_on_c, 0, 78, 0
1, 62181, Note_on_c, 1, 31, 0
1, 62195, Note_on_c, 9, 51, 75
1, 62213, Note_on_c, 0, 79, 93
1, 62213, Note_on_c, 1, 33, 56
1, 62365, Note_on_c, 0, 79, 0
1, 62375, Note_on_c, 9, 51, 0
1, 62397, Note_on_c, 0, 59, 0
1, 62449, Note_on_c, 0, 76, 76
1, 62451, Note_on_c, 9, 51, 77
1, 62465, Note_on_c, 0, 64, 0
1, 62473, Note_on_c, 9, 51, 0
1, 62557, Note_on_c, 1, 33, 0
1, 62557, Note_on_c, 0, 76, 0
1, 62561, Note_on_c, 1, 35, 68
1, 62577, Note_on_c, 9, 40, 38
1, 62579, Note_on_c, 9, 51, 112
1, 62583, Note_on_c, 9, 46, 42
1, 62595, Note_on_c, 9, 40, 0
1, 62597, Note_on_c, 0, 72, 54
1, 62621, Note_on_c, 0, 53, 0
1, 62695, Note_on_c, 9, 46, 0
1, 62793, Note_on_c, 9, 51, 0
1, 62809, Note_on_c, 9, 40, 46
1, 62845, Note_on_c, 0, 72, 0
1, 62853, Note_on_c, 0, 69, 60
1, 62857, Note_on_c, 9, 40, 0
1, 62877, Note_on_c, 0, 62, 37
1, 62889, Note_on_c, 0, 57, 37
1, 62933, Note_on_c, 0, 69, 0
1, 62949, Note_on_c, 1, 35, 0
1, 62953, Note_on_c, 0, 52, 38
1, 62963, Note_on_c, 9, 51, 99
1, 62973, Note_on_c, 1, 36, 51
1, 62981, Note_on_c, 0, 74, 80
1, 62983, Note_on_c, 9, 35, 22
1, 63021, Note_on_c, 9, 35, 0
1, 63033, Note_on_c, 0, 57, 0
1, 63065, Note_on_c, 0, 62, 0
1, 63185, Note_on_c, 0, 74, 0
1, 63225, Note_on_c, 0, 71, 64
1, 63255, Note_on_c, 9, 51, 0
1, 63273, Note_on_c, 1, 34, 39
1, 63309, Note_on_c, 0, 71, 0
1, 63331, Note_on_c, 9, 35, 36
1, 63347, Note_on_c, 9, 51, 73
1, 63351, Note_on_c, 9, 44, 70
1, 63353, Note_on_c, 1, 41, 62
1, 63389, Note_on_c, 0, 72, 65
1, 63409, Note_on_c, 0, 52, 0
1, 63413, Note_on_c, 1, 36, 0
1, 63425, Note_on_c, 1, 34, 0
1, 63521, Note_on_c, 9, 44, 0
1, 63545, Note_on_c, 9, 35, 0
1, 63561, Note_on_c, 9, 51, 0
1, 63573, Note_on_c, 0, 72, 0
1, 63597, Note_on_c, 0, 67, 49
1, 63603, Note_on_c, 9, 51, 56
1, 63641, Note_on_c, 0, 54, 48
1, 63641, Note_on_c, 0, 55, 48
1, 63673, Note_on_c, 9, 51, 0
1, 63697, Note_on_c, 0, 54, 0
1, 63731, Note_on_c, 9, 51, 82
1, 63745, Note_on_c, 1, 41, 0
1, 63745, Note_on_c, 0, 67, 0
1, 63761, Note_on_c, 1, 40, 57
1, 63777, Note_on_c, 0, 64, 43
1, 63891, Note_on_c, 9, 51, 0
1, 63977, Note_on_c, 0, 64, 0
1, 63987, Note_on_c, 9, 51, 75
1, 63991, Note_on_c, 9, 35, 24
1, 64007, Note_on_c, 9, 51, 0
1, 64013, Note_on_c, 9, 35, 0
1, 64113, Note_on_c, 9, 35, 54
1, 64115, Note_on_c, 9, 51, 124
1, 64119, Note_on_c, 9, 44, 82
1, 64121, Note_on_c, 1, 40, 0
1, 64121, Note_on_c, 0, 64, 57
1, 64121, Note_on_c, 1, 35, 58
1, 64245, Note_on_c, 0, 55, 0
1, 64273, Note_on_c, 9, 44, 0
1, 64323, Note_on_c, 9, 35, 0
1, 64369, Note_on_c, 9, 35, 54
1, 64393, Note_on_c, 9, 51, 0
1, 64397, Note_on_c, 0, 64, 0
1, 64439, Note_on_c, 9, 35, 0
1, 64499, Note_on_c, 9, 51, 91
1, 64501, Note_on_c, 1, 35, 0
1, 64513, Note_on_c, 0, 64, 58
1, 64517, Note_on_c, 1, 36, 57
1, 64773, Note_on_c, 0, 64, 0
1, 64793, Note_on_c, 9, 51, 0
1, 64817, Note_on_c, 0, 57, 34
1, 64883, Note_on_c, 9, 51, 78
1, 64887, Note_on_c, 9, 44, 91
1, 64889, Note_on_c, 0, 57, 0
1, 64897, Note_on_c, 0, 65, 55
1, 64897, Note_on_c, 1, 38, 64
1, 64937, Note_on_c, 1, 36, 0
1, 65009, Note_on_c, 9, 44, 0
1, 65091, Note_on_c, 9, 51, 0
1, 65133, Note_on_c, 0, 65, 0
1, 65139, Note_on_c, 9, 51, 82
1, 65187, Note_on_c, 9, 51, 0
1, 65237, Note_on_c, 1, 38, 0
1, 65267, Note_on_c, 9, 51, 56
1, 65281, Note_on_c, 1, 40, 70
1, 65313, Note_on_c, 0, 67, 60
1, 65369, Note_on_c, 9, 34, 26
1, 65411, Note_on_c, 9, 34, 0
1, 65475, Note_on_c, 9, 51, 0
1, 65511, Note_on_c, 9, 35, 36
1, 65523, Note_on_c, 0, 67, 0
1, 65523, Note_on_c, 9, 51, 50
1, 65543, Note_on_c, 9, 35, 0
1, 65555, Note_on_c, 9, 51, 0
1, 65621, Note_on_c, 0, 60, 50
1, 65637, Note_on_c, 1, 40, 0
1, 65641, Note_on_c, 9, 34, 18
1, 65645, Note_on_c, 1, 37, 66
1, 65651, Note_on_c, 9, 51, 85
1, 65655, Note_on_c, 9, 44, 89
1, 65697, Note_on_c, 9, 34, 0
1, 65777, Note_on_c, 9, 44, 0
1, 65779, Note_on_c, 9, 35, 54
1, 65801, Note_on_c, 9, 35, 0
1, 65873, Note_on_c, 0, 60, 0
1, 65889, Note_on_c, 9, 34, 34
1, 65929, Note_on_c, 9, 34, 0
1, 65929, Note_on_c, 9, 51, 0
1, 66029, Note_on_c, 1, 37, 0
1, 66029, Note_on_c, 1, 38, 72
1, 66035, Note_on_c, 9, 51, 94
1, 66343, Note_on_c, 9, 51, 0
1, 66413, Note_on_c, 1, 38, 0
1, 66419, Note_on_c, 9, 51, 68
1, 66423, Note_on_c, 9, 44, 80
1, 66437, Note_on_c, 1, 40, 68
1, 66561, Note_on_c, 9, 44, 0
1, 66643, Note_on_c, 9, 51, 0
1, 66675, Note_on_c, 9, 51, 59
1, 66739, Note_on_c, 9, 51, 0
1, 66801, Note_on_c, 1, 40, 0
1, 66803, Note_on_c, 9, 51, 73
1, 66809, Note_on_c, 1, 41, 68
1, 66857, Note_on_c, 0, 65, 44
1, 66889, Note_on_c, 0, 56, 33
1, 66901, Note_on_c, 0, 60, 37
1, 66925, Note_on_c, 0, 65, 0
1, 66961, Note_on_c, 0, 60, 0
1, 66977, Note_on_c, 0, 56, 0
1, 67049, Note_on_c, 9, 35, 75
1, 67123, Note_on_c, 9, 51, 0
1, 67153, Note_on_c, 9, 35, 0
1, 67153, Note_on_c, 1, 41, 0
1, 67187, Note_on_c, 9, 51, 87
1, 67191, Note_on_c, 9, 44, 98
1, 67193, Note_on_c, 1, 45, 64
1, 67203, Note_on_c, 9, 35, 26
1, 67255, Note_on_c, 9, 35, 0
1, 67329, Note_on_c, 9, 44, 0
1, 67401, Note_on_c, 9, 51, 0
1, 67443, Note_on_c, 9, 51, 57
1, 67511, Note_on_c, 9, 51, 0
1, 67541, Note_on_c, 1, 45, 0
1, 67541, Note_on_c, 1, 41, 49
1, 67571, Note_on_c, 9, 51, 94
1, 67593, Note_on_c, 1, 41, 0
1, 67593, Note_on_c, 1, 52, 68
1, 67783, Note_on_c, 9, 51, 0
1, 67827, Note_on_c, 9, 51, 61
1, 67879, Note_on_c, 9, 51, 0
1, 67889, Note_on_c, 1, 52, 0
1, 67945, Note_on_c, 1, 41, 43
1, 67955, Note_on_c, 9, 51, 98
1, 67959, Note_on_c, 9, 44, 80
1, 67961, Note_on_c, 1, 51, 63
1, 67993, Note_on_c, 1, 41, 0
1, 68113, Note_on_c, 9, 44, 0
1, 68165, Note_on_c, 0, 61, 58
1, 68215, Note_on_c, 9, 35, 54
1, 68243, Note_on_c, 9, 51, 0
1, 68247, Note_on_c, 9, 35, 0
1, 68285, Note_on_c, 0, 65, 80
1, 68297, Note_on_c, 0, 61, 0
1, 68297, Note_on_c, 0, 62, 60
1, 68301, Note_on_c, 1, 51, 0
1, 68339, Note_on_c, 9, 51, 70
1, 68343, Note_on_c, 9, 35, 36
1, 68349, Note_on_c, 1, 50, 57
1, 68377, Note_on_c, 0, 65, 0
1, 68377, Note_on_c, 9, 35, 0
1, 68493, Note_on_c, 0, 63, 67
1, 68521, Note_on_c, 0, 62, 0
1, 68545, Note_on_c, 0, 66, 94
1, 68579, Note_on_c, 9, 51, 0
1, 68595, Note_on_c, 9, 51, 45
1, 68663, Note_on_c, 9, 51, 0
1, 68673, Note_on_c, 0, 66, 0
1, 68705, Note_on_c, 0, 63, 0
1, 68723, Note_on_c, 9, 51, 80
1, 68727, Note_on_c, 9, 44, 87
1, 68729, Note_on_c, 1, 44, 70
1, 68741, Note_on_c, 0, 64, 70
1, 68765, Note_on_c, 1, 50, 0
1, 68773, Note_on_c, 0, 67, 92
1, 68855, Note_on_c, 9, 44, 0
1, 68865, Note_on_c, 9, 35, 52
1, 68887, Note_on_c, 9, 35, 0
1, 68897, Note_on_c, 0, 67, 0
1, 68921, Note_on_c, 9, 51, 0
1, 68957, Note_on_c, 0, 64, 0
1, 68979, Note_on_c, 9, 51, 47
1, 68983, Note_on_c, 9, 35, 47
1, 69009, Note_on_c, 9, 35, 0
1, 69013, Note_on_c, 0, 68, 94
1, 69027, Note_on_c, 9, 51, 0
1, 69045, Note_on_c, 0, 63, 19
1, 69101, Note_on_c, 1, 44, 0
1, 69105, Note_on_c, 0, 65, 37
1, 69107, Note_on_c, 9, 51, 108
1, 69113, Note_on_c, 1, 45, 67
1, 69117, Note_on_c, 0, 63, 0
1, 69137, Note_on_c, 0, 68, 0
1, 69225, Note_on_c, 0, 69, 87
1, 69289, Note_on_c, 0, 65, 0
1, 69297, Note_on_c, 0, 66, 62
1, 69333, Note_on_c, 0, 69, 0
1, 69443, Note_on_c, 9, 51, 0
1, 69443, Note_on_c, 0, 66, 0
1, 69445, Note_on_c, 0, 70, 88
1, 69477, Note_on_c, 0, 67, 58
1, 69489, Note_on_c, 9, 51, 68
1, 69495, Note_on_c, 9, 44, 89
1, 69501, Note_on_c, 1, 48, 75
1, 69533, Note_on_c, 1, 45, 0
1, 69549, Note_on_c, 0, 70, 0
1, 69585, Note_on_c, 9, 44, 0
1, 69649, Note_on_c, 0, 71, 82
1, 69673, Note_on_c, 0, 67, 0
1, 69677, Note_on_c, 0, 68, 61
1, 69689, Note_on_c, 9, 51, 0
1, 69737, Note_on_c, 0, 71, 0
1, 69745, Note_on_c, 9, 51, 64
1, 69817, Note_on_c, 0, 68, 0
1, 69817, Note_on_c, 9, 51, 0
1, 69829, Note_on_c, 1, 48, 0
1, 69861, Note_on_c, 0, 72, 77
1, 69875, Note_on_c, 9, 51, 77
1, 69877, Note_on_c, 0, 69, 58
1, 69897, Note_on_c, 1, 45, 67
1, 69961, Note_on_c, 0, 72, 0
1, 70065, Note_on_c, 0, 69, 0
1, 70065, Note_on_c, 0, 70, 64
1, 70069, Note_on_c, 0, 73, 80
1, 70103, Note_on_c, 9, 35, 57
1, 70129, Note_on_c, 9, 35, 0
1, 70153, Note_on_c, 9, 51, 0
1, 70169, Note_on_c, 0, 73, 0
1, 70253, Note_on_c, 1, 45, 0
1, 70259, Note_on_c, 9, 51, 64
1, 70263, Note_on_c, 9, 44, 117
1, 70269, Note_on_c, 1, 42, 68
1, 70277, Note_on_c, 0, 74, 82
1, 70281, Note_on_c, 0, 70, 0
1, 70281, Note_on_c, 0, 71, 61
1, 70349, Note_on_c, 9, 44, 0
1, 70365, Note_on_c, 0, 74, 0
1, 70425, Note_on_c, 9, 51, 0
1, 70429, Note_on_c, 0, 71, 0
1, 70471, Note_on_c, 9, 35, 68
1, 70473, Note_on_c, 0, 75, 74
1, 70489, Note_on_c, 0, 72, 60
1, 70509, Note_on_c, 9, 35, 0
1, 70515, Note_on_c, 9, 51, 84
1, 70573, Note_on_c, 0, 75, 0
1, 70583, Note_on_c, 9, 51, 0
1, 70601, Note_on_c, 9, 46, 52
1, 70609, Note_on_c, 9, 35, 64
1, 70625, Note_on_c, 1, 42, 0
1, 70629, Note_on_c, 0, 72, 0
1, 70643, Note_on_c, 9, 51, 87
1, 70669, Note_on_c, 0, 76, 75
1, 70673, Note_on_c, 1, 43, 64
1, 70677, Note_on_c, 0, 73, 56
1, 70685, Note_on_c, 9, 46, 0
1, 70727, Note_on_c, 9, 35, 0
1, 70737, Note_on_c, 0, 76, 0
1, 70809, Note_on_c, 0, 73, 0
1, 70849, Note_on_c, 0, 77, 80
1, 70861, Note_on_c, 0, 74, 53
1, 70931, Note_on_c, 9, 51, 0
1, 70933, Note_on_c, 0, 77, 0
1, 70973, Note_on_c, 1, 43, 0
1, 71021, Note_on_c, 0, 75, 56
1, 71025, Note_on_c, 0, 74, 0
1, 71027, Note_on_c, 9, 51, 87
1, 71031, Note_on_c, 9, 44, 112
1, 71041, Note_on_c, 1, 34, 66
1, 71053, Note_on_c, 0, 78, 70
1, 71101, Note_on_c, 0, 78, 0
1, 71121, Note_on_c, 9, 44, 0
1, 71229, Note_on_c, 0, 79, 81
1, 71233, Note_on_c, 0, 75, 0
1, 71233, Note_on_c, 0, 76, 56
1, 71283, Note_on_c, 9, 35, 47
1, 71313, Note_on_c, 0, 79, 0
1, 71315, Note_on_c, 0, 76, 0
1, 71315, Note_on_c, 9, 35, 0
1, 71337, Note_on_c, 9, 51, 0
1, 71377, Note_on_c, 0, 77, 47
1, 71385, Note_on_c, 1, 34, 0
1, 71411, Note_on_c, 9, 51, 82
1, 71429, Note_on_c, 0, 80, 69
1, 71441, Note_on_c, 1, 35, 60
1, 71485, Note_on_c, 0, 77, 0
1, 71517, Note_on_c, 0, 78, 64
1, 71525, Note_on_c, 0, 80, 0
1, 71589, Note_on_c, 0, 81, 62
1, 71609, Note_on_c, 0, 78, 0
1, 71629, Note_on_c, 0, 81, 0
1, 71669, Note_on_c, 0, 79, 80
1, 71721, Note_on_c, 1, 35, 0
1, 71731, Note_on_c, 9, 51, 0
1, 71769, Note_on_c, 0, 79, 0
1, 71789, Note_on_c, 1, 38, 60
1, 71795, Note_on_c, 9, 51, 73
1, 71799, Note_on_c, 9, 44, 105
1, 71801, Note_on_c, 0, 82, 50
1, 71911, Note_on_c, 9, 44, 0
1, 71941, Note_on_c, 0, 82, 0
1, 71977, Note_on_c, 1, 38, 0
1, 72021, Note_on_c, 0, 83, 50
1, 72021, Note_on_c, 0, 84, 47
1, 72041, Note_on_c, 1, 35, 61
1, 72065, Note_on_c, 0, 84, 0
1, 72067, Note_on_c, 9, 35, 49
1, 72077, Note_on_c, 0, 83, 0
1, 72105, Note_on_c, 1, 35, 0
1, 72115, Note_on_c, 9, 51, 0
1, 72131, Note_on_c, 9, 35, 0
1, 72137, Note_on_c, 0, 86, 90
1, 72149, Note_on_c, 1, 36, 66
1, 72179, Note_on_c, 9, 51, 73
1, 72211, Note_on_c, 9, 35, 24
1, 72259, Note_on_c, 9, 35, 0
1, 72269, Note_on_c, 0, 84, 73
1, 72329, Note_on_c, 0, 86, 0
1, 72461, Note_on_c, 1, 36, 0
1, 72461, Note_on_c, 1, 34, 57
1, 72477, Note_on_c, 0, 84, 0
1, 72503, Note_on_c, 9, 51, 0
1, 72545, Note_on_c, 1, 34, 0
1, 72563, Note_on_c, 9, 51, 80
1, 72567, Note_on_c, 9, 44, 101
1, 72581, Note_on_c, 1, 38, 63
1, 72695, Note_on_c, 9, 44, 0
1, 72771, Note_on_c, 9, 51, 0
1, 72807, Note_on_c, 9, 35, 49
1, 72819, Note_on_c, 9, 51, 68
1, 72839, Note_on_c, 9, 35, 0
1, 72903, Note_on_c, 9, 51, 0
1, 72947, Note_on_c, 9, 51, 85
1, 72961, Note_on_c, 1, 38, 0
1, 72961, Note_on_c, 1, 40, 60
1, 72977, Note_on_c, 0, 62, 53
1, 72993, Note_on_c, 0, 58, 45
1, 73053, Note_on_c, 0, 58, 0
1, 73061, Note_on_c, 0, 62, 0
1, 73209, Note_on_c, 1, 39, 42
1, 73253, Note_on_c, 1, 39, 0
1, 73267, Note_on_c, 9, 51, 0
1, 73325, Note_on_c, 1, 40, 0
1, 73331, Note_on_c, 9, 51, 63
1, 73333, Note_on_c, 1, 45, 70
1, 73335, Note_on_c, 9, 44, 103
1, 73481, Note_on_c, 9, 44, 0
1, 73601, Note_on_c, 0, 57, 44
1, 73605, Note_on_c, 0, 62, 41
1, 73641, Note_on_c, 9, 51, 0
1, 73677, Note_on_c, 0, 62, 0
1, 73681, Note_on_c, 1, 45, 0
1, 73713, Note_on_c, 1, 43, 57
1, 73715, Note_on_c, 9, 51, 85
1, 73725, Note_on_c, 0, 57, 0
1, 73729, Note_on_c, 9, 35, 35
1, 73763, Note_on_c, 9, 35, 0
1, 74029, Note_on_c, 1, 40, 48
1, 74035, Note_on_c, 9, 51, 0
1, 74053, Note_on_c, 1, 43, 0
1, 74099, Note_on_c, 9, 51, 75
1, 74101, Note_on_c, 1, 40, 0
1, 74103, Note_on_c, 9, 44, 106
1, 74105, Note_on_c, 1, 50, 72
1, 74137, Note_on_c, 0, 62, 43
1, 74137, Note_on_c, 0, 57, 48
1, 74225, Note_on_c, 9, 44, 0
1, 74233, Note_on_c, 0, 57, 0
1, 74277, Note_on_c, 0, 62, 0
1, 74393, Note_on_c, 9, 35, 29
1, 74409, Note_on_c, 9, 51, 0
1, 74429, Note_on_c, 9, 35, 0
1, 74469, Note_on_c, 1, 50, 0
1, 74483, Note_on_c, 9, 51, 70
1, 74501, Note_on_c, 1, 48, 66
1, 74505, Note_on_c, 0, 84, 105
1, 74517, Note_on_c, 0, 72, 88
1, 74693, Note_on_c, 0, 84, 0
1, 74707, Note_on_c, 9, 51, 0
1, 74721, Note_on_c, 0, 72, 0
1, 74739, Note_on_c, 9, 51, 84
1, 74771, Note_on_c, 9, 34, 23
1, 74807, Note_on_c, 9, 34, 0
1, 74807, Note_on_c, 9, 51, 0
1, 74867, Note_on_c, 9, 51, 91
1, 74871, Note_on_c, 9, 44, 110
1, 74881, Note_on_c, 0, 83, 90
1, 74889, Note_on_c, 1, 47, 57
1, 74893, Note_on_c, 0, 71, 76
1, 74949, Note_on_c, 1, 48, 0
1, 75005, Note_on_c, 9, 44, 0
1, 75029, Note_on_c, 0, 83, 0
1, 75041, Note_on_c, 9, 34, 28
1, 75059, Note_on_c, 9, 34, 0
1, 75097, Note_on_c, 0, 71, 0
1, 75143, Note_on_c, 9, 34, 28
1, 75171, Note_on_c, 9, 51, 0
1, 75237, Note_on_c, 1, 47, 0
1, 75249, Note_on_c, 9, 34, 0
1, 75251, Note_on_c, 9, 51, 92
1, 75271, Note_on_c, 9, 57, 19
1, 75277, Note_on_c, 1, 46, 61
1, 75283, Note_on_c, 9, 35, 63
1, 75289, Note_on_c, 0, 82, 89
1, 75289, Note_on_c, 9, 57, 0
1, 75325, Note_on_c, 0, 70, 46
1, 75341, Note_on_c, 9, 35, 0
1, 75381, Note_on_c, 0, 70, 0
1, 75433, Note_on_c, 0, 70, 44
1, 75441, Note_on_c, 0, 82, 0
1, 75543, Note_on_c, 9, 51, 0
1, 75573, Note_on_c, 0, 82, 47
1, 75577, Note_on_c, 1, 42, 45
1, 75585, Note_on_c, 0, 70, 0
1, 75609, Note_on_c, 1, 46, 0
1, 75621, Note_on_c, 1, 42, 0
1, 75635, Note_on_c, 9, 51, 82
1, 75639, Note_on_c, 9, 44, 112
1, 75661, Note_on_c, 1, 45, 50
1, 75709, Note_on_c, 0, 82, 0
1, 75713, Note_on_c, 0, 70, 48
1, 75777, Note_on_c, 9, 44, 0
1, 75801, Note_on_c, 9, 51, 0
1, 75841, Note_on_c, 0, 82, 48
1, 75877, Note_on_c, 0, 70, 0
1, 75889, Note_on_c, 9, 35, 49
1, 75891, Note_on_c, 9, 51, 68
1, 75911, Note_on_c, 9, 35, 0
1, 75971, Note_on_c, 9, 51, 0
1, 75977, Note_on_c, 0, 82, 0
1, 75997, Note_on_c, 0, 70, 35
1, 76009, Note_on_c, 1, 45, 0
1, 76019, Note_on_c, 9, 51, 80
1, 76041, Note_on_c, 1, 44, 61
1, 76105, Note_on_c, 0, 82, 47
1, 76157, Note_on_c, 0, 70, 0
1, 76277, Note_on_c, 0, 82, 0
1, 76289, Note_on_c, 0, 70, 42
1, 76323, Note_on_c, 9, 51, 0
1, 76381, Note_on_c, 1, 44, 0
1, 76385, Note_on_c, 0, 62, 54
1, 76393, Note_on_c, 0, 82, 49
1, 76393, Note_on_c, 0, 58, 48
1, 76403, Note_on_c, 9, 51, 80
1, 76407, Note_on_c, 9, 44, 117
1, 76433, Note_on_c, 0, 70, 0
1, 76433, Note_on_c, 1, 43, 54
1, 76441, Note_on_c, 0, 62, 0
1, 76469, Note_on_c, 0, 58, 0
1, 76497, Note_on_c, 9, 44, 0
1, 76541, Note_on_c, 0, 82, 0
1, 76545, Note_on_c, 0, 70, 40
1, 76665, Note_on_c, 0, 82, 49
1, 76691, Note_on_c, 9, 51, 0
1, 76713, Note_on_c, 0, 70, 0
1, 76787, Note_on_c, 9, 51, 89
1, 76787, Note_on_c, 9, 35, 45
1, 76789, Note_on_c, 1, 43, 0
1, 76805, Note_on_c, 0, 82, 0
1, 76809, Note_on_c, 1, 38, 66
1, 76825, Note_on_c, 9, 35, 0
1, 76841, Note_on_c, 0, 62, 48
1, 76841, Note_on_c, 0, 58, 48
1, 76845, Note_on_c, 0, 57, 40
1, 76921, Note_on_c, 0, 62, 0
1, 76965, Note_on_c, 0, 57, 0
1, 76981, Note_on_c, 0, 58, 0
1, 77079, Note_on_c, 9, 51, 0
1, 77171, Note_on_c, 9, 51, 61
1, 77173, Note_on_c, 1, 38, 0
1, 77175, Note_on_c, 9, 44, 110
1, 77177, Note_on_c, 1, 35, 66
1, 77287, Note_on_c, 9, 44, 0
1, 77353, Note_on_c, 9, 51, 0
1, 77399, Note_on_c, 9, 35, 50
1, 77409, Note_on_c, 0, 62, 61
1, 77427, Note_on_c, 9, 51, 68
1, 77429, Note_on_c, 0, 58, 49
1, 77441, Note_on_c, 9, 35, 0
1, 77461, Note_on_c, 0, 62, 0
1, 77463, Note_on_c, 9, 51, 0
1, 77501, Note_on_c, 0, 58, 0
1, 77529, Note_on_c, 1, 35, 0
1, 77555, Note_on_c, 9, 51, 75
1, 77581, Note_on_c, 1, 36, 61
1, 77863, Note_on_c, 9, 51, 0
1, 77937, Note_on_c, 1, 30, 65
1, 77939, Note_on_c, 9, 51, 73
1, 77943, Note_on_c, 9, 44, 101
1, 77961, Note_on_c, 1, 36, 0
1, 77981, Note_on_c, 0, 83, 90
1, 78071, Note_on_c, 9, 44, 0
1, 78115, Note_on_c, 9, 51, 0
1, 78153, Note_on_c, 0, 83, 0
1, 78195, Note_on_c, 9, 51, 84
1, 78209, Note_on_c, 0, 86, 97
1, 78245, Note_on_c, 0, 62, 51
1, 78263, Note_on_c, 9, 51, 0
1, 78293, Note_on_c, 0, 62, 0
1, 78297, Note_on_c, 1, 30, 0
1, 78323, Note_on_c, 9, 51, 96
1, 78329, Note_on_c, 1, 29, 66
1, 78339, Note_on_c, 9, 35, 33
1, 78385, Note_on_c, 0, 84, 66
1, 78433, Note_on_c, 0, 86, 0
1, 78515, Note_on_c, 9, 35, 0
1, 78565, Note_on_c, 0, 84, 0
1, 78589, Note_on_c, 0, 81, 68
1, 78615, Note_on_c, 9, 35, 33
1, 78633, Note_on_c, 9, 51, 0
1, 78649, Note_on_c, 9, 35, 0
1, 78707, Note_on_c, 9, 51, 73
1, 78711, Note_on_c, 9, 44, 99
1, 78713, Note_on_c, 1, 31, 79
1, 78729, Note_on_c, 0, 81, 0
1, 78737, Note_on_c, 1, 29, 0
1, 78801, Note_on_c, 0, 77, 39
1, 78825, Note_on_c, 0, 76, 31
1, 78833, Note_on_c, 9, 44, 0
1, 78925, Note_on_c, 0, 76, 0
1, 78929, Note_on_c, 0, 77, 0
1, 78981, Note_on_c, 0, 74, 76
1, 78995, Note_on_c, 9, 51, 0
1, 79045, Note_on_c, 0, 74, 0
1, 79045, Note_on_c, 0, 60, 33
1, 79053, Note_on_c, 0, 57, 38
1, 79091, Note_on_c, 9, 51, 89
1, 79093, Note_on_c, 1, 33, 68
1, 79113, Note_on_c, 0, 60, 0
1, 79113, Note_on_c, 1, 31, 0
1, 79137, Note_on_c, 0, 57, 0
1, 79209, Note_on_c, 0, 71, 13
1, 79353, Note_on_c, 0, 71, 0
1, 79369, Note_on_c, 9, 51, 0
1, 79445, Note_on_c, 1, 33, 0
1, 79469, Note_on_c, 1, 38, 68
1, 79475, Note_on_c, 9, 51, 92
1, 79479, Note_on_c, 9, 44, 98
1, 79509, Note_on_c, 0, 79, 84
1, 79601, Note_on_c, 9, 44, 0
1, 79657, Note_on_c, 9, 51, 0
1, 79677, Note_on_c, 0, 79, 0
1, 79731, Note_on_c, 9, 51, 89
1, 79757, Note_on_c, 0, 76, 70
1, 79779, Note_on_c, 9, 51, 0
1, 79841, Note_on_c, 0, 76, 0
1, 79859, Note_on_c, 9, 51, 91
1, 79865, Note_on_c, 1, 38, 0
1, 79877, Note_on_c, 1, 34, 70
1, 79879, Note_on_c, 9, 35, 31
1, 79905, Note_on_c, 9, 35, 0
1, 80135, Note_on_c, 9, 35, 47
1, 80153, Note_on_c, 1, 41, 57
1, 80161, Note_on_c, 9, 35, 0
1, 80167, Note_on_c, 9, 51, 0
1, 80201, Note_on_c, 1, 41, 0
1, 80243, Note_on_c, 9, 51, 64
1, 80247, Note_on_c, 9, 44, 96
1, 80249, Note_on_c, 0, 56, 62
1, 80253, Note_on_c, 0, 67, 58
1, 80261, Note_on_c, 1, 46, 75
1, 80297, Note_on_c, 0, 62, 55
1, 80309, Note_on_c, 1, 34, 0
1, 80369, Note_on_c, 9, 44, 0
1, 80425, Note_on_c, 9, 51, 0
1, 80499, Note_on_c, 9, 51, 56
1, 80551, Note_on_c, 9, 51, 0
1, 80617, Note_on_c, 1, 46, 0
1, 80627, Note_on_c, 9, 51, 52
1, 80629, Note_on_c, 1, 50, 68
1, 80643, Note_on_c, 9, 35, 33
1, 80717, Note_on_c, 0, 67, 0
1, 80729, Note_on_c, 0, 56, 0
1, 80765, Note_on_c, 0, 62, 0
1, 80775, Note_on_c, 9, 51, 0
1, 80823, Note_on_c, 9, 35, 0
1, 80883, Note_on_c, 9, 51, 112
1, 80897, Note_on_c, 9, 35, 31
1, 80901, Note_on_c, 0, 67, 60
1, 80901, Note_on_c, 0, 56, 63
1, 80917, Note_on_c, 0, 62, 51
1, 80929, Note_on_c, 9, 35, 0
1, 80947, Note_on_c, 9, 51, 0
1, 81001, Note_on_c, 0, 67, 0
1, 81011, Note_on_c, 9, 51, 84
1, 81015, Note_on_c, 9, 44, 94
1, 81025, Note_on_c, 1, 50, 0
1, 81029, Note_on_c, 1, 39, 76
1, 81033, Note_on_c, 0, 62, 0
1, 81125, Note_on_c, 0, 56, 0
1, 81127, Note_on_c, 9, 44, 0
1, 81321, Note_on_c, 9, 51, 0
1, 81395, Note_on_c, 9, 51, 96
1, 81413, Note_on_c, 0, 62, 52
1, 81417, Note_on_c, 1, 40, 64
1, 81421, Note_on_c, 1, 39, 0
1, 81425, Note_on_c, 0, 67, 54
1, 81429, Note_on_c, 0, 79, 62
1, 81441, Note_on_c, 0, 52, 48
1, 81441, Note_on_c, 0, 74, 57
1, 81441, Note_on_c, 0, 59, 46
1, 81703, Note_on_c, 9, 51, 0
1, 81745, Note_on_c, 1, 39, 45
1, 81779, Note_on_c, 9, 51, 63
1, 81783, Note_on_c, 9, 44, 91
1, 81789, Control_c, 0, 64, 127
1, 81793, Note_on_c, 1, 40, 0
1, 81805, Note_on_c, 1, 39, 0
1, 81805, Note_on_c, 1, 46, 76
1, 81879, Note_on_c, 9, 44, 0
1, 81971, Note_on_c, 9, 51, 0
1, 82035, Note_on_c, 9, 51, 50
1, 82039, Note_on_c, 9, 35, 68
1, 82105, Note_on_c, 9, 35, 0
1, 82115, Note_on_c, 9, 51, 0
1, 82163, Note_on_c, 9, 51, 96
1, 82177, Note_on_c, 9, 35, 43
1, 82193, Note_on_c, 1, 43, 61
1, 82209, Note_on_c, 0, 67, 0
1, 82213, Note_on_c, 0, 59, 0
1, 82245, Note_on_c, 0, 52, 0
1, 82289, Note_on_c, 0, 74, 0
1, 82309, Note_on_c, 0, 62, 0
1, 82349, Note_on_c, 0, 79, 0
1, 82385, Note_on_c, 9, 35, 0
1, 82489, Note_on_c, 1, 46, 0
1, 82499, Note_on_c, 9, 51, 0
1, 82545, Note_on_c, 1, 43, 0
1, 82547, Note_on_c, 9, 51, 68
1, 82551, Note_on_c, 9, 44, 73
1, 82581, Note_on_c, 1, 32, 54
1, 82581, Note_on_c, 1, 34, 67
1, 82613, Note_on_c, 0, 62, 48
1, 82649, Note_on_c, 9, 44, 0
1, 82665, Note_on_c, 0, 62, 0
1, 82677, Note_on_c, 1, 32, 0
1, 82803, Note_on_c, 9, 53, 124
1, 82819, Note_on_c, 9, 51, 0
1, 82899, Note_on_c, 9, 53, 0
1, 82929, Note_on_c, 1, 34, 0
1, 82931, Note_on_c, 9, 51, 54
1, 82977, Note_on_c, 1, 33, 75
1, 82985, Control_c, 0, 64, 0
1, 82997, Note_on_c, 0, 80, 98
1, 83001, Note_on_c, 0, 72, 99
1, 83009, Note_on_c, 0, 84, 91
1, 83017, Note_on_c, 0, 65, 84
1, 83021, Note_on_c, 0, 61, 70
1, 83021, Note_on_c, 0, 55, 81
1, 83197, Note_on_c, 0, 81, 56
1, 83205, Note_on_c, 0, 80, 0
1, 83217, Control_c, 0, 64, 127
1, 83257, Note_on_c, 1, 33, 0
1, 83257, Note_on_c, 9, 51, 0
1, 83315, Note_on_c, 9, 51, 80
1, 83319, Note_on_c, 9, 44, 70
1, 83337, Note_on_c, 1, 36, 71
1, 83409, Note_on_c, 9, 44, 0
1, 83485, Note_on_c, 0, 72, 0
1, 83545, Note_on_c, 0, 55, 0
1, 83549, Note_on_c, 0, 65, 0
1, 83565, Note_on_c, 0, 61, 0
1, 83585, Note_on_c, 0, 84, 0
1, 83589, Note_on_c, 0, 81, 0
1, 83641, Note_on_c, 9, 51, 0
1, 83699, Note_on_c, 9, 51, 80
1, 83725, Note_on_c, 1, 36, 0
1, 83729, Note_on_c, 1, 37, 58
1, 83773, Note_on_c, 0, 84, 65
1, 83777, Note_on_c, 0, 55, 56
1, 83777, Note_on_c, 0, 72, 59
1, 83777, Note_on_c, 0, 81, 64
1, 83777, Note_on_c, 0, 65, 55
1, 83789, Note_on_c, 0, 61, 51
1, 83793, Control_c, 0, 64, 0
1, 83977, Note_on_c, 9, 35, 52
1, 83985, Note_on_c, 0, 72, 0
1, 83993, Note_on_c, 1, 37, 0
1, 83993, Control_c, 0, 64, 127
1, 84003, Note_on_c, 9, 35, 0
1, 84035, Note_on_c, 9, 51, 0
1, 84081, Note_on_c, 0, 81, 0
1, 84081, Note_on_c, 1, 37, 58
1, 84083, Note_on_c, 9, 51, 63
1, 84087, Note_on_c, 9, 44, 110
1, 84117, Note_on_c, 0, 84, 0
1, 84129, Note_on_c, 0, 65, 0
1, 84137, Note_on_c, 0, 55, 0
1, 84177, Note_on_c, 9, 44, 0
1, 84253, Note_on_c, 0, 61, 0
1, 84275, Note_on_c, 9, 51, 0
1, 84339, Note_on_c, 9, 51, 57
1, 84359, Note_on_c, 9, 35, 56
1, 84397, Note_on_c, 9, 35, 0
1, 84403, Note_on_c, 9, 51, 0
1, 84429, Note_on_c, 1, 37, 0
1, 84467, Note_on_c, 9, 51, 68
1, 84485, Note_on_c, 1, 38, 62
1, 84549, Control_c, 0, 64, 0
1, 84549, Note_on_c, 0, 65, 54
1, 84553, Note_on_c, 0, 89, 65
1, 84557, Note_on_c, 0, 54, 50
1, 84569, Note_on_c, 0, 82, 49
1, 84569, Note_on_c, 0, 86, 55
1, 84581, Note_on_c, 0, 77, 41
1, 84601, Note_on_c, 0, 60, 47
1, 84755, Note_on_c, 9, 51, 0
1, 84777, Note_on_c, 1, 34, 41
1, 84793, Control_c, 0, 64, 127
1, 84833, Note_on_c, 1, 38, 0
1, 84837, Note_on_c, 1, 45, 60
1, 84851, Note_on_c, 9, 51, 75
1, 84855, Note_on_c, 9, 44, 106
1, 84885, Note_on_c, 1, 34, 0
1, 84965, Note_on_c, 0, 60, 0
1, 84977, Note_on_c, 9, 44, 0
1, 84985, Note_on_c, 0, 77, 0
1, 84993, Note_on_c, 0, 65, 0
1, 84997, Note_on_c, 0, 82, 0
1, 85013, Note_on_c, 0, 54, 0
1, 85033, Note_on_c, 0, 86, 0
1, 85049, Note_on_c, 0, 89, 0
1, 85139, Note_on_c, 9, 51, 0
1, 85189, Note_on_c, 1, 45, 0
1, 85235, Note_on_c, 9, 51, 59
1, 85241, Note_on_c, 1, 48, 61
1, 85317, Note_on_c, 0, 65, 46
1, 85317, Note_on_c, 0, 54, 44
1, 85317, Note_on_c, 0, 89, 58
1, 85325, Control_c, 0, 64, 0
1, 85329, Note_on_c, 0, 82, 53
1, 85345, Note_on_c, 0, 77, 43
1, 85345, Note_on_c, 0, 86, 53
1, 85365, Note_on_c, 0, 60, 44
1, 85481, Note_on_c, 9, 35, 31
1, 85509, Note_on_c, 0, 77, 0
1, 85521, Note_on_c, 9, 35, 0
1, 85525, Note_on_c, 0, 60, 0
1, 85527, Note_on_c, 9, 51, 0
1, 85529, Control_c, 0, 64, 127
1, 85569, Note_on_c, 0, 65, 0
1, 85581, Note_on_c, 0, 82, 0
1, 85585, Note_on_c, 0, 86, 0
1, 85619, Note_on_c, 9, 51, 103
1, 85621, Note_on_c, 1, 42, 55
1, 85623, Note_on_c, 9, 44, 103
1, 85633, Note_on_c, 9, 40, 19
1, 85645, Note_on_c, 1, 48, 0
1, 85655, Note_on_c, 9, 40, 0
1, 85657, Note_on_c, 0, 89, 0
1, 85735, Note_on_c, 9, 44, 0
1, 85747, Note_on_c, 9, 40, 32
1, 85769, Note_on_c, 9, 40, 0
1, 85817, Note_on_c, 9, 51, 0
1, 85833, Note_on_c, 0, 54, 0
1, 85875, Note_on_c, 9, 51, 57
1, 85891, Note_on_c, 9, 35, 33
1, 85927, Note_on_c, 9, 35, 0
1, 85943, Note_on_c, 9, 51, 0
1, 85993, Note_on_c, 1, 42, 0
1, 86003, Note_on_c, 9, 51, 73
1, 86009, Note_on_c, 9, 40, 31
1, 86013, Note_on_c, 1, 43, 58
1, 86049, Note_on_c, 9, 40, 0
1, 86069, Note_on_c, 0, 94, 58
1, 86077, Note_on_c, 0, 64, 50
1, 86093, Note_on_c, 0, 82, 39
1, 86093, Note_on_c, 0, 59, 51
1, 86097, Control_c, 0, 64, 0
1, 86101, Note_on_c, 0, 87, 54
1, 86125, Note_on_c, 0, 91, 47
1, 86129, Note_on_c, 0, 53, 39
1, 86129, Note_on_c, 9, 40, 31
1, 86151, Note_on_c, 9, 40, 0
1, 86259, Note_on_c, 9, 35, 42
1, 86285, Note_on_c, 9, 35, 0
1, 86305, Control_c, 0, 64, 127
1, 86323, Note_on_c, 9, 51, 0
1, 86349, Note_on_c, 0, 91, 0
1, 86349, Note_on_c, 0, 82, 0
1, 86349, Note_on_c, 1, 42, 28
1, 86357, Note_on_c, 0, 64, 0
1, 86365, Note_on_c, 0, 87, 0
1, 86369, Note_on_c, 0, 53, 0
1, 86375, Note_on_c, 9, 40, 29
1, 86377, Note_on_c, 1, 53, 74
1, 86387, Note_on_c, 9, 51, 52
1, 86391, Note_on_c, 9, 44, 105
1, 86393, Note_on_c, 0, 59, 0
1, 86407, Note_on_c, 9, 40, 0
1, 86417, Note_on_c, 1, 42, 0
1, 86441, Note_on_c, 0, 94, 0
1, 86445, Note_on_c, 1, 43, 0
1, 86529, Note_on_c, 9, 44, 0
1, 86691, Note_on_c, 9, 51, 0
1, 86737, Note_on_c, 1, 53, 0
1, 86771, Note_on_c, 9, 51, 68
1, 86781, Note_on_c, 1, 52, 66
1, 86813, Note_on_c, 0, 63, 52
1, 86821, Note_on_c, 0, 99, 62
1, 86821, Note_on_c, 0, 59, 49
1, 86821, Note_on_c, 0, 87, 60
1, 86845, Control_c, 0, 64, 0
1, 86849, Note_on_c, 0, 94, 58
1, 86849, Note_on_c, 0, 53, 37
1, 87033, Note_on_c, 9, 35, 36
1, 87037, Control_c, 0, 64, 127
1, 87057, Note_on_c, 0, 59, 0
1, 87063, Note_on_c, 9, 51, 0
1, 87069, Note_on_c, 9, 35, 0
1, 87089, Note_on_c, 1, 47, 41
1, 87097, Note_on_c, 1, 52, 0
1, 87133, Note_on_c, 1, 47, 0
1, 87141, Note_on_c, 0, 53, 0
1, 87155, Note_on_c, 9, 51, 63
1, 87159, Note_on_c, 9, 44, 117
1, 87165, Note_on_c, 0, 63, 0
1, 87169, Note_on_c, 1, 50, 55
1, 87209, Note_on_c, 0, 94, 0
1, 87217, Note_on_c, 0, 87, 0
1, 87241, Note_on_c, 0, 99, 0
1, 87287, Note_on_c, 9, 35, 50
1, 87309, Note_on_c, 9, 35, 0
1, 87319, Note_on_c, 9, 44, 0
1, 87337, Control_c, 0, 64, 0
1, 87409, Note_on_c, 9, 35, 70
1, 87417, Note_on_c, 0, 100, 68
1, 87441, Note_on_c, 0, 88, 39
1, 87449, Note_on_c, 0, 95, 52
1, 87453, Note_on_c, 0, 62, 35
1, 87457, Note_on_c, 0, 52, 40
1, 87459, Note_on_c, 9, 51, 0
1, 87465, Note_on_c, 0, 57, 48
1, 87497, Note_on_c, 9, 35, 0
1, 87509, Note_on_c, 1, 50, 0
1, 87537, Control_c, 0, 64, 127
1, 87539, Note_on_c, 9, 51, 87
1, 87553, Note_on_c, 1, 48, 63
1, 87555, Note_on_c, 9, 35, 38
1, 87593, Note_on_c, 9, 35, 0
1, 87649, Note_on_c, 0, 100, 0
1, 87677, Note_on_c, 0, 95, 0
1, 87793, Note_on_c, 0, 88, 0
1, 87821, Note_on_c, 0, 57, 0
1, 87849, Note_on_c, 9, 51, 0
1, 87905, Note_on_c, 0, 52, 0
1, 87921, Note_on_c, 0, 62, 0
1, 87921, Note_on_c, 1, 48, 0
1, 87923, Note_on_c, 9, 51, 59
1, 87927, Note_on_c, 9, 44, 117
1, 87937, Note_on_c, 1, 42, 61
1, 88097, Note_on_c, 9, 44, 0
1, 88105, Note_on_c, 9, 51, 0
1, 88179, Note_on_c, 9, 51, 68
1, 88247, Note_on_c, 9, 51, 0
1, 88281, Note_on_c, 1, 42, 0
1, 88305, Control_c, 0, 64, 24
1, 88307, Note_on_c, 9, 51, 61
1, 88309, Control_c, 0, 64, 0
1, 88325, Note_on_c, 1, 43, 72
1, 88579, Note_on_c, 9, 34, 26
1, 88611, Note_on_c, 9, 51, 0
1, 88665, Note_on_c, 1, 43, 0
1, 88665, Note_on_c, 9, 34, 0
1, 88691, Note_on_c, 9, 51, 75
1, 88695, Note_on_c, 9, 44, 110
1, 88701, Note_on_c, 1, 39, 83
1, 88709, Note_on_c, 0, 77, 118
1, 88727, Note_on_c, 9, 35, 40
1, 88781, Note_on_c, 9, 35, 0
1, 88887, Note_on_c, 9, 44, 0
1, 88893, Note_on_c, 0, 77, 0
1, 88931, Note_on_c, 9, 51, 0
1, 88957, Note_on_c, 0, 76, 66
1, 89045, Note_on_c, 1, 39, 0
1, 89065, Note_on_c, 0, 76, 0
1, 89075, Note_on_c, 9, 51, 87
1, 89089, Note_on_c, 1, 40, 74
1, 89125, Note_on_c, 0, 72, 58
1, 89285, Note_on_c, 0, 72, 0
1, 89335, Note_on_c, 9, 51, 0
1, 89337, Note_on_c, 0, 67, 66
1, 89361, Note_on_c, 0, 54, 47
1, 89381, Note_on_c, 0, 55, 53
1, 89409, Note_on_c, 0, 54, 0
1, 89409, Note_on_c, 0, 67, 0
1, 89449, Note_on_c, 1, 40, 0
1, 89459, Note_on_c, 9, 51, 80
1, 89463, Note_on_c, 9, 44, 106
1, 89481, Note_on_c, 1, 36, 69
1, 89529, Note_on_c, 0, 65, 42
1, 89649, Note_on_c, 9, 44, 0
1, 89689, Note_on_c, 0, 65, 0
1, 89689, Note_on_c, 9, 51, 0
1, 89715, Note_on_c, 9, 59, 94
1, 89735, Note_on_c, 9, 35, 36
1, 89745, Note_on_c, 0, 60, 61
1, 89773, Note_on_c, 9, 35, 0
1, 89811, Note_on_c, 9, 59, 0
1, 89825, Note_on_c, 1, 36, 0
1, 89843, Note_on_c, 9, 51, 61
1, 89865, Note_on_c, 0, 60, 0
1, 89873, Note_on_c, 9, 35, 31
1, 89877, Note_on_c, 1, 38, 59
1, 89893, Note_on_c, 0, 63, 70
1, 89913, Note_on_c, 9, 35, 0
1, 90025, Note_on_c, 0, 63, 0
1, 90121, Note_on_c, 0, 64, 85
1, 90153, Note_on_c, 9, 51, 0
1, 90225, Note_on_c, 0, 55, 0
1, 90227, Note_on_c, 9, 51, 68
1, 90231, Note_on_c, 9, 44, 110
1, 90241, Note_on_c, 0, 64, 0
1, 90257, Note_on_c, 1, 37, 71
1, 90289, Note_on_c, 0, 65, 74
1, 90297, Note_on_c, 1, 38, 0
1, 90391, Note_on_c, 9, 44, 0
1, 90449, Note_on_c, 0, 65, 0
1, 90481, Note_on_c, 9, 35, 38
1, 90487, Note_on_c, 9, 51, 0
1, 90515, Note_on_c, 9, 35, 0
1, 90517, Note_on_c, 0, 66, 82
1, 90581, Note_on_c, 0, 55, 50
1, 90611, Note_on_c, 9, 51, 77
1, 90637, Note_on_c, 0, 66, 0
1, 90637, Note_on_c, 1, 38, 66
1, 90649, Note_on_c, 1, 37, 0
1, 90673, Note_on_c, 0, 67, 70
1, 90793, Note_on_c, 0, 55, 0
1, 90833, Note_on_c, 0, 67, 0
1, 90867, Note_on_c, 9, 51, 0
1, 90905, Note_on_c, 0, 60, 65
1, 90929, Note_on_c, 0, 50, 39
1, 90933, Note_on_c, 1, 37, 49
1, 90995, Note_on_c, 9, 51, 64
1, 90997, Note_on_c, 1, 38, 0
1, 90999, Note_on_c, 9, 44, 92
1, 91009, Note_on_c, 0, 60, 0
1, 91017, Note_on_c, 1, 45, 70
1, 91029, Note_on_c, 0, 50, 0
1, 91073, Note_on_c, 1, 37, 0
1, 91105, Note_on_c, 0, 57, 40
1, 91159, Note_on_c, 9, 44, 0
1, 91235, Note_on_c, 9, 51, 0
1, 91255, Note_on_c, 9, 35, 38
1, 91273, Note_on_c, 0, 57, 0
1, 91287, Note_on_c, 9, 35, 0
1, 91349, Note_on_c, 0, 43, 47
1, 91361, Note_on_c, 1, 45, 0
1, 91377, Note_on_c, 9, 51, 78
1, 91397, Note_on_c, 1, 52, 71
1, 91417, Note_on_c, 0, 43, 0
1, 91453, Note_on_c, 0, 60, 70
1, 91685, Note_on_c, 1, 52, 0
1, 91699, Note_on_c, 9, 51, 0
1, 91721, Note_on_c, 0, 60, 0
1, 91757, Note_on_c, 1, 51, 66
1, 91763, Note_on_c, 9, 51, 64
1, 91767, Note_on_c, 9, 44, 113
1, 91829, Note_on_c, 0, 53, 43
1, 91845, Note_on_c, 0, 57, 40
1, 91927, Note_on_c, 9, 44, 0
1, 92005, Note_on_c, 0, 53, 0
1, 92009, Note_on_c, 0, 57, 0
1, 92051, Note_on_c, 9, 51, 0
1, 92077, Note_on_c, 1, 51, 0
1, 92137, Note_on_c, 1, 50, 61
1, 92147, Note_on_c, 9, 51, 68
1, 92153, Note_on_c, 0, 43, 55
1, 92161, Note_on_c, 0, 31, 54
1, 92403, Note_on_c, 9, 53, 85
1, 92407, Note_on_c, 9, 51, 0
1, 92437, Control_c, 0, 64, 127
1, 92503, Note_on_c, 9, 53, 0
1, 92531, Note_on_c, 9, 51, 64
1, 92535, Note_on_c, 9, 44, 108
1, 92537, Note_on_c, 1, 45, 61
1, 92597, Note_on_c, 0, 43, 0
1, 92689, Note_on_c, 9, 44, 0
1, 92777, Note_on_c, 1, 50, 0
1, 92789, Control_c, 0, 64, 0
1, 92801, Note_on_c, 9, 35, 42
1, 92821, Note_on_c, 0, 43, 65
1, 92841, Note_on_c, 9, 51, 0
1, 92845, Control_c, 0, 64, 127
1, 92889, Note_on_c, 9, 35, 0
1, 92915, Note_on_c, 9, 51, 68
1, 92917, Note_on_c, 1, 41, 68
1, 92937, Note_on_c, 9, 35, 38
1, 92945, Note_on_c, 0, 31, 0
1, 92953, Note_on_c, 1, 45, 0
1, 93057, Note_on_c, 0, 43, 0
1, 93121, Note_on_c, 9, 35, 0
1, 93191, Note_on_c, 9, 51, 0
1, 93193, Note_on_c, 9, 35, 33
1, 93225, Note_on_c, 9, 35, 0
1, 93285, Note_on_c, 1, 41, 0
1, 93293, Note_on_c, 0, 50, 47
1, 93297, Note_on_c, 1, 42, 72
1, 93299, Note_on_c, 9, 51, 80
1, 93303, Note_on_c, 9, 46, 57
1, 93333, Control_c, 0, 64, 0
1, 93337, Note_on_c, 0, 50, 0
1, 93361, Note_on_c, 9, 46, 0
1, 93401, Note_on_c, 0, 53, 65
1, 93449, Note_on_c, 0, 53, 0
1, 93513, Note_on_c, 0, 55, 60
1, 93539, Note_on_c, 9, 51, 0
1, 93553, Note_on_c, 0, 55, 0
1, 93555, Note_on_c, 9, 51, 54
1, 93619, Note_on_c, 9, 51, 0
1, 93629, Note_on_c, 0, 55, 67
1, 93633, Note_on_c, 1, 42, 0
1, 93681, Note_on_c, 1, 43, 72
1, 93683, Note_on_c, 9, 51, 101
1, 93753, Note_on_c, 0, 55, 0
1, 93769, Note_on_c, 0, 57, 63
1, 93889, Note_on_c, 0, 57, 0
1, 93921, Note_on_c, 0, 57, 43
1, 94003, Note_on_c, 9, 51, 0
1, 94049, Note_on_c, 0, 57, 0
1, 94061, Note_on_c, 0, 59, 70
1, 94061, Note_on_c, 1, 32, 66
1, 94067, Note_on_c, 9, 51, 80
1, 94071, Note_on_c, 9, 44, 108
1, 94177, Note_on_c, 0, 59, 0
1, 94193, Note_on_c, 9, 44, 0
1, 94213, Note_on_c, 0, 59, 53
1, 94311, Note_on_c, 9, 35, 45
1, 94313, Note_on_c, 9, 51, 0
1, 94323, Note_on_c, 9, 51, 56
1, 94337, Note_on_c, 0, 59, 0
1, 94369, Note_on_c, 0, 60, 68
1, 94377, Note_on_c, 1, 32, 0
1, 94403, Note_on_c, 9, 51, 0
1, 94407, Note_on_c, 9, 35, 0
1, 94449, Note_on_c, 9, 35, 26
1, 94451, Note_on_c, 0, 60, 0
1, 94451, Note_on_c, 9, 51, 66
1, 94453, Note_on_c, 1, 31, 75
1, 94489, Note_on_c, 0, 60, 51
1, 94497, Note_on_c, 1, 43, 0
1, 94561, Note_on_c, 9, 35, 0
1, 94645, Note_on_c, 0, 60, 0
1, 94653, Note_on_c, 0, 62, 79
1, 94691, Note_on_c, 9, 51, 0
1, 94705, Note_on_c, 9, 51, 43
1, 94771, Note_on_c, 9, 51, 0
1, 94825, Note_on_c, 1, 31, 0
1, 94835, Note_on_c, 9, 51, 106
1, 94839, Note_on_c, 9, 44, 117
1, 94849, Note_on_c, 1, 43, 89
1, 94913, Note_on_c, 0, 62, 0
1, 94917, Note_on_c, 0, 64, 76
1, 94967, Note_on_c, 9, 44, 0
1, 95021, Note_on_c, 0, 64, 0
1, 95069, Note_on_c, 0, 64, 60
1, 95139, Note_on_c, 9, 51, 0
1, 95185, Note_on_c, 0, 64, 0
1, 95197, Note_on_c, 0, 65, 80
1, 95219, Note_on_c, 9, 51, 85
1, 95225, Note_on_c, 1, 32, 63
1, 95257, Note_on_c, 0, 65, 0
1, 95317, Note_on_c, 0, 65, 65
1, 95347, Note_on_c, 9, 31, 42
1, 95389, Note_on_c, 9, 31, 0
1, 95433, Note_on_c, 9, 51, 0
1, 95445, Note_on_c, 0, 65, 0
1, 95465, Note_on_c, 0, 67, 81
1, 95473, Note_on_c, 1, 32, 0
1, 95565, Note_on_c, 0, 67, 0
1, 95593, Note_on_c, 0, 67, 62
1, 95603, Note_on_c, 9, 51, 64
1, 95607, Note_on_c, 9, 44, 110
1, 95609, Note_on_c, 1, 31, 79
1, 95609, Note_on_c, 9, 31, 31
1, 95651, Note_on_c, 9, 31, 0
1, 95693, Note_on_c, 1, 43, 0
1, 95713, Note_on_c, 9, 44, 0
1, 95721, Note_on_c, 0, 67, 0
1, 95741, Note_on_c, 0, 69, 78
1, 95833, Note_on_c, 0, 69, 0
1, 95859, Note_on_c, 9, 51, 43
1, 95863, Note_on_c, 9, 51, 0
1, 95863, Note_on_c, 9, 35, 57
1, 95881, Note_on_c, 0, 69, 70
1, 95895, Note_on_c, 9, 35, 0
1, 95943, Note_on_c, 9, 51, 0
1, 95957, Note_on_c, 1, 31, 0
1, 95987, Note_on_c, 9, 51, 92
1, 95997, Note_on_c, 0, 71, 80
1, 96001, Note_on_c, 0, 69, 0
1, 96001, Note_on_c, 1, 34, 54
1, 96037, Note_on_c, 1, 34, 0
1, 96077, Note_on_c, 0, 71, 0
1, 96125, Note_on_c, 0, 71, 66
1, 96129, Note_on_c, 9, 31, 57
1, 96167, Note_on_c, 9, 31, 0
1, 96213, Note_on_c, 1, 34, 57
1, 96249, Note_on_c, 0, 71, 0
1, 96253, Note_on_c, 0, 72, 78
1, 96307, Note_on_c, 9, 51, 0
1, 96317, Note_on_c, 1, 34, 0
1, 96329, Note_on_c, 0, 72, 0
1, 96361, Note_on_c, 9, 31, 57
1, 96365, Note_on_c, 1, 35, 69
1, 96371, Note_on_c, 9, 51, 59
1, 96375, Note_on_c, 9, 44, 113
1, 96401, Note_on_c, 0, 72, 74
1, 96419, Note_on_c, 9, 31, 0
1, 96487, Note_on_c, 9, 44, 0
1, 96521, Note_on_c, 0, 72, 0
1, 96533, Note_on_c, 0, 74, 76
1, 96631, Note_on_c, 9, 35, 40
1, 96643, Note_on_c, 9, 51, 0
1, 96645, Note_on_c, 0, 74, 0
1, 96689, Note_on_c, 0, 74, 61
1, 96701, Note_on_c, 9, 35, 0
1, 96705, Note_on_c, 1, 35, 0
1, 96745, Note_on_c, 1, 36, 66
1, 96755, Note_on_c, 9, 51, 89
1, 96775, Note_on_c, 9, 35, 36
1, 96805, Note_on_c, 0, 62, 38
1, 96813, Note_on_c, 0, 74, 0
1, 96817, Note_on_c, 0, 76, 77
1, 96865, Note_on_c, 0, 62, 0
1, 96909, Note_on_c, 0, 76, 0
1, 96945, Note_on_c, 9, 35, 0
1, 96961, Note_on_c, 0, 76, 54
1, 97011, Note_on_c, 9, 35, 47
1, 97037, Note_on_c, 9, 35, 0
1, 97073, Note_on_c, 0, 76, 0
1, 97081, Note_on_c, 9, 51, 0
1, 97089, Note_on_c, 0, 77, 70
1, 97089, Note_on_c, 1, 34, 34
1, 97109, Note_on_c, 1, 36, 0
1, 97113, Note_on_c, 1, 45, 66
1, 97137, Note_on_c, 0, 77, 0
1, 97139, Note_on_c, 9, 51, 56
1, 97143, Note_on_c, 9, 44, 119
1, 97165, Note_on_c, 1, 34, 0
1, 97229, Note_on_c, 0, 77, 75
1, 97249, Note_on_c, 9, 44, 0
1, 97345, Note_on_c, 0, 77, 0
1, 97357, Note_on_c, 0, 79, 72
1, 97395, Note_on_c, 9, 51, 54
1, 97399, Note_on_c, 9, 51, 0
1, 97433, Note_on_c, 0, 79, 0
1, 97485, Note_on_c, 1, 45, 0
1, 97491, Note_on_c, 9, 51, 0
1, 97517, Note_on_c, 0, 79, 66
1, 97517, Note_on_c, 1, 43, 63
1, 97523, Note_on_c, 9, 51, 75
1, 97621, Note_on_c, 0, 79, 0
1, 97637, Note_on_c, 0, 81, 70
1, 97693, Note_on_c, 0, 81, 0
1, 97763, Note_on_c, 9, 32, 40
1, 97785, Note_on_c, 9, 32, 0
1, 97789, Note_on_c, 0, 81, 65
1, 97811, Note_on_c, 9, 51, 0
1, 97865, Note_on_c, 0, 81, 0
1, 97881, Note_on_c, 1, 43, 0
1, 97907, Note_on_c, 0, 83, 60
1, 97907, Note_on_c, 9, 51, 82
1, 97911, Note_on_c, 9, 44, 113
1, 97913, Note_on_c, 1, 39, 64
1, 97949, Note_on_c, 0, 83, 0
1, 98001, Note_on_c, 9, 44, 0
1, 98153, Note_on_c, 9, 51, 0
1, 98163, Note_on_c, 9, 51, 49
1, 98247, Note_on_c, 9, 51, 0
1, 98257, Note_on_c, 1, 39, 0
1, 98291, Note_on_c, 9, 51, 98
1, 98309, Note_on_c, 1, 40, 59
1, 98353, Note_on_c, 0, 67, 58
1, 98365, Note_on_c, 0, 62, 53
1, 98377, Note_on_c, 0, 64, 39
1, 98401, Note_on_c, 0, 67, 0
1, 98433, Note_on_c, 0, 62, 0
1, 98441, Note_on_c, 0, 64, 0
1, 98547, Note_on_c, 9, 35, 42
1, 98585, Note_on_c, 9, 35, 0
1, 98617, Note_on_c, 9, 51, 0
1, 98657, Note_on_c, 1, 40, 0
1, 98675, Note_on_c, 9, 51, 73
1, 98675, Note_on_c, 9, 35, 33
1, 98679, Note_on_c, 9, 44, 122
1, 98689, Note_on_c, 1, 31, 73
1, 98775, Note_on_c, 9, 44, 0
1, 98867, Note_on_c, 9, 35, 0
1, 98933, Note_on_c, 0, 64, 68
1, 98945, Note_on_c, 0, 53, 65
1, 98953, Note_on_c, 0, 56, 35
1, 98977, Note_on_c, 0, 59, 47
1, 98979, Note_on_c, 9, 51, 0
1, 99021, Note_on_c, 0, 56, 0
1, 99025, Note_on_c, 0, 59, 0
1, 99049, Note_on_c, 0, 64, 0
1, 99053, Note_on_c, 1, 31, 0
1, 99059, Note_on_c, 9, 51, 64
1, 99069, Note_on_c, 0, 53, 0
1, 99073, Control_c, 1, 11, 127
1, 99073, Control_c, 1, 94, 0
1, 99073, Control_c, 1, 101, 0
1, 99074, Control_c, 1, 100, 1
1, 99075, Control_c, 1, 6, 64
1, 99076, Control_c, 1, 38, 0
1, 99076, Control_c, 1, 71, 64
1, 99076, Control_c, 1, 74, 64
1, 99089, Note_on_c, 1, 33, 60
1, 99203, Note_on_c, 9, 35, 42
1, 99241, Note_on_c, 9, 35, 0
1, 99319, Note_on_c, 9, 35, 33
1, 99349, Note_on_c, 0, 63, 62
1, 99353, Note_on_c, 9, 35, 0
1, 99361, Note_on_c, 0, 56, 51
1, 99361, Note_on_c, 0, 53, 46
1, 99369, Note_on_c, 0, 59, 55
1, 99385, Note_on_c, 9, 51, 0
1, 99443, Note_on_c, 9, 51, 78
1, 99447, Note_on_c, 9, 44, 117
1, 99449, Note_on_c, 9, 35, 52
1, 99457, Control_c, 0, 64, 127
1, 99465, Note_on_c, 1, 33, 0
1, 99469, Note_on_c, 1, 35, 74
1, 99537, Note_on_c, 9, 44, 0
1, 99537, Note_on_c, 0, 59, 0
1, 99609, Note_on_c, 9, 35, 0
1, 99645, Note_on_c, 0, 53, 0
1, 99653, Note_on_c, 1, 35, 0
1, 99687, Note_on_c, 9, 35, 59
1, 99701, Note_on_c, 0, 63, 0
1, 99719, Note_on_c, 9, 35, 0
1, 99737, Note_on_c, 0, 56, 0
1, 99795, Note_on_c, 9, 51, 0
1, 99821, Control_c, 0, 64, 0
1, 99827, Note_on_c, 9, 51, 70
1, 99841, Note_on_c, 0, 52, 49
1, 99841, Note_on_c, 0, 62, 48
1, 99841, Note_on_c, 1, 36, 63
1, 99865, Note_on_c, 0, 57, 61
1, 100163, Note_on_c, 9, 51, 0
1, 100181, Note_on_c, 1, 36, 0
1, 100211, Note_on_c, 9, 51, 84
1, 100215, Note_on_c, 9, 44, 120
1, 100229, Note_on_c, 0, 62, 0
1, 100233, Note_on_c, 0, 91, 94
1, 100245, Note_on_c, 0, 79, 76
1, 100245, Note_on_c, 1, 31, 41
1, 100249, Note_on_c, 0, 57, 0
1, 100301, Note_on_c, 9, 44, 0
1, 100381, Note_on_c, 0, 91, 0
1, 100405, Note_on_c, 0, 79, 0
1, 100409, Note_on_c, 9, 51, 0
1, 100467, Note_on_c, 9, 51, 84
1, 100487, Note_on_c, 9, 35, 68
1, 100493, Note_on_c, 0, 88, 59
1, 100513, Note_on_c, 0, 57, 35
1, 100535, Note_on_c, 9, 35, 0
1, 100545, Note_on_c, 0, 88, 0
1, 100547, Note_on_c, 9, 51, 0
1, 100557, Note_on_c, 1, 31, 0
1, 100589, Note_on_c, 0, 57, 0
1, 100595, Note_on_c, 9, 51, 73
1, 100605, Note_on_c, 0, 52, 0
1, 100609, Note_on_c, 1, 28, 44
1, 100653, Note_on_c, 0, 91, 82
1, 100677, Note_on_c, 0, 79, 55
1, 100785, Note_on_c, 0, 79, 0
1, 100849, Note_on_c, 0, 91, 0
1, 100877, Note_on_c, 0, 88, 76
1, 100893, Note_on_c, 0, 57, 37
1, 100919, Note_on_c, 9, 51, 0
1, 100973, Note_on_c, 1, 28, 0
1, 100979, Note_on_c, 9, 51, 103
1, 100983, Note_on_c, 0, 88, 0
1, 100983, Note_on_c, 0, 57, 0
1, 100983, Note_on_c, 9, 44, 112
1, 101005, Note_on_c, 1, 29, 39
1, 101049, Note_on_c, 0, 84, 49
1, 101089, Note_on_c, 9, 44, 0
1, 101193, Note_on_c, 0, 84, 0
1, 101203, Note_on_c, 9, 51, 0
1, 101233, Note_on_c, 0, 79, 76
1, 101235, Note_on_c, 9, 51, 63
1, 101237, Note_on_c, 1, 29, 0
1, 101261, Note_on_c, 1, 27, 50
1, 101313, Note_on_c, 0, 57, 30
1, 101319, Note_on_c, 9, 51, 0
1, 101341, Note_on_c, 0, 79, 0
1, 101361, Note_on_c, 1, 27, 0
1, 101363, Note_on_c, 9, 51, 56
1, 101365, Note_on_c, 1, 30, 57
1, 101381, Note_on_c, 0, 57, 0
1, 101385, Note_on_c, 9, 35, 28
1, 101413, Note_on_c, 0, 76, 57
1, 101425, Note_on_c, 9, 35, 0
1, 101633, Note_on_c, 0, 76, 0
1, 101653, Note_on_c, 0, 57, 38
1, 101689, Note_on_c, 1, 27, 39
1, 101699, Note_on_c, 9, 51, 0
1, 101733, Note_on_c, 0, 57, 0
1, 101745, Note_on_c, 0, 72, 59
1, 101745, Note_on_c, 9, 51, 92
1, 101751, Note_on_c, 9, 44, 120
1, 101757, Note_on_c, 1, 27, 0
1, 101769, Note_on_c, 1, 30, 0
1, 101773, Note_on_c, 1, 31, 46
1, 101847, Note_on_c, 9, 44, 0
1, 101961, Note_on_c, 9, 51, 0
1, 102003, Note_on_c, 9, 51, 59
1, 102005, Note_on_c, 0, 72, 0
1, 102009, Note_on_c, 9, 35, 29
1, 102029, Note_on_c, 0, 57, 26
1, 102041, Note_on_c, 9, 35, 0
1, 102083, Note_on_c, 9, 51, 0
1, 102089, Note_on_c, 0, 57, 0
1, 102129, Note_on_c, 9, 51, 68
1, 102137, Note_on_c, 1, 32, 57
1, 102145, Note_on_c, 1, 31, 0
1, 102153, Note_on_c, 0, 67, 58
1, 102373, Note_on_c, 0, 67, 0
1, 102385, Note_on_c, 0, 57, 55
1, 102453, Note_on_c, 0, 57, 0
1, 102455, Note_on_c, 9, 51, 0
1, 102515, Note_on_c, 9, 51, 92
1, 102519, Note_on_c, 9, 44, 119
1, 102533, Note_on_c, 0, 64, 58
1, 102537, Note_on_c, 1, 32, 0
1, 102541, Note_on_c, 1, 33, 52
1, 102657, Note_on_c, 9, 44, 0
1, 102723, Note_on_c, 9, 51, 0
1, 102771, Note_on_c, 9, 51, 52
1, 102833, Note_on_c, 1, 32, 43
1, 102839, Note_on_c, 9, 51, 0
1, 102845, Note_on_c, 1, 33, 0
1, 102869, Note_on_c, 0, 64, 0
1, 102881, Note_on_c, 1, 32, 0
1, 102899, Note_on_c, 9, 51, 66
1, 102905, Note_on_c, 0, 65, 64
1, 102925, Note_on_c, 1, 38, 56
1, 102931, Note_on_c, 9, 35, 22
1, 102967, Note_on_c, 9, 35, 0
1, 103185, Note_on_c, 0, 57, 44
1, 103219, Note_on_c, 9, 51, 0
1, 103237, Note_on_c, 0, 57, 0
1, 103269, Note_on_c, 0, 65, 0
1, 103283, Note_on_c, 9, 51, 61
1, 103287, Note_on_c, 9, 44, 112
1, 103313, Note_on_c, 1, 45, 82
1, 103317, Note_on_c, 0, 67, 82
1, 103389, Note_on_c, 1, 38, 0
1, 103415, Note_on_c, 9, 44, 0
1, 103449, Note_on_c, 9, 51, 0
1, 103539, Note_on_c, 9, 51, 49
1, 103559, Note_on_c, 9, 35, 29
1, 103597, Note_on_c, 9, 35, 0
1, 103605, Note_on_c, 1, 45, 0
1, 103621, Note_on_c, 1, 38, 48
1, 103645, Note_on_c, 0, 67, 0
1, 103677, Note_on_c, 1, 38, 0
1, 103697, Note_on_c, 0, 60, 50
1, 103701, Note_on_c, 1, 52, 77
1, 103753, Note_on_c, 1, 53, 31
1, 103793, Note_on_c, 9, 34, 21
1, 103833, Note_on_c, 9, 34, 0
1, 103879, Note_on_c, 9, 51, 0
1, 103913, Note_on_c, 9, 35, 42
1, 103953, Note_on_c, 9, 35, 0
1, 103989, Note_on_c, 1, 53, 0
1, 103997, Note_on_c, 1, 52, 0
1, 104025, Note_on_c, 1, 38, 42
1, 104041, Note_on_c, 9, 34, 20
1, 104051, Note_on_c, 9, 51, 119
1, 104055, Note_on_c, 9, 44, 113
1, 104065, Note_on_c, 0, 60, 0
1, 104065, Note_on_c, 1, 51, 63
1, 104073, Note_on_c, 1, 38, 0
1, 104089, Note_on_c, 0, 57, 61
1, 104105, Note_on_c, 9, 34, 0
1, 104161, Note_on_c, 9, 44, 0
1, 104227, Note_on_c, 9, 51, 0
1, 104307, Note_on_c, 9, 51, 66
1, 104355, Note_on_c, 9, 51, 0
1, 104393, Note_on_c, 0, 50, 34
1, 104409, Note_on_c, 1, 51, 0
1, 104435, Note_on_c, 9, 51, 77
1, 104449, Note_on_c, 0, 57, 0
1, 104461, Note_on_c, 0, 50, 0
1, 104461, Note_on_c, 1, 50, 68
1, 104691, Note_on_c, 9, 51, 0
1, 104721, Note_on_c, 1, 41, 68
1, 104757, Note_on_c, 1, 50, 0
1, 104819, Note_on_c, 9, 51, 124
1, 104823, Note_on_c, 9, 44, 106
1, 104829, Note_on_c, 1, 41, 0
1, 104833, Note_on_c, 1, 45, 72
1, 104905, Control_c, 0, 64, 127
1, 104945, Note_on_c, 9, 44, 0
1, 104995, Note_on_c, 9, 51, 0
1, 105075, Note_on_c, 9, 51, 103
1, 105127, Note_on_c, 9, 51, 0
1, 105153, Note_on_c, 1, 45, 0
1, 105197, Note_on_c, 1, 48, 68
1, 105203, Note_on_c, 9, 51, 75
1, 105219, Note_on_c, 9, 31, 70
1, 105251, Note_on_c, 9, 31, 0
1, 105299, Note_on_c, 9, 51, 0
1, 105427, Note_on_c, 9, 31, 87
1, 105449, Note_on_c, 1, 44, 66
1, 105459, Note_on_c, 9, 31, 0
1, 105459, Note_on_c, 9, 53, 127
1, 105513, Note_on_c, 1, 48, 0
1, 105527, Note_on_c, 9, 53, 0
1, 105549, Note_on_c, 1, 44, 0
1, 105587, Note_on_c, 9, 51, 52
1, 105591, Note_on_c, 9, 44, 108
1, 105593, Note_on_c, 1, 42, 54
1, 105699, Note_on_c, 9, 51, 0
1, 105705, Note_on_c, 9, 44, 0
1, 105745, Note_on_c, 9, 31, 77
1, 105785, Note_on_c, 9, 31, 0
1, 105843, Note_on_c, 9, 51, 127
1, 105843, Note_on_c, 9, 31, 71
1, 105875, Note_on_c, 9, 51, 0
1, 105901, Note_on_c, 9, 31, 0
1, 105917, Note_on_c, 1, 42, 0
1, 105961, Note_on_c, 9, 35, 59
1, 105971, Note_on_c, 9, 51, 96
1, 105977, Note_on_c, 1, 43, 56
1, 106105, Note_on_c, 9, 35, 0
1, 106243, Note_on_c, 9, 51, 0
1, 106317, Note_on_c, 1, 43, 0
1, 106355, Note_on_c, 9, 51, 78
1, 106359, Note_on_c, 9, 44, 105
1, 106369, Note_on_c, 1, 38, 56
1, 106471, Note_on_c, 9, 44, 0
1, 106627, Note_on_c, 9, 51, 0
1, 106721, Note_on_c, 1, 38, 0
1, 106739, Note_on_c, 9, 51, 61
1, 106753, Note_on_c, 1, 31, 76
1, 106777, Note_on_c, 0, 43, 53
1, 106785, Control_c, 0, 64, 0
1, 107031, Note_on_c, 9, 51, 0
1, 107105, Note_on_c, 1, 31, 0
1, 107123, Note_on_c, 9, 51, 47
1, 107127, Note_on_c, 9, 44, 112
1, 107133, Note_on_c, 1, 32, 81
1, 107249, Note_on_c, 9, 44, 0
1, 107315, Note_on_c, 9, 51, 0
1, 107379, Note_on_c, 9, 51, 127
1, 107421, Note_on_c, 0, 42, 46
1, 107463, Note_on_c, 9, 51, 0
1, 107469, Note_on_c, 1, 32, 0
1, 107485, Note_on_c, 0, 42, 0
1, 107505, Note_on_c, 1, 31, 72
1, 107507, Note_on_c, 9, 51, 85
1, 107533, Note_on_c, 0, 43, 0
1, 107545, Note_on_c, 0, 62, 71
1, 107573, Note_on_c, 0, 58, 53
1, 107573, Note_on_c, 0, 53, 51
1, 107635, Note_on_c, 9, 34, 28
1, 107687, Note_on_c, 9, 34, 0
1, 107733, Note_on_c, 0, 62, 0
1, 107753, Note_on_c, 0, 53, 0
1, 107761, Note_on_c, 9, 35, 45
1, 107781, Note_on_c, 0, 43, 51
1, 107793, Note_on_c, 9, 35, 0
1, 107805, Note_on_c, 9, 51, 0
1, 107829, Note_on_c, 0, 42, 35
1, 107857, Note_on_c, 1, 31, 0
1, 107889, Note_on_c, 0, 42, 0
1, 107889, Note_on_c, 1, 39, 75
1, 107891, Note_on_c, 9, 51, 84
1, 107891, Note_on_c, 9, 34, 23
1, 107895, Note_on_c, 9, 44, 108
1, 107925, Note_on_c, 0, 43, 0
1, 107941, Note_on_c, 0, 63, 64
1, 107941, Note_on_c, 0, 54, 65
1, 107965, Note_on_c, 9, 34, 0
1, 107981, Note_on_c, 0, 59, 62
1, 107991, Note_on_c, 9, 44, 0
1, 108049, Note_on_c, 0, 58, 0
1, 108137, Note_on_c, 9, 34, 23
1, 108163, Note_on_c, 9, 51, 0
1, 108185, Note_on_c, 0, 43, 50
1, 108209, Note_on_c, 9, 34, 0
1, 108217, Note_on_c, 0, 59, 0
1, 108225, Note_on_c, 1, 39, 0
1, 108225, Note_on_c, 0, 42, 35
1, 108241, Note_on_c, 0, 54, 0
1, 108245, Note_on_c, 0, 43, 0
1, 108249, Note_on_c, 1, 38, 60
1, 108275, Note_on_c, 9, 51, 59
1, 108285, Note_on_c, 0, 42, 0
1, 108297, Note_on_c, 9, 35, 33
1, 108313, Note_on_c, 0, 63, 0
1, 108329, Note_on_c, 0, 55, 56
1, 108339, Note_on_c, 9, 35, 0
1, 108341, Note_on_c, 0, 60, 61
1, 108341, Note_on_c, 0, 64, 64
1, 108473, Note_on_c, 0, 64, 0
1, 108505, Note_on_c, 9, 51, 0
1, 108513, Note_on_c, 1, 38, 0
1, 108531, Note_on_c, 9, 51, 35
1, 108537, Note_on_c, 0, 55, 0
1, 108537, Note_on_c, 9, 35, 75
1, 108541, Note_on_c, 1, 34, 74
1, 108545, Note_on_c, 0, 60, 0
1, 108569, Note_on_c, 0, 43, 48
1, 108583, Note_on_c, 9, 51, 0
1, 108605, Note_on_c, 9, 35, 0
1, 108637, Note_on_c, 1, 35, 81
1, 108641, Note_on_c, 1, 34, 0
1, 108659, Note_on_c, 9, 51, 99
1, 108663, Note_on_c, 9, 44, 101
1, 108685, Note_on_c, 0, 43, 0
1, 108705, Note_on_c, 0, 56, 70
1, 108713, Note_on_c, 0, 61, 67
1, 108721, Note_on_c, 0, 65, 65
1, 108769, Note_on_c, 9, 44, 0
1, 108905, Note_on_c, 9, 35, 38
1, 108933, Note_on_c, 0, 65, 0
1, 108937, Note_on_c, 9, 51, 0
1, 108961, Note_on_c, 9, 35, 0
1, 108997, Note_on_c, 0, 56, 0
1, 109029, Note_on_c, 0, 61, 0
1, 109033, Note_on_c, 1, 36, 63
1, 109041, Note_on_c, 1, 35, 0
1, 109043, Note_on_c, 9, 51, 120
1, 109049, Note_on_c, 0, 49, 28
1, 109059, Note_on_c, 9, 35, 31
1, 109097, Note_on_c, 0, 57, 62
1, 109101, Note_on_c, 9, 35, 0
1, 109109, Note_on_c, 0, 62, 55
1, 109109, Note_on_c, 0, 66, 51
1, 109121, Note_on_c, 0, 49, 0
1, 109309, Note_on_c, 0, 57, 0
1, 109333, Note_on_c, 0, 62, 0
1, 109333, Note_on_c, 1, 34, 60
1, 109351, Note_on_c, 9, 51, 0
1, 109389, Note_on_c, 1, 36, 0
1, 109401, Note_on_c, 0, 66, 0
1, 109401, Note_on_c, 0, 55, 48
1, 109427, Note_on_c, 9, 51, 59
1, 109431, Note_on_c, 9, 44, 99
1, 109433, Note_on_c, 1, 45, 94
1, 109449, Note_on_c, 0, 67, 73
1, 109457, Note_on_c, 0, 58, 68
1, 109473, Note_on_c, 1, 34, 0
1, 109473, Note_on_c, 0, 63, 68
1, 109529, Note_on_c, 9, 44, 0
1, 109637, Note_on_c, 0, 67, 0
1, 109657, Note_on_c, 9, 51, 0
1, 109683, Note_on_c, 0, 58, 0
1, 109683, Note_on_c, 9, 51, 59
1, 109687, Note_on_c, 9, 35, 47
1, 109735, Note_on_c, 9, 51, 0
1, 109737, Note_on_c, 9, 35, 0
1, 109797, Note_on_c, 0, 63, 0
1, 109811, Note_on_c, 9, 51, 64
1, 109825, Note_on_c, 0, 54, 31
1, 109825, Note_on_c, 1, 43, 67
1, 109841, Note_on_c, 0, 55, 0
1, 109845, Control_c, 0, 64, 127
1, 109881, Note_on_c, 0, 64, 53
1, 109885, Note_on_c, 0, 59, 57
1, 109889, Note_on_c, 1, 45, 0
1, 109901, Note_on_c, 0, 54, 0
1, 109909, Note_on_c, 0, 66, 51
1, 110005, Control_c, 0, 64, 0
1, 110037, Note_on_c, 0, 59, 0
1, 110053, Note_on_c, 0, 64, 0
1, 110103, Note_on_c, 9, 51, 0
1, 110109, Note_on_c, 0, 66, 0
1, 110165, Note_on_c, 0, 55, 55
1, 110195, Note_on_c, 9, 51, 113
1, 110197, Note_on_c, 1, 43, 0
1, 110199, Note_on_c, 9, 44, 112
1, 110209, Note_on_c, 1, 39, 78
1, 110213, Note_on_c, 0, 66, 56
1, 110233, Note_on_c, 0, 60, 64
1, 110253, Note_on_c, 0, 70, 68
1, 110311, Note_on_c, 9, 44, 0
1, 110397, Note_on_c, 0, 60, 0
1, 110419, Note_on_c, 9, 51, 0
1, 110441, Note_on_c, 9, 35, 52
1, 110445, Note_on_c, 0, 66, 0
1, 110451, Note_on_c, 9, 51, 64
1, 110477, Note_on_c, 0, 70, 0
1, 110509, Note_on_c, 9, 35, 0
1, 110517, Note_on_c, 0, 55, 0
1, 110521, Note_on_c, 9, 51, 0
1, 110573, Note_on_c, 1, 39, 0
1, 110579, Note_on_c, 9, 51, 91
1, 110601, Control_c, 0, 64, 127
1, 110601, Note_on_c, 1, 40, 61
1, 110641, Note_on_c, 0, 71, 53
1, 110649, Note_on_c, 0, 62, 48
1, 110665, Note_on_c, 0, 67, 50
1, 110681, Note_on_c, 0, 57, 50
1, 110809, Note_on_c, 0, 67, 0
1, 110809, Control_c, 0, 64, 0
1, 110837, Note_on_c, 0, 71, 0
1, 110853, Note_on_c, 0, 62, 0
1, 110873, Note_on_c, 9, 51, 0
1, 110949, Note_on_c, 1, 40, 0
1, 110961, Note_on_c, 0, 57, 0
1, 110963, Note_on_c, 9, 51, 99
1, 110965, Note_on_c, 1, 31, 78
1, 110967, Note_on_c, 9, 44, 112
1, 111009, Note_on_c, 0, 57, 29
1, 111029, Note_on_c, 0, 72, 88
1, 111045, Note_on_c, 0, 64, 79
1, 111069, Note_on_c, 0, 58, 53
1, 111079, Note_on_c, 9, 44, 0
1, 111093, Note_on_c, 0, 69, 41
1, 111141, Note_on_c, 0, 67, 29
1, 111181, Note_on_c, 0, 72, 0
1, 111197, Note_on_c, 0, 64, 0
1, 111201, Note_on_c, 0, 67, 0
1, 111205, Note_on_c, 0, 69, 0
1, 111257, Note_on_c, 0, 57, 0
1, 111267, Note_on_c, 9, 51, 0
1, 111317, Note_on_c, 0, 58, 0
1, 111347, Note_on_c, 9, 51, 77
1, 111361, Note_on_c, 0, 73, 70
1, 111361, Note_on_c, 1, 33, 71
1, 111365, Note_on_c, 1, 31, 0
1, 111401, Note_on_c, 0, 63, 44
1, 111425, Note_on_c, 0, 68, 51
1, 111433, Note_on_c, 0, 59, 45
1, 111561, Note_on_c, 0, 68, 0
1, 111573, Note_on_c, 1, 33, 0
1, 111609, Note_on_c, 1, 34, 73
1, 111617, Note_on_c, 0, 73, 0
1, 111619, Note_on_c, 9, 37, 50
1, 111635, Note_on_c, 9, 51, 0
1, 111637, Note_on_c, 0, 63, 0
1, 111657, Note_on_c, 0, 59, 0
1, 111669, Note_on_c, 0, 58, 27
1, 111689, Note_on_c, 1, 34, 0
1, 111699, Note_on_c, 9, 37, 0
1, 111731, Note_on_c, 9, 51, 89
1, 111735, Note_on_c, 9, 46, 21
1, 111737, Note_on_c, 1, 35, 73
1, 111749, Control_c, 0, 64, 127
1, 111753, Note_on_c, 0, 58, 0
1, 111767, Note_on_c, 9, 35, 24
1, 111785, Note_on_c, 0, 66, 68
1, 111785, Note_on_c, 0, 75, 70
1, 111797, Note_on_c, 0, 59, 40
1, 111815, Note_on_c, 9, 35, 0
1, 111857, Note_on_c, 9, 46, 0
1, 111939, Note_on_c, 9, 51, 0
1, 111953, Control_c, 0, 64, 40
1, 111957, Control_c, 0, 64, 0
1, 111973, Note_on_c, 0, 66, 0
1, 111987, Note_on_c, 9, 51, 68
1, 111993, Note_on_c, 0, 75, 0
1, 111993, Note_on_c, 9, 37, 59
1, 112055, Note_on_c, 9, 51, 0
1, 112065, Note_on_c, 0, 76, 86
1, 112069, Note_on_c, 0, 72, 70
1, 112069, Note_on_c, 0, 69, 70
1, 112081, Note_on_c, 0, 67, 78
1, 112085, Note_on_c, 0, 60, 65
1, 112099, Note_on_c, 9, 37, 0
1, 112101, Note_on_c, 0, 59, 0
1, 112115, Note_on_c, 9, 51, 96
1, 112129, Note_on_c, 1, 35, 0
1, 112133, Note_on_c, 1, 36, 63
1, 112137, Note_on_c, 9, 35, 28
1, 112161, Control_c, 0, 64, 127
1, 112189, Note_on_c, 9, 35, 0
1, 112423, Note_on_c, 9, 51, 0
1, 112429, Note_on_c, 1, 34, 67
1, 112457, Note_on_c, 0, 76, 0
1, 112461, Note_on_c, 0, 72, 0
1, 112473, Note_on_c, 0, 69, 0
1, 112481, Note_on_c, 1, 36, 0
1, 112493, Note_on_c, 0, 60, 0
1, 112499, Note_on_c, 9, 51, 91
1, 112503, Note_on_c, 9, 44, 117
1, 112521, Note_on_c, 1, 50, 99
1, 112529, Note_on_c, 1, 34, 0
1, 112549, Note_on_c, 0, 67, 0
1, 112647, Note_on_c, 9, 44, 0
1, 112757, Control_c, 0, 64, 0
1, 112777, Note_on_c, 9, 35, 28
1, 112817, Note_on_c, 9, 35, 0
1, 112825, Note_on_c, 9, 51, 0
1, 112877, Note_on_c, 0, 72, 51
1, 112883, Note_on_c, 9, 51, 80
1, 112885, Note_on_c, 0, 55, 39
1, 112885, Note_on_c, 0, 64, 46
1, 112897, Note_on_c, 1, 50, 0
1, 112905, Note_on_c, 0, 67, 57
1, 112909, Note_on_c, 1, 48, 68
1, 112925, Note_on_c, 0, 69, 47
1, 113037, Control_c, 0, 64, 127
1, 113125, Note_on_c, 0, 69, 0
1, 113125, Note_on_c, 0, 72, 0
1, 113149, Note_on_c, 0, 67, 0
1, 113187, Note_on_c, 9, 51, 0
1, 113213, Note_on_c, 0, 64, 0
1, 113229, Note_on_c, 0, 55, 0
1, 113267, Note_on_c, 9, 51, 78
1, 113271, Note_on_c, 9, 44, 119
1, 113273, Note_on_c, 1, 42, 68
1, 113305, Note_on_c, 1, 48, 0
1, 113357, Note_on_c, 0, 49, 33
1, 113361, Note_on_c, 9, 44, 0
1, 113485, Note_on_c, 0, 49, 0
1, 113489, Control_c, 0, 64, 0
1, 113523, Note_on_c, 9, 51, 68
1, 113527, Note_on_c, 9, 51, 0
1, 113529, Note_on_c, 9, 35, 35
1, 113545, Note_on_c, 0, 55, 53
1, 113545, Note_on_c, 0, 60, 58
1, 113545, Note_on_c, 0, 52, 64
1, 113553, Note_on_c, 0, 64, 40
1, 113561, Note_on_c, 0, 57, 53
1, 113561, Note_on_c, 9, 35, 0
1, 113591, Note_on_c, 9, 51, 0
1, 113649, Note_on_c, 1, 42, 0
1, 113651, Note_on_c, 9, 51, 73
1, 113673, Note_on_c, 1, 43, 63
1, 113779, Note_on_c, 9, 34, 28
1, 113831, Note_on_c, 9, 34, 0
1, 113905, Note_on_c, 9, 35, 45
1, 113937, Note_on_c, 9, 35, 0
1, 113975, Note_on_c, 9, 51, 0
1, 114009, Control_c, 0, 64, 127
1, 114035, Note_on_c, 9, 51, 84
1, 114035, Note_on_c, 9, 34, 23
1, 114039, Note_on_c, 9, 44, 108
1, 114049, Note_on_c, 1, 43, 0
1, 114069, Note_on_c, 1, 39, 68
1, 114109, Note_on_c, 9, 34, 0
1, 114135, Note_on_c, 9, 44, 0
1, 114141, Note_on_c, 0, 55, 0
1, 114185, Note_on_c, 0, 57, 0
1, 114193, Note_on_c, 0, 60, 0
1, 114241, Note_on_c, 0, 64, 0
1, 114245, Note_on_c, 0, 52, 0
1, 114281, Note_on_c, 9, 34, 23
1, 114307, Note_on_c, 9, 51, 0
1, 114353, Note_on_c, 9, 34, 0
1, 114419, Note_on_c, 9, 51, 59
1, 114441, Note_on_c, 9, 35, 33
1, 114449, Note_on_c, 1, 39, 0
1, 114457, Note_on_c, 1, 40, 70
1, 114483, Note_on_c, 9, 35, 0
1, 114649, Note_on_c, 9, 51, 0
1, 114675, Note_on_c, 9, 51, 35
1, 114681, Note_on_c, 9, 35, 75
1, 114705, Note_on_c, 1, 36, 66
1, 114717, Note_on_c, 1, 40, 0
1, 114727, Note_on_c, 9, 51, 0
1, 114749, Note_on_c, 9, 35, 0
1, 114785, Note_on_c, 1, 36, 0
1, 114803, Note_on_c, 9, 51, 99
1, 114807, Note_on_c, 9, 44, 101
1, 114829, Control_c, 0, 64, 0
1, 114837, Note_on_c, 1, 37, 69
1, 114913, Note_on_c, 9, 44, 0
1, 115049, Control_c, 0, 64, 127
1, 115049, Note_on_c, 9, 35, 38
1, 115081, Note_on_c, 9, 51, 0
1, 115105, Note_on_c, 9, 35, 0
1, 115153, Note_on_c, 1, 34, 39
1, 115187, Note_on_c, 9, 51, 120
1, 115203, Note_on_c, 9, 35, 31
1, 115209, Note_on_c, 1, 34, 0
1, 115217, Note_on_c, 1, 37, 0
1, 115241, Note_on_c, 1, 38, 68
1, 115245, Note_on_c, 9, 35, 0
1, 115495, Note_on_c, 9, 51, 0
1, 115513, Note_on_c, 1, 38, 0
1, 115513, Note_on_c, 1, 37, 54
1, 115571, Note_on_c, 9, 51, 59
1, 115575, Note_on_c, 9, 44, 99
1, 115577, Control_c, 0, 64, 0
1, 115589, Note_on_c, 0, 65, 95
1, 115593, Note_on_c, 0, 77, 98
1, 115597, Note_on_c, 0, 72, 87
1, 115597, Note_on_c, 0, 74, 80
1, 115597, Note_on_c, 0, 69, 90
1, 115617, Note_on_c, 1, 40, 68
1, 115649, Note_on_c, 1, 37, 0
1, 115673, Note_on_c, 9, 44, 0
1, 115801, Note_on_c, 9, 51, 0
1, 115827, Note_on_c, 9, 51, 59
1, 115831, Note_on_c, 9, 35, 47
1, 115841, Control_c, 0, 64, 127
1, 115869, Note_on_c, 0, 65, 0
1, 115879, Note_on_c, 9, 51, 0
1, 115881, Note_on_c, 9, 35, 0
1, 115901, Note_on_c, 1, 40, 0
1, 115901, Note_on_c, 1, 39, 54
1, 115909, Note_on_c, 0, 74, 0
1, 115913, Note_on_c, 0, 77, 0
1, 115929, Note_on_c, 0, 72, 0
1, 115955, Note_on_c, 9, 51, 64
1, 115981, Note_on_c, 0, 69, 0
1, 116001, Note_on_c, 1, 41, 63
1, 116017, Note_on_c, 1, 39, 0
1, 116137, Control_c, 0, 64, 0
1, 116161, Note_on_c, 0, 74, 70
1, 116177, Note_on_c, 0, 69, 69
1, 116177, Note_on_c, 0, 65, 63
1, 116189, Note_on_c, 0, 62, 65
1, 116213, Note_on_c, 0, 71, 53
1, 116247, Note_on_c, 9, 51, 0
1, 116277, Note_on_c, 1, 42, 56
1, 116293, Note_on_c, 1, 41, 0
1, 116313, Control_c, 0, 64, 127
1, 116317, Note_on_c, 1, 42, 0
1, 116339, Note_on_c, 9, 51, 113
1, 116343, Note_on_c, 9, 44, 112
1, 116369, Note_on_c, 1, 44, 61
1, 116377, Note_on_c, 0, 71, 0
1, 116425, Note_on_c, 0, 69, 0
1, 116455, Note_on_c, 9, 44, 0
1, 116465, Note_on_c, 0, 74, 0
1, 116509, Note_on_c, 0, 65, 0
1, 116517, Note_on_c, 0, 62, 0
1, 116553, Note_on_c, 0, 56, 28
1, 116563, Note_on_c, 9, 51, 0
1, 116585, Note_on_c, 9, 35, 52
1, 116595, Note_on_c, 9, 51, 64
1, 116649, Note_on_c, 1, 41, 44
1, 116653, Note_on_c, 9, 35, 0
1, 116665, Note_on_c, 9, 51, 0
1, 116681, Control_c, 0, 64, 0
1, 116693, Note_on_c, 1, 41, 0
1, 116693, Note_on_c, 0, 56, 0
1, 116723, Note_on_c, 9, 51, 91
1, 116749, Note_on_c, 1, 44, 0
1, 116749, Note_on_c, 0, 72, 54
1, 116753, Note_on_c, 0, 60, 51
1, 116765, Note_on_c, 0, 69, 56
1, 116769, Note_on_c, 1, 45, 49
1, 116777, Note_on_c, 0, 62, 51
1, 116789, Note_on_c, 0, 65, 52
1, 116973, Control_c, 0, 64, 127
1, 117013, Note_on_c, 0, 69, 0
1, 117017, Note_on_c, 9, 51, 0
1, 117045, Note_on_c, 0, 72, 0
1, 117057, Note_on_c, 0, 65, 0
1, 117073, Note_on_c, 1, 41, 42
1, 117077, Note_on_c, 0, 60, 0
1, 117085, Note_on_c, 1, 45, 0
1, 117107, Note_on_c, 9, 51, 99
1, 117111, Note_on_c, 9, 44, 112
1, 117117, Note_on_c, 1, 41, 0
1, 117121, Note_on_c, 0, 62, 0
1, 117125, Note_on_c, 1, 48, 60
1, 117223, Note_on_c, 9, 44, 0
1, 117261, Control_c, 0, 64, 0
1, 117337, Note_on_c, 0, 69, 56
1, 117341, Note_on_c, 0, 57, 57
1, 117349, Note_on_c, 0, 60, 45
1, 117357, Note_on_c, 0, 65, 50
1, 117357, Note_on_c, 0, 62, 46
1, 117377, Note_on_c, 1, 42, 39
1, 117411, Note_on_c, 9, 51, 0
1, 117433, Note_on_c, 1, 42, 0
1, 117457, Control_c, 0, 64, 72
1, 117461, Control_c, 0, 64, 127
1, 117491, Note_on_c, 9, 51, 77
1, 117505, Note_on_c, 1, 55, 70
1, 117513, Note_on_c, 0, 65, 0
1, 117525, Note_on_c, 0, 69, 0
1, 117541, Note_on_c, 0, 62, 0
1, 117557, Note_on_c, 1, 48, 0
1, 117581, Note_on_c, 0, 60, 0
1, 117597, Note_on_c, 0, 57, 0
1, 117763, Note_on_c, 9, 37, 50
1, 117779, Note_on_c, 9, 51, 0
1, 117785, Note_on_c, 0, 51, 39
1, 117817, Note_on_c, 1, 55, 0
1, 117833, Note_on_c, 1, 43, 46
1, 117843, Note_on_c, 9, 37, 0
1, 117845, Note_on_c, 0, 51, 0
1, 117853, Control_c, 0, 64, 0
1, 117873, Note_on_c, 1, 54, 69
1, 117875, Note_on_c, 9, 51, 89
1, 117879, Note_on_c, 9, 46, 21
1, 117881, Note_on_c, 1, 43, 0
1, 117897, Note_on_c, 0, 52, 41
1, 117897, Note_on_c, 0, 53, 46
1, 117911, Note_on_c, 9, 35, 24
1, 117921, Note_on_c, 0, 57, 41
1, 117921, Note_on_c, 0, 65, 50
1, 117921, Note_on_c, 0, 60, 51
1, 117945, Note_on_c, 0, 52, 0
1, 117945, Note_on_c, 0, 62, 37
1, 117959, Note_on_c, 9, 35, 0
1, 118001, Note_on_c, 9, 46, 0
1, 118083, Note_on_c, 9, 51, 0
1, 118131, Note_on_c, 9, 51, 68
1, 118133, Control_c, 0, 64, 127
1, 118137, Note_on_c, 9, 37, 59
1, 118165, Note_on_c, 0, 62, 0
1, 118181, Note_on_c, 1, 43, 45
1, 118189, Note_on_c, 0, 60, 0
1, 118199, Note_on_c, 9, 51, 0
1, 118201, Note_on_c, 0, 65, 0
1, 118209, Note_on_c, 1, 54, 0
1, 118225, Note_on_c, 1, 43, 0
1, 118243, Note_on_c, 9, 37, 0
1, 118259, Note_on_c, 9, 51, 96
1, 118277, Note_on_c, 0, 57, 0
1, 118281, Note_on_c, 9, 35, 28
1, 118285, Note_on_c, 1, 53, 51
1, 118309, Note_on_c, 0, 53, 0
1, 118333, Note_on_c, 9, 35, 0
1, 118369, Note_on_c, 0, 49, 39
1, 118397, Control_c, 0, 64, 0
1, 118429, Note_on_c, 0, 49, 0
1, 118477, Note_on_c, 0, 64, 56
1, 118501, Note_on_c, 0, 57, 49
1, 118501, Note_on_c, 0, 52, 58
1, 118501, Note_on_c, 0, 53, 50
1, 118513, Note_on_c, 0, 60, 50
1, 118567, Note_on_c, 9, 51, 0
1, 118589, Note_on_c, 1, 43, 45
1, 118597, Note_on_c, 1, 53, 0
1, 118633, Note_on_c, 1, 43, 0
1, 118643, Note_on_c, 9, 51, 91
1, 118647, Note_on_c, 9, 44, 117
1, 118665, Note_on_c, 1, 52, 57
1, 118791, Note_on_c, 9, 44, 0
1, 118817, Note_on_c, 0, 52, 0
1, 118825, Note_on_c, 0, 53, 0
1, 118853, Note_on_c, 0, 57, 0
1, 118873, Note_on_c, 0, 64, 0
1, 118893, Note_on_c, 0, 48, 46
1, 118921, Note_on_c, 9, 35, 28
1, 118933, Note_on_c, 0, 60, 0
1, 118937, Note_on_c, 1, 43, 50
1, 118961, Note_on_c, 9, 35, 0
1, 118969, Note_on_c, 9, 51, 0
1, 118977, Note_on_c, 1, 43, 0
1, 118977, Note_on_c, 0, 48, 0
1, 119017, Note_on_c, 0, 50, 56
1, 119021, Note_on_c, 1, 52, 0
1, 119027, Note_on_c, 9, 51, 80
1, 119029, Note_on_c, 0, 53, 53
1, 119033, Note_on_c, 0, 62, 65
1, 119037, Note_on_c, 0, 57, 52
1, 119069, Note_on_c, 0, 50, 0
1, 119069, Note_on_c, 1, 50, 62
1, 119331, Note_on_c, 9, 51, 0
1, 119361, Note_on_c, 0, 53, 0
1, 119377, Note_on_c, 1, 50, 0
1, 119389, Note_on_c, 0, 57, 0
1, 119397, Note_on_c, 0, 43, 62
1, 119411, Note_on_c, 0, 41, 67
1, 119411, Note_on_c, 9, 51, 78
1, 119415, Note_on_c, 9, 44, 119
1, 119421, Note_on_c, 0, 29, 62
1, 119421, Note_on_c, 0, 31, 67
1, 119429, Note_on_c, 1, 42, 65
1, 119453, Note_on_c, 0, 41, 0
1, 119461, Note_on_c, 0, 62, 0
1, 119497, Note_on_c, 0, 29, 0
1, 119505, Note_on_c, 9, 44, 0
1, 119537, Note_on_c, 0, 31, 0
1, 119589, Note_on_c, 0, 31, 22
1, 119667, Note_on_c, 9, 51, 68
1, 119671, Note_on_c, 9, 51, 0
1, 119673, Note_on_c, 9, 35, 35
1, 119705, Note_on_c, 9, 35, 0
1, 119717, Note_on_c, 0, 31, 0
1, 119735, Note_on_c, 9, 51, 0
1, 119785, Note_on_c, 1, 42, 0
1, 119795, Note_on_c, 0, 53, 45
1, 119795, Note_on_c, 9, 51, 73
1, 119805, Note_on_c, 0, 60, 55
1, 119809, Note_on_c, 9, 35, 21
1, 119813, Note_on_c, 1, 43, 59
1, 119821, Note_on_c, 0, 43, 0
1, 119825, Note_on_c, 0, 57, 47
1, 119863, Note_on_c, 9, 35, 0
1, 119933, Note_on_c, 0, 53, 0
1, 119957, Note_on_c, 0, 57, 0
1, 119993, Note_on_c, 0, 60, 0
1, 120035, Note_on_c, 9, 31, 50
1, 120093, Note_on_c, 9, 31, 0
1, 120119, Note_on_c, 9, 51, 0
1, 120157, Note_on_c, 1, 43, 0
1, 120179, Note_on_c, 9, 51, 98
1, 120183, Note_on_c, 9, 44, 117
1, 120193, Note_on_c, 0, 60, 53
1, 120193, Note_on_c, 0, 53, 46
1, 120193, Note_on_c, 0, 50, 35
1, 120201, Note_on_c, 1, 38, 68
1, 120209, Note_on_c, 0, 57, 43
1, 120263, Note_on_c, 9, 44, 0
1, 120345, Note_on_c, 0, 50, 0
1, 120361, Note_on_c, 0, 53, 0
1, 120369, Note_on_c, 0, 57, 0
1, 120389, Note_on_c, 0, 60, 0
1, 120499, Note_on_c, 9, 51, 0
1, 120553, Note_on_c, 1, 38, 0
1, 120557, Note_on_c, 0, 50, 37
1, 120563, Note_on_c, 9, 51, 80
1, 120577, Note_on_c, 1, 31, 63
1, 120597, Note_on_c, 0, 53, 41
1, 120601, Note_on_c, 0, 60, 56
1, 120625, Note_on_c, 0, 57, 40
1, 120769, Note_on_c, 0, 53, 0
1, 120789, Note_on_c, 0, 57, 0
1, 120813, Note_on_c, 1, 31, 0
1, 120841, Note_on_c, 1, 34, 75
1, 120855, Note_on_c, 9, 51, 0
1, 120857, Note_on_c, 0, 60, 0
1, 120917, Note_on_c, 0, 50, 0
1, 120947, Note_on_c, 9, 51, 84
1, 120949, Note_on_c, 1, 34, 0
1, 120951, Note_on_c, 9, 44, 110
1, 120969, Note_on_c, 0, 62, 59
1, 120977, Note_on_c, 0, 53, 30
1, 120989, Note_on_c, 0, 57, 41
1, 120993, Note_on_c, 0, 43, 27
1, 120993, Note_on_c, 1, 35, 63
1, 121037, Note_on_c, 0, 53, 0
1, 121045, Note_on_c, 0, 57, 0
1, 121079, Note_on_c, 9, 44, 0
1, 121089, Note_on_c, 9, 31, 45
1, 121143, Note_on_c, 9, 31, 0
1, 121187, Note_on_c, 9, 51, 0
1, 121203, Note_on_c, 9, 51, 59
1, 121209, Note_on_c, 9, 37, 35
1, 121213, Note_on_c, 0, 62, 0
1, 121255, Note_on_c, 9, 51, 0
1, 121289, Note_on_c, 9, 37, 0
1, 121293, Note_on_c, 1, 35, 0
1, 121321, Note_on_c, 0, 50, 27
1, 121331, Note_on_c, 9, 51, 66
1, 121333, Note_on_c, 1, 36, 57
1, 121345, Note_on_c, 0, 55, 44
1, 121345, Note_on_c, 0, 64, 52
1, 121345, Note_on_c, 9, 35, 52
1, 121357, Note_on_c, 0, 52, 56
1, 121373, Note_on_c, 0, 50, 0
1, 121373, Note_on_c, 0, 59, 55
1, 121477, Note_on_c, 0, 64, 0
1, 121481, Note_on_c, 0, 55, 0
1, 121505, Note_on_c, 0, 59, 0
1, 121513, Note_on_c, 0, 43, 0
1, 121523, Note_on_c, 9, 35, 0
1, 121593, Note_on_c, 1, 34, 54
1, 121609, Note_on_c, 9, 51, 0
1, 121637, Note_on_c, 1, 36, 0
1, 121685, Note_on_c, 1, 34, 0
1, 121701, Note_on_c, 1, 38, 58
1, 121709, Note_on_c, 0, 52, 0
1, 121713, Note_on_c, 0, 63, 45
1, 121715, Note_on_c, 9, 51, 103
1, 121719, Note_on_c, 9, 44, 108
1, 121729, Note_on_c, 0, 51, 46
1, 121753, Note_on_c, 0, 58, 47
1, 121841, Note_on_c, 9, 44, 0
1, 121885, Note_on_c, 0, 63, 0
1, 121921, Note_on_c, 0, 58, 0
1, 121945, Note_on_c, 9, 51, 0
1, 121953, Note_on_c, 0, 51, 0
1, 121957, Note_on_c, 0, 55, 31
1, 121971, Note_on_c, 9, 51, 64
1, 121977, Note_on_c, 0, 64, 55
1, 121977, Note_on_c, 9, 35, 47
1, 121981, Note_on_c, 0, 52, 46
1, 121989, Note_on_c, 1, 38, 0
1, 121989, Note_on_c, 1, 34, 49
1, 122009, Note_on_c, 9, 35, 0
1, 122019, Note_on_c, 9, 51, 0
1, 122021, Note_on_c, 0, 59, 44
1, 122045, Note_on_c, 0, 55, 0
1, 122069, Note_on_c, 0, 59, 0
1, 122089, Note_on_c, 0, 64, 0
1, 122099, Note_on_c, 9, 51, 84
1, 122109, Note_on_c, 1, 40, 59
1, 122125, Note_on_c, 1, 34, 0
1, 122125, Note_on_c, 0, 52, 0
1, 122329, Note_on_c, 0, 67, 73
1, 122353, Note_on_c, 0, 62, 64
1, 122353, Note_on_c, 0, 57, 58
1, 122361, Note_on_c, 0, 55, 60
1, 122391, Note_on_c, 9, 51, 0
1, 122417, Note_on_c, 1, 40, 0
1, 122421, Note_on_c, 1, 36, 40
1, 122469, Note_on_c, 1, 36, 0
1, 122481, Note_on_c, 1, 43, 58
1, 122483, Note_on_c, 9, 51, 99
1, 122487, Note_on_c, 9, 44, 110
1, 122569, Note_on_c, 0, 57, 0
1, 122605, Note_on_c, 0, 67, 0
1, 122633, Note_on_c, 9, 44, 0
1, 122685, Note_on_c, 0, 55, 0
1, 122713, Note_on_c, 0, 54, 37
1, 122725, Note_on_c, 0, 62, 0
1, 122777, Note_on_c, 9, 51, 0
1, 122801, Note_on_c, 1, 36, 52
1, 122813, Note_on_c, 0, 54, 0
1, 122829, Note_on_c, 1, 43, 0
1, 122857, Note_on_c, 0, 57, 47
1, 122861, Note_on_c, 1, 36, 0
1, 122867, Note_on_c, 0, 62, 45
1, 122867, Note_on_c, 0, 69, 60
1, 122867, Note_on_c, 9, 51, 68
1, 122881, Note_on_c, 1, 50, 73
1, 122887, Note_on_c, 9, 35, 28
1, 122941, Note_on_c, 9, 35, 0
1, 122997, Note_on_c, 0, 62, 0
1, 123049, Note_on_c, 0, 69, 0
1, 123061, Note_on_c, 0, 57, 0
1, 123109, Note_on_c, 0, 58, 46
1, 123157, Note_on_c, 1, 40, 38
1, 123161, Note_on_c, 9, 51, 0
1, 123201, Note_on_c, 1, 50, 0
1, 123217, Note_on_c, 0, 58, 0
1, 123229, Note_on_c, 1, 40, 0
1, 123249, Note_on_c, 0, 60, 62
1, 123249, Note_on_c, 9, 51, 82
1, 123255, Note_on_c, 9, 44, 98
1, 123261, Note_on_c, 0, 72, 64
1, 123261, Note_on_c, 1, 49, 68
1, 123273, Note_on_c, 0, 67, 54
1, 123277, Note_on_c, 0, 64, 50
1, 123281, Note_on_c, 0, 69, 57
1, 123413, Note_on_c, 0, 72, 0
1, 123421, Note_on_c, 0, 69, 0
1, 123425, Note_on_c, 9, 44, 0
1, 123433, Note_on_c, 0, 67, 0
1, 123449, Note_on_c, 0, 64, 0
1, 123465, Note_on_c, 0, 60, 0
1, 123491, Note_on_c, 9, 51, 0
1, 123507, Note_on_c, 9, 51, 54
1, 123511, Note_on_c, 9, 35, 28
1, 123543, Note_on_c, 9, 35, 0
1, 123557, Note_on_c, 1, 42, 49
1, 123559, Note_on_c, 9, 51, 0
1, 123565, Note_on_c, 1, 49, 0
1, 123581, Note_on_c, 0, 59, 39
1, 123597, Note_on_c, 1, 42, 0
1, 123633, Note_on_c, 0, 59, 0
1, 123635, Note_on_c, 9, 51, 84
1, 123637, Note_on_c, 0, 60, 56
1, 123645, Note_on_c, 1, 48, 68
1, 123649, Note_on_c, 0, 72, 67
1, 123665, Note_on_c, 0, 67, 60
1, 123677, Note_on_c, 0, 69, 60
1, 123677, Note_on_c, 0, 64, 55
1, 123781, Note_on_c, 0, 69, 0
1, 123813, Note_on_c, 0, 60, 0
1, 123817, Note_on_c, 0, 72, 0
1, 123825, Note_on_c, 0, 56, 46
1, 123833, Note_on_c, 0, 67, 0
1, 123869, Note_on_c, 0, 64, 0
1, 123881, Note_on_c, 9, 31, 49
1, 123907, Note_on_c, 9, 31, 0
1, 123917, Note_on_c, 1, 42, 48
1, 123945, Note_on_c, 9, 51, 0
1, 123953, Note_on_c, 0, 58, 28
1, 123973, Note_on_c, 1, 42, 0
1, 123981, Note_on_c, 0, 56, 0
1, 123985, Note_on_c, 1, 48, 0
1, 123997, Note_on_c, 0, 59, 51
1, 124005, Note_on_c, 0, 58, 0
1, 124009, Note_on_c, 0, 71, 68
1, 124019, Note_on_c, 9, 51, 106
1, 124023, Note_on_c, 9, 44, 101
1, 124025, Note_on_c, 0, 65, 48
1, 124025, Note_on_c, 1, 47, 62
1, 124041, Note_on_c, 0, 62, 52
1, 124135, Note_on_c, 9, 44, 0
1, 124161, Note_on_c, 0, 65, 0
1, 124169, Note_on_c, 9, 31, 64
1, 124181, Note_on_c, 0, 71, 0
1, 124205, Note_on_c, 0, 62, 0
1, 124217, Note_on_c, 0, 59, 0
1, 124227, Note_on_c, 9, 51, 0
1, 124227, Note_on_c, 9, 31, 0
1, 124237, Note_on_c, 0, 58, 46
1, 124275, Note_on_c, 9, 51, 56
1, 124285, Note_on_c, 0, 70, 65
1, 124289, Note_on_c, 9, 34, 35
1, 124327, Note_on_c, 9, 51, 0
1, 124381, Note_on_c, 0, 70, 0
1, 124385, Note_on_c, 9, 34, 0
1, 124385, Note_on_c, 1, 47, 0
1, 124403, Note_on_c, 9, 51, 98
1, 124409, Note_on_c, 1, 48, 63
1, 124433, Note_on_c, 9, 35, 33
1, 124545, Note_on_c, 0, 58, 0
1, 124627, Note_on_c, 9, 35, 0
1, 124677, Note_on_c, 0, 58, 41
1, 124695, Note_on_c, 9, 51, 0
1, 124729, Note_on_c, 0, 58, 0
1, 124787, Note_on_c, 9, 51, 87
1, 124791, Note_on_c, 9, 44, 87
1, 124805, Note_on_c, 1, 42, 61
1, 124821, Note_on_c, 1, 48, 0
1, 124913, Note_on_c, 9, 44, 0
1, 124981, Note_on_c, 0, 72, 62
1, 125047, Note_on_c, 9, 35, 28
1, 125081, Note_on_c, 9, 51, 0
1, 125101, Note_on_c, 9, 35, 0
1, 125105, Note_on_c, 0, 70, 62
1, 125109, Note_on_c, 0, 72, 0
1, 125149, Note_on_c, 1, 42, 0
1, 125169, Note_on_c, 9, 35, 29
1, 125171, Note_on_c, 9, 51, 68
1, 125185, Note_on_c, 1, 43, 63
1, 125205, Note_on_c, 0, 69, 52
1, 125237, Note_on_c, 0, 70, 0
1, 125297, Note_on_c, 9, 35, 0
1, 125383, Note_on_c, 9, 51, 0
1, 125385, Note_on_c, 0, 69, 0
1, 125425, Note_on_c, 0, 70, 68
1, 125441, Note_on_c, 1, 43, 0
1, 125453, Note_on_c, 1, 38, 65
1, 125477, Note_on_c, 0, 58, 45
1, 125525, Note_on_c, 0, 58, 0
1, 125533, Note_on_c, 0, 70, 0
1, 125537, Note_on_c, 1, 38, 0
1, 125555, Note_on_c, 9, 51, 96
1, 125559, Note_on_c, 9, 44, 96
1, 125577, Note_on_c, 1, 37, 71
1, 125589, Note_on_c, 0, 74, 90
1, 125687, Note_on_c, 9, 44, 0
1, 125725, Note_on_c, 0, 74, 0
1, 125795, Note_on_c, 9, 51, 0
1, 125797, Note_on_c, 0, 78, 116
1, 125811, Note_on_c, 9, 51, 66
1, 125853, Note_on_c, 0, 62, 57
1, 125863, Note_on_c, 9, 51, 0
1, 125869, Note_on_c, 0, 58, 53
1, 125897, Note_on_c, 0, 62, 0
1, 125897, Note_on_c, 1, 37, 0
1, 125937, Note_on_c, 0, 78, 0
1, 125939, Note_on_c, 9, 51, 98
1, 125953, Note_on_c, 1, 35, 64
1, 125965, Note_on_c, 0, 81, 111
1, 125997, Note_on_c, 0, 58, 0
1, 126165, Note_on_c, 0, 81, 0
1, 126197, Note_on_c, 0, 78, 80
1, 126243, Note_on_c, 9, 51, 0
1, 126301, Note_on_c, 0, 78, 0
1, 126321, Note_on_c, 1, 35, 0
1, 126323, Note_on_c, 9, 51, 103
1, 126327, Note_on_c, 9, 44, 101
1, 126329, Note_on_c, 1, 36, 70
1, 126349, Note_on_c, 0, 79, 53
1, 126481, Note_on_c, 9, 44, 0
1, 126501, Note_on_c, 0, 79, 0
1, 126515, Note_on_c, 9, 51, 0
1, 126569, Note_on_c, 9, 35, 54
1, 126573, Note_on_c, 0, 81, 82
1, 126579, Note_on_c, 9, 51, 84
1, 126601, Note_on_c, 0, 62, 70
1, 126609, Note_on_c, 0, 58, 58
1, 126615, Note_on_c, 9, 51, 0
1, 126633, Note_on_c, 0, 52, 45
1, 126641, Note_on_c, 0, 62, 0
1, 126669, Note_on_c, 9, 35, 0
1, 126681, Note_on_c, 0, 52, 0
1, 126693, Note_on_c, 1, 36, 0
1, 126697, Note_on_c, 0, 81, 0
1, 126705, Note_on_c, 0, 58, 0
1, 126707, Note_on_c, 9, 51, 99
1, 126721, Note_on_c, 1, 38, 63
1, 126727, Note_on_c, 9, 35, 26
1, 126781, Note_on_c, 0, 82, 69
1, 126837, Note_on_c, 1, 38, 0
1, 126913, Note_on_c, 0, 82, 0
1, 126913, Note_on_c, 9, 35, 0
1, 126957, Note_on_c, 1, 38, 73
1, 126967, Note_on_c, 9, 51, 0
1, 126977, Note_on_c, 9, 35, 49
1, 126989, Note_on_c, 0, 84, 73
1, 127009, Note_on_c, 9, 35, 0
1, 127091, Note_on_c, 9, 51, 108
1, 127095, Note_on_c, 9, 46, 45
1, 127117, Note_on_c, 1, 40, 78
1, 127145, Note_on_c, 0, 85, 73
1, 127153, Note_on_c, 0, 84, 0
1, 127165, Note_on_c, 1, 38, 0
1, 127241, Note_on_c, 9, 46, 0
1, 127285, Note_on_c, 0, 85, 0
1, 127345, Note_on_c, 0, 87, 91
1, 127361, Note_on_c, 0, 64, 65
1, 127363, Note_on_c, 9, 51, 0
1, 127369, Note_on_c, 0, 85, 35
1, 127381, Note_on_c, 0, 60, 55
1, 127405, Note_on_c, 0, 64, 0
1, 127405, Note_on_c, 0, 53, 40
1, 127413, Note_on_c, 0, 57, 43
1, 127429, Note_on_c, 0, 85, 0
1, 127433, Note_on_c, 1, 40, 0
1, 127461, Note_on_c, 0, 53, 0
1, 127475, Note_on_c, 9, 51, 112
1, 127477, Note_on_c, 1, 41, 60
1, 127493, Note_on_c, 0, 60, 0
1, 127525, Note_on_c, 0, 87, 0
1, 127529, Note_on_c, 0, 88, 80
1, 127557, Note_on_c, 0, 57, 0
1, 127669, Note_on_c, 0, 88, 0
1, 127725, Note_on_c, 0, 91, 101
1, 127729, Note_on_c, 1, 41, 0
1, 127745, Note_on_c, 1, 39, 58
1, 127769, Note_on_c, 9, 51, 0
1, 127809, Note_on_c, 1, 39, 0
1, 127833, Note_on_c, 1, 41, 48
1, 127859, Note_on_c, 9, 51, 61
1, 127863, Note_on_c, 9, 44, 96
1, 127865, Note_on_c, 1, 50, 79
1, 127873, Note_on_c, 0, 91, 0
1, 127893, Note_on_c, 1, 41, 0
1, 127897, Note_on_c, 0, 88, 84
1, 128009, Note_on_c, 9, 44, 0
1, 128049, Note_on_c, 0, 88, 0
1, 128067, Note_on_c, 9, 51, 0
1, 128099, Note_on_c, 9, 35, 59
1, 128113, Note_on_c, 0, 67, 60
1, 128115, Note_on_c, 9, 51, 68
1, 128121, Note_on_c, 0, 84, 80
1, 128125, Note_on_c, 9, 35, 0
1, 128145, Note_on_c, 0, 62, 52
1, 128151, Note_on_c, 9, 51, 0
1, 128165, Note_on_c, 0, 67, 0
1, 128189, Note_on_c, 0, 57, 30
1, 128243, Note_on_c, 9, 51, 75
1, 128249, Note_on_c, 1, 48, 65
1, 128269, Note_on_c, 0, 84, 0
1, 128285, Note_on_c, 0, 62, 0
1, 128289, Note_on_c, 0, 57, 0
1, 128289, Note_on_c, 1, 50, 0
1, 128349, Note_on_c, 0, 81, 35
1, 128421, Note_on_c, 0, 81, 0
1, 128441, Note_on_c, 9, 51, 0
1, 128533, Note_on_c, 0, 62, 56
1, 128541, Note_on_c, 0, 79, 53
1, 128549, Note_on_c, 0, 77, 50
1, 128581, Note_on_c, 1, 48, 0
1, 128585, Note_on_c, 0, 62, 0
1, 128609, Note_on_c, 0, 77, 0
1, 128621, Note_on_c, 0, 79, 0
1, 128627, Note_on_c, 9, 51, 117
1, 128629, Note_on_c, 1, 44, 66
1, 128631, Note_on_c, 9, 44, 94
1, 128777, Note_on_c, 9, 44, 0
1, 128873, Note_on_c, 9, 51, 0
1, 128883, Note_on_c, 9, 51, 35
1, 128913, Note_on_c, 0, 72, 49
1, 128945, Note_on_c, 0, 62, 44
1, 128947, Note_on_c, 9, 51, 0
1, 128965, Note_on_c, 0, 72, 0
1, 129009, Note_on_c, 1, 44, 0
1, 129011, Note_on_c, 9, 51, 78
1, 129017, Note_on_c, 0, 62, 0
1, 129017, Note_on_c, 1, 45, 59
1, 129061, Note_on_c, 0, 86, 95
1, 129273, Note_on_c, 0, 86, 0
1, 129285, Note_on_c, 0, 62, 56
1, 129315, Note_on_c, 9, 51, 0
1, 129317, Note_on_c, 1, 44, 55
1, 129333, Note_on_c, 1, 45, 0
1, 129353, Note_on_c, 0, 62, 0
1, 129395, Note_on_c, 9, 51, 87
1, 129399, Note_on_c, 9, 44, 105
1, 129413, Note_on_c, 1, 50, 72
1, 129421, Note_on_c, 1, 44, 0
1, 129429, Note_on_c, 0, 84, 83
1, 129561, Note_on_c, 0, 84, 0
1, 129561, Note_on_c, 9, 44, 0
1, 129619, Note_on_c, 9, 51, 0
1, 129651, Note_on_c, 9, 51, 75
1, 129685, Note_on_c, 0, 67, 45
1, 129701, Note_on_c, 0, 62, 55
1, 129701, Note_on_c, 0, 56, 45
1, 129705, Note_on_c, 9, 51, 0
1, 129779, Note_on_c, 9, 51, 57
1, 129783, Note_on_c, 9, 34, 20
1, 129801, Note_on_c, 1, 48, 67
1, 129853, Note_on_c, 9, 34, 0
1, 129857, Note_on_c, 1, 50, 0
1, 129881, Note_on_c, 0, 62, 0
1, 129985, Note_on_c, 0, 80, 86
1, 129987, Note_on_c, 9, 51, 0
1, 130017, Note_on_c, 0, 62, 51
1, 130035, Note_on_c, 9, 53, 80
1, 130049, Note_on_c, 0, 67, 0
1, 130073, Note_on_c, 0, 80, 0
1, 130087, Note_on_c, 9, 53, 0
1, 130133, Note_on_c, 0, 62, 0
1, 130163, Note_on_c, 9, 51, 43
1, 130167, Note_on_c, 9, 44, 96
1, 130173, Note_on_c, 1, 45, 68
1, 130185, Note_on_c, 1, 48, 0
1, 130213, Note_on_c, 0, 80, 47
1, 130217, Note_on_c, 0, 56, 0
1, 130257, Note_on_c, 0, 80, 0
1, 130337, Note_on_c, 9, 44, 0
1, 130441, Note_on_c, 9, 51, 0
1, 130477, Note_on_c, 1, 45, 0
1, 130513, Note_on_c, 0, 62, 69
1, 130521, Note_on_c, 1, 39, 65
1, 130529, Note_on_c, 0, 59, 56
1, 130547, Note_on_c, 9, 51, 84
1, 130553, Note_on_c, 0, 79, 95
1, 130561, Note_on_c, 0, 55, 51
1, 130561, Note_on_c, 0, 52, 36
1, 130645, Note_on_c, 1, 40, 76
1, 130669, Note_on_c, 1, 39, 0
1, 130741, Note_on_c, 0, 59, 0
1, 130825, Note_on_c, 9, 51, 0
1, 130841, Note_on_c, 0, 79, 0
1, 130885, Note_on_c, 0, 52, 0
1, 130901, Note_on_c, 0, 62, 0
1, 130931, Note_on_c, 9, 51, 84
1, 130935, Note_on_c, 9, 44, 105
1, 130937, Note_on_c, 1, 40, 0
1, 130945, Note_on_c, 0, 59, 28
1, 130973, Note_on_c, 1, 34, 68
1, 131017, Note_on_c, 0, 55, 0
1, 131037, Note_on_c, 0, 59, 0
1, 131095, Note_on_c, 9, 44, 0
1, 131113, Note_on_c, 9, 51, 0
1, 131187, Note_on_c, 9, 51, 52
1, 131217, Note_on_c, 0, 75, 101
1, 131223, Note_on_c, 9, 51, 0
1, 131241, Note_on_c, 0, 62, 53
1, 131261, Note_on_c, 0, 59, 51
1, 131289, Note_on_c, 0, 62, 0
1, 131297, Note_on_c, 1, 34, 0
1, 131313, Note_on_c, 0, 59, 0
1, 131315, Note_on_c, 9, 51, 66
1, 131337, Note_on_c, 1, 31, 67
1, 131349, Note_on_c, 0, 75, 0
1, 131409, Note_on_c, 0, 76, 73
1, 131553, Note_on_c, 0, 76, 0
1, 131569, Note_on_c, 9, 31, 40
1, 131593, Note_on_c, 9, 31, 0
1, 131603, Note_on_c, 9, 51, 0
1, 131605, Note_on_c, 0, 71, 76
1, 131641, Note_on_c, 0, 59, 43
1, 131653, Note_on_c, 0, 62, 36
1, 131689, Note_on_c, 1, 31, 0
1, 131699, Note_on_c, 9, 51, 87
1, 131703, Note_on_c, 9, 44, 98
1, 131717, Note_on_c, 1, 32, 75
1, 131733, Note_on_c, 0, 59, 0
1, 131737, Note_on_c, 0, 71, 0
1, 131737, Note_on_c, 9, 31, 59
1, 131785, Note_on_c, 9, 31, 0
1, 131789, Note_on_c, 0, 67, 38
1, 131831, Note_on_c, 9, 31, 50
1, 131849, Note_on_c, 9, 44, 0
1, 131885, Note_on_c, 9, 31, 0
1, 131907, Note_on_c, 9, 51, 0
1, 131955, Note_on_c, 9, 51, 56
1, 131995, Note_on_c, 0, 67, 0
1, 131995, Note_on_c, 0, 65, 73
1, 132001, Note_on_c, 0, 62, 0
1, 132007, Note_on_c, 9, 51, 0
1, 132049, Note_on_c, 1, 32, 0
1, 132069, Note_on_c, 0, 65, 0
1, 132083, Note_on_c, 9, 51, 92
1, 132097, Note_on_c, 1, 33, 74
1, 132149, Note_on_c, 0, 72, 86
1, 132285, Note_on_c, 1, 33, 0
1, 132297, Note_on_c, 0, 72, 0
1, 132357, Note_on_c, 0, 61, 50
1, 132369, Note_on_c, 1, 38, 54
1, 132371, Note_on_c, 9, 51, 0
1, 132381, Note_on_c, 0, 70, 87
1, 132385, Note_on_c, 1, 33, 58
1, 132405, Note_on_c, 1, 38, 0
1, 132413, Note_on_c, 0, 61, 0
1, 132467, Note_on_c, 9, 51, 98
1, 132471, Note_on_c, 9, 44, 98
1, 132473, Note_on_c, 1, 33, 0
1, 132481, Note_on_c, 1, 45, 65
1, 132489, Note_on_c, 0, 70, 0
1, 132565, Note_on_c, 0, 69, 64
1, 132625, Note_on_c, 9, 44, 0
1, 132701, Note_on_c, 0, 69, 0
1, 132721, Note_on_c, 9, 31, 50
1, 132745, Note_on_c, 0, 67, 65
1, 132745, Note_on_c, 9, 31, 0
1, 132765, Note_on_c, 0, 61, 42
1, 132777, Note_on_c, 9, 51, 0
1, 132825, Note_on_c, 0, 61, 0
1, 132845, Note_on_c, 1, 45, 0
1, 132851, Note_on_c, 9, 51, 82
1, 132861, Note_on_c, 0, 67, 0
1, 132869, Note_on_c, 1, 49, 63
1, 132969, Note_on_c, 0, 65, 37
1, 133097, Note_on_c, 0, 65, 0
1, 133125, Note_on_c, 0, 64, 70
1, 133145, Note_on_c, 9, 51, 0
1, 133149, Note_on_c, 0, 61, 44
1, 133177, Note_on_c, 0, 55, 45
1, 133205, Note_on_c, 0, 61, 0
1, 133225, Note_on_c, 0, 55, 0
1, 133235, Note_on_c, 9, 51, 63
1, 133239, Note_on_c, 9, 46, 36
1, 133241, Note_on_c, 0, 64, 0
1, 133253, Note_on_c, 1, 37, 68
1, 133281, Note_on_c, 1, 49, 0
1, 133361, Note_on_c, 9, 46, 0
1, 133491, Note_on_c, 9, 35, 50
1, 133507, Note_on_c, 9, 51, 0
1, 133513, Note_on_c, 9, 35, 0
1, 133521, Note_on_c, 0, 60, 51
1, 133593, Note_on_c, 0, 57, 39
1, 133601, Note_on_c, 0, 60, 0
1, 133619, Note_on_c, 9, 51, 78
1, 133641, Note_on_c, 1, 38, 63
1, 133653, Note_on_c, 0, 57, 0
1, 133653, Note_on_c, 1, 37, 0
1, 133669, Note_on_c, 0, 64, 48
1, 133829, Note_on_c, 0, 64, 0
1, 133847, Note_on_c, 9, 51, 0
1, 133875, Note_on_c, 9, 59, 82
1, 133885, Note_on_c, 0, 57, 45
1, 133905, Note_on_c, 0, 61, 61
1, 133925, Note_on_c, 1, 37, 51
1, 133927, Note_on_c, 9, 59, 0
1, 133937, Note_on_c, 0, 57, 0
1, 133973, Note_on_c, 0, 61, 0
1, 133977, Note_on_c, 1, 38, 0
1, 133997, Note_on_c, 1, 45, 49
1, 134001, Note_on_c, 9, 51, 47
1, 134005, Note_on_c, 1, 37, 0
1, 134007, Note_on_c, 9, 44, 87
1, 134041, Note_on_c, 0, 62, 76
1, 134169, Note_on_c, 9, 44, 0
1, 134225, Note_on_c, 0, 62, 0
1, 134247, Note_on_c, 9, 35, 26
1, 134277, Note_on_c, 0, 60, 78
1, 134285, Note_on_c, 1, 42, 32
1, 134297, Note_on_c, 9, 35, 0
1, 134297, Note_on_c, 9, 51, 0
1, 134337, Note_on_c, 1, 42, 0
1, 134349, Note_on_c, 1, 45, 0
1, 134385, Note_on_c, 0, 60, 0
1, 134387, Note_on_c, 9, 35, 26
1, 134387, Note_on_c, 9, 51, 63
1, 134397, Note_on_c, 1, 52, 68
1, 134437, Note_on_c, 0, 57, 48
1, 134467, Note_on_c, 9, 35, 0
1, 134665, Note_on_c, 9, 51, 0
1, 134681, Note_on_c, 0, 57, 0
1, 134685, Note_on_c, 0, 55, 55
1, 134689, Note_on_c, 0, 50, 33
1, 134729, Note_on_c, 0, 55, 0
1, 134745, Note_on_c, 0, 50, 0
1, 134753, Note_on_c, 1, 52, 0
1, 134771, Note_on_c, 9, 51, 70
1, 134775, Note_on_c, 9, 44, 92
1, 134777, Note_on_c, 1, 44, 61
1, 134797, Note_on_c, 0, 60, 84
1, 134929, Note_on_c, 9, 44, 0
1, 134997, Note_on_c, 0, 60, 0
1, 135011, Note_on_c, 9, 51, 0
1, 135027, Note_on_c, 9, 51, 61
1, 135041, Note_on_c, 0, 57, 70
1, 135041, Note_on_c, 0, 43, 61
1, 135041, Note_on_c, 9, 35, 38
1, 135045, Note_on_c, 0, 31, 56
1, 135073, Note_on_c, 9, 35, 0
1, 135081, Note_on_c, 0, 43, 0
1, 135089, Note_on_c, 0, 31, 0
1, 135107, Note_on_c, 9, 51, 0
1, 135133, Note_on_c, 1, 44, 0
1, 135153, Note_on_c, 0, 57, 0
1, 135155, Note_on_c, 9, 51, 92
1, 135169, Note_on_c, 1, 43, 62
1, 135217, Note_on_c, 0, 58, 64
1, 135397, Note_on_c, 0, 58, 0
1, 135445, Note_on_c, 0, 59, 66
1, 135475, Note_on_c, 9, 51, 0
1, 135525, Note_on_c, 1, 43, 0
1, 135529, Note_on_c, 0, 59, 0
1, 135539, Note_on_c, 9, 51, 105
1, 135543, Note_on_c, 9, 44, 106
1, 135549, Note_on_c, 1, 31, 83
1, 135589, Note_on_c, 0, 60, 63
1, 135681, Note_on_c, 9, 44, 0
1, 135761, Note_on_c, 0, 60, 0
1, 135801, Note_on_c, 9, 35, 43
1, 135805, Note_on_c, 0, 61, 73
1, 135833, Note_on_c, 0, 59, 45
1, 135841, Note_on_c, 9, 35, 0
1, 135849, Note_on_c, 0, 53, 42
1, 135865, Note_on_c, 9, 51, 0
1, 135901, Note_on_c, 0, 53, 0
1, 135917, Note_on_c, 0, 59, 0
1, 135923, Note_on_c, 9, 51, 75
1, 135957, Note_on_c, 1, 31, 0
1, 135965, Note_on_c, 0, 61, 0
1, 135965, Note_on_c, 1, 33, 54
1, 136013, Note_on_c, 0, 62, 47
1, 136077, Note_on_c, 1, 33, 0
1, 136121, Note_on_c, 0, 62, 0
1, 136167, Note_on_c, 9, 51, 0
1, 136179, Note_on_c, 0, 63, 82
1, 136179, Note_on_c, 9, 51, 64
1, 136181, Note_on_c, 1, 34, 54
1, 136205, Note_on_c, 0, 59, 65
1, 136229, Note_on_c, 0, 53, 58
1, 136259, Note_on_c, 9, 51, 0
1, 136269, Note_on_c, 1, 34, 0
1, 136289, Note_on_c, 0, 53, 0
1, 136307, Note_on_c, 9, 51, 110
1, 136311, Note_on_c, 9, 44, 94
1, 136317, Note_on_c, 0, 59, 0
1, 136317, Note_on_c, 1, 35, 80
1, 136353, Note_on_c, 0, 63, 0
1, 136357, Note_on_c, 0, 64, 82
1, 136449, Note_on_c, 9, 44, 0
1, 136497, Note_on_c, 0, 64, 0
1, 136565, Note_on_c, 0, 65, 89
1, 136567, Note_on_c, 9, 35, 36
1, 136611, Note_on_c, 9, 51, 0
1, 136613, Note_on_c, 0, 62, 51
1, 136629, Note_on_c, 0, 57, 66
1, 136631, Note_on_c, 9, 35, 0
1, 136657, Note_on_c, 0, 62, 0
1, 136669, Note_on_c, 1, 35, 0
1, 136685, Note_on_c, 1, 36, 59
1, 136691, Note_on_c, 9, 51, 117
1, 136697, Note_on_c, 9, 35, 38
1, 136709, Note_on_c, 0, 65, 0
1, 136725, Note_on_c, 0, 57, 0
1, 136745, Note_on_c, 0, 63, 65
1, 136769, Note_on_c, 9, 35, 0
1, 136873, Note_on_c, 0, 63, 0
1, 136933, Note_on_c, 0, 64, 80
1, 136961, Note_on_c, 0, 57, 40
1, 136973, Note_on_c, 1, 34, 62
1, 136981, Note_on_c, 0, 52, 48
1, 137021, Note_on_c, 0, 57, 0
1, 137021, Note_on_c, 1, 36, 0
1, 137025, Note_on_c, 0, 52, 0
1, 137033, Note_on_c, 9, 51, 0
1, 137065, Note_on_c, 0, 64, 0
1, 137075, Note_on_c, 9, 51, 87
1, 137079, Note_on_c, 9, 44, 99
1, 137093, Note_on_c, 1, 34, 0
1, 137093, Note_on_c, 1, 45, 60
1, 137105, Note_on_c, 0, 60, 70
1, 137201, Note_on_c, 9, 44, 0
1, 137273, Note_on_c, 0, 60, 0
1, 137305, Note_on_c, 9, 51, 0
1, 137329, Note_on_c, 9, 51, 56
1, 137329, Note_on_c, 9, 35, 40
1, 137341, Note_on_c, 0, 55, 67
1, 137367, Note_on_c, 9, 35, 0
1, 137411, Note_on_c, 9, 51, 0
1, 137413, Note_on_c, 0, 55, 0
1, 137459, Note_on_c, 9, 51, 84
1, 137481, Note_on_c, 1, 43, 55
1, 137485, Note_on_c, 0, 60, 84
1, 137489, Note_on_c, 1, 45, 0
1, 137673, Note_on_c, 0, 60, 0
1, 137689, Note_on_c, 9, 51, 0
1, 137715, Note_on_c, 9, 51, 61
1, 137779, Note_on_c, 9, 51, 0
1, 137801, Note_on_c, 1, 43, 0
1, 137843, Note_on_c, 9, 51, 120
1, 137847, Note_on_c, 9, 44, 94
1, 137849, Note_on_c, 1, 39, 59
1, 137857, Note_on_c, 0, 55, 72
1, 137959, Note_on_c, 9, 44, 0
1, 137977, Note_on_c, 0, 55, 0
1, 138105, Note_on_c, 0, 57, 73
1, 138115, Note_on_c, 9, 35, 43
1, 138137, Note_on_c, 9, 51, 0
1, 138157, Note_on_c, 9, 35, 0
1, 138227, Note_on_c, 9, 51, 108
1, 138233, Note_on_c, 1, 39, 0
1, 138241, Note_on_c, 1, 40, 57
1, 138285, Note_on_c, 0, 57, 0
1, 138469, Note_on_c, 0, 52, 46
1, 138473, Note_on_c, 0, 36, 42
1, 138537, Note_on_c, 0, 36, 0
1, 138541, Note_on_c, 0, 64, 69
1, 138549, Note_on_c, 0, 62, 80
1, 138549, Note_on_c, 1, 39, 46
1, 138561, Note_on_c, 1, 40, 0
1, 138563, Note_on_c, 9, 51, 0
1, 138609, Note_on_c, 1, 39, 0
1, 138611, Note_on_c, 9, 51, 64
1, 138615, Note_on_c, 9, 44, 85
1, 138621, Note_on_c, 1, 45, 71
1, 138633, Note_on_c, 0, 52, 0
1, 138637, Note_on_c, 1, 46, 43
1, 138745, Note_on_c, 9, 44, 0
1, 138765, Note_on_c, 0, 64, 0
1, 138813, Note_on_c, 0, 62, 0
1, 138835, Note_on_c, 9, 51, 0
1, 138865, Note_on_c, 9, 35, 54
1, 138867, Note_on_c, 9, 51, 73
1, 138903, Note_on_c, 9, 35, 0
1, 138925, Note_on_c, 0, 59, 50
1, 138935, Note_on_c, 9, 51, 0
1, 138973, Note_on_c, 0, 59, 0
1, 138989, Note_on_c, 1, 45, 0
1, 138993, Note_on_c, 1, 43, 62
1, 138995, Note_on_c, 9, 51, 56
1, 139057, Note_on_c, 0, 62, 85
1, 139127, Note_on_c, 9, 51, 0
1, 139249, Note_on_c, 0, 52, 64
1, 139251, Note_on_c, 9, 51, 119
1, 139273, Note_on_c, 0, 44, 44
1, 139287, Note_on_c, 9, 51, 0
1, 139305, Note_on_c, 0, 52, 0
1, 139321, Note_on_c, 0, 62, 0
1, 139321, Note_on_c, 0, 44, 0
1, 139329, Note_on_c, 1, 43, 0
1, 139369, Note_on_c, 1, 37, 70
1, 139379, Note_on_c, 9, 51, 75
1, 139383, Note_on_c, 9, 44, 84
1, 139389, Note_on_c, 1, 46, 0
1, 139425, Note_on_c, 0, 59, 76
1, 139505, Note_on_c, 9, 44, 0
1, 139587, Note_on_c, 9, 51, 0
1, 139597, Note_on_c, 0, 59, 0
1, 139635, Note_on_c, 9, 51, 64
1, 139667, Note_on_c, 9, 51, 0
1, 139685, Note_on_c, 0, 60, 57
1, 139705, Note_on_c, 0, 61, 36
1, 139725, Note_on_c, 0, 53, 55
1, 139745, Note_on_c, 1, 37, 0
1, 139745, Note_on_c, 0, 57, 53
1, 139753, Note_on_c, 9, 35, 36
1, 139763, Note_on_c, 9, 51, 112
1, 139765, Note_on_c, 1, 38, 55
1, 139805, Note_on_c, 9, 35, 0
1, 139973, Note_on_c, 0, 57, 0
1, 139973, Note_on_c, 0, 53, 0
1, 140013, Note_on_c, 0, 61, 0
1, 140021, Note_on_c, 0, 43, 70
1, 140041, Note_on_c, 0, 60, 0
1, 140045, Note_on_c, 0, 31, 66
1, 140053, Note_on_c, 0, 57, 73
1, 140055, Note_on_c, 9, 51, 0
1, 140065, Note_on_c, 1, 37, 55
1, 140109, Note_on_c, 1, 38, 0
1, 140147, Note_on_c, 9, 51, 96
1, 140151, Note_on_c, 9, 44, 89
1, 140165, Note_on_c, 1, 46, 75
1, 140193, Note_on_c, 1, 37, 0
1, 140237, Note_on_c, 0, 57, 0
1, 140241, Note_on_c, 0, 43, 0
1, 140257, Note_on_c, 9, 44, 0
1, 140317, Note_on_c, 0, 31, 0
1, 140361, Note_on_c, 9, 51, 0
1, 140389, Note_on_c, 0, 43, 53
1, 140403, Note_on_c, 9, 51, 68
1, 140417, Note_on_c, 9, 35, 36
1, 140445, Note_on_c, 9, 51, 0
1, 140449, Note_on_c, 9, 35, 0
1, 140453, Note_on_c, 0, 43, 0
1, 140513, Note_on_c, 1, 46, 0
1, 140529, Note_on_c, 9, 51, 87
1, 140561, Note_on_c, 1, 45, 59
1, 140569, Note_on_c, 0, 57, 75
1, 140577, Note_on_c, 0, 53, 72
1, 140785, Control_c, 0, 64, 127
1, 140787, Note_on_c, 0, 53, 0
1, 140787, Note_on_c, 9, 51, 0
1, 140809, Note_on_c, 1, 38, 63
1, 140821, Note_on_c, 1, 45, 0
1, 140829, Note_on_c, 0, 31, 54
1, 140837, Note_on_c, 0, 43, 56
1, 140873, Note_on_c, 0, 31, 0
1, 140877, Note_on_c, 0, 57, 0
1, 140889, Note_on_c, 1, 38, 0
1, 140915, Note_on_c, 9, 51, 96
1, 140919, Note_on_c, 9, 44, 99
1, 140921, Note_on_c, 0, 43, 0
1, 140921, Note_on_c, 1, 44, 68
1, 141049, Note_on_c, 9, 44, 0
1, 141123, Note_on_c, 9, 51, 0
1, 141171, Note_on_c, 9, 51, 56
1, 141245, Note_on_c, 1, 44, 0
1, 141251, Note_on_c, 9, 51, 0
1, 141299, Note_on_c, 9, 51, 68
1, 141299, Note_on_c, 9, 35, 29
1, 141301, Note_on_c, 1, 43, 63
1, 141321, Control_c, 0, 64, 0
1, 141341, Note_on_c, 9, 35, 0
1, 141345, Note_on_c, 0, 57, 75
1, 141345, Note_on_c, 0, 69, 81
1, 141357, Note_on_c, 0, 60, 80
1, 141357, Note_on_c, 0, 62, 78
1, 141373, Note_on_c, 0, 65, 66
1, 141523, Note_on_c, 9, 51, 0
1, 141555, Note_on_c, 9, 51, 57
1, 141575, Note_on_c, 9, 51, 0
1, 141657, Note_on_c, 1, 43, 0
1, 141683, Note_on_c, 9, 51, 127
1, 141685, Note_on_c, 1, 38, 67
1, 141687, Note_on_c, 9, 44, 98
1, 141697, Control_c, 0, 64, 127
1, 141765, Note_on_c, 0, 62, 0
1, 141773, Note_on_c, 0, 65, 0
1, 141813, Note_on_c, 0, 69, 0
1, 141833, Note_on_c, 9, 44, 0
1, 141853, Note_on_c, 0, 60, 0
1, 141943, Note_on_c, 9, 51, 0
1, 142005, Note_on_c, 0, 57, 0
1, 142037, Note_on_c, 0, 58, 58
1, 142041, Note_on_c, 0, 56, 41
1, 142067, Note_on_c, 9, 51, 117
1, 142067, Note_on_c, 9, 34, 20
1, 142081, Note_on_c, 1, 29, 68
1, 142093, Note_on_c, 1, 38, 0
1, 142115, Note_on_c, 9, 34, 0
1, 142129, Control_c, 0, 64, 0
1, 142133, Note_on_c, 0, 59, 60
1, 142149, Note_on_c, 0, 58, 0
1, 142153, Note_on_c, 0, 72, 73
1, 142157, Note_on_c, 0, 65, 75
1, 142165, Note_on_c, 0, 69, 71
1, 142165, Note_on_c, 0, 60, 70
1, 142177, Note_on_c, 0, 59, 0
1, 142181, Note_on_c, 0, 56, 0
1, 142181, Note_on_c, 0, 62, 64
1, 142291, Note_on_c, 9, 51, 0
1, 142323, Note_on_c, 9, 51, 36
1, 142345, Note_on_c, 9, 34, 19
1, 142377, Note_on_c, 9, 34, 0
1, 142419, Note_on_c, 9, 51, 0
1, 142425, Control_c, 0, 64, 127
1, 142451, Note_on_c, 9, 51, 63
1, 142453, Note_on_c, 1, 30, 68
1, 142455, Note_on_c, 9, 44, 91
1, 142465, Note_on_c, 1, 29, 0
1, 142521, Note_on_c, 0, 62, 0
1, 142553, Note_on_c, 0, 65, 0
1, 142579, Note_on_c, 9, 51, 0
1, 142589, Note_on_c, 0, 69, 0
1, 142609, Note_on_c, 0, 72, 0
1, 142657, Note_on_c, 9, 44, 0
1, 142689, Note_on_c, 9, 34, 28
1, 142701, Note_on_c, 0, 58, 33
1, 142707, Note_on_c, 9, 51, 126
1, 142793, Note_on_c, 9, 34, 0
1, 142801, Note_on_c, 0, 58, 0
1, 142801, Note_on_c, 1, 30, 0
1, 142807, Note_on_c, 9, 35, 52
1, 142807, Note_on_c, 9, 57, 29
1, 142817, Control_c, 0, 64, 0
1, 142837, Note_on_c, 1, 31, 63
1, 142865, Note_on_c, 9, 57, 0
1, 142869, Note_on_c, 0, 60, 0
1, 142873, Note_on_c, 9, 35, 0
1, 142897, Note_on_c, 0, 62, 60
1, 142897, Note_on_c, 0, 74, 69
1, 142913, Note_on_c, 0, 65, 58
1, 142917, Note_on_c, 0, 69, 65
1, 142985, Note_on_c, 1, 31, 0
1, 143065, Note_on_c, 9, 51, 0
1, 143077, Control_c, 0, 64, 127
1, 143081, Note_on_c, 1, 31, 61
1, 143091, Note_on_c, 9, 51, 40
1, 143165, Note_on_c, 1, 31, 0
1, 143175, Note_on_c, 9, 51, 0
1, 143193, Note_on_c, 0, 65, 0
1, 143209, Note_on_c, 0, 74, 0
1, 143213, Note_on_c, 1, 32, 63
1, 143219, Note_on_c, 0, 69, 0
1, 143219, Note_on_c, 9, 51, 91
1, 143223, Note_on_c, 9, 44, 94
1, 143353, Note_on_c, 0, 62, 0
1, 143365, Note_on_c, 0, 61, 29
1, 143409, Note_on_c, 9, 44, 0
1, 143433, Note_on_c, 0, 61, 0
1, 143477, Note_on_c, 0, 63, 29
1, 143481, Note_on_c, 9, 35, 50
1, 143497, Note_on_c, 9, 51, 0
1, 143507, Note_on_c, 9, 35, 0
1, 143603, Note_on_c, 9, 51, 99
1, 143613, Control_c, 0, 64, 0
1, 143613, Note_on_c, 0, 64, 51
1, 143617, Note_on_c, 1, 32, 0
1, 143625, Note_on_c, 0, 63, 0
1, 143625, Note_on_c, 1, 33, 64
1, 143645, Note_on_c, 0, 69, 53
1, 143657, Note_on_c, 0, 65, 55
1, 143665, Note_on_c, 0, 64, 0
1, 143665, Note_on_c, 0, 72, 58
1, 143665, Note_on_c, 0, 77, 49
1, 143665, Note_on_c, 0, 74, 57
1, 143901, Control_c, 0, 64, 127
1, 143923, Note_on_c, 9, 51, 0
1, 143969, Note_on_c, 0, 69, 0
1, 143969, Note_on_c, 0, 74, 0
1, 143985, Note_on_c, 1, 34, 68
1, 143987, Note_on_c, 9, 51, 75
1, 143991, Note_on_c, 9, 44, 98
1, 143997, Note_on_c, 0, 77, 0
1, 144005, Note_on_c, 0, 72, 0
1, 144009, Note_on_c, 1, 33, 0
1, 144109, Note_on_c, 0, 65, 0
1, 144129, Note_on_c, 0, 66, 50
1, 144161, Note_on_c, 9, 44, 0
1, 144233, Note_on_c, 9, 51, 0
1, 144243, Note_on_c, 9, 51, 59
1, 144339, Note_on_c, 9, 51, 0
1, 144365, Note_on_c, 0, 68, 28
1, 144371, Note_on_c, 9, 51, 92
1, 144377, Control_c, 0, 64, 0
1, 144381, Note_on_c, 1, 34, 0
1, 144393, Note_on_c, 1, 35, 68
1, 144405, Note_on_c, 0, 66, 0
1, 144417, Note_on_c, 0, 68, 0
1, 144417, Note_on_c, 0, 72, 48
1, 144417, Note_on_c, 0, 69, 53
1, 144417, Note_on_c, 0, 81, 53
1, 144429, Note_on_c, 0, 74, 60
1, 144437, Note_on_c, 0, 77, 58
1, 144613, Note_on_c, 0, 74, 0
1, 144617, Note_on_c, 0, 72, 0
1, 144621, Note_on_c, 0, 77, 0
1, 144657, Note_on_c, 0, 81, 0
1, 144657, Control_c, 0, 64, 127
1, 144691, Note_on_c, 9, 51, 0
1, 144755, Note_on_c, 9, 51, 106
1, 144759, Note_on_c, 9, 44, 99
1, 144761, Note_on_c, 1, 35, 0
1, 144769, Note_on_c, 0, 69, 0
1, 144785, Note_on_c, 1, 31, 68
1, 144901, Control_c, 0, 64, 0
1, 144913, Note_on_c, 9, 44, 0
1, 145009, Note_on_c, 0, 74, 58
1, 145009, Note_on_c, 0, 84, 61
1, 145011, Note_on_c, 9, 51, 26
1, 145017, Note_on_c, 0, 69, 61
1, 145021, Note_on_c, 0, 81, 62
1, 145021, Note_on_c, 0, 77, 70
1, 145025, Note_on_c, 9, 35, 35
1, 145027, Note_on_c, 9, 51, 0
1, 145063, Note_on_c, 9, 35, 0
1, 145117, Note_on_c, 1, 31, 0
1, 145127, Note_on_c, 9, 51, 0
1, 145133, Control_c, 0, 64, 127
1, 145139, Note_on_c, 9, 51, 64
1, 145165, Note_on_c, 1, 35, 64
1, 145229, Note_on_c, 0, 81, 0
1, 145269, Note_on_c, 0, 84, 0
1, 145341, Note_on_c, 0, 77, 0
1, 145361, Note_on_c, 0, 74, 0
1, 145459, Note_on_c, 9, 51, 0
1, 145461, Control_c, 0, 64, 0
1, 145513, Note_on_c, 1, 35, 0
1, 145521, Note_on_c, 0, 69, 0
1, 145523, Note_on_c, 9, 51, 106
1, 145527, Note_on_c, 9, 44, 89
1, 145537, Note_on_c, 1, 38, 68
1, 145553, Note_on_c, 0, 83, 58
1, 145553, Note_on_c, 0, 67, 44
1, 145557, Note_on_c, 0, 77, 55
1, 145557, Note_on_c, 0, 74, 53
1, 145613, Note_on_c, 0, 74, 0
1, 145645, Note_on_c, 0, 77, 0
1, 145665, Note_on_c, 0, 83, 0
1, 145697, Note_on_c, 9, 44, 0
1, 145729, Note_on_c, 0, 67, 0
1, 145769, Note_on_c, 9, 51, 0
1, 145779, Note_on_c, 9, 51, 68
1, 145783, Note_on_c, 9, 35, 47
1, 145837, Note_on_c, 1, 38, 0
1, 145847, Note_on_c, 9, 51, 0
1, 145873, Note_on_c, 1, 35, 56
1, 145879, Note_on_c, 9, 35, 0
1, 145907, Note_on_c, 9, 51, 91
1, 145937, Note_on_c, 0, 86, 75
1, 145939, Note_on_c, 9, 35, 40
1, 145949, Note_on_c, 0, 71, 55
1, 145957, Note_on_c, 1, 36, 73
1, 145961, Note_on_c, 0, 79, 64
1, 145973, Note_on_c, 0, 76, 51
1, 146005, Note_on_c, 1, 35, 0
1, 146007, Note_on_c, 9, 35, 0
1, 146129, Note_on_c, 0, 76, 0
1, 146141, Note_on_c, 0, 79, 0
1, 146189, Note_on_c, 0, 86, 0
1, 146205, Note_on_c, 0, 71, 0
1, 146231, Note_on_c, 9, 51, 0
1, 146269, Note_on_c, 1, 34, 57
1, 146289, Note_on_c, 9, 51, 105
1, 146295, Note_on_c, 9, 44, 91
1, 146317, Note_on_c, 0, 76, 50
1, 146325, Note_on_c, 0, 83, 51
1, 146325, Note_on_c, 0, 67, 50
1, 146333, Note_on_c, 1, 36, 0
1, 146333, Note_on_c, 1, 45, 62
1, 146361, Note_on_c, 0, 79, 33
1, 146369, Note_on_c, 0, 83, 0
1, 146397, Note_on_c, 1, 34, 0
1, 146413, Note_on_c, 0, 79, 0
1, 146425, Note_on_c, 0, 67, 0
1, 146433, Note_on_c, 0, 76, 0
1, 146449, Note_on_c, 9, 44, 0
1, 146531, Note_on_c, 9, 35, 36
1, 146547, Note_on_c, 9, 51, 59
1, 146551, Note_on_c, 9, 51, 0
1, 146569, Note_on_c, 9, 35, 0
1, 146617, Note_on_c, 1, 36, 39
1, 146647, Note_on_c, 9, 51, 0
1, 146669, Note_on_c, 1, 36, 0
1, 146675, Note_on_c, 9, 51, 85
1, 146701, Note_on_c, 0, 79, 76
1, 146705, Note_on_c, 1, 43, 66
1, 146709, Note_on_c, 1, 45, 0
1, 146841, Note_on_c, 0, 79, 0
1, 147011, Note_on_c, 9, 51, 0
1, 147057, Note_on_c, 1, 43, 0
1, 147059, Note_on_c, 9, 51, 98
1, 147063, Note_on_c, 9, 44, 87
1, 147073, Note_on_c, 0, 79, 66
1, 147081, Note_on_c, 1, 39, 63
1, 147101, Note_on_c, 0, 69, 39
1, 147133, Note_on_c, 0, 72, 48
1, 147185, Note_on_c, 9, 44, 0
1, 147225, Note_on_c, 0, 69, 0
1, 147241, Note_on_c, 0, 72, 0
1, 147265, Note_on_c, 0, 79, 0
1, 147315, Note_on_c, 9, 51, 43
1, 147319, Note_on_c, 9, 51, 0
1, 147411, Note_on_c, 9, 51, 0
1, 147429, Note_on_c, 1, 39, 0
1, 147443, Note_on_c, 9, 51, 57
1, 147457, Note_on_c, 9, 51, 0
1, 147457, Note_on_c, 0, 43, 44
1, 147457, Note_on_c, 1, 40, 65
1, 147481, Note_on_c, 0, 55, 38
1, 147481, Note_on_c, 0, 69, 48
1, 147485, Note_on_c, 0, 79, 50
1, 147509, Note_on_c, 0, 72, 54
1, 147509, Note_on_c, 0, 77, 55
1, 147537, Note_on_c, 9, 35, 40
1, 147561, Note_on_c, 0, 43, 0
1, 147561, Note_on_c, 9, 35, 0
1, 147601, Note_on_c, 0, 72, 0
1, 147605, Note_on_c, 0, 69, 0
1, 147645, Note_on_c, 0, 55, 0
1, 147657, Note_on_c, 0, 79, 0
1, 147709, Note_on_c, 0, 77, 0
1, 147813, Note_on_c, 1, 40, 0
1, 147827, Note_on_c, 9, 51, 64
1, 147831, Note_on_c, 9, 44, 91
1, 147849, Note_on_c, 1, 37, 60
1, 147873, Note_on_c, 0, 77, 58
1, 147877, Note_on_c, 0, 79, 55
1, 147885, Note_on_c, 0, 69, 51
1, 147917, Note_on_c, 0, 72, 38
1, 147953, Note_on_c, 0, 69, 0
1, 147969, Note_on_c, 9, 44, 0
1, 147985, Note_on_c, 0, 72, 0
1, 148005, Note_on_c, 0, 79, 0
1, 148053, Note_on_c, 0, 77, 0
1, 148153, Note_on_c, 9, 51, 0
1, 148181, Note_on_c, 1, 37, 0
1, 148211, Note_on_c, 9, 51, 98
1, 148221, Note_on_c, 1, 38, 60
1, 148285, Note_on_c, 0, 79, 64
1, 148289, Note_on_c, 0, 68, 55
1, 148293, Note_on_c, 0, 67, 53
1, 148301, Note_on_c, 0, 72, 48
1, 148337, Note_on_c, 0, 74, 38
1, 148417, Note_on_c, 0, 68, 0
1, 148433, Note_on_c, 0, 74, 0
1, 148441, Note_on_c, 0, 79, 0
1, 148453, Note_on_c, 0, 72, 0
1, 148521, Note_on_c, 0, 67, 0
1, 148531, Note_on_c, 9, 51, 0
1, 148573, Note_on_c, 0, 68, 44
1, 148581, Note_on_c, 1, 38, 0
1, 148581, Note_on_c, 0, 79, 46
1, 148595, Note_on_c, 9, 51, 59
1, 148599, Note_on_c, 9, 44, 98
1, 148609, Note_on_c, 1, 35, 66
1, 148653, Note_on_c, 0, 68, 0
1, 148709, Note_on_c, 0, 79, 0
1, 148711, Note_on_c, 9, 44, 0
1, 148809, Note_on_c, 9, 51, 0
1, 148851, Note_on_c, 9, 51, 75
1, 148873, Note_on_c, 9, 35, 28
1, 148905, Note_on_c, 0, 79, 68
1, 148917, Note_on_c, 0, 67, 53
1, 148919, Note_on_c, 9, 51, 0
1, 148921, Note_on_c, 0, 64, 53
1, 148921, Note_on_c, 0, 74, 68
1, 148931, Note_on_c, 9, 35, 0
1, 148979, Note_on_c, 9, 51, 66
1, 148993, Note_on_c, 1, 35, 0
1, 148993, Note_on_c, 1, 36, 63
1, 148993, Note_on_c, 9, 35, 24
1, 149005, Note_on_c, 0, 64, 0
1, 149045, Note_on_c, 0, 67, 0
1, 149065, Note_on_c, 0, 74, 0
1, 149073, Note_on_c, 0, 79, 0
1, 149175, Note_on_c, 9, 35, 0
1, 149265, Note_on_c, 0, 79, 71
1, 149267, Note_on_c, 9, 51, 0
1, 149271, Note_on_c, 9, 35, 31
1, 149289, Note_on_c, 0, 67, 47
1, 149293, Note_on_c, 0, 74, 60
1, 149301, Note_on_c, 1, 34, 57
1, 149303, Note_on_c, 9, 35, 0
1, 149363, Note_on_c, 9, 51, 64
1, 149365, Note_on_c, 1, 36, 0
1, 149367, Note_on_c, 9, 44, 84
1, 149373, Note_on_c, 1, 50, 87
1, 149381, Note_on_c, 0, 79, 0
1, 149389, Note_on_c, 0, 67, 0
1, 149413, Note_on_c, 1, 34, 0
1, 149433, Note_on_c, 0, 74, 0
1, 149513, Note_on_c, 9, 44, 0
1, 149545, Note_on_c, 9, 51, 0
1, 149601, Note_on_c, 0, 78, 70
1, 149617, Note_on_c, 0, 66, 62
1, 149619, Note_on_c, 9, 51, 82
1, 149645, Note_on_c, 0, 73, 50
1, 149665, Note_on_c, 0, 55, 35
1, 149683, Note_on_c, 9, 51, 0
1, 149693, Note_on_c, 0, 73, 0
1, 149725, Note_on_c, 0, 55, 0
1, 149745, Note_on_c, 0, 66, 0
1, 149747, Note_on_c, 9, 51, 47
1, 149753, Note_on_c, 1, 50, 0
1, 149761, Note_on_c, 1, 48, 68
1, 149785, Note_on_c, 0, 78, 0
1, 149797, Note_on_c, 0, 67, 52
1, 149813, Note_on_c, 0, 74, 56
1, 149821, Note_on_c, 0, 79, 58
1, 149973, Note_on_c, 0, 79, 0
1, 149975, Note_on_c, 9, 51, 0
1, 149977, Note_on_c, 0, 74, 0
1, 149977, Note_on_c, 0, 67, 0
1, 150003, Note_on_c, 9, 53, 64
1, 150083, Note_on_c, 9, 53, 0
1, 150131, Note_on_c, 9, 51, 78
1, 150135, Note_on_c, 9, 44, 91
1, 150157, Note_on_c, 0, 36, 67
1, 150157, Note_on_c, 0, 48, 57
1, 150157, Note_on_c, 1, 42, 81
1, 150169, Note_on_c, 0, 79, 79
1, 150173, Note_on_c, 0, 67, 69
1, 150197, Note_on_c, 0, 74, 64
1, 150229, Note_on_c, 0, 36, 0
1, 150253, Note_on_c, 1, 48, 0
1, 150279, Note_on_c, 9, 44, 0
1, 150279, Note_on_c, 9, 34, 43
1, 150289, Note_on_c, 0, 67, 0
1, 150301, Note_on_c, 0, 48, 0
1, 150301, Note_on_c, 0, 79, 0
1, 150317, Note_on_c, 9, 34, 0
1, 150349, Note_on_c, 0, 74, 0
1, 150457, Note_on_c, 9, 51, 0
1, 150515, Note_on_c, 9, 51, 84
1, 150533, Note_on_c, 1, 42, 0
1, 150561, Note_on_c, 0, 78, 60
1, 150561, Note_on_c, 1, 43, 67
1, 150573, Note_on_c, 0, 66, 64
1, 150633, Note_on_c, 0, 74, 33
1, 150701, Note_on_c, 0, 74, 0
1, 150717, Note_on_c, 0, 78, 0
1, 150733, Note_on_c, 0, 66, 0
1, 150821, Note_on_c, 0, 74, 69
1, 150821, Note_on_c, 0, 67, 70
1, 150821, Note_on_c, 0, 79, 78
1, 150837, Note_on_c, 0, 64, 67
1, 150839, Note_on_c, 9, 51, 0
1, 150873, Note_on_c, 1, 43, 0
1, 150881, Note_on_c, 0, 64, 0
1, 150899, Note_on_c, 9, 51, 75
1, 150903, Note_on_c, 9, 44, 99
1, 150913, Note_on_c, 1, 39, 66
1, 150921, Note_on_c, 9, 35, 17
1, 150937, Note_on_c, 0, 67, 0
1, 150957, Note_on_c, 0, 74, 0
1, 150957, Note_on_c, 0, 79, 0
1, 151005, Note_on_c, 0, 79, 44
1, 151013, Note_on_c, 0, 67, 55
1, 151025, Note_on_c, 9, 44, 0
1, 151029, Note_on_c, 0, 74, 51
1, 151075, Note_on_c, 9, 35, 0
1, 151107, Note_on_c, 9, 51, 0
1, 151141, Note_on_c, 0, 67, 0
1, 151153, Note_on_c, 9, 51, 75
1, 151165, Note_on_c, 0, 79, 0
1, 151171, Note_on_c, 0, 74, 0
1, 151171, Note_on_c, 9, 35, 26
1, 151203, Note_on_c, 9, 35, 0
1, 151207, Note_on_c, 9, 51, 0
1, 151245, Note_on_c, 1, 39, 0
1, 151245, Note_on_c, 0, 79, 58
1, 151249, Note_on_c, 0, 67, 64
1, 151265, Note_on_c, 0, 74, 80
1, 151273, Note_on_c, 1, 40, 66
1, 151283, Note_on_c, 9, 51, 87
1, 151345, Note_on_c, 0, 67, 0
1, 151369, Note_on_c, 0, 74, 0
1, 151441, Note_on_c, 0, 67, 62
1, 151441, Note_on_c, 0, 74, 45
1, 151577, Note_on_c, 0, 74, 0
1, 151577, Note_on_c, 0, 67, 0
1, 151587, Note_on_c, 9, 51, 0
1, 151633, Note_on_c, 1, 40, 0
1, 151637, Note_on_c, 0, 79, 0
1, 151661, Note_on_c, 0, 55, 62
1, 151661, Note_on_c, 1, 37, 64
1, 151667, Note_on_c, 9, 51, 73
1, 151671, Note_on_c, 9, 44, 96
1, 151685, Note_on_c, 0, 43, 44
1, 151717, Note_on_c, 0, 55, 0
1, 151733, Note_on_c, 0, 79, 48
1, 151741, Note_on_c, 0, 43, 0
1, 151749, Note_on_c, 0, 67, 68
1, 151841, Note_on_c, 9, 44, 0
1, 151861, Note_on_c, 0, 79, 0
1, 151865, Note_on_c, 0, 67, 0
1, 151891, Note_on_c, 9, 51, 0
1, 151923, Note_on_c, 9, 51, 75
1, 151927, Note_on_c, 9, 35, 24
1, 151969, Note_on_c, 9, 35, 0
1, 151975, Note_on_c, 9, 51, 0
1, 151981, Note_on_c, 0, 79, 59
1, 151981, Note_on_c, 0, 67, 67
1, 152009, Note_on_c, 0, 75, 58
1, 152017, Note_on_c, 1, 37, 0
1, 152017, Note_on_c, 0, 72, 60
1, 152037, Note_on_c, 1, 38, 50
1, 152049, Note_on_c, 9, 35, 33
1, 152051, Note_on_c, 9, 51, 77
1, 152061, Note_on_c, 0, 72, 0
1, 152097, Note_on_c, 0, 75, 0
1, 152097, Note_on_c, 0, 67, 0
1, 152125, Note_on_c, 0, 79, 0
1, 152249, Note_on_c, 9, 35, 0
1, 152297, Note_on_c, 0, 79, 72
1, 152309, Note_on_c, 0, 65, 70
1, 152313, Note_on_c, 0, 67, 70
1, 152321, Note_on_c, 0, 75, 55
1, 152321, Note_on_c, 0, 72, 66
1, 152323, Note_on_c, 9, 35, 36
1, 152333, Note_on_c, 0, 55, 48
1, 152345, Note_on_c, 9, 51, 0
1, 152349, Note_on_c, 9, 35, 0
1, 152353, Note_on_c, 0, 56, 46
1, 152369, Note_on_c, 1, 38, 0
1, 152405, Note_on_c, 0, 60, 30
1, 152409, Note_on_c, 0, 67, 0
1, 152413, Note_on_c, 0, 65, 0
1, 152417, Note_on_c, 0, 72, 0
1, 152429, Note_on_c, 0, 75, 0
1, 152435, Note_on_c, 9, 51, 87
1, 152437, Note_on_c, 0, 55, 0
1, 152439, Note_on_c, 9, 44, 98
1, 152445, Note_on_c, 1, 40, 61
1, 152461, Note_on_c, 0, 60, 0
1, 152517, Note_on_c, 0, 56, 0
1, 152525, Note_on_c, 0, 67, 48
1, 152537, Note_on_c, 0, 72, 52
1, 152557, Note_on_c, 0, 75, 42
1, 152599, Note_on_c, 9, 44, 0
1, 152649, Note_on_c, 9, 51, 0
1, 152657, Note_on_c, 0, 67, 0
1, 152661, Note_on_c, 0, 72, 0
1, 152661, Note_on_c, 0, 75, 0
1, 152691, Note_on_c, 9, 51, 70
1, 152701, Note_on_c, 0, 79, 0
1, 152727, Note_on_c, 9, 51, 0
1, 152819, Note_on_c, 9, 51, 75
1, 152821, Note_on_c, 1, 41, 63
1, 152829, Note_on_c, 0, 79, 65
1, 152833, Note_on_c, 1, 40, 0
1, 152849, Note_on_c, 0, 67, 57
1, 152857, Note_on_c, 0, 72, 58
1, 152861, Note_on_c, 0, 75, 50
1, 152961, Note_on_c, 0, 67, 0
1, 152973, Note_on_c, 0, 79, 0
1, 152985, Note_on_c, 0, 72, 0
1, 152999, Note_on_c, 9, 51, 0
1, 153005, Note_on_c, 0, 75, 0
1, 153075, Note_on_c, 9, 51, 77
1, 153093, Note_on_c, 0, 79, 58
1, 153097, Note_on_c, 9, 51, 0
1, 153101, Note_on_c, 0, 67, 61
1, 153105, Note_on_c, 0, 72, 61
1, 153113, Note_on_c, 0, 43, 53
1, 153113, Note_on_c, 1, 39, 42
1, 153121, Note_on_c, 0, 75, 53
1, 153137, Note_on_c, 0, 55, 37
1, 153157, Note_on_c, 0, 43, 0
1, 153173, Note_on_c, 0, 75, 0
1, 153177, Note_on_c, 1, 39, 0
1, 153189, Note_on_c, 1, 41, 0
1, 153193, Note_on_c, 0, 55, 0
1, 153201, Note_on_c, 1, 45, 63
1, 153201, Note_on_c, 9, 40, 38
1, 153203, Note_on_c, 9, 51, 112
1, 153207, Note_on_c, 9, 46, 42
1, 153219, Note_on_c, 9, 40, 0
1, 153221, Note_on_c, 0, 67, 0
1, 153229, Note_on_c, 0, 72, 0
1, 153257, Note_on_c, 0, 79, 0
1, 153319, Note_on_c, 9, 46, 0
1, 153417, Note_on_c, 9, 51, 0
1, 153425, Note_on_c, 0, 79, 62
1, 153433, Note_on_c, 9, 40, 46
1, 153441, Note_on_c, 0, 72, 64
1, 153441, Note_on_c, 0, 67, 62
1, 153481, Note_on_c, 9, 40, 0
1, 153513, Note_on_c, 1, 41, 45
1, 153517, Note_on_c, 0, 67, 0
1, 153545, Note_on_c, 0, 72, 0
1, 153545, Note_on_c, 0, 79, 0
1, 153557, Note_on_c, 1, 45, 0
1, 153565, Note_on_c, 1, 41, 0
1, 153587, Note_on_c, 9, 51, 99
1, 153601, Note_on_c, 1, 52, 63
1, 153621, Note_on_c, 0, 79, 37
1, 153641, Note_on_c, 0, 72, 60
1, 153649, Note_on_c, 0, 67, 49
1, 153681, Note_on_c, 9, 35, 40
1, 153705, Note_on_c, 9, 35, 0
1, 153741, Note_on_c, 0, 67, 0
1, 153793, Note_on_c, 0, 72, 0
1, 153817, Note_on_c, 0, 79, 0
1, 153879, Note_on_c, 9, 51, 0
1, 153909, Note_on_c, 1, 52, 0
1, 153949, Note_on_c, 0, 79, 67
1, 153961, Note_on_c, 0, 65, 58
1, 153965, Note_on_c, 0, 72, 70
1, 153965, Note_on_c, 0, 67, 63
1, 153965, Note_on_c, 1, 51, 66
1, 153971, Note_on_c, 9, 51, 64
1, 153975, Note_on_c, 9, 44, 91
1, 154005, Note_on_c, 0, 75, 33
1, 154069, Note_on_c, 0, 75, 0
1, 154069, Note_on_c, 0, 65, 0
1, 154085, Note_on_c, 0, 67, 0
1, 154105, Note_on_c, 0, 79, 0
1, 154113, Note_on_c, 9, 44, 0
1, 154117, Note_on_c, 0, 72, 0
1, 154221, Note_on_c, 0, 79, 61
1, 154225, Note_on_c, 0, 72, 60
1, 154229, Note_on_c, 0, 67, 57
1, 154297, Note_on_c, 9, 51, 0
1, 154337, Note_on_c, 0, 67, 0
1, 154353, Note_on_c, 0, 79, 0
1, 154353, Note_on_c, 1, 49, 58
1, 154355, Note_on_c, 9, 51, 98
1, 154361, Note_on_c, 1, 51, 0
1, 154361, Note_on_c, 0, 72, 0
1, 154541, Note_on_c, 0, 72, 80
1, 154541, Note_on_c, 0, 67, 80
1, 154541, Note_on_c, 0, 79, 76
1, 154573, Note_on_c, 0, 55, 72
1, 154573, Note_on_c, 0, 77, 55
1, 154593, Note_on_c, 0, 54, 56
1, 154629, Note_on_c, 0, 54, 0
1, 154629, Note_on_c, 0, 77, 0
1, 154653, Note_on_c, 0, 67, 0
1, 154661, Note_on_c, 0, 72, 0
1, 154675, Note_on_c, 9, 51, 0
1, 154733, Note_on_c, 0, 72, 40
1, 154739, Note_on_c, 9, 51, 59
1, 154743, Note_on_c, 9, 44, 98
1, 154745, Note_on_c, 1, 44, 69
1, 154761, Note_on_c, 0, 67, 42
1, 154789, Note_on_c, 1, 49, 0
1, 154809, Note_on_c, 0, 79, 0
1, 154813, Control_c, 0, 64, 127
1, 154841, Note_on_c, 0, 72, 0
1, 154855, Note_on_c, 9, 44, 0
1, 154861, Note_on_c, 0, 67, 0
1, 154953, Note_on_c, 9, 51, 0
1, 154995, Note_on_c, 9, 51, 75
1, 155017, Note_on_c, 9, 35, 28
1, 155063, Note_on_c, 9, 51, 0
1, 155075, Note_on_c, 9, 35, 0
1, 155121, Note_on_c, 0, 51, 54
1, 155123, Note_on_c, 9, 51, 66
1, 155137, Note_on_c, 9, 35, 24
1, 155145, Note_on_c, 0, 55, 0
1, 155145, Note_on_c, 1, 43, 63
1, 155149, Note_on_c, 1, 44, 0
1, 155165, Note_on_c, 0, 51, 0
1, 155185, Note_on_c, 0, 55, 49
1, 155221, Control_c, 0, 64, 0
1, 155319, Note_on_c, 9, 35, 0
1, 155345, Note_on_c, 0, 56, 60
1, 155411, Note_on_c, 9, 51, 0
1, 155415, Note_on_c, 9, 35, 31
1, 155437, Note_on_c, 0, 56, 0
1, 155447, Note_on_c, 9, 35, 0
1, 155497, Note_on_c, 1, 43, 0
1, 155507, Note_on_c, 9, 51, 64
1, 155511, Note_on_c, 9, 44, 84
1, 155557, Note_on_c, 0, 55, 0
1, 155565, Note_on_c, 0, 56, 53
1, 155573, Note_on_c, 1, 31, 54
1, 155573, Note_on_c, 1, 33, 39
1, 155637, Note_on_c, 0, 56, 0
1, 155657, Note_on_c, 9, 44, 0
1, 155677, Note_on_c, 0, 55, 44
1, 155689, Note_on_c, 9, 51, 0
1, 155753, Note_on_c, 1, 33, 0
1, 155763, Note_on_c, 9, 51, 82
1, 155769, Note_on_c, 0, 55, 0
1, 155777, Note_on_c, 1, 31, 0
1, 155781, Note_on_c, 0, 56, 48
1, 155827, Note_on_c, 9, 51, 0
1, 155845, Note_on_c, 0, 56, 0
1, 155877, Note_on_c, 0, 55, 44
1, 155891, Note_on_c, 9, 51, 47
1, 155917, Note_on_c, 1, 31, 75
1, 155989, Note_on_c, 0, 55, 0
1, 156005, Note_on_c, 0, 56, 44
1, 156061, Note_on_c, 0, 56, 0
1, 156101, Note_on_c, 0, 55, 45
1, 156119, Note_on_c, 9, 51, 0
1, 156147, Note_on_c, 9, 53, 64
1, 156181, Note_on_c, 0, 55, 0
1, 156221, Note_on_c, 0, 56, 41
1, 156227, Note_on_c, 9, 53, 0
1, 156273, Note_on_c, 0, 56, 0
1, 156275, Note_on_c, 9, 51, 78
1, 156277, Note_on_c, 1, 43, 82
1, 156279, Note_on_c, 9, 44, 91
1, 156301, Note_on_c, 1, 31, 0
1, 156309, Note_on_c, 0, 55, 49
1, 156385, Note_on_c, 0, 55, 0
1, 156417, Note_on_c, 0, 56, 37
1, 156423, Note_on_c, 9, 44, 0
1, 156423, Note_on_c, 9, 34, 43
1, 156461, Note_on_c, 9, 34, 0
1, 156477, Note_on_c, 0, 56, 0
1, 156517, Note_on_c, 0, 55, 51
1, 156593, Note_on_c, 0, 55, 0
1, 156601, Note_on_c, 9, 51, 0
1, 156601, Note_on_c, 0, 56, 42
1, 156659, Note_on_c, 9, 51, 84
1, 156677, Note_on_c, 0, 43, 58
1, 156677, Note_on_c, 1, 31, 54
1, 156681, Note_on_c, 0, 56, 0
1, 156713, Note_on_c, 0, 55, 56
1, 156813, Note_on_c, 0, 55, 0
1, 156825, Note_on_c, 0, 56, 48
1, 156893, Note_on_c, 0, 56, 0
1, 156929, Note_on_c, 0, 55, 57
1, 156983, Note_on_c, 9, 51, 0
1, 157017, Note_on_c, 1, 43, 0
1, 157021, Note_on_c, 0, 55, 0
1, 157037, Note_on_c, 0, 56, 47
1, 157043, Note_on_c, 9, 51, 75
1, 157047, Note_on_c, 9, 44, 99
1, 157065, Note_on_c, 1, 44, 84
1, 157065, Note_on_c, 9, 35, 17
1, 157093, Note_on_c, 1, 31, 0
1, 157149, Note_on_c, 0, 56, 0
1, 157165, Note_on_c, 0, 55, 53
1, 157169, Note_on_c, 9, 44, 0
1, 157219, Note_on_c, 9, 35, 0
1, 157251, Note_on_c, 9, 51, 0
1, 157265, Note_on_c, 0, 43, 0
1, 157285, Note_on_c, 0, 56, 54
1, 157297, Note_on_c, 0, 45, 54
1, 157297, Note_on_c, 9, 51, 75
1, 157309, Note_on_c, 0, 55, 0
1, 157315, Note_on_c, 9, 35, 26
1, 157347, Note_on_c, 9, 35, 0
1, 157351, Note_on_c, 9, 51, 0
1, 157405, Note_on_c, 0, 56, 0
1, 157421, Note_on_c, 0, 55, 60
1, 157427, Note_on_c, 9, 51, 87
1, 157469, Note_on_c, 1, 43, 66
1, 157513, Note_on_c, 0, 56, 53
1, 157521, Note_on_c, 0, 55, 0
1, 157541, Note_on_c, 0, 45, 0
1, 157593, Note_on_c, 1, 44, 0
1, 157637, Note_on_c, 0, 56, 0
1, 157641, Note_on_c, 0, 55, 58
1, 157697, Note_on_c, 1, 38, 66
1, 157701, Note_on_c, 1, 43, 0
1, 157725, Note_on_c, 0, 47, 39
1, 157731, Note_on_c, 9, 51, 0
1, 157769, Note_on_c, 0, 48, 66
1, 157781, Note_on_c, 0, 47, 0
1, 157781, Note_on_c, 0, 56, 51
1, 157785, Note_on_c, 0, 55, 0
1, 157809, Note_on_c, 1, 38, 0
1, 157811, Note_on_c, 9, 51, 73
1, 157813, Note_on_c, 0, 48, 0
1, 157815, Note_on_c, 9, 44, 96
1, 157829, Note_on_c, 1, 31, 70
1, 157869, Note_on_c, 0, 50, 76
1, 157905, Note_on_c, 0, 55, 56
1, 157921, Note_on_c, 0, 56, 0
1, 157985, Note_on_c, 9, 44, 0
1, 158025, Note_on_c, 0, 55, 0
1, 158035, Note_on_c, 9, 51, 0
1, 158037, Note_on_c, 0, 56, 52
1, 158067, Note_on_c, 9, 51, 75
1, 158071, Note_on_c, 9, 35, 24
1, 158113, Note_on_c, 9, 35, 0
1, 158119, Note_on_c, 9, 51, 0
1, 158141, Note_on_c, 1, 38, 49
1, 158145, Note_on_c, 0, 56, 0
1, 158145, Note_on_c, 0, 55, 53
1, 158185, Note_on_c, 1, 38, 0
1, 158189, Note_on_c, 0, 50, 0
1, 158193, Note_on_c, 9, 35, 33
1, 158195, Note_on_c, 9, 51, 77
1, 158213, Note_on_c, 0, 48, 62
1, 158217, Note_on_c, 1, 44, 71
1, 158233, Note_on_c, 1, 31, 0
1, 158257, Note_on_c, 0, 55, 0
1, 158265, Note_on_c, 0, 56, 52
1, 158361, Note_on_c, 0, 56, 0
1, 158381, Note_on_c, 0, 55, 55
1, 158393, Note_on_c, 9, 35, 0
1, 158467, Note_on_c, 9, 35, 36
1, 158489, Note_on_c, 9, 51, 0
1, 158493, Note_on_c, 0, 55, 0
1, 158493, Note_on_c, 9, 35, 0
1, 158501, Note_on_c, 0, 56, 50
1, 158529, Note_on_c, 1, 38, 34
1, 158579, Note_on_c, 9, 51, 87
1, 158583, Note_on_c, 9, 44, 98
1, 158585, Note_on_c, 1, 38, 0
1, 158585, Note_on_c, 0, 56, 0
1, 158593, Note_on_c, 1, 43, 62
1, 158621, Note_on_c, 0, 55, 51
1, 158725, Note_on_c, 0, 48, 0
1, 158729, Note_on_c, 0, 55, 0
1, 158733, Note_on_c, 0, 56, 56
1, 158743, Note_on_c, 9, 44, 0
1, 158793, Note_on_c, 9, 51, 0
1, 158835, Note_on_c, 9, 51, 70
1, 158841, Note_on_c, 0, 55, 62
1, 158845, Note_on_c, 0, 56, 0
1, 158871, Note_on_c, 9, 51, 0
1, 158901, Note_on_c, 0, 45, 55
1, 158941, Note_on_c, 1, 44, 0
1, 158941, Note_on_c, 1, 43, 0
1, 158963, Note_on_c, 0, 56, 46
1, 158963, Note_on_c, 9, 51, 75
1, 158973, Note_on_c, 0, 55, 0
1, 158989, Note_on_c, 1, 31, 63
1, 159061, Note_on_c, 0, 56, 0
1, 159093, Note_on_c, 0, 55, 50
1, 159143, Note_on_c, 9, 51, 0
1, 159189, Note_on_c, 0, 55, 0
1, 159201, Note_on_c, 0, 56, 45
1, 159219, Note_on_c, 9, 51, 77
1, 159241, Note_on_c, 9, 51, 0
1, 159245, Note_on_c, 0, 45, 0
1, 159261, Note_on_c, 1, 37, 32
1, 159305, Note_on_c, 0, 56, 0
1, 159313, Note_on_c, 1, 37, 0
1, 159317, Note_on_c, 1, 31, 0
1, 159321, Note_on_c, 0, 55, 58
1, 159341, Note_on_c, 1, 42, 65
1, 159345, Note_on_c, 9, 40, 38
1, 159347, Note_on_c, 9, 51, 112
1, 159351, Note_on_c, 9, 46, 42
1, 159363, Note_on_c, 9, 40, 0
1, 159417, Note_on_c, 0, 50, 62
1, 159449, Note_on_c, 0, 56, 42
1, 159463, Note_on_c, 9, 46, 0
1, 159469, Note_on_c, 0, 55, 0
1, 159517, Note_on_c, 0, 56, 0
1, 159561, Note_on_c, 9, 51, 0
1, 159565, Note_on_c, 0, 55, 39
1, 159577, Note_on_c, 9, 40, 46
1, 159625, Note_on_c, 9, 40, 0
1, 159685, Note_on_c, 0, 55, 0
1, 159713, Note_on_c, 0, 56, 40
1, 159731, Note_on_c, 9, 51, 99
1, 159751, Note_on_c, 9, 35, 22
1, 159757, Note_on_c, 1, 42, 0
1, 159761, Note_on_c, 1, 43, 63
1, 159769, Note_on_c, 0, 56, 0
1, 159785, Note_on_c, 0, 55, 44
1, 159789, Note_on_c, 9, 35, 0
1, 159829, Note_on_c, 0, 50, 0
1, 160009, Note_on_c, 0, 43, 64
1, 160023, Note_on_c, 9, 51, 0
1, 160099, Note_on_c, 9, 35, 36
1, 160105, Note_on_c, 1, 43, 0
1, 160115, Note_on_c, 9, 51, 73
1, 160119, Note_on_c, 9, 44, 70
1, 160153, Note_on_c, 1, 31, 85
1, 160289, Note_on_c, 9, 44, 0
1, 160297, Note_on_c, 0, 55, 0
1, 160313, Note_on_c, 9, 35, 0
1, 160329, Note_on_c, 9, 51, 0
1, 160371, Note_on_c, 9, 51, 56
1, 160441, Note_on_c, 9, 51, 0
1, 160485, Note_on_c, 1, 31, 0
1, 160499, Note_on_c, 9, 51, 82
1, 160517, Note_on_c, 1, 33, 56
1, 160561, Note_on_c, 0, 55, 74
1, 160659, Note_on_c, 9, 51, 0
1, 160677, Note_on_c, 0, 43, 0
1, 160733, Note_on_c, 0, 55, 0
1, 160755, Note_on_c, 9, 51, 75
1, 160759, Note_on_c, 9, 35, 24
1, 160775, Note_on_c, 9, 51, 0
1, 160781, Note_on_c, 9, 35, 0
1, 160801, Note_on_c, 0, 57, 64
1, 160861, Note_on_c, 1, 33, 0
1, 160865, Note_on_c, 1, 35, 68
1, 160881, Note_on_c, 9, 35, 54
1, 160883, Note_on_c, 9, 51, 124
1, 160887, Note_on_c, 9, 44, 82
1, 160937, Note_on_c, 0, 57, 0
1, 160961, Note_on_c, 0, 55, 38
1, 161041, Note_on_c, 9, 44, 0
1, 161091, Note_on_c, 9, 35, 0
1, 161137, Note_on_c, 9, 35, 54
1, 161161, Note_on_c, 9, 51, 0
1, 161173, Note_on_c, 0, 55, 0
1, 161185, Note_on_c, 0, 48, 39
1, 161207, Note_on_c, 9, 35, 0
1, 161253, Note_on_c, 0, 48, 0
1, 161253, Note_on_c, 1, 35, 0
1, 161267, Note_on_c, 9, 51, 91
1, 161277, Note_on_c, 1, 36, 51
1, 161297, Note_on_c, 0, 60, 68
1, 161561, Note_on_c, 9, 51, 0
1, 161577, Note_on_c, 1, 34, 39
1, 161651, Note_on_c, 9, 51, 78
1, 161655, Note_on_c, 9, 44, 91
1, 161657, Note_on_c, 1, 41, 62
1, 161717, Note_on_c, 1, 36, 0
1, 161729, Note_on_c, 1, 34, 0
1, 161777, Note_on_c, 9, 44, 0
1, 161859, Note_on_c, 9, 51, 0
1, 161907, Note_on_c, 9, 51, 82
1, 161921, Note_on_c, 0, 48, 62
1, 161941, Note_on_c, 0, 55, 73
1, 161949, Note_on_c, 0, 60, 0
1, 161955, Note_on_c, 9, 51, 0
1, 161965, Note_on_c, 0, 48, 0
1, 162035, Note_on_c, 9, 51, 56
1, 162049, Note_on_c, 1, 41, 0
1, 162065, Note_on_c, 1, 40, 57
1, 162137, Note_on_c, 9, 34, 26
1, 162179, Note_on_c, 9, 34, 0
1, 162213, Note_on_c, 0, 55, 0
1, 162243, Note_on_c, 9, 51, 0
1, 162279, Note_on_c, 9, 35, 36
1, 162291, Note_on_c, 9, 51, 50
1, 162309, Note_on_c, 0, 57, 66
1, 162311, Note_on_c, 9, 35, 0
1, 162323, Note_on_c, 9, 51, 0
1, 162409, Note_on_c, 9, 34, 18
1, 162419, Note_on_c, 9, 51, 85
1, 162423, Note_on_c, 9, 44, 89
1, 162425, Note_on_c, 1, 40, 0
1, 162425, Note_on_c, 1, 35, 58
1, 162453, Note_on_c, 0, 57, 0
1, 162465, Note_on_c, 9, 34, 0
1, 162465, Note_on_c, 0, 55, 56
1, 162545, Note_on_c, 9, 44, 0
1, 162547, Note_on_c, 9, 35, 54
1, 162569, Note_on_c, 9, 35, 0
1, 162649, Note_on_c, 0, 55, 0
1, 162657, Note_on_c, 9, 34, 34
1, 162697, Note_on_c, 9, 34, 0
1, 162697, Note_on_c, 9, 51, 0
1, 162741, Note_on_c, 0, 48, 60
1, 162785, Note_on_c, 0, 48, 0
1, 162803, Note_on_c, 9, 51, 94
1, 162805, Note_on_c, 1, 35, 0
1, 162821, Note_on_c, 1, 36, 57
1, 162829, Note_on_c, 0, 64, 91
1, 163111, Note_on_c, 9, 51, 0
1, 163125, Note_on_c, 0, 48, 35
1, 163129, Note_on_c, 0, 64, 0
1, 163181, Note_on_c, 0, 48, 0
1, 163187, Note_on_c, 9, 51, 68
1, 163191, Note_on_c, 9, 44, 80
1, 163193, Note_on_c, 0, 55, 70
1, 163201, Note_on_c, 1, 38, 64
1, 163241, Note_on_c, 1, 36, 0
1, 163317, Note_on_c, 0, 55, 0
1, 163329, Note_on_c, 9, 44, 0
1, 163411, Note_on_c, 9, 51, 0
1, 163443, Note_on_c, 9, 51, 59
1, 163453, Note_on_c, 0, 57, 75
1, 163507, Note_on_c, 9, 51, 0
1, 163541, Note_on_c, 1, 38, 0
1, 163571, Note_on_c, 9, 51, 73
1, 163585, Note_on_c, 1, 40, 70
1, 163605, Note_on_c, 0, 57, 0
1, 163625, Note_on_c, 0, 55, 43
1, 163817, Note_on_c, 9, 35, 75
1, 163853, Note_on_c, 0, 48, 42
1, 163881, Note_on_c, 0, 55, 0
1, 163891, Note_on_c, 9, 51, 0
1, 163921, Note_on_c, 0, 48, 0
1, 163921, Note_on_c, 9, 35, 0
1, 163941, Note_on_c, 1, 40, 0
1, 163949, Note_on_c, 1, 37, 66
1, 163955, Note_on_c, 9, 51, 87
1, 163959, Note_on_c, 9, 44, 98
1, 163971, Note_on_c, 9, 35, 26
1, 163985, Note_on_c, 0, 65, 98
1, 164023, Note_on_c, 9, 35, 0
1, 164097, Note_on_c, 9, 44, 0
1, 164169, Note_on_c, 9, 51, 0
1, 164211, Note_on_c, 9, 51, 57
1, 164279, Note_on_c, 9, 51, 0
1, 164301, Note_on_c, 0, 50, 34
1, 164317, Note_on_c, 0, 65, 0
1, 164333, Note_on_c, 1, 37, 0
1, 164333, Note_on_c, 1, 38, 72
1, 164339, Note_on_c, 9, 51, 94
1, 164361, Note_on_c, 0, 50, 0
1, 164433, Note_on_c, 0, 55, 55
1, 164551, Note_on_c, 9, 51, 0
1, 164569, Note_on_c, 0, 55, 0
1, 164595, Note_on_c, 9, 51, 61
1, 164625, Note_on_c, 0, 50, 41
1, 164647, Note_on_c, 9, 51, 0
1, 164657, Note_on_c, 0, 57, 68
1, 164693, Note_on_c, 0, 50, 0
1, 164717, Note_on_c, 1, 38, 0
1, 164723, Note_on_c, 9, 51, 98
1, 164727, Note_on_c, 9, 44, 80
1, 164741, Note_on_c, 1, 40, 68
1, 164797, Note_on_c, 0, 57, 0
1, 164825, Note_on_c, 0, 55, 58
1, 164881, Note_on_c, 9, 44, 0
1, 164983, Note_on_c, 9, 35, 54
1, 165011, Note_on_c, 9, 51, 0
1, 165015, Note_on_c, 9, 35, 0
1, 165033, Note_on_c, 0, 50, 56
1, 165057, Note_on_c, 0, 55, 0
1, 165089, Note_on_c, 0, 50, 0
1, 165105, Note_on_c, 1, 40, 0
1, 165107, Note_on_c, 9, 51, 70
1, 165111, Note_on_c, 9, 35, 36
1, 165113, Note_on_c, 1, 41, 68
1, 165145, Note_on_c, 9, 35, 0
1, 165157, Note_on_c, 0, 67, 91
1, 165221, Note_on_c, 0, 66, 43
1, 165281, Note_on_c, 0, 66, 0
1, 165347, Note_on_c, 9, 51, 0
1, 165363, Note_on_c, 9, 51, 45
1, 165431, Note_on_c, 9, 51, 0
1, 165457, Note_on_c, 1, 41, 0
1, 165491, Note_on_c, 9, 51, 80
1, 165495, Note_on_c, 9, 44, 87
1, 165497, Note_on_c, 1, 45, 64
1, 165573, Note_on_c, 0, 67, 0
1, 165623, Note_on_c, 9, 44, 0
1, 165633, Note_on_c, 9, 35, 52
1, 165655, Note_on_c, 9, 35, 0
1, 165689, Note_on_c, 9, 51, 0
1, 165747, Note_on_c, 9, 51, 47
1, 165751, Note_on_c, 9, 35, 47
1, 165765, Note_on_c, 0, 55, 56
1, 165769, Note_on_c, 0, 43, 55
1, 165777, Note_on_c, 9, 35, 0
1, 165795, Note_on_c, 9, 51, 0
1, 165845, Note_on_c, 1, 45, 0
1, 165845, Note_on_c, 1, 41, 49
1, 165869, Note_on_c, 0, 55, 0
1, 165875, Note_on_c, 9, 51, 108
1, 165897, Note_on_c, 1, 41, 0
1, 165897, Note_on_c, 0, 43, 0
1, 165897, Note_on_c, 1, 52, 68
1, 166193, Note_on_c, 1, 52, 0
1, 166211, Note_on_c, 9, 51, 0
1, 166249, Note_on_c, 1, 41, 43
1, 166257, Note_on_c, 9, 51, 68
1, 166263, Note_on_c, 9, 44, 89
1, 166265, Note_on_c, 1, 51, 63
1, 166297, Note_on_c, 1, 41, 0
1, 166353, Note_on_c, 9, 44, 0
1, 166457, Note_on_c, 9, 51, 0
1, 166513, Note_on_c, 9, 51, 64
1, 166541, Note_on_c, 0, 53, 35
1, 166557, Note_on_c, 0, 43, 33
1, 166573, Note_on_c, 0, 50, 44
1, 166585, Note_on_c, 9, 51, 0
1, 166597, Note_on_c, 0, 53, 0
1, 166605, Note_on_c, 1, 51, 0
1, 166613, Note_on_c, 0, 43, 0
1, 166637, Note_on_c, 0, 50, 0
1, 166643, Note_on_c, 9, 51, 77
1, 166653, Note_on_c, 1, 50, 57
1, 166677, Note_on_c, 0, 55, 74
1, 166821, Note_on_c, 0, 55, 0
1, 166871, Note_on_c, 9, 35, 57
1, 166897, Note_on_c, 9, 35, 0
1, 166917, Note_on_c, 0, 57, 68
1, 166921, Note_on_c, 0, 50, 42
1, 166921, Note_on_c, 9, 51, 0
1, 166985, Note_on_c, 0, 50, 0
1, 167027, Note_on_c, 9, 51, 64
1, 167031, Note_on_c, 9, 44, 117
1, 167033, Note_on_c, 1, 44, 70
1, 167041, Note_on_c, 0, 57, 0
1, 167049, Note_on_c, 0, 55, 54
1, 167069, Note_on_c, 1, 50, 0
1, 167117, Note_on_c, 9, 44, 0
1, 167193, Note_on_c, 9, 51, 0
1, 167239, Note_on_c, 9, 35, 68
1, 167261, Note_on_c, 0, 55, 0
1, 167277, Note_on_c, 9, 35, 0
1, 167283, Note_on_c, 9, 51, 84
1, 167321, Note_on_c, 0, 50, 57
1, 167351, Note_on_c, 9, 51, 0
1, 167369, Note_on_c, 0, 50, 0
1, 167369, Note_on_c, 9, 46, 52
1, 167377, Note_on_c, 9, 35, 64
1, 167405, Note_on_c, 1, 44, 0
1, 167411, Note_on_c, 0, 65, 101
1, 167411, Note_on_c, 9, 51, 87
1, 167417, Note_on_c, 1, 45, 67
1, 167453, Note_on_c, 9, 46, 0
1, 167495, Note_on_c, 9, 35, 0
1, 167699, Note_on_c, 9, 51, 0
1, 167713, Note_on_c, 0, 50, 31
1, 167781, Note_on_c, 0, 50, 0
1, 167795, Note_on_c, 9, 51, 87
1, 167799, Note_on_c, 9, 44, 112
1, 167805, Note_on_c, 1, 48, 75
1, 167837, Note_on_c, 1, 45, 0
1, 167889, Note_on_c, 9, 44, 0
1, 167997, Note_on_c, 0, 65, 0
1, 168051, Note_on_c, 9, 35, 47
1, 168073, Note_on_c, 0, 53, 40
1, 168083, Note_on_c, 9, 35, 0
1, 168085, Note_on_c, 0, 50, 51
1, 168105, Note_on_c, 9, 51, 0
1, 168129, Note_on_c, 0, 53, 0
1, 168133, Note_on_c, 1, 48, 0
1, 168179, Note_on_c, 9, 51, 82
1, 168185, Note_on_c, 0, 64, 72
1, 168189, Note_on_c, 0, 50, 0
1, 168201, Note_on_c, 1, 45, 67
1, 168377, Note_on_c, 0, 64, 0
1, 168489, Note_on_c, 0, 62, 61
1, 168499, Note_on_c, 9, 51, 0
1, 168501, Note_on_c, 0, 50, 45
1, 168553, Note_on_c, 0, 50, 0
1, 168557, Note_on_c, 1, 45, 0
1, 168563, Note_on_c, 9, 51, 73
1, 168567, Note_on_c, 9, 44, 105
1, 168573, Note_on_c, 1, 42, 68
1, 168613, Note_on_c, 0, 62, 0
1, 168679, Note_on_c, 9, 44, 0
1, 168835, Note_on_c, 9, 35, 49
1, 168883, Note_on_c, 9, 51, 0
1, 168899, Note_on_c, 9, 35, 0
1, 168929, Note_on_c, 1, 42, 0
1, 168947, Note_on_c, 9, 51, 73
1, 168977, Note_on_c, 1, 43, 64
1, 168979, Note_on_c, 9, 35, 24
1, 169027, Note_on_c, 9, 35, 0
1, 169245, Note_on_c, 0, 53, 36
1, 169271, Note_on_c, 9, 51, 0
1, 169273, Note_on_c, 0, 50, 43
1, 169277, Note_on_c, 1, 43, 0
1, 169305, Note_on_c, 0, 53, 0
1, 169331, Note_on_c, 0, 50, 0
1, 169331, Note_on_c, 9, 51, 80
1, 169335, Note_on_c, 9, 44, 101
1, 169345, Note_on_c, 1, 34, 66
1, 169463, Note_on_c, 9, 44, 0
1, 169539, Note_on_c, 9, 51, 0
1, 169575, Note_on_c, 9, 35, 49
1, 169587, Note_on_c, 9, 51, 68
1, 169607, Note_on_c, 9, 35, 0
1, 169653, Note_on_c, 0, 60, 107
1, 169671, Note_on_c, 9, 51, 0
1, 169689, Note_on_c, 1, 34, 0
1, 169715, Note_on_c, 9, 51, 85
1, 169745, Note_on_c, 1, 35, 60
1, 169785, Note_on_c, 0, 60, 0
1, 169997, Note_on_c, 0, 59, 82
1, 170025, Note_on_c, 1, 35, 0
1, 170033, Note_on_c, 0, 50, 44
1, 170035, Note_on_c, 9, 51, 0
1, 170085, Note_on_c, 0, 50, 0
1, 170093, Note_on_c, 1, 38, 60
1, 170099, Note_on_c, 9, 51, 63
1, 170103, Note_on_c, 9, 44, 103
1, 170105, Note_on_c, 0, 59, 0
1, 170149, Note_on_c, 0, 57, 56
1, 170249, Note_on_c, 9, 44, 0
1, 170281, Note_on_c, 1, 38, 0
1, 170345, Note_on_c, 1, 35, 61
1, 170369, Note_on_c, 0, 57, 0
1, 170393, Note_on_c, 0, 50, 47
1, 170393, Note_on_c, 0, 55, 46
1, 170409, Note_on_c, 1, 35, 0
1, 170409, Note_on_c, 9, 51, 0
1, 170437, Note_on_c, 0, 50, 0
1, 170441, Note_on_c, 0, 55, 0
1, 170453, Note_on_c, 1, 36, 66
1, 170483, Note_on_c, 9, 51, 85
1, 170497, Note_on_c, 9, 35, 35
1, 170521, Note_on_c, 0, 62, 85
1, 170531, Note_on_c, 9, 35, 0
1, 170765, Note_on_c, 1, 36, 0
1, 170765, Note_on_c, 1, 34, 57
1, 170773, Note_on_c, 0, 62, 0
1, 170803, Note_on_c, 9, 51, 0
1, 170849, Note_on_c, 1, 34, 0
1, 170867, Note_on_c, 9, 51, 75
1, 170871, Note_on_c, 9, 44, 106
1, 170885, Note_on_c, 1, 38, 63
1, 170889, Note_on_c, 0, 59, 64
1, 170993, Note_on_c, 9, 44, 0
1, 171129, Note_on_c, 0, 59, 0
1, 171157, Note_on_c, 0, 60, 66
1, 171161, Note_on_c, 9, 35, 29
1, 171177, Note_on_c, 9, 51, 0
1, 171197, Note_on_c, 9, 35, 0
1, 171251, Note_on_c, 9, 51, 70
1, 171261, Note_on_c, 0, 60, 0
1, 171265, Note_on_c, 1, 38, 0
1, 171265, Note_on_c, 1, 40, 60
1, 171475, Note_on_c, 9, 51, 0
1, 171497, Note_on_c, 0, 36, 52
1, 171501, Note_on_c, 0, 55, 70
1, 171507, Note_on_c, 9, 51, 84
1, 171513, Note_on_c, 1, 39, 42
1, 171539, Note_on_c, 9, 34, 23
1, 171545, Note_on_c, 0, 55, 0
1, 171557, Note_on_c, 1, 39, 0
1, 171561, Note_on_c, 0, 36, 0
1, 171575, Note_on_c, 9, 34, 0
1, 171575, Note_on_c, 9, 51, 0
1, 171629, Note_on_c, 1, 40, 0
1, 171635, Note_on_c, 9, 51, 91
1, 171637, Note_on_c, 1, 45, 70
1, 171639, Note_on_c, 9, 44, 110
1, 171773, Note_on_c, 9, 44, 0
1, 171809, Note_on_c, 9, 34, 28
1, 171827, Note_on_c, 9, 34, 0
1, 171861, Note_on_c, 0, 36, 57
1, 171911, Note_on_c, 9, 34, 28
1, 171939, Note_on_c, 9, 51, 0
1, 171949, Note_on_c, 0, 36, 0
1, 171985, Note_on_c, 1, 45, 0
1, 172017, Note_on_c, 9, 34, 0
1, 172017, Note_on_c, 0, 55, 65
1, 172017, Note_on_c, 0, 52, 25
1, 172017, Note_on_c, 1, 43, 57
1, 172019, Note_on_c, 9, 51, 92
1, 172039, Note_on_c, 9, 55, 127
1, 172051, Note_on_c, 9, 35, 63
1, 172057, Note_on_c, 9, 55, 0
1, 172077, Note_on_c, 0, 52, 0
1, 172109, Note_on_c, 9, 35, 0
1, 172311, Note_on_c, 9, 51, 0
1, 172333, Note_on_c, 1, 40, 48
1, 172357, Note_on_c, 1, 43, 0
1, 172403, Note_on_c, 9, 51, 82
1, 172405, Note_on_c, 1, 40, 0
1, 172407, Note_on_c, 9, 44, 112
1, 172409, Note_on_c, 1, 50, 72
1, 172421, Note_on_c, 0, 55, 0
1, 172545, Note_on_c, 9, 44, 0
1, 172569, Note_on_c, 9, 51, 0
1, 172657, Note_on_c, 9, 35, 49
1, 172659, Note_on_c, 9, 51, 68
1, 172679, Note_on_c, 9, 35, 0
1, 172739, Note_on_c, 9, 51, 0
1, 172773, Note_on_c, 1, 50, 0
1, 172787, Note_on_c, 9, 51, 80
1, 172805, Note_on_c, 1, 48, 66
1, 173061, Note_on_c, 0, 84, 87
1, 173065, Note_on_c, 0, 72, 84
1, 173065, Note_on_c, 0, 62, 79
1, 173065, Note_on_c, 0, 80, 76
1, 173073, Note_on_c, 0, 58, 60
1, 173073, Note_on_c, 0, 57, 62
1, 173081, Note_on_c, 0, 78, 70
1, 173091, Note_on_c, 9, 51, 0
1, 173105, Note_on_c, 0, 56, 51
1, 173121, Note_on_c, 0, 78, 0
1, 173171, Note_on_c, 0, 62, 0
1, 173171, Note_on_c, 9, 51, 80
1, 173175, Note_on_c, 9, 44, 117
1, 173193, Note_on_c, 1, 47, 57
1, 173201, Note_on_c, 0, 56, 0
1, 173221, Note_on_c, 0, 57, 0
1, 173253, Note_on_c, 1, 48, 0
1, 173265, Note_on_c, 9, 44, 0
1, 173265, Note_on_c, 0, 58, 0
1, 173301, Note_on_c, 0, 72, 0
1, 173329, Note_on_c, 0, 81, 61
1, 173333, Note_on_c, 0, 80, 0
1, 173365, Note_on_c, 0, 84, 0
1, 173369, Note_on_c, 0, 81, 0
1, 173459, Note_on_c, 9, 51, 0
1, 173541, Note_on_c, 1, 47, 0
1, 173555, Note_on_c, 9, 35, 45
1, 173555, Note_on_c, 9, 51, 89
1, 173581, Note_on_c, 1, 46, 61
1, 173593, Note_on_c, 9, 35, 0
1, 173847, Note_on_c, 9, 51, 0
1, 173881, Note_on_c, 1, 42, 45
1, 173913, Note_on_c, 1, 46, 0
1, 173925, Note_on_c, 1, 42, 0
1, 173939, Note_on_c, 9, 51, 61
1, 173943, Note_on_c, 9, 44, 110
1, 173953, Note_on_c, 0, 81, 90
1, 173957, Note_on_c, 0, 53, 77
1, 173961, Note_on_c, 0, 57, 70
1, 173961, Note_on_c, 0, 62, 79
1, 173961, Note_on_c, 0, 69, 91
1, 173961, Note_on_c, 0, 74, 87
1, 173965, Note_on_c, 1, 45, 50
1, 173977, Note_on_c, 0, 58, 65
1, 173977, Note_on_c, 0, 77, 64
1, 174055, Note_on_c, 9, 44, 0
1, 174121, Note_on_c, 9, 51, 0
1, 174167, Note_on_c, 9, 35, 50
1, 174195, Note_on_c, 9, 51, 68
1, 174209, Note_on_c, 9, 35, 0
1, 174231, Note_on_c, 9, 51, 0
1, 174313, Note_on_c, 1, 45, 0
1, 174323, Note_on_c, 9, 51, 75
1, 174345, Note_on_c, 1, 44, 61
1, 174373, Control_c, 0, 64, 127
1, 174413, Note_on_c, 0, 69, 0
1, 174457, Note_on_c, 0, 74, 0
1, 174489, Note_on_c, 0, 77, 0
1, 174489, Note_on_c, 0, 81, 0
1, 174497, Note_on_c, 0, 53, 0
1, 174501, Note_on_c, 0, 62, 0
1, 174541, Note_on_c, 0, 58, 0
1, 174541, Note_on_c, 0, 57, 0
1, 174631, Note_on_c, 9, 51, 0
1, 174637, Note_on_c, 0, 84, 97
1, 174641, Note_on_c, 0, 72, 84
1, 174641, Note_on_c, 0, 77, 81
1, 174657, Note_on_c, 0, 58, 62
1, 174657, Note_on_c, 0, 62, 73
1, 174657, Note_on_c, 0, 81, 73
1, 174657, Note_on_c, 0, 57, 62
1, 174669, Note_on_c, 0, 53, 67
1, 174685, Note_on_c, 1, 44, 0
1, 174707, Note_on_c, 9, 51, 73
1, 174711, Note_on_c, 9, 44, 101
1, 174737, Note_on_c, 1, 43, 54
1, 174839, Note_on_c, 9, 44, 0
1, 174841, Note_on_c, 0, 81, 0
1, 174857, Note_on_c, 0, 62, 0
1, 174883, Note_on_c, 9, 51, 0
1, 174885, Note_on_c, 0, 84, 0
1, 174885, Note_on_c, 0, 77, 0
1, 174901, Note_on_c, 0, 57, 0
1, 174937, Note_on_c, 0, 72, 0
1, 174945, Note_on_c, 0, 58, 0
1, 174953, Note_on_c, 0, 53, 0
1, 174963, Note_on_c, 9, 51, 84
1, 175017, Control_c, 0, 64, 0
1, 175031, Note_on_c, 9, 51, 0
1, 175091, Note_on_c, 9, 51, 96
1, 175093, Note_on_c, 1, 43, 0
1, 175107, Note_on_c, 9, 35, 33
1, 175113, Note_on_c, 1, 38, 66
1, 175145, Note_on_c, 0, 81, 72
1, 175161, Note_on_c, 0, 76, 73
1, 175169, Note_on_c, 0, 69, 67
1, 175177, Note_on_c, 0, 52, 76
1, 175177, Note_on_c, 0, 62, 68
1, 175197, Note_on_c, 0, 58, 59
1, 175283, Note_on_c, 9, 35, 0
1, 175329, Control_c, 0, 64, 127
1, 175383, Note_on_c, 9, 35, 33
1, 175401, Note_on_c, 9, 51, 0
1, 175417, Note_on_c, 9, 35, 0
1, 175475, Note_on_c, 9, 51, 73
1, 175477, Note_on_c, 1, 38, 0
1, 175479, Note_on_c, 9, 44, 99
1, 175481, Note_on_c, 0, 81, 0
1, 175481, Note_on_c, 1, 35, 66
1, 175517, Note_on_c, 0, 76, 0
1, 175533, Note_on_c, 0, 69, 0
1, 175541, Note_on_c, 0, 62, 0
1, 175589, Note_on_c, 0, 52, 0
1, 175601, Note_on_c, 9, 44, 0
1, 175681, Note_on_c, 0, 58, 0
1, 175763, Note_on_c, 9, 51, 0
1, 175833, Note_on_c, 1, 35, 0
1, 175853, Control_c, 0, 64, 0
1, 175859, Note_on_c, 9, 51, 89
1, 175885, Note_on_c, 1, 36, 61
1, 175905, Note_on_c, 0, 61, 61
1, 175909, Note_on_c, 0, 73, 60
1, 175917, Note_on_c, 0, 79, 60
1, 175921, Note_on_c, 0, 52, 53
1, 175929, Note_on_c, 0, 67, 46
1, 175933, Note_on_c, 0, 58, 55
1, 176093, Control_c, 0, 64, 127
1, 176137, Note_on_c, 9, 51, 0
1, 176193, Note_on_c, 0, 79, 0
1, 176205, Note_on_c, 0, 67, 0
1, 176225, Note_on_c, 0, 52, 0
1, 176241, Note_on_c, 1, 30, 65
1, 176243, Note_on_c, 9, 51, 92
1, 176247, Note_on_c, 9, 44, 98
1, 176265, Note_on_c, 1, 36, 0
1, 176265, Note_on_c, 0, 58, 0
1, 176285, Note_on_c, 0, 61, 0
1, 176361, Note_on_c, 0, 73, 0
1, 176369, Note_on_c, 9, 44, 0
1, 176425, Note_on_c, 9, 51, 0
1, 176499, Note_on_c, 9, 51, 89
1, 176547, Note_on_c, 9, 51, 0
1, 176601, Note_on_c, 1, 30, 0
1, 176609, Control_c, 0, 64, 0
1, 176627, Note_on_c, 9, 51, 91
1, 176633, Note_on_c, 1, 29, 66
1, 176647, Note_on_c, 9, 35, 31
1, 176661, Note_on_c, 0, 64, 49
1, 176669, Note_on_c, 0, 60, 44
1, 176669, Note_on_c, 0, 77, 56
1, 176673, Note_on_c, 9, 35, 0
1, 176673, Note_on_c, 0, 72, 49
1, 176681, Note_on_c, 0, 69, 33
1, 176693, Note_on_c, 0, 53, 28
1, 176713, Note_on_c, 0, 57, 36
1, 176877, Control_c, 0, 64, 127
1, 176903, Note_on_c, 9, 35, 47
1, 176929, Note_on_c, 9, 35, 0
1, 176935, Note_on_c, 9, 51, 0
1, 176969, Note_on_c, 0, 77, 0
1, 176977, Note_on_c, 0, 72, 0
1, 177009, Note_on_c, 0, 64, 0
1, 177011, Note_on_c, 9, 51, 64
1, 177015, Note_on_c, 9, 44, 96
1, 177017, Note_on_c, 1, 31, 79
1, 177041, Note_on_c, 1, 29, 0
1, 177053, Note_on_c, 0, 60, 0
1, 177057, Note_on_c, 0, 69, 0
1, 177089, Note_on_c, 0, 57, 0
1, 177137, Note_on_c, 9, 44, 0
1, 177193, Note_on_c, 9, 51, 0
1, 177267, Note_on_c, 9, 51, 56
1, 177319, Note_on_c, 9, 51, 0
1, 177395, Note_on_c, 9, 51, 52
1, 177397, Note_on_c, 1, 33, 68
1, 177411, Note_on_c, 9, 35, 33
1, 177417, Note_on_c, 1, 31, 0
1, 177433, Note_on_c, 0, 62, 43
1, 177437, Control_c, 0, 64, 0
1, 177437, Note_on_c, 0, 76, 54
1, 177437, Note_on_c, 0, 65, 45
1, 177445, Note_on_c, 0, 72, 54
1, 177461, Note_on_c, 0, 69, 56
1, 177543, Note_on_c, 9, 51, 0
1, 177591, Note_on_c, 9, 35, 0
1, 177651, Note_on_c, 9, 51, 112
1, 177665, Control_c, 0, 64, 127
1, 177665, Note_on_c, 9, 35, 31
1, 177689, Note_on_c, 0, 65, 0
1, 177697, Note_on_c, 9, 35, 0
1, 177715, Note_on_c, 9, 51, 0
1, 177725, Note_on_c, 0, 53, 0
1, 177749, Note_on_c, 1, 33, 0
1, 177773, Note_on_c, 1, 38, 68
1, 177779, Note_on_c, 9, 51, 84
1, 177783, Note_on_c, 9, 44, 94
1, 177797, Note_on_c, 0, 69, 0
1, 177809, Note_on_c, 0, 72, 0
1, 177849, Note_on_c, 0, 62, 0
1, 177895, Note_on_c, 9, 44, 0
1, 177941, Note_on_c, 0, 76, 0
1, 178089, Note_on_c, 9, 51, 0
1, 178163, Note_on_c, 9, 51, 96
1, 178169, Note_on_c, 1, 38, 0
1, 178181, Note_on_c, 1, 34, 70
1, 178193, Control_c, 0, 64, 0
1, 178217, Note_on_c, 0, 67, 50
1, 178217, Note_on_c, 0, 56, 40
1, 178229, Note_on_c, 0, 72, 55
1, 178241, Note_on_c, 0, 62, 46
1, 178413, Control_c, 0, 64, 127
1, 178457, Note_on_c, 1, 41, 57
1, 178471, Note_on_c, 9, 51, 0
1, 178497, Note_on_c, 0, 67, 0
1, 178505, Note_on_c, 1, 41, 0
1, 178547, Note_on_c, 9, 51, 63
1, 178549, Note_on_c, 0, 62, 0
1, 178551, Note_on_c, 9, 44, 91
1, 178553, Note_on_c, 0, 72, 0
1, 178561, Note_on_c, 0, 56, 0
1, 178565, Note_on_c, 1, 46, 75
1, 178613, Note_on_c, 1, 34, 0
1, 178647, Note_on_c, 9, 44, 0
1, 178739, Note_on_c, 9, 51, 0
1, 178803, Note_on_c, 9, 51, 50
1, 178807, Note_on_c, 9, 35, 68
1, 178817, Control_c, 0, 64, 0
1, 178865, Note_on_c, 0, 79, 76
1, 178865, Note_on_c, 0, 72, 62
1, 178873, Note_on_c, 0, 56, 55
1, 178873, Note_on_c, 9, 35, 0
1, 178883, Note_on_c, 9, 51, 0
1, 178889, Note_on_c, 0, 76, 66
1, 178893, Note_on_c, 0, 67, 35
1, 178901, Note_on_c, 0, 62, 53
1, 178921, Note_on_c, 1, 46, 0
1, 178931, Note_on_c, 9, 51, 96
1, 178933, Note_on_c, 0, 76, 0
1, 178933, Note_on_c, 1, 50, 68
1, 178945, Note_on_c, 9, 35, 43
1, 178997, Control_c, 0, 64, 127
1, 179033, Note_on_c, 0, 67, 0
1, 179137, Note_on_c, 0, 62, 0
1, 179153, Note_on_c, 9, 35, 0
1, 179205, Note_on_c, 0, 72, 0
1, 179237, Note_on_c, 0, 56, 0
1, 179267, Note_on_c, 9, 51, 0
1, 179273, Note_on_c, 0, 79, 0
1, 179315, Note_on_c, 9, 51, 68
1, 179319, Note_on_c, 9, 44, 73
1, 179329, Note_on_c, 1, 50, 0
1, 179333, Note_on_c, 1, 39, 76
1, 179417, Note_on_c, 9, 44, 0
1, 179571, Note_on_c, 9, 53, 124
1, 179587, Note_on_c, 9, 51, 0
1, 179589, Control_c, 0, 64, 0
1, 179667, Note_on_c, 9, 53, 0
1, 179699, Note_on_c, 9, 51, 54
1, 179705, Note_on_c, 0, 62, 50
1, 179709, Note_on_c, 0, 91, 68
1, 179721, Note_on_c, 1, 40, 64
1, 179725, Note_on_c, 1, 39, 0
1, 179737, Note_on_c, 0, 52, 36
1, 179737, Note_on_c, 0, 59, 32
1, 179737, Note_on_c, 0, 86, 56
1, 179745, Note_on_c, 0, 79, 45
1, 179745, Note_on_c, 0, 55, 43
1, 179961, Control_c, 0, 64, 127
1, 180025, Note_on_c, 9, 51, 0
1, 180037, Note_on_c, 0, 79, 0
1, 180049, Note_on_c, 1, 39, 45
1, 180083, Note_on_c, 9, 51, 80
1, 180087, Note_on_c, 9, 44, 70
1, 180093, Note_on_c, 0, 55, 0
1, 180097, Note_on_c, 1, 40, 0
1, 180097, Note_on_c, 0, 86, 0
1, 180109, Note_on_c, 1, 39, 0
1, 180109, Note_on_c, 1, 46, 76
1, 180117, Note_on_c, 0, 52, 0
1, 180121, Note_on_c, 0, 91, 0
1, 180129, Note_on_c, 0, 62, 0
1, 180149, Note_on_c, 0, 59, 0
1, 180177, Note_on_c, 9, 44, 0
1, 180409, Note_on_c, 9, 51, 0
1, 180467, Note_on_c, 9, 51, 80
1, 180489, Note_on_c, 0, 96, 64
1, 180497, Note_on_c, 1, 43, 61
1, 180509, Note_on_c, 0, 62, 43
1, 180521, Note_on_c, 0, 84, 46
1, 180521, Control_c, 0, 64, 0
1, 180525, Note_on_c, 0, 91, 56
1, 180525, Note_on_c, 0, 59, 37
1, 180533, Note_on_c, 0, 55, 42
1, 180545, Note_on_c, 0, 52, 36
1, 180701, Control_c, 0, 64, 127
1, 180709, Note_on_c, 0, 84, 0
1, 180737, Note_on_c, 0, 52, 0
1, 180745, Note_on_c, 9, 35, 52
1, 180749, Note_on_c, 0, 55, 0
1, 180765, Note_on_c, 0, 59, 0
1, 180769, Note_on_c, 0, 91, 0
1, 180771, Note_on_c, 9, 35, 0
1, 180793, Note_on_c, 1, 46, 0
1, 180797, Note_on_c, 0, 62, 0
1, 180801, Note_on_c, 0, 96, 0
1, 180803, Note_on_c, 9, 51, 0
1, 180849, Note_on_c, 1, 43, 0
1, 180851, Note_on_c, 9, 51, 63
1, 180855, Note_on_c, 9, 44, 110
1, 180885, Note_on_c, 1, 32, 54
1, 180885, Note_on_c, 1, 34, 67
1, 180945, Note_on_c, 9, 44, 0
1, 180981, Note_on_c, 1, 32, 0
1, 181043, Note_on_c, 9, 51, 0
1, 181107, Note_on_c, 9, 51, 57
1, 181127, Note_on_c, 9, 35, 56
1, 181165, Note_on_c, 9, 35, 0
1, 181171, Note_on_c, 9, 51, 0
1, 181233, Note_on_c, 1, 34, 0
1, 181235, Note_on_c, 9, 51, 68
1, 181261, Control_c, 0, 64, 0
1, 181277, Note_on_c, 0, 103, 123
1, 181281, Note_on_c, 0, 91, 109
1, 181281, Note_on_c, 0, 98, 113
1, 181281, Note_on_c, 0, 55, 102
1, 181281, Note_on_c, 0, 61, 93
1, 181281, Note_on_c, 0, 65, 104
1, 181281, Note_on_c, 1, 33, 75
1, 181523, Note_on_c, 9, 51, 0
1, 181553, Control_c, 0, 64, 127
1, 181561, Note_on_c, 1, 33, 0
1, 181619, Note_on_c, 9, 51, 75
1, 181623, Note_on_c, 9, 44, 106
1, 181641, Note_on_c, 1, 36, 71
1, 181673, Note_on_c, 0, 103, 0
1, 181709, Note_on_c, 0, 55, 0
1, 181713, Note_on_c, 0, 98, 0
1, 181721, Note_on_c, 0, 65, 0
1, 181729, Note_on_c, 0, 91, 0
1, 181745, Note_on_c, 9, 44, 0
1, 181769, Note_on_c, 0, 61, 0
1, 181907, Note_on_c, 9, 51, 0
1, 182003, Note_on_c, 9, 51, 59
1, 182029, Note_on_c, 1, 36, 0
1, 182033, Control_c, 0, 64, 0
1, 182033, Note_on_c, 1, 37, 58
1, 182041, Note_on_c, 0, 100, 122
1, 182053, Note_on_c, 0, 88, 84
1, 182053, Note_on_c, 0, 95, 92
1, 182065, Note_on_c, 0, 61, 97
1, 182065, Note_on_c, 0, 65, 107
1, 182065, Note_on_c, 0, 55, 98
1, 182065, Note_on_c, 0, 97, 66
1, 182065, Note_on_c, 0, 89, 81
1, 182105, Note_on_c, 0, 97, 0
1, 182109, Note_on_c, 0, 89, 0
1, 182249, Note_on_c, 9, 35, 31
1, 182289, Note_on_c, 9, 35, 0
1, 182295, Note_on_c, 9, 51, 0
1, 182297, Note_on_c, 1, 37, 0
1, 182305, Control_c, 0, 64, 127
1, 182385, Note_on_c, 1, 37, 58
1, 182387, Note_on_c, 9, 51, 103
1, 182391, Note_on_c, 9, 44, 103
1, 182401, Note_on_c, 9, 40, 19
1, 182421, Note_on_c, 0, 100, 0
1, 182423, Note_on_c, 9, 40, 0
1, 182457, Note_on_c, 0, 95, 0
1, 182501, Note_on_c, 0, 55, 0
1, 182503, Note_on_c, 9, 44, 0
1, 182515, Note_on_c, 9, 40, 32
1, 182517, Note_on_c, 0, 65, 0
1, 182521, Note_on_c, 0, 88, 0
1, 182537, Note_on_c, 9, 40, 0
1, 182585, Note_on_c, 9, 51, 0
1, 182633, Note_on_c, 0, 61, 0
1, 182643, Note_on_c, 9, 51, 57
1, 182659, Note_on_c, 9, 35, 33
1, 182695, Note_on_c, 9, 35, 0
1, 182711, Note_on_c, 9, 51, 0
1, 182733, Note_on_c, 1, 37, 0
1, 182769, Control_c, 0, 64, 24
1, 182771, Note_on_c, 9, 51, 73
1, 182777, Control_c, 0, 64, 0
1, 182777, Note_on_c, 9, 40, 31
1, 182789, Note_on_c, 1, 38, 62
1, 182805, Note_on_c, 0, 92, 68
1, 182813, Note_on_c, 0, 96, 75
1, 182817, Note_on_c, 9, 40, 0
1, 182825, Note_on_c, 0, 64, 66
1, 182825, Note_on_c, 0, 54, 61
1, 182825, Note_on_c, 0, 84, 60
1, 182841, Note_on_c, 0, 60, 61
1, 182897, Note_on_c, 9, 40, 31
1, 182919, Note_on_c, 9, 40, 0
1, 183027, Note_on_c, 9, 35, 42
1, 183053, Note_on_c, 9, 35, 0
1, 183053, Note_on_c, 0, 92, 0
1, 183053, Note_on_c, 0, 93, 50
1, 183073, Control_c, 0, 64, 127
1, 183081, Note_on_c, 1, 34, 41
1, 183091, Note_on_c, 9, 51, 0
1, 183133, Note_on_c, 0, 93, 0
1, 183137, Note_on_c, 1, 38, 0
1, 183141, Note_on_c, 1, 45, 60
1, 183143, Note_on_c, 9, 40, 29
1, 183155, Note_on_c, 9, 51, 52
1, 183159, Note_on_c, 9, 44, 105
1, 183175, Note_on_c, 9, 40, 0
1, 183177, Note_on_c, 0, 96, 0
1, 183189, Note_on_c, 1, 34, 0
1, 183225, Note_on_c, 0, 60, 0
1, 183229, Note_on_c, 0, 84, 0
1, 183253, Note_on_c, 0, 64, 0
1, 183281, Note_on_c, 0, 54, 0
1, 183297, Note_on_c, 9, 44, 0
1, 183459, Note_on_c, 9, 51, 0
1, 183493, Note_on_c, 1, 45, 0
1, 183537, Control_c, 0, 64, 0
1, 183539, Note_on_c, 9, 51, 68
1, 183545, Note_on_c, 1, 48, 61
1, 183565, Note_on_c, 0, 64, 50
1, 183565, Note_on_c, 0, 93, 51
1, 183573, Note_on_c, 0, 54, 46
1, 183577, Note_on_c, 0, 81, 41
1, 183585, Note_on_c, 0, 89, 58
1, 183601, Note_on_c, 0, 60, 51
1, 183793, Control_c, 0, 64, 127
1, 183801, Note_on_c, 9, 35, 36
1, 183831, Note_on_c, 9, 51, 0
1, 183837, Note_on_c, 9, 35, 0
1, 183897, Note_on_c, 0, 60, 0
1, 183921, Note_on_c, 0, 93, 0
1, 183923, Note_on_c, 9, 51, 63
1, 183925, Note_on_c, 0, 64, 0
1, 183925, Note_on_c, 1, 42, 55
1, 183927, Note_on_c, 9, 44, 117
1, 183945, Note_on_c, 0, 81, 0
1, 183949, Note_on_c, 1, 48, 0
1, 183961, Note_on_c, 0, 89, 0
1, 184033, Note_on_c, 0, 54, 0
1, 184055, Note_on_c, 9, 35, 50
1, 184077, Note_on_c, 9, 35, 0
1, 184087, Note_on_c, 9, 44, 0
1, 184129, Control_c, 0, 64, 0
1, 184177, Note_on_c, 9, 35, 70
1, 184197, Note_on_c, 0, 89, 83
1, 184209, Note_on_c, 0, 63, 62
1, 184217, Note_on_c, 0, 59, 60
1, 184227, Note_on_c, 9, 51, 0
1, 184253, Note_on_c, 0, 53, 44
1, 184265, Note_on_c, 9, 35, 0
1, 184297, Note_on_c, 1, 42, 0
1, 184307, Note_on_c, 9, 51, 87
1, 184317, Note_on_c, 1, 43, 58
1, 184323, Note_on_c, 0, 89, 0
1, 184323, Note_on_c, 9, 35, 38
1, 184361, Note_on_c, 9, 35, 0
1, 184557, Note_on_c, 0, 87, 92
1, 184617, Note_on_c, 9, 51, 0
1, 184641, Note_on_c, 0, 63, 0
1, 184649, Note_on_c, 0, 87, 0
1, 184653, Note_on_c, 1, 42, 28
1, 184681, Note_on_c, 1, 53, 74
1, 184691, Note_on_c, 9, 51, 59
1, 184695, Note_on_c, 9, 44, 117
1, 184721, Note_on_c, 1, 42, 0
1, 184721, Note_on_c, 0, 88, 81
1, 184749, Note_on_c, 1, 43, 0
1, 184841, Note_on_c, 0, 59, 0
1, 184865, Note_on_c, 9, 44, 0
1, 184873, Note_on_c, 9, 51, 0
1, 184885, Note_on_c, 0, 88, 0
1, 184929, Note_on_c, 0, 84, 83
1, 184947, Note_on_c, 0, 63, 58
1, 184947, Note_on_c, 9, 51, 68
1, 184993, Note_on_c, 0, 59, 43
1, 185009, Note_on_c, 0, 63, 0
1, 185015, Note_on_c, 9, 51, 0
1, 185041, Note_on_c, 0, 84, 0
1, 185041, Note_on_c, 1, 53, 0
1, 185075, Note_on_c, 0, 59, 0
1, 185075, Note_on_c, 9, 51, 61
1, 185085, Note_on_c, 1, 52, 66
1, 185101, Note_on_c, 0, 79, 64
1, 185213, Note_on_c, 0, 79, 0
1, 185281, Note_on_c, 0, 53, 0
1, 185285, Note_on_c, 0, 77, 83
1, 185347, Note_on_c, 9, 34, 26
1, 185379, Note_on_c, 9, 51, 0
1, 185393, Note_on_c, 1, 47, 41
1, 185401, Note_on_c, 1, 52, 0
1, 185425, Note_on_c, 0, 77, 0
1, 185433, Note_on_c, 9, 34, 0
1, 185437, Note_on_c, 1, 47, 0
1, 185445, Note_on_c, 0, 76, 56
1, 185459, Note_on_c, 9, 51, 75
1, 185463, Note_on_c, 9, 44, 110
1, 185473, Note_on_c, 1, 50, 55
1, 185495, Note_on_c, 9, 35, 40
1, 185513, Note_on_c, 0, 76, 0
1, 185549, Note_on_c, 9, 35, 0
1, 185655, Note_on_c, 9, 44, 0
1, 185693, Note_on_c, 0, 72, 44
1, 185699, Note_on_c, 9, 51, 0
1, 185753, Note_on_c, 0, 72, 0
1, 185753, Note_on_c, 0, 57, 50
1, 185809, Note_on_c, 0, 57, 0
1, 185813, Note_on_c, 1, 50, 0
1, 185817, Note_on_c, 0, 75, 76
1, 185843, Note_on_c, 9, 51, 87
1, 185857, Note_on_c, 1, 48, 63
1, 185933, Note_on_c, 0, 75, 0
1, 186065, Note_on_c, 0, 76, 78
1, 186103, Note_on_c, 9, 51, 0
1, 186173, Note_on_c, 0, 76, 0
1, 186221, Note_on_c, 0, 77, 62
1, 186225, Note_on_c, 1, 48, 0
1, 186227, Note_on_c, 9, 51, 80
1, 186231, Note_on_c, 9, 44, 106
1, 186241, Note_on_c, 1, 42, 61
1, 186353, Note_on_c, 0, 77, 0
1, 186417, Note_on_c, 9, 44, 0
1, 186445, Note_on_c, 0, 78, 70
1, 186457, Note_on_c, 9, 51, 0
1, 186483, Note_on_c, 9, 59, 94
1, 186489, Note_on_c, 0, 55, 64
1, 186489, Note_on_c, 0, 54, 58
1, 186503, Note_on_c, 9, 35, 36
1, 186541, Note_on_c, 9, 35, 0
1, 186565, Note_on_c, 0, 78, 0
1, 186579, Note_on_c, 9, 59, 0
1, 186585, Note_on_c, 1, 42, 0
1, 186611, Note_on_c, 9, 51, 61
1, 186621, Note_on_c, 0, 54, 0
1, 186629, Note_on_c, 1, 43, 72
1, 186641, Note_on_c, 0, 79, 45
1, 186641, Note_on_c, 9, 35, 31
1, 186681, Note_on_c, 9, 35, 0
1, 186721, Note_on_c, 0, 79, 0
1, 186869, Note_on_c, 0, 55, 0
1, 186921, Note_on_c, 9, 51, 0
1, 186969, Note_on_c, 1, 43, 0
1, 186985, Note_on_c, 0, 43, 61
1, 186993, Note_on_c, 0, 76, 70
1, 186995, Note_on_c, 9, 51, 68
1, 186999, Note_on_c, 9, 44, 110
1, 187005, Note_on_c, 1, 39, 83
1, 187025, Note_on_c, 0, 43, 0
1, 187159, Note_on_c, 9, 44, 0
1, 187193, Note_on_c, 0, 76, 0
1, 187249, Note_on_c, 9, 35, 38
1, 187255, Note_on_c, 9, 51, 0
1, 187283, Note_on_c, 9, 35, 0
1, 187349, Note_on_c, 1, 39, 0
1, 187379, Note_on_c, 9, 51, 77
1, 187389, Note_on_c, 0, 72, 63
1, 187393, Note_on_c, 1, 40, 74
1, 187635, Note_on_c, 9, 51, 0
1, 187669, Note_on_c, 0, 72, 0
1, 187753, Note_on_c, 1, 40, 0
1, 187763, Note_on_c, 9, 51, 64
1, 187767, Note_on_c, 9, 44, 92
1, 187773, Note_on_c, 0, 67, 50
1, 187785, Note_on_c, 1, 36, 69
1, 187927, Note_on_c, 9, 44, 0
1, 188003, Note_on_c, 9, 51, 0
1, 188023, Note_on_c, 9, 35, 38
1, 188049, Note_on_c, 0, 67, 0
1, 188055, Note_on_c, 9, 35, 0
1, 188109, Note_on_c, 0, 57, 47
1, 188129, Note_on_c, 1, 36, 0
1, 188145, Note_on_c, 9, 51, 78
1, 188161, Note_on_c, 0, 57, 0
1, 188169, Note_on_c, 0, 65, 56
1, 188181, Note_on_c, 1, 38, 59
1, 188467, Note_on_c, 9, 51, 0
1, 188531, Note_on_c, 9, 51, 64
1, 188535, Note_on_c, 9, 44, 113
1, 188553, Note_on_c, 0, 65, 0
1, 188561, Note_on_c, 1, 37, 71
1, 188581, Note_on_c, 0, 64, 58
1, 188601, Note_on_c, 1, 38, 0
1, 188695, Note_on_c, 9, 44, 0
1, 188819, Note_on_c, 9, 51, 0
1, 188915, Note_on_c, 9, 51, 68
1, 188941, Note_on_c, 1, 38, 66
1, 188953, Note_on_c, 1, 37, 0
1, 188985, Note_on_c, 0, 64, 0
1, 188993, Note_on_c, 0, 62, 55
1, 189171, Note_on_c, 9, 53, 85
1, 189175, Note_on_c, 9, 51, 0
1, 189237, Note_on_c, 1, 37, 49
1, 189271, Note_on_c, 9, 53, 0
1, 189299, Note_on_c, 9, 51, 64
1, 189301, Note_on_c, 1, 38, 0
1, 189303, Note_on_c, 9, 44, 108
1, 189321, Note_on_c, 1, 45, 70
1, 189377, Note_on_c, 1, 37, 0
1, 189457, Note_on_c, 9, 44, 0
1, 189521, Note_on_c, 0, 62, 0
1, 189569, Note_on_c, 9, 35, 42
1, 189609, Note_on_c, 9, 51, 0
1, 189657, Note_on_c, 9, 35, 0
1, 189665, Note_on_c, 1, 45, 0
1, 189683, Note_on_c, 9, 51, 68
1, 189701, Note_on_c, 1, 52, 71
1, 189705, Note_on_c, 9, 35, 38
1, 189889, Note_on_c, 9, 35, 0
1, 189959, Note_on_c, 9, 51, 0
1, 189961, Note_on_c, 9, 35, 33
1, 189989, Note_on_c, 1, 52, 0
1, 189993, Note_on_c, 9, 35, 0
1, 190061, Note_on_c, 1, 51, 66
1, 190067, Note_on_c, 9, 51, 80
1, 190071, Note_on_c, 9, 46, 57
1, 190117, Note_on_c, 0, 65, 64
1, 190129, Note_on_c, 9, 46, 0
1, 190129, Note_on_c, 0, 57, 60
1, 190137, Note_on_c, 0, 50, 54
1, 190149, Note_on_c, 0, 60, 61
1, 190307, Note_on_c, 9, 51, 0
1, 190323, Note_on_c, 9, 51, 54
1, 190381, Note_on_c, 1, 51, 0
1, 190387, Note_on_c, 9, 51, 0
1, 190441, Note_on_c, 1, 50, 61
1, 190451, Note_on_c, 9, 51, 101
1, 190521, Note_on_c, 0, 65, 0
1, 190569, Note_on_c, 0, 57, 0
1, 190577, Note_on_c, 0, 60, 0
1, 190605, Control_c, 0, 64, 127
1, 190713, Control_c, 0, 64, 0
1, 190729, Note_on_c, 0, 66, 73
1, 190745, Note_on_c, 0, 58, 62
1, 190749, Note_on_c, 0, 50, 0
1, 190757, Note_on_c, 0, 51, 64
1, 190765, Note_on_c, 0, 61, 64
1, 190771, Note_on_c, 9, 51, 0
1, 190835, Note_on_c, 9, 51, 80
1, 190839, Note_on_c, 9, 44, 108
1, 190841, Note_on_c, 1, 45, 61
1, 190961, Note_on_c, 9, 44, 0
1, 191079, Note_on_c, 9, 35, 45
1, 191081, Note_on_c, 1, 50, 0
1, 191081, Note_on_c, 9, 51, 0
1, 191091, Note_on_c, 9, 51, 56
1, 191113, Note_on_c, 0, 66, 0
1, 191129, Note_on_c, 0, 58, 0
1, 191133, Note_on_c, 0, 51, 0
1, 191145, Note_on_c, 0, 61, 0
1, 191171, Note_on_c, 9, 51, 0
1, 191175, Note_on_c, 9, 35, 0
1, 191217, Note_on_c, 9, 35, 26
1, 191219, Note_on_c, 9, 51, 66
1, 191221, Note_on_c, 1, 41, 68
1, 191233, Note_on_c, 0, 52, 60
1, 191249, Note_on_c, 0, 67, 60
1, 191257, Note_on_c, 1, 45, 0
1, 191269, Note_on_c, 0, 59, 33
1, 191273, Note_on_c, 0, 62, 58
1, 191277, Note_on_c, 0, 52, 0
1, 191329, Note_on_c, 9, 35, 0
1, 191459, Note_on_c, 9, 51, 0
1, 191473, Note_on_c, 9, 51, 43
1, 191539, Note_on_c, 9, 51, 0
1, 191589, Note_on_c, 1, 41, 0
1, 191601, Note_on_c, 1, 42, 72
1, 191603, Note_on_c, 9, 51, 106
1, 191607, Note_on_c, 9, 44, 117
1, 191617, Note_on_c, 0, 31, 81
1, 191617, Note_on_c, 0, 43, 74
1, 191653, Note_on_c, 0, 62, 0
1, 191689, Note_on_c, 0, 67, 0
1, 191725, Note_on_c, 0, 59, 0
1, 191735, Note_on_c, 9, 44, 0
1, 191829, Control_c, 0, 64, 127
1, 191907, Note_on_c, 9, 51, 0
1, 191921, Note_on_c, 0, 31, 0
1, 191937, Note_on_c, 1, 42, 0
1, 191985, Note_on_c, 1, 43, 72
1, 191987, Note_on_c, 9, 51, 85
1, 192009, Note_on_c, 0, 43, 0
1, 192115, Note_on_c, 9, 31, 42
1, 192157, Note_on_c, 9, 31, 0
1, 192201, Note_on_c, 9, 51, 0
1, 192365, Note_on_c, 1, 32, 66
1, 192371, Note_on_c, 9, 51, 64
1, 192375, Note_on_c, 9, 44, 110
1, 192377, Note_on_c, 9, 31, 31
1, 192419, Note_on_c, 9, 31, 0
1, 192481, Note_on_c, 9, 44, 0
1, 192627, Note_on_c, 9, 51, 43
1, 192631, Note_on_c, 9, 51, 0
1, 192631, Note_on_c, 9, 35, 57
1, 192663, Note_on_c, 9, 35, 0
1, 192681, Note_on_c, 1, 32, 0
1, 192705, Control_c, 0, 64, 0
1, 192711, Note_on_c, 9, 51, 0
1, 192755, Note_on_c, 9, 51, 92
1, 192757, Note_on_c, 1, 31, 75
1, 192781, Note_on_c, 0, 65, 60
1, 192785, Note_on_c, 0, 50, 53
1, 192793, Note_on_c, 0, 57, 60
1, 192801, Note_on_c, 1, 43, 0
1, 192805, Note_on_c, 0, 60, 55
1, 192853, Note_on_c, 0, 65, 0
1, 192861, Note_on_c, 0, 50, 0
1, 192877, Note_on_c, 0, 57, 0
1, 192897, Note_on_c, 0, 60, 0
1, 192897, Note_on_c, 9, 31, 57
1, 192935, Note_on_c, 9, 31, 0
1, 193075, Note_on_c, 9, 51, 0
1, 193129, Note_on_c, 1, 31, 0
1, 193129, Note_on_c, 9, 31, 57
1, 193139, Note_on_c, 9, 51, 59
1, 193143, Note_on_c, 9, 44, 113
1, 193153, Note_on_c, 1, 43, 89
1, 193169, Note_on_c, 0, 66, 62
1, 193181, Note_on_c, 0, 51, 51
1, 193187, Note_on_c, 9, 31, 0
1, 193187, Note_on_c, 0, 58, 46
1, 193197, Note_on_c, 0, 61, 54
1, 193255, Note_on_c, 9, 44, 0
1, 193301, Note_on_c, 0, 58, 0
1, 193337, Note_on_c, 0, 66, 0
1, 193341, Note_on_c, 0, 61, 0
1, 193345, Note_on_c, 0, 51, 0
1, 193399, Note_on_c, 9, 35, 40
1, 193411, Note_on_c, 9, 51, 0
1, 193469, Note_on_c, 9, 35, 0
1, 193523, Note_on_c, 9, 51, 89
1, 193529, Note_on_c, 1, 32, 63
1, 193543, Note_on_c, 9, 35, 36
1, 193569, Note_on_c, 0, 67, 58
1, 193585, Note_on_c, 0, 52, 56
1, 193597, Note_on_c, 0, 59, 47
1, 193605, Note_on_c, 0, 62, 50
1, 193713, Note_on_c, 9, 35, 0
1, 193777, Note_on_c, 1, 32, 0
1, 193779, Note_on_c, 9, 35, 47
1, 193789, Control_c, 0, 64, 127
1, 193805, Note_on_c, 9, 35, 0
1, 193841, Note_on_c, 0, 59, 0
1, 193841, Note_on_c, 0, 67, 0
1, 193849, Note_on_c, 9, 51, 0
1, 193857, Note_on_c, 0, 52, 0
1, 193881, Note_on_c, 0, 62, 0
1, 193907, Note_on_c, 9, 51, 56
1, 193911, Note_on_c, 9, 44, 119
1, 193913, Note_on_c, 1, 31, 79
1, 193997, Note_on_c, 1, 43, 0
1, 194017, Note_on_c, 9, 44, 0
1, 194163, Note_on_c, 9, 51, 54
1, 194167, Note_on_c, 9, 51, 0
1, 194205, Control_c, 0, 64, 0
1, 194259, Note_on_c, 9, 51, 0
1, 194261, Note_on_c, 1, 31, 0
1, 194291, Note_on_c, 9, 51, 75
1, 194305, Note_on_c, 1, 34, 54
1, 194337, Note_on_c, 0, 69, 55
1, 194341, Note_on_c, 1, 34, 0
1, 194345, Note_on_c, 0, 60, 52
1, 194353, Note_on_c, 0, 62, 50
1, 194361, Note_on_c, 0, 53, 47
1, 194369, Note_on_c, 0, 65, 32
1, 194405, Note_on_c, 0, 62, 0
1, 194421, Note_on_c, 0, 53, 0
1, 194429, Note_on_c, 0, 60, 0
1, 194429, Note_on_c, 0, 65, 0
1, 194437, Note_on_c, 0, 69, 0
1, 194517, Note_on_c, 1, 34, 57
1, 194531, Note_on_c, 9, 32, 40
1, 194553, Note_on_c, 9, 32, 0
1, 194579, Note_on_c, 9, 51, 0
1, 194621, Note_on_c, 1, 34, 0
1, 194669, Note_on_c, 1, 35, 69
1, 194675, Note_on_c, 9, 51, 82
1, 194679, Note_on_c, 9, 44, 113
1, 194709, Note_on_c, 0, 71, 62
1, 194745, Note_on_c, 0, 53, 28
1, 194769, Note_on_c, 9, 44, 0
1, 194793, Note_on_c, 0, 53, 0
1, 194821, Note_on_c, 0, 71, 0
1, 194921, Note_on_c, 9, 51, 0
1, 194931, Note_on_c, 9, 51, 49
1, 195009, Note_on_c, 1, 35, 0
1, 195015, Note_on_c, 9, 51, 0
1, 195049, Note_on_c, 1, 36, 66
1, 195059, Note_on_c, 9, 51, 98
1, 195089, Note_on_c, 0, 59, 62
1, 195097, Note_on_c, 0, 74, 58
1, 195113, Note_on_c, 0, 64, 48
1, 195117, Note_on_c, 0, 67, 51
1, 195137, Note_on_c, 0, 71, 41
1, 195315, Note_on_c, 9, 35, 42
1, 195329, Note_on_c, 0, 71, 0
1, 195353, Note_on_c, 9, 35, 0
1, 195365, Note_on_c, 0, 74, 0
1, 195365, Note_on_c, 0, 67, 0
1, 195385, Note_on_c, 9, 51, 0
1, 195393, Control_c, 0, 64, 127
1, 195393, Note_on_c, 1, 34, 34
1, 195413, Note_on_c, 1, 36, 0
1, 195417, Note_on_c, 1, 45, 66
1, 195433, Note_on_c, 0, 64, 0
1, 195443, Note_on_c, 9, 35, 33
1, 195443, Note_on_c, 9, 51, 73
1, 195447, Note_on_c, 9, 44, 122
1, 195469, Note_on_c, 1, 34, 0
1, 195543, Note_on_c, 9, 44, 0
1, 195635, Note_on_c, 9, 35, 0
1, 195665, Note_on_c, 0, 59, 0
1, 195705, Note_on_c, 0, 55, 51
1, 195709, Note_on_c, 0, 62, 55
1, 195713, Note_on_c, 0, 71, 53
1, 195729, Note_on_c, 0, 64, 56
1, 195733, Note_on_c, 0, 67, 49
1, 195745, Note_on_c, 0, 55, 0
1, 195747, Note_on_c, 9, 51, 0
1, 195789, Note_on_c, 1, 45, 0
1, 195821, Note_on_c, 1, 43, 63
1, 195827, Note_on_c, 9, 51, 64
1, 195971, Note_on_c, 9, 35, 42
1, 196009, Note_on_c, 9, 35, 0
1, 196087, Note_on_c, 9, 35, 33
1, 196105, Note_on_c, 0, 64, 0
1, 196117, Note_on_c, 0, 62, 0
1, 196121, Note_on_c, 9, 35, 0
1, 196133, Note_on_c, 0, 67, 0
1, 196145, Note_on_c, 0, 71, 0
1, 196153, Note_on_c, 9, 51, 0
1, 196165, Control_c, 0, 64, 0
1, 196185, Note_on_c, 1, 43, 0
1, 196211, Note_on_c, 9, 51, 78
1, 196213, Note_on_c, 0, 43, 70
1, 196215, Note_on_c, 9, 44, 117
1, 196217, Note_on_c, 1, 39, 64
1, 196217, Note_on_c, 0, 31, 68
1, 196217, Note_on_c, 9, 35, 52
1, 196305, Note_on_c, 9, 44, 0
1, 196377, Note_on_c, 9, 35, 0
1, 196455, Note_on_c, 9, 35, 59
1, 196487, Note_on_c, 9, 35, 0
1, 196561, Note_on_c, 1, 39, 0
1, 196563, Note_on_c, 9, 51, 0
1, 196595, Note_on_c, 9, 51, 70
1, 196613, Note_on_c, 1, 40, 59
1, 196653, Note_on_c, 0, 31, 0
1, 196661, Note_on_c, 0, 43, 0
1, 196821, Note_on_c, 0, 43, 65
1, 196829, Note_on_c, 0, 31, 60
1, 196931, Note_on_c, 9, 51, 0
1, 196961, Note_on_c, 1, 40, 0
1, 196979, Note_on_c, 9, 51, 84
1, 196983, Note_on_c, 9, 44, 120
1, 196993, Note_on_c, 1, 31, 73
1, 197001, Note_on_c, 0, 43, 0
1, 197045, Note_on_c, 0, 31, 0
1, 197069, Note_on_c, 9, 44, 0
1, 197085, Control_c, 0, 64, 127
1, 197177, Note_on_c, 9, 51, 0
1, 197235, Note_on_c, 9, 51, 84
1, 197255, Note_on_c, 9, 35, 68
1, 197297, Control_c, 0, 64, 0
1, 197303, Note_on_c, 9, 35, 0
1, 197315, Note_on_c, 9, 51, 0
1, 197357, Note_on_c, 1, 31, 0
1, 197363, Note_on_c, 9, 51, 73
1, 197377, Control_c, 1, 94, 0
1, 197377, Control_c, 1, 74, 64
1, 197377, Control_c, 1, 101, 0
1, 197378, Control_c, 1, 100, 1
1, 197379, Control_c, 1, 6, 64
1, 197380, Control_c, 1, 38, 0
1, 197380, Control_c, 1, 71, 64
1, 197380, Control_c, 1, 11, 127
1, 197393, Note_on_c, 0, 31, 55
1, 197393, Note_on_c, 1, 33, 60
1, 197409, Note_on_c, 0, 43, 50
1, 197533, Control_c, 0, 64, 127
1, 197565, Note_on_c, 0, 31, 0
1, 197673, Note_on_c, 0, 43, 0
1, 197687, Note_on_c, 9, 51, 0
1, 197747, Note_on_c, 9, 51, 103
1, 197751, Note_on_c, 9, 44, 112
1, 197769, Note_on_c, 1, 33, 0
1, 197773, Note_on_c, 1, 35, 74
1, 197857, Note_on_c, 9, 44, 0
1, 197957, Note_on_c, 1, 35, 0
1, 197971, Note_on_c, 9, 51, 0
1, 198003, Note_on_c, 9, 51, 63
1, 198029, Note_on_c, 0, 43, 47
1, 198077, Control_c, 0, 64, 0
1, 198081, Note_on_c, 0, 43, 0
1, 198087, Note_on_c, 9, 51, 0
1, 198131, Note_on_c, 9, 51, 56
1, 198145, Note_on_c, 1, 36, 63
1, 198153, Note_on_c, 9, 35, 28
1, 198161, Note_on_c, 0, 48, 53
1, 198193, Note_on_c, 9, 35, 0
1, 198193, Note_on_c, 0, 64, 45
1, 198269, Note_on_c, 0, 48, 0
1, 198453, Note_on_c, 0, 64, 0
1, 198467, Note_on_c, 9, 51, 0
1, 198485, Note_on_c, 1, 36, 0
1, 198485, Note_on_c, 0, 67, 57
1, 198513, Note_on_c, 9, 51, 92
1, 198519, Note_on_c, 9, 44, 120
1, 198537, Note_on_c, 0, 67, 0
1, 198549, Note_on_c, 1, 31, 41
1, 198615, Note_on_c, 9, 44, 0
1, 198729, Note_on_c, 9, 51, 0
1, 198771, Note_on_c, 9, 51, 59
1, 198777, Note_on_c, 9, 35, 29
1, 198809, Note_on_c, 9, 35, 0
1, 198851, Note_on_c, 9, 51, 0
1, 198861, Note_on_c, 1, 31, 0
1, 198897, Note_on_c, 9, 51, 68
1, 198913, Note_on_c, 1, 28, 44
1, 199223, Note_on_c, 9, 51, 0
1, 199277, Note_on_c, 1, 28, 0
1, 199283, Note_on_c, 9, 51, 92
1, 199287, Note_on_c, 9, 44, 119
1, 199309, Note_on_c, 1, 29, 39
1, 199373, Note_on_c, 0, 76, 70
1, 199425, Note_on_c, 9, 44, 0
1, 199491, Note_on_c, 9, 51, 0
1, 199539, Note_on_c, 9, 51, 52
1, 199541, Note_on_c, 1, 29, 0
1, 199565, Note_on_c, 1, 27, 50
1, 199607, Note_on_c, 9, 51, 0
1, 199621, Note_on_c, 0, 76, 0
1, 199621, Note_on_c, 0, 67, 73
1, 199645, Note_on_c, 0, 79, 66
1, 199665, Note_on_c, 1, 27, 0
1, 199667, Note_on_c, 9, 51, 66
1, 199669, Note_on_c, 1, 30, 57
1, 199699, Note_on_c, 9, 35, 22
1, 199705, Note_on_c, 0, 79, 0
1, 199733, Note_on_c, 0, 67, 0
1, 199735, Note_on_c, 9, 35, 0
1, 199987, Note_on_c, 9, 51, 0
1, 199993, Note_on_c, 1, 27, 39
1, 200051, Note_on_c, 9, 51, 61
1, 200055, Note_on_c, 9, 44, 112
1, 200061, Note_on_c, 1, 27, 0
1, 200073, Note_on_c, 1, 30, 0
1, 200077, Note_on_c, 1, 31, 46
1, 200183, Note_on_c, 9, 44, 0
1, 200217, Note_on_c, 9, 51, 0
1, 200307, Note_on_c, 9, 51, 49
1, 200327, Note_on_c, 9, 35, 29
1, 200365, Note_on_c, 9, 35, 0
1, 200441, Note_on_c, 1, 32, 57
1, 200449, Note_on_c, 1, 31, 0
1, 200473, Note_on_c, 0, 88, 55
1, 200473, Note_on_c, 0, 76, 49
1, 200561, Note_on_c, 9, 34, 21
1, 200601, Note_on_c, 9, 34, 0
1, 200647, Note_on_c, 9, 51, 0
1, 200681, Note_on_c, 0, 76, 0
1, 200681, Note_on_c, 9, 35, 42
1, 200709, Note_on_c, 0, 88, 0
1, 200721, Note_on_c, 9, 35, 0
1, 200737, Note_on_c, 0, 91, 68
1, 200757, Note_on_c, 0, 79, 57
1, 200789, Note_on_c, 0, 91, 0
1, 200793, Note_on_c, 0, 79, 0
1, 200809, Note_on_c, 9, 34, 20
1, 200819, Note_on_c, 9, 51, 119
1, 200823, Note_on_c, 9, 44, 113
1, 200841, Note_on_c, 1, 32, 0
1, 200845, Note_on_c, 1, 33, 52
1, 200873, Note_on_c, 9, 34, 0
1, 200929, Note_on_c, 9, 44, 0
1, 200995, Note_on_c, 9, 51, 0
1, 201075, Note_on_c, 9, 51, 66
1, 201123, Note_on_c, 9, 51, 0
1, 201137, Note_on_c, 1, 32, 43
1, 201149, Note_on_c, 1, 33, 0
1, 201185, Note_on_c, 1, 32, 0
1, 201203, Note_on_c, 9, 51, 77
1, 201229, Note_on_c, 1, 38, 56
1, 201459, Note_on_c, 9, 51, 0
1, 201587, Note_on_c, 9, 51, 124
1, 201591, Note_on_c, 9, 44, 106
1, 201597, Note_on_c, 0, 65, 60
1, 201605, Note_on_c, 0, 53, 52
1, 201617, Note_on_c, 1, 45, 82
1, 201693, Note_on_c, 1, 38, 0
1, 201713, Note_on_c, 9, 44, 0
1, 201763, Note_on_c, 9, 51, 0
1, 201793, Note_on_c, 0, 53, 0
1, 201801, Note_on_c, 0, 65, 0
1, 201843, Note_on_c, 9, 51, 103
1, 201853, Note_on_c, 0, 55, 60
1, 201853, Note_on_c, 0, 67, 58
1, 201893, Note_on_c, 0, 55, 0
1, 201895, Note_on_c, 9, 51, 0
1, 201897, Note_on_c, 0, 67, 0
1, 201909, Note_on_c, 1, 45, 0
1, 201925, Note_on_c, 1, 38, 48
1, 201971, Note_on_c, 9, 51, 75
1, 201981, Note_on_c, 1, 38, 0
1, 201987, Note_on_c, 9, 31, 70
1, 202005, Note_on_c, 1, 52, 77
1, 202019, Note_on_c, 9, 31, 0
1, 202057, Note_on_c, 1, 53, 31
1, 202067, Note_on_c, 9, 51, 0
1, 202195, Note_on_c, 9, 31, 87
1, 202227, Note_on_c, 9, 31, 0
1, 202227, Note_on_c, 9, 53, 127
1, 202293, Note_on_c, 1, 53, 0
1, 202295, Note_on_c, 9, 53, 0
1, 202301, Note_on_c, 1, 52, 0
1, 202329, Note_on_c, 1, 38, 42
1, 202355, Note_on_c, 9, 51, 52
1, 202359, Note_on_c, 9, 44, 108
1, 202369, Note_on_c, 1, 51, 63
1, 202377, Note_on_c, 1, 38, 0
1, 202467, Note_on_c, 9, 51, 0
1, 202473, Note_on_c, 9, 44, 0
1, 202513, Note_on_c, 9, 31, 77
1, 202553, Note_on_c, 9, 31, 0
1, 202611, Note_on_c, 9, 51, 127
1, 202611, Note_on_c, 9, 31, 71
1, 202643, Note_on_c, 9, 51, 0
1, 202661, Note_on_c, 0, 65, 46
1, 202669, Note_on_c, 9, 31, 0
1, 202713, Note_on_c, 1, 51, 0
1, 202729, Note_on_c, 9, 35, 59
1, 202739, Note_on_c, 9, 51, 96
1, 202753, Note_on_c, 0, 65, 0
1, 202765, Note_on_c, 1, 50, 68
1, 202785, Note_on_c, 0, 67, 58
1, 202825, Note_on_c, 0, 67, 0
1, 202873, Note_on_c, 9, 35, 0
1, 203011, Note_on_c, 9, 51, 0
1, 203025, Note_on_c, 1, 41, 68
1, 203061, Note_on_c, 1, 50, 0
1, 203123, Note_on_c, 9, 51, 78
1, 203127, Note_on_c, 9, 44, 105
1, 203133, Note_on_c, 1, 41, 0
1, 203137, Note_on_c, 1, 45, 72
1, 203239, Note_on_c, 9, 44, 0
1, 203395, Note_on_c, 9, 51, 0
1, 203457, Note_on_c, 1, 45, 0
1, 203501, Note_on_c, 1, 48, 68
1, 203507, Note_on_c, 9, 51, 61
1, 203521, Note_on_c, 0, 77, 62
1, 203533, Note_on_c, 0, 89, 67
1, 203745, Note_on_c, 0, 77, 0
1, 203753, Note_on_c, 1, 44, 66
1, 203761, Note_on_c, 0, 89, 0
1, 203781, Note_on_c, 0, 79, 49
1, 203781, Note_on_c, 0, 91, 62
1, 203799, Note_on_c, 9, 51, 0
1, 203817, Note_on_c, 1, 48, 0
1, 203829, Note_on_c, 0, 79, 0
1, 203837, Note_on_c, 0, 91, 0
1, 203853, Note_on_c, 1, 44, 0
1, 203891, Note_on_c, 9, 51, 47
1, 203895, Note_on_c, 9, 44, 112
1, 203897, Note_on_c, 1, 42, 54
1, 204017, Note_on_c, 9, 44, 0
1, 204083, Note_on_c, 9, 51, 0
1, 204147, Note_on_c, 9, 51, 127
1, 204221, Note_on_c, 1, 42, 0
1, 204231, Note_on_c, 9, 51, 0
1, 204275, Note_on_c, 9, 51, 85
1, 204281, Note_on_c, 1, 43, 56
1, 204403, Note_on_c, 9, 34, 28
1, 204455, Note_on_c, 9, 34, 0
1, 204497, Note_on_c, 0, 101, 78
1, 204529, Note_on_c, 9, 35, 45
1, 204537, Note_on_c, 0, 88, 33
1, 204541, Note_on_c, 0, 89, 41
1, 204561, Note_on_c, 9, 35, 0
1, 204573, Note_on_c, 9, 51, 0
1, 204605, Note_on_c, 0, 89, 0
1, 204621, Note_on_c, 1, 43, 0
1, 204625, Note_on_c, 0, 101, 0
1, 204641, Note_on_c, 0, 88, 0
1, 204659, Note_on_c, 9, 51, 84
1, 204659, Note_on_c, 9, 34, 23
1, 204663, Note_on_c, 9, 44, 108
1, 204673, Note_on_c, 1, 38, 56
1, 204697, Note_on_c, 0, 91, 33
1, 204705, Note_on_c, 0, 103, 67
1, 204733, Note_on_c, 9, 34, 0
1, 204759, Note_on_c, 9, 44, 0
1, 204805, Note_on_c, 0, 91, 0
1, 204813, Note_on_c, 0, 103, 0
1, 204905, Note_on_c, 9, 34, 23
1, 204931, Note_on_c, 9, 51, 0
1, 204977, Note_on_c, 9, 34, 0
1, 205025, Note_on_c, 1, 38, 0
1, 205043, Note_on_c, 9, 51, 59
1, 205057, Note_on_c, 1, 31, 76
1, 205065, Note_on_c, 9, 35, 33
1, 205107, Note_on_c, 9, 35, 0
1, 205273, Note_on_c, 9, 51, 0
1, 205299, Note_on_c, 9, 51, 35
1, 205305, Note_on_c, 9, 35, 75
1, 205351, Note_on_c, 9, 51, 0
1, 205373, Note_on_c, 9, 35, 0
1, 205409, Note_on_c, 1, 31, 0
1, 205427, Note_on_c, 9, 51, 99
1, 205431, Note_on_c, 9, 44, 101
1, 205437, Note_on_c, 1, 32, 81
1, 205537, Note_on_c, 9, 44, 0
1, 205673, Note_on_c, 9, 35, 38
1, 205705, Note_on_c, 9, 51, 0
1, 205729, Note_on_c, 9, 35, 0
1, 205773, Note_on_c, 1, 32, 0
1, 205809, Note_on_c, 1, 31, 72
1, 205811, Note_on_c, 9, 51, 120
1, 205827, Note_on_c, 9, 35, 31
1, 205837, Note_on_c, 0, 65, 73
1, 205845, Note_on_c, 0, 77, 90
1, 205869, Note_on_c, 9, 35, 0
1, 206005, Note_on_c, 0, 77, 0
1, 206013, Note_on_c, 0, 65, 0
1, 206089, Note_on_c, 0, 67, 53
1, 206105, Note_on_c, 0, 79, 58
1, 206119, Note_on_c, 9, 51, 0
1, 206161, Note_on_c, 1, 31, 0
1, 206169, Note_on_c, 0, 79, 0
1, 206173, Note_on_c, 0, 67, 0
1, 206193, Note_on_c, 1, 39, 75
1, 206195, Note_on_c, 9, 51, 59
1, 206199, Note_on_c, 9, 44, 99
1, 206297, Note_on_c, 9, 44, 0
1, 206421, Note_on_c, 0, 77, 66
1, 206425, Note_on_c, 9, 51, 0
1, 206449, Note_on_c, 0, 65, 50
1, 206451, Note_on_c, 9, 51, 59
1, 206455, Note_on_c, 9, 35, 47
1, 206497, Note_on_c, 0, 77, 0
1, 206503, Note_on_c, 9, 51, 0
1, 206505, Note_on_c, 9, 35, 0
1, 206517, Note_on_c, 0, 65, 0
1, 206529, Note_on_c, 1, 39, 0
1, 206553, Note_on_c, 1, 38, 60
1, 206579, Note_on_c, 9, 51, 64
1, 206593, Note_on_c, 0, 67, 48
1, 206625, Note_on_c, 0, 79, 47
1, 206689, Note_on_c, 0, 67, 0
1, 206817, Note_on_c, 1, 38, 0
1, 206825, Note_on_c, 0, 79, 0
1, 206845, Note_on_c, 1, 34, 74
1, 206871, Note_on_c, 9, 51, 0
1, 206941, Note_on_c, 1, 35, 81
1, 206945, Note_on_c, 1, 34, 0
1, 206949, Note_on_c, 0, 86, 83
1, 206963, Note_on_c, 9, 51, 113
1, 206967, Note_on_c, 9, 44, 112
1, 207001, Note_on_c, 0, 76, 56
1, 207025, Note_on_c, 0, 74, 40
1, 207079, Note_on_c, 9, 44, 0
1, 207181, Note_on_c, 0, 76, 0
1, 207187, Note_on_c, 9, 51, 0
1, 207193, Note_on_c, 0, 74, 0
1, 207209, Note_on_c, 9, 35, 52
1, 207219, Note_on_c, 9, 51, 64
1, 207229, Note_on_c, 0, 86, 0
1, 207277, Note_on_c, 9, 35, 0
1, 207289, Note_on_c, 9, 51, 0
1, 207337, Note_on_c, 0, 84, 70
1, 207337, Note_on_c, 1, 36, 63
1, 207345, Note_on_c, 1, 35, 0
1, 207345, Note_on_c, 0, 72, 50
1, 207347, Note_on_c, 9, 51, 91
1, 207397, Note_on_c, 0, 72, 0
1, 207453, Note_on_c, 0, 84, 0
1, 207637, Note_on_c, 1, 34, 60
1, 207641, Note_on_c, 9, 51, 0
1, 207693, Note_on_c, 1, 36, 0
1, 207731, Note_on_c, 9, 51, 99
1, 207735, Note_on_c, 9, 44, 112
1, 207737, Note_on_c, 1, 45, 94
1, 207777, Note_on_c, 1, 34, 0
1, 207847, Note_on_c, 9, 44, 0
1, 207961, Note_on_c, 0, 54, 51
1, 207989, Note_on_c, 0, 55, 67
1, 208025, Note_on_c, 0, 54, 0
1, 208035, Note_on_c, 9, 51, 0
1, 208115, Note_on_c, 9, 51, 77
1, 208129, Note_on_c, 1, 43, 67
1, 208193, Note_on_c, 1, 45, 0
1, 208387, Note_on_c, 9, 37, 50
1, 208403, Note_on_c, 9, 51, 0
1, 208467, Note_on_c, 9, 37, 0
1, 208499, Note_on_c, 9, 51, 89
1, 208501, Note_on_c, 1, 43, 0
1, 208503, Note_on_c, 9, 46, 21
1, 208509, Note_on_c, 0, 43, 56
1, 208513, Note_on_c, 1, 39, 78
1, 208535, Note_on_c, 9, 35, 24
1, 208583, Note_on_c, 9, 35, 0
1, 208613, Note_on_c, 0, 43, 0
1, 208625, Note_on_c, 9, 46, 0
1, 208707, Note_on_c, 9, 51, 0
1, 208755, Note_on_c, 9, 51, 68
1, 208761, Note_on_c, 9, 37, 59
1, 208823, Note_on_c, 9, 51, 0
1, 208867, Note_on_c, 9, 37, 0
1, 208877, Note_on_c, 1, 39, 0
1, 208883, Note_on_c, 9, 51, 96
1, 208889, Note_on_c, 0, 43, 64
1, 208905, Note_on_c, 1, 40, 61
1, 208905, Note_on_c, 9, 35, 28
1, 208957, Note_on_c, 9, 35, 0
1, 209045, Note_on_c, 0, 43, 0
1, 209191, Note_on_c, 9, 51, 0
1, 209213, Note_on_c, 0, 55, 0
1, 209253, Note_on_c, 1, 40, 0
1, 209267, Note_on_c, 9, 51, 91
1, 209269, Note_on_c, 1, 31, 78
1, 209271, Note_on_c, 9, 44, 117
1, 209415, Note_on_c, 9, 44, 0
1, 209513, Note_on_c, 0, 55, 61
1, 209513, Note_on_c, 0, 43, 55
1, 209545, Note_on_c, 9, 35, 28
1, 209585, Note_on_c, 9, 35, 0
1, 209593, Note_on_c, 9, 51, 0
1, 209651, Note_on_c, 9, 51, 80
1, 209665, Note_on_c, 1, 33, 71
1, 209669, Note_on_c, 1, 31, 0
1, 209877, Note_on_c, 1, 33, 0
1, 209913, Note_on_c, 1, 34, 73
1, 209949, Note_on_c, 0, 43, 0
1, 209955, Note_on_c, 9, 51, 0
1, 209993, Note_on_c, 1, 34, 0
1, 210035, Note_on_c, 9, 51, 78
1, 210039, Note_on_c, 9, 44, 119
1, 210041, Note_on_c, 1, 35, 73
1, 210129, Note_on_c, 9, 44, 0
1, 210291, Note_on_c, 9, 51, 68
1, 210295, Note_on_c, 9, 51, 0
1, 210297, Note_on_c, 9, 35, 35
1, 210329, Note_on_c, 9, 35, 0
1, 210359, Note_on_c, 9, 51, 0
1, 210381, Note_on_c, 0, 55, 0
1, 210419, Note_on_c, 9, 51, 73
1, 210429, Note_on_c, 0, 52, 60
1, 210433, Note_on_c, 1, 35, 0
1, 210437, Note_on_c, 1, 36, 63
1, 210547, Note_on_c, 9, 34, 28
1, 210599, Note_on_c, 9, 34, 0
1, 210673, Note_on_c, 9, 35, 45
1, 210705, Note_on_c, 9, 35, 0
1, 210733, Note_on_c, 1, 34, 67
1, 210743, Note_on_c, 9, 51, 0
1, 210757, Note_on_c, 0, 52, 0
1, 210785, Note_on_c, 1, 36, 0
1, 210803, Note_on_c, 9, 51, 84
1, 210803, Note_on_c, 9, 34, 23
1, 210807, Note_on_c, 9, 44, 108
1, 210825, Note_on_c, 1, 50, 99
1, 210829, Note_on_c, 0, 67, 102
1, 210833, Note_on_c, 1, 34, 0
1, 210877, Note_on_c, 9, 34, 0
1, 210903, Note_on_c, 9, 44, 0
1, 211049, Note_on_c, 9, 34, 23
1, 211075, Note_on_c, 9, 51, 0
1, 211121, Note_on_c, 9, 34, 0
1, 211187, Note_on_c, 9, 51, 59
1, 211193, Note_on_c, 0, 67, 0
1, 211201, Note_on_c, 1, 50, 0
1, 211209, Note_on_c, 9, 35, 33
1, 211213, Note_on_c, 1, 48, 68
1, 211251, Note_on_c, 9, 35, 0
1, 211417, Note_on_c, 9, 51, 0
1, 211443, Note_on_c, 9, 51, 35
1, 211449, Note_on_c, 9, 35, 75
1, 211461, Note_on_c, 0, 76, 99
1, 211495, Note_on_c, 9, 51, 0
1, 211517, Note_on_c, 9, 35, 0
1, 211571, Note_on_c, 9, 51, 99
1, 211575, Note_on_c, 9, 44, 101
1, 211577, Note_on_c, 1, 42, 68
1, 211609, Note_on_c, 1, 48, 0
1, 211681, Note_on_c, 9, 44, 0
1, 211817, Note_on_c, 9, 35, 38
1, 211849, Note_on_c, 9, 51, 0
1, 211873, Note_on_c, 9, 35, 0
1, 211897, Note_on_c, 0, 76, 0
1, 211953, Note_on_c, 1, 42, 0
1, 211955, Note_on_c, 9, 51, 120
1, 211971, Note_on_c, 9, 35, 31
1, 211977, Note_on_c, 1, 43, 63
1, 212013, Note_on_c, 9, 35, 0
1, 212033, Note_on_c, 0, 91, 126
1, 212263, Note_on_c, 9, 51, 0
1, 212339, Note_on_c, 9, 51, 59
1, 212343, Note_on_c, 9, 44, 99
1, 212353, Note_on_c, 1, 43, 0
1, 212373, Note_on_c, 1, 39, 68
1, 212385, Note_on_c, 0, 91, 0
1, 212441, Note_on_c, 9, 44, 0
1, 212569, Note_on_c, 9, 51, 0
1, 212595, Note_on_c, 9, 51, 59
1, 212599, Note_on_c, 9, 35, 47
1, 212647, Note_on_c, 9, 51, 0
1, 212649, Note_on_c, 9, 35, 0
1, 212723, Note_on_c, 9, 51, 64
1, 212753, Note_on_c, 1, 39, 0
1, 212761, Note_on_c, 1, 40, 70
1, 213009, Note_on_c, 1, 36, 66
1, 213015, Note_on_c, 9, 51, 0
1, 213021, Note_on_c, 1, 40, 0
1, 213089, Note_on_c, 1, 36, 0
1, 213107, Note_on_c, 9, 51, 113
1, 213111, Note_on_c, 9, 44, 112
1, 213141, Note_on_c, 1, 37, 69
1, 213223, Note_on_c, 9, 44, 0
1, 213331, Note_on_c, 9, 51, 0
1, 213353, Note_on_c, 9, 35, 52
1, 213363, Note_on_c, 9, 51, 64
1, 213421, Note_on_c, 9, 35, 0
1, 213433, Note_on_c, 9, 51, 0
1, 213457, Note_on_c, 1, 34, 39
1, 213491, Note_on_c, 9, 51, 91
1, 213513, Note_on_c, 1, 34, 0
1, 213521, Note_on_c, 1, 37, 0
1, 213537, Note_on_c, 0, 53, 63
1, 213545, Note_on_c, 1, 38, 68
1, 213785, Note_on_c, 9, 51, 0
1, 213817, Note_on_c, 1, 38, 0
1, 213817, Note_on_c, 1, 37, 54
1, 213857, Note_on_c, 0, 53, 0
1, 213875, Note_on_c, 9, 51, 99
1, 213879, Note_on_c, 9, 44, 112
1, 213921, Note_on_c, 1, 40, 68
1, 213929, Note_on_c, 0, 67, 120
1, 213953, Note_on_c, 1, 37, 0
1, 213991, Note_on_c, 9, 44, 0
1, 214179, Note_on_c, 9, 51, 0
1, 214205, Note_on_c, 1, 40, 0
1, 214205, Note_on_c, 1, 39, 54
1, 214245, Note_on_c, 0, 67, 0
1, 214259, Note_on_c, 9, 51, 77
1, 214305, Note_on_c, 1, 41, 63
1, 214321, Note_on_c, 1, 39, 0
1, 214531, Note_on_c, 9, 37, 50
1, 214547, Note_on_c, 9, 51, 0
1, 214581, Note_on_c, 1, 42, 56
1, 214597, Note_on_c, 1, 41, 0
1, 214611, Note_on_c, 9, 37, 0
1, 214621, Note_on_c, 1, 42, 0
1, 214643, Note_on_c, 9, 51, 89
1, 214647, Note_on_c, 9, 46, 21
1, 214661, Note_on_c, 0, 77, 76
1, 214673, Note_on_c, 1, 44, 61
1, 214679, Note_on_c, 9, 35, 24
1, 214727, Note_on_c, 9, 35, 0
1, 214769, Note_on_c, 9, 46, 0
1, 214851, Note_on_c, 9, 51, 0
1, 214877, Note_on_c, 0, 77, 0
1, 214899, Note_on_c, 9, 51, 68
1, 214905, Note_on_c, 9, 37, 59
1, 214953, Note_on_c, 1, 41, 44
1, 214967, Note_on_c, 9, 51, 0
1, 214997, Note_on_c, 1, 41, 0
1, 215011, Note_on_c, 9, 37, 0
1, 215027, Note_on_c, 9, 51, 96
1, 215049, Note_on_c, 9, 35, 28
1, 215053, Note_on_c, 1, 44, 0
1, 215073, Note_on_c, 1, 45, 49
1, 215101, Note_on_c, 9, 35, 0
1, 215325, Note_on_c, 0, 91, 114
1, 215335, Note_on_c, 9, 51, 0
1, 215377, Note_on_c, 1, 41, 42
1, 215389, Note_on_c, 1, 45, 0
1, 215411, Note_on_c, 9, 51, 91
1, 215415, Note_on_c, 9, 44, 117
1, 215421, Note_on_c, 1, 41, 0
1, 215429, Note_on_c, 1, 48, 60
1, 215559, Note_on_c, 9, 44, 0
1, 215629, Note_on_c, 0, 91, 0
1, 215681, Note_on_c, 1, 42, 39
1, 215689, Note_on_c, 9, 35, 28
1, 215729, Note_on_c, 9, 35, 0
1, 215737, Note_on_c, 1, 42, 0
1, 215737, Note_on_c, 9, 51, 0
1, 215795, Note_on_c, 9, 51, 80
1, 215809, Note_on_c, 1, 55, 70
1, 215861, Note_on_c, 1, 48, 0
1, 216099, Note_on_c, 9, 51, 0
1, 216121, Note_on_c, 1, 55, 0
1, 216137, Note_on_c, 1, 43, 46
1, 216177, Note_on_c, 1, 54, 69
1, 216179, Note_on_c, 9, 51, 78
1, 216183, Note_on_c, 9, 44, 119
1, 216185, Note_on_c, 1, 43, 0
1, 216273, Note_on_c, 9, 44, 0
1, 216435, Note_on_c, 9, 51, 68
1, 216439, Note_on_c, 9, 51, 0
1, 216441, Note_on_c, 9, 35, 35
1, 216473, Note_on_c, 9, 35, 0
1, 216485, Note_on_c, 1, 43, 45
1, 216503, Note_on_c, 9, 51, 0
1, 216513, Note_on_c, 1, 54, 0
1, 216529, Note_on_c, 1, 43, 0
1, 216563, Note_on_c, 9, 51, 73
1, 216577, Note_on_c, 9, 35, 21
1, 216589, Note_on_c, 1, 53, 51
1, 216631, Note_on_c, 9, 35, 0
1, 216803, Note_on_c, 9, 31, 50
1, 216861, Note_on_c, 9, 31, 0
1, 216887, Note_on_c, 9, 51, 0
1, 216893, Note_on_c, 1, 43, 45
1, 216901, Note_on_c, 1, 53, 0
1, 216937, Note_on_c, 1, 43, 0
1, 216947, Note_on_c, 9, 51, 98
1, 216951, Note_on_c, 9, 44, 117
1, 216969, Note_on_c, 1, 52, 57
1, 217031, Note_on_c, 9, 44, 0
1, 217241, Note_on_c, 1, 43, 50
1, 217245, Note_on_c, 0, 53, 47
1, 217267, Note_on_c, 9, 51, 0
1, 217281, Note_on_c, 1, 43, 0
1, 217297, Note_on_c, 0, 53, 0
1, 217325, Note_on_c, 1, 52, 0
1, 217331, Note_on_c, 9, 51, 80
1, 217357, Note_on_c, 0, 65, 53
1, 217373, Note_on_c, 1, 50, 62
1, 217577, Note_on_c, 0, 65, 0
1, 217609, Note_on_c, 0, 67, 67
1, 217623, Note_on_c, 9, 51, 0
1, 217681, Note_on_c, 1, 50, 0
1, 217715, Note_on_c, 9, 51, 84
1, 217719, Note_on_c, 9, 44, 110
1, 217733, Note_on_c, 1, 42, 65
1, 217753, Note_on_c, 0, 67, 0
1, 217847, Note_on_c, 9, 44, 0
1, 217857, Note_on_c, 9, 31, 45
1, 217911, Note_on_c, 9, 31, 0
1, 217955, Note_on_c, 9, 51, 0
1, 217971, Note_on_c, 9, 51, 59
1, 217977, Note_on_c, 9, 37, 35
1, 218023, Note_on_c, 9, 51, 0
1, 218057, Note_on_c, 9, 37, 0
1, 218089, Note_on_c, 1, 42, 0
1, 218099, Note_on_c, 9, 51, 66
1, 218113, Note_on_c, 9, 35, 52
1, 218117, Note_on_c, 1, 43, 59
1, 218125, Note_on_c, 0, 67, 63
1, 218291, Note_on_c, 9, 35, 0
1, 218305, Note_on_c, 0, 67, 0
1, 218377, Note_on_c, 9, 51, 0
1, 218461, Note_on_c, 1, 43, 0
1, 218483, Note_on_c, 9, 51, 103
1, 218485, Note_on_c, 0, 65, 62
1, 218487, Note_on_c, 9, 44, 108
1, 218505, Note_on_c, 1, 38, 68
1, 218609, Note_on_c, 9, 44, 0
1, 218613, Note_on_c, 0, 65, 0
1, 218713, Note_on_c, 9, 51, 0
1, 218739, Note_on_c, 9, 51, 64
1, 218745, Note_on_c, 9, 35, 47
1, 218777, Note_on_c, 9, 35, 0
1, 218787, Note_on_c, 9, 51, 0
1, 218857, Note_on_c, 1, 38, 0
1, 218867, Note_on_c, 9, 51, 84
1, 218881, Note_on_c, 1, 31, 63
1, 218901, Note_on_c, 0, 65, 57
1, 219033, Note_on_c, 0, 65, 0
1, 219117, Note_on_c, 1, 31, 0
1, 219145, Note_on_c, 1, 34, 75
1, 219159, Note_on_c, 9, 51, 0
1, 219251, Note_on_c, 9, 51, 99
1, 219253, Note_on_c, 1, 34, 0
1, 219255, Note_on_c, 9, 44, 110
1, 219297, Note_on_c, 1, 35, 63
1, 219401, Note_on_c, 9, 44, 0
1, 219545, Note_on_c, 9, 51, 0
1, 219597, Note_on_c, 1, 35, 0
1, 219635, Note_on_c, 9, 51, 68
1, 219637, Note_on_c, 1, 36, 57
1, 219655, Note_on_c, 9, 35, 28
1, 219709, Note_on_c, 9, 35, 0
1, 219897, Note_on_c, 1, 34, 54
1, 219929, Note_on_c, 9, 51, 0
1, 219941, Note_on_c, 1, 36, 0
1, 219989, Note_on_c, 1, 34, 0
1, 220005, Note_on_c, 1, 38, 58
1, 220017, Note_on_c, 9, 51, 82
1, 220023, Note_on_c, 9, 44, 98
1, 220193, Note_on_c, 9, 44, 0
1, 220259, Note_on_c, 9, 51, 0
1, 220275, Note_on_c, 9, 51, 54
1, 220279, Note_on_c, 9, 35, 28
1, 220293, Note_on_c, 1, 38, 0
1, 220293, Note_on_c, 1, 34, 49
1, 220311, Note_on_c, 9, 35, 0
1, 220327, Note_on_c, 9, 51, 0
1, 220403, Note_on_c, 0, 68, 48
1, 220403, Note_on_c, 9, 51, 84
1, 220413, Note_on_c, 1, 40, 59
1, 220425, Note_on_c, 0, 74, 71
1, 220429, Note_on_c, 1, 34, 0
1, 220445, Note_on_c, 0, 62, 55
1, 220445, Note_on_c, 0, 64, 45
1, 220485, Note_on_c, 0, 62, 0
1, 220509, Note_on_c, 0, 68, 0
1, 220509, Note_on_c, 0, 64, 0
1, 220557, Note_on_c, 0, 74, 0
1, 220649, Note_on_c, 9, 31, 49
1, 220675, Note_on_c, 9, 31, 0
1, 220713, Note_on_c, 9, 51, 0
1, 220721, Note_on_c, 1, 40, 0
1, 220725, Note_on_c, 1, 36, 40
1, 220773, Note_on_c, 1, 36, 0
1, 220785, Note_on_c, 1, 43, 58
1, 220787, Note_on_c, 9, 51, 106
1, 220791, Note_on_c, 9, 44, 101
1, 220793, Note_on_c, 0, 72, 65
1, 220809, Note_on_c, 0, 62, 51
1, 220809, Note_on_c, 0, 59, 58
1, 220809, Note_on_c, 0, 67, 64
1, 220903, Note_on_c, 9, 44, 0
1, 220925, Note_on_c, 0, 62, 0
1, 220937, Note_on_c, 9, 31, 64
1, 220973, Note_on_c, 0, 72, 0
1, 220973, Note_on_c, 0, 67, 0
1, 220985, Note_on_c, 0, 59, 0
1, 220995, Note_on_c, 9, 51, 0
1, 220995, Note_on_c, 9, 31, 0
1, 221043, Note_on_c, 9, 51, 56
1, 221057, Note_on_c, 9, 34, 35
1, 221095, Note_on_c, 9, 51, 0
1, 221105, Note_on_c, 1, 36, 52
1, 221133, Note_on_c, 1, 43, 0
1, 221153, Note_on_c, 9, 34, 0
1, 221165, Note_on_c, 1, 36, 0
1, 221171, Note_on_c, 9, 51, 98
1, 221181, Note_on_c, 0, 58, 58
1, 221185, Note_on_c, 1, 50, 73
1, 221201, Note_on_c, 9, 35, 33
1, 221209, Note_on_c, 0, 71, 50
1, 221221, Note_on_c, 0, 62, 39
1, 221237, Note_on_c, 0, 66, 52
1, 221341, Note_on_c, 0, 71, 0
1, 221345, Note_on_c, 0, 62, 0
1, 221381, Note_on_c, 0, 66, 0
1, 221395, Note_on_c, 9, 35, 0
1, 221409, Note_on_c, 0, 58, 0
1, 221437, Note_on_c, 0, 72, 64
1, 221449, Note_on_c, 0, 62, 29
1, 221457, Note_on_c, 0, 59, 58
1, 221461, Note_on_c, 1, 40, 38
1, 221463, Note_on_c, 9, 51, 0
1, 221505, Note_on_c, 1, 50, 0
1, 221509, Note_on_c, 0, 59, 0
1, 221529, Note_on_c, 0, 62, 0
1, 221533, Note_on_c, 1, 40, 0
1, 221545, Note_on_c, 0, 72, 0
1, 221555, Note_on_c, 9, 51, 87
1, 221559, Note_on_c, 9, 44, 87
1, 221565, Note_on_c, 1, 49, 68
1, 221681, Note_on_c, 9, 44, 0
1, 221815, Note_on_c, 9, 35, 28
1, 221849, Note_on_c, 9, 51, 0
1, 221861, Note_on_c, 1, 42, 49
1, 221869, Note_on_c, 9, 35, 0
1, 221869, Note_on_c, 1, 49, 0
1, 221901, Note_on_c, 1, 42, 0
1, 221929, Note_on_c, 0, 72, 77
1, 221937, Note_on_c, 9, 35, 29
1, 221939, Note_on_c, 9, 51, 68
1, 221949, Note_on_c, 1, 48, 68
1, 221961, Note_on_c, 0, 62, 51
1, 221961, Note_on_c, 0, 67, 56
1, 222025, Note_on_c, 0, 62, 0
1, 222053, Note_on_c, 0, 67, 0
1, 222065, Note_on_c, 9, 35, 0
1, 222133, Note_on_c, 0, 72, 0
1, 222151, Note_on_c, 9, 51, 0
1, 222221, Note_on_c, 1, 42, 48
1, 222277, Note_on_c, 1, 42, 0
1, 222289, Note_on_c, 1, 48, 0
1, 222323, Note_on_c, 9, 51, 96
1, 222327, Note_on_c, 9, 44, 96
1, 222329, Note_on_c, 1, 47, 62
1, 222345, Note_on_c, 0, 71, 64
1, 222455, Note_on_c, 9, 44, 0
1, 222561, Note_on_c, 0, 71, 0
1, 222563, Note_on_c, 9, 51, 0
1, 222579, Note_on_c, 9, 51, 66
1, 222631, Note_on_c, 9, 51, 0
1, 222689, Note_on_c, 1, 47, 0
1, 222707, Note_on_c, 9, 51, 98
1, 222713, Note_on_c, 1, 48, 63
1, 222741, Note_on_c, 0, 58, 41
1, 222757, Note_on_c, 0, 53, 30
1, 222761, Note_on_c, 0, 70, 50
1, 222761, Note_on_c, 0, 62, 33
1, 222781, Note_on_c, 0, 57, 37
1, 223011, Note_on_c, 9, 51, 0
1, 223091, Note_on_c, 9, 51, 103
1, 223095, Note_on_c, 9, 44, 101
1, 223109, Note_on_c, 1, 42, 61
1, 223125, Note_on_c, 1, 48, 0
1, 223249, Note_on_c, 9, 44, 0
1, 223283, Note_on_c, 9, 51, 0
1, 223309, Note_on_c, 0, 58, 0
1, 223337, Note_on_c, 9, 35, 54
1, 223347, Note_on_c, 9, 51, 84
1, 223383, Note_on_c, 9, 51, 0
1, 223409, Note_on_c, 0, 70, 0
1, 223437, Note_on_c, 9, 35, 0
1, 223453, Note_on_c, 1, 42, 0
1, 223475, Note_on_c, 9, 51, 99
1, 223489, Note_on_c, 1, 43, 63
1, 223495, Note_on_c, 9, 35, 26
1, 223501, Note_on_c, 0, 72, 75
1, 223549, Note_on_c, 0, 58, 23
1, 223661, Note_on_c, 0, 72, 0
1, 223681, Note_on_c, 9, 35, 0
1, 223681, Note_on_c, 0, 53, 0
1, 223689, Note_on_c, 0, 58, 0
1, 223735, Note_on_c, 9, 51, 0
1, 223745, Note_on_c, 1, 43, 0
1, 223745, Note_on_c, 9, 35, 49
1, 223753, Note_on_c, 0, 62, 0
1, 223757, Note_on_c, 1, 38, 65
1, 223777, Note_on_c, 9, 35, 0
1, 223825, Note_on_c, 0, 57, 0
1, 223841, Note_on_c, 1, 38, 0
1, 223859, Note_on_c, 9, 51, 108
1, 223863, Note_on_c, 9, 46, 45
1, 223881, Note_on_c, 1, 37, 71
1, 224009, Note_on_c, 9, 46, 0
1, 224125, Note_on_c, 0, 70, 51
1, 224131, Note_on_c, 9, 51, 0
1, 224201, Note_on_c, 1, 37, 0
1, 224241, Note_on_c, 0, 70, 0
1, 224243, Note_on_c, 9, 51, 112
1, 224257, Note_on_c, 1, 35, 64
1, 224297, Note_on_c, 0, 72, 61
1, 224529, Note_on_c, 0, 62, 51
1, 224537, Note_on_c, 0, 58, 51
1, 224537, Note_on_c, 9, 51, 0
1, 224609, Note_on_c, 0, 62, 0
1, 224625, Note_on_c, 1, 35, 0
1, 224627, Note_on_c, 9, 51, 61
1, 224631, Note_on_c, 9, 44, 96
1, 224633, Note_on_c, 0, 58, 0
1, 224633, Note_on_c, 1, 36, 70
1, 224777, Note_on_c, 9, 44, 0
1, 224835, Note_on_c, 9, 51, 0
1, 224867, Note_on_c, 9, 35, 59
1, 224883, Note_on_c, 9, 51, 68
1, 224893, Note_on_c, 9, 35, 0
1, 224919, Note_on_c, 9, 51, 0
1, 224997, Note_on_c, 1, 36, 0
1, 225011, Note_on_c, 9, 51, 75
1, 225025, Note_on_c, 1, 38, 63
1, 225057, Note_on_c, 0, 62, 41
1, 225061, Note_on_c, 0, 58, 51
1, 225113, Note_on_c, 0, 52, 27
1, 225141, Note_on_c, 1, 38, 0
1, 225209, Note_on_c, 9, 51, 0
1, 225261, Note_on_c, 1, 38, 73
1, 225385, Note_on_c, 0, 72, 0
1, 225395, Note_on_c, 9, 51, 117
1, 225399, Note_on_c, 9, 44, 94
1, 225421, Note_on_c, 1, 40, 78
1, 225441, Note_on_c, 0, 52, 0
1, 225461, Note_on_c, 0, 69, 59
1, 225469, Note_on_c, 1, 38, 0
1, 225513, Note_on_c, 0, 58, 0
1, 225545, Note_on_c, 9, 44, 0
1, 225581, Note_on_c, 0, 69, 0
1, 225597, Note_on_c, 0, 62, 0
1, 225641, Note_on_c, 9, 51, 0
1, 225649, Note_on_c, 0, 72, 76
1, 225651, Note_on_c, 9, 51, 35
1, 225715, Note_on_c, 9, 51, 0
1, 225737, Note_on_c, 1, 40, 0
1, 225779, Note_on_c, 9, 51, 78
1, 225781, Note_on_c, 1, 41, 60
1, 225801, Note_on_c, 0, 62, 41
1, 225817, Note_on_c, 0, 72, 0
1, 225845, Note_on_c, 0, 57, 34
1, 226033, Note_on_c, 1, 41, 0
1, 226049, Note_on_c, 0, 62, 0
1, 226049, Note_on_c, 1, 39, 58
1, 226083, Note_on_c, 9, 51, 0
1, 226113, Note_on_c, 1, 39, 0
1, 226125, Note_on_c, 0, 57, 0
1, 226137, Note_on_c, 1, 41, 48
1, 226163, Note_on_c, 9, 51, 87
1, 226167, Note_on_c, 9, 44, 105
1, 226169, Note_on_c, 1, 50, 79
1, 226177, Note_on_c, 0, 72, 80
1, 226197, Note_on_c, 1, 41, 0
1, 226329, Note_on_c, 9, 44, 0
1, 226387, Note_on_c, 9, 51, 0
1, 226413, Note_on_c, 0, 62, 44
1, 226419, Note_on_c, 0, 72, 0
1, 226419, Note_on_c, 9, 51, 75
1, 226469, Note_on_c, 0, 62, 0
1, 226473, Note_on_c, 9, 51, 0
1, 226525, Note_on_c, 0, 57, 31
1, 226547, Note_on_c, 9, 51, 57
1, 226551, Note_on_c, 9, 34, 20
1, 226553, Note_on_c, 1, 48, 65
1, 226581, Note_on_c, 0, 69, 62
1, 226593, Note_on_c, 1, 50, 0
1, 226613, Note_on_c, 0, 57, 0
1, 226621, Note_on_c, 9, 34, 0
1, 226725, Note_on_c, 0, 69, 0
1, 226755, Note_on_c, 9, 51, 0
1, 226803, Note_on_c, 9, 53, 80
1, 226855, Note_on_c, 9, 53, 0
1, 226885, Note_on_c, 1, 48, 0
1, 226931, Note_on_c, 9, 51, 43
1, 226933, Note_on_c, 1, 44, 66
1, 226935, Note_on_c, 9, 44, 96
1, 227105, Note_on_c, 9, 44, 0
1, 227209, Note_on_c, 9, 51, 0
1, 227297, Note_on_c, 0, 65, 56
1, 227313, Note_on_c, 1, 44, 0
1, 227315, Note_on_c, 9, 51, 84
1, 227321, Note_on_c, 1, 45, 59
1, 227461, Note_on_c, 0, 65, 0
1, 227593, Note_on_c, 9, 51, 0
1, 227621, Note_on_c, 1, 44, 55
1, 227637, Note_on_c, 1, 45, 0
1, 227699, Note_on_c, 9, 51, 84
1, 227703, Note_on_c, 9, 44, 105
1, 227717, Note_on_c, 1, 50, 72
1, 227725, Note_on_c, 1, 44, 0
1, 227863, Note_on_c, 9, 44, 0
1, 227881, Note_on_c, 9, 51, 0
1, 227955, Note_on_c, 9, 51, 52
1, 227991, Note_on_c, 9, 51, 0
1, 228069, Note_on_c, 0, 67, 46
1, 228083, Note_on_c, 9, 51, 66
1, 228085, Note_on_c, 0, 56, 44
1, 228105, Note_on_c, 1, 48, 67
1, 228141, Note_on_c, 0, 62, 41
1, 228161, Note_on_c, 1, 50, 0
1, 228313, Note_on_c, 0, 62, 0
1, 228321, Note_on_c, 0, 67, 0
1, 228337, Note_on_c, 9, 31, 40
1, 228361, Note_on_c, 9, 31, 0
1, 228371, Note_on_c, 9, 51, 0
1, 228433, Note_on_c, 0, 56, 0
1, 228467, Note_on_c, 9, 51, 87
1, 228471, Note_on_c, 9, 44, 98
1, 228477, Note_on_c, 1, 45, 68
1, 228489, Note_on_c, 1, 48, 0
1, 228505, Note_on_c, 9, 31, 59
1, 228533, Note_on_c, 0, 56, 30
1, 228553, Note_on_c, 9, 31, 0
1, 228597, Note_on_c, 0, 56, 0
1, 228599, Note_on_c, 9, 31, 50
1, 228617, Note_on_c, 9, 44, 0
1, 228653, Note_on_c, 9, 31, 0
1, 228675, Note_on_c, 9, 51, 0
1, 228723, Note_on_c, 9, 51, 56
1, 228775, Note_on_c, 9, 51, 0
1, 228781, Note_on_c, 1, 45, 0
1, 228825, Note_on_c, 1, 39, 65
1, 228851, Note_on_c, 9, 51, 92
1, 228933, Note_on_c, 0, 67, 42
1, 228949, Note_on_c, 1, 40, 76
1, 228973, Note_on_c, 1, 39, 0
1, 229025, Note_on_c, 0, 67, 0
1, 229139, Note_on_c, 9, 51, 0
1, 229235, Note_on_c, 9, 51, 98
1, 229239, Note_on_c, 9, 44, 98
1, 229241, Note_on_c, 1, 40, 0
1, 229277, Note_on_c, 1, 34, 68
1, 229393, Note_on_c, 9, 44, 0
1, 229489, Note_on_c, 9, 31, 50
1, 229513, Note_on_c, 9, 31, 0
1, 229545, Note_on_c, 9, 51, 0
1, 229601, Note_on_c, 1, 34, 0
1, 229601, Note_on_c, 0, 59, 42
1, 229619, Note_on_c, 9, 51, 82
1, 229641, Note_on_c, 1, 31, 67
1, 229657, Note_on_c, 0, 59, 0
1, 229913, Note_on_c, 9, 51, 0
1, 229993, Note_on_c, 1, 31, 0
1, 230003, Note_on_c, 9, 51, 63
1, 230007, Note_on_c, 9, 46, 36
1, 230021, Note_on_c, 1, 32, 75
1, 230029, Note_on_c, 0, 64, 64
1, 230117, Note_on_c, 0, 64, 0
1, 230129, Note_on_c, 9, 46, 0
1, 230259, Note_on_c, 9, 35, 50
1, 230275, Note_on_c, 9, 51, 0
1, 230281, Note_on_c, 9, 35, 0
1, 230289, Note_on_c, 0, 64, 56
1, 230353, Note_on_c, 1, 32, 0
1, 230373, Note_on_c, 0, 64, 0
1, 230387, Note_on_c, 9, 51, 78
1, 230401, Note_on_c, 1, 33, 74
1, 230445, Note_on_c, 0, 61, 50
1, 230497, Note_on_c, 0, 61, 0
1, 230589, Note_on_c, 1, 33, 0
1, 230615, Note_on_c, 9, 51, 0
1, 230643, Note_on_c, 9, 59, 82
1, 230673, Note_on_c, 1, 38, 54
1, 230689, Note_on_c, 1, 33, 58
1, 230695, Note_on_c, 9, 59, 0
1, 230709, Note_on_c, 1, 38, 0
1, 230733, Note_on_c, 0, 69, 76
1, 230769, Note_on_c, 9, 51, 47
1, 230775, Note_on_c, 9, 44, 87
1, 230777, Note_on_c, 1, 33, 0
1, 230785, Note_on_c, 1, 45, 65
1, 230897, Note_on_c, 0, 69, 0
1, 230937, Note_on_c, 9, 44, 0
1, 230985, Note_on_c, 0, 69, 46
1, 231015, Note_on_c, 9, 35, 26
1, 231065, Note_on_c, 9, 35, 0
1, 231065, Note_on_c, 9, 51, 0
1, 231085, Note_on_c, 0, 61, 56
1, 231093, Note_on_c, 0, 55, 49
1, 231093, Note_on_c, 0, 65, 41
1, 231129, Note_on_c, 0, 69, 0
1, 231149, Note_on_c, 1, 45, 0
1, 231155, Note_on_c, 9, 51, 63
1, 231155, Note_on_c, 9, 35, 26
1, 231165, Note_on_c, 0, 65, 0
1, 231173, Note_on_c, 1, 49, 63
1, 231225, Note_on_c, 0, 69, 75
1, 231235, Note_on_c, 9, 35, 0
1, 231385, Note_on_c, 0, 69, 0
1, 231433, Note_on_c, 9, 51, 0
1, 231481, Note_on_c, 0, 55, 0
1, 231539, Note_on_c, 9, 51, 70
1, 231543, Note_on_c, 9, 44, 92
1, 231545, Note_on_c, 0, 61, 0
1, 231557, Note_on_c, 1, 37, 68
1, 231585, Note_on_c, 1, 49, 0
1, 231697, Note_on_c, 9, 44, 0
1, 231779, Note_on_c, 9, 51, 0
1, 231795, Note_on_c, 9, 51, 61
1, 231809, Note_on_c, 9, 35, 38
1, 231821, Note_on_c, 0, 54, 56
1, 231837, Note_on_c, 0, 60, 57
1, 231841, Note_on_c, 9, 35, 0
1, 231875, Note_on_c, 9, 51, 0
1, 231923, Note_on_c, 9, 51, 92
1, 231945, Note_on_c, 1, 38, 63
1, 231957, Note_on_c, 1, 37, 0
1, 232041, Note_on_c, 0, 60, 0
1, 232221, Note_on_c, 0, 60, 38
1, 232229, Note_on_c, 1, 37, 51
1, 232243, Note_on_c, 9, 51, 0
1, 232281, Note_on_c, 1, 38, 0
1, 232301, Note_on_c, 1, 45, 49
1, 232305, Note_on_c, 0, 60, 0
1, 232307, Note_on_c, 9, 51, 105
1, 232309, Note_on_c, 1, 37, 0
1, 232311, Note_on_c, 9, 44, 106
1, 232325, Note_on_c, 0, 54, 0
1, 232345, Note_on_c, 0, 62, 63
1, 232449, Note_on_c, 9, 44, 0
1, 232477, Note_on_c, 0, 62, 0
1, 232521, Note_on_c, 0, 54, 33
1, 232565, Note_on_c, 0, 60, 39
1, 232569, Note_on_c, 9, 35, 43
1, 232589, Note_on_c, 0, 62, 64
1, 232589, Note_on_c, 1, 42, 32
1, 232609, Note_on_c, 9, 35, 0
1, 232633, Note_on_c, 9, 51, 0
1, 232637, Note_on_c, 0, 60, 0
1, 232641, Note_on_c, 1, 42, 0
1, 232653, Note_on_c, 1, 45, 0
1, 232685, Note_on_c, 0, 62, 0
1, 232691, Note_on_c, 9, 51, 75
1, 232701, Note_on_c, 1, 52, 68
1, 232725, Note_on_c, 0, 54, 0
1, 232753, Note_on_c, 0, 62, 51
1, 232901, Note_on_c, 0, 62, 0
1, 232935, Note_on_c, 9, 51, 0
1, 232947, Note_on_c, 9, 51, 64
1, 232973, Note_on_c, 0, 54, 41
1, 232977, Note_on_c, 0, 60, 40
1, 233027, Note_on_c, 9, 51, 0
1, 233049, Note_on_c, 0, 60, 0
1, 233057, Note_on_c, 1, 52, 0
1, 233075, Note_on_c, 9, 51, 110
1, 233079, Note_on_c, 9, 44, 94
1, 233081, Note_on_c, 1, 44, 61
1, 233101, Note_on_c, 0, 62, 64
1, 233209, Note_on_c, 0, 54, 0
1, 233217, Note_on_c, 9, 44, 0
1, 233233, Note_on_c, 0, 62, 0
1, 233335, Note_on_c, 9, 35, 36
1, 233345, Note_on_c, 0, 62, 62
1, 233379, Note_on_c, 9, 51, 0
1, 233399, Note_on_c, 9, 35, 0
1, 233437, Note_on_c, 1, 44, 0
1, 233437, Note_on_c, 0, 62, 0
1, 233459, Note_on_c, 9, 51, 117
1, 233465, Note_on_c, 9, 35, 38
1, 233473, Note_on_c, 1, 43, 62
1, 233489, Note_on_c, 0, 53, 50
1, 233493, Note_on_c, 0, 59, 39
1, 233501, Note_on_c, 0, 67, 64
1, 233537, Note_on_c, 9, 35, 0
1, 233665, Note_on_c, 0, 53, 0
1, 233665, Note_on_c, 0, 67, 0
1, 233681, Note_on_c, 0, 59, 0
1, 233741, Note_on_c, 0, 63, 54
1, 233761, Note_on_c, 0, 67, 70
1, 233801, Note_on_c, 9, 51, 0
1, 233805, Note_on_c, 0, 63, 0
1, 233829, Note_on_c, 1, 43, 0
1, 233843, Note_on_c, 9, 51, 87
1, 233847, Note_on_c, 9, 44, 99
1, 233853, Note_on_c, 1, 31, 83
1, 233885, Note_on_c, 0, 67, 0
1, 233969, Note_on_c, 9, 44, 0
1, 234073, Note_on_c, 9, 51, 0
1, 234097, Note_on_c, 9, 51, 56
1, 234097, Note_on_c, 9, 35, 40
1, 234121, Note_on_c, 0, 67, 73
1, 234135, Note_on_c, 9, 35, 0
1, 234137, Note_on_c, 0, 53, 56
1, 234141, Note_on_c, 0, 63, 46
1, 234179, Note_on_c, 9, 51, 0
1, 234193, Note_on_c, 0, 63, 0
1, 234227, Note_on_c, 9, 51, 84
1, 234261, Note_on_c, 1, 31, 0
1, 234269, Note_on_c, 1, 33, 54
1, 234333, Note_on_c, 0, 53, 0
1, 234381, Note_on_c, 1, 33, 0
1, 234457, Note_on_c, 0, 67, 0
1, 234457, Note_on_c, 9, 51, 0
1, 234483, Note_on_c, 9, 51, 61
1, 234485, Note_on_c, 1, 34, 54
1, 234547, Note_on_c, 9, 51, 0
1, 234573, Note_on_c, 1, 34, 0
1, 234611, Note_on_c, 9, 51, 120
1, 234615, Note_on_c, 9, 44, 94
1, 234621, Note_on_c, 1, 35, 80
1, 234727, Note_on_c, 9, 44, 0
1, 234883, Note_on_c, 9, 35, 43
1, 234905, Note_on_c, 9, 51, 0
1, 234925, Note_on_c, 9, 35, 0
1, 234973, Note_on_c, 1, 35, 0
1, 234989, Note_on_c, 1, 36, 59
1, 234995, Note_on_c, 9, 51, 108
1, 235257, Note_on_c, 0, 50, 54
1, 235269, Note_on_c, 0, 64, 68
1, 235277, Note_on_c, 1, 34, 62
1, 235289, Note_on_c, 0, 50, 0
1, 235289, Note_on_c, 0, 52, 80
1, 235289, Note_on_c, 0, 55, 57
1, 235289, Note_on_c, 0, 60, 62
1, 235301, Note_on_c, 0, 57, 53
1, 235325, Note_on_c, 1, 36, 0
1, 235331, Note_on_c, 9, 51, 0
1, 235379, Note_on_c, 9, 51, 64
1, 235383, Note_on_c, 9, 44, 85
1, 235397, Note_on_c, 1, 34, 0
1, 235397, Note_on_c, 1, 45, 60
1, 235513, Note_on_c, 9, 44, 0
1, 235573, Note_on_c, 0, 57, 0
1, 235585, Note_on_c, 0, 64, 0
1, 235593, Note_on_c, 0, 55, 0
1, 235593, Note_on_c, 0, 60, 0
1, 235603, Note_on_c, 9, 51, 0
1, 235629, Note_on_c, 0, 52, 0
1, 235633, Note_on_c, 9, 35, 54
1, 235635, Note_on_c, 9, 51, 73
1, 235649, Note_on_c, 0, 51, 51
1, 235671, Note_on_c, 9, 35, 0
1, 235703, Note_on_c, 9, 51, 0
1, 235763, Note_on_c, 9, 51, 56
1, 235773, Note_on_c, 0, 51, 0
1, 235773, Note_on_c, 0, 67, 76
1, 235777, Note_on_c, 0, 60, 78
1, 235785, Note_on_c, 0, 52, 39
1, 235785, Note_on_c, 1, 43, 55
1, 235793, Note_on_c, 1, 45, 0
1, 235809, Note_on_c, 0, 55, 55
1, 235809, Note_on_c, 0, 64, 48
1, 235829, Note_on_c, 0, 53, 46
1, 235837, Note_on_c, 0, 52, 0
1, 235861, Note_on_c, 0, 64, 0
1, 235877, Note_on_c, 0, 53, 0
1, 235895, Note_on_c, 9, 51, 0
1, 235913, Note_on_c, 0, 60, 0
1, 235917, Note_on_c, 0, 67, 0
1, 235973, Note_on_c, 0, 55, 0
1, 236019, Note_on_c, 9, 51, 119
1, 236055, Note_on_c, 9, 51, 0
1, 236105, Note_on_c, 1, 43, 0
1, 236147, Note_on_c, 9, 51, 75
1, 236151, Note_on_c, 9, 44, 84
1, 236153, Note_on_c, 1, 39, 59
1, 236165, Note_on_c, 0, 64, 58
1, 236177, Note_on_c, 0, 52, 58
1, 236177, Note_on_c, 0, 55, 58
1, 236177, Note_on_c, 0, 57, 54
1, 236177, Note_on_c, 0, 60, 60
1, 236265, Note_on_c, 0, 55, 0
1, 236273, Note_on_c, 9, 44, 0
1, 236297, Note_on_c, 0, 57, 0
1, 236349, Note_on_c, 0, 64, 0
1, 236353, Note_on_c, 0, 60, 0
1, 236355, Note_on_c, 9, 51, 0
1, 236397, Note_on_c, 0, 52, 0
1, 236403, Note_on_c, 9, 51, 64
1, 236435, Note_on_c, 9, 51, 0
1, 236441, Note_on_c, 0, 51, 45
1, 236481, Note_on_c, 0, 50, 33
1, 236517, Note_on_c, 0, 51, 0
1, 236521, Note_on_c, 9, 35, 36
1, 236531, Note_on_c, 9, 51, 112
1, 236537, Note_on_c, 0, 50, 0
1, 236537, Note_on_c, 1, 39, 0
1, 236545, Note_on_c, 1, 40, 57
1, 236573, Note_on_c, 9, 35, 0
1, 236573, Note_on_c, 0, 55, 73
1, 236601, Note_on_c, 0, 67, 73
1, 236601, Note_on_c, 0, 60, 66
1, 236617, Note_on_c, 0, 64, 58
1, 236617, Note_on_c, 0, 59, 67
1, 236823, Note_on_c, 9, 51, 0
1, 236829, Note_on_c, 0, 64, 0
1, 236853, Note_on_c, 1, 39, 46
1, 236865, Note_on_c, 1, 40, 0
1, 236877, Note_on_c, 0, 67, 0
1, 236897, Note_on_c, 0, 60, 0
1, 236913, Note_on_c, 1, 39, 0
1, 236915, Note_on_c, 9, 51, 96
1, 236919, Note_on_c, 9, 44, 89
1, 236925, Note_on_c, 0, 59, 0
1, 236925, Note_on_c, 1, 45, 71
1, 236941, Note_on_c, 1, 46, 43
1, 237025, Note_on_c, 9, 44, 0
1, 237053, Note_on_c, 0, 55, 0
1, 237129, Note_on_c, 9, 51, 0
1, 237161, Note_on_c, 0, 64, 65
1, 237171, Note_on_c, 9, 51, 68
1, 237177, Note_on_c, 0, 55, 56
1, 237181, Note_on_c, 0, 57, 69
1, 237185, Note_on_c, 9, 35, 36
1, 237189, Note_on_c, 0, 52, 56
1, 237193, Note_on_c, 0, 60, 60
1, 237213, Note_on_c, 9, 51, 0
1, 237217, Note_on_c, 9, 35, 0
1, 237293, Note_on_c, 1, 45, 0
1, 237297, Note_on_c, 0, 55, 0
1, 237297, Note_on_c, 1, 43, 62
1, 237297, Note_on_c, 9, 51, 87
1, 237341, Note_on_c, 0, 57, 0
1, 237381, Note_on_c, 0, 60, 0
1, 237385, Note_on_c, 0, 64, 0
1, 237533, Note_on_c, 0, 51, 52
1, 237555, Note_on_c, 9, 51, 0
1, 237625, Note_on_c, 0, 52, 0
1, 237633, Note_on_c, 1, 43, 0
1, 237673, Note_on_c, 1, 37, 70
1, 237683, Note_on_c, 9, 51, 96
1, 237687, Note_on_c, 0, 62, 72
1, 237687, Note_on_c, 0, 55, 65
1, 237687, Note_on_c, 9, 44, 99
1, 237693, Note_on_c, 1, 46, 0
1, 237709, Note_on_c, 0, 59, 54
1, 237709, Note_on_c, 0, 64, 58
1, 237709, Note_on_c, 0, 69, 52
1, 237717, Note_on_c, 0, 67, 54
1, 237733, Note_on_c, 0, 51, 0
1, 237789, Note_on_c, 0, 69, 0
1, 237817, Note_on_c, 9, 44, 0
1, 237837, Note_on_c, 0, 64, 0
1, 237861, Note_on_c, 0, 62, 0
1, 237869, Note_on_c, 0, 67, 0
1, 237891, Note_on_c, 9, 51, 0
1, 237917, Note_on_c, 0, 59, 0
1, 237939, Note_on_c, 9, 51, 56
1, 238019, Note_on_c, 9, 51, 0
1, 238033, Note_on_c, 0, 55, 0
1, 238049, Note_on_c, 1, 37, 0
1, 238061, Note_on_c, 0, 65, 65
1, 238067, Note_on_c, 9, 51, 68
1, 238067, Note_on_c, 9, 35, 29
1, 238069, Note_on_c, 1, 38, 55
1, 238097, Note_on_c, 0, 53, 58
1, 238097, Note_on_c, 0, 60, 58
1, 238109, Note_on_c, 9, 35, 0
1, 238113, Note_on_c, 0, 57, 57
1, 238113, Note_on_c, 0, 62, 54
1, 238291, Note_on_c, 9, 51, 0
1, 238323, Note_on_c, 9, 51, 57
1, 238343, Note_on_c, 9, 51, 0
1, 238369, Note_on_c, 1, 37, 55
1, 238409, Control_c, 0, 64, 127
1, 238413, Note_on_c, 1, 38, 0
1, 238451, Note_on_c, 9, 51, 127
1, 238455, Note_on_c, 9, 44, 98
1, 238469, Note_on_c, 1, 46, 75
1, 238497, Note_on_c, 1, 37, 0
1, 238513, Note_on_c, 0, 65, 0
1, 238529, Note_on_c, 0, 57, 0
1, 238565, Note_on_c, 0, 62, 0
1, 238565, Note_on_c, 0, 60, 0
1, 238601, Note_on_c, 9, 44, 0
1, 238711, Note_on_c, 9, 51, 0
1, 238721, Note_on_c, 0, 67, 85
1, 238725, Control_c, 0, 64, 0
1, 238725, Note_on_c, 0, 57, 84
1, 238725, Note_on_c, 0, 55, 63
1, 238741, Note_on_c, 0, 60, 73
1, 238753, Note_on_c, 0, 53, 0
1, 238773, Note_on_c, 0, 55, 0
1, 238773, Note_on_c, 0, 62, 46
1, 238817, Note_on_c, 1, 46, 0
1, 238835, Note_on_c, 9, 34, 20
1, 238835, Note_on_c, 9, 51, 117
1, 238865, Note_on_c, 1, 45, 59
1, 238883, Note_on_c, 9, 34, 0
1, 239059, Note_on_c, 9, 51, 0
1, 239091, Note_on_c, 9, 51, 36
1, 239113, Note_on_c, 1, 38, 63
1, 239113, Note_on_c, 9, 34, 19
1, 239125, Note_on_c, 1, 45, 0
1, 239141, Note_on_c, 0, 57, 0
1, 239145, Note_on_c, 9, 34, 0
1, 239153, Note_on_c, 0, 67, 0
1, 239187, Note_on_c, 9, 51, 0
1, 239193, Note_on_c, 1, 38, 0
1, 239197, Note_on_c, 0, 62, 0
1, 239197, Note_on_c, 0, 60, 0
1, 239219, Note_on_c, 9, 51, 63
1, 239223, Note_on_c, 9, 44, 91
1, 239225, Note_on_c, 1, 44, 68
1, 239249, Note_on_c, 0, 31, 62
1, 239253, Note_on_c, 0, 43, 64
1, 239273, Note_on_c, 0, 57, 67
1, 239277, Note_on_c, 0, 65, 70
1, 239317, Note_on_c, 0, 60, 50
1, 239347, Note_on_c, 9, 51, 0
1, 239373, Note_on_c, 0, 31, 0
1, 239377, Note_on_c, 0, 60, 0
1, 239413, Note_on_c, 0, 43, 0
1, 239413, Note_on_c, 0, 57, 0
1, 239425, Note_on_c, 9, 44, 0
1, 239457, Note_on_c, 9, 34, 28
1, 239475, Note_on_c, 9, 51, 126
1, 239509, Note_on_c, 0, 65, 0
1, 239549, Note_on_c, 1, 44, 0
1, 239561, Note_on_c, 9, 34, 0
1, 239575, Note_on_c, 9, 35, 52
1, 239575, Note_on_c, 9, 57, 29
1, 239605, Note_on_c, 1, 43, 63
1, 239633, Note_on_c, 9, 57, 0
1, 239641, Note_on_c, 9, 35, 0
1, 239677, Note_on_c, 0, 55, 67
1, 239681, Note_on_c, 0, 53, 64
1, 239685, Note_on_c, 0, 67, 65
1, 239685, Note_on_c, 0, 60, 66
1, 239685, Note_on_c, 0, 57, 67
1, 239701, Note_on_c, 0, 62, 57
1, 239725, Note_on_c, 0, 53, 0
1, 239833, Note_on_c, 9, 51, 0
1, 239859, Note_on_c, 9, 51, 40
1, 239943, Note_on_c, 9, 51, 0
1, 239961, Note_on_c, 1, 43, 0
1, 239987, Note_on_c, 9, 51, 91
1, 239989, Note_on_c, 1, 38, 67
1, 239991, Note_on_c, 9, 44, 94
1, 240089, Note_on_c, 0, 57, 0
1, 240137, Note_on_c, 0, 67, 0
1, 240145, Note_on_c, 0, 60, 0
1, 240177, Note_on_c, 9, 44, 0
1, 240181, Note_on_c, 0, 62, 0
1, 240249, Note_on_c, 9, 35, 50
1, 240253, Note_on_c, 0, 65, 65
1, 240253, Note_on_c, 0, 57, 64
1, 240265, Note_on_c, 0, 55, 0
1, 240265, Note_on_c, 9, 51, 0
1, 240273, Note_on_c, 0, 60, 63
1, 240275, Note_on_c, 9, 35, 0
1, 240281, Note_on_c, 0, 53, 61
1, 240371, Note_on_c, 9, 51, 99
1, 240385, Note_on_c, 1, 29, 68
1, 240397, Note_on_c, 1, 38, 0
1, 240541, Note_on_c, 0, 60, 0
1, 240569, Note_on_c, 0, 57, 0
1, 240633, Note_on_c, 0, 65, 0
1, 240691, Note_on_c, 9, 51, 0
1, 240737, Note_on_c, 0, 53, 0
1, 240755, Note_on_c, 0, 55, 60
1, 240755, Note_on_c, 9, 51, 75
1, 240757, Note_on_c, 1, 30, 68
1, 240759, Note_on_c, 9, 44, 98
1, 240769, Note_on_c, 1, 29, 0
1, 240777, Note_on_c, 0, 67, 64
1, 240785, Note_on_c, 0, 60, 64
1, 240789, Note_on_c, 0, 57, 55
1, 240809, Note_on_c, 0, 62, 54
1, 240905, Note_on_c, 0, 55, 0
1, 240929, Note_on_c, 9, 44, 0
1, 240961, Note_on_c, 0, 57, 0
1, 240989, Note_on_c, 0, 67, 0
1, 240989, Note_on_c, 0, 60, 0
1, 240993, Note_on_c, 0, 62, 0
1, 241001, Note_on_c, 9, 51, 0
1, 241011, Note_on_c, 9, 51, 59
1, 241105, Note_on_c, 1, 30, 0
1, 241107, Note_on_c, 9, 51, 0
1, 241139, Note_on_c, 9, 51, 92
1, 241141, Note_on_c, 0, 43, 60
1, 241141, Note_on_c, 1, 31, 63
1, 241157, Note_on_c, 0, 53, 40
1, 241165, Note_on_c, 0, 57, 62
1, 241165, Note_on_c, 0, 65, 60
1, 241181, Note_on_c, 0, 60, 57
1, 241289, Note_on_c, 1, 31, 0
1, 241385, Note_on_c, 1, 31, 61
1, 241459, Note_on_c, 9, 51, 0
1, 241469, Note_on_c, 1, 31, 0
1, 241505, Note_on_c, 0, 53, 0
1, 241513, Note_on_c, 0, 60, 0
1, 241517, Note_on_c, 1, 32, 63
1, 241523, Note_on_c, 9, 51, 106
1, 241527, Note_on_c, 9, 44, 99
1, 241533, Note_on_c, 0, 57, 0
1, 241621, Note_on_c, 0, 65, 0
1, 241681, Note_on_c, 9, 44, 0
1, 241757, Note_on_c, 0, 57, 55
1, 241761, Note_on_c, 0, 67, 54
1, 241765, Note_on_c, 0, 60, 57
1, 241769, Note_on_c, 0, 55, 52
1, 241779, Note_on_c, 9, 51, 26
1, 241789, Note_on_c, 0, 62, 53
1, 241793, Note_on_c, 9, 35, 35
1, 241795, Note_on_c, 9, 51, 0
1, 241831, Note_on_c, 9, 35, 0
1, 241895, Note_on_c, 9, 51, 0
1, 241907, Note_on_c, 9, 51, 64
1, 241921, Note_on_c, 1, 32, 0
1, 241929, Note_on_c, 1, 33, 64
1, 242045, Note_on_c, 0, 55, 0
1, 242085, Note_on_c, 0, 57, 0
1, 242121, Note_on_c, 0, 67, 0
1, 242149, Note_on_c, 0, 60, 0
1, 242165, Note_on_c, 0, 62, 0
1, 242227, Note_on_c, 9, 51, 0
1, 242289, Note_on_c, 0, 57, 59
1, 242289, Note_on_c, 0, 65, 64
1, 242289, Note_on_c, 1, 34, 68
1, 242291, Note_on_c, 9, 51, 106
1, 242295, Note_on_c, 9, 44, 89
1, 242301, Note_on_c, 0, 53, 45
1, 242313, Note_on_c, 1, 33, 0
1, 242325, Note_on_c, 0, 60, 45
1, 242397, Note_on_c, 0, 60, 0
1, 242425, Note_on_c, 0, 53, 0
1, 242425, Note_on_c, 0, 57, 0
1, 242465, Note_on_c, 9, 44, 0
1, 242501, Note_on_c, 0, 65, 0
1, 242537, Note_on_c, 9, 51, 0
1, 242547, Note_on_c, 9, 51, 68
1, 242551, Note_on_c, 9, 35, 47
1, 242565, Note_on_c, 0, 43, 0
1, 242577, Note_on_c, 0, 50, 27
1, 242615, Note_on_c, 9, 51, 0
1, 242647, Note_on_c, 9, 35, 0
1, 242649, Note_on_c, 0, 50, 0
1, 242675, Note_on_c, 9, 51, 91
1, 242685, Note_on_c, 1, 34, 0
1, 242697, Note_on_c, 0, 55, 56
1, 242697, Note_on_c, 1, 35, 68
1, 242705, Note_on_c, 0, 67, 58
1, 242707, Note_on_c, 9, 35, 40
1, 242721, Note_on_c, 0, 60, 49
1, 242721, Note_on_c, 0, 57, 52
1, 242737, Note_on_c, 0, 62, 51
1, 242775, Note_on_c, 9, 35, 0
1, 242999, Note_on_c, 9, 51, 0
1, 243017, Note_on_c, 0, 55, 0
1, 243057, Note_on_c, 9, 51, 105
1, 243063, Note_on_c, 9, 44, 91
1, 243065, Note_on_c, 1, 35, 0
1, 243089, Note_on_c, 1, 31, 68
1, 243097, Note_on_c, 0, 57, 0
1, 243165, Note_on_c, 0, 60, 0
1, 243173, Note_on_c, 0, 67, 0
1, 243185, Note_on_c, 0, 62, 0
1, 243217, Note_on_c, 9, 44, 0
1, 243293, Control_c, 0, 64, 127
1, 243297, Note_on_c, 0, 57, 63
1, 243299, Note_on_c, 9, 35, 36
1, 243313, Note_on_c, 0, 60, 35
1, 243315, Note_on_c, 9, 51, 59
1, 243319, Note_on_c, 9, 51, 0
1, 243325, Note_on_c, 0, 65, 58
1, 243325, Note_on_c, 0, 53, 53
1, 243337, Note_on_c, 9, 35, 0
1, 243341, Note_on_c, 0, 57, 0
1, 243381, Note_on_c, 0, 60, 0
1, 243381, Note_on_c, 0, 53, 0
1, 243415, Note_on_c, 9, 51, 0
1, 243421, Note_on_c, 1, 31, 0
1, 243441, Note_on_c, 0, 65, 0
1, 243443, Note_on_c, 9, 51, 85
1, 243469, Note_on_c, 1, 35, 64
1, 243641, Control_c, 0, 64, 0
1, 243689, Note_on_c, 0, 54, 27
1, 243779, Note_on_c, 9, 51, 0
1, 243785, Note_on_c, 0, 54, 0
1, 243809, Note_on_c, 0, 74, 68
1, 243817, Note_on_c, 1, 35, 0
1, 243821, Note_on_c, 0, 59, 47
1, 243827, Note_on_c, 9, 51, 98
1, 243831, Note_on_c, 9, 44, 87
1, 243841, Note_on_c, 1, 38, 68
1, 243853, Note_on_c, 0, 68, 60
1, 243869, Note_on_c, 0, 64, 35
1, 243873, Note_on_c, 0, 59, 0
1, 243937, Note_on_c, 0, 74, 0
1, 243953, Note_on_c, 9, 44, 0
1, 244001, Note_on_c, 0, 64, 0
1, 244057, Note_on_c, 0, 68, 0
1, 244083, Note_on_c, 9, 51, 43
1, 244087, Note_on_c, 9, 51, 0
1, 244137, Note_on_c, 0, 72, 63
1, 244141, Note_on_c, 1, 38, 0
1, 244149, Note_on_c, 0, 62, 40
1, 244157, Note_on_c, 0, 67, 58
1, 244177, Note_on_c, 1, 35, 56
1, 244179, Note_on_c, 9, 51, 0
1, 244211, Note_on_c, 9, 51, 57
1, 244217, Note_on_c, 0, 62, 0
1, 244229, Note_on_c, 0, 67, 0
1, 244237, Note_on_c, 0, 72, 0
1, 244309, Note_on_c, 1, 35, 0
1, 244519, Note_on_c, 9, 51, 0
1, 244519, End_track
0, 0, End_of_file
