0, 0, Header, 1, 7, 384
1, 0, Start_track
1, 0, Title_t, "Just Friends"
1, 0, Text_t, "dougmck@pipeline.com.au \012"
1, 0, Text_t, " Mute or remove the flute for a play-a-long                    \012"
1, 0, Time_signature, 4, 2, 24, 8
1, 0, Key_signature, 0, "major"
1, 0, Tempo, 363636
1, 0, End_track
2, 0, Start_track
2, 0, Title_t, "Flute"
2, 0, Control_c, 2, 0, 0
2, 0, Program_c, 2, 73
2, 996, Note_on_c, 2, 82, 61
2, 1028, Note_on_c, 2, 83, 63
2, 1088, Note_on_c, 2, 82, 0
2, 1140, Note_on_c, 2, 83, 0
2, 1428, Note_on_c, 2, 82, 61
2, 1436, Note_on_c, 2, 83, 75
2, 1528, Note_on_c, 2, 82, 0
2, 2728, Note_on_c, 2, 83, 0
2, 2760, Note_on_c, 2, 82, 49
2, 2876, Note_on_c, 2, 82, 0
2, 3144, Note_on_c, 2, 83, 77
2, 3640, Note_on_c, 2, 83, 0
2, 3892, Note_on_c, 2, 81, 56
2, 4488, Note_on_c, 2, 81, 0
2, 4516, Note_on_c, 2, 75, 34
2, 6868, Note_on_c, 2, 75, 0
2, 6944, Note_on_c, 2, 80, 70
2, 7168, Note_on_c, 2, 80, 0
2, 7208, Note_on_c, 2, 81, 68
2, 7296, Note_on_c, 2, 81, 0
2, 7364, Note_on_c, 2, 81, 67
2, 7464, Note_on_c, 2, 81, 0
2, 7584, Note_on_c, 2, 81, 71
2, 7676, Note_on_c, 2, 81, 0
2, 7800, Note_on_c, 2, 80, 64
2, 7928, Note_on_c, 2, 81, 68
2, 7936, Note_on_c, 2, 80, 0
2, 8060, Note_on_c, 2, 81, 0
2, 8172, Note_on_c, 2, 81, 67
2, 9800, Note_on_c, 2, 81, 0
2, 9872, Note_on_c, 2, 79, 68
2, 9924, Note_on_c, 2, 79, 0
2, 10116, Note_on_c, 2, 81, 68
2, 10224, Note_on_c, 2, 81, 0
2, 10364, Note_on_c, 2, 79, 66
2, 10412, Note_on_c, 2, 79, 0
2, 10660, Note_on_c, 2, 73, 55
2, 11848, Note_on_c, 2, 73, 0
2, 13472, Note_on_c, 2, 77, 49
2, 13528, Note_on_c, 2, 77, 0
2, 13728, Note_on_c, 2, 78, 76
2, 13828, Note_on_c, 2, 78, 0
2, 13896, Note_on_c, 2, 79, 66
2, 14200, Note_on_c, 2, 79, 0
2, 14244, Note_on_c, 2, 76, 44
2, 14392, Note_on_c, 2, 76, 0
2, 14492, Note_on_c, 2, 78, 68
2, 14584, Note_on_c, 2, 79, 60
2, 14624, Note_on_c, 2, 78, 0
2, 14972, Note_on_c, 2, 79, 0
2, 14996, Note_on_c, 2, 76, 48
2, 15176, Note_on_c, 2, 76, 0
2, 15228, Note_on_c, 2, 78, 46
2, 15356, Note_on_c, 2, 78, 0
2, 15628, Note_on_c, 2, 78, 55
2, 15720, Note_on_c, 2, 78, 0
2, 16940, Note_on_c, 2, 78, 63
2, 17548, Note_on_c, 2, 78, 0
2, 17596, Note_on_c, 2, 74, 55
2, 17644, Note_on_c, 2, 74, 0
2, 17756, Note_on_c, 2, 78, 60
2, 17928, Note_on_c, 2, 78, 0
2, 17992, Note_on_c, 2, 74, 60
2, 18044, Note_on_c, 2, 74, 0
2, 18352, Note_on_c, 2, 76, 79
2, 18444, Note_on_c, 2, 76, 0
2, 18696, Note_on_c, 2, 78, 64
2, 18776, Note_on_c, 2, 78, 0
2, 19084, Note_on_c, 2, 79, 66
2, 19132, Note_on_c, 2, 79, 0
2, 19460, Note_on_c, 2, 83, 80
2, 19532, Note_on_c, 2, 83, 0
2, 19832, Note_on_c, 2, 88, 94
2, 20752, Note_on_c, 2, 88, 0
2, 20764, Note_on_c, 2, 82, 56
2, 20820, Note_on_c, 2, 83, 66
2, 20860, Note_on_c, 2, 82, 0
2, 21864, Note_on_c, 2, 83, 0
2, 21904, Note_on_c, 2, 76, 49
2, 22024, Note_on_c, 2, 76, 0
2, 22320, Note_on_c, 2, 76, 49
2, 22524, Note_on_c, 2, 76, 0
2, 22584, Note_on_c, 2, 78, 48
2, 22736, Note_on_c, 2, 78, 0
2, 22852, Note_on_c, 2, 79, 63
2, 22944, Note_on_c, 2, 79, 0
2, 22992, Note_on_c, 2, 81, 68
2, 23076, Note_on_c, 2, 81, 0
2, 23128, Note_on_c, 2, 82, 57
2, 23252, Note_on_c, 2, 82, 0
2, 23280, Note_on_c, 2, 83, 50
2, 23800, Note_on_c, 2, 83, 0
2, 23860, Note_on_c, 2, 81, 40
2, 24436, Note_on_c, 2, 81, 0
2, 24452, Note_on_c, 2, 80, 43
2, 24532, Note_on_c, 2, 80, 0
2, 24632, Note_on_c, 2, 81, 50
2, 25620, Note_on_c, 2, 83, 83
2, 25652, Note_on_c, 2, 81, 0
2, 26516, Note_on_c, 2, 83, 0
2, 26532, Note_on_c, 2, 79, 50
2, 26740, Note_on_c, 2, 79, 0
2, 27936, Note_on_c, 2, 76, 35
2, 27984, Note_on_c, 2, 76, 0
2, 28064, Note_on_c, 2, 81, 71
2, 28192, Note_on_c, 2, 81, 0
2, 28436, Note_on_c, 2, 83, 82
2, 28660, Note_on_c, 2, 83, 0
2, 28712, Note_on_c, 2, 81, 62
2, 28768, Note_on_c, 2, 81, 0
2, 29092, Note_on_c, 2, 75, 54
2, 31116, Note_on_c, 2, 75, 0
2, 31540, Note_on_c, 2, 80, 53
2, 31636, Note_on_c, 2, 80, 0
2, 31756, Note_on_c, 2, 81, 67
2, 31860, Note_on_c, 2, 81, 0
2, 31956, Note_on_c, 2, 81, 52
2, 32036, Note_on_c, 2, 81, 0
2, 32168, Note_on_c, 2, 81, 72
2, 32268, Note_on_c, 2, 81, 0
2, 32356, Note_on_c, 2, 80, 56
2, 32460, Note_on_c, 2, 80, 0
2, 32512, Note_on_c, 2, 81, 55
2, 32616, Note_on_c, 2, 81, 0
2, 32696, Note_on_c, 2, 81, 53
2, 32784, Note_on_c, 2, 81, 0
2, 32908, Note_on_c, 2, 81, 61
2, 33000, Note_on_c, 2, 81, 0
2, 33096, Note_on_c, 2, 81, 55
2, 33272, Note_on_c, 2, 81, 0
2, 33412, Note_on_c, 2, 78, 31
2, 33652, Note_on_c, 2, 78, 0
2, 33668, Note_on_c, 2, 74, 50
2, 33776, Note_on_c, 2, 74, 0
2, 34584, Note_on_c, 2, 79, 85
2, 34772, Note_on_c, 2, 79, 0
2, 34840, Note_on_c, 2, 81, 66
2, 34960, Note_on_c, 2, 81, 0
2, 34996, Note_on_c, 2, 79, 44
2, 35116, Note_on_c, 2, 79, 0
2, 35252, Note_on_c, 2, 79, 61
2, 35360, Note_on_c, 2, 79, 0
2, 35460, Note_on_c, 2, 73, 57
2, 35656, Note_on_c, 2, 73, 0
2, 35760, Note_on_c, 2, 73, 42
2, 36692, Note_on_c, 2, 73, 0
2, 37720, Note_on_c, 2, 78, 50
2, 37832, Note_on_c, 2, 78, 0
2, 37916, Note_on_c, 2, 79, 78
2, 38008, Note_on_c, 2, 79, 0
2, 38124, Note_on_c, 2, 79, 62
2, 38208, Note_on_c, 2, 79, 0
2, 38296, Note_on_c, 2, 78, 57
2, 38376, Note_on_c, 2, 78, 0
2, 38484, Note_on_c, 2, 79, 77
2, 38704, Note_on_c, 2, 79, 0
2, 38844, Note_on_c, 2, 76, 47
2, 38976, Note_on_c, 2, 76, 0
2, 39068, Note_on_c, 2, 79, 58
2, 39188, Note_on_c, 2, 79, 0
2, 39464, Note_on_c, 2, 76, 74
2, 39548, Note_on_c, 2, 76, 0
2, 39832, Note_on_c, 2, 78, 75
2, 40752, Note_on_c, 2, 78, 0
2, 40776, Note_on_c, 2, 74, 48
2, 40876, Note_on_c, 2, 74, 0
2, 41124, Note_on_c, 2, 81, 87
2, 41228, Note_on_c, 2, 81, 0
2, 41508, Note_on_c, 2, 81, 105
2, 41704, Note_on_c, 2, 81, 0
2, 42124, Note_on_c, 2, 78, 48
2, 42216, Note_on_c, 2, 78, 0
2, 42328, Note_on_c, 2, 81, 75
2, 42476, Note_on_c, 2, 81, 0
2, 42572, Note_on_c, 2, 78, 57
2, 42664, Note_on_c, 2, 78, 0
2, 42900, Note_on_c, 2, 79, 73
2, 42980, Note_on_c, 2, 79, 0
2, 43296, Note_on_c, 2, 81, 96
2, 43812, Note_on_c, 2, 82, 67
2, 43836, Note_on_c, 2, 81, 0
2, 43868, Note_on_c, 2, 82, 0
2, 43884, Note_on_c, 2, 83, 47
2, 44064, Note_on_c, 2, 83, 0
2, 44216, Note_on_c, 2, 86, 80
2, 44340, Note_on_c, 2, 86, 0
2, 44608, Note_on_c, 2, 88, 91
2, 45648, Note_on_c, 2, 88, 0
2, 45736, Note_on_c, 2, 76, 53
2, 45904, Note_on_c, 2, 76, 0
2, 46152, Note_on_c, 2, 86, 84
2, 46832, Note_on_c, 2, 86, 0
2, 46856, Note_on_c, 2, 82, 56
2, 46924, Note_on_c, 2, 82, 0
2, 46924, Note_on_c, 2, 83, 66
2, 47464, Note_on_c, 2, 83, 0
2, 47476, Note_on_c, 2, 79, 56
2, 49100, Note_on_c, 2, 79, 0
2, 49576, Note_on_c, 2, 67, 42
2, 49644, Note_on_c, 2, 67, 0
2, 49808, Note_on_c, 2, 70, 70
2, 49940, Note_on_c, 2, 70, 0
2, 50004, Note_on_c, 2, 75, 59
2, 50128, Note_on_c, 2, 75, 0
2, 50244, Note_on_c, 2, 79, 72
2, 50352, Note_on_c, 2, 79, 0
2, 50424, Note_on_c, 2, 82, 62
2, 50548, Note_on_c, 2, 82, 0
2, 50632, Note_on_c, 2, 87, 68
2, 50720, Note_on_c, 2, 87, 0
2, 50832, Note_on_c, 2, 86, 69
2, 50960, Note_on_c, 2, 86, 0
2, 51072, Note_on_c, 2, 83, 57
2, 51164, Note_on_c, 2, 83, 0
2, 51560, Note_on_c, 2, 83, 78
2, 51856, Note_on_c, 2, 83, 0
2, 51884, Note_on_c, 2, 79, 53
2, 52080, Note_on_c, 2, 79, 0
2, 52136, Note_on_c, 2, 76, 49
2, 52196, Note_on_c, 2, 76, 0
2, 53036, Note_on_c, 2, 74, 88
2, 53228, Note_on_c, 2, 74, 0
2, 53300, Note_on_c, 2, 71, 33
2, 53364, Note_on_c, 2, 71, 0
2, 53440, Note_on_c, 2, 72, 37
2, 53616, Note_on_c, 2, 72, 0
2, 53676, Note_on_c, 2, 74, 62
2, 53768, Note_on_c, 2, 74, 0
2, 53832, Note_on_c, 2, 75, 60
2, 54068, Note_on_c, 2, 75, 0
2, 54096, Note_on_c, 2, 71, 32
2, 54144, Note_on_c, 2, 71, 0
2, 54220, Note_on_c, 2, 74, 70
2, 54416, Note_on_c, 2, 74, 0
2, 54464, Note_on_c, 2, 71, 38
2, 54524, Note_on_c, 2, 71, 0
2, 54620, Note_on_c, 2, 72, 35
2, 54828, Note_on_c, 2, 72, 0
2, 54836, Note_on_c, 2, 74, 59
2, 54944, Note_on_c, 2, 74, 0
2, 55036, Note_on_c, 2, 75, 42
2, 55168, Note_on_c, 2, 75, 0
2, 55232, Note_on_c, 2, 77, 69
2, 55344, Note_on_c, 2, 77, 0
2, 55400, Note_on_c, 2, 78, 47
2, 55516, Note_on_c, 2, 78, 0
2, 55616, Note_on_c, 2, 80, 80
2, 55712, Note_on_c, 2, 80, 0
2, 55768, Note_on_c, 2, 81, 89
2, 55928, Note_on_c, 2, 81, 0
2, 55984, Note_on_c, 2, 80, 67
2, 56096, Note_on_c, 2, 80, 0
2, 56160, Note_on_c, 2, 78, 44
2, 56360, Note_on_c, 2, 78, 0
2, 56384, Note_on_c, 2, 77, 62
2, 56460, Note_on_c, 2, 77, 0
2, 56504, Note_on_c, 2, 75, 42
2, 56712, Note_on_c, 2, 75, 0
2, 56752, Note_on_c, 2, 72, 44
2, 56800, Note_on_c, 2, 72, 0
2, 56904, Note_on_c, 2, 73, 39
2, 57064, Note_on_c, 2, 73, 0
2, 57108, Note_on_c, 2, 74, 64
2, 57176, Note_on_c, 2, 74, 0
2, 57300, Note_on_c, 2, 70, 40
2, 57432, Note_on_c, 2, 70, 0
2, 57476, Note_on_c, 2, 71, 68
2, 57584, Note_on_c, 2, 71, 0
2, 57700, Note_on_c, 2, 66, 47
2, 57856, Note_on_c, 2, 66, 0
2, 57940, Note_on_c, 2, 67, 29
2, 57980, Note_on_c, 2, 67, 0
2, 59952, Note_on_c, 2, 84, 67
2, 60060, Note_on_c, 2, 84, 0
2, 60196, Note_on_c, 2, 85, 64
2, 60292, Note_on_c, 2, 85, 0
2, 60348, Note_on_c, 2, 87, 71
2, 60504, Note_on_c, 2, 87, 0
2, 60580, Note_on_c, 2, 85, 64
2, 60716, Note_on_c, 2, 85, 0
2, 60772, Note_on_c, 2, 84, 42
2, 60932, Note_on_c, 2, 84, 0
2, 61104, Note_on_c, 2, 84, 48
2, 61360, Note_on_c, 2, 84, 0
2, 61468, Note_on_c, 2, 82, 52
2, 62048, Note_on_c, 2, 82, 0
2, 63660, Note_on_c, 2, 79, 43
2, 63704, Note_on_c, 2, 79, 0
2, 63804, Note_on_c, 2, 83, 58
2, 63812, Note_on_c, 2, 84, 66
2, 63908, Note_on_c, 2, 84, 0
2, 63944, Note_on_c, 2, 83, 0
2, 64044, Note_on_c, 2, 79, 57
2, 64160, Note_on_c, 2, 79, 0
2, 64184, Note_on_c, 2, 76, 46
2, 64420, Note_on_c, 2, 76, 0
2, 64432, Note_on_c, 2, 72, 37
2, 64496, Note_on_c, 2, 72, 0
2, 64640, Note_on_c, 2, 78, 9
2, 64728, Note_on_c, 2, 78, 0
2, 65304, Note_on_c, 2, 78, 78
2, 65504, Note_on_c, 2, 78, 0
2, 65576, Note_on_c, 2, 72, 32
2, 65624, Note_on_c, 2, 72, 0
2, 65680, Note_on_c, 2, 74, 57
2, 65824, Note_on_c, 2, 74, 0
2, 65920, Note_on_c, 2, 75, 68
2, 66076, Note_on_c, 2, 75, 0
2, 66128, Note_on_c, 2, 74, 51
2, 66288, Note_on_c, 2, 74, 0
2, 67472, Note_on_c, 2, 70, 49
2, 67556, Note_on_c, 2, 70, 0
2, 67640, Note_on_c, 2, 71, 43
2, 67736, Note_on_c, 2, 71, 0
2, 68236, Note_on_c, 2, 71, 57
2, 68332, Note_on_c, 2, 71, 0
2, 68408, Note_on_c, 2, 75, 48
2, 68524, Note_on_c, 2, 75, 0
2, 68632, Note_on_c, 2, 76, 54
2, 68720, Note_on_c, 2, 76, 0
2, 68776, Note_on_c, 2, 79, 62
2, 68876, Note_on_c, 2, 79, 0
2, 68996, Note_on_c, 2, 83, 68
2, 69084, Note_on_c, 2, 83, 0
2, 69160, Note_on_c, 2, 86, 90
2, 69360, Note_on_c, 2, 86, 0
2, 69396, Note_on_c, 2, 82, 55
2, 69480, Note_on_c, 2, 82, 0
2, 69564, Note_on_c, 2, 85, 74
2, 70124, Note_on_c, 2, 85, 0
2, 70156, Note_on_c, 2, 82, 59
2, 70264, Note_on_c, 2, 82, 0
2, 70324, Note_on_c, 2, 79, 29
2, 70548, Note_on_c, 2, 79, 0
2, 71320, Note_on_c, 2, 69, 54
2, 71428, Note_on_c, 2, 69, 0
2, 71488, Note_on_c, 2, 70, 46
2, 71620, Note_on_c, 2, 70, 0
2, 71724, Note_on_c, 2, 73, 46
2, 71796, Note_on_c, 2, 73, 0
2, 71884, Note_on_c, 2, 76, 41
2, 72008, Note_on_c, 2, 76, 0
2, 72100, Note_on_c, 2, 81, 44
2, 72240, Note_on_c, 2, 82, 56
2, 72244, Note_on_c, 2, 81, 0
2, 72444, Note_on_c, 2, 82, 0
2, 72480, Note_on_c, 2, 83, 64
2, 72608, Note_on_c, 2, 83, 0
2, 72844, Note_on_c, 2, 86, 90
2, 72980, Note_on_c, 2, 86, 0
2, 73228, Note_on_c, 2, 83, 80
2, 73344, Note_on_c, 2, 83, 0
2, 73600, Note_on_c, 2, 86, 91
2, 73708, Note_on_c, 2, 86, 0
2, 73796, Note_on_c, 2, 83, 71
2, 73956, Note_on_c, 2, 83, 0
2, 74008, Note_on_c, 2, 79, 47
2, 74060, Note_on_c, 2, 79, 0
2, 74304, Note_on_c, 2, 75, 43
2, 74344, Note_on_c, 2, 75, 0
2, 74508, Note_on_c, 2, 85, 77
2, 74644, Note_on_c, 2, 85, 0
2, 74748, Note_on_c, 2, 82, 52
2, 74872, Note_on_c, 2, 82, 0
2, 74952, Note_on_c, 2, 79, 55
2, 75108, Note_on_c, 2, 79, 0
2, 75136, Note_on_c, 2, 75, 50
2, 75216, Note_on_c, 2, 75, 0
2, 75304, Note_on_c, 2, 83, 78
2, 75616, Note_on_c, 2, 83, 0
2, 75688, Note_on_c, 2, 81, 70
2, 75852, Note_on_c, 2, 81, 0
2, 75916, Note_on_c, 2, 83, 61
2, 76016, Note_on_c, 2, 83, 0
2, 76832, Note_on_c, 2, 83, 80
2, 76840, Note_on_c, 2, 81, 81
2, 76996, Note_on_c, 2, 81, 0
2, 77020, Note_on_c, 2, 83, 0
2, 77216, Note_on_c, 2, 81, 67
2, 77360, Note_on_c, 2, 81, 0
2, 77468, Note_on_c, 2, 83, 70
2, 77576, Note_on_c, 2, 83, 0
2, 77628, Note_on_c, 2, 79, 58
2, 77800, Note_on_c, 2, 79, 0
2, 77856, Note_on_c, 2, 76, 57
2, 77920, Note_on_c, 2, 76, 0
2, 78228, Note_on_c, 2, 82, 76
2, 78356, Note_on_c, 2, 82, 0
2, 78632, Note_on_c, 2, 81, 80
2, 78752, Note_on_c, 2, 81, 0
2, 78968, Note_on_c, 2, 82, 81
2, 79092, Note_on_c, 2, 82, 0
2, 79156, Note_on_c, 2, 81, 61
2, 79280, Note_on_c, 2, 81, 0
2, 79380, Note_on_c, 2, 79, 67
2, 79484, Note_on_c, 2, 79, 0
2, 79572, Note_on_c, 2, 78, 21
2, 79628, Note_on_c, 2, 78, 0
2, 80180, Note_on_c, 2, 72, 62
2, 80220, Note_on_c, 2, 72, 0
2, 80324, Note_on_c, 2, 78, 72
2, 80504, Note_on_c, 2, 78, 0
2, 80708, Note_on_c, 2, 77, 68
2, 80892, Note_on_c, 2, 77, 0
2, 81076, Note_on_c, 2, 76, 71
2, 81244, Note_on_c, 2, 76, 0
2, 81304, Note_on_c, 2, 72, 58
2, 81348, Note_on_c, 2, 72, 0
2, 81456, Note_on_c, 2, 74, 69
2, 81628, Note_on_c, 2, 74, 0
2, 81692, Note_on_c, 2, 71, 61
2, 81796, Note_on_c, 2, 71, 0
2, 81872, Note_on_c, 2, 67, 30
2, 82060, Note_on_c, 2, 67, 0
2, 82084, Note_on_c, 2, 66, 51
2, 82184, Note_on_c, 2, 66, 0
2, 82236, Note_on_c, 2, 69, 67
2, 82428, Note_on_c, 2, 69, 0
2, 82480, Note_on_c, 2, 66, 46
2, 82564, Note_on_c, 2, 66, 0
2, 82620, Note_on_c, 2, 67, 57
2, 82756, Note_on_c, 2, 67, 0
2, 82852, Note_on_c, 2, 69, 49
2, 82940, Note_on_c, 2, 69, 0
2, 83044, Note_on_c, 2, 70, 42
2, 83160, Note_on_c, 2, 70, 0
2, 83244, Note_on_c, 2, 71, 59
2, 83356, Note_on_c, 2, 71, 0
2, 83404, Note_on_c, 2, 74, 58
2, 83568, Note_on_c, 2, 74, 0
2, 83632, Note_on_c, 2, 78, 72
2, 83768, Note_on_c, 2, 78, 0
2, 83820, Note_on_c, 2, 71, 24
2, 83872, Note_on_c, 2, 71, 0
2, 83996, Note_on_c, 2, 74, 46
2, 84016, Note_on_c, 2, 76, 25
2, 84060, Note_on_c, 2, 76, 0
2, 84136, Note_on_c, 2, 74, 0
2, 84160, Note_on_c, 2, 78, 57
2, 84260, Note_on_c, 2, 78, 0
2, 84372, Note_on_c, 2, 83, 74
2, 84476, Note_on_c, 2, 83, 0
2, 85616, Note_on_c, 2, 87, 77
2, 85708, Note_on_c, 2, 87, 0
2, 85744, Note_on_c, 2, 89, 58
2, 85848, Note_on_c, 2, 89, 0
2, 86012, Note_on_c, 2, 85, 69
2, 86136, Note_on_c, 2, 87, 69
2, 86140, Note_on_c, 2, 85, 0
2, 86236, Note_on_c, 2, 87, 0
2, 86412, Note_on_c, 2, 84, 72
2, 86516, Note_on_c, 2, 85, 71
2, 86520, Note_on_c, 2, 84, 0
2, 86608, Note_on_c, 2, 85, 0
2, 86816, Note_on_c, 2, 82, 76
2, 86904, Note_on_c, 2, 82, 0
2, 86984, Note_on_c, 2, 84, 35
2, 86988, Note_on_c, 2, 83, 37
2, 87036, Note_on_c, 2, 83, 0
2, 87044, Note_on_c, 2, 84, 0
2, 87192, Note_on_c, 2, 81, 82
2, 87268, Note_on_c, 2, 81, 0
2, 87328, Note_on_c, 2, 82, 53
2, 87404, Note_on_c, 2, 82, 0
2, 87616, Note_on_c, 2, 83, 80
2, 87900, Note_on_c, 2, 83, 0
2, 87936, Note_on_c, 2, 86, 78
2, 88028, Note_on_c, 2, 86, 0
2, 88268, Note_on_c, 2, 83, 80
2, 88368, Note_on_c, 2, 83, 0
2, 88448, Note_on_c, 2, 79, 62
2, 88648, Note_on_c, 2, 79, 0
2, 88676, Note_on_c, 2, 76, 48
2, 88732, Note_on_c, 2, 76, 0
2, 88992, Note_on_c, 2, 83, 74
2, 89088, Note_on_c, 2, 83, 0
2, 89360, Note_on_c, 2, 82, 79
2, 89896, Note_on_c, 2, 82, 0
2, 89924, Note_on_c, 2, 81, 56
2, 90044, Note_on_c, 2, 81, 0
2, 90272, Note_on_c, 2, 79, 55
2, 90424, Note_on_c, 2, 79, 0
2, 90656, Note_on_c, 2, 78, 48
2, 91352, Note_on_c, 2, 78, 0
2, 91452, Note_on_c, 2, 71, 37
2, 91652, Note_on_c, 2, 71, 0
2, 91680, Note_on_c, 2, 73, 52
2, 91816, Note_on_c, 2, 73, 0
2, 91848, Note_on_c, 2, 74, 57
2, 91976, Note_on_c, 2, 74, 0
2, 92064, Note_on_c, 2, 75, 69
2, 92192, Note_on_c, 2, 75, 0
2, 92260, Note_on_c, 2, 76, 44
2, 92424, Note_on_c, 2, 76, 0
2, 92484, Note_on_c, 2, 79, 58
2, 92540, Note_on_c, 2, 79, 0
2, 92824, Note_on_c, 2, 71, 49
2, 92928, Note_on_c, 2, 71, 0
2, 93232, Note_on_c, 2, 70, 61
2, 93656, Note_on_c, 2, 70, 0
2, 93740, Note_on_c, 2, 69, 44
2, 93956, Note_on_c, 2, 69, 0
2, 94140, Note_on_c, 2, 71, 58
2, 94332, Note_on_c, 2, 71, 0
2, 94524, Note_on_c, 2, 72, 49
2, 94752, Note_on_c, 2, 72, 0
2, 94928, Note_on_c, 2, 73, 51
2, 95124, Note_on_c, 2, 73, 0
2, 95300, Note_on_c, 2, 74, 33
2, 96288, Note_on_c, 2, 74, 0
2, 96396, Note_on_c, 2, 73, 37
2, 96636, Note_on_c, 2, 73, 0
2, 96640, Note_on_c, 2, 74, 60
2, 96872, Note_on_c, 2, 74, 0
2, 97064, Note_on_c, 2, 86, 34
2, 97160, Note_on_c, 2, 86, 0
2, 97860, Note_on_c, 2, 86, 91
2, 97964, Note_on_c, 2, 86, 0
2, 98248, Note_on_c, 2, 86, 84
2, 98492, Note_on_c, 2, 86, 0
2, 98984, Note_on_c, 2, 82, 51
2, 99024, Note_on_c, 2, 82, 0
2, 99144, Note_on_c, 2, 87, 84
2, 99308, Note_on_c, 2, 87, 0
2, 99376, Note_on_c, 2, 82, 71
2, 99460, Note_on_c, 2, 82, 0
2, 99516, Note_on_c, 2, 79, 45
2, 99644, Note_on_c, 2, 79, 0
2, 99756, Note_on_c, 2, 86, 89
2, 99916, Note_on_c, 2, 86, 0
2, 99964, Note_on_c, 2, 83, 71
2, 100076, Note_on_c, 2, 83, 0
2, 100180, Note_on_c, 2, 79, 53
2, 100252, Note_on_c, 2, 79, 0
2, 100336, Note_on_c, 2, 76, 43
2, 100464, Note_on_c, 2, 76, 0
2, 101796, Note_on_c, 2, 83, 64
2, 101908, Note_on_c, 2, 83, 0
2, 101924, Note_on_c, 2, 84, 56
2, 101984, Note_on_c, 2, 86, 57
2, 102012, Note_on_c, 2, 84, 0
2, 102040, Note_on_c, 2, 86, 0
2, 102964, Note_on_c, 2, 83, 63
2, 102976, Note_on_c, 2, 84, 65
2, 103044, Note_on_c, 2, 84, 0
2, 103080, Note_on_c, 2, 83, 0
2, 103212, Note_on_c, 2, 79, 74
2, 103308, Note_on_c, 2, 79, 0
2, 103568, Note_on_c, 2, 75, 58
2, 103656, Note_on_c, 2, 75, 0
2, 103728, Note_on_c, 2, 74, 36
2, 103900, Note_on_c, 2, 74, 0
2, 103956, Note_on_c, 2, 71, 44
2, 104060, Note_on_c, 2, 71, 0
2, 104100, Note_on_c, 2, 72, 70
2, 104324, Note_on_c, 2, 72, 0
2, 104348, Note_on_c, 2, 74, 61
2, 104492, Note_on_c, 2, 74, 0
2, 104540, Note_on_c, 2, 75, 45
2, 104688, Note_on_c, 2, 75, 0
2, 104768, Note_on_c, 2, 76, 62
2, 104864, Note_on_c, 2, 76, 0
2, 104916, Note_on_c, 2, 77, 47
2, 105012, Note_on_c, 2, 77, 0
2, 105124, Note_on_c, 2, 78, 67
2, 105216, Note_on_c, 2, 78, 0
2, 105272, Note_on_c, 2, 80, 74
2, 105436, Note_on_c, 2, 80, 0
2, 105496, Note_on_c, 2, 77, 56
2, 105560, Note_on_c, 2, 77, 0
2, 105660, Note_on_c, 2, 78, 68
2, 105828, Note_on_c, 2, 78, 0
2, 105864, Note_on_c, 2, 75, 62
2, 105944, Note_on_c, 2, 75, 0
2, 106032, Note_on_c, 2, 79, 77
2, 106224, Note_on_c, 2, 79, 0
2, 106252, Note_on_c, 2, 78, 42
2, 106348, Note_on_c, 2, 78, 0
2, 106448, Note_on_c, 2, 74, 32
2, 106604, Note_on_c, 2, 74, 0
2, 106656, Note_on_c, 2, 71, 62
2, 106764, Note_on_c, 2, 71, 0
2, 106900, Note_on_c, 2, 66, 9
2, 107004, Note_on_c, 2, 66, 0
2, 107532, Note_on_c, 2, 66, 40
2, 107664, Note_on_c, 2, 66, 0
2, 107748, Note_on_c, 2, 67, 57
2, 107848, Note_on_c, 2, 67, 0
2, 107932, Note_on_c, 2, 70, 51
2, 108072, Note_on_c, 2, 70, 0
2, 108156, Note_on_c, 2, 71, 64
2, 108252, Note_on_c, 2, 71, 0
2, 108324, Note_on_c, 2, 73, 53
2, 108456, Note_on_c, 2, 73, 0
2, 108552, Note_on_c, 2, 74, 60
2, 108656, Note_on_c, 2, 74, 0
2, 108712, Note_on_c, 2, 78, 42
2, 108840, Note_on_c, 2, 78, 0
2, 108940, Note_on_c, 2, 79, 61
2, 109016, Note_on_c, 2, 79, 0
2, 109336, Note_on_c, 2, 84, 71
2, 109340, Note_on_c, 2, 83, 81
2, 109388, Note_on_c, 2, 84, 0
2, 109436, Note_on_c, 2, 83, 0
2, 109584, Note_on_c, 2, 81, 20
2, 109656, Note_on_c, 2, 81, 0
2, 109708, Note_on_c, 2, 82, 62
2, 109832, Note_on_c, 2, 82, 0
2, 109924, Note_on_c, 2, 84, 22
2, 110044, Note_on_c, 2, 84, 0
2, 110104, Note_on_c, 2, 85, 83
2, 110192, Note_on_c, 2, 85, 0
2, 110276, Note_on_c, 2, 87, 87
2, 110396, Note_on_c, 2, 87, 0
2, 110484, Note_on_c, 2, 88, 88
2, 110644, Note_on_c, 2, 88, 0
2, 110656, Note_on_c, 2, 87, 67
2, 110792, Note_on_c, 2, 87, 0
2, 110864, Note_on_c, 2, 85, 55
2, 111012, Note_on_c, 2, 85, 0
2, 111048, Note_on_c, 2, 84, 31
2, 111168, Note_on_c, 2, 84, 0
2, 111276, Note_on_c, 2, 82, 25
2, 111312, Note_on_c, 2, 82, 0
2, 112136, Note_on_c, 2, 83, 82
2, 112208, Note_on_c, 2, 83, 0
2, 112276, Note_on_c, 2, 86, 80
2, 112352, Note_on_c, 2, 86, 0
2, 112536, Note_on_c, 2, 79, 77
2, 112600, Note_on_c, 2, 79, 0
2, 112664, Note_on_c, 2, 83, 70
2, 112764, Note_on_c, 2, 83, 0
2, 112904, Note_on_c, 2, 76, 62
2, 112944, Note_on_c, 2, 76, 0
2, 113024, Note_on_c, 2, 79, 67
2, 113140, Note_on_c, 2, 79, 0
2, 113304, Note_on_c, 2, 74, 66
2, 113416, Note_on_c, 2, 74, 0
2, 113588, Note_on_c, 2, 78, 68
2, 113704, Note_on_c, 2, 78, 0
2, 113956, Note_on_c, 2, 74, 80
2, 114036, Note_on_c, 2, 74, 0
2, 114328, Note_on_c, 2, 71, 54
2, 114456, Note_on_c, 2, 71, 0
2, 115208, Note_on_c, 2, 83, 95
2, 115308, Note_on_c, 2, 83, 0
2, 115460, Note_on_c, 2, 86, 103
2, 115552, Note_on_c, 2, 86, 0
2, 115700, Note_on_c, 2, 83, 80
2, 115812, Note_on_c, 2, 83, 0
2, 115904, Note_on_c, 2, 78, 73
2, 116040, Note_on_c, 2, 78, 0
2, 116116, Note_on_c, 2, 74, 33
2, 116252, Note_on_c, 2, 74, 0
2, 116372, Note_on_c, 2, 75, 74
2, 116596, Note_on_c, 2, 75, 0
2, 116864, Note_on_c, 2, 76, 68
2, 117088, Note_on_c, 2, 76, 0
2, 117192, Note_on_c, 2, 75, 52
2, 117356, Note_on_c, 2, 75, 0
2, 117428, Note_on_c, 2, 76, 68
2, 117532, Note_on_c, 2, 76, 0
2, 117592, Note_on_c, 2, 78, 57
2, 117732, Note_on_c, 2, 78, 0
2, 117816, Note_on_c, 2, 79, 55
2, 117916, Note_on_c, 2, 79, 0
2, 117960, Note_on_c, 2, 81, 69
2, 118064, Note_on_c, 2, 81, 0
2, 118176, Note_on_c, 2, 82, 78
2, 118316, Note_on_c, 2, 82, 0
2, 118364, Note_on_c, 2, 81, 64
2, 118580, Note_on_c, 2, 81, 0
2, 118676, Note_on_c, 2, 76, 44
2, 118864, Note_on_c, 2, 76, 0
2, 118944, Note_on_c, 2, 74, 62
2, 119036, Note_on_c, 2, 74, 0
2, 119156, Note_on_c, 2, 73, 54
2, 119336, Note_on_c, 2, 73, 0
2, 119412, Note_on_c, 2, 67, 33
2, 119420, Note_on_c, 2, 69, 31
2, 119468, Note_on_c, 2, 67, 0
2, 119480, Note_on_c, 2, 69, 0
2, 119696, Note_on_c, 2, 69, 59
2, 119788, Note_on_c, 2, 69, 0
2, 120472, Note_on_c, 2, 68, 63
2, 120596, Note_on_c, 2, 68, 0
2, 120656, Note_on_c, 2, 69, 50
2, 120792, Note_on_c, 2, 69, 0
2, 120864, Note_on_c, 2, 70, 53
2, 120972, Note_on_c, 2, 70, 0
2, 121036, Note_on_c, 2, 71, 50
2, 121164, Note_on_c, 2, 71, 0
2, 121240, Note_on_c, 2, 72, 39
2, 121368, Note_on_c, 2, 72, 0
2, 121372, Note_on_c, 2, 76, 58
2, 121544, Note_on_c, 2, 76, 0
2, 121616, Note_on_c, 2, 71, 57
2, 121704, Note_on_c, 2, 71, 0
2, 121768, Note_on_c, 2, 72, 58
2, 121868, Note_on_c, 2, 72, 0
2, 122004, Note_on_c, 2, 76, 61
2, 122100, Note_on_c, 2, 76, 0
2, 122180, Note_on_c, 2, 79, 48
2, 122272, Note_on_c, 2, 79, 0
2, 122392, Note_on_c, 2, 83, 53
2, 122480, Note_on_c, 2, 83, 0
2, 122540, Note_on_c, 2, 86, 83
2, 122668, Note_on_c, 2, 86, 0
2, 122760, Note_on_c, 2, 85, 71
2, 122916, Note_on_c, 2, 85, 0
2, 122932, Note_on_c, 2, 84, 58
2, 123092, Note_on_c, 2, 84, 0
2, 123168, Note_on_c, 2, 80, 47
2, 123212, Note_on_c, 2, 80, 0
2, 123308, Note_on_c, 2, 83, 79
2, 123524, Note_on_c, 2, 82, 67
2, 123548, Note_on_c, 2, 83, 0
2, 123640, Note_on_c, 2, 82, 0
2, 123704, Note_on_c, 2, 81, 57
2, 123872, Note_on_c, 2, 81, 0
2, 123896, Note_on_c, 2, 80, 68
2, 124052, Note_on_c, 2, 80, 0
2, 124088, Note_on_c, 2, 79, 46
2, 124256, Note_on_c, 2, 79, 0
2, 124348, Note_on_c, 2, 76, 29
2, 124392, Note_on_c, 2, 76, 0
2, 124472, Note_on_c, 2, 79, 73
2, 124644, Note_on_c, 2, 79, 0
2, 124700, Note_on_c, 2, 81, 69
2, 124864, Note_on_c, 2, 79, 66
2, 124888, Note_on_c, 2, 81, 0
2, 125040, Note_on_c, 2, 79, 0
2, 125096, Note_on_c, 2, 76, 64
2, 125192, Note_on_c, 2, 76, 0
2, 125616, Note_on_c, 2, 79, 81
2, 125776, Note_on_c, 2, 79, 0
2, 125828, Note_on_c, 2, 81, 72
2, 125940, Note_on_c, 2, 81, 0
2, 125992, Note_on_c, 2, 79, 52
2, 126156, Note_on_c, 2, 79, 0
2, 126212, Note_on_c, 2, 76, 62
2, 126328, Note_on_c, 2, 76, 0
2, 126364, Note_on_c, 2, 72, 36
2, 126496, Note_on_c, 2, 72, 0
2, 126760, Note_on_c, 2, 79, 80
2, 126872, Note_on_c, 2, 79, 0
2, 126976, Note_on_c, 2, 81, 80
2, 127128, Note_on_c, 2, 81, 0
2, 127136, Note_on_c, 2, 79, 66
2, 127244, Note_on_c, 2, 79, 0
2, 127380, Note_on_c, 2, 75, 68
2, 127472, Note_on_c, 2, 75, 0
2, 127548, Note_on_c, 2, 72, 60
2, 127652, Note_on_c, 2, 72, 0
2, 127796, Note_on_c, 2, 75, 50
2, 127836, Note_on_c, 2, 75, 0
2, 127932, Note_on_c, 2, 79, 71
2, 128056, Note_on_c, 2, 79, 0
2, 128140, Note_on_c, 2, 81, 79
2, 128276, Note_on_c, 2, 81, 0
2, 128312, Note_on_c, 2, 79, 41
2, 128452, Note_on_c, 2, 79, 0
2, 128520, Note_on_c, 2, 75, 52
2, 128616, Note_on_c, 2, 75, 0
2, 128692, Note_on_c, 2, 72, 42
2, 128768, Note_on_c, 2, 72, 0
2, 129040, Note_on_c, 2, 78, 64
2, 129176, Note_on_c, 2, 78, 0
2, 129276, Note_on_c, 2, 81, 88
2, 129384, Note_on_c, 2, 81, 0
2, 129444, Note_on_c, 2, 78, 51
2, 129552, Note_on_c, 2, 78, 0
2, 129648, Note_on_c, 2, 75, 74
2, 129824, Note_on_c, 2, 75, 0
2, 129840, Note_on_c, 2, 71, 33
2, 129920, Note_on_c, 2, 71, 0
2, 130076, Note_on_c, 2, 75, 51
2, 130120, Note_on_c, 2, 75, 0
2, 130204, Note_on_c, 2, 78, 71
2, 130220, Note_on_c, 2, 75, 25
2, 130256, Note_on_c, 2, 75, 0
2, 130360, Note_on_c, 2, 78, 0
2, 130436, Note_on_c, 2, 81, 85
2, 130556, Note_on_c, 2, 81, 0
2, 130608, Note_on_c, 2, 77, 58
2, 130756, Note_on_c, 2, 77, 0
2, 130820, Note_on_c, 2, 74, 63
2, 130964, Note_on_c, 2, 74, 0
2, 130988, Note_on_c, 2, 70, 33
2, 131080, Note_on_c, 2, 70, 0
2, 131360, Note_on_c, 2, 74, 66
2, 131528, Note_on_c, 2, 74, 0
2, 131612, Note_on_c, 2, 69, 58
2, 131668, Note_on_c, 2, 69, 0
2, 131756, Note_on_c, 2, 70, 56
2, 131916, Note_on_c, 2, 70, 0
2, 131976, Note_on_c, 2, 72, 69
2, 132096, Note_on_c, 2, 72, 0
2, 132120, Note_on_c, 2, 69, 55
2, 132344, Note_on_c, 2, 69, 0
2, 132372, Note_on_c, 2, 65, 64
2, 132412, Note_on_c, 2, 65, 0
2, 133908, Note_on_c, 2, 69, 25
2, 133944, Note_on_c, 2, 69, 0
2, 134004, Note_on_c, 2, 72, 66
2, 134100, Note_on_c, 2, 72, 0
2, 134136, Note_on_c, 2, 69, 65
2, 134196, Note_on_c, 2, 69, 0
2, 134256, Note_on_c, 2, 70, 44
2, 134316, Note_on_c, 2, 70, 0
2, 134376, Note_on_c, 2, 72, 58
2, 134444, Note_on_c, 2, 72, 0
2, 134504, Note_on_c, 2, 73, 45
2, 134592, Note_on_c, 2, 73, 0
2, 134656, Note_on_c, 2, 75, 46
2, 134696, Note_on_c, 2, 75, 0
2, 135876, Note_on_c, 2, 72, 75
2, 135888, Note_on_c, 2, 74, 66
2, 135924, Note_on_c, 2, 74, 0
2, 135956, Note_on_c, 2, 72, 0
2, 136020, Note_on_c, 2, 69, 60
2, 136176, Note_on_c, 2, 69, 0
2, 136224, Note_on_c, 2, 70, 67
2, 136336, Note_on_c, 2, 70, 0
2, 136384, Note_on_c, 2, 71, 67
2, 136524, Note_on_c, 2, 71, 0
2, 136612, Note_on_c, 2, 73, 64
2, 136696, Note_on_c, 2, 73, 0
2, 137004, Note_on_c, 2, 72, 70
2, 137108, Note_on_c, 2, 72, 0
2, 137180, Note_on_c, 2, 76, 43
2, 137288, Note_on_c, 2, 76, 0
2, 137328, Note_on_c, 2, 79, 67
2, 137372, Note_on_c, 2, 79, 0
2, 137448, Note_on_c, 2, 83, 77
2, 137528, Note_on_c, 2, 83, 0
2, 137588, Note_on_c, 2, 86, 94
2, 137736, Note_on_c, 2, 86, 0
2, 137808, Note_on_c, 2, 85, 77
2, 137916, Note_on_c, 2, 85, 0
2, 137996, Note_on_c, 2, 84, 54
2, 138120, Note_on_c, 2, 84, 0
2, 138192, Note_on_c, 2, 80, 47
2, 138276, Note_on_c, 2, 80, 0
2, 138332, Note_on_c, 2, 83, 77
2, 138484, Note_on_c, 2, 83, 0
2, 138552, Note_on_c, 2, 82, 68
2, 138644, Note_on_c, 2, 82, 0
2, 138716, Note_on_c, 2, 81, 59
2, 138836, Note_on_c, 2, 81, 0
2, 138920, Note_on_c, 2, 78, 62
2, 139028, Note_on_c, 2, 78, 0
2, 139104, Note_on_c, 2, 74, 46
2, 139288, Note_on_c, 2, 74, 0
2, 139820, Note_on_c, 2, 81, 91
2, 139972, Note_on_c, 2, 81, 0
2, 140208, Note_on_c, 2, 76, 74
2, 140336, Note_on_c, 2, 76, 0
2, 140464, Note_on_c, 2, 71, 47
2, 140544, Note_on_c, 2, 71, 0
2, 140612, Note_on_c, 2, 75, 68
2, 140776, Note_on_c, 2, 75, 0
2, 140880, Note_on_c, 2, 70, 37
2, 140920, Note_on_c, 2, 70, 0
2, 141208, Note_on_c, 2, 71, 74
2, 141284, Note_on_c, 2, 71, 0
2, 142124, Note_on_c, 2, 69, 55
2, 142240, Note_on_c, 2, 69, 0
2, 142360, Note_on_c, 2, 70, 51
2, 142444, Note_on_c, 2, 70, 0
2, 142500, Note_on_c, 2, 71, 49
2, 142588, Note_on_c, 2, 71, 0
2, 143128, Note_on_c, 2, 73, 71
2, 143224, Note_on_c, 2, 73, 0
2, 143512, Note_on_c, 2, 73, 60
2, 143600, Note_on_c, 2, 73, 0
2, 143672, Note_on_c, 2, 76, 57
2, 143804, Note_on_c, 2, 76, 0
2, 143888, Note_on_c, 2, 79, 73
2, 143972, Note_on_c, 2, 79, 0
2, 144056, Note_on_c, 2, 79, 53
2, 144132, Note_on_c, 2, 79, 0
2, 144308, Note_on_c, 2, 81, 51
2, 144308, Note_on_c, 2, 83, 44
2, 144344, Note_on_c, 2, 81, 0
2, 144352, Note_on_c, 2, 83, 0
2, 144476, Note_on_c, 2, 82, 69
2, 144568, Note_on_c, 2, 82, 0
2, 144584, Note_on_c, 2, 83, 66
2, 144688, Note_on_c, 2, 83, 0
2, 144740, Note_on_c, 2, 86, 79
2, 144828, Note_on_c, 2, 86, 0
2, 144936, Note_on_c, 2, 86, 71
2, 145012, Note_on_c, 2, 86, 0
2, 145128, Note_on_c, 2, 86, 80
2, 145240, Note_on_c, 2, 86, 0
2, 145280, Note_on_c, 2, 82, 57
2, 145320, Note_on_c, 2, 82, 0
2, 145348, Note_on_c, 2, 83, 49
2, 145476, Note_on_c, 2, 83, 0
2, 145580, Note_on_c, 2, 78, 74
2, 145652, Note_on_c, 2, 78, 0
2, 146584, Note_on_c, 2, 83, 79
2, 146656, Note_on_c, 2, 83, 0
2, 146788, Note_on_c, 2, 86, 96
2, 146908, Note_on_c, 2, 86, 0
2, 147060, Note_on_c, 2, 83, 68
2, 147172, Note_on_c, 2, 83, 0
2, 147388, Note_on_c, 2, 85, 84
2, 147500, Note_on_c, 2, 85, 0
2, 147760, Note_on_c, 2, 82, 71
2, 147868, Note_on_c, 2, 82, 0
2, 148108, Note_on_c, 2, 87, 83
2, 148256, Note_on_c, 2, 87, 0
2, 148472, Note_on_c, 2, 82, 77
2, 148552, Note_on_c, 2, 82, 0
2, 148828, Note_on_c, 2, 88, 94
2, 149748, Note_on_c, 2, 88, 0
2, 149828, Note_on_c, 2, 86, 55
2, 149972, Note_on_c, 2, 86, 0
2, 150052, Note_on_c, 2, 83, 64
2, 150188, Note_on_c, 2, 83, 0
2, 150232, Note_on_c, 2, 79, 29
2, 150412, Note_on_c, 2, 79, 0
2, 150456, Note_on_c, 2, 76, 41
2, 150516, Note_on_c, 2, 76, 0
2, 150636, Note_on_c, 2, 81, 29
2, 151308, Note_on_c, 2, 81, 0
2, 151376, Note_on_c, 2, 79, 54
2, 151512, Note_on_c, 2, 79, 0
2, 152748, Note_on_c, 2, 87, 88
2, 152884, Note_on_c, 2, 87, 0
2, 153116, Note_on_c, 2, 86, 92
2, 153240, Note_on_c, 2, 86, 0
2, 153332, Note_on_c, 2, 84, 51
2, 153444, Note_on_c, 2, 84, 0
2, 153524, Note_on_c, 2, 82, 57
2, 153612, Note_on_c, 2, 82, 0
2, 153736, Note_on_c, 2, 84, 77
2, 153932, Note_on_c, 2, 84, 0
2, 154040, Note_on_c, 2, 82, 59
2, 154216, Note_on_c, 2, 82, 0
2, 154444, Note_on_c, 2, 81, 69
2, 154580, Note_on_c, 2, 81, 0
2, 154708, Note_on_c, 2, 81, 65
2, 154904, Note_on_c, 2, 81, 0
2, 155296, Note_on_c, 2, 79, 81
2, 155452, Note_on_c, 2, 79, 0
2, 155600, Note_on_c, 2, 74, 38
2, 155716, Note_on_c, 2, 74, 0
2, 155828, Note_on_c, 2, 78, 64
2, 155944, Note_on_c, 2, 78, 0
2, 156176, Note_on_c, 2, 76, 71
2, 156300, Note_on_c, 2, 76, 0
2, 156368, Note_on_c, 2, 74, 39
2, 156480, Note_on_c, 2, 74, 0
2, 156572, Note_on_c, 2, 71, 46
2, 156640, Note_on_c, 2, 71, 0
2, 156728, Note_on_c, 2, 74, 71
2, 156864, Note_on_c, 2, 74, 0
2, 156932, Note_on_c, 2, 71, 66
2, 157020, Note_on_c, 2, 71, 0
2, 157112, Note_on_c, 2, 66, 50
2, 157240, Note_on_c, 2, 66, 0
2, 157508, Note_on_c, 2, 69, 54
2, 157644, Note_on_c, 2, 69, 0
2, 157720, Note_on_c, 2, 66, 59
2, 157804, Note_on_c, 2, 66, 0
2, 157924, Note_on_c, 2, 67, 24
2, 157972, Note_on_c, 2, 67, 0
2, 158108, Note_on_c, 2, 69, 50
2, 158196, Note_on_c, 2, 69, 0
2, 158276, Note_on_c, 2, 70, 54
2, 158440, Note_on_c, 2, 70, 0
2, 160008, Note_on_c, 2, 70, 62
2, 160100, Note_on_c, 2, 70, 0
2, 160192, Note_on_c, 2, 72, 46
2, 160320, Note_on_c, 2, 72, 0
2, 160412, Note_on_c, 2, 73, 68
2, 160552, Note_on_c, 2, 73, 0
2, 160608, Note_on_c, 2, 76, 42
2, 160720, Note_on_c, 2, 76, 0
2, 160772, Note_on_c, 2, 80, 52
2, 160808, Note_on_c, 2, 80, 0
2, 160812, Note_on_c, 2, 81, 68
2, 160912, Note_on_c, 2, 81, 0
2, 160964, Note_on_c, 2, 85, 70
2, 161140, Note_on_c, 2, 85, 0
2, 161192, Note_on_c, 2, 82, 56
2, 161292, Note_on_c, 2, 82, 0
2, 161328, Note_on_c, 2, 83, 35
2, 161492, Note_on_c, 2, 83, 0
2, 161556, Note_on_c, 2, 86, 74
2, 161572, Note_on_c, 2, 88, 41
2, 161612, Note_on_c, 2, 88, 0
2, 161704, Note_on_c, 2, 86, 0
2, 161720, Note_on_c, 2, 84, 64
2, 161888, Note_on_c, 2, 84, 0
2, 161960, Note_on_c, 2, 80, 49
2, 162040, Note_on_c, 2, 80, 0
2, 162108, Note_on_c, 2, 83, 57
2, 162256, Note_on_c, 2, 83, 0
2, 162308, Note_on_c, 2, 81, 64
2, 162416, Note_on_c, 2, 81, 0
2, 162480, Note_on_c, 2, 76, 41
2, 162696, Note_on_c, 2, 76, 0
2, 162728, Note_on_c, 2, 74, 37
2, 162772, Note_on_c, 2, 74, 0
2, 162856, Note_on_c, 2, 78, 55
2, 163036, Note_on_c, 2, 78, 0
2, 163120, Note_on_c, 2, 74, 37
2, 163184, Note_on_c, 2, 74, 0
2, 163240, Note_on_c, 2, 76, 57
2, 163464, Note_on_c, 2, 76, 0
2, 163472, Note_on_c, 2, 75, 61
2, 163592, Note_on_c, 2, 75, 0
2, 163652, Note_on_c, 2, 74, 44
2, 163800, Note_on_c, 2, 74, 0
2, 163920, Note_on_c, 2, 73, 43
2, 164096, Note_on_c, 2, 73, 0
2, 164260, Note_on_c, 2, 69, 66
2, 164296, Note_on_c, 2, 69, 0
2, 164396, Note_on_c, 2, 71, 64
2, 164664, Note_on_c, 2, 71, 0
2, 164684, Note_on_c, 2, 66, 69
2, 164744, Note_on_c, 2, 66, 0
2, 166200, Note_on_c, 2, 76, 56
2, 166248, Note_on_c, 2, 76, 0
2, 166344, Note_on_c, 2, 79, 49
2, 166400, Note_on_c, 2, 79, 0
2, 166556, Note_on_c, 2, 83, 89
2, 166648, Note_on_c, 2, 83, 0
2, 166724, Note_on_c, 2, 83, 80
2, 166836, Note_on_c, 2, 83, 0
2, 166972, Note_on_c, 2, 79, 62
2, 167008, Note_on_c, 2, 79, 0
2, 167116, Note_on_c, 2, 83, 74
2, 167192, Note_on_c, 2, 83, 0
2, 167332, Note_on_c, 2, 83, 89
2, 167432, Note_on_c, 2, 83, 0
2, 167508, Note_on_c, 2, 83, 79
2, 167664, Note_on_c, 2, 83, 0
2, 167748, Note_on_c, 2, 81, 54
2, 167788, Note_on_c, 2, 81, 0
2, 167908, Note_on_c, 2, 81, 70
2, 168004, Note_on_c, 2, 81, 0
2, 168116, Note_on_c, 2, 81, 74
2, 168200, Note_on_c, 2, 81, 0
2, 168284, Note_on_c, 2, 81, 70
2, 168416, Note_on_c, 2, 81, 0
2, 168496, Note_on_c, 2, 76, 60
2, 168572, Note_on_c, 2, 76, 0
2, 168996, Note_on_c, 2, 82, 23
2, 169044, Note_on_c, 2, 82, 0
2, 169616, Note_on_c, 2, 83, 84
2, 169704, Note_on_c, 2, 83, 0
2, 169808, Note_on_c, 2, 83, 78
2, 169920, Note_on_c, 2, 83, 0
2, 169980, Note_on_c, 2, 79, 40
2, 170036, Note_on_c, 2, 79, 0
2, 170192, Note_on_c, 2, 79, 80
2, 170264, Note_on_c, 2, 79, 0
2, 170388, Note_on_c, 2, 83, 89
2, 170484, Note_on_c, 2, 83, 0
2, 170560, Note_on_c, 2, 83, 83
2, 170732, Note_on_c, 2, 83, 0
2, 170768, Note_on_c, 2, 79, 67
2, 170804, Note_on_c, 2, 79, 0
2, 170928, Note_on_c, 2, 79, 70
2, 171016, Note_on_c, 2, 79, 0
2, 171144, Note_on_c, 2, 83, 83
2, 171240, Note_on_c, 2, 83, 0
2, 171320, Note_on_c, 2, 83, 80
2, 171512, Note_on_c, 2, 83, 0
2, 171528, Note_on_c, 2, 79, 72
2, 171608, Note_on_c, 2, 79, 0
2, 171732, Note_on_c, 2, 79, 64
2, 171816, Note_on_c, 2, 79, 0
2, 171948, Note_on_c, 2, 82, 83
2, 172040, Note_on_c, 2, 82, 0
2, 172124, Note_on_c, 2, 82, 60
2, 172280, Note_on_c, 2, 82, 0
2, 172312, Note_on_c, 2, 79, 62
2, 172364, Note_on_c, 2, 79, 0
2, 172492, Note_on_c, 2, 79, 57
2, 172632, Note_on_c, 2, 79, 0
2, 172700, Note_on_c, 2, 87, 76
2, 172804, Note_on_c, 2, 87, 0
2, 172892, Note_on_c, 2, 87, 71
2, 173072, Note_on_c, 2, 87, 0
2, 173076, Note_on_c, 2, 82, 69
2, 173148, Note_on_c, 2, 82, 0
2, 173256, Note_on_c, 2, 82, 54
2, 173340, Note_on_c, 2, 82, 0
2, 173456, Note_on_c, 2, 88, 84
2, 173556, Note_on_c, 2, 88, 0
2, 173624, Note_on_c, 2, 88, 74
2, 173812, Note_on_c, 2, 88, 0
2, 173828, Note_on_c, 2, 83, 49
2, 173908, Note_on_c, 2, 83, 0
2, 173992, Note_on_c, 2, 83, 57
2, 174116, Note_on_c, 2, 83, 0
2, 174200, Note_on_c, 2, 86, 81
2, 174304, Note_on_c, 2, 86, 0
2, 174368, Note_on_c, 2, 86, 82
2, 174560, Note_on_c, 2, 86, 0
2, 174608, Note_on_c, 2, 83, 53
2, 174668, Note_on_c, 2, 83, 0
2, 174752, Note_on_c, 2, 83, 59
2, 174904, Note_on_c, 2, 83, 0
2, 174992, Note_on_c, 2, 79, 36
2, 175148, Note_on_c, 2, 79, 0
2, 175356, Note_on_c, 2, 76, 70
2, 175440, Note_on_c, 2, 76, 0
2, 175744, Note_on_c, 2, 79, 82
2, 175840, Note_on_c, 2, 79, 0
2, 175928, Note_on_c, 2, 81, 83
2, 176132, Note_on_c, 2, 81, 0
2, 176300, Note_on_c, 2, 79, 81
2, 176508, Note_on_c, 2, 79, 0
2, 176696, Note_on_c, 2, 75, 73
2, 178476, Note_on_c, 2, 75, 0
2, 178840, Note_on_c, 2, 79, 77
2, 178952, Note_on_c, 2, 79, 0
2, 179104, Note_on_c, 2, 79, 66
2, 179104, Note_on_c, 2, 81, 58
2, 179224, Note_on_c, 2, 81, 0
2, 179224, Note_on_c, 2, 79, 0
2, 179384, Note_on_c, 2, 78, 46
2, 179480, Note_on_c, 2, 78, 0
2, 179632, Note_on_c, 2, 81, 77
2, 179792, Note_on_c, 2, 81, 0
2, 179884, Note_on_c, 2, 81, 64
2, 180096, Note_on_c, 2, 81, 0
2, 180148, Note_on_c, 2, 78, 34
2, 180256, Note_on_c, 2, 78, 0
2, 181688, Note_on_c, 2, 79, 84
2, 181848, Note_on_c, 2, 79, 0
2, 181940, Note_on_c, 2, 79, 63
2, 182048, Note_on_c, 2, 79, 0
2, 182124, Note_on_c, 2, 81, 35
2, 182276, Note_on_c, 2, 81, 0
2, 182372, Note_on_c, 2, 79, 67
2, 182448, Note_on_c, 2, 79, 0
2, 182684, Note_on_c, 2, 73, 63
2, 183756, Note_on_c, 2, 73, 0
2, 185360, Note_on_c, 2, 78, 69
2, 185416, Note_on_c, 2, 79, 57
2, 185464, Note_on_c, 2, 78, 0
2, 185556, Note_on_c, 2, 79, 0
2, 185740, Note_on_c, 2, 78, 73
2, 185760, Note_on_c, 2, 79, 90
2, 185800, Note_on_c, 2, 78, 0
2, 186252, Note_on_c, 2, 79, 0
2, 186300, Note_on_c, 2, 76, 64
2, 186364, Note_on_c, 2, 76, 0
2, 186676, Note_on_c, 2, 78, 56
2, 186684, Note_on_c, 2, 79, 78
2, 186736, Note_on_c, 2, 78, 0
2, 186824, Note_on_c, 2, 79, 0
2, 187024, Note_on_c, 2, 76, 62
2, 187176, Note_on_c, 2, 76, 0
2, 187416, Note_on_c, 2, 78, 61
2, 187840, Note_on_c, 2, 78, 0
2, 188868, Note_on_c, 2, 74, 50
2, 188912, Note_on_c, 2, 74, 0
2, 189044, Note_on_c, 2, 81, 88
2, 189252, Note_on_c, 2, 81, 0
2, 189380, Note_on_c, 2, 78, 37
2, 189520, Note_on_c, 2, 78, 0
2, 189780, Note_on_c, 2, 81, 92
2, 189912, Note_on_c, 2, 81, 0
2, 190112, Note_on_c, 2, 78, 54
2, 190224, Note_on_c, 2, 78, 0
2, 190372, Note_on_c, 2, 79, 66
2, 190432, Note_on_c, 2, 79, 0
2, 190748, Note_on_c, 2, 81, 103
2, 191196, Note_on_c, 2, 81, 0
2, 191268, Note_on_c, 2, 83, 71
2, 191364, Note_on_c, 2, 83, 0
2, 191628, Note_on_c, 2, 86, 61
2, 191664, Note_on_c, 2, 86, 0
2, 192032, Note_on_c, 2, 88, 96
2, 192496, Note_on_c, 2, 88, 0
2, 192808, Note_on_c, 2, 76, 75
2, 193256, Note_on_c, 2, 76, 0
2, 193592, Note_on_c, 2, 83, 87
2, 194268, Note_on_c, 2, 83, 0
2, 194340, Note_on_c, 2, 82, 68
2, 194372, Note_on_c, 2, 83, 66
2, 194440, Note_on_c, 2, 82, 0
2, 194936, Note_on_c, 2, 83, 0
2, 194984, Note_on_c, 2, 79, 74
2, 195080, Note_on_c, 2, 79, 0
2, 195372, Note_on_c, 2, 76, 78
2, 195392, Note_on_c, 2, 75, 26
2, 195396, Note_on_c, 2, 74, 43
2, 195492, Note_on_c, 2, 75, 0
2, 195508, Note_on_c, 2, 74, 0
2, 195864, Note_on_c, 2, 76, 0
2, 195928, Note_on_c, 2, 74, 70
2, 196068, Note_on_c, 2, 74, 0
2, 196580, Note_on_c, 2, 67, 57
2, 196620, Note_on_c, 2, 67, 0
2, 196840, Note_on_c, 2, 70, 83
2, 196928, Note_on_c, 2, 70, 0
2, 197068, Note_on_c, 2, 66, 74
2, 197140, Note_on_c, 2, 66, 0
2, 197376, Note_on_c, 2, 67, 68
2, 198184, Note_on_c, 2, 67, 0
2, 198184, End_track
3, 0, Start_track
3, 0, Title_t, "Piano comping"
3, 0, Program_c, 0, 0
3, 0, Control_c, 0, 7, 80
3, 1032, Note_on_c, 0, 68, 39
3, 1036, Note_on_c, 0, 71, 52
3, 1036, Note_on_c, 0, 64, 51
3, 1044, Note_on_c, 0, 53, 41
3, 1052, Note_on_c, 0, 59, 32
3, 1200, Control_c, 0, 64, 127
3, 1352, Note_on_c, 0, 53, 0
3, 1392, Note_on_c, 0, 59, 0
3, 1396, Note_on_c, 0, 64, 0
3, 1436, Note_on_c, 0, 71, 0
3, 1464, Note_on_c, 0, 68, 0
3, 1512, Control_c, 0, 64, 0
3, 1548, Note_on_c, 0, 71, 49
3, 1556, Note_on_c, 0, 52, 36
3, 1560, Note_on_c, 0, 62, 37
3, 1568, Note_on_c, 0, 57, 37
3, 1580, Note_on_c, 0, 67, 27
3, 2448, Note_on_c, 0, 71, 0
3, 2524, Note_on_c, 0, 62, 0
3, 2556, Note_on_c, 0, 67, 0
3, 2624, Note_on_c, 0, 57, 0
3, 2672, Note_on_c, 0, 52, 0
3, 2696, Note_on_c, 0, 51, 39
3, 2696, Note_on_c, 0, 70, 45
3, 2696, Note_on_c, 0, 66, 44
3, 2708, Note_on_c, 0, 57, 33
3, 2712, Note_on_c, 0, 61, 21
3, 2884, Note_on_c, 0, 57, 0
3, 2920, Note_on_c, 0, 61, 0
3, 2940, Note_on_c, 0, 66, 0
3, 2940, Note_on_c, 0, 51, 0
3, 2944, Note_on_c, 0, 70, 0
3, 2956, Note_on_c, 0, 62, 68
3, 2960, Note_on_c, 0, 57, 54
3, 2960, Note_on_c, 0, 71, 64
3, 2968, Note_on_c, 0, 67, 58
3, 2972, Note_on_c, 0, 52, 61
3, 3004, Note_on_c, 0, 67, 0
3, 3012, Note_on_c, 0, 62, 0
3, 3024, Note_on_c, 0, 52, 0
3, 3024, Note_on_c, 0, 71, 0
3, 3032, Note_on_c, 0, 57, 0
3, 4620, Note_on_c, 0, 63, 76
3, 4624, Note_on_c, 0, 67, 71
3, 4628, Note_on_c, 0, 70, 53
3, 4628, Note_on_c, 0, 74, 74
3, 4636, Note_on_c, 0, 62, 72
3, 4824, Note_on_c, 0, 67, 0
3, 4832, Note_on_c, 0, 63, 0
3, 4836, Note_on_c, 0, 74, 0
3, 4836, Note_on_c, 0, 70, 0
3, 4880, Note_on_c, 0, 62, 0
3, 4932, Note_on_c, 0, 60, 32
3, 4976, Note_on_c, 0, 60, 0
3, 5000, Note_on_c, 0, 63, 57
3, 5008, Note_on_c, 0, 74, 64
3, 5008, Note_on_c, 0, 67, 61
3, 5012, Note_on_c, 0, 70, 45
3, 5020, Note_on_c, 0, 62, 53
3, 5308, Note_on_c, 0, 63, 0
3, 5316, Note_on_c, 0, 70, 0
3, 5320, Note_on_c, 0, 67, 0
3, 5344, Note_on_c, 0, 74, 0
3, 5384, Note_on_c, 0, 62, 0
3, 5404, Note_on_c, 0, 63, 20
3, 5408, Note_on_c, 0, 60, 33
3, 5536, Note_on_c, 0, 63, 0
3, 5656, Note_on_c, 0, 63, 60
3, 5668, Note_on_c, 0, 62, 60
3, 5676, Note_on_c, 0, 70, 47
3, 5676, Note_on_c, 0, 67, 43
3, 5696, Note_on_c, 0, 62, 0
3, 5700, Note_on_c, 0, 60, 0
3, 5704, Note_on_c, 0, 67, 0
3, 5704, Note_on_c, 0, 70, 0
3, 5712, Note_on_c, 0, 63, 0
3, 6156, Note_on_c, 0, 72, 54
3, 6160, Note_on_c, 0, 66, 46
3, 6172, Note_on_c, 0, 62, 40
3, 6172, Note_on_c, 0, 57, 47
3, 6176, Note_on_c, 0, 69, 46
3, 6180, Note_on_c, 0, 51, 37
3, 6200, Note_on_c, 0, 62, 0
3, 6204, Note_on_c, 0, 69, 0
3, 6208, Note_on_c, 0, 57, 0
3, 6216, Note_on_c, 0, 72, 0
3, 6220, Note_on_c, 0, 66, 0
3, 6224, Note_on_c, 0, 51, 0
3, 6824, Note_on_c, 0, 66, 37
3, 6824, Note_on_c, 0, 62, 58
3, 6828, Note_on_c, 0, 57, 44
3, 6832, Note_on_c, 0, 51, 34
3, 6836, Note_on_c, 0, 69, 49
3, 7208, Control_c, 0, 64, 127
3, 7348, Note_on_c, 0, 69, 0
3, 7352, Note_on_c, 0, 57, 0
3, 7368, Note_on_c, 0, 66, 0
3, 7368, Note_on_c, 0, 62, 0
3, 7652, Note_on_c, 0, 51, 0
3, 7652, Control_c, 0, 64, 0
3, 7708, Note_on_c, 0, 62, 48
3, 7712, Note_on_c, 0, 59, 34
3, 7720, Note_on_c, 0, 57, 26
3, 7752, Note_on_c, 0, 50, 31
3, 7764, Note_on_c, 0, 54, 10
3, 7772, Note_on_c, 0, 52, 6
3, 7872, Note_on_c, 0, 57, 0
3, 7884, Note_on_c, 0, 59, 0
3, 7884, Note_on_c, 0, 54, 0
3, 7884, Note_on_c, 0, 52, 0
3, 7888, Note_on_c, 0, 62, 0
3, 7888, Note_on_c, 0, 50, 0
3, 7960, Note_on_c, 0, 57, 52
3, 7964, Note_on_c, 0, 54, 44
3, 7968, Note_on_c, 0, 62, 46
3, 7968, Note_on_c, 0, 59, 50
3, 7988, Note_on_c, 0, 57, 0
3, 7996, Note_on_c, 0, 59, 0
3, 8004, Note_on_c, 0, 62, 0
3, 8004, Note_on_c, 0, 54, 0
3, 8648, Note_on_c, 0, 66, 50
3, 8656, Note_on_c, 0, 69, 53
3, 8668, Note_on_c, 0, 57, 30
3, 8668, Note_on_c, 0, 74, 24
3, 8676, Note_on_c, 0, 71, 31
3, 8684, Note_on_c, 0, 69, 0
3, 8688, Note_on_c, 0, 66, 0
3, 8692, Note_on_c, 0, 74, 0
3, 8704, Note_on_c, 0, 57, 0
3, 8704, Note_on_c, 0, 71, 0
3, 8864, Note_on_c, 0, 66, 61
3, 8868, Note_on_c, 0, 74, 67
3, 8868, Note_on_c, 0, 57, 52
3, 8872, Note_on_c, 0, 62, 45
3, 8872, Note_on_c, 0, 59, 45
3, 8872, Note_on_c, 0, 69, 62
3, 8876, Note_on_c, 0, 71, 53
3, 8904, Note_on_c, 0, 71, 0
3, 8904, Note_on_c, 0, 62, 0
3, 8904, Note_on_c, 0, 69, 0
3, 8908, Note_on_c, 0, 74, 0
3, 8908, Note_on_c, 0, 59, 0
3, 8912, Note_on_c, 0, 57, 0
3, 8916, Note_on_c, 0, 66, 0
3, 9112, Note_on_c, 0, 66, 69
3, 9112, Note_on_c, 0, 74, 74
3, 9120, Note_on_c, 0, 71, 60
3, 9120, Note_on_c, 0, 69, 64
3, 9124, Note_on_c, 0, 59, 42
3, 9124, Note_on_c, 0, 62, 44
3, 9124, Note_on_c, 0, 57, 43
3, 10152, Control_c, 0, 64, 127
3, 10252, Note_on_c, 0, 69, 0
3, 10260, Note_on_c, 0, 66, 0
3, 10268, Note_on_c, 0, 71, 0
3, 10276, Note_on_c, 0, 74, 0
3, 10304, Note_on_c, 0, 57, 0
3, 10312, Note_on_c, 0, 62, 0
3, 10312, Note_on_c, 0, 59, 0
3, 10568, Control_c, 0, 64, 0
3, 10620, Note_on_c, 0, 84, 81
3, 10620, Note_on_c, 0, 77, 75
3, 10624, Note_on_c, 0, 80, 55
3, 10624, Note_on_c, 0, 72, 67
3, 10628, Note_on_c, 0, 60, 64
3, 10632, Note_on_c, 0, 65, 67
3, 10636, Note_on_c, 0, 61, 52
3, 10644, Note_on_c, 0, 56, 45
3, 10832, Note_on_c, 0, 60, 0
3, 10832, Note_on_c, 0, 72, 0
3, 10832, Note_on_c, 0, 77, 0
3, 10836, Note_on_c, 0, 65, 0
3, 10840, Note_on_c, 0, 84, 0
3, 10844, Note_on_c, 0, 61, 0
3, 10848, Note_on_c, 0, 80, 0
3, 10848, Note_on_c, 0, 56, 0
3, 11520, Note_on_c, 0, 56, 51
3, 11520, Note_on_c, 0, 65, 64
3, 11520, Note_on_c, 0, 89, 68
3, 11524, Note_on_c, 0, 61, 38
3, 11524, Note_on_c, 0, 77, 51
3, 11528, Note_on_c, 0, 60, 36
3, 11572, Note_on_c, 0, 60, 0
3, 11592, Note_on_c, 0, 65, 0
3, 11592, Note_on_c, 0, 77, 0
3, 11616, Note_on_c, 0, 56, 0
3, 11624, Note_on_c, 0, 61, 0
3, 11632, Note_on_c, 0, 89, 0
3, 11900, Note_on_c, 0, 96, 71
3, 11904, Note_on_c, 0, 65, 61
3, 11908, Note_on_c, 0, 61, 35
3, 11908, Note_on_c, 0, 56, 48
3, 11912, Note_on_c, 0, 84, 53
3, 11988, Note_on_c, 0, 65, 0
3, 12004, Note_on_c, 0, 61, 0
3, 12008, Note_on_c, 0, 84, 0
3, 12008, Note_on_c, 0, 96, 0
3, 12072, Note_on_c, 0, 56, 0
3, 12288, Note_on_c, 0, 82, 51
3, 12288, Note_on_c, 0, 65, 40
3, 12288, Note_on_c, 0, 94, 60
3, 12292, Note_on_c, 0, 55, 44
3, 12292, Note_on_c, 0, 61, 31
3, 12344, Control_c, 0, 64, 127
3, 12768, Note_on_c, 0, 65, 0
3, 12772, Note_on_c, 0, 55, 0
3, 12780, Note_on_c, 0, 82, 0
3, 12780, Note_on_c, 0, 94, 0
3, 12792, Note_on_c, 0, 61, 0
3, 12912, Control_c, 0, 64, 0
3, 12920, Note_on_c, 0, 94, 50
3, 12928, Note_on_c, 0, 82, 38
3, 12940, Note_on_c, 0, 65, 54
3, 12940, Note_on_c, 0, 61, 38
3, 12952, Note_on_c, 0, 55, 32
3, 12976, Note_on_c, 0, 65, 0
3, 12980, Note_on_c, 0, 94, 0
3, 12984, Note_on_c, 0, 82, 0
3, 12988, Note_on_c, 0, 55, 0
3, 13012, Note_on_c, 0, 61, 0
3, 14216, Control_c, 0, 64, 127
3, 14352, Control_c, 0, 64, 0
3, 14584, Note_on_c, 0, 60, 53
3, 14588, Note_on_c, 0, 64, 58
3, 14588, Note_on_c, 0, 74, 73
3, 14592, Note_on_c, 0, 71, 66
3, 14592, Note_on_c, 0, 67, 67
3, 14596, Note_on_c, 0, 59, 41
3, 14600, Note_on_c, 0, 55, 50
3, 14724, Note_on_c, 0, 55, 0
3, 14732, Note_on_c, 0, 74, 0
3, 14740, Note_on_c, 0, 67, 0
3, 14740, Note_on_c, 0, 59, 0
3, 14748, Note_on_c, 0, 64, 0
3, 14748, Note_on_c, 0, 71, 0
3, 14752, Note_on_c, 0, 60, 0
3, 15008, Control_c, 0, 64, 127
3, 15064, Control_c, 0, 64, 0
3, 15104, Control_c, 0, 64, 127
3, 15220, Control_c, 0, 64, 0
3, 15244, Note_on_c, 0, 68, 59
3, 15244, Note_on_c, 0, 71, 60
3, 15248, Note_on_c, 0, 64, 62
3, 15252, Note_on_c, 0, 60, 55
3, 15260, Note_on_c, 0, 54, 47
3, 15584, Control_c, 0, 64, 127
3, 15684, Note_on_c, 0, 64, 0
3, 15700, Note_on_c, 0, 54, 0
3, 15700, Control_c, 0, 64, 0
3, 15708, Note_on_c, 0, 60, 0
3, 15728, Note_on_c, 0, 68, 0
3, 15732, Note_on_c, 0, 71, 0
3, 15772, Note_on_c, 0, 64, 40
3, 15780, Note_on_c, 0, 54, 43
3, 15784, Note_on_c, 0, 72, 51
3, 15784, Note_on_c, 0, 60, 37
3, 15784, Note_on_c, 0, 69, 53
3, 15896, Note_on_c, 0, 72, 0
3, 15900, Note_on_c, 0, 54, 0
3, 15908, Note_on_c, 0, 60, 0
3, 15912, Note_on_c, 0, 69, 0
3, 15920, Note_on_c, 0, 64, 0
3, 16136, Note_on_c, 0, 68, 36
3, 16140, Note_on_c, 0, 71, 48
3, 16152, Note_on_c, 0, 54, 49
3, 16152, Note_on_c, 0, 64, 40
3, 16160, Note_on_c, 0, 60, 44
3, 16300, Note_on_c, 0, 54, 0
3, 16308, Note_on_c, 0, 64, 0
3, 16316, Note_on_c, 0, 60, 0
3, 16320, Note_on_c, 0, 71, 0
3, 16320, Control_c, 0, 64, 127
3, 16344, Note_on_c, 0, 68, 0
3, 16404, Note_on_c, 0, 64, 50
3, 16408, Note_on_c, 0, 69, 62
3, 16420, Note_on_c, 0, 72, 36
3, 16424, Note_on_c, 0, 60, 64
3, 16428, Note_on_c, 0, 54, 48
3, 16460, Control_c, 0, 64, 0
3, 16600, Control_c, 0, 64, 127
3, 16868, Note_on_c, 0, 60, 0
3, 16884, Note_on_c, 0, 64, 0
3, 16912, Control_c, 0, 64, 0
3, 16920, Note_on_c, 0, 69, 0
3, 16940, Note_on_c, 0, 54, 0
3, 16944, Note_on_c, 0, 72, 0
3, 17300, Note_on_c, 0, 66, 67
3, 17300, Note_on_c, 0, 73, 80
3, 17300, Note_on_c, 0, 76, 80
3, 17300, Note_on_c, 0, 64, 66
3, 17304, Note_on_c, 0, 62, 59
3, 17308, Note_on_c, 0, 69, 84
3, 17484, Note_on_c, 0, 62, 0
3, 17492, Note_on_c, 0, 66, 0
3, 17492, Note_on_c, 0, 76, 0
3, 17492, Note_on_c, 0, 69, 0
3, 17508, Note_on_c, 0, 64, 0
3, 17512, Note_on_c, 0, 73, 0
3, 17556, Note_on_c, 0, 66, 48
3, 17564, Note_on_c, 0, 73, 56
3, 17564, Note_on_c, 0, 76, 63
3, 17564, Note_on_c, 0, 69, 64
3, 17568, Note_on_c, 0, 64, 64
3, 17584, Note_on_c, 0, 62, 47
3, 17632, Note_on_c, 0, 66, 0
3, 17636, Note_on_c, 0, 69, 0
3, 17644, Note_on_c, 0, 76, 0
3, 17652, Note_on_c, 0, 62, 0
3, 17652, Note_on_c, 0, 64, 0
3, 17664, Note_on_c, 0, 73, 0
3, 18356, Note_on_c, 0, 54, 38
3, 18384, Note_on_c, 0, 56, 54
3, 18400, Note_on_c, 0, 54, 0
3, 18428, Note_on_c, 0, 56, 0
3, 18428, Note_on_c, 0, 62, 53
3, 18428, Note_on_c, 0, 69, 61
3, 18428, Note_on_c, 0, 66, 42
3, 18440, Note_on_c, 0, 57, 55
3, 18668, Note_on_c, 0, 62, 0
3, 18680, Note_on_c, 0, 69, 0
3, 18700, Note_on_c, 0, 66, 0
3, 18708, Note_on_c, 0, 57, 0
3, 18792, Note_on_c, 0, 62, 41
3, 18804, Note_on_c, 0, 55, 44
3, 18804, Note_on_c, 0, 66, 32
3, 18808, Note_on_c, 0, 67, 50
3, 19004, Note_on_c, 0, 66, 0
3, 19008, Note_on_c, 0, 67, 0
3, 19008, Note_on_c, 0, 62, 0
3, 19016, Note_on_c, 0, 55, 0
3, 19172, Note_on_c, 0, 66, 36
3, 19184, Note_on_c, 0, 54, 34
3, 19196, Note_on_c, 0, 62, 34
3, 19284, Control_c, 0, 64, 127
3, 19320, Note_on_c, 0, 62, 0
3, 19320, Control_c, 0, 64, 0
3, 19384, Note_on_c, 0, 66, 0
3, 19424, Note_on_c, 0, 54, 0
3, 19456, Note_on_c, 0, 62, 46
3, 19460, Note_on_c, 0, 67, 52
3, 19468, Note_on_c, 0, 55, 46
3, 19504, Note_on_c, 0, 55, 0
3, 19512, Note_on_c, 0, 62, 0
3, 19532, Note_on_c, 0, 67, 0
3, 19852, Note_on_c, 0, 76, 66
3, 19856, Note_on_c, 0, 61, 50
3, 19864, Note_on_c, 0, 64, 47
3, 19880, Note_on_c, 0, 76, 0
3, 19892, Note_on_c, 0, 64, 0
3, 19912, Note_on_c, 0, 61, 0
3, 20400, Control_c, 0, 64, 127
3, 20472, Control_c, 0, 64, 0
3, 20520, Control_c, 0, 64, 127
3, 20668, Control_c, 0, 64, 0
3, 21516, Control_c, 0, 64, 127
3, 21516, Note_on_c, 0, 87, 31
3, 21516, Note_on_c, 0, 83, 38
3, 21524, Note_on_c, 0, 95, 36
3, 21524, Note_on_c, 0, 61, 38
3, 21524, Note_on_c, 0, 55, 38
3, 21528, Note_on_c, 0, 91, 30
3, 21536, Note_on_c, 0, 66, 25
3, 21620, Note_on_c, 0, 55, 0
3, 21644, Note_on_c, 0, 87, 0
3, 21656, Note_on_c, 0, 83, 0
3, 21656, Note_on_c, 0, 91, 0
3, 21672, Note_on_c, 0, 95, 0
3, 21680, Note_on_c, 0, 66, 0
3, 21680, Note_on_c, 0, 61, 0
3, 21752, Note_on_c, 0, 67, 71
3, 21760, Note_on_c, 0, 56, 64
3, 21760, Note_on_c, 0, 62, 65
3, 21780, Note_on_c, 0, 96, 81
3, 21780, Note_on_c, 0, 84, 85
3, 21820, Note_on_c, 0, 67, 0
3, 21844, Note_on_c, 0, 96, 0
3, 21852, Note_on_c, 0, 84, 0
3, 21852, Note_on_c, 0, 62, 0
3, 21884, Note_on_c, 0, 56, 0
3, 21888, Control_c, 0, 64, 0
3, 21920, Note_on_c, 0, 66, 65
3, 21924, Note_on_c, 0, 55, 66
3, 21928, Note_on_c, 0, 95, 64
3, 21936, Note_on_c, 0, 83, 55
3, 21952, Note_on_c, 0, 61, 32
3, 22028, Note_on_c, 0, 95, 0
3, 22036, Note_on_c, 0, 55, 0
3, 22044, Note_on_c, 0, 83, 0
3, 22064, Note_on_c, 0, 66, 0
3, 22084, Note_on_c, 0, 61, 0
3, 22144, Note_on_c, 0, 54, 59
3, 22152, Note_on_c, 0, 65, 50
3, 22152, Note_on_c, 0, 82, 60
3, 22152, Note_on_c, 0, 94, 62
3, 22172, Note_on_c, 0, 87, 34
3, 22188, Note_on_c, 0, 65, 0
3, 22208, Note_on_c, 0, 87, 0
3, 22216, Note_on_c, 0, 54, 0
3, 22240, Note_on_c, 0, 94, 0
3, 22244, Note_on_c, 0, 82, 0
3, 22304, Note_on_c, 0, 87, 39
3, 22304, Note_on_c, 0, 66, 53
3, 22308, Note_on_c, 0, 55, 57
3, 22312, Note_on_c, 0, 83, 54
3, 22316, Note_on_c, 0, 95, 51
3, 22348, Note_on_c, 0, 61, 26
3, 22404, Note_on_c, 0, 55, 0
3, 22408, Note_on_c, 0, 95, 0
3, 22416, Note_on_c, 0, 66, 0
3, 22420, Note_on_c, 0, 61, 0
3, 22420, Note_on_c, 0, 87, 0
3, 22428, Note_on_c, 0, 83, 0
3, 22556, Note_on_c, 0, 95, 55
3, 22556, Note_on_c, 0, 66, 52
3, 22560, Note_on_c, 0, 55, 60
3, 22564, Note_on_c, 0, 61, 44
3, 22564, Note_on_c, 0, 87, 36
3, 22576, Note_on_c, 0, 83, 28
3, 22616, Note_on_c, 0, 66, 0
3, 22616, Note_on_c, 0, 95, 0
3, 22628, Note_on_c, 0, 87, 0
3, 22632, Note_on_c, 0, 55, 0
3, 22636, Note_on_c, 0, 61, 0
3, 22648, Note_on_c, 0, 83, 0
3, 23048, Control_c, 0, 64, 127
3, 23224, Control_c, 0, 64, 0
3, 23300, Note_on_c, 0, 83, 89
3, 23304, Note_on_c, 0, 76, 82
3, 23304, Note_on_c, 0, 72, 79
3, 23304, Note_on_c, 0, 79, 73
3, 23308, Note_on_c, 0, 71, 82
3, 23380, Note_on_c, 0, 72, 0
3, 23388, Note_on_c, 0, 79, 0
3, 23388, Note_on_c, 0, 76, 0
3, 23392, Note_on_c, 0, 83, 0
3, 23392, Note_on_c, 0, 71, 0
3, 23536, Note_on_c, 0, 81, 70
3, 23540, Note_on_c, 0, 72, 62
3, 23544, Note_on_c, 0, 76, 58
3, 23544, Note_on_c, 0, 69, 69
3, 23572, Note_on_c, 0, 79, 24
3, 23596, Note_on_c, 0, 79, 0
3, 23624, Note_on_c, 0, 72, 0
3, 23628, Note_on_c, 0, 76, 0
3, 23648, Note_on_c, 0, 81, 0
3, 23688, Note_on_c, 0, 69, 0
3, 23796, Note_on_c, 0, 83, 77
3, 23796, Note_on_c, 0, 71, 74
3, 23800, Note_on_c, 0, 72, 74
3, 23800, Note_on_c, 0, 76, 70
3, 23804, Note_on_c, 0, 79, 60
3, 23932, Note_on_c, 0, 76, 0
3, 23940, Note_on_c, 0, 72, 0
3, 23948, Note_on_c, 0, 79, 0
3, 23956, Control_c, 0, 64, 127
3, 23980, Note_on_c, 0, 83, 0
3, 24016, Note_on_c, 0, 71, 0
3, 24056, Note_on_c, 0, 69, 68
3, 24056, Note_on_c, 0, 81, 69
3, 24056, Control_c, 0, 64, 0
3, 24060, Note_on_c, 0, 76, 66
3, 24060, Note_on_c, 0, 72, 55
3, 24096, Note_on_c, 0, 72, 0
3, 24100, Note_on_c, 0, 69, 0
3, 24104, Note_on_c, 0, 76, 0
3, 24124, Note_on_c, 0, 81, 0
3, 24560, Note_on_c, 0, 69, 81
3, 24564, Note_on_c, 0, 64, 71
3, 24564, Note_on_c, 0, 76, 80
3, 24564, Note_on_c, 0, 65, 84
3, 24572, Note_on_c, 0, 72, 55
3, 24736, Note_on_c, 0, 69, 0
3, 24740, Note_on_c, 0, 72, 0
3, 24744, Note_on_c, 0, 64, 0
3, 24744, Note_on_c, 0, 65, 0
3, 24748, Note_on_c, 0, 76, 0
3, 24956, Note_on_c, 0, 60, 71
3, 24960, Note_on_c, 0, 72, 73
3, 24964, Note_on_c, 0, 69, 74
3, 24968, Note_on_c, 0, 65, 70
3, 25004, Control_c, 0, 64, 127
3, 25048, Note_on_c, 0, 60, 0
3, 25064, Note_on_c, 0, 72, 0
3, 25076, Note_on_c, 0, 69, 0
3, 25108, Note_on_c, 0, 65, 0
3, 25272, Control_c, 0, 64, 0
3, 25356, Note_on_c, 0, 53, 51
3, 25356, Note_on_c, 0, 59, 54
3, 25360, Note_on_c, 0, 63, 62
3, 25372, Note_on_c, 0, 67, 55
3, 25372, Note_on_c, 0, 70, 50
3, 25372, Note_on_c, 0, 58, 47
3, 25424, Control_c, 0, 64, 127
3, 25560, Note_on_c, 0, 67, 0
3, 25568, Note_on_c, 0, 53, 0
3, 25596, Note_on_c, 0, 58, 0
3, 25600, Note_on_c, 0, 59, 0
3, 25608, Note_on_c, 0, 63, 0
3, 25616, Note_on_c, 0, 70, 0
3, 25684, Control_c, 0, 64, 0
3, 25744, Note_on_c, 0, 63, 52
3, 25748, Note_on_c, 0, 58, 45
3, 25756, Note_on_c, 0, 53, 41
3, 25756, Note_on_c, 0, 67, 55
3, 25764, Note_on_c, 0, 59, 36
3, 25776, Control_c, 0, 64, 127
3, 25876, Note_on_c, 0, 53, 0
3, 25892, Note_on_c, 0, 59, 0
3, 25896, Note_on_c, 0, 67, 0
3, 25932, Note_on_c, 0, 58, 0
3, 25952, Note_on_c, 0, 63, 0
3, 26008, Note_on_c, 0, 68, 36
3, 26016, Control_c, 0, 64, 0
3, 26024, Note_on_c, 0, 59, 54
3, 26028, Note_on_c, 0, 64, 57
3, 26028, Note_on_c, 0, 52, 57
3, 26032, Note_on_c, 0, 68, 0
3, 26040, Note_on_c, 0, 67, 62
3, 27076, Note_on_c, 0, 67, 0
3, 27140, Note_on_c, 0, 59, 0
3, 27164, Note_on_c, 0, 64, 0
3, 27260, Note_on_c, 0, 63, 30
3, 27276, Note_on_c, 0, 66, 31
3, 27280, Note_on_c, 0, 51, 34
3, 27284, Note_on_c, 0, 52, 0
3, 27284, Note_on_c, 0, 58, 25
3, 27512, Note_on_c, 0, 58, 0
3, 27516, Note_on_c, 0, 66, 0
3, 27532, Note_on_c, 0, 63, 0
3, 27540, Note_on_c, 0, 59, 55
3, 27544, Note_on_c, 0, 67, 51
3, 27552, Note_on_c, 0, 52, 50
3, 27556, Note_on_c, 0, 51, 0
3, 27560, Note_on_c, 0, 64, 35
3, 27572, Note_on_c, 0, 59, 0
3, 27584, Note_on_c, 0, 52, 0
3, 27592, Note_on_c, 0, 64, 0
3, 27600, Note_on_c, 0, 67, 0
3, 28376, Note_on_c, 0, 68, 38
3, 28424, Note_on_c, 0, 69, 57
3, 28436, Note_on_c, 0, 68, 0
3, 28452, Note_on_c, 0, 86, 81
3, 28456, Note_on_c, 0, 83, 77
3, 28456, Note_on_c, 0, 79, 76
3, 28460, Note_on_c, 0, 76, 80
3, 28464, Note_on_c, 0, 69, 0
3, 28464, Note_on_c, 0, 71, 66
3, 28580, Note_on_c, 0, 71, 0
3, 28580, Note_on_c, 0, 83, 0
3, 28584, Note_on_c, 0, 79, 0
3, 28588, Note_on_c, 0, 86, 0
3, 28604, Note_on_c, 0, 76, 0
3, 28852, Note_on_c, 0, 67, 55
3, 28860, Note_on_c, 0, 77, 27
3, 28860, Note_on_c, 0, 81, 24
3, 28860, Note_on_c, 0, 79, 26
3, 28864, Note_on_c, 0, 76, 28
3, 28864, Note_on_c, 0, 71, 22
3, 28868, Note_on_c, 0, 74, 29
3, 28896, Note_on_c, 0, 81, 0
3, 28908, Note_on_c, 0, 67, 0
3, 28916, Note_on_c, 0, 77, 0
3, 28928, Note_on_c, 0, 71, 0
3, 28936, Note_on_c, 0, 79, 0
3, 28936, Note_on_c, 0, 76, 0
3, 28944, Note_on_c, 0, 74, 0
3, 29176, Note_on_c, 0, 63, 46
3, 29176, Note_on_c, 0, 75, 51
3, 29188, Note_on_c, 0, 70, 45
3, 29192, Note_on_c, 0, 58, 27
3, 29192, Note_on_c, 0, 67, 35
3, 29560, Control_c, 0, 64, 127
3, 29696, Note_on_c, 0, 63, 0
3, 29744, Note_on_c, 0, 58, 0
3, 29768, Note_on_c, 0, 67, 0
3, 29784, Note_on_c, 0, 70, 0
3, 29900, Control_c, 0, 64, 0
3, 29920, Note_on_c, 0, 75, 0
3, 29956, Note_on_c, 0, 70, 33
3, 29960, Note_on_c, 0, 67, 26
3, 29960, Note_on_c, 0, 63, 32
3, 29976, Note_on_c, 0, 58, 25
3, 30136, Note_on_c, 0, 58, 0
3, 30144, Note_on_c, 0, 63, 0
3, 30152, Note_on_c, 0, 67, 0
3, 30156, Note_on_c, 0, 70, 0
3, 30224, Note_on_c, 0, 70, 43
3, 30232, Note_on_c, 0, 63, 31
3, 30240, Note_on_c, 0, 67, 33
3, 30256, Note_on_c, 0, 58, 20
3, 30272, Note_on_c, 0, 67, 0
3, 30284, Note_on_c, 0, 70, 0
3, 30292, Note_on_c, 0, 63, 0
3, 30300, Note_on_c, 0, 58, 0
3, 30724, Note_on_c, 0, 66, 32
3, 30724, Note_on_c, 0, 74, 50
3, 30732, Note_on_c, 0, 69, 46
3, 30732, Note_on_c, 0, 62, 46
3, 30736, Note_on_c, 0, 51, 51
3, 30744, Note_on_c, 0, 57, 43
3, 30784, Note_on_c, 0, 57, 0
3, 30788, Note_on_c, 0, 62, 0
3, 30800, Note_on_c, 0, 69, 0
3, 30800, Note_on_c, 0, 66, 0
3, 30808, Note_on_c, 0, 51, 0
3, 30812, Note_on_c, 0, 74, 0
3, 30852, Note_on_c, 0, 74, 24
3, 30864, Note_on_c, 0, 66, 29
3, 30868, Note_on_c, 0, 62, 24
3, 30868, Note_on_c, 0, 69, 47
3, 30872, Note_on_c, 0, 51, 33
3, 30900, Note_on_c, 0, 69, 0
3, 30912, Note_on_c, 0, 62, 0
3, 30912, Note_on_c, 0, 66, 0
3, 30916, Note_on_c, 0, 74, 0
3, 30916, Note_on_c, 0, 51, 0
3, 31108, Note_on_c, 0, 69, 60
3, 31112, Note_on_c, 0, 66, 38
3, 31112, Note_on_c, 0, 51, 46
3, 31112, Note_on_c, 0, 62, 45
3, 31120, Note_on_c, 0, 57, 42
3, 31396, Note_on_c, 0, 69, 0
3, 31404, Note_on_c, 0, 66, 0
3, 31416, Note_on_c, 0, 62, 0
3, 31420, Note_on_c, 0, 57, 0
3, 31432, Note_on_c, 0, 51, 0
3, 31500, Note_on_c, 0, 51, 33
3, 31504, Note_on_c, 0, 66, 33
3, 31528, Note_on_c, 0, 66, 0
3, 31536, Note_on_c, 0, 51, 0
3, 31620, Note_on_c, 0, 51, 64
3, 31624, Note_on_c, 0, 66, 71
3, 31628, Note_on_c, 0, 57, 61
3, 31628, Note_on_c, 0, 62, 70
3, 31648, Note_on_c, 0, 59, 44
3, 31676, Note_on_c, 0, 59, 0
3, 31804, Note_on_c, 0, 57, 0
3, 31804, Note_on_c, 0, 62, 0
3, 31824, Note_on_c, 0, 51, 0
3, 31848, Note_on_c, 0, 66, 0
3, 31896, Control_c, 0, 64, 127
3, 31900, Note_on_c, 0, 62, 49
3, 31904, Note_on_c, 0, 51, 45
3, 31912, Note_on_c, 0, 57, 46
3, 32012, Note_on_c, 0, 62, 0
3, 32088, Note_on_c, 0, 57, 0
3, 32220, Control_c, 0, 64, 0
3, 32228, Note_on_c, 0, 51, 0
3, 32248, Note_on_c, 0, 54, 34
3, 32252, Note_on_c, 0, 50, 46
3, 32252, Note_on_c, 0, 57, 46
3, 32256, Note_on_c, 0, 62, 48
3, 32256, Note_on_c, 0, 59, 37
3, 33056, Note_on_c, 0, 50, 0
3, 33068, Note_on_c, 0, 62, 0
3, 33080, Note_on_c, 0, 57, 0
3, 33164, Note_on_c, 0, 54, 0
3, 33164, Note_on_c, 0, 59, 0
3, 33432, Note_on_c, 0, 54, 42
3, 33440, Note_on_c, 0, 56, 45
3, 33448, Note_on_c, 0, 58, 38
3, 33452, Note_on_c, 0, 61, 30
3, 33596, Note_on_c, 0, 54, 0
3, 33620, Note_on_c, 0, 56, 0
3, 33644, Note_on_c, 0, 58, 0
3, 33648, Note_on_c, 0, 61, 0
3, 33696, Note_on_c, 0, 54, 40
3, 33700, Note_on_c, 0, 57, 51
3, 33708, Note_on_c, 0, 62, 46
3, 33708, Note_on_c, 0, 59, 36
3, 33732, Note_on_c, 0, 54, 0
3, 33736, Note_on_c, 0, 57, 0
3, 33740, Note_on_c, 0, 59, 0
3, 33744, Note_on_c, 0, 62, 0
3, 34576, Note_on_c, 0, 66, 36
3, 34580, Note_on_c, 0, 74, 46
3, 34580, Note_on_c, 0, 69, 49
3, 34580, Note_on_c, 0, 62, 42
3, 34584, Note_on_c, 0, 57, 36
3, 34600, Note_on_c, 0, 66, 0
3, 34604, Note_on_c, 0, 71, 25
3, 34608, Note_on_c, 0, 74, 0
3, 34608, Note_on_c, 0, 69, 0
3, 34612, Note_on_c, 0, 62, 0
3, 34624, Note_on_c, 0, 57, 0
3, 34628, Note_on_c, 0, 71, 0
3, 35008, Control_c, 0, 64, 127
3, 35240, Control_c, 0, 64, 0
3, 36100, Note_on_c, 0, 61, 37
3, 36108, Note_on_c, 0, 60, 39
3, 36108, Note_on_c, 0, 101, 68
3, 36108, Note_on_c, 0, 89, 61
3, 36112, Note_on_c, 0, 65, 44
3, 36116, Note_on_c, 0, 56, 43
3, 36236, Control_c, 0, 64, 127
3, 36292, Note_on_c, 0, 65, 0
3, 36296, Note_on_c, 0, 101, 0
3, 36308, Note_on_c, 0, 89, 0
3, 36308, Note_on_c, 0, 56, 0
3, 36312, Note_on_c, 0, 60, 0
3, 36316, Note_on_c, 0, 61, 0
3, 36364, Control_c, 0, 64, 0
3, 36372, Note_on_c, 0, 89, 55
3, 36376, Note_on_c, 0, 101, 41
3, 36376, Note_on_c, 0, 56, 38
3, 36380, Note_on_c, 0, 65, 52
3, 36380, Note_on_c, 0, 61, 47
3, 36384, Note_on_c, 0, 60, 42
3, 36416, Note_on_c, 0, 60, 0
3, 36416, Note_on_c, 0, 89, 0
3, 36420, Note_on_c, 0, 101, 0
3, 36428, Note_on_c, 0, 65, 0
3, 36448, Note_on_c, 0, 61, 0
3, 36452, Note_on_c, 0, 56, 0
3, 36888, Note_on_c, 0, 65, 68
3, 36892, Note_on_c, 0, 97, 67
3, 36896, Note_on_c, 0, 61, 42
3, 36896, Note_on_c, 0, 55, 65
3, 36896, Note_on_c, 0, 89, 68
3, 36900, Note_on_c, 0, 101, 60
3, 37004, Note_on_c, 0, 101, 0
3, 37004, Note_on_c, 0, 55, 0
3, 37024, Note_on_c, 0, 65, 0
3, 37024, Note_on_c, 0, 89, 0
3, 37028, Note_on_c, 0, 97, 0
3, 37040, Note_on_c, 0, 61, 0
3, 37284, Control_c, 0, 64, 127
3, 37496, Control_c, 0, 64, 0
3, 37528, Note_on_c, 0, 66, 68
3, 37528, Note_on_c, 0, 55, 71
3, 37536, Note_on_c, 0, 61, 57
3, 37536, Note_on_c, 0, 88, 74
3, 37536, Note_on_c, 0, 100, 71
3, 37540, Note_on_c, 0, 97, 62
3, 37688, Control_c, 0, 64, 127
3, 37968, Control_c, 0, 64, 0
3, 38020, Control_c, 0, 64, 127
3, 38052, Note_on_c, 0, 100, 0
3, 38064, Note_on_c, 0, 97, 0
3, 38100, Note_on_c, 0, 88, 0
3, 38164, Note_on_c, 0, 66, 0
3, 38168, Note_on_c, 0, 55, 0
3, 38224, Note_on_c, 0, 61, 0
3, 38252, Control_c, 0, 64, 0
3, 38272, Note_on_c, 0, 98, 79
3, 38276, Note_on_c, 0, 86, 73
3, 38276, Note_on_c, 0, 64, 64
3, 38280, Note_on_c, 0, 95, 70
3, 38284, Note_on_c, 0, 55, 62
3, 38284, Note_on_c, 0, 91, 63
3, 38288, Note_on_c, 0, 60, 62
3, 38292, Note_on_c, 0, 59, 54
3, 38796, Control_c, 0, 64, 127
3, 38852, Note_on_c, 0, 95, 0
3, 38856, Note_on_c, 0, 98, 0
3, 38864, Control_c, 0, 64, 0
3, 38868, Note_on_c, 0, 91, 0
3, 38904, Note_on_c, 0, 86, 0
3, 39024, Note_on_c, 0, 55, 0
3, 39028, Note_on_c, 0, 59, 0
3, 39064, Note_on_c, 0, 64, 0
3, 39076, Note_on_c, 0, 60, 0
3, 39180, Note_on_c, 0, 95, 55
3, 39188, Note_on_c, 0, 91, 43
3, 39192, Note_on_c, 0, 64, 50
3, 39192, Note_on_c, 0, 83, 31
3, 39196, Note_on_c, 0, 88, 44
3, 39196, Note_on_c, 0, 60, 46
3, 39208, Note_on_c, 0, 59, 36
3, 39228, Note_on_c, 0, 88, 0
3, 39228, Note_on_c, 0, 91, 0
3, 39228, Note_on_c, 0, 95, 0
3, 39236, Note_on_c, 0, 83, 0
3, 39244, Note_on_c, 0, 59, 0
3, 39252, Note_on_c, 0, 64, 0
3, 39260, Note_on_c, 0, 60, 0
3, 39580, Control_c, 0, 64, 127
3, 39636, Control_c, 0, 64, 0
3, 39676, Control_c, 0, 64, 127
3, 39860, Control_c, 0, 64, 0
3, 39948, Note_on_c, 0, 64, 42
3, 39948, Note_on_c, 0, 60, 40
3, 39952, Note_on_c, 0, 71, 48
3, 39952, Note_on_c, 0, 68, 40
3, 39960, Note_on_c, 0, 54, 33
3, 40092, Note_on_c, 0, 60, 0
3, 40104, Note_on_c, 0, 54, 0
3, 40108, Note_on_c, 0, 64, 0
3, 40116, Note_on_c, 0, 71, 0
3, 40128, Note_on_c, 0, 68, 0
3, 40336, Note_on_c, 0, 70, 51
3, 40344, Note_on_c, 0, 68, 43
3, 40348, Note_on_c, 0, 54, 37
3, 40348, Note_on_c, 0, 64, 47
3, 40352, Note_on_c, 0, 60, 39
3, 40460, Note_on_c, 0, 60, 0
3, 40488, Note_on_c, 0, 64, 0
3, 40492, Note_on_c, 0, 54, 0
3, 40496, Note_on_c, 0, 68, 0
3, 40508, Note_on_c, 0, 70, 0
3, 40580, Control_c, 0, 64, 127
3, 40624, Control_c, 0, 64, 0
3, 40728, Note_on_c, 0, 71, 57
3, 40736, Note_on_c, 0, 68, 36
3, 40740, Note_on_c, 0, 54, 37
3, 40740, Note_on_c, 0, 64, 42
3, 40748, Note_on_c, 0, 60, 37
3, 40836, Control_c, 0, 64, 127
3, 40912, Note_on_c, 0, 64, 0
3, 40988, Note_on_c, 0, 64, 53
3, 41004, Note_on_c, 0, 71, 0
3, 41012, Note_on_c, 0, 60, 0
3, 41192, Note_on_c, 0, 64, 0
3, 41216, Note_on_c, 0, 68, 0
3, 41296, Note_on_c, 0, 54, 0
3, 41352, Control_c, 0, 64, 0
3, 41372, Note_on_c, 0, 68, 85
3, 41372, Note_on_c, 0, 61, 77
3, 41376, Note_on_c, 0, 71, 80
3, 41376, Note_on_c, 0, 64, 83
3, 41384, Note_on_c, 0, 59, 72
3, 41384, Note_on_c, 0, 57, 68
3, 41640, Control_c, 0, 64, 127
3, 41792, Note_on_c, 0, 59, 0
3, 41796, Note_on_c, 0, 57, 0
3, 41804, Note_on_c, 0, 61, 0
3, 41908, Note_on_c, 0, 64, 0
3, 42068, Note_on_c, 0, 68, 0
3, 42080, Note_on_c, 0, 71, 0
3, 42112, Control_c, 0, 64, 0
3, 42120, Note_on_c, 0, 67, 75
3, 42120, Note_on_c, 0, 51, 60
3, 42120, Note_on_c, 0, 62, 60
3, 42124, Note_on_c, 0, 57, 60
3, 42364, Control_c, 0, 64, 127
3, 42596, Note_on_c, 0, 67, 0
3, 42640, Note_on_c, 0, 62, 0
3, 42660, Note_on_c, 0, 57, 0
3, 42812, Note_on_c, 0, 51, 0
3, 42928, Note_on_c, 0, 56, 45
3, 42960, Note_on_c, 0, 56, 0
3, 42960, Control_c, 0, 64, 0
3, 42988, Note_on_c, 0, 55, 38
3, 42996, Note_on_c, 0, 59, 66
3, 42996, Note_on_c, 0, 62, 61
3, 42996, Note_on_c, 0, 66, 44
3, 43004, Note_on_c, 0, 69, 57
3, 43012, Note_on_c, 0, 57, 62
3, 43016, Note_on_c, 0, 55, 0
3, 43204, Note_on_c, 0, 62, 0
3, 43216, Note_on_c, 0, 59, 0
3, 43224, Note_on_c, 0, 66, 0
3, 43228, Note_on_c, 0, 69, 0
3, 43248, Note_on_c, 0, 57, 0
3, 43380, Note_on_c, 0, 67, 54
3, 43384, Note_on_c, 0, 59, 51
3, 43388, Note_on_c, 0, 62, 46
3, 43392, Note_on_c, 0, 55, 53
3, 43400, Note_on_c, 0, 66, 31
3, 43588, Note_on_c, 0, 66, 0
3, 43592, Note_on_c, 0, 59, 0
3, 43596, Note_on_c, 0, 62, 0
3, 43600, Note_on_c, 0, 67, 0
3, 43636, Note_on_c, 0, 55, 0
3, 43784, Note_on_c, 0, 66, 36
3, 43784, Note_on_c, 0, 59, 44
3, 43796, Note_on_c, 0, 54, 43
3, 43800, Note_on_c, 0, 62, 41
3, 43940, Note_on_c, 0, 62, 0
3, 43944, Note_on_c, 0, 59, 0
3, 43992, Note_on_c, 0, 66, 0
3, 44056, Note_on_c, 0, 66, 33
3, 44060, Note_on_c, 0, 55, 61
3, 44060, Note_on_c, 0, 59, 46
3, 44064, Note_on_c, 0, 67, 57
3, 44068, Note_on_c, 0, 62, 38
3, 44100, Note_on_c, 0, 54, 0
3, 44336, Control_c, 0, 64, 127
3, 44408, Note_on_c, 0, 59, 0
3, 44416, Note_on_c, 0, 62, 0
3, 44448, Note_on_c, 0, 66, 0
3, 44496, Control_c, 0, 64, 0
3, 44528, Note_on_c, 0, 67, 0
3, 44552, Note_on_c, 0, 55, 0
3, 44964, Control_c, 0, 64, 127
3, 45216, Control_c, 0, 64, 0
3, 45300, Note_on_c, 0, 60, 52
3, 45304, Note_on_c, 0, 81, 64
3, 45304, Note_on_c, 0, 61, 36
3, 45308, Note_on_c, 0, 69, 49
3, 45312, Note_on_c, 0, 65, 47
3, 45336, Note_on_c, 0, 69, 0
3, 45340, Note_on_c, 0, 60, 0
3, 45340, Note_on_c, 0, 65, 0
3, 45360, Note_on_c, 0, 61, 0
3, 45364, Note_on_c, 0, 81, 0
3, 45672, Note_on_c, 0, 61, 47
3, 45672, Note_on_c, 0, 65, 64
3, 45672, Note_on_c, 0, 60, 56
3, 45684, Note_on_c, 0, 88, 66
3, 45688, Note_on_c, 0, 76, 50
3, 45704, Note_on_c, 0, 60, 0
3, 45704, Note_on_c, 0, 65, 0
3, 45720, Note_on_c, 0, 76, 0
3, 45732, Note_on_c, 0, 61, 0
3, 45740, Note_on_c, 0, 88, 0
3, 46064, Note_on_c, 0, 95, 74
3, 46068, Note_on_c, 0, 88, 62
3, 46068, Note_on_c, 0, 60, 55
3, 46068, Note_on_c, 0, 91, 59
3, 46068, Note_on_c, 0, 64, 63
3, 46072, Note_on_c, 0, 83, 58
3, 46076, Note_on_c, 0, 59, 48
3, 46088, Note_on_c, 0, 55, 44
3, 46164, Control_c, 0, 64, 127
3, 46460, Note_on_c, 0, 83, 0
3, 46500, Note_on_c, 0, 88, 0
3, 46500, Note_on_c, 0, 91, 0
3, 46512, Note_on_c, 0, 59, 0
3, 46516, Note_on_c, 0, 60, 0
3, 46528, Note_on_c, 0, 64, 0
3, 46532, Note_on_c, 0, 55, 0
3, 46556, Note_on_c, 0, 95, 0
3, 46736, Note_on_c, 0, 88, 82
3, 46736, Note_on_c, 0, 95, 80
3, 46740, Note_on_c, 0, 92, 64
3, 46740, Note_on_c, 0, 65, 68
3, 46744, Control_c, 0, 64, 0
3, 46744, Note_on_c, 0, 58, 46
3, 46744, Note_on_c, 0, 60, 60
3, 46748, Note_on_c, 0, 54, 50
3, 46940, Control_c, 0, 64, 127
3, 47172, Note_on_c, 0, 65, 0
3, 47204, Note_on_c, 0, 60, 0
3, 47244, Note_on_c, 0, 58, 0
3, 47268, Note_on_c, 0, 95, 0
3, 47284, Note_on_c, 0, 88, 0
3, 47336, Note_on_c, 0, 54, 0
3, 47352, Note_on_c, 0, 92, 0
3, 47608, Control_c, 0, 64, 0
3, 47876, Note_on_c, 0, 86, 78
3, 47876, Note_on_c, 0, 95, 80
3, 47880, Note_on_c, 0, 91, 72
3, 47884, Note_on_c, 0, 59, 64
3, 47884, Note_on_c, 0, 57, 66
3, 47884, Note_on_c, 0, 62, 66
3, 48104, Control_c, 0, 64, 127
3, 48352, Note_on_c, 0, 95, 0
3, 48372, Note_on_c, 0, 86, 0
3, 48384, Note_on_c, 0, 91, 0
3, 48440, Note_on_c, 0, 62, 0
3, 48456, Note_on_c, 0, 57, 0
3, 48460, Note_on_c, 0, 59, 0
3, 49064, Note_on_c, 0, 75, 72
3, 49064, Note_on_c, 0, 67, 83
3, 49064, Note_on_c, 0, 70, 71
3, 49064, Note_on_c, 0, 63, 82
3, 49076, Note_on_c, 0, 53, 74
3, 49080, Note_on_c, 0, 59, 63
3, 49088, Control_c, 0, 64, 0
3, 49396, Control_c, 0, 64, 127
3, 49884, Note_on_c, 0, 75, 0
3, 49932, Note_on_c, 0, 53, 0
3, 49932, Note_on_c, 0, 67, 0
3, 49956, Note_on_c, 0, 59, 0
3, 49960, Note_on_c, 0, 70, 0
3, 50020, Note_on_c, 0, 63, 0
3, 50224, Note_on_c, 0, 53, 29
3, 50256, Note_on_c, 0, 53, 0
3, 50300, Control_c, 0, 64, 0
3, 50312, Note_on_c, 0, 58, 55
3, 50312, Note_on_c, 0, 53, 43
3, 50316, Note_on_c, 0, 63, 55
3, 50316, Note_on_c, 0, 67, 58
3, 50320, Note_on_c, 0, 59, 59
3, 50468, Control_c, 0, 64, 127
3, 50556, Note_on_c, 0, 58, 0
3, 50588, Note_on_c, 0, 59, 0
3, 50600, Note_on_c, 0, 67, 0
3, 50620, Note_on_c, 0, 63, 0
3, 50624, Note_on_c, 0, 53, 0
3, 50644, Control_c, 0, 64, 0
3, 50696, Note_on_c, 0, 64, 44
3, 50704, Note_on_c, 0, 55, 41
3, 50704, Note_on_c, 0, 57, 32
3, 50708, Note_on_c, 0, 62, 44
3, 50716, Note_on_c, 0, 48, 40
3, 50884, Note_on_c, 0, 48, 0
3, 50888, Note_on_c, 0, 57, 0
3, 50892, Note_on_c, 0, 62, 0
3, 50904, Note_on_c, 0, 55, 0
3, 50920, Note_on_c, 0, 64, 0
3, 50964, Note_on_c, 0, 57, 57
3, 50972, Note_on_c, 0, 64, 44
3, 50972, Note_on_c, 0, 55, 42
3, 50976, Note_on_c, 0, 62, 42
3, 51000, Note_on_c, 0, 57, 0
3, 51004, Note_on_c, 0, 62, 0
3, 51008, Note_on_c, 0, 55, 0
3, 51008, Note_on_c, 0, 64, 0
3, 51852, Note_on_c, 0, 64, 37
3, 51852, Note_on_c, 0, 52, 40
3, 51864, Note_on_c, 0, 59, 36
3, 51868, Note_on_c, 0, 62, 32
3, 51876, Note_on_c, 0, 55, 13
3, 51940, Note_on_c, 0, 55, 0
3, 51952, Note_on_c, 0, 59, 0
3, 51960, Note_on_c, 0, 64, 0
3, 51968, Note_on_c, 0, 62, 0
3, 51972, Note_on_c, 0, 52, 0
3, 52008, Note_on_c, 0, 50, 29
3, 52064, Note_on_c, 0, 50, 0
3, 52084, Note_on_c, 0, 55, 39
3, 52084, Note_on_c, 0, 64, 39
3, 52088, Note_on_c, 0, 59, 50
3, 52096, Note_on_c, 0, 52, 45
3, 52100, Note_on_c, 0, 62, 44
3, 52220, Note_on_c, 0, 52, 0
3, 52220, Note_on_c, 0, 55, 0
3, 52244, Note_on_c, 0, 62, 0
3, 52244, Note_on_c, 0, 59, 0
3, 52248, Note_on_c, 0, 64, 0
3, 53252, Note_on_c, 0, 62, 60
3, 53256, Note_on_c, 0, 71, 52
3, 53256, Note_on_c, 0, 64, 53
3, 53264, Note_on_c, 0, 67, 39
3, 53268, Note_on_c, 0, 59, 36
3, 53276, Note_on_c, 0, 62, 0
3, 53284, Note_on_c, 0, 64, 0
3, 53292, Note_on_c, 0, 71, 0
3, 53292, Note_on_c, 0, 67, 0
3, 53312, Note_on_c, 0, 59, 0
3, 53384, Note_on_c, 0, 57, 22
3, 53428, Note_on_c, 0, 57, 0
3, 53656, Note_on_c, 0, 59, 44
3, 53656, Note_on_c, 0, 62, 65
3, 53660, Note_on_c, 0, 71, 62
3, 53668, Note_on_c, 0, 64, 60
3, 53676, Note_on_c, 0, 67, 49
3, 53728, Note_on_c, 0, 71, 0
3, 53732, Note_on_c, 0, 64, 0
3, 53748, Note_on_c, 0, 62, 0
3, 53776, Note_on_c, 0, 67, 0
3, 53816, Note_on_c, 0, 59, 0
3, 53844, Note_on_c, 0, 58, 30
3, 53872, Note_on_c, 0, 60, 19
3, 53872, Note_on_c, 0, 67, 19
3, 53880, Note_on_c, 0, 70, 23
3, 53888, Note_on_c, 0, 63, 14
3, 53976, Note_on_c, 0, 67, 0
3, 53984, Note_on_c, 0, 70, 0
3, 53984, Note_on_c, 0, 63, 0
3, 53984, Note_on_c, 0, 60, 0
3, 54012, Note_on_c, 0, 58, 0
3, 54536, Note_on_c, 0, 63, 37
3, 54536, Note_on_c, 0, 58, 38
3, 54548, Note_on_c, 0, 67, 43
3, 54556, Note_on_c, 0, 62, 48
3, 54556, Note_on_c, 0, 55, 32
3, 54704, Note_on_c, 0, 67, 0
3, 54712, Note_on_c, 0, 62, 0
3, 54728, Note_on_c, 0, 55, 0
3, 54728, Note_on_c, 0, 58, 0
3, 54744, Note_on_c, 0, 63, 0
3, 55196, Note_on_c, 0, 62, 43
3, 55196, Note_on_c, 0, 65, 40
3, 55200, Note_on_c, 0, 57, 37
3, 55228, Note_on_c, 0, 57, 0
3, 55244, Note_on_c, 0, 62, 0
3, 55264, Note_on_c, 0, 65, 0
3, 55572, Note_on_c, 0, 63, 55
3, 55576, Note_on_c, 0, 77, 66
3, 55576, Note_on_c, 0, 69, 68
3, 55580, Note_on_c, 0, 74, 57
3, 55596, Note_on_c, 0, 63, 0
3, 55600, Note_on_c, 0, 69, 0
3, 55604, Note_on_c, 0, 74, 0
3, 55608, Note_on_c, 0, 77, 0
3, 56080, Note_on_c, 0, 62, 44
3, 56084, Note_on_c, 0, 51, 39
3, 56084, Note_on_c, 0, 78, 32
3, 56088, Note_on_c, 0, 81, 38
3, 56092, Note_on_c, 0, 69, 34
3, 56096, Note_on_c, 0, 74, 47
3, 56096, Note_on_c, 0, 57, 36
3, 56220, Note_on_c, 0, 51, 0
3, 56224, Note_on_c, 0, 74, 0
3, 56228, Note_on_c, 0, 69, 0
3, 56228, Note_on_c, 0, 81, 0
3, 56228, Note_on_c, 0, 62, 0
3, 56228, Note_on_c, 0, 57, 0
3, 56244, Note_on_c, 0, 78, 0
3, 56460, Note_on_c, 0, 78, 36
3, 56460, Note_on_c, 0, 81, 55
3, 56460, Note_on_c, 0, 69, 58
3, 56464, Note_on_c, 0, 51, 49
3, 56464, Note_on_c, 0, 62, 49
3, 56468, Note_on_c, 0, 74, 55
3, 56472, Note_on_c, 0, 57, 42
3, 56592, Note_on_c, 0, 57, 0
3, 56608, Note_on_c, 0, 74, 0
3, 56612, Note_on_c, 0, 69, 0
3, 56620, Note_on_c, 0, 81, 0
3, 56624, Note_on_c, 0, 51, 0
3, 56628, Note_on_c, 0, 78, 0
3, 56636, Note_on_c, 0, 62, 0
3, 56860, Note_on_c, 0, 81, 55
3, 56868, Note_on_c, 0, 62, 38
3, 56868, Note_on_c, 0, 69, 44
3, 56872, Note_on_c, 0, 74, 43
3, 56872, Note_on_c, 0, 59, 40
3, 56880, Note_on_c, 0, 57, 34
3, 56884, Note_on_c, 0, 78, 28
3, 57032, Note_on_c, 0, 69, 0
3, 57036, Note_on_c, 0, 74, 0
3, 57040, Note_on_c, 0, 59, 0
3, 57044, Note_on_c, 0, 62, 0
3, 57044, Note_on_c, 0, 78, 0
3, 57048, Note_on_c, 0, 81, 0
3, 57048, Note_on_c, 0, 57, 0
3, 57252, Note_on_c, 0, 81, 66
3, 57256, Note_on_c, 0, 62, 45
3, 57256, Note_on_c, 0, 69, 65
3, 57260, Note_on_c, 0, 59, 43
3, 57268, Note_on_c, 0, 57, 32
3, 57272, Note_on_c, 0, 74, 53
3, 57276, Note_on_c, 0, 78, 30
3, 57640, Control_c, 0, 64, 127
3, 57896, Note_on_c, 0, 69, 0
3, 57904, Note_on_c, 0, 57, 0
3, 57908, Note_on_c, 0, 74, 0
3, 57916, Note_on_c, 0, 62, 0
3, 57920, Note_on_c, 0, 78, 0
3, 57920, Note_on_c, 0, 59, 0
3, 57928, Note_on_c, 0, 81, 0
3, 57980, Control_c, 0, 64, 0
3, 58008, Note_on_c, 0, 59, 33
3, 58008, Note_on_c, 0, 67, 51
3, 58008, Note_on_c, 0, 62, 33
3, 58020, Note_on_c, 0, 79, 32
3, 58192, Note_on_c, 0, 67, 0
3, 58196, Note_on_c, 0, 79, 0
3, 58208, Note_on_c, 0, 62, 0
3, 58216, Note_on_c, 0, 59, 0
3, 58264, Note_on_c, 0, 69, 61
3, 58272, Note_on_c, 0, 81, 49
3, 58272, Note_on_c, 0, 62, 50
3, 58280, Note_on_c, 0, 59, 53
3, 58288, Note_on_c, 0, 57, 30
3, 58316, Note_on_c, 0, 59, 0
3, 58316, Note_on_c, 0, 69, 0
3, 58324, Note_on_c, 0, 81, 0
3, 58324, Note_on_c, 0, 57, 0
3, 58328, Note_on_c, 0, 62, 0
3, 59128, Note_on_c, 0, 93, 66
3, 59136, Note_on_c, 0, 81, 49
3, 59140, Note_on_c, 0, 62, 46
3, 59152, Note_on_c, 0, 59, 47
3, 59152, Note_on_c, 0, 57, 35
3, 59320, Note_on_c, 0, 62, 0
3, 59320, Note_on_c, 0, 93, 0
3, 59328, Note_on_c, 0, 81, 0
3, 59344, Note_on_c, 0, 57, 0
3, 59344, Note_on_c, 0, 59, 0
3, 59404, Note_on_c, 0, 81, 44
3, 59408, Note_on_c, 0, 93, 43
3, 59412, Note_on_c, 0, 62, 43
3, 59416, Note_on_c, 0, 57, 32
3, 59420, Note_on_c, 0, 59, 29
3, 59440, Note_on_c, 0, 81, 0
3, 59448, Note_on_c, 0, 93, 0
3, 59456, Note_on_c, 0, 57, 0
3, 59460, Note_on_c, 0, 62, 0
3, 59460, Note_on_c, 0, 59, 0
3, 60120, Control_c, 0, 64, 127
3, 60168, Control_c, 0, 64, 0
3, 60716, Control_c, 0, 64, 127
3, 60924, Control_c, 0, 64, 0
3, 60940, Note_on_c, 0, 60, 40
3, 60940, Note_on_c, 0, 84, 41
3, 60944, Note_on_c, 0, 92, 36
3, 60948, Note_on_c, 0, 96, 30
3, 60952, Note_on_c, 0, 65, 33
3, 60968, Note_on_c, 0, 92, 0
3, 60968, Note_on_c, 0, 84, 0
3, 60972, Note_on_c, 0, 61, 21
3, 60976, Note_on_c, 0, 96, 0
3, 60980, Note_on_c, 0, 60, 0
3, 60984, Note_on_c, 0, 65, 0
3, 61000, Note_on_c, 0, 61, 0
3, 61440, Note_on_c, 0, 87, 52
3, 61444, Note_on_c, 0, 65, 54
3, 61448, Note_on_c, 0, 99, 51
3, 61448, Note_on_c, 0, 94, 49
3, 61452, Note_on_c, 0, 61, 42
3, 61468, Note_on_c, 0, 55, 44
3, 61588, Note_on_c, 0, 87, 0
3, 61592, Note_on_c, 0, 55, 0
3, 61596, Note_on_c, 0, 94, 0
3, 61596, Note_on_c, 0, 99, 0
3, 61604, Note_on_c, 0, 65, 0
3, 61624, Note_on_c, 0, 61, 0
3, 61876, Control_c, 0, 64, 127
3, 61988, Control_c, 0, 64, 0
3, 62120, Note_on_c, 0, 65, 64
3, 62120, Note_on_c, 0, 61, 47
3, 62120, Note_on_c, 0, 85, 48
3, 62128, Note_on_c, 0, 97, 43
3, 62136, Note_on_c, 0, 55, 30
3, 62144, Note_on_c, 0, 85, 0
3, 62144, Note_on_c, 0, 65, 0
3, 62152, Note_on_c, 0, 97, 0
3, 62168, Note_on_c, 0, 55, 0
3, 62188, Note_on_c, 0, 61, 0
3, 62608, Note_on_c, 0, 98, 69
3, 62616, Note_on_c, 0, 64, 57
3, 62616, Note_on_c, 0, 86, 44
3, 62620, Note_on_c, 0, 60, 44
3, 62628, Note_on_c, 0, 91, 37
3, 62632, Note_on_c, 0, 55, 47
3, 62632, Note_on_c, 0, 95, 33
3, 62636, Note_on_c, 0, 59, 46
3, 62792, Note_on_c, 0, 55, 0
3, 62796, Note_on_c, 0, 98, 0
3, 62800, Note_on_c, 0, 86, 0
3, 62808, Note_on_c, 0, 91, 0
3, 62812, Note_on_c, 0, 64, 0
3, 62812, Note_on_c, 0, 59, 0
3, 62820, Note_on_c, 0, 95, 0
3, 62824, Note_on_c, 0, 60, 0
3, 62876, Note_on_c, 0, 98, 44
3, 62876, Note_on_c, 0, 64, 49
3, 62888, Note_on_c, 0, 60, 62
3, 62888, Note_on_c, 0, 86, 28
3, 62888, Note_on_c, 0, 91, 44
3, 62896, Note_on_c, 0, 95, 34
3, 62896, Note_on_c, 0, 59, 33
3, 62904, Note_on_c, 0, 55, 35
3, 62928, Note_on_c, 0, 95, 0
3, 62928, Note_on_c, 0, 91, 0
3, 62932, Note_on_c, 0, 86, 0
3, 62932, Note_on_c, 0, 59, 0
3, 62936, Note_on_c, 0, 55, 0
3, 62940, Note_on_c, 0, 64, 0
3, 62944, Note_on_c, 0, 98, 0
3, 62952, Note_on_c, 0, 60, 0
3, 64536, Note_on_c, 0, 74, 70
3, 64540, Note_on_c, 0, 71, 65
3, 64540, Note_on_c, 0, 64, 73
3, 64544, Note_on_c, 0, 68, 52
3, 64544, Note_on_c, 0, 54, 55
3, 64548, Note_on_c, 0, 60, 55
3, 64724, Note_on_c, 0, 54, 0
3, 64724, Note_on_c, 0, 68, 0
3, 64728, Note_on_c, 0, 64, 0
3, 64732, Note_on_c, 0, 71, 0
3, 64736, Note_on_c, 0, 60, 0
3, 64744, Note_on_c, 0, 74, 0
3, 64912, Note_on_c, 0, 73, 63
3, 64916, Note_on_c, 0, 70, 59
3, 64920, Note_on_c, 0, 64, 63
3, 64928, Note_on_c, 0, 68, 57
3, 64928, Note_on_c, 0, 54, 52
3, 64928, Note_on_c, 0, 60, 48
3, 65088, Note_on_c, 0, 60, 0
3, 65088, Note_on_c, 0, 68, 0
3, 65096, Note_on_c, 0, 64, 0
3, 65104, Note_on_c, 0, 73, 0
3, 65108, Note_on_c, 0, 54, 0
3, 65116, Note_on_c, 0, 70, 0
3, 65296, Note_on_c, 0, 72, 60
3, 65300, Note_on_c, 0, 64, 62
3, 65300, Note_on_c, 0, 69, 66
3, 65300, Note_on_c, 0, 54, 62
3, 65320, Control_c, 0, 64, 127
3, 65356, Note_on_c, 0, 60, 13
3, 65452, Note_on_c, 0, 60, 0
3, 65456, Note_on_c, 0, 69, 0
3, 65464, Note_on_c, 0, 54, 0
3, 65468, Note_on_c, 0, 64, 0
3, 65504, Note_on_c, 0, 72, 0
3, 65568, Note_on_c, 0, 69, 55
3, 65580, Note_on_c, 0, 60, 57
3, 65588, Note_on_c, 0, 54, 40
3, 65592, Note_on_c, 0, 72, 30
3, 65612, Control_c, 0, 64, 0
3, 65624, Note_on_c, 0, 60, 0
3, 65656, Note_on_c, 0, 69, 0
3, 65672, Note_on_c, 0, 72, 0
3, 65676, Note_on_c, 0, 54, 0
3, 65708, Note_on_c, 0, 64, 45
3, 65892, Note_on_c, 0, 64, 0
3, 65956, Note_on_c, 0, 69, 57
3, 65960, Note_on_c, 0, 62, 58
3, 65960, Note_on_c, 0, 66, 51
3, 65964, Note_on_c, 0, 57, 60
3, 65984, Note_on_c, 0, 47, 31
3, 66000, Note_on_c, 0, 62, 0
3, 66012, Note_on_c, 0, 47, 0
3, 66016, Note_on_c, 0, 69, 0
3, 66016, Note_on_c, 0, 57, 0
3, 66020, Note_on_c, 0, 66, 0
3, 66328, Note_on_c, 0, 81, 64
3, 66332, Note_on_c, 0, 69, 63
3, 66340, Note_on_c, 0, 62, 49
3, 66356, Note_on_c, 0, 69, 0
3, 66364, Note_on_c, 0, 62, 0
3, 66376, Note_on_c, 0, 81, 0
3, 66712, Note_on_c, 0, 66, 42
3, 66712, Note_on_c, 0, 62, 54
3, 66712, Note_on_c, 0, 57, 39
3, 66712, Note_on_c, 0, 88, 72
3, 66720, Note_on_c, 0, 76, 55
3, 66736, Note_on_c, 0, 66, 0
3, 66740, Note_on_c, 0, 88, 0
3, 66740, Note_on_c, 0, 62, 0
3, 66744, Note_on_c, 0, 57, 0
3, 66744, Note_on_c, 0, 76, 0
3, 67080, Note_on_c, 0, 66, 67
3, 67084, Note_on_c, 0, 57, 59
3, 67084, Note_on_c, 0, 95, 79
3, 67088, Note_on_c, 0, 83, 69
3, 67092, Note_on_c, 0, 62, 58
3, 67096, Note_on_c, 0, 88, 47
3, 67108, Note_on_c, 0, 95, 0
3, 67108, Note_on_c, 0, 57, 0
3, 67112, Note_on_c, 0, 83, 0
3, 67112, Note_on_c, 0, 66, 0
3, 67116, Note_on_c, 0, 62, 0
3, 67124, Note_on_c, 0, 88, 0
3, 67320, Control_c, 0, 64, 127
3, 67432, Control_c, 0, 64, 0
3, 67448, Note_on_c, 0, 62, 64
3, 67456, Note_on_c, 0, 66, 67
3, 67456, Note_on_c, 0, 90, 69
3, 67456, Note_on_c, 0, 86, 80
3, 67460, Note_on_c, 0, 93, 87
3, 67460, Note_on_c, 0, 81, 80
3, 67464, Note_on_c, 0, 55, 62
3, 67468, Note_on_c, 0, 59, 61
3, 67864, Control_c, 0, 64, 127
3, 67884, Control_c, 0, 64, 0
3, 67888, Note_on_c, 0, 55, 0
3, 67888, Note_on_c, 0, 66, 0
3, 67892, Note_on_c, 0, 81, 0
3, 67896, Note_on_c, 0, 59, 0
3, 67896, Note_on_c, 0, 93, 0
3, 67904, Note_on_c, 0, 86, 0
3, 67904, Note_on_c, 0, 62, 0
3, 67924, Note_on_c, 0, 90, 0
3, 67976, Note_on_c, 0, 66, 67
3, 67980, Note_on_c, 0, 62, 46
3, 67980, Note_on_c, 0, 91, 59
3, 67988, Note_on_c, 0, 55, 49
3, 67992, Note_on_c, 0, 86, 44
3, 67996, Note_on_c, 0, 59, 42
3, 67996, Note_on_c, 0, 79, 33
3, 68112, Note_on_c, 0, 55, 0
3, 68132, Note_on_c, 0, 91, 0
3, 68132, Note_on_c, 0, 59, 0
3, 68140, Note_on_c, 0, 66, 0
3, 68140, Note_on_c, 0, 62, 0
3, 68152, Note_on_c, 0, 79, 0
3, 68176, Note_on_c, 0, 86, 0
3, 68364, Note_on_c, 0, 66, 49
3, 68364, Note_on_c, 0, 78, 36
3, 68368, Note_on_c, 0, 90, 40
3, 68368, Note_on_c, 0, 62, 46
3, 68376, Note_on_c, 0, 86, 44
3, 68380, Control_c, 0, 64, 127
3, 68380, Note_on_c, 0, 55, 42
3, 68388, Note_on_c, 0, 59, 43
3, 68492, Note_on_c, 0, 86, 0
3, 68500, Note_on_c, 0, 66, 0
3, 68500, Note_on_c, 0, 55, 0
3, 68520, Note_on_c, 0, 59, 0
3, 68524, Note_on_c, 0, 78, 0
3, 68524, Note_on_c, 0, 62, 0
3, 68548, Note_on_c, 0, 90, 0
3, 68632, Note_on_c, 0, 86, 53
3, 68640, Note_on_c, 0, 91, 43
3, 68640, Note_on_c, 0, 66, 37
3, 68640, Note_on_c, 0, 62, 41
3, 68644, Note_on_c, 0, 79, 41
3, 68652, Note_on_c, 0, 59, 43
3, 68656, Note_on_c, 0, 55, 35
3, 68692, Note_on_c, 0, 79, 0
3, 68732, Note_on_c, 0, 86, 0
3, 68752, Note_on_c, 0, 91, 0
3, 68768, Note_on_c, 0, 62, 0
3, 68788, Note_on_c, 0, 55, 0
3, 68800, Note_on_c, 0, 59, 0
3, 68824, Note_on_c, 0, 66, 0
3, 69000, Control_c, 0, 64, 0
3, 69004, Note_on_c, 0, 93, 82
3, 69004, Note_on_c, 0, 100, 83
3, 69008, Note_on_c, 0, 88, 74
3, 69008, Note_on_c, 0, 66, 81
3, 69008, Note_on_c, 0, 61, 74
3, 69016, Note_on_c, 0, 55, 80
3, 69020, Note_on_c, 0, 97, 47
3, 69044, Note_on_c, 0, 97, 0
3, 69112, Note_on_c, 0, 88, 0
3, 69144, Control_c, 0, 64, 127
3, 69168, Note_on_c, 0, 93, 0
3, 69184, Note_on_c, 0, 88, 49
3, 69192, Note_on_c, 0, 61, 0
3, 69196, Note_on_c, 0, 66, 0
3, 69216, Note_on_c, 0, 100, 0
3, 69268, Note_on_c, 0, 88, 0
3, 69268, Note_on_c, 0, 61, 35
3, 69272, Note_on_c, 0, 93, 34
3, 69296, Note_on_c, 0, 66, 38
3, 69304, Note_on_c, 0, 55, 0
3, 69328, Note_on_c, 0, 100, 28
3, 69348, Control_c, 0, 64, 0
3, 69368, Note_on_c, 0, 66, 0
3, 69372, Note_on_c, 0, 61, 0
3, 69380, Note_on_c, 0, 93, 0
3, 69384, Note_on_c, 0, 55, 57
3, 69400, Note_on_c, 0, 97, 15
3, 69412, Note_on_c, 0, 66, 35
3, 69452, Note_on_c, 0, 97, 0
3, 69452, Note_on_c, 0, 100, 0
3, 69464, Note_on_c, 0, 55, 0
3, 69468, Note_on_c, 0, 66, 0
3, 71056, Note_on_c, 0, 76, 64
3, 71060, Note_on_c, 0, 61, 42
3, 71060, Note_on_c, 0, 73, 45
3, 71060, Note_on_c, 0, 55, 51
3, 71068, Note_on_c, 0, 66, 35
3, 71068, Note_on_c, 0, 69, 62
3, 71224, Note_on_c, 0, 55, 0
3, 71236, Note_on_c, 0, 76, 0
3, 71248, Note_on_c, 0, 66, 0
3, 71248, Note_on_c, 0, 69, 0
3, 71264, Note_on_c, 0, 73, 0
3, 71276, Note_on_c, 0, 61, 0
3, 71320, Note_on_c, 0, 73, 49
3, 71320, Note_on_c, 0, 66, 55
3, 71320, Note_on_c, 0, 76, 60
3, 71320, Note_on_c, 0, 69, 67
3, 71324, Note_on_c, 0, 55, 65
3, 71328, Note_on_c, 0, 61, 56
3, 71404, Note_on_c, 0, 66, 0
3, 71408, Note_on_c, 0, 55, 0
3, 71412, Note_on_c, 0, 76, 0
3, 71416, Note_on_c, 0, 69, 0
3, 71432, Note_on_c, 0, 73, 0
3, 71436, Note_on_c, 0, 61, 0
3, 71464, Note_on_c, 0, 66, 34
3, 71468, Note_on_c, 0, 61, 28
3, 71472, Note_on_c, 0, 55, 57
3, 71480, Note_on_c, 0, 76, 32
3, 71480, Note_on_c, 0, 73, 32
3, 71484, Note_on_c, 0, 69, 55
3, 71616, Note_on_c, 0, 55, 0
3, 71632, Note_on_c, 0, 76, 0
3, 71636, Note_on_c, 0, 69, 0
3, 71656, Note_on_c, 0, 66, 0
3, 71660, Note_on_c, 0, 73, 0
3, 71676, Note_on_c, 0, 61, 0
3, 71708, Note_on_c, 0, 73, 60
3, 71712, Note_on_c, 0, 69, 70
3, 71712, Note_on_c, 0, 61, 49
3, 71716, Note_on_c, 0, 76, 57
3, 71728, Note_on_c, 0, 55, 55
3, 71748, Note_on_c, 0, 76, 0
3, 71760, Note_on_c, 0, 69, 0
3, 71760, Note_on_c, 0, 55, 0
3, 71764, Note_on_c, 0, 73, 0
3, 71780, Note_on_c, 0, 61, 0
3, 72056, Note_on_c, 0, 57, 61
3, 72072, Note_on_c, 0, 71, 74
3, 72076, Note_on_c, 0, 64, 76
3, 72080, Note_on_c, 0, 60, 73
3, 72084, Note_on_c, 0, 57, 0
3, 72084, Note_on_c, 0, 67, 68
3, 72084, Note_on_c, 0, 59, 76
3, 72492, Note_on_c, 0, 60, 0
3, 72516, Note_on_c, 0, 64, 0
3, 72532, Note_on_c, 0, 71, 0
3, 72540, Note_on_c, 0, 67, 0
3, 72576, Note_on_c, 0, 60, 46
3, 72584, Note_on_c, 0, 69, 57
3, 72588, Note_on_c, 0, 64, 45
3, 72588, Note_on_c, 0, 57, 55
3, 72592, Note_on_c, 0, 59, 0
3, 72800, Note_on_c, 0, 64, 0
3, 72804, Note_on_c, 0, 69, 0
3, 72824, Note_on_c, 0, 60, 0
3, 72892, Note_on_c, 0, 57, 0
3, 72964, Note_on_c, 0, 68, 42
3, 72968, Note_on_c, 0, 63, 35
3, 72972, Note_on_c, 0, 56, 36
3, 72984, Note_on_c, 0, 66, 37
3, 72996, Note_on_c, 0, 60, 24
3, 73128, Note_on_c, 0, 60, 0
3, 73160, Note_on_c, 0, 63, 0
3, 73164, Note_on_c, 0, 66, 0
3, 73188, Note_on_c, 0, 68, 0
3, 73236, Note_on_c, 0, 69, 58
3, 73240, Note_on_c, 0, 56, 0
3, 73248, Note_on_c, 0, 60, 38
3, 73248, Note_on_c, 0, 64, 51
3, 73248, Note_on_c, 0, 57, 56
3, 73360, Control_c, 0, 64, 127
3, 73440, Note_on_c, 0, 60, 0
3, 73464, Note_on_c, 0, 64, 0
3, 73512, Note_on_c, 0, 69, 0
3, 73592, Note_on_c, 0, 57, 0
3, 73600, Note_on_c, 0, 65, 81
3, 73604, Note_on_c, 0, 62, 85
3, 73604, Note_on_c, 0, 72, 80
3, 73608, Note_on_c, 0, 60, 78
3, 73608, Control_c, 0, 64, 0
3, 73612, Note_on_c, 0, 69, 74
3, 74008, Note_on_c, 0, 69, 0
3, 74048, Note_on_c, 0, 65, 0
3, 74048, Note_on_c, 0, 62, 0
3, 74096, Note_on_c, 0, 72, 0
3, 74128, Note_on_c, 0, 62, 54
3, 74136, Note_on_c, 0, 60, 0
3, 74136, Note_on_c, 0, 65, 49
3, 74140, Note_on_c, 0, 57, 55
3, 74140, Note_on_c, 0, 69, 49
3, 74164, Control_c, 0, 64, 127
3, 74260, Note_on_c, 0, 69, 0
3, 74292, Note_on_c, 0, 65, 0
3, 74316, Note_on_c, 0, 62, 0
3, 74448, Note_on_c, 0, 57, 0
3, 74460, Control_c, 0, 64, 0
3, 74500, Note_on_c, 0, 59, 52
3, 74500, Note_on_c, 0, 63, 59
3, 74508, Note_on_c, 0, 67, 62
3, 74512, Note_on_c, 0, 58, 40
3, 74516, Note_on_c, 0, 53, 37
3, 74752, Control_c, 0, 64, 127
3, 74784, Note_on_c, 0, 59, 0
3, 74800, Note_on_c, 0, 58, 0
3, 74816, Control_c, 0, 64, 0
3, 74820, Note_on_c, 0, 63, 0
3, 74832, Note_on_c, 0, 67, 0
3, 74896, Note_on_c, 0, 59, 45
3, 74896, Note_on_c, 0, 58, 55
3, 74900, Note_on_c, 0, 63, 45
3, 74904, Note_on_c, 0, 67, 46
3, 74904, Note_on_c, 0, 70, 44
3, 74964, Control_c, 0, 64, 127
3, 75000, Note_on_c, 0, 59, 0
3, 75060, Note_on_c, 0, 53, 0
3, 75080, Note_on_c, 0, 67, 0
3, 75088, Note_on_c, 0, 63, 0
3, 75088, Note_on_c, 0, 58, 0
3, 75092, Note_on_c, 0, 70, 0
3, 75176, Control_c, 0, 64, 0
3, 75176, Note_on_c, 0, 59, 57
3, 75180, Note_on_c, 0, 67, 41
3, 75188, Note_on_c, 0, 64, 63
3, 75200, Note_on_c, 0, 52, 44
3, 75884, Note_on_c, 0, 67, 0
3, 75900, Note_on_c, 0, 64, 0
3, 75976, Note_on_c, 0, 59, 0
3, 75996, Note_on_c, 0, 51, 28
3, 76016, Note_on_c, 0, 52, 0
3, 76028, Note_on_c, 0, 51, 0
3, 76040, Note_on_c, 0, 67, 57
3, 76048, Note_on_c, 0, 57, 48
3, 76048, Note_on_c, 0, 62, 54
3, 76056, Note_on_c, 0, 52, 42
3, 76104, Note_on_c, 0, 67, 0
3, 76112, Note_on_c, 0, 57, 0
3, 76112, Note_on_c, 0, 62, 0
3, 76152, Note_on_c, 0, 52, 0
3, 76184, Note_on_c, 0, 51, 46
3, 76272, Note_on_c, 0, 51, 0
3, 76288, Note_on_c, 0, 67, 63
3, 76292, Note_on_c, 0, 62, 58
3, 76296, Note_on_c, 0, 57, 60
3, 76304, Note_on_c, 0, 52, 58
3, 76516, Note_on_c, 0, 67, 0
3, 76548, Note_on_c, 0, 57, 0
3, 76568, Note_on_c, 0, 62, 0
3, 76636, Note_on_c, 0, 52, 0
3, 76728, Note_on_c, 0, 52, 48
3, 76728, Note_on_c, 0, 57, 35
3, 76760, Note_on_c, 0, 57, 0
3, 76764, Note_on_c, 0, 52, 0
3, 76848, Note_on_c, 0, 51, 27
3, 76912, Note_on_c, 0, 51, 0
3, 76928, Note_on_c, 0, 57, 67
3, 76932, Note_on_c, 0, 67, 57
3, 76936, Note_on_c, 0, 62, 55
3, 76940, Note_on_c, 0, 52, 57
3, 77096, Note_on_c, 0, 67, 0
3, 77108, Note_on_c, 0, 57, 0
3, 77116, Note_on_c, 0, 62, 0
3, 77116, Note_on_c, 0, 52, 0
3, 77196, Note_on_c, 0, 52, 36
3, 77196, Note_on_c, 0, 57, 46
3, 77200, Note_on_c, 0, 67, 37
3, 77200, Note_on_c, 0, 62, 38
3, 77244, Note_on_c, 0, 67, 0
3, 77252, Note_on_c, 0, 57, 0
3, 77264, Note_on_c, 0, 62, 0
3, 77292, Note_on_c, 0, 52, 0
3, 77328, Note_on_c, 0, 51, 37
3, 77416, Note_on_c, 0, 51, 0
3, 77432, Note_on_c, 0, 62, 62
3, 77432, Note_on_c, 0, 67, 61
3, 77440, Note_on_c, 0, 57, 52
3, 77444, Note_on_c, 0, 52, 58
3, 77632, Note_on_c, 0, 67, 0
3, 77652, Note_on_c, 0, 52, 0
3, 77656, Note_on_c, 0, 57, 0
3, 77660, Note_on_c, 0, 62, 0
3, 79096, Note_on_c, 0, 70, 56
3, 79100, Note_on_c, 0, 65, 58
3, 79100, Note_on_c, 0, 58, 33
3, 79104, Note_on_c, 0, 60, 49
3, 79112, Note_on_c, 0, 53, 43
3, 79148, Note_on_c, 0, 53, 0
3, 79152, Note_on_c, 0, 60, 0
3, 79160, Note_on_c, 0, 58, 0
3, 79172, Note_on_c, 0, 65, 0
3, 79208, Note_on_c, 0, 70, 0
3, 79480, Note_on_c, 0, 75, 70
3, 79480, Note_on_c, 0, 70, 73
3, 79488, Note_on_c, 0, 58, 45
3, 79488, Note_on_c, 0, 65, 59
3, 79496, Note_on_c, 0, 53, 47
3, 79524, Note_on_c, 0, 48, 33
3, 79600, Note_on_c, 0, 53, 0
3, 79608, Note_on_c, 0, 75, 0
3, 79608, Note_on_c, 0, 48, 0
3, 79620, Note_on_c, 0, 65, 0
3, 79628, Note_on_c, 0, 70, 0
3, 79684, Note_on_c, 0, 58, 0
3, 79848, Note_on_c, 0, 66, 54
3, 79868, Note_on_c, 0, 51, 49
3, 79868, Note_on_c, 0, 69, 59
3, 79872, Note_on_c, 0, 62, 57
3, 79876, Note_on_c, 0, 57, 43
3, 80284, Control_c, 0, 64, 127
3, 80344, Note_on_c, 0, 57, 0
3, 80372, Note_on_c, 0, 69, 0
3, 80372, Note_on_c, 0, 51, 0
3, 80384, Note_on_c, 0, 62, 0
3, 80404, Note_on_c, 0, 66, 0
3, 80532, Note_on_c, 0, 66, 52
3, 80540, Control_c, 0, 64, 0
3, 80540, Note_on_c, 0, 62, 54
3, 80540, Note_on_c, 0, 72, 51
3, 80548, Note_on_c, 0, 69, 55
3, 80552, Note_on_c, 0, 51, 44
3, 80556, Note_on_c, 0, 57, 48
3, 80800, Control_c, 0, 64, 127
3, 80884, Note_on_c, 0, 62, 0
3, 80972, Note_on_c, 0, 57, 0
3, 81032, Note_on_c, 0, 72, 0
3, 81036, Note_on_c, 0, 51, 0
3, 81040, Note_on_c, 0, 69, 0
3, 81052, Note_on_c, 0, 62, 30
3, 81072, Note_on_c, 0, 66, 0
3, 81092, Note_on_c, 0, 62, 0
3, 81348, Control_c, 0, 64, 0
3, 81784, Note_on_c, 0, 62, 53
3, 81788, Note_on_c, 0, 57, 46
3, 81788, Note_on_c, 0, 59, 45
3, 81800, Note_on_c, 0, 69, 62
3, 81800, Note_on_c, 0, 74, 55
3, 81808, Note_on_c, 0, 71, 42
3, 81828, Note_on_c, 0, 59, 0
3, 81832, Note_on_c, 0, 74, 0
3, 81832, Note_on_c, 0, 69, 0
3, 81836, Note_on_c, 0, 71, 0
3, 81852, Note_on_c, 0, 62, 0
3, 81912, Note_on_c, 0, 74, 22
3, 81912, Note_on_c, 0, 71, 29
3, 81916, Note_on_c, 0, 69, 24
3, 81920, Note_on_c, 0, 57, 0
3, 81936, Note_on_c, 0, 74, 0
3, 81940, Note_on_c, 0, 71, 0
3, 81940, Note_on_c, 0, 69, 0
3, 82184, Note_on_c, 0, 71, 60
3, 82184, Note_on_c, 0, 62, 53
3, 82184, Note_on_c, 0, 74, 64
3, 82188, Note_on_c, 0, 69, 62
3, 82188, Note_on_c, 0, 59, 41
3, 82196, Note_on_c, 0, 57, 39
3, 82600, Control_c, 0, 64, 127
3, 82724, Note_on_c, 0, 69, 0
3, 82768, Note_on_c, 0, 62, 0
3, 82772, Note_on_c, 0, 59, 0
3, 82772, Note_on_c, 0, 57, 0
3, 82788, Note_on_c, 0, 71, 0
3, 82792, Note_on_c, 0, 74, 0
3, 82832, Control_c, 0, 64, 0
3, 82864, Note_on_c, 0, 71, 38
3, 82868, Note_on_c, 0, 64, 37
3, 82868, Note_on_c, 0, 69, 52
3, 82892, Note_on_c, 0, 59, 28
3, 82908, Note_on_c, 0, 62, 27
3, 82920, Note_on_c, 0, 57, 15
3, 83368, Note_on_c, 0, 62, 0
3, 83376, Control_c, 0, 64, 127
3, 83480, Note_on_c, 0, 57, 0
3, 83484, Note_on_c, 0, 59, 0
3, 83496, Note_on_c, 0, 64, 0
3, 83520, Note_on_c, 0, 69, 0
3, 83560, Note_on_c, 0, 71, 0
3, 83560, Control_c, 0, 64, 0
3, 83600, Note_on_c, 0, 69, 37
3, 83604, Note_on_c, 0, 64, 54
3, 83616, Note_on_c, 0, 59, 48
3, 83620, Note_on_c, 0, 62, 47
3, 83628, Note_on_c, 0, 57, 36
3, 83640, Note_on_c, 0, 64, 0
3, 83648, Note_on_c, 0, 62, 0
3, 83652, Note_on_c, 0, 69, 0
3, 83652, Note_on_c, 0, 59, 0
3, 83656, Note_on_c, 0, 57, 0
3, 84284, Control_c, 0, 64, 127
3, 84376, Control_c, 0, 64, 0
3, 84484, Note_on_c, 0, 65, 49
3, 84488, Note_on_c, 0, 84, 71
3, 84488, Note_on_c, 0, 60, 35
3, 84492, Note_on_c, 0, 77, 45
3, 84492, Note_on_c, 0, 61, 29
3, 84492, Note_on_c, 0, 56, 39
3, 84492, Note_on_c, 0, 72, 45
3, 84500, Note_on_c, 0, 80, 32
3, 84852, Note_on_c, 0, 72, 0
3, 84884, Note_on_c, 0, 65, 0
3, 84884, Note_on_c, 0, 77, 0
3, 84896, Note_on_c, 0, 60, 0
3, 84908, Note_on_c, 0, 80, 0
3, 84920, Note_on_c, 0, 84, 0
3, 84932, Note_on_c, 0, 56, 0
3, 84936, Note_on_c, 0, 61, 0
3, 84988, Control_c, 0, 64, 127
3, 85124, Control_c, 0, 64, 0
3, 85136, Note_on_c, 0, 96, 79
3, 85144, Note_on_c, 0, 61, 47
3, 85148, Note_on_c, 0, 65, 64
3, 85148, Note_on_c, 0, 60, 57
3, 85160, Note_on_c, 0, 96, 0
3, 85172, Note_on_c, 0, 60, 0
3, 85172, Note_on_c, 0, 65, 0
3, 85196, Note_on_c, 0, 61, 0
3, 85756, Control_c, 0, 64, 127
3, 85780, Control_c, 0, 64, 0
3, 85888, Note_on_c, 0, 94, 68
3, 85892, Note_on_c, 0, 61, 56
3, 85892, Note_on_c, 0, 82, 65
3, 85896, Note_on_c, 0, 65, 66
3, 85908, Note_on_c, 0, 55, 38
3, 85912, Note_on_c, 0, 87, 30
3, 85920, Note_on_c, 0, 65, 0
3, 85920, Note_on_c, 0, 82, 0
3, 85932, Note_on_c, 0, 87, 0
3, 85940, Note_on_c, 0, 94, 0
3, 85940, Note_on_c, 0, 55, 0
3, 85944, Note_on_c, 0, 61, 0
3, 86420, Note_on_c, 0, 61, 37
3, 86420, Note_on_c, 0, 82, 67
3, 86420, Note_on_c, 0, 94, 67
3, 86420, Note_on_c, 0, 65, 58
3, 86432, Note_on_c, 0, 90, 33
3, 86432, Note_on_c, 0, 55, 47
3, 86432, Note_on_c, 0, 87, 49
3, 86480, Control_c, 0, 64, 127
3, 86580, Note_on_c, 0, 87, 0
3, 86580, Note_on_c, 0, 94, 0
3, 86580, Note_on_c, 0, 55, 0
3, 86592, Note_on_c, 0, 90, 0
3, 86592, Note_on_c, 0, 82, 0
3, 86596, Note_on_c, 0, 65, 0
3, 86616, Note_on_c, 0, 61, 0
3, 86664, Note_on_c, 0, 94, 61
3, 86668, Note_on_c, 0, 82, 45
3, 86672, Note_on_c, 0, 61, 49
3, 86676, Note_on_c, 0, 87, 54
3, 86676, Control_c, 0, 64, 0
3, 86680, Note_on_c, 0, 65, 53
3, 86680, Note_on_c, 0, 55, 58
3, 86732, Note_on_c, 0, 65, 0
3, 86736, Note_on_c, 0, 55, 0
3, 86744, Note_on_c, 0, 82, 0
3, 86744, Note_on_c, 0, 94, 0
3, 86744, Note_on_c, 0, 87, 0
3, 86756, Note_on_c, 0, 61, 0
3, 86796, Note_on_c, 0, 94, 38
3, 86796, Note_on_c, 0, 55, 51
3, 86800, Note_on_c, 0, 61, 43
3, 86800, Note_on_c, 0, 65, 51
3, 86816, Note_on_c, 0, 87, 37
3, 86816, Note_on_c, 0, 82, 36
3, 86852, Note_on_c, 0, 91, 19
3, 86956, Note_on_c, 0, 55, 0
3, 86972, Note_on_c, 0, 94, 0
3, 86984, Note_on_c, 0, 82, 0
3, 86992, Note_on_c, 0, 65, 0
3, 86996, Note_on_c, 0, 91, 0
3, 86996, Note_on_c, 0, 87, 0
3, 87016, Note_on_c, 0, 61, 0
3, 87052, Note_on_c, 0, 87, 59
3, 87056, Note_on_c, 0, 61, 59
3, 87060, Note_on_c, 0, 82, 52
3, 87064, Note_on_c, 0, 94, 55
3, 87064, Note_on_c, 0, 65, 57
3, 87068, Note_on_c, 0, 55, 66
3, 87112, Note_on_c, 0, 82, 0
3, 87120, Note_on_c, 0, 65, 0
3, 87120, Note_on_c, 0, 87, 0
3, 87128, Note_on_c, 0, 55, 0
3, 87128, Note_on_c, 0, 94, 0
3, 87148, Note_on_c, 0, 61, 0
3, 87248, Note_on_c, 0, 87, 31
3, 87276, Note_on_c, 0, 87, 0
3, 87944, Note_on_c, 0, 64, 68
3, 87944, Note_on_c, 0, 60, 58
3, 87944, Note_on_c, 0, 95, 61
3, 87944, Note_on_c, 0, 55, 60
3, 87948, Note_on_c, 0, 83, 53
3, 87952, Note_on_c, 0, 59, 51
3, 87952, Note_on_c, 0, 91, 42
3, 87956, Note_on_c, 0, 88, 45
3, 87976, Note_on_c, 0, 59, 0
3, 87984, Note_on_c, 0, 88, 0
3, 87988, Note_on_c, 0, 83, 0
3, 87988, Note_on_c, 0, 91, 0
3, 87992, Note_on_c, 0, 95, 0
3, 87996, Note_on_c, 0, 55, 0
3, 88024, Note_on_c, 0, 55, 17
3, 88032, Note_on_c, 0, 59, 22
3, 88048, Note_on_c, 0, 95, 40
3, 88052, Note_on_c, 0, 88, 47
3, 88056, Note_on_c, 0, 83, 36
3, 88056, Note_on_c, 0, 91, 41
3, 88092, Note_on_c, 0, 91, 0
3, 88092, Note_on_c, 0, 83, 0
3, 88092, Note_on_c, 0, 95, 0
3, 88092, Note_on_c, 0, 88, 0
3, 88100, Note_on_c, 0, 55, 0
3, 88104, Note_on_c, 0, 64, 0
3, 88108, Note_on_c, 0, 59, 0
3, 88112, Note_on_c, 0, 60, 0
3, 88484, Note_on_c, 0, 95, 73
3, 88496, Note_on_c, 0, 64, 63
3, 88496, Note_on_c, 0, 60, 58
3, 88500, Note_on_c, 0, 91, 40
3, 88500, Note_on_c, 0, 83, 37
3, 88504, Note_on_c, 0, 59, 41
3, 88504, Note_on_c, 0, 88, 35
3, 88520, Note_on_c, 0, 64, 0
3, 88528, Note_on_c, 0, 60, 0
3, 88532, Note_on_c, 0, 83, 0
3, 88532, Note_on_c, 0, 91, 0
3, 88532, Note_on_c, 0, 59, 0
3, 88536, Note_on_c, 0, 88, 0
3, 88548, Note_on_c, 0, 95, 0
3, 88748, Note_on_c, 0, 60, 53
3, 88748, Note_on_c, 0, 91, 60
3, 88752, Note_on_c, 0, 88, 62
3, 88752, Note_on_c, 0, 83, 62
3, 88756, Note_on_c, 0, 95, 53
3, 88756, Note_on_c, 0, 64, 36
3, 88760, Note_on_c, 0, 59, 30
3, 88776, Note_on_c, 0, 83, 0
3, 88776, Note_on_c, 0, 88, 0
3, 88776, Note_on_c, 0, 91, 0
3, 88784, Note_on_c, 0, 95, 0
3, 88784, Note_on_c, 0, 60, 0
3, 88788, Note_on_c, 0, 64, 0
3, 88792, Note_on_c, 0, 59, 0
3, 88800, Note_on_c, 0, 55, 13
3, 88808, Note_on_c, 0, 60, 24
3, 88816, Note_on_c, 0, 59, 32
3, 88824, Note_on_c, 0, 64, 54
3, 88832, Note_on_c, 0, 83, 46
3, 88836, Note_on_c, 0, 88, 50
3, 88840, Note_on_c, 0, 95, 44
3, 88840, Note_on_c, 0, 91, 39
3, 88872, Note_on_c, 0, 91, 0
3, 88872, Note_on_c, 0, 88, 0
3, 88876, Note_on_c, 0, 95, 0
3, 88880, Note_on_c, 0, 83, 0
3, 88884, Note_on_c, 0, 64, 0
3, 88892, Note_on_c, 0, 59, 0
3, 88900, Note_on_c, 0, 60, 0
3, 88908, Note_on_c, 0, 55, 0
3, 89064, Note_on_c, 0, 54, 74
3, 89068, Note_on_c, 0, 64, 71
3, 89072, Note_on_c, 0, 60, 62
3, 89072, Note_on_c, 0, 95, 81
3, 89076, Note_on_c, 0, 88, 76
3, 89076, Note_on_c, 0, 83, 68
3, 89100, Note_on_c, 0, 88, 0
3, 89100, Note_on_c, 0, 60, 0
3, 89104, Note_on_c, 0, 64, 0
3, 89104, Note_on_c, 0, 83, 0
3, 89120, Note_on_c, 0, 54, 0
3, 89120, Note_on_c, 0, 95, 0
3, 89328, Note_on_c, 0, 95, 85
3, 89332, Note_on_c, 0, 83, 73
3, 89332, Note_on_c, 0, 88, 77
3, 89332, Note_on_c, 0, 54, 78
3, 89336, Note_on_c, 0, 64, 70
3, 89340, Note_on_c, 0, 60, 72
3, 89472, Control_c, 0, 64, 127
3, 89744, Note_on_c, 0, 64, 0
3, 89764, Note_on_c, 0, 83, 0
3, 89768, Note_on_c, 0, 95, 0
3, 89792, Note_on_c, 0, 88, 0
3, 89796, Note_on_c, 0, 60, 0
3, 89804, Note_on_c, 0, 54, 0
3, 89832, Control_c, 0, 64, 0
3, 89864, Note_on_c, 0, 54, 55
3, 89864, Note_on_c, 0, 62, 55
3, 89868, Note_on_c, 0, 88, 36
3, 89868, Note_on_c, 0, 93, 55
3, 89868, Note_on_c, 0, 81, 46
3, 89872, Note_on_c, 0, 60, 44
3, 89932, Note_on_c, 0, 62, 0
3, 89960, Note_on_c, 0, 60, 0
3, 89988, Note_on_c, 0, 54, 0
3, 90008, Note_on_c, 0, 81, 0
3, 90020, Note_on_c, 0, 93, 0
3, 90028, Note_on_c, 0, 88, 0
3, 90252, Note_on_c, 0, 92, 57
3, 90252, Note_on_c, 0, 80, 53
3, 90256, Note_on_c, 0, 87, 57
3, 90256, Note_on_c, 0, 54, 56
3, 90260, Note_on_c, 0, 60, 51
3, 90264, Note_on_c, 0, 62, 55
3, 90300, Note_on_c, 0, 62, 0
3, 90304, Note_on_c, 0, 60, 0
3, 90364, Note_on_c, 0, 80, 0
3, 90368, Note_on_c, 0, 87, 0
3, 90372, Note_on_c, 0, 92, 0
3, 90376, Note_on_c, 0, 54, 0
3, 90624, Note_on_c, 0, 88, 62
3, 90624, Note_on_c, 0, 93, 68
3, 90628, Note_on_c, 0, 81, 58
3, 90628, Note_on_c, 0, 62, 60
3, 90632, Note_on_c, 0, 51, 50
3, 90640, Note_on_c, 0, 57, 52
3, 90984, Control_c, 0, 64, 127
3, 91036, Note_on_c, 0, 93, 0
3, 91068, Note_on_c, 0, 88, 0
3, 91100, Note_on_c, 0, 81, 0
3, 91196, Note_on_c, 0, 62, 0
3, 91224, Note_on_c, 0, 57, 0
3, 91304, Note_on_c, 0, 51, 0
3, 91380, Control_c, 0, 64, 0
3, 91396, Note_on_c, 0, 51, 53
3, 91400, Note_on_c, 0, 71, 79
3, 91404, Note_on_c, 0, 67, 72
3, 91404, Note_on_c, 0, 62, 68
3, 91408, Note_on_c, 0, 57, 61
3, 91600, Note_on_c, 0, 57, 0
3, 91616, Note_on_c, 0, 71, 0
3, 91620, Note_on_c, 0, 62, 0
3, 91640, Control_c, 0, 64, 127
3, 91664, Note_on_c, 0, 74, 81
3, 91688, Control_c, 0, 64, 0
3, 91692, Note_on_c, 0, 57, 54
3, 91724, Note_on_c, 0, 57, 0
3, 91756, Note_on_c, 0, 67, 0
3, 91760, Note_on_c, 0, 74, 0
3, 91772, Note_on_c, 0, 51, 0
3, 91800, Note_on_c, 0, 57, 38
3, 91824, Note_on_c, 0, 51, 45
3, 92000, Note_on_c, 0, 57, 0
3, 92036, Note_on_c, 0, 69, 68
3, 92040, Note_on_c, 0, 62, 65
3, 92040, Note_on_c, 0, 66, 45
3, 92048, Note_on_c, 0, 57, 62
3, 92056, Note_on_c, 0, 52, 66
3, 92072, Note_on_c, 0, 59, 34
3, 92076, Note_on_c, 0, 51, 0
3, 92416, Control_c, 0, 64, 127
3, 92440, Note_on_c, 0, 59, 0
3, 92456, Note_on_c, 0, 57, 0
3, 92472, Control_c, 0, 64, 0
3, 92480, Note_on_c, 0, 62, 0
3, 92484, Note_on_c, 0, 69, 0
3, 92488, Note_on_c, 0, 52, 0
3, 92492, Note_on_c, 0, 66, 0
3, 92524, Note_on_c, 0, 51, 12
3, 92552, Note_on_c, 0, 51, 0
3, 92556, Note_on_c, 0, 62, 50
3, 92560, Note_on_c, 0, 57, 44
3, 92568, Note_on_c, 0, 67, 51
3, 92840, Note_on_c, 0, 57, 0
3, 92852, Note_on_c, 0, 62, 0
3, 92872, Note_on_c, 0, 67, 0
3, 92948, Note_on_c, 0, 51, 37
3, 92952, Note_on_c, 0, 66, 34
3, 92960, Note_on_c, 0, 57, 24
3, 92976, Note_on_c, 0, 62, 31
3, 93096, Note_on_c, 0, 57, 0
3, 93100, Note_on_c, 0, 62, 0
3, 93148, Note_on_c, 0, 66, 0
3, 93172, Note_on_c, 0, 51, 0
3, 93212, Note_on_c, 0, 57, 50
3, 93216, Note_on_c, 0, 62, 56
3, 93220, Note_on_c, 0, 67, 58
3, 93224, Note_on_c, 0, 52, 58
3, 93240, Note_on_c, 0, 57, 0
3, 93260, Note_on_c, 0, 52, 0
3, 93264, Note_on_c, 0, 62, 0
3, 93304, Note_on_c, 0, 67, 0
3, 93576, Note_on_c, 0, 76, 68
3, 93580, Note_on_c, 0, 67, 61
3, 93600, Note_on_c, 0, 61, 39
3, 93600, Note_on_c, 0, 65, 44
3, 93604, Note_on_c, 0, 55, 47
3, 93748, Control_c, 0, 64, 127
3, 93980, Note_on_c, 0, 67, 0
3, 94008, Note_on_c, 0, 65, 0
3, 94036, Note_on_c, 0, 55, 0
3, 94068, Note_on_c, 0, 76, 0
3, 94080, Note_on_c, 0, 61, 0
3, 94436, Control_c, 0, 64, 0
3, 94492, Note_on_c, 0, 88, 59
3, 94492, Note_on_c, 0, 76, 57
3, 94496, Note_on_c, 0, 61, 38
3, 94496, Note_on_c, 0, 64, 45
3, 94508, Note_on_c, 0, 55, 34
3, 94532, Note_on_c, 0, 64, 0
3, 94544, Note_on_c, 0, 76, 0
3, 94544, Note_on_c, 0, 55, 0
3, 94564, Note_on_c, 0, 61, 0
3, 94572, Note_on_c, 0, 88, 0
3, 94856, Note_on_c, 0, 61, 55
3, 94872, Note_on_c, 0, 91, 64
3, 94876, Note_on_c, 0, 79, 54
3, 94916, Note_on_c, 0, 79, 0
3, 94948, Note_on_c, 0, 91, 0
3, 94956, Note_on_c, 0, 61, 0
3, 95248, Note_on_c, 0, 98, 71
3, 95252, Note_on_c, 0, 64, 54
3, 95256, Note_on_c, 0, 86, 49
3, 95256, Note_on_c, 0, 60, 45
3, 95260, Note_on_c, 0, 95, 55
3, 95260, Note_on_c, 0, 91, 47
3, 95264, Note_on_c, 0, 59, 40
3, 95268, Note_on_c, 0, 55, 45
3, 95484, Control_c, 0, 64, 127
3, 95756, Note_on_c, 0, 98, 0
3, 95776, Note_on_c, 0, 95, 0
3, 95788, Note_on_c, 0, 64, 0
3, 95788, Note_on_c, 0, 91, 0
3, 95800, Note_on_c, 0, 86, 0
3, 95808, Note_on_c, 0, 55, 0
3, 95808, Note_on_c, 0, 59, 0
3, 95816, Note_on_c, 0, 60, 0
3, 96268, Note_on_c, 0, 60, 52
3, 96268, Note_on_c, 0, 64, 54
3, 96268, Note_on_c, 0, 95, 74
3, 96272, Note_on_c, 0, 88, 66
3, 96276, Note_on_c, 0, 59, 34
3, 96276, Note_on_c, 0, 83, 51
3, 96284, Control_c, 0, 64, 0
3, 96284, Note_on_c, 0, 55, 36
3, 96296, Note_on_c, 0, 64, 0
3, 96304, Note_on_c, 0, 88, 0
3, 96308, Note_on_c, 0, 59, 0
3, 96308, Note_on_c, 0, 83, 0
3, 96312, Note_on_c, 0, 60, 0
3, 96320, Note_on_c, 0, 55, 0
3, 96324, Note_on_c, 0, 95, 0
3, 96644, Note_on_c, 0, 93, 78
3, 96648, Note_on_c, 0, 59, 64
3, 96648, Note_on_c, 0, 81, 66
3, 96648, Note_on_c, 0, 90, 53
3, 96648, Note_on_c, 0, 57, 62
3, 96652, Note_on_c, 0, 62, 64
3, 96652, Note_on_c, 0, 86, 62
3, 96916, Control_c, 0, 64, 127
3, 97220, Note_on_c, 0, 90, 0
3, 97228, Note_on_c, 0, 86, 0
3, 97236, Note_on_c, 0, 62, 0
3, 97244, Note_on_c, 0, 57, 0
3, 97248, Note_on_c, 0, 59, 0
3, 97264, Note_on_c, 0, 81, 0
3, 97292, Note_on_c, 0, 93, 0
3, 97412, Note_on_c, 0, 90, 67
3, 97416, Note_on_c, 0, 86, 70
3, 97416, Note_on_c, 0, 81, 59
3, 97420, Note_on_c, 0, 62, 63
3, 97424, Note_on_c, 0, 59, 60
3, 97428, Note_on_c, 0, 57, 49
3, 97444, Control_c, 0, 64, 0
3, 97564, Control_c, 0, 64, 127
3, 97616, Note_on_c, 0, 86, 0
3, 97628, Note_on_c, 0, 90, 0
3, 97672, Note_on_c, 0, 81, 0
3, 97772, Note_on_c, 0, 62, 0
3, 97804, Note_on_c, 0, 59, 0
3, 97812, Note_on_c, 0, 57, 0
3, 98168, Note_on_c, 0, 71, 78
3, 98168, Note_on_c, 0, 66, 78
3, 98172, Note_on_c, 0, 69, 77
3, 98180, Note_on_c, 0, 59, 60
3, 98184, Control_c, 0, 64, 0
3, 98184, Note_on_c, 0, 62, 68
3, 98188, Note_on_c, 0, 57, 60
3, 98332, Control_c, 0, 64, 127
3, 98480, Note_on_c, 0, 62, 0
3, 98488, Note_on_c, 0, 59, 0
3, 98504, Note_on_c, 0, 57, 0
3, 98576, Note_on_c, 0, 69, 0
3, 98604, Note_on_c, 0, 71, 0
3, 98640, Note_on_c, 0, 66, 0
3, 98952, Note_on_c, 0, 70, 88
3, 98952, Note_on_c, 0, 63, 93
3, 98956, Control_c, 0, 64, 0
3, 98956, Note_on_c, 0, 67, 90
3, 98956, Note_on_c, 0, 53, 84
3, 98960, Note_on_c, 0, 59, 82
3, 99124, Control_c, 0, 64, 127
3, 99436, Note_on_c, 0, 53, 0
3, 99440, Note_on_c, 0, 59, 0
3, 99444, Note_on_c, 0, 67, 0
3, 99472, Note_on_c, 0, 70, 0
3, 99480, Note_on_c, 0, 63, 0
3, 99712, Note_on_c, 0, 69, 79
3, 99716, Note_on_c, 0, 62, 81
3, 99720, Note_on_c, 0, 64, 80
3, 99720, Note_on_c, 0, 59, 78
3, 99732, Note_on_c, 0, 52, 73
3, 99740, Control_c, 0, 64, 0
3, 101676, Note_on_c, 0, 59, 0
3, 101696, Note_on_c, 0, 69, 0
3, 101760, Note_on_c, 0, 51, 39
3, 101764, Note_on_c, 0, 57, 32
3, 101764, Note_on_c, 0, 67, 18
3, 101788, Note_on_c, 0, 52, 0
3, 101932, Note_on_c, 0, 57, 0
3, 101932, Note_on_c, 0, 64, 0
3, 101956, Note_on_c, 0, 62, 0
3, 101968, Note_on_c, 0, 67, 0
3, 102032, Note_on_c, 0, 69, 48
3, 102036, Note_on_c, 0, 59, 44
3, 102036, Note_on_c, 0, 62, 51
3, 102040, Note_on_c, 0, 52, 61
3, 102052, Note_on_c, 0, 51, 0
3, 102076, Note_on_c, 0, 62, 0
3, 102084, Note_on_c, 0, 69, 0
3, 102084, Note_on_c, 0, 59, 0
3, 102088, Note_on_c, 0, 52, 0
3, 102912, Note_on_c, 0, 63, 40
3, 102916, Note_on_c, 0, 67, 36
3, 102920, Note_on_c, 0, 58, 27
3, 102920, Note_on_c, 0, 55, 46
3, 102944, Note_on_c, 0, 58, 0
3, 102952, Note_on_c, 0, 67, 0
3, 102956, Note_on_c, 0, 55, 0
3, 102964, Note_on_c, 0, 63, 0
3, 104332, Note_on_c, 0, 63, 51
3, 104336, Note_on_c, 0, 70, 47
3, 104336, Note_on_c, 0, 67, 52
3, 104356, Note_on_c, 0, 63, 0
3, 104360, Note_on_c, 0, 67, 0
3, 104360, Note_on_c, 0, 70, 0
3, 104360, Note_on_c, 0, 58, 30
3, 104404, Note_on_c, 0, 58, 0
3, 104544, Note_on_c, 0, 70, 21
3, 104572, Note_on_c, 0, 70, 0
3, 104832, Note_on_c, 0, 69, 60
3, 104840, Note_on_c, 0, 51, 33
3, 104840, Note_on_c, 0, 66, 35
3, 104844, Note_on_c, 0, 57, 29
3, 104844, Note_on_c, 0, 62, 41
3, 105028, Note_on_c, 0, 57, 0
3, 105032, Note_on_c, 0, 62, 0
3, 105044, Note_on_c, 0, 51, 0
3, 105048, Note_on_c, 0, 69, 0
3, 105056, Note_on_c, 0, 66, 0
3, 105096, Note_on_c, 0, 62, 51
3, 105100, Note_on_c, 0, 57, 51
3, 105100, Note_on_c, 0, 66, 39
3, 105108, Note_on_c, 0, 69, 54
3, 105108, Note_on_c, 0, 51, 31
3, 105124, Note_on_c, 0, 62, 0
3, 105132, Note_on_c, 0, 69, 0
3, 105140, Note_on_c, 0, 66, 0
3, 105144, Note_on_c, 0, 57, 0
3, 105152, Note_on_c, 0, 51, 0
3, 105620, Note_on_c, 0, 51, 33
3, 105624, Note_on_c, 0, 69, 54
3, 105624, Note_on_c, 0, 57, 36
3, 105628, Note_on_c, 0, 62, 40
3, 105628, Note_on_c, 0, 66, 34
3, 105776, Note_on_c, 0, 57, 0
3, 105788, Note_on_c, 0, 62, 0
3, 105804, Note_on_c, 0, 51, 0
3, 105804, Note_on_c, 0, 69, 0
3, 105816, Note_on_c, 0, 66, 0
3, 105880, Note_on_c, 0, 66, 46
3, 105884, Note_on_c, 0, 62, 55
3, 105884, Note_on_c, 0, 69, 48
3, 105900, Note_on_c, 0, 57, 35
3, 105904, Note_on_c, 0, 51, 33
3, 105912, Note_on_c, 0, 62, 0
3, 105916, Note_on_c, 0, 69, 0
3, 105932, Note_on_c, 0, 66, 0
3, 105932, Note_on_c, 0, 57, 0
3, 105932, Note_on_c, 0, 51, 0
3, 106976, Note_on_c, 0, 66, 53
3, 106976, Note_on_c, 0, 62, 64
3, 106980, Note_on_c, 0, 69, 57
3, 106980, Note_on_c, 0, 59, 51
3, 106984, Note_on_c, 0, 57, 57
3, 107000, Note_on_c, 0, 62, 0
3, 107008, Note_on_c, 0, 57, 0
3, 107008, Note_on_c, 0, 69, 0
3, 107012, Note_on_c, 0, 66, 0
3, 107012, Note_on_c, 0, 59, 0
3, 107180, Note_on_c, 0, 62, 69
3, 107180, Note_on_c, 0, 59, 51
3, 107180, Note_on_c, 0, 69, 60
3, 107180, Note_on_c, 0, 66, 52
3, 107184, Note_on_c, 0, 57, 60
3, 107220, Note_on_c, 0, 59, 0
3, 107228, Note_on_c, 0, 66, 0
3, 107232, Note_on_c, 0, 62, 0
3, 107232, Note_on_c, 0, 69, 0
3, 107248, Note_on_c, 0, 57, 0
3, 107292, Note_on_c, 0, 59, 44
3, 107296, Note_on_c, 0, 57, 41
3, 107300, Note_on_c, 0, 69, 40
3, 107300, Note_on_c, 0, 62, 37
3, 107300, Note_on_c, 0, 66, 35
3, 107332, Note_on_c, 0, 59, 0
3, 107340, Note_on_c, 0, 57, 0
3, 107340, Note_on_c, 0, 69, 0
3, 107344, Note_on_c, 0, 62, 0
3, 107348, Note_on_c, 0, 66, 0
3, 107560, Note_on_c, 0, 57, 61
3, 107564, Note_on_c, 0, 66, 62
3, 107564, Note_on_c, 0, 62, 69
3, 107568, Note_on_c, 0, 59, 44
3, 107568, Note_on_c, 0, 69, 66
3, 107596, Note_on_c, 0, 69, 0
3, 107600, Note_on_c, 0, 62, 0
3, 107600, Note_on_c, 0, 59, 0
3, 107608, Note_on_c, 0, 66, 0
3, 107616, Note_on_c, 0, 57, 0
3, 107752, Note_on_c, 0, 66, 55
3, 107756, Note_on_c, 0, 62, 65
3, 107756, Note_on_c, 0, 69, 66
3, 107756, Note_on_c, 0, 57, 64
3, 107760, Note_on_c, 0, 59, 48
3, 107788, Note_on_c, 0, 62, 0
3, 107792, Note_on_c, 0, 59, 0
3, 107792, Note_on_c, 0, 69, 0
3, 107800, Note_on_c, 0, 66, 0
3, 107812, Note_on_c, 0, 57, 0
3, 107948, Note_on_c, 0, 57, 60
3, 107952, Note_on_c, 0, 59, 50
3, 107956, Note_on_c, 0, 66, 59
3, 107956, Note_on_c, 0, 62, 67
3, 107960, Note_on_c, 0, 69, 64
3, 107988, Note_on_c, 0, 59, 0
3, 107996, Note_on_c, 0, 69, 0
3, 108004, Note_on_c, 0, 62, 0
3, 108008, Note_on_c, 0, 66, 0
3, 108008, Note_on_c, 0, 57, 0
3, 108064, Note_on_c, 0, 66, 44
3, 108064, Note_on_c, 0, 62, 48
3, 108072, Note_on_c, 0, 69, 46
3, 108072, Note_on_c, 0, 57, 39
3, 108072, Note_on_c, 0, 59, 45
3, 108108, Note_on_c, 0, 69, 0
3, 108116, Note_on_c, 0, 62, 0
3, 108120, Note_on_c, 0, 66, 0
3, 108120, Note_on_c, 0, 57, 0
3, 108128, Note_on_c, 0, 59, 0
3, 108928, Note_on_c, 0, 61, 62
3, 108932, Note_on_c, 0, 68, 56
3, 108936, Note_on_c, 0, 65, 58
3, 108944, Note_on_c, 0, 60, 68
3, 108960, Note_on_c, 0, 65, 0
3, 108972, Note_on_c, 0, 60, 0
3, 108972, Note_on_c, 0, 61, 0
3, 108980, Note_on_c, 0, 68, 0
3, 109728, Note_on_c, 0, 56, 63
3, 109728, Note_on_c, 0, 61, 69
3, 109732, Note_on_c, 0, 68, 65
3, 109732, Note_on_c, 0, 65, 72
3, 109740, Note_on_c, 0, 60, 55
3, 109844, Note_on_c, 0, 60, 0
3, 109852, Note_on_c, 0, 65, 0
3, 109856, Note_on_c, 0, 68, 0
3, 109872, Note_on_c, 0, 56, 0
3, 109916, Note_on_c, 0, 68, 42
3, 109924, Note_on_c, 0, 60, 36
3, 109928, Note_on_c, 0, 65, 45
3, 109932, Note_on_c, 0, 56, 18
3, 110008, Note_on_c, 0, 65, 0
3, 110008, Note_on_c, 0, 60, 0
3, 110028, Note_on_c, 0, 56, 0
3, 110028, Note_on_c, 0, 61, 0
3, 110040, Note_on_c, 0, 68, 0
3, 110128, Note_on_c, 0, 61, 52
3, 110136, Note_on_c, 0, 65, 54
3, 110140, Note_on_c, 0, 68, 43
3, 110148, Note_on_c, 0, 60, 51
3, 110152, Note_on_c, 0, 56, 45
3, 110164, Note_on_c, 0, 65, 0
3, 110172, Note_on_c, 0, 68, 0
3, 110176, Note_on_c, 0, 61, 0
3, 110176, Note_on_c, 0, 60, 0
3, 110196, Note_on_c, 0, 56, 0
3, 110876, Note_on_c, 0, 73, 62
3, 110880, Note_on_c, 0, 69, 66
3, 110884, Note_on_c, 0, 64, 60
3, 110884, Note_on_c, 0, 55, 58
3, 110884, Note_on_c, 0, 61, 39
3, 110968, Control_c, 0, 64, 127
3, 111208, Note_on_c, 0, 55, 0
3, 111224, Note_on_c, 0, 64, 0
3, 111264, Note_on_c, 0, 61, 0
3, 111276, Note_on_c, 0, 73, 0
3, 111316, Note_on_c, 0, 69, 0
3, 111380, Note_on_c, 0, 66, 73
3, 111384, Control_c, 0, 64, 0
3, 111384, Note_on_c, 0, 71, 67
3, 111388, Note_on_c, 0, 75, 59
3, 111388, Note_on_c, 0, 61, 48
3, 111396, Note_on_c, 0, 55, 58
3, 111576, Control_c, 0, 64, 127
3, 111764, Note_on_c, 0, 55, 0
3, 111784, Note_on_c, 0, 71, 0
3, 111800, Note_on_c, 0, 66, 0
3, 111836, Note_on_c, 0, 75, 0
3, 111872, Note_on_c, 0, 61, 0
3, 112004, Note_on_c, 0, 76, 74
3, 112008, Note_on_c, 0, 60, 54
3, 112012, Note_on_c, 0, 64, 58
3, 112012, Note_on_c, 0, 67, 62
3, 112012, Control_c, 0, 64, 0
3, 112016, Note_on_c, 0, 59, 49
3, 112016, Note_on_c, 0, 71, 66
3, 112192, Note_on_c, 0, 67, 0
3, 112204, Note_on_c, 0, 59, 0
3, 112208, Note_on_c, 0, 64, 0
3, 112216, Note_on_c, 0, 60, 0
3, 112216, Note_on_c, 0, 71, 0
3, 112248, Note_on_c, 0, 76, 0
3, 112576, Control_c, 0, 64, 127
3, 112852, Control_c, 0, 64, 0
3, 113156, Note_on_c, 0, 88, 69
3, 113156, Note_on_c, 0, 76, 60
3, 113164, Note_on_c, 0, 64, 51
3, 113164, Note_on_c, 0, 59, 48
3, 113168, Note_on_c, 0, 60, 41
3, 113184, Note_on_c, 0, 76, 0
3, 113188, Note_on_c, 0, 88, 0
3, 113192, Note_on_c, 0, 64, 0
3, 113196, Note_on_c, 0, 59, 0
3, 113196, Note_on_c, 0, 60, 0
3, 113700, Note_on_c, 0, 95, 73
3, 113708, Note_on_c, 0, 83, 52
3, 113712, Note_on_c, 0, 60, 46
3, 113716, Note_on_c, 0, 54, 46
3, 113720, Note_on_c, 0, 64, 42
3, 113764, Note_on_c, 0, 64, 0
3, 113804, Note_on_c, 0, 83, 0
3, 113812, Note_on_c, 0, 95, 0
3, 113824, Note_on_c, 0, 60, 0
3, 113824, Note_on_c, 0, 54, 0
3, 114088, Control_c, 0, 64, 127
3, 114328, Note_on_c, 0, 60, 61
3, 114328, Note_on_c, 0, 64, 57
3, 114332, Note_on_c, 0, 54, 47
3, 114332, Note_on_c, 0, 98, 61
3, 114332, Note_on_c, 0, 86, 52
3, 114336, Control_c, 0, 64, 0
3, 114360, Note_on_c, 0, 64, 0
3, 114364, Note_on_c, 0, 86, 0
3, 114368, Note_on_c, 0, 60, 0
3, 114368, Note_on_c, 0, 98, 0
3, 114372, Note_on_c, 0, 54, 0
3, 114800, Control_c, 0, 64, 127
3, 115080, Note_on_c, 0, 102, 77
3, 115084, Note_on_c, 0, 90, 72
3, 115088, Note_on_c, 0, 66, 59
3, 115088, Control_c, 0, 64, 0
3, 115092, Note_on_c, 0, 62, 59
3, 115096, Note_on_c, 0, 57, 61
3, 115208, Control_c, 0, 64, 127
3, 115864, Note_on_c, 0, 57, 0
3, 115880, Note_on_c, 0, 102, 0
3, 115900, Note_on_c, 0, 66, 0
3, 115904, Note_on_c, 0, 90, 0
3, 115916, Note_on_c, 0, 62, 0
3, 116704, Control_c, 0, 64, 0
3, 116752, Note_on_c, 0, 66, 34
3, 116756, Note_on_c, 0, 62, 38
3, 116764, Note_on_c, 0, 102, 53
3, 116768, Note_on_c, 0, 90, 38
3, 116788, Note_on_c, 0, 55, 30
3, 116800, Note_on_c, 0, 59, 33
3, 116820, Control_c, 0, 64, 127
3, 116932, Note_on_c, 0, 55, 0
3, 116952, Note_on_c, 0, 66, 0
3, 116952, Note_on_c, 0, 102, 0
3, 116952, Note_on_c, 0, 90, 0
3, 116952, Note_on_c, 0, 59, 0
3, 116956, Note_on_c, 0, 62, 0
3, 117024, Note_on_c, 0, 66, 45
3, 117024, Note_on_c, 0, 102, 52
3, 117028, Note_on_c, 0, 90, 39
3, 117032, Note_on_c, 0, 62, 37
3, 117044, Note_on_c, 0, 55, 35
3, 117052, Note_on_c, 0, 59, 26
3, 117084, Note_on_c, 0, 66, 0
3, 117088, Note_on_c, 0, 55, 0
3, 117092, Note_on_c, 0, 59, 0
3, 117100, Note_on_c, 0, 62, 0
3, 117104, Note_on_c, 0, 90, 0
3, 117108, Note_on_c, 0, 102, 0
3, 117116, Control_c, 0, 64, 0
3, 117164, Note_on_c, 0, 66, 25
3, 117188, Note_on_c, 0, 100, 34
3, 117188, Note_on_c, 0, 62, 39
3, 117196, Note_on_c, 0, 59, 20
3, 117212, Note_on_c, 0, 88, 13
3, 117240, Note_on_c, 0, 66, 0
3, 117248, Note_on_c, 0, 59, 0
3, 117256, Note_on_c, 0, 88, 0
3, 117256, Note_on_c, 0, 62, 0
3, 117268, Note_on_c, 0, 100, 0
3, 117404, Note_on_c, 0, 66, 47
3, 117416, Note_on_c, 0, 62, 49
3, 117420, Note_on_c, 0, 98, 39
3, 117424, Note_on_c, 0, 86, 40
3, 117428, Note_on_c, 0, 55, 24
3, 117440, Note_on_c, 0, 59, 31
3, 117452, Note_on_c, 0, 98, 0
3, 117452, Note_on_c, 0, 66, 0
3, 117452, Note_on_c, 0, 62, 0
3, 117456, Note_on_c, 0, 55, 0
3, 117464, Note_on_c, 0, 86, 0
3, 117476, Note_on_c, 0, 59, 0
3, 117772, Note_on_c, 0, 95, 57
3, 117780, Note_on_c, 0, 62, 48
3, 117780, Note_on_c, 0, 83, 42
3, 117784, Note_on_c, 0, 66, 38
3, 117800, Note_on_c, 0, 59, 43
3, 117808, Note_on_c, 0, 88, 26
3, 117812, Note_on_c, 0, 55, 26
3, 117848, Note_on_c, 0, 88, 0
3, 117896, Control_c, 0, 64, 127
3, 118060, Note_on_c, 0, 62, 0
3, 118068, Note_on_c, 0, 83, 0
3, 118092, Note_on_c, 0, 55, 0
3, 118100, Note_on_c, 0, 59, 0
3, 118100, Note_on_c, 0, 95, 0
3, 118152, Note_on_c, 0, 66, 0
3, 118224, Control_c, 0, 64, 0
3, 118280, Note_on_c, 0, 66, 57
3, 118288, Note_on_c, 0, 100, 54
3, 118296, Note_on_c, 0, 61, 47
3, 118296, Note_on_c, 0, 88, 40
3, 118336, Note_on_c, 0, 88, 0
3, 118344, Note_on_c, 0, 66, 0
3, 118344, Note_on_c, 0, 100, 0
3, 118372, Note_on_c, 0, 61, 0
3, 118700, Control_c, 0, 64, 127
3, 118988, Control_c, 0, 64, 0
3, 119056, Note_on_c, 0, 88, 52
3, 119060, Note_on_c, 0, 100, 50
3, 119064, Note_on_c, 0, 55, 41
3, 119064, Note_on_c, 0, 97, 26
3, 119068, Note_on_c, 0, 66, 25
3, 119072, Note_on_c, 0, 61, 31
3, 119120, Control_c, 0, 64, 127
3, 119164, Note_on_c, 0, 88, 0
3, 119164, Control_c, 0, 64, 0
3, 119168, Note_on_c, 0, 55, 0
3, 119172, Note_on_c, 0, 97, 0
3, 119188, Note_on_c, 0, 100, 0
3, 119204, Note_on_c, 0, 61, 0
3, 119224, Note_on_c, 0, 66, 0
3, 119436, Note_on_c, 0, 56, 44
3, 119440, Note_on_c, 0, 101, 70
3, 119444, Note_on_c, 0, 67, 47
3, 119444, Note_on_c, 0, 89, 55
3, 119444, Note_on_c, 0, 94, 47
3, 119448, Note_on_c, 0, 62, 53
3, 119448, Note_on_c, 0, 97, 46
3, 119580, Note_on_c, 0, 67, 0
3, 119608, Note_on_c, 0, 62, 0
3, 119608, Note_on_c, 0, 101, 0
3, 119612, Note_on_c, 0, 97, 0
3, 119616, Note_on_c, 0, 89, 0
3, 119624, Note_on_c, 0, 94, 0
3, 119664, Note_on_c, 0, 56, 0
3, 119808, Note_on_c, 0, 66, 40
3, 119808, Note_on_c, 0, 100, 66
3, 119812, Note_on_c, 0, 55, 47
3, 119812, Note_on_c, 0, 61, 39
3, 119816, Note_on_c, 0, 88, 57
3, 119816, Control_c, 0, 64, 127
3, 119820, Note_on_c, 0, 94, 48
3, 119828, Note_on_c, 0, 97, 35
3, 119916, Note_on_c, 0, 55, 0
3, 119948, Note_on_c, 0, 100, 0
3, 119956, Note_on_c, 0, 88, 0
3, 119968, Note_on_c, 0, 94, 0
3, 119972, Note_on_c, 0, 97, 0
3, 119976, Note_on_c, 0, 66, 0
3, 119996, Note_on_c, 0, 61, 0
3, 120080, Note_on_c, 0, 54, 54
3, 120080, Note_on_c, 0, 65, 41
3, 120080, Note_on_c, 0, 87, 67
3, 120084, Note_on_c, 0, 99, 64
3, 120084, Note_on_c, 0, 60, 58
3, 120084, Control_c, 0, 64, 0
3, 120092, Note_on_c, 0, 94, 56
3, 120144, Note_on_c, 0, 65, 0
3, 120164, Note_on_c, 0, 60, 0
3, 120180, Note_on_c, 0, 54, 0
3, 120188, Note_on_c, 0, 94, 0
3, 120200, Note_on_c, 0, 99, 0
3, 120200, Note_on_c, 0, 87, 0
3, 120244, Note_on_c, 0, 55, 57
3, 120252, Note_on_c, 0, 66, 43
3, 120268, Note_on_c, 0, 88, 49
3, 120268, Note_on_c, 0, 61, 34
3, 120268, Note_on_c, 0, 100, 51
3, 120272, Note_on_c, 0, 94, 34
3, 120280, Note_on_c, 0, 97, 30
3, 120356, Note_on_c, 0, 55, 0
3, 120364, Note_on_c, 0, 88, 0
3, 120376, Note_on_c, 0, 94, 0
3, 120384, Note_on_c, 0, 100, 0
3, 120388, Note_on_c, 0, 97, 0
3, 120412, Note_on_c, 0, 61, 0
3, 120428, Note_on_c, 0, 66, 0
3, 120476, Note_on_c, 0, 56, 62
3, 120480, Note_on_c, 0, 67, 63
3, 120480, Note_on_c, 0, 62, 66
3, 120492, Note_on_c, 0, 101, 70
3, 120496, Note_on_c, 0, 96, 67
3, 120500, Note_on_c, 0, 89, 44
3, 120556, Note_on_c, 0, 67, 0
3, 120580, Note_on_c, 0, 101, 0
3, 120584, Note_on_c, 0, 62, 0
3, 120596, Note_on_c, 0, 96, 0
3, 120608, Note_on_c, 0, 89, 0
3, 120628, Note_on_c, 0, 56, 0
3, 120672, Note_on_c, 0, 55, 62
3, 120676, Note_on_c, 0, 66, 55
3, 120688, Note_on_c, 0, 100, 63
3, 120696, Note_on_c, 0, 88, 48
3, 120712, Note_on_c, 0, 61, 28
3, 120712, Note_on_c, 0, 97, 38
3, 120784, Note_on_c, 0, 100, 0
3, 120788, Note_on_c, 0, 55, 0
3, 120816, Note_on_c, 0, 88, 0
3, 120816, Control_c, 0, 64, 127
3, 120828, Note_on_c, 0, 97, 0
3, 120840, Note_on_c, 0, 66, 0
3, 120848, Note_on_c, 0, 61, 0
3, 120864, Control_c, 0, 64, 0
3, 120916, Note_on_c, 0, 99, 53
3, 120916, Note_on_c, 0, 65, 63
3, 120924, Note_on_c, 0, 87, 37
3, 120924, Note_on_c, 0, 97, 39
3, 120928, Note_on_c, 0, 54, 40
3, 120948, Note_on_c, 0, 60, 40
3, 120948, Note_on_c, 0, 94, 20
3, 120952, Note_on_c, 0, 58, 25
3, 120980, Note_on_c, 0, 94, 0
3, 120980, Note_on_c, 0, 60, 0
3, 120980, Note_on_c, 0, 87, 0
3, 120984, Note_on_c, 0, 58, 0
3, 120984, Note_on_c, 0, 65, 0
3, 120996, Note_on_c, 0, 97, 0
3, 120996, Note_on_c, 0, 99, 0
3, 121028, Note_on_c, 0, 54, 0
3, 121220, Note_on_c, 0, 64, 61
3, 121228, Note_on_c, 0, 91, 54
3, 121232, Note_on_c, 0, 98, 65
3, 121232, Note_on_c, 0, 60, 55
3, 121232, Note_on_c, 0, 95, 58
3, 121236, Note_on_c, 0, 86, 49
3, 121240, Note_on_c, 0, 59, 53
3, 121240, Note_on_c, 0, 55, 51
3, 121300, Note_on_c, 0, 95, 0
3, 121304, Note_on_c, 0, 55, 0
3, 121304, Note_on_c, 0, 91, 0
3, 121312, Note_on_c, 0, 98, 0
3, 121312, Note_on_c, 0, 64, 0
3, 121312, Note_on_c, 0, 86, 0
3, 121320, Note_on_c, 0, 60, 0
3, 121328, Note_on_c, 0, 59, 0
3, 121608, Note_on_c, 0, 95, 74
3, 121608, Note_on_c, 0, 64, 54
3, 121608, Note_on_c, 0, 60, 47
3, 121612, Note_on_c, 0, 88, 62
3, 121612, Note_on_c, 0, 91, 57
3, 121616, Note_on_c, 0, 59, 38
3, 121616, Note_on_c, 0, 83, 52
3, 121620, Note_on_c, 0, 55, 37
3, 121748, Control_c, 0, 64, 127
3, 121924, Note_on_c, 0, 95, 0
3, 121936, Note_on_c, 0, 91, 0
3, 121940, Note_on_c, 0, 88, 0
3, 121960, Note_on_c, 0, 59, 0
3, 121964, Note_on_c, 0, 64, 0
3, 121972, Note_on_c, 0, 83, 0
3, 121980, Note_on_c, 0, 55, 0
3, 122000, Note_on_c, 0, 60, 0
3, 122056, Control_c, 0, 64, 0
3, 122116, Note_on_c, 0, 93, 50
3, 122120, Note_on_c, 0, 90, 37
3, 122124, Note_on_c, 0, 60, 54
3, 122124, Note_on_c, 0, 86, 51
3, 122124, Note_on_c, 0, 81, 38
3, 122132, Note_on_c, 0, 64, 55
3, 122132, Note_on_c, 0, 54, 47
3, 122320, Control_c, 0, 64, 127
3, 122600, Note_on_c, 0, 81, 0
3, 122600, Note_on_c, 0, 86, 0
3, 122612, Note_on_c, 0, 93, 0
3, 122612, Note_on_c, 0, 90, 0
3, 122660, Note_on_c, 0, 54, 0
3, 122676, Note_on_c, 0, 64, 0
3, 122704, Note_on_c, 0, 60, 0
3, 122820, Control_c, 0, 64, 0
3, 122888, Note_on_c, 0, 89, 74
3, 122888, Note_on_c, 0, 93, 80
3, 122892, Note_on_c, 0, 81, 70
3, 122896, Note_on_c, 0, 57, 56
3, 122896, Note_on_c, 0, 60, 55
3, 122896, Note_on_c, 0, 64, 65
3, 122896, Note_on_c, 0, 53, 54
3, 123032, Control_c, 0, 64, 127
3, 123084, Note_on_c, 0, 93, 0
3, 123092, Note_on_c, 0, 81, 0
3, 123096, Note_on_c, 0, 53, 0
3, 123100, Note_on_c, 0, 64, 0
3, 123108, Note_on_c, 0, 89, 0
3, 123108, Note_on_c, 0, 57, 0
3, 123108, Note_on_c, 0, 60, 0
3, 123200, Control_c, 0, 64, 0
3, 123272, Note_on_c, 0, 64, 68
3, 123272, Note_on_c, 0, 91, 66
3, 123272, Note_on_c, 0, 60, 52
3, 123272, Note_on_c, 0, 88, 68
3, 123276, Note_on_c, 0, 57, 52
3, 123276, Note_on_c, 0, 53, 55
3, 123284, Note_on_c, 0, 79, 60
3, 123360, Control_c, 0, 64, 127
3, 123452, Note_on_c, 0, 89, 12
3, 123492, Note_on_c, 0, 91, 0
3, 123500, Note_on_c, 0, 88, 0
3, 123512, Note_on_c, 0, 60, 0
3, 123528, Note_on_c, 0, 89, 0
3, 123532, Note_on_c, 0, 79, 0
3, 123536, Note_on_c, 0, 64, 0
3, 123536, Note_on_c, 0, 53, 0
3, 123552, Note_on_c, 0, 57, 0
3, 123656, Control_c, 0, 64, 0
3, 123916, Note_on_c, 0, 63, 74
3, 123920, Note_on_c, 0, 94, 83
3, 123920, Note_on_c, 0, 56, 55
3, 123924, Note_on_c, 0, 53, 68
3, 123924, Note_on_c, 0, 59, 66
3, 123928, Note_on_c, 0, 91, 69
3, 123928, Note_on_c, 0, 87, 75
3, 123936, Note_on_c, 0, 82, 59
3, 124040, Control_c, 0, 64, 127
3, 124080, Note_on_c, 0, 91, 0
3, 124092, Note_on_c, 0, 94, 0
3, 124096, Note_on_c, 0, 82, 0
3, 124100, Note_on_c, 0, 53, 0
3, 124116, Note_on_c, 0, 63, 0
3, 124124, Note_on_c, 0, 87, 0
3, 124132, Note_on_c, 0, 59, 0
3, 124136, Note_on_c, 0, 56, 0
3, 124188, Note_on_c, 0, 87, 51
3, 124192, Note_on_c, 0, 63, 57
3, 124196, Note_on_c, 0, 90, 43
3, 124200, Note_on_c, 0, 56, 39
3, 124200, Note_on_c, 0, 53, 56
3, 124204, Note_on_c, 0, 59, 49
3, 124212, Note_on_c, 0, 80, 31
3, 124288, Note_on_c, 0, 59, 0
3, 124336, Note_on_c, 0, 53, 0
3, 124348, Note_on_c, 0, 87, 0
3, 124348, Note_on_c, 0, 80, 0
3, 124360, Note_on_c, 0, 90, 0
3, 124364, Note_on_c, 0, 63, 0
3, 124388, Note_on_c, 0, 56, 0
3, 124412, Control_c, 0, 64, 0
3, 124428, Note_on_c, 0, 62, 64
3, 124436, Note_on_c, 0, 91, 47
3, 124440, Note_on_c, 0, 52, 48
3, 124440, Note_on_c, 0, 86, 57
3, 124440, Note_on_c, 0, 57, 53
3, 124448, Note_on_c, 0, 79, 50
3, 124780, Note_on_c, 0, 91, 0
3, 124812, Control_c, 0, 64, 127
3, 124816, Note_on_c, 0, 86, 0
3, 124860, Note_on_c, 0, 79, 0
3, 125076, Note_on_c, 0, 62, 0
3, 125148, Note_on_c, 0, 57, 0
3, 125160, Control_c, 0, 64, 0
3, 125180, Note_on_c, 0, 52, 0
3, 125192, Note_on_c, 0, 74, 79
3, 125192, Note_on_c, 0, 59, 64
3, 125196, Note_on_c, 0, 64, 80
3, 125196, Note_on_c, 0, 67, 71
3, 125204, Note_on_c, 0, 71, 55
3, 125224, Note_on_c, 0, 67, 0
3, 125224, Note_on_c, 0, 64, 0
3, 125228, Note_on_c, 0, 71, 0
3, 125248, Note_on_c, 0, 59, 0
3, 125248, Note_on_c, 0, 74, 0
3, 126348, Note_on_c, 0, 57, 47
3, 126348, Note_on_c, 0, 52, 42
3, 126352, Note_on_c, 0, 62, 41
3, 126360, Note_on_c, 0, 67, 25
3, 126384, Note_on_c, 0, 62, 0
3, 126388, Note_on_c, 0, 67, 0
3, 126388, Note_on_c, 0, 57, 0
3, 126424, Note_on_c, 0, 52, 0
3, 126476, Note_on_c, 0, 51, 31
3, 126592, Note_on_c, 0, 51, 0
3, 126600, Note_on_c, 0, 57, 53
3, 126600, Note_on_c, 0, 67, 51
3, 126604, Note_on_c, 0, 62, 55
3, 126612, Note_on_c, 0, 52, 54
3, 126688, Note_on_c, 0, 57, 0
3, 126692, Note_on_c, 0, 67, 0
3, 126700, Note_on_c, 0, 62, 0
3, 126712, Note_on_c, 0, 52, 0
3, 126884, Note_on_c, 0, 57, 48
3, 126888, Note_on_c, 0, 67, 48
3, 126892, Note_on_c, 0, 62, 43
3, 126896, Note_on_c, 0, 52, 43
3, 126944, Note_on_c, 0, 67, 0
3, 126952, Note_on_c, 0, 57, 0
3, 126960, Note_on_c, 0, 62, 0
3, 126988, Note_on_c, 0, 52, 0
3, 127036, Note_on_c, 0, 51, 31
3, 127128, Note_on_c, 0, 51, 0
3, 127136, Note_on_c, 0, 62, 58
3, 127140, Note_on_c, 0, 67, 55
3, 127140, Note_on_c, 0, 57, 54
3, 127140, Note_on_c, 0, 52, 51
3, 127208, Note_on_c, 0, 57, 0
3, 127216, Note_on_c, 0, 67, 0
3, 127236, Note_on_c, 0, 62, 0
3, 127260, Note_on_c, 0, 52, 0
3, 127648, Note_on_c, 0, 58, 59
3, 127656, Note_on_c, 0, 67, 50
3, 127656, Note_on_c, 0, 63, 50
3, 127668, Note_on_c, 0, 52, 54
3, 127724, Note_on_c, 0, 67, 0
3, 127736, Note_on_c, 0, 58, 0
3, 127752, Note_on_c, 0, 52, 0
3, 127772, Note_on_c, 0, 63, 0
3, 127904, Note_on_c, 0, 63, 58
3, 127912, Note_on_c, 0, 58, 52
3, 127912, Note_on_c, 0, 67, 59
3, 127916, Note_on_c, 0, 53, 58
3, 128040, Note_on_c, 0, 67, 0
3, 128052, Note_on_c, 0, 53, 0
3, 128060, Note_on_c, 0, 58, 0
3, 128068, Note_on_c, 0, 63, 0
3, 128264, Note_on_c, 0, 63, 57
3, 128268, Note_on_c, 0, 58, 60
3, 128272, Note_on_c, 0, 55, 54
3, 128272, Note_on_c, 0, 67, 58
3, 128352, Note_on_c, 0, 67, 0
3, 128364, Note_on_c, 0, 58, 0
3, 128376, Note_on_c, 0, 63, 0
3, 128380, Note_on_c, 0, 55, 0
3, 128532, Note_on_c, 0, 63, 64
3, 128536, Note_on_c, 0, 58, 65
3, 128544, Note_on_c, 0, 67, 60
3, 128552, Note_on_c, 0, 55, 60
3, 128632, Note_on_c, 0, 55, 0
3, 128632, Note_on_c, 0, 67, 0
3, 128644, Note_on_c, 0, 58, 0
3, 128660, Note_on_c, 0, 63, 0
3, 129184, Note_on_c, 0, 69, 64
3, 129188, Note_on_c, 0, 57, 57
3, 129188, Note_on_c, 0, 62, 59
3, 129188, Note_on_c, 0, 66, 38
3, 129200, Note_on_c, 0, 54, 51
3, 129292, Note_on_c, 0, 69, 0
3, 129296, Note_on_c, 0, 57, 0
3, 129300, Note_on_c, 0, 62, 0
3, 129304, Note_on_c, 0, 66, 0
3, 129312, Note_on_c, 0, 54, 0
3, 130080, Note_on_c, 0, 41, 28
3, 130180, Note_on_c, 0, 51, 55
3, 130192, Note_on_c, 0, 58, 52
3, 130192, Note_on_c, 0, 63, 48
3, 130196, Note_on_c, 0, 55, 53
3, 130196, Note_on_c, 0, 65, 51
3, 130252, Note_on_c, 0, 51, 0
3, 130272, Note_on_c, 0, 41, 0
3, 130420, Note_on_c, 0, 65, 0
3, 130428, Note_on_c, 0, 55, 0
3, 130480, Note_on_c, 0, 42, 39
3, 130484, Note_on_c, 0, 63, 0
3, 130516, Note_on_c, 0, 58, 0
3, 130576, Note_on_c, 0, 42, 0
3, 130580, Note_on_c, 0, 54, 49
3, 130584, Note_on_c, 0, 43, 50
3, 130584, Note_on_c, 0, 62, 54
3, 130592, Note_on_c, 0, 57, 45
3, 130596, Note_on_c, 0, 59, 44
3, 130716, Note_on_c, 0, 43, 0
3, 130728, Note_on_c, 0, 57, 0
3, 130728, Note_on_c, 0, 62, 0
3, 130748, Note_on_c, 0, 54, 0
3, 130752, Note_on_c, 0, 59, 0
3, 131348, Note_on_c, 0, 74, 60
3, 131352, Note_on_c, 0, 66, 50
3, 131356, Note_on_c, 0, 59, 60
3, 131356, Note_on_c, 0, 69, 55
3, 131364, Note_on_c, 0, 71, 44
3, 131376, Note_on_c, 0, 66, 0
3, 131380, Note_on_c, 0, 69, 0
3, 131392, Note_on_c, 0, 71, 0
3, 131392, Note_on_c, 0, 59, 0
3, 131396, Note_on_c, 0, 74, 0
3, 131744, Control_c, 0, 64, 127
3, 132040, Control_c, 0, 64, 0
3, 132108, Note_on_c, 0, 93, 84
3, 132112, Note_on_c, 0, 81, 82
3, 132112, Note_on_c, 0, 87, 78
3, 132120, Note_on_c, 0, 59, 60
3, 132120, Note_on_c, 0, 62, 60
3, 132120, Note_on_c, 0, 57, 62
3, 132208, Note_on_c, 0, 62, 66
3, 132212, Note_on_c, 0, 69, 54
3, 132224, Note_on_c, 0, 66, 35
3, 132252, Note_on_c, 0, 88, 51
3, 132256, Note_on_c, 0, 87, 0
3, 132264, Note_on_c, 0, 69, 0
3, 132268, Note_on_c, 0, 62, 0
3, 132276, Note_on_c, 0, 66, 0
3, 132328, Note_on_c, 0, 88, 0
3, 132348, Note_on_c, 0, 93, 0
3, 132356, Note_on_c, 0, 62, 0
3, 132360, Note_on_c, 0, 81, 0
3, 132368, Note_on_c, 0, 57, 0
3, 132368, Note_on_c, 0, 59, 0
3, 132496, Note_on_c, 0, 79, 41
3, 132512, Note_on_c, 0, 62, 28
3, 132536, Note_on_c, 0, 62, 0
3, 132556, Note_on_c, 0, 79, 0
3, 132748, Note_on_c, 0, 93, 80
3, 132752, Note_on_c, 0, 81, 74
3, 132752, Note_on_c, 0, 87, 71
3, 132760, Note_on_c, 0, 59, 68
3, 132760, Note_on_c, 0, 57, 64
3, 132764, Note_on_c, 0, 62, 64
3, 132840, Note_on_c, 0, 87, 0
3, 132840, Note_on_c, 0, 69, 57
3, 132844, Note_on_c, 0, 62, 68
3, 132844, Note_on_c, 0, 66, 50
3, 132852, Note_on_c, 0, 88, 30
3, 132860, Note_on_c, 0, 62, 0
3, 132864, Note_on_c, 0, 57, 0
3, 132868, Note_on_c, 0, 59, 0
3, 132868, Note_on_c, 0, 81, 0
3, 132876, Note_on_c, 0, 88, 0
3, 132876, Note_on_c, 0, 93, 0
3, 132884, Note_on_c, 0, 62, 0
3, 132888, Note_on_c, 0, 69, 0
3, 132912, Note_on_c, 0, 66, 0
3, 132988, Note_on_c, 0, 93, 70
3, 132996, Note_on_c, 0, 87, 60
3, 133000, Note_on_c, 0, 81, 44
3, 133000, Note_on_c, 0, 59, 63
3, 133008, Note_on_c, 0, 62, 58
3, 133008, Note_on_c, 0, 57, 53
3, 133116, Note_on_c, 0, 88, 50
3, 133120, Note_on_c, 0, 62, 0
3, 133120, Note_on_c, 0, 87, 0
3, 133140, Note_on_c, 0, 57, 0
3, 133148, Note_on_c, 0, 93, 0
3, 133160, Note_on_c, 0, 81, 0
3, 133168, Note_on_c, 0, 59, 0
3, 133168, Note_on_c, 0, 88, 0
3, 133244, Note_on_c, 0, 59, 53
3, 133256, Note_on_c, 0, 62, 47
3, 133256, Note_on_c, 0, 57, 36
3, 133268, Note_on_c, 0, 91, 34
3, 133272, Note_on_c, 0, 79, 26
3, 133284, Note_on_c, 0, 57, 0
3, 133300, Note_on_c, 0, 59, 0
3, 133308, Note_on_c, 0, 79, 0
3, 133324, Note_on_c, 0, 62, 0
3, 133332, Note_on_c, 0, 91, 0
3, 133492, Note_on_c, 0, 65, 68
3, 133496, Note_on_c, 0, 60, 59
3, 133500, Note_on_c, 0, 92, 75
3, 133500, Note_on_c, 0, 80, 71
3, 133504, Note_on_c, 0, 61, 47
3, 133508, Note_on_c, 0, 87, 68
3, 133512, Note_on_c, 0, 56, 45
3, 133588, Note_on_c, 0, 80, 0
3, 133600, Note_on_c, 0, 92, 0
3, 133600, Note_on_c, 0, 87, 0
3, 133608, Note_on_c, 0, 56, 0
3, 133608, Note_on_c, 0, 65, 0
3, 133616, Note_on_c, 0, 60, 0
3, 133640, Note_on_c, 0, 61, 0
3, 133716, Note_on_c, 0, 56, 62
3, 133728, Note_on_c, 0, 92, 71
3, 133732, Note_on_c, 0, 80, 55
3, 133740, Note_on_c, 0, 65, 55
3, 133744, Note_on_c, 0, 61, 43
3, 133744, Note_on_c, 0, 87, 61
3, 133748, Note_on_c, 0, 60, 39
3, 133748, Note_on_c, 0, 63, 46
3, 133756, Note_on_c, 0, 56, 32
3, 133784, Note_on_c, 0, 65, 34
3, 133792, Note_on_c, 0, 63, 0
3, 133824, Note_on_c, 0, 56, 0
3, 133836, Note_on_c, 0, 65, 0
3, 133884, Note_on_c, 0, 65, 0
3, 133888, Note_on_c, 0, 80, 0
3, 133896, Note_on_c, 0, 92, 0
3, 133900, Note_on_c, 0, 56, 0
3, 133900, Note_on_c, 0, 60, 0
3, 133908, Note_on_c, 0, 61, 0
3, 133920, Note_on_c, 0, 87, 0
3, 133972, Note_on_c, 0, 65, 33
3, 133988, Note_on_c, 0, 61, 25
3, 133988, Note_on_c, 0, 60, 38
3, 133988, Note_on_c, 0, 56, 21
3, 133992, Note_on_c, 0, 89, 39
3, 134024, Note_on_c, 0, 65, 0
3, 134028, Note_on_c, 0, 89, 0
3, 134028, Note_on_c, 0, 60, 0
3, 134036, Note_on_c, 0, 56, 0
3, 134052, Note_on_c, 0, 61, 0
3, 134280, Note_on_c, 0, 79, 43
3, 134284, Note_on_c, 0, 91, 35
3, 134284, Note_on_c, 0, 65, 59
3, 134296, Note_on_c, 0, 61, 31
3, 134300, Note_on_c, 0, 86, 28
3, 134312, Note_on_c, 0, 65, 0
3, 134312, Note_on_c, 0, 79, 0
3, 134316, Note_on_c, 0, 91, 0
3, 134324, Note_on_c, 0, 86, 0
3, 134332, Note_on_c, 0, 61, 0
3, 134348, Note_on_c, 0, 61, 58
3, 134356, Note_on_c, 0, 65, 61
3, 134360, Note_on_c, 0, 68, 51
3, 134368, Note_on_c, 0, 56, 62
3, 134400, Note_on_c, 0, 65, 0
3, 134404, Note_on_c, 0, 61, 0
3, 134412, Note_on_c, 0, 68, 0
3, 134448, Note_on_c, 0, 56, 0
3, 134844, Control_c, 0, 64, 127
3, 135092, Control_c, 0, 64, 0
3, 135252, Note_on_c, 0, 65, 66
3, 135256, Note_on_c, 0, 61, 49
3, 135260, Note_on_c, 0, 79, 53
3, 135268, Note_on_c, 0, 55, 41
3, 135292, Note_on_c, 0, 65, 0
3, 135304, Note_on_c, 0, 79, 0
3, 135320, Note_on_c, 0, 55, 0
3, 135332, Note_on_c, 0, 61, 0
3, 135428, Note_on_c, 0, 99, 71
3, 135432, Note_on_c, 0, 85, 74
3, 135440, Note_on_c, 0, 61, 53
3, 135440, Note_on_c, 0, 65, 72
3, 135440, Note_on_c, 0, 94, 64
3, 135444, Note_on_c, 0, 60, 69
3, 135444, Note_on_c, 0, 56, 59
3, 135608, Control_c, 0, 64, 127
3, 135856, Note_on_c, 0, 79, 64
3, 135860, Note_on_c, 0, 65, 0
3, 135860, Note_on_c, 0, 67, 58
3, 135868, Note_on_c, 0, 85, 0
3, 135868, Note_on_c, 0, 65, 70
3, 135872, Note_on_c, 0, 99, 0
3, 135880, Note_on_c, 0, 55, 58
3, 135880, Note_on_c, 0, 61, 44
3, 135884, Note_on_c, 0, 60, 0
3, 135892, Note_on_c, 0, 94, 0
3, 135892, Note_on_c, 0, 61, 0
3, 135900, Note_on_c, 0, 79, 0
3, 135904, Note_on_c, 0, 56, 0
3, 135904, Control_c, 0, 64, 0
3, 135908, Note_on_c, 0, 67, 0
3, 135912, Note_on_c, 0, 65, 0
3, 135928, Note_on_c, 0, 55, 0
3, 135964, Note_on_c, 0, 61, 0
3, 136200, Note_on_c, 0, 87, 76
3, 136200, Note_on_c, 0, 99, 78
3, 136208, Note_on_c, 0, 61, 62
3, 136212, Note_on_c, 0, 94, 61
3, 136212, Note_on_c, 0, 65, 71
3, 136216, Note_on_c, 0, 55, 74
3, 136356, Control_c, 0, 64, 127
3, 136488, Note_on_c, 0, 94, 0
3, 136500, Note_on_c, 0, 99, 0
3, 136528, Note_on_c, 0, 87, 0
3, 136540, Note_on_c, 0, 65, 0
3, 136564, Note_on_c, 0, 55, 0
3, 136600, Note_on_c, 0, 61, 0
3, 136644, Note_on_c, 0, 71, 72
3, 136648, Note_on_c, 0, 64, 70
3, 136652, Note_on_c, 0, 60, 63
3, 136664, Note_on_c, 0, 59, 74
3, 136664, Note_on_c, 0, 67, 64
3, 136720, Note_on_c, 0, 98, 68
3, 136724, Note_on_c, 0, 86, 54
3, 136728, Note_on_c, 0, 64, 53
3, 136728, Note_on_c, 0, 95, 50
3, 136728, Note_on_c, 0, 60, 51
3, 136732, Control_c, 0, 64, 0
3, 136736, Note_on_c, 0, 55, 47
3, 136736, Note_on_c, 0, 91, 48
3, 136744, Note_on_c, 0, 59, 45
3, 136828, Note_on_c, 0, 95, 0
3, 136836, Note_on_c, 0, 91, 0
3, 136848, Note_on_c, 0, 98, 0
3, 136852, Note_on_c, 0, 59, 0
3, 136856, Note_on_c, 0, 55, 0
3, 136864, Note_on_c, 0, 64, 0
3, 136864, Note_on_c, 0, 86, 0
3, 136876, Note_on_c, 0, 60, 0
3, 137100, Note_on_c, 0, 64, 51
3, 137100, Note_on_c, 0, 95, 57
3, 137108, Note_on_c, 0, 60, 47
3, 137112, Note_on_c, 0, 91, 45
3, 137112, Note_on_c, 0, 55, 40
3, 137116, Note_on_c, 0, 83, 30
3, 137116, Note_on_c, 0, 88, 45
3, 137120, Note_on_c, 0, 59, 39
3, 137124, Control_c, 0, 64, 127
3, 137216, Note_on_c, 0, 91, 0
3, 137220, Note_on_c, 0, 95, 0
3, 137228, Note_on_c, 0, 88, 0
3, 137248, Note_on_c, 0, 59, 0
3, 137256, Note_on_c, 0, 55, 0
3, 137260, Note_on_c, 0, 60, 0
3, 137264, Note_on_c, 0, 83, 0
3, 137268, Note_on_c, 0, 64, 0
3, 137272, Control_c, 0, 64, 0
3, 137488, Note_on_c, 0, 64, 43
3, 137488, Note_on_c, 0, 91, 40
3, 137492, Note_on_c, 0, 86, 41
3, 137496, Note_on_c, 0, 79, 28
3, 137496, Note_on_c, 0, 60, 35
3, 137504, Note_on_c, 0, 59, 32
3, 137508, Control_c, 0, 64, 127
3, 137508, Note_on_c, 0, 55, 32
3, 137556, Note_on_c, 0, 55, 0
3, 137556, Note_on_c, 0, 86, 0
3, 137560, Note_on_c, 0, 91, 0
3, 137576, Note_on_c, 0, 64, 0
3, 137588, Note_on_c, 0, 59, 0
3, 137588, Note_on_c, 0, 60, 0
3, 137596, Note_on_c, 0, 79, 0
3, 137616, Control_c, 0, 64, 127
3, 137756, Note_on_c, 0, 88, 47
3, 137768, Note_on_c, 0, 76, 37
3, 137772, Note_on_c, 0, 64, 47
3, 137776, Note_on_c, 0, 60, 45
3, 137776, Note_on_c, 0, 83, 54
3, 137784, Note_on_c, 0, 55, 35
3, 137792, Note_on_c, 0, 82, 27
3, 137792, Note_on_c, 0, 59, 34
3, 137796, Control_c, 0, 64, 0
3, 137824, Note_on_c, 0, 60, 0
3, 137860, Note_on_c, 0, 71, 0
3, 137896, Control_c, 0, 64, 0
3, 137900, Control_c, 0, 64, 127
3, 137916, Note_on_c, 0, 60, 33
3, 137928, Note_on_c, 0, 67, 0
3, 137932, Note_on_c, 0, 88, 0
3, 137940, Note_on_c, 0, 82, 0
3, 137944, Note_on_c, 0, 69, 57
3, 137952, Note_on_c, 0, 83, 0
3, 137968, Note_on_c, 0, 57, 29
3, 137984, Note_on_c, 0, 76, 0
3, 137992, Note_on_c, 0, 60, 0
3, 138008, Note_on_c, 0, 64, 0
3, 138020, Note_on_c, 0, 59, 0
3, 138032, Note_on_c, 0, 59, 0
3, 138044, Note_on_c, 0, 64, 0
3, 138044, Note_on_c, 0, 55, 0
3, 138052, Note_on_c, 0, 69, 0
3, 138056, Note_on_c, 0, 60, 0
3, 138080, Note_on_c, 0, 57, 0
3, 138136, Note_on_c, 0, 86, 57
3, 138136, Note_on_c, 0, 74, 53
3, 138140, Control_c, 0, 64, 0
3, 138148, Note_on_c, 0, 81, 54
3, 138148, Note_on_c, 0, 60, 35
3, 138148, Note_on_c, 0, 64, 42
3, 138152, Note_on_c, 0, 54, 49
3, 138316, Note_on_c, 0, 60, 64
3, 138320, Note_on_c, 0, 68, 53
3, 138320, Note_on_c, 0, 64, 73
3, 138328, Note_on_c, 0, 54, 53
3, 138328, Note_on_c, 0, 71, 55
3, 138360, Note_on_c, 0, 64, 0
3, 138372, Note_on_c, 0, 60, 0
3, 138376, Note_on_c, 0, 71, 0
3, 138392, Note_on_c, 0, 68, 0
3, 138428, Note_on_c, 0, 54, 0
3, 138632, Control_c, 0, 64, 127
3, 138728, Note_on_c, 0, 86, 0
3, 138744, Note_on_c, 0, 64, 0
3, 138752, Note_on_c, 0, 60, 0
3, 138756, Note_on_c, 0, 54, 0
3, 138764, Note_on_c, 0, 81, 0
3, 138808, Note_on_c, 0, 74, 0
3, 138940, Note_on_c, 0, 64, 60
3, 138944, Note_on_c, 0, 71, 54
3, 138956, Note_on_c, 0, 68, 47
3, 138964, Note_on_c, 0, 60, 54
3, 138968, Control_c, 0, 64, 0
3, 138988, Note_on_c, 0, 54, 38
3, 139008, Note_on_c, 0, 84, 58
3, 139012, Note_on_c, 0, 79, 45
3, 139016, Note_on_c, 0, 64, 53
3, 139020, Note_on_c, 0, 60, 50
3, 139032, Note_on_c, 0, 54, 26
3, 139040, Note_on_c, 0, 79, 0
3, 139040, Note_on_c, 0, 84, 0
3, 139048, Note_on_c, 0, 64, 0
3, 139048, Note_on_c, 0, 60, 0
3, 139068, Note_on_c, 0, 54, 0
3, 139392, Control_c, 0, 64, 127
3, 139508, Note_on_c, 0, 60, 0
3, 139548, Note_on_c, 0, 71, 0
3, 139584, Note_on_c, 0, 54, 0
3, 139596, Note_on_c, 0, 68, 0
3, 139600, Note_on_c, 0, 64, 0
3, 139660, Control_c, 0, 64, 0
3, 139672, Note_on_c, 0, 78, 78
3, 139676, Note_on_c, 0, 69, 80
3, 139680, Note_on_c, 0, 66, 77
3, 139680, Note_on_c, 0, 74, 77
3, 139688, Note_on_c, 0, 62, 70
3, 139696, Note_on_c, 0, 57, 50
3, 139700, Note_on_c, 0, 69, 0
3, 139704, Note_on_c, 0, 74, 0
3, 139712, Note_on_c, 0, 62, 0
3, 139720, Note_on_c, 0, 78, 0
3, 139720, Note_on_c, 0, 66, 0
3, 139724, Note_on_c, 0, 57, 0
3, 140092, Note_on_c, 0, 61, 63
3, 140096, Note_on_c, 0, 57, 67
3, 140104, Note_on_c, 0, 69, 53
3, 140108, Note_on_c, 0, 64, 63
3, 140124, Note_on_c, 0, 52, 63
3, 140136, Note_on_c, 0, 57, 0
3, 140156, Note_on_c, 0, 64, 0
3, 140156, Note_on_c, 0, 69, 0
3, 140168, Control_c, 0, 64, 127
3, 140172, Note_on_c, 0, 52, 0
3, 140180, Note_on_c, 0, 61, 0
3, 140500, Control_c, 0, 64, 0
3, 140524, Note_on_c, 0, 52, 33
3, 140544, Note_on_c, 0, 66, 58
3, 140548, Note_on_c, 0, 62, 63
3, 140552, Note_on_c, 0, 57, 58
3, 140556, Note_on_c, 0, 52, 0
3, 140556, Note_on_c, 0, 54, 62
3, 140808, Note_on_c, 0, 57, 0
3, 140812, Note_on_c, 0, 54, 0
3, 140840, Note_on_c, 0, 50, 35
3, 140852, Note_on_c, 0, 62, 0
3, 140860, Note_on_c, 0, 66, 0
3, 140868, Note_on_c, 0, 66, 71
3, 140868, Note_on_c, 0, 63, 70
3, 140876, Note_on_c, 0, 59, 68
3, 140892, Note_on_c, 0, 50, 0
3, 140924, Note_on_c, 0, 59, 0
3, 140932, Note_on_c, 0, 51, 30
3, 140944, Control_c, 0, 64, 127
3, 140944, Note_on_c, 0, 51, 37
3, 140964, Note_on_c, 0, 66, 0
3, 140972, Note_on_c, 0, 63, 0
3, 140988, Note_on_c, 0, 51, 0
3, 141164, Control_c, 0, 64, 0
3, 141184, Note_on_c, 0, 55, 60
3, 141188, Note_on_c, 0, 64, 57
3, 141192, Note_on_c, 0, 51, 0
3, 141196, Note_on_c, 0, 59, 59
3, 141196, Note_on_c, 0, 62, 57
3, 141200, Note_on_c, 0, 52, 54
3, 141388, Note_on_c, 0, 52, 69
3, 141400, Note_on_c, 0, 67, 79
3, 141404, Note_on_c, 0, 62, 80
3, 141408, Note_on_c, 0, 59, 76
3, 141608, Note_on_c, 0, 64, 0
3, 141624, Note_on_c, 0, 55, 0
3, 141644, Note_on_c, 0, 59, 0
3, 141648, Note_on_c, 0, 62, 0
3, 141688, Control_c, 0, 64, 127
3, 141704, Note_on_c, 0, 52, 0
3, 141712, Note_on_c, 0, 51, 39
3, 141712, Note_on_c, 0, 55, 30
3, 141724, Note_on_c, 0, 63, 31
3, 141744, Note_on_c, 0, 58, 29
3, 141848, Note_on_c, 0, 67, 0
3, 141860, Note_on_c, 0, 55, 0
3, 141872, Note_on_c, 0, 59, 0
3, 141880, Control_c, 0, 64, 127
3, 141884, Note_on_c, 0, 52, 0
3, 141888, Note_on_c, 0, 63, 0
3, 141888, Note_on_c, 0, 62, 0
3, 141904, Note_on_c, 0, 58, 0
3, 141952, Control_c, 0, 64, 0
3, 141952, Note_on_c, 0, 64, 55
3, 141964, Note_on_c, 0, 59, 51
3, 141972, Note_on_c, 0, 55, 46
3, 141972, Control_c, 0, 64, 0
3, 141976, Note_on_c, 0, 51, 0
3, 141976, Note_on_c, 0, 52, 58
3, 141988, Note_on_c, 0, 59, 69
3, 141992, Note_on_c, 0, 62, 70
3, 141992, Note_on_c, 0, 67, 69
3, 142004, Note_on_c, 0, 55, 0
3, 142008, Note_on_c, 0, 52, 57
3, 142028, Note_on_c, 0, 52, 0
3, 142040, Note_on_c, 0, 59, 0
3, 142044, Note_on_c, 0, 59, 0
3, 142072, Note_on_c, 0, 62, 0
3, 142084, Note_on_c, 0, 64, 0
3, 142092, Note_on_c, 0, 67, 0
3, 142112, Note_on_c, 0, 52, 0
3, 142336, Note_on_c, 0, 57, 42
3, 142340, Note_on_c, 0, 61, 77
3, 142340, Note_on_c, 0, 71, 80
3, 142344, Note_on_c, 0, 63, 71
3, 142356, Note_on_c, 0, 67, 62
3, 142356, Note_on_c, 0, 59, 82
3, 142368, Note_on_c, 0, 57, 0
3, 142368, Note_on_c, 0, 56, 44
3, 142412, Note_on_c, 0, 56, 0
3, 142904, Note_on_c, 0, 88, 88
3, 142908, Note_on_c, 0, 81, 88
3, 142916, Note_on_c, 0, 85, 61
3, 142920, Note_on_c, 0, 61, 64
3, 142924, Note_on_c, 0, 76, 81
3, 142928, Note_on_c, 0, 65, 82
3, 142928, Note_on_c, 0, 55, 83
3, 143004, Control_c, 0, 64, 127
3, 143128, Note_on_c, 0, 61, 0
3, 143144, Note_on_c, 0, 63, 0
3, 143152, Note_on_c, 0, 67, 0
3, 143168, Note_on_c, 0, 71, 0
3, 143176, Control_c, 0, 64, 0
3, 143228, Note_on_c, 0, 61, 42
3, 143232, Note_on_c, 0, 69, 49
3, 143236, Note_on_c, 0, 57, 53
3, 143244, Note_on_c, 0, 63, 33
3, 143248, Note_on_c, 0, 59, 0
3, 143344, Note_on_c, 0, 69, 0
3, 143352, Control_c, 0, 64, 127
3, 143432, Note_on_c, 0, 57, 0
3, 143432, Note_on_c, 0, 63, 0
3, 143444, Note_on_c, 0, 85, 0
3, 143448, Note_on_c, 0, 61, 0
3, 143448, Note_on_c, 0, 76, 0
3, 143460, Note_on_c, 0, 55, 0
3, 143468, Note_on_c, 0, 88, 0
3, 143472, Note_on_c, 0, 81, 0
3, 143496, Note_on_c, 0, 65, 0
3, 143564, Note_on_c, 0, 61, 0
3, 143624, Note_on_c, 0, 61, 33
3, 143624, Note_on_c, 0, 68, 43
3, 143640, Note_on_c, 0, 63, 37
3, 143640, Note_on_c, 0, 56, 34
3, 143672, Note_on_c, 0, 66, 23
3, 143672, Control_c, 0, 64, 0
3, 143700, Note_on_c, 0, 88, 80
3, 143704, Note_on_c, 0, 81, 81
3, 143708, Note_on_c, 0, 76, 81
3, 143712, Note_on_c, 0, 61, 71
3, 143716, Note_on_c, 0, 85, 57
3, 143720, Note_on_c, 0, 65, 77
3, 143724, Note_on_c, 0, 55, 76
3, 143800, Note_on_c, 0, 66, 0
3, 143800, Note_on_c, 0, 63, 0
3, 143800, Note_on_c, 0, 61, 0
3, 143808, Note_on_c, 0, 68, 0
3, 143832, Note_on_c, 0, 56, 0
3, 143968, Note_on_c, 0, 76, 0
3, 143980, Control_c, 0, 64, 127
3, 144028, Note_on_c, 0, 81, 0
3, 144036, Note_on_c, 0, 85, 0
3, 144064, Note_on_c, 0, 88, 0
3, 144152, Note_on_c, 0, 65, 0
3, 144160, Note_on_c, 0, 55, 0
3, 144212, Note_on_c, 0, 61, 0
3, 144264, Control_c, 0, 64, 0
3, 144460, Note_on_c, 0, 64, 84
3, 144460, Note_on_c, 0, 60, 74
3, 144468, Note_on_c, 0, 59, 68
3, 144472, Note_on_c, 0, 55, 76
3, 144484, Note_on_c, 0, 95, 85
3, 144488, Note_on_c, 0, 93, 84
3, 144488, Note_on_c, 0, 83, 74
3, 144488, Note_on_c, 0, 88, 68
3, 144500, Note_on_c, 0, 86, 74
3, 144500, Note_on_c, 0, 81, 76
3, 144504, Note_on_c, 0, 91, 51
3, 144516, Note_on_c, 0, 89, 64
3, 144528, Note_on_c, 0, 93, 0
3, 144536, Note_on_c, 0, 86, 0
3, 144540, Note_on_c, 0, 81, 0
3, 144556, Note_on_c, 0, 89, 0
3, 144760, Control_c, 0, 64, 127
3, 144880, Note_on_c, 0, 83, 0
3, 144888, Note_on_c, 0, 88, 0
3, 144908, Note_on_c, 0, 95, 0
3, 144928, Note_on_c, 0, 59, 0
3, 144932, Note_on_c, 0, 91, 0
3, 144968, Note_on_c, 0, 55, 0
3, 144980, Note_on_c, 0, 64, 0
3, 145000, Note_on_c, 0, 60, 0
3, 145068, Control_c, 0, 64, 0
3, 145244, Note_on_c, 0, 64, 80
3, 145252, Note_on_c, 0, 60, 76
3, 145252, Note_on_c, 0, 98, 94
3, 145252, Note_on_c, 0, 54, 78
3, 145252, Note_on_c, 0, 91, 89
3, 145264, Note_on_c, 0, 86, 88
3, 145264, Note_on_c, 0, 95, 84
3, 145600, Note_on_c, 0, 98, 0
3, 145612, Note_on_c, 0, 95, 0
3, 145632, Note_on_c, 0, 91, 0
3, 145656, Note_on_c, 0, 60, 0
3, 145672, Note_on_c, 0, 86, 0
3, 145684, Note_on_c, 0, 64, 0
3, 145788, Note_on_c, 0, 54, 0
3, 145872, Note_on_c, 0, 95, 94
3, 145876, Note_on_c, 0, 62, 81
3, 145880, Note_on_c, 0, 88, 88
3, 145888, Note_on_c, 0, 83, 79
3, 145888, Note_on_c, 0, 54, 72
3, 145888, Note_on_c, 0, 59, 79
3, 146232, Note_on_c, 0, 95, 0
3, 146300, Note_on_c, 0, 88, 0
3, 146348, Note_on_c, 0, 83, 0
3, 147264, Note_on_c, 0, 62, 0
3, 147276, Note_on_c, 0, 59, 0
3, 147428, Note_on_c, 0, 54, 0
3, 147860, Note_on_c, 0, 63, 99
3, 147864, Note_on_c, 0, 70, 90
3, 147872, Note_on_c, 0, 67, 96
3, 147872, Note_on_c, 0, 53, 85
3, 147876, Note_on_c, 0, 59, 91
3, 148248, Control_c, 0, 64, 127
3, 148584, Note_on_c, 0, 67, 0
3, 148628, Note_on_c, 0, 70, 0
3, 148648, Note_on_c, 0, 63, 0
3, 148804, Note_on_c, 0, 59, 0
3, 148828, Note_on_c, 0, 53, 0
3, 148940, Control_c, 0, 64, 0
3, 149012, Note_on_c, 0, 52, 66
3, 149020, Note_on_c, 0, 59, 68
3, 149024, Note_on_c, 0, 69, 66
3, 149024, Note_on_c, 0, 64, 69
3, 149072, Note_on_c, 0, 59, 0
3, 149084, Note_on_c, 0, 64, 0
3, 149084, Note_on_c, 0, 69, 0
3, 149108, Note_on_c, 0, 52, 0
3, 149644, Note_on_c, 0, 66, 59
3, 149672, Note_on_c, 0, 61, 52
3, 149676, Note_on_c, 0, 56, 30
3, 149676, Note_on_c, 0, 51, 53
3, 149716, Note_on_c, 0, 56, 0
3, 149732, Note_on_c, 0, 61, 0
3, 149756, Note_on_c, 0, 51, 0
3, 149764, Note_on_c, 0, 66, 0
3, 150168, Note_on_c, 0, 57, 64
3, 150172, Note_on_c, 0, 62, 64
3, 150176, Note_on_c, 0, 67, 64
3, 150180, Note_on_c, 0, 52, 57
3, 151400, Note_on_c, 0, 67, 0
3, 151484, Note_on_c, 0, 57, 0
3, 151504, Note_on_c, 0, 62, 0
3, 151696, Note_on_c, 0, 51, 51
3, 151720, Note_on_c, 0, 52, 0
3, 151768, Note_on_c, 0, 51, 0
3, 152336, Note_on_c, 0, 74, 77
3, 152336, Note_on_c, 0, 63, 64
3, 152348, Note_on_c, 0, 62, 60
3, 152352, Note_on_c, 0, 67, 57
3, 152360, Note_on_c, 0, 70, 42
3, 152376, Note_on_c, 0, 74, 0
3, 152380, Note_on_c, 0, 63, 0
3, 152392, Note_on_c, 0, 67, 0
3, 152400, Note_on_c, 0, 70, 0
3, 152452, Note_on_c, 0, 62, 0
3, 152556, Note_on_c, 0, 60, 34
3, 152712, Note_on_c, 0, 60, 0
3, 152720, Note_on_c, 0, 74, 82
3, 152724, Note_on_c, 0, 63, 77
3, 152748, Note_on_c, 0, 70, 50
3, 152752, Note_on_c, 0, 67, 64
3, 152764, Note_on_c, 0, 62, 66
3, 153176, Note_on_c, 0, 63, 0
3, 153212, Note_on_c, 0, 67, 0
3, 153232, Note_on_c, 0, 74, 0
3, 153264, Note_on_c, 0, 63, 50
3, 153276, Note_on_c, 0, 62, 0
3, 153284, Note_on_c, 0, 60, 43
3, 153304, Note_on_c, 0, 70, 0
3, 153308, Note_on_c, 0, 72, 37
3, 153344, Note_on_c, 0, 60, 0
3, 153360, Note_on_c, 0, 63, 0
3, 153364, Note_on_c, 0, 72, 0
3, 153636, Note_on_c, 0, 66, 46
3, 153640, Note_on_c, 0, 57, 51
3, 153640, Note_on_c, 0, 62, 57
3, 153664, Note_on_c, 0, 69, 38
3, 153692, Note_on_c, 0, 62, 0
3, 153716, Note_on_c, 0, 57, 0
3, 153720, Note_on_c, 0, 69, 0
3, 153732, Note_on_c, 0, 66, 0
3, 154236, Note_on_c, 0, 66, 48
3, 154240, Note_on_c, 0, 69, 55
3, 154244, Note_on_c, 0, 62, 48
3, 154256, Note_on_c, 0, 57, 55
3, 154332, Note_on_c, 0, 62, 0
3, 154352, Note_on_c, 0, 69, 0
3, 154364, Note_on_c, 0, 57, 0
3, 154384, Note_on_c, 0, 66, 0
3, 155172, Note_on_c, 0, 54, 43
3, 155176, Note_on_c, 0, 59, 61
3, 155176, Note_on_c, 0, 69, 58
3, 155184, Note_on_c, 0, 62, 55
3, 155188, Note_on_c, 0, 66, 33
3, 155372, Note_on_c, 0, 69, 0
3, 155424, Note_on_c, 0, 62, 0
3, 155432, Note_on_c, 0, 66, 0
3, 155436, Note_on_c, 0, 59, 0
3, 155444, Note_on_c, 0, 54, 0
3, 155532, Note_on_c, 0, 52, 32
3, 155592, Note_on_c, 0, 52, 0
3, 155600, Note_on_c, 0, 54, 64
3, 155624, Note_on_c, 0, 59, 65
3, 155628, Note_on_c, 0, 69, 69
3, 155636, Note_on_c, 0, 62, 64
3, 155640, Note_on_c, 0, 66, 49
3, 156256, Note_on_c, 0, 59, 0
3, 156280, Note_on_c, 0, 62, 0
3, 156284, Note_on_c, 0, 66, 0
3, 156344, Note_on_c, 0, 69, 0
3, 156400, Note_on_c, 0, 54, 0
3, 156416, Note_on_c, 0, 52, 35
3, 156620, Note_on_c, 0, 69, 66
3, 156620, Note_on_c, 0, 66, 43
3, 156624, Note_on_c, 0, 52, 0
3, 156628, Note_on_c, 0, 59, 63
3, 156632, Note_on_c, 0, 54, 60
3, 156632, Note_on_c, 0, 62, 68
3, 157056, Note_on_c, 0, 62, 0
3, 157060, Note_on_c, 0, 66, 0
3, 157068, Note_on_c, 0, 59, 0
3, 157120, Note_on_c, 0, 69, 0
3, 157188, Note_on_c, 0, 54, 0
3, 157212, Note_on_c, 0, 52, 36
3, 157364, Note_on_c, 0, 52, 0
3, 157376, Note_on_c, 0, 69, 68
3, 157376, Note_on_c, 0, 66, 44
3, 157384, Note_on_c, 0, 59, 61
3, 157388, Note_on_c, 0, 54, 53
3, 157392, Note_on_c, 0, 62, 68
3, 157820, Note_on_c, 0, 62, 0
3, 157832, Note_on_c, 0, 69, 0
3, 157844, Note_on_c, 0, 59, 0
3, 157872, Note_on_c, 0, 54, 0
3, 157884, Note_on_c, 0, 66, 0
3, 158092, Note_on_c, 0, 72, 68
3, 158104, Note_on_c, 0, 61, 56
3, 158116, Note_on_c, 0, 68, 53
3, 158128, Note_on_c, 0, 65, 63
3, 158128, Note_on_c, 0, 60, 60
3, 158488, Note_on_c, 0, 72, 0
3, 158504, Note_on_c, 0, 65, 0
3, 158516, Note_on_c, 0, 61, 0
3, 158516, Note_on_c, 0, 68, 0
3, 158620, Note_on_c, 0, 70, 48
3, 158624, Note_on_c, 0, 60, 0
3, 158644, Note_on_c, 0, 58, 29
3, 158752, Note_on_c, 0, 70, 0
3, 158844, Note_on_c, 0, 58, 0
3, 158860, Note_on_c, 0, 61, 60
3, 158884, Note_on_c, 0, 72, 44
3, 158888, Note_on_c, 0, 65, 51
3, 158892, Note_on_c, 0, 60, 55
3, 158900, Note_on_c, 0, 68, 32
3, 158936, Note_on_c, 0, 65, 0
3, 158944, Note_on_c, 0, 60, 0
3, 158944, Note_on_c, 0, 72, 0
3, 158948, Note_on_c, 0, 68, 0
3, 158956, Note_on_c, 0, 61, 0
3, 160156, Note_on_c, 0, 73, 61
3, 160156, Note_on_c, 0, 61, 54
3, 160156, Note_on_c, 0, 85, 61
3, 160164, Note_on_c, 0, 65, 66
3, 160200, Note_on_c, 0, 65, 0
3, 160200, Note_on_c, 0, 73, 0
3, 160208, Note_on_c, 0, 85, 0
3, 160256, Note_on_c, 0, 61, 0
3, 160776, Note_on_c, 0, 61, 62
3, 160780, Note_on_c, 0, 65, 70
3, 160788, Note_on_c, 0, 88, 32
3, 160800, Note_on_c, 0, 55, 46
3, 160824, Note_on_c, 0, 65, 0
3, 160844, Note_on_c, 0, 88, 0
3, 160852, Note_on_c, 0, 61, 0
3, 160852, Note_on_c, 0, 55, 0
3, 161344, Note_on_c, 0, 60, 61
3, 161344, Note_on_c, 0, 64, 64
3, 161352, Note_on_c, 0, 59, 56
3, 161352, Note_on_c, 0, 95, 76
3, 161360, Note_on_c, 0, 83, 59
3, 161384, Note_on_c, 0, 64, 0
3, 161392, Note_on_c, 0, 95, 0
3, 161392, Note_on_c, 0, 60, 0
3, 161400, Note_on_c, 0, 59, 0
3, 161404, Note_on_c, 0, 83, 0
3, 161924, Note_on_c, 0, 79, 69
3, 161928, Note_on_c, 0, 64, 72
3, 161928, Note_on_c, 0, 91, 68
3, 161936, Note_on_c, 0, 60, 60
3, 161948, Note_on_c, 0, 59, 44
3, 161968, Note_on_c, 0, 64, 0
3, 161968, Note_on_c, 0, 79, 0
3, 161984, Note_on_c, 0, 60, 0
3, 162000, Note_on_c, 0, 59, 0
3, 162020, Note_on_c, 0, 91, 0
3, 162484, Note_on_c, 0, 64, 60
3, 162488, Note_on_c, 0, 60, 59
3, 162492, Note_on_c, 0, 55, 58
3, 162500, Note_on_c, 0, 98, 63
3, 162512, Note_on_c, 0, 86, 47
3, 162532, Note_on_c, 0, 64, 0
3, 162544, Note_on_c, 0, 98, 0
3, 162544, Note_on_c, 0, 60, 0
3, 162556, Note_on_c, 0, 55, 0
3, 162564, Note_on_c, 0, 86, 0
3, 163084, Note_on_c, 0, 83, 71
3, 163088, Note_on_c, 0, 95, 69
3, 163092, Note_on_c, 0, 91, 56
3, 163092, Note_on_c, 0, 64, 68
3, 163096, Note_on_c, 0, 88, 58
3, 163100, Note_on_c, 0, 60, 55
3, 163108, Note_on_c, 0, 54, 50
3, 163128, Note_on_c, 0, 83, 0
3, 163132, Note_on_c, 0, 95, 0
3, 163136, Note_on_c, 0, 88, 0
3, 163144, Note_on_c, 0, 64, 0
3, 163144, Note_on_c, 0, 91, 0
3, 163148, Note_on_c, 0, 60, 0
3, 163196, Note_on_c, 0, 54, 0
3, 163620, Note_on_c, 0, 93, 77
3, 163628, Note_on_c, 0, 81, 64
3, 163632, Note_on_c, 0, 88, 66
3, 163660, Note_on_c, 0, 60, 66
3, 163660, Note_on_c, 0, 64, 68
3, 163664, Note_on_c, 0, 54, 62
3, 164096, Note_on_c, 0, 93, 0
3, 164100, Note_on_c, 0, 60, 0
3, 164120, Note_on_c, 0, 88, 0
3, 164148, Note_on_c, 0, 54, 0
3, 164176, Note_on_c, 0, 81, 0
3, 164212, Note_on_c, 0, 64, 0
3, 164400, Note_on_c, 0, 90, 65
3, 164404, Note_on_c, 0, 78, 60
3, 164412, Note_on_c, 0, 66, 64
3, 164424, Note_on_c, 0, 62, 56
3, 164436, Note_on_c, 0, 57, 47
3, 164472, Note_on_c, 0, 62, 0
3, 164472, Note_on_c, 0, 61, 25
3, 164492, Note_on_c, 0, 57, 0
3, 164512, Note_on_c, 0, 66, 0
3, 164540, Note_on_c, 0, 61, 0
3, 164696, Note_on_c, 0, 90, 0
3, 164708, Note_on_c, 0, 78, 0
3, 165016, Note_on_c, 0, 66, 67
3, 165020, Note_on_c, 0, 90, 65
3, 165024, Note_on_c, 0, 78, 59
3, 165060, Note_on_c, 0, 62, 44
3, 165072, Note_on_c, 0, 66, 0
3, 165104, Note_on_c, 0, 90, 0
3, 165104, Note_on_c, 0, 78, 0
3, 165108, Note_on_c, 0, 62, 0
3, 166540, Note_on_c, 0, 93, 76
3, 166540, Note_on_c, 0, 62, 66
3, 166544, Note_on_c, 0, 90, 59
3, 166544, Note_on_c, 0, 66, 67
3, 166556, Note_on_c, 0, 81, 64
3, 166556, Note_on_c, 0, 86, 60
3, 166556, Note_on_c, 0, 55, 43
3, 166568, Note_on_c, 0, 59, 50
3, 166604, Note_on_c, 0, 81, 0
3, 166604, Note_on_c, 0, 93, 0
3, 166608, Note_on_c, 0, 66, 0
3, 166608, Note_on_c, 0, 55, 0
3, 166612, Note_on_c, 0, 86, 0
3, 166620, Note_on_c, 0, 59, 0
3, 166620, Note_on_c, 0, 90, 0
3, 166648, Note_on_c, 0, 62, 0
3, 166712, Note_on_c, 0, 93, 74
3, 166728, Note_on_c, 0, 55, 60
3, 166728, Note_on_c, 0, 66, 57
3, 166736, Note_on_c, 0, 81, 59
3, 166736, Note_on_c, 0, 62, 60
3, 166740, Note_on_c, 0, 90, 45
3, 166740, Note_on_c, 0, 86, 53
3, 166740, Note_on_c, 0, 59, 51
3, 166864, Note_on_c, 0, 90, 0
3, 166884, Note_on_c, 0, 66, 0
3, 166896, Note_on_c, 0, 86, 0
3, 166904, Note_on_c, 0, 55, 0
3, 166928, Note_on_c, 0, 81, 0
3, 166936, Note_on_c, 0, 93, 0
3, 166960, Note_on_c, 0, 59, 0
3, 167000, Note_on_c, 0, 66, 39
3, 167012, Note_on_c, 0, 90, 67
3, 167088, Note_on_c, 0, 62, 0
3, 167104, Note_on_c, 0, 66, 0
3, 167112, Note_on_c, 0, 90, 0
3, 167344, Note_on_c, 0, 95, 84
3, 167348, Note_on_c, 0, 83, 78
3, 167356, Note_on_c, 0, 61, 57
3, 167360, Note_on_c, 0, 88, 64
3, 167364, Note_on_c, 0, 91, 48
3, 167364, Note_on_c, 0, 55, 52
3, 167388, Note_on_c, 0, 83, 0
3, 167388, Note_on_c, 0, 95, 0
3, 167400, Note_on_c, 0, 88, 0
3, 167412, Note_on_c, 0, 91, 0
3, 167412, Note_on_c, 0, 55, 0
3, 167416, Note_on_c, 0, 61, 0
3, 167744, Note_on_c, 0, 66, 70
3, 167748, Note_on_c, 0, 61, 57
3, 167748, Note_on_c, 0, 95, 85
3, 167748, Note_on_c, 0, 83, 80
3, 167752, Note_on_c, 0, 55, 66
3, 167752, Note_on_c, 0, 88, 76
3, 167764, Note_on_c, 0, 91, 66
3, 167796, Note_on_c, 0, 88, 0
3, 167800, Note_on_c, 0, 91, 0
3, 167804, Note_on_c, 0, 83, 0
3, 167804, Note_on_c, 0, 55, 0
3, 167824, Note_on_c, 0, 66, 0
3, 167836, Note_on_c, 0, 95, 0
3, 167852, Note_on_c, 0, 61, 0
3, 168160, Note_on_c, 0, 82, 74
3, 168168, Note_on_c, 0, 87, 71
3, 168172, Note_on_c, 0, 61, 46
3, 168176, Note_on_c, 0, 94, 60
3, 168180, Note_on_c, 0, 66, 40
3, 168208, Note_on_c, 0, 87, 0
3, 168216, Note_on_c, 0, 94, 0
3, 168220, Note_on_c, 0, 82, 0
3, 168220, Note_on_c, 0, 61, 0
3, 168224, Note_on_c, 0, 66, 0
3, 168320, Note_on_c, 0, 61, 55
3, 168320, Note_on_c, 0, 66, 59
3, 168332, Note_on_c, 0, 55, 75
3, 168352, Note_on_c, 0, 95, 80
3, 168356, Note_on_c, 0, 83, 71
3, 168392, Note_on_c, 0, 88, 46
3, 168452, Note_on_c, 0, 88, 0
3, 169308, Note_on_c, 0, 95, 0
3, 169320, Note_on_c, 0, 83, 0
3, 169420, Note_on_c, 0, 88, 1
3, 169436, Note_on_c, 0, 82, 48
3, 169440, Note_on_c, 0, 94, 48
3, 169492, Note_on_c, 0, 88, 0
3, 169516, Note_on_c, 0, 82, 0
3, 169516, Note_on_c, 0, 55, 0
3, 169528, Note_on_c, 0, 66, 0
3, 169532, Note_on_c, 0, 94, 0
3, 169604, Note_on_c, 0, 61, 0
3, 169636, Note_on_c, 0, 95, 74
3, 169644, Note_on_c, 0, 66, 60
3, 169648, Note_on_c, 0, 61, 25
3, 169652, Note_on_c, 0, 55, 50
3, 169656, Note_on_c, 0, 83, 46
3, 169664, Note_on_c, 0, 88, 42
3, 169704, Note_on_c, 0, 83, 0
3, 169708, Note_on_c, 0, 95, 0
3, 169716, Note_on_c, 0, 88, 0
3, 169720, Note_on_c, 0, 55, 0
3, 169740, Note_on_c, 0, 66, 0
3, 169792, Note_on_c, 0, 61, 0
3, 170096, Note_on_c, 0, 92, 43
3, 170136, Note_on_c, 0, 92, 0
3, 170400, Note_on_c, 0, 60, 71
3, 170400, Note_on_c, 0, 64, 73
3, 170408, Note_on_c, 0, 98, 80
3, 170408, Note_on_c, 0, 86, 76
3, 170408, Note_on_c, 0, 91, 73
3, 170412, Note_on_c, 0, 59, 61
3, 170424, Note_on_c, 0, 95, 60
3, 170444, Note_on_c, 0, 64, 0
3, 170444, Note_on_c, 0, 60, 0
3, 170448, Note_on_c, 0, 86, 0
3, 170448, Note_on_c, 0, 91, 0
3, 170448, Note_on_c, 0, 98, 0
3, 170452, Note_on_c, 0, 59, 0
3, 170460, Note_on_c, 0, 95, 0
3, 170884, Note_on_c, 0, 64, 75
3, 170896, Note_on_c, 0, 60, 62
3, 170900, Note_on_c, 0, 59, 55
3, 170900, Note_on_c, 0, 55, 66
3, 170908, Note_on_c, 0, 95, 80
3, 170920, Note_on_c, 0, 83, 64
3, 170924, Note_on_c, 0, 96, 53
3, 170924, Note_on_c, 0, 84, 63
3, 170928, Note_on_c, 0, 88, 64
3, 170932, Note_on_c, 0, 91, 56
3, 170964, Note_on_c, 0, 96, 0
3, 170968, Note_on_c, 0, 84, 0
3, 171540, Note_on_c, 0, 95, 0
3, 171576, Note_on_c, 0, 91, 0
3, 171600, Note_on_c, 0, 88, 0
3, 171636, Note_on_c, 0, 83, 0
3, 171788, Note_on_c, 0, 59, 0
3, 171840, Note_on_c, 0, 55, 0
3, 171840, Note_on_c, 0, 64, 0
3, 171876, Note_on_c, 0, 60, 0
3, 172048, Note_on_c, 0, 60, 67
3, 172052, Note_on_c, 0, 64, 68
3, 172068, Note_on_c, 0, 53, 55
3, 172080, Note_on_c, 0, 57, 58
3, 172536, Note_on_c, 0, 64, 0
3, 172548, Note_on_c, 0, 60, 0
3, 172568, Note_on_c, 0, 57, 0
3, 172628, Note_on_c, 0, 53, 0
3, 172720, Note_on_c, 0, 70, 83
3, 172720, Note_on_c, 0, 63, 83
3, 172724, Note_on_c, 0, 67, 82
3, 172736, Note_on_c, 0, 53, 68
3, 172752, Note_on_c, 0, 59, 64
3, 172756, Note_on_c, 0, 60, 58
3, 172796, Note_on_c, 0, 60, 0
3, 173404, Note_on_c, 0, 67, 0
3, 173464, Note_on_c, 0, 70, 0
3, 173464, Note_on_c, 0, 63, 0
3, 173496, Note_on_c, 0, 59, 0
3, 173504, Note_on_c, 0, 53, 0
3, 173588, Note_on_c, 0, 52, 60
3, 173592, Note_on_c, 0, 69, 64
3, 173596, Note_on_c, 0, 60, 56
3, 173628, Note_on_c, 0, 64, 34
3, 173640, Note_on_c, 0, 60, 0
3, 173640, Note_on_c, 0, 69, 0
3, 173680, Note_on_c, 0, 52, 0
3, 173684, Note_on_c, 0, 64, 0
3, 174224, Note_on_c, 0, 67, 63
3, 174232, Note_on_c, 0, 62, 56
3, 174236, Note_on_c, 0, 59, 43
3, 174252, Note_on_c, 0, 52, 49
3, 174260, Note_on_c, 0, 57, 26
3, 174272, Note_on_c, 0, 67, 0
3, 174280, Note_on_c, 0, 62, 0
3, 174292, Note_on_c, 0, 59, 0
3, 174304, Note_on_c, 0, 57, 0
3, 174312, Note_on_c, 0, 52, 0
3, 174736, Note_on_c, 0, 67, 70
3, 174744, Note_on_c, 0, 57, 73
3, 174748, Note_on_c, 0, 52, 58
3, 174748, Note_on_c, 0, 62, 73
3, 177280, Note_on_c, 0, 57, 0
3, 177300, Note_on_c, 0, 67, 0
3, 177408, Note_on_c, 0, 62, 0
3, 177428, Note_on_c, 0, 52, 0
3, 177464, Note_on_c, 0, 58, 53
3, 177476, Note_on_c, 0, 63, 56
3, 177480, Note_on_c, 0, 67, 34
3, 177508, Note_on_c, 0, 58, 0
3, 177524, Note_on_c, 0, 63, 0
3, 177536, Note_on_c, 0, 67, 0
3, 178088, Note_on_c, 0, 57, 68
3, 178092, Note_on_c, 0, 63, 52
3, 178096, Note_on_c, 0, 67, 57
3, 178104, Note_on_c, 0, 51, 42
3, 178132, Note_on_c, 0, 63, 0
3, 178132, Note_on_c, 0, 57, 0
3, 178140, Note_on_c, 0, 67, 0
3, 178152, Note_on_c, 0, 51, 0
3, 178808, Note_on_c, 0, 66, 68
3, 178820, Note_on_c, 0, 57, 64
3, 178824, Note_on_c, 0, 61, 45
3, 178852, Note_on_c, 0, 66, 0
3, 178852, Note_on_c, 0, 51, 39
3, 178864, Note_on_c, 0, 61, 0
3, 178864, Note_on_c, 0, 57, 0
3, 178916, Note_on_c, 0, 51, 0
3, 179228, Note_on_c, 0, 48, 35
3, 179312, Note_on_c, 0, 48, 0
3, 179340, Note_on_c, 0, 54, 60
3, 179356, Note_on_c, 0, 57, 60
3, 179360, Note_on_c, 0, 50, 53
3, 179364, Note_on_c, 0, 59, 56
3, 179368, Note_on_c, 0, 62, 53
3, 180604, Note_on_c, 0, 62, 0
3, 180684, Note_on_c, 0, 57, 0
3, 180700, Note_on_c, 0, 59, 0
3, 180780, Note_on_c, 0, 54, 0
3, 180876, Note_on_c, 0, 54, 37
3, 180904, Note_on_c, 0, 49, 36
3, 180912, Note_on_c, 0, 50, 0
3, 180928, Note_on_c, 0, 61, 46
3, 181072, Note_on_c, 0, 54, 0
3, 181100, Note_on_c, 0, 61, 0
3, 181152, Note_on_c, 0, 49, 0
3, 181164, Note_on_c, 0, 54, 35
3, 181168, Note_on_c, 0, 62, 57
3, 181176, Note_on_c, 0, 50, 58
3, 181188, Note_on_c, 0, 57, 43
3, 181240, Note_on_c, 0, 57, 0
3, 181244, Note_on_c, 0, 54, 0
3, 181256, Note_on_c, 0, 50, 0
3, 181260, Note_on_c, 0, 62, 0
3, 182696, Note_on_c, 0, 61, 69
3, 182700, Note_on_c, 0, 72, 68
3, 182704, Note_on_c, 0, 68, 53
3, 182708, Note_on_c, 0, 65, 64
3, 182720, Note_on_c, 0, 60, 73
3, 182740, Note_on_c, 0, 72, 0
3, 182740, Note_on_c, 0, 61, 0
3, 182752, Note_on_c, 0, 65, 0
3, 182752, Note_on_c, 0, 68, 0
3, 182780, Note_on_c, 0, 60, 0
3, 183456, Note_on_c, 0, 61, 61
3, 183464, Note_on_c, 0, 70, 50
3, 183468, Note_on_c, 0, 68, 47
3, 183468, Note_on_c, 0, 65, 57
3, 183476, Note_on_c, 0, 58, 51
3, 183496, Note_on_c, 0, 61, 0
3, 183512, Note_on_c, 0, 65, 0
3, 183516, Note_on_c, 0, 68, 0
3, 183548, Note_on_c, 0, 58, 0
3, 183560, Note_on_c, 0, 70, 0
3, 184156, Note_on_c, 0, 76, 75
3, 184172, Note_on_c, 0, 67, 68
3, 184176, Note_on_c, 0, 71, 64
3, 184192, Note_on_c, 0, 61, 57
3, 184196, Note_on_c, 0, 65, 62
3, 184208, Note_on_c, 0, 55, 53
3, 184216, Note_on_c, 0, 67, 0
3, 184220, Note_on_c, 0, 71, 0
3, 184240, Note_on_c, 0, 65, 0
3, 184256, Note_on_c, 0, 55, 0
3, 184264, Note_on_c, 0, 76, 0
3, 184292, Note_on_c, 0, 61, 0
3, 184920, Note_on_c, 0, 70, 71
3, 184944, Note_on_c, 0, 73, 48
3, 184948, Note_on_c, 0, 67, 56
3, 184952, Note_on_c, 0, 64, 66
3, 184960, Note_on_c, 0, 61, 46
3, 184976, Note_on_c, 0, 55, 44
3, 184992, Note_on_c, 0, 67, 0
3, 184996, Note_on_c, 0, 64, 0
3, 185000, Note_on_c, 0, 73, 0
3, 185028, Note_on_c, 0, 70, 0
3, 185032, Note_on_c, 0, 55, 0
3, 185052, Note_on_c, 0, 61, 0
3, 185488, Note_on_c, 0, 71, 74
3, 185488, Note_on_c, 0, 59, 71
3, 185488, Note_on_c, 0, 64, 74
3, 185500, Note_on_c, 0, 60, 74
3, 185500, Note_on_c, 0, 67, 62
3, 186136, Note_on_c, 0, 60, 0
3, 186176, Note_on_c, 0, 71, 0
3, 186220, Note_on_c, 0, 67, 0
3, 186244, Note_on_c, 0, 60, 55
3, 186260, Note_on_c, 0, 57, 49
3, 186276, Note_on_c, 0, 59, 0
3, 186276, Note_on_c, 0, 69, 42
3, 186300, Note_on_c, 0, 60, 0
3, 186316, Note_on_c, 0, 64, 0
3, 186340, Note_on_c, 0, 69, 0
3, 186416, Note_on_c, 0, 57, 0
3, 186660, Note_on_c, 0, 71, 57
3, 186664, Note_on_c, 0, 59, 53
3, 186668, Note_on_c, 0, 60, 57
3, 186684, Note_on_c, 0, 64, 46
3, 186736, Note_on_c, 0, 64, 0
3, 186736, Note_on_c, 0, 60, 0
3, 186756, Note_on_c, 0, 71, 0
3, 186816, Note_on_c, 0, 59, 0
3, 187040, Note_on_c, 0, 69, 67
3, 187072, Note_on_c, 0, 60, 35
3, 187080, Note_on_c, 0, 57, 32
3, 187128, Note_on_c, 0, 60, 0
3, 187148, Note_on_c, 0, 69, 0
3, 187156, Note_on_c, 0, 57, 0
3, 187456, Note_on_c, 0, 66, 54
3, 187464, Note_on_c, 0, 60, 54
3, 187480, Note_on_c, 0, 57, 31
3, 187500, Note_on_c, 0, 50, 30
3, 187856, Note_on_c, 0, 50, 0
3, 187920, Note_on_c, 0, 60, 0
3, 187924, Note_on_c, 0, 57, 0
3, 188032, Note_on_c, 0, 66, 0
3, 188060, Note_on_c, 0, 60, 49
3, 188112, Note_on_c, 0, 50, 42
3, 188156, Note_on_c, 0, 60, 0
3, 188180, Note_on_c, 0, 50, 0
3, 188800, Note_on_c, 0, 64, 72
3, 188804, Note_on_c, 0, 69, 74
3, 188808, Note_on_c, 0, 61, 65
3, 188812, Note_on_c, 0, 57, 74
3, 188812, Note_on_c, 0, 42, 65
3, 188824, Note_on_c, 0, 52, 61
3, 188924, Note_on_c, 0, 57, 0
3, 188932, Note_on_c, 0, 52, 0
3, 188948, Note_on_c, 0, 42, 0
3, 188952, Note_on_c, 0, 61, 0
3, 188976, Note_on_c, 0, 64, 0
3, 188988, Note_on_c, 0, 69, 0
3, 189248, Note_on_c, 0, 54, 39
3, 189288, Note_on_c, 0, 54, 0
3, 189564, Note_on_c, 0, 54, 64
3, 189576, Note_on_c, 0, 63, 74
3, 189580, Note_on_c, 0, 59, 77
3, 189580, Note_on_c, 0, 66, 71
3, 189588, Note_on_c, 0, 47, 62
3, 189904, Note_on_c, 0, 59, 0
3, 190076, Note_on_c, 0, 54, 0
3, 190104, Note_on_c, 0, 59, 27
3, 190172, Note_on_c, 0, 66, 0
3, 190176, Note_on_c, 0, 59, 0
3, 190208, Note_on_c, 0, 63, 0
3, 190340, Note_on_c, 0, 47, 0
3, 190368, Note_on_c, 0, 52, 66
3, 190368, Note_on_c, 0, 59, 66
3, 190368, Note_on_c, 0, 67, 66
3, 190372, Note_on_c, 0, 62, 70
3, 190952, Note_on_c, 0, 59, 0
3, 191076, Note_on_c, 0, 62, 0
3, 191132, Note_on_c, 0, 67, 0
3, 191188, Note_on_c, 0, 52, 0
3, 192036, Note_on_c, 0, 93, 77
3, 192040, Note_on_c, 0, 61, 67
3, 192044, Note_on_c, 0, 65, 74
3, 192052, Note_on_c, 0, 81, 54
3, 192068, Note_on_c, 0, 55, 44
3, 192072, Note_on_c, 0, 88, 34
3, 192080, Note_on_c, 0, 93, 0
3, 192084, Note_on_c, 0, 65, 0
3, 192100, Note_on_c, 0, 81, 0
3, 192120, Note_on_c, 0, 55, 0
3, 192124, Note_on_c, 0, 88, 0
3, 192132, Note_on_c, 0, 61, 0
3, 192436, Note_on_c, 0, 65, 82
3, 192436, Note_on_c, 0, 93, 88
3, 192444, Note_on_c, 0, 61, 62
3, 192444, Note_on_c, 0, 55, 84
3, 192448, Note_on_c, 0, 81, 70
3, 192448, Note_on_c, 0, 88, 75
3, 192464, Note_on_c, 0, 83, 68
3, 192508, Note_on_c, 0, 83, 0
3, 192536, Note_on_c, 0, 81, 0
3, 192656, Note_on_c, 0, 81, 11
3, 192780, Note_on_c, 0, 93, 0
3, 192864, Note_on_c, 0, 88, 0
3, 192916, Note_on_c, 0, 81, 0
3, 193072, Note_on_c, 0, 65, 0
3, 193164, Note_on_c, 0, 61, 0
3, 193180, Note_on_c, 0, 55, 0
3, 193580, Note_on_c, 0, 60, 71
3, 193596, Note_on_c, 0, 74, 85
3, 193600, Note_on_c, 0, 69, 85
3, 193604, Note_on_c, 0, 64, 84
3, 193624, Note_on_c, 0, 60, 0
3, 193644, Note_on_c, 0, 64, 0
3, 193652, Note_on_c, 0, 69, 0
3, 193688, Note_on_c, 0, 74, 0
3, 194184, Note_on_c, 0, 71, 67
3, 194184, Note_on_c, 0, 66, 57
3, 194184, Note_on_c, 0, 60, 66
3, 194192, Note_on_c, 0, 64, 59
3, 194196, Note_on_c, 0, 59, 65
3, 194196, Note_on_c, 0, 70, 38
3, 194204, Note_on_c, 0, 50, 56
3, 194304, Note_on_c, 0, 59, 0
3, 194384, Note_on_c, 0, 70, 0
3, 194492, Note_on_c, 0, 71, 0
3, 194504, Note_on_c, 0, 64, 0
3, 194536, Note_on_c, 0, 50, 0
3, 194548, Note_on_c, 0, 66, 0
3, 194592, Note_on_c, 0, 60, 0
3, 194972, Note_on_c, 0, 67, 54
3, 194996, Note_on_c, 0, 57, 36
3, 195000, Note_on_c, 0, 59, 34
3, 195016, Note_on_c, 0, 67, 0
3, 195048, Note_on_c, 0, 57, 0
3, 195060, Note_on_c, 0, 59, 0
3, 195332, Note_on_c, 0, 35, 83
3, 195844, Note_on_c, 0, 35, 0
3, 195900, Note_on_c, 0, 36, 55
3, 196040, Note_on_c, 0, 36, 0
3, 196252, Note_on_c, 0, 37, 63
3, 196368, Note_on_c, 0, 37, 0
3, 196620, Note_on_c, 0, 38, 70
3, 196732, Note_on_c, 0, 38, 0
3, 197300, Note_on_c, 0, 31, 68
3, 197304, Note_on_c, 0, 57, 76
3, 197312, Note_on_c, 0, 52, 55
3, 197332, Note_on_c, 0, 60, 62
3, 197348, Note_on_c, 0, 53, 37
3, 197380, Note_on_c, 0, 60, 0
3, 197392, Note_on_c, 0, 53, 0
3, 197524, Note_on_c, 0, 61, 34
3, 199244, Note_on_c, 0, 31, 0
3, 200308, Note_on_c, 0, 52, 0
3, 200336, Note_on_c, 0, 57, 0
3, 200368, Note_on_c, 0, 61, 0
3, 200368, End_track
4, 0, Start_track
4, 0, Title_t, "Bass"
4, 0, Control_c, 1, 0, 0
4, 0, Control_c, 1, 93, 127
4, 0, Program_c, 1, 32
4, 1024, Note_on_c, 1, 46, 59
4, 1096, Note_on_c, 1, 46, 0
4, 1152, Note_on_c, 1, 47, 33
4, 1352, Note_on_c, 1, 47, 0
4, 1408, Note_on_c, 1, 50, 54
4, 1472, Note_on_c, 1, 50, 0
4, 1536, Note_on_c, 1, 48, 34
4, 1792, Note_on_c, 1, 36, 47
4, 1808, Note_on_c, 1, 48, 0
4, 1856, Note_on_c, 1, 36, 0
4, 1920, Note_on_c, 1, 42, 57
4, 2240, Note_on_c, 1, 42, 0
4, 2304, Note_on_c, 1, 43, 42
4, 2644, Note_on_c, 1, 43, 0
4, 2688, Note_on_c, 1, 35, 40
4, 3072, Note_on_c, 1, 36, 43
4, 3076, Note_on_c, 1, 35, 0
4, 3408, Note_on_c, 1, 36, 0
4, 3456, Note_on_c, 1, 38, 49
4, 3840, Note_on_c, 1, 38, 0
4, 3840, Note_on_c, 1, 40, 39
4, 4096, Note_on_c, 1, 35, 38
4, 4168, Note_on_c, 1, 35, 0
4, 4180, Note_on_c, 1, 40, 0
4, 4224, Note_on_c, 1, 43, 49
4, 4480, Note_on_c, 1, 34, 42
4, 4528, Note_on_c, 1, 43, 0
4, 4544, Note_on_c, 1, 34, 0
4, 4608, Note_on_c, 1, 48, 57
4, 4920, Note_on_c, 1, 48, 0
4, 4992, Note_on_c, 1, 46, 33
4, 5336, Note_on_c, 1, 46, 0
4, 5376, Note_on_c, 1, 43, 48
4, 5712, Note_on_c, 1, 43, 0
4, 5760, Note_on_c, 1, 42, 63
4, 5892, Note_on_c, 1, 42, 0
4, 5988, Pitch_bend_c, 1, 8192
4, 5992, Pitch_bend_c, 1, 8192
4, 5996, Pitch_bend_c, 1, 7552
4, 6000, Pitch_bend_c, 1, 7040
4, 6008, Pitch_bend_c, 1, 6400
4, 6012, Pitch_bend_c, 1, 5888
4, 6020, Pitch_bend_c, 1, 5120
4, 6024, Pitch_bend_c, 1, 4608
4, 6028, Pitch_bend_c, 1, 4096
4, 6036, Pitch_bend_c, 1, 3584
4, 6040, Pitch_bend_c, 1, 3072
4, 6048, Pitch_bend_c, 1, 2560
4, 6052, Pitch_bend_c, 1, 2048
4, 6056, Pitch_bend_c, 1, 1664
4, 6064, Pitch_bend_c, 1, 1280
4, 6068, Pitch_bend_c, 1, 1024
4, 6072, Pitch_bend_c, 1, 768
4, 6080, Pitch_bend_c, 1, 512
4, 6084, Pitch_bend_c, 1, 384
4, 6092, Pitch_bend_c, 1, 256
4, 6120, Pitch_bend_c, 1, 512
4, 6128, Pitch_bend_c, 1, 768
4, 6132, Pitch_bend_c, 1, 1024
4, 6140, Pitch_bend_c, 1, 1536
4, 6144, Note_on_c, 1, 41, 65
4, 6144, Pitch_bend_c, 1, 2176
4, 6148, Pitch_bend_c, 1, 2688
4, 6156, Pitch_bend_c, 1, 3328
4, 6160, Pitch_bend_c, 1, 3712
4, 6164, Pitch_bend_c, 1, 3968
4, 6172, Pitch_bend_c, 1, 4352
4, 6176, Pitch_bend_c, 1, 4480
4, 6184, Pitch_bend_c, 1, 4736
4, 6188, Pitch_bend_c, 1, 4864
4, 6192, Pitch_bend_c, 1, 4992
4, 6200, Pitch_bend_c, 1, 5376
4, 6204, Pitch_bend_c, 1, 5504
4, 6208, Pitch_bend_c, 1, 5760
4, 6216, Pitch_bend_c, 1, 6016
4, 6220, Pitch_bend_c, 1, 6272
4, 6228, Pitch_bend_c, 1, 6656
4, 6232, Pitch_bend_c, 1, 7040
4, 6236, Pitch_bend_c, 1, 7552
4, 6244, Pitch_bend_c, 1, 8192
4, 6244, Pitch_bend_c, 1, 8192
4, 6248, Pitch_bend_c, 1, 8192
4, 6508, Note_on_c, 1, 41, 0
4, 6528, Note_on_c, 1, 39, 43
4, 6892, Note_on_c, 1, 39, 0
4, 6912, Note_on_c, 1, 38, 42
4, 7168, Note_on_c, 1, 33, 71
4, 7188, Note_on_c, 1, 38, 0
4, 7232, Note_on_c, 1, 33, 0
4, 7296, Note_on_c, 1, 32, 56
4, 7552, Note_on_c, 1, 30, 25
4, 7608, Note_on_c, 1, 32, 0
4, 7648, Note_on_c, 1, 30, 0
4, 7680, Note_on_c, 1, 31, 47
4, 7936, Note_on_c, 1, 30, 20
4, 8020, Note_on_c, 1, 31, 0
4, 8064, Note_on_c, 1, 33, 22
4, 8076, Note_on_c, 1, 30, 0
4, 8320, Note_on_c, 1, 31, 35
4, 8372, Note_on_c, 1, 33, 0
4, 8384, Note_on_c, 1, 31, 0
4, 8448, Note_on_c, 1, 35, 49
4, 8776, Note_on_c, 1, 35, 0
4, 8832, Note_on_c, 1, 40, 49
4, 9184, Note_on_c, 1, 40, 0
4, 9216, Note_on_c, 1, 38, 53
4, 9552, Note_on_c, 1, 38, 0
4, 9600, Note_on_c, 1, 45, 54
4, 9940, Note_on_c, 1, 45, 0
4, 9984, Note_on_c, 1, 43, 40
4, 10196, Note_on_c, 1, 43, 0
4, 10240, Note_on_c, 1, 50, 66
4, 10324, Note_on_c, 1, 50, 0
4, 10368, Note_on_c, 1, 47, 47
4, 10688, Note_on_c, 1, 47, 0
4, 10752, Note_on_c, 1, 46, 67
4, 11104, Note_on_c, 1, 46, 0
4, 11136, Note_on_c, 1, 44, 53
4, 11468, Note_on_c, 1, 44, 0
4, 11520, Note_on_c, 1, 43, 36
4, 11700, Note_on_c, 1, 43, 0
4, 11776, Note_on_c, 1, 41, 58
4, 11840, Note_on_c, 1, 41, 0
4, 11904, Note_on_c, 1, 38, 34
4, 12116, Note_on_c, 1, 38, 0
4, 12192, Pitch_bend_c, 1, 8192
4, 12196, Pitch_bend_c, 1, 8192
4, 12200, Pitch_bend_c, 1, 7680
4, 12208, Pitch_bend_c, 1, 7296
4, 12212, Pitch_bend_c, 1, 6784
4, 12220, Pitch_bend_c, 1, 6400
4, 12224, Pitch_bend_c, 1, 6016
4, 12228, Pitch_bend_c, 1, 5632
4, 12236, Pitch_bend_c, 1, 5120
4, 12240, Pitch_bend_c, 1, 4864
4, 12244, Pitch_bend_c, 1, 4480
4, 12252, Pitch_bend_c, 1, 4224
4, 12256, Pitch_bend_c, 1, 3968
4, 12264, Pitch_bend_c, 1, 3712
4, 12268, Pitch_bend_c, 1, 3584
4, 12280, Pitch_bend_c, 1, 3328
4, 12288, Note_on_c, 1, 39, 59
4, 12308, Pitch_bend_c, 1, 3584
4, 12312, Pitch_bend_c, 1, 3712
4, 12320, Pitch_bend_c, 1, 3968
4, 12324, Pitch_bend_c, 1, 4096
4, 12328, Pitch_bend_c, 1, 4352
4, 12336, Pitch_bend_c, 1, 4608
4, 12340, Pitch_bend_c, 1, 4736
4, 12348, Pitch_bend_c, 1, 4864
4, 12352, Pitch_bend_c, 1, 4992
4, 12356, Pitch_bend_c, 1, 5120
4, 12364, Pitch_bend_c, 1, 5376
4, 12368, Pitch_bend_c, 1, 5504
4, 12372, Pitch_bend_c, 1, 5632
4, 12380, Pitch_bend_c, 1, 5888
4, 12384, Pitch_bend_c, 1, 6144
4, 12392, Pitch_bend_c, 1, 6656
4, 12396, Pitch_bend_c, 1, 7040
4, 12400, Pitch_bend_c, 1, 7552
4, 12408, Pitch_bend_c, 1, 8192
4, 12408, Pitch_bend_c, 1, 8192
4, 12648, Note_on_c, 1, 39, 0
4, 12672, Note_on_c, 1, 37, 36
4, 13048, Note_on_c, 1, 37, 0
4, 13056, Note_on_c, 1, 36, 45
4, 13260, Note_on_c, 1, 36, 0
4, 13312, Note_on_c, 1, 35, 55
4, 13400, Note_on_c, 1, 35, 0
4, 13440, Note_on_c, 1, 34, 50
4, 13696, Note_on_c, 1, 32, 35
4, 13744, Note_on_c, 1, 34, 0
4, 13796, Note_on_c, 1, 32, 0
4, 13824, Note_on_c, 1, 33, 49
4, 14080, Note_on_c, 1, 32, 32
4, 14164, Note_on_c, 1, 33, 0
4, 14208, Note_on_c, 1, 40, 57
4, 14220, Note_on_c, 1, 32, 0
4, 14536, Note_on_c, 1, 40, 0
4, 14592, Note_on_c, 1, 36, 46
4, 14952, Note_on_c, 1, 36, 0
4, 14976, Note_on_c, 1, 37, 60
4, 15112, Note_on_c, 1, 37, 0
4, 15200, Pitch_bend_c, 1, 8192
4, 15204, Pitch_bend_c, 1, 8192
4, 15208, Pitch_bend_c, 1, 8192
4, 15212, Pitch_bend_c, 1, 8192
4, 15216, Pitch_bend_c, 1, 7552
4, 15220, Pitch_bend_c, 1, 7168
4, 15228, Pitch_bend_c, 1, 6784
4, 15232, Pitch_bend_c, 1, 6400
4, 15236, Pitch_bend_c, 1, 5888
4, 15244, Pitch_bend_c, 1, 5504
4, 15248, Pitch_bend_c, 1, 4992
4, 15256, Pitch_bend_c, 1, 4608
4, 15260, Pitch_bend_c, 1, 4224
4, 15264, Pitch_bend_c, 1, 3712
4, 15272, Pitch_bend_c, 1, 3456
4, 15276, Pitch_bend_c, 1, 3200
4, 15280, Pitch_bend_c, 1, 2944
4, 15288, Pitch_bend_c, 1, 2688
4, 15292, Pitch_bend_c, 1, 2560
4, 15300, Pitch_bend_c, 1, 2432
4, 15308, Pitch_bend_c, 1, 2304
4, 15332, Pitch_bend_c, 1, 2560
4, 15336, Pitch_bend_c, 1, 2688
4, 15344, Pitch_bend_c, 1, 2944
4, 15348, Pitch_bend_c, 1, 3328
4, 15356, Pitch_bend_c, 1, 3712
4, 15360, Note_on_c, 1, 38, 55
4, 15360, Pitch_bend_c, 1, 4096
4, 15364, Pitch_bend_c, 1, 4608
4, 15372, Pitch_bend_c, 1, 5120
4, 15376, Pitch_bend_c, 1, 5632
4, 15384, Pitch_bend_c, 1, 5888
4, 15388, Pitch_bend_c, 1, 6272
4, 15392, Pitch_bend_c, 1, 6656
4, 15400, Pitch_bend_c, 1, 6784
4, 15404, Pitch_bend_c, 1, 7040
4, 15408, Pitch_bend_c, 1, 7168
4, 15416, Pitch_bend_c, 1, 7424
4, 15420, Pitch_bend_c, 1, 7552
4, 15428, Pitch_bend_c, 1, 8192
4, 15428, Pitch_bend_c, 1, 8192
4, 15432, Pitch_bend_c, 1, 8192
4, 15436, Pitch_bend_c, 1, 8192
4, 15444, Pitch_bend_c, 1, 8192
4, 15688, Note_on_c, 1, 38, 0
4, 15744, Note_on_c, 1, 42, 39
4, 16088, Note_on_c, 1, 42, 0
4, 16128, Note_on_c, 1, 45, 50
4, 16436, Note_on_c, 1, 45, 0
4, 16512, Note_on_c, 1, 46, 59
4, 16796, Pitch_bend_c, 1, 8192
4, 16800, Note_on_c, 1, 46, 0
4, 16800, Pitch_bend_c, 1, 8192
4, 16804, Pitch_bend_c, 1, 8192
4, 16808, Pitch_bend_c, 1, 7552
4, 16816, Pitch_bend_c, 1, 7168
4, 16820, Pitch_bend_c, 1, 6784
4, 16824, Pitch_bend_c, 1, 6400
4, 16832, Pitch_bend_c, 1, 6016
4, 16836, Pitch_bend_c, 1, 5632
4, 16844, Pitch_bend_c, 1, 5376
4, 16848, Pitch_bend_c, 1, 5120
4, 16852, Pitch_bend_c, 1, 4736
4, 16860, Pitch_bend_c, 1, 4352
4, 16864, Pitch_bend_c, 1, 3968
4, 16872, Pitch_bend_c, 1, 3584
4, 16876, Pitch_bend_c, 1, 3456
4, 16880, Pitch_bend_c, 1, 3072
4, 16888, Pitch_bend_c, 1, 2816
4, 16892, Pitch_bend_c, 1, 2688
4, 16896, Note_on_c, 1, 47, 71
4, 16912, Pitch_bend_c, 1, 2816
4, 16920, Pitch_bend_c, 1, 3072
4, 16924, Pitch_bend_c, 1, 3456
4, 16928, Pitch_bend_c, 1, 3712
4, 16936, Pitch_bend_c, 1, 4096
4, 16940, Pitch_bend_c, 1, 4608
4, 16944, Pitch_bend_c, 1, 5120
4, 16952, Pitch_bend_c, 1, 5632
4, 16956, Pitch_bend_c, 1, 6144
4, 16964, Pitch_bend_c, 1, 6528
4, 16968, Pitch_bend_c, 1, 6912
4, 16972, Pitch_bend_c, 1, 7040
4, 16980, Pitch_bend_c, 1, 7296
4, 16984, Pitch_bend_c, 1, 7552
4, 16988, Pitch_bend_c, 1, 7680
4, 16996, Pitch_bend_c, 1, 8192
4, 17000, Pitch_bend_c, 1, 8192
4, 17000, Pitch_bend_c, 1, 8192
4, 17008, Pitch_bend_c, 1, 8192
4, 17252, Note_on_c, 1, 47, 0
4, 17280, Note_on_c, 1, 42, 35
4, 17664, Note_on_c, 1, 42, 0
4, 17664, Note_on_c, 1, 38, 49
4, 18000, Note_on_c, 1, 38, 0
4, 18048, Note_on_c, 1, 39, 44
4, 18400, Note_on_c, 1, 39, 0
4, 18432, Note_on_c, 1, 40, 40
4, 18688, Note_on_c, 1, 38, 44
4, 18708, Note_on_c, 1, 40, 0
4, 18752, Note_on_c, 1, 38, 0
4, 18816, Note_on_c, 1, 52, 58
4, 19144, Note_on_c, 1, 52, 0
4, 19200, Note_on_c, 1, 47, 38
4, 19388, Note_on_c, 1, 47, 0
4, 19456, Note_on_c, 1, 43, 62
4, 19520, Note_on_c, 1, 43, 0
4, 19584, Note_on_c, 1, 34, 64
4, 19892, Note_on_c, 1, 34, 0
4, 19968, Note_on_c, 1, 33, 39
4, 20152, Note_on_c, 1, 33, 0
4, 20224, Note_on_c, 1, 33, 65
4, 20300, Note_on_c, 1, 33, 0
4, 20352, Note_on_c, 1, 35, 55
4, 20720, Note_on_c, 1, 35, 0
4, 20736, Note_on_c, 1, 36, 71
4, 21056, Note_on_c, 1, 36, 0
4, 21120, Note_on_c, 1, 37, 54
4, 21424, Note_on_c, 1, 37, 0
4, 21504, Note_on_c, 1, 40, 55
4, 21760, Note_on_c, 1, 35, 32
4, 21812, Note_on_c, 1, 40, 0
4, 21824, Note_on_c, 1, 35, 0
4, 21888, Note_on_c, 1, 49, 45
4, 22236, Note_on_c, 1, 49, 0
4, 22272, Note_on_c, 1, 45, 44
4, 22528, Note_on_c, 1, 40, 55
4, 22592, Note_on_c, 1, 40, 0
4, 22604, Note_on_c, 1, 45, 0
4, 22656, Note_on_c, 1, 34, 60
4, 22996, Note_on_c, 1, 34, 0
4, 23040, Note_on_c, 1, 33, 36
4, 23296, Note_on_c, 1, 33, 0
4, 23296, Note_on_c, 1, 40, 54
4, 23368, Note_on_c, 1, 40, 0
4, 23424, Note_on_c, 1, 39, 53
4, 23680, Note_on_c, 1, 37, 47
4, 23692, Note_on_c, 1, 39, 0
4, 23796, Note_on_c, 1, 37, 0
4, 23808, Note_on_c, 1, 38, 36
4, 24064, Note_on_c, 1, 37, 36
4, 24136, Note_on_c, 1, 38, 0
4, 24192, Note_on_c, 1, 50, 63
4, 24204, Note_on_c, 1, 37, 0
4, 24512, Note_on_c, 1, 50, 0
4, 24576, Note_on_c, 1, 38, 35
4, 24576, Note_on_c, 1, 50, 63
4, 24640, Note_on_c, 1, 38, 0
4, 24832, Note_on_c, 1, 38, 63
4, 24920, Note_on_c, 1, 38, 0
4, 24944, Note_on_c, 1, 50, 0
4, 24960, Note_on_c, 1, 37, 64
4, 25216, Note_on_c, 1, 49, 80
4, 25440, Note_on_c, 1, 37, 0
4, 25600, Note_on_c, 1, 37, 58
4, 25648, Note_on_c, 1, 49, 0
4, 25664, Note_on_c, 1, 37, 0
4, 25728, Note_on_c, 1, 44, 58
4, 25968, Note_on_c, 1, 44, 0
4, 25984, Note_on_c, 1, 35, 54
4, 26080, Note_on_c, 1, 35, 0
4, 26112, Note_on_c, 1, 36, 44
4, 26416, Note_on_c, 1, 36, 0
4, 26496, Note_on_c, 1, 38, 55
4, 26812, Note_on_c, 1, 38, 0
4, 26880, Note_on_c, 1, 40, 33
4, 27184, Note_on_c, 1, 40, 0
4, 27264, Note_on_c, 1, 47, 53
4, 27608, Note_on_c, 1, 47, 0
4, 27648, Note_on_c, 1, 48, 44
4, 27988, Note_on_c, 1, 48, 0
4, 28032, Note_on_c, 1, 43, 44
4, 28364, Note_on_c, 1, 43, 0
4, 28416, Note_on_c, 1, 38, 49
4, 28680, Note_on_c, 1, 38, 0
4, 28800, Note_on_c, 1, 35, 66
4, 29156, Note_on_c, 1, 35, 0
4, 29184, Note_on_c, 1, 36, 60
4, 29440, Note_on_c, 1, 35, 31
4, 29508, Note_on_c, 1, 36, 0
4, 29520, Note_on_c, 1, 35, 0
4, 29568, Note_on_c, 1, 38, 54
4, 29824, Note_on_c, 1, 35, 32
4, 29888, Note_on_c, 1, 35, 0
4, 29944, Note_on_c, 1, 38, 0
4, 29952, Note_on_c, 1, 39, 53
4, 30296, Note_on_c, 1, 39, 0
4, 30336, Note_on_c, 1, 40, 55
4, 30592, Note_on_c, 1, 36, 37
4, 30656, Note_on_c, 1, 36, 0
4, 30672, Note_on_c, 1, 40, 0
4, 30720, Note_on_c, 1, 41, 46
4, 31068, Note_on_c, 1, 41, 0
4, 31104, Note_on_c, 1, 42, 47
4, 31360, Note_on_c, 1, 36, 35
4, 31424, Note_on_c, 1, 36, 0
4, 31460, Note_on_c, 1, 42, 0
4, 31488, Note_on_c, 1, 43, 38
4, 31744, Note_on_c, 1, 44, 64
4, 31764, Note_on_c, 1, 43, 0
4, 31856, Note_on_c, 1, 44, 0
4, 31872, Note_on_c, 1, 42, 32
4, 32228, Note_on_c, 1, 42, 0
4, 32256, Note_on_c, 1, 36, 34
4, 32256, Note_on_c, 1, 43, 58
4, 32320, Note_on_c, 1, 36, 0
4, 32512, Note_on_c, 1, 37, 62
4, 32524, Note_on_c, 1, 43, 0
4, 32584, Note_on_c, 1, 37, 0
4, 32640, Note_on_c, 1, 38, 45
4, 32872, Note_on_c, 1, 38, 0
4, 32896, Note_on_c, 1, 30, 68
4, 32972, Note_on_c, 1, 30, 0
4, 33024, Note_on_c, 1, 31, 57
4, 33356, Note_on_c, 1, 31, 0
4, 33408, Note_on_c, 1, 33, 59
4, 33664, Note_on_c, 1, 31, 45
4, 33732, Note_on_c, 1, 31, 0
4, 33740, Note_on_c, 1, 33, 0
4, 33792, Note_on_c, 1, 35, 48
4, 34048, Note_on_c, 1, 33, 37
4, 34104, Note_on_c, 1, 35, 0
4, 34140, Note_on_c, 1, 33, 0
4, 34176, Note_on_c, 1, 38, 60
4, 34432, Note_on_c, 1, 33, 39
4, 34452, Note_on_c, 1, 38, 0
4, 34496, Note_on_c, 1, 33, 0
4, 34560, Note_on_c, 1, 47, 54
4, 34916, Note_on_c, 1, 47, 0
4, 34944, Note_on_c, 1, 43, 56
4, 35008, Note_on_c, 1, 43, 0
4, 35200, Note_on_c, 1, 35, 80
4, 35264, Note_on_c, 1, 35, 0
4, 35328, Note_on_c, 1, 34, 51
4, 35584, Note_on_c, 1, 32, 33
4, 35648, Note_on_c, 1, 32, 0
4, 35660, Note_on_c, 1, 34, 0
4, 35712, Note_on_c, 1, 46, 56
4, 35968, Note_on_c, 1, 34, 39
4, 36020, Note_on_c, 1, 46, 0
4, 36032, Note_on_c, 1, 34, 0
4, 36096, Note_on_c, 1, 40, 34
4, 36244, Note_on_c, 1, 40, 0
4, 36352, Note_on_c, 1, 41, 57
4, 36352, Note_on_c, 1, 40, 74
4, 36352, Note_on_c, 1, 42, 28
4, 36416, Note_on_c, 1, 42, 0
4, 36416, Note_on_c, 1, 40, 0
4, 36416, Note_on_c, 1, 41, 0
4, 36480, Note_on_c, 1, 39, 59
4, 36852, Note_on_c, 1, 39, 0
4, 36864, Note_on_c, 1, 34, 55
4, 37172, Note_on_c, 1, 34, 0
4, 37248, Note_on_c, 1, 31, 58
4, 37580, Note_on_c, 1, 31, 0
4, 37632, Note_on_c, 1, 34, 60
4, 37972, Note_on_c, 1, 34, 0
4, 38016, Note_on_c, 1, 32, 71
4, 38348, Note_on_c, 1, 32, 0
4, 38400, Note_on_c, 1, 33, 58
4, 38596, Note_on_c, 1, 33, 0
4, 38656, Note_on_c, 1, 33, 69
4, 38724, Note_on_c, 1, 33, 0
4, 38784, Note_on_c, 1, 35, 53
4, 39144, Note_on_c, 1, 35, 0
4, 39168, Note_on_c, 1, 36, 60
4, 39424, Note_on_c, 1, 32, 25
4, 39444, Note_on_c, 1, 36, 0
4, 39512, Note_on_c, 1, 32, 0
4, 39552, Note_on_c, 1, 37, 63
4, 39808, Note_on_c, 1, 32, 37
4, 39872, Note_on_c, 1, 32, 0
4, 39872, Note_on_c, 1, 37, 0
4, 39936, Note_on_c, 1, 38, 55
4, 40192, Note_on_c, 1, 32, 32
4, 40232, Note_on_c, 1, 38, 0
4, 40272, Note_on_c, 1, 32, 0
4, 40320, Note_on_c, 1, 50, 57
4, 40644, Note_on_c, 1, 50, 0
4, 40704, Note_on_c, 1, 47, 49
4, 40980, Note_on_c, 1, 47, 0
4, 41088, Note_on_c, 1, 45, 45
4, 41284, Note_on_c, 1, 45, 0
4, 41344, Note_on_c, 1, 43, 61
4, 41420, Note_on_c, 1, 43, 0
4, 41472, Note_on_c, 1, 42, 33
4, 41728, Note_on_c, 1, 35, 29
4, 41768, Note_on_c, 1, 42, 0
4, 41792, Note_on_c, 1, 35, 0
4, 41856, Note_on_c, 1, 37, 61
4, 42184, Note_on_c, 1, 37, 0
4, 42240, Note_on_c, 1, 35, 53
4, 42496, Note_on_c, 1, 32, 35
4, 42508, Note_on_c, 1, 35, 0
4, 42560, Note_on_c, 1, 32, 0
4, 42624, Note_on_c, 1, 48, 42
4, 42624, Note_on_c, 1, 47, 33
4, 42724, Note_on_c, 1, 48, 0
4, 42812, Note_on_c, 1, 47, 0
4, 42880, Note_on_c, 1, 39, 48
4, 42960, Note_on_c, 1, 39, 0
4, 43008, Note_on_c, 1, 40, 49
4, 43264, Note_on_c, 1, 35, 64
4, 43288, Note_on_c, 1, 40, 0
4, 43336, Note_on_c, 1, 35, 0
4, 43392, Note_on_c, 1, 30, 50
4, 43392, Note_on_c, 1, 31, 54
4, 43456, Note_on_c, 1, 30, 0
4, 43724, Note_on_c, 1, 31, 0
4, 43776, Note_on_c, 1, 35, 60
4, 44156, Note_on_c, 1, 35, 0
4, 44160, Note_on_c, 1, 34, 50
4, 44416, Note_on_c, 1, 32, 44
4, 44472, Note_on_c, 1, 34, 0
4, 44520, Note_on_c, 1, 32, 0
4, 44544, Note_on_c, 1, 33, 49
4, 44800, Note_on_c, 1, 32, 21
4, 44912, Note_on_c, 1, 33, 0
4, 44928, Note_on_c, 1, 35, 59
4, 44960, Note_on_c, 1, 32, 0
4, 45184, Note_on_c, 1, 33, 44
4, 45308, Note_on_c, 1, 35, 0
4, 45312, Note_on_c, 1, 33, 0
4, 45312, Note_on_c, 1, 36, 51
4, 45568, Note_on_c, 1, 32, 46
4, 45632, Note_on_c, 1, 36, 0
4, 45696, Note_on_c, 1, 32, 0
4, 45696, Note_on_c, 1, 37, 40
4, 45952, Note_on_c, 1, 32, 40
4, 46024, Note_on_c, 1, 37, 0
4, 46028, Note_on_c, 1, 32, 0
4, 46080, Note_on_c, 1, 38, 48
4, 46336, Note_on_c, 1, 32, 40
4, 46400, Note_on_c, 1, 38, 0
4, 46424, Note_on_c, 1, 32, 0
4, 46464, Note_on_c, 1, 50, 66
4, 47104, Note_on_c, 1, 37, 46
4, 47196, Note_on_c, 1, 37, 0
4, 47196, Note_on_c, 1, 50, 0
4, 47232, Note_on_c, 1, 38, 57
4, 47872, Note_on_c, 1, 37, 30
4, 48000, Note_on_c, 1, 50, 64
4, 48028, Note_on_c, 1, 37, 0
4, 48040, Note_on_c, 1, 38, 0
4, 48640, Note_on_c, 1, 37, 40
4, 48736, Note_on_c, 1, 50, 0
4, 48744, Note_on_c, 1, 37, 0
4, 48768, Note_on_c, 1, 38, 71
4, 49408, Note_on_c, 1, 50, 91
4, 49552, Note_on_c, 1, 38, 0
4, 49792, Note_on_c, 1, 38, 61
4, 49856, Note_on_c, 1, 38, 0
4, 49856, Note_on_c, 1, 50, 0
4, 49920, Note_on_c, 1, 49, 68
4, 50176, Note_on_c, 1, 37, 69
4, 50216, Note_on_c, 1, 49, 0
4, 50240, Note_on_c, 1, 37, 0
4, 50304, Note_on_c, 1, 35, 75
4, 50660, Note_on_c, 1, 35, 0
4, 50688, Note_on_c, 1, 36, 55
4, 50928, Note_on_c, 1, 36, 0
4, 50944, Note_on_c, 1, 36, 64
4, 51012, Note_on_c, 1, 36, 0
4, 51072, Note_on_c, 1, 38, 53
4, 51428, Note_on_c, 1, 38, 0
4, 51456, Note_on_c, 1, 40, 37
4, 51712, Note_on_c, 1, 34, 32
4, 51712, Note_on_c, 1, 35, 24
4, 51776, Note_on_c, 1, 34, 0
4, 51804, Note_on_c, 1, 35, 0
4, 51804, Note_on_c, 1, 40, 0
4, 51840, Note_on_c, 1, 50, 48
4, 52180, Note_on_c, 1, 50, 0
4, 52224, Note_on_c, 1, 48, 44
4, 52576, Note_on_c, 1, 48, 0
4, 52608, Note_on_c, 1, 43, 48
4, 52916, Note_on_c, 1, 43, 0
4, 52992, Note_on_c, 1, 40, 51
4, 53284, Note_on_c, 1, 40, 0
4, 53376, Note_on_c, 1, 35, 54
4, 53732, Note_on_c, 1, 35, 0
4, 53760, Note_on_c, 1, 36, 48
4, 54096, Note_on_c, 1, 36, 0
4, 54144, Note_on_c, 1, 38, 47
4, 54492, Note_on_c, 1, 38, 0
4, 54528, Note_on_c, 1, 39, 39
4, 54784, Note_on_c, 1, 35, 30
4, 54872, Note_on_c, 1, 35, 0
4, 54872, Note_on_c, 1, 39, 0
4, 54912, Note_on_c, 1, 40, 49
4, 55244, Note_on_c, 1, 40, 0
4, 55296, Note_on_c, 1, 41, 38
4, 55552, Note_on_c, 1, 36, 50
4, 55616, Note_on_c, 1, 36, 0
4, 55680, Note_on_c, 1, 29, 55
4, 55700, Note_on_c, 1, 41, 0
4, 56044, Note_on_c, 1, 29, 0
4, 56064, Note_on_c, 1, 36, 58
4, 56416, Note_on_c, 1, 36, 0
4, 56448, Note_on_c, 1, 30, 56
4, 56812, Note_on_c, 1, 30, 0
4, 56832, Note_on_c, 1, 31, 57
4, 57020, Note_on_c, 1, 31, 0
4, 57088, Note_on_c, 1, 31, 54
4, 57216, Note_on_c, 1, 33, 58
4, 57220, Note_on_c, 1, 31, 0
4, 57588, Note_on_c, 1, 33, 0
4, 57600, Note_on_c, 1, 35, 51
4, 57856, Note_on_c, 1, 33, 33
4, 57952, Note_on_c, 1, 35, 0
4, 57968, Note_on_c, 1, 33, 0
4, 57984, Note_on_c, 1, 38, 49
4, 58240, Note_on_c, 1, 33, 32
4, 58320, Note_on_c, 1, 33, 0
4, 58328, Note_on_c, 1, 38, 0
4, 58368, Note_on_c, 1, 47, 51
4, 58624, Note_on_c, 1, 33, 22
4, 58668, Note_on_c, 1, 47, 0
4, 58688, Note_on_c, 1, 33, 0
4, 58752, Note_on_c, 1, 43, 35
4, 59136, Note_on_c, 1, 38, 28
4, 59392, Note_on_c, 1, 36, 55
4, 59452, Note_on_c, 1, 38, 0
4, 59456, Note_on_c, 1, 36, 0
4, 59520, Note_on_c, 1, 31, 47
4, 59776, Note_on_c, 1, 33, 39
4, 59780, Note_on_c, 1, 31, 0
4, 59804, Note_on_c, 1, 43, 0
4, 59840, Note_on_c, 1, 33, 0
4, 59904, Note_on_c, 1, 34, 59
4, 60288, Note_on_c, 1, 39, 56
4, 60316, Note_on_c, 1, 34, 0
4, 60544, Note_on_c, 1, 34, 31
4, 60608, Note_on_c, 1, 34, 0
4, 60608, Note_on_c, 1, 39, 0
4, 60672, Note_on_c, 1, 38, 40
4, 60928, Note_on_c, 1, 34, 30
4, 60992, Note_on_c, 1, 34, 0
4, 61016, Note_on_c, 1, 38, 0
4, 61056, Note_on_c, 1, 39, 48
4, 61312, Note_on_c, 1, 34, 29
4, 61364, Note_on_c, 1, 39, 0
4, 61380, Note_on_c, 1, 34, 0
4, 61440, Note_on_c, 1, 43, 53
4, 61696, Note_on_c, 1, 34, 28
4, 61744, Note_on_c, 1, 43, 0
4, 61780, Note_on_c, 1, 34, 0
4, 61824, Note_on_c, 1, 46, 48
4, 62172, Note_on_c, 1, 46, 0
4, 62208, Note_on_c, 1, 45, 47
4, 62488, Note_on_c, 1, 45, 0
4, 62592, Note_on_c, 1, 47, 47
4, 62792, Note_on_c, 1, 47, 0
4, 62848, Note_on_c, 1, 46, 67
4, 62920, Note_on_c, 1, 46, 0
4, 62976, Note_on_c, 1, 45, 37
4, 63152, Note_on_c, 1, 45, 0
4, 63232, Note_on_c, 1, 40, 51
4, 63320, Note_on_c, 1, 40, 0
4, 63360, Note_on_c, 1, 36, 57
4, 63692, Note_on_c, 1, 36, 0
4, 63744, Note_on_c, 1, 40, 53
4, 64088, Note_on_c, 1, 40, 0
4, 64128, Note_on_c, 1, 39, 53
4, 64384, Note_on_c, 1, 37, 30
4, 64408, Note_on_c, 1, 39, 0
4, 64464, Note_on_c, 1, 37, 0
4, 64512, Note_on_c, 1, 38, 42
4, 64800, Note_on_c, 1, 38, 0
4, 64896, Note_on_c, 1, 38, 54
4, 65216, Note_on_c, 1, 38, 0
4, 65280, Note_on_c, 1, 36, 66
4, 65560, Note_on_c, 1, 36, 0
4, 65664, Note_on_c, 1, 36, 71
4, 65984, Note_on_c, 1, 36, 0
4, 66048, Note_on_c, 1, 35, 64
4, 66304, Note_on_c, 1, 46, 76
4, 66384, Note_on_c, 1, 35, 0
4, 66424, Note_on_c, 1, 46, 0
4, 66432, Note_on_c, 1, 47, 50
4, 66780, Note_on_c, 1, 47, 0
4, 66816, Note_on_c, 1, 39, 50
4, 67168, Note_on_c, 1, 39, 0
4, 67200, Note_on_c, 1, 40, 57
4, 67436, Note_on_c, 1, 40, 0
4, 67456, Note_on_c, 1, 39, 49
4, 67552, Note_on_c, 1, 39, 0
4, 67584, Note_on_c, 1, 40, 53
4, 67904, Note_on_c, 1, 40, 0
4, 67968, Note_on_c, 1, 35, 39
4, 68300, Note_on_c, 1, 35, 0
4, 68352, Note_on_c, 1, 31, 57
4, 68500, Note_on_c, 1, 31, 0
4, 68608, Note_on_c, 1, 31, 37
4, 68684, Note_on_c, 1, 31, 0
4, 68736, Note_on_c, 1, 32, 62
4, 69048, Note_on_c, 1, 32, 0
4, 69120, Note_on_c, 1, 33, 55
4, 69376, Note_on_c, 1, 46, 81
4, 69428, Note_on_c, 1, 33, 0
4, 69504, Note_on_c, 1, 46, 0
4, 69504, Note_on_c, 1, 45, 53
4, 69760, Note_on_c, 1, 33, 42
4, 69816, Note_on_c, 1, 45, 0
4, 69844, Note_on_c, 1, 33, 0
4, 69888, Note_on_c, 1, 40, 57
4, 70144, Note_on_c, 1, 33, 44
4, 70212, Note_on_c, 1, 33, 0
4, 70228, Note_on_c, 1, 40, 0
4, 70272, Note_on_c, 1, 38, 56
4, 70604, Note_on_c, 1, 38, 0
4, 70656, Note_on_c, 1, 37, 43
4, 70912, Note_on_c, 1, 32, 50
4, 70976, Note_on_c, 1, 32, 0
4, 70976, Note_on_c, 1, 37, 0
4, 71040, Note_on_c, 1, 34, 46
4, 71296, Note_on_c, 1, 32, 37
4, 71324, Note_on_c, 1, 34, 0
4, 71380, Note_on_c, 1, 32, 0
4, 71424, Note_on_c, 1, 33, 44
4, 71680, Note_on_c, 1, 32, 46
4, 71720, Note_on_c, 1, 33, 0
4, 71796, Note_on_c, 1, 32, 0
4, 71808, Note_on_c, 1, 40, 58
4, 72064, Note_on_c, 1, 32, 49
4, 72132, Note_on_c, 1, 40, 0
4, 72156, Note_on_c, 1, 32, 0
4, 72192, Note_on_c, 1, 38, 53
4, 72448, Note_on_c, 1, 34, 38
4, 72576, Note_on_c, 1, 34, 0
4, 72576, Note_on_c, 1, 50, 39
4, 72736, Note_on_c, 1, 38, 0
4, 72836, Note_on_c, 1, 50, 0
4, 72960, Note_on_c, 1, 50, 50
4, 73216, Note_on_c, 1, 37, 49
4, 73276, Note_on_c, 1, 50, 0
4, 73320, Note_on_c, 1, 37, 0
4, 73344, Note_on_c, 1, 38, 62
4, 73600, Note_on_c, 1, 37, 33
4, 73664, Note_on_c, 1, 37, 0
4, 73704, Note_on_c, 1, 38, 0
4, 73728, Note_on_c, 1, 50, 49
4, 74024, Note_on_c, 1, 50, 0
4, 74112, Note_on_c, 1, 50, 58
4, 74368, Note_on_c, 1, 38, 43
4, 74404, Note_on_c, 1, 50, 0
4, 74436, Note_on_c, 1, 38, 0
4, 74496, Note_on_c, 1, 49, 37
4, 74752, Note_on_c, 1, 38, 55
4, 74816, Note_on_c, 1, 38, 0
4, 74816, Note_on_c, 1, 49, 0
4, 74880, Note_on_c, 1, 37, 53
4, 75136, Note_on_c, 1, 34, 34
4, 75148, Note_on_c, 1, 37, 0
4, 75216, Note_on_c, 1, 34, 0
4, 75264, Note_on_c, 1, 36, 52
4, 75520, Note_on_c, 1, 34, 36
4, 75596, Note_on_c, 1, 36, 0
4, 75648, Note_on_c, 1, 45, 48
4, 75660, Note_on_c, 1, 34, 0
4, 75980, Note_on_c, 1, 45, 0
4, 76032, Note_on_c, 1, 43, 35
4, 76412, Note_on_c, 1, 43, 0
4, 76416, Note_on_c, 1, 35, 51
4, 76780, Note_on_c, 1, 35, 0
4, 76800, Note_on_c, 1, 36, 58
4, 77056, Note_on_c, 1, 50, 48
4, 77056, Note_on_c, 1, 48, 57
4, 77112, Note_on_c, 1, 36, 0
4, 77120, Note_on_c, 1, 48, 0
4, 77164, Note_on_c, 1, 50, 0
4, 77184, Note_on_c, 1, 48, 44
4, 77440, Note_on_c, 1, 36, 27
4, 77524, Note_on_c, 1, 36, 0
4, 77528, Note_on_c, 1, 48, 0
4, 77568, Note_on_c, 1, 43, 22
4, 77824, Note_on_c, 1, 36, 44
4, 77888, Note_on_c, 1, 36, 0
4, 77940, Note_on_c, 1, 43, 0
4, 77952, Note_on_c, 1, 40, 44
4, 78204, Note_on_c, 1, 40, 0
4, 78208, Note_on_c, 1, 35, 57
4, 78292, Note_on_c, 1, 35, 0
4, 78336, Note_on_c, 1, 36, 36
4, 78592, Note_on_c, 1, 35, 39
4, 78656, Note_on_c, 1, 36, 0
4, 78684, Note_on_c, 1, 35, 0
4, 78720, Note_on_c, 1, 38, 31
4, 79072, Note_on_c, 1, 38, 0
4, 79104, Note_on_c, 1, 39, 46
4, 79452, Note_on_c, 1, 39, 0
4, 79488, Note_on_c, 1, 40, 57
4, 79804, Note_on_c, 1, 40, 0
4, 79872, Note_on_c, 1, 41, 48
4, 80192, Note_on_c, 1, 41, 0
4, 80256, Note_on_c, 1, 42, 44
4, 80512, Note_on_c, 1, 36, 42
4, 80580, Note_on_c, 1, 36, 0
4, 80580, Note_on_c, 1, 42, 0
4, 80640, Note_on_c, 1, 43, 38
4, 80896, Note_on_c, 1, 36, 44
4, 80940, Note_on_c, 1, 43, 0
4, 80960, Note_on_c, 1, 36, 0
4, 81024, Note_on_c, 1, 44, 55
4, 81280, Note_on_c, 1, 38, 37
4, 81344, Note_on_c, 1, 38, 0
4, 81360, Note_on_c, 1, 44, 0
4, 81408, Note_on_c, 1, 43, 53
4, 81664, Note_on_c, 1, 38, 20
4, 81696, Note_on_c, 1, 43, 0
4, 81728, Note_on_c, 1, 38, 0
4, 81792, Note_on_c, 1, 47, 42
4, 82048, Note_on_c, 1, 38, 31
4, 82108, Note_on_c, 1, 47, 0
4, 82112, Note_on_c, 1, 38, 0
4, 82176, Note_on_c, 1, 50, 58
4, 82484, Note_on_c, 1, 50, 0
4, 82560, Note_on_c, 1, 45, 47
4, 82816, Note_on_c, 1, 38, 35
4, 82880, Note_on_c, 1, 38, 0
4, 82912, Note_on_c, 1, 45, 0
4, 82944, Note_on_c, 1, 43, 40
4, 83300, Note_on_c, 1, 43, 0
4, 83328, Note_on_c, 1, 40, 62
4, 83680, Note_on_c, 1, 40, 0
4, 83712, Note_on_c, 1, 38, 50
4, 84044, Note_on_c, 1, 38, 0
4, 84096, Note_on_c, 1, 35, 58
4, 84448, Note_on_c, 1, 35, 0
4, 84480, Note_on_c, 1, 34, 53
4, 84848, Note_on_c, 1, 34, 0
4, 84864, Note_on_c, 1, 40, 58
4, 85168, Note_on_c, 1, 40, 0
4, 85248, Note_on_c, 1, 38, 37
4, 85588, Note_on_c, 1, 38, 0
4, 85632, Note_on_c, 1, 34, 43
4, 85972, Note_on_c, 1, 34, 0
4, 86016, Note_on_c, 1, 39, 58
4, 86352, Note_on_c, 1, 39, 0
4, 86400, Note_on_c, 1, 34, 51
4, 86732, Note_on_c, 1, 34, 0
4, 86784, Note_on_c, 1, 31, 57
4, 87092, Note_on_c, 1, 31, 0
4, 87168, Note_on_c, 1, 32, 45
4, 87488, Note_on_c, 1, 32, 0
4, 87552, Note_on_c, 1, 33, 58
4, 87928, Note_on_c, 1, 33, 0
4, 87936, Note_on_c, 1, 45, 80
4, 88192, Note_on_c, 1, 32, 38
4, 88252, Note_on_c, 1, 45, 0
4, 88256, Note_on_c, 1, 32, 0
4, 88320, Note_on_c, 1, 40, 46
4, 88540, Note_on_c, 1, 40, 0
4, 88576, Note_on_c, 1, 39, 67
4, 88640, Note_on_c, 1, 39, 0
4, 88704, Note_on_c, 1, 37, 48
4, 89020, Note_on_c, 1, 37, 0
4, 89088, Note_on_c, 1, 38, 42
4, 89344, Note_on_c, 1, 37, 23
4, 89372, Note_on_c, 1, 38, 0
4, 89424, Note_on_c, 1, 37, 0
4, 89472, Note_on_c, 1, 50, 74
4, 89856, Note_on_c, 1, 45, 51
4, 89996, Note_on_c, 1, 45, 0
4, 90048, Note_on_c, 1, 50, 0
4, 90112, Note_on_c, 1, 38, 58
4, 90176, Note_on_c, 1, 38, 0
4, 90240, Note_on_c, 1, 38, 42
4, 90492, Note_on_c, 1, 38, 0
4, 90496, Note_on_c, 1, 36, 61
4, 90560, Note_on_c, 1, 36, 0
4, 90624, Note_on_c, 1, 42, 56
4, 90880, Note_on_c, 1, 36, 37
4, 90940, Note_on_c, 1, 42, 0
4, 90944, Note_on_c, 1, 36, 0
4, 91008, Note_on_c, 1, 40, 45
4, 91264, Note_on_c, 1, 34, 45
4, 91312, Note_on_c, 1, 40, 0
4, 91328, Note_on_c, 1, 34, 0
4, 91392, Note_on_c, 1, 35, 49
4, 91648, Note_on_c, 1, 34, 47
4, 91704, Note_on_c, 1, 35, 0
4, 91712, Note_on_c, 1, 34, 0
4, 91776, Note_on_c, 1, 39, 55
4, 92032, Note_on_c, 1, 35, 35
4, 92076, Note_on_c, 1, 39, 0
4, 92096, Note_on_c, 1, 35, 0
4, 92160, Note_on_c, 1, 40, 50
4, 92416, Note_on_c, 1, 35, 39
4, 92460, Note_on_c, 1, 40, 0
4, 92480, Note_on_c, 1, 35, 0
4, 92544, Note_on_c, 1, 47, 54
4, 92820, Note_on_c, 1, 47, 0
4, 92928, Note_on_c, 1, 40, 33
4, 93176, Note_on_c, 1, 40, 0
4, 93184, Note_on_c, 1, 35, 64
4, 93252, Note_on_c, 1, 35, 0
4, 93312, Note_on_c, 1, 34, 43
4, 93568, Note_on_c, 1, 32, 32
4, 93620, Note_on_c, 1, 34, 0
4, 93648, Note_on_c, 1, 32, 0
4, 93696, Note_on_c, 1, 33, 50
4, 94028, Note_on_c, 1, 33, 0
4, 94080, Note_on_c, 1, 35, 48
4, 94336, Note_on_c, 1, 33, 38
4, 94416, Note_on_c, 1, 35, 0
4, 94420, Note_on_c, 1, 33, 0
4, 94464, Note_on_c, 1, 36, 44
4, 94720, Note_on_c, 1, 32, 35
4, 94764, Note_on_c, 1, 36, 0
4, 94804, Note_on_c, 1, 32, 0
4, 94848, Note_on_c, 1, 37, 57
4, 95104, Note_on_c, 1, 32, 30
4, 95164, Note_on_c, 1, 37, 0
4, 95168, Note_on_c, 1, 32, 0
4, 95232, Note_on_c, 1, 38, 54
4, 95528, Note_on_c, 1, 38, 0
4, 95616, Note_on_c, 1, 40, 38
4, 95872, Note_on_c, 1, 32, 29
4, 95948, Note_on_c, 1, 32, 0
4, 95996, Note_on_c, 1, 40, 0
4, 96000, Note_on_c, 1, 41, 57
4, 96256, Note_on_c, 1, 32, 43
4, 96300, Note_on_c, 1, 41, 0
4, 96320, Note_on_c, 1, 32, 0
4, 96384, Note_on_c, 1, 42, 46
4, 96708, Note_on_c, 1, 42, 0
4, 96768, Note_on_c, 1, 43, 46
4, 97024, Note_on_c, 1, 38, 54
4, 97044, Note_on_c, 1, 43, 0
4, 97088, Note_on_c, 1, 38, 0
4, 97152, Note_on_c, 1, 38, 65
4, 97408, Note_on_c, 1, 50, 71
4, 97652, Note_on_c, 1, 38, 0
4, 97792, Note_on_c, 1, 38, 60
4, 97856, Note_on_c, 1, 38, 0
4, 97876, Note_on_c, 1, 50, 0
4, 97920, Note_on_c, 1, 38, 58
4, 98176, Note_on_c, 1, 50, 74
4, 98324, Note_on_c, 1, 38, 0
4, 98560, Note_on_c, 1, 38, 65
4, 98624, Note_on_c, 1, 38, 0
4, 98660, Note_on_c, 1, 50, 0
4, 98688, Note_on_c, 1, 38, 49
4, 98944, Note_on_c, 1, 49, 86
4, 98972, Note_on_c, 1, 38, 0
4, 99328, Note_on_c, 1, 37, 77
4, 99392, Note_on_c, 1, 37, 0
4, 99428, Note_on_c, 1, 49, 0
4, 99456, Note_on_c, 1, 35, 73
4, 99792, Note_on_c, 1, 35, 0
4, 99840, Note_on_c, 1, 36, 57
4, 100040, Note_on_c, 1, 36, 0
4, 100096, Note_on_c, 1, 36, 64
4, 100160, Note_on_c, 1, 36, 0
4, 100224, Note_on_c, 1, 38, 48
4, 100588, Note_on_c, 1, 38, 0
4, 100608, Note_on_c, 1, 40, 52
4, 100864, Note_on_c, 1, 35, 52
4, 100928, Note_on_c, 1, 35, 0
4, 100928, Note_on_c, 1, 40, 0
4, 100992, Note_on_c, 1, 45, 53
4, 101164, Note_on_c, 1, 45, 0
4, 101248, Note_on_c, 1, 45, 58
4, 101328, Note_on_c, 1, 45, 0
4, 101376, Note_on_c, 1, 43, 40
4, 101736, Note_on_c, 1, 43, 0
4, 101760, Note_on_c, 1, 35, 51
4, 102128, Note_on_c, 1, 35, 0
4, 102144, Note_on_c, 1, 36, 57
4, 102400, Note_on_c, 1, 35, 53
4, 102428, Note_on_c, 1, 36, 0
4, 102472, Note_on_c, 1, 35, 0
4, 102528, Note_on_c, 1, 40, 54
4, 102764, Note_on_c, 1, 40, 0
4, 102784, Note_on_c, 1, 35, 72
4, 102872, Note_on_c, 1, 35, 0
4, 102912, Note_on_c, 1, 36, 54
4, 103168, Note_on_c, 1, 35, 53
4, 103212, Note_on_c, 1, 36, 0
4, 103264, Note_on_c, 1, 35, 0
4, 103296, Note_on_c, 1, 38, 45
4, 103552, Note_on_c, 1, 35, 45
4, 103616, Note_on_c, 1, 35, 0
4, 103616, Note_on_c, 1, 38, 0
4, 103680, Note_on_c, 1, 39, 39
4, 103936, Note_on_c, 1, 35, 51
4, 104008, Note_on_c, 1, 35, 0
4, 104012, Note_on_c, 1, 39, 0
4, 104064, Note_on_c, 1, 42, 49
4, 104432, Note_on_c, 1, 42, 0
4, 104448, Note_on_c, 1, 41, 38
4, 104816, Note_on_c, 1, 41, 0
4, 104832, Note_on_c, 1, 30, 52
4, 105212, Note_on_c, 1, 30, 0
4, 105216, Note_on_c, 1, 29, 53
4, 105548, Note_on_c, 1, 29, 0
4, 105600, Note_on_c, 1, 30, 69
4, 105960, Note_on_c, 1, 30, 0
4, 105984, Note_on_c, 1, 31, 55
4, 106368, Note_on_c, 1, 33, 63
4, 106380, Note_on_c, 1, 31, 0
4, 106752, Note_on_c, 1, 35, 47
4, 106760, Note_on_c, 1, 33, 0
4, 107008, Note_on_c, 1, 33, 44
4, 107088, Note_on_c, 1, 35, 0
4, 107136, Note_on_c, 1, 33, 0
4, 107136, Note_on_c, 1, 45, 61
4, 107508, Note_on_c, 1, 45, 0
4, 107520, Note_on_c, 1, 43, 51
4, 107852, Note_on_c, 1, 43, 0
4, 107904, Note_on_c, 1, 50, 51
4, 108208, Note_on_c, 1, 50, 0
4, 108288, Note_on_c, 1, 47, 69
4, 108600, Note_on_c, 1, 47, 0
4, 108672, Note_on_c, 1, 43, 57
4, 109056, Note_on_c, 1, 46, 48
4, 109068, Note_on_c, 1, 43, 0
4, 109440, Note_on_c, 1, 41, 47
4, 109748, Note_on_c, 1, 41, 0
4, 109824, Note_on_c, 1, 34, 54
4, 109832, Note_on_c, 1, 46, 0
4, 110164, Note_on_c, 1, 34, 0
4, 110208, Note_on_c, 1, 38, 57
4, 110520, Note_on_c, 1, 38, 0
4, 110592, Note_on_c, 1, 39, 51
4, 110776, Note_on_c, 1, 39, 0
4, 110848, Note_on_c, 1, 39, 61
4, 110964, Note_on_c, 1, 39, 0
4, 110976, Note_on_c, 1, 37, 58
4, 111304, Note_on_c, 1, 37, 0
4, 111360, Note_on_c, 1, 36, 60
4, 111676, Note_on_c, 1, 36, 0
4, 111744, Note_on_c, 1, 34, 57
4, 112072, Note_on_c, 1, 34, 0
4, 112128, Note_on_c, 1, 33, 57
4, 112384, Note_on_c, 1, 40, 48
4, 112440, Note_on_c, 1, 33, 0
4, 112448, Note_on_c, 1, 40, 0
4, 112512, Note_on_c, 1, 47, 66
4, 112836, Note_on_c, 1, 47, 0
4, 112896, Note_on_c, 1, 40, 58
4, 113220, Note_on_c, 1, 40, 0
4, 113280, Note_on_c, 1, 39, 59
4, 113536, Note_on_c, 1, 37, 29
4, 113592, Note_on_c, 1, 39, 0
4, 113624, Note_on_c, 1, 37, 0
4, 113664, Note_on_c, 1, 38, 49
4, 113920, Note_on_c, 1, 37, 31
4, 113988, Note_on_c, 1, 38, 0
4, 114024, Note_on_c, 1, 37, 0
4, 114048, Note_on_c, 1, 50, 75
4, 114356, Note_on_c, 1, 50, 0
4, 114432, Note_on_c, 1, 50, 69
4, 114760, Note_on_c, 1, 50, 0
4, 114816, Note_on_c, 1, 48, 74
4, 115016, Note_on_c, 1, 48, 0
4, 115104, Pitch_bend_c, 1, 8192
4, 115104, Pitch_bend_c, 1, 8192
4, 115108, Pitch_bend_c, 1, 8192
4, 115112, Pitch_bend_c, 1, 7552
4, 115120, Pitch_bend_c, 1, 7296
4, 115124, Pitch_bend_c, 1, 6912
4, 115128, Pitch_bend_c, 1, 6528
4, 115136, Pitch_bend_c, 1, 6016
4, 115140, Pitch_bend_c, 1, 5504
4, 115148, Pitch_bend_c, 1, 4864
4, 115152, Pitch_bend_c, 1, 4608
4, 115156, Pitch_bend_c, 1, 4224
4, 115164, Pitch_bend_c, 1, 3840
4, 115168, Pitch_bend_c, 1, 3456
4, 115172, Pitch_bend_c, 1, 3200
4, 115180, Pitch_bend_c, 1, 2944
4, 115184, Pitch_bend_c, 1, 2688
4, 115192, Pitch_bend_c, 1, 2432
4, 115196, Pitch_bend_c, 1, 2304
4, 115200, Note_on_c, 1, 47, 83
4, 115204, Pitch_bend_c, 1, 2176
4, 115224, Pitch_bend_c, 1, 2048
4, 115244, Pitch_bend_c, 1, 1792
4, 115288, Pitch_bend_c, 1, 1920
4, 115296, Pitch_bend_c, 1, 2048
4, 115308, Pitch_bend_c, 1, 2304
4, 115320, Pitch_bend_c, 1, 2432
4, 115332, Pitch_bend_c, 1, 2688
4, 115340, Pitch_bend_c, 1, 2816
4, 115344, Pitch_bend_c, 1, 2944
4, 115348, Pitch_bend_c, 1, 3200
4, 115356, Pitch_bend_c, 1, 3584
4, 115360, Pitch_bend_c, 1, 3840
4, 115368, Pitch_bend_c, 1, 4352
4, 115372, Pitch_bend_c, 1, 4864
4, 115376, Pitch_bend_c, 1, 5376
4, 115384, Pitch_bend_c, 1, 5504
4, 115388, Pitch_bend_c, 1, 5632
4, 115404, Pitch_bend_c, 1, 5760
4, 115436, Pitch_bend_c, 1, 5888
4, 115448, Pitch_bend_c, 1, 6016
4, 115452, Pitch_bend_c, 1, 6144
4, 115460, Pitch_bend_c, 1, 6272
4, 115464, Pitch_bend_c, 1, 6528
4, 115468, Pitch_bend_c, 1, 6656
4, 115476, Pitch_bend_c, 1, 6912
4, 115480, Pitch_bend_c, 1, 7296
4, 115488, Pitch_bend_c, 1, 7552
4, 115492, Pitch_bend_c, 1, 8192
4, 115496, Pitch_bend_c, 1, 8192
4, 115584, Note_on_c, 1, 42, 57
4, 115592, Note_on_c, 1, 47, 0
4, 115968, Note_on_c, 1, 38, 38
4, 115976, Note_on_c, 1, 42, 0
4, 116256, Note_on_c, 1, 38, 0
4, 116352, Note_on_c, 1, 39, 45
4, 116608, Pitch_bend_c, 1, 8192
4, 116612, Pitch_bend_c, 1, 8192
4, 116612, Pitch_bend_c, 1, 8192
4, 116620, Pitch_bend_c, 1, 7552
4, 116624, Pitch_bend_c, 1, 7296
4, 116632, Pitch_bend_c, 1, 6912
4, 116636, Pitch_bend_c, 1, 6656
4, 116640, Pitch_bend_c, 1, 6272
4, 116648, Pitch_bend_c, 1, 5888
4, 116652, Pitch_bend_c, 1, 5632
4, 116656, Pitch_bend_c, 1, 5120
4, 116664, Note_on_c, 1, 39, 0
4, 116664, Pitch_bend_c, 1, 4992
4, 116668, Pitch_bend_c, 1, 4864
4, 116688, Pitch_bend_c, 1, 4608
4, 116708, Pitch_bend_c, 1, 4480
4, 116728, Pitch_bend_c, 1, 4736
4, 116732, Pitch_bend_c, 1, 5120
4, 116736, Note_on_c, 1, 40, 62
4, 116740, Pitch_bend_c, 1, 5504
4, 116744, Pitch_bend_c, 1, 5888
4, 116748, Pitch_bend_c, 1, 6272
4, 116756, Pitch_bend_c, 1, 6656
4, 116760, Pitch_bend_c, 1, 7040
4, 116768, Pitch_bend_c, 1, 7552
4, 116772, Pitch_bend_c, 1, 8192
4, 116776, Pitch_bend_c, 1, 8192
4, 117032, Note_on_c, 1, 40, 0
4, 117120, Note_on_c, 1, 38, 49
4, 117468, Note_on_c, 1, 38, 0
4, 117504, Note_on_c, 1, 35, 51
4, 117652, Note_on_c, 1, 35, 0
4, 117760, Note_on_c, 1, 34, 75
4, 117824, Note_on_c, 1, 34, 0
4, 117888, Note_on_c, 1, 34, 57
4, 117888, Note_on_c, 1, 32, 59
4, 117952, Note_on_c, 1, 34, 0
4, 118216, Note_on_c, 1, 32, 0
4, 118272, Note_on_c, 1, 33, 58
4, 118528, Note_on_c, 1, 32, 34
4, 118556, Note_on_c, 1, 33, 0
4, 118620, Note_on_c, 1, 32, 0
4, 118656, Note_on_c, 1, 35, 50
4, 118912, Note_on_c, 1, 32, 33
4, 118980, Note_on_c, 1, 35, 0
4, 119036, Note_on_c, 1, 32, 0
4, 119040, Note_on_c, 1, 36, 50
4, 119296, Note_on_c, 1, 33, 30
4, 119316, Note_on_c, 1, 36, 0
4, 119360, Note_on_c, 1, 33, 0
4, 119424, Note_on_c, 1, 37, 42
4, 119680, Note_on_c, 1, 33, 25
4, 119716, Note_on_c, 1, 37, 0
4, 119744, Note_on_c, 1, 33, 0
4, 119808, Note_on_c, 1, 40, 55
4, 120064, Note_on_c, 1, 33, 35
4, 120096, Note_on_c, 1, 40, 0
4, 120128, Note_on_c, 1, 33, 0
4, 120192, Note_on_c, 1, 49, 37
4, 120448, Note_on_c, 1, 33, 30
4, 120512, Note_on_c, 1, 33, 0
4, 120528, Note_on_c, 1, 49, 0
4, 120576, Note_on_c, 1, 45, 38
4, 120832, Note_on_c, 1, 37, 25
4, 120896, Note_on_c, 1, 37, 0
4, 120904, Note_on_c, 1, 45, 0
4, 120960, Note_on_c, 1, 52, 53
4, 121268, Note_on_c, 1, 52, 0
4, 121344, Note_on_c, 1, 50, 55
4, 121600, Note_on_c, 1, 37, 67
4, 121624, Note_on_c, 1, 50, 0
4, 121688, Note_on_c, 1, 37, 0
4, 121728, Note_on_c, 1, 38, 57
4, 121984, Note_on_c, 1, 37, 34
4, 122048, Note_on_c, 1, 37, 0
4, 122072, Note_on_c, 1, 38, 0
4, 122112, Note_on_c, 1, 50, 62
4, 122368, Note_on_c, 1, 37, 53
4, 122404, Note_on_c, 1, 50, 0
4, 122496, Note_on_c, 1, 38, 74
4, 122512, Note_on_c, 1, 37, 0
4, 122844, Note_on_c, 1, 38, 0
4, 122880, Note_on_c, 1, 50, 70
4, 123120, Note_on_c, 1, 50, 0
4, 123136, Note_on_c, 1, 37, 63
4, 123220, Note_on_c, 1, 37, 0
4, 123264, Note_on_c, 1, 38, 64
4, 123520, Note_on_c, 1, 49, 68
4, 123528, Note_on_c, 1, 38, 0
4, 123904, Note_on_c, 1, 37, 45
4, 123968, Note_on_c, 1, 37, 0
4, 124032, Note_on_c, 1, 35, 66
4, 124068, Note_on_c, 1, 49, 0
4, 124384, Note_on_c, 1, 35, 0
4, 124416, Note_on_c, 1, 36, 57
4, 124628, Note_on_c, 1, 36, 0
4, 124672, Note_on_c, 1, 36, 67
4, 124752, Note_on_c, 1, 36, 0
4, 124800, Note_on_c, 1, 38, 49
4, 125180, Note_on_c, 1, 38, 0
4, 125184, Note_on_c, 1, 40, 57
4, 125440, Note_on_c, 1, 35, 45
4, 125448, Note_on_c, 1, 40, 0
4, 125532, Note_on_c, 1, 35, 0
4, 125568, Note_on_c, 1, 45, 58
4, 125880, Note_on_c, 1, 45, 0
4, 125952, Note_on_c, 1, 43, 43
4, 126196, Note_on_c, 1, 43, 0
4, 126208, Note_on_c, 1, 35, 36
4, 126296, Note_on_c, 1, 35, 0
4, 126336, Note_on_c, 1, 50, 48
4, 126644, Note_on_c, 1, 50, 0
4, 126720, Note_on_c, 1, 48, 53
4, 126976, Note_on_c, 1, 37, 38
4, 127040, Note_on_c, 1, 37, 0
4, 127060, Note_on_c, 1, 48, 0
4, 127104, Note_on_c, 1, 43, 35
4, 127360, Note_on_c, 1, 34, 36
4, 127424, Note_on_c, 1, 34, 0
4, 127484, Note_on_c, 1, 43, 0
4, 127488, Note_on_c, 1, 39, 50
4, 127744, Note_on_c, 1, 35, 39
4, 127808, Note_on_c, 1, 35, 0
4, 127820, Note_on_c, 1, 39, 0
4, 127872, Note_on_c, 1, 38, 45
4, 128232, Note_on_c, 1, 38, 0
4, 128256, Note_on_c, 1, 36, 54
4, 128600, Note_on_c, 1, 36, 0
4, 128640, Note_on_c, 1, 30, 59
4, 128976, Note_on_c, 1, 30, 0
4, 129024, Note_on_c, 1, 29, 36
4, 129392, Note_on_c, 1, 29, 0
4, 129408, Note_on_c, 1, 41, 59
4, 129792, Note_on_c, 1, 30, 71
4, 129808, Note_on_c, 1, 41, 0
4, 130176, Note_on_c, 1, 42, 73
4, 130252, Note_on_c, 1, 30, 0
4, 130432, Note_on_c, 1, 30, 49
4, 130512, Note_on_c, 1, 30, 0
4, 130516, Note_on_c, 1, 42, 0
4, 130560, Note_on_c, 1, 31, 55
4, 130944, Note_on_c, 1, 45, 44
4, 131008, Note_on_c, 1, 31, 0
4, 131200, Note_on_c, 1, 31, 50
4, 131264, Note_on_c, 1, 31, 0
4, 131288, Note_on_c, 1, 45, 0
4, 131328, Note_on_c, 1, 43, 41
4, 131688, Note_on_c, 1, 43, 0
4, 131712, Note_on_c, 1, 37, 54
4, 132036, Note_on_c, 1, 37, 0
4, 132096, Note_on_c, 1, 38, 54
4, 132436, Note_on_c, 1, 38, 0
4, 132480, Note_on_c, 1, 35, 57
4, 132824, Note_on_c, 1, 35, 0
4, 132864, Note_on_c, 1, 31, 55
4, 133204, Note_on_c, 1, 31, 0
4, 133248, Note_on_c, 1, 33, 61
4, 133588, Note_on_c, 1, 33, 0
4, 133632, Note_on_c, 1, 34, 56
4, 133780, Note_on_c, 1, 34, 0
4, 133888, Note_on_c, 1, 34, 36
4, 133972, Note_on_c, 1, 34, 0
4, 134016, Note_on_c, 1, 36, 35
4, 134388, Note_on_c, 1, 36, 0
4, 134400, Note_on_c, 1, 37, 47
4, 134744, Note_on_c, 1, 37, 0
4, 134784, Note_on_c, 1, 38, 54
4, 135008, Note_on_c, 1, 38, 0
4, 135040, Note_on_c, 1, 40, 85
4, 135132, Note_on_c, 1, 40, 0
4, 135168, Note_on_c, 1, 39, 53
4, 135496, Note_on_c, 1, 39, 0
4, 135552, Note_on_c, 1, 34, 51
4, 135840, Note_on_c, 1, 34, 0
4, 135936, Note_on_c, 1, 31, 60
4, 136268, Note_on_c, 1, 31, 0
4, 136320, Note_on_c, 1, 34, 52
4, 136548, Note_on_c, 1, 34, 0
4, 136576, Note_on_c, 1, 32, 56
4, 136660, Note_on_c, 1, 32, 0
4, 136704, Note_on_c, 1, 33, 54
4, 136960, Note_on_c, 1, 32, 56
4, 137000, Note_on_c, 1, 33, 0
4, 137064, Note_on_c, 1, 32, 0
4, 137088, Note_on_c, 1, 47, 83
4, 137372, Note_on_c, 1, 47, 0
4, 137472, Note_on_c, 1, 40, 55
4, 137728, Note_on_c, 1, 36, 44
4, 137764, Note_on_c, 1, 40, 0
4, 137792, Note_on_c, 1, 36, 0
4, 137856, Note_on_c, 1, 39, 38
4, 138112, Note_on_c, 1, 37, 38
4, 138136, Note_on_c, 1, 39, 0
4, 138180, Note_on_c, 1, 37, 0
4, 138240, Note_on_c, 1, 38, 36
4, 138496, Note_on_c, 1, 37, 34
4, 138532, Note_on_c, 1, 38, 0
4, 138596, Note_on_c, 1, 37, 0
4, 138624, Note_on_c, 1, 50, 82
4, 138880, Note_on_c, 1, 37, 25
4, 138928, Note_on_c, 1, 50, 0
4, 138944, Note_on_c, 1, 37, 0
4, 139008, Note_on_c, 1, 45, 54
4, 139172, Note_on_c, 1, 45, 0
4, 139264, Note_on_c, 1, 42, 56
4, 139328, Note_on_c, 1, 42, 0
4, 139392, Note_on_c, 1, 38, 67
4, 139716, Note_on_c, 1, 38, 0
4, 139776, Note_on_c, 1, 35, 58
4, 140148, Note_on_c, 1, 35, 0
4, 140160, Note_on_c, 1, 47, 85
4, 140480, Note_on_c, 1, 47, 0
4, 140544, Note_on_c, 1, 42, 50
4, 140800, Note_on_c, 1, 35, 48
4, 140832, Note_on_c, 1, 42, 0
4, 140864, Note_on_c, 1, 35, 0
4, 140928, Note_on_c, 1, 39, 52
4, 141156, Note_on_c, 1, 39, 0
4, 141184, Note_on_c, 1, 40, 74
4, 141568, Note_on_c, 1, 35, 65
4, 141632, Note_on_c, 1, 35, 0
4, 141640, Note_on_c, 1, 40, 0
4, 141696, Note_on_c, 1, 34, 67
4, 141696, Note_on_c, 1, 35, 58
4, 141784, Note_on_c, 1, 35, 0
4, 142004, Note_on_c, 1, 34, 0
4, 142080, Note_on_c, 1, 34, 63
4, 142284, Note_on_c, 1, 34, 0
4, 142336, Note_on_c, 1, 31, 40
4, 142448, Note_on_c, 1, 31, 0
4, 142464, Note_on_c, 1, 32, 62
4, 142780, Note_on_c, 1, 32, 0
4, 142848, Note_on_c, 1, 33, 58
4, 143104, Note_on_c, 1, 45, 96
4, 143620, Note_on_c, 1, 33, 0
4, 143872, Note_on_c, 1, 40, 68
4, 143964, Note_on_c, 1, 40, 0
4, 143980, Note_on_c, 1, 45, 0
4, 144000, Note_on_c, 1, 39, 52
4, 144256, Note_on_c, 1, 38, 80
4, 144272, Note_on_c, 1, 39, 0
4, 144640, Note_on_c, 1, 50, 91
4, 144704, Note_on_c, 1, 38, 0
4, 145408, Note_on_c, 1, 38, 49
4, 145472, Note_on_c, 1, 38, 0
4, 145508, Note_on_c, 1, 50, 0
4, 145536, Note_on_c, 1, 38, 78
4, 145784, Note_on_c, 1, 38, 0
4, 145792, Note_on_c, 1, 38, 62
4, 146176, Note_on_c, 1, 50, 87
4, 146420, Note_on_c, 1, 38, 0
4, 147072, Note_on_c, 1, 38, 89
4, 147120, Note_on_c, 1, 50, 0
4, 147712, Note_on_c, 1, 37, 53
4, 147808, Note_on_c, 1, 37, 0
4, 147836, Note_on_c, 1, 38, 0
4, 147840, Note_on_c, 1, 49, 85
4, 148480, Note_on_c, 1, 37, 63
4, 148544, Note_on_c, 1, 37, 0
4, 148608, Note_on_c, 1, 35, 62
4, 148612, Note_on_c, 1, 49, 0
4, 148980, Note_on_c, 1, 35, 0
4, 148992, Note_on_c, 1, 36, 58
4, 149352, Note_on_c, 1, 36, 0
4, 149376, Note_on_c, 1, 38, 58
4, 149756, Note_on_c, 1, 38, 0
4, 149760, Note_on_c, 1, 40, 43
4, 150016, Note_on_c, 1, 35, 47
4, 150080, Note_on_c, 1, 35, 0
4, 150096, Note_on_c, 1, 40, 0
4, 150144, Note_on_c, 1, 43, 51
4, 150488, Note_on_c, 1, 43, 0
4, 150528, Note_on_c, 1, 45, 51
4, 150868, Note_on_c, 1, 45, 0
4, 150912, Note_on_c, 1, 43, 44
4, 151260, Note_on_c, 1, 43, 0
4, 151296, Note_on_c, 1, 40, 45
4, 151676, Note_on_c, 1, 40, 0
4, 151680, Note_on_c, 1, 35, 62
4, 152056, Note_on_c, 1, 35, 0
4, 152064, Note_on_c, 1, 36, 65
4, 152260, Note_on_c, 1, 36, 0
4, 152320, Note_on_c, 1, 36, 63
4, 152400, Note_on_c, 1, 36, 0
4, 152448, Note_on_c, 1, 38, 37
4, 152832, Note_on_c, 1, 39, 45
4, 152844, Note_on_c, 1, 38, 0
4, 153212, Note_on_c, 1, 39, 0
4, 153216, Note_on_c, 1, 40, 41
4, 153564, Note_on_c, 1, 40, 0
4, 153600, Note_on_c, 1, 41, 42
4, 153928, Note_on_c, 1, 41, 0
4, 153984, Note_on_c, 1, 45, 46
4, 154284, Note_on_c, 1, 45, 0
4, 154368, Note_on_c, 1, 51, 60
4, 154696, Note_on_c, 1, 51, 0
4, 154752, Note_on_c, 1, 46, 48
4, 155008, Note_on_c, 1, 50, 71
4, 155036, Note_on_c, 1, 46, 0
4, 155436, Note_on_c, 1, 50, 0
4, 155520, Note_on_c, 1, 43, 54
4, 155848, Note_on_c, 1, 43, 0
4, 155904, Note_on_c, 1, 38, 40
4, 156284, Note_on_c, 1, 38, 0
4, 156288, Note_on_c, 1, 35, 55
4, 156644, Note_on_c, 1, 35, 0
4, 156672, Note_on_c, 1, 31, 54
4, 157048, Note_on_c, 1, 31, 0
4, 157056, Note_on_c, 1, 38, 66
4, 157396, Note_on_c, 1, 38, 0
4, 157440, Note_on_c, 1, 43, 55
4, 157696, Note_on_c, 1, 35, 65
4, 157736, Note_on_c, 1, 43, 0
4, 157760, Note_on_c, 1, 35, 0
4, 157824, Note_on_c, 1, 33, 57
4, 158172, Note_on_c, 1, 33, 0
4, 158208, Note_on_c, 1, 34, 53
4, 158592, Note_on_c, 1, 36, 64
4, 158604, Note_on_c, 1, 34, 0
4, 158960, Note_on_c, 1, 36, 0
4, 158976, Note_on_c, 1, 37, 53
4, 159360, Note_on_c, 1, 38, 58
4, 159380, Note_on_c, 1, 37, 0
4, 159616, Note_on_c, 1, 37, 39
4, 159680, Note_on_c, 1, 37, 0
4, 159744, Note_on_c, 1, 39, 54
4, 159748, Note_on_c, 1, 38, 0
4, 160096, Note_on_c, 1, 39, 0
4, 160128, Note_on_c, 1, 41, 51
4, 160384, Note_on_c, 1, 39, 23
4, 160464, Note_on_c, 1, 39, 0
4, 160472, Note_on_c, 1, 41, 0
4, 160512, Note_on_c, 1, 43, 52
4, 160768, Note_on_c, 1, 39, 33
4, 160832, Note_on_c, 1, 39, 0
4, 160872, Note_on_c, 1, 43, 0
4, 160896, Note_on_c, 1, 44, 44
4, 161252, Note_on_c, 1, 44, 0
4, 161280, Note_on_c, 1, 45, 50
4, 161536, Note_on_c, 1, 40, 40
4, 161600, Note_on_c, 1, 40, 0
4, 161624, Note_on_c, 1, 45, 0
4, 161664, Note_on_c, 1, 52, 62
4, 162008, Note_on_c, 1, 52, 0
4, 162048, Note_on_c, 1, 45, 45
4, 162280, Note_on_c, 1, 45, 0
4, 162304, Note_on_c, 1, 40, 57
4, 162392, Note_on_c, 1, 40, 0
4, 162432, Note_on_c, 1, 39, 52
4, 162688, Note_on_c, 1, 37, 20
4, 162760, Note_on_c, 1, 39, 0
4, 162776, Note_on_c, 1, 37, 0
4, 162816, Note_on_c, 1, 38, 49
4, 162944, Note_on_c, 1, 54, 65
4, 163056, Note_on_c, 1, 54, 0
4, 163072, Note_on_c, 1, 52, 25
4, 163148, Note_on_c, 1, 52, 0
4, 163200, Note_on_c, 1, 54, 57
4, 163456, Note_on_c, 1, 37, 21
4, 163532, Note_on_c, 1, 38, 0
4, 163540, Note_on_c, 1, 54, 0
4, 163560, Note_on_c, 1, 37, 0
4, 163584, Note_on_c, 1, 47, 54
4, 163816, Note_on_c, 1, 47, 0
4, 163840, Note_on_c, 1, 38, 71
4, 163904, Note_on_c, 1, 38, 0
4, 163968, Note_on_c, 1, 36, 70
4, 164296, Note_on_c, 1, 36, 0
4, 164352, Note_on_c, 1, 35, 56
4, 164736, Note_on_c, 1, 47, 69
4, 164764, Note_on_c, 1, 35, 0
4, 165056, Note_on_c, 1, 47, 0
4, 165120, Note_on_c, 1, 42, 49
4, 165376, Note_on_c, 1, 42, 0
4, 165376, Note_on_c, 1, 38, 60
4, 165452, Note_on_c, 1, 38, 0
4, 165504, Note_on_c, 1, 39, 61
4, 165856, Note_on_c, 1, 39, 0
4, 165888, Note_on_c, 1, 40, 57
4, 166144, Note_on_c, 1, 52, 88
4, 166156, Note_on_c, 1, 40, 0
4, 166220, Note_on_c, 1, 52, 0
4, 166272, Note_on_c, 1, 47, 15
4, 166528, Note_on_c, 1, 40, 22
4, 166528, Note_on_c, 1, 37, 27
4, 166592, Note_on_c, 1, 37, 0
4, 166592, Note_on_c, 1, 40, 0
4, 166608, Note_on_c, 1, 47, 0
4, 166656, Note_on_c, 1, 43, 52
4, 166884, Note_on_c, 1, 43, 0
4, 166912, Note_on_c, 1, 35, 59
4, 166988, Note_on_c, 1, 35, 0
4, 167040, Note_on_c, 1, 34, 50
4, 167296, Note_on_c, 1, 32, 37
4, 167340, Note_on_c, 1, 34, 0
4, 167376, Note_on_c, 1, 32, 0
4, 167424, Note_on_c, 1, 33, 52
4, 167636, Note_on_c, 1, 33, 0
4, 167680, Note_on_c, 1, 33, 62
4, 167768, Note_on_c, 1, 33, 0
4, 167808, Note_on_c, 1, 35, 58
4, 168064, Note_on_c, 1, 32, 19
4, 168148, Note_on_c, 1, 32, 0
4, 168168, Note_on_c, 1, 35, 0
4, 168192, Note_on_c, 1, 36, 50
4, 168448, Note_on_c, 1, 32, 40
4, 168512, Note_on_c, 1, 32, 0
4, 168576, Note_on_c, 1, 37, 52
4, 168588, Note_on_c, 1, 36, 0
4, 168832, Note_on_c, 1, 32, 37
4, 168904, Note_on_c, 1, 37, 0
4, 168924, Note_on_c, 1, 32, 0
4, 168960, Note_on_c, 1, 40, 48
4, 169216, Note_on_c, 1, 34, 36
4, 169260, Note_on_c, 1, 40, 0
4, 169280, Note_on_c, 1, 34, 0
4, 169344, Note_on_c, 1, 46, 46
4, 169672, Note_on_c, 1, 46, 0
4, 169728, Note_on_c, 1, 45, 49
4, 169984, Note_on_c, 1, 40, 38
4, 170044, Note_on_c, 1, 45, 0
4, 170048, Note_on_c, 1, 40, 0
4, 170112, Note_on_c, 1, 54, 37
4, 170368, Note_on_c, 1, 40, 51
4, 170424, Note_on_c, 1, 54, 0
4, 170432, Note_on_c, 1, 40, 0
4, 170496, Note_on_c, 1, 52, 56
4, 170796, Note_on_c, 1, 52, 0
4, 170880, Note_on_c, 1, 49, 48
4, 171264, Note_on_c, 1, 45, 45
4, 171440, Note_on_c, 1, 49, 0
4, 171484, Note_on_c, 1, 45, 0
4, 171520, Note_on_c, 1, 40, 51
4, 171604, Note_on_c, 1, 40, 0
4, 171648, Note_on_c, 1, 39, 57
4, 171904, Note_on_c, 1, 37, 23
4, 171936, Note_on_c, 1, 39, 0
4, 171968, Note_on_c, 1, 37, 0
4, 172032, Note_on_c, 1, 38, 46
4, 172416, Note_on_c, 1, 50, 60
4, 172704, Note_on_c, 1, 50, 0
4, 172800, Note_on_c, 1, 50, 52
4, 172840, Note_on_c, 1, 38, 0
4, 173056, Note_on_c, 1, 38, 53
4, 173104, Note_on_c, 1, 50, 0
4, 173120, Note_on_c, 1, 38, 0
4, 173184, Note_on_c, 1, 49, 47
4, 173440, Note_on_c, 1, 37, 44
4, 173488, Note_on_c, 1, 49, 0
4, 173524, Note_on_c, 1, 37, 0
4, 173568, Note_on_c, 1, 36, 46
4, 173824, Note_on_c, 1, 34, 28
4, 173880, Note_on_c, 1, 36, 0
4, 173940, Note_on_c, 1, 34, 0
4, 173952, Note_on_c, 1, 48, 57
4, 174268, Note_on_c, 1, 48, 0
4, 174336, Note_on_c, 1, 47, 51
4, 174592, Note_on_c, 1, 38, 37
4, 174624, Note_on_c, 1, 47, 0
4, 174656, Note_on_c, 1, 38, 0
4, 174720, Note_on_c, 1, 43, 42
4, 175028, Note_on_c, 1, 43, 0
4, 175104, Note_on_c, 1, 38, 13
4, 175384, Note_on_c, 1, 38, 0
4, 175488, Note_on_c, 1, 38, 32
4, 175768, Note_on_c, 1, 38, 0
4, 175872, Note_on_c, 1, 36, 63
4, 176120, Note_on_c, 1, 36, 0
4, 176256, Note_on_c, 1, 35, 43
4, 176500, Note_on_c, 1, 35, 0
4, 176512, Note_on_c, 1, 36, 48
4, 176896, Note_on_c, 1, 34, 50
4, 176960, Note_on_c, 1, 34, 0
4, 177024, Note_on_c, 1, 38, 50
4, 177060, Note_on_c, 1, 36, 0
4, 177312, Note_on_c, 1, 38, 0
4, 177408, Note_on_c, 1, 39, 38
4, 177664, Note_on_c, 1, 36, 36
4, 177748, Note_on_c, 1, 36, 0
4, 177748, Note_on_c, 1, 39, 0
4, 177792, Note_on_c, 1, 40, 49
4, 178116, Note_on_c, 1, 40, 0
4, 178176, Note_on_c, 1, 41, 38
4, 178432, Note_on_c, 1, 36, 34
4, 178488, Note_on_c, 1, 41, 0
4, 178496, Note_on_c, 1, 36, 0
4, 178560, Note_on_c, 1, 50, 46
4, 178872, Note_on_c, 1, 50, 0
4, 178944, Note_on_c, 1, 48, 54
4, 179116, Note_on_c, 1, 48, 0
4, 179200, Note_on_c, 1, 45, 62
4, 179200, Note_on_c, 1, 38, 35
4, 179264, Note_on_c, 1, 38, 0
4, 179264, Note_on_c, 1, 45, 0
4, 179328, Note_on_c, 1, 44, 32
4, 179664, Note_on_c, 1, 44, 0
4, 179712, Note_on_c, 1, 43, 46
4, 179968, Note_on_c, 1, 34, 63
4, 180000, Note_on_c, 1, 43, 0
4, 180032, Note_on_c, 1, 34, 0
4, 180096, Note_on_c, 1, 35, 43
4, 180400, Note_on_c, 1, 35, 0
4, 180480, Note_on_c, 1, 40, 46
4, 180780, Note_on_c, 1, 40, 0
4, 180864, Note_on_c, 1, 38, 56
4, 181216, Note_on_c, 1, 38, 0
4, 181248, Note_on_c, 1, 35, 57
4, 181560, Note_on_c, 1, 35, 0
4, 181632, Note_on_c, 1, 30, 62
4, 181960, Note_on_c, 1, 30, 0
4, 182016, Note_on_c, 1, 31, 58
4, 182372, Note_on_c, 1, 31, 0
4, 182400, Note_on_c, 1, 33, 64
4, 182752, Note_on_c, 1, 33, 0
4, 182784, Note_on_c, 1, 34, 64
4, 183128, Note_on_c, 1, 34, 0
4, 183168, Note_on_c, 1, 36, 60
4, 183424, Note_on_c, 1, 34, 26
4, 183512, Note_on_c, 1, 36, 0
4, 183516, Note_on_c, 1, 34, 0
4, 183552, Note_on_c, 1, 37, 58
4, 183808, Note_on_c, 1, 34, 18
4, 183888, Note_on_c, 1, 34, 0
4, 183936, Note_on_c, 1, 37, 0
4, 183936, Note_on_c, 1, 38, 57
4, 184192, Note_on_c, 1, 34, 21
4, 184272, Note_on_c, 1, 34, 0
4, 184320, Note_on_c, 1, 39, 61
4, 184344, Note_on_c, 1, 38, 0
4, 184576, Note_on_c, 1, 34, 25
4, 184696, Note_on_c, 1, 39, 0
4, 184704, Note_on_c, 1, 41, 44
4, 184728, Note_on_c, 1, 34, 0
4, 185064, Note_on_c, 1, 41, 0
4, 185088, Note_on_c, 1, 43, 47
4, 185344, Note_on_c, 1, 46, 70
4, 185344, Note_on_c, 1, 39, 25
4, 185348, Note_on_c, 1, 43, 0
4, 185460, Note_on_c, 1, 46, 0
4, 185472, Note_on_c, 1, 44, 31
4, 185496, Note_on_c, 1, 39, 0
4, 185712, Note_on_c, 1, 44, 0
4, 185728, Note_on_c, 1, 45, 75
4, 185840, Note_on_c, 1, 45, 0
4, 185856, Note_on_c, 1, 45, 49
4, 186176, Note_on_c, 1, 45, 0
4, 186240, Note_on_c, 1, 40, 34
4, 186580, Note_on_c, 1, 40, 0
4, 186624, Note_on_c, 1, 36, 47
4, 186984, Note_on_c, 1, 36, 0
4, 187008, Note_on_c, 1, 40, 53
4, 187072, Note_on_c, 1, 40, 0
4, 187264, Note_on_c, 1, 39, 58
4, 187352, Note_on_c, 1, 39, 0
4, 187392, Note_on_c, 1, 38, 37
4, 187720, Note_on_c, 1, 38, 0
4, 187776, Note_on_c, 1, 38, 64
4, 188120, Note_on_c, 1, 38, 0
4, 188160, Note_on_c, 1, 36, 57
4, 188492, Note_on_c, 1, 36, 0
4, 188544, Note_on_c, 1, 31, 62
4, 188908, Note_on_c, 1, 31, 0
4, 188928, Note_on_c, 1, 30, 59
4, 189184, Note_on_c, 1, 42, 68
4, 189248, Note_on_c, 1, 42, 0
4, 189300, Note_on_c, 1, 30, 0
4, 189312, Note_on_c, 1, 46, 69
4, 189568, Note_on_c, 1, 30, 35
4, 189624, Note_on_c, 1, 46, 0
4, 189632, Note_on_c, 1, 30, 0
4, 189696, Note_on_c, 1, 47, 63
4, 189936, Note_on_c, 1, 47, 0
4, 189952, Note_on_c, 1, 34, 37
4, 190016, Note_on_c, 1, 34, 0
4, 190080, Note_on_c, 1, 39, 62
4, 190296, Note_on_c, 1, 39, 0
4, 190336, Note_on_c, 1, 40, 65
4, 190720, Note_on_c, 1, 35, 20
4, 190784, Note_on_c, 1, 35, 0
4, 190792, Note_on_c, 1, 40, 0
4, 190848, Note_on_c, 1, 42, 55
4, 191188, Note_on_c, 1, 42, 0
4, 191232, Note_on_c, 1, 43, 54
4, 191616, Note_on_c, 1, 44, 60
4, 191624, Note_on_c, 1, 43, 0
4, 191968, Note_on_c, 1, 44, 0
4, 192000, Note_on_c, 1, 45, 64
4, 192064, Note_on_c, 1, 45, 0
4, 192256, Note_on_c, 1, 35, 64
4, 192328, Note_on_c, 1, 35, 0
4, 192384, Note_on_c, 1, 34, 39
4, 192640, Note_on_c, 1, 32, 32
4, 192688, Note_on_c, 1, 34, 0
4, 192712, Note_on_c, 1, 32, 0
4, 192768, Note_on_c, 1, 33, 42
4, 193140, Note_on_c, 1, 33, 0
4, 193152, Note_on_c, 1, 45, 79
4, 193360, Note_on_c, 1, 45, 0
4, 193408, Note_on_c, 1, 44, 33
4, 193472, Note_on_c, 1, 44, 0
4, 193536, Note_on_c, 1, 45, 39
4, 193792, Note_on_c, 1, 40, 45
4, 193824, Note_on_c, 1, 45, 0
4, 193872, Note_on_c, 1, 40, 0
4, 193920, Note_on_c, 1, 39, 49
4, 194236, Note_on_c, 1, 39, 0
4, 194304, Note_on_c, 1, 38, 53
4, 194508, Note_on_c, 1, 38, 0
4, 194560, Note_on_c, 1, 33, 65
4, 194624, Note_on_c, 1, 33, 0
4, 194688, Note_on_c, 1, 32, 64
4, 194876, Note_on_c, 1, 32, 0
4, 194944, Note_on_c, 1, 31, 82
4, 195008, Note_on_c, 1, 31, 0
4, 195328, Note_on_c, 1, 35, 101
4, 195792, Note_on_c, 1, 35, 0
4, 195840, Note_on_c, 1, 36, 59
4, 195992, Note_on_c, 1, 36, 0
4, 196224, Note_on_c, 1, 37, 44
4, 196340, Note_on_c, 1, 37, 0
4, 196608, Note_on_c, 1, 38, 53
4, 196804, Note_on_c, 1, 38, 0
4, 196992, Note_on_c, 1, 32, 40
4, 197220, Note_on_c, 1, 32, 0
4, 197248, Note_on_c, 1, 31, 63
4, 199592, Note_on_c, 1, 31, 0
4, 199592, End_track
5, 0, Start_track
5, 0, Title_t, " Cymbals "
5, 0, Note_on_c, 9, 24, 34
5, 120, Note_on_c, 9, 24, 0
5, 384, Note_on_c, 9, 24, 36
5, 496, Note_on_c, 9, 24, 0
5, 50616, Program_c, 9, 0
5, 51072, Note_on_c, 9, 44, 52
5, 51072, Note_on_c, 9, 51, 83
5, 51136, Note_on_c, 9, 51, 0
5, 51208, Note_on_c, 9, 44, 0
5, 51328, Note_on_c, 9, 51, 47
5, 51392, Note_on_c, 9, 51, 0
5, 51456, Note_on_c, 9, 51, 48
5, 51624, Note_on_c, 9, 51, 0
5, 51840, Note_on_c, 9, 51, 73
5, 51840, Note_on_c, 9, 44, 56
5, 51952, Note_on_c, 9, 44, 0
5, 51988, Note_on_c, 9, 51, 0
5, 52224, Note_on_c, 9, 51, 75
5, 52296, Note_on_c, 9, 51, 0
5, 52480, Note_on_c, 9, 53, 71
5, 52544, Note_on_c, 9, 53, 0
5, 52608, Note_on_c, 9, 51, 40
5, 52608, Note_on_c, 9, 44, 48
5, 52752, Note_on_c, 9, 44, 0
5, 52852, Note_on_c, 9, 51, 0
5, 52992, Note_on_c, 9, 51, 55
5, 53176, Note_on_c, 9, 51, 0
5, 53376, Note_on_c, 9, 51, 57
5, 53376, Note_on_c, 9, 44, 52
5, 53520, Note_on_c, 9, 44, 0
5, 53556, Note_on_c, 9, 51, 0
5, 53632, Note_on_c, 9, 59, 63
5, 53696, Note_on_c, 9, 59, 0
5, 53760, Note_on_c, 9, 51, 40
5, 53964, Note_on_c, 9, 51, 0
5, 54144, Note_on_c, 9, 51, 56
5, 54144, Note_on_c, 9, 44, 57
5, 54264, Note_on_c, 9, 44, 0
5, 54328, Note_on_c, 9, 51, 0
5, 54528, Note_on_c, 9, 51, 59
5, 54708, Note_on_c, 9, 51, 0
5, 54912, Note_on_c, 9, 51, 62
5, 54912, Note_on_c, 9, 44, 55
5, 55016, Note_on_c, 9, 51, 0
5, 55080, Note_on_c, 9, 44, 0
5, 55168, Note_on_c, 9, 51, 53
5, 55232, Note_on_c, 9, 51, 0
5, 55296, Note_on_c, 9, 51, 42
5, 55484, Note_on_c, 9, 51, 0
5, 55680, Note_on_c, 9, 51, 64
5, 55680, Note_on_c, 9, 44, 56
5, 55796, Note_on_c, 9, 51, 0
5, 55840, Note_on_c, 9, 44, 0
5, 55936, Note_on_c, 9, 51, 39
5, 56000, Note_on_c, 9, 51, 0
5, 56064, Note_on_c, 9, 51, 52
5, 56128, Note_on_c, 9, 51, 0
5, 56448, Note_on_c, 9, 51, 67
5, 56448, Note_on_c, 9, 46, 40
5, 56512, Note_on_c, 9, 51, 0
5, 56560, Note_on_c, 9, 46, 0
5, 56832, Note_on_c, 9, 51, 57
5, 56896, Note_on_c, 9, 51, 0
5, 57088, Note_on_c, 9, 51, 36
5, 57152, Note_on_c, 9, 51, 0
5, 57216, Note_on_c, 9, 51, 64
5, 57216, Note_on_c, 9, 44, 40
5, 57384, Note_on_c, 9, 44, 0
5, 57444, Note_on_c, 9, 51, 0
5, 57600, Note_on_c, 9, 51, 63
5, 57760, Note_on_c, 9, 51, 0
5, 57984, Note_on_c, 9, 51, 71
5, 57984, Note_on_c, 9, 44, 47
5, 58048, Note_on_c, 9, 51, 0
5, 58136, Note_on_c, 9, 44, 0
5, 58240, Note_on_c, 9, 51, 46
5, 58304, Note_on_c, 9, 51, 0
5, 58368, Note_on_c, 9, 51, 62
5, 58588, Note_on_c, 9, 51, 0
5, 58752, Note_on_c, 9, 51, 73
5, 58752, Note_on_c, 9, 44, 52
5, 58872, Note_on_c, 9, 44, 0
5, 58972, Note_on_c, 9, 51, 0
5, 59136, Note_on_c, 9, 51, 72
5, 59368, Note_on_c, 9, 51, 0
5, 59392, Note_on_c, 9, 51, 56
5, 59456, Note_on_c, 9, 51, 0
5, 59520, Note_on_c, 9, 51, 68
5, 59520, Note_on_c, 9, 44, 51
5, 59640, Note_on_c, 9, 44, 0
5, 59740, Note_on_c, 9, 51, 0
5, 59904, Note_on_c, 9, 51, 72
5, 60076, Note_on_c, 9, 51, 0
5, 60288, Note_on_c, 9, 51, 69
5, 60288, Note_on_c, 9, 44, 46
5, 60424, Note_on_c, 9, 44, 0
5, 60468, Note_on_c, 9, 51, 0
5, 60672, Note_on_c, 9, 51, 70
5, 60900, Note_on_c, 9, 51, 0
5, 60928, Note_on_c, 9, 59, 71
5, 60992, Note_on_c, 9, 59, 0
5, 61056, Note_on_c, 9, 51, 45
5, 61056, Note_on_c, 9, 44, 56
5, 61192, Note_on_c, 9, 44, 0
5, 61316, Note_on_c, 9, 51, 0
5, 61440, Note_on_c, 9, 51, 62
5, 61632, Note_on_c, 9, 51, 0
5, 61696, Note_on_c, 9, 53, 74
5, 61764, Note_on_c, 9, 53, 0
5, 61824, Note_on_c, 9, 44, 46
5, 61824, Note_on_c, 9, 51, 25
5, 61976, Note_on_c, 9, 44, 0
5, 62064, Note_on_c, 9, 51, 0
5, 62208, Note_on_c, 9, 51, 48
5, 62416, Note_on_c, 9, 51, 0
5, 62464, Note_on_c, 9, 53, 69
5, 62528, Note_on_c, 9, 53, 0
5, 62592, Note_on_c, 9, 44, 50
5, 62592, Note_on_c, 9, 51, 7
5, 62692, Note_on_c, 9, 51, 0
5, 62720, Note_on_c, 9, 44, 0
5, 62848, Note_on_c, 9, 53, 77
5, 62924, Note_on_c, 9, 53, 0
5, 62976, Note_on_c, 9, 51, 29
5, 63216, Note_on_c, 9, 51, 0
5, 63360, Note_on_c, 9, 51, 51
5, 63360, Note_on_c, 9, 44, 51
5, 63448, Note_on_c, 9, 44, 0
5, 63520, Note_on_c, 9, 51, 0
5, 63744, Note_on_c, 9, 51, 69
5, 63908, Note_on_c, 9, 51, 0
5, 64128, Note_on_c, 9, 44, 67
5, 64128, Note_on_c, 9, 51, 65
5, 64216, Note_on_c, 9, 44, 0
5, 64260, Note_on_c, 9, 51, 0
5, 64384, Note_on_c, 9, 51, 48
5, 64448, Note_on_c, 9, 51, 0
5, 64512, Note_on_c, 9, 51, 49
5, 64716, Note_on_c, 9, 51, 0
5, 64896, Note_on_c, 9, 51, 63
5, 64896, Note_on_c, 9, 44, 64
5, 64984, Note_on_c, 9, 44, 0
5, 65068, Note_on_c, 9, 51, 0
5, 65280, Note_on_c, 9, 51, 65
5, 65412, Note_on_c, 9, 51, 0
5, 65536, Note_on_c, 9, 51, 34
5, 65600, Note_on_c, 9, 51, 0
5, 65664, Note_on_c, 9, 51, 67
5, 65664, Note_on_c, 9, 44, 60
5, 65776, Note_on_c, 9, 44, 0
5, 65904, Note_on_c, 9, 51, 0
5, 66048, Note_on_c, 9, 51, 60
5, 66284, Note_on_c, 9, 51, 0
5, 66432, Note_on_c, 9, 51, 64
5, 66432, Note_on_c, 9, 44, 58
5, 66560, Note_on_c, 9, 44, 0
5, 66596, Note_on_c, 9, 51, 0
5, 66688, Note_on_c, 9, 51, 43
5, 66752, Note_on_c, 9, 51, 0
5, 66816, Note_on_c, 9, 51, 51
5, 67056, Note_on_c, 9, 51, 0
5, 67200, Note_on_c, 9, 51, 67
5, 67200, Note_on_c, 9, 44, 59
5, 67344, Note_on_c, 9, 44, 0
5, 67420, Note_on_c, 9, 51, 0
5, 67456, Note_on_c, 9, 51, 39
5, 67520, Note_on_c, 9, 51, 0
5, 67584, Note_on_c, 9, 51, 52
5, 67836, Note_on_c, 9, 51, 0
5, 67968, Note_on_c, 9, 44, 61
5, 67968, Note_on_c, 9, 51, 57
5, 68088, Note_on_c, 9, 44, 0
5, 68172, Note_on_c, 9, 51, 0
5, 68352, Note_on_c, 9, 51, 62
5, 68576, Note_on_c, 9, 51, 0
5, 68608, Note_on_c, 9, 51, 21
5, 68676, Note_on_c, 9, 51, 0
5, 68736, Note_on_c, 9, 44, 63
5, 68736, Note_on_c, 9, 51, 60
5, 68872, Note_on_c, 9, 44, 0
5, 69012, Note_on_c, 9, 51, 0
5, 69120, Note_on_c, 9, 51, 62
5, 69312, Note_on_c, 9, 51, 0
5, 69376, Note_on_c, 9, 51, 44
5, 69440, Note_on_c, 9, 51, 0
5, 69504, Note_on_c, 9, 51, 60
5, 69504, Note_on_c, 9, 44, 64
5, 69640, Note_on_c, 9, 44, 0
5, 69752, Note_on_c, 9, 51, 0
5, 69888, Note_on_c, 9, 51, 59
5, 70084, Note_on_c, 9, 51, 0
5, 70272, Note_on_c, 9, 51, 61
5, 70272, Note_on_c, 9, 44, 67
5, 70360, Note_on_c, 9, 44, 0
5, 70440, Note_on_c, 9, 51, 0
5, 70656, Note_on_c, 9, 51, 62
5, 70828, Note_on_c, 9, 51, 0
5, 71040, Note_on_c, 9, 51, 59
5, 71040, Note_on_c, 9, 44, 63
5, 71152, Note_on_c, 9, 44, 0
5, 71228, Note_on_c, 9, 51, 0
5, 71296, Note_on_c, 9, 51, 48
5, 71360, Note_on_c, 9, 51, 0
5, 71424, Note_on_c, 9, 51, 46
5, 71624, Note_on_c, 9, 51, 0
5, 71808, Note_on_c, 9, 51, 69
5, 71808, Note_on_c, 9, 44, 58
5, 71936, Note_on_c, 9, 44, 0
5, 71988, Note_on_c, 9, 51, 0
5, 72064, Note_on_c, 9, 51, 42
5, 72128, Note_on_c, 9, 51, 0
5, 72192, Note_on_c, 9, 51, 57
5, 72392, Note_on_c, 9, 51, 0
5, 72576, Note_on_c, 9, 51, 74
5, 72576, Note_on_c, 9, 44, 57
5, 72696, Note_on_c, 9, 44, 0
5, 72752, Note_on_c, 9, 51, 0
5, 72832, Note_on_c, 9, 51, 43
5, 72896, Note_on_c, 9, 51, 0
5, 72960, Note_on_c, 9, 51, 55
5, 73152, Note_on_c, 9, 51, 0
5, 73344, Note_on_c, 9, 51, 72
5, 73344, Note_on_c, 9, 44, 56
5, 73440, Note_on_c, 9, 51, 0
5, 73464, Note_on_c, 9, 44, 0
5, 73600, Note_on_c, 9, 51, 50
5, 73664, Note_on_c, 9, 51, 0
5, 73728, Note_on_c, 9, 51, 55
5, 73908, Note_on_c, 9, 51, 0
5, 74112, Note_on_c, 9, 51, 71
5, 74112, Note_on_c, 9, 44, 55
5, 74208, Note_on_c, 9, 51, 0
5, 74232, Note_on_c, 9, 44, 0
5, 74368, Note_on_c, 9, 53, 68
5, 74432, Note_on_c, 9, 53, 0
5, 74496, Note_on_c, 9, 51, 27
5, 74576, Note_on_c, 9, 51, 0
5, 74752, Note_on_c, 9, 53, 81
5, 74848, Note_on_c, 9, 53, 0
5, 74880, Note_on_c, 9, 44, 54
5, 74880, Note_on_c, 9, 51, 45
5, 74944, Note_on_c, 9, 51, 0
5, 74992, Note_on_c, 9, 44, 0
5, 75136, Note_on_c, 9, 57, 62
5, 75136, Note_on_c, 9, 59, 62
5, 75136, Note_on_c, 9, 51, 64
5, 75200, Note_on_c, 9, 59, 0
5, 75256, Note_on_c, 9, 57, 0
5, 75548, Note_on_c, 9, 51, 0
5, 75648, Note_on_c, 9, 51, 39
5, 75648, Note_on_c, 9, 44, 52
5, 75744, Note_on_c, 9, 44, 0
5, 75760, Note_on_c, 9, 51, 0
5, 76032, Note_on_c, 9, 51, 39
5, 76108, Note_on_c, 9, 51, 0
5, 76416, Note_on_c, 9, 51, 46
5, 76416, Note_on_c, 9, 44, 42
5, 76480, Note_on_c, 9, 51, 0
5, 76512, Note_on_c, 9, 44, 0
5, 76672, Note_on_c, 9, 51, 37
5, 76744, Note_on_c, 9, 51, 0
5, 76800, Note_on_c, 9, 51, 46
5, 76912, Note_on_c, 9, 51, 0
5, 77184, Note_on_c, 9, 44, 40
5, 77184, Note_on_c, 9, 51, 37
5, 77272, Note_on_c, 9, 44, 0
5, 77284, Note_on_c, 9, 51, 0
5, 77440, Note_on_c, 9, 51, 72
5, 77532, Note_on_c, 9, 51, 0
5, 77568, Note_on_c, 9, 51, 46
5, 77716, Note_on_c, 9, 51, 0
5, 77824, Note_on_c, 9, 51, 81
5, 77904, Note_on_c, 9, 51, 0
5, 77952, Note_on_c, 9, 44, 63
5, 77952, Note_on_c, 9, 51, 46
5, 78040, Note_on_c, 9, 44, 0
5, 78192, Note_on_c, 9, 51, 0
5, 78336, Note_on_c, 9, 51, 62
5, 78492, Note_on_c, 9, 51, 0
5, 78720, Note_on_c, 9, 44, 61
5, 78720, Note_on_c, 9, 51, 55
5, 78840, Note_on_c, 9, 44, 0
5, 78892, Note_on_c, 9, 51, 0
5, 79104, Note_on_c, 9, 51, 55
5, 79328, Note_on_c, 9, 51, 0
5, 79360, Note_on_c, 9, 59, 74
5, 79424, Note_on_c, 9, 59, 0
5, 79488, Note_on_c, 9, 44, 59
5, 79488, Note_on_c, 9, 51, 30
5, 79600, Note_on_c, 9, 44, 0
5, 79704, Note_on_c, 9, 51, 0
5, 79744, Note_on_c, 9, 59, 74
5, 79808, Note_on_c, 9, 59, 0
5, 79872, Note_on_c, 9, 51, 37
5, 80120, Note_on_c, 9, 51, 0
5, 80256, Note_on_c, 9, 51, 69
5, 80256, Note_on_c, 9, 44, 60
5, 80368, Note_on_c, 9, 51, 0
5, 80392, Note_on_c, 9, 44, 0
5, 80512, Note_on_c, 9, 51, 54
5, 80576, Note_on_c, 9, 51, 0
5, 80640, Note_on_c, 9, 51, 42
5, 80796, Note_on_c, 9, 51, 0
5, 81024, Note_on_c, 9, 51, 67
5, 81024, Note_on_c, 9, 44, 67
5, 81108, Note_on_c, 9, 51, 0
5, 81184, Note_on_c, 9, 44, 0
5, 81280, Note_on_c, 9, 51, 46
5, 81344, Note_on_c, 9, 51, 0
5, 81408, Note_on_c, 9, 51, 55
5, 81544, Note_on_c, 9, 51, 0
5, 81792, Note_on_c, 9, 51, 71
5, 81792, Note_on_c, 9, 44, 67
5, 81880, Note_on_c, 9, 51, 0
5, 81960, Note_on_c, 9, 44, 0
5, 82048, Note_on_c, 9, 51, 48
5, 82112, Note_on_c, 9, 51, 0
5, 82176, Note_on_c, 9, 51, 49
5, 82300, Note_on_c, 9, 51, 0
5, 82560, Note_on_c, 9, 51, 72
5, 82560, Note_on_c, 9, 44, 63
5, 82644, Note_on_c, 9, 51, 0
5, 82752, Note_on_c, 9, 44, 0
5, 82944, Note_on_c, 9, 51, 68
5, 83008, Note_on_c, 9, 51, 0
5, 83328, Note_on_c, 9, 51, 69
5, 83328, Note_on_c, 9, 44, 61
5, 83392, Note_on_c, 9, 51, 0
5, 83512, Note_on_c, 9, 44, 0
5, 83584, Note_on_c, 9, 51, 53
5, 83648, Note_on_c, 9, 51, 0
5, 83712, Note_on_c, 9, 51, 47
5, 83816, Note_on_c, 9, 51, 0
5, 84096, Note_on_c, 9, 51, 70
5, 84096, Note_on_c, 9, 44, 63
5, 84160, Note_on_c, 9, 51, 0
5, 84256, Note_on_c, 9, 44, 0
5, 84352, Note_on_c, 9, 51, 32
5, 84416, Note_on_c, 9, 51, 0
5, 84480, Note_on_c, 9, 51, 48
5, 84608, Note_on_c, 9, 51, 0
5, 84736, Note_on_c, 9, 51, 86
5, 84824, Note_on_c, 9, 51, 0
5, 84864, Note_on_c, 9, 44, 53
5, 84864, Note_on_c, 9, 51, 49
5, 85024, Note_on_c, 9, 44, 0
5, 85064, Note_on_c, 9, 51, 0
5, 85248, Note_on_c, 9, 51, 61
5, 85404, Note_on_c, 9, 51, 0
5, 85504, Note_on_c, 9, 51, 37
5, 85568, Note_on_c, 9, 51, 0
5, 85632, Note_on_c, 9, 51, 67
5, 85632, Note_on_c, 9, 44, 65
5, 85792, Note_on_c, 9, 44, 0
5, 85856, Note_on_c, 9, 51, 0
5, 86016, Note_on_c, 9, 51, 72
5, 86172, Note_on_c, 9, 51, 0
5, 86400, Note_on_c, 9, 51, 69
5, 86400, Note_on_c, 9, 44, 62
5, 86544, Note_on_c, 9, 51, 0
5, 86552, Note_on_c, 9, 44, 0
5, 86656, Note_on_c, 9, 51, 48
5, 86720, Note_on_c, 9, 51, 0
5, 86784, Note_on_c, 9, 51, 51
5, 86948, Note_on_c, 9, 51, 0
5, 87168, Note_on_c, 9, 51, 62
5, 87168, Note_on_c, 9, 46, 56
5, 87232, Note_on_c, 9, 46, 0
5, 87240, Note_on_c, 9, 51, 0
5, 87552, Note_on_c, 9, 51, 62
5, 87688, Note_on_c, 9, 51, 0
5, 87936, Note_on_c, 9, 51, 60
5, 87936, Note_on_c, 9, 44, 62
5, 88040, Note_on_c, 9, 51, 0
5, 88056, Note_on_c, 9, 44, 0
5, 88320, Note_on_c, 9, 51, 62
5, 88480, Note_on_c, 9, 51, 0
5, 88704, Note_on_c, 9, 51, 57
5, 88704, Note_on_c, 9, 44, 67
5, 88832, Note_on_c, 9, 44, 0
5, 88848, Note_on_c, 9, 51, 0
5, 88960, Note_on_c, 9, 51, 76
5, 89024, Note_on_c, 9, 51, 0
5, 89088, Note_on_c, 9, 51, 49
5, 89304, Note_on_c, 9, 51, 0
5, 89472, Note_on_c, 9, 51, 51
5, 89472, Note_on_c, 9, 44, 63
5, 89576, Note_on_c, 9, 44, 0
5, 89644, Note_on_c, 9, 51, 0
5, 89856, Note_on_c, 9, 51, 54
5, 90012, Note_on_c, 9, 51, 0
5, 90112, Note_on_c, 9, 53, 69
5, 90176, Note_on_c, 9, 53, 0
5, 90240, Note_on_c, 9, 51, 46
5, 90240, Note_on_c, 9, 44, 65
5, 90304, Note_on_c, 9, 51, 0
5, 90352, Note_on_c, 9, 44, 0
5, 90496, Note_on_c, 9, 51, 82
5, 90560, Note_on_c, 9, 51, 0
5, 90624, Note_on_c, 9, 51, 34
5, 90804, Note_on_c, 9, 51, 0
5, 91008, Note_on_c, 9, 51, 56
5, 91008, Note_on_c, 9, 44, 68
5, 91112, Note_on_c, 9, 44, 0
5, 91192, Note_on_c, 9, 51, 0
5, 91264, Note_on_c, 9, 51, 48
5, 91328, Note_on_c, 9, 51, 0
5, 91392, Note_on_c, 9, 51, 23
5, 91560, Note_on_c, 9, 51, 0
5, 91776, Note_on_c, 9, 51, 63
5, 91776, Note_on_c, 9, 44, 65
5, 91864, Note_on_c, 9, 44, 0
5, 91944, Note_on_c, 9, 51, 0
5, 92032, Note_on_c, 9, 51, 42
5, 92096, Note_on_c, 9, 51, 0
5, 92160, Note_on_c, 9, 51, 38
5, 92328, Note_on_c, 9, 51, 0
5, 92544, Note_on_c, 9, 51, 63
5, 92544, Note_on_c, 9, 44, 70
5, 92640, Note_on_c, 9, 44, 0
5, 92700, Note_on_c, 9, 51, 0
5, 92928, Note_on_c, 9, 51, 69
5, 93060, Note_on_c, 9, 51, 0
5, 93312, Note_on_c, 9, 51, 64
5, 93312, Note_on_c, 9, 44, 67
5, 93400, Note_on_c, 9, 44, 0
5, 93416, Note_on_c, 9, 51, 0
5, 93568, Note_on_c, 9, 51, 44
5, 93632, Note_on_c, 9, 51, 0
5, 93696, Note_on_c, 9, 51, 47
5, 93852, Note_on_c, 9, 51, 0
5, 94080, Note_on_c, 9, 51, 67
5, 94080, Note_on_c, 9, 44, 69
5, 94168, Note_on_c, 9, 44, 0
5, 94224, Note_on_c, 9, 51, 0
5, 94336, Note_on_c, 9, 51, 45
5, 94400, Note_on_c, 9, 51, 0
5, 94464, Note_on_c, 9, 51, 46
5, 94600, Note_on_c, 9, 51, 0
5, 94848, Note_on_c, 9, 53, 76
5, 94848, Note_on_c, 9, 44, 64
5, 94952, Note_on_c, 9, 44, 0
5, 95044, Note_on_c, 9, 53, 0
5, 95104, Note_on_c, 9, 51, 37
5, 95168, Note_on_c, 9, 51, 0
5, 95232, Note_on_c, 9, 51, 39
5, 95504, Note_on_c, 9, 51, 0
5, 95616, Note_on_c, 9, 53, 61
5, 95616, Note_on_c, 9, 44, 69
5, 95712, Note_on_c, 9, 44, 0
5, 95796, Note_on_c, 9, 53, 0
5, 95872, Note_on_c, 9, 51, 37
5, 95936, Note_on_c, 9, 51, 0
5, 96000, Note_on_c, 9, 51, 42
5, 96308, Note_on_c, 9, 51, 0
5, 96384, Note_on_c, 9, 57, 58
5, 96384, Note_on_c, 9, 44, 68
5, 96520, Note_on_c, 9, 44, 0
5, 96540, Note_on_c, 9, 57, 0
5, 96640, Note_on_c, 9, 51, 38
5, 96704, Note_on_c, 9, 51, 0
5, 96768, Note_on_c, 9, 51, 42
5, 97032, Note_on_c, 9, 51, 0
5, 97152, Note_on_c, 9, 44, 64
5, 97280, Note_on_c, 9, 44, 0
5, 97408, Note_on_c, 9, 51, 62
5, 97472, Note_on_c, 9, 51, 0
5, 97536, Note_on_c, 9, 51, 62
5, 97840, Note_on_c, 9, 51, 0
5, 97920, Note_on_c, 9, 44, 65
5, 98024, Note_on_c, 9, 44, 0
5, 98176, Note_on_c, 9, 51, 88
5, 98248, Note_on_c, 9, 51, 0
5, 98688, Note_on_c, 9, 44, 61
5, 98688, Note_on_c, 9, 51, 85
5, 98752, Note_on_c, 9, 51, 0
5, 98808, Note_on_c, 9, 44, 0
5, 99328, Note_on_c, 9, 51, 76
5, 99392, Note_on_c, 9, 51, 0
5, 99456, Note_on_c, 9, 44, 62
5, 99568, Note_on_c, 9, 44, 0
5, 99712, Note_on_c, 9, 57, 76
5, 99712, Note_on_c, 9, 51, 74
5, 99776, Note_on_c, 9, 57, 0
5, 99808, Note_on_c, 9, 51, 0
5, 100224, Note_on_c, 9, 51, 27
5, 100224, Note_on_c, 9, 44, 60
5, 100288, Note_on_c, 9, 51, 0
5, 100336, Note_on_c, 9, 44, 0
5, 100480, Note_on_c, 9, 51, 52
5, 100544, Note_on_c, 9, 51, 0
5, 100608, Note_on_c, 9, 51, 39
5, 100760, Note_on_c, 9, 51, 0
5, 100992, Note_on_c, 9, 51, 56
5, 100992, Note_on_c, 9, 44, 64
5, 101100, Note_on_c, 9, 51, 0
5, 101112, Note_on_c, 9, 44, 0
5, 101376, Note_on_c, 9, 51, 52
5, 101576, Note_on_c, 9, 51, 0
5, 101632, Note_on_c, 9, 59, 77
5, 101696, Note_on_c, 9, 59, 0
5, 101760, Note_on_c, 9, 44, 62
5, 101760, Note_on_c, 9, 51, 31
5, 101856, Note_on_c, 9, 44, 0
5, 101980, Note_on_c, 9, 51, 0
5, 102016, Note_on_c, 9, 59, 77
5, 102080, Note_on_c, 9, 59, 0
5, 102144, Note_on_c, 9, 51, 30
5, 102388, Note_on_c, 9, 51, 0
5, 102528, Note_on_c, 9, 51, 55
5, 102528, Note_on_c, 9, 44, 58
5, 102632, Note_on_c, 9, 44, 0
5, 102712, Note_on_c, 9, 51, 0
5, 102912, Note_on_c, 9, 51, 55
5, 103052, Note_on_c, 9, 51, 0
5, 103296, Note_on_c, 9, 51, 51
5, 103296, Note_on_c, 9, 44, 57
5, 103392, Note_on_c, 9, 44, 0
5, 103416, Note_on_c, 9, 51, 0
5, 103680, Note_on_c, 9, 51, 38
5, 103744, Note_on_c, 9, 51, 0
5, 103936, Note_on_c, 9, 51, 72
5, 104000, Note_on_c, 9, 51, 0
5, 104064, Note_on_c, 9, 51, 26
5, 104064, Note_on_c, 9, 44, 64
5, 104176, Note_on_c, 9, 44, 0
5, 104268, Note_on_c, 9, 51, 0
5, 104448, Note_on_c, 9, 51, 58
5, 104596, Note_on_c, 9, 51, 0
5, 104832, Note_on_c, 9, 51, 69
5, 104832, Note_on_c, 9, 44, 64
5, 104940, Note_on_c, 9, 51, 0
5, 104944, Note_on_c, 9, 44, 0
5, 105088, Note_on_c, 9, 51, 55
5, 105152, Note_on_c, 9, 51, 0
5, 105216, Note_on_c, 9, 51, 48
5, 105376, Note_on_c, 9, 51, 0
5, 105600, Note_on_c, 9, 51, 72
5, 105600, Note_on_c, 9, 46, 20
5, 105716, Note_on_c, 9, 51, 0
5, 105720, Note_on_c, 9, 46, 0
5, 105856, Note_on_c, 9, 51, 46
5, 105928, Note_on_c, 9, 51, 0
5, 105984, Note_on_c, 9, 51, 48
5, 106160, Note_on_c, 9, 51, 0
5, 106368, Note_on_c, 9, 44, 67
5, 106368, Note_on_c, 9, 51, 65
5, 106500, Note_on_c, 9, 51, 0
5, 106512, Note_on_c, 9, 44, 0
5, 106752, Note_on_c, 9, 51, 64
5, 106864, Note_on_c, 9, 51, 0
5, 107136, Note_on_c, 9, 44, 68
5, 107136, Note_on_c, 9, 51, 63
5, 107216, Note_on_c, 9, 51, 0
5, 107224, Note_on_c, 9, 44, 0
5, 107392, Note_on_c, 9, 51, 46
5, 107456, Note_on_c, 9, 51, 0
5, 107520, Note_on_c, 9, 51, 42
5, 107700, Note_on_c, 9, 51, 0
5, 107904, Note_on_c, 9, 51, 62
5, 107904, Note_on_c, 9, 44, 67
5, 107984, Note_on_c, 9, 44, 0
5, 107988, Note_on_c, 9, 51, 0
5, 108160, Note_on_c, 9, 51, 36
5, 108224, Note_on_c, 9, 51, 0
5, 108288, Note_on_c, 9, 51, 40
5, 108380, Note_on_c, 9, 51, 0
5, 108544, Note_on_c, 9, 51, 55
5, 108608, Note_on_c, 9, 51, 0
5, 108672, Note_on_c, 9, 51, 60
5, 108672, Note_on_c, 9, 44, 63
5, 108800, Note_on_c, 9, 44, 0
5, 108840, Note_on_c, 9, 51, 0
5, 109056, Note_on_c, 9, 51, 60
5, 109120, Note_on_c, 9, 51, 0
5, 109440, Note_on_c, 9, 51, 61
5, 109440, Note_on_c, 9, 44, 62
5, 109556, Note_on_c, 9, 51, 0
5, 109560, Note_on_c, 9, 44, 0
5, 109824, Note_on_c, 9, 51, 60
5, 109932, Note_on_c, 9, 51, 0
5, 110208, Note_on_c, 9, 51, 62
5, 110208, Note_on_c, 9, 44, 63
5, 110324, Note_on_c, 9, 51, 0
5, 110352, Note_on_c, 9, 44, 0
5, 110464, Note_on_c, 9, 51, 49
5, 110528, Note_on_c, 9, 51, 0
5, 110592, Note_on_c, 9, 51, 49
5, 110728, Note_on_c, 9, 51, 0
5, 110976, Note_on_c, 9, 51, 67
5, 110976, Note_on_c, 9, 44, 56
5, 111040, Note_on_c, 9, 51, 0
5, 111144, Note_on_c, 9, 44, 0
5, 111232, Note_on_c, 9, 51, 39
5, 111296, Note_on_c, 9, 51, 0
5, 111360, Note_on_c, 9, 51, 39
5, 111428, Note_on_c, 9, 51, 0
5, 111616, Note_on_c, 9, 53, 74
5, 111680, Note_on_c, 9, 53, 0
5, 111744, Note_on_c, 9, 51, 30
5, 111744, Note_on_c, 9, 44, 58
5, 111808, Note_on_c, 9, 51, 0
5, 111856, Note_on_c, 9, 44, 0
5, 112000, Note_on_c, 9, 53, 78
5, 112064, Note_on_c, 9, 53, 0
5, 112128, Note_on_c, 9, 51, 32
5, 112356, Note_on_c, 9, 51, 0
5, 112512, Note_on_c, 9, 51, 60
5, 112512, Note_on_c, 9, 44, 50
5, 112632, Note_on_c, 9, 44, 0
5, 112672, Note_on_c, 9, 51, 0
5, 112768, Note_on_c, 9, 51, 28
5, 112832, Note_on_c, 9, 51, 0
5, 112896, Note_on_c, 9, 51, 49
5, 113076, Note_on_c, 9, 51, 0
5, 113280, Note_on_c, 9, 51, 69
5, 113280, Note_on_c, 9, 44, 55
5, 113408, Note_on_c, 9, 44, 0
5, 113408, Note_on_c, 9, 51, 0
5, 113536, Note_on_c, 9, 51, 25
5, 113600, Note_on_c, 9, 51, 0
5, 113664, Note_on_c, 9, 51, 51
5, 113824, Note_on_c, 9, 51, 0
5, 114048, Note_on_c, 9, 51, 68
5, 114048, Note_on_c, 9, 44, 58
5, 114188, Note_on_c, 9, 51, 0
5, 114200, Note_on_c, 9, 44, 0
5, 114432, Note_on_c, 9, 51, 62
5, 114548, Note_on_c, 9, 51, 0
5, 114816, Note_on_c, 9, 51, 62
5, 114816, Note_on_c, 9, 46, 44
5, 114884, Note_on_c, 9, 51, 0
5, 114960, Note_on_c, 9, 46, 0
5, 115072, Note_on_c, 9, 51, 37
5, 115136, Note_on_c, 9, 51, 0
5, 115200, Note_on_c, 9, 51, 53
5, 115380, Note_on_c, 9, 51, 0
5, 115584, Note_on_c, 9, 51, 62
5, 115584, Note_on_c, 9, 44, 55
5, 115692, Note_on_c, 9, 51, 0
5, 115728, Note_on_c, 9, 44, 0
5, 115840, Note_on_c, 9, 51, 39
5, 115904, Note_on_c, 9, 51, 0
5, 115968, Note_on_c, 9, 51, 51
5, 116128, Note_on_c, 9, 51, 0
5, 116352, Note_on_c, 9, 51, 63
5, 116352, Note_on_c, 9, 44, 54
5, 116440, Note_on_c, 9, 51, 0
5, 116496, Note_on_c, 9, 44, 0
5, 116608, Note_on_c, 9, 51, 34
5, 116672, Note_on_c, 9, 51, 0
5, 116736, Note_on_c, 9, 51, 50
5, 116892, Note_on_c, 9, 51, 0
5, 117120, Note_on_c, 9, 51, 60
5, 117120, Note_on_c, 9, 44, 60
5, 117280, Note_on_c, 9, 44, 0
5, 117284, Note_on_c, 9, 51, 0
5, 117504, Note_on_c, 9, 51, 69
5, 117708, Note_on_c, 9, 51, 0
5, 117760, Note_on_c, 9, 49, 54
5, 117824, Note_on_c, 9, 49, 0
5, 117888, Note_on_c, 9, 44, 55
5, 117888, Note_on_c, 9, 51, 35
5, 118056, Note_on_c, 9, 51, 0
5, 118056, Note_on_c, 9, 44, 0
5, 118144, Note_on_c, 9, 51, 72
5, 118208, Note_on_c, 9, 51, 0
5, 118272, Note_on_c, 9, 51, 44
5, 118448, Note_on_c, 9, 51, 0
5, 118656, Note_on_c, 9, 51, 61
5, 118656, Note_on_c, 9, 44, 60
5, 118816, Note_on_c, 9, 44, 0
5, 118852, Note_on_c, 9, 51, 0
5, 119040, Note_on_c, 9, 51, 61
5, 119204, Note_on_c, 9, 51, 0
5, 119424, Note_on_c, 9, 51, 65
5, 119424, Note_on_c, 9, 44, 56
5, 119568, Note_on_c, 9, 44, 0
5, 119604, Note_on_c, 9, 51, 0
5, 119680, Note_on_c, 9, 51, 38
5, 119744, Note_on_c, 9, 51, 0
5, 119808, Note_on_c, 9, 51, 49
5, 120020, Note_on_c, 9, 51, 0
5, 120192, Note_on_c, 9, 51, 67
5, 120192, Note_on_c, 9, 44, 56
5, 120344, Note_on_c, 9, 44, 0
5, 120452, Note_on_c, 9, 51, 0
5, 120576, Note_on_c, 9, 51, 53
5, 120816, Note_on_c, 9, 51, 0
5, 120960, Note_on_c, 9, 51, 60
5, 120960, Note_on_c, 9, 46, 36
5, 121080, Note_on_c, 9, 46, 0
5, 121104, Note_on_c, 9, 51, 0
5, 121344, Note_on_c, 9, 51, 60
5, 121552, Note_on_c, 9, 51, 0
5, 121728, Note_on_c, 9, 51, 55
5, 121728, Note_on_c, 9, 44, 50
5, 121860, Note_on_c, 9, 51, 0
5, 121888, Note_on_c, 9, 44, 0
5, 121984, Note_on_c, 9, 51, 50
5, 122048, Note_on_c, 9, 51, 0
5, 122112, Note_on_c, 9, 51, 50
5, 122176, Note_on_c, 9, 51, 0
5, 122368, Note_on_c, 9, 59, 55
5, 122432, Note_on_c, 9, 59, 0
5, 122496, Note_on_c, 9, 51, 35
5, 122496, Note_on_c, 9, 44, 53
5, 122648, Note_on_c, 9, 44, 0
5, 122688, Note_on_c, 9, 51, 0
5, 122752, Note_on_c, 9, 59, 77
5, 122816, Note_on_c, 9, 59, 0
5, 122880, Note_on_c, 9, 51, 32
5, 123036, Note_on_c, 9, 51, 0
5, 123136, Note_on_c, 9, 59, 77
5, 123200, Note_on_c, 9, 59, 0
5, 123264, Note_on_c, 9, 51, 36
5, 123264, Note_on_c, 9, 44, 61
5, 123400, Note_on_c, 9, 44, 0
5, 123404, Note_on_c, 9, 51, 0
5, 123520, Note_on_c, 9, 59, 80
5, 123584, Note_on_c, 9, 59, 0
5, 123648, Note_on_c, 9, 51, 36
5, 123724, Note_on_c, 9, 51, 0
5, 123904, Note_on_c, 9, 59, 78
5, 123968, Note_on_c, 9, 59, 0
5, 124032, Note_on_c, 9, 51, 43
5, 124032, Note_on_c, 9, 44, 54
5, 124168, Note_on_c, 9, 44, 0
5, 124208, Note_on_c, 9, 51, 0
5, 124288, Note_on_c, 9, 51, 74
5, 124288, Note_on_c, 9, 49, 57
5, 124352, Note_on_c, 9, 51, 0
5, 124772, Note_on_c, 9, 49, 0
5, 124800, Note_on_c, 9, 51, 44
5, 124800, Note_on_c, 9, 44, 57
5, 124920, Note_on_c, 9, 44, 0
5, 125140, Note_on_c, 9, 51, 0
5, 125184, Note_on_c, 9, 51, 44
5, 125476, Note_on_c, 9, 51, 0
5, 125568, Note_on_c, 9, 51, 53
5, 125568, Note_on_c, 9, 44, 54
5, 125680, Note_on_c, 9, 44, 0
5, 125756, Note_on_c, 9, 51, 0
5, 125824, Note_on_c, 9, 51, 35
5, 125900, Note_on_c, 9, 51, 0
5, 125952, Note_on_c, 9, 51, 58
5, 126172, Note_on_c, 9, 51, 0
5, 126336, Note_on_c, 9, 51, 64
5, 126336, Note_on_c, 9, 44, 49
5, 126464, Note_on_c, 9, 44, 0
5, 126464, Note_on_c, 9, 51, 0
5, 126592, Note_on_c, 9, 51, 36
5, 126656, Note_on_c, 9, 51, 0
5, 126720, Note_on_c, 9, 51, 51
5, 126892, Note_on_c, 9, 51, 0
5, 127104, Note_on_c, 9, 51, 64
5, 127104, Note_on_c, 9, 44, 48
5, 127224, Note_on_c, 9, 44, 0
5, 127228, Note_on_c, 9, 51, 0
5, 127488, Note_on_c, 9, 51, 62
5, 127596, Note_on_c, 9, 51, 0
5, 127872, Note_on_c, 9, 51, 57
5, 127872, Note_on_c, 9, 44, 51
5, 127956, Note_on_c, 9, 51, 0
5, 127976, Note_on_c, 9, 44, 0
5, 128128, Note_on_c, 9, 51, 51
5, 128192, Note_on_c, 9, 51, 0
5, 128256, Note_on_c, 9, 51, 37
5, 128396, Note_on_c, 9, 51, 0
5, 128640, Note_on_c, 9, 51, 59
5, 128640, Note_on_c, 9, 44, 57
5, 128724, Note_on_c, 9, 51, 0
5, 128768, Note_on_c, 9, 44, 0
5, 128896, Note_on_c, 9, 51, 40
5, 128960, Note_on_c, 9, 51, 0
5, 129024, Note_on_c, 9, 51, 47
5, 129156, Note_on_c, 9, 51, 0
5, 129408, Note_on_c, 9, 51, 68
5, 129408, Note_on_c, 9, 44, 56
5, 129472, Note_on_c, 9, 51, 0
5, 129552, Note_on_c, 9, 44, 0
5, 129664, Note_on_c, 9, 51, 33
5, 129728, Note_on_c, 9, 51, 0
5, 130048, Note_on_c, 9, 51, 75
5, 130112, Note_on_c, 9, 51, 0
5, 130176, Note_on_c, 9, 44, 52
5, 130176, Note_on_c, 9, 51, 31
5, 130256, Note_on_c, 9, 51, 0
5, 130376, Note_on_c, 9, 44, 0
5, 130560, Note_on_c, 9, 51, 29
5, 130624, Note_on_c, 9, 51, 0
5, 130816, Note_on_c, 9, 51, 79
5, 130880, Note_on_c, 9, 51, 0
5, 130944, Note_on_c, 9, 44, 54
5, 130944, Note_on_c, 9, 51, 32
5, 131108, Note_on_c, 9, 51, 0
5, 131128, Note_on_c, 9, 44, 0
5, 131200, Note_on_c, 9, 51, 35
5, 131264, Note_on_c, 9, 51, 0
5, 131328, Note_on_c, 9, 51, 36
5, 131452, Note_on_c, 9, 51, 0
5, 131584, Note_on_c, 9, 59, 70
5, 131652, Note_on_c, 9, 59, 0
5, 131712, Note_on_c, 9, 51, 28
5, 131712, Note_on_c, 9, 44, 56
5, 131776, Note_on_c, 9, 51, 0
5, 131880, Note_on_c, 9, 44, 0
5, 131968, Note_on_c, 9, 59, 81
5, 132032, Note_on_c, 9, 59, 0
5, 132096, Note_on_c, 9, 51, 38
5, 132240, Note_on_c, 9, 51, 0
5, 132352, Note_on_c, 9, 51, 34
5, 132416, Note_on_c, 9, 51, 0
5, 132480, Note_on_c, 9, 51, 54
5, 132480, Note_on_c, 9, 44, 57
5, 132632, Note_on_c, 9, 44, 0
5, 132704, Note_on_c, 9, 51, 0
5, 132864, Note_on_c, 9, 51, 59
5, 133028, Note_on_c, 9, 51, 0
5, 133248, Note_on_c, 9, 51, 63
5, 133248, Note_on_c, 9, 44, 51
5, 133348, Note_on_c, 9, 51, 0
5, 133416, Note_on_c, 9, 44, 0
5, 133504, Note_on_c, 9, 51, 27
5, 133568, Note_on_c, 9, 51, 0
5, 133632, Note_on_c, 9, 51, 53
5, 133800, Note_on_c, 9, 51, 0
5, 134016, Note_on_c, 9, 51, 56
5, 134016, Note_on_c, 9, 44, 52
5, 134152, Note_on_c, 9, 51, 0
5, 134168, Note_on_c, 9, 44, 0
5, 134272, Note_on_c, 9, 46, 40
5, 134336, Note_on_c, 9, 46, 0
5, 134400, Note_on_c, 9, 51, 25
5, 134516, Note_on_c, 9, 51, 0
5, 134784, Note_on_c, 9, 51, 64
5, 134784, Note_on_c, 9, 44, 50
5, 134904, Note_on_c, 9, 44, 0
5, 134924, Note_on_c, 9, 51, 0
5, 135168, Note_on_c, 9, 51, 65
5, 135328, Note_on_c, 9, 51, 0
5, 135552, Note_on_c, 9, 51, 60
5, 135552, Note_on_c, 9, 44, 57
5, 135684, Note_on_c, 9, 51, 0
5, 135688, Note_on_c, 9, 44, 0
5, 135936, Note_on_c, 9, 46, 37
5, 135936, Note_on_c, 9, 51, 56
5, 136000, Note_on_c, 9, 46, 0
5, 136060, Note_on_c, 9, 51, 0
5, 136320, Note_on_c, 9, 46, 31
5, 136320, Note_on_c, 9, 51, 57
5, 136320, Note_on_c, 9, 44, 52
5, 136384, Note_on_c, 9, 51, 0
5, 136384, Note_on_c, 9, 46, 0
5, 136480, Note_on_c, 9, 44, 0
5, 136576, Note_on_c, 9, 51, 38
5, 136640, Note_on_c, 9, 51, 0
5, 136704, Note_on_c, 9, 51, 34
5, 136836, Note_on_c, 9, 51, 0
5, 137088, Note_on_c, 9, 51, 53
5, 137088, Note_on_c, 9, 44, 56
5, 137216, Note_on_c, 9, 51, 0
5, 137232, Note_on_c, 9, 44, 0
5, 137472, Note_on_c, 9, 51, 59
5, 137636, Note_on_c, 9, 51, 0
5, 137728, Note_on_c, 9, 53, 64
5, 137792, Note_on_c, 9, 53, 0
5, 137856, Note_on_c, 9, 51, 31
5, 137856, Note_on_c, 9, 44, 57
5, 137992, Note_on_c, 9, 44, 0
5, 138076, Note_on_c, 9, 51, 0
5, 138240, Note_on_c, 9, 51, 55
5, 138376, Note_on_c, 9, 51, 0
5, 138624, Note_on_c, 9, 51, 63
5, 138624, Note_on_c, 9, 44, 56
5, 138728, Note_on_c, 9, 44, 0
5, 138904, Note_on_c, 9, 51, 0
5, 139264, Note_on_c, 9, 51, 30
5, 139328, Note_on_c, 9, 51, 0
5, 139392, Note_on_c, 9, 51, 51
5, 139392, Note_on_c, 9, 44, 60
5, 139512, Note_on_c, 9, 44, 0
5, 139636, Note_on_c, 9, 51, 0
5, 139776, Note_on_c, 9, 51, 59
5, 139840, Note_on_c, 9, 51, 0
5, 140160, Note_on_c, 9, 51, 55
5, 140160, Note_on_c, 9, 44, 60
5, 140312, Note_on_c, 9, 44, 0
5, 140328, Note_on_c, 9, 51, 0
5, 140416, Note_on_c, 9, 51, 43
5, 140480, Note_on_c, 9, 51, 0
5, 140544, Note_on_c, 9, 51, 37
5, 140732, Note_on_c, 9, 51, 0
5, 140928, Note_on_c, 9, 51, 61
5, 140928, Note_on_c, 9, 44, 56
5, 141056, Note_on_c, 9, 44, 0
5, 141060, Note_on_c, 9, 51, 0
5, 141312, Note_on_c, 9, 51, 55
5, 141488, Note_on_c, 9, 51, 0
5, 141696, Note_on_c, 9, 51, 62
5, 141696, Note_on_c, 9, 44, 56
5, 141832, Note_on_c, 9, 44, 0
5, 141840, Note_on_c, 9, 51, 0
5, 142080, Note_on_c, 9, 51, 61
5, 142240, Note_on_c, 9, 51, 0
5, 142464, Note_on_c, 9, 51, 64
5, 142464, Note_on_c, 9, 44, 60
5, 142572, Note_on_c, 9, 51, 0
5, 142592, Note_on_c, 9, 44, 0
5, 142720, Note_on_c, 9, 51, 43
5, 142796, Note_on_c, 9, 51, 0
5, 142848, Note_on_c, 9, 51, 43
5, 143064, Note_on_c, 9, 51, 0
5, 143232, Note_on_c, 9, 44, 62
5, 143232, Note_on_c, 9, 51, 63
5, 143368, Note_on_c, 9, 44, 0
5, 143396, Note_on_c, 9, 51, 0
5, 143488, Note_on_c, 9, 51, 47
5, 143552, Note_on_c, 9, 51, 0
5, 143616, Note_on_c, 9, 51, 42
5, 143808, Note_on_c, 9, 51, 0
5, 144000, Note_on_c, 9, 44, 68
5, 144000, Note_on_c, 9, 51, 62
5, 144104, Note_on_c, 9, 44, 0
5, 144172, Note_on_c, 9, 51, 0
5, 144256, Note_on_c, 9, 51, 37
5, 144320, Note_on_c, 9, 51, 0
5, 144384, Note_on_c, 9, 51, 46
5, 144636, Note_on_c, 9, 51, 0
5, 144768, Note_on_c, 9, 44, 67
5, 144768, Note_on_c, 9, 51, 67
5, 144888, Note_on_c, 9, 44, 0
5, 144988, Note_on_c, 9, 51, 0
5, 145024, Note_on_c, 9, 51, 48
5, 145108, Note_on_c, 9, 51, 0
5, 145152, Note_on_c, 9, 51, 36
5, 145332, Note_on_c, 9, 51, 0
5, 145408, Note_on_c, 9, 53, 77
5, 145488, Note_on_c, 9, 53, 0
5, 145536, Note_on_c, 9, 44, 61
5, 145536, Note_on_c, 9, 51, 42
5, 145680, Note_on_c, 9, 44, 0
5, 145728, Note_on_c, 9, 51, 0
5, 145792, Note_on_c, 9, 51, 40
5, 145856, Note_on_c, 9, 51, 0
5, 145920, Note_on_c, 9, 51, 43
5, 146176, Note_on_c, 9, 51, 0
5, 146304, Note_on_c, 9, 46, 62
5, 146304, Note_on_c, 9, 51, 68
5, 146400, Note_on_c, 9, 46, 0
5, 146544, Note_on_c, 9, 51, 0
5, 146560, Note_on_c, 9, 51, 42
5, 146624, Note_on_c, 9, 51, 0
5, 146688, Note_on_c, 9, 51, 49
5, 146944, Note_on_c, 9, 51, 0
5, 147072, Note_on_c, 9, 44, 52
5, 147072, Note_on_c, 9, 51, 77
5, 147208, Note_on_c, 9, 44, 0
5, 147328, Note_on_c, 9, 51, 43
5, 147332, Note_on_c, 9, 51, 0
5, 147416, Note_on_c, 9, 51, 0
5, 147456, Note_on_c, 9, 51, 60
5, 147788, Note_on_c, 9, 51, 0
5, 147840, Note_on_c, 9, 44, 48
5, 147840, Note_on_c, 9, 51, 61
5, 148008, Note_on_c, 9, 44, 0
5, 148080, Note_on_c, 9, 51, 0
5, 148096, Note_on_c, 9, 51, 33
5, 148184, Note_on_c, 9, 51, 0
5, 148224, Note_on_c, 9, 51, 60
5, 148552, Note_on_c, 9, 51, 0
5, 148608, Note_on_c, 9, 44, 53
5, 148608, Note_on_c, 9, 51, 72
5, 148736, Note_on_c, 9, 44, 0
5, 148852, Note_on_c, 9, 51, 0
5, 148864, Note_on_c, 9, 51, 38
5, 148928, Note_on_c, 9, 51, 0
5, 148992, Note_on_c, 9, 51, 59
5, 149260, Note_on_c, 9, 51, 0
5, 149376, Note_on_c, 9, 44, 55
5, 149376, Note_on_c, 9, 51, 64
5, 149472, Note_on_c, 9, 44, 0
5, 149604, Note_on_c, 9, 51, 0
5, 149632, Note_on_c, 9, 51, 42
5, 149696, Note_on_c, 9, 51, 0
5, 149760, Note_on_c, 9, 51, 37
5, 150040, Note_on_c, 9, 51, 0
5, 150144, Note_on_c, 9, 51, 62
5, 150144, Note_on_c, 9, 44, 56
5, 150320, Note_on_c, 9, 44, 0
5, 150356, Note_on_c, 9, 51, 0
5, 150400, Note_on_c, 9, 51, 31
5, 150464, Note_on_c, 9, 51, 0
5, 150528, Note_on_c, 9, 51, 52
5, 150812, Note_on_c, 9, 51, 0
5, 150912, Note_on_c, 9, 44, 56
5, 150912, Note_on_c, 9, 51, 51
5, 151080, Note_on_c, 9, 44, 0
5, 151112, Note_on_c, 9, 51, 0
5, 151296, Note_on_c, 9, 51, 38
5, 151296, Note_on_c, 9, 59, 53
5, 151516, Note_on_c, 9, 59, 0
5, 151536, Note_on_c, 9, 51, 0
5, 151680, Note_on_c, 9, 59, 68
5, 151680, Note_on_c, 9, 51, 64
5, 151680, Note_on_c, 9, 44, 69
5, 151756, Note_on_c, 9, 59, 0
5, 151812, Note_on_c, 9, 51, 0
5, 151856, Note_on_c, 9, 44, 0
5, 151936, Note_on_c, 9, 51, 60
5, 152000, Note_on_c, 9, 51, 0
5, 152064, Note_on_c, 9, 51, 62
5, 152308, Note_on_c, 9, 51, 0
5, 152448, Note_on_c, 9, 51, 59
5, 152448, Note_on_c, 9, 44, 67
5, 152616, Note_on_c, 9, 44, 0
5, 152700, Note_on_c, 9, 51, 0
5, 152832, Note_on_c, 9, 51, 53
5, 153100, Note_on_c, 9, 51, 0
5, 153216, Note_on_c, 9, 51, 58
5, 153216, Note_on_c, 9, 44, 64
5, 153408, Note_on_c, 9, 44, 0
5, 153432, Note_on_c, 9, 51, 0
5, 153472, Note_on_c, 9, 53, 52
5, 153556, Note_on_c, 9, 53, 0
5, 153600, Note_on_c, 9, 51, 29
5, 153892, Note_on_c, 9, 51, 0
5, 153984, Note_on_c, 9, 51, 56
5, 153984, Note_on_c, 9, 44, 64
5, 154160, Note_on_c, 9, 44, 0
5, 154256, Note_on_c, 9, 51, 0
5, 154368, Note_on_c, 9, 51, 43
5, 154664, Note_on_c, 9, 51, 0
5, 154752, Note_on_c, 9, 51, 49
5, 154752, Note_on_c, 9, 46, 53
5, 154832, Note_on_c, 9, 46, 0
5, 154980, Note_on_c, 9, 51, 0
5, 155008, Note_on_c, 9, 51, 47
5, 155072, Note_on_c, 9, 51, 0
5, 155136, Note_on_c, 9, 51, 39
5, 155404, Note_on_c, 9, 51, 0
5, 155520, Note_on_c, 9, 51, 59
5, 155520, Note_on_c, 9, 44, 62
5, 155648, Note_on_c, 9, 44, 0
5, 155780, Note_on_c, 9, 51, 0
5, 155904, Note_on_c, 9, 51, 33
5, 155968, Note_on_c, 9, 51, 0
5, 156160, Note_on_c, 9, 51, 77
5, 156224, Note_on_c, 9, 51, 0
5, 156288, Note_on_c, 9, 44, 60
5, 156288, Note_on_c, 9, 51, 27
5, 156384, Note_on_c, 9, 44, 0
5, 156540, Note_on_c, 9, 51, 0
5, 156672, Note_on_c, 9, 51, 42
5, 156892, Note_on_c, 9, 51, 0
5, 157056, Note_on_c, 9, 51, 35
5, 157056, Note_on_c, 9, 44, 69
5, 157120, Note_on_c, 9, 44, 0
5, 157288, Note_on_c, 9, 51, 0
5, 157440, Note_on_c, 9, 51, 45
5, 157564, Note_on_c, 9, 51, 0
5, 157696, Note_on_c, 9, 51, 44
5, 157696, Note_on_c, 9, 49, 37
5, 157760, Note_on_c, 9, 49, 0
5, 157824, Note_on_c, 9, 44, 69
5, 157904, Note_on_c, 9, 44, 0
5, 157984, Note_on_c, 9, 51, 0
5, 158080, Note_on_c, 9, 51, 71
5, 158156, Note_on_c, 9, 51, 0
5, 158208, Note_on_c, 9, 51, 37
5, 158452, Note_on_c, 9, 51, 0
5, 158592, Note_on_c, 9, 44, 67
5, 158592, Note_on_c, 9, 51, 52
5, 158704, Note_on_c, 9, 44, 0
5, 158828, Note_on_c, 9, 51, 0
5, 158976, Note_on_c, 9, 51, 47
5, 159176, Note_on_c, 9, 51, 0
5, 159360, Note_on_c, 9, 51, 53
5, 159360, Note_on_c, 9, 44, 65
5, 159480, Note_on_c, 9, 44, 0
5, 159564, Note_on_c, 9, 51, 0
5, 159616, Note_on_c, 9, 51, 40
5, 159680, Note_on_c, 9, 51, 0
5, 159744, Note_on_c, 9, 51, 42
5, 159964, Note_on_c, 9, 51, 0
5, 160128, Note_on_c, 9, 51, 62
5, 160128, Note_on_c, 9, 44, 67
5, 160256, Note_on_c, 9, 44, 0
5, 160312, Note_on_c, 9, 51, 0
5, 160384, Note_on_c, 9, 51, 27
5, 160448, Note_on_c, 9, 51, 0
5, 160512, Note_on_c, 9, 51, 37
5, 160740, Note_on_c, 9, 51, 0
5, 160896, Note_on_c, 9, 44, 63
5, 160896, Note_on_c, 9, 51, 55
5, 161024, Note_on_c, 9, 44, 0
5, 161128, Note_on_c, 9, 51, 0
5, 161152, Note_on_c, 9, 51, 33
5, 161216, Note_on_c, 9, 51, 0
5, 161280, Note_on_c, 9, 51, 42
5, 161548, Note_on_c, 9, 51, 0
5, 161664, Note_on_c, 9, 51, 69
5, 161664, Note_on_c, 9, 44, 64
5, 161776, Note_on_c, 9, 44, 0
5, 161888, Note_on_c, 9, 51, 0
5, 161920, Note_on_c, 9, 51, 34
5, 161984, Note_on_c, 9, 51, 0
5, 162048, Note_on_c, 9, 51, 48
5, 162296, Note_on_c, 9, 51, 0
5, 162432, Note_on_c, 9, 51, 69
5, 162432, Note_on_c, 9, 44, 61
5, 162528, Note_on_c, 9, 44, 0
5, 162588, Note_on_c, 9, 51, 0
5, 162688, Note_on_c, 9, 51, 35
5, 162752, Note_on_c, 9, 51, 0
5, 162816, Note_on_c, 9, 51, 47
5, 163020, Note_on_c, 9, 51, 0
5, 163200, Note_on_c, 9, 51, 62
5, 163200, Note_on_c, 9, 44, 60
5, 163296, Note_on_c, 9, 44, 0
5, 163356, Note_on_c, 9, 51, 0
5, 163584, Note_on_c, 9, 46, 38
5, 163584, Note_on_c, 9, 51, 52
5, 163648, Note_on_c, 9, 46, 0
5, 163756, Note_on_c, 9, 51, 0
5, 163968, Note_on_c, 9, 46, 49
5, 163968, Note_on_c, 9, 51, 51
5, 163968, Note_on_c, 9, 46, 55
5, 164032, Note_on_c, 9, 46, 0
5, 164040, Note_on_c, 9, 46, 0
5, 164048, Note_on_c, 9, 51, 0
5, 164352, Note_on_c, 9, 51, 53
5, 164556, Note_on_c, 9, 51, 0
5, 164736, Note_on_c, 9, 51, 59
5, 164736, Note_on_c, 9, 44, 54
5, 164816, Note_on_c, 9, 44, 0
5, 164900, Note_on_c, 9, 51, 0
5, 164992, Note_on_c, 9, 51, 37
5, 165056, Note_on_c, 9, 51, 0
5, 165120, Note_on_c, 9, 51, 39
5, 165320, Note_on_c, 9, 51, 0
5, 165504, Note_on_c, 9, 51, 62
5, 165504, Note_on_c, 9, 44, 62
5, 165600, Note_on_c, 9, 44, 0
5, 165628, Note_on_c, 9, 51, 0
5, 165760, Note_on_c, 9, 51, 34
5, 165824, Note_on_c, 9, 51, 0
5, 165888, Note_on_c, 9, 51, 47
5, 166064, Note_on_c, 9, 51, 0
5, 166272, Note_on_c, 9, 51, 67
5, 166272, Note_on_c, 9, 44, 57
5, 166360, Note_on_c, 9, 44, 0
5, 166464, Note_on_c, 9, 51, 0
5, 166528, Note_on_c, 9, 51, 43
5, 166592, Note_on_c, 9, 51, 0
5, 166656, Note_on_c, 9, 51, 48
5, 166876, Note_on_c, 9, 51, 0
5, 167040, Note_on_c, 9, 51, 69
5, 167040, Note_on_c, 9, 46, 33
5, 167192, Note_on_c, 9, 46, 0
5, 167268, Note_on_c, 9, 51, 0
5, 167424, Note_on_c, 9, 51, 49
5, 167644, Note_on_c, 9, 51, 0
5, 167808, Note_on_c, 9, 51, 60
5, 167808, Note_on_c, 9, 44, 56
5, 167880, Note_on_c, 9, 44, 0
5, 168024, Note_on_c, 9, 51, 0
5, 168064, Note_on_c, 9, 53, 47
5, 168128, Note_on_c, 9, 53, 0
5, 168192, Note_on_c, 9, 51, 30
5, 168484, Note_on_c, 9, 51, 0
5, 168576, Note_on_c, 9, 51, 45
5, 168576, Note_on_c, 9, 44, 64
5, 168688, Note_on_c, 9, 44, 0
5, 168828, Note_on_c, 9, 51, 0
5, 168960, Note_on_c, 9, 51, 51
5, 169128, Note_on_c, 9, 51, 0
5, 169344, Note_on_c, 9, 51, 56
5, 169344, Note_on_c, 9, 44, 70
5, 169472, Note_on_c, 9, 44, 0
5, 169504, Note_on_c, 9, 51, 0
5, 169600, Note_on_c, 9, 51, 35
5, 169664, Note_on_c, 9, 51, 0
5, 169728, Note_on_c, 9, 53, 61
5, 169924, Note_on_c, 9, 53, 0
5, 169984, Note_on_c, 9, 51, 36
5, 170048, Note_on_c, 9, 51, 0
5, 170112, Note_on_c, 9, 53, 58
5, 170112, Note_on_c, 9, 44, 70
5, 170240, Note_on_c, 9, 44, 0
5, 170240, Note_on_c, 9, 53, 0
5, 170368, Note_on_c, 9, 51, 46
5, 170432, Note_on_c, 9, 51, 0
5, 170496, Note_on_c, 9, 51, 39
5, 170560, Note_on_c, 9, 51, 0
5, 170752, Note_on_c, 9, 51, 62
5, 170816, Note_on_c, 9, 51, 0
5, 170880, Note_on_c, 9, 53, 55
5, 170880, Note_on_c, 9, 44, 71
5, 171032, Note_on_c, 9, 44, 0
5, 171108, Note_on_c, 9, 53, 0
5, 171264, Note_on_c, 9, 53, 63
5, 171456, Note_on_c, 9, 53, 0
5, 171520, Note_on_c, 9, 51, 53
5, 171584, Note_on_c, 9, 51, 0
5, 171648, Note_on_c, 9, 51, 49
5, 171648, Note_on_c, 9, 44, 71
5, 171712, Note_on_c, 9, 51, 0
5, 171784, Note_on_c, 9, 44, 0
5, 171904, Note_on_c, 9, 51, 81
5, 172064, Note_on_c, 9, 51, 0
5, 172288, Note_on_c, 9, 53, 62
5, 172352, Note_on_c, 9, 53, 0
5, 172416, Note_on_c, 9, 44, 71
5, 172416, Note_on_c, 9, 53, 51
5, 172484, Note_on_c, 9, 53, 0
5, 172552, Note_on_c, 9, 44, 0
5, 172672, Note_on_c, 9, 51, 78
5, 172736, Note_on_c, 9, 51, 0
5, 172800, Note_on_c, 9, 51, 60
5, 172900, Note_on_c, 9, 51, 0
5, 173056, Note_on_c, 9, 53, 82
5, 173120, Note_on_c, 9, 53, 0
5, 173184, Note_on_c, 9, 44, 74
5, 173184, Note_on_c, 9, 53, 58
5, 173248, Note_on_c, 9, 53, 0
5, 173304, Note_on_c, 9, 44, 0
5, 173440, Note_on_c, 9, 57, 61
5, 173440, Note_on_c, 9, 51, 52
5, 173504, Note_on_c, 9, 57, 0
5, 173872, Note_on_c, 9, 51, 0
5, 173952, Note_on_c, 9, 51, 38
5, 173952, Note_on_c, 9, 44, 73
5, 174016, Note_on_c, 9, 51, 0
5, 174072, Note_on_c, 9, 44, 0
5, 174336, Note_on_c, 9, 51, 54
5, 174584, Note_on_c, 9, 51, 0
5, 174720, Note_on_c, 9, 51, 54
5, 174720, Note_on_c, 9, 44, 71
5, 174848, Note_on_c, 9, 51, 0
5, 174856, Note_on_c, 9, 44, 0
5, 174976, Note_on_c, 9, 51, 39
5, 175040, Note_on_c, 9, 51, 0
5, 175104, Note_on_c, 9, 51, 33
5, 175280, Note_on_c, 9, 51, 0
5, 175488, Note_on_c, 9, 51, 48
5, 175488, Note_on_c, 9, 44, 71
5, 175632, Note_on_c, 9, 44, 0
5, 175668, Note_on_c, 9, 51, 0
5, 175872, Note_on_c, 9, 51, 56
5, 176048, Note_on_c, 9, 51, 0
5, 176256, Note_on_c, 9, 51, 47
5, 176256, Note_on_c, 9, 44, 71
5, 176396, Note_on_c, 9, 51, 0
5, 176400, Note_on_c, 9, 44, 0
5, 176512, Note_on_c, 9, 51, 43
5, 176576, Note_on_c, 9, 51, 0
5, 176640, Note_on_c, 9, 51, 55
5, 176836, Note_on_c, 9, 51, 0
5, 177024, Note_on_c, 9, 51, 59
5, 177024, Note_on_c, 9, 44, 71
5, 177148, Note_on_c, 9, 51, 0
5, 177168, Note_on_c, 9, 44, 0
5, 177280, Note_on_c, 9, 51, 46
5, 177344, Note_on_c, 9, 51, 0
5, 177408, Note_on_c, 9, 51, 46
5, 177572, Note_on_c, 9, 51, 0
5, 177792, Note_on_c, 9, 51, 59
5, 177792, Note_on_c, 9, 44, 71
5, 177920, Note_on_c, 9, 51, 0
5, 177944, Note_on_c, 9, 44, 0
5, 178048, Note_on_c, 9, 51, 36
5, 178112, Note_on_c, 9, 51, 0
5, 178176, Note_on_c, 9, 51, 53
5, 178316, Note_on_c, 9, 51, 0
5, 178560, Note_on_c, 9, 51, 61
5, 178560, Note_on_c, 9, 44, 71
5, 178656, Note_on_c, 9, 51, 0
5, 178712, Note_on_c, 9, 44, 0
5, 178816, Note_on_c, 9, 51, 31
5, 178880, Note_on_c, 9, 51, 0
5, 178944, Note_on_c, 9, 51, 52
5, 179100, Note_on_c, 9, 51, 0
5, 179328, Note_on_c, 9, 51, 60
5, 179328, Note_on_c, 9, 44, 71
5, 179496, Note_on_c, 9, 44, 0
5, 179500, Note_on_c, 9, 51, 0
5, 179712, Note_on_c, 9, 51, 59
5, 179836, Note_on_c, 9, 51, 0
5, 180096, Note_on_c, 9, 51, 55
5, 180096, Note_on_c, 9, 44, 74
5, 180196, Note_on_c, 9, 51, 0
5, 180264, Note_on_c, 9, 44, 0
5, 180352, Note_on_c, 9, 51, 43
5, 180416, Note_on_c, 9, 51, 0
5, 180480, Note_on_c, 9, 51, 53
5, 180612, Note_on_c, 9, 51, 0
5, 180864, Note_on_c, 9, 51, 57
5, 180864, Note_on_c, 9, 44, 71
5, 180948, Note_on_c, 9, 51, 0
5, 181008, Note_on_c, 9, 44, 0
5, 181248, Note_on_c, 9, 51, 57
5, 181324, Note_on_c, 9, 51, 0
5, 181632, Note_on_c, 9, 51, 56
5, 181632, Note_on_c, 9, 44, 71
5, 181708, Note_on_c, 9, 51, 0
5, 181776, Note_on_c, 9, 44, 0
5, 182016, Note_on_c, 9, 51, 58
5, 182088, Note_on_c, 9, 51, 0
5, 182400, Note_on_c, 9, 51, 58
5, 182400, Note_on_c, 9, 44, 70
5, 182488, Note_on_c, 9, 51, 0
5, 182528, Note_on_c, 9, 44, 0
5, 182656, Note_on_c, 9, 51, 39
5, 182720, Note_on_c, 9, 51, 0
5, 182784, Note_on_c, 9, 51, 55
5, 182908, Note_on_c, 9, 51, 0
5, 183168, Note_on_c, 9, 51, 59
5, 183168, Note_on_c, 9, 44, 74
5, 183232, Note_on_c, 9, 51, 0
5, 183296, Note_on_c, 9, 44, 0
5, 183424, Note_on_c, 9, 51, 28
5, 183488, Note_on_c, 9, 51, 0
5, 183552, Note_on_c, 9, 51, 53
5, 183708, Note_on_c, 9, 51, 0
5, 183936, Note_on_c, 9, 51, 50
5, 183936, Note_on_c, 9, 44, 76
5, 184072, Note_on_c, 9, 44, 0
5, 184128, Note_on_c, 9, 51, 0
5, 184192, Note_on_c, 9, 53, 61
5, 184256, Note_on_c, 9, 53, 0
5, 184320, Note_on_c, 9, 51, 43
5, 184540, Note_on_c, 9, 51, 0
5, 184704, Note_on_c, 9, 51, 49
5, 184704, Note_on_c, 9, 44, 75
5, 184848, Note_on_c, 9, 44, 0
5, 184848, Note_on_c, 9, 51, 0
5, 185088, Note_on_c, 9, 51, 51
5, 185192, Note_on_c, 9, 51, 0
5, 185344, Note_on_c, 9, 51, 56
5, 185432, Note_on_c, 9, 51, 0
5, 185472, Note_on_c, 9, 59, 49
5, 185472, Note_on_c, 9, 44, 74
5, 185616, Note_on_c, 9, 44, 0
5, 185676, Note_on_c, 9, 59, 0
5, 185728, Note_on_c, 9, 51, 71
5, 185856, Note_on_c, 9, 57, 34
5, 185924, Note_on_c, 9, 51, 0
5, 185928, Note_on_c, 9, 57, 0
5, 186240, Note_on_c, 9, 51, 47
5, 186240, Note_on_c, 9, 44, 75
5, 186304, Note_on_c, 9, 51, 0
5, 186408, Note_on_c, 9, 44, 0
5, 186624, Note_on_c, 9, 51, 58
5, 186724, Note_on_c, 9, 51, 0
5, 187008, Note_on_c, 9, 51, 57
5, 187008, Note_on_c, 9, 44, 74
5, 187072, Note_on_c, 9, 51, 0
5, 187160, Note_on_c, 9, 44, 0
5, 187264, Note_on_c, 9, 51, 52
5, 187328, Note_on_c, 9, 51, 0
5, 187392, Note_on_c, 9, 51, 47
5, 187492, Note_on_c, 9, 51, 0
5, 187776, Note_on_c, 9, 51, 57
5, 187776, Note_on_c, 9, 44, 71
5, 187860, Note_on_c, 9, 51, 0
5, 187944, Note_on_c, 9, 44, 0
5, 188160, Note_on_c, 9, 51, 55
5, 188224, Note_on_c, 9, 51, 0
5, 188544, Note_on_c, 9, 51, 55
5, 188544, Note_on_c, 9, 44, 73
5, 188608, Note_on_c, 9, 51, 0
5, 188696, Note_on_c, 9, 44, 0
5, 188800, Note_on_c, 9, 51, 50
5, 188864, Note_on_c, 9, 51, 0
5, 188928, Note_on_c, 9, 51, 50
5, 189056, Note_on_c, 9, 51, 0
5, 189312, Note_on_c, 9, 51, 63
5, 189312, Note_on_c, 9, 44, 69
5, 189408, Note_on_c, 9, 51, 0
5, 189448, Note_on_c, 9, 44, 0
5, 189568, Note_on_c, 9, 51, 27
5, 189632, Note_on_c, 9, 51, 0
5, 189696, Note_on_c, 9, 51, 57
5, 189828, Note_on_c, 9, 51, 0
5, 190080, Note_on_c, 9, 51, 56
5, 190080, Note_on_c, 9, 44, 69
5, 190144, Note_on_c, 9, 51, 0
5, 190200, Note_on_c, 9, 44, 0
5, 190336, Note_on_c, 9, 51, 43
5, 190400, Note_on_c, 9, 51, 0
5, 190464, Note_on_c, 9, 51, 55
5, 190528, Note_on_c, 9, 51, 0
5, 190848, Note_on_c, 9, 51, 57
5, 190848, Note_on_c, 9, 44, 70
5, 190912, Note_on_c, 9, 51, 0
5, 190944, Note_on_c, 9, 44, 0
5, 191104, Note_on_c, 9, 51, 47
5, 191168, Note_on_c, 9, 51, 0
5, 191232, Note_on_c, 9, 51, 62
5, 191296, Note_on_c, 9, 51, 0
5, 191616, Note_on_c, 9, 51, 60
5, 191616, Note_on_c, 9, 44, 68
5, 191680, Note_on_c, 9, 51, 0
5, 191704, Note_on_c, 9, 44, 0
5, 191872, Note_on_c, 9, 51, 55
5, 191936, Note_on_c, 9, 51, 0
5, 192000, Note_on_c, 9, 51, 63
5, 192064, Note_on_c, 9, 51, 0
5, 192384, Note_on_c, 9, 51, 58
5, 192384, Note_on_c, 9, 44, 68
5, 192448, Note_on_c, 9, 51, 0
5, 192496, Note_on_c, 9, 44, 0
5, 192640, Note_on_c, 9, 51, 40
5, 192704, Note_on_c, 9, 51, 0
5, 192768, Note_on_c, 9, 51, 49
5, 192840, Note_on_c, 9, 51, 0
5, 193152, Note_on_c, 9, 51, 56
5, 193152, Note_on_c, 9, 44, 69
5, 193216, Note_on_c, 9, 51, 0
5, 193256, Note_on_c, 9, 44, 0
5, 193408, Note_on_c, 9, 51, 49
5, 193472, Note_on_c, 9, 51, 0
5, 193536, Note_on_c, 9, 51, 43
5, 193628, Note_on_c, 9, 51, 0
5, 193920, Note_on_c, 9, 51, 51
5, 193920, Note_on_c, 9, 44, 71
5, 193984, Note_on_c, 9, 51, 0
5, 194000, Note_on_c, 9, 44, 0
5, 194176, Note_on_c, 9, 51, 34
5, 194240, Note_on_c, 9, 51, 0
5, 194304, Note_on_c, 9, 51, 55
5, 194368, Note_on_c, 9, 51, 0
5, 194688, Note_on_c, 9, 51, 54
5, 194688, Note_on_c, 9, 46, 51
5, 194752, Note_on_c, 9, 51, 0
5, 194776, Note_on_c, 9, 46, 0
5, 194944, Note_on_c, 9, 51, 62
5, 195008, Note_on_c, 9, 51, 0
5, 195072, Note_on_c, 9, 57, 40
5, 195136, Note_on_c, 9, 57, 0
5, 195328, Note_on_c, 9, 51, 62
5, 195392, Note_on_c, 9, 51, 0
5, 195456, Note_on_c, 9, 44, 61
5, 195456, Note_on_c, 9, 51, 50
5, 195520, Note_on_c, 9, 51, 0
5, 195520, Note_on_c, 9, 44, 0
5, 195712, Note_on_c, 9, 51, 71
5, 195776, Note_on_c, 9, 51, 0
5, 195840, Note_on_c, 9, 51, 50
5, 195904, Note_on_c, 9, 51, 0
5, 196224, Note_on_c, 9, 51, 56
5, 196224, Note_on_c, 9, 44, 67
5, 196288, Note_on_c, 9, 51, 0
5, 196352, Note_on_c, 9, 44, 0
5, 196480, Note_on_c, 9, 51, 58
5, 196544, Note_on_c, 9, 51, 0
5, 196608, Note_on_c, 9, 51, 57
5, 196672, Note_on_c, 9, 51, 0
5, 196992, Note_on_c, 9, 51, 67
5, 196992, Note_on_c, 9, 44, 67
5, 197056, Note_on_c, 9, 51, 0
5, 197096, Note_on_c, 9, 44, 0
5, 197248, Note_on_c, 9, 51, 68
5, 197312, Note_on_c, 9, 51, 0
5, 197376, Note_on_c, 9, 51, 56
5, 197440, Note_on_c, 9, 51, 0
5, 197632, Note_on_c, 9, 51, 67
5, 197696, Note_on_c, 9, 51, 0
5, 197760, Note_on_c, 9, 51, 33
5, 197760, Note_on_c, 9, 44, 65
5, 197824, Note_on_c, 9, 51, 0
5, 197856, Note_on_c, 9, 44, 0
5, 198016, Note_on_c, 9, 51, 62
5, 198080, Note_on_c, 9, 51, 0
5, 198144, Note_on_c, 9, 51, 50
5, 198208, Note_on_c, 9, 51, 0
5, 198400, Note_on_c, 9, 51, 62
5, 198464, Note_on_c, 9, 51, 0
5, 198464, End_track
6, 0, Start_track
6, 0, Title_t, "Drum 'Hits'"
6, 0, Control_c, 9, 7, 70
6, 0, Control_c, 9, 7, 85
6, 3724, Note_on_c, 9, 36, 63
6, 3768, Note_on_c, 9, 36, 0
6, 3856, Note_on_c, 9, 36, 63
6, 4012, Note_on_c, 9, 36, 0
6, 4476, Note_on_c, 9, 36, 54
6, 4512, Note_on_c, 9, 36, 0
6, 5268, Note_on_c, 9, 36, 40
6, 5300, Note_on_c, 9, 36, 0
6, 5404, Note_on_c, 9, 36, 38
6, 5572, Note_on_c, 9, 36, 0
6, 5636, Note_on_c, 9, 36, 32
6, 5672, Note_on_c, 9, 36, 0
6, 6004, Note_on_c, 9, 46, 57
6, 6044, Note_on_c, 9, 46, 0
6, 6412, Note_on_c, 9, 36, 36
6, 6436, Note_on_c, 9, 36, 0
6, 6544, Note_on_c, 9, 36, 45
6, 6676, Note_on_c, 9, 36, 0
6, 7696, Note_on_c, 9, 36, 32
6, 7728, Note_on_c, 9, 36, 0
6, 7932, Note_on_c, 9, 36, 44
6, 7996, Note_on_c, 9, 36, 0
6, 8832, Note_on_c, 9, 36, 64
6, 8832, Note_on_c, 9, 46, 62
6, 8912, Note_on_c, 9, 46, 0
6, 8956, Note_on_c, 9, 36, 0
6, 10008, Note_on_c, 9, 36, 33
6, 10164, Note_on_c, 9, 36, 0
6, 10232, Note_on_c, 9, 36, 24
6, 10260, Note_on_c, 9, 36, 0
6, 12064, Note_on_c, 9, 36, 49
6, 12084, Note_on_c, 9, 36, 0
6, 12156, Note_on_c, 9, 36, 62
6, 12228, Note_on_c, 9, 36, 0
6, 12292, Note_on_c, 9, 36, 58
6, 12408, Note_on_c, 9, 36, 0
6, 13836, Note_on_c, 9, 36, 62
6, 13836, Note_on_c, 9, 57, 64
6, 13852, Note_on_c, 9, 57, 0
6, 13856, Note_on_c, 9, 36, 0
6, 14472, Note_on_c, 9, 36, 60
6, 14492, Note_on_c, 9, 36, 0
6, 16380, Note_on_c, 9, 36, 76
6, 16472, Note_on_c, 9, 36, 0
6, 16512, Note_on_c, 9, 36, 68
6, 16628, Note_on_c, 9, 36, 0
6, 16768, Note_on_c, 9, 36, 73
6, 16828, Note_on_c, 9, 36, 0
6, 17556, Note_on_c, 9, 36, 43
6, 17580, Note_on_c, 9, 36, 0
6, 19460, Note_on_c, 9, 36, 55
6, 19516, Note_on_c, 9, 36, 0
6, 19600, Note_on_c, 9, 36, 34
6, 19636, Note_on_c, 9, 36, 0
6, 19820, Note_on_c, 9, 57, 53
6, 19824, Note_on_c, 9, 36, 61
6, 19840, Note_on_c, 9, 57, 0
6, 19880, Note_on_c, 9, 36, 0
6, 20608, Note_on_c, 9, 36, 76
6, 20672, Note_on_c, 9, 36, 0
6, 20748, Note_on_c, 9, 36, 45
6, 20868, Note_on_c, 9, 36, 0
6, 21384, Note_on_c, 9, 36, 79
6, 21424, Note_on_c, 9, 36, 0
6, 22152, Note_on_c, 9, 36, 62
6, 22216, Note_on_c, 9, 36, 0
6, 22288, Note_on_c, 9, 36, 54
6, 22388, Note_on_c, 9, 36, 0
6, 22920, Note_on_c, 9, 36, 48
6, 22952, Note_on_c, 9, 36, 0
6, 23556, Note_on_c, 9, 37, 46
6, 23588, Note_on_c, 9, 37, 0
6, 23664, Note_on_c, 9, 36, 50
6, 23712, Note_on_c, 9, 36, 0
6, 23800, Note_on_c, 9, 37, 49
6, 23848, Note_on_c, 9, 37, 0
6, 23916, Note_on_c, 9, 37, 46
6, 23956, Note_on_c, 9, 37, 0
6, 24048, Note_on_c, 9, 36, 53
6, 24068, Note_on_c, 9, 36, 0
6, 24192, Note_on_c, 9, 37, 73
6, 24260, Note_on_c, 9, 37, 0
6, 24312, Note_on_c, 9, 37, 48
6, 24360, Note_on_c, 9, 37, 0
6, 24440, Note_on_c, 9, 36, 53
6, 24480, Note_on_c, 9, 36, 0
6, 25612, Note_on_c, 9, 36, 50
6, 25636, Note_on_c, 9, 36, 0
6, 25768, Note_on_c, 9, 36, 25
6, 25784, Note_on_c, 9, 36, 0
6, 25968, Note_on_c, 9, 57, 88
6, 25980, Note_on_c, 9, 36, 67
6, 26000, Note_on_c, 9, 57, 0
6, 26576, Note_on_c, 9, 36, 0
6, 26736, Note_on_c, 9, 36, 67
6, 26776, Note_on_c, 9, 36, 0
6, 27532, Note_on_c, 9, 36, 51
6, 27600, Note_on_c, 9, 36, 0
6, 27668, Note_on_c, 9, 36, 46
6, 27736, Note_on_c, 9, 36, 0
6, 28700, Note_on_c, 9, 36, 35
6, 28728, Note_on_c, 9, 36, 0
6, 28844, Note_on_c, 9, 36, 54
6, 28868, Note_on_c, 9, 36, 0
6, 29072, Note_on_c, 9, 36, 53
6, 29108, Note_on_c, 9, 36, 0
6, 29588, Note_on_c, 9, 53, 48
6, 29608, Note_on_c, 9, 53, 0
6, 29820, Note_on_c, 9, 53, 80
6, 29852, Note_on_c, 9, 53, 0
6, 30084, Note_on_c, 9, 53, 60
6, 30112, Note_on_c, 9, 53, 0
6, 30220, Note_on_c, 9, 36, 39
6, 30244, Note_on_c, 9, 36, 0
6, 30356, Note_on_c, 9, 53, 79
6, 30396, Note_on_c, 9, 53, 0
6, 30604, Note_on_c, 9, 36, 64
6, 30660, Note_on_c, 9, 36, 0
6, 31748, Note_on_c, 9, 36, 74
6, 31804, Note_on_c, 9, 36, 0
6, 31884, Note_on_c, 9, 36, 53
6, 31952, Note_on_c, 9, 36, 0
6, 32156, Note_on_c, 9, 36, 66
6, 32204, Note_on_c, 9, 36, 0
6, 32300, Note_on_c, 9, 57, 66
6, 32304, Note_on_c, 9, 36, 55
6, 32320, Note_on_c, 9, 57, 0
6, 32348, Note_on_c, 9, 36, 0
6, 32892, Note_on_c, 9, 36, 73
6, 32956, Note_on_c, 9, 36, 0
6, 33808, Note_on_c, 9, 36, 54
6, 33884, Note_on_c, 9, 36, 0
6, 34040, Note_on_c, 9, 36, 50
6, 34084, Note_on_c, 9, 36, 0
6, 35208, Note_on_c, 9, 36, 69
6, 35304, Note_on_c, 9, 36, 0
6, 35348, Note_on_c, 9, 36, 55
6, 35540, Note_on_c, 9, 36, 0
6, 35976, Note_on_c, 9, 36, 84
6, 36032, Note_on_c, 9, 36, 0
6, 36880, Note_on_c, 9, 36, 52
6, 36904, Note_on_c, 9, 36, 0
6, 37128, Note_on_c, 9, 36, 77
6, 37180, Note_on_c, 9, 36, 0
6, 38280, Note_on_c, 9, 36, 81
6, 38352, Note_on_c, 9, 36, 0
6, 38420, Note_on_c, 9, 36, 48
6, 38484, Note_on_c, 9, 36, 0
6, 39704, Note_on_c, 9, 36, 51
6, 39772, Note_on_c, 9, 36, 0
6, 39956, Note_on_c, 9, 36, 56
6, 40020, Note_on_c, 9, 36, 0
6, 40596, Note_on_c, 9, 36, 34
6, 40620, Note_on_c, 9, 36, 0
6, 40708, Note_on_c, 9, 36, 64
6, 40748, Note_on_c, 9, 36, 0
6, 40848, Note_on_c, 9, 53, 41
6, 40880, Note_on_c, 9, 53, 0
6, 40972, Note_on_c, 9, 36, 36
6, 40996, Note_on_c, 9, 36, 0
6, 41112, Note_on_c, 9, 53, 74
6, 41128, Note_on_c, 9, 53, 0
6, 41344, Note_on_c, 9, 53, 80
6, 41380, Note_on_c, 9, 53, 0
6, 41496, Note_on_c, 9, 36, 41
6, 41520, Note_on_c, 9, 36, 0
6, 41752, Note_on_c, 9, 36, 68
6, 41824, Note_on_c, 9, 36, 0
6, 41876, Note_on_c, 9, 36, 46
6, 41968, Note_on_c, 9, 36, 0
6, 42512, Note_on_c, 9, 36, 66
6, 42564, Note_on_c, 9, 36, 0
6, 42648, Note_on_c, 9, 36, 40
6, 42704, Note_on_c, 9, 36, 0
6, 43664, Note_on_c, 9, 36, 52
6, 43692, Note_on_c, 9, 36, 0
6, 43800, Note_on_c, 9, 36, 49
6, 43896, Note_on_c, 9, 36, 0
6, 44440, Note_on_c, 9, 36, 85
6, 44540, Note_on_c, 9, 36, 0
6, 45696, Note_on_c, 9, 36, 50
6, 45900, Note_on_c, 9, 36, 0
6, 45952, Note_on_c, 9, 36, 74
6, 46024, Note_on_c, 9, 36, 0
6, 46724, Note_on_c, 9, 36, 72
6, 46768, Note_on_c, 9, 36, 0
6, 47516, Note_on_c, 9, 36, 76
6, 47556, Note_on_c, 9, 36, 0
6, 49812, Note_on_c, 9, 37, 73
6, 49860, Note_on_c, 9, 37, 0
6, 49956, Note_on_c, 9, 37, 62
6, 50112, Note_on_c, 9, 37, 0
6, 50352, Note_on_c, 9, 37, 62
6, 50384, Note_on_c, 9, 37, 0
6, 50480, Note_on_c, 9, 37, 75
6, 50700, Note_on_c, 9, 37, 0
6, 50724, Note_on_c, 9, 36, 68
6, 50876, Note_on_c, 9, 36, 0
6, 51352, Note_on_c, 9, 36, 61
6, 51392, Note_on_c, 9, 36, 0
6, 52620, Note_on_c, 9, 37, 64
6, 52648, Note_on_c, 9, 37, 0
6, 52740, Note_on_c, 9, 37, 65
6, 52764, Note_on_c, 9, 37, 0
6, 52860, Note_on_c, 9, 36, 79
6, 52964, Note_on_c, 9, 36, 0
6, 53824, Note_on_c, 9, 36, 57
6, 53988, Note_on_c, 9, 36, 0
6, 54048, Note_on_c, 9, 36, 49
6, 54072, Note_on_c, 9, 36, 0
6, 54432, Note_on_c, 9, 36, 57
6, 54460, Note_on_c, 9, 36, 0
6, 56500, Note_on_c, 9, 36, 56
6, 56564, Note_on_c, 9, 36, 0
6, 56592, Note_on_c, 9, 36, 40
6, 56668, Note_on_c, 9, 36, 0
6, 56728, Note_on_c, 9, 36, 85
6, 56824, Note_on_c, 9, 36, 0
6, 58272, Note_on_c, 9, 36, 59
6, 58356, Note_on_c, 9, 36, 0
6, 58408, Note_on_c, 9, 36, 50
6, 58516, Note_on_c, 9, 36, 0
6, 59140, Note_on_c, 9, 40, 64
6, 59160, Note_on_c, 9, 40, 0
6, 59252, Note_on_c, 9, 40, 57
6, 59276, Note_on_c, 9, 40, 0
6, 59392, Note_on_c, 9, 36, 28
6, 59408, Note_on_c, 9, 36, 0
6, 59516, Note_on_c, 9, 40, 77
6, 59572, Note_on_c, 9, 40, 0
6, 59772, Note_on_c, 9, 36, 82
6, 59864, Note_on_c, 9, 36, 0
6, 61324, Note_on_c, 9, 36, 62
6, 61408, Note_on_c, 9, 36, 0
6, 61464, Note_on_c, 9, 36, 42
6, 61592, Note_on_c, 9, 36, 0
6, 62096, Note_on_c, 9, 36, 39
6, 62144, Note_on_c, 9, 36, 0
6, 62372, Note_on_c, 9, 50, 71
6, 62408, Note_on_c, 9, 50, 0
6, 62480, Note_on_c, 9, 50, 87
6, 62556, Note_on_c, 9, 50, 0
6, 62600, Note_on_c, 9, 48, 64
6, 62648, Note_on_c, 9, 48, 0
6, 62708, Note_on_c, 9, 47, 71
6, 62740, Note_on_c, 9, 47, 0
6, 62836, Note_on_c, 9, 36, 83
6, 62960, Note_on_c, 9, 36, 0
6, 63620, Note_on_c, 9, 36, 45
6, 63648, Note_on_c, 9, 36, 0
6, 64940, Note_on_c, 9, 36, 40
6, 65024, Note_on_c, 9, 36, 0
6, 65176, Note_on_c, 9, 36, 66
6, 65272, Note_on_c, 9, 36, 0
6, 65692, Note_on_c, 9, 36, 41
6, 65904, Note_on_c, 9, 36, 0
6, 65936, Note_on_c, 9, 36, 79
6, 65988, Note_on_c, 9, 36, 0
6, 67468, Note_on_c, 9, 36, 49
6, 67492, Note_on_c, 9, 36, 0
6, 67600, Note_on_c, 9, 36, 59
6, 67656, Note_on_c, 9, 36, 0
6, 69144, Note_on_c, 9, 36, 83
6, 69240, Note_on_c, 9, 36, 0
6, 69780, Note_on_c, 9, 36, 69
6, 69860, Note_on_c, 9, 36, 0
6, 69896, Note_on_c, 9, 36, 66
6, 69972, Note_on_c, 9, 36, 0
6, 71324, Note_on_c, 9, 36, 36
6, 71352, Note_on_c, 9, 36, 0
6, 72436, Note_on_c, 9, 40, 44
6, 72488, Note_on_c, 9, 40, 0
6, 72604, Note_on_c, 9, 36, 20
6, 72624, Note_on_c, 9, 36, 0
6, 73196, Note_on_c, 9, 40, 60
6, 73260, Note_on_c, 9, 40, 0
6, 73340, Note_on_c, 9, 36, 39
6, 73436, Note_on_c, 9, 36, 0
6, 73972, Note_on_c, 9, 40, 60
6, 74040, Note_on_c, 9, 40, 0
6, 74248, Note_on_c, 9, 40, 60
6, 74280, Note_on_c, 9, 40, 0
6, 74368, Note_on_c, 9, 40, 69
6, 74412, Note_on_c, 9, 40, 0
6, 74624, Note_on_c, 9, 36, 66
6, 74668, Note_on_c, 9, 36, 0
6, 74740, Note_on_c, 9, 36, 72
6, 74784, Note_on_c, 9, 36, 0
6, 75008, Note_on_c, 9, 37, 75
6, 75064, Note_on_c, 9, 37, 0
6, 75128, Note_on_c, 9, 37, 67
6, 75248, Note_on_c, 9, 37, 0
6, 75268, Note_on_c, 9, 57, 92
6, 75272, Note_on_c, 9, 36, 74
6, 75308, Note_on_c, 9, 57, 0
6, 75704, Note_on_c, 9, 36, 0
6, 75912, Note_on_c, 9, 36, 76
6, 75956, Note_on_c, 9, 36, 0
6, 77340, Note_on_c, 9, 37, 36
6, 77380, Note_on_c, 9, 37, 0
6, 77452, Note_on_c, 9, 37, 84
6, 77528, Note_on_c, 9, 37, 0
6, 78084, Note_on_c, 9, 37, 59
6, 78124, Note_on_c, 9, 37, 0
6, 78200, Note_on_c, 9, 37, 67
6, 78308, Note_on_c, 9, 37, 0
6, 78332, Note_on_c, 9, 57, 76
6, 78332, Note_on_c, 9, 36, 67
6, 78452, Note_on_c, 9, 57, 0
6, 78812, Note_on_c, 9, 36, 0
6, 78972, Note_on_c, 9, 36, 71
6, 79016, Note_on_c, 9, 36, 0
6, 79896, Note_on_c, 9, 36, 56
6, 80088, Note_on_c, 9, 36, 0
6, 80124, Note_on_c, 9, 36, 58
6, 80164, Note_on_c, 9, 36, 0
6, 81176, Note_on_c, 9, 37, 74
6, 81276, Note_on_c, 9, 36, 79
6, 81288, Note_on_c, 9, 37, 0
6, 81384, Note_on_c, 9, 36, 0
6, 81416, Note_on_c, 9, 36, 53
6, 81568, Note_on_c, 9, 36, 0
6, 82044, Note_on_c, 9, 36, 56
6, 82076, Note_on_c, 9, 36, 0
6, 82864, Note_on_c, 9, 36, 33
6, 82892, Note_on_c, 9, 36, 0
6, 82988, Note_on_c, 9, 36, 31
6, 83020, Note_on_c, 9, 36, 0
6, 83608, Note_on_c, 9, 36, 57
6, 83648, Note_on_c, 9, 36, 0
6, 85536, Note_on_c, 9, 36, 35
6, 85560, Note_on_c, 9, 36, 0
6, 85664, Note_on_c, 9, 47, 92
6, 85724, Note_on_c, 9, 47, 0
6, 85776, Note_on_c, 9, 43, 40
6, 85800, Note_on_c, 9, 43, 0
6, 85908, Note_on_c, 9, 36, 72
6, 85984, Note_on_c, 9, 36, 0
6, 86804, Note_on_c, 9, 47, 90
6, 86868, Note_on_c, 9, 47, 0
6, 86916, Note_on_c, 9, 43, 53
6, 86940, Note_on_c, 9, 43, 0
6, 87072, Note_on_c, 9, 36, 35
6, 87096, Note_on_c, 9, 36, 0
6, 87324, Note_on_c, 9, 36, 95
6, 87404, Note_on_c, 9, 36, 0
6, 88216, Note_on_c, 9, 36, 63
6, 88276, Note_on_c, 9, 36, 0
6, 88368, Note_on_c, 9, 36, 57
6, 88428, Note_on_c, 9, 36, 0
6, 88976, Note_on_c, 9, 36, 53
6, 89000, Note_on_c, 9, 36, 0
6, 90156, Note_on_c, 9, 37, 36
6, 90188, Note_on_c, 9, 37, 0
6, 90296, Note_on_c, 9, 37, 25
6, 90316, Note_on_c, 9, 37, 0
6, 90400, Note_on_c, 9, 37, 32
6, 90444, Note_on_c, 9, 37, 0
6, 90528, Note_on_c, 9, 36, 66
6, 90664, Note_on_c, 9, 36, 0
6, 91432, Note_on_c, 9, 36, 37
6, 91628, Note_on_c, 9, 36, 0
6, 91680, Note_on_c, 9, 36, 31
6, 91704, Note_on_c, 9, 36, 0
6, 92980, Note_on_c, 9, 47, 48
6, 93000, Note_on_c, 9, 47, 0
6, 93096, Note_on_c, 9, 47, 49
6, 93124, Note_on_c, 9, 47, 0
6, 93236, Note_on_c, 9, 40, 62
6, 93260, Note_on_c, 9, 40, 0
6, 93476, Note_on_c, 9, 36, 50
6, 93496, Note_on_c, 9, 36, 0
6, 93604, Note_on_c, 9, 36, 60
6, 93672, Note_on_c, 9, 36, 0
6, 93744, Note_on_c, 9, 36, 64
6, 93772, Note_on_c, 9, 36, 0
6, 94412, Note_on_c, 9, 37, 34
6, 94432, Note_on_c, 9, 37, 0
6, 94532, Note_on_c, 9, 36, 51
6, 94592, Note_on_c, 9, 36, 0
6, 94620, Note_on_c, 9, 36, 24
6, 94716, Note_on_c, 9, 36, 0
6, 94756, Note_on_c, 9, 36, 58
6, 94800, Note_on_c, 9, 36, 0
6, 95268, Note_on_c, 9, 36, 49
6, 95428, Note_on_c, 9, 36, 0
6, 95488, Note_on_c, 9, 36, 40
6, 95516, Note_on_c, 9, 36, 0
6, 95900, Note_on_c, 9, 38, 40
6, 95956, Note_on_c, 9, 38, 0
6, 96040, Note_on_c, 9, 36, 44
6, 96196, Note_on_c, 9, 36, 0
6, 96260, Note_on_c, 9, 36, 40
6, 96296, Note_on_c, 9, 36, 0
6, 96648, Note_on_c, 9, 36, 56
6, 96688, Note_on_c, 9, 36, 0
6, 97420, Note_on_c, 9, 36, 60
6, 97472, Note_on_c, 9, 36, 0
6, 97560, Note_on_c, 9, 36, 47
6, 97596, Note_on_c, 9, 36, 0
6, 98444, Note_on_c, 9, 48, 75
6, 98472, Note_on_c, 9, 48, 0
6, 98572, Note_on_c, 9, 48, 84
6, 98636, Note_on_c, 9, 48, 0
6, 98832, Note_on_c, 9, 47, 82
6, 98892, Note_on_c, 9, 47, 0
6, 98952, Note_on_c, 9, 47, 94
6, 99012, Note_on_c, 9, 47, 0
6, 99196, Note_on_c, 9, 45, 94
6, 99232, Note_on_c, 9, 45, 0
6, 99320, Note_on_c, 9, 40, 64
6, 99340, Note_on_c, 9, 40, 0
6, 99444, Note_on_c, 9, 40, 66
6, 99496, Note_on_c, 9, 40, 0
6, 99692, Note_on_c, 9, 37, 69
6, 99768, Note_on_c, 9, 37, 0
6, 99836, Note_on_c, 9, 69, 79
6, 99844, Note_on_c, 9, 36, 71
6, 99856, Note_on_c, 9, 69, 0
6, 99868, Note_on_c, 9, 36, 0
6, 100864, Note_on_c, 9, 36, 83
6, 100944, Note_on_c, 9, 36, 0
6, 101392, Note_on_c, 9, 36, 61
6, 101460, Note_on_c, 9, 36, 0
6, 102932, Note_on_c, 9, 36, 40
6, 103160, Note_on_c, 9, 36, 0
6, 103224, Note_on_c, 9, 36, 24
6, 103244, Note_on_c, 9, 36, 0
6, 105248, Note_on_c, 9, 37, 60
6, 105280, Note_on_c, 9, 37, 0
6, 105360, Note_on_c, 9, 37, 65
6, 105380, Note_on_c, 9, 37, 0
6, 105632, Note_on_c, 9, 37, 71
6, 105664, Note_on_c, 9, 37, 0
6, 105744, Note_on_c, 9, 37, 57
6, 105764, Note_on_c, 9, 37, 0
6, 105864, Note_on_c, 9, 36, 43
6, 105892, Note_on_c, 9, 36, 0
6, 105960, Note_on_c, 9, 36, 55
6, 106008, Note_on_c, 9, 36, 0
6, 106052, Note_on_c, 9, 36, 66
6, 106148, Note_on_c, 9, 36, 0
6, 106236, Note_on_c, 9, 36, 54
6, 106304, Note_on_c, 9, 36, 0
6, 106416, Note_on_c, 9, 36, 63
6, 106476, Note_on_c, 9, 36, 0
6, 106516, Note_on_c, 9, 36, 69
6, 106564, Note_on_c, 9, 36, 0
6, 108948, Note_on_c, 9, 38, 62
6, 109000, Note_on_c, 9, 38, 0
6, 109112, Note_on_c, 9, 36, 27
6, 109244, Note_on_c, 9, 36, 0
6, 109320, Note_on_c, 9, 36, 36
6, 109372, Note_on_c, 9, 36, 0
6, 110500, Note_on_c, 9, 36, 38
6, 110532, Note_on_c, 9, 36, 0
6, 111388, Note_on_c, 9, 38, 66
6, 111412, Note_on_c, 9, 38, 0
6, 111484, Note_on_c, 9, 38, 64
6, 111528, Note_on_c, 9, 38, 0
6, 111580, Note_on_c, 9, 38, 64
6, 111616, Note_on_c, 9, 38, 0
6, 111680, Note_on_c, 9, 38, 79
6, 111728, Note_on_c, 9, 38, 0
6, 111772, Note_on_c, 9, 38, 70
6, 111816, Note_on_c, 9, 38, 0
6, 111880, Note_on_c, 9, 37, 67
6, 111924, Note_on_c, 9, 37, 0
6, 111968, Note_on_c, 9, 37, 62
6, 112012, Note_on_c, 9, 37, 0
6, 112080, Note_on_c, 9, 37, 75
6, 112136, Note_on_c, 9, 37, 0
6, 112176, Note_on_c, 9, 36, 88
6, 112312, Note_on_c, 9, 36, 0
6, 112772, Note_on_c, 9, 36, 77
6, 112828, Note_on_c, 9, 36, 0
6, 114456, Note_on_c, 9, 45, 78
6, 114488, Note_on_c, 9, 45, 0
6, 114612, Note_on_c, 9, 36, 31
6, 114636, Note_on_c, 9, 36, 0
6, 114728, Note_on_c, 9, 45, 85
6, 114824, Note_on_c, 9, 45, 0
6, 114980, Note_on_c, 9, 36, 59
6, 115008, Note_on_c, 9, 36, 0
6, 115104, Note_on_c, 9, 36, 68
6, 115164, Note_on_c, 9, 36, 0
6, 115864, Note_on_c, 9, 36, 50
6, 115924, Note_on_c, 9, 36, 0
6, 115988, Note_on_c, 9, 36, 42
6, 116048, Note_on_c, 9, 36, 0
6, 116772, Note_on_c, 9, 36, 26
6, 116800, Note_on_c, 9, 36, 0
6, 117808, Note_on_c, 9, 37, 56
6, 117848, Note_on_c, 9, 37, 0
6, 117936, Note_on_c, 9, 37, 42
6, 117960, Note_on_c, 9, 37, 0
6, 118164, Note_on_c, 9, 37, 59
6, 118260, Note_on_c, 9, 37, 0
6, 118300, Note_on_c, 9, 36, 36
6, 118444, Note_on_c, 9, 36, 0
6, 118568, Note_on_c, 9, 36, 34
6, 118600, Note_on_c, 9, 36, 0
6, 119300, Note_on_c, 9, 37, 56
6, 119412, Note_on_c, 9, 37, 0
6, 119444, Note_on_c, 9, 36, 38
6, 119644, Note_on_c, 9, 36, 0
6, 119700, Note_on_c, 9, 36, 44
6, 119740, Note_on_c, 9, 36, 0
6, 120864, Note_on_c, 9, 38, 59
6, 120932, Note_on_c, 9, 38, 0
6, 121240, Note_on_c, 9, 36, 51
6, 121268, Note_on_c, 9, 36, 0
6, 122740, Note_on_c, 9, 50, 29
6, 122760, Note_on_c, 9, 50, 0
6, 123036, Note_on_c, 9, 50, 58
6, 123056, Note_on_c, 9, 50, 0
6, 123148, Note_on_c, 9, 50, 71
6, 123188, Note_on_c, 9, 50, 0
6, 123408, Note_on_c, 9, 48, 69
6, 123436, Note_on_c, 9, 48, 0
6, 123524, Note_on_c, 9, 48, 65
6, 123560, Note_on_c, 9, 48, 0
6, 123760, Note_on_c, 9, 47, 77
6, 123808, Note_on_c, 9, 47, 0
6, 123884, Note_on_c, 9, 47, 75
6, 123940, Note_on_c, 9, 47, 0
6, 124012, Note_on_c, 9, 45, 75
6, 124044, Note_on_c, 9, 45, 0
6, 124144, Note_on_c, 9, 36, 50
6, 124168, Note_on_c, 9, 36, 0
6, 124264, Note_on_c, 9, 36, 77
6, 124372, Note_on_c, 9, 36, 0
6, 124412, Note_on_c, 9, 37, 74
6, 124416, Note_on_c, 9, 69, 85
6, 124452, Note_on_c, 9, 69, 0
6, 124480, Note_on_c, 9, 37, 0
6, 125960, Note_on_c, 9, 36, 38
6, 126112, Note_on_c, 9, 36, 0
6, 126220, Note_on_c, 9, 36, 22
6, 126272, Note_on_c, 9, 36, 0
6, 126860, Note_on_c, 9, 37, 39
6, 126948, Note_on_c, 9, 37, 0
6, 126996, Note_on_c, 9, 36, 40
6, 127064, Note_on_c, 9, 36, 0
6, 127300, Note_on_c, 9, 37, 19
6, 127324, Note_on_c, 9, 37, 0
6, 129064, Note_on_c, 9, 40, 63
6, 129116, Note_on_c, 9, 40, 0
6, 129148, Note_on_c, 9, 40, 68
6, 129188, Note_on_c, 9, 40, 0
6, 129604, Note_on_c, 9, 40, 68
6, 129648, Note_on_c, 9, 40, 0
6, 129684, Note_on_c, 9, 40, 54
6, 129736, Note_on_c, 9, 40, 0
6, 130216, Note_on_c, 9, 40, 70
6, 130260, Note_on_c, 9, 40, 0
6, 130304, Note_on_c, 9, 40, 64
6, 130336, Note_on_c, 9, 40, 0
6, 130400, Note_on_c, 9, 37, 43
6, 130416, Note_on_c, 9, 37, 0
6, 130476, Note_on_c, 9, 37, 46
6, 130496, Note_on_c, 9, 37, 0
6, 130548, Note_on_c, 9, 37, 40
6, 130568, Note_on_c, 9, 37, 0
6, 130592, Note_on_c, 9, 36, 53
6, 130596, Note_on_c, 9, 57, 68
6, 130704, Note_on_c, 9, 57, 0
6, 130804, Note_on_c, 9, 36, 0
6, 131200, Note_on_c, 9, 36, 66
6, 131244, Note_on_c, 9, 36, 0
6, 131980, Note_on_c, 9, 36, 60
6, 132012, Note_on_c, 9, 36, 0
6, 133512, Note_on_c, 9, 36, 64
6, 134032, Note_on_c, 9, 36, 0
6, 134260, Note_on_c, 9, 36, 85
6, 134360, Note_on_c, 9, 36, 0
6, 134400, Note_on_c, 9, 36, 58
6, 134480, Note_on_c, 9, 36, 0
6, 135824, Note_on_c, 9, 36, 78
6, 135876, Note_on_c, 9, 36, 0
6, 136220, Note_on_c, 9, 36, 77
6, 136280, Note_on_c, 9, 36, 0
6, 136496, Note_on_c, 9, 37, 60
6, 136532, Note_on_c, 9, 37, 0
6, 136620, Note_on_c, 9, 36, 74
6, 136704, Note_on_c, 9, 36, 0
6, 136756, Note_on_c, 9, 36, 53
6, 136852, Note_on_c, 9, 36, 0
6, 137388, Note_on_c, 9, 36, 44
6, 137444, Note_on_c, 9, 36, 0
6, 137504, Note_on_c, 9, 36, 50
6, 137564, Note_on_c, 9, 36, 0
6, 138144, Note_on_c, 9, 36, 45
6, 138172, Note_on_c, 9, 36, 0
6, 138276, Note_on_c, 9, 36, 33
6, 138304, Note_on_c, 9, 36, 0
6, 138908, Note_on_c, 9, 36, 24
6, 138932, Note_on_c, 9, 36, 0
6, 139228, Note_on_c, 9, 53, 69
6, 139256, Note_on_c, 9, 53, 0
6, 139424, Note_on_c, 9, 53, 73
6, 139452, Note_on_c, 9, 53, 0
6, 139520, Note_on_c, 9, 53, 66
6, 139536, Note_on_c, 9, 53, 0
6, 139612, Note_on_c, 9, 36, 46
6, 139664, Note_on_c, 9, 36, 0
6, 139716, Note_on_c, 9, 36, 55
6, 139784, Note_on_c, 9, 36, 0
6, 139816, Note_on_c, 9, 36, 71
6, 139880, Note_on_c, 9, 36, 0
6, 140440, Note_on_c, 9, 36, 61
6, 140484, Note_on_c, 9, 36, 0
6, 141200, Note_on_c, 9, 36, 54
6, 141252, Note_on_c, 9, 36, 0
6, 141312, Note_on_c, 9, 36, 41
6, 141372, Note_on_c, 9, 36, 0
6, 141980, Note_on_c, 9, 36, 45
6, 142008, Note_on_c, 9, 36, 0
6, 142360, Note_on_c, 9, 40, 73
6, 142400, Note_on_c, 9, 40, 0
6, 142496, Note_on_c, 9, 36, 39
6, 142556, Note_on_c, 9, 36, 0
6, 142740, Note_on_c, 9, 36, 71
6, 142792, Note_on_c, 9, 36, 0
6, 143880, Note_on_c, 9, 36, 78
6, 143936, Note_on_c, 9, 36, 0
6, 144020, Note_on_c, 9, 36, 36
6, 144204, Note_on_c, 9, 36, 0
6, 144240, Note_on_c, 9, 36, 68
6, 144304, Note_on_c, 9, 36, 0
6, 144876, Note_on_c, 9, 38, 53
6, 144896, Note_on_c, 9, 38, 0
6, 145000, Note_on_c, 9, 38, 68
6, 145044, Note_on_c, 9, 38, 0
6, 145252, Note_on_c, 9, 38, 62
6, 145288, Note_on_c, 9, 38, 0
6, 145360, Note_on_c, 9, 36, 70
6, 145464, Note_on_c, 9, 36, 0
6, 145620, Note_on_c, 9, 38, 68
6, 145644, Note_on_c, 9, 38, 0
6, 145736, Note_on_c, 9, 36, 68
6, 145780, Note_on_c, 9, 36, 0
6, 146936, Note_on_c, 9, 38, 77
6, 147004, Note_on_c, 9, 38, 0
6, 147084, Note_on_c, 9, 36, 31
6, 147116, Note_on_c, 9, 36, 0
6, 147324, Note_on_c, 9, 36, 68
6, 147372, Note_on_c, 9, 36, 0
6, 147708, Note_on_c, 9, 38, 84
6, 147760, Note_on_c, 9, 38, 0
6, 147848, Note_on_c, 9, 36, 35
6, 147876, Note_on_c, 9, 36, 0
6, 148108, Note_on_c, 9, 36, 45
6, 148144, Note_on_c, 9, 36, 0
6, 148244, Note_on_c, 9, 38, 73
6, 148268, Note_on_c, 9, 38, 0
6, 148360, Note_on_c, 9, 36, 78
6, 148396, Note_on_c, 9, 36, 0
6, 148480, Note_on_c, 9, 37, 83
6, 148628, Note_on_c, 9, 37, 0
6, 148728, Note_on_c, 9, 37, 75
6, 148812, Note_on_c, 9, 37, 0
6, 148996, Note_on_c, 9, 36, 81
6, 149100, Note_on_c, 9, 36, 0
6, 149932, Note_on_c, 9, 37, 52
6, 149964, Note_on_c, 9, 37, 0
6, 150044, Note_on_c, 9, 37, 58
6, 150148, Note_on_c, 9, 37, 0
6, 150172, Note_on_c, 9, 36, 69
6, 150172, Note_on_c, 9, 57, 99
6, 150244, Note_on_c, 9, 57, 0
6, 150308, Note_on_c, 9, 36, 0
6, 151148, Note_on_c, 9, 37, 70
6, 151228, Note_on_c, 9, 37, 0
6, 151276, Note_on_c, 9, 36, 39
6, 151476, Note_on_c, 9, 36, 0
6, 151524, Note_on_c, 9, 36, 53
6, 151556, Note_on_c, 9, 36, 0
6, 152080, Note_on_c, 9, 36, 58
6, 152124, Note_on_c, 9, 36, 0
6, 153244, Note_on_c, 9, 37, 93
6, 153312, Note_on_c, 9, 37, 0
6, 153496, Note_on_c, 9, 36, 49
6, 153516, Note_on_c, 9, 36, 0
6, 153624, Note_on_c, 9, 36, 46
6, 153652, Note_on_c, 9, 36, 0
6, 154260, Note_on_c, 9, 36, 40
6, 154288, Note_on_c, 9, 36, 0
6, 154760, Note_on_c, 9, 37, 104
6, 154844, Note_on_c, 9, 37, 0
6, 155012, Note_on_c, 9, 36, 47
6, 155040, Note_on_c, 9, 36, 0
6, 155152, Note_on_c, 9, 36, 32
6, 155328, Note_on_c, 9, 36, 0
6, 155396, Note_on_c, 9, 36, 48
6, 155440, Note_on_c, 9, 36, 0
6, 156300, Note_on_c, 9, 37, 95
6, 156372, Note_on_c, 9, 37, 0
6, 156536, Note_on_c, 9, 36, 50
6, 156560, Note_on_c, 9, 36, 0
6, 156688, Note_on_c, 9, 36, 38
6, 156712, Note_on_c, 9, 36, 0
6, 157216, Note_on_c, 9, 38, 66
6, 157236, Note_on_c, 9, 38, 0
6, 157328, Note_on_c, 9, 38, 82
6, 157372, Note_on_c, 9, 38, 0
6, 157700, Note_on_c, 9, 36, 35
6, 157720, Note_on_c, 9, 36, 0
6, 157836, Note_on_c, 9, 37, 102
6, 157896, Note_on_c, 9, 37, 0
6, 158072, Note_on_c, 9, 36, 54
6, 158116, Note_on_c, 9, 36, 0
6, 158220, Note_on_c, 9, 36, 51
6, 158276, Note_on_c, 9, 36, 0
6, 158868, Note_on_c, 9, 36, 64
6, 158912, Note_on_c, 9, 36, 0
6, 159616, Note_on_c, 9, 36, 68
6, 159656, Note_on_c, 9, 36, 0
6, 159744, Note_on_c, 9, 36, 65
6, 159780, Note_on_c, 9, 36, 0
6, 160404, Note_on_c, 9, 36, 32
6, 160432, Note_on_c, 9, 36, 0
6, 160916, Note_on_c, 9, 37, 99
6, 160968, Note_on_c, 9, 37, 0
6, 161168, Note_on_c, 9, 36, 25
6, 161196, Note_on_c, 9, 36, 0
6, 161296, Note_on_c, 9, 36, 32
6, 161328, Note_on_c, 9, 36, 0
6, 161660, Note_on_c, 9, 47, 74
6, 161784, Note_on_c, 9, 47, 0
6, 161916, Note_on_c, 9, 47, 71
6, 162096, Note_on_c, 9, 47, 0
6, 162296, Note_on_c, 9, 36, 28
6, 162320, Note_on_c, 9, 36, 0
6, 162432, Note_on_c, 9, 37, 92
6, 162528, Note_on_c, 9, 37, 0
6, 162708, Note_on_c, 9, 36, 28
6, 162732, Note_on_c, 9, 36, 0
6, 162840, Note_on_c, 9, 36, 44
6, 162960, Note_on_c, 9, 36, 0
6, 163220, Note_on_c, 9, 47, 66
6, 163324, Note_on_c, 9, 47, 0
6, 163452, Note_on_c, 9, 47, 113
6, 163680, Note_on_c, 9, 47, 0
6, 163840, Note_on_c, 9, 36, 27
6, 163860, Note_on_c, 9, 36, 0
6, 163956, Note_on_c, 9, 37, 69
6, 164096, Note_on_c, 9, 37, 0
6, 164608, Note_on_c, 9, 36, 54
6, 164628, Note_on_c, 9, 36, 0
6, 164756, Note_on_c, 9, 47, 108
6, 164912, Note_on_c, 9, 47, 0
6, 164984, Note_on_c, 9, 47, 108
6, 165200, Note_on_c, 9, 47, 0
6, 165360, Note_on_c, 9, 36, 34
6, 165384, Note_on_c, 9, 36, 0
6, 165488, Note_on_c, 9, 37, 78
6, 165640, Note_on_c, 9, 37, 0
6, 166140, Note_on_c, 9, 36, 49
6, 166160, Note_on_c, 9, 36, 0
6, 166288, Note_on_c, 9, 47, 80
6, 166428, Note_on_c, 9, 47, 0
6, 166528, Note_on_c, 9, 47, 76
6, 166600, Note_on_c, 9, 47, 0
6, 167064, Note_on_c, 9, 37, 53
6, 167228, Note_on_c, 9, 37, 0
6, 167296, Note_on_c, 9, 37, 65
6, 167336, Note_on_c, 9, 37, 0
6, 167692, Note_on_c, 9, 36, 36
6, 167716, Note_on_c, 9, 36, 0
6, 168444, Note_on_c, 9, 36, 35
6, 168468, Note_on_c, 9, 36, 0
6, 168544, Note_on_c, 9, 37, 94
6, 168668, Note_on_c, 9, 37, 0
6, 170128, Note_on_c, 9, 37, 83
6, 170160, Note_on_c, 9, 37, 0
6, 170356, Note_on_c, 9, 36, 83
6, 170444, Note_on_c, 9, 36, 0
6, 170480, Note_on_c, 9, 36, 68
6, 170556, Note_on_c, 9, 36, 0
6, 171136, Note_on_c, 9, 36, 66
6, 171224, Note_on_c, 9, 36, 0
6, 171276, Note_on_c, 9, 36, 44
6, 171348, Note_on_c, 9, 36, 0
6, 171896, Note_on_c, 9, 36, 73
6, 171972, Note_on_c, 9, 36, 0
6, 172048, Note_on_c, 9, 36, 54
6, 172104, Note_on_c, 9, 36, 0
6, 172568, Note_on_c, 9, 37, 65
6, 172616, Note_on_c, 9, 37, 0
6, 172680, Note_on_c, 9, 37, 65
6, 172744, Note_on_c, 9, 37, 0
6, 172932, Note_on_c, 9, 37, 73
6, 173032, Note_on_c, 9, 37, 0
6, 173184, Note_on_c, 9, 37, 67
6, 173248, Note_on_c, 9, 37, 0
6, 173436, Note_on_c, 9, 36, 82
6, 173492, Note_on_c, 9, 36, 0
6, 173576, Note_on_c, 9, 57, 88
6, 173580, Note_on_c, 9, 36, 82
6, 173700, Note_on_c, 9, 57, 0
6, 173804, Note_on_c, 9, 36, 0
6, 174220, Note_on_c, 9, 36, 87
6, 174276, Note_on_c, 9, 36, 0
6, 174744, Note_on_c, 9, 37, 49
6, 174764, Note_on_c, 9, 37, 0
6, 174860, Note_on_c, 9, 37, 69
6, 174912, Note_on_c, 9, 37, 0
6, 174980, Note_on_c, 9, 36, 90
6, 174988, Note_on_c, 9, 57, 103
6, 175096, Note_on_c, 9, 57, 0
6, 175128, Note_on_c, 9, 36, 0
6, 175744, Note_on_c, 9, 36, 60
6, 175816, Note_on_c, 9, 36, 0
6, 175888, Note_on_c, 9, 36, 41
6, 175916, Note_on_c, 9, 36, 0
6, 176660, Note_on_c, 9, 36, 34
6, 176688, Note_on_c, 9, 36, 0
6, 177268, Note_on_c, 9, 36, 53
6, 177292, Note_on_c, 9, 36, 0
6, 179328, Note_on_c, 9, 37, 64
6, 179364, Note_on_c, 9, 37, 0
6, 179452, Note_on_c, 9, 37, 56
6, 179472, Note_on_c, 9, 37, 0
6, 179588, Note_on_c, 9, 36, 58
6, 179612, Note_on_c, 9, 36, 0
6, 179728, Note_on_c, 9, 37, 51
6, 179760, Note_on_c, 9, 37, 0
6, 179848, Note_on_c, 9, 37, 51
6, 179864, Note_on_c, 9, 37, 0
6, 179976, Note_on_c, 9, 36, 40
6, 180000, Note_on_c, 9, 36, 0
6, 180120, Note_on_c, 9, 36, 51
6, 180164, Note_on_c, 9, 36, 0
6, 180364, Note_on_c, 9, 36, 55
6, 180384, Note_on_c, 9, 36, 0
6, 181908, Note_on_c, 9, 36, 47
6, 181932, Note_on_c, 9, 36, 0
6, 182440, Note_on_c, 9, 38, 55
6, 182468, Note_on_c, 9, 38, 0
6, 182564, Note_on_c, 9, 36, 43
6, 182588, Note_on_c, 9, 36, 0
6, 182688, Note_on_c, 9, 38, 66
6, 182752, Note_on_c, 9, 38, 0
6, 182824, Note_on_c, 9, 36, 33
6, 182864, Note_on_c, 9, 36, 0
6, 183056, Note_on_c, 9, 36, 43
6, 183080, Note_on_c, 9, 36, 0
6, 183712, Note_on_c, 9, 38, 47
6, 183728, Note_on_c, 9, 38, 0
6, 183828, Note_on_c, 9, 36, 34
6, 183852, Note_on_c, 9, 36, 0
6, 183968, Note_on_c, 9, 38, 62
6, 184004, Note_on_c, 9, 38, 0
6, 184204, Note_on_c, 9, 38, 71
6, 184272, Note_on_c, 9, 38, 0
6, 184340, Note_on_c, 9, 36, 32
6, 184376, Note_on_c, 9, 36, 0
6, 184576, Note_on_c, 9, 36, 27
6, 184600, Note_on_c, 9, 36, 0
6, 185344, Note_on_c, 9, 36, 88
6, 185448, Note_on_c, 9, 36, 0
6, 185484, Note_on_c, 9, 36, 71
6, 185652, Note_on_c, 9, 36, 0
6, 185732, Note_on_c, 9, 36, 85
6, 185828, Note_on_c, 9, 36, 0
6, 185864, Note_on_c, 9, 36, 64
6, 185928, Note_on_c, 9, 36, 0
6, 186508, Note_on_c, 9, 36, 47
6, 186528, Note_on_c, 9, 36, 0
6, 186644, Note_on_c, 9, 36, 50
6, 186672, Note_on_c, 9, 36, 0
6, 187276, Note_on_c, 9, 36, 50
6, 187300, Note_on_c, 9, 36, 0
6, 188312, Note_on_c, 9, 38, 52
6, 188328, Note_on_c, 9, 38, 0
6, 188568, Note_on_c, 9, 38, 70
6, 188604, Note_on_c, 9, 38, 0
6, 188712, Note_on_c, 9, 36, 35
6, 188736, Note_on_c, 9, 36, 0
6, 188824, Note_on_c, 9, 36, 85
6, 188932, Note_on_c, 9, 36, 0
6, 189580, Note_on_c, 9, 36, 61
6, 189664, Note_on_c, 9, 36, 0
6, 189724, Note_on_c, 9, 36, 36
6, 189832, Note_on_c, 9, 36, 0
6, 190344, Note_on_c, 9, 36, 35
6, 190372, Note_on_c, 9, 36, 0
6, 191660, Note_on_c, 9, 36, 41
6, 191748, Note_on_c, 9, 36, 0
6, 191864, Note_on_c, 9, 36, 64
6, 191988, Note_on_c, 9, 36, 0
6, 192404, Note_on_c, 9, 36, 35
6, 192624, Note_on_c, 9, 36, 0
6, 192668, Note_on_c, 9, 36, 53
6, 192712, Note_on_c, 9, 36, 0
6, 193180, Note_on_c, 9, 36, 35
6, 193376, Note_on_c, 9, 36, 0
6, 193412, Note_on_c, 9, 36, 65
6, 193456, Note_on_c, 9, 36, 0
6, 193828, Note_on_c, 9, 36, 26
6, 193852, Note_on_c, 9, 36, 0
6, 193932, Note_on_c, 9, 38, 68
6, 193964, Note_on_c, 9, 38, 0
6, 194044, Note_on_c, 9, 38, 53
6, 194068, Note_on_c, 9, 38, 0
6, 194428, Note_on_c, 9, 38, 53
6, 194452, Note_on_c, 9, 38, 0
6, 194564, Note_on_c, 9, 36, 38
6, 194592, Note_on_c, 9, 36, 0
6, 194700, Note_on_c, 9, 38, 45
6, 194720, Note_on_c, 9, 38, 0
6, 194956, Note_on_c, 9, 36, 68
6, 195024, Note_on_c, 9, 36, 0
6, 195316, Note_on_c, 9, 36, 76
6, 195404, Note_on_c, 9, 36, 0
6, 195444, Note_on_c, 9, 36, 53
6, 195528, Note_on_c, 9, 36, 0
6, 195720, Note_on_c, 9, 36, 57
6, 195764, Note_on_c, 9, 36, 0
6, 196104, Note_on_c, 9, 38, 51
6, 196120, Note_on_c, 9, 38, 0
6, 196252, Note_on_c, 9, 38, 70
6, 196276, Note_on_c, 9, 38, 0
6, 196388, Note_on_c, 9, 36, 35
6, 196412, Note_on_c, 9, 36, 0
6, 196504, Note_on_c, 9, 36, 57
6, 196540, Note_on_c, 9, 36, 0
6, 196648, Note_on_c, 9, 38, 71
6, 196712, Note_on_c, 9, 38, 0
6, 196856, Note_on_c, 9, 36, 52
6, 196904, Note_on_c, 9, 36, 0
6, 197012, Note_on_c, 9, 38, 51
6, 197032, Note_on_c, 9, 38, 0
6, 197244, Note_on_c, 9, 57, 87
6, 197248, Note_on_c, 9, 36, 72
6, 197920, Note_on_c, 9, 36, 0
6, 197932, Note_on_c, 9, 57, 0
6, 197932, End_track
7, 0, Start_track
7, 0, Title_t, "Brushes  "
7, 0, Program_c, 9, 40
7, 0, Control_c, 9, 7, 96
7, 768, Note_on_c, 9, 24, 29
7, 960, Note_on_c, 9, 24, 0
7, 1152, Note_on_c, 9, 24, 35
7, 1344, Note_on_c, 9, 24, 0
7, 1536, Note_on_c, 9, 39, 26
7, 1816, Note_on_c, 9, 39, 0
7, 1920, Note_on_c, 9, 40, 28
7, 1920, Note_on_c, 9, 44, 49
7, 2112, Note_on_c, 9, 44, 0
7, 2240, Note_on_c, 9, 40, 0
7, 2304, Note_on_c, 9, 40, 25
7, 2620, Note_on_c, 9, 40, 0
7, 2688, Note_on_c, 9, 40, 28
7, 2688, Note_on_c, 9, 44, 51
7, 2880, Note_on_c, 9, 44, 0
7, 3008, Note_on_c, 9, 40, 0
7, 3072, Note_on_c, 9, 40, 35
7, 3320, Note_on_c, 9, 40, 0
7, 3328, Note_on_c, 9, 39, 32
7, 3436, Note_on_c, 9, 39, 0
7, 3456, Note_on_c, 9, 40, 24
7, 3456, Note_on_c, 9, 44, 46
7, 3648, Note_on_c, 9, 44, 0
7, 3772, Note_on_c, 9, 40, 0
7, 3840, Note_on_c, 9, 40, 25
7, 4100, Note_on_c, 9, 40, 0
7, 4224, Note_on_c, 9, 40, 21
7, 4224, Note_on_c, 9, 44, 44
7, 4416, Note_on_c, 9, 44, 0
7, 4548, Note_on_c, 9, 40, 0
7, 4608, Note_on_c, 9, 40, 33
7, 4932, Note_on_c, 9, 40, 0
7, 4992, Note_on_c, 9, 40, 28
7, 4992, Note_on_c, 9, 44, 46
7, 5184, Note_on_c, 9, 44, 0
7, 5296, Note_on_c, 9, 40, 0
7, 5376, Note_on_c, 9, 40, 26
7, 5560, Note_on_c, 9, 40, 0
7, 5632, Note_on_c, 9, 40, 41
7, 5696, Note_on_c, 9, 40, 0
7, 5760, Note_on_c, 9, 40, 39
7, 5760, Note_on_c, 9, 44, 46
7, 5952, Note_on_c, 9, 44, 0
7, 6064, Note_on_c, 9, 40, 0
7, 6144, Note_on_c, 9, 40, 26
7, 6460, Note_on_c, 9, 40, 0
7, 6528, Note_on_c, 9, 40, 34
7, 6528, Note_on_c, 9, 44, 44
7, 6720, Note_on_c, 9, 44, 0
7, 6848, Note_on_c, 9, 40, 0
7, 6912, Note_on_c, 9, 40, 30
7, 7232, Note_on_c, 9, 40, 0
7, 7296, Note_on_c, 9, 40, 24
7, 7296, Note_on_c, 9, 44, 46
7, 7488, Note_on_c, 9, 44, 0
7, 7552, Note_on_c, 9, 39, 30
7, 7568, Note_on_c, 9, 40, 0
7, 7672, Note_on_c, 9, 39, 0
7, 7680, Note_on_c, 9, 40, 25
7, 7988, Note_on_c, 9, 40, 0
7, 8064, Note_on_c, 9, 40, 27
7, 8064, Note_on_c, 9, 44, 46
7, 8256, Note_on_c, 9, 44, 0
7, 8316, Note_on_c, 9, 40, 0
7, 8448, Note_on_c, 9, 40, 25
7, 8772, Note_on_c, 9, 40, 0
7, 8832, Note_on_c, 9, 40, 26
7, 8832, Note_on_c, 9, 44, 37
7, 9024, Note_on_c, 9, 44, 0
7, 9152, Note_on_c, 9, 40, 0
7, 9216, Note_on_c, 9, 40, 29
7, 9528, Note_on_c, 9, 40, 0
7, 9600, Note_on_c, 9, 40, 25
7, 9600, Note_on_c, 9, 44, 40
7, 9792, Note_on_c, 9, 44, 0
7, 9920, Note_on_c, 9, 40, 0
7, 9984, Note_on_c, 9, 40, 29
7, 10312, Note_on_c, 9, 40, 0
7, 10368, Note_on_c, 9, 46, 36
7, 10368, Note_on_c, 9, 40, 27
7, 10560, Note_on_c, 9, 46, 0
7, 10624, Note_on_c, 9, 39, 36
7, 10636, Note_on_c, 9, 40, 0
7, 10744, Note_on_c, 9, 39, 0
7, 10752, Note_on_c, 9, 40, 23
7, 11072, Note_on_c, 9, 40, 0
7, 11136, Note_on_c, 9, 40, 32
7, 11136, Note_on_c, 9, 44, 47
7, 11328, Note_on_c, 9, 44, 0
7, 11452, Note_on_c, 9, 40, 0
7, 11520, Note_on_c, 9, 40, 34
7, 11760, Note_on_c, 9, 40, 0
7, 11904, Note_on_c, 9, 40, 25
7, 11904, Note_on_c, 9, 44, 44
7, 12096, Note_on_c, 9, 44, 0
7, 12144, Note_on_c, 9, 40, 0
7, 12288, Note_on_c, 9, 40, 24
7, 12600, Note_on_c, 9, 40, 0
7, 12672, Note_on_c, 9, 40, 30
7, 12672, Note_on_c, 9, 44, 42
7, 12864, Note_on_c, 9, 44, 0
7, 12996, Note_on_c, 9, 40, 0
7, 13056, Note_on_c, 9, 40, 32
7, 13184, Note_on_c, 9, 39, 25
7, 13196, Note_on_c, 9, 40, 0
7, 13312, Note_on_c, 9, 40, 32
7, 13340, Note_on_c, 9, 39, 0
7, 13440, Note_on_c, 9, 44, 42
7, 13440, Note_on_c, 9, 39, 36
7, 13460, Note_on_c, 9, 40, 0
7, 13568, Note_on_c, 9, 40, 22
7, 13576, Note_on_c, 9, 39, 0
7, 13632, Note_on_c, 9, 44, 0
7, 13652, Note_on_c, 9, 40, 0
7, 13696, Note_on_c, 9, 40, 39
7, 13808, Note_on_c, 9, 40, 0
7, 13824, Note_on_c, 9, 40, 39
7, 14196, Note_on_c, 9, 40, 0
7, 14208, Note_on_c, 9, 44, 46
7, 14208, Note_on_c, 9, 40, 42
7, 14400, Note_on_c, 9, 44, 0
7, 14508, Note_on_c, 9, 40, 0
7, 14592, Note_on_c, 9, 40, 35
7, 14820, Note_on_c, 9, 40, 0
7, 14848, Note_on_c, 9, 39, 35
7, 14940, Note_on_c, 9, 39, 0
7, 14976, Note_on_c, 9, 40, 34
7, 14976, Note_on_c, 9, 44, 47
7, 15168, Note_on_c, 9, 44, 0
7, 15288, Note_on_c, 9, 40, 0
7, 15360, Note_on_c, 9, 40, 27
7, 15640, Note_on_c, 9, 40, 0
7, 15744, Note_on_c, 9, 40, 35
7, 15744, Note_on_c, 9, 44, 46
7, 15936, Note_on_c, 9, 44, 0
7, 16048, Note_on_c, 9, 40, 0
7, 16128, Note_on_c, 9, 40, 28
7, 16388, Note_on_c, 9, 40, 0
7, 16512, Note_on_c, 9, 40, 26
7, 16512, Note_on_c, 9, 44, 43
7, 16704, Note_on_c, 9, 44, 0
7, 16780, Note_on_c, 9, 40, 0
7, 16896, Note_on_c, 9, 40, 28
7, 17216, Note_on_c, 9, 40, 0
7, 17280, Note_on_c, 9, 40, 32
7, 17280, Note_on_c, 9, 44, 47
7, 17472, Note_on_c, 9, 44, 0
7, 17608, Note_on_c, 9, 40, 0
7, 17664, Note_on_c, 9, 40, 28
7, 17920, Note_on_c, 9, 39, 32
7, 17928, Note_on_c, 9, 40, 0
7, 17988, Note_on_c, 9, 39, 0
7, 18048, Note_on_c, 9, 44, 44
7, 18048, Note_on_c, 9, 40, 28
7, 18240, Note_on_c, 9, 44, 0
7, 18304, Note_on_c, 9, 39, 48
7, 18320, Note_on_c, 9, 40, 0
7, 18368, Note_on_c, 9, 39, 0
7, 18432, Note_on_c, 9, 40, 22
7, 18736, Note_on_c, 9, 40, 0
7, 18816, Note_on_c, 9, 40, 25
7, 18816, Note_on_c, 9, 44, 43
7, 19008, Note_on_c, 9, 44, 0
7, 19032, Note_on_c, 9, 40, 0
7, 19072, Note_on_c, 9, 40, 33
7, 19140, Note_on_c, 9, 40, 0
7, 19200, Note_on_c, 9, 40, 29
7, 19520, Note_on_c, 9, 40, 0
7, 19584, Note_on_c, 9, 40, 35
7, 19584, Note_on_c, 9, 44, 43
7, 19776, Note_on_c, 9, 44, 0
7, 19816, Note_on_c, 9, 40, 0
7, 19840, Note_on_c, 9, 39, 51
7, 19904, Note_on_c, 9, 39, 0
7, 19968, Note_on_c, 9, 40, 25
7, 20172, Note_on_c, 9, 40, 0
7, 20224, Note_on_c, 9, 39, 52
7, 20288, Note_on_c, 9, 39, 0
7, 20352, Note_on_c, 9, 40, 29
7, 20352, Note_on_c, 9, 44, 37
7, 20544, Note_on_c, 9, 44, 0
7, 20656, Note_on_c, 9, 40, 0
7, 20736, Note_on_c, 9, 40, 30
7, 21044, Note_on_c, 9, 40, 0
7, 21120, Note_on_c, 9, 40, 29
7, 21120, Note_on_c, 9, 44, 39
7, 21296, Note_on_c, 9, 40, 0
7, 21312, Note_on_c, 9, 44, 0
7, 21376, Note_on_c, 9, 40, 30
7, 21448, Note_on_c, 9, 40, 0
7, 21504, Note_on_c, 9, 40, 42
7, 21816, Note_on_c, 9, 40, 0
7, 21888, Note_on_c, 9, 40, 33
7, 21888, Note_on_c, 9, 44, 41
7, 22080, Note_on_c, 9, 44, 0
7, 22196, Note_on_c, 9, 40, 0
7, 22272, Note_on_c, 9, 40, 26
7, 22508, Note_on_c, 9, 40, 0
7, 22528, Note_on_c, 9, 39, 51
7, 22592, Note_on_c, 9, 39, 0
7, 22656, Note_on_c, 9, 40, 25
7, 22656, Note_on_c, 9, 44, 47
7, 22848, Note_on_c, 9, 44, 0
7, 22884, Note_on_c, 9, 40, 0
7, 22912, Note_on_c, 9, 39, 49
7, 22976, Note_on_c, 9, 39, 0
7, 23040, Note_on_c, 9, 40, 23
7, 23328, Note_on_c, 9, 40, 0
7, 23424, Note_on_c, 9, 40, 31
7, 23424, Note_on_c, 9, 44, 42
7, 23608, Note_on_c, 9, 40, 0
7, 23616, Note_on_c, 9, 44, 0
7, 23680, Note_on_c, 9, 40, 25
7, 23744, Note_on_c, 9, 40, 0
7, 23808, Note_on_c, 9, 40, 34
7, 24112, Note_on_c, 9, 40, 0
7, 24192, Note_on_c, 9, 40, 39
7, 24192, Note_on_c, 9, 44, 44
7, 24384, Note_on_c, 9, 44, 0
7, 24384, Note_on_c, 9, 40, 0
7, 24448, Note_on_c, 9, 40, 35
7, 24528, Note_on_c, 9, 40, 0
7, 24576, Note_on_c, 9, 40, 40
7, 24864, Note_on_c, 9, 40, 0
7, 24960, Note_on_c, 9, 40, 42
7, 24960, Note_on_c, 9, 44, 49
7, 25152, Note_on_c, 9, 44, 0
7, 25180, Note_on_c, 9, 40, 0
7, 25216, Note_on_c, 9, 40, 36
7, 25296, Note_on_c, 9, 40, 0
7, 25344, Note_on_c, 9, 40, 30
7, 25632, Note_on_c, 9, 40, 0
7, 25728, Note_on_c, 9, 46, 37
7, 25728, Note_on_c, 9, 40, 46
7, 25920, Note_on_c, 9, 46, 0
7, 25964, Note_on_c, 9, 40, 0
7, 25984, Note_on_c, 9, 40, 32
7, 26056, Note_on_c, 9, 40, 0
7, 26112, Note_on_c, 9, 40, 35
7, 26424, Note_on_c, 9, 40, 0
7, 26496, Note_on_c, 9, 44, 42
7, 26496, Note_on_c, 9, 40, 43
7, 26688, Note_on_c, 9, 44, 0
7, 26752, Note_on_c, 9, 40, 0
7, 26752, Note_on_c, 9, 40, 30
7, 26824, Note_on_c, 9, 40, 0
7, 26880, Note_on_c, 9, 40, 40
7, 27204, Note_on_c, 9, 40, 0
7, 27264, Note_on_c, 9, 40, 35
7, 27264, Note_on_c, 9, 44, 39
7, 27456, Note_on_c, 9, 44, 0
7, 27520, Note_on_c, 9, 39, 48
7, 27524, Note_on_c, 9, 40, 0
7, 27584, Note_on_c, 9, 39, 0
7, 27648, Note_on_c, 9, 40, 28
7, 27956, Note_on_c, 9, 40, 0
7, 28032, Note_on_c, 9, 40, 31
7, 28348, Note_on_c, 9, 40, 0
7, 28416, Note_on_c, 9, 40, 29
7, 28540, Note_on_c, 9, 40, 0
7, 28672, Note_on_c, 9, 40, 23
7, 28736, Note_on_c, 9, 40, 0
7, 28800, Note_on_c, 9, 44, 46
7, 28928, Note_on_c, 9, 40, 25
7, 28992, Note_on_c, 9, 40, 0
7, 28992, Note_on_c, 9, 44, 0
7, 29184, Note_on_c, 9, 40, 28
7, 29468, Note_on_c, 9, 40, 0
7, 29568, Note_on_c, 9, 40, 28
7, 29568, Note_on_c, 9, 44, 42
7, 29760, Note_on_c, 9, 44, 0
7, 29772, Note_on_c, 9, 40, 0
7, 29824, Note_on_c, 9, 40, 32
7, 29888, Note_on_c, 9, 40, 0
7, 29952, Note_on_c, 9, 40, 32
7, 30120, Note_on_c, 9, 40, 0
7, 30208, Note_on_c, 9, 40, 18
7, 30272, Note_on_c, 9, 40, 0
7, 30336, Note_on_c, 9, 40, 43
7, 30336, Note_on_c, 9, 44, 54
7, 30528, Note_on_c, 9, 44, 0
7, 30668, Note_on_c, 9, 40, 0
7, 30720, Note_on_c, 9, 40, 30
7, 30948, Note_on_c, 9, 40, 0
7, 30976, Note_on_c, 9, 40, 16
7, 31040, Note_on_c, 9, 40, 0
7, 31104, Note_on_c, 9, 40, 34
7, 31104, Note_on_c, 9, 44, 52
7, 31296, Note_on_c, 9, 44, 0
7, 31416, Note_on_c, 9, 40, 0
7, 31488, Note_on_c, 9, 40, 30
7, 31780, Note_on_c, 9, 40, 0
7, 31872, Note_on_c, 9, 40, 40
7, 31872, Note_on_c, 9, 44, 49
7, 32064, Note_on_c, 9, 44, 0
7, 32184, Note_on_c, 9, 40, 0
7, 32256, Note_on_c, 9, 40, 30
7, 32464, Note_on_c, 9, 40, 0
7, 32512, Note_on_c, 9, 40, 18
7, 32576, Note_on_c, 9, 40, 0
7, 32640, Note_on_c, 9, 40, 24
7, 32640, Note_on_c, 9, 44, 50
7, 32832, Note_on_c, 9, 44, 0
7, 32956, Note_on_c, 9, 40, 0
7, 33024, Note_on_c, 9, 40, 27
7, 33340, Note_on_c, 9, 40, 0
7, 33408, Note_on_c, 9, 44, 51
7, 33408, Note_on_c, 9, 40, 29
7, 33600, Note_on_c, 9, 44, 0
7, 33648, Note_on_c, 9, 40, 0
7, 33664, Note_on_c, 9, 40, 36
7, 33728, Note_on_c, 9, 40, 0
7, 33792, Note_on_c, 9, 40, 29
7, 34112, Note_on_c, 9, 40, 0
7, 34176, Note_on_c, 9, 44, 49
7, 34176, Note_on_c, 9, 40, 32
7, 34368, Note_on_c, 9, 44, 0
7, 34376, Note_on_c, 9, 40, 0
7, 34432, Note_on_c, 9, 40, 28
7, 34496, Note_on_c, 9, 40, 0
7, 34560, Note_on_c, 9, 40, 28
7, 34788, Note_on_c, 9, 40, 0
7, 34816, Note_on_c, 9, 39, 49
7, 34896, Note_on_c, 9, 39, 0
7, 34944, Note_on_c, 9, 40, 28
7, 34944, Note_on_c, 9, 44, 50
7, 35132, Note_on_c, 9, 40, 0
7, 35136, Note_on_c, 9, 44, 0
7, 35200, Note_on_c, 9, 40, 29
7, 35264, Note_on_c, 9, 40, 0
7, 35328, Note_on_c, 9, 40, 28
7, 35624, Note_on_c, 9, 40, 0
7, 35712, Note_on_c, 9, 40, 35
7, 35712, Note_on_c, 9, 44, 49
7, 35904, Note_on_c, 9, 44, 0
7, 35912, Note_on_c, 9, 40, 0
7, 35968, Note_on_c, 9, 40, 23
7, 36044, Note_on_c, 9, 40, 0
7, 36096, Note_on_c, 9, 40, 35
7, 36412, Note_on_c, 9, 40, 0
7, 36480, Note_on_c, 9, 40, 25
7, 36480, Note_on_c, 9, 44, 46
7, 36672, Note_on_c, 9, 44, 0
7, 36796, Note_on_c, 9, 40, 0
7, 36864, Note_on_c, 9, 40, 31
7, 37116, Note_on_c, 9, 40, 0
7, 37120, Note_on_c, 9, 39, 39
7, 37192, Note_on_c, 9, 39, 0
7, 37248, Note_on_c, 9, 40, 25
7, 37248, Note_on_c, 9, 44, 45
7, 37380, Note_on_c, 9, 40, 0
7, 37440, Note_on_c, 9, 44, 0
7, 37504, Note_on_c, 9, 40, 51
7, 37596, Note_on_c, 9, 40, 0
7, 37632, Note_on_c, 9, 40, 37
7, 37888, Note_on_c, 9, 40, 0
7, 37888, Note_on_c, 9, 39, 32
7, 38016, Note_on_c, 9, 44, 48
7, 38016, Note_on_c, 9, 40, 35
7, 38020, Note_on_c, 9, 39, 0
7, 38208, Note_on_c, 9, 44, 0
7, 38336, Note_on_c, 9, 40, 0
7, 38400, Note_on_c, 9, 40, 34
7, 38644, Note_on_c, 9, 40, 0
7, 38656, Note_on_c, 9, 39, 23
7, 38756, Note_on_c, 9, 39, 0
7, 38784, Note_on_c, 9, 40, 37
7, 38784, Note_on_c, 9, 44, 50
7, 38976, Note_on_c, 9, 44, 0
7, 39104, Note_on_c, 9, 40, 0
7, 39168, Note_on_c, 9, 40, 30
7, 39480, Note_on_c, 9, 40, 0
7, 39552, Note_on_c, 9, 40, 34
7, 39552, Note_on_c, 9, 44, 51
7, 39724, Note_on_c, 9, 40, 0
7, 39744, Note_on_c, 9, 44, 0
7, 39808, Note_on_c, 9, 40, 30
7, 39872, Note_on_c, 9, 40, 0
7, 39936, Note_on_c, 9, 40, 31
7, 40188, Note_on_c, 9, 40, 0
7, 40320, Note_on_c, 9, 40, 28
7, 40320, Note_on_c, 9, 44, 47
7, 40512, Note_on_c, 9, 44, 0
7, 40632, Note_on_c, 9, 40, 0
7, 40704, Note_on_c, 9, 40, 28
7, 41008, Note_on_c, 9, 40, 0
7, 41088, Note_on_c, 9, 40, 28
7, 41088, Note_on_c, 9, 44, 48
7, 41280, Note_on_c, 9, 44, 0
7, 41332, Note_on_c, 9, 40, 0
7, 41344, Note_on_c, 9, 39, 38
7, 41444, Note_on_c, 9, 39, 0
7, 41472, Note_on_c, 9, 40, 30
7, 41764, Note_on_c, 9, 40, 0
7, 41856, Note_on_c, 9, 40, 30
7, 41856, Note_on_c, 9, 44, 46
7, 42048, Note_on_c, 9, 44, 0
7, 42096, Note_on_c, 9, 40, 0
7, 42112, Note_on_c, 9, 39, 25
7, 42188, Note_on_c, 9, 39, 0
7, 42240, Note_on_c, 9, 40, 37
7, 42556, Note_on_c, 9, 40, 0
7, 42624, Note_on_c, 9, 40, 32
7, 42624, Note_on_c, 9, 44, 49
7, 42816, Note_on_c, 9, 44, 0
7, 42948, Note_on_c, 9, 40, 0
7, 43008, Note_on_c, 9, 40, 36
7, 43256, Note_on_c, 9, 40, 0
7, 43264, Note_on_c, 9, 39, 25
7, 43360, Note_on_c, 9, 39, 0
7, 43392, Note_on_c, 9, 40, 37
7, 43392, Note_on_c, 9, 44, 49
7, 43584, Note_on_c, 9, 44, 0
7, 43708, Note_on_c, 9, 40, 0
7, 43776, Note_on_c, 9, 40, 32
7, 44020, Note_on_c, 9, 40, 0
7, 44032, Note_on_c, 9, 39, 27
7, 44144, Note_on_c, 9, 39, 0
7, 44160, Note_on_c, 9, 40, 36
7, 44160, Note_on_c, 9, 44, 49
7, 44352, Note_on_c, 9, 44, 0
7, 44416, Note_on_c, 9, 39, 33
7, 44424, Note_on_c, 9, 40, 0
7, 44544, Note_on_c, 9, 40, 40
7, 44556, Note_on_c, 9, 39, 0
7, 44872, Note_on_c, 9, 40, 0
7, 44928, Note_on_c, 9, 40, 30
7, 44928, Note_on_c, 9, 44, 46
7, 45120, Note_on_c, 9, 44, 0
7, 45184, Note_on_c, 9, 39, 32
7, 45188, Note_on_c, 9, 40, 0
7, 45292, Note_on_c, 9, 39, 0
7, 45312, Note_on_c, 9, 40, 30
7, 45312, Note_on_c, 9, 51, 25
7, 45376, Note_on_c, 9, 51, 0
7, 45568, Note_on_c, 9, 39, 39
7, 45584, Note_on_c, 9, 40, 0
7, 45696, Note_on_c, 9, 44, 47
7, 45696, Note_on_c, 9, 40, 38
7, 45712, Note_on_c, 9, 39, 0
7, 45888, Note_on_c, 9, 44, 0
7, 45904, Note_on_c, 9, 40, 0
7, 45952, Note_on_c, 9, 40, 28
7, 46024, Note_on_c, 9, 40, 0
7, 46080, Note_on_c, 9, 40, 27
7, 46396, Note_on_c, 9, 40, 0
7, 46464, Note_on_c, 9, 40, 34
7, 46464, Note_on_c, 9, 44, 50
7, 46656, Note_on_c, 9, 44, 0
7, 46720, Note_on_c, 9, 40, 0
7, 46720, Note_on_c, 9, 39, 35
7, 46836, Note_on_c, 9, 39, 0
7, 46848, Note_on_c, 9, 40, 34
7, 47104, Note_on_c, 9, 39, 18
7, 47112, Note_on_c, 9, 40, 0
7, 47224, Note_on_c, 9, 39, 0
7, 47232, Note_on_c, 9, 40, 37
7, 47232, Note_on_c, 9, 51, 30
7, 47232, Note_on_c, 9, 44, 51
7, 47296, Note_on_c, 9, 51, 0
7, 47424, Note_on_c, 9, 44, 0
7, 47472, Note_on_c, 9, 40, 0
7, 47488, Note_on_c, 9, 39, 25
7, 47576, Note_on_c, 9, 39, 0
7, 47616, Note_on_c, 9, 40, 32
7, 47872, Note_on_c, 9, 40, 0
7, 47872, Note_on_c, 9, 39, 42
7, 47988, Note_on_c, 9, 39, 0
7, 48000, Note_on_c, 9, 40, 43
7, 48000, Note_on_c, 9, 51, 36
7, 48000, Note_on_c, 9, 44, 50
7, 48064, Note_on_c, 9, 51, 0
7, 48192, Note_on_c, 9, 44, 0
7, 48248, Note_on_c, 9, 40, 0
7, 48256, Note_on_c, 9, 39, 37
7, 48372, Note_on_c, 9, 39, 0
7, 48384, Note_on_c, 9, 40, 37
7, 48620, Note_on_c, 9, 40, 0
7, 48640, Note_on_c, 9, 39, 42
7, 48744, Note_on_c, 9, 39, 0
7, 48768, Note_on_c, 9, 40, 42
7, 48768, Note_on_c, 9, 51, 38
7, 48768, Note_on_c, 9, 44, 45
7, 48832, Note_on_c, 9, 51, 0
7, 48960, Note_on_c, 9, 44, 0
7, 49016, Note_on_c, 9, 40, 0
7, 49024, Note_on_c, 9, 39, 37
7, 49140, Note_on_c, 9, 39, 0
7, 49152, Note_on_c, 9, 40, 29
7, 49396, Note_on_c, 9, 40, 0
7, 49408, Note_on_c, 9, 39, 39
7, 49520, Note_on_c, 9, 39, 0
7, 49536, Note_on_c, 9, 44, 49
7, 49536, Note_on_c, 9, 51, 34
7, 49536, Note_on_c, 9, 40, 42
7, 49612, Note_on_c, 9, 51, 0
7, 49728, Note_on_c, 9, 44, 0
7, 49752, Note_on_c, 9, 40, 0
7, 49920, Note_on_c, 9, 51, 44
7, 50156, Note_on_c, 9, 51, 0
7, 50304, Note_on_c, 9, 44, 52
7, 50304, Note_on_c, 9, 51, 43
7, 50496, Note_on_c, 9, 44, 0
7, 50600, Note_on_c, 9, 51, 0
7, 50688, Note_on_c, 9, 51, 48
7, 50776, Note_on_c, 9, 51, 0
7, 50776, End_track
0, 0, End_of_file
