0, 0, Header, 1, 17, 240
1, 0, Start_track
1, 0, Title_t, "JustYou,JustMe"
1, 0, Text_t, "Song is played sort of 'tongue-in-cheek'  - deliberately staccato/syncopated in a stilted old fashioned way\012"
1, 0, Text_t, "Jessica Williams plays it disguised as a tune called ""Justice'(=Just Us=JustYou, Just Me) on her solo 'Gratitude' CD\012"
1, 0, System_exclusive, 5, 126, 127, 9, 1, 247
1, 0, System_exclusive, 10, 65, 16, 66, 18, 64, 0, 127, 0, 65, 247
1, 0, Time_signature, 4, 2, 24, 8
1, 0, Key_signature, -1, "major"
1, 0, Tempo, 487805
1, 0, Marker_t, "Played with a very light touch on piano - "
1, 6227, Marker_t, "Blues Scale phrase on turnaround to 2nd 8 bars"
1, 6729, Marker_t, "No sustain pedal used on next 30 bars!"
1, 8811, Marker_t, "RH 'drumming' triplet pattern on octaves"
1, 10060, Marker_t, "On Gm7, surround the root, up to the 3rd, then arpeggiate a D7 chord"
1, 12909, Marker_t, "Notes from B diminished chord"
1, 13166, Marker_t, "Played with both R and Left hands"
1, 16503, Marker_t, "Quite easy run to execute on F7"
1, 16587, Marker_t, "Eb(3)G(5)Eb(3)C(2)A(Thumb)Ab(3)G(Thm)Gb(3)F(2)E(Thumb)"
1, 17280, Marker_t, "Arpeggiate BbMaj9th "
1, 17641, Marker_t, "Brief ascending Gb Major scale"
1, 18240, Marker_t, "Resolves back to Bb"
1, 27083, Marker_t, "Rh octaves, LH in unison 3 octaves below"
1, 30893, Marker_t, "All played staccato - kind of 'tongue in cheek'"
1, 35958, Marker_t, "Block chords - locked hands - LH plays 'drop 2'"
1, 44254, Marker_t, "Another Bluesy lick on turnaraound"
1, 45028, Marker_t, "Oscar Peterson - like single bass note on the dominant with grace note"
1, 45881, Marker_t, "Phrase based on F7 with neighbouring tones, chromatic connections and surround tones on the final note F"
1, 47993, Marker_t, "On Bb chord, ascending Gb Major scale for a a bar, then resolves back in key"
1, 50517, Marker_t, "Nice phrase based on alternating chord tones - with upper or lower Neighbours"
1, 63829, Marker_t, "Each note is repeated but played in triplet rhythm "
1, 68218, Marker_t, "On F triad same chord-tone-with-neighbour-tones as above at bar 53"
1, 75962, Marker_t, "Oscar Peterson-like percussive bass notes again   - on 5th with grace note(s)"
1, 84480, Marker_t, "Return to theme"
1, 84480, End_track
2, 0, Start_track
2, 0, Title_t, "Piano"
2, 0, Control_c, 0, 7, 100
2, 4, Note_on_c, 0, 62, 47
2, 4, Note_on_c, 0, 57, 31
2, 6, Note_on_c, 0, 67, 18
2, 6, Note_on_c, 0, 72, 55
2, 245, Control_c, 0, 64, 127
2, 489, Note_on_c, 0, 67, 0
2, 490, Note_on_c, 0, 62, 0
2, 508, Note_on_c, 0, 57, 0
2, 600, Note_on_c, 0, 72, 0
2, 881, Note_on_c, 0, 60, 37
2, 883, Note_on_c, 0, 65, 66
2, 883, Note_on_c, 0, 84, 85
2, 886, Note_on_c, 0, 72, 77
2, 888, Note_on_c, 0, 61, 52
2, 891, Note_on_c, 0, 55, 44
2, 915, Note_on_c, 0, 60, 0
2, 927, Note_on_c, 0, 55, 0
2, 937, Note_on_c, 0, 65, 0
2, 944, Note_on_c, 0, 72, 0
2, 950, Note_on_c, 0, 84, 0
2, 962, Note_on_c, 0, 61, 0
2, 984, Control_c, 0, 64, 0
2, 985, Note_on_c, 0, 74, 61
2, 986, Note_on_c, 0, 64, 55
2, 987, Note_on_c, 0, 86, 71
2, 988, Note_on_c, 0, 81, 58
2, 989, Note_on_c, 0, 60, 46
2, 990, Note_on_c, 0, 54, 56
2, 1090, Note_on_c, 0, 54, 0
2, 1093, Note_on_c, 0, 81, 0
2, 1095, Note_on_c, 0, 86, 0
2, 1095, Note_on_c, 0, 74, 0
2, 1096, Note_on_c, 0, 64, 0
2, 1096, Note_on_c, 0, 60, 0
2, 1600, Note_on_c, 0, 26, 36
2, 1621, Note_on_c, 0, 26, 0
2, 1677, Note_on_c, 0, 54, 29
2, 1680, Note_on_c, 0, 62, 34
2, 1683, Note_on_c, 0, 38, 19
2, 1685, Note_on_c, 0, 57, 34
2, 1708, Note_on_c, 0, 57, 0
2, 1713, Note_on_c, 0, 54, 0
2, 1715, Note_on_c, 0, 38, 0
2, 1717, Note_on_c, 0, 62, 0
2, 1910, Note_on_c, 0, 43, 36
2, 1914, Note_on_c, 0, 62, 34
2, 1918, Note_on_c, 0, 53, 22
2, 1921, Note_on_c, 0, 58, 25
2, 1928, Note_on_c, 0, 55, 28
2, 1949, Note_on_c, 0, 55, 0
2, 1950, Note_on_c, 0, 53, 0
2, 1961, Note_on_c, 0, 62, 0
2, 1974, Note_on_c, 0, 43, 0
2, 1974, Note_on_c, 0, 58, 0
2, 2215, Control_c, 0, 64, 127
2, 2398, Control_c, 0, 64, 0
2, 2644, Note_on_c, 0, 82, 57
2, 2646, Note_on_c, 0, 57, 40
2, 2646, Note_on_c, 0, 62, 43
2, 2649, Note_on_c, 0, 70, 43
2, 2649, Note_on_c, 0, 77, 50
2, 2650, Note_on_c, 0, 58, 44
2, 2686, Note_on_c, 0, 57, 0
2, 2689, Note_on_c, 0, 62, 0
2, 2690, Note_on_c, 0, 77, 0
2, 2691, Note_on_c, 0, 70, 0
2, 2699, Note_on_c, 0, 82, 0
2, 2702, Note_on_c, 0, 58, 0
2, 2886, Note_on_c, 0, 84, 49
2, 2888, Note_on_c, 0, 76, 37
2, 2888, Note_on_c, 0, 80, 38
2, 2891, Note_on_c, 0, 58, 45
2, 2895, Note_on_c, 0, 64, 32
2, 2933, Note_on_c, 0, 80, 0
2, 2933, Note_on_c, 0, 84, 0
2, 2933, Note_on_c, 0, 76, 0
2, 2937, Note_on_c, 0, 64, 0
2, 2945, Note_on_c, 0, 58, 0
2, 3358, Note_on_c, 0, 68, 47
2, 3359, Note_on_c, 0, 72, 51
2, 3360, Note_on_c, 0, 58, 35
2, 3370, Note_on_c, 0, 48, 25
2, 3373, Note_on_c, 0, 72, 0
2, 3383, Note_on_c, 0, 68, 0
2, 3384, Note_on_c, 0, 58, 0
2, 3385, Note_on_c, 0, 48, 0
2, 3520, Note_on_c, 0, 68, 39
2, 3524, Note_on_c, 0, 58, 37
2, 3527, Note_on_c, 0, 61, 46
2, 3529, Note_on_c, 0, 64, 44
2, 3531, Note_on_c, 0, 48, 43
2, 3589, Control_c, 0, 64, 127
2, 3618, Note_on_c, 0, 48, 0
2, 3690, Note_on_c, 0, 64, 0
2, 3693, Note_on_c, 0, 68, 0
2, 3727, Note_on_c, 0, 58, 0
2, 3758, Note_on_c, 0, 61, 0
2, 3832, Control_c, 0, 64, 0
2, 3840, Note_on_c, 0, 65, 37
2, 3847, Note_on_c, 0, 57, 27
2, 3850, Note_on_c, 0, 29, 20
2, 3851, Note_on_c, 0, 60, 32
2, 3870, Note_on_c, 0, 60, 0
2, 3872, Note_on_c, 0, 57, 0
2, 3883, Note_on_c, 0, 65, 0
2, 3927, Note_on_c, 0, 29, 0
2, 4319, Note_on_c, 0, 69, 36
2, 4320, Note_on_c, 0, 63, 34
2, 4323, Note_on_c, 0, 57, 29
2, 4331, Note_on_c, 0, 45, 26
2, 4400, Note_on_c, 0, 57, 0
2, 4401, Note_on_c, 0, 45, 0
2, 4401, Note_on_c, 0, 69, 0
2, 4407, Note_on_c, 0, 63, 0
2, 4564, Note_on_c, 0, 33, 49
2, 4633, Note_on_c, 0, 33, 0
2, 4799, Note_on_c, 0, 34, 46
2, 4801, Note_on_c, 0, 69, 34
2, 4802, Note_on_c, 0, 57, 30
2, 4804, Note_on_c, 0, 62, 41
2, 4806, Note_on_c, 0, 46, 29
2, 4809, Note_on_c, 0, 65, 34
2, 4833, Note_on_c, 0, 57, 0
2, 4837, Note_on_c, 0, 34, 0
2, 4843, Note_on_c, 0, 65, 0
2, 4851, Note_on_c, 0, 62, 0
2, 4853, Note_on_c, 0, 46, 0
2, 4874, Note_on_c, 0, 69, 0
2, 4965, Note_on_c, 0, 55, 60
2, 4968, Note_on_c, 0, 69, 64
2, 4969, Note_on_c, 0, 62, 62
2, 4970, Note_on_c, 0, 65, 54
2, 4971, Note_on_c, 0, 72, 62
2, 4975, Note_on_c, 0, 57, 64
2, 4976, Note_on_c, 0, 55, 0
2, 5054, Control_c, 0, 64, 127
2, 5321, Note_on_c, 0, 69, 0
2, 5336, Note_on_c, 0, 57, 0
2, 5337, Note_on_c, 0, 62, 0
2, 5350, Note_on_c, 0, 72, 0
2, 5361, Note_on_c, 0, 65, 0
2, 5445, Note_on_c, 0, 70, 53
2, 5446, Note_on_c, 0, 56, 43
2, 5452, Note_on_c, 0, 47, 35
2, 5454, Control_c, 0, 64, 0
2, 5454, Note_on_c, 0, 65, 40
2, 5455, Note_on_c, 0, 61, 30
2, 5468, Note_on_c, 0, 65, 0
2, 5476, Note_on_c, 0, 61, 0
2, 5477, Note_on_c, 0, 47, 0
2, 5485, Note_on_c, 0, 56, 0
2, 5496, Note_on_c, 0, 70, 0
2, 5533, Note_on_c, 0, 71, 60
2, 5537, Note_on_c, 0, 56, 40
2, 5538, Note_on_c, 0, 47, 46
2, 5542, Note_on_c, 0, 68, 50
2, 5542, Note_on_c, 0, 65, 45
2, 5558, Note_on_c, 0, 65, 0
2, 5565, Note_on_c, 0, 68, 0
2, 5568, Note_on_c, 0, 71, 0
2, 5572, Note_on_c, 0, 47, 0
2, 5573, Note_on_c, 0, 56, 0
2, 5673, Control_c, 0, 64, 127
2, 5682, Note_on_c, 0, 47, 60
2, 5686, Note_on_c, 0, 56, 49
2, 5688, Note_on_c, 0, 74, 70
2, 5690, Note_on_c, 0, 71, 66
2, 5692, Note_on_c, 0, 65, 61
2, 5695, Note_on_c, 0, 68, 52
2, 5714, Note_on_c, 0, 71, 0
2, 5716, Note_on_c, 0, 65, 0
2, 5720, Note_on_c, 0, 74, 0
2, 5720, Note_on_c, 0, 47, 0
2, 5721, Note_on_c, 0, 68, 0
2, 5749, Note_on_c, 0, 56, 0
2, 5763, Control_c, 0, 64, 0
2, 5774, Note_on_c, 0, 57, 54
2, 5776, Note_on_c, 0, 72, 46
2, 5776, Note_on_c, 0, 48, 46
2, 5780, Note_on_c, 0, 65, 50
2, 5781, Note_on_c, 0, 69, 65
2, 5984, Note_on_c, 0, 65, 0
2, 6015, Note_on_c, 0, 60, 43
2, 6021, Note_on_c, 0, 65, 13
2, 6035, Note_on_c, 0, 60, 0
2, 6037, Note_on_c, 0, 48, 0
2, 6050, Note_on_c, 0, 65, 0
2, 6053, Note_on_c, 0, 69, 0
2, 6053, Control_c, 0, 64, 127
2, 6076, Control_c, 0, 64, 0
2, 6084, Note_on_c, 0, 72, 0
2, 6102, Note_on_c, 0, 57, 0
2, 6142, Control_c, 0, 64, 127
2, 6163, Note_on_c, 0, 48, 54
2, 6175, Note_on_c, 0, 48, 0
2, 6236, Control_c, 0, 64, 0
2, 6242, Note_on_c, 0, 76, 66
2, 6244, Note_on_c, 0, 67, 63
2, 6249, Note_on_c, 0, 58, 53
2, 6252, Note_on_c, 0, 64, 38
2, 6287, Note_on_c, 0, 76, 0
2, 6290, Note_on_c, 0, 67, 0
2, 6312, Note_on_c, 0, 79, 74
2, 6349, Note_on_c, 0, 79, 0
2, 6375, Note_on_c, 0, 76, 68
2, 6394, Note_on_c, 0, 64, 0
2, 6403, Note_on_c, 0, 76, 0
2, 6438, Note_on_c, 0, 72, 55
2, 6479, Note_on_c, 0, 72, 0
2, 6498, Note_on_c, 0, 67, 42
2, 6529, Note_on_c, 0, 67, 0
2, 6559, Note_on_c, 0, 70, 67
2, 6562, Note_on_c, 0, 74, 39
2, 6563, Note_on_c, 0, 58, 0
2, 6598, Note_on_c, 0, 74, 0
2, 6599, Note_on_c, 0, 70, 0
2, 6618, Note_on_c, 0, 68, 59
2, 6619, Note_on_c, 0, 72, 40
2, 6648, Note_on_c, 0, 72, 0
2, 6648, Note_on_c, 0, 68, 0
2, 6680, Note_on_c, 0, 69, 67
2, 6686, Note_on_c, 0, 72, 32
2, 6702, Note_on_c, 0, 72, 0
2, 6718, Note_on_c, 0, 69, 0
2, 6743, Note_on_c, 0, 65, 43
2, 6757, Note_on_c, 0, 65, 0
2, 6804, Note_on_c, 0, 63, 56
2, 6843, Note_on_c, 0, 63, 0
2, 6859, Note_on_c, 0, 60, 54
2, 6884, Note_on_c, 0, 60, 0
2, 6923, Note_on_c, 0, 65, 51
2, 6930, Note_on_c, 0, 59, 36
2, 6933, Note_on_c, 0, 60, 57
2, 6943, Note_on_c, 0, 60, 0
2, 6951, Note_on_c, 0, 59, 0
2, 6952, Note_on_c, 0, 65, 0
2, 6994, Note_on_c, 0, 58, 58
2, 7057, Note_on_c, 0, 58, 0
2, 7123, Note_on_c, 0, 53, 54
2, 7134, Note_on_c, 0, 47, 31
2, 7135, Note_on_c, 0, 48, 32
2, 7136, Note_on_c, 0, 53, 0
2, 7147, Note_on_c, 0, 47, 0
2, 7148, Note_on_c, 0, 48, 0
2, 7200, Note_on_c, 0, 62, 64
2, 7202, Note_on_c, 0, 58, 65
2, 7238, Note_on_c, 0, 58, 0
2, 7238, Note_on_c, 0, 62, 0
2, 7270, Note_on_c, 0, 60, 51
2, 7274, Note_on_c, 0, 56, 52
2, 7285, Note_on_c, 0, 60, 0
2, 7325, Note_on_c, 0, 56, 0
2, 7355, Note_on_c, 0, 53, 43
2, 7378, Note_on_c, 0, 53, 0
2, 7430, Note_on_c, 0, 51, 38
2, 7478, Note_on_c, 0, 51, 0
2, 7505, Note_on_c, 0, 48, 35
2, 7526, Note_on_c, 0, 48, 0
2, 7580, Note_on_c, 0, 46, 53
2, 7592, Note_on_c, 0, 36, 33
2, 7656, Note_on_c, 0, 44, 48
2, 7665, Note_on_c, 0, 36, 0
2, 7682, Note_on_c, 0, 46, 0
2, 7712, Note_on_c, 0, 44, 0
2, 7729, Note_on_c, 0, 45, 46
2, 7742, Note_on_c, 0, 45, 0
2, 7814, Note_on_c, 0, 29, 54
2, 7827, Note_on_c, 0, 29, 0
2, 8078, Note_on_c, 0, 73, 76
2, 8080, Note_on_c, 0, 63, 72
2, 8083, Note_on_c, 0, 68, 71
2, 8088, Note_on_c, 0, 58, 80
2, 8147, Note_on_c, 0, 68, 0
2, 8158, Note_on_c, 0, 73, 0
2, 8160, Note_on_c, 0, 63, 0
2, 8174, Note_on_c, 0, 72, 54
2, 8175, Note_on_c, 0, 62, 51
2, 8176, Note_on_c, 0, 58, 0
2, 8178, Note_on_c, 0, 67, 46
2, 8184, Note_on_c, 0, 57, 57
2, 8200, Note_on_c, 0, 57, 0
2, 8201, Note_on_c, 0, 62, 0
2, 8215, Note_on_c, 0, 67, 0
2, 8226, Note_on_c, 0, 72, 0
2, 8405, Note_on_c, 0, 60, 39
2, 8405, Note_on_c, 0, 72, 54
2, 8405, Note_on_c, 0, 65, 44
2, 8405, Note_on_c, 0, 61, 39
2, 8407, Note_on_c, 0, 67, 25
2, 8411, Note_on_c, 0, 55, 34
2, 8432, Note_on_c, 0, 67, 0
2, 8438, Note_on_c, 0, 65, 0
2, 8445, Note_on_c, 0, 72, 0
2, 8454, Note_on_c, 0, 61, 0
2, 8456, Note_on_c, 0, 55, 0
2, 8457, Note_on_c, 0, 60, 0
2, 8631, Note_on_c, 0, 74, 37
2, 8635, Note_on_c, 0, 64, 28
2, 8636, Note_on_c, 0, 69, 42
2, 8638, Note_on_c, 0, 54, 27
2, 8638, Note_on_c, 0, 60, 31
2, 8662, Note_on_c, 0, 69, 0
2, 8663, Note_on_c, 0, 64, 0
2, 8665, Note_on_c, 0, 60, 0
2, 8675, Note_on_c, 0, 74, 0
2, 8684, Note_on_c, 0, 54, 0
2, 8801, Note_on_c, 0, 86, 69
2, 8832, Note_on_c, 0, 86, 0
2, 8878, Note_on_c, 0, 74, 27
2, 8896, Note_on_c, 0, 74, 0
2, 8963, Note_on_c, 0, 74, 38
2, 8993, Note_on_c, 0, 74, 0
2, 9045, Note_on_c, 0, 98, 76
2, 9056, Note_on_c, 0, 98, 0
2, 9056, Note_on_c, 0, 38, 33
2, 9069, Note_on_c, 0, 38, 0
2, 9144, Note_on_c, 0, 86, 22
2, 9155, Note_on_c, 0, 86, 0
2, 9206, Note_on_c, 0, 86, 47
2, 9222, Note_on_c, 0, 86, 0
2, 9295, Note_on_c, 0, 65, 57
2, 9307, Note_on_c, 0, 65, 0
2, 9307, Note_on_c, 0, 58, 25
2, 9321, Note_on_c, 0, 58, 0
2, 9438, Note_on_c, 0, 59, 60
2, 9438, Note_on_c, 0, 57, 67
2, 9462, Note_on_c, 0, 57, 0
2, 9472, Note_on_c, 0, 59, 0
2, 9521, Note_on_c, 0, 44, 40
2, 9540, Note_on_c, 0, 44, 0
2, 9604, Note_on_c, 0, 58, 36
2, 9605, Note_on_c, 0, 53, 35
2, 9619, Note_on_c, 0, 53, 0
2, 9649, Note_on_c, 0, 58, 0
2, 9767, Note_on_c, 0, 55, 41
2, 9781, Note_on_c, 0, 55, 0
2, 10006, Note_on_c, 0, 58, 39
2, 10017, Note_on_c, 0, 57, 22
2, 10028, Note_on_c, 0, 57, 0
2, 10033, Note_on_c, 0, 58, 0
2, 10086, Note_on_c, 0, 69, 65
2, 10118, Note_on_c, 0, 69, 0
2, 10146, Note_on_c, 0, 66, 51
2, 10159, Note_on_c, 0, 66, 0
2, 10205, Note_on_c, 0, 67, 44
2, 10231, Note_on_c, 0, 67, 0
2, 10260, Note_on_c, 0, 69, 60
2, 10298, Note_on_c, 0, 69, 0
2, 10320, Note_on_c, 0, 70, 46
2, 10331, Note_on_c, 0, 70, 0
2, 10380, Note_on_c, 0, 74, 51
2, 10397, Note_on_c, 0, 74, 0
2, 10442, Note_on_c, 0, 78, 49
2, 10454, Note_on_c, 0, 78, 0
2, 10506, Note_on_c, 0, 81, 75
2, 10527, Note_on_c, 0, 81, 0
2, 10565, Note_on_c, 0, 84, 92
2, 10598, Note_on_c, 0, 84, 0
2, 10627, Note_on_c, 0, 72, 56
2, 10640, Note_on_c, 0, 72, 0
2, 10698, Note_on_c, 0, 73, 52
2, 10716, Note_on_c, 0, 73, 0
2, 10955, Note_on_c, 0, 63, 59
2, 10962, Note_on_c, 0, 58, 46
2, 10971, Note_on_c, 0, 52, 24
2, 10978, Note_on_c, 0, 63, 0
2, 10983, Note_on_c, 0, 52, 0
2, 10985, Note_on_c, 0, 58, 0
2, 11137, Note_on_c, 0, 99, 76
2, 11182, Note_on_c, 0, 99, 0
2, 11208, Note_on_c, 0, 97, 73
2, 11253, Note_on_c, 0, 97, 0
2, 11279, Note_on_c, 0, 58, 47
2, 11281, Note_on_c, 0, 94, 59
2, 11295, Note_on_c, 0, 48, 24
2, 11298, Note_on_c, 0, 58, 0
2, 11306, Note_on_c, 0, 48, 0
2, 11312, Note_on_c, 0, 94, 0
2, 11354, Note_on_c, 0, 88, 40
2, 11395, Note_on_c, 0, 88, 0
2, 11426, Note_on_c, 0, 87, 54
2, 11463, Note_on_c, 0, 87, 0
2, 11499, Note_on_c, 0, 86, 48
2, 11532, Note_on_c, 0, 86, 0
2, 11573, Note_on_c, 0, 85, 32
2, 11614, Note_on_c, 0, 85, 0
2, 11640, Note_on_c, 0, 84, 64
2, 11671, Note_on_c, 0, 84, 0
2, 11793, Note_on_c, 0, 82, 32
2, 11798, Note_on_c, 0, 81, 68
2, 11802, Note_on_c, 0, 48, 25
2, 11829, Note_on_c, 0, 82, 0
2, 11832, Note_on_c, 0, 81, 0
2, 11844, Note_on_c, 0, 48, 0
2, 11857, Note_on_c, 0, 80, 54
2, 11890, Note_on_c, 0, 80, 0
2, 11917, Note_on_c, 0, 81, 71
2, 11958, Note_on_c, 0, 81, 0
2, 11980, Note_on_c, 0, 77, 63
2, 12020, Note_on_c, 0, 77, 0
2, 12035, Note_on_c, 0, 48, 42
2, 12037, Note_on_c, 0, 74, 43
2, 12065, Note_on_c, 0, 74, 0
2, 12094, Note_on_c, 0, 72, 41
2, 12131, Note_on_c, 0, 72, 0
2, 12140, Note_on_c, 0, 48, 0
2, 12278, Note_on_c, 0, 48, 46
2, 12296, Note_on_c, 0, 48, 0
2, 12497, Note_on_c, 0, 58, 33
2, 12498, Note_on_c, 0, 46, 31
2, 12502, Note_on_c, 0, 74, 33
2, 12517, Note_on_c, 0, 74, 0
2, 12520, Note_on_c, 0, 58, 0
2, 12527, Note_on_c, 0, 46, 0
2, 12639, Control_c, 0, 64, 127
2, 12689, Control_c, 0, 64, 0
2, 12849, Note_on_c, 0, 88, 83
2, 12891, Note_on_c, 0, 88, 0
2, 12918, Note_on_c, 0, 80, 60
2, 12963, Note_on_c, 0, 80, 0
2, 12991, Note_on_c, 0, 71, 26
2, 13046, Note_on_c, 0, 71, 0
2, 13054, Note_on_c, 0, 77, 39
2, 13090, Note_on_c, 0, 77, 0
2, 13186, Note_on_c, 0, 86, 75
2, 13219, Note_on_c, 0, 86, 0
2, 13249, Note_on_c, 0, 74, 53
2, 13286, Note_on_c, 0, 74, 0
2, 13308, Note_on_c, 0, 65, 42
2, 13328, Note_on_c, 0, 65, 0
2, 13369, Note_on_c, 0, 80, 56
2, 13410, Note_on_c, 0, 80, 0
2, 13433, Note_on_c, 0, 71, 35
2, 13476, Note_on_c, 0, 71, 0
2, 13497, Note_on_c, 0, 77, 57
2, 13531, Note_on_c, 0, 77, 0
2, 13567, Note_on_c, 0, 62, 49
2, 13579, Note_on_c, 0, 62, 0
2, 13662, Note_on_c, 0, 65, 47
2, 13677, Note_on_c, 0, 65, 0
2, 13721, Note_on_c, 0, 74, 68
2, 13760, Note_on_c, 0, 74, 0
2, 13843, Note_on_c, 0, 57, 48
2, 13851, Note_on_c, 0, 65, 51
2, 13855, Note_on_c, 0, 57, 0
2, 13890, Note_on_c, 0, 65, 0
2, 13915, Note_on_c, 0, 62, 46
2, 13934, Note_on_c, 0, 62, 0
2, 13965, Note_on_c, 0, 48, 62
2, 13977, Note_on_c, 0, 48, 0
2, 14034, Note_on_c, 0, 69, 70
2, 14066, Note_on_c, 0, 69, 0
2, 14109, Note_on_c, 0, 57, 32
2, 14122, Note_on_c, 0, 57, 0
2, 14162, Note_on_c, 0, 64, 50
2, 14205, Note_on_c, 0, 64, 0
2, 14229, Note_on_c, 0, 58, 25
2, 14244, Note_on_c, 0, 58, 0
2, 14289, Note_on_c, 0, 66, 51
2, 14333, Note_on_c, 0, 66, 0
2, 14408, Note_on_c, 0, 42, 55
2, 14433, Note_on_c, 0, 42, 0
2, 14469, Note_on_c, 0, 65, 33
2, 14489, Note_on_c, 0, 65, 0
2, 14532, Note_on_c, 0, 48, 51
2, 14539, Note_on_c, 0, 47, 40
2, 14551, Note_on_c, 0, 47, 0
2, 14569, Note_on_c, 0, 48, 0
2, 14594, Note_on_c, 0, 55, 59
2, 14612, Note_on_c, 0, 55, 0
2, 14668, Note_on_c, 0, 35, 32
2, 14683, Note_on_c, 0, 35, 0
2, 14718, Note_on_c, 0, 57, 65
2, 14743, Note_on_c, 0, 57, 0
2, 14781, Note_on_c, 0, 60, 65
2, 14812, Note_on_c, 0, 60, 0
2, 14835, Note_on_c, 0, 62, 74
2, 14866, Note_on_c, 0, 62, 0
2, 14893, Note_on_c, 0, 65, 66
2, 14918, Note_on_c, 0, 65, 0
2, 14951, Note_on_c, 0, 67, 64
2, 14985, Note_on_c, 0, 67, 0
2, 15006, Note_on_c, 0, 29, 49
2, 15019, Note_on_c, 0, 29, 0
2, 15151, Note_on_c, 0, 65, 64
2, 15180, Note_on_c, 0, 65, 0
2, 15205, Note_on_c, 0, 67, 68
2, 15242, Note_on_c, 0, 67, 0
2, 15258, Note_on_c, 0, 69, 71
2, 15288, Note_on_c, 0, 69, 0
2, 15314, Note_on_c, 0, 70, 79
2, 15340, Note_on_c, 0, 70, 0
2, 15376, Note_on_c, 0, 67, 35
2, 15377, Note_on_c, 0, 74, 80
2, 15379, Note_on_c, 0, 63, 33
2, 15380, Note_on_c, 0, 62, 24
2, 15388, Note_on_c, 0, 67, 0
2, 15394, Note_on_c, 0, 63, 0
2, 15398, Note_on_c, 0, 62, 0
2, 15424, Note_on_c, 0, 74, 0
2, 15442, Note_on_c, 0, 71, 44
2, 15458, Note_on_c, 0, 71, 0
2, 15498, Note_on_c, 0, 72, 28
2, 15517, Note_on_c, 0, 72, 0
2, 15559, Note_on_c, 0, 74, 60
2, 15592, Note_on_c, 0, 74, 0
2, 15614, Note_on_c, 0, 75, 56
2, 15636, Note_on_c, 0, 75, 0
2, 15801, Note_on_c, 0, 86, 85
2, 15845, Note_on_c, 0, 86, 0
2, 15862, Note_on_c, 0, 84, 66
2, 15893, Note_on_c, 0, 84, 0
2, 15934, Note_on_c, 0, 81, 54
2, 15947, Note_on_c, 0, 81, 0
2, 16004, Note_on_c, 0, 72, 49
2, 16029, Note_on_c, 0, 72, 0
2, 16230, Note_on_c, 0, 41, 44
2, 16244, Note_on_c, 0, 41, 0
2, 16491, Note_on_c, 0, 67, 46
2, 16491, Note_on_c, 0, 62, 41
2, 16494, Note_on_c, 0, 63, 43
2, 16505, Note_on_c, 0, 67, 0
2, 16509, Note_on_c, 0, 62, 0
2, 16520, Note_on_c, 0, 63, 0
2, 16582, Note_on_c, 0, 87, 58
2, 16600, Note_on_c, 0, 87, 0
2, 16623, Note_on_c, 0, 91, 55
2, 16648, Note_on_c, 0, 87, 59
2, 16655, Note_on_c, 0, 91, 0
2, 16687, Note_on_c, 0, 84, 59
2, 16695, Note_on_c, 0, 87, 0
2, 16712, Note_on_c, 0, 84, 0
2, 16724, Note_on_c, 0, 81, 43
2, 16746, Note_on_c, 0, 81, 0
2, 16767, Note_on_c, 0, 80, 35
2, 16780, Note_on_c, 0, 80, 0
2, 16791, Note_on_c, 0, 79, 40
2, 16824, Note_on_c, 0, 79, 0
2, 16832, Note_on_c, 0, 78, 51
2, 16852, Note_on_c, 0, 78, 0
2, 16858, Note_on_c, 0, 77, 40
2, 16890, Note_on_c, 0, 77, 0
2, 16892, Note_on_c, 0, 76, 53
2, 16917, Note_on_c, 0, 76, 0
2, 16988, Note_on_c, 0, 75, 73
2, 17016, Note_on_c, 0, 75, 0
2, 17041, Note_on_c, 0, 79, 72
2, 17081, Note_on_c, 0, 79, 0
2, 17084, Note_on_c, 0, 75, 57
2, 17121, Note_on_c, 0, 75, 0
2, 17132, Note_on_c, 0, 72, 52
2, 17164, Note_on_c, 0, 72, 0
2, 17186, Note_on_c, 0, 69, 24
2, 17205, Note_on_c, 0, 69, 0
2, 17219, Note_on_c, 0, 70, 26
2, 17229, Note_on_c, 0, 70, 0
2, 17248, Note_on_c, 0, 69, 31
2, 17278, Note_on_c, 0, 69, 0
2, 17298, Note_on_c, 0, 65, 30
2, 17313, Note_on_c, 0, 65, 0
2, 17331, Note_on_c, 0, 72, 72
2, 17380, Note_on_c, 0, 72, 0
2, 17400, Note_on_c, 0, 62, 58
2, 17420, Note_on_c, 0, 62, 0
2, 17464, Note_on_c, 0, 65, 34
2, 17480, Note_on_c, 0, 65, 0
2, 17501, Note_on_c, 0, 69, 62
2, 17529, Note_on_c, 0, 69, 0
2, 17542, Note_on_c, 0, 72, 59
2, 17570, Note_on_c, 0, 72, 0
2, 17583, Note_on_c, 0, 69, 55
2, 17597, Note_on_c, 0, 69, 0
2, 17619, Note_on_c, 0, 70, 47
2, 17635, Note_on_c, 0, 70, 0
2, 17656, Note_on_c, 0, 71, 63
2, 17678, Note_on_c, 0, 71, 0
2, 17691, Note_on_c, 0, 73, 52
2, 17719, Note_on_c, 0, 73, 0
2, 17726, Note_on_c, 0, 75, 43
2, 17747, Note_on_c, 0, 75, 0
2, 17766, Note_on_c, 0, 77, 43
2, 17800, Note_on_c, 0, 77, 0
2, 17942, Note_on_c, 0, 78, 29
2, 17981, Note_on_c, 0, 80, 48
2, 17984, Note_on_c, 0, 78, 0
2, 18013, Note_on_c, 0, 80, 0
2, 18013, Note_on_c, 0, 82, 35
2, 18024, Note_on_c, 0, 82, 0
2, 18045, Note_on_c, 0, 83, 50
2, 18059, Note_on_c, 0, 83, 0
2, 18135, Note_on_c, 0, 85, 53
2, 18148, Note_on_c, 0, 85, 0
2, 18168, Note_on_c, 0, 86, 39
2, 18204, Note_on_c, 0, 87, 60
2, 18206, Note_on_c, 0, 86, 0
2, 18232, Note_on_c, 0, 87, 0
2, 18236, Note_on_c, 0, 88, 61
2, 18275, Note_on_c, 0, 88, 0
2, 18280, Note_on_c, 0, 89, 64
2, 18317, Note_on_c, 0, 89, 0
2, 18329, Note_on_c, 0, 86, 56
2, 18359, Note_on_c, 0, 86, 0
2, 18381, Note_on_c, 0, 81, 32
2, 18398, Note_on_c, 0, 81, 0
2, 18433, Note_on_c, 0, 84, 69
2, 18465, Note_on_c, 0, 84, 0
2, 18485, Note_on_c, 0, 81, 53
2, 18505, Note_on_c, 0, 81, 0
2, 18541, Note_on_c, 0, 77, 58
2, 18571, Note_on_c, 0, 77, 0
2, 18963, Note_on_c, 0, 56, 48
2, 18963, Note_on_c, 0, 83, 70
2, 18964, Note_on_c, 0, 62, 39
2, 18968, Note_on_c, 0, 53, 41
2, 18971, Note_on_c, 0, 71, 27
2, 18976, Note_on_c, 0, 83, 0
2, 18977, Note_on_c, 0, 62, 0
2, 18979, Note_on_c, 0, 53, 0
2, 18982, Note_on_c, 0, 71, 0
2, 18989, Note_on_c, 0, 56, 0
2, 19120, Note_on_c, 0, 56, 33
2, 19122, Note_on_c, 0, 62, 40
2, 19126, Note_on_c, 0, 86, 54
2, 19127, Note_on_c, 0, 88, 56
2, 19130, Note_on_c, 0, 74, 36
2, 19131, Note_on_c, 0, 53, 24
2, 19133, Note_on_c, 0, 76, 33
2, 19138, Note_on_c, 0, 88, 0
2, 19141, Note_on_c, 0, 86, 0
2, 19143, Note_on_c, 0, 62, 0
2, 19145, Note_on_c, 0, 53, 0
2, 19147, Note_on_c, 0, 76, 0
2, 19148, Note_on_c, 0, 74, 0
2, 19153, Note_on_c, 0, 56, 0
2, 19202, Note_on_c, 0, 62, 74
2, 19205, Note_on_c, 0, 84, 60
2, 19208, Note_on_c, 0, 57, 87
2, 19208, Note_on_c, 0, 72, 76
2, 19217, Note_on_c, 0, 84, 0
2, 19217, Note_on_c, 0, 62, 0
2, 19220, Note_on_c, 0, 72, 0
2, 19226, Note_on_c, 0, 57, 0
2, 19518, Note_on_c, 0, 80, 53
2, 19520, Note_on_c, 0, 56, 53
2, 19549, Note_on_c, 0, 80, 0
2, 19557, Note_on_c, 0, 56, 0
2, 19590, Note_on_c, 0, 57, 61
2, 19592, Note_on_c, 0, 81, 61
2, 19604, Note_on_c, 0, 81, 0
2, 19613, Note_on_c, 0, 57, 0
2, 19668, Note_on_c, 0, 86, 78
2, 19670, Note_on_c, 0, 62, 68
2, 19700, Note_on_c, 0, 86, 0
2, 19735, Note_on_c, 0, 62, 0
2, 19748, Note_on_c, 0, 84, 37
2, 19762, Note_on_c, 0, 84, 0
2, 19825, Note_on_c, 0, 81, 51
2, 19827, Note_on_c, 0, 57, 38
2, 19844, Note_on_c, 0, 57, 0
2, 19847, Note_on_c, 0, 81, 0
2, 20043, Note_on_c, 0, 56, 57
2, 20044, Note_on_c, 0, 80, 49
2, 20079, Note_on_c, 0, 56, 0
2, 20081, Note_on_c, 0, 80, 0
2, 20091, Note_on_c, 0, 81, 58
2, 20103, Note_on_c, 0, 57, 37
2, 20107, Note_on_c, 0, 81, 0
2, 20119, Note_on_c, 0, 57, 0
2, 20166, Note_on_c, 0, 61, 58
2, 20169, Note_on_c, 0, 85, 62
2, 20192, Note_on_c, 0, 85, 0
2, 20205, Note_on_c, 0, 61, 0
2, 20236, Note_on_c, 0, 89, 49
2, 20237, Note_on_c, 0, 88, 53
2, 20246, Note_on_c, 0, 64, 33
2, 20248, Note_on_c, 0, 89, 0
2, 20256, Note_on_c, 0, 88, 0
2, 20259, Note_on_c, 0, 64, 0
2, 20299, Note_on_c, 0, 91, 85
2, 20307, Note_on_c, 0, 65, 30
2, 20338, Note_on_c, 0, 65, 0
2, 20340, Note_on_c, 0, 91, 0
2, 20371, Note_on_c, 0, 61, 37
2, 20378, Note_on_c, 0, 87, 28
2, 20389, Note_on_c, 0, 87, 0
2, 20407, Note_on_c, 0, 61, 0
2, 20423, Note_on_c, 0, 89, 78
2, 20428, Note_on_c, 0, 62, 51
2, 20462, Note_on_c, 0, 89, 0
2, 20475, Note_on_c, 0, 62, 0
2, 20502, Note_on_c, 0, 57, 58
2, 20506, Note_on_c, 0, 86, 44
2, 20520, Note_on_c, 0, 86, 0
2, 20526, Note_on_c, 0, 57, 0
2, 20666, Note_on_c, 0, 81, 63
2, 20705, Note_on_c, 0, 81, 0
2, 20739, Note_on_c, 0, 77, 39
2, 20755, Note_on_c, 0, 77, 0
2, 20875, Note_on_c, 0, 64, 41
2, 20884, Note_on_c, 0, 59, 38
2, 20885, Note_on_c, 0, 74, 61
2, 20893, Note_on_c, 0, 53, 24
2, 20910, Note_on_c, 0, 53, 0
2, 20913, Note_on_c, 0, 59, 0
2, 20914, Note_on_c, 0, 64, 0
2, 20918, Note_on_c, 0, 74, 0
2, 20959, Note_on_c, 0, 69, 30
2, 21117, Note_on_c, 0, 69, 0
2, 21129, Note_on_c, 0, 68, 52
2, 21316, Note_on_c, 0, 68, 0
2, 21348, Note_on_c, 0, 59, 34
2, 21354, Note_on_c, 0, 69, 53
2, 21362, Note_on_c, 0, 59, 0
2, 21501, Note_on_c, 0, 69, 0
2, 21517, Note_on_c, 0, 64, 57
2, 21524, Note_on_c, 0, 50, 40
2, 21546, Note_on_c, 0, 64, 0
2, 21565, Note_on_c, 0, 50, 0
2, 21604, Note_on_c, 0, 61, 50
2, 21637, Note_on_c, 0, 64, 49
2, 21639, Note_on_c, 0, 61, 0
2, 21678, Note_on_c, 0, 61, 47
2, 21685, Note_on_c, 0, 64, 0
2, 21729, Note_on_c, 0, 61, 0
2, 21737, Note_on_c, 0, 59, 50
2, 21775, Note_on_c, 0, 59, 0
2, 21797, Note_on_c, 0, 57, 57
2, 21873, Note_on_c, 0, 57, 0
2, 21889, Note_on_c, 0, 52, 60
2, 22079, Note_on_c, 0, 52, 0
2, 22093, Note_on_c, 0, 53, 65
2, 22212, Note_on_c, 0, 53, 0
2, 22223, Note_on_c, 0, 55, 51
2, 22253, Note_on_c, 0, 55, 0
2, 22255, Note_on_c, 0, 53, 34
2, 22280, Note_on_c, 0, 53, 0
2, 22288, Note_on_c, 0, 50, 45
2, 22307, Note_on_c, 0, 50, 0
2, 22353, Note_on_c, 0, 53, 37
2, 22387, Note_on_c, 0, 53, 0
2, 22524, Note_on_c, 0, 55, 68
2, 22546, Note_on_c, 0, 55, 0
2, 22618, Note_on_c, 0, 52, 42
2, 22619, Note_on_c, 0, 53, 36
2, 22630, Note_on_c, 0, 52, 0
2, 22632, Note_on_c, 0, 53, 0
2, 22746, Note_on_c, 0, 36, 68
2, 22769, Note_on_c, 0, 36, 0
2, 22864, Note_on_c, 0, 72, 62
2, 22888, Note_on_c, 0, 69, 45
2, 22909, Note_on_c, 0, 72, 0
2, 22919, Note_on_c, 0, 65, 62
2, 22926, Note_on_c, 0, 69, 0
2, 22947, Note_on_c, 0, 65, 0
2, 22958, Note_on_c, 0, 60, 62
2, 22969, Note_on_c, 0, 60, 0
2, 23014, Note_on_c, 0, 59, 70
2, 23050, Note_on_c, 0, 59, 0
2, 23081, Note_on_c, 0, 58, 74
2, 23114, Note_on_c, 0, 58, 0
2, 23143, Note_on_c, 0, 56, 64
2, 23183, Note_on_c, 0, 56, 0
2, 23206, Note_on_c, 0, 57, 64
2, 23233, Note_on_c, 0, 57, 0
2, 23262, Note_on_c, 0, 60, 70
2, 23291, Note_on_c, 0, 60, 0
2, 23320, Note_on_c, 0, 62, 70
2, 23352, Note_on_c, 0, 62, 0
2, 23379, Note_on_c, 0, 60, 68
2, 23611, Note_on_c, 0, 60, 0
2, 23752, Note_on_c, 0, 60, 44
2, 23755, Note_on_c, 0, 61, 30
2, 23756, Note_on_c, 0, 65, 36
2, 23756, Note_on_c, 0, 55, 37
2, 23823, Note_on_c, 0, 65, 0
2, 23826, Note_on_c, 0, 60, 0
2, 23830, Note_on_c, 0, 55, 0
2, 23844, Note_on_c, 0, 61, 0
2, 24005, Note_on_c, 0, 64, 32
2, 24005, Note_on_c, 0, 54, 37
2, 24006, Note_on_c, 0, 86, 35
2, 24007, Note_on_c, 0, 74, 20
2, 24009, Note_on_c, 0, 81, 46
2, 24013, Note_on_c, 0, 60, 30
2, 24030, Note_on_c, 0, 60, 0
2, 24032, Note_on_c, 0, 74, 0
2, 24032, Note_on_c, 0, 81, 0
2, 24036, Note_on_c, 0, 64, 0
2, 24044, Note_on_c, 0, 54, 0
2, 24060, Note_on_c, 0, 86, 0
2, 24170, Note_on_c, 0, 77, 45
2, 24172, Note_on_c, 0, 89, 51
2, 24184, Note_on_c, 0, 60, 27
2, 24189, Note_on_c, 0, 77, 0
2, 24198, Note_on_c, 0, 60, 0
2, 24201, Note_on_c, 0, 89, 0
2, 24242, Note_on_c, 0, 54, 46
2, 24246, Note_on_c, 0, 93, 60
2, 24247, Note_on_c, 0, 81, 39
2, 24258, Note_on_c, 0, 93, 0
2, 24261, Note_on_c, 0, 81, 0
2, 24264, Note_on_c, 0, 54, 0
2, 24406, Note_on_c, 0, 84, 57
2, 24407, Note_on_c, 0, 96, 60
2, 24417, Note_on_c, 0, 84, 0
2, 24421, Note_on_c, 0, 96, 0
2, 24476, Note_on_c, 0, 54, 65
2, 24476, Note_on_c, 0, 65, 60
2, 24480, Note_on_c, 0, 60, 54
2, 24481, Note_on_c, 0, 101, 76
2, 24483, Note_on_c, 0, 89, 70
2, 24600, Note_on_c, 0, 89, 0
2, 24601, Note_on_c, 0, 101, 0
2, 24604, Note_on_c, 0, 65, 0
2, 24605, Note_on_c, 0, 54, 0
2, 24613, Note_on_c, 0, 60, 0
2, 24651, Note_on_c, 0, 101, 58
2, 24652, Note_on_c, 0, 89, 58
2, 24652, Note_on_c, 0, 65, 44
2, 24654, Note_on_c, 0, 54, 42
2, 24656, Note_on_c, 0, 60, 41
2, 24669, Note_on_c, 0, 65, 0
2, 24671, Note_on_c, 0, 101, 0
2, 24672, Note_on_c, 0, 54, 0
2, 24673, Note_on_c, 0, 60, 0
2, 24680, Note_on_c, 0, 89, 0
2, 24716, Note_on_c, 0, 54, 45
2, 24718, Note_on_c, 0, 65, 42
2, 24721, Note_on_c, 0, 86, 63
2, 24722, Note_on_c, 0, 60, 53
2, 24729, Note_on_c, 0, 98, 54
2, 24738, Note_on_c, 0, 94, 42
2, 24791, Note_on_c, 0, 94, 0
2, 24816, Note_on_c, 0, 54, 0
2, 24819, Note_on_c, 0, 65, 0
2, 24825, Note_on_c, 0, 95, 22
2, 24828, Note_on_c, 0, 98, 0
2, 24831, Note_on_c, 0, 86, 0
2, 24837, Note_on_c, 0, 95, 0
2, 24838, Note_on_c, 0, 60, 0
2, 24888, Note_on_c, 0, 54, 62
2, 24890, Note_on_c, 0, 60, 54
2, 24891, Note_on_c, 0, 65, 43
2, 24894, Note_on_c, 0, 86, 60
2, 24895, Note_on_c, 0, 94, 61
2, 24897, Note_on_c, 0, 98, 66
2, 24901, Note_on_c, 0, 58, 43
2, 24907, Note_on_c, 0, 65, 0
2, 24921, Note_on_c, 0, 60, 0
2, 24934, Note_on_c, 0, 94, 0
2, 24942, Note_on_c, 0, 86, 0
2, 24949, Note_on_c, 0, 98, 0
2, 24952, Note_on_c, 0, 54, 0
2, 24976, Note_on_c, 0, 57, 44
2, 24979, Note_on_c, 0, 53, 35
2, 24982, Note_on_c, 0, 84, 55
2, 24987, Note_on_c, 0, 62, 18
2, 24992, Note_on_c, 0, 96, 35
2, 24994, Note_on_c, 0, 95, 43
2, 24995, Note_on_c, 0, 92, 49
2, 25041, Note_on_c, 0, 95, 0
2, 25049, Note_on_c, 0, 92, 0
2, 25051, Note_on_c, 0, 53, 0
2, 25051, Note_on_c, 0, 62, 0
2, 25054, Note_on_c, 0, 93, 55
2, 25061, Note_on_c, 0, 96, 0
2, 25066, Note_on_c, 0, 93, 0
2, 25074, Note_on_c, 0, 58, 0
2, 25082, Note_on_c, 0, 84, 0
2, 25083, Note_on_c, 0, 57, 0
2, 25204, Note_on_c, 0, 80, 39
2, 25208, Note_on_c, 0, 58, 34
2, 25209, Note_on_c, 0, 62, 35
2, 25211, Note_on_c, 0, 57, 34
2, 25216, Note_on_c, 0, 53, 34
2, 25217, Note_on_c, 0, 86, 31
2, 25224, Note_on_c, 0, 89, 31
2, 25258, Note_on_c, 0, 80, 0
2, 25264, Note_on_c, 0, 81, 36
2, 25280, Note_on_c, 0, 62, 0
2, 25285, Note_on_c, 0, 81, 0
2, 25290, Note_on_c, 0, 57, 0
2, 25296, Note_on_c, 0, 86, 0
2, 25298, Note_on_c, 0, 58, 0
2, 25298, Note_on_c, 0, 53, 0
2, 25304, Note_on_c, 0, 89, 0
2, 25611, Note_on_c, 0, 53, 29
2, 25635, Note_on_c, 0, 53, 0
2, 25648, Note_on_c, 0, 54, 35
2, 25662, Note_on_c, 0, 70, 48
2, 25670, Note_on_c, 0, 55, 37
2, 25671, Note_on_c, 0, 62, 28
2, 25672, Note_on_c, 0, 60, 32
2, 25673, Note_on_c, 0, 65, 45
2, 25693, Note_on_c, 0, 54, 0
2, 25741, Note_on_c, 0, 55, 0
2, 25743, Note_on_c, 0, 60, 0
2, 25746, Note_on_c, 0, 62, 0
2, 25747, Note_on_c, 0, 65, 0
2, 25770, Note_on_c, 0, 70, 0
2, 25921, Note_on_c, 0, 72, 33
2, 25922, Note_on_c, 0, 68, 35
2, 25922, Note_on_c, 0, 58, 45
2, 25926, Note_on_c, 0, 64, 28
2, 25944, Note_on_c, 0, 64, 0
2, 25950, Note_on_c, 0, 58, 0
2, 25957, Note_on_c, 0, 68, 0
2, 25964, Note_on_c, 0, 72, 0
2, 26101, Note_on_c, 0, 84, 69
2, 26101, Note_on_c, 0, 48, 47
2, 26122, Note_on_c, 0, 48, 0
2, 26135, Note_on_c, 0, 84, 0
2, 26162, Note_on_c, 0, 36, 44
2, 26178, Note_on_c, 0, 36, 0
2, 26325, Note_on_c, 0, 24, 65
2, 26342, Note_on_c, 0, 24, 0
2, 26584, Note_on_c, 0, 64, 61
2, 26584, Note_on_c, 0, 96, 75
2, 26585, Note_on_c, 0, 58, 57
2, 26585, Note_on_c, 0, 88, 64
2, 26586, Note_on_c, 0, 92, 52
2, 26601, Note_on_c, 0, 88, 0
2, 26608, Note_on_c, 0, 64, 0
2, 26611, Note_on_c, 0, 92, 0
2, 26614, Note_on_c, 0, 96, 0
2, 26626, Note_on_c, 0, 58, 0
2, 26678, Note_on_c, 0, 58, 37
2, 26731, Note_on_c, 0, 64, 1
2, 26805, Note_on_c, 0, 64, 0
2, 26879, Note_on_c, 0, 84, 53
2, 26880, Note_on_c, 0, 89, 38
2, 26881, Note_on_c, 0, 77, 32
2, 26886, Note_on_c, 0, 62, 29
2, 26890, Note_on_c, 0, 58, 0
2, 26892, Note_on_c, 0, 84, 0
2, 26895, Note_on_c, 0, 57, 27
2, 26896, Note_on_c, 0, 77, 0
2, 26896, Note_on_c, 0, 89, 0
2, 26898, Note_on_c, 0, 62, 0
2, 26907, Note_on_c, 0, 57, 0
2, 27120, Note_on_c, 0, 92, 62
2, 27123, Note_on_c, 0, 80, 57
2, 27125, Note_on_c, 0, 44, 62
2, 27154, Note_on_c, 0, 80, 0
2, 27164, Note_on_c, 0, 92, 0
2, 27168, Note_on_c, 0, 44, 0
2, 27368, Note_on_c, 0, 81, 64
2, 27368, Note_on_c, 0, 93, 67
2, 27368, Note_on_c, 0, 45, 34
2, 27396, Note_on_c, 0, 81, 0
2, 27405, Note_on_c, 0, 93, 0
2, 27420, Note_on_c, 0, 45, 0
2, 27528, Note_on_c, 0, 48, 50
2, 27534, Note_on_c, 0, 96, 64
2, 27535, Note_on_c, 0, 84, 42
2, 27549, Note_on_c, 0, 84, 0
2, 27550, Note_on_c, 0, 48, 0
2, 27561, Note_on_c, 0, 96, 0
2, 27604, Note_on_c, 0, 98, 68
2, 27607, Note_on_c, 0, 50, 60
2, 27611, Note_on_c, 0, 86, 41
2, 27680, Note_on_c, 0, 98, 0
2, 27691, Note_on_c, 0, 86, 0
2, 27713, Note_on_c, 0, 50, 0
2, 27758, Note_on_c, 0, 96, 63
2, 27762, Note_on_c, 0, 84, 43
2, 27764, Note_on_c, 0, 48, 45
2, 27801, Note_on_c, 0, 96, 0
2, 27802, Note_on_c, 0, 84, 0
2, 27807, Note_on_c, 0, 48, 0
2, 28250, Note_on_c, 0, 81, 55
2, 28256, Note_on_c, 0, 45, 45
2, 28257, Note_on_c, 0, 93, 32
2, 28266, Note_on_c, 0, 81, 0
2, 28280, Note_on_c, 0, 93, 0
2, 28306, Note_on_c, 0, 45, 0
2, 28333, Note_on_c, 0, 95, 60
2, 28334, Note_on_c, 0, 83, 36
2, 28349, Note_on_c, 0, 83, 0
2, 28351, Note_on_c, 0, 95, 0
2, 28477, Note_on_c, 0, 50, 54
2, 28483, Note_on_c, 0, 98, 58
2, 28483, Note_on_c, 0, 86, 48
2, 28495, Note_on_c, 0, 86, 0
2, 28497, Note_on_c, 0, 50, 0
2, 28504, Note_on_c, 0, 98, 0
2, 28556, Note_on_c, 0, 101, 62
2, 28560, Note_on_c, 0, 53, 55
2, 28570, Note_on_c, 0, 53, 0
2, 28570, Note_on_c, 0, 101, 0
2, 28570, Note_on_c, 0, 89, 39
2, 28573, Note_on_c, 0, 89, 0
2, 28725, Note_on_c, 0, 104, 60
2, 28725, Note_on_c, 0, 92, 58
2, 28725, Note_on_c, 0, 56, 60
2, 28757, Note_on_c, 0, 92, 0
2, 28767, Note_on_c, 0, 104, 0
2, 28782, Note_on_c, 0, 56, 0
2, 28798, Note_on_c, 0, 105, 67
2, 28804, Note_on_c, 0, 57, 57
2, 28807, Note_on_c, 0, 93, 30
2, 29014, Note_on_c, 0, 93, 0
2, 29026, Note_on_c, 0, 105, 0
2, 29034, Note_on_c, 0, 57, 0
2, 29047, Note_on_c, 0, 101, 57
2, 29051, Note_on_c, 0, 53, 38
2, 29188, Note_on_c, 0, 101, 0
2, 29194, Note_on_c, 0, 53, 0
2, 29201, Note_on_c, 0, 55, 58
2, 29204, Note_on_c, 0, 103, 60
2, 29271, Note_on_c, 0, 103, 0
2, 29276, Note_on_c, 0, 55, 0
2, 29285, Note_on_c, 0, 53, 51
2, 29290, Note_on_c, 0, 101, 47
2, 29427, Note_on_c, 0, 101, 0
2, 29438, Note_on_c, 0, 103, 64
2, 29441, Note_on_c, 0, 55, 71
2, 29442, Note_on_c, 0, 53, 0
2, 29750, Note_on_c, 0, 103, 0
2, 29756, Note_on_c, 0, 55, 0
2, 29759, Note_on_c, 0, 53, 40
2, 29764, Note_on_c, 0, 101, 42
2, 29772, Note_on_c, 0, 53, 0
2, 29778, Note_on_c, 0, 101, 0
2, 29842, Note_on_c, 0, 46, 57
2, 29889, Note_on_c, 0, 46, 0
2, 29913, Note_on_c, 0, 47, 54
2, 29975, Note_on_c, 0, 47, 0
2, 29997, Note_on_c, 0, 48, 58
2, 30020, Note_on_c, 0, 48, 0
2, 30320, Note_on_c, 0, 39, 51
2, 30357, Note_on_c, 0, 39, 0
2, 30395, Note_on_c, 0, 40, 36
2, 30445, Note_on_c, 0, 40, 0
2, 30473, Note_on_c, 0, 41, 45
2, 30508, Note_on_c, 0, 41, 0
2, 30634, Note_on_c, 0, 30, 55
2, 30700, Note_on_c, 0, 30, 0
2, 30737, Note_on_c, 0, 29, 43
2, 30767, Note_on_c, 0, 29, 0
2, 30971, Note_on_c, 0, 84, 105
2, 31026, Note_on_c, 0, 84, 0
2, 31135, Note_on_c, 0, 86, 99
2, 31170, Note_on_c, 0, 86, 0
2, 31226, Note_on_c, 0, 84, 63
2, 31239, Note_on_c, 0, 84, 0
2, 31568, Note_on_c, 0, 79, 74
2, 31613, Note_on_c, 0, 79, 0
2, 31634, Note_on_c, 0, 75, 50
2, 31671, Note_on_c, 0, 75, 0
2, 31712, Note_on_c, 0, 78, 70
2, 31746, Note_on_c, 0, 78, 0
2, 31853, Note_on_c, 0, 74, 78
2, 31859, Note_on_c, 0, 64, 39
2, 31873, Note_on_c, 0, 64, 0
2, 31886, Note_on_c, 0, 74, 0
2, 31961, Note_on_c, 0, 67, 29
2, 31961, Note_on_c, 0, 69, 27
2, 31979, Note_on_c, 0, 69, 0
2, 32024, Note_on_c, 0, 67, 0
2, 32094, Note_on_c, 0, 66, 58
2, 32108, Note_on_c, 0, 60, 38
2, 32120, Note_on_c, 0, 60, 0
2, 32140, Note_on_c, 0, 66, 0
2, 32192, Note_on_c, 0, 65, 35
2, 32226, Note_on_c, 0, 65, 0
2, 32321, Note_on_c, 0, 50, 48
2, 32331, Note_on_c, 0, 62, 56
2, 32378, Note_on_c, 0, 62, 0
2, 32396, Note_on_c, 0, 50, 0
2, 32409, Note_on_c, 0, 54, 35
2, 32417, Note_on_c, 0, 60, 52
2, 32448, Note_on_c, 0, 54, 0
2, 32453, Note_on_c, 0, 60, 0
2, 32569, Note_on_c, 0, 44, 38
2, 32570, Note_on_c, 0, 58, 55
2, 32609, Note_on_c, 0, 58, 0
2, 32618, Note_on_c, 0, 44, 0
2, 32651, Note_on_c, 0, 53, 27
2, 32652, Note_on_c, 0, 57, 60
2, 32654, Note_on_c, 0, 43, 33
2, 32670, Note_on_c, 0, 53, 0
2, 32683, Note_on_c, 0, 43, 0
2, 32709, Note_on_c, 0, 57, 0
2, 32712, Note_on_c, 0, 58, 56
2, 32755, Note_on_c, 0, 58, 0
2, 32762, Note_on_c, 0, 57, 32
2, 32809, Note_on_c, 0, 57, 0
2, 32825, Note_on_c, 0, 54, 53
2, 32859, Note_on_c, 0, 54, 0
2, 32891, Note_on_c, 0, 57, 63
2, 33004, Note_on_c, 0, 57, 0
2, 33048, Note_on_c, 0, 54, 52
2, 33090, Note_on_c, 0, 54, 0
2, 33133, Note_on_c, 0, 55, 38
2, 33172, Note_on_c, 0, 55, 0
2, 33200, Note_on_c, 0, 57, 51
2, 33242, Note_on_c, 0, 57, 0
2, 33277, Note_on_c, 0, 58, 47
2, 33317, Note_on_c, 0, 58, 0
2, 33358, Note_on_c, 0, 62, 34
2, 33405, Note_on_c, 0, 62, 0
2, 33442, Note_on_c, 0, 66, 36
2, 33474, Note_on_c, 0, 66, 0
2, 33512, Note_on_c, 0, 69, 71
2, 33579, Note_on_c, 0, 69, 0
2, 33592, Note_on_c, 0, 66, 46
2, 33834, Note_on_c, 0, 66, 0
2, 33850, Note_on_c, 0, 67, 34
2, 33950, Note_on_c, 0, 67, 0
2, 34085, Note_on_c, 0, 62, 27
2, 34093, Note_on_c, 0, 58, 33
2, 34095, Note_on_c, 0, 57, 30
2, 34155, Note_on_c, 0, 57, 0
2, 34162, Note_on_c, 0, 62, 0
2, 34163, Note_on_c, 0, 58, 0
2, 34332, Note_on_c, 0, 62, 40
2, 34337, Note_on_c, 0, 58, 33
2, 34341, Note_on_c, 0, 57, 44
2, 34402, Note_on_c, 0, 57, 0
2, 34421, Note_on_c, 0, 58, 0
2, 34424, Note_on_c, 0, 62, 0
2, 34571, Note_on_c, 0, 65, 46
2, 34574, Note_on_c, 0, 62, 40
2, 34579, Note_on_c, 0, 60, 44
2, 34653, Note_on_c, 0, 62, 0
2, 34655, Note_on_c, 0, 60, 0
2, 34667, Note_on_c, 0, 65, 0
2, 34812, Note_on_c, 0, 60, 49
2, 34816, Note_on_c, 0, 62, 34
2, 34817, Note_on_c, 0, 65, 37
2, 34884, Note_on_c, 0, 62, 0
2, 34894, Note_on_c, 0, 65, 0
2, 34906, Note_on_c, 0, 60, 0
2, 35047, Note_on_c, 0, 65, 36
2, 35050, Note_on_c, 0, 63, 35
2, 35052, Note_on_c, 0, 57, 33
2, 35116, Note_on_c, 0, 63, 0
2, 35118, Note_on_c, 0, 57, 0
2, 35131, Note_on_c, 0, 65, 0
2, 35217, Note_on_c, 0, 81, 84
2, 35218, Note_on_c, 0, 69, 80
2, 35221, Note_on_c, 0, 63, 46
2, 35221, Note_on_c, 0, 65, 56
2, 35221, Note_on_c, 0, 57, 53
2, 35276, Note_on_c, 0, 81, 0
2, 35283, Note_on_c, 0, 65, 0
2, 35291, Note_on_c, 0, 69, 0
2, 35299, Note_on_c, 0, 57, 0
2, 35301, Note_on_c, 0, 63, 0
2, 35327, Note_on_c, 0, 81, 39
2, 35329, Note_on_c, 0, 69, 40
2, 35393, Note_on_c, 0, 81, 0
2, 35396, Note_on_c, 0, 69, 0
2, 35464, Note_on_c, 0, 62, 45
2, 35466, Note_on_c, 0, 58, 35
2, 35467, Note_on_c, 0, 69, 60
2, 35467, Note_on_c, 0, 81, 58
2, 35472, Note_on_c, 0, 53, 32
2, 35492, Note_on_c, 0, 53, 0
2, 35497, Note_on_c, 0, 62, 0
2, 35505, Note_on_c, 0, 81, 0
2, 35512, Note_on_c, 0, 58, 0
2, 35514, Note_on_c, 0, 69, 0
2, 35558, Note_on_c, 0, 81, 55
2, 35561, Note_on_c, 0, 69, 44
2, 35570, Note_on_c, 0, 58, 25
2, 35576, Note_on_c, 0, 81, 0
2, 35590, Note_on_c, 0, 58, 0
2, 35591, Note_on_c, 0, 69, 0
2, 35934, Note_on_c, 0, 62, 62
2, 35936, Note_on_c, 0, 60, 59
2, 35937, Note_on_c, 0, 65, 50
2, 35939, Note_on_c, 0, 72, 49
2, 35944, Note_on_c, 0, 69, 40
2, 35951, Note_on_c, 0, 65, 0
2, 35953, Note_on_c, 0, 62, 0
2, 35959, Note_on_c, 0, 69, 0
2, 35968, Note_on_c, 0, 60, 0
2, 35973, Note_on_c, 0, 72, 0
2, 36080, Note_on_c, 0, 77, 77
2, 36083, Note_on_c, 0, 68, 76
2, 36084, Note_on_c, 0, 62, 62
2, 36084, Note_on_c, 0, 71, 72
2, 36090, Note_on_c, 0, 74, 47
2, 36129, Note_on_c, 0, 74, 0
2, 36138, Note_on_c, 0, 71, 0
2, 36139, Note_on_c, 0, 77, 0
2, 36152, Note_on_c, 0, 68, 0
2, 36169, Control_c, 0, 64, 127
2, 36175, Note_on_c, 0, 62, 0
2, 36177, Control_c, 0, 64, 0
2, 36216, Note_on_c, 0, 74, 58
2, 36221, Note_on_c, 0, 68, 56
2, 36221, Note_on_c, 0, 59, 49
2, 36222, Note_on_c, 0, 65, 61
2, 36254, Note_on_c, 0, 65, 0
2, 36267, Note_on_c, 0, 68, 0
2, 36275, Note_on_c, 0, 74, 0
2, 36294, Note_on_c, 0, 59, 0
2, 36312, Note_on_c, 0, 56, 33
2, 36323, Note_on_c, 0, 65, 30
2, 36327, Note_on_c, 0, 68, 25
2, 36340, Note_on_c, 0, 65, 0
2, 36354, Note_on_c, 0, 68, 0
2, 36407, Note_on_c, 0, 56, 0
2, 36433, Note_on_c, 0, 73, 74
2, 36436, Note_on_c, 0, 68, 68
2, 36437, Note_on_c, 0, 65, 69
2, 36437, Note_on_c, 0, 58, 55
2, 36469, Note_on_c, 0, 73, 0
2, 36481, Note_on_c, 0, 65, 0
2, 36488, Note_on_c, 0, 58, 0
2, 36497, Note_on_c, 0, 68, 0
2, 36521, Note_on_c, 0, 68, 51
2, 36526, Note_on_c, 0, 72, 55
2, 36529, Note_on_c, 0, 57, 44
2, 36539, Note_on_c, 0, 62, 39
2, 36541, Note_on_c, 0, 72, 0
2, 36550, Note_on_c, 0, 68, 0
2, 36560, Note_on_c, 0, 62, 0
2, 36611, Note_on_c, 0, 57, 0
2, 36663, Note_on_c, 0, 69, 62
2, 36666, Note_on_c, 0, 53, 52
2, 36672, Note_on_c, 0, 64, 43
2, 36672, Note_on_c, 0, 60, 50
2, 36686, Note_on_c, 0, 64, 0
2, 36693, Note_on_c, 0, 69, 0
2, 36704, Note_on_c, 0, 60, 0
2, 36716, Note_on_c, 0, 53, 0
2, 36750, Note_on_c, 0, 65, 44
2, 36751, Note_on_c, 0, 50, 37
2, 36759, Note_on_c, 0, 60, 27
2, 36778, Note_on_c, 0, 65, 0
2, 36791, Note_on_c, 0, 60, 0
2, 36791, Note_on_c, 0, 50, 0
2, 36890, Note_on_c, 0, 43, 55
2, 36904, Note_on_c, 0, 43, 0
2, 36970, Note_on_c, 0, 69, 66
2, 36971, Note_on_c, 0, 62, 60
2, 36972, Note_on_c, 0, 58, 49
2, 36976, Note_on_c, 0, 57, 64
2, 36977, Note_on_c, 0, 65, 51
2, 37087, Control_c, 0, 64, 127
2, 37125, Note_on_c, 0, 65, 0
2, 37127, Note_on_c, 0, 62, 0
2, 37139, Note_on_c, 0, 58, 0
2, 37148, Note_on_c, 0, 57, 0
2, 37156, Note_on_c, 0, 69, 0
2, 37196, Control_c, 0, 64, 0
2, 37204, Note_on_c, 0, 57, 38
2, 37209, Note_on_c, 0, 58, 37
2, 37209, Note_on_c, 0, 67, 35
2, 37214, Note_on_c, 0, 61, 37
2, 37216, Note_on_c, 0, 64, 43
2, 37228, Note_on_c, 0, 57, 0
2, 37259, Control_c, 0, 64, 127
2, 37272, Note_on_c, 0, 67, 0
2, 37301, Note_on_c, 0, 64, 0
2, 37317, Note_on_c, 0, 58, 0
2, 37344, Note_on_c, 0, 61, 0
2, 37430, Control_c, 0, 64, 0
2, 37438, Note_on_c, 0, 57, 40
2, 37442, Note_on_c, 0, 53, 30
2, 37443, Note_on_c, 0, 60, 45
2, 37444, Note_on_c, 0, 65, 35
2, 37447, Note_on_c, 0, 62, 30
2, 37466, Note_on_c, 0, 53, 0
2, 37504, Note_on_c, 0, 65, 0
2, 37513, Note_on_c, 0, 60, 0
2, 37520, Note_on_c, 0, 57, 0
2, 37522, Note_on_c, 0, 62, 0
2, 37593, Note_on_c, 0, 36, 63
2, 37609, Control_c, 0, 64, 127
2, 37619, Note_on_c, 0, 36, 0
2, 37838, Note_on_c, 0, 68, 75
2, 37840, Note_on_c, 0, 72, 73
2, 37841, Note_on_c, 0, 58, 70
2, 37842, Note_on_c, 0, 64, 76
2, 37885, Note_on_c, 0, 64, 0
2, 37890, Note_on_c, 0, 68, 0
2, 37892, Note_on_c, 0, 72, 0
2, 37934, Note_on_c, 0, 58, 0
2, 37990, Note_on_c, 0, 76, 72
2, 37991, Note_on_c, 0, 58, 69
2, 37992, Note_on_c, 0, 68, 71
2, 37995, Note_on_c, 0, 64, 68
2, 37996, Note_on_c, 0, 72, 62
2, 38004, Control_c, 0, 64, 0
2, 38052, Control_c, 0, 64, 127
2, 38094, Note_on_c, 0, 76, 0
2, 38101, Note_on_c, 0, 72, 0
2, 38109, Note_on_c, 0, 64, 0
2, 38125, Note_on_c, 0, 68, 0
2, 38126, Note_on_c, 0, 58, 0
2, 38165, Control_c, 0, 64, 0
2, 38172, Note_on_c, 0, 73, 62
2, 38178, Note_on_c, 0, 68, 69
2, 38180, Note_on_c, 0, 58, 59
2, 38186, Note_on_c, 0, 64, 57
2, 38195, Control_c, 0, 64, 127
2, 38273, Note_on_c, 0, 64, 0
2, 38282, Note_on_c, 0, 73, 0
2, 38302, Note_on_c, 0, 68, 0
2, 38319, Note_on_c, 0, 58, 0
2, 38340, Control_c, 0, 64, 0
2, 38340, Note_on_c, 0, 67, 53
2, 38341, Note_on_c, 0, 57, 58
2, 38342, Note_on_c, 0, 62, 54
2, 38343, Note_on_c, 0, 72, 55
2, 38500, Control_c, 0, 64, 127
2, 38629, Note_on_c, 0, 62, 0
2, 38636, Note_on_c, 0, 57, 0
2, 38668, Note_on_c, 0, 67, 0
2, 38689, Note_on_c, 0, 72, 0
2, 38892, Control_c, 0, 64, 0
2, 38892, Note_on_c, 0, 61, 57
2, 38893, Note_on_c, 0, 60, 72
2, 38893, Note_on_c, 0, 87, 84
2, 38894, Note_on_c, 0, 65, 74
2, 38894, Note_on_c, 0, 75, 85
2, 38895, Note_on_c, 0, 82, 83
2, 38901, Note_on_c, 0, 58, 37
2, 38903, Note_on_c, 0, 55, 64
2, 38993, Control_c, 0, 64, 127
2, 39156, Note_on_c, 0, 75, 0
2, 39163, Note_on_c, 0, 65, 0
2, 39166, Note_on_c, 0, 82, 0
2, 39169, Note_on_c, 0, 55, 0
2, 39176, Note_on_c, 0, 60, 0
2, 39178, Note_on_c, 0, 87, 0
2, 39189, Note_on_c, 0, 61, 0
2, 39200, Note_on_c, 0, 58, 0
2, 39354, Control_c, 0, 64, 0
2, 39366, Note_on_c, 0, 80, 56
2, 39366, Note_on_c, 0, 76, 64
2, 39367, Note_on_c, 0, 88, 68
2, 39368, Note_on_c, 0, 54, 62
2, 39371, Note_on_c, 0, 64, 54
2, 39371, Note_on_c, 0, 86, 54
2, 39372, Note_on_c, 0, 60, 54
2, 39373, Note_on_c, 0, 83, 70
2, 39586, Control_c, 0, 64, 127
2, 39687, Note_on_c, 0, 76, 0
2, 39697, Note_on_c, 0, 83, 0
2, 39697, Note_on_c, 0, 80, 0
2, 39704, Note_on_c, 0, 86, 0
2, 39709, Note_on_c, 0, 54, 0
2, 39710, Note_on_c, 0, 60, 0
2, 39710, Note_on_c, 0, 88, 0
2, 39732, Note_on_c, 0, 64, 0
2, 39966, Control_c, 0, 64, 0
2, 39982, Note_on_c, 0, 98, 74
2, 39985, Note_on_c, 0, 86, 57
2, 39988, Note_on_c, 0, 93, 64
2, 39989, Note_on_c, 0, 60, 70
2, 39989, Note_on_c, 0, 54, 69
2, 39991, Note_on_c, 0, 64, 60
2, 40003, Note_on_c, 0, 93, 0
2, 40009, Note_on_c, 0, 64, 0
2, 40011, Note_on_c, 0, 98, 0
2, 40014, Note_on_c, 0, 86, 0
2, 40017, Note_on_c, 0, 60, 0
2, 40026, Note_on_c, 0, 54, 0
2, 40059, Control_c, 0, 64, 127
2, 40082, Control_c, 0, 64, 0
2, 40132, Note_on_c, 0, 95, 64
2, 40135, Note_on_c, 0, 83, 53
2, 40138, Note_on_c, 0, 54, 64
2, 40139, Note_on_c, 0, 60, 56
2, 40139, Note_on_c, 0, 64, 57
2, 40159, Control_c, 0, 64, 127
2, 40206, Note_on_c, 0, 60, 0
2, 40207, Note_on_c, 0, 95, 0
2, 40216, Note_on_c, 0, 64, 0
2, 40234, Note_on_c, 0, 83, 0
2, 40251, Note_on_c, 0, 54, 0
2, 40305, Control_c, 0, 64, 0
2, 40310, Note_on_c, 0, 94, 55
2, 40310, Note_on_c, 0, 58, 36
2, 40313, Note_on_c, 0, 62, 36
2, 40313, Note_on_c, 0, 57, 43
2, 40314, Note_on_c, 0, 53, 33
2, 40314, Note_on_c, 0, 82, 36
2, 40326, Note_on_c, 0, 88, 33
2, 40372, Control_c, 0, 64, 127
2, 40448, Note_on_c, 0, 88, 0
2, 40461, Note_on_c, 0, 58, 0
2, 40466, Note_on_c, 0, 62, 0
2, 40467, Note_on_c, 0, 53, 0
2, 40468, Note_on_c, 0, 94, 0
2, 40470, Note_on_c, 0, 57, 0
2, 40475, Note_on_c, 0, 82, 0
2, 40537, Control_c, 0, 64, 0
2, 40554, Note_on_c, 0, 62, 34
2, 40558, Note_on_c, 0, 57, 37
2, 40563, Note_on_c, 0, 93, 49
2, 40563, Note_on_c, 0, 53, 31
2, 40563, Note_on_c, 0, 88, 35
2, 40563, Note_on_c, 0, 58, 37
2, 40565, Note_on_c, 0, 81, 30
2, 40585, Control_c, 0, 64, 127
2, 40614, Note_on_c, 0, 88, 0
2, 40618, Note_on_c, 0, 93, 0
2, 40639, Note_on_c, 0, 58, 0
2, 40642, Note_on_c, 0, 53, 0
2, 40650, Note_on_c, 0, 62, 0
2, 40650, Note_on_c, 0, 57, 0
2, 40663, Note_on_c, 0, 81, 0
2, 40723, Control_c, 0, 64, 0
2, 40731, Note_on_c, 0, 79, 42
2, 40734, Note_on_c, 0, 62, 49
2, 40737, Note_on_c, 0, 86, 33
2, 40737, Note_on_c, 0, 58, 40
2, 40737, Note_on_c, 0, 91, 22
2, 40740, Note_on_c, 0, 57, 37
2, 40748, Note_on_c, 0, 53, 27
2, 40750, Note_on_c, 0, 91, 0
2, 40750, Note_on_c, 0, 79, 0
2, 40753, Note_on_c, 0, 86, 0
2, 40756, Note_on_c, 0, 57, 0
2, 40758, Note_on_c, 0, 62, 0
2, 40761, Note_on_c, 0, 53, 0
2, 40764, Note_on_c, 0, 58, 0
2, 41277, Note_on_c, 0, 75, 76
2, 41279, Note_on_c, 0, 68, 72
2, 41281, Note_on_c, 0, 64, 64
2, 41284, Note_on_c, 0, 63, 67
2, 41284, Note_on_c, 0, 72, 60
2, 41290, Note_on_c, 0, 65, 50
2, 41302, Note_on_c, 0, 65, 0
2, 41478, Note_on_c, 0, 72, 0
2, 41487, Note_on_c, 0, 68, 0
2, 41492, Note_on_c, 0, 64, 0
2, 41522, Note_on_c, 0, 75, 0
2, 41528, Note_on_c, 0, 73, 42
2, 41530, Note_on_c, 0, 63, 0
2, 41532, Note_on_c, 0, 61, 50
2, 41535, Note_on_c, 0, 68, 45
2, 41537, Note_on_c, 0, 64, 37
2, 41571, Control_c, 0, 64, 127
2, 41578, Note_on_c, 0, 61, 0
2, 41619, Control_c, 0, 64, 0
2, 41628, Note_on_c, 0, 73, 0
2, 41637, Note_on_c, 0, 68, 0
2, 41646, Note_on_c, 0, 64, 0
2, 41766, Note_on_c, 0, 72, 55
2, 41770, Note_on_c, 0, 61, 48
2, 41773, Note_on_c, 0, 64, 52
2, 41779, Note_on_c, 0, 60, 43
2, 41787, Note_on_c, 0, 70, 27
2, 41789, Note_on_c, 0, 67, 26
2, 41833, Note_on_c, 0, 60, 0
2, 41836, Note_on_c, 0, 72, 0
2, 41839, Note_on_c, 0, 67, 0
2, 41841, Note_on_c, 0, 70, 0
2, 41848, Note_on_c, 0, 64, 0
2, 41878, Note_on_c, 0, 61, 0
2, 41944, Control_c, 0, 64, 127
2, 41973, Control_c, 0, 64, 0
2, 42006, Note_on_c, 0, 61, 40
2, 42010, Note_on_c, 0, 69, 40
2, 42010, Note_on_c, 0, 58, 35
2, 42013, Note_on_c, 0, 57, 38
2, 42015, Note_on_c, 0, 64, 45
2, 42066, Note_on_c, 0, 57, 0
2, 42072, Note_on_c, 0, 69, 0
2, 42098, Note_on_c, 0, 64, 0
2, 42098, Note_on_c, 0, 58, 0
2, 42101, Note_on_c, 0, 61, 0
2, 42249, Note_on_c, 0, 69, 46
2, 42255, Note_on_c, 0, 53, 36
2, 42256, Note_on_c, 0, 60, 33
2, 42263, Note_on_c, 0, 64, 32
2, 42304, Note_on_c, 0, 53, 0
2, 42316, Note_on_c, 0, 60, 0
2, 42319, Note_on_c, 0, 64, 0
2, 42334, Note_on_c, 0, 69, 0
2, 42489, Note_on_c, 0, 69, 45
2, 42494, Note_on_c, 0, 60, 44
2, 42495, Note_on_c, 0, 64, 44
2, 42496, Note_on_c, 0, 53, 37
2, 42515, Note_on_c, 0, 53, 0
2, 42555, Note_on_c, 0, 69, 0
2, 42563, Note_on_c, 0, 64, 0
2, 42594, Note_on_c, 0, 60, 0
2, 42644, Control_c, 0, 64, 127
2, 42697, Control_c, 0, 64, 0
2, 42731, Note_on_c, 0, 61, 48
2, 42732, Note_on_c, 0, 67, 53
2, 42735, Note_on_c, 0, 57, 46
2, 42741, Note_on_c, 0, 51, 31
2, 42754, Note_on_c, 0, 61, 0
2, 42773, Note_on_c, 0, 62, 22
2, 42846, Note_on_c, 0, 62, 0
2, 42850, Note_on_c, 0, 51, 0
2, 42850, Note_on_c, 0, 57, 0
2, 42857, Control_c, 0, 64, 127
2, 42891, Note_on_c, 0, 67, 0
2, 42905, Control_c, 0, 64, 0
2, 43133, Control_c, 0, 64, 127
2, 43139, Note_on_c, 0, 67, 62
2, 43143, Note_on_c, 0, 62, 56
2, 43145, Note_on_c, 0, 57, 51
2, 43185, Note_on_c, 0, 57, 0
2, 43188, Note_on_c, 0, 62, 0
2, 43202, Note_on_c, 0, 67, 0
2, 43204, Control_c, 0, 64, 0
2, 43245, Note_on_c, 0, 46, 28
2, 43249, Note_on_c, 0, 65, 47
2, 43250, Note_on_c, 0, 53, 30
2, 43254, Note_on_c, 0, 62, 24
2, 43270, Note_on_c, 0, 62, 0
2, 43277, Note_on_c, 0, 65, 0
2, 43322, Note_on_c, 0, 46, 0
2, 43357, Note_on_c, 0, 53, 0
2, 43389, Note_on_c, 0, 72, 64
2, 43391, Control_c, 0, 64, 127
2, 43391, Note_on_c, 0, 65, 58
2, 43391, Note_on_c, 0, 62, 54
2, 43394, Note_on_c, 0, 57, 45
2, 43426, Note_on_c, 0, 57, 0
2, 43427, Note_on_c, 0, 62, 0
2, 43431, Note_on_c, 0, 65, 0
2, 43443, Control_c, 0, 64, 0
2, 43450, Note_on_c, 0, 72, 0
2, 43485, Note_on_c, 0, 62, 40
2, 43486, Note_on_c, 0, 70, 47
2, 43510, Note_on_c, 0, 62, 0
2, 43549, Note_on_c, 0, 70, 0
2, 43596, Control_c, 0, 64, 127
2, 43641, Control_c, 0, 64, 0
2, 43687, Note_on_c, 0, 62, 35
2, 43687, Note_on_c, 0, 56, 26
2, 43690, Note_on_c, 0, 68, 46
2, 43691, Note_on_c, 0, 65, 36
2, 43693, Note_on_c, 0, 47, 32
2, 43711, Control_c, 0, 64, 127
2, 43713, Note_on_c, 0, 47, 0
2, 43717, Note_on_c, 0, 65, 0
2, 43718, Note_on_c, 0, 62, 0
2, 43737, Note_on_c, 0, 68, 0
2, 43745, Note_on_c, 0, 56, 0
2, 43844, Note_on_c, 0, 74, 66
2, 43847, Note_on_c, 0, 59, 57
2, 43849, Note_on_c, 0, 68, 57
2, 43853, Note_on_c, 0, 65, 49
2, 43889, Note_on_c, 0, 65, 0
2, 43896, Note_on_c, 0, 68, 0
2, 43897, Note_on_c, 0, 59, 0
2, 43902, Control_c, 0, 64, 0
2, 43907, Note_on_c, 0, 74, 0
2, 43936, Note_on_c, 0, 56, 32
2, 43940, Note_on_c, 0, 65, 35
2, 43942, Note_on_c, 0, 71, 30
2, 43973, Control_c, 0, 64, 127
2, 43974, Note_on_c, 0, 71, 0
2, 43977, Note_on_c, 0, 65, 0
2, 44059, Note_on_c, 0, 56, 0
2, 44077, Control_c, 0, 64, 0
2, 44078, Note_on_c, 0, 72, 58
2, 44083, Note_on_c, 0, 48, 30
2, 44084, Note_on_c, 0, 65, 57
2, 44089, Note_on_c, 0, 57, 24
2, 44159, Note_on_c, 0, 65, 0
2, 44173, Control_c, 0, 64, 127
2, 44182, Note_on_c, 0, 72, 0
2, 44226, Control_c, 0, 64, 0
2, 44251, Note_on_c, 0, 72, 58
2, 44271, Note_on_c, 0, 72, 0
2, 44324, Note_on_c, 0, 77, 60
2, 44341, Note_on_c, 0, 77, 0
2, 44386, Note_on_c, 0, 48, 0
2, 44407, Note_on_c, 0, 81, 60
2, 44425, Note_on_c, 0, 81, 0
2, 44427, Note_on_c, 0, 57, 0
2, 44486, Note_on_c, 0, 84, 85
2, 44530, Note_on_c, 0, 84, 0
2, 44588, Note_on_c, 0, 82, 76
2, 44672, Note_on_c, 0, 82, 0
2, 44686, Note_on_c, 0, 83, 58
2, 44730, Note_on_c, 0, 82, 60
2, 44734, Note_on_c, 0, 83, 0
2, 44774, Note_on_c, 0, 82, 0
2, 44783, Note_on_c, 0, 80, 47
2, 44816, Note_on_c, 0, 80, 0
2, 44827, Note_on_c, 0, 77, 51
2, 44841, Note_on_c, 0, 58, 33
2, 44854, Note_on_c, 0, 77, 0
2, 44866, Note_on_c, 0, 58, 0
2, 44902, Note_on_c, 0, 82, 73
2, 44965, Note_on_c, 0, 82, 0
2, 45041, Note_on_c, 0, 47, 67
2, 45042, Note_on_c, 0, 48, 73
2, 45047, Note_on_c, 0, 80, 74
2, 45063, Note_on_c, 0, 47, 0
2, 45103, Note_on_c, 0, 80, 0
2, 45156, Note_on_c, 0, 77, 27
2, 45176, Note_on_c, 0, 77, 0
2, 45288, Note_on_c, 0, 75, 62
2, 45315, Note_on_c, 0, 75, 0
2, 45386, Note_on_c, 0, 70, 47
2, 45406, Note_on_c, 0, 70, 0
2, 45424, Note_on_c, 0, 71, 33
2, 45458, Note_on_c, 0, 71, 0
2, 45458, Note_on_c, 0, 70, 47
2, 45504, Note_on_c, 0, 70, 0
2, 45509, Note_on_c, 0, 68, 36
2, 45550, Note_on_c, 0, 68, 0
2, 45568, Note_on_c, 0, 65, 33
2, 45592, Note_on_c, 0, 65, 0
2, 45630, Note_on_c, 0, 70, 74
2, 45669, Note_on_c, 0, 48, 0
2, 45704, Note_on_c, 0, 70, 0
2, 45769, Note_on_c, 0, 48, 63
2, 45772, Note_on_c, 0, 68, 71
2, 45783, Note_on_c, 0, 48, 0
2, 45826, Note_on_c, 0, 68, 0
2, 45873, Note_on_c, 0, 65, 20
2, 45944, Note_on_c, 0, 65, 0
2, 46006, Note_on_c, 0, 63, 57
2, 46045, Note_on_c, 0, 63, 0
2, 46091, Note_on_c, 0, 62, 51
2, 46138, Note_on_c, 0, 62, 0
2, 46155, Note_on_c, 0, 67, 65
2, 46195, Note_on_c, 0, 67, 0
2, 46229, Note_on_c, 0, 65, 59
2, 46273, Note_on_c, 0, 65, 0
2, 46294, Note_on_c, 0, 63, 45
2, 46329, Note_on_c, 0, 63, 0
2, 46361, Note_on_c, 0, 60, 50
2, 46400, Note_on_c, 0, 60, 0
2, 46428, Note_on_c, 0, 57, 38
2, 46461, Note_on_c, 0, 57, 0
2, 46490, Note_on_c, 0, 56, 43
2, 46533, Note_on_c, 0, 56, 0
2, 46565, Note_on_c, 0, 55, 47
2, 46608, Note_on_c, 0, 55, 0
2, 46646, Note_on_c, 0, 54, 31
2, 46682, Note_on_c, 0, 54, 0
2, 46711, Note_on_c, 0, 52, 28
2, 46724, Note_on_c, 0, 52, 0
2, 46760, Note_on_c, 0, 55, 65
2, 46797, Note_on_c, 0, 55, 0
2, 46825, Note_on_c, 0, 52, 45
2, 46842, Note_on_c, 0, 52, 0
2, 46885, Note_on_c, 0, 53, 34
2, 46922, Note_on_c, 0, 53, 0
2, 47273, Note_on_c, 0, 67, 38
2, 47274, Note_on_c, 0, 62, 38
2, 47277, Note_on_c, 0, 63, 27
2, 47284, Note_on_c, 0, 57, 36
2, 47344, Note_on_c, 0, 67, 0
2, 47346, Note_on_c, 0, 62, 0
2, 47352, Note_on_c, 0, 63, 0
2, 47363, Note_on_c, 0, 57, 0
2, 47630, Note_on_c, 0, 62, 62
2, 47654, Note_on_c, 0, 62, 0
2, 47693, Note_on_c, 0, 65, 70
2, 47735, Note_on_c, 0, 65, 0
2, 47742, Note_on_c, 0, 62, 24
2, 47771, Note_on_c, 0, 69, 80
2, 47774, Note_on_c, 0, 62, 0
2, 47827, Note_on_c, 0, 69, 0
2, 47846, Note_on_c, 0, 72, 66
2, 47892, Note_on_c, 0, 72, 0
2, 47927, Note_on_c, 0, 69, 66
2, 47927, Note_on_c, 0, 62, 40
2, 47932, Note_on_c, 0, 65, 28
2, 47936, Note_on_c, 0, 60, 34
2, 47948, Note_on_c, 0, 65, 0
2, 47955, Note_on_c, 0, 60, 0
2, 47959, Note_on_c, 0, 62, 0
2, 47991, Note_on_c, 0, 69, 0
2, 48001, Note_on_c, 0, 70, 49
2, 48049, Control_c, 0, 64, 127
2, 48052, Note_on_c, 0, 70, 0
2, 48084, Note_on_c, 0, 71, 54
2, 48109, Control_c, 0, 64, 0
2, 48122, Note_on_c, 0, 71, 0
2, 48152, Note_on_c, 0, 73, 51
2, 48219, Note_on_c, 0, 73, 0
2, 48237, Note_on_c, 0, 75, 37
2, 48274, Note_on_c, 0, 75, 0
2, 48316, Note_on_c, 0, 77, 33
2, 48354, Note_on_c, 0, 77, 0
2, 48392, Note_on_c, 0, 63, 48
2, 48393, Note_on_c, 0, 78, 56
2, 48395, Note_on_c, 0, 54, 49
2, 48412, Note_on_c, 0, 58, 31
2, 48469, Note_on_c, 0, 78, 0
2, 48474, Note_on_c, 0, 80, 46
2, 48503, Control_c, 0, 64, 127
2, 48504, Note_on_c, 0, 54, 0
2, 48515, Note_on_c, 0, 58, 0
2, 48526, Note_on_c, 0, 63, 0
2, 48532, Note_on_c, 0, 80, 0
2, 48559, Note_on_c, 0, 82, 54
2, 48605, Note_on_c, 0, 82, 0
2, 48605, Control_c, 0, 64, 0
2, 48633, Note_on_c, 0, 65, 56
2, 48634, Note_on_c, 0, 83, 55
2, 48638, Note_on_c, 0, 60, 53
2, 48644, Note_on_c, 0, 55, 43
2, 48708, Note_on_c, 0, 65, 0
2, 48714, Note_on_c, 0, 60, 0
2, 48722, Note_on_c, 0, 55, 0
2, 48728, Note_on_c, 0, 83, 0
2, 48728, Note_on_c, 0, 85, 35
2, 48778, Note_on_c, 0, 85, 0
2, 48807, Note_on_c, 0, 87, 58
2, 48855, Note_on_c, 0, 87, 0
2, 48882, Note_on_c, 0, 89, 64
2, 48899, Note_on_c, 0, 65, 47
2, 48917, Note_on_c, 0, 65, 0
2, 48940, Note_on_c, 0, 89, 0
2, 48965, Note_on_c, 0, 91, 48
2, 49006, Note_on_c, 0, 91, 0
2, 49041, Note_on_c, 0, 93, 65
2, 49074, Note_on_c, 0, 93, 0
2, 49117, Note_on_c, 0, 94, 53
2, 49163, Note_on_c, 0, 94, 0
2, 49197, Note_on_c, 0, 62, 36
2, 49198, Note_on_c, 0, 95, 43
2, 49203, Note_on_c, 0, 56, 28
2, 49206, Note_on_c, 0, 59, 33
2, 49216, Note_on_c, 0, 53, 26
2, 49224, Note_on_c, 0, 59, 0
2, 49231, Note_on_c, 0, 53, 0
2, 49233, Note_on_c, 0, 62, 0
2, 49245, Note_on_c, 0, 56, 0
2, 49249, Note_on_c, 0, 95, 0
2, 49272, Note_on_c, 0, 98, 50
2, 49315, Note_on_c, 0, 98, 0
2, 49343, Note_on_c, 0, 101, 60
2, 49375, Note_on_c, 0, 101, 0
2, 49408, Note_on_c, 0, 104, 60
2, 49458, Note_on_c, 0, 104, 0
2, 49477, Note_on_c, 0, 107, 80
2, 49514, Note_on_c, 0, 107, 0
2, 49596, Note_on_c, 0, 98, 25
2, 49621, Note_on_c, 0, 98, 0
2, 49651, Note_on_c, 0, 101, 68
2, 49701, Note_on_c, 0, 101, 0
2, 49714, Note_on_c, 0, 104, 60
2, 49759, Note_on_c, 0, 104, 0
2, 49826, Note_on_c, 0, 93, 52
2, 49852, Note_on_c, 0, 93, 0
2, 49883, Note_on_c, 0, 95, 59
2, 49918, Note_on_c, 0, 95, 0
2, 49951, Note_on_c, 0, 98, 51
2, 49965, Note_on_c, 0, 98, 0
2, 50060, Note_on_c, 0, 89, 57
2, 50076, Note_on_c, 0, 89, 0
2, 50540, Note_on_c, 0, 76, 55
2, 50599, Note_on_c, 0, 76, 0
2, 50601, Note_on_c, 0, 77, 55
2, 50653, Note_on_c, 0, 77, 0
2, 50674, Note_on_c, 0, 82, 69
2, 50707, Note_on_c, 0, 82, 0
2, 50742, Note_on_c, 0, 81, 68
2, 50779, Note_on_c, 0, 81, 0
2, 50842, Note_on_c, 0, 71, 50
2, 50864, Note_on_c, 0, 71, 0
2, 50925, Note_on_c, 0, 72, 38
2, 50960, Note_on_c, 0, 72, 0
2, 51008, Note_on_c, 0, 79, 75
2, 51054, Note_on_c, 0, 79, 0
2, 51091, Note_on_c, 0, 77, 72
2, 51127, Note_on_c, 0, 77, 0
2, 51186, Note_on_c, 0, 73, 50
2, 51235, Note_on_c, 0, 73, 0
2, 51540, Note_on_c, 0, 74, 74
2, 51555, Note_on_c, 0, 60, 56
2, 51568, Note_on_c, 0, 60, 0
2, 51604, Note_on_c, 0, 74, 0
2, 51628, Note_on_c, 0, 69, 53
2, 51773, Note_on_c, 0, 69, 0
2, 51787, Note_on_c, 0, 65, 40
2, 51804, Note_on_c, 0, 65, 0
2, 51865, Note_on_c, 0, 76, 72
2, 51871, Note_on_c, 0, 69, 80
2, 51973, Note_on_c, 0, 76, 0
2, 52001, Note_on_c, 0, 69, 0
2, 52007, Note_on_c, 0, 73, 64
2, 52012, Note_on_c, 0, 59, 30
2, 52018, Note_on_c, 0, 64, 55
2, 52051, Note_on_c, 0, 59, 0
2, 52057, Note_on_c, 0, 64, 0
2, 52075, Note_on_c, 0, 73, 0
2, 52496, Note_on_c, 0, 53, 53
2, 52511, Note_on_c, 0, 53, 0
2, 52578, Note_on_c, 0, 64, 74
2, 52633, Note_on_c, 0, 64, 0
2, 52648, Note_on_c, 0, 61, 60
2, 52714, Note_on_c, 0, 61, 0
2, 52723, Note_on_c, 0, 59, 46
2, 52763, Note_on_c, 0, 59, 0
2, 52967, Note_on_c, 0, 48, 47
2, 52982, Note_on_c, 0, 48, 0
2, 53054, Note_on_c, 0, 72, 57
2, 53055, Note_on_c, 0, 58, 38
2, 53055, Note_on_c, 0, 64, 53
2, 53073, Note_on_c, 0, 58, 0
2, 53074, Note_on_c, 0, 64, 0
2, 53091, Note_on_c, 0, 72, 0
2, 53209, Note_on_c, 0, 73, 72
2, 53215, Note_on_c, 0, 68, 60
2, 53217, Note_on_c, 0, 58, 60
2, 53218, Note_on_c, 0, 64, 57
2, 53225, Note_on_c, 0, 70, 38
2, 53259, Note_on_c, 0, 64, 0
2, 53263, Note_on_c, 0, 68, 0
2, 53266, Note_on_c, 0, 70, 0
2, 53269, Note_on_c, 0, 73, 0
2, 53289, Note_on_c, 0, 58, 0
2, 53300, Note_on_c, 0, 63, 50
2, 53301, Note_on_c, 0, 68, 57
2, 53301, Note_on_c, 0, 75, 71
2, 53302, Note_on_c, 0, 70, 50
2, 53304, Note_on_c, 0, 64, 57
2, 53307, Note_on_c, 0, 61, 35
2, 53418, Note_on_c, 0, 63, 0
2, 53419, Control_c, 0, 64, 127
2, 53421, Note_on_c, 0, 70, 0
2, 53424, Note_on_c, 0, 68, 0
2, 53429, Note_on_c, 0, 64, 0
2, 53441, Note_on_c, 0, 61, 0
2, 53444, Note_on_c, 0, 75, 0
2, 53475, Note_on_c, 0, 58, 20
2, 53490, Control_c, 0, 64, 0
2, 53515, Note_on_c, 0, 58, 0
2, 53531, Note_on_c, 0, 75, 64
2, 53536, Note_on_c, 0, 61, 48
2, 53536, Note_on_c, 0, 70, 55
2, 53539, Note_on_c, 0, 68, 50
2, 53540, Note_on_c, 0, 64, 42
2, 53572, Control_c, 0, 64, 127
2, 53600, Note_on_c, 0, 61, 0
2, 53614, Note_on_c, 0, 75, 0
2, 53624, Note_on_c, 0, 70, 0
2, 53633, Note_on_c, 0, 68, 0
2, 53647, Note_on_c, 0, 64, 0
2, 53692, Note_on_c, 0, 72, 57
2, 53694, Note_on_c, 0, 57, 53
2, 53694, Note_on_c, 0, 62, 53
2, 53696, Control_c, 0, 64, 0
2, 53696, Note_on_c, 0, 67, 47
2, 53751, Control_c, 0, 64, 127
2, 53769, Note_on_c, 0, 62, 0
2, 53782, Note_on_c, 0, 67, 0
2, 53793, Note_on_c, 0, 72, 0
2, 53820, Note_on_c, 0, 57, 0
2, 53930, Note_on_c, 0, 84, 78
2, 53932, Note_on_c, 0, 72, 68
2, 53933, Note_on_c, 0, 57, 56
2, 53959, Note_on_c, 0, 72, 0
2, 53964, Note_on_c, 0, 57, 0
2, 53968, Note_on_c, 0, 84, 0
2, 53994, Control_c, 0, 64, 0
2, 54023, Note_on_c, 0, 86, 53
2, 54027, Note_on_c, 0, 74, 49
2, 54036, Note_on_c, 0, 86, 0
2, 54040, Note_on_c, 0, 74, 0
2, 54112, Control_c, 0, 64, 127
2, 54178, Note_on_c, 0, 72, 60
2, 54179, Note_on_c, 0, 60, 58
2, 54182, Note_on_c, 0, 84, 48
2, 54187, Note_on_c, 0, 61, 25
2, 54190, Note_on_c, 0, 72, 0
2, 54194, Control_c, 0, 64, 0
2, 54196, Note_on_c, 0, 84, 0
2, 54200, Note_on_c, 0, 61, 0
2, 54214, Note_on_c, 0, 60, 0
2, 54251, Note_on_c, 0, 60, 43
2, 54255, Note_on_c, 0, 61, 34
2, 54256, Note_on_c, 0, 75, 64
2, 54257, Note_on_c, 0, 87, 72
2, 54257, Note_on_c, 0, 65, 31
2, 54263, Note_on_c, 0, 55, 32
2, 54348, Note_on_c, 0, 55, 0
2, 54354, Note_on_c, 0, 75, 0
2, 54357, Note_on_c, 0, 61, 0
2, 54358, Note_on_c, 0, 87, 0
2, 54366, Note_on_c, 0, 65, 0
2, 54370, Note_on_c, 0, 60, 0
2, 54399, Note_on_c, 0, 89, 68
2, 54401, Note_on_c, 0, 65, 58
2, 54402, Note_on_c, 0, 60, 53
2, 54404, Note_on_c, 0, 61, 51
2, 54405, Note_on_c, 0, 77, 37
2, 54413, Note_on_c, 0, 55, 46
2, 54432, Note_on_c, 0, 55, 0
2, 54437, Note_on_c, 0, 89, 0
2, 54437, Note_on_c, 0, 65, 0
2, 54438, Note_on_c, 0, 77, 0
2, 54472, Note_on_c, 0, 65, 27
2, 54481, Note_on_c, 0, 55, 18
2, 54486, Note_on_c, 0, 75, 47
2, 54486, Note_on_c, 0, 87, 53
2, 54528, Note_on_c, 0, 87, 0
2, 54549, Note_on_c, 0, 55, 0
2, 54555, Note_on_c, 0, 75, 0
2, 54559, Note_on_c, 0, 65, 0
2, 54559, Note_on_c, 0, 60, 0
2, 54584, Note_on_c, 0, 61, 0
2, 54632, Note_on_c, 0, 85, 55
2, 54635, Note_on_c, 0, 64, 66
2, 54637, Note_on_c, 0, 54, 58
2, 54640, Note_on_c, 0, 73, 63
2, 54642, Note_on_c, 0, 60, 58
2, 54655, Note_on_c, 0, 60, 0
2, 54661, Note_on_c, 0, 86, 36
2, 54665, Note_on_c, 0, 64, 0
2, 54666, Note_on_c, 0, 73, 0
2, 54667, Note_on_c, 0, 54, 0
2, 54673, Note_on_c, 0, 74, 55
2, 54713, Note_on_c, 0, 85, 0
2, 54715, Note_on_c, 0, 74, 0
2, 54715, Note_on_c, 0, 86, 0
2, 54775, Note_on_c, 0, 73, 52
2, 54787, Note_on_c, 0, 85, 15
2, 54788, Note_on_c, 0, 86, 38
2, 54809, Note_on_c, 0, 73, 0
2, 54815, Note_on_c, 0, 74, 51
2, 54817, Note_on_c, 0, 85, 0
2, 54892, Note_on_c, 0, 86, 0
2, 54898, Note_on_c, 0, 74, 0
2, 54968, Note_on_c, 0, 73, 55
2, 54979, Note_on_c, 0, 86, 37
2, 54982, Note_on_c, 0, 85, 19
2, 54989, Note_on_c, 0, 84, 28
2, 54998, Note_on_c, 0, 85, 0
2, 55000, Note_on_c, 0, 73, 0
2, 55005, Note_on_c, 0, 74, 51
2, 55061, Note_on_c, 0, 86, 0
2, 55065, Note_on_c, 0, 74, 0
2, 55097, Note_on_c, 0, 84, 0
2, 55134, Note_on_c, 0, 73, 59
2, 55139, Note_on_c, 0, 60, 54
2, 55139, Note_on_c, 0, 86, 60
2, 55143, Note_on_c, 0, 54, 39
2, 55144, Note_on_c, 0, 84, 22
2, 55151, Note_on_c, 0, 60, 0
2, 55162, Note_on_c, 0, 73, 0
2, 55164, Note_on_c, 0, 74, 64
2, 55176, Note_on_c, 0, 54, 0
2, 55212, Note_on_c, 0, 74, 0
2, 55218, Note_on_c, 0, 86, 0
2, 55252, Note_on_c, 0, 84, 0
2, 55292, Note_on_c, 0, 73, 53
2, 55302, Note_on_c, 0, 86, 46
2, 55316, Note_on_c, 0, 84, 22
2, 55352, Note_on_c, 0, 74, 47
2, 55353, Note_on_c, 0, 73, 0
2, 55391, Note_on_c, 0, 86, 0
2, 55391, Note_on_c, 0, 84, 0
2, 55392, Note_on_c, 0, 74, 0
2, 55444, Note_on_c, 0, 84, 37
2, 55450, Note_on_c, 0, 65, 24
2, 55453, Note_on_c, 0, 60, 38
2, 55454, Note_on_c, 0, 72, 55
2, 55459, Note_on_c, 0, 54, 23
2, 55479, Note_on_c, 0, 84, 0
2, 55508, Note_on_c, 0, 72, 0
2, 55533, Note_on_c, 0, 65, 0
2, 55545, Note_on_c, 0, 60, 0
2, 55595, Note_on_c, 0, 54, 0
2, 55606, Note_on_c, 0, 80, 50
2, 55612, Note_on_c, 0, 62, 48
2, 55613, Note_on_c, 0, 68, 56
2, 55625, Note_on_c, 0, 68, 0
2, 55625, Note_on_c, 0, 58, 32
2, 55626, Note_on_c, 0, 74, 34
2, 55635, Note_on_c, 0, 69, 53
2, 55639, Note_on_c, 0, 57, 25
2, 55644, Note_on_c, 0, 77, 26
2, 55662, Note_on_c, 0, 57, 0
2, 55666, Note_on_c, 0, 80, 0
2, 55667, Note_on_c, 0, 62, 0
2, 55674, Note_on_c, 0, 77, 0
2, 55676, Note_on_c, 0, 69, 0
2, 55683, Note_on_c, 0, 58, 0
2, 55691, Note_on_c, 0, 74, 0
2, 55725, Note_on_c, 0, 77, 50
2, 55755, Note_on_c, 0, 65, 11
2, 55812, Note_on_c, 0, 77, 0
2, 55816, Note_on_c, 0, 65, 0
2, 55864, Note_on_c, 0, 77, 55
2, 55874, Note_on_c, 0, 65, 28
2, 55906, Note_on_c, 0, 65, 0
2, 55925, Note_on_c, 0, 77, 0
2, 55946, Note_on_c, 0, 74, 35
2, 56090, Note_on_c, 0, 74, 0
2, 56114, Note_on_c, 0, 65, 31
2, 56115, Note_on_c, 0, 62, 29
2, 56131, Note_on_c, 0, 62, 0
2, 56135, Note_on_c, 0, 65, 0
2, 56179, Note_on_c, 0, 77, 53
2, 56188, Note_on_c, 0, 65, 28
2, 56270, Note_on_c, 0, 65, 0
2, 56286, Note_on_c, 0, 77, 0
2, 56410, Note_on_c, 0, 65, 46
2, 56448, Note_on_c, 0, 65, 0
2, 56640, Note_on_c, 0, 58, 46
2, 56643, Note_on_c, 0, 64, 24
2, 56655, Note_on_c, 0, 80, 53
2, 56656, Note_on_c, 0, 64, 0
2, 56673, Note_on_c, 0, 80, 0
2, 56681, Note_on_c, 0, 58, 0
2, 56699, Note_on_c, 0, 84, 56
2, 56736, Note_on_c, 0, 80, 44
2, 56753, Note_on_c, 0, 84, 0
2, 56803, Note_on_c, 0, 80, 0
2, 56813, Note_on_c, 0, 72, 57
2, 56837, Note_on_c, 0, 58, 31
2, 56844, Note_on_c, 0, 72, 0
2, 56876, Note_on_c, 0, 58, 0
2, 56918, Note_on_c, 0, 70, 74
2, 56920, Note_on_c, 0, 74, 66
2, 56989, Note_on_c, 0, 70, 0
2, 56995, Note_on_c, 0, 74, 0
2, 57050, Note_on_c, 0, 68, 77
2, 57051, Note_on_c, 0, 72, 67
2, 57069, Note_on_c, 0, 58, 30
2, 57085, Note_on_c, 0, 58, 0
2, 57103, Note_on_c, 0, 72, 0
2, 57103, Note_on_c, 0, 68, 0
2, 57133, Note_on_c, 0, 69, 62
2, 57171, Note_on_c, 0, 69, 0
2, 57202, Note_on_c, 0, 65, 44
2, 57216, Note_on_c, 0, 65, 0
2, 57269, Note_on_c, 0, 63, 56
2, 57273, Note_on_c, 0, 47, 39
2, 57274, Note_on_c, 0, 48, 48
2, 57289, Note_on_c, 0, 47, 0
2, 57321, Note_on_c, 0, 63, 0
2, 57325, Note_on_c, 0, 48, 0
2, 57347, Note_on_c, 0, 60, 40
2, 57365, Note_on_c, 0, 60, 0
2, 57417, Note_on_c, 0, 65, 47
2, 57419, Note_on_c, 0, 59, 48
2, 57447, Note_on_c, 0, 59, 0
2, 57447, Note_on_c, 0, 65, 0
2, 57494, Note_on_c, 0, 58, 60
2, 57547, Note_on_c, 0, 58, 0
2, 57570, Note_on_c, 0, 53, 58
2, 57585, Note_on_c, 0, 53, 0
2, 57643, Note_on_c, 0, 56, 55
2, 57648, Note_on_c, 0, 60, 54
2, 57685, Note_on_c, 0, 56, 0
2, 57702, Note_on_c, 0, 57, 66
2, 57722, Note_on_c, 0, 60, 0
2, 57743, Note_on_c, 0, 57, 0
2, 57787, Note_on_c, 0, 53, 27
2, 57804, Note_on_c, 0, 53, 0
2, 57843, Note_on_c, 0, 51, 38
2, 57868, Note_on_c, 0, 51, 0
2, 57899, Note_on_c, 0, 53, 54
2, 57958, Note_on_c, 0, 53, 0
2, 57991, Note_on_c, 0, 53, 43
2, 58041, Note_on_c, 0, 53, 0
2, 58102, Note_on_c, 0, 53, 58
2, 58148, Note_on_c, 0, 53, 0
2, 58224, Note_on_c, 0, 53, 64
2, 58261, Note_on_c, 0, 53, 0
2, 58288, Note_on_c, 0, 51, 42
2, 58316, Note_on_c, 0, 51, 0
2, 58345, Note_on_c, 0, 53, 45
2, 58374, Note_on_c, 0, 53, 0
2, 58412, Note_on_c, 0, 58, 63
2, 58556, Note_on_c, 0, 58, 0
2, 58788, Note_on_c, 0, 46, 34
2, 58794, Note_on_c, 0, 56, 20
2, 58852, Note_on_c, 0, 46, 0
2, 58870, Note_on_c, 0, 56, 0
2, 59040, Note_on_c, 0, 56, 37
2, 59048, Note_on_c, 0, 47, 35
2, 59066, Note_on_c, 0, 47, 0
2, 59075, Note_on_c, 0, 56, 0
2, 59125, Note_on_c, 0, 65, 40
2, 59140, Note_on_c, 0, 65, 0
2, 59180, Note_on_c, 0, 68, 60
2, 59203, Note_on_c, 0, 68, 0
2, 59244, Note_on_c, 0, 71, 76
2, 59276, Note_on_c, 0, 71, 0
2, 59297, Note_on_c, 0, 56, 43
2, 59299, Note_on_c, 0, 74, 87
2, 59314, Note_on_c, 0, 47, 26
2, 59343, Note_on_c, 0, 74, 0
2, 59358, Note_on_c, 0, 47, 0
2, 59362, Note_on_c, 0, 71, 70
2, 59374, Note_on_c, 0, 56, 0
2, 59391, Note_on_c, 0, 71, 0
2, 59410, Note_on_c, 0, 68, 57
2, 59475, Note_on_c, 0, 68, 0
2, 59486, Note_on_c, 0, 65, 51
2, 59504, Note_on_c, 0, 65, 0
2, 59527, Note_on_c, 0, 57, 33
2, 59531, Note_on_c, 0, 72, 81
2, 59534, Note_on_c, 0, 48, 26
2, 59561, Note_on_c, 0, 57, 0
2, 59582, Note_on_c, 0, 72, 0
2, 59601, Note_on_c, 0, 48, 0
2, 59606, Note_on_c, 0, 69, 48
2, 59624, Note_on_c, 0, 69, 0
2, 59650, Note_on_c, 0, 65, 36
2, 59696, Note_on_c, 0, 65, 0
2, 59756, Note_on_c, 0, 48, 31
2, 59768, Note_on_c, 0, 65, 54
2, 59775, Note_on_c, 0, 48, 0
2, 59800, Note_on_c, 0, 65, 0
2, 59888, Note_on_c, 0, 65, 60
2, 59918, Note_on_c, 0, 65, 0
2, 59988, Note_on_c, 0, 36, 41
2, 60001, Note_on_c, 0, 65, 58
2, 60006, Note_on_c, 0, 36, 0
2, 60048, Note_on_c, 0, 65, 0
2, 60071, Note_on_c, 0, 67, 37
2, 60090, Note_on_c, 0, 67, 0
2, 60097, Note_on_c, 0, 65, 39
2, 60137, Note_on_c, 0, 65, 0
2, 60140, Note_on_c, 0, 62, 32
2, 60175, Note_on_c, 0, 62, 0
2, 60247, Note_on_c, 0, 65, 70
2, 60344, Note_on_c, 0, 65, 0
2, 60381, Note_on_c, 0, 62, 33
2, 60410, Note_on_c, 0, 62, 0
2, 60497, Note_on_c, 0, 65, 57
2, 60528, Note_on_c, 0, 65, 0
2, 60732, Note_on_c, 0, 36, 49
2, 60747, Note_on_c, 0, 36, 0
2, 60896, Note_on_c, 0, 48, 62
2, 60923, Note_on_c, 0, 48, 0
2, 60975, Note_on_c, 0, 74, 55
2, 60976, Note_on_c, 0, 65, 71
2, 60977, Note_on_c, 0, 70, 57
2, 60982, Note_on_c, 0, 68, 51
2, 60988, Note_on_c, 0, 58, 69
2, 60990, Note_on_c, 0, 73, 35
2, 61020, Note_on_c, 0, 68, 0
2, 61061, Control_c, 0, 64, 127
2, 61075, Note_on_c, 0, 74, 0
2, 61090, Note_on_c, 0, 70, 0
2, 61093, Note_on_c, 0, 73, 0
2, 61094, Note_on_c, 0, 65, 0
2, 61128, Note_on_c, 0, 58, 0
2, 61180, Control_c, 0, 64, 0
2, 61222, Note_on_c, 0, 58, 72
2, 61224, Control_c, 0, 64, 127
2, 61325, Note_on_c, 0, 58, 0
2, 61352, Control_c, 0, 64, 0
2, 61366, Note_on_c, 0, 72, 50
2, 61368, Note_on_c, 0, 67, 44
2, 61369, Note_on_c, 0, 60, 47
2, 61369, Note_on_c, 0, 57, 62
2, 61409, Note_on_c, 0, 60, 0
2, 61411, Control_c, 0, 64, 127
2, 61427, Note_on_c, 0, 67, 0
2, 61428, Note_on_c, 0, 57, 0
2, 61449, Note_on_c, 0, 72, 0
2, 61612, Note_on_c, 0, 84, 72
2, 61616, Note_on_c, 0, 64, 50
2, 61620, Note_on_c, 0, 79, 58
2, 61620, Note_on_c, 0, 72, 54
2, 61620, Note_on_c, 0, 57, 32
2, 61621, Note_on_c, 0, 60, 38
2, 61624, Note_on_c, 0, 55, 38
2, 61638, Note_on_c, 0, 60, 0
2, 61641, Note_on_c, 0, 55, 0
2, 61644, Note_on_c, 0, 84, 0
2, 61647, Note_on_c, 0, 64, 0
2, 61648, Note_on_c, 0, 72, 0
2, 61652, Note_on_c, 0, 79, 0
2, 61655, Note_on_c, 0, 57, 0
2, 61669, Control_c, 0, 64, 0
2, 61716, Note_on_c, 0, 71, 31
2, 61730, Note_on_c, 0, 71, 0
2, 61854, Note_on_c, 0, 84, 71
2, 61855, Note_on_c, 0, 55, 48
2, 61856, Note_on_c, 0, 72, 57
2, 61869, Note_on_c, 0, 55, 0
2, 61872, Note_on_c, 0, 72, 0
2, 61881, Note_on_c, 0, 84, 0
2, 61928, Note_on_c, 0, 55, 59
2, 61930, Control_c, 0, 64, 127
2, 61934, Note_on_c, 0, 65, 58
2, 61938, Note_on_c, 0, 60, 61
2, 61939, Note_on_c, 0, 87, 74
2, 61940, Note_on_c, 0, 75, 63
2, 61941, Note_on_c, 0, 61, 44
2, 62009, Note_on_c, 0, 75, 0
2, 62017, Note_on_c, 0, 87, 0
2, 62032, Note_on_c, 0, 55, 0
2, 62039, Note_on_c, 0, 65, 0
2, 62043, Note_on_c, 0, 60, 0
2, 62055, Note_on_c, 0, 61, 0
2, 62095, Note_on_c, 0, 61, 48
2, 62097, Note_on_c, 0, 65, 66
2, 62099, Note_on_c, 0, 60, 59
2, 62104, Note_on_c, 0, 55, 59
2, 62106, Control_c, 0, 64, 0
2, 62242, Note_on_c, 0, 60, 0
2, 62265, Note_on_c, 0, 55, 0
2, 62270, Note_on_c, 0, 65, 0
2, 62310, Note_on_c, 0, 61, 0
2, 62342, Note_on_c, 0, 65, 50
2, 62342, Note_on_c, 0, 58, 52
2, 62345, Note_on_c, 0, 54, 59
2, 62348, Note_on_c, 0, 101, 94
2, 62350, Note_on_c, 0, 60, 58
2, 62352, Note_on_c, 0, 64, 37
2, 62366, Note_on_c, 0, 64, 0
2, 62389, Note_on_c, 0, 101, 0
2, 62399, Note_on_c, 0, 65, 0
2, 62405, Note_on_c, 0, 54, 0
2, 62443, Note_on_c, 0, 60, 0
2, 62463, Note_on_c, 0, 99, 58
2, 62467, Note_on_c, 0, 58, 0
2, 62526, Note_on_c, 0, 99, 0
2, 62582, Note_on_c, 0, 99, 71
2, 62652, Note_on_c, 0, 99, 0
2, 62680, Note_on_c, 0, 97, 48
2, 62695, Note_on_c, 0, 98, 65
2, 62707, Note_on_c, 0, 97, 0
2, 62747, Note_on_c, 0, 98, 0
2, 62812, Note_on_c, 0, 97, 64
2, 62824, Note_on_c, 0, 64, 64
2, 62827, Note_on_c, 0, 54, 59
2, 62828, Note_on_c, 0, 60, 54
2, 62838, Note_on_c, 0, 98, 62
2, 62841, Note_on_c, 0, 60, 0
2, 62845, Note_on_c, 0, 64, 0
2, 62858, Note_on_c, 0, 54, 0
2, 62895, Note_on_c, 0, 97, 0
2, 62900, Note_on_c, 0, 98, 0
2, 62946, Note_on_c, 0, 93, 58
2, 63008, Note_on_c, 0, 93, 0
2, 63061, Note_on_c, 0, 93, 64
2, 63107, Note_on_c, 0, 93, 0
2, 63146, Note_on_c, 0, 96, 71
2, 63210, Note_on_c, 0, 96, 0
2, 63285, Note_on_c, 0, 58, 52
2, 63287, Note_on_c, 0, 62, 54
2, 63287, Note_on_c, 0, 57, 49
2, 63288, Note_on_c, 0, 96, 67
2, 63304, Note_on_c, 0, 57, 0
2, 63310, Note_on_c, 0, 62, 0
2, 63322, Note_on_c, 0, 58, 0
2, 63351, Note_on_c, 0, 96, 0
2, 63390, Note_on_c, 0, 89, 28
2, 63440, Note_on_c, 0, 89, 0
2, 63531, Note_on_c, 0, 89, 53
2, 63568, Note_on_c, 0, 89, 0
2, 63610, Note_on_c, 0, 93, 66
2, 63623, Note_on_c, 0, 93, 0
2, 63767, Note_on_c, 0, 93, 73
2, 63768, Note_on_c, 0, 58, 59
2, 63769, Note_on_c, 0, 57, 58
2, 63770, Note_on_c, 0, 62, 55
2, 63785, Note_on_c, 0, 62, 0
2, 63785, Note_on_c, 0, 57, 0
2, 63797, Note_on_c, 0, 58, 0
2, 63811, Note_on_c, 0, 93, 0
2, 63852, Note_on_c, 0, 86, 49
2, 63871, Note_on_c, 0, 86, 0
2, 63929, Note_on_c, 0, 86, 38
2, 63952, Note_on_c, 0, 86, 0
2, 64006, Note_on_c, 0, 89, 64
2, 64037, Note_on_c, 0, 89, 0
2, 64095, Note_on_c, 0, 89, 62
2, 64113, Note_on_c, 0, 89, 0
2, 64163, Note_on_c, 0, 82, 58
2, 64177, Note_on_c, 0, 82, 0
2, 64239, Note_on_c, 0, 82, 56
2, 64269, Note_on_c, 0, 82, 0
2, 64319, Note_on_c, 0, 86, 65
2, 64341, Note_on_c, 0, 86, 0
2, 64401, Note_on_c, 0, 86, 69
2, 64435, Note_on_c, 0, 86, 0
2, 64477, Note_on_c, 0, 63, 54
2, 64486, Note_on_c, 0, 72, 36
2, 64489, Note_on_c, 0, 58, 32
2, 64498, Note_on_c, 0, 63, 0
2, 64502, Note_on_c, 0, 58, 0
2, 64502, Note_on_c, 0, 72, 0
2, 64571, Note_on_c, 0, 72, 45
2, 64589, Note_on_c, 0, 72, 0
2, 64651, Note_on_c, 0, 85, 74
2, 64681, Note_on_c, 0, 85, 0
2, 64730, Note_on_c, 0, 85, 75
2, 64767, Note_on_c, 0, 85, 0
2, 64807, Note_on_c, 0, 70, 52
2, 64835, Note_on_c, 0, 70, 0
2, 64891, Note_on_c, 0, 70, 38
2, 64905, Note_on_c, 0, 70, 0
2, 64965, Note_on_c, 0, 82, 64
2, 64996, Note_on_c, 0, 82, 0
2, 65044, Note_on_c, 0, 63, 33
2, 65055, Note_on_c, 0, 58, 20
2, 65058, Note_on_c, 0, 63, 0
2, 65068, Note_on_c, 0, 58, 0
2, 65131, Note_on_c, 0, 68, 49
2, 65154, Note_on_c, 0, 68, 0
2, 65209, Note_on_c, 0, 80, 62
2, 65223, Note_on_c, 0, 68, 64
2, 65240, Note_on_c, 0, 68, 0
2, 65249, Note_on_c, 0, 80, 0
2, 65300, Note_on_c, 0, 80, 43
2, 65301, Note_on_c, 0, 68, 62
2, 65338, Note_on_c, 0, 80, 0
2, 65351, Note_on_c, 0, 68, 0
2, 65359, Note_on_c, 0, 69, 50
2, 65391, Note_on_c, 0, 69, 0
2, 65401, Note_on_c, 0, 81, 36
2, 65438, Note_on_c, 0, 81, 0
2, 65452, Note_on_c, 0, 69, 51
2, 65478, Note_on_c, 0, 64, 29
2, 65493, Note_on_c, 0, 64, 0
2, 65493, Note_on_c, 0, 60, 30
2, 65495, Note_on_c, 0, 57, 32
2, 65497, Note_on_c, 0, 69, 0
2, 65512, Note_on_c, 0, 60, 0
2, 65528, Note_on_c, 0, 77, 53
2, 65529, Note_on_c, 0, 57, 0
2, 65545, Note_on_c, 0, 65, 35
2, 65653, Note_on_c, 0, 65, 0
2, 65673, Note_on_c, 0, 77, 0
2, 65700, Note_on_c, 0, 74, 30
2, 65729, Note_on_c, 0, 74, 0
2, 65760, Note_on_c, 0, 77, 48
2, 65765, Note_on_c, 0, 65, 36
2, 65809, Note_on_c, 0, 65, 0
2, 65855, Note_on_c, 0, 77, 0
2, 65992, Note_on_c, 0, 63, 33
2, 65996, Note_on_c, 0, 67, 24
2, 66001, Note_on_c, 0, 57, 32
2, 66071, Note_on_c, 0, 67, 0
2, 66077, Note_on_c, 0, 57, 0
2, 66083, Note_on_c, 0, 63, 0
2, 66255, Note_on_c, 0, 65, 33
2, 66261, Note_on_c, 0, 60, 34
2, 66272, Note_on_c, 0, 65, 0
2, 66273, Note_on_c, 0, 79, 37
2, 66273, Note_on_c, 0, 77, 48
2, 66282, Note_on_c, 0, 60, 0
2, 66311, Note_on_c, 0, 79, 0
2, 66331, Note_on_c, 0, 77, 0
2, 66339, Note_on_c, 0, 79, 60
2, 66385, Note_on_c, 0, 79, 0
2, 66385, Note_on_c, 0, 77, 52
2, 66442, Note_on_c, 0, 76, 55
2, 66444, Note_on_c, 0, 77, 0
2, 66531, Note_on_c, 0, 76, 0
2, 66532, Note_on_c, 0, 77, 55
2, 66573, Note_on_c, 0, 77, 0
2, 66664, Note_on_c, 0, 84, 96
2, 66672, Note_on_c, 0, 65, 42
2, 66675, Note_on_c, 0, 56, 37
2, 66683, Note_on_c, 0, 60, 27
2, 66683, Note_on_c, 0, 61, 42
2, 66701, Note_on_c, 0, 65, 0
2, 66711, Note_on_c, 0, 56, 0
2, 66722, Note_on_c, 0, 61, 0
2, 66728, Note_on_c, 0, 60, 0
2, 66735, Note_on_c, 0, 84, 0
2, 66775, Note_on_c, 0, 82, 53
2, 66850, Note_on_c, 0, 82, 0
2, 66896, Note_on_c, 0, 77, 52
2, 66938, Note_on_c, 0, 77, 0
2, 66989, Note_on_c, 0, 74, 35
2, 67077, Note_on_c, 0, 74, 0
2, 67132, Note_on_c, 0, 68, 40
2, 67146, Note_on_c, 0, 59, 22
2, 67151, Note_on_c, 0, 56, 15
2, 67161, Note_on_c, 0, 59, 0
2, 67176, Note_on_c, 0, 56, 0
2, 67202, Note_on_c, 0, 68, 0
2, 67231, Note_on_c, 0, 65, 19
2, 67266, Note_on_c, 0, 65, 0
2, 67372, Note_on_c, 0, 72, 68
2, 67392, Note_on_c, 0, 48, 22
2, 67408, Note_on_c, 0, 48, 0
2, 67412, Note_on_c, 0, 72, 0
2, 67456, Note_on_c, 0, 60, 41
2, 67586, Note_on_c, 0, 60, 0
2, 67609, Note_on_c, 0, 60, 31
2, 67659, Note_on_c, 0, 60, 0
2, 67696, Note_on_c, 0, 63, 47
2, 67719, Note_on_c, 0, 63, 0
2, 67761, Note_on_c, 0, 64, 7
2, 67848, Note_on_c, 0, 64, 0
2, 67927, Note_on_c, 0, 60, 41
2, 68086, Note_on_c, 0, 60, 0
2, 68252, Note_on_c, 0, 64, 64
2, 68288, Note_on_c, 0, 64, 0
2, 68328, Note_on_c, 0, 65, 63
2, 68386, Note_on_c, 0, 65, 0
2, 68414, Note_on_c, 0, 70, 75
2, 68461, Note_on_c, 0, 70, 0
2, 68496, Note_on_c, 0, 69, 70
2, 68541, Note_on_c, 0, 69, 0
2, 68594, Note_on_c, 0, 59, 57
2, 68644, Note_on_c, 0, 59, 0
2, 68690, Note_on_c, 0, 60, 30
2, 68704, Note_on_c, 0, 60, 0
2, 68789, Note_on_c, 0, 67, 80
2, 68865, Note_on_c, 0, 67, 0
2, 68913, Note_on_c, 0, 65, 49
2, 68931, Note_on_c, 0, 65, 0
2, 69024, Note_on_c, 0, 58, 60
2, 69071, Note_on_c, 0, 58, 0
2, 69109, Note_on_c, 0, 56, 53
2, 69135, Note_on_c, 0, 56, 0
2, 69193, Note_on_c, 0, 57, 48
2, 69245, Note_on_c, 0, 57, 0
2, 69277, Note_on_c, 0, 60, 62
2, 69314, Note_on_c, 0, 60, 0
2, 69366, Note_on_c, 0, 62, 80
2, 69457, Note_on_c, 0, 62, 0
2, 69468, Note_on_c, 0, 60, 32
2, 69481, Note_on_c, 0, 60, 0
2, 69546, Note_on_c, 0, 63, 76
2, 69693, Note_on_c, 0, 63, 0
2, 69694, Note_on_c, 0, 55, 30
2, 69707, Note_on_c, 0, 55, 0
2, 69744, Note_on_c, 0, 60, 61
2, 69784, Note_on_c, 0, 60, 0
2, 69802, Note_on_c, 0, 63, 31
2, 69814, Note_on_c, 0, 63, 0
2, 69860, Note_on_c, 0, 67, 44
2, 69880, Note_on_c, 0, 67, 0
2, 69909, Note_on_c, 0, 72, 36
2, 69913, Note_on_c, 0, 71, 40
2, 69929, Note_on_c, 0, 71, 0
2, 69935, Note_on_c, 0, 72, 0
2, 69959, Note_on_c, 0, 75, 83
2, 69998, Note_on_c, 0, 75, 0
2, 70017, Note_on_c, 0, 77, 81
2, 70069, Note_on_c, 0, 65, 46
2, 70080, Note_on_c, 0, 54, 35
2, 70081, Note_on_c, 0, 74, 60
2, 70082, Note_on_c, 0, 77, 0
2, 70084, Note_on_c, 0, 60, 34
2, 70100, Note_on_c, 0, 60, 0
2, 70105, Note_on_c, 0, 65, 0
2, 70116, Note_on_c, 0, 74, 0
2, 70132, Note_on_c, 0, 54, 0
2, 70319, Note_on_c, 0, 69, 55
2, 70457, Note_on_c, 0, 69, 0
2, 70486, Note_on_c, 0, 54, 53
2, 70489, Note_on_c, 0, 68, 53
2, 70492, Note_on_c, 0, 65, 35
2, 70495, Note_on_c, 0, 60, 53
2, 70510, Note_on_c, 0, 60, 0
2, 70510, Note_on_c, 0, 65, 0
2, 70521, Note_on_c, 0, 54, 0
2, 70558, Note_on_c, 0, 68, 0
2, 70588, Note_on_c, 0, 69, 34
2, 70716, Note_on_c, 0, 69, 0
2, 70741, Note_on_c, 0, 72, 51
2, 70752, Note_on_c, 0, 60, 55
2, 70765, Note_on_c, 0, 60, 0
2, 70798, Note_on_c, 0, 72, 0
2, 70827, Note_on_c, 0, 69, 42
2, 70980, Note_on_c, 0, 68, 55
2, 70983, Note_on_c, 0, 58, 50
2, 70984, Note_on_c, 0, 62, 39
2, 70997, Note_on_c, 0, 69, 0
2, 71004, Note_on_c, 0, 62, 0
2, 71018, Note_on_c, 0, 58, 0
2, 71031, Note_on_c, 0, 68, 0
2, 71068, Note_on_c, 0, 69, 57
2, 71224, Note_on_c, 0, 65, 35
2, 71242, Note_on_c, 0, 69, 0
2, 71277, Note_on_c, 0, 65, 0
2, 71304, Note_on_c, 0, 62, 31
2, 71422, Note_on_c, 0, 62, 0
2, 71510, Note_on_c, 0, 62, 36
2, 71527, Note_on_c, 0, 58, 33
2, 71531, Note_on_c, 0, 65, 45
2, 71546, Note_on_c, 0, 62, 0
2, 71555, Note_on_c, 0, 58, 0
2, 71740, Note_on_c, 0, 65, 0
2, 71771, Note_on_c, 0, 62, 35
2, 72007, Note_on_c, 0, 62, 0
2, 72011, Note_on_c, 0, 66, 75
2, 72121, Note_on_c, 0, 66, 0
2, 72194, Note_on_c, 0, 58, 25
2, 72226, Note_on_c, 0, 58, 0
2, 72242, Note_on_c, 0, 63, 55
2, 72360, Note_on_c, 0, 63, 0
2, 72477, Note_on_c, 0, 63, 33
2, 72483, Note_on_c, 0, 52, 33
2, 72486, Note_on_c, 0, 58, 37
2, 72535, Note_on_c, 0, 52, 0
2, 72548, Note_on_c, 0, 58, 0
2, 72564, Note_on_c, 0, 63, 0
2, 72712, Note_on_c, 0, 63, 42
2, 72720, Note_on_c, 0, 58, 37
2, 72725, Note_on_c, 0, 52, 30
2, 72781, Note_on_c, 0, 52, 0
2, 72837, Note_on_c, 0, 63, 0
2, 72866, Note_on_c, 0, 58, 0
2, 72965, Note_on_c, 0, 51, 35
2, 72965, Note_on_c, 0, 62, 24
2, 72974, Note_on_c, 0, 57, 38
2, 73039, Note_on_c, 0, 57, 0
2, 73046, Note_on_c, 0, 51, 0
2, 73049, Note_on_c, 0, 62, 0
2, 73377, Note_on_c, 0, 51, 63
2, 73378, Note_on_c, 0, 62, 71
2, 73379, Note_on_c, 0, 80, 64
2, 73381, Note_on_c, 0, 92, 70
2, 73382, Note_on_c, 0, 57, 56
2, 73402, Note_on_c, 0, 90, 27
2, 73420, Note_on_c, 0, 80, 0
2, 73426, Note_on_c, 0, 92, 0
2, 73435, Note_on_c, 0, 81, 41
2, 73451, Note_on_c, 0, 62, 0
2, 73452, Note_on_c, 0, 51, 0
2, 73453, Note_on_c, 0, 81, 0
2, 73456, Note_on_c, 0, 57, 0
2, 73468, Note_on_c, 0, 90, 0
2, 73525, Note_on_c, 0, 92, 64
2, 73529, Note_on_c, 0, 80, 65
2, 73538, Note_on_c, 0, 62, 62
2, 73543, Note_on_c, 0, 51, 56
2, 73544, Note_on_c, 0, 57, 60
2, 73581, Note_on_c, 0, 93, 31
2, 73596, Note_on_c, 0, 81, 49
2, 73598, Note_on_c, 0, 93, 0
2, 73604, Note_on_c, 0, 80, 0
2, 73610, Note_on_c, 0, 92, 0
2, 73624, Note_on_c, 0, 51, 0
2, 73625, Note_on_c, 0, 81, 0
2, 73626, Note_on_c, 0, 62, 0
2, 73641, Note_on_c, 0, 57, 0
2, 73678, Note_on_c, 0, 89, 65
2, 73681, Note_on_c, 0, 51, 49
2, 73685, Note_on_c, 0, 62, 34
2, 73686, Note_on_c, 0, 57, 41
2, 73691, Note_on_c, 0, 77, 32
2, 73761, Note_on_c, 0, 57, 0
2, 73767, Note_on_c, 0, 51, 0
2, 73787, Note_on_c, 0, 62, 0
2, 73790, Note_on_c, 0, 77, 0
2, 73794, Note_on_c, 0, 89, 0
2, 73835, Note_on_c, 0, 62, 43
2, 73841, Note_on_c, 0, 58, 40
2, 73846, Note_on_c, 0, 53, 30
2, 73853, Note_on_c, 0, 86, 35
2, 73862, Note_on_c, 0, 53, 0
2, 73866, Note_on_c, 0, 62, 0
2, 73869, Note_on_c, 0, 86, 0
2, 73874, Note_on_c, 0, 58, 0
2, 74328, Note_on_c, 0, 59, 60
2, 74329, Note_on_c, 0, 56, 45
2, 74330, Note_on_c, 0, 62, 69
2, 74330, Note_on_c, 0, 97, 84
2, 74334, Note_on_c, 0, 85, 78
2, 74334, Note_on_c, 0, 53, 58
2, 74374, Note_on_c, 0, 53, 0
2, 74385, Note_on_c, 0, 62, 0
2, 74389, Note_on_c, 0, 85, 0
2, 74389, Note_on_c, 0, 59, 0
2, 74390, Note_on_c, 0, 97, 0
2, 74399, Note_on_c, 0, 56, 0
2, 74474, Note_on_c, 0, 95, 55
2, 74475, Note_on_c, 0, 62, 35
2, 74477, Note_on_c, 0, 56, 26
2, 74480, Note_on_c, 0, 83, 50
2, 74488, Note_on_c, 0, 59, 22
2, 74491, Note_on_c, 0, 53, 22
2, 74504, Note_on_c, 0, 95, 0
2, 74511, Note_on_c, 0, 53, 0
2, 74514, Note_on_c, 0, 59, 0
2, 74521, Note_on_c, 0, 62, 0
2, 74532, Note_on_c, 0, 56, 0
2, 74540, Note_on_c, 0, 83, 0
2, 74642, Note_on_c, 0, 92, 52
2, 74647, Note_on_c, 0, 59, 33
2, 74648, Note_on_c, 0, 80, 36
2, 74648, Note_on_c, 0, 62, 26
2, 74655, Note_on_c, 0, 56, 19
2, 74656, Note_on_c, 0, 53, 30
2, 74693, Note_on_c, 0, 53, 0
2, 74694, Note_on_c, 0, 59, 0
2, 74708, Note_on_c, 0, 56, 0
2, 74713, Note_on_c, 0, 62, 0
2, 74730, Note_on_c, 0, 80, 0
2, 74735, Note_on_c, 0, 92, 0
2, 74801, Note_on_c, 0, 62, 46
2, 74806, Note_on_c, 0, 93, 63
2, 74810, Note_on_c, 0, 81, 49
2, 74810, Note_on_c, 0, 89, 54
2, 74814, Note_on_c, 0, 57, 36
2, 74820, Note_on_c, 0, 93, 0
2, 74825, Note_on_c, 0, 89, 0
2, 74831, Note_on_c, 0, 81, 0
2, 74835, Note_on_c, 0, 62, 0
2, 74840, Note_on_c, 0, 57, 0
2, 75058, Note_on_c, 0, 60, 60
2, 75063, Note_on_c, 0, 48, 40
2, 75079, Note_on_c, 0, 48, 0
2, 75090, Note_on_c, 0, 60, 0
2, 75140, Note_on_c, 0, 62, 56
2, 75154, Note_on_c, 0, 62, 0
2, 75302, Note_on_c, 0, 65, 67
2, 75320, Note_on_c, 0, 65, 0
2, 75391, Note_on_c, 0, 68, 69
2, 75392, Note_on_c, 0, 56, 54
2, 75429, Note_on_c, 0, 56, 0
2, 75429, Note_on_c, 0, 68, 0
2, 75439, Note_on_c, 0, 55, 46
2, 75443, Note_on_c, 0, 67, 34
2, 75484, Note_on_c, 0, 67, 0
2, 75490, Note_on_c, 0, 55, 0
2, 75496, Note_on_c, 0, 65, 39
2, 75544, Note_on_c, 0, 65, 0
2, 75587, Note_on_c, 0, 62, 34
2, 75613, Note_on_c, 0, 62, 0
2, 75637, Note_on_c, 0, 53, 37
2, 75650, Note_on_c, 0, 65, 58
2, 75715, Note_on_c, 0, 67, 74
2, 75718, Note_on_c, 0, 53, 0
2, 75719, Note_on_c, 0, 65, 0
2, 75730, Note_on_c, 0, 55, 42
2, 75743, Note_on_c, 0, 55, 0
2, 75767, Note_on_c, 0, 67, 0
2, 75785, Note_on_c, 0, 65, 66
2, 75848, Note_on_c, 0, 65, 0
2, 76003, Note_on_c, 0, 48, 44
2, 76009, Note_on_c, 0, 47, 36
2, 76024, Note_on_c, 0, 47, 0
2, 76335, Note_on_c, 0, 60, 47
2, 76350, Note_on_c, 0, 60, 0
2, 76405, Note_on_c, 0, 62, 57
2, 76451, Note_on_c, 0, 62, 0
2, 76466, Note_on_c, 0, 63, 62
2, 76483, Note_on_c, 0, 46, 23
2, 76496, Note_on_c, 0, 48, 0
2, 76500, Note_on_c, 0, 63, 0
2, 76505, Note_on_c, 0, 46, 0
2, 76535, Note_on_c, 0, 67, 63
2, 76573, Note_on_c, 0, 67, 0
2, 76591, Note_on_c, 0, 71, 65
2, 76635, Note_on_c, 0, 71, 0
2, 76658, Note_on_c, 0, 74, 80
2, 76704, Note_on_c, 0, 74, 0
2, 76716, Note_on_c, 0, 71, 63
2, 76749, Note_on_c, 0, 71, 0
2, 76775, Note_on_c, 0, 72, 64
2, 76781, Note_on_c, 0, 63, 31
2, 76782, Note_on_c, 0, 67, 29
2, 76789, Note_on_c, 0, 62, 31
2, 76821, Note_on_c, 0, 72, 0
2, 76844, Note_on_c, 0, 73, 57
2, 76861, Note_on_c, 0, 73, 0
2, 76884, Note_on_c, 0, 63, 0
2, 76900, Note_on_c, 0, 67, 0
2, 76909, Note_on_c, 0, 76, 40
2, 76942, Note_on_c, 0, 76, 0
2, 76957, Note_on_c, 0, 79, 54
2, 76995, Note_on_c, 0, 79, 0
2, 77028, Note_on_c, 0, 83, 70
2, 77053, Note_on_c, 0, 83, 0
2, 77071, Note_on_c, 0, 86, 89
2, 77087, Note_on_c, 0, 62, 0
2, 77123, Note_on_c, 0, 86, 0
2, 77144, Note_on_c, 0, 83, 60
2, 77157, Note_on_c, 0, 83, 0
2, 77187, Note_on_c, 0, 84, 81
2, 77242, Note_on_c, 0, 84, 0
2, 77261, Note_on_c, 0, 81, 53
2, 77277, Note_on_c, 0, 81, 0
2, 77515, Note_on_c, 0, 68, 63
2, 77523, Note_on_c, 0, 64, 36
2, 77528, Note_on_c, 0, 58, 34
2, 77538, Note_on_c, 0, 62, 22
2, 77650, Note_on_c, 0, 64, 0
2, 77717, Note_on_c, 0, 62, 0
2, 77720, Note_on_c, 0, 68, 0
2, 77728, Note_on_c, 0, 58, 0
2, 77754, Note_on_c, 0, 63, 38
2, 77754, Note_on_c, 0, 62, 26
2, 77757, Note_on_c, 0, 67, 38
2, 77784, Note_on_c, 0, 57, 22
2, 77929, Note_on_c, 0, 74, 56
2, 77952, Note_on_c, 0, 74, 0
2, 78002, Note_on_c, 0, 77, 81
2, 78019, Note_on_c, 0, 67, 0
2, 78031, Note_on_c, 0, 57, 0
2, 78034, Note_on_c, 0, 63, 0
2, 78037, Note_on_c, 0, 62, 0
2, 78046, Note_on_c, 0, 77, 0
2, 78174, Note_on_c, 0, 67, 57
2, 78175, Note_on_c, 0, 75, 71
2, 78176, Note_on_c, 0, 62, 47
2, 78192, Note_on_c, 0, 63, 35
2, 78193, Note_on_c, 0, 57, 24
2, 78243, Note_on_c, 0, 67, 0
2, 78248, Note_on_c, 0, 75, 0
2, 78254, Control_c, 0, 64, 127
2, 78276, Note_on_c, 0, 69, 40
2, 78320, Note_on_c, 0, 57, 0
2, 78334, Note_on_c, 0, 63, 0
2, 78337, Note_on_c, 0, 62, 0
2, 78346, Note_on_c, 0, 69, 0
2, 78421, Note_on_c, 0, 74, 74
2, 78424, Note_on_c, 0, 63, 50
2, 78426, Note_on_c, 0, 67, 60
2, 78447, Note_on_c, 0, 57, 24
2, 78455, Control_c, 0, 64, 0
2, 78458, Note_on_c, 0, 67, 0
2, 78469, Note_on_c, 0, 74, 0
2, 78478, Note_on_c, 0, 63, 0
2, 78493, Note_on_c, 0, 57, 0
2, 78503, Note_on_c, 0, 72, 52
2, 78524, Note_on_c, 0, 72, 0
2, 78579, Control_c, 0, 64, 127
2, 78661, Note_on_c, 0, 53, 37
2, 78665, Note_on_c, 0, 69, 49
2, 78682, Note_on_c, 0, 53, 0
2, 78687, Control_c, 0, 64, 0
2, 78701, Note_on_c, 0, 69, 0
2, 78729, Note_on_c, 0, 57, 53
2, 78732, Note_on_c, 0, 72, 62
2, 78734, Note_on_c, 0, 62, 46
2, 78735, Note_on_c, 0, 69, 36
2, 78742, Note_on_c, 0, 65, 44
2, 78756, Note_on_c, 0, 65, 0
2, 78759, Note_on_c, 0, 69, 0
2, 78769, Note_on_c, 0, 62, 0
2, 78777, Note_on_c, 0, 57, 0
2, 78779, Note_on_c, 0, 72, 0
2, 78970, Note_on_c, 0, 70, 67
2, 78975, Note_on_c, 0, 55, 54
2, 78978, Note_on_c, 0, 62, 45
2, 78988, Note_on_c, 0, 65, 28
2, 79033, Note_on_c, 0, 65, 0
2, 79037, Note_on_c, 0, 70, 0
2, 79039, Note_on_c, 0, 55, 0
2, 79047, Note_on_c, 0, 62, 0
2, 79158, Note_on_c, 0, 51, 31
2, 79191, Note_on_c, 0, 51, 0
2, 79217, Note_on_c, 0, 69, 54
2, 79219, Note_on_c, 0, 53, 36
2, 79220, Note_on_c, 0, 58, 35
2, 79221, Note_on_c, 0, 62, 37
2, 79343, Note_on_c, 0, 62, 0
2, 79347, Note_on_c, 0, 69, 0
2, 79366, Note_on_c, 0, 53, 0
2, 79374, Note_on_c, 0, 50, 46
2, 79380, Note_on_c, 0, 65, 48
2, 79415, Note_on_c, 0, 58, 0
2, 79428, Note_on_c, 0, 50, 0
2, 79433, Note_on_c, 0, 65, 0
2, 79466, Note_on_c, 0, 46, 31
2, 79481, Note_on_c, 0, 46, 0
2, 79522, Control_c, 0, 64, 127
2, 79667, Control_c, 0, 64, 0
2, 79683, Note_on_c, 0, 53, 57
2, 79687, Note_on_c, 0, 58, 49
2, 79690, Note_on_c, 0, 69, 56
2, 79691, Note_on_c, 0, 62, 53
2, 79700, Note_on_c, 0, 53, 0
2, 79704, Note_on_c, 0, 58, 0
2, 79708, Note_on_c, 0, 62, 0
2, 79719, Note_on_c, 0, 69, 0
2, 79924, Note_on_c, 0, 74, 50
2, 79924, Note_on_c, 0, 56, 46
2, 79929, Note_on_c, 0, 68, 33
2, 79942, Note_on_c, 0, 68, 0
2, 79955, Note_on_c, 0, 74, 0
2, 79966, Note_on_c, 0, 56, 0
2, 80123, Note_on_c, 0, 56, 35
2, 80145, Note_on_c, 0, 56, 0
2, 80164, Note_on_c, 0, 62, 48
2, 80192, Note_on_c, 0, 62, 0
2, 80287, Note_on_c, 0, 68, 61
2, 80318, Note_on_c, 0, 68, 0
2, 80353, Note_on_c, 0, 71, 68
2, 80384, Note_on_c, 0, 71, 0
2, 80394, Note_on_c, 0, 56, 19
2, 80411, Note_on_c, 0, 74, 54
2, 80434, Note_on_c, 0, 56, 0
2, 80445, Note_on_c, 0, 74, 0
2, 80471, Note_on_c, 0, 77, 37
2, 80488, Note_on_c, 0, 77, 0
2, 80538, Note_on_c, 0, 80, 57
2, 80571, Note_on_c, 0, 80, 0
2, 80598, Note_on_c, 0, 83, 81
2, 80641, Note_on_c, 0, 83, 0
2, 80654, Note_on_c, 0, 86, 85
2, 80657, Note_on_c, 0, 57, 39
2, 80663, Note_on_c, 0, 48, 38
2, 80709, Note_on_c, 0, 86, 0
2, 80723, Note_on_c, 0, 84, 74
2, 80760, Note_on_c, 0, 84, 0
2, 80770, Note_on_c, 0, 57, 0
2, 80775, Note_on_c, 0, 81, 64
2, 80811, Note_on_c, 0, 81, 0
2, 80835, Note_on_c, 0, 77, 52
2, 80885, Note_on_c, 0, 77, 0
2, 80901, Note_on_c, 0, 72, 42
2, 80937, Note_on_c, 0, 72, 0
2, 80974, Note_on_c, 0, 48, 0
2, 81376, Note_on_c, 0, 73, 74
2, 81417, Note_on_c, 0, 73, 0
2, 81438, Note_on_c, 0, 76, 83
2, 81489, Note_on_c, 0, 76, 0
2, 81496, Note_on_c, 0, 73, 63
2, 81553, Note_on_c, 0, 73, 0
2, 81558, Note_on_c, 0, 69, 67
2, 81591, Note_on_c, 0, 69, 0
2, 81595, Note_on_c, 0, 57, 33
2, 81605, Note_on_c, 0, 49, 27
2, 81620, Note_on_c, 0, 64, 37
2, 81638, Note_on_c, 0, 57, 0
2, 81655, Note_on_c, 0, 64, 0
2, 81675, Note_on_c, 0, 61, 48
2, 81708, Note_on_c, 0, 61, 0
2, 81736, Note_on_c, 0, 49, 0
2, 81805, Note_on_c, 0, 49, 32
2, 81808, Note_on_c, 0, 57, 24
2, 81820, Note_on_c, 0, 57, 0
2, 81839, Note_on_c, 0, 49, 0
2, 81849, Note_on_c, 0, 64, 62
2, 81856, Note_on_c, 0, 57, 40
2, 81905, Note_on_c, 0, 57, 0
2, 81909, Note_on_c, 0, 64, 0
2, 81926, Note_on_c, 0, 61, 47
2, 81953, Note_on_c, 0, 61, 0
2, 81976, Note_on_c, 0, 62, 68
2, 82042, Note_on_c, 0, 62, 0
2, 82060, Note_on_c, 0, 57, 65
2, 82080, Note_on_c, 0, 57, 0
2, 82138, Note_on_c, 0, 57, 49
2, 82154, Note_on_c, 0, 57, 0
2, 82240, Note_on_c, 0, 62, 72
2, 82244, Note_on_c, 0, 58, 69
2, 82245, Note_on_c, 0, 44, 55
2, 82250, Note_on_c, 0, 54, 49
2, 82454, Note_on_c, 0, 54, 0
2, 82464, Note_on_c, 0, 50, 36
2, 82467, Note_on_c, 0, 56, 51
2, 82494, Note_on_c, 0, 62, 0
2, 82497, Note_on_c, 0, 58, 0
2, 82503, Note_on_c, 0, 50, 0
2, 82509, Note_on_c, 0, 44, 0
2, 82524, Note_on_c, 0, 56, 0
2, 82538, Note_on_c, 0, 53, 29
2, 82546, Note_on_c, 0, 57, 32
2, 82547, Note_on_c, 0, 43, 29
2, 82718, Note_on_c, 0, 53, 0
2, 82719, Note_on_c, 0, 57, 0
2, 82731, Note_on_c, 0, 59, 39
2, 82766, Note_on_c, 0, 59, 0
2, 82797, Control_c, 0, 64, 127
2, 82798, Note_on_c, 0, 53, 47
2, 82800, Note_on_c, 0, 43, 0
2, 82803, Note_on_c, 0, 64, 34
2, 82822, Note_on_c, 0, 53, 0
2, 82827, Note_on_c, 0, 64, 0
2, 83032, Control_c, 0, 64, 0
2, 83042, Note_on_c, 0, 73, 67
2, 83044, Note_on_c, 0, 69, 74
2, 83045, Note_on_c, 0, 76, 75
2, 83045, Note_on_c, 0, 64, 70
2, 83045, Note_on_c, 0, 65, 71
2, 83213, Note_on_c, 0, 65, 0
2, 83221, Note_on_c, 0, 64, 0
2, 83224, Note_on_c, 0, 69, 0
2, 83231, Note_on_c, 0, 76, 0
2, 83236, Note_on_c, 0, 73, 0
2, 83248, Note_on_c, 0, 62, 19
2, 83287, Note_on_c, 0, 62, 0
2, 83287, Note_on_c, 0, 73, 60
2, 83290, Note_on_c, 0, 76, 64
2, 83291, Note_on_c, 0, 69, 67
2, 83292, Note_on_c, 0, 65, 58
2, 83293, Note_on_c, 0, 64, 55
2, 83327, Control_c, 0, 64, 127
2, 83342, Note_on_c, 0, 64, 0
2, 83390, Note_on_c, 0, 69, 0
2, 83410, Note_on_c, 0, 76, 0
2, 83411, Note_on_c, 0, 73, 0
2, 83443, Note_on_c, 0, 65, 0
2, 83509, Control_c, 0, 64, 0
2, 83522, Note_on_c, 0, 62, 48
2, 83525, Note_on_c, 0, 58, 39
2, 83526, Note_on_c, 0, 77, 61
2, 83531, Note_on_c, 0, 65, 56
2, 83534, Note_on_c, 0, 70, 50
2, 83542, Note_on_c, 0, 62, 0
2, 83556, Note_on_c, 0, 65, 0
2, 83557, Note_on_c, 0, 70, 0
2, 83559, Note_on_c, 0, 77, 0
2, 83559, Note_on_c, 0, 58, 0
2, 83690, Note_on_c, 0, 76, 52
2, 83695, Note_on_c, 0, 68, 49
2, 83698, Note_on_c, 0, 48, 56
2, 83698, Note_on_c, 0, 64, 53
2, 83699, Note_on_c, 0, 58, 50
2, 83702, Note_on_c, 0, 72, 50
2, 83736, Note_on_c, 0, 58, 0
2, 83737, Note_on_c, 0, 48, 0
2, 83738, Note_on_c, 0, 72, 0
2, 83744, Note_on_c, 0, 76, 0
2, 83745, Note_on_c, 0, 68, 0
2, 83753, Note_on_c, 0, 64, 0
2, 83848, Note_on_c, 0, 74, 60
2, 83850, Note_on_c, 0, 70, 55
2, 83853, Control_c, 0, 64, 127
2, 83853, Note_on_c, 0, 48, 53
2, 83855, Note_on_c, 0, 58, 38
2, 83855, Note_on_c, 0, 62, 49
2, 83856, Note_on_c, 0, 67, 55
2, 83942, Note_on_c, 0, 62, 0
2, 83945, Note_on_c, 0, 67, 0
2, 83948, Note_on_c, 0, 48, 0
2, 83952, Note_on_c, 0, 58, 0
2, 83954, Note_on_c, 0, 70, 0
2, 83960, Note_on_c, 0, 74, 0
2, 83990, Control_c, 0, 64, 0
2, 84008, Note_on_c, 0, 74, 39
2, 84010, Note_on_c, 0, 70, 49
2, 84010, Note_on_c, 0, 48, 36
2, 84012, Note_on_c, 0, 58, 34
2, 84014, Note_on_c, 0, 67, 43
2, 84015, Note_on_c, 0, 62, 47
2, 84026, Note_on_c, 0, 48, 0
2, 84027, Control_c, 0, 64, 127
2, 84037, Note_on_c, 0, 67, 0
2, 84039, Note_on_c, 0, 62, 0
2, 84058, Note_on_c, 0, 70, 0
2, 84058, Note_on_c, 0, 58, 0
2, 84065, Note_on_c, 0, 74, 0
2, 84164, Note_on_c, 0, 73, 71
2, 84165, Control_c, 0, 64, 0
2, 84166, Note_on_c, 0, 64, 63
2, 84166, Note_on_c, 0, 58, 62
2, 84168, Note_on_c, 0, 69, 67
2, 84229, Control_c, 0, 64, 127
2, 84327, Note_on_c, 0, 69, 0
2, 84340, Note_on_c, 0, 73, 0
2, 84377, Note_on_c, 0, 64, 0
2, 84421, Note_on_c, 0, 56, 25
2, 84482, Note_on_c, 0, 72, 40
2, 84484, Note_on_c, 0, 62, 41
2, 84487, Note_on_c, 0, 57, 35
2, 84490, Control_c, 0, 64, 0
2, 84491, Note_on_c, 0, 67, 37
2, 84496, Note_on_c, 0, 58, 0
2, 84503, Note_on_c, 0, 56, 0
2, 84544, Note_on_c, 0, 57, 0
2, 84544, Note_on_c, 0, 67, 0
2, 84545, Note_on_c, 0, 72, 0
2, 84546, Note_on_c, 0, 62, 0
2, 84734, Note_on_c, 0, 56, 35
2, 84738, Note_on_c, 0, 61, 45
2, 84741, Note_on_c, 0, 66, 46
2, 84744, Note_on_c, 0, 71, 36
2, 84780, Note_on_c, 0, 56, 0
2, 84782, Note_on_c, 0, 61, 0
2, 84783, Note_on_c, 0, 66, 0
2, 84788, Note_on_c, 0, 71, 0
2, 84971, Note_on_c, 0, 72, 38
2, 84979, Note_on_c, 0, 57, 24
2, 84982, Note_on_c, 0, 67, 22
2, 84985, Control_c, 0, 64, 127
2, 84992, Note_on_c, 0, 57, 0
2, 84997, Note_on_c, 0, 67, 0
2, 85008, Note_on_c, 0, 72, 0
2, 85128, Control_c, 0, 64, 0
2, 85202, Note_on_c, 0, 63, 34
2, 85203, Note_on_c, 0, 84, 44
2, 85203, Note_on_c, 0, 55, 36
2, 85210, Note_on_c, 0, 72, 33
2, 85210, Note_on_c, 0, 79, 38
2, 85212, Note_on_c, 0, 60, 26
2, 85245, Note_on_c, 0, 72, 0
2, 85251, Note_on_c, 0, 79, 0
2, 85259, Note_on_c, 0, 55, 0
2, 85260, Note_on_c, 0, 60, 0
2, 85264, Note_on_c, 0, 84, 0
2, 85287, Note_on_c, 0, 63, 0
2, 85445, Note_on_c, 0, 74, 33
2, 85445, Note_on_c, 0, 86, 34
2, 85446, Note_on_c, 0, 54, 33
2, 85447, Note_on_c, 0, 64, 27
2, 85451, Note_on_c, 0, 81, 35
2, 85454, Note_on_c, 0, 60, 33
2, 85475, Note_on_c, 0, 81, 0
2, 85478, Note_on_c, 0, 86, 0
2, 85480, Note_on_c, 0, 74, 0
2, 85491, Note_on_c, 0, 64, 0
2, 85494, Note_on_c, 0, 60, 0
2, 85500, Note_on_c, 0, 54, 0
2, 86373, Note_on_c, 0, 54, 50
2, 86399, Note_on_c, 0, 70, 64
2, 86401, Note_on_c, 0, 60, 62
2, 86401, Note_on_c, 0, 65, 51
2, 86409, Note_on_c, 0, 55, 46
2, 86413, Note_on_c, 0, 54, 0
2, 86525, Note_on_c, 0, 70, 0
2, 86527, Note_on_c, 0, 65, 0
2, 86530, Note_on_c, 0, 60, 0
2, 86578, Note_on_c, 0, 55, 0
2, 86589, Note_on_c, 0, 54, 38
2, 86644, Note_on_c, 0, 70, 63
2, 86644, Note_on_c, 0, 60, 52
2, 86646, Note_on_c, 0, 65, 43
2, 86652, Note_on_c, 0, 54, 0
2, 86654, Note_on_c, 0, 55, 54
2, 86729, Note_on_c, 0, 60, 0
2, 86733, Note_on_c, 0, 55, 0
2, 86735, Note_on_c, 0, 65, 0
2, 86738, Note_on_c, 0, 70, 0
2, 86992, Control_c, 0, 64, 127
2, 87081, Control_c, 0, 64, 0
2, 87130, Note_on_c, 0, 61, 50
2, 87131, Note_on_c, 0, 66, 48
2, 87134, Note_on_c, 0, 56, 39
2, 87134, Note_on_c, 0, 71, 30
2, 87198, Control_c, 0, 64, 127
2, 87220, Note_on_c, 0, 61, 0
2, 87221, Note_on_c, 0, 71, 0
2, 87232, Note_on_c, 0, 66, 0
2, 87234, Note_on_c, 0, 56, 0
2, 87290, Control_c, 0, 64, 0
2, 87359, Note_on_c, 0, 68, 48
2, 87359, Note_on_c, 0, 64, 46
2, 87362, Note_on_c, 0, 58, 42
2, 87364, Note_on_c, 0, 72, 38
2, 87384, Note_on_c, 0, 64, 0
2, 87392, Note_on_c, 0, 72, 0
2, 87397, Note_on_c, 0, 68, 0
2, 87399, Note_on_c, 0, 58, 0
2, 87526, Note_on_c, 0, 48, 40
2, 87539, Note_on_c, 0, 48, 0
2, 87764, Note_on_c, 0, 80, 44
2, 87764, Note_on_c, 0, 64, 42
2, 87764, Note_on_c, 0, 76, 48
2, 87765, Note_on_c, 0, 84, 57
2, 87766, Note_on_c, 0, 58, 42
2, 87778, Note_on_c, 0, 64, 0
2, 87779, Note_on_c, 0, 76, 0
2, 87784, Note_on_c, 0, 80, 0
2, 87793, Note_on_c, 0, 84, 0
2, 87797, Note_on_c, 0, 58, 0
2, 87992, Note_on_c, 0, 36, 79
2, 88014, Note_on_c, 0, 36, 0
2, 88075, Note_on_c, 0, 96, 54
2, 88088, Note_on_c, 0, 84, 40
2, 88090, Note_on_c, 0, 96, 0
2, 88103, Note_on_c, 0, 84, 0
2, 88548, Note_on_c, 0, 69, 43
2, 88551, Note_on_c, 0, 53, 36
2, 88551, Note_on_c, 0, 60, 35
2, 88551, Note_on_c, 0, 64, 36
2, 88587, Note_on_c, 0, 60, 0
2, 88604, Note_on_c, 0, 64, 0
2, 88604, Note_on_c, 0, 69, 0
2, 88609, Note_on_c, 0, 53, 0
2, 88801, Note_on_c, 0, 69, 39
2, 88801, Note_on_c, 0, 63, 38
2, 88810, Note_on_c, 0, 57, 25
2, 88813, Note_on_c, 0, 51, 37
2, 89049, Control_c, 0, 64, 127
2, 89077, Note_on_c, 0, 51, 0
2, 89094, Note_on_c, 0, 57, 0
2, 89122, Note_on_c, 0, 69, 0
2, 89200, Note_on_c, 0, 63, 0
2, 89254, Control_c, 0, 64, 0
2, 89281, Note_on_c, 0, 58, 40
2, 89282, Note_on_c, 0, 62, 46
2, 89283, Note_on_c, 0, 69, 38
2, 89289, Note_on_c, 0, 53, 34
2, 89300, Note_on_c, 0, 65, 33
2, 89306, Control_c, 0, 64, 127
2, 89351, Note_on_c, 0, 58, 0
2, 89356, Note_on_c, 0, 65, 0
2, 89357, Note_on_c, 0, 62, 0
2, 89369, Note_on_c, 0, 69, 0
2, 89389, Note_on_c, 0, 53, 0
2, 89504, Control_c, 0, 64, 0
2, 89521, Note_on_c, 0, 72, 74
2, 89523, Note_on_c, 0, 65, 73
2, 89526, Note_on_c, 0, 57, 68
2, 89526, Note_on_c, 0, 62, 71
2, 89574, Control_c, 0, 64, 127
2, 89626, Note_on_c, 0, 62, 0
2, 89630, Note_on_c, 0, 72, 0
2, 89657, Note_on_c, 0, 65, 0
2, 89687, Control_c, 0, 64, 0
2, 89690, Note_on_c, 0, 70, 61
2, 89697, Note_on_c, 0, 57, 0
2, 89697, Note_on_c, 0, 61, 47
2, 89697, Note_on_c, 0, 65, 53
2, 89704, Note_on_c, 0, 55, 51
2, 89948, Control_c, 0, 64, 127
2, 90062, Note_on_c, 0, 55, 0
2, 90076, Note_on_c, 0, 61, 0
2, 90092, Note_on_c, 0, 65, 0
2, 90092, Note_on_c, 0, 70, 0
2, 90261, Control_c, 0, 64, 0
2, 90265, Note_on_c, 0, 48, 34
2, 90267, Note_on_c, 0, 69, 39
2, 90271, Note_on_c, 0, 60, 25
2, 90272, Note_on_c, 0, 65, 40
2, 90277, Note_on_c, 0, 57, 22
2, 90362, Control_c, 0, 64, 127
2, 90414, Note_on_c, 0, 60, 0
2, 90442, Note_on_c, 0, 48, 0
2, 90463, Note_on_c, 0, 69, 0
2, 90463, Note_on_c, 0, 65, 0
2, 90475, Note_on_c, 0, 57, 0
2, 90731, Note_on_c, 0, 76, 75
2, 90731, Note_on_c, 0, 79, 76
2, 90734, Note_on_c, 0, 73, 76
2, 90736, Note_on_c, 0, 67, 60
2, 90738, Note_on_c, 0, 58, 71
2, 90739, Note_on_c, 0, 64, 64
2, 90743, Control_c, 0, 64, 0
2, 90829, Control_c, 0, 64, 127
2, 90992, Note_on_c, 0, 76, 0
2, 91012, Note_on_c, 0, 67, 0
2, 91016, Note_on_c, 0, 73, 0
2, 91018, Note_on_c, 0, 79, 0
2, 91058, Note_on_c, 0, 77, 43
2, 91094, Note_on_c, 0, 77, 0
2, 91126, Note_on_c, 0, 79, 57
2, 91128, Note_on_c, 0, 64, 0
2, 91159, Note_on_c, 0, 79, 0
2, 91168, Note_on_c, 0, 58, 0
2, 91205, Control_c, 0, 64, 0
2, 91206, Note_on_c, 0, 77, 54
2, 91208, Note_on_c, 0, 67, 43
2, 91210, Note_on_c, 0, 57, 47
2, 91211, Note_on_c, 0, 72, 42
2, 91212, Note_on_c, 0, 62, 32
2, 91303, Control_c, 0, 64, 127
2, 91314, Note_on_c, 0, 67, 0
2, 91363, Note_on_c, 0, 72, 0
2, 91391, Note_on_c, 0, 77, 0
2, 91393, Note_on_c, 0, 57, 0
2, 91399, Note_on_c, 0, 62, 0
2, 91596, Note_on_c, 0, 82, 68
2, 91599, Note_on_c, 0, 89, 68
2, 91601, Note_on_c, 0, 86, 48
2, 91603, Note_on_c, 0, 54, 59
2, 91604, Note_on_c, 0, 77, 60
2, 91604, Note_on_c, 0, 65, 59
2, 91607, Note_on_c, 0, 60, 58
2, 91616, Control_c, 0, 64, 0
2, 91828, Control_c, 0, 64, 127
2, 91932, Note_on_c, 0, 65, 0
2, 91941, Note_on_c, 0, 60, 0
2, 91955, Note_on_c, 0, 82, 0
2, 91955, Note_on_c, 0, 77, 0
2, 91978, Note_on_c, 0, 86, 0
2, 91980, Note_on_c, 0, 54, 0
2, 91993, Note_on_c, 0, 89, 0
2, 92171, Control_c, 0, 64, 0
2, 92332, Note_on_c, 0, 93, 73
2, 92334, Note_on_c, 0, 81, 58
2, 92336, Note_on_c, 0, 58, 47
2, 92336, Note_on_c, 0, 89, 54
2, 92336, Note_on_c, 0, 62, 58
2, 92337, Note_on_c, 0, 57, 53
2, 92342, Note_on_c, 0, 86, 32
2, 92346, Note_on_c, 0, 93, 0
2, 92347, Note_on_c, 0, 81, 0
2, 92349, Note_on_c, 0, 89, 0
2, 92350, Note_on_c, 0, 62, 0
2, 92351, Note_on_c, 0, 57, 0
2, 92357, Note_on_c, 0, 86, 0
2, 92358, Note_on_c, 0, 58, 0
2, 92526, Control_c, 0, 64, 127
2, 92604, Control_c, 0, 64, 0
2, 92649, Note_on_c, 0, 58, 40
2, 92652, Note_on_c, 0, 62, 49
2, 92656, Note_on_c, 0, 52, 46
2, 92658, Note_on_c, 0, 88, 47
2, 92659, Note_on_c, 0, 91, 53
2, 92660, Note_on_c, 0, 79, 44
2, 92666, Note_on_c, 0, 84, 46
2, 92675, Note_on_c, 0, 52, 0
2, 92679, Note_on_c, 0, 84, 0
2, 92684, Note_on_c, 0, 62, 0
2, 92687, Note_on_c, 0, 88, 0
2, 92688, Note_on_c, 0, 79, 0
2, 92690, Note_on_c, 0, 58, 0
2, 92693, Note_on_c, 0, 91, 0
2, 92819, Note_on_c, 0, 89, 64
2, 92823, Note_on_c, 0, 77, 36
2, 92835, Note_on_c, 0, 89, 0
2, 92840, Note_on_c, 0, 77, 0
2, 92879, Note_on_c, 0, 58, 57
2, 92882, Note_on_c, 0, 91, 66
2, 92884, Note_on_c, 0, 79, 57
2, 92886, Note_on_c, 0, 62, 58
2, 92894, Note_on_c, 0, 52, 40
2, 92908, Note_on_c, 0, 52, 0
2, 92910, Control_c, 0, 64, 127
2, 92936, Note_on_c, 0, 58, 0
2, 92939, Note_on_c, 0, 62, 0
2, 92963, Note_on_c, 0, 91, 0
2, 92992, Note_on_c, 0, 79, 0
2, 93119, Control_c, 0, 64, 0
2, 93272, Note_on_c, 0, 60, 84
2, 93274, Note_on_c, 0, 61, 70
2, 93275, Note_on_c, 0, 65, 83
2, 93275, Note_on_c, 0, 89, 88
2, 93277, Note_on_c, 0, 55, 74
2, 93277, Note_on_c, 0, 77, 87
2, 93281, Note_on_c, 0, 58, 44
2, 93295, Note_on_c, 0, 58, 0
2, 93342, Control_c, 0, 64, 127
2, 93351, Note_on_c, 0, 89, 0
2, 93500, Note_on_c, 0, 77, 0
2, 93524, Note_on_c, 0, 55, 0
2, 93536, Note_on_c, 0, 65, 0
2, 93540, Note_on_c, 0, 60, 0
2, 93564, Note_on_c, 0, 61, 0
2, 93617, Note_on_c, 0, 65, 57
2, 93617, Note_on_c, 0, 54, 57
2, 93617, Note_on_c, 0, 86, 62
2, 93619, Control_c, 0, 64, 0
2, 93621, Note_on_c, 0, 82, 50
2, 93621, Note_on_c, 0, 74, 51
2, 93623, Note_on_c, 0, 60, 55
2, 93721, Note_on_c, 0, 86, 0
2, 93726, Note_on_c, 0, 65, 0
2, 93727, Note_on_c, 0, 60, 0
2, 93729, Note_on_c, 0, 82, 0
2, 93731, Note_on_c, 0, 74, 0
2, 93741, Note_on_c, 0, 54, 0
2, 93857, Note_on_c, 0, 80, 37
2, 93858, Note_on_c, 0, 65, 57
2, 93861, Note_on_c, 0, 60, 65
2, 93862, Note_on_c, 0, 68, 54
2, 93863, Note_on_c, 0, 54, 57
2, 93875, Note_on_c, 0, 68, 0
2, 93894, Note_on_c, 0, 69, 28
2, 93896, Note_on_c, 0, 81, 24
2, 93907, Note_on_c, 0, 74, 27
2, 93929, Note_on_c, 0, 65, 0
2, 93942, Note_on_c, 0, 60, 0
2, 93947, Note_on_c, 0, 80, 0
2, 93983, Note_on_c, 0, 69, 0
2, 93986, Note_on_c, 0, 81, 0
2, 93987, Note_on_c, 0, 54, 0
2, 93989, Note_on_c, 0, 74, 0
2, 94083, Note_on_c, 0, 68, 60
2, 94089, Note_on_c, 0, 58, 37
2, 94089, Note_on_c, 0, 62, 51
2, 94093, Note_on_c, 0, 74, 40
2, 94100, Note_on_c, 0, 57, 37
2, 94102, Note_on_c, 0, 53, 36
2, 94104, Note_on_c, 0, 81, 44
2, 94107, Note_on_c, 0, 77, 37
2, 94126, Note_on_c, 0, 69, 39
2, 94128, Note_on_c, 0, 68, 0
2, 94144, Note_on_c, 0, 53, 0
2, 94168, Note_on_c, 0, 57, 0
2, 94171, Note_on_c, 0, 58, 0
2, 94174, Note_on_c, 0, 62, 0
2, 94181, Note_on_c, 0, 81, 0
2, 94192, Note_on_c, 0, 77, 0
2, 94208, Note_on_c, 0, 69, 0
2, 94213, Note_on_c, 0, 74, 0
2, 94557, Note_on_c, 0, 79, 53
2, 94562, Note_on_c, 0, 69, 45
2, 94563, Note_on_c, 0, 76, 41
2, 94564, Note_on_c, 0, 64, 38
2, 94565, Note_on_c, 0, 58, 38
2, 94566, Note_on_c, 0, 73, 44
2, 94626, Control_c, 0, 64, 127
2, 94656, Note_on_c, 0, 76, 0
2, 94671, Note_on_c, 0, 69, 0
2, 94672, Note_on_c, 0, 58, 0
2, 94675, Note_on_c, 0, 73, 0
2, 94677, Note_on_c, 0, 79, 0
2, 94699, Note_on_c, 0, 64, 0
2, 94750, Note_on_c, 0, 77, 36
2, 94750, Note_on_c, 0, 77, 0
2, 94772, Control_c, 0, 64, 0
2, 94798, Note_on_c, 0, 79, 36
2, 94804, Note_on_c, 0, 69, 34
2, 94806, Note_on_c, 0, 58, 36
2, 94806, Note_on_c, 0, 73, 32
2, 94808, Note_on_c, 0, 64, 26
2, 94814, Note_on_c, 0, 77, 19
2, 94821, Control_c, 0, 64, 127
2, 94832, Note_on_c, 0, 77, 0
2, 94834, Note_on_c, 0, 69, 0
2, 94835, Note_on_c, 0, 64, 0
2, 94837, Note_on_c, 0, 79, 0
2, 94841, Note_on_c, 0, 73, 0
2, 94884, Note_on_c, 0, 58, 0
2, 94921, Control_c, 0, 64, 0
2, 94945, Note_on_c, 0, 77, 48
2, 94946, Note_on_c, 0, 67, 48
2, 94951, Note_on_c, 0, 72, 46
2, 94952, Note_on_c, 0, 62, 36
2, 94956, Note_on_c, 0, 57, 41
2, 94962, Note_on_c, 0, 67, 0
2, 94966, Note_on_c, 0, 72, 0
2, 94968, Note_on_c, 0, 62, 0
2, 94975, Note_on_c, 0, 57, 0
2, 94991, Note_on_c, 0, 77, 0
2, 95195, Note_on_c, 0, 95, 58
2, 95199, Note_on_c, 0, 47, 36
2, 95273, Note_on_c, 0, 95, 0
2, 95280, Note_on_c, 0, 47, 0
2, 95289, Note_on_c, 0, 96, 51
2, 95293, Note_on_c, 0, 48, 36
2, 95308, Note_on_c, 0, 48, 0
2, 95312, Note_on_c, 0, 96, 0
2, 95439, Note_on_c, 0, 29, 29
2, 95439, Note_on_c, 0, 101, 53
2, 95440, Note_on_c, 0, 41, 29
2, 95751, Note_on_c, 0, 101, 0
2, 96140, Note_on_c, 0, 41, 0
2, 96152, Note_on_c, 0, 29, 0
2, 96152, End_track
3, 0, Start_track
3, 0, Title_t, "Accoustic Bass"
3, 0, Program_c, 1, 32
3, 0, Control_c, 1, 7, 80
3, 15, Note_on_c, 1, 53, 70
3, 416, Note_on_c, 1, 53, 0
3, 475, Note_on_c, 1, 45, 51
3, 961, Note_on_c, 1, 45, 0
3, 977, Note_on_c, 1, 50, 43
3, 1596, Note_on_c, 1, 43, 40
3, 1645, Note_on_c, 1, 43, 0
3, 1673, Note_on_c, 1, 50, 0
3, 1675, Note_on_c, 1, 38, 53
3, 1911, Note_on_c, 1, 38, 0
3, 1928, Note_on_c, 1, 43, 38
3, 2327, Note_on_c, 1, 42, 39
3, 2364, Note_on_c, 1, 43, 0
3, 2391, Note_on_c, 1, 42, 0
3, 2409, Note_on_c, 1, 50, 59
3, 2469, Note_on_c, 1, 50, 0
3, 2576, Note_on_c, 1, 42, 33
3, 2593, Note_on_c, 1, 42, 0
3, 2643, Note_on_c, 1, 49, 59
3, 2832, Note_on_c, 1, 49, 0
3, 2876, Note_on_c, 1, 48, 45
3, 2998, Note_on_c, 1, 48, 0
3, 3040, Note_on_c, 1, 43, 32
3, 3088, Note_on_c, 1, 43, 0
3, 3127, Note_on_c, 1, 40, 57
3, 3444, Note_on_c, 1, 40, 0
3, 3508, Note_on_c, 1, 39, 56
3, 3559, Note_on_c, 1, 39, 0
3, 3591, Note_on_c, 1, 40, 54
3, 3812, Note_on_c, 1, 40, 0
3, 3839, Note_on_c, 1, 41, 52
3, 4561, Note_on_c, 1, 45, 69
3, 4599, Note_on_c, 1, 41, 0
3, 4617, Note_on_c, 1, 45, 0
3, 4763, Note_on_c, 1, 41, 28
3, 4789, Note_on_c, 1, 41, 0
3, 4857, Note_on_c, 1, 46, 59
3, 5196, Note_on_c, 1, 41, 43
3, 5215, Note_on_c, 1, 41, 0
3, 5264, Note_on_c, 1, 46, 0
3, 5277, Note_on_c, 1, 47, 59
3, 5525, Note_on_c, 1, 43, 25
3, 5547, Note_on_c, 1, 43, 0
3, 5648, Note_on_c, 1, 47, 0
3, 5701, Note_on_c, 1, 50, 66
3, 5749, Note_on_c, 1, 50, 0
3, 5779, Note_on_c, 1, 48, 60
3, 5796, Note_on_c, 1, 48, 0
3, 5925, Note_on_c, 1, 43, 55
3, 5952, Note_on_c, 1, 43, 0
3, 6010, Note_on_c, 1, 36, 72
3, 6417, Note_on_c, 1, 43, 49
3, 6438, Note_on_c, 1, 43, 0
3, 6489, Note_on_c, 1, 57, 75
3, 6494, Note_on_c, 1, 36, 0
3, 6900, Note_on_c, 1, 43, 45
3, 6918, Note_on_c, 1, 43, 0
3, 6937, Note_on_c, 1, 57, 0
3, 6966, Note_on_c, 1, 55, 68
3, 7179, Note_on_c, 1, 55, 0
3, 7208, Note_on_c, 1, 53, 48
3, 7387, Note_on_c, 1, 48, 31
3, 7404, Note_on_c, 1, 48, 0
3, 7411, Note_on_c, 1, 53, 0
3, 7437, Note_on_c, 1, 52, 53
3, 7671, Note_on_c, 1, 52, 0
3, 7690, Note_on_c, 1, 53, 48
3, 7905, Note_on_c, 1, 53, 0
3, 7933, Note_on_c, 1, 51, 69
3, 8378, Note_on_c, 1, 51, 0
3, 8391, Note_on_c, 1, 39, 40
3, 8629, Note_on_c, 1, 39, 0
3, 8631, Note_on_c, 1, 38, 51
3, 9310, Note_on_c, 1, 39, 28
3, 9352, Note_on_c, 1, 39, 0
3, 9354, Note_on_c, 1, 38, 0
3, 9365, Note_on_c, 1, 57, 66
3, 9517, Note_on_c, 1, 57, 0
3, 9529, Note_on_c, 1, 54, 51
3, 9571, Note_on_c, 1, 54, 0
3, 9612, Note_on_c, 1, 55, 55
3, 9739, Note_on_c, 1, 55, 0
3, 9763, Note_on_c, 1, 50, 68
3, 9796, Note_on_c, 1, 50, 0
3, 9852, Note_on_c, 1, 43, 60
3, 10296, Note_on_c, 1, 43, 0
3, 10332, Note_on_c, 1, 38, 66
3, 10545, Note_on_c, 1, 38, 0
3, 10554, Note_on_c, 1, 36, 57
3, 10728, Note_on_c, 1, 40, 45
3, 10770, Note_on_c, 1, 40, 0
3, 10782, Note_on_c, 1, 36, 0
3, 10792, Note_on_c, 1, 50, 85
3, 11017, Note_on_c, 1, 50, 0
3, 11039, Note_on_c, 1, 48, 47
3, 11187, Note_on_c, 1, 48, 0
3, 11206, Note_on_c, 1, 39, 49
3, 11255, Note_on_c, 1, 39, 0
3, 11283, Note_on_c, 1, 40, 48
3, 11515, Note_on_c, 1, 40, 0
3, 11537, Note_on_c, 1, 41, 54
3, 11951, Note_on_c, 1, 36, 45
3, 11986, Note_on_c, 1, 41, 0
3, 11996, Note_on_c, 1, 36, 0
3, 12018, Note_on_c, 1, 33, 65
3, 12487, Note_on_c, 1, 33, 0
3, 12494, Note_on_c, 1, 34, 57
3, 12945, Note_on_c, 1, 34, 0
3, 12953, Note_on_c, 1, 35, 62
3, 13401, Note_on_c, 1, 34, 31
3, 13440, Note_on_c, 1, 35, 0
3, 13445, Note_on_c, 1, 34, 0
3, 13447, Note_on_c, 1, 36, 64
3, 13881, Note_on_c, 1, 34, 29
3, 13924, Note_on_c, 1, 36, 0
3, 13930, Note_on_c, 1, 48, 72
3, 13954, Note_on_c, 1, 34, 0
3, 14345, Note_on_c, 1, 34, 36
3, 14387, Note_on_c, 1, 48, 0
3, 14388, Note_on_c, 1, 34, 0
3, 14415, Note_on_c, 1, 36, 64
3, 14820, Note_on_c, 1, 34, 34
3, 14845, Note_on_c, 1, 36, 0
3, 14869, Note_on_c, 1, 34, 0
3, 14877, Note_on_c, 1, 50, 81
3, 14913, Note_on_c, 1, 50, 0
3, 15044, Note_on_c, 1, 48, 78
3, 15060, Note_on_c, 1, 48, 0
3, 15119, Note_on_c, 1, 40, 55
3, 15348, Note_on_c, 1, 40, 0
3, 15360, Note_on_c, 1, 41, 54
3, 15768, Note_on_c, 1, 55, 64
3, 15809, Note_on_c, 1, 55, 0
3, 15822, Note_on_c, 1, 41, 0
3, 15852, Note_on_c, 1, 54, 52
3, 15908, Note_on_c, 1, 54, 0
3, 16097, Note_on_c, 1, 53, 54
3, 16305, Note_on_c, 1, 53, 0
3, 16344, Note_on_c, 1, 52, 52
3, 16502, Note_on_c, 1, 41, 29
3, 16525, Note_on_c, 1, 52, 0
3, 16526, Note_on_c, 1, 41, 0
3, 16557, Note_on_c, 1, 51, 49
3, 16717, Note_on_c, 1, 41, 30
3, 16744, Note_on_c, 1, 41, 0
3, 16776, Note_on_c, 1, 51, 0
3, 16793, Note_on_c, 1, 48, 56
3, 16956, Note_on_c, 1, 48, 0
3, 16960, Note_on_c, 1, 41, 57
3, 17010, Note_on_c, 1, 41, 0
3, 17039, Note_on_c, 1, 45, 57
3, 17254, Note_on_c, 1, 41, 28
3, 17256, Note_on_c, 1, 45, 0
3, 17282, Note_on_c, 1, 41, 0
3, 17285, Note_on_c, 1, 46, 46
3, 17757, Note_on_c, 1, 46, 0
3, 17766, Note_on_c, 1, 41, 51
3, 18227, Note_on_c, 1, 41, 0
3, 18245, Note_on_c, 1, 34, 46
3, 18724, Note_on_c, 1, 34, 0
3, 18726, Note_on_c, 1, 35, 55
3, 19144, Note_on_c, 1, 34, 34
3, 19193, Note_on_c, 1, 35, 0
3, 19196, Note_on_c, 1, 36, 66
3, 19199, Note_on_c, 1, 34, 0
3, 19870, Note_on_c, 1, 34, 42
3, 19892, Note_on_c, 1, 36, 0
3, 19933, Note_on_c, 1, 37, 68
3, 19934, Note_on_c, 1, 34, 0
3, 20338, Note_on_c, 1, 34, 37
3, 20387, Note_on_c, 1, 37, 0
3, 20393, Note_on_c, 1, 34, 0
3, 20399, Note_on_c, 1, 38, 69
3, 20827, Note_on_c, 1, 37, 37
3, 20836, Note_on_c, 1, 38, 0
3, 20856, Note_on_c, 1, 37, 0
3, 20877, Note_on_c, 1, 44, 64
3, 21091, Note_on_c, 1, 44, 0
3, 21136, Note_on_c, 1, 43, 20
3, 21187, Note_on_c, 1, 43, 0
3, 21280, Note_on_c, 1, 38, 53
3, 21326, Note_on_c, 1, 38, 0
3, 21354, Note_on_c, 1, 32, 56
3, 21584, Note_on_c, 1, 32, 0
3, 21591, Note_on_c, 1, 31, 62
3, 21836, Note_on_c, 1, 31, 0
3, 21849, Note_on_c, 1, 35, 63
3, 22073, Note_on_c, 1, 35, 0
3, 22083, Note_on_c, 1, 36, 55
3, 22248, Note_on_c, 1, 50, 80
3, 22267, Note_on_c, 1, 36, 0
3, 22324, Note_on_c, 1, 50, 0
3, 22349, Note_on_c, 1, 49, 50
3, 22489, Note_on_c, 1, 35, 33
3, 22523, Note_on_c, 1, 35, 0
3, 22528, Note_on_c, 1, 49, 0
3, 22556, Note_on_c, 1, 48, 57
3, 23037, Note_on_c, 1, 48, 0
3, 23040, Note_on_c, 1, 41, 69
3, 23472, Note_on_c, 1, 39, 21
3, 23524, Note_on_c, 1, 41, 0
3, 23528, Note_on_c, 1, 51, 67
3, 23548, Note_on_c, 1, 39, 0
3, 23993, Note_on_c, 1, 51, 0
3, 24009, Note_on_c, 1, 50, 58
3, 24250, Note_on_c, 1, 38, 62
3, 24265, Note_on_c, 1, 50, 0
3, 24501, Note_on_c, 1, 54, 56
3, 24905, Note_on_c, 1, 54, 0
3, 24951, Note_on_c, 1, 38, 0
3, 24963, Note_on_c, 1, 43, 66
3, 25442, Note_on_c, 1, 43, 0
3, 25454, Note_on_c, 1, 38, 43
3, 25843, Note_on_c, 1, 34, 45
3, 25860, Note_on_c, 1, 38, 0
3, 25896, Note_on_c, 1, 34, 0
3, 25920, Note_on_c, 1, 36, 47
3, 26295, Note_on_c, 1, 36, 0
3, 26339, Note_on_c, 1, 34, 40
3, 26391, Note_on_c, 1, 34, 0
3, 26407, Note_on_c, 1, 38, 62
3, 26433, Note_on_c, 1, 38, 0
3, 26569, Note_on_c, 1, 39, 62
3, 26601, Note_on_c, 1, 39, 0
3, 26617, Note_on_c, 1, 40, 24
3, 26859, Note_on_c, 1, 40, 0
3, 26876, Note_on_c, 1, 41, 49
3, 27205, Note_on_c, 1, 41, 0
3, 27207, Note_on_c, 1, 36, 56
3, 27244, Note_on_c, 1, 36, 0
3, 27280, Note_on_c, 1, 32, 67
3, 27319, Note_on_c, 1, 32, 0
3, 27365, Note_on_c, 1, 33, 46
3, 27574, Note_on_c, 1, 33, 0
3, 27607, Note_on_c, 1, 41, 42
3, 27641, Note_on_c, 1, 41, 0
3, 27673, Note_on_c, 1, 36, 39
3, 27704, Note_on_c, 1, 36, 0
3, 27754, Note_on_c, 1, 34, 75
3, 27952, Note_on_c, 1, 34, 0
3, 27971, Note_on_c, 1, 43, 58
3, 27988, Note_on_c, 1, 43, 0
3, 28028, Note_on_c, 1, 38, 47
3, 28073, Note_on_c, 1, 38, 0
3, 28118, Note_on_c, 1, 35, 80
3, 28505, Note_on_c, 1, 35, 0
3, 28508, Note_on_c, 1, 41, 68
3, 28564, Note_on_c, 1, 41, 0
3, 28572, Note_on_c, 1, 38, 67
3, 28753, Note_on_c, 1, 38, 0
3, 28766, Note_on_c, 1, 35, 55
3, 28783, Note_on_c, 1, 35, 0
3, 28813, Note_on_c, 1, 36, 73
3, 29196, Note_on_c, 1, 34, 39
3, 29216, Note_on_c, 1, 50, 70
3, 29249, Note_on_c, 1, 36, 0
3, 29259, Note_on_c, 1, 34, 0
3, 29264, Note_on_c, 1, 50, 0
3, 29304, Note_on_c, 1, 48, 54
3, 29919, Note_on_c, 1, 43, 53
3, 29946, Note_on_c, 1, 43, 0
3, 29951, Note_on_c, 1, 48, 0
3, 29990, Note_on_c, 1, 36, 66
3, 30400, Note_on_c, 1, 39, 57
3, 30404, Note_on_c, 1, 36, 0
3, 30445, Note_on_c, 1, 39, 0
3, 30474, Note_on_c, 1, 40, 49
3, 30708, Note_on_c, 1, 40, 0
3, 30714, Note_on_c, 1, 41, 52
3, 30890, Note_on_c, 1, 39, 39
3, 30938, Note_on_c, 1, 41, 0
3, 30957, Note_on_c, 1, 50, 53
3, 30969, Note_on_c, 1, 39, 0
3, 31143, Note_on_c, 1, 41, 22
3, 31160, Note_on_c, 1, 41, 0
3, 31163, Note_on_c, 1, 50, 0
3, 31184, Note_on_c, 1, 51, 56
3, 31383, Note_on_c, 1, 39, 32
3, 31404, Note_on_c, 1, 39, 0
3, 31433, Note_on_c, 1, 51, 0
3, 31492, Note_on_c, 1, 49, 50
3, 31618, Note_on_c, 1, 39, 29
3, 31643, Note_on_c, 1, 39, 0
3, 31675, Note_on_c, 1, 49, 0
3, 31698, Note_on_c, 1, 50, 49
3, 31905, Note_on_c, 1, 50, 0
3, 31920, Note_on_c, 1, 45, 42
3, 32157, Note_on_c, 1, 45, 0
3, 32164, Note_on_c, 1, 38, 44
3, 32395, Note_on_c, 1, 42, 48
3, 32406, Note_on_c, 1, 38, 0
3, 32617, Note_on_c, 1, 42, 0
3, 32639, Note_on_c, 1, 43, 45
3, 32840, Note_on_c, 1, 43, 0
3, 32871, Note_on_c, 1, 34, 46
3, 33113, Note_on_c, 1, 34, 0
3, 33123, Note_on_c, 1, 38, 30
3, 33339, Note_on_c, 1, 38, 0
3, 33345, Note_on_c, 1, 35, 47
3, 33581, Note_on_c, 1, 35, 0
3, 33596, Note_on_c, 1, 36, 46
3, 33796, Note_on_c, 1, 35, 24
3, 33809, Note_on_c, 1, 36, 0
3, 33816, Note_on_c, 1, 35, 0
3, 33839, Note_on_c, 1, 38, 44
3, 34072, Note_on_c, 1, 38, 0
3, 34077, Note_on_c, 1, 39, 49
3, 34308, Note_on_c, 1, 39, 0
3, 34326, Note_on_c, 1, 40, 41
3, 34554, Note_on_c, 1, 40, 0
3, 34560, Note_on_c, 1, 41, 62
3, 34772, Note_on_c, 1, 41, 0
3, 34792, Note_on_c, 1, 50, 62
3, 35014, Note_on_c, 1, 50, 0
3, 35052, Note_on_c, 1, 48, 48
3, 35274, Note_on_c, 1, 48, 0
3, 35290, Note_on_c, 1, 45, 35
3, 35506, Note_on_c, 1, 45, 0
3, 35527, Note_on_c, 1, 46, 38
3, 35764, Note_on_c, 1, 46, 0
3, 35767, Note_on_c, 1, 41, 44
3, 35990, Note_on_c, 1, 41, 0
3, 36008, Note_on_c, 1, 49, 42
3, 36233, Note_on_c, 1, 46, 42
3, 36239, Note_on_c, 1, 49, 0
3, 36473, Note_on_c, 1, 46, 0
3, 36479, Note_on_c, 1, 48, 45
3, 36697, Note_on_c, 1, 48, 0
3, 36714, Note_on_c, 1, 45, 41
3, 36951, Note_on_c, 1, 45, 0
3, 36969, Note_on_c, 1, 36, 40
3, 37205, Note_on_c, 1, 50, 43
3, 37219, Note_on_c, 1, 36, 0
3, 37426, Note_on_c, 1, 50, 0
3, 37447, Note_on_c, 1, 48, 40
3, 37683, Note_on_c, 1, 36, 55
3, 37692, Note_on_c, 1, 48, 0
3, 37895, Note_on_c, 1, 36, 0
3, 37928, Note_on_c, 1, 36, 60
3, 38153, Note_on_c, 1, 40, 44
3, 38162, Note_on_c, 1, 36, 0
3, 38360, Note_on_c, 1, 40, 0
3, 38393, Note_on_c, 1, 41, 39
3, 38579, Note_on_c, 1, 41, 0
3, 38633, Note_on_c, 1, 41, 45
3, 38862, Note_on_c, 1, 41, 0
3, 38877, Note_on_c, 1, 39, 42
3, 39086, Note_on_c, 1, 39, 0
3, 39122, Note_on_c, 1, 39, 47
3, 39362, Note_on_c, 1, 39, 0
3, 39367, Note_on_c, 1, 38, 48
3, 39548, Note_on_c, 1, 37, 32
3, 39587, Note_on_c, 1, 38, 0
3, 39605, Note_on_c, 1, 37, 0
3, 39607, Note_on_c, 1, 51, 65
3, 39824, Note_on_c, 1, 51, 0
3, 39851, Note_on_c, 1, 50, 53
3, 40067, Note_on_c, 1, 50, 0
3, 40078, Note_on_c, 1, 42, 48
3, 40320, Note_on_c, 1, 42, 0
3, 40333, Note_on_c, 1, 43, 48
3, 40560, Note_on_c, 1, 43, 0
3, 40568, Note_on_c, 1, 38, 51
3, 40784, Note_on_c, 1, 38, 0
3, 40812, Note_on_c, 1, 34, 39
3, 41038, Note_on_c, 1, 34, 0
3, 41043, Note_on_c, 1, 35, 55
3, 41283, Note_on_c, 1, 35, 0
3, 41294, Note_on_c, 1, 36, 48
3, 41483, Note_on_c, 1, 35, 24
3, 41506, Note_on_c, 1, 35, 0
3, 41516, Note_on_c, 1, 36, 0
3, 41526, Note_on_c, 1, 50, 64
3, 41766, Note_on_c, 1, 50, 0
3, 41768, Note_on_c, 1, 48, 51
3, 41995, Note_on_c, 1, 48, 0
3, 42008, Note_on_c, 1, 40, 47
3, 42236, Note_on_c, 1, 40, 0
3, 42250, Note_on_c, 1, 41, 50
3, 42475, Note_on_c, 1, 41, 0
3, 42493, Note_on_c, 1, 41, 40
3, 42704, Note_on_c, 1, 41, 0
3, 42715, Note_on_c, 1, 39, 35
3, 42912, Note_on_c, 1, 39, 0
3, 42957, Note_on_c, 1, 39, 51
3, 43195, Note_on_c, 1, 39, 0
3, 43203, Note_on_c, 1, 38, 48
3, 43409, Note_on_c, 1, 38, 0
3, 43448, Note_on_c, 1, 38, 58
3, 43665, Note_on_c, 1, 38, 0
3, 43688, Note_on_c, 1, 37, 42
3, 43887, Note_on_c, 1, 37, 0
3, 43927, Note_on_c, 1, 37, 47
3, 44142, Note_on_c, 1, 37, 0
3, 44169, Note_on_c, 1, 36, 49
3, 44384, Note_on_c, 1, 36, 0
3, 44418, Note_on_c, 1, 36, 72
3, 44642, Note_on_c, 1, 48, 59
3, 44650, Note_on_c, 1, 36, 0
3, 44840, Note_on_c, 1, 36, 29
3, 44841, Note_on_c, 1, 48, 0
3, 44882, Note_on_c, 1, 36, 0
3, 44882, Note_on_c, 1, 48, 62
3, 45132, Note_on_c, 1, 48, 0
3, 45146, Note_on_c, 1, 36, 35
3, 45331, Note_on_c, 1, 36, 0
3, 45366, Note_on_c, 1, 36, 61
3, 45604, Note_on_c, 1, 48, 51
3, 45611, Note_on_c, 1, 36, 0
3, 45851, Note_on_c, 1, 40, 37
3, 45853, Note_on_c, 1, 48, 0
3, 46033, Note_on_c, 1, 40, 0
3, 46088, Note_on_c, 1, 41, 40
3, 46286, Note_on_c, 1, 41, 0
3, 46310, Note_on_c, 1, 36, 48
3, 46553, Note_on_c, 1, 36, 0
3, 46560, Note_on_c, 1, 50, 57
3, 46785, Note_on_c, 1, 50, 0
3, 46803, Note_on_c, 1, 49, 49
3, 47025, Note_on_c, 1, 49, 0
3, 47052, Note_on_c, 1, 48, 42
3, 47262, Note_on_c, 1, 48, 0
3, 47271, Note_on_c, 1, 41, 47
3, 47522, Note_on_c, 1, 41, 0
3, 47527, Note_on_c, 1, 33, 37
3, 47742, Note_on_c, 1, 33, 0
3, 47753, Note_on_c, 1, 36, 52
3, 47993, Note_on_c, 1, 36, 0
3, 47997, Note_on_c, 1, 34, 35
3, 48239, Note_on_c, 1, 43, 58
3, 48264, Note_on_c, 1, 34, 0
3, 48476, Note_on_c, 1, 43, 0
3, 48497, Note_on_c, 1, 41, 44
3, 48721, Note_on_c, 1, 51, 57
3, 48727, Note_on_c, 1, 41, 0
3, 48954, Note_on_c, 1, 51, 0
3, 48981, Note_on_c, 1, 50, 55
3, 49177, Note_on_c, 1, 50, 0
3, 49207, Note_on_c, 1, 48, 48
3, 49438, Note_on_c, 1, 48, 0
3, 49446, Note_on_c, 1, 46, 38
3, 49679, Note_on_c, 1, 46, 0
3, 49684, Note_on_c, 1, 47, 58
3, 49904, Note_on_c, 1, 47, 0
3, 49920, Note_on_c, 1, 48, 53
3, 50140, Note_on_c, 1, 48, 0
3, 50155, Note_on_c, 1, 45, 57
3, 50392, Note_on_c, 1, 45, 0
3, 50407, Note_on_c, 1, 36, 40
3, 50617, Note_on_c, 1, 36, 0
3, 50629, Note_on_c, 1, 41, 54
3, 50863, Note_on_c, 1, 41, 0
3, 50871, Note_on_c, 1, 45, 42
3, 51112, Note_on_c, 1, 37, 50
3, 51113, Note_on_c, 1, 45, 0
3, 51350, Note_on_c, 1, 37, 0
3, 51354, Note_on_c, 1, 38, 55
3, 51533, Note_on_c, 1, 37, 37
3, 51573, Note_on_c, 1, 38, 0
3, 51583, Note_on_c, 1, 37, 0
3, 51593, Note_on_c, 1, 44, 56
3, 51817, Note_on_c, 1, 44, 0
3, 51834, Note_on_c, 1, 43, 51
3, 52069, Note_on_c, 1, 43, 0
3, 52084, Note_on_c, 1, 51, 69
3, 52302, Note_on_c, 1, 51, 0
3, 52328, Note_on_c, 1, 50, 55
3, 52548, Note_on_c, 1, 50, 0
3, 52554, Note_on_c, 1, 35, 60
3, 52790, Note_on_c, 1, 35, 0
3, 52797, Note_on_c, 1, 36, 64
3, 53045, Note_on_c, 1, 50, 74
3, 53064, Note_on_c, 1, 36, 0
3, 53259, Note_on_c, 1, 50, 0
3, 53285, Note_on_c, 1, 48, 36
3, 53503, Note_on_c, 1, 48, 0
3, 53528, Note_on_c, 1, 40, 58
3, 53735, Note_on_c, 1, 40, 0
3, 53748, Note_on_c, 1, 41, 45
3, 53968, Note_on_c, 1, 41, 0
3, 54004, Note_on_c, 1, 41, 51
3, 54205, Note_on_c, 1, 41, 0
3, 54227, Note_on_c, 1, 39, 44
3, 54451, Note_on_c, 1, 39, 0
3, 54485, Note_on_c, 1, 39, 53
3, 54730, Note_on_c, 1, 38, 50
3, 54732, Note_on_c, 1, 39, 0
3, 54966, Note_on_c, 1, 53, 72
3, 55177, Note_on_c, 1, 53, 0
3, 55201, Note_on_c, 1, 54, 67
3, 55407, Note_on_c, 1, 38, 0
3, 55450, Note_on_c, 1, 42, 34
3, 55649, Note_on_c, 1, 54, 0
3, 55677, Note_on_c, 1, 42, 0
3, 55688, Note_on_c, 1, 43, 49
3, 55935, Note_on_c, 1, 38, 45
3, 55945, Note_on_c, 1, 43, 0
3, 56146, Note_on_c, 1, 38, 0
3, 56175, Note_on_c, 1, 34, 38
3, 56397, Note_on_c, 1, 34, 0
3, 56404, Note_on_c, 1, 35, 48
3, 56638, Note_on_c, 1, 35, 0
3, 56643, Note_on_c, 1, 36, 50
3, 56835, Note_on_c, 1, 35, 33
3, 56862, Note_on_c, 1, 35, 0
3, 56877, Note_on_c, 1, 36, 0
3, 56900, Note_on_c, 1, 50, 55
3, 57119, Note_on_c, 1, 50, 0
3, 57124, Note_on_c, 1, 48, 54
3, 57370, Note_on_c, 1, 40, 57
3, 57397, Note_on_c, 1, 48, 0
3, 57607, Note_on_c, 1, 40, 0
3, 57614, Note_on_c, 1, 41, 45
3, 57818, Note_on_c, 1, 41, 0
3, 57840, Note_on_c, 1, 41, 41
3, 58092, Note_on_c, 1, 41, 0
3, 58098, Note_on_c, 1, 33, 36
3, 58466, Note_on_c, 1, 33, 0
3, 58472, Note_on_c, 1, 41, 54
3, 58497, Note_on_c, 1, 41, 0
3, 58546, Note_on_c, 1, 34, 56
3, 58785, Note_on_c, 1, 41, 49
3, 58792, Note_on_c, 1, 34, 0
3, 59003, Note_on_c, 1, 41, 0
3, 59036, Note_on_c, 1, 35, 44
3, 59239, Note_on_c, 1, 35, 0
3, 59276, Note_on_c, 1, 35, 58
3, 59514, Note_on_c, 1, 35, 0
3, 59517, Note_on_c, 1, 36, 51
3, 59762, Note_on_c, 1, 45, 64
3, 59793, Note_on_c, 1, 36, 0
3, 60164, Note_on_c, 1, 35, 36
3, 60189, Note_on_c, 1, 35, 0
3, 60217, Note_on_c, 1, 45, 0
3, 60245, Note_on_c, 1, 43, 36
3, 60653, Note_on_c, 1, 35, 22
3, 60670, Note_on_c, 1, 35, 0
3, 60687, Note_on_c, 1, 43, 0
3, 60714, Note_on_c, 1, 41, 40
3, 60954, Note_on_c, 1, 41, 0
3, 60955, Note_on_c, 1, 35, 43
3, 61203, Note_on_c, 1, 35, 0
3, 61203, Note_on_c, 1, 36, 51
3, 61368, Note_on_c, 1, 36, 0
3, 61378, Note_on_c, 1, 35, 34
3, 61414, Note_on_c, 1, 35, 0
3, 61443, Note_on_c, 1, 41, 35
3, 61634, Note_on_c, 1, 41, 0
3, 61676, Note_on_c, 1, 41, 56
3, 61909, Note_on_c, 1, 41, 0
3, 61931, Note_on_c, 1, 51, 47
3, 62147, Note_on_c, 1, 51, 0
3, 62172, Note_on_c, 1, 49, 51
3, 62401, Note_on_c, 1, 49, 0
3, 62420, Note_on_c, 1, 50, 52
3, 62610, Note_on_c, 1, 50, 0
3, 62637, Note_on_c, 1, 37, 44
3, 62882, Note_on_c, 1, 37, 0
3, 62883, Note_on_c, 1, 38, 50
3, 63054, Note_on_c, 1, 37, 47
3, 63072, Note_on_c, 1, 38, 0
3, 63096, Note_on_c, 1, 37, 0
3, 63127, Note_on_c, 1, 45, 78
3, 63353, Note_on_c, 1, 45, 0
3, 63370, Note_on_c, 1, 43, 44
3, 63518, Note_on_c, 1, 43, 0
3, 63529, Note_on_c, 1, 38, 57
3, 63579, Note_on_c, 1, 38, 0
3, 63605, Note_on_c, 1, 34, 52
3, 63821, Note_on_c, 1, 34, 0
3, 63833, Note_on_c, 1, 35, 68
3, 64044, Note_on_c, 1, 35, 0
3, 64073, Note_on_c, 1, 35, 66
3, 64317, Note_on_c, 1, 35, 0
3, 64317, Note_on_c, 1, 36, 64
3, 64504, Note_on_c, 1, 35, 35
3, 64537, Note_on_c, 1, 35, 0
3, 64571, Note_on_c, 1, 36, 0
3, 64575, Note_on_c, 1, 40, 39
3, 64779, Note_on_c, 1, 40, 0
3, 64811, Note_on_c, 1, 43, 48
3, 65024, Note_on_c, 1, 43, 0
3, 65053, Note_on_c, 1, 41, 61
3, 65238, Note_on_c, 1, 41, 0
3, 65289, Note_on_c, 1, 41, 51
3, 65480, Note_on_c, 1, 41, 0
3, 65513, Note_on_c, 1, 41, 50
3, 65724, Note_on_c, 1, 41, 0
3, 65748, Note_on_c, 1, 33, 43
3, 65960, Note_on_c, 1, 33, 0
3, 65993, Note_on_c, 1, 33, 68
3, 66239, Note_on_c, 1, 34, 55
3, 66315, Note_on_c, 1, 33, 0
3, 66479, Note_on_c, 1, 34, 0
3, 66479, Note_on_c, 1, 50, 69
3, 66694, Note_on_c, 1, 50, 0
3, 66733, Note_on_c, 1, 47, 32
3, 66954, Note_on_c, 1, 47, 0
3, 66956, Note_on_c, 1, 44, 52
3, 67200, Note_on_c, 1, 48, 44
3, 67204, Note_on_c, 1, 44, 0
3, 67406, Note_on_c, 1, 48, 0
3, 67447, Note_on_c, 1, 45, 48
3, 67668, Note_on_c, 1, 45, 0
3, 67677, Note_on_c, 1, 36, 54
3, 67903, Note_on_c, 1, 36, 0
3, 67906, Note_on_c, 1, 38, 49
3, 68138, Note_on_c, 1, 38, 0
3, 68161, Note_on_c, 1, 40, 50
3, 68378, Note_on_c, 1, 40, 0
3, 68400, Note_on_c, 1, 41, 46
3, 68637, Note_on_c, 1, 41, 0
3, 68642, Note_on_c, 1, 36, 51
3, 68861, Note_on_c, 1, 36, 0
3, 68872, Note_on_c, 1, 35, 48
3, 69122, Note_on_c, 1, 35, 0
3, 69129, Note_on_c, 1, 36, 55
3, 69356, Note_on_c, 1, 41, 50
3, 69368, Note_on_c, 1, 36, 0
3, 69570, Note_on_c, 1, 41, 0
3, 69600, Note_on_c, 1, 39, 45
3, 69810, Note_on_c, 1, 39, 0
3, 69837, Note_on_c, 1, 37, 47
3, 70056, Note_on_c, 1, 37, 0
3, 70073, Note_on_c, 1, 38, 61
3, 70304, Note_on_c, 1, 38, 0
3, 70316, Note_on_c, 1, 51, 62
3, 70544, Note_on_c, 1, 51, 0
3, 70563, Note_on_c, 1, 50, 58
3, 70790, Note_on_c, 1, 50, 0
3, 70809, Note_on_c, 1, 44, 47
3, 71023, Note_on_c, 1, 44, 0
3, 71043, Note_on_c, 1, 43, 48
3, 71283, Note_on_c, 1, 43, 0
3, 71283, Note_on_c, 1, 32, 53
3, 71508, Note_on_c, 1, 32, 0
3, 71521, Note_on_c, 1, 31, 55
3, 71753, Note_on_c, 1, 31, 0
3, 71758, Note_on_c, 1, 35, 55
3, 72001, Note_on_c, 1, 35, 0
3, 72006, Note_on_c, 1, 36, 59
3, 72237, Note_on_c, 1, 36, 0
3, 72244, Note_on_c, 1, 38, 57
3, 72455, Note_on_c, 1, 38, 0
3, 72483, Note_on_c, 1, 39, 49
3, 72724, Note_on_c, 1, 43, 61
3, 72725, Note_on_c, 1, 39, 0
3, 72940, Note_on_c, 1, 43, 0
3, 72972, Note_on_c, 1, 41, 43
3, 73203, Note_on_c, 1, 36, 50
3, 73210, Note_on_c, 1, 41, 0
3, 73439, Note_on_c, 1, 36, 0
3, 73445, Note_on_c, 1, 33, 48
3, 73685, Note_on_c, 1, 41, 60
3, 73718, Note_on_c, 1, 33, 0
3, 73905, Note_on_c, 1, 41, 0
3, 73935, Note_on_c, 1, 38, 38
3, 74159, Note_on_c, 1, 38, 0
3, 74168, Note_on_c, 1, 34, 69
3, 74412, Note_on_c, 1, 41, 57
3, 74472, Note_on_c, 1, 34, 0
3, 74646, Note_on_c, 1, 41, 0
3, 74658, Note_on_c, 1, 38, 67
3, 74870, Note_on_c, 1, 38, 0
3, 74892, Note_on_c, 1, 36, 72
3, 75012, Note_on_c, 1, 36, 0
3, 75128, Note_on_c, 1, 36, 62
3, 75323, Note_on_c, 1, 36, 0
3, 75366, Note_on_c, 1, 36, 62
3, 75598, Note_on_c, 1, 36, 0
3, 75607, Note_on_c, 1, 35, 44
3, 75828, Note_on_c, 1, 35, 0
3, 75839, Note_on_c, 1, 36, 47
3, 76047, Note_on_c, 1, 36, 0
3, 76085, Note_on_c, 1, 40, 55
3, 76308, Note_on_c, 1, 40, 0
3, 76322, Note_on_c, 1, 43, 58
3, 76523, Note_on_c, 1, 43, 0
3, 76559, Note_on_c, 1, 42, 67
3, 76794, Note_on_c, 1, 42, 0
3, 76821, Note_on_c, 1, 41, 57
3, 76864, Note_on_c, 1, 41, 0
3, 76903, Note_on_c, 1, 36, 66
3, 76972, Note_on_c, 1, 36, 0
3, 76978, Note_on_c, 1, 32, 56
3, 77012, Note_on_c, 1, 32, 0
3, 77046, Note_on_c, 1, 32, 26
3, 77059, Note_on_c, 1, 33, 73
3, 77063, Note_on_c, 1, 32, 0
3, 77278, Note_on_c, 1, 33, 0
3, 77283, Note_on_c, 1, 34, 67
3, 77525, Note_on_c, 1, 34, 0
3, 77525, Note_on_c, 1, 35, 71
3, 77762, Note_on_c, 1, 36, 61
3, 77764, Note_on_c, 1, 35, 0
3, 77949, Note_on_c, 1, 35, 47
3, 77971, Note_on_c, 1, 36, 0
3, 77986, Note_on_c, 1, 35, 0
3, 78004, Note_on_c, 1, 43, 72
3, 78253, Note_on_c, 1, 43, 0
3, 78254, Note_on_c, 1, 41, 60
3, 78431, Note_on_c, 1, 34, 45
3, 78457, Note_on_c, 1, 34, 0
3, 78474, Note_on_c, 1, 41, 0
3, 78495, Note_on_c, 1, 48, 68
3, 78726, Note_on_c, 1, 46, 54
3, 78729, Note_on_c, 1, 48, 0
3, 78944, Note_on_c, 1, 46, 0
3, 78959, Note_on_c, 1, 41, 39
3, 79208, Note_on_c, 1, 38, 48
3, 79256, Note_on_c, 1, 41, 0
3, 79442, Note_on_c, 1, 34, 49
3, 79454, Note_on_c, 1, 38, 0
3, 79896, Note_on_c, 1, 34, 0
3, 79920, Note_on_c, 1, 38, 64
3, 80146, Note_on_c, 1, 38, 0
3, 80169, Note_on_c, 1, 35, 46
3, 80397, Note_on_c, 1, 35, 0
3, 80398, Note_on_c, 1, 38, 53
3, 80620, Note_on_c, 1, 38, 0
3, 80646, Note_on_c, 1, 36, 52
3, 80875, Note_on_c, 1, 36, 0
3, 80887, Note_on_c, 1, 50, 76
3, 81109, Note_on_c, 1, 50, 0
3, 81139, Note_on_c, 1, 48, 58
3, 81349, Note_on_c, 1, 48, 0
3, 81366, Note_on_c, 1, 45, 59
3, 81592, Note_on_c, 1, 45, 0
3, 81613, Note_on_c, 1, 41, 56
3, 81831, Note_on_c, 1, 41, 0
3, 81839, Note_on_c, 1, 37, 53
3, 82076, Note_on_c, 1, 38, 58
3, 82083, Note_on_c, 1, 37, 0
3, 82264, Note_on_c, 1, 37, 37
3, 82285, Note_on_c, 1, 38, 0
3, 82324, Note_on_c, 1, 45, 67
3, 82334, Note_on_c, 1, 37, 0
3, 82541, Note_on_c, 1, 45, 0
3, 82567, Note_on_c, 1, 44, 38
3, 82801, Note_on_c, 1, 32, 64
3, 82837, Note_on_c, 1, 44, 0
3, 83260, Note_on_c, 1, 32, 0
3, 83287, Note_on_c, 1, 31, 64
3, 83717, Note_on_c, 1, 31, 0
3, 83768, Note_on_c, 1, 36, 75
3, 83994, Note_on_c, 1, 50, 81
3, 84007, Note_on_c, 1, 36, 0
3, 84177, Note_on_c, 1, 36, 18
3, 84198, Note_on_c, 1, 36, 0
3, 84210, Note_on_c, 1, 50, 0
3, 84244, Note_on_c, 1, 48, 62
3, 84437, Note_on_c, 1, 36, 34
3, 84451, Note_on_c, 1, 48, 0
3, 84461, Note_on_c, 1, 36, 0
3, 84485, Note_on_c, 1, 41, 47
3, 84895, Note_on_c, 1, 37, 32
3, 84919, Note_on_c, 1, 41, 0
3, 84956, Note_on_c, 1, 37, 0
3, 84966, Note_on_c, 1, 39, 54
3, 85383, Note_on_c, 1, 37, 36
3, 85439, Note_on_c, 1, 39, 0
3, 85445, Note_on_c, 1, 37, 0
3, 85454, Note_on_c, 1, 38, 36
3, 85626, Note_on_c, 1, 37, 48
3, 85641, Note_on_c, 1, 38, 0
3, 85684, Note_on_c, 1, 37, 0
3, 85686, Note_on_c, 1, 51, 76
3, 85913, Note_on_c, 1, 51, 0
3, 85929, Note_on_c, 1, 50, 62
3, 85987, Note_on_c, 1, 50, 0
3, 86098, Note_on_c, 1, 45, 64
3, 86140, Note_on_c, 1, 45, 0
3, 86177, Note_on_c, 1, 44, 49
3, 86382, Note_on_c, 1, 44, 0
3, 86400, Note_on_c, 1, 43, 48
3, 86820, Note_on_c, 1, 38, 50
3, 86832, Note_on_c, 1, 43, 0
3, 86876, Note_on_c, 1, 38, 0
3, 86888, Note_on_c, 1, 35, 51
3, 87213, Note_on_c, 1, 35, 0
3, 87233, Note_on_c, 1, 38, 68
3, 87287, Note_on_c, 1, 38, 0
3, 87304, Note_on_c, 1, 37, 20
3, 87328, Note_on_c, 1, 37, 0
3, 87374, Note_on_c, 1, 36, 72
3, 87770, Note_on_c, 1, 50, 71
3, 87783, Note_on_c, 1, 36, 0
3, 87811, Note_on_c, 1, 50, 0
3, 87857, Note_on_c, 1, 48, 50
3, 87880, Note_on_c, 1, 48, 0
3, 88008, Note_on_c, 1, 45, 53
3, 88027, Note_on_c, 1, 45, 0
3, 88089, Note_on_c, 1, 40, 60
3, 88286, Note_on_c, 1, 40, 0
3, 88319, Note_on_c, 1, 41, 62
3, 88624, Note_on_c, 1, 41, 0
3, 88651, Note_on_c, 1, 36, 55
3, 88718, Note_on_c, 1, 34, 51
3, 88722, Note_on_c, 1, 36, 0
3, 88756, Note_on_c, 1, 34, 0
3, 88801, Note_on_c, 1, 33, 59
3, 89129, Note_on_c, 1, 41, 68
3, 89153, Note_on_c, 1, 33, 0
3, 89175, Note_on_c, 1, 41, 0
3, 89277, Note_on_c, 1, 34, 71
3, 89527, Note_on_c, 1, 41, 56
3, 89555, Note_on_c, 1, 34, 0
3, 89570, Note_on_c, 1, 41, 0
3, 89597, Note_on_c, 1, 38, 34
3, 89618, Note_on_c, 1, 38, 0
3, 89676, Note_on_c, 1, 35, 78
3, 89877, Note_on_c, 1, 41, 66
3, 89903, Note_on_c, 1, 35, 0
3, 89941, Note_on_c, 1, 41, 0
3, 89957, Note_on_c, 1, 38, 37
3, 89976, Note_on_c, 1, 38, 0
3, 90026, Note_on_c, 1, 35, 63
3, 90223, Note_on_c, 1, 35, 0
3, 90251, Note_on_c, 1, 36, 59
3, 90453, Note_on_c, 1, 35, 31
3, 90477, Note_on_c, 1, 35, 0
3, 90481, Note_on_c, 1, 36, 0
3, 90495, Note_on_c, 1, 50, 72
3, 90689, Note_on_c, 1, 50, 0
3, 90730, Note_on_c, 1, 48, 55
3, 90819, Note_on_c, 1, 48, 0
3, 90891, Note_on_c, 1, 35, 36
3, 90915, Note_on_c, 1, 35, 0
3, 90966, Note_on_c, 1, 40, 43
3, 91170, Note_on_c, 1, 40, 0
3, 91208, Note_on_c, 1, 41, 43
3, 91630, Note_on_c, 1, 41, 0
3, 91696, Note_on_c, 1, 38, 57
3, 92106, Note_on_c, 1, 34, 20
3, 92142, Note_on_c, 1, 38, 0
3, 92149, Note_on_c, 1, 34, 0
3, 92183, Note_on_c, 1, 31, 42
3, 92601, Note_on_c, 1, 31, 0
3, 92605, Note_on_c, 1, 35, 39
3, 92647, Note_on_c, 1, 35, 0
3, 92658, Note_on_c, 1, 36, 53
3, 93067, Note_on_c, 1, 34, 31
3, 93081, Note_on_c, 1, 36, 0
3, 93107, Note_on_c, 1, 34, 0
3, 93125, Note_on_c, 1, 33, 49
3, 93528, Note_on_c, 1, 32, 39
3, 93553, Note_on_c, 1, 33, 0
3, 93598, Note_on_c, 1, 32, 0
3, 93601, Note_on_c, 1, 38, 40
3, 94171, Note_on_c, 1, 38, 0
3, 94247, Note_on_c, 1, 48, 71
3, 94275, Note_on_c, 1, 48, 0
3, 94502, Note_on_c, 1, 34, 29
3, 94519, Note_on_c, 1, 34, 0
3, 94568, Note_on_c, 1, 48, 80
3, 94706, Note_on_c, 1, 48, 0
3, 94798, Note_on_c, 1, 36, 72
3, 94917, Note_on_c, 1, 36, 0
3, 95025, Note_on_c, 1, 41, 74
3, 95425, Note_on_c, 1, 29, 57
3, 95432, Note_on_c, 1, 41, 0
3, 96620, Note_on_c, 1, 29, 0
3, 96620, End_track
4, 0, Start_track
4, 0, Title_t, "Fretless Bass"
4, 0, Program_c, 2, 35
4, 0, Control_c, 2, 7, 60
4, 15, Note_on_c, 2, 53, 70
4, 416, Note_on_c, 2, 53, 0
4, 475, Note_on_c, 2, 45, 51
4, 961, Note_on_c, 2, 45, 0
4, 977, Note_on_c, 2, 50, 43
4, 1596, Note_on_c, 2, 43, 40
4, 1645, Note_on_c, 2, 43, 0
4, 1673, Note_on_c, 2, 50, 0
4, 1675, Note_on_c, 2, 38, 53
4, 1911, Note_on_c, 2, 38, 0
4, 1928, Note_on_c, 2, 43, 38
4, 2327, Note_on_c, 2, 42, 39
4, 2364, Note_on_c, 2, 43, 0
4, 2391, Note_on_c, 2, 42, 0
4, 2409, Note_on_c, 2, 50, 59
4, 2469, Note_on_c, 2, 50, 0
4, 2576, Note_on_c, 2, 42, 33
4, 2593, Note_on_c, 2, 42, 0
4, 2643, Note_on_c, 2, 49, 59
4, 2832, Note_on_c, 2, 49, 0
4, 2876, Note_on_c, 2, 48, 45
4, 2998, Note_on_c, 2, 48, 0
4, 3040, Note_on_c, 2, 43, 32
4, 3088, Note_on_c, 2, 43, 0
4, 3127, Note_on_c, 2, 40, 57
4, 3444, Note_on_c, 2, 40, 0
4, 3508, Note_on_c, 2, 39, 56
4, 3559, Note_on_c, 2, 39, 0
4, 3591, Note_on_c, 2, 40, 54
4, 3812, Note_on_c, 2, 40, 0
4, 3839, Note_on_c, 2, 41, 52
4, 4561, Note_on_c, 2, 45, 69
4, 4599, Note_on_c, 2, 41, 0
4, 4617, Note_on_c, 2, 45, 0
4, 4763, Note_on_c, 2, 41, 28
4, 4789, Note_on_c, 2, 41, 0
4, 4857, Note_on_c, 2, 46, 59
4, 5196, Note_on_c, 2, 41, 43
4, 5215, Note_on_c, 2, 41, 0
4, 5264, Note_on_c, 2, 46, 0
4, 5277, Note_on_c, 2, 47, 59
4, 5525, Note_on_c, 2, 43, 25
4, 5547, Note_on_c, 2, 43, 0
4, 5648, Note_on_c, 2, 47, 0
4, 5701, Note_on_c, 2, 50, 66
4, 5749, Note_on_c, 2, 50, 0
4, 5779, Note_on_c, 2, 48, 60
4, 5796, Note_on_c, 2, 48, 0
4, 5925, Note_on_c, 2, 43, 55
4, 5952, Note_on_c, 2, 43, 0
4, 6010, Note_on_c, 2, 36, 72
4, 6417, Note_on_c, 2, 43, 49
4, 6438, Note_on_c, 2, 43, 0
4, 6489, Note_on_c, 2, 57, 75
4, 6494, Note_on_c, 2, 36, 0
4, 6900, Note_on_c, 2, 43, 45
4, 6918, Note_on_c, 2, 43, 0
4, 6937, Note_on_c, 2, 57, 0
4, 6966, Note_on_c, 2, 55, 68
4, 7179, Note_on_c, 2, 55, 0
4, 7208, Note_on_c, 2, 53, 48
4, 7387, Note_on_c, 2, 48, 31
4, 7404, Note_on_c, 2, 48, 0
4, 7411, Note_on_c, 2, 53, 0
4, 7437, Note_on_c, 2, 52, 53
4, 7671, Note_on_c, 2, 52, 0
4, 7690, Note_on_c, 2, 53, 48
4, 7905, Note_on_c, 2, 53, 0
4, 7933, Note_on_c, 2, 51, 69
4, 8378, Note_on_c, 2, 51, 0
4, 8391, Note_on_c, 2, 39, 40
4, 8629, Note_on_c, 2, 39, 0
4, 8631, Note_on_c, 2, 38, 51
4, 9310, Note_on_c, 2, 39, 28
4, 9352, Note_on_c, 2, 39, 0
4, 9354, Note_on_c, 2, 38, 0
4, 9365, Note_on_c, 2, 57, 66
4, 9517, Note_on_c, 2, 57, 0
4, 9529, Note_on_c, 2, 54, 51
4, 9571, Note_on_c, 2, 54, 0
4, 9612, Note_on_c, 2, 55, 55
4, 9739, Note_on_c, 2, 55, 0
4, 9763, Note_on_c, 2, 50, 68
4, 9796, Note_on_c, 2, 50, 0
4, 9852, Note_on_c, 2, 43, 60
4, 10296, Note_on_c, 2, 43, 0
4, 10332, Note_on_c, 2, 38, 66
4, 10545, Note_on_c, 2, 38, 0
4, 10554, Note_on_c, 2, 36, 57
4, 10728, Note_on_c, 2, 40, 45
4, 10770, Note_on_c, 2, 40, 0
4, 10782, Note_on_c, 2, 36, 0
4, 10792, Note_on_c, 2, 50, 85
4, 11017, Note_on_c, 2, 50, 0
4, 11039, Note_on_c, 2, 48, 47
4, 11187, Note_on_c, 2, 48, 0
4, 11206, Note_on_c, 2, 39, 49
4, 11255, Note_on_c, 2, 39, 0
4, 11283, Note_on_c, 2, 40, 48
4, 11515, Note_on_c, 2, 40, 0
4, 11537, Note_on_c, 2, 41, 54
4, 11951, Note_on_c, 2, 36, 45
4, 11986, Note_on_c, 2, 41, 0
4, 11996, Note_on_c, 2, 36, 0
4, 12018, Note_on_c, 2, 33, 65
4, 12487, Note_on_c, 2, 33, 0
4, 12494, Note_on_c, 2, 34, 57
4, 12945, Note_on_c, 2, 34, 0
4, 12953, Note_on_c, 2, 35, 62
4, 13401, Note_on_c, 2, 34, 31
4, 13440, Note_on_c, 2, 35, 0
4, 13445, Note_on_c, 2, 34, 0
4, 13447, Note_on_c, 2, 36, 64
4, 13881, Note_on_c, 2, 34, 29
4, 13924, Note_on_c, 2, 36, 0
4, 13930, Note_on_c, 2, 48, 72
4, 13954, Note_on_c, 2, 34, 0
4, 14345, Note_on_c, 2, 34, 36
4, 14387, Note_on_c, 2, 48, 0
4, 14388, Note_on_c, 2, 34, 0
4, 14415, Note_on_c, 2, 36, 64
4, 14820, Note_on_c, 2, 34, 34
4, 14845, Note_on_c, 2, 36, 0
4, 14869, Note_on_c, 2, 34, 0
4, 14877, Note_on_c, 2, 50, 81
4, 14913, Note_on_c, 2, 50, 0
4, 15044, Note_on_c, 2, 48, 78
4, 15060, Note_on_c, 2, 48, 0
4, 15119, Note_on_c, 2, 40, 55
4, 15348, Note_on_c, 2, 40, 0
4, 15360, Note_on_c, 2, 41, 54
4, 15768, Note_on_c, 2, 55, 64
4, 15809, Note_on_c, 2, 55, 0
4, 15822, Note_on_c, 2, 41, 0
4, 15852, Note_on_c, 2, 54, 52
4, 15908, Note_on_c, 2, 54, 0
4, 16097, Note_on_c, 2, 53, 54
4, 16305, Note_on_c, 2, 53, 0
4, 16344, Note_on_c, 2, 52, 52
4, 16502, Note_on_c, 2, 41, 29
4, 16525, Note_on_c, 2, 52, 0
4, 16526, Note_on_c, 2, 41, 0
4, 16557, Note_on_c, 2, 51, 49
4, 16717, Note_on_c, 2, 41, 30
4, 16744, Note_on_c, 2, 41, 0
4, 16776, Note_on_c, 2, 51, 0
4, 16793, Note_on_c, 2, 48, 56
4, 16956, Note_on_c, 2, 48, 0
4, 16960, Note_on_c, 2, 41, 57
4, 17010, Note_on_c, 2, 41, 0
4, 17039, Note_on_c, 2, 45, 57
4, 17254, Note_on_c, 2, 41, 28
4, 17256, Note_on_c, 2, 45, 0
4, 17282, Note_on_c, 2, 41, 0
4, 17285, Note_on_c, 2, 46, 46
4, 17757, Note_on_c, 2, 46, 0
4, 17766, Note_on_c, 2, 41, 51
4, 18227, Note_on_c, 2, 41, 0
4, 18245, Note_on_c, 2, 34, 46
4, 18724, Note_on_c, 2, 34, 0
4, 18726, Note_on_c, 2, 35, 55
4, 19144, Note_on_c, 2, 34, 34
4, 19193, Note_on_c, 2, 35, 0
4, 19196, Note_on_c, 2, 36, 66
4, 19199, Note_on_c, 2, 34, 0
4, 19870, Note_on_c, 2, 34, 42
4, 19892, Note_on_c, 2, 36, 0
4, 19933, Note_on_c, 2, 37, 68
4, 19934, Note_on_c, 2, 34, 0
4, 20338, Note_on_c, 2, 34, 37
4, 20387, Note_on_c, 2, 37, 0
4, 20393, Note_on_c, 2, 34, 0
4, 20399, Note_on_c, 2, 38, 69
4, 20827, Note_on_c, 2, 37, 37
4, 20836, Note_on_c, 2, 38, 0
4, 20856, Note_on_c, 2, 37, 0
4, 20877, Note_on_c, 2, 44, 64
4, 21091, Note_on_c, 2, 44, 0
4, 21136, Note_on_c, 2, 43, 20
4, 21187, Note_on_c, 2, 43, 0
4, 21280, Note_on_c, 2, 38, 53
4, 21326, Note_on_c, 2, 38, 0
4, 21354, Note_on_c, 2, 32, 56
4, 21584, Note_on_c, 2, 32, 0
4, 21591, Note_on_c, 2, 31, 62
4, 21836, Note_on_c, 2, 31, 0
4, 21849, Note_on_c, 2, 35, 63
4, 22073, Note_on_c, 2, 35, 0
4, 22083, Note_on_c, 2, 36, 55
4, 22248, Note_on_c, 2, 50, 80
4, 22267, Note_on_c, 2, 36, 0
4, 22324, Note_on_c, 2, 50, 0
4, 22349, Note_on_c, 2, 49, 50
4, 22489, Note_on_c, 2, 35, 33
4, 22523, Note_on_c, 2, 35, 0
4, 22528, Note_on_c, 2, 49, 0
4, 22556, Note_on_c, 2, 48, 57
4, 23037, Note_on_c, 2, 48, 0
4, 23040, Note_on_c, 2, 41, 69
4, 23472, Note_on_c, 2, 39, 21
4, 23524, Note_on_c, 2, 41, 0
4, 23528, Note_on_c, 2, 51, 67
4, 23548, Note_on_c, 2, 39, 0
4, 23993, Note_on_c, 2, 51, 0
4, 24009, Note_on_c, 2, 50, 58
4, 24250, Note_on_c, 2, 38, 62
4, 24265, Note_on_c, 2, 50, 0
4, 24501, Note_on_c, 2, 54, 56
4, 24905, Note_on_c, 2, 54, 0
4, 24951, Note_on_c, 2, 38, 0
4, 24963, Note_on_c, 2, 43, 66
4, 25442, Note_on_c, 2, 43, 0
4, 25454, Note_on_c, 2, 38, 43
4, 25843, Note_on_c, 2, 34, 45
4, 25860, Note_on_c, 2, 38, 0
4, 25896, Note_on_c, 2, 34, 0
4, 25920, Note_on_c, 2, 36, 47
4, 26295, Note_on_c, 2, 36, 0
4, 26339, Note_on_c, 2, 34, 40
4, 26391, Note_on_c, 2, 34, 0
4, 26407, Note_on_c, 2, 38, 62
4, 26433, Note_on_c, 2, 38, 0
4, 26569, Note_on_c, 2, 39, 62
4, 26601, Note_on_c, 2, 39, 0
4, 26617, Note_on_c, 2, 40, 24
4, 26859, Note_on_c, 2, 40, 0
4, 26876, Note_on_c, 2, 41, 49
4, 27205, Note_on_c, 2, 41, 0
4, 27207, Note_on_c, 2, 36, 56
4, 27244, Note_on_c, 2, 36, 0
4, 27280, Note_on_c, 2, 32, 67
4, 27319, Note_on_c, 2, 32, 0
4, 27365, Note_on_c, 2, 33, 46
4, 27574, Note_on_c, 2, 33, 0
4, 27607, Note_on_c, 2, 41, 42
4, 27641, Note_on_c, 2, 41, 0
4, 27673, Note_on_c, 2, 36, 39
4, 27704, Note_on_c, 2, 36, 0
4, 27754, Note_on_c, 2, 34, 75
4, 27952, Note_on_c, 2, 34, 0
4, 27971, Note_on_c, 2, 43, 58
4, 27988, Note_on_c, 2, 43, 0
4, 28028, Note_on_c, 2, 38, 47
4, 28073, Note_on_c, 2, 38, 0
4, 28118, Note_on_c, 2, 35, 80
4, 28505, Note_on_c, 2, 35, 0
4, 28508, Note_on_c, 2, 41, 68
4, 28564, Note_on_c, 2, 41, 0
4, 28572, Note_on_c, 2, 38, 67
4, 28753, Note_on_c, 2, 38, 0
4, 28766, Note_on_c, 2, 35, 55
4, 28783, Note_on_c, 2, 35, 0
4, 28813, Note_on_c, 2, 36, 73
4, 29196, Note_on_c, 2, 34, 39
4, 29216, Note_on_c, 2, 50, 70
4, 29249, Note_on_c, 2, 36, 0
4, 29259, Note_on_c, 2, 34, 0
4, 29264, Note_on_c, 2, 50, 0
4, 29304, Note_on_c, 2, 48, 54
4, 29919, Note_on_c, 2, 43, 53
4, 29946, Note_on_c, 2, 43, 0
4, 29951, Note_on_c, 2, 48, 0
4, 29990, Note_on_c, 2, 36, 66
4, 30400, Note_on_c, 2, 39, 57
4, 30404, Note_on_c, 2, 36, 0
4, 30445, Note_on_c, 2, 39, 0
4, 30474, Note_on_c, 2, 40, 49
4, 30708, Note_on_c, 2, 40, 0
4, 30714, Note_on_c, 2, 41, 52
4, 30890, Note_on_c, 2, 39, 39
4, 30938, Note_on_c, 2, 41, 0
4, 30957, Note_on_c, 2, 50, 53
4, 30969, Note_on_c, 2, 39, 0
4, 31143, Note_on_c, 2, 41, 22
4, 31160, Note_on_c, 2, 41, 0
4, 31163, Note_on_c, 2, 50, 0
4, 31184, Note_on_c, 2, 51, 56
4, 31383, Note_on_c, 2, 39, 32
4, 31404, Note_on_c, 2, 39, 0
4, 31433, Note_on_c, 2, 51, 0
4, 31492, Note_on_c, 2, 49, 50
4, 31618, Note_on_c, 2, 39, 29
4, 31643, Note_on_c, 2, 39, 0
4, 31675, Note_on_c, 2, 49, 0
4, 31698, Note_on_c, 2, 50, 49
4, 31905, Note_on_c, 2, 50, 0
4, 31920, Note_on_c, 2, 45, 42
4, 32157, Note_on_c, 2, 45, 0
4, 32164, Note_on_c, 2, 38, 44
4, 32395, Note_on_c, 2, 42, 48
4, 32406, Note_on_c, 2, 38, 0
4, 32617, Note_on_c, 2, 42, 0
4, 32639, Note_on_c, 2, 43, 45
4, 32840, Note_on_c, 2, 43, 0
4, 32871, Note_on_c, 2, 34, 46
4, 33113, Note_on_c, 2, 34, 0
4, 33123, Note_on_c, 2, 38, 30
4, 33339, Note_on_c, 2, 38, 0
4, 33345, Note_on_c, 2, 35, 47
4, 33581, Note_on_c, 2, 35, 0
4, 33596, Note_on_c, 2, 36, 46
4, 33796, Note_on_c, 2, 35, 24
4, 33809, Note_on_c, 2, 36, 0
4, 33816, Note_on_c, 2, 35, 0
4, 33839, Note_on_c, 2, 38, 44
4, 34072, Note_on_c, 2, 38, 0
4, 34077, Note_on_c, 2, 39, 49
4, 34308, Note_on_c, 2, 39, 0
4, 34326, Note_on_c, 2, 40, 41
4, 34554, Note_on_c, 2, 40, 0
4, 34560, Note_on_c, 2, 41, 62
4, 34772, Note_on_c, 2, 41, 0
4, 34792, Note_on_c, 2, 50, 62
4, 35014, Note_on_c, 2, 50, 0
4, 35052, Note_on_c, 2, 48, 48
4, 35274, Note_on_c, 2, 48, 0
4, 35290, Note_on_c, 2, 45, 35
4, 35506, Note_on_c, 2, 45, 0
4, 35527, Note_on_c, 2, 46, 38
4, 35764, Note_on_c, 2, 46, 0
4, 35767, Note_on_c, 2, 41, 44
4, 35990, Note_on_c, 2, 41, 0
4, 36008, Note_on_c, 2, 49, 42
4, 36233, Note_on_c, 2, 46, 42
4, 36239, Note_on_c, 2, 49, 0
4, 36473, Note_on_c, 2, 46, 0
4, 36479, Note_on_c, 2, 48, 45
4, 36697, Note_on_c, 2, 48, 0
4, 36714, Note_on_c, 2, 45, 41
4, 36951, Note_on_c, 2, 45, 0
4, 36969, Note_on_c, 2, 36, 40
4, 37205, Note_on_c, 2, 50, 43
4, 37219, Note_on_c, 2, 36, 0
4, 37426, Note_on_c, 2, 50, 0
4, 37447, Note_on_c, 2, 48, 40
4, 37683, Note_on_c, 2, 36, 55
4, 37692, Note_on_c, 2, 48, 0
4, 37895, Note_on_c, 2, 36, 0
4, 37928, Note_on_c, 2, 36, 60
4, 38153, Note_on_c, 2, 40, 44
4, 38162, Note_on_c, 2, 36, 0
4, 38360, Note_on_c, 2, 40, 0
4, 38393, Note_on_c, 2, 41, 39
4, 38579, Note_on_c, 2, 41, 0
4, 38633, Note_on_c, 2, 41, 45
4, 38862, Note_on_c, 2, 41, 0
4, 38877, Note_on_c, 2, 39, 42
4, 39086, Note_on_c, 2, 39, 0
4, 39122, Note_on_c, 2, 39, 47
4, 39362, Note_on_c, 2, 39, 0
4, 39367, Note_on_c, 2, 38, 48
4, 39548, Note_on_c, 2, 37, 32
4, 39587, Note_on_c, 2, 38, 0
4, 39605, Note_on_c, 2, 37, 0
4, 39607, Note_on_c, 2, 51, 65
4, 39824, Note_on_c, 2, 51, 0
4, 39851, Note_on_c, 2, 50, 53
4, 40067, Note_on_c, 2, 50, 0
4, 40078, Note_on_c, 2, 42, 48
4, 40320, Note_on_c, 2, 42, 0
4, 40333, Note_on_c, 2, 43, 48
4, 40560, Note_on_c, 2, 43, 0
4, 40568, Note_on_c, 2, 38, 51
4, 40784, Note_on_c, 2, 38, 0
4, 40812, Note_on_c, 2, 34, 39
4, 41038, Note_on_c, 2, 34, 0
4, 41043, Note_on_c, 2, 35, 55
4, 41283, Note_on_c, 2, 35, 0
4, 41294, Note_on_c, 2, 36, 48
4, 41483, Note_on_c, 2, 35, 24
4, 41506, Note_on_c, 2, 35, 0
4, 41516, Note_on_c, 2, 36, 0
4, 41526, Note_on_c, 2, 50, 64
4, 41766, Note_on_c, 2, 50, 0
4, 41768, Note_on_c, 2, 48, 51
4, 41995, Note_on_c, 2, 48, 0
4, 42008, Note_on_c, 2, 40, 47
4, 42236, Note_on_c, 2, 40, 0
4, 42250, Note_on_c, 2, 41, 80
4, 42475, Note_on_c, 2, 41, 0
4, 42493, Note_on_c, 2, 41, 40
4, 42704, Note_on_c, 2, 41, 0
4, 42715, Note_on_c, 2, 39, 35
4, 42912, Note_on_c, 2, 39, 0
4, 42957, Note_on_c, 2, 39, 51
4, 43195, Note_on_c, 2, 39, 0
4, 43203, Note_on_c, 2, 38, 48
4, 43409, Note_on_c, 2, 38, 0
4, 43448, Note_on_c, 2, 38, 58
4, 43665, Note_on_c, 2, 38, 0
4, 43688, Note_on_c, 2, 37, 42
4, 43887, Note_on_c, 2, 37, 0
4, 43927, Note_on_c, 2, 37, 47
4, 44142, Note_on_c, 2, 37, 0
4, 44169, Note_on_c, 2, 36, 49
4, 44384, Note_on_c, 2, 36, 0
4, 44418, Note_on_c, 2, 36, 72
4, 44642, Note_on_c, 2, 48, 59
4, 44650, Note_on_c, 2, 36, 0
4, 44840, Note_on_c, 2, 36, 29
4, 44841, Note_on_c, 2, 48, 0
4, 44882, Note_on_c, 2, 36, 0
4, 44882, Note_on_c, 2, 48, 62
4, 45132, Note_on_c, 2, 48, 0
4, 45146, Note_on_c, 2, 36, 35
4, 45331, Note_on_c, 2, 36, 0
4, 45366, Note_on_c, 2, 36, 61
4, 45604, Note_on_c, 2, 48, 51
4, 45611, Note_on_c, 2, 36, 0
4, 45851, Note_on_c, 2, 40, 37
4, 45853, Note_on_c, 2, 48, 0
4, 46033, Note_on_c, 2, 40, 0
4, 46088, Note_on_c, 2, 41, 40
4, 46286, Note_on_c, 2, 41, 0
4, 46310, Note_on_c, 2, 36, 48
4, 46553, Note_on_c, 2, 36, 0
4, 46560, Note_on_c, 2, 50, 57
4, 46785, Note_on_c, 2, 50, 0
4, 46803, Note_on_c, 2, 49, 49
4, 47025, Note_on_c, 2, 49, 0
4, 47052, Note_on_c, 2, 48, 42
4, 47262, Note_on_c, 2, 48, 0
4, 47271, Note_on_c, 2, 41, 47
4, 47522, Note_on_c, 2, 41, 0
4, 47527, Note_on_c, 2, 33, 37
4, 47742, Note_on_c, 2, 33, 0
4, 47753, Note_on_c, 2, 36, 52
4, 47993, Note_on_c, 2, 36, 0
4, 47997, Note_on_c, 2, 34, 35
4, 48239, Note_on_c, 2, 43, 58
4, 48264, Note_on_c, 2, 34, 0
4, 48476, Note_on_c, 2, 43, 0
4, 48497, Note_on_c, 2, 41, 44
4, 48721, Note_on_c, 2, 51, 57
4, 48727, Note_on_c, 2, 41, 0
4, 48954, Note_on_c, 2, 51, 0
4, 48981, Note_on_c, 2, 50, 55
4, 49177, Note_on_c, 2, 50, 0
4, 49207, Note_on_c, 2, 48, 48
4, 49438, Note_on_c, 2, 48, 0
4, 49446, Note_on_c, 2, 46, 38
4, 49679, Note_on_c, 2, 46, 0
4, 49684, Note_on_c, 2, 47, 58
4, 49904, Note_on_c, 2, 47, 0
4, 49920, Note_on_c, 2, 48, 53
4, 50140, Note_on_c, 2, 48, 0
4, 50155, Note_on_c, 2, 45, 57
4, 50392, Note_on_c, 2, 45, 0
4, 50407, Note_on_c, 2, 36, 40
4, 50617, Note_on_c, 2, 36, 0
4, 50629, Note_on_c, 2, 41, 54
4, 50863, Note_on_c, 2, 41, 0
4, 50871, Note_on_c, 2, 45, 42
4, 51112, Note_on_c, 2, 37, 50
4, 51113, Note_on_c, 2, 45, 0
4, 51350, Note_on_c, 2, 37, 0
4, 51354, Note_on_c, 2, 38, 55
4, 51533, Note_on_c, 2, 37, 37
4, 51573, Note_on_c, 2, 38, 0
4, 51583, Note_on_c, 2, 37, 0
4, 51593, Note_on_c, 2, 44, 56
4, 51817, Note_on_c, 2, 44, 0
4, 51834, Note_on_c, 2, 43, 51
4, 52069, Note_on_c, 2, 43, 0
4, 52084, Note_on_c, 2, 51, 69
4, 52302, Note_on_c, 2, 51, 0
4, 52328, Note_on_c, 2, 50, 55
4, 52548, Note_on_c, 2, 50, 0
4, 52554, Note_on_c, 2, 35, 60
4, 52790, Note_on_c, 2, 35, 0
4, 52797, Note_on_c, 2, 36, 64
4, 53045, Note_on_c, 2, 50, 74
4, 53064, Note_on_c, 2, 36, 0
4, 53259, Note_on_c, 2, 50, 0
4, 53285, Note_on_c, 2, 48, 36
4, 53503, Note_on_c, 2, 48, 0
4, 53528, Note_on_c, 2, 40, 79
4, 53735, Note_on_c, 2, 40, 0
4, 53748, Note_on_c, 2, 41, 45
4, 53968, Note_on_c, 2, 41, 0
4, 54004, Note_on_c, 2, 41, 51
4, 54205, Note_on_c, 2, 41, 0
4, 54227, Note_on_c, 2, 39, 44
4, 54451, Note_on_c, 2, 39, 0
4, 54485, Note_on_c, 2, 39, 53
4, 54730, Note_on_c, 2, 38, 50
4, 54732, Note_on_c, 2, 39, 0
4, 54966, Note_on_c, 2, 53, 72
4, 55177, Note_on_c, 2, 53, 0
4, 55201, Note_on_c, 2, 54, 67
4, 55407, Note_on_c, 2, 38, 0
4, 55450, Note_on_c, 2, 42, 34
4, 55649, Note_on_c, 2, 54, 0
4, 55677, Note_on_c, 2, 42, 0
4, 55688, Note_on_c, 2, 43, 49
4, 55935, Note_on_c, 2, 38, 45
4, 55945, Note_on_c, 2, 43, 0
4, 56146, Note_on_c, 2, 38, 0
4, 56175, Note_on_c, 2, 34, 38
4, 56397, Note_on_c, 2, 34, 0
4, 56404, Note_on_c, 2, 35, 48
4, 56638, Note_on_c, 2, 35, 0
4, 56643, Note_on_c, 2, 36, 50
4, 56835, Note_on_c, 2, 35, 33
4, 56862, Note_on_c, 2, 35, 0
4, 56877, Note_on_c, 2, 36, 0
4, 56900, Note_on_c, 2, 50, 55
4, 57119, Note_on_c, 2, 50, 0
4, 57124, Note_on_c, 2, 48, 54
4, 57370, Note_on_c, 2, 40, 57
4, 57397, Note_on_c, 2, 48, 0
4, 57607, Note_on_c, 2, 40, 0
4, 57614, Note_on_c, 2, 41, 45
4, 57818, Note_on_c, 2, 41, 0
4, 57840, Note_on_c, 2, 41, 41
4, 58092, Note_on_c, 2, 41, 0
4, 58098, Note_on_c, 2, 33, 36
4, 58466, Note_on_c, 2, 33, 0
4, 58472, Note_on_c, 2, 41, 54
4, 58497, Note_on_c, 2, 41, 0
4, 58546, Note_on_c, 2, 34, 56
4, 58785, Note_on_c, 2, 41, 49
4, 58792, Note_on_c, 2, 34, 0
4, 59003, Note_on_c, 2, 41, 0
4, 59036, Note_on_c, 2, 35, 44
4, 59239, Note_on_c, 2, 35, 0
4, 59276, Note_on_c, 2, 35, 58
4, 59514, Note_on_c, 2, 35, 0
4, 59517, Note_on_c, 2, 36, 51
4, 59762, Note_on_c, 2, 45, 64
4, 59793, Note_on_c, 2, 36, 0
4, 60164, Note_on_c, 2, 35, 36
4, 60189, Note_on_c, 2, 35, 0
4, 60217, Note_on_c, 2, 45, 0
4, 60245, Note_on_c, 2, 43, 36
4, 60653, Note_on_c, 2, 35, 22
4, 60670, Note_on_c, 2, 35, 0
4, 60687, Note_on_c, 2, 43, 0
4, 60714, Note_on_c, 2, 41, 40
4, 60954, Note_on_c, 2, 41, 0
4, 60955, Note_on_c, 2, 35, 43
4, 61203, Note_on_c, 2, 35, 0
4, 61203, Note_on_c, 2, 36, 51
4, 61368, Note_on_c, 2, 36, 0
4, 61378, Note_on_c, 2, 35, 34
4, 61414, Note_on_c, 2, 35, 0
4, 61443, Note_on_c, 2, 41, 35
4, 61634, Note_on_c, 2, 41, 0
4, 61676, Note_on_c, 2, 41, 56
4, 61909, Note_on_c, 2, 41, 0
4, 61931, Note_on_c, 2, 51, 47
4, 62147, Note_on_c, 2, 51, 0
4, 62172, Note_on_c, 2, 49, 51
4, 62401, Note_on_c, 2, 49, 0
4, 62420, Note_on_c, 2, 50, 52
4, 62610, Note_on_c, 2, 50, 0
4, 62637, Note_on_c, 2, 37, 44
4, 62882, Note_on_c, 2, 37, 0
4, 62883, Note_on_c, 2, 38, 50
4, 63054, Note_on_c, 2, 37, 47
4, 63072, Note_on_c, 2, 38, 0
4, 63096, Note_on_c, 2, 37, 0
4, 63127, Note_on_c, 2, 45, 78
4, 63353, Note_on_c, 2, 45, 0
4, 63370, Note_on_c, 2, 43, 44
4, 63518, Note_on_c, 2, 43, 0
4, 63529, Note_on_c, 2, 38, 57
4, 63579, Note_on_c, 2, 38, 0
4, 63605, Note_on_c, 2, 34, 52
4, 63821, Note_on_c, 2, 34, 0
4, 63833, Note_on_c, 2, 35, 68
4, 64044, Note_on_c, 2, 35, 0
4, 64073, Note_on_c, 2, 35, 66
4, 64317, Note_on_c, 2, 35, 0
4, 64317, Note_on_c, 2, 36, 64
4, 64504, Note_on_c, 2, 35, 35
4, 64537, Note_on_c, 2, 35, 0
4, 64571, Note_on_c, 2, 36, 0
4, 64575, Note_on_c, 2, 40, 39
4, 64779, Note_on_c, 2, 40, 0
4, 64811, Note_on_c, 2, 43, 48
4, 65024, Note_on_c, 2, 43, 0
4, 65053, Note_on_c, 2, 41, 61
4, 65238, Note_on_c, 2, 41, 0
4, 65289, Note_on_c, 2, 41, 51
4, 65480, Note_on_c, 2, 41, 0
4, 65513, Note_on_c, 2, 41, 50
4, 65724, Note_on_c, 2, 41, 0
4, 65748, Note_on_c, 2, 33, 43
4, 65960, Note_on_c, 2, 33, 0
4, 65993, Note_on_c, 2, 33, 68
4, 66239, Note_on_c, 2, 34, 55
4, 66315, Note_on_c, 2, 33, 0
4, 66479, Note_on_c, 2, 34, 0
4, 66479, Note_on_c, 2, 50, 69
4, 66694, Note_on_c, 2, 50, 0
4, 66733, Note_on_c, 2, 47, 32
4, 66954, Note_on_c, 2, 47, 0
4, 66956, Note_on_c, 2, 44, 52
4, 67200, Note_on_c, 2, 48, 44
4, 67204, Note_on_c, 2, 44, 0
4, 67406, Note_on_c, 2, 48, 0
4, 67447, Note_on_c, 2, 45, 48
4, 67668, Note_on_c, 2, 45, 0
4, 67677, Note_on_c, 2, 36, 54
4, 67903, Note_on_c, 2, 36, 0
4, 67906, Note_on_c, 2, 38, 49
4, 68138, Note_on_c, 2, 38, 0
4, 68161, Note_on_c, 2, 40, 50
4, 68378, Note_on_c, 2, 40, 0
4, 68400, Note_on_c, 2, 41, 46
4, 68637, Note_on_c, 2, 41, 0
4, 68642, Note_on_c, 2, 36, 51
4, 68861, Note_on_c, 2, 36, 0
4, 68872, Note_on_c, 2, 35, 48
4, 69122, Note_on_c, 2, 35, 0
4, 69129, Note_on_c, 2, 36, 55
4, 69356, Note_on_c, 2, 41, 50
4, 69368, Note_on_c, 2, 36, 0
4, 69570, Note_on_c, 2, 41, 0
4, 69600, Note_on_c, 2, 39, 45
4, 69810, Note_on_c, 2, 39, 0
4, 69837, Note_on_c, 2, 37, 47
4, 70056, Note_on_c, 2, 37, 0
4, 70073, Note_on_c, 2, 38, 61
4, 70304, Note_on_c, 2, 38, 0
4, 70316, Note_on_c, 2, 51, 62
4, 70544, Note_on_c, 2, 51, 0
4, 70563, Note_on_c, 2, 50, 58
4, 70790, Note_on_c, 2, 50, 0
4, 70809, Note_on_c, 2, 44, 47
4, 71023, Note_on_c, 2, 44, 0
4, 71043, Note_on_c, 2, 43, 48
4, 71283, Note_on_c, 2, 43, 0
4, 71283, Note_on_c, 2, 32, 53
4, 71508, Note_on_c, 2, 32, 0
4, 71521, Note_on_c, 2, 31, 55
4, 71753, Note_on_c, 2, 31, 0
4, 71758, Note_on_c, 2, 35, 55
4, 72001, Note_on_c, 2, 35, 0
4, 72006, Note_on_c, 2, 36, 59
4, 72237, Note_on_c, 2, 36, 0
4, 72244, Note_on_c, 2, 38, 57
4, 72455, Note_on_c, 2, 38, 0
4, 72483, Note_on_c, 2, 39, 49
4, 72724, Note_on_c, 2, 43, 61
4, 72725, Note_on_c, 2, 39, 0
4, 72940, Note_on_c, 2, 43, 0
4, 72972, Note_on_c, 2, 41, 43
4, 73203, Note_on_c, 2, 36, 50
4, 73210, Note_on_c, 2, 41, 0
4, 73439, Note_on_c, 2, 36, 0
4, 73445, Note_on_c, 2, 33, 48
4, 73685, Note_on_c, 2, 41, 60
4, 73718, Note_on_c, 2, 33, 0
4, 73905, Note_on_c, 2, 41, 0
4, 73935, Note_on_c, 2, 38, 38
4, 74159, Note_on_c, 2, 38, 0
4, 74168, Note_on_c, 2, 34, 69
4, 74412, Note_on_c, 2, 41, 57
4, 74472, Note_on_c, 2, 34, 0
4, 74646, Note_on_c, 2, 41, 0
4, 74658, Note_on_c, 2, 38, 67
4, 74870, Note_on_c, 2, 38, 0
4, 74892, Note_on_c, 2, 36, 72
4, 75012, Note_on_c, 2, 36, 0
4, 75128, Note_on_c, 2, 36, 62
4, 75323, Note_on_c, 2, 36, 0
4, 75366, Note_on_c, 2, 36, 62
4, 75598, Note_on_c, 2, 36, 0
4, 75607, Note_on_c, 2, 35, 44
4, 75828, Note_on_c, 2, 35, 0
4, 75839, Note_on_c, 2, 36, 47
4, 76047, Note_on_c, 2, 36, 0
4, 76085, Note_on_c, 2, 40, 55
4, 76308, Note_on_c, 2, 40, 0
4, 76322, Note_on_c, 2, 43, 58
4, 76523, Note_on_c, 2, 43, 0
4, 76559, Note_on_c, 2, 42, 67
4, 76794, Note_on_c, 2, 42, 0
4, 76821, Note_on_c, 2, 41, 57
4, 76864, Note_on_c, 2, 41, 0
4, 76903, Note_on_c, 2, 36, 66
4, 76972, Note_on_c, 2, 36, 0
4, 76978, Note_on_c, 2, 32, 56
4, 77012, Note_on_c, 2, 32, 0
4, 77046, Note_on_c, 2, 32, 26
4, 77059, Note_on_c, 2, 33, 73
4, 77063, Note_on_c, 2, 32, 0
4, 77278, Note_on_c, 2, 33, 0
4, 77283, Note_on_c, 2, 34, 67
4, 77525, Note_on_c, 2, 34, 0
4, 77525, Note_on_c, 2, 35, 71
4, 77762, Note_on_c, 2, 36, 61
4, 77764, Note_on_c, 2, 35, 0
4, 77949, Note_on_c, 2, 35, 47
4, 77971, Note_on_c, 2, 36, 0
4, 77986, Note_on_c, 2, 35, 0
4, 78004, Note_on_c, 2, 43, 72
4, 78253, Note_on_c, 2, 43, 0
4, 78254, Note_on_c, 2, 41, 60
4, 78431, Note_on_c, 2, 34, 45
4, 78457, Note_on_c, 2, 34, 0
4, 78474, Note_on_c, 2, 41, 0
4, 78495, Note_on_c, 2, 48, 68
4, 78726, Note_on_c, 2, 46, 54
4, 78729, Note_on_c, 2, 48, 0
4, 78944, Note_on_c, 2, 46, 0
4, 78959, Note_on_c, 2, 41, 39
4, 79208, Note_on_c, 2, 38, 48
4, 79256, Note_on_c, 2, 41, 0
4, 79442, Note_on_c, 2, 34, 49
4, 79454, Note_on_c, 2, 38, 0
4, 79896, Note_on_c, 2, 34, 0
4, 79920, Note_on_c, 2, 38, 64
4, 80146, Note_on_c, 2, 38, 0
4, 80169, Note_on_c, 2, 35, 46
4, 80397, Note_on_c, 2, 35, 0
4, 80398, Note_on_c, 2, 38, 53
4, 80620, Note_on_c, 2, 38, 0
4, 80646, Note_on_c, 2, 36, 52
4, 80875, Note_on_c, 2, 36, 0
4, 80887, Note_on_c, 2, 50, 76
4, 81109, Note_on_c, 2, 50, 0
4, 81139, Note_on_c, 2, 48, 58
4, 81349, Note_on_c, 2, 48, 0
4, 81366, Note_on_c, 2, 45, 59
4, 81592, Note_on_c, 2, 45, 0
4, 81613, Note_on_c, 2, 41, 56
4, 81831, Note_on_c, 2, 41, 0
4, 81839, Note_on_c, 2, 37, 53
4, 82076, Note_on_c, 2, 38, 58
4, 82083, Note_on_c, 2, 37, 0
4, 82264, Note_on_c, 2, 37, 37
4, 82285, Note_on_c, 2, 38, 0
4, 82324, Note_on_c, 2, 45, 67
4, 82334, Note_on_c, 2, 37, 0
4, 82541, Note_on_c, 2, 45, 0
4, 82567, Note_on_c, 2, 44, 38
4, 82801, Note_on_c, 2, 32, 64
4, 82837, Note_on_c, 2, 44, 0
4, 83260, Note_on_c, 2, 32, 0
4, 83287, Note_on_c, 2, 31, 64
4, 83717, Note_on_c, 2, 31, 0
4, 83768, Note_on_c, 2, 36, 75
4, 83994, Note_on_c, 2, 50, 81
4, 84007, Note_on_c, 2, 36, 0
4, 84177, Note_on_c, 2, 36, 18
4, 84198, Note_on_c, 2, 36, 0
4, 84210, Note_on_c, 2, 50, 0
4, 84244, Note_on_c, 2, 48, 62
4, 84437, Note_on_c, 2, 36, 34
4, 84451, Note_on_c, 2, 48, 0
4, 84461, Note_on_c, 2, 36, 0
4, 84485, Note_on_c, 2, 41, 47
4, 84895, Note_on_c, 2, 37, 32
4, 84919, Note_on_c, 2, 41, 0
4, 84956, Note_on_c, 2, 37, 0
4, 84966, Note_on_c, 2, 39, 54
4, 85383, Note_on_c, 2, 37, 36
4, 85439, Note_on_c, 2, 39, 0
4, 85445, Note_on_c, 2, 37, 0
4, 85454, Note_on_c, 2, 38, 36
4, 85626, Note_on_c, 2, 37, 48
4, 85641, Note_on_c, 2, 38, 0
4, 85684, Note_on_c, 2, 37, 0
4, 85686, Note_on_c, 2, 51, 76
4, 85913, Note_on_c, 2, 51, 0
4, 85929, Note_on_c, 2, 50, 62
4, 85987, Note_on_c, 2, 50, 0
4, 86098, Note_on_c, 2, 45, 64
4, 86140, Note_on_c, 2, 45, 0
4, 86177, Note_on_c, 2, 44, 49
4, 86382, Note_on_c, 2, 44, 0
4, 86400, Note_on_c, 2, 43, 48
4, 86820, Note_on_c, 2, 38, 50
4, 86832, Note_on_c, 2, 43, 0
4, 86876, Note_on_c, 2, 38, 0
4, 86888, Note_on_c, 2, 35, 51
4, 87213, Note_on_c, 2, 35, 0
4, 87233, Note_on_c, 2, 38, 68
4, 87287, Note_on_c, 2, 38, 0
4, 87304, Note_on_c, 2, 37, 20
4, 87328, Note_on_c, 2, 37, 0
4, 87374, Note_on_c, 2, 36, 72
4, 87770, Note_on_c, 2, 50, 71
4, 87783, Note_on_c, 2, 36, 0
4, 87811, Note_on_c, 2, 50, 0
4, 87857, Note_on_c, 2, 48, 50
4, 87880, Note_on_c, 2, 48, 0
4, 88008, Note_on_c, 2, 45, 53
4, 88027, Note_on_c, 2, 45, 0
4, 88089, Note_on_c, 2, 40, 60
4, 88286, Note_on_c, 2, 40, 0
4, 88319, Note_on_c, 2, 41, 62
4, 88624, Note_on_c, 2, 41, 0
4, 88651, Note_on_c, 2, 36, 55
4, 88718, Note_on_c, 2, 34, 51
4, 88722, Note_on_c, 2, 36, 0
4, 88756, Note_on_c, 2, 34, 0
4, 88801, Note_on_c, 2, 33, 59
4, 89129, Note_on_c, 2, 41, 68
4, 89153, Note_on_c, 2, 33, 0
4, 89175, Note_on_c, 2, 41, 0
4, 89277, Note_on_c, 2, 34, 71
4, 89527, Note_on_c, 2, 41, 56
4, 89555, Note_on_c, 2, 34, 0
4, 89570, Note_on_c, 2, 41, 0
4, 89597, Note_on_c, 2, 38, 34
4, 89618, Note_on_c, 2, 38, 0
4, 89676, Note_on_c, 2, 35, 78
4, 89877, Note_on_c, 2, 41, 66
4, 89903, Note_on_c, 2, 35, 0
4, 89941, Note_on_c, 2, 41, 0
4, 89957, Note_on_c, 2, 38, 37
4, 89976, Note_on_c, 2, 38, 0
4, 90026, Note_on_c, 2, 35, 63
4, 90223, Note_on_c, 2, 35, 0
4, 90251, Note_on_c, 2, 36, 59
4, 90453, Note_on_c, 2, 35, 31
4, 90477, Note_on_c, 2, 35, 0
4, 90481, Note_on_c, 2, 36, 0
4, 90495, Note_on_c, 2, 50, 72
4, 90689, Note_on_c, 2, 50, 0
4, 90730, Note_on_c, 2, 48, 55
4, 90819, Note_on_c, 2, 48, 0
4, 90891, Note_on_c, 2, 35, 36
4, 90915, Note_on_c, 2, 35, 0
4, 90966, Note_on_c, 2, 40, 43
4, 91170, Note_on_c, 2, 40, 0
4, 91208, Note_on_c, 2, 41, 43
4, 91630, Note_on_c, 2, 41, 0
4, 91696, Note_on_c, 2, 38, 57
4, 92106, Note_on_c, 2, 34, 20
4, 92142, Note_on_c, 2, 38, 0
4, 92149, Note_on_c, 2, 34, 0
4, 92183, Note_on_c, 2, 31, 42
4, 92601, Note_on_c, 2, 31, 0
4, 92605, Note_on_c, 2, 35, 39
4, 92647, Note_on_c, 2, 35, 0
4, 92658, Note_on_c, 2, 36, 53
4, 93067, Note_on_c, 2, 34, 31
4, 93081, Note_on_c, 2, 36, 0
4, 93107, Note_on_c, 2, 34, 0
4, 93125, Note_on_c, 2, 33, 49
4, 93528, Note_on_c, 2, 32, 39
4, 93553, Note_on_c, 2, 33, 0
4, 93598, Note_on_c, 2, 32, 0
4, 93601, Note_on_c, 2, 38, 40
4, 94171, Note_on_c, 2, 38, 0
4, 94247, Note_on_c, 2, 48, 71
4, 94275, Note_on_c, 2, 48, 0
4, 94502, Note_on_c, 2, 34, 29
4, 94519, Note_on_c, 2, 34, 0
4, 94568, Note_on_c, 2, 48, 80
4, 94706, Note_on_c, 2, 48, 0
4, 94798, Note_on_c, 2, 36, 72
4, 94917, Note_on_c, 2, 36, 0
4, 95025, Note_on_c, 2, 41, 74
4, 95425, Note_on_c, 2, 29, 57
4, 95432, Note_on_c, 2, 41, 0
4, 96620, Note_on_c, 2, 29, 0
4, 96620, End_track
5, 0, Start_track
5, 0, Title_t, ""
5, 0, Control_c, 3, 7, 100
5, 0, Control_c, 3, 10, 64
5, 105600, Control_c, 3, 121, 0
5, 105600, Control_c, 3, 0, 0
5, 105600, Control_c, 3, 32, 0
5, 105600, Control_c, 3, 91, 24
5, 105600, Control_c, 3, 93, 0
5, 105600, End_track
6, 0, Start_track
6, 0, Title_t, ""
6, 0, Control_c, 4, 7, 100
6, 0, Control_c, 4, 10, 64
6, 105600, Control_c, 4, 121, 0
6, 105600, Control_c, 4, 0, 0
6, 105600, Control_c, 4, 32, 0
6, 105600, Control_c, 4, 91, 24
6, 105600, Control_c, 4, 93, 0
6, 105600, End_track
7, 0, Start_track
7, 0, Title_t, ""
7, 0, Control_c, 5, 7, 100
7, 0, Control_c, 5, 10, 64
7, 105600, Control_c, 5, 121, 0
7, 105600, Control_c, 5, 0, 0
7, 105600, Control_c, 5, 32, 0
7, 105600, Control_c, 5, 91, 24
7, 105600, Control_c, 5, 93, 0
7, 105600, End_track
8, 0, Start_track
8, 0, Title_t, ""
8, 0, Control_c, 6, 7, 100
8, 0, Control_c, 6, 10, 64
8, 105600, Control_c, 6, 121, 0
8, 105600, Control_c, 6, 0, 0
8, 105600, Control_c, 6, 32, 0
8, 105600, Control_c, 6, 91, 24
8, 105600, Control_c, 6, 93, 0
8, 105600, End_track
9, 0, Start_track
9, 0, Title_t, ""
9, 0, Control_c, 7, 7, 100
9, 0, Control_c, 7, 10, 64
9, 105600, Control_c, 7, 121, 0
9, 105600, Control_c, 7, 0, 0
9, 105600, Control_c, 7, 32, 0
9, 105600, Control_c, 7, 91, 24
9, 105600, Control_c, 7, 93, 0
9, 105600, End_track
10, 0, Start_track
10, 0, Title_t, ""
10, 0, Control_c, 8, 7, 100
10, 0, Control_c, 8, 10, 64
10, 105600, Control_c, 8, 121, 0
10, 105600, Control_c, 8, 0, 0
10, 105600, Control_c, 8, 32, 0
10, 105600, Control_c, 8, 91, 24
10, 105600, Control_c, 8, 93, 0
10, 105600, End_track
11, 0, Start_track
11, 0, Title_t, ""
11, 0, Program_c, 9, 32
11, 0, Control_c, 9, 7, 90
11, 0, Note_on_c, 9, 59, 109
11, 120, Note_on_c, 9, 59, 0
11, 240, Note_on_c, 9, 59, 110
11, 240, Note_on_c, 9, 44, 99
11, 240, Note_on_c, 9, 37, 57
11, 340, Note_on_c, 9, 37, 0
11, 350, Note_on_c, 9, 59, 0
11, 360, Note_on_c, 9, 44, 0
11, 480, Note_on_c, 9, 59, 109
11, 590, Note_on_c, 9, 59, 0
11, 720, Note_on_c, 9, 59, 109
11, 720, Note_on_c, 9, 37, 55
11, 720, Note_on_c, 9, 44, 105
11, 850, Note_on_c, 9, 59, 0
11, 870, Note_on_c, 9, 37, 0
11, 880, Note_on_c, 9, 44, 0
11, 960, Note_on_c, 9, 59, 109
11, 1080, Note_on_c, 9, 59, 0
11, 1200, Note_on_c, 9, 37, 57
11, 1200, Note_on_c, 9, 44, 105
11, 1200, Note_on_c, 9, 59, 110
11, 1330, Note_on_c, 9, 37, 0
11, 1340, Note_on_c, 9, 59, 0
11, 1350, Note_on_c, 9, 44, 0
11, 1440, Note_on_c, 9, 59, 109
11, 1560, Note_on_c, 9, 59, 0
11, 1680, Note_on_c, 9, 44, 108
11, 1680, Note_on_c, 9, 37, 55
11, 1680, Note_on_c, 9, 59, 111
11, 1780, Note_on_c, 9, 37, 0
11, 1800, Note_on_c, 9, 44, 0
11, 1820, Note_on_c, 9, 59, 0
11, 1920, Note_on_c, 9, 59, 111
11, 2060, Note_on_c, 9, 59, 0
11, 2160, Note_on_c, 9, 37, 53
11, 2160, Note_on_c, 9, 59, 113
11, 2160, Note_on_c, 9, 44, 108
11, 2240, Note_on_c, 9, 37, 0
11, 2270, Note_on_c, 9, 44, 0
11, 2300, Note_on_c, 9, 59, 0
11, 2400, Note_on_c, 9, 59, 111
11, 2520, Note_on_c, 9, 59, 0
11, 2640, Note_on_c, 9, 59, 113
11, 2640, Note_on_c, 9, 44, 102
11, 2640, Note_on_c, 9, 37, 54
11, 2730, Note_on_c, 9, 37, 0
11, 2750, Note_on_c, 9, 44, 0
11, 2770, Note_on_c, 9, 59, 0
11, 2880, Note_on_c, 9, 59, 111
11, 3000, Note_on_c, 9, 59, 0
11, 3120, Note_on_c, 9, 59, 110
11, 3120, Note_on_c, 9, 44, 104
11, 3120, Note_on_c, 9, 37, 53
11, 3200, Note_on_c, 9, 37, 0
11, 3220, Note_on_c, 9, 44, 0
11, 3250, Note_on_c, 9, 59, 0
11, 3360, Note_on_c, 9, 59, 111
11, 3490, Note_on_c, 9, 59, 0
11, 3600, Note_on_c, 9, 64, 114
11, 3600, Note_on_c, 9, 37, 55
11, 3600, Note_on_c, 9, 44, 98
11, 3600, Note_on_c, 9, 59, 110
11, 3670, Note_on_c, 9, 64, 0
11, 3690, Note_on_c, 9, 37, 0
11, 3700, Note_on_c, 9, 44, 0
11, 3740, Note_on_c, 9, 59, 0
11, 3760, Note_on_c, 9, 64, 118
11, 3840, Note_on_c, 9, 64, 0
11, 3840, Note_on_c, 9, 36, 32
11, 3840, Note_on_c, 9, 59, 110
11, 3960, Note_on_c, 9, 59, 0
11, 4020, Note_on_c, 9, 36, 0
11, 4080, Note_on_c, 9, 62, 121
11, 4080, Note_on_c, 9, 38, 59
11, 4080, Note_on_c, 9, 37, 108
11, 4080, Note_on_c, 9, 36, 32
11, 4080, Note_on_c, 9, 59, 113
11, 4080, Note_on_c, 9, 44, 103
11, 4170, Note_on_c, 9, 38, 0
11, 4190, Note_on_c, 9, 44, 0
11, 4210, Note_on_c, 9, 59, 0
11, 4220, Note_on_c, 9, 37, 0
11, 4230, Note_on_c, 9, 62, 0
11, 4260, Note_on_c, 9, 36, 0
11, 4320, Note_on_c, 9, 36, 33
11, 4320, Note_on_c, 9, 59, 113
11, 4420, Note_on_c, 9, 59, 0
11, 4500, Note_on_c, 9, 36, 0
11, 4560, Note_on_c, 9, 59, 113
11, 4560, Note_on_c, 9, 44, 100
11, 4560, Note_on_c, 9, 38, 54
11, 4560, Note_on_c, 9, 64, 115
11, 4560, Note_on_c, 9, 36, 37
11, 4620, Note_on_c, 9, 38, 0
11, 4650, Note_on_c, 9, 64, 0
11, 4650, Note_on_c, 9, 44, 0
11, 4680, Note_on_c, 9, 59, 0
11, 4720, Note_on_c, 9, 36, 0
11, 4720, Note_on_c, 9, 64, 114
11, 4780, Note_on_c, 9, 64, 0
11, 4800, Note_on_c, 9, 59, 111
11, 4800, Note_on_c, 9, 36, 37
11, 4910, Note_on_c, 9, 59, 0
11, 4980, Note_on_c, 9, 36, 0
11, 5040, Note_on_c, 9, 62, 111
11, 5040, Note_on_c, 9, 36, 39
11, 5040, Note_on_c, 9, 59, 115
11, 5040, Note_on_c, 9, 44, 109
11, 5040, Note_on_c, 9, 37, 110
11, 5110, Note_on_c, 9, 37, 0
11, 5140, Note_on_c, 9, 62, 0
11, 5140, Note_on_c, 9, 44, 0
11, 5150, Note_on_c, 9, 59, 0
11, 5230, Note_on_c, 9, 36, 0
11, 5280, Note_on_c, 9, 36, 33
11, 5280, Note_on_c, 9, 59, 110
11, 5370, Note_on_c, 9, 59, 0
11, 5450, Note_on_c, 9, 36, 0
11, 5520, Note_on_c, 9, 44, 108
11, 5520, Note_on_c, 9, 38, 59
11, 5520, Note_on_c, 9, 36, 36
11, 5520, Note_on_c, 9, 64, 118
11, 5520, Note_on_c, 9, 59, 111
11, 5590, Note_on_c, 9, 64, 0
11, 5620, Note_on_c, 9, 38, 0
11, 5630, Note_on_c, 9, 44, 0
11, 5640, Note_on_c, 9, 59, 0
11, 5680, Note_on_c, 9, 64, 113
11, 5700, Note_on_c, 9, 36, 0
11, 5740, Note_on_c, 9, 64, 0
11, 5760, Note_on_c, 9, 36, 42
11, 5760, Note_on_c, 9, 59, 111
11, 5880, Note_on_c, 9, 59, 0
11, 5930, Note_on_c, 9, 36, 0
11, 6000, Note_on_c, 9, 59, 106
11, 6000, Note_on_c, 9, 44, 105
11, 6000, Note_on_c, 9, 62, 113
11, 6000, Note_on_c, 9, 36, 39
11, 6000, Note_on_c, 9, 37, 112
11, 6060, Note_on_c, 9, 37, 0
11, 6070, Note_on_c, 9, 62, 0
11, 6100, Note_on_c, 9, 44, 0
11, 6130, Note_on_c, 9, 59, 0
11, 6180, Note_on_c, 9, 36, 0
11, 6240, Note_on_c, 9, 59, 105
11, 6240, Note_on_c, 9, 36, 36
11, 6320, Note_on_c, 9, 59, 0
11, 6430, Note_on_c, 9, 36, 0
11, 6480, Note_on_c, 9, 64, 110
11, 6480, Note_on_c, 9, 36, 42
11, 6480, Note_on_c, 9, 59, 110
11, 6480, Note_on_c, 9, 44, 107
11, 6480, Note_on_c, 9, 38, 57
11, 6540, Note_on_c, 9, 64, 0
11, 6560, Note_on_c, 9, 38, 0
11, 6590, Note_on_c, 9, 44, 0
11, 6600, Note_on_c, 9, 59, 0
11, 6640, Note_on_c, 9, 64, 110
11, 6650, Note_on_c, 9, 36, 0
11, 6710, Note_on_c, 9, 64, 0
11, 6720, Note_on_c, 9, 59, 108
11, 6720, Note_on_c, 9, 36, 41
11, 6820, Note_on_c, 9, 59, 0
11, 6900, Note_on_c, 9, 36, 0
11, 6960, Note_on_c, 9, 59, 110
11, 6960, Note_on_c, 9, 37, 111
11, 6960, Note_on_c, 9, 44, 107
11, 6960, Note_on_c, 9, 62, 118
11, 6960, Note_on_c, 9, 36, 43
11, 7020, Note_on_c, 9, 37, 0
11, 7030, Note_on_c, 9, 62, 0
11, 7060, Note_on_c, 9, 44, 0
11, 7080, Note_on_c, 9, 59, 0
11, 7150, Note_on_c, 9, 36, 0
11, 7200, Note_on_c, 9, 36, 45
11, 7200, Note_on_c, 9, 59, 100
11, 7300, Note_on_c, 9, 59, 0
11, 7390, Note_on_c, 9, 36, 0
11, 7440, Note_on_c, 9, 59, 109
11, 7440, Note_on_c, 9, 44, 102
11, 7440, Note_on_c, 9, 64, 118
11, 7440, Note_on_c, 9, 36, 41
11, 7440, Note_on_c, 9, 38, 57
11, 7500, Note_on_c, 9, 64, 0
11, 7530, Note_on_c, 9, 38, 0
11, 7540, Note_on_c, 9, 44, 0
11, 7570, Note_on_c, 9, 59, 0
11, 7600, Note_on_c, 9, 64, 114
11, 7620, Note_on_c, 9, 36, 0
11, 7660, Note_on_c, 9, 64, 0
11, 7680, Note_on_c, 9, 36, 44
11, 7680, Note_on_c, 9, 59, 109
11, 7800, Note_on_c, 9, 59, 0
11, 7860, Note_on_c, 9, 36, 0
11, 7920, Note_on_c, 9, 37, 110
11, 7920, Note_on_c, 9, 36, 44
11, 7920, Note_on_c, 9, 62, 119
11, 7920, Note_on_c, 9, 59, 113
11, 7920, Note_on_c, 9, 44, 109
11, 7990, Note_on_c, 9, 62, 0
11, 7990, Note_on_c, 9, 37, 0
11, 8030, Note_on_c, 9, 44, 0
11, 8040, Note_on_c, 9, 59, 0
11, 8110, Note_on_c, 9, 36, 0
11, 8160, Note_on_c, 9, 36, 43
11, 8160, Note_on_c, 9, 59, 110
11, 8260, Note_on_c, 9, 59, 0
11, 8330, Note_on_c, 9, 36, 0
11, 8400, Note_on_c, 9, 44, 105
11, 8400, Note_on_c, 9, 38, 58
11, 8400, Note_on_c, 9, 36, 46
11, 8400, Note_on_c, 9, 64, 114
11, 8400, Note_on_c, 9, 59, 108
11, 8460, Note_on_c, 9, 64, 0
11, 8480, Note_on_c, 9, 38, 0
11, 8480, Note_on_c, 9, 44, 0
11, 8500, Note_on_c, 9, 59, 0
11, 8560, Note_on_c, 9, 64, 113
11, 8580, Note_on_c, 9, 36, 0
11, 8620, Note_on_c, 9, 64, 0
11, 8640, Note_on_c, 9, 36, 45
11, 8640, Note_on_c, 9, 59, 105
11, 8750, Note_on_c, 9, 59, 0
11, 8810, Note_on_c, 9, 36, 0
11, 8880, Note_on_c, 9, 59, 110
11, 8880, Note_on_c, 9, 44, 103
11, 8880, Note_on_c, 9, 62, 115
11, 8880, Note_on_c, 9, 36, 45
11, 8880, Note_on_c, 9, 37, 112
11, 8940, Note_on_c, 9, 37, 0
11, 8950, Note_on_c, 9, 62, 0
11, 8970, Note_on_c, 9, 44, 0
11, 8990, Note_on_c, 9, 59, 0
11, 9070, Note_on_c, 9, 36, 0
11, 9120, Note_on_c, 9, 59, 109
11, 9120, Note_on_c, 9, 36, 45
11, 9230, Note_on_c, 9, 59, 0
11, 9280, Note_on_c, 9, 64, 105
11, 9300, Note_on_c, 9, 36, 0
11, 9310, Note_on_c, 9, 64, 0
11, 9360, Note_on_c, 9, 38, 58
11, 9360, Note_on_c, 9, 36, 49
11, 9360, Note_on_c, 9, 59, 111
11, 9360, Note_on_c, 9, 64, 113
11, 9360, Note_on_c, 9, 44, 100
11, 9420, Note_on_c, 9, 64, 0
11, 9440, Note_on_c, 9, 44, 0
11, 9450, Note_on_c, 9, 38, 0
11, 9480, Note_on_c, 9, 59, 0
11, 9520, Note_on_c, 9, 64, 115
11, 9540, Note_on_c, 9, 36, 0
11, 9580, Note_on_c, 9, 64, 0
11, 9600, Note_on_c, 9, 36, 47
11, 9600, Note_on_c, 9, 59, 109
11, 9720, Note_on_c, 9, 59, 0
11, 9780, Note_on_c, 9, 36, 0
11, 9840, Note_on_c, 9, 62, 119
11, 9840, Note_on_c, 9, 59, 105
11, 9840, Note_on_c, 9, 44, 107
11, 9840, Note_on_c, 9, 36, 47
11, 9840, Note_on_c, 9, 37, 114
11, 9900, Note_on_c, 9, 62, 0
11, 9910, Note_on_c, 9, 37, 0
11, 9950, Note_on_c, 9, 44, 0
11, 9980, Note_on_c, 9, 59, 0
11, 10010, Note_on_c, 9, 36, 0
11, 10080, Note_on_c, 9, 36, 47
11, 10080, Note_on_c, 9, 59, 110
11, 10180, Note_on_c, 9, 59, 0
11, 10270, Note_on_c, 9, 36, 0
11, 10320, Note_on_c, 9, 59, 113
11, 10320, Note_on_c, 9, 64, 118
11, 10320, Note_on_c, 9, 36, 49
11, 10320, Note_on_c, 9, 44, 102
11, 10320, Note_on_c, 9, 38, 56
11, 10380, Note_on_c, 9, 64, 0
11, 10400, Note_on_c, 9, 38, 0
11, 10420, Note_on_c, 9, 44, 0
11, 10440, Note_on_c, 9, 59, 0
11, 10480, Note_on_c, 9, 64, 117
11, 10490, Note_on_c, 9, 36, 0
11, 10540, Note_on_c, 9, 64, 0
11, 10560, Note_on_c, 9, 59, 113
11, 10560, Note_on_c, 9, 36, 47
11, 10660, Note_on_c, 9, 59, 0
11, 10740, Note_on_c, 9, 36, 0
11, 10800, Note_on_c, 9, 44, 109
11, 10800, Note_on_c, 9, 36, 50
11, 10800, Note_on_c, 9, 37, 109
11, 10800, Note_on_c, 9, 62, 119
11, 10800, Note_on_c, 9, 59, 111
11, 10860, Note_on_c, 9, 62, 0
11, 10870, Note_on_c, 9, 37, 0
11, 10900, Note_on_c, 9, 44, 0
11, 10920, Note_on_c, 9, 59, 0
11, 10980, Note_on_c, 9, 36, 0
11, 11040, Note_on_c, 9, 36, 49
11, 11040, Note_on_c, 9, 59, 110
11, 11150, Note_on_c, 9, 59, 0
11, 11200, Note_on_c, 9, 36, 0
11, 11280, Note_on_c, 9, 64, 118
11, 11280, Note_on_c, 9, 59, 110
11, 11280, Note_on_c, 9, 44, 103
11, 11280, Note_on_c, 9, 36, 47
11, 11280, Note_on_c, 9, 38, 55
11, 11330, Note_on_c, 9, 64, 0
11, 11360, Note_on_c, 9, 38, 0
11, 11380, Note_on_c, 9, 44, 0
11, 11400, Note_on_c, 9, 59, 0
11, 11440, Note_on_c, 9, 64, 114
11, 11470, Note_on_c, 9, 36, 0
11, 11490, Note_on_c, 9, 64, 0
11, 11520, Note_on_c, 9, 36, 49
11, 11520, Note_on_c, 9, 59, 110
11, 11620, Note_on_c, 9, 59, 0
11, 11670, Note_on_c, 9, 36, 0
11, 11760, Note_on_c, 9, 62, 117
11, 11760, Note_on_c, 9, 37, 111
11, 11760, Note_on_c, 9, 36, 46
11, 11760, Note_on_c, 9, 44, 107
11, 11760, Note_on_c, 9, 59, 111
11, 11820, Note_on_c, 9, 62, 0
11, 11840, Note_on_c, 9, 37, 0
11, 11850, Note_on_c, 9, 44, 0
11, 11870, Note_on_c, 9, 59, 0
11, 11940, Note_on_c, 9, 36, 0
11, 12000, Note_on_c, 9, 59, 109
11, 12000, Note_on_c, 9, 36, 43
11, 12110, Note_on_c, 9, 59, 0
11, 12160, Note_on_c, 9, 36, 0
11, 12240, Note_on_c, 9, 44, 105
11, 12240, Note_on_c, 9, 36, 46
11, 12240, Note_on_c, 9, 38, 55
11, 12240, Note_on_c, 9, 64, 118
11, 12240, Note_on_c, 9, 59, 109
11, 12300, Note_on_c, 9, 64, 0
11, 12330, Note_on_c, 9, 38, 0
11, 12330, Note_on_c, 9, 44, 0
11, 12370, Note_on_c, 9, 59, 0
11, 12400, Note_on_c, 9, 64, 114
11, 12420, Note_on_c, 9, 36, 0
11, 12460, Note_on_c, 9, 64, 0
11, 12480, Note_on_c, 9, 36, 47
11, 12480, Note_on_c, 9, 59, 110
11, 12610, Note_on_c, 9, 59, 0
11, 12640, Note_on_c, 9, 36, 0
11, 12720, Note_on_c, 9, 62, 119
11, 12720, Note_on_c, 9, 59, 110
11, 12720, Note_on_c, 9, 36, 43
11, 12720, Note_on_c, 9, 44, 105
11, 12720, Note_on_c, 9, 37, 100
11, 12770, Note_on_c, 9, 37, 0
11, 12780, Note_on_c, 9, 62, 0
11, 12810, Note_on_c, 9, 44, 0
11, 12850, Note_on_c, 9, 59, 0
11, 12900, Note_on_c, 9, 36, 0
11, 12960, Note_on_c, 9, 36, 46
11, 12960, Note_on_c, 9, 59, 111
11, 13080, Note_on_c, 9, 59, 0
11, 13130, Note_on_c, 9, 36, 0
11, 13200, Note_on_c, 9, 64, 118
11, 13200, Note_on_c, 9, 59, 113
11, 13200, Note_on_c, 9, 44, 105
11, 13200, Note_on_c, 9, 38, 57
11, 13200, Note_on_c, 9, 36, 50
11, 13260, Note_on_c, 9, 64, 0
11, 13280, Note_on_c, 9, 38, 0
11, 13300, Note_on_c, 9, 44, 0
11, 13340, Note_on_c, 9, 59, 0
11, 13360, Note_on_c, 9, 64, 113
11, 13380, Note_on_c, 9, 36, 0
11, 13420, Note_on_c, 9, 64, 0
11, 13440, Note_on_c, 9, 36, 45
11, 13440, Note_on_c, 9, 59, 113
11, 13550, Note_on_c, 9, 59, 0
11, 13610, Note_on_c, 9, 36, 0
11, 13680, Note_on_c, 9, 37, 108
11, 13680, Note_on_c, 9, 44, 105
11, 13680, Note_on_c, 9, 59, 111
11, 13680, Note_on_c, 9, 36, 50
11, 13680, Note_on_c, 9, 62, 114
11, 13740, Note_on_c, 9, 37, 0
11, 13750, Note_on_c, 9, 62, 0
11, 13790, Note_on_c, 9, 44, 0
11, 13810, Note_on_c, 9, 59, 0
11, 13850, Note_on_c, 9, 36, 0
11, 13920, Note_on_c, 9, 59, 109
11, 13920, Note_on_c, 9, 36, 47
11, 14050, Note_on_c, 9, 59, 0
11, 14110, Note_on_c, 9, 36, 0
11, 14160, Note_on_c, 9, 59, 113
11, 14160, Note_on_c, 9, 38, 55
11, 14160, Note_on_c, 9, 44, 102
11, 14160, Note_on_c, 9, 64, 118
11, 14160, Note_on_c, 9, 36, 49
11, 14230, Note_on_c, 9, 64, 0
11, 14250, Note_on_c, 9, 38, 0
11, 14270, Note_on_c, 9, 44, 0
11, 14300, Note_on_c, 9, 59, 0
11, 14320, Note_on_c, 9, 64, 118
11, 14330, Note_on_c, 9, 36, 0
11, 14380, Note_on_c, 9, 64, 0
11, 14400, Note_on_c, 9, 36, 47
11, 14400, Note_on_c, 9, 59, 111
11, 14540, Note_on_c, 9, 59, 0
11, 14590, Note_on_c, 9, 36, 0
11, 14640, Note_on_c, 9, 59, 113
11, 14640, Note_on_c, 9, 62, 108
11, 14640, Note_on_c, 9, 36, 45
11, 14640, Note_on_c, 9, 44, 109
11, 14640, Note_on_c, 9, 37, 110
11, 14710, Note_on_c, 9, 62, 0
11, 14760, Note_on_c, 9, 44, 0
11, 14760, Note_on_c, 9, 59, 0
11, 14770, Note_on_c, 9, 37, 0
11, 14830, Note_on_c, 9, 36, 0
11, 14880, Note_on_c, 9, 59, 110
11, 14880, Note_on_c, 9, 36, 49
11, 15000, Note_on_c, 9, 59, 0
11, 15040, Note_on_c, 9, 64, 111
11, 15070, Note_on_c, 9, 36, 0
11, 15090, Note_on_c, 9, 64, 0
11, 15120, Note_on_c, 9, 44, 99
11, 15120, Note_on_c, 9, 36, 47
11, 15120, Note_on_c, 9, 38, 55
11, 15120, Note_on_c, 9, 64, 111
11, 15120, Note_on_c, 9, 59, 106
11, 15190, Note_on_c, 9, 64, 0
11, 15190, Note_on_c, 9, 38, 0
11, 15190, Note_on_c, 9, 44, 0
11, 15230, Note_on_c, 9, 36, 0
11, 15240, Note_on_c, 9, 59, 0
11, 15280, Note_on_c, 9, 36, 43
11, 15280, Note_on_c, 9, 64, 115
11, 15320, Note_on_c, 9, 36, 0
11, 15340, Note_on_c, 9, 64, 0
11, 15360, Note_on_c, 9, 59, 110
11, 15360, Note_on_c, 9, 36, 43
11, 15470, Note_on_c, 9, 59, 0
11, 15510, Note_on_c, 9, 36, 0
11, 15600, Note_on_c, 9, 62, 119
11, 15600, Note_on_c, 9, 36, 50
11, 15600, Note_on_c, 9, 59, 111
11, 15600, Note_on_c, 9, 44, 109
11, 15600, Note_on_c, 9, 37, 114
11, 15660, Note_on_c, 9, 62, 0
11, 15700, Note_on_c, 9, 44, 0
11, 15720, Note_on_c, 9, 59, 0
11, 15740, Note_on_c, 9, 37, 0
11, 15770, Note_on_c, 9, 36, 0
11, 15840, Note_on_c, 9, 36, 47
11, 15840, Note_on_c, 9, 59, 113
11, 15950, Note_on_c, 9, 59, 0
11, 16020, Note_on_c, 9, 36, 0
11, 16080, Note_on_c, 9, 44, 101
11, 16080, Note_on_c, 9, 38, 55
11, 16080, Note_on_c, 9, 36, 47
11, 16080, Note_on_c, 9, 64, 119
11, 16080, Note_on_c, 9, 59, 113
11, 16140, Note_on_c, 9, 64, 0
11, 16150, Note_on_c, 9, 38, 0
11, 16160, Note_on_c, 9, 44, 0
11, 16190, Note_on_c, 9, 59, 0
11, 16240, Note_on_c, 9, 64, 117
11, 16250, Note_on_c, 9, 36, 0
11, 16300, Note_on_c, 9, 64, 0
11, 16320, Note_on_c, 9, 36, 49
11, 16320, Note_on_c, 9, 59, 113
11, 16430, Note_on_c, 9, 59, 0
11, 16500, Note_on_c, 9, 36, 0
11, 16560, Note_on_c, 9, 59, 108
11, 16560, Note_on_c, 9, 44, 109
11, 16560, Note_on_c, 9, 62, 119
11, 16560, Note_on_c, 9, 36, 50
11, 16560, Note_on_c, 9, 37, 111
11, 16610, Note_on_c, 9, 62, 0
11, 16640, Note_on_c, 9, 44, 0
11, 16680, Note_on_c, 9, 37, 0
11, 16690, Note_on_c, 9, 59, 0
11, 16740, Note_on_c, 9, 36, 0
11, 16800, Note_on_c, 9, 59, 111
11, 16800, Note_on_c, 9, 36, 45
11, 16910, Note_on_c, 9, 59, 0
11, 16990, Note_on_c, 9, 36, 0
11, 17040, Note_on_c, 9, 64, 117
11, 17040, Note_on_c, 9, 36, 46
11, 17040, Note_on_c, 9, 59, 113
11, 17040, Note_on_c, 9, 44, 108
11, 17040, Note_on_c, 9, 38, 56
11, 17100, Note_on_c, 9, 38, 0
11, 17110, Note_on_c, 9, 64, 0
11, 17110, Note_on_c, 9, 44, 0
11, 17160, Note_on_c, 9, 59, 0
11, 17200, Note_on_c, 9, 64, 114
11, 17220, Note_on_c, 9, 36, 0
11, 17260, Note_on_c, 9, 64, 0
11, 17280, Note_on_c, 9, 59, 111
11, 17280, Note_on_c, 9, 36, 47
11, 17390, Note_on_c, 9, 59, 0
11, 17440, Note_on_c, 9, 36, 0
11, 17520, Note_on_c, 9, 59, 113
11, 17520, Note_on_c, 9, 37, 108
11, 17520, Note_on_c, 9, 44, 108
11, 17520, Note_on_c, 9, 62, 114
11, 17520, Note_on_c, 9, 36, 49
11, 17590, Note_on_c, 9, 62, 0
11, 17590, Note_on_c, 9, 44, 0
11, 17610, Note_on_c, 9, 59, 0
11, 17640, Note_on_c, 9, 37, 0
11, 17700, Note_on_c, 9, 36, 0
11, 17760, Note_on_c, 9, 36, 43
11, 17760, Note_on_c, 9, 59, 110
11, 17870, Note_on_c, 9, 59, 0
11, 17930, Note_on_c, 9, 36, 0
11, 18000, Note_on_c, 9, 59, 110
11, 18000, Note_on_c, 9, 44, 104
11, 18000, Note_on_c, 9, 64, 115
11, 18000, Note_on_c, 9, 36, 43
11, 18000, Note_on_c, 9, 38, 56
11, 18060, Note_on_c, 9, 44, 0
11, 18070, Note_on_c, 9, 38, 0
11, 18070, Note_on_c, 9, 64, 0
11, 18110, Note_on_c, 9, 59, 0
11, 18150, Note_on_c, 9, 36, 0
11, 18160, Note_on_c, 9, 64, 114
11, 18220, Note_on_c, 9, 64, 0
11, 18240, Note_on_c, 9, 59, 111
11, 18240, Note_on_c, 9, 36, 44
11, 18340, Note_on_c, 9, 59, 0
11, 18420, Note_on_c, 9, 36, 0
11, 18480, Note_on_c, 9, 37, 112
11, 18480, Note_on_c, 9, 36, 50
11, 18480, Note_on_c, 9, 59, 111
11, 18480, Note_on_c, 9, 62, 117
11, 18480, Note_on_c, 9, 44, 107
11, 18550, Note_on_c, 9, 44, 0
11, 18550, Note_on_c, 9, 62, 0
11, 18580, Note_on_c, 9, 59, 0
11, 18600, Note_on_c, 9, 37, 0
11, 18660, Note_on_c, 9, 36, 0
11, 18720, Note_on_c, 9, 59, 110
11, 18720, Note_on_c, 9, 36, 46
11, 18830, Note_on_c, 9, 59, 0
11, 18840, Note_on_c, 9, 36, 0
11, 18880, Note_on_c, 9, 36, 43
11, 18880, Note_on_c, 9, 64, 103
11, 18920, Note_on_c, 9, 64, 0
11, 18920, Note_on_c, 9, 36, 0
11, 18960, Note_on_c, 9, 59, 111
11, 18960, Note_on_c, 9, 64, 115
11, 18960, Note_on_c, 9, 36, 44
11, 18960, Note_on_c, 9, 38, 57
11, 18960, Note_on_c, 9, 44, 108
11, 19020, Note_on_c, 9, 64, 0
11, 19030, Note_on_c, 9, 38, 0
11, 19040, Note_on_c, 9, 44, 0
11, 19060, Note_on_c, 9, 36, 0
11, 19080, Note_on_c, 9, 59, 0
11, 19120, Note_on_c, 9, 36, 40
11, 19120, Note_on_c, 9, 64, 117
11, 19160, Note_on_c, 9, 36, 0
11, 19170, Note_on_c, 9, 64, 0
11, 19200, Note_on_c, 9, 36, 43
11, 19200, Note_on_c, 9, 59, 110
11, 19320, Note_on_c, 9, 59, 0
11, 19350, Note_on_c, 9, 36, 0
11, 19440, Note_on_c, 9, 44, 108
11, 19440, Note_on_c, 9, 37, 114
11, 19440, Note_on_c, 9, 36, 50
11, 19440, Note_on_c, 9, 62, 110
11, 19440, Note_on_c, 9, 59, 113
11, 19510, Note_on_c, 9, 62, 0
11, 19520, Note_on_c, 9, 44, 0
11, 19530, Note_on_c, 9, 37, 0
11, 19550, Note_on_c, 9, 59, 0
11, 19610, Note_on_c, 9, 36, 0
11, 19680, Note_on_c, 9, 36, 47
11, 19680, Note_on_c, 9, 59, 110
11, 19760, Note_on_c, 9, 59, 0
11, 19850, Note_on_c, 9, 36, 0
11, 19920, Note_on_c, 9, 59, 113
11, 19920, Note_on_c, 9, 44, 103
11, 19920, Note_on_c, 9, 38, 55
11, 19920, Note_on_c, 9, 64, 113
11, 19920, Note_on_c, 9, 36, 46
11, 19980, Note_on_c, 9, 64, 0
11, 19990, Note_on_c, 9, 38, 0
11, 20010, Note_on_c, 9, 44, 0
11, 20030, Note_on_c, 9, 59, 0
11, 20080, Note_on_c, 9, 64, 113
11, 20090, Note_on_c, 9, 36, 0
11, 20150, Note_on_c, 9, 64, 0
11, 20160, Note_on_c, 9, 59, 111
11, 20160, Note_on_c, 9, 36, 44
11, 20240, Note_on_c, 9, 59, 0
11, 20330, Note_on_c, 9, 36, 0
11, 20400, Note_on_c, 9, 62, 119
11, 20400, Note_on_c, 9, 36, 49
11, 20400, Note_on_c, 9, 59, 110
11, 20400, Note_on_c, 9, 44, 107
11, 20400, Note_on_c, 9, 37, 112
11, 20460, Note_on_c, 9, 62, 0
11, 20470, Note_on_c, 9, 44, 0
11, 20500, Note_on_c, 9, 37, 0
11, 20520, Note_on_c, 9, 59, 0
11, 20580, Note_on_c, 9, 36, 0
11, 20640, Note_on_c, 9, 36, 47
11, 20640, Note_on_c, 9, 59, 110
11, 20730, Note_on_c, 9, 59, 0
11, 20810, Note_on_c, 9, 36, 0
11, 20880, Note_on_c, 9, 44, 103
11, 20880, Note_on_c, 9, 38, 56
11, 20880, Note_on_c, 9, 36, 45
11, 20880, Note_on_c, 9, 64, 117
11, 20880, Note_on_c, 9, 59, 111
11, 20940, Note_on_c, 9, 64, 0
11, 20950, Note_on_c, 9, 38, 0
11, 20950, Note_on_c, 9, 44, 0
11, 21000, Note_on_c, 9, 59, 0
11, 21040, Note_on_c, 9, 64, 118
11, 21060, Note_on_c, 9, 36, 0
11, 21110, Note_on_c, 9, 64, 0
11, 21120, Note_on_c, 9, 36, 45
11, 21120, Note_on_c, 9, 59, 106
11, 21230, Note_on_c, 9, 59, 0
11, 21280, Note_on_c, 9, 36, 0
11, 21360, Note_on_c, 9, 59, 111
11, 21360, Note_on_c, 9, 44, 109
11, 21360, Note_on_c, 9, 62, 119
11, 21360, Note_on_c, 9, 36, 46
11, 21360, Note_on_c, 9, 37, 111
11, 21420, Note_on_c, 9, 62, 0
11, 21440, Note_on_c, 9, 37, 0
11, 21460, Note_on_c, 9, 44, 0
11, 21480, Note_on_c, 9, 59, 0
11, 21510, Note_on_c, 9, 36, 0
11, 21600, Note_on_c, 9, 59, 111
11, 21600, Note_on_c, 9, 36, 45
11, 21700, Note_on_c, 9, 59, 0
11, 21800, Note_on_c, 9, 36, 0
11, 21840, Note_on_c, 9, 64, 117
11, 21840, Note_on_c, 9, 36, 45
11, 21840, Note_on_c, 9, 59, 110
11, 21840, Note_on_c, 9, 44, 101
11, 21840, Note_on_c, 9, 38, 56
11, 21900, Note_on_c, 9, 64, 0
11, 21930, Note_on_c, 9, 38, 0
11, 21940, Note_on_c, 9, 44, 0
11, 21960, Note_on_c, 9, 59, 0
11, 22000, Note_on_c, 9, 64, 118
11, 22010, Note_on_c, 9, 36, 0
11, 22070, Note_on_c, 9, 64, 0
11, 22080, Note_on_c, 9, 59, 106
11, 22080, Note_on_c, 9, 36, 45
11, 22190, Note_on_c, 9, 59, 0
11, 22260, Note_on_c, 9, 36, 0
11, 22320, Note_on_c, 9, 59, 105
11, 22320, Note_on_c, 9, 37, 114
11, 22320, Note_on_c, 9, 44, 105
11, 22320, Note_on_c, 9, 62, 119
11, 22320, Note_on_c, 9, 36, 45
11, 22380, Note_on_c, 9, 62, 0
11, 22390, Note_on_c, 9, 44, 0
11, 22410, Note_on_c, 9, 37, 0
11, 22420, Note_on_c, 9, 59, 0
11, 22500, Note_on_c, 9, 36, 0
11, 22560, Note_on_c, 9, 36, 44
11, 22560, Note_on_c, 9, 59, 110
11, 22640, Note_on_c, 9, 59, 0
11, 22720, Note_on_c, 9, 36, 0
11, 22800, Note_on_c, 9, 59, 110
11, 22800, Note_on_c, 9, 44, 109
11, 22800, Note_on_c, 9, 64, 118
11, 22800, Note_on_c, 9, 36, 45
11, 22800, Note_on_c, 9, 38, 62
11, 22860, Note_on_c, 9, 64, 0
11, 22860, Note_on_c, 9, 44, 0
11, 22880, Note_on_c, 9, 38, 0
11, 22900, Note_on_c, 9, 59, 0
11, 22960, Note_on_c, 9, 64, 117
11, 22970, Note_on_c, 9, 36, 0
11, 23030, Note_on_c, 9, 64, 0
11, 23040, Note_on_c, 9, 59, 104
11, 23040, Note_on_c, 9, 36, 46
11, 23120, Note_on_c, 9, 59, 0
11, 23210, Note_on_c, 9, 36, 0
11, 23280, Note_on_c, 9, 37, 112
11, 23280, Note_on_c, 9, 36, 45
11, 23280, Note_on_c, 9, 59, 109
11, 23280, Note_on_c, 9, 62, 119
11, 23280, Note_on_c, 9, 44, 105
11, 23340, Note_on_c, 9, 44, 0
11, 23340, Note_on_c, 9, 62, 0
11, 23360, Note_on_c, 9, 59, 0
11, 23370, Note_on_c, 9, 37, 0
11, 23450, Note_on_c, 9, 36, 0
11, 23520, Note_on_c, 9, 59, 105
11, 23520, Note_on_c, 9, 36, 45
11, 23580, Note_on_c, 9, 59, 0
11, 23690, Note_on_c, 9, 36, 0
11, 23760, Note_on_c, 9, 59, 99
11, 23760, Note_on_c, 9, 38, 58
11, 23760, Note_on_c, 9, 44, 108
11, 23760, Note_on_c, 9, 64, 119
11, 23760, Note_on_c, 9, 36, 44
11, 23820, Note_on_c, 9, 64, 0
11, 23830, Note_on_c, 9, 44, 0
11, 23840, Note_on_c, 9, 38, 0
11, 23860, Note_on_c, 9, 59, 0
11, 23920, Note_on_c, 9, 64, 118
11, 23930, Note_on_c, 9, 36, 0
11, 23980, Note_on_c, 9, 64, 0
11, 24000, Note_on_c, 9, 36, 42
11, 24000, Note_on_c, 9, 59, 111
11, 24080, Note_on_c, 9, 59, 0
11, 24170, Note_on_c, 9, 36, 0
11, 24240, Note_on_c, 9, 59, 114
11, 24240, Note_on_c, 9, 62, 119
11, 24240, Note_on_c, 9, 37, 115
11, 24240, Note_on_c, 9, 44, 108
11, 24240, Note_on_c, 9, 36, 45
11, 24300, Note_on_c, 9, 62, 0
11, 24310, Note_on_c, 9, 44, 0
11, 24340, Note_on_c, 9, 59, 0
11, 24360, Note_on_c, 9, 37, 0
11, 24420, Note_on_c, 9, 36, 0
11, 24480, Note_on_c, 9, 36, 43
11, 24480, Note_on_c, 9, 59, 110
11, 24540, Note_on_c, 9, 59, 0
11, 24630, Note_on_c, 9, 36, 0
11, 24640, Note_on_c, 9, 64, 103
11, 24680, Note_on_c, 9, 64, 0
11, 24720, Note_on_c, 9, 38, 57
11, 24720, Note_on_c, 9, 36, 43
11, 24720, Note_on_c, 9, 59, 111
11, 24720, Note_on_c, 9, 44, 104
11, 24720, Note_on_c, 9, 64, 115
11, 24780, Note_on_c, 9, 64, 0
11, 24780, Note_on_c, 9, 38, 0
11, 24780, Note_on_c, 9, 44, 0
11, 24810, Note_on_c, 9, 59, 0
11, 24880, Note_on_c, 9, 64, 117
11, 24900, Note_on_c, 9, 36, 0
11, 24940, Note_on_c, 9, 64, 0
11, 24960, Note_on_c, 9, 36, 45
11, 24960, Note_on_c, 9, 59, 111
11, 25030, Note_on_c, 9, 59, 0
11, 25120, Note_on_c, 9, 36, 0
11, 25200, Note_on_c, 9, 44, 108
11, 25200, Note_on_c, 9, 37, 114
11, 25200, Note_on_c, 9, 36, 47
11, 25200, Note_on_c, 9, 62, 119
11, 25200, Note_on_c, 9, 59, 110
11, 25260, Note_on_c, 9, 62, 0
11, 25260, Note_on_c, 9, 44, 0
11, 25290, Note_on_c, 9, 59, 0
11, 25300, Note_on_c, 9, 37, 0
11, 25380, Note_on_c, 9, 36, 0
11, 25440, Note_on_c, 9, 36, 46
11, 25440, Note_on_c, 9, 59, 111
11, 25510, Note_on_c, 9, 59, 0
11, 25610, Note_on_c, 9, 36, 0
11, 25680, Note_on_c, 9, 59, 111
11, 25680, Note_on_c, 9, 44, 100
11, 25680, Note_on_c, 9, 38, 57
11, 25680, Note_on_c, 9, 64, 121
11, 25680, Note_on_c, 9, 36, 45
11, 25740, Note_on_c, 9, 64, 0
11, 25740, Note_on_c, 9, 38, 0
11, 25750, Note_on_c, 9, 44, 0
11, 25770, Note_on_c, 9, 59, 0
11, 25840, Note_on_c, 9, 64, 114
11, 25850, Note_on_c, 9, 36, 0
11, 25900, Note_on_c, 9, 64, 0
11, 25920, Note_on_c, 9, 59, 110
11, 25920, Note_on_c, 9, 36, 46
11, 25990, Note_on_c, 9, 59, 0
11, 26100, Note_on_c, 9, 36, 0
11, 26160, Note_on_c, 9, 62, 117
11, 26160, Note_on_c, 9, 36, 46
11, 26160, Note_on_c, 9, 59, 111
11, 26160, Note_on_c, 9, 44, 109
11, 26160, Note_on_c, 9, 37, 115
11, 26220, Note_on_c, 9, 44, 0
11, 26220, Note_on_c, 9, 62, 0
11, 26250, Note_on_c, 9, 59, 0
11, 26260, Note_on_c, 9, 37, 0
11, 26340, Note_on_c, 9, 36, 0
11, 26400, Note_on_c, 9, 36, 47
11, 26400, Note_on_c, 9, 59, 111
11, 26470, Note_on_c, 9, 59, 0
11, 26560, Note_on_c, 9, 36, 0
11, 26640, Note_on_c, 9, 44, 105
11, 26640, Note_on_c, 9, 38, 55
11, 26640, Note_on_c, 9, 36, 46
11, 26640, Note_on_c, 9, 64, 118
11, 26640, Note_on_c, 9, 59, 114
11, 26700, Note_on_c, 9, 64, 0
11, 26710, Note_on_c, 9, 38, 0
11, 26710, Note_on_c, 9, 59, 0
11, 26720, Note_on_c, 9, 44, 0
11, 26800, Note_on_c, 9, 64, 115
11, 26820, Note_on_c, 9, 36, 0
11, 26870, Note_on_c, 9, 64, 0
11, 26880, Note_on_c, 9, 36, 42
11, 26880, Note_on_c, 9, 59, 105
11, 26950, Note_on_c, 9, 59, 0
11, 27040, Note_on_c, 9, 36, 0
11, 27120, Note_on_c, 9, 59, 113
11, 27120, Note_on_c, 9, 44, 108
11, 27120, Note_on_c, 9, 62, 118
11, 27120, Note_on_c, 9, 36, 45
11, 27120, Note_on_c, 9, 37, 112
11, 27170, Note_on_c, 9, 62, 0
11, 27210, Note_on_c, 9, 59, 0
11, 27210, Note_on_c, 9, 44, 0
11, 27250, Note_on_c, 9, 37, 0
11, 27300, Note_on_c, 9, 36, 0
11, 27360, Note_on_c, 9, 59, 111
11, 27360, Note_on_c, 9, 36, 44
11, 27430, Note_on_c, 9, 59, 0
11, 27530, Note_on_c, 9, 36, 0
11, 27600, Note_on_c, 9, 64, 117
11, 27600, Note_on_c, 9, 36, 46
11, 27600, Note_on_c, 9, 59, 110
11, 27600, Note_on_c, 9, 44, 102
11, 27600, Note_on_c, 9, 38, 55
11, 27660, Note_on_c, 9, 64, 0
11, 27680, Note_on_c, 9, 44, 0
11, 27680, Note_on_c, 9, 38, 0
11, 27700, Note_on_c, 9, 59, 0
11, 27760, Note_on_c, 9, 64, 118
11, 27770, Note_on_c, 9, 36, 0
11, 27820, Note_on_c, 9, 64, 0
11, 27840, Note_on_c, 9, 59, 110
11, 27840, Note_on_c, 9, 36, 46
11, 27930, Note_on_c, 9, 59, 0
11, 28000, Note_on_c, 9, 36, 0
11, 28080, Note_on_c, 9, 59, 113
11, 28080, Note_on_c, 9, 37, 112
11, 28080, Note_on_c, 9, 44, 107
11, 28080, Note_on_c, 9, 62, 118
11, 28080, Note_on_c, 9, 36, 44
11, 28140, Note_on_c, 9, 62, 0
11, 28150, Note_on_c, 9, 44, 0
11, 28180, Note_on_c, 9, 59, 0
11, 28240, Note_on_c, 9, 36, 0
11, 28260, Note_on_c, 9, 37, 0
11, 28320, Note_on_c, 9, 36, 49
11, 28320, Note_on_c, 9, 59, 110
11, 28410, Note_on_c, 9, 59, 0
11, 28500, Note_on_c, 9, 36, 0
11, 28560, Note_on_c, 9, 59, 114
11, 28560, Note_on_c, 9, 44, 104
11, 28560, Note_on_c, 9, 64, 118
11, 28560, Note_on_c, 9, 36, 46
11, 28560, Note_on_c, 9, 38, 57
11, 28560, Note_on_c, 9, 37, 110
11, 28620, Note_on_c, 9, 64, 0
11, 28640, Note_on_c, 9, 38, 0
11, 28640, Note_on_c, 9, 44, 0
11, 28670, Note_on_c, 9, 59, 0
11, 28720, Note_on_c, 9, 64, 117
11, 28730, Note_on_c, 9, 36, 0
11, 28780, Note_on_c, 9, 64, 0
11, 28800, Note_on_c, 9, 59, 113
11, 28800, Note_on_c, 9, 36, 46
11, 28820, Note_on_c, 9, 37, 0
11, 28870, Note_on_c, 9, 59, 0
11, 28960, Note_on_c, 9, 36, 0
11, 29040, Note_on_c, 9, 44, 107
11, 29040, Note_on_c, 9, 36, 46
11, 29040, Note_on_c, 9, 37, 108
11, 29040, Note_on_c, 9, 62, 115
11, 29040, Note_on_c, 9, 59, 113
11, 29090, Note_on_c, 9, 62, 0
11, 29120, Note_on_c, 9, 44, 0
11, 29150, Note_on_c, 9, 59, 0
11, 29190, Note_on_c, 9, 36, 0
11, 29280, Note_on_c, 9, 36, 46
11, 29280, Note_on_c, 9, 59, 111
11, 29360, Note_on_c, 9, 59, 0
11, 29410, Note_on_c, 9, 37, 0
11, 29440, Note_on_c, 9, 36, 0
11, 29520, Note_on_c, 9, 64, 117
11, 29520, Note_on_c, 9, 59, 113
11, 29520, Note_on_c, 9, 44, 105
11, 29520, Note_on_c, 9, 36, 49
11, 29520, Note_on_c, 9, 38, 56
11, 29520, Note_on_c, 9, 37, 109
11, 29580, Note_on_c, 9, 38, 0
11, 29590, Note_on_c, 9, 44, 0
11, 29590, Note_on_c, 9, 64, 0
11, 29620, Note_on_c, 9, 59, 0
11, 29680, Note_on_c, 9, 64, 117
11, 29700, Note_on_c, 9, 36, 0
11, 29740, Note_on_c, 9, 64, 0
11, 29760, Note_on_c, 9, 36, 49
11, 29760, Note_on_c, 9, 59, 111
11, 29830, Note_on_c, 9, 59, 0
11, 29880, Note_on_c, 9, 37, 0
11, 29940, Note_on_c, 9, 36, 0
11, 30000, Note_on_c, 9, 59, 110
11, 30000, Note_on_c, 9, 44, 108
11, 30000, Note_on_c, 9, 37, 110
11, 30000, Note_on_c, 9, 36, 47
11, 30000, Note_on_c, 9, 62, 119
11, 30060, Note_on_c, 9, 62, 0
11, 30090, Note_on_c, 9, 44, 0
11, 30110, Note_on_c, 9, 59, 0
11, 30160, Note_on_c, 9, 36, 0
11, 30240, Note_on_c, 9, 36, 49
11, 30240, Note_on_c, 9, 59, 110
11, 30310, Note_on_c, 9, 59, 0
11, 30380, Note_on_c, 9, 37, 0
11, 30410, Note_on_c, 9, 36, 0
11, 30480, Note_on_c, 9, 44, 104
11, 30480, Note_on_c, 9, 37, 111
11, 30480, Note_on_c, 9, 38, 57
11, 30480, Note_on_c, 9, 59, 111
11, 30480, Note_on_c, 9, 64, 118
11, 30480, Note_on_c, 9, 36, 46
11, 30540, Note_on_c, 9, 64, 0
11, 30540, Note_on_c, 9, 38, 0
11, 30550, Note_on_c, 9, 44, 0
11, 30590, Note_on_c, 9, 59, 0
11, 30640, Note_on_c, 9, 64, 115
11, 30670, Note_on_c, 9, 36, 0
11, 30700, Note_on_c, 9, 64, 0
11, 30720, Note_on_c, 9, 59, 109
11, 30720, Note_on_c, 9, 36, 45
11, 30800, Note_on_c, 9, 59, 0
11, 30870, Note_on_c, 9, 36, 0
11, 30870, Note_on_c, 9, 37, 0
11, 30960, Note_on_c, 9, 62, 119
11, 30960, Note_on_c, 9, 36, 47
11, 30960, Note_on_c, 9, 59, 113
11, 30960, Note_on_c, 9, 44, 107
11, 30960, Note_on_c, 9, 37, 110
11, 31020, Note_on_c, 9, 44, 0
11, 31030, Note_on_c, 9, 62, 0
11, 31050, Note_on_c, 9, 59, 0
11, 31140, Note_on_c, 9, 36, 0
11, 31200, Note_on_c, 9, 36, 45
11, 31200, Note_on_c, 9, 59, 109
11, 31250, Note_on_c, 9, 59, 0
11, 31340, Note_on_c, 9, 37, 0
11, 31360, Note_on_c, 9, 36, 0
11, 31440, Note_on_c, 9, 44, 102
11, 31440, Note_on_c, 9, 38, 55
11, 31440, Note_on_c, 9, 37, 110
11, 31440, Note_on_c, 9, 64, 117
11, 31440, Note_on_c, 9, 59, 109
11, 31440, Note_on_c, 9, 36, 46
11, 31500, Note_on_c, 9, 64, 0
11, 31500, Note_on_c, 9, 38, 0
11, 31510, Note_on_c, 9, 44, 0
11, 31530, Note_on_c, 9, 59, 0
11, 31600, Note_on_c, 9, 64, 119
11, 31610, Note_on_c, 9, 36, 0
11, 31660, Note_on_c, 9, 64, 0
11, 31680, Note_on_c, 9, 36, 45
11, 31680, Note_on_c, 9, 59, 111
11, 31760, Note_on_c, 9, 59, 0
11, 31840, Note_on_c, 9, 37, 0
11, 31850, Note_on_c, 9, 36, 0
11, 31920, Note_on_c, 9, 59, 110
11, 31920, Note_on_c, 9, 62, 121
11, 31920, Note_on_c, 9, 36, 49
11, 31920, Note_on_c, 9, 44, 105
11, 31920, Note_on_c, 9, 37, 112
11, 31980, Note_on_c, 9, 62, 0
11, 32000, Note_on_c, 9, 44, 0
11, 32000, Note_on_c, 9, 59, 0
11, 32100, Note_on_c, 9, 36, 0
11, 32160, Note_on_c, 9, 59, 110
11, 32160, Note_on_c, 9, 36, 49
11, 32230, Note_on_c, 9, 59, 0
11, 32320, Note_on_c, 9, 36, 0
11, 32330, Note_on_c, 9, 37, 0
11, 32400, Note_on_c, 9, 38, 57
11, 32400, Note_on_c, 9, 37, 111
11, 32400, Note_on_c, 9, 36, 47
11, 32400, Note_on_c, 9, 64, 118
11, 32400, Note_on_c, 9, 59, 110
11, 32400, Note_on_c, 9, 44, 105
11, 32460, Note_on_c, 9, 64, 0
11, 32470, Note_on_c, 9, 38, 0
11, 32480, Note_on_c, 9, 44, 0
11, 32510, Note_on_c, 9, 59, 0
11, 32560, Note_on_c, 9, 64, 119
11, 32570, Note_on_c, 9, 36, 0
11, 32610, Note_on_c, 9, 64, 0
11, 32640, Note_on_c, 9, 36, 46
11, 32640, Note_on_c, 9, 59, 96
11, 32700, Note_on_c, 9, 37, 0
11, 32710, Note_on_c, 9, 59, 0
11, 32800, Note_on_c, 9, 36, 0
11, 32880, Note_on_c, 9, 62, 119
11, 32880, Note_on_c, 9, 59, 109
11, 32880, Note_on_c, 9, 36, 47
11, 32880, Note_on_c, 9, 44, 105
11, 32880, Note_on_c, 9, 37, 98
11, 32930, Note_on_c, 9, 62, 0
11, 32950, Note_on_c, 9, 44, 0
11, 32980, Note_on_c, 9, 59, 0
11, 33020, Note_on_c, 9, 37, 0
11, 33050, Note_on_c, 9, 36, 0
11, 33120, Note_on_c, 9, 36, 45
11, 33120, Note_on_c, 9, 59, 111
11, 33200, Note_on_c, 9, 59, 0
11, 33300, Note_on_c, 9, 36, 0
11, 33360, Note_on_c, 9, 64, 118
11, 33360, Note_on_c, 9, 38, 56
11, 33360, Note_on_c, 9, 36, 43
11, 33360, Note_on_c, 9, 44, 103
11, 33360, Note_on_c, 9, 59, 114
11, 33410, Note_on_c, 9, 64, 0
11, 33420, Note_on_c, 9, 44, 0
11, 33420, Note_on_c, 9, 38, 0
11, 33450, Note_on_c, 9, 59, 0
11, 33520, Note_on_c, 9, 64, 122
11, 33530, Note_on_c, 9, 36, 0
11, 33570, Note_on_c, 9, 64, 0
11, 33600, Note_on_c, 9, 36, 49
11, 33600, Note_on_c, 9, 59, 110
11, 33670, Note_on_c, 9, 59, 0
11, 33790, Note_on_c, 9, 36, 0
11, 33840, Note_on_c, 9, 59, 113
11, 33840, Note_on_c, 9, 44, 110
11, 33840, Note_on_c, 9, 37, 111
11, 33840, Note_on_c, 9, 62, 118
11, 33840, Note_on_c, 9, 36, 45
11, 33890, Note_on_c, 9, 62, 0
11, 33900, Note_on_c, 9, 44, 0
11, 33930, Note_on_c, 9, 59, 0
11, 33930, Note_on_c, 9, 37, 0
11, 34020, Note_on_c, 9, 36, 0
11, 34080, Note_on_c, 9, 36, 49
11, 34080, Note_on_c, 9, 59, 111
11, 34150, Note_on_c, 9, 59, 0
11, 34240, Note_on_c, 9, 36, 0
11, 34240, Note_on_c, 9, 64, 105
11, 34280, Note_on_c, 9, 64, 0
11, 34320, Note_on_c, 9, 64, 121
11, 34320, Note_on_c, 9, 36, 50
11, 34320, Note_on_c, 9, 59, 113
11, 34320, Note_on_c, 9, 44, 104
11, 34320, Note_on_c, 9, 38, 55
11, 34370, Note_on_c, 9, 64, 0
11, 34380, Note_on_c, 9, 38, 0
11, 34390, Note_on_c, 9, 44, 0
11, 34420, Note_on_c, 9, 59, 0
11, 34480, Note_on_c, 9, 64, 119
11, 34490, Note_on_c, 9, 36, 0
11, 34540, Note_on_c, 9, 64, 0
11, 34560, Note_on_c, 9, 59, 110
11, 34560, Note_on_c, 9, 36, 47
11, 34630, Note_on_c, 9, 59, 0
11, 34710, Note_on_c, 9, 36, 0
11, 34800, Note_on_c, 9, 59, 113
11, 34800, Note_on_c, 9, 37, 114
11, 34800, Note_on_c, 9, 44, 104
11, 34800, Note_on_c, 9, 62, 121
11, 34800, Note_on_c, 9, 36, 49
11, 34850, Note_on_c, 9, 44, 0
11, 34860, Note_on_c, 9, 62, 0
11, 34880, Note_on_c, 9, 37, 0
11, 34890, Note_on_c, 9, 59, 0
11, 34980, Note_on_c, 9, 36, 0
11, 35040, Note_on_c, 9, 36, 44
11, 35040, Note_on_c, 9, 59, 110
11, 35100, Note_on_c, 9, 59, 0
11, 35220, Note_on_c, 9, 36, 0
11, 35280, Note_on_c, 9, 59, 111
11, 35280, Note_on_c, 9, 44, 103
11, 35280, Note_on_c, 9, 64, 121
11, 35280, Note_on_c, 9, 38, 55
11, 35280, Note_on_c, 9, 36, 46
11, 35330, Note_on_c, 9, 64, 0
11, 35340, Note_on_c, 9, 38, 0
11, 35340, Note_on_c, 9, 44, 0
11, 35370, Note_on_c, 9, 59, 0
11, 35440, Note_on_c, 9, 64, 119
11, 35460, Note_on_c, 9, 36, 0
11, 35490, Note_on_c, 9, 64, 0
11, 35520, Note_on_c, 9, 59, 113
11, 35520, Note_on_c, 9, 36, 46
11, 35590, Note_on_c, 9, 59, 0
11, 35700, Note_on_c, 9, 36, 0
11, 35760, Note_on_c, 9, 37, 110
11, 35760, Note_on_c, 9, 36, 49
11, 35760, Note_on_c, 9, 44, 105
11, 35760, Note_on_c, 9, 62, 121
11, 35760, Note_on_c, 9, 59, 110
11, 35810, Note_on_c, 9, 62, 0
11, 35830, Note_on_c, 9, 44, 0
11, 35840, Note_on_c, 9, 59, 0
11, 35840, Note_on_c, 9, 37, 0
11, 35940, Note_on_c, 9, 36, 0
11, 36000, Note_on_c, 9, 36, 47
11, 36000, Note_on_c, 9, 59, 110
11, 36070, Note_on_c, 9, 59, 0
11, 36180, Note_on_c, 9, 36, 0
11, 36240, Note_on_c, 9, 64, 119
11, 36240, Note_on_c, 9, 38, 55
11, 36240, Note_on_c, 9, 36, 47
11, 36240, Note_on_c, 9, 44, 99
11, 36240, Note_on_c, 9, 59, 110
11, 36290, Note_on_c, 9, 38, 0
11, 36290, Note_on_c, 9, 64, 0
11, 36300, Note_on_c, 9, 44, 0
11, 36350, Note_on_c, 9, 59, 0
11, 36400, Note_on_c, 9, 64, 118
11, 36410, Note_on_c, 9, 36, 0
11, 36460, Note_on_c, 9, 64, 0
11, 36480, Note_on_c, 9, 36, 50
11, 36480, Note_on_c, 9, 59, 111
11, 36550, Note_on_c, 9, 59, 0
11, 36640, Note_on_c, 9, 36, 0
11, 36720, Note_on_c, 9, 59, 111
11, 36720, Note_on_c, 9, 44, 103
11, 36720, Note_on_c, 9, 37, 111
11, 36720, Note_on_c, 9, 62, 118
11, 36720, Note_on_c, 9, 36, 46
11, 36780, Note_on_c, 9, 62, 0
11, 36780, Note_on_c, 9, 37, 0
11, 36780, Note_on_c, 9, 44, 0
11, 36790, Note_on_c, 9, 59, 0
11, 36890, Note_on_c, 9, 36, 0
11, 36960, Note_on_c, 9, 36, 46
11, 36960, Note_on_c, 9, 59, 108
11, 37020, Note_on_c, 9, 59, 0
11, 37130, Note_on_c, 9, 36, 0
11, 37200, Note_on_c, 9, 64, 117
11, 37200, Note_on_c, 9, 59, 113
11, 37200, Note_on_c, 9, 36, 47
11, 37200, Note_on_c, 9, 44, 102
11, 37200, Note_on_c, 9, 38, 55
11, 37250, Note_on_c, 9, 38, 0
11, 37250, Note_on_c, 9, 44, 0
11, 37260, Note_on_c, 9, 64, 0
11, 37280, Note_on_c, 9, 59, 0
11, 37360, Note_on_c, 9, 36, 0
11, 37360, Note_on_c, 9, 64, 115
11, 37420, Note_on_c, 9, 64, 0
11, 37440, Note_on_c, 9, 36, 46
11, 37440, Note_on_c, 9, 59, 111
11, 37510, Note_on_c, 9, 59, 0
11, 37600, Note_on_c, 9, 36, 0
11, 37680, Note_on_c, 9, 44, 108
11, 37680, Note_on_c, 9, 37, 111
11, 37680, Note_on_c, 9, 36, 47
11, 37680, Note_on_c, 9, 62, 118
11, 37680, Note_on_c, 9, 59, 111
11, 37740, Note_on_c, 9, 62, 0
11, 37740, Note_on_c, 9, 44, 0
11, 37760, Note_on_c, 9, 59, 0
11, 37770, Note_on_c, 9, 37, 0
11, 37870, Note_on_c, 9, 36, 0
11, 37920, Note_on_c, 9, 36, 47
11, 37920, Note_on_c, 9, 59, 111
11, 38000, Note_on_c, 9, 59, 0
11, 38090, Note_on_c, 9, 36, 0
11, 38160, Note_on_c, 9, 59, 113
11, 38160, Note_on_c, 9, 44, 107
11, 38160, Note_on_c, 9, 38, 56
11, 38160, Note_on_c, 9, 64, 118
11, 38160, Note_on_c, 9, 36, 49
11, 38210, Note_on_c, 9, 38, 0
11, 38220, Note_on_c, 9, 64, 0
11, 38230, Note_on_c, 9, 44, 0
11, 38260, Note_on_c, 9, 59, 0
11, 38320, Note_on_c, 9, 64, 115
11, 38330, Note_on_c, 9, 36, 0
11, 38380, Note_on_c, 9, 64, 0
11, 38400, Note_on_c, 9, 59, 114
11, 38400, Note_on_c, 9, 36, 47
11, 38470, Note_on_c, 9, 59, 0
11, 38590, Note_on_c, 9, 36, 0
11, 38640, Note_on_c, 9, 62, 119
11, 38640, Note_on_c, 9, 36, 49
11, 38640, Note_on_c, 9, 59, 115
11, 38640, Note_on_c, 9, 44, 104
11, 38640, Note_on_c, 9, 37, 114
11, 38690, Note_on_c, 9, 44, 0
11, 38690, Note_on_c, 9, 62, 0
11, 38720, Note_on_c, 9, 37, 0
11, 38720, Note_on_c, 9, 59, 0
11, 38810, Note_on_c, 9, 36, 0
11, 38880, Note_on_c, 9, 36, 50
11, 38880, Note_on_c, 9, 59, 110
11, 38940, Note_on_c, 9, 59, 0
11, 39050, Note_on_c, 9, 36, 0
11, 39120, Note_on_c, 9, 44, 103
11, 39120, Note_on_c, 9, 38, 56
11, 39120, Note_on_c, 9, 36, 50
11, 39120, Note_on_c, 9, 64, 114
11, 39120, Note_on_c, 9, 59, 111
11, 39180, Note_on_c, 9, 64, 0
11, 39190, Note_on_c, 9, 38, 0
11, 39190, Note_on_c, 9, 44, 0
11, 39200, Note_on_c, 9, 59, 0
11, 39280, Note_on_c, 9, 64, 115
11, 39290, Note_on_c, 9, 36, 0
11, 39340, Note_on_c, 9, 64, 0
11, 39360, Note_on_c, 9, 36, 49
11, 39360, Note_on_c, 9, 59, 111
11, 39430, Note_on_c, 9, 59, 0
11, 39520, Note_on_c, 9, 36, 0
11, 39600, Note_on_c, 9, 59, 113
11, 39600, Note_on_c, 9, 44, 104
11, 39600, Note_on_c, 9, 62, 118
11, 39600, Note_on_c, 9, 36, 49
11, 39600, Note_on_c, 9, 37, 111
11, 39650, Note_on_c, 9, 62, 0
11, 39660, Note_on_c, 9, 44, 0
11, 39670, Note_on_c, 9, 37, 0
11, 39680, Note_on_c, 9, 59, 0
11, 39780, Note_on_c, 9, 36, 0
11, 39840, Note_on_c, 9, 59, 114
11, 39840, Note_on_c, 9, 36, 49
11, 39900, Note_on_c, 9, 59, 0
11, 40020, Note_on_c, 9, 36, 0
11, 40080, Note_on_c, 9, 64, 118
11, 40080, Note_on_c, 9, 36, 47
11, 40080, Note_on_c, 9, 59, 113
11, 40080, Note_on_c, 9, 44, 101
11, 40080, Note_on_c, 9, 38, 55
11, 40130, Note_on_c, 9, 38, 0
11, 40130, Note_on_c, 9, 44, 0
11, 40140, Note_on_c, 9, 59, 0
11, 40140, Note_on_c, 9, 64, 0
11, 40240, Note_on_c, 9, 64, 117
11, 40250, Note_on_c, 9, 36, 0
11, 40290, Note_on_c, 9, 64, 0
11, 40320, Note_on_c, 9, 59, 111
11, 40320, Note_on_c, 9, 36, 50
11, 40370, Note_on_c, 9, 59, 0
11, 40490, Note_on_c, 9, 36, 0
11, 40560, Note_on_c, 9, 59, 113
11, 40560, Note_on_c, 9, 37, 114
11, 40560, Note_on_c, 9, 44, 109
11, 40560, Note_on_c, 9, 62, 117
11, 40560, Note_on_c, 9, 36, 46
11, 40600, Note_on_c, 9, 62, 0
11, 40610, Note_on_c, 9, 44, 0
11, 40630, Note_on_c, 9, 59, 0
11, 40640, Note_on_c, 9, 37, 0
11, 40730, Note_on_c, 9, 36, 0
11, 40800, Note_on_c, 9, 36, 47
11, 40800, Note_on_c, 9, 59, 113
11, 40860, Note_on_c, 9, 59, 0
11, 40960, Note_on_c, 9, 36, 0
11, 41040, Note_on_c, 9, 59, 114
11, 41040, Note_on_c, 9, 44, 104
11, 41040, Note_on_c, 9, 64, 117
11, 41040, Note_on_c, 9, 36, 47
11, 41040, Note_on_c, 9, 38, 55
11, 41090, Note_on_c, 9, 38, 0
11, 41100, Note_on_c, 9, 59, 0
11, 41100, Note_on_c, 9, 64, 0
11, 41100, Note_on_c, 9, 44, 0
11, 41200, Note_on_c, 9, 64, 117
11, 41210, Note_on_c, 9, 36, 0
11, 41250, Note_on_c, 9, 64, 0
11, 41280, Note_on_c, 9, 36, 47
11, 41280, Note_on_c, 9, 59, 109
11, 41330, Note_on_c, 9, 59, 0
11, 41460, Note_on_c, 9, 36, 0
11, 41520, Note_on_c, 9, 37, 115
11, 41520, Note_on_c, 9, 36, 49
11, 41520, Note_on_c, 9, 62, 117
11, 41520, Note_on_c, 9, 59, 111
11, 41520, Note_on_c, 9, 44, 108
11, 41570, Note_on_c, 9, 62, 0
11, 41580, Note_on_c, 9, 44, 0
11, 41590, Note_on_c, 9, 59, 0
11, 41590, Note_on_c, 9, 37, 0
11, 41690, Note_on_c, 9, 36, 0
11, 41760, Note_on_c, 9, 36, 47
11, 41760, Note_on_c, 9, 59, 113
11, 41810, Note_on_c, 9, 59, 0
11, 41920, Note_on_c, 9, 36, 0
11, 42000, Note_on_c, 9, 44, 99
11, 42000, Note_on_c, 9, 38, 52
11, 42000, Note_on_c, 9, 36, 49
11, 42000, Note_on_c, 9, 64, 110
11, 42000, Note_on_c, 9, 59, 114
11, 42040, Note_on_c, 9, 38, 0
11, 42050, Note_on_c, 9, 44, 0
11, 42060, Note_on_c, 9, 64, 0
11, 42070, Note_on_c, 9, 59, 0
11, 42160, Note_on_c, 9, 64, 115
11, 42170, Note_on_c, 9, 36, 0
11, 42210, Note_on_c, 9, 64, 0
11, 42240, Note_on_c, 9, 36, 50
11, 42240, Note_on_c, 9, 59, 109
11, 42300, Note_on_c, 9, 59, 0
11, 42420, Note_on_c, 9, 36, 0
11, 42480, Note_on_c, 9, 59, 113
11, 42480, Note_on_c, 9, 44, 108
11, 42480, Note_on_c, 9, 62, 118
11, 42480, Note_on_c, 9, 36, 46
11, 42480, Note_on_c, 9, 37, 111
11, 42540, Note_on_c, 9, 62, 0
11, 42540, Note_on_c, 9, 44, 0
11, 42550, Note_on_c, 9, 59, 0
11, 42570, Note_on_c, 9, 37, 0
11, 42660, Note_on_c, 9, 36, 0
11, 42720, Note_on_c, 9, 59, 113
11, 42720, Note_on_c, 9, 36, 46
11, 42780, Note_on_c, 9, 59, 0
11, 42900, Note_on_c, 9, 36, 0
11, 42960, Note_on_c, 9, 64, 119
11, 42960, Note_on_c, 9, 36, 45
11, 42960, Note_on_c, 9, 59, 113
11, 42960, Note_on_c, 9, 44, 100
11, 42960, Note_on_c, 9, 38, 55
11, 43010, Note_on_c, 9, 38, 0
11, 43010, Note_on_c, 9, 64, 0
11, 43010, Note_on_c, 9, 44, 0
11, 43030, Note_on_c, 9, 59, 0
11, 43120, Note_on_c, 9, 64, 117
11, 43140, Note_on_c, 9, 36, 0
11, 43170, Note_on_c, 9, 64, 0
11, 43200, Note_on_c, 9, 59, 113
11, 43200, Note_on_c, 9, 36, 49
11, 43260, Note_on_c, 9, 59, 0
11, 43370, Note_on_c, 9, 36, 0
11, 43440, Note_on_c, 9, 59, 113
11, 43440, Note_on_c, 9, 37, 112
11, 43440, Note_on_c, 9, 44, 108
11, 43440, Note_on_c, 9, 62, 119
11, 43440, Note_on_c, 9, 36, 49
11, 43490, Note_on_c, 9, 44, 0
11, 43500, Note_on_c, 9, 62, 0
11, 43510, Note_on_c, 9, 59, 0
11, 43530, Note_on_c, 9, 37, 0
11, 43630, Note_on_c, 9, 36, 0
11, 43680, Note_on_c, 9, 36, 47
11, 43680, Note_on_c, 9, 59, 109
11, 43740, Note_on_c, 9, 59, 0
11, 43860, Note_on_c, 9, 36, 0
11, 43920, Note_on_c, 9, 59, 113
11, 43920, Note_on_c, 9, 44, 103
11, 43920, Note_on_c, 9, 64, 119
11, 43920, Note_on_c, 9, 36, 50
11, 43920, Note_on_c, 9, 38, 57
11, 43960, Note_on_c, 9, 38, 0
11, 43970, Note_on_c, 9, 64, 0
11, 43980, Note_on_c, 9, 44, 0
11, 43990, Note_on_c, 9, 59, 0
11, 44080, Note_on_c, 9, 64, 113
11, 44090, Note_on_c, 9, 36, 0
11, 44130, Note_on_c, 9, 64, 0
11, 44160, Note_on_c, 9, 59, 111
11, 44160, Note_on_c, 9, 36, 51
11, 44220, Note_on_c, 9, 59, 0
11, 44340, Note_on_c, 9, 36, 0
11, 44400, Note_on_c, 9, 37, 112
11, 44400, Note_on_c, 9, 36, 46
11, 44400, Note_on_c, 9, 59, 115
11, 44400, Note_on_c, 9, 62, 117
11, 44400, Note_on_c, 9, 44, 107
11, 44450, Note_on_c, 9, 44, 0
11, 44450, Note_on_c, 9, 62, 0
11, 44460, Note_on_c, 9, 59, 0
11, 44520, Note_on_c, 9, 37, 0
11, 44580, Note_on_c, 9, 36, 0
11, 44640, Note_on_c, 9, 59, 113
11, 44640, Note_on_c, 9, 36, 47
11, 44700, Note_on_c, 9, 59, 0
11, 44830, Note_on_c, 9, 36, 0
11, 44880, Note_on_c, 9, 59, 114
11, 44880, Note_on_c, 9, 38, 57
11, 44880, Note_on_c, 9, 44, 107
11, 44880, Note_on_c, 9, 64, 117
11, 44880, Note_on_c, 9, 36, 47
11, 44930, Note_on_c, 9, 44, 0
11, 44930, Note_on_c, 9, 38, 0
11, 44940, Note_on_c, 9, 64, 0
11, 44950, Note_on_c, 9, 59, 0
11, 45040, Note_on_c, 9, 64, 117
11, 45050, Note_on_c, 9, 36, 0
11, 45090, Note_on_c, 9, 64, 0
11, 45120, Note_on_c, 9, 36, 47
11, 45120, Note_on_c, 9, 59, 108
11, 45190, Note_on_c, 9, 59, 0
11, 45290, Note_on_c, 9, 36, 0
11, 45360, Note_on_c, 9, 59, 110
11, 45360, Note_on_c, 9, 62, 118
11, 45360, Note_on_c, 9, 36, 47
11, 45360, Note_on_c, 9, 44, 102
11, 45360, Note_on_c, 9, 37, 114
11, 45410, Note_on_c, 9, 62, 0
11, 45420, Note_on_c, 9, 44, 0
11, 45440, Note_on_c, 9, 59, 0
11, 45480, Note_on_c, 9, 37, 0
11, 45530, Note_on_c, 9, 36, 0
11, 45600, Note_on_c, 9, 59, 109
11, 45600, Note_on_c, 9, 36, 50
11, 45660, Note_on_c, 9, 59, 0
11, 45760, Note_on_c, 9, 64, 106
11, 45790, Note_on_c, 9, 64, 0
11, 45790, Note_on_c, 9, 36, 0
11, 45840, Note_on_c, 9, 44, 104
11, 45840, Note_on_c, 9, 36, 47
11, 45840, Note_on_c, 9, 38, 58
11, 45840, Note_on_c, 9, 64, 117
11, 45840, Note_on_c, 9, 59, 113
11, 45890, Note_on_c, 9, 44, 0
11, 45900, Note_on_c, 9, 64, 0
11, 45900, Note_on_c, 9, 38, 0
11, 45920, Note_on_c, 9, 59, 0
11, 45980, Note_on_c, 9, 36, 0
11, 46000, Note_on_c, 9, 64, 117
11, 46050, Note_on_c, 9, 64, 0
11, 46080, Note_on_c, 9, 36, 46
11, 46080, Note_on_c, 9, 59, 109
11, 46140, Note_on_c, 9, 59, 0
11, 46260, Note_on_c, 9, 36, 0
11, 46320, Note_on_c, 9, 62, 118
11, 46320, Note_on_c, 9, 59, 111
11, 46320, Note_on_c, 9, 36, 50
11, 46320, Note_on_c, 9, 44, 107
11, 46320, Note_on_c, 9, 37, 115
11, 46380, Note_on_c, 9, 44, 0
11, 46380, Note_on_c, 9, 62, 0
11, 46390, Note_on_c, 9, 59, 0
11, 46460, Note_on_c, 9, 37, 0
11, 46500, Note_on_c, 9, 36, 0
11, 46560, Note_on_c, 9, 36, 47
11, 46560, Note_on_c, 9, 59, 111
11, 46620, Note_on_c, 9, 59, 0
11, 46740, Note_on_c, 9, 36, 0
11, 46800, Note_on_c, 9, 64, 119
11, 46800, Note_on_c, 9, 44, 103
11, 46800, Note_on_c, 9, 59, 113
11, 46800, Note_on_c, 9, 36, 50
11, 46800, Note_on_c, 9, 38, 56
11, 46850, Note_on_c, 9, 64, 0
11, 46860, Note_on_c, 9, 38, 0
11, 46870, Note_on_c, 9, 44, 0
11, 46870, Note_on_c, 9, 59, 0
11, 46960, Note_on_c, 9, 64, 115
11, 46980, Note_on_c, 9, 36, 0
11, 47010, Note_on_c, 9, 64, 0
11, 47040, Note_on_c, 9, 36, 47
11, 47040, Note_on_c, 9, 59, 110
11, 47100, Note_on_c, 9, 59, 0
11, 47220, Note_on_c, 9, 36, 0
11, 47280, Note_on_c, 9, 37, 114
11, 47280, Note_on_c, 9, 36, 49
11, 47280, Note_on_c, 9, 44, 104
11, 47280, Note_on_c, 9, 59, 111
11, 47280, Note_on_c, 9, 62, 118
11, 47330, Note_on_c, 9, 62, 0
11, 47340, Note_on_c, 9, 44, 0
11, 47350, Note_on_c, 9, 59, 0
11, 47360, Note_on_c, 9, 37, 0
11, 47450, Note_on_c, 9, 36, 0
11, 47520, Note_on_c, 9, 36, 46
11, 47520, Note_on_c, 9, 59, 113
11, 47590, Note_on_c, 9, 59, 0
11, 47720, Note_on_c, 9, 36, 0
11, 47760, Note_on_c, 9, 44, 103
11, 47760, Note_on_c, 9, 38, 55
11, 47760, Note_on_c, 9, 36, 50
11, 47760, Note_on_c, 9, 64, 115
11, 47760, Note_on_c, 9, 59, 110
11, 47810, Note_on_c, 9, 64, 0
11, 47820, Note_on_c, 9, 38, 0
11, 47820, Note_on_c, 9, 44, 0
11, 47850, Note_on_c, 9, 59, 0
11, 47880, Note_on_c, 9, 36, 0
11, 47920, Note_on_c, 9, 36, 41
11, 47920, Note_on_c, 9, 64, 115
11, 47960, Note_on_c, 9, 36, 0
11, 47970, Note_on_c, 9, 64, 0
11, 48000, Note_on_c, 9, 36, 47
11, 48000, Note_on_c, 9, 59, 111
11, 48070, Note_on_c, 9, 59, 0
11, 48160, Note_on_c, 9, 36, 0
11, 48240, Note_on_c, 9, 59, 109
11, 48240, Note_on_c, 9, 62, 118
11, 48240, Note_on_c, 9, 36, 50
11, 48240, Note_on_c, 9, 44, 108
11, 48240, Note_on_c, 9, 37, 115
11, 48300, Note_on_c, 9, 44, 0
11, 48300, Note_on_c, 9, 62, 0
11, 48310, Note_on_c, 9, 59, 0
11, 48340, Note_on_c, 9, 37, 0
11, 48430, Note_on_c, 9, 36, 0
11, 48480, Note_on_c, 9, 59, 110
11, 48480, Note_on_c, 9, 36, 46
11, 48530, Note_on_c, 9, 59, 0
11, 48650, Note_on_c, 9, 36, 0
11, 48720, Note_on_c, 9, 38, 56
11, 48720, Note_on_c, 9, 36, 49
11, 48720, Note_on_c, 9, 59, 111
11, 48720, Note_on_c, 9, 64, 114
11, 48720, Note_on_c, 9, 44, 103
11, 48780, Note_on_c, 9, 44, 0
11, 48780, Note_on_c, 9, 38, 0
11, 48780, Note_on_c, 9, 64, 0
11, 48790, Note_on_c, 9, 59, 0
11, 48880, Note_on_c, 9, 64, 109
11, 48890, Note_on_c, 9, 36, 0
11, 48930, Note_on_c, 9, 64, 0
11, 48960, Note_on_c, 9, 36, 50
11, 48960, Note_on_c, 9, 59, 114
11, 49030, Note_on_c, 9, 59, 0
11, 49150, Note_on_c, 9, 36, 0
11, 49200, Note_on_c, 9, 62, 117
11, 49200, Note_on_c, 9, 59, 113
11, 49200, Note_on_c, 9, 44, 109
11, 49200, Note_on_c, 9, 36, 51
11, 49200, Note_on_c, 9, 37, 114
11, 49250, Note_on_c, 9, 62, 0
11, 49260, Note_on_c, 9, 44, 0
11, 49290, Note_on_c, 9, 59, 0
11, 49300, Note_on_c, 9, 37, 0
11, 49380, Note_on_c, 9, 36, 0
11, 49440, Note_on_c, 9, 59, 111
11, 49440, Note_on_c, 9, 36, 46
11, 49440, Note_on_c, 9, 46, 116
11, 49480, Note_on_c, 9, 46, 0
11, 49500, Note_on_c, 9, 59, 0
11, 49600, Note_on_c, 9, 36, 0
11, 49680, Note_on_c, 9, 64, 117
11, 49680, Note_on_c, 9, 38, 52
11, 49680, Note_on_c, 9, 36, 46
11, 49680, Note_on_c, 9, 44, 110
11, 49680, Note_on_c, 9, 59, 111
11, 49710, Note_on_c, 9, 38, 0
11, 49740, Note_on_c, 9, 44, 0
11, 49740, Note_on_c, 9, 64, 0
11, 49770, Note_on_c, 9, 59, 0
11, 49840, Note_on_c, 9, 64, 117
11, 49850, Note_on_c, 9, 36, 0
11, 49900, Note_on_c, 9, 64, 0
11, 49920, Note_on_c, 9, 36, 47
11, 49920, Note_on_c, 9, 59, 113
11, 49980, Note_on_c, 9, 59, 0
11, 50090, Note_on_c, 9, 36, 0
11, 50160, Note_on_c, 9, 59, 110
11, 50160, Note_on_c, 9, 44, 102
11, 50160, Note_on_c, 9, 37, 111
11, 50160, Note_on_c, 9, 62, 118
11, 50160, Note_on_c, 9, 36, 44
11, 50220, Note_on_c, 9, 62, 0
11, 50220, Note_on_c, 9, 44, 0
11, 50220, Note_on_c, 9, 59, 0
11, 50270, Note_on_c, 9, 37, 0
11, 50320, Note_on_c, 9, 36, 0
11, 50400, Note_on_c, 9, 36, 42
11, 50400, Note_on_c, 9, 59, 108
11, 50450, Note_on_c, 9, 59, 0
11, 50560, Note_on_c, 9, 36, 0
11, 50640, Note_on_c, 9, 64, 117
11, 50640, Note_on_c, 9, 59, 110
11, 50640, Note_on_c, 9, 36, 47
11, 50640, Note_on_c, 9, 44, 103
11, 50640, Note_on_c, 9, 38, 56
11, 50690, Note_on_c, 9, 38, 0
11, 50690, Note_on_c, 9, 44, 0
11, 50700, Note_on_c, 9, 64, 0
11, 50700, Note_on_c, 9, 59, 0
11, 50800, Note_on_c, 9, 64, 114
11, 50820, Note_on_c, 9, 36, 0
11, 50850, Note_on_c, 9, 64, 0
11, 50880, Note_on_c, 9, 36, 45
11, 50880, Note_on_c, 9, 59, 110
11, 50930, Note_on_c, 9, 59, 0
11, 51050, Note_on_c, 9, 36, 0
11, 51120, Note_on_c, 9, 44, 109
11, 51120, Note_on_c, 9, 37, 114
11, 51120, Note_on_c, 9, 36, 49
11, 51120, Note_on_c, 9, 62, 118
11, 51120, Note_on_c, 9, 59, 111
11, 51160, Note_on_c, 9, 44, 0
11, 51180, Note_on_c, 9, 62, 0
11, 51180, Note_on_c, 9, 59, 0
11, 51210, Note_on_c, 9, 37, 0
11, 51300, Note_on_c, 9, 36, 0
11, 51360, Note_on_c, 9, 36, 51
11, 51360, Note_on_c, 9, 59, 109
11, 51410, Note_on_c, 9, 59, 0
11, 51550, Note_on_c, 9, 36, 0
11, 51600, Note_on_c, 9, 59, 111
11, 51600, Note_on_c, 9, 44, 103
11, 51600, Note_on_c, 9, 38, 56
11, 51600, Note_on_c, 9, 64, 111
11, 51600, Note_on_c, 9, 36, 50
11, 51640, Note_on_c, 9, 38, 0
11, 51650, Note_on_c, 9, 59, 0
11, 51650, Note_on_c, 9, 44, 0
11, 51660, Note_on_c, 9, 64, 0
11, 51750, Note_on_c, 9, 36, 0
11, 51760, Note_on_c, 9, 64, 117
11, 51810, Note_on_c, 9, 64, 0
11, 51840, Note_on_c, 9, 59, 111
11, 51840, Note_on_c, 9, 36, 47
11, 51890, Note_on_c, 9, 59, 0
11, 52010, Note_on_c, 9, 36, 0
11, 52080, Note_on_c, 9, 62, 121
11, 52080, Note_on_c, 9, 36, 50
11, 52080, Note_on_c, 9, 59, 111
11, 52080, Note_on_c, 9, 44, 108
11, 52080, Note_on_c, 9, 37, 115
11, 52130, Note_on_c, 9, 44, 0
11, 52130, Note_on_c, 9, 59, 0
11, 52130, Note_on_c, 9, 62, 0
11, 52180, Note_on_c, 9, 37, 0
11, 52250, Note_on_c, 9, 36, 0
11, 52320, Note_on_c, 9, 36, 49
11, 52320, Note_on_c, 9, 59, 111
11, 52370, Note_on_c, 9, 59, 0
11, 52480, Note_on_c, 9, 36, 0
11, 52560, Note_on_c, 9, 59, 109
11, 52560, Note_on_c, 9, 44, 96
11, 52560, Note_on_c, 9, 38, 56
11, 52560, Note_on_c, 9, 36, 47
11, 52560, Note_on_c, 9, 64, 114
11, 52610, Note_on_c, 9, 64, 0
11, 52610, Note_on_c, 9, 38, 0
11, 52620, Note_on_c, 9, 59, 0
11, 52620, Note_on_c, 9, 44, 0
11, 52720, Note_on_c, 9, 64, 114
11, 52740, Note_on_c, 9, 36, 0
11, 52780, Note_on_c, 9, 64, 0
11, 52800, Note_on_c, 9, 59, 109
11, 52800, Note_on_c, 9, 36, 50
11, 52860, Note_on_c, 9, 59, 0
11, 52980, Note_on_c, 9, 36, 0
11, 53040, Note_on_c, 9, 59, 110
11, 53040, Note_on_c, 9, 44, 108
11, 53040, Note_on_c, 9, 37, 114
11, 53040, Note_on_c, 9, 62, 119
11, 53040, Note_on_c, 9, 36, 46
11, 53090, Note_on_c, 9, 62, 0
11, 53090, Note_on_c, 9, 44, 0
11, 53090, Note_on_c, 9, 59, 0
11, 53140, Note_on_c, 9, 37, 0
11, 53200, Note_on_c, 9, 36, 0
11, 53280, Note_on_c, 9, 36, 47
11, 53280, Note_on_c, 9, 59, 110
11, 53330, Note_on_c, 9, 59, 0
11, 53440, Note_on_c, 9, 64, 100
11, 53460, Note_on_c, 9, 36, 0
11, 53470, Note_on_c, 9, 64, 0
11, 53520, Note_on_c, 9, 64, 117
11, 53520, Note_on_c, 9, 36, 51
11, 53520, Note_on_c, 9, 59, 113
11, 53520, Note_on_c, 9, 44, 103
11, 53520, Note_on_c, 9, 38, 57
11, 53570, Note_on_c, 9, 38, 0
11, 53570, Note_on_c, 9, 44, 0
11, 53580, Note_on_c, 9, 59, 0
11, 53580, Note_on_c, 9, 64, 0
11, 53680, Note_on_c, 9, 36, 0
11, 53680, Note_on_c, 9, 64, 117
11, 53730, Note_on_c, 9, 64, 0
11, 53760, Note_on_c, 9, 59, 113
11, 53760, Note_on_c, 9, 36, 47
11, 53810, Note_on_c, 9, 59, 0
11, 53940, Note_on_c, 9, 36, 0
11, 54000, Note_on_c, 9, 59, 114
11, 54000, Note_on_c, 9, 37, 116
11, 54000, Note_on_c, 9, 44, 105
11, 54000, Note_on_c, 9, 62, 111
11, 54000, Note_on_c, 9, 36, 50
11, 54050, Note_on_c, 9, 44, 0
11, 54050, Note_on_c, 9, 59, 0
11, 54060, Note_on_c, 9, 62, 0
11, 54090, Note_on_c, 9, 37, 0
11, 54180, Note_on_c, 9, 36, 0
11, 54240, Note_on_c, 9, 36, 49
11, 54240, Note_on_c, 9, 59, 109
11, 54280, Note_on_c, 9, 59, 0
11, 54420, Note_on_c, 9, 36, 0
11, 54480, Note_on_c, 9, 59, 111
11, 54480, Note_on_c, 9, 44, 104
11, 54480, Note_on_c, 9, 64, 118
11, 54480, Note_on_c, 9, 36, 50
11, 54480, Note_on_c, 9, 38, 58
11, 54530, Note_on_c, 9, 38, 0
11, 54540, Note_on_c, 9, 59, 0
11, 54540, Note_on_c, 9, 64, 0
11, 54540, Note_on_c, 9, 44, 0
11, 54640, Note_on_c, 9, 36, 0
11, 54640, Note_on_c, 9, 64, 113
11, 54700, Note_on_c, 9, 64, 0
11, 54720, Note_on_c, 9, 59, 111
11, 54720, Note_on_c, 9, 36, 50
11, 54760, Note_on_c, 9, 59, 0
11, 54880, Note_on_c, 9, 36, 0
11, 54960, Note_on_c, 9, 37, 116
11, 54960, Note_on_c, 9, 36, 46
11, 54960, Note_on_c, 9, 59, 111
11, 54960, Note_on_c, 9, 62, 117
11, 54960, Note_on_c, 9, 44, 109
11, 55010, Note_on_c, 9, 62, 0
11, 55020, Note_on_c, 9, 59, 0
11, 55020, Note_on_c, 9, 44, 0
11, 55030, Note_on_c, 9, 37, 0
11, 55120, Note_on_c, 9, 36, 0
11, 55200, Note_on_c, 9, 59, 109
11, 55200, Note_on_c, 9, 36, 47
11, 55250, Note_on_c, 9, 59, 0
11, 55370, Note_on_c, 9, 36, 0
11, 55440, Note_on_c, 9, 59, 110
11, 55440, Note_on_c, 9, 38, 57
11, 55440, Note_on_c, 9, 44, 102
11, 55440, Note_on_c, 9, 64, 118
11, 55440, Note_on_c, 9, 36, 51
11, 55490, Note_on_c, 9, 64, 0
11, 55490, Note_on_c, 9, 44, 0
11, 55490, Note_on_c, 9, 38, 0
11, 55500, Note_on_c, 9, 59, 0
11, 55600, Note_on_c, 9, 64, 118
11, 55610, Note_on_c, 9, 36, 0
11, 55660, Note_on_c, 9, 64, 0
11, 55680, Note_on_c, 9, 36, 47
11, 55680, Note_on_c, 9, 59, 110
11, 55740, Note_on_c, 9, 59, 0
11, 55830, Note_on_c, 9, 36, 0
11, 55920, Note_on_c, 9, 59, 113
11, 55920, Note_on_c, 9, 62, 117
11, 55920, Note_on_c, 9, 36, 50
11, 55920, Note_on_c, 9, 44, 104
11, 55920, Note_on_c, 9, 37, 114
11, 55970, Note_on_c, 9, 44, 0
11, 55980, Note_on_c, 9, 62, 0
11, 55980, Note_on_c, 9, 59, 0
11, 56020, Note_on_c, 9, 37, 0
11, 56090, Note_on_c, 9, 36, 0
11, 56160, Note_on_c, 9, 59, 108
11, 56160, Note_on_c, 9, 36, 49
11, 56220, Note_on_c, 9, 59, 0
11, 56320, Note_on_c, 9, 36, 0
11, 56400, Note_on_c, 9, 38, 55
11, 56400, Note_on_c, 9, 36, 49
11, 56400, Note_on_c, 9, 59, 113
11, 56400, Note_on_c, 9, 64, 117
11, 56400, Note_on_c, 9, 44, 102
11, 56440, Note_on_c, 9, 44, 0
11, 56440, Note_on_c, 9, 38, 0
11, 56450, Note_on_c, 9, 59, 0
11, 56460, Note_on_c, 9, 64, 0
11, 56560, Note_on_c, 9, 64, 115
11, 56580, Note_on_c, 9, 36, 0
11, 56610, Note_on_c, 9, 64, 0
11, 56640, Note_on_c, 9, 36, 50
11, 56640, Note_on_c, 9, 59, 110
11, 56690, Note_on_c, 9, 59, 0
11, 56810, Note_on_c, 9, 36, 0
11, 56880, Note_on_c, 9, 62, 119
11, 56880, Note_on_c, 9, 59, 111
11, 56880, Note_on_c, 9, 44, 103
11, 56880, Note_on_c, 9, 36, 50
11, 56880, Note_on_c, 9, 37, 115
11, 56940, Note_on_c, 9, 44, 0
11, 56940, Note_on_c, 9, 62, 0
11, 56940, Note_on_c, 9, 59, 0
11, 56970, Note_on_c, 9, 37, 0
11, 57050, Note_on_c, 9, 36, 0
11, 57120, Note_on_c, 9, 36, 45
11, 57120, Note_on_c, 9, 59, 109
11, 57170, Note_on_c, 9, 59, 0
11, 57300, Note_on_c, 9, 36, 0
11, 57360, Note_on_c, 9, 59, 109
11, 57360, Note_on_c, 9, 64, 118
11, 57360, Note_on_c, 9, 36, 50
11, 57360, Note_on_c, 9, 44, 105
11, 57360, Note_on_c, 9, 38, 56
11, 57410, Note_on_c, 9, 38, 0
11, 57410, Note_on_c, 9, 59, 0
11, 57410, Note_on_c, 9, 44, 0
11, 57420, Note_on_c, 9, 64, 0
11, 57520, Note_on_c, 9, 64, 117
11, 57530, Note_on_c, 9, 36, 0
11, 57570, Note_on_c, 9, 64, 0
11, 57600, Note_on_c, 9, 59, 110
11, 57600, Note_on_c, 9, 36, 52
11, 57650, Note_on_c, 9, 59, 0
11, 57760, Note_on_c, 9, 36, 0
11, 57840, Note_on_c, 9, 44, 109
11, 57840, Note_on_c, 9, 36, 50
11, 57840, Note_on_c, 9, 37, 116
11, 57840, Note_on_c, 9, 62, 118
11, 57840, Note_on_c, 9, 59, 114
11, 57890, Note_on_c, 9, 62, 0
11, 57900, Note_on_c, 9, 44, 0
11, 57900, Note_on_c, 9, 59, 0
11, 57940, Note_on_c, 9, 37, 0
11, 58000, Note_on_c, 9, 36, 0
11, 58080, Note_on_c, 9, 59, 113
11, 58080, Note_on_c, 9, 36, 47
11, 58130, Note_on_c, 9, 59, 0
11, 58240, Note_on_c, 9, 36, 0
11, 58320, Note_on_c, 9, 64, 119
11, 58320, Note_on_c, 9, 59, 114
11, 58320, Note_on_c, 9, 44, 104
11, 58320, Note_on_c, 9, 36, 47
11, 58320, Note_on_c, 9, 38, 57
11, 58370, Note_on_c, 9, 38, 0
11, 58370, Note_on_c, 9, 44, 0
11, 58380, Note_on_c, 9, 64, 0
11, 58380, Note_on_c, 9, 59, 0
11, 58480, Note_on_c, 9, 64, 114
11, 58490, Note_on_c, 9, 36, 0
11, 58530, Note_on_c, 9, 64, 0
11, 58560, Note_on_c, 9, 59, 113
11, 58560, Note_on_c, 9, 36, 49
11, 58610, Note_on_c, 9, 59, 0
11, 58740, Note_on_c, 9, 36, 0
11, 58800, Note_on_c, 9, 59, 110
11, 58800, Note_on_c, 9, 44, 108
11, 58800, Note_on_c, 9, 62, 117
11, 58800, Note_on_c, 9, 36, 52
11, 58800, Note_on_c, 9, 37, 114
11, 58850, Note_on_c, 9, 62, 0
11, 58850, Note_on_c, 9, 44, 0
11, 58860, Note_on_c, 9, 59, 0
11, 58910, Note_on_c, 9, 37, 0
11, 58990, Note_on_c, 9, 36, 0
11, 59040, Note_on_c, 9, 59, 104
11, 59040, Note_on_c, 9, 36, 47
11, 59100, Note_on_c, 9, 59, 0
11, 59240, Note_on_c, 9, 36, 0
11, 59280, Note_on_c, 9, 64, 118
11, 59280, Note_on_c, 9, 36, 50
11, 59280, Note_on_c, 9, 59, 109
11, 59280, Note_on_c, 9, 44, 100
11, 59280, Note_on_c, 9, 38, 56
11, 59330, Note_on_c, 9, 38, 0
11, 59330, Note_on_c, 9, 64, 0
11, 59330, Note_on_c, 9, 44, 0
11, 59350, Note_on_c, 9, 59, 0
11, 59440, Note_on_c, 9, 64, 115
11, 59460, Note_on_c, 9, 36, 0
11, 59490, Note_on_c, 9, 64, 0
11, 59520, Note_on_c, 9, 59, 111
11, 59520, Note_on_c, 9, 36, 47
11, 59580, Note_on_c, 9, 59, 0
11, 59690, Note_on_c, 9, 36, 0
11, 59760, Note_on_c, 9, 59, 111
11, 59760, Note_on_c, 9, 37, 114
11, 59760, Note_on_c, 9, 44, 109
11, 59760, Note_on_c, 9, 62, 121
11, 59760, Note_on_c, 9, 36, 46
11, 59810, Note_on_c, 9, 62, 0
11, 59820, Note_on_c, 9, 44, 0
11, 59820, Note_on_c, 9, 59, 0
11, 59860, Note_on_c, 9, 37, 0
11, 59940, Note_on_c, 9, 36, 0
11, 60000, Note_on_c, 9, 36, 47
11, 60000, Note_on_c, 9, 59, 109
11, 60060, Note_on_c, 9, 59, 0
11, 60170, Note_on_c, 9, 36, 0
11, 60240, Note_on_c, 9, 59, 110
11, 60240, Note_on_c, 9, 44, 103
11, 60240, Note_on_c, 9, 64, 118
11, 60240, Note_on_c, 9, 36, 46
11, 60240, Note_on_c, 9, 38, 55
11, 60290, Note_on_c, 9, 38, 0
11, 60290, Note_on_c, 9, 64, 0
11, 60300, Note_on_c, 9, 59, 0
11, 60300, Note_on_c, 9, 44, 0
11, 60400, Note_on_c, 9, 64, 117
11, 60430, Note_on_c, 9, 36, 0
11, 60460, Note_on_c, 9, 64, 0
11, 60480, Note_on_c, 9, 59, 110
11, 60480, Note_on_c, 9, 36, 46
11, 60540, Note_on_c, 9, 59, 0
11, 60660, Note_on_c, 9, 36, 0
11, 60720, Note_on_c, 9, 37, 114
11, 60720, Note_on_c, 9, 36, 47
11, 60720, Note_on_c, 9, 59, 110
11, 60720, Note_on_c, 9, 62, 119
11, 60720, Note_on_c, 9, 44, 109
11, 60770, Note_on_c, 9, 44, 0
11, 60780, Note_on_c, 9, 59, 0
11, 60780, Note_on_c, 9, 62, 0
11, 60860, Note_on_c, 9, 37, 0
11, 60910, Note_on_c, 9, 36, 0
11, 60960, Note_on_c, 9, 59, 109
11, 60960, Note_on_c, 9, 36, 49
11, 61010, Note_on_c, 9, 59, 0
11, 61110, Note_on_c, 9, 36, 0
11, 61200, Note_on_c, 9, 59, 109
11, 61200, Note_on_c, 9, 38, 54
11, 61200, Note_on_c, 9, 44, 102
11, 61200, Note_on_c, 9, 64, 117
11, 61200, Note_on_c, 9, 36, 49
11, 61250, Note_on_c, 9, 38, 0
11, 61260, Note_on_c, 9, 64, 0
11, 61270, Note_on_c, 9, 59, 0
11, 61270, Note_on_c, 9, 44, 0
11, 61360, Note_on_c, 9, 36, 0
11, 61360, Note_on_c, 9, 64, 114
11, 61420, Note_on_c, 9, 64, 0
11, 61440, Note_on_c, 9, 36, 49
11, 61440, Note_on_c, 9, 59, 108
11, 61500, Note_on_c, 9, 59, 0
11, 61600, Note_on_c, 9, 36, 0
11, 61680, Note_on_c, 9, 59, 110
11, 61680, Note_on_c, 9, 62, 117
11, 61680, Note_on_c, 9, 36, 46
11, 61680, Note_on_c, 9, 44, 109
11, 61680, Note_on_c, 9, 37, 109
11, 61740, Note_on_c, 9, 37, 0
11, 61740, Note_on_c, 9, 62, 0
11, 61740, Note_on_c, 9, 59, 0
11, 61740, Note_on_c, 9, 44, 0
11, 61860, Note_on_c, 9, 36, 0
11, 61920, Note_on_c, 9, 59, 110
11, 61920, Note_on_c, 9, 36, 47
11, 61980, Note_on_c, 9, 59, 0
11, 62080, Note_on_c, 9, 36, 0
11, 62160, Note_on_c, 9, 38, 55
11, 62160, Note_on_c, 9, 36, 50
11, 62160, Note_on_c, 9, 59, 108
11, 62160, Note_on_c, 9, 64, 115
11, 62160, Note_on_c, 9, 44, 109
11, 62210, Note_on_c, 9, 44, 0
11, 62210, Note_on_c, 9, 38, 0
11, 62210, Note_on_c, 9, 64, 0
11, 62240, Note_on_c, 9, 59, 0
11, 62320, Note_on_c, 9, 64, 115
11, 62340, Note_on_c, 9, 36, 0
11, 62370, Note_on_c, 9, 64, 0
11, 62400, Note_on_c, 9, 36, 46
11, 62400, Note_on_c, 9, 59, 108
11, 62470, Note_on_c, 9, 59, 0
11, 62580, Note_on_c, 9, 36, 0
11, 62640, Note_on_c, 9, 62, 119
11, 62640, Note_on_c, 9, 59, 108
11, 62640, Note_on_c, 9, 44, 108
11, 62640, Note_on_c, 9, 36, 49
11, 62640, Note_on_c, 9, 37, 112
11, 62680, Note_on_c, 9, 44, 0
11, 62700, Note_on_c, 9, 62, 0
11, 62700, Note_on_c, 9, 37, 0
11, 62700, Note_on_c, 9, 59, 0
11, 62800, Note_on_c, 9, 36, 0
11, 62880, Note_on_c, 9, 36, 49
11, 62880, Note_on_c, 9, 59, 106
11, 62940, Note_on_c, 9, 59, 0
11, 63040, Note_on_c, 9, 36, 0
11, 63120, Note_on_c, 9, 59, 111
11, 63120, Note_on_c, 9, 64, 117
11, 63120, Note_on_c, 9, 36, 46
11, 63120, Note_on_c, 9, 44, 110
11, 63120, Note_on_c, 9, 38, 56
11, 63170, Note_on_c, 9, 38, 0
11, 63170, Note_on_c, 9, 64, 0
11, 63170, Note_on_c, 9, 44, 0
11, 63190, Note_on_c, 9, 59, 0
11, 63280, Note_on_c, 9, 64, 117
11, 63300, Note_on_c, 9, 36, 0
11, 63340, Note_on_c, 9, 64, 0
11, 63360, Note_on_c, 9, 59, 110
11, 63360, Note_on_c, 9, 36, 46
11, 63410, Note_on_c, 9, 59, 0
11, 63510, Note_on_c, 9, 36, 0
11, 63600, Note_on_c, 9, 44, 105
11, 63600, Note_on_c, 9, 36, 46
11, 63600, Note_on_c, 9, 37, 109
11, 63600, Note_on_c, 9, 62, 121
11, 63600, Note_on_c, 9, 59, 113
11, 63650, Note_on_c, 9, 62, 0
11, 63650, Note_on_c, 9, 44, 0
11, 63660, Note_on_c, 9, 59, 0
11, 63660, Note_on_c, 9, 37, 0
11, 63760, Note_on_c, 9, 36, 0
11, 63840, Note_on_c, 9, 36, 47
11, 63840, Note_on_c, 9, 59, 110
11, 63900, Note_on_c, 9, 59, 0
11, 64010, Note_on_c, 9, 36, 0
11, 64080, Note_on_c, 9, 64, 118
11, 64080, Note_on_c, 9, 44, 102
11, 64080, Note_on_c, 9, 59, 110
11, 64080, Note_on_c, 9, 36, 49
11, 64080, Note_on_c, 9, 38, 54
11, 64120, Note_on_c, 9, 38, 0
11, 64130, Note_on_c, 9, 59, 0
11, 64130, Note_on_c, 9, 44, 0
11, 64140, Note_on_c, 9, 64, 0
11, 64240, Note_on_c, 9, 36, 0
11, 64240, Note_on_c, 9, 64, 113
11, 64290, Note_on_c, 9, 64, 0
11, 64320, Note_on_c, 9, 36, 47
11, 64320, Note_on_c, 9, 59, 110
11, 64370, Note_on_c, 9, 59, 0
11, 64510, Note_on_c, 9, 36, 0
11, 64560, Note_on_c, 9, 59, 106
11, 64560, Note_on_c, 9, 62, 119
11, 64560, Note_on_c, 9, 36, 47
11, 64560, Note_on_c, 9, 44, 104
11, 64560, Note_on_c, 9, 37, 108
11, 64610, Note_on_c, 9, 62, 0
11, 64620, Note_on_c, 9, 44, 0
11, 64620, Note_on_c, 9, 37, 0
11, 64630, Note_on_c, 9, 59, 0
11, 64740, Note_on_c, 9, 36, 0
11, 64800, Note_on_c, 9, 59, 108
11, 64800, Note_on_c, 9, 36, 49
11, 64850, Note_on_c, 9, 59, 0
11, 64980, Note_on_c, 9, 36, 0
11, 65040, Note_on_c, 9, 38, 56
11, 65040, Note_on_c, 9, 36, 49
11, 65040, Note_on_c, 9, 59, 109
11, 65040, Note_on_c, 9, 64, 114
11, 65040, Note_on_c, 9, 44, 103
11, 65090, Note_on_c, 9, 44, 0
11, 65090, Note_on_c, 9, 38, 0
11, 65100, Note_on_c, 9, 64, 0
11, 65100, Note_on_c, 9, 59, 0
11, 65200, Note_on_c, 9, 36, 0
11, 65200, Note_on_c, 9, 64, 117
11, 65250, Note_on_c, 9, 64, 0
11, 65280, Note_on_c, 9, 36, 46
11, 65280, Note_on_c, 9, 59, 111
11, 65330, Note_on_c, 9, 59, 0
11, 65470, Note_on_c, 9, 36, 0
11, 65520, Note_on_c, 9, 62, 119
11, 65520, Note_on_c, 9, 59, 110
11, 65520, Note_on_c, 9, 44, 108
11, 65520, Note_on_c, 9, 36, 46
11, 65520, Note_on_c, 9, 37, 112
11, 65570, Note_on_c, 9, 44, 0
11, 65570, Note_on_c, 9, 62, 0
11, 65580, Note_on_c, 9, 37, 0
11, 65580, Note_on_c, 9, 59, 0
11, 65690, Note_on_c, 9, 36, 0
11, 65760, Note_on_c, 9, 36, 44
11, 65760, Note_on_c, 9, 59, 108
11, 65820, Note_on_c, 9, 59, 0
11, 65940, Note_on_c, 9, 36, 0
11, 66000, Note_on_c, 9, 59, 111
11, 66000, Note_on_c, 9, 64, 118
11, 66000, Note_on_c, 9, 36, 47
11, 66000, Note_on_c, 9, 44, 104
11, 66000, Note_on_c, 9, 38, 55
11, 66050, Note_on_c, 9, 38, 0
11, 66050, Note_on_c, 9, 64, 0
11, 66060, Note_on_c, 9, 59, 0
11, 66060, Note_on_c, 9, 44, 0
11, 66160, Note_on_c, 9, 64, 118
11, 66180, Note_on_c, 9, 36, 0
11, 66210, Note_on_c, 9, 64, 0
11, 66240, Note_on_c, 9, 59, 110
11, 66240, Note_on_c, 9, 36, 49
11, 66290, Note_on_c, 9, 59, 0
11, 66420, Note_on_c, 9, 36, 0
11, 66480, Note_on_c, 9, 44, 105
11, 66480, Note_on_c, 9, 36, 52
11, 66480, Note_on_c, 9, 37, 110
11, 66480, Note_on_c, 9, 62, 114
11, 66480, Note_on_c, 9, 59, 111
11, 66530, Note_on_c, 9, 44, 0
11, 66540, Note_on_c, 9, 59, 0
11, 66540, Note_on_c, 9, 37, 0
11, 66550, Note_on_c, 9, 62, 0
11, 66660, Note_on_c, 9, 36, 0
11, 66720, Note_on_c, 9, 36, 47
11, 66720, Note_on_c, 9, 59, 106
11, 66770, Note_on_c, 9, 59, 0
11, 66920, Note_on_c, 9, 36, 0
11, 66960, Note_on_c, 9, 64, 117
11, 66960, Note_on_c, 9, 59, 111
11, 66960, Note_on_c, 9, 44, 105
11, 66960, Note_on_c, 9, 36, 50
11, 66960, Note_on_c, 9, 38, 55
11, 66990, Note_on_c, 9, 38, 0
11, 67010, Note_on_c, 9, 64, 0
11, 67010, Note_on_c, 9, 44, 0
11, 67010, Note_on_c, 9, 59, 0
11, 67120, Note_on_c, 9, 64, 117
11, 67130, Note_on_c, 9, 36, 0
11, 67180, Note_on_c, 9, 64, 0
11, 67200, Note_on_c, 9, 36, 49
11, 67200, Note_on_c, 9, 59, 109
11, 67250, Note_on_c, 9, 59, 0
11, 67390, Note_on_c, 9, 36, 0
11, 67440, Note_on_c, 9, 62, 118
11, 67440, Note_on_c, 9, 37, 114
11, 67440, Note_on_c, 9, 36, 47
11, 67440, Note_on_c, 9, 44, 108
11, 67440, Note_on_c, 9, 59, 111
11, 67490, Note_on_c, 9, 37, 0
11, 67500, Note_on_c, 9, 44, 0
11, 67500, Note_on_c, 9, 62, 0
11, 67500, Note_on_c, 9, 59, 0
11, 67610, Note_on_c, 9, 36, 0
11, 67680, Note_on_c, 9, 59, 110
11, 67680, Note_on_c, 9, 36, 49
11, 67740, Note_on_c, 9, 59, 0
11, 67860, Note_on_c, 9, 36, 0
11, 67920, Note_on_c, 9, 44, 107
11, 67920, Note_on_c, 9, 36, 50
11, 67920, Note_on_c, 9, 38, 54
11, 67920, Note_on_c, 9, 64, 115
11, 67920, Note_on_c, 9, 59, 111
11, 67960, Note_on_c, 9, 38, 0
11, 67970, Note_on_c, 9, 59, 0
11, 67980, Note_on_c, 9, 64, 0
11, 67980, Note_on_c, 9, 44, 0
11, 68080, Note_on_c, 9, 64, 118
11, 68100, Note_on_c, 9, 36, 0
11, 68140, Note_on_c, 9, 64, 0
11, 68160, Note_on_c, 9, 36, 51
11, 68160, Note_on_c, 9, 59, 108
11, 68220, Note_on_c, 9, 59, 0
11, 68330, Note_on_c, 9, 36, 0
11, 68400, Note_on_c, 9, 62, 118
11, 68400, Note_on_c, 9, 59, 110
11, 68400, Note_on_c, 9, 36, 50
11, 68400, Note_on_c, 9, 44, 109
11, 68400, Note_on_c, 9, 37, 117
11, 68450, Note_on_c, 9, 37, 0
11, 68450, Note_on_c, 9, 59, 0
11, 68450, Note_on_c, 9, 62, 0
11, 68450, Note_on_c, 9, 44, 0
11, 68590, Note_on_c, 9, 36, 0
11, 68640, Note_on_c, 9, 36, 51
11, 68640, Note_on_c, 9, 59, 111
11, 68690, Note_on_c, 9, 59, 0
11, 68800, Note_on_c, 9, 64, 111
11, 68810, Note_on_c, 9, 36, 0
11, 68840, Note_on_c, 9, 64, 0
11, 68880, Note_on_c, 9, 44, 108
11, 68880, Note_on_c, 9, 38, 56
11, 68880, Note_on_c, 9, 36, 49
11, 68880, Note_on_c, 9, 64, 113
11, 68880, Note_on_c, 9, 59, 113
11, 68930, Note_on_c, 9, 59, 0
11, 68930, Note_on_c, 9, 44, 0
11, 68930, Note_on_c, 9, 38, 0
11, 68940, Note_on_c, 9, 64, 0
11, 69040, Note_on_c, 9, 64, 118
11, 69060, Note_on_c, 9, 36, 0
11, 69090, Note_on_c, 9, 64, 0
11, 69120, Note_on_c, 9, 36, 49
11, 69120, Note_on_c, 9, 59, 109
11, 69170, Note_on_c, 9, 59, 0
11, 69300, Note_on_c, 9, 36, 0
11, 69360, Note_on_c, 9, 59, 111
11, 69360, Note_on_c, 9, 44, 108
11, 69360, Note_on_c, 9, 62, 117
11, 69360, Note_on_c, 9, 36, 49
11, 69360, Note_on_c, 9, 37, 111
11, 69420, Note_on_c, 9, 37, 0
11, 69420, Note_on_c, 9, 59, 0
11, 69420, Note_on_c, 9, 62, 0
11, 69420, Note_on_c, 9, 44, 0
11, 69540, Note_on_c, 9, 36, 0
11, 69600, Note_on_c, 9, 36, 50
11, 69600, Note_on_c, 9, 59, 105
11, 69640, Note_on_c, 9, 59, 0
11, 69770, Note_on_c, 9, 36, 0
11, 69840, Note_on_c, 9, 36, 50
11, 69840, Note_on_c, 9, 64, 119
11, 69840, Note_on_c, 9, 38, 55
11, 69840, Note_on_c, 9, 44, 103
11, 69840, Note_on_c, 9, 59, 110
11, 69880, Note_on_c, 9, 38, 0
11, 69890, Note_on_c, 9, 44, 0
11, 69890, Note_on_c, 9, 59, 0
11, 69900, Note_on_c, 9, 64, 0
11, 70020, Note_on_c, 9, 36, 0
11, 70080, Note_on_c, 9, 59, 108
11, 70080, Note_on_c, 9, 36, 47
11, 70130, Note_on_c, 9, 59, 0
11, 70240, Note_on_c, 9, 36, 0
11, 70320, Note_on_c, 9, 59, 108
11, 70320, Note_on_c, 9, 44, 109
11, 70320, Note_on_c, 9, 62, 119
11, 70320, Note_on_c, 9, 36, 49
11, 70320, Note_on_c, 9, 37, 115
11, 70370, Note_on_c, 9, 37, 0
11, 70380, Note_on_c, 9, 59, 0
11, 70380, Note_on_c, 9, 62, 0
11, 70380, Note_on_c, 9, 44, 0
11, 70490, Note_on_c, 9, 36, 0
11, 70560, Note_on_c, 9, 59, 109
11, 70560, Note_on_c, 9, 36, 47
11, 70610, Note_on_c, 9, 59, 0
11, 70730, Note_on_c, 9, 36, 0
11, 70800, Note_on_c, 9, 64, 118
11, 70800, Note_on_c, 9, 36, 49
11, 70800, Note_on_c, 9, 59, 110
11, 70800, Note_on_c, 9, 44, 105
11, 70800, Note_on_c, 9, 38, 56
11, 70850, Note_on_c, 9, 38, 0
11, 70860, Note_on_c, 9, 59, 0
11, 70860, Note_on_c, 9, 44, 0
11, 70860, Note_on_c, 9, 64, 0
11, 70960, Note_on_c, 9, 64, 118
11, 70990, Note_on_c, 9, 36, 0
11, 71020, Note_on_c, 9, 64, 0
11, 71040, Note_on_c, 9, 59, 109
11, 71040, Note_on_c, 9, 36, 50
11, 71090, Note_on_c, 9, 59, 0
11, 71220, Note_on_c, 9, 36, 0
11, 71280, Note_on_c, 9, 59, 108
11, 71280, Note_on_c, 9, 37, 112
11, 71280, Note_on_c, 9, 44, 108
11, 71280, Note_on_c, 9, 62, 119
11, 71280, Note_on_c, 9, 36, 49
11, 71330, Note_on_c, 9, 62, 0
11, 71330, Note_on_c, 9, 59, 0
11, 71340, Note_on_c, 9, 44, 0
11, 71350, Note_on_c, 9, 37, 0
11, 71470, Note_on_c, 9, 36, 0
11, 71520, Note_on_c, 9, 36, 49
11, 71520, Note_on_c, 9, 59, 110
11, 71570, Note_on_c, 9, 59, 0
11, 71700, Note_on_c, 9, 36, 0
11, 71760, Note_on_c, 9, 59, 113
11, 71760, Note_on_c, 9, 44, 102
11, 71760, Note_on_c, 9, 64, 117
11, 71760, Note_on_c, 9, 36, 53
11, 71760, Note_on_c, 9, 38, 54
11, 71810, Note_on_c, 9, 38, 0
11, 71820, Note_on_c, 9, 64, 0
11, 71830, Note_on_c, 9, 59, 0
11, 71830, Note_on_c, 9, 44, 0
11, 71920, Note_on_c, 9, 64, 114
11, 71940, Note_on_c, 9, 36, 0
11, 71980, Note_on_c, 9, 64, 0
11, 72000, Note_on_c, 9, 59, 106
11, 72000, Note_on_c, 9, 36, 50
11, 72050, Note_on_c, 9, 59, 0
11, 72170, Note_on_c, 9, 36, 0
11, 72240, Note_on_c, 9, 37, 115
11, 72240, Note_on_c, 9, 36, 51
11, 72240, Note_on_c, 9, 59, 110
11, 72240, Note_on_c, 9, 62, 117
11, 72240, Note_on_c, 9, 44, 108
11, 72290, Note_on_c, 9, 62, 0
11, 72290, Note_on_c, 9, 37, 0
11, 72300, Note_on_c, 9, 44, 0
11, 72310, Note_on_c, 9, 59, 0
11, 72410, Note_on_c, 9, 36, 0
11, 72480, Note_on_c, 9, 59, 110
11, 72480, Note_on_c, 9, 36, 49
11, 72530, Note_on_c, 9, 59, 0
11, 72580, Note_on_c, 9, 36, 0
11, 72640, Note_on_c, 9, 46, 81
11, 72640, Note_on_c, 9, 64, 106
11, 72640, Note_on_c, 9, 36, 45
11, 72670, Note_on_c, 9, 36, 0
11, 72670, Note_on_c, 9, 64, 0
11, 72680, Note_on_c, 9, 46, 0
11, 72720, Note_on_c, 9, 64, 110
11, 72720, Note_on_c, 9, 38, 55
11, 72720, Note_on_c, 9, 36, 50
11, 72720, Note_on_c, 9, 59, 113
11, 72720, Note_on_c, 9, 46, 88
11, 72720, Note_on_c, 9, 44, 103
11, 72760, Note_on_c, 9, 38, 0
11, 72770, Note_on_c, 9, 59, 0
11, 72770, Note_on_c, 9, 44, 0
11, 72780, Note_on_c, 9, 64, 0
11, 72780, Note_on_c, 9, 46, 0
11, 72830, Note_on_c, 9, 36, 0
11, 72880, Note_on_c, 9, 64, 118
11, 72880, Note_on_c, 9, 36, 52
11, 72880, Note_on_c, 9, 46, 124
11, 72920, Note_on_c, 9, 64, 0
11, 72930, Note_on_c, 9, 46, 0
11, 72960, Note_on_c, 9, 59, 110
11, 73020, Note_on_c, 9, 59, 0
11, 73120, Note_on_c, 9, 36, 0
11, 73200, Note_on_c, 9, 62, 119
11, 73200, Note_on_c, 9, 59, 111
11, 73200, Note_on_c, 9, 36, 50
11, 73200, Note_on_c, 9, 44, 105
11, 73200, Note_on_c, 9, 37, 116
11, 73250, Note_on_c, 9, 62, 0
11, 73260, Note_on_c, 9, 44, 0
11, 73260, Note_on_c, 9, 37, 0
11, 73270, Note_on_c, 9, 59, 0
11, 73390, Note_on_c, 9, 36, 0
11, 73440, Note_on_c, 9, 36, 46
11, 73440, Note_on_c, 9, 59, 110
11, 73490, Note_on_c, 9, 59, 0
11, 73620, Note_on_c, 9, 36, 0
11, 73680, Note_on_c, 9, 64, 119
11, 73680, Note_on_c, 9, 38, 57
11, 73680, Note_on_c, 9, 36, 49
11, 73680, Note_on_c, 9, 44, 108
11, 73680, Note_on_c, 9, 59, 108
11, 73730, Note_on_c, 9, 38, 0
11, 73730, Note_on_c, 9, 64, 0
11, 73740, Note_on_c, 9, 44, 0
11, 73750, Note_on_c, 9, 59, 0
11, 73840, Note_on_c, 9, 64, 117
11, 73850, Note_on_c, 9, 36, 0
11, 73890, Note_on_c, 9, 64, 0
11, 73920, Note_on_c, 9, 36, 50
11, 73920, Note_on_c, 9, 59, 111
11, 73980, Note_on_c, 9, 59, 0
11, 74090, Note_on_c, 9, 36, 0
11, 74160, Note_on_c, 9, 59, 113
11, 74160, Note_on_c, 9, 44, 108
11, 74160, Note_on_c, 9, 37, 116
11, 74160, Note_on_c, 9, 62, 119
11, 74160, Note_on_c, 9, 36, 50
11, 74210, Note_on_c, 9, 62, 0
11, 74210, Note_on_c, 9, 37, 0
11, 74220, Note_on_c, 9, 59, 0
11, 74220, Note_on_c, 9, 44, 0
11, 74320, Note_on_c, 9, 36, 0
11, 74400, Note_on_c, 9, 36, 50
11, 74400, Note_on_c, 9, 59, 109
11, 74450, Note_on_c, 9, 59, 0
11, 74580, Note_on_c, 9, 36, 0
11, 74640, Note_on_c, 9, 64, 122
11, 74640, Note_on_c, 9, 59, 111
11, 74640, Note_on_c, 9, 36, 52
11, 74640, Note_on_c, 9, 44, 105
11, 74640, Note_on_c, 9, 38, 57
11, 74690, Note_on_c, 9, 38, 0
11, 74690, Note_on_c, 9, 64, 0
11, 74700, Note_on_c, 9, 59, 0
11, 74700, Note_on_c, 9, 44, 0
11, 74800, Note_on_c, 9, 64, 118
11, 74810, Note_on_c, 9, 36, 0
11, 74850, Note_on_c, 9, 64, 0
11, 74880, Note_on_c, 9, 36, 52
11, 74880, Note_on_c, 9, 59, 110
11, 74930, Note_on_c, 9, 59, 0
11, 75040, Note_on_c, 9, 36, 0
11, 75120, Note_on_c, 9, 59, 111
11, 75120, Note_on_c, 9, 44, 108
11, 75120, Note_on_c, 9, 37, 114
11, 75120, Note_on_c, 9, 36, 51
11, 75120, Note_on_c, 9, 62, 117
11, 75170, Note_on_c, 9, 37, 0
11, 75170, Note_on_c, 9, 44, 0
11, 75180, Note_on_c, 9, 62, 0
11, 75180, Note_on_c, 9, 59, 0
11, 75280, Note_on_c, 9, 36, 0
11, 75360, Note_on_c, 9, 36, 51
11, 75360, Note_on_c, 9, 59, 110
11, 75410, Note_on_c, 9, 59, 0
11, 75530, Note_on_c, 9, 36, 0
11, 75600, Note_on_c, 9, 44, 104
11, 75600, Note_on_c, 9, 36, 51
11, 75600, Note_on_c, 9, 38, 52
11, 75600, Note_on_c, 9, 59, 113
11, 75600, Note_on_c, 9, 64, 118
11, 75650, Note_on_c, 9, 64, 0
11, 75650, Note_on_c, 9, 38, 0
11, 75660, Note_on_c, 9, 59, 0
11, 75660, Note_on_c, 9, 44, 0
11, 75760, Note_on_c, 9, 64, 115
11, 75780, Note_on_c, 9, 36, 0
11, 75810, Note_on_c, 9, 64, 0
11, 75840, Note_on_c, 9, 36, 49
11, 75840, Note_on_c, 9, 59, 105
11, 75890, Note_on_c, 9, 59, 0
11, 76030, Note_on_c, 9, 36, 0
11, 76080, Note_on_c, 9, 62, 118
11, 76080, Note_on_c, 9, 59, 110
11, 76080, Note_on_c, 9, 36, 51
11, 76080, Note_on_c, 9, 44, 104
11, 76080, Note_on_c, 9, 37, 115
11, 76130, Note_on_c, 9, 44, 0
11, 76140, Note_on_c, 9, 59, 0
11, 76140, Note_on_c, 9, 62, 0
11, 76140, Note_on_c, 9, 37, 0
11, 76260, Note_on_c, 9, 36, 0
11, 76320, Note_on_c, 9, 36, 50
11, 76320, Note_on_c, 9, 59, 110
11, 76380, Note_on_c, 9, 59, 0
11, 76500, Note_on_c, 9, 36, 0
11, 76560, Note_on_c, 9, 64, 118
11, 76560, Note_on_c, 9, 38, 55
11, 76560, Note_on_c, 9, 36, 50
11, 76560, Note_on_c, 9, 44, 101
11, 76560, Note_on_c, 9, 59, 111
11, 76620, Note_on_c, 9, 44, 0
11, 76620, Note_on_c, 9, 38, 0
11, 76620, Note_on_c, 9, 64, 0
11, 76640, Note_on_c, 9, 59, 0
11, 76720, Note_on_c, 9, 64, 117
11, 76730, Note_on_c, 9, 36, 0
11, 76780, Note_on_c, 9, 64, 0
11, 76800, Note_on_c, 9, 36, 50
11, 76800, Note_on_c, 9, 59, 110
11, 76860, Note_on_c, 9, 59, 0
11, 76960, Note_on_c, 9, 36, 0
11, 77040, Note_on_c, 9, 59, 111
11, 77040, Note_on_c, 9, 44, 100
11, 77040, Note_on_c, 9, 37, 117
11, 77040, Note_on_c, 9, 62, 117
11, 77040, Note_on_c, 9, 36, 50
11, 77100, Note_on_c, 9, 62, 0
11, 77100, Note_on_c, 9, 59, 0
11, 77110, Note_on_c, 9, 44, 0
11, 77110, Note_on_c, 9, 37, 0
11, 77230, Note_on_c, 9, 36, 0
11, 77280, Note_on_c, 9, 36, 49
11, 77280, Note_on_c, 9, 59, 110
11, 77340, Note_on_c, 9, 59, 0
11, 77450, Note_on_c, 9, 36, 0
11, 77520, Note_on_c, 9, 64, 117
11, 77520, Note_on_c, 9, 59, 111
11, 77520, Note_on_c, 9, 36, 51
11, 77520, Note_on_c, 9, 44, 102
11, 77520, Note_on_c, 9, 38, 56
11, 77570, Note_on_c, 9, 38, 0
11, 77570, Note_on_c, 9, 44, 0
11, 77580, Note_on_c, 9, 64, 0
11, 77610, Note_on_c, 9, 59, 0
11, 77680, Note_on_c, 9, 64, 113
11, 77700, Note_on_c, 9, 36, 0
11, 77740, Note_on_c, 9, 64, 0
11, 77760, Note_on_c, 9, 36, 49
11, 77760, Note_on_c, 9, 59, 109
11, 77810, Note_on_c, 9, 59, 0
11, 77920, Note_on_c, 9, 36, 0
11, 78000, Note_on_c, 9, 44, 105
11, 78000, Note_on_c, 9, 37, 116
11, 78000, Note_on_c, 9, 36, 51
11, 78000, Note_on_c, 9, 62, 115
11, 78000, Note_on_c, 9, 59, 111
11, 78050, Note_on_c, 9, 62, 0
11, 78050, Note_on_c, 9, 37, 0
11, 78050, Note_on_c, 9, 44, 0
11, 78070, Note_on_c, 9, 59, 0
11, 78180, Note_on_c, 9, 36, 0
11, 78240, Note_on_c, 9, 36, 47
11, 78240, Note_on_c, 9, 59, 111
11, 78290, Note_on_c, 9, 59, 0
11, 78410, Note_on_c, 9, 36, 0
11, 78480, Note_on_c, 9, 59, 111
11, 78480, Note_on_c, 9, 44, 104
11, 78480, Note_on_c, 9, 38, 57
11, 78480, Note_on_c, 9, 64, 115
11, 78480, Note_on_c, 9, 36, 47
11, 78530, Note_on_c, 9, 38, 0
11, 78540, Note_on_c, 9, 64, 0
11, 78540, Note_on_c, 9, 44, 0
11, 78580, Note_on_c, 9, 59, 0
11, 78640, Note_on_c, 9, 64, 115
11, 78660, Note_on_c, 9, 36, 0
11, 78690, Note_on_c, 9, 64, 0
11, 78720, Note_on_c, 9, 59, 110
11, 78720, Note_on_c, 9, 36, 51
11, 78780, Note_on_c, 9, 59, 0
11, 78910, Note_on_c, 9, 36, 0
11, 78960, Note_on_c, 9, 62, 119
11, 78960, Note_on_c, 9, 36, 52
11, 78960, Note_on_c, 9, 59, 111
11, 78960, Note_on_c, 9, 44, 105
11, 78960, Note_on_c, 9, 37, 116
11, 79010, Note_on_c, 9, 44, 0
11, 79010, Note_on_c, 9, 62, 0
11, 79020, Note_on_c, 9, 37, 0
11, 79040, Note_on_c, 9, 59, 0
11, 79140, Note_on_c, 9, 36, 0
11, 79200, Note_on_c, 9, 36, 51
11, 79200, Note_on_c, 9, 59, 111
11, 79260, Note_on_c, 9, 59, 0
11, 79380, Note_on_c, 9, 36, 0
11, 79440, Note_on_c, 9, 44, 102
11, 79440, Note_on_c, 9, 38, 57
11, 79440, Note_on_c, 9, 36, 50
11, 79440, Note_on_c, 9, 64, 117
11, 79440, Note_on_c, 9, 59, 113
11, 79480, Note_on_c, 9, 44, 0
11, 79490, Note_on_c, 9, 38, 0
11, 79500, Note_on_c, 9, 64, 0
11, 79540, Note_on_c, 9, 59, 0
11, 79600, Note_on_c, 9, 64, 115
11, 79630, Note_on_c, 9, 36, 0
11, 79660, Note_on_c, 9, 64, 0
11, 79680, Note_on_c, 9, 36, 50
11, 79680, Note_on_c, 9, 59, 111
11, 79750, Note_on_c, 9, 59, 0
11, 79860, Note_on_c, 9, 36, 0
11, 79920, Note_on_c, 9, 59, 111
11, 79920, Note_on_c, 9, 44, 109
11, 79920, Note_on_c, 9, 62, 115
11, 79920, Note_on_c, 9, 36, 50
11, 79920, Note_on_c, 9, 37, 115
11, 79970, Note_on_c, 9, 62, 0
11, 79980, Note_on_c, 9, 37, 0
11, 79980, Note_on_c, 9, 44, 0
11, 80000, Note_on_c, 9, 59, 0
11, 80100, Note_on_c, 9, 36, 0
11, 80160, Note_on_c, 9, 59, 110
11, 80160, Note_on_c, 9, 36, 49
11, 80240, Note_on_c, 9, 59, 0
11, 80330, Note_on_c, 9, 36, 0
11, 80400, Note_on_c, 9, 64, 115
11, 80400, Note_on_c, 9, 36, 50
11, 80400, Note_on_c, 9, 59, 111
11, 80400, Note_on_c, 9, 44, 102
11, 80400, Note_on_c, 9, 38, 57
11, 80450, Note_on_c, 9, 38, 0
11, 80450, Note_on_c, 9, 44, 0
11, 80460, Note_on_c, 9, 59, 0
11, 80460, Note_on_c, 9, 64, 0
11, 80560, Note_on_c, 9, 64, 115
11, 80580, Note_on_c, 9, 36, 0
11, 80620, Note_on_c, 9, 64, 0
11, 80640, Note_on_c, 9, 59, 113
11, 80640, Note_on_c, 9, 36, 51
11, 80700, Note_on_c, 9, 59, 0
11, 80820, Note_on_c, 9, 36, 0
11, 80880, Note_on_c, 9, 62, 118
11, 80880, Note_on_c, 9, 59, 113
11, 80880, Note_on_c, 9, 44, 108
11, 80880, Note_on_c, 9, 37, 114
11, 80880, Note_on_c, 9, 36, 46
11, 80930, Note_on_c, 9, 62, 0
11, 80940, Note_on_c, 9, 37, 0
11, 80940, Note_on_c, 9, 59, 0
11, 80940, Note_on_c, 9, 44, 0
11, 81050, Note_on_c, 9, 36, 0
11, 81120, Note_on_c, 9, 59, 109
11, 81120, Note_on_c, 9, 36, 51
11, 81180, Note_on_c, 9, 59, 0
11, 81300, Note_on_c, 9, 36, 0
11, 81360, Note_on_c, 9, 44, 105
11, 81360, Note_on_c, 9, 36, 55
11, 81360, Note_on_c, 9, 38, 56
11, 81360, Note_on_c, 9, 59, 110
11, 81360, Note_on_c, 9, 64, 118
11, 81410, Note_on_c, 9, 38, 0
11, 81420, Note_on_c, 9, 59, 0
11, 81420, Note_on_c, 9, 64, 0
11, 81420, Note_on_c, 9, 44, 0
11, 81520, Note_on_c, 9, 64, 114
11, 81530, Note_on_c, 9, 36, 0
11, 81570, Note_on_c, 9, 64, 0
11, 81600, Note_on_c, 9, 36, 53
11, 81600, Note_on_c, 9, 59, 109
11, 81650, Note_on_c, 9, 59, 0
11, 81760, Note_on_c, 9, 36, 0
11, 81840, Note_on_c, 9, 62, 117
11, 81840, Note_on_c, 9, 59, 111
11, 81840, Note_on_c, 9, 36, 51
11, 81840, Note_on_c, 9, 44, 108
11, 81840, Note_on_c, 9, 37, 117
11, 81890, Note_on_c, 9, 44, 0
11, 81890, Note_on_c, 9, 62, 0
11, 81900, Note_on_c, 9, 37, 0
11, 81910, Note_on_c, 9, 59, 0
11, 82010, Note_on_c, 9, 36, 0
11, 82080, Note_on_c, 9, 36, 52
11, 82080, Note_on_c, 9, 59, 110
11, 82130, Note_on_c, 9, 59, 0
11, 82240, Note_on_c, 9, 36, 0
11, 82320, Note_on_c, 9, 64, 118
11, 82320, Note_on_c, 9, 38, 56
11, 82320, Note_on_c, 9, 36, 50
11, 82320, Note_on_c, 9, 44, 107
11, 82320, Note_on_c, 9, 59, 111
11, 82360, Note_on_c, 9, 38, 0
11, 82370, Note_on_c, 9, 44, 0
11, 82380, Note_on_c, 9, 64, 0
11, 82380, Note_on_c, 9, 59, 0
11, 82480, Note_on_c, 9, 64, 105
11, 82500, Note_on_c, 9, 36, 0
11, 82520, Note_on_c, 9, 64, 0
11, 82560, Note_on_c, 9, 36, 52
11, 82560, Note_on_c, 9, 59, 110
11, 82620, Note_on_c, 9, 59, 0
11, 82720, Note_on_c, 9, 36, 0
11, 82800, Note_on_c, 9, 59, 110
11, 82800, Note_on_c, 9, 44, 109
11, 82800, Note_on_c, 9, 37, 115
11, 82800, Note_on_c, 9, 62, 124
11, 82800, Note_on_c, 9, 36, 50
11, 82840, Note_on_c, 9, 62, 0
11, 82860, Note_on_c, 9, 37, 0
11, 82860, Note_on_c, 9, 59, 0
11, 82860, Note_on_c, 9, 44, 0
11, 82980, Note_on_c, 9, 36, 0
11, 83040, Note_on_c, 9, 36, 50
11, 83040, Note_on_c, 9, 59, 111
11, 83090, Note_on_c, 9, 59, 0
11, 83210, Note_on_c, 9, 36, 0
11, 83280, Note_on_c, 9, 64, 117
11, 83280, Note_on_c, 9, 59, 113
11, 83280, Note_on_c, 9, 36, 50
11, 83280, Note_on_c, 9, 44, 105
11, 83280, Note_on_c, 9, 38, 54
11, 83320, Note_on_c, 9, 38, 0
11, 83330, Note_on_c, 9, 59, 0
11, 83340, Note_on_c, 9, 64, 0
11, 83340, Note_on_c, 9, 44, 0
11, 83440, Note_on_c, 9, 64, 114
11, 83450, Note_on_c, 9, 36, 0
11, 83490, Note_on_c, 9, 64, 0
11, 83520, Note_on_c, 9, 36, 46
11, 83520, Note_on_c, 9, 59, 110
11, 83570, Note_on_c, 9, 59, 0
11, 83680, Note_on_c, 9, 36, 0
11, 83760, Note_on_c, 9, 44, 108
11, 83760, Note_on_c, 9, 37, 114
11, 83760, Note_on_c, 9, 36, 50
11, 83760, Note_on_c, 9, 62, 111
11, 83760, Note_on_c, 9, 59, 111
11, 83810, Note_on_c, 9, 62, 0
11, 83820, Note_on_c, 9, 44, 0
11, 83820, Note_on_c, 9, 59, 0
11, 83830, Note_on_c, 9, 37, 0
11, 83930, Note_on_c, 9, 36, 0
11, 84000, Note_on_c, 9, 36, 47
11, 84000, Note_on_c, 9, 59, 111
11, 84050, Note_on_c, 9, 59, 0
11, 84170, Note_on_c, 9, 36, 0
11, 84240, Note_on_c, 9, 59, 110
11, 84240, Note_on_c, 9, 44, 101
11, 84240, Note_on_c, 9, 38, 55
11, 84240, Note_on_c, 9, 64, 117
11, 84240, Note_on_c, 9, 36, 50
11, 84280, Note_on_c, 9, 38, 0
11, 84280, Note_on_c, 9, 44, 0
11, 84290, Note_on_c, 9, 59, 0
11, 84300, Note_on_c, 9, 64, 0
11, 84400, Note_on_c, 9, 64, 110
11, 84410, Note_on_c, 9, 36, 0
11, 84460, Note_on_c, 9, 64, 0
11, 84480, Note_on_c, 9, 59, 111
11, 84480, Note_on_c, 9, 36, 47
11, 84530, Note_on_c, 9, 59, 0
11, 84650, Note_on_c, 9, 36, 0
11, 84720, Note_on_c, 9, 62, 113
11, 84720, Note_on_c, 9, 36, 49
11, 84720, Note_on_c, 9, 59, 110
11, 84720, Note_on_c, 9, 44, 108
11, 84720, Note_on_c, 9, 37, 114
11, 84770, Note_on_c, 9, 44, 0
11, 84780, Note_on_c, 9, 59, 0
11, 84780, Note_on_c, 9, 37, 0
11, 84780, Note_on_c, 9, 62, 0
11, 84880, Note_on_c, 9, 36, 0
11, 84960, Note_on_c, 9, 36, 49
11, 84960, Note_on_c, 9, 59, 109
11, 85010, Note_on_c, 9, 59, 0
11, 85130, Note_on_c, 9, 36, 0
11, 85200, Note_on_c, 9, 44, 105
11, 85200, Note_on_c, 9, 38, 58
11, 85200, Note_on_c, 9, 36, 50
11, 85200, Note_on_c, 9, 64, 118
11, 85200, Note_on_c, 9, 59, 113
11, 85250, Note_on_c, 9, 38, 0
11, 85260, Note_on_c, 9, 64, 0
11, 85260, Note_on_c, 9, 44, 0
11, 85270, Note_on_c, 9, 59, 0
11, 85360, Note_on_c, 9, 64, 115
11, 85380, Note_on_c, 9, 36, 0
11, 85410, Note_on_c, 9, 64, 0
11, 85440, Note_on_c, 9, 36, 47
11, 85440, Note_on_c, 9, 59, 113
11, 85500, Note_on_c, 9, 59, 0
11, 85600, Note_on_c, 9, 36, 0
11, 85680, Note_on_c, 9, 59, 113
11, 85680, Note_on_c, 9, 44, 108
11, 85680, Note_on_c, 9, 62, 118
11, 85680, Note_on_c, 9, 36, 51
11, 85680, Note_on_c, 9, 37, 115
11, 85730, Note_on_c, 9, 62, 0
11, 85730, Note_on_c, 9, 44, 0
11, 85740, Note_on_c, 9, 59, 0
11, 85750, Note_on_c, 9, 37, 0
11, 85870, Note_on_c, 9, 36, 0
11, 85920, Note_on_c, 9, 59, 113
11, 85920, Note_on_c, 9, 36, 50
11, 85970, Note_on_c, 9, 59, 0
11, 86100, Note_on_c, 9, 36, 0
11, 86160, Note_on_c, 9, 64, 114
11, 86160, Note_on_c, 9, 36, 51
11, 86160, Note_on_c, 9, 59, 113
11, 86160, Note_on_c, 9, 44, 103
11, 86160, Note_on_c, 9, 38, 57
11, 86210, Note_on_c, 9, 38, 0
11, 86210, Note_on_c, 9, 64, 0
11, 86210, Note_on_c, 9, 44, 0
11, 86220, Note_on_c, 9, 59, 0
11, 86320, Note_on_c, 9, 64, 111
11, 86330, Note_on_c, 9, 36, 0
11, 86370, Note_on_c, 9, 64, 0
11, 86400, Note_on_c, 9, 59, 114
11, 86400, Note_on_c, 9, 36, 49
11, 86460, Note_on_c, 9, 59, 0
11, 86600, Note_on_c, 9, 36, 0
11, 86640, Note_on_c, 9, 59, 115
11, 86640, Note_on_c, 9, 62, 114
11, 86640, Note_on_c, 9, 37, 119
11, 86640, Note_on_c, 9, 44, 109
11, 86640, Note_on_c, 9, 36, 49
11, 86690, Note_on_c, 9, 44, 0
11, 86690, Note_on_c, 9, 62, 0
11, 86700, Note_on_c, 9, 59, 0
11, 86700, Note_on_c, 9, 37, 0
11, 86830, Note_on_c, 9, 36, 0
11, 86880, Note_on_c, 9, 59, 115
11, 86880, Note_on_c, 9, 36, 49
11, 86930, Note_on_c, 9, 59, 0
11, 87080, Note_on_c, 9, 36, 0
11, 87120, Note_on_c, 9, 59, 111
11, 87120, Note_on_c, 9, 44, 105
11, 87120, Note_on_c, 9, 38, 56
11, 87120, Note_on_c, 9, 64, 117
11, 87120, Note_on_c, 9, 36, 55
11, 87170, Note_on_c, 9, 38, 0
11, 87180, Note_on_c, 9, 64, 0
11, 87180, Note_on_c, 9, 44, 0
11, 87190, Note_on_c, 9, 59, 0
11, 87280, Note_on_c, 9, 64, 118
11, 87290, Note_on_c, 9, 36, 0
11, 87340, Note_on_c, 9, 64, 0
11, 87360, Note_on_c, 9, 59, 113
11, 87360, Note_on_c, 9, 36, 46
11, 87420, Note_on_c, 9, 59, 0
11, 87550, Note_on_c, 9, 36, 0
11, 87600, Note_on_c, 9, 62, 118
11, 87600, Note_on_c, 9, 36, 49
11, 87600, Note_on_c, 9, 59, 113
11, 87600, Note_on_c, 9, 44, 102
11, 87600, Note_on_c, 9, 37, 119
11, 87650, Note_on_c, 9, 62, 0
11, 87660, Note_on_c, 9, 44, 0
11, 87670, Note_on_c, 9, 37, 0
11, 87670, Note_on_c, 9, 59, 0
11, 87780, Note_on_c, 9, 36, 0
11, 87840, Note_on_c, 9, 36, 49
11, 87840, Note_on_c, 9, 59, 110
11, 87910, Note_on_c, 9, 59, 0
11, 88000, Note_on_c, 9, 36, 0
11, 88000, Note_on_c, 9, 47, 127
11, 88040, Note_on_c, 9, 47, 0
11, 88080, Note_on_c, 9, 44, 56
11, 88080, Note_on_c, 9, 59, 114
11, 88110, Note_on_c, 9, 44, 0
11, 88140, Note_on_c, 9, 59, 0
11, 88240, Note_on_c, 9, 63, 127
11, 88280, Note_on_c, 9, 63, 0
11, 88320, Note_on_c, 9, 63, 115
11, 88320, Note_on_c, 9, 59, 114
11, 88350, Note_on_c, 9, 63, 0
11, 88380, Note_on_c, 9, 59, 0
11, 88560, Note_on_c, 9, 44, 102
11, 88560, Note_on_c, 9, 59, 111
11, 88610, Note_on_c, 9, 44, 0
11, 88630, Note_on_c, 9, 59, 0
11, 88800, Note_on_c, 9, 59, 110
11, 88870, Note_on_c, 9, 59, 0
11, 89040, Note_on_c, 9, 44, 101
11, 89040, Note_on_c, 9, 59, 111
11, 89040, Note_on_c, 9, 38, 56
11, 89100, Note_on_c, 9, 38, 0
11, 89110, Note_on_c, 9, 44, 0
11, 89140, Note_on_c, 9, 59, 0
11, 89280, Note_on_c, 9, 59, 111
11, 89350, Note_on_c, 9, 59, 0
11, 89520, Note_on_c, 9, 59, 113
11, 89520, Note_on_c, 9, 44, 102
11, 89580, Note_on_c, 9, 44, 0
11, 89620, Note_on_c, 9, 59, 0
11, 89760, Note_on_c, 9, 59, 113
11, 89810, Note_on_c, 9, 59, 0
11, 90000, Note_on_c, 9, 38, 55
11, 90000, Note_on_c, 9, 59, 113
11, 90000, Note_on_c, 9, 44, 102
11, 90050, Note_on_c, 9, 38, 0
11, 90060, Note_on_c, 9, 44, 0
11, 90090, Note_on_c, 9, 59, 0
11, 90240, Note_on_c, 9, 59, 110
11, 90300, Note_on_c, 9, 59, 0
11, 90480, Note_on_c, 9, 44, 105
11, 90480, Note_on_c, 9, 59, 104
11, 90540, Note_on_c, 9, 44, 0
11, 90550, Note_on_c, 9, 59, 0
11, 90720, Note_on_c, 9, 59, 109
11, 90770, Note_on_c, 9, 59, 0
11, 90960, Note_on_c, 9, 44, 104
11, 90960, Note_on_c, 9, 59, 113
11, 90960, Note_on_c, 9, 38, 54
11, 91020, Note_on_c, 9, 38, 0
11, 91030, Note_on_c, 9, 44, 0
11, 91050, Note_on_c, 9, 59, 0
11, 91200, Note_on_c, 9, 59, 110
11, 91250, Note_on_c, 9, 59, 0
11, 91440, Note_on_c, 9, 44, 97
11, 91440, Note_on_c, 9, 59, 110
11, 91500, Note_on_c, 9, 44, 0
11, 91510, Note_on_c, 9, 59, 0
11, 91680, Note_on_c, 9, 59, 111
11, 91740, Note_on_c, 9, 59, 0
11, 91920, Note_on_c, 9, 44, 100
11, 91920, Note_on_c, 9, 38, 55
11, 91920, Note_on_c, 9, 59, 110
11, 91970, Note_on_c, 9, 38, 0
11, 91980, Note_on_c, 9, 44, 0
11, 92000, Note_on_c, 9, 59, 0
11, 92160, Note_on_c, 9, 59, 111
11, 92220, Note_on_c, 9, 59, 0
11, 92400, Note_on_c, 9, 44, 105
11, 92400, Note_on_c, 9, 59, 111
11, 92460, Note_on_c, 9, 44, 0
11, 92470, Note_on_c, 9, 59, 0
11, 92640, Note_on_c, 9, 59, 110
11, 92700, Note_on_c, 9, 59, 0
11, 92880, Note_on_c, 9, 59, 111
11, 92880, Note_on_c, 9, 38, 54
11, 92880, Note_on_c, 9, 44, 103
11, 92930, Note_on_c, 9, 38, 0
11, 92940, Note_on_c, 9, 44, 0
11, 92960, Note_on_c, 9, 59, 0
11, 93120, Note_on_c, 9, 59, 113
11, 93180, Note_on_c, 9, 59, 0
11, 93360, Note_on_c, 9, 44, 100
11, 93360, Note_on_c, 9, 59, 113
11, 93430, Note_on_c, 9, 59, 0
11, 93430, Note_on_c, 9, 44, 0
11, 93600, Note_on_c, 9, 59, 113
11, 93680, Note_on_c, 9, 59, 0
11, 93840, Note_on_c, 9, 38, 54
11, 93840, Note_on_c, 9, 59, 113
11, 93840, Note_on_c, 9, 44, 80
11, 93900, Note_on_c, 9, 44, 0
11, 93920, Note_on_c, 9, 38, 0
11, 93930, Note_on_c, 9, 59, 0
11, 94000, Note_on_c, 9, 46, 83
11, 94000, Note_on_c, 9, 59, 117
11, 94000, Note_on_c, 9, 36, 43
11, 94060, Note_on_c, 9, 59, 0
11, 94060, Note_on_c, 9, 46, 0
11, 94070, Note_on_c, 9, 36, 0
11, 94240, Note_on_c, 9, 36, 51
11, 94240, Note_on_c, 9, 46, 81
11, 94240, Note_on_c, 9, 59, 119
11, 94300, Note_on_c, 9, 59, 0
11, 94300, Note_on_c, 9, 46, 0
11, 94320, Note_on_c, 9, 44, 104
11, 94340, Note_on_c, 9, 36, 0
11, 94370, Note_on_c, 9, 44, 0
11, 94480, Note_on_c, 9, 46, 116
11, 94480, Note_on_c, 9, 36, 57
11, 94480, Note_on_c, 9, 59, 114
11, 94540, Note_on_c, 9, 46, 0
11, 94550, Note_on_c, 9, 59, 0
11, 94570, Note_on_c, 9, 36, 0
11, 94720, Note_on_c, 9, 46, 115
11, 94720, Note_on_c, 9, 59, 113
11, 94720, Note_on_c, 9, 36, 60
11, 94780, Note_on_c, 9, 46, 0
11, 94790, Note_on_c, 9, 59, 0
11, 94800, Note_on_c, 9, 36, 0
11, 94800, Note_on_c, 9, 44, 109
11, 94860, Note_on_c, 9, 44, 0
11, 94960, Note_on_c, 9, 36, 64
11, 94960, Note_on_c, 9, 46, 121
11, 94960, Note_on_c, 9, 59, 111
11, 95000, Note_on_c, 9, 59, 0
11, 95010, Note_on_c, 9, 46, 0
11, 95050, Note_on_c, 9, 36, 0
11, 95520, Note_on_c, 9, 36, 64
11, 95520, Note_on_c, 9, 46, 124
11, 95570, Note_on_c, 9, 46, 0
11, 95650, Note_on_c, 9, 36, 0
11, 95650, End_track
12, 0, Start_track
12, 0, Title_t, ""
12, 0, Control_c, 10, 7, 100
12, 0, Control_c, 10, 10, 64
12, 0, End_track
13, 0, Start_track
13, 0, Title_t, ""
13, 0, Control_c, 11, 7, 100
13, 0, Control_c, 11, 10, 64
13, 105600, Control_c, 11, 121, 0
13, 105600, Control_c, 11, 0, 0
13, 105600, Control_c, 11, 32, 0
13, 105600, Control_c, 11, 91, 24
13, 105600, Control_c, 11, 93, 0
13, 105600, End_track
14, 0, Start_track
14, 0, Title_t, ""
14, 0, Control_c, 12, 7, 100
14, 0, Control_c, 12, 10, 64
14, 105600, Control_c, 12, 121, 0
14, 105600, Control_c, 12, 0, 0
14, 105600, Control_c, 12, 32, 0
14, 105600, Control_c, 12, 91, 24
14, 105600, Control_c, 12, 93, 0
14, 105600, End_track
15, 0, Start_track
15, 0, Title_t, ""
15, 0, Control_c, 13, 7, 100
15, 0, Control_c, 13, 10, 64
15, 105600, Control_c, 13, 121, 0
15, 105600, Control_c, 13, 0, 0
15, 105600, Control_c, 13, 32, 0
15, 105600, Control_c, 13, 91, 24
15, 105600, Control_c, 13, 93, 0
15, 105600, End_track
16, 0, Start_track
16, 0, Title_t, ""
16, 0, Control_c, 14, 7, 100
16, 0, Control_c, 14, 10, 64
16, 105600, Control_c, 14, 121, 0
16, 105600, Control_c, 14, 0, 0
16, 105600, Control_c, 14, 32, 0
16, 105600, Control_c, 14, 91, 24
16, 105600, Control_c, 14, 93, 0
16, 105600, End_track
17, 0, Start_track
17, 0, Title_t, ""
17, 0, Control_c, 15, 7, 100
17, 0, Control_c, 15, 10, 64
17, 105600, Control_c, 15, 121, 0
17, 105600, Control_c, 15, 0, 0
17, 105600, Control_c, 15, 32, 0
17, 105600, Control_c, 15, 91, 24
17, 105600, Control_c, 15, 93, 0
17, 105600, End_track
0, 0, End_of_file
