0, 0, Header, 0, 1, 120
1, 0, Start_track
1, 0, Title_t, "JustFriends - Piano Solo"
1, 0, Text_t, "dougmck@pipeline.com.au. \012"
1, 0, Time_signature, 4, 2, 24, 8
1, 0, Key_signature, 1, "major"
1, 0, Tempo, 545455
1, 0, Program_c, 0, 0
1, 123, Note_on_c, 0, 71, 80
1, 123, Note_on_c, 0, 75, 64
1, 124, Note_on_c, 0, 83, 72
1, 125, Note_on_c, 0, 79, 51
1, 145, Note_on_c, 0, 71, 0
1, 150, Note_on_c, 0, 75, 0
1, 150, Note_on_c, 0, 83, 0
1, 150, Note_on_c, 0, 79, 0
1, 199, Note_on_c, 0, 79, 46
1, 216, Note_on_c, 0, 79, 0
1, 231, Note_on_c, 0, 36, 49
1, 233, Note_on_c, 0, 79, 40
1, 236, Note_on_c, 0, 83, 51
1, 236, Note_on_c, 0, 71, 36
1, 242, Note_on_c, 0, 76, 22
1, 243, Control_c, 0, 64, 127
1, 244, Note_on_c, 0, 52, 24
1, 245, Note_on_c, 0, 36, 0
1, 262, Note_on_c, 0, 52, 0
1, 289, Note_on_c, 0, 76, 0
1, 290, Note_on_c, 0, 71, 0
1, 292, Note_on_c, 0, 83, 0
1, 292, Note_on_c, 0, 79, 0
1, 314, Note_on_c, 0, 83, 58
1, 315, Note_on_c, 0, 71, 44
1, 316, Note_on_c, 0, 79, 34
1, 317, Note_on_c, 0, 76, 35
1, 324, Note_on_c, 0, 79, 0
1, 325, Note_on_c, 0, 76, 0
1, 325, Note_on_c, 0, 83, 0
1, 327, Note_on_c, 0, 71, 0
1, 344, Note_on_c, 0, 64, 40
1, 347, Control_c, 0, 64, 0
1, 351, Note_on_c, 0, 64, 0
1, 351, Note_on_c, 0, 59, 20
1, 353, Note_on_c, 0, 55, 26
1, 357, Note_on_c, 0, 59, 0
1, 360, Note_on_c, 0, 55, 0
1, 392, Control_c, 0, 64, 127
1, 454, Note_on_c, 0, 59, 58
1, 455, Control_c, 0, 64, 0
1, 455, Note_on_c, 0, 67, 43
1, 455, Note_on_c, 0, 52, 55
1, 456, Note_on_c, 0, 64, 51
1, 457, Note_on_c, 0, 62, 42
1, 490, Control_c, 0, 64, 127
1, 506, Note_on_c, 0, 64, 0
1, 506, Note_on_c, 0, 52, 0
1, 509, Note_on_c, 0, 62, 0
1, 511, Note_on_c, 0, 67, 0
1, 520, Note_on_c, 0, 59, 0
1, 563, Note_on_c, 0, 63, 43
1, 563, Control_c, 0, 64, 0
1, 565, Note_on_c, 0, 54, 38
1, 566, Note_on_c, 0, 58, 53
1, 624, Note_on_c, 0, 54, 0
1, 626, Note_on_c, 0, 63, 0
1, 628, Note_on_c, 0, 58, 0
1, 635, Note_on_c, 0, 55, 49
1, 637, Note_on_c, 0, 64, 41
1, 640, Note_on_c, 0, 59, 42
1, 667, Note_on_c, 0, 55, 0
1, 667, Note_on_c, 0, 36, 29
1, 670, Note_on_c, 0, 43, 32
1, 672, Control_c, 0, 64, 127
1, 677, Note_on_c, 0, 52, 18
1, 685, Note_on_c, 0, 59, 0
1, 688, Note_on_c, 0, 36, 0
1, 694, Note_on_c, 0, 43, 0
1, 696, Note_on_c, 0, 64, 0
1, 708, Note_on_c, 0, 52, 0
1, 781, Note_on_c, 0, 64, 57
1, 784, Note_on_c, 0, 59, 38
1, 784, Note_on_c, 0, 60, 45
1, 787, Note_on_c, 0, 64, 0
1, 790, Note_on_c, 0, 60, 0
1, 791, Note_on_c, 0, 59, 0
1, 801, Control_c, 0, 64, 0
1, 828, Control_c, 0, 64, 127
1, 848, Note_on_c, 0, 69, 118
1, 878, Control_c, 0, 64, 0
1, 882, Note_on_c, 0, 69, 0
1, 888, Note_on_c, 0, 59, 38
1, 891, Note_on_c, 0, 48, 35
1, 892, Note_on_c, 0, 67, 66
1, 893, Note_on_c, 0, 71, 65
1, 893, Note_on_c, 0, 55, 30
1, 916, Control_c, 0, 64, 127
1, 943, Note_on_c, 0, 59, 0
1, 983, Note_on_c, 0, 67, 0
1, 988, Note_on_c, 0, 71, 0
1, 991, Note_on_c, 0, 59, 37
1, 1013, Note_on_c, 0, 59, 0
1, 1025, Note_on_c, 0, 48, 0
1, 1056, Note_on_c, 0, 55, 0
1, 1064, Note_on_c, 0, 69, 61
1, 1083, Note_on_c, 0, 69, 0
1, 1099, Control_c, 0, 64, 0
1, 1103, Note_on_c, 0, 55, 39
1, 1105, Note_on_c, 0, 58, 33
1, 1105, Note_on_c, 0, 63, 32
1, 1106, Note_on_c, 0, 48, 43
1, 1122, Control_c, 0, 64, 127
1, 1139, Note_on_c, 0, 48, 0
1, 1143, Note_on_c, 0, 58, 0
1, 1144, Note_on_c, 0, 55, 0
1, 1163, Note_on_c, 0, 63, 0
1, 1213, Note_on_c, 0, 53, 65
1, 1213, Note_on_c, 0, 63, 65
1, 1215, Note_on_c, 0, 58, 58
1, 1218, Control_c, 0, 64, 0
1, 1244, Control_c, 0, 64, 127
1, 1323, Note_on_c, 0, 74, 91
1, 1324, Control_c, 0, 64, 0
1, 1336, Note_on_c, 0, 74, 0
1, 1359, Note_on_c, 0, 75, 80
1, 1370, Note_on_c, 0, 75, 0
1, 1476, Control_c, 0, 64, 127
1, 1485, Note_on_c, 0, 77, 70
1, 1503, Note_on_c, 0, 77, 0
1, 1509, Note_on_c, 0, 53, 0
1, 1514, Note_on_c, 0, 75, 54
1, 1523, Note_on_c, 0, 63, 0
1, 1534, Note_on_c, 0, 75, 0
1, 1538, Note_on_c, 0, 58, 0
1, 1540, Control_c, 0, 64, 0
1, 1546, Note_on_c, 0, 62, 38
1, 1548, Note_on_c, 0, 51, 38
1, 1551, Note_on_c, 0, 74, 27
1, 1552, Note_on_c, 0, 57, 34
1, 1556, Control_c, 0, 64, 127
1, 1569, Note_on_c, 0, 62, 0
1, 1576, Note_on_c, 0, 57, 0
1, 1584, Note_on_c, 0, 51, 0
1, 1606, Note_on_c, 0, 74, 0
1, 1619, Note_on_c, 0, 41, 54
1, 1626, Note_on_c, 0, 41, 0
1, 1656, Note_on_c, 0, 69, 55
1, 1657, Note_on_c, 0, 62, 42
1, 1658, Control_c, 0, 64, 0
1, 1659, Note_on_c, 0, 66, 42
1, 1659, Note_on_c, 0, 51, 31
1, 1675, Control_c, 0, 64, 127
1, 1701, Note_on_c, 0, 69, 0
1, 1711, Note_on_c, 0, 66, 0
1, 1716, Note_on_c, 0, 62, 0
1, 1736, Note_on_c, 0, 51, 0
1, 1736, Note_on_c, 0, 48, 33
1, 1756, Note_on_c, 0, 66, 44
1, 1757, Note_on_c, 0, 62, 22
1, 1758, Note_on_c, 0, 51, 36
1, 1758, Note_on_c, 0, 57, 41
1, 1759, Note_on_c, 0, 48, 0
1, 1762, Control_c, 0, 64, 0
1, 1794, Control_c, 0, 64, 127
1, 1817, Note_on_c, 0, 62, 0
1, 1828, Note_on_c, 0, 51, 0
1, 1834, Note_on_c, 0, 57, 0
1, 1861, Note_on_c, 0, 61, 43
1, 1863, Control_c, 0, 64, 0
1, 1863, Note_on_c, 0, 57, 34
1, 1864, Note_on_c, 0, 42, 34
1, 1871, Note_on_c, 0, 66, 0
1, 1879, Control_c, 0, 64, 127
1, 1910, Note_on_c, 0, 57, 0
1, 1912, Note_on_c, 0, 61, 0
1, 1920, Note_on_c, 0, 42, 0
1, 1933, Note_on_c, 0, 42, 19
1, 1952, Control_c, 0, 64, 0
1, 1962, Note_on_c, 0, 42, 0
1, 1965, Note_on_c, 0, 43, 41
1, 1967, Note_on_c, 0, 62, 35
1, 1967, Note_on_c, 0, 54, 35
1, 1971, Note_on_c, 0, 57, 44
1, 1974, Control_c, 0, 64, 127
1, 1976, Note_on_c, 0, 59, 25
1, 1982, Note_on_c, 0, 54, 0
1, 1984, Note_on_c, 0, 57, 0
1, 1984, Note_on_c, 0, 59, 0
1, 1987, Note_on_c, 0, 43, 0
1, 1993, Note_on_c, 0, 62, 0
1, 2042, Note_on_c, 0, 81, 83
1, 2066, Note_on_c, 0, 81, 0
1, 2072, Note_on_c, 0, 64, 46
1, 2074, Control_c, 0, 64, 0
1, 2076, Note_on_c, 0, 69, 24
1, 2076, Note_on_c, 0, 59, 38
1, 2078, Note_on_c, 0, 64, 0
1, 2079, Note_on_c, 0, 74, 18
1, 2083, Note_on_c, 0, 59, 0
1, 2084, Note_on_c, 0, 74, 0
1, 2094, Note_on_c, 0, 69, 0
1, 2107, Note_on_c, 0, 74, 33
1, 2120, Note_on_c, 0, 74, 0
1, 2139, Control_c, 0, 64, 127
1, 2143, Note_on_c, 0, 81, 74
1, 2146, Note_on_c, 0, 74, 42
1, 2150, Note_on_c, 0, 81, 0
1, 2152, Note_on_c, 0, 74, 0
1, 2166, Control_c, 0, 64, 0
1, 2180, Note_on_c, 0, 54, 43
1, 2181, Note_on_c, 0, 69, 80
1, 2183, Note_on_c, 0, 62, 74
1, 2209, Control_c, 0, 64, 127
1, 2246, Note_on_c, 0, 62, 0
1, 2263, Note_on_c, 0, 54, 0
1, 2275, Note_on_c, 0, 69, 0
1, 2280, Control_c, 0, 64, 0
1, 2282, Note_on_c, 0, 66, 42
1, 2285, Note_on_c, 0, 62, 45
1, 2286, Note_on_c, 0, 57, 33
1, 2288, Note_on_c, 0, 59, 24
1, 2295, Note_on_c, 0, 59, 0
1, 2310, Control_c, 0, 64, 127
1, 2339, Note_on_c, 0, 62, 0
1, 2343, Note_on_c, 0, 66, 0
1, 2355, Note_on_c, 0, 57, 0
1, 2360, Note_on_c, 0, 50, 34
1, 2373, Note_on_c, 0, 50, 0
1, 2388, Note_on_c, 0, 57, 37
1, 2389, Control_c, 0, 64, 0
1, 2391, Note_on_c, 0, 64, 37
1, 2391, Note_on_c, 0, 59, 43
1, 2391, Note_on_c, 0, 52, 44
1, 2391, Note_on_c, 0, 62, 35
1, 2454, Note_on_c, 0, 52, 0
1, 2462, Note_on_c, 0, 59, 0
1, 2462, Note_on_c, 0, 51, 46
1, 2463, Note_on_c, 0, 62, 0
1, 2466, Note_on_c, 0, 57, 0
1, 2488, Note_on_c, 0, 64, 0
1, 2495, Note_on_c, 0, 51, 0
1, 2500, Note_on_c, 0, 62, 44
1, 2501, Control_c, 0, 64, 127
1, 2502, Note_on_c, 0, 50, 35
1, 2504, Note_on_c, 0, 59, 32
1, 2520, Note_on_c, 0, 59, 0
1, 2521, Note_on_c, 0, 62, 0
1, 2553, Note_on_c, 0, 50, 0
1, 2571, Note_on_c, 0, 62, 81
1, 2572, Note_on_c, 0, 69, 82
1, 2572, Note_on_c, 0, 66, 67
1, 2573, Note_on_c, 0, 43, 41
1, 2574, Note_on_c, 0, 59, 59
1, 2575, Note_on_c, 0, 57, 64
1, 2578, Control_c, 0, 64, 0
1, 2579, Note_on_c, 0, 54, 64
1, 2581, Note_on_c, 0, 57, 0
1, 2633, Note_on_c, 0, 59, 0
1, 2635, Note_on_c, 0, 54, 0
1, 2640, Note_on_c, 0, 62, 0
1, 2644, Note_on_c, 0, 66, 0
1, 2646, Note_on_c, 0, 69, 0
1, 2654, Note_on_c, 0, 62, 68
1, 2654, Note_on_c, 0, 67, 66
1, 2655, Note_on_c, 0, 59, 74
1, 2655, Note_on_c, 0, 66, 39
1, 2655, Note_on_c, 0, 52, 66
1, 2657, Control_c, 0, 64, 127
1, 2697, Control_c, 0, 64, 0
1, 2706, Note_on_c, 0, 59, 0
1, 2707, Note_on_c, 0, 52, 0
1, 2711, Note_on_c, 0, 62, 0
1, 2712, Note_on_c, 0, 67, 0
1, 2715, Note_on_c, 0, 66, 0
1, 2722, Note_on_c, 0, 69, 74
1, 2723, Note_on_c, 0, 62, 79
1, 2723, Note_on_c, 0, 59, 66
1, 2725, Note_on_c, 0, 66, 52
1, 2726, Control_c, 0, 64, 127
1, 2730, Note_on_c, 0, 52, 45
1, 2743, Note_on_c, 0, 52, 0
1, 2763, Note_on_c, 0, 66, 0
1, 2776, Note_on_c, 0, 69, 0
1, 2776, Note_on_c, 0, 59, 0
1, 2779, Note_on_c, 0, 62, 0
1, 2784, Note_on_c, 0, 43, 0
1, 2792, Note_on_c, 0, 67, 59
1, 2794, Note_on_c, 0, 50, 49
1, 2801, Note_on_c, 0, 50, 0
1, 2809, Note_on_c, 0, 67, 0
1, 2847, Control_c, 0, 64, 0
1, 2854, Note_on_c, 0, 73, 67
1, 2856, Note_on_c, 0, 61, 43
1, 2857, Note_on_c, 0, 56, 44
1, 2857, Note_on_c, 0, 65, 62
1, 2860, Note_on_c, 0, 46, 33
1, 2877, Control_c, 0, 64, 127
1, 2884, Note_on_c, 0, 46, 0
1, 2891, Note_on_c, 0, 56, 0
1, 2945, Note_on_c, 0, 60, 60
1, 2949, Control_c, 0, 64, 0
1, 2972, Note_on_c, 0, 65, 0
1, 2978, Control_c, 0, 64, 127
1, 2996, Note_on_c, 0, 61, 0
1, 3023, Note_on_c, 0, 61, 45
1, 3025, Note_on_c, 0, 65, 55
1, 3036, Control_c, 0, 64, 0
1, 3045, Note_on_c, 0, 60, 0
1, 3054, Note_on_c, 0, 58, 31
1, 3058, Control_c, 0, 64, 127
1, 3104, Note_on_c, 0, 65, 0
1, 3118, Note_on_c, 0, 61, 0
1, 3144, Note_on_c, 0, 58, 0
1, 3160, Note_on_c, 0, 73, 0
1, 3164, Note_on_c, 0, 61, 44
1, 3166, Note_on_c, 0, 65, 49
1, 3205, Note_on_c, 0, 65, 0
1, 3207, Note_on_c, 0, 61, 0
1, 3234, Note_on_c, 0, 46, 57
1, 3246, Note_on_c, 0, 46, 0
1, 3267, Control_c, 0, 64, 0
1, 3271, Note_on_c, 0, 61, 46
1, 3274, Note_on_c, 0, 39, 32
1, 3274, Note_on_c, 0, 65, 52
1, 3274, Note_on_c, 0, 27, 53
1, 3276, Note_on_c, 0, 69, 44
1, 3289, Control_c, 0, 64, 127
1, 3290, Note_on_c, 0, 27, 0
1, 3294, Note_on_c, 0, 39, 0
1, 3349, Note_on_c, 0, 69, 0
1, 3352, Note_on_c, 0, 65, 0
1, 3354, Note_on_c, 0, 61, 0
1, 3383, Note_on_c, 0, 60, 89
1, 3487, Note_on_c, 0, 60, 0
1, 3488, Control_c, 0, 64, 0
1, 3491, Note_on_c, 0, 61, 39
1, 3494, Note_on_c, 0, 69, 49
1, 3494, Note_on_c, 0, 65, 47
1, 3495, Note_on_c, 0, 58, 39
1, 3511, Control_c, 0, 64, 127
1, 3541, Note_on_c, 0, 58, 0
1, 3558, Note_on_c, 0, 65, 0
1, 3570, Note_on_c, 0, 61, 0
1, 3582, Note_on_c, 0, 69, 0
1, 3597, Control_c, 0, 64, 0
1, 3598, Note_on_c, 0, 61, 35
1, 3599, Note_on_c, 0, 56, 30
1, 3600, Note_on_c, 0, 46, 31
1, 3601, Note_on_c, 0, 65, 42
1, 3623, Control_c, 0, 64, 127
1, 3646, Note_on_c, 0, 65, 0
1, 3652, Note_on_c, 0, 61, 0
1, 3659, Note_on_c, 0, 56, 0
1, 3670, Note_on_c, 0, 46, 0
1, 3677, Note_on_c, 0, 52, 31
1, 3694, Note_on_c, 0, 52, 0
1, 3698, Control_c, 0, 64, 0
1, 3709, Note_on_c, 0, 60, 34
1, 3709, Note_on_c, 0, 67, 32
1, 3711, Note_on_c, 0, 45, 33
1, 3712, Note_on_c, 0, 55, 34
1, 3713, Note_on_c, 0, 64, 26
1, 3714, Control_c, 0, 64, 127
1, 3716, Note_on_c, 0, 60, 0
1, 3719, Note_on_c, 0, 45, 0
1, 3720, Note_on_c, 0, 64, 0
1, 3725, Note_on_c, 0, 67, 0
1, 3728, Note_on_c, 0, 55, 0
1, 3782, Note_on_c, 0, 79, 77
1, 3783, Note_on_c, 0, 67, 80
1, 3795, Note_on_c, 0, 67, 0
1, 3800, Note_on_c, 0, 79, 0
1, 3813, Note_on_c, 0, 64, 40
1, 3814, Note_on_c, 0, 76, 39
1, 3817, Control_c, 0, 64, 0
1, 3817, Note_on_c, 0, 60, 30
1, 3819, Note_on_c, 0, 64, 0
1, 3824, Note_on_c, 0, 60, 0
1, 3833, Note_on_c, 0, 76, 0
1, 3848, Note_on_c, 0, 79, 68
1, 3850, Note_on_c, 0, 67, 53
1, 3865, Note_on_c, 0, 67, 0
1, 3867, Note_on_c, 0, 79, 0
1, 3880, Note_on_c, 0, 76, 40
1, 3894, Control_c, 0, 64, 127
1, 3900, Note_on_c, 0, 76, 0
1, 3910, Note_on_c, 0, 79, 70
1, 3912, Note_on_c, 0, 67, 36
1, 3913, Note_on_c, 0, 51, 46
1, 3914, Note_on_c, 0, 72, 47
1, 3921, Note_on_c, 0, 72, 0
1, 3922, Note_on_c, 0, 52, 43
1, 3923, Control_c, 0, 64, 0
1, 3928, Note_on_c, 0, 51, 0
1, 3930, Note_on_c, 0, 67, 0
1, 3936, Note_on_c, 0, 79, 0
1, 3953, Note_on_c, 0, 76, 22
1, 3979, Note_on_c, 0, 76, 0
1, 3984, Note_on_c, 0, 79, 58
1, 3987, Note_on_c, 0, 67, 40
1, 3993, Control_c, 0, 64, 127
1, 3996, Note_on_c, 0, 52, 0
1, 4007, Note_on_c, 0, 79, 0
1, 4009, Note_on_c, 0, 67, 0
1, 4016, Note_on_c, 0, 76, 29
1, 4035, Control_c, 0, 64, 0
1, 4036, Note_on_c, 0, 76, 0
1, 4042, Note_on_c, 0, 39, 38
1, 4043, Note_on_c, 0, 51, 34
1, 4047, Note_on_c, 0, 79, 59
1, 4047, Note_on_c, 0, 67, 39
1, 4069, Note_on_c, 0, 67, 0
1, 4070, Note_on_c, 0, 79, 0
1, 4078, Control_c, 0, 64, 127
1, 4080, Note_on_c, 0, 76, 36
1, 4095, Note_on_c, 0, 51, 0
1, 4099, Note_on_c, 0, 76, 0
1, 4108, Note_on_c, 0, 79, 54
1, 4112, Note_on_c, 0, 67, 57
1, 4120, Note_on_c, 0, 39, 0
1, 4127, Note_on_c, 0, 67, 0
1, 4128, Note_on_c, 0, 79, 0
1, 4135, Control_c, 0, 64, 0
1, 4145, Note_on_c, 0, 38, 39
1, 4146, Note_on_c, 0, 50, 25
1, 4147, Note_on_c, 0, 78, 46
1, 4152, Note_on_c, 0, 38, 0
1, 4156, Note_on_c, 0, 66, 14
1, 4167, Note_on_c, 0, 50, 0
1, 4191, Control_c, 0, 64, 127
1, 4194, Note_on_c, 0, 66, 0
1, 4196, Note_on_c, 0, 78, 0
1, 4217, Note_on_c, 0, 66, 37
1, 4219, Note_on_c, 0, 74, 44
1, 4225, Note_on_c, 0, 66, 0
1, 4228, Note_on_c, 0, 74, 0
1, 4247, Control_c, 0, 64, 0
1, 4250, Note_on_c, 0, 60, 44
1, 4253, Note_on_c, 0, 54, 38
1, 4255, Note_on_c, 0, 60, 0
1, 4267, Note_on_c, 0, 54, 0
1, 4316, Control_c, 0, 64, 127
1, 4328, Note_on_c, 0, 49, 28
1, 4350, Note_on_c, 0, 49, 0
1, 4358, Control_c, 0, 64, 0
1, 4359, Note_on_c, 0, 50, 54
1, 4360, Note_on_c, 0, 60, 56
1, 4362, Note_on_c, 0, 54, 29
1, 4363, Note_on_c, 0, 62, 36
1, 4401, Control_c, 0, 64, 127
1, 4433, Note_on_c, 0, 45, 35
1, 4442, Note_on_c, 0, 60, 0
1, 4446, Note_on_c, 0, 54, 0
1, 4452, Note_on_c, 0, 45, 0
1, 4456, Note_on_c, 0, 50, 0
1, 4470, Note_on_c, 0, 54, 74
1, 4471, Control_c, 0, 64, 0
1, 4531, Control_c, 0, 64, 127
1, 4536, Note_on_c, 0, 54, 0
1, 4536, Note_on_c, 0, 62, 0
1, 4539, Note_on_c, 0, 44, 42
1, 4556, Note_on_c, 0, 44, 0
1, 4572, Control_c, 0, 64, 0
1, 4575, Note_on_c, 0, 42, 57
1, 4581, Note_on_c, 0, 57, 48
1, 4597, Control_c, 0, 64, 127
1, 4610, Note_on_c, 0, 42, 0
1, 4627, Note_on_c, 0, 57, 0
1, 4688, Note_on_c, 0, 64, 49
1, 4689, Note_on_c, 0, 60, 53
1, 4692, Note_on_c, 0, 54, 28
1, 4694, Note_on_c, 0, 64, 0
1, 4696, Note_on_c, 0, 60, 0
1, 4702, Note_on_c, 0, 54, 0
1, 4733, Note_on_c, 0, 69, 96
1, 4756, Note_on_c, 0, 69, 0
1, 4760, Note_on_c, 0, 67, 62
1, 4774, Note_on_c, 0, 67, 0
1, 4792, Note_on_c, 0, 47, 50
1, 4792, Note_on_c, 0, 64, 80
1, 4793, Note_on_c, 0, 71, 71
1, 4795, Note_on_c, 0, 66, 69
1, 4795, Control_c, 0, 64, 0
1, 4796, Note_on_c, 0, 57, 46
1, 4826, Control_c, 0, 64, 127
1, 4862, Note_on_c, 0, 64, 0
1, 4863, Note_on_c, 0, 57, 0
1, 4876, Note_on_c, 0, 66, 0
1, 4888, Note_on_c, 0, 71, 0
1, 4898, Note_on_c, 0, 66, 39
1, 4900, Control_c, 0, 64, 0
1, 4900, Note_on_c, 0, 63, 39
1, 4901, Note_on_c, 0, 59, 44
1, 4905, Note_on_c, 0, 57, 31
1, 4919, Control_c, 0, 64, 127
1, 4920, Note_on_c, 0, 57, 0
1, 4953, Note_on_c, 0, 59, 0
1, 4958, Note_on_c, 0, 66, 0
1, 4959, Note_on_c, 0, 63, 0
1, 4971, Note_on_c, 0, 69, 68
1, 4971, Note_on_c, 0, 66, 42
1, 4972, Note_on_c, 0, 51, 59
1, 4973, Note_on_c, 0, 62, 60
1, 4974, Note_on_c, 0, 59, 45
1, 4977, Note_on_c, 0, 47, 0
1, 4999, Note_on_c, 0, 62, 0
1, 5000, Note_on_c, 0, 59, 0
1, 5001, Note_on_c, 0, 66, 0
1, 5003, Note_on_c, 0, 69, 0
1, 5007, Control_c, 0, 64, 0
1, 5016, Note_on_c, 0, 67, 49
1, 5017, Note_on_c, 0, 51, 0
1, 5017, Note_on_c, 0, 62, 36
1, 5017, Note_on_c, 0, 59, 35
1, 5017, Note_on_c, 0, 52, 49
1, 5039, Control_c, 0, 64, 127
1, 5119, Note_on_c, 0, 67, 0
1, 5121, Note_on_c, 0, 62, 0
1, 5130, Note_on_c, 0, 59, 0
1, 5158, Note_on_c, 0, 52, 0
1, 5195, Note_on_c, 0, 64, 82
1, 5195, Note_on_c, 0, 59, 80
1, 5196, Note_on_c, 0, 55, 80
1, 5197, Note_on_c, 0, 52, 74
1, 5223, Note_on_c, 0, 59, 0
1, 5225, Note_on_c, 0, 55, 0
1, 5234, Note_on_c, 0, 64, 0
1, 5238, Note_on_c, 0, 52, 0
1, 5238, Control_c, 0, 64, 0
1, 5242, Note_on_c, 0, 55, 60
1, 5242, Note_on_c, 0, 54, 62
1, 5244, Note_on_c, 0, 66, 63
1, 5244, Note_on_c, 0, 59, 65
1, 5245, Note_on_c, 0, 62, 51
1, 5250, Note_on_c, 0, 64, 36
1, 5264, Note_on_c, 0, 55, 0
1, 5277, Note_on_c, 0, 62, 0
1, 5278, Note_on_c, 0, 66, 0
1, 5284, Note_on_c, 0, 59, 0
1, 5285, Note_on_c, 0, 64, 0
1, 5304, Control_c, 0, 64, 127
1, 5309, Note_on_c, 0, 54, 0
1, 5310, Note_on_c, 0, 67, 62
1, 5311, Note_on_c, 0, 59, 45
1, 5312, Note_on_c, 0, 55, 63
1, 5316, Note_on_c, 0, 59, 0
1, 5324, Note_on_c, 0, 67, 0
1, 5331, Note_on_c, 0, 55, 0
1, 5346, Control_c, 0, 64, 0
1, 5352, Note_on_c, 0, 71, 54
1, 5353, Note_on_c, 0, 62, 57
1, 5354, Note_on_c, 0, 56, 71
1, 5356, Note_on_c, 0, 67, 36
1, 5363, Note_on_c, 0, 67, 0
1, 5372, Note_on_c, 0, 62, 0
1, 5377, Note_on_c, 0, 71, 0
1, 5384, Control_c, 0, 64, 127
1, 5419, Note_on_c, 0, 46, 63
1, 5432, Note_on_c, 0, 56, 0
1, 5444, Note_on_c, 0, 46, 0
1, 5455, Control_c, 0, 64, 0
1, 5464, Note_on_c, 0, 45, 57
1, 5465, Note_on_c, 0, 76, 38
1, 5472, Note_on_c, 0, 45, 0
1, 5477, Control_c, 0, 64, 127
1, 5485, Note_on_c, 0, 76, 0
1, 5540, Note_on_c, 0, 88, 71
1, 5541, Note_on_c, 0, 76, 60
1, 5553, Note_on_c, 0, 76, 0
1, 5556, Note_on_c, 0, 88, 0
1, 5575, Control_c, 0, 64, 0
1, 5576, Note_on_c, 0, 61, 50
1, 5576, Note_on_c, 0, 55, 33
1, 5577, Note_on_c, 0, 65, 37
1, 5581, Note_on_c, 0, 88, 54
1, 5582, Note_on_c, 0, 76, 44
1, 5591, Note_on_c, 0, 76, 0
1, 5592, Note_on_c, 0, 88, 0
1, 5600, Control_c, 0, 64, 127
1, 5606, Note_on_c, 0, 65, 0
1, 5606, Note_on_c, 0, 55, 0
1, 5609, Note_on_c, 0, 61, 0
1, 5649, Note_on_c, 0, 65, 47
1, 5649, Note_on_c, 0, 55, 37
1, 5649, Note_on_c, 0, 61, 44
1, 5650, Note_on_c, 0, 76, 56
1, 5650, Note_on_c, 0, 88, 55
1, 5652, Note_on_c, 0, 83, 47
1, 5656, Note_on_c, 0, 55, 0
1, 5660, Note_on_c, 0, 83, 0
1, 5662, Note_on_c, 0, 76, 0
1, 5662, Note_on_c, 0, 65, 0
1, 5664, Note_on_c, 0, 88, 0
1, 5672, Note_on_c, 0, 61, 0
1, 5689, Control_c, 0, 64, 0
1, 5691, Note_on_c, 0, 62, 60
1, 5691, Note_on_c, 0, 66, 53
1, 5692, Note_on_c, 0, 56, 52
1, 5694, Note_on_c, 0, 89, 55
1, 5697, Note_on_c, 0, 84, 36
1, 5700, Note_on_c, 0, 56, 0
1, 5700, Note_on_c, 0, 66, 0
1, 5703, Note_on_c, 0, 84, 0
1, 5703, Note_on_c, 0, 62, 0
1, 5704, Note_on_c, 0, 89, 0
1, 5752, Control_c, 0, 64, 127
1, 5759, Note_on_c, 0, 89, 64
1, 5760, Note_on_c, 0, 66, 55
1, 5761, Note_on_c, 0, 77, 53
1, 5761, Note_on_c, 0, 56, 52
1, 5761, Note_on_c, 0, 62, 45
1, 5762, Note_on_c, 0, 84, 54
1, 5768, Note_on_c, 0, 84, 0
1, 5773, Note_on_c, 0, 89, 0
1, 5774, Note_on_c, 0, 66, 0
1, 5774, Note_on_c, 0, 77, 0
1, 5775, Note_on_c, 0, 62, 0
1, 5784, Note_on_c, 0, 56, 0
1, 5790, Control_c, 0, 64, 0
1, 5800, Note_on_c, 0, 88, 57
1, 5801, Note_on_c, 0, 65, 57
1, 5801, Note_on_c, 0, 76, 46
1, 5802, Note_on_c, 0, 61, 42
1, 5802, Note_on_c, 0, 83, 58
1, 5802, Note_on_c, 0, 55, 51
1, 5815, Note_on_c, 0, 88, 0
1, 5816, Control_c, 0, 64, 127
1, 5818, Note_on_c, 0, 83, 0
1, 5823, Note_on_c, 0, 76, 0
1, 5828, Note_on_c, 0, 65, 0
1, 5834, Note_on_c, 0, 55, 0
1, 5841, Note_on_c, 0, 61, 0
1, 5869, Note_on_c, 0, 83, 66
1, 5869, Note_on_c, 0, 71, 56
1, 5870, Note_on_c, 0, 78, 53
1, 5870, Control_c, 0, 64, 0
1, 5871, Note_on_c, 0, 76, 50
1, 5872, Note_on_c, 0, 61, 49
1, 5872, Note_on_c, 0, 65, 54
1, 5876, Note_on_c, 0, 55, 36
1, 5902, Control_c, 0, 64, 127
1, 5904, Note_on_c, 0, 65, 0
1, 5905, Note_on_c, 0, 76, 0
1, 5907, Note_on_c, 0, 83, 0
1, 5912, Note_on_c, 0, 78, 0
1, 5913, Note_on_c, 0, 61, 0
1, 5914, Note_on_c, 0, 55, 0
1, 5917, Note_on_c, 0, 71, 0
1, 5973, Note_on_c, 0, 45, 60
1, 5981, Note_on_c, 0, 45, 0
1, 6006, Note_on_c, 0, 59, 78
1, 6031, Control_c, 0, 64, 0
1, 6034, Note_on_c, 0, 59, 0
1, 6038, Note_on_c, 0, 58, 65
1, 6040, Note_on_c, 0, 71, 69
1, 6041, Note_on_c, 0, 61, 67
1, 6042, Note_on_c, 0, 63, 53
1, 6045, Note_on_c, 0, 67, 41
1, 6077, Control_c, 0, 64, 127
1, 6103, Note_on_c, 0, 61, 0
1, 6106, Note_on_c, 0, 71, 0
1, 6108, Note_on_c, 0, 63, 0
1, 6109, Note_on_c, 0, 67, 0
1, 6110, Note_on_c, 0, 61, 60
1, 6112, Note_on_c, 0, 69, 70
1, 6115, Note_on_c, 0, 58, 0
1, 6115, Note_on_c, 0, 64, 62
1, 6117, Note_on_c, 0, 57, 57
1, 6122, Control_c, 0, 64, 0
1, 6157, Control_c, 0, 64, 127
1, 6157, Note_on_c, 0, 67, 1
1, 6189, Note_on_c, 0, 64, 0
1, 6192, Note_on_c, 0, 61, 0
1, 6198, Note_on_c, 0, 67, 0
1, 6203, Note_on_c, 0, 69, 0
1, 6212, Note_on_c, 0, 57, 0
1, 6220, Note_on_c, 0, 60, 58
1, 6221, Note_on_c, 0, 45, 48
1, 6221, Note_on_c, 0, 64, 54
1, 6235, Note_on_c, 0, 60, 0
1, 6238, Note_on_c, 0, 64, 0
1, 6251, Note_on_c, 0, 64, 63
1, 6252, Note_on_c, 0, 60, 41
1, 6264, Note_on_c, 0, 60, 0
1, 6268, Control_c, 0, 64, 0
1, 6271, Note_on_c, 0, 64, 0
1, 6282, Note_on_c, 0, 66, 70
1, 6297, Note_on_c, 0, 45, 0
1, 6303, Note_on_c, 0, 66, 0
1, 6311, Control_c, 0, 64, 127
1, 6313, Note_on_c, 0, 67, 48
1, 6329, Note_on_c, 0, 67, 0
1, 6347, Note_on_c, 0, 69, 79
1, 6359, Note_on_c, 0, 69, 0
1, 6384, Control_c, 0, 64, 0
1, 6384, Note_on_c, 0, 67, 36
1, 6384, Note_on_c, 0, 64, 55
1, 6385, Note_on_c, 0, 62, 66
1, 6385, Note_on_c, 0, 74, 53
1, 6387, Note_on_c, 0, 72, 40
1, 6387, Note_on_c, 0, 71, 44
1, 6391, Note_on_c, 0, 74, 0
1, 6403, Note_on_c, 0, 72, 0
1, 6419, Control_c, 0, 64, 127
1, 6424, Note_on_c, 0, 64, 0
1, 6424, Note_on_c, 0, 71, 0
1, 6427, Note_on_c, 0, 67, 0
1, 6435, Note_on_c, 0, 62, 0
1, 6473, Note_on_c, 0, 56, 26
1, 6487, Note_on_c, 0, 56, 0
1, 6495, Note_on_c, 0, 67, 43
1, 6496, Note_on_c, 0, 71, 42
1, 6496, Note_on_c, 0, 59, 42
1, 6496, Note_on_c, 0, 64, 48
1, 6497, Note_on_c, 0, 60, 36
1, 6499, Control_c, 0, 64, 0
1, 6525, Control_c, 0, 64, 127
1, 6553, Note_on_c, 0, 60, 0
1, 6557, Note_on_c, 0, 67, 0
1, 6557, Note_on_c, 0, 64, 0
1, 6567, Note_on_c, 0, 59, 0
1, 6571, Note_on_c, 0, 71, 0
1, 6592, Control_c, 0, 64, 0
1, 6600, Note_on_c, 0, 66, 39
1, 6601, Note_on_c, 0, 60, 41
1, 6601, Note_on_c, 0, 63, 38
1, 6602, Note_on_c, 0, 71, 34
1, 6603, Note_on_c, 0, 50, 35
1, 6608, Note_on_c, 0, 57, 22
1, 6616, Control_c, 0, 64, 127
1, 6648, Note_on_c, 0, 57, 0
1, 6674, Note_on_c, 0, 63, 0
1, 6676, Note_on_c, 0, 60, 0
1, 6679, Note_on_c, 0, 66, 0
1, 6692, Note_on_c, 0, 71, 0
1, 6706, Note_on_c, 0, 69, 56
1, 6708, Note_on_c, 0, 60, 44
1, 6709, Note_on_c, 0, 63, 37
1, 6709, Note_on_c, 0, 66, 38
1, 6710, Note_on_c, 0, 57, 37
1, 6719, Note_on_c, 0, 57, 0
1, 6732, Note_on_c, 0, 50, 0
1, 6773, Note_on_c, 0, 63, 0
1, 6775, Note_on_c, 0, 60, 0
1, 6785, Note_on_c, 0, 66, 0
1, 6791, Note_on_c, 0, 69, 0
1, 6809, Note_on_c, 0, 69, 54
1, 6813, Control_c, 0, 64, 0
1, 6814, Note_on_c, 0, 65, 53
1, 6814, Note_on_c, 0, 60, 41
1, 6815, Note_on_c, 0, 50, 47
1, 6864, Control_c, 0, 64, 127
1, 6878, Note_on_c, 0, 65, 0
1, 6880, Note_on_c, 0, 50, 0
1, 6885, Note_on_c, 0, 38, 48
1, 6888, Note_on_c, 0, 69, 0
1, 6896, Note_on_c, 0, 60, 0
1, 6907, Note_on_c, 0, 38, 0
1, 6927, Note_on_c, 0, 44, 42
1, 6942, Control_c, 0, 64, 0
1, 6989, Note_on_c, 0, 42, 36
1, 6994, Note_on_c, 0, 63, 38
1, 6995, Note_on_c, 0, 53, 40
1, 6998, Note_on_c, 0, 59, 55
1, 7001, Note_on_c, 0, 44, 0
1, 7008, Note_on_c, 0, 53, 0
1, 7010, Note_on_c, 0, 42, 0
1, 7014, Note_on_c, 0, 43, 32
1, 7015, Note_on_c, 0, 59, 0
1, 7021, Note_on_c, 0, 63, 0
1, 7040, Note_on_c, 0, 31, 54
1, 7072, Control_c, 0, 64, 127
1, 7095, Note_on_c, 0, 43, 0
1, 7109, Note_on_c, 0, 43, 53
1, 7126, Note_on_c, 0, 31, 0
1, 7139, Note_on_c, 0, 43, 0
1, 7144, Control_c, 0, 64, 0
1, 7146, Note_on_c, 0, 74, 87
1, 7147, Note_on_c, 0, 67, 90
1, 7170, Note_on_c, 0, 67, 0
1, 7173, Note_on_c, 0, 74, 0
1, 7184, Note_on_c, 0, 71, 49
1, 7190, Control_c, 0, 64, 127
1, 7202, Note_on_c, 0, 71, 0
1, 7219, Note_on_c, 0, 74, 71
1, 7220, Note_on_c, 0, 67, 71
1, 7232, Note_on_c, 0, 67, 0
1, 7233, Note_on_c, 0, 74, 0
1, 7250, Control_c, 0, 64, 0
1, 7251, Note_on_c, 0, 36, 50
1, 7253, Note_on_c, 0, 43, 30
1, 7257, Note_on_c, 0, 71, 34
1, 7258, Note_on_c, 0, 64, 34
1, 7258, Note_on_c, 0, 52, 29
1, 7279, Control_c, 0, 64, 127
1, 7288, Note_on_c, 0, 36, 0
1, 7295, Note_on_c, 0, 43, 0
1, 7306, Note_on_c, 0, 52, 0
1, 7316, Note_on_c, 0, 64, 0
1, 7361, Note_on_c, 0, 59, 42
1, 7361, Note_on_c, 0, 67, 34
1, 7362, Note_on_c, 0, 64, 40
1, 7365, Control_c, 0, 64, 0
1, 7367, Note_on_c, 0, 57, 29
1, 7394, Note_on_c, 0, 57, 0
1, 7398, Note_on_c, 0, 56, 42
1, 7427, Note_on_c, 0, 56, 0
1, 7437, Note_on_c, 0, 55, 51
1, 7456, Control_c, 0, 64, 127
1, 7476, Note_on_c, 0, 64, 0
1, 7477, Note_on_c, 0, 59, 0
1, 7478, Note_on_c, 0, 67, 0
1, 7503, Note_on_c, 0, 55, 0
1, 7504, Note_on_c, 0, 59, 46
1, 7505, Note_on_c, 0, 64, 36
1, 7506, Note_on_c, 0, 67, 29
1, 7551, Note_on_c, 0, 64, 0
1, 7552, Note_on_c, 0, 59, 0
1, 7562, Note_on_c, 0, 67, 0
1, 7577, Note_on_c, 0, 59, 40
1, 7578, Note_on_c, 0, 64, 39
1, 7618, Note_on_c, 0, 64, 0
1, 7619, Note_on_c, 0, 71, 0
1, 7633, Note_on_c, 0, 59, 0
1, 7650, Note_on_c, 0, 43, 33
1, 7677, Note_on_c, 0, 43, 0
1, 7678, Control_c, 0, 64, 0
1, 7686, Note_on_c, 0, 62, 36
1, 7688, Note_on_c, 0, 59, 43
1, 7689, Note_on_c, 0, 64, 32
1, 7689, Note_on_c, 0, 55, 34
1, 7690, Note_on_c, 0, 36, 35
1, 7697, Control_c, 0, 64, 127
1, 7704, Note_on_c, 0, 36, 0
1, 7729, Note_on_c, 0, 55, 0
1, 7755, Note_on_c, 0, 59, 0
1, 7791, Note_on_c, 0, 64, 0
1, 7802, Note_on_c, 0, 55, 36
1, 7803, Note_on_c, 0, 59, 44
1, 7811, Note_on_c, 0, 55, 0
1, 7823, Note_on_c, 0, 59, 0
1, 7824, Note_on_c, 0, 62, 0
1, 7873, Note_on_c, 0, 69, 74
1, 7896, Note_on_c, 0, 69, 0
1, 7913, Note_on_c, 0, 71, 71
1, 7914, Note_on_c, 0, 64, 67
1, 7915, Note_on_c, 0, 62, 71
1, 7917, Note_on_c, 0, 57, 56
1, 7919, Control_c, 0, 64, 0
1, 7956, Control_c, 0, 64, 127
1, 7960, Note_on_c, 0, 64, 0
1, 7966, Note_on_c, 0, 71, 0
1, 7971, Note_on_c, 0, 62, 0
1, 8006, Note_on_c, 0, 57, 0
1, 8022, Control_c, 0, 64, 0
1, 8023, Note_on_c, 0, 55, 49
1, 8023, Note_on_c, 0, 64, 32
1, 8025, Note_on_c, 0, 69, 30
1, 8025, Note_on_c, 0, 67, 38
1, 8031, Note_on_c, 0, 69, 0
1, 8032, Note_on_c, 0, 55, 0
1, 8034, Control_c, 0, 64, 127
1, 8047, Note_on_c, 0, 64, 0
1, 8053, Note_on_c, 0, 67, 0
1, 8092, Note_on_c, 0, 43, 38
1, 8116, Note_on_c, 0, 43, 0
1, 8126, Note_on_c, 0, 63, 38
1, 8128, Control_c, 0, 64, 0
1, 8128, Note_on_c, 0, 58, 49
1, 8129, Note_on_c, 0, 53, 31
1, 8133, Note_on_c, 0, 48, 34
1, 8142, Control_c, 0, 64, 127
1, 8148, Note_on_c, 0, 53, 0
1, 8156, Note_on_c, 0, 48, 0
1, 8160, Note_on_c, 0, 58, 0
1, 8165, Note_on_c, 0, 63, 0
1, 8201, Note_on_c, 0, 75, 71
1, 8238, Note_on_c, 0, 65, 54
1, 8238, Note_on_c, 0, 70, 49
1, 8240, Control_c, 0, 64, 0
1, 8240, Note_on_c, 0, 63, 33
1, 8241, Note_on_c, 0, 58, 35
1, 8244, Note_on_c, 0, 53, 16
1, 8264, Note_on_c, 0, 63, 0
1, 8267, Note_on_c, 0, 58, 0
1, 8267, Note_on_c, 0, 53, 0
1, 8269, Control_c, 0, 64, 127
1, 8272, Note_on_c, 0, 75, 0
1, 8275, Note_on_c, 0, 70, 0
1, 8275, Note_on_c, 0, 65, 0
1, 8275, Control_c, 0, 64, 0
1, 8306, Note_on_c, 0, 55, 48
1, 8309, Control_c, 0, 64, 127
1, 8318, Note_on_c, 0, 55, 0
1, 8346, Note_on_c, 0, 74, 60
1, 8347, Note_on_c, 0, 63, 47
1, 8348, Note_on_c, 0, 67, 49
1, 8350, Note_on_c, 0, 59, 43
1, 8352, Control_c, 0, 64, 0
1, 8374, Control_c, 0, 64, 127
1, 8400, Note_on_c, 0, 59, 0
1, 8421, Note_on_c, 0, 63, 0
1, 8422, Note_on_c, 0, 67, 0
1, 8433, Note_on_c, 0, 74, 0
1, 8451, Control_c, 0, 64, 0
1, 8455, Note_on_c, 0, 63, 49
1, 8456, Note_on_c, 0, 72, 54
1, 8458, Note_on_c, 0, 67, 36
1, 8458, Note_on_c, 0, 57, 43
1, 8461, Control_c, 0, 64, 127
1, 8475, Note_on_c, 0, 57, 0
1, 8476, Note_on_c, 0, 67, 0
1, 8478, Note_on_c, 0, 72, 0
1, 8486, Note_on_c, 0, 63, 0
1, 8563, Note_on_c, 0, 69, 71
1, 8566, Note_on_c, 0, 66, 58
1, 8567, Note_on_c, 0, 62, 68
1, 8568, Control_c, 0, 64, 0
1, 8570, Note_on_c, 0, 57, 61
1, 8624, Note_on_c, 0, 41, 72
1, 8658, Note_on_c, 0, 57, 0
1, 8664, Note_on_c, 0, 62, 0
1, 8677, Note_on_c, 0, 62, 58
1, 8677, Note_on_c, 0, 57, 38
1, 8687, Control_c, 0, 64, 127
1, 8688, Note_on_c, 0, 41, 0
1, 8715, Note_on_c, 0, 57, 0
1, 8728, Note_on_c, 0, 62, 0
1, 8728, Note_on_c, 0, 51, 67
1, 8750, Note_on_c, 0, 66, 0
1, 8768, Note_on_c, 0, 69, 0
1, 8779, Note_on_c, 0, 66, 37
1, 8779, Note_on_c, 0, 62, 68
1, 8779, Note_on_c, 0, 57, 68
1, 8860, Note_on_c, 0, 57, 0
1, 8861, Note_on_c, 0, 62, 0
1, 8874, Note_on_c, 0, 66, 0
1, 8889, Note_on_c, 0, 57, 49
1, 8908, Note_on_c, 0, 57, 0
1, 8921, Note_on_c, 0, 51, 0
1, 8955, Note_on_c, 0, 70, 60
1, 8968, Note_on_c, 0, 50, 28
1, 8974, Note_on_c, 0, 70, 0
1, 8987, Note_on_c, 0, 50, 0
1, 8993, Control_c, 0, 64, 0
1, 8997, Note_on_c, 0, 69, 58
1, 9000, Note_on_c, 0, 66, 30
1, 9001, Note_on_c, 0, 43, 44
1, 9001, Note_on_c, 0, 62, 44
1, 9005, Control_c, 0, 64, 127
1, 9015, Note_on_c, 0, 62, 0
1, 9017, Note_on_c, 0, 43, 0
1, 9021, Note_on_c, 0, 66, 0
1, 9023, Note_on_c, 0, 69, 0
1, 9072, Note_on_c, 0, 81, 84
1, 9098, Note_on_c, 0, 81, 0
1, 9103, Control_c, 0, 64, 0
1, 9107, Note_on_c, 0, 78, 32
1, 9108, Note_on_c, 0, 74, 34
1, 9111, Note_on_c, 0, 64, 28
1, 9112, Note_on_c, 0, 59, 35
1, 9112, Note_on_c, 0, 54, 25
1, 9113, Note_on_c, 0, 69, 24
1, 9128, Control_c, 0, 64, 127
1, 9136, Note_on_c, 0, 74, 0
1, 9139, Note_on_c, 0, 78, 0
1, 9143, Note_on_c, 0, 59, 0
1, 9144, Note_on_c, 0, 69, 0
1, 9148, Note_on_c, 0, 64, 0
1, 9185, Note_on_c, 0, 54, 0
1, 9216, Note_on_c, 0, 74, 48
1, 9220, Note_on_c, 0, 66, 39
1, 9220, Note_on_c, 0, 62, 32
1, 9221, Note_on_c, 0, 69, 50
1, 9223, Control_c, 0, 64, 0
1, 9223, Note_on_c, 0, 71, 33
1, 9250, Control_c, 0, 64, 127
1, 9262, Note_on_c, 0, 74, 0
1, 9265, Note_on_c, 0, 69, 0
1, 9265, Note_on_c, 0, 71, 0
1, 9272, Note_on_c, 0, 66, 0
1, 9275, Note_on_c, 0, 62, 0
1, 9316, Control_c, 0, 64, 0
1, 9326, Note_on_c, 0, 62, 40
1, 9326, Note_on_c, 0, 66, 37
1, 9327, Note_on_c, 0, 54, 29
1, 9328, Control_c, 0, 64, 127
1, 9328, Note_on_c, 0, 71, 25
1, 9337, Note_on_c, 0, 71, 0
1, 9339, Note_on_c, 0, 66, 0
1, 9344, Note_on_c, 0, 54, 0
1, 9345, Note_on_c, 0, 62, 0
1, 9405, Note_on_c, 0, 50, 34
1, 9420, Note_on_c, 0, 50, 0
1, 9437, Note_on_c, 0, 66, 39
1, 9437, Note_on_c, 0, 57, 41
1, 9438, Note_on_c, 0, 54, 69
1, 9438, Note_on_c, 0, 62, 47
1, 9439, Note_on_c, 0, 59, 47
1, 9440, Control_c, 0, 64, 0
1, 9473, Control_c, 0, 64, 127
1, 9518, Note_on_c, 0, 54, 0
1, 9520, Note_on_c, 0, 62, 0
1, 9522, Note_on_c, 0, 57, 0
1, 9527, Note_on_c, 0, 59, 0
1, 9528, Note_on_c, 0, 51, 21
1, 9538, Note_on_c, 0, 51, 0
1, 9546, Note_on_c, 0, 52, 69
1, 9550, Note_on_c, 0, 57, 37
1, 9556, Note_on_c, 0, 59, 24
1, 9586, Note_on_c, 0, 59, 0
1, 9598, Note_on_c, 0, 57, 0
1, 9599, Note_on_c, 0, 66, 0
1, 9617, Note_on_c, 0, 51, 67
1, 9620, Note_on_c, 0, 52, 0
1, 9650, Note_on_c, 0, 51, 0
1, 9658, Note_on_c, 0, 62, 80
1, 9658, Note_on_c, 0, 69, 79
1, 9658, Note_on_c, 0, 66, 64
1, 9659, Note_on_c, 0, 50, 76
1, 9659, Note_on_c, 0, 59, 75
1, 9659, Control_c, 0, 64, 0
1, 9693, Control_c, 0, 64, 127
1, 9712, Note_on_c, 0, 59, 0
1, 9717, Note_on_c, 0, 66, 0
1, 9718, Note_on_c, 0, 62, 0
1, 9719, Note_on_c, 0, 69, 0
1, 9733, Note_on_c, 0, 67, 36
1, 9753, Note_on_c, 0, 67, 0
1, 9756, Note_on_c, 0, 50, 0
1, 9767, Control_c, 0, 64, 0
1, 9768, Note_on_c, 0, 43, 44
1, 9769, Note_on_c, 0, 54, 38
1, 9770, Note_on_c, 0, 69, 57
1, 9770, Note_on_c, 0, 59, 51
1, 9771, Note_on_c, 0, 66, 39
1, 9772, Note_on_c, 0, 62, 53
1, 9786, Control_c, 0, 64, 127
1, 9793, Note_on_c, 0, 43, 0
1, 9807, Note_on_c, 0, 59, 0
1, 9818, Note_on_c, 0, 69, 0
1, 9819, Note_on_c, 0, 54, 0
1, 9820, Note_on_c, 0, 62, 0
1, 9831, Note_on_c, 0, 66, 0
1, 9852, Note_on_c, 0, 53, 39
1, 9864, Note_on_c, 0, 53, 0
1, 9871, Control_c, 0, 64, 0
1, 9874, Note_on_c, 0, 61, 52
1, 9876, Note_on_c, 0, 56, 33
1, 9879, Note_on_c, 0, 46, 31
1, 9890, Control_c, 0, 64, 127
1, 9903, Note_on_c, 0, 46, 0
1, 9907, Note_on_c, 0, 56, 0
1, 9933, Note_on_c, 0, 61, 0
1, 9940, Note_on_c, 0, 63, 43
1, 9957, Note_on_c, 0, 63, 0
1, 9961, Note_on_c, 0, 61, 23
1, 9969, Note_on_c, 0, 61, 0
1, 9974, Note_on_c, 0, 60, 44
1, 9977, Note_on_c, 0, 58, 27
1, 9980, Control_c, 0, 64, 0
1, 9981, Note_on_c, 0, 60, 0
1, 10004, Note_on_c, 0, 58, 0
1, 10010, Note_on_c, 0, 63, 49
1, 10024, Note_on_c, 0, 63, 0
1, 10038, Note_on_c, 0, 65, 64
1, 10052, Note_on_c, 0, 65, 0
1, 10065, Note_on_c, 0, 67, 70
1, 10079, Note_on_c, 0, 67, 0
1, 10080, Note_on_c, 0, 65, 25
1, 10085, Note_on_c, 0, 65, 0
1, 10098, Note_on_c, 0, 68, 56
1, 10112, Note_on_c, 0, 68, 0
1, 10128, Note_on_c, 0, 70, 54
1, 10140, Note_on_c, 0, 70, 0
1, 10155, Note_on_c, 0, 72, 55
1, 10167, Note_on_c, 0, 72, 0
1, 10184, Note_on_c, 0, 73, 68
1, 10190, Note_on_c, 0, 51, 29
1, 10196, Note_on_c, 0, 51, 0
1, 10200, Note_on_c, 0, 73, 0
1, 10214, Note_on_c, 0, 75, 53
1, 10227, Note_on_c, 0, 75, 0
1, 10242, Note_on_c, 0, 77, 44
1, 10248, Control_c, 0, 64, 127
1, 10257, Note_on_c, 0, 77, 0
1, 10268, Note_on_c, 0, 79, 53
1, 10282, Note_on_c, 0, 79, 0
1, 10291, Control_c, 0, 64, 0
1, 10296, Note_on_c, 0, 80, 57
1, 10299, Note_on_c, 0, 39, 43
1, 10303, Note_on_c, 0, 46, 28
1, 10312, Note_on_c, 0, 39, 0
1, 10312, Note_on_c, 0, 80, 0
1, 10315, Control_c, 0, 64, 127
1, 10317, Note_on_c, 0, 46, 0
1, 10326, Note_on_c, 0, 82, 55
1, 10345, Note_on_c, 0, 82, 0
1, 10355, Note_on_c, 0, 84, 42
1, 10357, Note_on_c, 0, 72, 35
1, 10368, Note_on_c, 0, 72, 0
1, 10368, Note_on_c, 0, 84, 0
1, 10388, Note_on_c, 0, 73, 52
1, 10388, Note_on_c, 0, 85, 64
1, 10399, Note_on_c, 0, 73, 0
1, 10402, Note_on_c, 0, 85, 0
1, 10421, Note_on_c, 0, 55, 19
1, 10422, Note_on_c, 0, 61, 34
1, 10423, Control_c, 0, 64, 0
1, 10423, Note_on_c, 0, 75, 38
1, 10424, Note_on_c, 0, 87, 57
1, 10440, Note_on_c, 0, 87, 0
1, 10440, Note_on_c, 0, 75, 0
1, 10445, Note_on_c, 0, 55, 0
1, 10448, Note_on_c, 0, 61, 0
1, 10476, Control_c, 0, 64, 127
1, 10494, Note_on_c, 0, 54, 35
1, 10508, Note_on_c, 0, 54, 0
1, 10529, Note_on_c, 0, 63, 50
1, 10529, Note_on_c, 0, 70, 60
1, 10531, Note_on_c, 0, 61, 43
1, 10532, Note_on_c, 0, 55, 53
1, 10535, Control_c, 0, 64, 0
1, 10537, Note_on_c, 0, 67, 26
1, 10561, Control_c, 0, 64, 127
1, 10590, Note_on_c, 0, 67, 0
1, 10607, Note_on_c, 0, 61, 0
1, 10607, Note_on_c, 0, 63, 0
1, 10626, Note_on_c, 0, 70, 0
1, 10630, Note_on_c, 0, 55, 0
1, 10631, Control_c, 0, 64, 0
1, 10633, Note_on_c, 0, 61, 47
1, 10634, Note_on_c, 0, 67, 29
1, 10635, Note_on_c, 0, 63, 38
1, 10642, Note_on_c, 0, 52, 19
1, 10643, Control_c, 0, 64, 127
1, 10690, Note_on_c, 0, 67, 0
1, 10695, Note_on_c, 0, 61, 0
1, 10702, Note_on_c, 0, 63, 0
1, 10703, Note_on_c, 0, 56, 44
1, 10706, Note_on_c, 0, 52, 0
1, 10706, Note_on_c, 0, 46, 32
1, 10723, Note_on_c, 0, 56, 0
1, 10727, Note_on_c, 0, 46, 0
1, 10728, Control_c, 0, 64, 0
1, 10742, Note_on_c, 0, 67, 38
1, 10743, Note_on_c, 0, 60, 32
1, 10744, Note_on_c, 0, 55, 34
1, 10746, Note_on_c, 0, 64, 27
1, 10746, Note_on_c, 0, 45, 29
1, 10749, Note_on_c, 0, 60, 0
1, 10752, Note_on_c, 0, 64, 0
1, 10752, Note_on_c, 0, 67, 0
1, 10756, Note_on_c, 0, 45, 0
1, 10765, Note_on_c, 0, 55, 0
1, 10806, Note_on_c, 0, 79, 75
1, 10808, Note_on_c, 0, 67, 65
1, 10814, Control_c, 0, 64, 127
1, 10820, Note_on_c, 0, 67, 0
1, 10825, Note_on_c, 0, 79, 0
1, 10835, Note_on_c, 0, 76, 40
1, 10846, Control_c, 0, 64, 0
1, 10850, Note_on_c, 0, 76, 0
1, 10856, Note_on_c, 0, 55, 40
1, 10859, Note_on_c, 0, 64, 32
1, 10862, Note_on_c, 0, 60, 26
1, 10867, Note_on_c, 0, 64, 0
1, 10867, Note_on_c, 0, 79, 70
1, 10867, Note_on_c, 0, 67, 64
1, 10871, Note_on_c, 0, 60, 0
1, 10880, Note_on_c, 0, 55, 0
1, 10881, Note_on_c, 0, 67, 0
1, 10886, Note_on_c, 0, 79, 0
1, 10900, Note_on_c, 0, 76, 37
1, 10915, Note_on_c, 0, 76, 0
1, 10927, Control_c, 0, 64, 127
1, 10930, Note_on_c, 0, 79, 71
1, 10933, Note_on_c, 0, 67, 59
1, 10936, Note_on_c, 0, 72, 33
1, 10943, Note_on_c, 0, 72, 0
1, 10947, Note_on_c, 0, 67, 0
1, 10956, Note_on_c, 0, 79, 0
1, 10962, Note_on_c, 0, 49, 31
1, 10963, Control_c, 0, 64, 0
1, 10964, Note_on_c, 0, 67, 40
1, 10965, Note_on_c, 0, 50, 43
1, 10967, Note_on_c, 0, 72, 41
1, 10967, Note_on_c, 0, 76, 39
1, 10972, Note_on_c, 0, 49, 0
1, 10974, Note_on_c, 0, 72, 0
1, 10996, Note_on_c, 0, 67, 0
1, 11002, Note_on_c, 0, 76, 0
1, 11015, Note_on_c, 0, 50, 0
1, 11031, Note_on_c, 0, 39, 36
1, 11034, Control_c, 0, 64, 127
1, 11044, Note_on_c, 0, 39, 0
1, 11069, Control_c, 0, 64, 0
1, 11072, Note_on_c, 0, 51, 57
1, 11122, Control_c, 0, 64, 127
1, 11129, Note_on_c, 0, 51, 0
1, 11133, Note_on_c, 0, 78, 60
1, 11134, Note_on_c, 0, 66, 64
1, 11136, Note_on_c, 0, 74, 55
1, 11145, Control_c, 0, 64, 0
1, 11168, Note_on_c, 0, 50, 24
1, 11174, Note_on_c, 0, 50, 0
1, 11202, Note_on_c, 0, 74, 0
1, 11203, Note_on_c, 0, 66, 0
1, 11220, Control_c, 0, 64, 127
1, 11221, Note_on_c, 0, 78, 0
1, 11245, Note_on_c, 0, 66, 51
1, 11253, Note_on_c, 0, 66, 0
1, 11278, Control_c, 0, 64, 0
1, 11279, Note_on_c, 0, 60, 47
1, 11285, Note_on_c, 0, 60, 0
1, 11342, Control_c, 0, 64, 127
1, 11351, Note_on_c, 0, 45, 62
1, 11384, Note_on_c, 0, 54, 59
1, 11387, Note_on_c, 0, 74, 53
1, 11387, Note_on_c, 0, 66, 47
1, 11388, Note_on_c, 0, 62, 51
1, 11389, Control_c, 0, 64, 0
1, 11391, Note_on_c, 0, 69, 51
1, 11395, Note_on_c, 0, 45, 0
1, 11396, Note_on_c, 0, 54, 0
1, 11457, Note_on_c, 0, 35, 51
1, 11461, Control_c, 0, 64, 127
1, 11463, Note_on_c, 0, 35, 0
1, 11493, Control_c, 0, 64, 0
1, 11493, Note_on_c, 0, 48, 72
1, 11530, Note_on_c, 0, 62, 0
1, 11537, Note_on_c, 0, 69, 0
1, 11541, Note_on_c, 0, 66, 0
1, 11552, Note_on_c, 0, 74, 0
1, 11564, Note_on_c, 0, 36, 74
1, 11567, Control_c, 0, 64, 127
1, 11578, Note_on_c, 0, 48, 0
1, 11583, Control_c, 0, 64, 0
1, 11585, Note_on_c, 0, 36, 0
1, 11603, Note_on_c, 0, 47, 53
1, 11605, Note_on_c, 0, 35, 60
1, 11615, Control_c, 0, 64, 127
1, 11620, Note_on_c, 0, 35, 0
1, 11634, Note_on_c, 0, 47, 0
1, 11714, Control_c, 0, 64, 0
1, 11714, Note_on_c, 0, 81, 83
1, 11716, Note_on_c, 0, 69, 80
1, 11717, Note_on_c, 0, 64, 58
1, 11718, Note_on_c, 0, 76, 55
1, 11718, Note_on_c, 0, 60, 60
1, 11721, Note_on_c, 0, 54, 26
1, 11723, Note_on_c, 0, 60, 0
1, 11723, Note_on_c, 0, 76, 0
1, 11723, Note_on_c, 0, 64, 0
1, 11728, Note_on_c, 0, 69, 0
1, 11732, Note_on_c, 0, 54, 0
1, 11737, Note_on_c, 0, 81, 0
1, 11755, Note_on_c, 0, 78, 26
1, 11761, Note_on_c, 0, 78, 0
1, 11780, Control_c, 0, 64, 127
1, 11788, Note_on_c, 0, 81, 69
1, 11788, Note_on_c, 0, 76, 63
1, 11789, Note_on_c, 0, 69, 70
1, 11799, Control_c, 0, 64, 0
1, 11865, Note_on_c, 0, 47, 59
1, 11870, Control_c, 0, 64, 127
1, 11875, Note_on_c, 0, 81, 0
1, 11878, Note_on_c, 0, 76, 0
1, 11887, Note_on_c, 0, 69, 0
1, 11935, Note_on_c, 0, 57, 58
1, 11944, Control_c, 0, 64, 0
1, 11964, Control_c, 0, 64, 127
1, 11984, Note_on_c, 0, 57, 0
1, 12003, Note_on_c, 0, 51, 63
1, 12026, Note_on_c, 0, 47, 0
1, 12041, Note_on_c, 0, 51, 0
1, 12041, Control_c, 0, 64, 0
1, 12043, Note_on_c, 0, 67, 57
1, 12045, Note_on_c, 0, 62, 60
1, 12045, Note_on_c, 0, 52, 60
1, 12047, Note_on_c, 0, 57, 39
1, 12048, Note_on_c, 0, 59, 36
1, 12055, Note_on_c, 0, 59, 0
1, 12073, Control_c, 0, 64, 127
1, 12104, Note_on_c, 0, 67, 0
1, 12111, Note_on_c, 0, 57, 0
1, 12128, Note_on_c, 0, 62, 0
1, 12150, Note_on_c, 0, 62, 67
1, 12150, Note_on_c, 0, 69, 74
1, 12150, Note_on_c, 0, 54, 79
1, 12152, Control_c, 0, 64, 0
1, 12154, Note_on_c, 0, 60, 57
1, 12157, Note_on_c, 0, 52, 0
1, 12192, Control_c, 0, 64, 127
1, 12204, Note_on_c, 0, 60, 0
1, 12205, Note_on_c, 0, 62, 0
1, 12205, Note_on_c, 0, 69, 0
1, 12248, Control_c, 0, 64, 0
1, 12253, Note_on_c, 0, 71, 49
1, 12255, Note_on_c, 0, 67, 39
1, 12256, Note_on_c, 0, 62, 39
1, 12257, Note_on_c, 0, 55, 58
1, 12257, Note_on_c, 0, 64, 48
1, 12265, Note_on_c, 0, 54, 0
1, 12269, Control_c, 0, 64, 127
1, 12278, Note_on_c, 0, 64, 0
1, 12283, Note_on_c, 0, 62, 0
1, 12283, Note_on_c, 0, 71, 0
1, 12283, Note_on_c, 0, 67, 0
1, 12297, Note_on_c, 0, 55, 0
1, 12327, Note_on_c, 0, 74, 41
1, 12328, Note_on_c, 0, 64, 51
1, 12329, Note_on_c, 0, 71, 47
1, 12329, Note_on_c, 0, 59, 58
1, 12329, Note_on_c, 0, 67, 41
1, 12333, Control_c, 0, 64, 0
1, 12342, Note_on_c, 0, 59, 0
1, 12342, Note_on_c, 0, 64, 0
1, 12347, Note_on_c, 0, 67, 0
1, 12354, Note_on_c, 0, 71, 0
1, 12363, Note_on_c, 0, 74, 0
1, 12373, Control_c, 0, 64, 127
1, 12434, Note_on_c, 0, 76, 57
1, 12437, Note_on_c, 0, 61, 44
1, 12437, Note_on_c, 0, 65, 41
1, 12438, Note_on_c, 0, 55, 40
1, 12438, Note_on_c, 0, 60, 35
1, 12441, Note_on_c, 0, 72, 42
1, 12441, Control_c, 0, 64, 0
1, 12443, Note_on_c, 0, 58, 25
1, 12472, Control_c, 0, 64, 127
1, 12489, Note_on_c, 0, 65, 0
1, 12493, Note_on_c, 0, 60, 0
1, 12494, Note_on_c, 0, 61, 0
1, 12498, Note_on_c, 0, 55, 0
1, 12499, Note_on_c, 0, 58, 0
1, 12545, Note_on_c, 0, 45, 41
1, 12562, Note_on_c, 0, 45, 0
1, 12585, Note_on_c, 0, 45, 60
1, 12596, Note_on_c, 0, 45, 0
1, 12654, Note_on_c, 0, 60, 61
1, 12656, Note_on_c, 0, 65, 69
1, 12656, Note_on_c, 0, 55, 58
1, 12656, Note_on_c, 0, 61, 55
1, 12661, Note_on_c, 0, 58, 31
1, 12714, Note_on_c, 0, 65, 0
1, 12716, Note_on_c, 0, 55, 0
1, 12719, Note_on_c, 0, 60, 0
1, 12720, Note_on_c, 0, 61, 0
1, 12725, Note_on_c, 0, 58, 0
1, 12747, Note_on_c, 0, 72, 0
1, 12756, Note_on_c, 0, 76, 0
1, 12766, Note_on_c, 0, 65, 56
1, 12766, Note_on_c, 0, 60, 33
1, 12767, Note_on_c, 0, 61, 44
1, 12771, Note_on_c, 0, 65, 0
1, 12775, Note_on_c, 0, 60, 0
1, 12784, Note_on_c, 0, 61, 0
1, 12811, Note_on_c, 0, 64, 31
1, 12813, Note_on_c, 0, 65, 24
1, 12819, Note_on_c, 0, 65, 0
1, 12830, Note_on_c, 0, 64, 0
1, 12878, Note_on_c, 0, 64, 55
1, 12890, Note_on_c, 0, 64, 0
1, 12899, Note_on_c, 0, 56, 57
1, 12912, Note_on_c, 0, 56, 0
1, 12913, Note_on_c, 0, 58, 44
1, 12914, Control_c, 0, 64, 0
1, 12914, Note_on_c, 0, 74, 76
1, 12915, Note_on_c, 0, 59, 82
1, 12915, Note_on_c, 0, 64, 85
1, 12915, Note_on_c, 0, 71, 71
1, 12916, Note_on_c, 0, 67, 74
1, 12916, Note_on_c, 0, 57, 74
1, 12918, Note_on_c, 0, 58, 0
1, 12921, Note_on_c, 0, 57, 0
1, 12969, Note_on_c, 0, 74, 0
1, 12970, Note_on_c, 0, 64, 0
1, 12972, Note_on_c, 0, 59, 0
1, 12973, Note_on_c, 0, 67, 0
1, 12976, Note_on_c, 0, 71, 0
1, 12982, Note_on_c, 0, 74, 58
1, 12983, Note_on_c, 0, 59, 62
1, 12984, Note_on_c, 0, 64, 60
1, 12984, Note_on_c, 0, 67, 61
1, 12986, Note_on_c, 0, 71, 42
1, 12992, Control_c, 0, 64, 127
1, 13004, Note_on_c, 0, 59, 0
1, 13007, Note_on_c, 0, 64, 0
1, 13009, Note_on_c, 0, 74, 0
1, 13010, Note_on_c, 0, 67, 0
1, 13013, Note_on_c, 0, 71, 0
1, 13020, Control_c, 0, 64, 0
1, 13026, Note_on_c, 0, 74, 36
1, 13026, Note_on_c, 0, 64, 57
1, 13027, Note_on_c, 0, 67, 43
1, 13030, Note_on_c, 0, 59, 44
1, 13036, Note_on_c, 0, 59, 0
1, 13037, Note_on_c, 0, 67, 0
1, 13038, Note_on_c, 0, 64, 0
1, 13040, Note_on_c, 0, 74, 0
1, 13078, Control_c, 0, 64, 127
1, 13090, Note_on_c, 0, 59, 49
1, 13092, Note_on_c, 0, 74, 51
1, 13094, Note_on_c, 0, 67, 50
1, 13095, Note_on_c, 0, 64, 60
1, 13100, Note_on_c, 0, 67, 0
1, 13103, Note_on_c, 0, 74, 0
1, 13104, Note_on_c, 0, 64, 0
1, 13108, Note_on_c, 0, 59, 0
1, 13136, Control_c, 0, 64, 0
1, 13141, Note_on_c, 0, 60, 26
1, 13141, Note_on_c, 0, 54, 37
1, 13144, Note_on_c, 0, 50, 20
1, 13148, Note_on_c, 0, 60, 0
1, 13152, Note_on_c, 0, 50, 0
1, 13152, Note_on_c, 0, 54, 0
1, 13211, Note_on_c, 0, 59, 53
1, 13212, Note_on_c, 0, 68, 44
1, 13212, Note_on_c, 0, 71, 41
1, 13213, Note_on_c, 0, 64, 53
1, 13214, Note_on_c, 0, 50, 45
1, 13215, Note_on_c, 0, 54, 37
1, 13237, Control_c, 0, 64, 127
1, 13269, Note_on_c, 0, 71, 0
1, 13271, Note_on_c, 0, 64, 0
1, 13275, Note_on_c, 0, 68, 0
1, 13285, Note_on_c, 0, 59, 0
1, 13286, Note_on_c, 0, 54, 0
1, 13290, Note_on_c, 0, 50, 0
1, 13327, Note_on_c, 0, 67, 42
1, 13327, Note_on_c, 0, 62, 51
1, 13328, Note_on_c, 0, 59, 43
1, 13329, Note_on_c, 0, 64, 46
1, 13336, Control_c, 0, 64, 0
1, 13440, Note_on_c, 0, 49, 51
1, 13466, Note_on_c, 0, 49, 0
1, 13479, Note_on_c, 0, 50, 44
1, 13542, Note_on_c, 0, 50, 0
1, 13547, Note_on_c, 0, 49, 39
1, 13575, Note_on_c, 0, 49, 0
1, 13586, Note_on_c, 0, 50, 37
1, 13642, Note_on_c, 0, 50, 0
1, 13651, Note_on_c, 0, 41, 45
1, 13670, Note_on_c, 0, 41, 0
1, 13688, Note_on_c, 0, 45, 46
1, 13710, Note_on_c, 0, 67, 0
1, 13714, Note_on_c, 0, 62, 0
1, 13716, Note_on_c, 0, 64, 0
1, 13726, Note_on_c, 0, 59, 0
1, 13747, Control_c, 0, 64, 127
1, 13754, Note_on_c, 0, 45, 0
1, 13760, Note_on_c, 0, 44, 36
1, 13784, Note_on_c, 0, 44, 0
1, 13795, Control_c, 0, 64, 0
1, 13795, Note_on_c, 0, 43, 30
1, 13797, Note_on_c, 0, 53, 32
1, 13798, Note_on_c, 0, 64, 35
1, 13799, Note_on_c, 0, 60, 42
1, 13800, Note_on_c, 0, 57, 37
1, 13849, Control_c, 0, 64, 127
1, 13866, Note_on_c, 0, 53, 0
1, 13868, Note_on_c, 0, 57, 0
1, 13869, Note_on_c, 0, 31, 45
1, 13870, Note_on_c, 0, 64, 0
1, 13871, Note_on_c, 0, 43, 0
1, 13872, Note_on_c, 0, 60, 0
1, 13907, Note_on_c, 0, 31, 0
1, 13910, Note_on_c, 0, 43, 52
1, 13922, Note_on_c, 0, 43, 0
1, 13981, Note_on_c, 0, 64, 45
1, 13982, Note_on_c, 0, 56, 55
1, 13982, Note_on_c, 0, 59, 55
1, 13985, Note_on_c, 0, 53, 39
1, 13986, Control_c, 0, 64, 0
1, 13986, Note_on_c, 0, 43, 33
1, 14004, Note_on_c, 0, 59, 0
1, 14005, Note_on_c, 0, 56, 0
1, 14008, Control_c, 0, 64, 127
1, 14014, Note_on_c, 0, 64, 0
1, 14034, Note_on_c, 0, 53, 0
1, 14038, Note_on_c, 0, 43, 0
1, 14068, Note_on_c, 0, 69, 67
1, 14084, Note_on_c, 0, 69, 0
1, 14098, Note_on_c, 0, 70, 67
1, 14120, Note_on_c, 0, 70, 0
1, 14134, Note_on_c, 0, 71, 53
1, 14151, Note_on_c, 0, 71, 0
1, 14164, Note_on_c, 0, 76, 59
1, 14181, Note_on_c, 0, 76, 0
1, 14201, Note_on_c, 0, 79, 73
1, 14219, Note_on_c, 0, 79, 0
1, 14225, Control_c, 0, 64, 0
1, 14234, Note_on_c, 0, 36, 37
1, 14235, Note_on_c, 0, 43, 27
1, 14236, Note_on_c, 0, 83, 72
1, 14236, Note_on_c, 0, 71, 57
1, 14238, Note_on_c, 0, 52, 29
1, 14250, Note_on_c, 0, 36, 0
1, 14257, Note_on_c, 0, 43, 0
1, 14267, Note_on_c, 0, 52, 0
1, 14287, Control_c, 0, 64, 127
1, 14291, Note_on_c, 0, 71, 0
1, 14297, Note_on_c, 0, 83, 0
1, 14315, Note_on_c, 0, 79, 27
1, 14330, Note_on_c, 0, 79, 0
1, 14337, Control_c, 0, 64, 0
1, 14341, Note_on_c, 0, 64, 37
1, 14343, Note_on_c, 0, 71, 56
1, 14344, Note_on_c, 0, 83, 65
1, 14344, Note_on_c, 0, 60, 33
1, 14345, Note_on_c, 0, 59, 29
1, 14348, Note_on_c, 0, 64, 0
1, 14351, Note_on_c, 0, 60, 0
1, 14354, Note_on_c, 0, 59, 0
1, 14388, Note_on_c, 0, 71, 0
1, 14397, Control_c, 0, 64, 127
1, 14402, Note_on_c, 0, 83, 0
1, 14411, Note_on_c, 0, 79, 55
1, 14413, Note_on_c, 0, 76, 50
1, 14413, Note_on_c, 0, 71, 42
1, 14421, Note_on_c, 0, 76, 0
1, 14423, Note_on_c, 0, 71, 0
1, 14425, Note_on_c, 0, 79, 0
1, 14443, Control_c, 0, 64, 0
1, 14446, Note_on_c, 0, 55, 49
1, 14450, Note_on_c, 0, 54, 27
1, 14460, Note_on_c, 0, 54, 0
1, 14497, Control_c, 0, 64, 127
1, 14518, Note_on_c, 0, 55, 0
1, 14520, Note_on_c, 0, 49, 33
1, 14536, Note_on_c, 0, 49, 0
1, 14555, Control_c, 0, 64, 0
1, 14555, Note_on_c, 0, 67, 44
1, 14557, Note_on_c, 0, 62, 51
1, 14557, Note_on_c, 0, 57, 55
1, 14558, Note_on_c, 0, 52, 46
1, 14581, Note_on_c, 0, 62, 0
1, 14583, Note_on_c, 0, 67, 0
1, 14599, Note_on_c, 0, 57, 0
1, 14602, Note_on_c, 0, 52, 0
1, 14603, Control_c, 0, 64, 127
1, 14624, Note_on_c, 0, 64, 54
1, 14625, Note_on_c, 0, 55, 49
1, 14626, Note_on_c, 0, 59, 57
1, 14627, Note_on_c, 0, 47, 41
1, 14631, Note_on_c, 0, 48, 52
1, 14634, Note_on_c, 0, 47, 0
1, 14645, Control_c, 0, 64, 0
1, 14679, Note_on_c, 0, 55, 0
1, 14680, Control_c, 0, 64, 127
1, 14691, Note_on_c, 0, 59, 0
1, 14695, Note_on_c, 0, 36, 67
1, 14697, Note_on_c, 0, 64, 0
1, 14699, Note_on_c, 0, 48, 0
1, 14731, Note_on_c, 0, 43, 62
1, 14745, Note_on_c, 0, 36, 0
1, 14770, Note_on_c, 0, 52, 71
1, 14771, Note_on_c, 0, 43, 0
1, 14795, Note_on_c, 0, 52, 0
1, 14842, Note_on_c, 0, 53, 68
1, 14858, Note_on_c, 0, 53, 0
1, 14881, Note_on_c, 0, 69, 77
1, 14882, Note_on_c, 0, 60, 76
1, 14882, Note_on_c, 0, 64, 74
1, 14884, Note_on_c, 0, 57, 82
1, 14886, Control_c, 0, 64, 0
1, 14914, Control_c, 0, 64, 127
1, 14931, Note_on_c, 0, 69, 0
1, 14935, Note_on_c, 0, 60, 0
1, 14942, Note_on_c, 0, 64, 0
1, 14952, Note_on_c, 0, 64, 69
1, 14952, Note_on_c, 0, 71, 70
1, 14954, Note_on_c, 0, 60, 62
1, 14973, Note_on_c, 0, 60, 0
1, 14974, Note_on_c, 0, 57, 0
1, 14979, Note_on_c, 0, 71, 0
1, 14979, Note_on_c, 0, 64, 0
1, 14987, Control_c, 0, 64, 0
1, 14990, Note_on_c, 0, 55, 53
1, 14992, Note_on_c, 0, 69, 58
1, 14995, Note_on_c, 0, 60, 28
1, 14998, Control_c, 0, 64, 127
1, 14999, Note_on_c, 0, 64, 22
1, 15005, Note_on_c, 0, 64, 0
1, 15009, Note_on_c, 0, 60, 0
1, 15013, Note_on_c, 0, 55, 0
1, 15024, Note_on_c, 0, 69, 0
1, 15056, Note_on_c, 0, 58, 51
1, 15058, Note_on_c, 0, 63, 45
1, 15081, Note_on_c, 0, 58, 0
1, 15088, Note_on_c, 0, 48, 37
1, 15096, Control_c, 0, 64, 0
1, 15100, Note_on_c, 0, 63, 0
1, 15117, Note_on_c, 0, 60, 46
1, 15124, Note_on_c, 0, 60, 0
1, 15141, Note_on_c, 0, 62, 30
1, 15148, Note_on_c, 0, 62, 0
1, 15155, Note_on_c, 0, 63, 42
1, 15160, Note_on_c, 0, 63, 0
1, 15175, Note_on_c, 0, 67, 57
1, 15190, Note_on_c, 0, 67, 0
1, 15197, Note_on_c, 0, 71, 71
1, 15200, Note_on_c, 0, 58, 31
1, 15203, Note_on_c, 0, 71, 0
1, 15211, Note_on_c, 0, 48, 0
1, 15219, Note_on_c, 0, 74, 81
1, 15224, Note_on_c, 0, 58, 0
1, 15235, Note_on_c, 0, 74, 0
1, 15247, Note_on_c, 0, 71, 72
1, 15254, Note_on_c, 0, 71, 0
1, 15272, Note_on_c, 0, 72, 65
1, 15285, Note_on_c, 0, 72, 0
1, 15296, Note_on_c, 0, 74, 64
1, 15302, Note_on_c, 0, 62, 44
1, 15306, Note_on_c, 0, 51, 25
1, 15307, Note_on_c, 0, 57, 33
1, 15311, Note_on_c, 0, 74, 0
1, 15316, Note_on_c, 0, 62, 0
1, 15316, Note_on_c, 0, 57, 0
1, 15318, Note_on_c, 0, 51, 0
1, 15324, Note_on_c, 0, 75, 57
1, 15329, Note_on_c, 0, 75, 0
1, 15348, Note_on_c, 0, 79, 58
1, 15360, Note_on_c, 0, 79, 0
1, 15374, Note_on_c, 0, 83, 68
1, 15387, Note_on_c, 0, 83, 0
1, 15398, Note_on_c, 0, 86, 91
1, 15411, Note_on_c, 0, 58, 47
1, 15415, Note_on_c, 0, 48, 32
1, 15424, Note_on_c, 0, 48, 0
1, 15424, Note_on_c, 0, 58, 0
1, 15424, Note_on_c, 0, 84, 77
1, 15428, Note_on_c, 0, 86, 0
1, 15441, Note_on_c, 0, 84, 0
1, 15459, Note_on_c, 0, 81, 69
1, 15472, Note_on_c, 0, 81, 0
1, 15476, Control_c, 0, 64, 127
1, 15489, Note_on_c, 0, 80, 70
1, 15506, Note_on_c, 0, 80, 0
1, 15512, Control_c, 0, 64, 0
1, 15517, Note_on_c, 0, 41, 36
1, 15520, Note_on_c, 0, 78, 56
1, 15524, Note_on_c, 0, 41, 0
1, 15541, Note_on_c, 0, 78, 0
1, 15552, Note_on_c, 0, 77, 51
1, 15564, Note_on_c, 0, 77, 0
1, 15584, Note_on_c, 0, 75, 56
1, 15585, Control_c, 0, 64, 127
1, 15601, Note_on_c, 0, 75, 0
1, 15612, Control_c, 0, 64, 0
1, 15615, Note_on_c, 0, 62, 35
1, 15618, Note_on_c, 0, 74, 34
1, 15620, Note_on_c, 0, 51, 20
1, 15622, Note_on_c, 0, 57, 30
1, 15640, Note_on_c, 0, 57, 0
1, 15642, Note_on_c, 0, 74, 0
1, 15648, Note_on_c, 0, 62, 0
1, 15650, Note_on_c, 0, 51, 0
1, 15680, Control_c, 0, 64, 127
1, 15688, Note_on_c, 0, 71, 58
1, 15710, Note_on_c, 0, 71, 0
1, 15720, Control_c, 0, 64, 0
1, 15722, Note_on_c, 0, 74, 66
1, 15748, Note_on_c, 0, 74, 0
1, 15756, Note_on_c, 0, 71, 34
1, 15775, Note_on_c, 0, 71, 0
1, 15787, Note_on_c, 0, 72, 65
1, 15812, Note_on_c, 0, 62, 51
1, 15815, Note_on_c, 0, 51, 33
1, 15819, Note_on_c, 0, 57, 36
1, 15824, Note_on_c, 0, 62, 0
1, 15826, Note_on_c, 0, 57, 0
1, 15837, Note_on_c, 0, 51, 0
1, 15857, Note_on_c, 0, 72, 0
1, 15858, Note_on_c, 0, 69, 48
1, 15866, Control_c, 0, 64, 127
1, 15876, Note_on_c, 0, 69, 0
1, 15887, Note_on_c, 0, 67, 58
1, 15890, Note_on_c, 0, 50, 43
1, 15901, Note_on_c, 0, 67, 0
1, 15922, Note_on_c, 0, 50, 0
1, 15925, Control_c, 0, 64, 0
1, 15928, Note_on_c, 0, 66, 40
1, 15928, Note_on_c, 0, 43, 46
1, 15929, Note_on_c, 0, 54, 31
1, 15954, Note_on_c, 0, 66, 0
1, 15962, Note_on_c, 0, 54, 0
1, 15970, Note_on_c, 0, 67, 57
1, 15979, Note_on_c, 0, 50, 22
1, 15985, Note_on_c, 0, 67, 0
1, 15998, Note_on_c, 0, 50, 0
1, 16000, Note_on_c, 0, 69, 95
1, 16015, Note_on_c, 0, 43, 0
1, 16020, Note_on_c, 0, 69, 0
1, 16028, Note_on_c, 0, 62, 74
1, 16034, Note_on_c, 0, 54, 33
1, 16050, Note_on_c, 0, 54, 0
1, 16052, Note_on_c, 0, 62, 0
1, 16066, Note_on_c, 0, 64, 66
1, 16082, Note_on_c, 0, 64, 0
1, 16093, Note_on_c, 0, 66, 63
1, 16098, Control_c, 0, 64, 127
1, 16112, Note_on_c, 0, 66, 0
1, 16126, Note_on_c, 0, 59, 45
1, 16135, Control_c, 0, 64, 0
1, 16140, Note_on_c, 0, 59, 0
1, 16159, Note_on_c, 0, 60, 37
1, 16176, Note_on_c, 0, 60, 0
1, 16190, Note_on_c, 0, 62, 70
1, 16192, Control_c, 0, 64, 127
1, 16211, Note_on_c, 0, 62, 0
1, 16222, Note_on_c, 0, 59, 49
1, 16225, Control_c, 0, 64, 0
1, 16269, Note_on_c, 0, 59, 0
1, 16283, Control_c, 0, 64, 127
1, 16284, Note_on_c, 0, 54, 64
1, 16291, Note_on_c, 0, 42, 33
1, 16317, Note_on_c, 0, 42, 0
1, 16321, Control_c, 0, 64, 0
1, 16327, Note_on_c, 0, 43, 39
1, 16360, Note_on_c, 0, 54, 0
1, 16384, Control_c, 0, 64, 127
1, 16397, Note_on_c, 0, 31, 46
1, 16403, Note_on_c, 0, 31, 0
1, 16406, Note_on_c, 0, 43, 0
1, 16432, Control_c, 0, 64, 0
1, 16433, Note_on_c, 0, 69, 81
1, 16433, Note_on_c, 0, 62, 80
1, 16433, Note_on_c, 0, 59, 80
1, 16434, Note_on_c, 0, 66, 71
1, 16488, Control_c, 0, 64, 127
1, 16505, Note_on_c, 0, 69, 0
1, 16508, Note_on_c, 0, 67, 44
1, 16511, Note_on_c, 0, 54, 29
1, 16521, Note_on_c, 0, 62, 0
1, 16521, Note_on_c, 0, 59, 0
1, 16524, Note_on_c, 0, 67, 0
1, 16525, Note_on_c, 0, 66, 0
1, 16534, Note_on_c, 0, 54, 0
1, 16541, Control_c, 0, 64, 0
1, 16541, Note_on_c, 0, 69, 68
1, 16542, Note_on_c, 0, 66, 45
1, 16543, Note_on_c, 0, 59, 54
1, 16544, Note_on_c, 0, 62, 45
1, 16546, Note_on_c, 0, 57, 50
1, 16572, Control_c, 0, 64, 127
1, 16597, Note_on_c, 0, 62, 0
1, 16600, Note_on_c, 0, 66, 0
1, 16606, Note_on_c, 0, 69, 0
1, 16611, Note_on_c, 0, 67, 57
1, 16611, Note_on_c, 0, 62, 64
1, 16613, Note_on_c, 0, 66, 23
1, 16616, Note_on_c, 0, 57, 0
1, 16622, Note_on_c, 0, 66, 0
1, 16639, Control_c, 0, 64, 0
1, 16644, Note_on_c, 0, 55, 40
1, 16653, Control_c, 0, 64, 127
1, 16662, Note_on_c, 0, 55, 0
1, 16668, Note_on_c, 0, 62, 0
1, 16689, Note_on_c, 0, 59, 0
1, 16710, Note_on_c, 0, 61, 56
1, 16735, Control_c, 0, 64, 0
1, 16744, Note_on_c, 0, 56, 36
1, 16744, Note_on_c, 0, 46, 40
1, 16754, Control_c, 0, 64, 127
1, 16760, Note_on_c, 0, 46, 0
1, 16765, Note_on_c, 0, 56, 0
1, 16777, Note_on_c, 0, 61, 0
1, 16851, Note_on_c, 0, 63, 45
1, 16852, Note_on_c, 0, 56, 38
1, 16854, Note_on_c, 0, 61, 48
1, 16856, Control_c, 0, 64, 0
1, 16880, Control_c, 0, 64, 127
1, 16886, Control_c, 0, 64, 0
1, 16894, Control_c, 0, 64, 127
1, 16897, Note_on_c, 0, 56, 0
1, 16898, Note_on_c, 0, 61, 0
1, 16899, Note_on_c, 0, 63, 0
1, 16904, Note_on_c, 0, 67, 0
1, 16919, Note_on_c, 0, 63, 51
1, 16921, Note_on_c, 0, 56, 38
1, 16922, Note_on_c, 0, 61, 58
1, 16935, Note_on_c, 0, 63, 0
1, 16937, Note_on_c, 0, 56, 0
1, 16939, Note_on_c, 0, 61, 0
1, 16953, Control_c, 0, 64, 0
1, 16956, Note_on_c, 0, 63, 55
1, 16958, Note_on_c, 0, 61, 50
1, 16959, Note_on_c, 0, 56, 51
1, 16969, Note_on_c, 0, 63, 0
1, 16973, Note_on_c, 0, 61, 0
1, 16975, Note_on_c, 0, 56, 0
1, 17000, Control_c, 0, 64, 127
1, 17024, Note_on_c, 0, 63, 62
1, 17024, Note_on_c, 0, 85, 69
1, 17024, Control_c, 0, 64, 0
1, 17025, Note_on_c, 0, 73, 68
1, 17026, Note_on_c, 0, 61, 47
1, 17027, Note_on_c, 0, 56, 33
1, 17031, Note_on_c, 0, 63, 0
1, 17032, Note_on_c, 0, 61, 0
1, 17033, Note_on_c, 0, 73, 0
1, 17034, Note_on_c, 0, 56, 0
1, 17036, Note_on_c, 0, 85, 0
1, 17061, Note_on_c, 0, 87, 75
1, 17062, Note_on_c, 0, 63, 45
1, 17063, Note_on_c, 0, 75, 58
1, 17065, Note_on_c, 0, 61, 40
1, 17066, Note_on_c, 0, 56, 26
1, 17070, Note_on_c, 0, 61, 0
1, 17070, Note_on_c, 0, 63, 0
1, 17071, Note_on_c, 0, 75, 0
1, 17073, Note_on_c, 0, 87, 0
1, 17073, Note_on_c, 0, 56, 0
1, 17095, Note_on_c, 0, 73, 54
1, 17097, Note_on_c, 0, 85, 45
1, 17102, Note_on_c, 0, 73, 0
1, 17103, Note_on_c, 0, 85, 0
1, 17104, Control_c, 0, 64, 127
1, 17127, Control_c, 0, 64, 0
1, 17130, Note_on_c, 0, 61, 52
1, 17131, Note_on_c, 0, 60, 56
1, 17131, Note_on_c, 0, 84, 76
1, 17132, Note_on_c, 0, 72, 55
1, 17135, Note_on_c, 0, 55, 32
1, 17158, Control_c, 0, 64, 127
1, 17168, Note_on_c, 0, 61, 0
1, 17169, Note_on_c, 0, 60, 0
1, 17170, Note_on_c, 0, 55, 0
1, 17171, Note_on_c, 0, 84, 0
1, 17176, Note_on_c, 0, 72, 0
1, 17205, Note_on_c, 0, 82, 57
1, 17206, Control_c, 0, 64, 0
1, 17206, Note_on_c, 0, 61, 56
1, 17206, Note_on_c, 0, 70, 62
1, 17206, Note_on_c, 0, 60, 60
1, 17208, Note_on_c, 0, 55, 46
1, 17230, Control_c, 0, 64, 127
1, 17254, Note_on_c, 0, 55, 0
1, 17256, Note_on_c, 0, 82, 0
1, 17256, Note_on_c, 0, 70, 0
1, 17256, Note_on_c, 0, 61, 0
1, 17258, Note_on_c, 0, 60, 0
1, 17266, Control_c, 0, 64, 0
1, 17279, Note_on_c, 0, 61, 34
1, 17279, Note_on_c, 0, 80, 48
1, 17280, Note_on_c, 0, 68, 47
1, 17281, Note_on_c, 0, 60, 43
1, 17283, Note_on_c, 0, 55, 32
1, 17299, Control_c, 0, 64, 127
1, 17311, Note_on_c, 0, 55, 0
1, 17313, Note_on_c, 0, 61, 0
1, 17314, Note_on_c, 0, 60, 0
1, 17320, Note_on_c, 0, 80, 0
1, 17328, Note_on_c, 0, 68, 0
1, 17347, Control_c, 0, 64, 0
1, 17347, Note_on_c, 0, 61, 45
1, 17348, Note_on_c, 0, 60, 52
1, 17349, Note_on_c, 0, 79, 58
1, 17351, Note_on_c, 0, 67, 53
1, 17352, Note_on_c, 0, 55, 39
1, 17374, Control_c, 0, 64, 127
1, 17375, Note_on_c, 0, 79, 0
1, 17387, Note_on_c, 0, 67, 0
1, 17394, Note_on_c, 0, 61, 0
1, 17410, Note_on_c, 0, 60, 0
1, 17413, Note_on_c, 0, 55, 0
1, 17446, Note_on_c, 0, 75, 56
1, 17449, Note_on_c, 0, 61, 59
1, 17450, Note_on_c, 0, 63, 46
1, 17453, Note_on_c, 0, 55, 46
1, 17453, Note_on_c, 0, 60, 49
1, 17457, Control_c, 0, 64, 0
1, 17459, Note_on_c, 0, 60, 0
1, 17467, Note_on_c, 0, 61, 0
1, 17475, Control_c, 0, 64, 127
1, 17495, Note_on_c, 0, 75, 0
1, 17501, Note_on_c, 0, 63, 0
1, 17501, Note_on_c, 0, 55, 0
1, 17519, Note_on_c, 0, 73, 32
1, 17521, Note_on_c, 0, 61, 50
1, 17532, Note_on_c, 0, 73, 0
1, 17535, Note_on_c, 0, 61, 0
1, 17557, Note_on_c, 0, 66, 37
1, 17563, Note_on_c, 0, 66, 0
1, 17579, Control_c, 0, 64, 0
1, 17588, Note_on_c, 0, 64, 30
1, 17588, Note_on_c, 0, 60, 47
1, 17589, Note_on_c, 0, 55, 33
1, 17590, Note_on_c, 0, 67, 31
1, 17596, Note_on_c, 0, 45, 25
1, 17599, Control_c, 0, 64, 127
1, 17610, Note_on_c, 0, 45, 0
1, 17621, Note_on_c, 0, 60, 0
1, 17623, Note_on_c, 0, 55, 0
1, 17629, Note_on_c, 0, 64, 0
1, 17632, Note_on_c, 0, 67, 0
1, 17696, Note_on_c, 0, 74, 50
1, 17698, Note_on_c, 0, 64, 48
1, 17701, Note_on_c, 0, 60, 36
1, 17705, Note_on_c, 0, 64, 0
1, 17705, Note_on_c, 0, 59, 25
1, 17706, Control_c, 0, 64, 0
1, 17708, Note_on_c, 0, 60, 0
1, 17709, Note_on_c, 0, 75, 43
1, 17713, Note_on_c, 0, 59, 0
1, 17718, Note_on_c, 0, 74, 0
1, 17727, Note_on_c, 0, 75, 0
1, 17728, Note_on_c, 0, 76, 43
1, 17751, Note_on_c, 0, 76, 0
1, 17763, Note_on_c, 0, 79, 72
1, 17765, Note_on_c, 0, 67, 58
1, 17779, Note_on_c, 0, 67, 0
1, 17780, Note_on_c, 0, 79, 0
1, 17780, Control_c, 0, 64, 127
1, 17794, Note_on_c, 0, 67, 64
1, 17794, Note_on_c, 0, 79, 58
1, 17809, Note_on_c, 0, 67, 0
1, 17814, Note_on_c, 0, 79, 0
1, 17814, Control_c, 0, 64, 0
1, 17822, Note_on_c, 0, 76, 41
1, 17841, Note_on_c, 0, 76, 0
1, 17851, Note_on_c, 0, 79, 52
1, 17853, Note_on_c, 0, 67, 49
1, 17863, Control_c, 0, 64, 127
1, 17867, Note_on_c, 0, 67, 0
1, 17873, Note_on_c, 0, 79, 0
1, 17883, Note_on_c, 0, 76, 46
1, 17896, Note_on_c, 0, 76, 0
1, 17921, Control_c, 0, 64, 0
1, 17921, Note_on_c, 0, 64, 64
1, 17924, Note_on_c, 0, 60, 53
1, 17927, Note_on_c, 0, 64, 0
1, 17927, Note_on_c, 0, 59, 34
1, 17930, Note_on_c, 0, 60, 0
1, 17933, Note_on_c, 0, 59, 0
1, 17976, Control_c, 0, 64, 127
1, 17988, Note_on_c, 0, 39, 50
1, 18000, Note_on_c, 0, 39, 0
1, 18021, Control_c, 0, 64, 0
1, 18027, Note_on_c, 0, 50, 38
1, 18028, Note_on_c, 0, 66, 38
1, 18029, Note_on_c, 0, 74, 36
1, 18029, Note_on_c, 0, 78, 30
1, 18034, Note_on_c, 0, 50, 0
1, 18045, Control_c, 0, 64, 127
1, 18079, Note_on_c, 0, 74, 0
1, 18083, Note_on_c, 0, 66, 0
1, 18097, Note_on_c, 0, 66, 40
1, 18114, Note_on_c, 0, 78, 0
1, 18120, Note_on_c, 0, 66, 0
1, 18129, Note_on_c, 0, 54, 39
1, 18130, Note_on_c, 0, 60, 31
1, 18131, Control_c, 0, 64, 0
1, 18136, Note_on_c, 0, 60, 0
1, 18144, Note_on_c, 0, 54, 0
1, 18167, Control_c, 0, 64, 127
1, 18200, Note_on_c, 0, 45, 45
1, 18231, Control_c, 0, 64, 0
1, 18237, Note_on_c, 0, 62, 51
1, 18237, Note_on_c, 0, 66, 46
1, 18238, Note_on_c, 0, 74, 33
1, 18241, Note_on_c, 0, 69, 45
1, 18253, Control_c, 0, 64, 127
1, 18256, Note_on_c, 0, 45, 0
1, 18308, Note_on_c, 0, 45, 46
1, 18313, Note_on_c, 0, 55, 33
1, 18319, Note_on_c, 0, 55, 0
1, 18326, Note_on_c, 0, 45, 0
1, 18352, Note_on_c, 0, 52, 61
1, 18352, Control_c, 0, 64, 0
1, 18373, Control_c, 0, 64, 127
1, 18447, Note_on_c, 0, 62, 0
1, 18454, Note_on_c, 0, 69, 0
1, 18454, Note_on_c, 0, 66, 0
1, 18456, Note_on_c, 0, 42, 52
1, 18460, Control_c, 0, 64, 0
1, 18463, Control_c, 0, 64, 127
1, 18464, Note_on_c, 0, 52, 0
1, 18467, Note_on_c, 0, 42, 0
1, 18519, Note_on_c, 0, 74, 0
1, 18556, Note_on_c, 0, 60, 55
1, 18560, Note_on_c, 0, 64, 56
1, 18561, Note_on_c, 0, 60, 0
1, 18568, Note_on_c, 0, 64, 0
1, 18569, Control_c, 0, 64, 0
1, 18591, Note_on_c, 0, 69, 47
1, 18598, Note_on_c, 0, 69, 0
1, 18619, Note_on_c, 0, 72, 58
1, 18630, Control_c, 0, 64, 127
1, 18633, Note_on_c, 0, 72, 0
1, 18645, Note_on_c, 0, 74, 85
1, 18664, Control_c, 0, 64, 0
1, 18667, Note_on_c, 0, 74, 0
1, 18669, Note_on_c, 0, 57, 34
1, 18671, Note_on_c, 0, 72, 64
1, 18672, Note_on_c, 0, 51, 38
1, 18673, Note_on_c, 0, 47, 24
1, 18710, Note_on_c, 0, 47, 0
1, 18712, Note_on_c, 0, 51, 0
1, 18713, Control_c, 0, 64, 127
1, 18715, Note_on_c, 0, 72, 0
1, 18722, Note_on_c, 0, 57, 0
1, 18729, Note_on_c, 0, 71, 69
1, 18747, Note_on_c, 0, 71, 0
1, 18772, Note_on_c, 0, 62, 43
1, 18773, Note_on_c, 0, 51, 36
1, 18775, Note_on_c, 0, 66, 54
1, 18776, Note_on_c, 0, 57, 43
1, 18779, Note_on_c, 0, 62, 0
1, 18779, Control_c, 0, 64, 0
1, 18787, Note_on_c, 0, 57, 0
1, 18806, Note_on_c, 0, 66, 0
1, 18813, Note_on_c, 0, 51, 0
1, 18842, Note_on_c, 0, 69, 79
1, 18845, Control_c, 0, 64, 127
1, 18873, Note_on_c, 0, 62, 53
1, 18879, Control_c, 0, 64, 0
1, 18880, Note_on_c, 0, 55, 35
1, 18891, Note_on_c, 0, 62, 0
1, 18896, Note_on_c, 0, 55, 0
1, 18912, Note_on_c, 0, 67, 64
1, 18926, Note_on_c, 0, 69, 0
1, 18927, Control_c, 0, 64, 127
1, 18978, Control_c, 0, 64, 0
1, 18980, Note_on_c, 0, 64, 45
1, 18984, Note_on_c, 0, 55, 36
1, 19002, Control_c, 0, 64, 127
1, 19008, Note_on_c, 0, 64, 0
1, 19014, Note_on_c, 0, 67, 0
1, 19043, Note_on_c, 0, 55, 0
1, 19052, Note_on_c, 0, 62, 71
1, 19084, Note_on_c, 0, 62, 0
1, 19087, Control_c, 0, 64, 0
1, 19090, Note_on_c, 0, 56, 26
1, 19093, Note_on_c, 0, 59, 36
1, 19095, Note_on_c, 0, 46, 21
1, 19122, Control_c, 0, 64, 127
1, 19143, Note_on_c, 0, 59, 0
1, 19149, Note_on_c, 0, 46, 0
1, 19163, Note_on_c, 0, 59, 36
1, 19175, Note_on_c, 0, 59, 0
1, 19176, Note_on_c, 0, 56, 0
1, 19193, Note_on_c, 0, 57, 56
1, 19200, Control_c, 0, 64, 0
1, 19228, Control_c, 0, 64, 127
1, 19251, Note_on_c, 0, 57, 0
1, 19267, Note_on_c, 0, 46, 53
1, 19291, Note_on_c, 0, 46, 0
1, 19305, Control_c, 0, 64, 0
1, 19306, Note_on_c, 0, 55, 40
1, 19308, Note_on_c, 0, 45, 45
1, 19317, Note_on_c, 0, 45, 0
1, 19318, Note_on_c, 0, 55, 0
1, 19334, Note_on_c, 0, 87, 55
1, 19337, Note_on_c, 0, 75, 62
1, 19357, Note_on_c, 0, 75, 0
1, 19358, Note_on_c, 0, 87, 0
1, 19369, Note_on_c, 0, 76, 38
1, 19369, Note_on_c, 0, 88, 50
1, 19369, Control_c, 0, 64, 127
1, 19382, Note_on_c, 0, 76, 0
1, 19384, Note_on_c, 0, 88, 0
1, 19411, Control_c, 0, 64, 0
1, 19414, Note_on_c, 0, 61, 40
1, 19415, Note_on_c, 0, 87, 58
1, 19415, Note_on_c, 0, 65, 41
1, 19418, Note_on_c, 0, 75, 37
1, 19420, Note_on_c, 0, 65, 0
1, 19435, Note_on_c, 0, 61, 0
1, 19437, Note_on_c, 0, 87, 0
1, 19443, Note_on_c, 0, 75, 0
1, 19447, Note_on_c, 0, 88, 57
1, 19448, Note_on_c, 0, 76, 46
1, 19458, Note_on_c, 0, 76, 0
1, 19461, Note_on_c, 0, 88, 0
1, 19463, Control_c, 0, 64, 127
1, 19511, Control_c, 0, 64, 0
1, 19517, Note_on_c, 0, 67, 42
1, 19518, Note_on_c, 0, 62, 43
1, 19520, Note_on_c, 0, 70, 69
1, 19520, Note_on_c, 0, 56, 36
1, 19524, Note_on_c, 0, 82, 33
1, 19531, Note_on_c, 0, 79, 26
1, 19536, Note_on_c, 0, 82, 0
1, 19543, Note_on_c, 0, 70, 0
1, 19552, Note_on_c, 0, 83, 12
1, 19552, Note_on_c, 0, 71, 18
1, 19552, Note_on_c, 0, 76, 1
1, 19562, Note_on_c, 0, 83, 0
1, 19568, Note_on_c, 0, 71, 0
1, 19570, Control_c, 0, 64, 127
1, 19572, Note_on_c, 0, 76, 0
1, 19577, Note_on_c, 0, 79, 0
1, 19579, Note_on_c, 0, 67, 0
1, 19583, Note_on_c, 0, 62, 0
1, 19586, Note_on_c, 0, 56, 0
1, 19618, Control_c, 0, 64, 0
1, 19624, Note_on_c, 0, 70, 70
1, 19626, Note_on_c, 0, 62, 33
1, 19626, Note_on_c, 0, 56, 36
1, 19627, Note_on_c, 0, 67, 31
1, 19629, Note_on_c, 0, 76, 38
1, 19633, Note_on_c, 0, 79, 26
1, 19637, Note_on_c, 0, 83, 36
1, 19640, Note_on_c, 0, 70, 0
1, 19646, Note_on_c, 0, 71, 18
1, 19660, Control_c, 0, 64, 127
1, 19661, Note_on_c, 0, 71, 0
1, 19664, Note_on_c, 0, 79, 0
1, 19669, Note_on_c, 0, 83, 0
1, 19670, Note_on_c, 0, 67, 0
1, 19670, Note_on_c, 0, 62, 0
1, 19670, Note_on_c, 0, 76, 0
1, 19699, Note_on_c, 0, 56, 0
1, 19700, Note_on_c, 0, 67, 57
1, 19707, Note_on_c, 0, 78, 21
1, 19714, Note_on_c, 0, 78, 0
1, 19714, Note_on_c, 0, 67, 0
1, 19735, Control_c, 0, 64, 0
1, 19736, Note_on_c, 0, 65, 47
1, 19736, Note_on_c, 0, 55, 41
1, 19738, Note_on_c, 0, 69, 48
1, 19738, Note_on_c, 0, 81, 47
1, 19738, Note_on_c, 0, 76, 36
1, 19739, Note_on_c, 0, 73, 37
1, 19740, Note_on_c, 0, 61, 45
1, 19743, Note_on_c, 0, 79, 24
1, 19750, Note_on_c, 0, 65, 0
1, 19760, Note_on_c, 0, 55, 0
1, 19760, Note_on_c, 0, 61, 0
1, 19782, Note_on_c, 0, 81, 0
1, 19784, Note_on_c, 0, 79, 0
1, 19790, Note_on_c, 0, 76, 0
1, 19791, Note_on_c, 0, 73, 0
1, 19791, Note_on_c, 0, 69, 0
1, 19802, Note_on_c, 0, 45, 67
1, 19830, Note_on_c, 0, 45, 0
1, 19839, Note_on_c, 0, 45, 59
1, 19844, Control_c, 0, 64, 127
1, 19900, Note_on_c, 0, 45, 0
1, 19906, Note_on_c, 0, 64, 74
1, 19907, Note_on_c, 0, 61, 70
1, 19907, Note_on_c, 0, 58, 74
1, 19907, Note_on_c, 0, 49, 69
1, 19908, Note_on_c, 0, 55, 71
1, 19913, Control_c, 0, 64, 0
1, 19945, Control_c, 0, 64, 127
1, 19981, Note_on_c, 0, 64, 0
1, 19997, Note_on_c, 0, 55, 0
1, 20002, Note_on_c, 0, 61, 0
1, 20002, Note_on_c, 0, 58, 0
1, 20025, Note_on_c, 0, 58, 51
1, 20026, Note_on_c, 0, 66, 60
1, 20027, Note_on_c, 0, 55, 60
1, 20029, Note_on_c, 0, 61, 47
1, 20050, Note_on_c, 0, 55, 0
1, 20052, Note_on_c, 0, 58, 0
1, 20052, Note_on_c, 0, 61, 0
1, 20055, Note_on_c, 0, 66, 0
1, 20067, Note_on_c, 0, 55, 53
1, 20068, Note_on_c, 0, 49, 0
1, 20070, Note_on_c, 0, 67, 47
1, 20071, Control_c, 0, 64, 0
1, 20084, Note_on_c, 0, 55, 0
1, 20089, Note_on_c, 0, 67, 0
1, 20114, Control_c, 0, 64, 127
1, 20137, Note_on_c, 0, 52, 51
1, 20143, Note_on_c, 0, 52, 0
1, 20170, Note_on_c, 0, 59, 69
1, 20171, Note_on_c, 0, 74, 76
1, 20172, Control_c, 0, 64, 0
1, 20172, Note_on_c, 0, 64, 80
1, 20172, Note_on_c, 0, 71, 67
1, 20173, Note_on_c, 0, 67, 68
1, 20218, Control_c, 0, 64, 127
1, 20219, Note_on_c, 0, 71, 0
1, 20227, Note_on_c, 0, 67, 0
1, 20228, Note_on_c, 0, 64, 0
1, 20241, Note_on_c, 0, 74, 0
1, 20253, Note_on_c, 0, 59, 0
1, 20284, Note_on_c, 0, 58, 50
1, 20287, Control_c, 0, 64, 0
1, 20289, Note_on_c, 0, 74, 80
1, 20290, Note_on_c, 0, 64, 90
1, 20290, Note_on_c, 0, 67, 73
1, 20290, Note_on_c, 0, 59, 74
1, 20291, Note_on_c, 0, 71, 64
1, 20298, Note_on_c, 0, 58, 0
1, 20317, Note_on_c, 0, 71, 0
1, 20322, Note_on_c, 0, 74, 0
1, 20323, Note_on_c, 0, 67, 0
1, 20329, Note_on_c, 0, 59, 0
1, 20335, Note_on_c, 0, 64, 0
1, 20337, Control_c, 0, 64, 127
1, 20344, Note_on_c, 0, 59, 44
1, 20356, Note_on_c, 0, 59, 0
1, 20370, Note_on_c, 0, 56, 37
1, 20385, Note_on_c, 0, 56, 0
1, 20392, Note_on_c, 0, 55, 55
1, 20396, Control_c, 0, 64, 0
1, 20397, Note_on_c, 0, 60, 45
1, 20397, Note_on_c, 0, 64, 56
1, 20397, Note_on_c, 0, 71, 39
1, 20398, Note_on_c, 0, 67, 34
1, 20453, Note_on_c, 0, 60, 0
1, 20465, Control_c, 0, 64, 127
1, 20472, Note_on_c, 0, 67, 0
1, 20476, Note_on_c, 0, 64, 0
1, 20476, Control_c, 0, 64, 0
1, 20486, Note_on_c, 0, 55, 0
1, 20495, Note_on_c, 0, 71, 0
1, 20497, Control_c, 0, 64, 127
1, 20499, Note_on_c, 0, 46, 39
1, 20499, Note_on_c, 0, 67, 35
1, 20502, Note_on_c, 0, 60, 32
1, 20505, Note_on_c, 0, 64, 27
1, 20517, Note_on_c, 0, 46, 0
1, 20535, Note_on_c, 0, 67, 0
1, 20536, Note_on_c, 0, 64, 0
1, 20538, Note_on_c, 0, 71, 17
1, 20546, Note_on_c, 0, 60, 0
1, 20553, Note_on_c, 0, 71, 0
1, 20561, Note_on_c, 0, 48, 30
1, 20568, Note_on_c, 0, 48, 0
1, 20572, Note_on_c, 0, 60, 56
1, 20573, Note_on_c, 0, 49, 42
1, 20573, Note_on_c, 0, 71, 40
1, 20575, Note_on_c, 0, 64, 47
1, 20575, Note_on_c, 0, 66, 56
1, 20576, Note_on_c, 0, 50, 45
1, 20579, Control_c, 0, 64, 0
1, 20583, Note_on_c, 0, 49, 0
1, 20659, Note_on_c, 0, 50, 0
1, 20664, Control_c, 0, 64, 127
1, 20680, Note_on_c, 0, 47, 47
1, 20704, Note_on_c, 0, 47, 0
1, 20714, Control_c, 0, 64, 0
1, 20720, Note_on_c, 0, 44, 55
1, 20737, Note_on_c, 0, 44, 0
1, 20768, Control_c, 0, 64, 127
1, 20777, Note_on_c, 0, 71, 0
1, 20781, Note_on_c, 0, 60, 0
1, 20783, Note_on_c, 0, 64, 0
1, 20786, Note_on_c, 0, 66, 0
1, 20792, Note_on_c, 0, 31, 33
1, 20800, Note_on_c, 0, 31, 0
1, 20820, Control_c, 0, 64, 0
1, 20821, Note_on_c, 0, 43, 38
1, 20827, Note_on_c, 0, 63, 47
1, 20828, Note_on_c, 0, 43, 0
1, 20828, Note_on_c, 0, 69, 44
1, 20828, Note_on_c, 0, 59, 38
1, 20856, Control_c, 0, 64, 127
1, 20884, Note_on_c, 0, 59, 0
1, 20887, Note_on_c, 0, 63, 0
1, 20892, Note_on_c, 0, 69, 0
1, 20900, Note_on_c, 0, 59, 60
1, 20900, Note_on_c, 0, 68, 71
1, 20900, Note_on_c, 0, 63, 63
1, 20926, Note_on_c, 0, 43, 34
1, 20927, Control_c, 0, 64, 0
1, 20928, Note_on_c, 0, 53, 40
1, 20934, Note_on_c, 0, 43, 0
1, 20946, Note_on_c, 0, 53, 0
1, 20954, Control_c, 0, 64, 127
1, 20976, Note_on_c, 0, 59, 0
1, 20983, Note_on_c, 0, 68, 0
1, 20988, Note_on_c, 0, 63, 0
1, 21005, Note_on_c, 0, 67, 45
1, 21006, Note_on_c, 0, 57, 38
1, 21006, Note_on_c, 0, 62, 44
1, 21015, Note_on_c, 0, 57, 0
1, 21025, Note_on_c, 0, 62, 0
1, 21034, Control_c, 0, 64, 0
1, 21037, Note_on_c, 0, 36, 35
1, 21037, Note_on_c, 0, 43, 29
1, 21039, Note_on_c, 0, 67, 0
1, 21042, Note_on_c, 0, 52, 34
1, 21064, Note_on_c, 0, 36, 0
1, 21065, Control_c, 0, 64, 127
1, 21070, Note_on_c, 0, 43, 0
1, 21080, Note_on_c, 0, 52, 0
1, 21084, Note_on_c, 0, 71, 55
1, 21103, Note_on_c, 0, 71, 0
1, 21115, Note_on_c, 0, 76, 69
1, 21135, Note_on_c, 0, 76, 0
1, 21149, Note_on_c, 0, 67, 56
1, 21151, Note_on_c, 0, 83, 94
1, 21152, Note_on_c, 0, 64, 43
1, 21153, Control_c, 0, 64, 0
1, 21153, Note_on_c, 0, 62, 29
1, 21158, Note_on_c, 0, 67, 0
1, 21160, Note_on_c, 0, 64, 0
1, 21165, Note_on_c, 0, 62, 0
1, 21178, Note_on_c, 0, 83, 0
1, 21193, Note_on_c, 0, 83, 62
1, 21209, Control_c, 0, 64, 127
1, 21225, Note_on_c, 0, 83, 0
1, 21230, Note_on_c, 0, 79, 74
1, 21241, Note_on_c, 0, 48, 44
1, 21243, Control_c, 0, 64, 0
1, 21248, Note_on_c, 0, 48, 0
1, 21250, Note_on_c, 0, 79, 0
1, 21269, Note_on_c, 0, 79, 62
1, 21291, Note_on_c, 0, 79, 0
1, 21302, Control_c, 0, 64, 127
1, 21304, Note_on_c, 0, 71, 29
1, 21312, Note_on_c, 0, 71, 0
1, 21336, Note_on_c, 0, 71, 44
1, 21353, Note_on_c, 0, 67, 42
1, 21354, Note_on_c, 0, 71, 0
1, 21359, Note_on_c, 0, 67, 0
1, 21360, Note_on_c, 0, 62, 31
1, 21362, Note_on_c, 0, 64, 22
1, 21368, Control_c, 0, 64, 0
1, 21369, Note_on_c, 0, 64, 0
1, 21370, Note_on_c, 0, 67, 52
1, 21376, Note_on_c, 0, 62, 0
1, 21384, Note_on_c, 0, 67, 0
1, 21401, Note_on_c, 0, 67, 49
1, 21407, Control_c, 0, 64, 127
1, 21427, Note_on_c, 0, 67, 0
1, 21434, Note_on_c, 0, 64, 62
1, 21448, Note_on_c, 0, 64, 0
1, 21464, Note_on_c, 0, 55, 24
1, 21469, Note_on_c, 0, 48, 27
1, 21470, Note_on_c, 0, 64, 55
1, 21473, Note_on_c, 0, 55, 0
1, 21479, Control_c, 0, 64, 0
1, 21487, Note_on_c, 0, 64, 0
1, 21488, Note_on_c, 0, 48, 0
1, 21504, Note_on_c, 0, 59, 36
1, 21516, Note_on_c, 0, 59, 0
1, 21530, Control_c, 0, 64, 127
1, 21537, Note_on_c, 0, 59, 49
1, 21562, Note_on_c, 0, 59, 0
1, 21571, Note_on_c, 0, 47, 27
1, 21572, Note_on_c, 0, 48, 40
1, 21578, Note_on_c, 0, 47, 0
1, 21578, Note_on_c, 0, 55, 41
1, 21584, Control_c, 0, 64, 0
1, 21596, Note_on_c, 0, 55, 0
1, 21611, Note_on_c, 0, 55, 44
1, 21626, Note_on_c, 0, 55, 0
1, 21645, Note_on_c, 0, 57, 61
1, 21646, Control_c, 0, 64, 127
1, 21652, Control_c, 0, 64, 0
1, 21680, Note_on_c, 0, 36, 26
1, 21689, Note_on_c, 0, 48, 0
1, 21689, Control_c, 0, 64, 127
1, 21736, Note_on_c, 0, 57, 0
1, 21755, Note_on_c, 0, 43, 30
1, 21777, Note_on_c, 0, 43, 0
1, 21787, Note_on_c, 0, 36, 0
1, 21794, Note_on_c, 0, 59, 35
1, 21794, Note_on_c, 0, 48, 29
1, 21798, Note_on_c, 0, 55, 28
1, 21804, Note_on_c, 0, 48, 0
1, 21827, Note_on_c, 0, 55, 0
1, 21833, Note_on_c, 0, 59, 0
1, 21857, Note_on_c, 0, 64, 53
1, 21863, Note_on_c, 0, 47, 45
1, 21880, Note_on_c, 0, 64, 0
1, 21891, Control_c, 0, 64, 0
1, 21892, Note_on_c, 0, 47, 0
1, 21896, Note_on_c, 0, 63, 44
1, 21900, Note_on_c, 0, 48, 43
1, 21900, Note_on_c, 0, 53, 35
1, 21902, Note_on_c, 0, 58, 38
1, 21912, Control_c, 0, 64, 127
1, 21915, Note_on_c, 0, 53, 0
1, 21916, Note_on_c, 0, 48, 0
1, 21923, Note_on_c, 0, 58, 0
1, 21928, Note_on_c, 0, 63, 0
1, 21966, Note_on_c, 0, 75, 67
1, 22001, Note_on_c, 0, 53, 37
1, 22004, Note_on_c, 0, 63, 30
1, 22004, Note_on_c, 0, 58, 37
1, 22010, Control_c, 0, 64, 0
1, 22034, Note_on_c, 0, 67, 43
1, 22052, Note_on_c, 0, 67, 0
1, 22053, Control_c, 0, 64, 127
1, 22058, Note_on_c, 0, 75, 0
1, 22067, Note_on_c, 0, 69, 67
1, 22090, Note_on_c, 0, 69, 0
1, 22104, Note_on_c, 0, 70, 71
1, 22109, Note_on_c, 0, 53, 0
1, 22110, Note_on_c, 0, 63, 0
1, 22116, Note_on_c, 0, 58, 0
1, 22125, Note_on_c, 0, 70, 0
1, 22135, Note_on_c, 0, 72, 66
1, 22152, Note_on_c, 0, 72, 0
1, 22162, Control_c, 0, 64, 0
1, 22168, Note_on_c, 0, 58, 40
1, 22170, Note_on_c, 0, 48, 42
1, 22171, Note_on_c, 0, 53, 42
1, 22172, Note_on_c, 0, 67, 68
1, 22174, Note_on_c, 0, 63, 47
1, 22183, Control_c, 0, 64, 127
1, 22190, Note_on_c, 0, 48, 0
1, 22192, Note_on_c, 0, 53, 0
1, 22200, Note_on_c, 0, 63, 0
1, 22201, Note_on_c, 0, 58, 0
1, 22204, Note_on_c, 0, 67, 0
1, 22211, Note_on_c, 0, 69, 76
1, 22213, Note_on_c, 0, 65, 68
1, 22231, Note_on_c, 0, 65, 0
1, 22233, Note_on_c, 0, 69, 0
1, 22245, Note_on_c, 0, 60, 71
1, 22247, Note_on_c, 0, 50, 53
1, 22247, Note_on_c, 0, 55, 66
1, 22248, Control_c, 0, 64, 0
1, 22275, Control_c, 0, 64, 127
1, 22286, Note_on_c, 0, 50, 0
1, 22288, Note_on_c, 0, 60, 0
1, 22290, Note_on_c, 0, 55, 0
1, 22312, Note_on_c, 0, 51, 61
1, 22312, Note_on_c, 0, 70, 77
1, 22313, Note_on_c, 0, 61, 67
1, 22313, Control_c, 0, 64, 0
1, 22314, Note_on_c, 0, 66, 74
1, 22317, Note_on_c, 0, 56, 45
1, 22341, Control_c, 0, 64, 127
1, 22350, Note_on_c, 0, 66, 0
1, 22353, Note_on_c, 0, 51, 0
1, 22355, Note_on_c, 0, 56, 0
1, 22356, Note_on_c, 0, 61, 0
1, 22359, Note_on_c, 0, 70, 0
1, 22383, Note_on_c, 0, 67, 68
1, 22384, Note_on_c, 0, 63, 57
1, 22384, Note_on_c, 0, 62, 72
1, 22385, Note_on_c, 0, 69, 72
1, 22389, Control_c, 0, 64, 0
1, 22417, Control_c, 0, 64, 127
1, 22435, Note_on_c, 0, 63, 0
1, 22437, Note_on_c, 0, 67, 0
1, 22443, Note_on_c, 0, 69, 0
1, 22451, Note_on_c, 0, 62, 0
1, 22454, Note_on_c, 0, 63, 60
1, 22454, Note_on_c, 0, 72, 61
1, 22455, Note_on_c, 0, 67, 41
1, 22457, Note_on_c, 0, 60, 55
1, 22458, Note_on_c, 0, 69, 50
1, 22472, Note_on_c, 0, 60, 0
1, 22478, Note_on_c, 0, 67, 0
1, 22478, Note_on_c, 0, 69, 0
1, 22480, Note_on_c, 0, 63, 0
1, 22500, Note_on_c, 0, 72, 0
1, 22519, Control_c, 0, 64, 0
1, 22520, Note_on_c, 0, 74, 40
1, 22522, Note_on_c, 0, 66, 48
1, 22523, Note_on_c, 0, 62, 50
1, 22524, Note_on_c, 0, 57, 52
1, 22524, Note_on_c, 0, 69, 47
1, 22543, Control_c, 0, 64, 127
1, 22547, Note_on_c, 0, 57, 0
1, 22547, Note_on_c, 0, 74, 0
1, 22549, Note_on_c, 0, 69, 0
1, 22557, Note_on_c, 0, 66, 0
1, 22562, Note_on_c, 0, 62, 0
1, 22593, Note_on_c, 0, 69, 65
1, 22595, Note_on_c, 0, 62, 64
1, 22596, Note_on_c, 0, 66, 49
1, 22598, Note_on_c, 0, 57, 33
1, 22599, Note_on_c, 0, 54, 37
1, 22607, Control_c, 0, 64, 0
1, 22618, Note_on_c, 0, 57, 0
1, 22635, Note_on_c, 0, 62, 0
1, 22636, Note_on_c, 0, 69, 0
1, 22636, Control_c, 0, 64, 127
1, 22638, Note_on_c, 0, 57, 27
1, 22642, Note_on_c, 0, 66, 0
1, 22644, Note_on_c, 0, 50, 17
1, 22670, Note_on_c, 0, 57, 0
1, 22688, Note_on_c, 0, 50, 0
1, 22705, Note_on_c, 0, 54, 0
1, 22708, Note_on_c, 0, 44, 32
1, 22722, Note_on_c, 0, 44, 0
1, 22737, Control_c, 0, 64, 0
1, 22741, Note_on_c, 0, 57, 40
1, 22743, Note_on_c, 0, 62, 35
1, 22744, Note_on_c, 0, 43, 36
1, 22745, Note_on_c, 0, 59, 33
1, 22746, Note_on_c, 0, 54, 25
1, 22747, Note_on_c, 0, 57, 0
1, 22751, Control_c, 0, 64, 127
1, 22752, Note_on_c, 0, 59, 0
1, 22758, Note_on_c, 0, 62, 0
1, 22764, Note_on_c, 0, 43, 0
1, 22779, Note_on_c, 0, 54, 0
1, 22849, Note_on_c, 0, 62, 51
1, 22853, Note_on_c, 0, 81, 88
1, 22853, Note_on_c, 0, 66, 39
1, 22854, Control_c, 0, 64, 0
1, 22858, Note_on_c, 0, 66, 0
1, 22860, Note_on_c, 0, 62, 0
1, 22871, Note_on_c, 0, 81, 0
1, 22888, Note_on_c, 0, 78, 52
1, 22902, Note_on_c, 0, 78, 0
1, 22928, Note_on_c, 0, 71, 34
1, 22936, Control_c, 0, 64, 127
1, 22955, Note_on_c, 0, 71, 0
1, 22961, Note_on_c, 0, 62, 49
1, 22965, Control_c, 0, 64, 0
1, 22967, Note_on_c, 0, 62, 0
1, 22996, Note_on_c, 0, 66, 57
1, 23018, Note_on_c, 0, 66, 0
1, 23030, Control_c, 0, 64, 127
1, 23032, Note_on_c, 0, 62, 24
1, 23047, Note_on_c, 0, 62, 0
1, 23064, Note_on_c, 0, 62, 50
1, 23065, Note_on_c, 0, 54, 27
1, 23069, Control_c, 0, 64, 0
1, 23090, Note_on_c, 0, 54, 0
1, 23096, Note_on_c, 0, 62, 0
1, 23105, Note_on_c, 0, 59, 44
1, 23124, Note_on_c, 0, 59, 0
1, 23125, Control_c, 0, 64, 127
1, 23139, Note_on_c, 0, 54, 64
1, 23160, Control_c, 0, 64, 0
1, 23205, Note_on_c, 0, 54, 0
1, 23208, Note_on_c, 0, 50, 35
1, 23226, Note_on_c, 0, 50, 0
1, 23246, Note_on_c, 0, 52, 30
1, 23258, Control_c, 0, 64, 127
1, 23279, Note_on_c, 0, 54, 65
1, 23284, Note_on_c, 0, 52, 0
1, 23285, Note_on_c, 0, 50, 27
1, 23285, Control_c, 0, 64, 0
1, 23312, Control_c, 0, 64, 127
1, 23316, Note_on_c, 0, 54, 0
1, 23351, Note_on_c, 0, 43, 38
1, 23359, Note_on_c, 0, 50, 0
1, 23388, Note_on_c, 0, 66, 48
1, 23392, Note_on_c, 0, 57, 42
1, 23393, Control_c, 0, 64, 0
1, 23395, Note_on_c, 0, 59, 31
1, 23408, Note_on_c, 0, 54, 5
1, 23425, Control_c, 0, 64, 127
1, 23436, Note_on_c, 0, 59, 0
1, 23437, Note_on_c, 0, 57, 0
1, 23439, Note_on_c, 0, 66, 0
1, 23451, Note_on_c, 0, 54, 0
1, 23464, Note_on_c, 0, 57, 46
1, 23464, Note_on_c, 0, 67, 52
1, 23466, Note_on_c, 0, 59, 43
1, 23497, Note_on_c, 0, 54, 31
1, 23525, Note_on_c, 0, 54, 0
1, 23525, Note_on_c, 0, 43, 0
1, 23527, Note_on_c, 0, 57, 0
1, 23527, Note_on_c, 0, 59, 0
1, 23546, Note_on_c, 0, 67, 0
1, 23568, Note_on_c, 0, 43, 35
1, 23575, Note_on_c, 0, 43, 0
1, 23609, Control_c, 0, 64, 0
1, 23611, Note_on_c, 0, 56, 38
1, 23612, Note_on_c, 0, 46, 34
1, 23614, Note_on_c, 0, 65, 43
1, 23614, Note_on_c, 0, 73, 42
1, 23619, Note_on_c, 0, 61, 18
1, 23635, Control_c, 0, 64, 127
1, 23649, Note_on_c, 0, 46, 0
1, 23655, Note_on_c, 0, 56, 0
1, 23674, Note_on_c, 0, 65, 0
1, 23684, Note_on_c, 0, 61, 0
1, 23691, Note_on_c, 0, 60, 103
1, 23699, Note_on_c, 0, 55, 28
1, 23704, Note_on_c, 0, 55, 0
1, 23715, Control_c, 0, 64, 0
1, 23728, Note_on_c, 0, 61, 61
1, 23732, Note_on_c, 0, 65, 63
1, 23733, Note_on_c, 0, 58, 74
1, 23738, Note_on_c, 0, 60, 0
1, 23755, Control_c, 0, 64, 127
1, 23801, Note_on_c, 0, 65, 0
1, 23805, Note_on_c, 0, 61, 0
1, 23842, Note_on_c, 0, 61, 47
1, 23843, Control_c, 0, 64, 0
1, 23844, Note_on_c, 0, 58, 0
1, 23844, Note_on_c, 0, 65, 54
1, 23845, Note_on_c, 0, 57, 47
1, 23876, Control_c, 0, 64, 127
1, 23907, Note_on_c, 0, 65, 0
1, 23915, Note_on_c, 0, 61, 0
1, 23950, Control_c, 0, 64, 0
1, 23952, Note_on_c, 0, 61, 35
1, 23954, Note_on_c, 0, 65, 54
1, 23967, Control_c, 0, 64, 127
1, 24005, Note_on_c, 0, 65, 0
1, 24014, Note_on_c, 0, 61, 0
1, 24025, Note_on_c, 0, 57, 0
1, 24029, Note_on_c, 0, 56, 40
1, 24055, Note_on_c, 0, 73, 0
1, 24056, Note_on_c, 0, 56, 0
1, 24058, Control_c, 0, 64, 0
1, 24066, Note_on_c, 0, 67, 53
1, 24066, Note_on_c, 0, 55, 54
1, 24070, Note_on_c, 0, 61, 27
1, 24083, Note_on_c, 0, 55, 0
1, 24090, Note_on_c, 0, 67, 0
1, 24096, Note_on_c, 0, 61, 0
1, 24128, Control_c, 0, 64, 127
1, 24139, Note_on_c, 0, 39, 38
1, 24158, Note_on_c, 0, 39, 0
1, 24173, Note_on_c, 0, 51, 53
1, 24176, Note_on_c, 0, 63, 37
1, 24177, Note_on_c, 0, 55, 38
1, 24179, Note_on_c, 0, 61, 36
1, 24179, Note_on_c, 0, 59, 37
1, 24184, Control_c, 0, 64, 0
1, 24218, Control_c, 0, 64, 127
1, 24249, Note_on_c, 0, 55, 0
1, 24253, Note_on_c, 0, 59, 0
1, 24260, Note_on_c, 0, 61, 0
1, 24267, Note_on_c, 0, 46, 25
1, 24288, Note_on_c, 0, 61, 37
1, 24288, Note_on_c, 0, 55, 50
1, 24289, Note_on_c, 0, 46, 0
1, 24292, Note_on_c, 0, 59, 37
1, 24333, Note_on_c, 0, 55, 0
1, 24337, Note_on_c, 0, 59, 0
1, 24342, Note_on_c, 0, 61, 0
1, 24352, Note_on_c, 0, 63, 0
1, 24358, Note_on_c, 0, 46, 44
1, 24363, Note_on_c, 0, 51, 0
1, 24372, Note_on_c, 0, 46, 0
1, 24390, Note_on_c, 0, 46, 44
1, 24392, Control_c, 0, 64, 0
1, 24393, Note_on_c, 0, 58, 51
1, 24393, Note_on_c, 0, 61, 53
1, 24398, Note_on_c, 0, 67, 22
1, 24398, Note_on_c, 0, 64, 34
1, 24407, Note_on_c, 0, 67, 0
1, 24407, Control_c, 0, 64, 127
1, 24417, Note_on_c, 0, 64, 0
1, 24418, Note_on_c, 0, 58, 0
1, 24427, Note_on_c, 0, 61, 0
1, 24439, Note_on_c, 0, 46, 0
1, 24463, Note_on_c, 0, 57, 39
1, 24464, Control_c, 0, 64, 0
1, 24464, Note_on_c, 0, 67, 36
1, 24468, Note_on_c, 0, 45, 38
1, 24468, Note_on_c, 0, 55, 49
1, 24469, Note_on_c, 0, 57, 0
1, 24470, Note_on_c, 0, 64, 25
1, 24472, Note_on_c, 0, 52, 26
1, 24472, Note_on_c, 0, 65, 31
1, 24477, Note_on_c, 0, 64, 0
1, 24478, Note_on_c, 0, 65, 0
1, 24480, Note_on_c, 0, 67, 0
1, 24482, Note_on_c, 0, 45, 0
1, 24485, Note_on_c, 0, 55, 0
1, 24492, Note_on_c, 0, 52, 0
1, 24528, Note_on_c, 0, 75, 69
1, 24528, Note_on_c, 0, 79, 74
1, 24528, Note_on_c, 0, 67, 62
1, 24547, Note_on_c, 0, 75, 0
1, 24551, Note_on_c, 0, 76, 35
1, 24561, Control_c, 0, 64, 127
1, 24564, Note_on_c, 0, 67, 0
1, 24570, Note_on_c, 0, 76, 0
1, 24572, Note_on_c, 0, 79, 0
1, 24593, Control_c, 0, 64, 0
1, 24603, Note_on_c, 0, 55, 41
1, 24603, Note_on_c, 0, 79, 74
1, 24604, Note_on_c, 0, 67, 67
1, 24605, Note_on_c, 0, 64, 48
1, 24607, Note_on_c, 0, 57, 34
1, 24609, Note_on_c, 0, 60, 32
1, 24611, Note_on_c, 0, 64, 0
1, 24616, Note_on_c, 0, 60, 0
1, 24618, Note_on_c, 0, 55, 0
1, 24623, Note_on_c, 0, 57, 0
1, 24626, Note_on_c, 0, 67, 0
1, 24632, Note_on_c, 0, 79, 0
1, 24638, Note_on_c, 0, 76, 36
1, 24660, Note_on_c, 0, 76, 0
1, 24677, Note_on_c, 0, 79, 67
1, 24677, Note_on_c, 0, 67, 63
1, 24680, Note_on_c, 0, 76, 27
1, 24690, Note_on_c, 0, 76, 0
1, 24690, Note_on_c, 0, 67, 0
1, 24696, Note_on_c, 0, 79, 0
1, 24742, Note_on_c, 0, 52, 79
1, 24775, Note_on_c, 0, 52, 0
1, 24811, Note_on_c, 0, 51, 69
1, 24844, Note_on_c, 0, 39, 54
1, 24850, Control_c, 0, 64, 127
1, 24854, Note_on_c, 0, 51, 0
1, 24861, Note_on_c, 0, 39, 0
1, 24869, Control_c, 0, 64, 0
1, 24885, Note_on_c, 0, 38, 56
1, 24887, Note_on_c, 0, 50, 46
1, 24898, Note_on_c, 0, 38, 0
1, 24909, Note_on_c, 0, 50, 0
1, 24965, Control_c, 0, 64, 127
1, 24991, Note_on_c, 0, 78, 54
1, 24993, Note_on_c, 0, 66, 49
1, 24997, Note_on_c, 0, 74, 38
1, 24998, Note_on_c, 0, 72, 40
1, 25012, Control_c, 0, 64, 0
1, 25018, Note_on_c, 0, 62, 47
1, 25022, Note_on_c, 0, 54, 35
1, 25022, Note_on_c, 0, 60, 32
1, 25026, Note_on_c, 0, 62, 0
1, 25028, Note_on_c, 0, 60, 0
1, 25038, Note_on_c, 0, 54, 0
1, 25050, Control_c, 0, 64, 127
1, 25081, Note_on_c, 0, 72, 0
1, 25087, Note_on_c, 0, 74, 0
1, 25111, Note_on_c, 0, 66, 0
1, 25114, Note_on_c, 0, 78, 0
1, 25127, Control_c, 0, 64, 0
1, 25129, Note_on_c, 0, 54, 38
1, 25129, Note_on_c, 0, 67, 53
1, 25129, Note_on_c, 0, 79, 53
1, 25131, Note_on_c, 0, 45, 37
1, 25150, Control_c, 0, 64, 127
1, 25157, Note_on_c, 0, 45, 0
1, 25171, Note_on_c, 0, 54, 0
1, 25202, Note_on_c, 0, 79, 0
1, 25202, Note_on_c, 0, 67, 0
1, 25237, Note_on_c, 0, 54, 40
1, 25238, Note_on_c, 0, 60, 44
1, 25238, Note_on_c, 0, 62, 34
1, 25244, Note_on_c, 0, 62, 0
1, 25244, Note_on_c, 0, 60, 0
1, 25246, Control_c, 0, 64, 0
1, 25256, Control_c, 0, 64, 127
1, 25257, Note_on_c, 0, 54, 0
1, 25308, Note_on_c, 0, 49, 49
1, 25323, Note_on_c, 0, 49, 0
1, 25337, Control_c, 0, 64, 0
1, 25344, Note_on_c, 0, 42, 61
1, 25345, Note_on_c, 0, 81, 60
1, 25345, Note_on_c, 0, 69, 62
1, 25346, Note_on_c, 0, 52, 57
1, 25347, Note_on_c, 0, 73, 38
1, 25347, Note_on_c, 0, 76, 37
1, 25356, Note_on_c, 0, 52, 0
1, 25361, Control_c, 0, 64, 127
1, 25368, Note_on_c, 0, 42, 0
1, 25393, Note_on_c, 0, 76, 0
1, 25399, Note_on_c, 0, 73, 0
1, 25403, Note_on_c, 0, 69, 0
1, 25410, Note_on_c, 0, 81, 0
1, 25421, Note_on_c, 0, 76, 46
1, 25437, Note_on_c, 0, 76, 0
1, 25456, Note_on_c, 0, 64, 50
1, 25456, Control_c, 0, 64, 0
1, 25457, Note_on_c, 0, 60, 53
1, 25458, Note_on_c, 0, 81, 68
1, 25460, Note_on_c, 0, 76, 34
1, 25460, Note_on_c, 0, 69, 71
1, 25462, Note_on_c, 0, 54, 25
1, 25464, Note_on_c, 0, 64, 0
1, 25468, Note_on_c, 0, 60, 0
1, 25472, Note_on_c, 0, 69, 0
1, 25472, Note_on_c, 0, 81, 0
1, 25474, Note_on_c, 0, 76, 0
1, 25479, Note_on_c, 0, 54, 0
1, 25491, Note_on_c, 0, 81, 58
1, 25495, Control_c, 0, 64, 127
1, 25498, Note_on_c, 0, 69, 28
1, 25504, Note_on_c, 0, 69, 0
1, 25510, Note_on_c, 0, 81, 0
1, 25531, Note_on_c, 0, 77, 17
1, 25538, Note_on_c, 0, 77, 0
1, 25559, Control_c, 0, 64, 0
1, 25563, Note_on_c, 0, 81, 58
1, 25565, Note_on_c, 0, 47, 30
1, 25565, Note_on_c, 0, 57, 32
1, 25565, Note_on_c, 0, 77, 44
1, 25565, Note_on_c, 0, 69, 53
1, 25566, Note_on_c, 0, 51, 34
1, 25580, Control_c, 0, 64, 127
1, 25600, Note_on_c, 0, 47, 0
1, 25601, Note_on_c, 0, 51, 0
1, 25610, Note_on_c, 0, 57, 0
1, 25664, Note_on_c, 0, 77, 0
1, 25670, Note_on_c, 0, 51, 39
1, 25671, Note_on_c, 0, 62, 38
1, 25673, Note_on_c, 0, 57, 44
1, 25688, Note_on_c, 0, 57, 0
1, 25688, Note_on_c, 0, 69, 0
1, 25697, Note_on_c, 0, 51, 0
1, 25706, Note_on_c, 0, 62, 0
1, 25720, Note_on_c, 0, 81, 0
1, 25740, Note_on_c, 0, 78, 63
1, 25758, Note_on_c, 0, 78, 0
1, 25780, Control_c, 0, 64, 0
1, 25781, Note_on_c, 0, 62, 52
1, 25783, Note_on_c, 0, 59, 33
1, 25784, Note_on_c, 0, 74, 62
1, 25784, Note_on_c, 0, 79, 58
1, 25784, Note_on_c, 0, 67, 58
1, 25786, Note_on_c, 0, 62, 0
1, 25788, Note_on_c, 0, 52, 24
1, 25789, Note_on_c, 0, 79, 0
1, 25790, Note_on_c, 0, 67, 0
1, 25790, Note_on_c, 0, 59, 0
1, 25790, Note_on_c, 0, 74, 0
1, 25796, Note_on_c, 0, 52, 0
1, 25814, Control_c, 0, 64, 127
1, 25850, Note_on_c, 0, 67, 55
1, 25853, Note_on_c, 0, 62, 63
1, 25853, Note_on_c, 0, 59, 64
1, 25854, Note_on_c, 0, 53, 43
1, 25855, Note_on_c, 0, 52, 39
1, 25859, Note_on_c, 0, 53, 0
1, 25875, Note_on_c, 0, 67, 0
1, 25887, Note_on_c, 0, 62, 0
1, 25888, Note_on_c, 0, 59, 0
1, 25895, Note_on_c, 0, 52, 0
1, 25898, Note_on_c, 0, 54, 62
1, 25898, Note_on_c, 0, 69, 71
1, 25898, Note_on_c, 0, 62, 70
1, 25899, Note_on_c, 0, 59, 59
1, 25899, Control_c, 0, 64, 0
1, 25938, Note_on_c, 0, 69, 0
1, 25946, Note_on_c, 0, 54, 0
1, 25947, Note_on_c, 0, 62, 0
1, 25947, Note_on_c, 0, 59, 0
1, 25954, Control_c, 0, 64, 127
1, 25964, Note_on_c, 0, 54, 62
1, 25966, Note_on_c, 0, 59, 50
1, 25966, Note_on_c, 0, 69, 70
1, 25966, Note_on_c, 0, 62, 68
1, 25977, Note_on_c, 0, 59, 0
1, 25985, Note_on_c, 0, 62, 0
1, 25988, Note_on_c, 0, 69, 0
1, 26000, Control_c, 0, 64, 0
1, 26008, Note_on_c, 0, 54, 0
1, 26008, Note_on_c, 0, 71, 60
1, 26009, Note_on_c, 0, 64, 63
1, 26009, Note_on_c, 0, 55, 66
1, 26010, Note_on_c, 0, 62, 48
1, 26013, Note_on_c, 0, 67, 43
1, 26016, Note_on_c, 0, 62, 0
1, 26019, Control_c, 0, 64, 127
1, 26025, Note_on_c, 0, 64, 0
1, 26029, Note_on_c, 0, 67, 0
1, 26031, Note_on_c, 0, 71, 0
1, 26068, Note_on_c, 0, 55, 0
1, 26076, Note_on_c, 0, 74, 77
1, 26076, Note_on_c, 0, 59, 76
1, 26076, Note_on_c, 0, 71, 74
1, 26077, Note_on_c, 0, 67, 76
1, 26077, Note_on_c, 0, 64, 84
1, 26077, Control_c, 0, 64, 0
1, 26098, Control_c, 0, 64, 127
1, 26117, Note_on_c, 0, 64, 0
1, 26117, Note_on_c, 0, 59, 0
1, 26129, Note_on_c, 0, 67, 0
1, 26134, Note_on_c, 0, 71, 0
1, 26138, Note_on_c, 0, 74, 0
1, 26234, Note_on_c, 0, 60, 53
1, 26235, Note_on_c, 0, 88, 79
1, 26235, Note_on_c, 0, 76, 71
1, 26235, Note_on_c, 0, 65, 67
1, 26235, Note_on_c, 0, 84, 69
1, 26236, Note_on_c, 0, 55, 60
1, 26236, Note_on_c, 0, 61, 46
1, 26240, Note_on_c, 0, 58, 36
1, 26243, Control_c, 0, 64, 0
1, 26248, Control_c, 0, 64, 127
1, 26254, Note_on_c, 0, 55, 0
1, 26259, Note_on_c, 0, 65, 0
1, 26261, Note_on_c, 0, 60, 0
1, 26262, Note_on_c, 0, 58, 0
1, 26262, Note_on_c, 0, 76, 0
1, 26269, Note_on_c, 0, 84, 0
1, 26271, Note_on_c, 0, 88, 0
1, 26272, Note_on_c, 0, 61, 0
1, 26277, Control_c, 0, 64, 0
1, 26305, Control_c, 0, 64, 127
1, 26306, Note_on_c, 0, 56, 67
1, 26307, Note_on_c, 0, 66, 69
1, 26309, Note_on_c, 0, 89, 77
1, 26310, Note_on_c, 0, 62, 31
1, 26310, Note_on_c, 0, 84, 74
1, 26311, Note_on_c, 0, 77, 60
1, 26324, Note_on_c, 0, 62, 0
1, 26330, Note_on_c, 0, 84, 0
1, 26330, Note_on_c, 0, 89, 0
1, 26334, Note_on_c, 0, 66, 0
1, 26336, Note_on_c, 0, 77, 0
1, 26347, Control_c, 0, 64, 0
1, 26352, Note_on_c, 0, 56, 0
1, 26355, Note_on_c, 0, 65, 62
1, 26356, Note_on_c, 0, 88, 64
1, 26357, Note_on_c, 0, 61, 50
1, 26357, Note_on_c, 0, 55, 55
1, 26357, Note_on_c, 0, 83, 61
1, 26357, Note_on_c, 0, 76, 43
1, 26374, Control_c, 0, 64, 127
1, 26400, Note_on_c, 0, 88, 0
1, 26406, Note_on_c, 0, 65, 0
1, 26408, Note_on_c, 0, 83, 0
1, 26408, Note_on_c, 0, 55, 0
1, 26415, Note_on_c, 0, 76, 0
1, 26415, Note_on_c, 0, 61, 0
1, 26432, Note_on_c, 0, 61, 53
1, 26432, Note_on_c, 0, 65, 71
1, 26434, Note_on_c, 0, 55, 58
1, 26443, Note_on_c, 0, 65, 0
1, 26459, Note_on_c, 0, 61, 0
1, 26461, Note_on_c, 0, 55, 0
1, 26513, Note_on_c, 0, 62, 37
1, 26514, Note_on_c, 0, 63, 71
1, 26520, Note_on_c, 0, 62, 0
1, 26520, Note_on_c, 0, 64, 65
1, 26522, Note_on_c, 0, 63, 0
1, 26530, Control_c, 0, 64, 0
1, 26541, Note_on_c, 0, 64, 0
1, 26552, Note_on_c, 0, 67, 81
1, 26571, Note_on_c, 0, 67, 0
1, 26588, Note_on_c, 0, 69, 89
1, 26614, Note_on_c, 0, 69, 0
1, 26626, Note_on_c, 0, 67, 37
1, 26632, Note_on_c, 0, 67, 0
1, 26660, Note_on_c, 0, 74, 79
1, 26661, Note_on_c, 0, 67, 77
1, 26665, Note_on_c, 0, 62, 64
1, 26665, Note_on_c, 0, 64, 52
1, 26688, Note_on_c, 0, 62, 0
1, 26691, Note_on_c, 0, 64, 0
1, 26694, Note_on_c, 0, 67, 0
1, 26696, Note_on_c, 0, 74, 0
1, 26715, Note_on_c, 0, 50, 60
1, 26716, Note_on_c, 0, 49, 50
1, 26726, Note_on_c, 0, 49, 0
1, 26792, Note_on_c, 0, 38, 48
1, 26806, Note_on_c, 0, 38, 0
1, 26866, Note_on_c, 0, 38, 44
1, 26879, Note_on_c, 0, 38, 0
1, 26900, Note_on_c, 0, 50, 0
1, 26906, Note_on_c, 0, 66, 42
1, 26906, Note_on_c, 0, 63, 38
1, 26908, Note_on_c, 0, 60, 40
1, 26910, Note_on_c, 0, 71, 30
1, 26974, Note_on_c, 0, 71, 0
1, 26975, Note_on_c, 0, 50, 64
1, 26979, Note_on_c, 0, 49, 40
1, 26981, Note_on_c, 0, 60, 0
1, 26984, Note_on_c, 0, 49, 0
1, 26984, Note_on_c, 0, 66, 0
1, 26989, Note_on_c, 0, 63, 0
1, 27016, Note_on_c, 0, 62, 60
1, 27034, Note_on_c, 0, 63, 46
1, 27040, Note_on_c, 0, 63, 0
1, 27041, Note_on_c, 0, 62, 0
1, 27047, Note_on_c, 0, 64, 32
1, 27065, Note_on_c, 0, 64, 0
1, 27096, Note_on_c, 0, 67, 91
1, 27151, Note_on_c, 0, 67, 0
1, 27174, Note_on_c, 0, 67, 75
1, 27208, Note_on_c, 0, 67, 0
1, 27213, Note_on_c, 0, 64, 34
1, 27237, Note_on_c, 0, 64, 0
1, 27248, Note_on_c, 0, 67, 55
1, 27249, Note_on_c, 0, 50, 0
1, 27249, Note_on_c, 0, 59, 52
1, 27251, Note_on_c, 0, 62, 43
1, 27260, Note_on_c, 0, 62, 0
1, 27296, Note_on_c, 0, 59, 0
1, 27308, Note_on_c, 0, 67, 0
1, 27321, Note_on_c, 0, 64, 35
1, 27346, Note_on_c, 0, 64, 0
1, 27357, Note_on_c, 0, 67, 43
1, 27358, Note_on_c, 0, 59, 53
1, 27360, Note_on_c, 0, 62, 44
1, 27365, Note_on_c, 0, 50, 27
1, 27374, Control_c, 0, 64, 127
1, 27407, Note_on_c, 0, 50, 0
1, 27408, Note_on_c, 0, 67, 0
1, 27411, Note_on_c, 0, 62, 0
1, 27416, Note_on_c, 0, 59, 0
1, 27443, Note_on_c, 0, 50, 30
1, 27455, Note_on_c, 0, 50, 0
1, 27456, Control_c, 0, 64, 0
1, 27464, Control_c, 0, 64, 127
1, 27472, Note_on_c, 0, 58, 43
1, 27473, Note_on_c, 0, 61, 49
1, 27474, Note_on_c, 0, 44, 33
1, 27474, Note_on_c, 0, 66, 37
1, 27478, Note_on_c, 0, 54, 21
1, 27478, Note_on_c, 0, 63, 29
1, 27506, Note_on_c, 0, 54, 0
1, 27508, Note_on_c, 0, 66, 0
1, 27508, Note_on_c, 0, 61, 0
1, 27509, Note_on_c, 0, 58, 0
1, 27514, Note_on_c, 0, 63, 0
1, 27516, Note_on_c, 0, 44, 0
1, 27541, Control_c, 0, 64, 0
1, 27544, Note_on_c, 0, 57, 35
1, 27544, Note_on_c, 0, 60, 51
1, 27544, Note_on_c, 0, 65, 53
1, 27546, Note_on_c, 0, 43, 42
1, 27548, Note_on_c, 0, 53, 36
1, 27550, Note_on_c, 0, 57, 0
1, 27560, Note_on_c, 0, 60, 0
1, 27567, Note_on_c, 0, 65, 0
1, 27595, Note_on_c, 0, 69, 74
1, 27601, Note_on_c, 0, 43, 0
1, 27610, Note_on_c, 0, 69, 0
1, 27614, Note_on_c, 0, 53, 0
1, 27627, Note_on_c, 0, 72, 74
1, 27640, Note_on_c, 0, 72, 0
1, 27660, Note_on_c, 0, 76, 91
1, 27680, Note_on_c, 0, 76, 0
1, 27693, Note_on_c, 0, 79, 92
1, 27716, Note_on_c, 0, 79, 0
1, 27727, Note_on_c, 0, 77, 70
1, 27746, Note_on_c, 0, 77, 0
1, 27761, Note_on_c, 0, 73, 68
1, 27783, Note_on_c, 0, 73, 0
1, 27795, Note_on_c, 0, 76, 74
1, 27816, Note_on_c, 0, 76, 0
1, 27830, Note_on_c, 0, 64, 38
1, 27830, Note_on_c, 0, 74, 60
1, 27834, Note_on_c, 0, 59, 34
1, 27838, Note_on_c, 0, 53, 20
1, 27848, Note_on_c, 0, 64, 0
1, 27849, Note_on_c, 0, 59, 0
1, 27857, Note_on_c, 0, 74, 0
1, 27861, Note_on_c, 0, 53, 0
1, 27868, Note_on_c, 0, 69, 37
1, 27882, Note_on_c, 0, 69, 0
1, 27892, Control_c, 0, 64, 127
1, 27903, Note_on_c, 0, 72, 72
1, 27925, Note_on_c, 0, 72, 0
1, 27940, Note_on_c, 0, 71, 66
1, 27943, Note_on_c, 0, 53, 17
1, 27951, Note_on_c, 0, 53, 0
1, 27967, Note_on_c, 0, 71, 0
1, 27975, Note_on_c, 0, 72, 38
1, 27993, Note_on_c, 0, 72, 0
1, 27997, Note_on_c, 0, 71, 34
1, 28019, Note_on_c, 0, 71, 0
1, 28024, Note_on_c, 0, 69, 42
1, 28033, Note_on_c, 0, 69, 0
1, 28047, Note_on_c, 0, 43, 26
1, 28047, Note_on_c, 0, 36, 36
1, 28049, Control_c, 0, 64, 0
1, 28051, Note_on_c, 0, 71, 39
1, 28076, Note_on_c, 0, 36, 0
1, 28082, Note_on_c, 0, 43, 0
1, 28084, Note_on_c, 0, 52, 1
1, 28088, Control_c, 0, 64, 127
1, 28097, Note_on_c, 0, 52, 0
1, 28114, Note_on_c, 0, 71, 0
1, 28117, Note_on_c, 0, 67, 53
1, 28139, Note_on_c, 0, 67, 0
1, 28158, Note_on_c, 0, 64, 48
1, 28159, Note_on_c, 0, 57, 31
1, 28160, Control_c, 0, 64, 0
1, 28166, Note_on_c, 0, 57, 0
1, 28203, Control_c, 0, 64, 127
1, 28231, Note_on_c, 0, 64, 0
1, 28231, Note_on_c, 0, 59, 38
1, 28269, Note_on_c, 0, 48, 33
1, 28270, Note_on_c, 0, 63, 38
1, 28270, Control_c, 0, 64, 0
1, 28286, Note_on_c, 0, 59, 0
1, 28302, Note_on_c, 0, 48, 0
1, 28302, Note_on_c, 0, 66, 47
1, 28309, Note_on_c, 0, 63, 0
1, 28320, Note_on_c, 0, 66, 0
1, 28338, Note_on_c, 0, 66, 32
1, 28339, Note_on_c, 0, 69, 45
1, 28358, Note_on_c, 0, 69, 0
1, 28384, Note_on_c, 0, 66, 0
1, 28391, Note_on_c, 0, 67, 46
1, 28418, Note_on_c, 0, 64, 39
1, 28440, Note_on_c, 0, 64, 0
1, 28453, Note_on_c, 0, 59, 41
1, 28466, Note_on_c, 0, 59, 0
1, 28488, Note_on_c, 0, 43, 26
1, 28490, Note_on_c, 0, 36, 41
1, 28491, Note_on_c, 0, 52, 24
1, 28504, Note_on_c, 0, 52, 0
1, 28513, Note_on_c, 0, 36, 0
1, 28526, Note_on_c, 0, 43, 0
1, 28531, Note_on_c, 0, 67, 0
1, 28568, Note_on_c, 0, 55, 55
1, 28585, Note_on_c, 0, 55, 0
1, 28607, Note_on_c, 0, 57, 58
1, 28612, Note_on_c, 0, 43, 17
1, 28625, Note_on_c, 0, 43, 0
1, 28668, Note_on_c, 0, 57, 0
1, 28670, Control_c, 0, 64, 127
1, 28682, Note_on_c, 0, 43, 29
1, 28684, Note_on_c, 0, 55, 35
1, 28691, Note_on_c, 0, 55, 0
1, 28696, Note_on_c, 0, 36, 22
1, 28707, Control_c, 0, 64, 0
1, 28719, Note_on_c, 0, 64, 45
1, 28720, Note_on_c, 0, 36, 0
1, 28721, Note_on_c, 0, 52, 40
1, 28722, Note_on_c, 0, 58, 31
1, 28728, Note_on_c, 0, 58, 0
1, 28728, Note_on_c, 0, 43, 0
1, 28734, Note_on_c, 0, 59, 27
1, 28736, Control_c, 0, 64, 127
1, 28745, Note_on_c, 0, 52, 0
1, 28760, Note_on_c, 0, 59, 0
1, 28763, Note_on_c, 0, 64, 0
1, 28834, Note_on_c, 0, 57, 42
1, 28840, Note_on_c, 0, 48, 24
1, 28840, Note_on_c, 0, 69, 49
1, 28841, Note_on_c, 0, 57, 0
1, 28841, Control_c, 0, 64, 0
1, 28846, Note_on_c, 0, 48, 0
1, 28858, Note_on_c, 0, 69, 0
1, 28874, Note_on_c, 0, 71, 29
1, 28883, Control_c, 0, 64, 127
1, 28893, Note_on_c, 0, 71, 0
1, 28909, Note_on_c, 0, 69, 43
1, 28919, Note_on_c, 0, 69, 0
1, 28944, Note_on_c, 0, 58, 40
1, 28947, Note_on_c, 0, 48, 38
1, 28947, Note_on_c, 0, 75, 56
1, 28948, Control_c, 0, 64, 0
1, 28956, Note_on_c, 0, 48, 0
1, 28976, Note_on_c, 0, 58, 0
1, 28984, Note_on_c, 0, 65, 46
1, 28994, Note_on_c, 0, 75, 0
1, 28996, Note_on_c, 0, 65, 0
1, 29007, Control_c, 0, 64, 127
1, 29018, Note_on_c, 0, 70, 55
1, 29048, Note_on_c, 0, 70, 0
1, 29048, Control_c, 0, 64, 0
1, 29049, Note_on_c, 0, 63, 38
1, 29053, Note_on_c, 0, 58, 35
1, 29053, Note_on_c, 0, 75, 67
1, 29057, Note_on_c, 0, 53, 20
1, 29064, Note_on_c, 0, 75, 0
1, 29092, Note_on_c, 0, 82, 48
1, 29103, Note_on_c, 0, 82, 0
1, 29109, Note_on_c, 0, 53, 0
1, 29120, Control_c, 0, 64, 127
1, 29122, Note_on_c, 0, 58, 0
1, 29126, Note_on_c, 0, 87, 87
1, 29132, Note_on_c, 0, 63, 0
1, 29149, Note_on_c, 0, 87, 0
1, 29161, Note_on_c, 0, 89, 81
1, 29161, Note_on_c, 0, 65, 53
1, 29162, Control_c, 0, 64, 0
1, 29168, Note_on_c, 0, 60, 36
1, 29171, Note_on_c, 0, 65, 0
1, 29171, Note_on_c, 0, 55, 24
1, 29175, Note_on_c, 0, 60, 0
1, 29178, Note_on_c, 0, 55, 0
1, 29184, Note_on_c, 0, 89, 0
1, 29196, Note_on_c, 0, 84, 58
1, 29207, Note_on_c, 0, 84, 0
1, 29250, Control_c, 0, 64, 127
1, 29265, Control_c, 0, 64, 0
1, 29275, Note_on_c, 0, 63, 56
1, 29282, Note_on_c, 0, 53, 28
1, 29283, Note_on_c, 0, 58, 31
1, 29303, Note_on_c, 0, 53, 0
1, 29315, Note_on_c, 0, 63, 0
1, 29315, Control_c, 0, 64, 127
1, 29325, Note_on_c, 0, 58, 0
1, 29350, Note_on_c, 0, 62, 62
1, 29352, Note_on_c, 0, 51, 44
1, 29354, Note_on_c, 0, 57, 48
1, 29355, Note_on_c, 0, 62, 0
1, 29360, Note_on_c, 0, 57, 0
1, 29360, Control_c, 0, 64, 0
1, 29369, Note_on_c, 0, 51, 0
1, 29390, Note_on_c, 0, 74, 75
1, 29408, Note_on_c, 0, 74, 0
1, 29424, Note_on_c, 0, 41, 50
1, 29430, Note_on_c, 0, 41, 0
1, 29461, Note_on_c, 0, 72, 55
1, 29461, Note_on_c, 0, 66, 59
1, 29462, Note_on_c, 0, 62, 58
1, 29464, Note_on_c, 0, 69, 58
1, 29525, Note_on_c, 0, 72, 0
1, 29526, Note_on_c, 0, 57, 67
1, 29527, Note_on_c, 0, 69, 0
1, 29543, Note_on_c, 0, 66, 0
1, 29559, Note_on_c, 0, 62, 0
1, 29573, Note_on_c, 0, 57, 0
1, 29600, Note_on_c, 0, 69, 57
1, 29602, Note_on_c, 0, 66, 34
1, 29602, Note_on_c, 0, 62, 40
1, 29603, Note_on_c, 0, 57, 30
1, 29613, Note_on_c, 0, 57, 0
1, 29618, Note_on_c, 0, 62, 0
1, 29620, Note_on_c, 0, 69, 0
1, 29623, Note_on_c, 0, 66, 0
1, 29638, Note_on_c, 0, 41, 44
1, 29651, Note_on_c, 0, 41, 0
1, 29675, Note_on_c, 0, 62, 66
1, 29677, Note_on_c, 0, 57, 49
1, 29740, Note_on_c, 0, 54, 51
1, 29751, Note_on_c, 0, 62, 0
1, 29756, Note_on_c, 0, 54, 0
1, 29758, Note_on_c, 0, 57, 0
1, 29768, Control_c, 0, 64, 127
1, 29775, Note_on_c, 0, 51, 48
1, 29799, Note_on_c, 0, 51, 0
1, 29801, Control_c, 0, 64, 0
1, 29814, Note_on_c, 0, 54, 52
1, 29814, Note_on_c, 0, 59, 65
1, 29815, Note_on_c, 0, 57, 64
1, 29816, Note_on_c, 0, 43, 35
1, 29827, Note_on_c, 0, 57, 0
1, 29827, Note_on_c, 0, 54, 0
1, 29833, Note_on_c, 0, 59, 0
1, 29833, Note_on_c, 0, 43, 0
1, 29849, Note_on_c, 0, 59, 31
1, 29861, Note_on_c, 0, 59, 0
1, 29867, Note_on_c, 0, 57, 32
1, 29877, Note_on_c, 0, 57, 0
1, 29880, Note_on_c, 0, 59, 30
1, 29890, Note_on_c, 0, 59, 0
1, 29895, Note_on_c, 0, 57, 37
1, 29896, Control_c, 0, 64, 127
1, 29905, Note_on_c, 0, 57, 0
1, 29911, Note_on_c, 0, 59, 38
1, 29918, Note_on_c, 0, 59, 0
1, 29924, Note_on_c, 0, 57, 37
1, 29931, Note_on_c, 0, 54, 67
1, 29934, Control_c, 0, 64, 0
1, 29936, Note_on_c, 0, 57, 0
1, 29938, Note_on_c, 0, 59, 44
1, 29944, Note_on_c, 0, 59, 0
1, 29951, Note_on_c, 0, 57, 51
1, 29964, Note_on_c, 0, 57, 0
1, 29968, Note_on_c, 0, 59, 32
1, 29974, Note_on_c, 0, 59, 0
1, 29981, Note_on_c, 0, 57, 34
1, 29991, Note_on_c, 0, 57, 0
1, 29993, Control_c, 0, 64, 127
1, 29996, Note_on_c, 0, 59, 29
1, 30003, Note_on_c, 0, 59, 0
1, 30010, Note_on_c, 0, 57, 34
1, 30022, Note_on_c, 0, 57, 0
1, 30025, Note_on_c, 0, 59, 36
1, 30030, Note_on_c, 0, 51, 37
1, 30033, Note_on_c, 0, 59, 0
1, 30038, Note_on_c, 0, 57, 38
1, 30041, Note_on_c, 0, 54, 0
1, 30048, Note_on_c, 0, 51, 0
1, 30049, Note_on_c, 0, 55, 73
1, 30053, Note_on_c, 0, 57, 0
1, 30053, Note_on_c, 0, 59, 53
1, 30054, Control_c, 0, 64, 0
1, 30061, Note_on_c, 0, 59, 0
1, 30068, Note_on_c, 0, 57, 34
1, 30080, Note_on_c, 0, 57, 0
1, 30084, Note_on_c, 0, 59, 35
1, 30091, Note_on_c, 0, 59, 0
1, 30097, Note_on_c, 0, 57, 32
1, 30109, Note_on_c, 0, 57, 0
1, 30112, Control_c, 0, 64, 127
1, 30116, Note_on_c, 0, 59, 25
1, 30122, Note_on_c, 0, 59, 0
1, 30130, Note_on_c, 0, 57, 38
1, 30136, Note_on_c, 0, 55, 0
1, 30140, Note_on_c, 0, 54, 34
1, 30143, Note_on_c, 0, 57, 0
1, 30147, Note_on_c, 0, 59, 34
1, 30155, Note_on_c, 0, 59, 0
1, 30155, Note_on_c, 0, 54, 0
1, 30160, Note_on_c, 0, 57, 68
1, 30166, Control_c, 0, 64, 0
1, 30167, Note_on_c, 0, 59, 34
1, 30184, Note_on_c, 0, 59, 0
1, 30195, Note_on_c, 0, 57, 0
1, 30197, Note_on_c, 0, 59, 39
1, 30210, Control_c, 0, 64, 127
1, 30213, Note_on_c, 0, 59, 0
1, 30213, Note_on_c, 0, 57, 46
1, 30226, Note_on_c, 0, 57, 0
1, 30233, Note_on_c, 0, 59, 24
1, 30235, Note_on_c, 0, 50, 36
1, 30248, Note_on_c, 0, 59, 0
1, 30259, Note_on_c, 0, 50, 0
1, 30266, Control_c, 0, 64, 0
1, 30267, Note_on_c, 0, 57, 36
1, 30270, Note_on_c, 0, 59, 34
1, 30270, Note_on_c, 0, 43, 49
1, 30271, Note_on_c, 0, 54, 39
1, 30280, Note_on_c, 0, 57, 0
1, 30282, Control_c, 0, 64, 127
1, 30284, Note_on_c, 0, 59, 0
1, 30310, Note_on_c, 0, 43, 0
1, 30313, Note_on_c, 0, 44, 8
1, 30332, Note_on_c, 0, 44, 0
1, 30333, Note_on_c, 0, 54, 0
1, 30344, Note_on_c, 0, 53, 49
1, 30348, Note_on_c, 0, 66, 68
1, 30348, Note_on_c, 0, 62, 76
1, 30349, Note_on_c, 0, 69, 79
1, 30349, Note_on_c, 0, 59, 77
1, 30350, Note_on_c, 0, 53, 0
1, 30351, Note_on_c, 0, 57, 78
1, 30355, Note_on_c, 0, 51, 25
1, 30356, Note_on_c, 0, 55, 38
1, 30361, Note_on_c, 0, 55, 0
1, 30370, Control_c, 0, 64, 0
1, 30379, Note_on_c, 0, 51, 0
1, 30399, Control_c, 0, 64, 127
1, 30474, Note_on_c, 0, 59, 0
1, 30482, Note_on_c, 0, 62, 0
1, 30486, Note_on_c, 0, 66, 0
1, 30489, Note_on_c, 0, 69, 0
1, 30495, Note_on_c, 0, 57, 0
1, 30498, Note_on_c, 0, 55, 38
1, 30500, Note_on_c, 0, 59, 44
1, 30502, Control_c, 0, 64, 0
1, 30504, Note_on_c, 0, 67, 36
1, 30505, Note_on_c, 0, 62, 24
1, 30540, Note_on_c, 0, 62, 0
1, 30540, Control_c, 0, 64, 127
1, 30546, Note_on_c, 0, 59, 0
1, 30552, Note_on_c, 0, 67, 0
1, 30565, Note_on_c, 0, 55, 0
1, 30571, Note_on_c, 0, 57, 51
1, 30573, Note_on_c, 0, 59, 50
1, 30574, Note_on_c, 0, 69, 50
1, 30576, Note_on_c, 0, 62, 49
1, 30576, Note_on_c, 0, 66, 37
1, 30595, Control_c, 0, 64, 0
1, 30597, Note_on_c, 0, 69, 0
1, 30598, Note_on_c, 0, 66, 0
1, 30599, Note_on_c, 0, 62, 0
1, 30602, Note_on_c, 0, 57, 0
1, 30604, Note_on_c, 0, 59, 0
1, 30608, Control_c, 0, 64, 127
1, 30614, Note_on_c, 0, 55, 38
1, 30616, Note_on_c, 0, 67, 33
1, 30622, Note_on_c, 0, 55, 0
1, 30628, Note_on_c, 0, 67, 0
1, 30686, Note_on_c, 0, 46, 47
1, 30723, Control_c, 0, 64, 0
1, 30724, Note_on_c, 0, 56, 46
1, 30725, Note_on_c, 0, 70, 44
1, 30733, Note_on_c, 0, 82, 30
1, 30761, Note_on_c, 0, 46, 0
1, 30762, Note_on_c, 0, 82, 0
1, 30768, Control_c, 0, 64, 127
1, 30769, Note_on_c, 0, 70, 0
1, 30769, Note_on_c, 0, 56, 0
1, 30801, Note_on_c, 0, 70, 58
1, 30802, Note_on_c, 0, 85, 62
1, 30833, Note_on_c, 0, 65, 45
1, 30835, Control_c, 0, 64, 0
1, 30838, Note_on_c, 0, 60, 30
1, 30839, Note_on_c, 0, 65, 0
1, 30843, Note_on_c, 0, 70, 0
1, 30844, Note_on_c, 0, 85, 0
1, 30844, Note_on_c, 0, 60, 0
1, 30912, Note_on_c, 0, 70, 61
1, 30912, Note_on_c, 0, 85, 64
1, 30912, Control_c, 0, 64, 127
1, 30918, Note_on_c, 0, 82, 27
1, 30922, Control_c, 0, 64, 0
1, 30923, Note_on_c, 0, 82, 0
1, 30934, Note_on_c, 0, 70, 0
1, 30935, Note_on_c, 0, 85, 0
1, 30944, Note_on_c, 0, 46, 32
1, 30946, Note_on_c, 0, 56, 26
1, 30960, Note_on_c, 0, 46, 0
1, 30962, Control_c, 0, 64, 127
1, 30967, Note_on_c, 0, 56, 0
1, 31022, Note_on_c, 0, 85, 64
1, 31025, Note_on_c, 0, 70, 45
1, 31038, Note_on_c, 0, 85, 0
1, 31039, Note_on_c, 0, 70, 0
1, 31058, Control_c, 0, 64, 0
1, 31061, Note_on_c, 0, 61, 36
1, 31066, Note_on_c, 0, 56, 15
1, 31073, Note_on_c, 0, 61, 0
1, 31077, Note_on_c, 0, 56, 0
1, 31108, Control_c, 0, 64, 127
1, 31166, Control_c, 0, 64, 0
1, 31170, Note_on_c, 0, 39, 40
1, 31171, Note_on_c, 0, 27, 46
1, 31188, Control_c, 0, 64, 127
1, 31201, Note_on_c, 0, 27, 0
1, 31208, Note_on_c, 0, 39, 0
1, 31270, Note_on_c, 0, 60, 26
1, 31278, Note_on_c, 0, 60, 0
1, 31280, Note_on_c, 0, 58, 42
1, 31282, Note_on_c, 0, 61, 51
1, 31286, Control_c, 0, 64, 0
1, 31290, Note_on_c, 0, 58, 0
1, 31296, Note_on_c, 0, 61, 0
1, 31311, Note_on_c, 0, 64, 60
1, 31318, Note_on_c, 0, 64, 0
1, 31330, Note_on_c, 0, 66, 32
1, 31336, Note_on_c, 0, 66, 0
1, 31345, Note_on_c, 0, 67, 41
1, 31359, Note_on_c, 0, 67, 0
1, 31362, Note_on_c, 0, 69, 46
1, 31371, Note_on_c, 0, 69, 0
1, 31373, Note_on_c, 0, 70, 68
1, 31383, Note_on_c, 0, 70, 0
1, 31384, Note_on_c, 0, 58, 37
1, 31391, Note_on_c, 0, 72, 47
1, 31400, Note_on_c, 0, 72, 0
1, 31400, Note_on_c, 0, 58, 0
1, 31408, Note_on_c, 0, 73, 45
1, 31414, Note_on_c, 0, 73, 0
1, 31424, Note_on_c, 0, 75, 38
1, 31430, Note_on_c, 0, 75, 0
1, 31436, Note_on_c, 0, 76, 49
1, 31445, Note_on_c, 0, 76, 0
1, 31457, Note_on_c, 0, 78, 39
1, 31464, Note_on_c, 0, 78, 0
1, 31471, Control_c, 0, 64, 127
1, 31476, Note_on_c, 0, 79, 35
1, 31490, Note_on_c, 0, 61, 36
1, 31491, Note_on_c, 0, 79, 0
1, 31491, Control_c, 0, 64, 0
1, 31492, Note_on_c, 0, 81, 55
1, 31493, Note_on_c, 0, 51, 32
1, 31496, Note_on_c, 0, 58, 29
1, 31499, Note_on_c, 0, 61, 0
1, 31505, Note_on_c, 0, 58, 0
1, 31508, Note_on_c, 0, 51, 0
1, 31513, Note_on_c, 0, 81, 0
1, 31513, Note_on_c, 0, 82, 42
1, 31533, Note_on_c, 0, 82, 0
1, 31540, Note_on_c, 0, 83, 29
1, 31549, Control_c, 0, 64, 127
1, 31553, Note_on_c, 0, 83, 0
1, 31563, Note_on_c, 0, 86, 80
1, 31583, Note_on_c, 0, 86, 0
1, 31590, Note_on_c, 0, 83, 62
1, 31592, Control_c, 0, 64, 0
1, 31604, Note_on_c, 0, 83, 0
1, 31604, Note_on_c, 0, 45, 35
1, 31610, Note_on_c, 0, 84, 71
1, 31613, Note_on_c, 0, 45, 0
1, 31614, Note_on_c, 0, 55, 17
1, 31621, Note_on_c, 0, 55, 0
1, 31629, Note_on_c, 0, 84, 0
1, 31649, Note_on_c, 0, 82, 59
1, 31661, Note_on_c, 0, 82, 0
1, 31673, Note_on_c, 0, 83, 64
1, 31687, Control_c, 0, 64, 127
1, 31691, Note_on_c, 0, 83, 0
1, 31705, Note_on_c, 0, 79, 62
1, 31717, Note_on_c, 0, 79, 0
1, 31722, Control_c, 0, 64, 0
1, 31728, Note_on_c, 0, 64, 40
1, 31729, Note_on_c, 0, 81, 67
1, 31733, Note_on_c, 0, 60, 32
1, 31734, Note_on_c, 0, 59, 25
1, 31745, Note_on_c, 0, 64, 0
1, 31748, Note_on_c, 0, 60, 0
1, 31749, Note_on_c, 0, 81, 0
1, 31751, Note_on_c, 0, 59, 0
1, 31762, Note_on_c, 0, 76, 36
1, 31770, Note_on_c, 0, 76, 0
1, 31785, Note_on_c, 0, 79, 67
1, 31791, Control_c, 0, 64, 127
1, 31806, Note_on_c, 0, 79, 0
1, 31815, Note_on_c, 0, 74, 44
1, 31827, Note_on_c, 0, 74, 0
1, 31837, Note_on_c, 0, 64, 36
1, 31838, Control_c, 0, 64, 0
1, 31840, Note_on_c, 0, 76, 60
1, 31840, Note_on_c, 0, 57, 35
1, 31843, Note_on_c, 0, 60, 25
1, 31867, Note_on_c, 0, 76, 0
1, 31888, Note_on_c, 0, 57, 0
1, 31899, Note_on_c, 0, 74, 65
1, 31901, Note_on_c, 0, 56, 45
1, 31905, Control_c, 0, 64, 127
1, 31917, Note_on_c, 0, 74, 0
1, 31933, Note_on_c, 0, 69, 36
1, 31934, Note_on_c, 0, 64, 0
1, 31938, Note_on_c, 0, 56, 0
1, 31940, Note_on_c, 0, 69, 0
1, 31944, Note_on_c, 0, 60, 0
1, 31944, Control_c, 0, 64, 0
1, 31953, Note_on_c, 0, 64, 35
1, 31953, Note_on_c, 0, 60, 22
1, 31954, Note_on_c, 0, 72, 64
1, 31958, Note_on_c, 0, 55, 38
1, 31968, Control_c, 0, 64, 127
1, 31978, Note_on_c, 0, 72, 0
1, 31980, Note_on_c, 0, 64, 0
1, 31986, Note_on_c, 0, 55, 0
1, 31988, Note_on_c, 0, 67, 37
1, 31989, Note_on_c, 0, 60, 0
1, 31995, Note_on_c, 0, 67, 0
1, 32009, Note_on_c, 0, 61, 67
1, 32010, Note_on_c, 0, 71, 66
1, 32013, Note_on_c, 0, 51, 42
1, 32018, Note_on_c, 0, 51, 0
1, 32030, Note_on_c, 0, 71, 0
1, 32042, Note_on_c, 0, 72, 51
1, 32044, Note_on_c, 0, 61, 0
1, 32055, Note_on_c, 0, 72, 0
1, 32062, Control_c, 0, 64, 0
1, 32065, Note_on_c, 0, 69, 63
1, 32066, Note_on_c, 0, 54, 48
1, 32067, Note_on_c, 0, 60, 38
1, 32073, Note_on_c, 0, 50, 34
1, 32082, Note_on_c, 0, 60, 0
1, 32087, Control_c, 0, 64, 127
1, 32098, Note_on_c, 0, 54, 0
1, 32100, Note_on_c, 0, 50, 0
1, 32108, Note_on_c, 0, 60, 54
1, 32109, Note_on_c, 0, 69, 0
1, 32120, Note_on_c, 0, 60, 0
1, 32176, Note_on_c, 0, 49, 52
1, 32177, Note_on_c, 0, 66, 43
1, 32178, Note_on_c, 0, 62, 44
1, 32180, Note_on_c, 0, 57, 41
1, 32181, Note_on_c, 0, 50, 52
1, 32193, Note_on_c, 0, 49, 0
1, 32199, Control_c, 0, 64, 0
1, 32224, Note_on_c, 0, 50, 0
1, 32249, Note_on_c, 0, 52, 77
1, 32276, Note_on_c, 0, 52, 0
1, 32290, Note_on_c, 0, 54, 74
1, 32312, Control_c, 0, 64, 127
1, 32341, Note_on_c, 0, 54, 0
1, 32355, Note_on_c, 0, 57, 0
1, 32359, Note_on_c, 0, 62, 0
1, 32361, Note_on_c, 0, 52, 59
1, 32395, Note_on_c, 0, 52, 0
1, 32398, Control_c, 0, 64, 0
1, 32405, Note_on_c, 0, 57, 37
1, 32405, Note_on_c, 0, 62, 34
1, 32410, Note_on_c, 0, 50, 32
1, 32441, Note_on_c, 0, 62, 0
1, 32455, Control_c, 0, 64, 127
1, 32465, Note_on_c, 0, 50, 0
1, 32473, Note_on_c, 0, 57, 0
1, 32476, Note_on_c, 0, 44, 37
1, 32489, Note_on_c, 0, 66, 0
1, 32499, Note_on_c, 0, 44, 0
1, 32515, Control_c, 0, 64, 0
1, 32518, Note_on_c, 0, 62, 38
1, 32518, Note_on_c, 0, 57, 29
1, 32525, Note_on_c, 0, 59, 26
1, 32552, Control_c, 0, 64, 127
1, 32570, Note_on_c, 0, 59, 0
1, 32573, Note_on_c, 0, 62, 0
1, 32585, Note_on_c, 0, 57, 0
1, 32589, Note_on_c, 0, 42, 50
1, 32627, Control_c, 0, 64, 0
1, 32629, Note_on_c, 0, 52, 45
1, 32629, Note_on_c, 0, 57, 41
1, 32631, Note_on_c, 0, 42, 0
1, 32632, Note_on_c, 0, 61, 26
1, 32632, Note_on_c, 0, 64, 31
1, 32650, Note_on_c, 0, 64, 0
1, 32650, Note_on_c, 0, 57, 0
1, 32651, Note_on_c, 0, 52, 0
1, 32657, Note_on_c, 0, 61, 0
1, 32663, Note_on_c, 0, 69, 80
1, 32680, Control_c, 0, 64, 127
1, 32688, Note_on_c, 0, 69, 0
1, 32697, Note_on_c, 0, 64, 62
1, 32700, Note_on_c, 0, 61, 32
1, 32701, Note_on_c, 0, 57, 45
1, 32714, Note_on_c, 0, 61, 0
1, 32715, Note_on_c, 0, 57, 0
1, 32722, Note_on_c, 0, 64, 0
1, 32736, Note_on_c, 0, 66, 57
1, 32737, Note_on_c, 0, 47, 50
1, 32738, Control_c, 0, 64, 0
1, 32739, Note_on_c, 0, 63, 42
1, 32739, Note_on_c, 0, 57, 49
1, 32761, Note_on_c, 0, 57, 0
1, 32763, Note_on_c, 0, 66, 0
1, 32767, Note_on_c, 0, 63, 0
1, 32776, Note_on_c, 0, 69, 63
1, 32777, Note_on_c, 0, 63, 56
1, 32778, Note_on_c, 0, 57, 42
1, 32784, Note_on_c, 0, 66, 30
1, 32807, Control_c, 0, 64, 127
1, 32825, Note_on_c, 0, 57, 0
1, 32830, Note_on_c, 0, 63, 0
1, 32833, Note_on_c, 0, 66, 0
1, 32839, Note_on_c, 0, 69, 0
1, 32845, Control_c, 0, 64, 0
1, 32847, Note_on_c, 0, 67, 55
1, 32849, Note_on_c, 0, 57, 34
1, 32850, Note_on_c, 0, 63, 33
1, 32851, Note_on_c, 0, 51, 43
1, 32852, Note_on_c, 0, 47, 0
1, 32867, Note_on_c, 0, 63, 0
1, 32868, Note_on_c, 0, 57, 0
1, 32871, Control_c, 0, 64, 127
1, 32875, Note_on_c, 0, 51, 0
1, 32877, Note_on_c, 0, 67, 0
1, 32884, Note_on_c, 0, 66, 36
1, 32889, Note_on_c, 0, 51, 23
1, 32900, Note_on_c, 0, 66, 0
1, 32911, Note_on_c, 0, 51, 0
1, 32911, Control_c, 0, 64, 0
1, 32915, Note_on_c, 0, 67, 49
1, 32917, Note_on_c, 0, 64, 55
1, 32918, Note_on_c, 0, 57, 44
1, 32921, Note_on_c, 0, 52, 40
1, 32946, Control_c, 0, 64, 127
1, 32951, Note_on_c, 0, 57, 0
1, 32970, Note_on_c, 0, 64, 0
1, 32975, Note_on_c, 0, 67, 0
1, 32984, Note_on_c, 0, 52, 0
1, 33006, Note_on_c, 0, 71, 71
1, 33021, Note_on_c, 0, 71, 0
1, 33037, Note_on_c, 0, 74, 72
1, 33053, Note_on_c, 0, 74, 0
1, 33072, Note_on_c, 0, 76, 71
1, 33087, Note_on_c, 0, 76, 0
1, 33106, Note_on_c, 0, 78, 68
1, 33120, Note_on_c, 0, 78, 0
1, 33140, Note_on_c, 0, 79, 80
1, 33164, Note_on_c, 0, 79, 0
1, 33178, Note_on_c, 0, 81, 90
1, 33178, Note_on_c, 0, 62, 64
1, 33181, Note_on_c, 0, 55, 43
1, 33182, Note_on_c, 0, 66, 45
1, 33182, Note_on_c, 0, 59, 56
1, 33187, Control_c, 0, 64, 0
1, 33224, Control_c, 0, 64, 127
1, 33245, Note_on_c, 0, 62, 0
1, 33250, Note_on_c, 0, 59, 0
1, 33256, Note_on_c, 0, 66, 0
1, 33262, Note_on_c, 0, 55, 0
1, 33271, Note_on_c, 0, 81, 0
1, 33294, Control_c, 0, 64, 0
1, 33298, Note_on_c, 0, 64, 44
1, 33298, Note_on_c, 0, 62, 36
1, 33300, Note_on_c, 0, 79, 50
1, 33301, Note_on_c, 0, 76, 43
1, 33303, Note_on_c, 0, 69, 38
1, 33326, Control_c, 0, 64, 127
1, 33330, Note_on_c, 0, 69, 0
1, 33355, Note_on_c, 0, 76, 0
1, 33356, Note_on_c, 0, 62, 0
1, 33361, Note_on_c, 0, 79, 0
1, 33361, Note_on_c, 0, 64, 0
1, 33420, Note_on_c, 0, 76, 53
1, 33421, Note_on_c, 0, 88, 51
1, 33421, Note_on_c, 0, 65, 54
1, 33423, Control_c, 0, 64, 0
1, 33424, Note_on_c, 0, 60, 34
1, 33427, Note_on_c, 0, 65, 0
1, 33429, Note_on_c, 0, 60, 0
1, 33431, Note_on_c, 0, 76, 0
1, 33434, Note_on_c, 0, 88, 0
1, 33496, Note_on_c, 0, 65, 76
1, 33497, Note_on_c, 0, 60, 62
1, 33498, Note_on_c, 0, 61, 53
1, 33499, Note_on_c, 0, 76, 74
1, 33499, Note_on_c, 0, 88, 77
1, 33499, Note_on_c, 0, 55, 51
1, 33500, Note_on_c, 0, 84, 70
1, 33500, Control_c, 0, 64, 127
1, 33502, Note_on_c, 0, 58, 32
1, 33504, Note_on_c, 0, 86, 36
1, 33509, Note_on_c, 0, 58, 0
1, 33511, Note_on_c, 0, 86, 0
1, 33511, Note_on_c, 0, 65, 0
1, 33515, Note_on_c, 0, 84, 0
1, 33516, Note_on_c, 0, 55, 0
1, 33517, Note_on_c, 0, 76, 0
1, 33519, Note_on_c, 0, 60, 0
1, 33520, Note_on_c, 0, 61, 0
1, 33520, Note_on_c, 0, 88, 0
1, 33532, Control_c, 0, 64, 0
1, 33542, Note_on_c, 0, 61, 57
1, 33542, Note_on_c, 0, 65, 72
1, 33543, Note_on_c, 0, 88, 80
1, 33543, Note_on_c, 0, 60, 62
1, 33544, Note_on_c, 0, 55, 54
1, 33544, Note_on_c, 0, 76, 70
1, 33545, Note_on_c, 0, 84, 62
1, 33547, Note_on_c, 0, 58, 37
1, 33552, Note_on_c, 0, 86, 24
1, 33555, Note_on_c, 0, 65, 0
1, 33557, Note_on_c, 0, 86, 0
1, 33560, Note_on_c, 0, 55, 0
1, 33560, Note_on_c, 0, 60, 0
1, 33560, Note_on_c, 0, 76, 0
1, 33561, Note_on_c, 0, 84, 0
1, 33563, Note_on_c, 0, 58, 0
1, 33563, Note_on_c, 0, 88, 0
1, 33564, Note_on_c, 0, 61, 0
1, 33604, Control_c, 0, 64, 127
1, 33613, Note_on_c, 0, 61, 50
1, 33615, Note_on_c, 0, 65, 49
1, 33616, Note_on_c, 0, 88, 70
1, 33616, Note_on_c, 0, 76, 74
1, 33616, Note_on_c, 0, 55, 36
1, 33620, Note_on_c, 0, 65, 0
1, 33620, Note_on_c, 0, 84, 31
1, 33622, Note_on_c, 0, 55, 0
1, 33624, Note_on_c, 0, 88, 0
1, 33625, Note_on_c, 0, 84, 0
1, 33626, Note_on_c, 0, 61, 0
1, 33628, Note_on_c, 0, 76, 0
1, 33741, Control_c, 0, 64, 0
1, 33741, Note_on_c, 0, 66, 72
1, 33742, Note_on_c, 0, 61, 71
1, 33742, Note_on_c, 0, 78, 71
1, 33742, Note_on_c, 0, 55, 74
1, 33743, Note_on_c, 0, 75, 73
1, 33743, Note_on_c, 0, 83, 80
1, 33744, Note_on_c, 0, 71, 73
1, 33759, Note_on_c, 0, 71, 0
1, 33759, Note_on_c, 0, 75, 0
1, 33760, Note_on_c, 0, 55, 0
1, 33760, Note_on_c, 0, 66, 0
1, 33763, Note_on_c, 0, 78, 0
1, 33764, Note_on_c, 0, 83, 0
1, 33765, Note_on_c, 0, 61, 0
1, 33796, Note_on_c, 0, 83, 77
1, 33797, Note_on_c, 0, 78, 68
1, 33797, Note_on_c, 0, 66, 73
1, 33797, Note_on_c, 0, 75, 75
1, 33797, Note_on_c, 0, 71, 74
1, 33798, Note_on_c, 0, 61, 60
1, 33798, Note_on_c, 0, 55, 68
1, 33803, Note_on_c, 0, 55, 0
1, 33804, Note_on_c, 0, 71, 0
1, 33807, Note_on_c, 0, 75, 0
1, 33807, Note_on_c, 0, 66, 0
1, 33810, Note_on_c, 0, 83, 0
1, 33810, Note_on_c, 0, 61, 0
1, 33810, Note_on_c, 0, 78, 0
1, 33863, Note_on_c, 0, 66, 63
1, 33864, Note_on_c, 0, 55, 59
1, 33864, Note_on_c, 0, 61, 51
1, 33864, Note_on_c, 0, 75, 78
1, 33865, Note_on_c, 0, 78, 68
1, 33865, Note_on_c, 0, 71, 81
1, 33865, Note_on_c, 0, 83, 78
1, 33869, Note_on_c, 0, 55, 0
1, 33870, Note_on_c, 0, 66, 0
1, 33872, Note_on_c, 0, 83, 0
1, 33873, Note_on_c, 0, 71, 0
1, 33873, Note_on_c, 0, 75, 0
1, 33874, Note_on_c, 0, 61, 0
1, 33876, Note_on_c, 0, 78, 0
1, 33912, Note_on_c, 0, 66, 80
1, 33914, Note_on_c, 0, 55, 75
1, 33914, Note_on_c, 0, 61, 64
1, 33914, Note_on_c, 0, 75, 82
1, 33915, Note_on_c, 0, 71, 85
1, 33915, Note_on_c, 0, 83, 82
1, 33916, Note_on_c, 0, 78, 65
1, 33924, Control_c, 0, 64, 127
1, 33931, Note_on_c, 0, 55, 0
1, 33938, Note_on_c, 0, 71, 0
1, 33938, Note_on_c, 0, 75, 0
1, 33944, Note_on_c, 0, 66, 0
1, 33944, Note_on_c, 0, 78, 0
1, 33945, Note_on_c, 0, 61, 0
1, 33948, Note_on_c, 0, 83, 0
1, 33953, Control_c, 0, 64, 0
1, 33979, Note_on_c, 0, 67, 56
1, 33980, Note_on_c, 0, 62, 60
1, 33981, Note_on_c, 0, 56, 57
1, 33981, Note_on_c, 0, 84, 75
1, 33983, Note_on_c, 0, 72, 74
1, 33984, Control_c, 0, 64, 127
1, 33989, Note_on_c, 0, 67, 0
1, 33995, Note_on_c, 0, 84, 0
1, 33995, Note_on_c, 0, 62, 0
1, 33995, Note_on_c, 0, 72, 0
1, 34001, Note_on_c, 0, 56, 0
1, 34012, Control_c, 0, 64, 0
1, 34022, Note_on_c, 0, 66, 64
1, 34023, Note_on_c, 0, 83, 73
1, 34024, Note_on_c, 0, 75, 59
1, 34024, Note_on_c, 0, 55, 58
1, 34025, Note_on_c, 0, 71, 53
1, 34026, Note_on_c, 0, 61, 47
1, 34026, Note_on_c, 0, 78, 50
1, 34041, Control_c, 0, 64, 127
1, 34050, Note_on_c, 0, 71, 0
1, 34053, Note_on_c, 0, 83, 0
1, 34060, Note_on_c, 0, 55, 0
1, 34064, Note_on_c, 0, 75, 0
1, 34067, Note_on_c, 0, 66, 0
1, 34067, Note_on_c, 0, 78, 0
1, 34073, Control_c, 0, 64, 0
1, 34078, Note_on_c, 0, 61, 0
1, 34091, Control_c, 0, 64, 127
1, 34098, Note_on_c, 0, 81, 45
1, 34099, Note_on_c, 0, 69, 51
1, 34100, Note_on_c, 0, 75, 35
1, 34100, Note_on_c, 0, 60, 44
1, 34101, Note_on_c, 0, 54, 25
1, 34104, Note_on_c, 0, 78, 25
1, 34108, Note_on_c, 0, 60, 0
1, 34109, Note_on_c, 0, 69, 0
1, 34111, Note_on_c, 0, 81, 0
1, 34114, Note_on_c, 0, 54, 0
1, 34114, Note_on_c, 0, 75, 0
1, 34119, Note_on_c, 0, 78, 0
1, 34128, Control_c, 0, 64, 0
1, 34140, Note_on_c, 0, 55, 58
1, 34140, Note_on_c, 0, 66, 58
1, 34140, Note_on_c, 0, 78, 50
1, 34141, Note_on_c, 0, 75, 49
1, 34142, Note_on_c, 0, 71, 53
1, 34142, Note_on_c, 0, 83, 56
1, 34145, Note_on_c, 0, 61, 35
1, 34147, Control_c, 0, 64, 127
1, 34164, Note_on_c, 0, 66, 0
1, 34170, Note_on_c, 0, 55, 0
1, 34171, Note_on_c, 0, 61, 0
1, 34176, Note_on_c, 0, 83, 0
1, 34183, Note_on_c, 0, 75, 0
1, 34184, Note_on_c, 0, 78, 0
1, 34186, Note_on_c, 0, 71, 0
1, 34263, Note_on_c, 0, 58, 64
1, 34354, Note_on_c, 0, 58, 0
1, 34370, Note_on_c, 0, 74, 65
1, 34371, Note_on_c, 0, 64, 68
1, 34372, Control_c, 0, 64, 0
1, 34373, Note_on_c, 0, 59, 55
1, 34373, Note_on_c, 0, 67, 61
1, 34374, Note_on_c, 0, 71, 45
1, 34397, Control_c, 0, 64, 127
1, 34405, Note_on_c, 0, 71, 0
1, 34411, Note_on_c, 0, 74, 0
1, 34411, Note_on_c, 0, 67, 0
1, 34420, Note_on_c, 0, 64, 0
1, 34443, Note_on_c, 0, 59, 0
1, 34447, Note_on_c, 0, 71, 36
1, 34448, Note_on_c, 0, 60, 58
1, 34448, Note_on_c, 0, 64, 49
1, 34448, Note_on_c, 0, 55, 50
1, 34449, Note_on_c, 0, 67, 33
1, 34455, Note_on_c, 0, 55, 0
1, 34471, Note_on_c, 0, 60, 0
1, 34478, Control_c, 0, 64, 0
1, 34490, Note_on_c, 0, 60, 39
1, 34500, Note_on_c, 0, 49, 18
1, 34502, Control_c, 0, 64, 127
1, 34509, Note_on_c, 0, 49, 0
1, 34562, Note_on_c, 0, 67, 0
1, 34566, Note_on_c, 0, 64, 0
1, 34569, Note_on_c, 0, 60, 0
1, 34570, Note_on_c, 0, 49, 42
1, 34577, Note_on_c, 0, 69, 14
1, 34579, Note_on_c, 0, 71, 0
1, 34587, Note_on_c, 0, 69, 0
1, 34597, Note_on_c, 0, 49, 0
1, 34603, Control_c, 0, 64, 0
1, 34606, Note_on_c, 0, 66, 37
1, 34606, Note_on_c, 0, 69, 29
1, 34608, Note_on_c, 0, 60, 35
1, 34608, Note_on_c, 0, 50, 39
1, 34608, Note_on_c, 0, 63, 42
1, 34643, Control_c, 0, 64, 127
1, 34663, Note_on_c, 0, 60, 0
1, 34671, Note_on_c, 0, 63, 0
1, 34679, Note_on_c, 0, 66, 0
1, 34682, Note_on_c, 0, 38, 60
1, 34687, Note_on_c, 0, 69, 0
1, 34728, Control_c, 0, 64, 0
1, 34728, Note_on_c, 0, 69, 77
1, 34740, Note_on_c, 0, 38, 0
1, 34741, Note_on_c, 0, 69, 0
1, 34751, Note_on_c, 0, 50, 0
1, 34760, Note_on_c, 0, 72, 70
1, 34772, Note_on_c, 0, 72, 0
1, 34793, Note_on_c, 0, 76, 81
1, 34809, Note_on_c, 0, 76, 0
1, 34826, Note_on_c, 0, 77, 81
1, 34843, Note_on_c, 0, 77, 0
1, 34859, Note_on_c, 0, 76, 70
1, 34875, Note_on_c, 0, 76, 0
1, 34894, Note_on_c, 0, 72, 55
1, 34907, Note_on_c, 0, 72, 0
1, 34932, Note_on_c, 0, 65, 38
1, 34932, Note_on_c, 0, 69, 34
1, 34939, Note_on_c, 0, 65, 0
1, 34945, Note_on_c, 0, 69, 0
1, 34967, Note_on_c, 0, 65, 54
1, 34992, Note_on_c, 0, 65, 0
1, 35004, Note_on_c, 0, 62, 40
1, 35014, Note_on_c, 0, 62, 0
1, 35035, Note_on_c, 0, 63, 48
1, 35041, Control_c, 0, 64, 127
1, 35062, Note_on_c, 0, 63, 0
1, 35068, Control_c, 0, 64, 0
1, 35073, Note_on_c, 0, 65, 44
1, 35077, Note_on_c, 0, 53, 26
1, 35078, Note_on_c, 0, 43, 24
1, 35079, Note_on_c, 0, 59, 20
1, 35097, Control_c, 0, 64, 127
1, 35135, Note_on_c, 0, 53, 0
1, 35139, Note_on_c, 0, 59, 0
1, 35151, Note_on_c, 0, 46, 34
1, 35157, Note_on_c, 0, 43, 0
1, 35168, Note_on_c, 0, 46, 0
1, 35169, Note_on_c, 0, 65, 0
1, 35185, Control_c, 0, 64, 0
1, 35188, Note_on_c, 0, 56, 37
1, 35188, Note_on_c, 0, 47, 44
1, 35191, Note_on_c, 0, 59, 36
1, 35192, Note_on_c, 0, 62, 38
1, 35194, Note_on_c, 0, 47, 0
1, 35209, Control_c, 0, 64, 127
1, 35231, Note_on_c, 0, 59, 0
1, 35239, Note_on_c, 0, 56, 0
1, 35242, Note_on_c, 0, 62, 0
1, 35261, Note_on_c, 0, 43, 40
1, 35303, Control_c, 0, 64, 0
1, 35305, Note_on_c, 0, 66, 46
1, 35307, Note_on_c, 0, 63, 34
1, 35308, Note_on_c, 0, 59, 36
1, 35329, Note_on_c, 0, 59, 0
1, 35336, Note_on_c, 0, 43, 0
1, 35339, Control_c, 0, 64, 127
1, 35343, Note_on_c, 0, 71, 48
1, 35354, Note_on_c, 0, 66, 0
1, 35356, Note_on_c, 0, 63, 0
1, 35364, Note_on_c, 0, 71, 0
1, 35375, Control_c, 0, 64, 0
1, 35380, Note_on_c, 0, 67, 45
1, 35382, Note_on_c, 0, 55, 28
1, 35383, Note_on_c, 0, 62, 37
1, 35383, Note_on_c, 0, 48, 36
1, 35384, Note_on_c, 0, 64, 46
1, 35400, Note_on_c, 0, 62, 0
1, 35404, Control_c, 0, 64, 127
1, 35410, Note_on_c, 0, 64, 0
1, 35414, Note_on_c, 0, 67, 0
1, 35434, Note_on_c, 0, 48, 0
1, 35435, Note_on_c, 0, 55, 0
1, 35469, Note_on_c, 0, 75, 37
1, 35470, Note_on_c, 0, 78, 38
1, 35493, Note_on_c, 0, 78, 0
1, 35502, Note_on_c, 0, 83, 60
1, 35514, Note_on_c, 0, 75, 0
1, 35519, Note_on_c, 0, 83, 0
1, 35530, Control_c, 0, 64, 0
1, 35536, Note_on_c, 0, 79, 50
1, 35537, Note_on_c, 0, 76, 44
1, 35539, Note_on_c, 0, 67, 48
1, 35551, Note_on_c, 0, 67, 0
1, 35555, Note_on_c, 0, 76, 0
1, 35559, Control_c, 0, 64, 127
1, 35560, Note_on_c, 0, 79, 0
1, 35641, Note_on_c, 0, 87, 45
1, 35642, Note_on_c, 0, 90, 40
1, 35642, Note_on_c, 0, 83, 34
1, 35644, Note_on_c, 0, 64, 27
1, 35646, Note_on_c, 0, 59, 28
1, 35648, Note_on_c, 0, 53, 24
1, 35651, Control_c, 0, 64, 0
1, 35658, Note_on_c, 0, 64, 0
1, 35659, Note_on_c, 0, 59, 0
1, 35659, Note_on_c, 0, 83, 0
1, 35659, Control_c, 0, 64, 127
1, 35665, Note_on_c, 0, 53, 0
1, 35666, Note_on_c, 0, 90, 0
1, 35669, Note_on_c, 0, 87, 0
1, 35676, Note_on_c, 0, 95, 64
1, 35692, Note_on_c, 0, 95, 0
1, 35705, Control_c, 0, 64, 0
1, 35713, Note_on_c, 0, 91, 63
1, 35713, Note_on_c, 0, 62, 60
1, 35714, Note_on_c, 0, 88, 56
1, 35715, Note_on_c, 0, 57, 60
1, 35719, Note_on_c, 0, 62, 0
1, 35719, Note_on_c, 0, 91, 0
1, 35720, Note_on_c, 0, 88, 0
1, 35721, Note_on_c, 0, 57, 0
1, 35750, Control_c, 0, 64, 127
1, 35792, Note_on_c, 0, 47, 40
1, 35823, Note_on_c, 0, 47, 0
1, 35859, Note_on_c, 0, 69, 64
1, 35859, Control_c, 0, 64, 0
1, 35860, Note_on_c, 0, 62, 62
1, 35860, Note_on_c, 0, 64, 60
1, 35861, Note_on_c, 0, 59, 39
1, 35861, Note_on_c, 0, 57, 63
1, 35865, Note_on_c, 0, 55, 30
1, 35883, Control_c, 0, 64, 127
1, 35894, Note_on_c, 0, 55, 0
1, 35910, Note_on_c, 0, 59, 0
1, 35915, Note_on_c, 0, 64, 0
1, 35916, Note_on_c, 0, 62, 0
1, 35923, Note_on_c, 0, 69, 0
1, 35945, Note_on_c, 0, 55, 30
1, 35946, Note_on_c, 0, 57, 0
1, 35955, Note_on_c, 0, 55, 0
1, 35972, Note_on_c, 0, 59, 47
1, 35975, Note_on_c, 0, 71, 50
1, 35975, Note_on_c, 0, 67, 48
1, 35976, Note_on_c, 0, 62, 50
1, 35976, Control_c, 0, 64, 0
1, 35976, Note_on_c, 0, 64, 49
1, 36016, Control_c, 0, 64, 127
1, 36018, Note_on_c, 0, 62, 0
1, 36021, Note_on_c, 0, 64, 0
1, 36023, Note_on_c, 0, 59, 0
1, 36030, Note_on_c, 0, 67, 0
1, 36033, Note_on_c, 0, 71, 0
1, 36045, Note_on_c, 0, 69, 52
1, 36049, Note_on_c, 0, 60, 38
1, 36050, Note_on_c, 0, 64, 39
1, 36061, Control_c, 0, 64, 0
1, 36073, Note_on_c, 0, 57, 34
1, 36075, Note_on_c, 0, 64, 0
1, 36076, Control_c, 0, 64, 127
1, 36077, Note_on_c, 0, 69, 0
1, 36079, Note_on_c, 0, 60, 0
1, 36079, Note_on_c, 0, 57, 0
1, 36148, Note_on_c, 0, 63, 33
1, 36152, Note_on_c, 0, 58, 39
1, 36153, Note_on_c, 0, 53, 20
1, 36154, Note_on_c, 0, 47, 45
1, 36163, Note_on_c, 0, 47, 0
1, 36168, Note_on_c, 0, 48, 31
1, 36177, Control_c, 0, 64, 0
1, 36178, Note_on_c, 0, 53, 0
1, 36202, Control_c, 0, 64, 127
1, 36216, Note_on_c, 0, 58, 0
1, 36217, Note_on_c, 0, 63, 0
1, 36220, Note_on_c, 0, 55, 44
1, 36229, Note_on_c, 0, 55, 0
1, 36245, Note_on_c, 0, 57, 32
1, 36257, Note_on_c, 0, 57, 0
1, 36264, Note_on_c, 0, 58, 45
1, 36275, Note_on_c, 0, 58, 0
1, 36286, Note_on_c, 0, 60, 58
1, 36291, Control_c, 0, 64, 0
1, 36293, Note_on_c, 0, 36, 44
1, 36297, Note_on_c, 0, 60, 0
1, 36300, Note_on_c, 0, 36, 0
1, 36312, Note_on_c, 0, 62, 46
1, 36313, Note_on_c, 0, 48, 0
1, 36324, Note_on_c, 0, 62, 0
1, 36339, Note_on_c, 0, 63, 52
1, 36349, Note_on_c, 0, 63, 0
1, 36359, Note_on_c, 0, 65, 62
1, 36371, Note_on_c, 0, 65, 0
1, 36384, Note_on_c, 0, 67, 64
1, 36398, Note_on_c, 0, 67, 0
1, 36402, Note_on_c, 0, 62, 59
1, 36404, Note_on_c, 0, 51, 38
1, 36407, Note_on_c, 0, 57, 43
1, 36408, Note_on_c, 0, 62, 0
1, 36409, Note_on_c, 0, 69, 65
1, 36414, Note_on_c, 0, 57, 0
1, 36420, Note_on_c, 0, 69, 0
1, 36424, Note_on_c, 0, 51, 0
1, 36435, Note_on_c, 0, 70, 59
1, 36444, Note_on_c, 0, 70, 0
1, 36458, Note_on_c, 0, 72, 41
1, 36467, Note_on_c, 0, 72, 0
1, 36480, Note_on_c, 0, 74, 53
1, 36492, Note_on_c, 0, 74, 0
1, 36506, Note_on_c, 0, 75, 71
1, 36507, Note_on_c, 0, 74, 32
1, 36513, Note_on_c, 0, 74, 0
1, 36515, Note_on_c, 0, 51, 26
1, 36517, Note_on_c, 0, 75, 0
1, 36526, Note_on_c, 0, 51, 0
1, 36534, Note_on_c, 0, 76, 57
1, 36546, Note_on_c, 0, 76, 0
1, 36555, Note_on_c, 0, 77, 67
1, 36571, Control_c, 0, 64, 127
1, 36575, Note_on_c, 0, 77, 0
1, 36584, Note_on_c, 0, 74, 46
1, 36592, Control_c, 0, 64, 0
1, 36593, Note_on_c, 0, 42, 25
1, 36595, Note_on_c, 0, 74, 0
1, 36605, Note_on_c, 0, 42, 0
1, 36608, Note_on_c, 0, 75, 62
1, 36610, Note_on_c, 0, 51, 42
1, 36614, Note_on_c, 0, 41, 37
1, 36632, Note_on_c, 0, 41, 0
1, 36641, Note_on_c, 0, 69, 53
1, 36647, Note_on_c, 0, 51, 0
1, 36648, Control_c, 0, 64, 127
1, 36657, Note_on_c, 0, 75, 0
1, 36717, Note_on_c, 0, 67, 50
1, 36719, Note_on_c, 0, 57, 39
1, 36719, Note_on_c, 0, 63, 38
1, 36722, Note_on_c, 0, 67, 0
1, 36734, Note_on_c, 0, 57, 0
1, 36736, Note_on_c, 0, 63, 0
1, 36747, Note_on_c, 0, 69, 0
1, 36751, Control_c, 0, 64, 0
1, 36765, Note_on_c, 0, 75, 57
1, 36770, Note_on_c, 0, 75, 0
1, 36778, Note_on_c, 0, 79, 68
1, 36793, Note_on_c, 0, 75, 52
1, 36799, Note_on_c, 0, 79, 0
1, 36808, Note_on_c, 0, 72, 38
1, 36814, Note_on_c, 0, 75, 0
1, 36814, Control_c, 0, 64, 127
1, 36818, Note_on_c, 0, 72, 0
1, 36823, Note_on_c, 0, 69, 62
1, 36828, Control_c, 0, 64, 0
1, 36835, Note_on_c, 0, 69, 0
1, 36835, Note_on_c, 0, 53, 17
1, 36845, Note_on_c, 0, 53, 0
1, 36846, Note_on_c, 0, 68, 40
1, 36854, Note_on_c, 0, 68, 0
1, 36859, Note_on_c, 0, 67, 34
1, 36866, Note_on_c, 0, 67, 0
1, 36873, Note_on_c, 0, 66, 46
1, 36884, Note_on_c, 0, 66, 0
1, 36892, Note_on_c, 0, 65, 36
1, 36902, Note_on_c, 0, 65, 0
1, 36908, Control_c, 0, 64, 127
1, 36910, Note_on_c, 0, 64, 29
1, 36921, Note_on_c, 0, 64, 0
1, 36932, Note_on_c, 0, 63, 32
1, 36934, Control_c, 0, 64, 0
1, 36943, Note_on_c, 0, 63, 0
1, 36950, Note_on_c, 0, 62, 40
1, 36963, Note_on_c, 0, 62, 0
1, 36969, Note_on_c, 0, 61, 42
1, 36975, Note_on_c, 0, 61, 0
1, 36982, Note_on_c, 0, 60, 43
1, 37000, Note_on_c, 0, 60, 0
1, 37008, Note_on_c, 0, 59, 29
1, 37009, Control_c, 0, 64, 127
1, 37021, Note_on_c, 0, 59, 0
1, 37030, Note_on_c, 0, 58, 23
1, 37040, Note_on_c, 0, 58, 0
1, 37047, Note_on_c, 0, 60, 62
1, 37057, Control_c, 0, 64, 0
1, 37060, Note_on_c, 0, 43, 28
1, 37065, Note_on_c, 0, 60, 0
1, 37071, Note_on_c, 0, 58, 48
1, 37083, Note_on_c, 0, 58, 0
1, 37089, Note_on_c, 0, 59, 49
1, 37118, Control_c, 0, 64, 127
1, 37124, Note_on_c, 0, 59, 0
1, 37128, Note_on_c, 0, 55, 53
1, 37143, Note_on_c, 0, 55, 0
1, 37184, Note_on_c, 0, 69, 62
1, 37186, Control_c, 0, 64, 0
1, 37186, Note_on_c, 0, 62, 70
1, 37187, Note_on_c, 0, 54, 33
1, 37203, Note_on_c, 0, 43, 0
1, 37206, Note_on_c, 0, 62, 0
1, 37209, Note_on_c, 0, 69, 0
1, 37212, Note_on_c, 0, 54, 0
1, 37240, Note_on_c, 0, 62, 50
1, 37242, Control_c, 0, 64, 127
1, 37256, Note_on_c, 0, 62, 0
1, 37303, Note_on_c, 0, 74, 35
1, 37304, Note_on_c, 0, 64, 60
1, 37306, Note_on_c, 0, 81, 76
1, 37310, Note_on_c, 0, 54, 25
1, 37310, Note_on_c, 0, 59, 43
1, 37322, Note_on_c, 0, 64, 0
1, 37322, Control_c, 0, 64, 0
1, 37326, Note_on_c, 0, 74, 0
1, 37331, Note_on_c, 0, 59, 0
1, 37336, Note_on_c, 0, 81, 0
1, 37336, Note_on_c, 0, 74, 22
1, 37341, Note_on_c, 0, 78, 59
1, 37344, Note_on_c, 0, 54, 0
1, 37348, Note_on_c, 0, 74, 0
1, 37366, Note_on_c, 0, 74, 29
1, 37373, Note_on_c, 0, 78, 0
1, 37380, Control_c, 0, 64, 127
1, 37383, Note_on_c, 0, 74, 0
1, 37397, Note_on_c, 0, 69, 44
1, 37403, Note_on_c, 0, 69, 0
1, 37423, Control_c, 0, 64, 0
1, 37424, Note_on_c, 0, 93, 80
1, 37424, Note_on_c, 0, 54, 25
1, 37439, Note_on_c, 0, 93, 0
1, 37458, Note_on_c, 0, 89, 47
1, 37464, Note_on_c, 0, 89, 0
1, 37479, Control_c, 0, 64, 127
1, 37480, Note_on_c, 0, 86, 49
1, 37503, Note_on_c, 0, 86, 0
1, 37509, Note_on_c, 0, 54, 0
1, 37509, Note_on_c, 0, 50, 22
1, 37513, Control_c, 0, 64, 0
1, 37528, Note_on_c, 0, 50, 0
1, 37534, Note_on_c, 0, 43, 44
1, 37537, Note_on_c, 0, 90, 48
1, 37539, Control_c, 0, 64, 127
1, 37547, Note_on_c, 0, 43, 0
1, 37553, Note_on_c, 0, 90, 0
1, 37648, Control_c, 0, 64, 0
1, 37649, Note_on_c, 0, 64, 40
1, 37651, Note_on_c, 0, 59, 42
1, 37653, Note_on_c, 0, 54, 26
1, 37665, Note_on_c, 0, 64, 0
1, 37667, Control_c, 0, 64, 127
1, 37670, Note_on_c, 0, 59, 0
1, 37679, Note_on_c, 0, 54, 0
1, 37720, Note_on_c, 0, 51, 43
1, 37729, Note_on_c, 0, 51, 0
1, 37760, Note_on_c, 0, 54, 78
1, 37762, Note_on_c, 0, 69, 81
1, 37764, Note_on_c, 0, 62, 82
1, 37765, Note_on_c, 0, 59, 73
1, 37768, Note_on_c, 0, 66, 30
1, 37769, Control_c, 0, 64, 0
1, 37775, Note_on_c, 0, 66, 0
1, 37813, Control_c, 0, 64, 127
1, 37820, Note_on_c, 0, 59, 0
1, 37822, Note_on_c, 0, 62, 0
1, 37827, Note_on_c, 0, 69, 0
1, 37832, Note_on_c, 0, 54, 0
1, 37838, Note_on_c, 0, 50, 51
1, 37851, Control_c, 0, 64, 0
1, 37857, Note_on_c, 0, 50, 0
1, 37874, Note_on_c, 0, 69, 58
1, 37876, Note_on_c, 0, 66, 49
1, 37877, Note_on_c, 0, 53, 42
1, 37877, Note_on_c, 0, 62, 58
1, 37880, Control_c, 0, 64, 127
1, 37880, Note_on_c, 0, 57, 26
1, 37894, Note_on_c, 0, 57, 0
1, 37900, Note_on_c, 0, 62, 0
1, 37901, Note_on_c, 0, 53, 0
1, 37904, Note_on_c, 0, 69, 0
1, 37906, Note_on_c, 0, 66, 0
1, 37949, Note_on_c, 0, 65, 76
1, 37949, Note_on_c, 0, 73, 73
1, 37951, Note_on_c, 0, 61, 60
1, 37960, Note_on_c, 0, 56, 32
1, 37962, Control_c, 0, 64, 0
1, 37963, Note_on_c, 0, 46, 28
1, 37968, Note_on_c, 0, 61, 0
1, 37977, Note_on_c, 0, 65, 0
1, 37985, Note_on_c, 0, 61, 35
1, 37986, Note_on_c, 0, 73, 0
1, 37988, Control_c, 0, 64, 127
1, 37992, Note_on_c, 0, 46, 0
1, 37994, Note_on_c, 0, 56, 0
1, 37997, Note_on_c, 0, 61, 0
1, 37997, Note_on_c, 0, 73, 13
1, 38007, Note_on_c, 0, 65, 34
1, 38014, Note_on_c, 0, 65, 0
1, 38020, Note_on_c, 0, 61, 27
1, 38021, Note_on_c, 0, 73, 0
1, 38029, Note_on_c, 0, 61, 0
1, 38035, Note_on_c, 0, 73, 23
1, 38042, Note_on_c, 0, 65, 20
1, 38048, Note_on_c, 0, 73, 0
1, 38048, Note_on_c, 0, 61, 37
1, 38049, Note_on_c, 0, 65, 0
1, 38063, Note_on_c, 0, 73, 27
1, 38064, Note_on_c, 0, 61, 0
1, 38069, Note_on_c, 0, 65, 47
1, 38079, Note_on_c, 0, 73, 0
1, 38080, Note_on_c, 0, 61, 42
1, 38085, Note_on_c, 0, 65, 0
1, 38096, Note_on_c, 0, 61, 0
1, 38097, Note_on_c, 0, 60, 85
1, 38098, Note_on_c, 0, 73, 46
1, 38102, Note_on_c, 0, 65, 53
1, 38106, Control_c, 0, 64, 0
1, 38108, Note_on_c, 0, 73, 0
1, 38113, Note_on_c, 0, 61, 45
1, 38115, Note_on_c, 0, 65, 0
1, 38127, Note_on_c, 0, 61, 0
1, 38131, Note_on_c, 0, 73, 37
1, 38132, Note_on_c, 0, 65, 53
1, 38137, Note_on_c, 0, 73, 0
1, 38144, Note_on_c, 0, 65, 0
1, 38145, Note_on_c, 0, 61, 44
1, 38159, Note_on_c, 0, 61, 0
1, 38163, Note_on_c, 0, 73, 28
1, 38165, Note_on_c, 0, 65, 45
1, 38167, Control_c, 0, 64, 127
1, 38169, Note_on_c, 0, 73, 0
1, 38175, Note_on_c, 0, 65, 0
1, 38176, Note_on_c, 0, 61, 45
1, 38191, Note_on_c, 0, 61, 0
1, 38196, Note_on_c, 0, 73, 34
1, 38198, Note_on_c, 0, 65, 46
1, 38202, Note_on_c, 0, 73, 0
1, 38206, Note_on_c, 0, 65, 0
1, 38209, Note_on_c, 0, 61, 38
1, 38212, Control_c, 0, 64, 0
1, 38223, Note_on_c, 0, 61, 0
1, 38225, Note_on_c, 0, 73, 42
1, 38230, Note_on_c, 0, 65, 43
1, 38238, Note_on_c, 0, 65, 0
1, 38241, Note_on_c, 0, 73, 0
1, 38241, Note_on_c, 0, 61, 37
1, 38255, Note_on_c, 0, 61, 0
1, 38257, Note_on_c, 0, 73, 20
1, 38260, Control_c, 0, 64, 127
1, 38262, Note_on_c, 0, 65, 39
1, 38267, Note_on_c, 0, 73, 0
1, 38270, Note_on_c, 0, 65, 0
1, 38272, Note_on_c, 0, 61, 38
1, 38284, Note_on_c, 0, 60, 0
1, 38288, Note_on_c, 0, 61, 0
1, 38288, Note_on_c, 0, 73, 45
1, 38289, Note_on_c, 0, 58, 71
1, 38290, Note_on_c, 0, 65, 58
1, 38296, Control_c, 0, 64, 0
1, 38300, Note_on_c, 0, 73, 0
1, 38304, Note_on_c, 0, 65, 0
1, 38304, Note_on_c, 0, 61, 39
1, 38320, Note_on_c, 0, 61, 0
1, 38320, Note_on_c, 0, 73, 42
1, 38322, Note_on_c, 0, 65, 55
1, 38329, Note_on_c, 0, 65, 0
1, 38330, Note_on_c, 0, 73, 0
1, 38336, Note_on_c, 0, 61, 30
1, 38349, Note_on_c, 0, 61, 0
1, 38350, Note_on_c, 0, 73, 36
1, 38353, Note_on_c, 0, 65, 45
1, 38360, Note_on_c, 0, 65, 0
1, 38361, Note_on_c, 0, 73, 0
1, 38364, Note_on_c, 0, 61, 32
1, 38378, Note_on_c, 0, 61, 0
1, 38378, Note_on_c, 0, 73, 23
1, 38380, Note_on_c, 0, 58, 0
1, 38381, Note_on_c, 0, 65, 46
1, 38382, Note_on_c, 0, 57, 66
1, 38389, Note_on_c, 0, 65, 0
1, 38393, Note_on_c, 0, 61, 34
1, 38401, Control_c, 0, 64, 127
1, 38406, Note_on_c, 0, 57, 0
1, 38408, Note_on_c, 0, 61, 0
1, 38409, Note_on_c, 0, 56, 70
1, 38411, Note_on_c, 0, 65, 36
1, 38417, Note_on_c, 0, 65, 0
1, 38420, Note_on_c, 0, 73, 0
1, 38424, Control_c, 0, 64, 0
1, 38429, Note_on_c, 0, 56, 0
1, 38431, Note_on_c, 0, 61, 33
1, 38434, Note_on_c, 0, 73, 25
1, 38435, Note_on_c, 0, 55, 68
1, 38441, Note_on_c, 0, 64, 24
1, 38464, Control_c, 0, 64, 127
1, 38483, Note_on_c, 0, 55, 0
1, 38494, Note_on_c, 0, 73, 0
1, 38501, Note_on_c, 0, 64, 0
1, 38511, Note_on_c, 0, 61, 0
1, 38515, Note_on_c, 0, 45, 34
1, 38526, Note_on_c, 0, 45, 0
1, 38545, Note_on_c, 0, 55, 46
1, 38547, Note_on_c, 0, 64, 36
1, 38547, Note_on_c, 0, 59, 43
1, 38549, Control_c, 0, 64, 0
1, 38607, Control_c, 0, 64, 127
1, 38631, Note_on_c, 0, 64, 0
1, 38634, Note_on_c, 0, 59, 0
1, 38644, Note_on_c, 0, 55, 0
1, 38656, Note_on_c, 0, 55, 43
1, 38657, Note_on_c, 0, 63, 39
1, 38660, Control_c, 0, 64, 0
1, 38660, Note_on_c, 0, 61, 38
1, 38666, Note_on_c, 0, 39, 25
1, 38727, Note_on_c, 0, 27, 54
1, 38740, Note_on_c, 0, 55, 0
1, 38744, Note_on_c, 0, 27, 0
1, 38749, Note_on_c, 0, 39, 0
1, 38761, Control_c, 0, 64, 127
1, 38771, Note_on_c, 0, 55, 31
1, 38781, Note_on_c, 0, 55, 0
1, 38806, Note_on_c, 0, 61, 0
1, 38808, Note_on_c, 0, 63, 0
1, 38840, Note_on_c, 0, 46, 37
1, 38861, Note_on_c, 0, 46, 0
1, 38879, Note_on_c, 0, 79, 54
1, 38880, Note_on_c, 0, 67, 50
1, 38880, Note_on_c, 0, 55, 28
1, 38880, Note_on_c, 0, 45, 25
1, 38881, Control_c, 0, 64, 0
1, 38886, Note_on_c, 0, 55, 0
1, 38887, Note_on_c, 0, 45, 0
1, 38887, Note_on_c, 0, 75, 25
1, 38922, Note_on_c, 0, 75, 0
1, 38928, Note_on_c, 0, 67, 0
1, 38936, Note_on_c, 0, 79, 0
1, 38951, Note_on_c, 0, 76, 39
1, 38972, Note_on_c, 0, 76, 0
1, 38985, Note_on_c, 0, 64, 44
1, 38990, Note_on_c, 0, 60, 31
1, 38990, Note_on_c, 0, 79, 38
1, 38991, Note_on_c, 0, 67, 36
1, 38993, Note_on_c, 0, 64, 0
1, 38996, Note_on_c, 0, 60, 0
1, 39037, Note_on_c, 0, 67, 0
1, 39049, Note_on_c, 0, 79, 0
1, 39063, Note_on_c, 0, 76, 38
1, 39070, Note_on_c, 0, 51, 36
1, 39087, Note_on_c, 0, 76, 0
1, 39091, Note_on_c, 0, 51, 0
1, 39098, Note_on_c, 0, 67, 40
1, 39099, Note_on_c, 0, 79, 32
1, 39103, Note_on_c, 0, 52, 45
1, 39115, Note_on_c, 0, 67, 0
1, 39117, Note_on_c, 0, 79, 0
1, 39143, Note_on_c, 0, 52, 0
1, 39168, Note_on_c, 0, 39, 62
1, 39193, Note_on_c, 0, 39, 0
1, 39205, Note_on_c, 0, 51, 38
1, 39266, Note_on_c, 0, 51, 0
1, 39278, Note_on_c, 0, 38, 68
1, 39294, Note_on_c, 0, 38, 0
1, 39319, Note_on_c, 0, 90, 48
1, 39320, Note_on_c, 0, 78, 55
1, 39322, Note_on_c, 0, 86, 54
1, 39338, Note_on_c, 0, 90, 0
1, 39341, Note_on_c, 0, 78, 0
1, 39342, Note_on_c, 0, 86, 0
1, 39386, Note_on_c, 0, 62, 55
1, 39388, Note_on_c, 0, 60, 51
1, 39392, Note_on_c, 0, 62, 0
1, 39393, Note_on_c, 0, 60, 0
1, 39427, Note_on_c, 0, 78, 46
1, 39427, Note_on_c, 0, 74, 48
1, 39428, Note_on_c, 0, 81, 56
1, 39434, Note_on_c, 0, 81, 0
1, 39440, Note_on_c, 0, 78, 0
1, 39444, Note_on_c, 0, 74, 0
1, 39472, Control_c, 0, 64, 127
1, 39496, Note_on_c, 0, 45, 39
1, 39528, Control_c, 0, 64, 0
1, 39530, Note_on_c, 0, 54, 40
1, 39533, Note_on_c, 0, 66, 60
1, 39533, Note_on_c, 0, 62, 65
1, 39535, Note_on_c, 0, 57, 58
1, 39560, Control_c, 0, 64, 127
1, 39594, Note_on_c, 0, 45, 0
1, 39601, Note_on_c, 0, 54, 0
1, 39635, Note_on_c, 0, 53, 68
1, 39637, Note_on_c, 0, 44, 35
1, 39641, Control_c, 0, 64, 0
1, 39672, Control_c, 0, 64, 127
1, 39709, Note_on_c, 0, 57, 0
1, 39712, Note_on_c, 0, 62, 0
1, 39713, Note_on_c, 0, 53, 0
1, 39714, Note_on_c, 0, 49, 46
1, 39729, Note_on_c, 0, 44, 0
1, 39740, Note_on_c, 0, 66, 0
1, 39744, Note_on_c, 0, 49, 0
1, 39752, Note_on_c, 0, 61, 42
1, 39753, Note_on_c, 0, 42, 51
1, 39754, Control_c, 0, 64, 0
1, 39754, Note_on_c, 0, 52, 54
1, 39754, Note_on_c, 0, 69, 44
1, 39755, Note_on_c, 0, 57, 44
1, 39757, Note_on_c, 0, 64, 37
1, 39783, Control_c, 0, 64, 127
1, 39794, Note_on_c, 0, 42, 0
1, 39806, Note_on_c, 0, 64, 0
1, 39808, Note_on_c, 0, 52, 0
1, 39812, Note_on_c, 0, 57, 0
1, 39821, Note_on_c, 0, 61, 0
1, 39846, Note_on_c, 0, 69, 0
1, 39863, Note_on_c, 0, 66, 45
1, 39865, Note_on_c, 0, 56, 38
1, 39865, Note_on_c, 0, 61, 45
1, 39867, Note_on_c, 0, 57, 39
1, 39868, Control_c, 0, 64, 0
1, 39884, Note_on_c, 0, 56, 0
1, 39901, Note_on_c, 0, 57, 0
1, 39908, Control_c, 0, 64, 127
1, 39912, Note_on_c, 0, 61, 0
1, 39921, Note_on_c, 0, 66, 0
1, 39940, Note_on_c, 0, 69, 57
1, 39942, Note_on_c, 0, 60, 53
1, 39943, Note_on_c, 0, 65, 54
1, 39969, Control_c, 0, 64, 0
1, 39972, Note_on_c, 0, 57, 36
1, 39974, Note_on_c, 0, 60, 0
1, 39978, Note_on_c, 0, 65, 0
1, 39978, Note_on_c, 0, 47, 26
1, 39988, Note_on_c, 0, 57, 0
1, 39992, Note_on_c, 0, 69, 0
1, 40001, Control_c, 0, 64, 127
1, 40016, Note_on_c, 0, 57, 31
1, 40016, Note_on_c, 0, 64, 50
1, 40018, Note_on_c, 0, 61, 33
1, 40048, Note_on_c, 0, 64, 0
1, 40049, Note_on_c, 0, 57, 0
1, 40062, Note_on_c, 0, 61, 0
1, 40066, Note_on_c, 0, 47, 0
1, 40066, Note_on_c, 0, 49, 32
1, 40079, Note_on_c, 0, 49, 0
1, 40083, Control_c, 0, 64, 0
1, 40085, Note_on_c, 0, 61, 56
1, 40086, Note_on_c, 0, 66, 35
1, 40086, Note_on_c, 0, 56, 43
1, 40088, Note_on_c, 0, 51, 50
1, 40107, Control_c, 0, 64, 127
1, 40115, Note_on_c, 0, 56, 0
1, 40136, Note_on_c, 0, 49, 23
1, 40138, Note_on_c, 0, 61, 0
1, 40141, Note_on_c, 0, 66, 0
1, 40151, Note_on_c, 0, 49, 0
1, 40153, Note_on_c, 0, 67, 66
1, 40155, Note_on_c, 0, 52, 85
1, 40155, Note_on_c, 0, 59, 73
1, 40155, Note_on_c, 0, 62, 74
1, 40160, Control_c, 0, 64, 0
1, 40163, Note_on_c, 0, 51, 0
1, 40195, Control_c, 0, 64, 127
1, 40213, Note_on_c, 0, 67, 0
1, 40233, Note_on_c, 0, 62, 0
1, 40239, Note_on_c, 0, 59, 0
1, 40264, Note_on_c, 0, 69, 80
1, 40265, Note_on_c, 0, 62, 80
1, 40266, Note_on_c, 0, 59, 74
1, 40266, Note_on_c, 0, 54, 81
1, 40269, Control_c, 0, 64, 0
1, 40272, Note_on_c, 0, 52, 0
1, 40304, Control_c, 0, 64, 127
1, 40316, Note_on_c, 0, 59, 0
1, 40325, Note_on_c, 0, 69, 0
1, 40325, Note_on_c, 0, 62, 0
1, 40368, Control_c, 0, 64, 0
1, 40370, Note_on_c, 0, 71, 71
1, 40371, Note_on_c, 0, 67, 68
1, 40372, Note_on_c, 0, 64, 71
1, 40372, Note_on_c, 0, 55, 83
1, 40373, Note_on_c, 0, 62, 65
1, 40373, Note_on_c, 0, 60, 65
1, 40379, Note_on_c, 0, 60, 0
1, 40381, Note_on_c, 0, 54, 0
1, 40397, Control_c, 0, 64, 127
1, 40399, Note_on_c, 0, 62, 0
1, 40406, Note_on_c, 0, 64, 0
1, 40410, Note_on_c, 0, 71, 0
1, 40410, Note_on_c, 0, 67, 0
1, 40437, Note_on_c, 0, 55, 0
1, 40438, Note_on_c, 0, 54, 9
1, 40453, Note_on_c, 0, 54, 0
1, 40454, Note_on_c, 0, 56, 35
1, 40472, Note_on_c, 0, 59, 81
1, 40472, Note_on_c, 0, 74, 74
1, 40472, Note_on_c, 0, 71, 73
1, 40473, Note_on_c, 0, 67, 74
1, 40473, Note_on_c, 0, 64, 82
1, 40484, Control_c, 0, 64, 0
1, 40496, Control_c, 0, 64, 127
1, 40509, Note_on_c, 0, 64, 0
1, 40512, Note_on_c, 0, 56, 0
1, 40521, Note_on_c, 0, 59, 0
1, 40523, Note_on_c, 0, 67, 0
1, 40529, Note_on_c, 0, 71, 0
1, 40533, Note_on_c, 0, 74, 0
1, 40625, Control_c, 0, 64, 0
1, 40625, Note_on_c, 0, 88, 63
1, 40626, Note_on_c, 0, 76, 51
1, 40627, Note_on_c, 0, 61, 34
1, 40627, Note_on_c, 0, 60, 38
1, 40628, Note_on_c, 0, 65, 53
1, 40628, Note_on_c, 0, 55, 50
1, 40629, Note_on_c, 0, 84, 47
1, 40633, Note_on_c, 0, 58, 26
1, 40652, Control_c, 0, 64, 127
1, 40665, Note_on_c, 0, 76, 0
1, 40666, Note_on_c, 0, 65, 0
1, 40666, Note_on_c, 0, 60, 0
1, 40666, Note_on_c, 0, 55, 0
1, 40667, Note_on_c, 0, 61, 0
1, 40668, Note_on_c, 0, 88, 0
1, 40668, Note_on_c, 0, 84, 0
1, 40669, Note_on_c, 0, 58, 0
1, 40697, Note_on_c, 0, 65, 66
1, 40699, Note_on_c, 0, 88, 71
1, 40699, Note_on_c, 0, 60, 55
1, 40699, Note_on_c, 0, 61, 51
1, 40700, Note_on_c, 0, 76, 60
1, 40700, Note_on_c, 0, 55, 50
1, 40701, Note_on_c, 0, 84, 66
1, 40725, Note_on_c, 0, 55, 0
1, 40725, Note_on_c, 0, 65, 0
1, 40725, Note_on_c, 0, 76, 0
1, 40726, Note_on_c, 0, 61, 0
1, 40726, Note_on_c, 0, 88, 0
1, 40726, Note_on_c, 0, 60, 0
1, 40727, Note_on_c, 0, 84, 0
1, 40744, Note_on_c, 0, 88, 73
1, 40744, Note_on_c, 0, 76, 62
1, 40745, Note_on_c, 0, 65, 77
1, 40745, Note_on_c, 0, 84, 67
1, 40746, Note_on_c, 0, 61, 57
1, 40746, Note_on_c, 0, 60, 64
1, 40749, Note_on_c, 0, 55, 62
1, 40775, Note_on_c, 0, 55, 0
1, 40777, Note_on_c, 0, 88, 0
1, 40777, Note_on_c, 0, 60, 0
1, 40778, Note_on_c, 0, 76, 0
1, 40778, Note_on_c, 0, 65, 0
1, 40781, Note_on_c, 0, 84, 0
1, 40781, Note_on_c, 0, 61, 0
1, 40811, Note_on_c, 0, 60, 80
1, 40812, Note_on_c, 0, 65, 80
1, 40812, Note_on_c, 0, 61, 68
1, 40813, Note_on_c, 0, 76, 84
1, 40814, Note_on_c, 0, 88, 84
1, 40814, Note_on_c, 0, 55, 68
1, 40816, Note_on_c, 0, 84, 84
1, 40816, Note_on_c, 0, 64, 51
1, 40821, Note_on_c, 0, 64, 0
1, 40826, Note_on_c, 0, 65, 0
1, 40832, Note_on_c, 0, 55, 0
1, 40835, Note_on_c, 0, 60, 0
1, 40836, Note_on_c, 0, 88, 0
1, 40838, Note_on_c, 0, 76, 0
1, 40839, Note_on_c, 0, 61, 0
1, 40840, Note_on_c, 0, 84, 0
1, 40856, Note_on_c, 0, 61, 76
1, 40857, Note_on_c, 0, 60, 78
1, 40857, Note_on_c, 0, 65, 91
1, 40858, Note_on_c, 0, 88, 77
1, 40858, Note_on_c, 0, 55, 65
1, 40858, Note_on_c, 0, 76, 68
1, 40859, Note_on_c, 0, 84, 70
1, 40861, Note_on_c, 0, 58, 42
1, 40862, Note_on_c, 0, 56, 38
1, 40862, Control_c, 0, 64, 0
1, 40864, Note_on_c, 0, 86, 35
1, 40867, Note_on_c, 0, 56, 0
1, 40869, Note_on_c, 0, 65, 0
1, 40870, Note_on_c, 0, 86, 0
1, 40871, Note_on_c, 0, 88, 0
1, 40873, Note_on_c, 0, 84, 0
1, 40877, Note_on_c, 0, 76, 0
1, 40880, Note_on_c, 0, 60, 0
1, 40883, Note_on_c, 0, 61, 0
1, 40888, Note_on_c, 0, 55, 0
1, 40888, Note_on_c, 0, 58, 0
1, 40981, Note_on_c, 0, 64, 30
1, 41000, Note_on_c, 0, 64, 0
1, 41035, Control_c, 0, 64, 127
1, 41076, Control_c, 0, 64, 0
1, 41088, Note_on_c, 0, 60, 58
1, 41088, Note_on_c, 0, 71, 42
1, 41089, Note_on_c, 0, 64, 56
1, 41089, Note_on_c, 0, 67, 37
1, 41090, Note_on_c, 0, 59, 46
1, 41100, Note_on_c, 0, 60, 0
1, 41104, Note_on_c, 0, 64, 0
1, 41106, Note_on_c, 0, 67, 0
1, 41108, Note_on_c, 0, 59, 0
1, 41111, Note_on_c, 0, 71, 0
1, 41161, Note_on_c, 0, 50, 60
1, 41161, Note_on_c, 0, 74, 68
1, 41164, Note_on_c, 0, 67, 60
1, 41164, Note_on_c, 0, 64, 71
1, 41170, Control_c, 0, 64, 127
1, 41172, Note_on_c, 0, 67, 0
1, 41177, Note_on_c, 0, 74, 0
1, 41179, Note_on_c, 0, 64, 0
1, 41191, Control_c, 0, 64, 0
1, 41214, Note_on_c, 0, 50, 0
1, 41270, Note_on_c, 0, 49, 42
1, 41271, Note_on_c, 0, 66, 38
1, 41272, Note_on_c, 0, 63, 35
1, 41273, Note_on_c, 0, 71, 36
1, 41273, Note_on_c, 0, 60, 45
1, 41274, Note_on_c, 0, 50, 53
1, 41283, Note_on_c, 0, 49, 0
1, 41327, Note_on_c, 0, 71, 0
1, 41338, Note_on_c, 0, 60, 0
1, 41338, Note_on_c, 0, 66, 0
1, 41341, Note_on_c, 0, 63, 0
1, 41388, Note_on_c, 0, 62, 67
1, 41408, Note_on_c, 0, 50, 0
1, 41409, Note_on_c, 0, 62, 0
1, 41430, Note_on_c, 0, 64, 58
1, 41485, Note_on_c, 0, 64, 0
1, 41497, Note_on_c, 0, 67, 75
1, 41589, Note_on_c, 0, 67, 0
1, 41599, Note_on_c, 0, 59, 47
1, 41600, Note_on_c, 0, 67, 29
1, 41603, Note_on_c, 0, 64, 50
1, 41603, Note_on_c, 0, 49, 32
1, 41622, Note_on_c, 0, 59, 0
1, 41628, Note_on_c, 0, 67, 0
1, 41639, Note_on_c, 0, 49, 0
1, 41642, Note_on_c, 0, 64, 0
1, 41649, Note_on_c, 0, 58, 39
1, 41652, Note_on_c, 0, 63, 27
1, 41653, Note_on_c, 0, 48, 36
1, 41654, Note_on_c, 0, 67, 11
1, 41685, Note_on_c, 0, 48, 0
1, 41701, Note_on_c, 0, 58, 0
1, 41702, Note_on_c, 0, 63, 0
1, 41713, Note_on_c, 0, 62, 40
1, 41716, Note_on_c, 0, 47, 40
1, 41725, Note_on_c, 0, 57, 9
1, 41754, Control_c, 0, 64, 127
1, 41873, Note_on_c, 0, 57, 0
1, 41887, Note_on_c, 0, 47, 0
1, 41891, Note_on_c, 0, 62, 0
1, 41914, Note_on_c, 0, 67, 0
1, 41944, Control_c, 0, 64, 0
1, 41948, Note_on_c, 0, 67, 33
1, 41949, Note_on_c, 0, 56, 40
1, 41952, Note_on_c, 0, 34, 30
1, 41952, Note_on_c, 0, 61, 44
1, 41952, Note_on_c, 0, 46, 25
1, 41983, Note_on_c, 0, 56, 0
1, 41984, Note_on_c, 0, 34, 0
1, 41985, Note_on_c, 0, 46, 0
1, 41987, Note_on_c, 0, 61, 0
1, 41988, Note_on_c, 0, 67, 0
1, 42019, Note_on_c, 0, 56, 36
1, 42021, Note_on_c, 0, 61, 42
1, 42022, Note_on_c, 0, 67, 22
1, 42023, Note_on_c, 0, 46, 28
1, 42023, Note_on_c, 0, 34, 30
1, 42033, Note_on_c, 0, 67, 0
1, 42039, Note_on_c, 0, 61, 0
1, 42040, Note_on_c, 0, 56, 0
1, 42041, Note_on_c, 0, 46, 0
1, 42047, Note_on_c, 0, 34, 0
1, 42126, Note_on_c, 0, 56, 44
1, 42127, Note_on_c, 0, 46, 38
1, 42127, Note_on_c, 0, 67, 34
1, 42128, Note_on_c, 0, 34, 38
1, 42128, Note_on_c, 0, 61, 44
1, 42142, Note_on_c, 0, 56, 0
1, 42144, Note_on_c, 0, 46, 0
1, 42145, Note_on_c, 0, 34, 0
1, 42145, Note_on_c, 0, 67, 0
1, 42147, Note_on_c, 0, 61, 0
1, 42232, Note_on_c, 0, 56, 33
1, 42233, Note_on_c, 0, 67, 27
1, 42234, Note_on_c, 0, 61, 42
1, 42236, Note_on_c, 0, 34, 37
1, 42248, Note_on_c, 0, 67, 0
1, 42258, Note_on_c, 0, 56, 0
1, 42259, Note_on_c, 0, 61, 0
1, 42265, Note_on_c, 0, 34, 0
1, 42392, Note_on_c, 0, 33, 36
1, 42393, Note_on_c, 0, 45, 30
1, 42395, Note_on_c, 0, 60, 39
1, 42395, Note_on_c, 0, 67, 20
1, 42395, Note_on_c, 0, 55, 39
1, 42411, Note_on_c, 0, 55, 0
1, 42411, Note_on_c, 0, 45, 0
1, 42412, Note_on_c, 0, 33, 0
1, 42416, Note_on_c, 0, 60, 0
1, 42419, Note_on_c, 0, 67, 0
1, 42467, Note_on_c, 0, 67, 32
1, 42469, Note_on_c, 0, 33, 45
1, 42471, Note_on_c, 0, 45, 30
1, 42471, Note_on_c, 0, 55, 37
1, 42474, Note_on_c, 0, 60, 35
1, 42481, Note_on_c, 0, 60, 0
1, 42481, Note_on_c, 0, 55, 0
1, 42482, Note_on_c, 0, 45, 0
1, 42484, Note_on_c, 0, 33, 0
1, 42487, Note_on_c, 0, 67, 0
1, 42521, Note_on_c, 0, 33, 39
1, 42522, Note_on_c, 0, 60, 54
1, 42523, Note_on_c, 0, 55, 44
1, 42523, Note_on_c, 0, 67, 22
1, 42524, Note_on_c, 0, 45, 25
1, 42533, Note_on_c, 0, 55, 0
1, 42536, Note_on_c, 0, 45, 0
1, 42536, Note_on_c, 0, 60, 0
1, 42537, Note_on_c, 0, 67, 0
1, 42538, Note_on_c, 0, 33, 0
1, 42591, Note_on_c, 0, 33, 41
1, 42592, Note_on_c, 0, 67, 35
1, 42592, Note_on_c, 0, 55, 48
1, 42594, Note_on_c, 0, 60, 49
1, 42595, Note_on_c, 0, 45, 32
1, 42602, Note_on_c, 0, 60, 0
1, 42602, Note_on_c, 0, 55, 0
1, 42603, Note_on_c, 0, 33, 0
1, 42604, Note_on_c, 0, 45, 0
1, 42610, Note_on_c, 0, 67, 0
1, 42651, Note_on_c, 0, 54, 45
1, 42653, Note_on_c, 0, 44, 44
1, 42653, Note_on_c, 0, 60, 53
1, 42654, Note_on_c, 0, 32, 45
1, 42667, Note_on_c, 0, 54, 0
1, 42668, Note_on_c, 0, 44, 0
1, 42669, Note_on_c, 0, 32, 0
1, 42674, Note_on_c, 0, 60, 0
1, 42731, Note_on_c, 0, 54, 40
1, 42731, Note_on_c, 0, 60, 60
1, 42731, Note_on_c, 0, 32, 52
1, 42732, Note_on_c, 0, 44, 39
1, 42737, Note_on_c, 0, 67, 18
1, 42746, Control_c, 0, 64, 127
1, 42783, Note_on_c, 0, 54, 0
1, 42787, Note_on_c, 0, 60, 0
1, 42794, Note_on_c, 0, 67, 0
1, 42802, Note_on_c, 0, 44, 0
1, 42805, Note_on_c, 0, 32, 0
1, 42861, Control_c, 0, 64, 0
1, 42864, Note_on_c, 0, 61, 68
1, 42864, Note_on_c, 0, 59, 70
1, 42865, Note_on_c, 0, 67, 55
1, 42866, Note_on_c, 0, 65, 68
1, 42867, Note_on_c, 0, 31, 58
1, 42867, Note_on_c, 0, 43, 56
1, 42880, Note_on_c, 0, 59, 0
1, 42888, Control_c, 0, 64, 127
1, 42895, Note_on_c, 0, 59, 26
1, 42912, Note_on_c, 0, 59, 0
1, 42926, Note_on_c, 0, 65, 0
1, 42926, Note_on_c, 0, 31, 0
1, 42928, Note_on_c, 0, 67, 0
1, 42928, Note_on_c, 0, 59, 34
1, 42937, Note_on_c, 0, 61, 0
1, 42940, Note_on_c, 0, 43, 0
1, 42943, Note_on_c, 0, 59, 0
1, 42952, Note_on_c, 0, 65, 30
1, 42959, Note_on_c, 0, 65, 0
1, 42961, Note_on_c, 0, 59, 36
1, 42977, Note_on_c, 0, 59, 0
1, 42983, Note_on_c, 0, 65, 34
1, 42992, Note_on_c, 0, 65, 0
1, 42995, Note_on_c, 0, 59, 32
1, 43011, Note_on_c, 0, 59, 0
1, 43013, Note_on_c, 0, 61, 25
1, 43016, Note_on_c, 0, 65, 24
1, 43024, Note_on_c, 0, 65, 0
1, 43030, Note_on_c, 0, 61, 0
1, 43030, Note_on_c, 0, 59, 33
1, 43042, Note_on_c, 0, 59, 0
1, 43044, Note_on_c, 0, 67, 15
1, 43045, Note_on_c, 0, 61, 28
1, 43047, Note_on_c, 0, 65, 34
1, 43054, Note_on_c, 0, 65, 0
1, 43059, Note_on_c, 0, 67, 0
1, 43060, Note_on_c, 0, 59, 28
1, 43074, Note_on_c, 0, 59, 0
1, 43079, Note_on_c, 0, 65, 38
1, 43079, Note_on_c, 0, 67, 18
1, 43086, Note_on_c, 0, 65, 0
1, 43088, Note_on_c, 0, 67, 0
1, 43091, Note_on_c, 0, 59, 30
1, 43092, Note_on_c, 0, 61, 0
1, 43105, Note_on_c, 0, 59, 0
1, 43108, Note_on_c, 0, 61, 28
1, 43109, Note_on_c, 0, 65, 44
1, 43111, Note_on_c, 0, 67, 22
1, 43116, Note_on_c, 0, 65, 0
1, 43119, Note_on_c, 0, 67, 0
1, 43121, Note_on_c, 0, 59, 32
1, 43122, Note_on_c, 0, 61, 0
1, 43136, Note_on_c, 0, 59, 0
1, 43139, Note_on_c, 0, 61, 39
1, 43143, Note_on_c, 0, 65, 32
1, 43149, Note_on_c, 0, 65, 0
1, 43153, Note_on_c, 0, 61, 0
1, 43153, Note_on_c, 0, 59, 34
1, 43167, Note_on_c, 0, 59, 0
1, 43170, Note_on_c, 0, 61, 33
1, 43171, Note_on_c, 0, 67, 24
1, 43175, Note_on_c, 0, 65, 26
1, 43181, Note_on_c, 0, 65, 0
1, 43183, Note_on_c, 0, 67, 0
1, 43184, Note_on_c, 0, 61, 0
1, 43184, Note_on_c, 0, 59, 32
1, 43197, Note_on_c, 0, 59, 0
1, 43202, Note_on_c, 0, 61, 34
1, 43214, Note_on_c, 0, 59, 30
1, 43216, Note_on_c, 0, 61, 0
1, 43229, Note_on_c, 0, 59, 0
1, 43232, Note_on_c, 0, 61, 35
1, 43237, Note_on_c, 0, 67, 17
1, 43245, Note_on_c, 0, 67, 0
1, 43246, Note_on_c, 0, 61, 0
1, 43246, Note_on_c, 0, 59, 33
1, 43260, Note_on_c, 0, 59, 0
1, 43261, Note_on_c, 0, 61, 32
1, 43262, Note_on_c, 0, 67, 15
1, 43275, Note_on_c, 0, 61, 0
1, 43277, Note_on_c, 0, 59, 34
1, 43278, Note_on_c, 0, 67, 0
1, 43292, Note_on_c, 0, 59, 0
1, 43292, Note_on_c, 0, 67, 17
1, 43294, Note_on_c, 0, 61, 38
1, 43299, Note_on_c, 0, 65, 24
1, 43305, Note_on_c, 0, 65, 0
1, 43307, Note_on_c, 0, 61, 0
1, 43311, Note_on_c, 0, 59, 30
1, 43312, Note_on_c, 0, 67, 0
1, 43320, Note_on_c, 0, 59, 0
1, 43321, Note_on_c, 0, 67, 17
1, 43325, Note_on_c, 0, 61, 32
1, 43335, Note_on_c, 0, 61, 0
1, 43341, Note_on_c, 0, 59, 36
1, 43353, Note_on_c, 0, 59, 0
1, 43354, Note_on_c, 0, 61, 33
1, 43365, Note_on_c, 0, 61, 0
1, 43370, Note_on_c, 0, 59, 26
1, 43382, Note_on_c, 0, 59, 0
1, 43385, Note_on_c, 0, 61, 28
1, 43387, Note_on_c, 0, 65, 28
1, 43394, Note_on_c, 0, 65, 0
1, 43396, Note_on_c, 0, 61, 0
1, 43401, Note_on_c, 0, 59, 32
1, 43413, Note_on_c, 0, 59, 0
1, 43415, Note_on_c, 0, 61, 35
1, 43427, Note_on_c, 0, 61, 0
1, 43431, Note_on_c, 0, 59, 29
1, 43444, Note_on_c, 0, 59, 0
1, 43446, Note_on_c, 0, 61, 29
1, 43458, Note_on_c, 0, 61, 0
1, 43460, Note_on_c, 0, 59, 24
1, 43475, Note_on_c, 0, 59, 0
1, 43476, Note_on_c, 0, 61, 25
1, 43488, Note_on_c, 0, 61, 0
1, 43489, Note_on_c, 0, 59, 19
1, 43502, Note_on_c, 0, 59, 0
1, 43505, Note_on_c, 0, 61, 25
1, 43509, Note_on_c, 0, 65, 30
1, 43516, Note_on_c, 0, 65, 0
1, 43517, Note_on_c, 0, 61, 0
1, 43523, Note_on_c, 0, 59, 26
1, 43536, Note_on_c, 0, 61, 14
1, 43544, Note_on_c, 0, 59, 0
1, 43548, Note_on_c, 0, 61, 0
1, 43552, Note_on_c, 0, 67, 0
1, 43697, Control_c, 0, 64, 0
1, 43697, End_track
0, 0, End_of_file
