0, 0, Header, 1, 4, 120
1, 0, Start_track
1, 0, Title_t, "Just a Gigolo"
1, 0, Text_t, "I heard a Cd dedicated to Monk, with Jessica Williams playing this song recently. She plays it beautifully with lots of Monk type re-harmonizing on this old tune. \012"
1, 0, Text_t, "Doug McKenzie  dougmck@pipeline.com.au\012"
1, 0, Time_signature, 4, 2, 24, 8
1, 0, Key_signature, -1, "major"
1, 0, Tempo, 800000
1, 0, Marker_t, "dougmck@pipeline.com.au"
1, 30720, Tempo, 857143
1, 30720, End_track
2, 0, Start_track
2, 0, Title_t, "Just a Gigolo"
2, 216, Control_c, 0, 64, 127
2, 225, Note_on_c, 0, 72, 54
2, 227, Note_on_c, 0, 48, 63
2, 229, Control_c, 0, 64, 0
2, 267, Control_c, 0, 64, 127
2, 270, Note_on_c, 0, 49, 57
2, 270, Note_on_c, 0, 73, 57
2, 271, Note_on_c, 0, 48, 0
2, 274, Note_on_c, 0, 72, 0
2, 296, Note_on_c, 0, 49, 0
2, 296, Note_on_c, 0, 73, 0
2, 298, Note_on_c, 0, 74, 73
2, 301, Note_on_c, 0, 50, 52
2, 320, Note_on_c, 0, 75, 69
2, 322, Note_on_c, 0, 74, 0
2, 322, Note_on_c, 0, 51, 57
2, 324, Note_on_c, 0, 50, 0
2, 336, Note_on_c, 0, 75, 0
2, 341, Note_on_c, 0, 76, 68
2, 341, Note_on_c, 0, 52, 57
2, 353, Note_on_c, 0, 51, 0
2, 357, Note_on_c, 0, 52, 0
2, 357, Note_on_c, 0, 53, 53
2, 358, Note_on_c, 0, 77, 57
2, 359, Note_on_c, 0, 76, 0
2, 376, Note_on_c, 0, 54, 34
2, 376, Note_on_c, 0, 78, 49
2, 378, Note_on_c, 0, 53, 0
2, 382, Note_on_c, 0, 77, 0
2, 386, Note_on_c, 0, 78, 0
2, 387, Note_on_c, 0, 55, 68
2, 387, Note_on_c, 0, 79, 37
2, 392, Note_on_c, 0, 55, 0
2, 409, Note_on_c, 0, 56, 50
2, 409, Note_on_c, 0, 80, 67
2, 415, Note_on_c, 0, 79, 0
2, 415, Note_on_c, 0, 54, 0
2, 424, Note_on_c, 0, 80, 0
2, 425, Control_c, 0, 64, 0
2, 429, Note_on_c, 0, 57, 66
2, 429, Note_on_c, 0, 81, 80
2, 465, Control_c, 0, 64, 127
2, 469, Note_on_c, 0, 56, 0
2, 477, Note_on_c, 0, 81, 0
2, 484, Note_on_c, 0, 81, 80
2, 528, Note_on_c, 0, 57, 0
2, 529, Note_on_c, 0, 81, 0
2, 546, Note_on_c, 0, 57, 53
2, 546, Note_on_c, 0, 81, 58
2, 588, Note_on_c, 0, 57, 0
2, 589, Note_on_c, 0, 81, 0
2, 614, Note_on_c, 0, 81, 53
2, 615, Note_on_c, 0, 57, 36
2, 652, Note_on_c, 0, 57, 0
2, 657, Note_on_c, 0, 81, 0
2, 858, Note_on_c, 0, 81, 50
2, 861, Note_on_c, 0, 74, 51
2, 862, Note_on_c, 0, 48, 36
2, 863, Note_on_c, 0, 69, 44
2, 866, Control_c, 0, 64, 0
2, 870, Note_on_c, 0, 58, 15
2, 887, Control_c, 0, 64, 127
2, 896, Note_on_c, 0, 48, 0
2, 910, Note_on_c, 0, 58, 0
2, 940, Note_on_c, 0, 58, 36
2, 942, Note_on_c, 0, 81, 0
2, 944, Note_on_c, 0, 74, 0
2, 948, Note_on_c, 0, 69, 0
2, 966, Note_on_c, 0, 64, 35
2, 993, Note_on_c, 0, 69, 44
2, 1003, Note_on_c, 0, 69, 0
2, 1009, Note_on_c, 0, 73, 33
2, 1020, Note_on_c, 0, 73, 0
2, 1033, Note_on_c, 0, 76, 45
2, 1052, Note_on_c, 0, 76, 0
2, 1056, Note_on_c, 0, 81, 34
2, 1073, Note_on_c, 0, 81, 0
2, 1075, Note_on_c, 0, 85, 59
2, 1082, Note_on_c, 0, 85, 0
2, 1100, Note_on_c, 0, 89, 42
2, 1113, Note_on_c, 0, 89, 0
2, 1123, Note_on_c, 0, 95, 32
2, 1124, Note_on_c, 0, 93, 37
2, 1135, Note_on_c, 0, 93, 0
2, 1136, Note_on_c, 0, 95, 0
2, 1142, Note_on_c, 0, 97, 46
2, 1146, Note_on_c, 0, 97, 0
2, 1167, Note_on_c, 0, 100, 45
2, 1190, Note_on_c, 0, 100, 0
2, 1193, Note_on_c, 0, 105, 71
2, 1212, Note_on_c, 0, 105, 0
2, 1219, Note_on_c, 0, 108, 66
2, 1224, Note_on_c, 0, 108, 0
2, 1386, Note_on_c, 0, 64, 0
2, 1404, Note_on_c, 0, 58, 0
2, 1405, Note_on_c, 0, 69, 72
2, 1457, Note_on_c, 0, 69, 0
2, 1508, Note_on_c, 0, 67, 66
2, 1511, Note_on_c, 0, 64, 66
2, 1515, Control_c, 0, 64, 0
2, 1515, Note_on_c, 0, 55, 42
2, 1516, Note_on_c, 0, 60, 46
2, 1516, Note_on_c, 0, 45, 34
2, 1517, Note_on_c, 0, 59, 50
2, 1547, Note_on_c, 0, 67, 0
2, 1553, Control_c, 0, 64, 127
2, 1566, Note_on_c, 0, 67, 68
2, 1589, Note_on_c, 0, 67, 0
2, 1600, Note_on_c, 0, 64, 0
2, 1609, Note_on_c, 0, 67, 66
2, 1618, Note_on_c, 0, 60, 0
2, 1618, Note_on_c, 0, 55, 0
2, 1625, Note_on_c, 0, 45, 0
2, 1630, Note_on_c, 0, 67, 0
2, 1644, Note_on_c, 0, 59, 0
2, 1652, Note_on_c, 0, 67, 64
2, 1665, Note_on_c, 0, 67, 0
2, 1705, Note_on_c, 0, 67, 61
2, 1707, Note_on_c, 0, 59, 60
2, 1708, Note_on_c, 0, 62, 53
2, 1709, Note_on_c, 0, 56, 25
2, 1709, Note_on_c, 0, 44, 43
2, 1710, Note_on_c, 0, 55, 49
2, 1716, Control_c, 0, 64, 0
2, 1744, Note_on_c, 0, 55, 0
2, 1745, Control_c, 0, 64, 127
2, 1763, Note_on_c, 0, 54, 33
2, 1799, Note_on_c, 0, 54, 0
2, 1821, Note_on_c, 0, 53, 44
2, 1827, Control_c, 0, 64, 0
2, 1854, Note_on_c, 0, 67, 0
2, 1856, Control_c, 0, 64, 127
2, 1881, Note_on_c, 0, 67, 50
2, 1905, Note_on_c, 0, 59, 0
2, 1906, Note_on_c, 0, 56, 0
2, 1907, Note_on_c, 0, 53, 0
2, 1909, Note_on_c, 0, 67, 0
2, 1912, Note_on_c, 0, 62, 0
2, 1930, Note_on_c, 0, 44, 0
2, 1983, Note_on_c, 0, 65, 50
2, 1986, Note_on_c, 0, 62, 47
2, 1987, Note_on_c, 0, 58, 35
2, 1989, Note_on_c, 0, 43, 36
2, 1989, Note_on_c, 0, 57, 36
2, 1991, Note_on_c, 0, 53, 22
2, 1992, Control_c, 0, 64, 0
2, 2026, Note_on_c, 0, 65, 0
2, 2030, Control_c, 0, 64, 127
2, 2052, Note_on_c, 0, 65, 57
2, 2090, Note_on_c, 0, 65, 0
2, 2112, Note_on_c, 0, 65, 55
2, 2127, Note_on_c, 0, 53, 0
2, 2135, Note_on_c, 0, 43, 0
2, 2144, Note_on_c, 0, 65, 0
2, 2170, Note_on_c, 0, 65, 48
2, 2181, Note_on_c, 0, 57, 0
2, 2195, Note_on_c, 0, 58, 0
2, 2196, Note_on_c, 0, 62, 0
2, 2208, Note_on_c, 0, 65, 0
2, 2251, Control_c, 0, 64, 0
2, 2251, Note_on_c, 0, 65, 44
2, 2252, Note_on_c, 0, 58, 35
2, 2252, Note_on_c, 0, 26, 33
2, 2252, Note_on_c, 0, 62, 50
2, 2253, Note_on_c, 0, 53, 24
2, 2255, Note_on_c, 0, 38, 20
2, 2272, Note_on_c, 0, 53, 0
2, 2272, Control_c, 0, 64, 127
2, 2278, Note_on_c, 0, 62, 0
2, 2279, Note_on_c, 0, 58, 0
2, 2280, Note_on_c, 0, 26, 0
2, 2283, Note_on_c, 0, 65, 0
2, 2288, Note_on_c, 0, 38, 0
2, 2339, Note_on_c, 0, 54, 43
2, 2339, Note_on_c, 0, 77, 57
2, 2340, Note_on_c, 0, 70, 40
2, 2382, Note_on_c, 0, 70, 0
2, 2416, Note_on_c, 0, 77, 0
2, 2424, Note_on_c, 0, 70, 25
2, 2425, Note_on_c, 0, 74, 39
2, 2425, Note_on_c, 0, 65, 38
2, 2430, Note_on_c, 0, 60, 28
2, 2466, Note_on_c, 0, 60, 0
2, 2469, Note_on_c, 0, 54, 0
2, 2610, Note_on_c, 0, 74, 0
2, 2654, Note_on_c, 0, 76, 55
2, 2660, Note_on_c, 0, 65, 0
2, 2707, Note_on_c, 0, 76, 0
2, 2715, Note_on_c, 0, 70, 0
2, 2797, Note_on_c, 0, 43, 45
2, 2798, Note_on_c, 0, 74, 62
2, 2812, Note_on_c, 0, 43, 0
2, 2892, Note_on_c, 0, 62, 34
2, 2894, Note_on_c, 0, 57, 26
2, 2896, Note_on_c, 0, 58, 32
2, 2959, Note_on_c, 0, 74, 0
2, 2963, Note_on_c, 0, 76, 62
2, 3002, Note_on_c, 0, 62, 0
2, 3003, Note_on_c, 0, 76, 0
2, 3008, Note_on_c, 0, 74, 56
2, 3009, Note_on_c, 0, 57, 0
2, 3012, Note_on_c, 0, 58, 0
2, 3025, Note_on_c, 0, 74, 0
2, 3090, Note_on_c, 0, 48, 44
2, 3091, Note_on_c, 0, 72, 51
2, 3093, Control_c, 0, 64, 0
2, 3117, Control_c, 0, 64, 127
2, 3142, Note_on_c, 0, 48, 0
2, 3169, Note_on_c, 0, 60, 30
2, 3215, Note_on_c, 0, 60, 0
2, 3215, Note_on_c, 0, 61, 46
2, 3250, Note_on_c, 0, 63, 46
2, 3266, Note_on_c, 0, 72, 0
2, 3281, Note_on_c, 0, 64, 42
2, 3298, Note_on_c, 0, 64, 0
2, 3305, Note_on_c, 0, 66, 39
2, 3329, Note_on_c, 0, 68, 44
2, 3331, Note_on_c, 0, 66, 0
2, 3342, Note_on_c, 0, 68, 0
2, 3347, Note_on_c, 0, 70, 55
2, 3358, Note_on_c, 0, 70, 0
2, 3368, Note_on_c, 0, 72, 61
2, 3382, Note_on_c, 0, 72, 0
2, 3387, Note_on_c, 0, 73, 38
2, 3409, Note_on_c, 0, 73, 0
2, 3409, Note_on_c, 0, 75, 54
2, 3421, Note_on_c, 0, 75, 0
2, 3433, Note_on_c, 0, 76, 40
2, 3447, Note_on_c, 0, 76, 0
2, 3453, Note_on_c, 0, 78, 38
2, 3466, Note_on_c, 0, 63, 0
2, 3469, Note_on_c, 0, 78, 0
2, 3471, Note_on_c, 0, 61, 0
2, 3476, Note_on_c, 0, 80, 44
2, 3487, Note_on_c, 0, 80, 0
2, 3499, Note_on_c, 0, 82, 42
2, 3509, Note_on_c, 0, 82, 0
2, 3521, Note_on_c, 0, 84, 53
2, 3534, Note_on_c, 0, 84, 0
2, 3549, Note_on_c, 0, 85, 48
2, 3562, Note_on_c, 0, 85, 0
2, 3573, Note_on_c, 0, 87, 52
2, 3586, Note_on_c, 0, 87, 0
2, 3601, Note_on_c, 0, 88, 47
2, 3604, Note_on_c, 0, 58, 46
2, 3606, Note_on_c, 0, 48, 36
2, 3616, Note_on_c, 0, 58, 0
2, 3619, Note_on_c, 0, 48, 0
2, 3625, Note_on_c, 0, 88, 0
2, 3630, Note_on_c, 0, 90, 49
2, 3653, Note_on_c, 0, 90, 0
2, 3661, Note_on_c, 0, 92, 57
2, 3680, Note_on_c, 0, 92, 0
2, 3691, Note_on_c, 0, 94, 50
2, 3704, Note_on_c, 0, 94, 0
2, 3723, Note_on_c, 0, 96, 34
2, 3727, Note_on_c, 0, 48, 28
2, 3728, Note_on_c, 0, 36, 33
2, 3739, Note_on_c, 0, 36, 0
2, 3743, Note_on_c, 0, 48, 0
2, 3752, Note_on_c, 0, 96, 0
2, 3759, Note_on_c, 0, 97, 59
2, 3789, Note_on_c, 0, 97, 0
2, 3798, Note_on_c, 0, 99, 68
2, 3802, Note_on_c, 0, 97, 20
2, 3808, Note_on_c, 0, 97, 0
2, 3829, Note_on_c, 0, 99, 0
2, 3834, Note_on_c, 0, 101, 66
2, 3864, Note_on_c, 0, 101, 0
2, 3872, Note_on_c, 0, 102, 61
2, 3906, Note_on_c, 0, 102, 0
2, 3913, Note_on_c, 0, 104, 67
2, 3953, Note_on_c, 0, 104, 0
2, 3959, Note_on_c, 0, 103, 56
2, 3962, Note_on_c, 0, 43, 40
2, 3965, Control_c, 0, 64, 0
2, 3986, Control_c, 0, 64, 127
2, 3993, Note_on_c, 0, 103, 0
2, 4013, Note_on_c, 0, 43, 0
2, 4017, Note_on_c, 0, 55, 49
2, 4063, Note_on_c, 0, 55, 0
2, 4070, Note_on_c, 0, 79, 55
2, 4072, Note_on_c, 0, 58, 42
2, 4096, Note_on_c, 0, 79, 0
2, 4125, Note_on_c, 0, 79, 62
2, 4129, Note_on_c, 0, 62, 39
2, 4131, Note_on_c, 0, 74, 41
2, 4147, Note_on_c, 0, 70, 1
2, 4162, Note_on_c, 0, 79, 0
2, 4175, Note_on_c, 0, 70, 0
2, 4179, Note_on_c, 0, 79, 58
2, 4180, Note_on_c, 0, 65, 47
2, 4182, Note_on_c, 0, 70, 19
2, 4190, Note_on_c, 0, 74, 0
2, 4192, Note_on_c, 0, 65, 0
2, 4193, Note_on_c, 0, 79, 0
2, 4196, Note_on_c, 0, 70, 0
2, 4201, Note_on_c, 0, 58, 0
2, 4207, Note_on_c, 0, 62, 0
2, 4235, Note_on_c, 0, 58, 47
2, 4237, Note_on_c, 0, 65, 51
2, 4238, Note_on_c, 0, 67, 34
2, 4246, Note_on_c, 0, 58, 0
2, 4247, Note_on_c, 0, 67, 0
2, 4250, Note_on_c, 0, 65, 0
2, 4293, Note_on_c, 0, 67, 70
2, 4296, Note_on_c, 0, 58, 61
2, 4296, Note_on_c, 0, 62, 63
2, 4297, Note_on_c, 0, 55, 53
2, 4310, Control_c, 0, 64, 0
2, 4331, Note_on_c, 0, 54, 45
2, 4333, Note_on_c, 0, 55, 0
2, 4352, Note_on_c, 0, 54, 0
2, 4354, Note_on_c, 0, 53, 53
2, 4374, Note_on_c, 0, 53, 0
2, 4375, Note_on_c, 0, 52, 28
2, 4398, Note_on_c, 0, 51, 29
2, 4401, Note_on_c, 0, 52, 0
2, 4410, Control_c, 0, 64, 127
2, 4411, Note_on_c, 0, 51, 0
2, 4412, Note_on_c, 0, 50, 36
2, 4416, Note_on_c, 0, 62, 0
2, 4416, Note_on_c, 0, 58, 0
2, 4421, Note_on_c, 0, 67, 0
2, 4443, Note_on_c, 0, 49, 46
2, 4445, Note_on_c, 0, 50, 0
2, 4445, Note_on_c, 0, 59, 49
2, 4446, Note_on_c, 0, 67, 38
2, 4448, Note_on_c, 0, 63, 37
2, 4452, Control_c, 0, 64, 0
2, 4494, Control_c, 0, 64, 127
2, 4544, Note_on_c, 0, 67, 0
2, 4577, Note_on_c, 0, 67, 54
2, 4603, Note_on_c, 0, 49, 0
2, 4611, Note_on_c, 0, 67, 0
2, 4621, Note_on_c, 0, 59, 0
2, 4636, Note_on_c, 0, 63, 0
2, 4661, Note_on_c, 0, 65, 60
2, 4664, Note_on_c, 0, 62, 60
2, 4665, Note_on_c, 0, 43, 45
2, 4666, Note_on_c, 0, 58, 44
2, 4668, Note_on_c, 0, 53, 34
2, 4670, Note_on_c, 0, 55, 48
2, 4671, Control_c, 0, 64, 0
2, 4697, Note_on_c, 0, 65, 0
2, 4700, Control_c, 0, 64, 127
2, 4712, Note_on_c, 0, 65, 64
2, 4729, Note_on_c, 0, 53, 0
2, 4734, Note_on_c, 0, 65, 0
2, 4748, Note_on_c, 0, 43, 0
2, 4751, Note_on_c, 0, 65, 70
2, 4757, Note_on_c, 0, 62, 0
2, 4773, Note_on_c, 0, 65, 0
2, 4787, Note_on_c, 0, 55, 0
2, 4790, Note_on_c, 0, 65, 60
2, 4798, Note_on_c, 0, 58, 0
2, 4818, Note_on_c, 0, 65, 0
2, 4837, Note_on_c, 0, 26, 69
2, 4844, Control_c, 0, 64, 0
2, 4857, Note_on_c, 0, 26, 0
2, 4858, Control_c, 0, 64, 127
2, 4917, Note_on_c, 0, 77, 62
2, 4919, Note_on_c, 0, 74, 64
2, 4919, Note_on_c, 0, 70, 75
2, 4920, Note_on_c, 0, 65, 72
2, 4921, Note_on_c, 0, 54, 55
2, 4923, Note_on_c, 0, 60, 64
2, 4971, Note_on_c, 0, 65, 0
2, 4974, Note_on_c, 0, 54, 0
2, 4975, Note_on_c, 0, 70, 0
2, 4976, Note_on_c, 0, 77, 0
2, 4977, Note_on_c, 0, 60, 0
2, 4978, Note_on_c, 0, 74, 0
2, 5001, Note_on_c, 0, 74, 57
2, 5002, Note_on_c, 0, 77, 57
2, 5002, Note_on_c, 0, 54, 57
2, 5003, Note_on_c, 0, 70, 60
2, 5005, Note_on_c, 0, 65, 51
2, 5006, Note_on_c, 0, 60, 48
2, 5059, Note_on_c, 0, 60, 0
2, 5067, Note_on_c, 0, 65, 0
2, 5069, Note_on_c, 0, 70, 0
2, 5070, Note_on_c, 0, 74, 0
2, 5072, Note_on_c, 0, 54, 0
2, 5081, Note_on_c, 0, 77, 0
2, 5133, Note_on_c, 0, 77, 44
2, 5134, Note_on_c, 0, 54, 27
2, 5137, Note_on_c, 0, 74, 49
2, 5137, Note_on_c, 0, 65, 31
2, 5137, Note_on_c, 0, 60, 26
2, 5137, Note_on_c, 0, 70, 25
2, 5183, Note_on_c, 0, 60, 0
2, 5195, Note_on_c, 0, 74, 0
2, 5196, Note_on_c, 0, 65, 0
2, 5201, Note_on_c, 0, 54, 0
2, 5203, Note_on_c, 0, 77, 0
2, 5217, Note_on_c, 0, 70, 0
2, 5294, Note_on_c, 0, 76, 82
2, 5297, Note_on_c, 0, 43, 58
2, 5299, Control_c, 0, 64, 0
2, 5315, Control_c, 0, 64, 127
2, 5328, Note_on_c, 0, 43, 0
2, 5368, Note_on_c, 0, 58, 42
2, 5420, Note_on_c, 0, 76, 0
2, 5421, Note_on_c, 0, 62, 44
2, 5422, Note_on_c, 0, 70, 39
2, 5422, Note_on_c, 0, 65, 47
2, 5468, Note_on_c, 0, 62, 0
2, 5469, Note_on_c, 0, 76, 70
2, 5476, Note_on_c, 0, 58, 0
2, 5476, Note_on_c, 0, 65, 0
2, 5482, Note_on_c, 0, 70, 0
2, 5501, Note_on_c, 0, 76, 0
2, 5523, Note_on_c, 0, 76, 61
2, 5525, Note_on_c, 0, 48, 48
2, 5528, Note_on_c, 0, 68, 37
2, 5528, Note_on_c, 0, 72, 37
2, 5528, Note_on_c, 0, 64, 47
2, 5529, Note_on_c, 0, 58, 32
2, 5531, Control_c, 0, 64, 0
2, 5563, Control_c, 0, 64, 127
2, 5574, Note_on_c, 0, 64, 0
2, 5597, Note_on_c, 0, 64, 32
2, 5608, Note_on_c, 0, 58, 0
2, 5612, Note_on_c, 0, 76, 0
2, 5614, Note_on_c, 0, 72, 0
2, 5631, Note_on_c, 0, 64, 0
2, 5674, Note_on_c, 0, 68, 0
2, 5699, Note_on_c, 0, 74, 50
2, 5701, Note_on_c, 0, 68, 39
2, 5702, Note_on_c, 0, 64, 42
2, 5702, Note_on_c, 0, 58, 28
2, 5748, Note_on_c, 0, 74, 0
2, 5781, Note_on_c, 0, 64, 0
2, 5787, Note_on_c, 0, 68, 0
2, 5792, Note_on_c, 0, 76, 48
2, 5887, Note_on_c, 0, 76, 0
2, 5894, Note_on_c, 0, 48, 0
2, 5901, Note_on_c, 0, 58, 0
2, 5954, Note_on_c, 0, 74, 53
2, 5956, Note_on_c, 0, 60, 40
2, 5957, Note_on_c, 0, 67, 45
2, 5957, Control_c, 0, 64, 0
2, 5959, Note_on_c, 0, 55, 32
2, 5959, Note_on_c, 0, 45, 24
2, 5983, Control_c, 0, 64, 127
2, 6016, Note_on_c, 0, 74, 0
2, 6018, Note_on_c, 0, 60, 0
2, 6025, Note_on_c, 0, 72, 53
2, 6040, Note_on_c, 0, 55, 0
2, 6044, Note_on_c, 0, 45, 0
2, 6047, Note_on_c, 0, 67, 0
2, 6063, Note_on_c, 0, 72, 0
2, 6195, Note_on_c, 0, 72, 38
2, 6196, Note_on_c, 0, 54, 34
2, 6197, Note_on_c, 0, 65, 43
2, 6198, Note_on_c, 0, 60, 40
2, 6198, Note_on_c, 0, 44, 33
2, 6203, Control_c, 0, 64, 0
2, 6230, Control_c, 0, 64, 127
2, 6241, Note_on_c, 0, 72, 0
2, 6257, Note_on_c, 0, 72, 58
2, 6258, Note_on_c, 0, 60, 0
2, 6264, Note_on_c, 0, 65, 0
2, 6280, Note_on_c, 0, 72, 0
2, 6280, Note_on_c, 0, 54, 0
2, 6287, Note_on_c, 0, 44, 0
2, 6366, Note_on_c, 0, 58, 38
2, 6366, Note_on_c, 0, 43, 38
2, 6368, Note_on_c, 0, 65, 56
2, 6370, Note_on_c, 0, 53, 28
2, 6377, Control_c, 0, 64, 0
2, 6408, Control_c, 0, 64, 127
2, 6427, Note_on_c, 0, 65, 0
2, 6445, Note_on_c, 0, 58, 0
2, 6451, Note_on_c, 0, 58, 18
2, 6455, Note_on_c, 0, 70, 1
2, 6456, Note_on_c, 0, 65, 44
2, 6457, Note_on_c, 0, 50, 25
2, 6465, Note_on_c, 0, 53, 0
2, 6466, Note_on_c, 0, 50, 0
2, 6474, Note_on_c, 0, 43, 0
2, 6503, Note_on_c, 0, 65, 0
2, 6519, Note_on_c, 0, 58, 0
2, 6546, Note_on_c, 0, 70, 0
2, 6578, Note_on_c, 0, 58, 28
2, 6581, Control_c, 0, 64, 0
2, 6581, Note_on_c, 0, 64, 34
2, 6582, Note_on_c, 0, 36, 24
2, 6582, Note_on_c, 0, 24, 24
2, 6599, Control_c, 0, 64, 127
2, 6614, Note_on_c, 0, 58, 0
2, 6650, Note_on_c, 0, 64, 0
2, 6723, Note_on_c, 0, 24, 0
2, 6735, Note_on_c, 0, 36, 0
2, 6739, Note_on_c, 0, 67, 73
2, 6786, Note_on_c, 0, 68, 74
2, 6791, Note_on_c, 0, 67, 0
2, 6813, Note_on_c, 0, 68, 0
2, 6818, Note_on_c, 0, 69, 71
2, 6842, Note_on_c, 0, 70, 59
2, 6847, Note_on_c, 0, 69, 0
2, 6867, Note_on_c, 0, 70, 0
2, 6867, Note_on_c, 0, 71, 62
2, 6890, Note_on_c, 0, 71, 0
2, 6897, Note_on_c, 0, 74, 76
2, 7109, Note_on_c, 0, 74, 0
2, 7114, Note_on_c, 0, 73, 43
2, 7234, Note_on_c, 0, 42, 46
2, 7236, Note_on_c, 0, 72, 82
2, 7236, Control_c, 0, 64, 0
2, 7241, Note_on_c, 0, 73, 0
2, 7252, Control_c, 0, 64, 127
2, 7258, Note_on_c, 0, 42, 0
2, 7313, Note_on_c, 0, 72, 0
2, 7344, Note_on_c, 0, 72, 39
2, 7345, Note_on_c, 0, 68, 40
2, 7345, Note_on_c, 0, 54, 38
2, 7346, Note_on_c, 0, 64, 33
2, 7349, Note_on_c, 0, 58, 31
2, 7407, Note_on_c, 0, 72, 0
2, 7421, Note_on_c, 0, 72, 37
2, 7480, Note_on_c, 0, 72, 0
2, 7503, Note_on_c, 0, 72, 36
2, 7525, Note_on_c, 0, 58, 0
2, 7525, Note_on_c, 0, 54, 0
2, 7657, Note_on_c, 0, 72, 0
2, 7688, Note_on_c, 0, 64, 0
2, 7690, Note_on_c, 0, 72, 48
2, 7691, Note_on_c, 0, 35, 46
2, 7692, Note_on_c, 0, 68, 0
2, 7695, Control_c, 0, 64, 0
2, 7707, Note_on_c, 0, 35, 0
2, 7710, Control_c, 0, 64, 127
2, 7816, Note_on_c, 0, 62, 40
2, 7816, Note_on_c, 0, 66, 35
2, 7818, Note_on_c, 0, 51, 29
2, 7820, Note_on_c, 0, 57, 24
2, 7902, Note_on_c, 0, 62, 0
2, 8056, Note_on_c, 0, 72, 0
2, 8077, Note_on_c, 0, 72, 47
2, 8097, Note_on_c, 0, 57, 0
2, 8102, Note_on_c, 0, 51, 0
2, 8165, Note_on_c, 0, 66, 0
2, 8168, Note_on_c, 0, 72, 0
2, 8204, Note_on_c, 0, 70, 55
2, 8204, Note_on_c, 0, 61, 47
2, 8205, Note_on_c, 0, 51, 47
2, 8208, Note_on_c, 0, 65, 48
2, 8210, Note_on_c, 0, 60, 47
2, 8218, Control_c, 0, 64, 0
2, 8254, Control_c, 0, 64, 127
2, 8266, Note_on_c, 0, 70, 0
2, 8271, Note_on_c, 0, 60, 0
2, 8277, Note_on_c, 0, 70, 38
2, 8279, Note_on_c, 0, 58, 57
2, 8282, Control_c, 0, 64, 0
2, 8305, Control_c, 0, 64, 127
2, 8331, Note_on_c, 0, 70, 0
2, 8337, Note_on_c, 0, 61, 0
2, 8339, Note_on_c, 0, 65, 0
2, 8343, Note_on_c, 0, 58, 0
2, 8348, Note_on_c, 0, 57, 42
2, 8349, Note_on_c, 0, 70, 55
2, 8349, Note_on_c, 0, 61, 36
2, 8351, Note_on_c, 0, 65, 32
2, 8357, Control_c, 0, 64, 0
2, 8378, Control_c, 0, 64, 127
2, 8388, Note_on_c, 0, 51, 0
2, 8409, Note_on_c, 0, 57, 0
2, 8415, Note_on_c, 0, 51, 50
2, 8452, Note_on_c, 0, 51, 0
2, 8455, Note_on_c, 0, 65, 0
2, 8469, Note_on_c, 0, 61, 0
2, 8471, Note_on_c, 0, 70, 0
2, 8673, Note_on_c, 0, 61, 35
2, 8673, Note_on_c, 0, 70, 46
2, 8674, Note_on_c, 0, 45, 36
2, 8675, Note_on_c, 0, 33, 37
2, 8676, Note_on_c, 0, 64, 49
2, 8682, Control_c, 0, 64, 0
2, 8715, Control_c, 0, 64, 127
2, 8723, Note_on_c, 0, 33, 0
2, 8730, Note_on_c, 0, 45, 0
2, 8734, Note_on_c, 0, 61, 0
2, 8742, Note_on_c, 0, 64, 0
2, 8754, Note_on_c, 0, 70, 0
2, 8801, Note_on_c, 0, 70, 44
2, 8802, Note_on_c, 0, 76, 57
2, 8803, Note_on_c, 0, 67, 50
2, 8804, Note_on_c, 0, 64, 34
2, 8808, Note_on_c, 0, 73, 19
2, 8817, Note_on_c, 0, 67, 0
2, 8825, Note_on_c, 0, 73, 0
2, 8825, Note_on_c, 0, 76, 0
2, 8826, Note_on_c, 0, 70, 0
2, 8835, Note_on_c, 0, 64, 0
2, 8867, Note_on_c, 0, 79, 70
2, 8867, Note_on_c, 0, 67, 57
2, 8868, Note_on_c, 0, 73, 54
2, 8868, Note_on_c, 0, 70, 69
2, 8899, Note_on_c, 0, 67, 0
2, 8911, Note_on_c, 0, 79, 0
2, 8914, Note_on_c, 0, 70, 0
2, 8920, Note_on_c, 0, 73, 0
2, 8968, Note_on_c, 0, 67, 64
2, 8970, Note_on_c, 0, 61, 40
2, 8971, Note_on_c, 0, 51, 45
2, 8987, Control_c, 0, 64, 0
2, 8998, Control_c, 0, 64, 127
2, 9025, Note_on_c, 0, 61, 0
2, 9036, Note_on_c, 0, 51, 0
2, 9052, Note_on_c, 0, 67, 0
2, 9067, Note_on_c, 0, 66, 56
2, 9067, Note_on_c, 0, 54, 34
2, 9069, Note_on_c, 0, 60, 36
2, 9069, Note_on_c, 0, 50, 25
2, 9073, Control_c, 0, 64, 0
2, 9104, Control_c, 0, 64, 127
2, 9119, Note_on_c, 0, 60, 0
2, 9127, Note_on_c, 0, 66, 0
2, 9163, Note_on_c, 0, 66, 53
2, 9164, Note_on_c, 0, 69, 69
2, 9164, Note_on_c, 0, 60, 68
2, 9164, Note_on_c, 0, 63, 56
2, 9165, Note_on_c, 0, 54, 0
2, 9166, Note_on_c, 0, 57, 57
2, 9175, Control_c, 0, 64, 0
2, 9200, Control_c, 0, 64, 127
2, 9217, Note_on_c, 0, 63, 0
2, 9218, Note_on_c, 0, 60, 0
2, 9220, Note_on_c, 0, 66, 0
2, 9221, Note_on_c, 0, 69, 0
2, 9226, Note_on_c, 0, 57, 0
2, 9231, Note_on_c, 0, 68, 57
2, 9233, Note_on_c, 0, 56, 34
2, 9233, Control_c, 0, 64, 0
2, 9233, Note_on_c, 0, 63, 40
2, 9235, Note_on_c, 0, 60, 36
2, 9235, Note_on_c, 0, 66, 28
2, 9272, Control_c, 0, 64, 127
2, 9276, Note_on_c, 0, 60, 0
2, 9278, Note_on_c, 0, 63, 0
2, 9280, Note_on_c, 0, 68, 0
2, 9281, Note_on_c, 0, 66, 0
2, 9288, Note_on_c, 0, 63, 33
2, 9289, Note_on_c, 0, 69, 59
2, 9290, Note_on_c, 0, 57, 44
2, 9291, Note_on_c, 0, 56, 0
2, 9291, Note_on_c, 0, 60, 32
2, 9299, Note_on_c, 0, 60, 0
2, 9307, Note_on_c, 0, 63, 0
2, 9308, Note_on_c, 0, 57, 0
2, 9308, Note_on_c, 0, 69, 0
2, 9360, Note_on_c, 0, 72, 58
2, 9362, Note_on_c, 0, 66, 56
2, 9364, Note_on_c, 0, 60, 50
2, 9364, Note_on_c, 0, 63, 43
2, 9372, Control_c, 0, 64, 0
2, 9411, Note_on_c, 0, 50, 0
2, 9421, Control_c, 0, 64, 127
2, 9433, Note_on_c, 0, 50, 55
2, 9536, Note_on_c, 0, 63, 0
2, 9601, Note_on_c, 0, 72, 0
2, 9624, Note_on_c, 0, 60, 0
2, 9625, Note_on_c, 0, 66, 0
2, 9631, Note_on_c, 0, 70, 50
2, 9648, Note_on_c, 0, 50, 0
2, 9656, Note_on_c, 0, 70, 0
2, 9746, Note_on_c, 0, 69, 47
2, 9749, Note_on_c, 0, 43, 36
2, 9755, Control_c, 0, 64, 0
2, 9769, Control_c, 0, 64, 127
2, 9825, Note_on_c, 0, 69, 0
2, 9832, Note_on_c, 0, 57, 33
2, 9865, Note_on_c, 0, 57, 0
2, 9870, Note_on_c, 0, 58, 55
2, 9882, Note_on_c, 0, 58, 0
2, 9892, Note_on_c, 0, 43, 0
2, 9896, Note_on_c, 0, 62, 68
2, 9913, Note_on_c, 0, 62, 0
2, 9925, Note_on_c, 0, 66, 80
2, 9942, Note_on_c, 0, 66, 0
2, 9947, Note_on_c, 0, 69, 81
2, 9972, Note_on_c, 0, 66, 77
2, 9973, Note_on_c, 0, 69, 0
2, 9988, Note_on_c, 0, 66, 0
2, 9994, Note_on_c, 0, 67, 75
2, 10016, Note_on_c, 0, 69, 84
2, 10021, Note_on_c, 0, 67, 0
2, 10039, Note_on_c, 0, 70, 84
2, 10042, Note_on_c, 0, 69, 0
2, 10049, Note_on_c, 0, 70, 0
2, 10062, Note_on_c, 0, 74, 74
2, 10078, Note_on_c, 0, 74, 0
2, 10085, Note_on_c, 0, 78, 79
2, 10102, Control_c, 0, 64, 0
2, 10103, Note_on_c, 0, 78, 0
2, 10109, Note_on_c, 0, 81, 75
2, 10134, Note_on_c, 0, 81, 0
2, 10136, Note_on_c, 0, 78, 51
2, 10148, Note_on_c, 0, 78, 0
2, 10169, Note_on_c, 0, 79, 25
2, 10180, Note_on_c, 0, 79, 0
2, 10191, Note_on_c, 0, 81, 45
2, 10209, Note_on_c, 0, 81, 0
2, 10214, Note_on_c, 0, 82, 52
2, 10225, Note_on_c, 0, 82, 0
2, 10243, Note_on_c, 0, 86, 56
2, 10250, Note_on_c, 0, 86, 0
2, 10271, Note_on_c, 0, 90, 54
2, 10283, Note_on_c, 0, 90, 0
2, 10299, Note_on_c, 0, 93, 64
2, 10308, Note_on_c, 0, 93, 0
2, 10338, Note_on_c, 0, 96, 70
2, 10348, Note_on_c, 0, 96, 0
2, 10379, Note_on_c, 0, 93, 64
2, 10389, Note_on_c, 0, 93, 0
2, 10420, Note_on_c, 0, 94, 60
2, 10424, Note_on_c, 0, 57, 26
2, 10424, Note_on_c, 0, 58, 32
2, 10427, Note_on_c, 0, 62, 22
2, 10441, Note_on_c, 0, 94, 0
2, 10458, Note_on_c, 0, 90, 37
2, 10473, Note_on_c, 0, 90, 0
2, 10497, Note_on_c, 0, 93, 55
2, 10511, Note_on_c, 0, 93, 0
2, 10537, Note_on_c, 0, 86, 42
2, 10540, Control_c, 0, 64, 127
2, 10546, Note_on_c, 0, 86, 0
2, 10586, Note_on_c, 0, 82, 34
2, 10645, Note_on_c, 0, 81, 35
2, 10655, Note_on_c, 0, 82, 0
2, 10662, Note_on_c, 0, 62, 0
2, 10666, Note_on_c, 0, 57, 0
2, 10668, Note_on_c, 0, 58, 0
2, 10731, Note_on_c, 0, 81, 0
2, 10733, Note_on_c, 0, 79, 43
2, 10738, Note_on_c, 0, 46, 32
2, 10743, Control_c, 0, 64, 0
2, 10752, Control_c, 0, 64, 127
2, 10765, Note_on_c, 0, 46, 0
2, 10789, Note_on_c, 0, 79, 0
2, 10815, Note_on_c, 0, 82, 55
2, 10821, Note_on_c, 0, 74, 58
2, 10824, Note_on_c, 0, 65, 39
2, 10825, Note_on_c, 0, 62, 36
2, 10826, Note_on_c, 0, 60, 33
2, 10857, Note_on_c, 0, 82, 0
2, 10863, Note_on_c, 0, 74, 0
2, 10879, Note_on_c, 0, 81, 65
2, 10883, Note_on_c, 0, 72, 34
2, 10897, Note_on_c, 0, 81, 0
2, 10902, Note_on_c, 0, 72, 0
2, 10924, Note_on_c, 0, 65, 0
2, 10933, Note_on_c, 0, 70, 57
2, 10933, Note_on_c, 0, 79, 55
2, 10936, Note_on_c, 0, 62, 0
2, 10941, Note_on_c, 0, 60, 0
2, 10950, Note_on_c, 0, 70, 0
2, 10955, Note_on_c, 0, 79, 0
2, 11073, Note_on_c, 0, 82, 68
2, 11078, Note_on_c, 0, 72, 64
2, 11080, Note_on_c, 0, 39, 45
2, 11086, Control_c, 0, 64, 0
2, 11120, Control_c, 0, 64, 127
2, 11136, Note_on_c, 0, 39, 0
2, 11139, Note_on_c, 0, 82, 0
2, 11139, Note_on_c, 0, 46, 43
2, 11143, Note_on_c, 0, 72, 0
2, 11186, Note_on_c, 0, 46, 0
2, 11189, Note_on_c, 0, 55, 52
2, 11229, Note_on_c, 0, 55, 0
2, 11239, Note_on_c, 0, 58, 39
2, 11302, Note_on_c, 0, 61, 31
2, 11303, Note_on_c, 0, 65, 46
2, 11303, Note_on_c, 0, 60, 48
2, 11369, Note_on_c, 0, 58, 0
2, 11399, Note_on_c, 0, 58, 34
2, 11401, Note_on_c, 0, 60, 0
2, 11491, Note_on_c, 0, 65, 0
2, 11497, Note_on_c, 0, 61, 0
2, 11530, Note_on_c, 0, 69, 66
2, 11532, Note_on_c, 0, 60, 60
2, 11544, Note_on_c, 0, 58, 0
2, 11563, Note_on_c, 0, 69, 0
2, 11572, Note_on_c, 0, 60, 0
2, 11605, Note_on_c, 0, 67, 60
2, 11607, Note_on_c, 0, 58, 44
2, 11636, Note_on_c, 0, 58, 0
2, 11636, Note_on_c, 0, 67, 0
2, 11708, Note_on_c, 0, 69, 54
2, 11709, Note_on_c, 0, 65, 49
2, 11709, Note_on_c, 0, 64, 45
2, 11712, Note_on_c, 0, 50, 44
2, 11718, Control_c, 0, 64, 0
2, 11743, Control_c, 0, 64, 127
2, 11776, Note_on_c, 0, 69, 0
2, 11777, Note_on_c, 0, 57, 48
2, 11781, Note_on_c, 0, 65, 0
2, 11782, Note_on_c, 0, 64, 0
2, 11807, Note_on_c, 0, 57, 0
2, 11852, Note_on_c, 0, 65, 50
2, 11854, Note_on_c, 0, 62, 39
2, 11855, Note_on_c, 0, 57, 31
2, 11856, Note_on_c, 0, 60, 44
2, 11899, Note_on_c, 0, 57, 0
2, 11902, Note_on_c, 0, 62, 0
2, 11908, Note_on_c, 0, 60, 0
2, 11908, Note_on_c, 0, 65, 0
2, 12004, Note_on_c, 0, 50, 0
2, 12040, Note_on_c, 0, 67, 53
2, 12042, Note_on_c, 0, 62, 51
2, 12092, Note_on_c, 0, 62, 0
2, 12092, Note_on_c, 0, 67, 0
2, 12233, Note_on_c, 0, 65, 40
2, 12245, Note_on_c, 0, 65, 0
2, 12245, Note_on_c, 0, 67, 32
2, 12251, Note_on_c, 0, 67, 0
2, 12252, Note_on_c, 0, 64, 26
2, 12259, Note_on_c, 0, 69, 48
2, 12262, Note_on_c, 0, 64, 0
2, 12265, Note_on_c, 0, 65, 20
2, 12268, Note_on_c, 0, 69, 0
2, 12269, Note_on_c, 0, 71, 28
2, 12275, Note_on_c, 0, 65, 0
2, 12278, Note_on_c, 0, 67, 14
2, 12282, Note_on_c, 0, 71, 0
2, 12282, Note_on_c, 0, 72, 31
2, 12288, Note_on_c, 0, 67, 0
2, 12294, Note_on_c, 0, 74, 15
2, 12294, Note_on_c, 0, 69, 24
2, 12295, Note_on_c, 0, 72, 0
2, 12302, Note_on_c, 0, 69, 0
2, 12303, Note_on_c, 0, 71, 15
2, 12304, Note_on_c, 0, 76, 24
2, 12307, Note_on_c, 0, 74, 0
2, 12312, Note_on_c, 0, 71, 0
2, 12314, Note_on_c, 0, 72, 15
2, 12315, Note_on_c, 0, 76, 0
2, 12315, Note_on_c, 0, 77, 27
2, 12320, Note_on_c, 0, 72, 0
2, 12325, Note_on_c, 0, 77, 0
2, 12326, Note_on_c, 0, 74, 36
2, 12334, Note_on_c, 0, 74, 0
2, 12337, Note_on_c, 0, 76, 35
2, 12345, Note_on_c, 0, 76, 0
2, 12348, Note_on_c, 0, 83, 24
2, 12349, Note_on_c, 0, 77, 48
2, 12355, Note_on_c, 0, 83, 0
2, 12357, Note_on_c, 0, 77, 0
2, 12359, Note_on_c, 0, 84, 32
2, 12359, Note_on_c, 0, 79, 38
2, 12364, Note_on_c, 0, 84, 0
2, 12367, Note_on_c, 0, 79, 0
2, 12370, Note_on_c, 0, 86, 24
2, 12371, Note_on_c, 0, 81, 40
2, 12375, Note_on_c, 0, 86, 0
2, 12378, Note_on_c, 0, 81, 0
2, 12380, Note_on_c, 0, 83, 19
2, 12388, Note_on_c, 0, 83, 0
2, 12390, Note_on_c, 0, 84, 51
2, 12394, Note_on_c, 0, 84, 0
2, 12396, Note_on_c, 0, 86, 37
2, 12402, Note_on_c, 0, 86, 0
2, 12404, Note_on_c, 0, 88, 32
2, 12408, Note_on_c, 0, 31, 58
2, 12409, Note_on_c, 0, 43, 54
2, 12411, Note_on_c, 0, 91, 31
2, 12411, Note_on_c, 0, 93, 73
2, 12417, Note_on_c, 0, 91, 0
2, 12424, Control_c, 0, 64, 0
2, 12461, Control_c, 0, 64, 127
2, 12463, Note_on_c, 0, 93, 0
2, 12509, Note_on_c, 0, 93, 35
2, 12521, Note_on_c, 0, 31, 0
2, 12535, Note_on_c, 0, 43, 0
2, 12622, Note_on_c, 0, 64, 33
2, 12626, Note_on_c, 0, 59, 42
2, 12627, Note_on_c, 0, 53, 36
2, 12747, Note_on_c, 0, 93, 0
2, 12764, Note_on_c, 0, 88, 0
2, 12769, Note_on_c, 0, 59, 0
2, 12774, Note_on_c, 0, 53, 0
2, 12779, Note_on_c, 0, 64, 0
2, 12839, Note_on_c, 0, 63, 35
2, 12841, Note_on_c, 0, 88, 62
2, 12847, Note_on_c, 0, 64, 59
2, 12848, Note_on_c, 0, 88, 0
2, 12850, Note_on_c, 0, 63, 0
2, 12854, Note_on_c, 0, 65, 71
2, 12855, Note_on_c, 0, 89, 77
2, 12858, Control_c, 0, 64, 0
2, 12859, Note_on_c, 0, 64, 0
2, 12879, Control_c, 0, 64, 127
2, 12911, Note_on_c, 0, 86, 82
2, 12912, Note_on_c, 0, 62, 72
2, 12913, Note_on_c, 0, 89, 0
2, 12916, Note_on_c, 0, 65, 0
2, 12920, Control_c, 0, 64, 0
2, 12955, Control_c, 0, 64, 127
2, 12973, Note_on_c, 0, 86, 0
2, 12975, Note_on_c, 0, 84, 68
2, 12978, Note_on_c, 0, 62, 0
2, 12978, Control_c, 0, 64, 0
2, 12978, Note_on_c, 0, 60, 64
2, 12993, Control_c, 0, 64, 127
2, 13014, Note_on_c, 0, 84, 0
2, 13015, Note_on_c, 0, 60, 0
2, 13066, Note_on_c, 0, 36, 58
2, 13073, Control_c, 0, 64, 0
2, 13080, Control_c, 0, 64, 127
2, 13082, Note_on_c, 0, 36, 0
2, 13151, Note_on_c, 0, 68, 74
2, 13152, Note_on_c, 0, 72, 67
2, 13153, Note_on_c, 0, 58, 64
2, 13153, Note_on_c, 0, 64, 74
2, 13319, Note_on_c, 0, 68, 0
2, 13351, Note_on_c, 0, 69, 71
2, 13354, Note_on_c, 0, 72, 0
2, 13392, Note_on_c, 0, 64, 0
2, 13411, Note_on_c, 0, 69, 0
2, 13412, Note_on_c, 0, 58, 0
2, 13455, Note_on_c, 0, 76, 74
2, 13455, Note_on_c, 0, 79, 66
2, 13456, Note_on_c, 0, 73, 47
2, 13457, Note_on_c, 0, 58, 59
2, 13457, Note_on_c, 0, 69, 69
2, 13457, Note_on_c, 0, 64, 54
2, 13468, Control_c, 0, 64, 0
2, 13483, Control_c, 0, 64, 127
2, 13574, Note_on_c, 0, 64, 0
2, 13579, Note_on_c, 0, 58, 0
2, 13590, Note_on_c, 0, 69, 0
2, 13595, Note_on_c, 0, 73, 0
2, 13599, Note_on_c, 0, 76, 0
2, 13607, Note_on_c, 0, 79, 0
2, 13665, Note_on_c, 0, 77, 53
2, 13665, Note_on_c, 0, 67, 57
2, 13666, Note_on_c, 0, 62, 39
2, 13667, Note_on_c, 0, 57, 44
2, 13667, Note_on_c, 0, 72, 45
2, 13671, Control_c, 0, 64, 0
2, 13684, Control_c, 0, 64, 127
2, 13770, Note_on_c, 0, 62, 0
2, 13776, Note_on_c, 0, 77, 0
2, 13778, Note_on_c, 0, 57, 0
2, 13782, Note_on_c, 0, 72, 0
2, 13789, Note_on_c, 0, 67, 0
2, 13881, Note_on_c, 0, 70, 35
2, 13881, Note_on_c, 0, 67, 44
2, 13881, Note_on_c, 0, 63, 34
2, 13882, Note_on_c, 0, 59, 32
2, 13885, Note_on_c, 0, 56, 25
2, 13887, Control_c, 0, 64, 0
2, 13889, Note_on_c, 0, 49, 19
2, 13907, Control_c, 0, 64, 127
2, 13914, Note_on_c, 0, 67, 0
2, 13921, Note_on_c, 0, 59, 0
2, 13922, Note_on_c, 0, 70, 0
2, 13923, Note_on_c, 0, 49, 0
2, 13927, Note_on_c, 0, 56, 0
2, 13936, Note_on_c, 0, 63, 0
2, 13991, Note_on_c, 0, 69, 33
2, 13992, Note_on_c, 0, 48, 34
2, 13994, Note_on_c, 0, 58, 18
2, 13994, Note_on_c, 0, 55, 31
2, 13995, Note_on_c, 0, 62, 32
2, 13997, Note_on_c, 0, 64, 29
2, 13998, Control_c, 0, 64, 0
2, 14025, Control_c, 0, 64, 127
2, 14061, Note_on_c, 0, 58, 0
2, 14076, Note_on_c, 0, 62, 0
2, 14094, Note_on_c, 0, 64, 0
2, 14110, Note_on_c, 0, 69, 0
2, 14120, Note_on_c, 0, 48, 0
2, 14121, Note_on_c, 0, 55, 0
2, 14202, Note_on_c, 0, 60, 30
2, 14248, Note_on_c, 0, 60, 0
2, 14414, Note_on_c, 0, 57, 49
2, 14420, Note_on_c, 0, 69, 50
2, 14420, Note_on_c, 0, 64, 60
2, 14420, Note_on_c, 0, 72, 24
2, 14420, Note_on_c, 0, 67, 24
2, 14429, Control_c, 0, 64, 0
2, 14432, Note_on_c, 0, 67, 0
2, 14438, Note_on_c, 0, 57, 0
2, 14443, Note_on_c, 0, 72, 0
2, 14480, Note_on_c, 0, 64, 0
2, 14482, Note_on_c, 0, 69, 0
2, 14495, Note_on_c, 0, 57, 41
2, 14505, Control_c, 0, 64, 127
2, 14520, Note_on_c, 0, 57, 0
2, 14539, Control_c, 0, 64, 0
2, 14540, Note_on_c, 0, 67, 30
2, 14540, Note_on_c, 0, 72, 19
2, 14540, Note_on_c, 0, 69, 28
2, 14540, Note_on_c, 0, 64, 13
2, 14545, Note_on_c, 0, 57, 32
2, 14556, Note_on_c, 0, 64, 0
2, 14559, Note_on_c, 0, 69, 0
2, 14562, Note_on_c, 0, 57, 0
2, 14564, Note_on_c, 0, 67, 0
2, 14565, Note_on_c, 0, 72, 0
2, 14620, Note_on_c, 0, 57, 43
2, 14634, Control_c, 0, 64, 127
2, 14661, Control_c, 0, 64, 0
2, 14670, Note_on_c, 0, 64, 45
2, 14670, Note_on_c, 0, 70, 25
2, 14670, Note_on_c, 0, 67, 50
2, 14670, Note_on_c, 0, 72, 27
2, 14693, Note_on_c, 0, 64, 0
2, 14695, Note_on_c, 0, 72, 0
2, 14695, Note_on_c, 0, 70, 0
2, 14697, Note_on_c, 0, 57, 0
2, 14730, Note_on_c, 0, 67, 0
2, 14742, Control_c, 0, 64, 127
2, 14773, Control_c, 0, 64, 0
2, 14781, Note_on_c, 0, 70, 21
2, 14782, Note_on_c, 0, 64, 29
2, 14784, Note_on_c, 0, 72, 29
2, 14800, Note_on_c, 0, 64, 0
2, 14803, Note_on_c, 0, 72, 0
2, 14808, Note_on_c, 0, 70, 0
2, 14810, Control_c, 0, 64, 127
2, 14847, Control_c, 0, 64, 0
2, 14856, Control_c, 0, 64, 127
2, 14894, Control_c, 0, 64, 0
2, 14896, Note_on_c, 0, 69, 27
2, 14898, Note_on_c, 0, 67, 34
2, 14898, Note_on_c, 0, 60, 32
2, 14900, Note_on_c, 0, 64, 34
2, 14923, Note_on_c, 0, 64, 0
2, 14928, Note_on_c, 0, 60, 0
2, 14929, Note_on_c, 0, 67, 0
2, 14932, Note_on_c, 0, 69, 0
2, 14933, Control_c, 0, 64, 127
2, 14937, Control_c, 0, 64, 0
2, 14976, Note_on_c, 0, 55, 78
2, 14987, Control_c, 0, 64, 127
2, 15006, Note_on_c, 0, 55, 0
2, 15017, Note_on_c, 0, 69, 45
2, 15019, Control_c, 0, 64, 0
2, 15020, Note_on_c, 0, 67, 27
2, 15022, Note_on_c, 0, 64, 34
2, 15022, Note_on_c, 0, 55, 67
2, 15029, Note_on_c, 0, 67, 0
2, 15030, Note_on_c, 0, 69, 0
2, 15030, Note_on_c, 0, 64, 0
2, 15051, Control_c, 0, 64, 127
2, 15072, Note_on_c, 0, 55, 0
2, 15076, Control_c, 0, 64, 0
2, 15092, Control_c, 0, 64, 127
2, 15097, Note_on_c, 0, 54, 30
2, 15118, Note_on_c, 0, 54, 0
2, 15130, Note_on_c, 0, 74, 50
2, 15133, Note_on_c, 0, 71, 50
2, 15140, Note_on_c, 0, 55, 46
2, 15141, Note_on_c, 0, 79, 44
2, 15145, Note_on_c, 0, 68, 25
2, 15148, Control_c, 0, 64, 0
2, 15170, Note_on_c, 0, 79, 0
2, 15171, Note_on_c, 0, 68, 0
2, 15190, Note_on_c, 0, 74, 0
2, 15193, Note_on_c, 0, 71, 0
2, 15210, Control_c, 0, 64, 127
2, 15263, Control_c, 0, 64, 0
2, 15274, Note_on_c, 0, 65, 51
2, 15274, Note_on_c, 0, 68, 32
2, 15274, Note_on_c, 0, 71, 55
2, 15274, Note_on_c, 0, 74, 64
2, 15281, Note_on_c, 0, 65, 0
2, 15296, Note_on_c, 0, 68, 0
2, 15303, Note_on_c, 0, 71, 0
2, 15305, Note_on_c, 0, 74, 0
2, 15337, Control_c, 0, 64, 127
2, 15387, Note_on_c, 0, 74, 41
2, 15388, Note_on_c, 0, 55, 0
2, 15390, Note_on_c, 0, 70, 42
2, 15391, Note_on_c, 0, 65, 29
2, 15391, Note_on_c, 0, 67, 34
2, 15398, Control_c, 0, 64, 0
2, 15407, Note_on_c, 0, 65, 0
2, 15412, Note_on_c, 0, 70, 0
2, 15413, Note_on_c, 0, 74, 0
2, 15414, Note_on_c, 0, 67, 0
2, 15465, Note_on_c, 0, 53, 55
2, 15484, Note_on_c, 0, 53, 0
2, 15489, Note_on_c, 0, 55, 33
2, 15498, Note_on_c, 0, 53, 40
2, 15499, Note_on_c, 0, 55, 0
2, 15514, Note_on_c, 0, 53, 0
2, 15514, Note_on_c, 0, 74, 33
2, 15514, Note_on_c, 0, 50, 42
2, 15515, Note_on_c, 0, 70, 36
2, 15516, Note_on_c, 0, 67, 29
2, 15520, Note_on_c, 0, 50, 0
2, 15528, Note_on_c, 0, 74, 0
2, 15529, Note_on_c, 0, 53, 55
2, 15531, Note_on_c, 0, 67, 0
2, 15532, Note_on_c, 0, 70, 0
2, 15597, Control_c, 0, 64, 127
2, 15628, Note_on_c, 0, 74, 33
2, 15628, Control_c, 0, 64, 0
2, 15629, Note_on_c, 0, 66, 25
2, 15629, Note_on_c, 0, 72, 26
2, 15641, Note_on_c, 0, 74, 0
2, 15642, Note_on_c, 0, 66, 0
2, 15643, Note_on_c, 0, 72, 0
2, 15711, Control_c, 0, 64, 127
2, 15748, Control_c, 0, 64, 0
2, 15751, Note_on_c, 0, 74, 39
2, 15751, Note_on_c, 0, 66, 29
2, 15752, Note_on_c, 0, 72, 29
2, 15759, Note_on_c, 0, 74, 0
2, 15760, Note_on_c, 0, 72, 0
2, 15765, Note_on_c, 0, 66, 0
2, 15832, Control_c, 0, 64, 127
2, 15836, Note_on_c, 0, 53, 0
2, 15851, Note_on_c, 0, 50, 1
2, 15871, Control_c, 0, 64, 0
2, 15876, Note_on_c, 0, 70, 35
2, 15877, Note_on_c, 0, 74, 26
2, 15881, Note_on_c, 0, 67, 24
2, 15888, Note_on_c, 0, 74, 0
2, 15889, Note_on_c, 0, 67, 0
2, 15891, Note_on_c, 0, 70, 0
2, 15923, Note_on_c, 0, 50, 0
2, 15948, Note_on_c, 0, 50, 45
2, 15961, Control_c, 0, 64, 127
2, 15985, Note_on_c, 0, 50, 0
2, 15989, Control_c, 0, 64, 0
2, 15991, Note_on_c, 0, 74, 24
2, 15993, Note_on_c, 0, 67, 24
2, 15993, Note_on_c, 0, 70, 31
2, 15995, Note_on_c, 0, 52, 32
2, 16002, Note_on_c, 0, 74, 0
2, 16003, Note_on_c, 0, 67, 0
2, 16004, Note_on_c, 0, 70, 0
2, 16021, Note_on_c, 0, 52, 0
2, 16028, Note_on_c, 0, 50, 47
2, 16059, Note_on_c, 0, 50, 0
2, 16067, Note_on_c, 0, 48, 45
2, 16073, Control_c, 0, 64, 127
2, 16083, Note_on_c, 0, 48, 0
2, 16093, Control_c, 0, 64, 0
2, 16106, Note_on_c, 0, 74, 29
2, 16108, Note_on_c, 0, 70, 30
2, 16109, Note_on_c, 0, 64, 29
2, 16130, Note_on_c, 0, 70, 0
2, 16132, Note_on_c, 0, 64, 0
2, 16133, Note_on_c, 0, 74, 0
2, 16148, Control_c, 0, 64, 127
2, 16163, Control_c, 0, 64, 0
2, 16176, Control_c, 0, 64, 127
2, 16189, Note_on_c, 0, 57, 39
2, 16208, Note_on_c, 0, 57, 0
2, 16219, Note_on_c, 0, 58, 68
2, 16226, Control_c, 0, 64, 0
2, 16226, Note_on_c, 0, 70, 23
2, 16235, Note_on_c, 0, 70, 0
2, 16235, Note_on_c, 0, 58, 0
2, 16248, Note_on_c, 0, 60, 60
2, 16268, Note_on_c, 0, 60, 0
2, 16278, Note_on_c, 0, 61, 44
2, 16298, Note_on_c, 0, 61, 0
2, 16301, Note_on_c, 0, 62, 58
2, 16312, Control_c, 0, 64, 127
2, 16326, Note_on_c, 0, 62, 0
2, 16334, Note_on_c, 0, 65, 71
2, 16351, Note_on_c, 0, 65, 0
2, 16355, Note_on_c, 0, 74, 48
2, 16355, Control_c, 0, 64, 0
2, 16356, Note_on_c, 0, 65, 25
2, 16358, Note_on_c, 0, 70, 27
2, 16364, Note_on_c, 0, 62, 44
2, 16370, Note_on_c, 0, 65, 0
2, 16371, Note_on_c, 0, 74, 0
2, 16371, Note_on_c, 0, 62, 0
2, 16373, Note_on_c, 0, 70, 0
2, 16394, Note_on_c, 0, 58, 43
2, 16407, Note_on_c, 0, 58, 0
2, 16421, Note_on_c, 0, 57, 27
2, 16437, Note_on_c, 0, 57, 0
2, 16443, Control_c, 0, 64, 127
2, 16450, Note_on_c, 0, 53, 58
2, 16472, Note_on_c, 0, 53, 0
2, 16472, Control_c, 0, 64, 0
2, 16477, Note_on_c, 0, 74, 44
2, 16478, Note_on_c, 0, 50, 40
2, 16479, Note_on_c, 0, 65, 29
2, 16480, Note_on_c, 0, 70, 37
2, 16480, Note_on_c, 0, 67, 38
2, 16491, Note_on_c, 0, 65, 0
2, 16500, Note_on_c, 0, 67, 0
2, 16502, Note_on_c, 0, 74, 0
2, 16504, Note_on_c, 0, 70, 0
2, 16505, Note_on_c, 0, 50, 0
2, 16520, Note_on_c, 0, 50, 46
2, 16531, Note_on_c, 0, 50, 0
2, 16559, Control_c, 0, 64, 127
2, 16597, Note_on_c, 0, 75, 45
2, 16598, Control_c, 0, 64, 0
2, 16599, Note_on_c, 0, 71, 45
2, 16599, Note_on_c, 0, 65, 44
2, 16600, Note_on_c, 0, 68, 37
2, 16615, Note_on_c, 0, 65, 0
2, 16623, Note_on_c, 0, 71, 0
2, 16625, Note_on_c, 0, 75, 0
2, 16629, Note_on_c, 0, 68, 0
2, 16642, Control_c, 0, 64, 127
2, 16650, Control_c, 0, 64, 0
2, 16690, Control_c, 0, 64, 127
2, 16716, Note_on_c, 0, 75, 37
2, 16722, Note_on_c, 0, 71, 46
2, 16722, Note_on_c, 0, 65, 32
2, 16722, Control_c, 0, 64, 0
2, 16722, Note_on_c, 0, 68, 27
2, 16736, Note_on_c, 0, 68, 0
2, 16736, Note_on_c, 0, 65, 0
2, 16736, Note_on_c, 0, 75, 0
2, 16737, Note_on_c, 0, 71, 0
2, 16777, Note_on_c, 0, 59, 66
2, 16797, Note_on_c, 0, 59, 0
2, 16809, Control_c, 0, 64, 127
2, 16809, Note_on_c, 0, 61, 79
2, 16835, Note_on_c, 0, 61, 0
2, 16842, Control_c, 0, 64, 0
2, 16843, Note_on_c, 0, 74, 56
2, 16843, Note_on_c, 0, 70, 46
2, 16844, Note_on_c, 0, 67, 34
2, 16846, Note_on_c, 0, 65, 31
2, 16846, Note_on_c, 0, 62, 70
2, 16853, Note_on_c, 0, 65, 0
2, 16860, Note_on_c, 0, 74, 0
2, 16862, Note_on_c, 0, 67, 0
2, 16865, Note_on_c, 0, 70, 0
2, 16871, Note_on_c, 0, 62, 0
2, 16884, Note_on_c, 0, 65, 70
2, 16913, Note_on_c, 0, 65, 0
2, 16921, Note_on_c, 0, 62, 63
2, 16926, Control_c, 0, 64, 127
2, 16935, Note_on_c, 0, 62, 0
2, 16959, Control_c, 0, 64, 0
2, 16960, Note_on_c, 0, 74, 51
2, 16962, Note_on_c, 0, 67, 30
2, 16964, Note_on_c, 0, 70, 38
2, 16964, Note_on_c, 0, 65, 36
2, 16965, Note_on_c, 0, 53, 30
2, 16991, Note_on_c, 0, 65, 0
2, 16994, Control_c, 0, 64, 127
2, 16996, Note_on_c, 0, 74, 0
2, 17000, Note_on_c, 0, 70, 0
2, 17001, Note_on_c, 0, 67, 0
2, 17021, Control_c, 0, 64, 0
2, 17042, Control_c, 0, 64, 127
2, 17042, Note_on_c, 0, 54, 65
2, 17047, Note_on_c, 0, 53, 0
2, 17081, Control_c, 0, 64, 0
2, 17084, Note_on_c, 0, 74, 31
2, 17084, Note_on_c, 0, 66, 25
2, 17089, Note_on_c, 0, 72, 22
2, 17097, Note_on_c, 0, 72, 0
2, 17107, Note_on_c, 0, 66, 0
2, 17107, Note_on_c, 0, 74, 0
2, 17136, Control_c, 0, 64, 127
2, 17146, Control_c, 0, 64, 0
2, 17164, Note_on_c, 0, 54, 0
2, 17166, Note_on_c, 0, 57, 56
2, 17178, Control_c, 0, 64, 127
2, 17204, Note_on_c, 0, 57, 0
2, 17209, Control_c, 0, 64, 0
2, 17209, Note_on_c, 0, 60, 74
2, 17211, Note_on_c, 0, 74, 77
2, 17213, Note_on_c, 0, 72, 56
2, 17213, Note_on_c, 0, 66, 59
2, 17224, Note_on_c, 0, 74, 0
2, 17225, Note_on_c, 0, 72, 0
2, 17227, Note_on_c, 0, 66, 0
2, 17293, Note_on_c, 0, 57, 52
2, 17296, Control_c, 0, 64, 127
2, 17299, Note_on_c, 0, 60, 0
2, 17327, Note_on_c, 0, 57, 0
2, 17333, Control_c, 0, 64, 0
2, 17337, Note_on_c, 0, 70, 39
2, 17338, Note_on_c, 0, 67, 33
2, 17338, Note_on_c, 0, 65, 28
2, 17339, Note_on_c, 0, 58, 39
2, 17344, Note_on_c, 0, 65, 0
2, 17348, Note_on_c, 0, 67, 0
2, 17353, Note_on_c, 0, 70, 0
2, 17412, Note_on_c, 0, 50, 43
2, 17432, Control_c, 0, 64, 127
2, 17437, Note_on_c, 0, 58, 0
2, 17453, Control_c, 0, 64, 0
2, 17458, Note_on_c, 0, 74, 24
2, 17460, Note_on_c, 0, 70, 32
2, 17463, Note_on_c, 0, 74, 0
2, 17472, Note_on_c, 0, 70, 0
2, 17493, Note_on_c, 0, 50, 0
2, 17502, Note_on_c, 0, 53, 33
2, 17538, Note_on_c, 0, 57, 48
2, 17539, Note_on_c, 0, 53, 0
2, 17547, Control_c, 0, 64, 127
2, 17571, Note_on_c, 0, 57, 0
2, 17577, Control_c, 0, 64, 0
2, 17582, Note_on_c, 0, 64, 18
2, 17583, Note_on_c, 0, 70, 32
2, 17586, Note_on_c, 0, 55, 25
2, 17592, Note_on_c, 0, 64, 0
2, 17597, Note_on_c, 0, 70, 0
2, 17620, Note_on_c, 0, 54, 44
2, 17626, Note_on_c, 0, 55, 0
2, 17648, Note_on_c, 0, 54, 0
2, 17659, Note_on_c, 0, 53, 44
2, 17674, Control_c, 0, 64, 127
2, 17693, Control_c, 0, 64, 0
2, 17694, Note_on_c, 0, 53, 0
2, 17701, Note_on_c, 0, 72, 30
2, 17703, Note_on_c, 0, 70, 33
2, 17704, Note_on_c, 0, 52, 26
2, 17715, Note_on_c, 0, 72, 0
2, 17717, Note_on_c, 0, 70, 0
2, 17737, Note_on_c, 0, 52, 0
2, 17742, Note_on_c, 0, 62, 75
2, 17781, Note_on_c, 0, 61, 74
2, 17787, Control_c, 0, 64, 127
2, 17789, Note_on_c, 0, 62, 0
2, 17818, Control_c, 0, 64, 0
2, 17822, Note_on_c, 0, 74, 32
2, 17827, Note_on_c, 0, 72, 14
2, 17829, Note_on_c, 0, 69, 31
2, 17835, Note_on_c, 0, 74, 0
2, 17837, Note_on_c, 0, 69, 0
2, 17840, Note_on_c, 0, 72, 0
2, 17840, Note_on_c, 0, 60, 48
2, 17849, Note_on_c, 0, 61, 0
2, 17856, Note_on_c, 0, 60, 0
2, 17872, Note_on_c, 0, 48, 30
2, 17900, Note_on_c, 0, 48, 0
2, 17910, Control_c, 0, 64, 127
2, 17910, Note_on_c, 0, 50, 61
2, 17946, Note_on_c, 0, 74, 53
2, 17949, Control_c, 0, 64, 0
2, 17959, Note_on_c, 0, 74, 0
2, 17976, Control_c, 0, 64, 127
2, 17984, Note_on_c, 0, 50, 0
2, 17990, Note_on_c, 0, 52, 53
2, 18013, Control_c, 0, 64, 0
2, 18022, Note_on_c, 0, 52, 0
2, 18026, Control_c, 0, 64, 127
2, 18027, Note_on_c, 0, 53, 75
2, 18067, Note_on_c, 0, 72, 55
2, 18067, Note_on_c, 0, 70, 45
2, 18067, Note_on_c, 0, 64, 45
2, 18070, Control_c, 0, 64, 0
2, 18085, Note_on_c, 0, 72, 0
2, 18109, Note_on_c, 0, 64, 0
2, 18109, Control_c, 0, 64, 127
2, 18110, Note_on_c, 0, 55, 84
2, 18121, Note_on_c, 0, 53, 0
2, 18122, Note_on_c, 0, 70, 0
2, 18137, Control_c, 0, 64, 0
2, 18145, Control_c, 0, 64, 127
2, 18146, Note_on_c, 0, 55, 0
2, 18150, Note_on_c, 0, 57, 75
2, 18175, Note_on_c, 0, 57, 0
2, 18189, Note_on_c, 0, 58, 55
2, 18190, Note_on_c, 0, 70, 42
2, 18192, Note_on_c, 0, 72, 31
2, 18196, Control_c, 0, 64, 0
2, 18208, Note_on_c, 0, 72, 0
2, 18210, Note_on_c, 0, 70, 0
2, 18211, Note_on_c, 0, 58, 0
2, 18218, Note_on_c, 0, 59, 28
2, 18230, Note_on_c, 0, 59, 0
2, 18232, Note_on_c, 0, 60, 59
2, 18249, Note_on_c, 0, 60, 0
2, 18250, Note_on_c, 0, 62, 57
2, 18259, Control_c, 0, 64, 127
2, 18269, Note_on_c, 0, 63, 52
2, 18270, Note_on_c, 0, 62, 0
2, 18284, Note_on_c, 0, 63, 0
2, 18284, Note_on_c, 0, 64, 65
2, 18301, Note_on_c, 0, 64, 0
2, 18305, Note_on_c, 0, 75, 44
2, 18306, Note_on_c, 0, 70, 52
2, 18306, Note_on_c, 0, 65, 62
2, 18310, Control_c, 0, 64, 0
2, 18312, Note_on_c, 0, 72, 24
2, 18316, Note_on_c, 0, 72, 0
2, 18353, Control_c, 0, 64, 127
2, 18392, Note_on_c, 0, 65, 0
2, 18392, Note_on_c, 0, 75, 0
2, 18393, Note_on_c, 0, 70, 0
2, 18393, Note_on_c, 0, 55, 55
2, 18432, Note_on_c, 0, 75, 35
2, 18435, Note_on_c, 0, 70, 34
2, 18435, Note_on_c, 0, 65, 37
2, 18437, Control_c, 0, 64, 0
2, 18451, Note_on_c, 0, 65, 0
2, 18451, Note_on_c, 0, 75, 0
2, 18455, Note_on_c, 0, 70, 0
2, 18470, Control_c, 0, 64, 127
2, 18517, Note_on_c, 0, 55, 0
2, 18562, Note_on_c, 0, 74, 35
2, 18566, Note_on_c, 0, 63, 26
2, 18566, Note_on_c, 0, 69, 31
2, 18567, Control_c, 0, 64, 0
2, 18613, Control_c, 0, 64, 127
2, 18635, Note_on_c, 0, 63, 0
2, 18637, Control_c, 0, 64, 0
2, 18642, Note_on_c, 0, 74, 0
2, 18647, Note_on_c, 0, 69, 0
2, 18652, Note_on_c, 0, 57, 92
2, 18658, Control_c, 0, 64, 127
2, 18688, Note_on_c, 0, 57, 0
2, 18699, Note_on_c, 0, 60, 90
2, 18699, Note_on_c, 0, 74, 66
2, 18700, Note_on_c, 0, 69, 57
2, 18701, Note_on_c, 0, 63, 42
2, 18702, Control_c, 0, 64, 0
2, 18718, Note_on_c, 0, 69, 0
2, 18724, Note_on_c, 0, 63, 0
2, 18730, Note_on_c, 0, 74, 0
2, 18731, Note_on_c, 0, 60, 0
2, 18731, Control_c, 0, 64, 127
2, 18740, Note_on_c, 0, 60, 74
2, 18775, Note_on_c, 0, 60, 0
2, 18785, Note_on_c, 0, 58, 65
2, 18819, Note_on_c, 0, 58, 0
2, 18827, Note_on_c, 0, 73, 42
2, 18828, Note_on_c, 0, 57, 59
2, 18829, Control_c, 0, 64, 0
2, 18829, Note_on_c, 0, 63, 32
2, 18831, Note_on_c, 0, 70, 34
2, 18861, Note_on_c, 0, 57, 0
2, 18868, Note_on_c, 0, 58, 40
2, 18878, Note_on_c, 0, 57, 41
2, 18883, Note_on_c, 0, 63, 0
2, 18888, Note_on_c, 0, 70, 0
2, 18891, Note_on_c, 0, 58, 0
2, 18893, Note_on_c, 0, 55, 53
2, 18894, Note_on_c, 0, 57, 0
2, 18895, Note_on_c, 0, 73, 0
2, 18902, Note_on_c, 0, 55, 0
2, 18920, Note_on_c, 0, 57, 65
2, 18956, Note_on_c, 0, 73, 46
2, 18956, Note_on_c, 0, 70, 40
2, 18965, Control_c, 0, 64, 127
2, 18969, Note_on_c, 0, 73, 0
2, 18972, Note_on_c, 0, 70, 0
2, 19068, Note_on_c, 0, 57, 0
2, 19082, Note_on_c, 0, 67, 46
2, 19084, Note_on_c, 0, 77, 38
2, 19085, Note_on_c, 0, 73, 32
2, 19086, Control_c, 0, 64, 0
2, 19118, Control_c, 0, 64, 127
2, 19166, Note_on_c, 0, 77, 0
2, 19166, Note_on_c, 0, 67, 0
2, 19170, Note_on_c, 0, 45, 49
2, 19176, Note_on_c, 0, 73, 0
2, 19210, Note_on_c, 0, 76, 39
2, 19210, Note_on_c, 0, 67, 39
2, 19211, Note_on_c, 0, 73, 29
2, 19213, Control_c, 0, 64, 0
2, 19225, Note_on_c, 0, 67, 0
2, 19225, Note_on_c, 0, 45, 0
2, 19229, Note_on_c, 0, 76, 0
2, 19240, Note_on_c, 0, 73, 0
2, 19245, Control_c, 0, 64, 127
2, 19299, Note_on_c, 0, 55, 50
2, 19325, Note_on_c, 0, 55, 0
2, 19341, Note_on_c, 0, 76, 34
2, 19341, Note_on_c, 0, 66, 31
2, 19342, Note_on_c, 0, 72, 30
2, 19343, Control_c, 0, 64, 0
2, 19403, Note_on_c, 0, 72, 0
2, 19404, Note_on_c, 0, 76, 0
2, 19406, Note_on_c, 0, 66, 0
2, 19428, Note_on_c, 0, 57, 57
2, 19447, Control_c, 0, 64, 127
2, 19461, Control_c, 0, 64, 0
2, 19468, Note_on_c, 0, 57, 0
2, 19477, Note_on_c, 0, 56, 31
2, 19478, Note_on_c, 0, 66, 33
2, 19481, Note_on_c, 0, 72, 24
2, 19495, Note_on_c, 0, 72, 0
2, 19506, Note_on_c, 0, 56, 0
2, 19515, Note_on_c, 0, 57, 43
2, 19524, Note_on_c, 0, 66, 0
2, 19535, Note_on_c, 0, 58, 34
2, 19539, Note_on_c, 0, 57, 0
2, 19546, Note_on_c, 0, 59, 60
2, 19549, Note_on_c, 0, 58, 0
2, 19562, Note_on_c, 0, 59, 0
2, 19569, Note_on_c, 0, 60, 71
2, 19605, Note_on_c, 0, 66, 36
2, 19606, Note_on_c, 0, 76, 33
2, 19608, Note_on_c, 0, 72, 30
2, 19620, Note_on_c, 0, 72, 0
2, 19625, Note_on_c, 0, 76, 0
2, 19642, Note_on_c, 0, 66, 0
2, 19648, Control_c, 0, 64, 127
2, 19735, Note_on_c, 0, 74, 35
2, 19738, Control_c, 0, 64, 0
2, 19739, Note_on_c, 0, 66, 14
2, 19747, Note_on_c, 0, 74, 0
2, 19758, Note_on_c, 0, 66, 0
2, 19773, Control_c, 0, 64, 127
2, 19794, Control_c, 0, 64, 0
2, 19809, Note_on_c, 0, 60, 0
2, 19815, Note_on_c, 0, 58, 52
2, 19822, Control_c, 0, 64, 127
2, 19836, Note_on_c, 0, 58, 0
2, 19850, Control_c, 0, 64, 0
2, 19857, Note_on_c, 0, 74, 36
2, 19858, Note_on_c, 0, 67, 33
2, 19859, Note_on_c, 0, 70, 29
2, 19859, Note_on_c, 0, 69, 34
2, 19859, Note_on_c, 0, 57, 61
2, 19871, Note_on_c, 0, 69, 0
2, 19872, Note_on_c, 0, 74, 0
2, 19874, Note_on_c, 0, 67, 0
2, 19875, Note_on_c, 0, 57, 0
2, 19877, Note_on_c, 0, 70, 0
2, 19885, Note_on_c, 0, 58, 39
2, 19893, Note_on_c, 0, 57, 43
2, 19904, Note_on_c, 0, 58, 0
2, 19908, Note_on_c, 0, 57, 0
2, 19911, Note_on_c, 0, 55, 41
2, 19929, Note_on_c, 0, 55, 0
2, 19937, Note_on_c, 0, 54, 34
2, 19953, Note_on_c, 0, 54, 0
2, 19970, Note_on_c, 0, 74, 44
2, 19971, Note_on_c, 0, 70, 28
2, 19972, Note_on_c, 0, 57, 67
2, 19976, Note_on_c, 0, 67, 20
2, 19978, Note_on_c, 0, 74, 0
2, 19982, Note_on_c, 0, 67, 0
2, 19986, Note_on_c, 0, 70, 0
2, 19991, Note_on_c, 0, 57, 0
2, 19998, Note_on_c, 0, 54, 39
2, 20017, Note_on_c, 0, 54, 0
2, 20031, Note_on_c, 0, 55, 42
2, 20043, Note_on_c, 0, 55, 0
2, 20056, Note_on_c, 0, 50, 49
2, 20073, Note_on_c, 0, 50, 0
2, 20079, Control_c, 0, 64, 127
2, 20086, Note_on_c, 0, 50, 57
2, 20101, Note_on_c, 0, 50, 0
2, 20103, Control_c, 0, 64, 0
2, 20107, Note_on_c, 0, 74, 43
2, 20109, Note_on_c, 0, 70, 32
2, 20111, Note_on_c, 0, 67, 36
2, 20112, Note_on_c, 0, 69, 27
2, 20114, Note_on_c, 0, 50, 41
2, 20118, Note_on_c, 0, 69, 0
2, 20121, Note_on_c, 0, 74, 0
2, 20124, Note_on_c, 0, 67, 0
2, 20126, Note_on_c, 0, 70, 0
2, 20131, Note_on_c, 0, 50, 0
2, 20148, Note_on_c, 0, 50, 37
2, 20156, Note_on_c, 0, 50, 0
2, 20192, Control_c, 0, 64, 127
2, 20228, Control_c, 0, 64, 0
2, 20230, Note_on_c, 0, 74, 45
2, 20234, Note_on_c, 0, 70, 27
2, 20234, Note_on_c, 0, 69, 36
2, 20236, Note_on_c, 0, 67, 24
2, 20242, Note_on_c, 0, 69, 0
2, 20242, Note_on_c, 0, 74, 0
2, 20244, Note_on_c, 0, 67, 0
2, 20245, Note_on_c, 0, 70, 0
2, 20312, Note_on_c, 0, 57, 46
2, 20326, Control_c, 0, 64, 127
2, 20343, Note_on_c, 0, 57, 0
2, 20353, Control_c, 0, 64, 0
2, 20356, Note_on_c, 0, 62, 64
2, 20357, Note_on_c, 0, 74, 45
2, 20359, Note_on_c, 0, 69, 33
2, 20363, Note_on_c, 0, 74, 0
2, 20366, Note_on_c, 0, 69, 0
2, 20376, Note_on_c, 0, 62, 0
2, 20428, Note_on_c, 0, 62, 50
2, 20442, Control_c, 0, 64, 127
2, 20446, Note_on_c, 0, 62, 0
2, 20468, Control_c, 0, 64, 0
2, 20474, Note_on_c, 0, 62, 31
2, 20474, Note_on_c, 0, 65, 49
2, 20476, Note_on_c, 0, 69, 37
2, 20478, Note_on_c, 0, 72, 17
2, 20486, Note_on_c, 0, 62, 0
2, 20488, Note_on_c, 0, 69, 0
2, 20491, Note_on_c, 0, 72, 0
2, 20492, Note_on_c, 0, 65, 0
2, 20562, Control_c, 0, 64, 127
2, 20604, Note_on_c, 0, 72, 62
2, 20606, Note_on_c, 0, 65, 55
2, 20608, Control_c, 0, 64, 0
2, 20610, Note_on_c, 0, 67, 40
2, 20610, Note_on_c, 0, 61, 33
2, 20627, Note_on_c, 0, 61, 0
2, 20629, Note_on_c, 0, 72, 0
2, 20630, Note_on_c, 0, 65, 0
2, 20670, Note_on_c, 0, 67, 0
2, 20694, Control_c, 0, 64, 127
2, 20727, Note_on_c, 0, 72, 58
2, 20727, Note_on_c, 0, 65, 64
2, 20729, Note_on_c, 0, 62, 33
2, 20729, Note_on_c, 0, 70, 46
2, 20730, Control_c, 0, 64, 0
2, 20740, Note_on_c, 0, 62, 0
2, 20742, Note_on_c, 0, 72, 0
2, 20746, Note_on_c, 0, 65, 0
2, 20750, Note_on_c, 0, 70, 0
2, 20771, Note_on_c, 0, 57, 66
2, 20798, Note_on_c, 0, 57, 0
2, 20808, Note_on_c, 0, 60, 83
2, 20823, Control_c, 0, 64, 127
2, 20846, Note_on_c, 0, 60, 0
2, 20852, Control_c, 0, 64, 0
2, 20855, Note_on_c, 0, 57, 71
2, 20880, Note_on_c, 0, 57, 0
2, 20893, Note_on_c, 0, 53, 48
2, 20913, Note_on_c, 0, 53, 0
2, 20937, Control_c, 0, 64, 127
2, 20966, Control_c, 0, 64, 0
2, 20969, Note_on_c, 0, 62, 40
2, 20971, Note_on_c, 0, 69, 49
2, 20972, Note_on_c, 0, 60, 55
2, 20974, Note_on_c, 0, 65, 37
2, 20982, Note_on_c, 0, 65, 0
2, 20984, Note_on_c, 0, 69, 0
2, 20992, Note_on_c, 0, 60, 0
2, 21029, Note_on_c, 0, 62, 0
2, 21060, Control_c, 0, 64, 127
2, 21091, Control_c, 0, 64, 0
2, 21094, Note_on_c, 0, 71, 32
2, 21096, Note_on_c, 0, 62, 35
2, 21097, Note_on_c, 0, 65, 34
2, 21103, Note_on_c, 0, 71, 0
2, 21108, Note_on_c, 0, 65, 0
2, 21108, Note_on_c, 0, 62, 0
2, 21111, Control_c, 0, 64, 127
2, 21157, Control_c, 0, 64, 0
2, 21170, Note_on_c, 0, 43, 43
2, 21175, Control_c, 0, 64, 127
2, 21185, Note_on_c, 0, 43, 0
2, 21217, Control_c, 0, 64, 0
2, 21219, Note_on_c, 0, 64, 44
2, 21219, Note_on_c, 0, 53, 40
2, 21220, Note_on_c, 0, 59, 52
2, 21240, Control_c, 0, 64, 127
2, 21261, Note_on_c, 0, 64, 0
2, 21284, Note_on_c, 0, 59, 0
2, 21288, Note_on_c, 0, 53, 0
2, 21295, Note_on_c, 0, 43, 41
2, 21336, Note_on_c, 0, 53, 49
2, 21336, Note_on_c, 0, 65, 51
2, 21337, Note_on_c, 0, 55, 52
2, 21337, Note_on_c, 0, 58, 42
2, 21338, Note_on_c, 0, 62, 44
2, 21339, Control_c, 0, 64, 0
2, 21342, Note_on_c, 0, 53, 0
2, 21349, Note_on_c, 0, 55, 0
2, 21350, Note_on_c, 0, 62, 0
2, 21353, Note_on_c, 0, 65, 0
2, 21354, Note_on_c, 0, 58, 0
2, 21363, Note_on_c, 0, 43, 0
2, 21386, Note_on_c, 0, 62, 68
2, 21388, Note_on_c, 0, 50, 57
2, 21390, Note_on_c, 0, 55, 38
2, 21406, Note_on_c, 0, 62, 0
2, 21416, Note_on_c, 0, 55, 0
2, 21419, Note_on_c, 0, 50, 0
2, 21426, Note_on_c, 0, 58, 58
2, 21427, Note_on_c, 0, 45, 54
2, 21454, Note_on_c, 0, 58, 0
2, 21460, Note_on_c, 0, 45, 0
2, 21468, Note_on_c, 0, 46, 43
2, 21503, Note_on_c, 0, 46, 0
2, 21504, Note_on_c, 0, 50, 51
2, 21505, Note_on_c, 0, 62, 52
2, 21522, Note_on_c, 0, 50, 0
2, 21523, Note_on_c, 0, 62, 0
2, 21540, Note_on_c, 0, 53, 48
2, 21542, Note_on_c, 0, 65, 55
2, 21544, Note_on_c, 0, 58, 23
2, 21547, Control_c, 0, 64, 127
2, 21549, Note_on_c, 0, 58, 0
2, 21555, Note_on_c, 0, 65, 0
2, 21571, Control_c, 0, 64, 0
2, 21577, Note_on_c, 0, 68, 52
2, 21578, Note_on_c, 0, 53, 0
2, 21581, Note_on_c, 0, 57, 54
2, 21585, Note_on_c, 0, 69, 46
2, 21600, Note_on_c, 0, 68, 0
2, 21602, Note_on_c, 0, 69, 0
2, 21611, Note_on_c, 0, 57, 0
2, 21615, Note_on_c, 0, 72, 52
2, 21617, Note_on_c, 0, 60, 54
2, 21619, Control_c, 0, 64, 127
2, 21631, Note_on_c, 0, 72, 0
2, 21641, Control_c, 0, 64, 0
2, 21642, Note_on_c, 0, 60, 0
2, 21654, Note_on_c, 0, 73, 53
2, 21656, Note_on_c, 0, 61, 64
2, 21657, Note_on_c, 0, 64, 66
2, 21664, Control_c, 0, 64, 127
2, 21677, Note_on_c, 0, 73, 0
2, 21678, Note_on_c, 0, 61, 0
2, 21681, Note_on_c, 0, 64, 0
2, 21693, Control_c, 0, 64, 0
2, 21694, Note_on_c, 0, 63, 71
2, 21695, Note_on_c, 0, 75, 69
2, 21695, Note_on_c, 0, 64, 72
2, 21696, Note_on_c, 0, 70, 63
2, 21717, Note_on_c, 0, 70, 0
2, 21721, Control_c, 0, 64, 127
2, 21723, Note_on_c, 0, 63, 0
2, 21726, Note_on_c, 0, 64, 0
2, 21726, Note_on_c, 0, 75, 0
2, 21734, Note_on_c, 0, 73, 30
2, 21734, Note_on_c, 0, 64, 25
2, 21735, Note_on_c, 0, 58, 51
2, 21740, Note_on_c, 0, 68, 18
2, 21748, Note_on_c, 0, 73, 0
2, 21749, Note_on_c, 0, 68, 0
2, 21751, Note_on_c, 0, 64, 0
2, 21769, Control_c, 0, 64, 0
2, 21770, Note_on_c, 0, 58, 0
2, 21776, Note_on_c, 0, 72, 38
2, 21776, Note_on_c, 0, 67, 57
2, 21777, Note_on_c, 0, 57, 48
2, 21778, Note_on_c, 0, 62, 50
2, 21800, Control_c, 0, 64, 127
2, 21810, Note_on_c, 0, 72, 0
2, 21812, Note_on_c, 0, 67, 0
2, 21828, Note_on_c, 0, 62, 0
2, 21830, Note_on_c, 0, 57, 0
2, 21853, Note_on_c, 0, 64, 49
2, 21854, Note_on_c, 0, 57, 46
2, 21854, Note_on_c, 0, 69, 49
2, 21854, Note_on_c, 0, 60, 52
2, 21856, Control_c, 0, 64, 0
2, 21879, Control_c, 0, 64, 127
2, 21885, Note_on_c, 0, 57, 0
2, 21894, Note_on_c, 0, 64, 0
2, 21896, Note_on_c, 0, 69, 0
2, 21903, Note_on_c, 0, 60, 0
2, 21945, Note_on_c, 0, 56, 39
2, 21946, Note_on_c, 0, 63, 36
2, 21946, Note_on_c, 0, 59, 49
2, 21947, Note_on_c, 0, 68, 42
2, 21952, Control_c, 0, 64, 0
2, 21977, Control_c, 0, 64, 127
2, 21985, Note_on_c, 0, 56, 0
2, 22020, Note_on_c, 0, 59, 0
2, 22026, Note_on_c, 0, 68, 0
2, 22036, Note_on_c, 0, 63, 0
2, 22073, Note_on_c, 0, 67, 37
2, 22073, Note_on_c, 0, 61, 32
2, 22074, Note_on_c, 0, 58, 25
2, 22074, Note_on_c, 0, 52, 24
2, 22075, Note_on_c, 0, 64, 38
2, 22079, Control_c, 0, 64, 0
2, 22107, Control_c, 0, 64, 127
2, 22118, Note_on_c, 0, 67, 0
2, 22120, Note_on_c, 0, 52, 0
2, 22128, Note_on_c, 0, 64, 0
2, 22134, Note_on_c, 0, 58, 0
2, 22134, Note_on_c, 0, 61, 0
2, 22153, Note_on_c, 0, 36, 48
2, 22160, Note_on_c, 0, 36, 0
2, 22197, Control_c, 0, 64, 0
2, 22198, Note_on_c, 0, 61, 40
2, 22199, Note_on_c, 0, 56, 38
2, 22201, Note_on_c, 0, 52, 39
2, 22202, Note_on_c, 0, 58, 36
2, 22204, Note_on_c, 0, 49, 26
2, 22220, Note_on_c, 0, 52, 0
2, 22223, Control_c, 0, 64, 127
2, 22232, Note_on_c, 0, 49, 0
2, 22233, Note_on_c, 0, 56, 0
2, 22236, Note_on_c, 0, 61, 0
2, 22236, Note_on_c, 0, 58, 0
2, 22282, Note_on_c, 0, 60, 45
2, 22307, Note_on_c, 0, 60, 0
2, 22325, Control_c, 0, 64, 0
2, 22325, Note_on_c, 0, 48, 24
2, 22327, Note_on_c, 0, 41, 22
2, 22328, Note_on_c, 0, 69, 58
2, 22332, Note_on_c, 0, 57, 28
2, 22352, Control_c, 0, 64, 127
2, 22364, Note_on_c, 0, 41, 0
2, 22366, Note_on_c, 0, 48, 0
2, 22381, Note_on_c, 0, 57, 0
2, 22383, Note_on_c, 0, 69, 0
2, 22455, Note_on_c, 0, 62, 42
2, 22456, Note_on_c, 0, 53, 29
2, 22460, Note_on_c, 0, 57, 40
2, 22460, Note_on_c, 0, 60, 47
2, 22463, Control_c, 0, 64, 0
2, 22477, Note_on_c, 0, 60, 0
2, 22477, Control_c, 0, 64, 127
2, 22478, Note_on_c, 0, 62, 0
2, 22480, Note_on_c, 0, 57, 0
2, 22495, Note_on_c, 0, 53, 0
2, 22543, Note_on_c, 0, 34, 64
2, 22549, Note_on_c, 0, 34, 0
2, 22588, Note_on_c, 0, 76, 80
2, 22589, Note_on_c, 0, 72, 81
2, 22589, Note_on_c, 0, 79, 75
2, 22589, Note_on_c, 0, 67, 89
2, 22589, Note_on_c, 0, 62, 71
2, 22590, Note_on_c, 0, 56, 62
2, 22596, Control_c, 0, 64, 0
2, 22624, Control_c, 0, 64, 127
2, 22652, Note_on_c, 0, 62, 0
2, 22661, Note_on_c, 0, 79, 0
2, 22663, Note_on_c, 0, 56, 0
2, 22665, Note_on_c, 0, 76, 0
2, 22670, Note_on_c, 0, 72, 0
2, 22671, Note_on_c, 0, 67, 0
2, 22724, Note_on_c, 0, 74, 55
2, 22727, Note_on_c, 0, 67, 60
2, 22727, Note_on_c, 0, 46, 50
2, 22727, Note_on_c, 0, 62, 32
2, 22729, Note_on_c, 0, 56, 35
2, 22734, Control_c, 0, 64, 0
2, 22756, Control_c, 0, 64, 127
2, 22786, Note_on_c, 0, 56, 0
2, 22794, Note_on_c, 0, 67, 0
2, 22795, Note_on_c, 0, 74, 0
2, 22797, Note_on_c, 0, 46, 0
2, 22803, Note_on_c, 0, 62, 0
2, 22854, Control_c, 0, 64, 0
2, 22857, Note_on_c, 0, 67, 46
2, 22857, Note_on_c, 0, 72, 32
2, 22858, Note_on_c, 0, 55, 38
2, 22858, Note_on_c, 0, 52, 40
2, 22858, Note_on_c, 0, 60, 35
2, 22858, Note_on_c, 0, 45, 30
2, 22874, Control_c, 0, 64, 127
2, 22885, Note_on_c, 0, 45, 0
2, 22890, Note_on_c, 0, 52, 0
2, 22890, Note_on_c, 0, 60, 0
2, 22897, Note_on_c, 0, 55, 0
2, 22907, Note_on_c, 0, 67, 0
2, 22914, Note_on_c, 0, 72, 0
2, 22984, Note_on_c, 0, 79, 60
2, 22986, Note_on_c, 0, 64, 40
2, 22986, Note_on_c, 0, 55, 36
2, 22986, Note_on_c, 0, 76, 36
2, 22987, Note_on_c, 0, 67, 55
2, 22988, Note_on_c, 0, 57, 35
2, 22990, Note_on_c, 0, 72, 37
2, 22992, Note_on_c, 0, 60, 29
2, 22999, Note_on_c, 0, 60, 0
2, 23005, Note_on_c, 0, 55, 0
2, 23005, Note_on_c, 0, 64, 0
2, 23009, Note_on_c, 0, 76, 0
2, 23010, Note_on_c, 0, 79, 0
2, 23013, Note_on_c, 0, 72, 0
2, 23015, Note_on_c, 0, 57, 0
2, 23018, Note_on_c, 0, 67, 0
2, 23066, Note_on_c, 0, 76, 81
2, 23067, Note_on_c, 0, 68, 83
2, 23067, Note_on_c, 0, 71, 70
2, 23068, Note_on_c, 0, 65, 81
2, 23070, Note_on_c, 0, 64, 96
2, 23080, Control_c, 0, 64, 0
2, 23108, Control_c, 0, 64, 127
2, 23147, Note_on_c, 0, 65, 0
2, 23148, Note_on_c, 0, 64, 0
2, 23150, Note_on_c, 0, 76, 0
2, 23153, Note_on_c, 0, 68, 0
2, 23157, Note_on_c, 0, 71, 0
2, 23165, Note_on_c, 0, 74, 70
2, 23166, Note_on_c, 0, 71, 66
2, 23167, Note_on_c, 0, 62, 73
2, 23167, Note_on_c, 0, 68, 53
2, 23168, Note_on_c, 0, 65, 67
2, 23177, Control_c, 0, 64, 0
2, 23193, Control_c, 0, 64, 127
2, 23200, Note_on_c, 0, 71, 0
2, 23201, Note_on_c, 0, 74, 0
2, 23202, Note_on_c, 0, 62, 0
2, 23203, Note_on_c, 0, 68, 0
2, 23207, Note_on_c, 0, 65, 0
2, 23244, Note_on_c, 0, 71, 57
2, 23246, Note_on_c, 0, 62, 55
2, 23246, Note_on_c, 0, 65, 57
2, 23246, Note_on_c, 0, 54, 25
2, 23247, Note_on_c, 0, 68, 37
2, 23253, Control_c, 0, 64, 0
2, 23260, Note_on_c, 0, 68, 0
2, 23261, Control_c, 0, 64, 127
2, 23270, Note_on_c, 0, 65, 0
2, 23271, Note_on_c, 0, 71, 0
2, 23281, Note_on_c, 0, 62, 0
2, 23303, Note_on_c, 0, 54, 0
2, 23320, Note_on_c, 0, 54, 34
2, 23322, Note_on_c, 0, 59, 52
2, 23323, Note_on_c, 0, 44, 36
2, 23343, Note_on_c, 0, 54, 0
2, 23349, Note_on_c, 0, 59, 0
2, 23363, Note_on_c, 0, 44, 0
2, 23373, Note_on_c, 0, 58, 48
2, 23373, Note_on_c, 0, 43, 43
2, 23375, Control_c, 0, 64, 0
2, 23375, Note_on_c, 0, 53, 37
2, 23402, Control_c, 0, 64, 127
2, 23476, Note_on_c, 0, 53, 0
2, 23501, Note_on_c, 0, 57, 67
2, 23502, Note_on_c, 0, 53, 40
2, 23504, Control_c, 0, 64, 0
2, 23508, Note_on_c, 0, 58, 0
2, 23525, Control_c, 0, 64, 127
2, 23527, Note_on_c, 0, 57, 0
2, 23530, Note_on_c, 0, 43, 0
2, 23530, Note_on_c, 0, 58, 58
2, 23536, Note_on_c, 0, 53, 0
2, 23544, Note_on_c, 0, 58, 0
2, 23560, Note_on_c, 0, 62, 62
2, 23580, Note_on_c, 0, 62, 0
2, 23590, Note_on_c, 0, 65, 67
2, 23618, Note_on_c, 0, 65, 0
2, 23622, Note_on_c, 0, 54, 36
2, 23623, Note_on_c, 0, 60, 44
2, 23623, Note_on_c, 0, 70, 53
2, 23626, Control_c, 0, 64, 0
2, 23627, Note_on_c, 0, 50, 24
2, 23636, Note_on_c, 0, 70, 0
2, 23655, Note_on_c, 0, 72, 46
2, 23657, Control_c, 0, 64, 127
2, 23671, Note_on_c, 0, 72, 0
2, 23683, Note_on_c, 0, 77, 63
2, 23684, Note_on_c, 0, 50, 0
2, 23688, Note_on_c, 0, 54, 0
2, 23692, Note_on_c, 0, 60, 0
2, 23710, Note_on_c, 0, 77, 0
2, 23712, Note_on_c, 0, 82, 69
2, 23727, Note_on_c, 0, 82, 0
2, 23744, Note_on_c, 0, 86, 64
2, 23745, Note_on_c, 0, 54, 49
2, 23746, Note_on_c, 0, 60, 50
2, 23747, Note_on_c, 0, 65, 47
2, 23747, Control_c, 0, 64, 0
2, 23765, Note_on_c, 0, 86, 0
2, 23768, Control_c, 0, 64, 127
2, 23774, Note_on_c, 0, 89, 68
2, 23787, Note_on_c, 0, 60, 0
2, 23788, Note_on_c, 0, 65, 0
2, 23796, Note_on_c, 0, 54, 0
2, 23797, Note_on_c, 0, 89, 0
2, 23805, Note_on_c, 0, 93, 94
2, 23830, Note_on_c, 0, 93, 0
2, 23837, Note_on_c, 0, 96, 90
2, 23859, Note_on_c, 0, 96, 0
2, 23864, Note_on_c, 0, 62, 55
2, 23866, Note_on_c, 0, 58, 43
2, 23867, Control_c, 0, 64, 0
2, 23869, Note_on_c, 0, 53, 32
2, 23870, Note_on_c, 0, 94, 70
2, 23870, Note_on_c, 0, 57, 31
2, 23876, Note_on_c, 0, 62, 0
2, 23877, Note_on_c, 0, 57, 0
2, 23882, Note_on_c, 0, 58, 0
2, 23888, Note_on_c, 0, 53, 0
2, 23892, Note_on_c, 0, 94, 0
2, 23900, Note_on_c, 0, 86, 55
2, 23909, Note_on_c, 0, 86, 0
2, 23929, Note_on_c, 0, 93, 73
2, 23931, Control_c, 0, 64, 127
2, 23949, Note_on_c, 0, 93, 0
2, 23961, Note_on_c, 0, 91, 65
2, 23979, Note_on_c, 0, 91, 0
2, 23988, Note_on_c, 0, 53, 51
2, 23989, Control_c, 0, 64, 0
2, 23989, Note_on_c, 0, 43, 45
2, 24004, Note_on_c, 0, 43, 0
2, 24006, Note_on_c, 0, 53, 0
2, 24017, Control_c, 0, 64, 127
2, 24021, Note_on_c, 0, 91, 66
2, 24043, Note_on_c, 0, 91, 0
2, 24052, Note_on_c, 0, 89, 64
2, 24069, Note_on_c, 0, 89, 0
2, 24087, Note_on_c, 0, 82, 49
2, 24110, Note_on_c, 0, 82, 0
2, 24118, Note_on_c, 0, 36, 35
2, 24119, Control_c, 0, 64, 0
2, 24121, Note_on_c, 0, 52, 33
2, 24123, Note_on_c, 0, 81, 37
2, 24150, Note_on_c, 0, 81, 0
2, 24152, Note_on_c, 0, 36, 0
2, 24154, Note_on_c, 0, 88, 70
2, 24154, Control_c, 0, 64, 127
2, 24168, Note_on_c, 0, 88, 0
2, 24168, Note_on_c, 0, 52, 0
2, 24250, Note_on_c, 0, 52, 45
2, 24253, Note_on_c, 0, 58, 38
2, 24255, Control_c, 0, 64, 0
2, 24255, Note_on_c, 0, 64, 27
2, 24269, Control_c, 0, 64, 127
2, 24281, Note_on_c, 0, 64, 0
2, 24289, Note_on_c, 0, 58, 0
2, 24289, Note_on_c, 0, 52, 0
2, 24333, Note_on_c, 0, 44, 33
2, 24337, Note_on_c, 0, 54, 15
2, 24355, Note_on_c, 0, 54, 0
2, 24358, Note_on_c, 0, 44, 0
2, 24377, Note_on_c, 0, 62, 44
2, 24378, Note_on_c, 0, 43, 37
2, 24379, Control_c, 0, 64, 0
2, 24379, Note_on_c, 0, 53, 34
2, 24381, Note_on_c, 0, 58, 28
2, 24383, Note_on_c, 0, 57, 24
2, 24397, Control_c, 0, 64, 127
2, 24439, Note_on_c, 0, 57, 0
2, 24450, Note_on_c, 0, 43, 0
2, 24460, Note_on_c, 0, 53, 0
2, 24461, Note_on_c, 0, 62, 0
2, 24461, Note_on_c, 0, 58, 0
2, 24465, Note_on_c, 0, 43, 49
2, 24467, Note_on_c, 0, 57, 74
2, 24474, Control_c, 0, 64, 0
2, 24503, Control_c, 0, 64, 127
2, 24504, Note_on_c, 0, 46, 44
2, 24506, Note_on_c, 0, 57, 0
2, 24506, Note_on_c, 0, 58, 73
2, 24521, Note_on_c, 0, 58, 0
2, 24535, Note_on_c, 0, 50, 50
2, 24537, Note_on_c, 0, 62, 61
2, 24542, Note_on_c, 0, 43, 0
2, 24552, Note_on_c, 0, 50, 0
2, 24553, Note_on_c, 0, 46, 0
2, 24553, Note_on_c, 0, 62, 0
2, 24565, Note_on_c, 0, 65, 68
2, 24583, Note_on_c, 0, 65, 0
2, 24596, Note_on_c, 0, 69, 69
2, 24605, Note_on_c, 0, 69, 0
2, 24683, Note_on_c, 0, 53, 49
2, 24685, Note_on_c, 0, 64, 38
2, 24685, Note_on_c, 0, 75, 50
2, 24687, Control_c, 0, 64, 0
2, 24687, Note_on_c, 0, 67, 55
2, 24688, Note_on_c, 0, 70, 48
2, 24688, Note_on_c, 0, 63, 33
2, 24688, Note_on_c, 0, 59, 29
2, 24719, Control_c, 0, 64, 127
2, 24721, Note_on_c, 0, 64, 0
2, 24722, Note_on_c, 0, 59, 0
2, 24728, Note_on_c, 0, 53, 0
2, 24740, Note_on_c, 0, 70, 0
2, 24740, Note_on_c, 0, 67, 0
2, 24745, Note_on_c, 0, 63, 0
2, 24755, Note_on_c, 0, 75, 0
2, 24764, Note_on_c, 0, 63, 45
2, 24765, Note_on_c, 0, 59, 42
2, 24766, Note_on_c, 0, 49, 34
2, 24766, Note_on_c, 0, 67, 52
2, 24766, Note_on_c, 0, 70, 49
2, 24771, Control_c, 0, 64, 0
2, 24784, Note_on_c, 0, 59, 0
2, 24785, Control_c, 0, 64, 127
2, 24790, Note_on_c, 0, 67, 0
2, 24791, Note_on_c, 0, 49, 0
2, 24797, Note_on_c, 0, 70, 0
2, 24800, Note_on_c, 0, 63, 0
2, 24854, Note_on_c, 0, 44, 39
2, 24855, Note_on_c, 0, 54, 28
2, 24870, Note_on_c, 0, 54, 0
2, 24878, Note_on_c, 0, 44, 0
2, 24900, Control_c, 0, 64, 0
2, 24901, Note_on_c, 0, 62, 47
2, 24902, Note_on_c, 0, 43, 34
2, 24902, Note_on_c, 0, 57, 34
2, 24902, Note_on_c, 0, 53, 36
2, 24902, Note_on_c, 0, 58, 37
2, 24929, Control_c, 0, 64, 127
2, 24957, Note_on_c, 0, 57, 0
2, 24962, Note_on_c, 0, 53, 0
2, 24963, Note_on_c, 0, 58, 0
2, 24964, Note_on_c, 0, 62, 0
2, 24988, Note_on_c, 0, 58, 38
2, 24988, Note_on_c, 0, 57, 40
2, 24989, Note_on_c, 0, 62, 47
2, 24992, Note_on_c, 0, 43, 0
2, 25029, Note_on_c, 0, 43, 43
2, 25031, Note_on_c, 0, 53, 37
2, 25033, Control_c, 0, 64, 0
2, 25046, Control_c, 0, 64, 127
2, 25052, Note_on_c, 0, 43, 0
2, 25055, Note_on_c, 0, 57, 0
2, 25061, Note_on_c, 0, 58, 0
2, 25065, Note_on_c, 0, 53, 0
2, 25085, Note_on_c, 0, 62, 0
2, 25162, Note_on_c, 0, 70, 68
2, 25162, Note_on_c, 0, 54, 42
2, 25163, Note_on_c, 0, 74, 57
2, 25164, Note_on_c, 0, 77, 61
2, 25164, Note_on_c, 0, 65, 62
2, 25165, Note_on_c, 0, 60, 45
2, 25165, Control_c, 0, 64, 0
2, 25170, Note_on_c, 0, 65, 0
2, 25173, Note_on_c, 0, 70, 0
2, 25176, Note_on_c, 0, 74, 0
2, 25176, Note_on_c, 0, 60, 0
2, 25178, Note_on_c, 0, 77, 0
2, 25179, Note_on_c, 0, 54, 0
2, 25230, Note_on_c, 0, 50, 51
2, 25242, Note_on_c, 0, 50, 0
2, 25245, Control_c, 0, 64, 127
2, 25270, Control_c, 0, 64, 0
2, 25293, Note_on_c, 0, 62, 60
2, 25293, Note_on_c, 0, 65, 61
2, 25293, Note_on_c, 0, 70, 50
2, 25294, Note_on_c, 0, 54, 44
2, 25295, Note_on_c, 0, 60, 31
2, 25299, Note_on_c, 0, 60, 0
2, 25300, Note_on_c, 0, 65, 0
2, 25303, Note_on_c, 0, 62, 0
2, 25303, Note_on_c, 0, 70, 0
2, 25308, Note_on_c, 0, 54, 0
2, 25355, Note_on_c, 0, 59, 74
2, 25355, Note_on_c, 0, 44, 53
2, 25356, Note_on_c, 0, 54, 44
2, 25357, Note_on_c, 0, 57, 64
2, 25370, Note_on_c, 0, 57, 0
2, 25372, Note_on_c, 0, 59, 0
2, 25374, Note_on_c, 0, 54, 0
2, 25381, Note_on_c, 0, 44, 0
2, 25418, Note_on_c, 0, 58, 50
2, 25419, Note_on_c, 0, 55, 51
2, 25419, Note_on_c, 0, 43, 41
2, 25420, Note_on_c, 0, 53, 39
2, 25431, Control_c, 0, 64, 127
2, 25481, Note_on_c, 0, 55, 0
2, 25498, Note_on_c, 0, 58, 0
2, 25499, Note_on_c, 0, 53, 0
2, 25554, Note_on_c, 0, 53, 41
2, 25559, Control_c, 0, 64, 0
2, 25564, Control_c, 0, 64, 127
2, 25593, Note_on_c, 0, 57, 58
2, 25610, Note_on_c, 0, 43, 0
2, 25612, Note_on_c, 0, 57, 0
2, 25616, Note_on_c, 0, 58, 54
2, 25618, Note_on_c, 0, 53, 0
2, 25629, Note_on_c, 0, 58, 0
2, 25646, Note_on_c, 0, 60, 43
2, 25661, Note_on_c, 0, 60, 0
2, 25662, Note_on_c, 0, 61, 47
2, 25672, Note_on_c, 0, 61, 0
2, 25674, Note_on_c, 0, 62, 44
2, 25685, Note_on_c, 0, 63, 58
2, 25688, Note_on_c, 0, 48, 39
2, 25690, Note_on_c, 0, 62, 0
2, 25691, Control_c, 0, 64, 0
2, 25691, Note_on_c, 0, 58, 25
2, 25697, Note_on_c, 0, 63, 0
2, 25697, Note_on_c, 0, 64, 65
2, 25721, Control_c, 0, 64, 127
2, 25745, Note_on_c, 0, 48, 0
2, 25759, Note_on_c, 0, 58, 0
2, 25769, Note_on_c, 0, 64, 0
2, 25820, Note_on_c, 0, 64, 36
2, 25822, Note_on_c, 0, 58, 37
2, 25839, Note_on_c, 0, 64, 0
2, 25870, Note_on_c, 0, 58, 0
2, 25906, Note_on_c, 0, 68, 76
2, 25907, Note_on_c, 0, 74, 73
2, 25907, Note_on_c, 0, 58, 60
2, 25908, Note_on_c, 0, 64, 75
2, 25909, Note_on_c, 0, 70, 52
2, 25929, Note_on_c, 0, 64, 0
2, 25930, Note_on_c, 0, 68, 0
2, 25932, Note_on_c, 0, 58, 0
2, 25933, Note_on_c, 0, 74, 0
2, 25933, Note_on_c, 0, 70, 0
2, 25960, Note_on_c, 0, 68, 67
2, 25961, Note_on_c, 0, 74, 66
2, 25961, Note_on_c, 0, 58, 63
2, 25961, Note_on_c, 0, 70, 54
2, 25962, Note_on_c, 0, 64, 66
2, 25962, Control_c, 0, 64, 0
2, 25978, Control_c, 0, 64, 127
2, 26000, Note_on_c, 0, 74, 0
2, 26010, Note_on_c, 0, 64, 0
2, 26013, Note_on_c, 0, 70, 0
2, 26016, Note_on_c, 0, 68, 0
2, 26035, Note_on_c, 0, 58, 0
2, 26043, Control_c, 0, 64, 0
2, 26045, Note_on_c, 0, 57, 64
2, 26046, Note_on_c, 0, 72, 65
2, 26046, Note_on_c, 0, 67, 81
2, 26047, Note_on_c, 0, 62, 73
2, 26054, Control_c, 0, 64, 127
2, 26060, Note_on_c, 0, 57, 0
2, 26064, Note_on_c, 0, 67, 0
2, 26070, Note_on_c, 0, 72, 0
2, 26074, Note_on_c, 0, 62, 0
2, 26099, Note_on_c, 0, 64, 60
2, 26100, Note_on_c, 0, 45, 46
2, 26101, Note_on_c, 0, 60, 59
2, 26101, Note_on_c, 0, 55, 57
2, 26105, Control_c, 0, 64, 0
2, 26118, Note_on_c, 0, 55, 0
2, 26119, Note_on_c, 0, 60, 0
2, 26120, Note_on_c, 0, 64, 0
2, 26121, Note_on_c, 0, 45, 0
2, 26126, Control_c, 0, 64, 127
2, 26142, Note_on_c, 0, 44, 55
2, 26142, Note_on_c, 0, 54, 38
2, 26144, Note_on_c, 0, 59, 52
2, 26144, Control_c, 0, 64, 0
2, 26145, Note_on_c, 0, 63, 40
2, 26161, Control_c, 0, 64, 127
2, 26182, Note_on_c, 0, 59, 0
2, 26187, Note_on_c, 0, 54, 0
2, 26193, Note_on_c, 0, 44, 0
2, 26199, Note_on_c, 0, 63, 0
2, 26224, Control_c, 0, 64, 0
2, 26226, Note_on_c, 0, 43, 41
2, 26228, Note_on_c, 0, 53, 34
2, 26228, Note_on_c, 0, 62, 47
2, 26229, Note_on_c, 0, 58, 39
2, 26241, Control_c, 0, 64, 127
2, 26252, Note_on_c, 0, 62, 0
2, 26252, Note_on_c, 0, 43, 0
2, 26260, Note_on_c, 0, 53, 0
2, 26261, Note_on_c, 0, 58, 0
2, 26301, Note_on_c, 0, 58, 57
2, 26302, Note_on_c, 0, 61, 48
2, 26304, Control_c, 0, 64, 0
2, 26305, Note_on_c, 0, 64, 44
2, 26306, Note_on_c, 0, 69, 24
2, 26308, Note_on_c, 0, 58, 0
2, 26312, Note_on_c, 0, 64, 0
2, 26313, Note_on_c, 0, 61, 0
2, 26314, Control_c, 0, 64, 127
2, 26317, Note_on_c, 0, 69, 0
2, 26361, Note_on_c, 0, 75, 59
2, 26362, Note_on_c, 0, 68, 51
2, 26362, Note_on_c, 0, 64, 64
2, 26363, Note_on_c, 0, 63, 53
2, 26364, Note_on_c, 0, 72, 36
2, 26364, Control_c, 0, 64, 0
2, 26368, Note_on_c, 0, 64, 0
2, 26371, Note_on_c, 0, 63, 0
2, 26372, Note_on_c, 0, 75, 0
2, 26372, Note_on_c, 0, 68, 0
2, 26372, Note_on_c, 0, 72, 0
2, 26388, Control_c, 0, 64, 127
2, 26405, Control_c, 0, 64, 0
2, 26418, Note_on_c, 0, 75, 56
2, 26419, Control_c, 0, 64, 127
2, 26419, Note_on_c, 0, 63, 37
2, 26421, Note_on_c, 0, 68, 39
2, 26423, Note_on_c, 0, 64, 24
2, 26424, Note_on_c, 0, 72, 28
2, 26435, Note_on_c, 0, 64, 0
2, 26435, Note_on_c, 0, 63, 0
2, 26437, Note_on_c, 0, 72, 0
2, 26438, Note_on_c, 0, 68, 0
2, 26444, Note_on_c, 0, 75, 0
2, 26459, Note_on_c, 0, 73, 68
2, 26489, Note_on_c, 0, 73, 0
2, 26499, Note_on_c, 0, 72, 49
2, 26501, Note_on_c, 0, 63, 42
2, 26504, Note_on_c, 0, 53, 36
2, 26504, Note_on_c, 0, 58, 32
2, 26505, Control_c, 0, 64, 0
2, 26505, Note_on_c, 0, 67, 18
2, 26529, Note_on_c, 0, 67, 0
2, 26533, Control_c, 0, 64, 127
2, 26559, Note_on_c, 0, 63, 0
2, 26593, Note_on_c, 0, 72, 0
2, 26603, Note_on_c, 0, 58, 0
2, 26636, Note_on_c, 0, 58, 17
2, 26636, Note_on_c, 0, 65, 51
2, 26637, Note_on_c, 0, 63, 26
2, 26669, Note_on_c, 0, 53, 0
2, 26695, Note_on_c, 0, 65, 0
2, 26710, Note_on_c, 0, 63, 0
2, 26721, Note_on_c, 0, 53, 55
2, 26723, Note_on_c, 0, 58, 0
2, 26764, Note_on_c, 0, 53, 0
2, 26778, Note_on_c, 0, 53, 71
2, 26852, Note_on_c, 0, 53, 0
2, 26859, Note_on_c, 0, 68, 71
2, 26860, Note_on_c, 0, 61, 71
2, 26860, Note_on_c, 0, 63, 60
2, 26860, Note_on_c, 0, 57, 74
2, 26863, Note_on_c, 0, 56, 64
2, 26881, Control_c, 0, 64, 0
2, 26908, Control_c, 0, 64, 127
2, 26950, Note_on_c, 0, 57, 0
2, 26953, Note_on_c, 0, 61, 0
2, 26954, Note_on_c, 0, 56, 0
2, 26956, Note_on_c, 0, 63, 0
2, 26960, Note_on_c, 0, 68, 0
2, 26965, Note_on_c, 0, 54, 51
2, 26965, Note_on_c, 0, 66, 59
2, 26966, Note_on_c, 0, 57, 62
2, 26966, Note_on_c, 0, 61, 46
2, 26967, Note_on_c, 0, 63, 48
2, 26996, Note_on_c, 0, 54, 0
2, 27019, Note_on_c, 0, 57, 0
2, 27031, Note_on_c, 0, 66, 0
2, 27031, Note_on_c, 0, 61, 0
2, 27036, Note_on_c, 0, 63, 0
2, 27106, Note_on_c, 0, 67, 64
2, 27107, Note_on_c, 0, 40, 58
2, 27107, Note_on_c, 0, 58, 64
2, 27109, Note_on_c, 0, 55, 62
2, 27110, Note_on_c, 0, 62, 57
2, 27113, Control_c, 0, 64, 0
2, 27123, Note_on_c, 0, 40, 0
2, 27128, Control_c, 0, 64, 127
2, 27129, Note_on_c, 0, 55, 0
2, 27135, Note_on_c, 0, 62, 0
2, 27135, Note_on_c, 0, 58, 0
2, 27140, Note_on_c, 0, 67, 0
2, 27173, Note_on_c, 0, 46, 55
2, 27174, Note_on_c, 0, 56, 39
2, 27175, Note_on_c, 0, 72, 68
2, 27177, Note_on_c, 0, 62, 72
2, 27182, Note_on_c, 0, 69, 26
2, 27183, Control_c, 0, 64, 0
2, 27187, Note_on_c, 0, 69, 0
2, 27194, Control_c, 0, 64, 127
2, 27200, Note_on_c, 0, 62, 0
2, 27206, Note_on_c, 0, 72, 0
2, 27223, Note_on_c, 0, 56, 0
2, 27225, Note_on_c, 0, 46, 0
2, 27243, Note_on_c, 0, 46, 46
2, 27244, Note_on_c, 0, 70, 68
2, 27246, Note_on_c, 0, 56, 30
2, 27264, Note_on_c, 0, 56, 0
2, 27265, Note_on_c, 0, 70, 0
2, 27276, Note_on_c, 0, 46, 0
2, 27311, Note_on_c, 0, 69, 57
2, 27313, Note_on_c, 0, 61, 42
2, 27313, Note_on_c, 0, 45, 42
2, 27314, Note_on_c, 0, 64, 49
2, 27316, Note_on_c, 0, 55, 45
2, 27318, Control_c, 0, 64, 0
2, 27347, Control_c, 0, 64, 127
2, 27364, Note_on_c, 0, 45, 0
2, 27386, Note_on_c, 0, 45, 46
2, 27388, Note_on_c, 0, 61, 0
2, 27389, Note_on_c, 0, 64, 0
2, 27397, Note_on_c, 0, 45, 0
2, 27399, Note_on_c, 0, 55, 0
2, 27448, Note_on_c, 0, 61, 35
2, 27449, Note_on_c, 0, 65, 53
2, 27450, Note_on_c, 0, 51, 45
2, 27450, Note_on_c, 0, 57, 49
2, 27458, Control_c, 0, 64, 0
2, 27479, Control_c, 0, 64, 127
2, 27512, Note_on_c, 0, 51, 0
2, 27530, Note_on_c, 0, 61, 0
2, 27535, Note_on_c, 0, 51, 40
2, 27538, Note_on_c, 0, 57, 0
2, 27550, Note_on_c, 0, 65, 0
2, 27567, Note_on_c, 0, 51, 0
2, 27579, Note_on_c, 0, 69, 0
2, 27587, Note_on_c, 0, 60, 45
2, 27587, Note_on_c, 0, 64, 45
2, 27587, Note_on_c, 0, 50, 34
2, 27588, Control_c, 0, 64, 0
2, 27589, Note_on_c, 0, 55, 37
2, 27602, Note_on_c, 0, 60, 0
2, 27606, Control_c, 0, 64, 127
2, 27611, Note_on_c, 0, 64, 0
2, 27616, Note_on_c, 0, 50, 0
2, 27618, Note_on_c, 0, 55, 0
2, 27673, Note_on_c, 0, 81, 74
2, 27675, Note_on_c, 0, 69, 77
2, 27704, Note_on_c, 0, 69, 0
2, 27705, Note_on_c, 0, 81, 0
2, 27719, Control_c, 0, 64, 0
2, 27721, Note_on_c, 0, 64, 30
2, 27722, Note_on_c, 0, 80, 40
2, 27725, Note_on_c, 0, 60, 35
2, 27727, Note_on_c, 0, 59, 20
2, 27733, Note_on_c, 0, 60, 0
2, 27733, Note_on_c, 0, 64, 0
2, 27735, Note_on_c, 0, 59, 0
2, 27746, Note_on_c, 0, 80, 0
2, 27748, Control_c, 0, 64, 127
2, 27761, Note_on_c, 0, 69, 51
2, 27761, Note_on_c, 0, 81, 47
2, 27769, Note_on_c, 0, 69, 0
2, 27775, Note_on_c, 0, 81, 0
2, 27783, Control_c, 0, 64, 0
2, 27802, Note_on_c, 0, 72, 61
2, 27802, Note_on_c, 0, 84, 68
2, 27806, Control_c, 0, 64, 127
2, 27811, Note_on_c, 0, 84, 0
2, 27812, Note_on_c, 0, 72, 0
2, 27830, Control_c, 0, 64, 0
2, 27844, Note_on_c, 0, 54, 31
2, 27845, Note_on_c, 0, 50, 36
2, 27845, Note_on_c, 0, 60, 33
2, 27856, Control_c, 0, 64, 127
2, 27897, Note_on_c, 0, 50, 0
2, 27903, Note_on_c, 0, 60, 0
2, 27907, Note_on_c, 0, 54, 0
2, 27972, Control_c, 0, 64, 0
2, 27978, Note_on_c, 0, 60, 39
2, 27978, Note_on_c, 0, 65, 27
2, 27978, Note_on_c, 0, 54, 29
2, 27990, Control_c, 0, 64, 127
2, 27996, Note_on_c, 0, 60, 0
2, 28004, Note_on_c, 0, 54, 0
2, 28007, Note_on_c, 0, 65, 0
2, 28060, Note_on_c, 0, 82, 69
2, 28077, Note_on_c, 0, 82, 0
2, 28107, Note_on_c, 0, 70, 65
2, 28107, Note_on_c, 0, 81, 57
2, 28107, Note_on_c, 0, 74, 66
2, 28108, Note_on_c, 0, 69, 70
2, 28114, Control_c, 0, 64, 0
2, 28135, Note_on_c, 0, 69, 0
2, 28138, Note_on_c, 0, 68, 52
2, 28149, Control_c, 0, 64, 127
2, 28152, Note_on_c, 0, 68, 0
2, 28156, Note_on_c, 0, 67, 51
2, 28171, Note_on_c, 0, 67, 0
2, 28173, Note_on_c, 0, 66, 48
2, 28188, Note_on_c, 0, 66, 0
2, 28188, Control_c, 0, 64, 0
2, 28191, Note_on_c, 0, 65, 60
2, 28218, Control_c, 0, 64, 127
2, 28228, Note_on_c, 0, 81, 0
2, 28231, Note_on_c, 0, 74, 0
2, 28238, Note_on_c, 0, 70, 0
2, 28238, Note_on_c, 0, 55, 38
2, 28267, Note_on_c, 0, 65, 0
2, 28277, Note_on_c, 0, 69, 36
2, 28304, Note_on_c, 0, 69, 0
2, 28313, Note_on_c, 0, 70, 47
2, 28335, Note_on_c, 0, 70, 0
2, 28343, Note_on_c, 0, 77, 55
2, 28365, Note_on_c, 0, 77, 0
2, 28375, Note_on_c, 0, 64, 38
2, 28376, Note_on_c, 0, 67, 36
2, 28378, Note_on_c, 0, 70, 34
2, 28381, Note_on_c, 0, 76, 36
2, 28385, Control_c, 0, 64, 0
2, 28399, Control_c, 0, 64, 127
2, 28408, Note_on_c, 0, 55, 0
2, 28418, Note_on_c, 0, 64, 0
2, 28422, Note_on_c, 0, 63, 34
2, 28432, Note_on_c, 0, 76, 0
2, 28436, Note_on_c, 0, 67, 0
2, 28437, Note_on_c, 0, 70, 0
2, 28438, Control_c, 0, 64, 0
2, 28455, Note_on_c, 0, 74, 57
2, 28458, Note_on_c, 0, 67, 36
2, 28459, Note_on_c, 0, 70, 31
2, 28459, Note_on_c, 0, 62, 53
2, 28464, Note_on_c, 0, 63, 0
2, 28466, Control_c, 0, 64, 127
2, 28493, Note_on_c, 0, 70, 0
2, 28497, Note_on_c, 0, 74, 0
2, 28500, Note_on_c, 0, 67, 0
2, 28506, Note_on_c, 0, 55, 49
2, 28511, Note_on_c, 0, 62, 0
2, 28527, Note_on_c, 0, 55, 0
2, 28634, Note_on_c, 0, 70, 41
2, 28640, Note_on_c, 0, 56, 33
2, 28640, Note_on_c, 0, 64, 43
2, 28640, Note_on_c, 0, 61, 32
2, 28641, Note_on_c, 0, 46, 34
2, 28646, Control_c, 0, 64, 0
2, 28673, Control_c, 0, 64, 127
2, 28690, Note_on_c, 0, 56, 0
2, 28694, Note_on_c, 0, 70, 0
2, 28698, Note_on_c, 0, 64, 0
2, 28703, Note_on_c, 0, 61, 0
2, 28723, Note_on_c, 0, 57, 35
2, 28724, Note_on_c, 0, 69, 50
2, 28735, Note_on_c, 0, 57, 0
2, 28756, Note_on_c, 0, 46, 0
2, 28763, Note_on_c, 0, 69, 0
2, 28773, Note_on_c, 0, 46, 32
2, 28777, Note_on_c, 0, 62, 44
2, 28779, Note_on_c, 0, 65, 41
2, 28779, Note_on_c, 0, 57, 25
2, 28782, Note_on_c, 0, 55, 24
2, 28784, Control_c, 0, 64, 0
2, 28806, Control_c, 0, 64, 127
2, 28824, Note_on_c, 0, 46, 0
2, 28833, Note_on_c, 0, 57, 0
2, 28850, Note_on_c, 0, 62, 0
2, 28851, Note_on_c, 0, 55, 0
2, 28852, Note_on_c, 0, 65, 0
2, 28857, Note_on_c, 0, 46, 36
2, 28875, Note_on_c, 0, 46, 0
2, 28910, Note_on_c, 0, 51, 39
2, 28910, Note_on_c, 0, 65, 57
2, 28911, Note_on_c, 0, 61, 33
2, 28912, Note_on_c, 0, 58, 25
2, 28913, Control_c, 0, 64, 0
2, 28935, Note_on_c, 0, 58, 0
2, 28938, Control_c, 0, 64, 127
2, 28943, Note_on_c, 0, 61, 0
2, 28945, Note_on_c, 0, 65, 0
2, 28951, Note_on_c, 0, 72, 62
2, 28951, Note_on_c, 0, 65, 32
2, 28952, Note_on_c, 0, 61, 27
2, 28957, Note_on_c, 0, 69, 40
2, 28957, Note_on_c, 0, 60, 24
2, 28962, Control_c, 0, 64, 0
2, 28979, Control_c, 0, 64, 127
2, 29011, Note_on_c, 0, 65, 0
2, 29015, Note_on_c, 0, 69, 0
2, 29016, Note_on_c, 0, 61, 0
2, 29019, Note_on_c, 0, 60, 0
2, 29022, Note_on_c, 0, 72, 0
2, 29038, Note_on_c, 0, 61, 38
2, 29039, Note_on_c, 0, 70, 46
2, 29041, Note_on_c, 0, 65, 43
2, 29042, Control_c, 0, 64, 0
2, 29042, Note_on_c, 0, 58, 31
2, 29060, Control_c, 0, 64, 127
2, 29083, Note_on_c, 0, 51, 0
2, 29112, Note_on_c, 0, 65, 0
2, 29112, Note_on_c, 0, 61, 0
2, 29119, Note_on_c, 0, 70, 0
2, 29120, Note_on_c, 0, 51, 36
2, 29145, Note_on_c, 0, 58, 0
2, 29149, Note_on_c, 0, 51, 0
2, 29172, Note_on_c, 0, 50, 27
2, 29172, Note_on_c, 0, 67, 41
2, 29173, Note_on_c, 0, 57, 31
2, 29174, Note_on_c, 0, 64, 34
2, 29174, Control_c, 0, 64, 0
2, 29174, Note_on_c, 0, 60, 28
2, 29191, Control_c, 0, 64, 127
2, 29193, Note_on_c, 0, 60, 0
2, 29202, Note_on_c, 0, 67, 0
2, 29202, Note_on_c, 0, 64, 0
2, 29235, Note_on_c, 0, 57, 0
2, 29257, Note_on_c, 0, 76, 74
2, 29310, Note_on_c, 0, 60, 22
2, 29335, Note_on_c, 0, 50, 0
2, 29337, Note_on_c, 0, 60, 0
2, 29348, Note_on_c, 0, 76, 0
2, 29350, Note_on_c, 0, 74, 54
2, 29374, Note_on_c, 0, 74, 0
2, 29390, Note_on_c, 0, 76, 62
2, 29405, Note_on_c, 0, 76, 0
2, 29432, Note_on_c, 0, 53, 37
2, 29434, Control_c, 0, 64, 0
2, 29434, Note_on_c, 0, 81, 66
2, 29436, Note_on_c, 0, 59, 35
2, 29436, Note_on_c, 0, 64, 20
2, 29448, Note_on_c, 0, 81, 0
2, 29476, Note_on_c, 0, 75, 56
2, 29477, Note_on_c, 0, 81, 58
2, 29487, Note_on_c, 0, 75, 0
2, 29489, Note_on_c, 0, 76, 38
2, 29513, Note_on_c, 0, 76, 0
2, 29523, Note_on_c, 0, 81, 0
2, 29525, Control_c, 0, 64, 127
2, 29525, Note_on_c, 0, 69, 24
2, 29531, Note_on_c, 0, 69, 0
2, 29535, Note_on_c, 0, 64, 0
2, 29537, Note_on_c, 0, 59, 0
2, 29556, Control_c, 0, 64, 0
2, 29561, Note_on_c, 0, 74, 54
2, 29568, Note_on_c, 0, 59, 25
2, 29570, Note_on_c, 0, 64, 15
2, 29586, Control_c, 0, 64, 127
2, 29596, Note_on_c, 0, 74, 0
2, 29604, Note_on_c, 0, 53, 0
2, 29611, Note_on_c, 0, 65, 31
2, 29612, Note_on_c, 0, 67, 25
2, 29630, Note_on_c, 0, 67, 0
2, 29645, Note_on_c, 0, 53, 34
2, 29648, Note_on_c, 0, 59, 0
2, 29650, Note_on_c, 0, 64, 0
2, 29670, Note_on_c, 0, 53, 0
2, 29693, Note_on_c, 0, 62, 36
2, 29694, Note_on_c, 0, 57, 26
2, 29696, Note_on_c, 0, 58, 31
2, 29699, Control_c, 0, 64, 0
2, 29719, Note_on_c, 0, 65, 0
2, 29732, Note_on_c, 0, 69, 20
2, 29738, Note_on_c, 0, 70, 61
2, 29739, Note_on_c, 0, 69, 0
2, 29755, Note_on_c, 0, 70, 0
2, 29756, Note_on_c, 0, 69, 35
2, 29769, Note_on_c, 0, 69, 0
2, 29772, Note_on_c, 0, 62, 0
2, 29772, Note_on_c, 0, 67, 44
2, 29780, Note_on_c, 0, 58, 0
2, 29781, Note_on_c, 0, 67, 0
2, 29799, Note_on_c, 0, 70, 37
2, 29799, Control_c, 0, 64, 127
2, 29804, Note_on_c, 0, 70, 0
2, 29816, Note_on_c, 0, 74, 58
2, 29824, Control_c, 0, 64, 0
2, 29826, Note_on_c, 0, 74, 0
2, 29828, Note_on_c, 0, 62, 25
2, 29830, Note_on_c, 0, 78, 49
2, 29831, Note_on_c, 0, 58, 27
2, 29843, Note_on_c, 0, 78, 0
2, 29849, Note_on_c, 0, 81, 46
2, 29864, Note_on_c, 0, 81, 0
2, 29865, Note_on_c, 0, 78, 27
2, 29871, Note_on_c, 0, 78, 0
2, 29873, Note_on_c, 0, 62, 0
2, 29878, Note_on_c, 0, 79, 43
2, 29880, Note_on_c, 0, 57, 0
2, 29891, Note_on_c, 0, 79, 0
2, 29896, Note_on_c, 0, 58, 0
2, 29907, Note_on_c, 0, 82, 37
2, 29917, Control_c, 0, 64, 127
2, 29925, Note_on_c, 0, 82, 0
2, 29926, Note_on_c, 0, 83, 38
2, 29938, Note_on_c, 0, 83, 0
2, 29944, Note_on_c, 0, 84, 62
2, 29945, Control_c, 0, 64, 0
2, 29945, Note_on_c, 0, 52, 38
2, 29949, Note_on_c, 0, 63, 14
2, 29950, Note_on_c, 0, 84, 0
2, 29951, Note_on_c, 0, 58, 26
2, 29957, Note_on_c, 0, 63, 0
2, 29964, Note_on_c, 0, 52, 0
2, 29966, Note_on_c, 0, 58, 0
2, 29977, Note_on_c, 0, 74, 54
2, 29983, Note_on_c, 0, 74, 0
2, 30015, Note_on_c, 0, 48, 54
2, 30021, Note_on_c, 0, 48, 0
2, 30026, Control_c, 0, 64, 127
2, 30054, Control_c, 0, 64, 0
2, 30061, Note_on_c, 0, 75, 62
2, 30063, Note_on_c, 0, 72, 43
2, 30064, Note_on_c, 0, 68, 39
2, 30064, Note_on_c, 0, 64, 45
2, 30066, Note_on_c, 0, 58, 36
2, 30087, Control_c, 0, 64, 127
2, 30119, Note_on_c, 0, 58, 0
2, 30130, Note_on_c, 0, 64, 0
2, 30133, Note_on_c, 0, 75, 0
2, 30133, Note_on_c, 0, 72, 0
2, 30134, Note_on_c, 0, 68, 0
2, 30141, Note_on_c, 0, 58, 36
2, 30168, Note_on_c, 0, 58, 0
2, 30190, Note_on_c, 0, 66, 48
2, 30191, Note_on_c, 0, 60, 53
2, 30193, Note_on_c, 0, 57, 49
2, 30193, Note_on_c, 0, 69, 51
2, 30195, Control_c, 0, 64, 0
2, 30217, Control_c, 0, 64, 127
2, 30237, Note_on_c, 0, 69, 0
2, 30243, Note_on_c, 0, 57, 0
2, 30250, Note_on_c, 0, 60, 0
2, 30251, Note_on_c, 0, 66, 0
2, 30276, Note_on_c, 0, 45, 50
2, 30295, Note_on_c, 0, 45, 0
2, 30324, Note_on_c, 0, 44, 53
2, 30326, Note_on_c, 0, 59, 53
2, 30326, Note_on_c, 0, 63, 48
2, 30327, Note_on_c, 0, 54, 46
2, 30334, Control_c, 0, 64, 0
2, 30355, Control_c, 0, 64, 127
2, 30399, Note_on_c, 0, 54, 0
2, 30401, Note_on_c, 0, 44, 0
2, 30404, Note_on_c, 0, 59, 0
2, 30410, Note_on_c, 0, 63, 0
2, 30457, Note_on_c, 0, 62, 54
2, 30459, Note_on_c, 0, 53, 47
2, 30459, Note_on_c, 0, 55, 36
2, 30460, Note_on_c, 0, 58, 38
2, 30461, Note_on_c, 0, 43, 34
2, 30466, Control_c, 0, 64, 0
2, 30495, Control_c, 0, 64, 127
2, 30518, Note_on_c, 0, 62, 0
2, 30520, Note_on_c, 0, 53, 0
2, 30530, Note_on_c, 0, 43, 0
2, 30531, Note_on_c, 0, 55, 0
2, 30532, Note_on_c, 0, 58, 0
2, 30590, Note_on_c, 0, 61, 33
2, 30590, Note_on_c, 0, 52, 43
2, 30591, Control_c, 0, 64, 0
2, 30592, Note_on_c, 0, 42, 32
2, 30592, Note_on_c, 0, 56, 33
2, 30597, Note_on_c, 0, 49, 28
2, 30599, Note_on_c, 0, 58, 20
2, 30611, Control_c, 0, 64, 127
2, 30614, Note_on_c, 0, 52, 0
2, 30616, Note_on_c, 0, 42, 0
2, 30623, Note_on_c, 0, 56, 0
2, 30625, Note_on_c, 0, 49, 0
2, 30625, Note_on_c, 0, 58, 0
2, 30627, Note_on_c, 0, 61, 0
2, 30711, Control_c, 0, 64, 0
2, 30720, Note_on_c, 0, 50, 42
2, 30720, Note_on_c, 0, 57, 69
2, 30721, Note_on_c, 0, 41, 53
2, 30730, Control_c, 0, 64, 127
2, 30752, Note_on_c, 0, 41, 0
2, 30762, Note_on_c, 0, 57, 0
2, 30762, Note_on_c, 0, 50, 0
2, 30834, Note_on_c, 0, 62, 53
2, 30840, Note_on_c, 0, 60, 47
2, 30842, Note_on_c, 0, 57, 33
2, 30847, Note_on_c, 0, 62, 0
2, 30850, Note_on_c, 0, 60, 0
2, 30865, Note_on_c, 0, 57, 0
2, 30881, Note_on_c, 0, 60, 72
2, 30897, Note_on_c, 0, 60, 0
2, 30916, Note_on_c, 0, 62, 87
2, 30931, Control_c, 0, 64, 0
2, 30943, Note_on_c, 0, 62, 0
2, 30954, Note_on_c, 0, 62, 54
2, 30954, Note_on_c, 0, 65, 64
2, 30955, Note_on_c, 0, 48, 50
2, 30955, Note_on_c, 0, 58, 57
2, 30974, Control_c, 0, 64, 127
2, 30979, Note_on_c, 0, 58, 0
2, 30982, Note_on_c, 0, 62, 0
2, 30984, Note_on_c, 0, 65, 0
2, 30998, Note_on_c, 0, 72, 75
2, 31006, Note_on_c, 0, 48, 0
2, 31067, Note_on_c, 0, 72, 0
2, 31069, Note_on_c, 0, 68, 47
2, 31071, Note_on_c, 0, 64, 45
2, 31073, Control_c, 0, 64, 0
2, 31075, Note_on_c, 0, 58, 56
2, 31092, Control_c, 0, 64, 127
2, 31145, Note_on_c, 0, 58, 0
2, 31145, Note_on_c, 0, 68, 0
2, 31147, Note_on_c, 0, 64, 0
2, 31150, Note_on_c, 0, 73, 50
2, 31178, Note_on_c, 0, 73, 0
2, 31189, Control_c, 0, 64, 0
2, 31195, Note_on_c, 0, 72, 36
2, 31196, Note_on_c, 0, 45, 44
2, 31198, Note_on_c, 0, 55, 38
2, 31198, Note_on_c, 0, 60, 37
2, 31198, Note_on_c, 0, 67, 44
2, 31214, Note_on_c, 0, 60, 0
2, 31214, Control_c, 0, 64, 127
2, 31225, Note_on_c, 0, 45, 0
2, 31225, Note_on_c, 0, 67, 0
2, 31233, Note_on_c, 0, 72, 0
2, 31237, Note_on_c, 0, 55, 0
2, 31277, Note_on_c, 0, 79, 74
2, 31278, Note_on_c, 0, 76, 76
2, 31278, Note_on_c, 0, 72, 79
2, 31279, Note_on_c, 0, 67, 80
2, 31309, Note_on_c, 0, 67, 0
2, 31311, Note_on_c, 0, 79, 0
2, 31312, Note_on_c, 0, 72, 0
2, 31317, Note_on_c, 0, 76, 0
2, 31318, Control_c, 0, 64, 0
2, 31323, Note_on_c, 0, 55, 36
2, 31323, Note_on_c, 0, 64, 49
2, 31324, Note_on_c, 0, 57, 41
2, 31325, Note_on_c, 0, 60, 43
2, 31325, Note_on_c, 0, 79, 51
2, 31327, Note_on_c, 0, 72, 48
2, 31327, Note_on_c, 0, 67, 63
2, 31328, Note_on_c, 0, 76, 61
2, 31339, Control_c, 0, 64, 127
2, 31351, Note_on_c, 0, 60, 0
2, 31351, Note_on_c, 0, 64, 0
2, 31364, Note_on_c, 0, 57, 0
2, 31367, Note_on_c, 0, 55, 0
2, 31367, Note_on_c, 0, 76, 0
2, 31379, Note_on_c, 0, 67, 0
2, 31387, Note_on_c, 0, 72, 0
2, 31387, Note_on_c, 0, 79, 0
2, 31401, Note_on_c, 0, 77, 56
2, 31428, Note_on_c, 0, 77, 0
2, 31437, Control_c, 0, 64, 0
2, 31442, Note_on_c, 0, 79, 29
2, 31443, Note_on_c, 0, 44, 37
2, 31443, Note_on_c, 0, 77, 45
2, 31444, Note_on_c, 0, 74, 48
2, 31444, Note_on_c, 0, 53, 44
2, 31445, Note_on_c, 0, 71, 56
2, 31466, Control_c, 0, 64, 127
2, 31479, Note_on_c, 0, 44, 0
2, 31484, Note_on_c, 0, 53, 0
2, 31531, Note_on_c, 0, 74, 0
2, 31532, Note_on_c, 0, 71, 0
2, 31552, Note_on_c, 0, 79, 0
2, 31554, Note_on_c, 0, 77, 0
2, 31559, Note_on_c, 0, 71, 57
2, 31560, Note_on_c, 0, 62, 42
2, 31560, Note_on_c, 0, 74, 50
2, 31563, Note_on_c, 0, 65, 40
2, 31563, Note_on_c, 0, 53, 28
2, 31564, Note_on_c, 0, 56, 29
2, 31565, Note_on_c, 0, 59, 39
2, 31577, Note_on_c, 0, 59, 0
2, 31577, Note_on_c, 0, 62, 0
2, 31578, Note_on_c, 0, 74, 0
2, 31582, Note_on_c, 0, 71, 0
2, 31585, Note_on_c, 0, 65, 0
2, 31587, Note_on_c, 0, 56, 0
2, 31588, Note_on_c, 0, 53, 0
2, 31633, Note_on_c, 0, 59, 69
2, 31669, Note_on_c, 0, 59, 0
2, 31669, Control_c, 0, 64, 0
2, 31677, Note_on_c, 0, 58, 65
2, 31677, Note_on_c, 0, 43, 51
2, 31680, Note_on_c, 0, 53, 43
2, 31690, Control_c, 0, 64, 127
2, 31712, Note_on_c, 0, 43, 0
2, 31723, Note_on_c, 0, 53, 0
2, 31730, Note_on_c, 0, 58, 0
2, 31748, Note_on_c, 0, 51, 25
2, 31751, Note_on_c, 0, 52, 74
2, 31755, Note_on_c, 0, 51, 0
2, 31755, Note_on_c, 0, 58, 83
2, 31755, Note_on_c, 0, 65, 76
2, 31756, Note_on_c, 0, 53, 64
2, 31757, Note_on_c, 0, 62, 70
2, 31757, Note_on_c, 0, 55, 83
2, 31763, Note_on_c, 0, 52, 0
2, 31787, Note_on_c, 0, 65, 0
2, 31788, Note_on_c, 0, 55, 0
2, 31794, Note_on_c, 0, 62, 0
2, 31796, Note_on_c, 0, 58, 0
2, 31796, Control_c, 0, 64, 0
2, 31806, Note_on_c, 0, 65, 62
2, 31806, Note_on_c, 0, 58, 58
2, 31808, Note_on_c, 0, 62, 69
2, 31808, Note_on_c, 0, 55, 46
2, 31812, Note_on_c, 0, 53, 0
2, 31814, Control_c, 0, 64, 127
2, 31818, Note_on_c, 0, 55, 0
2, 31841, Note_on_c, 0, 55, 74
2, 31849, Note_on_c, 0, 62, 0
2, 31859, Note_on_c, 0, 55, 0
2, 31865, Note_on_c, 0, 65, 0
2, 31868, Note_on_c, 0, 58, 0
2, 31879, Note_on_c, 0, 53, 66
2, 31886, Note_on_c, 0, 39, 36
2, 31902, Note_on_c, 0, 53, 0
2, 31910, Note_on_c, 0, 39, 0
2, 31913, Control_c, 0, 64, 0
2, 31920, Note_on_c, 0, 54, 64
2, 31924, Note_on_c, 0, 38, 47
2, 31927, Note_on_c, 0, 48, 29
2, 31941, Control_c, 0, 64, 127
2, 31954, Note_on_c, 0, 38, 0
2, 31964, Note_on_c, 0, 48, 0
2, 31964, Note_on_c, 0, 54, 0
2, 32038, Note_on_c, 0, 60, 54
2, 32040, Note_on_c, 0, 54, 32
2, 32043, Note_on_c, 0, 50, 31
2, 32046, Note_on_c, 0, 57, 30
2, 32055, Note_on_c, 0, 60, 0
2, 32058, Note_on_c, 0, 57, 0
2, 32066, Note_on_c, 0, 50, 0
2, 32067, Note_on_c, 0, 54, 0
2, 32117, Note_on_c, 0, 44, 47
2, 32124, Note_on_c, 0, 49, 33
2, 32142, Note_on_c, 0, 49, 0
2, 32143, Note_on_c, 0, 44, 0
2, 32155, Control_c, 0, 64, 0
2, 32160, Note_on_c, 0, 62, 59
2, 32161, Note_on_c, 0, 58, 46
2, 32162, Note_on_c, 0, 53, 51
2, 32162, Note_on_c, 0, 50, 37
2, 32163, Note_on_c, 0, 43, 45
2, 32165, Note_on_c, 0, 55, 48
2, 32179, Control_c, 0, 64, 127
2, 32186, Note_on_c, 0, 55, 0
2, 32188, Note_on_c, 0, 53, 0
2, 32191, Note_on_c, 0, 62, 0
2, 32195, Note_on_c, 0, 58, 0
2, 32238, Note_on_c, 0, 58, 80
2, 32238, Note_on_c, 0, 65, 78
2, 32239, Note_on_c, 0, 55, 85
2, 32240, Note_on_c, 0, 62, 62
2, 32240, Note_on_c, 0, 53, 76
2, 32243, Note_on_c, 0, 57, 58
2, 32246, Note_on_c, 0, 50, 0
2, 32248, Note_on_c, 0, 57, 0
2, 32260, Note_on_c, 0, 62, 0
2, 32265, Note_on_c, 0, 55, 0
2, 32273, Note_on_c, 0, 58, 0
2, 32275, Note_on_c, 0, 43, 0
2, 32280, Note_on_c, 0, 53, 0
2, 32280, Note_on_c, 0, 65, 0
2, 32283, Note_on_c, 0, 50, 49
2, 32285, Note_on_c, 0, 55, 57
2, 32285, Note_on_c, 0, 58, 36
2, 32286, Note_on_c, 0, 62, 46
2, 32289, Note_on_c, 0, 50, 0
2, 32307, Note_on_c, 0, 62, 0
2, 32327, Note_on_c, 0, 55, 0
2, 32335, Note_on_c, 0, 58, 0
2, 32355, Note_on_c, 0, 63, 60
2, 32380, Note_on_c, 0, 63, 0
2, 32391, Control_c, 0, 64, 0
2, 32396, Note_on_c, 0, 36, 37
2, 32399, Note_on_c, 0, 64, 58
2, 32399, Note_on_c, 0, 50, 31
2, 32399, Note_on_c, 0, 52, 31
2, 32402, Note_on_c, 0, 43, 32
2, 32413, Note_on_c, 0, 50, 0
2, 32416, Note_on_c, 0, 52, 0
2, 32420, Control_c, 0, 64, 127
2, 32461, Note_on_c, 0, 64, 0
2, 32469, Note_on_c, 0, 36, 0
2, 32472, Note_on_c, 0, 40, 55
2, 32473, Note_on_c, 0, 55, 78
2, 32478, Note_on_c, 0, 53, 37
2, 32484, Note_on_c, 0, 53, 0
2, 32492, Note_on_c, 0, 43, 0
2, 32509, Control_c, 0, 64, 0
2, 32513, Note_on_c, 0, 55, 0
2, 32513, Note_on_c, 0, 40, 0
2, 32523, Note_on_c, 0, 53, 50
2, 32524, Note_on_c, 0, 38, 35
2, 32539, Control_c, 0, 64, 127
2, 32583, Note_on_c, 0, 38, 0
2, 32585, Note_on_c, 0, 53, 0
2, 32595, Note_on_c, 0, 36, 54
2, 32608, Note_on_c, 0, 36, 0
2, 32628, Control_c, 0, 64, 0
2, 32637, Note_on_c, 0, 58, 49
2, 32639, Note_on_c, 0, 50, 48
2, 32639, Note_on_c, 0, 43, 44
2, 32641, Note_on_c, 0, 53, 47
2, 32642, Note_on_c, 0, 31, 49
2, 32656, Note_on_c, 0, 50, 0
2, 32659, Control_c, 0, 64, 127
2, 32660, Note_on_c, 0, 53, 0
2, 32666, Note_on_c, 0, 31, 0
2, 32668, Note_on_c, 0, 58, 0
2, 32677, Note_on_c, 0, 43, 0
2, 32720, Note_on_c, 0, 70, 78
2, 32757, Control_c, 0, 64, 0
2, 32758, Note_on_c, 0, 70, 0
2, 32761, Note_on_c, 0, 53, 39
2, 32761, Note_on_c, 0, 62, 49
2, 32763, Note_on_c, 0, 57, 37
2, 32763, Note_on_c, 0, 58, 34
2, 32778, Note_on_c, 0, 62, 0
2, 32793, Control_c, 0, 64, 127
2, 32794, Note_on_c, 0, 67, 68
2, 32814, Note_on_c, 0, 67, 0
2, 32819, Note_on_c, 0, 57, 0
2, 32824, Note_on_c, 0, 68, 70
2, 32836, Note_on_c, 0, 53, 0
2, 32839, Note_on_c, 0, 58, 0
2, 32843, Note_on_c, 0, 68, 0
2, 32849, Note_on_c, 0, 68, 37
2, 32853, Note_on_c, 0, 69, 89
2, 32854, Note_on_c, 0, 68, 0
2, 32867, Control_c, 0, 64, 0
2, 32876, Note_on_c, 0, 69, 0
2, 32882, Note_on_c, 0, 63, 52
2, 32883, Note_on_c, 0, 53, 53
2, 32883, Note_on_c, 0, 70, 75
2, 32884, Note_on_c, 0, 59, 54
2, 32902, Control_c, 0, 64, 127
2, 32912, Note_on_c, 0, 70, 0
2, 32915, Note_on_c, 0, 71, 64
2, 32916, Note_on_c, 0, 59, 0
2, 32916, Note_on_c, 0, 63, 0
2, 32922, Note_on_c, 0, 53, 0
2, 32944, Note_on_c, 0, 71, 0
2, 32946, Note_on_c, 0, 75, 65
2, 32970, Note_on_c, 0, 75, 0
2, 32973, Note_on_c, 0, 82, 67
2, 32992, Control_c, 0, 64, 0
2, 32995, Note_on_c, 0, 82, 0
2, 32998, Note_on_c, 0, 49, 34
2, 32999, Note_on_c, 0, 59, 37
2, 33007, Note_on_c, 0, 80, 42
2, 33016, Control_c, 0, 64, 127
2, 33043, Note_on_c, 0, 49, 0
2, 33047, Note_on_c, 0, 59, 0
2, 33049, Note_on_c, 0, 80, 0
2, 33074, Note_on_c, 0, 61, 64
2, 33080, Note_on_c, 0, 61, 0
2, 33106, Control_c, 0, 64, 0
2, 33114, Note_on_c, 0, 62, 54
2, 33117, Note_on_c, 0, 81, 54
2, 33117, Note_on_c, 0, 77, 50
2, 33117, Note_on_c, 0, 55, 50
2, 33117, Note_on_c, 0, 69, 57
2, 33117, Note_on_c, 0, 53, 52
2, 33119, Note_on_c, 0, 58, 44
2, 33119, Note_on_c, 0, 74, 42
2, 33138, Control_c, 0, 64, 127
2, 33179, Note_on_c, 0, 55, 0
2, 33184, Note_on_c, 0, 53, 0
2, 33186, Note_on_c, 0, 62, 0
2, 33196, Note_on_c, 0, 58, 0
2, 33205, Note_on_c, 0, 69, 0
2, 33208, Note_on_c, 0, 74, 0
2, 33212, Note_on_c, 0, 77, 0
2, 33217, Note_on_c, 0, 81, 0
2, 33236, Note_on_c, 0, 51, 55
2, 33236, Control_c, 0, 64, 0
2, 33236, Note_on_c, 0, 61, 61
2, 33237, Note_on_c, 0, 81, 54
2, 33239, Note_on_c, 0, 77, 43
2, 33239, Note_on_c, 0, 69, 43
2, 33239, Note_on_c, 0, 74, 45
2, 33262, Control_c, 0, 64, 127
2, 33276, Note_on_c, 0, 69, 0
2, 33289, Note_on_c, 0, 81, 0
2, 33289, Note_on_c, 0, 61, 0
2, 33297, Note_on_c, 0, 74, 0
2, 33303, Note_on_c, 0, 51, 0
2, 33345, Control_c, 0, 64, 0
2, 33356, Note_on_c, 0, 50, 49
2, 33356, Note_on_c, 0, 54, 37
2, 33357, Note_on_c, 0, 66, 50
2, 33358, Note_on_c, 0, 60, 45
2, 33373, Control_c, 0, 64, 127
2, 33409, Note_on_c, 0, 77, 0
2, 33410, Note_on_c, 0, 50, 0
2, 33418, Note_on_c, 0, 54, 0
2, 33419, Note_on_c, 0, 60, 0
2, 33431, Note_on_c, 0, 66, 0
2, 33477, Note_on_c, 0, 65, 46
2, 33478, Note_on_c, 0, 54, 32
2, 33479, Note_on_c, 0, 60, 50
2, 33496, Note_on_c, 0, 65, 0
2, 33504, Note_on_c, 0, 60, 0
2, 33511, Note_on_c, 0, 54, 0
2, 33560, Note_on_c, 0, 65, 72
2, 33562, Note_on_c, 0, 62, 76
2, 33562, Note_on_c, 0, 58, 81
2, 33563, Note_on_c, 0, 55, 89
2, 33563, Note_on_c, 0, 51, 54
2, 33563, Note_on_c, 0, 53, 74
2, 33569, Note_on_c, 0, 51, 0
2, 33570, Note_on_c, 0, 52, 61
2, 33575, Note_on_c, 0, 52, 0
2, 33644, Control_c, 0, 64, 0
2, 33680, Note_on_c, 0, 43, 49
2, 33682, Note_on_c, 0, 62, 0
2, 33688, Note_on_c, 0, 55, 0
2, 33692, Note_on_c, 0, 65, 0
2, 33695, Note_on_c, 0, 53, 0
2, 33708, Note_on_c, 0, 58, 0
2, 33723, Note_on_c, 0, 64, 55
2, 33723, Note_on_c, 0, 58, 43
2, 33724, Note_on_c, 0, 50, 40
2, 33724, Note_on_c, 0, 55, 58
2, 33726, Note_on_c, 0, 52, 33
2, 33731, Note_on_c, 0, 50, 0
2, 33775, Control_c, 0, 64, 127
2, 33785, Note_on_c, 0, 55, 0
2, 33787, Note_on_c, 0, 52, 0
2, 33800, Note_on_c, 0, 58, 0
2, 33801, Note_on_c, 0, 64, 0
2, 33804, Note_on_c, 0, 47, 42
2, 33815, Note_on_c, 0, 43, 0
2, 33826, Control_c, 0, 64, 0
2, 33832, Note_on_c, 0, 47, 0
2, 33840, Note_on_c, 0, 52, 50
2, 33841, Note_on_c, 0, 64, 44
2, 33841, Note_on_c, 0, 58, 50
2, 33843, Note_on_c, 0, 48, 46
2, 33891, Note_on_c, 0, 64, 0
2, 33903, Control_c, 0, 64, 127
2, 33911, Note_on_c, 0, 48, 0
2, 33919, Note_on_c, 0, 58, 0
2, 33919, Note_on_c, 0, 36, 44
2, 33931, Note_on_c, 0, 52, 0
2, 33933, Note_on_c, 0, 36, 0
2, 33943, Control_c, 0, 64, 0
2, 33956, Note_on_c, 0, 52, 55
2, 33957, Note_on_c, 0, 46, 31
2, 33957, Note_on_c, 0, 56, 44
2, 33958, Note_on_c, 0, 62, 49
2, 33959, Note_on_c, 0, 58, 46
2, 34006, Note_on_c, 0, 52, 0
2, 34008, Note_on_c, 0, 46, 0
2, 34008, Control_c, 0, 64, 127
2, 34014, Note_on_c, 0, 56, 0
2, 34019, Note_on_c, 0, 58, 0
2, 34020, Note_on_c, 0, 62, 0
2, 34076, Control_c, 0, 64, 0
2, 34080, Note_on_c, 0, 58, 63
2, 34080, Note_on_c, 0, 74, 62
2, 34081, Note_on_c, 0, 71, 56
2, 34082, Note_on_c, 0, 64, 58
2, 34082, Note_on_c, 0, 68, 49
2, 34112, Control_c, 0, 64, 127
2, 34137, Note_on_c, 0, 64, 0
2, 34137, Note_on_c, 0, 74, 0
2, 34138, Note_on_c, 0, 58, 0
2, 34138, Note_on_c, 0, 71, 0
2, 34143, Note_on_c, 0, 68, 0
2, 34149, Control_c, 0, 64, 0
2, 34153, Note_on_c, 0, 72, 57
2, 34155, Note_on_c, 0, 67, 70
2, 34157, Note_on_c, 0, 62, 62
2, 34158, Note_on_c, 0, 57, 68
2, 34167, Control_c, 0, 64, 127
2, 34187, Note_on_c, 0, 67, 0
2, 34191, Note_on_c, 0, 62, 0
2, 34195, Note_on_c, 0, 57, 0
2, 34208, Note_on_c, 0, 72, 0
2, 34228, Control_c, 0, 64, 0
2, 34237, Note_on_c, 0, 60, 53
2, 34237, Note_on_c, 0, 45, 56
2, 34237, Note_on_c, 0, 64, 55
2, 34239, Note_on_c, 0, 55, 42
2, 34249, Control_c, 0, 64, 127
2, 34257, Note_on_c, 0, 64, 0
2, 34258, Note_on_c, 0, 55, 0
2, 34259, Note_on_c, 0, 45, 0
2, 34259, Note_on_c, 0, 60, 0
2, 34259, Control_c, 0, 64, 0
2, 34276, Note_on_c, 0, 63, 45
2, 34277, Note_on_c, 0, 59, 49
2, 34277, Note_on_c, 0, 44, 62
2, 34279, Note_on_c, 0, 54, 29
2, 34285, Control_c, 0, 64, 127
2, 34291, Note_on_c, 0, 59, 0
2, 34297, Control_c, 0, 64, 0
2, 34304, Note_on_c, 0, 54, 0
2, 34306, Note_on_c, 0, 63, 0
2, 34307, Note_on_c, 0, 44, 0
2, 34320, Note_on_c, 0, 53, 52
2, 34320, Note_on_c, 0, 62, 61
2, 34322, Note_on_c, 0, 43, 42
2, 34323, Note_on_c, 0, 58, 36
2, 34327, Control_c, 0, 64, 127
2, 34374, Note_on_c, 0, 58, 0
2, 34377, Note_on_c, 0, 62, 0
2, 34383, Note_on_c, 0, 43, 0
2, 34389, Note_on_c, 0, 53, 0
2, 34431, Control_c, 0, 64, 0
2, 34437, Note_on_c, 0, 42, 44
2, 34437, Note_on_c, 0, 61, 50
2, 34440, Note_on_c, 0, 57, 42
2, 34442, Note_on_c, 0, 52, 26
2, 34459, Control_c, 0, 64, 127
2, 34489, Note_on_c, 0, 52, 0
2, 34492, Note_on_c, 0, 57, 0
2, 34515, Note_on_c, 0, 48, 22
2, 34517, Note_on_c, 0, 42, 0
2, 34526, Note_on_c, 0, 61, 0
2, 34540, Note_on_c, 0, 48, 0
2, 34540, Control_c, 0, 64, 0
2, 34554, Note_on_c, 0, 55, 45
2, 34555, Note_on_c, 0, 60, 48
2, 34556, Note_on_c, 0, 41, 42
2, 34557, Note_on_c, 0, 51, 29
2, 34565, Control_c, 0, 64, 127
2, 34570, Note_on_c, 0, 55, 0
2, 34573, Note_on_c, 0, 41, 0
2, 34581, Note_on_c, 0, 60, 0
2, 34586, Note_on_c, 0, 51, 0
2, 34635, Note_on_c, 0, 72, 73
2, 34662, Note_on_c, 0, 72, 0
2, 34677, Control_c, 0, 64, 0
2, 34679, Note_on_c, 0, 72, 60
2, 34682, Note_on_c, 0, 68, 49
2, 34682, Note_on_c, 0, 64, 60
2, 34683, Note_on_c, 0, 58, 51
2, 34701, Control_c, 0, 64, 127
2, 34725, Note_on_c, 0, 58, 0
2, 34730, Note_on_c, 0, 72, 0
2, 34760, Note_on_c, 0, 72, 62
2, 34769, Note_on_c, 0, 64, 0
2, 34786, Note_on_c, 0, 68, 0
2, 34788, Note_on_c, 0, 72, 0
2, 34802, Control_c, 0, 64, 0
2, 34803, Note_on_c, 0, 72, 38
2, 34805, Note_on_c, 0, 47, 39
2, 34806, Note_on_c, 0, 66, 55
2, 34807, Note_on_c, 0, 63, 39
2, 34808, Note_on_c, 0, 57, 30
2, 34840, Control_c, 0, 64, 127
2, 34865, Note_on_c, 0, 57, 0
2, 34868, Note_on_c, 0, 63, 0
2, 34878, Note_on_c, 0, 66, 0
2, 34919, Note_on_c, 0, 66, 44
2, 34919, Note_on_c, 0, 63, 45
2, 34920, Note_on_c, 0, 57, 35
2, 34941, Note_on_c, 0, 47, 0
2, 34946, Note_on_c, 0, 57, 0
2, 34983, Note_on_c, 0, 63, 0
2, 34997, Note_on_c, 0, 66, 0
2, 34999, Note_on_c, 0, 62, 37
2, 35012, Note_on_c, 0, 72, 0
2, 35019, Note_on_c, 0, 62, 0
2, 35040, Control_c, 0, 64, 0
2, 35042, Note_on_c, 0, 70, 69
2, 35042, Note_on_c, 0, 62, 67
2, 35043, Note_on_c, 0, 67, 69
2, 35045, Note_on_c, 0, 40, 57
2, 35074, Control_c, 0, 64, 127
2, 35075, Note_on_c, 0, 40, 0
2, 35110, Note_on_c, 0, 67, 0
2, 35111, Note_on_c, 0, 62, 0
2, 35142, Note_on_c, 0, 70, 0
2, 35163, Note_on_c, 0, 52, 36
2, 35163, Note_on_c, 0, 67, 64
2, 35163, Note_on_c, 0, 62, 60
2, 35164, Note_on_c, 0, 70, 55
2, 35165, Note_on_c, 0, 58, 38
2, 35166, Control_c, 0, 64, 0
2, 35184, Control_c, 0, 64, 127
2, 35205, Note_on_c, 0, 58, 0
2, 35208, Note_on_c, 0, 52, 0
2, 35227, Note_on_c, 0, 67, 0
2, 35227, Note_on_c, 0, 62, 0
2, 35251, Note_on_c, 0, 70, 0
2, 35273, Control_c, 0, 64, 0
2, 35279, Note_on_c, 0, 70, 56
2, 35280, Note_on_c, 0, 61, 57
2, 35282, Note_on_c, 0, 45, 40
2, 35282, Note_on_c, 0, 66, 40
2, 35282, Note_on_c, 0, 55, 44
2, 35308, Control_c, 0, 64, 127
2, 35341, Note_on_c, 0, 55, 0
2, 35365, Note_on_c, 0, 66, 0
2, 35377, Note_on_c, 0, 61, 0
2, 35400, Note_on_c, 0, 61, 30
2, 35402, Note_on_c, 0, 65, 53
2, 35404, Note_on_c, 0, 55, 37
2, 35405, Control_c, 0, 64, 0
2, 35422, Control_c, 0, 64, 127
2, 35445, Note_on_c, 0, 45, 0
2, 35478, Note_on_c, 0, 45, 29
2, 35485, Note_on_c, 0, 45, 0
2, 35486, Note_on_c, 0, 65, 0
2, 35495, Note_on_c, 0, 55, 0
2, 35512, Note_on_c, 0, 61, 0
2, 35520, Control_c, 0, 64, 0
2, 35522, Note_on_c, 0, 64, 49
2, 35522, Note_on_c, 0, 50, 41
2, 35525, Note_on_c, 0, 60, 33
2, 35559, Control_c, 0, 64, 127
2, 35560, Note_on_c, 0, 70, 0
2, 35581, Note_on_c, 0, 60, 0
2, 35582, Note_on_c, 0, 64, 0
2, 35599, Note_on_c, 0, 60, 44
2, 35612, Note_on_c, 0, 60, 0
2, 35639, Control_c, 0, 64, 0
2, 35639, Note_on_c, 0, 66, 60
2, 35639, Note_on_c, 0, 69, 73
2, 35639, Note_on_c, 0, 60, 42
2, 35661, Note_on_c, 0, 69, 0
2, 35666, Note_on_c, 0, 66, 0
2, 35673, Note_on_c, 0, 68, 36
2, 35681, Control_c, 0, 64, 127
2, 35693, Note_on_c, 0, 50, 0
2, 35695, Note_on_c, 0, 68, 0
2, 35707, Note_on_c, 0, 60, 0
2, 35709, Note_on_c, 0, 50, 34
2, 35709, Note_on_c, 0, 69, 70
2, 35714, Note_on_c, 0, 68, 37
2, 35719, Note_on_c, 0, 68, 0
2, 35725, Note_on_c, 0, 69, 0
2, 35735, Note_on_c, 0, 50, 0
2, 35745, Control_c, 0, 64, 0
2, 35753, Note_on_c, 0, 72, 50
2, 35753, Note_on_c, 0, 69, 47
2, 35754, Note_on_c, 0, 54, 36
2, 35754, Note_on_c, 0, 64, 51
2, 35755, Note_on_c, 0, 66, 49
2, 35755, Note_on_c, 0, 60, 44
2, 35774, Control_c, 0, 64, 127
2, 35828, Note_on_c, 0, 60, 0
2, 35830, Note_on_c, 0, 69, 0
2, 35835, Note_on_c, 0, 64, 0
2, 35835, Note_on_c, 0, 66, 0
2, 35837, Note_on_c, 0, 72, 0
2, 35837, Note_on_c, 0, 50, 52
2, 35849, Note_on_c, 0, 54, 0
2, 35853, Note_on_c, 0, 50, 0
2, 35875, Control_c, 0, 64, 0
2, 35918, Note_on_c, 0, 70, 50
2, 35918, Note_on_c, 0, 44, 59
2, 35918, Note_on_c, 0, 54, 57
2, 35919, Note_on_c, 0, 62, 47
2, 35920, Note_on_c, 0, 65, 42
2, 35932, Control_c, 0, 64, 127
2, 35943, Note_on_c, 0, 65, 0
2, 35944, Note_on_c, 0, 70, 0
2, 35954, Note_on_c, 0, 62, 0
2, 35961, Note_on_c, 0, 54, 0
2, 35973, Note_on_c, 0, 44, 0
2, 35989, Control_c, 0, 64, 0
2, 35996, Note_on_c, 0, 69, 54
2, 35996, Note_on_c, 0, 58, 53
2, 35997, Note_on_c, 0, 62, 58
2, 36001, Note_on_c, 0, 59, 54
2, 36003, Note_on_c, 0, 57, 51
2, 36010, Note_on_c, 0, 59, 0
2, 36034, Note_on_c, 0, 57, 0
2, 36039, Note_on_c, 0, 56, 62
2, 36067, Control_c, 0, 64, 127
2, 36071, Note_on_c, 0, 56, 0
2, 36078, Note_on_c, 0, 55, 58
2, 36099, Note_on_c, 0, 58, 0
2, 36102, Note_on_c, 0, 62, 0
2, 36109, Control_c, 0, 64, 0
2, 36112, Note_on_c, 0, 55, 0
2, 36117, Note_on_c, 0, 54, 69
2, 36121, Note_on_c, 0, 58, 25
2, 36143, Control_c, 0, 64, 127
2, 36184, Note_on_c, 0, 54, 0
2, 36198, Note_on_c, 0, 57, 58
2, 36220, Note_on_c, 0, 58, 0
2, 36227, Note_on_c, 0, 57, 0
2, 36236, Note_on_c, 0, 69, 0
2, 36237, Control_c, 0, 64, 0
2, 36249, Note_on_c, 0, 53, 50
2, 36270, Note_on_c, 0, 69, 1
2, 36300, Control_c, 0, 64, 127
2, 36314, Note_on_c, 0, 43, 48
2, 36328, Note_on_c, 0, 53, 0
2, 36329, Note_on_c, 0, 69, 0
2, 36347, Control_c, 0, 64, 0
2, 36355, Note_on_c, 0, 58, 45
2, 36357, Note_on_c, 0, 53, 44
2, 36359, Note_on_c, 0, 62, 35
2, 36360, Note_on_c, 0, 65, 39
2, 36368, Note_on_c, 0, 43, 0
2, 36377, Control_c, 0, 64, 127
2, 36391, Note_on_c, 0, 58, 0
2, 36392, Note_on_c, 0, 53, 0
2, 36423, Note_on_c, 0, 62, 0
2, 36434, Note_on_c, 0, 65, 0
2, 36439, Note_on_c, 0, 53, 44
2, 36463, Control_c, 0, 64, 0
2, 36468, Note_on_c, 0, 53, 0
2, 36479, Note_on_c, 0, 46, 43
2, 36481, Note_on_c, 0, 69, 68
2, 36483, Note_on_c, 0, 57, 30
2, 36487, Control_c, 0, 64, 127
2, 36495, Note_on_c, 0, 46, 0
2, 36505, Note_on_c, 0, 57, 0
2, 36505, Note_on_c, 0, 69, 0
2, 36510, Note_on_c, 0, 70, 60
2, 36521, Note_on_c, 0, 70, 0
2, 36536, Note_on_c, 0, 74, 67
2, 36552, Note_on_c, 0, 74, 0
2, 36565, Note_on_c, 0, 77, 79
2, 36573, Control_c, 0, 64, 0
2, 36586, Note_on_c, 0, 77, 0
2, 36588, Note_on_c, 0, 62, 38
2, 36590, Note_on_c, 0, 60, 53
2, 36591, Note_on_c, 0, 65, 36
2, 36594, Note_on_c, 0, 55, 33
2, 36595, Note_on_c, 0, 81, 75
2, 36616, Note_on_c, 0, 81, 0
2, 36624, Note_on_c, 0, 82, 59
2, 36640, Note_on_c, 0, 62, 0
2, 36641, Note_on_c, 0, 82, 0
2, 36654, Note_on_c, 0, 65, 0
2, 36654, Note_on_c, 0, 83, 57
2, 36655, Control_c, 0, 64, 127
2, 36660, Note_on_c, 0, 60, 0
2, 36674, Note_on_c, 0, 83, 0
2, 36677, Note_on_c, 0, 55, 0
2, 36688, Note_on_c, 0, 84, 74
2, 36705, Note_on_c, 0, 84, 0
2, 36713, Control_c, 0, 64, 0
2, 36717, Note_on_c, 0, 65, 36
2, 36718, Note_on_c, 0, 61, 32
2, 36719, Note_on_c, 0, 81, 54
2, 36722, Note_on_c, 0, 55, 30
2, 36750, Note_on_c, 0, 73, 32
2, 36758, Control_c, 0, 64, 127
2, 36760, Note_on_c, 0, 81, 0
2, 36775, Note_on_c, 0, 73, 0
2, 36788, Note_on_c, 0, 55, 0
2, 36789, Note_on_c, 0, 65, 0
2, 36796, Note_on_c, 0, 72, 48
2, 36803, Note_on_c, 0, 61, 0
2, 36836, Note_on_c, 0, 61, 34
2, 36836, Note_on_c, 0, 65, 36
2, 36838, Note_on_c, 0, 72, 0
2, 36839, Note_on_c, 0, 55, 32
2, 36846, Note_on_c, 0, 65, 0
2, 36857, Note_on_c, 0, 55, 0
2, 36859, Note_on_c, 0, 61, 0
2, 36915, Note_on_c, 0, 73, 59
2, 36917, Note_on_c, 0, 58, 69
2, 36917, Note_on_c, 0, 68, 57
2, 36917, Note_on_c, 0, 70, 63
2, 36919, Note_on_c, 0, 64, 54
2, 36921, Note_on_c, 0, 65, 46
2, 36926, Note_on_c, 0, 65, 0
2, 36932, Note_on_c, 0, 64, 0
2, 36933, Note_on_c, 0, 68, 0
2, 36933, Note_on_c, 0, 73, 0
2, 36941, Note_on_c, 0, 58, 0
2, 36941, Note_on_c, 0, 70, 0
2, 36949, Control_c, 0, 64, 0
2, 36962, Note_on_c, 0, 57, 56
2, 36962, Note_on_c, 0, 72, 59
2, 36963, Note_on_c, 0, 69, 65
2, 36965, Note_on_c, 0, 65, 66
2, 36966, Note_on_c, 0, 62, 63
2, 36976, Note_on_c, 0, 62, 0
2, 36977, Note_on_c, 0, 69, 0
2, 36977, Note_on_c, 0, 65, 0
2, 36982, Note_on_c, 0, 72, 0
2, 36984, Note_on_c, 0, 57, 0
2, 37021, Control_c, 0, 64, 127
2, 37035, Note_on_c, 0, 69, 60
2, 37036, Note_on_c, 0, 50, 50
2, 37037, Note_on_c, 0, 62, 54
2, 37038, Note_on_c, 0, 60, 54
2, 37047, Note_on_c, 0, 62, 0
2, 37047, Note_on_c, 0, 69, 0
2, 37048, Note_on_c, 0, 60, 0
2, 37053, Note_on_c, 0, 50, 0
2, 37072, Control_c, 0, 64, 0
2, 37081, Note_on_c, 0, 65, 46
2, 37082, Note_on_c, 0, 60, 54
2, 37083, Note_on_c, 0, 62, 47
2, 37083, Note_on_c, 0, 44, 49
2, 37084, Note_on_c, 0, 57, 35
2, 37086, Note_on_c, 0, 54, 31
2, 37106, Note_on_c, 0, 57, 0
2, 37107, Note_on_c, 0, 54, 0
2, 37112, Note_on_c, 0, 60, 0
2, 37113, Note_on_c, 0, 62, 0
2, 37115, Note_on_c, 0, 65, 0
2, 37119, Note_on_c, 0, 44, 0
2, 37129, Control_c, 0, 64, 127
2, 37153, Control_c, 0, 64, 0
2, 37157, Note_on_c, 0, 63, 60
2, 37159, Note_on_c, 0, 59, 60
2, 37159, Note_on_c, 0, 69, 65
2, 37162, Note_on_c, 0, 43, 44
2, 37163, Note_on_c, 0, 53, 41
2, 37171, Note_on_c, 0, 63, 0
2, 37174, Note_on_c, 0, 64, 41
2, 37205, Note_on_c, 0, 64, 0
2, 37212, Note_on_c, 0, 59, 0
2, 37214, Note_on_c, 0, 53, 0
2, 37229, Note_on_c, 0, 63, 50
2, 37230, Note_on_c, 0, 59, 30
2, 37233, Note_on_c, 0, 53, 27
2, 37238, Control_c, 0, 64, 127
2, 37270, Note_on_c, 0, 53, 0
2, 37280, Note_on_c, 0, 59, 0
2, 37290, Note_on_c, 0, 63, 0
2, 37302, Note_on_c, 0, 69, 0
2, 37308, Control_c, 0, 64, 0
2, 37316, Note_on_c, 0, 62, 48
2, 37316, Note_on_c, 0, 53, 37
2, 37318, Note_on_c, 0, 59, 38
2, 37328, Control_c, 0, 64, 127
2, 37341, Note_on_c, 0, 62, 0
2, 37348, Note_on_c, 0, 59, 0
2, 37351, Note_on_c, 0, 43, 0
2, 37352, Note_on_c, 0, 53, 0
2, 37397, Note_on_c, 0, 43, 55
2, 37426, Control_c, 0, 64, 0
2, 37427, Note_on_c, 0, 46, 31
2, 37436, Note_on_c, 0, 43, 0
2, 37437, Note_on_c, 0, 62, 50
2, 37438, Note_on_c, 0, 58, 44
2, 37439, Note_on_c, 0, 53, 41
2, 37439, Note_on_c, 0, 49, 32
2, 37440, Note_on_c, 0, 55, 51
2, 37442, Note_on_c, 0, 50, 48
2, 37444, Note_on_c, 0, 46, 0
2, 37444, Control_c, 0, 64, 127
2, 37451, Note_on_c, 0, 49, 0
2, 37456, Note_on_c, 0, 55, 0
2, 37461, Note_on_c, 0, 62, 0
2, 37465, Note_on_c, 0, 58, 0
2, 37481, Note_on_c, 0, 53, 0
2, 37487, Note_on_c, 0, 50, 0
2, 37488, Note_on_c, 0, 48, 19
2, 37494, Note_on_c, 0, 50, 19
2, 37499, Note_on_c, 0, 51, 33
2, 37504, Note_on_c, 0, 48, 0
2, 37513, Note_on_c, 0, 65, 67
2, 37515, Note_on_c, 0, 51, 0
2, 37516, Note_on_c, 0, 58, 62
2, 37517, Note_on_c, 0, 50, 0
2, 37517, Note_on_c, 0, 52, 43
2, 37517, Note_on_c, 0, 55, 66
2, 37522, Note_on_c, 0, 53, 74
2, 37522, Note_on_c, 0, 62, 24
2, 37523, Note_on_c, 0, 52, 0
2, 37527, Note_on_c, 0, 62, 0
2, 37528, Note_on_c, 0, 55, 0
2, 37529, Note_on_c, 0, 58, 0
2, 37536, Note_on_c, 0, 65, 0
2, 37552, Control_c, 0, 64, 0
2, 37554, Note_on_c, 0, 54, 45
2, 37561, Note_on_c, 0, 55, 60
2, 37564, Note_on_c, 0, 69, 62
2, 37565, Note_on_c, 0, 58, 68
2, 37565, Note_on_c, 0, 62, 68
2, 37566, Note_on_c, 0, 54, 0
2, 37568, Note_on_c, 0, 65, 54
2, 37570, Note_on_c, 0, 57, 77
2, 37572, Note_on_c, 0, 53, 0
2, 37573, Note_on_c, 0, 55, 0
2, 37573, Control_c, 0, 64, 127
2, 37582, Note_on_c, 0, 58, 0
2, 37583, Note_on_c, 0, 62, 0
2, 37583, Note_on_c, 0, 65, 0
2, 37589, Note_on_c, 0, 69, 0
2, 37608, Note_on_c, 0, 57, 0
2, 37609, Note_on_c, 0, 58, 45
2, 37610, Note_on_c, 0, 55, 38
2, 37612, Control_c, 0, 64, 0
2, 37616, Note_on_c, 0, 55, 0
2, 37616, Note_on_c, 0, 57, 53
2, 37620, Note_on_c, 0, 59, 75
2, 37621, Note_on_c, 0, 57, 0
2, 37623, Note_on_c, 0, 58, 0
2, 37626, Note_on_c, 0, 72, 73
2, 37627, Note_on_c, 0, 65, 80
2, 37628, Note_on_c, 0, 62, 82
2, 37628, Note_on_c, 0, 69, 69
2, 37630, Note_on_c, 0, 60, 80
2, 37634, Note_on_c, 0, 71, 32
2, 37636, Control_c, 0, 64, 127
2, 37638, Note_on_c, 0, 59, 0
2, 37644, Note_on_c, 0, 65, 0
2, 37646, Note_on_c, 0, 62, 0
2, 37648, Note_on_c, 0, 69, 0
2, 37652, Note_on_c, 0, 72, 0
2, 37652, Note_on_c, 0, 71, 0
2, 37660, Note_on_c, 0, 60, 0
2, 37664, Note_on_c, 0, 61, 35
2, 37670, Note_on_c, 0, 62, 53
2, 37674, Control_c, 0, 64, 0
2, 37677, Note_on_c, 0, 75, 74
2, 37678, Note_on_c, 0, 64, 71
2, 37678, Note_on_c, 0, 67, 67
2, 37679, Note_on_c, 0, 70, 64
2, 37680, Note_on_c, 0, 63, 86
2, 37681, Note_on_c, 0, 62, 0
2, 37686, Note_on_c, 0, 61, 0
2, 37695, Note_on_c, 0, 67, 0
2, 37696, Note_on_c, 0, 75, 0
2, 37701, Note_on_c, 0, 70, 0
2, 37705, Note_on_c, 0, 63, 0
2, 37708, Note_on_c, 0, 62, 62
2, 37710, Note_on_c, 0, 64, 0
2, 37713, Note_on_c, 0, 61, 68
2, 37719, Note_on_c, 0, 62, 0
2, 37734, Note_on_c, 0, 61, 0
2, 37736, Note_on_c, 0, 72, 60
2, 37738, Note_on_c, 0, 60, 68
2, 37739, Note_on_c, 0, 67, 48
2, 37740, Note_on_c, 0, 64, 53
2, 37741, Note_on_c, 0, 61, 36
2, 37743, Note_on_c, 0, 70, 27
2, 37759, Note_on_c, 0, 70, 0
2, 37760, Note_on_c, 0, 67, 0
2, 37761, Note_on_c, 0, 64, 0
2, 37763, Note_on_c, 0, 72, 0
2, 37763, Note_on_c, 0, 60, 0
2, 37770, Note_on_c, 0, 61, 0
2, 37799, Note_on_c, 0, 55, 57
2, 37799, Note_on_c, 0, 61, 55
2, 37800, Note_on_c, 0, 69, 46
2, 37803, Note_on_c, 0, 64, 41
2, 37823, Note_on_c, 0, 64, 0
2, 37845, Note_on_c, 0, 69, 0
2, 37846, Note_on_c, 0, 61, 0
2, 37856, Note_on_c, 0, 55, 0
2, 37862, Note_on_c, 0, 61, 21
2, 37863, Note_on_c, 0, 64, 43
2, 37864, Note_on_c, 0, 52, 48
2, 37867, Control_c, 0, 64, 127
2, 37888, Note_on_c, 0, 66, 19
2, 37892, Note_on_c, 0, 61, 0
2, 37894, Note_on_c, 0, 64, 0
2, 37902, Note_on_c, 0, 66, 0
2, 37904, Note_on_c, 0, 52, 0
2, 37925, Control_c, 0, 64, 0
2, 37958, Note_on_c, 0, 67, 54
2, 37959, Note_on_c, 0, 56, 36
2, 37960, Note_on_c, 0, 59, 57
2, 37962, Note_on_c, 0, 41, 46
2, 37963, Note_on_c, 0, 62, 49
2, 37978, Control_c, 0, 64, 127
2, 37983, Note_on_c, 0, 59, 0
2, 37985, Note_on_c, 0, 67, 0
2, 37992, Note_on_c, 0, 56, 0
2, 38024, Note_on_c, 0, 62, 0
2, 38034, Control_c, 0, 64, 0
2, 38040, Note_on_c, 0, 65, 53
2, 38042, Note_on_c, 0, 50, 44
2, 38043, Note_on_c, 0, 60, 57
2, 38044, Note_on_c, 0, 55, 38
2, 38053, Control_c, 0, 64, 127
2, 38070, Note_on_c, 0, 60, 0
2, 38074, Note_on_c, 0, 50, 0
2, 38076, Note_on_c, 0, 41, 0
2, 38078, Note_on_c, 0, 65, 0
2, 38081, Note_on_c, 0, 55, 0
2, 38109, Control_c, 0, 64, 0
2, 38116, Note_on_c, 0, 63, 55
2, 38117, Note_on_c, 0, 37, 48
2, 38117, Note_on_c, 0, 56, 56
2, 38118, Note_on_c, 0, 44, 46
2, 38119, Note_on_c, 0, 59, 54
2, 38120, Note_on_c, 0, 53, 36
2, 38124, Note_on_c, 0, 61, 25
2, 38129, Control_c, 0, 64, 127
2, 38140, Note_on_c, 0, 59, 0
2, 38144, Note_on_c, 0, 53, 0
2, 38147, Note_on_c, 0, 37, 0
2, 38150, Note_on_c, 0, 63, 0
2, 38150, Note_on_c, 0, 56, 0
2, 38153, Note_on_c, 0, 61, 0
2, 38160, Control_c, 0, 64, 0
2, 38165, Note_on_c, 0, 44, 0
2, 38165, Note_on_c, 0, 62, 51
2, 38166, Note_on_c, 0, 48, 54
2, 38171, Note_on_c, 0, 58, 31
2, 38171, Note_on_c, 0, 55, 45
2, 38174, Note_on_c, 0, 52, 15
2, 38202, Control_c, 0, 64, 127
2, 38234, Note_on_c, 0, 52, 0
2, 38238, Note_on_c, 0, 55, 0
2, 38240, Note_on_c, 0, 36, 64
2, 38249, Note_on_c, 0, 58, 0
2, 38261, Note_on_c, 0, 62, 0
2, 38285, Note_on_c, 0, 60, 61
2, 38286, Note_on_c, 0, 36, 0
2, 38292, Control_c, 0, 64, 0
2, 38299, Note_on_c, 0, 48, 0
2, 38308, Note_on_c, 0, 60, 0
2, 38318, Control_c, 0, 64, 127
2, 38319, Note_on_c, 0, 62, 52
2, 38334, Control_c, 0, 64, 0
2, 38337, Note_on_c, 0, 62, 0
2, 38342, Control_c, 0, 64, 127
2, 38360, Note_on_c, 0, 65, 66
2, 38373, Note_on_c, 0, 65, 0
2, 38395, Control_c, 0, 64, 0
2, 38395, Note_on_c, 0, 41, 30
2, 38397, Control_c, 0, 64, 0
2, 38407, Note_on_c, 0, 65, 54
2, 38410, Note_on_c, 0, 41, 46
2, 38411, Note_on_c, 0, 50, 34
2, 38420, Control_c, 0, 64, 127
2, 38433, Note_on_c, 0, 41, 0
2, 38433, Note_on_c, 0, 41, 0
2, 38441, Note_on_c, 0, 50, 0
2, 38505, Note_on_c, 0, 65, 0
2, 38527, Note_on_c, 0, 62, 50
2, 38529, Note_on_c, 0, 53, 29
2, 38530, Note_on_c, 0, 60, 48
2, 38531, Note_on_c, 0, 57, 45
2, 38533, Control_c, 0, 64, 0
2, 38539, Control_c, 0, 64, 127
2, 38578, Note_on_c, 0, 57, 0
2, 38579, Note_on_c, 0, 60, 0
2, 38579, Note_on_c, 0, 62, 0
2, 38583, Note_on_c, 0, 53, 0
2, 38606, Note_on_c, 0, 84, 91
2, 38642, Note_on_c, 0, 84, 0
2, 38647, Control_c, 0, 64, 0
2, 38655, Note_on_c, 0, 82, 60
2, 38655, Note_on_c, 0, 64, 47
2, 38655, Note_on_c, 0, 58, 37
2, 38656, Note_on_c, 0, 69, 46
2, 38665, Control_c, 0, 64, 127
2, 38698, Note_on_c, 0, 69, 0
2, 38702, Note_on_c, 0, 64, 0
2, 38707, Note_on_c, 0, 82, 0
2, 38714, Note_on_c, 0, 58, 0
2, 38726, Note_on_c, 0, 70, 57
2, 38770, Note_on_c, 0, 62, 47
2, 38772, Control_c, 0, 64, 0
2, 38772, Note_on_c, 0, 58, 38
2, 38775, Note_on_c, 0, 52, 26
2, 38781, Note_on_c, 0, 62, 0
2, 38784, Note_on_c, 0, 52, 0
2, 38786, Note_on_c, 0, 58, 0
2, 38790, Control_c, 0, 64, 127
2, 38845, Note_on_c, 0, 70, 0
2, 38849, Note_on_c, 0, 69, 60
2, 38886, Control_c, 0, 64, 0
2, 38887, Note_on_c, 0, 45, 43
2, 38889, Note_on_c, 0, 55, 45
2, 38901, Control_c, 0, 64, 127
2, 38906, Note_on_c, 0, 45, 0
2, 38918, Note_on_c, 0, 55, 0
2, 38961, Note_on_c, 0, 69, 0
2, 38969, Note_on_c, 0, 76, 76
2, 39008, Control_c, 0, 64, 0
2, 39009, Note_on_c, 0, 64, 34
2, 39012, Note_on_c, 0, 55, 27
2, 39013, Note_on_c, 0, 67, 55
2, 39013, Note_on_c, 0, 57, 36
2, 39014, Note_on_c, 0, 60, 43
2, 39023, Note_on_c, 0, 76, 0
2, 39025, Control_c, 0, 64, 127
2, 39060, Note_on_c, 0, 64, 0
2, 39068, Note_on_c, 0, 60, 0
2, 39072, Note_on_c, 0, 57, 0
2, 39073, Note_on_c, 0, 55, 0
2, 39109, Note_on_c, 0, 67, 0
2, 39130, Control_c, 0, 64, 0
2, 39132, Note_on_c, 0, 65, 45
2, 39132, Note_on_c, 0, 62, 39
2, 39135, Note_on_c, 0, 56, 33
2, 39135, Note_on_c, 0, 59, 35
2, 39144, Control_c, 0, 64, 127
2, 39164, Note_on_c, 0, 62, 0
2, 39165, Note_on_c, 0, 59, 0
2, 39173, Note_on_c, 0, 56, 0
2, 39182, Note_on_c, 0, 65, 0
2, 39249, Note_on_c, 0, 44, 35
2, 39250, Note_on_c, 0, 59, 36
2, 39250, Note_on_c, 0, 54, 27
2, 39252, Control_c, 0, 64, 0
2, 39276, Control_c, 0, 64, 127
2, 39311, Note_on_c, 0, 54, 0
2, 39326, Note_on_c, 0, 44, 0
2, 39336, Note_on_c, 0, 50, 33
2, 39355, Note_on_c, 0, 50, 0
2, 39359, Note_on_c, 0, 59, 0
2, 39360, Control_c, 0, 64, 0
2, 39370, Note_on_c, 0, 43, 35
2, 39370, Note_on_c, 0, 58, 46
2, 39370, Note_on_c, 0, 53, 30
2, 39372, Control_c, 0, 64, 127
2, 39380, Note_on_c, 0, 43, 0
2, 39381, Note_on_c, 0, 58, 0
2, 39391, Note_on_c, 0, 53, 0
2, 39452, Note_on_c, 0, 74, 78
2, 39476, Note_on_c, 0, 74, 0
2, 39485, Note_on_c, 0, 62, 39
2, 39489, Note_on_c, 0, 58, 38
2, 39490, Note_on_c, 0, 57, 29
2, 39491, Control_c, 0, 64, 0
2, 39498, Note_on_c, 0, 57, 0
2, 39505, Note_on_c, 0, 58, 0
2, 39536, Control_c, 0, 64, 127
2, 39558, Note_on_c, 0, 62, 0
2, 39568, Note_on_c, 0, 65, 46
2, 39594, Note_on_c, 0, 65, 0
2, 39608, Note_on_c, 0, 66, 53
2, 39608, Note_on_c, 0, 50, 57
2, 39609, Note_on_c, 0, 62, 45
2, 39614, Control_c, 0, 64, 0
2, 39646, Control_c, 0, 64, 127
2, 39671, Note_on_c, 0, 50, 0
2, 39708, Note_on_c, 0, 62, 0
2, 39721, Note_on_c, 0, 66, 0
2, 39727, Note_on_c, 0, 44, 52
2, 39728, Note_on_c, 0, 54, 45
2, 39729, Note_on_c, 0, 62, 46
2, 39730, Note_on_c, 0, 67, 48
2, 39733, Control_c, 0, 64, 0
2, 39753, Control_c, 0, 64, 127
2, 39777, Note_on_c, 0, 54, 0
2, 39786, Note_on_c, 0, 44, 0
2, 39788, Note_on_c, 0, 62, 0
2, 39829, Note_on_c, 0, 67, 0
2, 39840, Control_c, 0, 64, 0
2, 39848, Note_on_c, 0, 43, 44
2, 39849, Note_on_c, 0, 69, 50
2, 39850, Note_on_c, 0, 58, 42
2, 39851, Note_on_c, 0, 62, 44
2, 39853, Note_on_c, 0, 53, 24
2, 39856, Note_on_c, 0, 65, 32
2, 39861, Control_c, 0, 64, 127
2, 39877, Note_on_c, 0, 43, 0
2, 39894, Note_on_c, 0, 69, 0
2, 39897, Note_on_c, 0, 53, 0
2, 39898, Note_on_c, 0, 58, 0
2, 39919, Note_on_c, 0, 65, 0
2, 39924, Note_on_c, 0, 62, 0
2, 39966, Note_on_c, 0, 58, 50
2, 39966, Note_on_c, 0, 70, 51
2, 39967, Note_on_c, 0, 62, 51
2, 39969, Note_on_c, 0, 56, 34
2, 39970, Note_on_c, 0, 65, 39
2, 39990, Note_on_c, 0, 56, 0
2, 39992, Note_on_c, 0, 62, 0
2, 39998, Note_on_c, 0, 58, 0
2, 40001, Note_on_c, 0, 65, 0
2, 40019, Note_on_c, 0, 70, 0
2, 40081, Control_c, 0, 64, 0
2, 40083, Note_on_c, 0, 58, 45
2, 40084, Note_on_c, 0, 48, 40
2, 40085, Note_on_c, 0, 67, 60
2, 40085, Note_on_c, 0, 64, 54
2, 40085, Note_on_c, 0, 72, 45
2, 40103, Control_c, 0, 64, 127
2, 40127, Note_on_c, 0, 58, 0
2, 40129, Note_on_c, 0, 67, 0
2, 40140, Note_on_c, 0, 64, 0
2, 40142, Note_on_c, 0, 72, 0
2, 40143, Note_on_c, 0, 48, 0
2, 40204, Note_on_c, 0, 70, 63
2, 40207, Note_on_c, 0, 54, 37
2, 40208, Note_on_c, 0, 44, 40
2, 40210, Note_on_c, 0, 60, 39
2, 40211, Note_on_c, 0, 62, 32
2, 40221, Note_on_c, 0, 54, 0
2, 40222, Note_on_c, 0, 44, 0
2, 40251, Note_on_c, 0, 70, 0
2, 40254, Note_on_c, 0, 62, 0
2, 40258, Note_on_c, 0, 60, 0
2, 40326, Note_on_c, 0, 69, 71
2, 40326, Note_on_c, 0, 58, 59
2, 40327, Note_on_c, 0, 43, 50
2, 40330, Control_c, 0, 64, 0
2, 40362, Control_c, 0, 64, 127
2, 40395, Note_on_c, 0, 69, 0
2, 40411, Note_on_c, 0, 58, 0
2, 40418, Note_on_c, 0, 43, 0
2, 40448, Control_c, 0, 64, 0
2, 40448, Note_on_c, 0, 45, 58
2, 40481, Note_on_c, 0, 45, 0
2, 40515, Control_c, 0, 64, 127
2, 40524, Note_on_c, 0, 44, 57
2, 40525, Note_on_c, 0, 37, 60
2, 40527, Note_on_c, 0, 59, 55
2, 40528, Note_on_c, 0, 67, 60
2, 40530, Note_on_c, 0, 70, 19
2, 40532, Control_c, 0, 64, 0
2, 40549, Note_on_c, 0, 37, 0
2, 40556, Note_on_c, 0, 70, 0
2, 40561, Note_on_c, 0, 67, 0
2, 40563, Note_on_c, 0, 59, 0
2, 40565, Note_on_c, 0, 46, 23
2, 40574, Control_c, 0, 64, 127
2, 40575, Note_on_c, 0, 53, 62
2, 40576, Note_on_c, 0, 46, 0
2, 40595, Note_on_c, 0, 44, 0
2, 40610, Note_on_c, 0, 53, 0
2, 40648, Note_on_c, 0, 58, 60
2, 40650, Note_on_c, 0, 68, 56
2, 40651, Note_on_c, 0, 63, 57
2, 40652, Note_on_c, 0, 59, 62
2, 40661, Control_c, 0, 64, 0
2, 40670, Control_c, 0, 64, 127
2, 40683, Note_on_c, 0, 58, 0
2, 40716, Note_on_c, 0, 63, 0
2, 40722, Note_on_c, 0, 59, 0
2, 40735, Note_on_c, 0, 63, 55
2, 40757, Note_on_c, 0, 68, 0
2, 40766, Note_on_c, 0, 63, 0
2, 40772, Note_on_c, 0, 44, 38
2, 40773, Note_on_c, 0, 59, 49
2, 40780, Note_on_c, 0, 59, 0
2, 40794, Note_on_c, 0, 44, 0
2, 40809, Control_c, 0, 64, 0
2, 40813, Note_on_c, 0, 53, 58
2, 40814, Note_on_c, 0, 62, 53
2, 40815, Note_on_c, 0, 58, 30
2, 40816, Note_on_c, 0, 43, 50
2, 40846, Control_c, 0, 64, 127
2, 40902, Note_on_c, 0, 62, 0
2, 40909, Note_on_c, 0, 58, 0
2, 40919, Note_on_c, 0, 53, 0
2, 40930, Note_on_c, 0, 37, 43
2, 40935, Note_on_c, 0, 43, 0
2, 40935, Control_c, 0, 64, 0
2, 40964, Note_on_c, 0, 53, 64
2, 40971, Note_on_c, 0, 55, 48
2, 40979, Note_on_c, 0, 53, 0
2, 40991, Note_on_c, 0, 37, 0
2, 40998, Note_on_c, 0, 53, 47
2, 41010, Control_c, 0, 64, 127
2, 41013, Note_on_c, 0, 55, 0
2, 41020, Note_on_c, 0, 50, 48
2, 41022, Note_on_c, 0, 53, 0
2, 41030, Control_c, 0, 64, 0
2, 41034, Note_on_c, 0, 50, 0
2, 41040, Note_on_c, 0, 38, 51
2, 41042, Note_on_c, 0, 54, 57
2, 41046, Note_on_c, 0, 26, 40
2, 41057, Control_c, 0, 64, 127
2, 41069, Note_on_c, 0, 26, 0
2, 41081, Note_on_c, 0, 54, 0
2, 41084, Note_on_c, 0, 38, 0
2, 41161, Note_on_c, 0, 54, 46
2, 41164, Note_on_c, 0, 65, 38
2, 41167, Note_on_c, 0, 60, 45
2, 41214, Note_on_c, 0, 60, 0
2, 41216, Note_on_c, 0, 65, 0
2, 41236, Note_on_c, 0, 54, 0
2, 41285, Note_on_c, 0, 53, 36
2, 41287, Note_on_c, 0, 62, 30
2, 41289, Control_c, 0, 64, 0
2, 41289, Note_on_c, 0, 58, 33
2, 41291, Note_on_c, 0, 57, 27
2, 41317, Control_c, 0, 64, 127
2, 41370, Note_on_c, 0, 76, 83
2, 41373, Note_on_c, 0, 62, 0
2, 41407, Note_on_c, 0, 76, 0
2, 41409, Note_on_c, 0, 65, 49
2, 41412, Note_on_c, 0, 62, 36
2, 41463, Note_on_c, 0, 62, 0
2, 41473, Note_on_c, 0, 57, 0
2, 41481, Note_on_c, 0, 53, 0
2, 41484, Note_on_c, 0, 58, 0
2, 41487, Note_on_c, 0, 74, 69
2, 41497, Note_on_c, 0, 65, 0
2, 41522, Note_on_c, 0, 74, 0
2, 41532, Note_on_c, 0, 48, 42
2, 41532, Note_on_c, 0, 58, 35
2, 41532, Control_c, 0, 64, 0
2, 41535, Note_on_c, 0, 64, 37
2, 41562, Control_c, 0, 64, 127
2, 41610, Note_on_c, 0, 58, 0
2, 41623, Note_on_c, 0, 64, 0
2, 41647, Control_c, 0, 64, 0
2, 41648, Note_on_c, 0, 58, 35
2, 41648, Note_on_c, 0, 74, 62
2, 41649, Note_on_c, 0, 68, 51
2, 41649, Note_on_c, 0, 64, 50
2, 41662, Control_c, 0, 64, 127
2, 41695, Note_on_c, 0, 58, 0
2, 41700, Note_on_c, 0, 74, 0
2, 41720, Note_on_c, 0, 64, 0
2, 41731, Note_on_c, 0, 68, 0
2, 41762, Control_c, 0, 64, 0
2, 41767, Note_on_c, 0, 72, 48
2, 41767, Note_on_c, 0, 62, 53
2, 41769, Note_on_c, 0, 57, 39
2, 41770, Note_on_c, 0, 67, 43
2, 41780, Control_c, 0, 64, 127
2, 41825, Note_on_c, 0, 48, 0
2, 41830, Note_on_c, 0, 62, 0
2, 41833, Note_on_c, 0, 57, 0
2, 41836, Note_on_c, 0, 67, 0
2, 41840, Note_on_c, 0, 72, 0
2, 41889, Note_on_c, 0, 77, 66
2, 41889, Note_on_c, 0, 74, 71
2, 41890, Note_on_c, 0, 70, 77
2, 41890, Note_on_c, 0, 65, 81
2, 41890, Note_on_c, 0, 54, 67
2, 41892, Note_on_c, 0, 60, 70
2, 41893, Control_c, 0, 64, 0
2, 41905, Control_c, 0, 64, 127
2, 41948, Note_on_c, 0, 60, 0
2, 41949, Note_on_c, 0, 65, 0
2, 41955, Note_on_c, 0, 70, 0
2, 41959, Note_on_c, 0, 74, 0
2, 41965, Note_on_c, 0, 77, 0
2, 41967, Note_on_c, 0, 54, 0
2, 42011, Note_on_c, 0, 82, 61
2, 42012, Control_c, 0, 64, 0
2, 42014, Note_on_c, 0, 79, 54
2, 42014, Note_on_c, 0, 59, 64
2, 42015, Note_on_c, 0, 53, 57
2, 42015, Note_on_c, 0, 75, 61
2, 42015, Note_on_c, 0, 70, 64
2, 42016, Note_on_c, 0, 64, 55
2, 42026, Control_c, 0, 64, 127
2, 42066, Note_on_c, 0, 64, 0
2, 42066, Note_on_c, 0, 70, 0
2, 42067, Note_on_c, 0, 59, 0
2, 42069, Note_on_c, 0, 75, 0
2, 42069, Note_on_c, 0, 79, 0
2, 42076, Note_on_c, 0, 53, 0
2, 42077, Note_on_c, 0, 82, 0
2, 42129, Note_on_c, 0, 63, 59
2, 42130, Note_on_c, 0, 87, 65
2, 42131, Note_on_c, 0, 52, 49
2, 42132, Note_on_c, 0, 58, 50
2, 42132, Note_on_c, 0, 75, 54
2, 42132, Note_on_c, 0, 82, 57
2, 42134, Control_c, 0, 64, 0
2, 42153, Control_c, 0, 64, 127
2, 42184, Note_on_c, 0, 52, 0
2, 42185, Note_on_c, 0, 63, 0
2, 42188, Note_on_c, 0, 75, 0
2, 42190, Note_on_c, 0, 82, 0
2, 42194, Note_on_c, 0, 87, 0
2, 42213, Note_on_c, 0, 58, 0
2, 42244, Control_c, 0, 64, 0
2, 42247, Note_on_c, 0, 89, 60
2, 42250, Note_on_c, 0, 77, 35
2, 42251, Note_on_c, 0, 84, 46
2, 42251, Note_on_c, 0, 62, 49
2, 42251, Note_on_c, 0, 51, 40
2, 42252, Note_on_c, 0, 57, 45
2, 42271, Control_c, 0, 64, 127
2, 42276, Note_on_c, 0, 57, 0
2, 42278, Note_on_c, 0, 62, 0
2, 42289, Note_on_c, 0, 51, 0
2, 42298, Note_on_c, 0, 84, 0
2, 42299, Note_on_c, 0, 77, 0
2, 42306, Note_on_c, 0, 89, 0
2, 42331, Note_on_c, 0, 41, 66
2, 42342, Note_on_c, 0, 41, 0
2, 42428, Note_on_c, 0, 63, 74
2, 42428, Note_on_c, 0, 67, 80
2, 42428, Note_on_c, 0, 57, 80
2, 42428, Note_on_c, 0, 96, 82
2, 42429, Note_on_c, 0, 84, 92
2, 42429, Note_on_c, 0, 91, 83
2, 42449, Note_on_c, 0, 84, 0
2, 42451, Note_on_c, 0, 57, 0
2, 42452, Note_on_c, 0, 91, 0
2, 42453, Note_on_c, 0, 67, 0
2, 42453, Note_on_c, 0, 96, 0
2, 42457, Note_on_c, 0, 63, 0
2, 42465, Note_on_c, 0, 57, 62
2, 42466, Note_on_c, 0, 63, 73
2, 42467, Note_on_c, 0, 86, 85
2, 42467, Note_on_c, 0, 98, 82
2, 42467, Note_on_c, 0, 67, 67
2, 42467, Note_on_c, 0, 93, 83
2, 42484, Note_on_c, 0, 86, 0
2, 42486, Note_on_c, 0, 57, 0
2, 42487, Note_on_c, 0, 67, 0
2, 42488, Note_on_c, 0, 93, 0
2, 42489, Note_on_c, 0, 98, 0
2, 42490, Note_on_c, 0, 63, 0
2, 42504, Control_c, 0, 64, 0
2, 42507, Note_on_c, 0, 63, 82
2, 42507, Note_on_c, 0, 57, 84
2, 42508, Note_on_c, 0, 67, 89
2, 42508, Note_on_c, 0, 89, 85
2, 42508, Note_on_c, 0, 101, 80
2, 42508, Note_on_c, 0, 96, 85
2, 42525, Control_c, 0, 64, 127
2, 42543, Note_on_c, 0, 101, 0
2, 42546, Note_on_c, 0, 96, 0
2, 42548, Note_on_c, 0, 57, 0
2, 42548, Note_on_c, 0, 89, 0
2, 42549, Note_on_c, 0, 67, 0
2, 42551, Note_on_c, 0, 63, 0
2, 42571, Note_on_c, 0, 63, 70
2, 42571, Note_on_c, 0, 57, 73
2, 42572, Note_on_c, 0, 67, 74
2, 42572, Note_on_c, 0, 101, 74
2, 42573, Note_on_c, 0, 89, 73
2, 42573, Note_on_c, 0, 96, 75
2, 42591, Note_on_c, 0, 101, 0
2, 42593, Note_on_c, 0, 96, 0
2, 42596, Note_on_c, 0, 89, 0
2, 42598, Note_on_c, 0, 57, 0
2, 42600, Note_on_c, 0, 67, 0
2, 42605, Note_on_c, 0, 63, 0
2, 42608, Control_c, 0, 64, 0
2, 42616, Note_on_c, 0, 98, 74
2, 42616, Note_on_c, 0, 86, 74
2, 42617, Note_on_c, 0, 57, 58
2, 42617, Note_on_c, 0, 63, 49
2, 42617, Note_on_c, 0, 92, 59
2, 42618, Note_on_c, 0, 67, 54
2, 42618, Note_on_c, 0, 94, 64
2, 42626, Control_c, 0, 64, 127
2, 42634, Note_on_c, 0, 92, 0
2, 42643, Note_on_c, 0, 94, 0
2, 42653, Note_on_c, 0, 57, 0
2, 42654, Note_on_c, 0, 86, 0
2, 42655, Note_on_c, 0, 67, 0
2, 42659, Note_on_c, 0, 98, 0
2, 42661, Note_on_c, 0, 63, 0
2, 42679, Note_on_c, 0, 63, 49
2, 42679, Note_on_c, 0, 57, 55
2, 42680, Note_on_c, 0, 67, 39
2, 42680, Note_on_c, 0, 94, 69
2, 42681, Note_on_c, 0, 98, 64
2, 42681, Note_on_c, 0, 86, 74
2, 42684, Note_on_c, 0, 92, 37
2, 42689, Note_on_c, 0, 92, 0
2, 42693, Note_on_c, 0, 67, 0
2, 42696, Note_on_c, 0, 57, 0
2, 42698, Note_on_c, 0, 98, 0
2, 42701, Note_on_c, 0, 86, 0
2, 42702, Note_on_c, 0, 63, 0
2, 42702, Note_on_c, 0, 94, 0
2, 42717, Control_c, 0, 64, 0
2, 42725, Note_on_c, 0, 65, 54
2, 42725, Note_on_c, 0, 61, 38
2, 42726, Note_on_c, 0, 96, 62
2, 42726, Note_on_c, 0, 60, 54
2, 42727, Note_on_c, 0, 93, 62
2, 42728, Note_on_c, 0, 84, 56
2, 42728, Note_on_c, 0, 55, 46
2, 42729, Note_on_c, 0, 89, 49
2, 42737, Control_c, 0, 64, 127
2, 42756, Note_on_c, 0, 65, 0
2, 42763, Note_on_c, 0, 60, 0
2, 42764, Note_on_c, 0, 61, 0
2, 42767, Note_on_c, 0, 55, 0
2, 42804, Note_on_c, 0, 89, 0
2, 42812, Note_on_c, 0, 93, 0
2, 42846, Note_on_c, 0, 39, 36
2, 42846, Note_on_c, 0, 27, 62
2, 42857, Note_on_c, 0, 27, 0
2, 42860, Note_on_c, 0, 39, 0
2, 42867, Note_on_c, 0, 96, 0
2, 42898, Note_on_c, 0, 84, 0
2, 42964, Note_on_c, 0, 61, 45
2, 42965, Note_on_c, 0, 84, 69
2, 42966, Note_on_c, 0, 65, 55
2, 42966, Note_on_c, 0, 60, 37
2, 42967, Note_on_c, 0, 77, 47
2, 42967, Control_c, 0, 64, 0
2, 42968, Note_on_c, 0, 72, 40
2, 42979, Control_c, 0, 64, 127
2, 43020, Note_on_c, 0, 84, 0
2, 43023, Note_on_c, 0, 77, 0
2, 43023, Note_on_c, 0, 65, 0
2, 43026, Note_on_c, 0, 72, 0
2, 43029, Note_on_c, 0, 60, 0
2, 43033, Note_on_c, 0, 55, 1
2, 43041, Note_on_c, 0, 61, 0
2, 43048, Note_on_c, 0, 55, 0
2, 43083, Note_on_c, 0, 73, 39
2, 43084, Note_on_c, 0, 81, 51
2, 43086, Note_on_c, 0, 77, 55
2, 43086, Note_on_c, 0, 60, 35
2, 43087, Note_on_c, 0, 61, 31
2, 43087, Note_on_c, 0, 65, 38
2, 43088, Note_on_c, 0, 69, 41
2, 43090, Note_on_c, 0, 55, 29
2, 43133, Note_on_c, 0, 65, 0
2, 43145, Note_on_c, 0, 69, 0
2, 43145, Note_on_c, 0, 60, 0
2, 43148, Note_on_c, 0, 61, 0
2, 43150, Note_on_c, 0, 73, 0
2, 43150, Note_on_c, 0, 55, 0
2, 43152, Note_on_c, 0, 77, 0
2, 43168, Note_on_c, 0, 81, 0
2, 43202, Control_c, 0, 64, 0
2, 43205, Note_on_c, 0, 81, 51
2, 43205, Note_on_c, 0, 54, 39
2, 43206, Note_on_c, 0, 64, 35
2, 43208, Note_on_c, 0, 69, 38
2, 43208, Note_on_c, 0, 78, 29
2, 43208, Note_on_c, 0, 60, 40
2, 43210, Note_on_c, 0, 74, 46
2, 43231, Control_c, 0, 64, 127
2, 43233, Note_on_c, 0, 64, 0
2, 43236, Note_on_c, 0, 60, 0
2, 43246, Note_on_c, 0, 54, 0
2, 43253, Note_on_c, 0, 78, 0
2, 43260, Note_on_c, 0, 74, 0
2, 43262, Note_on_c, 0, 69, 0
2, 43264, Note_on_c, 0, 81, 0
2, 43286, Note_on_c, 0, 80, 50
2, 43309, Note_on_c, 0, 80, 0
2, 43319, Control_c, 0, 64, 0
2, 43324, Note_on_c, 0, 60, 54
2, 43324, Note_on_c, 0, 81, 54
2, 43325, Note_on_c, 0, 54, 37
2, 43326, Note_on_c, 0, 69, 40
2, 43327, Note_on_c, 0, 74, 30
2, 43330, Note_on_c, 0, 60, 0
2, 43330, Note_on_c, 0, 78, 19
2, 43333, Note_on_c, 0, 69, 0
2, 43334, Note_on_c, 0, 74, 0
2, 43337, Note_on_c, 0, 78, 0
2, 43341, Note_on_c, 0, 54, 0
2, 43342, Note_on_c, 0, 81, 0
2, 43402, Note_on_c, 0, 72, 64
2, 43403, Note_on_c, 0, 84, 64
2, 43403, Note_on_c, 0, 78, 46
2, 43406, Note_on_c, 0, 81, 32
2, 43409, Note_on_c, 0, 78, 0
2, 43409, Note_on_c, 0, 72, 0
2, 43409, Note_on_c, 0, 84, 0
2, 43414, Note_on_c, 0, 81, 0
2, 43441, Note_on_c, 0, 54, 42
2, 43443, Note_on_c, 0, 45, 46
2, 43447, Control_c, 0, 64, 127
2, 43461, Note_on_c, 0, 45, 0
2, 43465, Note_on_c, 0, 54, 0
2, 43468, Control_c, 0, 64, 0
2, 43484, Note_on_c, 0, 82, 55
2, 43490, Note_on_c, 0, 77, 33
2, 43498, Control_c, 0, 64, 127
2, 43515, Note_on_c, 0, 77, 0
2, 43516, Note_on_c, 0, 82, 0
2, 43545, Control_c, 0, 64, 0
2, 43562, Note_on_c, 0, 54, 52
2, 43563, Note_on_c, 0, 65, 57
2, 43569, Note_on_c, 0, 60, 29
2, 43571, Control_c, 0, 64, 127
2, 43575, Note_on_c, 0, 65, 0
2, 43577, Note_on_c, 0, 60, 0
2, 43590, Note_on_c, 0, 54, 0
2, 43616, Control_c, 0, 64, 0
2, 43644, Control_c, 0, 64, 127
2, 43646, Note_on_c, 0, 43, 63
2, 43655, Note_on_c, 0, 43, 0
2, 43682, Control_c, 0, 64, 0
2, 43688, Note_on_c, 0, 57, 64
2, 43689, Note_on_c, 0, 69, 71
2, 43689, Note_on_c, 0, 58, 59
2, 43690, Note_on_c, 0, 62, 67
2, 43691, Note_on_c, 0, 65, 48
2, 43715, Control_c, 0, 64, 127
2, 43736, Note_on_c, 0, 69, 0
2, 43743, Note_on_c, 0, 57, 0
2, 43748, Note_on_c, 0, 58, 0
2, 43751, Note_on_c, 0, 65, 0
2, 43752, Note_on_c, 0, 62, 0
2, 43768, Note_on_c, 0, 56, 46
2, 43768, Note_on_c, 0, 68, 43
2, 43772, Note_on_c, 0, 58, 21
2, 43773, Note_on_c, 0, 62, 32
2, 43776, Note_on_c, 0, 65, 19
2, 43786, Note_on_c, 0, 65, 0
2, 43794, Note_on_c, 0, 58, 0
2, 43795, Note_on_c, 0, 62, 0
2, 43796, Note_on_c, 0, 56, 0
2, 43803, Note_on_c, 0, 68, 0
2, 43808, Control_c, 0, 64, 0
2, 43811, Note_on_c, 0, 58, 29
2, 43812, Note_on_c, 0, 67, 46
2, 43813, Note_on_c, 0, 62, 46
2, 43814, Note_on_c, 0, 55, 55
2, 43816, Note_on_c, 0, 65, 32
2, 43865, Control_c, 0, 64, 127
2, 43869, Note_on_c, 0, 65, 0
2, 43887, Note_on_c, 0, 43, 47
2, 43888, Note_on_c, 0, 62, 0
2, 43890, Note_on_c, 0, 55, 0
2, 43897, Note_on_c, 0, 58, 0
2, 43918, Note_on_c, 0, 67, 0
2, 43921, Control_c, 0, 64, 0
2, 43927, Note_on_c, 0, 54, 52
2, 43928, Note_on_c, 0, 58, 42
2, 43928, Note_on_c, 0, 66, 47
2, 43929, Note_on_c, 0, 62, 52
2, 43945, Control_c, 0, 64, 127
2, 43996, Note_on_c, 0, 54, 0
2, 44003, Note_on_c, 0, 50, 32
2, 44010, Note_on_c, 0, 66, 0
2, 44015, Note_on_c, 0, 58, 0
2, 44018, Note_on_c, 0, 62, 0
2, 44032, Control_c, 0, 64, 0
2, 44037, Note_on_c, 0, 50, 0
2, 44042, Note_on_c, 0, 53, 40
2, 44042, Note_on_c, 0, 58, 40
2, 44044, Note_on_c, 0, 65, 52
2, 44045, Note_on_c, 0, 62, 44
2, 44049, Control_c, 0, 64, 127
2, 44068, Note_on_c, 0, 58, 0
2, 44069, Note_on_c, 0, 43, 0
2, 44084, Note_on_c, 0, 62, 0
2, 44088, Note_on_c, 0, 65, 0
2, 44113, Note_on_c, 0, 43, 37
2, 44123, Note_on_c, 0, 53, 0
2, 44127, Note_on_c, 0, 43, 0
2, 44157, Control_c, 0, 64, 0
2, 44159, Note_on_c, 0, 62, 52
2, 44159, Note_on_c, 0, 46, 46
2, 44161, Note_on_c, 0, 69, 49
2, 44162, Note_on_c, 0, 57, 34
2, 44162, Note_on_c, 0, 65, 44
2, 44163, Note_on_c, 0, 72, 28
2, 44172, Control_c, 0, 64, 127
2, 44184, Note_on_c, 0, 46, 0
2, 44188, Note_on_c, 0, 57, 0
2, 44205, Note_on_c, 0, 62, 0
2, 44223, Note_on_c, 0, 65, 0
2, 44228, Note_on_c, 0, 69, 0
2, 44269, Note_on_c, 0, 72, 0
2, 44280, Note_on_c, 0, 65, 44
2, 44283, Note_on_c, 0, 70, 55
2, 44284, Note_on_c, 0, 62, 35
2, 44286, Note_on_c, 0, 60, 41
2, 44299, Control_c, 0, 64, 0
2, 44302, Note_on_c, 0, 70, 0
2, 44311, Note_on_c, 0, 72, 43
2, 44319, Note_on_c, 0, 70, 39
2, 44320, Note_on_c, 0, 65, 0
2, 44325, Note_on_c, 0, 62, 0
2, 44326, Note_on_c, 0, 72, 0
2, 44340, Note_on_c, 0, 70, 0
2, 44341, Note_on_c, 0, 69, 44
2, 44354, Note_on_c, 0, 60, 0
2, 44357, Note_on_c, 0, 69, 0
2, 44364, Note_on_c, 0, 70, 48
2, 44365, Control_c, 0, 64, 127
2, 44374, Note_on_c, 0, 70, 0
2, 44385, Note_on_c, 0, 72, 58
2, 44392, Control_c, 0, 64, 0
2, 44394, Note_on_c, 0, 61, 34
2, 44396, Note_on_c, 0, 65, 38
2, 44399, Note_on_c, 0, 55, 36
2, 44404, Note_on_c, 0, 72, 0
2, 44407, Note_on_c, 0, 77, 62
2, 44425, Note_on_c, 0, 77, 0
2, 44432, Note_on_c, 0, 84, 70
2, 44437, Control_c, 0, 64, 127
2, 44439, Note_on_c, 0, 65, 0
2, 44446, Note_on_c, 0, 61, 0
2, 44448, Note_on_c, 0, 55, 0
2, 44470, Note_on_c, 0, 82, 55
2, 44478, Note_on_c, 0, 84, 0
2, 44515, Note_on_c, 0, 39, 54
2, 44533, Note_on_c, 0, 39, 0
2, 44585, Note_on_c, 0, 82, 0
2, 44643, Note_on_c, 0, 38, 49
2, 44645, Control_c, 0, 64, 0
2, 44645, Note_on_c, 0, 53, 46
2, 44663, Control_c, 0, 64, 127
2, 44665, Note_on_c, 0, 38, 0
2, 44672, Note_on_c, 0, 53, 0
2, 44724, Note_on_c, 0, 77, 82
2, 44724, Note_on_c, 0, 81, 79
2, 44758, Note_on_c, 0, 81, 0
2, 44760, Note_on_c, 0, 77, 0
2, 44765, Note_on_c, 0, 53, 31
2, 44767, Note_on_c, 0, 79, 58
2, 44767, Note_on_c, 0, 64, 32
2, 44767, Note_on_c, 0, 57, 49
2, 44768, Note_on_c, 0, 76, 66
2, 44768, Control_c, 0, 64, 0
2, 44768, Note_on_c, 0, 60, 46
2, 44780, Control_c, 0, 64, 127
2, 44821, Note_on_c, 0, 60, 0
2, 44822, Note_on_c, 0, 64, 0
2, 44824, Note_on_c, 0, 76, 0
2, 44828, Note_on_c, 0, 57, 0
2, 44830, Note_on_c, 0, 79, 0
2, 44841, Note_on_c, 0, 53, 0
2, 44845, Note_on_c, 0, 77, 62
2, 44851, Note_on_c, 0, 74, 17
2, 44857, Note_on_c, 0, 74, 0
2, 44877, Note_on_c, 0, 77, 0
2, 44888, Control_c, 0, 64, 0
2, 44889, Note_on_c, 0, 71, 62
2, 44889, Note_on_c, 0, 81, 64
2, 44889, Note_on_c, 0, 75, 69
2, 44891, Note_on_c, 0, 53, 44
2, 44891, Note_on_c, 0, 64, 41
2, 44893, Note_on_c, 0, 59, 52
2, 44909, Note_on_c, 0, 75, 0
2, 44909, Note_on_c, 0, 76, 58
2, 44930, Control_c, 0, 64, 127
2, 44964, Note_on_c, 0, 53, 0
2, 44965, Note_on_c, 0, 64, 0
2, 44966, Note_on_c, 0, 59, 0
2, 44969, Note_on_c, 0, 76, 0
2, 44972, Note_on_c, 0, 81, 0
2, 44976, Note_on_c, 0, 71, 0
2, 45010, Control_c, 0, 64, 0
2, 45010, Note_on_c, 0, 77, 64
2, 45011, Note_on_c, 0, 71, 67
2, 45013, Note_on_c, 0, 64, 49
2, 45013, Note_on_c, 0, 59, 51
2, 45015, Note_on_c, 0, 53, 44
2, 45022, Control_c, 0, 64, 127
2, 45033, Note_on_c, 0, 64, 0
2, 45040, Note_on_c, 0, 77, 0
2, 45041, Note_on_c, 0, 59, 0
2, 45050, Note_on_c, 0, 71, 0
2, 45056, Note_on_c, 0, 53, 0
2, 45119, Note_on_c, 0, 48, 57
2, 45122, Note_on_c, 0, 47, 22
2, 45124, Note_on_c, 0, 49, 37
2, 45129, Note_on_c, 0, 62, 58
2, 45130, Note_on_c, 0, 47, 0
2, 45130, Note_on_c, 0, 48, 0
2, 45131, Control_c, 0, 64, 0
2, 45131, Note_on_c, 0, 58, 50
2, 45131, Note_on_c, 0, 53, 62
2, 45131, Note_on_c, 0, 55, 62
2, 45133, Note_on_c, 0, 50, 49
2, 45143, Note_on_c, 0, 49, 0
2, 45181, Note_on_c, 0, 53, 0
2, 45186, Note_on_c, 0, 55, 0
2, 45189, Note_on_c, 0, 62, 0
2, 45191, Note_on_c, 0, 58, 0
2, 45195, Note_on_c, 0, 50, 0
2, 45196, Note_on_c, 0, 48, 70
2, 45196, Note_on_c, 0, 60, 68
2, 45197, Note_on_c, 0, 58, 21
2, 45197, Note_on_c, 0, 53, 55
2, 45198, Note_on_c, 0, 55, 73
2, 45213, Control_c, 0, 64, 127
2, 45227, Note_on_c, 0, 53, 0
2, 45236, Note_on_c, 0, 48, 0
2, 45237, Note_on_c, 0, 55, 0
2, 45241, Note_on_c, 0, 58, 0
2, 45247, Note_on_c, 0, 60, 0
2, 45362, Control_c, 0, 64, 0
2, 45370, Note_on_c, 0, 72, 65
2, 45371, Note_on_c, 0, 60, 56
2, 45372, Note_on_c, 0, 67, 64
2, 45372, Note_on_c, 0, 64, 69
2, 45376, Note_on_c, 0, 60, 0
2, 45377, Note_on_c, 0, 67, 0
2, 45381, Note_on_c, 0, 64, 0
2, 45382, Note_on_c, 0, 72, 0
2, 45444, Note_on_c, 0, 61, 53
2, 45445, Note_on_c, 0, 58, 52
2, 45446, Note_on_c, 0, 69, 61
2, 45447, Note_on_c, 0, 48, 46
2, 45448, Note_on_c, 0, 64, 50
2, 45470, Control_c, 0, 64, 127
2, 45530, Note_on_c, 0, 48, 0
2, 45542, Note_on_c, 0, 69, 0
2, 45554, Note_on_c, 0, 58, 0
2, 45560, Note_on_c, 0, 64, 0
2, 45570, Note_on_c, 0, 61, 0
2, 45616, Control_c, 0, 64, 0
2, 45623, Note_on_c, 0, 67, 53
2, 45624, Note_on_c, 0, 57, 45
2, 45625, Note_on_c, 0, 41, 44
2, 45626, Note_on_c, 0, 61, 34
2, 45627, Note_on_c, 0, 64, 39
2, 45627, Note_on_c, 0, 49, 33
2, 45640, Control_c, 0, 64, 127
2, 45701, Note_on_c, 0, 57, 0
2, 45713, Note_on_c, 0, 64, 0
2, 45714, Note_on_c, 0, 67, 0
2, 45716, Note_on_c, 0, 61, 0
2, 45726, Note_on_c, 0, 49, 0
2, 45736, Note_on_c, 0, 50, 49
2, 45736, Note_on_c, 0, 57, 34
2, 45738, Note_on_c, 0, 62, 39
2, 45738, Note_on_c, 0, 65, 38
2, 45744, Control_c, 0, 64, 0
2, 45765, Control_c, 0, 64, 127
2, 45825, Note_on_c, 0, 41, 0
2, 45845, Note_on_c, 0, 41, 39
2, 45954, Note_on_c, 0, 41, 0
2, 45969, Note_on_c, 0, 41, 40
2, 46036, Note_on_c, 0, 50, 0
2, 46042, Note_on_c, 0, 41, 0
2, 46056, Note_on_c, 0, 57, 0
2, 46063, Note_on_c, 0, 65, 0
2, 46071, Note_on_c, 0, 62, 0
2, 46098, Control_c, 0, 64, 0
2, 46101, Note_on_c, 0, 34, 55
2, 46119, Control_c, 0, 64, 127
2, 46127, Note_on_c, 0, 34, 0
2, 46221, Note_on_c, 0, 51, 44
2, 46221, Note_on_c, 0, 72, 50
2, 46223, Note_on_c, 0, 66, 52
2, 46223, Control_c, 0, 64, 0
2, 46223, Note_on_c, 0, 57, 49
2, 46223, Note_on_c, 0, 62, 57
2, 46224, Note_on_c, 0, 69, 53
2, 46241, Control_c, 0, 64, 127
2, 46282, Note_on_c, 0, 69, 0
2, 46283, Note_on_c, 0, 62, 0
2, 46286, Note_on_c, 0, 57, 0
2, 46289, Note_on_c, 0, 72, 0
2, 46295, Note_on_c, 0, 66, 0
2, 46307, Note_on_c, 0, 51, 0
2, 46333, Note_on_c, 0, 70, 58
2, 46335, Note_on_c, 0, 60, 49
2, 46335, Note_on_c, 0, 62, 41
2, 46337, Note_on_c, 0, 65, 57
2, 46337, Note_on_c, 0, 50, 43
2, 46338, Control_c, 0, 64, 0
2, 46340, Note_on_c, 0, 55, 37
2, 46374, Control_c, 0, 64, 127
2, 46408, Note_on_c, 0, 65, 0
2, 46408, Note_on_c, 0, 62, 0
2, 46408, Note_on_c, 0, 60, 0
2, 46446, Note_on_c, 0, 55, 0
2, 46455, Note_on_c, 0, 60, 28
2, 46455, Note_on_c, 0, 65, 32
2, 46458, Note_on_c, 0, 62, 22
2, 46463, Note_on_c, 0, 50, 0
2, 46483, Note_on_c, 0, 62, 0
2, 46487, Note_on_c, 0, 70, 0
2, 46493, Note_on_c, 0, 65, 0
2, 46503, Note_on_c, 0, 60, 0
2, 46568, Note_on_c, 0, 69, 56
2, 46568, Control_c, 0, 64, 0
2, 46570, Note_on_c, 0, 57, 34
2, 46570, Note_on_c, 0, 61, 40
2, 46571, Note_on_c, 0, 46, 42
2, 46572, Note_on_c, 0, 64, 47
2, 46577, Note_on_c, 0, 61, 0
2, 46577, Note_on_c, 0, 69, 0
2, 46577, Note_on_c, 0, 57, 0
2, 46578, Note_on_c, 0, 64, 0
2, 46585, Note_on_c, 0, 46, 0
2, 46612, Control_c, 0, 64, 127
2, 46815, Note_on_c, 0, 61, 35
2, 46815, Note_on_c, 0, 57, 38
2, 46816, Note_on_c, 0, 64, 44
2, 46818, Note_on_c, 0, 46, 31
2, 46818, Note_on_c, 0, 52, 28
2, 46904, Note_on_c, 0, 52, 0
2, 46921, Note_on_c, 0, 46, 0
2, 46960, Note_on_c, 0, 64, 0
2, 46961, Note_on_c, 0, 57, 0
2, 46980, Note_on_c, 0, 61, 0
2, 47050, Control_c, 0, 64, 0
2, 47055, Note_on_c, 0, 55, 34
2, 47055, Note_on_c, 0, 60, 44
2, 47057, Note_on_c, 0, 29, 31
2, 47057, Note_on_c, 0, 64, 28
2, 47060, Note_on_c, 0, 57, 31
2, 47060, Note_on_c, 0, 41, 20
2, 47066, Control_c, 0, 64, 127
2, 47083, Note_on_c, 0, 55, 0
2, 47089, Note_on_c, 0, 57, 0
2, 47090, Note_on_c, 0, 60, 0
2, 47095, Note_on_c, 0, 64, 0
2, 47130, Note_on_c, 0, 76, 62
2, 47164, Note_on_c, 0, 76, 0
2, 47169, Note_on_c, 0, 69, 53
2, 47176, Note_on_c, 0, 69, 0
2, 47216, Note_on_c, 0, 76, 35
2, 47243, Note_on_c, 0, 76, 0
2, 47248, Note_on_c, 0, 74, 39
2, 47271, Note_on_c, 0, 74, 0
2, 47284, Note_on_c, 0, 81, 42
2, 47315, Note_on_c, 0, 79, 44
2, 47324, Note_on_c, 0, 81, 0
2, 47336, Note_on_c, 0, 79, 0
2, 47354, Note_on_c, 0, 86, 75
2, 47426, Note_on_c, 0, 84, 32
2, 47434, Note_on_c, 0, 86, 0
2, 47445, Note_on_c, 0, 84, 0
2, 47450, Note_on_c, 0, 81, 39
2, 47466, Note_on_c, 0, 81, 0
2, 47479, Note_on_c, 0, 93, 66
2, 47511, Note_on_c, 0, 93, 0
2, 47515, Note_on_c, 0, 91, 45
2, 47542, Note_on_c, 0, 91, 0
2, 47547, Note_on_c, 0, 98, 68
2, 47600, Note_on_c, 0, 98, 0
2, 47602, Note_on_c, 0, 96, 51
2, 47627, Note_on_c, 0, 96, 0
2, 47629, Note_on_c, 0, 93, 48
2, 47642, Note_on_c, 0, 93, 0
2, 47658, Note_on_c, 0, 105, 69
2, 47696, Note_on_c, 0, 105, 0
2, 47716, Note_on_c, 0, 29, 0
2, 47722, Note_on_c, 0, 41, 0
2, 47722, End_track
3, 0, Start_track
3, 0, Title_t, "dougmck@pipeline.com.au"
3, 0, End_track
4, 0, Start_track
4, 0, Title_t, "Solo Piano - played in real time."
4, 0, End_track
0, 0, End_of_file
