0, 0, Header, 1, 2, 120
1, 0, Start_track
1, 0, Title_t, "Getting to Know You and Shall We Dance "
1, 0, Title_t, "From the King and I"
1, 0, Text_t, "Rodgers and Hammerstein\012"
1, 0, Text_t, "Solo piano played in real time by dougmck@pipeline.com.au.\012"
1, 0, Time_signature, 4, 2, 24, 8
1, 0, Key_signature, 0, "major"
1, 0, Tempo, 582524
1, 0, Marker_t, "Getting To Know You"
1, 6240, Key_signature, -3, "major"
1, 14400, Key_signature, 0, "major"
1, 20640, Key_signature, -3, "major"
1, 28320, Tempo, 480000
1, 28380, Marker_t, "Shall We Dance"
1, 28800, Tempo, 480000
1, 28800, End_track
2, 0, Start_track
2, 110, Note_on_c, 0, 76, 64
2, 126, Note_on_c, 0, 76, 0
2, 137, Note_on_c, 0, 77, 61
2, 155, Note_on_c, 0, 77, 0
2, 163, Control_c, 0, 64, 127
2, 167, Note_on_c, 0, 79, 62
2, 182, Note_on_c, 0, 79, 0
2, 195, Control_c, 0, 64, 0
2, 206, Note_on_c, 0, 84, 76
2, 208, Note_on_c, 0, 67, 42
2, 215, Note_on_c, 0, 62, 33
2, 217, Note_on_c, 0, 84, 0
2, 223, Note_on_c, 0, 64, 20
2, 253, Control_c, 0, 64, 127
2, 255, Note_on_c, 0, 67, 0
2, 284, Control_c, 0, 64, 0
2, 305, Note_on_c, 0, 55, 34
2, 314, Note_on_c, 0, 62, 0
2, 318, Note_on_c, 0, 64, 0
2, 349, Control_c, 0, 64, 127
2, 394, Control_c, 0, 64, 0
2, 400, Note_on_c, 0, 84, 68
2, 407, Note_on_c, 0, 72, 48
2, 408, Note_on_c, 0, 65, 31
2, 408, Note_on_c, 0, 60, 36
2, 410, Note_on_c, 0, 57, 30
2, 415, Note_on_c, 0, 72, 0
2, 416, Note_on_c, 0, 84, 0
2, 421, Note_on_c, 0, 55, 0
2, 499, Note_on_c, 0, 57, 0
2, 500, Note_on_c, 0, 60, 0
2, 501, Control_c, 0, 64, 127
2, 505, Note_on_c, 0, 55, 48
2, 506, Note_on_c, 0, 65, 0
2, 598, Control_c, 0, 64, 0
2, 598, Note_on_c, 0, 76, 84
2, 599, Note_on_c, 0, 67, 58
2, 600, Note_on_c, 0, 64, 51
2, 602, Note_on_c, 0, 62, 36
2, 614, Note_on_c, 0, 76, 0
2, 619, Note_on_c, 0, 67, 0
2, 626, Note_on_c, 0, 77, 66
2, 646, Note_on_c, 0, 77, 0
2, 653, Note_on_c, 0, 55, 0
2, 658, Control_c, 0, 64, 127
2, 659, Note_on_c, 0, 79, 71
2, 672, Control_c, 0, 64, 0
2, 674, Note_on_c, 0, 79, 0
2, 694, Note_on_c, 0, 84, 80
2, 698, Note_on_c, 0, 55, 49
2, 706, Note_on_c, 0, 84, 0
2, 709, Note_on_c, 0, 62, 0
2, 712, Note_on_c, 0, 64, 0
2, 791, Note_on_c, 0, 67, 57
2, 791, Note_on_c, 0, 84, 76
2, 795, Note_on_c, 0, 62, 34
2, 796, Note_on_c, 0, 64, 34
2, 802, Note_on_c, 0, 84, 0
2, 819, Note_on_c, 0, 67, 0
2, 844, Control_c, 0, 64, 127
2, 853, Note_on_c, 0, 55, 0
2, 854, Note_on_c, 0, 84, 77
2, 860, Control_c, 0, 64, 0
2, 877, Note_on_c, 0, 84, 0
2, 890, Note_on_c, 0, 76, 30
2, 891, Note_on_c, 0, 55, 38
2, 894, Control_c, 0, 64, 127
2, 907, Note_on_c, 0, 62, 0
2, 909, Note_on_c, 0, 76, 0
2, 913, Note_on_c, 0, 64, 0
2, 981, Note_on_c, 0, 65, 45
2, 982, Note_on_c, 0, 79, 55
2, 983, Control_c, 0, 64, 0
2, 984, Note_on_c, 0, 72, 56
2, 985, Note_on_c, 0, 60, 44
2, 986, Note_on_c, 0, 69, 49
2, 999, Note_on_c, 0, 57, 20
2, 1011, Control_c, 0, 64, 127
2, 1020, Note_on_c, 0, 55, 0
2, 1067, Note_on_c, 0, 79, 0
2, 1069, Note_on_c, 0, 72, 0
2, 1073, Note_on_c, 0, 69, 0
2, 1073, Note_on_c, 0, 57, 0
2, 1077, Note_on_c, 0, 55, 49
2, 1078, Note_on_c, 0, 65, 0
2, 1079, Note_on_c, 0, 60, 0
2, 1093, Note_on_c, 0, 55, 0
2, 1171, Note_on_c, 0, 67, 55
2, 1171, Note_on_c, 0, 55, 44
2, 1174, Note_on_c, 0, 57, 53
2, 1176, Note_on_c, 0, 60, 48
2, 1176, Note_on_c, 0, 65, 32
2, 1178, Note_on_c, 0, 55, 0
2, 1182, Note_on_c, 0, 57, 0
2, 1183, Control_c, 0, 64, 0
2, 1185, Note_on_c, 0, 60, 0
2, 1187, Note_on_c, 0, 65, 0
2, 1189, Note_on_c, 0, 67, 0
2, 1260, Note_on_c, 0, 43, 46
2, 1261, Note_on_c, 0, 31, 65
2, 1268, Control_c, 0, 64, 127
2, 1273, Note_on_c, 0, 43, 0
2, 1277, Note_on_c, 0, 31, 0
2, 1282, Control_c, 0, 64, 0
2, 1363, Note_on_c, 0, 67, 28
2, 1363, Note_on_c, 0, 59, 38
2, 1364, Note_on_c, 0, 63, 31
2, 1364, Note_on_c, 0, 53, 34
2, 1365, Note_on_c, 0, 43, 35
2, 1376, Note_on_c, 0, 59, 0
2, 1380, Note_on_c, 0, 63, 0
2, 1381, Note_on_c, 0, 53, 0
2, 1383, Note_on_c, 0, 43, 0
2, 1383, Note_on_c, 0, 67, 0
2, 1459, Control_c, 0, 64, 127
2, 1462, Note_on_c, 0, 67, 34
2, 1464, Note_on_c, 0, 63, 42
2, 1465, Note_on_c, 0, 43, 35
2, 1465, Note_on_c, 0, 53, 31
2, 1466, Note_on_c, 0, 59, 36
2, 1502, Note_on_c, 0, 59, 0
2, 1524, Note_on_c, 0, 63, 0
2, 1525, Note_on_c, 0, 67, 0
2, 1535, Note_on_c, 0, 43, 0
2, 1545, Note_on_c, 0, 53, 0
2, 1668, Note_on_c, 0, 77, 47
2, 1689, Note_on_c, 0, 77, 0
2, 1697, Note_on_c, 0, 79, 49
2, 1714, Note_on_c, 0, 79, 0
2, 1726, Note_on_c, 0, 81, 74
2, 1742, Note_on_c, 0, 81, 0
2, 1753, Control_c, 0, 64, 0
2, 1758, Note_on_c, 0, 86, 94
2, 1767, Note_on_c, 0, 86, 0
2, 1846, Note_on_c, 0, 50, 59
2, 1853, Note_on_c, 0, 50, 0
2, 1854, Control_c, 0, 64, 127
2, 1909, Control_c, 0, 64, 0
2, 1921, Note_on_c, 0, 86, 84
2, 1921, Note_on_c, 0, 54, 70
2, 1922, Note_on_c, 0, 65, 74
2, 1922, Note_on_c, 0, 60, 67
2, 1922, Note_on_c, 0, 74, 80
2, 1928, Control_c, 0, 64, 127
2, 1958, Note_on_c, 0, 65, 0
2, 1958, Note_on_c, 0, 86, 0
2, 1959, Note_on_c, 0, 74, 0
2, 1961, Note_on_c, 0, 60, 0
2, 1966, Control_c, 0, 64, 0
2, 1969, Note_on_c, 0, 54, 0
2, 1974, Note_on_c, 0, 74, 57
2, 1974, Note_on_c, 0, 86, 67
2, 1975, Note_on_c, 0, 53, 66
2, 1976, Note_on_c, 0, 64, 62
2, 1976, Note_on_c, 0, 59, 66
2, 2011, Control_c, 0, 64, 127
2, 2068, Note_on_c, 0, 86, 0
2, 2085, Note_on_c, 0, 74, 0
2, 2121, Note_on_c, 0, 53, 0
2, 2139, Note_on_c, 0, 53, 50
2, 2153, Note_on_c, 0, 64, 0
2, 2164, Note_on_c, 0, 59, 0
2, 2172, Note_on_c, 0, 65, 39
2, 2175, Control_c, 0, 64, 0
2, 2190, Note_on_c, 0, 65, 0
2, 2202, Note_on_c, 0, 67, 55
2, 2218, Note_on_c, 0, 67, 0
2, 2236, Note_on_c, 0, 69, 71
2, 2239, Control_c, 0, 64, 127
2, 2251, Note_on_c, 0, 69, 0
2, 2266, Control_c, 0, 64, 0
2, 2273, Note_on_c, 0, 74, 71
2, 2274, Note_on_c, 0, 64, 39
2, 2279, Note_on_c, 0, 60, 35
2, 2285, Note_on_c, 0, 74, 0
2, 2303, Note_on_c, 0, 53, 0
2, 2335, Note_on_c, 0, 74, 84
2, 2336, Note_on_c, 0, 53, 59
2, 2337, Note_on_c, 0, 60, 0
2, 2349, Note_on_c, 0, 64, 0
2, 2355, Note_on_c, 0, 74, 0
2, 2369, Note_on_c, 0, 74, 51
2, 2373, Note_on_c, 0, 64, 45
2, 2377, Note_on_c, 0, 59, 53
2, 2392, Control_c, 0, 64, 127
2, 2433, Note_on_c, 0, 53, 0
2, 2455, Note_on_c, 0, 74, 0
2, 2455, Note_on_c, 0, 53, 19
2, 2457, Note_on_c, 0, 64, 0
2, 2474, Note_on_c, 0, 59, 0
2, 2479, Note_on_c, 0, 65, 53
2, 2493, Note_on_c, 0, 53, 0
2, 2508, Note_on_c, 0, 65, 0
2, 2581, Note_on_c, 0, 64, 55
2, 2582, Control_c, 0, 64, 0
2, 2584, Note_on_c, 0, 59, 47
2, 2584, Note_on_c, 0, 55, 43
2, 2586, Note_on_c, 0, 52, 40
2, 2629, Control_c, 0, 64, 127
2, 2640, Control_c, 0, 64, 0
2, 2652, Note_on_c, 0, 48, 58
2, 2653, Note_on_c, 0, 52, 0
2, 2692, Control_c, 0, 64, 127
2, 2708, Note_on_c, 0, 55, 0
2, 2744, Note_on_c, 0, 59, 0
2, 2780, Note_on_c, 0, 48, 0
2, 2787, Note_on_c, 0, 64, 0
2, 2845, Control_c, 0, 64, 0
2, 2846, Note_on_c, 0, 61, 55
2, 2847, Note_on_c, 0, 45, 51
2, 2847, Note_on_c, 0, 65, 63
2, 2848, Note_on_c, 0, 55, 43
2, 2850, Note_on_c, 0, 70, 44
2, 2878, Control_c, 0, 64, 127
2, 2939, Note_on_c, 0, 55, 0
2, 2943, Note_on_c, 0, 65, 0
2, 2946, Note_on_c, 0, 45, 0
2, 2951, Note_on_c, 0, 61, 0
2, 2953, Note_on_c, 0, 70, 0
2, 2975, Control_c, 0, 64, 0
2, 2977, Note_on_c, 0, 54, 52
2, 2979, Note_on_c, 0, 44, 55
2, 2980, Note_on_c, 0, 69, 53
2, 2981, Note_on_c, 0, 60, 47
2, 2981, Note_on_c, 0, 65, 51
2, 3021, Control_c, 0, 64, 127
2, 3068, Note_on_c, 0, 69, 0
2, 3072, Note_on_c, 0, 65, 0
2, 3072, Note_on_c, 0, 54, 0
2, 3077, Note_on_c, 0, 44, 0
2, 3078, Note_on_c, 0, 60, 0
2, 3142, Note_on_c, 0, 68, 37
2, 3143, Control_c, 0, 64, 0
2, 3144, Note_on_c, 0, 53, 38
2, 3144, Note_on_c, 0, 59, 40
2, 3146, Note_on_c, 0, 64, 35
2, 3147, Note_on_c, 0, 43, 35
2, 3172, Control_c, 0, 64, 127
2, 3173, Note_on_c, 0, 59, 0
2, 3191, Note_on_c, 0, 64, 0
2, 3199, Note_on_c, 0, 43, 0
2, 3214, Note_on_c, 0, 53, 0
2, 3244, Note_on_c, 0, 64, 64
2, 3288, Note_on_c, 0, 68, 0
2, 3292, Note_on_c, 0, 64, 0
2, 3302, Note_on_c, 0, 65, 44
2, 3320, Note_on_c, 0, 65, 0
2, 3334, Note_on_c, 0, 67, 68
2, 3350, Note_on_c, 0, 67, 0
2, 3362, Control_c, 0, 64, 0
2, 3368, Note_on_c, 0, 43, 32
2, 3370, Note_on_c, 0, 72, 80
2, 3371, Note_on_c, 0, 52, 57
2, 3372, Note_on_c, 0, 36, 33
2, 3398, Control_c, 0, 64, 127
2, 3439, Note_on_c, 0, 36, 0
2, 3450, Note_on_c, 0, 72, 0
2, 3451, Note_on_c, 0, 43, 0
2, 3466, Note_on_c, 0, 52, 0
2, 3470, Note_on_c, 0, 72, 69
2, 3535, Note_on_c, 0, 72, 0
2, 3564, Note_on_c, 0, 72, 58
2, 3566, Control_c, 0, 64, 0
2, 3569, Note_on_c, 0, 67, 57
2, 3572, Note_on_c, 0, 64, 40
2, 3573, Note_on_c, 0, 55, 41
2, 3574, Note_on_c, 0, 62, 54
2, 3611, Control_c, 0, 64, 127
2, 3665, Note_on_c, 0, 43, 45
2, 3673, Note_on_c, 0, 43, 0
2, 3674, Note_on_c, 0, 72, 0
2, 3678, Note_on_c, 0, 67, 0
2, 3679, Note_on_c, 0, 55, 0
2, 3679, Note_on_c, 0, 64, 0
2, 3681, Note_on_c, 0, 62, 0
2, 3761, Control_c, 0, 64, 0
2, 3767, Note_on_c, 0, 64, 44
2, 3770, Note_on_c, 0, 48, 32
2, 3771, Note_on_c, 0, 55, 43
2, 3771, Note_on_c, 0, 59, 49
2, 3782, Control_c, 0, 64, 127
2, 3804, Note_on_c, 0, 55, 0
2, 3804, Note_on_c, 0, 64, 0
2, 3809, Note_on_c, 0, 59, 0
2, 3828, Note_on_c, 0, 48, 0
2, 3832, Note_on_c, 0, 60, 67
2, 3832, Note_on_c, 0, 50, 60
2, 3832, Note_on_c, 0, 57, 57
2, 3832, Note_on_c, 0, 65, 55
2, 3846, Note_on_c, 0, 57, 0
2, 3851, Note_on_c, 0, 65, 0
2, 3853, Control_c, 0, 64, 0
2, 3854, Note_on_c, 0, 60, 0
2, 3867, Note_on_c, 0, 50, 0
2, 3869, Note_on_c, 0, 67, 65
2, 3870, Note_on_c, 0, 52, 68
2, 3870, Note_on_c, 0, 62, 60
2, 3880, Control_c, 0, 64, 127
2, 3881, Note_on_c, 0, 52, 0
2, 3884, Note_on_c, 0, 62, 0
2, 3887, Note_on_c, 0, 67, 0
2, 3934, Control_c, 0, 64, 0
2, 3935, Note_on_c, 0, 58, 73
2, 3935, Note_on_c, 0, 68, 77
2, 3936, Note_on_c, 0, 72, 79
2, 3936, Note_on_c, 0, 64, 83
2, 3938, Note_on_c, 0, 66, 56
2, 3944, Note_on_c, 0, 66, 0
2, 3975, Control_c, 0, 64, 127
2, 4000, Note_on_c, 0, 48, 61
2, 4063, Note_on_c, 0, 64, 0
2, 4078, Note_on_c, 0, 64, 36
2, 4079, Note_on_c, 0, 48, 0
2, 4085, Note_on_c, 0, 58, 0
2, 4089, Note_on_c, 0, 68, 0
2, 4091, Note_on_c, 0, 72, 0
2, 4097, Note_on_c, 0, 64, 0
2, 4154, Note_on_c, 0, 69, 61
2, 4262, Note_on_c, 0, 61, 53
2, 4263, Note_on_c, 0, 41, 55
2, 4264, Note_on_c, 0, 57, 48
2, 4265, Note_on_c, 0, 49, 45
2, 4270, Control_c, 0, 64, 0
2, 4274, Note_on_c, 0, 69, 0
2, 4287, Note_on_c, 0, 57, 0
2, 4288, Note_on_c, 0, 49, 0
2, 4297, Note_on_c, 0, 61, 0
2, 4306, Note_on_c, 0, 57, 44
2, 4306, Note_on_c, 0, 61, 25
2, 4307, Note_on_c, 0, 64, 58
2, 4312, Note_on_c, 0, 52, 38
2, 4338, Control_c, 0, 64, 127
2, 4353, Note_on_c, 0, 52, 0
2, 4355, Note_on_c, 0, 57, 0
2, 4361, Note_on_c, 0, 61, 0
2, 4365, Note_on_c, 0, 64, 0
2, 4370, Note_on_c, 0, 62, 64
2, 4373, Note_on_c, 0, 57, 36
2, 4376, Control_c, 0, 64, 0
2, 4377, Note_on_c, 0, 50, 46
2, 4414, Control_c, 0, 64, 127
2, 4434, Note_on_c, 0, 41, 0
2, 4465, Note_on_c, 0, 41, 58
2, 4556, Note_on_c, 0, 50, 0
2, 4595, Note_on_c, 0, 52, 64
2, 4596, Control_c, 0, 64, 0
2, 4629, Control_c, 0, 64, 127
2, 4652, Note_on_c, 0, 52, 0
2, 4677, Control_c, 0, 64, 0
2, 4689, Note_on_c, 0, 51, 54
2, 4706, Control_c, 0, 64, 127
2, 4729, Note_on_c, 0, 51, 0
2, 4732, Note_on_c, 0, 57, 0
2, 4753, Note_on_c, 0, 62, 0
2, 4758, Note_on_c, 0, 50, 64
2, 4766, Control_c, 0, 64, 0
2, 4789, Control_c, 0, 64, 127
2, 4839, Note_on_c, 0, 67, 58
2, 4855, Note_on_c, 0, 41, 0
2, 4857, Note_on_c, 0, 67, 0
2, 4866, Note_on_c, 0, 69, 55
2, 4868, Note_on_c, 0, 50, 0
2, 4888, Note_on_c, 0, 69, 0
2, 4896, Note_on_c, 0, 70, 56
2, 4912, Note_on_c, 0, 70, 0
2, 4917, Note_on_c, 0, 71, 60
2, 4918, Control_c, 0, 64, 0
2, 4935, Note_on_c, 0, 71, 0
2, 4938, Note_on_c, 0, 72, 36
2, 4948, Control_c, 0, 64, 127
2, 4955, Note_on_c, 0, 72, 0
2, 4956, Note_on_c, 0, 73, 30
2, 4978, Note_on_c, 0, 73, 0
2, 4983, Control_c, 0, 64, 0
2, 4983, Note_on_c, 0, 74, 73
2, 4990, Note_on_c, 0, 57, 33
2, 4991, Note_on_c, 0, 64, 33
2, 4992, Note_on_c, 0, 60, 53
2, 5037, Control_c, 0, 64, 127
2, 5048, Note_on_c, 0, 74, 0
2, 5067, Note_on_c, 0, 57, 0
2, 5077, Control_c, 0, 64, 0
2, 5078, Note_on_c, 0, 56, 47
2, 5098, Control_c, 0, 64, 127
2, 5127, Note_on_c, 0, 56, 0
2, 5143, Control_c, 0, 64, 0
2, 5148, Note_on_c, 0, 74, 48
2, 5149, Note_on_c, 0, 55, 51
2, 5160, Note_on_c, 0, 64, 0
2, 5167, Note_on_c, 0, 60, 0
2, 5169, Control_c, 0, 64, 127
2, 5235, Note_on_c, 0, 74, 0
2, 5239, Note_on_c, 0, 64, 34
2, 5239, Note_on_c, 0, 60, 41
2, 5279, Note_on_c, 0, 55, 0
2, 5321, Note_on_c, 0, 54, 58
2, 5322, Control_c, 0, 64, 0
2, 5331, Note_on_c, 0, 60, 0
2, 5333, Note_on_c, 0, 64, 0
2, 5338, Control_c, 0, 64, 127
2, 5340, Note_on_c, 0, 54, 0
2, 5495, Control_c, 0, 64, 0
2, 5501, Note_on_c, 0, 72, 58
2, 5504, Note_on_c, 0, 77, 73
2, 5504, Note_on_c, 0, 82, 57
2, 5505, Note_on_c, 0, 88, 69
2, 5508, Control_c, 0, 64, 127
2, 5530, Note_on_c, 0, 88, 0
2, 5536, Note_on_c, 0, 77, 0
2, 5540, Note_on_c, 0, 82, 0
2, 5544, Note_on_c, 0, 72, 0
2, 5559, Control_c, 0, 64, 0
2, 5561, Note_on_c, 0, 84, 67
2, 5564, Note_on_c, 0, 76, 53
2, 5565, Note_on_c, 0, 69, 50
2, 5566, Note_on_c, 0, 81, 38
2, 5575, Note_on_c, 0, 81, 0
2, 5576, Note_on_c, 0, 84, 0
2, 5578, Control_c, 0, 64, 127
2, 5583, Note_on_c, 0, 76, 0
2, 5588, Note_on_c, 0, 69, 0
2, 5627, Control_c, 0, 64, 0
2, 5629, Note_on_c, 0, 65, 44
2, 5629, Note_on_c, 0, 72, 64
2, 5629, Note_on_c, 0, 77, 52
2, 5630, Note_on_c, 0, 81, 55
2, 5643, Note_on_c, 0, 72, 0
2, 5645, Note_on_c, 0, 65, 0
2, 5646, Note_on_c, 0, 77, 0
2, 5646, Note_on_c, 0, 81, 0
2, 5649, Control_c, 0, 64, 127
2, 5714, Control_c, 0, 64, 0
2, 5715, Note_on_c, 0, 69, 58
2, 5715, Note_on_c, 0, 77, 53
2, 5716, Note_on_c, 0, 72, 54
2, 5737, Control_c, 0, 64, 127
2, 5779, Note_on_c, 0, 72, 0
2, 5780, Note_on_c, 0, 77, 0
2, 5786, Note_on_c, 0, 69, 0
2, 5802, Note_on_c, 0, 55, 42
2, 5821, Note_on_c, 0, 55, 0
2, 5841, Note_on_c, 0, 50, 34
2, 5903, Note_on_c, 0, 43, 53
2, 5903, Control_c, 0, 64, 0
2, 5929, Note_on_c, 0, 50, 0
2, 5943, Note_on_c, 0, 67, 47
2, 5945, Note_on_c, 0, 57, 30
2, 5948, Note_on_c, 0, 60, 28
2, 5951, Note_on_c, 0, 55, 34
2, 5954, Control_c, 0, 64, 127
2, 5982, Note_on_c, 0, 43, 0
2, 6000, Note_on_c, 0, 57, 0
2, 6004, Note_on_c, 0, 43, 42
2, 6006, Note_on_c, 0, 60, 0
2, 6012, Note_on_c, 0, 67, 0
2, 6023, Note_on_c, 0, 43, 0
2, 6027, Note_on_c, 0, 55, 0
2, 6082, Control_c, 0, 64, 0
2, 6087, Note_on_c, 0, 67, 54
2, 6088, Note_on_c, 0, 56, 37
2, 6089, Note_on_c, 0, 46, 38
2, 6090, Note_on_c, 0, 60, 50
2, 6091, Note_on_c, 0, 63, 39
2, 6093, Note_on_c, 0, 53, 30
2, 6100, Note_on_c, 0, 53, 0
2, 6105, Control_c, 0, 64, 127
2, 6106, Note_on_c, 0, 46, 0
2, 6184, Note_on_c, 0, 56, 0
2, 6220, Note_on_c, 0, 60, 0
2, 6231, Note_on_c, 0, 56, 34
2, 6232, Note_on_c, 0, 67, 0
2, 6244, Note_on_c, 0, 56, 0
2, 6252, Note_on_c, 0, 63, 0
2, 6290, Note_on_c, 0, 56, 37
2, 6294, Note_on_c, 0, 67, 43
2, 6296, Note_on_c, 0, 59, 40
2, 6297, Note_on_c, 0, 62, 39
2, 6298, Control_c, 0, 64, 0
2, 6300, Note_on_c, 0, 64, 31
2, 6309, Note_on_c, 0, 59, 0
2, 6326, Control_c, 0, 64, 127
2, 6331, Note_on_c, 0, 64, 0
2, 6334, Note_on_c, 0, 62, 0
2, 6340, Note_on_c, 0, 67, 0
2, 6381, Note_on_c, 0, 46, 38
2, 6384, Note_on_c, 0, 67, 60
2, 6391, Note_on_c, 0, 56, 0
2, 6405, Note_on_c, 0, 67, 0
2, 6407, Control_c, 0, 64, 0
2, 6409, Note_on_c, 0, 68, 45
2, 6410, Note_on_c, 0, 46, 0
2, 6436, Note_on_c, 0, 68, 0
2, 6444, Note_on_c, 0, 70, 43
2, 6455, Note_on_c, 0, 70, 0
2, 6468, Note_on_c, 0, 71, 47
2, 6481, Note_on_c, 0, 71, 0
2, 6497, Control_c, 0, 64, 127
2, 6500, Note_on_c, 0, 72, 34
2, 6521, Note_on_c, 0, 72, 0
2, 6521, Note_on_c, 0, 77, 69
2, 6542, Control_c, 0, 64, 0
2, 6548, Note_on_c, 0, 46, 33
2, 6549, Note_on_c, 0, 39, 37
2, 6551, Note_on_c, 0, 75, 65
2, 6558, Note_on_c, 0, 77, 0
2, 6567, Control_c, 0, 64, 127
2, 6574, Note_on_c, 0, 39, 0
2, 6582, Note_on_c, 0, 46, 0
2, 6650, Note_on_c, 0, 62, 34
2, 6651, Note_on_c, 0, 67, 36
2, 6654, Note_on_c, 0, 58, 34
2, 6658, Note_on_c, 0, 62, 0
2, 6662, Note_on_c, 0, 67, 0
2, 6663, Note_on_c, 0, 75, 0
2, 6671, Note_on_c, 0, 58, 0
2, 6719, Note_on_c, 0, 67, 57
2, 6721, Note_on_c, 0, 60, 60
2, 6732, Control_c, 0, 64, 0
2, 6740, Note_on_c, 0, 44, 25
2, 6744, Note_on_c, 0, 55, 16
2, 6759, Control_c, 0, 64, 127
2, 6779, Note_on_c, 0, 67, 0
2, 6803, Note_on_c, 0, 55, 0
2, 6812, Note_on_c, 0, 51, 35
2, 6816, Note_on_c, 0, 60, 0
2, 6817, Note_on_c, 0, 44, 0
2, 6840, Control_c, 0, 64, 0
2, 6846, Note_on_c, 0, 54, 30
2, 6846, Note_on_c, 0, 44, 31
2, 6856, Control_c, 0, 64, 127
2, 6859, Note_on_c, 0, 51, 0
2, 6895, Note_on_c, 0, 54, 0
2, 6908, Note_on_c, 0, 58, 39
2, 6912, Note_on_c, 0, 44, 0
2, 6912, Control_c, 0, 64, 0
2, 6922, Note_on_c, 0, 58, 0
2, 6928, Note_on_c, 0, 53, 24
2, 6928, Note_on_c, 0, 43, 31
2, 6934, Control_c, 0, 64, 127
2, 6937, Note_on_c, 0, 43, 0
2, 6947, Note_on_c, 0, 53, 0
2, 6996, Note_on_c, 0, 67, 66
2, 7012, Note_on_c, 0, 67, 0
2, 7026, Control_c, 0, 64, 0
2, 7028, Note_on_c, 0, 68, 54
2, 7039, Note_on_c, 0, 68, 0
2, 7058, Note_on_c, 0, 68, 48
2, 7062, Control_c, 0, 64, 127
2, 7070, Note_on_c, 0, 68, 0
2, 7084, Note_on_c, 0, 70, 72
2, 7105, Note_on_c, 0, 70, 0
2, 7114, Control_c, 0, 64, 0
2, 7122, Note_on_c, 0, 48, 43
2, 7123, Note_on_c, 0, 75, 63
2, 7124, Note_on_c, 0, 58, 25
2, 7138, Control_c, 0, 64, 127
2, 7148, Note_on_c, 0, 48, 0
2, 7152, Note_on_c, 0, 75, 0
2, 7164, Note_on_c, 0, 58, 0
2, 7180, Note_on_c, 0, 75, 64
2, 7182, Note_on_c, 0, 68, 48
2, 7183, Note_on_c, 0, 64, 61
2, 7185, Note_on_c, 0, 72, 46
2, 7203, Note_on_c, 0, 64, 0
2, 7203, Control_c, 0, 64, 0
2, 7205, Note_on_c, 0, 68, 0
2, 7206, Note_on_c, 0, 75, 0
2, 7209, Note_on_c, 0, 72, 0
2, 7210, Note_on_c, 0, 63, 46
2, 7217, Note_on_c, 0, 75, 51
2, 7223, Note_on_c, 0, 68, 27
2, 7223, Note_on_c, 0, 64, 55
2, 7225, Note_on_c, 0, 72, 44
2, 7230, Control_c, 0, 64, 127
2, 7244, Note_on_c, 0, 72, 0
2, 7248, Note_on_c, 0, 64, 0
2, 7251, Note_on_c, 0, 68, 0
2, 7251, Note_on_c, 0, 63, 0
2, 7259, Note_on_c, 0, 75, 0
2, 7274, Note_on_c, 0, 67, 50
2, 7306, Control_c, 0, 64, 0
2, 7309, Note_on_c, 0, 70, 51
2, 7311, Note_on_c, 0, 63, 50
2, 7311, Note_on_c, 0, 67, 58
2, 7312, Note_on_c, 0, 60, 52
2, 7316, Note_on_c, 0, 58, 42
2, 7338, Control_c, 0, 64, 127
2, 7348, Note_on_c, 0, 60, 0
2, 7348, Note_on_c, 0, 70, 0
2, 7352, Note_on_c, 0, 58, 0
2, 7353, Note_on_c, 0, 63, 0
2, 7357, Note_on_c, 0, 67, 0
2, 7365, Note_on_c, 0, 70, 49
2, 7365, Note_on_c, 0, 58, 52
2, 7367, Note_on_c, 0, 63, 40
2, 7369, Note_on_c, 0, 60, 60
2, 7372, Note_on_c, 0, 67, 38
2, 7383, Control_c, 0, 64, 0
2, 7389, Note_on_c, 0, 60, 0
2, 7391, Note_on_c, 0, 67, 0
2, 7393, Note_on_c, 0, 70, 0
2, 7393, Note_on_c, 0, 58, 0
2, 7394, Note_on_c, 0, 67, 0
2, 7396, Note_on_c, 0, 63, 0
2, 7408, Note_on_c, 0, 56, 32
2, 7410, Note_on_c, 0, 68, 25
2, 7417, Note_on_c, 0, 60, 20
2, 7427, Control_c, 0, 64, 127
2, 7433, Note_on_c, 0, 60, 0
2, 7439, Control_c, 0, 64, 0
2, 7448, Note_on_c, 0, 68, 0
2, 7455, Note_on_c, 0, 56, 0
2, 7457, Control_c, 0, 64, 127
2, 7463, Note_on_c, 0, 70, 56
2, 7464, Note_on_c, 0, 58, 48
2, 7466, Note_on_c, 0, 60, 59
2, 7467, Note_on_c, 0, 63, 42
2, 7468, Note_on_c, 0, 68, 32
2, 7477, Note_on_c, 0, 58, 0
2, 7477, Note_on_c, 0, 70, 0
2, 7482, Note_on_c, 0, 68, 0
2, 7485, Note_on_c, 0, 60, 0
2, 7487, Note_on_c, 0, 63, 0
2, 7492, Control_c, 0, 64, 0
2, 7507, Note_on_c, 0, 67, 56
2, 7508, Note_on_c, 0, 63, 36
2, 7509, Note_on_c, 0, 60, 51
2, 7526, Control_c, 0, 64, 127
2, 7538, Note_on_c, 0, 63, 0
2, 7542, Note_on_c, 0, 60, 0
2, 7558, Control_c, 0, 64, 0
2, 7564, Note_on_c, 0, 63, 48
2, 7566, Note_on_c, 0, 60, 58
2, 7576, Note_on_c, 0, 67, 0
2, 7587, Note_on_c, 0, 60, 0
2, 7599, Note_on_c, 0, 63, 0
2, 7602, Control_c, 0, 64, 127
2, 7649, Control_c, 0, 64, 0
2, 7650, Note_on_c, 0, 62, 54
2, 7651, Note_on_c, 0, 67, 55
2, 7651, Note_on_c, 0, 59, 54
2, 7654, Note_on_c, 0, 56, 36
2, 7654, Note_on_c, 0, 64, 51
2, 7680, Control_c, 0, 64, 127
2, 7744, Note_on_c, 0, 46, 64
2, 7773, Note_on_c, 0, 46, 0
2, 7786, Note_on_c, 0, 46, 53
2, 7803, Note_on_c, 0, 59, 0
2, 7819, Note_on_c, 0, 62, 0
2, 7822, Note_on_c, 0, 46, 0
2, 7840, Note_on_c, 0, 64, 0
2, 7843, Note_on_c, 0, 67, 0
2, 7845, Note_on_c, 0, 56, 0
2, 7848, Note_on_c, 0, 46, 71
2, 7862, Control_c, 0, 64, 0
2, 7865, Control_c, 0, 64, 127
2, 7923, Note_on_c, 0, 68, 62
2, 7939, Note_on_c, 0, 56, 29
2, 7950, Note_on_c, 0, 68, 0
2, 7956, Note_on_c, 0, 70, 59
2, 7973, Control_c, 0, 64, 0
2, 7975, Note_on_c, 0, 70, 0
2, 7987, Note_on_c, 0, 72, 57
2, 7994, Note_on_c, 0, 46, 0
2, 7999, Note_on_c, 0, 56, 0
2, 8000, Note_on_c, 0, 72, 0
2, 8017, Note_on_c, 0, 74, 35
2, 8027, Note_on_c, 0, 74, 0
2, 8033, Control_c, 0, 64, 127
2, 8050, Note_on_c, 0, 75, 71
2, 8067, Note_on_c, 0, 75, 0
2, 8080, Control_c, 0, 64, 0
2, 8092, Note_on_c, 0, 53, 36
2, 8093, Note_on_c, 0, 77, 47
2, 8094, Note_on_c, 0, 60, 26
2, 8096, Note_on_c, 0, 56, 30
2, 8133, Note_on_c, 0, 77, 0
2, 8138, Control_c, 0, 64, 127
2, 8154, Note_on_c, 0, 72, 68
2, 8155, Note_on_c, 0, 68, 52
2, 8158, Note_on_c, 0, 63, 47
2, 8176, Note_on_c, 0, 68, 0
2, 8176, Note_on_c, 0, 53, 0
2, 8182, Note_on_c, 0, 63, 0
2, 8184, Note_on_c, 0, 72, 0
2, 8197, Note_on_c, 0, 53, 46
2, 8203, Note_on_c, 0, 60, 0
2, 8214, Note_on_c, 0, 53, 0
2, 8214, Note_on_c, 0, 56, 0
2, 8253, Note_on_c, 0, 46, 46
2, 8257, Control_c, 0, 64, 0
2, 8346, Note_on_c, 0, 74, 64
2, 8346, Note_on_c, 0, 56, 60
2, 8347, Note_on_c, 0, 71, 71
2, 8348, Note_on_c, 0, 77, 49
2, 8348, Note_on_c, 0, 65, 68
2, 8354, Note_on_c, 0, 65, 0
2, 8361, Note_on_c, 0, 46, 0
2, 8362, Note_on_c, 0, 71, 0
2, 8362, Note_on_c, 0, 74, 0
2, 8362, Note_on_c, 0, 77, 0
2, 8363, Note_on_c, 0, 56, 0
2, 8383, Control_c, 0, 64, 127
2, 8463, Control_c, 0, 64, 0
2, 8473, Note_on_c, 0, 68, 40
2, 8476, Note_on_c, 0, 53, 26
2, 8476, Note_on_c, 0, 63, 53
2, 8478, Note_on_c, 0, 60, 48
2, 8493, Control_c, 0, 64, 127
2, 8510, Note_on_c, 0, 68, 0
2, 8533, Note_on_c, 0, 53, 0
2, 8537, Note_on_c, 0, 70, 60
2, 8538, Note_on_c, 0, 55, 50
2, 8548, Note_on_c, 0, 60, 0
2, 8551, Note_on_c, 0, 63, 0
2, 8554, Note_on_c, 0, 70, 0
2, 8557, Control_c, 0, 64, 0
2, 8559, Note_on_c, 0, 55, 0
2, 8572, Note_on_c, 0, 56, 43
2, 8573, Note_on_c, 0, 72, 55
2, 8582, Control_c, 0, 64, 127
2, 8596, Note_on_c, 0, 72, 0
2, 8610, Note_on_c, 0, 56, 0
2, 8633, Note_on_c, 0, 77, 57
2, 8634, Control_c, 0, 64, 0
2, 8635, Note_on_c, 0, 56, 42
2, 8635, Note_on_c, 0, 46, 48
2, 8660, Control_c, 0, 64, 127
2, 8670, Note_on_c, 0, 46, 0
2, 8676, Note_on_c, 0, 56, 0
2, 8712, Note_on_c, 0, 77, 0
2, 8728, Note_on_c, 0, 56, 60
2, 8729, Note_on_c, 0, 66, 64
2, 8731, Note_on_c, 0, 62, 58
2, 8735, Control_c, 0, 64, 0
2, 8755, Control_c, 0, 64, 127
2, 8787, Note_on_c, 0, 66, 0
2, 8818, Note_on_c, 0, 56, 0
2, 8821, Note_on_c, 0, 68, 62
2, 8833, Note_on_c, 0, 62, 0
2, 8851, Note_on_c, 0, 68, 0
2, 8860, Control_c, 0, 64, 0
2, 8860, Note_on_c, 0, 62, 46
2, 8864, Note_on_c, 0, 67, 62
2, 8868, Note_on_c, 0, 55, 33
2, 8869, Note_on_c, 0, 62, 0
2, 8876, Note_on_c, 0, 67, 0
2, 8878, Control_c, 0, 64, 127
2, 8880, Note_on_c, 0, 55, 0
2, 8927, Note_on_c, 0, 67, 62
2, 8929, Note_on_c, 0, 58, 53
2, 8930, Note_on_c, 0, 63, 44
2, 8931, Note_on_c, 0, 55, 45
2, 8943, Note_on_c, 0, 58, 0
2, 8943, Control_c, 0, 64, 0
2, 8948, Note_on_c, 0, 67, 0
2, 8949, Note_on_c, 0, 55, 0
2, 8950, Note_on_c, 0, 63, 0
2, 8969, Note_on_c, 0, 53, 33
2, 8977, Control_c, 0, 64, 127
2, 9024, Control_c, 0, 64, 0
2, 9024, Note_on_c, 0, 58, 56
2, 9025, Note_on_c, 0, 67, 57
2, 9026, Note_on_c, 0, 53, 0
2, 9026, Note_on_c, 0, 63, 49
2, 9027, Note_on_c, 0, 55, 54
2, 9053, Control_c, 0, 64, 127
2, 9111, Note_on_c, 0, 55, 0
2, 9124, Note_on_c, 0, 48, 62
2, 9136, Control_c, 0, 64, 0
2, 9140, Note_on_c, 0, 67, 0
2, 9145, Note_on_c, 0, 58, 0
2, 9148, Note_on_c, 0, 63, 0
2, 9158, Control_c, 0, 64, 127
2, 9220, Note_on_c, 0, 48, 0
2, 9224, Control_c, 0, 64, 0
2, 9226, Note_on_c, 0, 46, 37
2, 9233, Note_on_c, 0, 61, 56
2, 9249, Note_on_c, 0, 60, 44
2, 9255, Note_on_c, 0, 61, 0
2, 9264, Note_on_c, 0, 60, 0
2, 9273, Note_on_c, 0, 57, 32
2, 9282, Note_on_c, 0, 57, 0
2, 9291, Note_on_c, 0, 58, 39
2, 9309, Note_on_c, 0, 58, 0
2, 9315, Note_on_c, 0, 60, 45
2, 9324, Note_on_c, 0, 60, 0
2, 9337, Note_on_c, 0, 63, 44
2, 9351, Note_on_c, 0, 63, 0
2, 9359, Note_on_c, 0, 64, 45
2, 9367, Note_on_c, 0, 64, 0
2, 9379, Note_on_c, 0, 66, 37
2, 9385, Note_on_c, 0, 66, 0
2, 9414, Note_on_c, 0, 69, 32
2, 9427, Note_on_c, 0, 69, 0
2, 9430, Note_on_c, 0, 46, 0
2, 9433, Note_on_c, 0, 70, 33
2, 9439, Note_on_c, 0, 70, 0
2, 9448, Note_on_c, 0, 72, 54
2, 9462, Note_on_c, 0, 72, 0
2, 9464, Note_on_c, 0, 73, 36
2, 9476, Note_on_c, 0, 73, 0
2, 9490, Note_on_c, 0, 75, 61
2, 9503, Note_on_c, 0, 75, 0
2, 9521, Note_on_c, 0, 76, 74
2, 9536, Note_on_c, 0, 76, 0
2, 9549, Note_on_c, 0, 77, 65
2, 9567, Note_on_c, 0, 77, 0
2, 9577, Note_on_c, 0, 78, 57
2, 9580, Note_on_c, 0, 55, 32
2, 9582, Note_on_c, 0, 45, 32
2, 9590, Note_on_c, 0, 78, 0
2, 9606, Note_on_c, 0, 79, 57
2, 9618, Note_on_c, 0, 79, 0
2, 9618, Note_on_c, 0, 45, 0
2, 9631, Note_on_c, 0, 80, 57
2, 9633, Control_c, 0, 64, 127
2, 9638, Note_on_c, 0, 55, 0
2, 9651, Note_on_c, 0, 80, 0
2, 9654, Note_on_c, 0, 81, 56
2, 9670, Note_on_c, 0, 81, 0
2, 9676, Control_c, 0, 64, 0
2, 9680, Note_on_c, 0, 82, 52
2, 9691, Note_on_c, 0, 44, 34
2, 9694, Note_on_c, 0, 82, 0
2, 9704, Note_on_c, 0, 84, 68
2, 9707, Note_on_c, 0, 44, 0
2, 9708, Control_c, 0, 64, 127
2, 9764, Note_on_c, 0, 72, 56
2, 9788, Note_on_c, 0, 63, 38
2, 9798, Note_on_c, 0, 58, 23
2, 9800, Note_on_c, 0, 63, 0
2, 9810, Note_on_c, 0, 58, 0
2, 9815, Note_on_c, 0, 84, 0
2, 9823, Note_on_c, 0, 72, 0
2, 9854, Note_on_c, 0, 44, 42
2, 9857, Note_on_c, 0, 51, 33
2, 9877, Note_on_c, 0, 51, 0
2, 9887, Control_c, 0, 64, 0
2, 9892, Note_on_c, 0, 53, 59
2, 9912, Control_c, 0, 64, 127
2, 9964, Note_on_c, 0, 53, 0
2, 9977, Control_c, 0, 64, 0
2, 9987, Note_on_c, 0, 51, 54
2, 9995, Control_c, 0, 64, 127
2, 10036, Note_on_c, 0, 44, 0
2, 10072, Note_on_c, 0, 51, 0
2, 10138, Note_on_c, 0, 74, 60
2, 10141, Note_on_c, 0, 68, 69
2, 10141, Note_on_c, 0, 65, 74
2, 10143, Control_c, 0, 64, 0
2, 10146, Note_on_c, 0, 60, 43
2, 10161, Note_on_c, 0, 74, 0
2, 10166, Note_on_c, 0, 60, 0
2, 10183, Note_on_c, 0, 75, 71
2, 10187, Control_c, 0, 64, 127
2, 10187, Note_on_c, 0, 64, 30
2, 10207, Note_on_c, 0, 64, 0
2, 10214, Note_on_c, 0, 68, 0
2, 10217, Note_on_c, 0, 75, 0
2, 10223, Note_on_c, 0, 65, 0
2, 10238, Note_on_c, 0, 77, 61
2, 10262, Note_on_c, 0, 77, 0
2, 10308, Control_c, 0, 64, 0
2, 10311, Note_on_c, 0, 56, 44
2, 10313, Note_on_c, 0, 77, 54
2, 10314, Note_on_c, 0, 71, 54
2, 10314, Note_on_c, 0, 62, 40
2, 10315, Note_on_c, 0, 65, 46
2, 10316, Note_on_c, 0, 74, 47
2, 10333, Control_c, 0, 64, 127
2, 10349, Note_on_c, 0, 74, 0
2, 10356, Note_on_c, 0, 71, 0
2, 10365, Note_on_c, 0, 65, 0
2, 10372, Note_on_c, 0, 77, 0
2, 10379, Note_on_c, 0, 74, 49
2, 10385, Note_on_c, 0, 62, 0
2, 10400, Note_on_c, 0, 74, 0
2, 10411, Note_on_c, 0, 56, 0
2, 10437, Note_on_c, 0, 55, 65
2, 10438, Note_on_c, 0, 79, 62
2, 10439, Control_c, 0, 64, 0
2, 10466, Control_c, 0, 64, 127
2, 10524, Note_on_c, 0, 65, 30
2, 10524, Note_on_c, 0, 70, 35
2, 10526, Note_on_c, 0, 62, 26
2, 10528, Note_on_c, 0, 67, 28
2, 10541, Note_on_c, 0, 79, 0
2, 10542, Note_on_c, 0, 65, 0
2, 10545, Note_on_c, 0, 62, 0
2, 10556, Note_on_c, 0, 70, 0
2, 10559, Note_on_c, 0, 67, 0
2, 10560, Note_on_c, 0, 55, 0
2, 10612, Note_on_c, 0, 72, 57
2, 10613, Note_on_c, 0, 65, 62
2, 10615, Note_on_c, 0, 61, 52
2, 10615, Note_on_c, 0, 57, 57
2, 10616, Control_c, 0, 64, 0
2, 10636, Control_c, 0, 64, 127
2, 10644, Note_on_c, 0, 65, 0
2, 10649, Note_on_c, 0, 72, 0
2, 10650, Note_on_c, 0, 61, 0
2, 10652, Control_c, 0, 64, 0
2, 10659, Note_on_c, 0, 57, 0
2, 10665, Note_on_c, 0, 70, 50
2, 10666, Note_on_c, 0, 65, 45
2, 10667, Note_on_c, 0, 56, 39
2, 10668, Note_on_c, 0, 61, 27
2, 10678, Control_c, 0, 64, 127
2, 10688, Note_on_c, 0, 56, 0
2, 10698, Note_on_c, 0, 65, 0
2, 10707, Note_on_c, 0, 70, 0
2, 10720, Note_on_c, 0, 61, 0
2, 10745, Control_c, 0, 64, 0
2, 10758, Note_on_c, 0, 45, 36
2, 10759, Note_on_c, 0, 55, 29
2, 10760, Note_on_c, 0, 64, 34
2, 10762, Control_c, 0, 64, 127
2, 10770, Note_on_c, 0, 64, 0
2, 10793, Note_on_c, 0, 55, 0
2, 10797, Note_on_c, 0, 45, 0
2, 10822, Control_c, 0, 64, 0
2, 10826, Note_on_c, 0, 55, 49
2, 10828, Note_on_c, 0, 51, 35
2, 10828, Note_on_c, 0, 63, 32
2, 10829, Note_on_c, 0, 44, 40
2, 10834, Note_on_c, 0, 55, 0
2, 10844, Control_c, 0, 64, 127
2, 10846, Note_on_c, 0, 63, 0
2, 10867, Note_on_c, 0, 44, 0
2, 10873, Note_on_c, 0, 51, 0
2, 10916, Note_on_c, 0, 75, 60
2, 10918, Note_on_c, 0, 70, 64
2, 10919, Note_on_c, 0, 60, 70
2, 10920, Note_on_c, 0, 65, 60
2, 10921, Control_c, 0, 64, 0
2, 10952, Control_c, 0, 64, 127
2, 10982, Note_on_c, 0, 70, 0
2, 10984, Note_on_c, 0, 75, 0
2, 10994, Note_on_c, 0, 60, 0
2, 10994, Note_on_c, 0, 65, 0
2, 11042, Control_c, 0, 64, 0
2, 11043, Note_on_c, 0, 72, 68
2, 11049, Note_on_c, 0, 56, 37
2, 11062, Control_c, 0, 64, 127
2, 11067, Note_on_c, 0, 60, 1
2, 11071, Note_on_c, 0, 72, 0
2, 11092, Note_on_c, 0, 60, 0
2, 11131, Control_c, 0, 64, 0
2, 11135, Note_on_c, 0, 53, 43
2, 11136, Note_on_c, 0, 56, 0
2, 11136, Note_on_c, 0, 68, 44
2, 11140, Note_on_c, 0, 63, 33
2, 11141, Note_on_c, 0, 60, 29
2, 11145, Control_c, 0, 64, 127
2, 11151, Note_on_c, 0, 53, 0
2, 11154, Note_on_c, 0, 68, 0
2, 11164, Note_on_c, 0, 60, 0
2, 11168, Note_on_c, 0, 63, 0
2, 11226, Control_c, 0, 64, 0
2, 11229, Note_on_c, 0, 46, 37
2, 11231, Note_on_c, 0, 58, 33
2, 11231, Note_on_c, 0, 63, 36
2, 11231, Note_on_c, 0, 67, 44
2, 11234, Note_on_c, 0, 55, 32
2, 11255, Control_c, 0, 64, 127
2, 11276, Note_on_c, 0, 46, 0
2, 11292, Note_on_c, 0, 46, 39
2, 11318, Note_on_c, 0, 46, 0
2, 11330, Note_on_c, 0, 46, 32
2, 11361, Note_on_c, 0, 46, 0
2, 11392, Note_on_c, 0, 55, 0
2, 11393, Note_on_c, 0, 46, 42
2, 11400, Note_on_c, 0, 58, 0
2, 11400, Note_on_c, 0, 63, 0
2, 11409, Note_on_c, 0, 67, 0
2, 11419, Note_on_c, 0, 46, 0
2, 11429, Control_c, 0, 64, 0
2, 11433, Note_on_c, 0, 64, 71
2, 11433, Note_on_c, 0, 58, 60
2, 11434, Note_on_c, 0, 67, 67
2, 11434, Note_on_c, 0, 46, 50
2, 11452, Control_c, 0, 64, 127
2, 11472, Note_on_c, 0, 46, 0
2, 11492, Note_on_c, 0, 46, 37
2, 11518, Note_on_c, 0, 46, 0
2, 11536, Note_on_c, 0, 46, 35
2, 11565, Note_on_c, 0, 46, 0
2, 11584, Note_on_c, 0, 64, 0
2, 11584, Note_on_c, 0, 58, 0
2, 11587, Note_on_c, 0, 67, 0
2, 11595, Note_on_c, 0, 46, 36
2, 11616, Note_on_c, 0, 46, 0
2, 11624, Control_c, 0, 64, 0
2, 11633, Note_on_c, 0, 67, 62
2, 11634, Note_on_c, 0, 58, 57
2, 11634, Note_on_c, 0, 63, 54
2, 11635, Note_on_c, 0, 46, 45
2, 11647, Control_c, 0, 64, 127
2, 11657, Note_on_c, 0, 67, 0
2, 11667, Note_on_c, 0, 58, 0
2, 11683, Note_on_c, 0, 63, 0
2, 11692, Note_on_c, 0, 68, 49
2, 11695, Note_on_c, 0, 63, 20
2, 11707, Note_on_c, 0, 68, 0
2, 11709, Note_on_c, 0, 63, 0
2, 11727, Note_on_c, 0, 70, 37
2, 11729, Note_on_c, 0, 58, 36
2, 11747, Note_on_c, 0, 58, 0
2, 11753, Note_on_c, 0, 70, 0
2, 11773, Note_on_c, 0, 46, 0
2, 11792, Note_on_c, 0, 46, 35
2, 11793, Control_c, 0, 64, 0
2, 11795, Note_on_c, 0, 70, 34
2, 11796, Note_on_c, 0, 56, 33
2, 11797, Note_on_c, 0, 63, 35
2, 11797, Note_on_c, 0, 67, 45
2, 11800, Note_on_c, 0, 59, 30
2, 11829, Control_c, 0, 64, 127
2, 11854, Note_on_c, 0, 46, 0
2, 11856, Note_on_c, 0, 56, 0
2, 11886, Note_on_c, 0, 44, 63
2, 11886, Note_on_c, 0, 54, 62
2, 11894, Control_c, 0, 64, 0
2, 11920, Control_c, 0, 64, 127
2, 11927, Note_on_c, 0, 59, 0
2, 11949, Note_on_c, 0, 54, 0
2, 11951, Note_on_c, 0, 67, 0
2, 11952, Note_on_c, 0, 63, 0
2, 11957, Note_on_c, 0, 44, 0
2, 11965, Note_on_c, 0, 70, 0
2, 11970, Control_c, 0, 64, 0
2, 11978, Note_on_c, 0, 43, 64
2, 11992, Note_on_c, 0, 43, 0
2, 11992, Control_c, 0, 64, 127
2, 12037, Note_on_c, 0, 62, 71
2, 12038, Note_on_c, 0, 65, 69
2, 12038, Note_on_c, 0, 72, 64
2, 12038, Note_on_c, 0, 69, 61
2, 12039, Note_on_c, 0, 60, 71
2, 12040, Note_on_c, 0, 58, 57
2, 12041, Control_c, 0, 64, 0
2, 12066, Control_c, 0, 64, 127
2, 12102, Note_on_c, 0, 72, 0
2, 12126, Note_on_c, 0, 72, 62
2, 12155, Note_on_c, 0, 60, 0
2, 12155, Note_on_c, 0, 62, 0
2, 12167, Note_on_c, 0, 65, 0
2, 12173, Note_on_c, 0, 72, 0
2, 12178, Note_on_c, 0, 69, 0
2, 12179, Note_on_c, 0, 58, 0
2, 12194, Note_on_c, 0, 72, 61
2, 12196, Note_on_c, 0, 65, 62
2, 12197, Note_on_c, 0, 62, 52
2, 12198, Note_on_c, 0, 58, 48
2, 12199, Note_on_c, 0, 60, 47
2, 12200, Control_c, 0, 64, 0
2, 12225, Control_c, 0, 64, 127
2, 12267, Note_on_c, 0, 60, 0
2, 12271, Note_on_c, 0, 58, 0
2, 12297, Note_on_c, 0, 58, 44
2, 12314, Note_on_c, 0, 58, 0
2, 12315, Note_on_c, 0, 62, 0
2, 12337, Note_on_c, 0, 62, 25
2, 12347, Note_on_c, 0, 65, 0
2, 12363, Note_on_c, 0, 62, 0
2, 12386, Note_on_c, 0, 72, 0
2, 12427, Control_c, 0, 64, 0
2, 12436, Note_on_c, 0, 53, 36
2, 12437, Note_on_c, 0, 72, 42
2, 12438, Note_on_c, 0, 63, 34
2, 12440, Note_on_c, 0, 67, 44
2, 12443, Note_on_c, 0, 70, 32
2, 12447, Control_c, 0, 64, 127
2, 12459, Note_on_c, 0, 72, 0
2, 12474, Note_on_c, 0, 70, 0
2, 12475, Note_on_c, 0, 63, 0
2, 12488, Note_on_c, 0, 67, 0
2, 12496, Note_on_c, 0, 74, 54
2, 12511, Note_on_c, 0, 74, 0
2, 12534, Note_on_c, 0, 75, 49
2, 12565, Note_on_c, 0, 75, 0
2, 12594, Note_on_c, 0, 75, 51
2, 12597, Control_c, 0, 64, 0
2, 12598, Note_on_c, 0, 63, 25
2, 12599, Note_on_c, 0, 69, 52
2, 12600, Note_on_c, 0, 65, 35
2, 12600, Note_on_c, 0, 57, 46
2, 12607, Note_on_c, 0, 53, 0
2, 12626, Control_c, 0, 64, 127
2, 12688, Note_on_c, 0, 53, 36
2, 12708, Note_on_c, 0, 53, 0
2, 12708, Note_on_c, 0, 57, 0
2, 12716, Note_on_c, 0, 65, 0
2, 12719, Note_on_c, 0, 69, 0
2, 12723, Note_on_c, 0, 63, 0
2, 12745, Note_on_c, 0, 75, 0
2, 12817, Control_c, 0, 64, 0
2, 12819, Note_on_c, 0, 77, 51
2, 12821, Note_on_c, 0, 68, 28
2, 12822, Note_on_c, 0, 75, 32
2, 12824, Note_on_c, 0, 72, 40
2, 12837, Control_c, 0, 64, 127
2, 12865, Note_on_c, 0, 77, 0
2, 12868, Note_on_c, 0, 72, 0
2, 12873, Note_on_c, 0, 75, 0
2, 12879, Note_on_c, 0, 68, 0
2, 12896, Note_on_c, 0, 53, 18
2, 12977, Note_on_c, 0, 46, 36
2, 12980, Note_on_c, 0, 53, 0
2, 12982, Note_on_c, 0, 65, 36
2, 12988, Note_on_c, 0, 63, 25
2, 12996, Note_on_c, 0, 46, 0
2, 13040, Note_on_c, 0, 46, 42
2, 13106, Note_on_c, 0, 34, 53
2, 13122, Note_on_c, 0, 34, 0
2, 13125, Note_on_c, 0, 46, 0
2, 13159, Note_on_c, 0, 65, 0
2, 13167, Note_on_c, 0, 63, 0
2, 13252, Note_on_c, 0, 74, 72
2, 13252, Note_on_c, 0, 66, 81
2, 13253, Note_on_c, 0, 62, 76
2, 13254, Note_on_c, 0, 57, 69
2, 13255, Note_on_c, 0, 47, 57
2, 13256, Control_c, 0, 64, 0
2, 13288, Control_c, 0, 64, 127
2, 13370, Note_on_c, 0, 57, 0
2, 13424, Note_on_c, 0, 62, 0
2, 13427, Note_on_c, 0, 66, 0
2, 13459, Note_on_c, 0, 56, 51
2, 13460, Control_c, 0, 64, 0
2, 13480, Control_c, 0, 64, 127
2, 13509, Note_on_c, 0, 47, 0
2, 13526, Note_on_c, 0, 47, 40
2, 13536, Note_on_c, 0, 74, 0
2, 13552, Note_on_c, 0, 56, 0
2, 13574, Note_on_c, 0, 47, 0
2, 13732, Note_on_c, 0, 39, 54
2, 13737, Note_on_c, 0, 46, 33
2, 13803, Control_c, 0, 64, 0
2, 13803, Note_on_c, 0, 69, 48
2, 13805, Note_on_c, 0, 62, 48
2, 13806, Note_on_c, 0, 55, 49
2, 13807, Note_on_c, 0, 57, 40
2, 13829, Note_on_c, 0, 55, 0
2, 13830, Note_on_c, 0, 57, 0
2, 13831, Note_on_c, 0, 62, 0
2, 13833, Note_on_c, 0, 69, 0
2, 13870, Note_on_c, 0, 69, 56
2, 13873, Note_on_c, 0, 62, 48
2, 13874, Note_on_c, 0, 55, 45
2, 13874, Note_on_c, 0, 57, 34
2, 13899, Note_on_c, 0, 55, 0
2, 13901, Note_on_c, 0, 57, 0
2, 13904, Note_on_c, 0, 62, 0
2, 13906, Note_on_c, 0, 69, 0
2, 13939, Note_on_c, 0, 69, 51
2, 13941, Note_on_c, 0, 62, 49
2, 13944, Note_on_c, 0, 57, 30
2, 13944, Note_on_c, 0, 55, 33
2, 13958, Control_c, 0, 64, 127
2, 13965, Note_on_c, 0, 55, 0
2, 13970, Note_on_c, 0, 57, 0
2, 13987, Note_on_c, 0, 62, 0
2, 13989, Note_on_c, 0, 39, 0
2, 13989, Note_on_c, 0, 46, 0
2, 14010, Note_on_c, 0, 50, 74
2, 14019, Control_c, 0, 64, 0
2, 14029, Note_on_c, 0, 69, 0
2, 14045, Control_c, 0, 64, 127
2, 14137, Control_c, 0, 64, 0
2, 14142, Note_on_c, 0, 65, 51
2, 14160, Control_c, 0, 64, 127
2, 14178, Note_on_c, 0, 65, 0
2, 14194, Note_on_c, 0, 68, 60
2, 14197, Note_on_c, 0, 43, 45
2, 14199, Note_on_c, 0, 53, 41
2, 14204, Note_on_c, 0, 50, 0
2, 14207, Control_c, 0, 64, 0
2, 14209, Note_on_c, 0, 43, 0
2, 14218, Note_on_c, 0, 68, 0
2, 14222, Note_on_c, 0, 53, 0
2, 14239, Note_on_c, 0, 71, 49
2, 14267, Control_c, 0, 64, 127
2, 14272, Note_on_c, 0, 71, 0
2, 14286, Note_on_c, 0, 74, 72
2, 14292, Note_on_c, 0, 53, 41
2, 14294, Note_on_c, 0, 63, 46
2, 14294, Note_on_c, 0, 59, 55
2, 14296, Control_c, 0, 64, 0
2, 14310, Note_on_c, 0, 74, 0
2, 14324, Note_on_c, 0, 77, 82
2, 14335, Control_c, 0, 64, 127
2, 14342, Note_on_c, 0, 59, 0
2, 14360, Note_on_c, 0, 63, 0
2, 14366, Note_on_c, 0, 53, 0
2, 14367, Note_on_c, 0, 77, 0
2, 14381, Note_on_c, 0, 76, 71
2, 14383, Note_on_c, 0, 62, 55
2, 14390, Note_on_c, 0, 52, 42
2, 14391, Note_on_c, 0, 57, 30
2, 14393, Control_c, 0, 64, 0
2, 14408, Note_on_c, 0, 76, 0
2, 14425, Note_on_c, 0, 72, 46
2, 14467, Control_c, 0, 64, 127
2, 14470, Note_on_c, 0, 72, 0
2, 14478, Note_on_c, 0, 67, 53
2, 14492, Control_c, 0, 64, 0
2, 14500, Note_on_c, 0, 67, 0
2, 14502, Note_on_c, 0, 62, 0
2, 14518, Note_on_c, 0, 57, 0
2, 14518, Note_on_c, 0, 65, 46
2, 14526, Note_on_c, 0, 52, 0
2, 14563, Control_c, 0, 64, 127
2, 14574, Note_on_c, 0, 65, 0
2, 14575, Note_on_c, 0, 64, 51
2, 14611, Control_c, 0, 64, 0
2, 14615, Control_c, 0, 64, 127
2, 14664, Note_on_c, 0, 64, 0
2, 14703, Control_c, 0, 64, 0
2, 14705, Note_on_c, 0, 41, 62
2, 14731, Control_c, 0, 64, 127
2, 14760, Note_on_c, 0, 41, 0
2, 14794, Control_c, 0, 64, 0
2, 14801, Note_on_c, 0, 40, 54
2, 14815, Control_c, 0, 64, 127
2, 14863, Note_on_c, 0, 47, 32
2, 14866, Note_on_c, 0, 55, 31
2, 14869, Control_c, 0, 64, 0
2, 14900, Control_c, 0, 64, 127
2, 14901, Note_on_c, 0, 62, 35
2, 14912, Note_on_c, 0, 62, 0
2, 14918, Note_on_c, 0, 40, 0
2, 14925, Note_on_c, 0, 47, 0
2, 14930, Note_on_c, 0, 67, 50
2, 14937, Note_on_c, 0, 55, 0
2, 14940, Control_c, 0, 64, 0
2, 14947, Note_on_c, 0, 67, 0
2, 14947, Control_c, 0, 64, 127
2, 14961, Note_on_c, 0, 72, 70
2, 14974, Note_on_c, 0, 72, 0
2, 14994, Control_c, 0, 64, 0
2, 14995, Note_on_c, 0, 77, 80
2, 14997, Note_on_c, 0, 64, 65
2, 14998, Note_on_c, 0, 70, 67
2, 15021, Control_c, 0, 64, 127
2, 15031, Note_on_c, 0, 77, 0
2, 15036, Note_on_c, 0, 70, 0
2, 15054, Note_on_c, 0, 78, 64
2, 15054, Note_on_c, 0, 70, 60
2, 15057, Note_on_c, 0, 73, 45
2, 15057, Note_on_c, 0, 63, 65
2, 15059, Control_c, 0, 64, 0
2, 15060, Note_on_c, 0, 64, 0
2, 15085, Note_on_c, 0, 73, 0
2, 15085, Note_on_c, 0, 78, 0
2, 15088, Note_on_c, 0, 70, 0
2, 15093, Note_on_c, 0, 63, 0
2, 15093, Control_c, 0, 64, 127
2, 15095, Note_on_c, 0, 77, 44
2, 15096, Note_on_c, 0, 62, 42
2, 15100, Note_on_c, 0, 69, 31
2, 15100, Note_on_c, 0, 72, 32
2, 15114, Note_on_c, 0, 72, 0
2, 15120, Note_on_c, 0, 77, 0
2, 15130, Note_on_c, 0, 69, 0
2, 15131, Note_on_c, 0, 62, 0
2, 15149, Note_on_c, 0, 61, 59
2, 15150, Note_on_c, 0, 76, 71
2, 15153, Note_on_c, 0, 65, 55
2, 15155, Note_on_c, 0, 69, 52
2, 15158, Control_c, 0, 64, 0
2, 15177, Note_on_c, 0, 76, 0
2, 15179, Note_on_c, 0, 61, 0
2, 15185, Note_on_c, 0, 65, 0
2, 15186, Note_on_c, 0, 69, 0
2, 15195, Note_on_c, 0, 74, 49
2, 15196, Control_c, 0, 64, 127
2, 15200, Note_on_c, 0, 65, 35
2, 15201, Note_on_c, 0, 69, 33
2, 15203, Note_on_c, 0, 60, 22
2, 15218, Note_on_c, 0, 69, 0
2, 15223, Note_on_c, 0, 74, 0
2, 15229, Note_on_c, 0, 65, 0
2, 15243, Note_on_c, 0, 60, 0
2, 15249, Note_on_c, 0, 72, 57
2, 15252, Note_on_c, 0, 65, 60
2, 15254, Note_on_c, 0, 57, 49
2, 15258, Control_c, 0, 64, 0
2, 15276, Note_on_c, 0, 72, 0
2, 15286, Note_on_c, 0, 69, 36
2, 15288, Note_on_c, 0, 53, 44
2, 15289, Note_on_c, 0, 57, 0
2, 15289, Note_on_c, 0, 60, 22
2, 15295, Control_c, 0, 64, 127
2, 15308, Note_on_c, 0, 53, 0
2, 15323, Note_on_c, 0, 69, 0
2, 15334, Note_on_c, 0, 65, 0
2, 15347, Note_on_c, 0, 60, 0
2, 15353, Note_on_c, 0, 50, 55
2, 15368, Note_on_c, 0, 50, 0
2, 15375, Control_c, 0, 64, 0
2, 15383, Note_on_c, 0, 69, 46
2, 15384, Note_on_c, 0, 64, 47
2, 15385, Note_on_c, 0, 60, 34
2, 15386, Note_on_c, 0, 55, 53
2, 15402, Control_c, 0, 64, 127
2, 15436, Note_on_c, 0, 60, 0
2, 15439, Note_on_c, 0, 64, 0
2, 15445, Note_on_c, 0, 55, 0
2, 15447, Note_on_c, 0, 69, 0
2, 15449, Note_on_c, 0, 50, 39
2, 15453, Control_c, 0, 64, 0
2, 15469, Note_on_c, 0, 50, 0
2, 15472, Note_on_c, 0, 44, 42
2, 15474, Note_on_c, 0, 54, 21
2, 15476, Note_on_c, 0, 68, 29
2, 15480, Control_c, 0, 64, 127
2, 15481, Note_on_c, 0, 60, 20
2, 15482, Note_on_c, 0, 64, 27
2, 15500, Note_on_c, 0, 64, 0
2, 15504, Note_on_c, 0, 60, 0
2, 15516, Note_on_c, 0, 68, 0
2, 15519, Note_on_c, 0, 54, 0
2, 15536, Note_on_c, 0, 44, 0
2, 15537, Control_c, 0, 64, 0
2, 15540, Note_on_c, 0, 67, 38
2, 15541, Note_on_c, 0, 64, 20
2, 15543, Note_on_c, 0, 59, 22
2, 15544, Note_on_c, 0, 53, 27
2, 15564, Control_c, 0, 64, 127
2, 15626, Note_on_c, 0, 43, 58
2, 15674, Note_on_c, 0, 59, 0
2, 15686, Note_on_c, 0, 43, 0
2, 15716, Note_on_c, 0, 43, 67
2, 15721, Note_on_c, 0, 67, 0
2, 15723, Control_c, 0, 64, 0
2, 15727, Note_on_c, 0, 64, 0
2, 15733, Note_on_c, 0, 43, 0
2, 15738, Control_c, 0, 64, 127
2, 15744, Note_on_c, 0, 53, 0
2, 15806, Note_on_c, 0, 61, 47
2, 15808, Note_on_c, 0, 70, 55
2, 15808, Note_on_c, 0, 76, 45
2, 15810, Note_on_c, 0, 73, 32
2, 15825, Note_on_c, 0, 70, 0
2, 15838, Note_on_c, 0, 76, 0
2, 15841, Note_on_c, 0, 61, 0
2, 15841, Control_c, 0, 64, 0
2, 15849, Note_on_c, 0, 79, 50
2, 15850, Note_on_c, 0, 64, 40
2, 15850, Note_on_c, 0, 70, 36
2, 15861, Control_c, 0, 64, 127
2, 15879, Note_on_c, 0, 79, 0
2, 15886, Note_on_c, 0, 73, 0
2, 15895, Note_on_c, 0, 70, 0
2, 15898, Note_on_c, 0, 64, 0
2, 15908, Note_on_c, 0, 61, 45
2, 15924, Control_c, 0, 64, 0
2, 15933, Note_on_c, 0, 61, 0
2, 15944, Note_on_c, 0, 77, 60
2, 15945, Note_on_c, 0, 62, 53
2, 15945, Control_c, 0, 64, 127
2, 15948, Note_on_c, 0, 69, 36
2, 15950, Note_on_c, 0, 72, 46
2, 15967, Note_on_c, 0, 72, 0
2, 15970, Note_on_c, 0, 77, 0
2, 15971, Note_on_c, 0, 69, 0
2, 15988, Note_on_c, 0, 62, 0
2, 16000, Note_on_c, 0, 70, 49
2, 16001, Note_on_c, 0, 73, 37
2, 16003, Note_on_c, 0, 52, 48
2, 16008, Note_on_c, 0, 64, 20
2, 16019, Note_on_c, 0, 64, 0
2, 16025, Control_c, 0, 64, 0
2, 16026, Note_on_c, 0, 70, 0
2, 16031, Note_on_c, 0, 73, 0
2, 16032, Note_on_c, 0, 52, 0
2, 16040, Note_on_c, 0, 58, 45
2, 16041, Note_on_c, 0, 76, 62
2, 16042, Note_on_c, 0, 70, 39
2, 16044, Note_on_c, 0, 67, 47
2, 16048, Control_c, 0, 64, 127
2, 16067, Note_on_c, 0, 76, 0
2, 16073, Note_on_c, 0, 67, 0
2, 16077, Note_on_c, 0, 58, 0
2, 16078, Note_on_c, 0, 70, 0
2, 16100, Note_on_c, 0, 56, 47
2, 16113, Control_c, 0, 64, 0
2, 16126, Note_on_c, 0, 56, 0
2, 16133, Note_on_c, 0, 74, 63
2, 16135, Control_c, 0, 64, 127
2, 16135, Note_on_c, 0, 65, 52
2, 16136, Note_on_c, 0, 57, 40
2, 16136, Note_on_c, 0, 69, 55
2, 16150, Note_on_c, 0, 69, 0
2, 16155, Note_on_c, 0, 74, 0
2, 16162, Note_on_c, 0, 65, 0
2, 16186, Note_on_c, 0, 57, 0
2, 16190, Note_on_c, 0, 53, 55
2, 16194, Note_on_c, 0, 72, 29
2, 16195, Note_on_c, 0, 65, 40
2, 16195, Note_on_c, 0, 69, 47
2, 16200, Note_on_c, 0, 62, 19
2, 16207, Note_on_c, 0, 62, 0
2, 16207, Control_c, 0, 64, 0
2, 16219, Note_on_c, 0, 72, 0
2, 16220, Note_on_c, 0, 69, 0
2, 16226, Note_on_c, 0, 65, 0
2, 16226, Note_on_c, 0, 53, 0
2, 16230, Note_on_c, 0, 50, 46
2, 16232, Control_c, 0, 64, 127
2, 16238, Note_on_c, 0, 60, 17
2, 16245, Note_on_c, 0, 60, 0
2, 16261, Note_on_c, 0, 50, 0
2, 16286, Note_on_c, 0, 65, 58
2, 16286, Note_on_c, 0, 69, 60
2, 16287, Note_on_c, 0, 60, 59
2, 16288, Note_on_c, 0, 53, 56
2, 16290, Control_c, 0, 64, 0
2, 16323, Control_c, 0, 64, 127
2, 16379, Note_on_c, 0, 43, 49
2, 16396, Note_on_c, 0, 43, 0
2, 16421, Note_on_c, 0, 43, 44
2, 16423, Note_on_c, 0, 69, 0
2, 16425, Note_on_c, 0, 60, 0
2, 16428, Note_on_c, 0, 53, 0
2, 16436, Note_on_c, 0, 65, 0
2, 16481, Control_c, 0, 64, 0
2, 16482, Note_on_c, 0, 68, 44
2, 16485, Note_on_c, 0, 53, 47
2, 16486, Note_on_c, 0, 63, 37
2, 16486, Note_on_c, 0, 59, 38
2, 16486, Note_on_c, 0, 65, 36
2, 16516, Control_c, 0, 64, 127
2, 16530, Note_on_c, 0, 68, 0
2, 16533, Note_on_c, 0, 43, 0
2, 16540, Note_on_c, 0, 59, 0
2, 16555, Note_on_c, 0, 65, 0
2, 16557, Note_on_c, 0, 63, 0
2, 16568, Note_on_c, 0, 43, 62
2, 16571, Note_on_c, 0, 63, 26
2, 16573, Note_on_c, 0, 70, 50
2, 16577, Note_on_c, 0, 65, 24
2, 16584, Control_c, 0, 64, 0
2, 16589, Note_on_c, 0, 53, 0
2, 16590, Note_on_c, 0, 43, 0
2, 16593, Note_on_c, 0, 65, 0
2, 16597, Note_on_c, 0, 63, 0
2, 16597, Note_on_c, 0, 70, 0
2, 16602, Control_c, 0, 64, 127
2, 16607, Note_on_c, 0, 43, 36
2, 16665, Note_on_c, 0, 67, 58
2, 16666, Control_c, 0, 64, 0
2, 16667, Note_on_c, 0, 62, 50
2, 16668, Note_on_c, 0, 57, 40
2, 16668, Note_on_c, 0, 52, 36
2, 16693, Control_c, 0, 64, 127
2, 16707, Note_on_c, 0, 43, 0
2, 16717, Note_on_c, 0, 57, 0
2, 16724, Note_on_c, 0, 67, 0
2, 16732, Note_on_c, 0, 62, 0
2, 16755, Note_on_c, 0, 43, 50
2, 16757, Note_on_c, 0, 67, 59
2, 16772, Note_on_c, 0, 43, 0
2, 16778, Note_on_c, 0, 67, 0
2, 16800, Note_on_c, 0, 67, 64
2, 16801, Note_on_c, 0, 43, 52
2, 16816, Note_on_c, 0, 43, 0
2, 16816, Note_on_c, 0, 67, 0
2, 16837, Note_on_c, 0, 52, 0
2, 16850, Note_on_c, 0, 43, 61
2, 16856, Note_on_c, 0, 67, 80
2, 16865, Note_on_c, 0, 43, 0
2, 16873, Note_on_c, 0, 67, 0
2, 16895, Control_c, 0, 64, 0
2, 16898, Note_on_c, 0, 55, 74
2, 16899, Note_on_c, 0, 45, 70
2, 16899, Note_on_c, 0, 70, 70
2, 16901, Note_on_c, 0, 66, 72
2, 16901, Note_on_c, 0, 61, 76
2, 16942, Note_on_c, 0, 61, 0
2, 16942, Note_on_c, 0, 45, 0
2, 16943, Note_on_c, 0, 55, 0
2, 16944, Note_on_c, 0, 70, 0
2, 16944, Note_on_c, 0, 66, 0
2, 16953, Control_c, 0, 64, 127
2, 16962, Control_c, 0, 64, 0
2, 16993, Note_on_c, 0, 45, 45
2, 16993, Note_on_c, 0, 70, 57
2, 16994, Note_on_c, 0, 61, 71
2, 16995, Note_on_c, 0, 66, 60
2, 16996, Note_on_c, 0, 55, 45
2, 17012, Control_c, 0, 64, 127
2, 17032, Note_on_c, 0, 45, 0
2, 17054, Note_on_c, 0, 61, 0
2, 17055, Note_on_c, 0, 66, 0
2, 17057, Note_on_c, 0, 70, 0
2, 17074, Control_c, 0, 64, 0
2, 17079, Note_on_c, 0, 55, 0
2, 17088, Note_on_c, 0, 54, 46
2, 17088, Note_on_c, 0, 69, 49
2, 17091, Note_on_c, 0, 65, 47
2, 17091, Note_on_c, 0, 60, 41
2, 17101, Control_c, 0, 64, 127
2, 17135, Note_on_c, 0, 65, 0
2, 17137, Note_on_c, 0, 60, 0
2, 17141, Note_on_c, 0, 69, 0
2, 17144, Note_on_c, 0, 54, 0
2, 17164, Control_c, 0, 64, 0
2, 17169, Control_c, 0, 64, 127
2, 17180, Note_on_c, 0, 54, 38
2, 17181, Note_on_c, 0, 60, 33
2, 17184, Note_on_c, 0, 65, 34
2, 17187, Note_on_c, 0, 69, 20
2, 17198, Note_on_c, 0, 69, 0
2, 17201, Note_on_c, 0, 60, 0
2, 17202, Note_on_c, 0, 65, 0
2, 17237, Note_on_c, 0, 54, 0
2, 17242, Note_on_c, 0, 68, 46
2, 17243, Note_on_c, 0, 53, 45
2, 17244, Note_on_c, 0, 59, 45
2, 17245, Note_on_c, 0, 64, 46
2, 17247, Control_c, 0, 64, 0
2, 17257, Note_on_c, 0, 59, 0
2, 17268, Control_c, 0, 64, 127
2, 17269, Note_on_c, 0, 64, 0
2, 17310, Note_on_c, 0, 64, 64
2, 17326, Note_on_c, 0, 64, 0
2, 17339, Note_on_c, 0, 68, 0
2, 17339, Note_on_c, 0, 64, 65
2, 17346, Note_on_c, 0, 53, 0
2, 17359, Note_on_c, 0, 64, 0
2, 17373, Note_on_c, 0, 65, 64
2, 17388, Note_on_c, 0, 65, 0
2, 17403, Note_on_c, 0, 65, 54
2, 17416, Note_on_c, 0, 65, 0
2, 17434, Note_on_c, 0, 67, 78
2, 17453, Note_on_c, 0, 67, 0
2, 17464, Control_c, 0, 64, 0
2, 17469, Note_on_c, 0, 43, 37
2, 17470, Note_on_c, 0, 36, 37
2, 17471, Note_on_c, 0, 72, 82
2, 17472, Note_on_c, 0, 52, 51
2, 17479, Note_on_c, 0, 36, 0
2, 17487, Control_c, 0, 64, 127
2, 17492, Note_on_c, 0, 43, 0
2, 17496, Note_on_c, 0, 52, 0
2, 17568, Note_on_c, 0, 64, 24
2, 17571, Note_on_c, 0, 59, 34
2, 17571, Note_on_c, 0, 60, 31
2, 17599, Note_on_c, 0, 60, 0
2, 17607, Note_on_c, 0, 59, 0
2, 17609, Note_on_c, 0, 64, 0
2, 17641, Note_on_c, 0, 72, 0
2, 17664, Note_on_c, 0, 72, 71
2, 17738, Note_on_c, 0, 72, 0
2, 17760, Note_on_c, 0, 67, 37
2, 17763, Control_c, 0, 64, 0
2, 17763, Note_on_c, 0, 64, 34
2, 17763, Note_on_c, 0, 62, 33
2, 17764, Note_on_c, 0, 55, 27
2, 17783, Control_c, 0, 64, 127
2, 17795, Note_on_c, 0, 67, 0
2, 17796, Note_on_c, 0, 64, 0
2, 17799, Note_on_c, 0, 55, 0
2, 17805, Note_on_c, 0, 62, 0
2, 17857, Note_on_c, 0, 52, 36
2, 17859, Control_c, 0, 64, 0
2, 17861, Note_on_c, 0, 59, 15
2, 17861, Note_on_c, 0, 64, 30
2, 17886, Control_c, 0, 64, 127
2, 17901, Note_on_c, 0, 64, 0
2, 17903, Note_on_c, 0, 59, 0
2, 17916, Note_on_c, 0, 65, 55
2, 17937, Note_on_c, 0, 65, 0
2, 17947, Note_on_c, 0, 52, 0
2, 17950, Note_on_c, 0, 67, 70
2, 17970, Note_on_c, 0, 67, 0
2, 18013, Note_on_c, 0, 48, 50
2, 18013, Note_on_c, 0, 72, 64
2, 18019, Control_c, 0, 64, 0
2, 18028, Note_on_c, 0, 58, 8
2, 18069, Note_on_c, 0, 64, 43
2, 18072, Note_on_c, 0, 72, 0
2, 18087, Note_on_c, 0, 64, 0
2, 18092, Control_c, 0, 64, 127
2, 18096, Note_on_c, 0, 66, 32
2, 18122, Note_on_c, 0, 68, 43
2, 18124, Note_on_c, 0, 66, 0
2, 18143, Note_on_c, 0, 68, 0
2, 18145, Note_on_c, 0, 48, 0
2, 18148, Note_on_c, 0, 72, 59
2, 18156, Note_on_c, 0, 72, 0
2, 18166, Note_on_c, 0, 58, 0
2, 18177, Note_on_c, 0, 75, 35
2, 18182, Control_c, 0, 64, 0
2, 18193, Note_on_c, 0, 75, 0
2, 18204, Note_on_c, 0, 76, 57
2, 18204, Control_c, 0, 64, 127
2, 18224, Note_on_c, 0, 76, 0
2, 18227, Note_on_c, 0, 79, 67
2, 18238, Control_c, 0, 64, 0
2, 18241, Note_on_c, 0, 53, 29
2, 18244, Note_on_c, 0, 60, 36
2, 18245, Note_on_c, 0, 64, 19
2, 18248, Note_on_c, 0, 79, 0
2, 18251, Note_on_c, 0, 76, 41
2, 18267, Note_on_c, 0, 76, 0
2, 18282, Note_on_c, 0, 72, 35
2, 18299, Note_on_c, 0, 72, 0
2, 18308, Note_on_c, 0, 69, 44
2, 18316, Note_on_c, 0, 69, 0
2, 18395, Note_on_c, 0, 91, 88
2, 18419, Note_on_c, 0, 91, 0
2, 18461, Note_on_c, 0, 88, 79
2, 18476, Note_on_c, 0, 88, 0
2, 18483, Control_c, 0, 64, 127
2, 18487, Note_on_c, 0, 84, 63
2, 18508, Note_on_c, 0, 84, 0
2, 18519, Note_on_c, 0, 81, 58
2, 18534, Note_on_c, 0, 81, 0
2, 18547, Note_on_c, 0, 79, 46
2, 18560, Note_on_c, 0, 64, 0
2, 18566, Note_on_c, 0, 79, 0
2, 18579, Note_on_c, 0, 53, 0
2, 18581, Note_on_c, 0, 76, 45
2, 18594, Note_on_c, 0, 60, 0
2, 18601, Note_on_c, 0, 76, 0
2, 18606, Control_c, 0, 64, 0
2, 18612, Note_on_c, 0, 79, 58
2, 18613, Note_on_c, 0, 60, 22
2, 18614, Note_on_c, 0, 53, 28
2, 18635, Note_on_c, 0, 79, 0
2, 18670, Note_on_c, 0, 77, 67
2, 18700, Note_on_c, 0, 77, 0
2, 18707, Note_on_c, 0, 73, 39
2, 18736, Note_on_c, 0, 73, 0
2, 18761, Note_on_c, 0, 76, 90
2, 18785, Note_on_c, 0, 76, 0
2, 18800, Note_on_c, 0, 74, 62
2, 18827, Note_on_c, 0, 53, 0
2, 18830, Control_c, 0, 64, 127
2, 18841, Note_on_c, 0, 74, 0
2, 18853, Note_on_c, 0, 69, 56
2, 18854, Note_on_c, 0, 53, 39
2, 18870, Note_on_c, 0, 60, 0
2, 18871, Note_on_c, 0, 69, 0
2, 18888, Note_on_c, 0, 53, 0
2, 18892, Note_on_c, 0, 65, 45
2, 18937, Note_on_c, 0, 65, 0
2, 18948, Note_on_c, 0, 52, 37
2, 18982, Control_c, 0, 64, 0
2, 18983, Note_on_c, 0, 52, 0
2, 18985, Note_on_c, 0, 62, 68
2, 18986, Note_on_c, 0, 60, 56
2, 18988, Note_on_c, 0, 55, 34
2, 18990, Note_on_c, 0, 45, 30
2, 18996, Note_on_c, 0, 60, 0
2, 19007, Note_on_c, 0, 62, 0
2, 19042, Note_on_c, 0, 55, 0
2, 19042, Note_on_c, 0, 60, 55
2, 19044, Note_on_c, 0, 62, 55
2, 19057, Note_on_c, 0, 60, 0
2, 19060, Note_on_c, 0, 62, 0
2, 19087, Note_on_c, 0, 60, 43
2, 19088, Note_on_c, 0, 62, 43
2, 19097, Note_on_c, 0, 62, 0
2, 19097, Note_on_c, 0, 60, 0
2, 19140, Note_on_c, 0, 62, 65
2, 19142, Note_on_c, 0, 60, 55
2, 19145, Note_on_c, 0, 55, 48
2, 19149, Note_on_c, 0, 60, 0
2, 19151, Note_on_c, 0, 62, 0
2, 19185, Note_on_c, 0, 62, 56
2, 19187, Note_on_c, 0, 60, 39
2, 19194, Note_on_c, 0, 60, 0
2, 19194, Note_on_c, 0, 62, 0
2, 19227, Note_on_c, 0, 45, 0
2, 19241, Note_on_c, 0, 55, 0
2, 19241, Note_on_c, 0, 62, 63
2, 19241, Note_on_c, 0, 52, 43
2, 19241, Note_on_c, 0, 60, 57
2, 19250, Note_on_c, 0, 60, 0
2, 19250, Note_on_c, 0, 52, 0
2, 19250, Note_on_c, 0, 62, 0
2, 19281, Note_on_c, 0, 60, 51
2, 19282, Note_on_c, 0, 62, 57
2, 19289, Note_on_c, 0, 60, 0
2, 19296, Note_on_c, 0, 62, 0
2, 19305, Control_c, 0, 64, 127
2, 19336, Note_on_c, 0, 45, 65
2, 19337, Control_c, 0, 64, 0
2, 19353, Note_on_c, 0, 45, 0
2, 19371, Note_on_c, 0, 38, 50
2, 19385, Note_on_c, 0, 38, 0
2, 19409, Note_on_c, 0, 90, 34
2, 19415, Note_on_c, 0, 90, 0
2, 19420, Note_on_c, 0, 94, 55
2, 19424, Control_c, 0, 64, 127
2, 19433, Control_c, 0, 64, 0
2, 19435, Control_c, 0, 64, 127
2, 19435, Note_on_c, 0, 90, 39
2, 19436, Control_c, 0, 64, 0
2, 19445, Note_on_c, 0, 94, 0
2, 19452, Note_on_c, 0, 90, 0
2, 19453, Note_on_c, 0, 89, 56
2, 19462, Note_on_c, 0, 89, 0
2, 19475, Note_on_c, 0, 87, 53
2, 19499, Note_on_c, 0, 87, 0
2, 19500, Note_on_c, 0, 86, 37
2, 19508, Note_on_c, 0, 86, 0
2, 19512, Note_on_c, 0, 84, 65
2, 19526, Note_on_c, 0, 84, 0
2, 19538, Note_on_c, 0, 82, 50
2, 19552, Note_on_c, 0, 78, 35
2, 19562, Note_on_c, 0, 82, 0
2, 19569, Note_on_c, 0, 54, 35
2, 19572, Note_on_c, 0, 78, 0
2, 19573, Note_on_c, 0, 60, 30
2, 19580, Note_on_c, 0, 76, 38
2, 19591, Note_on_c, 0, 76, 0
2, 19594, Note_on_c, 0, 75, 29
2, 19600, Note_on_c, 0, 75, 0
2, 19607, Note_on_c, 0, 74, 30
2, 19626, Note_on_c, 0, 74, 0
2, 19627, Note_on_c, 0, 73, 38
2, 19639, Note_on_c, 0, 73, 0
2, 19652, Note_on_c, 0, 71, 58
2, 19668, Note_on_c, 0, 60, 0
2, 19670, Note_on_c, 0, 71, 0
2, 19671, Note_on_c, 0, 54, 0
2, 19675, Note_on_c, 0, 70, 34
2, 19678, Control_c, 0, 64, 127
2, 19681, Note_on_c, 0, 70, 0
2, 19698, Note_on_c, 0, 69, 34
2, 19708, Note_on_c, 0, 69, 0
2, 19718, Note_on_c, 0, 67, 44
2, 19729, Control_c, 0, 64, 0
2, 19730, Note_on_c, 0, 61, 38
2, 19731, Note_on_c, 0, 65, 46
2, 19732, Note_on_c, 0, 67, 0
2, 19732, Note_on_c, 0, 55, 36
2, 19734, Note_on_c, 0, 56, 37
2, 19739, Note_on_c, 0, 68, 43
2, 19792, Note_on_c, 0, 70, 48
2, 19799, Note_on_c, 0, 68, 0
2, 19811, Note_on_c, 0, 70, 0
2, 19814, Control_c, 0, 64, 127
2, 19820, Note_on_c, 0, 72, 60
2, 19821, Control_c, 0, 64, 0
2, 19835, Note_on_c, 0, 72, 0
2, 19847, Note_on_c, 0, 74, 63
2, 19860, Note_on_c, 0, 74, 0
2, 19876, Note_on_c, 0, 75, 71
2, 19890, Note_on_c, 0, 75, 0
2, 19895, Control_c, 0, 64, 127
2, 19902, Note_on_c, 0, 77, 72
2, 19908, Note_on_c, 0, 65, 0
2, 19919, Note_on_c, 0, 61, 0
2, 19921, Note_on_c, 0, 77, 0
2, 19921, Note_on_c, 0, 55, 0
2, 19922, Note_on_c, 0, 56, 0
2, 19931, Note_on_c, 0, 79, 70
2, 19948, Note_on_c, 0, 79, 0
2, 19959, Note_on_c, 0, 80, 67
2, 19980, Note_on_c, 0, 80, 0
2, 19988, Note_on_c, 0, 82, 61
2, 20005, Note_on_c, 0, 82, 0
2, 20022, Note_on_c, 0, 84, 68
2, 20041, Note_on_c, 0, 84, 0
2, 20051, Note_on_c, 0, 86, 76
2, 20066, Control_c, 0, 64, 0
2, 20069, Note_on_c, 0, 86, 0
2, 20080, Note_on_c, 0, 41, 71
2, 20082, Note_on_c, 0, 87, 76
2, 20090, Control_c, 0, 64, 127
2, 20092, Note_on_c, 0, 41, 0
2, 20102, Note_on_c, 0, 87, 0
2, 20110, Note_on_c, 0, 89, 71
2, 20128, Note_on_c, 0, 89, 0
2, 20142, Note_on_c, 0, 91, 73
2, 20158, Note_on_c, 0, 91, 0
2, 20160, Control_c, 0, 64, 0
2, 20169, Note_on_c, 0, 92, 79
2, 20170, Note_on_c, 0, 46, 58
2, 20171, Note_on_c, 0, 56, 67
2, 20180, Control_c, 0, 64, 127
2, 20183, Note_on_c, 0, 56, 0
2, 20183, Note_on_c, 0, 46, 0
2, 20191, Note_on_c, 0, 92, 0
2, 20199, Note_on_c, 0, 94, 61
2, 20215, Note_on_c, 0, 94, 0
2, 20229, Note_on_c, 0, 96, 81
2, 20245, Note_on_c, 0, 96, 0
2, 20262, Note_on_c, 0, 98, 88
2, 20264, Note_on_c, 0, 62, 79
2, 20264, Note_on_c, 0, 67, 91
2, 20265, Note_on_c, 0, 56, 73
2, 20280, Note_on_c, 0, 98, 0
2, 20293, Note_on_c, 0, 99, 76
2, 20304, Note_on_c, 0, 67, 0
2, 20315, Note_on_c, 0, 62, 0
2, 20315, Note_on_c, 0, 99, 0
2, 20324, Note_on_c, 0, 56, 0
2, 20327, Note_on_c, 0, 100, 58
2, 20328, Note_on_c, 0, 101, 57
2, 20340, Note_on_c, 0, 101, 0
2, 20343, Note_on_c, 0, 100, 0
2, 20357, Note_on_c, 0, 102, 77
2, 20381, Note_on_c, 0, 102, 0
2, 20386, Note_on_c, 0, 103, 68
2, 20405, Note_on_c, 0, 103, 0
2, 20417, Note_on_c, 0, 105, 64
2, 20418, Note_on_c, 0, 103, 60
2, 20433, Note_on_c, 0, 103, 0
2, 20435, Note_on_c, 0, 105, 0
2, 20446, Note_on_c, 0, 108, 68
2, 20446, Note_on_c, 0, 107, 70
2, 20466, Note_on_c, 0, 108, 0
2, 20467, Note_on_c, 0, 107, 0
2, 20474, Control_c, 0, 64, 0
2, 20476, Note_on_c, 0, 39, 59
2, 20477, Note_on_c, 0, 106, 72
2, 20477, Note_on_c, 0, 46, 57
2, 20491, Note_on_c, 0, 106, 0
2, 20492, Control_c, 0, 64, 127
2, 20499, Note_on_c, 0, 39, 0
2, 20582, Note_on_c, 0, 70, 76
2, 20582, Note_on_c, 0, 55, 77
2, 20584, Note_on_c, 0, 65, 72
2, 20584, Note_on_c, 0, 60, 80
2, 20592, Control_c, 0, 64, 0
2, 20604, Control_c, 0, 64, 127
2, 20638, Note_on_c, 0, 55, 0
2, 20640, Note_on_c, 0, 60, 0
2, 20647, Note_on_c, 0, 65, 0
2, 20656, Note_on_c, 0, 70, 0
2, 20674, Note_on_c, 0, 46, 0
2, 20677, Note_on_c, 0, 44, 59
2, 20678, Control_c, 0, 64, 0
2, 20678, Note_on_c, 0, 70, 77
2, 20679, Note_on_c, 0, 65, 83
2, 20680, Note_on_c, 0, 54, 74
2, 20680, Note_on_c, 0, 60, 79
2, 20713, Control_c, 0, 64, 127
2, 20758, Note_on_c, 0, 65, 0
2, 20762, Note_on_c, 0, 54, 0
2, 20762, Note_on_c, 0, 60, 0
2, 20769, Note_on_c, 0, 51, 18
2, 20780, Note_on_c, 0, 54, 42
2, 20784, Note_on_c, 0, 65, 37
2, 20785, Note_on_c, 0, 60, 45
2, 20794, Note_on_c, 0, 65, 0
2, 20794, Note_on_c, 0, 70, 0
2, 20797, Note_on_c, 0, 51, 0
2, 20804, Note_on_c, 0, 60, 0
2, 20833, Note_on_c, 0, 54, 0
2, 20845, Note_on_c, 0, 44, 0
2, 20853, Control_c, 0, 64, 0
2, 20854, Note_on_c, 0, 43, 55
2, 20854, Note_on_c, 0, 62, 58
2, 20855, Note_on_c, 0, 53, 51
2, 20855, Note_on_c, 0, 58, 35
2, 20882, Control_c, 0, 64, 127
2, 20919, Note_on_c, 0, 62, 0
2, 20921, Note_on_c, 0, 58, 0
2, 20921, Note_on_c, 0, 53, 0
2, 20951, Note_on_c, 0, 67, 68
2, 20952, Note_on_c, 0, 53, 61
2, 20952, Note_on_c, 0, 58, 59
2, 20954, Note_on_c, 0, 62, 62
2, 20956, Note_on_c, 0, 43, 0
2, 20979, Note_on_c, 0, 58, 0
2, 20983, Note_on_c, 0, 53, 0
2, 20984, Note_on_c, 0, 62, 0
2, 20992, Control_c, 0, 64, 0
2, 20994, Note_on_c, 0, 68, 50
2, 20994, Note_on_c, 0, 55, 55
2, 20996, Note_on_c, 0, 58, 38
2, 21007, Note_on_c, 0, 67, 0
2, 21009, Note_on_c, 0, 68, 0
2, 21010, Control_c, 0, 64, 127
2, 21021, Note_on_c, 0, 58, 0
2, 21023, Control_c, 0, 64, 0
2, 21030, Note_on_c, 0, 55, 0
2, 21047, Note_on_c, 0, 70, 58
2, 21050, Control_c, 0, 64, 127
2, 21052, Note_on_c, 0, 58, 23
2, 21061, Note_on_c, 0, 70, 0
2, 21066, Note_on_c, 0, 58, 0
2, 21092, Control_c, 0, 64, 0
2, 21096, Note_on_c, 0, 75, 53
2, 21096, Note_on_c, 0, 63, 76
2, 21097, Note_on_c, 0, 68, 60
2, 21099, Note_on_c, 0, 64, 64
2, 21099, Note_on_c, 0, 72, 55
2, 21106, Note_on_c, 0, 64, 0
2, 21111, Note_on_c, 0, 63, 0
2, 21112, Note_on_c, 0, 68, 0
2, 21117, Note_on_c, 0, 75, 0
2, 21118, Note_on_c, 0, 72, 0
2, 21148, Note_on_c, 0, 75, 57
2, 21148, Note_on_c, 0, 63, 70
2, 21148, Note_on_c, 0, 68, 70
2, 21150, Note_on_c, 0, 64, 69
2, 21151, Note_on_c, 0, 72, 52
2, 21158, Note_on_c, 0, 64, 0
2, 21163, Note_on_c, 0, 68, 0
2, 21165, Note_on_c, 0, 75, 0
2, 21166, Note_on_c, 0, 63, 0
2, 21167, Note_on_c, 0, 72, 0
2, 21202, Note_on_c, 0, 75, 64
2, 21203, Note_on_c, 0, 63, 71
2, 21205, Note_on_c, 0, 68, 62
2, 21205, Control_c, 0, 64, 127
2, 21206, Note_on_c, 0, 64, 63
2, 21208, Note_on_c, 0, 72, 40
2, 21216, Note_on_c, 0, 64, 0
2, 21218, Note_on_c, 0, 72, 0
2, 21220, Note_on_c, 0, 68, 0
2, 21225, Note_on_c, 0, 63, 0
2, 21225, Control_c, 0, 64, 0
2, 21228, Note_on_c, 0, 75, 0
2, 21236, Note_on_c, 0, 55, 49
2, 21241, Control_c, 0, 64, 127
2, 21269, Note_on_c, 0, 55, 0
2, 21275, Note_on_c, 0, 70, 56
2, 21277, Note_on_c, 0, 63, 51
2, 21278, Note_on_c, 0, 60, 62
2, 21279, Control_c, 0, 64, 0
2, 21280, Note_on_c, 0, 58, 69
2, 21280, Note_on_c, 0, 67, 53
2, 21319, Control_c, 0, 64, 127
2, 21374, Note_on_c, 0, 60, 0
2, 21384, Note_on_c, 0, 46, 43
2, 21389, Control_c, 0, 64, 0
2, 21408, Control_c, 0, 64, 127
2, 21426, Note_on_c, 0, 67, 0
2, 21433, Note_on_c, 0, 63, 0
2, 21445, Note_on_c, 0, 58, 0
2, 21473, Note_on_c, 0, 70, 0
2, 21482, Note_on_c, 0, 67, 51
2, 21482, Note_on_c, 0, 56, 38
2, 21483, Control_c, 0, 64, 0
2, 21484, Note_on_c, 0, 63, 33
2, 21486, Note_on_c, 0, 60, 33
2, 21516, Control_c, 0, 64, 127
2, 21545, Note_on_c, 0, 46, 0
2, 21569, Note_on_c, 0, 67, 0
2, 21573, Note_on_c, 0, 46, 38
2, 21583, Note_on_c, 0, 63, 0
2, 21584, Note_on_c, 0, 60, 0
2, 21601, Note_on_c, 0, 56, 0
2, 21640, Note_on_c, 0, 64, 47
2, 21642, Note_on_c, 0, 62, 31
2, 21643, Note_on_c, 0, 59, 34
2, 21643, Note_on_c, 0, 56, 34
2, 21646, Control_c, 0, 64, 0
2, 21682, Control_c, 0, 64, 127
2, 21707, Note_on_c, 0, 46, 0
2, 21732, Note_on_c, 0, 46, 48
2, 21761, Note_on_c, 0, 46, 0
2, 21763, Note_on_c, 0, 59, 0
2, 21778, Note_on_c, 0, 46, 38
2, 21779, Note_on_c, 0, 62, 0
2, 21791, Note_on_c, 0, 64, 0
2, 21793, Note_on_c, 0, 56, 0
2, 21813, Note_on_c, 0, 46, 0
2, 21837, Note_on_c, 0, 68, 70
2, 21838, Note_on_c, 0, 56, 69
2, 21841, Note_on_c, 0, 46, 50
2, 21844, Control_c, 0, 64, 0
2, 21871, Control_c, 0, 64, 127
2, 21895, Note_on_c, 0, 56, 0
2, 21904, Note_on_c, 0, 68, 0
2, 21910, Note_on_c, 0, 46, 0
2, 21927, Note_on_c, 0, 46, 40
2, 21931, Note_on_c, 0, 70, 62
2, 21932, Note_on_c, 0, 58, 64
2, 21949, Note_on_c, 0, 58, 0
2, 21949, Note_on_c, 0, 70, 0
2, 21973, Note_on_c, 0, 72, 62
2, 21976, Note_on_c, 0, 60, 40
2, 21983, Note_on_c, 0, 46, 0
2, 21986, Note_on_c, 0, 60, 0
2, 22002, Note_on_c, 0, 72, 0
2, 22072, Control_c, 0, 64, 0
2, 22073, Note_on_c, 0, 77, 77
2, 22074, Note_on_c, 0, 68, 85
2, 22075, Note_on_c, 0, 75, 57
2, 22075, Note_on_c, 0, 72, 72
2, 22077, Note_on_c, 0, 67, 91
2, 22139, Note_on_c, 0, 65, 40
2, 22141, Note_on_c, 0, 67, 0
2, 22163, Note_on_c, 0, 65, 0
2, 22183, Note_on_c, 0, 63, 60
2, 22184, Control_c, 0, 64, 127
2, 22186, Note_on_c, 0, 72, 0
2, 22205, Note_on_c, 0, 77, 0
2, 22207, Note_on_c, 0, 68, 0
2, 22224, Note_on_c, 0, 75, 0
2, 22245, Note_on_c, 0, 63, 0
2, 22246, Note_on_c, 0, 72, 58
2, 22248, Note_on_c, 0, 68, 45
2, 22248, Note_on_c, 0, 65, 44
2, 22326, Note_on_c, 0, 72, 0
2, 22327, Note_on_c, 0, 65, 0
2, 22333, Note_on_c, 0, 46, 59
2, 22338, Note_on_c, 0, 68, 0
2, 22347, Control_c, 0, 64, 0
2, 22392, Control_c, 0, 64, 127
2, 22422, Control_c, 0, 64, 0
2, 22425, Note_on_c, 0, 71, 49
2, 22425, Note_on_c, 0, 62, 38
2, 22426, Note_on_c, 0, 56, 38
2, 22427, Note_on_c, 0, 67, 52
2, 22453, Control_c, 0, 64, 127
2, 22457, Note_on_c, 0, 62, 0
2, 22463, Note_on_c, 0, 67, 0
2, 22465, Note_on_c, 0, 71, 0
2, 22472, Note_on_c, 0, 56, 0
2, 22482, Note_on_c, 0, 46, 0
2, 22515, Note_on_c, 0, 68, 60
2, 22515, Note_on_c, 0, 53, 54
2, 22517, Note_on_c, 0, 63, 54
2, 22518, Note_on_c, 0, 60, 56
2, 22533, Control_c, 0, 64, 0
2, 22543, Note_on_c, 0, 68, 0
2, 22544, Note_on_c, 0, 60, 0
2, 22548, Note_on_c, 0, 53, 0
2, 22556, Note_on_c, 0, 60, 24
2, 22558, Note_on_c, 0, 70, 56
2, 22558, Note_on_c, 0, 55, 45
2, 22571, Note_on_c, 0, 60, 0
2, 22571, Note_on_c, 0, 63, 0
2, 22576, Control_c, 0, 64, 127
2, 22578, Note_on_c, 0, 70, 0
2, 22578, Control_c, 0, 64, 0
2, 22593, Note_on_c, 0, 55, 0
2, 22614, Note_on_c, 0, 72, 38
2, 22615, Note_on_c, 0, 56, 51
2, 22617, Control_c, 0, 64, 127
2, 22622, Note_on_c, 0, 72, 0
2, 22628, Note_on_c, 0, 56, 0
2, 22648, Control_c, 0, 64, 0
2, 22661, Note_on_c, 0, 77, 64
2, 22662, Note_on_c, 0, 56, 57
2, 22666, Note_on_c, 0, 67, 33
2, 22674, Note_on_c, 0, 67, 0
2, 22678, Note_on_c, 0, 56, 0
2, 22689, Note_on_c, 0, 77, 0
2, 22722, Note_on_c, 0, 77, 48
2, 22722, Note_on_c, 0, 56, 56
2, 22724, Note_on_c, 0, 71, 51
2, 22724, Note_on_c, 0, 65, 47
2, 22726, Note_on_c, 0, 74, 38
2, 22736, Note_on_c, 0, 65, 0
2, 22739, Note_on_c, 0, 74, 0
2, 22740, Note_on_c, 0, 71, 0
2, 22745, Note_on_c, 0, 77, 0
2, 22749, Note_on_c, 0, 56, 0
2, 22760, Control_c, 0, 64, 127
2, 22782, Control_c, 0, 64, 0
2, 22785, Note_on_c, 0, 46, 52
2, 22792, Control_c, 0, 64, 127
2, 22808, Note_on_c, 0, 46, 0
2, 22854, Control_c, 0, 64, 0
2, 22854, Note_on_c, 0, 58, 55
2, 22858, Note_on_c, 0, 62, 49
2, 22858, Note_on_c, 0, 67, 46
2, 22859, Note_on_c, 0, 55, 35
2, 22860, Note_on_c, 0, 39, 38
2, 22868, Note_on_c, 0, 39, 0
2, 22886, Control_c, 0, 64, 127
2, 22928, Control_c, 0, 64, 0
2, 22934, Note_on_c, 0, 55, 0
2, 22953, Note_on_c, 0, 58, 0
2, 22964, Control_c, 0, 64, 127
2, 22966, Note_on_c, 0, 62, 0
2, 22966, Note_on_c, 0, 46, 34
2, 23018, Note_on_c, 0, 46, 0
2, 23024, Note_on_c, 0, 58, 56
2, 23024, Note_on_c, 0, 62, 52
2, 23024, Note_on_c, 0, 53, 45
2, 23025, Note_on_c, 0, 55, 53
2, 23029, Control_c, 0, 64, 0
2, 23098, Control_c, 0, 64, 127
2, 23099, Note_on_c, 0, 53, 0
2, 23116, Note_on_c, 0, 49, 52
2, 23135, Control_c, 0, 64, 0
2, 23150, Note_on_c, 0, 49, 0
2, 23156, Note_on_c, 0, 48, 46
2, 23161, Control_c, 0, 64, 127
2, 23162, Note_on_c, 0, 55, 0
2, 23162, Note_on_c, 0, 67, 0
2, 23173, Note_on_c, 0, 62, 0
2, 23184, Note_on_c, 0, 58, 0
2, 23208, Note_on_c, 0, 48, 0
2, 23213, Note_on_c, 0, 56, 46
2, 23213, Note_on_c, 0, 61, 50
2, 23215, Control_c, 0, 64, 0
2, 23217, Note_on_c, 0, 46, 42
2, 23240, Control_c, 0, 64, 127
2, 23243, Note_on_c, 0, 56, 0
2, 23252, Note_on_c, 0, 61, 0
2, 23264, Note_on_c, 0, 55, 45
2, 23267, Control_c, 0, 64, 0
2, 23282, Note_on_c, 0, 55, 0
2, 23284, Note_on_c, 0, 56, 42
2, 23308, Note_on_c, 0, 56, 0
2, 23318, Note_on_c, 0, 58, 51
2, 23333, Note_on_c, 0, 58, 0
2, 23334, Note_on_c, 0, 46, 0
2, 23345, Note_on_c, 0, 60, 62
2, 23357, Note_on_c, 0, 60, 0
2, 23374, Note_on_c, 0, 61, 53
2, 23386, Note_on_c, 0, 61, 0
2, 23403, Note_on_c, 0, 63, 48
2, 23417, Note_on_c, 0, 63, 0
2, 23438, Note_on_c, 0, 64, 26
2, 23446, Note_on_c, 0, 64, 0
2, 23463, Note_on_c, 0, 69, 60
2, 23480, Note_on_c, 0, 69, 0
2, 23491, Note_on_c, 0, 73, 58
2, 23505, Note_on_c, 0, 73, 0
2, 23523, Note_on_c, 0, 76, 57
2, 23538, Note_on_c, 0, 76, 0
2, 23551, Note_on_c, 0, 81, 58
2, 23561, Control_c, 0, 64, 127
2, 23567, Note_on_c, 0, 81, 0
2, 23577, Note_on_c, 0, 85, 70
2, 23595, Note_on_c, 0, 85, 0
2, 23598, Control_c, 0, 64, 0
2, 23603, Note_on_c, 0, 88, 78
2, 23623, Control_c, 0, 64, 127
2, 23624, Note_on_c, 0, 88, 0
2, 23634, Note_on_c, 0, 87, 50
2, 23686, Note_on_c, 0, 87, 0
2, 23707, Note_on_c, 0, 63, 52
2, 23716, Note_on_c, 0, 56, 25
2, 23718, Note_on_c, 0, 63, 0
2, 23730, Note_on_c, 0, 56, 0
2, 23771, Note_on_c, 0, 84, 66
2, 23773, Note_on_c, 0, 72, 50
2, 23774, Note_on_c, 0, 79, 48
2, 23783, Note_on_c, 0, 72, 0
2, 23789, Note_on_c, 0, 84, 0
2, 23793, Note_on_c, 0, 79, 0
2, 23793, Control_c, 0, 64, 0
2, 23800, Note_on_c, 0, 44, 40
2, 23802, Note_on_c, 0, 55, 40
2, 23807, Note_on_c, 0, 51, 28
2, 23809, Note_on_c, 0, 79, 29
2, 23813, Note_on_c, 0, 72, 20
2, 23815, Note_on_c, 0, 84, 13
2, 23820, Control_c, 0, 64, 127
2, 23846, Note_on_c, 0, 55, 0
2, 23867, Note_on_c, 0, 72, 0
2, 23883, Note_on_c, 0, 51, 0
2, 23884, Note_on_c, 0, 84, 0
2, 23885, Note_on_c, 0, 79, 0
2, 23888, Control_c, 0, 64, 0
2, 23899, Note_on_c, 0, 53, 52
2, 23906, Control_c, 0, 64, 127
2, 23912, Note_on_c, 0, 44, 0
2, 23920, Note_on_c, 0, 53, 0
2, 23961, Note_on_c, 0, 86, 71
2, 23961, Note_on_c, 0, 80, 62
2, 23962, Note_on_c, 0, 74, 63
2, 23971, Control_c, 0, 64, 0
2, 23984, Note_on_c, 0, 62, 33
2, 23985, Note_on_c, 0, 56, 43
2, 23987, Note_on_c, 0, 53, 30
2, 23988, Note_on_c, 0, 60, 38
2, 23993, Control_c, 0, 64, 127
2, 23994, Note_on_c, 0, 74, 0
2, 23995, Note_on_c, 0, 86, 0
2, 24003, Note_on_c, 0, 62, 0
2, 24006, Note_on_c, 0, 53, 0
2, 24010, Note_on_c, 0, 80, 0
2, 24011, Note_on_c, 0, 56, 0
2, 24011, Note_on_c, 0, 60, 0
2, 24048, Note_on_c, 0, 75, 45
2, 24048, Note_on_c, 0, 87, 56
2, 24050, Note_on_c, 0, 80, 42
2, 24060, Note_on_c, 0, 80, 0
2, 24065, Note_on_c, 0, 75, 0
2, 24067, Control_c, 0, 64, 0
2, 24068, Note_on_c, 0, 87, 0
2, 24079, Note_on_c, 0, 63, 45
2, 24080, Note_on_c, 0, 77, 50
2, 24080, Note_on_c, 0, 89, 57
2, 24080, Note_on_c, 0, 67, 42
2, 24081, Note_on_c, 0, 60, 44
2, 24090, Control_c, 0, 64, 127
2, 24123, Note_on_c, 0, 89, 0
2, 24125, Note_on_c, 0, 77, 0
2, 24126, Note_on_c, 0, 67, 0
2, 24133, Note_on_c, 0, 63, 0
2, 24143, Note_on_c, 0, 60, 0
2, 24145, Note_on_c, 0, 89, 63
2, 24146, Note_on_c, 0, 77, 68
2, 24147, Note_on_c, 0, 82, 60
2, 24148, Note_on_c, 0, 86, 57
2, 24152, Control_c, 0, 64, 0
2, 24163, Note_on_c, 0, 67, 50
2, 24165, Note_on_c, 0, 62, 51
2, 24171, Note_on_c, 0, 67, 0
2, 24172, Note_on_c, 0, 56, 18
2, 24177, Control_c, 0, 64, 127
2, 24180, Note_on_c, 0, 62, 0
2, 24185, Note_on_c, 0, 56, 0
2, 24228, Note_on_c, 0, 86, 0
2, 24238, Note_on_c, 0, 82, 0
2, 24244, Note_on_c, 0, 89, 0
2, 24245, Note_on_c, 0, 77, 0
2, 24255, Control_c, 0, 64, 0
2, 24257, Note_on_c, 0, 56, 52
2, 24262, Note_on_c, 0, 46, 34
2, 24273, Control_c, 0, 64, 127
2, 24279, Note_on_c, 0, 46, 0
2, 24284, Note_on_c, 0, 56, 0
2, 24317, Note_on_c, 0, 54, 62
2, 24317, Note_on_c, 0, 44, 56
2, 24322, Note_on_c, 0, 86, 77
2, 24337, Note_on_c, 0, 54, 0
2, 24340, Control_c, 0, 64, 0
2, 24341, Note_on_c, 0, 44, 0
2, 24350, Note_on_c, 0, 91, 74
2, 24351, Note_on_c, 0, 79, 62
2, 24352, Note_on_c, 0, 43, 63
2, 24353, Note_on_c, 0, 86, 65
2, 24354, Note_on_c, 0, 86, 0
2, 24354, Note_on_c, 0, 55, 64
2, 24361, Control_c, 0, 64, 127
2, 24365, Note_on_c, 0, 43, 0
2, 24368, Note_on_c, 0, 55, 0
2, 24421, Note_on_c, 0, 86, 0
2, 24421, Note_on_c, 0, 79, 0
2, 24422, Note_on_c, 0, 91, 0
2, 24450, Note_on_c, 0, 62, 57
2, 24450, Note_on_c, 0, 58, 55
2, 24451, Note_on_c, 0, 55, 50
2, 24489, Note_on_c, 0, 62, 0
2, 24503, Note_on_c, 0, 55, 0
2, 24505, Note_on_c, 0, 58, 0
2, 24511, Note_on_c, 0, 73, 23
2, 24521, Note_on_c, 0, 73, 0
2, 24542, Note_on_c, 0, 72, 74
2, 24542, Note_on_c, 0, 65, 80
2, 24544, Control_c, 0, 64, 0
2, 24544, Note_on_c, 0, 61, 77
2, 24545, Note_on_c, 0, 62, 83
2, 24545, Note_on_c, 0, 69, 60
2, 24563, Note_on_c, 0, 62, 0
2, 24572, Control_c, 0, 64, 127
2, 24583, Note_on_c, 0, 69, 0
2, 24588, Note_on_c, 0, 72, 0
2, 24597, Note_on_c, 0, 65, 0
2, 24614, Note_on_c, 0, 61, 0
2, 24636, Control_c, 0, 64, 0
2, 24643, Note_on_c, 0, 45, 45
2, 24643, Note_on_c, 0, 61, 45
2, 24644, Note_on_c, 0, 55, 45
2, 24644, Note_on_c, 0, 64, 55
2, 24659, Control_c, 0, 64, 127
2, 24678, Note_on_c, 0, 64, 0
2, 24689, Note_on_c, 0, 55, 0
2, 24696, Note_on_c, 0, 45, 0
2, 24699, Note_on_c, 0, 61, 0
2, 24724, Control_c, 0, 64, 0
2, 24738, Note_on_c, 0, 63, 49
2, 24739, Note_on_c, 0, 44, 45
2, 24742, Note_on_c, 0, 51, 43
2, 24749, Control_c, 0, 64, 127
2, 24753, Note_on_c, 0, 63, 0
2, 24755, Note_on_c, 0, 44, 0
2, 24759, Note_on_c, 0, 51, 0
2, 24829, Control_c, 0, 64, 0
2, 24831, Note_on_c, 0, 75, 74
2, 24831, Note_on_c, 0, 68, 82
2, 24833, Note_on_c, 0, 65, 85
2, 24834, Note_on_c, 0, 72, 69
2, 24835, Note_on_c, 0, 60, 80
2, 24854, Control_c, 0, 64, 127
2, 24867, Note_on_c, 0, 72, 0
2, 24871, Note_on_c, 0, 75, 0
2, 24876, Note_on_c, 0, 65, 0
2, 24882, Note_on_c, 0, 68, 0
2, 24914, Note_on_c, 0, 60, 0
2, 24921, Control_c, 0, 64, 0
2, 24925, Note_on_c, 0, 68, 52
2, 24926, Note_on_c, 0, 63, 46
2, 24927, Note_on_c, 0, 56, 46
2, 24928, Note_on_c, 0, 72, 41
2, 24942, Control_c, 0, 64, 127
2, 24943, Note_on_c, 0, 72, 0
2, 24952, Note_on_c, 0, 68, 0
2, 24952, Note_on_c, 0, 63, 0
2, 24990, Note_on_c, 0, 56, 0
2, 25009, Control_c, 0, 64, 0
2, 25016, Note_on_c, 0, 68, 40
2, 25019, Note_on_c, 0, 63, 36
2, 25020, Note_on_c, 0, 53, 32
2, 25031, Control_c, 0, 64, 127
2, 25035, Note_on_c, 0, 53, 0
2, 25047, Note_on_c, 0, 68, 0
2, 25066, Note_on_c, 0, 63, 0
2, 25112, Control_c, 0, 64, 0
2, 25114, Note_on_c, 0, 63, 46
2, 25114, Note_on_c, 0, 67, 50
2, 25116, Note_on_c, 0, 58, 31
2, 25165, Note_on_c, 0, 46, 37
2, 25167, Note_on_c, 0, 34, 40
2, 25179, Note_on_c, 0, 46, 0
2, 25183, Note_on_c, 0, 34, 0
2, 25215, Note_on_c, 0, 46, 37
2, 25216, Note_on_c, 0, 34, 46
2, 25231, Control_c, 0, 64, 127
2, 25279, Note_on_c, 0, 58, 0
2, 25279, Note_on_c, 0, 63, 0
2, 25293, Note_on_c, 0, 67, 0
2, 25309, Control_c, 0, 64, 0
2, 25319, Note_on_c, 0, 34, 0
2, 25320, Note_on_c, 0, 67, 41
2, 25320, Note_on_c, 0, 58, 31
2, 25321, Note_on_c, 0, 64, 49
2, 25322, Note_on_c, 0, 46, 0
2, 25368, Note_on_c, 0, 46, 32
2, 25369, Note_on_c, 0, 34, 35
2, 25383, Note_on_c, 0, 46, 0
2, 25384, Note_on_c, 0, 34, 0
2, 25419, Note_on_c, 0, 34, 50
2, 25420, Note_on_c, 0, 46, 43
2, 25423, Note_on_c, 0, 64, 0
2, 25423, Note_on_c, 0, 67, 0
2, 25423, Control_c, 0, 64, 127
2, 25460, Note_on_c, 0, 58, 0
2, 25505, Control_c, 0, 64, 0
2, 25514, Note_on_c, 0, 67, 54
2, 25516, Note_on_c, 0, 56, 44
2, 25519, Note_on_c, 0, 60, 50
2, 25520, Note_on_c, 0, 63, 34
2, 25524, Control_c, 0, 64, 127
2, 25535, Note_on_c, 0, 46, 0
2, 25539, Note_on_c, 0, 34, 0
2, 25545, Note_on_c, 0, 67, 0
2, 25560, Note_on_c, 0, 56, 0
2, 25567, Note_on_c, 0, 56, 27
2, 25568, Note_on_c, 0, 68, 59
2, 25580, Note_on_c, 0, 60, 0
2, 25585, Note_on_c, 0, 63, 0
2, 25585, Note_on_c, 0, 56, 0
2, 25590, Note_on_c, 0, 68, 0
2, 25603, Control_c, 0, 64, 0
2, 25603, Note_on_c, 0, 34, 68
2, 25605, Note_on_c, 0, 46, 57
2, 25612, Note_on_c, 0, 70, 42
2, 25628, Control_c, 0, 64, 127
2, 25634, Note_on_c, 0, 70, 0
2, 25641, Note_on_c, 0, 46, 0
2, 25642, Note_on_c, 0, 34, 0
2, 25657, Note_on_c, 0, 34, 51
2, 25658, Note_on_c, 0, 46, 51
2, 25685, Note_on_c, 0, 46, 0
2, 25685, Note_on_c, 0, 34, 0
2, 25704, Control_c, 0, 64, 0
2, 25709, Note_on_c, 0, 70, 49
2, 25710, Note_on_c, 0, 62, 56
2, 25711, Note_on_c, 0, 59, 50
2, 25712, Note_on_c, 0, 65, 47
2, 25753, Control_c, 0, 64, 127
2, 25764, Control_c, 0, 64, 0
2, 25766, Note_on_c, 0, 34, 68
2, 25766, Note_on_c, 0, 46, 67
2, 25781, Note_on_c, 0, 46, 0
2, 25782, Note_on_c, 0, 34, 0
2, 25802, Control_c, 0, 64, 127
2, 25834, Control_c, 0, 64, 0
2, 25847, Control_c, 0, 64, 127
2, 25854, Note_on_c, 0, 34, 70
2, 25854, Note_on_c, 0, 46, 74
2, 25861, Note_on_c, 0, 59, 0
2, 25862, Note_on_c, 0, 62, 0
2, 25865, Note_on_c, 0, 65, 0
2, 25870, Note_on_c, 0, 46, 0
2, 25873, Note_on_c, 0, 34, 0
2, 25880, Note_on_c, 0, 70, 0
2, 25936, Note_on_c, 0, 72, 60
2, 25937, Note_on_c, 0, 65, 69
2, 25937, Note_on_c, 0, 43, 81
2, 25937, Note_on_c, 0, 31, 80
2, 25938, Control_c, 0, 64, 0
2, 25968, Control_c, 0, 64, 127
2, 25971, Note_on_c, 0, 31, 0
2, 25983, Note_on_c, 0, 43, 0
2, 25990, Note_on_c, 0, 72, 0
2, 25996, Note_on_c, 0, 65, 0
2, 26015, Note_on_c, 0, 72, 71
2, 26023, Note_on_c, 0, 65, 35
2, 26032, Note_on_c, 0, 65, 0
2, 26046, Note_on_c, 0, 72, 0
2, 26078, Control_c, 0, 64, 0
2, 26079, Note_on_c, 0, 58, 54
2, 26079, Note_on_c, 0, 65, 58
2, 26079, Note_on_c, 0, 72, 43
2, 26082, Note_on_c, 0, 55, 54
2, 26082, Note_on_c, 0, 70, 23
2, 26083, Note_on_c, 0, 71, 48
2, 26091, Note_on_c, 0, 71, 0
2, 26105, Control_c, 0, 64, 127
2, 26167, Note_on_c, 0, 55, 0
2, 26205, Note_on_c, 0, 58, 0
2, 26213, Note_on_c, 0, 65, 0
2, 26245, Note_on_c, 0, 70, 0
2, 26251, Note_on_c, 0, 55, 26
2, 26255, Note_on_c, 0, 72, 0
2, 26264, Note_on_c, 0, 55, 0
2, 26285, Note_on_c, 0, 72, 57
2, 26285, Note_on_c, 0, 63, 59
2, 26288, Note_on_c, 0, 67, 59
2, 26290, Note_on_c, 0, 70, 39
2, 26293, Control_c, 0, 64, 0
2, 26302, Control_c, 0, 64, 127
2, 26321, Note_on_c, 0, 72, 0
2, 26335, Note_on_c, 0, 70, 0
2, 26338, Control_c, 0, 64, 0
2, 26349, Note_on_c, 0, 53, 48
2, 26350, Note_on_c, 0, 74, 64
2, 26371, Control_c, 0, 64, 127
2, 26378, Note_on_c, 0, 74, 0
2, 26396, Note_on_c, 0, 53, 0
2, 26399, Note_on_c, 0, 63, 0
2, 26407, Note_on_c, 0, 67, 0
2, 26416, Note_on_c, 0, 75, 59
2, 26456, Note_on_c, 0, 75, 0
2, 26480, Note_on_c, 0, 63, 39
2, 26482, Note_on_c, 0, 75, 46
2, 26483, Control_c, 0, 64, 0
2, 26483, Note_on_c, 0, 58, 38
2, 26485, Note_on_c, 0, 53, 32
2, 26511, Control_c, 0, 64, 127
2, 26542, Note_on_c, 0, 58, 0
2, 26554, Note_on_c, 0, 57, 55
2, 26614, Note_on_c, 0, 53, 0
2, 26648, Note_on_c, 0, 63, 0
2, 26650, Note_on_c, 0, 57, 0
2, 26655, Note_on_c, 0, 75, 0
2, 26689, Note_on_c, 0, 77, 60
2, 26691, Note_on_c, 0, 68, 29
2, 26692, Control_c, 0, 64, 0
2, 26693, Note_on_c, 0, 72, 49
2, 26753, Note_on_c, 0, 58, 47
2, 26772, Note_on_c, 0, 58, 0
2, 26779, Control_c, 0, 64, 127
2, 26796, Note_on_c, 0, 53, 35
2, 26805, Note_on_c, 0, 53, 0
2, 26863, Note_on_c, 0, 46, 25
2, 26916, Note_on_c, 0, 34, 44
2, 26940, Note_on_c, 0, 34, 0
2, 26941, Note_on_c, 0, 46, 0
2, 26974, Note_on_c, 0, 72, 0
2, 26977, Note_on_c, 0, 77, 0
2, 26985, Note_on_c, 0, 68, 0
2, 26990, Note_on_c, 0, 34, 45
2, 27004, Note_on_c, 0, 34, 0
2, 27101, Note_on_c, 0, 68, 55
2, 27104, Note_on_c, 0, 74, 55
2, 27108, Note_on_c, 0, 62, 63
2, 27109, Note_on_c, 0, 47, 53
2, 27110, Note_on_c, 0, 57, 48
2, 27112, Control_c, 0, 64, 0
2, 27127, Note_on_c, 0, 69, 48
2, 27132, Note_on_c, 0, 68, 0
2, 27154, Control_c, 0, 64, 127
2, 27183, Note_on_c, 0, 62, 0
2, 27210, Note_on_c, 0, 62, 40
2, 27227, Note_on_c, 0, 57, 0
2, 27242, Note_on_c, 0, 69, 0
2, 27263, Note_on_c, 0, 62, 0
2, 27279, Note_on_c, 0, 74, 0
2, 27282, Note_on_c, 0, 62, 40
2, 27282, Note_on_c, 0, 68, 33
2, 27284, Note_on_c, 0, 56, 33
2, 27289, Control_c, 0, 64, 0
2, 27309, Control_c, 0, 64, 127
2, 27389, Note_on_c, 0, 56, 0
2, 27398, Note_on_c, 0, 47, 0
2, 27418, Note_on_c, 0, 62, 0
2, 27435, Note_on_c, 0, 68, 0
2, 27522, Note_on_c, 0, 69, 57
2, 27522, Note_on_c, 0, 62, 63
2, 27524, Note_on_c, 0, 39, 48
2, 27524, Note_on_c, 0, 46, 52
2, 27525, Note_on_c, 0, 55, 53
2, 27525, Note_on_c, 0, 57, 46
2, 27530, Control_c, 0, 64, 0
2, 27586, Control_c, 0, 64, 127
2, 27592, Note_on_c, 0, 55, 0
2, 27593, Note_on_c, 0, 57, 0
2, 27600, Note_on_c, 0, 62, 0
2, 27611, Note_on_c, 0, 69, 0
2, 27650, Note_on_c, 0, 67, 59
2, 27654, Note_on_c, 0, 79, 28
2, 27660, Note_on_c, 0, 79, 0
2, 27662, Note_on_c, 0, 67, 0
2, 27720, Note_on_c, 0, 74, 64
2, 27721, Note_on_c, 0, 86, 64
2, 27733, Note_on_c, 0, 74, 0
2, 27735, Note_on_c, 0, 86, 0
2, 27788, Note_on_c, 0, 79, 57
2, 27789, Note_on_c, 0, 91, 60
2, 27801, Note_on_c, 0, 79, 0
2, 27805, Note_on_c, 0, 91, 0
2, 27853, Note_on_c, 0, 81, 54
2, 27854, Note_on_c, 0, 93, 58
2, 27862, Note_on_c, 0, 81, 0
2, 27868, Note_on_c, 0, 93, 0
2, 27921, Note_on_c, 0, 86, 54
2, 27923, Note_on_c, 0, 98, 51
2, 27929, Note_on_c, 0, 86, 0
2, 27937, Note_on_c, 0, 98, 0
2, 27989, Note_on_c, 0, 91, 46
2, 27989, Note_on_c, 0, 103, 51
2, 28006, Note_on_c, 0, 91, 0
2, 28014, Note_on_c, 0, 103, 0
2, 28057, Note_on_c, 0, 105, 60
2, 28059, Note_on_c, 0, 93, 51
2, 28114, Note_on_c, 0, 105, 0
2, 28118, Note_on_c, 0, 93, 0
2, 28148, Note_on_c, 0, 39, 0
2, 28267, Note_on_c, 0, 46, 0
2, 28380, Control_c, 0, 64, 0
2, 28399, Control_c, 0, 64, 127
2, 28402, Note_on_c, 0, 55, 36
2, 28403, Note_on_c, 0, 79, 48
2, 28592, Note_on_c, 0, 79, 0
2, 28598, Note_on_c, 0, 55, 0
2, 28599, Note_on_c, 0, 54, 44
2, 28603, Note_on_c, 0, 78, 33
2, 28634, Note_on_c, 0, 78, 0
2, 28637, Note_on_c, 0, 54, 0
2, 28648, Note_on_c, 0, 79, 58
2, 28648, Note_on_c, 0, 55, 43
2, 28658, Note_on_c, 0, 55, 0
2, 28665, Note_on_c, 0, 79, 0
2, 28787, Control_c, 0, 64, 0
2, 28790, Control_c, 0, 64, 127
2, 28830, Control_c, 0, 64, 0
2, 28834, Note_on_c, 0, 55, 34
2, 28835, Note_on_c, 0, 58, 34
2, 28836, Note_on_c, 0, 62, 36
2, 28840, Note_on_c, 0, 34, 32
2, 28840, Note_on_c, 0, 46, 25
2, 28856, Note_on_c, 0, 58, 0
2, 28858, Note_on_c, 0, 55, 0
2, 28863, Note_on_c, 0, 62, 0
2, 28871, Note_on_c, 0, 34, 0
2, 28874, Note_on_c, 0, 46, 0
2, 28888, Note_on_c, 0, 46, 17
2, 28888, Note_on_c, 0, 55, 41
2, 28889, Note_on_c, 0, 34, 27
2, 28891, Note_on_c, 0, 62, 35
2, 28893, Note_on_c, 0, 58, 33
2, 28904, Note_on_c, 0, 58, 0
2, 28906, Note_on_c, 0, 55, 0
2, 28914, Note_on_c, 0, 46, 0
2, 28914, Note_on_c, 0, 62, 0
2, 28915, Note_on_c, 0, 34, 0
2, 29003, Note_on_c, 0, 34, 27
2, 29004, Note_on_c, 0, 55, 35
2, 29005, Note_on_c, 0, 53, 31
2, 29006, Note_on_c, 0, 58, 28
2, 29006, Note_on_c, 0, 46, 23
2, 29006, Note_on_c, 0, 62, 32
2, 29025, Note_on_c, 0, 53, 0
2, 29026, Note_on_c, 0, 58, 0
2, 29028, Note_on_c, 0, 55, 0
2, 29032, Note_on_c, 0, 62, 0
2, 29039, Note_on_c, 0, 34, 0
2, 29048, Note_on_c, 0, 46, 0
2, 29120, Note_on_c, 0, 55, 30
2, 29120, Note_on_c, 0, 62, 37
2, 29120, Note_on_c, 0, 53, 28
2, 29121, Note_on_c, 0, 58, 33
2, 29122, Note_on_c, 0, 34, 21
2, 29122, Note_on_c, 0, 46, 19
2, 29127, Control_c, 0, 64, 127
2, 29232, Note_on_c, 0, 53, 0
2, 29235, Note_on_c, 0, 55, 0
2, 29241, Note_on_c, 0, 34, 0
2, 29253, Note_on_c, 0, 46, 0
2, 29255, Note_on_c, 0, 62, 0
2, 29259, Note_on_c, 0, 58, 0
2, 29481, Note_on_c, 0, 58, 83
2, 29481, Note_on_c, 0, 67, 81
2, 29482, Note_on_c, 0, 53, 58
2, 29482, Note_on_c, 0, 63, 62
2, 29484, Control_c, 0, 64, 0
2, 29536, Note_on_c, 0, 67, 0
2, 29538, Note_on_c, 0, 63, 0
2, 29552, Note_on_c, 0, 66, 52
2, 29555, Note_on_c, 0, 53, 0
2, 29555, Control_c, 0, 64, 127
2, 29558, Note_on_c, 0, 52, 43
2, 29565, Note_on_c, 0, 58, 0
2, 29581, Note_on_c, 0, 66, 0
2, 29581, Control_c, 0, 64, 0
2, 29595, Note_on_c, 0, 52, 0
2, 29599, Note_on_c, 0, 58, 59
2, 29599, Note_on_c, 0, 63, 56
2, 29600, Note_on_c, 0, 53, 53
2, 29602, Note_on_c, 0, 67, 68
2, 29651, Note_on_c, 0, 53, 0
2, 29652, Control_c, 0, 64, 127
2, 29666, Note_on_c, 0, 58, 0
2, 29684, Note_on_c, 0, 63, 0
2, 29809, Note_on_c, 0, 67, 0
2, 29844, Note_on_c, 0, 67, 52
2, 29847, Note_on_c, 0, 60, 55
2, 29851, Note_on_c, 0, 51, 27
2, 29851, Note_on_c, 0, 55, 33
2, 29852, Note_on_c, 0, 44, 36
2, 29852, Note_on_c, 0, 53, 34
2, 29853, Control_c, 0, 64, 0
2, 29880, Note_on_c, 0, 53, 0
2, 29967, Control_c, 0, 64, 127
2, 29994, Note_on_c, 0, 67, 0
2, 30007, Note_on_c, 0, 44, 0
2, 30016, Note_on_c, 0, 55, 0
2, 30031, Note_on_c, 0, 60, 0
2, 30033, Note_on_c, 0, 66, 57
2, 30037, Note_on_c, 0, 51, 0
2, 30060, Note_on_c, 0, 66, 0
2, 30080, Control_c, 0, 64, 0
2, 30080, Note_on_c, 0, 43, 43
2, 30080, Note_on_c, 0, 53, 44
2, 30081, Note_on_c, 0, 62, 50
2, 30082, Note_on_c, 0, 67, 51
2, 30083, Note_on_c, 0, 58, 37
2, 30125, Note_on_c, 0, 62, 0
2, 30133, Control_c, 0, 64, 127
2, 30148, Note_on_c, 0, 58, 0
2, 30158, Note_on_c, 0, 53, 0
2, 30159, Note_on_c, 0, 67, 0
2, 30160, Note_on_c, 0, 62, 62
2, 30163, Note_on_c, 0, 43, 0
2, 30174, Note_on_c, 0, 62, 0
2, 30179, Control_c, 0, 64, 0
2, 30192, Control_c, 0, 64, 127
2, 30312, Control_c, 0, 64, 0
2, 30321, Note_on_c, 0, 65, 45
2, 30321, Note_on_c, 0, 24, 40
2, 30324, Note_on_c, 0, 58, 34
2, 30325, Note_on_c, 0, 53, 22
2, 30328, Note_on_c, 0, 36, 24
2, 30330, Note_on_c, 0, 62, 27
2, 30340, Note_on_c, 0, 62, 0
2, 30341, Note_on_c, 0, 53, 0
2, 30342, Note_on_c, 0, 36, 0
2, 30343, Note_on_c, 0, 58, 0
2, 30346, Note_on_c, 0, 65, 0
2, 30349, Note_on_c, 0, 24, 0
2, 30441, Note_on_c, 0, 63, 44
2, 30444, Note_on_c, 0, 58, 40
2, 30445, Note_on_c, 0, 53, 28
2, 30456, Note_on_c, 0, 53, 0
2, 30461, Note_on_c, 0, 58, 0
2, 30465, Note_on_c, 0, 63, 0
2, 30492, Control_c, 0, 64, 127
2, 30556, Control_c, 0, 64, 0
2, 30561, Note_on_c, 0, 70, 34
2, 30562, Note_on_c, 0, 41, 31
2, 30565, Note_on_c, 0, 56, 33
2, 30565, Note_on_c, 0, 48, 32
2, 30566, Note_on_c, 0, 63, 34
2, 30568, Note_on_c, 0, 55, 36
2, 30596, Control_c, 0, 64, 127
2, 30598, Note_on_c, 0, 56, 0
2, 30613, Note_on_c, 0, 63, 0
2, 30618, Note_on_c, 0, 48, 0
2, 30620, Note_on_c, 0, 55, 0
2, 30623, Note_on_c, 0, 41, 0
2, 30626, Note_on_c, 0, 70, 0
2, 30752, Note_on_c, 0, 82, 74
2, 30804, Note_on_c, 0, 75, 47
2, 30805, Note_on_c, 0, 68, 37
2, 30838, Note_on_c, 0, 68, 0
2, 30883, Note_on_c, 0, 68, 31
2, 30892, Note_on_c, 0, 63, 30
2, 30944, Note_on_c, 0, 63, 0
2, 30948, Note_on_c, 0, 68, 0
2, 30968, Note_on_c, 0, 82, 0
2, 30970, Note_on_c, 0, 75, 0
2, 31279, Note_on_c, 0, 61, 39
2, 31280, Control_c, 0, 64, 0
2, 31282, Note_on_c, 0, 53, 31
2, 31283, Note_on_c, 0, 58, 36
2, 31284, Note_on_c, 0, 47, 32
2, 31302, Control_c, 0, 64, 127
2, 31333, Note_on_c, 0, 53, 0
2, 31364, Note_on_c, 0, 47, 0
2, 31365, Note_on_c, 0, 55, 44
2, 31366, Note_on_c, 0, 48, 39
2, 31370, Control_c, 0, 64, 0
2, 31380, Note_on_c, 0, 64, 18
2, 31384, Note_on_c, 0, 61, 0
2, 31417, Control_c, 0, 64, 127
2, 31445, Note_on_c, 0, 64, 0
2, 31464, Note_on_c, 0, 58, 0
2, 31476, Note_on_c, 0, 55, 0
2, 31522, Note_on_c, 0, 48, 0
2, 31522, Note_on_c, 0, 56, 33
2, 31525, Control_c, 0, 64, 0
2, 31528, Note_on_c, 0, 41, 35
2, 31528, Note_on_c, 0, 65, 30
2, 31533, Note_on_c, 0, 63, 27
2, 31536, Note_on_c, 0, 60, 31
2, 31573, Control_c, 0, 64, 127
2, 31601, Note_on_c, 0, 51, 38
2, 31624, Note_on_c, 0, 56, 0
2, 31692, Note_on_c, 0, 51, 0
2, 31727, Note_on_c, 0, 60, 0
2, 31737, Note_on_c, 0, 41, 0
2, 31753, Note_on_c, 0, 41, 64
2, 31761, Control_c, 0, 64, 0
2, 31762, Note_on_c, 0, 63, 0
2, 31816, Control_c, 0, 64, 127
2, 31835, Note_on_c, 0, 61, 60
2, 31837, Note_on_c, 0, 57, 63
2, 31841, Note_on_c, 0, 49, 65
2, 31842, Control_c, 0, 64, 0
2, 31898, Control_c, 0, 64, 127
2, 31920, Note_on_c, 0, 57, 0
2, 31944, Note_on_c, 0, 61, 0
2, 31974, Note_on_c, 0, 49, 0
2, 31981, Note_on_c, 0, 65, 0
2, 32001, Note_on_c, 0, 50, 43
2, 32004, Control_c, 0, 64, 0
2, 32004, Note_on_c, 0, 56, 32
2, 32009, Note_on_c, 0, 62, 40
2, 32010, Note_on_c, 0, 60, 35
2, 32054, Control_c, 0, 64, 127
2, 32084, Note_on_c, 0, 65, 71
2, 32088, Control_c, 0, 64, 0
2, 32118, Control_c, 0, 64, 127
2, 32129, Note_on_c, 0, 50, 0
2, 32131, Note_on_c, 0, 41, 0
2, 32235, Control_c, 0, 64, 0
2, 32242, Note_on_c, 0, 36, 39
2, 32264, Control_c, 0, 64, 127
2, 32345, Note_on_c, 0, 36, 0
2, 32356, Note_on_c, 0, 65, 0
2, 32364, Note_on_c, 0, 64, 53
2, 32370, Note_on_c, 0, 62, 0
2, 32449, Note_on_c, 0, 64, 0
2, 32459, Note_on_c, 0, 56, 0
2, 32470, Note_on_c, 0, 60, 0
2, 32474, Control_c, 0, 64, 0
2, 32475, Note_on_c, 0, 41, 35
2, 32476, Note_on_c, 0, 65, 44
2, 32480, Note_on_c, 0, 48, 24
2, 32560, Note_on_c, 0, 53, 36
2, 32560, Note_on_c, 0, 56, 43
2, 32564, Note_on_c, 0, 60, 54
2, 32571, Note_on_c, 0, 53, 0
2, 32573, Note_on_c, 0, 60, 0
2, 32574, Note_on_c, 0, 56, 0
2, 32579, Note_on_c, 0, 48, 0
2, 32585, Note_on_c, 0, 65, 0
2, 32591, Note_on_c, 0, 41, 0
2, 32694, Note_on_c, 0, 46, 28
2, 32715, Note_on_c, 0, 63, 32
2, 32719, Note_on_c, 0, 65, 38
2, 32720, Note_on_c, 0, 57, 28
2, 32721, Note_on_c, 0, 46, 0
2, 32721, Note_on_c, 0, 47, 41
2, 32723, Note_on_c, 0, 61, 31
2, 32774, Control_c, 0, 64, 127
2, 32799, Note_on_c, 0, 35, 43
2, 32813, Note_on_c, 0, 35, 0
2, 32823, Note_on_c, 0, 47, 0
2, 32853, Note_on_c, 0, 63, 0
2, 32876, Note_on_c, 0, 57, 0
2, 32883, Note_on_c, 0, 65, 0
2, 32893, Note_on_c, 0, 61, 0
2, 32916, Note_on_c, 0, 64, 53
2, 32943, Note_on_c, 0, 64, 0
2, 32957, Control_c, 0, 64, 0
2, 32957, Note_on_c, 0, 65, 68
2, 32958, Note_on_c, 0, 56, 58
2, 32958, Note_on_c, 0, 34, 52
2, 32959, Note_on_c, 0, 46, 42
2, 32959, Note_on_c, 0, 60, 64
2, 32997, Control_c, 0, 64, 127
2, 33031, Note_on_c, 0, 60, 0
2, 33069, Control_c, 0, 64, 0
2, 33076, Note_on_c, 0, 60, 65
2, 33089, Note_on_c, 0, 65, 0
2, 33113, Control_c, 0, 64, 127
2, 33116, Note_on_c, 0, 56, 0
2, 33119, Note_on_c, 0, 60, 0
2, 33165, Note_on_c, 0, 46, 0
2, 33178, Note_on_c, 0, 34, 0
2, 33188, Control_c, 0, 64, 0
2, 33194, Note_on_c, 0, 44, 44
2, 33194, Note_on_c, 0, 63, 58
2, 33197, Note_on_c, 0, 58, 57
2, 33197, Note_on_c, 0, 54, 57
2, 33203, Note_on_c, 0, 60, 53
2, 33257, Control_c, 0, 64, 127
2, 33294, Note_on_c, 0, 60, 0
2, 33307, Note_on_c, 0, 63, 0
2, 33316, Note_on_c, 0, 44, 0
2, 33317, Note_on_c, 0, 62, 57
2, 33319, Note_on_c, 0, 54, 0
2, 33345, Note_on_c, 0, 62, 0
2, 33346, Note_on_c, 0, 58, 0
2, 33433, Control_c, 0, 64, 0
2, 33444, Note_on_c, 0, 67, 58
2, 33444, Note_on_c, 0, 64, 60
2, 33445, Note_on_c, 0, 59, 58
2, 33447, Note_on_c, 0, 43, 31
2, 33449, Note_on_c, 0, 31, 32
2, 33502, Control_c, 0, 64, 127
2, 33510, Note_on_c, 0, 31, 0
2, 33522, Note_on_c, 0, 63, 46
2, 33526, Note_on_c, 0, 64, 0
2, 33534, Note_on_c, 0, 43, 0
2, 33547, Note_on_c, 0, 59, 0
2, 33552, Note_on_c, 0, 63, 0
2, 33567, Note_on_c, 0, 62, 43
2, 33595, Note_on_c, 0, 62, 0
2, 33657, Note_on_c, 0, 67, 0
2, 33683, Note_on_c, 0, 58, 45
2, 33683, Note_on_c, 0, 62, 54
2, 33685, Note_on_c, 0, 53, 41
2, 33689, Control_c, 0, 64, 0
2, 33690, Note_on_c, 0, 36, 22
2, 33734, Note_on_c, 0, 62, 0
2, 33735, Control_c, 0, 64, 127
2, 33764, Note_on_c, 0, 53, 0
2, 33781, Note_on_c, 0, 58, 0
2, 33802, Control_c, 0, 64, 0
2, 33802, Note_on_c, 0, 24, 48
2, 33804, Note_on_c, 0, 36, 0
2, 33807, Note_on_c, 0, 52, 38
2, 33808, Note_on_c, 0, 60, 50
2, 33811, Note_on_c, 0, 24, 0
2, 33819, Control_c, 0, 64, 127
2, 33839, Note_on_c, 0, 52, 0
2, 33874, Note_on_c, 0, 60, 0
2, 33921, Note_on_c, 0, 51, 49
2, 33925, Note_on_c, 0, 56, 49
2, 33925, Control_c, 0, 64, 0
2, 33926, Note_on_c, 0, 41, 48
2, 33926, Note_on_c, 0, 53, 45
2, 33963, Control_c, 0, 64, 127
2, 33999, Note_on_c, 0, 53, 0
2, 34006, Note_on_c, 0, 41, 0
2, 34014, Note_on_c, 0, 56, 0
2, 34024, Note_on_c, 0, 51, 0
2, 34163, Note_on_c, 0, 47, 64
2, 34164, Control_c, 0, 64, 0
2, 34210, Control_c, 0, 64, 127
2, 34247, Control_c, 0, 64, 0
2, 34248, Note_on_c, 0, 70, 81
2, 34249, Note_on_c, 0, 57, 58
2, 34250, Note_on_c, 0, 63, 83
2, 34283, Control_c, 0, 64, 127
2, 34308, Note_on_c, 0, 70, 0
2, 34324, Note_on_c, 0, 63, 0
2, 34329, Note_on_c, 0, 69, 73
2, 34334, Note_on_c, 0, 57, 0
2, 34334, Note_on_c, 0, 63, 31
2, 34341, Note_on_c, 0, 47, 0
2, 34342, Note_on_c, 0, 68, 27
2, 34348, Note_on_c, 0, 63, 0
2, 34352, Note_on_c, 0, 68, 0
2, 34356, Note_on_c, 0, 69, 0
2, 34402, Note_on_c, 0, 70, 55
2, 34403, Note_on_c, 0, 46, 37
2, 34403, Note_on_c, 0, 63, 45
2, 34404, Note_on_c, 0, 58, 49
2, 34404, Control_c, 0, 64, 0
2, 34404, Note_on_c, 0, 67, 58
2, 34406, Note_on_c, 0, 55, 34
2, 34516, Control_c, 0, 64, 127
2, 34547, Note_on_c, 0, 46, 0
2, 34558, Note_on_c, 0, 67, 0
2, 34561, Note_on_c, 0, 63, 0
2, 34574, Note_on_c, 0, 58, 0
2, 34591, Note_on_c, 0, 46, 29
2, 34601, Note_on_c, 0, 55, 0
2, 34637, Note_on_c, 0, 63, 40
2, 34638, Note_on_c, 0, 58, 36
2, 34638, Control_c, 0, 64, 0
2, 34640, Note_on_c, 0, 55, 36
2, 34654, Note_on_c, 0, 58, 0
2, 34655, Note_on_c, 0, 55, 0
2, 34658, Note_on_c, 0, 63, 0
2, 34756, Note_on_c, 0, 63, 43
2, 34758, Note_on_c, 0, 58, 36
2, 34763, Note_on_c, 0, 55, 33
2, 34794, Control_c, 0, 64, 127
2, 34868, Note_on_c, 0, 55, 0
2, 34881, Note_on_c, 0, 63, 0
2, 34905, Note_on_c, 0, 58, 0
2, 34928, Note_on_c, 0, 46, 0
2, 34993, Note_on_c, 0, 46, 46
2, 35056, Note_on_c, 0, 70, 0
2, 35125, Note_on_c, 0, 70, 54
2, 35128, Control_c, 0, 64, 0
2, 35128, Note_on_c, 0, 65, 46
2, 35129, Note_on_c, 0, 55, 50
2, 35137, Note_on_c, 0, 65, 0
2, 35139, Note_on_c, 0, 55, 0
2, 35144, Note_on_c, 0, 70, 0
2, 35211, Note_on_c, 0, 70, 62
2, 35214, Note_on_c, 0, 65, 62
2, 35218, Note_on_c, 0, 55, 38
2, 35218, Note_on_c, 0, 60, 37
2, 35238, Note_on_c, 0, 60, 0
2, 35246, Note_on_c, 0, 65, 0
2, 35252, Note_on_c, 0, 70, 0
2, 35256, Control_c, 0, 64, 127
2, 35275, Note_on_c, 0, 55, 0
2, 35280, Control_c, 0, 64, 0
2, 35298, Note_on_c, 0, 69, 69
2, 35302, Note_on_c, 0, 54, 46
2, 35304, Note_on_c, 0, 60, 37
2, 35304, Control_c, 0, 64, 127
2, 35317, Note_on_c, 0, 60, 0
2, 35324, Note_on_c, 0, 69, 0
2, 35367, Note_on_c, 0, 70, 56
2, 35368, Control_c, 0, 64, 0
2, 35370, Note_on_c, 0, 54, 0
2, 35371, Note_on_c, 0, 62, 52
2, 35372, Note_on_c, 0, 55, 61
2, 35373, Note_on_c, 0, 65, 58
2, 35403, Control_c, 0, 64, 127
2, 35502, Note_on_c, 0, 70, 0
2, 35510, Note_on_c, 0, 62, 0
2, 35536, Note_on_c, 0, 65, 0
2, 35541, Note_on_c, 0, 55, 0
2, 35573, Note_on_c, 0, 54, 58
2, 35601, Note_on_c, 0, 70, 83
2, 35602, Control_c, 0, 64, 0
2, 35602, Note_on_c, 0, 65, 84
2, 35603, Note_on_c, 0, 62, 80
2, 35607, Note_on_c, 0, 55, 81
2, 35610, Note_on_c, 0, 54, 0
2, 35644, Control_c, 0, 64, 127
2, 35772, Note_on_c, 0, 70, 0
2, 35775, Note_on_c, 0, 55, 0
2, 35776, Note_on_c, 0, 65, 0
2, 35788, Note_on_c, 0, 54, 31
2, 35792, Note_on_c, 0, 69, 40
2, 35799, Note_on_c, 0, 62, 0
2, 35809, Note_on_c, 0, 46, 0
2, 35823, Note_on_c, 0, 54, 0
2, 35825, Note_on_c, 0, 69, 0
2, 35836, Control_c, 0, 64, 0
2, 35840, Note_on_c, 0, 70, 64
2, 35840, Note_on_c, 0, 56, 56
2, 35842, Note_on_c, 0, 61, 50
2, 35842, Note_on_c, 0, 65, 62
2, 35884, Control_c, 0, 64, 127
2, 35885, Note_on_c, 0, 65, 0
2, 35906, Note_on_c, 0, 61, 0
2, 35923, Note_on_c, 0, 70, 0
2, 35925, Note_on_c, 0, 46, 47
2, 35925, Note_on_c, 0, 65, 56
2, 35926, Note_on_c, 0, 61, 33
2, 35948, Note_on_c, 0, 56, 0
2, 35956, Note_on_c, 0, 65, 0
2, 35964, Note_on_c, 0, 46, 0
2, 35968, Note_on_c, 0, 61, 0
2, 36079, Control_c, 0, 64, 0
2, 36085, Note_on_c, 0, 68, 45
2, 36087, Note_on_c, 0, 39, 31
2, 36088, Note_on_c, 0, 61, 50
2, 36089, Note_on_c, 0, 46, 30
2, 36089, Note_on_c, 0, 56, 37
2, 36109, Note_on_c, 0, 56, 0
2, 36114, Note_on_c, 0, 61, 0
2, 36116, Note_on_c, 0, 68, 0
2, 36122, Note_on_c, 0, 46, 0
2, 36131, Note_on_c, 0, 39, 0
2, 36153, Control_c, 0, 64, 127
2, 36176, Control_c, 0, 64, 0
2, 36201, Note_on_c, 0, 67, 56
2, 36204, Note_on_c, 0, 45, 49
2, 36206, Note_on_c, 0, 61, 34
2, 36206, Note_on_c, 0, 59, 41
2, 36207, Note_on_c, 0, 55, 34
2, 36220, Note_on_c, 0, 55, 0
2, 36220, Note_on_c, 0, 45, 0
2, 36221, Note_on_c, 0, 59, 0
2, 36224, Note_on_c, 0, 61, 0
2, 36238, Note_on_c, 0, 67, 0
2, 36244, Control_c, 0, 64, 127
2, 36306, Control_c, 0, 64, 0
2, 36320, Note_on_c, 0, 65, 36
2, 36322, Note_on_c, 0, 60, 42
2, 36324, Note_on_c, 0, 55, 40
2, 36325, Note_on_c, 0, 53, 36
2, 36326, Note_on_c, 0, 44, 34
2, 36365, Control_c, 0, 64, 127
2, 36371, Note_on_c, 0, 53, 0
2, 36377, Note_on_c, 0, 55, 0
2, 36392, Note_on_c, 0, 60, 0
2, 36421, Note_on_c, 0, 65, 0
2, 36444, Note_on_c, 0, 55, 59
2, 36530, Note_on_c, 0, 55, 0
2, 36564, Note_on_c, 0, 53, 49
2, 36582, Control_c, 0, 64, 0
2, 36599, Control_c, 0, 64, 127
2, 36649, Note_on_c, 0, 44, 0
2, 36676, Note_on_c, 0, 44, 43
2, 36729, Note_on_c, 0, 53, 0
2, 36756, Note_on_c, 0, 44, 0
2, 36797, Note_on_c, 0, 61, 42
2, 36797, Note_on_c, 0, 58, 48
2, 36798, Note_on_c, 0, 43, 40
2, 36798, Control_c, 0, 64, 0
2, 36803, Note_on_c, 0, 53, 30
2, 36831, Note_on_c, 0, 53, 0
2, 36835, Control_c, 0, 64, 127
2, 36857, Note_on_c, 0, 43, 0
2, 36912, Note_on_c, 0, 58, 0
2, 36922, Note_on_c, 0, 53, 62
2, 37007, Note_on_c, 0, 53, 0
2, 37036, Note_on_c, 0, 61, 0
2, 37038, Control_c, 0, 64, 0
2, 37044, Note_on_c, 0, 24, 40
2, 37046, Note_on_c, 0, 52, 39
2, 37048, Note_on_c, 0, 36, 30
2, 37062, Note_on_c, 0, 52, 0
2, 37070, Note_on_c, 0, 24, 0
2, 37071, Control_c, 0, 64, 127
2, 37073, Note_on_c, 0, 36, 0
2, 37213, Note_on_c, 0, 77, 62
2, 37242, Note_on_c, 0, 77, 0
2, 37250, Note_on_c, 0, 76, 56
2, 37269, Note_on_c, 0, 76, 0
2, 37276, Control_c, 0, 64, 0
2, 37282, Note_on_c, 0, 53, 34
2, 37282, Note_on_c, 0, 77, 66
2, 37316, Control_c, 0, 64, 127
2, 37413, Note_on_c, 0, 75, 1
2, 37424, Note_on_c, 0, 77, 0
2, 37459, Note_on_c, 0, 75, 0
2, 37478, Note_on_c, 0, 68, 39
2, 37479, Note_on_c, 0, 67, 33
2, 37479, Note_on_c, 0, 65, 35
2, 37479, Note_on_c, 0, 72, 40
2, 37485, Note_on_c, 0, 60, 1
2, 37489, Note_on_c, 0, 65, 0
2, 37498, Note_on_c, 0, 67, 0
2, 37502, Note_on_c, 0, 60, 0
2, 37503, Note_on_c, 0, 72, 0
2, 37504, Note_on_c, 0, 68, 0
2, 37513, Note_on_c, 0, 53, 0
2, 37608, Note_on_c, 0, 54, 46
2, 37608, Note_on_c, 0, 65, 65
2, 37612, Note_on_c, 0, 47, 50
2, 37612, Note_on_c, 0, 61, 37
2, 37618, Control_c, 0, 64, 0
2, 37619, Note_on_c, 0, 63, 23
2, 37627, Note_on_c, 0, 63, 0
2, 37660, Control_c, 0, 64, 127
2, 37706, Note_on_c, 0, 47, 0
2, 37706, Note_on_c, 0, 61, 0
2, 37733, Note_on_c, 0, 54, 0
2, 37749, Note_on_c, 0, 65, 0
2, 37769, Note_on_c, 0, 53, 50
2, 37771, Note_on_c, 0, 65, 22
2, 37772, Note_on_c, 0, 46, 37
2, 37773, Control_c, 0, 64, 0
2, 37808, Note_on_c, 0, 65, 0
2, 37821, Control_c, 0, 64, 127
2, 37868, Control_c, 0, 64, 0
2, 37877, Note_on_c, 0, 68, 53
2, 37882, Note_on_c, 0, 60, 40
2, 37883, Note_on_c, 0, 63, 36
2, 37914, Note_on_c, 0, 53, 0
2, 37916, Control_c, 0, 64, 127
2, 37925, Note_on_c, 0, 60, 0
2, 37936, Note_on_c, 0, 68, 0
2, 37942, Note_on_c, 0, 46, 0
2, 37945, Note_on_c, 0, 63, 0
2, 37991, Control_c, 0, 64, 0
2, 37998, Note_on_c, 0, 44, 37
2, 37999, Note_on_c, 0, 54, 35
2, 37999, Note_on_c, 0, 67, 43
2, 38000, Note_on_c, 0, 59, 42
2, 38001, Note_on_c, 0, 63, 29
2, 38069, Control_c, 0, 64, 127
2, 38088, Note_on_c, 0, 59, 0
2, 38089, Note_on_c, 0, 67, 0
2, 38091, Note_on_c, 0, 63, 0
2, 38116, Note_on_c, 0, 65, 55
2, 38118, Note_on_c, 0, 54, 0
2, 38149, Note_on_c, 0, 65, 0
2, 38157, Note_on_c, 0, 44, 0
2, 38230, Control_c, 0, 64, 0
2, 38235, Note_on_c, 0, 63, 59
2, 38237, Note_on_c, 0, 43, 49
2, 38237, Note_on_c, 0, 55, 62
2, 38239, Note_on_c, 0, 51, 36
2, 38239, Note_on_c, 0, 58, 55
2, 38289, Control_c, 0, 64, 127
2, 38337, Note_on_c, 0, 51, 0
2, 38340, Note_on_c, 0, 63, 0
2, 38346, Note_on_c, 0, 55, 0
2, 38361, Note_on_c, 0, 62, 64
2, 38364, Note_on_c, 0, 43, 0
2, 38364, Note_on_c, 0, 55, 27
2, 38383, Note_on_c, 0, 55, 0
2, 38397, Note_on_c, 0, 58, 0
2, 38408, Note_on_c, 0, 62, 0
2, 38447, Note_on_c, 0, 42, 44
2, 38473, Note_on_c, 0, 42, 0
2, 38479, Control_c, 0, 64, 0
2, 38479, Note_on_c, 0, 43, 60
2, 38480, Note_on_c, 0, 63, 55
2, 38481, Note_on_c, 0, 59, 62
2, 38482, Note_on_c, 0, 58, 44
2, 38483, Note_on_c, 0, 53, 52
2, 38559, Note_on_c, 0, 31, 54
2, 38580, Control_c, 0, 64, 127
2, 38581, Note_on_c, 0, 31, 0
2, 38581, Note_on_c, 0, 43, 0
2, 38644, Note_on_c, 0, 63, 0
2, 38659, Note_on_c, 0, 59, 0
2, 38668, Note_on_c, 0, 53, 0
2, 38671, Note_on_c, 0, 62, 55
2, 38690, Note_on_c, 0, 58, 0
2, 38702, Note_on_c, 0, 62, 0
2, 38714, Note_on_c, 0, 63, 57
2, 38714, Note_on_c, 0, 24, 53
2, 38715, Control_c, 0, 64, 0
2, 38715, Note_on_c, 0, 55, 64
2, 38718, Note_on_c, 0, 58, 35
2, 38718, Note_on_c, 0, 36, 40
2, 38722, Note_on_c, 0, 60, 25
2, 38723, Note_on_c, 0, 55, 0
2, 38723, Note_on_c, 0, 24, 0
2, 38729, Note_on_c, 0, 36, 0
2, 38730, Note_on_c, 0, 60, 0
2, 38731, Note_on_c, 0, 58, 0
2, 38737, Note_on_c, 0, 63, 0
2, 38849, Control_c, 0, 64, 127
2, 38917, Note_on_c, 0, 51, 52
2, 38920, Note_on_c, 0, 63, 55
2, 38920, Note_on_c, 0, 58, 55
2, 38921, Note_on_c, 0, 67, 64
2, 38942, Note_on_c, 0, 51, 0
2, 38945, Note_on_c, 0, 58, 0
2, 38951, Note_on_c, 0, 67, 0
2, 38954, Note_on_c, 0, 63, 0
2, 38960, Control_c, 0, 64, 0
2, 38970, Note_on_c, 0, 65, 49
2, 38972, Note_on_c, 0, 50, 33
2, 38975, Note_on_c, 0, 62, 37
2, 38984, Note_on_c, 0, 62, 0
2, 38987, Note_on_c, 0, 50, 0
2, 38989, Note_on_c, 0, 65, 0
2, 39019, Control_c, 0, 64, 127
2, 39061, Control_c, 0, 64, 0
2, 39076, Note_on_c, 0, 63, 38
2, 39077, Note_on_c, 0, 48, 45
2, 39079, Note_on_c, 0, 60, 45
2, 39087, Note_on_c, 0, 48, 0
2, 39096, Note_on_c, 0, 60, 0
2, 39101, Control_c, 0, 64, 127
2, 39107, Note_on_c, 0, 63, 0
2, 39170, Control_c, 0, 64, 0
2, 39190, Note_on_c, 0, 62, 52
2, 39194, Note_on_c, 0, 46, 40
2, 39195, Note_on_c, 0, 58, 32
2, 39195, Note_on_c, 0, 53, 24
2, 39209, Control_c, 0, 64, 127
2, 39256, Note_on_c, 0, 53, 0
2, 39281, Note_on_c, 0, 46, 0
2, 39306, Note_on_c, 0, 62, 0
2, 39311, Note_on_c, 0, 46, 53
2, 39317, Note_on_c, 0, 58, 0
2, 39390, Note_on_c, 0, 46, 0
2, 39431, Note_on_c, 0, 63, 60
2, 39433, Note_on_c, 0, 46, 39
2, 39434, Note_on_c, 0, 58, 58
2, 39436, Note_on_c, 0, 55, 53
2, 39456, Note_on_c, 0, 55, 0
2, 39473, Note_on_c, 0, 58, 0
2, 39497, Note_on_c, 0, 63, 0
2, 39552, Note_on_c, 0, 65, 63
2, 39554, Note_on_c, 0, 58, 44
2, 39554, Note_on_c, 0, 60, 64
2, 39557, Note_on_c, 0, 63, 38
2, 39578, Note_on_c, 0, 58, 0
2, 39586, Note_on_c, 0, 60, 0
2, 39601, Note_on_c, 0, 46, 0
2, 39606, Note_on_c, 0, 65, 0
2, 39623, Note_on_c, 0, 63, 0
2, 39669, Note_on_c, 0, 56, 64
2, 39669, Note_on_c, 0, 46, 61
2, 39670, Note_on_c, 0, 60, 77
2, 39671, Control_c, 0, 64, 0
2, 39703, Control_c, 0, 64, 127
2, 39711, Note_on_c, 0, 56, 0
2, 39757, Note_on_c, 0, 60, 0
2, 39762, Note_on_c, 0, 56, 47
2, 39803, Note_on_c, 0, 56, 0
2, 39803, Note_on_c, 0, 46, 0
2, 39881, Note_on_c, 0, 69, 83
2, 39882, Note_on_c, 0, 74, 74
2, 39882, Note_on_c, 0, 62, 80
2, 39883, Note_on_c, 0, 47, 68
2, 39884, Note_on_c, 0, 57, 74
2, 39889, Control_c, 0, 64, 0
2, 39933, Control_c, 0, 64, 127
2, 39985, Note_on_c, 0, 57, 0
2, 40003, Note_on_c, 0, 69, 0
2, 40020, Note_on_c, 0, 62, 0
2, 40041, Note_on_c, 0, 68, 43
2, 40043, Note_on_c, 0, 56, 34
2, 40050, Note_on_c, 0, 47, 0
2, 40075, Note_on_c, 0, 74, 0
2, 40075, Note_on_c, 0, 68, 0
2, 40091, Note_on_c, 0, 56, 0
2, 40140, Control_c, 0, 64, 0
2, 40158, Note_on_c, 0, 46, 44
2, 40159, Note_on_c, 0, 79, 62
2, 40161, Note_on_c, 0, 56, 32
2, 40178, Note_on_c, 0, 46, 0
2, 40180, Control_c, 0, 64, 127
2, 40184, Note_on_c, 0, 56, 0
2, 40246, Note_on_c, 0, 65, 52
2, 40246, Note_on_c, 0, 61, 42
2, 40249, Note_on_c, 0, 60, 40
2, 40255, Control_c, 0, 64, 0
2, 40265, Note_on_c, 0, 60, 0
2, 40267, Note_on_c, 0, 65, 0
2, 40279, Note_on_c, 0, 61, 0
2, 40328, Note_on_c, 0, 57, 37
2, 40343, Control_c, 0, 64, 127
2, 40385, Control_c, 0, 64, 0
2, 40401, Note_on_c, 0, 65, 54
2, 40402, Note_on_c, 0, 61, 39
2, 40410, Control_c, 0, 64, 127
2, 40504, Note_on_c, 0, 57, 0
2, 40509, Control_c, 0, 64, 0
2, 40515, Note_on_c, 0, 56, 39
2, 40520, Control_c, 0, 64, 127
2, 40557, Note_on_c, 0, 56, 0
2, 40601, Note_on_c, 0, 55, 55
2, 40606, Control_c, 0, 64, 0
2, 40609, Note_on_c, 0, 65, 0
2, 40627, Note_on_c, 0, 79, 0
2, 40632, Control_c, 0, 64, 127
2, 40646, Note_on_c, 0, 61, 0
2, 40674, Note_on_c, 0, 55, 0
2, 40771, Note_on_c, 0, 27, 60
2, 40780, Control_c, 0, 64, 0
2, 40800, Control_c, 0, 64, 127
2, 40818, Note_on_c, 0, 27, 0
2, 40894, Note_on_c, 0, 68, 70
2, 40895, Note_on_c, 0, 47, 57
2, 40896, Note_on_c, 0, 58, 70
2, 40897, Note_on_c, 0, 61, 64
2, 40898, Note_on_c, 0, 45, 67
2, 40898, Note_on_c, 0, 64, 68
2, 40901, Control_c, 0, 64, 0
2, 40913, Note_on_c, 0, 47, 0
2, 40916, Note_on_c, 0, 45, 0
2, 40931, Note_on_c, 0, 45, 39
2, 40954, Control_c, 0, 64, 127
2, 40987, Note_on_c, 0, 68, 0
2, 40989, Note_on_c, 0, 45, 0
2, 40991, Note_on_c, 0, 64, 0
2, 41008, Note_on_c, 0, 67, 72
2, 41009, Note_on_c, 0, 66, 21
2, 41041, Note_on_c, 0, 58, 0
2, 41071, Note_on_c, 0, 66, 0
2, 41086, Note_on_c, 0, 61, 0
2, 41095, Note_on_c, 0, 67, 0
2, 41127, Note_on_c, 0, 56, 35
2, 41128, Note_on_c, 0, 65, 38
2, 41128, Note_on_c, 0, 41, 47
2, 41129, Control_c, 0, 64, 0
2, 41132, Note_on_c, 0, 63, 31
2, 41133, Note_on_c, 0, 60, 38
2, 41210, Control_c, 0, 64, 127
2, 41216, Note_on_c, 0, 41, 0
2, 41239, Note_on_c, 0, 55, 74
2, 41298, Note_on_c, 0, 55, 0
2, 41305, Note_on_c, 0, 60, 0
2, 41309, Note_on_c, 0, 56, 0
2, 41323, Note_on_c, 0, 63, 0
2, 41329, Note_on_c, 0, 65, 0
2, 41354, Control_c, 0, 64, 0
2, 41360, Note_on_c, 0, 56, 42
2, 41360, Note_on_c, 0, 53, 45
2, 41362, Note_on_c, 0, 65, 48
2, 41366, Note_on_c, 0, 63, 28
2, 41366, Note_on_c, 0, 60, 35
2, 41369, Note_on_c, 0, 56, 0
2, 41375, Note_on_c, 0, 60, 0
2, 41383, Note_on_c, 0, 63, 0
2, 41386, Note_on_c, 0, 65, 0
2, 41389, Note_on_c, 0, 53, 0
2, 41442, Note_on_c, 0, 61, 46
2, 41443, Note_on_c, 0, 65, 47
2, 41443, Note_on_c, 0, 63, 38
2, 41444, Note_on_c, 0, 57, 43
2, 41448, Note_on_c, 0, 47, 40
2, 41482, Control_c, 0, 64, 127
2, 41535, Note_on_c, 0, 57, 0
2, 41553, Note_on_c, 0, 61, 0
2, 41555, Note_on_c, 0, 65, 0
2, 41555, Note_on_c, 0, 63, 0
2, 41594, Note_on_c, 0, 47, 0
2, 41596, Control_c, 0, 64, 0
2, 41603, Note_on_c, 0, 56, 51
2, 41605, Note_on_c, 0, 65, 46
2, 41607, Note_on_c, 0, 46, 37
2, 41608, Note_on_c, 0, 63, 34
2, 41611, Note_on_c, 0, 60, 42
2, 41629, Control_c, 0, 64, 127
2, 41643, Note_on_c, 0, 60, 0
2, 41651, Note_on_c, 0, 56, 0
2, 41661, Note_on_c, 0, 65, 0
2, 41681, Note_on_c, 0, 63, 0
2, 41682, Note_on_c, 0, 68, 69
2, 41717, Note_on_c, 0, 63, 1
2, 41767, Note_on_c, 0, 68, 0
2, 41775, Note_on_c, 0, 63, 0
2, 41776, Note_on_c, 0, 46, 0
2, 41834, Note_on_c, 0, 67, 52
2, 41837, Note_on_c, 0, 60, 54
2, 41839, Control_c, 0, 64, 0
2, 41839, Note_on_c, 0, 55, 40
2, 41840, Note_on_c, 0, 53, 39
2, 41840, Note_on_c, 0, 44, 51
2, 41903, Control_c, 0, 64, 127
2, 41940, Note_on_c, 0, 53, 0
2, 41944, Note_on_c, 0, 55, 0
2, 41948, Note_on_c, 0, 67, 0
2, 41957, Note_on_c, 0, 65, 50
2, 41973, Note_on_c, 0, 60, 0
2, 41992, Note_on_c, 0, 44, 0
2, 42028, Note_on_c, 0, 65, 0
2, 42076, Note_on_c, 0, 59, 55
2, 42077, Note_on_c, 0, 67, 50
2, 42077, Control_c, 0, 64, 0
2, 42078, Note_on_c, 0, 43, 44
2, 42078, Note_on_c, 0, 53, 44
2, 42079, Note_on_c, 0, 63, 44
2, 42205, Control_c, 0, 64, 127
2, 42234, Note_on_c, 0, 43, 0
2, 42246, Note_on_c, 0, 67, 0
2, 42256, Note_on_c, 0, 59, 0
2, 42259, Note_on_c, 0, 63, 0
2, 42272, Note_on_c, 0, 66, 57
2, 42276, Note_on_c, 0, 53, 0
2, 42313, Note_on_c, 0, 66, 0
2, 42329, Note_on_c, 0, 64, 53
2, 42331, Control_c, 0, 64, 0
2, 42331, Note_on_c, 0, 59, 45
2, 42332, Note_on_c, 0, 43, 36
2, 42333, Note_on_c, 0, 53, 37
2, 42333, Note_on_c, 0, 67, 52
2, 42402, Note_on_c, 0, 63, 56
2, 42404, Control_c, 0, 64, 127
2, 42414, Note_on_c, 0, 64, 0
2, 42417, Control_c, 0, 64, 0
2, 42437, Note_on_c, 0, 63, 0
2, 42447, Note_on_c, 0, 62, 49
2, 42471, Note_on_c, 0, 43, 0
2, 42472, Control_c, 0, 64, 127
2, 42474, Note_on_c, 0, 59, 0
2, 42493, Note_on_c, 0, 62, 0
2, 42494, Note_on_c, 0, 67, 0
2, 42498, Note_on_c, 0, 53, 0
2, 42522, Note_on_c, 0, 43, 39
2, 42549, Note_on_c, 0, 43, 0
2, 42556, Control_c, 0, 64, 0
2, 42560, Note_on_c, 0, 67, 64
2, 42563, Note_on_c, 0, 48, 64
2, 42567, Note_on_c, 0, 62, 57
2, 42567, Note_on_c, 0, 58, 47
2, 42596, Control_c, 0, 64, 127
2, 42599, Note_on_c, 0, 67, 0
2, 42626, Note_on_c, 0, 58, 0
2, 42630, Note_on_c, 0, 62, 0
2, 42641, Note_on_c, 0, 62, 36
2, 42642, Control_c, 0, 64, 0
2, 42644, Note_on_c, 0, 70, 62
2, 42645, Note_on_c, 0, 36, 64
2, 42645, Note_on_c, 0, 58, 46
2, 42680, Control_c, 0, 64, 127
2, 42709, Note_on_c, 0, 48, 0
2, 42717, Note_on_c, 0, 36, 0
2, 42724, Note_on_c, 0, 70, 0
2, 42725, Note_on_c, 0, 62, 0
2, 42735, Note_on_c, 0, 58, 0
2, 42796, Note_on_c, 0, 68, 45
2, 42801, Control_c, 0, 64, 0
2, 42802, Note_on_c, 0, 58, 34
2, 42806, Note_on_c, 0, 61, 35
2, 42808, Note_on_c, 0, 64, 35
2, 42811, Note_on_c, 0, 36, 25
2, 42822, Note_on_c, 0, 64, 0
2, 42828, Note_on_c, 0, 61, 0
2, 42828, Note_on_c, 0, 58, 0
2, 42834, Note_on_c, 0, 68, 0
2, 42847, Note_on_c, 0, 36, 0
2, 42917, Note_on_c, 0, 58, 42
2, 42918, Note_on_c, 0, 67, 46
2, 42918, Note_on_c, 0, 61, 46
2, 42918, Note_on_c, 0, 24, 49
2, 42925, Note_on_c, 0, 36, 26
2, 42926, Note_on_c, 0, 64, 30
2, 42927, Note_on_c, 0, 24, 0
2, 42934, Note_on_c, 0, 67, 0
2, 42935, Note_on_c, 0, 58, 0
2, 42937, Note_on_c, 0, 64, 0
2, 42939, Note_on_c, 0, 36, 0
2, 42940, Note_on_c, 0, 61, 0
2, 42958, Control_c, 0, 64, 127
2, 43039, Control_c, 0, 64, 0
2, 43044, Note_on_c, 0, 41, 29
2, 43046, Note_on_c, 0, 63, 50
2, 43046, Note_on_c, 0, 56, 35
2, 43046, Note_on_c, 0, 70, 30
2, 43046, Note_on_c, 0, 53, 35
2, 43047, Note_on_c, 0, 48, 43
2, 43122, Control_c, 0, 64, 127
2, 43193, Note_on_c, 0, 70, 0
2, 43196, Note_on_c, 0, 63, 0
2, 43236, Note_on_c, 0, 56, 0
2, 43289, Note_on_c, 0, 60, 90
2, 43318, Note_on_c, 0, 48, 0
2, 43320, Note_on_c, 0, 41, 0
2, 43328, Note_on_c, 0, 60, 0
2, 43336, Note_on_c, 0, 53, 0
2, 43357, Note_on_c, 0, 60, 60
2, 43381, Note_on_c, 0, 60, 0
2, 43400, Note_on_c, 0, 63, 62
2, 43428, Note_on_c, 0, 63, 0
2, 43521, Control_c, 0, 64, 0
2, 43522, Note_on_c, 0, 70, 54
2, 43526, Note_on_c, 0, 62, 37
2, 43527, Note_on_c, 0, 59, 34
2, 43529, Note_on_c, 0, 58, 35
2, 43600, Note_on_c, 0, 46, 42
2, 43601, Note_on_c, 0, 62, 0
2, 43610, Control_c, 0, 64, 127
2, 43667, Note_on_c, 0, 58, 0
2, 43673, Note_on_c, 0, 59, 0
2, 43709, Note_on_c, 0, 70, 0
2, 43759, Note_on_c, 0, 60, 48
2, 43763, Note_on_c, 0, 56, 21
2, 43764, Note_on_c, 0, 59, 35
2, 43819, Note_on_c, 0, 56, 0
2, 43827, Note_on_c, 0, 46, 0
2, 43878, Note_on_c, 0, 62, 37
2, 43893, Note_on_c, 0, 60, 0
2, 43897, Note_on_c, 0, 59, 0
2, 43929, Note_on_c, 0, 62, 0
2, 44073, Control_c, 0, 64, 0
2, 44084, Note_on_c, 0, 63, 38
2, 44084, Note_on_c, 0, 46, 34
2, 44085, Note_on_c, 0, 58, 39
2, 44087, Note_on_c, 0, 55, 34
2, 44100, Note_on_c, 0, 55, 0
2, 44106, Control_c, 0, 64, 127
2, 44111, Note_on_c, 0, 58, 0
2, 44118, Note_on_c, 0, 63, 0
2, 44169, Note_on_c, 0, 74, 60
2, 44225, Note_on_c, 0, 74, 0
2, 44240, Note_on_c, 0, 70, 44
2, 44244, Note_on_c, 0, 62, 34
2, 44245, Note_on_c, 0, 55, 38
2, 44245, Note_on_c, 0, 67, 40
2, 44271, Note_on_c, 0, 62, 0
2, 44274, Note_on_c, 0, 67, 0
2, 44284, Note_on_c, 0, 70, 0
2, 44306, Note_on_c, 0, 46, 0
2, 44314, Note_on_c, 0, 55, 0
2, 44340, Note_on_c, 0, 77, 54
2, 44407, Note_on_c, 0, 77, 0
2, 44424, Note_on_c, 0, 74, 49
2, 44425, Note_on_c, 0, 72, 37
2, 44426, Note_on_c, 0, 68, 34
2, 44429, Note_on_c, 0, 63, 33
2, 44432, Control_c, 0, 64, 0
2, 44433, Note_on_c, 0, 60, 30
2, 44461, Note_on_c, 0, 74, 0
2, 44461, Control_c, 0, 64, 127
2, 44463, Note_on_c, 0, 72, 0
2, 44518, Note_on_c, 0, 68, 0
2, 44536, Note_on_c, 0, 60, 0
2, 44554, Note_on_c, 0, 82, 49
2, 44561, Note_on_c, 0, 63, 0
2, 44596, Note_on_c, 0, 82, 0
2, 44607, Control_c, 0, 64, 0
2, 44607, Note_on_c, 0, 74, 37
2, 44608, Note_on_c, 0, 67, 34
2, 44608, Note_on_c, 0, 79, 40
2, 44611, Note_on_c, 0, 56, 30
2, 44613, Note_on_c, 0, 62, 33
2, 44640, Control_c, 0, 64, 127
2, 44755, Note_on_c, 0, 74, 0
2, 44765, Note_on_c, 0, 79, 0
2, 44801, Note_on_c, 0, 67, 92
2, 44816, Control_c, 0, 64, 0
2, 44830, Note_on_c, 0, 67, 0
2, 44833, Note_on_c, 0, 62, 0
2, 44839, Note_on_c, 0, 56, 0
2, 44841, Note_on_c, 0, 67, 0
2, 44847, Note_on_c, 0, 66, 48
2, 44914, Note_on_c, 0, 66, 0
2, 44925, Control_c, 0, 64, 127
2, 44954, Control_c, 0, 64, 0
2, 44957, Note_on_c, 0, 67, 41
2, 44959, Note_on_c, 0, 62, 36
2, 44962, Note_on_c, 0, 46, 26
2, 44965, Note_on_c, 0, 55, 26
2, 45085, Note_on_c, 0, 55, 0
2, 45085, Note_on_c, 0, 54, 30
2, 45175, Control_c, 0, 64, 127
2, 45190, Control_c, 0, 64, 0
2, 45193, Note_on_c, 0, 54, 0
2, 45210, Note_on_c, 0, 55, 30
2, 45236, Control_c, 0, 64, 127
2, 45265, Note_on_c, 0, 46, 0
2, 45289, Note_on_c, 0, 46, 37
2, 45364, Note_on_c, 0, 55, 0
2, 45440, Control_c, 0, 64, 0
2, 45441, Note_on_c, 0, 55, 48
2, 45557, Note_on_c, 0, 55, 0
2, 45557, Note_on_c, 0, 54, 37
2, 45558, Note_on_c, 0, 62, 0
2, 45572, Note_on_c, 0, 67, 0
2, 45581, Control_c, 0, 64, 127
2, 45671, Control_c, 0, 64, 0
2, 45681, Note_on_c, 0, 54, 0
2, 45681, Note_on_c, 0, 67, 87
2, 45681, Note_on_c, 0, 62, 94
2, 45685, Note_on_c, 0, 55, 58
2, 45739, Note_on_c, 0, 67, 0
2, 45746, Control_c, 0, 64, 127
2, 45759, Note_on_c, 0, 66, 47
2, 45764, Note_on_c, 0, 54, 38
2, 45766, Note_on_c, 0, 55, 0
2, 45791, Note_on_c, 0, 62, 0
2, 45796, Note_on_c, 0, 66, 0
2, 45804, Note_on_c, 0, 54, 0
2, 45805, Note_on_c, 0, 55, 58
2, 45806, Note_on_c, 0, 62, 39
2, 45807, Note_on_c, 0, 67, 60
2, 45812, Control_c, 0, 64, 0
2, 45851, Note_on_c, 0, 67, 0
2, 45872, Note_on_c, 0, 66, 42
2, 45882, Note_on_c, 0, 55, 0
2, 45883, Note_on_c, 0, 54, 33
2, 45885, Note_on_c, 0, 62, 0
2, 45885, Control_c, 0, 64, 127
2, 45903, Control_c, 0, 64, 0
2, 45909, Note_on_c, 0, 66, 0
2, 45920, Note_on_c, 0, 62, 44
2, 45921, Note_on_c, 0, 54, 0
2, 45921, Note_on_c, 0, 67, 53
2, 45922, Note_on_c, 0, 55, 50
2, 45954, Note_on_c, 0, 46, 0
2, 45994, Note_on_c, 0, 46, 42
2, 46000, Control_c, 0, 64, 127
2, 46021, Note_on_c, 0, 55, 0
2, 46037, Note_on_c, 0, 62, 0
2, 46043, Note_on_c, 0, 46, 0
2, 46069, Note_on_c, 0, 67, 0
2, 46159, Control_c, 0, 64, 0
2, 46162, Note_on_c, 0, 44, 36
2, 46162, Note_on_c, 0, 60, 48
2, 46163, Note_on_c, 0, 67, 45
2, 46165, Note_on_c, 0, 55, 38
2, 46214, Control_c, 0, 64, 127
2, 46288, Note_on_c, 0, 55, 0
2, 46288, Note_on_c, 0, 44, 0
2, 46292, Note_on_c, 0, 60, 0
2, 46299, Note_on_c, 0, 67, 0
2, 46352, Note_on_c, 0, 66, 53
2, 46380, Note_on_c, 0, 66, 0
2, 46393, Control_c, 0, 64, 0
2, 46395, Note_on_c, 0, 53, 40
2, 46397, Note_on_c, 0, 67, 65
2, 46400, Note_on_c, 0, 43, 32
2, 46459, Control_c, 0, 64, 127
2, 46474, Note_on_c, 0, 62, 54
2, 46495, Note_on_c, 0, 53, 0
2, 46506, Note_on_c, 0, 43, 0
2, 46508, Note_on_c, 0, 67, 0
2, 46511, Note_on_c, 0, 62, 0
2, 46589, Note_on_c, 0, 24, 64
2, 46611, Note_on_c, 0, 24, 0
2, 46624, Control_c, 0, 64, 0
2, 46641, Note_on_c, 0, 65, 49
2, 46642, Note_on_c, 0, 53, 50
2, 46644, Note_on_c, 0, 62, 43
2, 46644, Note_on_c, 0, 58, 37
2, 46712, Control_c, 0, 64, 127
2, 46718, Note_on_c, 0, 62, 0
2, 46729, Note_on_c, 0, 53, 0
2, 46736, Note_on_c, 0, 65, 0
2, 46737, Control_c, 0, 64, 0
2, 46755, Note_on_c, 0, 42, 35
2, 46756, Note_on_c, 0, 63, 40
2, 46757, Note_on_c, 0, 52, 33
2, 46781, Control_c, 0, 64, 127
2, 46786, Note_on_c, 0, 52, 0
2, 46786, Note_on_c, 0, 58, 0
2, 46793, Note_on_c, 0, 63, 0
2, 46830, Note_on_c, 0, 42, 0
2, 46882, Control_c, 0, 64, 0
2, 46950, Note_on_c, 0, 41, 32
2, 46951, Note_on_c, 0, 48, 33
2, 46952, Note_on_c, 0, 56, 29
2, 46952, Note_on_c, 0, 70, 31
2, 46952, Note_on_c, 0, 63, 36
2, 46964, Note_on_c, 0, 56, 0
2, 46966, Note_on_c, 0, 41, 0
2, 46967, Note_on_c, 0, 63, 0
2, 46972, Note_on_c, 0, 70, 0
2, 46974, Note_on_c, 0, 48, 0
2, 47035, Note_on_c, 0, 70, 52
2, 47036, Note_on_c, 0, 41, 41
2, 47036, Note_on_c, 0, 48, 38
2, 47036, Note_on_c, 0, 56, 47
2, 47038, Note_on_c, 0, 63, 45
2, 47051, Note_on_c, 0, 56, 0
2, 47053, Note_on_c, 0, 63, 0
2, 47054, Note_on_c, 0, 48, 0
2, 47055, Note_on_c, 0, 41, 0
2, 47057, Note_on_c, 0, 70, 0
2, 47122, Note_on_c, 0, 70, 49
2, 47124, Note_on_c, 0, 56, 34
2, 47124, Note_on_c, 0, 48, 33
2, 47125, Note_on_c, 0, 41, 35
2, 47126, Note_on_c, 0, 63, 37
2, 47132, Control_c, 0, 64, 127
2, 47205, Note_on_c, 0, 41, 0
2, 47209, Note_on_c, 0, 48, 0
2, 47215, Note_on_c, 0, 56, 0
2, 47226, Note_on_c, 0, 63, 0
2, 47240, Note_on_c, 0, 70, 0
2, 47310, Control_c, 0, 64, 0
2, 47313, Note_on_c, 0, 53, 56
2, 47313, Note_on_c, 0, 70, 57
2, 47315, Note_on_c, 0, 61, 50
2, 47315, Note_on_c, 0, 43, 49
2, 47316, Note_on_c, 0, 65, 53
2, 47323, Note_on_c, 0, 61, 0
2, 47324, Note_on_c, 0, 65, 0
2, 47326, Note_on_c, 0, 53, 0
2, 47327, Note_on_c, 0, 43, 0
2, 47331, Note_on_c, 0, 70, 0
2, 47387, Note_on_c, 0, 70, 61
2, 47388, Note_on_c, 0, 61, 58
2, 47389, Note_on_c, 0, 43, 55
2, 47389, Note_on_c, 0, 65, 68
2, 47390, Note_on_c, 0, 53, 38
2, 47396, Note_on_c, 0, 65, 0
2, 47397, Note_on_c, 0, 61, 0
2, 47401, Note_on_c, 0, 53, 0
2, 47402, Note_on_c, 0, 70, 0
2, 47407, Note_on_c, 0, 43, 0
2, 47477, Note_on_c, 0, 48, 41
2, 47477, Note_on_c, 0, 47, 40
2, 47480, Note_on_c, 0, 70, 55
2, 47482, Note_on_c, 0, 64, 54
2, 47482, Note_on_c, 0, 61, 45
2, 47485, Note_on_c, 0, 47, 0
2, 47511, Control_c, 0, 64, 127
2, 47563, Note_on_c, 0, 36, 49
2, 47568, Note_on_c, 0, 48, 0
2, 47570, Note_on_c, 0, 36, 0
2, 47571, Note_on_c, 0, 64, 0
2, 47574, Note_on_c, 0, 70, 0
2, 47579, Note_on_c, 0, 61, 0
2, 47676, Note_on_c, 0, 50, 65
2, 47678, Note_on_c, 0, 65, 55
2, 47679, Note_on_c, 0, 58, 47
2, 47680, Note_on_c, 0, 55, 64
2, 47681, Note_on_c, 0, 62, 51
2, 47698, Note_on_c, 0, 55, 0
2, 47700, Note_on_c, 0, 50, 0
2, 47703, Note_on_c, 0, 62, 0
2, 47705, Note_on_c, 0, 58, 0
2, 47708, Note_on_c, 0, 65, 0
2, 47712, Control_c, 0, 64, 0
2, 47734, Note_on_c, 0, 49, 34
2, 47736, Note_on_c, 0, 64, 38
2, 47783, Control_c, 0, 64, 127
2, 47827, Note_on_c, 0, 64, 0
2, 47827, Note_on_c, 0, 49, 0
2, 47844, Control_c, 0, 64, 0
2, 47848, Note_on_c, 0, 48, 37
2, 47851, Note_on_c, 0, 56, 25
2, 47852, Note_on_c, 0, 65, 35
2, 47854, Note_on_c, 0, 60, 43
2, 47895, Control_c, 0, 64, 127
2, 47925, Note_on_c, 0, 41, 43
2, 47986, Note_on_c, 0, 56, 0
2, 48014, Note_on_c, 0, 41, 0
2, 48044, Note_on_c, 0, 60, 0
2, 48074, Note_on_c, 0, 48, 0
2, 48079, Note_on_c, 0, 41, 52
2, 48091, Control_c, 0, 64, 0
2, 48158, Note_on_c, 0, 57, 49
2, 48160, Note_on_c, 0, 61, 39
2, 48163, Note_on_c, 0, 49, 31
2, 48208, Control_c, 0, 64, 127
2, 48259, Note_on_c, 0, 41, 0
2, 48278, Note_on_c, 0, 57, 0
2, 48288, Note_on_c, 0, 49, 0
2, 48297, Note_on_c, 0, 61, 0
2, 48308, Note_on_c, 0, 41, 41
2, 48310, Control_c, 0, 64, 0
2, 48363, Control_c, 0, 64, 127
2, 48396, Control_c, 0, 64, 0
2, 48397, Note_on_c, 0, 50, 48
2, 48399, Note_on_c, 0, 60, 47
2, 48406, Note_on_c, 0, 50, 0
2, 48407, Note_on_c, 0, 60, 0
2, 48409, Note_on_c, 0, 65, 0
2, 48514, Note_on_c, 0, 46, 23
2, 48517, Note_on_c, 0, 58, 69
2, 48517, Note_on_c, 0, 55, 78
2, 48518, Note_on_c, 0, 65, 64
2, 48519, Note_on_c, 0, 41, 0
2, 48520, Note_on_c, 0, 62, 64
2, 48523, Note_on_c, 0, 46, 0
2, 48523, Note_on_c, 0, 47, 58
2, 48524, Note_on_c, 0, 48, 53
2, 48530, Note_on_c, 0, 47, 0
2, 48588, Control_c, 0, 64, 127
2, 48637, Note_on_c, 0, 36, 40
2, 48638, Note_on_c, 0, 55, 0
2, 48647, Note_on_c, 0, 36, 0
2, 48647, Control_c, 0, 64, 0
2, 48649, Note_on_c, 0, 65, 0
2, 48651, Note_on_c, 0, 62, 0
2, 48653, Note_on_c, 0, 48, 0
2, 48678, Note_on_c, 0, 55, 42
2, 48681, Note_on_c, 0, 64, 34
2, 48689, Control_c, 0, 64, 127
2, 48716, Note_on_c, 0, 58, 0
2, 48734, Note_on_c, 0, 55, 0
2, 48769, Note_on_c, 0, 64, 0
2, 48777, Control_c, 0, 64, 0
2, 48800, Note_on_c, 0, 41, 37
2, 48800, Note_on_c, 0, 48, 32
2, 48800, Note_on_c, 0, 65, 36
2, 48801, Note_on_c, 0, 56, 25
2, 48804, Note_on_c, 0, 60, 44
2, 48832, Control_c, 0, 64, 127
2, 48842, Note_on_c, 0, 41, 0
2, 48853, Note_on_c, 0, 48, 0
2, 48862, Note_on_c, 0, 56, 0
2, 48892, Note_on_c, 0, 65, 0
2, 48892, Note_on_c, 0, 60, 0
2, 49001, Note_on_c, 0, 65, 51
2, 49002, Note_on_c, 0, 61, 42
2, 49002, Note_on_c, 0, 57, 51
2, 49003, Note_on_c, 0, 54, 42
2, 49005, Note_on_c, 0, 63, 30
2, 49005, Note_on_c, 0, 47, 44
2, 49007, Control_c, 0, 64, 0
2, 49012, Note_on_c, 0, 57, 0
2, 49014, Note_on_c, 0, 63, 0
2, 49015, Note_on_c, 0, 61, 0
2, 49016, Note_on_c, 0, 47, 0
2, 49016, Note_on_c, 0, 65, 0
2, 49020, Note_on_c, 0, 54, 0
2, 49084, Note_on_c, 0, 65, 47
2, 49085, Note_on_c, 0, 61, 48
2, 49085, Note_on_c, 0, 54, 54
2, 49087, Note_on_c, 0, 63, 32
2, 49087, Note_on_c, 0, 57, 48
2, 49088, Note_on_c, 0, 47, 46
2, 49096, Note_on_c, 0, 57, 0
2, 49097, Note_on_c, 0, 47, 0
2, 49100, Note_on_c, 0, 63, 0
2, 49101, Note_on_c, 0, 65, 0
2, 49101, Note_on_c, 0, 61, 0
2, 49103, Note_on_c, 0, 54, 0
2, 49168, Note_on_c, 0, 54, 48
2, 49168, Note_on_c, 0, 61, 44
2, 49169, Note_on_c, 0, 63, 35
2, 49169, Note_on_c, 0, 65, 47
2, 49171, Note_on_c, 0, 47, 39
2, 49172, Note_on_c, 0, 57, 34
2, 49179, Note_on_c, 0, 65, 0
2, 49180, Note_on_c, 0, 47, 0
2, 49181, Note_on_c, 0, 57, 0
2, 49185, Note_on_c, 0, 61, 0
2, 49187, Note_on_c, 0, 63, 0
2, 49192, Note_on_c, 0, 54, 0
2, 49196, Control_c, 0, 64, 127
2, 49236, Control_c, 0, 64, 0
2, 49246, Note_on_c, 0, 63, 36
2, 49247, Note_on_c, 0, 56, 34
2, 49247, Note_on_c, 0, 65, 41
2, 49247, Note_on_c, 0, 53, 42
2, 49248, Note_on_c, 0, 46, 32
2, 49253, Note_on_c, 0, 60, 39
2, 49283, Control_c, 0, 64, 127
2, 49308, Note_on_c, 0, 56, 0
2, 49310, Note_on_c, 0, 60, 0
2, 49339, Note_on_c, 0, 63, 0
2, 49346, Note_on_c, 0, 65, 0
2, 49363, Note_on_c, 0, 60, 66
2, 49393, Note_on_c, 0, 53, 0
2, 49416, Note_on_c, 0, 46, 0
2, 49454, Note_on_c, 0, 60, 0
2, 49488, Note_on_c, 0, 63, 86
2, 49489, Note_on_c, 0, 59, 96
2, 49493, Note_on_c, 0, 54, 72
2, 49493, Note_on_c, 0, 44, 71
2, 49496, Note_on_c, 0, 61, 31
2, 49501, Control_c, 0, 64, 0
2, 49503, Note_on_c, 0, 61, 0
2, 49577, Control_c, 0, 64, 127
2, 49617, Note_on_c, 0, 63, 0
2, 49617, Note_on_c, 0, 59, 0
2, 49621, Note_on_c, 0, 54, 0
2, 49621, Note_on_c, 0, 44, 0
2, 49621, Control_c, 0, 64, 0
2, 49635, Note_on_c, 0, 62, 62
2, 49636, Note_on_c, 0, 59, 49
2, 49656, Control_c, 0, 64, 127
2, 49701, Note_on_c, 0, 62, 0
2, 49703, Note_on_c, 0, 59, 0
2, 49757, Control_c, 0, 64, 0
2, 49762, Note_on_c, 0, 53, 44
2, 49762, Note_on_c, 0, 64, 49
2, 49763, Note_on_c, 0, 67, 48
2, 49763, Note_on_c, 0, 43, 39
2, 49765, Note_on_c, 0, 59, 36
2, 49832, Note_on_c, 0, 64, 0
2, 49838, Note_on_c, 0, 63, 51
2, 49875, Note_on_c, 0, 63, 0
2, 49884, Note_on_c, 0, 62, 44
2, 49902, Note_on_c, 0, 43, 0
2, 49931, Note_on_c, 0, 62, 0
2, 49932, Control_c, 0, 64, 127
2, 49937, Note_on_c, 0, 59, 0
2, 49941, Note_on_c, 0, 53, 0
2, 49955, Note_on_c, 0, 43, 37
2, 49962, Note_on_c, 0, 67, 0
2, 49971, Note_on_c, 0, 43, 0
2, 49991, Control_c, 0, 64, 0
2, 49996, Note_on_c, 0, 62, 38
2, 49998, Note_on_c, 0, 58, 39
2, 49999, Note_on_c, 0, 53, 38
2, 50064, Control_c, 0, 64, 127
2, 50065, Note_on_c, 0, 62, 0
2, 50067, Note_on_c, 0, 53, 0
2, 50073, Note_on_c, 0, 58, 0
2, 50084, Note_on_c, 0, 47, 36
2, 50099, Note_on_c, 0, 47, 0
2, 50100, Control_c, 0, 64, 0
2, 50111, Note_on_c, 0, 61, 39
2, 50111, Note_on_c, 0, 58, 48
2, 50114, Note_on_c, 0, 53, 38
2, 50170, Control_c, 0, 64, 127
2, 50176, Note_on_c, 0, 53, 0
2, 50187, Note_on_c, 0, 58, 0
2, 50192, Note_on_c, 0, 61, 0
2, 50192, Note_on_c, 0, 48, 30
2, 50209, Note_on_c, 0, 48, 0
2, 50212, Control_c, 0, 64, 0
2, 50229, Note_on_c, 0, 53, 39
2, 50229, Note_on_c, 0, 56, 37
2, 50231, Note_on_c, 0, 60, 50
2, 50231, Note_on_c, 0, 41, 50
2, 50247, Note_on_c, 0, 53, 0
2, 50250, Note_on_c, 0, 56, 0
2, 50252, Control_c, 0, 64, 127
2, 50254, Note_on_c, 0, 60, 0
2, 50315, Note_on_c, 0, 70, 71
2, 50316, Note_on_c, 0, 63, 69
2, 50316, Note_on_c, 0, 67, 70
2, 50317, Note_on_c, 0, 60, 76
2, 50318, Note_on_c, 0, 48, 55
2, 50320, Control_c, 0, 64, 0
2, 50340, Note_on_c, 0, 41, 0
2, 50353, Control_c, 0, 64, 127
2, 50366, Note_on_c, 0, 48, 0
2, 50407, Note_on_c, 0, 67, 0
2, 50421, Note_on_c, 0, 60, 0
2, 50431, Note_on_c, 0, 63, 0
2, 50436, Note_on_c, 0, 70, 0
2, 50476, Note_on_c, 0, 70, 60
2, 50479, Note_on_c, 0, 63, 51
2, 50481, Note_on_c, 0, 65, 44
2, 50481, Note_on_c, 0, 58, 63
2, 50482, Note_on_c, 0, 60, 42
2, 50483, Control_c, 0, 64, 0
2, 50561, Note_on_c, 0, 46, 38
2, 50567, Control_c, 0, 64, 127
2, 50587, Note_on_c, 0, 58, 0
2, 50635, Note_on_c, 0, 60, 0
2, 50637, Note_on_c, 0, 65, 0
2, 50645, Note_on_c, 0, 70, 0
2, 50651, Note_on_c, 0, 63, 0
2, 50674, Note_on_c, 0, 69, 31
2, 50702, Note_on_c, 0, 69, 0
2, 50725, Note_on_c, 0, 70, 60
2, 50728, Control_c, 0, 64, 0
2, 50732, Note_on_c, 0, 55, 28
2, 50775, Note_on_c, 0, 46, 0
2, 50799, Note_on_c, 0, 46, 36
2, 50803, Note_on_c, 0, 58, 26
2, 50806, Note_on_c, 0, 67, 32
2, 50853, Note_on_c, 0, 55, 0
2, 50884, Note_on_c, 0, 55, 46
2, 50907, Note_on_c, 0, 55, 0
2, 50916, Control_c, 0, 64, 127
2, 50917, Note_on_c, 0, 54, 43
2, 50940, Control_c, 0, 64, 0
2, 50949, Note_on_c, 0, 67, 0
2, 50953, Note_on_c, 0, 54, 0
2, 50960, Note_on_c, 0, 55, 51
2, 50980, Control_c, 0, 64, 127
2, 51004, Note_on_c, 0, 46, 0
2, 51036, Note_on_c, 0, 46, 56
2, 51064, Note_on_c, 0, 58, 0
2, 51090, Note_on_c, 0, 70, 0
2, 51094, Note_on_c, 0, 55, 0
2, 51193, Note_on_c, 0, 67, 53
2, 51194, Control_c, 0, 64, 0
2, 51194, Note_on_c, 0, 58, 35
2, 51195, Note_on_c, 0, 62, 45
2, 51196, Note_on_c, 0, 55, 27
2, 51266, Note_on_c, 0, 58, 0
2, 51266, Note_on_c, 0, 67, 0
2, 51272, Note_on_c, 0, 62, 0
2, 51273, Note_on_c, 0, 55, 0
2, 51284, Note_on_c, 0, 54, 21
2, 51315, Note_on_c, 0, 54, 0
2, 51318, Note_on_c, 0, 55, 42
2, 51319, Note_on_c, 0, 67, 38
2, 51321, Note_on_c, 0, 62, 40
2, 51355, Control_c, 0, 64, 127
2, 51359, Note_on_c, 0, 62, 0
2, 51368, Note_on_c, 0, 67, 0
2, 51397, Note_on_c, 0, 55, 0
2, 51432, Control_c, 0, 64, 0
2, 51437, Note_on_c, 0, 70, 57
2, 51438, Note_on_c, 0, 62, 51
2, 51438, Note_on_c, 0, 65, 63
2, 51439, Note_on_c, 0, 55, 40
2, 51503, Control_c, 0, 64, 127
2, 51516, Note_on_c, 0, 65, 0
2, 51532, Note_on_c, 0, 62, 0
2, 51532, Note_on_c, 0, 70, 0
2, 51542, Control_c, 0, 64, 0
2, 51551, Note_on_c, 0, 55, 0
2, 51553, Note_on_c, 0, 54, 37
2, 51557, Note_on_c, 0, 69, 41
2, 51560, Note_on_c, 0, 60, 28
2, 51562, Note_on_c, 0, 64, 27
2, 51589, Control_c, 0, 64, 127
2, 51602, Note_on_c, 0, 69, 0
2, 51604, Note_on_c, 0, 60, 0
2, 51606, Note_on_c, 0, 64, 0
2, 51638, Note_on_c, 0, 70, 69
2, 51639, Note_on_c, 0, 65, 62
2, 51640, Note_on_c, 0, 62, 60
2, 51641, Note_on_c, 0, 55, 61
2, 51644, Control_c, 0, 64, 0
2, 51645, Note_on_c, 0, 54, 0
2, 51710, Control_c, 0, 64, 127
2, 51749, Note_on_c, 0, 65, 0
2, 51752, Note_on_c, 0, 70, 0
2, 51761, Note_on_c, 0, 62, 0
2, 51783, Control_c, 0, 64, 0
2, 51794, Note_on_c, 0, 54, 29
2, 51795, Note_on_c, 0, 69, 36
2, 51798, Note_on_c, 0, 60, 31
2, 51802, Note_on_c, 0, 55, 0
2, 51809, Note_on_c, 0, 64, 19
2, 51818, Control_c, 0, 64, 127
2, 51831, Note_on_c, 0, 69, 0
2, 51832, Note_on_c, 0, 60, 0
2, 51835, Note_on_c, 0, 64, 0
2, 51875, Note_on_c, 0, 70, 67
2, 51878, Note_on_c, 0, 62, 58
2, 51878, Note_on_c, 0, 65, 62
2, 51880, Note_on_c, 0, 55, 57
2, 51882, Control_c, 0, 64, 0
2, 51891, Note_on_c, 0, 54, 0
2, 51919, Control_c, 0, 64, 127
2, 51979, Note_on_c, 0, 65, 0
2, 51991, Note_on_c, 0, 70, 0
2, 51993, Note_on_c, 0, 62, 0
2, 52027, Note_on_c, 0, 55, 0
2, 52027, Note_on_c, 0, 54, 33
2, 52036, Note_on_c, 0, 69, 33
2, 52042, Note_on_c, 0, 64, 32
2, 52051, Note_on_c, 0, 69, 0
2, 52058, Note_on_c, 0, 64, 0
2, 52060, Note_on_c, 0, 46, 0
2, 52096, Note_on_c, 0, 54, 0
2, 52113, Note_on_c, 0, 61, 36
2, 52113, Note_on_c, 0, 46, 34
2, 52115, Note_on_c, 0, 70, 43
2, 52116, Note_on_c, 0, 56, 27
2, 52116, Control_c, 0, 64, 0
2, 52117, Note_on_c, 0, 65, 46
2, 52151, Control_c, 0, 64, 127
2, 52276, Note_on_c, 0, 56, 0
2, 52284, Note_on_c, 0, 65, 0
2, 52290, Note_on_c, 0, 70, 0
2, 52294, Note_on_c, 0, 61, 0
2, 52295, Note_on_c, 0, 46, 0
2, 52473, Note_on_c, 0, 68, 59
2, 52476, Control_c, 0, 64, 0
2, 52479, Note_on_c, 0, 63, 34
2, 52479, Note_on_c, 0, 51, 40
2, 52480, Note_on_c, 0, 44, 36
2, 52483, Note_on_c, 0, 60, 24
2, 52489, Note_on_c, 0, 51, 0
2, 52497, Note_on_c, 0, 44, 0
2, 52500, Note_on_c, 0, 60, 0
2, 52504, Note_on_c, 0, 68, 0
2, 52509, Note_on_c, 0, 63, 0
2, 52527, Note_on_c, 0, 67, 45
2, 52535, Control_c, 0, 64, 127
2, 52573, Note_on_c, 0, 67, 0
2, 52595, Control_c, 0, 64, 0
2, 52595, Note_on_c, 0, 65, 42
2, 52597, Note_on_c, 0, 55, 43
2, 52600, Note_on_c, 0, 60, 37
2, 52604, Note_on_c, 0, 44, 36
2, 52614, Note_on_c, 0, 55, 0
2, 52622, Note_on_c, 0, 60, 0
2, 52626, Note_on_c, 0, 44, 0
2, 52626, Control_c, 0, 64, 127
2, 52636, Note_on_c, 0, 65, 0
2, 52708, Note_on_c, 0, 53, 55
2, 52710, Note_on_c, 0, 79, 43
2, 52710, Note_on_c, 0, 63, 47
2, 52712, Note_on_c, 0, 77, 57
2, 52718, Note_on_c, 0, 58, 30
2, 52718, Control_c, 0, 64, 0
2, 52729, Note_on_c, 0, 63, 0
2, 52732, Note_on_c, 0, 53, 0
2, 52733, Note_on_c, 0, 79, 0
2, 52738, Note_on_c, 0, 77, 0
2, 52744, Note_on_c, 0, 58, 0
2, 52794, Note_on_c, 0, 75, 52
2, 52800, Control_c, 0, 64, 127
2, 52817, Note_on_c, 0, 75, 0
2, 52826, Control_c, 0, 64, 0
2, 52832, Note_on_c, 0, 77, 55
2, 52834, Note_on_c, 0, 65, 36
2, 52838, Note_on_c, 0, 55, 30
2, 52838, Note_on_c, 0, 60, 34
2, 52858, Note_on_c, 0, 77, 0
2, 52871, Note_on_c, 0, 79, 58
2, 52911, Note_on_c, 0, 79, 0
2, 52923, Control_c, 0, 64, 127
2, 52928, Control_c, 0, 64, 0
2, 52940, Note_on_c, 0, 82, 61
2, 52960, Note_on_c, 0, 82, 0
2, 52972, Note_on_c, 0, 65, 0
2, 52983, Note_on_c, 0, 84, 53
2, 52984, Note_on_c, 0, 60, 0
2, 52986, Note_on_c, 0, 55, 0
2, 52995, Note_on_c, 0, 84, 0
2, 53018, Note_on_c, 0, 85, 55
2, 53026, Note_on_c, 0, 85, 0
2, 53032, Control_c, 0, 64, 127
2, 53051, Control_c, 0, 64, 0
2, 53060, Note_on_c, 0, 61, 31
2, 53063, Note_on_c, 0, 55, 45
2, 53064, Note_on_c, 0, 89, 65
2, 53068, Note_on_c, 0, 58, 28
2, 53083, Note_on_c, 0, 89, 0
2, 53083, Note_on_c, 0, 61, 0
2, 53087, Note_on_c, 0, 55, 0
2, 53090, Note_on_c, 0, 58, 0
2, 53107, Note_on_c, 0, 94, 57
2, 53128, Note_on_c, 0, 94, 0
2, 53145, Note_on_c, 0, 96, 79
2, 53166, Note_on_c, 0, 96, 0
2, 53183, Note_on_c, 0, 97, 79
2, 53194, Note_on_c, 0, 43, 34
2, 53203, Note_on_c, 0, 97, 0
2, 53204, Note_on_c, 0, 43, 0
2, 53226, Note_on_c, 0, 99, 74
2, 53232, Control_c, 0, 64, 127
2, 53252, Note_on_c, 0, 99, 0
2, 53266, Note_on_c, 0, 100, 80
2, 53292, Note_on_c, 0, 100, 0
2, 53327, Control_c, 0, 64, 0
2, 53348, Note_on_c, 0, 48, 52
2, 53352, Note_on_c, 0, 58, 27
2, 53358, Note_on_c, 0, 48, 0
2, 53362, Control_c, 0, 64, 127
2, 53374, Note_on_c, 0, 58, 0
2, 53435, Note_on_c, 0, 63, 65
2, 53439, Note_on_c, 0, 52, 61
2, 53439, Note_on_c, 0, 58, 56
2, 53444, Control_c, 0, 64, 0
2, 53479, Control_c, 0, 64, 127
2, 53551, Note_on_c, 0, 52, 0
2, 53561, Note_on_c, 0, 58, 0
2, 53561, Note_on_c, 0, 63, 0
2, 53594, Control_c, 0, 64, 0
2, 53598, Note_on_c, 0, 60, 51
2, 53600, Note_on_c, 0, 56, 37
2, 53601, Note_on_c, 0, 53, 41
2, 53640, Control_c, 0, 64, 127
2, 53676, Note_on_c, 0, 77, 69
2, 53677, Note_on_c, 0, 72, 71
2, 53678, Note_on_c, 0, 68, 59
2, 53700, Note_on_c, 0, 60, 0
2, 53708, Note_on_c, 0, 77, 0
2, 53710, Note_on_c, 0, 56, 0
2, 53713, Note_on_c, 0, 72, 0
2, 53717, Note_on_c, 0, 68, 0
2, 53720, Note_on_c, 0, 53, 0
2, 53799, Note_on_c, 0, 70, 67
2, 53800, Note_on_c, 0, 58, 67
2, 53801, Note_on_c, 0, 63, 68
2, 53803, Note_on_c, 0, 67, 56
2, 53804, Note_on_c, 0, 60, 68
2, 53821, Control_c, 0, 64, 0
2, 53823, Note_on_c, 0, 60, 0
2, 53824, Note_on_c, 0, 67, 0
2, 53825, Note_on_c, 0, 63, 0
2, 53828, Note_on_c, 0, 58, 0
2, 53830, Note_on_c, 0, 70, 0
2, 53851, Note_on_c, 0, 56, 38
2, 53911, Note_on_c, 0, 56, 0
2, 53916, Note_on_c, 0, 70, 69
2, 53917, Note_on_c, 0, 58, 55
2, 53919, Note_on_c, 0, 63, 71
2, 53923, Note_on_c, 0, 60, 55
2, 53925, Control_c, 0, 64, 127
2, 53932, Note_on_c, 0, 58, 0
2, 53933, Note_on_c, 0, 60, 0
2, 53936, Note_on_c, 0, 70, 0
2, 53937, Note_on_c, 0, 63, 0
2, 53947, Control_c, 0, 64, 0
2, 54016, Note_on_c, 0, 66, 61
2, 54018, Note_on_c, 0, 63, 51
2, 54018, Note_on_c, 0, 61, 48
2, 54020, Note_on_c, 0, 57, 45
2, 54021, Note_on_c, 0, 47, 53
2, 54024, Note_on_c, 0, 54, 37
2, 54044, Control_c, 0, 64, 127
2, 54050, Note_on_c, 0, 57, 0
2, 54053, Note_on_c, 0, 47, 0
2, 54061, Note_on_c, 0, 61, 0
2, 54073, Note_on_c, 0, 66, 0
2, 54080, Note_on_c, 0, 63, 0
2, 54084, Note_on_c, 0, 54, 0
2, 54086, Control_c, 0, 64, 0
2, 54092, Note_on_c, 0, 46, 45
2, 54093, Note_on_c, 0, 65, 53
2, 54095, Note_on_c, 0, 53, 47
2, 54097, Note_on_c, 0, 56, 32
2, 54099, Note_on_c, 0, 63, 34
2, 54108, Note_on_c, 0, 60, 20
2, 54124, Control_c, 0, 64, 127
2, 54131, Note_on_c, 0, 60, 0
2, 54133, Note_on_c, 0, 56, 0
2, 54138, Note_on_c, 0, 65, 0
2, 54154, Note_on_c, 0, 63, 0
2, 54170, Note_on_c, 0, 68, 71
2, 54171, Note_on_c, 0, 63, 56
2, 54172, Note_on_c, 0, 60, 74
2, 54175, Note_on_c, 0, 56, 55
2, 54176, Control_c, 0, 64, 0
2, 54207, Control_c, 0, 64, 127
2, 54241, Note_on_c, 0, 56, 0
2, 54242, Note_on_c, 0, 53, 0
2, 54245, Note_on_c, 0, 63, 0
2, 54252, Note_on_c, 0, 60, 0
2, 54253, Note_on_c, 0, 68, 0
2, 54258, Note_on_c, 0, 46, 0
2, 54309, Control_c, 0, 64, 0
2, 54316, Note_on_c, 0, 54, 42
2, 54317, Note_on_c, 0, 67, 56
2, 54317, Note_on_c, 0, 60, 60
2, 54318, Note_on_c, 0, 44, 37
2, 54318, Note_on_c, 0, 62, 51
2, 54355, Control_c, 0, 64, 127
2, 54445, Note_on_c, 0, 54, 0
2, 54465, Note_on_c, 0, 44, 0
2, 54476, Note_on_c, 0, 67, 0
2, 54481, Note_on_c, 0, 62, 0
2, 54495, Note_on_c, 0, 65, 58
2, 54509, Note_on_c, 0, 60, 0
2, 54516, Note_on_c, 0, 65, 0
2, 54630, Note_on_c, 0, 63, 52
2, 54632, Note_on_c, 0, 54, 48
2, 54633, Note_on_c, 0, 43, 50
2, 54636, Control_c, 0, 64, 0
2, 54638, Note_on_c, 0, 59, 46
2, 54673, Note_on_c, 0, 63, 0
2, 54685, Note_on_c, 0, 62, 44
2, 54691, Control_c, 0, 64, 127
2, 54694, Note_on_c, 0, 43, 0
2, 54709, Note_on_c, 0, 59, 0
2, 54732, Note_on_c, 0, 54, 0
2, 54765, Note_on_c, 0, 62, 0
2, 54794, Control_c, 0, 64, 0
2, 54796, Note_on_c, 0, 63, 42
2, 54797, Note_on_c, 0, 53, 39
2, 54799, Note_on_c, 0, 43, 47
2, 54800, Note_on_c, 0, 59, 37
2, 54861, Control_c, 0, 64, 127
2, 54900, Note_on_c, 0, 63, 0
2, 54914, Note_on_c, 0, 62, 44
2, 54922, Note_on_c, 0, 53, 0
2, 54932, Note_on_c, 0, 59, 0
2, 54973, Note_on_c, 0, 62, 0
2, 54996, Note_on_c, 0, 63, 39
2, 54997, Note_on_c, 0, 36, 40
2, 54999, Control_c, 0, 64, 0
2, 55002, Note_on_c, 0, 58, 38
2, 55004, Note_on_c, 0, 55, 44
2, 55007, Note_on_c, 0, 48, 17
2, 55010, Note_on_c, 0, 43, 0
2, 55030, Control_c, 0, 64, 127
2, 55038, Note_on_c, 0, 55, 0
2, 55049, Note_on_c, 0, 63, 0
2, 55058, Note_on_c, 0, 58, 0
2, 55065, Note_on_c, 0, 48, 0
2, 55109, Note_on_c, 0, 36, 0
2, 55232, Note_on_c, 0, 51, 33
2, 55235, Note_on_c, 0, 67, 58
2, 55235, Note_on_c, 0, 63, 49
2, 55236, Note_on_c, 0, 58, 56
2, 55258, Note_on_c, 0, 51, 0
2, 55269, Note_on_c, 0, 67, 0
2, 55274, Note_on_c, 0, 63, 0
2, 55275, Note_on_c, 0, 58, 0
2, 55286, Control_c, 0, 64, 0
2, 55287, Note_on_c, 0, 51, 32
2, 55290, Note_on_c, 0, 65, 50
2, 55294, Note_on_c, 0, 41, 31
2, 55295, Note_on_c, 0, 62, 34
2, 55296, Note_on_c, 0, 57, 42
2, 55329, Note_on_c, 0, 62, 0
2, 55339, Note_on_c, 0, 57, 0
2, 55340, Note_on_c, 0, 51, 0
2, 55341, Control_c, 0, 64, 127
2, 55359, Control_c, 0, 64, 0
2, 55361, Note_on_c, 0, 65, 0
2, 55366, Note_on_c, 0, 63, 46
2, 55369, Note_on_c, 0, 51, 31
2, 55370, Note_on_c, 0, 41, 0
2, 55372, Note_on_c, 0, 57, 24
2, 55380, Note_on_c, 0, 57, 0
2, 55387, Note_on_c, 0, 51, 0
2, 55388, Note_on_c, 0, 63, 0
2, 55432, Control_c, 0, 64, 127
2, 55477, Note_on_c, 0, 62, 54
2, 55478, Note_on_c, 0, 53, 32
2, 55479, Note_on_c, 0, 46, 32
2, 55481, Note_on_c, 0, 58, 39
2, 55485, Control_c, 0, 64, 0
2, 55527, Control_c, 0, 64, 127
2, 55529, Note_on_c, 0, 53, 0
2, 55573, Note_on_c, 0, 58, 0
2, 55580, Note_on_c, 0, 62, 0
2, 55599, Note_on_c, 0, 61, 30
2, 55624, Note_on_c, 0, 61, 0
2, 55642, Note_on_c, 0, 62, 51
2, 55644, Control_c, 0, 64, 0
2, 55646, Note_on_c, 0, 58, 32
2, 55680, Note_on_c, 0, 58, 0
2, 55688, Control_c, 0, 64, 127
2, 55690, Note_on_c, 0, 46, 0
2, 55700, Note_on_c, 0, 62, 0
2, 55719, Note_on_c, 0, 61, 31
2, 55721, Note_on_c, 0, 46, 23
2, 55738, Control_c, 0, 64, 0
2, 55746, Note_on_c, 0, 61, 0
2, 55747, Note_on_c, 0, 53, 17
2, 55757, Note_on_c, 0, 62, 60
2, 55761, Note_on_c, 0, 58, 37
2, 55764, Note_on_c, 0, 61, 23
2, 55767, Control_c, 0, 64, 127
2, 55789, Note_on_c, 0, 61, 0
2, 55793, Note_on_c, 0, 46, 0
2, 55793, Note_on_c, 0, 53, 0
2, 55812, Note_on_c, 0, 62, 0
2, 55817, Note_on_c, 0, 58, 0
2, 55837, Note_on_c, 0, 63, 37
2, 55840, Note_on_c, 0, 46, 28
2, 55857, Note_on_c, 0, 63, 0
2, 55859, Note_on_c, 0, 46, 0
2, 55866, Control_c, 0, 64, 0
2, 55877, Note_on_c, 0, 46, 36
2, 55879, Note_on_c, 0, 65, 56
2, 55885, Note_on_c, 0, 53, 27
2, 55886, Control_c, 0, 64, 127
2, 55906, Note_on_c, 0, 65, 0
2, 55937, Note_on_c, 0, 46, 0
2, 55955, Note_on_c, 0, 53, 0
2, 55990, Control_c, 0, 64, 0
2, 55998, Note_on_c, 0, 56, 37
2, 56000, Note_on_c, 0, 63, 37
2, 56000, Note_on_c, 0, 46, 43
2, 56001, Note_on_c, 0, 67, 44
2, 56002, Note_on_c, 0, 60, 50
2, 56036, Control_c, 0, 64, 127
2, 56109, Note_on_c, 0, 60, 0
2, 56122, Note_on_c, 0, 46, 0
2, 56126, Note_on_c, 0, 56, 0
2, 56167, Note_on_c, 0, 63, 0
2, 56203, Note_on_c, 0, 62, 68
2, 56205, Note_on_c, 0, 57, 62
2, 56209, Note_on_c, 0, 47, 52
2, 56213, Control_c, 0, 64, 0
2, 56246, Control_c, 0, 64, 127
2, 56280, Note_on_c, 0, 47, 0
2, 56286, Note_on_c, 0, 57, 0
2, 56291, Note_on_c, 0, 62, 0
2, 56363, Note_on_c, 0, 56, 42
2, 56424, Note_on_c, 0, 56, 0
2, 56464, Control_c, 0, 64, 0
2, 56475, Note_on_c, 0, 46, 32
2, 56484, Note_on_c, 0, 46, 0
2, 56486, Control_c, 0, 64, 127
2, 56487, Note_on_c, 0, 67, 0
2, 56561, Note_on_c, 0, 56, 29
2, 56561, Note_on_c, 0, 60, 47
2, 56562, Note_on_c, 0, 65, 33
2, 56565, Note_on_c, 0, 61, 30
2, 56572, Control_c, 0, 64, 0
2, 56611, Note_on_c, 0, 72, 47
2, 56633, Note_on_c, 0, 72, 0
2, 56645, Control_c, 0, 64, 127
2, 56646, Note_on_c, 0, 69, 48
2, 56667, Control_c, 0, 64, 0
2, 56668, Note_on_c, 0, 69, 0
2, 56684, Note_on_c, 0, 70, 36
2, 56704, Note_on_c, 0, 70, 0
2, 56722, Note_on_c, 0, 72, 42
2, 56727, Note_on_c, 0, 65, 0
2, 56736, Note_on_c, 0, 72, 0
2, 56757, Note_on_c, 0, 73, 35
2, 56775, Note_on_c, 0, 73, 0
2, 56776, Note_on_c, 0, 60, 0
2, 56784, Note_on_c, 0, 61, 0
2, 56791, Note_on_c, 0, 75, 62
2, 56808, Note_on_c, 0, 65, 27
2, 56810, Note_on_c, 0, 61, 9
2, 56811, Note_on_c, 0, 75, 0
2, 56823, Note_on_c, 0, 65, 0
2, 56829, Note_on_c, 0, 77, 46
2, 56850, Note_on_c, 0, 61, 0
2, 56853, Note_on_c, 0, 77, 0
2, 56857, Note_on_c, 0, 56, 0
2, 56863, Note_on_c, 0, 79, 49
2, 56866, Control_c, 0, 64, 127
2, 56881, Note_on_c, 0, 79, 0
2, 56890, Control_c, 0, 64, 0
2, 56905, Note_on_c, 0, 80, 64
2, 56907, Note_on_c, 0, 61, 35
2, 56924, Note_on_c, 0, 61, 0
2, 56929, Note_on_c, 0, 80, 0
2, 56943, Control_c, 0, 64, 127
2, 56949, Note_on_c, 0, 82, 50
2, 56967, Note_on_c, 0, 82, 0
2, 56985, Note_on_c, 0, 84, 62
2, 56997, Note_on_c, 0, 84, 0
2, 57005, Control_c, 0, 64, 0
2, 57022, Note_on_c, 0, 27, 65
2, 57023, Note_on_c, 0, 39, 36
2, 57026, Note_on_c, 0, 85, 69
2, 57041, Note_on_c, 0, 39, 0
2, 57041, Note_on_c, 0, 27, 0
2, 57056, Control_c, 0, 64, 127
2, 57140, Note_on_c, 0, 87, 62
2, 57146, Note_on_c, 0, 85, 0
2, 57165, Note_on_c, 0, 87, 0
2, 57175, Note_on_c, 0, 88, 66
2, 57201, Control_c, 0, 64, 0
2, 57205, Note_on_c, 0, 61, 25
2, 57207, Note_on_c, 0, 88, 0
2, 57214, Note_on_c, 0, 90, 54
2, 57215, Note_on_c, 0, 58, 21
2, 57227, Note_on_c, 0, 61, 0
2, 57230, Note_on_c, 0, 58, 0
2, 57232, Note_on_c, 0, 90, 0
2, 57252, Note_on_c, 0, 91, 64
2, 57265, Control_c, 0, 64, 127
2, 57270, Note_on_c, 0, 91, 0
2, 57287, Note_on_c, 0, 92, 81
2, 57290, Control_c, 0, 64, 0
2, 57325, Control_c, 0, 64, 127
2, 57345, Note_on_c, 0, 92, 0
2, 57367, Note_on_c, 0, 93, 49
2, 57381, Note_on_c, 0, 93, 0
2, 57398, Note_on_c, 0, 94, 61
2, 57422, Note_on_c, 0, 94, 0
2, 57431, Note_on_c, 0, 96, 62
2, 57447, Note_on_c, 0, 96, 0
2, 57459, Note_on_c, 0, 60, 44
2, 57459, Control_c, 0, 64, 0
2, 57461, Note_on_c, 0, 53, 50
2, 57463, Note_on_c, 0, 56, 27
2, 57473, Note_on_c, 0, 101, 56
2, 57480, Note_on_c, 0, 101, 0
2, 57514, Control_c, 0, 64, 127
2, 57612, Note_on_c, 0, 60, 0
2, 57676, Note_on_c, 0, 53, 0
2, 57679, Note_on_c, 0, 56, 0
2, 57766, Note_on_c, 0, 45, 66
2, 57787, Note_on_c, 0, 45, 0
2, 57793, Control_c, 0, 64, 0
2, 57841, Control_c, 0, 64, 127
2, 57850, Note_on_c, 0, 65, 60
2, 57854, Note_on_c, 0, 57, 42
2, 57863, Note_on_c, 0, 57, 0
2, 57887, Note_on_c, 0, 63, 33
2, 57895, Note_on_c, 0, 65, 0
2, 57903, Note_on_c, 0, 63, 0
2, 57914, Note_on_c, 0, 65, 60
2, 57915, Note_on_c, 0, 46, 43
2, 57916, Control_c, 0, 64, 0
2, 57920, Note_on_c, 0, 56, 30
2, 57922, Note_on_c, 0, 63, 40
2, 57964, Note_on_c, 0, 65, 0
2, 57969, Note_on_c, 0, 56, 0
2, 57971, Control_c, 0, 64, 127
2, 57978, Note_on_c, 0, 63, 0
2, 57989, Note_on_c, 0, 60, 1
2, 57989, Note_on_c, 0, 68, 55
2, 57990, Note_on_c, 0, 63, 25
2, 57990, Note_on_c, 0, 56, 33
2, 57991, Control_c, 0, 64, 0
2, 58009, Control_c, 0, 64, 127
2, 58046, Note_on_c, 0, 60, 0
2, 58051, Note_on_c, 0, 56, 0
2, 58057, Note_on_c, 0, 46, 0
2, 58073, Note_on_c, 0, 68, 0
2, 58073, Note_on_c, 0, 63, 0
2, 58145, Note_on_c, 0, 67, 57
2, 58147, Note_on_c, 0, 44, 35
2, 58149, Note_on_c, 0, 51, 32
2, 58150, Control_c, 0, 64, 0
2, 58150, Note_on_c, 0, 60, 44
2, 58154, Note_on_c, 0, 55, 26
2, 58155, Note_on_c, 0, 53, 25
2, 58171, Note_on_c, 0, 55, 0
2, 58171, Note_on_c, 0, 51, 0
2, 58172, Note_on_c, 0, 60, 0
2, 58172, Note_on_c, 0, 53, 0
2, 58177, Note_on_c, 0, 44, 0
2, 58183, Note_on_c, 0, 67, 0
2, 58266, Note_on_c, 0, 44, 36
2, 58266, Note_on_c, 0, 65, 37
2, 58267, Note_on_c, 0, 51, 34
2, 58269, Note_on_c, 0, 60, 43
2, 58273, Note_on_c, 0, 53, 19
2, 58286, Note_on_c, 0, 53, 0
2, 58292, Note_on_c, 0, 60, 0
2, 58304, Note_on_c, 0, 51, 0
2, 58309, Note_on_c, 0, 44, 0
2, 58311, Note_on_c, 0, 65, 0
2, 58342, Control_c, 0, 64, 127
2, 58384, Control_c, 0, 64, 0
2, 58395, Note_on_c, 0, 64, 44
2, 58395, Note_on_c, 0, 59, 45
2, 58397, Note_on_c, 0, 53, 41
2, 58398, Note_on_c, 0, 67, 40
2, 58401, Note_on_c, 0, 43, 32
2, 58448, Control_c, 0, 64, 127
2, 58449, Note_on_c, 0, 64, 0
2, 58460, Note_on_c, 0, 67, 0
2, 58464, Note_on_c, 0, 59, 0
2, 58480, Note_on_c, 0, 53, 0
2, 58480, Note_on_c, 0, 66, 29
2, 58483, Note_on_c, 0, 52, 45
2, 58499, Note_on_c, 0, 66, 0
2, 58513, Note_on_c, 0, 52, 0
2, 58518, Control_c, 0, 64, 0
2, 58520, Note_on_c, 0, 67, 38
2, 58521, Note_on_c, 0, 53, 43
2, 58523, Note_on_c, 0, 59, 22
2, 58525, Note_on_c, 0, 64, 51
2, 58559, Note_on_c, 0, 64, 0
2, 58577, Note_on_c, 0, 67, 0
2, 58589, Note_on_c, 0, 53, 0
2, 58594, Control_c, 0, 64, 127
2, 58596, Note_on_c, 0, 66, 37
2, 58605, Note_on_c, 0, 52, 30
2, 58611, Note_on_c, 0, 59, 0
2, 58618, Note_on_c, 0, 66, 0
2, 58620, Control_c, 0, 64, 0
2, 58628, Note_on_c, 0, 52, 0
2, 58638, Note_on_c, 0, 67, 46
2, 58639, Note_on_c, 0, 59, 35
2, 58640, Note_on_c, 0, 53, 44
2, 58641, Note_on_c, 0, 63, 32
2, 58673, Note_on_c, 0, 43, 0
2, 58673, Control_c, 0, 64, 127
2, 58717, Note_on_c, 0, 43, 51
2, 58728, Note_on_c, 0, 53, 0
2, 58792, Note_on_c, 0, 67, 0
2, 58795, Note_on_c, 0, 59, 0
2, 58815, Note_on_c, 0, 45, 17
2, 58820, Note_on_c, 0, 63, 0
2, 58837, Note_on_c, 0, 43, 0
2, 58850, Note_on_c, 0, 46, 23
2, 58862, Note_on_c, 0, 46, 0
2, 58864, Note_on_c, 0, 45, 0
2, 58867, Note_on_c, 0, 47, 46
2, 58868, Note_on_c, 0, 48, 40
2, 58871, Note_on_c, 0, 67, 63
2, 58871, Control_c, 0, 64, 0
2, 58875, Note_on_c, 0, 47, 0
2, 58876, Note_on_c, 0, 62, 59
2, 58877, Note_on_c, 0, 58, 48
2, 58941, Note_on_c, 0, 67, 0
2, 58947, Note_on_c, 0, 48, 0
2, 58949, Note_on_c, 0, 62, 0
2, 58953, Note_on_c, 0, 58, 0
2, 58965, Note_on_c, 0, 47, 37
2, 58987, Note_on_c, 0, 47, 0
2, 58991, Note_on_c, 0, 48, 46
2, 58992, Note_on_c, 0, 67, 54
2, 58994, Note_on_c, 0, 62, 54
2, 58995, Note_on_c, 0, 58, 37
2, 59006, Control_c, 0, 64, 127
2, 59027, Note_on_c, 0, 67, 0
2, 59036, Note_on_c, 0, 62, 0
2, 59054, Note_on_c, 0, 58, 0
2, 59074, Note_on_c, 0, 36, 45
2, 59075, Note_on_c, 0, 48, 0
2, 59088, Note_on_c, 0, 36, 0
2, 59112, Control_c, 0, 64, 0
2, 59176, Control_c, 0, 64, 127
2, 59190, Note_on_c, 0, 70, 59
2, 59191, Note_on_c, 0, 42, 52
2, 59192, Note_on_c, 0, 61, 47
2, 59193, Note_on_c, 0, 58, 44
2, 59195, Note_on_c, 0, 52, 40
2, 59196, Control_c, 0, 64, 0
2, 59204, Note_on_c, 0, 64, 26
2, 59236, Note_on_c, 0, 70, 0
2, 59240, Control_c, 0, 64, 127
2, 59248, Note_on_c, 0, 64, 0
2, 59256, Note_on_c, 0, 58, 0
2, 59257, Note_on_c, 0, 52, 0
2, 59259, Note_on_c, 0, 61, 0
2, 59274, Note_on_c, 0, 68, 51
2, 59315, Note_on_c, 0, 68, 0
2, 59317, Note_on_c, 0, 67, 59
2, 59324, Note_on_c, 0, 42, 0
2, 59333, Note_on_c, 0, 67, 0
2, 59350, Control_c, 0, 64, 0
2, 59355, Note_on_c, 0, 70, 74
2, 59356, Note_on_c, 0, 48, 42
2, 59357, Note_on_c, 0, 41, 53
2, 59439, Note_on_c, 0, 56, 39
2, 59440, Note_on_c, 0, 63, 43
2, 59444, Note_on_c, 0, 53, 41
2, 59476, Control_c, 0, 64, 127
2, 59515, Note_on_c, 0, 41, 0
2, 59527, Note_on_c, 0, 70, 0
2, 59535, Note_on_c, 0, 63, 0
2, 59556, Note_on_c, 0, 53, 0
2, 59558, Note_on_c, 0, 41, 24
2, 59564, Note_on_c, 0, 56, 0
2, 59593, Control_c, 0, 64, 0
2, 59594, Note_on_c, 0, 53, 43
2, 59595, Note_on_c, 0, 56, 33
2, 59599, Note_on_c, 0, 60, 37
2, 59622, Note_on_c, 0, 48, 0
2, 59623, Note_on_c, 0, 41, 0
2, 59626, Note_on_c, 0, 53, 0
2, 59627, Note_on_c, 0, 56, 0
2, 59639, Note_on_c, 0, 60, 0
2, 59676, Note_on_c, 0, 56, 46
2, 59677, Note_on_c, 0, 41, 40
2, 59678, Note_on_c, 0, 63, 44
2, 59678, Note_on_c, 0, 53, 43
2, 59687, Note_on_c, 0, 56, 0
2, 59691, Note_on_c, 0, 41, 0
2, 59696, Note_on_c, 0, 53, 0
2, 59699, Note_on_c, 0, 63, 0
2, 59745, Control_c, 0, 64, 127
2, 59827, Control_c, 0, 64, 0
2, 59830, Note_on_c, 0, 70, 52
2, 59833, Note_on_c, 0, 62, 45
2, 59834, Note_on_c, 0, 65, 38
2, 59835, Note_on_c, 0, 58, 34
2, 59843, Note_on_c, 0, 62, 0
2, 59844, Note_on_c, 0, 65, 0
2, 59846, Note_on_c, 0, 70, 0
2, 59856, Note_on_c, 0, 58, 0
2, 59909, Note_on_c, 0, 46, 38
2, 59941, Note_on_c, 0, 46, 0
2, 59957, Control_c, 0, 64, 127
2, 59962, Note_on_c, 0, 46, 36
2, 60038, Note_on_c, 0, 59, 35
2, 60039, Note_on_c, 0, 62, 32
2, 60039, Note_on_c, 0, 67, 40
2, 60039, Note_on_c, 0, 56, 27
2, 60040, Note_on_c, 0, 64, 39
2, 60043, Control_c, 0, 64, 0
2, 60091, Note_on_c, 0, 46, 0
2, 60107, Control_c, 0, 64, 127
2, 60150, Note_on_c, 0, 46, 38
2, 60177, Note_on_c, 0, 46, 0
2, 60202, Note_on_c, 0, 46, 45
2, 60213, Note_on_c, 0, 59, 0
2, 60224, Note_on_c, 0, 56, 0
2, 60225, Note_on_c, 0, 62, 0
2, 60228, Note_on_c, 0, 67, 0
2, 60229, Note_on_c, 0, 64, 0
2, 60249, Note_on_c, 0, 46, 0
2, 60275, Note_on_c, 0, 46, 38
2, 60339, Control_c, 0, 64, 0
2, 60339, Note_on_c, 0, 70, 55
2, 60345, Note_on_c, 0, 65, 42
2, 60347, Note_on_c, 0, 55, 34
2, 60347, Note_on_c, 0, 62, 36
2, 60348, Note_on_c, 0, 58, 23
2, 60383, Note_on_c, 0, 46, 0
2, 60403, Note_on_c, 0, 46, 37
2, 60407, Control_c, 0, 64, 127
2, 60441, Note_on_c, 0, 46, 0
2, 60450, Note_on_c, 0, 46, 23
2, 60495, Note_on_c, 0, 46, 0
2, 60520, Note_on_c, 0, 46, 49
2, 60549, Note_on_c, 0, 68, 12
2, 60556, Note_on_c, 0, 55, 0
2, 60585, Note_on_c, 0, 65, 0
2, 60589, Note_on_c, 0, 62, 0
2, 60601, Note_on_c, 0, 58, 0
2, 60639, Note_on_c, 0, 62, 36
2, 60642, Note_on_c, 0, 58, 21
2, 60642, Note_on_c, 0, 65, 36
2, 60643, Note_on_c, 0, 55, 30
2, 60676, Note_on_c, 0, 46, 0
2, 60684, Note_on_c, 0, 46, 30
2, 60724, Note_on_c, 0, 46, 0
2, 60757, Note_on_c, 0, 46, 70
2, 60762, Note_on_c, 0, 62, 0
2, 60769, Note_on_c, 0, 58, 0
2, 60772, Note_on_c, 0, 55, 0
2, 60773, Note_on_c, 0, 65, 0
2, 60807, Note_on_c, 0, 68, 0
2, 60817, Note_on_c, 0, 70, 0
2, 60876, Note_on_c, 0, 63, 78
2, 60876, Note_on_c, 0, 70, 71
2, 60876, Note_on_c, 0, 58, 88
2, 60878, Note_on_c, 0, 60, 82
2, 60879, Note_on_c, 0, 65, 74
2, 60888, Control_c, 0, 64, 0
2, 60907, Note_on_c, 0, 46, 0
2, 60921, Control_c, 0, 64, 127
2, 60978, Note_on_c, 0, 60, 0
2, 60985, Note_on_c, 0, 58, 0
2, 60989, Note_on_c, 0, 65, 0
2, 60991, Note_on_c, 0, 46, 71
2, 60998, Note_on_c, 0, 63, 0
2, 61006, Note_on_c, 0, 70, 0
2, 61023, Note_on_c, 0, 46, 0
2, 61115, Note_on_c, 0, 79, 99
2, 61116, Note_on_c, 0, 55, 87
2, 61150, Control_c, 0, 64, 0
2, 61155, Note_on_c, 0, 79, 0
2, 61157, Note_on_c, 0, 55, 0
2, 61164, Note_on_c, 0, 54, 53
2, 61167, Note_on_c, 0, 78, 37
2, 61231, Note_on_c, 0, 78, 0
2, 61260, Note_on_c, 0, 54, 0
2, 61276, Note_on_c, 0, 79, 76
2, 61277, Note_on_c, 0, 55, 64
2, 61297, Note_on_c, 0, 55, 0
2, 61312, Note_on_c, 0, 79, 0
2, 61338, Control_c, 0, 64, 127
2, 61395, Control_c, 0, 64, 0
2, 61426, Control_c, 0, 64, 127
2, 61476, Note_on_c, 0, 55, 61
2, 61476, Note_on_c, 0, 65, 53
2, 61477, Note_on_c, 0, 62, 46
2, 61478, Note_on_c, 0, 58, 53
2, 61479, Note_on_c, 0, 46, 42
2, 61510, Note_on_c, 0, 58, 0
2, 61510, Control_c, 0, 64, 0
2, 61511, Note_on_c, 0, 55, 0
2, 61513, Note_on_c, 0, 62, 0
2, 61515, Note_on_c, 0, 65, 0
2, 61533, Note_on_c, 0, 54, 25
2, 61583, Control_c, 0, 64, 127
2, 61607, Note_on_c, 0, 65, 47
2, 61608, Note_on_c, 0, 58, 44
2, 61608, Note_on_c, 0, 62, 51
2, 61608, Note_on_c, 0, 55, 52
2, 61616, Control_c, 0, 64, 0
2, 61620, Note_on_c, 0, 55, 0
2, 61621, Note_on_c, 0, 54, 0
2, 61624, Note_on_c, 0, 58, 0
2, 61626, Note_on_c, 0, 62, 0
2, 61628, Note_on_c, 0, 65, 0
2, 61640, Note_on_c, 0, 46, 0
2, 61680, Control_c, 0, 64, 127
2, 61720, Note_on_c, 0, 62, 58
2, 61720, Note_on_c, 0, 53, 52
2, 61722, Note_on_c, 0, 46, 49
2, 61723, Note_on_c, 0, 58, 47
2, 61723, Note_on_c, 0, 55, 57
2, 61754, Note_on_c, 0, 55, 0
2, 61757, Note_on_c, 0, 46, 0
2, 61757, Control_c, 0, 64, 0
2, 61760, Note_on_c, 0, 62, 0
2, 61760, Note_on_c, 0, 53, 0
2, 61763, Note_on_c, 0, 58, 0
2, 61776, Note_on_c, 0, 45, 35
2, 61823, Control_c, 0, 64, 127
2, 61843, Note_on_c, 0, 46, 38
2, 61845, Note_on_c, 0, 45, 0
2, 61847, Note_on_c, 0, 62, 45
2, 61847, Note_on_c, 0, 53, 41
2, 61848, Note_on_c, 0, 58, 57
2, 61849, Note_on_c, 0, 55, 58
2, 61856, Note_on_c, 0, 55, 0
2, 61856, Control_c, 0, 64, 0
2, 61857, Note_on_c, 0, 53, 0
2, 61860, Note_on_c, 0, 46, 0
2, 61865, Note_on_c, 0, 62, 0
2, 61865, Note_on_c, 0, 58, 0
2, 61905, Control_c, 0, 64, 127
2, 61951, Note_on_c, 0, 27, 60
2, 61959, Note_on_c, 0, 27, 0
2, 62002, Control_c, 0, 64, 0
2, 62003, Note_on_c, 0, 67, 76
2, 62003, Note_on_c, 0, 58, 70
2, 62005, Note_on_c, 0, 62, 70
2, 62006, Note_on_c, 0, 55, 71
2, 62037, Control_c, 0, 64, 127
2, 62086, Note_on_c, 0, 62, 0
2, 62092, Note_on_c, 0, 58, 0
2, 62100, Note_on_c, 0, 67, 0
2, 62110, Control_c, 0, 64, 0
2, 62114, Note_on_c, 0, 55, 0
2, 62114, Note_on_c, 0, 54, 56
2, 62117, Note_on_c, 0, 58, 46
2, 62118, Note_on_c, 0, 66, 38
2, 62119, Note_on_c, 0, 62, 55
2, 62134, Control_c, 0, 64, 127
2, 62142, Note_on_c, 0, 54, 0
2, 62155, Note_on_c, 0, 58, 0
2, 62156, Note_on_c, 0, 62, 0
2, 62175, Note_on_c, 0, 66, 0
2, 62355, Note_on_c, 0, 44, 62
2, 62356, Note_on_c, 0, 67, 82
2, 62356, Note_on_c, 0, 60, 91
2, 62358, Note_on_c, 0, 55, 80
2, 62360, Control_c, 0, 64, 0
2, 62417, Control_c, 0, 64, 127
2, 62537, Note_on_c, 0, 44, 0
2, 62540, Note_on_c, 0, 60, 0
2, 62543, Note_on_c, 0, 55, 0
2, 62567, Note_on_c, 0, 67, 0
2, 62591, Note_on_c, 0, 66, 56
2, 62594, Note_on_c, 0, 54, 55
2, 62595, Note_on_c, 0, 44, 49
2, 62597, Note_on_c, 0, 60, 61
2, 62650, Note_on_c, 0, 66, 0
2, 62654, Note_on_c, 0, 60, 0
2, 62655, Note_on_c, 0, 54, 0
2, 62682, Note_on_c, 0, 44, 0
2, 62708, Control_c, 0, 64, 0
2, 62713, Note_on_c, 0, 43, 38
2, 62713, Note_on_c, 0, 65, 58
2, 62714, Note_on_c, 0, 58, 55
2, 62714, Note_on_c, 0, 53, 50
2, 62752, Control_c, 0, 64, 127
2, 62779, Note_on_c, 0, 53, 0
2, 62790, Note_on_c, 0, 58, 0
2, 62794, Note_on_c, 0, 55, 45
2, 62808, Note_on_c, 0, 65, 0
2, 62811, Note_on_c, 0, 43, 0
2, 62817, Note_on_c, 0, 55, 0
2, 62838, Note_on_c, 0, 58, 45
2, 62890, Note_on_c, 0, 58, 0
2, 62918, Note_on_c, 0, 61, 42
2, 62919, Note_on_c, 0, 64, 50
2, 62920, Note_on_c, 0, 58, 53
2, 62921, Note_on_c, 0, 55, 46
2, 62929, Control_c, 0, 64, 0
2, 62932, Note_on_c, 0, 36, 24
2, 63010, Control_c, 0, 64, 127
2, 63033, Note_on_c, 0, 36, 0
2, 63037, Note_on_c, 0, 24, 68
2, 63053, Note_on_c, 0, 24, 0
2, 63056, Note_on_c, 0, 55, 0
2, 63079, Note_on_c, 0, 58, 0
2, 63084, Note_on_c, 0, 64, 0
2, 63088, Note_on_c, 0, 61, 0
2, 63204, Note_on_c, 0, 70, 60
2, 63204, Note_on_c, 0, 55, 54
2, 63205, Note_on_c, 0, 63, 56
2, 63205, Note_on_c, 0, 56, 59
2, 63207, Control_c, 0, 64, 0
2, 63272, Note_on_c, 0, 56, 0
2, 63277, Note_on_c, 0, 63, 0
2, 63278, Note_on_c, 0, 70, 0
2, 63279, Note_on_c, 0, 55, 0
2, 63297, Note_on_c, 0, 53, 28
2, 63314, Note_on_c, 0, 53, 0
2, 63322, Note_on_c, 0, 70, 54
2, 63323, Note_on_c, 0, 56, 55
2, 63323, Note_on_c, 0, 55, 47
2, 63324, Note_on_c, 0, 63, 50
2, 63361, Control_c, 0, 64, 127
2, 63370, Note_on_c, 0, 56, 0
2, 63391, Note_on_c, 0, 70, 0
2, 63402, Note_on_c, 0, 55, 0
2, 63403, Note_on_c, 0, 63, 0
2, 63430, Control_c, 0, 64, 0
2, 63438, Note_on_c, 0, 68, 46
2, 63439, Note_on_c, 0, 53, 44
2, 63440, Note_on_c, 0, 63, 44
2, 63443, Note_on_c, 0, 60, 44
2, 63512, Note_on_c, 0, 68, 0
2, 63513, Note_on_c, 0, 60, 0
2, 63519, Note_on_c, 0, 63, 0
2, 63521, Note_on_c, 0, 53, 0
2, 63535, Note_on_c, 0, 51, 31
2, 63560, Note_on_c, 0, 68, 37
2, 63561, Note_on_c, 0, 53, 41
2, 63562, Note_on_c, 0, 51, 0
2, 63562, Note_on_c, 0, 63, 38
2, 63569, Note_on_c, 0, 60, 28
2, 63575, Control_c, 0, 64, 127
2, 63604, Note_on_c, 0, 60, 0
2, 63621, Note_on_c, 0, 63, 0
2, 63627, Note_on_c, 0, 68, 0
2, 63648, Note_on_c, 0, 53, 0
2, 63674, Control_c, 0, 64, 0
2, 63679, Note_on_c, 0, 67, 57
2, 63681, Note_on_c, 0, 58, 32
2, 63682, Note_on_c, 0, 61, 44
2, 63684, Note_on_c, 0, 55, 48
2, 63745, Note_on_c, 0, 67, 0
2, 63750, Note_on_c, 0, 55, 0
2, 63753, Note_on_c, 0, 58, 0
2, 63757, Note_on_c, 0, 61, 0
2, 63762, Note_on_c, 0, 43, 43
2, 63797, Note_on_c, 0, 67, 56
2, 63797, Note_on_c, 0, 58, 42
2, 63797, Note_on_c, 0, 61, 49
2, 63804, Control_c, 0, 64, 127
2, 63839, Note_on_c, 0, 67, 0
2, 63873, Note_on_c, 0, 61, 0
2, 63873, Note_on_c, 0, 58, 0
2, 63877, Note_on_c, 0, 45, 11
2, 63877, Note_on_c, 0, 46, 13
2, 63889, Note_on_c, 0, 43, 0
2, 63894, Note_on_c, 0, 45, 0
2, 63898, Note_on_c, 0, 46, 0
2, 63907, Note_on_c, 0, 48, 39
2, 63910, Control_c, 0, 64, 0
2, 63911, Note_on_c, 0, 66, 46
2, 63915, Note_on_c, 0, 58, 35
2, 63916, Note_on_c, 0, 61, 39
2, 63921, Note_on_c, 0, 64, 41
2, 63988, Note_on_c, 0, 58, 0
2, 63988, Note_on_c, 0, 66, 0
2, 63989, Note_on_c, 0, 61, 0
2, 63990, Note_on_c, 0, 48, 0
2, 63997, Note_on_c, 0, 64, 0
2, 63999, Note_on_c, 0, 36, 36
2, 64028, Note_on_c, 0, 36, 0
2, 64028, Note_on_c, 0, 66, 49
2, 64030, Note_on_c, 0, 61, 46
2, 64032, Note_on_c, 0, 58, 37
2, 64034, Control_c, 0, 64, 127
2, 64038, Note_on_c, 0, 48, 39
2, 64055, Note_on_c, 0, 48, 0
2, 64092, Note_on_c, 0, 58, 0
2, 64099, Note_on_c, 0, 66, 0
2, 64100, Note_on_c, 0, 61, 0
2, 64120, Note_on_c, 0, 56, 37
2, 64121, Note_on_c, 0, 67, 49
2, 64125, Control_c, 0, 64, 0
2, 64125, Note_on_c, 0, 60, 43
2, 64125, Note_on_c, 0, 48, 34
2, 64126, Note_on_c, 0, 41, 40
2, 64134, Note_on_c, 0, 63, 18
2, 64153, Control_c, 0, 64, 127
2, 64169, Note_on_c, 0, 56, 0
2, 64178, Note_on_c, 0, 60, 0
2, 64198, Note_on_c, 0, 63, 0
2, 64203, Note_on_c, 0, 67, 0
2, 64255, Note_on_c, 0, 41, 0
2, 64267, Note_on_c, 0, 48, 0
2, 64288, Note_on_c, 0, 67, 55
2, 64312, Note_on_c, 0, 67, 0
2, 64326, Note_on_c, 0, 68, 54
2, 64343, Note_on_c, 0, 68, 0
2, 64403, Note_on_c, 0, 53, 66
2, 64404, Note_on_c, 0, 61, 54
2, 64411, Control_c, 0, 64, 0
2, 64521, Control_c, 0, 64, 127
2, 64525, Note_on_c, 0, 73, 39
2, 64548, Note_on_c, 0, 73, 0
2, 64557, Note_on_c, 0, 53, 0
2, 64587, Note_on_c, 0, 61, 0
2, 64617, Note_on_c, 0, 53, 36
2, 64618, Note_on_c, 0, 62, 49
2, 64630, Control_c, 0, 64, 0
2, 64691, Control_c, 0, 64, 127
2, 64724, Note_on_c, 0, 74, 95
2, 64738, Control_c, 0, 64, 0
2, 64760, Note_on_c, 0, 62, 0
2, 64767, Control_c, 0, 64, 127
2, 64770, Note_on_c, 0, 74, 0
2, 64772, Note_on_c, 0, 53, 0
2, 64786, Note_on_c, 0, 72, 34
2, 64810, Note_on_c, 0, 72, 0
2, 64851, Note_on_c, 0, 70, 23
2, 64852, Note_on_c, 0, 58, 38
2, 64861, Note_on_c, 0, 70, 0
2, 64863, Note_on_c, 0, 58, 0
2, 64877, Control_c, 0, 64, 0
2, 64883, Note_on_c, 0, 77, 62
2, 64884, Note_on_c, 0, 70, 52
2, 64886, Note_on_c, 0, 67, 64
2, 64886, Note_on_c, 0, 60, 57
2, 64887, Note_on_c, 0, 74, 57
2, 64934, Control_c, 0, 64, 127
2, 64944, Note_on_c, 0, 74, 0
2, 64957, Note_on_c, 0, 77, 0
2, 64960, Note_on_c, 0, 67, 0
2, 64963, Note_on_c, 0, 70, 0
2, 64972, Control_c, 0, 64, 0
2, 64983, Note_on_c, 0, 60, 0
2, 64995, Note_on_c, 0, 59, 45
2, 64996, Note_on_c, 0, 76, 50
2, 64998, Note_on_c, 0, 70, 38
2, 64999, Note_on_c, 0, 67, 41
2, 65005, Control_c, 0, 64, 127
2, 65020, Note_on_c, 0, 59, 0
2, 65024, Note_on_c, 0, 76, 0
2, 65033, Note_on_c, 0, 67, 0
2, 65044, Note_on_c, 0, 70, 0
2, 65078, Note_on_c, 0, 63, 37
2, 65078, Note_on_c, 0, 68, 49
2, 65079, Note_on_c, 0, 77, 42
2, 65080, Control_c, 0, 64, 0
2, 65080, Note_on_c, 0, 56, 29
2, 65082, Note_on_c, 0, 75, 28
2, 65082, Note_on_c, 0, 72, 47
2, 65087, Note_on_c, 0, 60, 32
2, 65123, Note_on_c, 0, 63, 0
2, 65131, Control_c, 0, 64, 127
2, 65183, Note_on_c, 0, 72, 0
2, 65185, Note_on_c, 0, 77, 0
2, 65190, Note_on_c, 0, 53, 54
2, 65196, Note_on_c, 0, 68, 0
2, 65196, Note_on_c, 0, 60, 0
2, 65199, Note_on_c, 0, 75, 0
2, 65205, Note_on_c, 0, 56, 0
2, 65216, Note_on_c, 0, 53, 0
2, 65351, Control_c, 0, 64, 0
2, 65357, Note_on_c, 0, 54, 38
2, 65359, Note_on_c, 0, 65, 47
2, 65360, Note_on_c, 0, 61, 50
2, 65360, Note_on_c, 0, 57, 54
2, 65361, Note_on_c, 0, 63, 34
2, 65363, Note_on_c, 0, 47, 42
2, 65372, Note_on_c, 0, 57, 0
2, 65375, Note_on_c, 0, 63, 0
2, 65375, Note_on_c, 0, 61, 0
2, 65378, Note_on_c, 0, 65, 0
2, 65379, Note_on_c, 0, 54, 0
2, 65383, Note_on_c, 0, 47, 0
2, 65436, Note_on_c, 0, 61, 64
2, 65438, Note_on_c, 0, 65, 58
2, 65438, Note_on_c, 0, 63, 42
2, 65438, Note_on_c, 0, 57, 69
2, 65440, Note_on_c, 0, 54, 50
2, 65441, Note_on_c, 0, 47, 52
2, 65445, Note_on_c, 0, 57, 0
2, 65447, Note_on_c, 0, 65, 0
2, 65449, Note_on_c, 0, 47, 0
2, 65450, Note_on_c, 0, 61, 0
2, 65451, Note_on_c, 0, 63, 0
2, 65452, Note_on_c, 0, 54, 0
2, 65486, Note_on_c, 0, 54, 51
2, 65487, Note_on_c, 0, 61, 55
2, 65487, Note_on_c, 0, 57, 62
2, 65488, Note_on_c, 0, 65, 48
2, 65489, Note_on_c, 0, 47, 37
2, 65489, Note_on_c, 0, 63, 31
2, 65495, Note_on_c, 0, 57, 0
2, 65496, Note_on_c, 0, 65, 0
2, 65496, Note_on_c, 0, 54, 0
2, 65498, Note_on_c, 0, 61, 0
2, 65498, Note_on_c, 0, 47, 0
2, 65498, Note_on_c, 0, 63, 0
2, 65557, Note_on_c, 0, 54, 59
2, 65559, Note_on_c, 0, 47, 55
2, 65559, Note_on_c, 0, 63, 60
2, 65559, Note_on_c, 0, 61, 69
2, 65559, Note_on_c, 0, 65, 71
2, 65561, Control_c, 0, 64, 127
2, 65562, Note_on_c, 0, 57, 54
2, 65566, Note_on_c, 0, 47, 0
2, 65570, Note_on_c, 0, 57, 0
2, 65576, Note_on_c, 0, 61, 0
2, 65579, Note_on_c, 0, 65, 0
2, 65583, Note_on_c, 0, 63, 0
2, 65589, Note_on_c, 0, 54, 0
2, 65594, Control_c, 0, 64, 0
2, 65605, Note_on_c, 0, 63, 44
2, 65606, Note_on_c, 0, 46, 57
2, 65607, Note_on_c, 0, 56, 57
2, 65607, Note_on_c, 0, 65, 56
2, 65608, Note_on_c, 0, 53, 60
2, 65609, Note_on_c, 0, 60, 64
2, 65642, Control_c, 0, 64, 127
2, 65691, Note_on_c, 0, 56, 0
2, 65693, Note_on_c, 0, 60, 0
2, 65695, Note_on_c, 0, 46, 0
2, 65696, Note_on_c, 0, 65, 0
2, 65705, Note_on_c, 0, 63, 0
2, 65724, Note_on_c, 0, 46, 47
2, 65727, Note_on_c, 0, 56, 38
2, 65727, Note_on_c, 0, 63, 33
2, 65730, Note_on_c, 0, 65, 38
2, 65735, Note_on_c, 0, 56, 0
2, 65741, Note_on_c, 0, 53, 0
2, 65748, Note_on_c, 0, 65, 0
2, 65749, Note_on_c, 0, 63, 0
2, 65753, Note_on_c, 0, 46, 0
2, 65808, Note_on_c, 0, 70, 81
2, 65808, Note_on_c, 0, 44, 69
2, 65809, Note_on_c, 0, 65, 84
2, 65810, Control_c, 0, 64, 0
2, 65810, Note_on_c, 0, 54, 77
2, 65811, Note_on_c, 0, 60, 79
2, 65854, Control_c, 0, 64, 127
2, 65905, Note_on_c, 0, 44, 0
2, 65910, Note_on_c, 0, 60, 0
2, 65915, Note_on_c, 0, 70, 0
2, 65915, Note_on_c, 0, 65, 0
2, 65917, Note_on_c, 0, 54, 0
2, 65927, Note_on_c, 0, 68, 68
2, 65930, Note_on_c, 0, 54, 52
2, 65930, Note_on_c, 0, 60, 56
2, 65931, Note_on_c, 0, 44, 59
2, 65931, Note_on_c, 0, 65, 66
2, 65972, Note_on_c, 0, 54, 0
2, 65979, Note_on_c, 0, 65, 0
2, 65995, Note_on_c, 0, 68, 0
2, 65999, Note_on_c, 0, 44, 0
2, 66000, Note_on_c, 0, 60, 0
2, 66046, Note_on_c, 0, 64, 74
2, 66047, Note_on_c, 0, 67, 74
2, 66049, Note_on_c, 0, 59, 71
2, 66051, Note_on_c, 0, 43, 54
2, 66051, Note_on_c, 0, 53, 61
2, 66055, Control_c, 0, 64, 0
2, 66099, Control_c, 0, 64, 127
2, 66143, Note_on_c, 0, 59, 0
2, 66160, Note_on_c, 0, 64, 0
2, 66164, Note_on_c, 0, 63, 70
2, 66171, Note_on_c, 0, 59, 33
2, 66178, Note_on_c, 0, 53, 0
2, 66182, Note_on_c, 0, 59, 0
2, 66202, Note_on_c, 0, 63, 0
2, 66213, Note_on_c, 0, 62, 49
2, 66245, Note_on_c, 0, 67, 0
2, 66254, Note_on_c, 0, 62, 0
2, 66270, Note_on_c, 0, 45, 32
2, 66283, Note_on_c, 0, 43, 0
2, 66286, Note_on_c, 0, 46, 30
2, 66307, Note_on_c, 0, 45, 0
2, 66309, Note_on_c, 0, 47, 43
2, 66311, Note_on_c, 0, 46, 0
2, 66318, Note_on_c, 0, 47, 0
2, 66322, Control_c, 0, 64, 0
2, 66322, Note_on_c, 0, 58, 45
2, 66323, Note_on_c, 0, 48, 49
2, 66323, Note_on_c, 0, 55, 46
2, 66324, Note_on_c, 0, 62, 49
2, 66324, Note_on_c, 0, 65, 47
2, 66385, Note_on_c, 0, 65, 0
2, 66385, Note_on_c, 0, 62, 0
2, 66396, Note_on_c, 0, 48, 0
2, 66397, Control_c, 0, 64, 127
2, 66399, Note_on_c, 0, 55, 0
2, 66404, Note_on_c, 0, 58, 0
2, 66407, Note_on_c, 0, 36, 36
2, 66408, Control_c, 0, 64, 0
2, 66428, Note_on_c, 0, 36, 0
2, 66438, Note_on_c, 0, 64, 40
2, 66439, Note_on_c, 0, 61, 33
2, 66440, Note_on_c, 0, 55, 43
2, 66440, Note_on_c, 0, 58, 32
2, 66442, Note_on_c, 0, 48, 36
2, 66452, Control_c, 0, 64, 127
2, 66469, Note_on_c, 0, 48, 0
2, 66492, Note_on_c, 0, 64, 0
2, 66495, Note_on_c, 0, 55, 0
2, 66499, Note_on_c, 0, 58, 0
2, 66510, Note_on_c, 0, 61, 0
2, 66562, Control_c, 0, 64, 0
2, 66564, Note_on_c, 0, 41, 37
2, 66565, Note_on_c, 0, 56, 33
2, 66565, Note_on_c, 0, 51, 27
2, 66569, Note_on_c, 0, 63, 29
2, 66571, Note_on_c, 0, 60, 45
2, 66582, Control_c, 0, 64, 127
2, 66595, Note_on_c, 0, 56, 0
2, 66596, Note_on_c, 0, 60, 0
2, 66605, Note_on_c, 0, 63, 0
2, 66613, Note_on_c, 0, 41, 0
2, 66630, Note_on_c, 0, 51, 0
2, 66683, Note_on_c, 0, 58, 59
2, 66684, Note_on_c, 0, 70, 69
2, 66684, Note_on_c, 0, 63, 65
2, 66686, Control_c, 0, 64, 0
2, 66686, Note_on_c, 0, 65, 60
2, 66686, Note_on_c, 0, 60, 66
2, 66699, Note_on_c, 0, 60, 0
2, 66705, Note_on_c, 0, 58, 0
2, 66706, Note_on_c, 0, 63, 0
2, 66708, Note_on_c, 0, 70, 0
2, 66708, Note_on_c, 0, 65, 0
2, 66768, Note_on_c, 0, 63, 59
2, 66768, Note_on_c, 0, 70, 65
2, 66769, Note_on_c, 0, 65, 54
2, 66769, Note_on_c, 0, 60, 64
2, 66770, Note_on_c, 0, 58, 56
2, 66785, Note_on_c, 0, 60, 0
2, 66789, Note_on_c, 0, 63, 0
2, 66792, Note_on_c, 0, 58, 0
2, 66793, Note_on_c, 0, 65, 0
2, 66794, Note_on_c, 0, 70, 0
2, 66818, Control_c, 0, 64, 127
2, 66846, Note_on_c, 0, 70, 53
2, 66848, Note_on_c, 0, 63, 39
2, 66851, Note_on_c, 0, 65, 41
2, 66852, Note_on_c, 0, 60, 41
2, 66869, Note_on_c, 0, 70, 0
2, 66875, Note_on_c, 0, 60, 0
2, 66880, Note_on_c, 0, 65, 0
2, 66884, Note_on_c, 0, 63, 0
2, 66923, Note_on_c, 0, 69, 49
2, 66925, Note_on_c, 0, 63, 38
2, 66935, Note_on_c, 0, 69, 0
2, 66946, Note_on_c, 0, 63, 0
2, 66998, Note_on_c, 0, 62, 53
2, 66999, Control_c, 0, 64, 0
2, 67000, Note_on_c, 0, 70, 37
2, 67000, Note_on_c, 0, 67, 46
2, 67001, Note_on_c, 0, 46, 37
2, 67004, Note_on_c, 0, 55, 40
2, 67037, Control_c, 0, 64, 127
2, 67048, Note_on_c, 0, 62, 0
2, 67054, Note_on_c, 0, 67, 0
2, 67070, Note_on_c, 0, 70, 0
2, 67122, Note_on_c, 0, 74, 72
2, 67146, Note_on_c, 0, 74, 0
2, 67163, Note_on_c, 0, 75, 57
2, 67169, Control_c, 0, 64, 0
2, 67172, Note_on_c, 0, 75, 0
2, 67192, Note_on_c, 0, 55, 0
2, 67200, Note_on_c, 0, 79, 62
2, 67212, Note_on_c, 0, 79, 0
2, 67236, Note_on_c, 0, 82, 69
2, 67242, Control_c, 0, 64, 127
2, 67246, Control_c, 0, 64, 0
2, 67253, Note_on_c, 0, 82, 0
2, 67272, Note_on_c, 0, 86, 85
2, 67277, Note_on_c, 0, 55, 39
2, 67294, Note_on_c, 0, 86, 0
2, 67314, Note_on_c, 0, 89, 87
2, 67341, Control_c, 0, 64, 127
2, 67347, Note_on_c, 0, 89, 0
2, 67355, Note_on_c, 0, 86, 90
2, 67368, Control_c, 0, 64, 0
2, 67401, Control_c, 0, 64, 127
2, 67419, Note_on_c, 0, 86, 0
2, 67435, Note_on_c, 0, 82, 53
2, 67448, Note_on_c, 0, 46, 0
2, 67449, Note_on_c, 0, 82, 0
2, 67471, Note_on_c, 0, 79, 48
2, 67495, Note_on_c, 0, 79, 0
2, 67511, Control_c, 0, 64, 0
2, 67513, Note_on_c, 0, 46, 39
2, 67514, Note_on_c, 0, 82, 56
2, 67533, Control_c, 0, 64, 127
2, 67534, Note_on_c, 0, 55, 0
2, 67586, Note_on_c, 0, 82, 0
2, 67600, Note_on_c, 0, 55, 49
2, 67684, Note_on_c, 0, 55, 0
2, 67708, Note_on_c, 0, 54, 31
2, 67711, Note_on_c, 0, 70, 72
2, 67712, Note_on_c, 0, 65, 71
2, 67713, Note_on_c, 0, 62, 68
2, 67716, Note_on_c, 0, 55, 64
2, 67727, Control_c, 0, 64, 0
2, 67728, Note_on_c, 0, 54, 0
2, 67771, Control_c, 0, 64, 127
2, 67845, Note_on_c, 0, 65, 0
2, 67850, Note_on_c, 0, 70, 0
2, 67856, Note_on_c, 0, 62, 0
2, 67879, Control_c, 0, 64, 0
2, 67881, Note_on_c, 0, 54, 44
2, 67882, Note_on_c, 0, 69, 50
2, 67884, Note_on_c, 0, 64, 37
2, 67885, Note_on_c, 0, 60, 36
2, 67889, Note_on_c, 0, 55, 0
2, 67910, Control_c, 0, 64, 127
2, 67919, Note_on_c, 0, 60, 0
2, 67920, Note_on_c, 0, 69, 0
2, 67928, Note_on_c, 0, 64, 0
2, 67988, Control_c, 0, 64, 0
2, 67998, Note_on_c, 0, 70, 57
2, 68000, Note_on_c, 0, 54, 0
2, 68002, Note_on_c, 0, 62, 51
2, 68003, Note_on_c, 0, 65, 50
2, 68005, Note_on_c, 0, 55, 46
2, 68007, Control_c, 0, 64, 127
2, 68013, Note_on_c, 0, 62, 0
2, 68015, Note_on_c, 0, 65, 0
2, 68021, Note_on_c, 0, 46, 0
2, 68024, Note_on_c, 0, 70, 0
2, 68024, Note_on_c, 0, 55, 0
2, 68085, Note_on_c, 0, 75, 37
2, 68089, Note_on_c, 0, 65, 71
2, 68090, Note_on_c, 0, 77, 71
2, 68092, Note_on_c, 0, 67, 76
2, 68095, Note_on_c, 0, 74, 57
2, 68098, Control_c, 0, 64, 0
2, 68101, Note_on_c, 0, 71, 30
2, 68112, Note_on_c, 0, 71, 0
2, 68135, Note_on_c, 0, 75, 0
2, 68138, Control_c, 0, 64, 127
2, 68165, Note_on_c, 0, 74, 0
2, 68175, Note_on_c, 0, 67, 0
2, 68182, Note_on_c, 0, 77, 0
2, 68196, Note_on_c, 0, 65, 0
2, 68197, Note_on_c, 0, 75, 67
2, 68201, Note_on_c, 0, 70, 65
2, 68202, Note_on_c, 0, 63, 50
2, 68203, Note_on_c, 0, 67, 61
2, 68232, Note_on_c, 0, 75, 0
2, 68233, Note_on_c, 0, 70, 0
2, 68241, Note_on_c, 0, 63, 0
2, 68252, Note_on_c, 0, 67, 0
2, 68316, Note_on_c, 0, 74, 64
2, 68316, Note_on_c, 0, 70, 56
2, 68317, Note_on_c, 0, 62, 52
2, 68318, Note_on_c, 0, 67, 64
2, 68318, Note_on_c, 0, 65, 56
2, 68327, Control_c, 0, 64, 0
2, 68330, Note_on_c, 0, 62, 0
2, 68351, Control_c, 0, 64, 127
2, 68365, Note_on_c, 0, 70, 0
2, 68375, Note_on_c, 0, 67, 0
2, 68377, Note_on_c, 0, 74, 0
2, 68380, Note_on_c, 0, 65, 0
2, 68439, Note_on_c, 0, 70, 69
2, 68443, Note_on_c, 0, 67, 60
2, 68444, Note_on_c, 0, 63, 48
2, 68449, Note_on_c, 0, 60, 24
2, 68455, Control_c, 0, 64, 0
2, 68476, Note_on_c, 0, 55, 17
2, 68486, Control_c, 0, 64, 127
2, 68563, Note_on_c, 0, 60, 0
2, 68574, Note_on_c, 0, 63, 0
2, 68581, Note_on_c, 0, 70, 0
2, 68582, Note_on_c, 0, 67, 0
2, 68590, Control_c, 0, 64, 0
2, 68595, Note_on_c, 0, 63, 21
2, 68596, Note_on_c, 0, 55, 0
2, 68603, Note_on_c, 0, 60, 31
2, 68603, Note_on_c, 0, 54, 37
2, 68604, Note_on_c, 0, 69, 35
2, 68621, Control_c, 0, 64, 127
2, 68630, Note_on_c, 0, 54, 0
2, 68637, Note_on_c, 0, 60, 0
2, 68641, Note_on_c, 0, 63, 0
2, 68656, Note_on_c, 0, 67, 12
2, 68670, Note_on_c, 0, 69, 0
2, 68676, Note_on_c, 0, 67, 0
2, 68713, Control_c, 0, 64, 0
2, 68719, Note_on_c, 0, 56, 27
2, 68722, Note_on_c, 0, 70, 52
2, 68722, Note_on_c, 0, 65, 48
2, 68723, Note_on_c, 0, 61, 44
2, 68742, Control_c, 0, 64, 127
2, 68746, Note_on_c, 0, 56, 0
2, 68772, Note_on_c, 0, 65, 0
2, 68795, Note_on_c, 0, 61, 0
2, 68821, Control_c, 0, 64, 0
2, 68824, Note_on_c, 0, 70, 0
2, 68837, Note_on_c, 0, 45, 33
2, 68837, Note_on_c, 0, 61, 39
2, 68838, Note_on_c, 0, 55, 30
2, 68840, Note_on_c, 0, 64, 35
2, 68846, Control_c, 0, 64, 127
2, 68878, Note_on_c, 0, 45, 0
2, 68883, Note_on_c, 0, 64, 0
2, 68890, Note_on_c, 0, 55, 0
2, 68901, Note_on_c, 0, 61, 0
2, 68945, Control_c, 0, 64, 0
2, 68954, Note_on_c, 0, 63, 26
2, 68956, Note_on_c, 0, 51, 29
2, 68957, Note_on_c, 0, 44, 27
2, 68958, Note_on_c, 0, 60, 44
2, 68967, Control_c, 0, 64, 127
2, 68979, Note_on_c, 0, 63, 0
2, 68985, Note_on_c, 0, 60, 0
2, 69038, Note_on_c, 0, 51, 0
2, 69041, Note_on_c, 0, 65, 51
2, 69041, Note_on_c, 0, 53, 55
2, 69053, Note_on_c, 0, 65, 0
2, 69068, Note_on_c, 0, 53, 0
2, 69073, Control_c, 0, 64, 0
2, 69086, Note_on_c, 0, 51, 23
2, 69153, Note_on_c, 0, 51, 0
2, 69159, Note_on_c, 0, 63, 34
2, 69159, Note_on_c, 0, 53, 47
2, 69161, Note_on_c, 0, 58, 25
2, 69162, Note_on_c, 0, 65, 34
2, 69162, Note_on_c, 0, 60, 41
2, 69203, Control_c, 0, 64, 127
2, 69234, Note_on_c, 0, 60, 0
2, 69241, Note_on_c, 0, 53, 0
2, 69242, Note_on_c, 0, 58, 0
2, 69261, Note_on_c, 0, 65, 0
2, 69262, Note_on_c, 0, 63, 0
2, 69328, Note_on_c, 0, 48, 40
2, 69329, Control_c, 0, 64, 0
2, 69329, Note_on_c, 0, 60, 57
2, 69330, Note_on_c, 0, 53, 30
2, 69340, Note_on_c, 0, 53, 0
2, 69348, Note_on_c, 0, 60, 0
2, 69357, Note_on_c, 0, 48, 0
2, 69371, Note_on_c, 0, 46, 33
2, 69386, Note_on_c, 0, 44, 0
2, 69407, Note_on_c, 0, 58, 44
2, 69407, Note_on_c, 0, 53, 52
2, 69408, Note_on_c, 0, 60, 56
2, 69409, Note_on_c, 0, 46, 0
2, 69409, Note_on_c, 0, 48, 48
2, 69441, Control_c, 0, 64, 127
2, 69468, Note_on_c, 0, 60, 0
2, 69481, Note_on_c, 0, 53, 0
2, 69498, Note_on_c, 0, 58, 0
2, 69508, Note_on_c, 0, 48, 0
2, 69521, Note_on_c, 0, 53, 58
2, 69522, Note_on_c, 0, 61, 55
2, 69522, Note_on_c, 0, 58, 49
2, 69527, Note_on_c, 0, 49, 59
2, 69535, Note_on_c, 0, 53, 0
2, 69542, Note_on_c, 0, 58, 0
2, 69549, Note_on_c, 0, 61, 0
2, 69552, Note_on_c, 0, 49, 0
2, 69561, Control_c, 0, 64, 0
2, 69565, Note_on_c, 0, 46, 36
2, 69587, Note_on_c, 0, 46, 0
2, 69593, Note_on_c, 0, 49, 49
2, 69600, Note_on_c, 0, 58, 56
2, 69601, Note_on_c, 0, 61, 56
2, 69602, Note_on_c, 0, 53, 53
2, 69625, Control_c, 0, 64, 127
2, 69652, Note_on_c, 0, 53, 0
2, 69662, Note_on_c, 0, 58, 0
2, 69673, Note_on_c, 0, 61, 0
2, 69678, Note_on_c, 0, 49, 0
2, 69686, Control_c, 0, 64, 0
2, 69693, Note_on_c, 0, 58, 47
2, 69693, Note_on_c, 0, 52, 44
2, 69693, Note_on_c, 0, 56, 40
2, 69694, Note_on_c, 0, 48, 54
2, 69709, Note_on_c, 0, 52, 0
2, 69716, Note_on_c, 0, 56, 0
2, 69722, Note_on_c, 0, 58, 0
2, 69725, Note_on_c, 0, 48, 0
2, 69744, Note_on_c, 0, 36, 35
2, 69772, Note_on_c, 0, 63, 57
2, 69773, Note_on_c, 0, 58, 46
2, 69773, Note_on_c, 0, 52, 58
2, 69773, Note_on_c, 0, 56, 45
2, 69776, Note_on_c, 0, 48, 46
2, 69789, Note_on_c, 0, 36, 0
2, 69801, Control_c, 0, 64, 127
2, 69822, Note_on_c, 0, 48, 0
2, 69826, Note_on_c, 0, 58, 0
2, 69828, Note_on_c, 0, 52, 0
2, 69829, Note_on_c, 0, 56, 0
2, 69832, Note_on_c, 0, 63, 0
2, 69846, Note_on_c, 0, 61, 56
2, 69848, Note_on_c, 0, 52, 35
2, 69851, Note_on_c, 0, 56, 27
2, 69859, Note_on_c, 0, 52, 0
2, 69861, Note_on_c, 0, 56, 0
2, 69872, Note_on_c, 0, 61, 0
2, 69875, Note_on_c, 0, 48, 35
2, 69904, Note_on_c, 0, 48, 0
2, 69907, Control_c, 0, 64, 0
2, 69914, Note_on_c, 0, 41, 54
2, 69916, Note_on_c, 0, 60, 65
2, 69917, Note_on_c, 0, 51, 51
2, 69918, Note_on_c, 0, 56, 36
2, 69922, Note_on_c, 0, 53, 30
2, 69949, Control_c, 0, 64, 127
2, 69959, Note_on_c, 0, 53, 0
2, 69963, Note_on_c, 0, 41, 0
2, 69973, Note_on_c, 0, 56, 0
2, 69983, Note_on_c, 0, 51, 0
2, 69992, Note_on_c, 0, 60, 0
2, 70109, Note_on_c, 0, 53, 56
2, 70111, Note_on_c, 0, 77, 71
2, 70112, Control_c, 0, 64, 0
2, 70112, Note_on_c, 0, 63, 62
2, 70113, Note_on_c, 0, 60, 57
2, 70113, Note_on_c, 0, 65, 63
2, 70115, Note_on_c, 0, 56, 34
2, 70120, Note_on_c, 0, 60, 0
2, 70121, Note_on_c, 0, 53, 0
2, 70125, Note_on_c, 0, 56, 0
2, 70126, Note_on_c, 0, 65, 0
2, 70127, Note_on_c, 0, 63, 0
2, 70140, Note_on_c, 0, 77, 0
2, 70185, Note_on_c, 0, 57, 65
2, 70186, Note_on_c, 0, 77, 79
2, 70186, Note_on_c, 0, 63, 60
2, 70187, Note_on_c, 0, 61, 64
2, 70188, Note_on_c, 0, 68, 67
2, 70209, Control_c, 0, 64, 127
2, 70259, Note_on_c, 0, 77, 0
2, 70273, Note_on_c, 0, 76, 55
2, 70284, Note_on_c, 0, 68, 0
2, 70289, Note_on_c, 0, 57, 0
2, 70302, Note_on_c, 0, 61, 0
2, 70317, Note_on_c, 0, 63, 0
2, 70317, Note_on_c, 0, 76, 0
2, 70354, Note_on_c, 0, 63, 48
2, 70355, Control_c, 0, 64, 0
2, 70356, Note_on_c, 0, 67, 58
2, 70356, Note_on_c, 0, 77, 62
2, 70357, Note_on_c, 0, 56, 46
2, 70359, Note_on_c, 0, 72, 62
2, 70360, Note_on_c, 0, 60, 54
2, 70388, Control_c, 0, 64, 127
2, 70399, Note_on_c, 0, 77, 0
2, 70421, Note_on_c, 0, 72, 0
2, 70421, Note_on_c, 0, 67, 0
2, 70424, Note_on_c, 0, 60, 0
2, 70432, Note_on_c, 0, 56, 0
2, 70437, Note_on_c, 0, 63, 0
2, 70474, Note_on_c, 0, 63, 56
2, 70474, Note_on_c, 0, 80, 68
2, 70475, Note_on_c, 0, 72, 74
2, 70476, Note_on_c, 0, 56, 55
2, 70477, Note_on_c, 0, 68, 62
2, 70477, Note_on_c, 0, 67, 58
2, 70481, Note_on_c, 0, 60, 45
2, 70485, Note_on_c, 0, 67, 0
2, 70496, Note_on_c, 0, 60, 0
2, 70503, Note_on_c, 0, 63, 0
2, 70514, Note_on_c, 0, 56, 0
2, 70522, Note_on_c, 0, 68, 0
2, 70526, Note_on_c, 0, 72, 0
2, 70532, Note_on_c, 0, 80, 0
2, 70633, Control_c, 0, 64, 0
2, 70637, Note_on_c, 0, 79, 59
2, 70639, Note_on_c, 0, 72, 46
2, 70640, Note_on_c, 0, 65, 41
2, 70640, Note_on_c, 0, 67, 45
2, 70645, Note_on_c, 0, 44, 39
2, 70646, Note_on_c, 0, 55, 50
2, 70675, Control_c, 0, 64, 127
2, 70680, Note_on_c, 0, 55, 0
2, 70703, Note_on_c, 0, 65, 0
2, 70703, Note_on_c, 0, 67, 0
2, 70705, Note_on_c, 0, 79, 0
2, 70713, Note_on_c, 0, 44, 0
2, 70715, Note_on_c, 0, 72, 0
2, 70750, Control_c, 0, 64, 0
2, 70757, Note_on_c, 0, 54, 46
2, 70758, Note_on_c, 0, 44, 40
2, 70759, Note_on_c, 0, 77, 41
2, 70760, Note_on_c, 0, 72, 40
2, 70762, Note_on_c, 0, 65, 36
2, 70767, Control_c, 0, 64, 127
2, 70794, Note_on_c, 0, 65, 0
2, 70804, Note_on_c, 0, 54, 0
2, 70807, Note_on_c, 0, 72, 0
2, 70823, Note_on_c, 0, 77, 0
2, 70836, Note_on_c, 0, 44, 0
2, 70869, Control_c, 0, 64, 0
2, 70880, Note_on_c, 0, 75, 60
2, 70881, Note_on_c, 0, 43, 48
2, 70883, Note_on_c, 0, 70, 50
2, 70884, Note_on_c, 0, 53, 33
2, 70884, Note_on_c, 0, 67, 48
2, 70908, Control_c, 0, 64, 127
2, 70917, Note_on_c, 0, 53, 0
2, 70957, Note_on_c, 0, 67, 0
2, 70961, Note_on_c, 0, 70, 0
2, 70962, Note_on_c, 0, 75, 0
2, 71000, Note_on_c, 0, 70, 51
2, 71000, Note_on_c, 0, 67, 53
2, 71001, Note_on_c, 0, 74, 45
2, 71001, Note_on_c, 0, 53, 37
2, 71023, Note_on_c, 0, 67, 0
2, 71023, Note_on_c, 0, 43, 0
2, 71030, Note_on_c, 0, 70, 0
2, 71040, Note_on_c, 0, 74, 0
2, 71052, Note_on_c, 0, 53, 0
2, 71085, Note_on_c, 0, 43, 57
2, 71093, Note_on_c, 0, 43, 0
2, 71108, Control_c, 0, 64, 0
2, 71125, Note_on_c, 0, 71, 60
2, 71125, Note_on_c, 0, 75, 58
2, 71126, Note_on_c, 0, 67, 67
2, 71128, Note_on_c, 0, 63, 44
2, 71130, Note_on_c, 0, 53, 77
2, 71130, Note_on_c, 0, 59, 65
2, 71152, Control_c, 0, 64, 127
2, 71208, Note_on_c, 0, 59, 0
2, 71209, Note_on_c, 0, 63, 0
2, 71213, Note_on_c, 0, 75, 0
2, 71213, Note_on_c, 0, 71, 0
2, 71219, Note_on_c, 0, 67, 0
2, 71233, Note_on_c, 0, 59, 50
2, 71237, Note_on_c, 0, 74, 62
2, 71237, Note_on_c, 0, 67, 60
2, 71239, Note_on_c, 0, 63, 37
2, 71252, Note_on_c, 0, 59, 0
2, 71259, Note_on_c, 0, 53, 0
2, 71269, Note_on_c, 0, 74, 0
2, 71287, Note_on_c, 0, 67, 0
2, 71292, Note_on_c, 0, 63, 0
2, 71323, Note_on_c, 0, 75, 60
2, 71323, Note_on_c, 0, 67, 73
2, 71326, Control_c, 0, 64, 0
2, 71326, Note_on_c, 0, 63, 48
2, 71339, Note_on_c, 0, 48, 51
2, 71342, Note_on_c, 0, 58, 33
2, 71344, Note_on_c, 0, 63, 0
2, 71347, Note_on_c, 0, 48, 0
2, 71349, Note_on_c, 0, 67, 0
2, 71359, Control_c, 0, 64, 127
2, 71361, Note_on_c, 0, 75, 0
2, 71361, Note_on_c, 0, 58, 0
2, 71435, Note_on_c, 0, 79, 67
2, 71435, Note_on_c, 0, 70, 73
2, 71436, Note_on_c, 0, 75, 63
2, 71445, Note_on_c, 0, 70, 0
2, 71451, Note_on_c, 0, 79, 0
2, 71451, Note_on_c, 0, 67, 36
2, 71452, Note_on_c, 0, 75, 0
2, 71452, Note_on_c, 0, 63, 36
2, 71454, Control_c, 0, 64, 0
2, 71464, Note_on_c, 0, 67, 0
2, 71518, Control_c, 0, 64, 127
2, 71553, Note_on_c, 0, 77, 68
2, 71555, Note_on_c, 0, 69, 74
2, 71556, Note_on_c, 0, 74, 55
2, 71562, Note_on_c, 0, 69, 0
2, 71565, Note_on_c, 0, 74, 0
2, 71569, Control_c, 0, 64, 0
2, 71570, Note_on_c, 0, 65, 37
2, 71571, Note_on_c, 0, 77, 0
2, 71573, Note_on_c, 0, 57, 46
2, 71579, Note_on_c, 0, 65, 0
2, 71587, Note_on_c, 0, 63, 0
2, 71594, Note_on_c, 0, 57, 0
2, 71606, Control_c, 0, 64, 127
2, 71678, Note_on_c, 0, 41, 33
2, 71695, Control_c, 0, 64, 0
2, 71703, Note_on_c, 0, 51, 42
2, 71704, Note_on_c, 0, 63, 31
2, 71705, Note_on_c, 0, 53, 33
2, 71706, Note_on_c, 0, 56, 37
2, 71710, Note_on_c, 0, 60, 43
2, 71730, Control_c, 0, 64, 127
2, 71735, Note_on_c, 0, 41, 0
2, 71747, Note_on_c, 0, 53, 0
2, 71748, Note_on_c, 0, 56, 0
2, 71761, Note_on_c, 0, 51, 0
2, 71776, Note_on_c, 0, 60, 0
2, 71791, Note_on_c, 0, 63, 0
2, 71831, Control_c, 0, 64, 0
2, 71832, Note_on_c, 0, 46, 35
2, 71832, Note_on_c, 0, 62, 51
2, 71832, Note_on_c, 0, 58, 37
2, 71836, Note_on_c, 0, 53, 30
2, 71902, Control_c, 0, 64, 127
2, 71904, Note_on_c, 0, 53, 0
2, 71915, Note_on_c, 0, 54, 37
2, 71937, Control_c, 0, 64, 0
2, 71951, Note_on_c, 0, 54, 0
2, 71962, Note_on_c, 0, 53, 44
2, 71981, Control_c, 0, 64, 127
2, 71995, Note_on_c, 0, 53, 0
2, 72019, Note_on_c, 0, 46, 0
2, 72027, Note_on_c, 0, 58, 0
2, 72041, Note_on_c, 0, 62, 0
2, 72072, Note_on_c, 0, 62, 57
2, 72073, Note_on_c, 0, 46, 37
2, 72074, Note_on_c, 0, 58, 51
2, 72076, Control_c, 0, 64, 0
2, 72080, Note_on_c, 0, 53, 27
2, 72111, Control_c, 0, 64, 127
2, 72120, Note_on_c, 0, 53, 0
2, 72132, Note_on_c, 0, 58, 0
2, 72142, Note_on_c, 0, 46, 0
2, 72144, Note_on_c, 0, 62, 0
2, 72158, Note_on_c, 0, 46, 39
2, 72158, Note_on_c, 0, 63, 49
2, 72160, Note_on_c, 0, 58, 51
2, 72179, Note_on_c, 0, 63, 0
2, 72186, Note_on_c, 0, 58, 0
2, 72191, Control_c, 0, 64, 0
2, 72200, Note_on_c, 0, 65, 62
2, 72219, Control_c, 0, 64, 127
2, 72245, Note_on_c, 0, 65, 0
2, 72256, Note_on_c, 0, 46, 0
2, 72319, Control_c, 0, 64, 0
2, 72319, Note_on_c, 0, 56, 62
2, 72321, Note_on_c, 0, 60, 67
2, 72323, Note_on_c, 0, 63, 47
2, 72324, Note_on_c, 0, 65, 39
2, 72372, Control_c, 0, 64, 127
2, 72396, Note_on_c, 0, 46, 54
2, 72420, Note_on_c, 0, 56, 0
2, 72421, Note_on_c, 0, 60, 0
2, 72424, Note_on_c, 0, 65, 0
2, 72428, Note_on_c, 0, 46, 0
2, 72435, Note_on_c, 0, 63, 0
2, 72515, Note_on_c, 0, 47, 58
2, 72518, Note_on_c, 0, 57, 60
2, 72522, Control_c, 0, 64, 0
2, 72525, Note_on_c, 0, 47, 0
2, 72531, Note_on_c, 0, 57, 0
2, 72551, Control_c, 0, 64, 127
2, 72570, Control_c, 0, 64, 0
2, 72580, Note_on_c, 0, 62, 53
2, 72581, Note_on_c, 0, 66, 63
2, 72581, Note_on_c, 0, 74, 66
2, 72582, Note_on_c, 0, 56, 56
2, 72584, Note_on_c, 0, 77, 56
2, 72586, Note_on_c, 0, 68, 42
2, 72597, Control_c, 0, 64, 127
2, 72625, Note_on_c, 0, 62, 0
2, 72626, Note_on_c, 0, 66, 0
2, 72633, Note_on_c, 0, 68, 0
2, 72643, Note_on_c, 0, 56, 0
2, 72648, Note_on_c, 0, 74, 0
2, 72662, Note_on_c, 0, 77, 0
2, 72674, Control_c, 0, 64, 0
2, 72674, Note_on_c, 0, 55, 59
2, 72678, Control_c, 0, 64, 127
2, 72680, Note_on_c, 0, 61, 31
2, 72697, Note_on_c, 0, 55, 0
2, 72702, Note_on_c, 0, 61, 0
2, 72759, Note_on_c, 0, 75, 55
2, 72762, Note_on_c, 0, 65, 62
2, 72762, Note_on_c, 0, 68, 62
2, 72762, Note_on_c, 0, 72, 58
2, 72762, Note_on_c, 0, 60, 56
2, 72764, Note_on_c, 0, 56, 49
2, 72764, Note_on_c, 0, 61, 54
2, 72765, Control_c, 0, 64, 0
2, 72800, Control_c, 0, 64, 127
2, 72801, Note_on_c, 0, 65, 0
2, 72813, Note_on_c, 0, 60, 0
2, 72814, Note_on_c, 0, 61, 0
2, 72816, Note_on_c, 0, 72, 0
2, 72817, Note_on_c, 0, 75, 0
2, 72820, Note_on_c, 0, 68, 0
2, 72820, Note_on_c, 0, 56, 0
2, 72883, Note_on_c, 0, 56, 65
2, 72884, Note_on_c, 0, 67, 68
2, 72886, Note_on_c, 0, 60, 60
2, 72886, Note_on_c, 0, 55, 74
2, 72895, Note_on_c, 0, 63, 23
2, 72900, Control_c, 0, 64, 0
2, 72913, Note_on_c, 0, 56, 0
2, 72914, Note_on_c, 0, 63, 0
2, 72914, Note_on_c, 0, 60, 0
2, 72919, Note_on_c, 0, 67, 0
2, 72921, Note_on_c, 0, 55, 0
2, 72930, Note_on_c, 0, 54, 38
2, 72968, Control_c, 0, 64, 127
2, 73004, Note_on_c, 0, 67, 71
2, 73006, Note_on_c, 0, 54, 0
2, 73006, Note_on_c, 0, 55, 50
2, 73008, Note_on_c, 0, 56, 60
2, 73008, Note_on_c, 0, 61, 59
2, 73030, Note_on_c, 0, 56, 0
2, 73034, Control_c, 0, 64, 0
2, 73035, Note_on_c, 0, 61, 0
2, 73040, Note_on_c, 0, 55, 0
2, 73042, Note_on_c, 0, 67, 0
2, 73054, Note_on_c, 0, 61, 48
2, 73055, Note_on_c, 0, 67, 48
2, 73057, Note_on_c, 0, 56, 47
2, 73057, Note_on_c, 0, 55, 68
2, 73089, Control_c, 0, 64, 127
2, 73124, Note_on_c, 0, 56, 0
2, 73129, Note_on_c, 0, 61, 0
2, 73142, Note_on_c, 0, 67, 0
2, 73142, Note_on_c, 0, 55, 0
2, 73154, Note_on_c, 0, 53, 43
2, 73160, Note_on_c, 0, 56, 37
2, 73160, Note_on_c, 0, 61, 37
2, 73161, Note_on_c, 0, 65, 42
2, 73165, Note_on_c, 0, 53, 0
2, 73172, Note_on_c, 0, 56, 0
2, 73181, Note_on_c, 0, 61, 0
2, 73189, Note_on_c, 0, 65, 0
2, 73236, Note_on_c, 0, 67, 59
2, 73238, Note_on_c, 0, 61, 35
2, 73239, Note_on_c, 0, 55, 57
2, 73241, Note_on_c, 0, 59, 60
2, 73241, Note_on_c, 0, 39, 38
2, 73250, Control_c, 0, 64, 0
2, 73317, Control_c, 0, 64, 127
2, 73350, Note_on_c, 0, 27, 79
2, 73378, Note_on_c, 0, 27, 0
2, 73396, Note_on_c, 0, 55, 0
2, 73396, Note_on_c, 0, 39, 0
2, 73399, Note_on_c, 0, 59, 0
2, 73426, Note_on_c, 0, 61, 0
2, 73430, Note_on_c, 0, 67, 0
2, 73489, Note_on_c, 0, 51, 32
2, 73510, Note_on_c, 0, 52, 27
2, 73519, Note_on_c, 0, 52, 0
2, 73521, Note_on_c, 0, 51, 0
2, 73521, Note_on_c, 0, 63, 44
2, 73521, Note_on_c, 0, 53, 53
2, 73524, Note_on_c, 0, 65, 39
2, 73524, Note_on_c, 0, 68, 32
2, 73525, Note_on_c, 0, 60, 36
2, 73526, Control_c, 0, 64, 0
2, 73535, Note_on_c, 0, 53, 0
2, 73537, Note_on_c, 0, 60, 0
2, 73537, Note_on_c, 0, 65, 0
2, 73545, Note_on_c, 0, 68, 0
2, 73551, Note_on_c, 0, 63, 0
2, 73637, Note_on_c, 0, 63, 46
2, 73638, Note_on_c, 0, 67, 55
2, 73638, Note_on_c, 0, 52, 35
2, 73641, Control_c, 0, 64, 127
2, 73647, Note_on_c, 0, 52, 0
2, 73671, Note_on_c, 0, 67, 0
2, 73672, Note_on_c, 0, 63, 0
2, 73753, Control_c, 0, 64, 0
2, 73756, Note_on_c, 0, 56, 30
2, 73757, Note_on_c, 0, 41, 42
2, 73757, Note_on_c, 0, 65, 40
2, 73759, Note_on_c, 0, 60, 45
2, 73767, Note_on_c, 0, 48, 17
2, 73835, Control_c, 0, 64, 127
2, 73838, Note_on_c, 0, 49, 43
2, 73839, Note_on_c, 0, 48, 0
2, 73866, Note_on_c, 0, 49, 0
2, 73875, Control_c, 0, 64, 0
2, 73885, Note_on_c, 0, 50, 58
2, 73930, Control_c, 0, 64, 127
2, 73956, Note_on_c, 0, 49, 34
2, 73960, Note_on_c, 0, 50, 0
2, 73983, Control_c, 0, 64, 0
2, 73996, Note_on_c, 0, 49, 0
2, 74010, Note_on_c, 0, 48, 40
2, 74018, Control_c, 0, 64, 127
2, 74019, Note_on_c, 0, 41, 0
2, 74056, Note_on_c, 0, 60, 0
2, 74063, Note_on_c, 0, 48, 0
2, 74065, Note_on_c, 0, 56, 0
2, 74072, Note_on_c, 0, 65, 0
2, 74083, Note_on_c, 0, 46, 38
2, 74099, Note_on_c, 0, 46, 0
2, 74113, Control_c, 0, 64, 0
2, 74120, Note_on_c, 0, 57, 57
2, 74122, Note_on_c, 0, 65, 53
2, 74122, Note_on_c, 0, 63, 45
2, 74123, Note_on_c, 0, 47, 51
2, 74123, Note_on_c, 0, 61, 45
2, 74153, Control_c, 0, 64, 127
2, 74166, Note_on_c, 0, 57, 0
2, 74177, Note_on_c, 0, 65, 0
2, 74179, Note_on_c, 0, 61, 0
2, 74187, Note_on_c, 0, 63, 0
2, 74199, Note_on_c, 0, 47, 0
2, 74203, Note_on_c, 0, 65, 55
2, 74205, Note_on_c, 0, 63, 37
2, 74206, Control_c, 0, 64, 0
2, 74208, Note_on_c, 0, 56, 39
2, 74209, Note_on_c, 0, 46, 55
2, 74210, Note_on_c, 0, 60, 52
2, 74243, Control_c, 0, 64, 127
2, 74255, Note_on_c, 0, 56, 0
2, 74258, Note_on_c, 0, 60, 0
2, 74269, Note_on_c, 0, 65, 0
2, 74272, Note_on_c, 0, 63, 0
2, 74276, Note_on_c, 0, 46, 0
2, 74319, Note_on_c, 0, 68, 57
2, 74319, Note_on_c, 0, 46, 53
2, 74319, Note_on_c, 0, 65, 64
2, 74320, Note_on_c, 0, 58, 58
2, 74321, Note_on_c, 0, 63, 53
2, 74321, Note_on_c, 0, 60, 60
2, 74327, Control_c, 0, 64, 0
2, 74356, Control_c, 0, 64, 127
2, 74377, Note_on_c, 0, 58, 0
2, 74400, Note_on_c, 0, 65, 0
2, 74402, Note_on_c, 0, 46, 0
2, 74404, Note_on_c, 0, 68, 0
2, 74404, Note_on_c, 0, 60, 0
2, 74405, Note_on_c, 0, 63, 0
2, 74478, Note_on_c, 0, 67, 58
2, 74479, Note_on_c, 0, 44, 44
2, 74480, Note_on_c, 0, 54, 37
2, 74488, Control_c, 0, 64, 0
2, 74497, Note_on_c, 0, 54, 0
2, 74502, Note_on_c, 0, 44, 0
2, 74507, Note_on_c, 0, 67, 0
2, 74595, Note_on_c, 0, 54, 37
2, 74597, Note_on_c, 0, 44, 40
2, 74598, Note_on_c, 0, 65, 36
2, 74598, Note_on_c, 0, 55, 36
2, 74598, Note_on_c, 0, 60, 43
2, 74614, Note_on_c, 0, 55, 0
2, 74621, Note_on_c, 0, 54, 0
2, 74621, Note_on_c, 0, 60, 0
2, 74634, Control_c, 0, 64, 127
2, 74637, Note_on_c, 0, 44, 0
2, 74642, Note_on_c, 0, 65, 0
2, 74713, Control_c, 0, 64, 0
2, 74721, Note_on_c, 0, 53, 45
2, 74723, Note_on_c, 0, 67, 43
2, 74724, Note_on_c, 0, 64, 42
2, 74724, Note_on_c, 0, 59, 34
2, 74727, Note_on_c, 0, 43, 34
2, 74760, Note_on_c, 0, 64, 0
2, 74771, Note_on_c, 0, 59, 0
2, 74773, Note_on_c, 0, 67, 0
2, 74795, Control_c, 0, 64, 127
2, 74797, Note_on_c, 0, 53, 0
2, 74801, Note_on_c, 0, 66, 33
2, 74802, Note_on_c, 0, 52, 40
2, 74804, Note_on_c, 0, 63, 37
2, 74810, Note_on_c, 0, 59, 26
2, 74820, Note_on_c, 0, 66, 0
2, 74821, Note_on_c, 0, 59, 0
2, 74828, Note_on_c, 0, 63, 0
2, 74830, Note_on_c, 0, 52, 0
2, 74830, Control_c, 0, 64, 0
2, 74839, Note_on_c, 0, 67, 12
2, 74840, Note_on_c, 0, 53, 38
2, 74843, Note_on_c, 0, 59, 36
2, 74890, Control_c, 0, 64, 127
2, 74896, Note_on_c, 0, 67, 0
2, 74905, Note_on_c, 0, 59, 0
2, 74905, Note_on_c, 0, 53, 0
2, 74917, Note_on_c, 0, 66, 40
2, 74929, Note_on_c, 0, 52, 22
2, 74938, Control_c, 0, 64, 0
2, 74942, Note_on_c, 0, 66, 0
2, 74947, Note_on_c, 0, 52, 0
2, 74958, Note_on_c, 0, 53, 44
2, 74959, Note_on_c, 0, 59, 39
2, 74960, Note_on_c, 0, 63, 36
2, 74962, Note_on_c, 0, 67, 41
2, 74979, Note_on_c, 0, 53, 0
2, 74989, Note_on_c, 0, 43, 0
2, 74993, Control_c, 0, 64, 127
2, 75034, Note_on_c, 0, 46, 43
2, 75057, Control_c, 0, 64, 0
2, 75063, Note_on_c, 0, 46, 0
2, 75083, Note_on_c, 0, 47, 34
2, 75084, Note_on_c, 0, 67, 0
2, 75090, Note_on_c, 0, 59, 0
2, 75104, Control_c, 0, 64, 127
2, 75107, Note_on_c, 0, 63, 0
2, 75145, Note_on_c, 0, 47, 0
2, 75151, Note_on_c, 0, 67, 70
2, 75152, Control_c, 0, 64, 0
2, 75153, Note_on_c, 0, 58, 49
2, 75154, Note_on_c, 0, 62, 58
2, 75155, Note_on_c, 0, 48, 43
2, 75163, Note_on_c, 0, 58, 0
2, 75165, Note_on_c, 0, 48, 0
2, 75166, Note_on_c, 0, 62, 0
2, 75174, Note_on_c, 0, 67, 0
2, 75238, Control_c, 0, 64, 127
2, 75263, Note_on_c, 0, 70, 55
2, 75266, Note_on_c, 0, 36, 51
2, 75267, Note_on_c, 0, 63, 47
2, 75267, Control_c, 0, 64, 0
2, 75270, Note_on_c, 0, 48, 31
2, 75275, Note_on_c, 0, 36, 0
2, 75279, Note_on_c, 0, 48, 0
2, 75279, Note_on_c, 0, 63, 0
2, 75286, Note_on_c, 0, 70, 0
2, 75351, Control_c, 0, 64, 127
2, 75397, Note_on_c, 0, 24, 68
2, 75424, Control_c, 0, 64, 0
2, 75440, Note_on_c, 0, 36, 55
2, 75440, Note_on_c, 0, 68, 56
2, 75445, Note_on_c, 0, 64, 58
2, 75445, Note_on_c, 0, 58, 51
2, 75446, Note_on_c, 0, 24, 0
2, 75446, Note_on_c, 0, 61, 53
2, 75494, Control_c, 0, 64, 127
2, 75519, Note_on_c, 0, 68, 0
2, 75523, Note_on_c, 0, 64, 0
2, 75528, Note_on_c, 0, 58, 0
2, 75535, Note_on_c, 0, 61, 0
2, 75547, Control_c, 0, 64, 0
2, 75548, Note_on_c, 0, 36, 0
2, 75551, Note_on_c, 0, 24, 49
2, 75558, Note_on_c, 0, 61, 51
2, 75559, Note_on_c, 0, 58, 53
2, 75560, Note_on_c, 0, 24, 0
2, 75561, Note_on_c, 0, 67, 51
2, 75565, Control_c, 0, 64, 127
2, 75576, Note_on_c, 0, 58, 0
2, 75582, Note_on_c, 0, 67, 0
2, 75584, Note_on_c, 0, 61, 0
2, 75686, Control_c, 0, 64, 0
2, 75690, Note_on_c, 0, 70, 53
2, 75690, Note_on_c, 0, 53, 44
2, 75691, Note_on_c, 0, 63, 47
2, 75691, Note_on_c, 0, 56, 43
2, 75692, Note_on_c, 0, 41, 31
2, 75693, Note_on_c, 0, 48, 31
2, 75750, Control_c, 0, 64, 127
2, 75938, Note_on_c, 0, 56, 0
2, 75938, Note_on_c, 0, 63, 0
2, 75938, Note_on_c, 0, 70, 0
2, 76002, Note_on_c, 0, 41, 0
2, 76029, Note_on_c, 0, 48, 0
2, 76038, Note_on_c, 0, 41, 71
2, 76053, Note_on_c, 0, 53, 0
2, 76107, Note_on_c, 0, 41, 0
2, 76123, Note_on_c, 0, 41, 74
2, 76242, Note_on_c, 0, 60, 103
2, 76248, Note_on_c, 0, 53, 59
2, 76283, Note_on_c, 0, 60, 0
2, 76298, Note_on_c, 0, 60, 61
2, 76339, Note_on_c, 0, 60, 0
2, 76344, Note_on_c, 0, 53, 0
2, 76366, Note_on_c, 0, 60, 66
2, 76394, Note_on_c, 0, 60, 0
2, 76414, Note_on_c, 0, 53, 38
2, 76416, Note_on_c, 0, 60, 51
2, 76449, Note_on_c, 0, 41, 0
2, 76482, Note_on_c, 0, 60, 0
2, 76503, Note_on_c, 0, 53, 0
2, 76511, Note_on_c, 0, 41, 46
2, 76519, Note_on_c, 0, 63, 40
2, 76523, Note_on_c, 0, 41, 0
2, 76538, Note_on_c, 0, 63, 0
2, 76638, Note_on_c, 0, 70, 45
2, 76640, Note_on_c, 0, 63, 38
2, 76641, Note_on_c, 0, 59, 32
2, 76641, Note_on_c, 0, 66, 31
2, 76645, Note_on_c, 0, 58, 36
2, 76648, Control_c, 0, 64, 0
2, 76715, Note_on_c, 0, 46, 33
2, 76732, Control_c, 0, 64, 127
2, 76747, Note_on_c, 0, 46, 0
2, 76765, Note_on_c, 0, 46, 36
2, 76798, Note_on_c, 0, 46, 0
2, 76839, Note_on_c, 0, 46, 45
2, 76858, Note_on_c, 0, 59, 0
2, 76868, Note_on_c, 0, 58, 0
2, 76874, Note_on_c, 0, 63, 0
2, 76878, Note_on_c, 0, 66, 0
2, 76954, Note_on_c, 0, 63, 35
2, 76955, Note_on_c, 0, 66, 31
2, 76956, Note_on_c, 0, 59, 40
2, 76957, Note_on_c, 0, 58, 36
2, 76997, Note_on_c, 0, 46, 0
2, 77025, Note_on_c, 0, 58, 0
2, 77064, Note_on_c, 0, 46, 46
2, 77091, Note_on_c, 0, 46, 0
2, 77140, Note_on_c, 0, 70, 0
2, 77143, Note_on_c, 0, 66, 0
2, 77151, Note_on_c, 0, 63, 0
2, 77177, Note_on_c, 0, 59, 0
2, 77188, Note_on_c, 0, 34, 52
2, 77240, Note_on_c, 0, 34, 0
2, 77311, Note_on_c, 0, 34, 47
2, 77334, Note_on_c, 0, 34, 0
2, 77355, Note_on_c, 0, 34, 39
2, 77358, Note_on_c, 0, 46, 43
2, 77358, Note_on_c, 0, 60, 83
2, 77359, Control_c, 0, 64, 0
2, 77396, Control_c, 0, 64, 127
2, 77422, Note_on_c, 0, 34, 0
2, 77425, Note_on_c, 0, 60, 0
2, 77428, Note_on_c, 0, 46, 0
2, 77479, Note_on_c, 0, 34, 27
2, 77483, Note_on_c, 0, 61, 65
2, 77494, Note_on_c, 0, 34, 0
2, 77539, Note_on_c, 0, 61, 0
2, 77610, Control_c, 0, 64, 0
2, 77610, Note_on_c, 0, 62, 55
2, 77612, Note_on_c, 0, 24, 40
2, 77613, Note_on_c, 0, 36, 43
2, 77613, Note_on_c, 0, 55, 53
2, 77613, Note_on_c, 0, 50, 34
2, 77615, Note_on_c, 0, 57, 43
2, 77652, Control_c, 0, 64, 127
2, 77660, Note_on_c, 0, 50, 0
2, 77663, Note_on_c, 0, 57, 0
2, 77666, Note_on_c, 0, 55, 0
2, 77678, Note_on_c, 0, 62, 0
2, 77687, Note_on_c, 0, 24, 0
2, 77701, Note_on_c, 0, 36, 0
2, 77757, Note_on_c, 0, 74, 61
2, 77834, Note_on_c, 0, 67, 38
2, 77835, Note_on_c, 0, 62, 26
2, 77872, Note_on_c, 0, 74, 0
2, 77892, Note_on_c, 0, 69, 54
2, 77899, Note_on_c, 0, 67, 0
2, 77908, Note_on_c, 0, 64, 14
2, 77939, Note_on_c, 0, 69, 0
2, 77944, Note_on_c, 0, 74, 64
2, 77952, Note_on_c, 0, 67, 32
2, 77968, Note_on_c, 0, 74, 0
2, 77996, Note_on_c, 0, 76, 68
2, 78011, Note_on_c, 0, 64, 0
2, 78036, Note_on_c, 0, 76, 0
2, 78044, Note_on_c, 0, 74, 46
2, 78074, Note_on_c, 0, 74, 0
2, 78093, Note_on_c, 0, 81, 69
2, 78141, Note_on_c, 0, 81, 0
2, 78148, Note_on_c, 0, 79, 46
2, 78180, Note_on_c, 0, 79, 0
2, 78194, Note_on_c, 0, 86, 71
2, 78196, Note_on_c, 0, 64, 37
2, 78234, Note_on_c, 0, 86, 0
2, 78250, Note_on_c, 0, 84, 46
2, 78281, Note_on_c, 0, 84, 0
2, 78295, Note_on_c, 0, 88, 47
2, 78300, Note_on_c, 0, 67, 0
2, 78307, Note_on_c, 0, 64, 0
2, 78313, Note_on_c, 0, 62, 0
2, 78328, Note_on_c, 0, 88, 0
2, 78345, Note_on_c, 0, 86, 37
2, 78382, Note_on_c, 0, 86, 0
2, 78398, Note_on_c, 0, 98, 55
2, 78450, Note_on_c, 0, 48, 49
2, 78451, Note_on_c, 0, 91, 50
2, 78505, Note_on_c, 0, 91, 0
2, 78507, Note_on_c, 0, 98, 0
2, 78509, Note_on_c, 0, 48, 0
2, 78511, Note_on_c, 0, 93, 51
2, 78537, Note_on_c, 0, 93, 0
2, 78573, Note_on_c, 0, 62, 34
2, 78578, Note_on_c, 0, 98, 18
2, 78616, Note_on_c, 0, 98, 0
2, 78637, Note_on_c, 0, 100, 55
2, 78639, Note_on_c, 0, 64, 31
2, 78693, Note_on_c, 0, 100, 0
2, 78705, Note_on_c, 0, 67, 42
2, 78719, Note_on_c, 0, 96, 18
2, 78721, Note_on_c, 0, 98, 15
2, 78733, Note_on_c, 0, 96, 0
2, 78755, Note_on_c, 0, 98, 0
2, 78761, Note_on_c, 0, 64, 0
2, 78784, Note_on_c, 0, 105, 49
2, 78858, Note_on_c, 0, 100, 44
2, 78860, Note_on_c, 0, 64, 32
2, 78948, Note_on_c, 0, 67, 0
2, 78953, Note_on_c, 0, 64, 0
2, 78956, Note_on_c, 0, 62, 0
2, 78974, Note_on_c, 0, 105, 0
2, 78979, Note_on_c, 0, 100, 0
2, 79155, Note_on_c, 0, 24, 24
2, 79221, Note_on_c, 0, 24, 0
2, 79463, Control_c, 0, 64, 0
2, 79463, End_track
0, 0, End_of_file
