0, 0, Header, 1, 4, 960
1, 0, Start_track
1, 0, Title_t, "Ladies in Mercedes"
1, 0, Text_t, "dougmck@pipeline.com.au    Lead sheet is in (illegal) Real book #3. There are (great) words by Norma Winstone, Good versions by her, and also Tina May and also by Carla Bley with the composer of the song, bassist Steve Swallow. It is usually done with  a\012"
1, 0, Time_signature, 4, 2, 24, 8
1, 0, Key_signature, 0, "major"
1, 0, Tempo, 307692
1, 0, End_track
2, 0, Start_track
2, 0, Title_t, "Piano"
2, 0, Note_on_c, 0, 40, 34
2, 876, Note_on_c, 0, 66, 33
2, 899, Note_on_c, 0, 57, 30
2, 975, Note_on_c, 0, 59, 27
2, 994, Note_on_c, 0, 62, 30
2, 1116, Note_on_c, 0, 57, 0
2, 1136, Note_on_c, 0, 59, 0
2, 1157, Note_on_c, 0, 62, 0
2, 1217, Note_on_c, 0, 66, 0
2, 1328, Note_on_c, 0, 40, 0
2, 1440, Note_on_c, 0, 42, 37
2, 2820, Note_on_c, 0, 66, 40
2, 2828, Note_on_c, 0, 57, 38
2, 2854, Note_on_c, 0, 59, 33
2, 2880, Note_on_c, 0, 62, 36
2, 3000, Note_on_c, 0, 57, 0
2, 3015, Note_on_c, 0, 59, 0
2, 3036, Note_on_c, 0, 62, 0
2, 3063, Note_on_c, 0, 66, 0
2, 3360, Note_on_c, 0, 40, 49
2, 3482, Note_on_c, 0, 42, 0
2, 4786, Note_on_c, 0, 66, 51
2, 4796, Note_on_c, 0, 59, 46
2, 4800, Note_on_c, 0, 62, 43
2, 4810, Note_on_c, 0, 57, 45
2, 5250, Note_on_c, 0, 40, 0
2, 5280, Note_on_c, 0, 42, 53
2, 6514, Note_on_c, 0, 66, 0
2, 6536, Note_on_c, 0, 57, 0
2, 6540, Note_on_c, 0, 59, 0
2, 6598, Note_on_c, 0, 62, 0
2, 6773, Note_on_c, 0, 66, 41
2, 6778, Note_on_c, 0, 57, 44
2, 6795, Note_on_c, 0, 59, 42
2, 6807, Note_on_c, 0, 62, 46
2, 6936, Note_on_c, 0, 59, 0
2, 6944, Note_on_c, 0, 57, 0
2, 6948, Note_on_c, 0, 62, 0
2, 6972, Note_on_c, 0, 66, 0
2, 7629, Note_on_c, 0, 42, 0
2, 7680, Note_on_c, 0, 40, 49
2, 8681, Note_on_c, 0, 58, 57
2, 8688, Note_on_c, 0, 66, 49
2, 8700, Note_on_c, 0, 62, 49
2, 8856, Note_on_c, 0, 58, 0
2, 8892, Note_on_c, 0, 66, 0
2, 8948, Note_on_c, 0, 62, 0
2, 9092, Note_on_c, 0, 40, 0
2, 9120, Note_on_c, 0, 42, 56
2, 10551, Note_on_c, 0, 66, 48
2, 10556, Note_on_c, 0, 58, 53
2, 10582, Note_on_c, 0, 62, 42
2, 10659, Note_on_c, 0, 58, 0
2, 10671, Note_on_c, 0, 62, 0
2, 10726, Note_on_c, 0, 66, 0
2, 10962, Note_on_c, 0, 42, 0
2, 11040, Note_on_c, 0, 40, 56
2, 12425, Note_on_c, 0, 66, 60
2, 12428, Note_on_c, 0, 58, 62
2, 12442, Note_on_c, 0, 62, 56
2, 12960, Note_on_c, 0, 42, 60
2, 13035, Note_on_c, 0, 40, 0
2, 14103, Note_on_c, 0, 66, 0
2, 14103, Note_on_c, 0, 58, 0
2, 14218, Note_on_c, 0, 62, 0
2, 14355, Note_on_c, 0, 58, 46
2, 14369, Note_on_c, 0, 66, 38
2, 14386, Note_on_c, 0, 62, 47
2, 14501, Note_on_c, 0, 62, 0
2, 14532, Note_on_c, 0, 58, 0
2, 14580, Note_on_c, 0, 66, 0
2, 15275, Note_on_c, 0, 42, 0
2, 15360, Note_on_c, 0, 40, 51
2, 16294, Note_on_c, 0, 61, 43
2, 16299, Note_on_c, 0, 66, 44
2, 16308, Note_on_c, 0, 57, 44
2, 16335, Note_on_c, 0, 62, 40
2, 16412, Note_on_c, 0, 57, 0
2, 16450, Note_on_c, 0, 62, 0
2, 16505, Note_on_c, 0, 66, 0
2, 16520, Note_on_c, 0, 61, 0
2, 16729, Note_on_c, 0, 40, 0
2, 16800, Note_on_c, 0, 42, 56
2, 18192, Note_on_c, 0, 61, 42
2, 18195, Note_on_c, 0, 66, 45
2, 18209, Note_on_c, 0, 57, 44
2, 18238, Note_on_c, 0, 62, 38
2, 18315, Note_on_c, 0, 57, 0
2, 18363, Note_on_c, 0, 62, 0
2, 18413, Note_on_c, 0, 61, 0
2, 18425, Note_on_c, 0, 66, 0
2, 18720, Note_on_c, 0, 40, 61
2, 18835, Note_on_c, 0, 42, 0
2, 20103, Note_on_c, 0, 61, 49
2, 20105, Note_on_c, 0, 66, 55
2, 20122, Note_on_c, 0, 57, 52
2, 20122, Note_on_c, 0, 62, 51
2, 20576, Note_on_c, 0, 40, 0
2, 20640, Note_on_c, 0, 42, 59
2, 21800, Note_on_c, 0, 57, 0
2, 21828, Note_on_c, 0, 66, 0
2, 21848, Note_on_c, 0, 62, 0
2, 21850, Note_on_c, 0, 61, 0
2, 22068, Note_on_c, 0, 66, 45
2, 22073, Note_on_c, 0, 61, 43
2, 22085, Note_on_c, 0, 57, 49
2, 22100, Note_on_c, 0, 62, 41
2, 22196, Note_on_c, 0, 57, 0
2, 22203, Note_on_c, 0, 62, 0
2, 22272, Note_on_c, 0, 61, 0
2, 22292, Note_on_c, 0, 66, 0
2, 23040, Note_on_c, 0, 40, 53
2, 23096, Note_on_c, 0, 42, 0
2, 24008, Note_on_c, 0, 66, 48
2, 24012, Note_on_c, 0, 56, 50
2, 24044, Note_on_c, 0, 62, 43
2, 24144, Note_on_c, 0, 62, 0
2, 24195, Note_on_c, 0, 56, 0
2, 24226, Note_on_c, 0, 66, 0
2, 24403, Note_on_c, 0, 40, 0
2, 24480, Note_on_c, 0, 42, 55
2, 25884, Note_on_c, 0, 56, 60
2, 25892, Note_on_c, 0, 66, 52
2, 25904, Note_on_c, 0, 62, 49
2, 25995, Note_on_c, 0, 62, 0
2, 26031, Note_on_c, 0, 56, 0
2, 26060, Note_on_c, 0, 66, 0
2, 26312, Note_on_c, 0, 42, 0
2, 26400, Note_on_c, 0, 40, 54
2, 27821, Note_on_c, 0, 56, 65
2, 27824, Note_on_c, 0, 66, 60
2, 27836, Note_on_c, 0, 62, 58
2, 28286, Note_on_c, 0, 40, 0
2, 28320, Note_on_c, 0, 42, 60
2, 29391, Note_on_c, 0, 56, 0
2, 29400, Note_on_c, 0, 62, 0
2, 29420, Note_on_c, 0, 66, 0
2, 29684, Note_on_c, 0, 66, 54
2, 29705, Note_on_c, 0, 56, 50
2, 29710, Note_on_c, 0, 62, 55
2, 29837, Note_on_c, 0, 56, 0
2, 29900, Note_on_c, 0, 62, 0
2, 29924, Note_on_c, 0, 66, 0
2, 30720, Note_on_c, 0, 44, 57
2, 30822, Note_on_c, 0, 42, 0
2, 31664, Note_on_c, 0, 63, 46
2, 31683, Note_on_c, 0, 53, 40
2, 31700, Note_on_c, 0, 58, 42
2, 31707, Note_on_c, 0, 59, 50
2, 31786, Note_on_c, 0, 53, 0
2, 31815, Note_on_c, 0, 59, 0
2, 31880, Note_on_c, 0, 63, 0
2, 31894, Note_on_c, 0, 58, 0
2, 32160, Note_on_c, 0, 45, 65
2, 32176, Note_on_c, 0, 44, 0
2, 33483, Note_on_c, 0, 54, 45
2, 33490, Note_on_c, 0, 63, 41
2, 33502, Note_on_c, 0, 58, 40
2, 33521, Note_on_c, 0, 59, 45
2, 33569, Note_on_c, 0, 54, 0
2, 33610, Note_on_c, 0, 59, 0
2, 33656, Note_on_c, 0, 58, 0
2, 33699, Note_on_c, 0, 63, 0
2, 34080, Note_on_c, 0, 44, 65
2, 34146, Note_on_c, 0, 45, 0
2, 35434, Note_on_c, 0, 63, 49
2, 35477, Note_on_c, 0, 59, 48
2, 35482, Note_on_c, 0, 53, 41
2, 35487, Note_on_c, 0, 58, 39
2, 36000, Note_on_c, 0, 45, 70
2, 36037, Note_on_c, 0, 44, 0
2, 36910, Note_on_c, 0, 53, 0
2, 37061, Note_on_c, 0, 59, 0
2, 37064, Note_on_c, 0, 63, 0
2, 37097, Note_on_c, 0, 58, 0
2, 37347, Note_on_c, 0, 63, 50
2, 37352, Note_on_c, 0, 58, 50
2, 37364, Note_on_c, 0, 53, 52
2, 37380, Note_on_c, 0, 59, 52
2, 37450, Note_on_c, 0, 53, 0
2, 37464, Note_on_c, 0, 59, 0
2, 37560, Note_on_c, 0, 58, 0
2, 37575, Note_on_c, 0, 63, 0
2, 38400, Note_on_c, 0, 44, 57
2, 38461, Note_on_c, 0, 45, 0
2, 39348, Note_on_c, 0, 68, 46
2, 39363, Note_on_c, 0, 61, 46
2, 39368, Note_on_c, 0, 57, 52
2, 39399, Note_on_c, 0, 64, 39
2, 39464, Note_on_c, 0, 57, 0
2, 39500, Note_on_c, 0, 64, 0
2, 39564, Note_on_c, 0, 61, 0
2, 39567, Note_on_c, 0, 68, 0
2, 39840, Note_on_c, 0, 45, 71
2, 39905, Note_on_c, 0, 44, 0
2, 41196, Note_on_c, 0, 68, 47
2, 41199, Note_on_c, 0, 61, 51
2, 41208, Note_on_c, 0, 57, 54
2, 41230, Note_on_c, 0, 64, 41
2, 41300, Note_on_c, 0, 57, 0
2, 41331, Note_on_c, 0, 64, 0
2, 41381, Note_on_c, 0, 68, 0
2, 41391, Note_on_c, 0, 61, 0
2, 41758, Note_on_c, 0, 45, 0
2, 41760, Note_on_c, 0, 44, 70
2, 43155, Note_on_c, 0, 68, 58
2, 43167, Note_on_c, 0, 61, 55
2, 43169, Note_on_c, 0, 57, 64
2, 43181, Note_on_c, 0, 64, 57
2, 43680, Note_on_c, 0, 45, 74
2, 43788, Note_on_c, 0, 44, 0
2, 44436, Note_on_c, 0, 57, 0
2, 44566, Note_on_c, 0, 68, 0
2, 44576, Note_on_c, 0, 61, 0
2, 44597, Note_on_c, 0, 64, 0
2, 45147, Note_on_c, 0, 68, 47
2, 45159, Note_on_c, 0, 61, 55
2, 45183, Note_on_c, 0, 57, 43
2, 45185, Note_on_c, 0, 64, 51
2, 45272, Note_on_c, 0, 64, 0
2, 45291, Note_on_c, 0, 57, 0
2, 45375, Note_on_c, 0, 68, 0
2, 45389, Note_on_c, 0, 61, 0
2, 46080, Note_on_c, 0, 44, 66
2, 46146, Note_on_c, 0, 45, 0
2, 46995, Note_on_c, 0, 61, 54
2, 47000, Note_on_c, 0, 63, 48
2, 47002, Note_on_c, 0, 58, 51
2, 47004, Note_on_c, 0, 55, 51
2, 47117, Note_on_c, 0, 55, 0
2, 47144, Note_on_c, 0, 58, 0
2, 47206, Note_on_c, 0, 61, 0
2, 47259, Note_on_c, 0, 63, 0
2, 47460, Note_on_c, 0, 44, 0
2, 47520, Note_on_c, 0, 45, 73
2, 48821, Note_on_c, 0, 63, 51
2, 48833, Note_on_c, 0, 61, 48
2, 48836, Note_on_c, 0, 58, 55
2, 48850, Note_on_c, 0, 55, 41
2, 48881, Note_on_c, 0, 57, 45
2, 49088, Note_on_c, 0, 58, 0
2, 49092, Note_on_c, 0, 57, 0
2, 49126, Note_on_c, 0, 61, 0
2, 49136, Note_on_c, 0, 55, 0
2, 49145, Note_on_c, 0, 63, 0
2, 49920, Note_on_c, 0, 44, 24
2, 50009, Note_on_c, 0, 44, 0
2, 50040, Note_on_c, 0, 45, 0
2, 50823, Note_on_c, 0, 58, 60
2, 50825, Note_on_c, 0, 55, 50
2, 50835, Note_on_c, 0, 61, 50
2, 50837, Note_on_c, 0, 63, 51
2, 50840, Note_on_c, 0, 57, 55
2, 51360, Note_on_c, 0, 45, 71
2, 52335, Note_on_c, 0, 55, 0
2, 52366, Note_on_c, 0, 57, 0
2, 52395, Note_on_c, 0, 58, 0
2, 52512, Note_on_c, 0, 63, 0
2, 52527, Note_on_c, 0, 61, 0
2, 52788, Note_on_c, 0, 61, 51
2, 52791, Note_on_c, 0, 57, 46
2, 52793, Note_on_c, 0, 58, 55
2, 52803, Note_on_c, 0, 55, 33
2, 52805, Note_on_c, 0, 63, 43
2, 52916, Note_on_c, 0, 55, 0
2, 52944, Note_on_c, 0, 57, 0
2, 52966, Note_on_c, 0, 58, 0
2, 53000, Note_on_c, 0, 61, 0
2, 53064, Note_on_c, 0, 63, 0
2, 53748, Note_on_c, 0, 45, 0
2, 53760, Note_on_c, 0, 44, 63
2, 54694, Note_on_c, 0, 54, 52
2, 54711, Note_on_c, 0, 65, 39
2, 54723, Note_on_c, 0, 58, 52
2, 54780, Note_on_c, 0, 60, 33
2, 54826, Note_on_c, 0, 65, 0
2, 54867, Note_on_c, 0, 54, 0
2, 54886, Note_on_c, 0, 60, 0
2, 54922, Note_on_c, 0, 58, 0
2, 55200, Note_on_c, 0, 45, 72
2, 55238, Note_on_c, 0, 44, 0
2, 56648, Note_on_c, 0, 54, 44
2, 56660, Note_on_c, 0, 57, 47
2, 56662, Note_on_c, 0, 65, 36
2, 56674, Note_on_c, 0, 60, 46
2, 56729, Note_on_c, 0, 54, 0
2, 56770, Note_on_c, 0, 65, 0
2, 56780, Note_on_c, 0, 57, 0
2, 56842, Note_on_c, 0, 60, 0
2, 57120, Note_on_c, 0, 44, 73
2, 57141, Note_on_c, 0, 45, 0
2, 58508, Note_on_c, 0, 54, 62
2, 58524, Note_on_c, 0, 57, 57
2, 58565, Note_on_c, 0, 65, 29
2, 58568, Note_on_c, 0, 60, 33
2, 58673, Note_on_c, 0, 54, 0
2, 58683, Note_on_c, 0, 60, 0
2, 58685, Note_on_c, 0, 65, 0
2, 58755, Note_on_c, 0, 57, 0
2, 59040, Note_on_c, 0, 45, 73
2, 59056, Note_on_c, 0, 44, 0
2, 60068, Note_on_c, 0, 54, 60
2, 60092, Note_on_c, 0, 57, 51
2, 60096, Note_on_c, 0, 65, 44
2, 60128, Note_on_c, 0, 60, 34
2, 60442, Note_on_c, 0, 54, 0
2, 60447, Note_on_c, 0, 57, 0
2, 60468, Note_on_c, 0, 60, 0
2, 60543, Note_on_c, 0, 65, 0
2, 61436, Note_on_c, 0, 45, 0
2, 61440, Note_on_c, 0, 46, 74
2, 62396, Note_on_c, 0, 61, 63
2, 62398, Note_on_c, 0, 68, 49
2, 62422, Note_on_c, 0, 60, 51
2, 62458, Note_on_c, 0, 65, 27
2, 62501, Note_on_c, 0, 60, 0
2, 62585, Note_on_c, 0, 61, 0
2, 62592, Note_on_c, 0, 68, 0
2, 62597, Note_on_c, 0, 65, 0
2, 62880, Note_on_c, 0, 48, 79
2, 63065, Note_on_c, 0, 46, 0
2, 64212, Note_on_c, 0, 61, 65
2, 64215, Note_on_c, 0, 68, 56
2, 64227, Note_on_c, 0, 60, 60
2, 64260, Note_on_c, 0, 65, 39
2, 64308, Note_on_c, 0, 60, 0
2, 64368, Note_on_c, 0, 65, 0
2, 64383, Note_on_c, 0, 61, 0
2, 64404, Note_on_c, 0, 68, 0
2, 64800, Note_on_c, 0, 46, 52
2, 64917, Note_on_c, 0, 48, 0
2, 66180, Note_on_c, 0, 68, 64
2, 66188, Note_on_c, 0, 61, 70
2, 66200, Note_on_c, 0, 60, 63
2, 66202, Note_on_c, 0, 65, 55
2, 66720, Note_on_c, 0, 48, 74
2, 66791, Note_on_c, 0, 46, 0
2, 67822, Note_on_c, 0, 60, 0
2, 67899, Note_on_c, 0, 68, 0
2, 67949, Note_on_c, 0, 61, 0
2, 67956, Note_on_c, 0, 65, 0
2, 68124, Note_on_c, 0, 68, 48
2, 68129, Note_on_c, 0, 61, 61
2, 68132, Note_on_c, 0, 60, 52
2, 68144, Note_on_c, 0, 65, 51
2, 68218, Note_on_c, 0, 60, 0
2, 68235, Note_on_c, 0, 65, 0
2, 68297, Note_on_c, 0, 68, 0
2, 68300, Note_on_c, 0, 61, 0
2, 69120, Note_on_c, 0, 46, 70
2, 69146, Note_on_c, 0, 48, 0
2, 70016, Note_on_c, 0, 63, 58
2, 70020, Note_on_c, 0, 58, 61
2, 70037, Note_on_c, 0, 52, 45
2, 70143, Note_on_c, 0, 52, 0
2, 70191, Note_on_c, 0, 63, 0
2, 70232, Note_on_c, 0, 58, 0
2, 70560, Note_on_c, 0, 48, 75
2, 70603, Note_on_c, 0, 46, 0
2, 71952, Note_on_c, 0, 58, 64
2, 71955, Note_on_c, 0, 63, 61
2, 71957, Note_on_c, 0, 52, 63
2, 72036, Note_on_c, 0, 63, 0
2, 72051, Note_on_c, 0, 52, 0
2, 72104, Note_on_c, 0, 58, 0
2, 72480, Note_on_c, 0, 46, 73
2, 72501, Note_on_c, 0, 48, 0
2, 73860, Note_on_c, 0, 63, 70
2, 73870, Note_on_c, 0, 58, 72
2, 73884, Note_on_c, 0, 52, 68
2, 74400, Note_on_c, 0, 48, 72
2, 74510, Note_on_c, 0, 46, 0
2, 75430, Note_on_c, 0, 52, 0
2, 75483, Note_on_c, 0, 63, 0
2, 75550, Note_on_c, 0, 58, 0
2, 75706, Note_on_c, 0, 63, 58
2, 75723, Note_on_c, 0, 52, 56
2, 75725, Note_on_c, 0, 58, 62
2, 75831, Note_on_c, 0, 52, 0
2, 75917, Note_on_c, 0, 58, 0
2, 75920, Note_on_c, 0, 63, 0
2, 76800, Note_on_c, 0, 46, 80
2, 76888, Note_on_c, 0, 48, 0
2, 77741, Note_on_c, 0, 56, 65
2, 77758, Note_on_c, 0, 60, 53
2, 77765, Note_on_c, 0, 67, 56
2, 77784, Note_on_c, 0, 63, 41
2, 77842, Note_on_c, 0, 60, 0
2, 77844, Note_on_c, 0, 56, 0
2, 77883, Note_on_c, 0, 63, 0
2, 77902, Note_on_c, 0, 67, 0
2, 78240, Note_on_c, 0, 48, 81
2, 78326, Note_on_c, 0, 46, 0
2, 79604, Note_on_c, 0, 56, 72
2, 79632, Note_on_c, 0, 60, 54
2, 79637, Note_on_c, 0, 67, 51
2, 79640, Note_on_c, 0, 63, 43
2, 79714, Note_on_c, 0, 60, 0
2, 79738, Note_on_c, 0, 56, 0
2, 79740, Note_on_c, 0, 67, 0
2, 79772, Note_on_c, 0, 63, 0
2, 80160, Note_on_c, 0, 46, 80
2, 80230, Note_on_c, 0, 48, 0
2, 81586, Note_on_c, 0, 56, 74
2, 81603, Note_on_c, 0, 63, 53
2, 81610, Note_on_c, 0, 60, 56
2, 81617, Note_on_c, 0, 67, 59
2, 82071, Note_on_c, 0, 46, 0
2, 82080, Note_on_c, 0, 48, 80
2, 83218, Note_on_c, 0, 67, 0
2, 83247, Note_on_c, 0, 56, 0
2, 83283, Note_on_c, 0, 60, 0
2, 83285, Note_on_c, 0, 63, 0
2, 83511, Note_on_c, 0, 56, 55
2, 83516, Note_on_c, 0, 63, 48
2, 83525, Note_on_c, 0, 60, 43
2, 83542, Note_on_c, 0, 67, 35
2, 83597, Note_on_c, 0, 56, 0
2, 83616, Note_on_c, 0, 60, 0
2, 83652, Note_on_c, 0, 67, 0
2, 83729, Note_on_c, 0, 63, 0
2, 84480, Note_on_c, 0, 46, 75
2, 84510, Note_on_c, 0, 48, 0
2, 85402, Note_on_c, 0, 56, 64
2, 85448, Note_on_c, 0, 62, 50
2, 85452, Note_on_c, 0, 67, 33
2, 85536, Note_on_c, 0, 62, 0
2, 85575, Note_on_c, 0, 56, 0
2, 85580, Note_on_c, 0, 67, 0
2, 85920, Note_on_c, 0, 48, 79
2, 85994, Note_on_c, 0, 46, 0
2, 87272, Note_on_c, 0, 56, 61
2, 87303, Note_on_c, 0, 62, 54
2, 87327, Note_on_c, 0, 67, 28
2, 87375, Note_on_c, 0, 56, 0
2, 87387, Note_on_c, 0, 62, 0
2, 87447, Note_on_c, 0, 67, 0
2, 87765, Note_on_c, 0, 48, 0
2, 87840, Note_on_c, 0, 46, 76
2, 89204, Note_on_c, 0, 56, 72
2, 89218, Note_on_c, 0, 62, 66
2, 89220, Note_on_c, 0, 67, 62
2, 89760, Note_on_c, 0, 48, 81
2, 89793, Note_on_c, 0, 46, 0
2, 90833, Note_on_c, 0, 67, 0
2, 90855, Note_on_c, 0, 56, 0
2, 90888, Note_on_c, 0, 62, 0
2, 91107, Note_on_c, 0, 56, 66
2, 91124, Note_on_c, 0, 67, 50
2, 91126, Note_on_c, 0, 62, 55
2, 91241, Note_on_c, 0, 67, 0
2, 91275, Note_on_c, 0, 56, 0
2, 91277, Note_on_c, 0, 62, 0
2, 92136, Note_on_c, 0, 48, 0
2, 92160, Note_on_c, 0, 50, 89
2, 93092, Note_on_c, 0, 67, 51
2, 93104, Note_on_c, 0, 55, 51
2, 93106, Note_on_c, 0, 59, 55
2, 93118, Note_on_c, 0, 63, 46
2, 93267, Note_on_c, 0, 59, 0
2, 93276, Note_on_c, 0, 55, 0
2, 93320, Note_on_c, 0, 67, 0
2, 93348, Note_on_c, 0, 63, 0
2, 93600, Note_on_c, 0, 51, 87
2, 93691, Note_on_c, 0, 50, 0
2, 94925, Note_on_c, 0, 63, 47
2, 94928, Note_on_c, 0, 67, 49
2, 94930, Note_on_c, 0, 55, 57
2, 94944, Note_on_c, 0, 59, 55
2, 95045, Note_on_c, 0, 59, 0
2, 95069, Note_on_c, 0, 55, 0
2, 95168, Note_on_c, 0, 63, 0
2, 95177, Note_on_c, 0, 67, 0
2, 95477, Note_on_c, 0, 51, 0
2, 95520, Note_on_c, 0, 50, 76
2, 96920, Note_on_c, 0, 63, 56
2, 96932, Note_on_c, 0, 67, 60
2, 96934, Note_on_c, 0, 55, 66
2, 96939, Note_on_c, 0, 59, 63
2, 97440, Note_on_c, 0, 51, 86
2, 97456, Note_on_c, 0, 50, 0
2, 98530, Note_on_c, 0, 55, 0
2, 98590, Note_on_c, 0, 59, 0
2, 98597, Note_on_c, 0, 67, 0
2, 98698, Note_on_c, 0, 63, 0
2, 98818, Note_on_c, 0, 63, 26
2, 98823, Note_on_c, 0, 59, 57
2, 98825, Note_on_c, 0, 67, 31
2, 98840, Note_on_c, 0, 55, 57
2, 98976, Note_on_c, 0, 55, 0
2, 99008, Note_on_c, 0, 59, 0
2, 99022, Note_on_c, 0, 67, 0
2, 99089, Note_on_c, 0, 63, 0
2, 99840, Note_on_c, 0, 50, 79
2, 99975, Note_on_c, 0, 51, 0
2, 100784, Note_on_c, 0, 58, 79
2, 100788, Note_on_c, 0, 67, 70
2, 100820, Note_on_c, 0, 62, 65
2, 100832, Note_on_c, 0, 63, 37
2, 100904, Note_on_c, 0, 62, 0
2, 100920, Note_on_c, 0, 63, 0
2, 100952, Note_on_c, 0, 58, 0
2, 101045, Note_on_c, 0, 67, 0
2, 101150, Note_on_c, 0, 50, 0
2, 101280, Note_on_c, 0, 51, 82
2, 102644, Note_on_c, 0, 58, 80
2, 102670, Note_on_c, 0, 62, 69
2, 102675, Note_on_c, 0, 67, 59
2, 102694, Note_on_c, 0, 63, 37
2, 102795, Note_on_c, 0, 63, 0
2, 102819, Note_on_c, 0, 58, 0
2, 102821, Note_on_c, 0, 62, 0
2, 102872, Note_on_c, 0, 67, 0
2, 103633, Note_on_c, 0, 51, 0
2, 103680, Note_on_c, 0, 50, 79
2, 104636, Note_on_c, 0, 58, 80
2, 104650, Note_on_c, 0, 67, 69
2, 104652, Note_on_c, 0, 62, 75
2, 104667, Note_on_c, 0, 63, 47
2, 105120, Note_on_c, 0, 51, 84
2, 105186, Note_on_c, 0, 50, 0
2, 106198, Note_on_c, 0, 58, 0
2, 106205, Note_on_c, 0, 62, 0
2, 106289, Note_on_c, 0, 67, 0
2, 106294, Note_on_c, 0, 63, 0
2, 106534, Note_on_c, 0, 58, 71
2, 106551, Note_on_c, 0, 63, 56
2, 106572, Note_on_c, 0, 67, 41
2, 106577, Note_on_c, 0, 62, 67
2, 106656, Note_on_c, 0, 62, 0
2, 106676, Note_on_c, 0, 67, 0
2, 106707, Note_on_c, 0, 58, 0
2, 106800, Note_on_c, 0, 63, 0
2, 107520, Note_on_c, 0, 50, 79
2, 107528, Note_on_c, 0, 51, 0
2, 108425, Note_on_c, 0, 63, 57
2, 108428, Note_on_c, 0, 57, 72
2, 108440, Note_on_c, 0, 67, 55
2, 108447, Note_on_c, 0, 62, 67
2, 108617, Note_on_c, 0, 57, 0
2, 108627, Note_on_c, 0, 62, 0
2, 108696, Note_on_c, 0, 67, 0
2, 108756, Note_on_c, 0, 63, 0
2, 108960, Note_on_c, 0, 51, 84
2, 109037, Note_on_c, 0, 50, 0
2, 110340, Note_on_c, 0, 57, 75
2, 110352, Note_on_c, 0, 63, 57
2, 110357, Note_on_c, 0, 67, 57
2, 110360, Note_on_c, 0, 62, 66
2, 110432, Note_on_c, 0, 57, 0
2, 110441, Note_on_c, 0, 62, 0
2, 110475, Note_on_c, 0, 67, 0
2, 110506, Note_on_c, 0, 63, 0
2, 110880, Note_on_c, 0, 50, 81
2, 110944, Note_on_c, 0, 51, 0
2, 112270, Note_on_c, 0, 63, 73
2, 112282, Note_on_c, 0, 67, 74
2, 112284, Note_on_c, 0, 62, 82
2, 112287, Note_on_c, 0, 57, 83
2, 112698, Note_on_c, 0, 50, 0
2, 112800, Note_on_c, 0, 51, 84
2, 113849, Note_on_c, 0, 57, 0
2, 113883, Note_on_c, 0, 62, 0
2, 113933, Note_on_c, 0, 63, 0
2, 113957, Note_on_c, 0, 67, 0
2, 114144, Note_on_c, 0, 57, 60
2, 114156, Note_on_c, 0, 67, 55
2, 114161, Note_on_c, 0, 62, 63
2, 114164, Note_on_c, 0, 63, 44
2, 114317, Note_on_c, 0, 57, 0
2, 114322, Note_on_c, 0, 67, 0
2, 114334, Note_on_c, 0, 62, 0
2, 114380, Note_on_c, 0, 63, 0
2, 115200, Note_on_c, 0, 50, 76
2, 115289, Note_on_c, 0, 51, 0
2, 116146, Note_on_c, 0, 66, 73
2, 116151, Note_on_c, 0, 57, 73
2, 116160, Note_on_c, 0, 60, 65
2, 116172, Note_on_c, 0, 63, 55
2, 116240, Note_on_c, 0, 57, 0
2, 116249, Note_on_c, 0, 60, 0
2, 116326, Note_on_c, 0, 66, 0
2, 116364, Note_on_c, 0, 63, 0
2, 116631, Note_on_c, 0, 50, 0
2, 116640, Note_on_c, 0, 51, 85
2, 118030, Note_on_c, 0, 60, 66
2, 118044, Note_on_c, 0, 57, 62
2, 118049, Note_on_c, 0, 63, 47
2, 118076, Note_on_c, 0, 61, 30
2, 118112, Note_on_c, 0, 60, 0
2, 118114, Note_on_c, 0, 65, 24
2, 118136, Note_on_c, 0, 57, 0
2, 118157, Note_on_c, 0, 63, 0
2, 118162, Note_on_c, 0, 61, 0
2, 118200, Note_on_c, 0, 65, 0
2, 118521, Note_on_c, 0, 51, 0
2, 118560, Note_on_c, 0, 50, 82
2, 119904, Note_on_c, 0, 66, 84
2, 119911, Note_on_c, 0, 57, 83
2, 119916, Note_on_c, 0, 60, 74
2, 119940, Note_on_c, 0, 63, 57
2, 120471, Note_on_c, 0, 50, 0
2, 120480, Note_on_c, 0, 51, 84
2, 121503, Note_on_c, 0, 57, 0
2, 121551, Note_on_c, 0, 66, 0
2, 121567, Note_on_c, 0, 60, 0
2, 121678, Note_on_c, 0, 63, 0
2, 121791, Note_on_c, 0, 66, 61
2, 121807, Note_on_c, 0, 60, 47
2, 121810, Note_on_c, 0, 57, 59
2, 121836, Note_on_c, 0, 63, 30
2, 121906, Note_on_c, 0, 60, 0
2, 122003, Note_on_c, 0, 57, 0
2, 122170, Note_on_c, 0, 51, 0
2, 122823, Note_on_c, 0, 76, 91
2, 122846, Note_on_c, 0, 62, 54
2, 122848, Note_on_c, 0, 59, 58
2, 122850, Note_on_c, 0, 54, 51
2, 122942, Note_on_c, 0, 66, 0
2, 122952, Note_on_c, 0, 63, 0
2, 124145, Note_on_c, 0, 62, 0
2, 124229, Note_on_c, 0, 59, 0
2, 124235, Note_on_c, 0, 54, 0
2, 124287, Note_on_c, 0, 76, 0
2, 124432, Note_on_c, 0, 78, 77
2, 124451, Note_on_c, 0, 62, 59
2, 124462, Note_on_c, 0, 59, 57
2, 124474, Note_on_c, 0, 54, 38
2, 126142, Note_on_c, 0, 62, 0
2, 126367, Note_on_c, 0, 59, 0
2, 126423, Note_on_c, 0, 69, 54
2, 126531, Note_on_c, 0, 78, 0
2, 126540, Note_on_c, 0, 69, 0
2, 126712, Note_on_c, 0, 54, 0
2, 126906, Note_on_c, 0, 76, 99
2, 126922, Note_on_c, 0, 62, 63
2, 126924, Note_on_c, 0, 59, 66
2, 126926, Note_on_c, 0, 54, 57
2, 128008, Note_on_c, 0, 62, 0
2, 128276, Note_on_c, 0, 54, 0
2, 128285, Note_on_c, 0, 76, 0
2, 128374, Note_on_c, 0, 78, 79
2, 128378, Note_on_c, 0, 54, 52
2, 128384, Note_on_c, 0, 62, 71
2, 129649, Note_on_c, 0, 59, 0
2, 129903, Note_on_c, 0, 78, 0
2, 130051, Note_on_c, 0, 54, 0
2, 130180, Note_on_c, 0, 62, 0
2, 130566, Note_on_c, 0, 75, 67
2, 130571, Note_on_c, 0, 87, 67
2, 130577, Note_on_c, 0, 58, 50
2, 130581, Note_on_c, 0, 62, 45
2, 130593, Note_on_c, 0, 57, 43
2, 130627, Note_on_c, 0, 52, 46
2, 130943, Note_on_c, 0, 62, 0
2, 131093, Note_on_c, 0, 62, 48
2, 131101, Note_on_c, 0, 87, 0
2, 131105, Note_on_c, 0, 75, 0
2, 131113, Note_on_c, 0, 76, 64
2, 131124, Note_on_c, 0, 88, 64
2, 131344, Note_on_c, 0, 88, 0
2, 131346, Note_on_c, 0, 62, 0
2, 131351, Note_on_c, 0, 76, 0
2, 131511, Note_on_c, 0, 62, 43
2, 131532, Note_on_c, 0, 88, 45
2, 131534, Note_on_c, 0, 76, 47
2, 131827, Note_on_c, 0, 76, 0
2, 131862, Note_on_c, 0, 62, 0
2, 131887, Note_on_c, 0, 88, 0
2, 131896, Note_on_c, 0, 58, 0
2, 131898, Note_on_c, 0, 52, 0
2, 131900, Note_on_c, 0, 57, 0
2, 132499, Note_on_c, 0, 90, 74
2, 132509, Note_on_c, 0, 62, 56
2, 132511, Note_on_c, 0, 78, 58
2, 132520, Note_on_c, 0, 58, 51
2, 132540, Note_on_c, 0, 57, 42
2, 132547, Note_on_c, 0, 52, 39
2, 132563, Note_on_c, 0, 80, 37
2, 132651, Note_on_c, 0, 80, 0
2, 132967, Note_on_c, 0, 52, 0
2, 132988, Note_on_c, 0, 62, 0
2, 133002, Note_on_c, 0, 57, 0
2, 133006, Note_on_c, 0, 90, 0
2, 133029, Note_on_c, 0, 58, 0
2, 133044, Note_on_c, 0, 78, 0
2, 134011, Note_on_c, 0, 88, 69
2, 134013, Note_on_c, 0, 57, 64
2, 134015, Note_on_c, 0, 76, 66
2, 134017, Note_on_c, 0, 58, 58
2, 134019, Note_on_c, 0, 62, 66
2, 134088, Note_on_c, 0, 52, 34
2, 134337, Note_on_c, 0, 76, 0
2, 134352, Note_on_c, 0, 62, 0
2, 134354, Note_on_c, 0, 52, 0
2, 134375, Note_on_c, 0, 57, 0
2, 134377, Note_on_c, 0, 88, 0
2, 134404, Note_on_c, 0, 58, 0
2, 134941, Note_on_c, 0, 57, 60
2, 134943, Note_on_c, 0, 62, 70
2, 134945, Note_on_c, 0, 58, 57
2, 134949, Note_on_c, 0, 90, 74
2, 134961, Note_on_c, 0, 78, 64
2, 134984, Note_on_c, 0, 52, 47
2, 136576, Note_on_c, 0, 58, 0
2, 136644, Note_on_c, 0, 57, 0
2, 136775, Note_on_c, 0, 90, 0
2, 136786, Note_on_c, 0, 78, 0
2, 136813, Note_on_c, 0, 62, 0
2, 137241, Note_on_c, 0, 88, 62
2, 137268, Note_on_c, 0, 76, 61
2, 137279, Note_on_c, 0, 58, 58
2, 137281, Note_on_c, 0, 62, 60
2, 137322, Control_c, 0, 64, 127
2, 137420, Note_on_c, 0, 52, 0
2, 137549, Control_c, 0, 64, 0
2, 137553, Note_on_c, 0, 88, 0
2, 137582, Note_on_c, 0, 58, 0
2, 137595, Note_on_c, 0, 76, 0
2, 137634, Note_on_c, 0, 62, 0
2, 137634, Control_c, 0, 64, 127
2, 137697, Control_c, 0, 64, 0
2, 137769, Note_on_c, 0, 76, 50
2, 137790, Note_on_c, 0, 88, 32
2, 137998, Note_on_c, 0, 88, 0
2, 138007, Note_on_c, 0, 76, 0
2, 138240, Note_on_c, 0, 88, 71
2, 138244, Note_on_c, 0, 66, 69
2, 138246, Note_on_c, 0, 76, 62
2, 138248, Note_on_c, 0, 61, 49
2, 138260, Note_on_c, 0, 57, 66
2, 138262, Note_on_c, 0, 62, 69
2, 138300, Control_c, 0, 64, 127
2, 138843, Control_c, 0, 64, 0
2, 139072, Control_c, 0, 64, 127
2, 139090, Note_on_c, 0, 76, 0
2, 139105, Note_on_c, 0, 88, 0
2, 139126, Note_on_c, 0, 66, 0
2, 139329, Note_on_c, 0, 57, 0
2, 139402, Note_on_c, 0, 62, 0
2, 139458, Note_on_c, 0, 61, 0
2, 139800, Note_on_c, 0, 61, 67
2, 139804, Note_on_c, 0, 66, 85
2, 139808, Note_on_c, 0, 57, 77
2, 139814, Note_on_c, 0, 78, 82
2, 139816, Note_on_c, 0, 62, 80
2, 139818, Note_on_c, 0, 86, 74
2, 139820, Note_on_c, 0, 90, 79
2, 139835, Control_c, 0, 64, 0
2, 140313, Control_c, 0, 64, 127
2, 140478, Note_on_c, 0, 90, 0
2, 140492, Note_on_c, 0, 86, 0
2, 140559, Note_on_c, 0, 62, 0
2, 140634, Note_on_c, 0, 78, 0
2, 140692, Note_on_c, 0, 57, 0
2, 140754, Note_on_c, 0, 61, 0
2, 140769, Note_on_c, 0, 66, 0
2, 140979, Control_c, 0, 64, 0
2, 141152, Note_on_c, 0, 88, 50
2, 141156, Note_on_c, 0, 66, 56
2, 141164, Note_on_c, 0, 61, 39
2, 141170, Note_on_c, 0, 76, 45
2, 141216, Note_on_c, 0, 57, 40
2, 141239, Note_on_c, 0, 62, 43
2, 141422, Note_on_c, 0, 76, 0
2, 141449, Note_on_c, 0, 88, 0
2, 141455, Note_on_c, 0, 66, 0
2, 141461, Note_on_c, 0, 57, 0
2, 141503, Note_on_c, 0, 62, 0
2, 141551, Note_on_c, 0, 61, 0
2, 141630, Note_on_c, 0, 66, 61
2, 141634, Note_on_c, 0, 88, 48
2, 141642, Note_on_c, 0, 76, 52
2, 141667, Note_on_c, 0, 61, 32
2, 141688, Note_on_c, 0, 57, 39
2, 141692, Note_on_c, 0, 62, 70
2, 141882, Note_on_c, 0, 57, 0
2, 141917, Note_on_c, 0, 88, 0
2, 141923, Note_on_c, 0, 76, 0
2, 141934, Note_on_c, 0, 66, 0
2, 141936, Note_on_c, 0, 62, 0
2, 142009, Note_on_c, 0, 61, 0
2, 142092, Note_on_c, 0, 66, 70
2, 142098, Note_on_c, 0, 61, 35
2, 142102, Note_on_c, 0, 88, 48
2, 142108, Note_on_c, 0, 76, 60
2, 142119, Note_on_c, 0, 57, 68
2, 142123, Note_on_c, 0, 62, 78
2, 142183, Note_on_c, 0, 86, 28
2, 142269, Note_on_c, 0, 86, 0
2, 142379, Control_c, 0, 64, 127
2, 142429, Note_on_c, 0, 76, 0
2, 142454, Note_on_c, 0, 88, 0
2, 142506, Note_on_c, 0, 57, 0
2, 142533, Note_on_c, 0, 66, 0
2, 142558, Note_on_c, 0, 62, 0
2, 142587, Control_c, 0, 64, 0
2, 142603, Note_on_c, 0, 61, 0
2, 142660, Note_on_c, 0, 66, 80
2, 142662, Note_on_c, 0, 78, 68
2, 142662, Note_on_c, 0, 90, 79
2, 142674, Note_on_c, 0, 57, 71
2, 142680, Note_on_c, 0, 61, 52
2, 142695, Note_on_c, 0, 62, 80
2, 143011, Note_on_c, 0, 78, 0
2, 143013, Note_on_c, 0, 66, 0
2, 143017, Note_on_c, 0, 62, 0
2, 143019, Note_on_c, 0, 90, 0
2, 143040, Note_on_c, 0, 57, 0
2, 143063, Note_on_c, 0, 61, 0
2, 144016, Note_on_c, 0, 90, 79
2, 144016, Note_on_c, 0, 78, 74
2, 144041, Note_on_c, 0, 66, 72
2, 144049, Note_on_c, 0, 61, 46
2, 144066, Note_on_c, 0, 57, 62
2, 144070, Note_on_c, 0, 62, 72
2, 144074, Control_c, 0, 64, 127
2, 144494, Note_on_c, 0, 90, 0
2, 144613, Note_on_c, 0, 78, 0
2, 144677, Note_on_c, 0, 62, 0
2, 144725, Note_on_c, 0, 57, 0
2, 144777, Note_on_c, 0, 66, 0
2, 144854, Note_on_c, 0, 61, 0
2, 145511, Note_on_c, 0, 84, 91
2, 145515, Note_on_c, 0, 79, 85
2, 145522, Note_on_c, 0, 88, 82
2, 145524, Note_on_c, 0, 56, 86
2, 145530, Note_on_c, 0, 67, 84
2, 145536, Control_c, 0, 64, 0
2, 145538, Note_on_c, 0, 62, 80
2, 145811, Note_on_c, 0, 88, 0
2, 145827, Note_on_c, 0, 84, 0
2, 145836, Note_on_c, 0, 79, 0
2, 145857, Note_on_c, 0, 56, 0
2, 145863, Note_on_c, 0, 67, 0
2, 145927, Note_on_c, 0, 62, 0
2, 145977, Note_on_c, 0, 88, 50
2, 145979, Note_on_c, 0, 84, 68
2, 145981, Note_on_c, 0, 56, 62
2, 145994, Note_on_c, 0, 62, 38
2, 145996, Note_on_c, 0, 67, 71
2, 146006, Note_on_c, 0, 79, 57
2, 146264, Control_c, 0, 64, 127
2, 146320, Note_on_c, 0, 79, 0
2, 146352, Note_on_c, 0, 84, 0
2, 146397, Note_on_c, 0, 88, 0
2, 146441, Note_on_c, 0, 56, 0
2, 146462, Note_on_c, 0, 67, 0
2, 146495, Note_on_c, 0, 62, 0
2, 146580, Note_on_c, 0, 81, 66
2, 146582, Note_on_c, 0, 90, 72
2, 146593, Note_on_c, 0, 67, 72
2, 146595, Note_on_c, 0, 56, 50
2, 146597, Control_c, 0, 64, 0
2, 146620, Note_on_c, 0, 86, 53
2, 146622, Note_on_c, 0, 62, 61
2, 146664, Note_on_c, 0, 81, 0
2, 146684, Note_on_c, 0, 67, 0
2, 146701, Note_on_c, 0, 62, 0
2, 146711, Note_on_c, 0, 86, 0
2, 146753, Note_on_c, 0, 90, 0
2, 146766, Note_on_c, 0, 56, 0
2, 147512, Note_on_c, 0, 90, 77
2, 147523, Note_on_c, 0, 81, 78
2, 147527, Note_on_c, 0, 67, 78
2, 147533, Note_on_c, 0, 86, 74
2, 147543, Note_on_c, 0, 56, 74
2, 147545, Note_on_c, 0, 62, 71
2, 147604, Note_on_c, 0, 86, 0
2, 147616, Note_on_c, 0, 81, 0
2, 147677, Note_on_c, 0, 90, 0
2, 147683, Note_on_c, 0, 67, 0
2, 147689, Note_on_c, 0, 62, 0
2, 147714, Note_on_c, 0, 56, 0
2, 148789, Control_c, 0, 64, 127
2, 148833, Note_on_c, 0, 88, 80
2, 148843, Note_on_c, 0, 79, 80
2, 148846, Note_on_c, 0, 56, 81
2, 148856, Note_on_c, 0, 62, 72
2, 148858, Note_on_c, 0, 84, 81
2, 148860, Note_on_c, 0, 67, 76
2, 149644, Control_c, 0, 64, 0
2, 149686, Control_c, 0, 64, 127
2, 149811, Note_on_c, 0, 79, 0
2, 149921, Note_on_c, 0, 56, 0
2, 149963, Note_on_c, 0, 67, 0
2, 149969, Note_on_c, 0, 88, 0
2, 149985, Note_on_c, 0, 62, 0
2, 150075, Note_on_c, 0, 84, 0
2, 150254, Note_on_c, 0, 90, 77
2, 150266, Note_on_c, 0, 81, 74
2, 150270, Note_on_c, 0, 86, 73
2, 150291, Note_on_c, 0, 56, 83
2, 150293, Note_on_c, 0, 62, 79
2, 150295, Note_on_c, 0, 67, 80
2, 150310, Control_c, 0, 64, 0
2, 150751, Control_c, 0, 64, 127
2, 151354, Note_on_c, 0, 81, 0
2, 151400, Note_on_c, 0, 67, 0
2, 151452, Note_on_c, 0, 62, 0
2, 151477, Note_on_c, 0, 56, 0
2, 151479, Note_on_c, 0, 90, 0
2, 151508, Note_on_c, 0, 86, 0
2, 151562, Control_c, 0, 64, 0
2, 151660, Note_on_c, 0, 88, 50
2, 151672, Note_on_c, 0, 67, 42
2, 151685, Note_on_c, 0, 79, 35
2, 151687, Note_on_c, 0, 62, 48
2, 151718, Note_on_c, 0, 84, 47
2, 151739, Note_on_c, 0, 56, 29
2, 151787, Note_on_c, 0, 67, 0
2, 151830, Note_on_c, 0, 84, 0
2, 151845, Note_on_c, 0, 79, 0
2, 151847, Note_on_c, 0, 56, 0
2, 151889, Note_on_c, 0, 62, 0
2, 151945, Note_on_c, 0, 88, 0
2, 152542, Note_on_c, 0, 62, 60
2, 152544, Note_on_c, 0, 56, 62
2, 152567, Note_on_c, 0, 90, 69
2, 152573, Note_on_c, 0, 81, 64
2, 152590, Note_on_c, 0, 86, 62
2, 152629, Note_on_c, 0, 62, 0
2, 152708, Note_on_c, 0, 81, 0
2, 152773, Note_on_c, 0, 56, 0
2, 152787, Note_on_c, 0, 86, 0
2, 152796, Control_c, 0, 64, 127
2, 152847, Note_on_c, 0, 90, 0
2, 153523, Control_c, 0, 64, 0
2, 153526, Note_on_c, 0, 58, 63
2, 153538, Note_on_c, 0, 63, 71
2, 153540, Note_on_c, 0, 59, 72
2, 153544, Note_on_c, 0, 92, 86
2, 153557, Note_on_c, 0, 53, 63
2, 153559, Note_on_c, 0, 80, 84
2, 154272, Control_c, 0, 64, 127
2, 154464, Note_on_c, 0, 53, 0
2, 154588, Note_on_c, 0, 63, 0
2, 154624, Note_on_c, 0, 59, 0
2, 154698, Note_on_c, 0, 80, 0
2, 154709, Note_on_c, 0, 92, 0
2, 154723, Note_on_c, 0, 58, 0
2, 155033, Note_on_c, 0, 63, 76
2, 155046, Note_on_c, 0, 53, 71
2, 155048, Note_on_c, 0, 59, 68
2, 155050, Note_on_c, 0, 93, 80
2, 155054, Note_on_c, 0, 58, 56
2, 155067, Note_on_c, 0, 81, 75
2, 155081, Note_on_c, 0, 87, 59
2, 155108, Control_c, 0, 64, 0
2, 155437, Note_on_c, 0, 53, 0
2, 155443, Note_on_c, 0, 63, 0
2, 155480, Note_on_c, 0, 59, 0
2, 155499, Note_on_c, 0, 93, 0
2, 155553, Note_on_c, 0, 87, 0
2, 155589, Note_on_c, 0, 81, 0
2, 155591, Note_on_c, 0, 58, 0
2, 156425, Control_c, 0, 64, 127
2, 156471, Note_on_c, 0, 63, 86
2, 156485, Note_on_c, 0, 80, 86
2, 156487, Note_on_c, 0, 92, 90
2, 156495, Note_on_c, 0, 59, 75
2, 156502, Note_on_c, 0, 58, 60
2, 156516, Note_on_c, 0, 53, 62
2, 156518, Note_on_c, 0, 87, 71
2, 156633, Control_c, 0, 64, 0
2, 156820, Control_c, 0, 64, 127
2, 157301, Control_c, 0, 64, 0
2, 157425, Control_c, 0, 64, 127
2, 157506, Note_on_c, 0, 63, 0
2, 157627, Note_on_c, 0, 80, 0
2, 157652, Note_on_c, 0, 53, 0
2, 157667, Note_on_c, 0, 59, 0
2, 157683, Note_on_c, 0, 92, 0
2, 157739, Note_on_c, 0, 58, 0
2, 157825, Note_on_c, 0, 87, 0
2, 157968, Control_c, 0, 64, 0
2, 157970, Note_on_c, 0, 88, 80
2, 157970, Note_on_c, 0, 93, 83
2, 157987, Note_on_c, 0, 81, 79
2, 157989, Note_on_c, 0, 59, 78
2, 157995, Note_on_c, 0, 63, 83
2, 158004, Note_on_c, 0, 53, 69
2, 158008, Note_on_c, 0, 58, 67
2, 158026, Note_on_c, 0, 83, 56
2, 158112, Note_on_c, 0, 83, 0
2, 158447, Control_c, 0, 64, 127
2, 158890, Note_on_c, 0, 93, 0
2, 158994, Note_on_c, 0, 81, 0
2, 159062, Note_on_c, 0, 53, 0
2, 159118, Note_on_c, 0, 88, 0
2, 159125, Note_on_c, 0, 59, 0
2, 159127, Note_on_c, 0, 63, 0
2, 159129, Note_on_c, 0, 58, 0
2, 159260, Control_c, 0, 64, 0
2, 159337, Note_on_c, 0, 63, 64
2, 159351, Note_on_c, 0, 80, 64
2, 159356, Note_on_c, 0, 92, 64
2, 159368, Note_on_c, 0, 59, 60
2, 159381, Note_on_c, 0, 88, 54
2, 159385, Note_on_c, 0, 58, 47
2, 159393, Note_on_c, 0, 53, 45
2, 159472, Note_on_c, 0, 88, 0
2, 159512, Note_on_c, 0, 80, 0
2, 159520, Note_on_c, 0, 53, 0
2, 159561, Note_on_c, 0, 92, 0
2, 159599, Note_on_c, 0, 63, 0
2, 159655, Note_on_c, 0, 59, 0
2, 159697, Note_on_c, 0, 58, 0
2, 160271, Note_on_c, 0, 93, 68
2, 160275, Note_on_c, 0, 88, 66
2, 160292, Note_on_c, 0, 63, 69
2, 160294, Note_on_c, 0, 81, 46
2, 160298, Note_on_c, 0, 59, 66
2, 160348, Note_on_c, 0, 58, 44
2, 160446, Note_on_c, 0, 93, 0
2, 160452, Note_on_c, 0, 81, 0
2, 160485, Note_on_c, 0, 88, 0
2, 160554, Note_on_c, 0, 59, 0
2, 160593, Note_on_c, 0, 58, 0
2, 160664, Note_on_c, 0, 63, 0
2, 161215, Note_on_c, 0, 61, 67
2, 161225, Note_on_c, 0, 64, 77
2, 161236, Note_on_c, 0, 54, 60
2, 161238, Note_on_c, 0, 92, 83
2, 161242, Note_on_c, 0, 80, 79
2, 161252, Note_on_c, 0, 57, 59
2, 161290, Note_on_c, 0, 88, 56
2, 161311, Control_c, 0, 64, 127
2, 162189, Note_on_c, 0, 88, 0
2, 162347, Note_on_c, 0, 92, 0
2, 162363, Note_on_c, 0, 80, 0
2, 162374, Note_on_c, 0, 64, 0
2, 162405, Note_on_c, 0, 54, 0
2, 162424, Note_on_c, 0, 57, 0
2, 162490, Note_on_c, 0, 61, 0
2, 162725, Control_c, 0, 64, 0
2, 162738, Note_on_c, 0, 88, 74
2, 162740, Note_on_c, 0, 93, 80
2, 162750, Note_on_c, 0, 61, 72
2, 162752, Note_on_c, 0, 81, 74
2, 162767, Note_on_c, 0, 57, 61
2, 162769, Note_on_c, 0, 64, 80
2, 163008, Note_on_c, 0, 64, 0
2, 163019, Note_on_c, 0, 57, 0
2, 163104, Note_on_c, 0, 93, 0
2, 163114, Note_on_c, 0, 81, 0
2, 163114, Note_on_c, 0, 61, 0
2, 163154, Note_on_c, 0, 88, 0
2, 163162, Control_c, 0, 64, 127
2, 163225, Control_c, 0, 64, 0
2, 163412, Control_c, 0, 64, 127
2, 163873, Control_c, 0, 64, 0
2, 163967, Note_on_c, 0, 64, 74
2, 163973, Note_on_c, 0, 92, 87
2, 163977, Note_on_c, 0, 80, 86
2, 163984, Note_on_c, 0, 68, 76
2, 163986, Note_on_c, 0, 57, 74
2, 163990, Note_on_c, 0, 61, 56
2, 163992, Note_on_c, 0, 88, 76
2, 164797, Control_c, 0, 64, 127
2, 165020, Note_on_c, 0, 88, 0
2, 165063, Note_on_c, 0, 57, 0
2, 165065, Note_on_c, 0, 64, 0
2, 165099, Note_on_c, 0, 68, 0
2, 165101, Note_on_c, 0, 80, 0
2, 165155, Note_on_c, 0, 92, 0
2, 165157, Note_on_c, 0, 61, 0
2, 165521, Note_on_c, 0, 88, 81
2, 165531, Note_on_c, 0, 93, 84
2, 165540, Note_on_c, 0, 81, 77
2, 165544, Note_on_c, 0, 64, 71
2, 165548, Note_on_c, 0, 68, 77
2, 165562, Note_on_c, 0, 57, 72
2, 165581, Note_on_c, 0, 61, 57
2, 165587, Control_c, 0, 64, 0
2, 166047, Control_c, 0, 64, 127
2, 166503, Note_on_c, 0, 93, 0
2, 166546, Note_on_c, 0, 81, 0
2, 166615, Note_on_c, 0, 68, 0
2, 166625, Note_on_c, 0, 88, 0
2, 166652, Note_on_c, 0, 57, 0
2, 166661, Note_on_c, 0, 64, 0
2, 166692, Note_on_c, 0, 61, 0
2, 166858, Control_c, 0, 64, 0
2, 166962, Note_on_c, 0, 92, 58
2, 166983, Note_on_c, 0, 87, 61
2, 166996, Note_on_c, 0, 80, 48
2, 167010, Note_on_c, 0, 61, 47
2, 167012, Note_on_c, 0, 68, 52
2, 167014, Note_on_c, 0, 64, 53
2, 167027, Note_on_c, 0, 57, 50
2, 167220, Note_on_c, 0, 68, 0
2, 167266, Note_on_c, 0, 57, 0
2, 167278, Control_c, 0, 64, 127
2, 167281, Note_on_c, 0, 64, 0
2, 167324, Note_on_c, 0, 80, 0
2, 167333, Note_on_c, 0, 92, 0
2, 167357, Note_on_c, 0, 61, 0
2, 167360, Note_on_c, 0, 87, 0
2, 167821, Control_c, 0, 64, 0
2, 167902, Note_on_c, 0, 61, 51
2, 167959, Note_on_c, 0, 93, 74
2, 167969, Note_on_c, 0, 81, 62
2, 167971, Note_on_c, 0, 88, 66
2, 168100, Note_on_c, 0, 61, 0
2, 168196, Control_c, 0, 64, 127
2, 168262, Note_on_c, 0, 81, 0
2, 168279, Note_on_c, 0, 93, 0
2, 168291, Note_on_c, 0, 88, 0
2, 168358, Note_on_c, 0, 58, 44
2, 168660, Note_on_c, 0, 58, 0
2, 168905, Control_c, 0, 64, 0
2, 168953, Note_on_c, 0, 61, 53
2, 168965, Note_on_c, 0, 54, 42
2, 168974, Note_on_c, 0, 57, 58
2, 168978, Note_on_c, 0, 92, 67
2, 168984, Note_on_c, 0, 64, 51
2, 168988, Note_on_c, 0, 80, 62
2, 169003, Note_on_c, 0, 87, 60
2, 169912, Control_c, 0, 64, 127
2, 170068, Note_on_c, 0, 64, 0
2, 170080, Note_on_c, 0, 80, 0
2, 170122, Note_on_c, 0, 92, 0
2, 170174, Note_on_c, 0, 54, 0
2, 170205, Note_on_c, 0, 87, 0
2, 170213, Note_on_c, 0, 61, 0
2, 170217, Note_on_c, 0, 57, 0
2, 170450, Note_on_c, 0, 93, 78
2, 170453, Note_on_c, 0, 87, 77
2, 170453, Note_on_c, 0, 61, 73
2, 170461, Note_on_c, 0, 64, 81
2, 170469, Note_on_c, 0, 54, 67
2, 170471, Note_on_c, 0, 81, 76
2, 170473, Control_c, 0, 64, 0
2, 170490, Note_on_c, 0, 57, 63
2, 170492, Note_on_c, 0, 90, 44
2, 170563, Note_on_c, 0, 90, 0
2, 170581, Note_on_c, 0, 81, 0
2, 170600, Note_on_c, 0, 64, 0
2, 170642, Note_on_c, 0, 87, 0
2, 170667, Note_on_c, 0, 93, 0
2, 170710, Note_on_c, 0, 54, 0
2, 170713, Note_on_c, 0, 61, 0
2, 170735, Note_on_c, 0, 57, 0
2, 171790, Note_on_c, 0, 61, 67
2, 171798, Note_on_c, 0, 92, 87
2, 171803, Note_on_c, 0, 80, 87
2, 171805, Note_on_c, 0, 87, 81
2, 171809, Note_on_c, 0, 57, 62
2, 171819, Note_on_c, 0, 54, 62
2, 171821, Note_on_c, 0, 64, 78
2, 171836, Control_c, 0, 64, 127
2, 172025, Control_c, 0, 64, 0
2, 172129, Control_c, 0, 64, 127
2, 172736, Note_on_c, 0, 80, 0
2, 172776, Note_on_c, 0, 87, 0
2, 172784, Note_on_c, 0, 64, 0
2, 172805, Note_on_c, 0, 92, 0
2, 172855, Note_on_c, 0, 57, 0
2, 172882, Note_on_c, 0, 54, 0
2, 172884, Note_on_c, 0, 61, 0
2, 173290, Note_on_c, 0, 87, 84
2, 173292, Note_on_c, 0, 93, 89
2, 173302, Note_on_c, 0, 81, 83
2, 173311, Note_on_c, 0, 61, 77
2, 173319, Control_c, 0, 64, 0
2, 173323, Note_on_c, 0, 54, 69
2, 173325, Note_on_c, 0, 64, 85
2, 173338, Note_on_c, 0, 57, 68
2, 173824, Note_on_c, 0, 93, 0
2, 173851, Note_on_c, 0, 81, 0
2, 173885, Note_on_c, 0, 64, 0
2, 173928, Note_on_c, 0, 54, 0
2, 173930, Note_on_c, 0, 87, 0
2, 173941, Note_on_c, 0, 57, 0
2, 173980, Note_on_c, 0, 61, 0
2, 174267, Note_on_c, 0, 61, 71
2, 174280, Note_on_c, 0, 64, 80
2, 174284, Note_on_c, 0, 54, 70
2, 174288, Note_on_c, 0, 92, 78
2, 174296, Note_on_c, 0, 57, 60
2, 174298, Note_on_c, 0, 80, 82
2, 174311, Note_on_c, 0, 87, 76
2, 174590, Note_on_c, 0, 64, 0
2, 174594, Note_on_c, 0, 80, 0
2, 174606, Note_on_c, 0, 54, 0
2, 174640, Note_on_c, 0, 92, 0
2, 174646, Note_on_c, 0, 57, 0
2, 174648, Note_on_c, 0, 87, 0
2, 174681, Note_on_c, 0, 61, 0
2, 174756, Note_on_c, 0, 61, 55
2, 174764, Note_on_c, 0, 54, 59
2, 174766, Note_on_c, 0, 92, 72
2, 174781, Note_on_c, 0, 64, 64
2, 174783, Note_on_c, 0, 87, 64
2, 174791, Note_on_c, 0, 80, 52
2, 174798, Note_on_c, 0, 57, 68
2, 174846, Note_on_c, 0, 90, 31
2, 175112, Control_c, 0, 64, 127
2, 175170, Note_on_c, 0, 80, 0
2, 175183, Note_on_c, 0, 87, 0
2, 175185, Note_on_c, 0, 64, 0
2, 175199, Note_on_c, 0, 92, 0
2, 175230, Note_on_c, 0, 54, 0
2, 175232, Note_on_c, 0, 57, 0
2, 175247, Note_on_c, 0, 90, 0
2, 175338, Note_on_c, 0, 61, 0
2, 175509, Control_c, 0, 64, 0
2, 175684, Note_on_c, 0, 57, 72
2, 175696, Note_on_c, 0, 60, 75
2, 175698, Note_on_c, 0, 54, 75
2, 175701, Note_on_c, 0, 64, 87
2, 175703, Note_on_c, 0, 93, 90
2, 175705, Note_on_c, 0, 81, 85
2, 175719, Note_on_c, 0, 88, 73
2, 175748, Note_on_c, 0, 90, 37
2, 175831, Note_on_c, 0, 90, 0
2, 176220, Note_on_c, 0, 88, 0
2, 176229, Note_on_c, 0, 81, 0
2, 176241, Note_on_c, 0, 93, 0
2, 176266, Note_on_c, 0, 64, 0
2, 176277, Note_on_c, 0, 60, 0
2, 176291, Note_on_c, 0, 54, 0
2, 176310, Note_on_c, 0, 57, 0
2, 177213, Note_on_c, 0, 80, 83
2, 177217, Note_on_c, 0, 92, 85
2, 177227, Note_on_c, 0, 54, 81
2, 177229, Note_on_c, 0, 64, 88
2, 177231, Note_on_c, 0, 60, 71
2, 177233, Note_on_c, 0, 87, 74
2, 177250, Note_on_c, 0, 57, 66
2, 177699, Note_on_c, 0, 92, 0
2, 177722, Note_on_c, 0, 80, 0
2, 177724, Note_on_c, 0, 60, 0
2, 177731, Note_on_c, 0, 64, 0
2, 177733, Note_on_c, 0, 87, 0
2, 177772, Note_on_c, 0, 57, 0
2, 177793, Note_on_c, 0, 54, 0
2, 178122, Note_on_c, 0, 54, 75
2, 178124, Note_on_c, 0, 81, 80
2, 178128, Note_on_c, 0, 93, 83
2, 178138, Note_on_c, 0, 88, 76
2, 178140, Note_on_c, 0, 64, 81
2, 178140, Note_on_c, 0, 60, 65
2, 178149, Note_on_c, 0, 57, 57
2, 178488, Note_on_c, 0, 93, 0
2, 178504, Note_on_c, 0, 54, 0
2, 178506, Note_on_c, 0, 64, 0
2, 178538, Note_on_c, 0, 81, 0
2, 178548, Note_on_c, 0, 88, 0
2, 178571, Note_on_c, 0, 60, 0
2, 178573, Note_on_c, 0, 57, 0
2, 178685, Note_on_c, 0, 54, 69
2, 178694, Note_on_c, 0, 64, 73
2, 178706, Note_on_c, 0, 88, 60
2, 178710, Note_on_c, 0, 60, 76
2, 178719, Note_on_c, 0, 81, 70
2, 178721, Note_on_c, 0, 93, 80
2, 178721, Note_on_c, 0, 57, 66
2, 179151, Note_on_c, 0, 93, 0
2, 179155, Note_on_c, 0, 88, 0
2, 179157, Note_on_c, 0, 81, 0
2, 179201, Note_on_c, 0, 64, 0
2, 179203, Note_on_c, 0, 60, 0
2, 179216, Note_on_c, 0, 57, 0
2, 179222, Note_on_c, 0, 54, 0
2, 179530, Note_on_c, 0, 60, 74
2, 179532, Note_on_c, 0, 92, 82
2, 179536, Note_on_c, 0, 54, 72
2, 179538, Note_on_c, 0, 64, 81
2, 179548, Note_on_c, 0, 57, 60
2, 179550, Note_on_c, 0, 80, 80
2, 179567, Note_on_c, 0, 87, 71
2, 179937, Note_on_c, 0, 64, 0
2, 179939, Note_on_c, 0, 92, 0
2, 179950, Note_on_c, 0, 54, 0
2, 179975, Note_on_c, 0, 80, 0
2, 180008, Note_on_c, 0, 57, 0
2, 180014, Note_on_c, 0, 60, 0
2, 180025, Note_on_c, 0, 87, 0
2, 180125, Note_on_c, 0, 80, 57
2, 180135, Note_on_c, 0, 92, 71
2, 180145, Note_on_c, 0, 87, 62
2, 180150, Note_on_c, 0, 54, 70
2, 180152, Note_on_c, 0, 64, 78
2, 180156, Note_on_c, 0, 57, 61
2, 180156, Note_on_c, 0, 60, 80
2, 180459, Note_on_c, 0, 80, 0
2, 180472, Note_on_c, 0, 92, 0
2, 180489, Note_on_c, 0, 87, 0
2, 180499, Note_on_c, 0, 64, 0
2, 180516, Note_on_c, 0, 60, 0
2, 180522, Note_on_c, 0, 57, 0
2, 180536, Note_on_c, 0, 54, 0
2, 181015, Note_on_c, 0, 88, 74
2, 181017, Note_on_c, 0, 54, 77
2, 181021, Note_on_c, 0, 93, 79
2, 181031, Note_on_c, 0, 81, 72
2, 181034, Note_on_c, 0, 60, 73
2, 181036, Note_on_c, 0, 64, 89
2, 181038, Note_on_c, 0, 57, 66
2, 181393, Note_on_c, 0, 93, 0
2, 181412, Note_on_c, 0, 64, 0
2, 181418, Note_on_c, 0, 81, 0
2, 181437, Note_on_c, 0, 60, 0
2, 181445, Note_on_c, 0, 88, 0
2, 181456, Note_on_c, 0, 54, 0
2, 181456, Note_on_c, 0, 57, 0
2, 181924, Note_on_c, 0, 64, 84
2, 181926, Note_on_c, 0, 54, 76
2, 181928, Note_on_c, 0, 92, 81
2, 181936, Note_on_c, 0, 60, 66
2, 181938, Note_on_c, 0, 80, 81
2, 181940, Note_on_c, 0, 57, 60
2, 181942, Note_on_c, 0, 87, 75
2, 182015, Note_on_c, 0, 90, 28
2, 182238, Note_on_c, 0, 64, 0
2, 182269, Note_on_c, 0, 54, 0
2, 182277, Note_on_c, 0, 80, 0
2, 182286, Note_on_c, 0, 92, 0
2, 182288, Note_on_c, 0, 60, 0
2, 182290, Note_on_c, 0, 57, 0
2, 182325, Note_on_c, 0, 90, 0
2, 182352, Control_c, 0, 64, 127
2, 182358, Note_on_c, 0, 54, 52
2, 182373, Note_on_c, 0, 64, 77
2, 182402, Note_on_c, 0, 60, 67
2, 182404, Note_on_c, 0, 57, 54
2, 182406, Note_on_c, 0, 93, 72
2, 182408, Note_on_c, 0, 81, 68
2, 182421, Note_on_c, 0, 88, 72
2, 182471, Note_on_c, 0, 87, 0
2, 182496, Note_on_c, 0, 91, 27
2, 182602, Note_on_c, 0, 91, 0
2, 182789, Note_on_c, 0, 93, 0
2, 182845, Note_on_c, 0, 81, 0
2, 182878, Note_on_c, 0, 88, 0
2, 182901, Note_on_c, 0, 64, 0
2, 182953, Note_on_c, 0, 60, 0
2, 182993, Note_on_c, 0, 54, 0
2, 183037, Note_on_c, 0, 57, 0
2, 183124, Control_c, 0, 64, 0
2, 183232, Note_on_c, 0, 54, 82
2, 183238, Note_on_c, 0, 93, 80
2, 183240, Note_on_c, 0, 64, 90
2, 183242, Note_on_c, 0, 88, 77
2, 183245, Note_on_c, 0, 57, 66
2, 183259, Note_on_c, 0, 60, 76
2, 183261, Note_on_c, 0, 81, 74
2, 183421, Control_c, 0, 64, 127
2, 183505, Note_on_c, 0, 81, 0
2, 183527, Note_on_c, 0, 93, 0
2, 183538, Note_on_c, 0, 64, 0
2, 183548, Note_on_c, 0, 60, 0
2, 183571, Note_on_c, 0, 88, 0
2, 183586, Note_on_c, 0, 57, 0
2, 183648, Note_on_c, 0, 54, 0
2, 184193, Control_c, 0, 64, 0
2, 184222, Note_on_c, 0, 63, 94
2, 184224, Note_on_c, 0, 53, 79
2, 184233, Note_on_c, 0, 58, 83
2, 184245, Note_on_c, 0, 94, 93
2, 184247, Note_on_c, 0, 82, 102
2, 184249, Note_on_c, 0, 89, 92
2, 184272, Note_on_c, 0, 56, 61
2, 184343, Note_on_c, 0, 56, 0
2, 184530, Control_c, 0, 64, 127
2, 184961, Note_on_c, 0, 58, 0
2, 184963, Note_on_c, 0, 89, 0
2, 184969, Note_on_c, 0, 82, 0
2, 185021, Note_on_c, 0, 94, 0
2, 185081, Note_on_c, 0, 63, 0
2, 185090, Note_on_c, 0, 53, 0
2, 185716, Note_on_c, 0, 96, 90
2, 185718, Note_on_c, 0, 89, 90
2, 185720, Note_on_c, 0, 60, 74
2, 185732, Note_on_c, 0, 53, 69
2, 185734, Note_on_c, 0, 84, 95
2, 185741, Note_on_c, 0, 56, 71
2, 185753, Note_on_c, 0, 63, 82
2, 185803, Control_c, 0, 64, 0
2, 186283, Control_c, 0, 64, 127
2, 186450, Note_on_c, 0, 60, 0
2, 186473, Note_on_c, 0, 63, 0
2, 186581, Note_on_c, 0, 53, 0
2, 186591, Note_on_c, 0, 96, 0
2, 186643, Note_on_c, 0, 84, 0
2, 186658, Note_on_c, 0, 89, 0
2, 186724, Note_on_c, 0, 56, 0
2, 187036, Control_c, 0, 64, 0
2, 187122, Note_on_c, 0, 53, 80
2, 187124, Note_on_c, 0, 63, 92
2, 187130, Note_on_c, 0, 94, 87
2, 187132, Note_on_c, 0, 58, 82
2, 187134, Note_on_c, 0, 82, 90
2, 187147, Note_on_c, 0, 89, 82
2, 187968, Note_on_c, 0, 82, 0
2, 187989, Note_on_c, 0, 53, 0
2, 188029, Note_on_c, 0, 89, 0
2, 188037, Control_c, 0, 64, 127
2, 188081, Note_on_c, 0, 94, 0
2, 188101, Note_on_c, 0, 63, 0
2, 188116, Note_on_c, 0, 58, 0
2, 188659, Note_on_c, 0, 55, 82
2, 188661, Note_on_c, 0, 65, 87
2, 188663, Note_on_c, 0, 60, 78
2, 188665, Note_on_c, 0, 89, 91
2, 188667, Control_c, 0, 64, 0
2, 188669, Note_on_c, 0, 96, 87
2, 188686, Note_on_c, 0, 84, 94
2, 189039, Control_c, 0, 64, 127
2, 189478, Note_on_c, 0, 55, 0
2, 189539, Note_on_c, 0, 65, 0
2, 189551, Note_on_c, 0, 96, 0
2, 189551, Note_on_c, 0, 60, 0
2, 189555, Note_on_c, 0, 84, 0
2, 189651, Note_on_c, 0, 89, 0
2, 190019, Control_c, 0, 64, 0
2, 190077, Note_on_c, 0, 94, 79
2, 190082, Note_on_c, 0, 82, 80
2, 190088, Note_on_c, 0, 63, 81
2, 190092, Note_on_c, 0, 53, 64
2, 190094, Note_on_c, 0, 89, 70
2, 190106, Note_on_c, 0, 58, 69
2, 190165, Note_on_c, 0, 89, 0
2, 190210, Note_on_c, 0, 82, 0
2, 190219, Note_on_c, 0, 63, 0
2, 190310, Note_on_c, 0, 94, 0
2, 190344, Note_on_c, 0, 53, 0
2, 190383, Note_on_c, 0, 58, 0
2, 190997, Note_on_c, 0, 63, 80
2, 191011, Note_on_c, 0, 58, 74
2, 191024, Note_on_c, 0, 96, 78
2, 191026, Note_on_c, 0, 53, 57
2, 191038, Note_on_c, 0, 90, 68
2, 191040, Note_on_c, 0, 84, 84
2, 191088, Note_on_c, 0, 56, 29
2, 191101, Note_on_c, 0, 53, 0
2, 191134, Note_on_c, 0, 90, 0
2, 191165, Note_on_c, 0, 84, 0
2, 191178, Note_on_c, 0, 63, 0
2, 191182, Note_on_c, 0, 56, 0
2, 191207, Note_on_c, 0, 96, 0
2, 191313, Note_on_c, 0, 58, 0
2, 191954, Note_on_c, 0, 58, 83
2, 191956, Note_on_c, 0, 94, 81
2, 191958, Note_on_c, 0, 63, 86
2, 191968, Note_on_c, 0, 52, 80
2, 191970, Note_on_c, 0, 82, 84
2, 192068, Control_c, 0, 64, 127
2, 192688, Note_on_c, 0, 82, 0
2, 192698, Note_on_c, 0, 63, 0
2, 192729, Note_on_c, 0, 94, 0
2, 192731, Note_on_c, 0, 52, 0
2, 192842, Note_on_c, 0, 58, 0
2, 193382, Control_c, 0, 64, 0
2, 193401, Note_on_c, 0, 96, 80
2, 193403, Note_on_c, 0, 63, 94
2, 193405, Note_on_c, 0, 58, 86
2, 193416, Note_on_c, 0, 52, 83
2, 193418, Note_on_c, 0, 84, 82
2, 193420, Note_on_c, 0, 91, 79
2, 193451, Note_on_c, 0, 86, 57
2, 193536, Note_on_c, 0, 86, 0
2, 193657, Note_on_c, 0, 84, 0
2, 193692, Note_on_c, 0, 91, 0
2, 193709, Note_on_c, 0, 96, 0
2, 193713, Note_on_c, 0, 63, 0
2, 193732, Note_on_c, 0, 52, 0
2, 193823, Note_on_c, 0, 58, 0
2, 193884, Note_on_c, 0, 63, 78
2, 193890, Note_on_c, 0, 52, 66
2, 193892, Note_on_c, 0, 58, 50
2, 193915, Note_on_c, 0, 96, 69
2, 193919, Note_on_c, 0, 91, 74
2, 193925, Note_on_c, 0, 84, 76
2, 194248, Note_on_c, 0, 96, 0
2, 194273, Note_on_c, 0, 84, 0
2, 194283, Note_on_c, 0, 52, 0
2, 194310, Note_on_c, 0, 63, 0
2, 194358, Note_on_c, 0, 91, 0
2, 194362, Note_on_c, 0, 58, 0
2, 194456, Note_on_c, 0, 63, 67
2, 194479, Note_on_c, 0, 82, 64
2, 194489, Note_on_c, 0, 94, 67
2, 194491, Note_on_c, 0, 58, 67
2, 194493, Note_on_c, 0, 52, 39
2, 194635, Note_on_c, 0, 63, 0
2, 194643, Note_on_c, 0, 82, 0
2, 194660, Note_on_c, 0, 52, 0
2, 194710, Note_on_c, 0, 94, 0
2, 194745, Note_on_c, 0, 58, 0
2, 195383, Note_on_c, 0, 94, 72
2, 195386, Note_on_c, 0, 58, 83
2, 195390, Note_on_c, 0, 63, 83
2, 195400, Note_on_c, 0, 90, 62
2, 195415, Note_on_c, 0, 52, 74
2, 195471, Note_on_c, 0, 90, 0
2, 195481, Note_on_c, 0, 52, 0
2, 195525, Note_on_c, 0, 63, 0
2, 195614, Note_on_c, 0, 94, 0
2, 195656, Note_on_c, 0, 58, 0
2, 196330, Note_on_c, 0, 58, 80
2, 196332, Note_on_c, 0, 63, 84
2, 196342, Note_on_c, 0, 52, 77
2, 196344, Note_on_c, 0, 96, 78
2, 196355, Note_on_c, 0, 84, 82
2, 196361, Note_on_c, 0, 91, 74
2, 196421, Note_on_c, 0, 86, 31
2, 196513, Note_on_c, 0, 86, 0
2, 196617, Note_on_c, 0, 84, 0
2, 196625, Note_on_c, 0, 63, 0
2, 196648, Note_on_c, 0, 91, 0
2, 196650, Note_on_c, 0, 96, 0
2, 196671, Note_on_c, 0, 52, 0
2, 196717, Note_on_c, 0, 58, 0
2, 197239, Note_on_c, 0, 63, 83
2, 197241, Note_on_c, 0, 58, 77
2, 197245, Note_on_c, 0, 52, 75
2, 197262, Note_on_c, 0, 82, 78
2, 197264, Note_on_c, 0, 94, 73
2, 197532, Note_on_c, 0, 63, 0
2, 197538, Note_on_c, 0, 52, 0
2, 197547, Note_on_c, 0, 94, 0
2, 197557, Note_on_c, 0, 82, 0
2, 197609, Note_on_c, 0, 58, 0
2, 197686, Note_on_c, 0, 63, 76
2, 197694, Note_on_c, 0, 52, 63
2, 197715, Note_on_c, 0, 58, 74
2, 197717, Note_on_c, 0, 96, 72
2, 197728, Note_on_c, 0, 84, 80
2, 197990, Control_c, 0, 64, 127
2, 198004, Note_on_c, 0, 84, 0
2, 198021, Note_on_c, 0, 96, 0
2, 198023, Note_on_c, 0, 63, 0
2, 198025, Note_on_c, 0, 52, 0
2, 198094, Note_on_c, 0, 58, 0
2, 198181, Note_on_c, 0, 63, 65
2, 198191, Note_on_c, 0, 52, 54
2, 198200, Note_on_c, 0, 96, 60
2, 198206, Note_on_c, 0, 58, 62
2, 198212, Note_on_c, 0, 84, 68
2, 198366, Note_on_c, 0, 63, 0
2, 198406, Control_c, 0, 64, 0
2, 198422, Note_on_c, 0, 96, 0
2, 198424, Note_on_c, 0, 84, 0
2, 198433, Note_on_c, 0, 52, 0
2, 198508, Note_on_c, 0, 58, 0
2, 198641, Note_on_c, 0, 63, 76
2, 198643, Note_on_c, 0, 58, 78
2, 198647, Note_on_c, 0, 94, 67
2, 198649, Note_on_c, 0, 82, 71
2, 198697, Note_on_c, 0, 52, 24
2, 199111, Note_on_c, 0, 52, 0
2, 199142, Note_on_c, 0, 82, 0
2, 199157, Note_on_c, 0, 94, 0
2, 199177, Control_c, 0, 64, 127
2, 199206, Note_on_c, 0, 58, 0
2, 199244, Note_on_c, 0, 63, 0
2, 199302, Control_c, 0, 64, 0
2, 200178, Note_on_c, 0, 94, 80
2, 200195, Note_on_c, 0, 82, 82
2, 200197, Note_on_c, 0, 60, 76
2, 200199, Note_on_c, 0, 63, 84
2, 200203, Note_on_c, 0, 87, 77
2, 200215, Note_on_c, 0, 53, 78
2, 200226, Note_on_c, 0, 56, 67
2, 200513, Control_c, 0, 64, 127
2, 200556, Control_c, 0, 64, 0
2, 200600, Note_on_c, 0, 87, 0
2, 200615, Note_on_c, 0, 63, 0
2, 200642, Note_on_c, 0, 82, 0
2, 200677, Note_on_c, 0, 60, 0
2, 200685, Note_on_c, 0, 53, 0
2, 200700, Note_on_c, 0, 94, 0
2, 200715, Note_on_c, 0, 56, 0
2, 200968, Note_on_c, 0, 63, 83
2, 200970, Note_on_c, 0, 53, 73
2, 200979, Note_on_c, 0, 96, 68
2, 200981, Note_on_c, 0, 60, 74
2, 200983, Note_on_c, 0, 84, 78
2, 200993, Note_on_c, 0, 56, 69
2, 200995, Note_on_c, 0, 95, 71
2, 201000, Note_on_c, 0, 89, 53
2, 201016, Note_on_c, 0, 92, 37
2, 201018, Note_on_c, 0, 88, 44
2, 201093, Note_on_c, 0, 88, 0
2, 201097, Control_c, 0, 64, 127
2, 201237, Note_on_c, 0, 95, 0
2, 201260, Note_on_c, 0, 92, 0
2, 201291, Note_on_c, 0, 89, 0
2, 201295, Note_on_c, 0, 63, 0
2, 201332, Note_on_c, 0, 84, 0
2, 201347, Control_c, 0, 64, 0
2, 201374, Note_on_c, 0, 96, 0
2, 201401, Note_on_c, 0, 53, 0
2, 201418, Note_on_c, 0, 60, 0
2, 201426, Note_on_c, 0, 56, 0
2, 201653, Note_on_c, 0, 60, 67
2, 201655, Note_on_c, 0, 63, 80
2, 201663, Note_on_c, 0, 53, 66
2, 201665, Note_on_c, 0, 96, 82
2, 201667, Note_on_c, 0, 89, 74
2, 201669, Note_on_c, 0, 84, 81
2, 201682, Note_on_c, 0, 56, 68
2, 201694, Note_on_c, 0, 92, 55
2, 201723, Control_c, 0, 64, 127
2, 201771, Note_on_c, 0, 92, 0
2, 201983, Note_on_c, 0, 96, 0
2, 202025, Note_on_c, 0, 84, 0
2, 202031, Note_on_c, 0, 63, 0
2, 202110, Note_on_c, 0, 53, 0
2, 202127, Note_on_c, 0, 89, 0
2, 202181, Note_on_c, 0, 60, 0
2, 202223, Control_c, 0, 64, 0
2, 202252, Note_on_c, 0, 63, 77
2, 202254, Note_on_c, 0, 60, 29
2, 202268, Note_on_c, 0, 94, 71
2, 202277, Note_on_c, 0, 89, 54
2, 202281, Note_on_c, 0, 82, 64
2, 202401, Note_on_c, 0, 89, 0
2, 202420, Note_on_c, 0, 82, 0
2, 202445, Note_on_c, 0, 60, 0
2, 202474, Note_on_c, 0, 56, 0
2, 202476, Note_on_c, 0, 63, 0
2, 202495, Note_on_c, 0, 94, 0
2, 203125, Note_on_c, 0, 82, 79
2, 203134, Note_on_c, 0, 94, 78
2, 203136, Note_on_c, 0, 63, 74
2, 203146, Note_on_c, 0, 67, 80
2, 203148, Note_on_c, 0, 56, 74
2, 203161, Note_on_c, 0, 60, 66
2, 203163, Note_on_c, 0, 89, 57
2, 203335, Note_on_c, 0, 82, 0
2, 203369, Note_on_c, 0, 89, 0
2, 203387, Note_on_c, 0, 67, 0
2, 203431, Control_c, 0, 64, 127
2, 203437, Note_on_c, 0, 94, 0
2, 203506, Note_on_c, 0, 60, 0
2, 203531, Note_on_c, 0, 56, 0
2, 203533, Note_on_c, 0, 63, 0
2, 204034, Note_on_c, 0, 63, 74
2, 204038, Note_on_c, 0, 56, 75
2, 204045, Note_on_c, 0, 60, 69
2, 204049, Note_on_c, 0, 67, 81
2, 204055, Note_on_c, 0, 89, 79
2, 204057, Note_on_c, 0, 84, 85
2, 204059, Note_on_c, 0, 96, 81
2, 204076, Note_on_c, 0, 92, 69
2, 204126, Control_c, 0, 64, 0
2, 204300, Note_on_c, 0, 67, 0
2, 204317, Note_on_c, 0, 84, 0
2, 204332, Note_on_c, 0, 92, 0
2, 204369, Note_on_c, 0, 89, 0
2, 204375, Note_on_c, 0, 56, 0
2, 204388, Note_on_c, 0, 60, 0
2, 204392, Note_on_c, 0, 96, 0
2, 204423, Note_on_c, 0, 63, 0
2, 204494, Note_on_c, 0, 56, 67
2, 204506, Note_on_c, 0, 63, 55
2, 204508, Note_on_c, 0, 67, 67
2, 204529, Note_on_c, 0, 96, 70
2, 204531, Note_on_c, 0, 60, 75
2, 204533, Note_on_c, 0, 89, 62
2, 204544, Note_on_c, 0, 84, 70
2, 204544, Control_c, 0, 64, 127
2, 204573, Note_on_c, 0, 92, 46
2, 205020, Note_on_c, 0, 96, 0
2, 205030, Note_on_c, 0, 60, 0
2, 205037, Note_on_c, 0, 84, 0
2, 205049, Note_on_c, 0, 56, 0
2, 205051, Note_on_c, 0, 67, 0
2, 205053, Note_on_c, 0, 63, 0
2, 205070, Note_on_c, 0, 89, 0
2, 205095, Note_on_c, 0, 92, 0
2, 205103, Control_c, 0, 64, 0
2, 205397, Control_c, 0, 64, 127
2, 205833, Control_c, 0, 64, 0
2, 205902, Note_on_c, 0, 94, 80
2, 205904, Note_on_c, 0, 56, 77
2, 205906, Note_on_c, 0, 82, 83
2, 205917, Note_on_c, 0, 63, 74
2, 205919, Note_on_c, 0, 67, 81
2, 205921, Note_on_c, 0, 89, 72
2, 205923, Note_on_c, 0, 60, 64
2, 206187, Note_on_c, 0, 89, 0
2, 206224, Note_on_c, 0, 67, 0
2, 206245, Note_on_c, 0, 94, 0
2, 206251, Control_c, 0, 64, 127
2, 206262, Note_on_c, 0, 56, 0
2, 206264, Note_on_c, 0, 82, 0
2, 206303, Note_on_c, 0, 60, 0
2, 206333, Note_on_c, 0, 63, 0
2, 206522, Control_c, 0, 64, 0
2, 206647, Note_on_c, 0, 63, 62
2, 206649, Note_on_c, 0, 67, 70
2, 206661, Note_on_c, 0, 56, 68
2, 206676, Note_on_c, 0, 60, 52
2, 206678, Note_on_c, 0, 94, 70
2, 206692, Control_c, 0, 64, 127
2, 206694, Note_on_c, 0, 89, 66
2, 206699, Note_on_c, 0, 82, 50
2, 206832, Note_on_c, 0, 82, 0
2, 206840, Note_on_c, 0, 67, 0
2, 206954, Note_on_c, 0, 56, 0
2, 206969, Note_on_c, 0, 89, 0
2, 206977, Note_on_c, 0, 94, 0
2, 207009, Note_on_c, 0, 63, 0
2, 207065, Note_on_c, 0, 60, 0
2, 207273, Control_c, 0, 64, 0
2, 207391, Note_on_c, 0, 85, 92
2, 207393, Note_on_c, 0, 94, 84
2, 207395, Note_on_c, 0, 66, 86
2, 207398, Note_on_c, 0, 56, 84
2, 207408, Note_on_c, 0, 90, 76
2, 207410, Note_on_c, 0, 62, 81
2, 207670, Control_c, 0, 64, 127
2, 207915, Note_on_c, 0, 85, 0
2, 207963, Note_on_c, 0, 90, 0
2, 207965, Note_on_c, 0, 66, 0
2, 207970, Note_on_c, 0, 56, 0
2, 208011, Note_on_c, 0, 94, 0
2, 208017, Note_on_c, 0, 62, 0
2, 208057, Note_on_c, 0, 66, 79
2, 208061, Note_on_c, 0, 87, 64
2, 208086, Note_on_c, 0, 56, 64
2, 208088, Control_c, 0, 64, 0
2, 208090, Note_on_c, 0, 62, 50
2, 208092, Note_on_c, 0, 92, 69
2, 208105, Note_on_c, 0, 96, 65
2, 208215, Note_on_c, 0, 87, 0
2, 208244, Note_on_c, 0, 92, 0
2, 208250, Note_on_c, 0, 66, 0
2, 208265, Note_on_c, 0, 96, 0
2, 208315, Note_on_c, 0, 62, 0
2, 208340, Note_on_c, 0, 56, 0
2, 208953, Note_on_c, 0, 66, 87
2, 208958, Note_on_c, 0, 96, 84
2, 208962, Note_on_c, 0, 56, 81
2, 208964, Note_on_c, 0, 87, 83
2, 208972, Note_on_c, 0, 92, 77
2, 208974, Note_on_c, 0, 62, 79
2, 209226, Note_on_c, 0, 66, 0
2, 209249, Note_on_c, 0, 96, 0
2, 209257, Note_on_c, 0, 87, 0
2, 209263, Note_on_c, 0, 92, 0
2, 209292, Note_on_c, 0, 62, 0
2, 209294, Note_on_c, 0, 56, 0
2, 209860, Note_on_c, 0, 85, 73
2, 209866, Note_on_c, 0, 90, 71
2, 209869, Note_on_c, 0, 94, 70
2, 209871, Note_on_c, 0, 66, 77
2, 209883, Note_on_c, 0, 62, 73
2, 209894, Note_on_c, 0, 56, 69
2, 210014, Control_c, 0, 64, 127
2, 210106, Note_on_c, 0, 85, 0
2, 210158, Note_on_c, 0, 56, 0
2, 210168, Note_on_c, 0, 66, 0
2, 210178, Note_on_c, 0, 90, 0
2, 210185, Note_on_c, 0, 94, 0
2, 210262, Note_on_c, 0, 62, 0
2, 210287, Control_c, 0, 64, 0
2, 210449, Note_on_c, 0, 84, 71
2, 210459, Note_on_c, 0, 66, 77
2, 210461, Note_on_c, 0, 62, 63
2, 210474, Note_on_c, 0, 56, 74
2, 210805, Note_on_c, 0, 84, 0
2, 210852, Note_on_c, 0, 56, 0
2, 210857, Note_on_c, 0, 66, 0
2, 210873, Note_on_c, 0, 62, 0
2, 211246, Control_c, 0, 64, 127
2, 211768, Control_c, 0, 64, 0
2, 211828, Note_on_c, 0, 96, 80
2, 211828, Note_on_c, 0, 84, 90
2, 211834, Note_on_c, 0, 91, 82
2, 211836, Note_on_c, 0, 56, 83
2, 211838, Note_on_c, 0, 66, 87
2, 211849, Note_on_c, 0, 62, 80
2, 212088, Note_on_c, 0, 91, 0
2, 212132, Note_on_c, 0, 66, 0
2, 212140, Note_on_c, 0, 84, 0
2, 212154, Note_on_c, 0, 96, 0
2, 212192, Note_on_c, 0, 56, 0
2, 212204, Note_on_c, 0, 62, 0
2, 212213, Control_c, 0, 64, 127
2, 212683, Note_on_c, 0, 66, 82
2, 212685, Note_on_c, 0, 62, 80
2, 212687, Note_on_c, 0, 94, 78
2, 212689, Note_on_c, 0, 82, 82
2, 212691, Note_on_c, 0, 56, 78
2, 212720, Note_on_c, 0, 89, 60
2, 212918, Note_on_c, 0, 89, 0
2, 212949, Control_c, 0, 64, 0
2, 212951, Note_on_c, 0, 66, 0
2, 212968, Note_on_c, 0, 56, 0
2, 212978, Note_on_c, 0, 82, 0
2, 213014, Note_on_c, 0, 94, 0
2, 213051, Note_on_c, 0, 62, 0
2, 213134, Control_c, 0, 64, 127
2, 213151, Note_on_c, 0, 66, 77
2, 213161, Note_on_c, 0, 56, 70
2, 213163, Note_on_c, 0, 96, 70
2, 213174, Note_on_c, 0, 62, 76
2, 213182, Note_on_c, 0, 95, 66
2, 213184, Note_on_c, 0, 84, 74
2, 213197, Note_on_c, 0, 83, 44
2, 213211, Note_on_c, 0, 90, 33
2, 213251, Note_on_c, 0, 95, 0
2, 213284, Note_on_c, 0, 83, 0
2, 213296, Note_on_c, 0, 90, 0
2, 213415, Note_on_c, 0, 84, 0
2, 213423, Note_on_c, 0, 66, 0
2, 213425, Note_on_c, 0, 96, 0
2, 213467, Note_on_c, 0, 56, 0
2, 213515, Note_on_c, 0, 62, 0
2, 213635, Note_on_c, 0, 66, 63
2, 213638, Note_on_c, 0, 62, 60
2, 213640, Note_on_c, 0, 96, 64
2, 213650, Note_on_c, 0, 56, 58
2, 213652, Note_on_c, 0, 84, 71
2, 213714, Note_on_c, 0, 86, 34
2, 213796, Note_on_c, 0, 66, 0
2, 213806, Note_on_c, 0, 86, 0
2, 213829, Note_on_c, 0, 84, 0
2, 213848, Note_on_c, 0, 96, 0
2, 213885, Note_on_c, 0, 56, 0
2, 213887, Control_c, 0, 64, 0
2, 213945, Note_on_c, 0, 62, 0
2, 214037, Note_on_c, 0, 56, 60
2, 214039, Note_on_c, 0, 66, 63
2, 214049, Note_on_c, 0, 62, 37
2, 214054, Note_on_c, 0, 94, 57
2, 214068, Note_on_c, 0, 82, 56
2, 214137, Control_c, 0, 64, 127
2, 214243, Note_on_c, 0, 62, 0
2, 214305, Note_on_c, 0, 66, 0
2, 214326, Note_on_c, 0, 82, 0
2, 214347, Note_on_c, 0, 94, 0
2, 214424, Note_on_c, 0, 56, 0
2, 215031, Control_c, 0, 64, 0
2, 215264, Control_c, 0, 64, 127
2, 215597, Control_c, 0, 64, 0
2, 215676, Note_on_c, 0, 63, 84
2, 215678, Note_on_c, 0, 55, 75
2, 215688, Note_on_c, 0, 98, 82
2, 215693, Note_on_c, 0, 65, 89
2, 215699, Note_on_c, 0, 86, 89
2, 215707, Note_on_c, 0, 59, 78
2, 215722, Note_on_c, 0, 96, 66
2, 215749, Note_on_c, 0, 92, 34
2, 215792, Note_on_c, 0, 96, 0
2, 215828, Note_on_c, 0, 92, 0
2, 216098, Control_c, 0, 64, 127
2, 216256, Note_on_c, 0, 98, 0
2, 216258, Note_on_c, 0, 86, 0
2, 216260, Note_on_c, 0, 65, 0
2, 216269, Note_on_c, 0, 59, 0
2, 216281, Note_on_c, 0, 55, 0
2, 216306, Note_on_c, 0, 63, 0
2, 216387, Control_c, 0, 64, 0
2, 216473, Note_on_c, 0, 63, 67
2, 216483, Note_on_c, 0, 55, 51
2, 216495, Note_on_c, 0, 65, 74
2, 216500, Note_on_c, 0, 59, 70
2, 216502, Note_on_c, 0, 99, 77
2, 216512, Note_on_c, 0, 87, 77
2, 216568, Note_on_c, 0, 86, 55
2, 216604, Note_on_c, 0, 97, 26
2, 216656, Note_on_c, 0, 86, 0
2, 216807, Control_c, 0, 64, 127
2, 216818, Note_on_c, 0, 87, 0
2, 216828, Note_on_c, 0, 65, 0
2, 216843, Note_on_c, 0, 99, 0
2, 216857, Note_on_c, 0, 55, 0
2, 216886, Note_on_c, 0, 97, 0
2, 216895, Note_on_c, 0, 59, 0
2, 216920, Note_on_c, 0, 63, 0
2, 216932, Control_c, 0, 64, 0
2, 217038, Note_on_c, 0, 63, 75
2, 217049, Note_on_c, 0, 55, 62
2, 217053, Note_on_c, 0, 59, 62
2, 217057, Note_on_c, 0, 65, 74
2, 217067, Note_on_c, 0, 99, 83
2, 217080, Note_on_c, 0, 87, 78
2, 217223, Control_c, 0, 64, 127
2, 217486, Note_on_c, 0, 55, 0
2, 217488, Note_on_c, 0, 65, 0
2, 217519, Note_on_c, 0, 59, 0
2, 217527, Note_on_c, 0, 63, 0
2, 217529, Note_on_c, 0, 99, 0
2, 217538, Control_c, 0, 64, 0
2, 217562, Note_on_c, 0, 87, 0
2, 217646, Note_on_c, 0, 63, 62
2, 217658, Note_on_c, 0, 65, 48
2, 217660, Note_on_c, 0, 86, 61
2, 217671, Note_on_c, 0, 98, 46
2, 217673, Note_on_c, 0, 59, 59
2, 217675, Note_on_c, 0, 55, 42
2, 217775, Note_on_c, 0, 65, 0
2, 217785, Note_on_c, 0, 55, 0
2, 217798, Note_on_c, 0, 86, 0
2, 217843, Note_on_c, 0, 98, 0
2, 217893, Note_on_c, 0, 59, 0
2, 217914, Note_on_c, 0, 63, 0
2, 218399, Note_on_c, 0, 63, 75
2, 218401, Note_on_c, 0, 99, 82
2, 218411, Note_on_c, 0, 87, 84
2, 218426, Note_on_c, 0, 65, 81
2, 218432, Note_on_c, 0, 55, 74
2, 218432, Note_on_c, 0, 59, 64
2, 218752, Control_c, 0, 64, 127
2, 218754, Note_on_c, 0, 87, 0
2, 218775, Note_on_c, 0, 99, 0
2, 218798, Note_on_c, 0, 65, 0
2, 218827, Note_on_c, 0, 55, 0
2, 218844, Note_on_c, 0, 59, 0
2, 218898, Note_on_c, 0, 63, 0
2, 219295, Control_c, 0, 64, 0
2, 219312, Note_on_c, 0, 63, 59
2, 219326, Note_on_c, 0, 99, 82
2, 219343, Note_on_c, 0, 55, 69
2, 219345, Note_on_c, 0, 87, 80
2, 219347, Note_on_c, 0, 65, 77
2, 219360, Note_on_c, 0, 59, 66
2, 219732, Control_c, 0, 64, 127
2, 219842, Note_on_c, 0, 65, 0
2, 219851, Note_on_c, 0, 55, 0
2, 219855, Note_on_c, 0, 59, 0
2, 219869, Note_on_c, 0, 99, 0
2, 219905, Note_on_c, 0, 87, 0
2, 219925, Note_on_c, 0, 63, 0
2, 220287, Note_on_c, 0, 63, 69
2, 220298, Note_on_c, 0, 98, 56
2, 220300, Note_on_c, 0, 86, 67
2, 220310, Note_on_c, 0, 55, 66
2, 220312, Note_on_c, 0, 65, 72
2, 220323, Note_on_c, 0, 59, 62
2, 220327, Note_on_c, 0, 96, 54
2, 220418, Note_on_c, 0, 96, 0
2, 220483, Note_on_c, 0, 65, 0
2, 220491, Note_on_c, 0, 86, 0
2, 220502, Note_on_c, 0, 98, 0
2, 220504, Control_c, 0, 64, 0
2, 220533, Note_on_c, 0, 55, 0
2, 220587, Note_on_c, 0, 63, 0
2, 220591, Note_on_c, 0, 59, 0
2, 220714, Note_on_c, 0, 63, 71
2, 220728, Note_on_c, 0, 65, 72
2, 220730, Note_on_c, 0, 55, 59
2, 220732, Note_on_c, 0, 99, 74
2, 220735, Note_on_c, 0, 87, 69
2, 220747, Note_on_c, 0, 59, 60
2, 220880, Control_c, 0, 64, 127
2, 221007, Note_on_c, 0, 65, 0
2, 221022, Note_on_c, 0, 99, 0
2, 221030, Note_on_c, 0, 87, 0
2, 221067, Note_on_c, 0, 55, 0
2, 221076, Note_on_c, 0, 59, 0
2, 221128, Note_on_c, 0, 63, 0
2, 221190, Note_on_c, 0, 63, 25
2, 221215, Note_on_c, 0, 55, 43
2, 221221, Note_on_c, 0, 65, 63
2, 221250, Note_on_c, 0, 99, 76
2, 221252, Note_on_c, 0, 59, 50
2, 221263, Note_on_c, 0, 87, 71
2, 221438, Control_c, 0, 64, 0
2, 221440, Note_on_c, 0, 65, 0
2, 221531, Note_on_c, 0, 63, 0
2, 221531, Note_on_c, 0, 87, 0
2, 221539, Note_on_c, 0, 99, 0
2, 221616, Note_on_c, 0, 63, 49
2, 221646, Note_on_c, 0, 65, 68
2, 221666, Note_on_c, 0, 98, 71
2, 221671, Note_on_c, 0, 86, 71
2, 221720, Note_on_c, 0, 97, 45
2, 221772, Control_c, 0, 64, 127
2, 221793, Note_on_c, 0, 97, 0
2, 221949, Note_on_c, 0, 59, 0
2, 221964, Note_on_c, 0, 55, 0
2, 222055, Note_on_c, 0, 63, 0
2, 222205, Note_on_c, 0, 98, 0
2, 222213, Note_on_c, 0, 86, 0
2, 222288, Note_on_c, 0, 65, 0
2, 222586, Control_c, 0, 64, 0
2, 222627, Note_on_c, 0, 67, 80
2, 222634, Note_on_c, 0, 58, 70
2, 222646, Note_on_c, 0, 62, 72
2, 222648, Note_on_c, 0, 63, 60
2, 222661, Note_on_c, 0, 98, 80
2, 222667, Note_on_c, 0, 86, 89
2, 222713, Note_on_c, 0, 92, 52
2, 222723, Note_on_c, 0, 97, 36
2, 222785, Note_on_c, 0, 92, 0
2, 222794, Note_on_c, 0, 97, 0
2, 223380, Note_on_c, 0, 98, 0
2, 223407, Note_on_c, 0, 86, 0
2, 223441, Note_on_c, 0, 58, 0
2, 223488, Note_on_c, 0, 67, 0
2, 223507, Note_on_c, 0, 63, 0
2, 223515, Note_on_c, 0, 62, 0
2, 223630, Control_c, 0, 64, 127
2, 223640, Note_on_c, 0, 67, 58
2, 223651, Note_on_c, 0, 99, 68
2, 223657, Note_on_c, 0, 87, 60
2, 223661, Note_on_c, 0, 58, 47
2, 223671, Control_c, 0, 64, 0
2, 223674, Note_on_c, 0, 63, 50
2, 223690, Note_on_c, 0, 62, 55
2, 223963, Control_c, 0, 64, 127
2, 224006, Note_on_c, 0, 99, 0
2, 224031, Note_on_c, 0, 87, 0
2, 224033, Note_on_c, 0, 58, 0
2, 224035, Note_on_c, 0, 67, 0
2, 224046, Control_c, 0, 64, 0
2, 224083, Note_on_c, 0, 62, 0
2, 224094, Note_on_c, 0, 63, 0
2, 224233, Note_on_c, 0, 99, 80
2, 224235, Note_on_c, 0, 87, 70
2, 224246, Note_on_c, 0, 67, 69
2, 224248, Note_on_c, 0, 63, 69
2, 224254, Note_on_c, 0, 62, 66
2, 224264, Note_on_c, 0, 58, 62
2, 224325, Note_on_c, 0, 61, 29
2, 224410, Note_on_c, 0, 61, 0
2, 224520, Note_on_c, 0, 87, 0
2, 224535, Note_on_c, 0, 62, 0
2, 224541, Note_on_c, 0, 67, 0
2, 224551, Note_on_c, 0, 99, 0
2, 224566, Note_on_c, 0, 58, 0
2, 224574, Control_c, 0, 64, 127
2, 224595, Note_on_c, 0, 63, 0
2, 225053, Control_c, 0, 64, 0
2, 225121, Note_on_c, 0, 86, 80
2, 225123, Note_on_c, 0, 58, 77
2, 225123, Note_on_c, 0, 63, 71
2, 225125, Note_on_c, 0, 67, 82
2, 225140, Note_on_c, 0, 98, 66
2, 225140, Note_on_c, 0, 94, 59
2, 225159, Note_on_c, 0, 62, 73
2, 225227, Note_on_c, 0, 62, 0
2, 225275, Note_on_c, 0, 67, 0
2, 225325, Note_on_c, 0, 86, 0
2, 225371, Note_on_c, 0, 94, 0
2, 225387, Note_on_c, 0, 63, 0
2, 225410, Note_on_c, 0, 98, 0
2, 225412, Note_on_c, 0, 58, 0
2, 225512, Control_c, 0, 64, 127
2, 225951, Control_c, 0, 64, 0
2, 226051, Note_on_c, 0, 87, 80
2, 226055, Note_on_c, 0, 92, 84
2, 226066, Note_on_c, 0, 99, 79
2, 226068, Note_on_c, 0, 58, 82
2, 226070, Note_on_c, 0, 67, 88
2, 226072, Note_on_c, 0, 63, 74
2, 226074, Note_on_c, 0, 62, 82
2, 226178, Note_on_c, 0, 87, 0
2, 226315, Control_c, 0, 64, 127
2, 226421, Note_on_c, 0, 87, 42
2, 226423, Note_on_c, 0, 92, 0
2, 226425, Note_on_c, 0, 67, 0
2, 226452, Note_on_c, 0, 63, 0
2, 226550, Note_on_c, 0, 62, 0
2, 226617, Note_on_c, 0, 67, 17
2, 226725, Note_on_c, 0, 87, 0
2, 226794, Note_on_c, 0, 62, 57
2, 226829, Note_on_c, 0, 99, 0
2, 226902, Note_on_c, 0, 87, 37
2, 226923, Note_on_c, 0, 67, 0
2, 227039, Note_on_c, 0, 58, 0
2, 227095, Note_on_c, 0, 87, 0
2, 227120, Note_on_c, 0, 62, 0
2, 227191, Control_c, 0, 64, 0
2, 227343, Note_on_c, 0, 86, 70
2, 227349, Note_on_c, 0, 62, 71
2, 227353, Note_on_c, 0, 63, 69
2, 227355, Note_on_c, 0, 67, 74
2, 227357, Note_on_c, 0, 98, 57
2, 227359, Note_on_c, 0, 58, 69
2, 227372, Note_on_c, 0, 61, 23
2, 227374, Note_on_c, 0, 94, 50
2, 227767, Note_on_c, 0, 67, 0
2, 227769, Note_on_c, 0, 86, 0
2, 227788, Note_on_c, 0, 98, 0
2, 227804, Note_on_c, 0, 62, 0
2, 227827, Note_on_c, 0, 63, 0
2, 227844, Note_on_c, 0, 61, 0
2, 227854, Note_on_c, 0, 94, 0
2, 227856, Note_on_c, 0, 58, 0
2, 228349, Control_c, 0, 64, 127
2, 228362, Note_on_c, 0, 99, 83
2, 228366, Note_on_c, 0, 87, 85
2, 228368, Note_on_c, 0, 58, 78
2, 228379, Note_on_c, 0, 63, 74
2, 228381, Note_on_c, 0, 67, 84
2, 228383, Note_on_c, 0, 62, 81
2, 228740, Note_on_c, 0, 62, 0
2, 228747, Note_on_c, 0, 99, 0
2, 228755, Note_on_c, 0, 67, 0
2, 228765, Note_on_c, 0, 87, 0
2, 228774, Note_on_c, 0, 58, 0
2, 228776, Note_on_c, 0, 63, 0
2, 229148, Control_c, 0, 64, 0
2, 229331, Note_on_c, 0, 67, 85
2, 229333, Note_on_c, 0, 63, 77
2, 229339, Note_on_c, 0, 58, 79
2, 229348, Note_on_c, 0, 98, 71
2, 229350, Note_on_c, 0, 86, 76
2, 229375, Note_on_c, 0, 97, 55
2, 229400, Note_on_c, 0, 88, 38
2, 229471, Note_on_c, 0, 67, 0
2, 229500, Note_on_c, 0, 88, 0
2, 229531, Note_on_c, 0, 97, 0
2, 229597, Note_on_c, 0, 58, 0
2, 229606, Note_on_c, 0, 63, 0
2, 229656, Note_on_c, 0, 86, 0
2, 229699, Note_on_c, 0, 98, 0
2, 230311, Control_c, 0, 64, 127
2, 230325, Note_on_c, 0, 63, 79
2, 230340, Note_on_c, 0, 55, 66
2, 230340, Note_on_c, 0, 60, 54
2, 230348, Note_on_c, 0, 98, 80
2, 230359, Control_c, 0, 64, 0
2, 230361, Note_on_c, 0, 86, 85
2, 230375, Note_on_c, 0, 57, 59
2, 230413, Note_on_c, 0, 96, 34
2, 230506, Note_on_c, 0, 96, 0
2, 230563, Control_c, 0, 64, 127
2, 230854, Note_on_c, 0, 86, 0
2, 230879, Note_on_c, 0, 55, 0
2, 230881, Note_on_c, 0, 98, 0
2, 230895, Note_on_c, 0, 60, 0
2, 230906, Note_on_c, 0, 57, 0
2, 230922, Note_on_c, 0, 63, 0
2, 231230, Control_c, 0, 64, 0
2, 231295, Note_on_c, 0, 63, 84
2, 231316, Note_on_c, 0, 55, 66
2, 231318, Note_on_c, 0, 99, 84
2, 231328, Note_on_c, 0, 60, 60
2, 231330, Note_on_c, 0, 87, 84
2, 231338, Note_on_c, 0, 57, 60
2, 231709, Note_on_c, 0, 55, 0
2, 231725, Note_on_c, 0, 63, 0
2, 231731, Note_on_c, 0, 99, 0
2, 231748, Note_on_c, 0, 87, 0
2, 231769, Note_on_c, 0, 57, 0
2, 231790, Note_on_c, 0, 60, 0
2, 231875, Note_on_c, 0, 63, 78
2, 231883, Note_on_c, 0, 87, 68
2, 231885, Note_on_c, 0, 99, 62
2, 231890, Note_on_c, 0, 55, 60
2, 231927, Note_on_c, 0, 60, 60
2, 231929, Note_on_c, 0, 57, 67
2, 232212, Note_on_c, 0, 55, 0
2, 232235, Note_on_c, 0, 57, 0
2, 232241, Note_on_c, 0, 63, 0
2, 232245, Note_on_c, 0, 87, 0
2, 232258, Note_on_c, 0, 99, 0
2, 232274, Note_on_c, 0, 60, 0
2, 232767, Note_on_c, 0, 63, 80
2, 232767, Note_on_c, 0, 86, 77
2, 232771, Note_on_c, 0, 98, 70
2, 232786, Note_on_c, 0, 60, 63
2, 232796, Note_on_c, 0, 57, 66
2, 232801, Note_on_c, 0, 55, 62
2, 233065, Note_on_c, 0, 63, 0
2, 233140, Note_on_c, 0, 86, 0
2, 233154, Note_on_c, 0, 98, 0
2, 233225, Note_on_c, 0, 55, 0
2, 233256, Note_on_c, 0, 60, 0
2, 233291, Note_on_c, 0, 57, 0
2, 233735, Note_on_c, 0, 87, 87
2, 233737, Note_on_c, 0, 99, 83
2, 233739, Note_on_c, 0, 63, 84
2, 233749, Note_on_c, 0, 60, 69
2, 233751, Note_on_c, 0, 57, 69
2, 233762, Note_on_c, 0, 55, 67
2, 233789, Note_on_c, 0, 94, 46
2, 233859, Note_on_c, 0, 94, 0
2, 234088, Control_c, 0, 64, 127
2, 234132, Note_on_c, 0, 63, 0
2, 234142, Note_on_c, 0, 99, 0
2, 234155, Note_on_c, 0, 55, 0
2, 234178, Note_on_c, 0, 87, 0
2, 234230, Note_on_c, 0, 60, 0
2, 234232, Note_on_c, 0, 57, 0
2, 234683, Note_on_c, 0, 60, 66
2, 234687, Note_on_c, 0, 63, 81
2, 234698, Note_on_c, 0, 57, 64
2, 234708, Note_on_c, 0, 55, 60
2, 234712, Note_on_c, 0, 96, 75
2, 234718, Note_on_c, 0, 101, 76
2, 234721, Note_on_c, 0, 89, 75
2, 234901, Note_on_c, 0, 101, 0
2, 234962, Note_on_c, 0, 89, 0
2, 234972, Note_on_c, 0, 63, 0
2, 234974, Note_on_c, 0, 55, 0
2, 235045, Note_on_c, 0, 96, 0
2, 235053, Note_on_c, 0, 57, 0
2, 235066, Control_c, 0, 64, 0
2, 235103, Note_on_c, 0, 60, 0
2, 235153, Note_on_c, 0, 63, 73
2, 235164, Note_on_c, 0, 60, 29
2, 235176, Note_on_c, 0, 55, 57
2, 235195, Note_on_c, 0, 57, 62
2, 235205, Note_on_c, 0, 87, 62
2, 235207, Note_on_c, 0, 99, 68
2, 235288, Note_on_c, 0, 87, 0
2, 235513, Note_on_c, 0, 99, 0
2, 235517, Note_on_c, 0, 55, 0
2, 235548, Note_on_c, 0, 63, 0
2, 235571, Note_on_c, 0, 57, 0
2, 235625, Note_on_c, 0, 60, 0
2, 236060, Note_on_c, 0, 63, 77
2, 236079, Note_on_c, 0, 60, 57
2, 236083, Note_on_c, 0, 55, 59
2, 236085, Note_on_c, 0, 99, 77
2, 236087, Note_on_c, 0, 57, 59
2, 236095, Note_on_c, 0, 87, 77
2, 236131, Note_on_c, 0, 94, 56
2, 236135, Control_c, 0, 64, 127
2, 236216, Note_on_c, 0, 94, 0
2, 236459, Note_on_c, 0, 55, 0
2, 236461, Note_on_c, 0, 63, 0
2, 236480, Note_on_c, 0, 60, 0
2, 236501, Note_on_c, 0, 57, 0
2, 236511, Note_on_c, 0, 99, 0
2, 236513, Note_on_c, 0, 87, 0
2, 236907, Control_c, 0, 64, 0
2, 237027, Note_on_c, 0, 54, 78
2, 237035, Note_on_c, 0, 60, 76
2, 237046, Note_on_c, 0, 94, 81
2, 237048, Note_on_c, 0, 89, 88
2, 237050, Note_on_c, 0, 98, 72
2, 237102, Note_on_c, 0, 96, 38
2, 237189, Note_on_c, 0, 96, 0
2, 237483, Note_on_c, 0, 89, 0
2, 237491, Note_on_c, 0, 98, 0
2, 237508, Note_on_c, 0, 94, 0
2, 237555, Note_on_c, 0, 54, 0
2, 237558, Note_on_c, 0, 60, 0
2, 237653, Note_on_c, 0, 54, 63
2, 237666, Note_on_c, 0, 94, 67
2, 237668, Note_on_c, 0, 60, 74
2, 237678, Note_on_c, 0, 89, 68
2, 237682, Note_on_c, 0, 98, 64
2, 238036, Control_c, 0, 64, 127
2, 238063, Note_on_c, 0, 98, 0
2, 238094, Note_on_c, 0, 89, 0
2, 238202, Note_on_c, 0, 94, 0
2, 238265, Note_on_c, 0, 54, 0
2, 238290, Note_on_c, 0, 60, 0
2, 238579, Control_c, 0, 64, 0
2, 238593, Note_on_c, 0, 99, 79
2, 238595, Note_on_c, 0, 90, 80
2, 238600, Note_on_c, 0, 95, 81
2, 238608, Note_on_c, 0, 54, 75
2, 238610, Note_on_c, 0, 60, 75
2, 238627, Note_on_c, 0, 65, 80
2, 238862, Note_on_c, 0, 95, 0
2, 238905, Note_on_c, 0, 90, 0
2, 238939, Note_on_c, 0, 65, 0
2, 238947, Note_on_c, 0, 99, 0
2, 239005, Note_on_c, 0, 60, 0
2, 239099, Note_on_c, 0, 54, 0
2, 239542, Note_on_c, 0, 90, 83
2, 239548, Note_on_c, 0, 99, 81
2, 239561, Note_on_c, 0, 60, 68
2, 239561, Note_on_c, 0, 65, 80
2, 239561, Note_on_c, 0, 54, 77
2, 239575, Note_on_c, 0, 95, 69
2, 239577, Note_on_c, 0, 96, 68
2, 239854, Note_on_c, 0, 96, 0
2, 239887, Note_on_c, 0, 95, 0
2, 239937, Note_on_c, 0, 65, 0
2, 239941, Control_c, 0, 64, 127
2, 239945, Note_on_c, 0, 90, 0
2, 239962, Note_on_c, 0, 99, 0
2, 239979, Note_on_c, 0, 60, 0
2, 240064, Note_on_c, 0, 54, 0
2, 240459, Control_c, 0, 64, 0
2, 240480, Note_on_c, 0, 94, 80
2, 240480, Note_on_c, 0, 54, 79
2, 240486, Note_on_c, 0, 65, 80
2, 240497, Note_on_c, 0, 60, 71
2, 240499, Note_on_c, 0, 89, 82
2, 240501, Note_on_c, 0, 98, 73
2, 240711, Note_on_c, 0, 89, 0
2, 240779, Note_on_c, 0, 98, 0
2, 240794, Note_on_c, 0, 94, 0
2, 240836, Note_on_c, 0, 65, 0
2, 240861, Note_on_c, 0, 60, 0
2, 240898, Control_c, 0, 64, 127
2, 240940, Note_on_c, 0, 54, 0
2, 241316, Control_c, 0, 64, 0
2, 241437, Note_on_c, 0, 60, 72
2, 241449, Note_on_c, 0, 54, 80
2, 241453, Note_on_c, 0, 94, 65
2, 241455, Note_on_c, 0, 65, 83
2, 241468, Note_on_c, 0, 99, 82
2, 241468, Note_on_c, 0, 90, 83
2, 241478, Note_on_c, 0, 95, 88
2, 241557, Note_on_c, 0, 94, 0
2, 241753, Note_on_c, 0, 95, 0
2, 241817, Control_c, 0, 64, 127
2, 241832, Note_on_c, 0, 65, 0
2, 241836, Note_on_c, 0, 90, 0
2, 241851, Note_on_c, 0, 99, 0
2, 241869, Note_on_c, 0, 60, 0
2, 241923, Note_on_c, 0, 54, 0
2, 242381, Note_on_c, 0, 94, 85
2, 242385, Note_on_c, 0, 60, 75
2, 242387, Note_on_c, 0, 54, 83
2, 242389, Note_on_c, 0, 65, 85
2, 242400, Note_on_c, 0, 89, 82
2, 242402, Control_c, 0, 64, 0
2, 242414, Note_on_c, 0, 98, 74
2, 242780, Control_c, 0, 64, 127
2, 242828, Note_on_c, 0, 94, 0
2, 242855, Note_on_c, 0, 89, 0
2, 242857, Note_on_c, 0, 98, 0
2, 242916, Note_on_c, 0, 65, 0
2, 242928, Note_on_c, 0, 60, 0
2, 242961, Note_on_c, 0, 54, 0
2, 243300, Note_on_c, 0, 86, 66
2, 243303, Note_on_c, 0, 94, 69
2, 243323, Note_on_c, 0, 60, 68
2, 243325, Note_on_c, 0, 54, 78
2, 243327, Note_on_c, 0, 65, 79
2, 243390, Note_on_c, 0, 90, 28
2, 243475, Note_on_c, 0, 90, 0
2, 243673, Note_on_c, 0, 94, 0
2, 243675, Note_on_c, 0, 86, 0
2, 243677, Note_on_c, 0, 54, 0
2, 243679, Note_on_c, 0, 65, 0
2, 243741, Note_on_c, 0, 60, 0
2, 243804, Note_on_c, 0, 94, 59
2, 243806, Note_on_c, 0, 54, 75
2, 243806, Note_on_c, 0, 65, 73
2, 243825, Note_on_c, 0, 60, 60
2, 243827, Note_on_c, 0, 86, 59
2, 244189, Note_on_c, 0, 86, 0
2, 244228, Note_on_c, 0, 94, 0
2, 244463, Note_on_c, 0, 60, 0
2, 244478, Note_on_c, 0, 65, 0
2, 244517, Note_on_c, 0, 54, 0
2, 245760, Control_c, 0, 64, 0
2, 245796, Note_on_c, 0, 90, 77
2, 246117, Note_on_c, 0, 90, 0
2, 246711, Note_on_c, 0, 86, 79
2, 246981, Note_on_c, 0, 86, 0
2, 247638, Note_on_c, 0, 88, 78
2, 247661, Note_on_c, 0, 57, 53
2, 247692, Note_on_c, 0, 62, 48
2, 248120, Note_on_c, 0, 62, 0
2, 248174, Note_on_c, 0, 57, 0
2, 248263, Note_on_c, 0, 88, 0
2, 248278, Note_on_c, 0, 83, 61
2, 248498, Note_on_c, 0, 83, 0
2, 249181, Note_on_c, 0, 83, 74
2, 249216, Note_on_c, 0, 62, 45
2, 249239, Note_on_c, 0, 57, 38
2, 249242, Note_on_c, 0, 59, 38
2, 249342, Note_on_c, 0, 62, 0
2, 249365, Note_on_c, 0, 59, 0
2, 249383, Note_on_c, 0, 57, 0
2, 249544, Note_on_c, 0, 83, 0
2, 250169, Note_on_c, 0, 78, 68
2, 250575, Note_on_c, 0, 78, 0
2, 250679, Note_on_c, 0, 74, 43
2, 251059, Note_on_c, 0, 74, 0
2, 251263, Note_on_c, 0, 76, 62
2, 251626, Note_on_c, 0, 76, 0
2, 251695, Note_on_c, 0, 62, 49
2, 251736, Note_on_c, 0, 59, 47
2, 251756, Note_on_c, 0, 57, 34
2, 251762, Note_on_c, 0, 78, 64
2, 252191, Note_on_c, 0, 78, 0
2, 252274, Note_on_c, 0, 59, 0
2, 252323, Note_on_c, 0, 79, 62
2, 252329, Note_on_c, 0, 62, 0
2, 252467, Note_on_c, 0, 57, 0
2, 252709, Note_on_c, 0, 79, 0
2, 252729, Note_on_c, 0, 78, 48
2, 253392, Note_on_c, 0, 78, 0
2, 253660, Note_on_c, 0, 78, 54
2, 253674, Note_on_c, 0, 58, 46
2, 253688, Note_on_c, 0, 62, 44
2, 253717, Note_on_c, 0, 52, 36
2, 253942, Note_on_c, 0, 62, 0
2, 254014, Note_on_c, 0, 52, 0
2, 254025, Note_on_c, 0, 58, 0
2, 254305, Note_on_c, 0, 78, 0
2, 254581, Note_on_c, 0, 74, 57
2, 254915, Note_on_c, 0, 74, 0
2, 255068, Note_on_c, 0, 78, 52
2, 255200, Note_on_c, 0, 58, 53
2, 255217, Note_on_c, 0, 62, 53
2, 255318, Note_on_c, 0, 52, 25
2, 255341, Note_on_c, 0, 62, 0
2, 255454, Note_on_c, 0, 52, 0
2, 255468, Note_on_c, 0, 58, 0
2, 255552, Note_on_c, 0, 78, 0
2, 256027, Note_on_c, 0, 74, 46
2, 256404, Note_on_c, 0, 74, 0
2, 256482, Note_on_c, 0, 70, 43
2, 256946, Note_on_c, 0, 70, 0
2, 258829, Note_on_c, 0, 58, 49
2, 258852, Note_on_c, 0, 62, 47
2, 258976, Note_on_c, 0, 62, 0
2, 259094, Note_on_c, 0, 58, 0
2, 259748, Note_on_c, 0, 58, 69
2, 259762, Note_on_c, 0, 62, 64
2, 259797, Note_on_c, 0, 52, 48
2, 259889, Note_on_c, 0, 62, 0
2, 259912, Note_on_c, 0, 52, 0
2, 259984, Note_on_c, 0, 58, 0
2, 260744, Note_on_c, 0, 75, 79
2, 260767, Note_on_c, 0, 87, 67
2, 260770, Note_on_c, 0, 82, 63
2, 260929, Note_on_c, 0, 75, 0
2, 260963, Note_on_c, 0, 87, 0
2, 261041, Note_on_c, 0, 82, 0
2, 261257, Note_on_c, 0, 75, 74
2, 261265, Note_on_c, 0, 66, 43
2, 261268, Note_on_c, 0, 87, 57
2, 261271, Note_on_c, 0, 61, 28
2, 261274, Note_on_c, 0, 82, 56
2, 261291, Note_on_c, 0, 57, 45
2, 261309, Note_on_c, 0, 62, 57
2, 261787, Note_on_c, 0, 62, 0
2, 261847, Note_on_c, 0, 76, 59
2, 261850, Note_on_c, 0, 75, 0
2, 261888, Note_on_c, 0, 87, 0
2, 262135, Note_on_c, 0, 76, 0
2, 262158, Note_on_c, 0, 66, 0
2, 262190, Note_on_c, 0, 82, 0
2, 262409, Note_on_c, 0, 57, 0
2, 262443, Note_on_c, 0, 61, 0
2, 263535, Note_on_c, 0, 66, 70
2, 263564, Note_on_c, 0, 61, 47
2, 263590, Note_on_c, 0, 62, 62
2, 263616, Note_on_c, 0, 57, 42
2, 263688, Note_on_c, 0, 62, 0
2, 263745, Note_on_c, 0, 66, 0
2, 263762, Note_on_c, 0, 57, 0
2, 263872, Note_on_c, 0, 61, 0
2, 265032, Note_on_c, 0, 75, 70
2, 265047, Note_on_c, 0, 66, 64
2, 265050, Note_on_c, 0, 87, 60
2, 265087, Note_on_c, 0, 82, 47
2, 265099, Note_on_c, 0, 61, 47
2, 265107, Note_on_c, 0, 62, 63
2, 265122, Note_on_c, 0, 57, 51
2, 265130, Note_on_c, 0, 76, 62
2, 265136, Note_on_c, 0, 75, 0
2, 265159, Note_on_c, 0, 88, 56
2, 265168, Note_on_c, 0, 87, 0
2, 265430, Note_on_c, 0, 66, 0
2, 265464, Note_on_c, 0, 76, 0
2, 265470, Note_on_c, 0, 62, 0
2, 265499, Note_on_c, 0, 57, 0
2, 265502, Note_on_c, 0, 88, 0
2, 265554, Note_on_c, 0, 82, 0
2, 265571, Note_on_c, 0, 61, 0
2, 266032, Note_on_c, 0, 66, 83
2, 266049, Note_on_c, 0, 90, 80
2, 266052, Note_on_c, 0, 78, 79
2, 266064, Note_on_c, 0, 61, 59
2, 266069, Note_on_c, 0, 57, 66
2, 266081, Note_on_c, 0, 62, 70
2, 266182, Note_on_c, 0, 62, 0
2, 266372, Note_on_c, 0, 66, 0
2, 266400, Note_on_c, 0, 78, 0
2, 266403, Note_on_c, 0, 90, 0
2, 266418, Note_on_c, 0, 57, 0
2, 266533, Note_on_c, 0, 61, 0
2, 267005, Note_on_c, 0, 66, 62
2, 267025, Note_on_c, 0, 61, 44
2, 267063, Note_on_c, 0, 76, 58
2, 267066, Note_on_c, 0, 62, 57
2, 267069, Note_on_c, 0, 88, 53
2, 267109, Note_on_c, 0, 57, 34
2, 267181, Note_on_c, 0, 62, 0
2, 267195, Note_on_c, 0, 88, 0
2, 267233, Note_on_c, 0, 66, 0
2, 267247, Note_on_c, 0, 76, 0
2, 267299, Note_on_c, 0, 57, 0
2, 267452, Note_on_c, 0, 61, 0
2, 267567, Note_on_c, 0, 78, 46
2, 267584, Note_on_c, 0, 90, 61
2, 267599, Note_on_c, 0, 66, 57
2, 267630, Note_on_c, 0, 61, 21
2, 267633, Note_on_c, 0, 57, 42
2, 267673, Note_on_c, 0, 62, 59
2, 267780, Note_on_c, 0, 62, 0
2, 267803, Note_on_c, 0, 78, 0
2, 267806, Note_on_c, 0, 90, 0
2, 267832, Note_on_c, 0, 66, 0
2, 267907, Note_on_c, 0, 57, 0
2, 267947, Note_on_c, 0, 61, 0
2, 268465, Note_on_c, 0, 88, 53
2, 268506, Note_on_c, 0, 66, 62
2, 268514, Note_on_c, 0, 76, 55
2, 268520, Note_on_c, 0, 62, 65
2, 268572, Note_on_c, 0, 56, 44
2, 268621, Note_on_c, 0, 62, 0
2, 268687, Note_on_c, 0, 56, 0
2, 268696, Note_on_c, 0, 66, 0
2, 268730, Note_on_c, 0, 76, 0
2, 268765, Note_on_c, 0, 88, 0
2, 269465, Note_on_c, 0, 66, 74
2, 269471, Note_on_c, 0, 62, 72
2, 269485, Note_on_c, 0, 56, 70
2, 270810, Note_on_c, 0, 94, 77
2, 270839, Note_on_c, 0, 98, 62
2, 271305, Note_on_c, 0, 98, 0
2, 271325, Note_on_c, 0, 94, 0
2, 271380, Note_on_c, 0, 89, 59
2, 271538, Note_on_c, 0, 89, 0
2, 271875, Note_on_c, 0, 66, 0
2, 271907, Note_on_c, 0, 62, 0
2, 271976, Note_on_c, 0, 56, 0
2, 272256, Note_on_c, 0, 96, 82
2, 272258, Note_on_c, 0, 91, 92
2, 272290, Note_on_c, 0, 56, 55
2, 272293, Note_on_c, 0, 67, 57
2, 272307, Note_on_c, 0, 62, 60
2, 272610, Note_on_c, 0, 67, 0
2, 272679, Note_on_c, 0, 56, 0
2, 272699, Note_on_c, 0, 91, 0
2, 272713, Note_on_c, 0, 62, 0
2, 272803, Note_on_c, 0, 96, 0
2, 273261, Note_on_c, 0, 67, 57
2, 273266, Note_on_c, 0, 56, 60
2, 273269, Note_on_c, 0, 88, 62
2, 273284, Note_on_c, 0, 62, 61
2, 273425, Note_on_c, 0, 62, 0
2, 273445, Note_on_c, 0, 67, 0
2, 273526, Note_on_c, 0, 56, 0
2, 273546, Note_on_c, 0, 88, 0
2, 274148, Note_on_c, 0, 56, 65
2, 274151, Note_on_c, 0, 65, 61
2, 274165, Note_on_c, 0, 94, 68
2, 274168, Note_on_c, 0, 62, 61
2, 274168, Note_on_c, 0, 89, 80
2, 274571, Note_on_c, 0, 89, 0
2, 274591, Note_on_c, 0, 94, 0
2, 274620, Note_on_c, 0, 56, 0
2, 274652, Note_on_c, 0, 65, 0
2, 274701, Note_on_c, 0, 86, 50
2, 274764, Note_on_c, 0, 62, 0
2, 275141, Note_on_c, 0, 65, 52
2, 275159, Note_on_c, 0, 56, 47
2, 275179, Note_on_c, 0, 62, 45
2, 275337, Note_on_c, 0, 65, 0
2, 275346, Note_on_c, 0, 86, 0
2, 275363, Note_on_c, 0, 62, 0
2, 275568, Note_on_c, 0, 82, 58
2, 275593, Note_on_c, 0, 56, 0
2, 276357, Note_on_c, 0, 82, 0
2, 276578, Note_on_c, 0, 83, 69
2, 277157, Note_on_c, 0, 83, 0
2, 278525, Note_on_c, 0, 63, 71
2, 278560, Note_on_c, 0, 58, 63
2, 278577, Note_on_c, 0, 59, 49
2, 278954, Note_on_c, 0, 63, 0
2, 278957, Note_on_c, 0, 59, 0
2, 279116, Note_on_c, 0, 63, 44
2, 279185, Note_on_c, 0, 53, 13
2, 279225, Note_on_c, 0, 59, 50
2, 279340, Note_on_c, 0, 59, 0
2, 279432, Note_on_c, 0, 63, 0
2, 279447, Note_on_c, 0, 53, 0
2, 279496, Note_on_c, 0, 58, 0
2, 279985, Note_on_c, 0, 63, 68
2, 280000, Note_on_c, 0, 58, 39
2, 280008, Note_on_c, 0, 59, 65
2, 280034, Note_on_c, 0, 53, 50
2, 281500, Note_on_c, 0, 59, 0
2, 281529, Note_on_c, 0, 63, 0
2, 281624, Note_on_c, 0, 58, 0
2, 281797, Note_on_c, 0, 59, 33
2, 281846, Note_on_c, 0, 58, 25
2, 282065, Note_on_c, 0, 59, 0
2, 282166, Note_on_c, 0, 63, 31
2, 282287, Note_on_c, 0, 58, 0
2, 282497, Note_on_c, 0, 53, 0
2, 282690, Note_on_c, 0, 63, 0
2, 282802, Note_on_c, 0, 59, 44
2, 282929, Note_on_c, 0, 59, 0
2, 283223, Note_on_c, 0, 61, 47
2, 283741, Note_on_c, 0, 58, 45
2, 283750, Note_on_c, 0, 63, 67
2, 283951, Note_on_c, 0, 61, 0
2, 284130, Note_on_c, 0, 63, 0
2, 284150, Note_on_c, 0, 58, 0
2, 284265, Note_on_c, 0, 64, 46
2, 284645, Note_on_c, 0, 64, 0
2, 284766, Note_on_c, 0, 66, 67
2, 284830, Note_on_c, 0, 61, 45
2, 284873, Note_on_c, 0, 64, 54
2, 284930, Note_on_c, 0, 57, 39
2, 284939, Note_on_c, 0, 54, 25
2, 285080, Note_on_c, 0, 66, 0
2, 286042, Note_on_c, 0, 64, 0
2, 286103, Note_on_c, 0, 68, 71
2, 286307, Note_on_c, 0, 61, 0
2, 286379, Note_on_c, 0, 57, 0
2, 286627, Note_on_c, 0, 68, 0
2, 286722, Note_on_c, 0, 64, 27
2, 286754, Note_on_c, 0, 61, 21
2, 286785, Note_on_c, 0, 54, 0
2, 286831, Note_on_c, 0, 64, 0
2, 287044, Note_on_c, 0, 61, 0
2, 287177, Note_on_c, 0, 66, 34
2, 287525, Note_on_c, 0, 66, 0
2, 287617, Note_on_c, 0, 68, 62
2, 287641, Note_on_c, 0, 61, 36
2, 287704, Note_on_c, 0, 64, 32
2, 287831, Note_on_c, 0, 64, 0
2, 288015, Note_on_c, 0, 68, 0
2, 288061, Note_on_c, 0, 61, 0
2, 288119, Note_on_c, 0, 69, 62
2, 288496, Note_on_c, 0, 69, 0
2, 288666, Note_on_c, 0, 61, 25
2, 288968, Note_on_c, 0, 61, 0
2, 289472, Note_on_c, 0, 61, 61
2, 289521, Note_on_c, 0, 64, 57
2, 289553, Note_on_c, 0, 54, 36
2, 289573, Note_on_c, 0, 57, 40
2, 289625, Note_on_c, 0, 64, 0
2, 289691, Note_on_c, 0, 54, 0
2, 289752, Note_on_c, 0, 57, 0
2, 289844, Note_on_c, 0, 61, 0
2, 289959, Note_on_c, 0, 71, 68
2, 290380, Note_on_c, 0, 71, 0
2, 290529, Note_on_c, 0, 73, 52
2, 290832, Note_on_c, 0, 73, 0
2, 291016, Note_on_c, 0, 76, 58
2, 291327, Note_on_c, 0, 76, 0
2, 291958, Note_on_c, 0, 61, 55
2, 291972, Note_on_c, 0, 64, 64
2, 292007, Note_on_c, 0, 54, 44
2, 292015, Note_on_c, 0, 57, 44
2, 292620, Note_on_c, 0, 64, 0
2, 292946, Note_on_c, 0, 57, 0
2, 292989, Note_on_c, 0, 54, 0
2, 293090, Note_on_c, 0, 61, 0
2, 293550, Note_on_c, 0, 54, 60
2, 293562, Note_on_c, 0, 61, 70
2, 293585, Note_on_c, 0, 66, 83
2, 293637, Note_on_c, 0, 57, 53
2, 293982, Note_on_c, 0, 66, 0
2, 294034, Note_on_c, 0, 57, 0
2, 294164, Note_on_c, 0, 61, 0
2, 294201, Note_on_c, 0, 54, 0
2, 294895, Note_on_c, 0, 61, 38
2, 294936, Note_on_c, 0, 54, 57
2, 294941, Note_on_c, 0, 66, 64
2, 295005, Note_on_c, 0, 57, 52
2, 295944, Note_on_c, 0, 66, 0
2, 296099, Note_on_c, 0, 61, 0
2, 296111, Note_on_c, 0, 57, 0
2, 296116, Note_on_c, 0, 54, 0
2, 296341, Note_on_c, 0, 61, 53
2, 296356, Note_on_c, 0, 66, 68
2, 296364, Note_on_c, 0, 54, 40
2, 296410, Note_on_c, 0, 57, 44
2, 296545, Note_on_c, 0, 66, 0
2, 296785, Note_on_c, 0, 80, 87
2, 296966, Note_on_c, 0, 54, 0
2, 297142, Note_on_c, 0, 57, 0
2, 297162, Note_on_c, 0, 61, 0
2, 297168, Note_on_c, 0, 80, 0
2, 297289, Note_on_c, 0, 81, 74
2, 297418, Note_on_c, 0, 61, 51
2, 297438, Note_on_c, 0, 66, 43
2, 297533, Note_on_c, 0, 57, 24
2, 297556, Note_on_c, 0, 66, 0
2, 297703, Note_on_c, 0, 81, 0
2, 297741, Note_on_c, 0, 57, 0
2, 297769, Note_on_c, 0, 80, 53
2, 297913, Note_on_c, 0, 61, 0
2, 298291, Note_on_c, 0, 61, 48
2, 298308, Note_on_c, 0, 80, 0
2, 298325, Note_on_c, 0, 54, 49
2, 298334, Note_on_c, 0, 66, 38
2, 298446, Note_on_c, 0, 66, 0
2, 298734, Note_on_c, 0, 78, 71
2, 298970, Note_on_c, 0, 61, 0
2, 299002, Note_on_c, 0, 54, 0
2, 299063, Note_on_c, 0, 78, 0
2, 299207, Note_on_c, 0, 80, 64
2, 299653, Note_on_c, 0, 80, 0
2, 299679, Note_on_c, 0, 78, 50
2, 300223, Note_on_c, 0, 65, 50
2, 300226, Note_on_c, 0, 78, 0
2, 300264, Note_on_c, 0, 60, 43
2, 300428, Note_on_c, 0, 65, 0
2, 300531, Note_on_c, 0, 60, 0
2, 300540, Note_on_c, 0, 76, 55
2, 301009, Note_on_c, 0, 76, 0
2, 301130, Note_on_c, 0, 78, 61
2, 301249, Note_on_c, 0, 60, 22
2, 301571, Note_on_c, 0, 60, 0
2, 301574, Note_on_c, 0, 76, 34
2, 301833, Note_on_c, 0, 78, 0
2, 301980, Note_on_c, 0, 76, 0
2, 302118, Note_on_c, 0, 65, 59
2, 302124, Note_on_c, 0, 60, 52
2, 302159, Note_on_c, 0, 54, 42
2, 302161, Note_on_c, 0, 75, 71
2, 302401, Note_on_c, 0, 65, 0
2, 302444, Note_on_c, 0, 75, 0
2, 302475, Note_on_c, 0, 60, 0
2, 302524, Note_on_c, 0, 54, 0
2, 303129, Note_on_c, 0, 54, 60
2, 303129, Note_on_c, 0, 64, 65
2, 303132, Note_on_c, 0, 60, 54
2, 303164, Note_on_c, 0, 73, 63
2, 303420, Note_on_c, 0, 73, 0
2, 303777, Note_on_c, 0, 60, 0
2, 304088, Note_on_c, 0, 72, 87
2, 304108, Note_on_c, 0, 60, 22
2, 304215, Note_on_c, 0, 64, 0
2, 304327, Note_on_c, 0, 60, 0
2, 304396, Note_on_c, 0, 54, 0
2, 304517, Note_on_c, 0, 72, 0
2, 304921, Note_on_c, 0, 64, 53
2, 304923, Note_on_c, 0, 54, 52
2, 304926, Note_on_c, 0, 60, 48
2, 304929, Note_on_c, 0, 71, 74
2, 305321, Note_on_c, 0, 64, 0
2, 305433, Note_on_c, 0, 54, 0
2, 305433, Note_on_c, 0, 60, 0
2, 305450, Note_on_c, 0, 70, 60
2, 305491, Note_on_c, 0, 71, 0
2, 305960, Note_on_c, 0, 64, 48
2, 305963, Note_on_c, 0, 60, 51
2, 305966, Note_on_c, 0, 54, 55
2, 306182, Note_on_c, 0, 64, 0
2, 306196, Note_on_c, 0, 70, 0
2, 306337, Note_on_c, 0, 69, 67
2, 306525, Note_on_c, 0, 54, 0
2, 306908, Note_on_c, 0, 60, 0
2, 307072, Note_on_c, 0, 69, 0
2, 307129, Note_on_c, 0, 60, 28
2, 307184, Note_on_c, 0, 63, 46
2, 307256, Note_on_c, 0, 68, 69
2, 307299, Note_on_c, 0, 56, 36
2, 307642, Note_on_c, 0, 63, 0
2, 307996, Note_on_c, 0, 68, 0
2, 308140, Note_on_c, 0, 60, 0
2, 308166, Note_on_c, 0, 65, 52
2, 308330, Note_on_c, 0, 56, 0
2, 308492, Note_on_c, 0, 65, 0
2, 308728, Note_on_c, 0, 60, 52
2, 310453, Note_on_c, 0, 60, 0
2, 310669, Note_on_c, 0, 60, 66
2, 310727, Note_on_c, 0, 56, 49
2, 310758, Note_on_c, 0, 53, 29
2, 310920, Note_on_c, 0, 53, 0
2, 310940, Note_on_c, 0, 60, 0
2, 311130, Note_on_c, 0, 56, 0
2, 311674, Note_on_c, 0, 60, 55
2, 311703, Note_on_c, 0, 63, 36
2, 311761, Note_on_c, 0, 56, 44
2, 311809, Note_on_c, 0, 63, 0
2, 311919, Note_on_c, 0, 60, 0
2, 312037, Note_on_c, 0, 68, 84
2, 312135, Note_on_c, 0, 56, 0
2, 312743, Note_on_c, 0, 60, 27
2, 312878, Note_on_c, 0, 60, 0
2, 313497, Note_on_c, 0, 65, 77
2, 313517, Note_on_c, 0, 56, 58
2, 313618, Note_on_c, 0, 53, 30
2, 313797, Note_on_c, 0, 53, 0
2, 313831, Note_on_c, 0, 68, 0
2, 313857, Note_on_c, 0, 56, 0
2, 314065, Note_on_c, 0, 60, 26
2, 314401, Note_on_c, 0, 60, 0
2, 314517, Note_on_c, 0, 65, 0
2, 314617, Note_on_c, 0, 52, 61
2, 314669, Note_on_c, 0, 58, 49
2, 314816, Note_on_c, 0, 58, 0
2, 314900, Note_on_c, 0, 52, 0
2, 316452, Note_on_c, 0, 64, 55
2, 316458, Note_on_c, 0, 58, 68
2, 316691, Note_on_c, 0, 64, 0
2, 316818, Note_on_c, 0, 58, 0
2, 318831, Note_on_c, 0, 58, 74
2, 318834, Note_on_c, 0, 64, 75
2, 318837, Note_on_c, 0, 75, 79
2, 318851, Note_on_c, 0, 72, 74
2, 318912, Note_on_c, 0, 70, 38
2, 319018, Note_on_c, 0, 70, 0
2, 319105, Note_on_c, 0, 72, 0
2, 319116, Note_on_c, 0, 64, 0
2, 319182, Note_on_c, 0, 75, 0
2, 319269, Note_on_c, 0, 58, 0
2, 319346, Note_on_c, 0, 75, 33
2, 319372, Note_on_c, 0, 72, 43
2, 319401, Note_on_c, 0, 58, 28
2, 319413, Note_on_c, 0, 64, 44
2, 319649, Note_on_c, 0, 75, 0
2, 319672, Note_on_c, 0, 72, 0
2, 319729, Note_on_c, 0, 66, 36
2, 319879, Note_on_c, 0, 73, 26
2, 319899, Note_on_c, 0, 70, 35
2, 320081, Note_on_c, 0, 66, 0
2, 320248, Note_on_c, 0, 70, 0
2, 320277, Note_on_c, 0, 64, 0
2, 320297, Note_on_c, 0, 73, 0
2, 320403, Note_on_c, 0, 58, 0
2, 320737, Note_on_c, 0, 75, 69
2, 320752, Note_on_c, 0, 72, 68
2, 320755, Note_on_c, 0, 64, 65
2, 320755, Note_on_c, 0, 68, 63
2, 320775, Note_on_c, 0, 58, 67
2, 321158, Note_on_c, 0, 75, 0
2, 321239, Note_on_c, 0, 68, 0
2, 321247, Note_on_c, 0, 64, 0
2, 321325, Note_on_c, 0, 58, 0
2, 321409, Note_on_c, 0, 72, 0
2, 321688, Note_on_c, 0, 64, 49
2, 321694, Note_on_c, 0, 73, 40
2, 321702, Note_on_c, 0, 66, 56
2, 321717, Note_on_c, 0, 70, 51
2, 321720, Note_on_c, 0, 58, 54
2, 321936, Note_on_c, 0, 66, 0
2, 322025, Note_on_c, 0, 64, 0
2, 322100, Note_on_c, 0, 70, 0
2, 322131, Note_on_c, 0, 73, 0
2, 322134, Note_on_c, 0, 58, 0
2, 322630, Note_on_c, 0, 75, 67
2, 322638, Note_on_c, 0, 63, 59
2, 322644, Note_on_c, 0, 68, 67
2, 322653, Note_on_c, 0, 72, 62
2, 322656, Note_on_c, 0, 60, 55
2, 323027, Note_on_c, 0, 68, 0
2, 323128, Note_on_c, 0, 72, 0
2, 323186, Note_on_c, 0, 63, 0
2, 323223, Note_on_c, 0, 75, 0
2, 323482, Note_on_c, 0, 73, 47
2, 323543, Note_on_c, 0, 65, 40
2, 323672, Note_on_c, 0, 65, 0
2, 323707, Note_on_c, 0, 60, 0
2, 323923, Note_on_c, 0, 73, 0
2, 324110, Note_on_c, 0, 68, 65
2, 324116, Note_on_c, 0, 72, 60
2, 324133, Note_on_c, 0, 63, 55
2, 324136, Note_on_c, 0, 75, 52
2, 324150, Note_on_c, 0, 60, 44
2, 324240, Note_on_c, 0, 56, 33
2, 324309, Note_on_c, 0, 68, 0
2, 324361, Note_on_c, 0, 63, 0
2, 324430, Note_on_c, 0, 72, 0
2, 324461, Note_on_c, 0, 75, 0
2, 324464, Note_on_c, 0, 60, 0
2, 324562, Note_on_c, 0, 56, 0
2, 325066, Note_on_c, 0, 63, 63
2, 325081, Note_on_c, 0, 67, 60
2, 325086, Note_on_c, 0, 56, 60
2, 325101, Note_on_c, 0, 60, 47
2, 325135, Note_on_c, 0, 65, 50
2, 325230, Note_on_c, 0, 67, 0
2, 325250, Note_on_c, 0, 60, 0
2, 325262, Note_on_c, 0, 65, 0
2, 325288, Note_on_c, 0, 63, 0
2, 325343, Note_on_c, 0, 56, 0
2, 325907, Note_on_c, 0, 72, 79
2, 325910, Note_on_c, 0, 79, 80
2, 325913, Note_on_c, 0, 75, 69
2, 325916, Note_on_c, 0, 67, 82
2, 325953, Note_on_c, 0, 63, 74
2, 325970, Note_on_c, 0, 69, 62
2, 325973, Note_on_c, 0, 56, 64
2, 325976, Note_on_c, 0, 60, 58
2, 326071, Note_on_c, 0, 69, 0
2, 326397, Note_on_c, 0, 56, 0
2, 326469, Note_on_c, 0, 60, 0
2, 326492, Note_on_c, 0, 72, 0
2, 326541, Note_on_c, 0, 67, 0
2, 326544, Note_on_c, 0, 63, 0
2, 326555, Note_on_c, 0, 79, 0
2, 326598, Note_on_c, 0, 75, 0
2, 326883, Note_on_c, 0, 79, 66
2, 326915, Note_on_c, 0, 67, 64
2, 326930, Note_on_c, 0, 63, 64
2, 326932, Note_on_c, 0, 75, 51
2, 326947, Note_on_c, 0, 72, 58
2, 326950, Note_on_c, 0, 56, 60
2, 326967, Note_on_c, 0, 60, 55
2, 327065, Note_on_c, 0, 67, 0
2, 327114, Note_on_c, 0, 79, 0
2, 327347, Note_on_c, 0, 77, 40
2, 327353, Note_on_c, 0, 65, 45
2, 327811, Note_on_c, 0, 65, 0
2, 327854, Note_on_c, 0, 77, 0
2, 327900, Note_on_c, 0, 56, 0
2, 327955, Note_on_c, 0, 72, 0
2, 327986, Note_on_c, 0, 75, 0
2, 328030, Note_on_c, 0, 60, 0
2, 328061, Note_on_c, 0, 63, 0
2, 328274, Note_on_c, 0, 63, 59
2, 328321, Note_on_c, 0, 79, 71
2, 328323, Note_on_c, 0, 60, 45
2, 328326, Note_on_c, 0, 75, 58
2, 328329, Note_on_c, 0, 56, 61
2, 328332, Note_on_c, 0, 72, 66
2, 328332, Note_on_c, 0, 67, 80
2, 328781, Note_on_c, 0, 79, 0
2, 328793, Note_on_c, 0, 56, 0
2, 328807, Note_on_c, 0, 67, 0
2, 328865, Note_on_c, 0, 72, 0
2, 328934, Note_on_c, 0, 75, 0
2, 328971, Note_on_c, 0, 60, 0
2, 329104, Note_on_c, 0, 63, 0
2, 329251, Note_on_c, 0, 56, 59
2, 329280, Note_on_c, 0, 63, 19
2, 329311, Note_on_c, 0, 77, 55
2, 329340, Note_on_c, 0, 72, 49
2, 329357, Note_on_c, 0, 75, 32
2, 329360, Note_on_c, 0, 65, 34
2, 329392, Note_on_c, 0, 58, 23
2, 329421, Note_on_c, 0, 63, 0
2, 329513, Note_on_c, 0, 65, 0
2, 329533, Note_on_c, 0, 56, 0
2, 329533, Note_on_c, 0, 58, 0
2, 329576, Note_on_c, 0, 77, 0
2, 329637, Note_on_c, 0, 72, 0
2, 329677, Note_on_c, 0, 75, 0
2, 330259, Note_on_c, 0, 73, 58
2, 330262, Note_on_c, 0, 80, 78
2, 330265, Note_on_c, 0, 68, 74
2, 330285, Note_on_c, 0, 56, 74
2, 330296, Note_on_c, 0, 67, 74
2, 330311, Note_on_c, 0, 62, 69
2, 330478, Note_on_c, 0, 73, 0
2, 330771, Note_on_c, 0, 68, 0
2, 330809, Note_on_c, 0, 67, 0
2, 330872, Note_on_c, 0, 80, 0
2, 330890, Note_on_c, 0, 56, 0
2, 330918, Note_on_c, 0, 62, 0
2, 331137, Note_on_c, 0, 78, 42
2, 331169, Note_on_c, 0, 56, 31
2, 331175, Note_on_c, 0, 62, 47
2, 331218, Note_on_c, 0, 67, 30
2, 331345, Note_on_c, 0, 67, 0
2, 331396, Note_on_c, 0, 56, 0
2, 331428, Note_on_c, 0, 78, 0
2, 331463, Note_on_c, 0, 62, 0
2, 331742, Note_on_c, 0, 62, 66
2, 331762, Note_on_c, 0, 70, 79
2, 331771, Note_on_c, 0, 56, 68
2, 331774, Note_on_c, 0, 66, 71
2, 331779, Note_on_c, 0, 82, 71
2, 331811, Note_on_c, 0, 75, 46
2, 332082, Note_on_c, 0, 70, 0
2, 332085, Note_on_c, 0, 66, 0
2, 332114, Note_on_c, 0, 82, 0
2, 332160, Note_on_c, 0, 56, 0
2, 332174, Note_on_c, 0, 75, 0
2, 332186, Note_on_c, 0, 62, 0
2, 333093, Note_on_c, 0, 56, 85
2, 333096, Note_on_c, 0, 66, 87
2, 333119, Note_on_c, 0, 62, 74
2, 333214, Note_on_c, 0, 62, 0
2, 333352, Note_on_c, 0, 62, 32
2, 334259, Note_on_c, 0, 66, 0
2, 334291, Note_on_c, 0, 56, 0
2, 334423, Note_on_c, 0, 62, 0
2, 334585, Note_on_c, 0, 85, 86
2, 334590, Note_on_c, 0, 66, 73
2, 334593, Note_on_c, 0, 78, 86
2, 334599, Note_on_c, 0, 82, 82
2, 334631, Note_on_c, 0, 62, 64
2, 334634, Note_on_c, 0, 56, 71
2, 335014, Note_on_c, 0, 78, 0
2, 335195, Note_on_c, 0, 62, 0
2, 335319, Note_on_c, 0, 85, 0
2, 335331, Note_on_c, 0, 82, 0
2, 335400, Note_on_c, 0, 56, 0
2, 335538, Note_on_c, 0, 75, 59
2, 335544, Note_on_c, 0, 62, 65
2, 335624, Note_on_c, 0, 84, 44
2, 335647, Note_on_c, 0, 80, 30
2, 335679, Note_on_c, 0, 66, 0
2, 335840, Note_on_c, 0, 75, 0
2, 335843, Note_on_c, 0, 84, 0
2, 335907, Note_on_c, 0, 80, 0
2, 335999, Note_on_c, 0, 62, 0
2, 336137, Note_on_c, 0, 85, 81
2, 336151, Note_on_c, 0, 82, 80
2, 336163, Note_on_c, 0, 66, 79
2, 336169, Note_on_c, 0, 78, 73
2, 336172, Note_on_c, 0, 56, 78
2, 336186, Note_on_c, 0, 62, 76
2, 336690, Note_on_c, 0, 66, 0
2, 336750, Note_on_c, 0, 78, 0
2, 336889, Note_on_c, 0, 82, 0
2, 336892, Note_on_c, 0, 85, 0
2, 336969, Note_on_c, 0, 66, 49
2, 337001, Note_on_c, 0, 75, 59
2, 337053, Note_on_c, 0, 84, 57
2, 337053, Note_on_c, 0, 80, 52
2, 337165, Note_on_c, 0, 62, 0
2, 337211, Note_on_c, 0, 66, 0
2, 337246, Note_on_c, 0, 75, 0
2, 337321, Note_on_c, 0, 80, 0
2, 337344, Note_on_c, 0, 84, 0
2, 337404, Note_on_c, 0, 56, 0
2, 339383, Note_on_c, 0, 63, 67
2, 339406, Note_on_c, 0, 55, 53
2, 339440, Note_on_c, 0, 65, 62
2, 339452, Note_on_c, 0, 59, 57
2, 340987, Note_on_c, 0, 65, 0
2, 341036, Note_on_c, 0, 55, 0
2, 341053, Note_on_c, 0, 59, 0
2, 341122, Note_on_c, 0, 63, 0
2, 341318, Note_on_c, 0, 63, 64
2, 341341, Note_on_c, 0, 55, 39
2, 341358, Note_on_c, 0, 65, 68
2, 341387, Note_on_c, 0, 59, 48
2, 342268, Note_on_c, 0, 91, 76
2, 342312, Note_on_c, 0, 79, 66
2, 342542, Note_on_c, 0, 79, 0
2, 342571, Note_on_c, 0, 91, 0
2, 342669, Note_on_c, 0, 65, 0
2, 342816, Note_on_c, 0, 90, 51
2, 342914, Note_on_c, 0, 63, 0
2, 342934, Note_on_c, 0, 59, 0
2, 343204, Note_on_c, 0, 63, 32
2, 343207, Note_on_c, 0, 65, 36
2, 343228, Note_on_c, 0, 90, 0
2, 343323, Note_on_c, 0, 59, 26
2, 343441, Note_on_c, 0, 65, 0
2, 343455, Note_on_c, 0, 83, 40
2, 343602, Note_on_c, 0, 83, 0
2, 343703, Note_on_c, 0, 63, 0
2, 343734, Note_on_c, 0, 59, 0
2, 343789, Note_on_c, 0, 89, 82
2, 344227, Note_on_c, 0, 63, 39
2, 344241, Note_on_c, 0, 89, 0
2, 344282, Note_on_c, 0, 65, 33
2, 344359, Note_on_c, 0, 83, 41
2, 344506, Note_on_c, 0, 83, 0
2, 344521, Note_on_c, 0, 65, 0
2, 344581, Note_on_c, 0, 55, 0
2, 344644, Note_on_c, 0, 63, 0
2, 344702, Note_on_c, 0, 87, 71
2, 345197, Note_on_c, 0, 87, 0
2, 345275, Note_on_c, 0, 82, 33
2, 345428, Note_on_c, 0, 82, 0
2, 345482, Note_on_c, 0, 67, 36
2, 345523, Note_on_c, 0, 63, 35
2, 345537, Note_on_c, 0, 58, 27
2, 345580, Note_on_c, 0, 62, 54
2, 345632, Note_on_c, 0, 86, 74
2, 346154, Note_on_c, 0, 85, 63
2, 346194, Note_on_c, 0, 86, 0
2, 346490, Note_on_c, 0, 85, 0
2, 346588, Note_on_c, 0, 67, 0
2, 346623, Note_on_c, 0, 84, 34
2, 346819, Note_on_c, 0, 63, 0
2, 346874, Note_on_c, 0, 62, 0
2, 346994, Note_on_c, 0, 84, 0
2, 347084, Note_on_c, 0, 67, 37
2, 347104, Note_on_c, 0, 79, 55
2, 347118, Note_on_c, 0, 63, 34
2, 347349, Note_on_c, 0, 79, 0
2, 347447, Note_on_c, 0, 67, 0
2, 347510, Note_on_c, 0, 63, 0
2, 347568, Note_on_c, 0, 75, 27
2, 348069, Note_on_c, 0, 67, 29
2, 348083, Note_on_c, 0, 63, 38
2, 348106, Note_on_c, 0, 75, 0
2, 348135, Note_on_c, 0, 71, 36
2, 348181, Note_on_c, 0, 62, 27
2, 348267, Note_on_c, 0, 67, 0
2, 348302, Note_on_c, 0, 71, 0
2, 348498, Note_on_c, 0, 63, 0
2, 348524, Note_on_c, 0, 77, 69
2, 348530, Note_on_c, 0, 62, 0
2, 348544, Note_on_c, 0, 74, 75
2, 348809, Note_on_c, 0, 74, 0
2, 348849, Note_on_c, 0, 77, 0
2, 349045, Note_on_c, 0, 74, 71
2, 349059, Note_on_c, 0, 77, 57
2, 349062, Note_on_c, 0, 67, 40
2, 349091, Note_on_c, 0, 63, 47
2, 349149, Note_on_c, 0, 62, 45
2, 349359, Note_on_c, 0, 67, 0
2, 349517, Note_on_c, 0, 74, 0
2, 349569, Note_on_c, 0, 62, 0
2, 349586, Note_on_c, 0, 77, 0
2, 349630, Note_on_c, 0, 63, 0
2, 349679, Note_on_c, 0, 58, 0
2, 349949, Note_on_c, 0, 58, 54
2, 349972, Note_on_c, 0, 72, 69
2, 350010, Note_on_c, 0, 63, 46
2, 350021, Note_on_c, 0, 67, 31
2, 350237, Note_on_c, 0, 72, 0
2, 350283, Note_on_c, 0, 67, 0
2, 350497, Note_on_c, 0, 63, 0
2, 350715, Note_on_c, 0, 58, 0
2, 350914, Note_on_c, 0, 58, 52
2, 350931, Note_on_c, 0, 67, 58
2, 350940, Note_on_c, 0, 63, 57
2, 350978, Note_on_c, 0, 62, 54
2, 351188, Note_on_c, 0, 67, 0
2, 351369, Note_on_c, 0, 74, 101
2, 351372, Note_on_c, 0, 77, 83
2, 351412, Note_on_c, 0, 62, 0
2, 351441, Note_on_c, 0, 63, 0
2, 351476, Note_on_c, 0, 58, 0
2, 351700, Note_on_c, 0, 74, 0
2, 351718, Note_on_c, 0, 77, 0
2, 351899, Note_on_c, 0, 67, 53
2, 351902, Note_on_c, 0, 58, 51
2, 351916, Note_on_c, 0, 63, 53
2, 351934, Note_on_c, 0, 77, 55
2, 351939, Note_on_c, 0, 74, 65
2, 351980, Note_on_c, 0, 62, 42
2, 352066, Note_on_c, 0, 67, 0
2, 352095, Note_on_c, 0, 62, 0
2, 352262, Note_on_c, 0, 77, 0
2, 352288, Note_on_c, 0, 63, 0
2, 352346, Note_on_c, 0, 58, 0
2, 352469, Note_on_c, 0, 72, 38
2, 352475, Note_on_c, 0, 74, 0
2, 352711, Note_on_c, 0, 72, 0
2, 352919, Note_on_c, 0, 77, 73
2, 352924, Note_on_c, 0, 74, 82
2, 352939, Note_on_c, 0, 63, 73
2, 352982, Note_on_c, 0, 60, 46
2, 353034, Note_on_c, 0, 57, 51
2, 353163, Note_on_c, 0, 55, 19
2, 353371, Note_on_c, 0, 74, 0
2, 353466, Note_on_c, 0, 77, 0
2, 353590, Note_on_c, 0, 60, 0
2, 353875, Note_on_c, 0, 60, 34
2, 353883, Note_on_c, 0, 74, 83
2, 353892, Note_on_c, 0, 77, 70
2, 354076, Note_on_c, 0, 63, 0
2, 354266, Note_on_c, 0, 74, 0
2, 354269, Note_on_c, 0, 77, 0
2, 354315, Note_on_c, 0, 72, 40
2, 354393, Note_on_c, 0, 55, 0
2, 354439, Note_on_c, 0, 75, 32
2, 354442, Note_on_c, 0, 60, 0
2, 354621, Note_on_c, 0, 57, 0
2, 354724, Note_on_c, 0, 63, 48
2, 354742, Note_on_c, 0, 72, 0
2, 354819, Note_on_c, 0, 75, 0
2, 354822, Note_on_c, 0, 55, 28
2, 354848, Note_on_c, 0, 60, 24
2, 354883, Note_on_c, 0, 77, 76
2, 354889, Note_on_c, 0, 74, 83
2, 354963, Note_on_c, 0, 63, 0
2, 355007, Note_on_c, 0, 55, 0
2, 355171, Note_on_c, 0, 74, 0
2, 355231, Note_on_c, 0, 77, 0
2, 355246, Note_on_c, 0, 60, 0
2, 355300, Note_on_c, 0, 74, 71
2, 355315, Note_on_c, 0, 77, 60
2, 355663, Note_on_c, 0, 63, 53
2, 355793, Note_on_c, 0, 60, 34
2, 355850, Note_on_c, 0, 63, 0
2, 355894, Note_on_c, 0, 57, 22
2, 355931, Note_on_c, 0, 77, 0
2, 355989, Note_on_c, 0, 74, 0
2, 356107, Note_on_c, 0, 77, 71
2, 356141, Note_on_c, 0, 72, 67
2, 356182, Note_on_c, 0, 75, 47
2, 356185, Note_on_c, 0, 74, 55
2, 356308, Note_on_c, 0, 74, 0
2, 356331, Note_on_c, 0, 57, 0
2, 356363, Note_on_c, 0, 72, 0
2, 356438, Note_on_c, 0, 60, 0
2, 356452, Note_on_c, 0, 77, 0
2, 356507, Note_on_c, 0, 75, 0
2, 357026, Note_on_c, 0, 63, 62
2, 357060, Note_on_c, 0, 60, 52
2, 357118, Note_on_c, 0, 57, 47
2, 357138, Note_on_c, 0, 55, 33
2, 357388, Note_on_c, 0, 63, 0
2, 357890, Note_on_c, 0, 55, 0
2, 358080, Note_on_c, 0, 57, 0
2, 358085, Note_on_c, 0, 60, 0
2, 358555, Note_on_c, 0, 63, 72
2, 358575, Note_on_c, 0, 60, 62
2, 358635, Note_on_c, 0, 57, 41
2, 358638, Note_on_c, 0, 55, 33
2, 358687, Note_on_c, 0, 58, 25
2, 358748, Note_on_c, 0, 63, 0
2, 358791, Note_on_c, 0, 55, 0
2, 359059, Note_on_c, 0, 73, 59
2, 359082, Note_on_c, 0, 78, 50
2, 359085, Note_on_c, 0, 66, 71
2, 359093, Note_on_c, 0, 75, 46
2, 359122, Note_on_c, 0, 68, 55
2, 359232, Note_on_c, 0, 73, 0
2, 359243, Note_on_c, 0, 60, 0
2, 359246, Note_on_c, 0, 58, 0
2, 359269, Note_on_c, 0, 66, 0
2, 359281, Note_on_c, 0, 57, 0
2, 359387, Note_on_c, 0, 68, 0
2, 359557, Note_on_c, 0, 78, 0
2, 359563, Note_on_c, 0, 67, 61
2, 359606, Note_on_c, 0, 55, 43
2, 359609, Note_on_c, 0, 72, 54
2, 359623, Note_on_c, 0, 79, 37
2, 359672, Note_on_c, 0, 60, 36
2, 359793, Note_on_c, 0, 79, 0
2, 359828, Note_on_c, 0, 67, 0
2, 359851, Note_on_c, 0, 72, 0
2, 359943, Note_on_c, 0, 75, 0
2, 359963, Note_on_c, 0, 60, 0
2, 359972, Note_on_c, 0, 55, 0
2, 360070, Note_on_c, 0, 67, 50
2, 360078, Note_on_c, 0, 75, 40
2, 360084, Note_on_c, 0, 79, 44
2, 360113, Note_on_c, 0, 72, 41
2, 360314, Note_on_c, 0, 79, 0
2, 360355, Note_on_c, 0, 67, 0
2, 360366, Note_on_c, 0, 72, 0
2, 360447, Note_on_c, 0, 75, 0
2, 360556, Note_on_c, 0, 79, 46
2, 360562, Note_on_c, 0, 67, 48
2, 360565, Note_on_c, 0, 75, 38
2, 360582, Note_on_c, 0, 72, 64
2, 360651, Note_on_c, 0, 77, 31
2, 360709, Note_on_c, 0, 67, 0
2, 360712, Note_on_c, 0, 79, 0
2, 360810, Note_on_c, 0, 77, 0
2, 360844, Note_on_c, 0, 54, 52
2, 360847, Note_on_c, 0, 60, 48
2, 360908, Note_on_c, 0, 62, 36
2, 360988, Note_on_c, 0, 66, 70
2, 361029, Note_on_c, 0, 62, 0
2, 361052, Note_on_c, 0, 78, 34
2, 361147, Note_on_c, 0, 60, 0
2, 361274, Note_on_c, 0, 54, 0
2, 361334, Note_on_c, 0, 66, 0
2, 361348, Note_on_c, 0, 72, 0
2, 361435, Note_on_c, 0, 78, 0
2, 361518, Note_on_c, 0, 67, 62
2, 361564, Note_on_c, 0, 72, 59
2, 361757, Note_on_c, 0, 67, 0
2, 361801, Note_on_c, 0, 72, 0
2, 361855, Note_on_c, 0, 75, 0
2, 361942, Note_on_c, 0, 67, 48
2, 361968, Note_on_c, 0, 75, 28
2, 361979, Note_on_c, 0, 79, 34
2, 362005, Note_on_c, 0, 72, 45
2, 362184, Note_on_c, 0, 79, 0
2, 362224, Note_on_c, 0, 67, 0
2, 362267, Note_on_c, 0, 72, 0
2, 362475, Note_on_c, 0, 72, 51
2, 362486, Note_on_c, 0, 67, 38
2, 362616, Note_on_c, 0, 60, 46
2, 362624, Note_on_c, 0, 67, 0
2, 362656, Note_on_c, 0, 54, 35
2, 362659, Note_on_c, 0, 62, 38
2, 362702, Note_on_c, 0, 72, 0
2, 362783, Note_on_c, 0, 62, 0
2, 362806, Note_on_c, 0, 75, 0
2, 362843, Note_on_c, 0, 54, 0
2, 362967, Note_on_c, 0, 73, 53
2, 362981, Note_on_c, 0, 80, 64
2, 363002, Note_on_c, 0, 68, 56
2, 363059, Note_on_c, 0, 60, 0
2, 363117, Note_on_c, 0, 78, 25
2, 363390, Note_on_c, 0, 73, 0
2, 363511, Note_on_c, 0, 68, 0
2, 363540, Note_on_c, 0, 60, 24
2, 363618, Note_on_c, 0, 80, 0
2, 363724, Note_on_c, 0, 78, 0
2, 363745, Note_on_c, 0, 60, 0
2, 363912, Note_on_c, 0, 81, 68
2, 363915, Note_on_c, 0, 74, 71
2, 363929, Note_on_c, 0, 69, 67
2, 363935, Note_on_c, 0, 77, 62
2, 364027, Note_on_c, 0, 79, 27
2, 364730, Note_on_c, 0, 60, 32
2, 364804, Note_on_c, 0, 69, 0
2, 364839, Note_on_c, 0, 74, 0
2, 364842, Note_on_c, 0, 77, 0
2, 364894, Note_on_c, 0, 60, 0
2, 364899, Note_on_c, 0, 79, 0
2, 364931, Note_on_c, 0, 81, 0
2, 365406, Note_on_c, 0, 54, 59
2, 365421, Note_on_c, 0, 60, 59
2, 365435, Note_on_c, 0, 84, 82
2, 365441, Note_on_c, 0, 72, 76
2, 365450, Note_on_c, 0, 64, 62
2, 365712, Note_on_c, 0, 64, 0
2, 365804, Note_on_c, 0, 72, 0
2, 365890, Note_on_c, 0, 84, 0
2, 365899, Note_on_c, 0, 60, 0
2, 365928, Note_on_c, 0, 54, 0
2, 366288, Note_on_c, 0, 54, 67
2, 366299, Note_on_c, 0, 64, 69
2, 366302, Note_on_c, 0, 60, 59
2, 366334, Note_on_c, 0, 86, 71
2, 366339, Note_on_c, 0, 74, 78
2, 366383, Note_on_c, 0, 84, 55
2, 366403, Note_on_c, 0, 80, 33
2, 366532, Note_on_c, 0, 74, 0
2, 366544, Note_on_c, 0, 80, 0
2, 366555, Note_on_c, 0, 64, 0
2, 366558, Note_on_c, 0, 86, 0
2, 366607, Note_on_c, 0, 84, 0
2, 366688, Note_on_c, 0, 54, 0
2, 366728, Note_on_c, 0, 60, 0
2, 366861, Note_on_c, 0, 54, 64
2, 366875, Note_on_c, 0, 75, 73
2, 366881, Note_on_c, 0, 64, 63
2, 366890, Note_on_c, 0, 60, 54
2, 366892, Note_on_c, 0, 87, 78
2, 366950, Note_on_c, 0, 85, 50
2, 367388, Note_on_c, 0, 64, 0
2, 367402, Note_on_c, 0, 87, 0
2, 367445, Note_on_c, 0, 75, 0
2, 367489, Note_on_c, 0, 54, 0
2, 367497, Note_on_c, 0, 85, 0
2, 367500, Note_on_c, 0, 60, 0
2, 367739, Note_on_c, 0, 60, 62
2, 367751, Note_on_c, 0, 54, 59
2, 367762, Note_on_c, 0, 64, 70
2, 367797, Note_on_c, 0, 86, 71
2, 367800, Note_on_c, 0, 74, 73
2, 367826, Note_on_c, 0, 85, 46
2, 367927, Note_on_c, 0, 85, 0
2, 368042, Note_on_c, 0, 74, 0
2, 368102, Note_on_c, 0, 86, 0
2, 368105, Note_on_c, 0, 64, 0
2, 368165, Note_on_c, 0, 60, 0
2, 368177, Note_on_c, 0, 54, 0
2, 368640, Note_on_c, 0, 52, 57
2, 369489, Note_on_c, 0, 57, 53
2, 369503, Note_on_c, 0, 62, 55
2, 369508, Note_on_c, 0, 59, 50
2, 369686, Note_on_c, 0, 57, 0
2, 369780, Note_on_c, 0, 59, 0
2, 369867, Note_on_c, 0, 52, 0
2, 369875, Note_on_c, 0, 62, 0
2, 370046, Note_on_c, 0, 54, 55
2, 371442, Note_on_c, 0, 57, 62
2, 371462, Note_on_c, 0, 62, 62
2, 371470, Note_on_c, 0, 59, 56
2, 371647, Note_on_c, 0, 57, 0
2, 371700, Note_on_c, 0, 59, 0
2, 371828, Note_on_c, 0, 62, 0
2, 372454, Note_on_c, 0, 52, 57
2, 372601, Note_on_c, 0, 54, 0
2, 373398, Note_on_c, 0, 62, 78
2, 373400, Note_on_c, 0, 59, 77
2, 373413, Note_on_c, 0, 57, 78
2, 373940, Note_on_c, 0, 52, 0
2, 373986, Note_on_c, 0, 54, 77
2, 375095, Note_on_c, 0, 57, 0
2, 375146, Note_on_c, 0, 59, 0
2, 375195, Note_on_c, 0, 62, 0
2, 375392, Note_on_c, 0, 62, 66
2, 375394, Note_on_c, 0, 57, 66
2, 375407, Note_on_c, 0, 59, 63
2, 375571, Note_on_c, 0, 57, 0
2, 375640, Note_on_c, 0, 59, 0
2, 375781, Note_on_c, 0, 62, 0
2, 376322, Note_on_c, 0, 54, 0
2, 376414, Note_on_c, 0, 52, 73
2, 376668, Note_on_c, 0, 52, 0
2, 376860, Note_on_c, 0, 52, 35
2, 377289, Note_on_c, 0, 62, 68
2, 377307, Note_on_c, 0, 57, 62
2, 377312, Note_on_c, 0, 58, 61
2, 377481, Note_on_c, 0, 57, 0
2, 377611, Note_on_c, 0, 58, 0
2, 377724, Note_on_c, 0, 62, 0
2, 377797, Note_on_c, 0, 52, 0
2, 377822, Note_on_c, 0, 54, 79
2, 379250, Note_on_c, 0, 58, 59
2, 379255, Note_on_c, 0, 62, 58
2, 379255, Note_on_c, 0, 57, 53
2, 379416, Note_on_c, 0, 57, 0
2, 379475, Note_on_c, 0, 58, 0
2, 379575, Note_on_c, 0, 62, 0
2, 380239, Note_on_c, 0, 54, 0
2, 380249, Note_on_c, 0, 52, 65
2, 381142, Note_on_c, 0, 66, 77
2, 381147, Note_on_c, 0, 58, 82
2, 381155, Note_on_c, 0, 62, 80
2, 381157, Note_on_c, 0, 57, 80
2, 381721, Note_on_c, 0, 54, 87
2, 381752, Note_on_c, 0, 52, 0
2, 382775, Note_on_c, 0, 57, 0
2, 382831, Note_on_c, 0, 62, 0
2, 382870, Note_on_c, 0, 58, 0
2, 382952, Note_on_c, 0, 66, 0
2, 383080, Note_on_c, 0, 66, 49
2, 383082, Note_on_c, 0, 58, 64
2, 383113, Note_on_c, 0, 57, 66
2, 383121, Note_on_c, 0, 62, 62
2, 383203, Note_on_c, 0, 57, 0
2, 383366, Note_on_c, 0, 58, 0
2, 383441, Note_on_c, 0, 62, 0
2, 383469, Note_on_c, 0, 66, 0
2, 384013, Note_on_c, 0, 54, 0
2, 384056, Note_on_c, 0, 52, 69
2, 384974, Note_on_c, 0, 57, 46
2, 384987, Note_on_c, 0, 62, 58
2, 384989, Note_on_c, 0, 59, 52
2, 385117, Note_on_c, 0, 57, 0
2, 385199, Note_on_c, 0, 59, 0
2, 385312, Note_on_c, 0, 62, 0
2, 385461, Note_on_c, 0, 52, 0
2, 385589, Note_on_c, 0, 54, 83
2, 386871, Note_on_c, 0, 57, 44
2, 386881, Note_on_c, 0, 62, 58
2, 386886, Note_on_c, 0, 59, 51
2, 387017, Note_on_c, 0, 57, 0
2, 387066, Note_on_c, 0, 59, 0
2, 387155, Note_on_c, 0, 62, 0
2, 387778, Note_on_c, 0, 54, 0
2, 387850, Note_on_c, 0, 52, 61
2, 388809, Note_on_c, 0, 62, 73
2, 388822, Note_on_c, 0, 59, 69
2, 388835, Note_on_c, 0, 57, 68
2, 389342, Note_on_c, 0, 52, 0
2, 389365, Note_on_c, 0, 54, 83
2, 390406, Note_on_c, 0, 57, 0
2, 390563, Note_on_c, 0, 59, 0
2, 390619, Note_on_c, 0, 62, 0
2, 390795, Note_on_c, 0, 57, 58
2, 390798, Note_on_c, 0, 59, 64
2, 390801, Note_on_c, 0, 62, 64
2, 390987, Note_on_c, 0, 57, 0
2, 390998, Note_on_c, 0, 59, 0
2, 391151, Note_on_c, 0, 62, 0
2, 391370, Note_on_c, 0, 54, 0
2, 391771, Note_on_c, 0, 52, 71
2, 392646, Note_on_c, 0, 56, 38
2, 392667, Note_on_c, 0, 62, 50
2, 392669, Note_on_c, 0, 60, 42
2, 392777, Note_on_c, 0, 56, 0
2, 392782, Note_on_c, 0, 60, 0
2, 392905, Note_on_c, 0, 62, 0
2, 393246, Note_on_c, 0, 54, 83
2, 393254, Note_on_c, 0, 52, 0
2, 394566, Note_on_c, 0, 56, 54
2, 394594, Note_on_c, 0, 62, 60
2, 394607, Note_on_c, 0, 60, 45
2, 394705, Note_on_c, 0, 60, 0
2, 394725, Note_on_c, 0, 56, 0
2, 394874, Note_on_c, 0, 62, 0
2, 395491, Note_on_c, 0, 54, 0
2, 395568, Note_on_c, 0, 52, 46
2, 396458, Note_on_c, 0, 56, 60
2, 396481, Note_on_c, 0, 62, 73
2, 396527, Note_on_c, 0, 60, 47
2, 396991, Note_on_c, 0, 52, 0
2, 397025, Note_on_c, 0, 54, 87
2, 398050, Note_on_c, 0, 60, 0
2, 398074, Note_on_c, 0, 56, 0
2, 398112, Note_on_c, 0, 62, 0
2, 398360, Note_on_c, 0, 56, 64
2, 398376, Note_on_c, 0, 62, 55
2, 398406, Note_on_c, 0, 60, 53
2, 398506, Note_on_c, 0, 60, 0
2, 398552, Note_on_c, 0, 56, 0
2, 398670, Note_on_c, 0, 62, 0
2, 399247, Note_on_c, 0, 54, 0
2, 399342, Note_on_c, 0, 56, 84
2, 400280, Note_on_c, 0, 58, 50
2, 400288, Note_on_c, 0, 59, 42
2, 400301, Note_on_c, 0, 53, 46
2, 400303, Note_on_c, 0, 63, 42
2, 400467, Note_on_c, 0, 53, 0
2, 400580, Note_on_c, 0, 59, 0
2, 400603, Note_on_c, 0, 58, 0
2, 400664, Note_on_c, 0, 63, 0
2, 400770, Note_on_c, 0, 56, 0
2, 400785, Note_on_c, 0, 57, 83
2, 402205, Note_on_c, 0, 53, 50
2, 402213, Note_on_c, 0, 58, 52
2, 402221, Note_on_c, 0, 63, 42
2, 402244, Note_on_c, 0, 59, 57
2, 402474, Note_on_c, 0, 53, 0
2, 402546, Note_on_c, 0, 59, 0
2, 402589, Note_on_c, 0, 58, 0
2, 402625, Note_on_c, 0, 63, 0
2, 402921, Note_on_c, 0, 57, 0
2, 403153, Note_on_c, 0, 56, 69
2, 404100, Note_on_c, 0, 63, 62
2, 404110, Note_on_c, 0, 58, 59
2, 404120, Note_on_c, 0, 53, 60
2, 404130, Note_on_c, 0, 59, 56
2, 404666, Note_on_c, 0, 57, 83
2, 404789, Note_on_c, 0, 56, 0
2, 405682, Note_on_c, 0, 53, 0
2, 405802, Note_on_c, 0, 59, 0
2, 405810, Note_on_c, 0, 63, 0
2, 405843, Note_on_c, 0, 58, 0
2, 406089, Note_on_c, 0, 58, 68
2, 406112, Note_on_c, 0, 63, 59
2, 406114, Note_on_c, 0, 53, 64
2, 406130, Note_on_c, 0, 59, 67
2, 406225, Note_on_c, 0, 59, 0
2, 406242, Note_on_c, 0, 53, 0
2, 406509, Note_on_c, 0, 58, 0
2, 406532, Note_on_c, 0, 63, 0
2, 406597, Note_on_c, 0, 57, 0
2, 407083, Note_on_c, 0, 56, 83
2, 407963, Note_on_c, 0, 61, 60
2, 407978, Note_on_c, 0, 68, 42
2, 407996, Note_on_c, 0, 57, 48
2, 408011, Note_on_c, 0, 64, 55
2, 408109, Note_on_c, 0, 57, 0
2, 408145, Note_on_c, 0, 68, 0
2, 408216, Note_on_c, 0, 64, 0
2, 408226, Note_on_c, 0, 61, 0
2, 408404, Note_on_c, 0, 56, 0
2, 408537, Note_on_c, 0, 57, 87
2, 409942, Note_on_c, 0, 61, 57
2, 409944, Note_on_c, 0, 64, 59
2, 409947, Note_on_c, 0, 68, 47
2, 409949, Note_on_c, 0, 57, 59
2, 410106, Note_on_c, 0, 57, 0
2, 410274, Note_on_c, 0, 68, 0
2, 410280, Note_on_c, 0, 61, 0
2, 410313, Note_on_c, 0, 64, 0
2, 410662, Note_on_c, 0, 57, 0
2, 410905, Note_on_c, 0, 56, 81
2, 411875, Note_on_c, 0, 68, 60
2, 411880, Note_on_c, 0, 64, 71
2, 411882, Note_on_c, 0, 61, 64
2, 411885, Note_on_c, 0, 57, 72
2, 412006, Note_on_c, 0, 56, 0
2, 412323, Note_on_c, 0, 57, 85
2, 413436, Note_on_c, 0, 57, 0
2, 413503, Note_on_c, 0, 68, 0
2, 413551, Note_on_c, 0, 61, 0
2, 413605, Note_on_c, 0, 64, 0
2, 413777, Note_on_c, 0, 61, 59
2, 413792, Note_on_c, 0, 68, 60
2, 413795, Note_on_c, 0, 57, 65
2, 413797, Note_on_c, 0, 64, 64
2, 413969, Note_on_c, 0, 57, 0
2, 414033, Note_on_c, 0, 64, 0
2, 414135, Note_on_c, 0, 68, 0
2, 414209, Note_on_c, 0, 61, 0
2, 414236, Note_on_c, 0, 57, 0
2, 414760, Note_on_c, 0, 56, 91
2, 415709, Note_on_c, 0, 58, 75
2, 415748, Note_on_c, 0, 61, 50
2, 415773, Note_on_c, 0, 63, 32
2, 415840, Note_on_c, 0, 61, 0
2, 415878, Note_on_c, 0, 63, 0
2, 415881, Note_on_c, 0, 58, 0
2, 416133, Note_on_c, 0, 56, 0
2, 416189, Note_on_c, 0, 57, 65
2, 417660, Note_on_c, 0, 54, 63
2, 417675, Note_on_c, 0, 61, 56
2, 417681, Note_on_c, 0, 57, 63
2, 417844, Note_on_c, 0, 54, 0
2, 417896, Note_on_c, 0, 57, 0
2, 417996, Note_on_c, 0, 61, 0
2, 418501, Note_on_c, 0, 57, 0
2, 418639, Note_on_c, 0, 56, 69
2, 419503, Note_on_c, 0, 54, 72
2, 419508, Note_on_c, 0, 61, 57
2, 419529, Note_on_c, 0, 57, 68
2, 419555, Note_on_c, 0, 66, 52
2, 419985, Note_on_c, 0, 56, 0
2, 420131, Note_on_c, 0, 57, 84
2, 420801, Note_on_c, 0, 66, 0
2, 420988, Note_on_c, 0, 57, 0
2, 420998, Note_on_c, 0, 54, 0
2, 421185, Note_on_c, 0, 61, 0
2, 421347, Note_on_c, 0, 54, 68
2, 421359, Note_on_c, 0, 61, 43
2, 421385, Note_on_c, 0, 66, 42
2, 421390, Note_on_c, 0, 57, 57
2, 421495, Note_on_c, 0, 66, 0
2, 421508, Note_on_c, 0, 57, 0
2, 421544, Note_on_c, 0, 54, 0
2, 421769, Note_on_c, 0, 61, 0
2, 421908, Note_on_c, 0, 57, 0
2, 422387, Note_on_c, 0, 56, 63
2, 423346, Note_on_c, 0, 63, 57
2, 423371, Note_on_c, 0, 57, 63
2, 423377, Note_on_c, 0, 54, 45
2, 423392, Note_on_c, 0, 60, 50
2, 423474, Note_on_c, 0, 54, 0
2, 423563, Note_on_c, 0, 57, 0
2, 423697, Note_on_c, 0, 60, 0
2, 423736, Note_on_c, 0, 56, 0
2, 423768, Note_on_c, 0, 63, 0
2, 423864, Note_on_c, 0, 57, 87
2, 424933, Note_on_c, 0, 63, 64
2, 424938, Note_on_c, 0, 54, 62
2, 424951, Note_on_c, 0, 57, 67
2, 424979, Note_on_c, 0, 60, 55
2, 425074, Note_on_c, 0, 60, 0
2, 425084, Note_on_c, 0, 57, 0
2, 425105, Note_on_c, 0, 54, 0
2, 425153, Note_on_c, 0, 63, 0
2, 426129, Note_on_c, 0, 57, 0
2, 426263, Note_on_c, 0, 56, 59
2, 427214, Note_on_c, 0, 63, 74
2, 427217, Note_on_c, 0, 54, 79
2, 427234, Note_on_c, 0, 57, 71
2, 427250, Note_on_c, 0, 60, 54
2, 427671, Note_on_c, 0, 57, 71
2, 427758, Note_on_c, 0, 56, 0
2, 428847, Note_on_c, 0, 54, 0
2, 428924, Note_on_c, 0, 57, 0
2, 428942, Note_on_c, 0, 60, 0
2, 428955, Note_on_c, 0, 63, 0
2, 429083, Note_on_c, 0, 54, 61
2, 429111, Note_on_c, 0, 63, 52
2, 429114, Note_on_c, 0, 57, 60
2, 429142, Note_on_c, 0, 60, 61
2, 429216, Note_on_c, 0, 57, 0
2, 429231, Note_on_c, 0, 60, 0
2, 429272, Note_on_c, 0, 54, 0
2, 429403, Note_on_c, 0, 63, 0
2, 429923, Note_on_c, 0, 57, 0
2, 430080, Note_on_c, 0, 58, 92
2, 431036, Note_on_c, 0, 60, 65
2, 431044, Note_on_c, 0, 63, 56
2, 431351, Note_on_c, 0, 63, 0
2, 431369, Note_on_c, 0, 60, 0
2, 431375, Note_on_c, 0, 58, 0
2, 431608, Note_on_c, 0, 60, 74
2, 431636, Note_on_c, 0, 56, 84
2, 432572, Note_on_c, 0, 63, 70
2, 432582, Note_on_c, 0, 58, 74
2, 432595, Note_on_c, 0, 60, 68
2, 433030, Note_on_c, 0, 58, 0
2, 433046, Note_on_c, 0, 60, 0
2, 433076, Note_on_c, 0, 63, 0
2, 433820, Note_on_c, 0, 56, 0
2, 433825, Note_on_c, 0, 60, 0
2, 433940, Note_on_c, 0, 58, 79
2, 434886, Note_on_c, 0, 58, 86
2, 434889, Note_on_c, 0, 63, 80
2, 434902, Note_on_c, 0, 60, 74
2, 435261, Note_on_c, 0, 58, 0
2, 435438, Note_on_c, 0, 56, 80
2, 435443, Note_on_c, 0, 60, 72
2, 436113, Note_on_c, 0, 58, 0
2, 436138, Note_on_c, 0, 60, 0
2, 436148, Note_on_c, 0, 63, 0
2, 436351, Note_on_c, 0, 63, 68
2, 436356, Note_on_c, 0, 58, 80
2, 436369, Note_on_c, 0, 60, 66
2, 436724, Note_on_c, 0, 58, 0
2, 436783, Note_on_c, 0, 60, 0
2, 436855, Note_on_c, 0, 63, 0
2, 437496, Note_on_c, 0, 56, 0
2, 437570, Note_on_c, 0, 60, 0
2, 437675, Note_on_c, 0, 58, 70
2, 437721, Note_on_c, 0, 52, 62
2, 438683, Note_on_c, 0, 63, 60
2, 438685, Note_on_c, 0, 60, 58
2, 438706, Note_on_c, 0, 58, 59
2, 438873, Note_on_c, 0, 52, 0
2, 439054, Note_on_c, 0, 58, 0
2, 439095, Note_on_c, 0, 60, 0
2, 439142, Note_on_c, 0, 58, 0
2, 439172, Note_on_c, 0, 63, 0
2, 439224, Note_on_c, 0, 52, 74
2, 439232, Note_on_c, 0, 60, 72
2, 440178, Note_on_c, 0, 63, 65
2, 440221, Note_on_c, 0, 58, 62
2, 440232, Note_on_c, 0, 52, 47
2, 440244, Note_on_c, 0, 60, 51
2, 440347, Note_on_c, 0, 52, 0
2, 440452, Note_on_c, 0, 58, 0
2, 440454, Note_on_c, 0, 60, 0
2, 440490, Note_on_c, 0, 63, 0
2, 441103, Note_on_c, 0, 52, 0
2, 441149, Note_on_c, 0, 60, 0
2, 441566, Note_on_c, 0, 52, 59
2, 441577, Note_on_c, 0, 58, 71
2, 442515, Note_on_c, 0, 63, 73
2, 442525, Note_on_c, 0, 52, 78
2, 442533, Note_on_c, 0, 60, 65
2, 442536, Note_on_c, 0, 58, 69
2, 442859, Note_on_c, 0, 52, 0
2, 442974, Note_on_c, 0, 58, 0
2, 443112, Note_on_c, 0, 54, 80
2, 443128, Note_on_c, 0, 60, 67
2, 443200, Note_on_c, 0, 58, 30
2, 443289, Note_on_c, 0, 58, 0
2, 444064, Note_on_c, 0, 52, 0
2, 444149, Note_on_c, 0, 60, 0
2, 444161, Note_on_c, 0, 63, 0
2, 444182, Note_on_c, 0, 58, 0
2, 444471, Note_on_c, 0, 63, 64
2, 444479, Note_on_c, 0, 52, 69
2, 444484, Note_on_c, 0, 58, 63
2, 444532, Note_on_c, 0, 60, 42
2, 444568, Note_on_c, 0, 52, 0
2, 444643, Note_on_c, 0, 60, 0
2, 444717, Note_on_c, 0, 58, 0
2, 444784, Note_on_c, 0, 54, 0
2, 444796, Note_on_c, 0, 63, 0
2, 445148, Note_on_c, 0, 60, 0
2, 445463, Note_on_c, 0, 53, 75
2, 445468, Note_on_c, 0, 58, 81
2, 446399, Note_on_c, 0, 56, 72
2, 446427, Note_on_c, 0, 60, 58
2, 446429, Note_on_c, 0, 67, 58
2, 446447, Note_on_c, 0, 63, 48
2, 446570, Note_on_c, 0, 56, 0
2, 446614, Note_on_c, 0, 60, 0
2, 446678, Note_on_c, 0, 67, 0
2, 446737, Note_on_c, 0, 63, 0
2, 446796, Note_on_c, 0, 53, 0
2, 446822, Note_on_c, 0, 58, 0
2, 446953, Note_on_c, 0, 56, 78
2, 446955, Note_on_c, 0, 60, 74
2, 448303, Note_on_c, 0, 56, 69
2, 448329, Note_on_c, 0, 60, 57
2, 448355, Note_on_c, 0, 63, 50
2, 448362, Note_on_c, 0, 67, 34
2, 448406, Note_on_c, 0, 56, 0
2, 448416, Note_on_c, 0, 60, 0
2, 448493, Note_on_c, 0, 67, 0
2, 448652, Note_on_c, 0, 63, 0
2, 449088, Note_on_c, 0, 60, 0
2, 449136, Note_on_c, 0, 56, 0
2, 449280, Note_on_c, 0, 53, 69
2, 449282, Note_on_c, 0, 58, 76
2, 450264, Note_on_c, 0, 56, 69
2, 450269, Note_on_c, 0, 63, 70
2, 450290, Note_on_c, 0, 60, 60
2, 450672, Note_on_c, 0, 53, 0
2, 450759, Note_on_c, 0, 58, 0
2, 450859, Note_on_c, 0, 56, 78
2, 450864, Note_on_c, 0, 60, 69
2, 450956, Note_on_c, 0, 58, 30
2, 451046, Note_on_c, 0, 58, 0
2, 451475, Note_on_c, 0, 56, 0
2, 451526, Note_on_c, 0, 60, 0
2, 451578, Note_on_c, 0, 63, 0
2, 451780, Note_on_c, 0, 56, 74
2, 451782, Note_on_c, 0, 63, 67
2, 451790, Note_on_c, 0, 60, 56
2, 452131, Note_on_c, 0, 56, 0
2, 452169, Note_on_c, 0, 60, 0
2, 452253, Note_on_c, 0, 63, 0
2, 452584, Note_on_c, 0, 60, 0
2, 452605, Note_on_c, 0, 56, 0
2, 453084, Note_on_c, 0, 58, 75
2, 453143, Note_on_c, 0, 53, 60
2, 453158, Note_on_c, 0, 56, 53
2, 454010, Note_on_c, 0, 62, 65
2, 454025, Note_on_c, 0, 53, 53
2, 454038, Note_on_c, 0, 56, 59
2, 454048, Note_on_c, 0, 58, 59
2, 454191, Note_on_c, 0, 53, 0
2, 454299, Note_on_c, 0, 62, 0
2, 454304, Note_on_c, 0, 56, 0
2, 454360, Note_on_c, 0, 58, 0
2, 454400, Note_on_c, 0, 56, 0
2, 454425, Note_on_c, 0, 53, 0
2, 454545, Note_on_c, 0, 58, 0
2, 454658, Note_on_c, 0, 56, 76
2, 454679, Note_on_c, 0, 60, 69
2, 455574, Note_on_c, 0, 62, 59
2, 455586, Note_on_c, 0, 56, 59
2, 455599, Note_on_c, 0, 53, 42
2, 455599, Note_on_c, 0, 58, 60
2, 455709, Note_on_c, 0, 53, 0
2, 455778, Note_on_c, 0, 62, 0
2, 455799, Note_on_c, 0, 56, 0
2, 455850, Note_on_c, 0, 58, 0
2, 456586, Note_on_c, 0, 60, 0
2, 456696, Note_on_c, 0, 56, 0
2, 456852, Note_on_c, 0, 58, 76
2, 456862, Note_on_c, 0, 53, 66
2, 457901, Note_on_c, 0, 56, 72
2, 457916, Note_on_c, 0, 65, 58
2, 457924, Note_on_c, 0, 60, 55
2, 457972, Note_on_c, 0, 62, 45
2, 458165, Note_on_c, 0, 53, 0
2, 458304, Note_on_c, 0, 58, 0
2, 458455, Note_on_c, 0, 56, 80
2, 458462, Note_on_c, 0, 60, 70
2, 458881, Note_on_c, 0, 56, 0
2, 458886, Note_on_c, 0, 65, 0
2, 458902, Note_on_c, 0, 60, 0
2, 458914, Note_on_c, 0, 62, 0
2, 459373, Note_on_c, 0, 56, 68
2, 459386, Note_on_c, 0, 60, 57
2, 459401, Note_on_c, 0, 65, 55
2, 459439, Note_on_c, 0, 62, 50
2, 459841, Note_on_c, 0, 62, 0
2, 459887, Note_on_c, 0, 56, 0
2, 459888, Note_on_c, 0, 60, 0
2, 459905, Note_on_c, 0, 65, 0
2, 459918, Note_on_c, 0, 60, 0
2, 460052, Note_on_c, 0, 56, 0
2, 460825, Note_on_c, 0, 55, 49
2, 460861, Note_on_c, 0, 59, 45
2, 460894, Note_on_c, 0, 61, 51
2, 460981, Note_on_c, 0, 59, 0
2, 461201, Note_on_c, 0, 61, 0
2, 461825, Note_on_c, 0, 63, 47
2, 461828, Note_on_c, 0, 58, 53
2, 461846, Note_on_c, 0, 59, 49
2, 461903, Note_on_c, 0, 55, 0
2, 461948, Note_on_c, 0, 61, 21
2, 461961, Note_on_c, 0, 59, 0
2, 462045, Note_on_c, 0, 61, 0
2, 462074, Note_on_c, 0, 58, 0
2, 462120, Note_on_c, 0, 63, 0
2, 462248, Note_on_c, 0, 63, 69
2, 462266, Note_on_c, 0, 55, 66
2, 462284, Note_on_c, 0, 59, 68
2, 463313, Note_on_c, 0, 63, 55
2, 463341, Note_on_c, 0, 58, 51
2, 463343, Note_on_c, 0, 53, 47
2, 463354, Note_on_c, 0, 59, 66
2, 463469, Note_on_c, 0, 53, 0
2, 463620, Note_on_c, 0, 59, 0
2, 463627, Note_on_c, 0, 58, 0
2, 463633, Note_on_c, 0, 63, 0
2, 464197, Note_on_c, 0, 59, 0
2, 464202, Note_on_c, 0, 55, 0
2, 464407, Note_on_c, 0, 63, 0
2, 464616, Note_on_c, 0, 55, 68
2, 464619, Note_on_c, 0, 62, 73
2, 464645, Note_on_c, 0, 59, 68
2, 465624, Note_on_c, 0, 63, 69
2, 465627, Note_on_c, 0, 58, 69
2, 465640, Note_on_c, 0, 53, 70
2, 465658, Note_on_c, 0, 59, 63
2, 465689, Note_on_c, 0, 62, 0
2, 465838, Note_on_c, 0, 55, 0
2, 465853, Note_on_c, 0, 59, 0
2, 466076, Note_on_c, 0, 63, 71
2, 466088, Note_on_c, 0, 55, 61
2, 466104, Note_on_c, 0, 59, 67
2, 466661, Note_on_c, 0, 53, 0
2, 466743, Note_on_c, 0, 63, 0
2, 466799, Note_on_c, 0, 59, 0
2, 466830, Note_on_c, 0, 58, 0
2, 467099, Note_on_c, 0, 58, 67
2, 467106, Note_on_c, 0, 63, 67
2, 467119, Note_on_c, 0, 53, 60
2, 467142, Note_on_c, 0, 59, 64
2, 467685, Note_on_c, 0, 53, 0
2, 467699, Note_on_c, 0, 59, 0
2, 467803, Note_on_c, 0, 59, 0
2, 467883, Note_on_c, 0, 55, 0
2, 467941, Note_on_c, 0, 58, 0
2, 468018, Note_on_c, 0, 63, 0
2, 468065, Note_on_c, 0, 63, 0
2, 468416, Note_on_c, 0, 62, 79
2, 468426, Note_on_c, 0, 58, 70
2, 468428, Note_on_c, 0, 55, 71
2, 469423, Note_on_c, 0, 58, 72
2, 469449, Note_on_c, 0, 62, 69
2, 469454, Note_on_c, 0, 63, 46
2, 469467, Note_on_c, 0, 67, 57
2, 469655, Note_on_c, 0, 55, 0
2, 469696, Note_on_c, 0, 58, 0
2, 469725, Note_on_c, 0, 58, 0
2, 469759, Note_on_c, 0, 62, 0
2, 469802, Note_on_c, 0, 67, 0
2, 469808, Note_on_c, 0, 62, 0
2, 469864, Note_on_c, 0, 63, 0
2, 469926, Note_on_c, 0, 63, 72
2, 469949, Note_on_c, 0, 58, 71
2, 469959, Note_on_c, 0, 55, 63
2, 471241, Note_on_c, 0, 58, 64
2, 471266, Note_on_c, 0, 62, 66
2, 471279, Note_on_c, 0, 63, 47
2, 471300, Note_on_c, 0, 67, 40
2, 471379, Note_on_c, 0, 58, 0
2, 471620, Note_on_c, 0, 67, 0
2, 471653, Note_on_c, 0, 62, 0
2, 471766, Note_on_c, 0, 63, 0
2, 472030, Note_on_c, 0, 55, 0
2, 472104, Note_on_c, 0, 63, 0
2, 472143, Note_on_c, 0, 58, 0
2, 472250, Note_on_c, 0, 55, 64
2, 472271, Note_on_c, 0, 62, 77
2, 472281, Note_on_c, 0, 58, 67
2, 473248, Note_on_c, 0, 58, 68
2, 473268, Note_on_c, 0, 62, 68
2, 473271, Note_on_c, 0, 63, 45
2, 473274, Note_on_c, 0, 67, 56
2, 473415, Note_on_c, 0, 55, 0
2, 473431, Note_on_c, 0, 58, 0
2, 473579, Note_on_c, 0, 62, 0
2, 473740, Note_on_c, 0, 63, 64
2, 473743, Note_on_c, 0, 58, 75
2, 473753, Note_on_c, 0, 55, 66
2, 473830, Note_on_c, 0, 62, 31
2, 473932, Note_on_c, 0, 62, 0
2, 474344, Note_on_c, 0, 62, 0
2, 474362, Note_on_c, 0, 58, 0
2, 474367, Note_on_c, 0, 67, 0
2, 474472, Note_on_c, 0, 63, 0
2, 474746, Note_on_c, 0, 58, 67
2, 474769, Note_on_c, 0, 62, 66
2, 474774, Note_on_c, 0, 67, 57
2, 474776, Note_on_c, 0, 63, 46
2, 475242, Note_on_c, 0, 62, 0
2, 475275, Note_on_c, 0, 67, 0
2, 475291, Note_on_c, 0, 58, 0
2, 475310, Note_on_c, 0, 58, 0
2, 475355, Note_on_c, 0, 63, 0
2, 475458, Note_on_c, 0, 63, 0
2, 475512, Note_on_c, 0, 55, 0
2, 476124, Note_on_c, 0, 62, 74
2, 476126, Note_on_c, 0, 55, 80
2, 477075, Note_on_c, 0, 63, 55
2, 477090, Note_on_c, 0, 60, 60
2, 477129, Note_on_c, 0, 55, 46
2, 477275, Note_on_c, 0, 55, 0
2, 477411, Note_on_c, 0, 55, 0
2, 477416, Note_on_c, 0, 60, 0
2, 477545, Note_on_c, 0, 62, 0
2, 477569, Note_on_c, 0, 63, 0
2, 477644, Note_on_c, 0, 55, 73
2, 477647, Note_on_c, 0, 63, 69
2, 478539, Note_on_c, 0, 55, 48
2, 478542, Note_on_c, 0, 60, 49
2, 478545, Note_on_c, 0, 63, 42
2, 478562, Note_on_c, 0, 62, 64
2, 478929, Note_on_c, 0, 55, 0
2, 479013, Note_on_c, 0, 62, 0
2, 479031, Note_on_c, 0, 60, 0
2, 479062, Note_on_c, 0, 63, 0
2, 479454, Note_on_c, 0, 55, 0
2, 479723, Note_on_c, 0, 63, 0
2, 479892, Note_on_c, 0, 55, 75
2, 479918, Note_on_c, 0, 62, 75
2, 480954, Note_on_c, 0, 60, 64
2, 480956, Note_on_c, 0, 63, 60
2, 480959, Note_on_c, 0, 55, 73
2, 480959, Note_on_c, 0, 62, 68
2, 481141, Note_on_c, 0, 55, 0
2, 481289, Note_on_c, 0, 55, 0
2, 481305, Note_on_c, 0, 62, 0
2, 481314, Note_on_c, 0, 62, 0
2, 481348, Note_on_c, 0, 60, 0
2, 481376, Note_on_c, 0, 63, 0
2, 481400, Note_on_c, 0, 55, 70
2, 481402, Note_on_c, 0, 63, 72
2, 482920, Note_on_c, 0, 63, 54
2, 482968, Note_on_c, 0, 60, 50
2, 482981, Note_on_c, 0, 57, 57
2, 482997, Note_on_c, 0, 55, 47
2, 483322, Note_on_c, 0, 55, 0
2, 483415, Note_on_c, 0, 60, 0
2, 483446, Note_on_c, 0, 63, 0
2, 483520, Note_on_c, 0, 55, 0
2, 483606, Note_on_c, 0, 57, 0
2, 483637, Note_on_c, 0, 63, 0
2, 483770, Note_on_c, 0, 54, 75
2, 483799, Note_on_c, 0, 62, 77
2, 484846, Note_on_c, 0, 63, 31
2, 484865, Note_on_c, 0, 55, 36
2, 484880, Note_on_c, 0, 57, 40
2, 484903, Note_on_c, 0, 60, 32
2, 484919, Note_on_c, 0, 57, 41
2, 484963, Note_on_c, 0, 60, 19
2, 485085, Note_on_c, 0, 60, 0
2, 485091, Note_on_c, 0, 60, 0
2, 485094, Note_on_c, 0, 57, 0
2, 485114, Note_on_c, 0, 55, 0
2, 485120, Note_on_c, 0, 63, 0
2, 485120, Note_on_c, 0, 54, 0
2, 485204, Note_on_c, 0, 62, 0
2, 485225, Note_on_c, 0, 57, 0
2, 485347, Note_on_c, 0, 54, 76
2, 485350, Note_on_c, 0, 63, 80
2, 485424, Note_on_c, 0, 62, 49
2, 485524, Note_on_c, 0, 62, 0
2, 486604, Note_on_c, 0, 54, 51
2, 486636, Note_on_c, 0, 60, 38
2, 486691, Note_on_c, 0, 62, 44
2, 486825, Note_on_c, 0, 62, 0
2, 486944, Note_on_c, 0, 60, 0
2, 486976, Note_on_c, 0, 54, 0
2, 487101, Note_on_c, 0, 54, 0
2, 487232, Note_on_c, 0, 63, 0
2, 487559, Note_on_c, 0, 54, 77
2, 487567, Note_on_c, 0, 62, 80
2, 488563, Note_on_c, 0, 54, 56
2, 488585, Note_on_c, 0, 60, 48
2, 488595, Note_on_c, 0, 62, 57
2, 488793, Note_on_c, 0, 54, 0
2, 488936, Note_on_c, 0, 62, 0
2, 489111, Note_on_c, 0, 54, 73
2, 489116, Note_on_c, 0, 63, 81
2, 489146, Note_on_c, 0, 62, 64
2, 489231, Note_on_c, 0, 62, 0
2, 490067, Note_on_c, 0, 62, 0
2, 490211, Note_on_c, 0, 60, 0
2, 490227, Note_on_c, 0, 54, 0
2, 490245, Note_on_c, 0, 54, 0
2, 490360, Note_on_c, 0, 63, 0
2, 490524, Note_on_c, 0, 54, 47
2, 490547, Note_on_c, 0, 60, 39
2, 490550, Note_on_c, 0, 62, 60
2, 490691, Note_on_c, 0, 60, 0
2, 490784, Note_on_c, 0, 62, 0
2, 490912, Note_on_c, 0, 54, 0
2, 491548, Note_on_c, 0, 76, 82
2, 491591, Note_on_c, 0, 64, 27
2, 491703, Note_on_c, 0, 64, 0
2, 492032, Note_on_c, 0, 67, 45
2, 492281, Note_on_c, 0, 76, 0
2, 492422, Note_on_c, 0, 57, 59
2, 492427, Note_on_c, 0, 67, 0
2, 492435, Note_on_c, 0, 62, 46
2, 492448, Note_on_c, 0, 59, 41
2, 492564, Note_on_c, 0, 71, 36
2, 492614, Note_on_c, 0, 59, 0
2, 492640, Note_on_c, 0, 62, 0
2, 492851, Note_on_c, 0, 57, 0
2, 493068, Note_on_c, 0, 78, 74
2, 493907, Note_on_c, 0, 67, 56
2, 493941, Note_on_c, 0, 71, 0
2, 494196, Note_on_c, 0, 78, 0
2, 494220, Note_on_c, 0, 62, 72
2, 494227, Note_on_c, 0, 59, 68
2, 494236, Note_on_c, 0, 67, 0
2, 494265, Note_on_c, 0, 57, 68
2, 494312, Note_on_c, 0, 71, 51
2, 494719, Note_on_c, 0, 71, 0
2, 494877, Note_on_c, 0, 76, 71
2, 495187, Note_on_c, 0, 76, 0
2, 495330, Note_on_c, 0, 76, 71
2, 495868, Note_on_c, 0, 67, 40
2, 496006, Note_on_c, 0, 57, 0
2, 496051, Note_on_c, 0, 62, 0
2, 496072, Note_on_c, 0, 67, 0
2, 496073, Note_on_c, 0, 59, 0
2, 496148, Note_on_c, 0, 76, 0
2, 496240, Note_on_c, 0, 62, 46
2, 496275, Note_on_c, 0, 59, 41
2, 496307, Note_on_c, 0, 57, 42
2, 496318, Note_on_c, 0, 71, 29
2, 496460, Note_on_c, 0, 57, 0
2, 496550, Note_on_c, 0, 59, 0
2, 496614, Note_on_c, 0, 62, 0
2, 496795, Note_on_c, 0, 78, 72
2, 496984, Note_on_c, 0, 71, 0
2, 497823, Note_on_c, 0, 67, 44
2, 497981, Note_on_c, 0, 78, 0
2, 498148, Note_on_c, 0, 67, 0
2, 498156, Note_on_c, 0, 62, 52
2, 498176, Note_on_c, 0, 57, 51
2, 498208, Note_on_c, 0, 59, 48
2, 498233, Note_on_c, 0, 71, 38
2, 498380, Note_on_c, 0, 59, 0
2, 498384, Note_on_c, 0, 57, 0
2, 498560, Note_on_c, 0, 62, 0
2, 498756, Note_on_c, 0, 71, 0
2, 498884, Note_on_c, 0, 76, 66
2, 499805, Note_on_c, 0, 67, 57
2, 500233, Note_on_c, 0, 66, 52
2, 500261, Note_on_c, 0, 67, 0
2, 500265, Note_on_c, 0, 58, 37
2, 500294, Note_on_c, 0, 62, 51
2, 500553, Note_on_c, 0, 76, 0
2, 500820, Note_on_c, 0, 70, 33
2, 501140, Note_on_c, 0, 70, 0
2, 501203, Note_on_c, 0, 78, 60
2, 501859, Note_on_c, 0, 66, 0
2, 501894, Note_on_c, 0, 62, 0
2, 502025, Note_on_c, 0, 58, 0
2, 502115, Note_on_c, 0, 66, 39
2, 502153, Note_on_c, 0, 62, 64
2, 502213, Note_on_c, 0, 78, 0
2, 502249, Note_on_c, 0, 66, 0
2, 502268, Note_on_c, 0, 62, 0
2, 502641, Note_on_c, 0, 70, 55
2, 503292, Note_on_c, 0, 70, 0
2, 503599, Note_on_c, 0, 76, 44
2, 503915, Note_on_c, 0, 76, 0
2, 504051, Note_on_c, 0, 66, 38
2, 504144, Note_on_c, 0, 62, 39
2, 504208, Note_on_c, 0, 58, 30
2, 504669, Note_on_c, 0, 67, 47
2, 504779, Note_on_c, 0, 67, 0
2, 505013, Note_on_c, 0, 78, 55
2, 505633, Note_on_c, 0, 67, 31
2, 505699, Note_on_c, 0, 66, 0
2, 505745, Note_on_c, 0, 78, 0
2, 505770, Note_on_c, 0, 67, 0
2, 505808, Note_on_c, 0, 58, 0
2, 505865, Note_on_c, 0, 62, 0
2, 505976, Note_on_c, 0, 70, 36
2, 506009, Note_on_c, 0, 66, 46
2, 506121, Note_on_c, 0, 58, 25
2, 506297, Note_on_c, 0, 66, 0
2, 506329, Note_on_c, 0, 70, 0
2, 506438, Note_on_c, 0, 58, 0
2, 506472, Note_on_c, 0, 75, 36
2, 506523, Note_on_c, 0, 76, 58
2, 506575, Note_on_c, 0, 75, 0
2, 506797, Note_on_c, 0, 76, 0
2, 506961, Note_on_c, 0, 76, 59
2, 507575, Note_on_c, 0, 67, 32
2, 507779, Note_on_c, 0, 67, 0
2, 507791, Note_on_c, 0, 76, 0
2, 507819, Note_on_c, 0, 71, 34
2, 508247, Note_on_c, 0, 71, 0
2, 508381, Note_on_c, 0, 78, 56
2, 508460, Note_on_c, 0, 71, 32
2, 508977, Note_on_c, 0, 71, 0
2, 509278, Note_on_c, 0, 67, 39
2, 509448, Note_on_c, 0, 78, 0
2, 509466, Note_on_c, 0, 67, 0
2, 509676, Note_on_c, 0, 71, 25
2, 509807, Note_on_c, 0, 62, 32
2, 509862, Note_on_c, 0, 57, 32
2, 510131, Note_on_c, 0, 62, 0
2, 510132, Note_on_c, 0, 71, 0
2, 510147, Note_on_c, 0, 57, 0
2, 510251, Note_on_c, 0, 76, 51
2, 510272, Note_on_c, 0, 71, 43
2, 511035, Note_on_c, 0, 71, 0
2, 511117, Note_on_c, 0, 67, 40
2, 511287, Note_on_c, 0, 76, 0
2, 511394, Note_on_c, 0, 67, 0
2, 511567, Note_on_c, 0, 71, 29
2, 511679, Note_on_c, 0, 62, 29
2, 511715, Note_on_c, 0, 57, 37
2, 511740, Note_on_c, 0, 59, 33
2, 511926, Note_on_c, 0, 71, 0
2, 512093, Note_on_c, 0, 78, 46
2, 512111, Note_on_c, 0, 71, 43
2, 512354, Note_on_c, 0, 78, 0
2, 512455, Note_on_c, 0, 71, 0
2, 512531, Note_on_c, 0, 78, 37
2, 512728, Note_on_c, 0, 71, 18
2, 512993, Note_on_c, 0, 71, 0
2, 513078, Note_on_c, 0, 62, 0
2, 513105, Note_on_c, 0, 67, 31
2, 513158, Note_on_c, 0, 59, 0
2, 513167, Note_on_c, 0, 57, 0
2, 513202, Note_on_c, 0, 78, 0
2, 513449, Note_on_c, 0, 67, 0
2, 513455, Note_on_c, 0, 62, 34
2, 513509, Note_on_c, 0, 71, 21
2, 513644, Note_on_c, 0, 62, 0
2, 513926, Note_on_c, 0, 71, 0
2, 514136, Note_on_c, 0, 76, 51
2, 514157, Note_on_c, 0, 64, 53
2, 514190, Note_on_c, 0, 75, 42
2, 514412, Note_on_c, 0, 75, 0
2, 514950, Note_on_c, 0, 76, 0
2, 515151, Note_on_c, 0, 67, 26
2, 515303, Note_on_c, 0, 64, 0
2, 515458, Note_on_c, 0, 67, 0
2, 515467, Note_on_c, 0, 70, 32
2, 515571, Note_on_c, 0, 66, 35
2, 515732, Note_on_c, 0, 70, 0
2, 515753, Note_on_c, 0, 62, 26
2, 515913, Note_on_c, 0, 62, 0
2, 515999, Note_on_c, 0, 66, 0
2, 516045, Note_on_c, 0, 78, 45
2, 516054, Note_on_c, 0, 65, 43
2, 516273, Note_on_c, 0, 65, 0
2, 516379, Note_on_c, 0, 78, 0
2, 516540, Note_on_c, 0, 78, 40
2, 517081, Note_on_c, 0, 78, 0
2, 517270, Note_on_c, 0, 66, 23
2, 517305, Note_on_c, 0, 62, 35
2, 517353, Note_on_c, 0, 58, 25
2, 517498, Note_on_c, 0, 70, 35
2, 517807, Note_on_c, 0, 62, 0
2, 517855, Note_on_c, 0, 58, 0
2, 517967, Note_on_c, 0, 66, 0
2, 517969, Note_on_c, 0, 70, 0
2, 518139, Note_on_c, 0, 76, 37
2, 518182, Note_on_c, 0, 70, 35
2, 518422, Note_on_c, 0, 70, 0
2, 518997, Note_on_c, 0, 64, 27
2, 519209, Note_on_c, 0, 76, 0
2, 519243, Note_on_c, 0, 64, 0
2, 519439, Note_on_c, 0, 66, 30
2, 519440, Note_on_c, 0, 70, 18
2, 519523, Note_on_c, 0, 62, 35
2, 519580, Note_on_c, 0, 58, 25
2, 519699, Note_on_c, 0, 70, 0
2, 519881, Note_on_c, 0, 70, 33
2, 519884, Note_on_c, 0, 78, 39
2, 519985, Note_on_c, 0, 70, 0
2, 520207, Note_on_c, 0, 78, 0
2, 520359, Note_on_c, 0, 78, 35
2, 520507, Note_on_c, 0, 70, 21
2, 520947, Note_on_c, 0, 66, 0
2, 521094, Note_on_c, 0, 78, 0
2, 521104, Note_on_c, 0, 62, 0
2, 521315, Note_on_c, 0, 66, 30
2, 521340, Note_on_c, 0, 65, 21
2, 521353, Note_on_c, 0, 64, 23
2, 521489, Note_on_c, 0, 65, 0
2, 521510, Note_on_c, 0, 66, 0
2, 521523, Note_on_c, 0, 64, 0
2, 521739, Note_on_c, 0, 70, 0
2, 521753, Note_on_c, 0, 58, 0
2, 522328, Note_on_c, 0, 74, 29
2, 522480, Note_on_c, 0, 76, 17
2, 522830, Note_on_c, 0, 74, 0
2, 522906, Note_on_c, 0, 67, 18
2, 523049, Note_on_c, 0, 76, 0
2, 523295, Note_on_c, 0, 67, 0
2, 523365, Note_on_c, 0, 71, 17
2, 523791, Note_on_c, 0, 78, 39
2, 524508, Note_on_c, 0, 71, 0
2, 524678, Note_on_c, 0, 67, 27
2, 524919, Note_on_c, 0, 78, 0
2, 524970, Note_on_c, 0, 67, 0
2, 525086, Note_on_c, 0, 71, 23
2, 525520, Note_on_c, 0, 71, 0
2, 525639, Note_on_c, 0, 76, 37
2, 526597, Note_on_c, 0, 67, 27
2, 526879, Note_on_c, 0, 67, 0
2, 526882, Note_on_c, 0, 76, 0
2, 527047, Note_on_c, 0, 71, 19
2, 527132, Note_on_c, 0, 62, 17
2, 527168, Note_on_c, 0, 57, 30
2, 527228, Note_on_c, 0, 59, 30
2, 527439, Note_on_c, 0, 71, 0
2, 527524, Note_on_c, 0, 78, 30
2, 527667, Note_on_c, 0, 71, 10
2, 527785, Note_on_c, 0, 71, 0
2, 527791, Note_on_c, 0, 78, 0
2, 527947, Note_on_c, 0, 78, 26
2, 528494, Note_on_c, 0, 67, 20
2, 528652, Note_on_c, 0, 78, 0
2, 528745, Note_on_c, 0, 59, 0
2, 528787, Note_on_c, 0, 62, 0
2, 528819, Note_on_c, 0, 57, 0
2, 528892, Note_on_c, 0, 71, 17
2, 529093, Note_on_c, 0, 67, 0
2, 529470, Note_on_c, 0, 71, 0
2, 529889, Note_on_c, 0, 76, 29
2, 530549, Note_on_c, 0, 76, 0
2, 530892, Note_on_c, 0, 70, 13
2, 531336, Note_on_c, 0, 70, 0
2, 531424, Note_on_c, 0, 76, 26
2, 531798, Note_on_c, 0, 76, 0
2, 532312, Note_on_c, 0, 78, 26
2, 532759, Note_on_c, 0, 78, 0
2, 533288, Note_on_c, 0, 64, 19
2, 533416, Note_on_c, 0, 64, 0
2, 533765, Note_on_c, 0, 76, 23
2, 533835, Note_on_c, 0, 70, 19
2, 534291, Note_on_c, 0, 76, 0
2, 534352, Note_on_c, 0, 70, 0
2, 534367, Note_on_c, 0, 64, 14
2, 534510, Note_on_c, 0, 64, 0
2, 534741, Note_on_c, 0, 70, 15
2, 535127, Note_on_c, 0, 70, 0
2, 535270, Note_on_c, 0, 78, 20
2, 535282, Note_on_c, 0, 70, 19
2, 535547, Note_on_c, 0, 78, 0
2, 535592, Note_on_c, 0, 70, 0
2, 535717, Note_on_c, 0, 78, 18
2, 535784, Note_on_c, 0, 70, 16
2, 536285, Note_on_c, 0, 78, 0
2, 536501, Note_on_c, 0, 70, 0
2, 536510, Note_on_c, 0, 64, 12
2, 536641, Note_on_c, 0, 64, 0
2, 537659, Note_on_c, 0, 76, 20
2, 538206, Note_on_c, 0, 67, 10
2, 538371, Note_on_c, 0, 67, 0
2, 538562, Note_on_c, 0, 71, 9
2, 538571, Note_on_c, 0, 76, 0
2, 539131, Note_on_c, 0, 78, 17
2, 540015, Note_on_c, 0, 67, 11
2, 540030, Note_on_c, 0, 71, 0
2, 540140, Note_on_c, 0, 78, 0
2, 540261, Note_on_c, 0, 67, 0
2, 540413, Note_on_c, 0, 71, 9
2, 540863, Note_on_c, 0, 71, 0
2, 540997, Note_on_c, 0, 76, 15
2, 541046, Note_on_c, 0, 71, 13
2, 541763, Note_on_c, 0, 71, 0
2, 541933, Note_on_c, 0, 67, 10
2, 542216, Note_on_c, 0, 67, 0
2, 542247, Note_on_c, 0, 76, 0
2, 542380, Note_on_c, 0, 71, 10
2, 542803, Note_on_c, 0, 71, 0
2, 542909, Note_on_c, 0, 78, 12
2, 542958, Note_on_c, 0, 71, 10
2, 543171, Note_on_c, 0, 78, 0
2, 543198, Note_on_c, 0, 71, 0
2, 543335, Note_on_c, 0, 78, 10
2, 543955, Note_on_c, 0, 67, 8
2, 544101, Note_on_c, 0, 78, 0
2, 544399, Note_on_c, 0, 67, 0
2, 544402, Note_on_c, 0, 71, 6
2, 545065, Note_on_c, 0, 71, 0
2, 545320, Note_on_c, 0, 76, 9
2, 546001, Note_on_c, 0, 76, 0
2, 546281, Note_on_c, 0, 70, 5
2, 546746, Note_on_c, 0, 70, 0
2, 546864, Note_on_c, 0, 76, 8
2, 547609, Note_on_c, 0, 76, 0
2, 547843, Note_on_c, 0, 64, 2
2, 548053, Note_on_c, 0, 64, 0
2, 548825, Note_on_c, 0, 76, 6
2, 548868, Note_on_c, 0, 70, 4
2, 549418, Note_on_c, 0, 76, 0
2, 549464, Note_on_c, 0, 70, 0
2, 549716, Note_on_c, 0, 64, 3
2, 549856, Note_on_c, 0, 64, 0
2, 550126, Note_on_c, 0, 70, 3
2, 550515, Note_on_c, 0, 70, 0
2, 550722, Note_on_c, 0, 76, 3
2, 550753, Note_on_c, 0, 70, 2
2, 550789, Note_on_c, 0, 64, 2
2, 550953, Note_on_c, 0, 64, 0
2, 551175, Note_on_c, 0, 64, 1
2, 551467, Note_on_c, 0, 64, 0
2, 551777, Note_on_c, 0, 76, 0
2, 551859, Note_on_c, 0, 70, 0
2, 552157, Note_on_c, 0, 76, 1
2, 552163, Note_on_c, 0, 70, 1
2, 552200, Note_on_c, 0, 64, 1
2, 552957, Note_on_c, 0, 64, 0
2, 553124, Note_on_c, 0, 70, 0
2, 553288, Note_on_c, 0, 76, 0
2, 553288, End_track
3, 0, Start_track
3, 0, Title_t, "Bass"
3, 0, Program_c, 1, 32
3, 0, Control_c, 1, 7, 113
3, 0, Note_on_c, 1, 40, 34
3, 1328, Note_on_c, 1, 40, 0
3, 1440, Note_on_c, 1, 42, 37
3, 3360, Note_on_c, 1, 40, 49
3, 3482, Note_on_c, 1, 42, 0
3, 5250, Note_on_c, 1, 40, 0
3, 5280, Note_on_c, 1, 42, 53
3, 7629, Note_on_c, 1, 42, 0
3, 7680, Note_on_c, 1, 40, 49
3, 9092, Note_on_c, 1, 40, 0
3, 9120, Note_on_c, 1, 42, 56
3, 10962, Note_on_c, 1, 42, 0
3, 11040, Note_on_c, 1, 40, 56
3, 12960, Note_on_c, 1, 42, 60
3, 13035, Note_on_c, 1, 40, 0
3, 15275, Note_on_c, 1, 42, 0
3, 15360, Note_on_c, 1, 40, 51
3, 16729, Note_on_c, 1, 40, 0
3, 16800, Note_on_c, 1, 42, 56
3, 18720, Note_on_c, 1, 40, 61
3, 18835, Note_on_c, 1, 42, 0
3, 20576, Note_on_c, 1, 40, 0
3, 20640, Note_on_c, 1, 42, 59
3, 23040, Note_on_c, 1, 40, 53
3, 23096, Note_on_c, 1, 42, 0
3, 24403, Note_on_c, 1, 40, 0
3, 24480, Note_on_c, 1, 42, 55
3, 26312, Note_on_c, 1, 42, 0
3, 26400, Note_on_c, 1, 40, 54
3, 28286, Note_on_c, 1, 40, 0
3, 28320, Note_on_c, 1, 42, 60
3, 30720, Note_on_c, 1, 44, 57
3, 30822, Note_on_c, 1, 42, 0
3, 32160, Note_on_c, 1, 45, 65
3, 32176, Note_on_c, 1, 44, 0
3, 34080, Note_on_c, 1, 44, 65
3, 34146, Note_on_c, 1, 45, 0
3, 36000, Note_on_c, 1, 45, 70
3, 36037, Note_on_c, 1, 44, 0
3, 38400, Note_on_c, 1, 44, 57
3, 38461, Note_on_c, 1, 45, 0
3, 39840, Note_on_c, 1, 45, 71
3, 39905, Note_on_c, 1, 44, 0
3, 41758, Note_on_c, 1, 45, 0
3, 41760, Note_on_c, 1, 44, 70
3, 43680, Note_on_c, 1, 45, 74
3, 43788, Note_on_c, 1, 44, 0
3, 46080, Note_on_c, 1, 44, 66
3, 46146, Note_on_c, 1, 45, 0
3, 47460, Note_on_c, 1, 44, 0
3, 47520, Note_on_c, 1, 45, 73
3, 49440, Note_on_c, 1, 45, 0
3, 49440, Note_on_c, 1, 44, 24
3, 51360, Note_on_c, 1, 45, 71
3, 51468, Note_on_c, 1, 44, 0
3, 53748, Note_on_c, 1, 45, 0
3, 53760, Note_on_c, 1, 44, 63
3, 55200, Note_on_c, 1, 45, 72
3, 55238, Note_on_c, 1, 44, 0
3, 57120, Note_on_c, 1, 44, 73
3, 57141, Note_on_c, 1, 45, 0
3, 59040, Note_on_c, 1, 45, 73
3, 59056, Note_on_c, 1, 44, 0
3, 61436, Note_on_c, 1, 45, 0
3, 61440, Note_on_c, 1, 46, 74
3, 62880, Note_on_c, 1, 48, 79
3, 63065, Note_on_c, 1, 46, 0
3, 64800, Note_on_c, 1, 46, 52
3, 64917, Note_on_c, 1, 48, 0
3, 66720, Note_on_c, 1, 48, 74
3, 66791, Note_on_c, 1, 46, 0
3, 69120, Note_on_c, 1, 46, 70
3, 69146, Note_on_c, 1, 48, 0
3, 70560, Note_on_c, 1, 48, 75
3, 70603, Note_on_c, 1, 46, 0
3, 72480, Note_on_c, 1, 46, 73
3, 72501, Note_on_c, 1, 48, 0
3, 74400, Note_on_c, 1, 48, 72
3, 74510, Note_on_c, 1, 46, 0
3, 76800, Note_on_c, 1, 46, 80
3, 76888, Note_on_c, 1, 48, 0
3, 78240, Note_on_c, 1, 48, 81
3, 78326, Note_on_c, 1, 46, 0
3, 80160, Note_on_c, 1, 46, 80
3, 80230, Note_on_c, 1, 48, 0
3, 82071, Note_on_c, 1, 46, 0
3, 82080, Note_on_c, 1, 48, 80
3, 84480, Note_on_c, 1, 46, 75
3, 84510, Note_on_c, 1, 48, 0
3, 85920, Note_on_c, 1, 48, 79
3, 85994, Note_on_c, 1, 46, 0
3, 87765, Note_on_c, 1, 48, 0
3, 87840, Note_on_c, 1, 46, 76
3, 89760, Note_on_c, 1, 48, 81
3, 89793, Note_on_c, 1, 46, 0
3, 92136, Note_on_c, 1, 48, 0
3, 92160, Note_on_c, 1, 50, 89
3, 93600, Note_on_c, 1, 51, 87
3, 93691, Note_on_c, 1, 50, 0
3, 95477, Note_on_c, 1, 51, 0
3, 95520, Note_on_c, 1, 50, 76
3, 97440, Note_on_c, 1, 51, 86
3, 97456, Note_on_c, 1, 50, 0
3, 99840, Note_on_c, 1, 50, 79
3, 99975, Note_on_c, 1, 51, 0
3, 101150, Note_on_c, 1, 50, 0
3, 101280, Note_on_c, 1, 51, 82
3, 103633, Note_on_c, 1, 51, 0
3, 103680, Note_on_c, 1, 50, 79
3, 105120, Note_on_c, 1, 51, 84
3, 105186, Note_on_c, 1, 50, 0
3, 107520, Note_on_c, 1, 50, 79
3, 107528, Note_on_c, 1, 51, 0
3, 108960, Note_on_c, 1, 51, 84
3, 109037, Note_on_c, 1, 50, 0
3, 110880, Note_on_c, 1, 50, 81
3, 110944, Note_on_c, 1, 51, 0
3, 112698, Note_on_c, 1, 50, 0
3, 112800, Note_on_c, 1, 51, 84
3, 115200, Note_on_c, 1, 50, 76
3, 115289, Note_on_c, 1, 51, 0
3, 116631, Note_on_c, 1, 50, 0
3, 116640, Note_on_c, 1, 51, 85
3, 118521, Note_on_c, 1, 51, 0
3, 118560, Note_on_c, 1, 50, 82
3, 120471, Note_on_c, 1, 50, 0
3, 120480, Note_on_c, 1, 51, 84
3, 121823, Note_on_c, 1, 31, 56
3, 122441, Note_on_c, 1, 51, 0
3, 124453, Note_on_c, 1, 38, 61
3, 124505, Note_on_c, 1, 31, 0
3, 125868, Note_on_c, 1, 47, 62
3, 126003, Note_on_c, 1, 38, 0
3, 128272, Note_on_c, 1, 38, 54
3, 128391, Note_on_c, 1, 47, 0
3, 129531, Note_on_c, 1, 38, 0
3, 129616, Note_on_c, 1, 36, 59
3, 132060, Note_on_c, 1, 43, 59
3, 132112, Note_on_c, 1, 36, 0
3, 133460, Note_on_c, 1, 52, 55
3, 133505, Note_on_c, 1, 43, 0
3, 135825, Note_on_c, 1, 43, 57
3, 136083, Note_on_c, 1, 43, 0
3, 136299, Note_on_c, 1, 43, 36
3, 136415, Note_on_c, 1, 52, 0
3, 137229, Note_on_c, 1, 35, 54
3, 137270, Note_on_c, 1, 43, 0
3, 139725, Note_on_c, 1, 42, 61
3, 139841, Note_on_c, 1, 35, 0
3, 141131, Note_on_c, 1, 50, 71
3, 141771, Note_on_c, 1, 42, 0
3, 143550, Note_on_c, 1, 42, 55
3, 143616, Note_on_c, 1, 50, 0
3, 144856, Note_on_c, 1, 42, 0
3, 144939, Note_on_c, 1, 40, 66
3, 147369, Note_on_c, 1, 47, 63
3, 147404, Note_on_c, 1, 40, 0
3, 148719, Note_on_c, 1, 56, 57
3, 149842, Note_on_c, 1, 47, 0
3, 150262, Note_on_c, 1, 47, 59
3, 151163, Note_on_c, 1, 40, 57
3, 151381, Note_on_c, 1, 47, 0
3, 151487, Note_on_c, 1, 40, 0
3, 151643, Note_on_c, 1, 40, 53
3, 152502, Note_on_c, 1, 56, 0
3, 152544, Note_on_c, 1, 40, 0
3, 152554, Note_on_c, 1, 37, 55
3, 155079, Note_on_c, 1, 44, 57
3, 155113, Note_on_c, 1, 37, 0
3, 156448, Note_on_c, 1, 53, 61
3, 158530, Note_on_c, 1, 44, 0
3, 158857, Note_on_c, 1, 44, 61
3, 159117, Note_on_c, 1, 44, 0
3, 159343, Note_on_c, 1, 44, 55
3, 159834, Note_on_c, 1, 44, 0
3, 160233, Note_on_c, 1, 30, 62
3, 160995, Note_on_c, 1, 53, 0
3, 162648, Note_on_c, 1, 37, 58
3, 162657, Note_on_c, 1, 30, 0
3, 164063, Note_on_c, 1, 45, 69
3, 164223, Note_on_c, 1, 37, 0
3, 166575, Note_on_c, 1, 37, 62
3, 166850, Note_on_c, 1, 45, 0
3, 166917, Note_on_c, 1, 37, 0
3, 167029, Note_on_c, 1, 37, 52
3, 167996, Note_on_c, 1, 37, 0
3, 168011, Note_on_c, 1, 39, 69
3, 170423, Note_on_c, 1, 45, 66
3, 170823, Note_on_c, 1, 39, 0
3, 171792, Note_on_c, 1, 54, 67
3, 173181, Note_on_c, 1, 45, 0
3, 173319, Note_on_c, 1, 45, 68
3, 174282, Note_on_c, 1, 39, 64
3, 174371, Note_on_c, 1, 45, 0
3, 174594, Note_on_c, 1, 39, 0
3, 174777, Note_on_c, 1, 39, 48
3, 175694, Note_on_c, 1, 39, 0
3, 175725, Note_on_c, 1, 32, 67
3, 175765, Note_on_c, 1, 54, 0
3, 178115, Note_on_c, 1, 39, 68
3, 178136, Note_on_c, 1, 32, 0
3, 180043, Note_on_c, 1, 48, 74
3, 180206, Note_on_c, 1, 48, 0
3, 180952, Note_on_c, 1, 48, 78
3, 181227, Note_on_c, 1, 39, 0
3, 181845, Note_on_c, 1, 39, 67
3, 182086, Note_on_c, 1, 39, 0
3, 182265, Note_on_c, 1, 39, 54
3, 182290, Note_on_c, 1, 48, 0
3, 183182, Note_on_c, 1, 39, 0
3, 183232, Note_on_c, 1, 37, 67
3, 185664, Note_on_c, 1, 44, 58
3, 185707, Note_on_c, 1, 37, 0
3, 187068, Note_on_c, 1, 53, 64
3, 187615, Note_on_c, 1, 44, 0
3, 189547, Note_on_c, 1, 44, 60
3, 189609, Note_on_c, 1, 53, 0
3, 189869, Note_on_c, 1, 44, 0
3, 190021, Note_on_c, 1, 44, 53
3, 190866, Note_on_c, 1, 44, 0
3, 190899, Note_on_c, 1, 42, 58
3, 193414, Note_on_c, 1, 37, 55
3, 193437, Note_on_c, 1, 42, 0
3, 194795, Note_on_c, 1, 30, 53
3, 194920, Note_on_c, 1, 37, 0
3, 197278, Note_on_c, 1, 37, 64
3, 197524, Note_on_c, 1, 30, 0
3, 198682, Note_on_c, 1, 41, 66
3, 198820, Note_on_c, 1, 37, 0
3, 201103, Note_on_c, 1, 48, 54
3, 202170, Note_on_c, 1, 39, 21
3, 202451, Note_on_c, 1, 48, 0
3, 202512, Note_on_c, 1, 39, 0
3, 202534, Note_on_c, 1, 53, 62
3, 202609, Note_on_c, 1, 41, 0
3, 204342, Note_on_c, 1, 41, 24
3, 204558, Note_on_c, 1, 41, 0
3, 204989, Note_on_c, 1, 48, 65
3, 205093, Note_on_c, 1, 53, 0
3, 206278, Note_on_c, 1, 48, 0
3, 206412, Note_on_c, 1, 34, 60
3, 208843, Note_on_c, 1, 41, 60
3, 210195, Note_on_c, 1, 50, 72
3, 210226, Note_on_c, 1, 34, 0
3, 212057, Note_on_c, 1, 41, 0
3, 212645, Note_on_c, 1, 41, 68
3, 212943, Note_on_c, 1, 41, 0
3, 213082, Note_on_c, 1, 41, 59
3, 214008, Note_on_c, 1, 41, 0
3, 214053, Note_on_c, 1, 50, 0
3, 214056, Note_on_c, 1, 43, 58
3, 216452, Note_on_c, 1, 43, 0
3, 216518, Note_on_c, 1, 31, 52
3, 217775, Note_on_c, 1, 31, 0
3, 217904, Note_on_c, 1, 31, 57
3, 220325, Note_on_c, 1, 43, 66
3, 221152, Note_on_c, 1, 31, 0
3, 221716, Note_on_c, 1, 36, 71
3, 221745, Note_on_c, 1, 43, 0
3, 224102, Note_on_c, 1, 43, 70
3, 224133, Note_on_c, 1, 36, 0
3, 225546, Note_on_c, 1, 51, 69
3, 225978, Note_on_c, 1, 43, 0
3, 227973, Note_on_c, 1, 43, 71
3, 228150, Note_on_c, 1, 51, 0
3, 229186, Note_on_c, 1, 39, 29
3, 229460, Note_on_c, 1, 43, 0
3, 229466, Note_on_c, 1, 45, 68
3, 229483, Note_on_c, 1, 39, 0
3, 231773, Note_on_c, 1, 39, 73
3, 231902, Note_on_c, 1, 45, 0
3, 233156, Note_on_c, 1, 39, 0
3, 233171, Note_on_c, 1, 33, 66
3, 235550, Note_on_c, 1, 33, 0
3, 235629, Note_on_c, 1, 39, 77
3, 236000, Note_on_c, 1, 39, 0
3, 236120, Note_on_c, 1, 39, 72
3, 236952, Note_on_c, 1, 39, 0
3, 237021, Note_on_c, 1, 38, 71
3, 239461, Note_on_c, 1, 54, 69
3, 240856, Note_on_c, 1, 50, 65
3, 241062, Note_on_c, 1, 38, 0
3, 242350, Note_on_c, 1, 45, 64
3, 243660, Note_on_c, 1, 45, 0
3, 243810, Note_on_c, 1, 38, 55
3, 243904, Note_on_c, 1, 50, 0
3, 244634, Note_on_c, 1, 54, 0
3, 244738, Note_on_c, 1, 38, 0
3, 244759, Note_on_c, 1, 31, 64
3, 245760, Note_on_c, 1, 43, 1
3, 245764, Note_on_c, 1, 43, 0
3, 247200, Note_on_c, 1, 38, 49
3, 248349, Note_on_c, 1, 31, 0
3, 248528, Note_on_c, 1, 38, 0
3, 248615, Note_on_c, 1, 43, 53
3, 250991, Note_on_c, 1, 43, 0
3, 251016, Note_on_c, 1, 38, 63
3, 251339, Note_on_c, 1, 38, 0
3, 251535, Note_on_c, 1, 38, 60
3, 252428, Note_on_c, 1, 38, 0
3, 252462, Note_on_c, 1, 36, 66
3, 255077, Note_on_c, 1, 43, 49
3, 255319, Note_on_c, 1, 36, 0
3, 257119, Note_on_c, 1, 51, 69
3, 257246, Note_on_c, 1, 43, 0
3, 258706, Note_on_c, 1, 51, 0
3, 258772, Note_on_c, 1, 52, 68
3, 259049, Note_on_c, 1, 52, 0
3, 259271, Note_on_c, 1, 52, 54
3, 259737, Note_on_c, 1, 52, 0
3, 259838, Note_on_c, 1, 43, 44
3, 260097, Note_on_c, 1, 43, 0
3, 260140, Note_on_c, 1, 50, 58
3, 260886, Note_on_c, 1, 50, 0
3, 261189, Note_on_c, 1, 47, 36
3, 261681, Note_on_c, 1, 47, 0
3, 262053, Note_on_c, 1, 47, 49
3, 263573, Note_on_c, 1, 47, 0
3, 263608, Note_on_c, 1, 42, 45
3, 265028, Note_on_c, 1, 35, 50
3, 265051, Note_on_c, 1, 42, 0
3, 266554, Note_on_c, 1, 42, 57
3, 266643, Note_on_c, 1, 35, 0
3, 266776, Note_on_c, 1, 42, 0
3, 266983, Note_on_c, 1, 42, 35
3, 267853, Note_on_c, 1, 42, 0
3, 267960, Note_on_c, 1, 40, 54
3, 269405, Note_on_c, 1, 52, 60
3, 269644, Note_on_c, 1, 52, 0
3, 270278, Note_on_c, 1, 52, 44
3, 270465, Note_on_c, 1, 52, 0
3, 270825, Note_on_c, 1, 56, 71
3, 270938, Note_on_c, 1, 40, 0
3, 272167, Note_on_c, 1, 52, 51
3, 272208, Note_on_c, 1, 56, 0
3, 272331, Note_on_c, 1, 52, 0
3, 273121, Note_on_c, 1, 40, 51
3, 273262, Note_on_c, 1, 40, 0
3, 273630, Note_on_c, 1, 40, 50
3, 275047, Note_on_c, 1, 39, 62
3, 275134, Note_on_c, 1, 40, 0
3, 275295, Note_on_c, 1, 39, 0
3, 275433, Note_on_c, 1, 38, 56
3, 276381, Note_on_c, 1, 38, 0
3, 276421, Note_on_c, 1, 37, 61
3, 278316, Note_on_c, 1, 53, 44
3, 279891, Note_on_c, 1, 49, 34
3, 280030, Note_on_c, 1, 37, 0
3, 280346, Note_on_c, 1, 53, 0
3, 280496, Note_on_c, 1, 49, 0
3, 280781, Note_on_c, 1, 37, 59
3, 281035, Note_on_c, 1, 37, 0
3, 281219, Note_on_c, 1, 37, 55
3, 282020, Note_on_c, 1, 37, 0
3, 282204, Note_on_c, 1, 37, 64
3, 282777, Note_on_c, 1, 37, 0
3, 283224, Note_on_c, 1, 31, 38
3, 283572, Note_on_c, 1, 31, 0
3, 284151, Note_on_c, 1, 30, 57
3, 285859, Note_on_c, 1, 30, 0
3, 286089, Note_on_c, 1, 42, 52
3, 287353, Note_on_c, 1, 42, 0
3, 287558, Note_on_c, 1, 37, 49
3, 288972, Note_on_c, 1, 37, 0
3, 289024, Note_on_c, 1, 30, 50
3, 290582, Note_on_c, 1, 37, 67
3, 290838, Note_on_c, 1, 30, 0
3, 291843, Note_on_c, 1, 37, 0
3, 292520, Note_on_c, 1, 39, 82
3, 293998, Note_on_c, 1, 45, 53
3, 294032, Note_on_c, 1, 47, 51
3, 294159, Note_on_c, 1, 47, 0
3, 295190, Note_on_c, 1, 39, 0
3, 295360, Note_on_c, 1, 51, 69
3, 295417, Note_on_c, 1, 45, 0
3, 296351, Note_on_c, 1, 39, 47
3, 296506, Note_on_c, 1, 39, 0
3, 296627, Note_on_c, 1, 51, 0
3, 296760, Note_on_c, 1, 45, 79
3, 298174, Note_on_c, 1, 39, 69
3, 299452, Note_on_c, 1, 45, 0
3, 299490, Note_on_c, 1, 39, 0
3, 299576, Note_on_c, 1, 32, 67
3, 301949, Note_on_c, 1, 32, 0
3, 301981, Note_on_c, 1, 39, 62
3, 302197, Note_on_c, 1, 39, 0
3, 302448, Note_on_c, 1, 39, 60
3, 303954, Note_on_c, 1, 48, 69
3, 304487, Note_on_c, 1, 39, 0
3, 304829, Note_on_c, 1, 39, 53
3, 305005, Note_on_c, 1, 48, 0
3, 305071, Note_on_c, 1, 39, 0
3, 305273, Note_on_c, 1, 44, 57
3, 305791, Note_on_c, 1, 44, 0
3, 306238, Note_on_c, 1, 38, 66
3, 307119, Note_on_c, 1, 38, 0
3, 307295, Note_on_c, 1, 37, 59
3, 309170, Note_on_c, 1, 44, 57
3, 309242, Note_on_c, 1, 37, 0
3, 310581, Note_on_c, 1, 53, 80
3, 310909, Note_on_c, 1, 44, 0
3, 312433, Note_on_c, 1, 44, 57
3, 312692, Note_on_c, 1, 44, 0
3, 312810, Note_on_c, 1, 53, 0
3, 312963, Note_on_c, 1, 51, 42
3, 313282, Note_on_c, 1, 51, 0
3, 313429, Note_on_c, 1, 44, 43
3, 313587, Note_on_c, 1, 44, 0
3, 313821, Note_on_c, 1, 49, 55
3, 314287, Note_on_c, 1, 49, 0
3, 314852, Note_on_c, 1, 42, 55
3, 315356, Note_on_c, 1, 42, 0
3, 315782, Note_on_c, 1, 42, 57
3, 317121, Note_on_c, 1, 42, 0
3, 317219, Note_on_c, 1, 37, 52
3, 317467, Note_on_c, 1, 37, 0
3, 317668, Note_on_c, 1, 37, 53
3, 318711, Note_on_c, 1, 37, 0
3, 318743, Note_on_c, 1, 30, 37
3, 320255, Note_on_c, 1, 37, 55
3, 320384, Note_on_c, 1, 30, 0
3, 320473, Note_on_c, 1, 37, 0
3, 320718, Note_on_c, 1, 37, 46
3, 321689, Note_on_c, 1, 41, 51
3, 321735, Note_on_c, 1, 43, 50
3, 321784, Note_on_c, 1, 37, 0
3, 321839, Note_on_c, 1, 43, 0
3, 324117, Note_on_c, 1, 44, 67
3, 324353, Note_on_c, 1, 41, 0
3, 325130, Note_on_c, 1, 41, 26
3, 325300, Note_on_c, 1, 41, 0
3, 325323, Note_on_c, 1, 44, 0
3, 325462, Note_on_c, 1, 46, 72
3, 327794, Note_on_c, 1, 44, 69
3, 327953, Note_on_c, 1, 46, 0
3, 328051, Note_on_c, 1, 44, 0
3, 328296, Note_on_c, 1, 41, 57
3, 329243, Note_on_c, 1, 41, 0
3, 329278, Note_on_c, 1, 34, 74
3, 332192, Note_on_c, 1, 49, 83
3, 332662, Note_on_c, 1, 49, 0
3, 332711, Note_on_c, 1, 50, 57
3, 333030, Note_on_c, 1, 34, 0
3, 333719, Note_on_c, 1, 34, 40
3, 333840, Note_on_c, 1, 34, 0
3, 334617, Note_on_c, 1, 34, 76
3, 334730, Note_on_c, 1, 50, 0
3, 335035, Note_on_c, 1, 49, 68
3, 335772, Note_on_c, 1, 49, 0
3, 336043, Note_on_c, 1, 50, 80
3, 336267, Note_on_c, 1, 34, 0
3, 337025, Note_on_c, 1, 38, 53
3, 337273, Note_on_c, 1, 38, 0
3, 338016, Note_on_c, 1, 43, 68
3, 338062, Note_on_c, 1, 50, 0
3, 339755, Note_on_c, 1, 43, 0
3, 339934, Note_on_c, 1, 37, 60
3, 341397, Note_on_c, 1, 37, 0
3, 341397, Note_on_c, 1, 31, 66
3, 343240, Note_on_c, 1, 39, 65
3, 343367, Note_on_c, 1, 31, 0
3, 343462, Note_on_c, 1, 39, 0
3, 343678, Note_on_c, 1, 39, 42
3, 344438, Note_on_c, 1, 39, 0
3, 344582, Note_on_c, 1, 35, 59
3, 345576, Note_on_c, 1, 35, 0
3, 345630, Note_on_c, 1, 36, 61
3, 347027, Note_on_c, 1, 36, 0
3, 347036, Note_on_c, 1, 38, 74
3, 348389, Note_on_c, 1, 39, 74
3, 348528, Note_on_c, 1, 38, 0
3, 349988, Note_on_c, 1, 39, 0
3, 350011, Note_on_c, 1, 43, 69
3, 350938, Note_on_c, 1, 39, 43
3, 351339, Note_on_c, 1, 43, 0
3, 351390, Note_on_c, 1, 51, 81
3, 351405, Note_on_c, 1, 39, 0
3, 352335, Note_on_c, 1, 51, 0
3, 352338, Note_on_c, 1, 44, 58
3, 353231, Note_on_c, 1, 44, 0
3, 353248, Note_on_c, 1, 45, 64
3, 354648, Note_on_c, 1, 45, 0
3, 354737, Note_on_c, 1, 39, 69
3, 355013, Note_on_c, 1, 39, 0
3, 355224, Note_on_c, 1, 39, 50
3, 356188, Note_on_c, 1, 33, 68
3, 356330, Note_on_c, 1, 39, 0
3, 358438, Note_on_c, 1, 33, 0
3, 358570, Note_on_c, 1, 39, 67
3, 358789, Note_on_c, 1, 39, 0
3, 358999, Note_on_c, 1, 39, 56
3, 359768, Note_on_c, 1, 39, 0
3, 359967, Note_on_c, 1, 38, 80
3, 362369, Note_on_c, 1, 38, 0
3, 362415, Note_on_c, 1, 45, 80
3, 363437, Note_on_c, 1, 38, 38
3, 363861, Note_on_c, 1, 54, 83
3, 363887, Note_on_c, 1, 38, 0
3, 363930, Note_on_c, 1, 45, 0
3, 366335, Note_on_c, 1, 45, 80
3, 366421, Note_on_c, 1, 54, 0
3, 366548, Note_on_c, 1, 45, 0
3, 366735, Note_on_c, 1, 45, 63
3, 367611, Note_on_c, 1, 45, 0
3, 367746, Note_on_c, 1, 44, 71
3, 368244, Note_on_c, 1, 44, 0
3, 368667, Note_on_c, 1, 43, 56
3, 370056, Note_on_c, 1, 50, 80
3, 370260, Note_on_c, 1, 43, 0
3, 371399, Note_on_c, 1, 57, 71
3, 371530, Note_on_c, 1, 50, 0
3, 373916, Note_on_c, 1, 50, 57
3, 374228, Note_on_c, 1, 50, 0
3, 374479, Note_on_c, 1, 50, 48
3, 374482, Note_on_c, 1, 57, 0
3, 375453, Note_on_c, 1, 43, 43
3, 375561, Note_on_c, 1, 43, 0
3, 375848, Note_on_c, 1, 50, 0
3, 375940, Note_on_c, 1, 43, 42
3, 376335, Note_on_c, 1, 43, 0
3, 376403, Note_on_c, 1, 36, 53
3, 378752, Note_on_c, 1, 43, 60
3, 379110, Note_on_c, 1, 43, 0
3, 379178, Note_on_c, 1, 36, 0
3, 379228, Note_on_c, 1, 43, 42
3, 380724, Note_on_c, 1, 52, 58
3, 381323, Note_on_c, 1, 43, 0
3, 381618, Note_on_c, 1, 52, 0
3, 381643, Note_on_c, 1, 51, 42
3, 381999, Note_on_c, 1, 51, 0
3, 382136, Note_on_c, 1, 52, 35
3, 382658, Note_on_c, 1, 52, 0
3, 382675, Note_on_c, 1, 50, 61
3, 383003, Note_on_c, 1, 50, 0
3, 383184, Note_on_c, 1, 48, 17
3, 383623, Note_on_c, 1, 48, 0
3, 384066, Note_on_c, 1, 47, 52
3, 385564, Note_on_c, 1, 42, 43
3, 385753, Note_on_c, 1, 47, 0
3, 385788, Note_on_c, 1, 42, 0
3, 385978, Note_on_c, 1, 42, 34
3, 386897, Note_on_c, 1, 42, 0
3, 386953, Note_on_c, 1, 35, 40
3, 389320, Note_on_c, 1, 42, 53
3, 389976, Note_on_c, 1, 35, 0
3, 390092, Note_on_c, 1, 42, 0
3, 390294, Note_on_c, 1, 42, 62
3, 390681, Note_on_c, 1, 42, 0
3, 390753, Note_on_c, 1, 39, 54
3, 390864, Note_on_c, 1, 39, 0
3, 391244, Note_on_c, 1, 39, 51
3, 391644, Note_on_c, 1, 39, 0
3, 391752, Note_on_c, 1, 40, 51
3, 393222, Note_on_c, 1, 35, 51
3, 393331, Note_on_c, 1, 40, 0
3, 393512, Note_on_c, 1, 35, 0
3, 393690, Note_on_c, 1, 35, 46
3, 395099, Note_on_c, 1, 28, 48
3, 395292, Note_on_c, 1, 35, 0
3, 396993, Note_on_c, 1, 35, 64
3, 397439, Note_on_c, 1, 35, 0
3, 397894, Note_on_c, 1, 35, 51
3, 397921, Note_on_c, 1, 28, 0
3, 398300, Note_on_c, 1, 35, 0
3, 398358, Note_on_c, 1, 40, 60
3, 399383, Note_on_c, 1, 37, 54
3, 399419, Note_on_c, 1, 40, 0
3, 400821, Note_on_c, 1, 44, 56
3, 401024, Note_on_c, 1, 37, 0
3, 402256, Note_on_c, 1, 53, 50
3, 403471, Note_on_c, 1, 44, 0
3, 404639, Note_on_c, 1, 44, 54
3, 404956, Note_on_c, 1, 44, 0
3, 405191, Note_on_c, 1, 44, 42
3, 405409, Note_on_c, 1, 44, 0
3, 405686, Note_on_c, 1, 44, 51
3, 406025, Note_on_c, 1, 44, 0
3, 406139, Note_on_c, 1, 37, 56
3, 407019, Note_on_c, 1, 53, 0
3, 407036, Note_on_c, 1, 37, 0
3, 407063, Note_on_c, 1, 42, 54
3, 408562, Note_on_c, 1, 30, 53
3, 408791, Note_on_c, 1, 30, 0
3, 409049, Note_on_c, 1, 30, 52
3, 410147, Note_on_c, 1, 42, 0
3, 410493, Note_on_c, 1, 42, 33
3, 410830, Note_on_c, 1, 42, 0
3, 410869, Note_on_c, 1, 30, 0
3, 410944, Note_on_c, 1, 42, 62
3, 412412, Note_on_c, 1, 30, 53
3, 414214, Note_on_c, 1, 42, 0
3, 414361, Note_on_c, 1, 42, 37
3, 414571, Note_on_c, 1, 30, 0
3, 414748, Note_on_c, 1, 42, 0
3, 414804, Note_on_c, 1, 39, 70
3, 416206, Note_on_c, 1, 45, 72
3, 416760, Note_on_c, 1, 39, 0
3, 417321, Note_on_c, 1, 39, 23
3, 417590, Note_on_c, 1, 39, 0
3, 417621, Note_on_c, 1, 51, 64
3, 417806, Note_on_c, 1, 45, 0
3, 420021, Note_on_c, 1, 45, 57
3, 420192, Note_on_c, 1, 45, 0
3, 420518, Note_on_c, 1, 45, 54
3, 420701, Note_on_c, 1, 45, 0
3, 421022, Note_on_c, 1, 45, 52
3, 421290, Note_on_c, 1, 45, 0
3, 421290, Note_on_c, 1, 51, 0
3, 421506, Note_on_c, 1, 39, 60
3, 422449, Note_on_c, 1, 39, 0
3, 422465, Note_on_c, 1, 32, 51
3, 423890, Note_on_c, 1, 39, 68
3, 424158, Note_on_c, 1, 39, 0
3, 424250, Note_on_c, 1, 32, 0
3, 424368, Note_on_c, 1, 39, 59
3, 425787, Note_on_c, 1, 48, 74
3, 427347, Note_on_c, 1, 39, 0
3, 427694, Note_on_c, 1, 39, 69
3, 428431, Note_on_c, 1, 39, 0
3, 428649, Note_on_c, 1, 38, 68
3, 428967, Note_on_c, 1, 38, 0
3, 429146, Note_on_c, 1, 37, 73
3, 429179, Note_on_c, 1, 48, 0
3, 431501, Note_on_c, 1, 44, 59
3, 431569, Note_on_c, 1, 37, 0
3, 432988, Note_on_c, 1, 53, 70
3, 434398, Note_on_c, 1, 44, 0
3, 435307, Note_on_c, 1, 44, 58
3, 435617, Note_on_c, 1, 44, 0
3, 435848, Note_on_c, 1, 44, 50
3, 436497, Note_on_c, 1, 44, 0
3, 436805, Note_on_c, 1, 42, 39
3, 436823, Note_on_c, 1, 30, 52
3, 437083, Note_on_c, 1, 42, 0
3, 439213, Note_on_c, 1, 37, 59
3, 439334, Note_on_c, 1, 30, 0
3, 439417, Note_on_c, 1, 53, 0
3, 441064, Note_on_c, 1, 42, 56
3, 441212, Note_on_c, 1, 37, 0
3, 441807, Note_on_c, 1, 42, 0
3, 442021, Note_on_c, 1, 42, 61
3, 443038, Note_on_c, 1, 37, 59
3, 443068, Note_on_c, 1, 42, 0
3, 443373, Note_on_c, 1, 37, 0
3, 443531, Note_on_c, 1, 37, 55
3, 444962, Note_on_c, 1, 41, 64
3, 445131, Note_on_c, 1, 37, 0
3, 445274, Note_on_c, 1, 41, 0
3, 445482, Note_on_c, 1, 41, 62
3, 446953, Note_on_c, 1, 36, 66
3, 447030, Note_on_c, 1, 41, 0
3, 447277, Note_on_c, 1, 36, 0
3, 447423, Note_on_c, 1, 36, 68
3, 448315, Note_on_c, 1, 29, 62
3, 448432, Note_on_c, 1, 36, 0
3, 450720, Note_on_c, 1, 29, 0
3, 450749, Note_on_c, 1, 36, 72
3, 451413, Note_on_c, 1, 36, 0
3, 451704, Note_on_c, 1, 36, 66
3, 452059, Note_on_c, 1, 36, 0
3, 452226, Note_on_c, 1, 35, 25
3, 452328, Note_on_c, 1, 35, 0
3, 452644, Note_on_c, 1, 35, 49
3, 453022, Note_on_c, 1, 35, 0
3, 453156, Note_on_c, 1, 34, 49
3, 453474, Note_on_c, 1, 35, 29
3, 453580, Note_on_c, 1, 35, 0
3, 454568, Note_on_c, 1, 41, 63
3, 455558, Note_on_c, 1, 34, 0
3, 455564, Note_on_c, 1, 49, 35
3, 455988, Note_on_c, 1, 49, 0
3, 456053, Note_on_c, 1, 50, 70
3, 456820, Note_on_c, 1, 41, 0
3, 457484, Note_on_c, 1, 41, 52
3, 457750, Note_on_c, 1, 41, 0
3, 458345, Note_on_c, 1, 41, 51
3, 458688, Note_on_c, 1, 41, 0
3, 458842, Note_on_c, 1, 50, 0
3, 459377, Note_on_c, 1, 34, 34
3, 459795, Note_on_c, 1, 34, 0
3, 459855, Note_on_c, 1, 42, 57
3, 460419, Note_on_c, 1, 34, 34
3, 460656, Note_on_c, 1, 42, 0
3, 460876, Note_on_c, 1, 43, 55
3, 461024, Note_on_c, 1, 34, 0
3, 462336, Note_on_c, 1, 38, 40
3, 462478, Note_on_c, 1, 38, 0
3, 463747, Note_on_c, 1, 31, 64
3, 465991, Note_on_c, 1, 31, 0
3, 466066, Note_on_c, 1, 39, 72
3, 466151, Note_on_c, 1, 43, 0
3, 466844, Note_on_c, 1, 39, 0
3, 466979, Note_on_c, 1, 39, 62
3, 467306, Note_on_c, 1, 39, 0
3, 467493, Note_on_c, 1, 35, 64
3, 467982, Note_on_c, 1, 36, 79
3, 468067, Note_on_c, 1, 35, 0
3, 468362, Note_on_c, 1, 36, 0
3, 468504, Note_on_c, 1, 36, 72
3, 469910, Note_on_c, 1, 43, 68
3, 470105, Note_on_c, 1, 36, 0
3, 471335, Note_on_c, 1, 51, 60
3, 472514, Note_on_c, 1, 43, 0
3, 473652, Note_on_c, 1, 43, 66
3, 473675, Note_on_c, 1, 51, 0
3, 473979, Note_on_c, 1, 43, 0
3, 474189, Note_on_c, 1, 43, 35
3, 474347, Note_on_c, 1, 43, 0
3, 474665, Note_on_c, 1, 43, 62
3, 475060, Note_on_c, 1, 43, 0
3, 475168, Note_on_c, 1, 44, 64
3, 476086, Note_on_c, 1, 44, 0
3, 476106, Note_on_c, 1, 45, 68
3, 477594, Note_on_c, 1, 39, 59
3, 477616, Note_on_c, 1, 45, 0
3, 477906, Note_on_c, 1, 39, 0
3, 478082, Note_on_c, 1, 39, 50
3, 479557, Note_on_c, 1, 33, 66
3, 479701, Note_on_c, 1, 39, 0
3, 479913, Note_on_c, 1, 33, 0
3, 480023, Note_on_c, 1, 33, 61
3, 481398, Note_on_c, 1, 39, 69
3, 481410, Note_on_c, 1, 33, 0
3, 481733, Note_on_c, 1, 39, 0
3, 481862, Note_on_c, 1, 39, 63
3, 483397, Note_on_c, 1, 38, 74
3, 483472, Note_on_c, 1, 39, 0
3, 483709, Note_on_c, 1, 38, 0
3, 483846, Note_on_c, 1, 38, 72
3, 485271, Note_on_c, 1, 50, 68
3, 486157, Note_on_c, 1, 50, 0
3, 486215, Note_on_c, 1, 49, 30
3, 486525, Note_on_c, 1, 49, 0
3, 486658, Note_on_c, 1, 50, 67
3, 487736, Note_on_c, 1, 38, 0
3, 489011, Note_on_c, 1, 38, 71
3, 489260, Note_on_c, 1, 38, 0
3, 489504, Note_on_c, 1, 38, 65
3, 490415, Note_on_c, 1, 38, 0
3, 490706, Note_on_c, 1, 50, 0
3, 491456, Note_on_c, 1, 31, 57
3, 492998, Note_on_c, 1, 38, 55
3, 493356, Note_on_c, 1, 31, 0
3, 494484, Note_on_c, 1, 43, 50
3, 494609, Note_on_c, 1, 38, 0
3, 496840, Note_on_c, 1, 38, 58
3, 496925, Note_on_c, 1, 43, 0
3, 497150, Note_on_c, 1, 38, 0
3, 497321, Note_on_c, 1, 38, 50
3, 498296, Note_on_c, 1, 36, 55
3, 498309, Note_on_c, 1, 38, 0
3, 500725, Note_on_c, 1, 43, 51
3, 501224, Note_on_c, 1, 36, 0
3, 502270, Note_on_c, 1, 48, 52
3, 502370, Note_on_c, 1, 43, 0
3, 504526, Note_on_c, 1, 48, 0
3, 504638, Note_on_c, 1, 43, 46
3, 505009, Note_on_c, 1, 43, 0
3, 505149, Note_on_c, 1, 43, 49
3, 506021, Note_on_c, 1, 43, 0
3, 506067, Note_on_c, 1, 31, 46
3, 508517, Note_on_c, 1, 38, 41
3, 509119, Note_on_c, 1, 31, 0
3, 509839, Note_on_c, 1, 43, 46
3, 509970, Note_on_c, 1, 38, 0
3, 512250, Note_on_c, 1, 38, 44
3, 512359, Note_on_c, 1, 43, 0
3, 512521, Note_on_c, 1, 38, 0
3, 512712, Note_on_c, 1, 38, 47
3, 513466, Note_on_c, 1, 38, 0
3, 513563, Note_on_c, 1, 36, 47
3, 516044, Note_on_c, 1, 43, 32
3, 516105, Note_on_c, 1, 36, 0
3, 517479, Note_on_c, 1, 48, 31
3, 517561, Note_on_c, 1, 43, 0
3, 519938, Note_on_c, 1, 48, 0
3, 519953, Note_on_c, 1, 43, 29
3, 520890, Note_on_c, 1, 43, 0
3, 521258, Note_on_c, 1, 31, 36
3, 523887, Note_on_c, 1, 38, 23
3, 524070, Note_on_c, 1, 31, 0
3, 525197, Note_on_c, 1, 43, 21
3, 525222, Note_on_c, 1, 38, 0
3, 527739, Note_on_c, 1, 38, 22
3, 527949, Note_on_c, 1, 43, 0
3, 528894, Note_on_c, 1, 36, 21
3, 528897, Note_on_c, 1, 38, 0
3, 531408, Note_on_c, 1, 43, 16
3, 532712, Note_on_c, 1, 52, 15
3, 532907, Note_on_c, 1, 36, 0
3, 534758, Note_on_c, 1, 43, 0
3, 535205, Note_on_c, 1, 43, 14
3, 535400, Note_on_c, 1, 43, 0
3, 535622, Note_on_c, 1, 52, 0
3, 535685, Note_on_c, 1, 43, 9
3, 536540, Note_on_c, 1, 43, 0
3, 536652, Note_on_c, 1, 31, 11
3, 539209, Note_on_c, 1, 38, 11
3, 539449, Note_on_c, 1, 31, 0
3, 540549, Note_on_c, 1, 47, 12
3, 542294, Note_on_c, 1, 38, 0
3, 542829, Note_on_c, 1, 38, 7
3, 543030, Note_on_c, 1, 38, 0
3, 543130, Note_on_c, 1, 47, 0
3, 543313, Note_on_c, 1, 38, 9
3, 544286, Note_on_c, 1, 38, 0
3, 544365, Note_on_c, 1, 36, 7
3, 546894, Note_on_c, 1, 43, 6
3, 547006, Note_on_c, 1, 36, 0
3, 548174, Note_on_c, 1, 52, 3
3, 550059, Note_on_c, 1, 43, 0
3, 550724, Note_on_c, 1, 43, 2
3, 550855, Note_on_c, 1, 43, 0
3, 551107, Note_on_c, 1, 43, 2
3, 551217, Note_on_c, 1, 52, 0
3, 552101, Note_on_c, 1, 43, 0
3, 552153, Note_on_c, 1, 31, 1
3, 560273, Note_on_c, 1, 31, 0
3, 560273, End_track
4, 0, Start_track
4, 0, Title_t, "Drums"
4, 0, Control_c, 9, 0, 3
4, 0, Program_c, 9, 40
4, 0, Control_c, 9, 7, 100
4, 0, Note_on_c, 9, 38, 70
4, 0, Note_on_c, 9, 40, 28
4, 41, Note_on_c, 9, 59, 40
4, 153, Note_on_c, 9, 38, 0
4, 237, Note_on_c, 9, 59, 0
4, 435, Note_on_c, 9, 38, 43
4, 443, Note_on_c, 9, 40, 0
4, 549, Note_on_c, 9, 38, 0
4, 933, Note_on_c, 9, 38, 37
4, 944, Note_on_c, 9, 44, 48
4, 1062, Note_on_c, 9, 38, 0
4, 1264, Note_on_c, 9, 44, 0
4, 1492, Note_on_c, 9, 38, 62
4, 1513, Note_on_c, 9, 40, 27
4, 1659, Note_on_c, 9, 38, 0
4, 1740, Note_on_c, 9, 40, 0
4, 2016, Note_on_c, 9, 38, 36
4, 2145, Note_on_c, 9, 38, 0
4, 2501, Note_on_c, 9, 38, 31
4, 2620, Note_on_c, 9, 38, 0
4, 2845, Note_on_c, 9, 44, 46
4, 2940, Note_on_c, 9, 38, 51
4, 2965, Note_on_c, 9, 40, 26
4, 3123, Note_on_c, 9, 38, 0
4, 3208, Note_on_c, 9, 40, 0
4, 3370, Note_on_c, 9, 44, 0
4, 3464, Note_on_c, 9, 38, 34
4, 3635, Note_on_c, 9, 38, 0
4, 3918, Note_on_c, 9, 38, 32
4, 4082, Note_on_c, 9, 38, 0
4, 4394, Note_on_c, 9, 40, 31
4, 4398, Note_on_c, 9, 38, 52
4, 4594, Note_on_c, 9, 38, 0
4, 4664, Note_on_c, 9, 40, 0
4, 4831, Note_on_c, 9, 44, 40
4, 4914, Note_on_c, 9, 38, 31
4, 5111, Note_on_c, 9, 38, 0
4, 5191, Note_on_c, 9, 44, 0
4, 5363, Note_on_c, 9, 38, 31
4, 5621, Note_on_c, 9, 38, 0
4, 5850, Note_on_c, 9, 40, 22
4, 5854, Note_on_c, 9, 38, 47
4, 6208, Note_on_c, 9, 38, 0
4, 6362, Note_on_c, 9, 38, 35
4, 6536, Note_on_c, 9, 38, 0
4, 6709, Note_on_c, 9, 46, 17
4, 6761, Note_on_c, 9, 38, 35
4, 6909, Note_on_c, 9, 38, 0
4, 7170, Note_on_c, 9, 46, 0
4, 7252, Note_on_c, 9, 38, 38
4, 7433, Note_on_c, 9, 38, 0
4, 7493, Note_on_c, 9, 40, 0
4, 7709, Note_on_c, 9, 40, 18
4, 7722, Note_on_c, 9, 38, 53
4, 7944, Note_on_c, 9, 38, 0
4, 8223, Note_on_c, 9, 38, 38
4, 8352, Note_on_c, 9, 38, 0
4, 8695, Note_on_c, 9, 38, 25
4, 8709, Note_on_c, 9, 44, 40
4, 8833, Note_on_c, 9, 38, 0
4, 8839, Note_on_c, 9, 40, 0
4, 9058, Note_on_c, 9, 44, 0
4, 9126, Note_on_c, 9, 38, 52
4, 9172, Note_on_c, 9, 40, 24
4, 9348, Note_on_c, 9, 38, 0
4, 9594, Note_on_c, 9, 38, 33
4, 9764, Note_on_c, 9, 38, 0
4, 9958, Note_on_c, 9, 40, 0
4, 10101, Note_on_c, 9, 38, 40
4, 10230, Note_on_c, 9, 38, 0
4, 10509, Note_on_c, 9, 38, 50
4, 10540, Note_on_c, 9, 44, 48
4, 10551, Note_on_c, 9, 40, 23
4, 10740, Note_on_c, 9, 38, 0
4, 10946, Note_on_c, 9, 44, 0
4, 11042, Note_on_c, 9, 38, 40
4, 11195, Note_on_c, 9, 38, 0
4, 11491, Note_on_c, 9, 38, 36
4, 11493, Note_on_c, 9, 40, 0
4, 11693, Note_on_c, 9, 38, 0
4, 11917, Note_on_c, 9, 39, 59
4, 11950, Note_on_c, 9, 40, 26
4, 12134, Note_on_c, 9, 39, 0
4, 12271, Note_on_c, 9, 40, 0
4, 12391, Note_on_c, 9, 38, 28
4, 12432, Note_on_c, 9, 44, 51
4, 12620, Note_on_c, 9, 38, 0
4, 12821, Note_on_c, 9, 44, 0
4, 12862, Note_on_c, 9, 38, 34
4, 12920, Note_on_c, 9, 40, 18
4, 13117, Note_on_c, 9, 38, 0
4, 13242, Note_on_c, 9, 40, 0
4, 13357, Note_on_c, 9, 38, 30
4, 13606, Note_on_c, 9, 38, 0
4, 13881, Note_on_c, 9, 38, 34
4, 14103, Note_on_c, 9, 38, 0
4, 14326, Note_on_c, 9, 38, 47
4, 14336, Note_on_c, 9, 40, 25
4, 14367, Note_on_c, 9, 44, 50
4, 14630, Note_on_c, 9, 38, 0
4, 14810, Note_on_c, 9, 44, 0
4, 14816, Note_on_c, 9, 53, 20
4, 14860, Note_on_c, 9, 40, 0
4, 14904, Note_on_c, 9, 38, 19
4, 15091, Note_on_c, 9, 53, 0
4, 15164, Note_on_c, 9, 38, 0
4, 15307, Note_on_c, 9, 53, 28
4, 15383, Note_on_c, 9, 38, 34
4, 15620, Note_on_c, 9, 38, 0
4, 15896, Note_on_c, 9, 38, 42
4, 15946, Note_on_c, 9, 40, 23
4, 15962, Note_on_c, 9, 53, 0
4, 16133, Note_on_c, 9, 38, 0
4, 16302, Note_on_c, 9, 44, 44
4, 16335, Note_on_c, 9, 38, 28
4, 16603, Note_on_c, 9, 38, 0
4, 16659, Note_on_c, 9, 44, 0
4, 16834, Note_on_c, 9, 38, 45
4, 17024, Note_on_c, 9, 38, 0
4, 17144, Note_on_c, 9, 40, 0
4, 17279, Note_on_c, 9, 38, 46
4, 17309, Note_on_c, 9, 40, 18
4, 17475, Note_on_c, 9, 38, 0
4, 17775, Note_on_c, 9, 38, 33
4, 17893, Note_on_c, 9, 38, 0
4, 18059, Note_on_c, 9, 40, 0
4, 18191, Note_on_c, 9, 38, 41
4, 18224, Note_on_c, 9, 40, 19
4, 18224, Note_on_c, 9, 44, 49
4, 18455, Note_on_c, 9, 38, 0
4, 18611, Note_on_c, 9, 44, 0
4, 18696, Note_on_c, 9, 38, 38
4, 18864, Note_on_c, 9, 38, 0
4, 19141, Note_on_c, 9, 38, 34
4, 19359, Note_on_c, 9, 38, 0
4, 19463, Note_on_c, 9, 40, 0
4, 19628, Note_on_c, 9, 38, 32
4, 19723, Note_on_c, 9, 40, 18
4, 19811, Note_on_c, 9, 38, 0
4, 20071, Note_on_c, 9, 38, 36
4, 20146, Note_on_c, 9, 44, 38
4, 20375, Note_on_c, 9, 38, 0
4, 20519, Note_on_c, 9, 44, 0
4, 20616, Note_on_c, 9, 38, 34
4, 20791, Note_on_c, 9, 40, 0
4, 20845, Note_on_c, 9, 38, 0
4, 21073, Note_on_c, 9, 40, 18
4, 21117, Note_on_c, 9, 38, 42
4, 21377, Note_on_c, 9, 38, 0
4, 21608, Note_on_c, 9, 38, 35
4, 21764, Note_on_c, 9, 38, 0
4, 22057, Note_on_c, 9, 38, 30
4, 22088, Note_on_c, 9, 44, 45
4, 22217, Note_on_c, 9, 38, 0
4, 22504, Note_on_c, 9, 38, 40
4, 22508, Note_on_c, 9, 44, 0
4, 22579, Note_on_c, 9, 36, 44
4, 22715, Note_on_c, 9, 38, 0
4, 22767, Note_on_c, 9, 40, 0
4, 22805, Note_on_c, 9, 36, 0
4, 22989, Note_on_c, 9, 40, 23
4, 22991, Note_on_c, 9, 38, 47
4, 23214, Note_on_c, 9, 38, 0
4, 23522, Note_on_c, 9, 38, 36
4, 23669, Note_on_c, 9, 38, 0
4, 23993, Note_on_c, 9, 44, 38
4, 24015, Note_on_c, 9, 38, 24
4, 24133, Note_on_c, 9, 38, 0
4, 24323, Note_on_c, 9, 44, 0
4, 24491, Note_on_c, 9, 38, 38
4, 24639, Note_on_c, 9, 38, 0
4, 24978, Note_on_c, 9, 38, 44
4, 25115, Note_on_c, 9, 38, 0
4, 25254, Note_on_c, 9, 40, 0
4, 25435, Note_on_c, 9, 38, 65
4, 25466, Note_on_c, 9, 40, 29
4, 25647, Note_on_c, 9, 38, 0
4, 25882, Note_on_c, 9, 38, 36
4, 25939, Note_on_c, 9, 44, 49
4, 26055, Note_on_c, 9, 38, 0
4, 26251, Note_on_c, 9, 44, 0
4, 26375, Note_on_c, 9, 38, 35
4, 26517, Note_on_c, 9, 38, 0
4, 26588, Note_on_c, 9, 40, 0
4, 26854, Note_on_c, 9, 38, 60
4, 26864, Note_on_c, 9, 40, 24
4, 27078, Note_on_c, 9, 38, 0
4, 27341, Note_on_c, 9, 38, 38
4, 27505, Note_on_c, 9, 38, 0
4, 27811, Note_on_c, 9, 39, 60
4, 27814, Note_on_c, 9, 44, 49
4, 28056, Note_on_c, 9, 44, 0
4, 28071, Note_on_c, 9, 39, 0
4, 28110, Note_on_c, 9, 40, 0
4, 28333, Note_on_c, 9, 40, 18
4, 28347, Note_on_c, 9, 38, 35
4, 28568, Note_on_c, 9, 38, 0
4, 28725, Note_on_c, 9, 53, 45
4, 28782, Note_on_c, 9, 38, 34
4, 28891, Note_on_c, 9, 53, 0
4, 29059, Note_on_c, 9, 38, 0
4, 29098, Note_on_c, 9, 40, 0
4, 29266, Note_on_c, 9, 53, 53
4, 29281, Note_on_c, 9, 39, 64
4, 29300, Note_on_c, 9, 40, 27
4, 29441, Note_on_c, 9, 53, 0
4, 29676, Note_on_c, 9, 39, 0
4, 29745, Note_on_c, 9, 38, 34
4, 29749, Note_on_c, 9, 46, 21
4, 29990, Note_on_c, 9, 38, 0
4, 29997, Note_on_c, 9, 40, 0
4, 30105, Note_on_c, 9, 46, 0
4, 30206, Note_on_c, 9, 36, 36
4, 30221, Note_on_c, 9, 38, 44
4, 30282, Note_on_c, 9, 40, 28
4, 30445, Note_on_c, 9, 36, 0
4, 30475, Note_on_c, 9, 38, 0
4, 30610, Note_on_c, 9, 40, 0
4, 30668, Note_on_c, 9, 38, 45
4, 30687, Note_on_c, 9, 36, 50
4, 30712, Note_on_c, 9, 40, 19
4, 30953, Note_on_c, 9, 36, 0
4, 30991, Note_on_c, 9, 38, 0
4, 31195, Note_on_c, 9, 38, 45
4, 31392, Note_on_c, 9, 38, 0
4, 31620, Note_on_c, 9, 44, 48
4, 31663, Note_on_c, 9, 38, 31
4, 31756, Note_on_c, 9, 40, 0
4, 31926, Note_on_c, 9, 44, 0
4, 31981, Note_on_c, 9, 38, 0
4, 32166, Note_on_c, 9, 40, 23
4, 32168, Note_on_c, 9, 38, 51
4, 32401, Note_on_c, 9, 38, 0
4, 32622, Note_on_c, 9, 38, 34
4, 32811, Note_on_c, 9, 38, 0
4, 32880, Note_on_c, 9, 40, 0
4, 33123, Note_on_c, 9, 38, 32
4, 33212, Note_on_c, 9, 40, 17
4, 33339, Note_on_c, 9, 38, 0
4, 33509, Note_on_c, 9, 44, 46
4, 33537, Note_on_c, 9, 38, 42
4, 33782, Note_on_c, 9, 38, 0
4, 33878, Note_on_c, 9, 44, 0
4, 33944, Note_on_c, 9, 40, 0
4, 34051, Note_on_c, 9, 39, 64
4, 34304, Note_on_c, 9, 40, 14
4, 34331, Note_on_c, 9, 39, 0
4, 34519, Note_on_c, 9, 38, 30
4, 34849, Note_on_c, 9, 38, 0
4, 34870, Note_on_c, 9, 40, 0
4, 35039, Note_on_c, 9, 38, 40
4, 35282, Note_on_c, 9, 38, 0
4, 35467, Note_on_c, 9, 38, 37
4, 35491, Note_on_c, 9, 46, 29
4, 35538, Note_on_c, 9, 40, 14
4, 35706, Note_on_c, 9, 38, 0
4, 35760, Note_on_c, 9, 46, 0
4, 35819, Note_on_c, 9, 40, 0
4, 35987, Note_on_c, 9, 38, 56
4, 36035, Note_on_c, 9, 40, 27
4, 36334, Note_on_c, 9, 38, 0
4, 36492, Note_on_c, 9, 38, 37
4, 36782, Note_on_c, 9, 38, 0
4, 36964, Note_on_c, 9, 53, 32
4, 36965, Note_on_c, 9, 38, 46
4, 37072, Note_on_c, 9, 53, 0
4, 37208, Note_on_c, 9, 40, 0
4, 37233, Note_on_c, 9, 38, 0
4, 37326, Note_on_c, 9, 44, 52
4, 37403, Note_on_c, 9, 36, 35
4, 37435, Note_on_c, 9, 38, 44
4, 37445, Note_on_c, 9, 40, 20
4, 37598, Note_on_c, 9, 36, 0
4, 37615, Note_on_c, 9, 44, 0
4, 37782, Note_on_c, 9, 38, 0
4, 37930, Note_on_c, 9, 40, 0
4, 37942, Note_on_c, 9, 39, 60
4, 37975, Note_on_c, 9, 36, 27
4, 38158, Note_on_c, 9, 36, 0
4, 38285, Note_on_c, 9, 39, 0
4, 38348, Note_on_c, 9, 40, 18
4, 38375, Note_on_c, 9, 38, 36
4, 38687, Note_on_c, 9, 38, 0
4, 38812, Note_on_c, 9, 40, 0
4, 38895, Note_on_c, 9, 38, 40
4, 39122, Note_on_c, 9, 38, 0
4, 39271, Note_on_c, 9, 44, 46
4, 39323, Note_on_c, 9, 40, 15
4, 39350, Note_on_c, 9, 38, 36
4, 39552, Note_on_c, 9, 38, 0
4, 39567, Note_on_c, 9, 40, 0
4, 39580, Note_on_c, 9, 44, 0
4, 39835, Note_on_c, 9, 38, 60
4, 39877, Note_on_c, 9, 40, 21
4, 40476, Note_on_c, 9, 38, 0
4, 40692, Note_on_c, 9, 38, 49
4, 40881, Note_on_c, 9, 40, 0
4, 40946, Note_on_c, 9, 38, 0
4, 41133, Note_on_c, 9, 44, 48
4, 41216, Note_on_c, 9, 38, 50
4, 41218, Note_on_c, 9, 40, 19
4, 41499, Note_on_c, 9, 44, 0
4, 41530, Note_on_c, 9, 38, 0
4, 41742, Note_on_c, 9, 38, 37
4, 41894, Note_on_c, 9, 38, 0
4, 42204, Note_on_c, 9, 38, 27
4, 42331, Note_on_c, 9, 38, 0
4, 42666, Note_on_c, 9, 38, 54
4, 42845, Note_on_c, 9, 38, 0
4, 43058, Note_on_c, 9, 44, 44
4, 43171, Note_on_c, 9, 38, 25
4, 43286, Note_on_c, 9, 38, 0
4, 43448, Note_on_c, 9, 44, 0
4, 43612, Note_on_c, 9, 38, 62
4, 43614, Note_on_c, 9, 40, 0
4, 43764, Note_on_c, 9, 38, 0
4, 44101, Note_on_c, 9, 38, 44
4, 44136, Note_on_c, 9, 40, 19
4, 44207, Note_on_c, 9, 38, 0
4, 44594, Note_on_c, 9, 38, 71
4, 44765, Note_on_c, 9, 38, 0
4, 45017, Note_on_c, 9, 44, 50
4, 45072, Note_on_c, 9, 38, 33
4, 45193, Note_on_c, 9, 38, 0
4, 45322, Note_on_c, 9, 40, 0
4, 45457, Note_on_c, 9, 44, 0
4, 45519, Note_on_c, 9, 59, 36
4, 45595, Note_on_c, 9, 38, 72
4, 45621, Note_on_c, 9, 59, 0
4, 45647, Note_on_c, 9, 40, 23
4, 45763, Note_on_c, 9, 38, 0
4, 46087, Note_on_c, 9, 38, 57
4, 46235, Note_on_c, 9, 38, 0
4, 46454, Note_on_c, 9, 40, 0
4, 46537, Note_on_c, 9, 38, 66
4, 46539, Note_on_c, 9, 39, 58
4, 46587, Note_on_c, 9, 40, 17
4, 46736, Note_on_c, 9, 38, 0
4, 46830, Note_on_c, 9, 39, 0
4, 46963, Note_on_c, 9, 38, 29
4, 46983, Note_on_c, 9, 36, 38
4, 47029, Note_on_c, 9, 44, 49
4, 47192, Note_on_c, 9, 38, 0
4, 47271, Note_on_c, 9, 40, 0
4, 47339, Note_on_c, 9, 44, 0
4, 47512, Note_on_c, 9, 38, 47
4, 47573, Note_on_c, 9, 40, 14
4, 47611, Note_on_c, 9, 36, 0
4, 47720, Note_on_c, 9, 38, 0
4, 47974, Note_on_c, 9, 38, 41
4, 48269, Note_on_c, 9, 38, 0
4, 48315, Note_on_c, 9, 40, 0
4, 48463, Note_on_c, 9, 38, 40
4, 48471, Note_on_c, 9, 39, 57
4, 48507, Note_on_c, 9, 40, 23
4, 48654, Note_on_c, 9, 38, 0
4, 48789, Note_on_c, 9, 39, 0
4, 48901, Note_on_c, 9, 44, 48
4, 48916, Note_on_c, 9, 38, 29
4, 49153, Note_on_c, 9, 40, 0
4, 49180, Note_on_c, 9, 38, 0
4, 49351, Note_on_c, 9, 44, 0
4, 49443, Note_on_c, 9, 38, 18
4, 49486, Note_on_c, 9, 40, 11
4, 49690, Note_on_c, 9, 38, 0
4, 49757, Note_on_c, 9, 40, 0
4, 49906, Note_on_c, 9, 39, 60
4, 49952, Note_on_c, 9, 40, 24
4, 50241, Note_on_c, 9, 39, 0
4, 50412, Note_on_c, 9, 38, 31
4, 50557, Note_on_c, 9, 38, 0
4, 50559, Note_on_c, 9, 40, 0
4, 50786, Note_on_c, 9, 40, 14
4, 50819, Note_on_c, 9, 38, 40
4, 50873, Note_on_c, 9, 44, 51
4, 51142, Note_on_c, 9, 38, 0
4, 51192, Note_on_c, 9, 40, 0
4, 51290, Note_on_c, 9, 44, 0
4, 51375, Note_on_c, 9, 38, 50
4, 51425, Note_on_c, 9, 40, 18
4, 51627, Note_on_c, 9, 38, 0
4, 51862, Note_on_c, 9, 38, 31
4, 51943, Note_on_c, 9, 40, 0
4, 52067, Note_on_c, 9, 38, 0
4, 52367, Note_on_c, 9, 38, 60
4, 52575, Note_on_c, 9, 38, 0
4, 52772, Note_on_c, 9, 44, 51
4, 52793, Note_on_c, 9, 38, 46
4, 53024, Note_on_c, 9, 38, 0
4, 53202, Note_on_c, 9, 44, 0
4, 53247, Note_on_c, 9, 40, 27
4, 53249, Note_on_c, 9, 38, 61
4, 53356, Note_on_c, 9, 36, 20
4, 53519, Note_on_c, 9, 38, 0
4, 53531, Note_on_c, 9, 36, 0
4, 53715, Note_on_c, 9, 38, 39
4, 53956, Note_on_c, 9, 38, 0
4, 54004, Note_on_c, 9, 40, 0
4, 54245, Note_on_c, 9, 38, 54
4, 54460, Note_on_c, 9, 38, 0
4, 54670, Note_on_c, 9, 44, 56
4, 54674, Note_on_c, 9, 38, 53
4, 54709, Note_on_c, 9, 40, 28
4, 54980, Note_on_c, 9, 38, 0
4, 55100, Note_on_c, 9, 44, 0
4, 55185, Note_on_c, 9, 38, 42
4, 55387, Note_on_c, 9, 38, 0
4, 55668, Note_on_c, 9, 38, 45
4, 55897, Note_on_c, 9, 38, 0
4, 55911, Note_on_c, 9, 40, 0
4, 56119, Note_on_c, 9, 38, 47
4, 56134, Note_on_c, 9, 39, 53
4, 56148, Note_on_c, 9, 40, 24
4, 56204, Note_on_c, 9, 36, 31
4, 56333, Note_on_c, 9, 36, 0
4, 56388, Note_on_c, 9, 38, 0
4, 56479, Note_on_c, 9, 39, 0
4, 56573, Note_on_c, 9, 40, 0
4, 56575, Note_on_c, 9, 44, 56
4, 56596, Note_on_c, 9, 38, 33
4, 56843, Note_on_c, 9, 38, 0
4, 57052, Note_on_c, 9, 44, 0
4, 57095, Note_on_c, 9, 38, 58
4, 57098, Note_on_c, 9, 53, 26
4, 57145, Note_on_c, 9, 40, 22
4, 57281, Note_on_c, 9, 53, 0
4, 57376, Note_on_c, 9, 38, 0
4, 57552, Note_on_c, 9, 53, 19
4, 57563, Note_on_c, 9, 38, 39
4, 57659, Note_on_c, 9, 40, 0
4, 57681, Note_on_c, 9, 53, 0
4, 57819, Note_on_c, 9, 38, 0
4, 57999, Note_on_c, 9, 36, 40
4, 58020, Note_on_c, 9, 39, 64
4, 58116, Note_on_c, 9, 40, 29
4, 58207, Note_on_c, 9, 36, 0
4, 58401, Note_on_c, 9, 39, 0
4, 58460, Note_on_c, 9, 44, 62
4, 58501, Note_on_c, 9, 38, 24
4, 58568, Note_on_c, 9, 40, 0
4, 58715, Note_on_c, 9, 38, 0
4, 58887, Note_on_c, 9, 44, 0
4, 58992, Note_on_c, 9, 38, 43
4, 59006, Note_on_c, 9, 53, 38
4, 59172, Note_on_c, 9, 53, 0
4, 59214, Note_on_c, 9, 38, 0
4, 59420, Note_on_c, 9, 53, 30
4, 59447, Note_on_c, 9, 38, 51
4, 59449, Note_on_c, 9, 40, 22
4, 59745, Note_on_c, 9, 38, 0
4, 59804, Note_on_c, 9, 53, 0
4, 59940, Note_on_c, 9, 36, 33
4, 59955, Note_on_c, 9, 38, 42
4, 60057, Note_on_c, 9, 40, 0
4, 60091, Note_on_c, 9, 36, 0
4, 60150, Note_on_c, 9, 38, 0
4, 60421, Note_on_c, 9, 40, 22
4, 60425, Note_on_c, 9, 38, 57
4, 60436, Note_on_c, 9, 44, 51
4, 60445, Note_on_c, 9, 53, 28
4, 60605, Note_on_c, 9, 53, 0
4, 60708, Note_on_c, 9, 38, 0
4, 60874, Note_on_c, 9, 36, 62
4, 60926, Note_on_c, 9, 38, 42
4, 60980, Note_on_c, 9, 44, 0
4, 61117, Note_on_c, 9, 36, 0
4, 61122, Note_on_c, 9, 38, 0
4, 61358, Note_on_c, 9, 51, 47
4, 61398, Note_on_c, 9, 38, 49
4, 61598, Note_on_c, 9, 38, 0
4, 61633, Note_on_c, 9, 40, 0
4, 61647, Note_on_c, 9, 51, 0
4, 61925, Note_on_c, 9, 38, 33
4, 62079, Note_on_c, 9, 38, 0
4, 62331, Note_on_c, 9, 44, 56
4, 62355, Note_on_c, 9, 38, 59
4, 62405, Note_on_c, 9, 40, 26
4, 62680, Note_on_c, 9, 38, 0
4, 62761, Note_on_c, 9, 44, 0
4, 62879, Note_on_c, 9, 38, 42
4, 62933, Note_on_c, 9, 36, 33
4, 63043, Note_on_c, 9, 36, 0
4, 63083, Note_on_c, 9, 38, 0
4, 63121, Note_on_c, 9, 40, 0
4, 63368, Note_on_c, 9, 38, 36
4, 63514, Note_on_c, 9, 38, 0
4, 63826, Note_on_c, 9, 38, 62
4, 63865, Note_on_c, 9, 40, 25
4, 63892, Note_on_c, 9, 53, 37
4, 64039, Note_on_c, 9, 53, 0
4, 64055, Note_on_c, 9, 38, 0
4, 64254, Note_on_c, 9, 38, 44
4, 64313, Note_on_c, 9, 44, 60
4, 64337, Note_on_c, 9, 40, 0
4, 64464, Note_on_c, 9, 38, 0
4, 64767, Note_on_c, 9, 44, 0
4, 64770, Note_on_c, 9, 38, 48
4, 64815, Note_on_c, 9, 51, 33
4, 64930, Note_on_c, 9, 51, 0
4, 64947, Note_on_c, 9, 38, 0
4, 65217, Note_on_c, 9, 51, 34
4, 65217, Note_on_c, 9, 40, 25
4, 65224, Note_on_c, 9, 38, 48
4, 65414, Note_on_c, 9, 51, 0
4, 65696, Note_on_c, 9, 40, 0
4, 65712, Note_on_c, 9, 39, 64
4, 65810, Note_on_c, 9, 38, 0
4, 65985, Note_on_c, 9, 39, 0
4, 66122, Note_on_c, 9, 40, 18
4, 66133, Note_on_c, 9, 38, 47
4, 66215, Note_on_c, 9, 44, 56
4, 66374, Note_on_c, 9, 38, 0
4, 66457, Note_on_c, 9, 40, 0
4, 66642, Note_on_c, 9, 38, 33
4, 66645, Note_on_c, 9, 44, 0
4, 66652, Note_on_c, 9, 53, 48
4, 66858, Note_on_c, 9, 53, 0
4, 66865, Note_on_c, 9, 38, 0
4, 67123, Note_on_c, 9, 39, 57
4, 67139, Note_on_c, 9, 40, 20
4, 67168, Note_on_c, 9, 38, 32
4, 67258, Note_on_c, 9, 38, 0
4, 67512, Note_on_c, 9, 40, 0
4, 67522, Note_on_c, 9, 39, 0
4, 67663, Note_on_c, 9, 38, 26
4, 67704, Note_on_c, 9, 51, 25
4, 67792, Note_on_c, 9, 51, 0
4, 67869, Note_on_c, 9, 38, 0
4, 68083, Note_on_c, 9, 44, 60
4, 68133, Note_on_c, 9, 38, 50
4, 68158, Note_on_c, 9, 40, 18
4, 68381, Note_on_c, 9, 38, 0
4, 68387, Note_on_c, 9, 40, 0
4, 68537, Note_on_c, 9, 44, 0
4, 68656, Note_on_c, 9, 38, 56
4, 68705, Note_on_c, 9, 40, 21
4, 68966, Note_on_c, 9, 38, 0
4, 69107, Note_on_c, 9, 40, 0
4, 69124, Note_on_c, 9, 38, 37
4, 69325, Note_on_c, 9, 38, 0
4, 69608, Note_on_c, 9, 38, 57
4, 69839, Note_on_c, 9, 38, 0
4, 70002, Note_on_c, 9, 44, 56
4, 70041, Note_on_c, 9, 38, 55
4, 70095, Note_on_c, 9, 40, 25
4, 70388, Note_on_c, 9, 38, 0
4, 70388, Note_on_c, 9, 44, 0
4, 70538, Note_on_c, 9, 38, 33
4, 70654, Note_on_c, 9, 40, 0
4, 70785, Note_on_c, 9, 38, 0
4, 71002, Note_on_c, 9, 38, 33
4, 71243, Note_on_c, 9, 38, 0
4, 71495, Note_on_c, 9, 38, 51
4, 71507, Note_on_c, 9, 53, 46
4, 71520, Note_on_c, 9, 40, 24
4, 71806, Note_on_c, 9, 53, 0
4, 71821, Note_on_c, 9, 38, 0
4, 71894, Note_on_c, 9, 40, 0
4, 71897, Note_on_c, 9, 44, 56
4, 71967, Note_on_c, 9, 39, 38
4, 72212, Note_on_c, 9, 39, 0
4, 72337, Note_on_c, 9, 44, 0
4, 72422, Note_on_c, 9, 38, 57
4, 72443, Note_on_c, 9, 40, 26
4, 72457, Note_on_c, 9, 36, 22
4, 72572, Note_on_c, 9, 36, 0
4, 72716, Note_on_c, 9, 38, 0
4, 72824, Note_on_c, 9, 40, 0
4, 72847, Note_on_c, 9, 38, 34
4, 72906, Note_on_c, 9, 36, 40
4, 73061, Note_on_c, 9, 38, 0
4, 73096, Note_on_c, 9, 36, 0
4, 73333, Note_on_c, 9, 39, 56
4, 73360, Note_on_c, 9, 40, 28
4, 73704, Note_on_c, 9, 40, 0
4, 73706, Note_on_c, 9, 39, 0
4, 73822, Note_on_c, 9, 38, 29
4, 73832, Note_on_c, 9, 44, 55
4, 74095, Note_on_c, 9, 38, 0
4, 74262, Note_on_c, 9, 44, 0
4, 74330, Note_on_c, 9, 38, 38
4, 74581, Note_on_c, 9, 38, 0
4, 74798, Note_on_c, 9, 38, 47
4, 74810, Note_on_c, 9, 40, 27
4, 75118, Note_on_c, 9, 38, 0
4, 75251, Note_on_c, 9, 40, 0
4, 75264, Note_on_c, 9, 39, 59
4, 75300, Note_on_c, 9, 53, 51
4, 75555, Note_on_c, 9, 39, 0
4, 75606, Note_on_c, 9, 53, 0
4, 75744, Note_on_c, 9, 38, 48
4, 75744, Note_on_c, 9, 44, 55
4, 75788, Note_on_c, 9, 40, 15
4, 75798, Note_on_c, 9, 51, 25
4, 75970, Note_on_c, 9, 51, 0
4, 76019, Note_on_c, 9, 38, 0
4, 76058, Note_on_c, 9, 40, 0
4, 76228, Note_on_c, 9, 44, 0
4, 76233, Note_on_c, 9, 38, 44
4, 76299, Note_on_c, 9, 36, 44
4, 76466, Note_on_c, 9, 38, 0
4, 76540, Note_on_c, 9, 36, 0
4, 76743, Note_on_c, 9, 40, 23
4, 76753, Note_on_c, 9, 38, 57
4, 76761, Note_on_c, 9, 36, 40
4, 77010, Note_on_c, 9, 36, 0
4, 77046, Note_on_c, 9, 38, 0
4, 77100, Note_on_c, 9, 40, 0
4, 77260, Note_on_c, 9, 38, 42
4, 77448, Note_on_c, 9, 38, 0
4, 77649, Note_on_c, 9, 44, 50
4, 77760, Note_on_c, 9, 38, 49
4, 77772, Note_on_c, 9, 40, 20
4, 78020, Note_on_c, 9, 38, 0
4, 78052, Note_on_c, 9, 44, 0
4, 78074, Note_on_c, 9, 40, 0
4, 78209, Note_on_c, 9, 39, 46
4, 78271, Note_on_c, 9, 53, 48
4, 78437, Note_on_c, 9, 53, 0
4, 78500, Note_on_c, 9, 39, 0
4, 78664, Note_on_c, 9, 38, 44
4, 78712, Note_on_c, 9, 40, 13
4, 78891, Note_on_c, 9, 38, 0
4, 78904, Note_on_c, 9, 40, 0
4, 79180, Note_on_c, 9, 53, 31
4, 79182, Note_on_c, 9, 38, 55
4, 79207, Note_on_c, 9, 40, 26
4, 79340, Note_on_c, 9, 53, 0
4, 79442, Note_on_c, 9, 38, 0
4, 79559, Note_on_c, 9, 40, 0
4, 79635, Note_on_c, 9, 44, 50
4, 79852, Note_on_c, 9, 38, 51
4, 80008, Note_on_c, 9, 44, 0
4, 80031, Note_on_c, 9, 38, 0
4, 80310, Note_on_c, 9, 38, 40
4, 80489, Note_on_c, 9, 38, 0
4, 80724, Note_on_c, 9, 38, 54
4, 80734, Note_on_c, 9, 40, 26
4, 81075, Note_on_c, 9, 38, 0
4, 81160, Note_on_c, 9, 40, 0
4, 81237, Note_on_c, 9, 38, 33
4, 81404, Note_on_c, 9, 38, 0
4, 81547, Note_on_c, 9, 44, 56
4, 81666, Note_on_c, 9, 38, 45
4, 81876, Note_on_c, 9, 38, 0
4, 81879, Note_on_c, 9, 44, 0
4, 82099, Note_on_c, 9, 39, 58
4, 82132, Note_on_c, 9, 40, 28
4, 82411, Note_on_c, 9, 39, 0
4, 82525, Note_on_c, 9, 40, 0
4, 82585, Note_on_c, 9, 38, 24
4, 82797, Note_on_c, 9, 38, 0
4, 83060, Note_on_c, 9, 38, 42
4, 83105, Note_on_c, 9, 40, 20
4, 83309, Note_on_c, 9, 38, 0
4, 83320, Note_on_c, 9, 40, 0
4, 83496, Note_on_c, 9, 44, 55
4, 83511, Note_on_c, 9, 38, 37
4, 83736, Note_on_c, 9, 38, 0
4, 83845, Note_on_c, 9, 44, 0
4, 83973, Note_on_c, 9, 38, 35
4, 84199, Note_on_c, 9, 38, 0
4, 84430, Note_on_c, 9, 38, 53
4, 84447, Note_on_c, 9, 40, 25
4, 84844, Note_on_c, 9, 38, 0
4, 84877, Note_on_c, 9, 40, 0
4, 84990, Note_on_c, 9, 39, 56
4, 85214, Note_on_c, 9, 39, 0
4, 85352, Note_on_c, 9, 40, 17
4, 85356, Note_on_c, 9, 38, 35
4, 85434, Note_on_c, 9, 44, 56
4, 85622, Note_on_c, 9, 40, 0
4, 85637, Note_on_c, 9, 38, 0
4, 85743, Note_on_c, 9, 44, 0
4, 85907, Note_on_c, 9, 38, 46
4, 85944, Note_on_c, 9, 40, 25
4, 86400, Note_on_c, 9, 38, 0
4, 86444, Note_on_c, 9, 40, 0
4, 86797, Note_on_c, 9, 39, 58
4, 86820, Note_on_c, 9, 40, 27
4, 87168, Note_on_c, 9, 39, 0
4, 87217, Note_on_c, 9, 40, 0
4, 87263, Note_on_c, 9, 38, 34
4, 87366, Note_on_c, 9, 44, 57
4, 87559, Note_on_c, 9, 38, 0
4, 87760, Note_on_c, 9, 38, 32
4, 87817, Note_on_c, 9, 44, 0
4, 88008, Note_on_c, 9, 38, 0
4, 88235, Note_on_c, 9, 38, 49
4, 88245, Note_on_c, 9, 40, 27
4, 88259, Note_on_c, 9, 53, 50
4, 88692, Note_on_c, 9, 40, 0
4, 88709, Note_on_c, 9, 38, 0
4, 88721, Note_on_c, 9, 39, 49
4, 88812, Note_on_c, 9, 53, 0
4, 88969, Note_on_c, 9, 39, 0
4, 89194, Note_on_c, 9, 38, 46
4, 89234, Note_on_c, 9, 44, 58
4, 89248, Note_on_c, 9, 40, 20
4, 89506, Note_on_c, 9, 38, 0
4, 89526, Note_on_c, 9, 40, 0
4, 89587, Note_on_c, 9, 44, 0
4, 89709, Note_on_c, 9, 38, 46
4, 89723, Note_on_c, 9, 53, 48
4, 89741, Note_on_c, 9, 40, 24
4, 89825, Note_on_c, 9, 53, 0
4, 90175, Note_on_c, 9, 53, 50
4, 90508, Note_on_c, 9, 40, 0
4, 90564, Note_on_c, 9, 38, 0
4, 90580, Note_on_c, 9, 53, 0
4, 90743, Note_on_c, 9, 39, 44
4, 90787, Note_on_c, 9, 40, 29
4, 91105, Note_on_c, 9, 40, 0
4, 91113, Note_on_c, 9, 39, 0
4, 91170, Note_on_c, 9, 44, 59
4, 91205, Note_on_c, 9, 38, 36
4, 91436, Note_on_c, 9, 38, 0
4, 91553, Note_on_c, 9, 44, 0
4, 91670, Note_on_c, 9, 53, 44
4, 91702, Note_on_c, 9, 38, 41
4, 91872, Note_on_c, 9, 53, 0
4, 91908, Note_on_c, 9, 38, 0
4, 92160, Note_on_c, 9, 40, 24
4, 92164, Note_on_c, 9, 38, 57
4, 92515, Note_on_c, 9, 40, 0
4, 92549, Note_on_c, 9, 38, 0
4, 92660, Note_on_c, 9, 53, 29
4, 92675, Note_on_c, 9, 39, 46
4, 92748, Note_on_c, 9, 53, 0
4, 92883, Note_on_c, 9, 39, 0
4, 93068, Note_on_c, 9, 44, 54
4, 93081, Note_on_c, 9, 38, 53
4, 93114, Note_on_c, 9, 40, 22
4, 93120, Note_on_c, 9, 53, 45
4, 93230, Note_on_c, 9, 53, 0
4, 93366, Note_on_c, 9, 38, 0
4, 93376, Note_on_c, 9, 40, 0
4, 93394, Note_on_c, 9, 44, 0
4, 93580, Note_on_c, 9, 38, 44
4, 93634, Note_on_c, 9, 40, 18
4, 93828, Note_on_c, 9, 38, 0
4, 93865, Note_on_c, 9, 40, 0
4, 94036, Note_on_c, 9, 38, 36
4, 94075, Note_on_c, 9, 40, 21
4, 94373, Note_on_c, 9, 40, 0
4, 94387, Note_on_c, 9, 38, 0
4, 94566, Note_on_c, 9, 39, 55
4, 94841, Note_on_c, 9, 39, 0
4, 94949, Note_on_c, 9, 38, 36
4, 94965, Note_on_c, 9, 40, 19
4, 95004, Note_on_c, 9, 44, 53
4, 95286, Note_on_c, 9, 44, 0
4, 95332, Note_on_c, 9, 40, 0
4, 95340, Note_on_c, 9, 38, 0
4, 95513, Note_on_c, 9, 38, 42
4, 95579, Note_on_c, 9, 40, 18
4, 95789, Note_on_c, 9, 38, 0
4, 95860, Note_on_c, 9, 40, 0
4, 95978, Note_on_c, 9, 39, 56
4, 96355, Note_on_c, 9, 39, 0
4, 96467, Note_on_c, 9, 38, 45
4, 96494, Note_on_c, 9, 53, 36
4, 96496, Note_on_c, 9, 40, 19
4, 96539, Note_on_c, 9, 51, 26
4, 96673, Note_on_c, 9, 51, 0
4, 96718, Note_on_c, 9, 53, 0
4, 96725, Note_on_c, 9, 38, 0
4, 96895, Note_on_c, 9, 44, 56
4, 96929, Note_on_c, 9, 38, 35
4, 97178, Note_on_c, 9, 44, 0
4, 97191, Note_on_c, 9, 40, 0
4, 97251, Note_on_c, 9, 38, 0
4, 97449, Note_on_c, 9, 38, 59
4, 97461, Note_on_c, 9, 40, 31
4, 97740, Note_on_c, 9, 38, 0
4, 97921, Note_on_c, 9, 38, 44
4, 98204, Note_on_c, 9, 40, 0
4, 98293, Note_on_c, 9, 38, 0
4, 98382, Note_on_c, 9, 51, 29
4, 98416, Note_on_c, 9, 39, 64
4, 98427, Note_on_c, 9, 40, 30
4, 98445, Note_on_c, 9, 53, 24
4, 98542, Note_on_c, 9, 51, 0
4, 98557, Note_on_c, 9, 53, 0
4, 98737, Note_on_c, 9, 46, 18
4, 98741, Note_on_c, 9, 39, 0
4, 98843, Note_on_c, 9, 38, 37
4, 98865, Note_on_c, 9, 36, 27
4, 98983, Note_on_c, 9, 36, 0
4, 99019, Note_on_c, 9, 46, 0
4, 99051, Note_on_c, 9, 40, 0
4, 99150, Note_on_c, 9, 38, 0
4, 99308, Note_on_c, 9, 36, 44
4, 99358, Note_on_c, 9, 38, 47
4, 99371, Note_on_c, 9, 40, 19
4, 99541, Note_on_c, 9, 36, 0
4, 99600, Note_on_c, 9, 40, 0
4, 99623, Note_on_c, 9, 38, 0
4, 99808, Note_on_c, 9, 38, 54
4, 99822, Note_on_c, 9, 36, 42
4, 99829, Note_on_c, 9, 40, 22
4, 100059, Note_on_c, 9, 36, 0
4, 100226, Note_on_c, 9, 40, 0
4, 100282, Note_on_c, 9, 38, 0
4, 100299, Note_on_c, 9, 39, 60
4, 100588, Note_on_c, 9, 39, 0
4, 100662, Note_on_c, 9, 44, 57
4, 100729, Note_on_c, 9, 38, 44
4, 100752, Note_on_c, 9, 40, 19
4, 100975, Note_on_c, 9, 40, 0
4, 100985, Note_on_c, 9, 38, 0
4, 100994, Note_on_c, 9, 44, 0
4, 101230, Note_on_c, 9, 38, 55
4, 101260, Note_on_c, 9, 40, 30
4, 101534, Note_on_c, 9, 38, 0
4, 101690, Note_on_c, 9, 38, 32
4, 101931, Note_on_c, 9, 40, 0
4, 101963, Note_on_c, 9, 38, 0
4, 102181, Note_on_c, 9, 39, 62
4, 102206, Note_on_c, 9, 40, 29
4, 102499, Note_on_c, 9, 39, 0
4, 102601, Note_on_c, 9, 44, 54
4, 102618, Note_on_c, 9, 38, 36
4, 102822, Note_on_c, 9, 40, 0
4, 102909, Note_on_c, 9, 38, 0
4, 102960, Note_on_c, 9, 44, 0
4, 103152, Note_on_c, 9, 38, 45
4, 103350, Note_on_c, 9, 38, 0
4, 103575, Note_on_c, 9, 40, 29
4, 103581, Note_on_c, 9, 38, 55
4, 103926, Note_on_c, 9, 38, 0
4, 104134, Note_on_c, 9, 38, 35
4, 104263, Note_on_c, 9, 40, 0
4, 104296, Note_on_c, 9, 38, 0
4, 104496, Note_on_c, 9, 44, 56
4, 104556, Note_on_c, 9, 38, 41
4, 104571, Note_on_c, 9, 40, 20
4, 104812, Note_on_c, 9, 44, 0
4, 104823, Note_on_c, 9, 38, 0
4, 104933, Note_on_c, 9, 40, 0
4, 105066, Note_on_c, 9, 38, 53
4, 105083, Note_on_c, 9, 40, 31
4, 105338, Note_on_c, 9, 38, 0
4, 105517, Note_on_c, 9, 40, 0
4, 105582, Note_on_c, 9, 39, 35
4, 105740, Note_on_c, 9, 39, 0
4, 106018, Note_on_c, 9, 53, 46
4, 106021, Note_on_c, 9, 40, 28
4, 106031, Note_on_c, 9, 38, 66
4, 106184, Note_on_c, 9, 53, 0
4, 106322, Note_on_c, 9, 38, 0
4, 106335, Note_on_c, 9, 40, 0
4, 106407, Note_on_c, 9, 36, 44
4, 106434, Note_on_c, 9, 44, 53
4, 106514, Note_on_c, 9, 38, 39
4, 106539, Note_on_c, 9, 40, 13
4, 106661, Note_on_c, 9, 36, 0
4, 106728, Note_on_c, 9, 40, 0
4, 106742, Note_on_c, 9, 38, 0
4, 106824, Note_on_c, 9, 44, 0
4, 106910, Note_on_c, 9, 36, 46
4, 106975, Note_on_c, 9, 40, 26
4, 106980, Note_on_c, 9, 38, 51
4, 107185, Note_on_c, 9, 36, 0
4, 107227, Note_on_c, 9, 40, 0
4, 107231, Note_on_c, 9, 38, 0
4, 107427, Note_on_c, 9, 40, 23
4, 107448, Note_on_c, 9, 38, 52
4, 107495, Note_on_c, 9, 36, 26
4, 107624, Note_on_c, 9, 36, 0
4, 107772, Note_on_c, 9, 38, 0
4, 107797, Note_on_c, 9, 40, 0
4, 107926, Note_on_c, 9, 39, 46
4, 108173, Note_on_c, 9, 39, 0
4, 108336, Note_on_c, 9, 38, 55
4, 108350, Note_on_c, 9, 40, 28
4, 108356, Note_on_c, 9, 44, 49
4, 108439, Note_on_c, 9, 53, 34
4, 108631, Note_on_c, 9, 38, 0
4, 108716, Note_on_c, 9, 44, 0
4, 108781, Note_on_c, 9, 40, 0
4, 108793, Note_on_c, 9, 53, 0
4, 108833, Note_on_c, 9, 38, 36
4, 108899, Note_on_c, 9, 40, 9
4, 108901, Note_on_c, 9, 36, 39
4, 109126, Note_on_c, 9, 38, 0
4, 109169, Note_on_c, 9, 36, 0
4, 109305, Note_on_c, 9, 38, 43
4, 109555, Note_on_c, 9, 38, 0
4, 109582, Note_on_c, 9, 40, 0
4, 109808, Note_on_c, 9, 39, 61
4, 109816, Note_on_c, 9, 53, 45
4, 109840, Note_on_c, 9, 40, 28
4, 110116, Note_on_c, 9, 53, 0
4, 110133, Note_on_c, 9, 39, 0
4, 110272, Note_on_c, 9, 44, 50
4, 110274, Note_on_c, 9, 38, 30
4, 110315, Note_on_c, 9, 36, 25
4, 110530, Note_on_c, 9, 38, 0
4, 110534, Note_on_c, 9, 40, 0
4, 110540, Note_on_c, 9, 36, 0
4, 110644, Note_on_c, 9, 44, 0
4, 110798, Note_on_c, 9, 40, 25
4, 110807, Note_on_c, 9, 38, 50
4, 111052, Note_on_c, 9, 40, 0
4, 111054, Note_on_c, 9, 38, 0
4, 111258, Note_on_c, 9, 40, 24
4, 111279, Note_on_c, 9, 38, 35
4, 111537, Note_on_c, 9, 40, 0
4, 111547, Note_on_c, 9, 38, 0
4, 111772, Note_on_c, 9, 39, 60
4, 111797, Note_on_c, 9, 40, 32
4, 112101, Note_on_c, 9, 39, 0
4, 112187, Note_on_c, 9, 44, 51
4, 112244, Note_on_c, 9, 38, 27
4, 112408, Note_on_c, 9, 40, 0
4, 112475, Note_on_c, 9, 38, 0
4, 112516, Note_on_c, 9, 44, 0
4, 112766, Note_on_c, 9, 39, 63
4, 112783, Note_on_c, 9, 40, 29
4, 113068, Note_on_c, 9, 39, 0
4, 113095, Note_on_c, 9, 40, 0
4, 113232, Note_on_c, 9, 38, 35
4, 113292, Note_on_c, 9, 40, 19
4, 113453, Note_on_c, 9, 40, 0
4, 113494, Note_on_c, 9, 38, 0
4, 113735, Note_on_c, 9, 38, 46
4, 113737, Note_on_c, 9, 40, 28
4, 113760, Note_on_c, 9, 53, 42
4, 113762, Note_on_c, 9, 59, 49
4, 113954, Note_on_c, 9, 40, 0
4, 113966, Note_on_c, 9, 38, 0
4, 113968, Note_on_c, 9, 53, 0
4, 113972, Note_on_c, 9, 59, 0
4, 114146, Note_on_c, 9, 44, 57
4, 114158, Note_on_c, 9, 40, 18
4, 114185, Note_on_c, 9, 38, 36
4, 114420, Note_on_c, 9, 38, 0
4, 114432, Note_on_c, 9, 40, 0
4, 114458, Note_on_c, 9, 44, 0
4, 114653, Note_on_c, 9, 39, 60
4, 114698, Note_on_c, 9, 36, 38
4, 114711, Note_on_c, 9, 40, 31
4, 114850, Note_on_c, 9, 36, 0
4, 114948, Note_on_c, 9, 39, 0
4, 114961, Note_on_c, 9, 40, 0
4, 115162, Note_on_c, 9, 38, 24
4, 115181, Note_on_c, 9, 40, 21
4, 115184, Note_on_c, 9, 59, 50
4, 115191, Note_on_c, 9, 53, 38
4, 115393, Note_on_c, 9, 38, 0
4, 115406, Note_on_c, 9, 40, 0
4, 115605, Note_on_c, 9, 38, 40
4, 115626, Note_on_c, 9, 40, 21
4, 115677, Note_on_c, 9, 53, 0
4, 115754, Note_on_c, 9, 59, 0
4, 115861, Note_on_c, 9, 40, 0
4, 115865, Note_on_c, 9, 38, 0
4, 116017, Note_on_c, 9, 44, 57
4, 116071, Note_on_c, 9, 40, 17
4, 116075, Note_on_c, 9, 38, 36
4, 116306, Note_on_c, 9, 38, 0
4, 116325, Note_on_c, 9, 40, 0
4, 116340, Note_on_c, 9, 44, 0
4, 116550, Note_on_c, 9, 39, 60
4, 116606, Note_on_c, 9, 40, 29
4, 116674, Note_on_c, 9, 59, 43
4, 116682, Note_on_c, 9, 53, 34
4, 116790, Note_on_c, 9, 59, 0
4, 116792, Note_on_c, 9, 53, 0
4, 116870, Note_on_c, 9, 39, 0
4, 117003, Note_on_c, 9, 38, 30
4, 117228, Note_on_c, 9, 38, 0
4, 117255, Note_on_c, 9, 40, 0
4, 117534, Note_on_c, 9, 38, 50
4, 117558, Note_on_c, 9, 40, 24
4, 117564, Note_on_c, 9, 36, 31
4, 117699, Note_on_c, 9, 36, 0
4, 117771, Note_on_c, 9, 38, 0
4, 117775, Note_on_c, 9, 40, 0
4, 117922, Note_on_c, 9, 44, 56
4, 117989, Note_on_c, 9, 38, 37
4, 117997, Note_on_c, 9, 40, 19
4, 118018, Note_on_c, 9, 36, 45
4, 118243, Note_on_c, 9, 38, 0
4, 118247, Note_on_c, 9, 40, 0
4, 118278, Note_on_c, 9, 44, 0
4, 118296, Note_on_c, 9, 36, 0
4, 118478, Note_on_c, 9, 38, 48
4, 118509, Note_on_c, 9, 40, 26
4, 118744, Note_on_c, 9, 38, 0
4, 118755, Note_on_c, 9, 40, 0
4, 118963, Note_on_c, 9, 38, 45
4, 118975, Note_on_c, 9, 40, 22
4, 119291, Note_on_c, 9, 40, 0
4, 119331, Note_on_c, 9, 38, 0
4, 119485, Note_on_c, 9, 39, 64
4, 119503, Note_on_c, 9, 40, 28
4, 119548, Note_on_c, 9, 53, 37
4, 119557, Note_on_c, 9, 59, 46
4, 119673, Note_on_c, 9, 53, 0
4, 119686, Note_on_c, 9, 59, 0
4, 119809, Note_on_c, 9, 39, 0
4, 119861, Note_on_c, 9, 44, 56
4, 119884, Note_on_c, 9, 40, 0
4, 119901, Note_on_c, 9, 38, 43
4, 120127, Note_on_c, 9, 38, 0
4, 120210, Note_on_c, 9, 44, 0
4, 120404, Note_on_c, 9, 38, 55
4, 120407, Note_on_c, 9, 36, 38
4, 120464, Note_on_c, 9, 40, 25
4, 120653, Note_on_c, 9, 38, 0
4, 120656, Note_on_c, 9, 40, 0
4, 120659, Note_on_c, 9, 36, 0
4, 120891, Note_on_c, 9, 39, 68
4, 120915, Note_on_c, 9, 53, 33
4, 120916, Note_on_c, 9, 40, 33
4, 120919, Note_on_c, 9, 59, 39
4, 121221, Note_on_c, 9, 40, 0
4, 121254, Note_on_c, 9, 53, 0
4, 121263, Note_on_c, 9, 39, 0
4, 121415, Note_on_c, 9, 38, 31
4, 121416, Note_on_c, 9, 59, 0
4, 121479, Note_on_c, 9, 40, 14
4, 121596, Note_on_c, 9, 40, 0
4, 121633, Note_on_c, 9, 38, 0
4, 121753, Note_on_c, 9, 44, 67
4, 121868, Note_on_c, 9, 38, 51
4, 121897, Note_on_c, 9, 40, 23
4, 121982, Note_on_c, 9, 57, 55
4, 122122, Note_on_c, 9, 44, 0
4, 122159, Note_on_c, 9, 40, 0
4, 122174, Note_on_c, 9, 38, 0
4, 122202, Note_on_c, 9, 57, 0
4, 122351, Note_on_c, 9, 38, 51
4, 122386, Note_on_c, 9, 40, 23
4, 122534, Note_on_c, 9, 38, 0
4, 122575, Note_on_c, 9, 40, 0
4, 122880, Note_on_c, 9, 38, 70
4, 122880, Note_on_c, 9, 40, 28
4, 122921, Note_on_c, 9, 59, 40
4, 123033, Note_on_c, 9, 38, 0
4, 123117, Note_on_c, 9, 59, 0
4, 123315, Note_on_c, 9, 38, 43
4, 123323, Note_on_c, 9, 40, 0
4, 123429, Note_on_c, 9, 38, 0
4, 123813, Note_on_c, 9, 38, 37
4, 123824, Note_on_c, 9, 44, 48
4, 123942, Note_on_c, 9, 38, 0
4, 124144, Note_on_c, 9, 44, 0
4, 124372, Note_on_c, 9, 38, 62
4, 124393, Note_on_c, 9, 40, 27
4, 124539, Note_on_c, 9, 38, 0
4, 124620, Note_on_c, 9, 40, 0
4, 124896, Note_on_c, 9, 38, 36
4, 125025, Note_on_c, 9, 38, 0
4, 125381, Note_on_c, 9, 38, 31
4, 125500, Note_on_c, 9, 38, 0
4, 125725, Note_on_c, 9, 44, 46
4, 125820, Note_on_c, 9, 38, 51
4, 125845, Note_on_c, 9, 40, 26
4, 126003, Note_on_c, 9, 38, 0
4, 126088, Note_on_c, 9, 40, 0
4, 126250, Note_on_c, 9, 44, 0
4, 126344, Note_on_c, 9, 38, 34
4, 126515, Note_on_c, 9, 38, 0
4, 126798, Note_on_c, 9, 38, 32
4, 126962, Note_on_c, 9, 38, 0
4, 127274, Note_on_c, 9, 40, 31
4, 127278, Note_on_c, 9, 38, 52
4, 127474, Note_on_c, 9, 38, 0
4, 127544, Note_on_c, 9, 40, 0
4, 127711, Note_on_c, 9, 44, 40
4, 127794, Note_on_c, 9, 38, 31
4, 127991, Note_on_c, 9, 38, 0
4, 128071, Note_on_c, 9, 44, 0
4, 128243, Note_on_c, 9, 38, 31
4, 128501, Note_on_c, 9, 38, 0
4, 128730, Note_on_c, 9, 40, 22
4, 128734, Note_on_c, 9, 38, 47
4, 129088, Note_on_c, 9, 38, 0
4, 129242, Note_on_c, 9, 38, 35
4, 129416, Note_on_c, 9, 38, 0
4, 129589, Note_on_c, 9, 46, 17
4, 129641, Note_on_c, 9, 38, 35
4, 129789, Note_on_c, 9, 38, 0
4, 130050, Note_on_c, 9, 46, 0
4, 130132, Note_on_c, 9, 38, 38
4, 130313, Note_on_c, 9, 38, 0
4, 130373, Note_on_c, 9, 40, 0
4, 130589, Note_on_c, 9, 40, 18
4, 130602, Note_on_c, 9, 38, 53
4, 130824, Note_on_c, 9, 38, 0
4, 131103, Note_on_c, 9, 38, 38
4, 131232, Note_on_c, 9, 38, 0
4, 131575, Note_on_c, 9, 38, 25
4, 131589, Note_on_c, 9, 44, 40
4, 131713, Note_on_c, 9, 38, 0
4, 131719, Note_on_c, 9, 40, 0
4, 131938, Note_on_c, 9, 44, 0
4, 132006, Note_on_c, 9, 38, 52
4, 132052, Note_on_c, 9, 40, 24
4, 132228, Note_on_c, 9, 38, 0
4, 132474, Note_on_c, 9, 38, 33
4, 132644, Note_on_c, 9, 38, 0
4, 132838, Note_on_c, 9, 40, 0
4, 132981, Note_on_c, 9, 38, 40
4, 133110, Note_on_c, 9, 38, 0
4, 133389, Note_on_c, 9, 38, 50
4, 133420, Note_on_c, 9, 44, 48
4, 133431, Note_on_c, 9, 40, 23
4, 133620, Note_on_c, 9, 38, 0
4, 133826, Note_on_c, 9, 44, 0
4, 133922, Note_on_c, 9, 38, 40
4, 134075, Note_on_c, 9, 38, 0
4, 134371, Note_on_c, 9, 38, 36
4, 134373, Note_on_c, 9, 40, 0
4, 134573, Note_on_c, 9, 38, 0
4, 134797, Note_on_c, 9, 39, 59
4, 134830, Note_on_c, 9, 40, 26
4, 135014, Note_on_c, 9, 39, 0
4, 135151, Note_on_c, 9, 40, 0
4, 135271, Note_on_c, 9, 38, 28
4, 135312, Note_on_c, 9, 44, 51
4, 135500, Note_on_c, 9, 38, 0
4, 135701, Note_on_c, 9, 44, 0
4, 135742, Note_on_c, 9, 38, 34
4, 135800, Note_on_c, 9, 40, 18
4, 135997, Note_on_c, 9, 38, 0
4, 136122, Note_on_c, 9, 40, 0
4, 136237, Note_on_c, 9, 38, 30
4, 136486, Note_on_c, 9, 38, 0
4, 136761, Note_on_c, 9, 38, 34
4, 136983, Note_on_c, 9, 38, 0
4, 137206, Note_on_c, 9, 38, 47
4, 137216, Note_on_c, 9, 40, 25
4, 137247, Note_on_c, 9, 44, 50
4, 137510, Note_on_c, 9, 38, 0
4, 137690, Note_on_c, 9, 44, 0
4, 137696, Note_on_c, 9, 53, 20
4, 137740, Note_on_c, 9, 40, 0
4, 137784, Note_on_c, 9, 38, 19
4, 137971, Note_on_c, 9, 53, 0
4, 138044, Note_on_c, 9, 38, 0
4, 138187, Note_on_c, 9, 53, 28
4, 138263, Note_on_c, 9, 38, 34
4, 138500, Note_on_c, 9, 38, 0
4, 138776, Note_on_c, 9, 38, 42
4, 138826, Note_on_c, 9, 40, 23
4, 138842, Note_on_c, 9, 53, 0
4, 139013, Note_on_c, 9, 38, 0
4, 139182, Note_on_c, 9, 44, 44
4, 139215, Note_on_c, 9, 38, 28
4, 139483, Note_on_c, 9, 38, 0
4, 139539, Note_on_c, 9, 44, 0
4, 139714, Note_on_c, 9, 38, 45
4, 139904, Note_on_c, 9, 38, 0
4, 140024, Note_on_c, 9, 40, 0
4, 140159, Note_on_c, 9, 38, 46
4, 140189, Note_on_c, 9, 40, 18
4, 140355, Note_on_c, 9, 38, 0
4, 140655, Note_on_c, 9, 38, 33
4, 140773, Note_on_c, 9, 38, 0
4, 140939, Note_on_c, 9, 40, 0
4, 141071, Note_on_c, 9, 38, 41
4, 141104, Note_on_c, 9, 40, 19
4, 141104, Note_on_c, 9, 44, 49
4, 141335, Note_on_c, 9, 38, 0
4, 141491, Note_on_c, 9, 44, 0
4, 141576, Note_on_c, 9, 38, 38
4, 141744, Note_on_c, 9, 38, 0
4, 142021, Note_on_c, 9, 38, 34
4, 142239, Note_on_c, 9, 38, 0
4, 142343, Note_on_c, 9, 40, 0
4, 142508, Note_on_c, 9, 38, 32
4, 142603, Note_on_c, 9, 40, 18
4, 142691, Note_on_c, 9, 38, 0
4, 142951, Note_on_c, 9, 38, 36
4, 143026, Note_on_c, 9, 44, 38
4, 143255, Note_on_c, 9, 38, 0
4, 143399, Note_on_c, 9, 44, 0
4, 143496, Note_on_c, 9, 38, 34
4, 143671, Note_on_c, 9, 40, 0
4, 143725, Note_on_c, 9, 38, 0
4, 143953, Note_on_c, 9, 40, 18
4, 143997, Note_on_c, 9, 38, 42
4, 144257, Note_on_c, 9, 38, 0
4, 144488, Note_on_c, 9, 38, 35
4, 144644, Note_on_c, 9, 38, 0
4, 144937, Note_on_c, 9, 38, 30
4, 144968, Note_on_c, 9, 44, 45
4, 145097, Note_on_c, 9, 38, 0
4, 145384, Note_on_c, 9, 38, 40
4, 145388, Note_on_c, 9, 44, 0
4, 145459, Note_on_c, 9, 36, 44
4, 145595, Note_on_c, 9, 38, 0
4, 145647, Note_on_c, 9, 40, 0
4, 145685, Note_on_c, 9, 36, 0
4, 145869, Note_on_c, 9, 40, 23
4, 145871, Note_on_c, 9, 38, 47
4, 146094, Note_on_c, 9, 38, 0
4, 146402, Note_on_c, 9, 38, 36
4, 146549, Note_on_c, 9, 38, 0
4, 146873, Note_on_c, 9, 44, 38
4, 146895, Note_on_c, 9, 38, 24
4, 147013, Note_on_c, 9, 38, 0
4, 147203, Note_on_c, 9, 44, 0
4, 147371, Note_on_c, 9, 38, 38
4, 147519, Note_on_c, 9, 38, 0
4, 147858, Note_on_c, 9, 38, 44
4, 147995, Note_on_c, 9, 38, 0
4, 148134, Note_on_c, 9, 40, 0
4, 148315, Note_on_c, 9, 38, 65
4, 148346, Note_on_c, 9, 40, 29
4, 148527, Note_on_c, 9, 38, 0
4, 148762, Note_on_c, 9, 38, 36
4, 148819, Note_on_c, 9, 44, 49
4, 148935, Note_on_c, 9, 38, 0
4, 149131, Note_on_c, 9, 44, 0
4, 149255, Note_on_c, 9, 38, 35
4, 149397, Note_on_c, 9, 38, 0
4, 149468, Note_on_c, 9, 40, 0
4, 149734, Note_on_c, 9, 38, 60
4, 149744, Note_on_c, 9, 40, 24
4, 149958, Note_on_c, 9, 38, 0
4, 150221, Note_on_c, 9, 38, 38
4, 150385, Note_on_c, 9, 38, 0
4, 150691, Note_on_c, 9, 39, 60
4, 150694, Note_on_c, 9, 44, 49
4, 150936, Note_on_c, 9, 44, 0
4, 150951, Note_on_c, 9, 39, 0
4, 150990, Note_on_c, 9, 40, 0
4, 151213, Note_on_c, 9, 40, 18
4, 151227, Note_on_c, 9, 38, 35
4, 151448, Note_on_c, 9, 38, 0
4, 151605, Note_on_c, 9, 53, 45
4, 151662, Note_on_c, 9, 38, 34
4, 151771, Note_on_c, 9, 53, 0
4, 151939, Note_on_c, 9, 38, 0
4, 151978, Note_on_c, 9, 40, 0
4, 152146, Note_on_c, 9, 53, 53
4, 152161, Note_on_c, 9, 39, 64
4, 152180, Note_on_c, 9, 40, 27
4, 152321, Note_on_c, 9, 53, 0
4, 152556, Note_on_c, 9, 39, 0
4, 152625, Note_on_c, 9, 38, 34
4, 152629, Note_on_c, 9, 46, 21
4, 152870, Note_on_c, 9, 38, 0
4, 152877, Note_on_c, 9, 40, 0
4, 152985, Note_on_c, 9, 46, 0
4, 153086, Note_on_c, 9, 36, 36
4, 153101, Note_on_c, 9, 38, 44
4, 153162, Note_on_c, 9, 40, 28
4, 153325, Note_on_c, 9, 36, 0
4, 153355, Note_on_c, 9, 38, 0
4, 153490, Note_on_c, 9, 40, 0
4, 153548, Note_on_c, 9, 38, 45
4, 153567, Note_on_c, 9, 36, 50
4, 153592, Note_on_c, 9, 40, 19
4, 153833, Note_on_c, 9, 36, 0
4, 153871, Note_on_c, 9, 38, 0
4, 154075, Note_on_c, 9, 38, 45
4, 154272, Note_on_c, 9, 38, 0
4, 154500, Note_on_c, 9, 44, 48
4, 154543, Note_on_c, 9, 38, 31
4, 154636, Note_on_c, 9, 40, 0
4, 154806, Note_on_c, 9, 44, 0
4, 154861, Note_on_c, 9, 38, 0
4, 155046, Note_on_c, 9, 40, 23
4, 155048, Note_on_c, 9, 38, 51
4, 155281, Note_on_c, 9, 38, 0
4, 155502, Note_on_c, 9, 38, 34
4, 155691, Note_on_c, 9, 38, 0
4, 155760, Note_on_c, 9, 40, 0
4, 156003, Note_on_c, 9, 38, 32
4, 156092, Note_on_c, 9, 40, 17
4, 156219, Note_on_c, 9, 38, 0
4, 156389, Note_on_c, 9, 44, 46
4, 156417, Note_on_c, 9, 38, 42
4, 156662, Note_on_c, 9, 38, 0
4, 156758, Note_on_c, 9, 44, 0
4, 156824, Note_on_c, 9, 40, 0
4, 156931, Note_on_c, 9, 39, 64
4, 157184, Note_on_c, 9, 40, 14
4, 157211, Note_on_c, 9, 39, 0
4, 157399, Note_on_c, 9, 38, 30
4, 157729, Note_on_c, 9, 38, 0
4, 157750, Note_on_c, 9, 40, 0
4, 157919, Note_on_c, 9, 38, 40
4, 158162, Note_on_c, 9, 38, 0
4, 158347, Note_on_c, 9, 38, 37
4, 158371, Note_on_c, 9, 46, 29
4, 158418, Note_on_c, 9, 40, 14
4, 158586, Note_on_c, 9, 38, 0
4, 158640, Note_on_c, 9, 46, 0
4, 158699, Note_on_c, 9, 40, 0
4, 158867, Note_on_c, 9, 38, 56
4, 158915, Note_on_c, 9, 40, 27
4, 159214, Note_on_c, 9, 38, 0
4, 159372, Note_on_c, 9, 38, 37
4, 159662, Note_on_c, 9, 38, 0
4, 159844, Note_on_c, 9, 53, 32
4, 159845, Note_on_c, 9, 38, 46
4, 159952, Note_on_c, 9, 53, 0
4, 160088, Note_on_c, 9, 40, 0
4, 160113, Note_on_c, 9, 38, 0
4, 160206, Note_on_c, 9, 44, 52
4, 160283, Note_on_c, 9, 36, 35
4, 160315, Note_on_c, 9, 38, 44
4, 160325, Note_on_c, 9, 40, 20
4, 160478, Note_on_c, 9, 36, 0
4, 160495, Note_on_c, 9, 44, 0
4, 160662, Note_on_c, 9, 38, 0
4, 160810, Note_on_c, 9, 40, 0
4, 160822, Note_on_c, 9, 39, 60
4, 160855, Note_on_c, 9, 36, 27
4, 161038, Note_on_c, 9, 36, 0
4, 161165, Note_on_c, 9, 39, 0
4, 161228, Note_on_c, 9, 40, 18
4, 161255, Note_on_c, 9, 38, 36
4, 161567, Note_on_c, 9, 38, 0
4, 161692, Note_on_c, 9, 40, 0
4, 161775, Note_on_c, 9, 38, 40
4, 162002, Note_on_c, 9, 38, 0
4, 162151, Note_on_c, 9, 44, 46
4, 162203, Note_on_c, 9, 40, 15
4, 162230, Note_on_c, 9, 38, 36
4, 162432, Note_on_c, 9, 38, 0
4, 162447, Note_on_c, 9, 40, 0
4, 162460, Note_on_c, 9, 44, 0
4, 162715, Note_on_c, 9, 38, 60
4, 162757, Note_on_c, 9, 40, 21
4, 163356, Note_on_c, 9, 38, 0
4, 163572, Note_on_c, 9, 38, 49
4, 163761, Note_on_c, 9, 40, 0
4, 163826, Note_on_c, 9, 38, 0
4, 164013, Note_on_c, 9, 44, 48
4, 164096, Note_on_c, 9, 38, 50
4, 164098, Note_on_c, 9, 40, 19
4, 164379, Note_on_c, 9, 44, 0
4, 164410, Note_on_c, 9, 38, 0
4, 164622, Note_on_c, 9, 38, 37
4, 164774, Note_on_c, 9, 38, 0
4, 165084, Note_on_c, 9, 38, 27
4, 165211, Note_on_c, 9, 38, 0
4, 165546, Note_on_c, 9, 38, 54
4, 165725, Note_on_c, 9, 38, 0
4, 165938, Note_on_c, 9, 44, 44
4, 166051, Note_on_c, 9, 38, 25
4, 166166, Note_on_c, 9, 38, 0
4, 166328, Note_on_c, 9, 44, 0
4, 166492, Note_on_c, 9, 38, 62
4, 166494, Note_on_c, 9, 40, 0
4, 166644, Note_on_c, 9, 38, 0
4, 166981, Note_on_c, 9, 38, 44
4, 167016, Note_on_c, 9, 40, 19
4, 167087, Note_on_c, 9, 38, 0
4, 167474, Note_on_c, 9, 38, 71
4, 167645, Note_on_c, 9, 38, 0
4, 167897, Note_on_c, 9, 44, 50
4, 167952, Note_on_c, 9, 38, 33
4, 168073, Note_on_c, 9, 38, 0
4, 168202, Note_on_c, 9, 40, 0
4, 168337, Note_on_c, 9, 44, 0
4, 168399, Note_on_c, 9, 59, 36
4, 168475, Note_on_c, 9, 38, 72
4, 168501, Note_on_c, 9, 59, 0
4, 168527, Note_on_c, 9, 40, 23
4, 168643, Note_on_c, 9, 38, 0
4, 168967, Note_on_c, 9, 38, 57
4, 169115, Note_on_c, 9, 38, 0
4, 169334, Note_on_c, 9, 40, 0
4, 169417, Note_on_c, 9, 38, 66
4, 169419, Note_on_c, 9, 39, 58
4, 169467, Note_on_c, 9, 40, 17
4, 169616, Note_on_c, 9, 38, 0
4, 169710, Note_on_c, 9, 39, 0
4, 169843, Note_on_c, 9, 38, 29
4, 169863, Note_on_c, 9, 36, 38
4, 169909, Note_on_c, 9, 44, 49
4, 170072, Note_on_c, 9, 38, 0
4, 170151, Note_on_c, 9, 40, 0
4, 170219, Note_on_c, 9, 44, 0
4, 170392, Note_on_c, 9, 38, 47
4, 170453, Note_on_c, 9, 40, 14
4, 170491, Note_on_c, 9, 36, 0
4, 170600, Note_on_c, 9, 38, 0
4, 170854, Note_on_c, 9, 38, 41
4, 171149, Note_on_c, 9, 38, 0
4, 171195, Note_on_c, 9, 40, 0
4, 171343, Note_on_c, 9, 38, 40
4, 171351, Note_on_c, 9, 39, 57
4, 171387, Note_on_c, 9, 40, 23
4, 171534, Note_on_c, 9, 38, 0
4, 171669, Note_on_c, 9, 39, 0
4, 171781, Note_on_c, 9, 44, 48
4, 171796, Note_on_c, 9, 38, 29
4, 172033, Note_on_c, 9, 40, 0
4, 172060, Note_on_c, 9, 38, 0
4, 172231, Note_on_c, 9, 44, 0
4, 172323, Note_on_c, 9, 38, 18
4, 172366, Note_on_c, 9, 40, 11
4, 172570, Note_on_c, 9, 38, 0
4, 172637, Note_on_c, 9, 40, 0
4, 172786, Note_on_c, 9, 39, 60
4, 172832, Note_on_c, 9, 40, 24
4, 173121, Note_on_c, 9, 39, 0
4, 173292, Note_on_c, 9, 38, 31
4, 173437, Note_on_c, 9, 38, 0
4, 173439, Note_on_c, 9, 40, 0
4, 173666, Note_on_c, 9, 40, 14
4, 173699, Note_on_c, 9, 38, 40
4, 173753, Note_on_c, 9, 44, 51
4, 174022, Note_on_c, 9, 38, 0
4, 174072, Note_on_c, 9, 40, 0
4, 174170, Note_on_c, 9, 44, 0
4, 174255, Note_on_c, 9, 38, 50
4, 174305, Note_on_c, 9, 40, 18
4, 174507, Note_on_c, 9, 38, 0
4, 174742, Note_on_c, 9, 38, 31
4, 174823, Note_on_c, 9, 40, 0
4, 174947, Note_on_c, 9, 38, 0
4, 175247, Note_on_c, 9, 38, 60
4, 175455, Note_on_c, 9, 38, 0
4, 175652, Note_on_c, 9, 44, 51
4, 175673, Note_on_c, 9, 38, 46
4, 175904, Note_on_c, 9, 38, 0
4, 176082, Note_on_c, 9, 44, 0
4, 176127, Note_on_c, 9, 40, 27
4, 176129, Note_on_c, 9, 38, 61
4, 176236, Note_on_c, 9, 36, 20
4, 176399, Note_on_c, 9, 38, 0
4, 176411, Note_on_c, 9, 36, 0
4, 176595, Note_on_c, 9, 38, 39
4, 176836, Note_on_c, 9, 38, 0
4, 176884, Note_on_c, 9, 40, 0
4, 177125, Note_on_c, 9, 38, 54
4, 177340, Note_on_c, 9, 38, 0
4, 177550, Note_on_c, 9, 44, 56
4, 177554, Note_on_c, 9, 38, 53
4, 177589, Note_on_c, 9, 40, 28
4, 177860, Note_on_c, 9, 38, 0
4, 177980, Note_on_c, 9, 44, 0
4, 178065, Note_on_c, 9, 38, 42
4, 178267, Note_on_c, 9, 38, 0
4, 178548, Note_on_c, 9, 38, 45
4, 178777, Note_on_c, 9, 38, 0
4, 178791, Note_on_c, 9, 40, 0
4, 178999, Note_on_c, 9, 38, 47
4, 179014, Note_on_c, 9, 39, 53
4, 179028, Note_on_c, 9, 40, 24
4, 179084, Note_on_c, 9, 36, 31
4, 179213, Note_on_c, 9, 36, 0
4, 179268, Note_on_c, 9, 38, 0
4, 179359, Note_on_c, 9, 39, 0
4, 179453, Note_on_c, 9, 40, 0
4, 179455, Note_on_c, 9, 44, 56
4, 179476, Note_on_c, 9, 38, 33
4, 179723, Note_on_c, 9, 38, 0
4, 179932, Note_on_c, 9, 44, 0
4, 179975, Note_on_c, 9, 38, 58
4, 179978, Note_on_c, 9, 53, 26
4, 180025, Note_on_c, 9, 40, 22
4, 180161, Note_on_c, 9, 53, 0
4, 180256, Note_on_c, 9, 38, 0
4, 180432, Note_on_c, 9, 53, 19
4, 180443, Note_on_c, 9, 38, 39
4, 180539, Note_on_c, 9, 40, 0
4, 180561, Note_on_c, 9, 53, 0
4, 180699, Note_on_c, 9, 38, 0
4, 180879, Note_on_c, 9, 36, 40
4, 180900, Note_on_c, 9, 39, 64
4, 180996, Note_on_c, 9, 40, 29
4, 181087, Note_on_c, 9, 36, 0
4, 181281, Note_on_c, 9, 39, 0
4, 181340, Note_on_c, 9, 44, 62
4, 181381, Note_on_c, 9, 38, 24
4, 181448, Note_on_c, 9, 40, 0
4, 181595, Note_on_c, 9, 38, 0
4, 181767, Note_on_c, 9, 44, 0
4, 181872, Note_on_c, 9, 38, 43
4, 181886, Note_on_c, 9, 53, 38
4, 182052, Note_on_c, 9, 53, 0
4, 182094, Note_on_c, 9, 38, 0
4, 182300, Note_on_c, 9, 53, 30
4, 182327, Note_on_c, 9, 38, 51
4, 182329, Note_on_c, 9, 40, 22
4, 182625, Note_on_c, 9, 38, 0
4, 182684, Note_on_c, 9, 53, 0
4, 182820, Note_on_c, 9, 36, 33
4, 182835, Note_on_c, 9, 38, 42
4, 182937, Note_on_c, 9, 40, 0
4, 182971, Note_on_c, 9, 36, 0
4, 183030, Note_on_c, 9, 38, 0
4, 183301, Note_on_c, 9, 40, 22
4, 183305, Note_on_c, 9, 38, 57
4, 183316, Note_on_c, 9, 44, 51
4, 183325, Note_on_c, 9, 53, 28
4, 183485, Note_on_c, 9, 53, 0
4, 183588, Note_on_c, 9, 38, 0
4, 183754, Note_on_c, 9, 36, 62
4, 183806, Note_on_c, 9, 38, 42
4, 183860, Note_on_c, 9, 44, 0
4, 183997, Note_on_c, 9, 36, 0
4, 184002, Note_on_c, 9, 38, 0
4, 184238, Note_on_c, 9, 51, 47
4, 184278, Note_on_c, 9, 38, 49
4, 184478, Note_on_c, 9, 38, 0
4, 184513, Note_on_c, 9, 40, 0
4, 184527, Note_on_c, 9, 51, 0
4, 184805, Note_on_c, 9, 38, 33
4, 184959, Note_on_c, 9, 38, 0
4, 185211, Note_on_c, 9, 44, 56
4, 185235, Note_on_c, 9, 38, 59
4, 185285, Note_on_c, 9, 40, 26
4, 185560, Note_on_c, 9, 38, 0
4, 185641, Note_on_c, 9, 44, 0
4, 185759, Note_on_c, 9, 38, 42
4, 185813, Note_on_c, 9, 36, 33
4, 185923, Note_on_c, 9, 36, 0
4, 185963, Note_on_c, 9, 38, 0
4, 186001, Note_on_c, 9, 40, 0
4, 186248, Note_on_c, 9, 38, 36
4, 186394, Note_on_c, 9, 38, 0
4, 186706, Note_on_c, 9, 38, 62
4, 186745, Note_on_c, 9, 40, 25
4, 186772, Note_on_c, 9, 53, 37
4, 186919, Note_on_c, 9, 53, 0
4, 186935, Note_on_c, 9, 38, 0
4, 187134, Note_on_c, 9, 38, 44
4, 187193, Note_on_c, 9, 44, 60
4, 187217, Note_on_c, 9, 40, 0
4, 187344, Note_on_c, 9, 38, 0
4, 187647, Note_on_c, 9, 44, 0
4, 187650, Note_on_c, 9, 38, 48
4, 187695, Note_on_c, 9, 51, 33
4, 187810, Note_on_c, 9, 51, 0
4, 187827, Note_on_c, 9, 38, 0
4, 188097, Note_on_c, 9, 51, 34
4, 188097, Note_on_c, 9, 40, 25
4, 188104, Note_on_c, 9, 38, 48
4, 188294, Note_on_c, 9, 51, 0
4, 188576, Note_on_c, 9, 40, 0
4, 188592, Note_on_c, 9, 39, 64
4, 188690, Note_on_c, 9, 38, 0
4, 188865, Note_on_c, 9, 39, 0
4, 189002, Note_on_c, 9, 40, 18
4, 189013, Note_on_c, 9, 38, 47
4, 189095, Note_on_c, 9, 44, 56
4, 189254, Note_on_c, 9, 38, 0
4, 189337, Note_on_c, 9, 40, 0
4, 189522, Note_on_c, 9, 38, 33
4, 189525, Note_on_c, 9, 44, 0
4, 189532, Note_on_c, 9, 53, 48
4, 189738, Note_on_c, 9, 53, 0
4, 189745, Note_on_c, 9, 38, 0
4, 190003, Note_on_c, 9, 39, 57
4, 190019, Note_on_c, 9, 40, 20
4, 190048, Note_on_c, 9, 38, 32
4, 190138, Note_on_c, 9, 38, 0
4, 190392, Note_on_c, 9, 40, 0
4, 190402, Note_on_c, 9, 39, 0
4, 190543, Note_on_c, 9, 38, 26
4, 190584, Note_on_c, 9, 51, 25
4, 190672, Note_on_c, 9, 51, 0
4, 190749, Note_on_c, 9, 38, 0
4, 190963, Note_on_c, 9, 44, 60
4, 191013, Note_on_c, 9, 38, 50
4, 191038, Note_on_c, 9, 40, 18
4, 191261, Note_on_c, 9, 38, 0
4, 191267, Note_on_c, 9, 40, 0
4, 191417, Note_on_c, 9, 44, 0
4, 191536, Note_on_c, 9, 38, 56
4, 191585, Note_on_c, 9, 40, 21
4, 191846, Note_on_c, 9, 38, 0
4, 191987, Note_on_c, 9, 40, 0
4, 192004, Note_on_c, 9, 38, 37
4, 192205, Note_on_c, 9, 38, 0
4, 192488, Note_on_c, 9, 38, 57
4, 192719, Note_on_c, 9, 38, 0
4, 192882, Note_on_c, 9, 44, 56
4, 192921, Note_on_c, 9, 38, 55
4, 192975, Note_on_c, 9, 40, 25
4, 193268, Note_on_c, 9, 38, 0
4, 193268, Note_on_c, 9, 44, 0
4, 193418, Note_on_c, 9, 38, 33
4, 193534, Note_on_c, 9, 40, 0
4, 193665, Note_on_c, 9, 38, 0
4, 193882, Note_on_c, 9, 38, 33
4, 194123, Note_on_c, 9, 38, 0
4, 194375, Note_on_c, 9, 38, 51
4, 194387, Note_on_c, 9, 53, 46
4, 194400, Note_on_c, 9, 40, 24
4, 194686, Note_on_c, 9, 53, 0
4, 194701, Note_on_c, 9, 38, 0
4, 194774, Note_on_c, 9, 40, 0
4, 194777, Note_on_c, 9, 44, 56
4, 194847, Note_on_c, 9, 39, 38
4, 195092, Note_on_c, 9, 39, 0
4, 195217, Note_on_c, 9, 44, 0
4, 195302, Note_on_c, 9, 38, 57
4, 195323, Note_on_c, 9, 40, 26
4, 195337, Note_on_c, 9, 36, 22
4, 195452, Note_on_c, 9, 36, 0
4, 195596, Note_on_c, 9, 38, 0
4, 195704, Note_on_c, 9, 40, 0
4, 195727, Note_on_c, 9, 38, 34
4, 195786, Note_on_c, 9, 36, 40
4, 195941, Note_on_c, 9, 38, 0
4, 195976, Note_on_c, 9, 36, 0
4, 196213, Note_on_c, 9, 39, 56
4, 196240, Note_on_c, 9, 40, 28
4, 196584, Note_on_c, 9, 40, 0
4, 196586, Note_on_c, 9, 39, 0
4, 196702, Note_on_c, 9, 38, 29
4, 196712, Note_on_c, 9, 44, 55
4, 196975, Note_on_c, 9, 38, 0
4, 197142, Note_on_c, 9, 44, 0
4, 197210, Note_on_c, 9, 38, 38
4, 197461, Note_on_c, 9, 38, 0
4, 197678, Note_on_c, 9, 38, 47
4, 197690, Note_on_c, 9, 40, 27
4, 197998, Note_on_c, 9, 38, 0
4, 198131, Note_on_c, 9, 40, 0
4, 198144, Note_on_c, 9, 39, 59
4, 198180, Note_on_c, 9, 53, 51
4, 198435, Note_on_c, 9, 39, 0
4, 198486, Note_on_c, 9, 53, 0
4, 198624, Note_on_c, 9, 38, 48
4, 198624, Note_on_c, 9, 44, 55
4, 198668, Note_on_c, 9, 40, 15
4, 198678, Note_on_c, 9, 51, 25
4, 198850, Note_on_c, 9, 51, 0
4, 198899, Note_on_c, 9, 38, 0
4, 198938, Note_on_c, 9, 40, 0
4, 199108, Note_on_c, 9, 44, 0
4, 199113, Note_on_c, 9, 38, 44
4, 199179, Note_on_c, 9, 36, 44
4, 199346, Note_on_c, 9, 38, 0
4, 199420, Note_on_c, 9, 36, 0
4, 199623, Note_on_c, 9, 40, 23
4, 199633, Note_on_c, 9, 38, 57
4, 199641, Note_on_c, 9, 36, 40
4, 199890, Note_on_c, 9, 36, 0
4, 199926, Note_on_c, 9, 38, 0
4, 199980, Note_on_c, 9, 40, 0
4, 200140, Note_on_c, 9, 38, 42
4, 200328, Note_on_c, 9, 38, 0
4, 200529, Note_on_c, 9, 44, 50
4, 200640, Note_on_c, 9, 38, 49
4, 200652, Note_on_c, 9, 40, 20
4, 200900, Note_on_c, 9, 38, 0
4, 200932, Note_on_c, 9, 44, 0
4, 200954, Note_on_c, 9, 40, 0
4, 201089, Note_on_c, 9, 39, 46
4, 201151, Note_on_c, 9, 53, 48
4, 201317, Note_on_c, 9, 53, 0
4, 201380, Note_on_c, 9, 39, 0
4, 201544, Note_on_c, 9, 38, 44
4, 201592, Note_on_c, 9, 40, 13
4, 201771, Note_on_c, 9, 38, 0
4, 201784, Note_on_c, 9, 40, 0
4, 202060, Note_on_c, 9, 53, 31
4, 202062, Note_on_c, 9, 38, 55
4, 202087, Note_on_c, 9, 40, 26
4, 202220, Note_on_c, 9, 53, 0
4, 202322, Note_on_c, 9, 38, 0
4, 202439, Note_on_c, 9, 40, 0
4, 202515, Note_on_c, 9, 44, 50
4, 202732, Note_on_c, 9, 38, 51
4, 202888, Note_on_c, 9, 44, 0
4, 202911, Note_on_c, 9, 38, 0
4, 203190, Note_on_c, 9, 38, 40
4, 203369, Note_on_c, 9, 38, 0
4, 203604, Note_on_c, 9, 38, 54
4, 203614, Note_on_c, 9, 40, 26
4, 203955, Note_on_c, 9, 38, 0
4, 204040, Note_on_c, 9, 40, 0
4, 204117, Note_on_c, 9, 38, 33
4, 204284, Note_on_c, 9, 38, 0
4, 204427, Note_on_c, 9, 44, 56
4, 204546, Note_on_c, 9, 38, 45
4, 204756, Note_on_c, 9, 38, 0
4, 204759, Note_on_c, 9, 44, 0
4, 204979, Note_on_c, 9, 39, 58
4, 205012, Note_on_c, 9, 40, 28
4, 205291, Note_on_c, 9, 39, 0
4, 205405, Note_on_c, 9, 40, 0
4, 205465, Note_on_c, 9, 38, 24
4, 205677, Note_on_c, 9, 38, 0
4, 205940, Note_on_c, 9, 38, 42
4, 205985, Note_on_c, 9, 40, 20
4, 206189, Note_on_c, 9, 38, 0
4, 206200, Note_on_c, 9, 40, 0
4, 206376, Note_on_c, 9, 44, 55
4, 206391, Note_on_c, 9, 38, 37
4, 206616, Note_on_c, 9, 38, 0
4, 206725, Note_on_c, 9, 44, 0
4, 206853, Note_on_c, 9, 38, 35
4, 207079, Note_on_c, 9, 38, 0
4, 207310, Note_on_c, 9, 38, 53
4, 207327, Note_on_c, 9, 40, 25
4, 207724, Note_on_c, 9, 38, 0
4, 207757, Note_on_c, 9, 40, 0
4, 207870, Note_on_c, 9, 39, 56
4, 208094, Note_on_c, 9, 39, 0
4, 208232, Note_on_c, 9, 40, 17
4, 208236, Note_on_c, 9, 38, 35
4, 208314, Note_on_c, 9, 44, 56
4, 208502, Note_on_c, 9, 40, 0
4, 208517, Note_on_c, 9, 38, 0
4, 208623, Note_on_c, 9, 44, 0
4, 208787, Note_on_c, 9, 38, 46
4, 208824, Note_on_c, 9, 40, 25
4, 209280, Note_on_c, 9, 38, 0
4, 209324, Note_on_c, 9, 40, 0
4, 209677, Note_on_c, 9, 39, 58
4, 209700, Note_on_c, 9, 40, 27
4, 210048, Note_on_c, 9, 39, 0
4, 210097, Note_on_c, 9, 40, 0
4, 210143, Note_on_c, 9, 38, 34
4, 210246, Note_on_c, 9, 44, 57
4, 210439, Note_on_c, 9, 38, 0
4, 210640, Note_on_c, 9, 38, 32
4, 210697, Note_on_c, 9, 44, 0
4, 210888, Note_on_c, 9, 38, 0
4, 211115, Note_on_c, 9, 38, 49
4, 211125, Note_on_c, 9, 40, 27
4, 211139, Note_on_c, 9, 53, 50
4, 211572, Note_on_c, 9, 40, 0
4, 211589, Note_on_c, 9, 38, 0
4, 211601, Note_on_c, 9, 39, 49
4, 211692, Note_on_c, 9, 53, 0
4, 211849, Note_on_c, 9, 39, 0
4, 212074, Note_on_c, 9, 38, 46
4, 212114, Note_on_c, 9, 44, 58
4, 212128, Note_on_c, 9, 40, 20
4, 212386, Note_on_c, 9, 38, 0
4, 212406, Note_on_c, 9, 40, 0
4, 212467, Note_on_c, 9, 44, 0
4, 212589, Note_on_c, 9, 38, 46
4, 212603, Note_on_c, 9, 53, 48
4, 212621, Note_on_c, 9, 40, 24
4, 212705, Note_on_c, 9, 53, 0
4, 213055, Note_on_c, 9, 53, 50
4, 213388, Note_on_c, 9, 40, 0
4, 213444, Note_on_c, 9, 38, 0
4, 213460, Note_on_c, 9, 53, 0
4, 213623, Note_on_c, 9, 39, 44
4, 213667, Note_on_c, 9, 40, 29
4, 213985, Note_on_c, 9, 40, 0
4, 213993, Note_on_c, 9, 39, 0
4, 214050, Note_on_c, 9, 44, 59
4, 214085, Note_on_c, 9, 38, 36
4, 214316, Note_on_c, 9, 38, 0
4, 214433, Note_on_c, 9, 44, 0
4, 214550, Note_on_c, 9, 53, 44
4, 214582, Note_on_c, 9, 38, 41
4, 214752, Note_on_c, 9, 53, 0
4, 214788, Note_on_c, 9, 38, 0
4, 215040, Note_on_c, 9, 40, 24
4, 215044, Note_on_c, 9, 38, 57
4, 215395, Note_on_c, 9, 40, 0
4, 215429, Note_on_c, 9, 38, 0
4, 215540, Note_on_c, 9, 53, 29
4, 215555, Note_on_c, 9, 39, 46
4, 215628, Note_on_c, 9, 53, 0
4, 215763, Note_on_c, 9, 39, 0
4, 215948, Note_on_c, 9, 44, 54
4, 215961, Note_on_c, 9, 38, 53
4, 215994, Note_on_c, 9, 40, 22
4, 216000, Note_on_c, 9, 53, 45
4, 216110, Note_on_c, 9, 53, 0
4, 216246, Note_on_c, 9, 38, 0
4, 216256, Note_on_c, 9, 40, 0
4, 216274, Note_on_c, 9, 44, 0
4, 216460, Note_on_c, 9, 38, 44
4, 216514, Note_on_c, 9, 40, 18
4, 216708, Note_on_c, 9, 38, 0
4, 216745, Note_on_c, 9, 40, 0
4, 216916, Note_on_c, 9, 38, 36
4, 216955, Note_on_c, 9, 40, 21
4, 217253, Note_on_c, 9, 40, 0
4, 217267, Note_on_c, 9, 38, 0
4, 217446, Note_on_c, 9, 39, 55
4, 217721, Note_on_c, 9, 39, 0
4, 217829, Note_on_c, 9, 38, 36
4, 217845, Note_on_c, 9, 40, 19
4, 217884, Note_on_c, 9, 44, 53
4, 218166, Note_on_c, 9, 44, 0
4, 218212, Note_on_c, 9, 40, 0
4, 218220, Note_on_c, 9, 38, 0
4, 218393, Note_on_c, 9, 38, 42
4, 218459, Note_on_c, 9, 40, 18
4, 218669, Note_on_c, 9, 38, 0
4, 218740, Note_on_c, 9, 40, 0
4, 218858, Note_on_c, 9, 39, 56
4, 219235, Note_on_c, 9, 39, 0
4, 219347, Note_on_c, 9, 38, 45
4, 219374, Note_on_c, 9, 53, 36
4, 219376, Note_on_c, 9, 40, 19
4, 219419, Note_on_c, 9, 51, 26
4, 219553, Note_on_c, 9, 51, 0
4, 219598, Note_on_c, 9, 53, 0
4, 219605, Note_on_c, 9, 38, 0
4, 219775, Note_on_c, 9, 44, 56
4, 219809, Note_on_c, 9, 38, 35
4, 220058, Note_on_c, 9, 44, 0
4, 220071, Note_on_c, 9, 40, 0
4, 220131, Note_on_c, 9, 38, 0
4, 220329, Note_on_c, 9, 38, 59
4, 220341, Note_on_c, 9, 40, 31
4, 220620, Note_on_c, 9, 38, 0
4, 220801, Note_on_c, 9, 38, 44
4, 221084, Note_on_c, 9, 40, 0
4, 221173, Note_on_c, 9, 38, 0
4, 221262, Note_on_c, 9, 51, 29
4, 221296, Note_on_c, 9, 39, 64
4, 221307, Note_on_c, 9, 40, 30
4, 221325, Note_on_c, 9, 53, 24
4, 221422, Note_on_c, 9, 51, 0
4, 221437, Note_on_c, 9, 53, 0
4, 221617, Note_on_c, 9, 46, 18
4, 221621, Note_on_c, 9, 39, 0
4, 221723, Note_on_c, 9, 38, 37
4, 221745, Note_on_c, 9, 36, 27
4, 221863, Note_on_c, 9, 36, 0
4, 221899, Note_on_c, 9, 46, 0
4, 221931, Note_on_c, 9, 40, 0
4, 222030, Note_on_c, 9, 38, 0
4, 222188, Note_on_c, 9, 36, 44
4, 222238, Note_on_c, 9, 38, 47
4, 222251, Note_on_c, 9, 40, 19
4, 222421, Note_on_c, 9, 36, 0
4, 222480, Note_on_c, 9, 40, 0
4, 222503, Note_on_c, 9, 38, 0
4, 222688, Note_on_c, 9, 38, 54
4, 222702, Note_on_c, 9, 36, 42
4, 222709, Note_on_c, 9, 40, 22
4, 222939, Note_on_c, 9, 36, 0
4, 223106, Note_on_c, 9, 40, 0
4, 223162, Note_on_c, 9, 38, 0
4, 223179, Note_on_c, 9, 39, 60
4, 223468, Note_on_c, 9, 39, 0
4, 223542, Note_on_c, 9, 44, 57
4, 223609, Note_on_c, 9, 38, 44
4, 223632, Note_on_c, 9, 40, 19
4, 223855, Note_on_c, 9, 40, 0
4, 223865, Note_on_c, 9, 38, 0
4, 223874, Note_on_c, 9, 44, 0
4, 224110, Note_on_c, 9, 38, 55
4, 224140, Note_on_c, 9, 40, 30
4, 224414, Note_on_c, 9, 38, 0
4, 224570, Note_on_c, 9, 38, 32
4, 224811, Note_on_c, 9, 40, 0
4, 224843, Note_on_c, 9, 38, 0
4, 225061, Note_on_c, 9, 39, 62
4, 225086, Note_on_c, 9, 40, 29
4, 225379, Note_on_c, 9, 39, 0
4, 225481, Note_on_c, 9, 44, 54
4, 225498, Note_on_c, 9, 38, 36
4, 225702, Note_on_c, 9, 40, 0
4, 225789, Note_on_c, 9, 38, 0
4, 225840, Note_on_c, 9, 44, 0
4, 226032, Note_on_c, 9, 38, 45
4, 226230, Note_on_c, 9, 38, 0
4, 226455, Note_on_c, 9, 40, 29
4, 226461, Note_on_c, 9, 38, 55
4, 226806, Note_on_c, 9, 38, 0
4, 227014, Note_on_c, 9, 38, 35
4, 227143, Note_on_c, 9, 40, 0
4, 227176, Note_on_c, 9, 38, 0
4, 227376, Note_on_c, 9, 44, 56
4, 227436, Note_on_c, 9, 38, 41
4, 227451, Note_on_c, 9, 40, 20
4, 227692, Note_on_c, 9, 44, 0
4, 227703, Note_on_c, 9, 38, 0
4, 227813, Note_on_c, 9, 40, 0
4, 227946, Note_on_c, 9, 38, 53
4, 227963, Note_on_c, 9, 40, 31
4, 228218, Note_on_c, 9, 38, 0
4, 228397, Note_on_c, 9, 40, 0
4, 228462, Note_on_c, 9, 39, 35
4, 228620, Note_on_c, 9, 39, 0
4, 228898, Note_on_c, 9, 53, 46
4, 228901, Note_on_c, 9, 40, 28
4, 228911, Note_on_c, 9, 38, 66
4, 229064, Note_on_c, 9, 53, 0
4, 229202, Note_on_c, 9, 38, 0
4, 229215, Note_on_c, 9, 40, 0
4, 229287, Note_on_c, 9, 36, 44
4, 229314, Note_on_c, 9, 44, 53
4, 229394, Note_on_c, 9, 38, 39
4, 229419, Note_on_c, 9, 40, 13
4, 229541, Note_on_c, 9, 36, 0
4, 229608, Note_on_c, 9, 40, 0
4, 229622, Note_on_c, 9, 38, 0
4, 229704, Note_on_c, 9, 44, 0
4, 229790, Note_on_c, 9, 36, 46
4, 229855, Note_on_c, 9, 40, 26
4, 229860, Note_on_c, 9, 38, 51
4, 230065, Note_on_c, 9, 36, 0
4, 230107, Note_on_c, 9, 40, 0
4, 230111, Note_on_c, 9, 38, 0
4, 230307, Note_on_c, 9, 40, 23
4, 230328, Note_on_c, 9, 38, 52
4, 230375, Note_on_c, 9, 36, 26
4, 230504, Note_on_c, 9, 36, 0
4, 230652, Note_on_c, 9, 38, 0
4, 230677, Note_on_c, 9, 40, 0
4, 230806, Note_on_c, 9, 39, 46
4, 231053, Note_on_c, 9, 39, 0
4, 231216, Note_on_c, 9, 38, 55
4, 231230, Note_on_c, 9, 40, 28
4, 231236, Note_on_c, 9, 44, 49
4, 231319, Note_on_c, 9, 53, 34
4, 231511, Note_on_c, 9, 38, 0
4, 231596, Note_on_c, 9, 44, 0
4, 231661, Note_on_c, 9, 40, 0
4, 231673, Note_on_c, 9, 53, 0
4, 231713, Note_on_c, 9, 38, 36
4, 231779, Note_on_c, 9, 40, 9
4, 231781, Note_on_c, 9, 36, 39
4, 232006, Note_on_c, 9, 38, 0
4, 232049, Note_on_c, 9, 36, 0
4, 232185, Note_on_c, 9, 38, 43
4, 232435, Note_on_c, 9, 38, 0
4, 232462, Note_on_c, 9, 40, 0
4, 232688, Note_on_c, 9, 39, 61
4, 232696, Note_on_c, 9, 53, 45
4, 232720, Note_on_c, 9, 40, 28
4, 232996, Note_on_c, 9, 53, 0
4, 233013, Note_on_c, 9, 39, 0
4, 233152, Note_on_c, 9, 44, 50
4, 233154, Note_on_c, 9, 38, 30
4, 233195, Note_on_c, 9, 36, 25
4, 233410, Note_on_c, 9, 38, 0
4, 233414, Note_on_c, 9, 40, 0
4, 233420, Note_on_c, 9, 36, 0
4, 233524, Note_on_c, 9, 44, 0
4, 233678, Note_on_c, 9, 40, 25
4, 233687, Note_on_c, 9, 38, 50
4, 233932, Note_on_c, 9, 40, 0
4, 233934, Note_on_c, 9, 38, 0
4, 234138, Note_on_c, 9, 40, 24
4, 234159, Note_on_c, 9, 38, 35
4, 234417, Note_on_c, 9, 40, 0
4, 234427, Note_on_c, 9, 38, 0
4, 234652, Note_on_c, 9, 39, 60
4, 234677, Note_on_c, 9, 40, 32
4, 234981, Note_on_c, 9, 39, 0
4, 235067, Note_on_c, 9, 44, 51
4, 235124, Note_on_c, 9, 38, 27
4, 235288, Note_on_c, 9, 40, 0
4, 235355, Note_on_c, 9, 38, 0
4, 235396, Note_on_c, 9, 44, 0
4, 235646, Note_on_c, 9, 39, 63
4, 235663, Note_on_c, 9, 40, 29
4, 235948, Note_on_c, 9, 39, 0
4, 235975, Note_on_c, 9, 40, 0
4, 236112, Note_on_c, 9, 38, 35
4, 236172, Note_on_c, 9, 40, 19
4, 236333, Note_on_c, 9, 40, 0
4, 236374, Note_on_c, 9, 38, 0
4, 236615, Note_on_c, 9, 38, 46
4, 236617, Note_on_c, 9, 40, 28
4, 236640, Note_on_c, 9, 53, 42
4, 236642, Note_on_c, 9, 59, 49
4, 236834, Note_on_c, 9, 40, 0
4, 236846, Note_on_c, 9, 38, 0
4, 236848, Note_on_c, 9, 53, 0
4, 236852, Note_on_c, 9, 59, 0
4, 237026, Note_on_c, 9, 44, 57
4, 237038, Note_on_c, 9, 40, 18
4, 237065, Note_on_c, 9, 38, 36
4, 237300, Note_on_c, 9, 38, 0
4, 237312, Note_on_c, 9, 40, 0
4, 237338, Note_on_c, 9, 44, 0
4, 237533, Note_on_c, 9, 39, 60
4, 237578, Note_on_c, 9, 36, 38
4, 237591, Note_on_c, 9, 40, 31
4, 237730, Note_on_c, 9, 36, 0
4, 237828, Note_on_c, 9, 39, 0
4, 237841, Note_on_c, 9, 40, 0
4, 238042, Note_on_c, 9, 38, 24
4, 238061, Note_on_c, 9, 40, 21
4, 238064, Note_on_c, 9, 59, 50
4, 238071, Note_on_c, 9, 53, 38
4, 238273, Note_on_c, 9, 38, 0
4, 238286, Note_on_c, 9, 40, 0
4, 238485, Note_on_c, 9, 38, 40
4, 238506, Note_on_c, 9, 40, 21
4, 238557, Note_on_c, 9, 53, 0
4, 238634, Note_on_c, 9, 59, 0
4, 238741, Note_on_c, 9, 40, 0
4, 238745, Note_on_c, 9, 38, 0
4, 238897, Note_on_c, 9, 44, 57
4, 238951, Note_on_c, 9, 40, 17
4, 238955, Note_on_c, 9, 38, 36
4, 239186, Note_on_c, 9, 38, 0
4, 239205, Note_on_c, 9, 40, 0
4, 239220, Note_on_c, 9, 44, 0
4, 239430, Note_on_c, 9, 39, 60
4, 239486, Note_on_c, 9, 40, 29
4, 239554, Note_on_c, 9, 59, 43
4, 239562, Note_on_c, 9, 53, 34
4, 239670, Note_on_c, 9, 59, 0
4, 239672, Note_on_c, 9, 53, 0
4, 239750, Note_on_c, 9, 39, 0
4, 239883, Note_on_c, 9, 38, 30
4, 240108, Note_on_c, 9, 38, 0
4, 240135, Note_on_c, 9, 40, 0
4, 240414, Note_on_c, 9, 38, 50
4, 240438, Note_on_c, 9, 40, 24
4, 240444, Note_on_c, 9, 36, 31
4, 240579, Note_on_c, 9, 36, 0
4, 240651, Note_on_c, 9, 38, 0
4, 240655, Note_on_c, 9, 40, 0
4, 240802, Note_on_c, 9, 44, 56
4, 240869, Note_on_c, 9, 38, 37
4, 240877, Note_on_c, 9, 40, 19
4, 240898, Note_on_c, 9, 36, 45
4, 241123, Note_on_c, 9, 38, 0
4, 241127, Note_on_c, 9, 40, 0
4, 241158, Note_on_c, 9, 44, 0
4, 241176, Note_on_c, 9, 36, 0
4, 241358, Note_on_c, 9, 38, 48
4, 241389, Note_on_c, 9, 40, 26
4, 241624, Note_on_c, 9, 38, 0
4, 241635, Note_on_c, 9, 40, 0
4, 241843, Note_on_c, 9, 38, 45
4, 241855, Note_on_c, 9, 40, 22
4, 242171, Note_on_c, 9, 40, 0
4, 242211, Note_on_c, 9, 38, 0
4, 242365, Note_on_c, 9, 39, 64
4, 242383, Note_on_c, 9, 40, 28
4, 242428, Note_on_c, 9, 53, 37
4, 242437, Note_on_c, 9, 59, 46
4, 242553, Note_on_c, 9, 53, 0
4, 242566, Note_on_c, 9, 59, 0
4, 242689, Note_on_c, 9, 39, 0
4, 242741, Note_on_c, 9, 44, 56
4, 242764, Note_on_c, 9, 40, 0
4, 242781, Note_on_c, 9, 38, 43
4, 243007, Note_on_c, 9, 38, 0
4, 243090, Note_on_c, 9, 44, 0
4, 243284, Note_on_c, 9, 38, 55
4, 243287, Note_on_c, 9, 36, 38
4, 243344, Note_on_c, 9, 40, 25
4, 243533, Note_on_c, 9, 38, 0
4, 243536, Note_on_c, 9, 40, 0
4, 243539, Note_on_c, 9, 36, 0
4, 243771, Note_on_c, 9, 39, 68
4, 243795, Note_on_c, 9, 53, 33
4, 243796, Note_on_c, 9, 40, 33
4, 243799, Note_on_c, 9, 59, 39
4, 244101, Note_on_c, 9, 40, 0
4, 244134, Note_on_c, 9, 53, 0
4, 244143, Note_on_c, 9, 39, 0
4, 244295, Note_on_c, 9, 38, 31
4, 244296, Note_on_c, 9, 59, 0
4, 244359, Note_on_c, 9, 40, 14
4, 244476, Note_on_c, 9, 40, 0
4, 244513, Note_on_c, 9, 38, 0
4, 244633, Note_on_c, 9, 44, 67
4, 244748, Note_on_c, 9, 38, 51
4, 244777, Note_on_c, 9, 40, 23
4, 245002, Note_on_c, 9, 44, 0
4, 245039, Note_on_c, 9, 40, 0
4, 245054, Note_on_c, 9, 38, 0
4, 245231, Note_on_c, 9, 38, 51
4, 245266, Note_on_c, 9, 40, 23
4, 245374, Note_on_c, 9, 57, 55
4, 245414, Note_on_c, 9, 38, 0
4, 245455, Note_on_c, 9, 40, 0
4, 245594, Note_on_c, 9, 57, 0
4, 245763, Note_on_c, 9, 38, 70
4, 245763, Note_on_c, 9, 40, 28
4, 245804, Note_on_c, 9, 59, 40
4, 245916, Note_on_c, 9, 38, 0
4, 246000, Note_on_c, 9, 59, 0
4, 246198, Note_on_c, 9, 38, 43
4, 246206, Note_on_c, 9, 40, 0
4, 246312, Note_on_c, 9, 38, 0
4, 246696, Note_on_c, 9, 38, 37
4, 246707, Note_on_c, 9, 44, 48
4, 246825, Note_on_c, 9, 38, 0
4, 247027, Note_on_c, 9, 44, 0
4, 247255, Note_on_c, 9, 38, 62
4, 247276, Note_on_c, 9, 40, 27
4, 247422, Note_on_c, 9, 38, 0
4, 247503, Note_on_c, 9, 40, 0
4, 247779, Note_on_c, 9, 38, 36
4, 247908, Note_on_c, 9, 38, 0
4, 248264, Note_on_c, 9, 38, 31
4, 248383, Note_on_c, 9, 38, 0
4, 248608, Note_on_c, 9, 44, 46
4, 248703, Note_on_c, 9, 38, 51
4, 248728, Note_on_c, 9, 40, 26
4, 248886, Note_on_c, 9, 38, 0
4, 248971, Note_on_c, 9, 40, 0
4, 249133, Note_on_c, 9, 44, 0
4, 249227, Note_on_c, 9, 38, 34
4, 249398, Note_on_c, 9, 38, 0
4, 249681, Note_on_c, 9, 38, 32
4, 249845, Note_on_c, 9, 38, 0
4, 250157, Note_on_c, 9, 40, 31
4, 250161, Note_on_c, 9, 38, 52
4, 250357, Note_on_c, 9, 38, 0
4, 250427, Note_on_c, 9, 40, 0
4, 250594, Note_on_c, 9, 44, 40
4, 250677, Note_on_c, 9, 38, 31
4, 250874, Note_on_c, 9, 38, 0
4, 250954, Note_on_c, 9, 44, 0
4, 251126, Note_on_c, 9, 38, 31
4, 251384, Note_on_c, 9, 38, 0
4, 251613, Note_on_c, 9, 40, 22
4, 251617, Note_on_c, 9, 38, 47
4, 251971, Note_on_c, 9, 38, 0
4, 252125, Note_on_c, 9, 38, 35
4, 252299, Note_on_c, 9, 38, 0
4, 252472, Note_on_c, 9, 46, 17
4, 252524, Note_on_c, 9, 38, 35
4, 252672, Note_on_c, 9, 38, 0
4, 252933, Note_on_c, 9, 46, 0
4, 253015, Note_on_c, 9, 38, 38
4, 253196, Note_on_c, 9, 38, 0
4, 253256, Note_on_c, 9, 40, 0
4, 253472, Note_on_c, 9, 40, 18
4, 253485, Note_on_c, 9, 38, 53
4, 253707, Note_on_c, 9, 38, 0
4, 253986, Note_on_c, 9, 38, 38
4, 254115, Note_on_c, 9, 38, 0
4, 254458, Note_on_c, 9, 38, 25
4, 254472, Note_on_c, 9, 44, 40
4, 254596, Note_on_c, 9, 38, 0
4, 254602, Note_on_c, 9, 40, 0
4, 254821, Note_on_c, 9, 44, 0
4, 254889, Note_on_c, 9, 38, 52
4, 254935, Note_on_c, 9, 40, 24
4, 255111, Note_on_c, 9, 38, 0
4, 255357, Note_on_c, 9, 38, 33
4, 255527, Note_on_c, 9, 38, 0
4, 255721, Note_on_c, 9, 40, 0
4, 255864, Note_on_c, 9, 38, 40
4, 255993, Note_on_c, 9, 38, 0
4, 256272, Note_on_c, 9, 38, 50
4, 256303, Note_on_c, 9, 44, 48
4, 256314, Note_on_c, 9, 40, 23
4, 256503, Note_on_c, 9, 38, 0
4, 256709, Note_on_c, 9, 44, 0
4, 256805, Note_on_c, 9, 38, 40
4, 256958, Note_on_c, 9, 38, 0
4, 257254, Note_on_c, 9, 38, 36
4, 257256, Note_on_c, 9, 40, 0
4, 257456, Note_on_c, 9, 38, 0
4, 257680, Note_on_c, 9, 39, 59
4, 257713, Note_on_c, 9, 40, 26
4, 257897, Note_on_c, 9, 39, 0
4, 258034, Note_on_c, 9, 40, 0
4, 258146, Note_on_c, 9, 38, 28
4, 258195, Note_on_c, 9, 44, 51
4, 258375, Note_on_c, 9, 38, 0
4, 258584, Note_on_c, 9, 44, 0
4, 258625, Note_on_c, 9, 38, 34
4, 258683, Note_on_c, 9, 40, 18
4, 258880, Note_on_c, 9, 38, 0
4, 259005, Note_on_c, 9, 40, 0
4, 259120, Note_on_c, 9, 38, 30
4, 259369, Note_on_c, 9, 38, 0
4, 259644, Note_on_c, 9, 38, 34
4, 259866, Note_on_c, 9, 38, 0
4, 260089, Note_on_c, 9, 38, 47
4, 260099, Note_on_c, 9, 40, 25
4, 260130, Note_on_c, 9, 44, 50
4, 260393, Note_on_c, 9, 38, 0
4, 260573, Note_on_c, 9, 44, 0
4, 260579, Note_on_c, 9, 53, 20
4, 260623, Note_on_c, 9, 40, 0
4, 260667, Note_on_c, 9, 38, 19
4, 260854, Note_on_c, 9, 53, 0
4, 260927, Note_on_c, 9, 38, 0
4, 261070, Note_on_c, 9, 53, 28
4, 261146, Note_on_c, 9, 38, 34
4, 261383, Note_on_c, 9, 38, 0
4, 261659, Note_on_c, 9, 38, 42
4, 261709, Note_on_c, 9, 40, 23
4, 261725, Note_on_c, 9, 53, 0
4, 261896, Note_on_c, 9, 38, 0
4, 262065, Note_on_c, 9, 44, 44
4, 262098, Note_on_c, 9, 38, 28
4, 262366, Note_on_c, 9, 38, 0
4, 262422, Note_on_c, 9, 44, 0
4, 262597, Note_on_c, 9, 38, 45
4, 262787, Note_on_c, 9, 38, 0
4, 262907, Note_on_c, 9, 40, 0
4, 263042, Note_on_c, 9, 38, 46
4, 263072, Note_on_c, 9, 40, 18
4, 263238, Note_on_c, 9, 38, 0
4, 263538, Note_on_c, 9, 38, 33
4, 263656, Note_on_c, 9, 38, 0
4, 263822, Note_on_c, 9, 40, 0
4, 263954, Note_on_c, 9, 38, 41
4, 263987, Note_on_c, 9, 40, 19
4, 263987, Note_on_c, 9, 44, 49
4, 264218, Note_on_c, 9, 38, 0
4, 264374, Note_on_c, 9, 44, 0
4, 264459, Note_on_c, 9, 38, 38
4, 264627, Note_on_c, 9, 38, 0
4, 264904, Note_on_c, 9, 38, 34
4, 265122, Note_on_c, 9, 38, 0
4, 265226, Note_on_c, 9, 40, 0
4, 265391, Note_on_c, 9, 38, 32
4, 265486, Note_on_c, 9, 40, 18
4, 265574, Note_on_c, 9, 38, 0
4, 265834, Note_on_c, 9, 38, 36
4, 265909, Note_on_c, 9, 44, 38
4, 266138, Note_on_c, 9, 38, 0
4, 266282, Note_on_c, 9, 44, 0
4, 266379, Note_on_c, 9, 38, 34
4, 266554, Note_on_c, 9, 40, 0
4, 266608, Note_on_c, 9, 38, 0
4, 266836, Note_on_c, 9, 40, 18
4, 266880, Note_on_c, 9, 38, 42
4, 267140, Note_on_c, 9, 38, 0
4, 267371, Note_on_c, 9, 38, 35
4, 267527, Note_on_c, 9, 38, 0
4, 267820, Note_on_c, 9, 38, 30
4, 267851, Note_on_c, 9, 44, 45
4, 267980, Note_on_c, 9, 38, 0
4, 268267, Note_on_c, 9, 38, 40
4, 268271, Note_on_c, 9, 44, 0
4, 268342, Note_on_c, 9, 36, 44
4, 268478, Note_on_c, 9, 38, 0
4, 268530, Note_on_c, 9, 40, 0
4, 268568, Note_on_c, 9, 36, 0
4, 268752, Note_on_c, 9, 40, 23
4, 268754, Note_on_c, 9, 38, 47
4, 268977, Note_on_c, 9, 38, 0
4, 269285, Note_on_c, 9, 38, 36
4, 269432, Note_on_c, 9, 38, 0
4, 269756, Note_on_c, 9, 44, 38
4, 269778, Note_on_c, 9, 38, 24
4, 269896, Note_on_c, 9, 38, 0
4, 270086, Note_on_c, 9, 44, 0
4, 270254, Note_on_c, 9, 38, 38
4, 270402, Note_on_c, 9, 38, 0
4, 270741, Note_on_c, 9, 38, 44
4, 270878, Note_on_c, 9, 38, 0
4, 271017, Note_on_c, 9, 40, 0
4, 271198, Note_on_c, 9, 38, 65
4, 271229, Note_on_c, 9, 40, 29
4, 271410, Note_on_c, 9, 38, 0
4, 271645, Note_on_c, 9, 38, 36
4, 271702, Note_on_c, 9, 44, 49
4, 271818, Note_on_c, 9, 38, 0
4, 272014, Note_on_c, 9, 44, 0
4, 272138, Note_on_c, 9, 38, 35
4, 272280, Note_on_c, 9, 38, 0
4, 272351, Note_on_c, 9, 40, 0
4, 272617, Note_on_c, 9, 38, 60
4, 272627, Note_on_c, 9, 40, 24
4, 272841, Note_on_c, 9, 38, 0
4, 273104, Note_on_c, 9, 38, 38
4, 273268, Note_on_c, 9, 38, 0
4, 273574, Note_on_c, 9, 39, 60
4, 273577, Note_on_c, 9, 44, 49
4, 273819, Note_on_c, 9, 44, 0
4, 273834, Note_on_c, 9, 39, 0
4, 273873, Note_on_c, 9, 40, 0
4, 274096, Note_on_c, 9, 40, 18
4, 274110, Note_on_c, 9, 38, 35
4, 274331, Note_on_c, 9, 38, 0
4, 274488, Note_on_c, 9, 53, 45
4, 274545, Note_on_c, 9, 38, 34
4, 274654, Note_on_c, 9, 53, 0
4, 274822, Note_on_c, 9, 38, 0
4, 274861, Note_on_c, 9, 40, 0
4, 275029, Note_on_c, 9, 53, 53
4, 275044, Note_on_c, 9, 39, 64
4, 275063, Note_on_c, 9, 40, 27
4, 275204, Note_on_c, 9, 53, 0
4, 275439, Note_on_c, 9, 39, 0
4, 275508, Note_on_c, 9, 38, 34
4, 275512, Note_on_c, 9, 46, 21
4, 275753, Note_on_c, 9, 38, 0
4, 275760, Note_on_c, 9, 40, 0
4, 275868, Note_on_c, 9, 46, 0
4, 275969, Note_on_c, 9, 36, 36
4, 275984, Note_on_c, 9, 38, 44
4, 276045, Note_on_c, 9, 40, 28
4, 276208, Note_on_c, 9, 36, 0
4, 276238, Note_on_c, 9, 38, 0
4, 276373, Note_on_c, 9, 40, 0
4, 276431, Note_on_c, 9, 38, 45
4, 276450, Note_on_c, 9, 36, 50
4, 276475, Note_on_c, 9, 40, 19
4, 276716, Note_on_c, 9, 36, 0
4, 276754, Note_on_c, 9, 38, 0
4, 276958, Note_on_c, 9, 38, 45
4, 277155, Note_on_c, 9, 38, 0
4, 277383, Note_on_c, 9, 44, 48
4, 277426, Note_on_c, 9, 38, 31
4, 277519, Note_on_c, 9, 40, 0
4, 277689, Note_on_c, 9, 44, 0
4, 277744, Note_on_c, 9, 38, 0
4, 277929, Note_on_c, 9, 40, 23
4, 277931, Note_on_c, 9, 38, 51
4, 278164, Note_on_c, 9, 38, 0
4, 278385, Note_on_c, 9, 38, 34
4, 278574, Note_on_c, 9, 38, 0
4, 278643, Note_on_c, 9, 40, 0
4, 278886, Note_on_c, 9, 38, 32
4, 278975, Note_on_c, 9, 40, 17
4, 279102, Note_on_c, 9, 38, 0
4, 279272, Note_on_c, 9, 44, 46
4, 279300, Note_on_c, 9, 38, 42
4, 279545, Note_on_c, 9, 38, 0
4, 279641, Note_on_c, 9, 44, 0
4, 279707, Note_on_c, 9, 40, 0
4, 279814, Note_on_c, 9, 39, 64
4, 280067, Note_on_c, 9, 40, 14
4, 280094, Note_on_c, 9, 39, 0
4, 280282, Note_on_c, 9, 38, 30
4, 280612, Note_on_c, 9, 38, 0
4, 280633, Note_on_c, 9, 40, 0
4, 280802, Note_on_c, 9, 38, 40
4, 281045, Note_on_c, 9, 38, 0
4, 281230, Note_on_c, 9, 38, 37
4, 281254, Note_on_c, 9, 46, 29
4, 281301, Note_on_c, 9, 40, 14
4, 281469, Note_on_c, 9, 38, 0
4, 281523, Note_on_c, 9, 46, 0
4, 281582, Note_on_c, 9, 40, 0
4, 281750, Note_on_c, 9, 38, 56
4, 281798, Note_on_c, 9, 40, 27
4, 282097, Note_on_c, 9, 38, 0
4, 282255, Note_on_c, 9, 38, 37
4, 282545, Note_on_c, 9, 38, 0
4, 282727, Note_on_c, 9, 53, 32
4, 282728, Note_on_c, 9, 38, 46
4, 282835, Note_on_c, 9, 53, 0
4, 282971, Note_on_c, 9, 40, 0
4, 282996, Note_on_c, 9, 38, 0
4, 283089, Note_on_c, 9, 44, 52
4, 283166, Note_on_c, 9, 36, 35
4, 283198, Note_on_c, 9, 38, 44
4, 283208, Note_on_c, 9, 40, 20
4, 283361, Note_on_c, 9, 36, 0
4, 283378, Note_on_c, 9, 44, 0
4, 283545, Note_on_c, 9, 38, 0
4, 283693, Note_on_c, 9, 40, 0
4, 283705, Note_on_c, 9, 39, 60
4, 283738, Note_on_c, 9, 36, 27
4, 283921, Note_on_c, 9, 36, 0
4, 284048, Note_on_c, 9, 39, 0
4, 284111, Note_on_c, 9, 40, 18
4, 284138, Note_on_c, 9, 38, 36
4, 284450, Note_on_c, 9, 38, 0
4, 284575, Note_on_c, 9, 40, 0
4, 284658, Note_on_c, 9, 38, 40
4, 284885, Note_on_c, 9, 38, 0
4, 285034, Note_on_c, 9, 44, 46
4, 285086, Note_on_c, 9, 40, 15
4, 285113, Note_on_c, 9, 38, 36
4, 285315, Note_on_c, 9, 38, 0
4, 285330, Note_on_c, 9, 40, 0
4, 285343, Note_on_c, 9, 44, 0
4, 285598, Note_on_c, 9, 38, 60
4, 285640, Note_on_c, 9, 40, 21
4, 286239, Note_on_c, 9, 38, 0
4, 286455, Note_on_c, 9, 38, 49
4, 286644, Note_on_c, 9, 40, 0
4, 286709, Note_on_c, 9, 38, 0
4, 286896, Note_on_c, 9, 44, 48
4, 286979, Note_on_c, 9, 38, 50
4, 286981, Note_on_c, 9, 40, 19
4, 287262, Note_on_c, 9, 44, 0
4, 287293, Note_on_c, 9, 38, 0
4, 287505, Note_on_c, 9, 38, 37
4, 287657, Note_on_c, 9, 38, 0
4, 287967, Note_on_c, 9, 38, 27
4, 288094, Note_on_c, 9, 38, 0
4, 288429, Note_on_c, 9, 38, 54
4, 288608, Note_on_c, 9, 38, 0
4, 288821, Note_on_c, 9, 44, 44
4, 288934, Note_on_c, 9, 38, 25
4, 289049, Note_on_c, 9, 38, 0
4, 289211, Note_on_c, 9, 44, 0
4, 289375, Note_on_c, 9, 38, 62
4, 289377, Note_on_c, 9, 40, 0
4, 289527, Note_on_c, 9, 38, 0
4, 289864, Note_on_c, 9, 38, 44
4, 289899, Note_on_c, 9, 40, 19
4, 289970, Note_on_c, 9, 38, 0
4, 290357, Note_on_c, 9, 38, 71
4, 290528, Note_on_c, 9, 38, 0
4, 290780, Note_on_c, 9, 44, 50
4, 290835, Note_on_c, 9, 38, 33
4, 290956, Note_on_c, 9, 38, 0
4, 291085, Note_on_c, 9, 40, 0
4, 291220, Note_on_c, 9, 44, 0
4, 291282, Note_on_c, 9, 59, 36
4, 291358, Note_on_c, 9, 38, 72
4, 291384, Note_on_c, 9, 59, 0
4, 291410, Note_on_c, 9, 40, 23
4, 291526, Note_on_c, 9, 38, 0
4, 291850, Note_on_c, 9, 38, 57
4, 291998, Note_on_c, 9, 38, 0
4, 292217, Note_on_c, 9, 40, 0
4, 292300, Note_on_c, 9, 38, 66
4, 292302, Note_on_c, 9, 39, 58
4, 292350, Note_on_c, 9, 40, 17
4, 292499, Note_on_c, 9, 38, 0
4, 292593, Note_on_c, 9, 39, 0
4, 292726, Note_on_c, 9, 38, 29
4, 292746, Note_on_c, 9, 36, 38
4, 292792, Note_on_c, 9, 44, 49
4, 292955, Note_on_c, 9, 38, 0
4, 293034, Note_on_c, 9, 40, 0
4, 293102, Note_on_c, 9, 44, 0
4, 293275, Note_on_c, 9, 38, 47
4, 293336, Note_on_c, 9, 40, 14
4, 293374, Note_on_c, 9, 36, 0
4, 293483, Note_on_c, 9, 38, 0
4, 293737, Note_on_c, 9, 38, 41
4, 294032, Note_on_c, 9, 38, 0
4, 294078, Note_on_c, 9, 40, 0
4, 294226, Note_on_c, 9, 38, 40
4, 294234, Note_on_c, 9, 39, 57
4, 294270, Note_on_c, 9, 40, 23
4, 294417, Note_on_c, 9, 38, 0
4, 294552, Note_on_c, 9, 39, 0
4, 294664, Note_on_c, 9, 44, 48
4, 294679, Note_on_c, 9, 38, 29
4, 294916, Note_on_c, 9, 40, 0
4, 294943, Note_on_c, 9, 38, 0
4, 295114, Note_on_c, 9, 44, 0
4, 295206, Note_on_c, 9, 38, 18
4, 295249, Note_on_c, 9, 40, 11
4, 295453, Note_on_c, 9, 38, 0
4, 295520, Note_on_c, 9, 40, 0
4, 295669, Note_on_c, 9, 39, 60
4, 295715, Note_on_c, 9, 40, 24
4, 296004, Note_on_c, 9, 39, 0
4, 296175, Note_on_c, 9, 38, 31
4, 296320, Note_on_c, 9, 38, 0
4, 296322, Note_on_c, 9, 40, 0
4, 296549, Note_on_c, 9, 40, 14
4, 296582, Note_on_c, 9, 38, 40
4, 296636, Note_on_c, 9, 44, 51
4, 296905, Note_on_c, 9, 38, 0
4, 296955, Note_on_c, 9, 40, 0
4, 297053, Note_on_c, 9, 44, 0
4, 297138, Note_on_c, 9, 38, 50
4, 297188, Note_on_c, 9, 40, 18
4, 297390, Note_on_c, 9, 38, 0
4, 297625, Note_on_c, 9, 38, 31
4, 297706, Note_on_c, 9, 40, 0
4, 297830, Note_on_c, 9, 38, 0
4, 298130, Note_on_c, 9, 38, 60
4, 298338, Note_on_c, 9, 38, 0
4, 298535, Note_on_c, 9, 44, 51
4, 298556, Note_on_c, 9, 38, 46
4, 298787, Note_on_c, 9, 38, 0
4, 298965, Note_on_c, 9, 44, 0
4, 299010, Note_on_c, 9, 40, 27
4, 299012, Note_on_c, 9, 38, 61
4, 299119, Note_on_c, 9, 36, 20
4, 299282, Note_on_c, 9, 38, 0
4, 299294, Note_on_c, 9, 36, 0
4, 299478, Note_on_c, 9, 38, 39
4, 299719, Note_on_c, 9, 38, 0
4, 299767, Note_on_c, 9, 40, 0
4, 300008, Note_on_c, 9, 38, 54
4, 300223, Note_on_c, 9, 38, 0
4, 300433, Note_on_c, 9, 44, 56
4, 300437, Note_on_c, 9, 38, 53
4, 300472, Note_on_c, 9, 40, 28
4, 300743, Note_on_c, 9, 38, 0
4, 300863, Note_on_c, 9, 44, 0
4, 300948, Note_on_c, 9, 38, 42
4, 301150, Note_on_c, 9, 38, 0
4, 301431, Note_on_c, 9, 38, 45
4, 301660, Note_on_c, 9, 38, 0
4, 301674, Note_on_c, 9, 40, 0
4, 301882, Note_on_c, 9, 38, 47
4, 301897, Note_on_c, 9, 39, 53
4, 301911, Note_on_c, 9, 40, 24
4, 301967, Note_on_c, 9, 36, 31
4, 302096, Note_on_c, 9, 36, 0
4, 302151, Note_on_c, 9, 38, 0
4, 302242, Note_on_c, 9, 39, 0
4, 302336, Note_on_c, 9, 40, 0
4, 302338, Note_on_c, 9, 44, 56
4, 302359, Note_on_c, 9, 38, 33
4, 302606, Note_on_c, 9, 38, 0
4, 302815, Note_on_c, 9, 44, 0
4, 302858, Note_on_c, 9, 38, 58
4, 302861, Note_on_c, 9, 53, 26
4, 302908, Note_on_c, 9, 40, 22
4, 303044, Note_on_c, 9, 53, 0
4, 303139, Note_on_c, 9, 38, 0
4, 303315, Note_on_c, 9, 53, 19
4, 303326, Note_on_c, 9, 38, 39
4, 303422, Note_on_c, 9, 40, 0
4, 303444, Note_on_c, 9, 53, 0
4, 303582, Note_on_c, 9, 38, 0
4, 303762, Note_on_c, 9, 36, 40
4, 303783, Note_on_c, 9, 39, 64
4, 303879, Note_on_c, 9, 40, 29
4, 303970, Note_on_c, 9, 36, 0
4, 304164, Note_on_c, 9, 39, 0
4, 304223, Note_on_c, 9, 44, 62
4, 304264, Note_on_c, 9, 38, 24
4, 304331, Note_on_c, 9, 40, 0
4, 304478, Note_on_c, 9, 38, 0
4, 304650, Note_on_c, 9, 44, 0
4, 304755, Note_on_c, 9, 38, 43
4, 304769, Note_on_c, 9, 53, 38
4, 304935, Note_on_c, 9, 53, 0
4, 304977, Note_on_c, 9, 38, 0
4, 305183, Note_on_c, 9, 53, 30
4, 305210, Note_on_c, 9, 38, 51
4, 305212, Note_on_c, 9, 40, 22
4, 305508, Note_on_c, 9, 38, 0
4, 305567, Note_on_c, 9, 53, 0
4, 305703, Note_on_c, 9, 36, 33
4, 305718, Note_on_c, 9, 38, 42
4, 305820, Note_on_c, 9, 40, 0
4, 305854, Note_on_c, 9, 36, 0
4, 305913, Note_on_c, 9, 38, 0
4, 306184, Note_on_c, 9, 40, 22
4, 306188, Note_on_c, 9, 38, 57
4, 306199, Note_on_c, 9, 44, 51
4, 306208, Note_on_c, 9, 53, 28
4, 306368, Note_on_c, 9, 53, 0
4, 306471, Note_on_c, 9, 38, 0
4, 306637, Note_on_c, 9, 36, 62
4, 306689, Note_on_c, 9, 38, 42
4, 306743, Note_on_c, 9, 44, 0
4, 306880, Note_on_c, 9, 36, 0
4, 306885, Note_on_c, 9, 38, 0
4, 307121, Note_on_c, 9, 51, 47
4, 307161, Note_on_c, 9, 38, 49
4, 307361, Note_on_c, 9, 38, 0
4, 307396, Note_on_c, 9, 40, 0
4, 307410, Note_on_c, 9, 51, 0
4, 307688, Note_on_c, 9, 38, 33
4, 307842, Note_on_c, 9, 38, 0
4, 308094, Note_on_c, 9, 44, 56
4, 308118, Note_on_c, 9, 38, 59
4, 308168, Note_on_c, 9, 40, 26
4, 308443, Note_on_c, 9, 38, 0
4, 308524, Note_on_c, 9, 44, 0
4, 308642, Note_on_c, 9, 38, 42
4, 308696, Note_on_c, 9, 36, 33
4, 308806, Note_on_c, 9, 36, 0
4, 308846, Note_on_c, 9, 38, 0
4, 308884, Note_on_c, 9, 40, 0
4, 309131, Note_on_c, 9, 38, 36
4, 309277, Note_on_c, 9, 38, 0
4, 309589, Note_on_c, 9, 38, 62
4, 309628, Note_on_c, 9, 40, 25
4, 309655, Note_on_c, 9, 53, 37
4, 309802, Note_on_c, 9, 53, 0
4, 309818, Note_on_c, 9, 38, 0
4, 310017, Note_on_c, 9, 38, 44
4, 310076, Note_on_c, 9, 44, 60
4, 310100, Note_on_c, 9, 40, 0
4, 310227, Note_on_c, 9, 38, 0
4, 310530, Note_on_c, 9, 44, 0
4, 310533, Note_on_c, 9, 38, 48
4, 310578, Note_on_c, 9, 51, 33
4, 310693, Note_on_c, 9, 51, 0
4, 310710, Note_on_c, 9, 38, 0
4, 310980, Note_on_c, 9, 51, 34
4, 310980, Note_on_c, 9, 40, 25
4, 310987, Note_on_c, 9, 38, 48
4, 311177, Note_on_c, 9, 51, 0
4, 311459, Note_on_c, 9, 40, 0
4, 311475, Note_on_c, 9, 39, 64
4, 311573, Note_on_c, 9, 38, 0
4, 311748, Note_on_c, 9, 39, 0
4, 311885, Note_on_c, 9, 40, 18
4, 311896, Note_on_c, 9, 38, 47
4, 311978, Note_on_c, 9, 44, 56
4, 312137, Note_on_c, 9, 38, 0
4, 312220, Note_on_c, 9, 40, 0
4, 312405, Note_on_c, 9, 38, 33
4, 312408, Note_on_c, 9, 44, 0
4, 312415, Note_on_c, 9, 53, 48
4, 312621, Note_on_c, 9, 53, 0
4, 312628, Note_on_c, 9, 38, 0
4, 312886, Note_on_c, 9, 39, 57
4, 312902, Note_on_c, 9, 40, 20
4, 312931, Note_on_c, 9, 38, 32
4, 313021, Note_on_c, 9, 38, 0
4, 313275, Note_on_c, 9, 40, 0
4, 313285, Note_on_c, 9, 39, 0
4, 313426, Note_on_c, 9, 38, 26
4, 313467, Note_on_c, 9, 51, 25
4, 313555, Note_on_c, 9, 51, 0
4, 313632, Note_on_c, 9, 38, 0
4, 313846, Note_on_c, 9, 44, 60
4, 313896, Note_on_c, 9, 38, 50
4, 313921, Note_on_c, 9, 40, 18
4, 314144, Note_on_c, 9, 38, 0
4, 314150, Note_on_c, 9, 40, 0
4, 314300, Note_on_c, 9, 44, 0
4, 314419, Note_on_c, 9, 38, 56
4, 314468, Note_on_c, 9, 40, 21
4, 314729, Note_on_c, 9, 38, 0
4, 314870, Note_on_c, 9, 40, 0
4, 314887, Note_on_c, 9, 38, 37
4, 315088, Note_on_c, 9, 38, 0
4, 315371, Note_on_c, 9, 38, 57
4, 315602, Note_on_c, 9, 38, 0
4, 315765, Note_on_c, 9, 44, 56
4, 315804, Note_on_c, 9, 38, 55
4, 315858, Note_on_c, 9, 40, 25
4, 316151, Note_on_c, 9, 38, 0
4, 316151, Note_on_c, 9, 44, 0
4, 316301, Note_on_c, 9, 38, 33
4, 316417, Note_on_c, 9, 40, 0
4, 316548, Note_on_c, 9, 38, 0
4, 316765, Note_on_c, 9, 38, 33
4, 317006, Note_on_c, 9, 38, 0
4, 317258, Note_on_c, 9, 38, 51
4, 317270, Note_on_c, 9, 53, 46
4, 317283, Note_on_c, 9, 40, 24
4, 317569, Note_on_c, 9, 53, 0
4, 317584, Note_on_c, 9, 38, 0
4, 317657, Note_on_c, 9, 40, 0
4, 317660, Note_on_c, 9, 44, 56
4, 317730, Note_on_c, 9, 39, 38
4, 317975, Note_on_c, 9, 39, 0
4, 318100, Note_on_c, 9, 44, 0
4, 318185, Note_on_c, 9, 38, 57
4, 318206, Note_on_c, 9, 40, 26
4, 318220, Note_on_c, 9, 36, 22
4, 318335, Note_on_c, 9, 36, 0
4, 318479, Note_on_c, 9, 38, 0
4, 318587, Note_on_c, 9, 40, 0
4, 318610, Note_on_c, 9, 38, 34
4, 318669, Note_on_c, 9, 36, 40
4, 318824, Note_on_c, 9, 38, 0
4, 318859, Note_on_c, 9, 36, 0
4, 319096, Note_on_c, 9, 39, 56
4, 319123, Note_on_c, 9, 40, 28
4, 319467, Note_on_c, 9, 40, 0
4, 319469, Note_on_c, 9, 39, 0
4, 319585, Note_on_c, 9, 38, 29
4, 319595, Note_on_c, 9, 44, 55
4, 319858, Note_on_c, 9, 38, 0
4, 320025, Note_on_c, 9, 44, 0
4, 320093, Note_on_c, 9, 38, 38
4, 320344, Note_on_c, 9, 38, 0
4, 320561, Note_on_c, 9, 38, 47
4, 320573, Note_on_c, 9, 40, 27
4, 320881, Note_on_c, 9, 38, 0
4, 321014, Note_on_c, 9, 40, 0
4, 321027, Note_on_c, 9, 39, 59
4, 321063, Note_on_c, 9, 53, 51
4, 321318, Note_on_c, 9, 39, 0
4, 321369, Note_on_c, 9, 53, 0
4, 321507, Note_on_c, 9, 38, 48
4, 321507, Note_on_c, 9, 44, 55
4, 321551, Note_on_c, 9, 40, 15
4, 321561, Note_on_c, 9, 51, 25
4, 321733, Note_on_c, 9, 51, 0
4, 321782, Note_on_c, 9, 38, 0
4, 321821, Note_on_c, 9, 40, 0
4, 321991, Note_on_c, 9, 44, 0
4, 321996, Note_on_c, 9, 38, 44
4, 322062, Note_on_c, 9, 36, 44
4, 322229, Note_on_c, 9, 38, 0
4, 322303, Note_on_c, 9, 36, 0
4, 322506, Note_on_c, 9, 40, 23
4, 322516, Note_on_c, 9, 38, 57
4, 322524, Note_on_c, 9, 36, 40
4, 322773, Note_on_c, 9, 36, 0
4, 322809, Note_on_c, 9, 38, 0
4, 322863, Note_on_c, 9, 40, 0
4, 323023, Note_on_c, 9, 38, 42
4, 323211, Note_on_c, 9, 38, 0
4, 323412, Note_on_c, 9, 44, 50
4, 323523, Note_on_c, 9, 38, 49
4, 323535, Note_on_c, 9, 40, 20
4, 323783, Note_on_c, 9, 38, 0
4, 323815, Note_on_c, 9, 44, 0
4, 323837, Note_on_c, 9, 40, 0
4, 323972, Note_on_c, 9, 39, 46
4, 324034, Note_on_c, 9, 53, 48
4, 324200, Note_on_c, 9, 53, 0
4, 324263, Note_on_c, 9, 39, 0
4, 324427, Note_on_c, 9, 38, 44
4, 324475, Note_on_c, 9, 40, 13
4, 324654, Note_on_c, 9, 38, 0
4, 324667, Note_on_c, 9, 40, 0
4, 324943, Note_on_c, 9, 53, 31
4, 324945, Note_on_c, 9, 38, 55
4, 324970, Note_on_c, 9, 40, 26
4, 325103, Note_on_c, 9, 53, 0
4, 325205, Note_on_c, 9, 38, 0
4, 325322, Note_on_c, 9, 40, 0
4, 325398, Note_on_c, 9, 44, 50
4, 325615, Note_on_c, 9, 38, 51
4, 325771, Note_on_c, 9, 44, 0
4, 325794, Note_on_c, 9, 38, 0
4, 326073, Note_on_c, 9, 38, 40
4, 326252, Note_on_c, 9, 38, 0
4, 326487, Note_on_c, 9, 38, 54
4, 326497, Note_on_c, 9, 40, 26
4, 326838, Note_on_c, 9, 38, 0
4, 326923, Note_on_c, 9, 40, 0
4, 327000, Note_on_c, 9, 38, 33
4, 327167, Note_on_c, 9, 38, 0
4, 327310, Note_on_c, 9, 44, 56
4, 327429, Note_on_c, 9, 38, 45
4, 327639, Note_on_c, 9, 38, 0
4, 327642, Note_on_c, 9, 44, 0
4, 327862, Note_on_c, 9, 39, 58
4, 327895, Note_on_c, 9, 40, 28
4, 328174, Note_on_c, 9, 39, 0
4, 328288, Note_on_c, 9, 40, 0
4, 328348, Note_on_c, 9, 38, 24
4, 328560, Note_on_c, 9, 38, 0
4, 328823, Note_on_c, 9, 38, 42
4, 328868, Note_on_c, 9, 40, 20
4, 329072, Note_on_c, 9, 38, 0
4, 329083, Note_on_c, 9, 40, 0
4, 329259, Note_on_c, 9, 44, 55
4, 329274, Note_on_c, 9, 38, 37
4, 329499, Note_on_c, 9, 38, 0
4, 329608, Note_on_c, 9, 44, 0
4, 329736, Note_on_c, 9, 38, 35
4, 329962, Note_on_c, 9, 38, 0
4, 330193, Note_on_c, 9, 38, 53
4, 330210, Note_on_c, 9, 40, 25
4, 330607, Note_on_c, 9, 38, 0
4, 330640, Note_on_c, 9, 40, 0
4, 330753, Note_on_c, 9, 39, 56
4, 330977, Note_on_c, 9, 39, 0
4, 331115, Note_on_c, 9, 40, 17
4, 331119, Note_on_c, 9, 38, 35
4, 331197, Note_on_c, 9, 44, 56
4, 331385, Note_on_c, 9, 40, 0
4, 331400, Note_on_c, 9, 38, 0
4, 331506, Note_on_c, 9, 44, 0
4, 331670, Note_on_c, 9, 38, 46
4, 331707, Note_on_c, 9, 40, 25
4, 332163, Note_on_c, 9, 38, 0
4, 332207, Note_on_c, 9, 40, 0
4, 332560, Note_on_c, 9, 39, 58
4, 332583, Note_on_c, 9, 40, 27
4, 332931, Note_on_c, 9, 39, 0
4, 332980, Note_on_c, 9, 40, 0
4, 333026, Note_on_c, 9, 38, 34
4, 333129, Note_on_c, 9, 44, 57
4, 333322, Note_on_c, 9, 38, 0
4, 333523, Note_on_c, 9, 38, 32
4, 333580, Note_on_c, 9, 44, 0
4, 333771, Note_on_c, 9, 38, 0
4, 333998, Note_on_c, 9, 38, 49
4, 334008, Note_on_c, 9, 40, 27
4, 334022, Note_on_c, 9, 53, 50
4, 334455, Note_on_c, 9, 40, 0
4, 334472, Note_on_c, 9, 38, 0
4, 334484, Note_on_c, 9, 39, 49
4, 334575, Note_on_c, 9, 53, 0
4, 334732, Note_on_c, 9, 39, 0
4, 334957, Note_on_c, 9, 38, 46
4, 334997, Note_on_c, 9, 44, 58
4, 335011, Note_on_c, 9, 40, 20
4, 335269, Note_on_c, 9, 38, 0
4, 335289, Note_on_c, 9, 40, 0
4, 335350, Note_on_c, 9, 44, 0
4, 335472, Note_on_c, 9, 38, 46
4, 335486, Note_on_c, 9, 53, 48
4, 335504, Note_on_c, 9, 40, 24
4, 335588, Note_on_c, 9, 53, 0
4, 335938, Note_on_c, 9, 53, 50
4, 336271, Note_on_c, 9, 40, 0
4, 336327, Note_on_c, 9, 38, 0
4, 336343, Note_on_c, 9, 53, 0
4, 336506, Note_on_c, 9, 39, 44
4, 336550, Note_on_c, 9, 40, 29
4, 336868, Note_on_c, 9, 40, 0
4, 336876, Note_on_c, 9, 39, 0
4, 336933, Note_on_c, 9, 44, 59
4, 336968, Note_on_c, 9, 38, 36
4, 337199, Note_on_c, 9, 38, 0
4, 337316, Note_on_c, 9, 44, 0
4, 337433, Note_on_c, 9, 53, 44
4, 337465, Note_on_c, 9, 38, 41
4, 337635, Note_on_c, 9, 53, 0
4, 337671, Note_on_c, 9, 38, 0
4, 337923, Note_on_c, 9, 40, 24
4, 337927, Note_on_c, 9, 38, 57
4, 338278, Note_on_c, 9, 40, 0
4, 338312, Note_on_c, 9, 38, 0
4, 338423, Note_on_c, 9, 53, 29
4, 338438, Note_on_c, 9, 39, 46
4, 338511, Note_on_c, 9, 53, 0
4, 338646, Note_on_c, 9, 39, 0
4, 338831, Note_on_c, 9, 44, 54
4, 338844, Note_on_c, 9, 38, 53
4, 338877, Note_on_c, 9, 40, 22
4, 338883, Note_on_c, 9, 53, 45
4, 338993, Note_on_c, 9, 53, 0
4, 339129, Note_on_c, 9, 38, 0
4, 339139, Note_on_c, 9, 40, 0
4, 339157, Note_on_c, 9, 44, 0
4, 339343, Note_on_c, 9, 38, 44
4, 339397, Note_on_c, 9, 40, 18
4, 339591, Note_on_c, 9, 38, 0
4, 339628, Note_on_c, 9, 40, 0
4, 339799, Note_on_c, 9, 38, 36
4, 339838, Note_on_c, 9, 40, 21
4, 340136, Note_on_c, 9, 40, 0
4, 340150, Note_on_c, 9, 38, 0
4, 340329, Note_on_c, 9, 39, 55
4, 340604, Note_on_c, 9, 39, 0
4, 340712, Note_on_c, 9, 38, 36
4, 340728, Note_on_c, 9, 40, 19
4, 340767, Note_on_c, 9, 44, 53
4, 341049, Note_on_c, 9, 44, 0
4, 341095, Note_on_c, 9, 40, 0
4, 341103, Note_on_c, 9, 38, 0
4, 341276, Note_on_c, 9, 38, 42
4, 341342, Note_on_c, 9, 40, 18
4, 341552, Note_on_c, 9, 38, 0
4, 341623, Note_on_c, 9, 40, 0
4, 341741, Note_on_c, 9, 39, 56
4, 342118, Note_on_c, 9, 39, 0
4, 342230, Note_on_c, 9, 38, 45
4, 342257, Note_on_c, 9, 53, 36
4, 342259, Note_on_c, 9, 40, 19
4, 342302, Note_on_c, 9, 51, 26
4, 342436, Note_on_c, 9, 51, 0
4, 342481, Note_on_c, 9, 53, 0
4, 342488, Note_on_c, 9, 38, 0
4, 342658, Note_on_c, 9, 44, 56
4, 342692, Note_on_c, 9, 38, 35
4, 342941, Note_on_c, 9, 44, 0
4, 342954, Note_on_c, 9, 40, 0
4, 343014, Note_on_c, 9, 38, 0
4, 343212, Note_on_c, 9, 38, 59
4, 343224, Note_on_c, 9, 40, 31
4, 343503, Note_on_c, 9, 38, 0
4, 343684, Note_on_c, 9, 38, 44
4, 343967, Note_on_c, 9, 40, 0
4, 344056, Note_on_c, 9, 38, 0
4, 344145, Note_on_c, 9, 51, 29
4, 344179, Note_on_c, 9, 39, 64
4, 344190, Note_on_c, 9, 40, 30
4, 344208, Note_on_c, 9, 53, 24
4, 344305, Note_on_c, 9, 51, 0
4, 344320, Note_on_c, 9, 53, 0
4, 344500, Note_on_c, 9, 46, 18
4, 344504, Note_on_c, 9, 39, 0
4, 344606, Note_on_c, 9, 38, 37
4, 344628, Note_on_c, 9, 36, 27
4, 344746, Note_on_c, 9, 36, 0
4, 344782, Note_on_c, 9, 46, 0
4, 344814, Note_on_c, 9, 40, 0
4, 344913, Note_on_c, 9, 38, 0
4, 345071, Note_on_c, 9, 36, 44
4, 345121, Note_on_c, 9, 38, 47
4, 345134, Note_on_c, 9, 40, 19
4, 345304, Note_on_c, 9, 36, 0
4, 345363, Note_on_c, 9, 40, 0
4, 345386, Note_on_c, 9, 38, 0
4, 345571, Note_on_c, 9, 38, 54
4, 345585, Note_on_c, 9, 36, 42
4, 345592, Note_on_c, 9, 40, 22
4, 345822, Note_on_c, 9, 36, 0
4, 345989, Note_on_c, 9, 40, 0
4, 346045, Note_on_c, 9, 38, 0
4, 346062, Note_on_c, 9, 39, 60
4, 346351, Note_on_c, 9, 39, 0
4, 346425, Note_on_c, 9, 44, 57
4, 346492, Note_on_c, 9, 38, 44
4, 346515, Note_on_c, 9, 40, 19
4, 346738, Note_on_c, 9, 40, 0
4, 346748, Note_on_c, 9, 38, 0
4, 346757, Note_on_c, 9, 44, 0
4, 346993, Note_on_c, 9, 38, 55
4, 347023, Note_on_c, 9, 40, 30
4, 347297, Note_on_c, 9, 38, 0
4, 347453, Note_on_c, 9, 38, 32
4, 347694, Note_on_c, 9, 40, 0
4, 347726, Note_on_c, 9, 38, 0
4, 347944, Note_on_c, 9, 39, 62
4, 347969, Note_on_c, 9, 40, 29
4, 348262, Note_on_c, 9, 39, 0
4, 348364, Note_on_c, 9, 44, 54
4, 348381, Note_on_c, 9, 38, 36
4, 348585, Note_on_c, 9, 40, 0
4, 348672, Note_on_c, 9, 38, 0
4, 348723, Note_on_c, 9, 44, 0
4, 348915, Note_on_c, 9, 38, 45
4, 349113, Note_on_c, 9, 38, 0
4, 349338, Note_on_c, 9, 40, 29
4, 349344, Note_on_c, 9, 38, 55
4, 349689, Note_on_c, 9, 38, 0
4, 349897, Note_on_c, 9, 38, 35
4, 350026, Note_on_c, 9, 40, 0
4, 350059, Note_on_c, 9, 38, 0
4, 350259, Note_on_c, 9, 44, 56
4, 350319, Note_on_c, 9, 38, 41
4, 350334, Note_on_c, 9, 40, 20
4, 350575, Note_on_c, 9, 44, 0
4, 350586, Note_on_c, 9, 38, 0
4, 350696, Note_on_c, 9, 40, 0
4, 350829, Note_on_c, 9, 38, 53
4, 350846, Note_on_c, 9, 40, 31
4, 351101, Note_on_c, 9, 38, 0
4, 351280, Note_on_c, 9, 40, 0
4, 351345, Note_on_c, 9, 39, 35
4, 351503, Note_on_c, 9, 39, 0
4, 351781, Note_on_c, 9, 53, 46
4, 351784, Note_on_c, 9, 40, 28
4, 351794, Note_on_c, 9, 38, 66
4, 351947, Note_on_c, 9, 53, 0
4, 352085, Note_on_c, 9, 38, 0
4, 352098, Note_on_c, 9, 40, 0
4, 352170, Note_on_c, 9, 36, 44
4, 352197, Note_on_c, 9, 44, 53
4, 352277, Note_on_c, 9, 38, 39
4, 352302, Note_on_c, 9, 40, 13
4, 352424, Note_on_c, 9, 36, 0
4, 352491, Note_on_c, 9, 40, 0
4, 352505, Note_on_c, 9, 38, 0
4, 352587, Note_on_c, 9, 44, 0
4, 352673, Note_on_c, 9, 36, 46
4, 352738, Note_on_c, 9, 40, 26
4, 352743, Note_on_c, 9, 38, 51
4, 352948, Note_on_c, 9, 36, 0
4, 352990, Note_on_c, 9, 40, 0
4, 352994, Note_on_c, 9, 38, 0
4, 353190, Note_on_c, 9, 40, 23
4, 353211, Note_on_c, 9, 38, 52
4, 353258, Note_on_c, 9, 36, 26
4, 353387, Note_on_c, 9, 36, 0
4, 353535, Note_on_c, 9, 38, 0
4, 353560, Note_on_c, 9, 40, 0
4, 353689, Note_on_c, 9, 39, 46
4, 353936, Note_on_c, 9, 39, 0
4, 354099, Note_on_c, 9, 38, 55
4, 354113, Note_on_c, 9, 40, 28
4, 354119, Note_on_c, 9, 44, 49
4, 354202, Note_on_c, 9, 53, 34
4, 354394, Note_on_c, 9, 38, 0
4, 354479, Note_on_c, 9, 44, 0
4, 354544, Note_on_c, 9, 40, 0
4, 354556, Note_on_c, 9, 53, 0
4, 354596, Note_on_c, 9, 38, 36
4, 354662, Note_on_c, 9, 40, 9
4, 354664, Note_on_c, 9, 36, 39
4, 354889, Note_on_c, 9, 38, 0
4, 354932, Note_on_c, 9, 36, 0
4, 355068, Note_on_c, 9, 38, 43
4, 355318, Note_on_c, 9, 38, 0
4, 355345, Note_on_c, 9, 40, 0
4, 355571, Note_on_c, 9, 39, 61
4, 355579, Note_on_c, 9, 53, 45
4, 355603, Note_on_c, 9, 40, 28
4, 355879, Note_on_c, 9, 53, 0
4, 355896, Note_on_c, 9, 39, 0
4, 356035, Note_on_c, 9, 44, 50
4, 356037, Note_on_c, 9, 38, 30
4, 356078, Note_on_c, 9, 36, 25
4, 356293, Note_on_c, 9, 38, 0
4, 356297, Note_on_c, 9, 40, 0
4, 356303, Note_on_c, 9, 36, 0
4, 356407, Note_on_c, 9, 44, 0
4, 356561, Note_on_c, 9, 40, 25
4, 356570, Note_on_c, 9, 38, 50
4, 356815, Note_on_c, 9, 40, 0
4, 356817, Note_on_c, 9, 38, 0
4, 357021, Note_on_c, 9, 40, 24
4, 357042, Note_on_c, 9, 38, 35
4, 357300, Note_on_c, 9, 40, 0
4, 357310, Note_on_c, 9, 38, 0
4, 357535, Note_on_c, 9, 39, 60
4, 357560, Note_on_c, 9, 40, 32
4, 357864, Note_on_c, 9, 39, 0
4, 357950, Note_on_c, 9, 44, 51
4, 358007, Note_on_c, 9, 38, 27
4, 358171, Note_on_c, 9, 40, 0
4, 358238, Note_on_c, 9, 38, 0
4, 358279, Note_on_c, 9, 44, 0
4, 358529, Note_on_c, 9, 39, 63
4, 358546, Note_on_c, 9, 40, 29
4, 358831, Note_on_c, 9, 39, 0
4, 358858, Note_on_c, 9, 40, 0
4, 358995, Note_on_c, 9, 38, 35
4, 359055, Note_on_c, 9, 40, 19
4, 359216, Note_on_c, 9, 40, 0
4, 359257, Note_on_c, 9, 38, 0
4, 359498, Note_on_c, 9, 38, 46
4, 359500, Note_on_c, 9, 40, 28
4, 359523, Note_on_c, 9, 53, 42
4, 359525, Note_on_c, 9, 59, 49
4, 359717, Note_on_c, 9, 40, 0
4, 359729, Note_on_c, 9, 38, 0
4, 359731, Note_on_c, 9, 53, 0
4, 359735, Note_on_c, 9, 59, 0
4, 359909, Note_on_c, 9, 44, 57
4, 359921, Note_on_c, 9, 40, 18
4, 359948, Note_on_c, 9, 38, 36
4, 360183, Note_on_c, 9, 38, 0
4, 360195, Note_on_c, 9, 40, 0
4, 360221, Note_on_c, 9, 44, 0
4, 360416, Note_on_c, 9, 39, 60
4, 360461, Note_on_c, 9, 36, 38
4, 360474, Note_on_c, 9, 40, 31
4, 360613, Note_on_c, 9, 36, 0
4, 360711, Note_on_c, 9, 39, 0
4, 360724, Note_on_c, 9, 40, 0
4, 360925, Note_on_c, 9, 38, 24
4, 360944, Note_on_c, 9, 40, 21
4, 360947, Note_on_c, 9, 59, 50
4, 360954, Note_on_c, 9, 53, 38
4, 361156, Note_on_c, 9, 38, 0
4, 361169, Note_on_c, 9, 40, 0
4, 361368, Note_on_c, 9, 38, 40
4, 361389, Note_on_c, 9, 40, 21
4, 361440, Note_on_c, 9, 53, 0
4, 361517, Note_on_c, 9, 59, 0
4, 361624, Note_on_c, 9, 40, 0
4, 361628, Note_on_c, 9, 38, 0
4, 361780, Note_on_c, 9, 44, 57
4, 361834, Note_on_c, 9, 40, 17
4, 361838, Note_on_c, 9, 38, 36
4, 362069, Note_on_c, 9, 38, 0
4, 362088, Note_on_c, 9, 40, 0
4, 362103, Note_on_c, 9, 44, 0
4, 362313, Note_on_c, 9, 39, 60
4, 362369, Note_on_c, 9, 40, 29
4, 362437, Note_on_c, 9, 59, 43
4, 362445, Note_on_c, 9, 53, 34
4, 362553, Note_on_c, 9, 59, 0
4, 362555, Note_on_c, 9, 53, 0
4, 362633, Note_on_c, 9, 39, 0
4, 362766, Note_on_c, 9, 38, 30
4, 362991, Note_on_c, 9, 38, 0
4, 363018, Note_on_c, 9, 40, 0
4, 363297, Note_on_c, 9, 38, 50
4, 363321, Note_on_c, 9, 40, 24
4, 363327, Note_on_c, 9, 36, 31
4, 363462, Note_on_c, 9, 36, 0
4, 363534, Note_on_c, 9, 38, 0
4, 363538, Note_on_c, 9, 40, 0
4, 363685, Note_on_c, 9, 44, 56
4, 363752, Note_on_c, 9, 38, 37
4, 363760, Note_on_c, 9, 40, 19
4, 363781, Note_on_c, 9, 36, 45
4, 364006, Note_on_c, 9, 38, 0
4, 364010, Note_on_c, 9, 40, 0
4, 364041, Note_on_c, 9, 44, 0
4, 364059, Note_on_c, 9, 36, 0
4, 364241, Note_on_c, 9, 38, 48
4, 364272, Note_on_c, 9, 40, 26
4, 364507, Note_on_c, 9, 38, 0
4, 364518, Note_on_c, 9, 40, 0
4, 364726, Note_on_c, 9, 38, 45
4, 364738, Note_on_c, 9, 40, 22
4, 365054, Note_on_c, 9, 40, 0
4, 365094, Note_on_c, 9, 38, 0
4, 365248, Note_on_c, 9, 39, 64
4, 365266, Note_on_c, 9, 40, 28
4, 365311, Note_on_c, 9, 53, 37
4, 365320, Note_on_c, 9, 59, 46
4, 365436, Note_on_c, 9, 53, 0
4, 365449, Note_on_c, 9, 59, 0
4, 365572, Note_on_c, 9, 39, 0
4, 365624, Note_on_c, 9, 44, 56
4, 365647, Note_on_c, 9, 40, 0
4, 365664, Note_on_c, 9, 38, 43
4, 365890, Note_on_c, 9, 38, 0
4, 365973, Note_on_c, 9, 44, 0
4, 366167, Note_on_c, 9, 38, 55
4, 366170, Note_on_c, 9, 36, 38
4, 366227, Note_on_c, 9, 40, 25
4, 366416, Note_on_c, 9, 38, 0
4, 366419, Note_on_c, 9, 40, 0
4, 366422, Note_on_c, 9, 36, 0
4, 366654, Note_on_c, 9, 39, 68
4, 366678, Note_on_c, 9, 53, 33
4, 366679, Note_on_c, 9, 40, 33
4, 366682, Note_on_c, 9, 59, 39
4, 366984, Note_on_c, 9, 40, 0
4, 367017, Note_on_c, 9, 53, 0
4, 367026, Note_on_c, 9, 39, 0
4, 367178, Note_on_c, 9, 38, 31
4, 367179, Note_on_c, 9, 59, 0
4, 367242, Note_on_c, 9, 40, 14
4, 367359, Note_on_c, 9, 40, 0
4, 367396, Note_on_c, 9, 38, 0
4, 367516, Note_on_c, 9, 44, 67
4, 367631, Note_on_c, 9, 38, 51
4, 367660, Note_on_c, 9, 40, 23
4, 367885, Note_on_c, 9, 44, 0
4, 367922, Note_on_c, 9, 40, 0
4, 367937, Note_on_c, 9, 38, 0
4, 368114, Note_on_c, 9, 38, 51
4, 368149, Note_on_c, 9, 40, 23
4, 368257, Note_on_c, 9, 57, 55
4, 368297, Note_on_c, 9, 38, 0
4, 368338, Note_on_c, 9, 40, 0
4, 368477, Note_on_c, 9, 57, 0
4, 368643, Note_on_c, 9, 38, 70
4, 368643, Note_on_c, 9, 40, 28
4, 368684, Note_on_c, 9, 59, 40
4, 368796, Note_on_c, 9, 38, 0
4, 368880, Note_on_c, 9, 59, 0
4, 369078, Note_on_c, 9, 38, 43
4, 369086, Note_on_c, 9, 40, 0
4, 369192, Note_on_c, 9, 38, 0
4, 369576, Note_on_c, 9, 38, 37
4, 369587, Note_on_c, 9, 44, 48
4, 369705, Note_on_c, 9, 38, 0
4, 369907, Note_on_c, 9, 44, 0
4, 370135, Note_on_c, 9, 38, 62
4, 370156, Note_on_c, 9, 40, 27
4, 370302, Note_on_c, 9, 38, 0
4, 370383, Note_on_c, 9, 40, 0
4, 370659, Note_on_c, 9, 38, 36
4, 370788, Note_on_c, 9, 38, 0
4, 371144, Note_on_c, 9, 38, 31
4, 371263, Note_on_c, 9, 38, 0
4, 371488, Note_on_c, 9, 44, 46
4, 371583, Note_on_c, 9, 38, 51
4, 371608, Note_on_c, 9, 40, 26
4, 371766, Note_on_c, 9, 38, 0
4, 371851, Note_on_c, 9, 40, 0
4, 372013, Note_on_c, 9, 44, 0
4, 372107, Note_on_c, 9, 38, 34
4, 372278, Note_on_c, 9, 38, 0
4, 372561, Note_on_c, 9, 38, 32
4, 372725, Note_on_c, 9, 38, 0
4, 373037, Note_on_c, 9, 40, 31
4, 373041, Note_on_c, 9, 38, 52
4, 373237, Note_on_c, 9, 38, 0
4, 373307, Note_on_c, 9, 40, 0
4, 373474, Note_on_c, 9, 44, 40
4, 373557, Note_on_c, 9, 38, 31
4, 373754, Note_on_c, 9, 38, 0
4, 373834, Note_on_c, 9, 44, 0
4, 374006, Note_on_c, 9, 38, 31
4, 374264, Note_on_c, 9, 38, 0
4, 374493, Note_on_c, 9, 40, 22
4, 374497, Note_on_c, 9, 38, 47
4, 374851, Note_on_c, 9, 38, 0
4, 375005, Note_on_c, 9, 38, 35
4, 375179, Note_on_c, 9, 38, 0
4, 375352, Note_on_c, 9, 46, 17
4, 375404, Note_on_c, 9, 38, 35
4, 375552, Note_on_c, 9, 38, 0
4, 375813, Note_on_c, 9, 46, 0
4, 375895, Note_on_c, 9, 38, 38
4, 376076, Note_on_c, 9, 38, 0
4, 376136, Note_on_c, 9, 40, 0
4, 376352, Note_on_c, 9, 40, 18
4, 376365, Note_on_c, 9, 38, 53
4, 376587, Note_on_c, 9, 38, 0
4, 376866, Note_on_c, 9, 38, 38
4, 376995, Note_on_c, 9, 38, 0
4, 377338, Note_on_c, 9, 38, 25
4, 377352, Note_on_c, 9, 44, 40
4, 377476, Note_on_c, 9, 38, 0
4, 377482, Note_on_c, 9, 40, 0
4, 377701, Note_on_c, 9, 44, 0
4, 377769, Note_on_c, 9, 38, 52
4, 377815, Note_on_c, 9, 40, 24
4, 377991, Note_on_c, 9, 38, 0
4, 378237, Note_on_c, 9, 38, 33
4, 378407, Note_on_c, 9, 38, 0
4, 378601, Note_on_c, 9, 40, 0
4, 378744, Note_on_c, 9, 38, 40
4, 378873, Note_on_c, 9, 38, 0
4, 379152, Note_on_c, 9, 38, 50
4, 379183, Note_on_c, 9, 44, 48
4, 379194, Note_on_c, 9, 40, 23
4, 379383, Note_on_c, 9, 38, 0
4, 379589, Note_on_c, 9, 44, 0
4, 379685, Note_on_c, 9, 38, 40
4, 379838, Note_on_c, 9, 38, 0
4, 380134, Note_on_c, 9, 38, 36
4, 380136, Note_on_c, 9, 40, 0
4, 380336, Note_on_c, 9, 38, 0
4, 380560, Note_on_c, 9, 39, 59
4, 380593, Note_on_c, 9, 40, 26
4, 380777, Note_on_c, 9, 39, 0
4, 380914, Note_on_c, 9, 40, 0
4, 381026, Note_on_c, 9, 38, 28
4, 381075, Note_on_c, 9, 44, 51
4, 381255, Note_on_c, 9, 38, 0
4, 381464, Note_on_c, 9, 44, 0
4, 381505, Note_on_c, 9, 38, 34
4, 381563, Note_on_c, 9, 40, 18
4, 381760, Note_on_c, 9, 38, 0
4, 381885, Note_on_c, 9, 40, 0
4, 382000, Note_on_c, 9, 38, 30
4, 382249, Note_on_c, 9, 38, 0
4, 382524, Note_on_c, 9, 38, 34
4, 382746, Note_on_c, 9, 38, 0
4, 382969, Note_on_c, 9, 38, 47
4, 382979, Note_on_c, 9, 40, 25
4, 383010, Note_on_c, 9, 44, 50
4, 383273, Note_on_c, 9, 38, 0
4, 383453, Note_on_c, 9, 44, 0
4, 383459, Note_on_c, 9, 53, 20
4, 383503, Note_on_c, 9, 40, 0
4, 383547, Note_on_c, 9, 38, 19
4, 383734, Note_on_c, 9, 53, 0
4, 383807, Note_on_c, 9, 38, 0
4, 383950, Note_on_c, 9, 53, 28
4, 384026, Note_on_c, 9, 38, 34
4, 384263, Note_on_c, 9, 38, 0
4, 384539, Note_on_c, 9, 38, 42
4, 384589, Note_on_c, 9, 40, 23
4, 384605, Note_on_c, 9, 53, 0
4, 384776, Note_on_c, 9, 38, 0
4, 384945, Note_on_c, 9, 44, 44
4, 384978, Note_on_c, 9, 38, 28
4, 385246, Note_on_c, 9, 38, 0
4, 385302, Note_on_c, 9, 44, 0
4, 385477, Note_on_c, 9, 38, 45
4, 385667, Note_on_c, 9, 38, 0
4, 385787, Note_on_c, 9, 40, 0
4, 385922, Note_on_c, 9, 38, 46
4, 385952, Note_on_c, 9, 40, 18
4, 386118, Note_on_c, 9, 38, 0
4, 386418, Note_on_c, 9, 38, 33
4, 386536, Note_on_c, 9, 38, 0
4, 386702, Note_on_c, 9, 40, 0
4, 386834, Note_on_c, 9, 38, 41
4, 386867, Note_on_c, 9, 40, 19
4, 386867, Note_on_c, 9, 44, 49
4, 387098, Note_on_c, 9, 38, 0
4, 387254, Note_on_c, 9, 44, 0
4, 387339, Note_on_c, 9, 38, 38
4, 387507, Note_on_c, 9, 38, 0
4, 387784, Note_on_c, 9, 38, 34
4, 388002, Note_on_c, 9, 38, 0
4, 388106, Note_on_c, 9, 40, 0
4, 388271, Note_on_c, 9, 38, 32
4, 388366, Note_on_c, 9, 40, 18
4, 388454, Note_on_c, 9, 38, 0
4, 388714, Note_on_c, 9, 38, 36
4, 388789, Note_on_c, 9, 44, 38
4, 389018, Note_on_c, 9, 38, 0
4, 389162, Note_on_c, 9, 44, 0
4, 389259, Note_on_c, 9, 38, 34
4, 389434, Note_on_c, 9, 40, 0
4, 389488, Note_on_c, 9, 38, 0
4, 389716, Note_on_c, 9, 40, 18
4, 389760, Note_on_c, 9, 38, 42
4, 390020, Note_on_c, 9, 38, 0
4, 390251, Note_on_c, 9, 38, 35
4, 390407, Note_on_c, 9, 38, 0
4, 390700, Note_on_c, 9, 38, 30
4, 390731, Note_on_c, 9, 44, 45
4, 390860, Note_on_c, 9, 38, 0
4, 391147, Note_on_c, 9, 38, 40
4, 391151, Note_on_c, 9, 44, 0
4, 391222, Note_on_c, 9, 36, 44
4, 391358, Note_on_c, 9, 38, 0
4, 391410, Note_on_c, 9, 40, 0
4, 391448, Note_on_c, 9, 36, 0
4, 391632, Note_on_c, 9, 40, 23
4, 391634, Note_on_c, 9, 38, 47
4, 391857, Note_on_c, 9, 38, 0
4, 392165, Note_on_c, 9, 38, 36
4, 392312, Note_on_c, 9, 38, 0
4, 392636, Note_on_c, 9, 44, 38
4, 392658, Note_on_c, 9, 38, 24
4, 392776, Note_on_c, 9, 38, 0
4, 392966, Note_on_c, 9, 44, 0
4, 393134, Note_on_c, 9, 38, 38
4, 393282, Note_on_c, 9, 38, 0
4, 393621, Note_on_c, 9, 38, 44
4, 393758, Note_on_c, 9, 38, 0
4, 393897, Note_on_c, 9, 40, 0
4, 394078, Note_on_c, 9, 38, 65
4, 394109, Note_on_c, 9, 40, 29
4, 394290, Note_on_c, 9, 38, 0
4, 394525, Note_on_c, 9, 38, 36
4, 394582, Note_on_c, 9, 44, 49
4, 394698, Note_on_c, 9, 38, 0
4, 394894, Note_on_c, 9, 44, 0
4, 395018, Note_on_c, 9, 38, 35
4, 395160, Note_on_c, 9, 38, 0
4, 395231, Note_on_c, 9, 40, 0
4, 395497, Note_on_c, 9, 38, 60
4, 395507, Note_on_c, 9, 40, 24
4, 395721, Note_on_c, 9, 38, 0
4, 395984, Note_on_c, 9, 38, 38
4, 396148, Note_on_c, 9, 38, 0
4, 396454, Note_on_c, 9, 39, 60
4, 396457, Note_on_c, 9, 44, 49
4, 396699, Note_on_c, 9, 44, 0
4, 396714, Note_on_c, 9, 39, 0
4, 396753, Note_on_c, 9, 40, 0
4, 396976, Note_on_c, 9, 40, 18
4, 396990, Note_on_c, 9, 38, 35
4, 397211, Note_on_c, 9, 38, 0
4, 397368, Note_on_c, 9, 53, 45
4, 397425, Note_on_c, 9, 38, 34
4, 397534, Note_on_c, 9, 53, 0
4, 397702, Note_on_c, 9, 38, 0
4, 397741, Note_on_c, 9, 40, 0
4, 397909, Note_on_c, 9, 53, 53
4, 397924, Note_on_c, 9, 39, 64
4, 397943, Note_on_c, 9, 40, 27
4, 398084, Note_on_c, 9, 53, 0
4, 398319, Note_on_c, 9, 39, 0
4, 398388, Note_on_c, 9, 38, 34
4, 398392, Note_on_c, 9, 46, 21
4, 398633, Note_on_c, 9, 38, 0
4, 398640, Note_on_c, 9, 40, 0
4, 398748, Note_on_c, 9, 46, 0
4, 398849, Note_on_c, 9, 36, 36
4, 398864, Note_on_c, 9, 38, 44
4, 398925, Note_on_c, 9, 40, 28
4, 399088, Note_on_c, 9, 36, 0
4, 399118, Note_on_c, 9, 38, 0
4, 399253, Note_on_c, 9, 40, 0
4, 399311, Note_on_c, 9, 38, 45
4, 399330, Note_on_c, 9, 36, 50
4, 399355, Note_on_c, 9, 40, 19
4, 399596, Note_on_c, 9, 36, 0
4, 399634, Note_on_c, 9, 38, 0
4, 399838, Note_on_c, 9, 38, 45
4, 400035, Note_on_c, 9, 38, 0
4, 400263, Note_on_c, 9, 44, 48
4, 400306, Note_on_c, 9, 38, 31
4, 400399, Note_on_c, 9, 40, 0
4, 400569, Note_on_c, 9, 44, 0
4, 400624, Note_on_c, 9, 38, 0
4, 400809, Note_on_c, 9, 40, 23
4, 400811, Note_on_c, 9, 38, 51
4, 401044, Note_on_c, 9, 38, 0
4, 401265, Note_on_c, 9, 38, 34
4, 401454, Note_on_c, 9, 38, 0
4, 401523, Note_on_c, 9, 40, 0
4, 401766, Note_on_c, 9, 38, 32
4, 401855, Note_on_c, 9, 40, 17
4, 401982, Note_on_c, 9, 38, 0
4, 402152, Note_on_c, 9, 44, 46
4, 402180, Note_on_c, 9, 38, 42
4, 402425, Note_on_c, 9, 38, 0
4, 402521, Note_on_c, 9, 44, 0
4, 402587, Note_on_c, 9, 40, 0
4, 402694, Note_on_c, 9, 39, 64
4, 402947, Note_on_c, 9, 40, 14
4, 402974, Note_on_c, 9, 39, 0
4, 403162, Note_on_c, 9, 38, 30
4, 403492, Note_on_c, 9, 38, 0
4, 403513, Note_on_c, 9, 40, 0
4, 403682, Note_on_c, 9, 38, 40
4, 403925, Note_on_c, 9, 38, 0
4, 404110, Note_on_c, 9, 38, 37
4, 404134, Note_on_c, 9, 46, 29
4, 404181, Note_on_c, 9, 40, 14
4, 404349, Note_on_c, 9, 38, 0
4, 404403, Note_on_c, 9, 46, 0
4, 404462, Note_on_c, 9, 40, 0
4, 404630, Note_on_c, 9, 38, 56
4, 404678, Note_on_c, 9, 40, 27
4, 404977, Note_on_c, 9, 38, 0
4, 405135, Note_on_c, 9, 38, 37
4, 405425, Note_on_c, 9, 38, 0
4, 405607, Note_on_c, 9, 53, 32
4, 405608, Note_on_c, 9, 38, 46
4, 405715, Note_on_c, 9, 53, 0
4, 405851, Note_on_c, 9, 40, 0
4, 405876, Note_on_c, 9, 38, 0
4, 405969, Note_on_c, 9, 44, 52
4, 406046, Note_on_c, 9, 36, 35
4, 406078, Note_on_c, 9, 38, 44
4, 406088, Note_on_c, 9, 40, 20
4, 406241, Note_on_c, 9, 36, 0
4, 406258, Note_on_c, 9, 44, 0
4, 406425, Note_on_c, 9, 38, 0
4, 406573, Note_on_c, 9, 40, 0
4, 406585, Note_on_c, 9, 39, 60
4, 406618, Note_on_c, 9, 36, 27
4, 406801, Note_on_c, 9, 36, 0
4, 406928, Note_on_c, 9, 39, 0
4, 406991, Note_on_c, 9, 40, 18
4, 407018, Note_on_c, 9, 38, 36
4, 407330, Note_on_c, 9, 38, 0
4, 407455, Note_on_c, 9, 40, 0
4, 407538, Note_on_c, 9, 38, 40
4, 407765, Note_on_c, 9, 38, 0
4, 407914, Note_on_c, 9, 44, 46
4, 407966, Note_on_c, 9, 40, 15
4, 407993, Note_on_c, 9, 38, 36
4, 408195, Note_on_c, 9, 38, 0
4, 408210, Note_on_c, 9, 40, 0
4, 408223, Note_on_c, 9, 44, 0
4, 408478, Note_on_c, 9, 38, 60
4, 408520, Note_on_c, 9, 40, 21
4, 409119, Note_on_c, 9, 38, 0
4, 409335, Note_on_c, 9, 38, 49
4, 409524, Note_on_c, 9, 40, 0
4, 409589, Note_on_c, 9, 38, 0
4, 409776, Note_on_c, 9, 44, 48
4, 409859, Note_on_c, 9, 38, 50
4, 409861, Note_on_c, 9, 40, 19
4, 410142, Note_on_c, 9, 44, 0
4, 410173, Note_on_c, 9, 38, 0
4, 410385, Note_on_c, 9, 38, 37
4, 410537, Note_on_c, 9, 38, 0
4, 410847, Note_on_c, 9, 38, 27
4, 410974, Note_on_c, 9, 38, 0
4, 411309, Note_on_c, 9, 38, 54
4, 411488, Note_on_c, 9, 38, 0
4, 411701, Note_on_c, 9, 44, 44
4, 411814, Note_on_c, 9, 38, 25
4, 411929, Note_on_c, 9, 38, 0
4, 412091, Note_on_c, 9, 44, 0
4, 412255, Note_on_c, 9, 38, 62
4, 412257, Note_on_c, 9, 40, 0
4, 412407, Note_on_c, 9, 38, 0
4, 412744, Note_on_c, 9, 38, 44
4, 412779, Note_on_c, 9, 40, 19
4, 412850, Note_on_c, 9, 38, 0
4, 413237, Note_on_c, 9, 38, 71
4, 413408, Note_on_c, 9, 38, 0
4, 413660, Note_on_c, 9, 44, 50
4, 413715, Note_on_c, 9, 38, 33
4, 413836, Note_on_c, 9, 38, 0
4, 413965, Note_on_c, 9, 40, 0
4, 414100, Note_on_c, 9, 44, 0
4, 414162, Note_on_c, 9, 59, 36
4, 414238, Note_on_c, 9, 38, 72
4, 414264, Note_on_c, 9, 59, 0
4, 414290, Note_on_c, 9, 40, 23
4, 414406, Note_on_c, 9, 38, 0
4, 414730, Note_on_c, 9, 38, 57
4, 414878, Note_on_c, 9, 38, 0
4, 415097, Note_on_c, 9, 40, 0
4, 415180, Note_on_c, 9, 38, 66
4, 415182, Note_on_c, 9, 39, 58
4, 415230, Note_on_c, 9, 40, 17
4, 415379, Note_on_c, 9, 38, 0
4, 415473, Note_on_c, 9, 39, 0
4, 415606, Note_on_c, 9, 38, 29
4, 415626, Note_on_c, 9, 36, 38
4, 415672, Note_on_c, 9, 44, 49
4, 415835, Note_on_c, 9, 38, 0
4, 415914, Note_on_c, 9, 40, 0
4, 415982, Note_on_c, 9, 44, 0
4, 416155, Note_on_c, 9, 38, 47
4, 416216, Note_on_c, 9, 40, 14
4, 416254, Note_on_c, 9, 36, 0
4, 416363, Note_on_c, 9, 38, 0
4, 416617, Note_on_c, 9, 38, 41
4, 416912, Note_on_c, 9, 38, 0
4, 416958, Note_on_c, 9, 40, 0
4, 417106, Note_on_c, 9, 38, 40
4, 417114, Note_on_c, 9, 39, 57
4, 417150, Note_on_c, 9, 40, 23
4, 417297, Note_on_c, 9, 38, 0
4, 417432, Note_on_c, 9, 39, 0
4, 417544, Note_on_c, 9, 44, 48
4, 417559, Note_on_c, 9, 38, 29
4, 417796, Note_on_c, 9, 40, 0
4, 417823, Note_on_c, 9, 38, 0
4, 417994, Note_on_c, 9, 44, 0
4, 418086, Note_on_c, 9, 38, 18
4, 418129, Note_on_c, 9, 40, 11
4, 418333, Note_on_c, 9, 38, 0
4, 418400, Note_on_c, 9, 40, 0
4, 418549, Note_on_c, 9, 39, 60
4, 418595, Note_on_c, 9, 40, 24
4, 418884, Note_on_c, 9, 39, 0
4, 419055, Note_on_c, 9, 38, 31
4, 419200, Note_on_c, 9, 38, 0
4, 419202, Note_on_c, 9, 40, 0
4, 419429, Note_on_c, 9, 40, 14
4, 419462, Note_on_c, 9, 38, 40
4, 419516, Note_on_c, 9, 44, 51
4, 419785, Note_on_c, 9, 38, 0
4, 419835, Note_on_c, 9, 40, 0
4, 419933, Note_on_c, 9, 44, 0
4, 420018, Note_on_c, 9, 38, 50
4, 420068, Note_on_c, 9, 40, 18
4, 420270, Note_on_c, 9, 38, 0
4, 420505, Note_on_c, 9, 38, 31
4, 420586, Note_on_c, 9, 40, 0
4, 420710, Note_on_c, 9, 38, 0
4, 421010, Note_on_c, 9, 38, 60
4, 421218, Note_on_c, 9, 38, 0
4, 421415, Note_on_c, 9, 44, 51
4, 421436, Note_on_c, 9, 38, 46
4, 421667, Note_on_c, 9, 38, 0
4, 421845, Note_on_c, 9, 44, 0
4, 421890, Note_on_c, 9, 40, 27
4, 421892, Note_on_c, 9, 38, 61
4, 421999, Note_on_c, 9, 36, 20
4, 422162, Note_on_c, 9, 38, 0
4, 422174, Note_on_c, 9, 36, 0
4, 422358, Note_on_c, 9, 38, 39
4, 422599, Note_on_c, 9, 38, 0
4, 422647, Note_on_c, 9, 40, 0
4, 422888, Note_on_c, 9, 38, 54
4, 423103, Note_on_c, 9, 38, 0
4, 423313, Note_on_c, 9, 44, 56
4, 423317, Note_on_c, 9, 38, 53
4, 423352, Note_on_c, 9, 40, 28
4, 423623, Note_on_c, 9, 38, 0
4, 423743, Note_on_c, 9, 44, 0
4, 423828, Note_on_c, 9, 38, 42
4, 424030, Note_on_c, 9, 38, 0
4, 424311, Note_on_c, 9, 38, 45
4, 424540, Note_on_c, 9, 38, 0
4, 424554, Note_on_c, 9, 40, 0
4, 424762, Note_on_c, 9, 38, 47
4, 424777, Note_on_c, 9, 39, 53
4, 424791, Note_on_c, 9, 40, 24
4, 424847, Note_on_c, 9, 36, 31
4, 424976, Note_on_c, 9, 36, 0
4, 425031, Note_on_c, 9, 38, 0
4, 425122, Note_on_c, 9, 39, 0
4, 425216, Note_on_c, 9, 40, 0
4, 425218, Note_on_c, 9, 44, 56
4, 425239, Note_on_c, 9, 38, 33
4, 425486, Note_on_c, 9, 38, 0
4, 425695, Note_on_c, 9, 44, 0
4, 425738, Note_on_c, 9, 38, 58
4, 425741, Note_on_c, 9, 53, 26
4, 425788, Note_on_c, 9, 40, 22
4, 425924, Note_on_c, 9, 53, 0
4, 426019, Note_on_c, 9, 38, 0
4, 426195, Note_on_c, 9, 53, 19
4, 426206, Note_on_c, 9, 38, 39
4, 426302, Note_on_c, 9, 40, 0
4, 426324, Note_on_c, 9, 53, 0
4, 426462, Note_on_c, 9, 38, 0
4, 426642, Note_on_c, 9, 36, 40
4, 426663, Note_on_c, 9, 39, 64
4, 426759, Note_on_c, 9, 40, 29
4, 426850, Note_on_c, 9, 36, 0
4, 427044, Note_on_c, 9, 39, 0
4, 427103, Note_on_c, 9, 44, 62
4, 427144, Note_on_c, 9, 38, 24
4, 427211, Note_on_c, 9, 40, 0
4, 427358, Note_on_c, 9, 38, 0
4, 427530, Note_on_c, 9, 44, 0
4, 427635, Note_on_c, 9, 38, 43
4, 427649, Note_on_c, 9, 53, 38
4, 427815, Note_on_c, 9, 53, 0
4, 427857, Note_on_c, 9, 38, 0
4, 428063, Note_on_c, 9, 53, 30
4, 428090, Note_on_c, 9, 38, 51
4, 428092, Note_on_c, 9, 40, 22
4, 428388, Note_on_c, 9, 38, 0
4, 428447, Note_on_c, 9, 53, 0
4, 428583, Note_on_c, 9, 36, 33
4, 428598, Note_on_c, 9, 38, 42
4, 428700, Note_on_c, 9, 40, 0
4, 428734, Note_on_c, 9, 36, 0
4, 428793, Note_on_c, 9, 38, 0
4, 429064, Note_on_c, 9, 40, 22
4, 429068, Note_on_c, 9, 38, 57
4, 429079, Note_on_c, 9, 44, 51
4, 429088, Note_on_c, 9, 53, 28
4, 429248, Note_on_c, 9, 53, 0
4, 429351, Note_on_c, 9, 38, 0
4, 429517, Note_on_c, 9, 36, 62
4, 429569, Note_on_c, 9, 38, 42
4, 429623, Note_on_c, 9, 44, 0
4, 429760, Note_on_c, 9, 36, 0
4, 429765, Note_on_c, 9, 38, 0
4, 430001, Note_on_c, 9, 51, 47
4, 430041, Note_on_c, 9, 38, 49
4, 430241, Note_on_c, 9, 38, 0
4, 430276, Note_on_c, 9, 40, 0
4, 430290, Note_on_c, 9, 51, 0
4, 430568, Note_on_c, 9, 38, 33
4, 430722, Note_on_c, 9, 38, 0
4, 430974, Note_on_c, 9, 44, 56
4, 430998, Note_on_c, 9, 38, 59
4, 431048, Note_on_c, 9, 40, 26
4, 431323, Note_on_c, 9, 38, 0
4, 431404, Note_on_c, 9, 44, 0
4, 431522, Note_on_c, 9, 38, 42
4, 431576, Note_on_c, 9, 36, 33
4, 431686, Note_on_c, 9, 36, 0
4, 431726, Note_on_c, 9, 38, 0
4, 431764, Note_on_c, 9, 40, 0
4, 432011, Note_on_c, 9, 38, 36
4, 432157, Note_on_c, 9, 38, 0
4, 432469, Note_on_c, 9, 38, 62
4, 432508, Note_on_c, 9, 40, 25
4, 432535, Note_on_c, 9, 53, 37
4, 432682, Note_on_c, 9, 53, 0
4, 432698, Note_on_c, 9, 38, 0
4, 432897, Note_on_c, 9, 38, 44
4, 432956, Note_on_c, 9, 44, 60
4, 432980, Note_on_c, 9, 40, 0
4, 433107, Note_on_c, 9, 38, 0
4, 433410, Note_on_c, 9, 44, 0
4, 433413, Note_on_c, 9, 38, 48
4, 433458, Note_on_c, 9, 51, 33
4, 433573, Note_on_c, 9, 51, 0
4, 433590, Note_on_c, 9, 38, 0
4, 433860, Note_on_c, 9, 51, 34
4, 433860, Note_on_c, 9, 40, 25
4, 433867, Note_on_c, 9, 38, 48
4, 434057, Note_on_c, 9, 51, 0
4, 434339, Note_on_c, 9, 40, 0
4, 434355, Note_on_c, 9, 39, 64
4, 434453, Note_on_c, 9, 38, 0
4, 434628, Note_on_c, 9, 39, 0
4, 434765, Note_on_c, 9, 40, 18
4, 434776, Note_on_c, 9, 38, 47
4, 434858, Note_on_c, 9, 44, 56
4, 435017, Note_on_c, 9, 38, 0
4, 435100, Note_on_c, 9, 40, 0
4, 435285, Note_on_c, 9, 38, 33
4, 435288, Note_on_c, 9, 44, 0
4, 435295, Note_on_c, 9, 53, 48
4, 435501, Note_on_c, 9, 53, 0
4, 435508, Note_on_c, 9, 38, 0
4, 435766, Note_on_c, 9, 39, 57
4, 435782, Note_on_c, 9, 40, 20
4, 435811, Note_on_c, 9, 38, 32
4, 435901, Note_on_c, 9, 38, 0
4, 436155, Note_on_c, 9, 40, 0
4, 436165, Note_on_c, 9, 39, 0
4, 436306, Note_on_c, 9, 38, 26
4, 436347, Note_on_c, 9, 51, 25
4, 436435, Note_on_c, 9, 51, 0
4, 436512, Note_on_c, 9, 38, 0
4, 436726, Note_on_c, 9, 44, 60
4, 436776, Note_on_c, 9, 38, 50
4, 436801, Note_on_c, 9, 40, 18
4, 437024, Note_on_c, 9, 38, 0
4, 437030, Note_on_c, 9, 40, 0
4, 437180, Note_on_c, 9, 44, 0
4, 437299, Note_on_c, 9, 38, 56
4, 437348, Note_on_c, 9, 40, 21
4, 437609, Note_on_c, 9, 38, 0
4, 437750, Note_on_c, 9, 40, 0
4, 437767, Note_on_c, 9, 38, 37
4, 437968, Note_on_c, 9, 38, 0
4, 438251, Note_on_c, 9, 38, 57
4, 438482, Note_on_c, 9, 38, 0
4, 438645, Note_on_c, 9, 44, 56
4, 438684, Note_on_c, 9, 38, 55
4, 438738, Note_on_c, 9, 40, 25
4, 439031, Note_on_c, 9, 38, 0
4, 439031, Note_on_c, 9, 44, 0
4, 439181, Note_on_c, 9, 38, 33
4, 439297, Note_on_c, 9, 40, 0
4, 439428, Note_on_c, 9, 38, 0
4, 439645, Note_on_c, 9, 38, 33
4, 439886, Note_on_c, 9, 38, 0
4, 440138, Note_on_c, 9, 38, 51
4, 440150, Note_on_c, 9, 53, 46
4, 440163, Note_on_c, 9, 40, 24
4, 440449, Note_on_c, 9, 53, 0
4, 440464, Note_on_c, 9, 38, 0
4, 440537, Note_on_c, 9, 40, 0
4, 440540, Note_on_c, 9, 44, 56
4, 440610, Note_on_c, 9, 39, 38
4, 440855, Note_on_c, 9, 39, 0
4, 440980, Note_on_c, 9, 44, 0
4, 441065, Note_on_c, 9, 38, 57
4, 441086, Note_on_c, 9, 40, 26
4, 441100, Note_on_c, 9, 36, 22
4, 441215, Note_on_c, 9, 36, 0
4, 441359, Note_on_c, 9, 38, 0
4, 441467, Note_on_c, 9, 40, 0
4, 441490, Note_on_c, 9, 38, 34
4, 441549, Note_on_c, 9, 36, 40
4, 441704, Note_on_c, 9, 38, 0
4, 441739, Note_on_c, 9, 36, 0
4, 441976, Note_on_c, 9, 39, 56
4, 442003, Note_on_c, 9, 40, 28
4, 442347, Note_on_c, 9, 40, 0
4, 442349, Note_on_c, 9, 39, 0
4, 442465, Note_on_c, 9, 38, 29
4, 442475, Note_on_c, 9, 44, 55
4, 442738, Note_on_c, 9, 38, 0
4, 442905, Note_on_c, 9, 44, 0
4, 442973, Note_on_c, 9, 38, 38
4, 443224, Note_on_c, 9, 38, 0
4, 443441, Note_on_c, 9, 38, 47
4, 443453, Note_on_c, 9, 40, 27
4, 443761, Note_on_c, 9, 38, 0
4, 443894, Note_on_c, 9, 40, 0
4, 443907, Note_on_c, 9, 39, 59
4, 443943, Note_on_c, 9, 53, 51
4, 444198, Note_on_c, 9, 39, 0
4, 444249, Note_on_c, 9, 53, 0
4, 444387, Note_on_c, 9, 38, 48
4, 444387, Note_on_c, 9, 44, 55
4, 444431, Note_on_c, 9, 40, 15
4, 444441, Note_on_c, 9, 51, 25
4, 444613, Note_on_c, 9, 51, 0
4, 444662, Note_on_c, 9, 38, 0
4, 444701, Note_on_c, 9, 40, 0
4, 444871, Note_on_c, 9, 44, 0
4, 444876, Note_on_c, 9, 38, 44
4, 444942, Note_on_c, 9, 36, 44
4, 445109, Note_on_c, 9, 38, 0
4, 445183, Note_on_c, 9, 36, 0
4, 445386, Note_on_c, 9, 40, 23
4, 445396, Note_on_c, 9, 38, 57
4, 445404, Note_on_c, 9, 36, 40
4, 445653, Note_on_c, 9, 36, 0
4, 445689, Note_on_c, 9, 38, 0
4, 445743, Note_on_c, 9, 40, 0
4, 445903, Note_on_c, 9, 38, 42
4, 446091, Note_on_c, 9, 38, 0
4, 446292, Note_on_c, 9, 44, 50
4, 446403, Note_on_c, 9, 38, 49
4, 446415, Note_on_c, 9, 40, 20
4, 446663, Note_on_c, 9, 38, 0
4, 446695, Note_on_c, 9, 44, 0
4, 446717, Note_on_c, 9, 40, 0
4, 446852, Note_on_c, 9, 39, 46
4, 446914, Note_on_c, 9, 53, 48
4, 447080, Note_on_c, 9, 53, 0
4, 447143, Note_on_c, 9, 39, 0
4, 447307, Note_on_c, 9, 38, 44
4, 447355, Note_on_c, 9, 40, 13
4, 447534, Note_on_c, 9, 38, 0
4, 447547, Note_on_c, 9, 40, 0
4, 447823, Note_on_c, 9, 53, 31
4, 447825, Note_on_c, 9, 38, 55
4, 447850, Note_on_c, 9, 40, 26
4, 447983, Note_on_c, 9, 53, 0
4, 448085, Note_on_c, 9, 38, 0
4, 448202, Note_on_c, 9, 40, 0
4, 448278, Note_on_c, 9, 44, 50
4, 448495, Note_on_c, 9, 38, 51
4, 448651, Note_on_c, 9, 44, 0
4, 448674, Note_on_c, 9, 38, 0
4, 448953, Note_on_c, 9, 38, 40
4, 449132, Note_on_c, 9, 38, 0
4, 449367, Note_on_c, 9, 38, 54
4, 449377, Note_on_c, 9, 40, 26
4, 449718, Note_on_c, 9, 38, 0
4, 449803, Note_on_c, 9, 40, 0
4, 449880, Note_on_c, 9, 38, 33
4, 450047, Note_on_c, 9, 38, 0
4, 450190, Note_on_c, 9, 44, 56
4, 450309, Note_on_c, 9, 38, 45
4, 450519, Note_on_c, 9, 38, 0
4, 450522, Note_on_c, 9, 44, 0
4, 450742, Note_on_c, 9, 39, 58
4, 450775, Note_on_c, 9, 40, 28
4, 451054, Note_on_c, 9, 39, 0
4, 451168, Note_on_c, 9, 40, 0
4, 451228, Note_on_c, 9, 38, 24
4, 451440, Note_on_c, 9, 38, 0
4, 451703, Note_on_c, 9, 38, 42
4, 451748, Note_on_c, 9, 40, 20
4, 451952, Note_on_c, 9, 38, 0
4, 451963, Note_on_c, 9, 40, 0
4, 452139, Note_on_c, 9, 44, 55
4, 452154, Note_on_c, 9, 38, 37
4, 452379, Note_on_c, 9, 38, 0
4, 452488, Note_on_c, 9, 44, 0
4, 452616, Note_on_c, 9, 38, 35
4, 452842, Note_on_c, 9, 38, 0
4, 453073, Note_on_c, 9, 38, 53
4, 453090, Note_on_c, 9, 40, 25
4, 453487, Note_on_c, 9, 38, 0
4, 453520, Note_on_c, 9, 40, 0
4, 453633, Note_on_c, 9, 39, 56
4, 453857, Note_on_c, 9, 39, 0
4, 453995, Note_on_c, 9, 40, 17
4, 453999, Note_on_c, 9, 38, 35
4, 454077, Note_on_c, 9, 44, 56
4, 454265, Note_on_c, 9, 40, 0
4, 454280, Note_on_c, 9, 38, 0
4, 454386, Note_on_c, 9, 44, 0
4, 454550, Note_on_c, 9, 38, 46
4, 454587, Note_on_c, 9, 40, 25
4, 455043, Note_on_c, 9, 38, 0
4, 455087, Note_on_c, 9, 40, 0
4, 455440, Note_on_c, 9, 39, 58
4, 455463, Note_on_c, 9, 40, 27
4, 455811, Note_on_c, 9, 39, 0
4, 455860, Note_on_c, 9, 40, 0
4, 455906, Note_on_c, 9, 38, 34
4, 456009, Note_on_c, 9, 44, 57
4, 456202, Note_on_c, 9, 38, 0
4, 456403, Note_on_c, 9, 38, 32
4, 456460, Note_on_c, 9, 44, 0
4, 456651, Note_on_c, 9, 38, 0
4, 456878, Note_on_c, 9, 38, 49
4, 456888, Note_on_c, 9, 40, 27
4, 456902, Note_on_c, 9, 53, 50
4, 457335, Note_on_c, 9, 40, 0
4, 457352, Note_on_c, 9, 38, 0
4, 457364, Note_on_c, 9, 39, 49
4, 457455, Note_on_c, 9, 53, 0
4, 457612, Note_on_c, 9, 39, 0
4, 457837, Note_on_c, 9, 38, 46
4, 457877, Note_on_c, 9, 44, 58
4, 457891, Note_on_c, 9, 40, 20
4, 458149, Note_on_c, 9, 38, 0
4, 458169, Note_on_c, 9, 40, 0
4, 458230, Note_on_c, 9, 44, 0
4, 458352, Note_on_c, 9, 38, 46
4, 458366, Note_on_c, 9, 53, 48
4, 458384, Note_on_c, 9, 40, 24
4, 458468, Note_on_c, 9, 53, 0
4, 458818, Note_on_c, 9, 53, 50
4, 459151, Note_on_c, 9, 40, 0
4, 459207, Note_on_c, 9, 38, 0
4, 459223, Note_on_c, 9, 53, 0
4, 459386, Note_on_c, 9, 39, 44
4, 459430, Note_on_c, 9, 40, 29
4, 459748, Note_on_c, 9, 40, 0
4, 459756, Note_on_c, 9, 39, 0
4, 459813, Note_on_c, 9, 44, 59
4, 459848, Note_on_c, 9, 38, 36
4, 460079, Note_on_c, 9, 38, 0
4, 460196, Note_on_c, 9, 44, 0
4, 460313, Note_on_c, 9, 53, 44
4, 460345, Note_on_c, 9, 38, 41
4, 460515, Note_on_c, 9, 53, 0
4, 460551, Note_on_c, 9, 38, 0
4, 460803, Note_on_c, 9, 40, 24
4, 460807, Note_on_c, 9, 38, 57
4, 461158, Note_on_c, 9, 40, 0
4, 461192, Note_on_c, 9, 38, 0
4, 461303, Note_on_c, 9, 53, 29
4, 461318, Note_on_c, 9, 39, 46
4, 461391, Note_on_c, 9, 53, 0
4, 461526, Note_on_c, 9, 39, 0
4, 461711, Note_on_c, 9, 44, 54
4, 461724, Note_on_c, 9, 38, 53
4, 461757, Note_on_c, 9, 40, 22
4, 461763, Note_on_c, 9, 53, 45
4, 461873, Note_on_c, 9, 53, 0
4, 462009, Note_on_c, 9, 38, 0
4, 462019, Note_on_c, 9, 40, 0
4, 462037, Note_on_c, 9, 44, 0
4, 462223, Note_on_c, 9, 38, 44
4, 462277, Note_on_c, 9, 40, 18
4, 462471, Note_on_c, 9, 38, 0
4, 462508, Note_on_c, 9, 40, 0
4, 462679, Note_on_c, 9, 38, 36
4, 462718, Note_on_c, 9, 40, 21
4, 463016, Note_on_c, 9, 40, 0
4, 463030, Note_on_c, 9, 38, 0
4, 463209, Note_on_c, 9, 39, 55
4, 463484, Note_on_c, 9, 39, 0
4, 463592, Note_on_c, 9, 38, 36
4, 463608, Note_on_c, 9, 40, 19
4, 463647, Note_on_c, 9, 44, 53
4, 463929, Note_on_c, 9, 44, 0
4, 463975, Note_on_c, 9, 40, 0
4, 463983, Note_on_c, 9, 38, 0
4, 464156, Note_on_c, 9, 38, 42
4, 464222, Note_on_c, 9, 40, 18
4, 464432, Note_on_c, 9, 38, 0
4, 464503, Note_on_c, 9, 40, 0
4, 464621, Note_on_c, 9, 39, 56
4, 464998, Note_on_c, 9, 39, 0
4, 465110, Note_on_c, 9, 38, 45
4, 465137, Note_on_c, 9, 53, 36
4, 465139, Note_on_c, 9, 40, 19
4, 465182, Note_on_c, 9, 51, 26
4, 465316, Note_on_c, 9, 51, 0
4, 465361, Note_on_c, 9, 53, 0
4, 465368, Note_on_c, 9, 38, 0
4, 465538, Note_on_c, 9, 44, 56
4, 465572, Note_on_c, 9, 38, 35
4, 465821, Note_on_c, 9, 44, 0
4, 465834, Note_on_c, 9, 40, 0
4, 465894, Note_on_c, 9, 38, 0
4, 466092, Note_on_c, 9, 38, 59
4, 466104, Note_on_c, 9, 40, 31
4, 466383, Note_on_c, 9, 38, 0
4, 466564, Note_on_c, 9, 38, 44
4, 466847, Note_on_c, 9, 40, 0
4, 466936, Note_on_c, 9, 38, 0
4, 467025, Note_on_c, 9, 51, 29
4, 467059, Note_on_c, 9, 39, 64
4, 467070, Note_on_c, 9, 40, 30
4, 467088, Note_on_c, 9, 53, 24
4, 467185, Note_on_c, 9, 51, 0
4, 467200, Note_on_c, 9, 53, 0
4, 467380, Note_on_c, 9, 46, 18
4, 467384, Note_on_c, 9, 39, 0
4, 467486, Note_on_c, 9, 38, 37
4, 467508, Note_on_c, 9, 36, 27
4, 467626, Note_on_c, 9, 36, 0
4, 467662, Note_on_c, 9, 46, 0
4, 467694, Note_on_c, 9, 40, 0
4, 467793, Note_on_c, 9, 38, 0
4, 467951, Note_on_c, 9, 36, 44
4, 468001, Note_on_c, 9, 38, 47
4, 468014, Note_on_c, 9, 40, 19
4, 468184, Note_on_c, 9, 36, 0
4, 468243, Note_on_c, 9, 40, 0
4, 468266, Note_on_c, 9, 38, 0
4, 468451, Note_on_c, 9, 38, 54
4, 468465, Note_on_c, 9, 36, 42
4, 468472, Note_on_c, 9, 40, 22
4, 468702, Note_on_c, 9, 36, 0
4, 468869, Note_on_c, 9, 40, 0
4, 468925, Note_on_c, 9, 38, 0
4, 468942, Note_on_c, 9, 39, 60
4, 469231, Note_on_c, 9, 39, 0
4, 469305, Note_on_c, 9, 44, 57
4, 469372, Note_on_c, 9, 38, 44
4, 469395, Note_on_c, 9, 40, 19
4, 469618, Note_on_c, 9, 40, 0
4, 469628, Note_on_c, 9, 38, 0
4, 469637, Note_on_c, 9, 44, 0
4, 469873, Note_on_c, 9, 38, 55
4, 469903, Note_on_c, 9, 40, 30
4, 470177, Note_on_c, 9, 38, 0
4, 470333, Note_on_c, 9, 38, 32
4, 470574, Note_on_c, 9, 40, 0
4, 470606, Note_on_c, 9, 38, 0
4, 470824, Note_on_c, 9, 39, 62
4, 470849, Note_on_c, 9, 40, 29
4, 471142, Note_on_c, 9, 39, 0
4, 471244, Note_on_c, 9, 44, 54
4, 471261, Note_on_c, 9, 38, 36
4, 471465, Note_on_c, 9, 40, 0
4, 471552, Note_on_c, 9, 38, 0
4, 471603, Note_on_c, 9, 44, 0
4, 471795, Note_on_c, 9, 38, 45
4, 471993, Note_on_c, 9, 38, 0
4, 472218, Note_on_c, 9, 40, 29
4, 472224, Note_on_c, 9, 38, 55
4, 472569, Note_on_c, 9, 38, 0
4, 472777, Note_on_c, 9, 38, 35
4, 472906, Note_on_c, 9, 40, 0
4, 472939, Note_on_c, 9, 38, 0
4, 473139, Note_on_c, 9, 44, 56
4, 473199, Note_on_c, 9, 38, 41
4, 473214, Note_on_c, 9, 40, 20
4, 473455, Note_on_c, 9, 44, 0
4, 473466, Note_on_c, 9, 38, 0
4, 473576, Note_on_c, 9, 40, 0
4, 473709, Note_on_c, 9, 38, 53
4, 473726, Note_on_c, 9, 40, 31
4, 473981, Note_on_c, 9, 38, 0
4, 474160, Note_on_c, 9, 40, 0
4, 474225, Note_on_c, 9, 39, 35
4, 474383, Note_on_c, 9, 39, 0
4, 474661, Note_on_c, 9, 53, 46
4, 474664, Note_on_c, 9, 40, 28
4, 474674, Note_on_c, 9, 38, 66
4, 474827, Note_on_c, 9, 53, 0
4, 474965, Note_on_c, 9, 38, 0
4, 474978, Note_on_c, 9, 40, 0
4, 475050, Note_on_c, 9, 36, 44
4, 475077, Note_on_c, 9, 44, 53
4, 475157, Note_on_c, 9, 38, 39
4, 475182, Note_on_c, 9, 40, 13
4, 475304, Note_on_c, 9, 36, 0
4, 475371, Note_on_c, 9, 40, 0
4, 475385, Note_on_c, 9, 38, 0
4, 475467, Note_on_c, 9, 44, 0
4, 475553, Note_on_c, 9, 36, 46
4, 475618, Note_on_c, 9, 40, 26
4, 475623, Note_on_c, 9, 38, 51
4, 475828, Note_on_c, 9, 36, 0
4, 475870, Note_on_c, 9, 40, 0
4, 475874, Note_on_c, 9, 38, 0
4, 476070, Note_on_c, 9, 40, 23
4, 476091, Note_on_c, 9, 38, 52
4, 476138, Note_on_c, 9, 36, 26
4, 476267, Note_on_c, 9, 36, 0
4, 476415, Note_on_c, 9, 38, 0
4, 476440, Note_on_c, 9, 40, 0
4, 476569, Note_on_c, 9, 39, 46
4, 476816, Note_on_c, 9, 39, 0
4, 476979, Note_on_c, 9, 38, 55
4, 476993, Note_on_c, 9, 40, 28
4, 476999, Note_on_c, 9, 44, 49
4, 477082, Note_on_c, 9, 53, 34
4, 477274, Note_on_c, 9, 38, 0
4, 477359, Note_on_c, 9, 44, 0
4, 477424, Note_on_c, 9, 40, 0
4, 477436, Note_on_c, 9, 53, 0
4, 477476, Note_on_c, 9, 38, 36
4, 477542, Note_on_c, 9, 40, 9
4, 477544, Note_on_c, 9, 36, 39
4, 477769, Note_on_c, 9, 38, 0
4, 477812, Note_on_c, 9, 36, 0
4, 477948, Note_on_c, 9, 38, 43
4, 478198, Note_on_c, 9, 38, 0
4, 478225, Note_on_c, 9, 40, 0
4, 478451, Note_on_c, 9, 39, 61
4, 478459, Note_on_c, 9, 53, 45
4, 478483, Note_on_c, 9, 40, 28
4, 478759, Note_on_c, 9, 53, 0
4, 478776, Note_on_c, 9, 39, 0
4, 478915, Note_on_c, 9, 44, 50
4, 478917, Note_on_c, 9, 38, 30
4, 478958, Note_on_c, 9, 36, 25
4, 479173, Note_on_c, 9, 38, 0
4, 479177, Note_on_c, 9, 40, 0
4, 479183, Note_on_c, 9, 36, 0
4, 479287, Note_on_c, 9, 44, 0
4, 479441, Note_on_c, 9, 40, 25
4, 479450, Note_on_c, 9, 38, 50
4, 479695, Note_on_c, 9, 40, 0
4, 479697, Note_on_c, 9, 38, 0
4, 479901, Note_on_c, 9, 40, 24
4, 479922, Note_on_c, 9, 38, 35
4, 480180, Note_on_c, 9, 40, 0
4, 480190, Note_on_c, 9, 38, 0
4, 480415, Note_on_c, 9, 39, 60
4, 480440, Note_on_c, 9, 40, 32
4, 480744, Note_on_c, 9, 39, 0
4, 480830, Note_on_c, 9, 44, 51
4, 480887, Note_on_c, 9, 38, 27
4, 481051, Note_on_c, 9, 40, 0
4, 481118, Note_on_c, 9, 38, 0
4, 481159, Note_on_c, 9, 44, 0
4, 481409, Note_on_c, 9, 39, 63
4, 481426, Note_on_c, 9, 40, 29
4, 481711, Note_on_c, 9, 39, 0
4, 481738, Note_on_c, 9, 40, 0
4, 481875, Note_on_c, 9, 38, 35
4, 481935, Note_on_c, 9, 40, 19
4, 482096, Note_on_c, 9, 40, 0
4, 482137, Note_on_c, 9, 38, 0
4, 482378, Note_on_c, 9, 38, 46
4, 482380, Note_on_c, 9, 40, 28
4, 482403, Note_on_c, 9, 53, 42
4, 482405, Note_on_c, 9, 59, 49
4, 482597, Note_on_c, 9, 40, 0
4, 482609, Note_on_c, 9, 38, 0
4, 482611, Note_on_c, 9, 53, 0
4, 482615, Note_on_c, 9, 59, 0
4, 482789, Note_on_c, 9, 44, 57
4, 482801, Note_on_c, 9, 40, 18
4, 482828, Note_on_c, 9, 38, 36
4, 483063, Note_on_c, 9, 38, 0
4, 483075, Note_on_c, 9, 40, 0
4, 483101, Note_on_c, 9, 44, 0
4, 483296, Note_on_c, 9, 39, 60
4, 483341, Note_on_c, 9, 36, 38
4, 483354, Note_on_c, 9, 40, 31
4, 483493, Note_on_c, 9, 36, 0
4, 483591, Note_on_c, 9, 39, 0
4, 483604, Note_on_c, 9, 40, 0
4, 483805, Note_on_c, 9, 38, 24
4, 483824, Note_on_c, 9, 40, 21
4, 483827, Note_on_c, 9, 59, 50
4, 483834, Note_on_c, 9, 53, 38
4, 484036, Note_on_c, 9, 38, 0
4, 484049, Note_on_c, 9, 40, 0
4, 484248, Note_on_c, 9, 38, 40
4, 484269, Note_on_c, 9, 40, 21
4, 484320, Note_on_c, 9, 53, 0
4, 484397, Note_on_c, 9, 59, 0
4, 484504, Note_on_c, 9, 40, 0
4, 484508, Note_on_c, 9, 38, 0
4, 484660, Note_on_c, 9, 44, 57
4, 484714, Note_on_c, 9, 40, 17
4, 484718, Note_on_c, 9, 38, 36
4, 484949, Note_on_c, 9, 38, 0
4, 484968, Note_on_c, 9, 40, 0
4, 484983, Note_on_c, 9, 44, 0
4, 485193, Note_on_c, 9, 39, 60
4, 485249, Note_on_c, 9, 40, 29
4, 485317, Note_on_c, 9, 59, 43
4, 485325, Note_on_c, 9, 53, 34
4, 485433, Note_on_c, 9, 59, 0
4, 485435, Note_on_c, 9, 53, 0
4, 485513, Note_on_c, 9, 39, 0
4, 485646, Note_on_c, 9, 38, 30
4, 485871, Note_on_c, 9, 38, 0
4, 485898, Note_on_c, 9, 40, 0
4, 486177, Note_on_c, 9, 38, 50
4, 486201, Note_on_c, 9, 40, 24
4, 486207, Note_on_c, 9, 36, 31
4, 486342, Note_on_c, 9, 36, 0
4, 486414, Note_on_c, 9, 38, 0
4, 486418, Note_on_c, 9, 40, 0
4, 486565, Note_on_c, 9, 44, 56
4, 486632, Note_on_c, 9, 38, 37
4, 486640, Note_on_c, 9, 40, 19
4, 486661, Note_on_c, 9, 36, 45
4, 486886, Note_on_c, 9, 38, 0
4, 486890, Note_on_c, 9, 40, 0
4, 486921, Note_on_c, 9, 44, 0
4, 486939, Note_on_c, 9, 36, 0
4, 487121, Note_on_c, 9, 38, 48
4, 487152, Note_on_c, 9, 40, 26
4, 487387, Note_on_c, 9, 38, 0
4, 487398, Note_on_c, 9, 40, 0
4, 487606, Note_on_c, 9, 38, 45
4, 487618, Note_on_c, 9, 40, 22
4, 487934, Note_on_c, 9, 40, 0
4, 487974, Note_on_c, 9, 38, 0
4, 488128, Note_on_c, 9, 39, 64
4, 488146, Note_on_c, 9, 40, 28
4, 488191, Note_on_c, 9, 53, 37
4, 488200, Note_on_c, 9, 59, 46
4, 488316, Note_on_c, 9, 53, 0
4, 488329, Note_on_c, 9, 59, 0
4, 488452, Note_on_c, 9, 39, 0
4, 488504, Note_on_c, 9, 44, 56
4, 488527, Note_on_c, 9, 40, 0
4, 488544, Note_on_c, 9, 38, 43
4, 488770, Note_on_c, 9, 38, 0
4, 488853, Note_on_c, 9, 44, 0
4, 489047, Note_on_c, 9, 38, 55
4, 489050, Note_on_c, 9, 36, 38
4, 489107, Note_on_c, 9, 40, 25
4, 489296, Note_on_c, 9, 38, 0
4, 489299, Note_on_c, 9, 40, 0
4, 489302, Note_on_c, 9, 36, 0
4, 489534, Note_on_c, 9, 39, 68
4, 489558, Note_on_c, 9, 53, 33
4, 489559, Note_on_c, 9, 40, 33
4, 489562, Note_on_c, 9, 59, 39
4, 489864, Note_on_c, 9, 40, 0
4, 489897, Note_on_c, 9, 53, 0
4, 489906, Note_on_c, 9, 39, 0
4, 490058, Note_on_c, 9, 38, 31
4, 490059, Note_on_c, 9, 59, 0
4, 490122, Note_on_c, 9, 40, 14
4, 490239, Note_on_c, 9, 40, 0
4, 490276, Note_on_c, 9, 38, 0
4, 490396, Note_on_c, 9, 44, 67
4, 490511, Note_on_c, 9, 38, 51
4, 490540, Note_on_c, 9, 40, 23
4, 490765, Note_on_c, 9, 44, 0
4, 490802, Note_on_c, 9, 40, 0
4, 490817, Note_on_c, 9, 38, 0
4, 490994, Note_on_c, 9, 38, 51
4, 491029, Note_on_c, 9, 40, 23
4, 491035, Note_on_c, 9, 36, 54
4, 491137, Note_on_c, 9, 57, 55
4, 491160, Note_on_c, 9, 36, 0
4, 491177, Note_on_c, 9, 38, 0
4, 491218, Note_on_c, 9, 40, 0
4, 491357, Note_on_c, 9, 57, 0
4, 491459, Note_on_c, 9, 36, 39
4, 491555, Note_on_c, 9, 40, 46
4, 491557, Note_on_c, 9, 38, 42
4, 491815, Note_on_c, 9, 38, 0
4, 491949, Note_on_c, 9, 40, 0
4, 492018, Note_on_c, 9, 38, 32
4, 492341, Note_on_c, 9, 36, 0
4, 492468, Note_on_c, 9, 44, 63
4, 492668, Note_on_c, 9, 38, 0
4, 492947, Note_on_c, 9, 36, 45
4, 493006, Note_on_c, 9, 40, 42
4, 493012, Note_on_c, 9, 44, 0
4, 493025, Note_on_c, 9, 38, 33
4, 493038, Note_on_c, 9, 36, 0
4, 493330, Note_on_c, 9, 38, 0
4, 493511, Note_on_c, 9, 38, 42
4, 493513, Note_on_c, 9, 40, 0
4, 493716, Note_on_c, 9, 38, 0
4, 494004, Note_on_c, 9, 38, 24
4, 494206, Note_on_c, 9, 38, 0
4, 494386, Note_on_c, 9, 44, 60
4, 494467, Note_on_c, 9, 40, 33
4, 494473, Note_on_c, 9, 38, 48
4, 494811, Note_on_c, 9, 44, 0
4, 495118, Note_on_c, 9, 38, 0
4, 495290, Note_on_c, 9, 40, 0
4, 495325, Note_on_c, 9, 38, 31
4, 495577, Note_on_c, 9, 38, 0
4, 495799, Note_on_c, 9, 38, 34
4, 495847, Note_on_c, 9, 40, 39
4, 496306, Note_on_c, 9, 44, 57
4, 496558, Note_on_c, 9, 38, 0
4, 496729, Note_on_c, 9, 44, 0
4, 496730, Note_on_c, 9, 38, 28
4, 496761, Note_on_c, 9, 40, 0
4, 496837, Note_on_c, 9, 36, 29
4, 496920, Note_on_c, 9, 36, 0
4, 496967, Note_on_c, 9, 38, 0
4, 497276, Note_on_c, 9, 38, 30
4, 497289, Note_on_c, 9, 40, 29
4, 497575, Note_on_c, 9, 40, 0
4, 497598, Note_on_c, 9, 38, 0
4, 497771, Note_on_c, 9, 38, 28
4, 497775, Note_on_c, 9, 40, 39
4, 497807, Note_on_c, 9, 36, 27
4, 498023, Note_on_c, 9, 38, 0
4, 498056, Note_on_c, 9, 36, 0
4, 498180, Note_on_c, 9, 40, 0
4, 498192, Note_on_c, 9, 46, 46
4, 498286, Note_on_c, 9, 38, 17
4, 498580, Note_on_c, 9, 46, 0
4, 498685, Note_on_c, 9, 38, 0
4, 498785, Note_on_c, 9, 38, 35
4, 498794, Note_on_c, 9, 40, 55
4, 498824, Note_on_c, 9, 36, 28
4, 498974, Note_on_c, 9, 36, 0
4, 499040, Note_on_c, 9, 38, 0
4, 499067, Note_on_c, 9, 40, 0
4, 499230, Note_on_c, 9, 40, 41
4, 499251, Note_on_c, 9, 38, 25
4, 499256, Note_on_c, 9, 36, 30
4, 499612, Note_on_c, 9, 38, 0
4, 499753, Note_on_c, 9, 40, 0
4, 499764, Note_on_c, 9, 38, 44
4, 499825, Note_on_c, 9, 36, 0
4, 500002, Note_on_c, 9, 38, 0
4, 500171, Note_on_c, 9, 44, 43
4, 500238, Note_on_c, 9, 38, 30
4, 500538, Note_on_c, 9, 38, 0
4, 500590, Note_on_c, 9, 44, 0
4, 500686, Note_on_c, 9, 38, 30
4, 500754, Note_on_c, 9, 36, 27
4, 500900, Note_on_c, 9, 36, 0
4, 500945, Note_on_c, 9, 38, 0
4, 501171, Note_on_c, 9, 40, 34
4, 501187, Note_on_c, 9, 38, 30
4, 501519, Note_on_c, 9, 38, 0
4, 501682, Note_on_c, 9, 40, 0
4, 501740, Note_on_c, 9, 38, 25
4, 501901, Note_on_c, 9, 38, 0
4, 502099, Note_on_c, 9, 44, 52
4, 502168, Note_on_c, 9, 38, 39
4, 502410, Note_on_c, 9, 38, 0
4, 502491, Note_on_c, 9, 44, 0
4, 502644, Note_on_c, 9, 38, 54
4, 502907, Note_on_c, 9, 38, 0
4, 503103, Note_on_c, 9, 38, 51
4, 503111, Note_on_c, 9, 40, 58
4, 503139, Note_on_c, 9, 59, 25
4, 503216, Note_on_c, 9, 59, 0
4, 503435, Note_on_c, 9, 38, 0
4, 503514, Note_on_c, 9, 40, 0
4, 503602, Note_on_c, 9, 59, 38
4, 503623, Note_on_c, 9, 38, 26
4, 503765, Note_on_c, 9, 59, 0
4, 503817, Note_on_c, 9, 38, 0
4, 504009, Note_on_c, 9, 44, 53
4, 504035, Note_on_c, 9, 59, 42
4, 504115, Note_on_c, 9, 38, 29
4, 504149, Note_on_c, 9, 59, 0
4, 504290, Note_on_c, 9, 38, 0
4, 504438, Note_on_c, 9, 44, 0
4, 504535, Note_on_c, 9, 36, 31
4, 504566, Note_on_c, 9, 38, 60
4, 504692, Note_on_c, 9, 36, 0
4, 504879, Note_on_c, 9, 38, 0
4, 505541, Note_on_c, 9, 38, 53
4, 505562, Note_on_c, 9, 36, 34
4, 505727, Note_on_c, 9, 36, 0
4, 505779, Note_on_c, 9, 38, 0
4, 505970, Note_on_c, 9, 44, 50
4, 506000, Note_on_c, 9, 38, 38
4, 506019, Note_on_c, 9, 40, 41
4, 506080, Note_on_c, 9, 53, 21
4, 506230, Note_on_c, 9, 53, 0
4, 506311, Note_on_c, 9, 38, 0
4, 506432, Note_on_c, 9, 40, 0
4, 506499, Note_on_c, 9, 38, 30
4, 506530, Note_on_c, 9, 53, 45
4, 506552, Note_on_c, 9, 44, 0
4, 506688, Note_on_c, 9, 38, 0
4, 506806, Note_on_c, 9, 53, 0
4, 506983, Note_on_c, 9, 38, 21
4, 507239, Note_on_c, 9, 38, 0
4, 507444, Note_on_c, 9, 38, 34
4, 507486, Note_on_c, 9, 40, 34
4, 507509, Note_on_c, 9, 36, 30
4, 507668, Note_on_c, 9, 36, 0
4, 507701, Note_on_c, 9, 40, 0
4, 507707, Note_on_c, 9, 38, 0
4, 508306, Note_on_c, 9, 38, 38
4, 508471, Note_on_c, 9, 38, 0
4, 508825, Note_on_c, 9, 40, 31
4, 508861, Note_on_c, 9, 38, 30
4, 509197, Note_on_c, 9, 40, 0
4, 509199, Note_on_c, 9, 38, 0
4, 509322, Note_on_c, 9, 39, 40
4, 509431, Note_on_c, 9, 53, 24
4, 509654, Note_on_c, 9, 39, 0
4, 509723, Note_on_c, 9, 44, 60
4, 509762, Note_on_c, 9, 38, 26
4, 510071, Note_on_c, 9, 38, 0
4, 510089, Note_on_c, 9, 53, 0
4, 510146, Note_on_c, 9, 44, 0
4, 510249, Note_on_c, 9, 38, 32
4, 510474, Note_on_c, 9, 38, 0
4, 510748, Note_on_c, 9, 53, 22
4, 510748, Note_on_c, 9, 38, 29
4, 511040, Note_on_c, 9, 38, 0
4, 511172, Note_on_c, 9, 53, 0
4, 511227, Note_on_c, 9, 38, 26
4, 511232, Note_on_c, 9, 40, 31
4, 511513, Note_on_c, 9, 38, 0
4, 511561, Note_on_c, 9, 44, 59
4, 511578, Note_on_c, 9, 40, 0
4, 511716, Note_on_c, 9, 38, 19
4, 511885, Note_on_c, 9, 38, 0
4, 511964, Note_on_c, 9, 44, 0
4, 512072, Note_on_c, 9, 53, 24
4, 512158, Note_on_c, 9, 38, 25
4, 512178, Note_on_c, 9, 53, 0
4, 512348, Note_on_c, 9, 38, 0
4, 512547, Note_on_c, 9, 53, 23
4, 512634, Note_on_c, 9, 38, 31
4, 512640, Note_on_c, 9, 40, 25
4, 512769, Note_on_c, 9, 53, 0
4, 512887, Note_on_c, 9, 38, 0
4, 513026, Note_on_c, 9, 40, 0
4, 513065, Note_on_c, 9, 36, 18
4, 513131, Note_on_c, 9, 38, 30
4, 513244, Note_on_c, 9, 36, 0
4, 513325, Note_on_c, 9, 38, 0
4, 513523, Note_on_c, 9, 44, 51
4, 513575, Note_on_c, 9, 39, 40
4, 513909, Note_on_c, 9, 39, 0
4, 513949, Note_on_c, 9, 44, 0
4, 514025, Note_on_c, 9, 53, 45
4, 514032, Note_on_c, 9, 38, 32
4, 514206, Note_on_c, 9, 38, 0
4, 514307, Note_on_c, 9, 53, 0
4, 514465, Note_on_c, 9, 53, 40
4, 514552, Note_on_c, 9, 38, 21
4, 514811, Note_on_c, 9, 38, 0
4, 514845, Note_on_c, 9, 53, 0
4, 515024, Note_on_c, 9, 36, 22
4, 515066, Note_on_c, 9, 38, 22
4, 515068, Note_on_c, 9, 40, 22
4, 515166, Note_on_c, 9, 36, 0
4, 515326, Note_on_c, 9, 38, 0
4, 515426, Note_on_c, 9, 40, 0
4, 515491, Note_on_c, 9, 46, 55
4, 515527, Note_on_c, 9, 38, 16
4, 515758, Note_on_c, 9, 38, 0
4, 515869, Note_on_c, 9, 46, 0
4, 515959, Note_on_c, 9, 53, 51
4, 516055, Note_on_c, 9, 38, 26
4, 516078, Note_on_c, 9, 40, 20
4, 516268, Note_on_c, 9, 38, 0
4, 516391, Note_on_c, 9, 40, 0
4, 516721, Note_on_c, 9, 53, 0
4, 516945, Note_on_c, 9, 36, 17
4, 516990, Note_on_c, 9, 38, 20
4, 517103, Note_on_c, 9, 36, 0
4, 517196, Note_on_c, 9, 38, 0
4, 517397, Note_on_c, 9, 53, 53
4, 517409, Note_on_c, 9, 44, 50
4, 517536, Note_on_c, 9, 38, 21
4, 517549, Note_on_c, 9, 40, 18
4, 517808, Note_on_c, 9, 53, 0
4, 517810, Note_on_c, 9, 38, 0
4, 517874, Note_on_c, 9, 44, 0
4, 517922, Note_on_c, 9, 40, 0
4, 517932, Note_on_c, 9, 53, 42
4, 518046, Note_on_c, 9, 38, 17
4, 518201, Note_on_c, 9, 53, 0
4, 518265, Note_on_c, 9, 38, 0
4, 518492, Note_on_c, 9, 38, 20
4, 518686, Note_on_c, 9, 38, 0
4, 518913, Note_on_c, 9, 36, 28
4, 518991, Note_on_c, 9, 38, 23
4, 519024, Note_on_c, 9, 40, 20
4, 519069, Note_on_c, 9, 36, 0
4, 519233, Note_on_c, 9, 38, 0
4, 519362, Note_on_c, 9, 40, 0
4, 519383, Note_on_c, 9, 44, 56
4, 519479, Note_on_c, 9, 38, 12
4, 519673, Note_on_c, 9, 38, 0
4, 519823, Note_on_c, 9, 44, 0
4, 519885, Note_on_c, 9, 53, 44
4, 519957, Note_on_c, 9, 38, 23
4, 519997, Note_on_c, 9, 40, 24
4, 520156, Note_on_c, 9, 53, 0
4, 520300, Note_on_c, 9, 38, 0
4, 520340, Note_on_c, 9, 53, 32
4, 520377, Note_on_c, 9, 40, 0
4, 520776, Note_on_c, 9, 53, 0
4, 520824, Note_on_c, 9, 36, 16
4, 520890, Note_on_c, 9, 38, 19
4, 521058, Note_on_c, 9, 36, 0
4, 521061, Note_on_c, 9, 38, 0
4, 521288, Note_on_c, 9, 44, 44
4, 521323, Note_on_c, 9, 53, 14
4, 521360, Note_on_c, 9, 40, 16
4, 521379, Note_on_c, 9, 38, 17
4, 521523, Note_on_c, 9, 53, 0
4, 521602, Note_on_c, 9, 38, 0
4, 521689, Note_on_c, 9, 40, 0
4, 521802, Note_on_c, 9, 44, 0
4, 521802, Note_on_c, 9, 39, 32
4, 521841, Note_on_c, 9, 53, 38
4, 522063, Note_on_c, 9, 39, 0
4, 522149, Note_on_c, 9, 53, 0
4, 522265, Note_on_c, 9, 38, 22
4, 522316, Note_on_c, 9, 53, 26
4, 522482, Note_on_c, 9, 38, 0
4, 522775, Note_on_c, 9, 38, 22
4, 522834, Note_on_c, 9, 53, 0
4, 523019, Note_on_c, 9, 38, 0
4, 523211, Note_on_c, 9, 44, 51
4, 523630, Note_on_c, 9, 44, 0
4, 523793, Note_on_c, 9, 38, 17
4, 523800, Note_on_c, 9, 53, 33
4, 523843, Note_on_c, 9, 40, 9
4, 523991, Note_on_c, 9, 38, 0
4, 524021, Note_on_c, 9, 40, 0
4, 524265, Note_on_c, 9, 38, 17
4, 524451, Note_on_c, 9, 38, 0
4, 524647, Note_on_c, 9, 53, 0
4, 524730, Note_on_c, 9, 38, 24
4, 524796, Note_on_c, 9, 36, 15
4, 524942, Note_on_c, 9, 36, 0
4, 524949, Note_on_c, 9, 38, 0
4, 525116, Note_on_c, 9, 44, 49
4, 525148, Note_on_c, 9, 38, 16
4, 525215, Note_on_c, 9, 53, 30
4, 525329, Note_on_c, 9, 38, 0
4, 525494, Note_on_c, 9, 44, 0
4, 525557, Note_on_c, 9, 53, 0
4, 525665, Note_on_c, 9, 38, 19
4, 525682, Note_on_c, 9, 40, 16
4, 525687, Note_on_c, 9, 53, 30
4, 525863, Note_on_c, 9, 40, 0
4, 525863, Note_on_c, 9, 38, 0
4, 525864, Note_on_c, 9, 53, 0
4, 526141, Note_on_c, 9, 38, 17
4, 526275, Note_on_c, 9, 38, 0
4, 526603, Note_on_c, 9, 36, 20
4, 526638, Note_on_c, 9, 38, 20
4, 526659, Note_on_c, 9, 40, 13
4, 526722, Note_on_c, 9, 36, 0
4, 526821, Note_on_c, 9, 38, 0
4, 526869, Note_on_c, 9, 40, 0
4, 527015, Note_on_c, 9, 44, 55
4, 527128, Note_on_c, 9, 38, 12
4, 527282, Note_on_c, 9, 38, 0
4, 527378, Note_on_c, 9, 44, 0
4, 527548, Note_on_c, 9, 38, 17
4, 527569, Note_on_c, 9, 36, 17
4, 527678, Note_on_c, 9, 36, 0
4, 527737, Note_on_c, 9, 38, 0
4, 528019, Note_on_c, 9, 38, 14
4, 528299, Note_on_c, 9, 38, 0
4, 528508, Note_on_c, 9, 38, 15
4, 528525, Note_on_c, 9, 36, 15
4, 528549, Note_on_c, 9, 40, 15
4, 528711, Note_on_c, 9, 36, 0
4, 528731, Note_on_c, 9, 38, 0
4, 528844, Note_on_c, 9, 40, 0
4, 528883, Note_on_c, 9, 46, 50
4, 528973, Note_on_c, 9, 38, 13
4, 529155, Note_on_c, 9, 38, 0
4, 529254, Note_on_c, 9, 46, 0
4, 529395, Note_on_c, 9, 39, 22
4, 529422, Note_on_c, 9, 53, 23
4, 529658, Note_on_c, 9, 39, 0
4, 529723, Note_on_c, 9, 53, 0
4, 529870, Note_on_c, 9, 38, 13
4, 529882, Note_on_c, 9, 53, 22
4, 530039, Note_on_c, 9, 38, 0
4, 530207, Note_on_c, 9, 53, 0
4, 530386, Note_on_c, 9, 38, 12
4, 530574, Note_on_c, 9, 38, 0
4, 530818, Note_on_c, 9, 44, 46
4, 530876, Note_on_c, 9, 38, 12
4, 530887, Note_on_c, 9, 40, 13
4, 531074, Note_on_c, 9, 38, 0
4, 531181, Note_on_c, 9, 44, 0
4, 531231, Note_on_c, 9, 40, 0
4, 531330, Note_on_c, 9, 53, 23
4, 531390, Note_on_c, 9, 38, 12
4, 531634, Note_on_c, 9, 38, 0
4, 531901, Note_on_c, 9, 38, 10
4, 532033, Note_on_c, 9, 53, 0
4, 532076, Note_on_c, 9, 38, 0
4, 532400, Note_on_c, 9, 40, 15
4, 532418, Note_on_c, 9, 38, 14
4, 532698, Note_on_c, 9, 38, 0
4, 532748, Note_on_c, 9, 44, 52
4, 532757, Note_on_c, 9, 40, 0
4, 532799, Note_on_c, 9, 53, 21
4, 532898, Note_on_c, 9, 38, 11
4, 533082, Note_on_c, 9, 38, 0
4, 533106, Note_on_c, 9, 53, 0
4, 533147, Note_on_c, 9, 44, 0
4, 533314, Note_on_c, 9, 38, 11
4, 533491, Note_on_c, 9, 38, 0
4, 533785, Note_on_c, 9, 38, 11
4, 533833, Note_on_c, 9, 40, 9
4, 533988, Note_on_c, 9, 38, 0
4, 534098, Note_on_c, 9, 40, 0
4, 534241, Note_on_c, 9, 53, 18
4, 534288, Note_on_c, 9, 38, 12
4, 534466, Note_on_c, 9, 38, 0
4, 534471, Note_on_c, 9, 53, 0
4, 534668, Note_on_c, 9, 44, 43
4, 534731, Note_on_c, 9, 38, 11
4, 534910, Note_on_c, 9, 38, 0
4, 535058, Note_on_c, 9, 44, 0
4, 535164, Note_on_c, 9, 53, 10
4, 535253, Note_on_c, 9, 53, 0
4, 535255, Note_on_c, 9, 40, 11
4, 535257, Note_on_c, 9, 38, 9
4, 535422, Note_on_c, 9, 38, 0
4, 535514, Note_on_c, 9, 40, 0
4, 535606, Note_on_c, 9, 59, 19
4, 535627, Note_on_c, 9, 53, 19
4, 535718, Note_on_c, 9, 38, 9
4, 535904, Note_on_c, 9, 38, 0
4, 536003, Note_on_c, 9, 53, 0
4, 536144, Note_on_c, 9, 59, 0
4, 536258, Note_on_c, 9, 38, 7
4, 536367, Note_on_c, 9, 38, 0
4, 536549, Note_on_c, 9, 53, 8
4, 536611, Note_on_c, 9, 44, 49
4, 536641, Note_on_c, 9, 53, 0
4, 536707, Note_on_c, 9, 38, 12
4, 536736, Note_on_c, 9, 40, 9
4, 536905, Note_on_c, 9, 38, 0
4, 536989, Note_on_c, 9, 40, 0
4, 537026, Note_on_c, 9, 44, 0
4, 537146, Note_on_c, 9, 59, 21
4, 537150, Note_on_c, 9, 53, 23
4, 537187, Note_on_c, 9, 39, 20
4, 537367, Note_on_c, 9, 39, 0
4, 537648, Note_on_c, 9, 38, 7
4, 537923, Note_on_c, 9, 53, 0
4, 537959, Note_on_c, 9, 38, 0
4, 538098, Note_on_c, 9, 59, 0
4, 538195, Note_on_c, 9, 38, 8
4, 538389, Note_on_c, 9, 38, 0
4, 538556, Note_on_c, 9, 44, 39
4, 538617, Note_on_c, 9, 38, 6
4, 538671, Note_on_c, 9, 40, 4
4, 538807, Note_on_c, 9, 40, 0
4, 538830, Note_on_c, 9, 38, 0
4, 538902, Note_on_c, 9, 44, 0
4, 539095, Note_on_c, 9, 59, 12
4, 539098, Note_on_c, 9, 53, 12
4, 539128, Note_on_c, 9, 38, 7
4, 539145, Note_on_c, 9, 40, 8
4, 539273, Note_on_c, 9, 53, 0
4, 539319, Note_on_c, 9, 59, 0
4, 539360, Note_on_c, 9, 38, 0
4, 539387, Note_on_c, 9, 40, 0
4, 539560, Note_on_c, 9, 38, 6
4, 539727, Note_on_c, 9, 38, 0
4, 539977, Note_on_c, 9, 38, 8
4, 540076, Note_on_c, 9, 36, 7
4, 540166, Note_on_c, 9, 36, 0
4, 540257, Note_on_c, 9, 38, 0
4, 540468, Note_on_c, 9, 44, 51
4, 540524, Note_on_c, 9, 38, 6
4, 540531, Note_on_c, 9, 53, 5
4, 540558, Note_on_c, 9, 40, 6
4, 540656, Note_on_c, 9, 53, 0
4, 540704, Note_on_c, 9, 40, 0
4, 540720, Note_on_c, 9, 38, 0
4, 540879, Note_on_c, 9, 44, 0
4, 540980, Note_on_c, 9, 53, 8
4, 541002, Note_on_c, 9, 38, 6
4, 541027, Note_on_c, 9, 40, 7
4, 541126, Note_on_c, 9, 53, 0
4, 541192, Note_on_c, 9, 38, 0
4, 541211, Note_on_c, 9, 40, 0
4, 541448, Note_on_c, 9, 53, 10
4, 541486, Note_on_c, 9, 38, 8
4, 541674, Note_on_c, 9, 38, 0
4, 541675, Note_on_c, 9, 53, 0
4, 541993, Note_on_c, 9, 38, 6
4, 542016, Note_on_c, 9, 40, 7
4, 542196, Note_on_c, 9, 38, 0
4, 542304, Note_on_c, 9, 40, 0
4, 542350, Note_on_c, 9, 44, 51
4, 542703, Note_on_c, 9, 44, 0
4, 542913, Note_on_c, 9, 53, 9
4, 542918, Note_on_c, 9, 40, 7
4, 542937, Note_on_c, 9, 38, 4
4, 543002, Note_on_c, 9, 53, 0
4, 543099, Note_on_c, 9, 38, 0
4, 543112, Note_on_c, 9, 40, 0
4, 543365, Note_on_c, 9, 40, 6
4, 543386, Note_on_c, 9, 53, 5
4, 543468, Note_on_c, 9, 53, 0
4, 543688, Note_on_c, 9, 40, 0
4, 543788, Note_on_c, 9, 39, 10
4, 543843, Note_on_c, 9, 53, 5
4, 543927, Note_on_c, 9, 53, 0
4, 544007, Note_on_c, 9, 39, 0
4, 544243, Note_on_c, 9, 46, 54
4, 544262, Note_on_c, 9, 40, 5
4, 544306, Note_on_c, 9, 38, 3
4, 544328, Note_on_c, 9, 59, 9
4, 544330, Note_on_c, 9, 53, 9
4, 544548, Note_on_c, 9, 38, 0
4, 544550, Note_on_c, 9, 40, 0
4, 544669, Note_on_c, 9, 46, 0
4, 544720, Note_on_c, 9, 59, 0
4, 544761, Note_on_c, 9, 39, 6
4, 544816, Note_on_c, 9, 53, 0
4, 544982, Note_on_c, 9, 39, 0
4, 545222, Note_on_c, 9, 38, 3
4, 545259, Note_on_c, 9, 40, 3
4, 545449, Note_on_c, 9, 38, 0
4, 545591, Note_on_c, 9, 40, 0
4, 545723, Note_on_c, 9, 38, 5
4, 545784, Note_on_c, 9, 53, 5
4, 545911, Note_on_c, 9, 53, 0
4, 545923, Note_on_c, 9, 38, 0
4, 546161, Note_on_c, 9, 38, 3
4, 546224, Note_on_c, 9, 44, 53
4, 546487, Note_on_c, 9, 38, 0
4, 546580, Note_on_c, 9, 44, 0
4, 546722, Note_on_c, 9, 38, 3
4, 546724, Note_on_c, 9, 40, 4
4, 546752, Note_on_c, 9, 53, 5
4, 546857, Note_on_c, 9, 53, 0
4, 546956, Note_on_c, 9, 38, 0
4, 547048, Note_on_c, 9, 40, 0
4, 547180, Note_on_c, 9, 38, 2
4, 547513, Note_on_c, 9, 38, 0
4, 547722, Note_on_c, 9, 38, 3
4, 547737, Note_on_c, 9, 40, 4
4, 547756, Note_on_c, 9, 53, 3
4, 547886, Note_on_c, 9, 53, 0
4, 547945, Note_on_c, 9, 38, 0
4, 548060, Note_on_c, 9, 40, 0
4, 548116, Note_on_c, 9, 44, 52
4, 548486, Note_on_c, 9, 44, 0
4, 548666, Note_on_c, 9, 53, 3
4, 548686, Note_on_c, 9, 40, 3
4, 548720, Note_on_c, 9, 38, 2
4, 548882, Note_on_c, 9, 38, 0
4, 548887, Note_on_c, 9, 40, 0
4, 548906, Note_on_c, 9, 53, 0
4, 549143, Note_on_c, 9, 40, 3
4, 549162, Note_on_c, 9, 38, 2
4, 549419, Note_on_c, 9, 38, 0
4, 549571, Note_on_c, 9, 40, 0
4, 549639, Note_on_c, 9, 53, 2
4, 549669, Note_on_c, 9, 38, 1
4, 549787, Note_on_c, 9, 53, 0
4, 549861, Note_on_c, 9, 38, 0
4, 550059, Note_on_c, 9, 44, 48
4, 550158, Note_on_c, 9, 38, 2
4, 550178, Note_on_c, 9, 40, 2
4, 550343, Note_on_c, 9, 38, 0
4, 550346, Note_on_c, 9, 40, 0
4, 550410, Note_on_c, 9, 44, 0
4, 550654, Note_on_c, 9, 38, 2
4, 550659, Note_on_c, 9, 40, 2
4, 550661, Note_on_c, 9, 53, 1
4, 550785, Note_on_c, 9, 53, 0
4, 551228, Note_on_c, 9, 38, 0
4, 551291, Note_on_c, 9, 40, 0
4, 551631, Note_on_c, 9, 40, 1
4, 551635, Note_on_c, 9, 38, 1
4, 551819, Note_on_c, 9, 38, 0
4, 551982, Note_on_c, 9, 40, 0
4, 552013, Note_on_c, 9, 46, 40
4, 552034, Note_on_c, 9, 38, 1
4, 552089, Note_on_c, 9, 53, 1
4, 552226, Note_on_c, 9, 38, 0
4, 552267, Note_on_c, 9, 46, 0
4, 552478, Note_on_c, 9, 38, 1
4, 552735, Note_on_c, 9, 38, 0
4, 552983, Note_on_c, 9, 38, 1
4, 552994, Note_on_c, 9, 40, 1
4, 553382, Note_on_c, 9, 38, 0
4, 553589, Note_on_c, 9, 38, 1
4, 554226, Note_on_c, 9, 53, 0
4, 554791, Note_on_c, 9, 40, 0
4, 554930, Note_on_c, 9, 38, 0
4, 554930, End_track
0, 0, End_of_file
