0, 0, Header, 1, 2, 384
1, 0, Start_track
1, 0, Title_t, "Lady Be Good"
1, 0, Text_t, "Doug McKenzie  dougmck@pipeline.com.au . Sort of a 'stride-ish' type treatment done in real time - there are a few slight 'gliches/mistakes' and I have not bothered to correct them. To be effective you probably need a good convincing piano sound\012"
1, 0, SMPTE_offset, 96, 0, 3, 0, 0
1, 0, System_exclusive, 5, 126, 127, 9, 1, 247
1, 0, System_exclusive, 8, 67, 115, 1, 17, 15, 89, 3, 247
1, 0, Time_signature, 4, 2, 24, 8
1, 0, Key_signature, 1, "major"
1, 0, Tempo, 500000
1, 0, End_track
2, 0, Start_track
2, 0, Title_t, "dougmck@pipeline.com.au"
2, 0, Note_on_c, 0, 74, 60
2, 0, Note_on_c, 0, 83, 52
2, 0, Note_on_c, 0, 86, 49
2, 8, Note_on_c, 0, 50, 40
2, 8, Note_on_c, 0, 43, 40
2, 76, Note_on_c, 0, 43, 0
2, 92, Note_on_c, 0, 50, 0
2, 96, Note_on_c, 0, 86, 0
2, 112, Note_on_c, 0, 74, 0
2, 128, Note_on_c, 0, 83, 0
2, 376, Note_on_c, 0, 62, 36
2, 392, Note_on_c, 0, 59, 34
2, 436, Note_on_c, 0, 62, 0
2, 444, Note_on_c, 0, 59, 0
2, 744, Note_on_c, 0, 38, 48
2, 764, Note_on_c, 0, 38, 0
2, 924, Control_c, 0, 64, 127
2, 996, Note_on_c, 0, 74, 74
2, 1000, Note_on_c, 0, 84, 82
2, 1064, Note_on_c, 0, 74, 0
2, 1072, Note_on_c, 0, 84, 0
2, 1084, Control_c, 0, 64, 0
2, 1108, Note_on_c, 0, 56, 34
2, 1112, Note_on_c, 0, 62, 29
2, 1132, Note_on_c, 0, 83, 46
2, 1144, Note_on_c, 0, 62, 0
2, 1168, Note_on_c, 0, 56, 0
2, 1192, Note_on_c, 0, 83, 0
2, 1332, Control_c, 0, 64, 127
2, 1368, Note_on_c, 0, 86, 74
2, 1372, Note_on_c, 0, 74, 68
2, 1372, Note_on_c, 0, 79, 61
2, 1372, Note_on_c, 0, 82, 53
2, 1380, Control_c, 0, 64, 0
2, 1444, Note_on_c, 0, 74, 0
2, 1448, Note_on_c, 0, 79, 0
2, 1460, Note_on_c, 0, 86, 0
2, 1460, Note_on_c, 0, 82, 0
2, 1472, Note_on_c, 0, 48, 44
2, 1476, Note_on_c, 0, 58, 25
2, 1528, Note_on_c, 0, 48, 0
2, 1556, Note_on_c, 0, 58, 0
2, 1740, Note_on_c, 0, 86, 79
2, 1740, Note_on_c, 0, 74, 77
2, 1744, Note_on_c, 0, 79, 71
2, 1744, Note_on_c, 0, 82, 59
2, 1840, Note_on_c, 0, 64, 47
2, 1844, Note_on_c, 0, 58, 35
2, 1848, Note_on_c, 0, 86, 0
2, 1848, Note_on_c, 0, 60, 46
2, 1860, Note_on_c, 0, 82, 0
2, 1864, Note_on_c, 0, 64, 0
2, 1864, Note_on_c, 0, 79, 0
2, 1872, Note_on_c, 0, 60, 0
2, 1876, Note_on_c, 0, 74, 0
2, 1892, Note_on_c, 0, 58, 0
2, 2024, Note_on_c, 0, 64, 62
2, 2044, Note_on_c, 0, 50, 45
2, 2056, Note_on_c, 0, 64, 0
2, 2108, Note_on_c, 0, 50, 0
2, 2124, Control_c, 0, 64, 127
2, 2128, Note_on_c, 0, 51, 46
2, 2132, Note_on_c, 0, 58, 55
2, 2136, Note_on_c, 0, 66, 37
2, 2156, Note_on_c, 0, 66, 0
2, 2196, Note_on_c, 0, 58, 0
2, 2196, Control_c, 0, 64, 0
2, 2220, Note_on_c, 0, 51, 0
2, 2240, Note_on_c, 0, 58, 53
2, 2248, Note_on_c, 0, 67, 53
2, 2252, Note_on_c, 0, 52, 66
2, 2380, Control_c, 0, 64, 127
2, 2588, Note_on_c, 0, 52, 0
2, 2588, Control_c, 0, 64, 0
2, 2600, Note_on_c, 0, 64, 57
2, 2604, Note_on_c, 0, 60, 44
2, 2620, Note_on_c, 0, 48, 32
2, 2624, Note_on_c, 0, 58, 0
2, 2704, Note_on_c, 0, 48, 0
2, 2712, Control_c, 0, 64, 127
2, 2716, Note_on_c, 0, 60, 0
2, 2740, Note_on_c, 0, 64, 0
2, 2740, Note_on_c, 0, 67, 0
2, 2984, Control_c, 0, 64, 0
2, 2996, Note_on_c, 0, 74, 90
2, 2996, Note_on_c, 0, 71, 87
2, 2996, Note_on_c, 0, 64, 94
2, 3000, Note_on_c, 0, 67, 88
2, 3000, Note_on_c, 0, 59, 72
2, 3100, Note_on_c, 0, 71, 0
2, 3104, Note_on_c, 0, 74, 0
2, 3116, Note_on_c, 0, 67, 0
2, 3144, Note_on_c, 0, 64, 0
2, 3192, Note_on_c, 0, 59, 0
2, 3252, Note_on_c, 0, 71, 62
2, 3256, Control_c, 0, 64, 127
2, 3260, Note_on_c, 0, 62, 39
2, 3264, Note_on_c, 0, 67, 48
2, 3280, Note_on_c, 0, 64, 30
2, 3292, Note_on_c, 0, 67, 0
2, 3308, Note_on_c, 0, 64, 0
2, 3308, Note_on_c, 0, 71, 0
2, 3320, Note_on_c, 0, 62, 0
2, 3360, Note_on_c, 0, 55, 22
2, 3384, Control_c, 0, 64, 0
2, 3396, Note_on_c, 0, 67, 47
2, 3396, Note_on_c, 0, 62, 24
2, 3400, Note_on_c, 0, 64, 34
2, 3420, Note_on_c, 0, 59, 15
2, 3496, Note_on_c, 0, 64, 0
2, 3528, Control_c, 0, 64, 127
2, 3540, Note_on_c, 0, 62, 0
2, 3572, Note_on_c, 0, 67, 0
2, 3576, Note_on_c, 0, 59, 0
2, 3588, Note_on_c, 0, 55, 0
2, 3768, Note_on_c, 0, 58, 37
2, 3772, Note_on_c, 0, 52, 33
2, 3772, Note_on_c, 0, 48, 31
2, 3776, Note_on_c, 0, 62, 38
2, 3788, Control_c, 0, 64, 0
2, 3968, Control_c, 0, 64, 127
2, 4048, Note_on_c, 0, 58, 0
2, 4064, Note_on_c, 0, 52, 0
2, 4168, Control_c, 0, 64, 0
2, 4172, Note_on_c, 0, 58, 37
2, 4172, Note_on_c, 0, 36, 41
2, 4172, Note_on_c, 0, 52, 37
2, 4236, Control_c, 0, 64, 127
2, 4252, Note_on_c, 0, 52, 0
2, 4292, Note_on_c, 0, 62, 0
2, 4304, Note_on_c, 0, 36, 0
2, 4316, Note_on_c, 0, 58, 0
2, 4372, Note_on_c, 0, 48, 0
2, 4464, Note_on_c, 0, 41, 24
2, 4532, Control_c, 0, 64, 0
2, 4568, Note_on_c, 0, 35, 40
2, 4572, Note_on_c, 0, 41, 0
2, 4576, Note_on_c, 0, 62, 46
2, 4580, Note_on_c, 0, 57, 49
2, 4592, Control_c, 0, 64, 127
2, 4592, Note_on_c, 0, 47, 27
2, 4608, Note_on_c, 0, 35, 0
2, 4616, Note_on_c, 0, 57, 0
2, 4624, Note_on_c, 0, 47, 0
2, 4640, Note_on_c, 0, 62, 0
2, 4860, Note_on_c, 0, 69, 76
2, 4964, Note_on_c, 0, 69, 0
2, 4964, Control_c, 0, 64, 0
2, 4984, Note_on_c, 0, 66, 30
2, 4992, Note_on_c, 0, 57, 24
2, 4992, Note_on_c, 0, 74, 72
2, 5004, Note_on_c, 0, 62, 20
2, 5052, Note_on_c, 0, 74, 0
2, 5064, Control_c, 0, 64, 127
2, 5120, Note_on_c, 0, 78, 60
2, 5140, Note_on_c, 0, 57, 0
2, 5176, Note_on_c, 0, 66, 0
2, 5176, Note_on_c, 0, 78, 0
2, 5180, Note_on_c, 0, 62, 0
2, 5236, Note_on_c, 0, 79, 88
2, 5336, Note_on_c, 0, 79, 0
2, 5360, Control_c, 0, 64, 0
2, 5364, Note_on_c, 0, 76, 58
2, 5368, Note_on_c, 0, 62, 47
2, 5376, Note_on_c, 0, 72, 50
2, 5376, Note_on_c, 0, 56, 37
2, 5384, Note_on_c, 0, 67, 42
2, 5448, Note_on_c, 0, 62, 0
2, 5456, Control_c, 0, 64, 127
2, 5516, Note_on_c, 0, 56, 0
2, 5604, Note_on_c, 0, 72, 0
2, 5616, Note_on_c, 0, 67, 0
2, 5624, Note_on_c, 0, 76, 0
2, 5756, Control_c, 0, 64, 0
2, 5764, Note_on_c, 0, 56, 30
2, 5768, Note_on_c, 0, 72, 35
2, 5772, Note_on_c, 0, 46, 32
2, 5776, Note_on_c, 0, 67, 29
2, 5844, Control_c, 0, 64, 127
2, 5868, Note_on_c, 0, 72, 0
2, 5900, Note_on_c, 0, 67, 0
2, 6008, Note_on_c, 0, 56, 0
2, 6020, Note_on_c, 0, 52, 46
2, 6024, Note_on_c, 0, 46, 0
2, 6076, Note_on_c, 0, 52, 0
2, 6116, Control_c, 0, 64, 0
2, 6148, Note_on_c, 0, 67, 42
2, 6152, Note_on_c, 0, 64, 34
2, 6152, Note_on_c, 0, 55, 39
2, 6156, Note_on_c, 0, 45, 42
2, 6176, Control_c, 0, 64, 127
2, 6180, Note_on_c, 0, 45, 0
2, 6180, Note_on_c, 0, 64, 0
2, 6184, Note_on_c, 0, 67, 0
2, 6192, Note_on_c, 0, 55, 0
2, 6416, Note_on_c, 0, 86, 90
2, 6420, Note_on_c, 0, 74, 88
2, 6420, Note_on_c, 0, 79, 79
2, 6508, Note_on_c, 0, 86, 0
2, 6512, Note_on_c, 0, 79, 0
2, 6512, Note_on_c, 0, 74, 0
2, 6536, Control_c, 0, 64, 0
2, 6544, Note_on_c, 0, 64, 36
2, 6548, Note_on_c, 0, 60, 39
2, 6556, Note_on_c, 0, 86, 66
2, 6560, Note_on_c, 0, 59, 40
2, 6564, Note_on_c, 0, 74, 73
2, 6564, Note_on_c, 0, 79, 65
2, 6656, Control_c, 0, 64, 127
2, 6660, Note_on_c, 0, 79, 0
2, 6668, Note_on_c, 0, 86, 0
2, 6668, Note_on_c, 0, 74, 0
2, 6732, Note_on_c, 0, 64, 0
2, 6772, Note_on_c, 0, 59, 0
2, 6792, Note_on_c, 0, 60, 0
2, 6800, Note_on_c, 0, 86, 82
2, 6800, Note_on_c, 0, 74, 84
2, 6804, Note_on_c, 0, 79, 76
2, 6864, Note_on_c, 0, 86, 0
2, 6884, Note_on_c, 0, 79, 0
2, 6884, Note_on_c, 0, 74, 0
2, 6924, Control_c, 0, 64, 0
2, 6940, Note_on_c, 0, 84, 69
2, 6940, Note_on_c, 0, 57, 38
2, 6940, Note_on_c, 0, 64, 27
2, 6944, Note_on_c, 0, 79, 34
2, 6944, Note_on_c, 0, 60, 31
2, 6948, Note_on_c, 0, 72, 45
2, 7020, Note_on_c, 0, 84, 0
2, 7024, Note_on_c, 0, 72, 0
2, 7036, Note_on_c, 0, 79, 0
2, 7056, Control_c, 0, 64, 127
2, 7104, Note_on_c, 0, 64, 0
2, 7172, Note_on_c, 0, 72, 56
2, 7176, Note_on_c, 0, 84, 44
2, 7184, Note_on_c, 0, 79, 32
2, 7196, Note_on_c, 0, 84, 0
2, 7208, Note_on_c, 0, 79, 0
2, 7224, Note_on_c, 0, 72, 0
2, 7260, Note_on_c, 0, 57, 0
2, 7292, Control_c, 0, 64, 0
2, 7300, Note_on_c, 0, 64, 31
2, 7300, Note_on_c, 0, 55, 29
2, 7304, Note_on_c, 0, 81, 55
2, 7308, Note_on_c, 0, 76, 42
2, 7324, Note_on_c, 0, 69, 19
2, 7336, Note_on_c, 0, 64, 0
2, 7348, Note_on_c, 0, 60, 0
2, 7352, Note_on_c, 0, 76, 0
2, 7352, Note_on_c, 0, 81, 0
2, 7352, Note_on_c, 0, 69, 0
2, 7360, Note_on_c, 0, 55, 0
2, 7484, Control_c, 0, 64, 127
2, 7552, Note_on_c, 0, 51, 36
2, 7616, Note_on_c, 0, 51, 0
2, 7660, Note_on_c, 0, 74, 51
2, 7664, Note_on_c, 0, 66, 27
2, 7668, Control_c, 0, 64, 0
2, 7672, Note_on_c, 0, 64, 47
2, 7672, Note_on_c, 0, 60, 40
2, 7688, Note_on_c, 0, 50, 29
2, 7704, Note_on_c, 0, 54, 31
2, 7736, Note_on_c, 0, 50, 0
2, 7744, Note_on_c, 0, 60, 0
2, 7776, Note_on_c, 0, 54, 0
2, 7820, Control_c, 0, 64, 127
2, 8028, Control_c, 0, 64, 0
2, 8040, Note_on_c, 0, 38, 84
2, 8044, Note_on_c, 0, 50, 88
2, 8084, Note_on_c, 0, 38, 0
2, 8088, Note_on_c, 0, 50, 0
2, 8120, Control_c, 0, 64, 127
2, 8240, Note_on_c, 0, 64, 0
2, 8264, Note_on_c, 0, 66, 0
2, 8432, Note_on_c, 0, 66, 42
2, 8444, Note_on_c, 0, 64, 45
2, 8452, Note_on_c, 0, 54, 33
2, 8484, Note_on_c, 0, 64, 0
2, 8488, Note_on_c, 0, 54, 0
2, 8532, Note_on_c, 0, 66, 0
2, 8572, Note_on_c, 0, 74, 0
2, 8704, Note_on_c, 0, 70, 91
2, 8708, Note_on_c, 0, 65, 95
2, 8708, Note_on_c, 0, 74, 89
2, 8708, Note_on_c, 0, 44, 77
2, 8708, Note_on_c, 0, 54, 79
2, 8716, Control_c, 0, 64, 0
2, 8808, Control_c, 0, 64, 127
2, 9008, Note_on_c, 0, 44, 0
2, 9016, Note_on_c, 0, 54, 0
2, 9048, Note_on_c, 0, 74, 0
2, 9068, Note_on_c, 0, 65, 0
2, 9076, Note_on_c, 0, 70, 0
2, 9228, Note_on_c, 0, 71, 80
2, 9232, Control_c, 0, 64, 0
2, 9236, Note_on_c, 0, 62, 77
2, 9236, Note_on_c, 0, 67, 79
2, 9240, Note_on_c, 0, 51, 60
2, 9240, Note_on_c, 0, 57, 69
2, 9240, Note_on_c, 0, 47, 63
2, 9424, Control_c, 0, 64, 127
2, 9564, Note_on_c, 0, 47, 0
2, 9584, Note_on_c, 0, 62, 0
2, 9584, Note_on_c, 0, 51, 0
2, 9596, Note_on_c, 0, 67, 0
2, 9596, Note_on_c, 0, 57, 0
2, 9616, Note_on_c, 0, 71, 0
2, 9852, Note_on_c, 0, 79, 89
2, 9852, Note_on_c, 0, 56, 80
2, 9852, Note_on_c, 0, 67, 95
2, 9852, Note_on_c, 0, 76, 87
2, 9856, Note_on_c, 0, 72, 88
2, 9856, Note_on_c, 0, 62, 80
2, 9880, Control_c, 0, 64, 0
2, 10036, Control_c, 0, 64, 127
2, 10192, Note_on_c, 0, 79, 0
2, 10196, Note_on_c, 0, 72, 0
2, 10196, Note_on_c, 0, 76, 0
2, 10212, Note_on_c, 0, 62, 0
2, 10228, Note_on_c, 0, 67, 0
2, 10236, Note_on_c, 0, 56, 0
2, 10620, Note_on_c, 0, 61, 46
2, 10628, Control_c, 0, 64, 0
2, 10628, Note_on_c, 0, 65, 52
2, 10628, Note_on_c, 0, 69, 53
2, 10644, Note_on_c, 0, 55, 29
2, 10652, Note_on_c, 0, 45, 28
2, 10704, Note_on_c, 0, 65, 0
2, 10708, Note_on_c, 0, 61, 0
2, 10716, Note_on_c, 0, 45, 0
2, 10720, Note_on_c, 0, 69, 0
2, 10720, Control_c, 0, 64, 127
2, 10748, Note_on_c, 0, 55, 0
2, 10980, Note_on_c, 0, 84, 69
2, 10980, Note_on_c, 0, 77, 62
2, 10984, Note_on_c, 0, 72, 51
2, 10984, Note_on_c, 0, 81, 53
2, 11004, Note_on_c, 0, 72, 0
2, 11008, Note_on_c, 0, 81, 0
2, 11012, Note_on_c, 0, 77, 0
2, 11040, Note_on_c, 0, 84, 0
2, 11064, Control_c, 0, 64, 0
2, 11084, Note_on_c, 0, 55, 28
2, 11088, Note_on_c, 0, 61, 37
2, 11088, Note_on_c, 0, 65, 25
2, 11132, Note_on_c, 0, 65, 0
2, 11148, Note_on_c, 0, 55, 0
2, 11152, Note_on_c, 0, 61, 0
2, 11284, Control_c, 0, 64, 127
2, 11336, Note_on_c, 0, 98, 60
2, 11340, Note_on_c, 0, 88, 49
2, 11344, Note_on_c, 0, 92, 53
2, 11384, Note_on_c, 0, 92, 0
2, 11384, Note_on_c, 0, 98, 0
2, 11392, Note_on_c, 0, 88, 0
2, 11400, Control_c, 0, 64, 0
2, 11440, Note_on_c, 0, 60, 25
2, 11444, Note_on_c, 0, 54, 35
2, 11464, Note_on_c, 0, 50, 31
2, 11468, Note_on_c, 0, 60, 0
2, 11512, Note_on_c, 0, 50, 0
2, 11516, Note_on_c, 0, 54, 0
2, 11604, Control_c, 0, 64, 127
2, 11708, Note_on_c, 0, 50, 49
2, 11744, Note_on_c, 0, 50, 0
2, 11800, Control_c, 0, 64, 0
2, 11812, Note_on_c, 0, 54, 64
2, 11812, Note_on_c, 0, 44, 58
2, 11816, Note_on_c, 0, 60, 110
2, 11820, Note_on_c, 0, 67, 85
2, 11920, Note_on_c, 0, 60, 0
2, 11932, Note_on_c, 0, 62, 53
2, 11980, Note_on_c, 0, 67, 0
2, 11984, Note_on_c, 0, 60, 55
2, 12016, Note_on_c, 0, 62, 0
2, 12040, Control_c, 0, 64, 127
2, 12052, Note_on_c, 0, 60, 0
2, 12068, Note_on_c, 0, 57, 54
2, 12112, Note_on_c, 0, 57, 0
2, 12112, Note_on_c, 0, 44, 0
2, 12116, Note_on_c, 0, 54, 0
2, 12132, Control_c, 0, 64, 0
2, 12160, Note_on_c, 0, 50, 41
2, 12168, Note_on_c, 0, 59, 65
2, 12180, Note_on_c, 0, 43, 43
2, 12224, Control_c, 0, 64, 127
2, 12232, Note_on_c, 0, 50, 0
2, 12240, Note_on_c, 0, 43, 0
2, 12244, Note_on_c, 0, 59, 0
2, 12576, Note_on_c, 0, 74, 82
2, 12580, Note_on_c, 0, 58, 53
2, 12584, Note_on_c, 0, 64, 80
2, 12584, Note_on_c, 0, 71, 70
2, 12584, Note_on_c, 0, 67, 76
2, 12584, Note_on_c, 0, 59, 77
2, 12596, Control_c, 0, 64, 0
2, 12604, Note_on_c, 0, 58, 0
2, 12856, Note_on_c, 0, 71, 0
2, 12860, Note_on_c, 0, 74, 0
2, 12868, Control_c, 0, 64, 127
2, 12876, Note_on_c, 0, 64, 0
2, 12892, Note_on_c, 0, 67, 0
2, 12904, Note_on_c, 0, 59, 0
2, 12904, Note_on_c, 0, 54, 28
2, 12964, Control_c, 0, 64, 0
2, 12972, Note_on_c, 0, 72, 42
2, 12976, Note_on_c, 0, 54, 0
2, 12976, Note_on_c, 0, 64, 37
2, 12976, Note_on_c, 0, 67, 41
2, 12980, Note_on_c, 0, 57, 44
2, 13136, Note_on_c, 0, 72, 0
2, 13156, Note_on_c, 0, 67, 0
2, 13240, Note_on_c, 0, 64, 0
2, 13284, Control_c, 0, 64, 127
2, 13296, Control_c, 0, 64, 0
2, 13360, Note_on_c, 0, 71, 31
2, 13360, Note_on_c, 0, 62, 32
2, 13364, Note_on_c, 0, 57, 0
2, 13364, Note_on_c, 0, 64, 41
2, 13364, Note_on_c, 0, 55, 50
2, 13368, Note_on_c, 0, 67, 35
2, 13484, Note_on_c, 0, 62, 0
2, 13500, Note_on_c, 0, 64, 0
2, 13504, Note_on_c, 0, 67, 0
2, 13516, Note_on_c, 0, 71, 0
2, 13623, Note_on_c, 0, 48, 38
2, 13624, Control_c, 0, 64, 127
2, 13669, Note_on_c, 0, 58, 18
2, 13672, Control_c, 0, 64, 0
2, 13740, Note_on_c, 0, 55, 0
2, 13751, Note_on_c, 0, 48, 0
2, 13797, Note_on_c, 0, 58, 0
2, 13824, Note_on_c, 0, 74, 37
2, 13824, Note_on_c, 0, 64, 36
2, 13824, Note_on_c, 0, 70, 30
2, 13824, Note_on_c, 0, 67, 39
2, 13952, Note_on_c, 0, 67, 0
2, 13952, Note_on_c, 0, 74, 0
2, 13952, Note_on_c, 0, 64, 0
2, 13952, Note_on_c, 0, 70, 0
2, 14080, Note_on_c, 0, 86, 64
2, 14080, Note_on_c, 0, 79, 63
2, 14080, Note_on_c, 0, 74, 50
2, 14080, Note_on_c, 0, 82, 53
2, 14080, Control_c, 0, 64, 127
2, 14132, Control_c, 0, 64, 0
2, 14208, Note_on_c, 0, 82, 0
2, 14208, Note_on_c, 0, 86, 0
2, 14208, Note_on_c, 0, 79, 0
2, 14208, Note_on_c, 0, 74, 0
2, 14208, Note_on_c, 0, 62, 55
2, 14336, Note_on_c, 0, 62, 0
2, 14464, Note_on_c, 0, 50, 60
2, 14592, Note_on_c, 0, 50, 0
2, 14592, Note_on_c, 0, 51, 61
2, 14592, Note_on_c, 0, 58, 37
2, 14592, Note_on_c, 0, 52, 44
2, 14592, Note_on_c, 0, 74, 57
2, 14592, Note_on_c, 0, 70, 55
2, 14592, Note_on_c, 0, 64, 50
2, 14592, Note_on_c, 0, 67, 56
2, 14720, Note_on_c, 0, 67, 0
2, 14720, Note_on_c, 0, 51, 0
2, 14720, Note_on_c, 0, 58, 0
2, 14780, Control_c, 0, 64, 127
2, 14848, Note_on_c, 0, 70, 0
2, 14848, Note_on_c, 0, 74, 0
2, 14848, Note_on_c, 0, 64, 0
2, 14960, Control_c, 0, 64, 0
2, 14976, Note_on_c, 0, 52, 0
2, 14976, Note_on_c, 0, 67, 50
2, 14976, Note_on_c, 0, 58, 39
2, 14976, Note_on_c, 0, 64, 50
2, 14976, Note_on_c, 0, 48, 40
2, 15104, Note_on_c, 0, 64, 0
2, 15104, Note_on_c, 0, 67, 0
2, 15104, Note_on_c, 0, 58, 0
2, 15232, Note_on_c, 0, 48, 0
2, 15260, Control_c, 0, 64, 127
2, 15340, Control_c, 0, 64, 0
2, 15364, Note_on_c, 0, 59, 71
2, 15364, Note_on_c, 0, 71, 75
2, 15364, Note_on_c, 0, 74, 80
2, 15364, Note_on_c, 0, 67, 75
2, 15368, Note_on_c, 0, 64, 80
2, 15464, Note_on_c, 0, 74, 0
2, 15464, Note_on_c, 0, 71, 0
2, 15476, Note_on_c, 0, 67, 0
2, 15496, Note_on_c, 0, 64, 0
2, 15540, Note_on_c, 0, 59, 0
2, 15576, Note_on_c, 0, 51, 26
2, 15624, Note_on_c, 0, 51, 0
2, 15624, Note_on_c, 0, 71, 61
2, 15632, Note_on_c, 0, 62, 53
2, 15636, Note_on_c, 0, 55, 55
2, 15644, Note_on_c, 0, 64, 36
2, 15652, Note_on_c, 0, 67, 24
2, 15668, Note_on_c, 0, 67, 0
2, 15668, Control_c, 0, 64, 127
2, 15676, Note_on_c, 0, 71, 0
2, 15688, Note_on_c, 0, 64, 0
2, 15696, Note_on_c, 0, 62, 0
2, 15744, Control_c, 0, 64, 0
2, 15752, Note_on_c, 0, 55, 0
2, 15780, Note_on_c, 0, 52, 41
2, 15784, Note_on_c, 0, 59, 30
2, 15784, Note_on_c, 0, 62, 18
2, 15792, Note_on_c, 0, 64, 29
2, 15792, Note_on_c, 0, 67, 15
2, 15836, Note_on_c, 0, 64, 0
2, 15844, Note_on_c, 0, 52, 0
2, 15852, Note_on_c, 0, 62, 0
2, 15864, Note_on_c, 0, 67, 0
2, 15872, Note_on_c, 0, 59, 0
2, 15996, Control_c, 0, 64, 127
2, 16040, Note_on_c, 0, 47, 24
2, 16116, Note_on_c, 0, 47, 0
2, 16120, Control_c, 0, 64, 0
2, 16128, Note_on_c, 0, 58, 37
2, 16132, Note_on_c, 0, 48, 32
2, 16136, Note_on_c, 0, 52, 31
2, 16136, Note_on_c, 0, 62, 28
2, 16316, Note_on_c, 0, 48, 0
2, 16512, Note_on_c, 0, 52, 0
2, 16512, Note_on_c, 0, 48, 89
2, 16560, Note_on_c, 0, 58, 0
2, 16564, Note_on_c, 0, 62, 0
2, 16788, Note_on_c, 0, 36, 47
2, 16816, Note_on_c, 0, 48, 0
2, 16848, Note_on_c, 0, 36, 0
2, 16912, Note_on_c, 0, 66, 36
2, 16916, Note_on_c, 0, 62, 37
2, 16920, Note_on_c, 0, 57, 44
2, 16920, Note_on_c, 0, 47, 49
2, 16932, Note_on_c, 0, 35, 49
2, 16944, Note_on_c, 0, 57, 0
2, 16964, Note_on_c, 0, 35, 0
2, 16972, Note_on_c, 0, 62, 0
2, 16992, Note_on_c, 0, 66, 0
2, 17000, Note_on_c, 0, 47, 0
2, 17164, Note_on_c, 0, 78, 67
2, 17192, Control_c, 0, 64, 127
2, 17244, Control_c, 0, 64, 0
2, 17264, Note_on_c, 0, 78, 0
2, 17280, Note_on_c, 0, 57, 34
2, 17292, Note_on_c, 0, 62, 28
2, 17292, Note_on_c, 0, 69, 44
2, 17320, Note_on_c, 0, 69, 0
2, 17320, Note_on_c, 0, 57, 0
2, 17336, Note_on_c, 0, 62, 0
2, 17416, Note_on_c, 0, 74, 31
2, 17476, Note_on_c, 0, 74, 0
2, 17492, Control_c, 0, 64, 127
2, 17524, Note_on_c, 0, 78, 68
2, 17592, Note_on_c, 0, 78, 0
2, 17632, Control_c, 0, 64, 0
2, 17648, Note_on_c, 0, 56, 44
2, 17648, Note_on_c, 0, 72, 60
2, 17656, Note_on_c, 0, 79, 68
2, 17656, Note_on_c, 0, 62, 22
2, 17680, Note_on_c, 0, 62, 0
2, 17720, Note_on_c, 0, 56, 0
2, 17800, Note_on_c, 0, 72, 0
2, 17840, Note_on_c, 0, 79, 0
2, 17896, Note_on_c, 0, 76, 48
2, 17904, Note_on_c, 0, 72, 34
2, 17924, Control_c, 0, 64, 127
2, 17952, Note_on_c, 0, 72, 0
2, 17972, Control_c, 0, 64, 0
2, 17980, Note_on_c, 0, 76, 0
2, 18024, Note_on_c, 0, 56, 21
2, 18024, Note_on_c, 0, 46, 32
2, 18272, Control_c, 0, 64, 127
2, 18276, Note_on_c, 0, 56, 0
2, 18280, Note_on_c, 0, 81, 58
2, 18292, Note_on_c, 0, 52, 27
2, 18328, Note_on_c, 0, 52, 0
2, 18328, Note_on_c, 0, 46, 0
2, 18344, Note_on_c, 0, 81, 0
2, 18376, Control_c, 0, 64, 0
2, 18404, Note_on_c, 0, 55, 33
2, 18432, Note_on_c, 0, 82, 40
2, 18444, Note_on_c, 0, 55, 0
2, 18488, Note_on_c, 0, 82, 0
2, 18512, Note_on_c, 0, 83, 31
2, 18592, Note_on_c, 0, 83, 0
2, 18676, Note_on_c, 0, 86, 85
2, 18684, Note_on_c, 0, 74, 75
2, 18744, Note_on_c, 0, 74, 0
2, 18772, Note_on_c, 0, 86, 0
2, 18784, Note_on_c, 0, 64, 30
2, 18804, Note_on_c, 0, 60, 25
2, 18812, Note_on_c, 0, 64, 0
2, 18820, Note_on_c, 0, 59, 24
2, 18836, Note_on_c, 0, 81, 18
2, 18860, Note_on_c, 0, 60, 0
2, 18888, Note_on_c, 0, 59, 0
2, 18912, Note_on_c, 0, 81, 0
2, 18912, Note_on_c, 0, 82, 25
2, 18960, Note_on_c, 0, 82, 0
2, 18976, Note_on_c, 0, 83, 34
2, 19036, Note_on_c, 0, 83, 0
2, 19072, Note_on_c, 0, 86, 78
2, 19084, Note_on_c, 0, 74, 73
2, 19112, Control_c, 0, 64, 127
2, 19140, Note_on_c, 0, 74, 0
2, 19156, Control_c, 0, 64, 0
2, 19176, Note_on_c, 0, 86, 0
2, 19184, Note_on_c, 0, 64, 36
2, 19192, Note_on_c, 0, 57, 29
2, 19200, Note_on_c, 0, 60, 17
2, 19224, Note_on_c, 0, 64, 0
2, 19232, Note_on_c, 0, 60, 0
2, 19244, Note_on_c, 0, 81, 24
2, 19308, Note_on_c, 0, 82, 14
2, 19312, Note_on_c, 0, 57, 0
2, 19320, Note_on_c, 0, 81, 0
2, 19364, Note_on_c, 0, 82, 0
2, 19368, Note_on_c, 0, 83, 41
2, 19432, Note_on_c, 0, 83, 0
2, 19472, Note_on_c, 0, 86, 82
2, 19480, Note_on_c, 0, 74, 77
2, 19568, Note_on_c, 0, 86, 0
2, 19592, Note_on_c, 0, 55, 36
2, 19596, Note_on_c, 0, 64, 25
2, 19600, Note_on_c, 0, 60, 27
2, 19612, Note_on_c, 0, 74, 0
2, 19616, Note_on_c, 0, 64, 0
2, 19624, Note_on_c, 0, 55, 0
2, 19624, Note_on_c, 0, 60, 0
2, 19636, Note_on_c, 0, 81, 29
2, 19692, Note_on_c, 0, 82, 23
2, 19716, Note_on_c, 0, 81, 0
2, 19752, Note_on_c, 0, 83, 48
2, 19756, Note_on_c, 0, 82, 0
2, 19816, Note_on_c, 0, 83, 0
2, 19856, Note_on_c, 0, 86, 82
2, 19864, Note_on_c, 0, 51, 60
2, 19868, Note_on_c, 0, 74, 78
2, 19872, Note_on_c, 0, 61, 47
2, 19896, Control_c, 0, 64, 127
2, 19936, Control_c, 0, 64, 0
2, 19948, Note_on_c, 0, 74, 0
2, 19952, Note_on_c, 0, 61, 0
2, 19956, Note_on_c, 0, 86, 0
2, 19960, Note_on_c, 0, 51, 0
2, 19984, Note_on_c, 0, 83, 67
2, 19988, Note_on_c, 0, 60, 48
2, 19992, Note_on_c, 0, 74, 58
2, 20004, Note_on_c, 0, 50, 44
2, 20004, Note_on_c, 0, 54, 29
2, 20036, Note_on_c, 0, 60, 0
2, 20068, Note_on_c, 0, 54, 0
2, 20072, Note_on_c, 0, 50, 0
2, 20136, Note_on_c, 0, 83, 0
2, 20148, Note_on_c, 0, 74, 0
2, 20228, Note_on_c, 0, 49, 67
2, 20240, Note_on_c, 0, 50, 77
2, 20288, Note_on_c, 0, 49, 0
2, 20380, Note_on_c, 0, 38, 55
2, 20404, Note_on_c, 0, 38, 0
2, 20444, Note_on_c, 0, 50, 0
2, 20624, Note_on_c, 0, 38, 60
2, 20644, Note_on_c, 0, 38, 0
2, 20660, Control_c, 0, 64, 127
2, 20720, Control_c, 0, 64, 0
2, 20760, Note_on_c, 0, 54, 59
2, 20764, Note_on_c, 0, 70, 67
2, 20768, Note_on_c, 0, 74, 66
2, 20772, Note_on_c, 0, 65, 57
2, 20868, Note_on_c, 0, 74, 0
2, 20880, Note_on_c, 0, 70, 0
2, 20888, Note_on_c, 0, 65, 0
2, 20976, Control_c, 0, 64, 127
2, 21016, Note_on_c, 0, 54, 0
2, 21124, Control_c, 0, 64, 0
2, 21144, Note_on_c, 0, 44, 50
2, 21148, Note_on_c, 0, 60, 68
2, 21148, Note_on_c, 0, 54, 37
2, 21264, Note_on_c, 0, 54, 0
2, 21288, Note_on_c, 0, 60, 0
2, 21292, Note_on_c, 0, 67, 45
2, 21328, Note_on_c, 0, 44, 0
2, 21356, Note_on_c, 0, 60, 42
2, 21364, Note_on_c, 0, 67, 0
2, 21384, Control_c, 0, 64, 127
2, 21432, Note_on_c, 0, 60, 0
2, 21432, Note_on_c, 0, 57, 41
2, 21456, Note_on_c, 0, 57, 0
2, 21488, Note_on_c, 0, 43, 45
2, 21496, Note_on_c, 0, 59, 56
2, 21500, Control_c, 0, 64, 0
2, 21708, Control_c, 0, 64, 127
2, 21776, Note_on_c, 0, 59, 0
2, 21800, Note_on_c, 0, 44, 34
2, 21836, Note_on_c, 0, 43, 0
2, 21872, Note_on_c, 0, 44, 0
2, 21880, Note_on_c, 0, 60, 47
2, 21880, Control_c, 0, 64, 0
2, 21884, Note_on_c, 0, 45, 42
2, 21892, Note_on_c, 0, 55, 33
2, 22200, Note_on_c, 0, 60, 0
2, 22216, Note_on_c, 0, 55, 0
2, 22272, Note_on_c, 0, 55, 40
2, 22276, Note_on_c, 0, 46, 37
2, 22276, Note_on_c, 0, 61, 34
2, 22288, Note_on_c, 0, 45, 0
2, 22400, Control_c, 0, 64, 127
2, 22528, Note_on_c, 0, 55, 0
2, 22576, Control_c, 0, 64, 0
2, 22580, Note_on_c, 0, 61, 0
2, 22636, Note_on_c, 0, 46, 0
2, 22636, Note_on_c, 0, 62, 42
2, 22640, Note_on_c, 0, 47, 48
2, 22648, Note_on_c, 0, 59, 40
2, 22652, Note_on_c, 0, 55, 28
2, 22656, Control_c, 0, 64, 127
2, 22700, Note_on_c, 0, 47, 0
2, 22712, Note_on_c, 0, 55, 0
2, 22760, Note_on_c, 0, 59, 0
2, 22784, Note_on_c, 0, 62, 0
2, 23012, Control_c, 0, 64, 0
2, 23016, Note_on_c, 0, 76, 80
2, 23020, Note_on_c, 0, 69, 83
2, 23024, Note_on_c, 0, 65, 80
2, 23024, Note_on_c, 0, 64, 76
2, 23024, Note_on_c, 0, 72, 68
2, 23124, Control_c, 0, 64, 127
2, 23264, Note_on_c, 0, 76, 0
2, 23268, Note_on_c, 0, 72, 0
2, 23292, Note_on_c, 0, 69, 0
2, 23296, Note_on_c, 0, 65, 0
2, 23340, Note_on_c, 0, 64, 0
2, 23404, Note_on_c, 0, 74, 58
2, 23412, Note_on_c, 0, 69, 59
2, 23412, Note_on_c, 0, 65, 49
2, 23420, Note_on_c, 0, 62, 43
2, 23448, Note_on_c, 0, 62, 0
2, 23496, Note_on_c, 0, 69, 0
2, 23500, Note_on_c, 0, 74, 0
2, 23512, Note_on_c, 0, 65, 0
2, 23788, Control_c, 0, 64, 0
2, 23792, Note_on_c, 0, 68, 46
2, 23792, Note_on_c, 0, 63, 44
2, 23800, Note_on_c, 0, 59, 44
2, 23804, Note_on_c, 0, 49, 33
2, 23808, Note_on_c, 0, 56, 28
2, 23848, Note_on_c, 0, 56, 0
2, 23856, Control_c, 0, 64, 127
2, 23884, Note_on_c, 0, 49, 0
2, 23904, Note_on_c, 0, 68, 0
2, 23920, Note_on_c, 0, 63, 0
2, 23956, Note_on_c, 0, 59, 0
2, 24180, Note_on_c, 0, 37, 48
2, 24188, Note_on_c, 0, 53, 45
2, 24192, Control_c, 0, 64, 0
2, 24268, Control_c, 0, 64, 127
2, 24420, Note_on_c, 0, 37, 0
2, 24448, Note_on_c, 0, 53, 0
2, 24544, Control_c, 0, 64, 0
2, 24576, Note_on_c, 0, 36, 35
2, 24580, Note_on_c, 0, 52, 41
2, 24604, Note_on_c, 0, 52, 0
2, 24612, Note_on_c, 0, 36, 0
2, 24612, Control_c, 0, 64, 127
2, 24940, Control_c, 0, 64, 0
2, 24948, Note_on_c, 0, 48, 47
2, 24964, Note_on_c, 0, 55, 36
2, 24988, Control_c, 0, 64, 127
2, 25156, Note_on_c, 0, 48, 0
2, 25280, Note_on_c, 0, 55, 0
2, 25336, Note_on_c, 0, 56, 37
2, 25348, Note_on_c, 0, 48, 47
2, 25356, Control_c, 0, 64, 0
2, 25480, Note_on_c, 0, 64, 56
2, 25536, Note_on_c, 0, 64, 0
2, 25556, Note_on_c, 0, 48, 0
2, 25572, Note_on_c, 0, 56, 0
2, 25588, Note_on_c, 0, 68, 74
2, 25596, Control_c, 0, 64, 127
2, 25652, Note_on_c, 0, 68, 0
2, 25704, Note_on_c, 0, 56, 34
2, 25712, Note_on_c, 0, 72, 62
2, 25716, Control_c, 0, 64, 0
2, 25724, Note_on_c, 0, 48, 37
2, 25764, Note_on_c, 0, 72, 0
2, 25832, Note_on_c, 0, 76, 70
2, 25888, Note_on_c, 0, 76, 0
2, 25924, Note_on_c, 0, 48, 0
2, 25940, Control_c, 0, 64, 127
2, 25956, Note_on_c, 0, 80, 74
2, 26032, Note_on_c, 0, 56, 0
2, 26052, Note_on_c, 0, 80, 0
2, 26072, Control_c, 0, 64, 0
2, 26088, Note_on_c, 0, 57, 39
2, 26092, Note_on_c, 0, 84, 84
2, 26092, Note_on_c, 0, 48, 31
2, 26168, Note_on_c, 0, 84, 0
2, 26308, Note_on_c, 0, 48, 0
2, 26320, Note_on_c, 0, 57, 0
2, 26340, Note_on_c, 0, 84, 80
2, 26352, Note_on_c, 0, 72, 45
2, 26352, Note_on_c, 0, 74, 55
2, 26376, Note_on_c, 0, 74, 0
2, 26380, Control_c, 0, 64, 127
2, 26396, Note_on_c, 0, 72, 0
2, 26428, Note_on_c, 0, 84, 0
2, 26456, Control_c, 0, 64, 0
2, 26456, Note_on_c, 0, 48, 36
2, 26460, Note_on_c, 0, 57, 29
2, 26564, Note_on_c, 0, 48, 0
2, 26644, Control_c, 0, 64, 127
2, 26736, Note_on_c, 0, 48, 47
2, 26760, Note_on_c, 0, 57, 0
2, 26764, Note_on_c, 0, 48, 0
2, 26848, Control_c, 0, 64, 0
2, 26860, Note_on_c, 0, 49, 71
2, 26864, Note_on_c, 0, 88, 71
2, 26864, Note_on_c, 0, 76, 71
2, 26984, Control_c, 0, 64, 127
2, 27108, Note_on_c, 0, 76, 0
2, 27108, Note_on_c, 0, 88, 0
2, 27212, Control_c, 0, 64, 0
2, 27216, Note_on_c, 0, 58, 42
2, 27228, Note_on_c, 0, 88, 64
2, 27236, Note_on_c, 0, 76, 51
2, 27244, Note_on_c, 0, 82, 48
2, 27344, Control_c, 0, 64, 127
2, 27348, Note_on_c, 0, 76, 0
2, 27356, Note_on_c, 0, 82, 0
2, 27400, Note_on_c, 0, 88, 0
2, 27428, Note_on_c, 0, 49, 0
2, 27480, Note_on_c, 0, 49, 27
2, 27560, Note_on_c, 0, 49, 0
2, 27572, Note_on_c, 0, 58, 0
2, 27592, Control_c, 0, 64, 0
2, 27612, Note_on_c, 0, 88, 55
2, 27616, Note_on_c, 0, 79, 48
2, 27616, Note_on_c, 0, 59, 36
2, 27620, Note_on_c, 0, 83, 61
2, 27620, Note_on_c, 0, 50, 38
2, 27708, Control_c, 0, 64, 127
2, 27756, Note_on_c, 0, 88, 0
2, 27768, Note_on_c, 0, 83, 0
2, 27784, Note_on_c, 0, 79, 0
2, 27868, Note_on_c, 0, 59, 0
2, 27888, Note_on_c, 0, 50, 0
2, 28004, Note_on_c, 0, 86, 40
2, 28008, Note_on_c, 0, 74, 34
2, 28012, Note_on_c, 0, 59, 37
2, 28016, Control_c, 0, 64, 0
2, 28016, Note_on_c, 0, 79, 36
2, 28016, Note_on_c, 0, 83, 33
2, 28024, Note_on_c, 0, 50, 33
2, 28044, Control_c, 0, 64, 127
2, 28052, Note_on_c, 0, 86, 0
2, 28056, Note_on_c, 0, 83, 0
2, 28076, Note_on_c, 0, 79, 0
2, 28100, Note_on_c, 0, 74, 0
2, 28164, Note_on_c, 0, 59, 0
2, 28316, Note_on_c, 0, 54, 29
2, 28384, Note_on_c, 0, 71, 58
2, 28388, Control_c, 0, 64, 0
2, 28396, Note_on_c, 0, 67, 53
2, 28400, Note_on_c, 0, 54, 0
2, 28400, Note_on_c, 0, 62, 50
2, 28400, Note_on_c, 0, 59, 44
2, 28408, Note_on_c, 0, 50, 0
2, 28460, Note_on_c, 0, 62, 0
2, 28460, Control_c, 0, 64, 127
2, 28480, Note_on_c, 0, 67, 0
2, 28492, Note_on_c, 0, 71, 0
2, 28532, Note_on_c, 0, 59, 0
2, 28644, Note_on_c, 0, 60, 57
2, 28648, Note_on_c, 0, 74, 82
2, 28652, Note_on_c, 0, 67, 71
2, 28656, Note_on_c, 0, 64, 65
2, 28660, Note_on_c, 0, 71, 62
2, 28676, Note_on_c, 0, 72, 36
2, 28704, Note_on_c, 0, 72, 0
2, 28712, Note_on_c, 0, 71, 0
2, 28732, Note_on_c, 0, 74, 0
2, 28740, Note_on_c, 0, 60, 0
2, 28740, Note_on_c, 0, 67, 0
2, 28744, Note_on_c, 0, 64, 0
2, 28776, Control_c, 0, 64, 0
2, 28808, Note_on_c, 0, 59, 50
2, 28816, Note_on_c, 0, 67, 29
2, 28820, Note_on_c, 0, 62, 24
2, 28832, Note_on_c, 0, 72, 17
2, 28832, Note_on_c, 0, 65, 24
2, 28856, Note_on_c, 0, 72, 0
2, 28868, Note_on_c, 0, 67, 0
2, 28868, Note_on_c, 0, 65, 0
2, 28912, Note_on_c, 0, 62, 0
2, 28932, Note_on_c, 0, 66, 38
2, 28952, Note_on_c, 0, 66, 0
2, 28996, Note_on_c, 0, 59, 0
2, 29008, Control_c, 0, 64, 127
2, 29032, Note_on_c, 0, 71, 50
2, 29044, Note_on_c, 0, 62, 42
2, 29048, Note_on_c, 0, 64, 53
2, 29048, Note_on_c, 0, 55, 53
2, 29076, Note_on_c, 0, 64, 0
2, 29076, Note_on_c, 0, 71, 0
2, 29096, Note_on_c, 0, 62, 0
2, 29120, Note_on_c, 0, 55, 0
2, 29180, Control_c, 0, 64, 0
2, 29188, Note_on_c, 0, 62, 43
2, 29196, Note_on_c, 0, 67, 29
2, 29200, Note_on_c, 0, 59, 22
2, 29204, Note_on_c, 0, 64, 32
2, 29208, Note_on_c, 0, 50, 39
2, 29272, Control_c, 0, 64, 127
2, 29296, Note_on_c, 0, 50, 0
2, 29300, Note_on_c, 0, 64, 0
2, 29348, Note_on_c, 0, 62, 0
2, 29364, Note_on_c, 0, 59, 0
2, 29408, Note_on_c, 0, 67, 0
2, 29556, Note_on_c, 0, 62, 42
2, 29560, Note_on_c, 0, 57, 48
2, 29564, Note_on_c, 0, 59, 41
2, 29584, Control_c, 0, 64, 0
2, 29700, Note_on_c, 0, 49, 47
2, 29720, Note_on_c, 0, 57, 0
2, 29724, Note_on_c, 0, 49, 0
2, 29732, Note_on_c, 0, 59, 0
2, 29748, Note_on_c, 0, 62, 0
2, 29812, Note_on_c, 0, 48, 62
2, 29844, Control_c, 0, 64, 127
2, 29856, Control_c, 0, 64, 0
2, 29876, Note_on_c, 0, 48, 0
2, 29948, Note_on_c, 0, 57, 44
2, 29948, Note_on_c, 0, 62, 40
2, 29960, Note_on_c, 0, 47, 55
2, 29988, Note_on_c, 0, 57, 0
2, 29996, Control_c, 0, 64, 127
2, 30016, Note_on_c, 0, 47, 0
2, 30028, Note_on_c, 0, 62, 0
2, 30336, Note_on_c, 0, 74, 74
2, 30340, Note_on_c, 0, 69, 77
2, 30340, Note_on_c, 0, 77, 71
2, 30344, Note_on_c, 0, 62, 54
2, 30344, Note_on_c, 0, 56, 51
2, 30408, Note_on_c, 0, 62, 0
2, 30432, Note_on_c, 0, 56, 0
2, 30544, Note_on_c, 0, 69, 0
2, 30600, Note_on_c, 0, 74, 0
2, 30636, Note_on_c, 0, 77, 0
2, 30720, Note_on_c, 0, 40, 71
2, 30724, Note_on_c, 0, 76, 71
2, 30728, Note_on_c, 0, 71, 68
2, 30728, Note_on_c, 0, 67, 60
2, 30728, Control_c, 0, 64, 0
2, 30840, Control_c, 0, 64, 127
2, 30864, Note_on_c, 0, 76, 0
2, 30868, Note_on_c, 0, 71, 0
2, 30904, Note_on_c, 0, 67, 0
2, 30968, Note_on_c, 0, 47, 49
2, 30992, Note_on_c, 0, 40, 0
2, 31072, Note_on_c, 0, 47, 0
2, 31116, Note_on_c, 0, 52, 27
2, 31116, Note_on_c, 0, 64, 52
2, 31124, Note_on_c, 0, 59, 47
2, 31136, Note_on_c, 0, 52, 0
2, 31192, Note_on_c, 0, 59, 0
2, 31284, Note_on_c, 0, 64, 0
2, 31360, Note_on_c, 0, 52, 56
2, 31360, Note_on_c, 0, 59, 43
2, 31500, Note_on_c, 0, 67, 71
2, 31500, Note_on_c, 0, 63, 77
2, 31504, Note_on_c, 0, 64, 76
2, 31512, Control_c, 0, 64, 0
2, 31624, Control_c, 0, 64, 127
2, 31784, Note_on_c, 0, 63, 0
2, 31896, Note_on_c, 0, 63, 47
2, 31956, Note_on_c, 0, 59, 0
2, 31956, Note_on_c, 0, 64, 0
2, 31980, Note_on_c, 0, 67, 0
2, 32040, Note_on_c, 0, 67, 20
2, 32064, Note_on_c, 0, 67, 0
2, 32108, Note_on_c, 0, 63, 0
2, 32160, Note_on_c, 0, 59, 40
2, 32208, Note_on_c, 0, 52, 0
2, 32228, Note_on_c, 0, 59, 0
2, 32260, Note_on_c, 0, 67, 53
2, 32260, Note_on_c, 0, 64, 58
2, 32264, Note_on_c, 0, 71, 61
2, 32268, Note_on_c, 0, 59, 37
2, 32268, Note_on_c, 0, 62, 52
2, 32272, Control_c, 0, 64, 0
2, 32276, Note_on_c, 0, 52, 43
2, 32384, Control_c, 0, 64, 127
2, 32456, Note_on_c, 0, 59, 0
2, 32488, Note_on_c, 0, 62, 0
2, 32508, Note_on_c, 0, 64, 0
2, 32520, Note_on_c, 0, 67, 0
2, 32608, Note_on_c, 0, 71, 0
2, 32652, Note_on_c, 0, 59, 24
2, 32660, Note_on_c, 0, 67, 31
2, 32660, Note_on_c, 0, 62, 26
2, 32660, Note_on_c, 0, 64, 34
2, 32676, Note_on_c, 0, 59, 0
2, 32716, Note_on_c, 0, 52, 0
2, 32796, Note_on_c, 0, 64, 0
2, 32840, Note_on_c, 0, 62, 0
2, 32908, Note_on_c, 0, 67, 0
2, 33008, Control_c, 0, 64, 0
2, 33016, Note_on_c, 0, 61, 35
2, 33016, Note_on_c, 0, 63, 46
2, 33020, Note_on_c, 0, 71, 46
2, 33020, Note_on_c, 0, 67, 31
2, 33032, Note_on_c, 0, 55, 31
2, 33124, Control_c, 0, 64, 127
2, 33208, Note_on_c, 0, 55, 0
2, 33228, Note_on_c, 0, 67, 0
2, 33272, Note_on_c, 0, 63, 0
2, 33280, Note_on_c, 0, 61, 0
2, 33304, Note_on_c, 0, 71, 0
2, 33404, Note_on_c, 0, 61, 28
2, 33408, Note_on_c, 0, 55, 32
2, 33412, Note_on_c, 0, 63, 33
2, 33412, Note_on_c, 0, 67, 26
2, 33456, Note_on_c, 0, 55, 0
2, 33512, Note_on_c, 0, 67, 0
2, 33524, Note_on_c, 0, 63, 0
2, 33524, Note_on_c, 0, 61, 0
2, 33748, Note_on_c, 0, 57, 45
2, 33772, Note_on_c, 0, 57, 0
2, 33784, Note_on_c, 0, 64, 71
2, 33788, Note_on_c, 0, 67, 66
2, 33788, Note_on_c, 0, 60, 69
2, 33788, Note_on_c, 0, 59, 69
2, 33788, Note_on_c, 0, 71, 70
2, 33808, Control_c, 0, 64, 0
2, 33904, Note_on_c, 0, 60, 0
2, 33936, Note_on_c, 0, 64, 0
2, 33936, Note_on_c, 0, 67, 0
2, 33948, Note_on_c, 0, 71, 0
2, 33956, Note_on_c, 0, 58, 21
2, 33964, Note_on_c, 0, 59, 0
2, 34024, Note_on_c, 0, 58, 0
2, 34048, Note_on_c, 0, 57, 35
2, 34084, Control_c, 0, 64, 127
2, 34128, Note_on_c, 0, 57, 0
2, 34156, Note_on_c, 0, 56, 72
2, 34160, Control_c, 0, 64, 0
2, 34404, Note_on_c, 0, 56, 0
2, 34412, Note_on_c, 0, 59, 61
2, 34420, Note_on_c, 0, 71, 58
2, 34428, Note_on_c, 0, 60, 44
2, 34432, Note_on_c, 0, 64, 53
2, 34472, Control_c, 0, 64, 127
2, 34504, Note_on_c, 0, 60, 0
2, 34508, Note_on_c, 0, 64, 0
2, 34516, Note_on_c, 0, 59, 0
2, 34516, Control_c, 0, 64, 0
2, 34520, Note_on_c, 0, 71, 0
2, 34564, Note_on_c, 0, 60, 22
2, 34564, Note_on_c, 0, 64, 44
2, 34572, Note_on_c, 0, 69, 45
2, 34576, Note_on_c, 0, 57, 55
2, 34620, Control_c, 0, 64, 127
2, 34680, Note_on_c, 0, 64, 0
2, 34716, Note_on_c, 0, 60, 0
2, 34720, Note_on_c, 0, 57, 0
2, 34784, Note_on_c, 0, 69, 0
2, 34800, Note_on_c, 0, 64, 60
2, 34804, Note_on_c, 0, 60, 47
2, 34820, Note_on_c, 0, 52, 59
2, 34828, Control_c, 0, 64, 0
2, 34840, Note_on_c, 0, 52, 0
2, 34960, Note_on_c, 0, 51, 83
2, 34968, Note_on_c, 0, 39, 67
2, 35036, Control_c, 0, 64, 127
2, 35132, Note_on_c, 0, 51, 0
2, 35136, Note_on_c, 0, 39, 0
2, 35168, Note_on_c, 0, 60, 0
2, 35196, Note_on_c, 0, 64, 0
2, 35200, Control_c, 0, 64, 0
2, 35204, Note_on_c, 0, 50, 92
2, 35208, Note_on_c, 0, 38, 87
2, 35264, Note_on_c, 0, 38, 0
2, 35264, Control_c, 0, 64, 127
2, 35296, Note_on_c, 0, 50, 0
2, 35576, Note_on_c, 0, 68, 80
2, 35580, Note_on_c, 0, 64, 91
2, 35580, Note_on_c, 0, 71, 85
2, 35584, Note_on_c, 0, 60, 89
2, 35584, Note_on_c, 0, 54, 78
2, 35604, Control_c, 0, 64, 0
2, 35708, Control_c, 0, 64, 127
2, 35852, Note_on_c, 0, 54, 0
2, 35864, Note_on_c, 0, 60, 0
2, 35872, Note_on_c, 0, 64, 0
2, 35892, Note_on_c, 0, 71, 0
2, 35912, Note_on_c, 0, 68, 0
2, 36100, Control_c, 0, 64, 0
2, 36100, Note_on_c, 0, 44, 56
2, 36100, Note_on_c, 0, 65, 62
2, 36104, Note_on_c, 0, 54, 37
2, 36108, Note_on_c, 0, 72, 53
2, 36116, Note_on_c, 0, 60, 50
2, 36196, Note_on_c, 0, 44, 0
2, 36204, Control_c, 0, 64, 127
2, 36224, Note_on_c, 0, 54, 0
2, 36228, Note_on_c, 0, 60, 0
2, 36252, Note_on_c, 0, 65, 0
2, 36276, Note_on_c, 0, 72, 0
2, 36476, Control_c, 0, 64, 0
2, 36484, Note_on_c, 0, 73, 48
2, 36492, Note_on_c, 0, 61, 32
2, 36500, Note_on_c, 0, 66, 47
2, 36500, Note_on_c, 0, 70, 42
2, 36500, Note_on_c, 0, 54, 35
2, 36532, Note_on_c, 0, 54, 0
2, 36560, Control_c, 0, 64, 127
2, 36612, Note_on_c, 0, 61, 0
2, 36632, Note_on_c, 0, 66, 0
2, 36656, Note_on_c, 0, 70, 0
2, 36684, Note_on_c, 0, 73, 0
2, 36756, Note_on_c, 0, 43, 47
2, 36808, Note_on_c, 0, 50, 30
2, 36840, Control_c, 0, 64, 0
2, 36852, Note_on_c, 0, 43, 0
2, 36860, Note_on_c, 0, 59, 51
2, 36868, Note_on_c, 0, 66, 45
2, 36872, Note_on_c, 0, 69, 66
2, 36876, Note_on_c, 0, 74, 41
2, 36880, Note_on_c, 0, 71, 46
2, 36932, Control_c, 0, 64, 127
2, 36936, Note_on_c, 0, 50, 0
2, 36948, Note_on_c, 0, 66, 0
2, 36952, Note_on_c, 0, 69, 0
2, 36956, Note_on_c, 0, 71, 0
2, 36976, Note_on_c, 0, 59, 0
2, 36984, Note_on_c, 0, 74, 0
2, 37236, Note_on_c, 0, 86, 83
2, 37240, Note_on_c, 0, 83, 79
2, 37240, Note_on_c, 0, 79, 80
2, 37240, Note_on_c, 0, 62, 60
2, 37244, Note_on_c, 0, 74, 82
2, 37244, Note_on_c, 0, 59, 55
2, 37256, Control_c, 0, 64, 0
2, 37300, Note_on_c, 0, 62, 0
2, 37320, Note_on_c, 0, 59, 0
2, 37352, Note_on_c, 0, 83, 0
2, 37356, Note_on_c, 0, 74, 0
2, 37356, Note_on_c, 0, 79, 0
2, 37364, Note_on_c, 0, 86, 0
2, 37612, Note_on_c, 0, 80, 45
2, 37620, Note_on_c, 0, 50, 44
2, 37620, Note_on_c, 0, 74, 42
2, 37624, Note_on_c, 0, 84, 53
2, 37668, Note_on_c, 0, 81, 30
2, 37672, Note_on_c, 0, 80, 0
2, 37724, Note_on_c, 0, 50, 0
2, 37756, Note_on_c, 0, 84, 0
2, 37804, Note_on_c, 0, 81, 0
2, 37824, Note_on_c, 0, 74, 0
2, 37860, Control_c, 0, 64, 127
2, 37972, Control_c, 0, 64, 0
2, 37988, Note_on_c, 0, 44, 35
2, 38000, Note_on_c, 0, 74, 40
2, 38008, Note_on_c, 0, 79, 40
2, 38008, Note_on_c, 0, 83, 40
2, 38084, Note_on_c, 0, 44, 0
2, 38120, Note_on_c, 0, 74, 0
2, 38128, Note_on_c, 0, 79, 0
2, 38132, Control_c, 0, 64, 127
2, 38136, Note_on_c, 0, 83, 0
2, 38396, Note_on_c, 0, 50, 74
2, 38404, Control_c, 0, 64, 0
2, 38404, Note_on_c, 0, 86, 80
2, 38408, Note_on_c, 0, 79, 74
2, 38412, Note_on_c, 0, 74, 65
2, 38416, Note_on_c, 0, 58, 50
2, 38548, Control_c, 0, 64, 127
2, 38708, Note_on_c, 0, 58, 0
2, 38748, Note_on_c, 0, 50, 0
2, 38792, Control_c, 0, 64, 0
2, 38804, Note_on_c, 0, 58, 29
2, 38808, Note_on_c, 0, 51, 50
2, 38900, Control_c, 0, 64, 127
2, 38988, Note_on_c, 0, 79, 0
2, 39000, Note_on_c, 0, 74, 0
2, 39032, Note_on_c, 0, 58, 0
2, 39088, Note_on_c, 0, 86, 0
2, 39140, Note_on_c, 0, 51, 0
2, 39148, Control_c, 0, 64, 0
2, 39168, Note_on_c, 0, 79, 37
2, 39168, Note_on_c, 0, 58, 28
2, 39176, Note_on_c, 0, 52, 48
2, 39180, Note_on_c, 0, 74, 32
2, 39228, Note_on_c, 0, 79, 0
2, 39252, Note_on_c, 0, 74, 0
2, 39260, Control_c, 0, 64, 127
2, 39520, Control_c, 0, 64, 0
2, 39528, Note_on_c, 0, 64, 66
2, 39536, Note_on_c, 0, 70, 49
2, 39540, Note_on_c, 0, 52, 0
2, 39544, Note_on_c, 0, 58, 0
2, 39548, Note_on_c, 0, 68, 37
2, 39564, Note_on_c, 0, 74, 18
2, 39568, Note_on_c, 0, 48, 20
2, 39588, Control_c, 0, 64, 127
2, 39592, Note_on_c, 0, 48, 0
2, 39608, Note_on_c, 0, 74, 0
2, 39636, Note_on_c, 0, 70, 0
2, 39644, Note_on_c, 0, 68, 0
2, 39684, Note_on_c, 0, 64, 0
2, 39812, Note_on_c, 0, 44, 46
2, 39820, Note_on_c, 0, 42, 25
2, 39884, Note_on_c, 0, 45, 44
2, 39896, Note_on_c, 0, 44, 0
2, 39904, Note_on_c, 0, 42, 0
2, 39908, Note_on_c, 0, 61, 46
2, 39912, Note_on_c, 0, 45, 0
2, 39912, Note_on_c, 0, 47, 69
2, 39920, Note_on_c, 0, 62, 76
2, 39948, Control_c, 0, 64, 0
2, 40012, Note_on_c, 0, 61, 0
2, 40144, Control_c, 0, 64, 127
2, 40200, Note_on_c, 0, 47, 0
2, 40200, Note_on_c, 0, 42, 26
2, 40240, Note_on_c, 0, 44, 19
2, 40284, Note_on_c, 0, 62, 0
2, 40288, Note_on_c, 0, 44, 0
2, 40296, Note_on_c, 0, 45, 38
2, 40304, Note_on_c, 0, 60, 54
2, 40308, Note_on_c, 0, 42, 0
2, 40316, Control_c, 0, 64, 0
2, 40532, Control_c, 0, 64, 127
2, 40584, Note_on_c, 0, 45, 0
2, 40596, Note_on_c, 0, 42, 32
2, 40620, Note_on_c, 0, 60, 0
2, 40624, Note_on_c, 0, 39, 15
2, 40680, Note_on_c, 0, 39, 0
2, 40688, Note_on_c, 0, 42, 0
2, 40692, Note_on_c, 0, 43, 36
2, 40692, Control_c, 0, 64, 0
2, 40696, Note_on_c, 0, 59, 38
2, 40796, Control_c, 0, 64, 127
2, 40988, Note_on_c, 0, 59, 0
2, 41048, Note_on_c, 0, 43, 0
2, 41084, Note_on_c, 0, 52, 68
2, 41092, Control_c, 0, 64, 0
2, 41100, Note_on_c, 0, 36, 53
2, 41208, Control_c, 0, 64, 127
2, 41340, Note_on_c, 0, 52, 0
2, 41424, Control_c, 0, 64, 0
2, 41444, Note_on_c, 0, 36, 0
2, 41464, Note_on_c, 0, 35, 54
2, 41488, Control_c, 0, 64, 127
2, 41516, Note_on_c, 0, 35, 0
2, 41720, Note_on_c, 0, 62, 63
2, 41724, Note_on_c, 0, 57, 64
2, 41724, Note_on_c, 0, 66, 57
2, 41744, Note_on_c, 0, 57, 0
2, 41772, Note_on_c, 0, 62, 0
2, 41772, Control_c, 0, 64, 0
2, 41792, Note_on_c, 0, 66, 0
2, 41892, Note_on_c, 0, 69, 42
2, 41916, Note_on_c, 0, 69, 0
2, 41928, Control_c, 0, 64, 127
2, 41992, Note_on_c, 0, 74, 78
2, 42052, Note_on_c, 0, 74, 0
2, 42104, Note_on_c, 0, 78, 78
2, 42176, Note_on_c, 0, 78, 0
2, 42212, Control_c, 0, 64, 0
2, 42212, Note_on_c, 0, 56, 39
2, 42216, Note_on_c, 0, 67, 45
2, 42216, Note_on_c, 0, 62, 39
2, 42228, Note_on_c, 0, 79, 80
2, 42228, Note_on_c, 0, 72, 80
2, 42256, Note_on_c, 0, 67, 0
2, 42296, Note_on_c, 0, 62, 0
2, 42308, Control_c, 0, 64, 127
2, 42336, Note_on_c, 0, 56, 0
2, 42392, Note_on_c, 0, 72, 0
2, 42448, Note_on_c, 0, 79, 0
2, 42476, Note_on_c, 0, 76, 55
2, 42484, Note_on_c, 0, 72, 45
2, 42492, Note_on_c, 0, 67, 42
2, 42588, Control_c, 0, 64, 0
2, 42600, Note_on_c, 0, 46, 45
2, 42604, Note_on_c, 0, 56, 31
2, 42608, Note_on_c, 0, 67, 0
2, 42632, Note_on_c, 0, 72, 0
2, 42660, Note_on_c, 0, 76, 0
2, 42776, Control_c, 0, 64, 127
2, 42824, Note_on_c, 0, 56, 0
2, 42864, Note_on_c, 0, 52, 48
2, 42888, Note_on_c, 0, 46, 0
2, 42932, Note_on_c, 0, 52, 0
2, 42980, Note_on_c, 0, 45, 49
2, 42984, Control_c, 0, 64, 0
2, 42984, Note_on_c, 0, 55, 40
2, 42992, Note_on_c, 0, 73, 63
2, 43004, Note_on_c, 0, 80, 27
2, 43016, Note_on_c, 0, 86, 36
2, 43024, Note_on_c, 0, 45, 0
2, 43028, Note_on_c, 0, 84, 26
2, 43064, Note_on_c, 0, 84, 0
2, 43064, Note_on_c, 0, 55, 0
2, 43064, Note_on_c, 0, 73, 0
2, 43068, Note_on_c, 0, 74, 62
2, 43076, Note_on_c, 0, 86, 0
2, 43080, Note_on_c, 0, 80, 0
2, 43148, Note_on_c, 0, 74, 0
2, 43152, Note_on_c, 0, 86, 52
2, 43224, Note_on_c, 0, 74, 57
2, 43228, Control_c, 0, 64, 127
2, 43236, Note_on_c, 0, 86, 0
2, 43300, Note_on_c, 0, 74, 0
2, 43336, Control_c, 0, 64, 0
2, 43352, Note_on_c, 0, 84, 64
2, 43352, Note_on_c, 0, 57, 36
2, 43352, Note_on_c, 0, 64, 39
2, 43360, Note_on_c, 0, 60, 31
2, 43368, Note_on_c, 0, 72, 45
2, 43400, Note_on_c, 0, 84, 0
2, 43424, Note_on_c, 0, 72, 0
2, 43568, Note_on_c, 0, 64, 0
2, 43580, Control_c, 0, 64, 127
2, 43624, Note_on_c, 0, 60, 0
2, 43648, Note_on_c, 0, 57, 0
2, 43684, Control_c, 0, 64, 0
2, 43716, Note_on_c, 0, 64, 30
2, 43724, Note_on_c, 0, 81, 48
2, 43732, Note_on_c, 0, 69, 39
2, 43732, Note_on_c, 0, 55, 25
2, 43740, Note_on_c, 0, 60, 16
2, 43748, Note_on_c, 0, 81, 0
2, 43752, Note_on_c, 0, 64, 0
2, 43768, Note_on_c, 0, 60, 0
2, 43788, Control_c, 0, 64, 127
2, 43792, Note_on_c, 0, 69, 0
2, 43796, Note_on_c, 0, 55, 0
2, 44100, Control_c, 0, 64, 0
2, 44112, Note_on_c, 0, 67, 52
2, 44116, Note_on_c, 0, 69, 58
2, 44116, Note_on_c, 0, 74, 55
2, 44160, Note_on_c, 0, 64, 47
2, 44160, Note_on_c, 0, 62, 28
2, 44188, Note_on_c, 0, 67, 0
2, 44200, Note_on_c, 0, 74, 0
2, 44208, Note_on_c, 0, 69, 0
2, 44288, Note_on_c, 0, 62, 0
2, 44288, Note_on_c, 0, 64, 0
2, 44412, Control_c, 0, 64, 127
2, 44416, Note_on_c, 0, 50, 52
2, 44472, Control_c, 0, 64, 0
2, 44544, Note_on_c, 0, 50, 0
2, 44544, Note_on_c, 0, 74, 44
2, 44544, Note_on_c, 0, 64, 44
2, 44544, Note_on_c, 0, 67, 46
2, 44544, Note_on_c, 0, 62, 42
2, 44544, Note_on_c, 0, 69, 49
2, 44672, Note_on_c, 0, 69, 0
2, 44672, Note_on_c, 0, 67, 0
2, 44672, Note_on_c, 0, 74, 0
2, 44672, Note_on_c, 0, 64, 0
2, 44672, Note_on_c, 0, 62, 0
2, 44800, Note_on_c, 0, 50, 43
2, 44928, Note_on_c, 0, 50, 0
2, 44928, Note_on_c, 0, 67, 62
2, 44928, Note_on_c, 0, 74, 64
2, 44928, Note_on_c, 0, 64, 59
2, 44928, Note_on_c, 0, 69, 60
2, 44928, Note_on_c, 0, 62, 50
2, 45056, Note_on_c, 0, 62, 0
2, 45056, Note_on_c, 0, 64, 0
2, 45056, Note_on_c, 0, 67, 0
2, 45056, Note_on_c, 0, 74, 0
2, 45056, Note_on_c, 0, 69, 0
2, 45184, Note_on_c, 0, 50, 47
2, 45312, Note_on_c, 0, 50, 0
2, 45312, Note_on_c, 0, 74, 75
2, 45312, Note_on_c, 0, 64, 65
2, 45312, Note_on_c, 0, 66, 59
2, 45312, Note_on_c, 0, 68, 63
2, 45312, Note_on_c, 0, 62, 60
2, 45440, Note_on_c, 0, 62, 0
2, 45440, Note_on_c, 0, 66, 0
2, 45440, Note_on_c, 0, 74, 0
2, 45440, Note_on_c, 0, 64, 0
2, 45440, Note_on_c, 0, 68, 0
2, 45568, Note_on_c, 0, 50, 37
2, 45696, Note_on_c, 0, 50, 0
2, 45696, Note_on_c, 0, 66, 56
2, 45696, Note_on_c, 0, 74, 68
2, 45696, Note_on_c, 0, 62, 42
2, 45696, Note_on_c, 0, 68, 56
2, 45696, Note_on_c, 0, 64, 58
2, 45756, Control_c, 0, 64, 127
2, 45824, Note_on_c, 0, 64, 0
2, 45824, Note_on_c, 0, 62, 0
2, 45824, Note_on_c, 0, 66, 0
2, 45824, Note_on_c, 0, 74, 0
2, 45824, Note_on_c, 0, 68, 0
2, 45952, Note_on_c, 0, 74, 85
2, 45952, Note_on_c, 0, 67, 80
2, 45952, Note_on_c, 0, 64, 83
2, 45952, Note_on_c, 0, 69, 78
2, 45952, Note_on_c, 0, 62, 74
2, 45968, Control_c, 0, 64, 0
2, 46068, Control_c, 0, 64, 127
2, 46080, Note_on_c, 0, 62, 0
2, 46336, Note_on_c, 0, 50, 70
2, 46336, Note_on_c, 0, 38, 66
2, 46464, Note_on_c, 0, 38, 0
2, 46464, Note_on_c, 0, 74, 0
2, 46464, Note_on_c, 0, 50, 0
2, 46464, Note_on_c, 0, 50, 50
2, 46464, Note_on_c, 0, 38, 46
2, 46592, Note_on_c, 0, 38, 0
2, 46592, Note_on_c, 0, 67, 0
2, 46592, Note_on_c, 0, 64, 0
2, 46592, Note_on_c, 0, 69, 0
2, 46592, Note_on_c, 0, 50, 0
2, 46720, Note_on_c, 0, 50, 91
2, 46720, Note_on_c, 0, 38, 90
2, 46848, Note_on_c, 0, 38, 0
2, 46848, Note_on_c, 0, 50, 0
2, 47104, Note_on_c, 0, 50, 72
2, 47104, Note_on_c, 0, 38, 55
2, 47232, Note_on_c, 0, 38, 0
2, 47232, Note_on_c, 0, 50, 0
2, 47232, Note_on_c, 0, 50, 71
2, 47232, Note_on_c, 0, 38, 62
2, 47360, Note_on_c, 0, 38, 0
2, 47360, Note_on_c, 0, 50, 0
2, 47488, Note_on_c, 0, 50, 92
2, 47488, Note_on_c, 0, 38, 82
2, 47516, Control_c, 0, 64, 0
2, 47556, Control_c, 0, 64, 127
2, 47616, Note_on_c, 0, 38, 0
2, 47616, Note_on_c, 0, 50, 0
2, 47628, Note_on_c, 0, 56, 87
2, 47632, Note_on_c, 0, 63, 85
2, 47632, Note_on_c, 0, 60, 89
2, 47632, Note_on_c, 0, 50, 84
2, 47636, Control_c, 0, 64, 0
2, 47640, Note_on_c, 0, 38, 82
2, 47732, Control_c, 0, 64, 127
2, 48152, Note_on_c, 0, 56, 0
2, 48188, Note_on_c, 0, 60, 0
2, 48272, Note_on_c, 0, 63, 0
2, 48280, Note_on_c, 0, 38, 0
2, 48324, Note_on_c, 0, 50, 0
2, 48540, Note_on_c, 0, 83, 76
2, 48612, Note_on_c, 0, 83, 0
2, 48648, Note_on_c, 0, 84, 58
2, 48716, Note_on_c, 0, 84, 0
2, 48768, Note_on_c, 0, 85, 60
2, 48840, Note_on_c, 0, 85, 0
2, 48884, Note_on_c, 0, 86, 75
2, 48948, Note_on_c, 0, 86, 0
2, 49164, Control_c, 0, 64, 0
2, 49164, Note_on_c, 0, 79, 74
2, 49172, Note_on_c, 0, 43, 50
2, 49188, Note_on_c, 0, 50, 35
2, 49220, Note_on_c, 0, 79, 0
2, 49240, Note_on_c, 0, 43, 0
2, 49252, Note_on_c, 0, 50, 0
2, 49284, Note_on_c, 0, 81, 49
2, 49336, Note_on_c, 0, 81, 0
2, 49404, Note_on_c, 0, 82, 47
2, 49468, Note_on_c, 0, 82, 0
2, 49484, Control_c, 0, 64, 127
2, 49528, Note_on_c, 0, 83, 65
2, 49536, Note_on_c, 0, 62, 39
2, 49544, Control_c, 0, 64, 0
2, 49560, Note_on_c, 0, 62, 0
2, 49584, Note_on_c, 0, 83, 0
2, 49648, Note_on_c, 0, 74, 44
2, 49696, Note_on_c, 0, 74, 0
2, 49760, Note_on_c, 0, 75, 61
2, 49832, Note_on_c, 0, 75, 0
2, 49880, Note_on_c, 0, 49, 31
2, 49884, Note_on_c, 0, 76, 60
2, 49896, Note_on_c, 0, 50, 38
2, 49940, Note_on_c, 0, 49, 0
2, 49944, Note_on_c, 0, 50, 0
2, 49976, Note_on_c, 0, 76, 0
2, 50008, Note_on_c, 0, 77, 50
2, 50068, Note_on_c, 0, 77, 0
2, 50132, Note_on_c, 0, 71, 50
2, 50160, Control_c, 0, 64, 127
2, 50196, Note_on_c, 0, 71, 0
2, 50220, Control_c, 0, 64, 0
2, 50240, Note_on_c, 0, 72, 58
2, 50252, Note_on_c, 0, 49, 25
2, 50264, Note_on_c, 0, 59, 17
2, 50296, Note_on_c, 0, 72, 0
2, 50344, Note_on_c, 0, 59, 0
2, 50352, Note_on_c, 0, 73, 64
2, 50452, Note_on_c, 0, 73, 0
2, 50456, Note_on_c, 0, 49, 0
2, 50484, Note_on_c, 0, 74, 80
2, 50524, Control_c, 0, 64, 127
2, 50580, Note_on_c, 0, 74, 0
2, 50600, Control_c, 0, 64, 0
2, 50624, Note_on_c, 0, 58, 33
2, 50628, Note_on_c, 0, 50, 40
2, 50652, Note_on_c, 0, 70, 54
2, 50676, Note_on_c, 0, 70, 0
2, 50708, Note_on_c, 0, 72, 64
2, 50768, Note_on_c, 0, 70, 59
2, 50772, Note_on_c, 0, 72, 0
2, 50784, Note_on_c, 0, 58, 0
2, 50852, Note_on_c, 0, 70, 0
2, 50852, Note_on_c, 0, 67, 36
2, 50896, Control_c, 0, 64, 127
2, 50912, Note_on_c, 0, 67, 0
2, 50952, Note_on_c, 0, 50, 0
2, 50952, Note_on_c, 0, 66, 57
2, 50968, Control_c, 0, 64, 0
2, 50972, Note_on_c, 0, 58, 33
2, 50984, Note_on_c, 0, 51, 34
2, 51056, Note_on_c, 0, 66, 0
2, 51076, Note_on_c, 0, 69, 60
2, 51160, Note_on_c, 0, 69, 0
2, 51196, Note_on_c, 0, 66, 48
2, 51260, Note_on_c, 0, 66, 0
2, 51288, Note_on_c, 0, 58, 0
2, 51296, Note_on_c, 0, 67, 76
2, 51380, Note_on_c, 0, 67, 0
2, 51380, Note_on_c, 0, 51, 0
2, 51396, Note_on_c, 0, 58, 32
2, 51416, Note_on_c, 0, 64, 39
2, 51420, Note_on_c, 0, 52, 37
2, 51712, Control_c, 0, 64, 127
2, 51768, Control_c, 0, 64, 0
2, 51792, Note_on_c, 0, 52, 0
2, 51796, Note_on_c, 0, 48, 48
2, 51808, Note_on_c, 0, 58, 0
2, 51860, Note_on_c, 0, 48, 0
2, 51860, Note_on_c, 0, 64, 0
2, 51932, Note_on_c, 0, 61, 35
2, 52044, Control_c, 0, 64, 127
2, 52044, Note_on_c, 0, 57, 58
2, 52056, Note_on_c, 0, 50, 53
2, 52072, Note_on_c, 0, 61, 0
2, 52088, Note_on_c, 0, 50, 0
2, 52120, Note_on_c, 0, 57, 0
2, 52184, Note_on_c, 0, 58, 57
2, 52192, Note_on_c, 0, 43, 38
2, 52200, Control_c, 0, 64, 0
2, 52312, Note_on_c, 0, 58, 0
2, 52320, Note_on_c, 0, 59, 41
2, 52400, Note_on_c, 0, 59, 0
2, 52452, Note_on_c, 0, 60, 44
2, 52516, Control_c, 0, 64, 127
2, 52540, Note_on_c, 0, 60, 0
2, 52576, Control_c, 0, 64, 0
2, 52596, Note_on_c, 0, 55, 25
2, 52636, Note_on_c, 0, 55, 0
2, 52724, Note_on_c, 0, 59, 36
2, 52796, Note_on_c, 0, 59, 0
2, 52840, Note_on_c, 0, 60, 49
2, 52880, Control_c, 0, 64, 127
2, 52900, Note_on_c, 0, 43, 0
2, 52908, Control_c, 0, 64, 0
2, 52928, Note_on_c, 0, 60, 0
2, 52964, Note_on_c, 0, 58, 49
2, 52972, Note_on_c, 0, 55, 50
2, 52972, Note_on_c, 0, 48, 56
2, 52976, Note_on_c, 0, 62, 49
2, 52996, Note_on_c, 0, 55, 0
2, 53036, Note_on_c, 0, 58, 0
2, 53052, Note_on_c, 0, 62, 0
2, 53064, Control_c, 0, 64, 127
2, 53228, Note_on_c, 0, 62, 54
2, 53236, Note_on_c, 0, 36, 62
2, 53264, Note_on_c, 0, 36, 0
2, 53276, Note_on_c, 0, 62, 0
2, 53284, Control_c, 0, 64, 0
2, 53304, Note_on_c, 0, 48, 0
2, 53324, Control_c, 0, 64, 127
2, 53364, Note_on_c, 0, 67, 40
2, 53392, Note_on_c, 0, 67, 0
2, 53488, Note_on_c, 0, 70, 46
2, 53552, Note_on_c, 0, 70, 0
2, 53608, Note_on_c, 0, 74, 80
2, 53696, Control_c, 0, 64, 0
2, 53712, Note_on_c, 0, 74, 0
2, 53724, Note_on_c, 0, 62, 44
2, 53736, Note_on_c, 0, 47, 35
2, 53736, Note_on_c, 0, 57, 33
2, 53784, Note_on_c, 0, 62, 0
2, 53860, Note_on_c, 0, 69, 52
2, 53884, Control_c, 0, 64, 127
2, 53936, Note_on_c, 0, 69, 0
2, 53948, Note_on_c, 0, 57, 0
2, 53976, Note_on_c, 0, 74, 69
2, 54020, Note_on_c, 0, 74, 0
2, 54112, Note_on_c, 0, 74, 56
2, 54116, Note_on_c, 0, 57, 43
2, 54140, Note_on_c, 0, 47, 0
2, 54144, Note_on_c, 0, 74, 0
2, 54168, Note_on_c, 0, 57, 0
2, 54216, Note_on_c, 0, 79, 60
2, 54268, Note_on_c, 0, 79, 0
2, 54348, Note_on_c, 0, 83, 70
2, 54416, Note_on_c, 0, 83, 0
2, 54492, Note_on_c, 0, 67, 54
2, 54496, Note_on_c, 0, 91, 81
2, 54496, Note_on_c, 0, 56, 50
2, 54500, Control_c, 0, 64, 0
2, 54500, Note_on_c, 0, 84, 77
2, 54500, Note_on_c, 0, 62, 44
2, 54584, Note_on_c, 0, 67, 0
2, 54592, Note_on_c, 0, 84, 0
2, 54592, Note_on_c, 0, 62, 0
2, 54600, Note_on_c, 0, 91, 0
2, 54608, Note_on_c, 0, 79, 47
2, 54636, Note_on_c, 0, 56, 0
2, 54640, Note_on_c, 0, 79, 0
2, 54652, Control_c, 0, 64, 127
2, 54704, Control_c, 0, 64, 0
2, 54740, Note_on_c, 0, 84, 88
2, 54740, Note_on_c, 0, 91, 78
2, 54744, Note_on_c, 0, 56, 55
2, 54744, Note_on_c, 0, 67, 58
2, 54752, Note_on_c, 0, 62, 49
2, 54808, Control_c, 0, 64, 127
2, 54852, Note_on_c, 0, 62, 0
2, 54852, Note_on_c, 0, 91, 0
2, 54860, Note_on_c, 0, 67, 0
2, 54884, Note_on_c, 0, 88, 38
2, 54896, Note_on_c, 0, 56, 0
2, 54896, Note_on_c, 0, 84, 0
2, 54948, Note_on_c, 0, 88, 0
2, 55012, Note_on_c, 0, 56, 49
2, 55012, Note_on_c, 0, 67, 48
2, 55016, Note_on_c, 0, 62, 49
2, 55016, Note_on_c, 0, 84, 79
2, 55020, Note_on_c, 0, 88, 33
2, 55088, Note_on_c, 0, 88, 0
2, 55092, Note_on_c, 0, 67, 0
2, 55112, Note_on_c, 0, 84, 0
2, 55112, Note_on_c, 0, 62, 0
2, 55132, Note_on_c, 0, 79, 49
2, 55164, Note_on_c, 0, 79, 0
2, 55208, Note_on_c, 0, 56, 0
2, 55264, Note_on_c, 0, 86, 71
2, 55272, Note_on_c, 0, 64, 49
2, 55272, Note_on_c, 0, 74, 60
2, 55284, Note_on_c, 0, 60, 39
2, 55288, Note_on_c, 0, 59, 38
2, 55288, Control_c, 0, 64, 0
2, 55292, Note_on_c, 0, 55, 26
2, 55316, Note_on_c, 0, 60, 0
2, 55320, Note_on_c, 0, 59, 0
2, 55328, Note_on_c, 0, 74, 0
2, 55336, Note_on_c, 0, 86, 0
2, 55344, Note_on_c, 0, 64, 0
2, 55400, Note_on_c, 0, 86, 54
2, 55404, Note_on_c, 0, 74, 46
2, 55412, Note_on_c, 0, 55, 0
2, 55444, Note_on_c, 0, 86, 0
2, 55448, Note_on_c, 0, 74, 0
2, 55532, Note_on_c, 0, 71, 70
2, 55532, Note_on_c, 0, 83, 62
2, 55588, Control_c, 0, 64, 127
2, 55592, Note_on_c, 0, 83, 0
2, 55596, Note_on_c, 0, 71, 0
2, 55612, Control_c, 0, 64, 0
2, 55644, Note_on_c, 0, 83, 62
2, 55648, Note_on_c, 0, 71, 68
2, 55664, Note_on_c, 0, 45, 41
2, 55696, Note_on_c, 0, 45, 0
2, 55700, Note_on_c, 0, 71, 0
2, 55700, Note_on_c, 0, 83, 0
2, 55788, Note_on_c, 0, 67, 34
2, 55796, Note_on_c, 0, 79, 30
2, 55828, Note_on_c, 0, 79, 0
2, 55828, Note_on_c, 0, 67, 0
2, 55900, Note_on_c, 0, 79, 58
2, 55908, Note_on_c, 0, 67, 44
2, 55960, Note_on_c, 0, 67, 0
2, 55968, Control_c, 0, 64, 127
2, 55988, Note_on_c, 0, 79, 0
2, 56028, Note_on_c, 0, 64, 54
2, 56032, Note_on_c, 0, 76, 62
2, 56040, Control_c, 0, 64, 0
2, 56040, Note_on_c, 0, 60, 35
2, 56084, Note_on_c, 0, 64, 0
2, 56088, Note_on_c, 0, 76, 0
2, 56100, Note_on_c, 0, 60, 0
2, 56152, Note_on_c, 0, 76, 39
2, 56200, Note_on_c, 0, 76, 0
2, 56276, Note_on_c, 0, 71, 58
2, 56328, Note_on_c, 0, 71, 0
2, 56360, Control_c, 0, 64, 127
2, 56388, Note_on_c, 0, 71, 63
2, 56464, Note_on_c, 0, 71, 0
2, 56476, Control_c, 0, 64, 0
2, 56500, Note_on_c, 0, 61, 43
2, 56504, Note_on_c, 0, 74, 76
2, 56508, Note_on_c, 0, 51, 38
2, 56568, Note_on_c, 0, 74, 0
2, 56624, Note_on_c, 0, 74, 58
2, 56692, Note_on_c, 0, 61, 0
2, 56708, Control_c, 0, 64, 127
2, 56720, Note_on_c, 0, 74, 0
2, 56724, Note_on_c, 0, 51, 0
2, 56740, Note_on_c, 0, 69, 62
2, 56780, Note_on_c, 0, 60, 27
2, 56788, Control_c, 0, 64, 0
2, 56792, Note_on_c, 0, 54, 32
2, 56800, Note_on_c, 0, 69, 0
2, 56800, Note_on_c, 0, 50, 24
2, 56832, Note_on_c, 0, 50, 0
2, 56832, Note_on_c, 0, 60, 0
2, 56872, Note_on_c, 0, 69, 47
2, 56880, Note_on_c, 0, 54, 0
2, 56940, Note_on_c, 0, 69, 0
2, 57000, Note_on_c, 0, 72, 71
2, 57056, Note_on_c, 0, 72, 0
2, 57124, Note_on_c, 0, 68, 71
2, 57128, Control_c, 0, 64, 127
2, 57180, Note_on_c, 0, 68, 0
2, 57188, Note_on_c, 0, 54, 37
2, 57212, Control_c, 0, 64, 0
2, 57232, Note_on_c, 0, 68, 52
2, 57264, Note_on_c, 0, 54, 0
2, 57316, Note_on_c, 0, 68, 0
2, 57352, Note_on_c, 0, 71, 62
2, 57404, Note_on_c, 0, 71, 0
2, 57476, Note_on_c, 0, 67, 59
2, 57516, Control_c, 0, 64, 127
2, 57548, Note_on_c, 0, 67, 0
2, 57576, Control_c, 0, 64, 0
2, 57592, Note_on_c, 0, 45, 34
2, 57604, Note_on_c, 0, 54, 23
2, 57620, Note_on_c, 0, 67, 49
2, 57692, Note_on_c, 0, 67, 0
2, 57736, Note_on_c, 0, 70, 60
2, 57752, Note_on_c, 0, 45, 0
2, 57820, Note_on_c, 0, 70, 0
2, 57852, Control_c, 0, 64, 127
2, 57860, Note_on_c, 0, 66, 53
2, 57868, Note_on_c, 0, 54, 0
2, 57948, Note_on_c, 0, 66, 0
2, 57984, Note_on_c, 0, 54, 31
2, 57984, Control_c, 0, 64, 0
2, 57996, Note_on_c, 0, 69, 53
2, 58000, Note_on_c, 0, 44, 35
2, 58076, Note_on_c, 0, 69, 0
2, 58120, Note_on_c, 0, 66, 31
2, 58168, Control_c, 0, 64, 127
2, 58200, Note_on_c, 0, 66, 0
2, 58236, Note_on_c, 0, 54, 0
2, 58240, Note_on_c, 0, 67, 53
2, 58272, Note_on_c, 0, 44, 0
2, 58336, Note_on_c, 0, 67, 0
2, 58360, Control_c, 0, 64, 0
2, 58368, Note_on_c, 0, 62, 24
2, 58404, Note_on_c, 0, 67, 11
2, 58552, Note_on_c, 0, 62, 0
2, 58572, Control_c, 0, 64, 127
2, 58576, Note_on_c, 0, 67, 0
2, 58612, Note_on_c, 0, 47, 60
2, 58728, Control_c, 0, 64, 0
2, 58744, Note_on_c, 0, 57, 55
2, 58760, Note_on_c, 0, 47, 0
2, 58768, Note_on_c, 0, 57, 0
2, 58796, Note_on_c, 0, 62, 51
2, 58824, Note_on_c, 0, 62, 0
2, 58872, Control_c, 0, 64, 127
2, 58888, Note_on_c, 0, 67, 58
2, 58952, Note_on_c, 0, 67, 0
2, 58992, Note_on_c, 0, 71, 68
2, 59040, Note_on_c, 0, 71, 0
2, 59092, Note_on_c, 0, 76, 80
2, 59148, Note_on_c, 0, 76, 0
2, 59184, Note_on_c, 0, 79, 82
2, 59184, Control_c, 0, 64, 0
2, 59192, Note_on_c, 0, 67, 64
2, 59192, Note_on_c, 0, 56, 48
2, 59200, Note_on_c, 0, 72, 66
2, 59200, Note_on_c, 0, 62, 49
2, 59204, Note_on_c, 0, 74, 59
2, 59220, Note_on_c, 0, 74, 0
2, 59244, Note_on_c, 0, 67, 0
2, 59280, Note_on_c, 0, 62, 0
2, 59332, Note_on_c, 0, 72, 0
2, 59332, Note_on_c, 0, 56, 0
2, 59336, Control_c, 0, 64, 127
2, 59360, Note_on_c, 0, 79, 0
2, 59372, Note_on_c, 0, 76, 54
2, 59384, Note_on_c, 0, 72, 42
2, 59384, Note_on_c, 0, 67, 36
2, 59492, Note_on_c, 0, 76, 0
2, 59504, Note_on_c, 0, 72, 0
2, 59528, Note_on_c, 0, 67, 0
2, 59532, Control_c, 0, 64, 0
2, 59552, Note_on_c, 0, 56, 35
2, 59556, Note_on_c, 0, 46, 36
2, 59624, Control_c, 0, 64, 127
2, 59768, Note_on_c, 0, 56, 0
2, 59784, Note_on_c, 0, 46, 0
2, 59792, Note_on_c, 0, 69, 51
2, 59796, Note_on_c, 0, 61, 32
2, 59796, Note_on_c, 0, 65, 53
2, 59836, Note_on_c, 0, 65, 0
2, 59844, Control_c, 0, 64, 0
2, 59852, Note_on_c, 0, 61, 0
2, 59868, Note_on_c, 0, 69, 0
2, 59892, Note_on_c, 0, 45, 42
2, 59924, Note_on_c, 0, 45, 0
2, 59944, Control_c, 0, 64, 127
2, 60168, Note_on_c, 0, 84, 85
2, 60244, Note_on_c, 0, 84, 0
2, 60248, Note_on_c, 0, 55, 48
2, 60260, Note_on_c, 0, 65, 28
2, 60264, Note_on_c, 0, 79, 40
2, 60268, Note_on_c, 0, 61, 33
2, 60272, Control_c, 0, 64, 0
2, 60288, Note_on_c, 0, 65, 0
2, 60332, Note_on_c, 0, 55, 0
2, 60336, Note_on_c, 0, 79, 0
2, 60336, Note_on_c, 0, 80, 51
2, 60376, Note_on_c, 0, 61, 0
2, 60428, Note_on_c, 0, 81, 25
2, 60452, Note_on_c, 0, 81, 0
2, 60452, Note_on_c, 0, 80, 0
2, 60496, Note_on_c, 0, 84, 73
2, 60512, Note_on_c, 0, 72, 50
2, 60536, Note_on_c, 0, 72, 0
2, 60540, Note_on_c, 0, 84, 0
2, 60548, Control_c, 0, 64, 127
2, 60600, Note_on_c, 0, 85, 83
2, 60604, Note_on_c, 0, 73, 77
2, 60640, Note_on_c, 0, 64, 39
2, 60648, Note_on_c, 0, 54, 36
2, 60648, Control_c, 0, 64, 0
2, 60692, Note_on_c, 0, 64, 0
2, 60704, Note_on_c, 0, 73, 0
2, 60708, Note_on_c, 0, 85, 0
2, 60728, Note_on_c, 0, 86, 72
2, 60732, Note_on_c, 0, 74, 59
2, 60740, Note_on_c, 0, 54, 0
2, 60760, Note_on_c, 0, 84, 30
2, 60788, Note_on_c, 0, 84, 0
2, 60816, Note_on_c, 0, 86, 0
2, 60832, Note_on_c, 0, 74, 0
2, 60920, Control_c, 0, 64, 127
2, 60920, Note_on_c, 0, 84, 72
2, 60928, Note_on_c, 0, 72, 66
2, 60988, Note_on_c, 0, 72, 0
2, 61000, Note_on_c, 0, 84, 0
2, 61016, Note_on_c, 0, 54, 36
2, 61016, Control_c, 0, 64, 0
2, 61028, Note_on_c, 0, 50, 24
2, 61064, Note_on_c, 0, 50, 0
2, 61068, Note_on_c, 0, 54, 0
2, 61108, Note_on_c, 0, 82, 33
2, 61192, Note_on_c, 0, 82, 0
2, 61304, Note_on_c, 0, 83, 74
2, 61356, Control_c, 0, 64, 127
2, 61376, Control_c, 0, 64, 0
2, 61380, Note_on_c, 0, 83, 0
2, 61392, Note_on_c, 0, 43, 29
2, 61416, Note_on_c, 0, 59, 41
2, 61440, Note_on_c, 0, 43, 0
2, 61476, Note_on_c, 0, 59, 0
2, 61484, Note_on_c, 0, 82, 50
2, 61624, Note_on_c, 0, 82, 0
2, 61668, Note_on_c, 0, 83, 76
2, 61764, Note_on_c, 0, 83, 0
2, 61780, Note_on_c, 0, 62, 42
2, 61784, Note_on_c, 0, 59, 47
2, 61816, Note_on_c, 0, 62, 0
2, 61824, Note_on_c, 0, 59, 0
2, 61824, Note_on_c, 0, 82, 47
2, 61996, Note_on_c, 0, 82, 0
2, 62044, Note_on_c, 0, 83, 74
2, 62136, Note_on_c, 0, 83, 0
2, 62144, Note_on_c, 0, 49, 47
2, 62168, Note_on_c, 0, 50, 44
2, 62172, Note_on_c, 0, 74, 47
2, 62180, Note_on_c, 0, 79, 47
2, 62232, Note_on_c, 0, 49, 0
2, 62264, Note_on_c, 0, 79, 0
2, 62296, Note_on_c, 0, 74, 0
2, 62328, Note_on_c, 0, 50, 0
2, 62432, Control_c, 0, 64, 127
2, 62496, Control_c, 0, 64, 0
2, 62516, Note_on_c, 0, 37, 35
2, 62540, Note_on_c, 0, 71, 43
2, 62548, Note_on_c, 0, 74, 42
2, 62612, Note_on_c, 0, 37, 0
2, 62656, Note_on_c, 0, 71, 0
2, 62668, Control_c, 0, 64, 127
2, 62724, Note_on_c, 0, 74, 0
2, 62792, Note_on_c, 0, 36, 57
2, 62860, Control_c, 0, 64, 0
2, 62876, Note_on_c, 0, 36, 0
2, 62896, Note_on_c, 0, 52, 53
2, 62928, Control_c, 0, 64, 127
2, 62948, Note_on_c, 0, 52, 0
2, 63152, Note_on_c, 0, 82, 81
2, 63236, Note_on_c, 0, 82, 0
2, 63248, Note_on_c, 0, 58, 31
2, 63272, Note_on_c, 0, 58, 0
2, 63276, Control_c, 0, 64, 0
2, 63296, Note_on_c, 0, 79, 47
2, 63316, Note_on_c, 0, 79, 0
2, 63332, Note_on_c, 0, 82, 62
2, 63376, Note_on_c, 0, 79, 36
2, 63404, Note_on_c, 0, 82, 0
2, 63420, Note_on_c, 0, 79, 0
2, 63436, Note_on_c, 0, 76, 60
2, 63484, Note_on_c, 0, 76, 0
2, 63516, Note_on_c, 0, 75, 49
2, 63556, Note_on_c, 0, 75, 0
2, 63568, Note_on_c, 0, 74, 43
2, 63648, Note_on_c, 0, 74, 0
2, 63660, Note_on_c, 0, 73, 71
2, 63660, Note_on_c, 0, 50, 49
2, 63664, Note_on_c, 0, 58, 35
2, 63700, Note_on_c, 0, 73, 0
2, 63780, Note_on_c, 0, 72, 68
2, 63840, Note_on_c, 0, 72, 0
2, 63876, Note_on_c, 0, 58, 0
2, 63892, Note_on_c, 0, 70, 71
2, 63956, Note_on_c, 0, 70, 0
2, 63992, Note_on_c, 0, 50, 0
2, 63992, Note_on_c, 0, 67, 74
2, 64060, Note_on_c, 0, 67, 0
2, 64072, Control_c, 0, 64, 127
2, 64088, Note_on_c, 0, 58, 36
2, 64096, Note_on_c, 0, 64, 56
2, 64100, Control_c, 0, 64, 0
2, 64108, Note_on_c, 0, 51, 34
2, 64148, Note_on_c, 0, 64, 0
2, 64156, Note_on_c, 0, 58, 0
2, 64200, Note_on_c, 0, 64, 66
2, 64220, Note_on_c, 0, 51, 0
2, 64256, Note_on_c, 0, 64, 0
2, 64304, Note_on_c, 0, 62, 30
2, 64316, Note_on_c, 0, 60, 20
2, 64344, Note_on_c, 0, 62, 0
2, 64348, Note_on_c, 0, 60, 0
2, 64376, Control_c, 0, 64, 127
2, 64416, Note_on_c, 0, 59, 37
2, 64440, Note_on_c, 0, 59, 0
2, 64456, Control_c, 0, 64, 0
2, 64480, Note_on_c, 0, 55, 34
2, 64484, Note_on_c, 0, 61, 30
2, 64492, Note_on_c, 0, 47, 32
2, 64496, Note_on_c, 0, 62, 54
2, 64500, Note_on_c, 0, 61, 0
2, 64624, Control_c, 0, 64, 127
2, 64704, Note_on_c, 0, 55, 0
2, 64868, Note_on_c, 0, 55, 37
2, 64872, Note_on_c, 0, 59, 45
2, 64872, Control_c, 0, 64, 0
2, 64936, Control_c, 0, 64, 127
2, 64972, Note_on_c, 0, 55, 0
2, 64980, Note_on_c, 0, 47, 0
2, 64996, Note_on_c, 0, 62, 0
2, 65040, Note_on_c, 0, 59, 0
2, 65164, Note_on_c, 0, 42, 34
2, 65224, Note_on_c, 0, 44, 39
2, 65232, Note_on_c, 0, 42, 0
2, 65248, Note_on_c, 0, 45, 45
2, 65256, Note_on_c, 0, 60, 47
2, 65256, Note_on_c, 0, 57, 44
2, 65272, Control_c, 0, 64, 0
2, 65284, Note_on_c, 0, 44, 0
2, 65392, Control_c, 0, 64, 127
2, 65452, Note_on_c, 0, 60, 0
2, 65456, Note_on_c, 0, 57, 0
2, 65572, Note_on_c, 0, 45, 0
2, 65636, Note_on_c, 0, 58, 49
2, 65644, Note_on_c, 0, 43, 43
2, 65648, Note_on_c, 0, 55, 46
2, 65652, Control_c, 0, 64, 0
2, 65764, Control_c, 0, 64, 127
2, 65796, Note_on_c, 0, 55, 0
2, 65832, Note_on_c, 0, 58, 0
2, 65892, Note_on_c, 0, 43, 0
2, 65944, Note_on_c, 0, 41, 33
2, 66008, Note_on_c, 0, 41, 0
2, 66016, Note_on_c, 0, 47, 41
2, 66028, Note_on_c, 0, 62, 53
2, 66032, Note_on_c, 0, 57, 49
2, 66044, Control_c, 0, 64, 0
2, 66132, Note_on_c, 0, 47, 0
2, 66156, Control_c, 0, 64, 127
2, 66320, Note_on_c, 0, 57, 0
2, 66388, Note_on_c, 0, 35, 40
2, 66404, Control_c, 0, 64, 0
2, 66404, Note_on_c, 0, 57, 53
2, 66448, Control_c, 0, 64, 127
2, 66456, Note_on_c, 0, 62, 0
2, 66464, Note_on_c, 0, 35, 0
2, 66568, Note_on_c, 0, 57, 0
2, 66676, Note_on_c, 0, 60, 71
2, 66680, Note_on_c, 0, 67, 64
2, 66680, Note_on_c, 0, 64, 55
2, 66688, Note_on_c, 0, 55, 70
2, 66692, Note_on_c, 0, 65, 51
2, 66708, Control_c, 0, 64, 0
2, 66716, Note_on_c, 0, 65, 0
2, 66732, Note_on_c, 0, 55, 0
2, 66764, Note_on_c, 0, 60, 0
2, 66772, Note_on_c, 0, 34, 32
2, 66776, Note_on_c, 0, 64, 0
2, 66784, Note_on_c, 0, 46, 26
2, 66788, Note_on_c, 0, 67, 0
2, 66796, Control_c, 0, 64, 127
2, 66828, Note_on_c, 0, 34, 0
2, 66852, Note_on_c, 0, 46, 0
2, 66896, Note_on_c, 0, 79, 74
2, 66900, Note_on_c, 0, 67, 62
2, 66904, Note_on_c, 0, 76, 57
2, 66904, Note_on_c, 0, 72, 64
2, 67052, Note_on_c, 0, 72, 0
2, 67064, Note_on_c, 0, 76, 0
2, 67076, Note_on_c, 0, 67, 0
2, 67128, Note_on_c, 0, 79, 0
2, 67132, Note_on_c, 0, 76, 33
2, 67148, Control_c, 0, 64, 0
2, 67148, Note_on_c, 0, 67, 34
2, 67152, Note_on_c, 0, 62, 32
2, 67152, Note_on_c, 0, 56, 39
2, 67164, Note_on_c, 0, 72, 29
2, 67200, Control_c, 0, 64, 127
2, 67244, Note_on_c, 0, 62, 0
2, 67256, Note_on_c, 0, 72, 0
2, 67308, Note_on_c, 0, 76, 0
2, 67316, Note_on_c, 0, 67, 0
2, 67388, Note_on_c, 0, 56, 0
2, 67420, Note_on_c, 0, 67, 37
2, 67424, Note_on_c, 0, 71, 51
2, 67464, Note_on_c, 0, 67, 0
2, 67484, Note_on_c, 0, 55, 36
2, 67488, Note_on_c, 0, 71, 0
2, 67508, Control_c, 0, 64, 0
2, 67520, Note_on_c, 0, 64, 16
2, 67584, Note_on_c, 0, 60, 1
2, 67676, Note_on_c, 0, 64, 0
2, 67680, Note_on_c, 0, 60, 0
2, 67772, Control_c, 0, 64, 127
2, 67796, Note_on_c, 0, 86, 80
2, 67800, Note_on_c, 0, 74, 77
2, 67852, Note_on_c, 0, 74, 0
2, 67900, Note_on_c, 0, 86, 0
2, 67904, Control_c, 0, 64, 0
2, 67940, Note_on_c, 0, 55, 0
2, 67940, Note_on_c, 0, 81, 33
2, 67972, Note_on_c, 0, 82, 37
2, 68012, Note_on_c, 0, 81, 0
2, 68028, Note_on_c, 0, 82, 0
2, 68324, Note_on_c, 0, 64, 25
2, 68328, Note_on_c, 0, 74, 51
2, 68328, Note_on_c, 0, 86, 49
2, 68340, Note_on_c, 0, 57, 28
2, 68408, Note_on_c, 0, 86, 0
2, 68408, Note_on_c, 0, 74, 0
2, 68420, Note_on_c, 0, 64, 0
2, 68428, Note_on_c, 0, 57, 0
2, 68708, Note_on_c, 0, 61, 32
2, 68716, Note_on_c, 0, 51, 29
2, 68724, Note_on_c, 0, 54, 35
2, 68816, Note_on_c, 0, 54, 0
2, 68816, Note_on_c, 0, 61, 0
2, 68860, Note_on_c, 0, 51, 0
2, 69076, Note_on_c, 0, 54, 29
2, 69080, Note_on_c, 0, 50, 22
2, 69084, Note_on_c, 0, 92, 55
2, 69100, Note_on_c, 0, 50, 0
2, 69108, Note_on_c, 0, 92, 0
2, 69128, Note_on_c, 0, 94, 62
2, 69136, Note_on_c, 0, 54, 0
2, 69172, Note_on_c, 0, 92, 57
2, 69192, Note_on_c, 0, 94, 0
2, 69220, Note_on_c, 0, 92, 0
2, 69224, Note_on_c, 0, 89, 68
2, 69260, Note_on_c, 0, 89, 0
2, 69324, Note_on_c, 0, 87, 72
2, 69376, Note_on_c, 0, 87, 0
2, 69424, Note_on_c, 0, 84, 74
2, 69464, Note_on_c, 0, 84, 0
2, 69504, Note_on_c, 0, 65, 36
2, 69520, Note_on_c, 0, 60, 32
2, 69528, Note_on_c, 0, 65, 0
2, 69540, Note_on_c, 0, 82, 69
2, 69544, Note_on_c, 0, 60, 0
2, 69584, Note_on_c, 0, 82, 0
2, 69640, Note_on_c, 0, 80, 63
2, 69684, Note_on_c, 0, 80, 0
2, 69724, Note_on_c, 0, 77, 54
2, 69756, Note_on_c, 0, 77, 0
2, 69816, Note_on_c, 0, 75, 62
2, 69884, Note_on_c, 0, 75, 0
2, 69884, Note_on_c, 0, 60, 28
2, 69888, Note_on_c, 0, 54, 31
2, 69904, Note_on_c, 0, 50, 19
2, 69916, Note_on_c, 0, 60, 0
2, 69916, Note_on_c, 0, 72, 49
2, 69944, Note_on_c, 0, 72, 0
2, 69964, Note_on_c, 0, 50, 0
2, 69964, Note_on_c, 0, 54, 0
2, 70012, Note_on_c, 0, 70, 56
2, 70080, Note_on_c, 0, 70, 0
2, 70124, Note_on_c, 0, 68, 25
2, 70168, Note_on_c, 0, 68, 0
2, 70208, Note_on_c, 0, 65, 37
2, 70260, Note_on_c, 0, 65, 0
2, 70272, Note_on_c, 0, 44, 29
2, 70276, Note_on_c, 0, 54, 18
2, 70288, Note_on_c, 0, 63, 37
2, 70304, Note_on_c, 0, 63, 0
2, 70556, Note_on_c, 0, 54, 0
2, 70572, Control_c, 0, 64, 127
2, 70616, Note_on_c, 0, 50, 36
2, 70632, Note_on_c, 0, 44, 0
2, 70648, Note_on_c, 0, 50, 0
2, 70692, Note_on_c, 0, 43, 39
2, 70692, Control_c, 0, 64, 0
2, 70708, Note_on_c, 0, 59, 46
2, 70920, Note_on_c, 0, 59, 0
2, 70940, Control_c, 0, 64, 127
2, 70964, Note_on_c, 0, 44, 27
2, 70984, Note_on_c, 0, 43, 0
2, 71024, Note_on_c, 0, 60, 54
2, 71028, Note_on_c, 0, 44, 0
2, 71028, Control_c, 0, 64, 0
2, 71032, Note_on_c, 0, 55, 40
2, 71032, Note_on_c, 0, 45, 41
2, 71196, Note_on_c, 0, 55, 0
2, 71236, Note_on_c, 0, 60, 0
2, 71268, Note_on_c, 0, 45, 0
2, 71272, Note_on_c, 0, 46, 40
2, 71276, Note_on_c, 0, 61, 46
2, 71344, Note_on_c, 0, 61, 0
2, 71388, Note_on_c, 0, 46, 0
2, 71396, Note_on_c, 0, 62, 51
2, 71400, Note_on_c, 0, 47, 34
2, 71404, Note_on_c, 0, 55, 32
2, 71480, Note_on_c, 0, 47, 0
2, 71480, Control_c, 0, 64, 127
2, 71684, Note_on_c, 0, 55, 0
2, 71732, Note_on_c, 0, 62, 0
2, 72136, Note_on_c, 0, 31, 57
2, 72144, Note_on_c, 0, 47, 68
2, 72188, Control_c, 0, 64, 0
2, 72256, Note_on_c, 0, 32, 56
2, 72260, Note_on_c, 0, 47, 0
2, 72268, Note_on_c, 0, 31, 0
2, 72268, Note_on_c, 0, 48, 62
2, 72336, Note_on_c, 0, 48, 0
2, 72356, Note_on_c, 0, 32, 0
2, 72372, Note_on_c, 0, 33, 41
2, 72380, Note_on_c, 0, 49, 40
2, 72468, Note_on_c, 0, 49, 0
2, 72484, Note_on_c, 0, 34, 52
2, 72496, Note_on_c, 0, 50, 43
2, 72504, Note_on_c, 0, 33, 0
2, 72576, Note_on_c, 0, 50, 0
2, 72596, Note_on_c, 0, 34, 0
2, 72616, Note_on_c, 0, 51, 47
2, 72708, Note_on_c, 0, 51, 0
2, 72732, Note_on_c, 0, 52, 68
2, 72740, Note_on_c, 0, 36, 47
2, 72836, Note_on_c, 0, 52, 0
2, 72860, Note_on_c, 0, 36, 0
2, 72864, Note_on_c, 0, 37, 50
2, 72872, Note_on_c, 0, 53, 48
2, 72936, Note_on_c, 0, 53, 0
2, 72980, Note_on_c, 0, 37, 0
2, 72984, Note_on_c, 0, 54, 48
2, 72996, Note_on_c, 0, 38, 42
2, 73084, Note_on_c, 0, 54, 0
2, 73100, Note_on_c, 0, 39, 58
2, 73108, Note_on_c, 0, 55, 68
2, 73120, Note_on_c, 0, 38, 0
2, 73180, Note_on_c, 0, 55, 0
2, 73224, Note_on_c, 0, 40, 53
2, 73232, Note_on_c, 0, 56, 53
2, 73320, Note_on_c, 0, 56, 0
2, 73320, Note_on_c, 0, 40, 0
2, 73324, Note_on_c, 0, 39, 0
2, 73364, Note_on_c, 0, 57, 41
2, 73368, Note_on_c, 0, 41, 39
2, 73408, Note_on_c, 0, 57, 0
2, 73432, Note_on_c, 0, 41, 0
2, 73456, Note_on_c, 0, 58, 59
2, 73480, Control_c, 0, 64, 127
2, 73532, Note_on_c, 0, 58, 0
2, 73544, Note_on_c, 0, 43, 24
2, 73560, Note_on_c, 0, 59, 62
2, 73604, Control_c, 0, 64, 0
2, 73620, Note_on_c, 0, 43, 0
2, 73628, Note_on_c, 0, 59, 0
2, 73652, Note_on_c, 0, 36, 53
2, 73664, Note_on_c, 0, 60, 62
2, 73672, Note_on_c, 0, 48, 32
2, 73684, Control_c, 0, 64, 127
2, 73720, Note_on_c, 0, 36, 0
2, 73744, Note_on_c, 0, 48, 0
2, 73804, Note_on_c, 0, 60, 0
2, 74052, Note_on_c, 0, 72, 58
2, 74052, Note_on_c, 0, 60, 47
2, 74056, Note_on_c, 0, 64, 43
2, 74056, Note_on_c, 0, 67, 55
2, 74112, Note_on_c, 0, 60, 0
2, 74132, Note_on_c, 0, 64, 0
2, 74180, Note_on_c, 0, 67, 0
2, 74188, Note_on_c, 0, 72, 0
2, 74440, Note_on_c, 0, 79, 78
2, 74444, Note_on_c, 0, 76, 69
2, 74448, Control_c, 0, 64, 0
2, 74448, Note_on_c, 0, 72, 74
2, 74452, Note_on_c, 0, 60, 51
2, 74452, Note_on_c, 0, 48, 51
2, 74456, Note_on_c, 0, 67, 60
2, 74480, Note_on_c, 0, 48, 0
2, 74516, Control_c, 0, 64, 127
2, 74540, Note_on_c, 0, 60, 0
2, 74616, Note_on_c, 0, 76, 0
2, 74620, Note_on_c, 0, 79, 0
2, 74632, Note_on_c, 0, 67, 0
2, 74640, Note_on_c, 0, 72, 0
2, 74848, Note_on_c, 0, 56, 72
2, 74852, Note_on_c, 0, 48, 65
2, 74872, Control_c, 0, 64, 0
2, 74976, Control_c, 0, 64, 127
2, 75096, Note_on_c, 0, 56, 0
2, 75124, Note_on_c, 0, 48, 0
2, 75244, Control_c, 0, 64, 0
2, 75244, Note_on_c, 0, 64, 56
2, 75256, Note_on_c, 0, 60, 41
2, 75260, Note_on_c, 0, 57, 40
2, 75260, Note_on_c, 0, 48, 39
2, 75324, Control_c, 0, 64, 127
2, 75332, Note_on_c, 0, 60, 0
2, 75348, Note_on_c, 0, 48, 0
2, 75384, Note_on_c, 0, 57, 0
2, 75396, Note_on_c, 0, 64, 0
2, 75636, Note_on_c, 0, 81, 63
2, 75640, Note_on_c, 0, 69, 58
2, 75652, Note_on_c, 0, 60, 36
2, 75680, Note_on_c, 0, 60, 0
2, 75808, Note_on_c, 0, 69, 0
2, 75884, Note_on_c, 0, 81, 0
2, 76000, Control_c, 0, 64, 0
2, 76024, Note_on_c, 0, 72, 48
2, 76024, Note_on_c, 0, 81, 55
2, 76032, Note_on_c, 0, 57, 28
2, 76036, Note_on_c, 0, 49, 23
2, 76084, Control_c, 0, 64, 127
2, 76100, Note_on_c, 0, 49, 0
2, 76116, Note_on_c, 0, 57, 0
2, 76184, Note_on_c, 0, 72, 0
2, 76248, Note_on_c, 0, 81, 0
2, 76420, Note_on_c, 0, 61, 37
2, 76428, Note_on_c, 0, 58, 30
2, 76452, Note_on_c, 0, 61, 0
2, 76476, Note_on_c, 0, 58, 0
2, 76668, Note_on_c, 0, 83, 63
2, 76732, Note_on_c, 0, 83, 0
2, 76788, Note_on_c, 0, 76, 66
2, 76788, Note_on_c, 0, 88, 68
2, 76796, Note_on_c, 0, 59, 46
2, 76800, Control_c, 0, 64, 0
2, 76808, Note_on_c, 0, 50, 40
2, 76944, Control_c, 0, 64, 127
2, 76948, Note_on_c, 0, 88, 0
2, 76964, Note_on_c, 0, 59, 0
2, 77008, Note_on_c, 0, 76, 0
2, 77160, Note_on_c, 0, 59, 44
2, 77168, Note_on_c, 0, 86, 60
2, 77172, Note_on_c, 0, 74, 54
2, 77176, Control_c, 0, 64, 0
2, 77188, Note_on_c, 0, 59, 0
2, 77204, Control_c, 0, 64, 127
2, 77216, Note_on_c, 0, 50, 0
2, 77400, Note_on_c, 0, 86, 0
2, 77404, Note_on_c, 0, 74, 0
2, 77424, Note_on_c, 0, 43, 47
2, 77428, Note_on_c, 0, 50, 37
2, 77464, Note_on_c, 0, 43, 0
2, 77468, Note_on_c, 0, 50, 0
2, 77548, Note_on_c, 0, 43, 61
2, 77552, Note_on_c, 0, 51, 72
2, 77552, Control_c, 0, 64, 0
2, 77656, Control_c, 0, 64, 127
2, 77864, Note_on_c, 0, 51, 0
2, 77932, Note_on_c, 0, 63, 36
2, 77952, Note_on_c, 0, 55, 35
2, 77952, Note_on_c, 0, 51, 38
2, 77956, Note_on_c, 0, 59, 45
2, 77972, Control_c, 0, 64, 0
2, 78008, Note_on_c, 0, 43, 0
2, 78072, Control_c, 0, 64, 127
2, 78196, Note_on_c, 0, 55, 0
2, 78200, Note_on_c, 0, 43, 56
2, 78204, Note_on_c, 0, 59, 0
2, 78240, Note_on_c, 0, 51, 0
2, 78252, Note_on_c, 0, 63, 0
2, 78324, Note_on_c, 0, 52, 79
2, 78324, Note_on_c, 0, 64, 72
2, 78328, Note_on_c, 0, 59, 73
2, 78328, Note_on_c, 0, 55, 74
2, 78344, Control_c, 0, 64, 0
2, 78452, Control_c, 0, 64, 127
2, 78544, Note_on_c, 0, 55, 0
2, 78544, Note_on_c, 0, 64, 0
2, 78576, Note_on_c, 0, 59, 0
2, 78676, Control_c, 0, 64, 0
2, 78684, Note_on_c, 0, 52, 0
2, 78716, Note_on_c, 0, 51, 48
2, 78720, Note_on_c, 0, 63, 44
2, 78736, Note_on_c, 0, 55, 26
2, 78744, Note_on_c, 0, 59, 36
2, 78760, Control_c, 0, 64, 127
2, 78872, Note_on_c, 0, 55, 0
2, 78876, Note_on_c, 0, 59, 0
2, 78884, Note_on_c, 0, 51, 0
2, 78940, Note_on_c, 0, 63, 0
2, 78988, Note_on_c, 0, 62, 54
2, 78992, Note_on_c, 0, 59, 53
2, 78992, Note_on_c, 0, 55, 50
2, 79016, Note_on_c, 0, 50, 47
2, 79024, Control_c, 0, 64, 0
2, 79116, Control_c, 0, 64, 127
2, 79228, Note_on_c, 0, 55, 0
2, 79236, Note_on_c, 0, 59, 0
2, 79240, Note_on_c, 0, 62, 0
2, 79252, Note_on_c, 0, 43, 0
2, 79340, Note_on_c, 0, 50, 0
2, 79368, Note_on_c, 0, 62, 66
2, 79372, Note_on_c, 0, 57, 67
2, 79376, Note_on_c, 0, 66, 64
2, 79392, Note_on_c, 0, 47, 54
2, 79464, Control_c, 0, 64, 0
2, 79584, Note_on_c, 0, 47, 0
2, 79640, Note_on_c, 0, 50, 57
2, 79700, Control_c, 0, 64, 127
2, 79704, Note_on_c, 0, 62, 0
2, 79704, Note_on_c, 0, 57, 0
2, 79708, Note_on_c, 0, 50, 0
2, 79736, Note_on_c, 0, 66, 0
2, 79748, Note_on_c, 0, 51, 50
2, 79808, Note_on_c, 0, 51, 0
2, 79820, Control_c, 0, 64, 0
2, 79876, Note_on_c, 0, 67, 57
2, 79880, Note_on_c, 0, 52, 65
2, 79880, Note_on_c, 0, 62, 55
2, 79884, Note_on_c, 0, 59, 50
2, 79892, Control_c, 0, 64, 127
2, 79908, Note_on_c, 0, 59, 0
2, 79908, Note_on_c, 0, 52, 0
2, 79936, Note_on_c, 0, 62, 0
2, 79948, Note_on_c, 0, 67, 0
2, 80140, Note_on_c, 0, 74, 89
2, 80144, Note_on_c, 0, 59, 48
2, 80148, Note_on_c, 0, 67, 88
2, 80160, Note_on_c, 0, 55, 41
2, 80172, Note_on_c, 0, 52, 28
2, 80232, Note_on_c, 0, 74, 0
2, 80236, Note_on_c, 0, 67, 0
2, 80280, Note_on_c, 0, 62, 42
2, 80332, Note_on_c, 0, 62, 0
2, 80356, Note_on_c, 0, 55, 0
2, 80364, Note_on_c, 0, 52, 0
2, 80368, Note_on_c, 0, 59, 0
2, 80404, Note_on_c, 0, 67, 55
2, 80456, Note_on_c, 0, 67, 0
2, 80516, Note_on_c, 0, 71, 68
2, 80524, Note_on_c, 0, 52, 28
2, 80532, Note_on_c, 0, 59, 33
2, 80552, Note_on_c, 0, 55, 26
2, 80564, Note_on_c, 0, 71, 0
2, 80584, Note_on_c, 0, 55, 0
2, 80612, Note_on_c, 0, 59, 0
2, 80620, Note_on_c, 0, 74, 79
2, 80652, Note_on_c, 0, 59, 12
2, 80672, Note_on_c, 0, 74, 0
2, 80684, Note_on_c, 0, 55, 20
2, 80732, Control_c, 0, 64, 0
2, 80736, Note_on_c, 0, 79, 84
2, 80736, Note_on_c, 0, 75, 77
2, 80736, Note_on_c, 0, 63, 69
2, 80736, Note_on_c, 0, 71, 89
2, 80824, Control_c, 0, 64, 127
2, 80928, Note_on_c, 0, 71, 0
2, 80936, Note_on_c, 0, 63, 0
2, 80964, Note_on_c, 0, 75, 0
2, 80972, Note_on_c, 0, 79, 0
2, 81068, Note_on_c, 0, 75, 55
2, 81076, Note_on_c, 0, 71, 52
2, 81080, Note_on_c, 0, 63, 46
2, 81080, Note_on_c, 0, 67, 40
2, 81168, Note_on_c, 0, 55, 0
2, 81188, Note_on_c, 0, 71, 0
2, 81192, Note_on_c, 0, 59, 0
2, 81212, Note_on_c, 0, 67, 0
2, 81216, Note_on_c, 0, 75, 0
2, 81224, Note_on_c, 0, 63, 0
2, 81248, Note_on_c, 0, 52, 0
2, 81308, Note_on_c, 0, 67, 57
2, 81312, Note_on_c, 0, 64, 53
2, 81328, Note_on_c, 0, 59, 40
2, 81328, Note_on_c, 0, 62, 41
2, 81344, Note_on_c, 0, 55, 34
2, 81364, Note_on_c, 0, 52, 7
2, 81368, Control_c, 0, 64, 0
2, 81472, Control_c, 0, 64, 127
2, 81588, Note_on_c, 0, 62, 0
2, 81604, Note_on_c, 0, 59, 0
2, 81652, Note_on_c, 0, 55, 0
2, 81800, Note_on_c, 0, 64, 0
2, 81824, Note_on_c, 0, 52, 0
2, 81844, Note_on_c, 0, 67, 0
2, 82168, Note_on_c, 0, 45, 65
2, 82184, Control_c, 0, 64, 0
2, 82232, Note_on_c, 0, 45, 0
2, 82388, Note_on_c, 0, 70, 58
2, 82432, Note_on_c, 0, 69, 53
2, 82464, Note_on_c, 0, 68, 56
2, 82472, Note_on_c, 0, 70, 0
2, 82488, Note_on_c, 0, 69, 0
2, 82540, Note_on_c, 0, 67, 56
2, 82544, Note_on_c, 0, 68, 0
2, 82556, Note_on_c, 0, 61, 46
2, 82564, Note_on_c, 0, 58, 35
2, 82596, Note_on_c, 0, 67, 0
2, 82612, Note_on_c, 0, 61, 0
2, 82640, Note_on_c, 0, 58, 0
2, 82668, Note_on_c, 0, 64, 66
2, 82716, Note_on_c, 0, 64, 0
2, 82780, Note_on_c, 0, 61, 43
2, 82824, Note_on_c, 0, 61, 0
2, 82880, Note_on_c, 0, 60, 54
2, 82900, Note_on_c, 0, 60, 0
2, 82980, Note_on_c, 0, 60, 54
2, 82992, Note_on_c, 0, 64, 48
2, 83020, Note_on_c, 0, 64, 0
2, 83136, Note_on_c, 0, 45, 51
2, 83140, Note_on_c, 0, 59, 62
2, 83144, Note_on_c, 0, 60, 0
2, 83184, Note_on_c, 0, 59, 0
2, 83260, Note_on_c, 0, 60, 44
2, 83264, Note_on_c, 0, 45, 0
2, 83304, Note_on_c, 0, 60, 0
2, 83344, Note_on_c, 0, 64, 51
2, 83392, Note_on_c, 0, 64, 0
2, 83416, Note_on_c, 0, 67, 56
2, 83436, Note_on_c, 0, 67, 0
2, 83448, Control_c, 0, 64, 127
2, 83500, Note_on_c, 0, 71, 60
2, 83532, Note_on_c, 0, 71, 0
2, 83580, Note_on_c, 0, 74, 85
2, 83656, Note_on_c, 0, 74, 0
2, 83688, Note_on_c, 0, 71, 71
2, 83688, Note_on_c, 0, 64, 51
2, 83696, Control_c, 0, 64, 0
2, 83704, Note_on_c, 0, 60, 35
2, 83712, Note_on_c, 0, 59, 41
2, 83868, Control_c, 0, 64, 127
2, 84056, Note_on_c, 0, 59, 0
2, 84076, Note_on_c, 0, 71, 0
2, 84084, Note_on_c, 0, 57, 35
2, 84152, Note_on_c, 0, 64, 0
2, 84160, Note_on_c, 0, 60, 0
2, 84188, Note_on_c, 0, 57, 0
2, 84196, Note_on_c, 0, 72, 60
2, 84256, Note_on_c, 0, 72, 0
2, 84312, Note_on_c, 0, 74, 73
2, 84332, Note_on_c, 0, 74, 0
2, 84332, Note_on_c, 0, 51, 48
2, 84416, Note_on_c, 0, 51, 0
2, 84452, Control_c, 0, 64, 0
2, 84464, Note_on_c, 0, 87, 67
2, 84464, Note_on_c, 0, 50, 38
2, 84468, Note_on_c, 0, 60, 22
2, 84504, Note_on_c, 0, 60, 0
2, 84528, Note_on_c, 0, 87, 0
2, 84528, Note_on_c, 0, 86, 61
2, 84564, Note_on_c, 0, 85, 53
2, 84588, Note_on_c, 0, 86, 0
2, 84624, Note_on_c, 0, 85, 0
2, 84632, Note_on_c, 0, 84, 49
2, 84660, Note_on_c, 0, 84, 0
2, 84724, Note_on_c, 0, 82, 69
2, 84796, Note_on_c, 0, 50, 0
2, 84804, Note_on_c, 0, 82, 0
2, 84816, Note_on_c, 0, 78, 56
2, 84832, Note_on_c, 0, 54, 29
2, 84872, Note_on_c, 0, 78, 0
2, 84892, Note_on_c, 0, 54, 0
2, 84900, Note_on_c, 0, 76, 50
2, 84944, Note_on_c, 0, 76, 0
2, 84996, Note_on_c, 0, 75, 57
2, 85060, Note_on_c, 0, 73, 30
2, 85072, Note_on_c, 0, 75, 0
2, 85080, Note_on_c, 0, 73, 0
2, 85112, Note_on_c, 0, 74, 31
2, 85128, Note_on_c, 0, 73, 43
2, 85136, Note_on_c, 0, 74, 0
2, 85184, Note_on_c, 0, 73, 0
2, 85188, Note_on_c, 0, 72, 54
2, 85208, Note_on_c, 0, 72, 0
2, 85216, Note_on_c, 0, 54, 29
2, 85260, Note_on_c, 0, 54, 0
2, 85280, Note_on_c, 0, 70, 69
2, 85356, Note_on_c, 0, 70, 0
2, 85364, Note_on_c, 0, 66, 57
2, 85412, Note_on_c, 0, 66, 0
2, 85452, Note_on_c, 0, 64, 34
2, 85480, Note_on_c, 0, 64, 0
2, 85560, Note_on_c, 0, 62, 53
2, 85564, Note_on_c, 0, 54, 33
2, 85624, Note_on_c, 0, 62, 0
2, 85652, Note_on_c, 0, 61, 50
2, 85732, Note_on_c, 0, 61, 0
2, 85752, Note_on_c, 0, 60, 34
2, 85768, Control_c, 0, 64, 127
2, 85812, Note_on_c, 0, 60, 0
2, 85824, Note_on_c, 0, 50, 18
2, 85864, Note_on_c, 0, 58, 42
2, 85876, Note_on_c, 0, 54, 0
2, 85932, Note_on_c, 0, 58, 0
2, 85940, Control_c, 0, 64, 0
2, 85956, Note_on_c, 0, 43, 35
2, 85960, Note_on_c, 0, 59, 58
2, 86088, Note_on_c, 0, 50, 0
2, 86096, Note_on_c, 0, 60, 68
2, 86100, Note_on_c, 0, 59, 0
2, 86128, Note_on_c, 0, 45, 53
2, 86132, Note_on_c, 0, 43, 0
2, 86156, Note_on_c, 0, 60, 0
2, 86216, Note_on_c, 0, 61, 63
2, 86216, Note_on_c, 0, 46, 45
2, 86224, Note_on_c, 0, 45, 0
2, 86236, Control_c, 0, 64, 127
2, 86240, Note_on_c, 0, 58, 32
2, 86244, Note_on_c, 0, 55, 29
2, 86272, Note_on_c, 0, 55, 0
2, 86292, Control_c, 0, 64, 0
2, 86296, Note_on_c, 0, 58, 0
2, 86304, Note_on_c, 0, 61, 0
2, 86316, Note_on_c, 0, 46, 0
2, 86352, Note_on_c, 0, 62, 58
2, 86356, Note_on_c, 0, 55, 45
2, 86356, Note_on_c, 0, 47, 53
2, 86500, Note_on_c, 0, 47, 0
2, 86508, Control_c, 0, 64, 127
2, 86572, Note_on_c, 0, 55, 0
2, 86672, Note_on_c, 0, 41, 31
2, 86720, Note_on_c, 0, 41, 0
2, 86732, Note_on_c, 0, 62, 0
2, 86744, Control_c, 0, 64, 0
2, 86748, Note_on_c, 0, 43, 44
2, 86756, Note_on_c, 0, 59, 45
2, 86764, Note_on_c, 0, 55, 40
2, 86856, Control_c, 0, 64, 127
2, 86948, Note_on_c, 0, 55, 0
2, 87088, Note_on_c, 0, 59, 0
2, 87104, Note_on_c, 0, 43, 0
2, 87132, Note_on_c, 0, 53, 38
2, 87136, Note_on_c, 0, 37, 34
2, 87148, Control_c, 0, 64, 0
2, 87240, Control_c, 0, 64, 127
2, 87388, Note_on_c, 0, 43, 28
2, 87392, Note_on_c, 0, 37, 0
2, 87432, Note_on_c, 0, 53, 0
2, 87448, Control_c, 0, 64, 0
2, 87504, Note_on_c, 0, 36, 53
2, 87508, Note_on_c, 0, 43, 0
2, 87508, Control_c, 0, 64, 127
2, 87512, Note_on_c, 0, 52, 36
2, 87536, Note_on_c, 0, 52, 0
2, 87552, Note_on_c, 0, 36, 0
2, 87784, Note_on_c, 0, 74, 85
2, 87788, Note_on_c, 0, 67, 77
2, 87792, Note_on_c, 0, 64, 78
2, 87860, Control_c, 0, 64, 0
2, 87904, Note_on_c, 0, 58, 35
2, 87936, Control_c, 0, 64, 127
2, 87960, Note_on_c, 0, 58, 0
2, 88180, Note_on_c, 0, 64, 0
2, 88192, Note_on_c, 0, 67, 0
2, 88192, Note_on_c, 0, 74, 0
2, 88280, Control_c, 0, 64, 0
2, 88292, Note_on_c, 0, 67, 38
2, 88292, Note_on_c, 0, 58, 25
2, 88292, Note_on_c, 0, 64, 37
2, 88296, Note_on_c, 0, 72, 40
2, 88296, Note_on_c, 0, 50, 34
2, 88424, Control_c, 0, 64, 127
2, 88456, Note_on_c, 0, 64, 0
2, 88468, Note_on_c, 0, 67, 0
2, 88484, Note_on_c, 0, 58, 0
2, 88584, Note_on_c, 0, 72, 0
2, 88656, Note_on_c, 0, 50, 0
2, 88672, Control_c, 0, 64, 0
2, 88704, Note_on_c, 0, 58, 25
2, 88708, Note_on_c, 0, 64, 45
2, 88712, Note_on_c, 0, 51, 32
2, 88732, Note_on_c, 0, 58, 0
2, 88736, Control_c, 0, 64, 127
2, 88768, Note_on_c, 0, 51, 0
2, 88780, Note_on_c, 0, 64, 0
2, 89056, Note_on_c, 0, 59, 47
2, 89068, Note_on_c, 0, 43, 32
2, 89088, Control_c, 0, 64, 0
2, 89168, Note_on_c, 0, 43, 0
2, 89172, Note_on_c, 0, 59, 0
2, 89176, Note_on_c, 0, 60, 48
2, 89184, Note_on_c, 0, 44, 39
2, 89244, Note_on_c, 0, 60, 0
2, 89260, Note_on_c, 0, 44, 0
2, 89300, Note_on_c, 0, 61, 46
2, 89396, Note_on_c, 0, 61, 0
2, 89404, Note_on_c, 0, 46, 38
2, 89432, Note_on_c, 0, 62, 35
2, 89500, Note_on_c, 0, 62, 0
2, 89524, Note_on_c, 0, 47, 42
2, 89540, Note_on_c, 0, 63, 46
2, 89628, Note_on_c, 0, 47, 0
2, 89632, Note_on_c, 0, 63, 0
2, 89632, Note_on_c, 0, 46, 0
2, 89648, Note_on_c, 0, 64, 64
2, 89656, Note_on_c, 0, 48, 53
2, 89724, Note_on_c, 0, 64, 0
2, 89776, Note_on_c, 0, 65, 74
2, 89776, Note_on_c, 0, 49, 71
2, 89780, Note_on_c, 0, 48, 0
2, 89888, Note_on_c, 0, 65, 0
2, 89896, Note_on_c, 0, 49, 0
2, 89900, Note_on_c, 0, 64, 51
2, 89908, Note_on_c, 0, 48, 58
2, 89992, Note_on_c, 0, 64, 0
2, 90016, Note_on_c, 0, 48, 0
2, 90032, Note_on_c, 0, 47, 54
2, 90032, Note_on_c, 0, 63, 37
2, 90144, Note_on_c, 0, 63, 0
2, 90164, Note_on_c, 0, 62, 35
2, 90172, Note_on_c, 0, 47, 0
2, 90180, Note_on_c, 0, 46, 37
2, 90244, Note_on_c, 0, 62, 0
2, 90264, Note_on_c, 0, 46, 0
2, 90280, Note_on_c, 0, 61, 43
2, 90288, Note_on_c, 0, 45, 36
2, 90372, Note_on_c, 0, 45, 0
2, 90400, Note_on_c, 0, 61, 0
2, 90412, Note_on_c, 0, 44, 36
2, 90416, Note_on_c, 0, 60, 45
2, 90512, Note_on_c, 0, 60, 0
2, 90512, Note_on_c, 0, 44, 0
2, 90544, Note_on_c, 0, 43, 45
2, 90556, Note_on_c, 0, 59, 59
2, 90660, Note_on_c, 0, 59, 0
2, 90676, Note_on_c, 0, 58, 42
2, 90708, Note_on_c, 0, 43, 0
2, 90760, Note_on_c, 0, 58, 0
2, 90800, Note_on_c, 0, 59, 71
2, 90824, Note_on_c, 0, 47, 67
2, 90828, Control_c, 0, 64, 127
2, 90904, Control_c, 0, 64, 0
2, 90920, Note_on_c, 0, 59, 0
2, 90952, Note_on_c, 0, 35, 66
2, 90956, Note_on_c, 0, 57, 62
2, 90984, Control_c, 0, 64, 127
2, 91004, Note_on_c, 0, 35, 0
2, 91028, Note_on_c, 0, 47, 0
2, 91056, Note_on_c, 0, 57, 0
2, 91088, Note_on_c, 0, 62, 58
2, 91172, Note_on_c, 0, 62, 0
2, 91200, Note_on_c, 0, 65, 73
2, 91240, Note_on_c, 0, 65, 0
2, 91312, Note_on_c, 0, 76, 71
2, 91364, Note_on_c, 0, 76, 0
2, 91416, Note_on_c, 0, 79, 84
2, 91420, Note_on_c, 0, 56, 50
2, 91424, Note_on_c, 0, 73, 52
2, 91424, Note_on_c, 0, 72, 71
2, 91428, Note_on_c, 0, 67, 63
2, 91428, Control_c, 0, 64, 0
2, 91440, Note_on_c, 0, 69, 37
2, 91460, Note_on_c, 0, 69, 0
2, 91492, Note_on_c, 0, 56, 0
2, 91496, Note_on_c, 0, 73, 0
2, 91548, Note_on_c, 0, 72, 0
2, 91560, Note_on_c, 0, 79, 0
2, 91580, Note_on_c, 0, 67, 0
2, 91596, Control_c, 0, 64, 127
2, 91652, Note_on_c, 0, 74, 74
2, 91656, Note_on_c, 0, 56, 53
2, 91660, Note_on_c, 0, 46, 55
2, 91660, Note_on_c, 0, 68, 75
2, 91668, Note_on_c, 0, 64, 63
2, 91684, Control_c, 0, 64, 0
2, 91800, Control_c, 0, 64, 127
2, 91884, Note_on_c, 0, 74, 0
2, 91900, Note_on_c, 0, 64, 0
2, 91924, Note_on_c, 0, 68, 0
2, 91952, Note_on_c, 0, 56, 0
2, 91972, Note_on_c, 0, 46, 0
2, 92000, Control_c, 0, 64, 0
2, 92008, Note_on_c, 0, 67, 61
2, 92012, Note_on_c, 0, 72, 55
2, 92016, Note_on_c, 0, 60, 54
2, 92016, Note_on_c, 0, 55, 44
2, 92020, Note_on_c, 0, 45, 45
2, 92036, Note_on_c, 0, 52, 34
2, 92072, Note_on_c, 0, 60, 0
2, 92120, Control_c, 0, 64, 127
2, 92124, Note_on_c, 0, 45, 0
2, 92128, Note_on_c, 0, 67, 0
2, 92136, Note_on_c, 0, 52, 0
2, 92140, Note_on_c, 0, 72, 0
2, 92180, Note_on_c, 0, 55, 0
2, 92404, Note_on_c, 0, 86, 96
2, 92488, Note_on_c, 0, 64, 34
2, 92500, Note_on_c, 0, 60, 28
2, 92508, Note_on_c, 0, 81, 59
2, 92516, Note_on_c, 0, 86, 0
2, 92520, Note_on_c, 0, 64, 0
2, 92524, Control_c, 0, 64, 0
2, 92552, Note_on_c, 0, 60, 0
2, 92592, Note_on_c, 0, 82, 35
2, 92632, Note_on_c, 0, 81, 0
2, 92652, Note_on_c, 0, 82, 0
2, 92676, Note_on_c, 0, 83, 28
2, 92704, Note_on_c, 0, 83, 0
2, 92804, Control_c, 0, 64, 127
2, 92844, Control_c, 0, 64, 0
2, 92892, Note_on_c, 0, 54, 20
2, 92892, Note_on_c, 0, 55, 50
2, 92896, Note_on_c, 0, 86, 62
2, 92900, Note_on_c, 0, 74, 54
2, 92956, Note_on_c, 0, 54, 0
2, 92996, Note_on_c, 0, 55, 0
2, 93028, Note_on_c, 0, 74, 0
2, 93036, Note_on_c, 0, 86, 0
2, 93280, Note_on_c, 0, 49, 32
2, 93288, Note_on_c, 0, 74, 33
2, 93288, Note_on_c, 0, 83, 40
2, 93384, Note_on_c, 0, 49, 0
2, 93388, Note_on_c, 0, 74, 0
2, 93412, Note_on_c, 0, 83, 0
2, 93688, Note_on_c, 0, 86, 53
2, 93688, Note_on_c, 0, 74, 54
2, 93692, Note_on_c, 0, 50, 38
2, 93724, Note_on_c, 0, 50, 0
2, 93768, Control_c, 0, 64, 127
2, 93888, Note_on_c, 0, 86, 0
2, 93932, Note_on_c, 0, 74, 0
2, 93944, Note_on_c, 0, 37, 54
2, 94032, Note_on_c, 0, 37, 0
2, 94032, Control_c, 0, 64, 0
2, 94080, Note_on_c, 0, 38, 49
2, 94188, Control_c, 0, 64, 127
2, 94324, Note_on_c, 0, 38, 0
2, 94332, Note_on_c, 0, 26, 50
2, 94380, Note_on_c, 0, 26, 0
2, 94456, Note_on_c, 0, 67, 60
2, 94460, Note_on_c, 0, 60, 60
2, 94464, Control_c, 0, 64, 0
2, 94472, Note_on_c, 0, 45, 62
2, 94528, Note_on_c, 0, 45, 0
2, 94576, Note_on_c, 0, 67, 0
2, 94604, Control_c, 0, 64, 127
2, 94612, Note_on_c, 0, 60, 0
2, 94692, Note_on_c, 0, 39, 42
2, 94768, Note_on_c, 0, 39, 0
2, 94808, Control_c, 0, 64, 0
2, 94832, Note_on_c, 0, 42, 40
2, 94888, Control_c, 0, 64, 127
2, 95084, Note_on_c, 0, 42, 0
2, 95096, Note_on_c, 0, 59, 62
2, 95100, Note_on_c, 0, 43, 50
2, 95104, Note_on_c, 0, 55, 48
2, 95120, Control_c, 0, 64, 0
2, 95152, Note_on_c, 0, 55, 0
2, 95160, Note_on_c, 0, 43, 0
2, 95168, Note_on_c, 0, 59, 0
2, 95188, Control_c, 0, 64, 127
2, 95468, Note_on_c, 0, 67, 48
2, 95472, Note_on_c, 0, 49, 61
2, 95472, Note_on_c, 0, 64, 53
2, 95480, Note_on_c, 0, 59, 36
2, 95528, Note_on_c, 0, 59, 0
2, 95552, Note_on_c, 0, 67, 0
2, 95584, Note_on_c, 0, 64, 0
2, 95612, Note_on_c, 0, 49, 0
2, 95616, Control_c, 0, 64, 0
2, 95620, Note_on_c, 0, 58, 42
2, 95628, Note_on_c, 0, 63, 42
2, 95640, Note_on_c, 0, 48, 50
2, 95724, Control_c, 0, 64, 127
2, 95788, Control_c, 0, 64, 0
2, 95800, Note_on_c, 0, 63, 0
2, 95828, Note_on_c, 0, 58, 0
2, 95848, Note_on_c, 0, 48, 0
2, 95848, Note_on_c, 0, 67, 26
2, 95852, Note_on_c, 0, 62, 50
2, 95856, Note_on_c, 0, 47, 54
2, 95856, Note_on_c, 0, 57, 48
2, 96036, Note_on_c, 0, 62, 0
2, 96040, Note_on_c, 0, 57, 0
2, 96100, Note_on_c, 0, 67, 0
2, 96136, Note_on_c, 0, 61, 48
2, 96140, Note_on_c, 0, 56, 43
2, 96152, Note_on_c, 0, 46, 51
2, 96160, Note_on_c, 0, 47, 0
2, 96212, Note_on_c, 0, 56, 0
2, 96216, Note_on_c, 0, 61, 0
2, 96260, Control_c, 0, 64, 127
2, 96348, Control_c, 0, 64, 0
2, 96360, Note_on_c, 0, 46, 0
2, 96376, Note_on_c, 0, 60, 51
2, 96380, Note_on_c, 0, 55, 44
2, 96388, Note_on_c, 0, 45, 35
2, 96464, Control_c, 0, 64, 127
2, 96492, Note_on_c, 0, 45, 0
2, 96492, Note_on_c, 0, 55, 0
2, 96496, Note_on_c, 0, 60, 0
2, 96640, Note_on_c, 0, 60, 54
2, 96648, Note_on_c, 0, 54, 46
2, 96648, Control_c, 0, 64, 0
2, 96652, Note_on_c, 0, 44, 35
2, 96656, Note_on_c, 0, 32, 34
2, 96832, Control_c, 0, 64, 127
2, 97124, Note_on_c, 0, 54, 0
2, 97124, Note_on_c, 0, 60, 0
2, 97136, Note_on_c, 0, 44, 0
2, 97136, Note_on_c, 0, 32, 0
2, 97392, Control_c, 0, 64, 0
2, 97396, Note_on_c, 0, 61, 37
2, 97400, Note_on_c, 0, 59, 44
2, 97404, Note_on_c, 0, 53, 32
2, 97408, Note_on_c, 0, 43, 30
2, 97412, Note_on_c, 0, 31, 28
2, 97576, Control_c, 0, 64, 127
2, 97776, Note_on_c, 0, 53, 0
2, 97792, Note_on_c, 0, 59, 0
2, 97812, Note_on_c, 0, 61, 0
2, 97816, Note_on_c, 0, 31, 0
2, 97824, Note_on_c, 0, 43, 0
2, 98304, Note_on_c, 0, 86, 40
2, 98304, Note_on_c, 0, 74, 31
2, 98308, Note_on_c, 0, 43, 19
2, 98320, Note_on_c, 0, 59, 32
2, 98384, Note_on_c, 0, 43, 0
2, 98392, Note_on_c, 0, 86, 0
2, 98412, Note_on_c, 0, 74, 0
2, 98424, Note_on_c, 0, 59, 0
2, 98500, Control_c, 0, 64, 0
2, 98684, Note_on_c, 0, 59, 20
2, 98736, Note_on_c, 0, 59, 0
2, 99060, Note_on_c, 0, 72, 45
2, 99060, Note_on_c, 0, 62, 40
2, 99064, Note_on_c, 0, 67, 51
2, 99100, Note_on_c, 0, 52, 11
2, 99188, Note_on_c, 0, 67, 0
2, 99188, Note_on_c, 0, 72, 0
2, 99192, Note_on_c, 0, 62, 0
2, 99208, Note_on_c, 0, 52, 0
2, 99432, Note_on_c, 0, 62, 29
2, 99432, Note_on_c, 0, 50, 33
2, 99436, Note_on_c, 0, 67, 36
2, 99440, Note_on_c, 0, 43, 26
2, 99440, Note_on_c, 0, 71, 36
2, 99476, Note_on_c, 0, 43, 0
2, 99484, Note_on_c, 0, 50, 0
2, 99532, Note_on_c, 0, 62, 0
2, 99536, Note_on_c, 0, 67, 0
2, 99552, Note_on_c, 0, 71, 0
2, 99624, Control_c, 0, 64, 127
2, 99764, Control_c, 0, 64, 0
2, 99804, Note_on_c, 0, 74, 33
2, 99808, Note_on_c, 0, 67, 35
2, 99808, Note_on_c, 0, 70, 35
2, 99812, Note_on_c, 0, 48, 40
2, 99812, Note_on_c, 0, 64, 25
2, 99828, Note_on_c, 0, 58, 18
2, 99880, Control_c, 0, 64, 127
2, 99988, Note_on_c, 0, 67, 0
2, 100020, Note_on_c, 0, 70, 0
2, 100072, Note_on_c, 0, 58, 0
2, 100076, Note_on_c, 0, 64, 0
2, 100096, Note_on_c, 0, 48, 0
2, 100100, Note_on_c, 0, 74, 0
2, 100192, Note_on_c, 0, 65, 42
2, 100196, Control_c, 0, 64, 0
2, 100208, Note_on_c, 0, 60, 30
2, 100212, Note_on_c, 0, 62, 24
2, 100216, Note_on_c, 0, 50, 32
2, 100216, Note_on_c, 0, 58, 18
2, 100236, Note_on_c, 0, 62, 0
2, 100352, Control_c, 0, 64, 127
2, 100472, Note_on_c, 0, 58, 0
2, 100488, Note_on_c, 0, 60, 0
2, 100532, Note_on_c, 0, 65, 0
2, 100572, Control_c, 0, 64, 0
2, 100576, Note_on_c, 0, 60, 27
2, 100580, Note_on_c, 0, 66, 38
2, 100588, Note_on_c, 0, 50, 0
2, 100608, Note_on_c, 0, 51, 35
2, 100612, Note_on_c, 0, 58, 17
2, 100692, Control_c, 0, 64, 127
2, 100744, Note_on_c, 0, 58, 0
2, 100788, Note_on_c, 0, 60, 0
2, 100896, Note_on_c, 0, 66, 0
2, 100948, Control_c, 0, 64, 0
2, 100956, Note_on_c, 0, 58, 38
2, 100964, Note_on_c, 0, 52, 50
2, 100964, Note_on_c, 0, 67, 40
2, 100976, Note_on_c, 0, 64, 35
2, 100992, Note_on_c, 0, 51, 0
2, 101000, Control_c, 0, 64, 127
2, 101004, Note_on_c, 0, 52, 0
2, 101044, Note_on_c, 0, 58, 0
2, 101068, Note_on_c, 0, 64, 0
2, 101080, Note_on_c, 0, 67, 0
2, 101280, Note_on_c, 0, 56, 25
2, 101328, Note_on_c, 0, 56, 0
2, 101328, Note_on_c, 0, 57, 69
2, 101348, Note_on_c, 0, 57, 0
2, 101352, Control_c, 0, 64, 0
2, 101352, Note_on_c, 0, 74, 96
2, 101356, Note_on_c, 0, 67, 95
2, 101356, Note_on_c, 0, 64, 99
2, 101356, Note_on_c, 0, 59, 82
2, 101372, Note_on_c, 0, 71, 45
2, 101396, Note_on_c, 0, 71, 0
2, 101460, Control_c, 0, 64, 127
2, 101520, Note_on_c, 0, 74, 0
2, 101548, Note_on_c, 0, 67, 0
2, 101564, Note_on_c, 0, 64, 0
2, 101564, Note_on_c, 0, 59, 0
2, 101632, Note_on_c, 0, 71, 69
2, 101632, Control_c, 0, 64, 0
2, 101640, Note_on_c, 0, 62, 51
2, 101644, Note_on_c, 0, 55, 62
2, 101644, Note_on_c, 0, 67, 56
2, 101648, Note_on_c, 0, 64, 56
2, 101696, Note_on_c, 0, 71, 0
2, 101700, Note_on_c, 0, 67, 0
2, 101704, Control_c, 0, 64, 127
2, 101712, Note_on_c, 0, 64, 0
2, 101744, Note_on_c, 0, 62, 0
2, 101748, Control_c, 0, 64, 0
2, 101820, Note_on_c, 0, 55, 0
2, 101848, Note_on_c, 0, 67, 30
2, 101852, Note_on_c, 0, 62, 44
2, 101852, Note_on_c, 0, 59, 32
2, 101860, Note_on_c, 0, 52, 33
2, 101864, Note_on_c, 0, 64, 41
2, 101916, Note_on_c, 0, 64, 0
2, 101916, Control_c, 0, 64, 127
2, 101928, Note_on_c, 0, 67, 0
2, 101936, Note_on_c, 0, 62, 0
2, 101956, Note_on_c, 0, 59, 0
2, 101988, Note_on_c, 0, 52, 0
2, 102108, Control_c, 0, 64, 0
2, 102108, Note_on_c, 0, 58, 40
2, 102108, Note_on_c, 0, 62, 22
2, 102116, Note_on_c, 0, 48, 35
2, 102120, Note_on_c, 0, 52, 31
2, 102184, Note_on_c, 0, 48, 0
2, 102236, Control_c, 0, 64, 127
2, 102512, Note_on_c, 0, 36, 51
2, 102556, Note_on_c, 0, 36, 0
2, 102588, Note_on_c, 0, 52, 0
2, 102652, Note_on_c, 0, 62, 0
2, 102776, Note_on_c, 0, 58, 0
2, 102856, Control_c, 0, 64, 0
2, 102896, Note_on_c, 0, 57, 52
2, 102900, Note_on_c, 0, 35, 39
2, 102900, Note_on_c, 0, 62, 44
2, 102940, Control_c, 0, 64, 127
2, 102944, Note_on_c, 0, 35, 0
2, 102960, Note_on_c, 0, 57, 0
2, 103008, Note_on_c, 0, 62, 0
2, 103288, Note_on_c, 0, 69, 80
2, 103296, Note_on_c, 0, 57, 46
2, 103300, Note_on_c, 0, 62, 38
2, 103336, Note_on_c, 0, 62, 0
2, 103348, Note_on_c, 0, 69, 0
2, 103388, Note_on_c, 0, 57, 0
2, 103396, Note_on_c, 0, 74, 74
2, 103440, Note_on_c, 0, 74, 0
2, 103460, Note_on_c, 0, 76, 53
2, 103512, Note_on_c, 0, 76, 0
2, 103572, Note_on_c, 0, 78, 53
2, 103628, Note_on_c, 0, 78, 0
2, 103644, Control_c, 0, 64, 0
2, 103664, Note_on_c, 0, 72, 44
2, 103672, Note_on_c, 0, 79, 59
2, 103676, Note_on_c, 0, 62, 34
2, 103680, Note_on_c, 0, 56, 34
2, 103748, Control_c, 0, 64, 127
2, 103792, Note_on_c, 0, 62, 0
2, 103828, Note_on_c, 0, 56, 0
2, 103872, Note_on_c, 0, 72, 0
2, 103960, Note_on_c, 0, 79, 0
2, 104028, Control_c, 0, 64, 0
2, 104036, Note_on_c, 0, 76, 38
2, 104040, Note_on_c, 0, 56, 23
2, 104040, Note_on_c, 0, 46, 31
2, 104044, Note_on_c, 0, 67, 24
2, 104052, Note_on_c, 0, 72, 36
2, 104112, Control_c, 0, 64, 127
2, 104132, Note_on_c, 0, 76, 0
2, 104144, Note_on_c, 0, 72, 0
2, 104180, Note_on_c, 0, 67, 0
2, 104268, Note_on_c, 0, 56, 0
2, 104328, Note_on_c, 0, 46, 0
2, 104396, Control_c, 0, 64, 0
2, 104412, Note_on_c, 0, 67, 42
2, 104420, Note_on_c, 0, 45, 33
2, 104420, Note_on_c, 0, 64, 36
2, 104428, Note_on_c, 0, 52, 22
2, 104436, Note_on_c, 0, 55, 30
2, 104448, Control_c, 0, 64, 127
2, 104468, Note_on_c, 0, 45, 0
2, 104488, Note_on_c, 0, 64, 0
2, 104496, Note_on_c, 0, 52, 0
2, 104512, Note_on_c, 0, 67, 0
2, 104524, Note_on_c, 0, 55, 0
2, 104780, Note_on_c, 0, 58, 36
2, 104796, Note_on_c, 0, 59, 69
2, 104800, Note_on_c, 0, 58, 0
2, 104804, Note_on_c, 0, 74, 88
2, 104808, Note_on_c, 0, 71, 79
2, 104812, Note_on_c, 0, 67, 85
2, 104812, Note_on_c, 0, 64, 91
2, 104812, Control_c, 0, 64, 0
2, 104928, Control_c, 0, 64, 127
2, 105008, Note_on_c, 0, 74, 0
2, 105012, Note_on_c, 0, 71, 0
2, 105028, Note_on_c, 0, 67, 0
2, 105044, Note_on_c, 0, 64, 0
2, 105080, Note_on_c, 0, 59, 0
2, 105184, Note_on_c, 0, 71, 50
2, 105188, Note_on_c, 0, 67, 46
2, 105188, Note_on_c, 0, 60, 32
2, 105192, Note_on_c, 0, 55, 45
2, 105192, Control_c, 0, 64, 0
2, 105192, Note_on_c, 0, 64, 50
2, 105296, Control_c, 0, 64, 127
2, 105364, Note_on_c, 0, 67, 0
2, 105372, Note_on_c, 0, 64, 0
2, 105380, Note_on_c, 0, 71, 0
2, 105396, Note_on_c, 0, 60, 0
2, 105504, Note_on_c, 0, 55, 0
2, 105568, Control_c, 0, 64, 0
2, 105572, Note_on_c, 0, 64, 39
2, 105572, Note_on_c, 0, 60, 35
2, 105572, Note_on_c, 0, 57, 30
2, 105576, Note_on_c, 0, 52, 29
2, 105668, Control_c, 0, 64, 127
2, 105684, Note_on_c, 0, 64, 0
2, 105712, Note_on_c, 0, 60, 0
2, 105724, Note_on_c, 0, 57, 0
2, 105744, Note_on_c, 0, 52, 0
2, 105944, Note_on_c, 0, 55, 42
2, 105948, Note_on_c, 0, 50, 40
2, 105948, Note_on_c, 0, 60, 47
2, 105956, Note_on_c, 0, 57, 39
2, 105956, Control_c, 0, 64, 0
2, 105976, Note_on_c, 0, 50, 0
2, 106064, Control_c, 0, 64, 127
2, 106208, Note_on_c, 0, 38, 72
2, 106212, Note_on_c, 0, 26, 73
2, 106244, Control_c, 0, 64, 0
2, 106352, Control_c, 0, 64, 127
2, 106440, Note_on_c, 0, 26, 0
2, 106488, Note_on_c, 0, 38, 0
2, 106548, Note_on_c, 0, 55, 0
2, 106552, Note_on_c, 0, 57, 0
2, 106660, Note_on_c, 0, 60, 0
2, 106740, Note_on_c, 0, 54, 53
2, 106744, Note_on_c, 0, 62, 49
2, 106744, Note_on_c, 0, 56, 51
2, 106744, Note_on_c, 0, 60, 42
2, 106752, Control_c, 0, 64, 0
2, 106996, Note_on_c, 0, 48, 94
2, 107000, Note_on_c, 0, 36, 89
2, 107024, Note_on_c, 0, 54, 0
2, 107044, Note_on_c, 0, 56, 0
2, 107052, Note_on_c, 0, 62, 0
2, 107056, Note_on_c, 0, 60, 0
2, 107192, Control_c, 0, 64, 127
2, 107340, Note_on_c, 0, 36, 0
2, 107356, Note_on_c, 0, 48, 0
2, 107484, Control_c, 0, 64, 0
2, 107508, Note_on_c, 0, 47, 84
2, 107512, Note_on_c, 0, 35, 78
2, 107512, Note_on_c, 0, 74, 90
2, 107516, Note_on_c, 0, 62, 92
2, 107516, Note_on_c, 0, 71, 79
2, 107516, Note_on_c, 0, 67, 89
2, 107568, Note_on_c, 0, 35, 0
2, 107604, Note_on_c, 0, 47, 0
2, 107616, Note_on_c, 0, 62, 0
2, 107616, Note_on_c, 0, 67, 0
2, 107624, Note_on_c, 0, 74, 0
2, 107636, Note_on_c, 0, 71, 0
2, 107900, Note_on_c, 0, 71, 56
2, 107904, Note_on_c, 0, 74, 67
2, 107908, Note_on_c, 0, 62, 58
2, 107908, Note_on_c, 0, 67, 60
2, 107912, Note_on_c, 0, 51, 61
2, 107916, Note_on_c, 0, 57, 54
2, 108008, Note_on_c, 0, 62, 0
2, 108016, Note_on_c, 0, 57, 0
2, 108024, Note_on_c, 0, 67, 0
2, 108024, Note_on_c, 0, 51, 0
2, 108044, Note_on_c, 0, 71, 0
2, 108052, Note_on_c, 0, 74, 0
2, 108304, Note_on_c, 0, 76, 42
2, 108308, Note_on_c, 0, 67, 43
2, 108308, Note_on_c, 0, 79, 52
2, 108312, Control_c, 0, 64, 127
2, 108312, Note_on_c, 0, 56, 51
2, 108312, Note_on_c, 0, 62, 44
2, 108316, Note_on_c, 0, 72, 54
2, 108440, Note_on_c, 0, 72, 0
2, 108452, Note_on_c, 0, 67, 0
2, 108452, Note_on_c, 0, 56, 0
2, 108456, Note_on_c, 0, 79, 0
2, 108464, Note_on_c, 0, 76, 0
2, 108468, Note_on_c, 0, 62, 0
2, 108552, Note_on_c, 0, 56, 58
2, 108556, Note_on_c, 0, 62, 59
2, 108556, Note_on_c, 0, 79, 60
2, 108560, Note_on_c, 0, 76, 65
2, 108560, Note_on_c, 0, 67, 57
2, 108564, Note_on_c, 0, 72, 62
2, 108612, Note_on_c, 0, 56, 0
2, 108616, Note_on_c, 0, 67, 0
2, 108624, Note_on_c, 0, 62, 0
2, 108624, Note_on_c, 0, 72, 0
2, 108628, Note_on_c, 0, 79, 0
2, 108648, Note_on_c, 0, 76, 0
2, 108696, Note_on_c, 0, 62, 36
2, 108704, Note_on_c, 0, 56, 56
2, 108704, Note_on_c, 0, 76, 41
2, 108708, Note_on_c, 0, 79, 48
2, 108712, Note_on_c, 0, 72, 46
2, 108732, Note_on_c, 0, 72, 0
2, 108748, Note_on_c, 0, 76, 0
2, 108756, Note_on_c, 0, 62, 0
2, 108760, Note_on_c, 0, 79, 0
2, 108824, Note_on_c, 0, 56, 0
2, 108932, Note_on_c, 0, 61, 68
2, 108936, Control_c, 0, 64, 0
2, 108940, Note_on_c, 0, 84, 90
2, 108940, Note_on_c, 0, 77, 89
2, 108940, Note_on_c, 0, 60, 64
2, 108940, Note_on_c, 0, 55, 70
2, 108940, Note_on_c, 0, 65, 78
2, 108944, Note_on_c, 0, 81, 81
2, 108944, Note_on_c, 0, 72, 89
2, 108948, Note_on_c, 0, 58, 50
2, 109036, Control_c, 0, 64, 127
2, 109064, Note_on_c, 0, 72, 0
2, 109076, Note_on_c, 0, 77, 0
2, 109088, Note_on_c, 0, 81, 0
2, 109096, Note_on_c, 0, 84, 0
2, 109116, Note_on_c, 0, 60, 0
2, 109120, Note_on_c, 0, 55, 0
2, 109132, Note_on_c, 0, 61, 0
2, 109132, Note_on_c, 0, 65, 0
2, 109144, Note_on_c, 0, 58, 0
2, 109308, Note_on_c, 0, 89, 83
2, 109308, Note_on_c, 0, 61, 69
2, 109312, Note_on_c, 0, 60, 68
2, 109312, Note_on_c, 0, 84, 89
2, 109312, Note_on_c, 0, 65, 77
2, 109316, Note_on_c, 0, 77, 76
2, 109316, Note_on_c, 0, 55, 71
2, 109324, Control_c, 0, 64, 0
2, 109332, Note_on_c, 0, 58, 30
2, 109376, Control_c, 0, 64, 127
2, 109388, Note_on_c, 0, 77, 0
2, 109412, Note_on_c, 0, 84, 0
2, 109424, Note_on_c, 0, 89, 0
2, 109428, Note_on_c, 0, 65, 0
2, 109436, Note_on_c, 0, 60, 0
2, 109448, Note_on_c, 0, 61, 0
2, 109456, Note_on_c, 0, 55, 0
2, 109468, Note_on_c, 0, 58, 0
2, 109684, Note_on_c, 0, 94, 86
2, 109684, Note_on_c, 0, 65, 75
2, 109684, Note_on_c, 0, 86, 91
2, 109688, Note_on_c, 0, 58, 62
2, 109688, Note_on_c, 0, 60, 67
2, 109688, Note_on_c, 0, 98, 90
2, 109692, Note_on_c, 0, 54, 64
2, 109716, Control_c, 0, 64, 0
2, 109740, Note_on_c, 0, 65, 0
2, 109764, Note_on_c, 0, 60, 0
2, 109784, Note_on_c, 0, 58, 0
2, 109800, Note_on_c, 0, 54, 0
2, 109992, Control_c, 0, 64, 127
2, 110056, Note_on_c, 0, 49, 83
2, 110056, Note_on_c, 0, 50, 96
2, 110080, Note_on_c, 0, 86, 0
2, 110096, Note_on_c, 0, 94, 0
2, 110112, Note_on_c, 0, 98, 0
2, 110132, Control_c, 0, 64, 0
2, 110200, Note_on_c, 0, 49, 0
2, 110352, Control_c, 0, 64, 127
2, 110568, Note_on_c, 0, 59, 30
2, 110592, Note_on_c, 0, 50, 0
2, 110592, Note_on_c, 0, 55, 35
2, 110600, Note_on_c, 0, 43, 31
2, 110616, Control_c, 0, 64, 0
2, 110728, Note_on_c, 0, 55, 0
2, 110788, Note_on_c, 0, 59, 0
2, 110828, Note_on_c, 0, 43, 0
2, 110832, Note_on_c, 0, 60, 39
2, 110840, Note_on_c, 0, 45, 38
2, 110896, Note_on_c, 0, 60, 0
2, 110952, Note_on_c, 0, 46, 46
2, 110956, Note_on_c, 0, 45, 0
2, 110956, Note_on_c, 0, 61, 42
2, 110968, Note_on_c, 0, 55, 36
2, 111176, Note_on_c, 0, 55, 0
2, 111200, Note_on_c, 0, 61, 0
2, 111232, Note_on_c, 0, 55, 55
2, 111244, Note_on_c, 0, 59, 55
2, 111248, Note_on_c, 0, 62, 50
2, 111280, Note_on_c, 0, 55, 0
2, 111280, Note_on_c, 0, 46, 0
2, 111304, Note_on_c, 0, 59, 0
2, 111324, Note_on_c, 0, 62, 0
2, 111336, Note_on_c, 0, 47, 30
2, 111360, Control_c, 0, 64, 127
2, 111364, Note_on_c, 0, 47, 0
2, 111592, Note_on_c, 0, 72, 74
2, 111592, Note_on_c, 0, 62, 67
2, 111596, Note_on_c, 0, 67, 69
2, 111676, Note_on_c, 0, 62, 0
2, 111708, Control_c, 0, 64, 0
2, 111712, Note_on_c, 0, 72, 0
2, 111720, Note_on_c, 0, 57, 24
2, 111736, Note_on_c, 0, 71, 54
2, 111744, Note_on_c, 0, 62, 18
2, 111788, Control_c, 0, 64, 127
2, 111848, Note_on_c, 0, 62, 0
2, 111852, Note_on_c, 0, 67, 0
2, 111864, Note_on_c, 0, 71, 0
2, 111896, Note_on_c, 0, 57, 0
2, 111976, Note_on_c, 0, 74, 64
2, 111984, Note_on_c, 0, 70, 53
2, 111988, Note_on_c, 0, 67, 57
2, 111988, Note_on_c, 0, 64, 51
2, 112012, Note_on_c, 0, 64, 0
2, 112032, Note_on_c, 0, 70, 0
2, 112036, Note_on_c, 0, 67, 0
2, 112044, Control_c, 0, 64, 0
2, 112064, Note_on_c, 0, 74, 0
2, 112068, Note_on_c, 0, 48, 42
2, 112104, Note_on_c, 0, 58, 13
2, 112132, Note_on_c, 0, 48, 0
2, 112136, Control_c, 0, 64, 127
2, 112192, Note_on_c, 0, 58, 0
2, 112356, Note_on_c, 0, 86, 74
2, 112356, Note_on_c, 0, 76, 64
2, 112360, Note_on_c, 0, 79, 68
2, 112360, Note_on_c, 0, 82, 62
2, 112392, Note_on_c, 0, 76, 0
2, 112400, Note_on_c, 0, 82, 0
2, 112400, Note_on_c, 0, 79, 0
2, 112408, Note_on_c, 0, 86, 0
2, 112476, Control_c, 0, 64, 0
2, 112484, Note_on_c, 0, 58, 28
2, 112488, Note_on_c, 0, 50, 52
2, 112612, Control_c, 0, 64, 127
2, 112768, Note_on_c, 0, 58, 0
2, 112820, Note_on_c, 0, 50, 0
2, 112844, Control_c, 0, 64, 0
2, 112860, Note_on_c, 0, 58, 39
2, 112872, Note_on_c, 0, 51, 49
2, 112968, Control_c, 0, 64, 127
2, 113232, Control_c, 0, 64, 0
2, 113256, Note_on_c, 0, 60, 36
2, 113260, Note_on_c, 0, 64, 46
2, 113268, Note_on_c, 0, 51, 0
2, 113272, Note_on_c, 0, 52, 41
2, 113308, Note_on_c, 0, 58, 0
2, 113336, Control_c, 0, 64, 127
2, 113348, Note_on_c, 0, 52, 0
2, 113392, Note_on_c, 0, 64, 0
2, 113452, Note_on_c, 0, 60, 0
2, 113528, Note_on_c, 0, 42, 52
2, 113600, Note_on_c, 0, 42, 0
2, 113628, Note_on_c, 0, 43, 68
2, 113632, Note_on_c, 0, 59, 69
2, 113636, Note_on_c, 0, 67, 53
2, 113648, Control_c, 0, 64, 0
2, 113884, Control_c, 0, 64, 127
2, 113928, Note_on_c, 0, 42, 44
2, 113944, Note_on_c, 0, 43, 0
2, 113964, Note_on_c, 0, 59, 0
2, 114016, Note_on_c, 0, 60, 53
2, 114020, Note_on_c, 0, 45, 43
2, 114028, Control_c, 0, 64, 0
2, 114048, Note_on_c, 0, 42, 0
2, 114252, Note_on_c, 0, 60, 0
2, 114272, Control_c, 0, 64, 127
2, 114392, Control_c, 0, 64, 0
2, 114408, Note_on_c, 0, 61, 58
2, 114412, Note_on_c, 0, 46, 48
2, 114460, Note_on_c, 0, 45, 0
2, 114508, Control_c, 0, 64, 127
2, 114552, Control_c, 0, 64, 0
2, 114560, Note_on_c, 0, 46, 0
2, 114560, Control_c, 0, 64, 127
2, 114616, Note_on_c, 0, 61, 0
2, 114616, Note_on_c, 0, 67, 0
2, 114660, Note_on_c, 0, 62, 47
2, 114672, Note_on_c, 0, 47, 42
2, 114744, Note_on_c, 0, 62, 0
2, 114772, Note_on_c, 0, 47, 0
2, 114772, Control_c, 0, 64, 0
2, 114776, Note_on_c, 0, 58, 69
2, 114784, Note_on_c, 0, 64, 70
2, 114792, Note_on_c, 0, 48, 64
2, 114912, Control_c, 0, 64, 127
2, 115052, Note_on_c, 0, 58, 0
2, 115064, Note_on_c, 0, 48, 0
2, 115104, Note_on_c, 0, 64, 0
2, 115164, Control_c, 0, 64, 0
2, 115168, Note_on_c, 0, 47, 53
2, 115176, Note_on_c, 0, 62, 55
2, 115176, Note_on_c, 0, 57, 61
2, 115180, Note_on_c, 0, 66, 51
2, 115436, Note_on_c, 0, 57, 0
2, 115448, Control_c, 0, 64, 127
2, 115456, Note_on_c, 0, 35, 81
2, 115472, Note_on_c, 0, 62, 0
2, 115500, Note_on_c, 0, 66, 0
2, 115684, Note_on_c, 0, 35, 0
2, 115692, Note_on_c, 0, 47, 0
2, 115752, Note_on_c, 0, 78, 70
2, 115832, Note_on_c, 0, 78, 0
2, 115864, Note_on_c, 0, 74, 54
2, 115892, Note_on_c, 0, 74, 0
2, 115912, Control_c, 0, 64, 0
2, 115964, Note_on_c, 0, 34, 36
2, 115968, Note_on_c, 0, 79, 80
2, 115968, Note_on_c, 0, 72, 82
2, 115980, Note_on_c, 0, 46, 27
2, 115996, Control_c, 0, 64, 127
2, 116008, Note_on_c, 0, 34, 0
2, 116024, Note_on_c, 0, 46, 0
2, 116140, Note_on_c, 0, 72, 0
2, 116172, Note_on_c, 0, 79, 0
2, 116240, Note_on_c, 0, 76, 61
2, 116248, Note_on_c, 0, 72, 53
2, 116248, Note_on_c, 0, 67, 52
2, 116252, Note_on_c, 0, 56, 36
2, 116256, Note_on_c, 0, 62, 37
2, 116320, Note_on_c, 0, 62, 0
2, 116352, Note_on_c, 0, 56, 0
2, 116612, Note_on_c, 0, 46, 68
2, 116632, Note_on_c, 0, 72, 0
2, 116636, Note_on_c, 0, 67, 0
2, 116676, Note_on_c, 0, 76, 0
2, 116696, Note_on_c, 0, 46, 0
2, 116708, Control_c, 0, 64, 0
2, 116760, Note_on_c, 0, 45, 60
2, 116772, Control_c, 0, 64, 127
2, 116776, Note_on_c, 0, 45, 0
2, 116988, Note_on_c, 0, 84, 83
2, 116988, Note_on_c, 0, 72, 71
2, 116996, Note_on_c, 0, 60, 56
2, 116996, Note_on_c, 0, 64, 68
2, 117000, Note_on_c, 0, 59, 59
2, 117000, Note_on_c, 0, 55, 61
2, 117012, Control_c, 0, 64, 0
2, 117072, Control_c, 0, 64, 127
2, 117156, Note_on_c, 0, 64, 0
2, 117160, Note_on_c, 0, 60, 0
2, 117164, Note_on_c, 0, 59, 0
2, 117196, Note_on_c, 0, 55, 0
2, 117340, Note_on_c, 0, 84, 0
2, 117360, Note_on_c, 0, 72, 0
2, 117500, Control_c, 0, 64, 0
2, 117504, Note_on_c, 0, 71, 45
2, 117504, Note_on_c, 0, 52, 44
2, 117508, Note_on_c, 0, 76, 37
2, 117512, Note_on_c, 0, 83, 28
2, 117544, Note_on_c, 0, 83, 0
2, 117544, Note_on_c, 0, 76, 0
2, 117544, Note_on_c, 0, 71, 0
2, 117580, Note_on_c, 0, 52, 0
2, 117864, Note_on_c, 0, 51, 31
2, 117868, Note_on_c, 0, 39, 31
2, 118020, Note_on_c, 0, 51, 0
2, 118036, Note_on_c, 0, 39, 0
2, 118052, Control_c, 0, 64, 127
2, 118192, Control_c, 0, 64, 0
2, 118244, Note_on_c, 0, 79, 60
2, 118244, Note_on_c, 0, 38, 36
2, 118248, Note_on_c, 0, 76, 53
2, 118248, Note_on_c, 0, 72, 55
2, 118252, Note_on_c, 0, 50, 40
2, 118252, Note_on_c, 0, 67, 47
2, 118276, Note_on_c, 0, 38, 0
2, 118312, Note_on_c, 0, 72, 0
2, 118320, Note_on_c, 0, 50, 0
2, 118364, Note_on_c, 0, 79, 0
2, 118364, Note_on_c, 0, 67, 0
2, 118364, Note_on_c, 0, 76, 0
2, 118520, Control_c, 0, 64, 127
2, 118608, Control_c, 0, 64, 0
2, 118612, Note_on_c, 0, 76, 61
2, 118620, Note_on_c, 0, 60, 42
2, 118624, Note_on_c, 0, 67, 47
2, 118624, Note_on_c, 0, 72, 54
2, 118624, Note_on_c, 0, 54, 40
2, 118648, Note_on_c, 0, 60, 0
2, 118700, Note_on_c, 0, 54, 0
2, 118712, Note_on_c, 0, 72, 0
2, 118716, Note_on_c, 0, 67, 0
2, 118740, Note_on_c, 0, 76, 0
2, 119008, Note_on_c, 0, 50, 61
2, 119012, Note_on_c, 0, 48, 64
2, 119016, Note_on_c, 0, 49, 45
2, 119016, Note_on_c, 0, 79, 73
2, 119020, Note_on_c, 0, 67, 71
2, 119020, Note_on_c, 0, 72, 66
2, 119024, Note_on_c, 0, 76, 55
2, 119036, Note_on_c, 0, 49, 0
2, 119048, Note_on_c, 0, 76, 0
2, 119068, Note_on_c, 0, 79, 0
2, 119068, Note_on_c, 0, 72, 0
2, 119084, Note_on_c, 0, 48, 0
2, 119100, Note_on_c, 0, 67, 0
2, 119284, Note_on_c, 0, 67, 76
2, 119324, Note_on_c, 0, 67, 0
2, 119412, Note_on_c, 0, 69, 73
2, 119416, Note_on_c, 0, 74, 60
2, 119428, Note_on_c, 0, 70, 71
2, 119472, Note_on_c, 0, 69, 0
2, 119484, Note_on_c, 0, 74, 0
2, 119516, Note_on_c, 0, 70, 0
2, 119528, Note_on_c, 0, 74, 64
2, 119536, Note_on_c, 0, 71, 71
2, 119560, Note_on_c, 0, 72, 37
2, 119580, Note_on_c, 0, 72, 0
2, 119580, Note_on_c, 0, 71, 0
2, 119580, Note_on_c, 0, 74, 0
2, 119652, Note_on_c, 0, 76, 84
2, 119652, Note_on_c, 0, 72, 81
2, 119712, Note_on_c, 0, 76, 0
2, 119716, Note_on_c, 0, 72, 0
2, 119812, Note_on_c, 0, 76, 85
2, 119816, Note_on_c, 0, 72, 87
2, 119908, Note_on_c, 0, 72, 0
2, 119912, Note_on_c, 0, 76, 0
2, 120052, Note_on_c, 0, 74, 99
2, 120056, Note_on_c, 0, 77, 87
2, 120132, Note_on_c, 0, 77, 0
2, 120148, Note_on_c, 0, 74, 0
2, 120200, Note_on_c, 0, 76, 69
2, 120200, Note_on_c, 0, 72, 69
2, 120260, Note_on_c, 0, 72, 0
2, 120264, Note_on_c, 0, 76, 0
2, 120328, Note_on_c, 0, 70, 70
2, 120328, Note_on_c, 0, 74, 61
2, 120396, Note_on_c, 0, 74, 0
2, 120396, Note_on_c, 0, 70, 0
2, 120440, Note_on_c, 0, 50, 0
2, 120440, Note_on_c, 0, 74, 69
2, 120448, Note_on_c, 0, 71, 74
2, 120508, Note_on_c, 0, 74, 0
2, 120520, Note_on_c, 0, 71, 0
2, 120568, Note_on_c, 0, 67, 45
2, 120648, Note_on_c, 0, 67, 0
2, 120688, Note_on_c, 0, 62, 36
2, 120756, Note_on_c, 0, 62, 0
2, 120804, Note_on_c, 0, 60, 54
2, 120824, Note_on_c, 0, 67, 29
2, 120928, Note_on_c, 0, 60, 0
2, 120944, Note_on_c, 0, 58, 46
2, 120996, Note_on_c, 0, 67, 0
2, 121012, Note_on_c, 0, 58, 0
2, 121056, Note_on_c, 0, 59, 48
2, 121076, Note_on_c, 0, 67, 22
2, 121128, Note_on_c, 0, 59, 0
2, 121192, Note_on_c, 0, 49, 55
2, 121192, Note_on_c, 0, 50, 71
2, 121196, Note_on_c, 0, 60, 68
2, 121228, Note_on_c, 0, 49, 0
2, 121244, Note_on_c, 0, 67, 0
2, 121284, Note_on_c, 0, 60, 0
2, 121324, Note_on_c, 0, 61, 45
2, 121404, Note_on_c, 0, 61, 0
2, 121408, Note_on_c, 0, 50, 0
2, 121436, Note_on_c, 0, 62, 50
2, 121516, Note_on_c, 0, 62, 0
2, 121568, Note_on_c, 0, 65, 65
2, 121572, Note_on_c, 0, 60, 66
2, 121576, Note_on_c, 0, 55, 62
2, 121580, Note_on_c, 0, 57, 58
2, 121632, Note_on_c, 0, 57, 0
2, 121632, Control_c, 0, 64, 127
2, 121636, Note_on_c, 0, 65, 0
2, 121656, Note_on_c, 0, 60, 0
2, 121696, Control_c, 0, 64, 0
2, 121720, Note_on_c, 0, 69, 57
2, 121720, Note_on_c, 0, 43, 50
2, 121720, Note_on_c, 0, 64, 52
2, 121732, Note_on_c, 0, 60, 40
2, 121752, Control_c, 0, 64, 127
2, 121788, Note_on_c, 0, 55, 0
2, 121792, Note_on_c, 0, 60, 0
2, 121796, Note_on_c, 0, 43, 0
2, 121800, Note_on_c, 0, 64, 0
2, 121816, Note_on_c, 0, 69, 0
2, 121980, Note_on_c, 0, 59, 68
2, 121980, Note_on_c, 0, 63, 54
2, 121988, Note_on_c, 0, 65, 55
2, 121988, Note_on_c, 0, 68, 27
2, 121992, Note_on_c, 0, 53, 53
2, 122000, Control_c, 0, 64, 0
2, 122164, Control_c, 0, 64, 127
2, 122360, Note_on_c, 0, 63, 0
2, 122372, Note_on_c, 0, 43, 39
2, 122380, Note_on_c, 0, 59, 0
2, 122380, Note_on_c, 0, 53, 0
2, 122380, Note_on_c, 0, 65, 0
2, 122444, Note_on_c, 0, 68, 0
2, 122484, Note_on_c, 0, 43, 0
2, 122508, Note_on_c, 0, 63, 45
2, 122516, Note_on_c, 0, 52, 35
2, 122516, Note_on_c, 0, 59, 34
2, 122568, Note_on_c, 0, 52, 0
2, 122680, Note_on_c, 0, 59, 0
2, 122724, Note_on_c, 0, 63, 0
2, 122776, Note_on_c, 0, 62, 48
2, 122796, Note_on_c, 0, 57, 29
2, 122808, Control_c, 0, 64, 0
2, 122832, Note_on_c, 0, 57, 0
2, 122876, Note_on_c, 0, 62, 0
2, 122880, Control_c, 0, 64, 127
2, 122888, Note_on_c, 0, 36, 24
2, 122888, Note_on_c, 0, 52, 31
2, 122888, Note_on_c, 0, 43, 17
2, 122912, Note_on_c, 0, 36, 0
2, 122952, Note_on_c, 0, 43, 0
2, 122976, Note_on_c, 0, 52, 0
2, 123148, Note_on_c, 0, 79, 57
2, 123148, Note_on_c, 0, 76, 54
2, 123152, Note_on_c, 0, 67, 44
2, 123152, Note_on_c, 0, 72, 57
2, 123232, Control_c, 0, 64, 0
2, 123236, Note_on_c, 0, 62, 33
2, 123280, Note_on_c, 0, 62, 0
2, 123320, Control_c, 0, 64, 127
2, 123544, Note_on_c, 0, 48, 43
2, 123584, Note_on_c, 0, 48, 0
2, 123676, Note_on_c, 0, 48, 31
2, 123680, Note_on_c, 0, 56, 37
2, 123684, Control_c, 0, 64, 0
2, 123720, Note_on_c, 0, 79, 0
2, 123736, Note_on_c, 0, 76, 0
2, 123740, Note_on_c, 0, 72, 0
2, 123764, Note_on_c, 0, 67, 0
2, 123780, Control_c, 0, 64, 127
2, 123948, Note_on_c, 0, 56, 0
2, 124056, Note_on_c, 0, 68, 49
2, 124060, Note_on_c, 0, 56, 36
2, 124072, Control_c, 0, 64, 0
2, 124132, Note_on_c, 0, 48, 0
2, 124168, Control_c, 0, 64, 127
2, 124308, Note_on_c, 0, 68, 0
2, 124312, Note_on_c, 0, 48, 47
2, 124336, Note_on_c, 0, 56, 0
2, 124412, Control_c, 0, 64, 0
2, 124440, Note_on_c, 0, 67, 39
2, 124440, Note_on_c, 0, 64, 34
2, 124448, Note_on_c, 0, 57, 31
2, 124468, Control_c, 0, 64, 127
2, 124504, Note_on_c, 0, 64, 0
2, 124512, Note_on_c, 0, 48, 0
2, 124540, Note_on_c, 0, 67, 0
2, 124568, Note_on_c, 0, 57, 0
2, 124696, Note_on_c, 0, 76, 65
2, 124700, Note_on_c, 0, 67, 51
2, 124700, Note_on_c, 0, 69, 64
2, 124708, Note_on_c, 0, 72, 51
2, 124788, Note_on_c, 0, 76, 0
2, 124788, Control_c, 0, 64, 0
2, 124792, Note_on_c, 0, 72, 0
2, 124796, Note_on_c, 0, 57, 41
2, 124800, Note_on_c, 0, 67, 0
2, 124808, Note_on_c, 0, 69, 0
2, 124820, Control_c, 0, 64, 127
2, 125012, Note_on_c, 0, 57, 0
2, 125044, Note_on_c, 0, 69, 53
2, 125048, Note_on_c, 0, 63, 38
2, 125052, Note_on_c, 0, 66, 43
2, 125060, Note_on_c, 0, 60, 39
2, 125092, Note_on_c, 0, 60, 0
2, 125104, Control_c, 0, 64, 0
2, 125112, Note_on_c, 0, 63, 0
2, 125120, Note_on_c, 0, 66, 0
2, 125140, Note_on_c, 0, 69, 0
2, 125144, Note_on_c, 0, 57, 42
2, 125179, Note_on_c, 0, 50, 34
2, 125180, Control_c, 0, 64, 127
2, 125260, Note_on_c, 0, 57, 0
2, 125263, Note_on_c, 0, 50, 0
2, 125412, Note_on_c, 0, 74, 68
2, 125416, Note_on_c, 0, 66, 57
2, 125420, Note_on_c, 0, 63, 57
2, 125424, Note_on_c, 0, 69, 56
2, 125500, Control_c, 0, 64, 0
2, 125524, Note_on_c, 0, 60, 37
2, 125564, Note_on_c, 0, 60, 0
2, 125572, Control_c, 0, 64, 127
2, 125644, Note_on_c, 0, 69, 0
2, 125720, Note_on_c, 0, 63, 0
2, 125728, Note_on_c, 0, 66, 0
2, 125832, Note_on_c, 0, 74, 0
2, 125904, Note_on_c, 0, 50, 17
2, 125920, Note_on_c, 0, 59, 40
2, 125920, Note_on_c, 0, 71, 43
2, 125924, Control_c, 0, 64, 0
2, 125928, Note_on_c, 0, 62, 35
2, 125928, Note_on_c, 0, 67, 36
2, 126016, Control_c, 0, 64, 127
2, 126080, Note_on_c, 0, 62, 0
2, 126128, Note_on_c, 0, 67, 0
2, 126148, Note_on_c, 0, 59, 0
2, 126156, Note_on_c, 0, 71, 0
2, 126324, Note_on_c, 0, 76, 72
2, 126332, Note_on_c, 0, 62, 46
2, 126336, Note_on_c, 0, 71, 68
2, 126336, Note_on_c, 0, 67, 54
2, 126344, Control_c, 0, 64, 0
2, 126432, Control_c, 0, 64, 127
2, 126472, Note_on_c, 0, 62, 0
2, 126504, Note_on_c, 0, 71, 0
2, 126508, Note_on_c, 0, 76, 0
2, 126516, Note_on_c, 0, 67, 0
2, 126692, Control_c, 0, 64, 0
2, 126700, Note_on_c, 0, 74, 53
2, 126704, Note_on_c, 0, 59, 40
2, 126708, Note_on_c, 0, 71, 42
2, 126712, Note_on_c, 0, 62, 29
2, 126712, Note_on_c, 0, 67, 41
2, 126760, Control_c, 0, 64, 127
2, 126820, Note_on_c, 0, 71, 0
2, 126836, Note_on_c, 0, 74, 0
2, 126836, Note_on_c, 0, 50, 0
2, 126844, Note_on_c, 0, 67, 0
2, 126876, Note_on_c, 0, 62, 0
2, 127088, Note_on_c, 0, 59, 0
2, 127088, Note_on_c, 0, 71, 48
2, 127088, Note_on_c, 0, 67, 44
2, 127092, Note_on_c, 0, 62, 46
2, 127092, Note_on_c, 0, 50, 47
2, 127160, Note_on_c, 0, 50, 0
2, 127492, Control_c, 0, 64, 0
2, 127508, Note_on_c, 0, 48, 99
2, 127616, Control_c, 0, 64, 127
2, 127640, Note_on_c, 0, 67, 0
2, 127672, Note_on_c, 0, 62, 0
2, 127676, Note_on_c, 0, 71, 0
2, 127888, Note_on_c, 0, 62, 34
2, 127896, Note_on_c, 0, 57, 34
2, 127912, Note_on_c, 0, 67, 20
2, 128104, Note_on_c, 0, 62, 0
2, 128120, Note_on_c, 0, 67, 0
2, 128120, Note_on_c, 0, 57, 0
2, 128136, Note_on_c, 0, 46, 29
2, 128160, Note_on_c, 0, 48, 0
2, 128252, Note_on_c, 0, 46, 0
2, 128252, Note_on_c, 0, 62, 50
2, 128256, Note_on_c, 0, 47, 59
2, 128260, Note_on_c, 0, 57, 48
2, 128268, Note_on_c, 0, 66, 48
2, 128272, Control_c, 0, 64, 0
2, 128372, Control_c, 0, 64, 127
2, 128492, Note_on_c, 0, 62, 0
2, 128520, Note_on_c, 0, 57, 0
2, 128652, Note_on_c, 0, 57, 42
2, 128656, Note_on_c, 0, 62, 34
2, 128672, Note_on_c, 0, 47, 0
2, 128812, Note_on_c, 0, 62, 0
2, 128876, Note_on_c, 0, 66, 0
2, 128892, Note_on_c, 0, 57, 0
2, 128892, Note_on_c, 0, 47, 43
2, 128984, Note_on_c, 0, 47, 0
2, 129012, Control_c, 0, 64, 0
2, 129020, Note_on_c, 0, 59, 49
2, 129024, Note_on_c, 0, 40, 40
2, 129032, Note_on_c, 0, 52, 29
2, 129032, Note_on_c, 0, 55, 31
2, 129064, Note_on_c, 0, 55, 0
2, 129076, Control_c, 0, 64, 127
2, 129092, Note_on_c, 0, 40, 0
2, 129116, Note_on_c, 0, 59, 0
2, 129120, Note_on_c, 0, 52, 0
2, 129400, Note_on_c, 0, 59, 41
2, 129420, Note_on_c, 0, 55, 34
2, 129424, Note_on_c, 0, 52, 28
2, 129536, Note_on_c, 0, 64, 54
2, 129560, Note_on_c, 0, 64, 0
2, 129636, Note_on_c, 0, 67, 79
2, 129688, Note_on_c, 0, 67, 0
2, 129748, Note_on_c, 0, 71, 96
2, 129752, Note_on_c, 0, 63, 80
2, 129752, Note_on_c, 0, 67, 96
2, 129776, Control_c, 0, 64, 0
2, 129860, Note_on_c, 0, 67, 0
2, 129880, Note_on_c, 0, 71, 0
2, 129908, Control_c, 0, 64, 127
2, 129916, Note_on_c, 0, 67, 67
2, 129916, Note_on_c, 0, 71, 81
2, 130052, Note_on_c, 0, 67, 0
2, 130056, Note_on_c, 0, 63, 0
2, 130116, Note_on_c, 0, 67, 45
2, 130132, Note_on_c, 0, 64, 45
2, 130140, Note_on_c, 0, 63, 39
2, 130264, Note_on_c, 0, 59, 0
2, 130300, Note_on_c, 0, 55, 0
2, 130308, Note_on_c, 0, 52, 0
2, 130348, Note_on_c, 0, 63, 0
2, 130368, Note_on_c, 0, 64, 0
2, 130376, Note_on_c, 0, 59, 35
2, 130392, Note_on_c, 0, 67, 0
2, 130392, Note_on_c, 0, 55, 28
2, 130404, Note_on_c, 0, 71, 0
2, 130500, Note_on_c, 0, 67, 46
2, 130504, Note_on_c, 0, 71, 56
2, 130508, Control_c, 0, 64, 0
2, 130508, Note_on_c, 0, 52, 1
2, 130508, Note_on_c, 0, 62, 33
2, 130616, Control_c, 0, 64, 127
2, 130656, Note_on_c, 0, 59, 0
2, 130724, Note_on_c, 0, 67, 0
2, 130756, Note_on_c, 0, 62, 0
2, 130900, Note_on_c, 0, 67, 48
2, 130908, Note_on_c, 0, 62, 35
2, 130956, Note_on_c, 0, 71, 0
2, 130972, Note_on_c, 0, 67, 0
2, 130976, Note_on_c, 0, 55, 0
2, 130984, Note_on_c, 0, 62, 0
2, 131016, Note_on_c, 0, 52, 0
2, 131268, Control_c, 0, 64, 0
2, 131272, Note_on_c, 0, 63, 45
2, 131280, Note_on_c, 0, 45, 45
2, 131284, Note_on_c, 0, 55, 40
2, 131284, Note_on_c, 0, 58, 37
2, 131288, Note_on_c, 0, 61, 37
2, 131344, Note_on_c, 0, 58, 0
2, 131348, Note_on_c, 0, 55, 0
2, 131364, Note_on_c, 0, 61, 0
2, 131368, Note_on_c, 0, 63, 0
2, 131408, Note_on_c, 0, 58, 35
2, 131408, Note_on_c, 0, 61, 25
2, 131412, Note_on_c, 0, 55, 41
2, 131416, Note_on_c, 0, 64, 49
2, 131424, Control_c, 0, 64, 127
2, 131428, Note_on_c, 0, 52, 39
2, 131492, Note_on_c, 0, 64, 0
2, 131496, Note_on_c, 0, 55, 0
2, 131508, Note_on_c, 0, 61, 0
2, 131512, Note_on_c, 0, 58, 0
2, 131540, Note_on_c, 0, 52, 0
2, 131672, Note_on_c, 0, 67, 61
2, 131672, Note_on_c, 0, 58, 57
2, 131676, Note_on_c, 0, 61, 62
2, 131676, Note_on_c, 0, 55, 64
2, 131680, Note_on_c, 0, 64, 57
2, 131680, Control_c, 0, 64, 0
2, 131716, Control_c, 0, 64, 127
2, 131756, Note_on_c, 0, 45, 0
2, 131776, Note_on_c, 0, 58, 0
2, 131776, Note_on_c, 0, 64, 0
2, 131784, Note_on_c, 0, 67, 0
2, 131788, Note_on_c, 0, 61, 0
2, 131828, Note_on_c, 0, 55, 0
2, 131940, Note_on_c, 0, 71, 80
2, 131940, Note_on_c, 0, 59, 80
2, 131944, Note_on_c, 0, 67, 77
2, 131944, Note_on_c, 0, 64, 80
2, 131944, Note_on_c, 0, 60, 77
2, 131968, Control_c, 0, 64, 0
2, 132092, Note_on_c, 0, 60, 0
2, 132096, Note_on_c, 0, 64, 0
2, 132108, Note_on_c, 0, 71, 0
2, 132112, Note_on_c, 0, 59, 0
2, 132124, Note_on_c, 0, 67, 0
2, 132160, Note_on_c, 0, 64, 59
2, 132160, Note_on_c, 0, 59, 52
2, 132164, Note_on_c, 0, 67, 51
2, 132168, Note_on_c, 0, 71, 62
2, 132168, Note_on_c, 0, 60, 56
2, 132244, Control_c, 0, 64, 127
2, 132336, Note_on_c, 0, 60, 0
2, 132344, Note_on_c, 0, 64, 0
2, 132368, Note_on_c, 0, 71, 0
2, 132376, Note_on_c, 0, 67, 0
2, 132388, Note_on_c, 0, 59, 0
2, 132412, Control_c, 0, 64, 0
2, 132444, Note_on_c, 0, 60, 32
2, 132448, Note_on_c, 0, 69, 43
2, 132448, Note_on_c, 0, 64, 34
2, 132460, Note_on_c, 0, 57, 29
2, 132464, Control_c, 0, 64, 127
2, 132536, Note_on_c, 0, 64, 0
2, 132560, Note_on_c, 0, 60, 0
2, 132608, Note_on_c, 0, 69, 0
2, 132692, Note_on_c, 0, 57, 0
2, 132696, Note_on_c, 0, 59, 46
2, 132704, Note_on_c, 0, 60, 37
2, 132704, Note_on_c, 0, 64, 52
2, 132708, Note_on_c, 0, 71, 42
2, 132716, Note_on_c, 0, 67, 31
2, 132720, Control_c, 0, 64, 0
2, 132776, Control_c, 0, 64, 127
2, 132984, Note_on_c, 0, 60, 0
2, 132996, Note_on_c, 0, 67, 0
2, 132996, Note_on_c, 0, 64, 0
2, 133072, Note_on_c, 0, 64, 66
2, 133076, Note_on_c, 0, 69, 60
2, 133076, Note_on_c, 0, 60, 58
2, 133092, Note_on_c, 0, 71, 0
2, 133092, Note_on_c, 0, 57, 47
2, 133100, Note_on_c, 0, 59, 0
2, 133240, Note_on_c, 0, 60, 0
2, 133296, Note_on_c, 0, 64, 0
2, 133344, Note_on_c, 0, 69, 0
2, 133404, Note_on_c, 0, 57, 0
2, 133456, Note_on_c, 0, 71, 84
2, 133460, Note_on_c, 0, 68, 84
2, 133460, Note_on_c, 0, 64, 89
2, 133464, Note_on_c, 0, 54, 64
2, 133468, Note_on_c, 0, 60, 77
2, 133468, Note_on_c, 0, 50, 74
2, 133500, Control_c, 0, 64, 0
2, 133560, Note_on_c, 0, 60, 0
2, 133580, Note_on_c, 0, 54, 0
2, 133588, Note_on_c, 0, 64, 0
2, 133596, Note_on_c, 0, 50, 0
2, 133604, Note_on_c, 0, 71, 0
2, 133612, Note_on_c, 0, 68, 0
2, 133872, Note_on_c, 0, 26, 54
2, 133876, Note_on_c, 0, 38, 39
2, 133916, Control_c, 0, 64, 127
2, 133956, Note_on_c, 0, 26, 0
2, 133980, Note_on_c, 0, 38, 0
2, 134280, Note_on_c, 0, 71, 64
2, 134284, Note_on_c, 0, 83, 59
2, 134320, Note_on_c, 0, 71, 0
2, 134332, Note_on_c, 0, 83, 0
2, 134384, Control_c, 0, 64, 0
2, 134412, Note_on_c, 0, 72, 56
2, 134416, Note_on_c, 0, 84, 68
2, 134544, Note_on_c, 0, 84, 0
2, 134564, Note_on_c, 0, 72, 0
2, 134752, Note_on_c, 0, 85, 52
2, 134768, Note_on_c, 0, 73, 30
2, 134876, Note_on_c, 0, 73, 0
2, 134892, Note_on_c, 0, 85, 0
2, 134960, Control_c, 0, 64, 127
2, 135092, Control_c, 0, 64, 0
2, 135124, Note_on_c, 0, 50, 19
2, 135128, Note_on_c, 0, 86, 36
2, 135136, Note_on_c, 0, 74, 33
2, 135144, Note_on_c, 0, 43, 18
2, 135204, Note_on_c, 0, 43, 0
2, 135220, Note_on_c, 0, 50, 0
2, 135220, Note_on_c, 0, 59, 1
2, 135256, Note_on_c, 0, 59, 0
2, 135288, Note_on_c, 0, 86, 0
2, 135296, Note_on_c, 0, 74, 0
2, 135528, Note_on_c, 0, 62, 24
2, 135532, Note_on_c, 0, 59, 29
2, 135608, Note_on_c, 0, 62, 0
2, 135624, Note_on_c, 0, 59, 0
2, 135792, Control_c, 0, 64, 127
2, 135868, Control_c, 0, 64, 0
2, 135968, Note_on_c, 0, 50, 17
2, 136000, Note_on_c, 0, 50, 0
2, 136088, Control_c, 0, 64, 127
2, 136184, Note_on_c, 0, 84, 66
2, 136192, Note_on_c, 0, 72, 53
2, 136232, Note_on_c, 0, 84, 0
2, 136252, Note_on_c, 0, 72, 0
2, 136276, Control_c, 0, 64, 0
2, 136308, Note_on_c, 0, 59, 41
2, 136316, Note_on_c, 0, 62, 24
2, 136316, Note_on_c, 0, 71, 49
2, 136316, Note_on_c, 0, 83, 45
2, 136352, Note_on_c, 0, 62, 0
2, 136372, Note_on_c, 0, 59, 0
2, 136388, Note_on_c, 0, 71, 0
2, 136408, Note_on_c, 0, 83, 0
2, 136444, Control_c, 0, 64, 127
2, 136556, Note_on_c, 0, 86, 71
2, 136560, Note_on_c, 0, 82, 61
2, 136564, Note_on_c, 0, 74, 63
2, 136564, Note_on_c, 0, 79, 64
2, 136612, Control_c, 0, 64, 0
2, 136680, Note_on_c, 0, 58, 25
2, 136684, Note_on_c, 0, 50, 45
2, 136860, Control_c, 0, 64, 127
2, 136896, Note_on_c, 0, 58, 0
2, 137020, Control_c, 0, 64, 0
2, 137048, Note_on_c, 0, 50, 0
2, 137068, Note_on_c, 0, 51, 42
2, 137072, Note_on_c, 0, 58, 23
2, 137248, Control_c, 0, 64, 127
2, 137268, Note_on_c, 0, 79, 0
2, 137276, Note_on_c, 0, 74, 0
2, 137292, Note_on_c, 0, 82, 0
2, 137304, Note_on_c, 0, 86, 0
2, 137304, Note_on_c, 0, 58, 0
2, 137424, Control_c, 0, 64, 0
2, 137460, Note_on_c, 0, 86, 43
2, 137460, Note_on_c, 0, 79, 44
2, 137472, Note_on_c, 0, 58, 25
2, 137472, Note_on_c, 0, 74, 36
2, 137476, Note_on_c, 0, 52, 52
2, 137484, Note_on_c, 0, 51, 0
2, 137532, Note_on_c, 0, 86, 0
2, 137560, Note_on_c, 0, 79, 0
2, 137576, Note_on_c, 0, 74, 0
2, 137592, Control_c, 0, 64, 127
2, 137668, Note_on_c, 0, 58, 0
2, 137700, Note_on_c, 0, 52, 0
2, 137852, Note_on_c, 0, 44, 47
2, 137856, Note_on_c, 0, 60, 43
2, 137860, Control_c, 0, 64, 0
2, 137868, Note_on_c, 0, 67, 36
2, 137876, Note_on_c, 0, 54, 23
2, 138008, Control_c, 0, 64, 127
2, 138092, Note_on_c, 0, 54, 0
2, 138112, Note_on_c, 0, 50, 41
2, 138128, Note_on_c, 0, 60, 0
2, 138152, Note_on_c, 0, 44, 0
2, 138176, Note_on_c, 0, 67, 0
2, 138184, Note_on_c, 0, 50, 0
2, 138232, Note_on_c, 0, 62, 63
2, 138236, Note_on_c, 0, 67, 45
2, 138240, Note_on_c, 0, 47, 57
2, 138244, Control_c, 0, 64, 0
2, 138408, Control_c, 0, 64, 127
2, 138524, Note_on_c, 0, 44, 21
2, 138556, Note_on_c, 0, 47, 0
2, 138560, Note_on_c, 0, 67, 0
2, 138580, Note_on_c, 0, 62, 0
2, 138596, Note_on_c, 0, 44, 0
2, 138612, Note_on_c, 0, 45, 47
2, 138612, Note_on_c, 0, 67, 24
2, 138612, Note_on_c, 0, 60, 50
2, 138620, Control_c, 0, 64, 0
2, 138764, Control_c, 0, 64, 127
2, 138876, Note_on_c, 0, 67, 0
2, 138896, Note_on_c, 0, 45, 0
2, 138932, Note_on_c, 0, 42, 30
2, 138956, Note_on_c, 0, 60, 0
2, 138976, Note_on_c, 0, 42, 0
2, 138980, Control_c, 0, 64, 0
2, 138992, Note_on_c, 0, 43, 48
2, 138996, Note_on_c, 0, 59, 51
2, 139140, Note_on_c, 0, 59, 0
2, 139204, Control_c, 0, 64, 127
2, 139244, Note_on_c, 0, 43, 0
2, 139244, Note_on_c, 0, 37, 49
2, 139248, Note_on_c, 0, 53, 66
2, 139336, Note_on_c, 0, 37, 0
2, 139360, Note_on_c, 0, 53, 0
2, 139364, Control_c, 0, 64, 0
2, 139388, Note_on_c, 0, 36, 41
2, 139408, Note_on_c, 0, 52, 41
2, 139540, Control_c, 0, 64, 127
2, 139580, Note_on_c, 0, 52, 0
2, 139632, Note_on_c, 0, 43, 48
2, 139728, Note_on_c, 0, 43, 0
2, 139728, Note_on_c, 0, 36, 0
2, 139740, Control_c, 0, 64, 0
2, 139756, Note_on_c, 0, 62, 43
2, 139756, Note_on_c, 0, 47, 60
2, 139760, Note_on_c, 0, 57, 63
2, 139840, Note_on_c, 0, 57, 0
2, 139840, Control_c, 0, 64, 127
2, 139864, Note_on_c, 0, 62, 0
2, 139868, Note_on_c, 0, 47, 0
2, 140116, Note_on_c, 0, 69, 67
2, 140120, Note_on_c, 0, 62, 46
2, 140128, Control_c, 0, 64, 0
2, 140168, Note_on_c, 0, 69, 0
2, 140176, Note_on_c, 0, 62, 0
2, 140216, Control_c, 0, 64, 127
2, 140220, Note_on_c, 0, 74, 69
2, 140284, Note_on_c, 0, 74, 0
2, 140320, Note_on_c, 0, 78, 65
2, 140388, Note_on_c, 0, 78, 0
2, 140412, Note_on_c, 0, 80, 64
2, 140428, Note_on_c, 0, 79, 74
2, 140436, Note_on_c, 0, 80, 0
2, 140472, Note_on_c, 0, 79, 0
2, 140504, Control_c, 0, 64, 0
2, 140512, Note_on_c, 0, 56, 43
2, 140524, Note_on_c, 0, 72, 57
2, 140524, Note_on_c, 0, 76, 68
2, 140524, Note_on_c, 0, 62, 38
2, 140568, Note_on_c, 0, 62, 0
2, 140608, Control_c, 0, 64, 127
2, 140644, Note_on_c, 0, 56, 0
2, 140756, Note_on_c, 0, 72, 0
2, 140856, Note_on_c, 0, 76, 0
2, 140860, Control_c, 0, 64, 0
2, 140864, Note_on_c, 0, 72, 39
2, 140868, Note_on_c, 0, 56, 27
2, 140872, Note_on_c, 0, 46, 34
2, 140880, Note_on_c, 0, 67, 34
2, 140940, Control_c, 0, 64, 127
2, 140968, Note_on_c, 0, 72, 0
2, 141012, Note_on_c, 0, 67, 0
2, 141144, Note_on_c, 0, 56, 0
2, 141148, Note_on_c, 0, 67, 52
2, 141152, Note_on_c, 0, 64, 48
2, 141176, Note_on_c, 0, 46, 0
2, 141196, Note_on_c, 0, 64, 0
2, 141200, Control_c, 0, 64, 0
2, 141228, Note_on_c, 0, 67, 0
2, 141240, Note_on_c, 0, 45, 45
2, 141296, Control_c, 0, 64, 127
2, 141308, Note_on_c, 0, 55, 1
2, 141328, Note_on_c, 0, 45, 0
2, 141376, Note_on_c, 0, 55, 0
2, 141516, Note_on_c, 0, 86, 75
2, 141520, Note_on_c, 0, 74, 62
2, 141524, Note_on_c, 0, 79, 53
2, 141548, Note_on_c, 0, 79, 0
2, 141564, Note_on_c, 0, 74, 0
2, 141568, Note_on_c, 0, 86, 0
2, 141632, Note_on_c, 0, 64, 33
2, 141636, Note_on_c, 0, 60, 33
2, 141640, Control_c, 0, 64, 0
2, 141648, Note_on_c, 0, 86, 71
2, 141652, Note_on_c, 0, 59, 34
2, 141652, Note_on_c, 0, 74, 53
2, 141700, Note_on_c, 0, 74, 0
2, 141708, Note_on_c, 0, 64, 0
2, 141720, Note_on_c, 0, 86, 0
2, 141748, Note_on_c, 0, 60, 0
2, 141772, Note_on_c, 0, 83, 36
2, 141776, Note_on_c, 0, 59, 0
2, 141812, Note_on_c, 0, 83, 0
2, 141884, Note_on_c, 0, 86, 70
2, 141892, Note_on_c, 0, 74, 61
2, 141924, Control_c, 0, 64, 127
2, 141936, Note_on_c, 0, 86, 0
2, 141944, Note_on_c, 0, 74, 0
2, 141992, Control_c, 0, 64, 0
2, 142012, Note_on_c, 0, 60, 39
2, 142016, Note_on_c, 0, 86, 74
2, 142016, Note_on_c, 0, 74, 63
2, 142020, Note_on_c, 0, 64, 32
2, 142020, Note_on_c, 0, 57, 42
2, 142072, Note_on_c, 0, 64, 0
2, 142072, Note_on_c, 0, 74, 0
2, 142092, Note_on_c, 0, 86, 0
2, 142116, Note_on_c, 0, 60, 0
2, 142128, Note_on_c, 0, 57, 0
2, 142152, Note_on_c, 0, 83, 25
2, 142200, Note_on_c, 0, 83, 0
2, 142264, Note_on_c, 0, 86, 58
2, 142268, Note_on_c, 0, 74, 56
2, 142292, Control_c, 0, 64, 127
2, 142312, Note_on_c, 0, 86, 0
2, 142316, Note_on_c, 0, 74, 0
2, 142372, Control_c, 0, 64, 0
2, 142384, Note_on_c, 0, 86, 68
2, 142392, Note_on_c, 0, 74, 54
2, 142392, Note_on_c, 0, 51, 48
2, 142404, Note_on_c, 0, 79, 36
2, 142404, Note_on_c, 0, 61, 25
2, 142428, Note_on_c, 0, 79, 0
2, 142448, Note_on_c, 0, 74, 0
2, 142468, Note_on_c, 0, 86, 0
2, 142532, Note_on_c, 0, 83, 19
2, 142536, Note_on_c, 0, 61, 0
2, 142564, Note_on_c, 0, 83, 0
2, 142580, Note_on_c, 0, 51, 0
2, 142628, Note_on_c, 0, 86, 69
2, 142636, Note_on_c, 0, 74, 57
2, 142684, Note_on_c, 0, 74, 0
2, 142684, Control_c, 0, 64, 127
2, 142688, Note_on_c, 0, 86, 0
2, 142732, Control_c, 0, 64, 0
2, 142756, Note_on_c, 0, 60, 36
2, 142760, Note_on_c, 0, 54, 45
2, 142760, Note_on_c, 0, 86, 71
2, 142768, Note_on_c, 0, 74, 62
2, 142772, Note_on_c, 0, 50, 32
2, 142780, Note_on_c, 0, 60, 0
2, 142816, Note_on_c, 0, 86, 0
2, 142820, Note_on_c, 0, 50, 0
2, 142828, Note_on_c, 0, 54, 0
2, 142832, Note_on_c, 0, 74, 0
2, 142884, Note_on_c, 0, 82, 67
2, 142948, Note_on_c, 0, 82, 0
2, 143000, Note_on_c, 0, 50, 81
2, 143004, Note_on_c, 0, 49, 67
2, 143004, Note_on_c, 0, 78, 72
2, 143052, Note_on_c, 0, 49, 0
2, 143084, Note_on_c, 0, 78, 0
2, 143136, Note_on_c, 0, 76, 58
2, 143184, Note_on_c, 0, 76, 0
2, 143260, Note_on_c, 0, 74, 68
2, 143296, Note_on_c, 0, 74, 0
2, 143392, Note_on_c, 0, 73, 70
2, 143448, Note_on_c, 0, 73, 0
2, 143536, Note_on_c, 0, 72, 62
2, 143548, Note_on_c, 0, 38, 49
2, 143580, Note_on_c, 0, 72, 0
2, 143652, Note_on_c, 0, 50, 0
2, 143664, Note_on_c, 0, 70, 56
2, 143744, Note_on_c, 0, 70, 0
2, 143784, Note_on_c, 0, 66, 60
2, 143872, Note_on_c, 0, 66, 0
2, 143908, Note_on_c, 0, 64, 51
2, 143936, Note_on_c, 0, 50, 24
2, 143972, Note_on_c, 0, 64, 0
2, 144052, Note_on_c, 0, 62, 30
2, 144060, Note_on_c, 0, 60, 26
2, 144096, Note_on_c, 0, 62, 0
2, 144100, Note_on_c, 0, 38, 0
2, 144112, Note_on_c, 0, 60, 0
2, 144172, Note_on_c, 0, 42, 42
2, 144176, Note_on_c, 0, 57, 41
2, 144228, Control_c, 0, 64, 127
2, 144264, Note_on_c, 0, 57, 0
2, 144296, Note_on_c, 0, 50, 0
2, 144300, Note_on_c, 0, 42, 0
2, 144304, Control_c, 0, 64, 0
2, 144324, Note_on_c, 0, 58, 50
2, 144328, Note_on_c, 0, 43, 44
2, 144392, Note_on_c, 0, 58, 0
2, 144456, Note_on_c, 0, 59, 38
2, 144528, Note_on_c, 0, 59, 0
2, 144592, Note_on_c, 0, 62, 71
2, 144680, Note_on_c, 0, 62, 0
2, 144728, Note_on_c, 0, 64, 89
2, 144740, Note_on_c, 0, 52, 44
2, 144952, Note_on_c, 0, 64, 0
2, 144960, Note_on_c, 0, 52, 0
2, 144984, Note_on_c, 0, 62, 71
2, 145024, Control_c, 0, 64, 127
2, 145068, Note_on_c, 0, 43, 0
2, 145116, Control_c, 0, 64, 0
2, 145132, Note_on_c, 0, 49, 60
2, 145132, Note_on_c, 0, 50, 74
2, 145152, Note_on_c, 0, 49, 0
2, 145312, Control_c, 0, 64, 127
2, 145388, Note_on_c, 0, 38, 84
2, 145484, Note_on_c, 0, 38, 0
2, 145504, Note_on_c, 0, 62, 0
2, 145524, Note_on_c, 0, 50, 0
2, 145780, Note_on_c, 0, 67, 77
2, 145784, Note_on_c, 0, 64, 80
2, 145788, Note_on_c, 0, 60, 73
2, 145788, Note_on_c, 0, 57, 68
2, 145792, Note_on_c, 0, 50, 67
2, 145816, Control_c, 0, 64, 0
2, 145868, Control_c, 0, 64, 127
2, 145888, Note_on_c, 0, 57, 0
2, 145944, Note_on_c, 0, 60, 0
2, 145952, Note_on_c, 0, 64, 0
2, 145980, Note_on_c, 0, 67, 0
2, 146004, Note_on_c, 0, 50, 0
2, 146160, Control_c, 0, 64, 0
2, 146168, Note_on_c, 0, 68, 87
2, 146168, Note_on_c, 0, 63, 90
2, 146172, Note_on_c, 0, 60, 88
2, 146172, Note_on_c, 0, 54, 64
2, 146180, Note_on_c, 0, 50, 67
2, 146276, Control_c, 0, 64, 127
2, 146360, Note_on_c, 0, 60, 0
2, 146408, Note_on_c, 0, 63, 0
2, 146440, Note_on_c, 0, 68, 0
2, 146696, Note_on_c, 0, 54, 0
2, 146696, Note_on_c, 0, 81, 71
2, 146704, Note_on_c, 0, 50, 0
2, 146708, Control_c, 0, 64, 0
2, 146720, Note_on_c, 0, 82, 46
2, 146760, Note_on_c, 0, 81, 0
2, 146804, Note_on_c, 0, 82, 0
2, 146824, Note_on_c, 0, 83, 43
2, 146864, Note_on_c, 0, 83, 0
2, 146972, Note_on_c, 0, 86, 67
2, 146980, Note_on_c, 0, 74, 62
2, 147012, Note_on_c, 0, 74, 0
2, 147020, Note_on_c, 0, 86, 0
2, 147096, Note_on_c, 0, 88, 74
2, 147192, Note_on_c, 0, 88, 0
2, 147304, Control_c, 0, 64, 127
2, 147420, Control_c, 0, 64, 0
2, 147468, Note_on_c, 0, 43, 24
2, 147472, Note_on_c, 0, 82, 63
2, 147480, Note_on_c, 0, 59, 31
2, 147480, Note_on_c, 0, 78, 63
2, 147492, Note_on_c, 0, 50, 20
2, 147496, Note_on_c, 0, 43, 0
2, 147524, Note_on_c, 0, 50, 0
2, 147544, Note_on_c, 0, 59, 0
2, 147560, Note_on_c, 0, 82, 0
2, 147560, Note_on_c, 0, 78, 0
2, 147604, Note_on_c, 0, 77, 31
2, 147620, Note_on_c, 0, 81, 31
2, 147652, Note_on_c, 0, 81, 0
2, 147656, Note_on_c, 0, 77, 0
2, 147768, Control_c, 0, 64, 127
2, 147808, Control_c, 0, 64, 0
2, 147860, Note_on_c, 0, 62, 41
2, 147864, Note_on_c, 0, 74, 45
2, 147864, Note_on_c, 0, 72, 40
2, 147872, Note_on_c, 0, 77, 36
2, 147876, Note_on_c, 0, 59, 31
2, 147892, Note_on_c, 0, 62, 0
2, 147908, Note_on_c, 0, 74, 0
2, 147908, Note_on_c, 0, 72, 0
2, 147916, Note_on_c, 0, 59, 0
2, 147952, Note_on_c, 0, 77, 0
2, 148088, Note_on_c, 0, 73, 51
2, 148180, Note_on_c, 0, 73, 0
2, 148216, Note_on_c, 0, 49, 28
2, 148224, Note_on_c, 0, 50, 43
2, 148244, Note_on_c, 0, 74, 50
2, 148260, Note_on_c, 0, 49, 0
2, 148264, Note_on_c, 0, 71, 18
2, 148296, Note_on_c, 0, 71, 0
2, 148304, Note_on_c, 0, 74, 0
2, 148420, Note_on_c, 0, 50, 0
2, 148484, Note_on_c, 0, 62, 57
2, 148484, Note_on_c, 0, 67, 56
2, 148576, Note_on_c, 0, 67, 0
2, 148604, Note_on_c, 0, 62, 0
2, 148604, Note_on_c, 0, 50, 44
2, 148612, Note_on_c, 0, 43, 32
2, 148620, Note_on_c, 0, 59, 36
2, 148628, Note_on_c, 0, 50, 0
2, 148648, Note_on_c, 0, 43, 0
2, 148840, Note_on_c, 0, 59, 0
2, 148844, Control_c, 0, 64, 127
2, 148872, Note_on_c, 0, 43, 47
2, 148896, Note_on_c, 0, 36, 43
2, 148956, Control_c, 0, 64, 0
2, 148968, Note_on_c, 0, 43, 0
2, 148988, Note_on_c, 0, 36, 0
2, 149016, Note_on_c, 0, 52, 40
2, 149036, Control_c, 0, 64, 127
2, 149088, Note_on_c, 0, 52, 0
2, 149360, Note_on_c, 0, 64, 34
2, 149364, Control_c, 0, 64, 0
2, 149368, Note_on_c, 0, 82, 69
2, 149376, Note_on_c, 0, 58, 25
2, 149384, Note_on_c, 0, 64, 0
2, 149396, Note_on_c, 0, 58, 0
2, 149468, Note_on_c, 0, 79, 62
2, 149492, Note_on_c, 0, 82, 0
2, 149520, Note_on_c, 0, 79, 0
2, 149560, Note_on_c, 0, 76, 39
2, 149612, Note_on_c, 0, 76, 0
2, 149652, Note_on_c, 0, 75, 56
2, 149724, Note_on_c, 0, 58, 21
2, 149724, Note_on_c, 0, 50, 35
2, 149728, Note_on_c, 0, 75, 0
2, 149748, Note_on_c, 0, 74, 58
2, 149804, Note_on_c, 0, 74, 0
2, 149844, Note_on_c, 0, 73, 50
2, 149912, Note_on_c, 0, 73, 0
2, 149936, Note_on_c, 0, 72, 47
2, 149952, Note_on_c, 0, 58, 0
2, 149984, Note_on_c, 0, 72, 0
2, 150028, Control_c, 0, 64, 127
2, 150032, Note_on_c, 0, 70, 64
2, 150056, Note_on_c, 0, 50, 0
2, 150104, Note_on_c, 0, 58, 25
2, 150112, Control_c, 0, 64, 0
2, 150120, Note_on_c, 0, 51, 37
2, 150124, Note_on_c, 0, 67, 49
2, 150132, Note_on_c, 0, 70, 0
2, 150176, Note_on_c, 0, 67, 0
2, 150188, Note_on_c, 0, 58, 0
2, 150216, Note_on_c, 0, 64, 47
2, 150256, Note_on_c, 0, 64, 0
2, 150260, Note_on_c, 0, 51, 0
2, 150404, Note_on_c, 0, 59, 43
2, 150404, Control_c, 0, 64, 127
2, 150432, Note_on_c, 0, 50, 43
2, 150440, Note_on_c, 0, 59, 0
2, 150480, Control_c, 0, 64, 0
2, 150488, Note_on_c, 0, 60, 30
2, 150500, Note_on_c, 0, 43, 39
2, 150508, Note_on_c, 0, 50, 0
2, 150580, Note_on_c, 0, 60, 0
2, 150640, Note_on_c, 0, 55, 27
2, 150660, Note_on_c, 0, 55, 0
2, 150724, Note_on_c, 0, 58, 45
2, 150784, Note_on_c, 0, 58, 0
2, 150824, Note_on_c, 0, 59, 66
2, 150852, Note_on_c, 0, 43, 0
2, 150864, Note_on_c, 0, 45, 32
2, 150880, Note_on_c, 0, 59, 0
2, 150908, Note_on_c, 0, 60, 46
2, 150948, Note_on_c, 0, 45, 0
2, 150960, Note_on_c, 0, 60, 0
2, 151004, Note_on_c, 0, 61, 65
2, 151060, Note_on_c, 0, 61, 0
2, 151092, Note_on_c, 0, 62, 72
2, 151160, Note_on_c, 0, 62, 0
2, 151200, Control_c, 0, 64, 127
2, 151224, Note_on_c, 0, 64, 79
2, 151284, Control_c, 0, 64, 0
2, 151300, Note_on_c, 0, 64, 0
2, 151316, Note_on_c, 0, 62, 58
2, 151540, Note_on_c, 0, 55, 47
2, 151584, Note_on_c, 0, 55, 0
2, 151584, Note_on_c, 0, 62, 0
2, 151612, Control_c, 0, 64, 127
2, 151648, Control_c, 0, 64, 0
2, 151664, Note_on_c, 0, 47, 56
2, 151668, Note_on_c, 0, 57, 60
2, 151672, Note_on_c, 0, 62, 39
2, 151836, Control_c, 0, 64, 127
2, 151920, Note_on_c, 0, 57, 0
2, 151976, Note_on_c, 0, 62, 0
2, 152020, Control_c, 0, 64, 0
2, 152044, Note_on_c, 0, 62, 43
2, 152052, Note_on_c, 0, 56, 46
2, 152060, Note_on_c, 0, 46, 50
2, 152072, Note_on_c, 0, 47, 0
2, 152124, Control_c, 0, 64, 127
2, 152136, Note_on_c, 0, 56, 0
2, 152172, Note_on_c, 0, 62, 0
2, 152176, Note_on_c, 0, 46, 0
2, 152432, Control_c, 0, 64, 0
2, 152432, Note_on_c, 0, 79, 80
2, 152432, Note_on_c, 0, 76, 76
2, 152436, Note_on_c, 0, 72, 80
2, 152436, Note_on_c, 0, 67, 75
2, 152444, Note_on_c, 0, 60, 57
2, 152456, Control_c, 0, 64, 127
2, 152556, Note_on_c, 0, 60, 0
2, 152564, Note_on_c, 0, 79, 0
2, 152576, Note_on_c, 0, 76, 0
2, 152596, Note_on_c, 0, 72, 0
2, 152608, Note_on_c, 0, 67, 0
2, 152808, Control_c, 0, 64, 0
2, 152812, Note_on_c, 0, 72, 55
2, 152816, Note_on_c, 0, 56, 39
2, 152824, Note_on_c, 0, 64, 45
2, 152824, Note_on_c, 0, 67, 46
2, 152848, Control_c, 0, 64, 127
2, 152936, Note_on_c, 0, 67, 0
2, 152956, Note_on_c, 0, 72, 0
2, 152980, Note_on_c, 0, 64, 0
2, 153100, Note_on_c, 0, 56, 0
2, 153176, Control_c, 0, 64, 0
2, 153188, Note_on_c, 0, 56, 33
2, 153200, Note_on_c, 0, 46, 36
2, 153200, Note_on_c, 0, 64, 38
2, 153212, Note_on_c, 0, 60, 25
2, 153244, Control_c, 0, 64, 127
2, 153316, Note_on_c, 0, 60, 0
2, 153368, Note_on_c, 0, 56, 0
2, 153428, Note_on_c, 0, 64, 0
2, 153440, Note_on_c, 0, 46, 0
2, 153572, Note_on_c, 0, 45, 44
2, 153576, Note_on_c, 0, 55, 47
2, 153576, Note_on_c, 0, 60, 64
2, 153592, Control_c, 0, 64, 0
2, 153596, Note_on_c, 0, 45, 0
2, 153628, Note_on_c, 0, 60, 0
2, 153636, Note_on_c, 0, 55, 0
2, 153676, Note_on_c, 0, 64, 44
2, 153724, Note_on_c, 0, 64, 0
2, 153772, Note_on_c, 0, 67, 50
2, 153776, Control_c, 0, 64, 127
2, 153840, Note_on_c, 0, 67, 0
2, 153872, Note_on_c, 0, 71, 63
2, 153916, Note_on_c, 0, 71, 0
2, 153952, Note_on_c, 0, 64, 37
2, 153956, Note_on_c, 0, 60, 36
2, 153964, Note_on_c, 0, 71, 70
2, 153972, Note_on_c, 0, 59, 41
2, 153980, Control_c, 0, 64, 0
2, 154012, Note_on_c, 0, 71, 0
2, 154032, Note_on_c, 0, 64, 0
2, 154056, Note_on_c, 0, 72, 47
2, 154104, Note_on_c, 0, 59, 0
2, 154124, Note_on_c, 0, 60, 0
2, 154128, Note_on_c, 0, 72, 0
2, 154148, Note_on_c, 0, 76, 49
2, 154208, Note_on_c, 0, 76, 0
2, 154248, Note_on_c, 0, 79, 60
2, 154260, Control_c, 0, 64, 127
2, 154292, Note_on_c, 0, 79, 0
2, 154320, Control_c, 0, 64, 0
2, 154324, Note_on_c, 0, 64, 26
2, 154324, Note_on_c, 0, 57, 35
2, 154336, Note_on_c, 0, 60, 30
2, 154348, Note_on_c, 0, 83, 67
2, 154416, Note_on_c, 0, 64, 0
2, 154424, Note_on_c, 0, 83, 0
2, 154440, Note_on_c, 0, 84, 38
2, 154492, Note_on_c, 0, 60, 0
2, 154512, Note_on_c, 0, 57, 0
2, 154520, Note_on_c, 0, 84, 0
2, 154544, Note_on_c, 0, 88, 35
2, 154596, Note_on_c, 0, 88, 0
2, 154632, Note_on_c, 0, 91, 51
2, 154648, Control_c, 0, 64, 127
2, 154668, Note_on_c, 0, 91, 0
2, 154708, Control_c, 0, 64, 0
2, 154716, Note_on_c, 0, 64, 22
2, 154720, Note_on_c, 0, 95, 66
2, 154724, Note_on_c, 0, 60, 25
2, 154736, Note_on_c, 0, 55, 22
2, 154740, Note_on_c, 0, 57, 30
2, 154804, Note_on_c, 0, 95, 0
2, 154820, Note_on_c, 0, 98, 62
2, 154832, Note_on_c, 0, 64, 0
2, 154848, Note_on_c, 0, 60, 0
2, 154880, Note_on_c, 0, 98, 0
2, 154884, Note_on_c, 0, 57, 0
2, 154884, Note_on_c, 0, 55, 0
2, 154920, Note_on_c, 0, 97, 58
2, 154964, Note_on_c, 0, 97, 0
2, 155024, Note_on_c, 0, 96, 74
2, 155100, Note_on_c, 0, 96, 0
2, 155108, Note_on_c, 0, 60, 32
2, 155120, Note_on_c, 0, 95, 58
2, 155124, Note_on_c, 0, 54, 31
2, 155140, Note_on_c, 0, 50, 30
2, 155192, Note_on_c, 0, 95, 0
2, 155196, Note_on_c, 0, 50, 0
2, 155220, Note_on_c, 0, 54, 0
2, 155220, Note_on_c, 0, 93, 50
2, 155240, Note_on_c, 0, 60, 0
2, 155292, Note_on_c, 0, 93, 0
2, 155312, Note_on_c, 0, 91, 38
2, 155368, Note_on_c, 0, 91, 0
2, 155420, Control_c, 0, 64, 127
2, 155508, Control_c, 0, 64, 0
2, 155524, Note_on_c, 0, 54, 42
2, 155544, Note_on_c, 0, 90, 34
2, 155556, Note_on_c, 0, 91, 44
2, 155580, Note_on_c, 0, 91, 0
2, 155588, Note_on_c, 0, 90, 0
2, 155588, Note_on_c, 0, 54, 0
2, 155640, Note_on_c, 0, 93, 71
2, 155708, Note_on_c, 0, 93, 0
2, 155732, Note_on_c, 0, 90, 58
2, 155836, Note_on_c, 0, 90, 0
2, 155840, Note_on_c, 0, 89, 63
2, 155900, Note_on_c, 0, 89, 0
2, 155956, Note_on_c, 0, 94, 74
2, 156048, Note_on_c, 0, 90, 59
2, 156064, Note_on_c, 0, 94, 0
2, 156124, Note_on_c, 0, 90, 0
2, 156144, Note_on_c, 0, 89, 68
2, 156192, Note_on_c, 0, 89, 0
2, 156236, Note_on_c, 0, 87, 74
2, 156316, Note_on_c, 0, 87, 0
2, 156332, Note_on_c, 0, 54, 30
2, 156344, Note_on_c, 0, 86, 54
2, 156348, Note_on_c, 0, 44, 29
2, 156392, Note_on_c, 0, 86, 0
2, 156444, Note_on_c, 0, 84, 44
2, 156480, Note_on_c, 0, 84, 0
2, 156484, Note_on_c, 0, 44, 0
2, 156588, Control_c, 0, 64, 127
2, 156612, Note_on_c, 0, 54, 0
2, 156628, Note_on_c, 0, 79, 27
2, 156668, Note_on_c, 0, 79, 0
2, 156692, Control_c, 0, 64, 0
2, 156708, Note_on_c, 0, 86, 75
2, 156708, Note_on_c, 0, 47, 42
2, 156712, Note_on_c, 0, 57, 35
2, 156748, Note_on_c, 0, 47, 0
2, 156784, Note_on_c, 0, 57, 0
2, 156824, Note_on_c, 0, 86, 0
2, 156828, Note_on_c, 0, 83, 57
2, 156852, Control_c, 0, 64, 127
2, 156888, Note_on_c, 0, 83, 0
2, 156924, Note_on_c, 0, 79, 38
2, 156996, Note_on_c, 0, 79, 0
2, 157032, Note_on_c, 0, 74, 41
2, 157084, Note_on_c, 0, 74, 0
2, 157084, Control_c, 0, 64, 0
2, 157092, Note_on_c, 0, 57, 29
2, 157096, Note_on_c, 0, 62, 24
2, 157216, Note_on_c, 0, 62, 0
2, 157232, Note_on_c, 0, 57, 0
2, 157300, Control_c, 0, 64, 127
2, 157352, Note_on_c, 0, 52, 80
2, 157356, Note_on_c, 0, 62, 67
2, 157372, Note_on_c, 0, 56, 37
2, 157396, Note_on_c, 0, 62, 0
2, 157396, Control_c, 0, 64, 0
2, 157480, Note_on_c, 0, 79, 62
2, 157488, Note_on_c, 0, 52, 0
2, 157488, Note_on_c, 0, 72, 60
2, 157504, Note_on_c, 0, 56, 0
2, 157564, Control_c, 0, 64, 127
2, 157664, Note_on_c, 0, 72, 0
2, 157684, Note_on_c, 0, 79, 0
2, 157708, Note_on_c, 0, 76, 44
2, 157720, Note_on_c, 0, 72, 47
2, 157728, Note_on_c, 0, 67, 48
2, 157788, Note_on_c, 0, 76, 0
2, 157792, Note_on_c, 0, 72, 0
2, 157832, Note_on_c, 0, 67, 0
2, 157832, Note_on_c, 0, 56, 46
2, 157840, Note_on_c, 0, 62, 36
2, 157852, Control_c, 0, 64, 0
2, 157872, Note_on_c, 0, 62, 0
2, 157920, Note_on_c, 0, 56, 0
2, 158044, Control_c, 0, 64, 127
2, 158080, Note_on_c, 0, 46, 50
2, 158164, Note_on_c, 0, 46, 0
2, 158196, Note_on_c, 0, 55, 45
2, 158200, Note_on_c, 0, 69, 49
2, 158204, Note_on_c, 0, 61, 37
2, 158204, Note_on_c, 0, 58, 34
2, 158208, Note_on_c, 0, 45, 33
2, 158212, Note_on_c, 0, 64, 49
2, 158212, Control_c, 0, 64, 0
2, 158352, Control_c, 0, 64, 127
2, 158452, Note_on_c, 0, 55, 0
2, 158456, Note_on_c, 0, 64, 0
2, 158468, Note_on_c, 0, 61, 0
2, 158476, Note_on_c, 0, 69, 0
2, 158476, Note_on_c, 0, 58, 0
2, 158560, Note_on_c, 0, 55, 48
2, 158584, Note_on_c, 0, 58, 52
2, 158596, Note_on_c, 0, 61, 46
2, 158596, Note_on_c, 0, 64, 46
2, 158612, Control_c, 0, 64, 0
2, 158612, Note_on_c, 0, 67, 28
2, 158620, Note_on_c, 0, 55, 0
2, 158716, Control_c, 0, 64, 127
2, 158764, Note_on_c, 0, 67, 0
2, 158776, Note_on_c, 0, 45, 0
2, 158800, Note_on_c, 0, 58, 0
2, 158812, Note_on_c, 0, 64, 0
2, 158832, Note_on_c, 0, 50, 92
2, 158836, Note_on_c, 0, 49, 75
2, 158840, Note_on_c, 0, 61, 0
2, 158892, Note_on_c, 0, 49, 0
2, 158976, Control_c, 0, 64, 0
2, 158976, Note_on_c, 0, 64, 51
2, 158988, Note_on_c, 0, 57, 30
2, 159004, Note_on_c, 0, 60, 20
2, 159012, Note_on_c, 0, 57, 0
2, 159024, Note_on_c, 0, 60, 0
2, 159028, Note_on_c, 0, 64, 0
2, 159216, Note_on_c, 0, 38, 65
2, 159328, Note_on_c, 0, 38, 0
2, 159344, Note_on_c, 0, 58, 37
2, 159348, Note_on_c, 0, 62, 52
2, 159356, Note_on_c, 0, 55, 30
2, 159428, Note_on_c, 0, 58, 0
2, 159432, Note_on_c, 0, 59, 53
2, 159460, Note_on_c, 0, 50, 0
2, 159488, Note_on_c, 0, 55, 0
2, 159544, Note_on_c, 0, 59, 0
2, 159568, Note_on_c, 0, 62, 0
2, 159584, Note_on_c, 0, 50, 90
2, 159588, Note_on_c, 0, 49, 69
2, 159636, Note_on_c, 0, 49, 0
2, 159720, Note_on_c, 0, 67, 32
2, 159728, Note_on_c, 0, 62, 42
2, 159728, Note_on_c, 0, 64, 42
2, 159728, Note_on_c, 0, 59, 41
2, 159816, Note_on_c, 0, 67, 0
2, 159820, Note_on_c, 0, 64, 0
2, 159820, Note_on_c, 0, 59, 0
2, 159824, Note_on_c, 0, 62, 0
2, 159980, Note_on_c, 0, 38, 64
2, 160048, Note_on_c, 0, 38, 0
2, 160116, Note_on_c, 0, 62, 37
2, 160124, Note_on_c, 0, 55, 40
2, 160128, Note_on_c, 0, 59, 44
2, 160200, Note_on_c, 0, 50, 0
2, 160264, Note_on_c, 0, 55, 0
2, 160292, Note_on_c, 0, 62, 0
2, 160292, Note_on_c, 0, 59, 0
2, 160352, Note_on_c, 0, 49, 53
2, 160360, Note_on_c, 0, 50, 52
2, 160396, Note_on_c, 0, 49, 0
2, 160488, Note_on_c, 0, 67, 53
2, 160488, Note_on_c, 0, 62, 53
2, 160492, Note_on_c, 0, 59, 46
2, 160520, Note_on_c, 0, 59, 0
2, 160540, Note_on_c, 0, 67, 0
2, 160544, Note_on_c, 0, 62, 0
2, 160732, Note_on_c, 0, 38, 57
2, 160752, Note_on_c, 0, 50, 0
2, 160796, Note_on_c, 0, 38, 0
2, 160856, Note_on_c, 0, 50, 44
2, 160860, Note_on_c, 0, 55, 47
2, 160860, Note_on_c, 0, 59, 50
2, 160864, Note_on_c, 0, 64, 43
2, 160888, Note_on_c, 0, 55, 0
2, 160924, Note_on_c, 0, 59, 0
2, 160940, Note_on_c, 0, 64, 0
2, 161004, Note_on_c, 0, 50, 0
2, 161052, Control_c, 0, 64, 127
2, 161196, Control_c, 0, 64, 0
2, 161244, Note_on_c, 0, 58, 74
2, 161248, Note_on_c, 0, 70, 62
2, 161252, Note_on_c, 0, 74, 76
2, 161252, Note_on_c, 0, 64, 64
2, 161252, Note_on_c, 0, 67, 64
2, 161328, Control_c, 0, 64, 127
2, 161476, Note_on_c, 0, 67, 0
2, 161496, Note_on_c, 0, 74, 0
2, 161504, Note_on_c, 0, 64, 0
2, 161504, Note_on_c, 0, 70, 0
2, 161556, Note_on_c, 0, 58, 0
2, 161632, Note_on_c, 0, 70, 46
2, 161640, Note_on_c, 0, 58, 35
2, 161640, Control_c, 0, 64, 0
2, 161644, Note_on_c, 0, 67, 47
2, 161648, Note_on_c, 0, 62, 33
2, 161664, Note_on_c, 0, 50, 36
2, 161764, Control_c, 0, 64, 127
2, 161788, Note_on_c, 0, 67, 0
2, 161824, Note_on_c, 0, 70, 0
2, 161848, Note_on_c, 0, 58, 0
2, 161860, Note_on_c, 0, 62, 0
2, 161868, Note_on_c, 0, 50, 0
2, 161900, Note_on_c, 0, 58, 13
2, 161920, Note_on_c, 0, 51, 42
2, 161948, Note_on_c, 0, 58, 0
2, 162028, Note_on_c, 0, 51, 0
2, 162028, Control_c, 0, 64, 0
2, 162032, Note_on_c, 0, 58, 37
2, 162040, Note_on_c, 0, 67, 39
2, 162044, Note_on_c, 0, 52, 57
2, 162044, Note_on_c, 0, 64, 42
2, 162120, Control_c, 0, 64, 127
2, 162124, Note_on_c, 0, 64, 0
2, 162128, Note_on_c, 0, 67, 0
2, 162144, Note_on_c, 0, 52, 0
2, 162148, Note_on_c, 0, 58, 0
2, 162392, Note_on_c, 0, 62, 44
2, 162400, Note_on_c, 0, 58, 33
2, 162408, Control_c, 0, 64, 0
2, 162420, Note_on_c, 0, 42, 25
2, 162536, Control_c, 0, 64, 127
2, 162672, Note_on_c, 0, 58, 0
2, 162712, Note_on_c, 0, 62, 0
2, 162780, Note_on_c, 0, 42, 0
2, 162780, Control_c, 0, 64, 0
2, 162788, Note_on_c, 0, 55, 32
2, 162792, Note_on_c, 0, 43, 32
2, 162800, Note_on_c, 0, 59, 32
2, 162836, Note_on_c, 0, 55, 0
2, 162848, Note_on_c, 0, 43, 0
2, 162852, Note_on_c, 0, 59, 0
2, 163052, Note_on_c, 0, 50, 36
2, 163068, Note_on_c, 0, 67, 77
2, 163072, Note_on_c, 0, 60, 81
2, 163080, Note_on_c, 0, 50, 0
2, 163080, Note_on_c, 0, 52, 64
2, 163104, Control_c, 0, 64, 127
2, 163176, Control_c, 0, 64, 0
2, 163188, Note_on_c, 0, 60, 0
2, 163204, Note_on_c, 0, 52, 0
2, 163220, Note_on_c, 0, 50, 48
2, 163224, Note_on_c, 0, 59, 46
2, 163400, Note_on_c, 0, 59, 0
2, 163416, Note_on_c, 0, 50, 0
2, 163416, Note_on_c, 0, 67, 0
2, 163484, Note_on_c, 0, 43, 36
2, 163512, Control_c, 0, 64, 127
2, 163520, Note_on_c, 0, 43, 0
2, 163560, Control_c, 0, 64, 0
2, 163608, Note_on_c, 0, 60, 80
2, 163608, Note_on_c, 0, 67, 80
2, 163616, Note_on_c, 0, 52, 69
2, 163780, Note_on_c, 0, 67, 0
2, 163824, Note_on_c, 0, 52, 0
2, 163844, Note_on_c, 0, 60, 0
2, 163852, Note_on_c, 0, 67, 60
2, 163860, Note_on_c, 0, 59, 69
2, 163864, Note_on_c, 0, 50, 56
2, 163936, Note_on_c, 0, 59, 0
2, 163940, Control_c, 0, 64, 127
2, 163944, Note_on_c, 0, 50, 0
2, 163968, Note_on_c, 0, 67, 0
2, 163992, Control_c, 0, 64, 0
2, 164016, Note_on_c, 0, 58, 37
2, 164016, Note_on_c, 0, 48, 49
2, 164024, Note_on_c, 0, 55, 44
2, 164120, Control_c, 0, 64, 127
2, 164152, Note_on_c, 0, 48, 0
2, 164180, Note_on_c, 0, 55, 0
2, 164220, Note_on_c, 0, 58, 0
2, 164240, Note_on_c, 0, 43, 51
2, 164308, Note_on_c, 0, 43, 0
2, 164336, Control_c, 0, 64, 0
2, 164356, Note_on_c, 0, 47, 46
2, 164364, Note_on_c, 0, 57, 42
2, 164368, Note_on_c, 0, 62, 40
2, 164512, Control_c, 0, 64, 127
2, 164580, Note_on_c, 0, 57, 0
2, 164604, Note_on_c, 0, 35, 80
2, 164620, Note_on_c, 0, 62, 0
2, 164660, Control_c, 0, 64, 0
2, 164680, Control_c, 0, 64, 127
2, 164772, Note_on_c, 0, 47, 0
2, 164792, Note_on_c, 0, 35, 0
2, 164940, Control_c, 0, 64, 0
2, 164960, Note_on_c, 0, 34, 64
2, 164968, Note_on_c, 0, 60, 71
2, 164968, Note_on_c, 0, 67, 70
2, 164968, Note_on_c, 0, 46, 71
2, 164972, Note_on_c, 0, 55, 71
2, 164972, Note_on_c, 0, 64, 54
2, 164984, Note_on_c, 0, 65, 54
2, 165004, Note_on_c, 0, 65, 0
2, 165020, Note_on_c, 0, 55, 0
2, 165036, Note_on_c, 0, 34, 0
2, 165036, Control_c, 0, 64, 127
2, 165060, Note_on_c, 0, 60, 0
2, 165068, Note_on_c, 0, 46, 0
2, 165072, Note_on_c, 0, 64, 0
2, 165084, Note_on_c, 0, 67, 0
2, 165348, Note_on_c, 0, 56, 69
2, 165352, Note_on_c, 0, 62, 67
2, 165356, Note_on_c, 0, 79, 82
2, 165356, Note_on_c, 0, 67, 82
2, 165356, Note_on_c, 0, 72, 83
2, 165360, Note_on_c, 0, 76, 73
2, 165364, Note_on_c, 0, 69, 79
2, 165372, Control_c, 0, 64, 0
2, 165380, Note_on_c, 0, 69, 0
2, 165432, Note_on_c, 0, 72, 0
2, 165440, Note_on_c, 0, 76, 0
2, 165456, Note_on_c, 0, 79, 0
2, 165592, Note_on_c, 0, 67, 0
2, 165628, Note_on_c, 0, 62, 0
2, 165696, Note_on_c, 0, 56, 0
2, 165724, Note_on_c, 0, 78, 88
2, 165728, Note_on_c, 0, 82, 81
2, 165732, Note_on_c, 0, 74, 88
2, 165736, Note_on_c, 0, 86, 79
2, 165736, Note_on_c, 0, 64, 67
2, 165744, Note_on_c, 0, 55, 58
2, 165748, Note_on_c, 0, 59, 54
2, 165748, Note_on_c, 0, 60, 60
2, 165808, Note_on_c, 0, 78, 0
2, 165812, Note_on_c, 0, 79, 22
2, 165816, Note_on_c, 0, 83, 62
2, 165836, Note_on_c, 0, 82, 0
2, 165840, Note_on_c, 0, 64, 0
2, 165852, Note_on_c, 0, 60, 0
2, 165852, Note_on_c, 0, 74, 0
2, 165856, Note_on_c, 0, 59, 0
2, 165868, Note_on_c, 0, 86, 0
2, 165868, Note_on_c, 0, 79, 0
2, 165876, Note_on_c, 0, 83, 0
2, 165888, Note_on_c, 0, 55, 0
2, 166112, Note_on_c, 0, 75, 78
2, 166116, Note_on_c, 0, 71, 83
2, 166116, Note_on_c, 0, 83, 80
2, 166124, Note_on_c, 0, 79, 57
2, 166224, Note_on_c, 0, 75, 0
2, 166232, Note_on_c, 0, 52, 32
2, 166232, Note_on_c, 0, 76, 35
2, 166236, Note_on_c, 0, 45, 36
2, 166236, Note_on_c, 0, 55, 26
2, 166256, Note_on_c, 0, 76, 0
2, 166260, Note_on_c, 0, 83, 0
2, 166264, Note_on_c, 0, 79, 0
2, 166264, Note_on_c, 0, 71, 0
2, 166284, Note_on_c, 0, 45, 0
2, 166304, Note_on_c, 0, 52, 0
2, 166324, Note_on_c, 0, 55, 0
2, 166496, Note_on_c, 0, 67, 69
2, 166496, Note_on_c, 0, 76, 65
2, 166496, Note_on_c, 0, 79, 69
2, 166504, Note_on_c, 0, 72, 64
2, 166588, Note_on_c, 0, 67, 0
2, 166596, Note_on_c, 0, 79, 0
2, 166600, Note_on_c, 0, 76, 0
2, 166612, Note_on_c, 0, 72, 0
2, 166612, Note_on_c, 0, 64, 51
2, 166620, Note_on_c, 0, 60, 42
2, 166632, Note_on_c, 0, 64, 0
2, 166636, Note_on_c, 0, 59, 27
2, 166644, Note_on_c, 0, 60, 0
2, 166660, Note_on_c, 0, 59, 0
2, 166880, Note_on_c, 0, 45, 41
2, 166912, Note_on_c, 0, 45, 0
2, 166996, Note_on_c, 0, 39, 50
2, 167004, Note_on_c, 0, 55, 48
2, 167168, Control_c, 0, 64, 127
2, 167248, Note_on_c, 0, 45, 35
2, 167260, Note_on_c, 0, 39, 0
2, 167288, Note_on_c, 0, 55, 0
2, 167304, Control_c, 0, 64, 0
2, 167308, Note_on_c, 0, 45, 0
2, 167372, Note_on_c, 0, 38, 42
2, 167372, Note_on_c, 0, 54, 42
2, 167392, Note_on_c, 0, 54, 0
2, 167392, Note_on_c, 0, 38, 0
2, 167392, Control_c, 0, 64, 127
2, 167644, Note_on_c, 0, 66, 65
2, 167644, Note_on_c, 0, 71, 74
2, 167648, Note_on_c, 0, 60, 69
2, 167648, Note_on_c, 0, 64, 71
2, 167728, Control_c, 0, 64, 0
2, 167740, Note_on_c, 0, 56, 50
2, 167740, Note_on_c, 0, 58, 37
2, 167768, Note_on_c, 0, 58, 0
2, 167796, Note_on_c, 0, 56, 0
2, 168016, Note_on_c, 0, 50, 99
2, 168020, Control_c, 0, 64, 127
2, 168024, Note_on_c, 0, 49, 71
2, 168028, Note_on_c, 0, 64, 0
2, 168044, Note_on_c, 0, 60, 0
2, 168056, Note_on_c, 0, 49, 0
2, 168072, Note_on_c, 0, 66, 0
2, 168076, Note_on_c, 0, 71, 0
2, 168084, Control_c, 0, 64, 0
2, 168164, Note_on_c, 0, 60, 46
2, 168168, Note_on_c, 0, 66, 23
2, 168172, Note_on_c, 0, 64, 47
2, 168248, Note_on_c, 0, 64, 0
2, 168264, Note_on_c, 0, 66, 0
2, 168356, Note_on_c, 0, 60, 0
2, 168368, Control_c, 0, 64, 127
2, 168416, Note_on_c, 0, 49, 33
2, 168440, Note_on_c, 0, 49, 0
2, 168532, Note_on_c, 0, 67, 60
2, 168532, Note_on_c, 0, 60, 61
2, 168536, Note_on_c, 0, 62, 54
2, 168540, Control_c, 0, 64, 0
2, 168540, Note_on_c, 0, 59, 54
2, 168608, Note_on_c, 0, 60, 0
2, 168628, Note_on_c, 0, 59, 0
2, 168632, Note_on_c, 0, 62, 0
2, 168668, Note_on_c, 0, 67, 0
2, 168792, Note_on_c, 0, 58, 58
2, 168800, Note_on_c, 0, 55, 60
2, 168808, Note_on_c, 0, 49, 31
2, 168852, Note_on_c, 0, 55, 0
2, 168852, Control_c, 0, 64, 127
2, 168864, Note_on_c, 0, 49, 0
2, 168864, Note_on_c, 0, 50, 0
2, 168884, Note_on_c, 0, 58, 0
2, 168904, Control_c, 0, 64, 0
2, 168932, Note_on_c, 0, 59, 44
2, 168932, Note_on_c, 0, 43, 43
2, 168936, Note_on_c, 0, 67, 24
2, 168940, Note_on_c, 0, 55, 24
2, 168956, Note_on_c, 0, 50, 30
2, 168988, Note_on_c, 0, 50, 0
2, 168996, Note_on_c, 0, 43, 0
2, 169032, Note_on_c, 0, 55, 0
2, 169180, Note_on_c, 0, 43, 43
2, 169188, Note_on_c, 0, 50, 51
2, 169228, Note_on_c, 0, 43, 0
2, 169236, Note_on_c, 0, 50, 0
2, 169320, Note_on_c, 0, 52, 55
2, 169336, Note_on_c, 0, 43, 24
2, 169372, Note_on_c, 0, 43, 0
2, 169376, Note_on_c, 0, 52, 0
2, 169556, Note_on_c, 0, 52, 62
2, 169564, Note_on_c, 0, 43, 41
2, 169628, Note_on_c, 0, 43, 0
2, 169660, Note_on_c, 0, 52, 0
2, 169696, Note_on_c, 0, 43, 35
2, 169700, Note_on_c, 0, 50, 54
2, 169764, Note_on_c, 0, 50, 0
2, 169800, Note_on_c, 0, 43, 0
2, 169928, Note_on_c, 0, 50, 62
2, 169936, Note_on_c, 0, 43, 48
2, 170012, Note_on_c, 0, 50, 0
2, 170064, Note_on_c, 0, 59, 0
2, 170088, Note_on_c, 0, 45, 31
2, 170092, Note_on_c, 0, 67, 0
2, 170116, Note_on_c, 0, 43, 0
2, 170176, Note_on_c, 0, 46, 47
2, 170212, Note_on_c, 0, 45, 0
2, 170256, Note_on_c, 0, 46, 0
2, 170296, Note_on_c, 0, 47, 71
2, 170300, Control_c, 0, 64, 127
2, 170384, Note_on_c, 0, 47, 0
2, 170388, Control_c, 0, 64, 0
2, 170424, Note_on_c, 0, 53, 75
2, 170428, Note_on_c, 0, 64, 64
2, 170428, Note_on_c, 0, 57, 64
2, 170432, Note_on_c, 0, 60, 61
2, 170456, Control_c, 0, 64, 127
2, 170460, Note_on_c, 0, 53, 0
2, 170484, Note_on_c, 0, 57, 0
2, 170496, Note_on_c, 0, 60, 0
2, 170504, Note_on_c, 0, 64, 0
2, 170660, Note_on_c, 0, 69, 78
2, 170664, Note_on_c, 0, 65, 80
2, 170664, Note_on_c, 0, 76, 74
2, 170668, Note_on_c, 0, 60, 43
2, 170668, Note_on_c, 0, 72, 67
2, 170668, Note_on_c, 0, 59, 56
2, 170720, Note_on_c, 0, 59, 0
2, 170748, Note_on_c, 0, 60, 0
2, 170748, Note_on_c, 0, 72, 0
2, 170760, Note_on_c, 0, 69, 0
2, 170764, Note_on_c, 0, 65, 0
2, 170776, Note_on_c, 0, 76, 0
2, 170816, Note_on_c, 0, 74, 37
2, 170916, Note_on_c, 0, 74, 0
2, 171052, Note_on_c, 0, 64, 48
2, 171056, Note_on_c, 0, 71, 52
2, 171060, Note_on_c, 0, 68, 51
2, 171064, Note_on_c, 0, 65, 40
2, 171064, Note_on_c, 0, 59, 39
2, 171076, Note_on_c, 0, 53, 35
2, 171128, Control_c, 0, 64, 0
2, 171152, Control_c, 0, 64, 127
2, 171176, Note_on_c, 0, 64, 0
2, 171180, Note_on_c, 0, 59, 0
2, 171220, Note_on_c, 0, 53, 0
2, 171236, Note_on_c, 0, 65, 0
2, 171260, Note_on_c, 0, 68, 0
2, 171260, Note_on_c, 0, 71, 0
2, 171460, Note_on_c, 0, 76, 75
2, 171528, Note_on_c, 0, 76, 0
2, 171604, Note_on_c, 0, 81, 68
2, 171712, Note_on_c, 0, 81, 0
2, 171836, Note_on_c, 0, 81, 73
2, 171896, Note_on_c, 0, 81, 0
2, 171960, Control_c, 0, 64, 0
2, 171968, Note_on_c, 0, 36, 36
2, 171972, Note_on_c, 0, 43, 29
2, 171976, Note_on_c, 0, 79, 48
2, 171980, Note_on_c, 0, 52, 36
2, 172024, Control_c, 0, 64, 127
2, 172032, Note_on_c, 0, 36, 0
2, 172068, Note_on_c, 0, 43, 0
2, 172092, Note_on_c, 0, 52, 0
2, 172368, Note_on_c, 0, 64, 32
2, 172372, Note_on_c, 0, 72, 35
2, 172376, Note_on_c, 0, 60, 35
2, 172380, Note_on_c, 0, 67, 24
2, 172412, Note_on_c, 0, 64, 0
2, 172424, Note_on_c, 0, 60, 0
2, 172428, Note_on_c, 0, 79, 0
2, 172444, Note_on_c, 0, 72, 0
2, 172468, Note_on_c, 0, 67, 0
2, 172748, Note_on_c, 0, 68, 32
2, 172752, Note_on_c, 0, 56, 32
2, 172756, Control_c, 0, 64, 0
2, 172760, Note_on_c, 0, 64, 39
2, 172772, Note_on_c, 0, 48, 36
2, 172780, Note_on_c, 0, 60, 14
2, 172848, Control_c, 0, 64, 127
2, 172876, Note_on_c, 0, 56, 0
2, 172880, Note_on_c, 0, 60, 0
2, 172908, Note_on_c, 0, 64, 0
2, 172936, Note_on_c, 0, 68, 0
2, 173140, Note_on_c, 0, 60, 36
2, 173144, Note_on_c, 0, 56, 31
2, 173192, Note_on_c, 0, 48, 0
2, 173376, Note_on_c, 0, 60, 0
2, 173404, Note_on_c, 0, 56, 0
2, 173416, Note_on_c, 0, 48, 41
2, 173536, Control_c, 0, 64, 0
2, 173540, Note_on_c, 0, 57, 41
2, 173540, Note_on_c, 0, 69, 43
2, 173544, Note_on_c, 0, 64, 38
2, 173548, Note_on_c, 0, 60, 22
2, 173644, Control_c, 0, 64, 127
2, 173728, Note_on_c, 0, 48, 0
2, 173772, Note_on_c, 0, 64, 0
2, 173784, Note_on_c, 0, 60, 0
2, 173792, Note_on_c, 0, 69, 0
2, 173840, Note_on_c, 0, 57, 0
2, 173936, Note_on_c, 0, 48, 50
2, 173948, Note_on_c, 0, 55, 31
2, 173952, Control_c, 0, 64, 0
2, 173960, Note_on_c, 0, 60, 15
2, 173996, Note_on_c, 0, 55, 0
2, 174012, Note_on_c, 0, 60, 0
2, 174020, Control_c, 0, 64, 127
2, 174180, Note_on_c, 0, 48, 0
2, 174204, Note_on_c, 0, 55, 36
2, 174244, Note_on_c, 0, 55, 0
2, 174308, Control_c, 0, 64, 0
2, 174320, Note_on_c, 0, 60, 44
2, 174320, Note_on_c, 0, 57, 38
2, 174324, Note_on_c, 0, 63, 33
2, 174340, Note_on_c, 0, 49, 37
2, 174360, Note_on_c, 0, 57, 0
2, 174380, Note_on_c, 0, 60, 0
2, 174384, Control_c, 0, 64, 127
2, 174400, Note_on_c, 0, 63, 0
2, 174580, Note_on_c, 0, 60, 50
2, 174588, Note_on_c, 0, 56, 37
2, 174600, Note_on_c, 0, 60, 0
2, 174652, Note_on_c, 0, 56, 0
2, 174712, Note_on_c, 0, 63, 76
2, 174760, Note_on_c, 0, 63, 0
2, 174776, Note_on_c, 0, 49, 0
2, 174816, Note_on_c, 0, 66, 64
2, 174880, Note_on_c, 0, 66, 0
2, 174924, Note_on_c, 0, 69, 78
2, 174932, Note_on_c, 0, 49, 45
2, 174952, Note_on_c, 0, 57, 31
2, 174976, Note_on_c, 0, 69, 0
2, 174984, Note_on_c, 0, 57, 0
2, 175000, Note_on_c, 0, 49, 0
2, 175076, Note_on_c, 0, 67, 71
2, 175080, Note_on_c, 0, 74, 78
2, 175092, Note_on_c, 0, 60, 47
2, 175092, Note_on_c, 0, 50, 42
2, 175100, Control_c, 0, 64, 0
2, 175232, Control_c, 0, 64, 127
2, 175260, Note_on_c, 0, 60, 0
2, 175288, Note_on_c, 0, 67, 0
2, 175444, Note_on_c, 0, 60, 37
2, 175448, Note_on_c, 0, 71, 40
2, 175456, Note_on_c, 0, 67, 26
2, 175476, Note_on_c, 0, 64, 16
2, 175560, Note_on_c, 0, 64, 0
2, 175600, Note_on_c, 0, 67, 0
2, 175604, Note_on_c, 0, 74, 0
2, 175616, Note_on_c, 0, 50, 0
2, 175616, Note_on_c, 0, 60, 0
2, 175644, Note_on_c, 0, 71, 0
2, 175856, Note_on_c, 0, 76, 84
2, 175864, Note_on_c, 0, 67, 76
2, 175864, Note_on_c, 0, 71, 80
2, 175868, Control_c, 0, 64, 0
2, 175872, Note_on_c, 0, 62, 76
2, 175976, Control_c, 0, 64, 127
2, 176032, Note_on_c, 0, 62, 0
2, 176032, Note_on_c, 0, 71, 0
2, 176040, Note_on_c, 0, 76, 0
2, 176052, Note_on_c, 0, 67, 0
2, 176128, Note_on_c, 0, 74, 55
2, 176132, Note_on_c, 0, 59, 60
2, 176152, Note_on_c, 0, 64, 20
2, 176156, Note_on_c, 0, 67, 36
2, 176160, Note_on_c, 0, 71, 22
2, 176184, Note_on_c, 0, 71, 0
2, 176184, Control_c, 0, 64, 0
2, 176188, Note_on_c, 0, 67, 0
2, 176192, Note_on_c, 0, 74, 0
2, 176212, Note_on_c, 0, 64, 0
2, 176260, Note_on_c, 0, 59, 0
2, 176280, Note_on_c, 0, 55, 46
2, 176284, Note_on_c, 0, 71, 39
2, 176288, Note_on_c, 0, 62, 24
2, 176308, Note_on_c, 0, 64, 24
2, 176332, Note_on_c, 0, 64, 0
2, 176340, Note_on_c, 0, 71, 0
2, 176368, Note_on_c, 0, 62, 0
2, 176492, Note_on_c, 0, 55, 0
2, 176516, Control_c, 0, 64, 127
2, 176520, Note_on_c, 0, 52, 47
2, 176520, Note_on_c, 0, 67, 38
2, 176528, Note_on_c, 0, 62, 39
2, 176528, Note_on_c, 0, 59, 24
2, 176532, Note_on_c, 0, 64, 35
2, 176584, Control_c, 0, 64, 0
2, 176608, Note_on_c, 0, 52, 0
2, 176612, Note_on_c, 0, 62, 0
2, 176616, Note_on_c, 0, 59, 0
2, 176620, Note_on_c, 0, 64, 0
2, 176644, Note_on_c, 0, 67, 0
2, 176872, Note_on_c, 0, 49, 23
2, 176880, Note_on_c, 0, 62, 38
2, 176880, Note_on_c, 0, 50, 44
2, 176884, Note_on_c, 0, 59, 45
2, 176884, Note_on_c, 0, 57, 34
2, 176920, Note_on_c, 0, 49, 0
2, 177088, Note_on_c, 0, 50, 0
2, 177104, Note_on_c, 0, 57, 0
2, 177108, Note_on_c, 0, 59, 0
2, 177124, Note_on_c, 0, 49, 38
2, 177136, Note_on_c, 0, 62, 0
2, 177180, Note_on_c, 0, 49, 0
2, 177252, Note_on_c, 0, 48, 50
2, 177252, Control_c, 0, 64, 127
2, 177300, Note_on_c, 0, 48, 0
2, 177344, Control_c, 0, 64, 0
2, 177384, Note_on_c, 0, 57, 36
2, 177388, Note_on_c, 0, 62, 40
2, 177392, Note_on_c, 0, 47, 40
2, 177456, Control_c, 0, 64, 127
2, 177548, Note_on_c, 0, 47, 0
2, 177592, Note_on_c, 0, 57, 0
2, 177640, Note_on_c, 0, 62, 0
2, 177760, Control_c, 0, 64, 0
2, 177796, Control_c, 0, 64, 127
2, 178044, Note_on_c, 0, 47, 40
2, 178112, Note_on_c, 0, 47, 0
2, 178124, Control_c, 0, 64, 0
2, 178172, Note_on_c, 0, 40, 49
2, 178176, Control_c, 0, 64, 127
2, 178196, Note_on_c, 0, 40, 0
2, 178444, Note_on_c, 0, 59, 32
2, 178448, Note_on_c, 0, 52, 26
2, 178464, Note_on_c, 0, 55, 27
2, 178576, Note_on_c, 0, 67, 35
2, 178604, Note_on_c, 0, 67, 0
2, 178676, Note_on_c, 0, 71, 56
2, 178708, Note_on_c, 0, 71, 0
2, 178796, Note_on_c, 0, 76, 71
2, 178840, Note_on_c, 0, 76, 0
2, 178920, Note_on_c, 0, 63, 59
2, 178924, Note_on_c, 0, 75, 83
2, 178928, Control_c, 0, 64, 0
2, 178932, Note_on_c, 0, 83, 85
2, 178948, Note_on_c, 0, 82, 34
2, 178968, Note_on_c, 0, 82, 0
2, 178992, Note_on_c, 0, 63, 0
2, 179028, Note_on_c, 0, 75, 0
2, 179032, Control_c, 0, 64, 127
2, 179040, Note_on_c, 0, 83, 0
2, 179068, Note_on_c, 0, 79, 62
2, 179072, Note_on_c, 0, 63, 47
2, 179076, Note_on_c, 0, 71, 49
2, 179096, Note_on_c, 0, 75, 9
2, 179168, Note_on_c, 0, 79, 0
2, 179188, Note_on_c, 0, 63, 0
2, 179192, Note_on_c, 0, 75, 0
2, 179216, Note_on_c, 0, 71, 0
2, 179324, Note_on_c, 0, 75, 57
2, 179332, Note_on_c, 0, 71, 60
2, 179332, Note_on_c, 0, 63, 44
2, 179408, Note_on_c, 0, 59, 0
2, 179412, Note_on_c, 0, 63, 0
2, 179432, Note_on_c, 0, 71, 0
2, 179456, Note_on_c, 0, 67, 46
2, 179460, Note_on_c, 0, 63, 33
2, 179476, Note_on_c, 0, 59, 49
2, 179480, Note_on_c, 0, 75, 0
2, 179576, Note_on_c, 0, 67, 0
2, 179604, Note_on_c, 0, 63, 0
2, 179624, Note_on_c, 0, 52, 0
2, 179636, Note_on_c, 0, 55, 0
2, 179648, Note_on_c, 0, 59, 0
2, 179692, Note_on_c, 0, 59, 25
2, 179696, Control_c, 0, 64, 0
2, 179696, Note_on_c, 0, 64, 45
2, 179708, Note_on_c, 0, 67, 50
2, 179712, Note_on_c, 0, 52, 32
2, 179712, Note_on_c, 0, 55, 34
2, 179776, Control_c, 0, 64, 127
2, 179832, Note_on_c, 0, 67, 0
2, 179868, Note_on_c, 0, 64, 0
2, 179912, Note_on_c, 0, 59, 0
2, 179932, Note_on_c, 0, 55, 0
2, 179984, Note_on_c, 0, 52, 0
2, 180080, Note_on_c, 0, 64, 52
2, 180084, Note_on_c, 0, 52, 28
2, 180088, Note_on_c, 0, 62, 40
2, 180096, Note_on_c, 0, 55, 35
2, 180120, Note_on_c, 0, 55, 0
2, 180156, Note_on_c, 0, 64, 0
2, 180164, Note_on_c, 0, 52, 0
2, 180172, Note_on_c, 0, 62, 0
2, 180448, Control_c, 0, 64, 0
2, 180456, Note_on_c, 0, 63, 37
2, 180456, Note_on_c, 0, 45, 40
2, 180464, Note_on_c, 0, 58, 28
2, 180468, Note_on_c, 0, 55, 38
2, 180468, Note_on_c, 0, 61, 36
2, 180544, Control_c, 0, 64, 127
2, 180712, Note_on_c, 0, 58, 0
2, 180716, Note_on_c, 0, 55, 0
2, 180716, Note_on_c, 0, 63, 0
2, 180728, Note_on_c, 0, 61, 0
2, 180844, Note_on_c, 0, 52, 36
2, 180848, Note_on_c, 0, 55, 45
2, 180852, Note_on_c, 0, 61, 39
2, 180852, Note_on_c, 0, 58, 34
2, 180852, Note_on_c, 0, 64, 43
2, 180908, Note_on_c, 0, 55, 0
2, 180908, Note_on_c, 0, 45, 0
2, 180928, Note_on_c, 0, 52, 0
2, 180948, Note_on_c, 0, 58, 0
2, 180952, Note_on_c, 0, 64, 0
2, 180956, Note_on_c, 0, 61, 0
2, 181220, Note_on_c, 0, 59, 72
2, 181224, Note_on_c, 0, 67, 70
2, 181228, Note_on_c, 0, 71, 73
2, 181228, Note_on_c, 0, 64, 75
2, 181232, Note_on_c, 0, 60, 71
2, 181236, Control_c, 0, 64, 0
2, 181284, Note_on_c, 0, 60, 0
2, 181292, Note_on_c, 0, 64, 0
2, 181304, Note_on_c, 0, 71, 0
2, 181304, Note_on_c, 0, 67, 0
2, 181324, Note_on_c, 0, 59, 0
2, 181344, Note_on_c, 0, 57, 35
2, 181380, Note_on_c, 0, 57, 0
2, 181432, Note_on_c, 0, 59, 67
2, 181432, Note_on_c, 0, 71, 72
2, 181436, Note_on_c, 0, 67, 66
2, 181436, Note_on_c, 0, 60, 68
2, 181440, Note_on_c, 0, 64, 68
2, 181468, Note_on_c, 0, 64, 0
2, 181476, Note_on_c, 0, 60, 0
2, 181488, Note_on_c, 0, 71, 0
2, 181492, Note_on_c, 0, 67, 0
2, 181504, Note_on_c, 0, 59, 0
2, 181564, Note_on_c, 0, 57, 40
2, 181596, Note_on_c, 0, 57, 0
2, 181636, Note_on_c, 0, 71, 73
2, 181636, Note_on_c, 0, 59, 63
2, 181640, Note_on_c, 0, 60, 62
2, 181644, Note_on_c, 0, 67, 56
2, 181644, Note_on_c, 0, 64, 62
2, 181712, Note_on_c, 0, 64, 0
2, 181712, Note_on_c, 0, 67, 0
2, 181720, Note_on_c, 0, 60, 0
2, 181740, Note_on_c, 0, 71, 0
2, 181764, Note_on_c, 0, 59, 0
2, 181764, Note_on_c, 0, 60, 39
2, 181768, Note_on_c, 0, 69, 58
2, 181768, Note_on_c, 0, 64, 54
2, 181780, Note_on_c, 0, 57, 54
2, 181816, Control_c, 0, 64, 127
2, 181888, Note_on_c, 0, 64, 0
2, 181924, Note_on_c, 0, 60, 0
2, 181992, Note_on_c, 0, 69, 0
2, 182012, Note_on_c, 0, 57, 0
2, 182012, Control_c, 0, 64, 0
2, 182012, Note_on_c, 0, 64, 58
2, 182016, Note_on_c, 0, 60, 41
2, 182024, Control_c, 0, 64, 127
2, 182236, Note_on_c, 0, 60, 0
2, 182252, Note_on_c, 0, 50, 92
2, 182256, Note_on_c, 0, 49, 67
2, 182272, Note_on_c, 0, 64, 0
2, 182308, Control_c, 0, 64, 0
2, 182352, Note_on_c, 0, 49, 0
2, 182400, Control_c, 0, 64, 127
2, 182636, Note_on_c, 0, 38, 77
2, 182740, Control_c, 0, 64, 0
2, 182940, Note_on_c, 0, 67, 51
2, 182964, Note_on_c, 0, 38, 0
2, 183008, Note_on_c, 0, 67, 0
2, 183020, Note_on_c, 0, 77, 34
2, 183064, Note_on_c, 0, 77, 0
2, 183140, Note_on_c, 0, 79, 82
2, 183148, Note_on_c, 0, 67, 62
2, 183244, Note_on_c, 0, 67, 0
2, 183252, Note_on_c, 0, 50, 0
2, 183260, Note_on_c, 0, 79, 0
2, 183384, Note_on_c, 0, 50, 73
2, 183388, Note_on_c, 0, 77, 66
2, 183392, Note_on_c, 0, 49, 48
2, 183412, Note_on_c, 0, 49, 0
2, 183436, Note_on_c, 0, 77, 0
2, 183560, Note_on_c, 0, 73, 42
2, 183588, Note_on_c, 0, 73, 0
2, 183620, Note_on_c, 0, 72, 29
2, 183668, Note_on_c, 0, 72, 0
2, 183680, Note_on_c, 0, 70, 51
2, 183752, Note_on_c, 0, 70, 0
2, 183768, Note_on_c, 0, 67, 90
2, 183904, Note_on_c, 0, 74, 84
2, 183908, Note_on_c, 0, 70, 83
2, 183920, Note_on_c, 0, 67, 0
2, 183956, Note_on_c, 0, 71, 43
2, 183960, Note_on_c, 0, 70, 0
2, 183976, Note_on_c, 0, 50, 0
2, 184048, Note_on_c, 0, 74, 0
2, 184048, Note_on_c, 0, 67, 56
2, 184060, Note_on_c, 0, 71, 0
2, 184096, Note_on_c, 0, 67, 0
2, 184112, Note_on_c, 0, 64, 56
2, 184144, Note_on_c, 0, 64, 0
2, 184196, Note_on_c, 0, 62, 69
2, 184216, Note_on_c, 0, 65, 66
2, 184255, Note_on_c, 0, 62, 0
2, 184280, Note_on_c, 0, 65, 0
2, 184308, Note_on_c, 0, 43, 68
2, 184312, Note_on_c, 0, 50, 84
2, 184496, Control_c, 0, 64, 127
2, 184652, Control_c, 0, 64, 0
2, 184664, Note_on_c, 0, 50, 0
2, 184664, Note_on_c, 0, 60, 40
2, 184664, Note_on_c, 0, 67, 46
2, 184668, Note_on_c, 0, 55, 46
2, 184752, Note_on_c, 0, 60, 0
2, 184772, Note_on_c, 0, 43, 0
2, 184772, Note_on_c, 0, 67, 0
2, 184828, Note_on_c, 0, 55, 0
2, 184908, Note_on_c, 0, 61, 53
2, 184920, Note_on_c, 0, 46, 36
2, 185000, Note_on_c, 0, 61, 0
2, 185020, Note_on_c, 0, 46, 0
2, 185040, Note_on_c, 0, 62, 40
2, 185052, Note_on_c, 0, 47, 30
2, 185056, Note_on_c, 0, 59, 35
2, 185064, Note_on_c, 0, 55, 34
2, 185144, Note_on_c, 0, 59, 0
2, 185204, Note_on_c, 0, 55, 0
2, 185268, Control_c, 0, 64, 127
2, 185296, Note_on_c, 0, 55, 57
2, 185340, Note_on_c, 0, 55, 0
2, 185372, Control_c, 0, 64, 0
2, 185392, Note_on_c, 0, 47, 0
2, 185400, Note_on_c, 0, 62, 0
2, 185400, Note_on_c, 0, 43, 30
2, 185428, Note_on_c, 0, 43, 0
2, 185464, Control_c, 0, 64, 127
2, 185688, Note_on_c, 0, 43, 44
2, 185776, Control_c, 0, 64, 0
2, 185800, Note_on_c, 0, 36, 30
2, 185816, Note_on_c, 0, 52, 48
2, 185820, Note_on_c, 0, 74, 50
2, 185820, Note_on_c, 0, 86, 58
2, 185824, Note_on_c, 0, 82, 40
2, 185828, Note_on_c, 0, 36, 0
2, 185836, Note_on_c, 0, 79, 45
2, 185840, Note_on_c, 0, 43, 0
2, 185872, Note_on_c, 0, 52, 0
2, 185904, Control_c, 0, 64, 127
2, 186172, Note_on_c, 0, 64, 49
2, 186176, Control_c, 0, 64, 0
2, 186192, Note_on_c, 0, 58, 33
2, 186220, Note_on_c, 0, 64, 0
2, 186244, Note_on_c, 0, 58, 0
2, 186448, Note_on_c, 0, 58, 37
2, 186460, Note_on_c, 0, 50, 49
2, 186472, Note_on_c, 0, 79, 0
2, 186480, Control_c, 0, 64, 127
2, 186488, Note_on_c, 0, 74, 0
2, 186500, Note_on_c, 0, 86, 0
2, 186512, Note_on_c, 0, 82, 0
2, 186524, Note_on_c, 0, 50, 0
2, 186532, Note_on_c, 0, 58, 0
2, 186552, Control_c, 0, 64, 0
2, 186576, Note_on_c, 0, 58, 31
2, 186588, Note_on_c, 0, 86, 54
2, 186588, Note_on_c, 0, 74, 48
2, 186592, Note_on_c, 0, 52, 57
2, 186604, Note_on_c, 0, 82, 33
2, 186608, Note_on_c, 0, 79, 37
2, 186676, Control_c, 0, 64, 127
2, 186684, Note_on_c, 0, 52, 0
2, 186696, Note_on_c, 0, 58, 0
2, 186836, Note_on_c, 0, 79, 0
2, 186844, Note_on_c, 0, 74, 0
2, 186852, Note_on_c, 0, 86, 0
2, 186880, Note_on_c, 0, 82, 0
2, 186948, Control_c, 0, 64, 0
2, 186964, Note_on_c, 0, 58, 40
2, 186968, Note_on_c, 0, 86, 51
2, 186980, Note_on_c, 0, 79, 43
2, 186980, Note_on_c, 0, 82, 34
2, 186980, Note_on_c, 0, 74, 27
2, 186988, Note_on_c, 0, 48, 30
2, 187016, Note_on_c, 0, 48, 0
2, 187052, Note_on_c, 0, 79, 0
2, 187052, Note_on_c, 0, 74, 0
2, 187056, Note_on_c, 0, 58, 0
2, 187068, Note_on_c, 0, 86, 0
2, 187076, Note_on_c, 0, 82, 0
2, 187120, Control_c, 0, 64, 127
2, 187304, Note_on_c, 0, 54, 17
2, 187316, Note_on_c, 0, 56, 31
2, 187332, Note_on_c, 0, 54, 0
2, 187332, Note_on_c, 0, 57, 61
2, 187336, Note_on_c, 0, 56, 0
2, 187360, Note_on_c, 0, 57, 0
2, 187364, Note_on_c, 0, 74, 80
2, 187364, Control_c, 0, 64, 0
2, 187364, Note_on_c, 0, 59, 71
2, 187364, Note_on_c, 0, 71, 71
2, 187368, Note_on_c, 0, 67, 67
2, 187372, Note_on_c, 0, 64, 68
2, 187504, Control_c, 0, 64, 127
2, 187536, Note_on_c, 0, 71, 0
2, 187540, Note_on_c, 0, 74, 0
2, 187556, Note_on_c, 0, 67, 0
2, 187572, Note_on_c, 0, 64, 0
2, 187572, Note_on_c, 0, 59, 0
2, 187640, Note_on_c, 0, 52, 20
2, 187680, Note_on_c, 0, 53, 51
2, 187700, Note_on_c, 0, 52, 0
2, 187704, Note_on_c, 0, 53, 0
2, 187724, Note_on_c, 0, 67, 50
2, 187724, Note_on_c, 0, 55, 64
2, 187728, Note_on_c, 0, 71, 54
2, 187728, Control_c, 0, 64, 0
2, 187732, Note_on_c, 0, 54, 33
2, 187732, Note_on_c, 0, 62, 43
2, 187732, Note_on_c, 0, 64, 45
2, 187776, Note_on_c, 0, 54, 0
2, 187832, Control_c, 0, 64, 127
2, 187876, Note_on_c, 0, 67, 0
2, 187880, Note_on_c, 0, 71, 0
2, 187888, Note_on_c, 0, 64, 0
2, 187900, Note_on_c, 0, 55, 0
2, 187924, Note_on_c, 0, 62, 0
2, 188108, Note_on_c, 0, 50, 26
2, 188116, Control_c, 0, 64, 0
2, 188116, Note_on_c, 0, 67, 44
2, 188116, Note_on_c, 0, 59, 55
2, 188120, Note_on_c, 0, 64, 37
2, 188120, Note_on_c, 0, 52, 54
2, 188124, Note_on_c, 0, 62, 52
2, 188152, Note_on_c, 0, 50, 0
2, 188176, Note_on_c, 0, 52, 0
2, 188220, Note_on_c, 0, 67, 0
2, 188228, Note_on_c, 0, 64, 0
2, 188244, Note_on_c, 0, 62, 0
2, 188256, Note_on_c, 0, 59, 0
2, 188284, Control_c, 0, 64, 127
2, 188396, Note_on_c, 0, 44, 29
2, 188416, Note_on_c, 0, 44, 0
2, 188440, Note_on_c, 0, 46, 29
2, 188460, Note_on_c, 0, 46, 0
2, 188464, Note_on_c, 0, 47, 50
2, 188500, Note_on_c, 0, 48, 48
2, 188500, Note_on_c, 0, 62, 38
2, 188504, Note_on_c, 0, 58, 45
2, 188504, Note_on_c, 0, 56, 37
2, 188508, Note_on_c, 0, 52, 42
2, 188516, Control_c, 0, 64, 0
2, 188528, Note_on_c, 0, 47, 0
2, 188588, Note_on_c, 0, 48, 0
2, 188712, Control_c, 0, 64, 127
2, 188872, Control_c, 0, 64, 0
2, 188884, Note_on_c, 0, 47, 82
2, 188888, Note_on_c, 0, 35, 80
2, 188900, Note_on_c, 0, 52, 0
2, 188924, Note_on_c, 0, 56, 0
2, 188948, Note_on_c, 0, 58, 0
2, 188960, Note_on_c, 0, 62, 0
2, 189012, Control_c, 0, 64, 127
2, 189028, Note_on_c, 0, 35, 0
2, 189064, Note_on_c, 0, 47, 0
2, 189668, Control_c, 0, 64, 0
2, 189692, Note_on_c, 0, 72, 49
2, 189692, Note_on_c, 0, 67, 36
2, 189692, Note_on_c, 0, 56, 39
2, 189696, Note_on_c, 0, 76, 34
2, 189752, Control_c, 0, 64, 127
2, 189784, Note_on_c, 0, 76, 0
2, 189784, Note_on_c, 0, 72, 0
2, 189800, Note_on_c, 0, 56, 0
2, 189824, Note_on_c, 0, 67, 0
2, 190052, Control_c, 0, 64, 0
2, 190064, Note_on_c, 0, 56, 35
2, 190064, Note_on_c, 0, 68, 42
2, 190068, Note_on_c, 0, 72, 31
2, 190068, Note_on_c, 0, 64, 38
2, 190080, Note_on_c, 0, 46, 30
2, 190136, Control_c, 0, 64, 127
2, 190188, Note_on_c, 0, 72, 0
2, 190212, Note_on_c, 0, 64, 0
2, 190224, Note_on_c, 0, 68, 0
2, 190284, Note_on_c, 0, 56, 0
2, 190328, Note_on_c, 0, 46, 0
2, 190420, Control_c, 0, 64, 0
2, 190448, Note_on_c, 0, 67, 24
2, 190452, Note_on_c, 0, 45, 26
2, 190456, Note_on_c, 0, 55, 19
2, 190460, Note_on_c, 0, 60, 24
2, 190480, Note_on_c, 0, 64, 22
2, 190492, Note_on_c, 0, 45, 0
2, 190516, Note_on_c, 0, 60, 0
2, 190516, Note_on_c, 0, 64, 0
2, 190516, Control_c, 0, 64, 127
2, 190536, Note_on_c, 0, 67, 0
2, 190544, Note_on_c, 0, 55, 0
2, 190708, Control_c, 0, 64, 0
2, 190712, Note_on_c, 0, 57, 40
2, 190712, Note_on_c, 0, 74, 74
2, 190716, Note_on_c, 0, 59, 64
2, 190716, Note_on_c, 0, 71, 64
2, 190720, Note_on_c, 0, 64, 69
2, 190720, Note_on_c, 0, 67, 67
2, 190736, Note_on_c, 0, 57, 0
2, 190860, Control_c, 0, 64, 127
2, 190944, Note_on_c, 0, 74, 0
2, 190948, Note_on_c, 0, 71, 0
2, 190984, Note_on_c, 0, 64, 0
2, 190984, Note_on_c, 0, 67, 0
2, 191168, Note_on_c, 0, 59, 0
2, 191240, Control_c, 0, 64, 0
2, 191240, Note_on_c, 0, 71, 32
2, 191252, Note_on_c, 0, 55, 39
2, 191252, Note_on_c, 0, 64, 34
2, 191280, Note_on_c, 0, 55, 0
2, 191292, Control_c, 0, 64, 127
2, 191308, Note_on_c, 0, 71, 0
2, 191312, Note_on_c, 0, 64, 0
2, 191528, Control_c, 0, 64, 0
2, 191596, Note_on_c, 0, 57, 46
2, 191600, Note_on_c, 0, 67, 34
2, 191604, Note_on_c, 0, 60, 42
2, 191608, Note_on_c, 0, 64, 35
2, 191612, Note_on_c, 0, 52, 42
2, 191616, Note_on_c, 0, 63, 20
2, 191636, Note_on_c, 0, 52, 0
2, 191668, Note_on_c, 0, 57, 0
2, 191672, Control_c, 0, 64, 127
2, 191680, Note_on_c, 0, 60, 0
2, 191688, Note_on_c, 0, 64, 0
2, 191696, Note_on_c, 0, 67, 0
2, 191736, Note_on_c, 0, 63, 0
2, 191904, Control_c, 0, 64, 0
2, 191976, Note_on_c, 0, 38, 60
2, 191976, Note_on_c, 0, 50, 54
2, 192036, Note_on_c, 0, 50, 0
2, 192036, Note_on_c, 0, 38, 0
2, 192236, Note_on_c, 0, 71, 42
2, 192240, Note_on_c, 0, 60, 33
2, 192244, Note_on_c, 0, 66, 37
2, 192248, Note_on_c, 0, 64, 41
2, 192276, Note_on_c, 0, 64, 0
2, 192280, Note_on_c, 0, 60, 0
2, 192296, Note_on_c, 0, 66, 0
2, 192308, Note_on_c, 0, 71, 0
2, 192384, Note_on_c, 0, 71, 34
2, 192388, Note_on_c, 0, 66, 33
2, 192392, Note_on_c, 0, 60, 32
2, 192400, Note_on_c, 0, 64, 47
2, 192424, Note_on_c, 0, 64, 0
2, 192428, Note_on_c, 0, 60, 0
2, 192440, Note_on_c, 0, 66, 0
2, 192440, Note_on_c, 0, 71, 0
2, 192628, Note_on_c, 0, 38, 57
2, 192636, Note_on_c, 0, 50, 28
2, 192676, Note_on_c, 0, 50, 0
2, 192688, Note_on_c, 0, 38, 0
2, 192780, Note_on_c, 0, 50, 55
2, 192780, Note_on_c, 0, 38, 49
2, 192840, Note_on_c, 0, 38, 0
2, 192844, Note_on_c, 0, 50, 0
2, 193020, Note_on_c, 0, 71, 62
2, 193028, Note_on_c, 0, 60, 50
2, 193028, Note_on_c, 0, 66, 37
2, 193036, Note_on_c, 0, 64, 35
2, 193068, Note_on_c, 0, 64, 0
2, 193080, Note_on_c, 0, 60, 0
2, 193088, Note_on_c, 0, 66, 0
2, 193088, Note_on_c, 0, 71, 0
2, 193168, Note_on_c, 0, 71, 41
2, 193168, Note_on_c, 0, 66, 42
2, 193168, Note_on_c, 0, 60, 34
2, 193176, Note_on_c, 0, 64, 52
2, 193200, Note_on_c, 0, 64, 0
2, 193200, Note_on_c, 0, 71, 0
2, 193204, Note_on_c, 0, 60, 0
2, 193220, Note_on_c, 0, 66, 0
2, 193416, Note_on_c, 0, 50, 61
2, 193420, Note_on_c, 0, 38, 41
2, 193476, Note_on_c, 0, 50, 0
2, 193484, Note_on_c, 0, 38, 0
2, 193552, Note_on_c, 0, 50, 60
2, 193556, Note_on_c, 0, 38, 57
2, 193624, Note_on_c, 0, 50, 0
2, 193628, Note_on_c, 0, 38, 0
2, 193788, Note_on_c, 0, 67, 42
2, 193792, Note_on_c, 0, 59, 53
2, 193800, Note_on_c, 0, 62, 45
2, 193804, Note_on_c, 0, 64, 32
2, 193828, Note_on_c, 0, 62, 0
2, 193836, Note_on_c, 0, 59, 0
2, 193848, Note_on_c, 0, 67, 0
2, 193856, Note_on_c, 0, 64, 0
2, 193928, Note_on_c, 0, 67, 42
2, 193932, Note_on_c, 0, 59, 48
2, 193940, Note_on_c, 0, 62, 51
2, 193944, Note_on_c, 0, 64, 38
2, 193988, Note_on_c, 0, 59, 0
2, 193988, Note_on_c, 0, 67, 0
2, 193996, Note_on_c, 0, 62, 0
2, 193996, Note_on_c, 0, 64, 0
2, 194184, Note_on_c, 0, 38, 58
2, 194188, Note_on_c, 0, 50, 68
2, 194236, Note_on_c, 0, 50, 0
2, 194240, Note_on_c, 0, 38, 0
2, 194332, Note_on_c, 0, 50, 62
2, 194332, Note_on_c, 0, 38, 58
2, 194380, Note_on_c, 0, 50, 0
2, 194384, Note_on_c, 0, 38, 0
2, 194568, Note_on_c, 0, 67, 71
2, 194572, Note_on_c, 0, 59, 65
2, 194572, Note_on_c, 0, 62, 60
2, 194576, Note_on_c, 0, 50, 75
2, 194576, Note_on_c, 0, 64, 54
2, 194576, Note_on_c, 0, 38, 68
2, 194736, Note_on_c, 0, 38, 0
2, 194752, Control_c, 0, 64, 127
2, 194784, Note_on_c, 0, 50, 0
2, 194820, Note_on_c, 0, 59, 0
2, 194848, Note_on_c, 0, 62, 0
2, 194852, Note_on_c, 0, 67, 0
2, 194856, Note_on_c, 0, 64, 0
2, 195280, Control_c, 0, 64, 0
2, 195304, Note_on_c, 0, 44, 71
2, 195308, Note_on_c, 0, 68, 72
2, 195308, Note_on_c, 0, 66, 71
2, 195308, Note_on_c, 0, 63, 77
2, 195308, Note_on_c, 0, 54, 71
2, 195312, Note_on_c, 0, 60, 80
2, 195344, Control_c, 0, 64, 127
2, 195376, Note_on_c, 0, 60, 0
2, 195392, Note_on_c, 0, 44, 0
2, 195404, Note_on_c, 0, 63, 0
2, 195416, Note_on_c, 0, 66, 0
2, 195420, Note_on_c, 0, 54, 0
2, 195424, Note_on_c, 0, 68, 0
2, 195596, Note_on_c, 0, 84, 89
2, 195596, Note_on_c, 0, 72, 82
2, 195636, Note_on_c, 0, 72, 0
2, 195664, Note_on_c, 0, 84, 0
2, 195844, Note_on_c, 0, 80, 74
2, 195844, Note_on_c, 0, 92, 81
2, 195880, Note_on_c, 0, 80, 0
2, 195892, Note_on_c, 0, 92, 0
2, 196104, Note_on_c, 0, 87, 79
2, 196108, Note_on_c, 0, 99, 74
2, 196152, Note_on_c, 0, 87, 0
2, 196164, Note_on_c, 0, 99, 0
2, 196348, Note_on_c, 0, 104, 64
2, 196356, Note_on_c, 0, 92, 57
2, 196448, Note_on_c, 0, 92, 0
2, 196456, Note_on_c, 0, 104, 0
2, 196580, Note_on_c, 0, 50, 39
2, 196580, Control_c, 0, 64, 0
2, 196592, Note_on_c, 0, 91, 46
2, 196596, Note_on_c, 0, 103, 42
2, 196596, Note_on_c, 0, 59, 39
2, 196604, Note_on_c, 0, 43, 19
2, 196648, Control_c, 0, 64, 127
2, 196652, Note_on_c, 0, 103, 0
2, 196664, Note_on_c, 0, 43, 0
2, 196680, Note_on_c, 0, 91, 0
2, 196684, Note_on_c, 0, 50, 0
2, 196724, Note_on_c, 0, 59, 0
2, 196736, Control_c, 0, 64, 0
2, 196972, Note_on_c, 0, 55, 37
2, 196972, Note_on_c, 0, 62, 29
2, 196992, Note_on_c, 0, 59, 24
2, 197032, Note_on_c, 0, 59, 0
2, 197032, Note_on_c, 0, 62, 0
2, 197064, Control_c, 0, 64, 127
2, 197068, Note_on_c, 0, 55, 0
2, 197352, Control_c, 0, 64, 0
2, 197360, Note_on_c, 0, 38, 46
2, 197392, Note_on_c, 0, 38, 0
2, 197400, Control_c, 0, 64, 127
2, 197620, Note_on_c, 0, 74, 91
2, 197716, Note_on_c, 0, 74, 0
2, 197740, Note_on_c, 0, 62, 40
2, 197748, Control_c, 0, 64, 0
2, 197752, Note_on_c, 0, 59, 35
2, 197764, Note_on_c, 0, 72, 59
2, 197776, Note_on_c, 0, 62, 0
2, 197784, Note_on_c, 0, 59, 0
2, 197952, Note_on_c, 0, 72, 0
2, 197960, Control_c, 0, 64, 127
2, 198004, Note_on_c, 0, 71, 45
2, 198044, Note_on_c, 0, 71, 0
2, 198120, Control_c, 0, 64, 0
2, 198124, Note_on_c, 0, 74, 38
2, 198136, Note_on_c, 0, 48, 38
2, 198136, Note_on_c, 0, 70, 33
2, 198144, Note_on_c, 0, 58, 20
2, 198152, Note_on_c, 0, 64, 24
2, 198216, Note_on_c, 0, 48, 0
2, 198268, Control_c, 0, 64, 127
2, 198280, Note_on_c, 0, 58, 0
2, 198292, Note_on_c, 0, 64, 0
2, 198292, Note_on_c, 0, 70, 0
2, 198296, Note_on_c, 0, 74, 0
2, 198388, Note_on_c, 0, 74, 42
2, 198388, Note_on_c, 0, 64, 47
2, 198396, Note_on_c, 0, 70, 46
2, 198424, Note_on_c, 0, 64, 0
2, 198448, Note_on_c, 0, 70, 0
2, 198472, Note_on_c, 0, 74, 0
2, 198496, Control_c, 0, 64, 0
2, 198504, Note_on_c, 0, 63, 38
2, 198532, Note_on_c, 0, 58, 27
2, 198548, Note_on_c, 0, 63, 0
2, 198584, Note_on_c, 0, 58, 0
2, 198684, Note_on_c, 0, 82, 79
2, 198740, Note_on_c, 0, 82, 0
2, 198744, Control_c, 0, 64, 127
2, 198780, Note_on_c, 0, 86, 85
2, 198836, Control_c, 0, 64, 0
2, 198876, Note_on_c, 0, 58, 33
2, 198880, Note_on_c, 0, 82, 64
2, 198896, Note_on_c, 0, 50, 37
2, 198904, Note_on_c, 0, 86, 0
2, 198940, Note_on_c, 0, 82, 0
2, 198980, Note_on_c, 0, 79, 55
2, 199024, Note_on_c, 0, 58, 0
2, 199040, Note_on_c, 0, 79, 0
2, 199072, Note_on_c, 0, 76, 51
2, 199128, Control_c, 0, 64, 127
2, 199152, Note_on_c, 0, 76, 0
2, 199156, Note_on_c, 0, 75, 55
2, 199172, Note_on_c, 0, 50, 0
2, 199224, Note_on_c, 0, 58, 27
2, 199232, Note_on_c, 0, 75, 0
2, 199232, Control_c, 0, 64, 0
2, 199232, Note_on_c, 0, 51, 38
2, 199264, Note_on_c, 0, 74, 46
2, 199288, Note_on_c, 0, 58, 0
2, 199320, Note_on_c, 0, 74, 0
2, 199324, Note_on_c, 0, 51, 0
2, 199344, Note_on_c, 0, 73, 54
2, 199392, Note_on_c, 0, 73, 0
2, 199420, Note_on_c, 0, 72, 30
2, 199472, Note_on_c, 0, 72, 0
2, 199484, Control_c, 0, 64, 127
2, 199504, Note_on_c, 0, 69, 30
2, 199540, Note_on_c, 0, 69, 0
2, 199584, Note_on_c, 0, 70, 57
2, 199616, Note_on_c, 0, 43, 38
2, 199624, Note_on_c, 0, 50, 30
2, 199628, Control_c, 0, 64, 0
2, 199644, Note_on_c, 0, 43, 0
2, 199652, Note_on_c, 0, 70, 0
2, 199668, Note_on_c, 0, 50, 0
2, 199696, Note_on_c, 0, 71, 44
2, 199756, Note_on_c, 0, 71, 0
2, 199784, Note_on_c, 0, 74, 76
2, 199848, Note_on_c, 0, 74, 0
2, 199888, Note_on_c, 0, 71, 66
2, 199944, Note_on_c, 0, 71, 0
2, 199952, Control_c, 0, 64, 127
2, 199984, Note_on_c, 0, 62, 34
2, 199988, Note_on_c, 0, 67, 57
2, 199996, Note_on_c, 0, 59, 36
2, 200004, Control_c, 0, 64, 0
2, 200016, Note_on_c, 0, 62, 0
2, 200032, Note_on_c, 0, 59, 0
2, 200052, Note_on_c, 0, 67, 0
2, 200096, Note_on_c, 0, 62, 29
2, 200128, Note_on_c, 0, 62, 0
2, 200184, Note_on_c, 0, 60, 33
2, 200248, Note_on_c, 0, 60, 0
2, 200292, Note_on_c, 0, 55, 37
2, 200300, Control_c, 0, 64, 127
2, 200324, Note_on_c, 0, 55, 0
2, 200368, Note_on_c, 0, 58, 37
2, 200384, Note_on_c, 0, 50, 25
2, 200384, Control_c, 0, 64, 0
2, 200444, Note_on_c, 0, 58, 0
2, 200476, Note_on_c, 0, 50, 0
2, 200484, Note_on_c, 0, 59, 53
2, 200532, Note_on_c, 0, 59, 0
2, 200580, Note_on_c, 0, 60, 50
2, 200632, Note_on_c, 0, 60, 0
2, 200680, Note_on_c, 0, 61, 75
2, 200704, Control_c, 0, 64, 127
2, 200744, Note_on_c, 0, 61, 0
2, 200760, Control_c, 0, 64, 0
2, 200772, Note_on_c, 0, 62, 84
2, 200780, Note_on_c, 0, 50, 48
2, 200808, Note_on_c, 0, 50, 0
2, 200864, Note_on_c, 0, 62, 0
2, 200892, Note_on_c, 0, 59, 57
2, 200932, Note_on_c, 0, 59, 0
2, 200988, Note_on_c, 0, 55, 24
2, 201008, Control_c, 0, 64, 127
2, 201028, Note_on_c, 0, 55, 0
2, 201096, Note_on_c, 0, 44, 28
2, 201164, Note_on_c, 0, 44, 0
2, 201168, Note_on_c, 0, 66, 71
2, 201172, Control_c, 0, 64, 0
2, 201176, Note_on_c, 0, 47, 51
2, 201252, Note_on_c, 0, 66, 0
2, 201288, Note_on_c, 0, 57, 24
2, 201312, Note_on_c, 0, 57, 0
2, 201368, Note_on_c, 0, 62, 45
2, 201408, Control_c, 0, 64, 127
2, 201452, Note_on_c, 0, 62, 0
2, 201464, Note_on_c, 0, 66, 64
2, 201504, Note_on_c, 0, 66, 0
2, 201512, Note_on_c, 0, 47, 0
2, 201528, Note_on_c, 0, 41, 44
2, 201528, Control_c, 0, 64, 0
2, 201572, Note_on_c, 0, 69, 35
2, 201596, Note_on_c, 0, 69, 0
2, 201656, Note_on_c, 0, 74, 71
2, 201680, Control_c, 0, 64, 127
2, 201708, Note_on_c, 0, 74, 0
2, 201752, Note_on_c, 0, 78, 63
2, 201812, Note_on_c, 0, 78, 0
2, 201848, Note_on_c, 0, 79, 87
2, 201892, Note_on_c, 0, 41, 0
2, 201916, Control_c, 0, 64, 0
2, 201932, Note_on_c, 0, 34, 49
2, 201940, Note_on_c, 0, 76, 75
2, 201940, Note_on_c, 0, 46, 35
2, 201948, Note_on_c, 0, 79, 0
2, 201984, Note_on_c, 0, 34, 0
2, 202004, Note_on_c, 0, 46, 0
2, 202020, Control_c, 0, 64, 127
2, 202024, Note_on_c, 0, 76, 0
2, 202052, Note_on_c, 0, 72, 58
2, 202108, Note_on_c, 0, 72, 0
2, 202144, Note_on_c, 0, 67, 28
2, 202184, Note_on_c, 0, 67, 0
2, 202260, Note_on_c, 0, 64, 58
2, 202316, Note_on_c, 0, 64, 0
2, 202344, Control_c, 0, 64, 0
2, 202344, Note_on_c, 0, 56, 27
2, 202364, Note_on_c, 0, 56, 0
2, 202368, Note_on_c, 0, 60, 44
2, 202532, Control_c, 0, 64, 127
2, 202572, Note_on_c, 0, 60, 0
2, 202584, Note_on_c, 0, 46, 31
2, 202672, Note_on_c, 0, 46, 0
2, 202712, Note_on_c, 0, 59, 34
2, 202716, Control_c, 0, 64, 0
2, 202728, Note_on_c, 0, 45, 38
2, 202736, Note_on_c, 0, 52, 20
2, 202784, Note_on_c, 0, 45, 0
2, 202796, Note_on_c, 0, 59, 0
2, 202800, Note_on_c, 0, 52, 0
2, 202840, Note_on_c, 0, 60, 40
2, 202872, Note_on_c, 0, 60, 0
2, 202904, Control_c, 0, 64, 127
2, 202944, Note_on_c, 0, 64, 64
2, 203024, Note_on_c, 0, 64, 0
2, 203064, Note_on_c, 0, 67, 51
2, 203092, Note_on_c, 0, 64, 32
2, 203096, Note_on_c, 0, 60, 33
2, 203100, Note_on_c, 0, 67, 0
2, 203100, Control_c, 0, 64, 0
2, 203112, Note_on_c, 0, 59, 26
2, 203172, Note_on_c, 0, 64, 0
2, 203188, Note_on_c, 0, 69, 58
2, 203236, Note_on_c, 0, 60, 0
2, 203244, Note_on_c, 0, 70, 48
2, 203248, Note_on_c, 0, 59, 0
2, 203276, Note_on_c, 0, 69, 0
2, 203280, Note_on_c, 0, 70, 0
2, 203284, Note_on_c, 0, 71, 62
2, 203340, Note_on_c, 0, 71, 0
2, 203368, Note_on_c, 0, 74, 81
2, 203372, Note_on_c, 0, 62, 70
2, 203428, Note_on_c, 0, 62, 0
2, 203436, Note_on_c, 0, 74, 0
2, 203500, Note_on_c, 0, 57, 40
2, 203512, Note_on_c, 0, 60, 22
2, 203524, Note_on_c, 0, 69, 53
2, 203552, Note_on_c, 0, 60, 0
2, 203576, Note_on_c, 0, 70, 11
2, 203604, Note_on_c, 0, 69, 0
2, 203612, Note_on_c, 0, 57, 0
2, 203616, Note_on_c, 0, 70, 0
2, 203620, Note_on_c, 0, 71, 58
2, 203692, Note_on_c, 0, 71, 0
2, 203736, Note_on_c, 0, 74, 85
2, 203748, Note_on_c, 0, 62, 78
2, 203812, Note_on_c, 0, 62, 0
2, 203836, Note_on_c, 0, 74, 0
2, 203868, Note_on_c, 0, 69, 33
2, 203888, Note_on_c, 0, 51, 42
2, 203920, Note_on_c, 0, 61, 9
2, 203928, Note_on_c, 0, 70, 31
2, 203968, Note_on_c, 0, 69, 0
2, 203992, Note_on_c, 0, 70, 0
2, 204004, Note_on_c, 0, 71, 42
2, 204080, Note_on_c, 0, 61, 0
2, 204084, Note_on_c, 0, 71, 0
2, 204116, Note_on_c, 0, 74, 88
2, 204172, Note_on_c, 0, 51, 0
2, 204196, Note_on_c, 0, 74, 0
2, 204208, Control_c, 0, 64, 127
2, 204224, Control_c, 0, 64, 0
2, 204248, Note_on_c, 0, 60, 29
2, 204256, Note_on_c, 0, 50, 30
2, 204260, Note_on_c, 0, 54, 33
2, 204376, Note_on_c, 0, 50, 0
2, 204392, Note_on_c, 0, 54, 0
2, 204392, Note_on_c, 0, 75, 53
2, 204412, Note_on_c, 0, 60, 0
2, 204432, Note_on_c, 0, 73, 25
2, 204448, Note_on_c, 0, 74, 62
2, 204452, Note_on_c, 0, 75, 0
2, 204484, Note_on_c, 0, 74, 0
2, 204552, Note_on_c, 0, 72, 64
2, 204560, Note_on_c, 0, 73, 0
2, 204596, Note_on_c, 0, 72, 0
2, 204624, Note_on_c, 0, 54, 38
2, 204656, Note_on_c, 0, 70, 70
2, 204680, Note_on_c, 0, 54, 0
2, 204752, Note_on_c, 0, 70, 0
2, 204760, Note_on_c, 0, 66, 68
2, 204816, Note_on_c, 0, 66, 0
2, 204844, Note_on_c, 0, 65, 49
2, 204868, Note_on_c, 0, 65, 0
2, 204956, Note_on_c, 0, 62, 48
2, 204956, Note_on_c, 0, 64, 54
2, 204976, Note_on_c, 0, 64, 0
2, 205004, Note_on_c, 0, 62, 0
2, 205028, Note_on_c, 0, 61, 62
2, 205036, Note_on_c, 0, 54, 29
2, 205052, Note_on_c, 0, 45, 32
2, 205104, Note_on_c, 0, 61, 0
2, 205128, Note_on_c, 0, 60, 55
2, 205152, Note_on_c, 0, 54, 0
2, 205172, Note_on_c, 0, 60, 0
2, 205320, Note_on_c, 0, 53, 53
2, 205344, Note_on_c, 0, 53, 0
2, 205396, Note_on_c, 0, 54, 28
2, 205408, Note_on_c, 0, 57, 64
2, 205452, Note_on_c, 0, 45, 0
2, 205468, Note_on_c, 0, 54, 0
2, 205472, Note_on_c, 0, 57, 0
2, 205508, Note_on_c, 0, 58, 49
2, 205556, Note_on_c, 0, 58, 0
2, 205608, Note_on_c, 0, 59, 35
2, 205636, Note_on_c, 0, 59, 0
2, 205704, Control_c, 0, 64, 127
2, 205712, Note_on_c, 0, 60, 53
2, 205764, Note_on_c, 0, 60, 0
2, 205768, Control_c, 0, 64, 0
2, 205800, Note_on_c, 0, 57, 42
2, 205808, Note_on_c, 0, 62, 58
2, 205812, Note_on_c, 0, 51, 34
2, 205816, Note_on_c, 0, 47, 28
2, 205864, Note_on_c, 0, 62, 0
2, 205884, Note_on_c, 0, 47, 0
2, 205896, Note_on_c, 0, 51, 0
2, 205916, Note_on_c, 0, 63, 37
2, 205916, Control_c, 0, 64, 127
2, 205932, Note_on_c, 0, 57, 0
2, 205936, Note_on_c, 0, 63, 0
2, 205996, Note_on_c, 0, 65, 49
2, 206060, Note_on_c, 0, 65, 0
2, 206104, Note_on_c, 0, 66, 56
2, 206180, Note_on_c, 0, 66, 0
2, 206200, Note_on_c, 0, 62, 32
2, 206204, Note_on_c, 0, 51, 30
2, 206208, Note_on_c, 0, 68, 53
2, 206216, Note_on_c, 0, 57, 36
2, 206224, Control_c, 0, 64, 0
2, 206256, Note_on_c, 0, 57, 0
2, 206260, Note_on_c, 0, 62, 0
2, 206264, Note_on_c, 0, 68, 0
2, 206284, Note_on_c, 0, 51, 0
2, 206312, Note_on_c, 0, 69, 54
2, 206360, Control_c, 0, 64, 127
2, 206368, Note_on_c, 0, 69, 0
2, 206400, Note_on_c, 0, 70, 31
2, 206456, Note_on_c, 0, 70, 0
2, 206496, Note_on_c, 0, 71, 56
2, 206540, Note_on_c, 0, 71, 0
2, 206580, Note_on_c, 0, 40, 38
2, 206580, Control_c, 0, 64, 0
2, 206584, Note_on_c, 0, 72, 67
2, 206608, Note_on_c, 0, 40, 0
2, 206632, Note_on_c, 0, 72, 0
2, 206672, Control_c, 0, 64, 127
2, 206696, Note_on_c, 0, 76, 71
2, 206740, Note_on_c, 0, 76, 0
2, 206772, Note_on_c, 0, 79, 87
2, 206896, Note_on_c, 0, 69, 45
2, 206920, Note_on_c, 0, 69, 0
2, 206936, Note_on_c, 0, 79, 0
2, 206992, Note_on_c, 0, 56, 57
2, 206996, Note_on_c, 0, 67, 57
2, 207004, Note_on_c, 0, 62, 52
2, 207008, Control_c, 0, 64, 0
2, 207100, Control_c, 0, 64, 127
2, 207220, Note_on_c, 0, 62, 0
2, 207240, Note_on_c, 0, 67, 0
2, 207288, Note_on_c, 0, 56, 0
2, 207360, Control_c, 0, 64, 0
2, 207364, Note_on_c, 0, 61, 38
2, 207368, Note_on_c, 0, 65, 36
2, 207380, Note_on_c, 0, 60, 29
2, 207384, Note_on_c, 0, 55, 32
2, 207500, Note_on_c, 0, 65, 0
2, 207508, Control_c, 0, 64, 127
2, 207512, Note_on_c, 0, 60, 0
2, 207528, Note_on_c, 0, 61, 0
2, 207544, Note_on_c, 0, 55, 0
2, 207600, Note_on_c, 0, 84, 82
2, 207604, Note_on_c, 0, 77, 73
2, 207680, Note_on_c, 0, 84, 0
2, 207688, Note_on_c, 0, 77, 0
2, 207704, Control_c, 0, 64, 0
2, 207724, Note_on_c, 0, 45, 47
2, 207740, Note_on_c, 0, 73, 48
2, 207744, Note_on_c, 0, 55, 33
2, 207744, Note_on_c, 0, 81, 52
2, 207760, Note_on_c, 0, 77, 24
2, 207792, Control_c, 0, 64, 127
2, 207800, Note_on_c, 0, 45, 0
2, 207804, Note_on_c, 0, 77, 0
2, 207852, Note_on_c, 0, 55, 0
2, 207856, Note_on_c, 0, 73, 0
2, 207856, Note_on_c, 0, 81, 0
2, 207984, Note_on_c, 0, 86, 79
2, 207984, Note_on_c, 0, 74, 73
2, 208088, Control_c, 0, 64, 0
2, 208092, Note_on_c, 0, 60, 45
2, 208100, Note_on_c, 0, 54, 38
2, 208108, Note_on_c, 0, 50, 29
2, 208116, Note_on_c, 0, 86, 0
2, 208128, Note_on_c, 0, 74, 0
2, 208168, Note_on_c, 0, 60, 0
2, 208204, Control_c, 0, 64, 127
2, 208220, Note_on_c, 0, 50, 0
2, 208224, Note_on_c, 0, 87, 53
2, 208232, Note_on_c, 0, 54, 0
2, 208244, Note_on_c, 0, 75, 29
2, 208272, Note_on_c, 0, 75, 0
2, 208280, Note_on_c, 0, 87, 0
2, 208352, Note_on_c, 0, 88, 58
2, 208352, Note_on_c, 0, 76, 61
2, 208380, Note_on_c, 0, 76, 0
2, 208392, Note_on_c, 0, 88, 0
2, 208464, Note_on_c, 0, 54, 30
2, 208468, Note_on_c, 0, 44, 35
2, 208476, Control_c, 0, 64, 0
2, 208476, Note_on_c, 0, 77, 44
2, 208480, Note_on_c, 0, 89, 49
2, 208500, Note_on_c, 0, 89, 0
2, 208500, Note_on_c, 0, 77, 0
2, 208516, Note_on_c, 0, 54, 0
2, 208520, Note_on_c, 0, 44, 0
2, 208544, Control_c, 0, 64, 127
2, 208576, Note_on_c, 0, 90, 51
2, 208584, Note_on_c, 0, 78, 31
2, 208616, Note_on_c, 0, 78, 0
2, 208624, Note_on_c, 0, 90, 0
2, 208708, Note_on_c, 0, 79, 63
2, 208716, Note_on_c, 0, 91, 53
2, 208764, Note_on_c, 0, 79, 0
2, 208792, Note_on_c, 0, 43, 15
2, 208800, Note_on_c, 0, 91, 0
2, 208800, Note_on_c, 0, 50, 20
2, 208824, Note_on_c, 0, 59, 40
2, 208844, Control_c, 0, 64, 0
2, 208860, Note_on_c, 0, 43, 0
2, 208888, Note_on_c, 0, 50, 0
2, 208904, Note_on_c, 0, 59, 0
2, 209060, Note_on_c, 0, 94, 63
2, 209072, Note_on_c, 0, 82, 58
2, 209092, Control_c, 0, 64, 127
2, 209104, Note_on_c, 0, 88, 19
2, 209128, Note_on_c, 0, 88, 0
2, 209152, Note_on_c, 0, 82, 0
2, 209156, Note_on_c, 0, 94, 0
2, 209196, Note_on_c, 0, 62, 44
2, 209204, Control_c, 0, 64, 0
2, 209204, Note_on_c, 0, 95, 60
2, 209204, Note_on_c, 0, 59, 40
2, 209208, Note_on_c, 0, 83, 59
2, 209220, Note_on_c, 0, 88, 28
2, 209244, Note_on_c, 0, 88, 0
2, 209244, Note_on_c, 0, 59, 0
2, 209244, Note_on_c, 0, 62, 0
2, 209268, Note_on_c, 0, 83, 0
2, 209284, Note_on_c, 0, 95, 0
2, 209460, Note_on_c, 0, 96, 78
2, 209468, Note_on_c, 0, 84, 60
2, 209484, Control_c, 0, 64, 127
2, 209504, Note_on_c, 0, 96, 0
2, 209512, Note_on_c, 0, 84, 0
2, 209556, Control_c, 0, 64, 0
2, 209564, Note_on_c, 0, 49, 45
2, 209584, Note_on_c, 0, 50, 57
2, 209592, Note_on_c, 0, 94, 60
2, 209596, Note_on_c, 0, 82, 58
2, 209640, Note_on_c, 0, 82, 0
2, 209640, Note_on_c, 0, 95, 46
2, 209652, Note_on_c, 0, 94, 0
2, 209656, Note_on_c, 0, 83, 39
2, 209664, Note_on_c, 0, 92, 25
2, 209672, Note_on_c, 0, 49, 0
2, 209680, Note_on_c, 0, 50, 0
2, 209684, Note_on_c, 0, 95, 0
2, 209696, Note_on_c, 0, 83, 0
2, 209696, Note_on_c, 0, 92, 0
2, 209824, Note_on_c, 0, 91, 62
2, 209836, Note_on_c, 0, 79, 45
2, 209904, Note_on_c, 0, 79, 0
2, 209940, Note_on_c, 0, 91, 0
2, 209960, Note_on_c, 0, 43, 46
2, 209968, Note_on_c, 0, 88, 47
2, 209984, Note_on_c, 0, 79, 24
2, 209992, Control_c, 0, 64, 127
2, 210012, Note_on_c, 0, 43, 0
2, 210028, Note_on_c, 0, 79, 0
2, 210084, Note_on_c, 0, 88, 0
2, 210208, Note_on_c, 0, 43, 55
2, 210328, Control_c, 0, 64, 0
2, 210328, Note_on_c, 0, 36, 15
2, 210352, Note_on_c, 0, 52, 60
2, 210396, Note_on_c, 0, 36, 0
2, 210404, Note_on_c, 0, 43, 0
2, 210416, Note_on_c, 0, 52, 0
2, 210416, Control_c, 0, 64, 127
2, 210588, Note_on_c, 0, 98, 96
2, 210692, Note_on_c, 0, 98, 0
2, 210700, Note_on_c, 0, 64, 46
2, 210716, Note_on_c, 0, 93, 72
2, 210728, Note_on_c, 0, 64, 0
2, 210728, Control_c, 0, 64, 0
2, 210728, Note_on_c, 0, 58, 23
2, 210736, Note_on_c, 0, 60, 19
2, 210756, Note_on_c, 0, 60, 0
2, 210764, Note_on_c, 0, 58, 0
2, 210772, Control_c, 0, 64, 127
2, 210792, Note_on_c, 0, 93, 0
2, 210832, Note_on_c, 0, 90, 56
2, 210908, Note_on_c, 0, 90, 0
2, 210948, Note_on_c, 0, 86, 58
2, 211000, Note_on_c, 0, 86, 0
2, 211056, Control_c, 0, 64, 0
2, 211068, Note_on_c, 0, 58, 38
2, 211072, Note_on_c, 0, 90, 69
2, 211076, Note_on_c, 0, 62, 31
2, 211076, Note_on_c, 0, 86, 76
2, 211096, Note_on_c, 0, 52, 24
2, 211104, Note_on_c, 0, 62, 0
2, 211128, Note_on_c, 0, 52, 0
2, 211136, Note_on_c, 0, 58, 0
2, 211160, Note_on_c, 0, 86, 0
2, 211168, Note_on_c, 0, 90, 0
2, 211176, Control_c, 0, 64, 127
2, 211196, Note_on_c, 0, 83, 36
2, 211228, Note_on_c, 0, 83, 0
2, 211308, Note_on_c, 0, 86, 68
2, 211316, Note_on_c, 0, 87, 67
2, 211324, Note_on_c, 0, 78, 63
2, 211336, Note_on_c, 0, 87, 0
2, 211388, Note_on_c, 0, 78, 0
2, 211416, Note_on_c, 0, 58, 33
2, 211440, Note_on_c, 0, 74, 39
2, 211444, Note_on_c, 0, 86, 0
2, 211456, Note_on_c, 0, 50, 27
2, 211484, Note_on_c, 0, 74, 0
2, 211500, Note_on_c, 0, 50, 0
2, 211520, Note_on_c, 0, 58, 0
2, 211560, Note_on_c, 0, 78, 46
2, 211664, Note_on_c, 0, 78, 0
2, 211688, Note_on_c, 0, 74, 45
2, 211744, Note_on_c, 0, 74, 0
2, 211804, Note_on_c, 0, 55, 48
2, 211812, Note_on_c, 0, 47, 58
2, 211816, Note_on_c, 0, 59, 58
2, 211820, Control_c, 0, 64, 0
2, 211820, Note_on_c, 0, 79, 67
2, 211824, Note_on_c, 0, 83, 64
2, 211896, Note_on_c, 0, 79, 0
2, 211904, Note_on_c, 0, 83, 0
2, 211928, Control_c, 0, 64, 127
2, 212120, Note_on_c, 0, 59, 0
2, 212140, Note_on_c, 0, 55, 0
2, 212212, Note_on_c, 0, 47, 0
2, 212284, Note_on_c, 0, 45, 65
2, 212288, Note_on_c, 0, 60, 80
2, 212288, Note_on_c, 0, 67, 75
2, 212292, Note_on_c, 0, 55, 43
2, 212320, Note_on_c, 0, 55, 0
2, 212336, Control_c, 0, 64, 0
2, 212384, Control_c, 0, 64, 127
2, 212400, Note_on_c, 0, 45, 0
2, 212572, Note_on_c, 0, 60, 0
2, 212636, Note_on_c, 0, 67, 0
2, 212700, Note_on_c, 0, 43, 36
2, 212700, Note_on_c, 0, 59, 35
2, 212700, Control_c, 0, 64, 0
2, 212704, Note_on_c, 0, 55, 41
2, 212852, Control_c, 0, 64, 127
2, 212952, Note_on_c, 0, 59, 0
2, 212968, Note_on_c, 0, 55, 0
2, 213040, Note_on_c, 0, 43, 0
2, 213080, Note_on_c, 0, 44, 38
2, 213088, Note_on_c, 0, 60, 55
2, 213092, Note_on_c, 0, 55, 34
2, 213096, Control_c, 0, 64, 0
2, 213256, Control_c, 0, 64, 127
2, 213352, Note_on_c, 0, 55, 0
2, 213356, Note_on_c, 0, 42, 32
2, 213400, Note_on_c, 0, 44, 0
2, 213444, Note_on_c, 0, 42, 0
2, 213448, Control_c, 0, 64, 0
2, 213456, Note_on_c, 0, 60, 0
2, 213456, Note_on_c, 0, 43, 36
2, 213476, Note_on_c, 0, 55, 26
2, 213484, Note_on_c, 0, 59, 41
2, 213500, Control_c, 0, 64, 127
2, 213528, Note_on_c, 0, 43, 0
2, 213540, Note_on_c, 0, 55, 0
2, 213556, Note_on_c, 0, 59, 0
2, 213728, Note_on_c, 0, 62, 51
2, 213732, Note_on_c, 0, 55, 53
2, 213736, Note_on_c, 0, 59, 48
2, 213772, Note_on_c, 0, 55, 0
2, 213792, Note_on_c, 0, 59, 0
2, 213816, Note_on_c, 0, 62, 0
2, 213860, Note_on_c, 0, 47, 36
2, 213868, Control_c, 0, 64, 0
2, 213872, Note_on_c, 0, 59, 45
2, 213876, Note_on_c, 0, 65, 45
2, 213888, Note_on_c, 0, 62, 30
2, 213920, Control_c, 0, 64, 127
2, 213928, Note_on_c, 0, 59, 0
2, 213928, Note_on_c, 0, 47, 0
2, 213940, Note_on_c, 0, 62, 0
2, 213956, Note_on_c, 0, 65, 0
2, 214152, Note_on_c, 0, 57, 24
2, 214184, Note_on_c, 0, 57, 0
2, 214256, Control_c, 0, 64, 0
2, 214268, Note_on_c, 0, 74, 80
2, 214268, Note_on_c, 0, 68, 79
2, 214272, Note_on_c, 0, 59, 61
2, 214276, Note_on_c, 0, 65, 76
2, 214340, Note_on_c, 0, 74, 0
2, 214364, Note_on_c, 0, 68, 0
2, 214368, Note_on_c, 0, 65, 0
2, 214372, Note_on_c, 0, 59, 0
2, 214524, Note_on_c, 0, 71, 66
2, 214528, Note_on_c, 0, 65, 61
2, 214532, Note_on_c, 0, 56, 50
2, 214532, Note_on_c, 0, 62, 59
2, 214532, Control_c, 0, 64, 127
2, 214604, Note_on_c, 0, 62, 0
2, 214604, Note_on_c, 0, 71, 0
2, 214628, Note_on_c, 0, 65, 0
2, 214640, Control_c, 0, 64, 0
2, 214672, Note_on_c, 0, 46, 39
2, 214676, Note_on_c, 0, 62, 33
2, 214680, Note_on_c, 0, 65, 39
2, 214688, Note_on_c, 0, 68, 34
2, 214736, Note_on_c, 0, 65, 0
2, 214740, Control_c, 0, 64, 127
2, 214764, Note_on_c, 0, 62, 0
2, 214816, Note_on_c, 0, 56, 0
2, 214848, Note_on_c, 0, 46, 0
2, 214868, Note_on_c, 0, 68, 0
2, 214916, Note_on_c, 0, 64, 50
2, 214920, Control_c, 0, 64, 0
2, 214920, Note_on_c, 0, 60, 38
2, 214932, Note_on_c, 0, 55, 28
2, 214936, Note_on_c, 0, 45, 35
2, 214944, Note_on_c, 0, 52, 29
2, 214992, Control_c, 0, 64, 127
2, 215000, Note_on_c, 0, 45, 0
2, 215012, Note_on_c, 0, 52, 0
2, 215016, Note_on_c, 0, 60, 0
2, 215036, Note_on_c, 0, 55, 0
2, 215052, Note_on_c, 0, 64, 0
2, 215812, Control_c, 0, 64, 0
2, 215816, Note_on_c, 0, 80, 67
2, 215816, Note_on_c, 0, 83, 75
2, 215816, Note_on_c, 0, 68, 71
2, 215820, Note_on_c, 0, 77, 69
2, 215904, Note_on_c, 0, 77, 0
2, 215916, Note_on_c, 0, 83, 0
2, 215936, Note_on_c, 0, 86, 72
2, 215940, Note_on_c, 0, 77, 59
2, 215944, Note_on_c, 0, 71, 66
2, 215960, Note_on_c, 0, 68, 0
2, 215980, Control_c, 0, 64, 127
2, 216060, Note_on_c, 0, 86, 0
2, 216088, Note_on_c, 0, 77, 0
2, 216104, Note_on_c, 0, 71, 0
2, 216112, Note_on_c, 0, 80, 0
2, 216160, Control_c, 0, 64, 0
2, 216172, Note_on_c, 0, 84, 80
2, 216176, Note_on_c, 0, 69, 61
2, 216184, Note_on_c, 0, 79, 68
2, 216184, Note_on_c, 0, 76, 65
2, 216232, Note_on_c, 0, 79, 0
2, 216244, Note_on_c, 0, 84, 0
2, 216252, Control_c, 0, 64, 127
2, 216264, Note_on_c, 0, 76, 0
2, 216364, Note_on_c, 0, 69, 0
2, 216420, Note_on_c, 0, 65, 38
2, 216420, Note_on_c, 0, 76, 48
2, 216468, Note_on_c, 0, 76, 0
2, 216472, Note_on_c, 0, 65, 0
2, 216552, Control_c, 0, 64, 0
2, 216552, Note_on_c, 0, 69, 55
2, 216556, Note_on_c, 0, 83, 68
2, 216560, Note_on_c, 0, 72, 57
2, 216564, Note_on_c, 0, 76, 61
2, 216632, Note_on_c, 0, 72, 0
2, 216636, Note_on_c, 0, 76, 0
2, 216652, Note_on_c, 0, 83, 0
2, 216664, Note_on_c, 0, 69, 0
2, 216688, Note_on_c, 0, 72, 43
2, 216688, Note_on_c, 0, 81, 55
2, 216692, Note_on_c, 0, 76, 48
2, 216696, Note_on_c, 0, 67, 40
2, 216720, Note_on_c, 0, 67, 0
2, 216744, Control_c, 0, 64, 127
2, 216752, Note_on_c, 0, 76, 0
2, 216752, Note_on_c, 0, 81, 0
2, 216756, Note_on_c, 0, 72, 0
2, 216928, Control_c, 0, 64, 0
2, 216928, Note_on_c, 0, 54, 42
2, 216940, Note_on_c, 0, 60, 40
2, 216940, Note_on_c, 0, 80, 48
2, 216948, Note_on_c, 0, 75, 51
2, 216948, Note_on_c, 0, 72, 51
2, 216992, Note_on_c, 0, 80, 0
2, 217000, Note_on_c, 0, 75, 0
2, 217000, Note_on_c, 0, 72, 0
2, 217008, Note_on_c, 0, 60, 0
2, 217020, Control_c, 0, 64, 127
2, 217044, Note_on_c, 0, 54, 0
2, 217204, Note_on_c, 0, 63, 72
2, 217208, Note_on_c, 0, 68, 70
2, 217216, Note_on_c, 0, 60, 58
2, 217216, Note_on_c, 0, 54, 60
2, 217244, Control_c, 0, 64, 0
2, 217380, Control_c, 0, 64, 127
2, 217492, Note_on_c, 0, 68, 0
2, 217520, Note_on_c, 0, 63, 0
2, 217548, Note_on_c, 0, 60, 0
2, 217612, Note_on_c, 0, 50, 31
2, 217652, Note_on_c, 0, 50, 0
2, 217684, Control_c, 0, 64, 0
2, 217700, Note_on_c, 0, 44, 47
2, 217764, Control_c, 0, 64, 127
2, 217800, Note_on_c, 0, 54, 0
2, 217900, Note_on_c, 0, 44, 0
2, 217968, Note_on_c, 0, 60, 53
2, 217972, Note_on_c, 0, 62, 50
2, 217988, Note_on_c, 0, 60, 0
2, 217996, Note_on_c, 0, 62, 0
2, 218088, Note_on_c, 0, 43, 40
2, 218124, Control_c, 0, 64, 0
2, 218356, Note_on_c, 0, 50, 59
2, 218360, Note_on_c, 0, 43, 0
2, 218360, Note_on_c, 0, 49, 36
2, 218360, Note_on_c, 0, 65, 75
2, 218368, Note_on_c, 0, 62, 69
2, 218416, Note_on_c, 0, 62, 0
2, 218416, Note_on_c, 0, 49, 0
2, 218424, Note_on_c, 0, 65, 0
2, 218504, Note_on_c, 0, 58, 62
2, 218508, Note_on_c, 0, 62, 54
2, 218540, Note_on_c, 0, 50, 0
2, 218548, Note_on_c, 0, 58, 0
2, 218560, Note_on_c, 0, 59, 51
2, 218636, Note_on_c, 0, 62, 0
2, 218648, Note_on_c, 0, 59, 0
2, 218748, Note_on_c, 0, 62, 68
2, 218752, Note_on_c, 0, 55, 74
2, 219044, Note_on_c, 0, 62, 0
2, 219052, Note_on_c, 0, 50, 69
2, 219076, Note_on_c, 0, 55, 0
2, 219212, Note_on_c, 0, 50, 0
2, 219252, Note_on_c, 0, 54, 54
2, 219260, Note_on_c, 0, 50, 38
2, 219264, Note_on_c, 0, 42, 44
2, 219352, Note_on_c, 0, 50, 0
2, 219412, Control_c, 0, 64, 127
2, 219420, Note_on_c, 0, 54, 0
2, 219496, Note_on_c, 0, 53, 64
2, 219500, Note_on_c, 0, 48, 58
2, 219504, Note_on_c, 0, 42, 0
2, 219504, Control_c, 0, 64, 0
2, 219520, Note_on_c, 0, 43, 44
2, 219560, Note_on_c, 0, 48, 0
2, 219604, Note_on_c, 0, 53, 0
2, 219624, Control_c, 0, 64, 127
2, 219840, Note_on_c, 0, 43, 0
2, 219876, Note_on_c, 0, 31, 57
2, 219896, Note_on_c, 0, 31, 0
2, 219976, Control_c, 0, 64, 0
2, 220016, Note_on_c, 0, 76, 70
2, 220016, Note_on_c, 0, 69, 74
2, 220016, Note_on_c, 0, 72, 70
2, 220020, Note_on_c, 0, 65, 74
2, 220028, Control_c, 0, 64, 127
2, 220032, Note_on_c, 0, 64, 74
2, 220048, Note_on_c, 0, 62, 28
2, 220068, Note_on_c, 0, 62, 0
2, 220176, Note_on_c, 0, 65, 0
2, 220200, Note_on_c, 0, 69, 0
2, 220212, Note_on_c, 0, 72, 0
2, 220220, Note_on_c, 0, 76, 0
2, 220244, Note_on_c, 0, 64, 0
2, 220396, Control_c, 0, 64, 0
2, 220408, Note_on_c, 0, 75, 43
2, 220408, Note_on_c, 0, 64, 41
2, 220408, Note_on_c, 0, 79, 54
2, 220412, Note_on_c, 0, 53, 44
2, 220416, Note_on_c, 0, 71, 47
2, 220424, Note_on_c, 0, 59, 35
2, 220452, Note_on_c, 0, 64, 0
2, 220456, Note_on_c, 0, 59, 0
2, 220460, Control_c, 0, 64, 127
2, 220472, Note_on_c, 0, 79, 0
2, 220492, Note_on_c, 0, 53, 0
2, 220496, Note_on_c, 0, 75, 0
2, 220508, Note_on_c, 0, 71, 0
2, 220772, Control_c, 0, 64, 0
2, 220776, Note_on_c, 0, 65, 38
2, 220780, Note_on_c, 0, 53, 26
2, 220780, Note_on_c, 0, 71, 35
2, 220784, Note_on_c, 0, 43, 25
2, 220784, Note_on_c, 0, 68, 37
2, 220824, Control_c, 0, 64, 127
2, 220832, Note_on_c, 0, 43, 0
2, 220884, Note_on_c, 0, 53, 0
2, 220976, Note_on_c, 0, 65, 0
2, 221024, Note_on_c, 0, 68, 0
2, 221056, Note_on_c, 0, 71, 0
2, 221148, Note_on_c, 0, 48, 27
2, 221160, Note_on_c, 0, 64, 34
2, 221160, Control_c, 0, 64, 0
2, 221160, Note_on_c, 0, 55, 34
2, 221164, Note_on_c, 0, 67, 34
2, 221212, Note_on_c, 0, 64, 0
2, 221252, Note_on_c, 0, 67, 0
2, 221252, Control_c, 0, 64, 127
2, 221332, Note_on_c, 0, 55, 0
2, 221352, Note_on_c, 0, 48, 0
2, 221548, Note_on_c, 0, 55, 30
2, 221548, Note_on_c, 0, 48, 36
2, 221552, Control_c, 0, 64, 0
2, 221568, Control_c, 0, 64, 127
2, 221736, Note_on_c, 0, 48, 0
2, 221884, Note_on_c, 0, 55, 0
2, 221928, Note_on_c, 0, 96, 95
2, 221928, Note_on_c, 0, 56, 47
2, 221936, Note_on_c, 0, 48, 55
2, 221940, Control_c, 0, 64, 0
2, 221984, Note_on_c, 0, 96, 0
2, 222040, Note_on_c, 0, 92, 64
2, 222084, Note_on_c, 0, 56, 0
2, 222136, Note_on_c, 0, 88, 41
2, 222140, Note_on_c, 0, 92, 0
2, 222148, Note_on_c, 0, 48, 0
2, 222184, Note_on_c, 0, 88, 0
2, 222220, Note_on_c, 0, 84, 52
2, 222244, Note_on_c, 0, 84, 0
2, 222252, Control_c, 0, 64, 127
2, 222300, Note_on_c, 0, 56, 37
2, 222304, Note_on_c, 0, 80, 58
2, 222308, Control_c, 0, 64, 0
2, 222332, Note_on_c, 0, 48, 28
2, 222388, Note_on_c, 0, 80, 0
2, 222420, Note_on_c, 0, 76, 56
2, 222472, Note_on_c, 0, 76, 0
2, 222492, Note_on_c, 0, 48, 0
2, 222500, Note_on_c, 0, 72, 57
2, 222512, Note_on_c, 0, 56, 0
2, 222548, Note_on_c, 0, 72, 0
2, 222604, Note_on_c, 0, 56, 33
2, 222616, Note_on_c, 0, 67, 30
2, 222636, Note_on_c, 0, 48, 30
2, 222648, Note_on_c, 0, 67, 0
2, 222660, Note_on_c, 0, 56, 0
2, 222700, Note_on_c, 0, 69, 35
2, 222700, Note_on_c, 0, 57, 45
2, 222876, Note_on_c, 0, 69, 0
2, 222884, Note_on_c, 0, 67, 38
2, 222944, Control_c, 0, 64, 127
2, 222984, Note_on_c, 0, 57, 0
2, 223024, Note_on_c, 0, 48, 0
2, 223040, Note_on_c, 0, 67, 0
2, 223092, Note_on_c, 0, 57, 36
2, 223092, Note_on_c, 0, 48, 31
2, 223096, Control_c, 0, 64, 0
2, 223244, Note_on_c, 0, 48, 0
2, 223268, Note_on_c, 0, 69, 56
2, 223324, Note_on_c, 0, 57, 0
2, 223324, Note_on_c, 0, 67, 54
2, 223336, Note_on_c, 0, 69, 0
2, 223336, Control_c, 0, 64, 127
2, 223396, Note_on_c, 0, 67, 0
2, 223400, Note_on_c, 0, 64, 48
2, 223444, Note_on_c, 0, 64, 0
2, 223484, Note_on_c, 0, 57, 40
2, 223488, Note_on_c, 0, 49, 33
2, 223492, Control_c, 0, 64, 0
2, 223600, Note_on_c, 0, 60, 36
2, 223628, Note_on_c, 0, 60, 0
2, 223636, Note_on_c, 0, 57, 0
2, 223660, Note_on_c, 0, 61, 49
2, 223708, Note_on_c, 0, 61, 0
2, 223708, Note_on_c, 0, 63, 47
2, 223740, Note_on_c, 0, 63, 0
2, 223764, Note_on_c, 0, 64, 62
2, 223788, Note_on_c, 0, 64, 0
2, 223820, Note_on_c, 0, 66, 35
2, 223840, Note_on_c, 0, 66, 0
2, 223868, Note_on_c, 0, 57, 38
2, 223872, Note_on_c, 0, 67, 60
2, 223908, Note_on_c, 0, 67, 0
2, 223912, Note_on_c, 0, 68, 32
2, 223936, Note_on_c, 0, 68, 0
2, 223952, Note_on_c, 0, 69, 35
2, 223976, Note_on_c, 0, 70, 51
2, 223980, Note_on_c, 0, 69, 0
2, 224036, Note_on_c, 0, 70, 0
2, 224052, Note_on_c, 0, 71, 43
2, 224092, Note_on_c, 0, 49, 0
2, 224112, Note_on_c, 0, 71, 0
2, 224124, Note_on_c, 0, 57, 0
2, 224132, Note_on_c, 0, 74, 85
2, 224196, Note_on_c, 0, 74, 0
2, 224232, Note_on_c, 0, 72, 70
2, 224248, Note_on_c, 0, 59, 45
2, 224252, Note_on_c, 0, 50, 32
2, 224292, Note_on_c, 0, 72, 0
2, 224316, Note_on_c, 0, 59, 0
2, 224344, Note_on_c, 0, 71, 64
2, 224400, Note_on_c, 0, 71, 0
2, 224444, Note_on_c, 0, 67, 52
2, 224504, Note_on_c, 0, 67, 0
2, 224540, Note_on_c, 0, 62, 37
2, 224576, Control_c, 0, 64, 127
2, 224592, Note_on_c, 0, 62, 0
2, 224616, Note_on_c, 0, 59, 32
2, 224636, Control_c, 0, 64, 0
2, 224648, Note_on_c, 0, 59, 0
2, 224648, Note_on_c, 0, 60, 31
2, 224720, Note_on_c, 0, 50, 0
2, 224800, Note_on_c, 0, 60, 0
2, 224860, Note_on_c, 0, 50, 69
2, 224860, Note_on_c, 0, 58, 49
2, 224872, Note_on_c, 0, 49, 46
2, 224900, Control_c, 0, 64, 127
2, 224912, Note_on_c, 0, 49, 0
2, 224952, Control_c, 0, 64, 0
2, 224968, Note_on_c, 0, 58, 0
2, 225008, Note_on_c, 0, 59, 34
2, 225060, Note_on_c, 0, 59, 0
2, 225132, Note_on_c, 0, 60, 37
2, 225176, Note_on_c, 0, 60, 0
2, 225256, Note_on_c, 0, 62, 68
2, 225268, Note_on_c, 0, 38, 49
2, 225304, Note_on_c, 0, 38, 0
2, 225320, Note_on_c, 0, 62, 0
2, 225376, Note_on_c, 0, 58, 34
2, 225396, Note_on_c, 0, 58, 0
2, 225400, Note_on_c, 0, 50, 0
2, 225404, Note_on_c, 0, 59, 43
2, 225460, Note_on_c, 0, 59, 0
2, 225496, Note_on_c, 0, 55, 50
2, 225576, Note_on_c, 0, 55, 0
2, 225616, Note_on_c, 0, 50, 40
2, 225712, Note_on_c, 0, 50, 0
2, 225752, Note_on_c, 0, 52, 58
2, 225812, Note_on_c, 0, 52, 0
2, 225876, Note_on_c, 0, 55, 65
2, 225936, Note_on_c, 0, 55, 0
2, 225980, Note_on_c, 0, 49, 52
2, 225980, Note_on_c, 0, 50, 66
2, 225996, Note_on_c, 0, 57, 76
2, 226016, Note_on_c, 0, 49, 0
2, 226068, Note_on_c, 0, 57, 0
2, 226116, Note_on_c, 0, 57, 46
2, 226152, Note_on_c, 0, 58, 42
2, 226156, Note_on_c, 0, 57, 0
2, 226192, Note_on_c, 0, 58, 0
2, 226204, Note_on_c, 0, 59, 49
2, 226248, Note_on_c, 0, 59, 0
2, 226296, Note_on_c, 0, 62, 62
2, 226348, Note_on_c, 0, 62, 0
2, 226416, Note_on_c, 0, 64, 96
2, 226500, Note_on_c, 0, 64, 0
2, 226540, Note_on_c, 0, 62, 57
2, 226604, Note_on_c, 0, 62, 0
2, 226652, Note_on_c, 0, 57, 43
2, 226728, Note_on_c, 0, 57, 0
2, 226784, Note_on_c, 0, 59, 54
2, 226852, Note_on_c, 0, 59, 0
2, 226920, Note_on_c, 0, 60, 32
2, 226928, Note_on_c, 0, 50, 0
2, 226932, Control_c, 0, 64, 127
2, 226968, Note_on_c, 0, 60, 0
2, 227040, Note_on_c, 0, 62, 59
2, 227108, Note_on_c, 0, 62, 0
2, 227160, Note_on_c, 0, 63, 59
2, 227232, Note_on_c, 0, 63, 0
2, 227276, Control_c, 0, 64, 0
2, 227292, Note_on_c, 0, 59, 25
2, 227292, Note_on_c, 0, 55, 37
2, 227296, Note_on_c, 0, 52, 37
2, 227404, Note_on_c, 0, 67, 35
2, 227432, Note_on_c, 0, 67, 0
2, 227476, Control_c, 0, 64, 127
2, 227496, Note_on_c, 0, 71, 57
2, 227556, Note_on_c, 0, 71, 0
2, 227604, Note_on_c, 0, 76, 42
2, 227608, Note_on_c, 0, 74, 39
2, 227632, Note_on_c, 0, 74, 0
2, 227640, Note_on_c, 0, 76, 0
2, 227684, Control_c, 0, 64, 0
2, 227688, Note_on_c, 0, 64, 45
2, 227704, Note_on_c, 0, 75, 63
2, 227740, Note_on_c, 0, 76, 30
2, 227772, Note_on_c, 0, 76, 0
2, 227800, Note_on_c, 0, 64, 0
2, 227836, Note_on_c, 0, 66, 59
2, 227844, Control_c, 0, 64, 127
2, 227852, Note_on_c, 0, 52, 0
2, 227900, Note_on_c, 0, 66, 0
2, 227908, Note_on_c, 0, 75, 0
2, 227948, Note_on_c, 0, 71, 66
2, 227968, Note_on_c, 0, 55, 0
2, 228004, Note_on_c, 0, 71, 0
2, 228020, Note_on_c, 0, 59, 0
2, 228052, Note_on_c, 0, 75, 65
2, 228056, Control_c, 0, 64, 0
2, 228084, Note_on_c, 0, 52, 40
2, 228088, Note_on_c, 0, 63, 21
2, 228132, Note_on_c, 0, 75, 0
2, 228168, Note_on_c, 0, 63, 0
2, 228172, Note_on_c, 0, 66, 49
2, 228172, Note_on_c, 0, 59, 17
2, 228176, Control_c, 0, 64, 127
2, 228176, Note_on_c, 0, 78, 48
2, 228216, Note_on_c, 0, 66, 0
2, 228244, Note_on_c, 0, 78, 0
2, 228352, Note_on_c, 0, 83, 64
2, 228376, Note_on_c, 0, 83, 0
2, 228388, Note_on_c, 0, 59, 0
2, 228508, Note_on_c, 0, 63, 37
2, 228524, Note_on_c, 0, 59, 37
2, 228572, Note_on_c, 0, 52, 0
2, 228764, Note_on_c, 0, 52, 53
2, 228768, Note_on_c, 0, 59, 0
2, 228768, Note_on_c, 0, 63, 0
2, 228832, Note_on_c, 0, 52, 0
2, 228884, Control_c, 0, 64, 0
2, 228888, Note_on_c, 0, 62, 47
2, 228892, Note_on_c, 0, 59, 30
2, 228908, Note_on_c, 0, 52, 24
2, 228916, Note_on_c, 0, 55, 32
2, 229064, Control_c, 0, 64, 127
2, 229104, Note_on_c, 0, 62, 0
2, 229108, Note_on_c, 0, 55, 0
2, 229112, Note_on_c, 0, 59, 0
2, 229140, Note_on_c, 0, 91, 74
2, 229144, Note_on_c, 0, 79, 66
2, 229172, Note_on_c, 0, 79, 0
2, 229200, Note_on_c, 0, 91, 0
2, 229248, Control_c, 0, 64, 0
2, 229252, Note_on_c, 0, 59, 42
2, 229256, Note_on_c, 0, 62, 43
2, 229268, Note_on_c, 0, 95, 81
2, 229276, Note_on_c, 0, 83, 77
2, 229276, Note_on_c, 0, 55, 28
2, 229324, Note_on_c, 0, 83, 0
2, 229348, Note_on_c, 0, 95, 0
2, 229352, Note_on_c, 0, 55, 0
2, 229352, Control_c, 0, 64, 127
2, 229368, Note_on_c, 0, 52, 0
2, 229368, Note_on_c, 0, 59, 0
2, 229404, Note_on_c, 0, 62, 0
2, 229512, Note_on_c, 0, 61, 62
2, 229516, Note_on_c, 0, 55, 67
2, 229516, Note_on_c, 0, 65, 60
2, 229520, Control_c, 0, 64, 0
2, 229524, Note_on_c, 0, 98, 82
2, 229524, Note_on_c, 0, 86, 77
2, 229528, Note_on_c, 0, 92, 76
2, 229620, Note_on_c, 0, 92, 0
2, 229624, Note_on_c, 0, 98, 0
2, 229632, Note_on_c, 0, 86, 0
2, 229636, Note_on_c, 0, 65, 0
2, 229648, Note_on_c, 0, 55, 0
2, 229652, Note_on_c, 0, 61, 0
2, 229716, Note_on_c, 0, 87, 64
2, 229720, Note_on_c, 0, 83, 62
2, 229724, Note_on_c, 0, 61, 51
2, 229728, Note_on_c, 0, 95, 37
2, 229732, Note_on_c, 0, 55, 53
2, 229732, Note_on_c, 0, 65, 46
2, 229740, Note_on_c, 0, 90, 33
2, 229824, Control_c, 0, 64, 127
2, 229840, Note_on_c, 0, 87, 0
2, 229852, Note_on_c, 0, 88, 35
2, 229912, Note_on_c, 0, 95, 0
2, 229916, Note_on_c, 0, 83, 0
2, 229920, Note_on_c, 0, 55, 0
2, 229932, Note_on_c, 0, 65, 0
2, 229936, Note_on_c, 0, 88, 0
2, 229944, Note_on_c, 0, 61, 0
2, 229944, Note_on_c, 0, 90, 0
2, 230000, Control_c, 0, 64, 0
2, 230028, Note_on_c, 0, 94, 62
2, 230028, Note_on_c, 0, 61, 51
2, 230032, Note_on_c, 0, 82, 49
2, 230040, Note_on_c, 0, 87, 49
2, 230040, Note_on_c, 0, 65, 32
2, 230044, Note_on_c, 0, 55, 48
2, 230068, Control_c, 0, 64, 127
2, 230092, Note_on_c, 0, 65, 0
2, 230144, Note_on_c, 0, 87, 0
2, 230144, Note_on_c, 0, 55, 0
2, 230160, Note_on_c, 0, 94, 0
2, 230164, Note_on_c, 0, 82, 0
2, 230164, Note_on_c, 0, 61, 0
2, 230272, Control_c, 0, 64, 0
2, 230276, Note_on_c, 0, 64, 68
2, 230280, Note_on_c, 0, 95, 78
2, 230280, Note_on_c, 0, 55, 57
2, 230280, Note_on_c, 0, 60, 58
2, 230284, Note_on_c, 0, 88, 66
2, 230284, Note_on_c, 0, 83, 63
2, 230288, Note_on_c, 0, 59, 64
2, 230292, Note_on_c, 0, 91, 64
2, 230344, Control_c, 0, 64, 127
2, 230348, Note_on_c, 0, 59, 0
2, 230352, Note_on_c, 0, 83, 0
2, 230364, Note_on_c, 0, 55, 0
2, 230372, Note_on_c, 0, 60, 0
2, 230376, Note_on_c, 0, 88, 0
2, 230384, Note_on_c, 0, 64, 0
2, 230384, Note_on_c, 0, 55, 18
2, 230388, Note_on_c, 0, 91, 0
2, 230396, Note_on_c, 0, 83, 51
2, 230400, Note_on_c, 0, 95, 0
2, 230444, Note_on_c, 0, 59, 34
2, 230448, Note_on_c, 0, 83, 0
2, 230448, Note_on_c, 0, 55, 0
2, 230452, Note_on_c, 0, 64, 32
2, 230456, Note_on_c, 0, 88, 45
2, 230460, Note_on_c, 0, 91, 22
2, 230460, Note_on_c, 0, 60, 39
2, 230472, Note_on_c, 0, 59, 0
2, 230484, Note_on_c, 0, 88, 0
2, 230488, Note_on_c, 0, 60, 0
2, 230488, Note_on_c, 0, 91, 0
2, 230504, Note_on_c, 0, 83, 52
2, 230520, Note_on_c, 0, 64, 0
2, 230544, Note_on_c, 0, 83, 0
2, 230548, Note_on_c, 0, 55, 49
2, 230552, Note_on_c, 0, 95, 24
2, 230572, Note_on_c, 0, 55, 0
2, 230572, Note_on_c, 0, 91, 34
2, 230580, Note_on_c, 0, 59, 28
2, 230584, Note_on_c, 0, 88, 22
2, 230588, Note_on_c, 0, 95, 0
2, 230592, Note_on_c, 0, 60, 45
2, 230604, Note_on_c, 0, 91, 0
2, 230608, Note_on_c, 0, 64, 24
2, 230608, Note_on_c, 0, 83, 60
2, 230612, Note_on_c, 0, 88, 0
2, 230612, Note_on_c, 0, 59, 0
2, 230632, Note_on_c, 0, 60, 0
2, 230644, Note_on_c, 0, 64, 0
2, 230660, Note_on_c, 0, 83, 0
2, 230668, Control_c, 0, 64, 0
2, 230724, Note_on_c, 0, 93, 62
2, 230724, Note_on_c, 0, 64, 54
2, 230728, Note_on_c, 0, 81, 50
2, 230728, Note_on_c, 0, 88, 43
2, 230728, Note_on_c, 0, 60, 53
2, 230736, Note_on_c, 0, 55, 44
2, 230736, Note_on_c, 0, 59, 39
2, 230768, Note_on_c, 0, 59, 0
2, 230780, Note_on_c, 0, 64, 0
2, 230788, Note_on_c, 0, 60, 0
2, 230788, Note_on_c, 0, 93, 0
2, 230788, Note_on_c, 0, 81, 0
2, 230800, Note_on_c, 0, 55, 0
2, 230820, Note_on_c, 0, 88, 0
2, 230904, Control_c, 0, 64, 127
2, 230996, Control_c, 0, 64, 0
2, 231000, Note_on_c, 0, 93, 77
2, 231004, Note_on_c, 0, 64, 69
2, 231004, Note_on_c, 0, 60, 61
2, 231004, Note_on_c, 0, 88, 77
2, 231008, Note_on_c, 0, 55, 61
2, 231012, Note_on_c, 0, 59, 59
2, 231012, Note_on_c, 0, 81, 60
2, 231072, Control_c, 0, 64, 127
2, 231092, Note_on_c, 0, 64, 0
2, 231104, Note_on_c, 0, 59, 0
2, 231108, Note_on_c, 0, 60, 0
2, 231124, Note_on_c, 0, 55, 0
2, 231132, Note_on_c, 0, 81, 0
2, 231140, Note_on_c, 0, 93, 0
2, 231152, Note_on_c, 0, 88, 0
2, 231372, Note_on_c, 0, 50, 87
2, 231372, Note_on_c, 0, 38, 82
2, 231376, Note_on_c, 0, 48, 74
2, 231396, Note_on_c, 0, 48, 0
2, 231396, Control_c, 0, 64, 0
2, 231432, Control_c, 0, 64, 127
2, 231484, Note_on_c, 0, 38, 0
2, 231532, Note_on_c, 0, 50, 0
2, 231752, Note_on_c, 0, 68, 79
2, 231756, Note_on_c, 0, 63, 83
2, 231756, Note_on_c, 0, 66, 75
2, 231756, Note_on_c, 0, 54, 72
2, 231760, Note_on_c, 0, 60, 85
2, 231880, Note_on_c, 0, 54, 0
2, 232140, Note_on_c, 0, 50, 95
2, 232144, Note_on_c, 0, 38, 92
2, 232164, Note_on_c, 0, 48, 27
2, 232168, Control_c, 0, 64, 0
2, 232184, Note_on_c, 0, 48, 0
2, 232248, Note_on_c, 0, 60, 0
2, 232256, Control_c, 0, 64, 127
2, 232340, Note_on_c, 0, 38, 0
2, 232368, Note_on_c, 0, 63, 0
2, 232396, Note_on_c, 0, 50, 0
2, 232408, Note_on_c, 0, 66, 0
2, 232424, Note_on_c, 0, 68, 0
2, 232724, Note_on_c, 0, 71, 108
2, 232732, Note_on_c, 0, 50, 84
2, 232736, Note_on_c, 0, 59, 62
2, 232752, Note_on_c, 0, 59, 0
2, 232760, Control_c, 0, 64, 0
2, 232824, Control_c, 0, 64, 127
2, 232912, Note_on_c, 0, 50, 0
2, 232968, Note_on_c, 0, 71, 0
2, 233000, Note_on_c, 0, 72, 48
2, 233044, Note_on_c, 0, 72, 0
2, 233128, Note_on_c, 0, 73, 60
2, 233252, Note_on_c, 0, 73, 0
2, 233444, Note_on_c, 0, 57, 26
2, 233480, Note_on_c, 0, 57, 0
2, 233480, Control_c, 0, 64, 0
2, 233484, Note_on_c, 0, 74, 41
2, 233488, Note_on_c, 0, 59, 37
2, 233496, Note_on_c, 0, 71, 40
2, 233496, Note_on_c, 0, 62, 29
2, 233496, Note_on_c, 0, 67, 38
2, 233640, Note_on_c, 0, 59, 0
2, 233648, Control_c, 0, 64, 127
2, 233724, Note_on_c, 0, 67, 0
2, 233732, Note_on_c, 0, 62, 0
2, 233760, Note_on_c, 0, 74, 0
2, 233764, Note_on_c, 0, 71, 0
2, 234220, Control_c, 0, 64, 0
2, 234240, Note_on_c, 0, 57, 50
2, 234244, Note_on_c, 0, 67, 36
2, 234244, Note_on_c, 0, 72, 32
2, 234248, Note_on_c, 0, 62, 24
2, 234320, Note_on_c, 0, 57, 0
2, 234336, Note_on_c, 0, 62, 0
2, 234340, Note_on_c, 0, 67, 0
2, 234348, Note_on_c, 0, 72, 0
2, 234612, Note_on_c, 0, 62, 36
2, 234616, Note_on_c, 0, 71, 44
2, 234616, Note_on_c, 0, 67, 36
2, 234624, Note_on_c, 0, 55, 35
2, 234688, Control_c, 0, 64, 127
2, 234724, Note_on_c, 0, 62, 0
2, 234732, Note_on_c, 0, 67, 0
2, 234744, Note_on_c, 0, 55, 0
2, 234756, Note_on_c, 0, 71, 0
2, 234952, Control_c, 0, 64, 0
2, 235004, Note_on_c, 0, 48, 44
2, 235008, Note_on_c, 0, 74, 51
2, 235012, Note_on_c, 0, 70, 44
2, 235012, Note_on_c, 0, 64, 43
2, 235016, Note_on_c, 0, 67, 53
2, 235024, Note_on_c, 0, 58, 25
2, 235056, Note_on_c, 0, 48, 0
2, 235068, Control_c, 0, 64, 127
2, 235084, Note_on_c, 0, 67, 0
2, 235108, Note_on_c, 0, 64, 0
2, 235112, Note_on_c, 0, 58, 0
2, 235116, Note_on_c, 0, 70, 0
2, 235172, Note_on_c, 0, 74, 0
2, 235268, Note_on_c, 0, 66, 75
2, 235268, Note_on_c, 0, 74, 78
2, 235268, Note_on_c, 0, 62, 79
2, 235272, Note_on_c, 0, 69, 71
2, 235276, Note_on_c, 0, 58, 70
2, 235364, Note_on_c, 0, 62, 0
2, 235384, Note_on_c, 0, 66, 0
2, 235400, Note_on_c, 0, 69, 0
2, 235420, Note_on_c, 0, 74, 0
2, 235556, Note_on_c, 0, 78, 72
2, 235560, Note_on_c, 0, 64, 69
2, 235560, Note_on_c, 0, 86, 78
2, 235712, Note_on_c, 0, 64, 0
2, 235732, Note_on_c, 0, 78, 0
2, 235752, Note_on_c, 0, 86, 0
2, 235800, Note_on_c, 0, 78, 48
2, 235808, Note_on_c, 0, 81, 60
2, 235808, Note_on_c, 0, 64, 55
2, 235812, Note_on_c, 0, 74, 55
2, 235868, Note_on_c, 0, 81, 0
2, 235880, Note_on_c, 0, 78, 0
2, 235908, Note_on_c, 0, 74, 0
2, 235968, Note_on_c, 0, 58, 0
2, 236028, Note_on_c, 0, 64, 0
2, 236052, Note_on_c, 0, 78, 45
2, 236060, Note_on_c, 0, 69, 36
2, 236064, Note_on_c, 0, 58, 34
2, 236068, Note_on_c, 0, 74, 31
2, 236120, Note_on_c, 0, 74, 0
2, 236144, Note_on_c, 0, 69, 0
2, 236148, Note_on_c, 0, 78, 0
2, 236188, Note_on_c, 0, 58, 0
2, 236684, Note_on_c, 0, 56, 46
2, 236696, Note_on_c, 0, 58, 63
2, 236708, Note_on_c, 0, 56, 0
2, 236728, Note_on_c, 0, 74, 80
2, 236732, Note_on_c, 0, 59, 72
2, 236732, Note_on_c, 0, 71, 68
2, 236732, Note_on_c, 0, 67, 78
2, 236732, Note_on_c, 0, 64, 82
2, 236736, Control_c, 0, 64, 0
2, 236744, Note_on_c, 0, 58, 0
2, 236748, Note_on_c, 0, 72, 49
2, 236756, Note_on_c, 0, 57, 33
2, 236780, Note_on_c, 0, 57, 0
2, 236824, Control_c, 0, 64, 127
2, 236832, Note_on_c, 0, 71, 0
2, 236836, Note_on_c, 0, 74, 0
2, 236844, Note_on_c, 0, 72, 0
2, 236860, Note_on_c, 0, 67, 0
2, 236864, Note_on_c, 0, 64, 0
2, 236876, Note_on_c, 0, 59, 0
2, 236904, Control_c, 0, 64, 0
2, 236932, Note_on_c, 0, 72, 66
2, 236936, Note_on_c, 0, 67, 63
2, 236940, Note_on_c, 0, 64, 63
2, 236944, Note_on_c, 0, 57, 58
2, 236948, Note_on_c, 0, 69, 51
2, 236972, Note_on_c, 0, 69, 0
2, 236992, Control_c, 0, 64, 127
2, 236996, Note_on_c, 0, 72, 0
2, 237012, Note_on_c, 0, 67, 0
2, 237044, Note_on_c, 0, 64, 0
2, 237076, Note_on_c, 0, 57, 0
2, 237124, Control_c, 0, 64, 0
2, 237160, Note_on_c, 0, 71, 65
2, 237164, Note_on_c, 0, 55, 49
2, 237168, Note_on_c, 0, 62, 54
2, 237168, Note_on_c, 0, 67, 53
2, 237172, Note_on_c, 0, 64, 58
2, 237232, Note_on_c, 0, 67, 0
2, 237236, Note_on_c, 0, 71, 0
2, 237236, Note_on_c, 0, 64, 0
2, 237248, Note_on_c, 0, 62, 0
2, 237468, Note_on_c, 0, 55, 0
2, 237496, Note_on_c, 0, 67, 49
2, 237508, Note_on_c, 0, 59, 38
2, 237508, Note_on_c, 0, 52, 43
2, 237508, Note_on_c, 0, 62, 38
2, 237516, Note_on_c, 0, 64, 27
2, 237568, Note_on_c, 0, 52, 0
2, 237572, Note_on_c, 0, 64, 0
2, 237588, Note_on_c, 0, 62, 0
2, 237588, Note_on_c, 0, 67, 0
2, 237592, Note_on_c, 0, 59, 0
2, 237648, Control_c, 0, 64, 127
2, 237860, Note_on_c, 0, 58, 49
2, 237868, Note_on_c, 0, 48, 37
2, 237872, Note_on_c, 0, 62, 35
2, 237872, Note_on_c, 0, 52, 47
2, 237876, Note_on_c, 0, 36, 35
2, 237884, Control_c, 0, 64, 0
2, 238032, Control_c, 0, 64, 127
2, 238104, Note_on_c, 0, 52, 0
2, 238156, Note_on_c, 0, 58, 0
2, 238164, Note_on_c, 0, 62, 0
2, 238200, Note_on_c, 0, 48, 0
2, 238216, Note_on_c, 0, 36, 0
2, 238416, Control_c, 0, 64, 0
2, 238428, Note_on_c, 0, 66, 76
2, 238428, Note_on_c, 0, 62, 74
2, 238432, Note_on_c, 0, 47, 67
2, 238432, Note_on_c, 0, 35, 66
2, 238432, Note_on_c, 0, 57, 78
2, 238596, Control_c, 0, 64, 127
2, 238816, Control_c, 0, 64, 0
2, 238844, Control_c, 0, 64, 127
2, 238852, Note_on_c, 0, 57, 0
2, 238868, Note_on_c, 0, 62, 0
2, 238884, Note_on_c, 0, 47, 0
2, 238892, Note_on_c, 0, 66, 0
2, 238900, Note_on_c, 0, 35, 0
2, 239100, Note_on_c, 0, 67, 55
2, 239104, Note_on_c, 0, 60, 50
2, 239108, Note_on_c, 0, 64, 45
2, 239108, Note_on_c, 0, 34, 48
2, 239108, Note_on_c, 0, 55, 51
2, 239108, Note_on_c, 0, 46, 37
2, 239116, Control_c, 0, 64, 0
2, 239236, Control_c, 0, 64, 127
2, 239280, Note_on_c, 0, 64, 0
2, 239312, Note_on_c, 0, 67, 0
2, 239336, Note_on_c, 0, 60, 0
2, 239348, Note_on_c, 0, 34, 0
2, 239356, Note_on_c, 0, 46, 0
2, 239364, Note_on_c, 0, 55, 0
2, 239536, Control_c, 0, 64, 0
2, 239588, Note_on_c, 0, 33, 33
2, 239600, Note_on_c, 0, 45, 29
2, 239608, Note_on_c, 0, 55, 29
2, 239612, Control_c, 0, 64, 127
2, 239628, Note_on_c, 0, 55, 0
2, 239628, Note_on_c, 0, 33, 0
2, 239656, Note_on_c, 0, 45, 0
2, 239856, Note_on_c, 0, 74, 79
2, 239856, Note_on_c, 0, 67, 74
2, 239864, Note_on_c, 0, 64, 73
2, 239868, Note_on_c, 0, 60, 63
2, 239888, Control_c, 0, 64, 0
2, 240004, Control_c, 0, 64, 127
2, 240104, Note_on_c, 0, 60, 0
2, 240148, Note_on_c, 0, 64, 0
2, 240164, Note_on_c, 0, 74, 0
2, 240204, Note_on_c, 0, 67, 0
2, 240368, Control_c, 0, 64, 0
2, 240372, Note_on_c, 0, 72, 48
2, 240372, Note_on_c, 0, 57, 39
2, 240376, Note_on_c, 0, 67, 47
2, 240376, Note_on_c, 0, 64, 50
2, 240404, Note_on_c, 0, 67, 0
2, 240404, Note_on_c, 0, 72, 0
2, 240408, Note_on_c, 0, 57, 0
2, 240420, Note_on_c, 0, 64, 0
2, 240992, Note_on_c, 0, 57, 48
2, 240992, Note_on_c, 0, 69, 56
2, 240992, Note_on_c, 0, 64, 55
2, 240996, Note_on_c, 0, 60, 36
2, 241016, Note_on_c, 0, 69, 0
2, 241020, Note_on_c, 0, 57, 0
2, 241028, Note_on_c, 0, 64, 0
2, 241032, Note_on_c, 0, 60, 0
2, 241180, Note_on_c, 0, 67, 41
2, 241184, Note_on_c, 0, 64, 35
2, 241192, Note_on_c, 0, 60, 45
2, 241192, Note_on_c, 0, 57, 37
2, 241200, Note_on_c, 0, 55, 24
2, 241220, Note_on_c, 0, 55, 0
2, 241220, Note_on_c, 0, 57, 0
2, 241228, Note_on_c, 0, 60, 0
2, 241228, Note_on_c, 0, 64, 0
2, 241236, Note_on_c, 0, 67, 0
2, 241408, Note_on_c, 0, 50, 45
2, 241416, Note_on_c, 0, 64, 36
2, 241420, Note_on_c, 0, 60, 30
2, 241420, Note_on_c, 0, 55, 33
2, 241424, Note_on_c, 0, 57, 47
2, 241460, Note_on_c, 0, 55, 0
2, 241488, Note_on_c, 0, 57, 0
2, 241492, Note_on_c, 0, 64, 0
2, 241504, Note_on_c, 0, 50, 0
2, 241508, Note_on_c, 0, 60, 0
2, 241580, Note_on_c, 0, 49, 14
2, 241768, Note_on_c, 0, 64, 50
2, 241776, Note_on_c, 0, 49, 0
2, 241780, Note_on_c, 0, 60, 43
2, 241784, Note_on_c, 0, 54, 30
2, 241784, Note_on_c, 0, 56, 35
2, 241784, Note_on_c, 0, 50, 43
2, 241828, Note_on_c, 0, 54, 0
2, 241844, Note_on_c, 0, 56, 0
2, 241852, Note_on_c, 0, 64, 0
2, 241856, Note_on_c, 0, 60, 0
2, 242084, Control_c, 0, 64, 127
2, 242140, Note_on_c, 0, 50, 0
2, 242144, Note_on_c, 0, 38, 36
2, 242168, Note_on_c, 0, 38, 0
2, 242220, Control_c, 0, 64, 0
2, 242268, Note_on_c, 0, 36, 71
2, 242268, Note_on_c, 0, 48, 71
2, 242348, Control_c, 0, 64, 127
2, 242416, Note_on_c, 0, 48, 0
2, 242428, Note_on_c, 0, 36, 0
2, 242500, Control_c, 0, 64, 0
2, 242508, Note_on_c, 0, 47, 83
2, 242512, Note_on_c, 0, 35, 76
2, 242568, Note_on_c, 0, 35, 0
2, 242568, Control_c, 0, 64, 127
2, 242580, Note_on_c, 0, 47, 0
2, 242864, Note_on_c, 0, 86, 90
2, 242868, Note_on_c, 0, 74, 99
2, 242868, Note_on_c, 0, 79, 85
2, 242868, Note_on_c, 0, 62, 66
2, 242868, Note_on_c, 0, 83, 83
2, 242872, Note_on_c, 0, 67, 80
2, 242876, Note_on_c, 0, 63, 57
2, 242876, Note_on_c, 0, 57, 65
2, 242892, Control_c, 0, 64, 0
2, 242980, Control_c, 0, 64, 127
2, 243160, Note_on_c, 0, 86, 0
2, 243168, Note_on_c, 0, 79, 0
2, 243176, Note_on_c, 0, 83, 0
2, 243200, Note_on_c, 0, 74, 0
2, 243216, Note_on_c, 0, 62, 0
2, 243224, Note_on_c, 0, 63, 0
2, 243228, Note_on_c, 0, 67, 0
2, 243228, Note_on_c, 0, 57, 0
2, 243412, Control_c, 0, 64, 0
2, 243428, Note_on_c, 0, 67, 64
2, 243428, Note_on_c, 0, 83, 59
2, 243432, Note_on_c, 0, 62, 47
2, 243440, Note_on_c, 0, 63, 33
2, 243440, Note_on_c, 0, 71, 41
2, 243448, Note_on_c, 0, 57, 25
2, 243452, Note_on_c, 0, 76, 36
2, 243472, Note_on_c, 0, 57, 0
2, 243476, Note_on_c, 0, 67, 0
2, 243500, Note_on_c, 0, 83, 0
2, 243500, Note_on_c, 0, 62, 0
2, 243504, Note_on_c, 0, 76, 0
2, 243512, Note_on_c, 0, 71, 0
2, 243520, Note_on_c, 0, 63, 0
2, 243648, Control_c, 0, 64, 127
2, 243748, Control_c, 0, 64, 0
2, 243816, Note_on_c, 0, 63, 31
2, 243828, Note_on_c, 0, 79, 35
2, 243828, Note_on_c, 0, 74, 50
2, 243828, Note_on_c, 0, 57, 38
2, 243832, Note_on_c, 0, 62, 33
2, 243836, Note_on_c, 0, 67, 33
2, 243840, Control_c, 0, 64, 127
2, 243860, Note_on_c, 0, 62, 0
2, 243876, Note_on_c, 0, 67, 0
2, 243896, Note_on_c, 0, 63, 0
2, 243904, Note_on_c, 0, 57, 0
2, 243904, Note_on_c, 0, 74, 0
2, 243932, Note_on_c, 0, 79, 0
2, 244156, Control_c, 0, 64, 0
2, 244204, Note_on_c, 0, 56, 49
2, 244208, Note_on_c, 0, 62, 51
2, 244216, Note_on_c, 0, 88, 68
2, 244224, Note_on_c, 0, 76, 41
2, 244228, Note_on_c, 0, 52, 29
2, 244232, Control_c, 0, 64, 127
2, 244256, Note_on_c, 0, 52, 0
2, 244256, Note_on_c, 0, 76, 0
2, 244260, Note_on_c, 0, 62, 0
2, 244284, Note_on_c, 0, 56, 0
2, 244288, Note_on_c, 0, 88, 0
2, 244480, Note_on_c, 0, 56, 37
2, 244484, Note_on_c, 0, 67, 49
2, 244488, Note_on_c, 0, 93, 69
2, 244488, Note_on_c, 0, 62, 41
2, 244496, Note_on_c, 0, 81, 36
2, 244520, Note_on_c, 0, 62, 0
2, 244524, Note_on_c, 0, 67, 0
2, 244524, Note_on_c, 0, 81, 0
2, 244532, Note_on_c, 0, 93, 0
2, 244532, Note_on_c, 0, 56, 0
2, 244612, Note_on_c, 0, 56, 58
2, 244616, Note_on_c, 0, 62, 54
2, 244616, Note_on_c, 0, 67, 60
2, 244620, Note_on_c, 0, 96, 80
2, 244624, Note_on_c, 0, 84, 77
2, 244700, Note_on_c, 0, 84, 0
2, 244720, Note_on_c, 0, 96, 0
2, 244732, Note_on_c, 0, 67, 0
2, 244748, Note_on_c, 0, 62, 0
2, 244748, Note_on_c, 0, 56, 0
2, 244868, Note_on_c, 0, 56, 69
2, 244876, Note_on_c, 0, 62, 58
2, 244876, Note_on_c, 0, 65, 63
2, 244884, Note_on_c, 0, 100, 79
2, 244888, Note_on_c, 0, 88, 78
2, 244904, Control_c, 0, 64, 0
2, 244972, Control_c, 0, 64, 127
2, 245024, Note_on_c, 0, 88, 0
2, 245044, Note_on_c, 0, 62, 0
2, 245048, Note_on_c, 0, 100, 0
2, 245052, Note_on_c, 0, 65, 0
2, 245084, Note_on_c, 0, 56, 0
2, 245260, Note_on_c, 0, 56, 68
2, 245264, Note_on_c, 0, 107, 84
2, 245264, Note_on_c, 0, 62, 70
2, 245264, Note_on_c, 0, 67, 71
2, 245268, Note_on_c, 0, 95, 72
2, 245276, Control_c, 0, 64, 0
2, 245380, Control_c, 0, 64, 127
2, 245460, Note_on_c, 0, 62, 0
2, 245476, Note_on_c, 0, 67, 0
2, 245528, Note_on_c, 0, 56, 0
2, 245528, Note_on_c, 0, 107, 0
2, 245564, Note_on_c, 0, 95, 0
2, 245784, Note_on_c, 0, 103, 56
2, 245784, Note_on_c, 0, 64, 51
2, 245788, Control_c, 0, 64, 0
2, 245788, Note_on_c, 0, 91, 38
2, 245792, Note_on_c, 0, 60, 40
2, 245800, Note_on_c, 0, 96, 43
2, 245800, Note_on_c, 0, 100, 31
2, 245800, Note_on_c, 0, 59, 35
2, 245804, Note_on_c, 0, 55, 32
2, 245816, Note_on_c, 0, 64, 0
2, 245824, Note_on_c, 0, 96, 0
2, 245824, Note_on_c, 0, 60, 0
2, 245828, Note_on_c, 0, 59, 0
2, 245836, Note_on_c, 0, 100, 0
2, 245840, Note_on_c, 0, 55, 0
2, 245840, Note_on_c, 0, 91, 0
2, 245848, Note_on_c, 0, 103, 0
2, 246160, Note_on_c, 0, 88, 53
2, 246164, Note_on_c, 0, 100, 47
2, 246228, Note_on_c, 0, 88, 0
2, 246256, Note_on_c, 0, 100, 0
2, 246524, Note_on_c, 0, 54, 39
2, 246536, Note_on_c, 0, 103, 49
2, 246536, Note_on_c, 0, 100, 43
2, 246540, Note_on_c, 0, 91, 39
2, 246548, Note_on_c, 0, 55, 58
2, 246552, Note_on_c, 0, 96, 48
2, 246580, Note_on_c, 0, 54, 0
2, 246584, Note_on_c, 0, 55, 0
2, 246612, Note_on_c, 0, 96, 0
2, 246640, Note_on_c, 0, 103, 0
2, 246644, Note_on_c, 0, 100, 0
2, 246648, Note_on_c, 0, 91, 0
2, 246776, Note_on_c, 0, 52, 62
2, 246780, Note_on_c, 0, 40, 43
2, 246832, Note_on_c, 0, 40, 0
2, 246836, Note_on_c, 0, 52, 0
2, 246920, Note_on_c, 0, 51, 55
2, 246928, Note_on_c, 0, 39, 48
2, 247028, Note_on_c, 0, 51, 0
2, 247036, Note_on_c, 0, 39, 0
2, 247148, Control_c, 0, 64, 127
2, 247160, Note_on_c, 0, 50, 71
2, 247168, Note_on_c, 0, 38, 58
2, 247220, Control_c, 0, 64, 0
2, 247236, Note_on_c, 0, 38, 0
2, 247292, Note_on_c, 0, 50, 0
2, 247424, Note_on_c, 0, 72, 63
2, 247424, Note_on_c, 0, 79, 57
2, 247472, Note_on_c, 0, 79, 0
2, 247508, Note_on_c, 0, 72, 0
2, 247532, Note_on_c, 0, 70, 57
2, 247552, Note_on_c, 0, 70, 0
2, 247656, Note_on_c, 0, 79, 71
2, 247660, Note_on_c, 0, 72, 72
2, 247724, Note_on_c, 0, 79, 0
2, 247744, Note_on_c, 0, 72, 0
2, 247912, Note_on_c, 0, 71, 50
2, 247932, Note_on_c, 0, 71, 0
2, 248056, Note_on_c, 0, 73, 71
2, 248068, Note_on_c, 0, 79, 40
2, 248088, Note_on_c, 0, 73, 0
2, 248104, Note_on_c, 0, 72, 52
2, 248132, Note_on_c, 0, 79, 0
2, 248160, Note_on_c, 0, 72, 0
2, 248196, Note_on_c, 0, 70, 59
2, 248216, Note_on_c, 0, 70, 0
2, 248432, Note_on_c, 0, 72, 80
2, 248500, Note_on_c, 0, 72, 0
2, 248524, Note_on_c, 0, 70, 58
2, 248600, Note_on_c, 0, 70, 0
2, 248624, Note_on_c, 0, 67, 47
2, 248664, Note_on_c, 0, 67, 0
2, 248732, Note_on_c, 0, 65, 47
2, 248776, Note_on_c, 0, 65, 0
2, 248832, Note_on_c, 0, 67, 68
2, 248880, Control_c, 0, 64, 127
2, 249080, Note_on_c, 0, 67, 0
2, 249108, Note_on_c, 0, 62, 43
2, 249112, Note_on_c, 0, 59, 63
2, 249124, Note_on_c, 0, 67, 57
2, 249136, Control_c, 0, 64, 0
2, 249140, Note_on_c, 0, 53, 66
2, 249308, Note_on_c, 0, 59, 0
2, 249504, Control_c, 0, 64, 127
2, 249508, Note_on_c, 0, 62, 0
2, 249564, Note_on_c, 0, 53, 0
2, 249572, Note_on_c, 0, 67, 0
2, 249580, Control_c, 0, 64, 0
2, 249612, Note_on_c, 0, 58, 37
2, 249612, Note_on_c, 0, 61, 51
2, 249644, Note_on_c, 0, 52, 24
2, 249776, Note_on_c, 0, 58, 0
2, 249832, Note_on_c, 0, 61, 0
2, 249976, Note_on_c, 0, 52, 0
2, 249992, Note_on_c, 0, 51, 32
2, 249992, Note_on_c, 0, 60, 37
2, 250000, Note_on_c, 0, 57, 24
2, 250000, Note_on_c, 0, 67, 24
2, 250152, Note_on_c, 0, 60, 0
2, 250152, Control_c, 0, 64, 127
2, 250156, Note_on_c, 0, 57, 0
2, 250200, Note_on_c, 0, 67, 0
2, 250276, Note_on_c, 0, 51, 0
2, 250332, Control_c, 0, 64, 0
2, 250368, Note_on_c, 0, 55, 50
2, 250372, Note_on_c, 0, 59, 42
2, 250380, Note_on_c, 0, 50, 42
2, 250440, Note_on_c, 0, 50, 0
2, 250468, Control_c, 0, 64, 127
2, 250496, Note_on_c, 0, 55, 0
2, 250516, Note_on_c, 0, 59, 0
2, 251040, Note_on_c, 0, 61, 33
2, 251052, Note_on_c, 0, 64, 53
2, 251052, Control_c, 0, 64, 0
2, 251056, Note_on_c, 0, 57, 54
2, 251060, Note_on_c, 0, 52, 57
2, 251060, Note_on_c, 0, 31, 47
2, 251180, Control_c, 0, 64, 127
2, 251196, Note_on_c, 0, 52, 0
2, 251208, Note_on_c, 0, 57, 0
2, 251244, Note_on_c, 0, 61, 0
2, 251264, Note_on_c, 0, 64, 0
2, 251404, Note_on_c, 0, 69, 53
2, 251412, Note_on_c, 0, 76, 40
2, 251520, Note_on_c, 0, 69, 0
2, 251548, Note_on_c, 0, 76, 0
2, 251580, Note_on_c, 0, 73, 40
2, 251616, Note_on_c, 0, 73, 0
2, 251756, Note_on_c, 0, 88, 38
2, 251776, Note_on_c, 0, 81, 17
2, 251832, Note_on_c, 0, 81, 0
2, 251840, Note_on_c, 0, 88, 0
2, 251908, Note_on_c, 0, 85, 46
2, 251912, Note_on_c, 0, 76, 30
2, 251936, Note_on_c, 0, 76, 0
2, 251960, Note_on_c, 0, 85, 0
2, 252108, Note_on_c, 0, 93, 57
2, 252108, Note_on_c, 0, 100, 60
2, 252220, Note_on_c, 0, 93, 0
2, 252256, Note_on_c, 0, 100, 0
2, 252276, Note_on_c, 0, 97, 37
2, 252288, Note_on_c, 0, 88, 49
2, 252332, Note_on_c, 0, 88, 0
2, 252348, Note_on_c, 0, 97, 0
2, 252492, Note_on_c, 0, 31, 0
2, 252876, Control_c, 0, 64, 0
2, 252876, End_track
0, 0, End_of_file
