0, 0, Header, 1, 4, 960
1, 0, Start_track
1, 0, Title_t, "Laura"
1, 0, Text_t, "dougmck@pipeline.com.au\012"
1, 0, Time_signature, 4, 2, 24, 8
1, 0, Key_signature, 0, "major"
1, 0, Tempo, 545455
1, 0, Marker_t, "Intro - last 8 bars"
1, 30720, Marker_t, "1st chorus"
1, 30720, End_track
2, 0, Start_track
2, 0, Title_t, "Piano"
2, 0, Control_c, 0, 0, 0
2, 0, Control_c, 0, 32, 0
2, 0, Program_c, 0, 0
2, 0, Control_c, 0, 7, 95
2, 0, Note_on_c, 0, 67, 51
2, 17, Note_on_c, 0, 64, 36
2, 23, Note_on_c, 0, 77, 68
2, 24, Note_on_c, 0, 89, 65
2, 27, Note_on_c, 0, 60, 46
2, 31, Note_on_c, 0, 84, 63
2, 32, Note_on_c, 0, 56, 42
2, 132, Note_on_c, 0, 77, 0
2, 220, Note_on_c, 0, 89, 0
2, 254, Note_on_c, 0, 84, 0
2, 300, Note_on_c, 0, 67, 0
2, 303, Note_on_c, 0, 64, 0
2, 330, Note_on_c, 0, 60, 0
2, 357, Note_on_c, 0, 56, 0
2, 787, Note_on_c, 0, 64, 33
2, 791, Note_on_c, 0, 91, 62
2, 798, Note_on_c, 0, 67, 41
2, 805, Note_on_c, 0, 79, 44
2, 806, Note_on_c, 0, 56, 40
2, 808, Note_on_c, 0, 60, 45
2, 813, Note_on_c, 0, 86, 53
2, 941, Note_on_c, 0, 79, 0
2, 967, Note_on_c, 0, 86, 0
2, 976, Note_on_c, 0, 91, 0
2, 1031, Note_on_c, 0, 67, 0
2, 1050, Note_on_c, 0, 64, 0
2, 1051, Note_on_c, 0, 56, 0
2, 1059, Note_on_c, 0, 60, 0
2, 1470, Note_on_c, 0, 67, 36
2, 1486, Note_on_c, 0, 64, 30
2, 1496, Note_on_c, 0, 56, 31
2, 1509, Note_on_c, 0, 60, 40
2, 1671, Note_on_c, 0, 64, 0
2, 1692, Note_on_c, 0, 56, 0
2, 1707, Note_on_c, 0, 60, 0
2, 1737, Note_on_c, 0, 67, 0
2, 2237, Note_on_c, 0, 64, 30
2, 2237, Note_on_c, 0, 67, 39
2, 2251, Note_on_c, 0, 56, 38
2, 2264, Note_on_c, 0, 60, 38
2, 2418, Note_on_c, 0, 56, 0
2, 2425, Note_on_c, 0, 64, 0
2, 2438, Note_on_c, 0, 60, 0
2, 2460, Note_on_c, 0, 67, 0
2, 2932, Note_on_c, 0, 67, 34
2, 2936, Note_on_c, 0, 64, 30
2, 2946, Note_on_c, 0, 56, 34
2, 2952, Note_on_c, 0, 60, 37
2, 3076, Note_on_c, 0, 67, 0
2, 3087, Note_on_c, 0, 64, 0
2, 3124, Note_on_c, 0, 60, 0
2, 3190, Note_on_c, 0, 56, 0
2, 3431, Note_on_c, 0, 61, 25
2, 3491, Note_on_c, 0, 61, 0
2, 3885, Note_on_c, 0, 65, 42
2, 3914, Note_on_c, 0, 56, 46
2, 3915, Note_on_c, 0, 60, 38
2, 3929, Note_on_c, 0, 55, 25
2, 4084, Note_on_c, 0, 60, 0
2, 4089, Note_on_c, 0, 55, 0
2, 4160, Note_on_c, 0, 56, 0
2, 4198, Note_on_c, 0, 65, 0
2, 4629, Note_on_c, 0, 65, 45
2, 4656, Note_on_c, 0, 56, 39
2, 4661, Note_on_c, 0, 60, 38
2, 4684, Note_on_c, 0, 55, 34
2, 5071, Note_on_c, 0, 60, 0
2, 5160, Note_on_c, 0, 65, 0
2, 5169, Note_on_c, 0, 55, 0
2, 5307, Note_on_c, 0, 56, 0
2, 5807, Note_on_c, 0, 64, 30
2, 5827, Note_on_c, 0, 59, 31
2, 5842, Note_on_c, 0, 53, 30
2, 5992, Note_on_c, 0, 53, 0
2, 6000, Note_on_c, 0, 64, 0
2, 6252, Note_on_c, 0, 59, 0
2, 6310, Note_on_c, 0, 76, 71
2, 6582, Note_on_c, 0, 77, 68
2, 6601, Note_on_c, 0, 76, 0
2, 6612, Note_on_c, 0, 59, 33
2, 6690, Note_on_c, 0, 59, 0
2, 6786, Note_on_c, 0, 80, 55
2, 6794, Note_on_c, 0, 77, 0
2, 6968, Note_on_c, 0, 80, 0
2, 7043, Note_on_c, 0, 59, 65
2, 7053, Note_on_c, 0, 83, 73
2, 7057, Note_on_c, 0, 53, 60
2, 7060, Note_on_c, 0, 63, 71
2, 7185, Note_on_c, 0, 83, 0
2, 7308, Note_on_c, 0, 84, 70
2, 7381, Note_on_c, 0, 53, 0
2, 7382, Note_on_c, 0, 63, 0
2, 7423, Note_on_c, 0, 84, 0
2, 7568, Note_on_c, 0, 85, 83
2, 7575, Note_on_c, 0, 62, 67
2, 7605, Note_on_c, 0, 52, 55
2, 7617, Note_on_c, 0, 55, 48
2, 7727, Note_on_c, 0, 85, 0
2, 7829, Note_on_c, 0, 85, 71
2, 7956, Note_on_c, 0, 59, 0
2, 7965, Note_on_c, 0, 86, 74
2, 7976, Note_on_c, 0, 85, 0
2, 8149, Note_on_c, 0, 86, 0
2, 8203, Note_on_c, 0, 62, 0
2, 8239, Note_on_c, 0, 86, 71
2, 8362, Note_on_c, 0, 55, 0
2, 8392, Note_on_c, 0, 52, 0
2, 8406, Note_on_c, 0, 86, 0
2, 8511, Note_on_c, 0, 86, 74
2, 8561, Note_on_c, 0, 62, 48
2, 8576, Note_on_c, 0, 52, 33
2, 8588, Note_on_c, 0, 59, 36
2, 8596, Note_on_c, 0, 55, 37
2, 8618, Note_on_c, 0, 62, 0
2, 8662, Note_on_c, 0, 86, 0
2, 8738, Note_on_c, 0, 52, 0
2, 8760, Note_on_c, 0, 59, 0
2, 8783, Note_on_c, 0, 86, 74
2, 8832, Note_on_c, 0, 55, 0
2, 9101, Note_on_c, 0, 86, 0
2, 9165, Note_on_c, 0, 84, 56
2, 9339, Note_on_c, 0, 84, 0
2, 9446, Note_on_c, 0, 62, 57
2, 9469, Note_on_c, 0, 86, 76
2, 9472, Note_on_c, 0, 59, 45
2, 9476, Note_on_c, 0, 74, 75
2, 9482, Note_on_c, 0, 55, 44
2, 9487, Note_on_c, 0, 85, 63
2, 9495, Note_on_c, 0, 62, 0
2, 9533, Note_on_c, 0, 85, 0
2, 9539, Note_on_c, 0, 59, 0
2, 9627, Note_on_c, 0, 55, 0
2, 9637, Note_on_c, 0, 74, 0
2, 9682, Note_on_c, 0, 86, 0
2, 9746, Note_on_c, 0, 74, 62
2, 9778, Note_on_c, 0, 86, 33
2, 9933, Note_on_c, 0, 74, 0
2, 10039, Note_on_c, 0, 74, 40
2, 10072, Note_on_c, 0, 86, 0
2, 10208, Note_on_c, 0, 86, 56
2, 10378, Note_on_c, 0, 86, 0
2, 10400, Note_on_c, 0, 74, 0
2, 10593, Note_on_c, 0, 84, 54
2, 10611, Note_on_c, 0, 72, 41
2, 10702, Note_on_c, 0, 72, 0
2, 10766, Note_on_c, 0, 84, 0
2, 11053, Note_on_c, 0, 64, 39
2, 11077, Note_on_c, 0, 60, 39
2, 11100, Note_on_c, 0, 55, 29
2, 11104, Note_on_c, 0, 59, 35
2, 11161, Note_on_c, 0, 59, 0
2, 11164, Note_on_c, 0, 60, 0
2, 11176, Note_on_c, 0, 64, 0
2, 11209, Note_on_c, 0, 55, 0
2, 11523, Note_on_c, 0, 64, 45
2, 11550, Note_on_c, 0, 60, 42
2, 11560, Note_on_c, 0, 59, 33
2, 11614, Note_on_c, 0, 54, 27
2, 11651, Note_on_c, 0, 59, 0
2, 11694, Note_on_c, 0, 64, 0
2, 11749, Note_on_c, 0, 54, 0
2, 11750, Note_on_c, 0, 60, 0
2, 12316, Note_on_c, 0, 64, 40
2, 12335, Note_on_c, 0, 60, 39
2, 12355, Note_on_c, 0, 54, 32
2, 12366, Note_on_c, 0, 59, 24
2, 12423, Note_on_c, 0, 59, 0
2, 12463, Note_on_c, 0, 64, 0
2, 12476, Note_on_c, 0, 60, 0
2, 12521, Note_on_c, 0, 54, 0
2, 12978, Note_on_c, 0, 64, 43
2, 12989, Note_on_c, 0, 60, 41
2, 13004, Note_on_c, 0, 59, 38
2, 13016, Note_on_c, 0, 54, 36
2, 13150, Note_on_c, 0, 64, 0
2, 13212, Note_on_c, 0, 59, 0
2, 13216, Note_on_c, 0, 54, 0
2, 13227, Note_on_c, 0, 60, 0
2, 13490, Note_on_c, 0, 71, 89
2, 13492, Note_on_c, 0, 83, 90
2, 13684, Note_on_c, 0, 83, 0
2, 13687, Note_on_c, 0, 71, 0
2, 13771, Note_on_c, 0, 71, 59
2, 13778, Note_on_c, 0, 83, 64
2, 13866, Note_on_c, 0, 71, 0
2, 13872, Note_on_c, 0, 83, 0
2, 13977, Note_on_c, 0, 72, 75
2, 13985, Note_on_c, 0, 84, 74
2, 14244, Note_on_c, 0, 84, 0
2, 14263, Note_on_c, 0, 72, 0
2, 14744, Note_on_c, 0, 64, 66
2, 14753, Note_on_c, 0, 59, 50
2, 14761, Note_on_c, 0, 60, 51
2, 14779, Note_on_c, 0, 54, 31
2, 14790, Note_on_c, 0, 64, 0
2, 14809, Note_on_c, 0, 60, 0
2, 14810, Note_on_c, 0, 59, 0
2, 14833, Note_on_c, 0, 54, 0
2, 15232, Note_on_c, 0, 86, 62
2, 15232, Note_on_c, 0, 74, 62
2, 15258, Note_on_c, 0, 85, 44
2, 15277, Note_on_c, 0, 86, 0
2, 15279, Note_on_c, 0, 74, 0
2, 15304, Note_on_c, 0, 85, 0
2, 15405, Note_on_c, 0, 75, 74
2, 15413, Note_on_c, 0, 87, 74
2, 15415, Note_on_c, 0, 60, 56
2, 15426, Note_on_c, 0, 63, 68
2, 15445, Note_on_c, 0, 57, 35
2, 15456, Note_on_c, 0, 54, 48
2, 15666, Note_on_c, 0, 75, 0
2, 15696, Note_on_c, 0, 87, 0
2, 15742, Note_on_c, 0, 63, 0
2, 15785, Note_on_c, 0, 57, 0
2, 15795, Note_on_c, 0, 60, 0
2, 15885, Note_on_c, 0, 87, 81
2, 15890, Note_on_c, 0, 75, 86
2, 15987, Note_on_c, 0, 54, 0
2, 16085, Note_on_c, 0, 75, 0
2, 16120, Note_on_c, 0, 87, 0
2, 16187, Note_on_c, 0, 75, 60
2, 16197, Note_on_c, 0, 87, 71
2, 16203, Note_on_c, 0, 60, 33
2, 16291, Note_on_c, 0, 60, 0
2, 16306, Note_on_c, 0, 75, 0
2, 16355, Note_on_c, 0, 75, 31
2, 16631, Note_on_c, 0, 87, 0
2, 16635, Note_on_c, 0, 75, 0
2, 16673, Note_on_c, 0, 63, 37
2, 16705, Note_on_c, 0, 60, 34
2, 16720, Note_on_c, 0, 63, 0
2, 16726, Note_on_c, 0, 57, 29
2, 16801, Note_on_c, 0, 87, 71
2, 16812, Note_on_c, 0, 75, 67
2, 16857, Note_on_c, 0, 60, 0
2, 16989, Note_on_c, 0, 57, 0
2, 17064, Note_on_c, 0, 87, 0
2, 17124, Note_on_c, 0, 75, 0
2, 17315, Note_on_c, 0, 84, 49
2, 17347, Note_on_c, 0, 72, 36
2, 17601, Note_on_c, 0, 84, 0
2, 17635, Note_on_c, 0, 72, 0
2, 17801, Note_on_c, 0, 84, 55
2, 17804, Note_on_c, 0, 72, 44
2, 17925, Note_on_c, 0, 72, 0
2, 17963, Note_on_c, 0, 84, 0
2, 18159, Note_on_c, 0, 63, 51
2, 18176, Note_on_c, 0, 54, 38
2, 18179, Note_on_c, 0, 60, 42
2, 18247, Note_on_c, 0, 60, 0
2, 18274, Note_on_c, 0, 63, 0
2, 18405, Note_on_c, 0, 54, 0
2, 18777, Note_on_c, 0, 65, 47
2, 18794, Note_on_c, 0, 56, 43
2, 18796, Note_on_c, 0, 60, 36
2, 18815, Note_on_c, 0, 55, 32
2, 19829, Note_on_c, 0, 60, 0
2, 20037, Note_on_c, 0, 60, 34
2, 20144, Note_on_c, 0, 65, 0
2, 20158, Note_on_c, 0, 88, 90
2, 20162, Note_on_c, 0, 76, 92
2, 20254, Note_on_c, 0, 60, 0
2, 20358, Note_on_c, 0, 76, 0
2, 20385, Note_on_c, 0, 88, 0
2, 20417, Note_on_c, 0, 60, 24
2, 20449, Note_on_c, 0, 76, 67
2, 20456, Note_on_c, 0, 88, 55
2, 20496, Note_on_c, 0, 87, 62
2, 20515, Note_on_c, 0, 56, 0
2, 20517, Note_on_c, 0, 88, 0
2, 20541, Note_on_c, 0, 87, 0
2, 20549, Note_on_c, 0, 76, 0
2, 20585, Note_on_c, 0, 60, 0
2, 20608, Note_on_c, 0, 55, 0
2, 20649, Note_on_c, 0, 87, 51
2, 20653, Note_on_c, 0, 75, 60
2, 20802, Note_on_c, 0, 87, 0
2, 20815, Note_on_c, 0, 75, 0
2, 20913, Note_on_c, 0, 75, 57
2, 20919, Note_on_c, 0, 87, 67
2, 20937, Note_on_c, 0, 65, 40
2, 20941, Note_on_c, 0, 60, 49
2, 20951, Note_on_c, 0, 56, 42
2, 20964, Note_on_c, 0, 55, 35
2, 20997, Note_on_c, 0, 65, 0
2, 21012, Note_on_c, 0, 75, 0
2, 21036, Note_on_c, 0, 55, 0
2, 21038, Note_on_c, 0, 87, 0
2, 21055, Note_on_c, 0, 56, 0
2, 21088, Note_on_c, 0, 60, 0
2, 21130, Note_on_c, 0, 85, 36
2, 21133, Note_on_c, 0, 73, 44
2, 21251, Note_on_c, 0, 86, 37
2, 21310, Note_on_c, 0, 73, 0
2, 21314, Note_on_c, 0, 85, 0
2, 21322, Note_on_c, 0, 74, 66
2, 21389, Note_on_c, 0, 65, 42
2, 21433, Note_on_c, 0, 60, 32
2, 21444, Note_on_c, 0, 74, 0
2, 21447, Note_on_c, 0, 86, 0
2, 21447, Note_on_c, 0, 65, 0
2, 21467, Note_on_c, 0, 56, 26
2, 21579, Note_on_c, 0, 60, 0
2, 21605, Note_on_c, 0, 56, 0
2, 21614, Note_on_c, 0, 86, 70
2, 21622, Note_on_c, 0, 74, 71
2, 21832, Note_on_c, 0, 74, 0
2, 21894, Note_on_c, 0, 65, 29
2, 21908, Note_on_c, 0, 56, 38
2, 21930, Note_on_c, 0, 86, 0
2, 21933, Note_on_c, 0, 55, 24
2, 21946, Note_on_c, 0, 60, 32
2, 21969, Note_on_c, 0, 65, 0
2, 22014, Note_on_c, 0, 60, 0
2, 22021, Note_on_c, 0, 55, 0
2, 22083, Note_on_c, 0, 81, 64
2, 22109, Note_on_c, 0, 56, 0
2, 22253, Note_on_c, 0, 81, 0
2, 22365, Note_on_c, 0, 65, 44
2, 22370, Note_on_c, 0, 81, 55
2, 22410, Note_on_c, 0, 56, 26
2, 22411, Note_on_c, 0, 60, 28
2, 22433, Note_on_c, 0, 65, 0
2, 22472, Note_on_c, 0, 60, 0
2, 22519, Note_on_c, 0, 81, 0
2, 22539, Note_on_c, 0, 56, 0
2, 22585, Note_on_c, 0, 83, 72
2, 22599, Note_on_c, 0, 81, 24
2, 22657, Note_on_c, 0, 81, 0
2, 22868, Note_on_c, 0, 83, 0
2, 23069, Note_on_c, 0, 84, 83
2, 23297, Note_on_c, 0, 84, 0
2, 23594, Note_on_c, 0, 79, 24
2, 23709, Note_on_c, 0, 79, 0
2, 23850, Note_on_c, 0, 79, 42
2, 24020, Note_on_c, 0, 79, 0
2, 24089, Note_on_c, 0, 74, 24
2, 24224, Note_on_c, 0, 74, 0
2, 24484, Note_on_c, 0, 74, 59
2, 24816, Note_on_c, 0, 74, 0
2, 24969, Note_on_c, 0, 76, 60
2, 25157, Note_on_c, 0, 76, 0
2, 25273, Note_on_c, 0, 76, 42
2, 25410, Note_on_c, 0, 76, 0
2, 25489, Note_on_c, 0, 67, 51
2, 25807, Note_on_c, 0, 67, 0
2, 25939, Note_on_c, 0, 67, 44
2, 26136, Note_on_c, 0, 67, 0
2, 26452, Note_on_c, 0, 76, 87
2, 26699, Note_on_c, 0, 76, 0
2, 26906, Note_on_c, 0, 69, 54
2, 26911, Note_on_c, 0, 64, 36
2, 27349, Note_on_c, 0, 64, 0
2, 27428, Note_on_c, 0, 71, 62
2, 27481, Note_on_c, 0, 69, 0
2, 27597, Note_on_c, 0, 71, 0
2, 27861, Note_on_c, 0, 65, 37
2, 27873, Note_on_c, 0, 64, 34
2, 28344, Note_on_c, 0, 69, 44
2, 28462, Note_on_c, 0, 65, 0
2, 28474, Note_on_c, 0, 64, 0
2, 28484, Note_on_c, 0, 69, 0
2, 28809, Note_on_c, 0, 68, 33
2, 28836, Note_on_c, 0, 65, 24
2, 28845, Note_on_c, 0, 62, 22
2, 28848, Note_on_c, 0, 56, 32
2, 29164, Note_on_c, 0, 65, 0
2, 29200, Note_on_c, 0, 68, 0
2, 29271, Note_on_c, 0, 76, 65
2, 29347, Note_on_c, 0, 62, 0
2, 29353, Note_on_c, 0, 56, 0
2, 29421, Note_on_c, 0, 76, 0
2, 29777, Note_on_c, 0, 56, 56
2, 29777, Note_on_c, 0, 76, 88
2, 29787, Note_on_c, 0, 62, 44
2, 29909, Note_on_c, 0, 62, 0
2, 29952, Note_on_c, 0, 56, 0
2, 30332, Note_on_c, 0, 76, 0
2, 30735, Note_on_c, 0, 64, 34
2, 30745, Note_on_c, 0, 60, 30
2, 30752, Note_on_c, 0, 70, 69
2, 30776, Note_on_c, 0, 59, 22
2, 30967, Note_on_c, 0, 59, 0
2, 30969, Note_on_c, 0, 64, 0
2, 30976, Note_on_c, 0, 60, 0
2, 30983, Note_on_c, 0, 70, 0
2, 31047, Note_on_c, 0, 71, 60
2, 31159, Note_on_c, 0, 71, 0
2, 31679, Note_on_c, 0, 64, 39
2, 31705, Note_on_c, 0, 60, 38
2, 31730, Note_on_c, 0, 59, 24
2, 31761, Note_on_c, 0, 64, 0
2, 31768, Note_on_c, 0, 60, 0
2, 31776, Note_on_c, 0, 59, 0
2, 32476, Note_on_c, 0, 64, 30
2, 32478, Note_on_c, 0, 60, 35
2, 32508, Note_on_c, 0, 59, 25
2, 32569, Note_on_c, 0, 64, 0
2, 32570, Note_on_c, 0, 59, 0
2, 32586, Note_on_c, 0, 60, 0
2, 33616, Note_on_c, 0, 64, 24
2, 33625, Note_on_c, 0, 60, 40
2, 33631, Note_on_c, 0, 59, 30
2, 33710, Note_on_c, 0, 60, 0
2, 33721, Note_on_c, 0, 64, 0
2, 33722, Note_on_c, 0, 59, 0
2, 34338, Note_on_c, 0, 64, 33
2, 34341, Note_on_c, 0, 60, 31
2, 34363, Note_on_c, 0, 54, 30
2, 34484, Note_on_c, 0, 60, 0
2, 34488, Note_on_c, 0, 64, 0
2, 34516, Note_on_c, 0, 54, 0
2, 34984, Note_on_c, 0, 64, 26
2, 35007, Note_on_c, 0, 54, 32
2, 35013, Note_on_c, 0, 60, 29
2, 35848, Note_on_c, 0, 82, 77
2, 35965, Note_on_c, 0, 82, 0
2, 36280, Note_on_c, 0, 83, 95
2, 36408, Note_on_c, 0, 83, 0
2, 36515, Note_on_c, 0, 82, 70
2, 36668, Note_on_c, 0, 82, 0
2, 36947, Note_on_c, 0, 81, 64
2, 37073, Note_on_c, 0, 81, 0
2, 37391, Note_on_c, 0, 78, 48
2, 37523, Note_on_c, 0, 64, 0
2, 37628, Note_on_c, 0, 60, 0
2, 37682, Note_on_c, 0, 78, 0
2, 37712, Note_on_c, 0, 79, 52
2, 37825, Note_on_c, 0, 79, 0
2, 37900, Note_on_c, 0, 80, 60
2, 38047, Note_on_c, 0, 54, 0
2, 38196, Note_on_c, 0, 81, 64
2, 38244, Note_on_c, 0, 80, 0
2, 38326, Note_on_c, 0, 57, 30
2, 38334, Note_on_c, 0, 81, 0
2, 38368, Note_on_c, 0, 59, 20
2, 38463, Note_on_c, 0, 59, 0
2, 38502, Note_on_c, 0, 57, 0
2, 38696, Note_on_c, 0, 81, 57
2, 38811, Note_on_c, 0, 81, 0
2, 39142, Note_on_c, 0, 81, 60
2, 39218, Control_c, 0, 64, 127
2, 39301, Control_c, 0, 64, 0
2, 39302, Note_on_c, 0, 81, 0
2, 39381, Note_on_c, 0, 62, 17
2, 39382, Note_on_c, 0, 52, 17
2, 39384, Note_on_c, 0, 59, 25
2, 39395, Note_on_c, 0, 57, 32
2, 39419, Note_on_c, 0, 76, 18
2, 39595, Note_on_c, 0, 62, 0
2, 39600, Note_on_c, 0, 76, 0
2, 39601, Note_on_c, 0, 59, 0
2, 39603, Note_on_c, 0, 52, 0
2, 39641, Note_on_c, 0, 57, 0
2, 39857, Note_on_c, 0, 76, 40
2, 39872, Note_on_c, 0, 62, 22
2, 39884, Note_on_c, 0, 52, 24
2, 39890, Note_on_c, 0, 57, 25
2, 39894, Note_on_c, 0, 59, 26
2, 40054, Note_on_c, 0, 76, 0
2, 40083, Note_on_c, 0, 59, 0
2, 40085, Note_on_c, 0, 52, 0
2, 40137, Note_on_c, 0, 62, 0
2, 40140, Note_on_c, 0, 57, 0
2, 41588, Note_on_c, 0, 63, 55
2, 41610, Note_on_c, 0, 58, 43
2, 41615, Note_on_c, 0, 54, 36
2, 41647, Note_on_c, 0, 59, 47
2, 42043, Note_on_c, 0, 54, 0
2, 42064, Note_on_c, 0, 63, 0
2, 42232, Note_on_c, 0, 62, 38
2, 42264, Note_on_c, 0, 57, 42
2, 42266, Note_on_c, 0, 52, 42
2, 42319, Note_on_c, 0, 58, 0
2, 42718, Note_on_c, 0, 62, 0
2, 42727, Note_on_c, 0, 57, 0
2, 42732, Note_on_c, 0, 59, 0
2, 42739, Note_on_c, 0, 52, 0
2, 42974, Note_on_c, 0, 62, 32
2, 42990, Note_on_c, 0, 52, 35
2, 42993, Note_on_c, 0, 59, 35
2, 43011, Note_on_c, 0, 57, 36
2, 43132, Note_on_c, 0, 59, 0
2, 43160, Note_on_c, 0, 62, 0
2, 43180, Note_on_c, 0, 57, 0
2, 43231, Note_on_c, 0, 52, 0
2, 43624, Note_on_c, 0, 52, 30
2, 43641, Note_on_c, 0, 62, 18
2, 43660, Note_on_c, 0, 59, 32
2, 43675, Note_on_c, 0, 57, 32
2, 44235, Control_c, 0, 64, 127
2, 44654, Note_on_c, 0, 59, 0
2, 44665, Note_on_c, 0, 62, 0
2, 44708, Note_on_c, 0, 57, 0
2, 45026, Control_c, 0, 64, 0
2, 45060, Note_on_c, 0, 62, 18
2, 45115, Note_on_c, 0, 57, 17
2, 45331, Note_on_c, 0, 77, 60
2, 45470, Note_on_c, 0, 52, 0
2, 45513, Note_on_c, 0, 77, 0
2, 45542, Note_on_c, 0, 62, 0
2, 45553, Note_on_c, 0, 78, 35
2, 45619, Note_on_c, 0, 78, 0
2, 45841, Note_on_c, 0, 80, 45
2, 45987, Note_on_c, 0, 80, 0
2, 46004, Note_on_c, 0, 53, 34
2, 46006, Note_on_c, 0, 62, 38
2, 46010, Note_on_c, 0, 58, 42
2, 46029, Note_on_c, 0, 81, 73
2, 46231, Note_on_c, 0, 81, 0
2, 46438, Note_on_c, 0, 81, 70
2, 46638, Note_on_c, 0, 81, 0
2, 46665, Note_on_c, 0, 53, 0
2, 46754, Note_on_c, 0, 81, 50
2, 46758, Note_on_c, 0, 57, 0
2, 46758, Note_on_c, 0, 62, 0
2, 46865, Note_on_c, 0, 58, 0
2, 46917, Note_on_c, 0, 81, 0
2, 47012, Note_on_c, 0, 81, 49
2, 47081, Note_on_c, 0, 58, 33
2, 47088, Note_on_c, 0, 62, 26
2, 47119, Note_on_c, 0, 57, 27
2, 47251, Note_on_c, 0, 81, 0
2, 47257, Note_on_c, 0, 62, 0
2, 47357, Note_on_c, 0, 57, 0
2, 47379, Note_on_c, 0, 74, 48
2, 47424, Note_on_c, 0, 58, 0
2, 47521, Note_on_c, 0, 74, 0
2, 47949, Note_on_c, 0, 58, 35
2, 47968, Note_on_c, 0, 57, 28
2, 47999, Note_on_c, 0, 53, 20
2, 48071, Note_on_c, 0, 53, 0
2, 48137, Note_on_c, 0, 58, 0
2, 48146, Note_on_c, 0, 57, 0
2, 48712, Note_on_c, 0, 62, 28
2, 48719, Note_on_c, 0, 57, 32
2, 48734, Note_on_c, 0, 58, 34
2, 48764, Note_on_c, 0, 53, 29
2, 48878, Note_on_c, 0, 62, 0
2, 48902, Note_on_c, 0, 53, 0
2, 48902, Note_on_c, 0, 58, 0
2, 48921, Note_on_c, 0, 57, 0
2, 49376, Note_on_c, 0, 61, 31
2, 49397, Note_on_c, 0, 58, 39
2, 49416, Note_on_c, 0, 52, 35
2, 49535, Note_on_c, 0, 52, 0
2, 49603, Note_on_c, 0, 58, 0
2, 49695, Note_on_c, 0, 61, 0
2, 50114, Note_on_c, 0, 61, 49
2, 50160, Note_on_c, 0, 52, 29
2, 50160, Note_on_c, 0, 58, 32
2, 50243, Note_on_c, 0, 52, 0
2, 50245, Note_on_c, 0, 58, 0
2, 50273, Note_on_c, 0, 61, 0
2, 50808, Note_on_c, 0, 61, 38
2, 50850, Note_on_c, 0, 52, 31
2, 50859, Note_on_c, 0, 58, 42
2, 50964, Note_on_c, 0, 52, 0
2, 51123, Note_on_c, 0, 61, 0
2, 51443, Note_on_c, 0, 58, 0
2, 51607, Note_on_c, 0, 61, 42
2, 51633, Note_on_c, 0, 58, 38
2, 51761, Note_on_c, 0, 61, 0
2, 51844, Note_on_c, 0, 58, 0
2, 52113, Note_on_c, 0, 61, 49
2, 52149, Note_on_c, 0, 58, 38
2, 52172, Note_on_c, 0, 52, 24
2, 52187, Note_on_c, 0, 61, 0
2, 52247, Note_on_c, 0, 52, 0
2, 52301, Note_on_c, 0, 68, 80
2, 52349, Note_on_c, 0, 58, 0
2, 52569, Note_on_c, 0, 68, 0
2, 52581, Note_on_c, 0, 69, 54
2, 52708, Note_on_c, 0, 61, 40
2, 52754, Note_on_c, 0, 58, 33
2, 52773, Note_on_c, 0, 68, 42
2, 52801, Note_on_c, 0, 52, 24
2, 52893, Note_on_c, 0, 61, 0
2, 52940, Note_on_c, 0, 69, 0
2, 52986, Note_on_c, 0, 68, 0
2, 53088, Note_on_c, 0, 67, 34
2, 53091, Note_on_c, 0, 61, 39
2, 53152, Note_on_c, 0, 67, 0
2, 53307, Note_on_c, 0, 52, 0
2, 53382, Note_on_c, 0, 61, 0
2, 53404, Note_on_c, 0, 64, 3
2, 53428, Note_on_c, 0, 58, 0
2, 53588, Note_on_c, 0, 65, 64
2, 53651, Note_on_c, 0, 64, 0
2, 53706, Note_on_c, 0, 57, 27
2, 53717, Note_on_c, 0, 65, 0
2, 53793, Note_on_c, 0, 67, 85
2, 53842, Note_on_c, 0, 57, 0
2, 53842, Note_on_c, 0, 65, 25
2, 53892, Note_on_c, 0, 65, 0
2, 54107, Note_on_c, 0, 67, 0
2, 54134, Note_on_c, 0, 60, 19
2, 54140, Note_on_c, 0, 57, 24
2, 54236, Note_on_c, 0, 67, 83
2, 54247, Note_on_c, 0, 60, 0
2, 54277, Note_on_c, 0, 57, 0
2, 54454, Note_on_c, 0, 67, 0
2, 54529, Note_on_c, 0, 60, 30
2, 54545, Note_on_c, 0, 67, 63
2, 54661, Note_on_c, 0, 60, 0
2, 54720, Note_on_c, 0, 67, 0
2, 54769, Note_on_c, 0, 67, 42
2, 54980, Note_on_c, 0, 67, 0
2, 55048, Note_on_c, 0, 64, 56
2, 55211, Note_on_c, 0, 64, 0
2, 55309, Note_on_c, 0, 60, 15
2, 55475, Note_on_c, 0, 60, 0
2, 56139, Note_on_c, 0, 67, 50
2, 56158, Note_on_c, 0, 57, 32
2, 56162, Note_on_c, 0, 62, 45
2, 56327, Note_on_c, 0, 62, 0
2, 56358, Note_on_c, 0, 57, 0
2, 56359, Note_on_c, 0, 67, 0
2, 56843, Note_on_c, 0, 68, 42
2, 56857, Note_on_c, 0, 58, 44
2, 56881, Note_on_c, 0, 63, 52
2, 57383, Note_on_c, 0, 68, 0
2, 57432, Note_on_c, 0, 58, 0
2, 57461, Note_on_c, 0, 63, 0
2, 57511, Note_on_c, 0, 67, 33
2, 57538, Note_on_c, 0, 57, 30
2, 57552, Note_on_c, 0, 62, 44
2, 57911, Note_on_c, 0, 62, 0
2, 57963, Note_on_c, 0, 67, 0
2, 58021, Note_on_c, 0, 57, 0
2, 58246, Note_on_c, 0, 67, 33
2, 58261, Note_on_c, 0, 57, 27
2, 58282, Note_on_c, 0, 62, 29
2, 58387, Note_on_c, 0, 62, 0
2, 58422, Note_on_c, 0, 67, 0
2, 58482, Note_on_c, 0, 91, 82
2, 58719, Note_on_c, 0, 91, 0
2, 58805, Note_on_c, 0, 86, 29
2, 58883, Note_on_c, 0, 86, 0
2, 59049, Note_on_c, 0, 57, 0
2, 59272, Note_on_c, 0, 67, 35
2, 59285, Note_on_c, 0, 57, 32
2, 59298, Note_on_c, 0, 62, 31
2, 59434, Note_on_c, 0, 62, 0
2, 59461, Note_on_c, 0, 67, 0
2, 59718, Note_on_c, 0, 67, 31
2, 59742, Note_on_c, 0, 62, 25
2, 59831, Note_on_c, 0, 62, 0
2, 59857, Note_on_c, 0, 67, 0
2, 59929, Note_on_c, 0, 86, 68
2, 60001, Note_on_c, 0, 57, 0
2, 60132, Note_on_c, 0, 86, 0
2, 60220, Note_on_c, 0, 89, 80
2, 60222, Note_on_c, 0, 67, 31
2, 60272, Note_on_c, 0, 62, 26
2, 60275, Note_on_c, 0, 57, 17
2, 60339, Note_on_c, 0, 67, 0
2, 60352, Note_on_c, 0, 62, 0
2, 60441, Note_on_c, 0, 88, 57
2, 60464, Note_on_c, 0, 57, 0
2, 60481, Note_on_c, 0, 89, 0
2, 60639, Note_on_c, 0, 88, 0
2, 60676, Note_on_c, 0, 67, 25
2, 60689, Note_on_c, 0, 84, 67
2, 60710, Note_on_c, 0, 62, 31
2, 60804, Note_on_c, 0, 67, 0
2, 60830, Note_on_c, 0, 84, 0
2, 60854, Note_on_c, 0, 62, 0
2, 60915, Note_on_c, 0, 79, 35
2, 61063, Note_on_c, 0, 79, 0
2, 61281, Note_on_c, 0, 54, 18
2, 61363, Note_on_c, 0, 63, 34
2, 61372, Note_on_c, 0, 80, 50
2, 61409, Note_on_c, 0, 60, 24
2, 61424, Note_on_c, 0, 63, 0
2, 61511, Note_on_c, 0, 60, 0
2, 61525, Note_on_c, 0, 54, 0
2, 61733, Note_on_c, 0, 80, 0
2, 61831, Note_on_c, 0, 75, 29
2, 62109, Note_on_c, 0, 75, 0
2, 62185, Note_on_c, 0, 67, 28
2, 62194, Note_on_c, 0, 77, 63
2, 62215, Note_on_c, 0, 63, 25
2, 62249, Note_on_c, 0, 60, 28
2, 62255, Note_on_c, 0, 56, 28
2, 62342, Note_on_c, 0, 77, 0
2, 62527, Note_on_c, 0, 77, 58
2, 62637, Note_on_c, 0, 60, 0
2, 62642, Note_on_c, 0, 67, 0
2, 62667, Note_on_c, 0, 63, 0
2, 62678, Note_on_c, 0, 77, 0
2, 62921, Note_on_c, 0, 75, 28
2, 63098, Note_on_c, 0, 56, 0
2, 63121, Note_on_c, 0, 75, 0
2, 63229, Note_on_c, 0, 77, 54
2, 63241, Note_on_c, 0, 63, 29
2, 63263, Note_on_c, 0, 67, 17
2, 63303, Note_on_c, 0, 77, 0
2, 63358, Note_on_c, 0, 67, 0
2, 63384, Note_on_c, 0, 63, 0
2, 63713, Note_on_c, 0, 63, 20
2, 63790, Note_on_c, 0, 63, 0
2, 63885, Note_on_c, 0, 67, 43
2, 63894, Note_on_c, 0, 77, 78
2, 63898, Note_on_c, 0, 63, 31
2, 63919, Note_on_c, 0, 60, 50
2, 63947, Note_on_c, 0, 56, 36
2, 64245, Note_on_c, 0, 60, 0
2, 64255, Note_on_c, 0, 63, 0
2, 64262, Note_on_c, 0, 67, 0
2, 64268, Note_on_c, 0, 77, 0
2, 64372, Note_on_c, 0, 56, 0
2, 64400, Note_on_c, 0, 75, 29
2, 64589, Note_on_c, 0, 75, 0
2, 64666, Note_on_c, 0, 67, 34
2, 64666, Note_on_c, 0, 77, 59
2, 64682, Note_on_c, 0, 63, 34
2, 64701, Note_on_c, 0, 60, 35
2, 64714, Note_on_c, 0, 56, 25
2, 64793, Note_on_c, 0, 77, 0
2, 64799, Note_on_c, 0, 67, 0
2, 64840, Note_on_c, 0, 63, 0
2, 64847, Note_on_c, 0, 60, 0
2, 64896, Note_on_c, 0, 56, 0
2, 65114, Note_on_c, 0, 75, 39
2, 65236, Note_on_c, 0, 75, 0
2, 65281, Note_on_c, 0, 56, 48
2, 65286, Note_on_c, 0, 67, 43
2, 65314, Note_on_c, 0, 77, 60
2, 65316, Note_on_c, 0, 62, 49
2, 65607, Note_on_c, 0, 77, 0
2, 65670, Note_on_c, 0, 62, 0
2, 65717, Note_on_c, 0, 56, 0
2, 65734, Note_on_c, 0, 67, 0
2, 66036, Note_on_c, 0, 67, 34
2, 66047, Note_on_c, 0, 56, 31
2, 66078, Note_on_c, 0, 62, 36
2, 66192, Note_on_c, 0, 62, 0
2, 66223, Note_on_c, 0, 67, 0
2, 66265, Note_on_c, 0, 56, 0
2, 66687, Note_on_c, 0, 66, 34
2, 66693, Note_on_c, 0, 62, 31
2, 66720, Note_on_c, 0, 56, 29
2, 66947, Note_on_c, 0, 56, 0
2, 67028, Note_on_c, 0, 66, 0
2, 67145, Note_on_c, 0, 62, 0
2, 67451, Note_on_c, 0, 62, 35
2, 67464, Note_on_c, 0, 66, 31
2, 67544, Note_on_c, 0, 56, 21
2, 67619, Note_on_c, 0, 66, 0
2, 67632, Note_on_c, 0, 56, 0
2, 67673, Note_on_c, 0, 62, 0
2, 67891, Note_on_c, 0, 74, 33
2, 68019, Note_on_c, 0, 75, 43
2, 68023, Note_on_c, 0, 74, 0
2, 68074, Note_on_c, 0, 75, 0
2, 68111, Note_on_c, 0, 76, 33
2, 68167, Note_on_c, 0, 66, 46
2, 68175, Note_on_c, 0, 76, 0
2, 68191, Note_on_c, 0, 56, 46
2, 68208, Note_on_c, 0, 77, 74
2, 68209, Note_on_c, 0, 62, 34
2, 68492, Note_on_c, 0, 77, 0
2, 68580, Note_on_c, 0, 66, 0
2, 68632, Note_on_c, 0, 75, 32
2, 68694, Note_on_c, 0, 62, 0
2, 68739, Note_on_c, 0, 75, 0
2, 68809, Note_on_c, 0, 56, 0
2, 68907, Note_on_c, 0, 77, 76
2, 69060, Note_on_c, 0, 65, 22
2, 69077, Note_on_c, 0, 77, 0
2, 69078, Note_on_c, 0, 62, 22
2, 69082, Note_on_c, 0, 60, 17
2, 69090, Note_on_c, 0, 55, 24
2, 69316, Note_on_c, 0, 62, 0
2, 69317, Note_on_c, 0, 78, 57
2, 69399, Note_on_c, 0, 60, 0
2, 69415, Note_on_c, 0, 78, 0
2, 69441, Note_on_c, 0, 79, 38
2, 69569, Note_on_c, 0, 79, 0
2, 69578, Note_on_c, 0, 65, 0
2, 69679, Note_on_c, 0, 79, 62
2, 69829, Note_on_c, 0, 79, 0
2, 69969, Note_on_c, 0, 79, 66
2, 69992, Note_on_c, 0, 65, 42
2, 70030, Note_on_c, 0, 62, 33
2, 70049, Note_on_c, 0, 60, 26
2, 70116, Note_on_c, 0, 65, 0
2, 70122, Note_on_c, 0, 79, 0
2, 70161, Note_on_c, 0, 55, 0
2, 70170, Note_on_c, 0, 62, 0
2, 70212, Note_on_c, 0, 60, 0
2, 70268, Note_on_c, 0, 79, 61
2, 70454, Note_on_c, 0, 65, 24
2, 70457, Note_on_c, 0, 79, 0
2, 70509, Note_on_c, 0, 65, 0
2, 70544, Note_on_c, 0, 74, 50
2, 70684, Note_on_c, 0, 74, 0
2, 71132, Note_on_c, 0, 74, 54
2, 71251, Note_on_c, 0, 74, 0
2, 71825, Note_on_c, 0, 65, 53
2, 71855, Note_on_c, 0, 62, 36
2, 71859, Note_on_c, 0, 60, 36
2, 71915, Note_on_c, 0, 62, 0
2, 71930, Note_on_c, 0, 60, 0
2, 71939, Note_on_c, 0, 65, 0
2, 72519, Note_on_c, 0, 65, 44
2, 72557, Note_on_c, 0, 62, 35
2, 72558, Note_on_c, 0, 55, 24
2, 72562, Note_on_c, 0, 60, 30
2, 72671, Note_on_c, 0, 62, 0
2, 72696, Note_on_c, 0, 65, 0
2, 72704, Note_on_c, 0, 60, 0
2, 72731, Note_on_c, 0, 55, 0
2, 73471, Note_on_c, 0, 65, 39
2, 73490, Note_on_c, 0, 60, 38
2, 73505, Note_on_c, 0, 62, 33
2, 73569, Note_on_c, 0, 62, 0
2, 73601, Note_on_c, 0, 65, 0
2, 73618, Note_on_c, 0, 60, 0
2, 74197, Note_on_c, 0, 65, 53
2, 74231, Note_on_c, 0, 60, 43
2, 74238, Note_on_c, 0, 62, 27
2, 74345, Note_on_c, 0, 65, 0
2, 74432, Note_on_c, 0, 62, 0
2, 74434, Note_on_c, 0, 60, 0
2, 74914, Note_on_c, 0, 65, 42
2, 74931, Note_on_c, 0, 62, 35
2, 74937, Note_on_c, 0, 60, 34
2, 75042, Note_on_c, 0, 65, 0
2, 75367, Note_on_c, 0, 60, 0
2, 75392, Note_on_c, 0, 74, 64
2, 75409, Note_on_c, 0, 62, 0
2, 75603, Note_on_c, 0, 74, 0
2, 75664, Note_on_c, 0, 75, 64
2, 75688, Note_on_c, 0, 65, 35
2, 75704, Note_on_c, 0, 60, 35
2, 75707, Note_on_c, 0, 62, 24
2, 75772, Note_on_c, 0, 65, 0
2, 75788, Note_on_c, 0, 75, 0
2, 75796, Note_on_c, 0, 62, 0
2, 75847, Note_on_c, 0, 60, 0
2, 75921, Note_on_c, 0, 79, 49
2, 76068, Note_on_c, 0, 79, 0
2, 76109, Note_on_c, 0, 82, 55
2, 76174, Note_on_c, 0, 60, 22
2, 76233, Note_on_c, 0, 60, 0
2, 76274, Note_on_c, 0, 82, 0
2, 76313, Note_on_c, 0, 86, 64
2, 76527, Note_on_c, 0, 86, 0
2, 76592, Note_on_c, 0, 89, 82
2, 76740, Note_on_c, 0, 63, 45
2, 76797, Note_on_c, 0, 57, 40
2, 76799, Note_on_c, 0, 89, 0
2, 76808, Note_on_c, 0, 55, 27
2, 76810, Note_on_c, 0, 87, 64
2, 76825, Note_on_c, 0, 60, 24
2, 76955, Note_on_c, 0, 63, 0
2, 77022, Note_on_c, 0, 55, 0
2, 77135, Note_on_c, 0, 87, 0
2, 77258, Note_on_c, 0, 87, 70
2, 77264, Note_on_c, 0, 57, 0
2, 77330, Note_on_c, 0, 60, 0
2, 77446, Note_on_c, 0, 87, 0
2, 77528, Note_on_c, 0, 87, 74
2, 77635, Note_on_c, 0, 63, 49
2, 77665, Note_on_c, 0, 60, 30
2, 77681, Note_on_c, 0, 87, 0
2, 77699, Note_on_c, 0, 55, 20
2, 77709, Note_on_c, 0, 57, 24
2, 77752, Note_on_c, 0, 87, 56
2, 77968, Note_on_c, 0, 63, 0
2, 78118, Note_on_c, 0, 87, 0
2, 78148, Note_on_c, 0, 80, 52
2, 78159, Note_on_c, 0, 55, 0
2, 78239, Note_on_c, 0, 60, 0
2, 78242, Note_on_c, 0, 57, 0
2, 78344, Note_on_c, 0, 80, 0
2, 78443, Note_on_c, 0, 80, 38
2, 78505, Note_on_c, 0, 63, 35
2, 78549, Note_on_c, 0, 80, 0
2, 78639, Note_on_c, 0, 63, 0
2, 79104, Note_on_c, 0, 63, 46
2, 79108, Note_on_c, 0, 60, 37
2, 79113, Note_on_c, 0, 55, 35
2, 79146, Note_on_c, 0, 57, 33
2, 79263, Note_on_c, 0, 55, 0
2, 79320, Note_on_c, 0, 60, 0
2, 79323, Note_on_c, 0, 63, 0
2, 79369, Note_on_c, 0, 57, 0
2, 79825, Note_on_c, 0, 55, 42
2, 79834, Note_on_c, 0, 63, 46
2, 79856, Note_on_c, 0, 60, 38
2, 80042, Note_on_c, 0, 55, 0
2, 80065, Note_on_c, 0, 63, 0
2, 80072, Note_on_c, 0, 60, 0
2, 80533, Note_on_c, 0, 60, 35
2, 80533, Note_on_c, 0, 63, 35
2, 80556, Note_on_c, 0, 54, 36
2, 80735, Note_on_c, 0, 63, 0
2, 80739, Note_on_c, 0, 60, 0
2, 80764, Note_on_c, 0, 54, 0
2, 81042, Control_c, 0, 64, 127
2, 81340, Note_on_c, 0, 61, 46
2, 81379, Note_on_c, 0, 63, 30
2, 81385, Note_on_c, 0, 60, 51
2, 81391, Note_on_c, 0, 61, 0
2, 81432, Note_on_c, 0, 63, 0
2, 81440, Note_on_c, 0, 60, 0
2, 81466, Control_c, 0, 64, 0
2, 81497, Note_on_c, 0, 80, 38
2, 81519, Note_on_c, 0, 68, 57
2, 81578, Note_on_c, 0, 78, 18
2, 81742, Note_on_c, 0, 80, 0
2, 81761, Note_on_c, 0, 78, 0
2, 81764, Note_on_c, 0, 68, 0
2, 81789, Note_on_c, 0, 69, 36
2, 81923, Note_on_c, 0, 69, 0
2, 81954, Note_on_c, 0, 81, 31
2, 82039, Note_on_c, 0, 81, 0
2, 82046, Note_on_c, 0, 69, 32
2, 82228, Note_on_c, 0, 69, 0
2, 82250, Note_on_c, 0, 81, 37
2, 82361, Note_on_c, 0, 69, 32
2, 82362, Note_on_c, 0, 81, 0
2, 82505, Note_on_c, 0, 81, 33
2, 82685, Note_on_c, 0, 81, 0
2, 82765, Note_on_c, 0, 69, 0
2, 82858, Note_on_c, 0, 60, 40
2, 82862, Note_on_c, 0, 63, 33
2, 82962, Note_on_c, 0, 63, 0
2, 83047, Note_on_c, 0, 60, 0
2, 83491, Note_on_c, 0, 60, 40
2, 83498, Note_on_c, 0, 63, 35
2, 83509, Note_on_c, 0, 54, 35
2, 83558, Note_on_c, 0, 63, 0
2, 83561, Note_on_c, 0, 60, 0
2, 83573, Note_on_c, 0, 54, 0
2, 83959, Note_on_c, 0, 63, 39
2, 84000, Control_c, 0, 64, 127
2, 84038, Note_on_c, 0, 63, 0
2, 84409, Control_c, 0, 64, 0
2, 84876, Note_on_c, 0, 62, 64
2, 84878, Note_on_c, 0, 59, 58
2, 84893, Note_on_c, 0, 57, 62
2, 84900, Note_on_c, 0, 86, 85
2, 84907, Note_on_c, 0, 74, 85
2, 85228, Control_c, 0, 64, 127
2, 85345, Note_on_c, 0, 57, 0
2, 85346, Note_on_c, 0, 59, 0
2, 85387, Note_on_c, 0, 62, 0
2, 85433, Note_on_c, 0, 86, 0
2, 85444, Note_on_c, 0, 74, 0
2, 85639, Note_on_c, 0, 62, 46
2, 85644, Note_on_c, 0, 86, 64
2, 85665, Note_on_c, 0, 59, 45
2, 85667, Note_on_c, 0, 74, 68
2, 85681, Note_on_c, 0, 57, 36
2, 85757, Note_on_c, 0, 57, 0
2, 85765, Note_on_c, 0, 86, 0
2, 85794, Note_on_c, 0, 62, 0
2, 85809, Note_on_c, 0, 74, 0
2, 85855, Note_on_c, 0, 59, 0
2, 86305, Control_c, 0, 64, 0
2, 86309, Note_on_c, 0, 62, 43
2, 86321, Note_on_c, 0, 59, 36
2, 86323, Note_on_c, 0, 52, 37
2, 86342, Note_on_c, 0, 57, 44
2, 86768, Control_c, 0, 64, 127
2, 86910, Note_on_c, 0, 52, 0
2, 86924, Note_on_c, 0, 62, 0
2, 86950, Note_on_c, 0, 57, 0
2, 86952, Note_on_c, 0, 59, 0
2, 87075, Note_on_c, 0, 62, 44
2, 87094, Note_on_c, 0, 59, 47
2, 87101, Note_on_c, 0, 52, 35
2, 87102, Note_on_c, 0, 57, 50
2, 87352, Note_on_c, 0, 59, 0
2, 87356, Note_on_c, 0, 62, 0
2, 87359, Note_on_c, 0, 57, 0
2, 87360, Note_on_c, 0, 52, 0
2, 88254, Control_c, 0, 64, 0
2, 88775, Note_on_c, 0, 62, 74
2, 88776, Note_on_c, 0, 67, 81
2, 88780, Note_on_c, 0, 56, 82
2, 88782, Note_on_c, 0, 91, 88
2, 88787, Note_on_c, 0, 88, 83
2, 88790, Note_on_c, 0, 84, 88
2, 88791, Note_on_c, 0, 79, 90
2, 89152, Control_c, 0, 64, 127
2, 89247, Note_on_c, 0, 67, 0
2, 89252, Note_on_c, 0, 62, 0
2, 89271, Note_on_c, 0, 79, 0
2, 89278, Note_on_c, 0, 56, 0
2, 89282, Note_on_c, 0, 91, 0
2, 89283, Note_on_c, 0, 84, 0
2, 89293, Note_on_c, 0, 88, 0
2, 89507, Note_on_c, 0, 89, 76
2, 89519, Note_on_c, 0, 84, 79
2, 89526, Note_on_c, 0, 77, 71
2, 89528, Note_on_c, 0, 56, 82
2, 89530, Note_on_c, 0, 67, 76
2, 89538, Note_on_c, 0, 62, 66
2, 89868, Note_on_c, 0, 77, 0
2, 89881, Note_on_c, 0, 89, 0
2, 89905, Note_on_c, 0, 84, 0
2, 89919, Note_on_c, 0, 67, 0
2, 89951, Note_on_c, 0, 56, 0
2, 89961, Note_on_c, 0, 62, 0
2, 90135, Control_c, 0, 64, 0
2, 90191, Note_on_c, 0, 88, 74
2, 90207, Note_on_c, 0, 65, 73
2, 90208, Note_on_c, 0, 62, 68
2, 90210, Note_on_c, 0, 76, 70
2, 90211, Note_on_c, 0, 56, 81
2, 90214, Note_on_c, 0, 83, 76
2, 90240, Note_on_c, 0, 85, 35
2, 90291, Note_on_c, 0, 85, 0
2, 90448, Control_c, 0, 64, 127
2, 90660, Note_on_c, 0, 88, 0
2, 90684, Note_on_c, 0, 83, 0
2, 90697, Note_on_c, 0, 76, 0
2, 90702, Note_on_c, 0, 65, 0
2, 90717, Note_on_c, 0, 62, 0
2, 90745, Note_on_c, 0, 56, 0
2, 90925, Control_c, 0, 64, 0
2, 90960, Note_on_c, 0, 86, 70
2, 90964, Note_on_c, 0, 80, 64
2, 90971, Note_on_c, 0, 74, 71
2, 90977, Note_on_c, 0, 83, 67
2, 90978, Note_on_c, 0, 65, 70
2, 90981, Note_on_c, 0, 56, 74
2, 90990, Note_on_c, 0, 62, 58
2, 91200, Control_c, 0, 64, 127
2, 91296, Note_on_c, 0, 83, 0
2, 91318, Note_on_c, 0, 74, 0
2, 91333, Note_on_c, 0, 86, 0
2, 91347, Note_on_c, 0, 62, 0
2, 91356, Note_on_c, 0, 56, 0
2, 91357, Note_on_c, 0, 65, 0
2, 91366, Note_on_c, 0, 80, 0
2, 91594, Control_c, 0, 64, 0
2, 91657, Note_on_c, 0, 84, 75
2, 91661, Note_on_c, 0, 65, 64
2, 91665, Note_on_c, 0, 56, 68
2, 91669, Note_on_c, 0, 72, 63
2, 91670, Note_on_c, 0, 79, 69
2, 91676, Note_on_c, 0, 62, 56
2, 91825, Note_on_c, 0, 62, 0
2, 91874, Note_on_c, 0, 65, 0
2, 91900, Note_on_c, 0, 84, 0
2, 91910, Note_on_c, 0, 79, 0
2, 91972, Note_on_c, 0, 56, 0
2, 91974, Note_on_c, 0, 72, 0
2, 92120, Note_on_c, 0, 64, 41
2, 92123, Note_on_c, 0, 83, 51
2, 92129, Note_on_c, 0, 60, 43
2, 92141, Note_on_c, 0, 76, 46
2, 92142, Note_on_c, 0, 59, 47
2, 92146, Note_on_c, 0, 71, 37
2, 92148, Note_on_c, 0, 55, 33
2, 92254, Note_on_c, 0, 64, 0
2, 92263, Note_on_c, 0, 76, 0
2, 92265, Note_on_c, 0, 71, 0
2, 92269, Note_on_c, 0, 60, 0
2, 92278, Note_on_c, 0, 59, 0
2, 92300, Note_on_c, 0, 83, 0
2, 92304, Note_on_c, 0, 55, 0
2, 92894, Note_on_c, 0, 83, 53
2, 92905, Note_on_c, 0, 64, 32
2, 92913, Note_on_c, 0, 71, 44
2, 92920, Note_on_c, 0, 60, 35
2, 92921, Note_on_c, 0, 76, 47
2, 92939, Note_on_c, 0, 59, 29
2, 93032, Note_on_c, 0, 71, 0
2, 93038, Note_on_c, 0, 76, 0
2, 93071, Note_on_c, 0, 83, 0
2, 93093, Note_on_c, 0, 64, 0
2, 93096, Note_on_c, 0, 59, 0
2, 93124, Note_on_c, 0, 60, 0
2, 93558, Note_on_c, 0, 64, 32
2, 93580, Note_on_c, 0, 59, 38
2, 93582, Note_on_c, 0, 60, 34
2, 93611, Note_on_c, 0, 57, 46
2, 93687, Note_on_c, 0, 57, 0
2, 93708, Note_on_c, 0, 60, 0
2, 93724, Note_on_c, 0, 59, 0
2, 93755, Note_on_c, 0, 64, 0
2, 94306, Note_on_c, 0, 64, 34
2, 94344, Note_on_c, 0, 59, 37
2, 94345, Note_on_c, 0, 60, 34
2, 94362, Note_on_c, 0, 57, 38
2, 94439, Note_on_c, 0, 57, 0
2, 94496, Note_on_c, 0, 60, 0
2, 94510, Note_on_c, 0, 64, 0
2, 94515, Note_on_c, 0, 59, 0
2, 94994, Note_on_c, 0, 64, 32
2, 95031, Note_on_c, 0, 57, 45
2, 95040, Note_on_c, 0, 60, 27
2, 95053, Note_on_c, 0, 59, 31
2, 95114, Note_on_c, 0, 59, 0
2, 95123, Note_on_c, 0, 60, 0
2, 95148, Note_on_c, 0, 64, 0
2, 95213, Note_on_c, 0, 57, 0
2, 95465, Note_on_c, 0, 64, 44
2, 95503, Note_on_c, 0, 57, 42
2, 95505, Note_on_c, 0, 60, 35
2, 95673, Note_on_c, 0, 57, 0
2, 95682, Note_on_c, 0, 64, 0
2, 95684, Note_on_c, 0, 60, 0
2, 96010, Note_on_c, 0, 64, 22
2, 96017, Note_on_c, 0, 60, 26
2, 96018, Note_on_c, 0, 54, 34
2, 96199, Note_on_c, 0, 60, 0
2, 96236, Note_on_c, 0, 54, 0
2, 96278, Note_on_c, 0, 64, 0
2, 96742, Note_on_c, 0, 54, 33
2, 96755, Note_on_c, 0, 60, 35
2, 96763, Note_on_c, 0, 64, 19
2, 96886, Note_on_c, 0, 64, 0
2, 96959, Note_on_c, 0, 60, 0
2, 96993, Note_on_c, 0, 54, 0
2, 97875, Note_on_c, 0, 64, 35
2, 97888, Note_on_c, 0, 60, 44
2, 97896, Note_on_c, 0, 54, 39
2, 98005, Note_on_c, 0, 64, 0
2, 98007, Note_on_c, 0, 60, 0
2, 98035, Note_on_c, 0, 54, 0
2, 98672, Note_on_c, 0, 64, 53
2, 98676, Note_on_c, 0, 60, 47
2, 98677, Note_on_c, 0, 54, 44
2, 98731, Note_on_c, 0, 64, 0
2, 98746, Note_on_c, 0, 60, 0
2, 98759, Note_on_c, 0, 54, 0
2, 98850, Note_on_c, 0, 82, 82
2, 99092, Note_on_c, 0, 83, 75
2, 99119, Note_on_c, 0, 82, 0
2, 99154, Note_on_c, 0, 64, 43
2, 99161, Note_on_c, 0, 54, 35
2, 99167, Note_on_c, 0, 60, 33
2, 99216, Note_on_c, 0, 64, 0
2, 99228, Note_on_c, 0, 60, 0
2, 99231, Note_on_c, 0, 83, 0
2, 99311, Note_on_c, 0, 54, 0
2, 99596, Note_on_c, 0, 82, 75
2, 99609, Note_on_c, 0, 62, 38
2, 99624, Note_on_c, 0, 59, 37
2, 99693, Note_on_c, 0, 59, 0
2, 99696, Note_on_c, 0, 62, 0
2, 99735, Note_on_c, 0, 82, 0
2, 100083, Note_on_c, 0, 62, 29
2, 100090, Note_on_c, 0, 80, 74
2, 100102, Note_on_c, 0, 59, 26
2, 100117, Note_on_c, 0, 57, 32
2, 100134, Note_on_c, 0, 52, 20
2, 100208, Note_on_c, 0, 80, 0
2, 100259, Note_on_c, 0, 62, 0
2, 100274, Note_on_c, 0, 59, 0
2, 100281, Note_on_c, 0, 57, 0
2, 100323, Note_on_c, 0, 81, 58
2, 100372, Note_on_c, 0, 52, 0
2, 100528, Note_on_c, 0, 81, 0
2, 100762, Note_on_c, 0, 81, 76
2, 101096, Note_on_c, 0, 81, 0
2, 101224, Note_on_c, 0, 76, 49
2, 101390, Note_on_c, 0, 76, 0
2, 101507, Note_on_c, 0, 76, 50
2, 101545, Note_on_c, 0, 62, 24
2, 101567, Note_on_c, 0, 59, 26
2, 101582, Note_on_c, 0, 57, 24
2, 101586, Note_on_c, 0, 52, 20
2, 101657, Note_on_c, 0, 76, 0
2, 101711, Note_on_c, 0, 59, 0
2, 101713, Note_on_c, 0, 62, 0
2, 101728, Note_on_c, 0, 57, 0
2, 101749, Note_on_c, 0, 76, 54
2, 101966, Note_on_c, 0, 76, 0
2, 102194, Note_on_c, 0, 76, 56
2, 102199, Note_on_c, 0, 52, 0
2, 102342, Note_on_c, 0, 76, 0
2, 102473, Note_on_c, 0, 76, 43
2, 102530, Note_on_c, 0, 62, 24
2, 102539, Note_on_c, 0, 52, 24
2, 102556, Note_on_c, 0, 59, 29
2, 102569, Note_on_c, 0, 57, 20
2, 102607, Note_on_c, 0, 76, 0
2, 102682, Note_on_c, 0, 59, 0
2, 102692, Note_on_c, 0, 76, 40
2, 102704, Note_on_c, 0, 57, 0
2, 102722, Note_on_c, 0, 62, 0
2, 102912, Note_on_c, 0, 76, 0
2, 103002, Note_on_c, 0, 74, 49
2, 103094, Note_on_c, 0, 74, 0
2, 103230, Note_on_c, 0, 71, 24
2, 103414, Note_on_c, 0, 52, 0
2, 103432, Note_on_c, 0, 71, 0
2, 103679, Note_on_c, 0, 62, 24
2, 103694, Note_on_c, 0, 52, 24
2, 103702, Note_on_c, 0, 59, 22
2, 103812, Note_on_c, 0, 59, 0
2, 103825, Note_on_c, 0, 52, 0
2, 103846, Note_on_c, 0, 62, 0
2, 104404, Note_on_c, 0, 62, 24
2, 104422, Note_on_c, 0, 52, 24
2, 104430, Note_on_c, 0, 59, 31
2, 104442, Note_on_c, 0, 57, 24
2, 105064, Note_on_c, 0, 59, 0
2, 105091, Note_on_c, 0, 62, 0
2, 105118, Note_on_c, 0, 57, 0
2, 105342, Note_on_c, 0, 59, 38
2, 105504, Note_on_c, 0, 59, 0
2, 105522, Note_on_c, 0, 68, 57
2, 105523, Note_on_c, 0, 80, 51
2, 105569, Note_on_c, 0, 74, 50
2, 105582, Note_on_c, 0, 68, 0
2, 105621, Note_on_c, 0, 77, 32
2, 105629, Note_on_c, 0, 69, 33
2, 105637, Note_on_c, 0, 80, 0
2, 105680, Note_on_c, 0, 81, 24
2, 105782, Note_on_c, 0, 69, 0
2, 105820, Note_on_c, 0, 74, 0
2, 105844, Note_on_c, 0, 81, 0
2, 105855, Note_on_c, 0, 62, 29
2, 105859, Note_on_c, 0, 77, 0
2, 105880, Note_on_c, 0, 59, 34
2, 105909, Note_on_c, 0, 57, 26
2, 105912, Note_on_c, 0, 62, 0
2, 105997, Note_on_c, 0, 57, 0
2, 106003, Note_on_c, 0, 84, 81
2, 106018, Note_on_c, 0, 72, 75
2, 106020, Note_on_c, 0, 59, 0
2, 106021, Note_on_c, 0, 77, 78
2, 106022, Note_on_c, 0, 81, 64
2, 106056, Note_on_c, 0, 83, 49
2, 106113, Note_on_c, 0, 83, 0
2, 106171, Note_on_c, 0, 81, 0
2, 106186, Note_on_c, 0, 77, 0
2, 106205, Note_on_c, 0, 84, 0
2, 106232, Note_on_c, 0, 72, 0
2, 106332, Note_on_c, 0, 59, 32
2, 106447, Note_on_c, 0, 59, 0
2, 106485, Note_on_c, 0, 80, 38
2, 106579, Note_on_c, 0, 80, 0
2, 106587, Note_on_c, 0, 69, 37
2, 106594, Note_on_c, 0, 74, 45
2, 106606, Note_on_c, 0, 77, 36
2, 106715, Note_on_c, 0, 69, 0
2, 106770, Note_on_c, 0, 74, 0
2, 106817, Note_on_c, 0, 62, 42
2, 106819, Note_on_c, 0, 77, 0
2, 106847, Note_on_c, 0, 57, 37
2, 106875, Note_on_c, 0, 62, 0
2, 106906, Note_on_c, 0, 52, 0
2, 106959, Note_on_c, 0, 84, 85
2, 106969, Note_on_c, 0, 77, 85
2, 106970, Note_on_c, 0, 72, 82
2, 106976, Note_on_c, 0, 81, 71
2, 107002, Note_on_c, 0, 83, 52
2, 107036, Note_on_c, 0, 57, 0
2, 107074, Note_on_c, 0, 83, 0
2, 107119, Note_on_c, 0, 81, 0
2, 107148, Note_on_c, 0, 77, 0
2, 107155, Note_on_c, 0, 84, 0
2, 107197, Note_on_c, 0, 72, 0
2, 107286, Note_on_c, 0, 58, 45
2, 107305, Note_on_c, 0, 57, 33
2, 107309, Note_on_c, 0, 62, 29
2, 107365, Note_on_c, 0, 62, 0
2, 107380, Note_on_c, 0, 57, 0
2, 107395, Note_on_c, 0, 58, 0
2, 107437, Note_on_c, 0, 80, 35
2, 107450, Note_on_c, 0, 68, 28
2, 107544, Note_on_c, 0, 68, 0
2, 107548, Note_on_c, 0, 74, 38
2, 107550, Note_on_c, 0, 77, 29
2, 107563, Note_on_c, 0, 69, 36
2, 107596, Note_on_c, 0, 80, 0
2, 107683, Note_on_c, 0, 69, 0
2, 107731, Note_on_c, 0, 74, 0
2, 107771, Note_on_c, 0, 62, 29
2, 107782, Note_on_c, 0, 77, 0
2, 107784, Note_on_c, 0, 58, 38
2, 107812, Note_on_c, 0, 57, 34
2, 107898, Note_on_c, 0, 62, 0
2, 107924, Note_on_c, 0, 58, 0
2, 107937, Note_on_c, 0, 84, 73
2, 107940, Note_on_c, 0, 86, 77
2, 107941, Note_on_c, 0, 57, 0
2, 107947, Note_on_c, 0, 81, 62
2, 107949, Note_on_c, 0, 72, 65
2, 107955, Note_on_c, 0, 77, 67
2, 107956, Note_on_c, 0, 74, 69
2, 108027, Note_on_c, 0, 86, 0
2, 108083, Note_on_c, 0, 81, 0
2, 108095, Note_on_c, 0, 77, 0
2, 108115, Note_on_c, 0, 74, 0
2, 108132, Note_on_c, 0, 84, 0
2, 108159, Note_on_c, 0, 72, 0
2, 108226, Note_on_c, 0, 62, 37
2, 108246, Note_on_c, 0, 58, 35
2, 108266, Note_on_c, 0, 57, 30
2, 108326, Note_on_c, 0, 58, 0
2, 108334, Note_on_c, 0, 62, 0
2, 108359, Note_on_c, 0, 73, 19
2, 108413, Note_on_c, 0, 80, 34
2, 108425, Note_on_c, 0, 57, 0
2, 108427, Note_on_c, 0, 68, 36
2, 108442, Note_on_c, 0, 73, 0
2, 108464, Note_on_c, 0, 78, 21
2, 108495, Note_on_c, 0, 77, 53
2, 108525, Note_on_c, 0, 74, 42
2, 108572, Note_on_c, 0, 68, 0
2, 108639, Note_on_c, 0, 80, 0
2, 108745, Note_on_c, 0, 78, 0
2, 108756, Note_on_c, 0, 74, 0
2, 108783, Note_on_c, 0, 77, 0
2, 109188, Note_on_c, 0, 62, 36
2, 109195, Note_on_c, 0, 58, 42
2, 109207, Note_on_c, 0, 53, 27
2, 109212, Note_on_c, 0, 57, 36
2, 109281, Note_on_c, 0, 57, 0
2, 109312, Note_on_c, 0, 62, 0
2, 109330, Note_on_c, 0, 58, 0
2, 109341, Note_on_c, 0, 53, 0
2, 109868, Note_on_c, 0, 62, 26
2, 109887, Note_on_c, 0, 57, 34
2, 109900, Note_on_c, 0, 53, 20
2, 109902, Note_on_c, 0, 58, 30
2, 110013, Note_on_c, 0, 53, 0
2, 110023, Note_on_c, 0, 62, 0
2, 110044, Note_on_c, 0, 58, 0
2, 110053, Note_on_c, 0, 57, 0
2, 110612, Note_on_c, 0, 62, 38
2, 110626, Note_on_c, 0, 57, 36
2, 110637, Note_on_c, 0, 58, 36
2, 110739, Note_on_c, 0, 62, 0
2, 110766, Note_on_c, 0, 57, 0
2, 110830, Note_on_c, 0, 58, 0
2, 111276, Note_on_c, 0, 62, 35
2, 111287, Note_on_c, 0, 52, 34
2, 111291, Note_on_c, 0, 58, 32
2, 111407, Note_on_c, 0, 52, 0
2, 111412, Note_on_c, 0, 62, 0
2, 111442, Note_on_c, 0, 58, 0
2, 112050, Note_on_c, 0, 62, 45
2, 112058, Note_on_c, 0, 58, 35
2, 112095, Note_on_c, 0, 52, 24
2, 112161, Note_on_c, 0, 62, 0
2, 112171, Note_on_c, 0, 52, 0
2, 112193, Note_on_c, 0, 58, 0
2, 112788, Note_on_c, 0, 61, 45
2, 112831, Note_on_c, 0, 58, 38
2, 112840, Note_on_c, 0, 52, 24
2, 112941, Note_on_c, 0, 52, 0
2, 112982, Note_on_c, 0, 61, 0
2, 113032, Note_on_c, 0, 58, 0
2, 113589, Note_on_c, 0, 61, 51
2, 113604, Note_on_c, 0, 58, 48
2, 113700, Note_on_c, 0, 61, 0
2, 113736, Note_on_c, 0, 58, 0
2, 114098, Note_on_c, 0, 61, 30
2, 114157, Note_on_c, 0, 61, 0
2, 114337, Note_on_c, 0, 84, 32
2, 114419, Note_on_c, 0, 84, 0
2, 114541, Note_on_c, 0, 88, 87
2, 114551, Note_on_c, 0, 61, 65
2, 114571, Note_on_c, 0, 58, 59
2, 114577, Note_on_c, 0, 52, 52
2, 114691, Note_on_c, 0, 88, 0
2, 114751, Note_on_c, 0, 89, 82
2, 114804, Note_on_c, 0, 52, 0
2, 114883, Note_on_c, 0, 61, 0
2, 114907, Note_on_c, 0, 58, 0
2, 114941, Note_on_c, 0, 89, 0
2, 115022, Note_on_c, 0, 91, 95
2, 115046, Note_on_c, 0, 64, 53
2, 115066, Note_on_c, 0, 60, 43
2, 115070, Note_on_c, 0, 53, 33
2, 115085, Note_on_c, 0, 57, 42
2, 115185, Note_on_c, 0, 64, 0
2, 115261, Note_on_c, 0, 88, 54
2, 115273, Note_on_c, 0, 60, 0
2, 115333, Note_on_c, 0, 91, 0
2, 115453, Note_on_c, 0, 88, 0
2, 115498, Note_on_c, 0, 64, 29
2, 115521, Note_on_c, 0, 91, 64
2, 115548, Note_on_c, 0, 60, 27
2, 115549, Note_on_c, 0, 84, 53
2, 115576, Note_on_c, 0, 64, 0
2, 115669, Note_on_c, 0, 60, 0
2, 115687, Note_on_c, 0, 91, 0
2, 115722, Note_on_c, 0, 84, 0
2, 115744, Note_on_c, 0, 57, 0
2, 115795, Note_on_c, 0, 81, 36
2, 115933, Note_on_c, 0, 81, 0
2, 116036, Note_on_c, 0, 77, 57
2, 116042, Note_on_c, 0, 57, 32
2, 116044, Note_on_c, 0, 60, 25
2, 116144, Note_on_c, 0, 60, 0
2, 116158, Note_on_c, 0, 77, 0
2, 116202, Note_on_c, 0, 57, 0
2, 116346, Note_on_c, 0, 74, 17
2, 116418, Note_on_c, 0, 64, 18
2, 116452, Note_on_c, 0, 60, 25
2, 116509, Note_on_c, 0, 74, 0
2, 116534, Note_on_c, 0, 64, 0
2, 116614, Note_on_c, 0, 60, 0
2, 116640, Note_on_c, 0, 74, 58
2, 116673, Note_on_c, 0, 75, 61
2, 116701, Note_on_c, 0, 79, 34
2, 116705, Note_on_c, 0, 53, 0
2, 116902, Note_on_c, 0, 76, 36
2, 116920, Note_on_c, 0, 74, 0
2, 117047, Note_on_c, 0, 75, 0
2, 117049, Note_on_c, 0, 76, 0
2, 117075, Note_on_c, 0, 79, 0
2, 117149, Note_on_c, 0, 72, 39
2, 117373, Note_on_c, 0, 72, 0
2, 117456, Note_on_c, 0, 79, 50
2, 117457, Note_on_c, 0, 74, 57
2, 117580, Note_on_c, 0, 74, 0
2, 117618, Note_on_c, 0, 79, 0
2, 117680, Note_on_c, 0, 69, 20
2, 117886, Note_on_c, 0, 67, 36
2, 117935, Note_on_c, 0, 69, 0
2, 117977, Note_on_c, 0, 67, 0
2, 118069, Note_on_c, 0, 72, 58
2, 118494, Note_on_c, 0, 72, 0
2, 118575, Note_on_c, 0, 74, 43
2, 118815, Note_on_c, 0, 74, 0
2, 118953, Note_on_c, 0, 64, 26
2, 118980, Note_on_c, 0, 65, 45
2, 118985, Note_on_c, 0, 60, 30
2, 119004, Note_on_c, 0, 57, 25
2, 119028, Note_on_c, 0, 64, 0
2, 119190, Note_on_c, 0, 60, 0
2, 119323, Note_on_c, 0, 65, 0
2, 119447, Note_on_c, 0, 57, 0
2, 119456, Note_on_c, 0, 65, 50
2, 119578, Note_on_c, 0, 65, 0
2, 119980, Note_on_c, 0, 57, 29
2, 119983, Note_on_c, 0, 64, 36
2, 120169, Note_on_c, 0, 57, 0
2, 120268, Note_on_c, 0, 64, 0
2, 120417, Note_on_c, 0, 64, 48
2, 120657, Note_on_c, 0, 64, 0
2, 120885, Note_on_c, 0, 60, 54
2, 121181, Note_on_c, 0, 60, 0
2, 121324, Note_on_c, 0, 60, 39
2, 121397, Note_on_c, 0, 60, 0
2, 121823, Note_on_c, 0, 64, 43
2, 121862, Note_on_c, 0, 60, 36
2, 121868, Note_on_c, 0, 57, 41
2, 121929, Control_c, 0, 64, 127
2, 121941, Note_on_c, 0, 60, 0
2, 121945, Note_on_c, 0, 64, 0
2, 122242, Control_c, 0, 64, 0
2, 122277, Note_on_c, 0, 57, 0
2, 122832, Note_on_c, 0, 63, 48
2, 122957, Note_on_c, 0, 63, 0
2, 123296, Note_on_c, 0, 65, 96
2, 123581, Note_on_c, 0, 65, 0
2, 123594, Note_on_c, 0, 64, 43
2, 123706, Note_on_c, 0, 64, 0
2, 123791, Note_on_c, 0, 65, 41
2, 124083, Note_on_c, 0, 63, 35
2, 124119, Note_on_c, 0, 60, 28
2, 124124, Note_on_c, 0, 67, 65
2, 124165, Note_on_c, 0, 63, 0
2, 124172, Note_on_c, 0, 65, 0
2, 124176, Note_on_c, 0, 56, 27
2, 124229, Note_on_c, 0, 67, 0
2, 124240, Note_on_c, 0, 60, 0
2, 124456, Note_on_c, 0, 56, 0
2, 124771, Note_on_c, 0, 63, 44
2, 124793, Note_on_c, 0, 60, 33
2, 124819, Note_on_c, 0, 56, 37
2, 124875, Note_on_c, 0, 60, 0
2, 124899, Note_on_c, 0, 63, 0
2, 125257, Note_on_c, 0, 56, 0
2, 125522, Note_on_c, 0, 63, 49
2, 125525, Note_on_c, 0, 60, 48
2, 125530, Note_on_c, 0, 56, 44
2, 125655, Note_on_c, 0, 63, 0
2, 125689, Note_on_c, 0, 60, 0
2, 125700, Note_on_c, 0, 56, 0
2, 126743, Note_on_c, 0, 65, 36
2, 126761, Note_on_c, 0, 56, 42
2, 126776, Note_on_c, 0, 60, 33
2, 126781, Note_on_c, 0, 55, 28
2, 127285, Control_c, 0, 64, 127
2, 128224, Note_on_c, 0, 60, 0
2, 128235, Note_on_c, 0, 65, 0
2, 128288, Note_on_c, 0, 55, 0
2, 128306, Note_on_c, 0, 56, 0
2, 128582, Control_c, 0, 64, 0
2, 128626, Note_on_c, 0, 64, 58
2, 128630, Note_on_c, 0, 59, 48
2, 128631, Note_on_c, 0, 76, 83
2, 128635, Note_on_c, 0, 53, 49
2, 128962, Note_on_c, 0, 76, 0
2, 128978, Note_on_c, 0, 77, 70
2, 129104, Note_on_c, 0, 64, 0
2, 129111, Note_on_c, 0, 53, 0
2, 129234, Note_on_c, 0, 59, 0
2, 129302, Note_on_c, 0, 77, 0
2, 129374, Note_on_c, 0, 59, 56
2, 129378, Note_on_c, 0, 80, 77
2, 129383, Note_on_c, 0, 63, 64
2, 129390, Note_on_c, 0, 53, 60
2, 129495, Control_c, 0, 64, 127
2, 129565, Note_on_c, 0, 63, 0
2, 129579, Note_on_c, 0, 53, 0
2, 129640, Note_on_c, 0, 59, 0
2, 129674, Note_on_c, 0, 80, 0
2, 129866, Note_on_c, 0, 83, 82
2, 129877, Note_on_c, 0, 63, 68
2, 129881, Note_on_c, 0, 53, 55
2, 129884, Note_on_c, 0, 59, 59
2, 130062, Note_on_c, 0, 63, 0
2, 130071, Note_on_c, 0, 83, 0
2, 130078, Note_on_c, 0, 53, 0
2, 130120, Note_on_c, 0, 59, 0
2, 130345, Note_on_c, 0, 53, 33
2, 130347, Note_on_c, 0, 84, 71
2, 130407, Note_on_c, 0, 53, 0
2, 130444, Note_on_c, 0, 84, 0
2, 130523, Note_on_c, 0, 62, 68
2, 130534, Control_c, 0, 64, 0
2, 130538, Note_on_c, 0, 79, 71
2, 130542, Note_on_c, 0, 52, 56
2, 130545, Note_on_c, 0, 86, 74
2, 130561, Note_on_c, 0, 57, 59
2, 130867, Note_on_c, 0, 86, 0
2, 130925, Note_on_c, 0, 79, 0
2, 130935, Note_on_c, 0, 62, 0
2, 130955, Note_on_c, 0, 57, 0
2, 131018, Note_on_c, 0, 84, 51
2, 131021, Note_on_c, 0, 72, 48
2, 131023, Note_on_c, 0, 57, 19
2, 131031, Note_on_c, 0, 62, 36
2, 131290, Note_on_c, 0, 84, 0
2, 131320, Note_on_c, 0, 72, 0
2, 131332, Note_on_c, 0, 62, 0
2, 131358, Note_on_c, 0, 52, 0
2, 131396, Note_on_c, 0, 57, 0
2, 131512, Note_on_c, 0, 52, 36
2, 131516, Note_on_c, 0, 57, 33
2, 131517, Note_on_c, 0, 86, 58
2, 131520, Note_on_c, 0, 62, 37
2, 131537, Note_on_c, 0, 74, 39
2, 131551, Note_on_c, 0, 79, 40
2, 131788, Note_on_c, 0, 86, 0
2, 131830, Note_on_c, 0, 74, 0
2, 131838, Note_on_c, 0, 52, 0
2, 131858, Note_on_c, 0, 62, 0
2, 131873, Note_on_c, 0, 79, 0
2, 131933, Note_on_c, 0, 57, 0
2, 131985, Note_on_c, 0, 84, 49
2, 131996, Note_on_c, 0, 57, 19
2, 131997, Note_on_c, 0, 72, 36
2, 131998, Note_on_c, 0, 62, 48
2, 132026, Note_on_c, 0, 52, 29
2, 132034, Note_on_c, 0, 79, 33
2, 132226, Note_on_c, 0, 52, 0
2, 132240, Note_on_c, 0, 84, 0
2, 132242, Note_on_c, 0, 79, 0
2, 132246, Note_on_c, 0, 62, 0
2, 132249, Note_on_c, 0, 72, 0
2, 132337, Note_on_c, 0, 57, 0
2, 132488, Note_on_c, 0, 86, 59
2, 132498, Note_on_c, 0, 62, 36
2, 132502, Note_on_c, 0, 57, 26
2, 132515, Note_on_c, 0, 52, 33
2, 132517, Note_on_c, 0, 74, 44
2, 132526, Note_on_c, 0, 79, 44
2, 132670, Note_on_c, 0, 86, 0
2, 132681, Note_on_c, 0, 52, 0
2, 132699, Note_on_c, 0, 62, 0
2, 132715, Note_on_c, 0, 79, 0
2, 132718, Note_on_c, 0, 74, 0
2, 132780, Note_on_c, 0, 57, 0
2, 133163, Control_c, 0, 64, 127
2, 133190, Control_c, 0, 64, 0
2, 133218, Note_on_c, 0, 62, 37
2, 133222, Note_on_c, 0, 84, 51
2, 133226, Note_on_c, 0, 57, 29
2, 133228, Note_on_c, 0, 52, 36
2, 133239, Note_on_c, 0, 72, 36
2, 133254, Note_on_c, 0, 79, 44
2, 133326, Note_on_c, 0, 52, 0
2, 133361, Note_on_c, 0, 72, 0
2, 133367, Note_on_c, 0, 57, 0
2, 133396, Note_on_c, 0, 62, 0
2, 133403, Note_on_c, 0, 79, 0
2, 133424, Note_on_c, 0, 84, 0
2, 133870, Note_on_c, 0, 64, 74
2, 133872, Note_on_c, 0, 55, 70
2, 133877, Note_on_c, 0, 60, 63
2, 133883, Note_on_c, 0, 86, 80
2, 133893, Note_on_c, 0, 79, 74
2, 133896, Note_on_c, 0, 74, 74
2, 133898, Note_on_c, 0, 59, 56
2, 134253, Control_c, 0, 64, 127
2, 134618, Note_on_c, 0, 55, 0
2, 134679, Note_on_c, 0, 64, 0
2, 134690, Note_on_c, 0, 59, 0
2, 134712, Note_on_c, 0, 74, 0
2, 134718, Note_on_c, 0, 86, 0
2, 134755, Note_on_c, 0, 60, 0
2, 134763, Note_on_c, 0, 79, 0
2, 134785, Control_c, 0, 64, 0
2, 134829, Note_on_c, 0, 60, 16
2, 134835, Note_on_c, 0, 55, 42
2, 134839, Note_on_c, 0, 64, 35
2, 134856, Note_on_c, 0, 59, 28
2, 134875, Note_on_c, 0, 84, 44
2, 134880, Note_on_c, 0, 72, 32
2, 134883, Note_on_c, 0, 79, 32
2, 134926, Note_on_c, 0, 59, 0
2, 134933, Note_on_c, 0, 55, 0
2, 134952, Note_on_c, 0, 64, 0
2, 134973, Note_on_c, 0, 72, 0
2, 134977, Note_on_c, 0, 60, 0
2, 134980, Note_on_c, 0, 79, 0
2, 135015, Note_on_c, 0, 84, 0
2, 135330, Note_on_c, 0, 64, 48
2, 135334, Note_on_c, 0, 60, 35
2, 135337, Note_on_c, 0, 86, 68
2, 135362, Note_on_c, 0, 79, 46
2, 135363, Note_on_c, 0, 74, 49
2, 135367, Note_on_c, 0, 59, 33
2, 135383, Note_on_c, 0, 55, 27
2, 135423, Note_on_c, 0, 74, 0
2, 135428, Note_on_c, 0, 59, 0
2, 135439, Note_on_c, 0, 79, 0
2, 135443, Note_on_c, 0, 55, 0
2, 135445, Note_on_c, 0, 64, 0
2, 135469, Note_on_c, 0, 60, 0
2, 135472, Note_on_c, 0, 86, 0
2, 135806, Note_on_c, 0, 84, 60
2, 135821, Note_on_c, 0, 64, 40
2, 135835, Note_on_c, 0, 55, 35
2, 135838, Note_on_c, 0, 72, 40
2, 135842, Note_on_c, 0, 79, 43
2, 135843, Note_on_c, 0, 60, 24
2, 135929, Note_on_c, 0, 60, 0
2, 135934, Note_on_c, 0, 72, 0
2, 135937, Note_on_c, 0, 64, 0
2, 135961, Note_on_c, 0, 79, 0
2, 135972, Note_on_c, 0, 55, 0
2, 135986, Note_on_c, 0, 84, 0
2, 136311, Note_on_c, 0, 86, 67
2, 136318, Note_on_c, 0, 74, 60
2, 136323, Note_on_c, 0, 64, 43
2, 136327, Note_on_c, 0, 80, 50
2, 136330, Note_on_c, 0, 54, 49
2, 136331, Note_on_c, 0, 60, 35
2, 136654, Control_c, 0, 64, 127
2, 136738, Note_on_c, 0, 64, 0
2, 136775, Note_on_c, 0, 60, 0
2, 136816, Note_on_c, 0, 54, 0
2, 136822, Note_on_c, 0, 86, 0
2, 136847, Note_on_c, 0, 74, 0
2, 136912, Note_on_c, 0, 80, 0
2, 136941, Control_c, 0, 64, 0
2, 137043, Note_on_c, 0, 80, 38
2, 137044, Note_on_c, 0, 84, 56
2, 137058, Note_on_c, 0, 72, 43
2, 137070, Note_on_c, 0, 64, 47
2, 137071, Note_on_c, 0, 54, 50
2, 137077, Note_on_c, 0, 60, 44
2, 137226, Control_c, 0, 64, 127
2, 137406, Note_on_c, 0, 72, 0
2, 137423, Note_on_c, 0, 64, 0
2, 137437, Note_on_c, 0, 84, 0
2, 137498, Note_on_c, 0, 80, 0
2, 137517, Note_on_c, 0, 54, 0
2, 137521, Note_on_c, 0, 60, 0
2, 137623, Control_c, 0, 64, 0
2, 137704, Note_on_c, 0, 54, 49
2, 137712, Note_on_c, 0, 64, 44
2, 137719, Note_on_c, 0, 86, 67
2, 137720, Note_on_c, 0, 60, 45
2, 137735, Note_on_c, 0, 74, 63
2, 137841, Note_on_c, 0, 64, 0
2, 137859, Note_on_c, 0, 86, 0
2, 137864, Note_on_c, 0, 74, 0
2, 137912, Note_on_c, 0, 54, 0
2, 138090, Note_on_c, 0, 60, 0
2, 138211, Note_on_c, 0, 60, 37
2, 138222, Note_on_c, 0, 63, 64
2, 138223, Note_on_c, 0, 87, 72
2, 138231, Note_on_c, 0, 75, 72
2, 138241, Note_on_c, 0, 57, 55
2, 138242, Note_on_c, 0, 81, 68
2, 138253, Note_on_c, 0, 54, 37
2, 138328, Control_c, 0, 64, 127
2, 139378, Note_on_c, 0, 81, 0
2, 139425, Note_on_c, 0, 87, 0
2, 139549, Note_on_c, 0, 75, 0
2, 139798, Note_on_c, 0, 63, 0
2, 140120, Note_on_c, 0, 78, 71
2, 140130, Control_c, 0, 64, 0
2, 140142, Note_on_c, 0, 72, 68
2, 140146, Note_on_c, 0, 63, 67
2, 140149, Note_on_c, 0, 69, 58
2, 140199, Note_on_c, 0, 57, 0
2, 140250, Note_on_c, 0, 60, 0
2, 140388, Control_c, 0, 64, 127
2, 140395, Note_on_c, 0, 78, 0
2, 140396, Note_on_c, 0, 72, 0
2, 140464, Note_on_c, 0, 69, 0
2, 140660, Note_on_c, 0, 63, 0
2, 140758, Control_c, 0, 64, 0
2, 140808, Note_on_c, 0, 75, 57
2, 140826, Note_on_c, 0, 60, 54
2, 140833, Note_on_c, 0, 69, 55
2, 140837, Note_on_c, 0, 66, 57
2, 140862, Note_on_c, 0, 54, 0
2, 140935, Note_on_c, 0, 69, 0
2, 140935, Control_c, 0, 64, 127
2, 140949, Note_on_c, 0, 75, 0
2, 141045, Note_on_c, 0, 66, 0
2, 141275, Note_on_c, 0, 63, 60
2, 141282, Note_on_c, 0, 72, 54
2, 141283, Note_on_c, 0, 66, 55
2, 141346, Note_on_c, 0, 57, 53
2, 141373, Note_on_c, 0, 60, 0
2, 141425, Note_on_c, 0, 63, 0
2, 141426, Note_on_c, 0, 66, 0
2, 141427, Note_on_c, 0, 72, 0
2, 141464, Note_on_c, 0, 57, 0
2, 141506, Control_c, 0, 64, 0
2, 141667, Note_on_c, 0, 61, 36
2, 141805, Note_on_c, 0, 61, 0
2, 141977, Note_on_c, 0, 64, 50
2, 141985, Note_on_c, 0, 60, 46
2, 141986, Note_on_c, 0, 57, 57
2, 142005, Note_on_c, 0, 53, 36
2, 142030, Note_on_c, 0, 43, 36
2, 142088, Note_on_c, 0, 53, 0
2, 142164, Note_on_c, 0, 64, 0
2, 142167, Note_on_c, 0, 57, 0
2, 142200, Note_on_c, 0, 60, 0
2, 142247, Note_on_c, 0, 43, 0
2, 142806, Note_on_c, 0, 57, 50
2, 142808, Note_on_c, 0, 43, 47
2, 142809, Note_on_c, 0, 53, 40
2, 142810, Note_on_c, 0, 60, 47
2, 142812, Note_on_c, 0, 64, 35
2, 143029, Note_on_c, 0, 57, 0
2, 143042, Note_on_c, 0, 60, 0
2, 143047, Note_on_c, 0, 53, 0
2, 143052, Note_on_c, 0, 64, 0
2, 143320, Note_on_c, 0, 50, 41
2, 143418, Note_on_c, 0, 50, 0
2, 143459, Note_on_c, 0, 64, 65
2, 143470, Note_on_c, 0, 53, 58
2, 143473, Note_on_c, 0, 57, 62
2, 143475, Note_on_c, 0, 59, 60
2, 143482, Note_on_c, 0, 52, 50
2, 143486, Note_on_c, 0, 43, 0
2, 143988, Note_on_c, 0, 64, 0
2, 144051, Note_on_c, 0, 53, 0
2, 144092, Note_on_c, 0, 57, 0
2, 144140, Note_on_c, 0, 59, 0
2, 144219, Note_on_c, 0, 63, 61
2, 144237, Note_on_c, 0, 59, 41
2, 144242, Note_on_c, 0, 57, 48
2, 144244, Note_on_c, 0, 53, 47
2, 144247, Note_on_c, 0, 51, 58
2, 144259, Note_on_c, 0, 52, 0
2, 144626, Note_on_c, 0, 59, 0
2, 144627, Note_on_c, 0, 57, 0
2, 144650, Note_on_c, 0, 53, 0
2, 144702, Note_on_c, 0, 49, 28
2, 144733, Note_on_c, 0, 63, 0
2, 144831, Note_on_c, 0, 51, 0
2, 144833, Note_on_c, 0, 49, 0
2, 144860, Note_on_c, 0, 50, 60
2, 144901, Note_on_c, 0, 62, 43
2, 144920, Note_on_c, 0, 59, 39
2, 144929, Note_on_c, 0, 57, 22
2, 145068, Note_on_c, 0, 57, 0
2, 145113, Note_on_c, 0, 59, 0
2, 145166, Note_on_c, 0, 50, 0
2, 145175, Note_on_c, 0, 45, 43
2, 145207, Note_on_c, 0, 62, 0
2, 145335, Note_on_c, 0, 45, 0
2, 145341, Note_on_c, 0, 58, 35
2, 145343, Note_on_c, 0, 47, 50
2, 145388, Note_on_c, 0, 58, 0
2, 145452, Note_on_c, 0, 59, 27
2, 145753, Note_on_c, 0, 59, 0
2, 145813, Note_on_c, 0, 47, 0
2, 145853, Note_on_c, 0, 60, 50
2, 145865, Note_on_c, 0, 48, 31
2, 146281, Control_c, 0, 64, 127
2, 146285, Note_on_c, 0, 60, 0
2, 146583, Note_on_c, 0, 48, 0
2, 147319, Note_on_c, 0, 62, 36
2, 147360, Note_on_c, 0, 57, 38
2, 147380, Note_on_c, 0, 52, 24
2, 148225, Note_on_c, 0, 74, 37
2, 148302, Note_on_c, 0, 74, 0
2, 148396, Control_c, 0, 64, 0
2, 148556, Note_on_c, 0, 79, 30
2, 148616, Note_on_c, 0, 79, 0
2, 148841, Note_on_c, 0, 89, 79
2, 148968, Note_on_c, 0, 89, 0
2, 149138, Note_on_c, 0, 57, 0
2, 149143, Note_on_c, 0, 52, 0
2, 149183, Note_on_c, 0, 89, 80
2, 149231, Note_on_c, 0, 62, 0
2, 149325, Note_on_c, 0, 89, 0
2, 149464, Note_on_c, 0, 88, 71
2, 149610, Note_on_c, 0, 88, 0
2, 149699, Note_on_c, 0, 57, 34
2, 149700, Note_on_c, 0, 64, 29
2, 149723, Note_on_c, 0, 62, 36
2, 149725, Note_on_c, 0, 88, 54
2, 150134, Note_on_c, 0, 88, 0
2, 150149, Note_on_c, 0, 86, 56
2, 150217, Note_on_c, 0, 86, 0
2, 150221, Note_on_c, 0, 64, 0
2, 150231, Note_on_c, 0, 57, 0
2, 150232, Note_on_c, 0, 62, 0
2, 150435, Note_on_c, 0, 86, 62
2, 150542, Note_on_c, 0, 86, 0
2, 150905, Note_on_c, 0, 84, 68
2, 151022, Note_on_c, 0, 84, 0
2, 151071, Note_on_c, 0, 64, 31
2, 151091, Note_on_c, 0, 62, 27
2, 151104, Note_on_c, 0, 83, 64
2, 151110, Note_on_c, 0, 57, 24
2, 151354, Note_on_c, 0, 62, 0
2, 151358, Note_on_c, 0, 57, 0
2, 151359, Note_on_c, 0, 64, 0
2, 151376, Note_on_c, 0, 83, 0
2, 151611, Note_on_c, 0, 62, 44
2, 151645, Note_on_c, 0, 81, 51
2, 151646, Note_on_c, 0, 56, 36
2, 151714, Note_on_c, 0, 56, 0
2, 151755, Note_on_c, 0, 62, 0
2, 151789, Note_on_c, 0, 81, 0
2, 152117, Note_on_c, 0, 80, 65
2, 152266, Note_on_c, 0, 80, 0
2, 152597, Note_on_c, 0, 77, 57
2, 152606, Note_on_c, 0, 62, 27
2, 152627, Note_on_c, 0, 56, 31
2, 152907, Note_on_c, 0, 62, 0
2, 152978, Note_on_c, 0, 77, 0
2, 153002, Note_on_c, 0, 56, 0
2, 153088, Note_on_c, 0, 76, 51
2, 153198, Note_on_c, 0, 76, 0
2, 153601, Control_c, 0, 64, 127
2, 153601, Control_c, 0, 64, 0
2, 153601, Note_on_c, 0, 59, 39
2, 153601, Note_on_c, 0, 83, 49
2, 153601, Control_c, 0, 64, 127
2, 153601, Control_c, 0, 64, 0
2, 153601, Note_on_c, 0, 60, 37
2, 153601, Note_on_c, 0, 64, 30
2, 153776, Note_on_c, 0, 64, 0
2, 153793, Note_on_c, 0, 60, 0
2, 153810, Note_on_c, 0, 59, 0
2, 153837, Note_on_c, 0, 83, 0
2, 153952, Note_on_c, 0, 82, 37
2, 154136, Note_on_c, 0, 83, 56
2, 154137, Note_on_c, 0, 82, 0
2, 154270, Note_on_c, 0, 83, 0
2, 154592, Note_on_c, 0, 64, 48
2, 154613, Note_on_c, 0, 60, 41
2, 154632, Note_on_c, 0, 59, 34
2, 154664, Note_on_c, 0, 64, 0
2, 154674, Note_on_c, 0, 60, 0
2, 154692, Note_on_c, 0, 59, 0
2, 155321, Note_on_c, 0, 83, 46
2, 155383, Note_on_c, 0, 83, 0
2, 156001, Note_on_c, 0, 83, 51
2, 156058, Note_on_c, 0, 83, 0
2, 157446, Note_on_c, 0, 60, 22
2, 157451, Note_on_c, 0, 64, 15
2, 157454, Note_on_c, 0, 54, 25
2, 158009, Note_on_c, 0, 59, 1
2, 159319, Note_on_c, 0, 70, 75
2, 159535, Note_on_c, 0, 64, 0
2, 159550, Note_on_c, 0, 70, 0
2, 159606, Note_on_c, 0, 71, 80
2, 159720, Note_on_c, 0, 59, 0
2, 159759, Note_on_c, 0, 71, 0
2, 159791, Note_on_c, 0, 60, 0
2, 160069, Note_on_c, 0, 70, 62
2, 160107, Note_on_c, 0, 60, 25
2, 160223, Note_on_c, 0, 70, 0
2, 160251, Note_on_c, 0, 60, 0
2, 160525, Note_on_c, 0, 66, 46
2, 160668, Note_on_c, 0, 66, 0
2, 160741, Note_on_c, 0, 67, 33
2, 160922, Note_on_c, 0, 67, 0
2, 161015, Note_on_c, 0, 54, 0
2, 161029, Note_on_c, 0, 68, 55
2, 161173, Note_on_c, 0, 68, 0
2, 161248, Note_on_c, 0, 57, 20
2, 161289, Note_on_c, 0, 69, 36
2, 161469, Note_on_c, 0, 57, 0
2, 161611, Note_on_c, 0, 69, 0
2, 161761, Note_on_c, 0, 69, 39
2, 162038, Note_on_c, 0, 69, 0
2, 162065, Note_on_c, 0, 64, 43
2, 162199, Note_on_c, 0, 64, 0
2, 162319, Note_on_c, 0, 64, 52
2, 162594, Note_on_c, 0, 64, 0
2, 162733, Note_on_c, 0, 60, 28
2, 163004, Note_on_c, 0, 60, 0
2, 164217, Note_on_c, 0, 54, 25
2, 164234, Note_on_c, 0, 62, 19
2, 164345, Note_on_c, 0, 62, 0
2, 164359, Note_on_c, 0, 54, 0
2, 165678, Note_on_c, 0, 62, 20
2, 165696, Note_on_c, 0, 59, 30
2, 165697, Note_on_c, 0, 57, 30
2, 165705, Note_on_c, 0, 52, 17
2, 166691, Note_on_c, 0, 59, 0
2, 166941, Note_on_c, 0, 59, 27
2, 167141, Note_on_c, 0, 59, 0
2, 167210, Note_on_c, 0, 62, 0
2, 167331, Note_on_c, 0, 78, 60
2, 167403, Note_on_c, 0, 59, 36
2, 167532, Note_on_c, 0, 78, 0
2, 167555, Note_on_c, 0, 59, 0
2, 167691, Note_on_c, 0, 79, 65
2, 167740, Note_on_c, 0, 59, 35
2, 167849, Note_on_c, 0, 79, 0
2, 167917, Note_on_c, 0, 59, 0
2, 167976, Note_on_c, 0, 80, 55
2, 168063, Note_on_c, 0, 57, 0
2, 168156, Note_on_c, 0, 80, 0
2, 168286, Note_on_c, 0, 81, 58
2, 168409, Note_on_c, 0, 52, 0
2, 168433, Note_on_c, 0, 81, 0
2, 168603, Note_on_c, 0, 86, 68
2, 168756, Note_on_c, 0, 58, 35
2, 168761, Note_on_c, 0, 86, 0
2, 168765, Note_on_c, 0, 57, 1
2, 168789, Note_on_c, 0, 62, 22
2, 168841, Note_on_c, 0, 53, 14
2, 168902, Note_on_c, 0, 89, 70
2, 169114, Note_on_c, 0, 89, 0
2, 169200, Note_on_c, 0, 93, 81
2, 169337, Note_on_c, 0, 93, 0
2, 169471, Note_on_c, 0, 62, 0
2, 169493, Note_on_c, 0, 58, 0
2, 169594, Note_on_c, 0, 89, 73
2, 169725, Note_on_c, 0, 89, 0
2, 169890, Note_on_c, 0, 57, 0
2, 170080, Note_on_c, 0, 86, 64
2, 170220, Note_on_c, 0, 86, 0
2, 170326, Note_on_c, 0, 81, 38
2, 170451, Note_on_c, 0, 81, 0
2, 170624, Note_on_c, 0, 77, 51
2, 170748, Note_on_c, 0, 77, 0
2, 170793, Note_on_c, 0, 53, 0
2, 170841, Note_on_c, 0, 74, 43
2, 170915, Note_on_c, 0, 74, 0
2, 172092, Note_on_c, 0, 62, 24
2, 172107, Note_on_c, 0, 58, 36
2, 172125, Note_on_c, 0, 57, 19
2, 172202, Note_on_c, 0, 57, 0
2, 172209, Note_on_c, 0, 62, 0
2, 172234, Note_on_c, 0, 58, 0
2, 172772, Note_on_c, 0, 58, 33
2, 172784, Note_on_c, 0, 62, 33
2, 172874, Note_on_c, 0, 52, 19
2, 172922, Note_on_c, 0, 62, 0
2, 172939, Note_on_c, 0, 58, 0
2, 172940, Note_on_c, 0, 52, 0
2, 173486, Note_on_c, 0, 62, 32
2, 173544, Note_on_c, 0, 58, 18
2, 173628, Note_on_c, 0, 58, 0
2, 173634, Note_on_c, 0, 62, 0
2, 174153, Note_on_c, 0, 62, 35
2, 174186, Note_on_c, 0, 58, 33
2, 174214, Note_on_c, 0, 52, 26
2, 174294, Note_on_c, 0, 52, 0
2, 174303, Note_on_c, 0, 62, 0
2, 174329, Note_on_c, 0, 58, 0
2, 174711, Note_on_c, 0, 68, 79
2, 174909, Note_on_c, 0, 68, 0
2, 174992, Note_on_c, 0, 69, 71
2, 175066, Note_on_c, 0, 58, 33
2, 175093, Note_on_c, 0, 62, 22
2, 175141, Note_on_c, 0, 62, 0
2, 175162, Note_on_c, 0, 69, 0
2, 175172, Note_on_c, 0, 58, 0
2, 175430, Note_on_c, 0, 68, 64
2, 175691, Note_on_c, 0, 68, 0
2, 175888, Note_on_c, 0, 64, 41
2, 175924, Note_on_c, 0, 58, 34
2, 175960, Note_on_c, 0, 64, 0
2, 176087, Note_on_c, 0, 58, 0
2, 176090, Note_on_c, 0, 65, 54
2, 176345, Note_on_c, 0, 65, 0
2, 176365, Note_on_c, 0, 67, 56
2, 176464, Note_on_c, 0, 57, 29
2, 176506, Note_on_c, 0, 67, 0
2, 176574, Note_on_c, 0, 67, 54
2, 176577, Note_on_c, 0, 57, 0
2, 176923, Note_on_c, 0, 67, 0
2, 177064, Note_on_c, 0, 67, 40
2, 177284, Note_on_c, 0, 67, 0
2, 177537, Note_on_c, 0, 64, 37
2, 177758, Note_on_c, 0, 64, 0
2, 178519, Note_on_c, 0, 67, 30
2, 178529, Note_on_c, 0, 57, 33
2, 178532, Note_on_c, 0, 62, 36
2, 178675, Note_on_c, 0, 62, 0
2, 178684, Note_on_c, 0, 67, 0
2, 178716, Note_on_c, 0, 57, 0
2, 179241, Note_on_c, 0, 67, 26
2, 179247, Note_on_c, 0, 57, 29
2, 179248, Note_on_c, 0, 62, 31
2, 179332, Note_on_c, 0, 62, 0
2, 179426, Note_on_c, 0, 67, 0
2, 179582, Note_on_c, 0, 57, 0
2, 179917, Note_on_c, 0, 64, 28
2, 179920, Note_on_c, 0, 60, 30
2, 179928, Note_on_c, 0, 67, 30
2, 179934, Note_on_c, 0, 57, 31
2, 180904, Note_on_c, 0, 86, 71
2, 180939, Note_on_c, 0, 87, 71
2, 181020, Note_on_c, 0, 88, 60
2, 181047, Note_on_c, 0, 87, 0
2, 181116, Note_on_c, 0, 86, 0
2, 181200, Note_on_c, 0, 88, 0
2, 181285, Note_on_c, 0, 91, 89
2, 181443, Note_on_c, 0, 91, 0
2, 181619, Note_on_c, 0, 91, 94
2, 181846, Note_on_c, 0, 91, 0
2, 181906, Note_on_c, 0, 88, 69
2, 182065, Note_on_c, 0, 88, 0
2, 182262, Note_on_c, 0, 88, 80
2, 182471, Note_on_c, 0, 88, 0
2, 182701, Note_on_c, 0, 84, 71
2, 182867, Note_on_c, 0, 84, 0
2, 183123, Note_on_c, 0, 81, 61
2, 183255, Note_on_c, 0, 81, 0
2, 183396, Note_on_c, 0, 79, 39
2, 183574, Note_on_c, 0, 79, 0
2, 183628, Note_on_c, 0, 77, 47
2, 183718, Note_on_c, 0, 77, 0
2, 183789, Note_on_c, 0, 64, 0
2, 183811, Note_on_c, 0, 57, 0
2, 183868, Note_on_c, 0, 76, 20
2, 183896, Note_on_c, 0, 67, 0
2, 184053, Note_on_c, 0, 60, 0
2, 184088, Note_on_c, 0, 76, 0
2, 184093, Note_on_c, 0, 72, 37
2, 184223, Note_on_c, 0, 72, 0
2, 184273, Note_on_c, 0, 67, 22
2, 184288, Note_on_c, 0, 63, 28
2, 184300, Note_on_c, 0, 79, 50
2, 184324, Note_on_c, 0, 56, 36
2, 184329, Note_on_c, 0, 60, 25
2, 184529, Note_on_c, 0, 79, 0
2, 184625, Note_on_c, 0, 76, 42
2, 184696, Note_on_c, 0, 76, 0
2, 184805, Note_on_c, 0, 77, 52
2, 184836, Note_on_c, 0, 67, 0
2, 184837, Note_on_c, 0, 63, 0
2, 184957, Note_on_c, 0, 77, 0
2, 185085, Note_on_c, 0, 72, 48
2, 185130, Note_on_c, 0, 64, 26
2, 185263, Note_on_c, 0, 72, 0
2, 185329, Note_on_c, 0, 68, 43
2, 185512, Note_on_c, 0, 64, 0
2, 185514, Note_on_c, 0, 68, 0
2, 185666, Note_on_c, 0, 67, 34
2, 185742, Note_on_c, 0, 67, 0
2, 185807, Note_on_c, 0, 70, 45
2, 185971, Note_on_c, 0, 56, 0
2, 186031, Note_on_c, 0, 60, 0
2, 186081, Note_on_c, 0, 70, 0
2, 186197, Note_on_c, 0, 68, 42
2, 186622, Note_on_c, 0, 68, 0
2, 186675, Note_on_c, 0, 65, 35
2, 186773, Note_on_c, 0, 65, 0
2, 187434, Note_on_c, 0, 67, 32
2, 187462, Note_on_c, 0, 62, 30
2, 187538, Note_on_c, 0, 67, 0
2, 187543, Note_on_c, 0, 62, 0
2, 188080, Note_on_c, 0, 67, 35
2, 188117, Note_on_c, 0, 56, 25
2, 188126, Note_on_c, 0, 62, 30
2, 188192, Note_on_c, 0, 67, 0
2, 188196, Note_on_c, 0, 62, 0
2, 188220, Note_on_c, 0, 56, 0
2, 188565, Control_c, 0, 64, 127
2, 188672, Control_c, 0, 64, 0
2, 188820, Note_on_c, 0, 62, 35
2, 188845, Note_on_c, 0, 66, 31
2, 188863, Note_on_c, 0, 56, 32
2, 188973, Control_c, 0, 64, 127
2, 189125, Control_c, 0, 64, 0
2, 189360, Note_on_c, 0, 56, 0
2, 189364, Note_on_c, 0, 66, 0
2, 189456, Control_c, 0, 64, 127
2, 189505, Note_on_c, 0, 75, 61
2, 189505, Note_on_c, 0, 87, 64
2, 189510, Note_on_c, 0, 82, 59
2, 189513, Note_on_c, 0, 66, 52
2, 189521, Note_on_c, 0, 56, 42
2, 190065, Note_on_c, 0, 56, 0
2, 190074, Note_on_c, 0, 66, 0
2, 190101, Note_on_c, 0, 75, 0
2, 190130, Note_on_c, 0, 87, 0
2, 190137, Note_on_c, 0, 82, 0
2, 190142, Note_on_c, 0, 62, 0
2, 190214, Note_on_c, 0, 82, 60
2, 190215, Note_on_c, 0, 88, 71
2, 190227, Note_on_c, 0, 76, 64
2, 190229, Note_on_c, 0, 56, 59
2, 190242, Note_on_c, 0, 66, 53
2, 190248, Note_on_c, 0, 62, 51
2, 190691, Note_on_c, 0, 76, 0
2, 190718, Note_on_c, 0, 66, 0
2, 190719, Note_on_c, 0, 56, 0
2, 190782, Note_on_c, 0, 88, 0
2, 190785, Note_on_c, 0, 82, 0
2, 190824, Note_on_c, 0, 62, 0
2, 190948, Control_c, 0, 64, 0
2, 190964, Note_on_c, 0, 84, 73
2, 190966, Note_on_c, 0, 89, 73
2, 190970, Note_on_c, 0, 62, 60
2, 190976, Note_on_c, 0, 56, 60
2, 190978, Note_on_c, 0, 77, 67
2, 190981, Note_on_c, 0, 66, 64
2, 191175, Control_c, 0, 64, 127
2, 191385, Note_on_c, 0, 77, 0
2, 191423, Note_on_c, 0, 89, 0
2, 191450, Note_on_c, 0, 84, 0
2, 191494, Note_on_c, 0, 62, 0
2, 191495, Note_on_c, 0, 66, 0
2, 191513, Note_on_c, 0, 56, 0
2, 191718, Note_on_c, 0, 65, 48
2, 191734, Note_on_c, 0, 90, 53
2, 191740, Note_on_c, 0, 62, 34
2, 191749, Note_on_c, 0, 85, 59
2, 191760, Note_on_c, 0, 60, 27
2, 191766, Note_on_c, 0, 55, 39
2, 191777, Control_c, 0, 64, 0
2, 191780, Note_on_c, 0, 78, 34
2, 192283, Note_on_c, 0, 55, 0
2, 192300, Note_on_c, 0, 65, 0
2, 192309, Note_on_c, 0, 60, 0
2, 192313, Note_on_c, 0, 85, 0
2, 192315, Note_on_c, 0, 62, 0
2, 192332, Note_on_c, 0, 78, 0
2, 192335, Note_on_c, 0, 90, 0
2, 192486, Note_on_c, 0, 65, 24
2, 192495, Note_on_c, 0, 62, 36
2, 192504, Note_on_c, 0, 91, 45
2, 192513, Note_on_c, 0, 86, 38
2, 192520, Note_on_c, 0, 60, 30
2, 192533, Note_on_c, 0, 55, 24
2, 192590, Note_on_c, 0, 86, 0
2, 192593, Note_on_c, 0, 91, 0
2, 192632, Note_on_c, 0, 65, 0
2, 192655, Note_on_c, 0, 60, 0
2, 192658, Note_on_c, 0, 62, 0
2, 192692, Note_on_c, 0, 55, 0
2, 193265, Note_on_c, 0, 65, 40
2, 193278, Note_on_c, 0, 62, 34
2, 193287, Note_on_c, 0, 60, 32
2, 193392, Note_on_c, 0, 60, 0
2, 193410, Note_on_c, 0, 65, 0
2, 193417, Note_on_c, 0, 62, 0
2, 193741, Note_on_c, 0, 101, 80
2, 194138, Note_on_c, 0, 100, 57
2, 194189, Note_on_c, 0, 101, 0
2, 194243, Note_on_c, 0, 99, 56
2, 194297, Note_on_c, 0, 100, 0
2, 194309, Note_on_c, 0, 65, 30
2, 194409, Note_on_c, 0, 65, 0
2, 194436, Note_on_c, 0, 98, 50
2, 194494, Note_on_c, 0, 99, 0
2, 194606, Note_on_c, 0, 98, 0
2, 194774, Note_on_c, 0, 95, 31
2, 194872, Note_on_c, 0, 95, 0
2, 194959, Note_on_c, 0, 93, 28
2, 195118, Note_on_c, 0, 93, 0
2, 195207, Note_on_c, 0, 96, 67
2, 195293, Note_on_c, 0, 62, 32
2, 195305, Note_on_c, 0, 65, 24
2, 195341, Note_on_c, 0, 60, 22
2, 195370, Note_on_c, 0, 65, 0
2, 195416, Note_on_c, 0, 94, 42
2, 195419, Note_on_c, 0, 96, 0
2, 195427, Note_on_c, 0, 60, 0
2, 195431, Note_on_c, 0, 62, 0
2, 195640, Note_on_c, 0, 94, 0
2, 195891, Note_on_c, 0, 91, 47
2, 195897, Note_on_c, 0, 65, 34
2, 195923, Note_on_c, 0, 62, 24
2, 196051, Note_on_c, 0, 65, 0
2, 196055, Note_on_c, 0, 91, 0
2, 196063, Note_on_c, 0, 62, 0
2, 196349, Note_on_c, 0, 86, 50
2, 196499, Note_on_c, 0, 86, 0
2, 196801, Note_on_c, 0, 65, 26
2, 196833, Note_on_c, 0, 86, 40
2, 196863, Note_on_c, 0, 60, 17
2, 196967, Note_on_c, 0, 65, 0
2, 196986, Note_on_c, 0, 86, 0
2, 197018, Note_on_c, 0, 60, 0
2, 197134, Note_on_c, 0, 86, 43
2, 197230, Note_on_c, 0, 86, 0
2, 197553, Note_on_c, 0, 67, 49
2, 197556, Note_on_c, 0, 86, 49
2, 197559, Note_on_c, 0, 62, 43
2, 197603, Note_on_c, 0, 63, 25
2, 197605, Note_on_c, 0, 58, 25
2, 197681, Note_on_c, 0, 63, 0
2, 197692, Note_on_c, 0, 58, 0
2, 197714, Note_on_c, 0, 67, 0
2, 197726, Note_on_c, 0, 62, 0
2, 197731, Note_on_c, 0, 86, 0
2, 198429, Note_on_c, 0, 67, 38
2, 198453, Note_on_c, 0, 63, 34
2, 198465, Note_on_c, 0, 62, 24
2, 198502, Note_on_c, 0, 67, 0
2, 198534, Note_on_c, 0, 63, 0
2, 198581, Note_on_c, 0, 62, 0
2, 198666, Note_on_c, 0, 86, 88
2, 198856, Note_on_c, 0, 86, 0
2, 198975, Note_on_c, 0, 87, 47
2, 199048, Note_on_c, 0, 86, 60
2, 199128, Note_on_c, 0, 87, 0
2, 199202, Note_on_c, 0, 86, 0
2, 199208, Note_on_c, 0, 84, 40
2, 199363, Note_on_c, 0, 84, 0
2, 199462, Note_on_c, 0, 86, 59
2, 199495, Note_on_c, 0, 63, 40
2, 199518, Note_on_c, 0, 57, 33
2, 199561, Note_on_c, 0, 55, 20
2, 199593, Note_on_c, 0, 86, 0
2, 199656, Note_on_c, 0, 63, 0
2, 199698, Note_on_c, 0, 91, 90
2, 199704, Note_on_c, 0, 55, 0
2, 199845, Note_on_c, 0, 57, 0
2, 199900, Note_on_c, 0, 91, 0
2, 199954, Note_on_c, 0, 60, 27
2, 200103, Note_on_c, 0, 87, 62
2, 200115, Note_on_c, 0, 60, 0
2, 200288, Note_on_c, 0, 87, 0
2, 200375, Note_on_c, 0, 84, 64
2, 200438, Note_on_c, 0, 63, 36
2, 200513, Note_on_c, 0, 84, 0
2, 200616, Note_on_c, 0, 63, 0
2, 200664, Note_on_c, 0, 79, 26
2, 200801, Note_on_c, 0, 79, 0
2, 200889, Note_on_c, 0, 75, 50
2, 201088, Note_on_c, 0, 75, 0
2, 201177, Note_on_c, 0, 74, 19
2, 201295, Note_on_c, 0, 74, 0
2, 201423, Note_on_c, 0, 72, 33
2, 201497, Note_on_c, 0, 72, 0
2, 201509, Note_on_c, 0, 63, 34
2, 201528, Note_on_c, 0, 74, 64
2, 201604, Note_on_c, 0, 55, 16
2, 201605, Note_on_c, 0, 57, 28
2, 201715, Note_on_c, 0, 63, 0
2, 201813, Note_on_c, 0, 74, 0
2, 201889, Note_on_c, 0, 75, 46
2, 201904, Note_on_c, 0, 55, 0
2, 201932, Note_on_c, 0, 74, 57
2, 201983, Note_on_c, 0, 57, 0
2, 202016, Note_on_c, 0, 75, 0
2, 202040, Note_on_c, 0, 72, 29
2, 202085, Note_on_c, 0, 74, 0
2, 202291, Note_on_c, 0, 72, 0
2, 202389, Note_on_c, 0, 63, 36
2, 202390, Note_on_c, 0, 70, 48
2, 202414, Note_on_c, 0, 60, 24
2, 202547, Note_on_c, 0, 63, 0
2, 202593, Note_on_c, 0, 70, 0
2, 202807, Note_on_c, 0, 69, 28
2, 202893, Note_on_c, 0, 60, 0
2, 202902, Note_on_c, 0, 69, 0
2, 203234, Note_on_c, 0, 72, 55
2, 203402, Note_on_c, 0, 60, 20
2, 203422, Note_on_c, 0, 72, 0
2, 203499, Note_on_c, 0, 54, 25
2, 203521, Note_on_c, 0, 69, 34
2, 203615, Note_on_c, 0, 60, 0
2, 203720, Note_on_c, 0, 54, 0
2, 203799, Note_on_c, 0, 69, 0
2, 203960, Note_on_c, 0, 66, 30
2, 204233, Note_on_c, 0, 60, 30
2, 204249, Note_on_c, 0, 66, 0
2, 204284, Note_on_c, 0, 65, 55
2, 204311, Note_on_c, 0, 60, 0
2, 204687, Note_on_c, 0, 60, 28
2, 204770, Note_on_c, 0, 60, 0
2, 204918, Note_on_c, 0, 63, 46
2, 204970, Note_on_c, 0, 65, 0
2, 205094, Note_on_c, 0, 63, 0
2, 205388, Note_on_c, 0, 60, 46
2, 205419, Note_on_c, 0, 54, 30
2, 205547, Note_on_c, 0, 60, 0
2, 205600, Note_on_c, 0, 54, 0
2, 206186, Note_on_c, 0, 54, 38
2, 206203, Note_on_c, 0, 60, 32
2, 206389, Note_on_c, 0, 54, 0
2, 206395, Note_on_c, 0, 60, 0
2, 206836, Note_on_c, 0, 54, 42
2, 206841, Note_on_c, 0, 60, 30
2, 206991, Note_on_c, 0, 60, 0
2, 207129, Note_on_c, 0, 54, 0
2, 207373, Note_on_c, 0, 54, 25
2, 207385, Note_on_c, 0, 59, 31
2, 207908, Note_on_c, 0, 59, 0
2, 208293, Note_on_c, 0, 74, 96
2, 208955, Note_on_c, 0, 74, 0
2, 209048, Note_on_c, 0, 71, 68
2, 209164, Note_on_c, 0, 71, 0
2, 209292, Note_on_c, 0, 66, 38
2, 209533, Note_on_c, 0, 66, 0
2, 209730, Note_on_c, 0, 66, 55
2, 210104, Note_on_c, 0, 54, 0
2, 210146, Note_on_c, 0, 66, 0
2, 210204, Note_on_c, 0, 62, 34
2, 210411, Note_on_c, 0, 62, 0
2, 210500, Note_on_c, 0, 63, 39
2, 210644, Note_on_c, 0, 63, 0
2, 210682, Note_on_c, 0, 64, 34
2, 210858, Note_on_c, 0, 64, 0
2, 210995, Note_on_c, 0, 62, 36
2, 211001, Note_on_c, 0, 56, 39
2, 211073, Note_on_c, 0, 52, 24
2, 211688, Note_on_c, 0, 67, 52
2, 211789, Note_on_c, 0, 67, 0
2, 211902, Note_on_c, 0, 68, 31
2, 211957, Note_on_c, 0, 68, 0
2, 212037, Note_on_c, 0, 69, 44
2, 212141, Note_on_c, 0, 69, 0
2, 212942, Note_on_c, 0, 62, 0
2, 213069, Note_on_c, 0, 67, 34
2, 213175, Note_on_c, 0, 67, 0
2, 213228, Note_on_c, 0, 68, 55
2, 213305, Note_on_c, 0, 68, 0
2, 213392, Note_on_c, 0, 69, 47
2, 213466, Note_on_c, 0, 69, 0
2, 213514, Note_on_c, 0, 70, 59
2, 213591, Note_on_c, 0, 70, 0
2, 213684, Note_on_c, 0, 71, 44
2, 213756, Note_on_c, 0, 71, 0
2, 213785, Note_on_c, 0, 72, 28
2, 213909, Note_on_c, 0, 73, 48
2, 213930, Note_on_c, 0, 72, 0
2, 214042, Note_on_c, 0, 73, 0
2, 214048, Note_on_c, 0, 72, 44
2, 214182, Note_on_c, 0, 72, 0
2, 214185, Note_on_c, 0, 71, 61
2, 214327, Note_on_c, 0, 71, 0
2, 214392, Note_on_c, 0, 72, 32
2, 214433, Note_on_c, 0, 52, 0
2, 214454, Note_on_c, 0, 56, 0
2, 214537, Note_on_c, 0, 73, 58
2, 214594, Note_on_c, 0, 72, 0
2, 214652, Note_on_c, 0, 73, 0
2, 214702, Note_on_c, 0, 74, 42
2, 214881, Note_on_c, 0, 75, 42
2, 214977, Note_on_c, 0, 75, 0
2, 214988, Note_on_c, 0, 74, 0
2, 214994, Note_on_c, 0, 76, 59
2, 215155, Note_on_c, 0, 64, 33
2, 215168, Note_on_c, 0, 57, 33
2, 215213, Note_on_c, 0, 60, 29
2, 215237, Note_on_c, 0, 71, 66
2, 215239, Note_on_c, 0, 76, 0
2, 215555, Note_on_c, 0, 60, 0
2, 215556, Note_on_c, 0, 71, 0
2, 215576, Note_on_c, 0, 64, 0
2, 215669, Note_on_c, 0, 71, 62
2, 215759, Note_on_c, 0, 57, 0
2, 215893, Note_on_c, 0, 71, 0
2, 216013, Note_on_c, 0, 71, 63
2, 216075, Note_on_c, 0, 60, 24
2, 216239, Note_on_c, 0, 71, 0
2, 216307, Note_on_c, 0, 60, 0
2, 216368, Note_on_c, 0, 70, 50
2, 216507, Note_on_c, 0, 70, 0
2, 216574, Note_on_c, 0, 71, 56
2, 216796, Note_on_c, 0, 71, 0
2, 216854, Note_on_c, 0, 76, 63
2, 217002, Note_on_c, 0, 60, 19
2, 217051, Note_on_c, 0, 76, 0
2, 217069, Note_on_c, 0, 71, 45
2, 217181, Note_on_c, 0, 60, 0
2, 217376, Note_on_c, 0, 71, 0
2, 217525, Note_on_c, 0, 71, 40
2, 217677, Note_on_c, 0, 71, 0
2, 218283, Note_on_c, 0, 64, 32
2, 218336, Note_on_c, 0, 60, 24
2, 218345, Note_on_c, 0, 57, 28
2, 218409, Note_on_c, 0, 64, 0
2, 218418, Note_on_c, 0, 60, 0
2, 218450, Note_on_c, 0, 57, 0
2, 218954, Note_on_c, 0, 64, 16
2, 218957, Note_on_c, 0, 54, 25
2, 218958, Note_on_c, 0, 60, 25
2, 218982, Note_on_c, 0, 59, 26
2, 220322, Note_on_c, 0, 82, 56
2, 220455, Note_on_c, 0, 82, 0
2, 220589, Note_on_c, 0, 83, 58
2, 220680, Note_on_c, 0, 83, 0
2, 221028, Note_on_c, 0, 86, 82
2, 221144, Note_on_c, 0, 86, 0
2, 221440, Note_on_c, 0, 90, 77
2, 221583, Note_on_c, 0, 90, 0
2, 221688, Note_on_c, 0, 91, 74
2, 221843, Note_on_c, 0, 91, 0
2, 221969, Note_on_c, 0, 93, 85
2, 221992, Note_on_c, 0, 59, 0
2, 222066, Note_on_c, 0, 64, 0
2, 222067, Note_on_c, 0, 60, 0
2, 222130, Note_on_c, 0, 93, 0
2, 222254, Note_on_c, 0, 54, 0
2, 222332, Note_on_c, 0, 91, 80
2, 222491, Note_on_c, 0, 91, 0
2, 222642, Note_on_c, 0, 57, 29
2, 222646, Note_on_c, 0, 90, 64
2, 222649, Note_on_c, 0, 59, 25
2, 222819, Note_on_c, 0, 90, 0
2, 223042, Note_on_c, 0, 86, 44
2, 223197, Note_on_c, 0, 86, 0
2, 223440, Note_on_c, 0, 88, 62
2, 223473, Note_on_c, 0, 52, 28
2, 223619, Note_on_c, 0, 88, 0
2, 223729, Note_on_c, 0, 57, 0
2, 223765, Note_on_c, 0, 83, 30
2, 223863, Note_on_c, 0, 59, 0
2, 223905, Note_on_c, 0, 83, 0
2, 224103, Note_on_c, 0, 78, 48
2, 224308, Note_on_c, 0, 78, 0
2, 224421, Note_on_c, 0, 74, 34
2, 224589, Note_on_c, 0, 74, 0
2, 224904, Note_on_c, 0, 76, 48
2, 225105, Note_on_c, 0, 76, 0
2, 225359, Note_on_c, 0, 74, 38
2, 225465, Note_on_c, 0, 74, 0
2, 225597, Note_on_c, 0, 78, 40
2, 226017, Note_on_c, 0, 71, 50
2, 226120, Note_on_c, 0, 71, 0
2, 226131, Note_on_c, 0, 52, 0
2, 226347, Note_on_c, 0, 78, 0
2, 226558, Note_on_c, 0, 59, 19
2, 226567, Note_on_c, 0, 57, 22
2, 226674, Note_on_c, 0, 59, 0
2, 226707, Note_on_c, 0, 57, 0
2, 227349, Note_on_c, 0, 57, 24
2, 227439, Note_on_c, 0, 57, 0
2, 227951, Note_on_c, 0, 59, 30
2, 227958, Note_on_c, 0, 57, 30
2, 227964, Note_on_c, 0, 62, 13
2, 228444, Note_on_c, 0, 62, 0
2, 228455, Note_on_c, 0, 59, 0
2, 228495, Note_on_c, 0, 57, 0
2, 228680, Note_on_c, 0, 72, 77
2, 228737, Note_on_c, 0, 62, 28
2, 228781, Note_on_c, 0, 57, 15
2, 229067, Note_on_c, 0, 71, 54
2, 229125, Note_on_c, 0, 72, 0
2, 229210, Note_on_c, 0, 70, 51
2, 229211, Note_on_c, 0, 71, 0
2, 229325, Note_on_c, 0, 70, 0
2, 229504, Note_on_c, 0, 72, 78
2, 229522, Note_on_c, 0, 62, 0
2, 229774, Note_on_c, 0, 71, 38
2, 229849, Note_on_c, 0, 70, 55
2, 229862, Note_on_c, 0, 72, 0
2, 229885, Note_on_c, 0, 71, 0
2, 229974, Note_on_c, 0, 57, 0
2, 230050, Note_on_c, 0, 70, 0
2, 230088, Note_on_c, 0, 69, 35
2, 230219, Note_on_c, 0, 69, 0
2, 230314, Note_on_c, 0, 81, 78
2, 230327, Note_on_c, 0, 62, 39
2, 230335, Note_on_c, 0, 58, 42
2, 230363, Note_on_c, 0, 57, 35
2, 230369, Note_on_c, 0, 53, 24
2, 230804, Note_on_c, 0, 81, 0
2, 230902, Note_on_c, 0, 77, 48
2, 230920, Note_on_c, 0, 58, 0
2, 230960, Note_on_c, 0, 62, 0
2, 231047, Note_on_c, 0, 77, 0
2, 231049, Note_on_c, 0, 57, 0
2, 231324, Note_on_c, 0, 53, 0
2, 231414, Note_on_c, 0, 69, 20
2, 231478, Note_on_c, 0, 69, 0
2, 231790, Note_on_c, 0, 62, 31
2, 231828, Note_on_c, 0, 57, 27
2, 231831, Note_on_c, 0, 58, 33
2, 231935, Note_on_c, 0, 57, 0
2, 231948, Note_on_c, 0, 62, 0
2, 231959, Note_on_c, 0, 58, 0
2, 232554, Note_on_c, 0, 58, 29
2, 232556, Note_on_c, 0, 62, 22
2, 232580, Note_on_c, 0, 57, 24
2, 232673, Note_on_c, 0, 62, 0
2, 232690, Note_on_c, 0, 58, 0
2, 232702, Note_on_c, 0, 57, 0
2, 233225, Note_on_c, 0, 58, 35
2, 233228, Note_on_c, 0, 62, 22
2, 233240, Note_on_c, 0, 57, 30
2, 233466, Note_on_c, 0, 58, 0
2, 233488, Note_on_c, 0, 62, 0
2, 233507, Note_on_c, 0, 57, 0
2, 233932, Note_on_c, 0, 58, 43
2, 233940, Note_on_c, 0, 63, 42
2, 234132, Note_on_c, 0, 63, 0
2, 234147, Note_on_c, 0, 58, 0
2, 234634, Note_on_c, 0, 63, 46
2, 234653, Note_on_c, 0, 58, 44
2, 234699, Note_on_c, 0, 52, 29
2, 235180, Note_on_c, 0, 73, 69
2, 235821, Note_on_c, 0, 52, 0
2, 235869, Note_on_c, 0, 63, 0
2, 235913, Note_on_c, 0, 73, 0
2, 235916, Note_on_c, 0, 72, 54
2, 235925, Note_on_c, 0, 58, 0
2, 236023, Note_on_c, 0, 72, 0
2, 236107, Note_on_c, 0, 58, 21
2, 236111, Note_on_c, 0, 52, 20
2, 236134, Note_on_c, 0, 73, 56
2, 236403, Note_on_c, 0, 73, 0
2, 236591, Note_on_c, 0, 74, 76
2, 236672, Note_on_c, 0, 52, 0
2, 236712, Note_on_c, 0, 58, 0
2, 236748, Note_on_c, 0, 74, 0
2, 236872, Note_on_c, 0, 75, 57
2, 237023, Note_on_c, 0, 75, 0
2, 237091, Note_on_c, 0, 76, 43
2, 237160, Note_on_c, 0, 58, 26
2, 237169, Note_on_c, 0, 63, 9
2, 237170, Note_on_c, 0, 52, 28
2, 237298, Note_on_c, 0, 76, 0
2, 237333, Note_on_c, 0, 77, 65
2, 237451, Note_on_c, 0, 77, 0
2, 237507, Note_on_c, 0, 52, 0
2, 237563, Note_on_c, 0, 78, 32
2, 237588, Note_on_c, 0, 63, 0
2, 237597, Note_on_c, 0, 58, 0
2, 237766, Note_on_c, 0, 78, 0
2, 237874, Note_on_c, 0, 81, 80
2, 237913, Note_on_c, 0, 57, 36
2, 237922, Note_on_c, 0, 60, 32
2, 237928, Note_on_c, 0, 53, 22
2, 238152, Note_on_c, 0, 64, 1
2, 238163, Note_on_c, 0, 60, 0
2, 238175, Note_on_c, 0, 79, 28
2, 238214, Note_on_c, 0, 81, 0
2, 238345, Note_on_c, 0, 79, 0
2, 238497, Note_on_c, 0, 76, 62
2, 238531, Note_on_c, 0, 64, 0
2, 238677, Note_on_c, 0, 76, 0
2, 238781, Note_on_c, 0, 72, 51
2, 238975, Note_on_c, 0, 72, 0
2, 239040, Note_on_c, 0, 69, 32
2, 239166, Note_on_c, 0, 69, 0
2, 239283, Note_on_c, 0, 67, 55
2, 239411, Note_on_c, 0, 67, 0
2, 239429, Note_on_c, 0, 57, 0
2, 239449, Note_on_c, 0, 53, 0
2, 239498, Note_on_c, 0, 65, 24
2, 239739, Note_on_c, 0, 65, 0
2, 239747, Note_on_c, 0, 64, 49
2, 239808, Note_on_c, 0, 64, 0
2, 239956, Note_on_c, 0, 62, 24
2, 239962, Note_on_c, 0, 57, 35
2, 239966, Note_on_c, 0, 52, 27
2, 239981, Note_on_c, 0, 69, 34
2, 240136, Note_on_c, 0, 62, 0
2, 240281, Note_on_c, 0, 69, 0
2, 240348, Note_on_c, 0, 52, 0
2, 240366, Note_on_c, 0, 64, 42
2, 240484, Note_on_c, 0, 57, 0
2, 240640, Note_on_c, 0, 64, 0
2, 240688, Note_on_c, 0, 67, 51
2, 240721, Note_on_c, 0, 57, 33
2, 240867, Note_on_c, 0, 57, 0
2, 240884, Note_on_c, 0, 67, 0
2, 240980, Note_on_c, 0, 62, 17
2, 241381, Note_on_c, 0, 62, 0
2, 241387, Note_on_c, 0, 64, 54
2, 241673, Note_on_c, 0, 64, 0
2, 241857, Note_on_c, 0, 57, 42
2, 242225, Note_on_c, 0, 57, 0
2, 242344, Note_on_c, 0, 57, 37
2, 242440, Note_on_c, 0, 57, 0
2, 242836, Note_on_c, 0, 62, 48
2, 242879, Note_on_c, 0, 52, 31
2, 242906, Note_on_c, 0, 57, 27
2, 242937, Note_on_c, 0, 62, 0
2, 242965, Note_on_c, 0, 52, 0
2, 242968, Note_on_c, 0, 57, 0
2, 243353, Note_on_c, 0, 62, 48
2, 243362, Note_on_c, 0, 52, 42
2, 243380, Note_on_c, 0, 57, 39
2, 243449, Note_on_c, 0, 62, 0
2, 243455, Note_on_c, 0, 57, 0
2, 243516, Note_on_c, 0, 52, 0
2, 244074, Note_on_c, 0, 62, 33
2, 244105, Note_on_c, 0, 57, 29
2, 244156, Note_on_c, 0, 62, 0
2, 244192, Note_on_c, 0, 57, 0
2, 244732, Note_on_c, 0, 62, 52
2, 244747, Note_on_c, 0, 57, 41
2, 244776, Note_on_c, 0, 52, 29
2, 244829, Note_on_c, 0, 62, 0
2, 244832, Note_on_c, 0, 57, 0
2, 244860, Note_on_c, 0, 52, 0
2, 245229, Note_on_c, 0, 79, 92
2, 245415, Note_on_c, 0, 79, 0
2, 245490, Note_on_c, 0, 77, 55
2, 245675, Note_on_c, 0, 64, 32
2, 245701, Note_on_c, 0, 77, 0
2, 245702, Note_on_c, 0, 60, 32
2, 245737, Note_on_c, 0, 72, 49
2, 246038, Note_on_c, 0, 68, 42
2, 246056, Note_on_c, 0, 72, 0
2, 246173, Note_on_c, 0, 68, 0
2, 246241, Note_on_c, 0, 67, 24
2, 246283, Note_on_c, 0, 64, 0
2, 246360, Note_on_c, 0, 60, 0
2, 246512, Note_on_c, 0, 67, 0
2, 246706, Note_on_c, 0, 70, 64
2, 247100, Note_on_c, 0, 70, 0
2, 247182, Note_on_c, 0, 67, 54
2, 247411, Note_on_c, 0, 67, 0
2, 247661, Note_on_c, 0, 68, 54
2, 247670, Note_on_c, 0, 60, 30
2, 247674, Note_on_c, 0, 56, 28
2, 247686, Note_on_c, 0, 64, 18
2, 247963, Note_on_c, 0, 56, 0
2, 248016, Note_on_c, 0, 68, 0
2, 248140, Note_on_c, 0, 70, 63
2, 248143, Note_on_c, 0, 64, 0
2, 248195, Note_on_c, 0, 60, 0
2, 248402, Note_on_c, 0, 70, 0
2, 248438, Note_on_c, 0, 67, 56
2, 248510, Note_on_c, 0, 60, 28
2, 248519, Note_on_c, 0, 64, 22
2, 248527, Note_on_c, 0, 56, 32
2, 248668, Note_on_c, 0, 64, 0
2, 248798, Note_on_c, 0, 56, 0
2, 248810, Note_on_c, 0, 67, 0
2, 248820, Note_on_c, 0, 60, 0
2, 248932, Note_on_c, 0, 68, 57
2, 249295, Note_on_c, 0, 68, 0
2, 249362, Note_on_c, 0, 70, 69
2, 249384, Note_on_c, 0, 60, 36
2, 249396, Note_on_c, 0, 56, 49
2, 249405, Note_on_c, 0, 50, 29
2, 250232, Note_on_c, 0, 60, 0
2, 250422, Note_on_c, 0, 70, 0
2, 250494, Note_on_c, 0, 67, 51
2, 250502, Note_on_c, 0, 60, 25
2, 250765, Note_on_c, 0, 67, 0
2, 250809, Note_on_c, 0, 68, 55
2, 250981, Note_on_c, 0, 50, 0
2, 250995, Note_on_c, 0, 56, 0
2, 251048, Note_on_c, 0, 70, 59
2, 251055, Note_on_c, 0, 68, 0
2, 251111, Note_on_c, 0, 60, 0
2, 251228, Note_on_c, 0, 70, 0
2, 251263, Note_on_c, 0, 71, 80
2, 251443, Note_on_c, 0, 71, 0
2, 251467, Note_on_c, 0, 59, 32
2, 251472, Note_on_c, 0, 53, 28
2, 251490, Note_on_c, 0, 72, 64
2, 251672, Note_on_c, 0, 72, 0
2, 251741, Note_on_c, 0, 73, 62
2, 251884, Note_on_c, 0, 73, 0
2, 251974, Note_on_c, 0, 74, 49
2, 251985, Note_on_c, 0, 53, 0
2, 252122, Note_on_c, 0, 74, 0
2, 252231, Note_on_c, 0, 77, 67
2, 252296, Note_on_c, 0, 63, 40
2, 252368, Note_on_c, 0, 77, 0
2, 252493, Note_on_c, 0, 63, 0
2, 252502, Note_on_c, 0, 74, 29
2, 252567, Note_on_c, 0, 53, 9
2, 252649, Note_on_c, 0, 74, 0
2, 252702, Note_on_c, 0, 75, 56
2, 252813, Note_on_c, 0, 75, 0
2, 252869, Note_on_c, 0, 59, 0
2, 252878, Note_on_c, 0, 53, 0
2, 252937, Note_on_c, 0, 77, 19
2, 253095, Note_on_c, 0, 77, 0
2, 253236, Note_on_c, 0, 81, 26
2, 253326, Note_on_c, 0, 81, 0
2, 253422, Note_on_c, 0, 83, 65
2, 253644, Note_on_c, 0, 83, 0
2, 253708, Note_on_c, 0, 86, 68
2, 253817, Note_on_c, 0, 86, 0
2, 253907, Note_on_c, 0, 86, 68
2, 254095, Note_on_c, 0, 86, 0
2, 254211, Note_on_c, 0, 86, 71
2, 254260, Note_on_c, 0, 64, 36
2, 254266, Note_on_c, 0, 67, 33
2, 254269, Note_on_c, 0, 62, 38
2, 254370, Note_on_c, 0, 86, 0
2, 254457, Note_on_c, 0, 86, 49
2, 254496, Note_on_c, 0, 62, 0
2, 254504, Note_on_c, 0, 64, 0
2, 254505, Note_on_c, 0, 84, 35
2, 254567, Note_on_c, 0, 84, 0
2, 254755, Note_on_c, 0, 86, 0
2, 254841, Note_on_c, 0, 67, 0
2, 254851, Note_on_c, 0, 83, 54
2, 255018, Note_on_c, 0, 83, 0
2, 255133, Note_on_c, 0, 86, 69
2, 255152, Note_on_c, 0, 74, 51
2, 255212, Note_on_c, 0, 64, 16
2, 255238, Note_on_c, 0, 62, 22
2, 255254, Note_on_c, 0, 86, 0
2, 255256, Note_on_c, 0, 74, 0
2, 255339, Note_on_c, 0, 86, 44
2, 255361, Note_on_c, 0, 74, 41
2, 255408, Note_on_c, 0, 62, 0
2, 255460, Note_on_c, 0, 64, 0
2, 255665, Note_on_c, 0, 74, 0
2, 255680, Note_on_c, 0, 64, 20
2, 255700, Note_on_c, 0, 86, 0
2, 255808, Note_on_c, 0, 83, 49
2, 255841, Note_on_c, 0, 64, 0
2, 255984, Note_on_c, 0, 83, 0
2, 256098, Note_on_c, 0, 86, 70
2, 256112, Note_on_c, 0, 67, 39
2, 256115, Note_on_c, 0, 74, 62
2, 256143, Note_on_c, 0, 64, 32
2, 256184, Note_on_c, 0, 67, 0
2, 256208, Note_on_c, 0, 86, 0
2, 256230, Note_on_c, 0, 74, 0
2, 256294, Note_on_c, 0, 86, 58
2, 256319, Note_on_c, 0, 74, 34
2, 256418, Note_on_c, 0, 62, 1
2, 256497, Note_on_c, 0, 64, 0
2, 256585, Note_on_c, 0, 62, 0
2, 256624, Note_on_c, 0, 74, 0
2, 256661, Note_on_c, 0, 86, 0
2, 256784, Note_on_c, 0, 83, 57
2, 256976, Note_on_c, 0, 83, 0
2, 257056, Note_on_c, 0, 86, 68
2, 257068, Note_on_c, 0, 54, 48
2, 257074, Note_on_c, 0, 60, 42
2, 257076, Note_on_c, 0, 74, 57
2, 257085, Note_on_c, 0, 64, 30
2, 257249, Note_on_c, 0, 86, 0
2, 257276, Note_on_c, 0, 74, 0
2, 257348, Note_on_c, 0, 86, 62
2, 257363, Note_on_c, 0, 74, 24
2, 257419, Control_c, 0, 64, 127
2, 257464, Control_c, 0, 64, 0
2, 257601, Control_c, 0, 64, 127
2, 257638, Note_on_c, 0, 74, 0
2, 257691, Note_on_c, 0, 64, 0
2, 257692, Note_on_c, 0, 86, 0
2, 257790, Note_on_c, 0, 83, 49
2, 257942, Note_on_c, 0, 54, 0
2, 257948, Note_on_c, 0, 60, 0
2, 257956, Note_on_c, 0, 83, 0
2, 258059, Note_on_c, 0, 86, 71
2, 258071, Note_on_c, 0, 54, 46
2, 258073, Note_on_c, 0, 60, 36
2, 258074, Note_on_c, 0, 74, 64
2, 258079, Note_on_c, 0, 64, 40
2, 258097, Control_c, 0, 64, 0
2, 258115, Note_on_c, 0, 59, 55
2, 258208, Note_on_c, 0, 74, 0
2, 258228, Note_on_c, 0, 86, 0
2, 258313, Note_on_c, 0, 86, 39
2, 258341, Note_on_c, 0, 74, 37
2, 258565, Note_on_c, 0, 74, 0
2, 258617, Note_on_c, 0, 86, 0
2, 258709, Note_on_c, 0, 83, 57
2, 258715, Control_c, 0, 64, 127
2, 258805, Control_c, 0, 64, 0
2, 258823, Note_on_c, 0, 59, 0
2, 258838, Note_on_c, 0, 64, 0
2, 258852, Note_on_c, 0, 83, 0
2, 258894, Note_on_c, 0, 60, 0
2, 258912, Note_on_c, 0, 54, 0
2, 259171, Note_on_c, 0, 64, 37
2, 259172, Note_on_c, 0, 60, 37
2, 259184, Note_on_c, 0, 86, 67
2, 259193, Note_on_c, 0, 74, 60
2, 259234, Note_on_c, 0, 64, 0
2, 259243, Note_on_c, 0, 60, 0
2, 259249, Note_on_c, 0, 74, 0
2, 259291, Note_on_c, 0, 86, 0
2, 259681, Note_on_c, 0, 88, 74
2, 259682, Note_on_c, 0, 64, 57
2, 259684, Note_on_c, 0, 60, 53
2, 259694, Note_on_c, 0, 76, 67
2, 259732, Note_on_c, 0, 64, 0
2, 259747, Note_on_c, 0, 60, 0
2, 259753, Note_on_c, 0, 76, 0
2, 259796, Note_on_c, 0, 88, 0
2, 260157, Note_on_c, 0, 64, 57
2, 260165, Note_on_c, 0, 60, 46
2, 260172, Note_on_c, 0, 84, 67
2, 260174, Note_on_c, 0, 86, 66
2, 260178, Note_on_c, 0, 54, 53
2, 260183, Note_on_c, 0, 72, 56
2, 260196, Note_on_c, 0, 59, 35
2, 260225, Note_on_c, 0, 86, 0
2, 260524, Control_c, 0, 64, 127
2, 260536, Note_on_c, 0, 72, 0
2, 260664, Note_on_c, 0, 81, 54
2, 260693, Note_on_c, 0, 59, 0
2, 260818, Note_on_c, 0, 60, 0
2, 260824, Note_on_c, 0, 64, 0
2, 260867, Note_on_c, 0, 81, 0
2, 260876, Note_on_c, 0, 84, 0
2, 260896, Note_on_c, 0, 54, 0
2, 260917, Control_c, 0, 64, 0
2, 262076, Note_on_c, 0, 63, 36
2, 262084, Note_on_c, 0, 60, 39
2, 262092, Note_on_c, 0, 54, 40
2, 262803, Note_on_c, 0, 87, 74
2, 263066, Note_on_c, 0, 86, 50
2, 263146, Note_on_c, 0, 87, 0
2, 263201, Note_on_c, 0, 85, 55
2, 263206, Note_on_c, 0, 86, 0
2, 263319, Note_on_c, 0, 84, 46
2, 263331, Note_on_c, 0, 85, 0
2, 263355, Note_on_c, 0, 63, 0
2, 263383, Note_on_c, 0, 84, 0
2, 263501, Note_on_c, 0, 84, 71
2, 263726, Note_on_c, 0, 83, 64
2, 263796, Note_on_c, 0, 84, 0
2, 263847, Note_on_c, 0, 82, 45
2, 263889, Note_on_c, 0, 83, 0
2, 263990, Note_on_c, 0, 81, 65
2, 264056, Note_on_c, 0, 82, 0
2, 264135, Note_on_c, 0, 81, 0
2, 264375, Note_on_c, 0, 60, 0
2, 264472, Note_on_c, 0, 63, 42
2, 264480, Note_on_c, 0, 80, 54
2, 264542, Note_on_c, 0, 80, 0
2, 264593, Note_on_c, 0, 63, 0
2, 264653, Note_on_c, 0, 54, 0
2, 264927, Note_on_c, 0, 57, 38
2, 264930, Note_on_c, 0, 79, 66
2, 264951, Note_on_c, 0, 55, 40
2, 264955, Note_on_c, 0, 60, 37
2, 264969, Note_on_c, 0, 65, 18
2, 265470, Note_on_c, 0, 60, 0
2, 265500, Note_on_c, 0, 79, 0
2, 265651, Note_on_c, 0, 60, 30
2, 265894, Note_on_c, 0, 75, 52
2, 265916, Note_on_c, 0, 65, 0
2, 265925, Note_on_c, 0, 60, 0
2, 266037, Note_on_c, 0, 75, 0
2, 266160, Note_on_c, 0, 76, 72
2, 266336, Note_on_c, 0, 76, 0
2, 266485, Note_on_c, 0, 57, 0
2, 266507, Note_on_c, 0, 55, 0
2, 266644, Note_on_c, 0, 71, 80
2, 266761, Note_on_c, 0, 71, 0
2, 267079, Note_on_c, 0, 67, 52
2, 267202, Note_on_c, 0, 67, 0
2, 267322, Note_on_c, 0, 65, 34
2, 267518, Note_on_c, 0, 65, 0
2, 267596, Note_on_c, 0, 62, 52
2, 267629, Note_on_c, 0, 50, 24
2, 267730, Note_on_c, 0, 62, 0
2, 267768, Note_on_c, 0, 50, 0
2, 267778, Note_on_c, 0, 63, 35
2, 267855, Note_on_c, 0, 53, 16
2, 267901, Note_on_c, 0, 63, 0
2, 267915, Note_on_c, 0, 64, 47
2, 268065, Note_on_c, 0, 64, 0
2, 268193, Note_on_c, 0, 50, 32
2, 268270, Note_on_c, 0, 63, 56
2, 268342, Note_on_c, 0, 50, 0
2, 268395, Note_on_c, 0, 63, 0
2, 268423, Note_on_c, 0, 64, 45
2, 268622, Note_on_c, 0, 53, 0
2, 268650, Note_on_c, 0, 64, 0
2, 268754, Note_on_c, 0, 62, 46
2, 269442, Note_on_c, 0, 62, 0
2, 269684, Note_on_c, 0, 59, 29
2, 269995, Note_on_c, 0, 50, 26
2, 270096, Note_on_c, 0, 50, 0
2, 270132, Note_on_c, 0, 59, 0
2, 270160, Note_on_c, 0, 55, 35
2, 271574, Control_c, 0, 64, 127
2, 271726, Note_on_c, 0, 55, 0
2, 272623, Note_on_c, 0, 56, 52
2, 272629, Control_c, 0, 64, 0
2, 272669, Note_on_c, 0, 52, 29
2, 272931, Note_on_c, 0, 64, 53
2, 273068, Note_on_c, 0, 64, 0
2, 273168, Note_on_c, 0, 66, 53
2, 273232, Note_on_c, 0, 66, 0
2, 273328, Note_on_c, 0, 65, 52
2, 273393, Note_on_c, 0, 65, 0
2, 273508, Note_on_c, 0, 68, 40
2, 273566, Note_on_c, 0, 68, 0
2, 273656, Note_on_c, 0, 67, 45
2, 273723, Note_on_c, 0, 67, 0
2, 273838, Note_on_c, 0, 68, 34
2, 273964, Note_on_c, 0, 68, 0
2, 274214, Note_on_c, 0, 65, 32
2, 274284, Note_on_c, 0, 65, 0
2, 274357, Note_on_c, 0, 68, 51
2, 274412, Note_on_c, 0, 68, 0
2, 274498, Note_on_c, 0, 67, 60
2, 274584, Note_on_c, 0, 67, 0
2, 274894, Note_on_c, 0, 70, 51
2, 275024, Note_on_c, 0, 70, 0
2, 275415, Note_on_c, 0, 69, 58
2, 275536, Note_on_c, 0, 69, 0
2, 275582, Note_on_c, 0, 70, 49
2, 275677, Note_on_c, 0, 70, 0
2, 275772, Note_on_c, 0, 69, 30
2, 275867, Note_on_c, 0, 69, 0
2, 275909, Note_on_c, 0, 52, 0
2, 275936, Note_on_c, 0, 56, 0
2, 276127, Note_on_c, 0, 72, 48
2, 276283, Note_on_c, 0, 74, 51
2, 276288, Note_on_c, 0, 72, 0
2, 276483, Note_on_c, 0, 64, 26
2, 276489, Note_on_c, 0, 57, 32
2, 276510, Note_on_c, 0, 71, 61
2, 276521, Note_on_c, 0, 74, 0
2, 276534, Note_on_c, 0, 64, 0
2, 276593, Note_on_c, 0, 57, 0
2, 276665, Note_on_c, 0, 71, 0
2, 277519, Note_on_c, 0, 83, 71
2, 277764, Note_on_c, 0, 83, 0
2, 277805, Note_on_c, 0, 86, 70
2, 277995, Note_on_c, 0, 84, 58
2, 278025, Note_on_c, 0, 86, 0
2, 278189, Note_on_c, 0, 84, 0
2, 278456, Note_on_c, 0, 80, 46
2, 278459, Note_on_c, 0, 64, 27
2, 278474, Note_on_c, 0, 60, 35
2, 278478, Note_on_c, 0, 59, 36
2, 278555, Note_on_c, 0, 60, 0
2, 278563, Note_on_c, 0, 64, 0
2, 278567, Note_on_c, 0, 59, 0
2, 278723, Note_on_c, 0, 80, 0
2, 278778, Note_on_c, 0, 83, 57
2, 278979, Note_on_c, 0, 81, 36
2, 278987, Note_on_c, 0, 83, 0
2, 279181, Note_on_c, 0, 81, 0
2, 279447, Note_on_c, 0, 76, 55
2, 279473, Note_on_c, 0, 64, 32
2, 279474, Note_on_c, 0, 60, 32
2, 279496, Note_on_c, 0, 59, 26
2, 279562, Note_on_c, 0, 64, 0
2, 279599, Note_on_c, 0, 60, 0
2, 279620, Note_on_c, 0, 59, 0
2, 279676, Note_on_c, 0, 76, 0
2, 280190, Note_on_c, 0, 73, 44
2, 280326, Note_on_c, 0, 73, 0
2, 280370, Note_on_c, 0, 60, 49
2, 280380, Note_on_c, 0, 64, 46
2, 280393, Note_on_c, 0, 54, 39
2, 280396, Note_on_c, 0, 76, 68
2, 280450, Note_on_c, 0, 64, 0
2, 280484, Note_on_c, 0, 60, 0
2, 280505, Note_on_c, 0, 54, 0
2, 280646, Note_on_c, 0, 76, 0
2, 280699, Note_on_c, 0, 73, 38
2, 280807, Note_on_c, 0, 73, 0
2, 280891, Note_on_c, 0, 75, 70
2, 281198, Note_on_c, 0, 75, 0
2, 281201, Note_on_c, 0, 73, 33
2, 281343, Note_on_c, 0, 73, 0
2, 281410, Note_on_c, 0, 74, 60
2, 281709, Note_on_c, 0, 74, 0
2, 281856, Note_on_c, 0, 60, 35
2, 281972, Note_on_c, 0, 60, 0
2, 282390, Note_on_c, 0, 69, 27
2, 282521, Note_on_c, 0, 69, 0
2, 283099, Note_on_c, 0, 69, 34
2, 283265, Note_on_c, 0, 69, 0
2, 284256, Note_on_c, 0, 57, 29
2, 284274, Note_on_c, 0, 62, 18
2, 284389, Note_on_c, 0, 57, 0
2, 284407, Note_on_c, 0, 62, 0
2, 284966, Note_on_c, 0, 57, 33
2, 284986, Note_on_c, 0, 62, 16
2, 284996, Note_on_c, 0, 59, 26
2, 285065, Note_on_c, 0, 59, 0
2, 285099, Note_on_c, 0, 57, 0
2, 285106, Note_on_c, 0, 62, 0
2, 285625, Note_on_c, 0, 62, 29
2, 285657, Note_on_c, 0, 59, 31
2, 285659, Note_on_c, 0, 57, 30
2, 285743, Note_on_c, 0, 59, 0
2, 285771, Note_on_c, 0, 57, 0
2, 285779, Note_on_c, 0, 62, 0
2, 286155, Note_on_c, 0, 76, 74
2, 286362, Note_on_c, 0, 76, 0
2, 286419, Note_on_c, 0, 79, 68
2, 286614, Note_on_c, 0, 78, 58
2, 286678, Note_on_c, 0, 79, 0
2, 286872, Note_on_c, 0, 78, 0
2, 287083, Note_on_c, 0, 74, 38
2, 287375, Note_on_c, 0, 74, 0
2, 288020, Note_on_c, 0, 57, 34
2, 288023, Note_on_c, 0, 62, 26
2, 288029, Note_on_c, 0, 59, 31
2, 288093, Note_on_c, 0, 59, 0
2, 288102, Note_on_c, 0, 57, 0
2, 288103, Note_on_c, 0, 62, 0
2, 288773, Note_on_c, 0, 62, 32
2, 288786, Note_on_c, 0, 59, 41
2, 288788, Note_on_c, 0, 57, 37
2, 288838, Note_on_c, 0, 62, 0
2, 288850, Note_on_c, 0, 59, 0
2, 288863, Note_on_c, 0, 57, 0
2, 288982, Note_on_c, 0, 76, 64
2, 289208, Note_on_c, 0, 76, 0
2, 289267, Note_on_c, 0, 79, 74
2, 289471, Note_on_c, 0, 78, 52
2, 289535, Note_on_c, 0, 79, 0
2, 289647, Note_on_c, 0, 78, 0
2, 289735, Note_on_c, 0, 74, 68
2, 289844, Note_on_c, 0, 74, 0
2, 289941, Note_on_c, 0, 71, 41
2, 290237, Note_on_c, 0, 71, 0
2, 290753, Note_on_c, 0, 59, 42
2, 290756, Note_on_c, 0, 62, 30
2, 290770, Note_on_c, 0, 57, 30
2, 290812, Note_on_c, 0, 62, 0
2, 290815, Note_on_c, 0, 59, 0
2, 290837, Note_on_c, 0, 57, 0
2, 290905, Note_on_c, 0, 66, 72
2, 291152, Note_on_c, 0, 66, 0
2, 291221, Note_on_c, 0, 57, 34
2, 291228, Note_on_c, 0, 62, 38
2, 291338, Note_on_c, 0, 57, 0
2, 291367, Note_on_c, 0, 62, 0
2, 291399, Note_on_c, 0, 63, 40
2, 291569, Note_on_c, 0, 63, 0
2, 291692, Note_on_c, 0, 64, 76
2, 291711, Note_on_c, 0, 58, 51
2, 291745, Note_on_c, 0, 57, 34
2, 291817, Note_on_c, 0, 64, 0
2, 291849, Note_on_c, 0, 58, 0
2, 291850, Note_on_c, 0, 57, 0
2, 291901, Note_on_c, 0, 65, 87
2, 292198, Note_on_c, 0, 58, 20
2, 292206, Note_on_c, 0, 65, 0
2, 292208, Note_on_c, 0, 64, 69
2, 292257, Note_on_c, 0, 58, 0
2, 292322, Note_on_c, 0, 64, 0
2, 292396, Note_on_c, 0, 65, 57
2, 292648, Note_on_c, 0, 65, 0
2, 292651, Note_on_c, 0, 58, 25
2, 292655, Note_on_c, 0, 63, 54
2, 292703, Note_on_c, 0, 63, 0
2, 292725, Note_on_c, 0, 64, 36
2, 292817, Note_on_c, 0, 58, 0
2, 292861, Note_on_c, 0, 65, 57
2, 292897, Note_on_c, 0, 64, 0
2, 293130, Note_on_c, 0, 67, 71
2, 293132, Note_on_c, 0, 65, 0
2, 293143, Note_on_c, 0, 58, 30
2, 293225, Note_on_c, 0, 58, 0
2, 293324, Note_on_c, 0, 65, 44
2, 293394, Note_on_c, 0, 67, 0
2, 293658, Note_on_c, 0, 65, 0
2, 293779, Note_on_c, 0, 64, 44
2, 295470, Note_on_c, 0, 58, 33
2, 295527, Note_on_c, 0, 58, 0
2, 295594, Note_on_c, 0, 64, 0
2, 295699, Note_on_c, 0, 63, 40
2, 295964, Note_on_c, 0, 63, 0
2, 295979, Note_on_c, 0, 64, 45
2, 296100, Note_on_c, 0, 64, 0
2, 296173, Note_on_c, 0, 72, 48
2, 296400, Note_on_c, 0, 72, 0
2, 296649, Note_on_c, 0, 63, 42
2, 296918, Note_on_c, 0, 64, 57
2, 296945, Note_on_c, 0, 63, 0
2, 296966, Note_on_c, 0, 64, 0
2, 296978, Note_on_c, 0, 58, 26
2, 297058, Note_on_c, 0, 58, 0
2, 297110, Note_on_c, 0, 75, 70
2, 297273, Note_on_c, 0, 75, 0
2, 297599, Note_on_c, 0, 63, 34
2, 297782, Note_on_c, 0, 63, 0
2, 298374, Note_on_c, 0, 62, 44
2, 298379, Note_on_c, 0, 58, 46
2, 298426, Note_on_c, 0, 62, 0
2, 298478, Note_on_c, 0, 58, 0
2, 299525, Note_on_c, 0, 67, 94
2, 301203, Note_on_c, 0, 66, 53
2, 301244, Note_on_c, 0, 67, 0
2, 301282, Note_on_c, 0, 65, 53
2, 301377, Note_on_c, 0, 66, 0
2, 301457, Note_on_c, 0, 64, 44
2, 301460, Note_on_c, 0, 65, 0
2, 301679, Note_on_c, 0, 64, 0
2, 301734, Note_on_c, 0, 67, 59
2, 301966, Note_on_c, 0, 67, 0
2, 301999, Note_on_c, 0, 64, 11
2, 302148, Note_on_c, 0, 64, 0
2, 302202, Note_on_c, 0, 65, 60
2, 302261, Note_on_c, 0, 67, 29
2, 302317, Note_on_c, 0, 67, 0
2, 302405, Note_on_c, 0, 65, 0
2, 302433, Note_on_c, 0, 64, 53
2, 302877, Note_on_c, 0, 64, 0
2, 302917, Note_on_c, 0, 60, 49
2, 302979, Note_on_c, 0, 60, 0
2, 303682, Note_on_c, 0, 67, 42
2, 303704, Note_on_c, 0, 57, 35
2, 303712, Note_on_c, 0, 62, 47
2, 303777, Note_on_c, 0, 62, 0
2, 303796, Note_on_c, 0, 57, 0
2, 303803, Note_on_c, 0, 67, 0
2, 304347, Note_on_c, 0, 67, 39
2, 304363, Note_on_c, 0, 62, 43
2, 304402, Note_on_c, 0, 57, 25
2, 304462, Note_on_c, 0, 62, 0
2, 304464, Note_on_c, 0, 57, 0
2, 304471, Note_on_c, 0, 67, 0
2, 305101, Note_on_c, 0, 67, 36
2, 305112, Note_on_c, 0, 62, 37
2, 305116, Note_on_c, 0, 57, 33
2, 305178, Note_on_c, 0, 67, 0
2, 305197, Note_on_c, 0, 62, 0
2, 305238, Note_on_c, 0, 57, 0
2, 305742, Note_on_c, 0, 67, 39
2, 305753, Note_on_c, 0, 62, 43
2, 305809, Note_on_c, 0, 67, 0
2, 305878, Note_on_c, 0, 62, 0
2, 306248, Note_on_c, 0, 90, 74
2, 306250, Note_on_c, 0, 78, 80
2, 306269, Note_on_c, 0, 84, 62
2, 306277, Note_on_c, 0, 87, 39
2, 306295, Note_on_c, 0, 80, 30
2, 306319, Note_on_c, 0, 84, 0
2, 306347, Note_on_c, 0, 80, 0
2, 306437, Note_on_c, 0, 87, 0
2, 306481, Note_on_c, 0, 78, 0
2, 306504, Note_on_c, 0, 90, 0
2, 306532, Note_on_c, 0, 91, 66
2, 306550, Note_on_c, 0, 67, 43
2, 306554, Note_on_c, 0, 79, 35
2, 306557, Note_on_c, 0, 84, 42
2, 306559, Note_on_c, 0, 62, 46
2, 306568, Note_on_c, 0, 87, 23
2, 306585, Note_on_c, 0, 57, 30
2, 306647, Note_on_c, 0, 79, 0
2, 306656, Note_on_c, 0, 67, 0
2, 306668, Note_on_c, 0, 84, 0
2, 306680, Note_on_c, 0, 57, 0
2, 306691, Note_on_c, 0, 87, 0
2, 306696, Note_on_c, 0, 91, 0
2, 306701, Note_on_c, 0, 62, 0
2, 307203, Note_on_c, 0, 63, 37
2, 307223, Note_on_c, 0, 67, 49
2, 307247, Note_on_c, 0, 60, 38
2, 307250, Note_on_c, 0, 63, 0
2, 307282, Note_on_c, 0, 64, 44
2, 307346, Note_on_c, 0, 64, 0
2, 307364, Note_on_c, 0, 67, 0
2, 307408, Note_on_c, 0, 60, 0
2, 307915, Note_on_c, 0, 64, 43
2, 307930, Note_on_c, 0, 67, 50
2, 307955, Note_on_c, 0, 60, 36
2, 308110, Note_on_c, 0, 60, 0
2, 308121, Note_on_c, 0, 64, 0
2, 308142, Note_on_c, 0, 67, 0
2, 308625, Note_on_c, 0, 64, 44
2, 308649, Note_on_c, 0, 67, 45
2, 308651, Note_on_c, 0, 60, 44
2, 308797, Note_on_c, 0, 67, 0
2, 308816, Note_on_c, 0, 64, 0
2, 308837, Note_on_c, 0, 60, 0
2, 309410, Note_on_c, 0, 64, 57
2, 309415, Note_on_c, 0, 67, 68
2, 309434, Note_on_c, 0, 60, 43
2, 309487, Note_on_c, 0, 67, 0
2, 309490, Note_on_c, 0, 60, 0
2, 309525, Note_on_c, 0, 64, 0
2, 309607, Note_on_c, 0, 78, 87
2, 309609, Note_on_c, 0, 90, 80
2, 309615, Note_on_c, 0, 87, 68
2, 309926, Note_on_c, 0, 78, 0
2, 309933, Note_on_c, 0, 87, 0
2, 309955, Note_on_c, 0, 90, 0
2, 310125, Note_on_c, 0, 91, 77
2, 310127, Note_on_c, 0, 84, 78
2, 310136, Note_on_c, 0, 79, 80
2, 310140, Note_on_c, 0, 89, 71
2, 310141, Note_on_c, 0, 87, 51
2, 310206, Note_on_c, 0, 87, 0
2, 310338, Note_on_c, 0, 79, 0
2, 310361, Note_on_c, 0, 91, 0
2, 310385, Note_on_c, 0, 89, 0
2, 310403, Note_on_c, 0, 84, 0
2, 310521, Note_on_c, 0, 64, 36
2, 310533, Note_on_c, 0, 67, 41
2, 310565, Note_on_c, 0, 60, 36
2, 310577, Note_on_c, 0, 90, 62
2, 310590, Note_on_c, 0, 78, 64
2, 310599, Note_on_c, 0, 84, 64
2, 310614, Note_on_c, 0, 87, 46
2, 310715, Note_on_c, 0, 64, 0
2, 310786, Note_on_c, 0, 84, 0
2, 310789, Note_on_c, 0, 67, 0
2, 310832, Note_on_c, 0, 78, 0
2, 310862, Note_on_c, 0, 90, 0
2, 310942, Note_on_c, 0, 60, 0
2, 310976, Note_on_c, 0, 87, 0
2, 311085, Note_on_c, 0, 84, 69
2, 311086, Note_on_c, 0, 67, 59
2, 311093, Note_on_c, 0, 91, 72
2, 311099, Note_on_c, 0, 62, 48
2, 311102, Note_on_c, 0, 88, 61
2, 311103, Note_on_c, 0, 79, 66
2, 311129, Note_on_c, 0, 56, 37
2, 311133, Note_on_c, 0, 89, 45
2, 311272, Note_on_c, 0, 88, 0
2, 311291, Note_on_c, 0, 56, 0
2, 311308, Note_on_c, 0, 79, 0
2, 311312, Note_on_c, 0, 67, 0
2, 311313, Note_on_c, 0, 91, 0
2, 311349, Note_on_c, 0, 89, 0
2, 311359, Note_on_c, 0, 84, 0
2, 311583, Note_on_c, 0, 90, 67
2, 311598, Note_on_c, 0, 78, 69
2, 311605, Note_on_c, 0, 84, 71
2, 311626, Note_on_c, 0, 62, 0
2, 311845, Note_on_c, 0, 78, 0
2, 311886, Note_on_c, 0, 90, 0
2, 311895, Note_on_c, 0, 89, 61
2, 311922, Note_on_c, 0, 67, 37
2, 311923, Note_on_c, 0, 77, 40
2, 311934, Note_on_c, 0, 62, 25
2, 311968, Note_on_c, 0, 56, 28
2, 312001, Note_on_c, 0, 77, 0
2, 312043, Note_on_c, 0, 89, 0
2, 312052, Note_on_c, 0, 84, 0
2, 312077, Note_on_c, 0, 67, 0
2, 312078, Note_on_c, 0, 62, 0
2, 312084, Note_on_c, 0, 56, 0
2, 312544, Note_on_c, 0, 67, 47
2, 312561, Note_on_c, 0, 62, 42
2, 312586, Note_on_c, 0, 56, 31
2, 312721, Note_on_c, 0, 56, 0
2, 312733, Note_on_c, 0, 67, 0
2, 312740, Note_on_c, 0, 62, 0
2, 313292, Note_on_c, 0, 67, 48
2, 313304, Note_on_c, 0, 62, 39
2, 313318, Note_on_c, 0, 56, 37
2, 313424, Note_on_c, 0, 67, 0
2, 313441, Note_on_c, 0, 62, 0
2, 313474, Note_on_c, 0, 56, 0
2, 313980, Note_on_c, 0, 62, 45
2, 313987, Note_on_c, 0, 67, 36
2, 313988, Note_on_c, 0, 56, 46
2, 314394, Note_on_c, 0, 67, 0
2, 314427, Note_on_c, 0, 62, 0
2, 314440, Note_on_c, 0, 86, 94
2, 314510, Note_on_c, 0, 56, 0
2, 314709, Note_on_c, 0, 87, 63
2, 314742, Note_on_c, 0, 86, 0
2, 314854, Note_on_c, 0, 87, 0
2, 314928, Note_on_c, 0, 62, 28
2, 314930, Note_on_c, 0, 60, 31
2, 314931, Note_on_c, 0, 65, 20
2, 314932, Note_on_c, 0, 89, 51
2, 314960, Note_on_c, 0, 55, 20
2, 315102, Note_on_c, 0, 89, 0
2, 315203, Note_on_c, 0, 86, 60
2, 315318, Note_on_c, 0, 55, 0
2, 315326, Note_on_c, 0, 65, 0
2, 315333, Note_on_c, 0, 86, 0
2, 315377, Note_on_c, 0, 60, 0
2, 315430, Note_on_c, 0, 62, 0
2, 315459, Note_on_c, 0, 82, 23
2, 315637, Note_on_c, 0, 82, 0
2, 315685, Note_on_c, 0, 79, 38
2, 315746, Note_on_c, 0, 65, 24
2, 315759, Note_on_c, 0, 60, 26
2, 315765, Note_on_c, 0, 62, 25
2, 315792, Note_on_c, 0, 79, 0
2, 315862, Note_on_c, 0, 77, 51
2, 315949, Note_on_c, 0, 62, 0
2, 315977, Note_on_c, 0, 60, 0
2, 316127, Note_on_c, 0, 77, 0
2, 316200, Note_on_c, 0, 62, 18
2, 316253, Note_on_c, 0, 65, 0
2, 316341, Note_on_c, 0, 62, 0
2, 316347, Note_on_c, 0, 77, 69
2, 316593, Note_on_c, 0, 77, 0
2, 316771, Note_on_c, 0, 62, 22
2, 316789, Note_on_c, 0, 60, 18
2, 316815, Note_on_c, 0, 77, 70
2, 317100, Note_on_c, 0, 78, 56
2, 317104, Note_on_c, 0, 77, 0
2, 317269, Note_on_c, 0, 78, 0
2, 317305, Note_on_c, 0, 79, 60
2, 317331, Note_on_c, 0, 62, 0
2, 317332, Note_on_c, 0, 60, 0
2, 317461, Note_on_c, 0, 79, 0
2, 317805, Note_on_c, 0, 74, 62
2, 318020, Note_on_c, 0, 74, 0
2, 318269, Note_on_c, 0, 74, 71
2, 318506, Note_on_c, 0, 74, 0
2, 318741, Note_on_c, 0, 62, 24
2, 318753, Note_on_c, 0, 74, 68
2, 318839, Note_on_c, 0, 62, 0
2, 319019, Note_on_c, 0, 75, 53
2, 319041, Note_on_c, 0, 74, 0
2, 319164, Note_on_c, 0, 75, 0
2, 319227, Note_on_c, 0, 77, 50
2, 319429, Note_on_c, 0, 77, 0
2, 319524, Note_on_c, 0, 65, 35
2, 319564, Note_on_c, 0, 70, 71
2, 319589, Note_on_c, 0, 65, 0
2, 319681, Note_on_c, 0, 70, 0
2, 320691, Note_on_c, 0, 65, 51
2, 320699, Note_on_c, 0, 60, 40
2, 320709, Note_on_c, 0, 62, 36
2, 320723, Note_on_c, 0, 55, 31
2, 320754, Note_on_c, 0, 65, 0
2, 320813, Note_on_c, 0, 55, 0
2, 320855, Note_on_c, 0, 62, 0
2, 320872, Note_on_c, 0, 60, 0
2, 321182, Note_on_c, 0, 70, 70
2, 321365, Note_on_c, 0, 70, 0
2, 321446, Note_on_c, 0, 71, 54
2, 321478, Note_on_c, 0, 62, 35
2, 321508, Note_on_c, 0, 60, 28
2, 321578, Note_on_c, 0, 71, 0
2, 321617, Note_on_c, 0, 60, 0
2, 321622, Note_on_c, 0, 62, 0
2, 321679, Note_on_c, 0, 72, 35
2, 321936, Note_on_c, 0, 72, 0
2, 321947, Note_on_c, 0, 74, 64
2, 322064, Note_on_c, 0, 74, 0
2, 322140, Note_on_c, 0, 75, 47
2, 322291, Note_on_c, 0, 75, 0
2, 322427, Note_on_c, 0, 79, 49
2, 322473, Note_on_c, 0, 63, 46
2, 322524, Note_on_c, 0, 57, 34
2, 322566, Note_on_c, 0, 63, 0
2, 322606, Note_on_c, 0, 57, 0
2, 322620, Note_on_c, 0, 79, 0
2, 322634, Note_on_c, 0, 84, 56
2, 322891, Note_on_c, 0, 87, 69
2, 322954, Note_on_c, 0, 84, 0
2, 323045, Note_on_c, 0, 87, 0
2, 323092, Note_on_c, 0, 89, 81
2, 323359, Note_on_c, 0, 89, 0
2, 323371, Note_on_c, 0, 87, 52
2, 323459, Note_on_c, 0, 60, 26
2, 323468, Note_on_c, 0, 57, 27
2, 323514, Note_on_c, 0, 87, 0
2, 323549, Note_on_c, 0, 89, 67
2, 323597, Note_on_c, 0, 79, 64
2, 323607, Note_on_c, 0, 60, 0
2, 323608, Note_on_c, 0, 57, 0
2, 323741, Note_on_c, 0, 79, 0
2, 323806, Note_on_c, 0, 89, 0
2, 323872, Note_on_c, 0, 87, 50
2, 323874, Note_on_c, 0, 60, 34
2, 323883, Note_on_c, 0, 57, 26
2, 323993, Note_on_c, 0, 87, 0
2, 324033, Note_on_c, 0, 89, 65
2, 324048, Note_on_c, 0, 60, 0
2, 324057, Note_on_c, 0, 77, 66
2, 324084, Note_on_c, 0, 57, 0
2, 324267, Note_on_c, 0, 89, 0
2, 324319, Note_on_c, 0, 63, 27
2, 324330, Note_on_c, 0, 77, 0
2, 324350, Note_on_c, 0, 87, 42
2, 324368, Note_on_c, 0, 63, 0
2, 324380, Note_on_c, 0, 60, 18
2, 324458, Note_on_c, 0, 87, 0
2, 324500, Note_on_c, 0, 60, 0
2, 324512, Note_on_c, 0, 89, 67
2, 324527, Note_on_c, 0, 77, 54
2, 324736, Note_on_c, 0, 89, 0
2, 324795, Note_on_c, 0, 77, 0
2, 324830, Note_on_c, 0, 87, 47
2, 324873, Note_on_c, 0, 57, 20
2, 324878, Note_on_c, 0, 60, 24
2, 324950, Note_on_c, 0, 87, 0
2, 324966, Note_on_c, 0, 60, 0
2, 324996, Note_on_c, 0, 90, 68
2, 325001, Note_on_c, 0, 78, 65
2, 325038, Note_on_c, 0, 57, 0
2, 325265, Note_on_c, 0, 90, 0
2, 325340, Note_on_c, 0, 78, 0
2, 325342, Note_on_c, 0, 87, 35
2, 325411, Note_on_c, 0, 87, 0
2, 325507, Note_on_c, 0, 89, 76
2, 325518, Note_on_c, 0, 77, 72
2, 325742, Note_on_c, 0, 77, 0
2, 325745, Note_on_c, 0, 89, 0
2, 325785, Note_on_c, 0, 63, 43
2, 325865, Note_on_c, 0, 63, 0
2, 326269, Note_on_c, 0, 60, 49
2, 326271, Note_on_c, 0, 63, 44
2, 326328, Note_on_c, 0, 63, 0
2, 326345, Note_on_c, 0, 60, 0
2, 326891, Note_on_c, 0, 60, 50
2, 326894, Note_on_c, 0, 63, 47
2, 327020, Note_on_c, 0, 63, 0
2, 327109, Note_on_c, 0, 60, 0
2, 327640, Note_on_c, 0, 60, 40
2, 327645, Note_on_c, 0, 63, 36
2, 327655, Note_on_c, 0, 54, 39
2, 327929, Note_on_c, 0, 63, 0
2, 328014, Note_on_c, 0, 60, 0
2, 328132, Note_on_c, 0, 96, 89
2, 328136, Note_on_c, 0, 60, 32
2, 328328, Note_on_c, 0, 60, 0
2, 328330, Note_on_c, 0, 54, 0
2, 328498, Note_on_c, 0, 95, 68
2, 328568, Note_on_c, 0, 60, 37
2, 328585, Note_on_c, 0, 96, 0
2, 328606, Note_on_c, 0, 94, 59
2, 328644, Note_on_c, 0, 95, 0
2, 328783, Note_on_c, 0, 93, 61
2, 328827, Note_on_c, 0, 94, 0
2, 328925, Note_on_c, 0, 93, 0
2, 329060, Note_on_c, 0, 63, 45
2, 329073, Note_on_c, 0, 90, 62
2, 329100, Note_on_c, 0, 54, 28
2, 329115, Note_on_c, 0, 63, 0
2, 329200, Note_on_c, 0, 60, 0
2, 329204, Note_on_c, 0, 54, 0
2, 329256, Note_on_c, 0, 90, 0
2, 329351, Note_on_c, 0, 88, 41
2, 329488, Note_on_c, 0, 88, 0
2, 329563, Note_on_c, 0, 60, 57
2, 329570, Note_on_c, 0, 63, 63
2, 329577, Note_on_c, 0, 54, 57
2, 329618, Note_on_c, 0, 87, 64
2, 329706, Note_on_c, 0, 87, 0
2, 329789, Note_on_c, 0, 86, 15
2, 329872, Note_on_c, 0, 60, 0
2, 329983, Note_on_c, 0, 63, 0
2, 330019, Note_on_c, 0, 54, 0
2, 330089, Note_on_c, 0, 86, 0
2, 330101, Note_on_c, 0, 83, 49
2, 330129, Note_on_c, 0, 62, 41
2, 330188, Note_on_c, 0, 83, 0
2, 330260, Note_on_c, 0, 90, 78
2, 330689, Note_on_c, 0, 62, 0
2, 330707, Note_on_c, 0, 86, 58
2, 330895, Note_on_c, 0, 86, 0
2, 330937, Note_on_c, 0, 90, 0
2, 330968, Note_on_c, 0, 83, 48
2, 331059, Note_on_c, 0, 62, 35
2, 331089, Note_on_c, 0, 83, 0
2, 331132, Note_on_c, 0, 59, 24
2, 331179, Note_on_c, 0, 78, 56
2, 331243, Note_on_c, 0, 59, 0
2, 331464, Note_on_c, 0, 78, 0
2, 331483, Note_on_c, 0, 62, 0
2, 331655, Note_on_c, 0, 78, 53
2, 331940, Note_on_c, 0, 78, 0
2, 331989, Note_on_c, 0, 74, 33
2, 332147, Note_on_c, 0, 74, 0
2, 332171, Note_on_c, 0, 76, 57
2, 332183, Note_on_c, 0, 66, 18
2, 332198, Note_on_c, 0, 62, 19
2, 332211, Note_on_c, 0, 59, 34
2, 332328, Note_on_c, 0, 66, 0
2, 332457, Note_on_c, 0, 76, 0
2, 332469, Note_on_c, 0, 78, 60
2, 332553, Note_on_c, 0, 59, 0
2, 332557, Note_on_c, 0, 62, 0
2, 332624, Note_on_c, 0, 78, 0
2, 333014, Note_on_c, 0, 62, 36
2, 333054, Note_on_c, 0, 59, 34
2, 333079, Note_on_c, 0, 66, 13
2, 333511, Note_on_c, 0, 62, 0
2, 333693, Note_on_c, 0, 59, 0
2, 333737, Note_on_c, 0, 66, 0
2, 333863, Note_on_c, 0, 84, 83
2, 333947, Note_on_c, 0, 67, 44
2, 334012, Note_on_c, 0, 67, 0
2, 334105, Note_on_c, 0, 84, 0
2, 334349, Note_on_c, 0, 76, 39
2, 334535, Note_on_c, 0, 76, 0
2, 334565, Note_on_c, 0, 82, 65
2, 334838, Note_on_c, 0, 78, 46
2, 334917, Note_on_c, 0, 82, 0
2, 335010, Note_on_c, 0, 78, 0
2, 335111, Note_on_c, 0, 74, 26
2, 335246, Note_on_c, 0, 74, 0
2, 335351, Note_on_c, 0, 67, 42
2, 335378, Note_on_c, 0, 62, 31
2, 335382, Note_on_c, 0, 56, 26
2, 335439, Note_on_c, 0, 67, 0
2, 335450, Note_on_c, 0, 62, 0
2, 335483, Note_on_c, 0, 56, 0
2, 336037, Note_on_c, 0, 67, 49
2, 336054, Note_on_c, 0, 62, 37
2, 336097, Note_on_c, 0, 67, 0
2, 336132, Note_on_c, 0, 62, 0
2, 336544, Note_on_c, 0, 80, 75
2, 336834, Note_on_c, 0, 80, 0
2, 337252, Note_on_c, 0, 76, 76
2, 337272, Note_on_c, 0, 65, 48
2, 337281, Note_on_c, 0, 62, 36
2, 337285, Note_on_c, 0, 56, 45
2, 337340, Note_on_c, 0, 65, 0
2, 337353, Note_on_c, 0, 62, 0
2, 337416, Note_on_c, 0, 76, 0
2, 337451, Note_on_c, 0, 56, 0
2, 337729, Note_on_c, 0, 71, 62
2, 337803, Note_on_c, 0, 64, 30
2, 337833, Note_on_c, 0, 71, 0
2, 337836, Note_on_c, 0, 60, 30
2, 337905, Note_on_c, 0, 74, 62
2, 337969, Note_on_c, 0, 64, 0
2, 337982, Note_on_c, 0, 60, 0
2, 338200, Note_on_c, 0, 74, 0
2, 338216, Note_on_c, 0, 71, 43
2, 338345, Note_on_c, 0, 71, 0
2, 338412, Note_on_c, 0, 72, 53
2, 338612, Note_on_c, 0, 72, 0
2, 338716, Note_on_c, 0, 64, 27
2, 338718, Note_on_c, 0, 68, 29
2, 338766, Note_on_c, 0, 64, 0
2, 338879, Note_on_c, 0, 71, 53
2, 338888, Note_on_c, 0, 68, 0
2, 339193, Note_on_c, 0, 68, 39
2, 339201, Note_on_c, 0, 71, 0
2, 339337, Note_on_c, 0, 68, 0
2, 339406, Note_on_c, 0, 69, 40
2, 339571, Note_on_c, 0, 69, 0
2, 339638, Note_on_c, 0, 64, 42
2, 339759, Note_on_c, 0, 64, 0
2, 339845, Note_on_c, 0, 64, 32
2, 339992, Note_on_c, 0, 64, 0
2, 340092, Note_on_c, 0, 64, 59
2, 340211, Note_on_c, 0, 64, 0
2, 340270, Note_on_c, 0, 64, 41
2, 340482, Note_on_c, 0, 64, 0
2, 340553, Note_on_c, 0, 64, 75
2, 340650, Note_on_c, 0, 60, 24
2, 340664, Note_on_c, 0, 64, 0
2, 340713, Note_on_c, 0, 60, 0
2, 340741, Note_on_c, 0, 64, 91
2, 340986, Note_on_c, 0, 64, 0
2, 341058, Note_on_c, 0, 64, 73
2, 341149, Note_on_c, 0, 64, 0
2, 341240, Note_on_c, 0, 64, 67
2, 341466, Note_on_c, 0, 64, 0
2, 341559, Note_on_c, 0, 64, 62
2, 341669, Note_on_c, 0, 64, 0
2, 341766, Note_on_c, 0, 64, 68
2, 341976, Note_on_c, 0, 64, 0
2, 342059, Note_on_c, 0, 64, 45
2, 342114, Note_on_c, 0, 64, 0
2, 342201, Note_on_c, 0, 64, 66
2, 342451, Note_on_c, 0, 64, 0
2, 342564, Note_on_c, 0, 64, 32
2, 342578, Note_on_c, 0, 54, 31
2, 342579, Note_on_c, 0, 60, 38
2, 342628, Note_on_c, 0, 64, 0
2, 342675, Note_on_c, 0, 54, 0
2, 342700, Note_on_c, 0, 60, 0
2, 342721, Note_on_c, 0, 65, 65
2, 343076, Note_on_c, 0, 60, 28
2, 343139, Note_on_c, 0, 65, 0
2, 343142, Note_on_c, 0, 60, 0
2, 343235, Note_on_c, 0, 66, 77
2, 343572, Note_on_c, 0, 66, 0
2, 343717, Note_on_c, 0, 64, 41
2, 343731, Note_on_c, 0, 60, 39
2, 343744, Note_on_c, 0, 54, 29
2, 343817, Note_on_c, 0, 64, 0
2, 343911, Note_on_c, 0, 60, 0
2, 343914, Note_on_c, 0, 54, 0
2, 344523, Note_on_c, 0, 64, 36
2, 344534, Note_on_c, 0, 54, 36
2, 344545, Note_on_c, 0, 60, 32
2, 344615, Note_on_c, 0, 64, 0
2, 344618, Note_on_c, 0, 60, 0
2, 344684, Note_on_c, 0, 54, 0
2, 345186, Note_on_c, 0, 54, 40
2, 345192, Note_on_c, 0, 60, 34
2, 345197, Note_on_c, 0, 64, 24
2, 345305, Note_on_c, 0, 64, 0
2, 345339, Note_on_c, 0, 60, 0
2, 345401, Note_on_c, 0, 54, 0
2, 345653, Note_on_c, 0, 69, 67
2, 345658, Note_on_c, 0, 81, 60
2, 345664, Note_on_c, 0, 74, 62
2, 345665, Note_on_c, 0, 78, 37
2, 345836, Note_on_c, 0, 69, 0
2, 345851, Note_on_c, 0, 74, 0
2, 345866, Note_on_c, 0, 78, 0
2, 345868, Note_on_c, 0, 81, 0
2, 346136, Note_on_c, 0, 81, 66
2, 346137, Note_on_c, 0, 69, 67
2, 346144, Note_on_c, 0, 78, 52
2, 346158, Note_on_c, 0, 74, 64
2, 346395, Note_on_c, 0, 81, 0
2, 346408, Note_on_c, 0, 74, 0
2, 346432, Note_on_c, 0, 69, 0
2, 346444, Note_on_c, 0, 78, 0
2, 346613, Note_on_c, 0, 81, 68
2, 346630, Note_on_c, 0, 78, 50
2, 346631, Note_on_c, 0, 69, 55
2, 346648, Note_on_c, 0, 74, 58
2, 346829, Note_on_c, 0, 81, 0
2, 346832, Note_on_c, 0, 69, 0
2, 346887, Note_on_c, 0, 74, 0
2, 346938, Note_on_c, 0, 79, 47
2, 346953, Note_on_c, 0, 67, 32
2, 346955, Note_on_c, 0, 74, 20
2, 347051, Note_on_c, 0, 67, 0
2, 347110, Note_on_c, 0, 79, 0
2, 347116, Note_on_c, 0, 74, 0
2, 347169, Note_on_c, 0, 78, 0
2, 347407, Note_on_c, 0, 81, 60
2, 347407, Note_on_c, 0, 69, 62
2, 347410, Note_on_c, 0, 78, 39
2, 347413, Note_on_c, 0, 74, 55
2, 347427, Note_on_c, 0, 62, 24
2, 347433, Note_on_c, 0, 59, 29
2, 347435, Note_on_c, 0, 57, 35
2, 347501, Note_on_c, 0, 62, 0
2, 347517, Note_on_c, 0, 59, 0
2, 347527, Note_on_c, 0, 57, 0
2, 347577, Note_on_c, 0, 69, 0
2, 347596, Note_on_c, 0, 74, 0
2, 347603, Note_on_c, 0, 81, 0
2, 347629, Note_on_c, 0, 78, 0
2, 348298, Note_on_c, 0, 82, 72
2, 348317, Note_on_c, 0, 70, 67
2, 348321, Note_on_c, 0, 74, 68
2, 348333, Note_on_c, 0, 78, 38
2, 348348, Note_on_c, 0, 62, 47
2, 348362, Note_on_c, 0, 57, 46
2, 348364, Note_on_c, 0, 59, 40
2, 348405, Note_on_c, 0, 62, 0
2, 348424, Note_on_c, 0, 59, 0
2, 348432, Note_on_c, 0, 57, 0
2, 348437, Note_on_c, 0, 70, 0
2, 348460, Note_on_c, 0, 82, 0
2, 348463, Note_on_c, 0, 78, 0
2, 348487, Note_on_c, 0, 81, 55
2, 348536, Note_on_c, 0, 69, 37
2, 348772, Note_on_c, 0, 69, 0
2, 348776, Note_on_c, 0, 81, 0
2, 348904, Note_on_c, 0, 57, 27
2, 348918, Note_on_c, 0, 74, 0
2, 348920, Note_on_c, 0, 59, 17
2, 348979, Note_on_c, 0, 79, 28
2, 348992, Note_on_c, 0, 74, 20
2, 349001, Note_on_c, 0, 67, 39
2, 349028, Note_on_c, 0, 57, 0
2, 349031, Note_on_c, 0, 59, 0
2, 349204, Note_on_c, 0, 79, 0
2, 349218, Note_on_c, 0, 67, 0
2, 349291, Note_on_c, 0, 74, 0
2, 349469, Note_on_c, 0, 74, 58
2, 349470, Note_on_c, 0, 81, 60
2, 349485, Note_on_c, 0, 69, 44
2, 349716, Note_on_c, 0, 81, 0
2, 349815, Note_on_c, 0, 74, 0
2, 349829, Note_on_c, 0, 57, 28
2, 349836, Note_on_c, 0, 59, 20
2, 349914, Note_on_c, 0, 79, 52
2, 349953, Note_on_c, 0, 57, 0
2, 349961, Note_on_c, 0, 59, 0
2, 349964, Note_on_c, 0, 74, 24
2, 350096, Note_on_c, 0, 79, 0
2, 350139, Note_on_c, 0, 69, 0
2, 350163, Note_on_c, 0, 74, 0
2, 350242, Note_on_c, 0, 81, 70
2, 350275, Note_on_c, 0, 74, 48
2, 350283, Note_on_c, 0, 69, 19
2, 350357, Note_on_c, 0, 69, 0
2, 350403, Note_on_c, 0, 81, 0
2, 350501, Note_on_c, 0, 67, 26
2, 350513, Note_on_c, 0, 79, 48
2, 350685, Note_on_c, 0, 67, 0
2, 350703, Note_on_c, 0, 79, 0
2, 350707, Note_on_c, 0, 74, 0
2, 351191, Note_on_c, 0, 57, 43
2, 351194, Note_on_c, 0, 59, 42
2, 351197, Note_on_c, 0, 62, 31
2, 351268, Note_on_c, 0, 62, 0
2, 351297, Note_on_c, 0, 59, 0
2, 351307, Note_on_c, 0, 57, 0
2, 351841, Note_on_c, 0, 62, 34
2, 351849, Note_on_c, 0, 59, 44
2, 351863, Note_on_c, 0, 57, 44
2, 351983, Note_on_c, 0, 62, 0
2, 352044, Note_on_c, 0, 59, 0
2, 352093, Note_on_c, 0, 57, 0
2, 352622, Note_on_c, 0, 62, 43
2, 352632, Note_on_c, 0, 57, 47
2, 352772, Note_on_c, 0, 62, 0
2, 352845, Note_on_c, 0, 57, 0
2, 353261, Note_on_c, 0, 62, 36
2, 353270, Note_on_c, 0, 58, 44
2, 353281, Note_on_c, 0, 57, 29
2, 353291, Note_on_c, 0, 53, 30
2, 353423, Note_on_c, 0, 62, 0
2, 353471, Note_on_c, 0, 53, 0
2, 353484, Note_on_c, 0, 58, 0
2, 353499, Note_on_c, 0, 57, 0
2, 354058, Note_on_c, 0, 57, 52
2, 354059, Note_on_c, 0, 62, 48
2, 354066, Note_on_c, 0, 58, 47
2, 354113, Note_on_c, 0, 62, 0
2, 354119, Note_on_c, 0, 57, 0
2, 354161, Note_on_c, 0, 58, 0
2, 354199, Note_on_c, 0, 73, 71
2, 354231, Note_on_c, 0, 81, 57
2, 354231, Note_on_c, 0, 77, 43
2, 354433, Note_on_c, 0, 73, 0
2, 354443, Note_on_c, 0, 74, 58
2, 354510, Note_on_c, 0, 81, 0
2, 354549, Note_on_c, 0, 74, 0
2, 354593, Note_on_c, 0, 77, 0
2, 354712, Note_on_c, 0, 73, 69
2, 354736, Note_on_c, 0, 81, 53
2, 354751, Note_on_c, 0, 77, 41
2, 354979, Note_on_c, 0, 74, 46
2, 354999, Note_on_c, 0, 73, 0
2, 355050, Note_on_c, 0, 81, 0
2, 355058, Note_on_c, 0, 74, 0
2, 355095, Note_on_c, 0, 77, 0
2, 355478, Note_on_c, 0, 57, 47
2, 355498, Note_on_c, 0, 58, 36
2, 355500, Note_on_c, 0, 62, 30
2, 355553, Note_on_c, 0, 62, 0
2, 355555, Note_on_c, 0, 57, 0
2, 355612, Note_on_c, 0, 58, 0
2, 356160, Note_on_c, 0, 57, 41
2, 356164, Note_on_c, 0, 62, 42
2, 356177, Note_on_c, 0, 58, 35
2, 356219, Note_on_c, 0, 62, 0
2, 356236, Note_on_c, 0, 57, 0
2, 356266, Note_on_c, 0, 58, 0
2, 356954, Note_on_c, 0, 58, 59
2, 356955, Note_on_c, 0, 63, 65
2, 357002, Note_on_c, 0, 52, 24
2, 357004, Note_on_c, 0, 58, 0
2, 357021, Note_on_c, 0, 63, 0
2, 357053, Note_on_c, 0, 52, 0
2, 357602, Note_on_c, 0, 63, 60
2, 357621, Note_on_c, 0, 58, 44
2, 357665, Note_on_c, 0, 52, 24
2, 358175, Note_on_c, 0, 52, 0
2, 358194, Note_on_c, 0, 63, 0
2, 358254, Note_on_c, 0, 58, 0
2, 358345, Note_on_c, 0, 63, 64
2, 358351, Note_on_c, 0, 80, 81
2, 358356, Note_on_c, 0, 58, 62
2, 358358, Note_on_c, 0, 92, 76
2, 358369, Note_on_c, 0, 87, 64
2, 358373, Note_on_c, 0, 52, 60
2, 358503, Note_on_c, 0, 63, 0
2, 358513, Note_on_c, 0, 87, 0
2, 358517, Note_on_c, 0, 80, 0
2, 358520, Note_on_c, 0, 52, 0
2, 358528, Note_on_c, 0, 92, 0
2, 358552, Note_on_c, 0, 58, 0
2, 358780, Note_on_c, 0, 87, 76
2, 358787, Note_on_c, 0, 58, 64
2, 358788, Note_on_c, 0, 63, 69
2, 358794, Note_on_c, 0, 93, 61
2, 358799, Note_on_c, 0, 52, 60
2, 358801, Note_on_c, 0, 81, 71
2, 358807, Note_on_c, 0, 91, 68
2, 358851, Note_on_c, 0, 52, 0
2, 358853, Note_on_c, 0, 81, 0
2, 358854, Note_on_c, 0, 91, 0
2, 358885, Note_on_c, 0, 93, 0
2, 358898, Note_on_c, 0, 63, 0
2, 358967, Note_on_c, 0, 58, 0
2, 358978, Note_on_c, 0, 87, 0
2, 359068, Note_on_c, 0, 87, 70
2, 359072, Note_on_c, 0, 92, 76
2, 359077, Note_on_c, 0, 63, 69
2, 359081, Note_on_c, 0, 80, 69
2, 359084, Note_on_c, 0, 52, 70
2, 359090, Note_on_c, 0, 58, 55
2, 359573, Note_on_c, 0, 92, 0
2, 359581, Note_on_c, 0, 87, 0
2, 359592, Note_on_c, 0, 80, 0
2, 359610, Note_on_c, 0, 52, 0
2, 359619, Note_on_c, 0, 63, 0
2, 359676, Note_on_c, 0, 58, 0
2, 359776, Note_on_c, 0, 82, 67
2, 359789, Note_on_c, 0, 63, 65
2, 359791, Note_on_c, 0, 58, 52
2, 359806, Note_on_c, 0, 52, 55
2, 359812, Note_on_c, 0, 76, 55
2, 359817, Note_on_c, 0, 74, 41
2, 359824, Note_on_c, 0, 88, 38
2, 359828, Note_on_c, 0, 86, 31
2, 359877, Note_on_c, 0, 74, 0
2, 359928, Note_on_c, 0, 86, 0
2, 359941, Note_on_c, 0, 88, 0
2, 359951, Note_on_c, 0, 76, 0
2, 359972, Note_on_c, 0, 52, 0
2, 359983, Note_on_c, 0, 82, 0
2, 359985, Note_on_c, 0, 63, 0
2, 360016, Note_on_c, 0, 58, 0
2, 360229, Note_on_c, 0, 63, 67
2, 360248, Note_on_c, 0, 58, 56
2, 360250, Note_on_c, 0, 88, 66
2, 360261, Note_on_c, 0, 52, 40
2, 360263, Note_on_c, 0, 76, 61
2, 360267, Note_on_c, 0, 83, 58
2, 360291, Note_on_c, 0, 63, 0
2, 360318, Note_on_c, 0, 52, 0
2, 360329, Note_on_c, 0, 83, 0
2, 360333, Note_on_c, 0, 76, 0
2, 360350, Note_on_c, 0, 58, 0
2, 360357, Note_on_c, 0, 88, 0
2, 360448, Note_on_c, 0, 52, 45
2, 360455, Note_on_c, 0, 63, 64
2, 360459, Note_on_c, 0, 58, 53
2, 360479, Note_on_c, 0, 84, 69
2, 360482, Note_on_c, 0, 77, 68
2, 360485, Note_on_c, 0, 89, 68
2, 360794, Note_on_c, 0, 52, 0
2, 360810, Note_on_c, 0, 77, 0
2, 360849, Note_on_c, 0, 84, 0
2, 360866, Note_on_c, 0, 58, 0
2, 360869, Note_on_c, 0, 63, 0
2, 360871, Note_on_c, 0, 89, 0
2, 360968, Note_on_c, 0, 58, 61
2, 360971, Note_on_c, 0, 64, 62
2, 360979, Control_c, 0, 64, 127
2, 360984, Note_on_c, 0, 84, 68
2, 360987, Note_on_c, 0, 91, 79
2, 360988, Note_on_c, 0, 60, 55
2, 360994, Note_on_c, 0, 79, 64
2, 361005, Note_on_c, 0, 53, 46
2, 361030, Note_on_c, 0, 57, 62
2, 361087, Note_on_c, 0, 58, 0
2, 361787, Note_on_c, 0, 79, 0
2, 361811, Note_on_c, 0, 91, 0
2, 361813, Note_on_c, 0, 64, 0
2, 361813, Note_on_c, 0, 84, 0
2, 361815, Note_on_c, 0, 53, 0
2, 361884, Note_on_c, 0, 60, 0
2, 361898, Note_on_c, 0, 57, 0
2, 361903, Control_c, 0, 64, 0
2, 361976, Note_on_c, 0, 91, 78
2, 361982, Note_on_c, 0, 64, 54
2, 361985, Note_on_c, 0, 60, 53
2, 361987, Note_on_c, 0, 88, 60
2, 361989, Note_on_c, 0, 57, 53
2, 361992, Note_on_c, 0, 84, 69
2, 361993, Note_on_c, 0, 79, 54
2, 361996, Note_on_c, 0, 53, 45
2, 362497, Control_c, 0, 64, 127
2, 362553, Note_on_c, 0, 91, 0
2, 362598, Note_on_c, 0, 88, 0
2, 362645, Note_on_c, 0, 84, 0
2, 362718, Note_on_c, 0, 79, 0
2, 363059, Note_on_c, 0, 64, 0
2, 363213, Control_c, 0, 64, 0
2, 363260, Note_on_c, 0, 57, 0
2, 363270, Note_on_c, 0, 76, 52
2, 363275, Note_on_c, 0, 79, 50
2, 363278, Note_on_c, 0, 69, 53
2, 363279, Note_on_c, 0, 64, 56
2, 363284, Note_on_c, 0, 72, 55
2, 363379, Note_on_c, 0, 69, 0
2, 363380, Note_on_c, 0, 72, 0
2, 363398, Note_on_c, 0, 64, 0
2, 363401, Note_on_c, 0, 60, 0
2, 363414, Note_on_c, 0, 76, 0
2, 363416, Note_on_c, 0, 79, 0
2, 363636, Note_on_c, 0, 64, 56
2, 363643, Note_on_c, 0, 79, 57
2, 363644, Note_on_c, 0, 76, 54
2, 363647, Note_on_c, 0, 69, 61
2, 363650, Note_on_c, 0, 72, 57
2, 363727, Note_on_c, 0, 64, 0
2, 363764, Note_on_c, 0, 69, 0
2, 363779, Note_on_c, 0, 72, 0
2, 363784, Note_on_c, 0, 79, 0
2, 363835, Note_on_c, 0, 76, 0
2, 363952, Note_on_c, 0, 64, 59
2, 363958, Note_on_c, 0, 79, 67
2, 363972, Note_on_c, 0, 72, 68
2, 363977, Note_on_c, 0, 69, 64
2, 363996, Note_on_c, 0, 76, 41
2, 364000, Control_c, 0, 64, 127
2, 364089, Note_on_c, 0, 76, 0
2, 364171, Note_on_c, 0, 79, 0
2, 364190, Note_on_c, 0, 72, 0
2, 364236, Note_on_c, 0, 69, 0
2, 364306, Note_on_c, 0, 64, 0
2, 364344, Control_c, 0, 64, 0
2, 364393, Note_on_c, 0, 76, 46
2, 364397, Note_on_c, 0, 67, 46
2, 364419, Note_on_c, 0, 72, 37
2, 364422, Note_on_c, 0, 60, 36
2, 364427, Note_on_c, 0, 69, 29
2, 364493, Note_on_c, 0, 69, 0
2, 364500, Note_on_c, 0, 67, 0
2, 364501, Note_on_c, 0, 72, 0
2, 364514, Note_on_c, 0, 60, 0
2, 364530, Note_on_c, 0, 76, 0
2, 364691, Note_on_c, 0, 76, 57
2, 364694, Note_on_c, 0, 67, 63
2, 364705, Note_on_c, 0, 72, 53
2, 364706, Note_on_c, 0, 69, 59
2, 364723, Note_on_c, 0, 60, 36
2, 364786, Note_on_c, 0, 60, 0
2, 364800, Note_on_c, 0, 67, 0
2, 364822, Note_on_c, 0, 69, 0
2, 364827, Note_on_c, 0, 76, 0
2, 364844, Note_on_c, 0, 72, 0
2, 364920, Note_on_c, 0, 76, 57
2, 364932, Note_on_c, 0, 67, 44
2, 364933, Note_on_c, 0, 69, 68
2, 364938, Note_on_c, 0, 60, 48
2, 364940, Note_on_c, 0, 72, 51
2, 365116, Note_on_c, 0, 72, 0
2, 365118, Note_on_c, 0, 76, 0
2, 365154, Note_on_c, 0, 69, 0
2, 365156, Note_on_c, 0, 67, 0
2, 365231, Note_on_c, 0, 60, 0
2, 365378, Note_on_c, 0, 64, 25
2, 365445, Note_on_c, 0, 64, 0
2, 365531, Note_on_c, 0, 53, 0
2, 365594, Note_on_c, 0, 64, 46
2, 365604, Note_on_c, 0, 72, 40
2, 365605, Note_on_c, 0, 67, 40
2, 365620, Note_on_c, 0, 69, 44
2, 365630, Note_on_c, 0, 57, 40
2, 365683, Note_on_c, 0, 72, 0
2, 365696, Note_on_c, 0, 69, 0
2, 365703, Note_on_c, 0, 64, 0
2, 365720, Note_on_c, 0, 67, 0
2, 365722, Note_on_c, 0, 57, 0
2, 365825, Note_on_c, 0, 72, 48
2, 365833, Note_on_c, 0, 67, 56
2, 365835, Note_on_c, 0, 64, 36
2, 365858, Note_on_c, 0, 57, 42
2, 365859, Note_on_c, 0, 69, 46
2, 365926, Note_on_c, 0, 69, 0
2, 365990, Note_on_c, 0, 67, 0
2, 365993, Note_on_c, 0, 72, 0
2, 366041, Note_on_c, 0, 64, 0
2, 366069, Control_c, 0, 64, 127
2, 366191, Note_on_c, 0, 57, 0
2, 366303, Control_c, 0, 64, 0
2, 366319, Note_on_c, 0, 57, 32
2, 366322, Note_on_c, 0, 60, 35
2, 366326, Note_on_c, 0, 67, 29
2, 366334, Note_on_c, 0, 64, 24
2, 366418, Note_on_c, 0, 64, 0
2, 366420, Note_on_c, 0, 60, 0
2, 366443, Note_on_c, 0, 67, 0
2, 366469, Note_on_c, 0, 57, 0
2, 366762, Note_on_c, 0, 57, 25
2, 366766, Note_on_c, 0, 60, 34
2, 366768, Note_on_c, 0, 67, 37
2, 366773, Note_on_c, 0, 64, 36
2, 366847, Note_on_c, 0, 64, 0
2, 366864, Note_on_c, 0, 60, 0
2, 366894, Note_on_c, 0, 57, 0
2, 366904, Note_on_c, 0, 67, 0
2, 367229, Note_on_c, 0, 64, 42
2, 367237, Note_on_c, 0, 67, 37
2, 367241, Note_on_c, 0, 60, 33
2, 367242, Note_on_c, 0, 57, 35
2, 367278, Note_on_c, 0, 53, 26
2, 367313, Note_on_c, 0, 60, 0
2, 367324, Control_c, 0, 64, 127
2, 367372, Note_on_c, 0, 64, 0
2, 367456, Note_on_c, 0, 67, 0
2, 367718, Note_on_c, 0, 53, 0
2, 367723, Note_on_c, 0, 57, 0
2, 368578, Control_c, 0, 64, 0
2, 368595, Note_on_c, 0, 64, 69
2, 368607, Note_on_c, 0, 89, 85
2, 368609, Note_on_c, 0, 84, 92
2, 368610, Note_on_c, 0, 77, 96
2, 368616, Note_on_c, 0, 60, 66
2, 368621, Note_on_c, 0, 67, 80
2, 368627, Note_on_c, 0, 56, 72
2, 369020, Control_c, 0, 64, 127
2, 370205, Note_on_c, 0, 77, 0
2, 370253, Note_on_c, 0, 89, 0
2, 370270, Note_on_c, 0, 60, 0
2, 370301, Note_on_c, 0, 84, 0
2, 370312, Note_on_c, 0, 64, 0
2, 370330, Note_on_c, 0, 67, 0
2, 370347, Note_on_c, 0, 56, 0
2, 370882, Control_c, 0, 64, 0
2, 370896, Note_on_c, 0, 64, 44
2, 370901, Note_on_c, 0, 91, 62
2, 370909, Note_on_c, 0, 67, 51
2, 370912, Note_on_c, 0, 84, 52
2, 370922, Note_on_c, 0, 87, 36
2, 370923, Note_on_c, 0, 79, 37
2, 370929, Note_on_c, 0, 60, 40
2, 370970, Note_on_c, 0, 67, 0
2, 370975, Note_on_c, 0, 84, 0
2, 370981, Note_on_c, 0, 87, 0
2, 370986, Note_on_c, 0, 79, 0
2, 371011, Note_on_c, 0, 91, 0
2, 371013, Note_on_c, 0, 60, 0
2, 371014, Note_on_c, 0, 64, 0
2, 371526, Note_on_c, 0, 64, 37
2, 371530, Note_on_c, 0, 91, 68
2, 371544, Note_on_c, 0, 84, 56
2, 371549, Note_on_c, 0, 87, 36
2, 371552, Note_on_c, 0, 67, 44
2, 371556, Note_on_c, 0, 60, 39
2, 371567, Note_on_c, 0, 79, 33
2, 371574, Note_on_c, 0, 56, 35
2, 371644, Control_c, 0, 64, 127
2, 371822, Note_on_c, 0, 64, 0
2, 371918, Note_on_c, 0, 56, 0
2, 371947, Note_on_c, 0, 67, 0
2, 371980, Note_on_c, 0, 60, 0
2, 372427, Note_on_c, 0, 91, 0
2, 372445, Note_on_c, 0, 79, 0
2, 372462, Note_on_c, 0, 67, 36
2, 372495, Note_on_c, 0, 62, 35
2, 372500, Note_on_c, 0, 60, 37
2, 372512, Control_c, 0, 64, 0
2, 372528, Note_on_c, 0, 56, 38
2, 372534, Note_on_c, 0, 84, 0
2, 372566, Note_on_c, 0, 87, 0
2, 372939, Control_c, 0, 64, 127
2, 373057, Note_on_c, 0, 62, 0
2, 373060, Note_on_c, 0, 56, 0
2, 373074, Note_on_c, 0, 67, 0
2, 373075, Note_on_c, 0, 60, 0
2, 373452, Note_on_c, 0, 88, 62
2, 373458, Note_on_c, 0, 67, 60
2, 373465, Note_on_c, 0, 83, 64
2, 373469, Note_on_c, 0, 76, 60
2, 373476, Note_on_c, 0, 62, 44
2, 373480, Note_on_c, 0, 56, 48
2, 373483, Note_on_c, 0, 60, 44
2, 373626, Note_on_c, 0, 76, 0
2, 373664, Note_on_c, 0, 88, 0
2, 373674, Note_on_c, 0, 56, 0
2, 373681, Note_on_c, 0, 67, 0
2, 373690, Note_on_c, 0, 83, 0
2, 373703, Note_on_c, 0, 60, 0
2, 373721, Note_on_c, 0, 62, 0
2, 373781, Control_c, 0, 64, 0
2, 373807, Note_on_c, 0, 67, 46
2, 373814, Note_on_c, 0, 84, 67
2, 373820, Note_on_c, 0, 89, 63
2, 373822, Note_on_c, 0, 77, 56
2, 373833, Note_on_c, 0, 62, 55
2, 373842, Note_on_c, 0, 60, 47
2, 373846, Note_on_c, 0, 56, 31
2, 373879, Note_on_c, 0, 77, 0
2, 373887, Note_on_c, 0, 62, 0
2, 373894, Note_on_c, 0, 60, 0
2, 373898, Note_on_c, 0, 89, 0
2, 373906, Note_on_c, 0, 67, 0
2, 373910, Note_on_c, 0, 84, 0
2, 373976, Note_on_c, 0, 56, 0
2, 374431, Note_on_c, 0, 59, 58
2, 374432, Note_on_c, 0, 64, 65
2, 374444, Note_on_c, 0, 91, 85
2, 374447, Note_on_c, 0, 53, 54
2, 374450, Note_on_c, 0, 86, 80
2, 374451, Note_on_c, 0, 79, 82
2, 374775, Control_c, 0, 64, 127
2, 374832, Note_on_c, 0, 79, 0
2, 374838, Note_on_c, 0, 91, 0
2, 374903, Note_on_c, 0, 64, 0
2, 374911, Note_on_c, 0, 53, 0
2, 374925, Note_on_c, 0, 86, 0
2, 375018, Note_on_c, 0, 59, 0
2, 375134, Control_c, 0, 64, 0
2, 375190, Note_on_c, 0, 87, 75
2, 375192, Note_on_c, 0, 63, 75
2, 375193, Note_on_c, 0, 53, 60
2, 375196, Note_on_c, 0, 80, 76
2, 375197, Note_on_c, 0, 59, 64
2, 375198, Note_on_c, 0, 92, 75
2, 375209, Note_on_c, 0, 56, 62
2, 375354, Control_c, 0, 64, 127
2, 375383, Note_on_c, 0, 80, 0
2, 375392, Note_on_c, 0, 87, 0
2, 375403, Note_on_c, 0, 92, 0
2, 375500, Note_on_c, 0, 53, 0
2, 375534, Note_on_c, 0, 56, 0
2, 375558, Note_on_c, 0, 63, 0
2, 375599, Note_on_c, 0, 59, 0
2, 375878, Control_c, 0, 64, 0
2, 375880, Note_on_c, 0, 63, 79
2, 375881, Note_on_c, 0, 95, 79
2, 375884, Note_on_c, 0, 88, 80
2, 375885, Note_on_c, 0, 83, 77
2, 375893, Note_on_c, 0, 53, 65
2, 375895, Note_on_c, 0, 59, 66
2, 375897, Note_on_c, 0, 56, 65
2, 376067, Note_on_c, 0, 83, 0
2, 376090, Note_on_c, 0, 88, 0
2, 376113, Control_c, 0, 64, 127
2, 376146, Note_on_c, 0, 95, 0
2, 376153, Note_on_c, 0, 53, 0
2, 376215, Note_on_c, 0, 56, 0
2, 376218, Note_on_c, 0, 63, 0
2, 376416, Control_c, 0, 64, 0
2, 376489, Note_on_c, 0, 59, 0
2, 376668, Note_on_c, 0, 59, 70
2, 376671, Note_on_c, 0, 98, 80
2, 376673, Note_on_c, 0, 86, 84
2, 376675, Note_on_c, 0, 91, 82
2, 376676, Note_on_c, 0, 95, 80
2, 376682, Note_on_c, 0, 62, 78
2, 376689, Note_on_c, 0, 55, 60
2, 376691, Note_on_c, 0, 52, 68
2, 376995, Control_c, 0, 64, 127
2, 377207, Note_on_c, 0, 52, 0
2, 377216, Note_on_c, 0, 98, 0
2, 377235, Note_on_c, 0, 86, 0
2, 377240, Note_on_c, 0, 62, 0
2, 377254, Note_on_c, 0, 95, 0
2, 377272, Note_on_c, 0, 59, 0
2, 377273, Note_on_c, 0, 91, 0
2, 377275, Note_on_c, 0, 55, 0
2, 377312, Control_c, 0, 64, 0
2, 377374, Note_on_c, 0, 91, 51
2, 377377, Note_on_c, 0, 96, 59
2, 377383, Note_on_c, 0, 59, 49
2, 377385, Note_on_c, 0, 62, 53
2, 377388, Note_on_c, 0, 55, 54
2, 377389, Note_on_c, 0, 84, 63
2, 377401, Note_on_c, 0, 52, 60
2, 377712, Control_c, 0, 64, 127
2, 377767, Control_c, 0, 64, 0
2, 377798, Note_on_c, 0, 84, 0
2, 377809, Note_on_c, 0, 96, 0
2, 377809, Note_on_c, 0, 52, 0
2, 377840, Note_on_c, 0, 62, 0
2, 377862, Note_on_c, 0, 91, 0
2, 377868, Note_on_c, 0, 55, 0
2, 377873, Note_on_c, 0, 59, 0
2, 378052, Note_on_c, 0, 98, 67
2, 378059, Note_on_c, 0, 91, 62
2, 378067, Note_on_c, 0, 86, 53
2, 378071, Note_on_c, 0, 62, 53
2, 378080, Note_on_c, 0, 59, 51
2, 378085, Note_on_c, 0, 55, 42
2, 378093, Note_on_c, 0, 52, 40
2, 378158, Note_on_c, 0, 86, 0
2, 378232, Note_on_c, 0, 91, 0
2, 378238, Note_on_c, 0, 98, 0
2, 378297, Note_on_c, 0, 52, 0
2, 378327, Note_on_c, 0, 62, 0
2, 378355, Note_on_c, 0, 55, 0
2, 378358, Note_on_c, 0, 59, 0
2, 378742, Note_on_c, 0, 90, 60
2, 378762, Note_on_c, 0, 62, 60
2, 378766, Note_on_c, 0, 59, 40
2, 378776, Note_on_c, 0, 55, 48
2, 378780, Note_on_c, 0, 96, 58
2, 378794, Note_on_c, 0, 52, 44
2, 378976, Note_on_c, 0, 84, 9
2, 379211, Note_on_c, 0, 84, 0
2, 379218, Note_on_c, 0, 90, 0
2, 379230, Note_on_c, 0, 52, 0
2, 379244, Note_on_c, 0, 62, 0
2, 379264, Note_on_c, 0, 96, 0
2, 379274, Note_on_c, 0, 59, 0
2, 379281, Note_on_c, 0, 55, 0
2, 379526, Note_on_c, 0, 98, 66
2, 379536, Note_on_c, 0, 86, 62
2, 379552, Note_on_c, 0, 62, 56
2, 379553, Note_on_c, 0, 59, 44
2, 379566, Note_on_c, 0, 52, 40
2, 379586, Note_on_c, 0, 55, 30
2, 379782, Note_on_c, 0, 52, 0
2, 379818, Note_on_c, 0, 55, 0
2, 379858, Note_on_c, 0, 59, 0
2, 379904, Note_on_c, 0, 62, 0
2, 379930, Note_on_c, 0, 86, 0
2, 379944, Note_on_c, 0, 98, 0
2, 380196, Note_on_c, 0, 64, 49
2, 380217, Note_on_c, 0, 60, 45
2, 380226, Note_on_c, 0, 55, 42
2, 380228, Note_on_c, 0, 98, 60
2, 380232, Note_on_c, 0, 86, 53
2, 380243, Note_on_c, 0, 59, 53
2, 380628, Note_on_c, 0, 55, 0
2, 380660, Note_on_c, 0, 59, 0
2, 380676, Note_on_c, 0, 86, 0
2, 380686, Note_on_c, 0, 98, 0
2, 380700, Note_on_c, 0, 64, 0
2, 380719, Note_on_c, 0, 60, 0
2, 380945, Note_on_c, 0, 64, 39
2, 380947, Note_on_c, 0, 86, 44
2, 380954, Note_on_c, 0, 98, 36
2, 380971, Note_on_c, 0, 60, 33
2, 380991, Note_on_c, 0, 59, 40
2, 380998, Note_on_c, 0, 55, 34
2, 381134, Note_on_c, 0, 98, 0
2, 381140, Note_on_c, 0, 86, 0
2, 381198, Note_on_c, 0, 59, 0
2, 381235, Note_on_c, 0, 55, 0
2, 381249, Note_on_c, 0, 60, 0
2, 381283, Note_on_c, 0, 64, 0
2, 381672, Note_on_c, 0, 98, 44
2, 381679, Note_on_c, 0, 60, 32
2, 381683, Note_on_c, 0, 64, 30
2, 381696, Note_on_c, 0, 86, 36
2, 381703, Note_on_c, 0, 59, 24
2, 381730, Note_on_c, 0, 54, 31
2, 381850, Note_on_c, 0, 98, 0
2, 381968, Note_on_c, 0, 86, 0
2, 382083, Note_on_c, 0, 59, 0
2, 382107, Note_on_c, 0, 64, 0
2, 382140, Note_on_c, 0, 60, 0
2, 382184, Note_on_c, 0, 54, 0
2, 382369, Note_on_c, 0, 64, 40
2, 382387, Note_on_c, 0, 54, 30
2, 382395, Note_on_c, 0, 60, 39
2, 382409, Note_on_c, 0, 59, 37
2, 382641, Note_on_c, 0, 60, 0
2, 382643, Note_on_c, 0, 59, 0
2, 382837, Note_on_c, 0, 64, 0
2, 382916, Note_on_c, 0, 60, 20
2, 383055, Note_on_c, 0, 71, 61
2, 383084, Note_on_c, 0, 64, 31
2, 383178, Note_on_c, 0, 71, 0
2, 383181, Note_on_c, 0, 64, 0
2, 383245, Note_on_c, 0, 60, 0
2, 383365, Note_on_c, 0, 71, 83
2, 383428, Note_on_c, 0, 64, 33
2, 383448, Note_on_c, 0, 60, 28
2, 383490, Note_on_c, 0, 71, 0
2, 383523, Note_on_c, 0, 64, 0
2, 383562, Note_on_c, 0, 72, 71
2, 383574, Note_on_c, 0, 71, 38
2, 383633, Note_on_c, 0, 71, 0
2, 383709, Note_on_c, 0, 54, 0
2, 383823, Note_on_c, 0, 72, 0
2, 383907, Note_on_c, 0, 60, 0
2, 384012, Note_on_c, 0, 60, 18
2, 384019, Note_on_c, 0, 75, 71
2, 384025, Note_on_c, 0, 63, 37
2, 384064, Note_on_c, 0, 54, 35
2, 384072, Note_on_c, 0, 57, 31
2, 384196, Note_on_c, 0, 75, 0
2, 384374, Note_on_c, 0, 63, 0
2, 384485, Note_on_c, 0, 75, 68
2, 384665, Note_on_c, 0, 75, 0
2, 384797, Note_on_c, 0, 75, 50
2, 384909, Note_on_c, 0, 75, 0
2, 384986, Note_on_c, 0, 75, 62
2, 385115, Note_on_c, 0, 57, 0
2, 385125, Note_on_c, 0, 60, 0
2, 385225, Note_on_c, 0, 54, 0
2, 385262, Note_on_c, 0, 75, 0
2, 385458, Note_on_c, 0, 63, 29
2, 385467, Note_on_c, 0, 54, 30
2, 385469, Note_on_c, 0, 75, 55
2, 385480, Note_on_c, 0, 60, 22
2, 385495, Note_on_c, 0, 57, 32
2, 385697, Note_on_c, 0, 75, 0
2, 385701, Note_on_c, 0, 63, 0
2, 385728, Note_on_c, 0, 60, 0
2, 385743, Note_on_c, 0, 57, 0
2, 385754, Note_on_c, 0, 54, 0
2, 385966, Note_on_c, 0, 75, 55
2, 385972, Note_on_c, 0, 63, 33
2, 386001, Note_on_c, 0, 54, 28
2, 386030, Note_on_c, 0, 60, 26
2, 386032, Note_on_c, 0, 57, 26
2, 386110, Note_on_c, 0, 75, 0
2, 386121, Note_on_c, 0, 60, 0
2, 386138, Note_on_c, 0, 63, 0
2, 386176, Note_on_c, 0, 57, 0
2, 386264, Note_on_c, 0, 75, 37
2, 386279, Note_on_c, 0, 63, 35
2, 386383, Note_on_c, 0, 75, 0
2, 386403, Note_on_c, 0, 63, 0
2, 386469, Note_on_c, 0, 54, 0
2, 386718, Note_on_c, 0, 75, 60
2, 386727, Note_on_c, 0, 63, 36
2, 386738, Note_on_c, 0, 54, 35
2, 386760, Note_on_c, 0, 57, 41
2, 386780, Note_on_c, 0, 60, 30
2, 387241, Note_on_c, 0, 60, 0
2, 387293, Note_on_c, 0, 63, 0
2, 387311, Control_c, 0, 64, 127
2, 387326, Note_on_c, 0, 57, 0
2, 387490, Note_on_c, 0, 54, 0
2, 387558, Note_on_c, 0, 75, 0
2, 387782, Control_c, 0, 64, 0
2, 387823, Note_on_c, 0, 64, 51
2, 387827, Note_on_c, 0, 53, 45
2, 387834, Note_on_c, 0, 59, 50
2, 388463, Note_on_c, 0, 53, 0
2, 388467, Note_on_c, 0, 64, 0
2, 388477, Note_on_c, 0, 59, 0
2, 389137, Note_on_c, 0, 65, 42
2, 389155, Note_on_c, 0, 57, 38
2, 389180, Note_on_c, 0, 60, 30
2, 389194, Note_on_c, 0, 65, 0
2, 389231, Note_on_c, 0, 57, 0
2, 389238, Note_on_c, 0, 60, 0
2, 389283, Note_on_c, 0, 77, 90
2, 389284, Note_on_c, 0, 76, 91
2, 389531, Note_on_c, 0, 77, 0
2, 389612, Note_on_c, 0, 76, 0
2, 389749, Note_on_c, 0, 75, 77
2, 390022, Note_on_c, 0, 75, 0
2, 390078, Note_on_c, 0, 74, 68
2, 390093, Note_on_c, 0, 65, 41
2, 390125, Note_on_c, 0, 57, 27
2, 390151, Note_on_c, 0, 65, 0
2, 390228, Note_on_c, 0, 74, 0
2, 390314, Note_on_c, 0, 57, 0
2, 390556, Note_on_c, 0, 69, 50
2, 390702, Note_on_c, 0, 69, 0
2, 391017, Note_on_c, 0, 65, 43
2, 391064, Note_on_c, 0, 57, 30
2, 391066, Note_on_c, 0, 60, 31
2, 391072, Note_on_c, 0, 65, 0
2, 391081, Note_on_c, 0, 58, 21
2, 391124, Note_on_c, 0, 60, 0
2, 391130, Note_on_c, 0, 58, 0
2, 391197, Note_on_c, 0, 57, 0
2, 391479, Note_on_c, 0, 71, 62
2, 391606, Note_on_c, 0, 71, 0
2, 391647, Note_on_c, 0, 62, 41
2, 391681, Note_on_c, 0, 74, 78
2, 391684, Note_on_c, 0, 57, 31
2, 391729, Note_on_c, 0, 62, 0
2, 391754, Note_on_c, 0, 57, 0
2, 391983, Note_on_c, 0, 74, 0
2, 392003, Note_on_c, 0, 71, 46
2, 392126, Note_on_c, 0, 71, 0
2, 392163, Note_on_c, 0, 72, 59
2, 392402, Note_on_c, 0, 72, 0
2, 392488, Note_on_c, 0, 57, 20
2, 392506, Note_on_c, 0, 52, 17
2, 392581, Note_on_c, 0, 52, 0
2, 392601, Note_on_c, 0, 57, 0
2, 392631, Note_on_c, 0, 72, 37
2, 392861, Note_on_c, 0, 72, 0
2, 393582, Note_on_c, 0, 62, 34
2, 393598, Note_on_c, 0, 52, 29
2, 393605, Note_on_c, 0, 57, 38
2, 393675, Note_on_c, 0, 57, 0
2, 393693, Note_on_c, 0, 62, 0
2, 393699, Note_on_c, 0, 52, 0
2, 394378, Note_on_c, 0, 62, 41
2, 394381, Note_on_c, 0, 57, 46
2, 394439, Note_on_c, 0, 62, 0
2, 394444, Note_on_c, 0, 57, 0
2, 395003, Note_on_c, 0, 76, 74
2, 395004, Note_on_c, 0, 69, 68
2, 395007, Note_on_c, 0, 71, 65
2, 395010, Note_on_c, 0, 65, 71
2, 395020, Note_on_c, 0, 64, 67
2, 395307, Note_on_c, 0, 65, 0
2, 395311, Note_on_c, 0, 69, 0
2, 395324, Note_on_c, 0, 71, 0
2, 395332, Note_on_c, 0, 76, 0
2, 395348, Note_on_c, 0, 64, 0
2, 395372, Note_on_c, 0, 62, 38
2, 395520, Note_on_c, 0, 76, 65
2, 395522, Note_on_c, 0, 62, 0
2, 395531, Note_on_c, 0, 65, 59
2, 395538, Note_on_c, 0, 71, 62
2, 395540, Note_on_c, 0, 69, 62
2, 395547, Note_on_c, 0, 64, 46
2, 395728, Note_on_c, 0, 65, 0
2, 395746, Note_on_c, 0, 76, 0
2, 395756, Note_on_c, 0, 69, 0
2, 395763, Note_on_c, 0, 64, 0
2, 395783, Note_on_c, 0, 71, 0
2, 396830, Note_on_c, 0, 58, 39
2, 396953, Note_on_c, 0, 70, 65
2, 396954, Note_on_c, 0, 65, 71
2, 396958, Note_on_c, 0, 74, 69
2, 396997, Note_on_c, 0, 62, 55
2, 397013, Note_on_c, 0, 58, 0
2, 397276, Note_on_c, 0, 62, 0
2, 397280, Note_on_c, 0, 65, 0
2, 397282, Note_on_c, 0, 74, 0
2, 397297, Note_on_c, 0, 70, 0
2, 397341, Note_on_c, 0, 60, 26
2, 397445, Note_on_c, 0, 60, 0
2, 397470, Note_on_c, 0, 62, 45
2, 397480, Note_on_c, 0, 74, 65
2, 397485, Note_on_c, 0, 70, 57
2, 397487, Note_on_c, 0, 65, 62
2, 397624, Note_on_c, 0, 62, 0
2, 397675, Note_on_c, 0, 74, 0
2, 397678, Note_on_c, 0, 65, 0
2, 397745, Note_on_c, 0, 70, 0
2, 398301, Note_on_c, 0, 56, 37
2, 398411, Note_on_c, 0, 64, 64
2, 398413, Note_on_c, 0, 60, 53
2, 398415, Note_on_c, 0, 72, 64
2, 398417, Note_on_c, 0, 67, 65
2, 398439, Note_on_c, 0, 56, 0
2, 398645, Note_on_c, 0, 72, 0
2, 398689, Note_on_c, 0, 67, 0
2, 398695, Note_on_c, 0, 64, 0
2, 398739, Note_on_c, 0, 60, 0
2, 398768, Note_on_c, 0, 56, 29
2, 398790, Note_on_c, 0, 58, 42
2, 398853, Note_on_c, 0, 56, 0
2, 398897, Note_on_c, 0, 72, 62
2, 398909, Note_on_c, 0, 67, 70
2, 398915, Note_on_c, 0, 60, 38
2, 398929, Note_on_c, 0, 64, 63
2, 398965, Note_on_c, 0, 58, 0
2, 399103, Note_on_c, 0, 72, 0
2, 399113, Note_on_c, 0, 67, 0
2, 399164, Note_on_c, 0, 60, 0
2, 399171, Note_on_c, 0, 64, 0
2, 399291, Note_on_c, 0, 55, 22
2, 399336, Note_on_c, 0, 56, 23
2, 399369, Note_on_c, 0, 71, 61
2, 399372, Note_on_c, 0, 55, 0
2, 399383, Note_on_c, 0, 56, 0
2, 399391, Note_on_c, 0, 60, 48
2, 399401, Note_on_c, 0, 59, 53
2, 399405, Note_on_c, 0, 64, 54
2, 399417, Note_on_c, 0, 67, 32
2, 399681, Note_on_c, 0, 64, 0
2, 399686, Note_on_c, 0, 71, 0
2, 399688, Note_on_c, 0, 59, 0
2, 399697, Note_on_c, 0, 67, 0
2, 399738, Note_on_c, 0, 60, 0
2, 399758, Note_on_c, 0, 57, 36
2, 399888, Note_on_c, 0, 60, 45
2, 399889, Note_on_c, 0, 71, 59
2, 399899, Note_on_c, 0, 64, 55
2, 399904, Note_on_c, 0, 57, 0
2, 399907, Note_on_c, 0, 67, 42
2, 399917, Note_on_c, 0, 59, 45
2, 400140, Note_on_c, 0, 64, 0
2, 400142, Note_on_c, 0, 59, 0
2, 400146, Note_on_c, 0, 71, 0
2, 400151, Note_on_c, 0, 67, 0
2, 400155, Note_on_c, 0, 60, 0
2, 401287, Note_on_c, 0, 57, 25
2, 401328, Note_on_c, 0, 64, 51
2, 401330, Note_on_c, 0, 71, 55
2, 401335, Note_on_c, 0, 60, 55
2, 401338, Note_on_c, 0, 59, 48
2, 401345, Note_on_c, 0, 57, 0
2, 401352, Note_on_c, 0, 67, 45
2, 401594, Note_on_c, 0, 71, 0
2, 401597, Note_on_c, 0, 67, 0
2, 401598, Note_on_c, 0, 59, 0
2, 401600, Note_on_c, 0, 60, 0
2, 401604, Note_on_c, 0, 64, 0
2, 401649, Note_on_c, 0, 57, 36
2, 401799, Note_on_c, 0, 71, 60
2, 401807, Note_on_c, 0, 57, 0
2, 401811, Note_on_c, 0, 64, 56
2, 401813, Note_on_c, 0, 60, 56
2, 401817, Note_on_c, 0, 59, 50
2, 401820, Note_on_c, 0, 67, 53
2, 402011, Note_on_c, 0, 60, 0
2, 402027, Note_on_c, 0, 71, 0
2, 402029, Note_on_c, 0, 67, 0
2, 402037, Note_on_c, 0, 64, 0
2, 402102, Note_on_c, 0, 59, 0
2, 402285, Note_on_c, 0, 71, 61
2, 402286, Note_on_c, 0, 64, 56
2, 402292, Note_on_c, 0, 59, 54
2, 402299, Note_on_c, 0, 60, 55
2, 402314, Note_on_c, 0, 67, 40
2, 402487, Note_on_c, 0, 60, 0
2, 402502, Note_on_c, 0, 64, 0
2, 402512, Note_on_c, 0, 71, 0
2, 402526, Note_on_c, 0, 59, 0
2, 402531, Note_on_c, 0, 67, 0
2, 402610, Note_on_c, 0, 57, 32
2, 402762, Note_on_c, 0, 71, 54
2, 402764, Note_on_c, 0, 64, 55
2, 402765, Note_on_c, 0, 60, 54
2, 402766, Note_on_c, 0, 57, 0
2, 402782, Note_on_c, 0, 67, 44
2, 402784, Note_on_c, 0, 59, 46
2, 402969, Note_on_c, 0, 67, 0
2, 402991, Note_on_c, 0, 64, 0
2, 403015, Note_on_c, 0, 60, 0
2, 403021, Note_on_c, 0, 71, 0
2, 403061, Note_on_c, 0, 59, 0
2, 403121, Note_on_c, 0, 57, 43
2, 403251, Note_on_c, 0, 64, 51
2, 403254, Note_on_c, 0, 60, 49
2, 403258, Note_on_c, 0, 68, 46
2, 403259, Note_on_c, 0, 71, 54
2, 403260, Note_on_c, 0, 57, 0
2, 403282, Note_on_c, 0, 59, 48
2, 403516, Note_on_c, 0, 71, 0
2, 403519, Note_on_c, 0, 60, 0
2, 403523, Note_on_c, 0, 64, 0
2, 403537, Note_on_c, 0, 68, 0
2, 403542, Note_on_c, 0, 59, 0
2, 403585, Note_on_c, 0, 57, 43
2, 403727, Note_on_c, 0, 57, 0
2, 403734, Note_on_c, 0, 71, 56
2, 403743, Note_on_c, 0, 60, 46
2, 403750, Note_on_c, 0, 59, 48
2, 403754, Note_on_c, 0, 64, 55
2, 403764, Note_on_c, 0, 68, 42
2, 403984, Note_on_c, 0, 71, 0
2, 404001, Note_on_c, 0, 64, 0
2, 404003, Note_on_c, 0, 68, 0
2, 404010, Note_on_c, 0, 60, 0
2, 404020, Note_on_c, 0, 59, 0
2, 404065, Note_on_c, 0, 57, 37
2, 404219, Note_on_c, 0, 57, 0
2, 404241, Note_on_c, 0, 71, 58
2, 404243, Note_on_c, 0, 60, 51
2, 404246, Note_on_c, 0, 64, 50
2, 404263, Note_on_c, 0, 59, 45
2, 404265, Note_on_c, 0, 68, 42
2, 404444, Note_on_c, 0, 60, 0
2, 404471, Note_on_c, 0, 68, 0
2, 404474, Note_on_c, 0, 71, 0
2, 404492, Note_on_c, 0, 64, 0
2, 404526, Note_on_c, 0, 59, 0
2, 404554, Note_on_c, 0, 60, 28
2, 404569, Note_on_c, 0, 57, 46
2, 404573, Note_on_c, 0, 69, 41
2, 404576, Note_on_c, 0, 64, 14
2, 404624, Note_on_c, 0, 60, 0
2, 404636, Note_on_c, 0, 64, 0
2, 404638, Note_on_c, 0, 57, 0
2, 404652, Note_on_c, 0, 69, 0
2, 405908, Note_on_c, 0, 59, 47
2, 405974, Note_on_c, 0, 59, 0
2, 406058, Note_on_c, 0, 70, 83
2, 406293, Note_on_c, 0, 70, 0
2, 406359, Note_on_c, 0, 71, 64
2, 406524, Note_on_c, 0, 71, 0
2, 406806, Note_on_c, 0, 70, 73
2, 406965, Note_on_c, 0, 70, 0
2, 407043, Note_on_c, 0, 69, 52
2, 407295, Note_on_c, 0, 69, 0
2, 407508, Note_on_c, 0, 69, 59
2, 407666, Note_on_c, 0, 69, 0
2, 407790, Note_on_c, 0, 69, 52
2, 407910, Note_on_c, 0, 69, 0
2, 408012, Note_on_c, 0, 69, 53
2, 408247, Note_on_c, 0, 69, 0
2, 408275, Note_on_c, 0, 64, 54
2, 408391, Note_on_c, 0, 64, 0
2, 408492, Note_on_c, 0, 64, 39
2, 408810, Note_on_c, 0, 64, 0
2, 408832, Note_on_c, 0, 57, 18
2, 408837, Note_on_c, 0, 59, 11
2, 408953, Note_on_c, 0, 57, 0
2, 408965, Note_on_c, 0, 64, 44
2, 408968, Note_on_c, 0, 59, 0
2, 409323, Note_on_c, 0, 59, 29
2, 409344, Note_on_c, 0, 57, 32
2, 409393, Note_on_c, 0, 64, 0
2, 409444, Note_on_c, 0, 59, 0
2, 409447, Note_on_c, 0, 66, 49
2, 409517, Note_on_c, 0, 57, 0
2, 409867, Note_on_c, 0, 66, 0
2, 409923, Note_on_c, 0, 62, 35
2, 410306, Note_on_c, 0, 57, 32
2, 410377, Note_on_c, 0, 57, 0
2, 410394, Note_on_c, 0, 64, 53
2, 410421, Note_on_c, 0, 62, 0
2, 410820, Note_on_c, 0, 64, 0
2, 410867, Note_on_c, 0, 59, 42
2, 411321, Note_on_c, 0, 59, 0
2, 411368, Note_on_c, 0, 62, 50
2, 411500, Note_on_c, 0, 62, 0
2, 411867, Note_on_c, 0, 62, 32
2, 411893, Note_on_c, 0, 57, 34
2, 411910, Note_on_c, 0, 59, 28
2, 411968, Note_on_c, 0, 59, 0
2, 411968, Note_on_c, 0, 62, 0
2, 411977, Note_on_c, 0, 57, 0
2, 412667, Note_on_c, 0, 62, 32
2, 412685, Note_on_c, 0, 57, 31
2, 412689, Note_on_c, 0, 59, 30
2, 412726, Note_on_c, 0, 62, 0
2, 412752, Note_on_c, 0, 59, 0
2, 412763, Note_on_c, 0, 57, 0
2, 413580, Note_on_c, 0, 62, 40
2, 413619, Note_on_c, 0, 59, 34
2, 413622, Note_on_c, 0, 57, 35
2, 413638, Note_on_c, 0, 62, 0
2, 413685, Note_on_c, 0, 59, 0
2, 413697, Note_on_c, 0, 57, 0
2, 413770, Note_on_c, 0, 81, 57
2, 413798, Note_on_c, 0, 69, 49
2, 414040, Note_on_c, 0, 81, 0
2, 414059, Note_on_c, 0, 57, 45
2, 414080, Note_on_c, 0, 69, 0
2, 414231, Note_on_c, 0, 70, 70
2, 414235, Note_on_c, 0, 82, 76
2, 414241, Note_on_c, 0, 57, 0
2, 414465, Note_on_c, 0, 82, 0
2, 414538, Note_on_c, 0, 70, 0
2, 414667, Note_on_c, 0, 62, 32
2, 414680, Note_on_c, 0, 58, 37
2, 414699, Note_on_c, 0, 57, 26
2, 414702, Note_on_c, 0, 81, 40
2, 414721, Note_on_c, 0, 53, 27
2, 414738, Note_on_c, 0, 69, 25
2, 414981, Note_on_c, 0, 81, 0
2, 415027, Note_on_c, 0, 69, 0
2, 415197, Note_on_c, 0, 82, 62
2, 415204, Note_on_c, 0, 70, 53
2, 415386, Note_on_c, 0, 62, 0
2, 415457, Note_on_c, 0, 58, 0
2, 415508, Note_on_c, 0, 82, 0
2, 415525, Note_on_c, 0, 70, 0
2, 415658, Note_on_c, 0, 58, 18
2, 415664, Note_on_c, 0, 62, 31
2, 415677, Note_on_c, 0, 81, 54
2, 415713, Note_on_c, 0, 69, 28
2, 415984, Note_on_c, 0, 69, 0
2, 416039, Note_on_c, 0, 81, 0
2, 416182, Note_on_c, 0, 53, 0
2, 416193, Note_on_c, 0, 79, 34
2, 416198, Note_on_c, 0, 62, 0
2, 416257, Note_on_c, 0, 58, 0
2, 416258, Note_on_c, 0, 57, 0
2, 416409, Note_on_c, 0, 79, 0
2, 416449, Note_on_c, 0, 81, 43
2, 416480, Note_on_c, 0, 58, 36
2, 416487, Note_on_c, 0, 62, 33
2, 416526, Note_on_c, 0, 57, 22
2, 416536, Note_on_c, 0, 53, 24
2, 416575, Note_on_c, 0, 81, 0
2, 416599, Note_on_c, 0, 57, 0
2, 416625, Note_on_c, 0, 53, 0
2, 416646, Note_on_c, 0, 62, 0
2, 416670, Note_on_c, 0, 58, 0
2, 417402, Note_on_c, 0, 62, 36
2, 417424, Note_on_c, 0, 58, 35
2, 417426, Note_on_c, 0, 57, 30
2, 417505, Note_on_c, 0, 57, 0
2, 417513, Note_on_c, 0, 62, 0
2, 417539, Note_on_c, 0, 58, 0
2, 418069, Note_on_c, 0, 62, 44
2, 418094, Note_on_c, 0, 58, 36
2, 418113, Note_on_c, 0, 52, 34
2, 418156, Note_on_c, 0, 62, 0
2, 418193, Note_on_c, 0, 52, 0
2, 418209, Note_on_c, 0, 58, 0
2, 418834, Note_on_c, 0, 62, 46
2, 418837, Note_on_c, 0, 58, 39
2, 418950, Note_on_c, 0, 62, 0
2, 418976, Note_on_c, 0, 58, 0
2, 419511, Note_on_c, 0, 62, 41
2, 419518, Note_on_c, 0, 58, 42
2, 419544, Note_on_c, 0, 52, 30
2, 419587, Note_on_c, 0, 62, 0
2, 419627, Note_on_c, 0, 52, 0
2, 419647, Note_on_c, 0, 58, 0
2, 420009, Note_on_c, 0, 92, 80
2, 420012, Note_on_c, 0, 80, 79
2, 420057, Note_on_c, 0, 90, 35
2, 420243, Note_on_c, 0, 80, 0
2, 420259, Note_on_c, 0, 92, 0
2, 420295, Note_on_c, 0, 81, 70
2, 420302, Note_on_c, 0, 93, 73
2, 420317, Note_on_c, 0, 62, 48
2, 420321, Note_on_c, 0, 58, 44
2, 420350, Note_on_c, 0, 52, 37
2, 420427, Note_on_c, 0, 62, 0
2, 420440, Note_on_c, 0, 93, 0
2, 420444, Note_on_c, 0, 81, 0
2, 420452, Note_on_c, 0, 52, 0
2, 420467, Note_on_c, 0, 58, 0
2, 420488, Note_on_c, 0, 90, 0
2, 420624, Note_on_c, 0, 91, 36
2, 420624, Note_on_c, 0, 93, 36
2, 420683, Note_on_c, 0, 93, 0
2, 420687, Note_on_c, 0, 91, 0
2, 421276, Note_on_c, 0, 62, 58
2, 421280, Note_on_c, 0, 58, 51
2, 421323, Note_on_c, 0, 62, 0
2, 421327, Note_on_c, 0, 52, 26
2, 421384, Note_on_c, 0, 52, 0
2, 421391, Note_on_c, 0, 58, 0
2, 421450, Note_on_c, 0, 80, 76
2, 421451, Note_on_c, 0, 92, 85
2, 421667, Note_on_c, 0, 80, 0
2, 421686, Note_on_c, 0, 92, 0
2, 421743, Note_on_c, 0, 91, 51
2, 421746, Note_on_c, 0, 93, 54
2, 421754, Note_on_c, 0, 58, 42
2, 421757, Note_on_c, 0, 52, 47
2, 421761, Note_on_c, 0, 62, 36
2, 421772, Note_on_c, 0, 90, 33
2, 421810, Note_on_c, 0, 93, 0
2, 421841, Note_on_c, 0, 90, 0
2, 421852, Note_on_c, 0, 91, 0
2, 422015, Note_on_c, 0, 76, 35
2, 422088, Note_on_c, 0, 52, 0
2, 422134, Note_on_c, 0, 76, 0
2, 422187, Note_on_c, 0, 58, 0
2, 422190, Note_on_c, 0, 62, 0
2, 422244, Note_on_c, 0, 77, 73
2, 422264, Note_on_c, 0, 89, 64
2, 422323, Note_on_c, 0, 89, 0
2, 422337, Note_on_c, 0, 77, 0
2, 422380, Note_on_c, 0, 64, 40
2, 422391, Note_on_c, 0, 57, 53
2, 422395, Note_on_c, 0, 60, 35
2, 422417, Note_on_c, 0, 53, 24
2, 422453, Note_on_c, 0, 79, 68
2, 422460, Note_on_c, 0, 91, 58
2, 422692, Note_on_c, 0, 60, 0
2, 422698, Note_on_c, 0, 91, 0
2, 422758, Note_on_c, 0, 79, 0
2, 422786, Note_on_c, 0, 64, 0
2, 422867, Note_on_c, 0, 53, 0
2, 422888, Note_on_c, 0, 91, 66
2, 422901, Note_on_c, 0, 79, 43
2, 422914, Note_on_c, 0, 86, 58
2, 422952, Note_on_c, 0, 57, 0
2, 423060, Note_on_c, 0, 91, 0
2, 423075, Note_on_c, 0, 86, 0
2, 423093, Note_on_c, 0, 79, 0
2, 423181, Note_on_c, 0, 91, 54
2, 423185, Note_on_c, 0, 64, 40
2, 423201, Note_on_c, 0, 79, 46
2, 423204, Note_on_c, 0, 86, 46
2, 423233, Note_on_c, 0, 60, 28
2, 423248, Note_on_c, 0, 57, 36
2, 423251, Note_on_c, 0, 64, 0
2, 423299, Note_on_c, 0, 86, 0
2, 423318, Note_on_c, 0, 91, 0
2, 423322, Note_on_c, 0, 79, 0
2, 423379, Note_on_c, 0, 60, 0
2, 423391, Note_on_c, 0, 91, 43
2, 423424, Note_on_c, 0, 79, 26
2, 423426, Note_on_c, 0, 86, 55
2, 423446, Note_on_c, 0, 57, 0
2, 423638, Note_on_c, 0, 86, 0
2, 423660, Note_on_c, 0, 91, 0
2, 423673, Note_on_c, 0, 79, 0
2, 423863, Note_on_c, 0, 91, 57
2, 423885, Note_on_c, 0, 86, 58
2, 423899, Note_on_c, 0, 79, 34
2, 424099, Note_on_c, 0, 91, 0
2, 424151, Note_on_c, 0, 86, 0
2, 424236, Note_on_c, 0, 79, 0
2, 424293, Note_on_c, 0, 64, 46
2, 424338, Note_on_c, 0, 60, 31
2, 424341, Note_on_c, 0, 57, 35
2, 424419, Note_on_c, 0, 60, 0
2, 424451, Note_on_c, 0, 64, 0
2, 424542, Note_on_c, 0, 57, 0
2, 425077, Note_on_c, 0, 69, 60
2, 425085, Note_on_c, 0, 72, 53
2, 425087, Note_on_c, 0, 76, 47
2, 425088, Note_on_c, 0, 64, 49
2, 425098, Note_on_c, 0, 79, 38
2, 425144, Note_on_c, 0, 64, 0
2, 425165, Note_on_c, 0, 79, 0
2, 425188, Note_on_c, 0, 69, 0
2, 425201, Note_on_c, 0, 72, 0
2, 425221, Note_on_c, 0, 76, 0
2, 425298, Note_on_c, 0, 79, 56
2, 425312, Note_on_c, 0, 64, 43
2, 425326, Note_on_c, 0, 72, 41
2, 425337, Note_on_c, 0, 69, 24
2, 425341, Note_on_c, 0, 76, 53
2, 425487, Note_on_c, 0, 76, 0
2, 425491, Note_on_c, 0, 72, 0
2, 425495, Note_on_c, 0, 69, 0
2, 425503, Note_on_c, 0, 79, 0
2, 425520, Note_on_c, 0, 64, 0
2, 425539, Note_on_c, 0, 62, 34
2, 425567, Note_on_c, 0, 77, 53
2, 425689, Note_on_c, 0, 77, 0
2, 425691, Note_on_c, 0, 62, 0
2, 425752, Note_on_c, 0, 64, 35
2, 425757, Note_on_c, 0, 79, 57
2, 425759, Note_on_c, 0, 69, 31
2, 425783, Note_on_c, 0, 72, 27
2, 425809, Note_on_c, 0, 76, 30
2, 425915, Note_on_c, 0, 72, 0
2, 425923, Note_on_c, 0, 64, 0
2, 425936, Note_on_c, 0, 76, 0
2, 425942, Note_on_c, 0, 69, 0
2, 425953, Note_on_c, 0, 79, 0
2, 426074, Note_on_c, 0, 79, 36
2, 426102, Note_on_c, 0, 64, 31
2, 426163, Note_on_c, 0, 79, 0
2, 426164, Note_on_c, 0, 64, 0
2, 426508, Note_on_c, 0, 79, 66
2, 426515, Note_on_c, 0, 69, 60
2, 426530, Note_on_c, 0, 64, 57
2, 426552, Note_on_c, 0, 72, 37
2, 426622, Note_on_c, 0, 72, 0
2, 426658, Note_on_c, 0, 69, 0
2, 426659, Note_on_c, 0, 79, 0
2, 426662, Note_on_c, 0, 64, 0
2, 426994, Note_on_c, 0, 64, 56
2, 426996, Note_on_c, 0, 79, 64
2, 427012, Note_on_c, 0, 69, 46
2, 427065, Note_on_c, 0, 64, 0
2, 427072, Note_on_c, 0, 79, 0
2, 427080, Note_on_c, 0, 69, 0
2, 427175, Note_on_c, 0, 79, 47
2, 427190, Note_on_c, 0, 69, 42
2, 427212, Note_on_c, 0, 64, 44
2, 427225, Note_on_c, 0, 72, 38
2, 427241, Note_on_c, 0, 76, 31
2, 427354, Note_on_c, 0, 76, 0
2, 427367, Note_on_c, 0, 69, 0
2, 427383, Note_on_c, 0, 72, 0
2, 427393, Note_on_c, 0, 79, 0
2, 427409, Note_on_c, 0, 64, 0
2, 427456, Note_on_c, 0, 62, 39
2, 427488, Note_on_c, 0, 77, 43
2, 427559, Note_on_c, 0, 77, 0
2, 427620, Note_on_c, 0, 62, 0
2, 427654, Note_on_c, 0, 64, 47
2, 427662, Note_on_c, 0, 79, 58
2, 427672, Note_on_c, 0, 69, 34
2, 427680, Note_on_c, 0, 72, 30
2, 427686, Note_on_c, 0, 76, 40
2, 427782, Note_on_c, 0, 72, 0
2, 427814, Note_on_c, 0, 69, 0
2, 427818, Note_on_c, 0, 64, 0
2, 427832, Note_on_c, 0, 76, 0
2, 427833, Note_on_c, 0, 79, 0
2, 428093, Note_on_c, 0, 64, 40
2, 428154, Note_on_c, 0, 64, 0
2, 428423, Note_on_c, 0, 79, 66
2, 428430, Note_on_c, 0, 69, 65
2, 428433, Note_on_c, 0, 64, 60
2, 428444, Note_on_c, 0, 72, 57
2, 428445, Note_on_c, 0, 76, 53
2, 428579, Note_on_c, 0, 72, 0
2, 428595, Note_on_c, 0, 64, 0
2, 428609, Note_on_c, 0, 79, 0
2, 428612, Note_on_c, 0, 69, 0
2, 428620, Note_on_c, 0, 76, 0
2, 428898, Note_on_c, 0, 76, 60
2, 428901, Note_on_c, 0, 62, 57
2, 428937, Note_on_c, 0, 72, 32
2, 428998, Note_on_c, 0, 72, 0
2, 429029, Note_on_c, 0, 62, 0
2, 429034, Note_on_c, 0, 76, 0
2, 429095, Note_on_c, 0, 64, 58
2, 429106, Note_on_c, 0, 79, 69
2, 429121, Note_on_c, 0, 69, 44
2, 429155, Note_on_c, 0, 72, 33
2, 429223, Note_on_c, 0, 72, 0
2, 429254, Note_on_c, 0, 69, 0
2, 429286, Note_on_c, 0, 64, 0
2, 429294, Note_on_c, 0, 79, 0
2, 429382, Note_on_c, 0, 62, 44
2, 429409, Note_on_c, 0, 77, 38
2, 429476, Note_on_c, 0, 77, 0
2, 429519, Note_on_c, 0, 62, 0
2, 429559, Note_on_c, 0, 69, 55
2, 429560, Note_on_c, 0, 79, 62
2, 429564, Note_on_c, 0, 64, 53
2, 429578, Note_on_c, 0, 72, 38
2, 429662, Note_on_c, 0, 72, 0
2, 429736, Note_on_c, 0, 69, 0
2, 429762, Note_on_c, 0, 79, 0
2, 429861, Note_on_c, 0, 64, 0
2, 429940, Note_on_c, 0, 63, 30
2, 429988, Note_on_c, 0, 63, 0
2, 430029, Note_on_c, 0, 68, 59
2, 430036, Note_on_c, 0, 72, 53
2, 430037, Note_on_c, 0, 79, 67
2, 430062, Note_on_c, 0, 67, 59
2, 430064, Note_on_c, 0, 75, 39
2, 430259, Note_on_c, 0, 79, 0
2, 430271, Note_on_c, 0, 68, 0
2, 430286, Note_on_c, 0, 67, 0
2, 430288, Note_on_c, 0, 75, 0
2, 430303, Note_on_c, 0, 72, 0
2, 430368, Note_on_c, 0, 66, 44
2, 430497, Note_on_c, 0, 66, 0
2, 430570, Note_on_c, 0, 77, 65
2, 430574, Note_on_c, 0, 68, 53
2, 430586, Note_on_c, 0, 72, 58
2, 430592, Note_on_c, 0, 65, 60
2, 430780, Note_on_c, 0, 77, 0
2, 430782, Note_on_c, 0, 68, 0
2, 430783, Note_on_c, 0, 65, 0
2, 430815, Note_on_c, 0, 72, 0
2, 431343, Note_on_c, 0, 65, 51
2, 431347, Note_on_c, 0, 72, 59
2, 431349, Note_on_c, 0, 68, 53
2, 431492, Note_on_c, 0, 65, 0
2, 431514, Note_on_c, 0, 72, 0
2, 431536, Note_on_c, 0, 68, 0
2, 431819, Note_on_c, 0, 60, 34
2, 431877, Note_on_c, 0, 60, 0
2, 431978, Note_on_c, 0, 65, 52
2, 431986, Note_on_c, 0, 60, 56
2, 432004, Note_on_c, 0, 68, 42
2, 432187, Note_on_c, 0, 65, 0
2, 432198, Note_on_c, 0, 60, 0
2, 432221, Note_on_c, 0, 68, 0
2, 432953, Note_on_c, 0, 34, 68
2, 433327, Note_on_c, 0, 34, 0
2, 433455, Note_on_c, 0, 34, 69
2, 433666, Note_on_c, 0, 34, 0
2, 434225, Note_on_c, 0, 59, 37
2, 434226, Note_on_c, 0, 62, 44
2, 434227, Note_on_c, 0, 67, 46
2, 434230, Note_on_c, 0, 56, 39
2, 434255, Note_on_c, 0, 64, 33
2, 434278, Note_on_c, 0, 62, 0
2, 434281, Note_on_c, 0, 59, 0
2, 434313, Note_on_c, 0, 64, 0
2, 434314, Note_on_c, 0, 56, 0
2, 434351, Note_on_c, 0, 67, 0
2, 434856, Note_on_c, 0, 46, 59
2, 435043, Note_on_c, 0, 46, 0
2, 435588, Note_on_c, 0, 63, 56
2, 435603, Note_on_c, 0, 56, 55
2, 435613, Note_on_c, 0, 53, 36
2, 435624, Note_on_c, 0, 60, 37
2, 435628, Note_on_c, 0, 51, 57
2, 435671, Note_on_c, 0, 53, 0
2, 435713, Note_on_c, 0, 60, 0
2, 435715, Note_on_c, 0, 56, 0
2, 435763, Note_on_c, 0, 63, 0
2, 435947, Note_on_c, 0, 51, 0
2, 435980, Note_on_c, 0, 58, 64
2, 435987, Note_on_c, 0, 65, 59
2, 435991, Note_on_c, 0, 56, 56
2, 436002, Note_on_c, 0, 62, 48
2, 436013, Note_on_c, 0, 53, 44
2, 436317, Note_on_c, 0, 62, 0
2, 436349, Note_on_c, 0, 58, 0
2, 436359, Note_on_c, 0, 56, 0
2, 436372, Note_on_c, 0, 65, 0
2, 436383, Note_on_c, 0, 53, 0
2, 436434, Note_on_c, 0, 51, 30
2, 436668, Note_on_c, 0, 65, 60
2, 436675, Note_on_c, 0, 56, 55
2, 436681, Note_on_c, 0, 58, 58
2, 436696, Note_on_c, 0, 62, 51
2, 436707, Note_on_c, 0, 51, 0
2, 436741, Note_on_c, 0, 53, 30
2, 437110, Note_on_c, 0, 62, 0
2, 437243, Note_on_c, 0, 51, 44
2, 437256, Note_on_c, 0, 62, 38
2, 437257, Note_on_c, 0, 65, 0
2, 437264, Note_on_c, 0, 53, 0
2, 437347, Note_on_c, 0, 56, 0
2, 437355, Note_on_c, 0, 51, 0
2, 437409, Note_on_c, 0, 58, 0
2, 437422, Note_on_c, 0, 62, 0
2, 437552, Note_on_c, 0, 50, 53
2, 437652, Note_on_c, 0, 50, 0
2, 437744, Note_on_c, 0, 67, 52
2, 437746, Note_on_c, 0, 51, 68
2, 437753, Note_on_c, 0, 62, 62
2, 437861, Note_on_c, 0, 51, 0
2, 437976, Note_on_c, 0, 67, 0
2, 437987, Note_on_c, 0, 62, 0
2, 438241, Note_on_c, 0, 51, 54
2, 438241, Note_on_c, 0, 62, 54
2, 438245, Note_on_c, 0, 67, 52
2, 438255, Note_on_c, 0, 55, 51
2, 438538, Note_on_c, 0, 51, 0
2, 438545, Note_on_c, 0, 67, 0
2, 438563, Note_on_c, 0, 55, 0
2, 438578, Note_on_c, 0, 62, 0
2, 438765, Note_on_c, 0, 51, 44
2, 438768, Note_on_c, 0, 67, 51
2, 438771, Note_on_c, 0, 62, 50
2, 438791, Note_on_c, 0, 55, 36
2, 438921, Note_on_c, 0, 62, 0
2, 439002, Note_on_c, 0, 67, 0
2, 439056, Note_on_c, 0, 55, 0
2, 439127, Note_on_c, 0, 51, 0
2, 439213, Note_on_c, 0, 62, 29
2, 439221, Note_on_c, 0, 55, 31
2, 439233, Note_on_c, 0, 58, 34
2, 439244, Note_on_c, 0, 48, 40
2, 439418, Note_on_c, 0, 55, 0
2, 439419, Note_on_c, 0, 58, 0
2, 439430, Note_on_c, 0, 48, 0
2, 439440, Note_on_c, 0, 62, 0
2, 439541, Note_on_c, 0, 58, 46
2, 439544, Note_on_c, 0, 55, 33
2, 439546, Note_on_c, 0, 62, 63
2, 439596, Note_on_c, 0, 48, 38
2, 439609, Note_on_c, 0, 55, 0
2, 439620, Note_on_c, 0, 58, 0
2, 439665, Note_on_c, 0, 48, 0
2, 439672, Note_on_c, 0, 62, 0
2, 440170, Note_on_c, 0, 85, 55
2, 440194, Note_on_c, 0, 73, 67
2, 440216, Note_on_c, 0, 82, 48
2, 440245, Note_on_c, 0, 79, 35
2, 440378, Note_on_c, 0, 73, 0
2, 440396, Note_on_c, 0, 85, 0
2, 440400, Note_on_c, 0, 74, 47
2, 440491, Note_on_c, 0, 79, 0
2, 440503, Note_on_c, 0, 82, 0
2, 440576, Note_on_c, 0, 74, 0
2, 440633, Note_on_c, 0, 86, 44
2, 440751, Note_on_c, 0, 86, 0
2, 440759, Note_on_c, 0, 74, 51
2, 440889, Note_on_c, 0, 74, 0
2, 441026, Note_on_c, 0, 74, 48
2, 441165, Note_on_c, 0, 74, 0
2, 441184, Note_on_c, 0, 86, 28
2, 441314, Note_on_c, 0, 74, 38
2, 441382, Note_on_c, 0, 86, 0
2, 441482, Note_on_c, 0, 74, 0
2, 441484, Note_on_c, 0, 86, 40
2, 441517, Note_on_c, 0, 79, 37
2, 441577, Note_on_c, 0, 62, 49
2, 441582, Note_on_c, 0, 67, 45
2, 441621, Note_on_c, 0, 74, 35
2, 441626, Note_on_c, 0, 62, 0
2, 441627, Note_on_c, 0, 63, 25
2, 441638, Note_on_c, 0, 67, 0
2, 441643, Note_on_c, 0, 79, 0
2, 441674, Note_on_c, 0, 63, 0
2, 441766, Note_on_c, 0, 74, 0
2, 441812, Note_on_c, 0, 79, 33
2, 441892, Note_on_c, 0, 79, 0
2, 441909, Note_on_c, 0, 86, 0
2, 442564, Note_on_c, 0, 67, 44
2, 442566, Note_on_c, 0, 62, 48
2, 442592, Note_on_c, 0, 63, 38
2, 442639, Note_on_c, 0, 67, 0
2, 442648, Note_on_c, 0, 63, 0
2, 442672, Note_on_c, 0, 62, 0
2, 443342, Note_on_c, 0, 63, 51
2, 443343, Note_on_c, 0, 67, 49
2, 443350, Note_on_c, 0, 62, 39
2, 443397, Note_on_c, 0, 67, 0
2, 443412, Note_on_c, 0, 62, 0
2, 443463, Note_on_c, 0, 63, 0
2, 443576, Note_on_c, 0, 74, 48
2, 443775, Note_on_c, 0, 74, 0
2, 443819, Note_on_c, 0, 75, 57
2, 443942, Note_on_c, 0, 75, 0
2, 444062, Note_on_c, 0, 79, 53
2, 444202, Note_on_c, 0, 79, 0
2, 444284, Note_on_c, 0, 82, 54
2, 444324, Note_on_c, 0, 63, 36
2, 444326, Note_on_c, 0, 62, 34
2, 444327, Note_on_c, 0, 67, 34
2, 444390, Note_on_c, 0, 67, 0
2, 444392, Note_on_c, 0, 62, 0
2, 444407, Note_on_c, 0, 63, 0
2, 444560, Note_on_c, 0, 82, 0
2, 444561, Note_on_c, 0, 86, 49
2, 444714, Note_on_c, 0, 86, 0
2, 444777, Note_on_c, 0, 89, 89
2, 444810, Note_on_c, 0, 63, 50
2, 444821, Note_on_c, 0, 67, 32
2, 444840, Note_on_c, 0, 62, 24
2, 444882, Note_on_c, 0, 67, 0
2, 444887, Note_on_c, 0, 62, 0
2, 444916, Note_on_c, 0, 63, 0
2, 444989, Note_on_c, 0, 86, 58
2, 445023, Note_on_c, 0, 89, 0
2, 445155, Note_on_c, 0, 86, 0
2, 445297, Note_on_c, 0, 89, 33
2, 445299, Note_on_c, 0, 88, 72
2, 445354, Note_on_c, 0, 89, 0
2, 445450, Note_on_c, 0, 63, 26
2, 445499, Note_on_c, 0, 57, 48
2, 445550, Note_on_c, 0, 87, 69
2, 445553, Note_on_c, 0, 63, 0
2, 445582, Note_on_c, 0, 88, 0
2, 445685, Note_on_c, 0, 87, 0
2, 445857, Note_on_c, 0, 57, 0
2, 445943, Note_on_c, 0, 87, 52
2, 446192, Note_on_c, 0, 87, 0
2, 446320, Note_on_c, 0, 63, 38
2, 446348, Note_on_c, 0, 87, 60
2, 446357, Note_on_c, 0, 57, 34
2, 446377, Note_on_c, 0, 63, 0
2, 446391, Note_on_c, 0, 55, 19
2, 446697, Note_on_c, 0, 87, 0
2, 446725, Note_on_c, 0, 55, 0
2, 446804, Note_on_c, 0, 80, 38
2, 446888, Note_on_c, 0, 57, 0
2, 447034, Note_on_c, 0, 80, 0
2, 447299, Note_on_c, 0, 80, 61
2, 448608, Note_on_c, 0, 63, 46
2, 448619, Note_on_c, 0, 57, 43
2, 448622, Note_on_c, 0, 60, 34
2, 448657, Note_on_c, 0, 63, 0
2, 448675, Note_on_c, 0, 60, 0
2, 448693, Note_on_c, 0, 57, 0
2, 449301, Note_on_c, 0, 60, 41
2, 449304, Note_on_c, 0, 63, 46
2, 449362, Note_on_c, 0, 60, 0
2, 449373, Note_on_c, 0, 54, 19
2, 449385, Note_on_c, 0, 63, 0
2, 449414, Note_on_c, 0, 80, 0
2, 449453, Note_on_c, 0, 54, 0
2, 450036, Note_on_c, 0, 60, 52
2, 450058, Note_on_c, 0, 63, 29
2, 450094, Note_on_c, 0, 60, 0
2, 450109, Note_on_c, 0, 63, 0
2, 450223, Note_on_c, 0, 80, 51
2, 450230, Note_on_c, 0, 68, 50
2, 450317, Note_on_c, 0, 74, 29
2, 450482, Note_on_c, 0, 68, 0
2, 450527, Note_on_c, 0, 81, 65
2, 450529, Note_on_c, 0, 80, 0
2, 450536, Note_on_c, 0, 69, 48
2, 450871, Note_on_c, 0, 74, 0
2, 450892, Note_on_c, 0, 81, 0
2, 450910, Note_on_c, 0, 69, 0
2, 451145, Note_on_c, 0, 80, 57
2, 451147, Note_on_c, 0, 63, 32
2, 451148, Note_on_c, 0, 60, 34
2, 451155, Note_on_c, 0, 68, 58
2, 451189, Note_on_c, 0, 54, 23
2, 451199, Note_on_c, 0, 74, 43
2, 451202, Note_on_c, 0, 63, 0
2, 451218, Note_on_c, 0, 60, 0
2, 451280, Note_on_c, 0, 54, 0
2, 451365, Note_on_c, 0, 74, 0
2, 451387, Note_on_c, 0, 80, 0
2, 451389, Note_on_c, 0, 68, 0
2, 451460, Note_on_c, 0, 69, 49
2, 451462, Note_on_c, 0, 81, 55
2, 451470, Note_on_c, 0, 74, 29
2, 451547, Note_on_c, 0, 79, 20
2, 451784, Note_on_c, 0, 81, 0
2, 451800, Note_on_c, 0, 69, 0
2, 451861, Note_on_c, 0, 79, 0
2, 451876, Note_on_c, 0, 74, 0
2, 451928, Note_on_c, 0, 60, 48
2, 451934, Note_on_c, 0, 63, 40
2, 451982, Note_on_c, 0, 63, 0
2, 451990, Note_on_c, 0, 54, 19
2, 451993, Note_on_c, 0, 60, 0
2, 452058, Note_on_c, 0, 54, 0
2, 452115, Note_on_c, 0, 80, 48
2, 452128, Note_on_c, 0, 68, 53
2, 452249, Note_on_c, 0, 68, 0
2, 452286, Note_on_c, 0, 80, 0
2, 452396, Note_on_c, 0, 81, 42
2, 452406, Note_on_c, 0, 69, 35
2, 452455, Note_on_c, 0, 81, 0
2, 452468, Note_on_c, 0, 69, 0
2, 452477, Note_on_c, 0, 63, 35
2, 452480, Note_on_c, 0, 60, 36
2, 452502, Note_on_c, 0, 54, 31
2, 452525, Note_on_c, 0, 63, 0
2, 452538, Note_on_c, 0, 60, 0
2, 452611, Note_on_c, 0, 70, 43
2, 452627, Note_on_c, 0, 82, 35
2, 452642, Note_on_c, 0, 54, 0
2, 452732, Note_on_c, 0, 70, 0
2, 452746, Note_on_c, 0, 82, 0
2, 452880, Note_on_c, 0, 71, 54
2, 452886, Note_on_c, 0, 83, 60
2, 452933, Note_on_c, 0, 83, 0
2, 452934, Note_on_c, 0, 71, 0
2, 453059, Note_on_c, 0, 59, 34
2, 453070, Note_on_c, 0, 62, 38
2, 453110, Note_on_c, 0, 73, 39
2, 453113, Note_on_c, 0, 85, 57
2, 453123, Note_on_c, 0, 54, 33
2, 453458, Note_on_c, 0, 59, 0
2, 453549, Note_on_c, 0, 73, 0
2, 453552, Note_on_c, 0, 85, 0
2, 453553, Note_on_c, 0, 86, 66
2, 453560, Note_on_c, 0, 59, 17
2, 453574, Note_on_c, 0, 74, 66
2, 453586, Note_on_c, 0, 84, 54
2, 453603, Note_on_c, 0, 82, 36
2, 453606, Note_on_c, 0, 79, 57
2, 453630, Note_on_c, 0, 62, 0
2, 453696, Note_on_c, 0, 59, 0
2, 453760, Note_on_c, 0, 86, 0
2, 453791, Note_on_c, 0, 74, 0
2, 453794, Note_on_c, 0, 84, 0
2, 453819, Note_on_c, 0, 79, 0
2, 453830, Note_on_c, 0, 54, 0
2, 453846, Note_on_c, 0, 82, 0
2, 453919, Note_on_c, 0, 54, 19
2, 453925, Note_on_c, 0, 59, 31
2, 453948, Note_on_c, 0, 62, 22
2, 454006, Note_on_c, 0, 62, 0
2, 454007, Note_on_c, 0, 59, 0
2, 454029, Note_on_c, 0, 82, 54
2, 454044, Note_on_c, 0, 70, 44
2, 454062, Note_on_c, 0, 54, 0
2, 454477, Note_on_c, 0, 82, 0
2, 454486, Note_on_c, 0, 70, 0
2, 455024, Note_on_c, 0, 59, 37
2, 455026, Note_on_c, 0, 62, 28
2, 455050, Note_on_c, 0, 54, 23
2, 455089, Note_on_c, 0, 62, 0
2, 455092, Note_on_c, 0, 59, 0
2, 455118, Note_on_c, 0, 54, 0
2, 455484, Note_on_c, 0, 83, 83
2, 455488, Note_on_c, 0, 71, 83
2, 455661, Note_on_c, 0, 71, 0
2, 455712, Note_on_c, 0, 83, 0
2, 455960, Note_on_c, 0, 79, 58
2, 456154, Note_on_c, 0, 79, 0
2, 456246, Note_on_c, 0, 76, 53
2, 456425, Note_on_c, 0, 76, 0
2, 456447, Note_on_c, 0, 72, 36
2, 456707, Note_on_c, 0, 72, 0
2, 456817, Note_on_c, 0, 69, 15
2, 456882, Note_on_c, 0, 69, 0
2, 456970, Note_on_c, 0, 76, 69
2, 456997, Note_on_c, 0, 56, 44
2, 456999, Note_on_c, 0, 62, 25
2, 457319, Note_on_c, 0, 56, 0
2, 457319, Note_on_c, 0, 76, 0
2, 457358, Note_on_c, 0, 62, 0
2, 457443, Note_on_c, 0, 72, 51
2, 457691, Note_on_c, 0, 72, 0
2, 457731, Note_on_c, 0, 68, 42
2, 457918, Note_on_c, 0, 64, 38
2, 457963, Note_on_c, 0, 56, 33
2, 458013, Note_on_c, 0, 62, 20
2, 458156, Note_on_c, 0, 64, 0
2, 458164, Note_on_c, 0, 56, 0
2, 458177, Note_on_c, 0, 68, 0
2, 458215, Note_on_c, 0, 62, 0
2, 458377, Note_on_c, 0, 68, 37
2, 458388, Note_on_c, 0, 64, 39
2, 458408, Note_on_c, 0, 56, 39
2, 458423, Note_on_c, 0, 62, 27
2, 458675, Note_on_c, 0, 64, 0
2, 458739, Note_on_c, 0, 68, 0
2, 458815, Note_on_c, 0, 56, 0
2, 458968, Note_on_c, 0, 62, 0
2, 459189, Note_on_c, 0, 62, 58
2, 459196, Note_on_c, 0, 56, 54
2, 459298, Note_on_c, 0, 62, 0
2, 459317, Note_on_c, 0, 56, 0
2, 459868, Note_on_c, 0, 62, 62
2, 459879, Note_on_c, 0, 56, 64
2, 460257, Note_on_c, 0, 62, 0
2, 460351, Note_on_c, 0, 70, 60
2, 460366, Note_on_c, 0, 69, 30
2, 460369, Note_on_c, 0, 71, 52
2, 460433, Note_on_c, 0, 70, 0
2, 460463, Note_on_c, 0, 56, 0
2, 460528, Note_on_c, 0, 69, 0
2, 460666, Note_on_c, 0, 71, 0
2, 460836, Note_on_c, 0, 64, 36
2, 460854, Note_on_c, 0, 71, 73
2, 460857, Note_on_c, 0, 60, 48
2, 460864, Note_on_c, 0, 59, 40
2, 461332, Note_on_c, 0, 71, 0
2, 461358, Note_on_c, 0, 70, 31
2, 461376, Note_on_c, 0, 64, 0
2, 461407, Note_on_c, 0, 70, 0
2, 461410, Note_on_c, 0, 59, 0
2, 461421, Note_on_c, 0, 60, 0
2, 461845, Note_on_c, 0, 64, 26
2, 461846, Note_on_c, 0, 71, 73
2, 461853, Note_on_c, 0, 60, 33
2, 461879, Note_on_c, 0, 59, 32
2, 462035, Note_on_c, 0, 64, 0
2, 462239, Note_on_c, 0, 71, 0
2, 462243, Note_on_c, 0, 60, 0
2, 462251, Note_on_c, 0, 59, 0
2, 462276, Note_on_c, 0, 70, 37
2, 462488, Note_on_c, 0, 70, 0
2, 462550, Note_on_c, 0, 71, 57
2, 462592, Note_on_c, 0, 64, 29
2, 462611, Note_on_c, 0, 60, 31
2, 462654, Note_on_c, 0, 59, 24
2, 462924, Note_on_c, 0, 60, 0
2, 463148, Note_on_c, 0, 64, 0
2, 463169, Note_on_c, 0, 71, 0
2, 463199, Note_on_c, 0, 69, 35
2, 463287, Note_on_c, 0, 59, 0
2, 463371, Note_on_c, 0, 69, 0
2, 463683, Note_on_c, 0, 67, 53
2, 463844, Note_on_c, 0, 67, 0
2, 464125, Note_on_c, 0, 60, 30
2, 464158, Note_on_c, 0, 59, 19
2, 464191, Note_on_c, 0, 66, 51
2, 464221, Note_on_c, 0, 60, 0
2, 464241, Note_on_c, 0, 59, 0
2, 464671, Note_on_c, 0, 60, 24
2, 464744, Note_on_c, 0, 60, 0
2, 465410, Note_on_c, 0, 64, 36
2, 465414, Note_on_c, 0, 60, 38
2, 465471, Note_on_c, 0, 64, 0
2, 465507, Note_on_c, 0, 60, 0
2, 465511, Note_on_c, 0, 66, 0
2, 466056, Note_on_c, 0, 64, 48
2, 466076, Note_on_c, 0, 60, 39
2, 466078, Note_on_c, 0, 54, 35
2, 466116, Note_on_c, 0, 64, 0
2, 466145, Note_on_c, 0, 60, 0
2, 466228, Note_on_c, 0, 54, 0
2, 466574, Note_on_c, 0, 70, 79
2, 466863, Note_on_c, 0, 71, 80
2, 466866, Note_on_c, 0, 64, 45
2, 466867, Note_on_c, 0, 70, 0
2, 466876, Note_on_c, 0, 60, 44
2, 466894, Note_on_c, 0, 54, 31
2, 466925, Note_on_c, 0, 64, 0
2, 467005, Note_on_c, 0, 60, 0
2, 467009, Note_on_c, 0, 54, 0
2, 467026, Note_on_c, 0, 71, 0
2, 467334, Note_on_c, 0, 70, 77
2, 467506, Note_on_c, 0, 70, 0
2, 467791, Note_on_c, 0, 66, 74
2, 467810, Note_on_c, 0, 64, 58
2, 467821, Note_on_c, 0, 54, 50
2, 467843, Note_on_c, 0, 60, 33
2, 467861, Note_on_c, 0, 64, 0
2, 467901, Note_on_c, 0, 60, 0
2, 467932, Note_on_c, 0, 66, 0
2, 467986, Note_on_c, 0, 67, 53
2, 468000, Note_on_c, 0, 54, 0
2, 468205, Note_on_c, 0, 67, 0
2, 468275, Note_on_c, 0, 68, 56
2, 468399, Note_on_c, 0, 68, 0
2, 468499, Note_on_c, 0, 69, 63
2, 468501, Note_on_c, 0, 54, 49
2, 468512, Note_on_c, 0, 50, 39
2, 468530, Note_on_c, 0, 43, 29
2, 468658, Note_on_c, 0, 50, 0
2, 468685, Note_on_c, 0, 69, 0
2, 468740, Note_on_c, 0, 54, 0
2, 468748, Note_on_c, 0, 43, 0
2, 468938, Note_on_c, 0, 54, 49
2, 468955, Note_on_c, 0, 69, 43
2, 468956, Note_on_c, 0, 43, 30
2, 468959, Note_on_c, 0, 62, 42
2, 468971, Note_on_c, 0, 66, 40
2, 468988, Note_on_c, 0, 57, 24
2, 469006, Note_on_c, 0, 59, 22
2, 469123, Note_on_c, 0, 62, 0
2, 469132, Note_on_c, 0, 69, 0
2, 469141, Note_on_c, 0, 59, 0
2, 469143, Note_on_c, 0, 66, 0
2, 469143, Note_on_c, 0, 54, 0
2, 469147, Note_on_c, 0, 43, 0
2, 469149, Note_on_c, 0, 57, 0
2, 469242, Note_on_c, 0, 69, 31
2, 469248, Note_on_c, 0, 57, 30
2, 469253, Note_on_c, 0, 62, 36
2, 469258, Note_on_c, 0, 59, 30
2, 469259, Note_on_c, 0, 54, 55
2, 469262, Note_on_c, 0, 66, 46
2, 469282, Note_on_c, 0, 43, 39
2, 469359, Note_on_c, 0, 62, 0
2, 469372, Note_on_c, 0, 59, 0
2, 469456, Note_on_c, 0, 59, 17
2, 469458, Note_on_c, 0, 62, 51
2, 469717, Note_on_c, 0, 62, 0
2, 469728, Note_on_c, 0, 59, 0
2, 469729, Note_on_c, 0, 66, 0
2, 469732, Note_on_c, 0, 57, 0
2, 469743, Note_on_c, 0, 43, 0
2, 469749, Note_on_c, 0, 69, 0
2, 469796, Note_on_c, 0, 54, 0
2, 469907, Note_on_c, 0, 54, 62
2, 469928, Note_on_c, 0, 69, 67
2, 469932, Note_on_c, 0, 43, 54
2, 469936, Note_on_c, 0, 62, 68
2, 469937, Note_on_c, 0, 66, 57
2, 469941, Note_on_c, 0, 57, 48
2, 469947, Note_on_c, 0, 59, 51
2, 470263, Note_on_c, 0, 62, 0
2, 470265, Note_on_c, 0, 43, 0
2, 470269, Note_on_c, 0, 69, 0
2, 470270, Note_on_c, 0, 59, 0
2, 470276, Note_on_c, 0, 57, 0
2, 470287, Note_on_c, 0, 66, 0
2, 470314, Note_on_c, 0, 54, 0
2, 471327, Note_on_c, 0, 50, 30
2, 471333, Note_on_c, 0, 55, 38
2, 471349, Note_on_c, 0, 64, 38
2, 471355, Note_on_c, 0, 60, 34
2, 471492, Note_on_c, 0, 55, 0
2, 471500, Note_on_c, 0, 60, 0
2, 471542, Note_on_c, 0, 50, 0
2, 471543, Note_on_c, 0, 64, 0
2, 471634, Note_on_c, 0, 64, 32
2, 471646, Note_on_c, 0, 60, 39
2, 471655, Note_on_c, 0, 55, 26
2, 471671, Note_on_c, 0, 50, 25
2, 471738, Note_on_c, 0, 55, 0
2, 471755, Note_on_c, 0, 60, 0
2, 471766, Note_on_c, 0, 64, 0
2, 471814, Note_on_c, 0, 50, 0
2, 472151, Note_on_c, 0, 43, 58
2, 472282, Note_on_c, 0, 43, 0
2, 472790, Note_on_c, 0, 57, 44
2, 472794, Note_on_c, 0, 62, 44
2, 472801, Note_on_c, 0, 59, 47
2, 472805, Note_on_c, 0, 54, 45
2, 472909, Note_on_c, 0, 57, 0
2, 472920, Note_on_c, 0, 59, 0
2, 472962, Note_on_c, 0, 54, 0
2, 472973, Note_on_c, 0, 62, 0
2, 473266, Note_on_c, 0, 57, 44
2, 473274, Note_on_c, 0, 54, 44
2, 473275, Note_on_c, 0, 62, 36
2, 473292, Note_on_c, 0, 59, 40
2, 473430, Note_on_c, 0, 57, 0
2, 473457, Note_on_c, 0, 59, 0
2, 473494, Note_on_c, 0, 62, 0
2, 473538, Note_on_c, 0, 54, 0
2, 473809, Note_on_c, 0, 50, 26
2, 474040, Note_on_c, 0, 62, 52
2, 474042, Note_on_c, 0, 57, 53
2, 474057, Note_on_c, 0, 59, 47
2, 474083, Note_on_c, 0, 54, 42
2, 474086, Note_on_c, 0, 50, 0
2, 474412, Note_on_c, 0, 57, 0
2, 474481, Note_on_c, 0, 59, 0
2, 474495, Note_on_c, 0, 62, 0
2, 474863, Note_on_c, 0, 54, 0
2, 475005, Note_on_c, 0, 50, 32
2, 475133, Note_on_c, 0, 62, 105
2, 475235, Note_on_c, 0, 50, 0
2, 475427, Note_on_c, 0, 61, 71
2, 475454, Note_on_c, 0, 62, 0
2, 475465, Note_on_c, 0, 50, 44
2, 475485, Note_on_c, 0, 54, 23
2, 475540, Note_on_c, 0, 54, 0
2, 475622, Note_on_c, 0, 61, 0
2, 475627, Note_on_c, 0, 60, 34
2, 475950, Note_on_c, 0, 60, 0
2, 475963, Note_on_c, 0, 59, 55
2, 476023, Note_on_c, 0, 50, 0
2, 476045, Note_on_c, 0, 53, 29
2, 476084, Note_on_c, 0, 43, 32
2, 476104, Note_on_c, 0, 59, 0
2, 476168, Note_on_c, 0, 53, 0
2, 476177, Note_on_c, 0, 58, 38
2, 476310, Note_on_c, 0, 43, 0
2, 476429, Note_on_c, 0, 58, 0
2, 476592, Note_on_c, 0, 58, 46
2, 476896, Note_on_c, 0, 58, 0
2, 476919, Note_on_c, 0, 57, 36
2, 477061, Note_on_c, 0, 57, 0
2, 477109, Note_on_c, 0, 58, 50
2, 477293, Note_on_c, 0, 58, 0
2, 477830, Note_on_c, 0, 62, 33
2, 477841, Note_on_c, 0, 58, 40
2, 477852, Note_on_c, 0, 57, 27
2, 477885, Note_on_c, 0, 62, 0
2, 477888, Note_on_c, 0, 58, 0
2, 477936, Note_on_c, 0, 57, 0
2, 478014, Note_on_c, 0, 80, 31
2, 478031, Note_on_c, 0, 68, 52
2, 478105, Note_on_c, 0, 74, 35
2, 478133, Note_on_c, 0, 68, 0
2, 478173, Note_on_c, 0, 77, 31
2, 478210, Note_on_c, 0, 80, 0
2, 478393, Note_on_c, 0, 74, 0
2, 478418, Note_on_c, 0, 77, 0
2, 478525, Note_on_c, 0, 81, 54
2, 478532, Note_on_c, 0, 69, 45
2, 478541, Note_on_c, 0, 74, 48
2, 478580, Note_on_c, 0, 77, 33
2, 478642, Note_on_c, 0, 81, 0
2, 478646, Note_on_c, 0, 69, 0
2, 478756, Note_on_c, 0, 74, 0
2, 478814, Note_on_c, 0, 68, 47
2, 478815, Note_on_c, 0, 80, 40
2, 478956, Note_on_c, 0, 68, 0
2, 478973, Note_on_c, 0, 80, 0
2, 479028, Note_on_c, 0, 81, 43
2, 479035, Note_on_c, 0, 74, 24
2, 479040, Note_on_c, 0, 69, 34
2, 479132, Note_on_c, 0, 69, 0
2, 479158, Note_on_c, 0, 81, 0
2, 479191, Note_on_c, 0, 74, 0
2, 479205, Note_on_c, 0, 77, 0
2, 479353, Note_on_c, 0, 62, 48
2, 479361, Note_on_c, 0, 57, 43
2, 479375, Note_on_c, 0, 58, 40
2, 479412, Note_on_c, 0, 62, 0
2, 479440, Note_on_c, 0, 57, 0
2, 479443, Note_on_c, 0, 58, 0
2, 480018, Note_on_c, 0, 62, 44
2, 480043, Note_on_c, 0, 58, 28
2, 480081, Note_on_c, 0, 62, 0
2, 480176, Note_on_c, 0, 58, 0
2, 480786, Note_on_c, 0, 62, 68
2, 480812, Note_on_c, 0, 58, 52
2, 480846, Note_on_c, 0, 52, 26
2, 480889, Note_on_c, 0, 62, 0
2, 480897, Note_on_c, 0, 52, 0
2, 480937, Note_on_c, 0, 58, 0
2, 480978, Note_on_c, 0, 68, 83
2, 481216, Note_on_c, 0, 68, 0
2, 481285, Note_on_c, 0, 69, 56
2, 481449, Note_on_c, 0, 69, 0
2, 481727, Note_on_c, 0, 68, 68
2, 481742, Note_on_c, 0, 62, 55
2, 481764, Note_on_c, 0, 58, 38
2, 481793, Note_on_c, 0, 62, 0
2, 481805, Note_on_c, 0, 52, 22
2, 481856, Note_on_c, 0, 52, 0
2, 481880, Note_on_c, 0, 58, 0
2, 481899, Note_on_c, 0, 68, 0
2, 482206, Note_on_c, 0, 64, 68
2, 482250, Note_on_c, 0, 58, 40
2, 482266, Note_on_c, 0, 52, 38
2, 482372, Note_on_c, 0, 64, 0
2, 482435, Note_on_c, 0, 64, 55
2, 482649, Note_on_c, 0, 58, 0
2, 482767, Note_on_c, 0, 64, 0
2, 482902, Note_on_c, 0, 58, 37
2, 482925, Note_on_c, 0, 64, 61
2, 482935, Note_on_c, 0, 62, 29
2, 482989, Note_on_c, 0, 62, 0
2, 483107, Note_on_c, 0, 64, 0
2, 483152, Note_on_c, 0, 58, 0
2, 483360, Note_on_c, 0, 58, 4
2, 483382, Note_on_c, 0, 65, 62
2, 483397, Note_on_c, 0, 62, 45
2, 483439, Note_on_c, 0, 52, 0
2, 483532, Note_on_c, 0, 58, 0
2, 483645, Note_on_c, 0, 62, 0
2, 483755, Note_on_c, 0, 65, 0
2, 483854, Note_on_c, 0, 64, 44
2, 483857, Note_on_c, 0, 57, 43
2, 483869, Note_on_c, 0, 60, 36
2, 483873, Note_on_c, 0, 67, 62
2, 483894, Note_on_c, 0, 53, 20
2, 484409, Note_on_c, 0, 64, 0
2, 484457, Note_on_c, 0, 60, 0
2, 484482, Note_on_c, 0, 57, 0
2, 484490, Note_on_c, 0, 67, 0
2, 484509, Note_on_c, 0, 53, 0
2, 484588, Note_on_c, 0, 67, 64
2, 484610, Note_on_c, 0, 64, 50
2, 484632, Note_on_c, 0, 57, 37
2, 484637, Note_on_c, 0, 60, 36
2, 484645, Note_on_c, 0, 53, 30
2, 485240, Control_c, 0, 64, 127
2, 485336, Control_c, 0, 64, 0
2, 485750, Control_c, 0, 64, 127
2, 485994, Note_on_c, 0, 64, 0
2, 486101, Note_on_c, 0, 67, 0
2, 486192, Note_on_c, 0, 60, 0
2, 486235, Note_on_c, 0, 57, 0
2, 486246, Note_on_c, 0, 53, 0
2, 487088, Control_c, 0, 64, 0
2, 487168, Note_on_c, 0, 61, 76
2, 487183, Note_on_c, 0, 77, 80
2, 487185, Note_on_c, 0, 72, 76
2, 487187, Note_on_c, 0, 67, 81
2, 487597, Control_c, 0, 64, 127
2, 487624, Note_on_c, 0, 77, 0
2, 487663, Note_on_c, 0, 72, 0
2, 487734, Note_on_c, 0, 67, 0
2, 487835, Note_on_c, 0, 61, 0
2, 487957, Control_c, 0, 64, 0
2, 487959, Note_on_c, 0, 64, 54
2, 487960, Note_on_c, 0, 68, 58
2, 487963, Note_on_c, 0, 74, 59
2, 487990, Note_on_c, 0, 58, 59
2, 488460, Note_on_c, 0, 74, 0
2, 488538, Note_on_c, 0, 64, 0
2, 488579, Note_on_c, 0, 68, 0
2, 488660, Note_on_c, 0, 58, 0
2, 488669, Note_on_c, 0, 72, 62
2, 488672, Note_on_c, 0, 57, 54
2, 488691, Note_on_c, 0, 62, 55
2, 488692, Note_on_c, 0, 67, 58
2, 488949, Control_c, 0, 64, 127
2, 488998, Note_on_c, 0, 72, 0
2, 489017, Note_on_c, 0, 67, 0
2, 489164, Note_on_c, 0, 62, 0
2, 489342, Note_on_c, 0, 57, 0
2, 489350, Control_c, 0, 64, 0
2, 489372, Note_on_c, 0, 69, 48
2, 489376, Note_on_c, 0, 64, 44
2, 489379, Note_on_c, 0, 53, 41
2, 489387, Note_on_c, 0, 60, 36
2, 489515, Control_c, 0, 64, 127
2, 489544, Note_on_c, 0, 69, 0
2, 489569, Note_on_c, 0, 64, 0
2, 489589, Note_on_c, 0, 53, 0
2, 489657, Note_on_c, 0, 60, 0
2, 490053, Control_c, 0, 64, 0
2, 490083, Note_on_c, 0, 65, 40
2, 490086, Note_on_c, 0, 53, 35
2, 490108, Note_on_c, 0, 60, 37
2, 490126, Note_on_c, 0, 57, 29
2, 490453, Control_c, 0, 64, 127
2, 490455, Note_on_c, 0, 60, 0
2, 490462, Note_on_c, 0, 53, 0
2, 490474, Note_on_c, 0, 65, 0
2, 490551, Note_on_c, 0, 57, 0
2, 490775, Note_on_c, 0, 64, 50
2, 490784, Control_c, 0, 64, 0
2, 490808, Note_on_c, 0, 55, 47
2, 490810, Note_on_c, 0, 52, 37
2, 490811, Note_on_c, 0, 57, 48
2, 490824, Note_on_c, 0, 42, 32
2, 490825, Note_on_c, 0, 60, 31
2, 491095, Note_on_c, 0, 64, 0
2, 491165, Note_on_c, 0, 52, 0
2, 491183, Note_on_c, 0, 57, 0
2, 491316, Note_on_c, 0, 55, 0
2, 491396, Note_on_c, 0, 42, 0
2, 491450, Note_on_c, 0, 60, 0
2, 491523, Note_on_c, 0, 41, 44
2, 491527, Note_on_c, 0, 51, 37
2, 491536, Note_on_c, 0, 63, 45
2, 491553, Note_on_c, 0, 56, 45
2, 491556, Note_on_c, 0, 60, 35
2, 491754, Control_c, 0, 64, 127
2, 491868, Note_on_c, 0, 41, 0
2, 491895, Note_on_c, 0, 56, 0
2, 491902, Note_on_c, 0, 60, 0
2, 491979, Note_on_c, 0, 63, 0
2, 491981, Note_on_c, 0, 51, 0
2, 492967, Control_c, 0, 64, 0
2, 492976, Note_on_c, 0, 67, 73
2, 492980, Note_on_c, 0, 87, 69
2, 492983, Note_on_c, 0, 75, 80
2, 492984, Note_on_c, 0, 63, 58
2, 492985, Note_on_c, 0, 82, 74
2, 492988, Note_on_c, 0, 56, 64
2, 492992, Note_on_c, 0, 60, 55
2, 493083, Note_on_c, 0, 75, 0
2, 493128, Note_on_c, 0, 87, 0
2, 493152, Note_on_c, 0, 67, 0
2, 493181, Note_on_c, 0, 56, 0
2, 493189, Note_on_c, 0, 82, 0
2, 493201, Note_on_c, 0, 60, 0
2, 493208, Note_on_c, 0, 63, 0
2, 493273, Note_on_c, 0, 67, 60
2, 493276, Note_on_c, 0, 87, 68
2, 493277, Note_on_c, 0, 56, 38
2, 493280, Note_on_c, 0, 75, 64
2, 493281, Note_on_c, 0, 82, 60
2, 493284, Note_on_c, 0, 63, 36
2, 493292, Note_on_c, 0, 60, 44
2, 493384, Note_on_c, 0, 67, 0
2, 493401, Note_on_c, 0, 75, 0
2, 493419, Note_on_c, 0, 56, 0
2, 493426, Note_on_c, 0, 63, 0
2, 493431, Note_on_c, 0, 87, 0
2, 493445, Note_on_c, 0, 60, 0
2, 493459, Note_on_c, 0, 82, 0
2, 493510, Note_on_c, 0, 67, 44
2, 493519, Note_on_c, 0, 84, 62
2, 493521, Note_on_c, 0, 56, 46
2, 493522, Note_on_c, 0, 89, 64
2, 493525, Note_on_c, 0, 63, 55
2, 493527, Note_on_c, 0, 60, 39
2, 493547, Note_on_c, 0, 77, 41
2, 493702, Note_on_c, 0, 77, 0
2, 493739, Note_on_c, 0, 89, 0
2, 493764, Note_on_c, 0, 84, 0
2, 493778, Note_on_c, 0, 56, 0
2, 493797, Note_on_c, 0, 67, 0
2, 493830, Note_on_c, 0, 60, 0
2, 493844, Note_on_c, 0, 63, 0
2, 493975, Note_on_c, 0, 63, 42
2, 493977, Note_on_c, 0, 67, 47
2, 493979, Note_on_c, 0, 60, 44
2, 493984, Note_on_c, 0, 56, 48
2, 493987, Note_on_c, 0, 89, 64
2, 494002, Note_on_c, 0, 84, 66
2, 494008, Note_on_c, 0, 77, 58
2, 494160, Note_on_c, 0, 77, 0
2, 494171, Note_on_c, 0, 89, 0
2, 494196, Note_on_c, 0, 84, 0
2, 494213, Note_on_c, 0, 56, 0
2, 494218, Note_on_c, 0, 67, 0
2, 494247, Note_on_c, 0, 60, 0
2, 494286, Note_on_c, 0, 63, 0
2, 494420, Note_on_c, 0, 89, 54
2, 494436, Control_c, 0, 64, 127
2, 494437, Note_on_c, 0, 77, 51
2, 494438, Note_on_c, 0, 84, 62
2, 494442, Note_on_c, 0, 63, 37
2, 494448, Note_on_c, 0, 67, 46
2, 494451, Note_on_c, 0, 56, 49
2, 494467, Note_on_c, 0, 60, 41
2, 494565, Note_on_c, 0, 89, 0
2, 494613, Note_on_c, 0, 77, 0
2, 494625, Note_on_c, 0, 56, 0
2, 494663, Note_on_c, 0, 84, 0
2, 494675, Note_on_c, 0, 67, 0
2, 494774, Note_on_c, 0, 63, 0
2, 494785, Note_on_c, 0, 60, 0
2, 494835, Control_c, 0, 64, 0
2, 494873, Note_on_c, 0, 56, 42
2, 494894, Note_on_c, 0, 87, 42
2, 494901, Note_on_c, 0, 82, 51
2, 494910, Note_on_c, 0, 75, 35
2, 494975, Note_on_c, 0, 56, 0
2, 495001, Control_c, 0, 64, 127
2, 495110, Note_on_c, 0, 75, 0
2, 495119, Note_on_c, 0, 87, 0
2, 495146, Note_on_c, 0, 82, 0
2, 495235, Control_c, 0, 64, 0
2, 495856, Control_c, 0, 64, 127
2, 497130, Note_on_c, 0, 65, 52
2, 497133, Note_on_c, 0, 76, 68
2, 497135, Note_on_c, 0, 83, 65
2, 497141, Note_on_c, 0, 88, 50
2, 497150, Note_on_c, 0, 56, 46
2, 497161, Note_on_c, 0, 60, 32
2, 497183, Note_on_c, 0, 65, 0
2, 497208, Control_c, 0, 64, 0
2, 497211, Note_on_c, 0, 76, 0
2, 497219, Note_on_c, 0, 60, 0
2, 497229, Note_on_c, 0, 88, 0
2, 497241, Note_on_c, 0, 83, 0
2, 497273, Note_on_c, 0, 56, 0
2, 497460, Note_on_c, 0, 59, 54
2, 497461, Note_on_c, 0, 64, 58
2, 497477, Note_on_c, 0, 53, 44
2, 497490, Note_on_c, 0, 84, 77
2, 497494, Note_on_c, 0, 89, 74
2, 497496, Note_on_c, 0, 77, 78
2, 497635, Control_c, 0, 64, 127
2, 497741, Note_on_c, 0, 77, 0
2, 497808, Note_on_c, 0, 84, 0
2, 497811, Note_on_c, 0, 53, 0
2, 497816, Note_on_c, 0, 89, 0
2, 497856, Note_on_c, 0, 64, 0
2, 497891, Note_on_c, 0, 59, 0
2, 498312, Control_c, 0, 64, 0
2, 498320, Note_on_c, 0, 63, 77
2, 498327, Note_on_c, 0, 53, 62
2, 498332, Note_on_c, 0, 56, 67
2, 498334, Note_on_c, 0, 59, 64
2, 498335, Note_on_c, 0, 80, 82
2, 498338, Note_on_c, 0, 92, 85
2, 498356, Note_on_c, 0, 85, 52
2, 498401, Note_on_c, 0, 85, 0
2, 498544, Control_c, 0, 64, 127
2, 498546, Note_on_c, 0, 80, 0
2, 498565, Note_on_c, 0, 92, 0
2, 498705, Note_on_c, 0, 53, 0
2, 498733, Note_on_c, 0, 63, 0
2, 498767, Note_on_c, 0, 56, 0
2, 498770, Note_on_c, 0, 59, 0
2, 499044, Note_on_c, 0, 95, 68
2, 499047, Note_on_c, 0, 83, 63
2, 499058, Note_on_c, 0, 63, 56
2, 499063, Note_on_c, 0, 53, 34
2, 499081, Note_on_c, 0, 59, 44
2, 499086, Note_on_c, 0, 56, 40
2, 499102, Note_on_c, 0, 83, 0
2, 499110, Note_on_c, 0, 63, 0
2, 499122, Note_on_c, 0, 53, 0
2, 499139, Note_on_c, 0, 56, 0
2, 499140, Note_on_c, 0, 59, 0
2, 499141, Note_on_c, 0, 95, 0
2, 499234, Control_c, 0, 64, 0
2, 499265, Note_on_c, 0, 59, 40
2, 499271, Note_on_c, 0, 62, 66
2, 499285, Note_on_c, 0, 98, 81
2, 499289, Note_on_c, 0, 86, 75
2, 499294, Note_on_c, 0, 55, 49
2, 499305, Note_on_c, 0, 52, 55
2, 499313, Note_on_c, 0, 91, 62
2, 499359, Note_on_c, 0, 91, 0
2, 499663, Control_c, 0, 64, 127
2, 499785, Note_on_c, 0, 52, 0
2, 499820, Note_on_c, 0, 62, 0
2, 499838, Note_on_c, 0, 98, 0
2, 499852, Note_on_c, 0, 59, 0
2, 499853, Note_on_c, 0, 55, 0
2, 499854, Note_on_c, 0, 86, 0
2, 499984, Note_on_c, 0, 96, 66
2, 499999, Note_on_c, 0, 59, 46
2, 500008, Note_on_c, 0, 55, 39
2, 500010, Note_on_c, 0, 84, 57
2, 500015, Note_on_c, 0, 62, 51
2, 500035, Note_on_c, 0, 52, 42
2, 500040, Note_on_c, 0, 91, 32
2, 500047, Control_c, 0, 64, 0
2, 500351, Note_on_c, 0, 91, 0
2, 500357, Note_on_c, 0, 84, 0
2, 500363, Note_on_c, 0, 62, 0
2, 500372, Note_on_c, 0, 59, 0
2, 500409, Note_on_c, 0, 96, 0
2, 500412, Note_on_c, 0, 52, 0
2, 500458, Note_on_c, 0, 55, 0
2, 500710, Note_on_c, 0, 98, 69
2, 500712, Note_on_c, 0, 62, 52
2, 500723, Note_on_c, 0, 57, 44
2, 500724, Note_on_c, 0, 86, 62
2, 500738, Note_on_c, 0, 91, 60
2, 500743, Note_on_c, 0, 55, 33
2, 500756, Note_on_c, 0, 52, 32
2, 501056, Control_c, 0, 64, 127
2, 501221, Note_on_c, 0, 52, 0
2, 501244, Note_on_c, 0, 62, 0
2, 501269, Note_on_c, 0, 98, 0
2, 501274, Note_on_c, 0, 57, 0
2, 501280, Note_on_c, 0, 55, 0
2, 501285, Note_on_c, 0, 86, 0
2, 501302, Note_on_c, 0, 91, 0
2, 501482, Note_on_c, 0, 96, 58
2, 501496, Note_on_c, 0, 62, 49
2, 501503, Note_on_c, 0, 84, 43
2, 501505, Note_on_c, 0, 57, 41
2, 501507, Note_on_c, 0, 91, 52
2, 501523, Control_c, 0, 64, 0
2, 501533, Note_on_c, 0, 55, 36
2, 501549, Note_on_c, 0, 52, 34
2, 501690, Note_on_c, 0, 84, 0
2, 501704, Note_on_c, 0, 91, 0
2, 501706, Note_on_c, 0, 52, 0
2, 501712, Note_on_c, 0, 62, 0
2, 501739, Note_on_c, 0, 96, 0
2, 501756, Note_on_c, 0, 57, 0
2, 501760, Note_on_c, 0, 55, 0
2, 502176, Note_on_c, 0, 98, 64
2, 502185, Note_on_c, 0, 86, 49
2, 502187, Note_on_c, 0, 91, 57
2, 502199, Note_on_c, 0, 62, 46
2, 502202, Note_on_c, 0, 57, 42
2, 502232, Note_on_c, 0, 55, 33
2, 502258, Note_on_c, 0, 52, 26
2, 502297, Control_c, 0, 64, 127
2, 502504, Note_on_c, 0, 52, 0
2, 502511, Note_on_c, 0, 98, 0
2, 502511, Note_on_c, 0, 86, 0
2, 502525, Note_on_c, 0, 57, 0
2, 502536, Note_on_c, 0, 55, 0
2, 502569, Note_on_c, 0, 91, 0
2, 502588, Note_on_c, 0, 62, 0
2, 502807, Control_c, 0, 64, 0
2, 502883, Note_on_c, 0, 64, 43
2, 502884, Note_on_c, 0, 96, 54
2, 502891, Note_on_c, 0, 92, 42
2, 502897, Note_on_c, 0, 84, 45
2, 502898, Note_on_c, 0, 60, 46
2, 502910, Note_on_c, 0, 54, 48
2, 503031, Note_on_c, 0, 84, 0
2, 503078, Note_on_c, 0, 64, 0
2, 503080, Note_on_c, 0, 92, 0
2, 503114, Note_on_c, 0, 60, 0
2, 503131, Note_on_c, 0, 54, 0
2, 503132, Note_on_c, 0, 96, 0
2, 503565, Note_on_c, 0, 89, 60
2, 503569, Note_on_c, 0, 98, 60
2, 503574, Note_on_c, 0, 64, 45
2, 503586, Note_on_c, 0, 54, 46
2, 503587, Note_on_c, 0, 60, 38
2, 503589, Note_on_c, 0, 94, 56
2, 503715, Control_c, 0, 64, 127
2, 504008, Note_on_c, 0, 98, 0
2, 504017, Note_on_c, 0, 89, 0
2, 504059, Note_on_c, 0, 64, 0
2, 504088, Note_on_c, 0, 54, 0
2, 504139, Note_on_c, 0, 94, 0
2, 504145, Note_on_c, 0, 60, 0
2, 504325, Control_c, 0, 64, 0
2, 504326, Note_on_c, 0, 96, 51
2, 504333, Note_on_c, 0, 92, 52
2, 504352, Note_on_c, 0, 54, 45
2, 504355, Note_on_c, 0, 64, 36
2, 504357, Note_on_c, 0, 87, 33
2, 504362, Note_on_c, 0, 60, 36
2, 504533, Note_on_c, 0, 87, 0
2, 504544, Note_on_c, 0, 92, 0
2, 504555, Note_on_c, 0, 64, 0
2, 504575, Note_on_c, 0, 96, 0
2, 504581, Note_on_c, 0, 60, 0
2, 504582, Note_on_c, 0, 54, 0
2, 505017, Note_on_c, 0, 98, 63
2, 505025, Note_on_c, 0, 94, 53
2, 505028, Note_on_c, 0, 89, 49
2, 505038, Note_on_c, 0, 60, 47
2, 505039, Note_on_c, 0, 64, 49
2, 505040, Note_on_c, 0, 54, 55
2, 505294, Control_c, 0, 64, 127
2, 505431, Note_on_c, 0, 98, 0
2, 505445, Note_on_c, 0, 89, 0
2, 505468, Note_on_c, 0, 64, 0
2, 505555, Note_on_c, 0, 94, 0
2, 505559, Note_on_c, 0, 54, 0
2, 505574, Note_on_c, 0, 60, 0
2, 505693, Control_c, 0, 64, 0
2, 505737, Note_on_c, 0, 96, 60
2, 505739, Note_on_c, 0, 92, 59
2, 505771, Note_on_c, 0, 64, 53
2, 505774, Note_on_c, 0, 54, 55
2, 505779, Note_on_c, 0, 60, 47
2, 505889, Note_on_c, 0, 64, 0
2, 505910, Note_on_c, 0, 60, 0
2, 505936, Note_on_c, 0, 92, 0
2, 505960, Note_on_c, 0, 54, 0
2, 505976, Note_on_c, 0, 96, 0
2, 506422, Note_on_c, 0, 98, 68
2, 506425, Note_on_c, 0, 89, 65
2, 506434, Note_on_c, 0, 94, 58
2, 506438, Note_on_c, 0, 54, 69
2, 506445, Note_on_c, 0, 60, 55
2, 506452, Note_on_c, 0, 64, 55
2, 506755, Control_c, 0, 64, 127
2, 506789, Note_on_c, 0, 98, 0
2, 506832, Note_on_c, 0, 64, 0
2, 506880, Note_on_c, 0, 89, 0
2, 506912, Note_on_c, 0, 94, 0
2, 506946, Note_on_c, 0, 54, 0
2, 507054, Note_on_c, 0, 60, 0
2, 507140, Control_c, 0, 64, 0
2, 507191, Note_on_c, 0, 99, 67
2, 507192, Note_on_c, 0, 60, 53
2, 507194, Note_on_c, 0, 54, 56
2, 507198, Note_on_c, 0, 63, 61
2, 507198, Note_on_c, 0, 90, 51
2, 507201, Note_on_c, 0, 93, 63
2, 507208, Note_on_c, 0, 57, 59
2, 507224, Note_on_c, 0, 96, 49
2, 507316, Note_on_c, 0, 90, 0
2, 507322, Note_on_c, 0, 93, 0
2, 507337, Note_on_c, 0, 63, 0
2, 507374, Note_on_c, 0, 96, 0
2, 507377, Note_on_c, 0, 57, 0
2, 507382, Note_on_c, 0, 99, 0
2, 507429, Note_on_c, 0, 60, 0
2, 507465, Note_on_c, 0, 54, 0
2, 507891, Note_on_c, 0, 99, 86
2, 507893, Note_on_c, 0, 90, 83
2, 507897, Note_on_c, 0, 63, 77
2, 507901, Note_on_c, 0, 54, 65
2, 507907, Note_on_c, 0, 60, 58
2, 507909, Note_on_c, 0, 93, 77
2, 507912, Note_on_c, 0, 57, 59
2, 507930, Note_on_c, 0, 96, 47
2, 508041, Control_c, 0, 64, 127
2, 508306, Note_on_c, 0, 93, 0
2, 508307, Note_on_c, 0, 63, 0
2, 508317, Note_on_c, 0, 90, 0
2, 508318, Note_on_c, 0, 57, 0
2, 508319, Note_on_c, 0, 96, 0
2, 508335, Note_on_c, 0, 99, 0
2, 508339, Note_on_c, 0, 54, 0
2, 508355, Note_on_c, 0, 60, 0
2, 508607, Control_c, 0, 64, 0
2, 508624, Note_on_c, 0, 99, 76
2, 508628, Note_on_c, 0, 90, 74
2, 508635, Note_on_c, 0, 54, 64
2, 508636, Note_on_c, 0, 63, 77
2, 508646, Note_on_c, 0, 96, 63
2, 508647, Note_on_c, 0, 93, 71
2, 508647, Note_on_c, 0, 60, 62
2, 508658, Note_on_c, 0, 57, 58
2, 508757, Note_on_c, 0, 90, 0
2, 508768, Note_on_c, 0, 93, 0
2, 508808, Note_on_c, 0, 96, 0
2, 508816, Note_on_c, 0, 99, 0
2, 508834, Note_on_c, 0, 63, 0
2, 508867, Note_on_c, 0, 57, 0
2, 508888, Note_on_c, 0, 60, 0
2, 508900, Note_on_c, 0, 54, 0
2, 509339, Note_on_c, 0, 90, 78
2, 509343, Note_on_c, 0, 99, 79
2, 509346, Note_on_c, 0, 63, 77
2, 509349, Note_on_c, 0, 93, 79
2, 509357, Note_on_c, 0, 54, 62
2, 509361, Note_on_c, 0, 96, 61
2, 509362, Note_on_c, 0, 60, 57
2, 509367, Note_on_c, 0, 57, 58
2, 509658, Control_c, 0, 64, 127
2, 510110, Note_on_c, 0, 93, 0
2, 510162, Note_on_c, 0, 60, 0
2, 510207, Note_on_c, 0, 96, 0
2, 510217, Note_on_c, 0, 57, 0
2, 510244, Note_on_c, 0, 63, 0
2, 510246, Note_on_c, 0, 90, 0
2, 510272, Note_on_c, 0, 99, 0
2, 510390, Note_on_c, 0, 54, 0
2, 510705, Control_c, 0, 64, 0
2, 510749, Note_on_c, 0, 100, 84
2, 510751, Note_on_c, 0, 59, 77
2, 510752, Note_on_c, 0, 64, 84
2, 510754, Note_on_c, 0, 88, 90
2, 510755, Note_on_c, 0, 95, 91
2, 510758, Note_on_c, 0, 53, 79
2, 511161, Control_c, 0, 64, 127
2, 511231, Control_c, 0, 64, 0
2, 511424, Control_c, 0, 64, 127
2, 511870, Note_on_c, 0, 53, 0
2, 511876, Note_on_c, 0, 64, 0
2, 511901, Note_on_c, 0, 59, 0
2, 511930, Note_on_c, 0, 88, 0
2, 511952, Note_on_c, 0, 100, 0
2, 511956, Note_on_c, 0, 95, 0
2, 512183, Control_c, 0, 64, 0
2, 512214, Note_on_c, 0, 99, 69
2, 512216, Note_on_c, 0, 64, 54
2, 512220, Note_on_c, 0, 59, 53
2, 512225, Note_on_c, 0, 53, 48
2, 512416, Note_on_c, 0, 53, 0
2, 512436, Note_on_c, 0, 64, 0
2, 512493, Note_on_c, 0, 99, 0
2, 512592, Note_on_c, 0, 59, 0
2, 512701, Note_on_c, 0, 59, 29
2, 512706, Note_on_c, 0, 64, 44
2, 512717, Note_on_c, 0, 53, 39
2, 512725, Note_on_c, 0, 98, 58
2, 512911, Note_on_c, 0, 98, 0
2, 513243, Note_on_c, 0, 64, 0
2, 513676, Note_on_c, 0, 64, 50
2, 513983, Note_on_c, 0, 53, 0
2, 514027, Note_on_c, 0, 59, 0
2, 514100, Note_on_c, 0, 64, 0
2, 514136, Note_on_c, 0, 93, 62
2, 514364, Note_on_c, 0, 93, 0
2, 514374, Note_on_c, 0, 94, 52
2, 514573, Note_on_c, 0, 64, 29
2, 514597, Note_on_c, 0, 94, 0
2, 514599, Note_on_c, 0, 57, 35
2, 514602, Note_on_c, 0, 60, 37
2, 514622, Note_on_c, 0, 95, 51
2, 514849, Note_on_c, 0, 95, 0
2, 514924, Note_on_c, 0, 98, 70
2, 515080, Note_on_c, 0, 98, 0
2, 515115, Note_on_c, 0, 57, 0
2, 515128, Note_on_c, 0, 64, 0
2, 515153, Note_on_c, 0, 60, 0
2, 515344, Note_on_c, 0, 96, 60
2, 515371, Note_on_c, 0, 64, 34
2, 515391, Note_on_c, 0, 60, 30
2, 515414, Note_on_c, 0, 57, 29
2, 515457, Note_on_c, 0, 64, 0
2, 515479, Note_on_c, 0, 60, 0
2, 515493, Note_on_c, 0, 57, 0
2, 515495, Note_on_c, 0, 96, 0
2, 515747, Note_on_c, 0, 92, 59
2, 515898, Note_on_c, 0, 92, 0
2, 515963, Note_on_c, 0, 64, 36
2, 515985, Note_on_c, 0, 95, 62
2, 516031, Note_on_c, 0, 57, 32
2, 516222, Note_on_c, 0, 95, 0
2, 516266, Note_on_c, 0, 92, 33
2, 516335, Note_on_c, 0, 57, 0
2, 516386, Note_on_c, 0, 92, 0
2, 516387, Note_on_c, 0, 64, 0
2, 516493, Note_on_c, 0, 93, 40
2, 516636, Note_on_c, 0, 93, 0
2, 516935, Note_on_c, 0, 64, 24
2, 516939, Note_on_c, 0, 88, 46
2, 516950, Note_on_c, 0, 57, 28
2, 516970, Note_on_c, 0, 60, 26
2, 517043, Note_on_c, 0, 60, 0
2, 517061, Note_on_c, 0, 88, 0
2, 517097, Note_on_c, 0, 64, 0
2, 517118, Note_on_c, 0, 57, 0
2, 517426, Note_on_c, 0, 64, 22
2, 517431, Note_on_c, 0, 88, 39
2, 517455, Note_on_c, 0, 57, 30
2, 517478, Note_on_c, 0, 60, 22
2, 517543, Note_on_c, 0, 88, 0
2, 517577, Note_on_c, 0, 60, 0
2, 517683, Note_on_c, 0, 64, 0
2, 517781, Note_on_c, 0, 57, 0
2, 518399, Note_on_c, 0, 64, 24
2, 518414, Note_on_c, 0, 54, 28
2, 518436, Note_on_c, 0, 60, 28
2, 518593, Note_on_c, 0, 60, 0
2, 518602, Note_on_c, 0, 64, 0
2, 518623, Note_on_c, 0, 54, 0
2, 519142, Note_on_c, 0, 64, 25
2, 519160, Note_on_c, 0, 54, 25
2, 519179, Note_on_c, 0, 60, 26
2, 519278, Note_on_c, 0, 60, 0
2, 519293, Note_on_c, 0, 64, 0
2, 519336, Note_on_c, 0, 54, 0
2, 519815, Note_on_c, 0, 54, 39
2, 519824, Note_on_c, 0, 64, 25
2, 519850, Note_on_c, 0, 60, 30
2, 519951, Note_on_c, 0, 60, 0
2, 519974, Note_on_c, 0, 64, 0
2, 520010, Note_on_c, 0, 54, 0
2, 520331, Note_on_c, 0, 82, 79
2, 520608, Note_on_c, 0, 83, 74
2, 520610, Note_on_c, 0, 82, 0
2, 520672, Note_on_c, 0, 60, 29
2, 520673, Note_on_c, 0, 54, 25
2, 520754, Note_on_c, 0, 60, 0
2, 520768, Note_on_c, 0, 83, 0
2, 520778, Note_on_c, 0, 54, 0
2, 521082, Note_on_c, 0, 86, 83
2, 521113, Note_on_c, 0, 84, 47
2, 521174, Note_on_c, 0, 84, 0
2, 521235, Note_on_c, 0, 86, 0
2, 521524, Note_on_c, 0, 83, 81
2, 521544, Note_on_c, 0, 60, 49
2, 521547, Note_on_c, 0, 64, 49
2, 521558, Note_on_c, 0, 54, 42
2, 521610, Note_on_c, 0, 64, 0
2, 521661, Note_on_c, 0, 60, 0
2, 521680, Note_on_c, 0, 83, 0
2, 521729, Note_on_c, 0, 54, 0
2, 521757, Note_on_c, 0, 76, 36
2, 521890, Note_on_c, 0, 76, 0
2, 521990, Note_on_c, 0, 74, 54
2, 522141, Note_on_c, 0, 60, 36
2, 522161, Note_on_c, 0, 64, 24
2, 522166, Note_on_c, 0, 59, 39
2, 522181, Note_on_c, 0, 74, 0
2, 522216, Note_on_c, 0, 72, 45
2, 522396, Note_on_c, 0, 59, 0
2, 522693, Note_on_c, 0, 71, 62
2, 522737, Note_on_c, 0, 72, 0
2, 522770, Note_on_c, 0, 64, 0
2, 522816, Note_on_c, 0, 60, 0
2, 522916, Note_on_c, 0, 71, 0
2, 522968, Note_on_c, 0, 74, 68
2, 523138, Note_on_c, 0, 64, 38
2, 523166, Note_on_c, 0, 60, 35
2, 523197, Note_on_c, 0, 59, 28
2, 523206, Note_on_c, 0, 72, 34
2, 523263, Note_on_c, 0, 74, 0
2, 523601, Note_on_c, 0, 72, 0
2, 523615, Note_on_c, 0, 64, 0
2, 523667, Note_on_c, 0, 71, 49
2, 523678, Note_on_c, 0, 59, 0
2, 523711, Note_on_c, 0, 60, 0
2, 523815, Note_on_c, 0, 71, 0
2, 524156, Note_on_c, 0, 60, 26
2, 524181, Note_on_c, 0, 59, 25
2, 524309, Note_on_c, 0, 59, 0
2, 524353, Note_on_c, 0, 60, 0
2, 524911, Note_on_c, 0, 64, 32
2, 524940, Note_on_c, 0, 60, 32
2, 524979, Note_on_c, 0, 59, 27
2, 525049, Note_on_c, 0, 59, 0
2, 525098, Note_on_c, 0, 64, 0
2, 525100, Note_on_c, 0, 60, 0
2, 525627, Note_on_c, 0, 64, 48
2, 525642, Note_on_c, 0, 60, 48
2, 525653, Note_on_c, 0, 59, 47
2, 525822, Note_on_c, 0, 60, 0
2, 525824, Note_on_c, 0, 59, 0
2, 525825, Note_on_c, 0, 64, 0
2, 526597, Note_on_c, 0, 64, 33
2, 526634, Note_on_c, 0, 60, 29
2, 526635, Note_on_c, 0, 54, 31
2, 526646, Note_on_c, 0, 59, 34
2, 526710, Note_on_c, 0, 59, 0
2, 526758, Note_on_c, 0, 64, 0
2, 526770, Note_on_c, 0, 60, 0
2, 526810, Note_on_c, 0, 54, 0
2, 527319, Note_on_c, 0, 64, 36
2, 527352, Note_on_c, 0, 54, 25
2, 527354, Note_on_c, 0, 60, 29
2, 527358, Note_on_c, 0, 59, 29
2, 527427, Note_on_c, 0, 59, 0
2, 527433, Note_on_c, 0, 60, 0
2, 527433, Note_on_c, 0, 64, 0
2, 527473, Note_on_c, 0, 54, 0
2, 527991, Note_on_c, 0, 64, 41
2, 528022, Note_on_c, 0, 60, 33
2, 528053, Note_on_c, 0, 59, 27
2, 528068, Note_on_c, 0, 64, 0
2, 528113, Note_on_c, 0, 59, 0
2, 528139, Note_on_c, 0, 60, 0
2, 528734, Note_on_c, 0, 64, 37
2, 528754, Note_on_c, 0, 60, 34
2, 528794, Note_on_c, 0, 64, 0
2, 528924, Note_on_c, 0, 60, 0
2, 528943, Note_on_c, 0, 76, 73
2, 529156, Note_on_c, 0, 76, 0
2, 529210, Note_on_c, 0, 79, 70
2, 529276, Note_on_c, 0, 60, 33
2, 529291, Note_on_c, 0, 64, 20
2, 529309, Note_on_c, 0, 54, 16
2, 529338, Note_on_c, 0, 64, 0
2, 529391, Note_on_c, 0, 60, 0
2, 529434, Note_on_c, 0, 79, 0
2, 529441, Note_on_c, 0, 54, 0
2, 529445, Note_on_c, 0, 78, 46
2, 529649, Note_on_c, 0, 78, 0
2, 529687, Note_on_c, 0, 74, 53
2, 529770, Note_on_c, 0, 64, 29
2, 529775, Note_on_c, 0, 60, 41
2, 529799, Note_on_c, 0, 59, 34
2, 529803, Note_on_c, 0, 74, 0
2, 529837, Note_on_c, 0, 64, 0
2, 529865, Note_on_c, 0, 59, 0
2, 529902, Note_on_c, 0, 76, 63
2, 529945, Note_on_c, 0, 60, 0
2, 530166, Note_on_c, 0, 76, 0
2, 530213, Note_on_c, 0, 72, 24
2, 530349, Note_on_c, 0, 72, 0
2, 530414, Note_on_c, 0, 74, 46
2, 530651, Note_on_c, 0, 74, 0
2, 530733, Note_on_c, 0, 71, 31
2, 530751, Note_on_c, 0, 60, 21
2, 530879, Note_on_c, 0, 71, 0
2, 530898, Note_on_c, 0, 72, 36
2, 530902, Note_on_c, 0, 60, 0
2, 531242, Note_on_c, 0, 60, 19
2, 531311, Note_on_c, 0, 72, 0
2, 531377, Note_on_c, 0, 69, 26
2, 531394, Note_on_c, 0, 60, 0
2, 531465, Note_on_c, 0, 69, 0
2, 531824, Note_on_c, 0, 64, 26
2, 531864, Note_on_c, 0, 60, 24
2, 531877, Note_on_c, 0, 59, 22
2, 531956, Note_on_c, 0, 59, 0
2, 531985, Note_on_c, 0, 64, 0
2, 531992, Note_on_c, 0, 60, 0
2, 532552, Note_on_c, 0, 64, 22
2, 532595, Note_on_c, 0, 60, 22
2, 532606, Note_on_c, 0, 59, 19
2, 532712, Note_on_c, 0, 59, 0
2, 532713, Note_on_c, 0, 60, 0
2, 532739, Note_on_c, 0, 64, 0
2, 533286, Note_on_c, 0, 54, 25
2, 533298, Note_on_c, 0, 64, 14
2, 533299, Note_on_c, 0, 60, 21
2, 533316, Note_on_c, 0, 59, 21
2, 533400, Note_on_c, 0, 59, 0
2, 533441, Note_on_c, 0, 64, 0
2, 533453, Note_on_c, 0, 60, 0
2, 533524, Note_on_c, 0, 54, 0
2, 533997, Note_on_c, 0, 64, 21
2, 534030, Note_on_c, 0, 54, 18
2, 534048, Note_on_c, 0, 60, 18
2, 534058, Note_on_c, 0, 59, 19
2, 534125, Note_on_c, 0, 59, 0
2, 534169, Note_on_c, 0, 60, 0
2, 534188, Note_on_c, 0, 64, 0
2, 534202, Note_on_c, 0, 54, 0
2, 534711, Note_on_c, 0, 64, 14
2, 534736, Note_on_c, 0, 59, 17
2, 534737, Note_on_c, 0, 60, 17
2, 534740, Note_on_c, 0, 54, 16
2, 534843, Note_on_c, 0, 64, 0
2, 534847, Note_on_c, 0, 59, 0
2, 534850, Note_on_c, 0, 60, 0
2, 534891, Note_on_c, 0, 54, 0
2, 535230, Note_on_c, 0, 71, 37
2, 535396, Note_on_c, 0, 71, 0
2, 535497, Note_on_c, 0, 71, 31
2, 535897, Note_on_c, 0, 71, 0
2, 535984, Note_on_c, 0, 71, 30
2, 536051, Note_on_c, 0, 64, 14
2, 536091, Note_on_c, 0, 60, 11
2, 536115, Note_on_c, 0, 64, 0
2, 536119, Note_on_c, 0, 71, 0
2, 536174, Note_on_c, 0, 71, 19
2, 536194, Note_on_c, 0, 60, 0
2, 536390, Note_on_c, 0, 71, 0
2, 536485, Note_on_c, 0, 71, 24
2, 536496, Note_on_c, 0, 64, 10
2, 536507, Note_on_c, 0, 60, 14
2, 536548, Note_on_c, 0, 64, 0
2, 536643, Note_on_c, 0, 60, 0
2, 537120, Note_on_c, 0, 71, 0
2, 537140, Note_on_c, 0, 74, 25
2, 537452, Note_on_c, 0, 74, 0
2, 537612, Note_on_c, 0, 64, 8
2, 537672, Note_on_c, 0, 60, 8
2, 537685, Note_on_c, 0, 57, 8
2, 537771, Note_on_c, 0, 60, 0
2, 537784, Note_on_c, 0, 64, 0
2, 537854, Note_on_c, 0, 57, 0
2, 538356, Note_on_c, 0, 64, 10
2, 538375, Note_on_c, 0, 60, 13
2, 538396, Note_on_c, 0, 57, 10
2, 538508, Note_on_c, 0, 64, 0
2, 538532, Note_on_c, 0, 57, 0
2, 538534, Note_on_c, 0, 60, 0
2, 539007, Note_on_c, 0, 64, 7
2, 539028, Note_on_c, 0, 57, 10
2, 539030, Note_on_c, 0, 60, 8
2, 539059, Note_on_c, 0, 59, 11
2, 539146, Note_on_c, 0, 59, 0
2, 539248, Note_on_c, 0, 64, 0
2, 539252, Note_on_c, 0, 57, 0
2, 539275, Note_on_c, 0, 60, 0
2, 539498, Note_on_c, 0, 71, 21
2, 539724, Note_on_c, 0, 71, 0
2, 539794, Note_on_c, 0, 74, 17
2, 539848, Note_on_c, 0, 64, 5
2, 539879, Note_on_c, 0, 60, 6
2, 539882, Note_on_c, 0, 57, 7
2, 539939, Note_on_c, 0, 74, 0
2, 539984, Note_on_c, 0, 64, 0
2, 539996, Note_on_c, 0, 60, 0
2, 540028, Note_on_c, 0, 57, 0
2, 540259, Note_on_c, 0, 74, 13
2, 540272, Note_on_c, 0, 64, 5
2, 540281, Note_on_c, 0, 57, 8
2, 540300, Note_on_c, 0, 60, 5
2, 540390, Note_on_c, 0, 64, 0
2, 540391, Note_on_c, 0, 60, 0
2, 540397, Note_on_c, 0, 74, 0
2, 540452, Note_on_c, 0, 57, 0
2, 540705, Note_on_c, 0, 71, 14
2, 540749, Note_on_c, 0, 57, 8
2, 540785, Note_on_c, 0, 60, 5
2, 540841, Note_on_c, 0, 71, 0
2, 540852, Note_on_c, 0, 60, 0
2, 540918, Note_on_c, 0, 57, 0
2, 540942, Note_on_c, 0, 74, 10
2, 541269, Note_on_c, 0, 74, 0
2, 541354, Note_on_c, 0, 64, 4
2, 541359, Note_on_c, 0, 71, 10
2, 541367, Note_on_c, 0, 60, 5
2, 541368, Note_on_c, 0, 54, 8
2, 541568, Note_on_c, 0, 71, 0
2, 541580, Note_on_c, 0, 64, 0
2, 541601, Note_on_c, 0, 54, 0
2, 541604, Note_on_c, 0, 60, 0
2, 541847, Note_on_c, 0, 71, 9
2, 541853, Note_on_c, 0, 64, 4
2, 541876, Note_on_c, 0, 54, 5
2, 541891, Note_on_c, 0, 60, 6
2, 542007, Note_on_c, 0, 64, 0
2, 542040, Note_on_c, 0, 54, 0
2, 542041, Note_on_c, 0, 60, 0
2, 542056, Note_on_c, 0, 71, 0
2, 542312, Note_on_c, 0, 71, 7
2, 542356, Note_on_c, 0, 64, 3
2, 542364, Note_on_c, 0, 54, 4
2, 542391, Note_on_c, 0, 60, 4
2, 542591, Note_on_c, 0, 71, 0
2, 542700, Note_on_c, 0, 69, 3
2, 542746, Note_on_c, 0, 64, 0
2, 542757, Note_on_c, 0, 54, 0
2, 542772, Note_on_c, 0, 60, 0
2, 542831, Note_on_c, 0, 69, 0
2, 543112, Note_on_c, 0, 64, 3
2, 543135, Note_on_c, 0, 60, 3
2, 543142, Note_on_c, 0, 54, 2
2, 543231, Note_on_c, 0, 54, 0
2, 543242, Note_on_c, 0, 60, 0
2, 543255, Note_on_c, 0, 64, 0
2, 543811, Note_on_c, 0, 64, 2
2, 543837, Note_on_c, 0, 60, 2
2, 543849, Note_on_c, 0, 54, 2
2, 543977, Note_on_c, 0, 64, 0
2, 543994, Note_on_c, 0, 54, 0
2, 544012, Note_on_c, 0, 60, 0
2, 544566, Note_on_c, 0, 54, 1
2, 544595, Note_on_c, 0, 64, 1
2, 544611, Note_on_c, 0, 60, 1
2, 544695, Note_on_c, 0, 60, 0
2, 544731, Note_on_c, 0, 54, 0
2, 544735, Note_on_c, 0, 64, 0
2, 545225, Note_on_c, 0, 59, 1
2, 545232, Note_on_c, 0, 64, 1
2, 545246, Note_on_c, 0, 60, 1
2, 546776, Note_on_c, 0, 64, 0
2, 546801, Note_on_c, 0, 59, 0
2, 546850, Note_on_c, 0, 60, 0
2, 546850, End_track
3, 0, Start_track
3, 0, Title_t, "Bass"
3, 0, Program_c, 2, 32
3, 0, Control_c, 2, 7, 120
3, 31, Note_on_c, 2, 41, 79
3, 669, Note_on_c, 2, 41, 0
3, 794, Note_on_c, 2, 41, 74
3, 1463, Note_on_c, 2, 41, 0
3, 1556, Note_on_c, 2, 41, 74
3, 1978, Note_on_c, 2, 41, 0
3, 2014, Note_on_c, 2, 39, 78
3, 2841, Note_on_c, 2, 39, 0
3, 2946, Note_on_c, 2, 39, 62
3, 3862, Note_on_c, 2, 39, 0
3, 3955, Note_on_c, 2, 38, 67
3, 4514, Note_on_c, 2, 38, 0
3, 4651, Note_on_c, 2, 38, 68
3, 5348, Note_on_c, 2, 44, 76
3, 5414, Note_on_c, 2, 38, 0
3, 5785, Note_on_c, 2, 44, 0
3, 5823, Note_on_c, 2, 43, 69
3, 6458, Note_on_c, 2, 43, 0
3, 6559, Note_on_c, 2, 43, 68
3, 6788, Note_on_c, 2, 38, 73
3, 6837, Note_on_c, 2, 43, 0
3, 7271, Note_on_c, 2, 31, 68
3, 7323, Note_on_c, 2, 38, 0
3, 7748, Note_on_c, 2, 31, 0
3, 7764, Note_on_c, 2, 36, 83
3, 8390, Note_on_c, 2, 36, 0
3, 8513, Note_on_c, 2, 36, 71
3, 9092, Note_on_c, 2, 36, 0
3, 9184, Note_on_c, 2, 36, 80
3, 10483, Note_on_c, 2, 36, 0
3, 10604, Note_on_c, 2, 36, 73
3, 11525, Note_on_c, 2, 36, 0
3, 11587, Note_on_c, 2, 38, 71
3, 12097, Note_on_c, 2, 38, 0
3, 12301, Note_on_c, 2, 38, 74
3, 12777, Note_on_c, 2, 52, 44
3, 12860, Note_on_c, 2, 52, 0
3, 12958, Note_on_c, 2, 53, 57
3, 13258, Note_on_c, 2, 53, 0
3, 13318, Note_on_c, 2, 54, 79
3, 14291, Note_on_c, 2, 38, 0
3, 14434, Note_on_c, 2, 38, 66
3, 14523, Note_on_c, 2, 54, 0
3, 14686, Note_on_c, 2, 38, 0
3, 14922, Note_on_c, 2, 38, 71
3, 15239, Note_on_c, 2, 38, 0
3, 15406, Note_on_c, 2, 38, 72
3, 16040, Note_on_c, 2, 38, 0
3, 16156, Note_on_c, 2, 38, 64
3, 16788, Note_on_c, 2, 38, 0
3, 16883, Note_on_c, 2, 38, 68
3, 18218, Note_on_c, 2, 38, 0
3, 18266, Note_on_c, 2, 32, 61
3, 19104, Note_on_c, 2, 32, 0
3, 19202, Note_on_c, 2, 31, 67
3, 19859, Note_on_c, 2, 38, 68
3, 20219, Note_on_c, 2, 31, 0
3, 20263, Note_on_c, 2, 38, 0
3, 20646, Note_on_c, 2, 38, 81
3, 22108, Note_on_c, 2, 31, 60
3, 22181, Note_on_c, 2, 38, 0
3, 22285, Note_on_c, 2, 31, 0
3, 22559, Note_on_c, 2, 31, 68
3, 22953, Note_on_c, 2, 31, 0
3, 23044, Note_on_c, 2, 36, 71
3, 24533, Note_on_c, 2, 43, 71
3, 24733, Note_on_c, 2, 43, 0
3, 24821, Note_on_c, 2, 43, 68
3, 25319, Note_on_c, 2, 43, 0
3, 25509, Note_on_c, 2, 43, 71
3, 25725, Note_on_c, 2, 36, 0
3, 26789, Note_on_c, 2, 36, 42
3, 26832, Note_on_c, 2, 43, 0
3, 26871, Note_on_c, 2, 36, 0
3, 26942, Note_on_c, 2, 47, 77
3, 28379, Note_on_c, 2, 39, 43
3, 28396, Note_on_c, 2, 47, 0
3, 28442, Note_on_c, 2, 39, 0
3, 28638, Note_on_c, 2, 39, 57
3, 28798, Note_on_c, 2, 39, 0
3, 28833, Note_on_c, 2, 40, 51
3, 29322, Note_on_c, 2, 56, 60
3, 30451, Note_on_c, 2, 40, 0
3, 30479, Note_on_c, 2, 39, 38
3, 30663, Note_on_c, 2, 56, 0
3, 30697, Note_on_c, 2, 39, 0
3, 30741, Note_on_c, 2, 45, 62
3, 31361, Note_on_c, 2, 45, 0
3, 31475, Note_on_c, 2, 45, 60
3, 32055, Note_on_c, 2, 45, 0
3, 32199, Note_on_c, 2, 40, 45
3, 33377, Note_on_c, 2, 40, 0
3, 33455, Note_on_c, 2, 40, 40
3, 33628, Note_on_c, 2, 33, 56
3, 33685, Note_on_c, 2, 40, 0
3, 34017, Note_on_c, 2, 33, 0
3, 34083, Note_on_c, 2, 37, 57
3, 34519, Note_on_c, 2, 37, 0
3, 34613, Note_on_c, 2, 38, 55
3, 35130, Note_on_c, 2, 38, 0
3, 35268, Note_on_c, 2, 38, 55
3, 35752, Note_on_c, 2, 38, 0
3, 36017, Note_on_c, 2, 38, 71
3, 37406, Note_on_c, 2, 38, 0
3, 37438, Note_on_c, 2, 32, 59
3, 38219, Note_on_c, 2, 32, 0
3, 38360, Note_on_c, 2, 31, 58
3, 39072, Note_on_c, 2, 38, 60
3, 39088, Note_on_c, 2, 31, 0
3, 39585, Note_on_c, 2, 38, 0
3, 39857, Note_on_c, 2, 38, 71
3, 41888, Note_on_c, 2, 38, 0
3, 42020, Note_on_c, 2, 38, 55
3, 42189, Note_on_c, 2, 38, 0
3, 42239, Note_on_c, 2, 31, 66
3, 43001, Note_on_c, 2, 38, 66
3, 43051, Note_on_c, 2, 31, 0
3, 43333, Note_on_c, 2, 38, 0
3, 43689, Note_on_c, 2, 38, 71
3, 45162, Note_on_c, 2, 45, 87
3, 45191, Note_on_c, 2, 38, 0
3, 45381, Note_on_c, 2, 45, 0
3, 45394, Note_on_c, 2, 38, 51
3, 45599, Note_on_c, 2, 44, 63
3, 45633, Note_on_c, 2, 38, 0
3, 46041, Note_on_c, 2, 44, 0
3, 46091, Note_on_c, 2, 43, 62
3, 46607, Note_on_c, 2, 43, 0
3, 46733, Note_on_c, 2, 43, 53
3, 47177, Note_on_c, 2, 43, 0
3, 47432, Note_on_c, 2, 43, 64
3, 48745, Note_on_c, 2, 38, 73
3, 48771, Note_on_c, 2, 43, 0
3, 48863, Note_on_c, 2, 38, 0
3, 48941, Note_on_c, 2, 38, 77
3, 49256, Note_on_c, 2, 38, 0
3, 49403, Note_on_c, 2, 37, 62
3, 49762, Note_on_c, 2, 37, 0
3, 49881, Note_on_c, 2, 36, 65
3, 50601, Note_on_c, 2, 43, 62
3, 50999, Note_on_c, 2, 43, 0
3, 51323, Note_on_c, 2, 43, 73
3, 52116, Note_on_c, 2, 36, 0
3, 52611, Note_on_c, 2, 36, 72
3, 52719, Note_on_c, 2, 36, 0
3, 52814, Note_on_c, 2, 36, 66
3, 53066, Note_on_c, 2, 43, 0
3, 53173, Note_on_c, 2, 36, 0
3, 53219, Note_on_c, 2, 30, 59
3, 53592, Note_on_c, 2, 30, 0
3, 53701, Note_on_c, 2, 29, 60
3, 54398, Note_on_c, 2, 29, 0
3, 54475, Note_on_c, 2, 36, 75
3, 55187, Note_on_c, 2, 45, 71
3, 55215, Note_on_c, 2, 36, 0
3, 56491, Note_on_c, 2, 36, 65
3, 56545, Note_on_c, 2, 45, 0
3, 56600, Note_on_c, 2, 36, 0
3, 56672, Note_on_c, 2, 36, 56
3, 57068, Note_on_c, 2, 36, 0
3, 57133, Note_on_c, 2, 29, 66
3, 58579, Note_on_c, 2, 35, 65
3, 58618, Note_on_c, 2, 29, 0
3, 58838, Note_on_c, 2, 35, 0
3, 58864, Note_on_c, 2, 36, 65
3, 59486, Note_on_c, 2, 36, 0
3, 59499, Note_on_c, 2, 41, 74
3, 60144, Note_on_c, 2, 41, 0
3, 60246, Note_on_c, 2, 41, 63
3, 60367, Note_on_c, 2, 41, 0
3, 60445, Note_on_c, 2, 41, 60
3, 60631, Note_on_c, 2, 41, 0
3, 60927, Note_on_c, 2, 36, 65
3, 61401, Note_on_c, 2, 36, 0
3, 61506, Note_on_c, 2, 29, 28
3, 61565, Note_on_c, 2, 29, 0
3, 61899, Note_on_c, 2, 29, 68
3, 63141, Note_on_c, 2, 36, 55
3, 63195, Note_on_c, 2, 36, 0
3, 63334, Note_on_c, 2, 36, 62
3, 63447, Note_on_c, 2, 29, 0
3, 63967, Note_on_c, 2, 36, 0
3, 64127, Note_on_c, 2, 36, 66
3, 64199, Note_on_c, 2, 36, 0
3, 64310, Note_on_c, 2, 36, 62
3, 64694, Note_on_c, 2, 36, 0
3, 64782, Note_on_c, 2, 34, 59
3, 66872, Note_on_c, 2, 34, 0
3, 67050, Note_on_c, 2, 34, 42
3, 67124, Note_on_c, 2, 34, 0
3, 67204, Note_on_c, 2, 41, 57
3, 67556, Note_on_c, 2, 41, 0
3, 67694, Note_on_c, 2, 41, 60
3, 68022, Note_on_c, 2, 41, 0
3, 68185, Note_on_c, 2, 41, 64
3, 68679, Note_on_c, 2, 34, 33
3, 68795, Note_on_c, 2, 41, 0
3, 69117, Note_on_c, 2, 34, 0
3, 69628, Note_on_c, 2, 39, 60
3, 69806, Note_on_c, 2, 39, 0
3, 70142, Note_on_c, 2, 39, 63
3, 70973, Note_on_c, 2, 39, 0
3, 71098, Note_on_c, 2, 34, 60
3, 71616, Note_on_c, 2, 34, 0
3, 71851, Note_on_c, 2, 34, 57
3, 72321, Note_on_c, 2, 34, 0
3, 72519, Note_on_c, 2, 34, 59
3, 72927, Note_on_c, 2, 34, 0
3, 73418, Note_on_c, 2, 36, 68
3, 73591, Note_on_c, 2, 36, 0
3, 74005, Note_on_c, 2, 36, 70
3, 74685, Note_on_c, 2, 39, 62
3, 74702, Note_on_c, 2, 36, 0
3, 75270, Note_on_c, 2, 39, 0
3, 75371, Note_on_c, 2, 39, 60
3, 76155, Note_on_c, 2, 51, 74
3, 76184, Note_on_c, 2, 39, 0
3, 76301, Note_on_c, 2, 51, 0
3, 76318, Note_on_c, 2, 39, 58
3, 76787, Note_on_c, 2, 34, 25
3, 76796, Note_on_c, 2, 39, 0
3, 76825, Note_on_c, 2, 45, 71
3, 76858, Note_on_c, 2, 34, 0
3, 77418, Note_on_c, 2, 45, 0
3, 77543, Note_on_c, 2, 45, 62
3, 77699, Note_on_c, 2, 45, 0
3, 78217, Note_on_c, 2, 45, 76
3, 79155, Note_on_c, 2, 39, 68
3, 79292, Note_on_c, 2, 39, 0
3, 79333, Note_on_c, 2, 45, 0
3, 79644, Note_on_c, 2, 39, 69
3, 80320, Note_on_c, 2, 39, 0
3, 80393, Note_on_c, 2, 37, 57
3, 80537, Note_on_c, 2, 37, 0
3, 80576, Note_on_c, 2, 38, 56
3, 81105, Note_on_c, 2, 38, 0
3, 81328, Note_on_c, 2, 38, 64
3, 81777, Note_on_c, 2, 52, 44
3, 81921, Note_on_c, 2, 52, 0
3, 81987, Note_on_c, 2, 53, 43
3, 82282, Note_on_c, 2, 53, 0
3, 82474, Note_on_c, 2, 54, 69
3, 82689, Note_on_c, 2, 54, 0
3, 82962, Note_on_c, 2, 54, 80
3, 83531, Note_on_c, 2, 38, 0
3, 83756, Note_on_c, 2, 38, 56
3, 83819, Note_on_c, 2, 38, 0
3, 83938, Note_on_c, 2, 38, 50
3, 83941, Note_on_c, 2, 54, 0
3, 84298, Note_on_c, 2, 38, 0
3, 84454, Note_on_c, 2, 43, 68
3, 85047, Note_on_c, 2, 43, 0
3, 85160, Note_on_c, 2, 43, 55
3, 85646, Note_on_c, 2, 43, 0
3, 85923, Note_on_c, 2, 43, 66
3, 87602, Note_on_c, 2, 38, 70
3, 87674, Note_on_c, 2, 43, 0
3, 88283, Note_on_c, 2, 38, 0
3, 88322, Note_on_c, 2, 40, 59
3, 89651, Note_on_c, 2, 35, 24
3, 89697, Note_on_c, 2, 40, 0
3, 89701, Note_on_c, 2, 35, 0
3, 89848, Note_on_c, 2, 28, 45
3, 90809, Note_on_c, 2, 35, 78
3, 90967, Note_on_c, 2, 28, 0
3, 91435, Note_on_c, 2, 35, 0
3, 91455, Note_on_c, 2, 34, 78
3, 92072, Note_on_c, 2, 34, 0
3, 92146, Note_on_c, 2, 33, 66
3, 93241, Note_on_c, 2, 33, 0
3, 93615, Note_on_c, 2, 33, 71
3, 94823, Note_on_c, 2, 40, 60
3, 94887, Note_on_c, 2, 40, 0
3, 95028, Note_on_c, 2, 40, 57
3, 95306, Note_on_c, 2, 40, 0
3, 95454, Note_on_c, 2, 33, 0
3, 95523, Note_on_c, 2, 40, 80
3, 95938, Note_on_c, 2, 40, 0
3, 96032, Note_on_c, 2, 38, 66
3, 96515, Note_on_c, 2, 38, 0
3, 96746, Note_on_c, 2, 38, 74
3, 97148, Note_on_c, 2, 38, 0
3, 97460, Note_on_c, 2, 38, 74
3, 98876, Note_on_c, 2, 54, 75
3, 99063, Note_on_c, 2, 54, 0
3, 99174, Note_on_c, 2, 54, 72
3, 99308, Note_on_c, 2, 54, 0
3, 99411, Note_on_c, 2, 38, 0
3, 99634, Note_on_c, 2, 38, 63
3, 99856, Note_on_c, 2, 43, 65
3, 99871, Note_on_c, 2, 38, 0
3, 100379, Note_on_c, 2, 43, 0
3, 100532, Note_on_c, 2, 43, 58
3, 101021, Note_on_c, 2, 43, 0
3, 101260, Note_on_c, 2, 43, 64
3, 102463, Note_on_c, 2, 38, 58
3, 102517, Note_on_c, 2, 43, 0
3, 102535, Note_on_c, 2, 38, 0
3, 102679, Note_on_c, 2, 38, 60
3, 103111, Note_on_c, 2, 38, 0
3, 103167, Note_on_c, 2, 31, 71
3, 104718, Note_on_c, 2, 38, 30
3, 104781, Note_on_c, 2, 38, 0
3, 105183, Note_on_c, 2, 38, 65
3, 106174, Note_on_c, 2, 38, 0
3, 106361, Note_on_c, 2, 38, 39
3, 106420, Note_on_c, 2, 38, 0
3, 106562, Note_on_c, 2, 38, 49
3, 106642, Note_on_c, 2, 38, 0
3, 106774, Note_on_c, 2, 31, 0
3, 107012, Note_on_c, 2, 38, 79
3, 107464, Note_on_c, 2, 38, 0
3, 107495, Note_on_c, 2, 43, 83
3, 108071, Note_on_c, 2, 43, 0
3, 108213, Note_on_c, 2, 43, 68
3, 108568, Note_on_c, 2, 43, 0
3, 108897, Note_on_c, 2, 43, 78
3, 110648, Note_on_c, 2, 38, 66
3, 110707, Note_on_c, 2, 43, 0
3, 110773, Note_on_c, 2, 38, 0
3, 110816, Note_on_c, 2, 38, 38
3, 111267, Note_on_c, 2, 38, 0
3, 111330, Note_on_c, 2, 36, 65
3, 111838, Note_on_c, 2, 36, 0
3, 112073, Note_on_c, 2, 36, 64
3, 112367, Note_on_c, 2, 36, 0
3, 112766, Note_on_c, 2, 36, 71
3, 113775, Note_on_c, 2, 50, 45
3, 114036, Note_on_c, 2, 51, 51
3, 114098, Note_on_c, 2, 50, 0
3, 114199, Note_on_c, 2, 51, 0
3, 114232, Note_on_c, 2, 52, 64
3, 114708, Note_on_c, 2, 36, 0
3, 114979, Note_on_c, 2, 36, 45
3, 115022, Note_on_c, 2, 52, 0
3, 115135, Note_on_c, 2, 36, 0
3, 115191, Note_on_c, 2, 41, 63
3, 115721, Note_on_c, 2, 41, 0
3, 115898, Note_on_c, 2, 36, 63
3, 116582, Note_on_c, 2, 36, 0
3, 116648, Note_on_c, 2, 29, 64
3, 118581, Note_on_c, 2, 36, 24
3, 118630, Note_on_c, 2, 36, 0
3, 118866, Note_on_c, 2, 36, 50
3, 118894, Note_on_c, 2, 29, 0
3, 118995, Note_on_c, 2, 36, 0
3, 119080, Note_on_c, 2, 41, 74
3, 119676, Note_on_c, 2, 41, 0
3, 119774, Note_on_c, 2, 41, 62
3, 120234, Note_on_c, 2, 41, 0
3, 120476, Note_on_c, 2, 41, 67
3, 122198, Note_on_c, 2, 36, 51
3, 122313, Note_on_c, 2, 41, 0
3, 122359, Note_on_c, 2, 36, 0
3, 122613, Note_on_c, 2, 36, 47
3, 122814, Note_on_c, 2, 36, 0
3, 122817, Note_on_c, 2, 29, 50
3, 123566, Note_on_c, 2, 35, 55
3, 123608, Note_on_c, 2, 29, 0
3, 123695, Note_on_c, 2, 35, 0
3, 123759, Note_on_c, 2, 36, 54
3, 124025, Note_on_c, 2, 36, 0
3, 124283, Note_on_c, 2, 41, 75
3, 125690, Note_on_c, 2, 41, 0
3, 125747, Note_on_c, 2, 39, 67
3, 125916, Note_on_c, 2, 39, 0
3, 126048, Note_on_c, 2, 39, 64
3, 126544, Note_on_c, 2, 39, 0
3, 126575, Note_on_c, 2, 37, 42
3, 126623, Note_on_c, 2, 37, 0
3, 126691, Note_on_c, 2, 38, 64
3, 127245, Note_on_c, 2, 38, 0
3, 127450, Note_on_c, 2, 38, 71
3, 127713, Note_on_c, 2, 38, 0
3, 127994, Note_on_c, 2, 38, 59
3, 128067, Note_on_c, 2, 38, 0
3, 128181, Note_on_c, 2, 44, 74
3, 129402, Note_on_c, 2, 38, 55
3, 129460, Note_on_c, 2, 38, 0
3, 129502, Note_on_c, 2, 44, 0
3, 129581, Note_on_c, 2, 43, 68
3, 130083, Note_on_c, 2, 35, 58
3, 130092, Note_on_c, 2, 43, 0
3, 130538, Note_on_c, 2, 35, 0
3, 130580, Note_on_c, 2, 36, 63
3, 131312, Note_on_c, 2, 36, 0
3, 131401, Note_on_c, 2, 36, 71
3, 131529, Note_on_c, 2, 36, 0
3, 132036, Note_on_c, 2, 36, 78
3, 133467, Note_on_c, 2, 36, 0
3, 133482, Note_on_c, 2, 45, 91
3, 133601, Note_on_c, 2, 45, 0
3, 133738, Note_on_c, 2, 36, 71
3, 134259, Note_on_c, 2, 37, 74
3, 134298, Note_on_c, 2, 36, 0
3, 134360, Note_on_c, 2, 37, 0
3, 134465, Note_on_c, 2, 38, 58
3, 134786, Note_on_c, 2, 38, 0
3, 134886, Note_on_c, 2, 38, 69
3, 136123, Note_on_c, 2, 37, 37
3, 136254, Note_on_c, 2, 37, 0
3, 136291, Note_on_c, 2, 38, 0
3, 136324, Note_on_c, 2, 50, 68
3, 136570, Note_on_c, 2, 50, 0
3, 136601, Note_on_c, 2, 38, 32
3, 136735, Note_on_c, 2, 38, 0
3, 136820, Note_on_c, 2, 45, 66
3, 137571, Note_on_c, 2, 38, 74
3, 138215, Note_on_c, 2, 45, 0
3, 139292, Note_on_c, 2, 38, 0
3, 139452, Note_on_c, 2, 38, 31
3, 139636, Note_on_c, 2, 38, 0
3, 139639, Note_on_c, 2, 45, 78
3, 139861, Note_on_c, 2, 45, 0
3, 140159, Note_on_c, 2, 50, 84
3, 140911, Note_on_c, 2, 42, 55
3, 140916, Note_on_c, 2, 50, 0
3, 141577, Note_on_c, 2, 31, 71
3, 141585, Note_on_c, 2, 42, 0
3, 143495, Note_on_c, 2, 47, 78
3, 143713, Note_on_c, 2, 47, 0
3, 143995, Note_on_c, 2, 43, 70
3, 144673, Note_on_c, 2, 31, 0
3, 144709, Note_on_c, 2, 38, 59
3, 144791, Note_on_c, 2, 43, 0
3, 144799, Note_on_c, 2, 38, 0
3, 144918, Note_on_c, 2, 35, 54
3, 145318, Note_on_c, 2, 35, 0
3, 145385, Note_on_c, 2, 36, 74
3, 145647, Note_on_c, 2, 36, 0
3, 145886, Note_on_c, 2, 36, 79
3, 146386, Note_on_c, 2, 36, 0
3, 146645, Note_on_c, 2, 36, 71
3, 146936, Note_on_c, 2, 36, 0
3, 147337, Note_on_c, 2, 36, 75
3, 149235, Note_on_c, 2, 36, 0
3, 149242, Note_on_c, 2, 38, 47
3, 149394, Note_on_c, 2, 38, 0
3, 149513, Note_on_c, 2, 39, 57
3, 149683, Note_on_c, 2, 39, 0
3, 149713, Note_on_c, 2, 40, 55
3, 150318, Note_on_c, 2, 40, 0
3, 150448, Note_on_c, 2, 40, 55
3, 151051, Note_on_c, 2, 40, 0
3, 151122, Note_on_c, 2, 28, 73
3, 152618, Note_on_c, 2, 35, 60
3, 152704, Note_on_c, 2, 35, 0
3, 152896, Note_on_c, 2, 35, 60
3, 152929, Note_on_c, 2, 28, 0
3, 153047, Note_on_c, 2, 35, 0
3, 153070, Note_on_c, 2, 32, 58
3, 153463, Note_on_c, 2, 32, 0
3, 153560, Note_on_c, 2, 33, 68
3, 154111, Note_on_c, 2, 33, 0
3, 154282, Note_on_c, 2, 33, 62
3, 154490, Note_on_c, 2, 33, 0
3, 155017, Note_on_c, 2, 33, 55
3, 156222, Note_on_c, 2, 37, 51
3, 156345, Note_on_c, 2, 33, 0
3, 156381, Note_on_c, 2, 37, 0
3, 156466, Note_on_c, 2, 40, 58
3, 156846, Note_on_c, 2, 40, 0
3, 156926, Note_on_c, 2, 39, 59
3, 157347, Note_on_c, 2, 39, 0
3, 157420, Note_on_c, 2, 38, 61
3, 157992, Note_on_c, 2, 38, 0
3, 158175, Note_on_c, 2, 38, 65
3, 158456, Note_on_c, 2, 38, 0
3, 158912, Note_on_c, 2, 45, 77
3, 160017, Note_on_c, 2, 45, 0
3, 160133, Note_on_c, 2, 45, 49
3, 160315, Note_on_c, 2, 54, 74
3, 160365, Note_on_c, 2, 45, 0
3, 160785, Note_on_c, 2, 42, 48
3, 160787, Note_on_c, 2, 54, 0
3, 161202, Note_on_c, 2, 42, 0
3, 161284, Note_on_c, 2, 43, 50
3, 161948, Note_on_c, 2, 43, 0
3, 161971, Note_on_c, 2, 38, 57
3, 162636, Note_on_c, 2, 38, 0
3, 162721, Note_on_c, 2, 31, 58
3, 164093, Note_on_c, 2, 38, 66
3, 164240, Note_on_c, 2, 31, 0
3, 164260, Note_on_c, 2, 38, 0
3, 164391, Note_on_c, 2, 38, 45
3, 164514, Note_on_c, 2, 38, 0
3, 164938, Note_on_c, 2, 38, 55
3, 165091, Note_on_c, 2, 38, 0
3, 165127, Note_on_c, 2, 43, 63
3, 165680, Note_on_c, 2, 43, 0
3, 165818, Note_on_c, 2, 43, 58
3, 166399, Note_on_c, 2, 43, 0
3, 166563, Note_on_c, 2, 43, 66
3, 167276, Note_on_c, 2, 38, 57
3, 167316, Note_on_c, 2, 43, 0
3, 167391, Note_on_c, 2, 38, 0
3, 167458, Note_on_c, 2, 31, 55
3, 167860, Note_on_c, 2, 31, 0
3, 167994, Note_on_c, 2, 31, 58
3, 168387, Note_on_c, 2, 38, 53
3, 168537, Note_on_c, 2, 31, 0
3, 168602, Note_on_c, 2, 38, 0
3, 168949, Note_on_c, 2, 31, 74
3, 169644, Note_on_c, 2, 38, 63
3, 169888, Note_on_c, 2, 31, 0
3, 170313, Note_on_c, 2, 46, 67
3, 171498, Note_on_c, 2, 38, 0
3, 171598, Note_on_c, 2, 38, 65
3, 171633, Note_on_c, 2, 46, 0
3, 171784, Note_on_c, 2, 38, 0
3, 171826, Note_on_c, 2, 38, 36
3, 172146, Note_on_c, 2, 38, 0
3, 172293, Note_on_c, 2, 36, 78
3, 173780, Note_on_c, 2, 43, 55
3, 173842, Note_on_c, 2, 43, 0
3, 174490, Note_on_c, 2, 43, 65
3, 175016, Note_on_c, 2, 36, 0
3, 175183, Note_on_c, 2, 36, 71
3, 175321, Note_on_c, 2, 43, 0
3, 175761, Note_on_c, 2, 36, 0
3, 175930, Note_on_c, 2, 36, 71
3, 176055, Note_on_c, 2, 36, 0
3, 176139, Note_on_c, 2, 36, 58
3, 176553, Note_on_c, 2, 36, 0
3, 176591, Note_on_c, 2, 29, 61
3, 177317, Note_on_c, 2, 36, 66
3, 177412, Note_on_c, 2, 29, 0
3, 178025, Note_on_c, 2, 45, 60
3, 178263, Note_on_c, 2, 36, 0
3, 179301, Note_on_c, 2, 36, 68
3, 179360, Note_on_c, 2, 45, 0
3, 179419, Note_on_c, 2, 36, 0
3, 179516, Note_on_c, 2, 36, 66
3, 179953, Note_on_c, 2, 36, 0
3, 179998, Note_on_c, 2, 29, 64
3, 180621, Note_on_c, 2, 29, 0
3, 180741, Note_on_c, 2, 29, 52
3, 181210, Note_on_c, 2, 29, 0
3, 181461, Note_on_c, 2, 29, 66
3, 182296, Note_on_c, 2, 29, 0
3, 182417, Note_on_c, 2, 29, 53
3, 182972, Note_on_c, 2, 29, 0
3, 183104, Note_on_c, 2, 36, 71
3, 183437, Note_on_c, 2, 36, 0
3, 183624, Note_on_c, 2, 36, 34
3, 183690, Note_on_c, 2, 36, 0
3, 183817, Note_on_c, 2, 41, 51
3, 184209, Note_on_c, 2, 41, 0
3, 184315, Note_on_c, 2, 41, 64
3, 184934, Note_on_c, 2, 41, 0
3, 185048, Note_on_c, 2, 41, 62
3, 185562, Note_on_c, 2, 41, 0
3, 185767, Note_on_c, 2, 41, 68
3, 187008, Note_on_c, 2, 36, 59
3, 187047, Note_on_c, 2, 41, 0
3, 187099, Note_on_c, 2, 36, 0
3, 187191, Note_on_c, 2, 32, 64
3, 187561, Note_on_c, 2, 32, 0
3, 187672, Note_on_c, 2, 34, 46
3, 188887, Note_on_c, 2, 46, 60
3, 188982, Note_on_c, 2, 46, 0
3, 189079, Note_on_c, 2, 46, 51
3, 189267, Note_on_c, 2, 46, 0
3, 189596, Note_on_c, 2, 46, 81
3, 190978, Note_on_c, 2, 46, 0
3, 191001, Note_on_c, 2, 34, 0
3, 191005, Note_on_c, 2, 41, 51
3, 191180, Note_on_c, 2, 41, 0
3, 191463, Note_on_c, 2, 41, 58
3, 191813, Note_on_c, 2, 41, 0
3, 191985, Note_on_c, 2, 39, 57
3, 192706, Note_on_c, 2, 46, 51
3, 193023, Note_on_c, 2, 46, 0
3, 193259, Note_on_c, 2, 46, 32
3, 193332, Note_on_c, 2, 46, 0
3, 193479, Note_on_c, 2, 55, 74
3, 194699, Note_on_c, 2, 46, 53
3, 194781, Note_on_c, 2, 46, 0
3, 194912, Note_on_c, 2, 46, 60
3, 195184, Note_on_c, 2, 46, 0
3, 195226, Note_on_c, 2, 39, 0
3, 195371, Note_on_c, 2, 37, 60
3, 195772, Note_on_c, 2, 37, 0
3, 195857, Note_on_c, 2, 39, 76
3, 196546, Note_on_c, 2, 46, 69
3, 196666, Note_on_c, 2, 55, 0
3, 196787, Note_on_c, 2, 46, 0
3, 197317, Note_on_c, 2, 46, 75
3, 197408, Note_on_c, 2, 39, 0
3, 198305, Note_on_c, 2, 55, 90
3, 198570, Note_on_c, 2, 46, 0
3, 199003, Note_on_c, 2, 46, 65
3, 199138, Note_on_c, 2, 46, 0
3, 199172, Note_on_c, 2, 39, 46
3, 199223, Note_on_c, 2, 55, 0
3, 199350, Note_on_c, 2, 39, 0
3, 199514, Note_on_c, 2, 39, 50
3, 199700, Note_on_c, 2, 45, 33
3, 199732, Note_on_c, 2, 39, 0
3, 200388, Note_on_c, 2, 45, 0
3, 200457, Note_on_c, 2, 39, 55
3, 200541, Note_on_c, 2, 39, 0
3, 200675, Note_on_c, 2, 39, 61
3, 201553, Note_on_c, 2, 39, 0
3, 201611, Note_on_c, 2, 33, 64
3, 202368, Note_on_c, 2, 39, 62
3, 202476, Note_on_c, 2, 39, 0
3, 202569, Note_on_c, 2, 39, 56
3, 202694, Note_on_c, 2, 33, 0
3, 202796, Note_on_c, 2, 39, 0
3, 203042, Note_on_c, 2, 37, 65
3, 203440, Note_on_c, 2, 37, 0
3, 203543, Note_on_c, 2, 38, 69
3, 204153, Note_on_c, 2, 38, 0
3, 204286, Note_on_c, 2, 38, 63
3, 204582, Note_on_c, 2, 38, 0
3, 204986, Note_on_c, 2, 38, 80
3, 206399, Note_on_c, 2, 44, 81
3, 206436, Note_on_c, 2, 38, 0
3, 207151, Note_on_c, 2, 38, 61
3, 207254, Note_on_c, 2, 44, 0
3, 207274, Note_on_c, 2, 38, 0
3, 207328, Note_on_c, 2, 43, 61
3, 207990, Note_on_c, 2, 43, 0
3, 208089, Note_on_c, 2, 43, 60
3, 208555, Note_on_c, 2, 43, 0
3, 208805, Note_on_c, 2, 43, 74
3, 210071, Note_on_c, 2, 43, 0
3, 210229, Note_on_c, 2, 42, 64
3, 210316, Note_on_c, 2, 42, 0
3, 210448, Note_on_c, 2, 42, 44
3, 210558, Note_on_c, 2, 42, 0
3, 210640, Note_on_c, 2, 41, 62
3, 211050, Note_on_c, 2, 41, 0
3, 211190, Note_on_c, 2, 40, 57
3, 211897, Note_on_c, 2, 35, 53
3, 211927, Note_on_c, 2, 40, 0
3, 211975, Note_on_c, 2, 35, 0
3, 212113, Note_on_c, 2, 28, 57
3, 212470, Note_on_c, 2, 28, 0
3, 212595, Note_on_c, 2, 28, 66
3, 213756, Note_on_c, 2, 28, 0
3, 213812, Note_on_c, 2, 31, 67
3, 214521, Note_on_c, 2, 32, 75
3, 214523, Note_on_c, 2, 31, 0
3, 214918, Note_on_c, 2, 32, 0
3, 215016, Note_on_c, 2, 33, 69
3, 215567, Note_on_c, 2, 33, 0
3, 215770, Note_on_c, 2, 33, 68
3, 216043, Note_on_c, 2, 33, 0
3, 216476, Note_on_c, 2, 33, 53
3, 217755, Note_on_c, 2, 40, 41
3, 217869, Note_on_c, 2, 40, 0
3, 217964, Note_on_c, 2, 45, 59
3, 218237, Note_on_c, 2, 33, 0
3, 218285, Note_on_c, 2, 45, 0
3, 218434, Note_on_c, 2, 39, 61
3, 218836, Note_on_c, 2, 39, 0
3, 218923, Note_on_c, 2, 38, 61
3, 219670, Note_on_c, 2, 45, 70
3, 220394, Note_on_c, 2, 54, 64
3, 221412, Note_on_c, 2, 45, 0
3, 221680, Note_on_c, 2, 45, 71
3, 221781, Note_on_c, 2, 45, 0
3, 221872, Note_on_c, 2, 45, 76
3, 222135, Note_on_c, 2, 45, 0
3, 222298, Note_on_c, 2, 45, 64
3, 222307, Note_on_c, 2, 38, 0
3, 222680, Note_on_c, 2, 45, 0
3, 222788, Note_on_c, 2, 43, 65
3, 223378, Note_on_c, 2, 43, 0
3, 223457, Note_on_c, 2, 38, 62
3, 223565, Note_on_c, 2, 54, 0
3, 224144, Note_on_c, 2, 31, 66
3, 224233, Note_on_c, 2, 38, 0
3, 225397, Note_on_c, 2, 38, 63
3, 225515, Note_on_c, 2, 38, 0
3, 225624, Note_on_c, 2, 38, 60
3, 225843, Note_on_c, 2, 38, 0
3, 226095, Note_on_c, 2, 38, 68
3, 226523, Note_on_c, 2, 38, 0
3, 226576, Note_on_c, 2, 43, 77
3, 227187, Note_on_c, 2, 43, 0
3, 227302, Note_on_c, 2, 43, 71
3, 227639, Note_on_c, 2, 31, 0
3, 227721, Note_on_c, 2, 43, 0
3, 227986, Note_on_c, 2, 43, 74
3, 229086, Note_on_c, 2, 43, 0
3, 229185, Note_on_c, 2, 38, 72
3, 229425, Note_on_c, 2, 38, 0
3, 229655, Note_on_c, 2, 38, 63
3, 229787, Note_on_c, 2, 38, 0
3, 229857, Note_on_c, 2, 31, 68
3, 230157, Note_on_c, 2, 31, 0
3, 230356, Note_on_c, 2, 31, 70
3, 230925, Note_on_c, 2, 31, 0
3, 231088, Note_on_c, 2, 31, 67
3, 231511, Note_on_c, 2, 31, 0
3, 231803, Note_on_c, 2, 31, 73
3, 233269, Note_on_c, 2, 38, 64
3, 233399, Note_on_c, 2, 38, 0
3, 233429, Note_on_c, 2, 31, 0
3, 233729, Note_on_c, 2, 38, 66
3, 234138, Note_on_c, 2, 38, 0
3, 234234, Note_on_c, 2, 36, 68
3, 234750, Note_on_c, 2, 36, 0
3, 234931, Note_on_c, 2, 36, 74
3, 235290, Note_on_c, 2, 36, 0
3, 235654, Note_on_c, 2, 36, 71
3, 236875, Note_on_c, 2, 43, 58
3, 236943, Note_on_c, 2, 43, 0
3, 237095, Note_on_c, 2, 43, 57
3, 237165, Note_on_c, 2, 36, 0
3, 237347, Note_on_c, 2, 43, 0
3, 237550, Note_on_c, 2, 30, 62
3, 237922, Note_on_c, 2, 30, 0
3, 238046, Note_on_c, 2, 29, 66
3, 238816, Note_on_c, 2, 36, 58
3, 239451, Note_on_c, 2, 29, 0
3, 239470, Note_on_c, 2, 36, 0
3, 239500, Note_on_c, 2, 41, 79
3, 240711, Note_on_c, 2, 41, 0
3, 240982, Note_on_c, 2, 36, 54
3, 241083, Note_on_c, 2, 36, 0
3, 241447, Note_on_c, 2, 29, 77
3, 242874, Note_on_c, 2, 36, 67
3, 243021, Note_on_c, 2, 29, 0
3, 243606, Note_on_c, 2, 41, 71
3, 243659, Note_on_c, 2, 36, 0
3, 244468, Note_on_c, 2, 41, 0
3, 244573, Note_on_c, 2, 36, 65
3, 244629, Note_on_c, 2, 36, 0
3, 244766, Note_on_c, 2, 36, 66
3, 244978, Note_on_c, 2, 36, 0
3, 245240, Note_on_c, 2, 36, 74
3, 245534, Note_on_c, 2, 36, 0
3, 245696, Note_on_c, 2, 29, 69
3, 246268, Note_on_c, 2, 29, 0
3, 246461, Note_on_c, 2, 29, 65
3, 246883, Note_on_c, 2, 29, 0
3, 247236, Note_on_c, 2, 29, 67
3, 248473, Note_on_c, 2, 29, 0
3, 248654, Note_on_c, 2, 39, 78
3, 249413, Note_on_c, 2, 39, 0
3, 249579, Note_on_c, 2, 38, 62
3, 250158, Note_on_c, 2, 38, 0
3, 250302, Note_on_c, 2, 38, 71
3, 250849, Note_on_c, 2, 34, 33
3, 250974, Note_on_c, 2, 38, 0
3, 251000, Note_on_c, 2, 44, 75
3, 251009, Note_on_c, 2, 34, 0
3, 251786, Note_on_c, 2, 43, 66
3, 251873, Note_on_c, 2, 44, 0
3, 252443, Note_on_c, 2, 38, 64
3, 252479, Note_on_c, 2, 43, 0
3, 252904, Note_on_c, 2, 31, 64
3, 252917, Note_on_c, 2, 38, 0
3, 253399, Note_on_c, 2, 31, 0
3, 253421, Note_on_c, 2, 36, 72
3, 253962, Note_on_c, 2, 36, 0
3, 254181, Note_on_c, 2, 36, 74
3, 254469, Note_on_c, 2, 36, 0
3, 254876, Note_on_c, 2, 36, 81
3, 256491, Note_on_c, 2, 36, 0
3, 256628, Note_on_c, 2, 36, 50
3, 256790, Note_on_c, 2, 45, 71
3, 256813, Note_on_c, 2, 36, 0
3, 257240, Note_on_c, 2, 45, 0
3, 257299, Note_on_c, 2, 50, 71
3, 257720, Note_on_c, 2, 38, 27
3, 257787, Note_on_c, 2, 38, 0
3, 257922, Note_on_c, 2, 50, 0
3, 258026, Note_on_c, 2, 50, 66
3, 258466, Note_on_c, 2, 50, 0
3, 258546, Note_on_c, 2, 38, 39
3, 258612, Note_on_c, 2, 38, 0
3, 258733, Note_on_c, 2, 50, 82
3, 260150, Note_on_c, 2, 37, 69
3, 260304, Note_on_c, 2, 50, 0
3, 260425, Note_on_c, 2, 38, 77
3, 260481, Note_on_c, 2, 37, 0
3, 261051, Note_on_c, 2, 38, 0
3, 261152, Note_on_c, 2, 38, 72
3, 261737, Note_on_c, 2, 38, 0
3, 261876, Note_on_c, 2, 38, 73
3, 262333, Note_on_c, 2, 38, 0
3, 262605, Note_on_c, 2, 38, 80
3, 263865, Note_on_c, 2, 34, 35
3, 264033, Note_on_c, 2, 50, 96
3, 264052, Note_on_c, 2, 38, 0
3, 264056, Note_on_c, 2, 34, 0
3, 264425, Note_on_c, 2, 38, 24
3, 264473, Note_on_c, 2, 50, 0
3, 264496, Note_on_c, 2, 44, 69
3, 264513, Note_on_c, 2, 38, 0
3, 264915, Note_on_c, 2, 44, 0
3, 264998, Note_on_c, 2, 43, 66
3, 265718, Note_on_c, 2, 38, 64
3, 265774, Note_on_c, 2, 43, 0
3, 265846, Note_on_c, 2, 38, 0
3, 265900, Note_on_c, 2, 31, 64
3, 266274, Note_on_c, 2, 31, 0
3, 266396, Note_on_c, 2, 31, 66
3, 267793, Note_on_c, 2, 38, 64
3, 267910, Note_on_c, 2, 38, 0
3, 267923, Note_on_c, 2, 31, 0
3, 268090, Note_on_c, 2, 38, 62
3, 268221, Note_on_c, 2, 38, 0
3, 268268, Note_on_c, 2, 35, 43
3, 268744, Note_on_c, 2, 35, 0
3, 268790, Note_on_c, 2, 36, 63
3, 269530, Note_on_c, 2, 45, 66
3, 269546, Note_on_c, 2, 36, 0
3, 269649, Note_on_c, 2, 45, 0
3, 269720, Note_on_c, 2, 43, 58
3, 270058, Note_on_c, 2, 43, 0
3, 270223, Note_on_c, 2, 43, 68
3, 271470, Note_on_c, 2, 43, 0
3, 271631, Note_on_c, 2, 43, 55
3, 271742, Note_on_c, 2, 43, 0
3, 271897, Note_on_c, 2, 36, 75
3, 272486, Note_on_c, 2, 36, 0
3, 272607, Note_on_c, 2, 35, 71
3, 273866, Note_on_c, 2, 40, 76
3, 273895, Note_on_c, 2, 35, 0
3, 275003, Note_on_c, 2, 28, 76
3, 275060, Note_on_c, 2, 40, 0
3, 275720, Note_on_c, 2, 28, 0
3, 275769, Note_on_c, 2, 32, 78
3, 276428, Note_on_c, 2, 32, 0
3, 276494, Note_on_c, 2, 33, 74
3, 277084, Note_on_c, 2, 33, 0
3, 277266, Note_on_c, 2, 33, 74
3, 277637, Note_on_c, 2, 33, 0
3, 277999, Note_on_c, 2, 33, 77
3, 279459, Note_on_c, 2, 40, 45
3, 279518, Note_on_c, 2, 40, 0
3, 279619, Note_on_c, 2, 33, 0
3, 279718, Note_on_c, 2, 40, 60
3, 279850, Note_on_c, 2, 40, 0
3, 279932, Note_on_c, 2, 39, 52
3, 280334, Note_on_c, 2, 39, 0
3, 280398, Note_on_c, 2, 38, 62
3, 280955, Note_on_c, 2, 38, 0
3, 281133, Note_on_c, 2, 38, 68
3, 281348, Note_on_c, 2, 38, 0
3, 281794, Note_on_c, 2, 38, 73
3, 283268, Note_on_c, 2, 45, 73
3, 283304, Note_on_c, 2, 38, 0
3, 283400, Note_on_c, 2, 45, 0
3, 283741, Note_on_c, 2, 42, 60
3, 284088, Note_on_c, 2, 42, 0
3, 284235, Note_on_c, 2, 43, 64
3, 284781, Note_on_c, 2, 43, 0
3, 284942, Note_on_c, 2, 43, 68
3, 285590, Note_on_c, 2, 43, 0
3, 285656, Note_on_c, 2, 31, 73
3, 287091, Note_on_c, 2, 43, 43
3, 287147, Note_on_c, 2, 43, 0
3, 287215, Note_on_c, 2, 31, 0
3, 287350, Note_on_c, 2, 43, 44
3, 287480, Note_on_c, 2, 42, 64
3, 287494, Note_on_c, 2, 43, 0
3, 287969, Note_on_c, 2, 42, 0
3, 288014, Note_on_c, 2, 43, 57
3, 288665, Note_on_c, 2, 43, 0
3, 288737, Note_on_c, 2, 31, 52
3, 288738, Note_on_c, 2, 43, 44
3, 288924, Note_on_c, 2, 43, 0
3, 289278, Note_on_c, 2, 31, 0
3, 289445, Note_on_c, 2, 31, 76
3, 290876, Note_on_c, 2, 43, 66
3, 290993, Note_on_c, 2, 43, 0
3, 291382, Note_on_c, 2, 43, 80
3, 291579, Note_on_c, 2, 43, 0
3, 291876, Note_on_c, 2, 43, 83
3, 292293, Note_on_c, 2, 31, 0
3, 292616, Note_on_c, 2, 31, 74
3, 292952, Note_on_c, 2, 31, 0
3, 293329, Note_on_c, 2, 31, 82
3, 293628, Note_on_c, 2, 43, 0
3, 294746, Note_on_c, 2, 43, 71
3, 294916, Note_on_c, 2, 31, 0
3, 295110, Note_on_c, 2, 43, 0
3, 295222, Note_on_c, 2, 38, 60
3, 295351, Note_on_c, 2, 38, 0
3, 295519, Note_on_c, 2, 38, 50
3, 295664, Note_on_c, 2, 38, 0
3, 295703, Note_on_c, 2, 36, 64
3, 296269, Note_on_c, 2, 36, 0
3, 296426, Note_on_c, 2, 36, 68
3, 296818, Note_on_c, 2, 36, 0
3, 297109, Note_on_c, 2, 36, 72
3, 297855, Note_on_c, 2, 50, 74
3, 298013, Note_on_c, 2, 50, 0
3, 298074, Note_on_c, 2, 49, 39
3, 298416, Note_on_c, 2, 36, 0
3, 298481, Note_on_c, 2, 49, 0
3, 298550, Note_on_c, 2, 48, 68
3, 298796, Note_on_c, 2, 48, 0
3, 298834, Note_on_c, 2, 40, 71
3, 299491, Note_on_c, 2, 40, 0
3, 299493, Note_on_c, 2, 41, 67
3, 300139, Note_on_c, 2, 41, 0
3, 300249, Note_on_c, 2, 41, 64
3, 300801, Note_on_c, 2, 41, 0
3, 300958, Note_on_c, 2, 41, 69
3, 302247, Note_on_c, 2, 36, 68
3, 302281, Note_on_c, 2, 41, 0
3, 302792, Note_on_c, 2, 36, 0
3, 302846, Note_on_c, 2, 29, 71
3, 305053, Note_on_c, 2, 36, 65
3, 305158, Note_on_c, 2, 29, 0
3, 305170, Note_on_c, 2, 36, 0
3, 305248, Note_on_c, 2, 41, 64
3, 305825, Note_on_c, 2, 41, 0
3, 306005, Note_on_c, 2, 41, 72
3, 306250, Note_on_c, 2, 41, 0
3, 306463, Note_on_c, 2, 41, 41
3, 306583, Note_on_c, 2, 41, 0
3, 306627, Note_on_c, 2, 36, 55
3, 307071, Note_on_c, 2, 36, 0
3, 307133, Note_on_c, 2, 29, 66
3, 307732, Note_on_c, 2, 29, 0
3, 307900, Note_on_c, 2, 29, 70
3, 308300, Note_on_c, 2, 29, 0
3, 308635, Note_on_c, 2, 29, 71
3, 310062, Note_on_c, 2, 36, 64
3, 310079, Note_on_c, 2, 29, 0
3, 310141, Note_on_c, 2, 36, 0
3, 310544, Note_on_c, 2, 35, 73
3, 310704, Note_on_c, 2, 35, 0
3, 311015, Note_on_c, 2, 34, 64
3, 311772, Note_on_c, 2, 46, 64
3, 311977, Note_on_c, 2, 46, 0
3, 312494, Note_on_c, 2, 46, 78
3, 313808, Note_on_c, 2, 46, 0
3, 313941, Note_on_c, 2, 41, 65
3, 314085, Note_on_c, 2, 41, 0
3, 314091, Note_on_c, 2, 34, 0
3, 314194, Note_on_c, 2, 41, 46
3, 314433, Note_on_c, 2, 40, 58
3, 314495, Note_on_c, 2, 41, 0
3, 314903, Note_on_c, 2, 40, 0
3, 314912, Note_on_c, 2, 39, 59
3, 315675, Note_on_c, 2, 46, 62
3, 316068, Note_on_c, 2, 46, 0
3, 316396, Note_on_c, 2, 46, 65
3, 316773, Note_on_c, 2, 39, 0
3, 317568, Note_on_c, 2, 46, 0
3, 317614, Note_on_c, 2, 39, 62
3, 317792, Note_on_c, 2, 39, 0
3, 317835, Note_on_c, 2, 39, 32
3, 318179, Note_on_c, 2, 39, 0
3, 318297, Note_on_c, 2, 39, 29
3, 318301, Note_on_c, 2, 38, 39
3, 318359, Note_on_c, 2, 38, 0
3, 318414, Note_on_c, 2, 39, 0
3, 318774, Note_on_c, 2, 39, 74
3, 319328, Note_on_c, 2, 39, 0
3, 319494, Note_on_c, 2, 39, 69
3, 320140, Note_on_c, 2, 39, 0
3, 320169, Note_on_c, 2, 34, 67
3, 321340, Note_on_c, 2, 34, 0
3, 321620, Note_on_c, 2, 39, 70
3, 321734, Note_on_c, 2, 39, 0
3, 321920, Note_on_c, 2, 39, 67
3, 322031, Note_on_c, 2, 39, 0
3, 322061, Note_on_c, 2, 34, 54
3, 322217, Note_on_c, 2, 35, 43
3, 322234, Note_on_c, 2, 34, 0
3, 322388, Note_on_c, 2, 35, 0
3, 322603, Note_on_c, 2, 33, 71
3, 323346, Note_on_c, 2, 39, 70
3, 323593, Note_on_c, 2, 33, 0
3, 324004, Note_on_c, 2, 39, 0
3, 324034, Note_on_c, 2, 45, 83
3, 325262, Note_on_c, 2, 48, 51
3, 325294, Note_on_c, 2, 39, 29
3, 325318, Note_on_c, 2, 48, 0
3, 325474, Note_on_c, 2, 51, 71
3, 325501, Note_on_c, 2, 39, 0
3, 325529, Note_on_c, 2, 45, 0
3, 325713, Note_on_c, 2, 51, 0
3, 325781, Note_on_c, 2, 39, 23
3, 325927, Note_on_c, 2, 51, 82
3, 325994, Note_on_c, 2, 39, 0
3, 326381, Note_on_c, 2, 51, 0
3, 326436, Note_on_c, 2, 50, 79
3, 327164, Note_on_c, 2, 45, 79
3, 327283, Note_on_c, 2, 50, 0
3, 327837, Note_on_c, 2, 45, 0
3, 327864, Note_on_c, 2, 38, 67
3, 329090, Note_on_c, 2, 45, 50
3, 329159, Note_on_c, 2, 45, 0
3, 329260, Note_on_c, 2, 50, 87
3, 329378, Note_on_c, 2, 38, 0
3, 329515, Note_on_c, 2, 50, 0
3, 329563, Note_on_c, 2, 49, 57
3, 329676, Note_on_c, 2, 49, 0
3, 329768, Note_on_c, 2, 50, 74
3, 331032, Note_on_c, 2, 41, 35
3, 331068, Note_on_c, 2, 50, 0
3, 331100, Note_on_c, 2, 41, 0
3, 331168, Note_on_c, 2, 47, 65
3, 331412, Note_on_c, 2, 47, 0
3, 331662, Note_on_c, 2, 47, 60
3, 332013, Note_on_c, 2, 47, 0
3, 332179, Note_on_c, 2, 42, 54
3, 332910, Note_on_c, 2, 35, 71
3, 332911, Note_on_c, 2, 42, 0
3, 333843, Note_on_c, 2, 39, 64
3, 333852, Note_on_c, 2, 35, 0
3, 333987, Note_on_c, 2, 39, 0
3, 334035, Note_on_c, 2, 40, 58
3, 334461, Note_on_c, 2, 40, 0
3, 334506, Note_on_c, 2, 28, 76
3, 335957, Note_on_c, 2, 35, 88
3, 336032, Note_on_c, 2, 28, 0
3, 336700, Note_on_c, 2, 32, 78
3, 336756, Note_on_c, 2, 35, 0
3, 337354, Note_on_c, 2, 32, 0
3, 337429, Note_on_c, 2, 33, 75
3, 338846, Note_on_c, 2, 40, 67
3, 339596, Note_on_c, 2, 40, 0
3, 339632, Note_on_c, 2, 45, 72
3, 340604, Note_on_c, 2, 40, 57
3, 340673, Note_on_c, 2, 40, 0
3, 340718, Note_on_c, 2, 45, 0
3, 340808, Note_on_c, 2, 40, 52
3, 341082, Note_on_c, 2, 40, 0
3, 341281, Note_on_c, 2, 40, 66
3, 341323, Note_on_c, 2, 33, 0
3, 341695, Note_on_c, 2, 40, 0
3, 341753, Note_on_c, 2, 38, 67
3, 342378, Note_on_c, 2, 38, 0
3, 342475, Note_on_c, 2, 38, 67
3, 342963, Note_on_c, 2, 38, 0
3, 343238, Note_on_c, 2, 38, 67
3, 344522, Note_on_c, 2, 38, 0
3, 344666, Note_on_c, 2, 38, 53
3, 345114, Note_on_c, 2, 38, 0
3, 345162, Note_on_c, 2, 42, 49
3, 345560, Note_on_c, 2, 42, 0
3, 345661, Note_on_c, 2, 43, 55
3, 346224, Note_on_c, 2, 43, 0
3, 346411, Note_on_c, 2, 59, 62
3, 346446, Note_on_c, 2, 43, 50
3, 346908, Note_on_c, 2, 59, 0
3, 346924, Note_on_c, 2, 43, 0
3, 346933, Note_on_c, 2, 58, 36
3, 346983, Note_on_c, 2, 42, 30
3, 347067, Note_on_c, 2, 58, 0
3, 347111, Note_on_c, 2, 59, 50
3, 347113, Note_on_c, 2, 42, 0
3, 347117, Note_on_c, 2, 43, 49
3, 348371, Note_on_c, 2, 59, 0
3, 348792, Note_on_c, 2, 43, 0
3, 348852, Note_on_c, 2, 42, 68
3, 349520, Note_on_c, 2, 43, 66
3, 349554, Note_on_c, 2, 42, 0
3, 350122, Note_on_c, 2, 43, 0
3, 350230, Note_on_c, 2, 42, 52
3, 350397, Note_on_c, 2, 42, 0
3, 350422, Note_on_c, 2, 43, 62
3, 350661, Note_on_c, 2, 43, 0
3, 350926, Note_on_c, 2, 43, 69
3, 352065, Note_on_c, 2, 43, 0
3, 352111, Note_on_c, 2, 42, 51
3, 352279, Note_on_c, 2, 42, 0
3, 352323, Note_on_c, 2, 43, 58
3, 352788, Note_on_c, 2, 38, 58
3, 353145, Note_on_c, 2, 38, 0
3, 353253, Note_on_c, 2, 31, 74
3, 353796, Note_on_c, 2, 31, 0
3, 354005, Note_on_c, 2, 31, 73
3, 354441, Note_on_c, 2, 31, 0
3, 354726, Note_on_c, 2, 31, 75
3, 354848, Note_on_c, 2, 43, 0
3, 356015, Note_on_c, 2, 31, 0
3, 356166, Note_on_c, 2, 38, 66
3, 356260, Note_on_c, 2, 38, 0
3, 356463, Note_on_c, 2, 38, 66
3, 356615, Note_on_c, 2, 38, 0
3, 356635, Note_on_c, 2, 37, 39
3, 357024, Note_on_c, 2, 37, 0
3, 357109, Note_on_c, 2, 36, 63
3, 357841, Note_on_c, 2, 50, 53
3, 358425, Note_on_c, 2, 50, 0
3, 358531, Note_on_c, 2, 51, 61
3, 358902, Note_on_c, 2, 51, 0
3, 359039, Note_on_c, 2, 52, 74
3, 359482, Note_on_c, 2, 36, 0
3, 359755, Note_on_c, 2, 48, 70
3, 359786, Note_on_c, 2, 52, 0
3, 359829, Note_on_c, 2, 48, 0
3, 359958, Note_on_c, 2, 43, 60
3, 360315, Note_on_c, 2, 43, 0
3, 360466, Note_on_c, 2, 41, 76
3, 361843, Note_on_c, 2, 41, 0
3, 361909, Note_on_c, 2, 36, 60
3, 362060, Note_on_c, 2, 36, 0
3, 362201, Note_on_c, 2, 36, 59
3, 362633, Note_on_c, 2, 36, 0
3, 362725, Note_on_c, 2, 29, 65
3, 363876, Note_on_c, 2, 35, 55
3, 363954, Note_on_c, 2, 35, 0
3, 363985, Note_on_c, 2, 29, 0
3, 364154, Note_on_c, 2, 35, 66
3, 364318, Note_on_c, 2, 35, 0
3, 364338, Note_on_c, 2, 36, 50
3, 364738, Note_on_c, 2, 36, 0
3, 364829, Note_on_c, 2, 41, 68
3, 365435, Note_on_c, 2, 41, 0
3, 365578, Note_on_c, 2, 41, 65
3, 366122, Note_on_c, 2, 41, 0
3, 366289, Note_on_c, 2, 41, 73
3, 367513, Note_on_c, 2, 36, 67
3, 367551, Note_on_c, 2, 41, 0
3, 367649, Note_on_c, 2, 36, 0
3, 367734, Note_on_c, 2, 36, 63
3, 368161, Note_on_c, 2, 36, 0
3, 368193, Note_on_c, 2, 30, 61
3, 368572, Note_on_c, 2, 30, 0
3, 368695, Note_on_c, 2, 29, 60
3, 369426, Note_on_c, 2, 36, 73
3, 369534, Note_on_c, 2, 36, 0
3, 369662, Note_on_c, 2, 36, 58
3, 369773, Note_on_c, 2, 36, 0
3, 370048, Note_on_c, 2, 29, 0
3, 370133, Note_on_c, 2, 36, 76
3, 370575, Note_on_c, 2, 36, 0
3, 370599, Note_on_c, 2, 39, 75
3, 371358, Note_on_c, 2, 39, 0
3, 371563, Note_on_c, 2, 36, 40
3, 371938, Note_on_c, 2, 36, 0
3, 372020, Note_on_c, 2, 39, 77
3, 372441, Note_on_c, 2, 39, 0
3, 372504, Note_on_c, 2, 38, 67
3, 374211, Note_on_c, 2, 32, 65
3, 374216, Note_on_c, 2, 38, 0
3, 374352, Note_on_c, 2, 32, 0
3, 374432, Note_on_c, 2, 31, 65
3, 375040, Note_on_c, 2, 31, 0
3, 375164, Note_on_c, 2, 31, 54
3, 375672, Note_on_c, 2, 31, 0
3, 375854, Note_on_c, 2, 31, 71
3, 376333, Note_on_c, 2, 31, 0
3, 376365, Note_on_c, 2, 36, 74
3, 378305, Note_on_c, 2, 45, 64
3, 378306, Note_on_c, 2, 36, 0
3, 378886, Note_on_c, 2, 45, 0
3, 379012, Note_on_c, 2, 45, 64
3, 379625, Note_on_c, 2, 45, 0
3, 379733, Note_on_c, 2, 38, 78
3, 380950, Note_on_c, 2, 38, 0
3, 381149, Note_on_c, 2, 38, 68
3, 381738, Note_on_c, 2, 38, 0
3, 381919, Note_on_c, 2, 38, 66
3, 382121, Note_on_c, 2, 38, 0
3, 382617, Note_on_c, 2, 38, 78
3, 383322, Note_on_c, 2, 38, 0
3, 383375, Note_on_c, 2, 37, 60
3, 383971, Note_on_c, 2, 37, 0
3, 384017, Note_on_c, 2, 38, 73
3, 384574, Note_on_c, 2, 38, 0
3, 384790, Note_on_c, 2, 38, 73
3, 385330, Note_on_c, 2, 38, 0
3, 385454, Note_on_c, 2, 54, 62
3, 385456, Note_on_c, 2, 38, 57
3, 386039, Note_on_c, 2, 38, 0
3, 386240, Note_on_c, 2, 38, 65
3, 386788, Note_on_c, 2, 38, 0
3, 386922, Note_on_c, 2, 38, 55
3, 386988, Note_on_c, 2, 54, 0
3, 387394, Note_on_c, 2, 32, 58
3, 387568, Note_on_c, 2, 38, 0
3, 387801, Note_on_c, 2, 32, 0
3, 387917, Note_on_c, 2, 31, 64
3, 389067, Note_on_c, 2, 38, 51
3, 389128, Note_on_c, 2, 38, 0
3, 389260, Note_on_c, 2, 47, 62
3, 389635, Note_on_c, 2, 47, 0
3, 389766, Note_on_c, 2, 47, 70
3, 390434, Note_on_c, 2, 47, 0
3, 390457, Note_on_c, 2, 43, 57
3, 390569, Note_on_c, 2, 43, 0
3, 390693, Note_on_c, 2, 38, 57
3, 390772, Note_on_c, 2, 31, 0
3, 391017, Note_on_c, 2, 38, 0
3, 391141, Note_on_c, 2, 35, 58
3, 391566, Note_on_c, 2, 35, 0
3, 391646, Note_on_c, 2, 36, 58
3, 392214, Note_on_c, 2, 36, 0
3, 392394, Note_on_c, 2, 36, 76
3, 392885, Note_on_c, 2, 36, 0
3, 393135, Note_on_c, 2, 36, 74
3, 394957, Note_on_c, 2, 36, 0
3, 395036, Note_on_c, 2, 38, 61
3, 395177, Note_on_c, 2, 38, 0
3, 395328, Note_on_c, 2, 39, 70
3, 395441, Note_on_c, 2, 39, 0
3, 395551, Note_on_c, 2, 40, 71
3, 396727, Note_on_c, 2, 35, 42
3, 396786, Note_on_c, 2, 40, 0
3, 396796, Note_on_c, 2, 35, 0
3, 396921, Note_on_c, 2, 28, 64
3, 398187, Note_on_c, 2, 35, 53
3, 398224, Note_on_c, 2, 28, 0
3, 398276, Note_on_c, 2, 35, 0
3, 398387, Note_on_c, 2, 32, 69
3, 398719, Note_on_c, 2, 32, 0
3, 398853, Note_on_c, 2, 32, 67
3, 399225, Note_on_c, 2, 32, 0
3, 399347, Note_on_c, 2, 33, 72
3, 399926, Note_on_c, 2, 33, 0
3, 400100, Note_on_c, 2, 33, 73
3, 400603, Note_on_c, 2, 33, 0
3, 400813, Note_on_c, 2, 33, 72
3, 402276, Note_on_c, 2, 40, 71
3, 402389, Note_on_c, 2, 33, 0
3, 403006, Note_on_c, 2, 39, 60
3, 403018, Note_on_c, 2, 40, 0
3, 403146, Note_on_c, 2, 39, 0
3, 403221, Note_on_c, 2, 38, 65
3, 403744, Note_on_c, 2, 38, 0
3, 403975, Note_on_c, 2, 38, 64
3, 404668, Note_on_c, 2, 38, 0
3, 404693, Note_on_c, 2, 45, 76
3, 405845, Note_on_c, 2, 38, 41
3, 406052, Note_on_c, 2, 54, 79
3, 406055, Note_on_c, 2, 38, 0
3, 406092, Note_on_c, 2, 45, 0
3, 406328, Note_on_c, 2, 54, 0
3, 406374, Note_on_c, 2, 45, 37
3, 406376, Note_on_c, 2, 38, 28
3, 406488, Note_on_c, 2, 38, 0
3, 406552, Note_on_c, 2, 45, 0
3, 406593, Note_on_c, 2, 54, 67
3, 406965, Note_on_c, 2, 54, 0
3, 407056, Note_on_c, 2, 43, 51
3, 407685, Note_on_c, 2, 43, 0
3, 407796, Note_on_c, 2, 38, 64
3, 408438, Note_on_c, 2, 38, 0
3, 408473, Note_on_c, 2, 31, 64
3, 410574, Note_on_c, 2, 31, 0
3, 410694, Note_on_c, 2, 38, 53
3, 410859, Note_on_c, 2, 38, 0
3, 410928, Note_on_c, 2, 43, 80
3, 411548, Note_on_c, 2, 43, 0
3, 411625, Note_on_c, 2, 38, 74
3, 412286, Note_on_c, 2, 38, 0
3, 412349, Note_on_c, 2, 31, 65
3, 414045, Note_on_c, 2, 38, 74
3, 414247, Note_on_c, 2, 38, 0
3, 414574, Note_on_c, 2, 38, 65
3, 414643, Note_on_c, 2, 31, 0
3, 414709, Note_on_c, 2, 38, 0
3, 414771, Note_on_c, 2, 43, 76
3, 415390, Note_on_c, 2, 43, 0
3, 415413, Note_on_c, 2, 38, 66
3, 415520, Note_on_c, 2, 38, 0
3, 415629, Note_on_c, 2, 34, 70
3, 415948, Note_on_c, 2, 34, 0
3, 416099, Note_on_c, 2, 31, 80
3, 417870, Note_on_c, 2, 38, 80
3, 418134, Note_on_c, 2, 38, 0
3, 418342, Note_on_c, 2, 31, 0
3, 418347, Note_on_c, 2, 38, 67
3, 418468, Note_on_c, 2, 38, 0
3, 418542, Note_on_c, 2, 36, 74
3, 419144, Note_on_c, 2, 36, 0
3, 419275, Note_on_c, 2, 36, 62
3, 419658, Note_on_c, 2, 36, 0
3, 419978, Note_on_c, 2, 36, 73
3, 420713, Note_on_c, 2, 50, 63
3, 420818, Note_on_c, 2, 50, 0
3, 420967, Note_on_c, 2, 51, 55
3, 420989, Note_on_c, 2, 50, 22
3, 421052, Note_on_c, 2, 50, 0
3, 421339, Note_on_c, 2, 51, 0
3, 421453, Note_on_c, 2, 52, 65
3, 421512, Note_on_c, 2, 36, 0
3, 421690, Note_on_c, 2, 52, 0
3, 421699, Note_on_c, 2, 40, 60
3, 422376, Note_on_c, 2, 40, 0
3, 422402, Note_on_c, 2, 41, 66
3, 422995, Note_on_c, 2, 41, 0
3, 423143, Note_on_c, 2, 41, 65
3, 423692, Note_on_c, 2, 41, 0
3, 423881, Note_on_c, 2, 41, 68
3, 424994, Note_on_c, 2, 41, 0
3, 425113, Note_on_c, 2, 36, 38
3, 425177, Note_on_c, 2, 36, 0
3, 425266, Note_on_c, 2, 36, 64
3, 425698, Note_on_c, 2, 36, 0
3, 425771, Note_on_c, 2, 29, 63
3, 427949, Note_on_c, 2, 36, 60
3, 428013, Note_on_c, 2, 29, 0
3, 428051, Note_on_c, 2, 36, 0
3, 428156, Note_on_c, 2, 41, 65
3, 428732, Note_on_c, 2, 41, 0
3, 428913, Note_on_c, 2, 41, 74
3, 429298, Note_on_c, 2, 41, 0
3, 429397, Note_on_c, 2, 36, 64
3, 429485, Note_on_c, 2, 36, 0
3, 429602, Note_on_c, 2, 36, 66
3, 429980, Note_on_c, 2, 36, 0
3, 430060, Note_on_c, 2, 29, 70
3, 430577, Note_on_c, 2, 29, 0
3, 430795, Note_on_c, 2, 29, 63
3, 431216, Note_on_c, 2, 29, 0
3, 431559, Note_on_c, 2, 29, 66
3, 432778, Note_on_c, 2, 36, 65
3, 433176, Note_on_c, 2, 29, 0
3, 433464, Note_on_c, 2, 36, 0
3, 433468, Note_on_c, 2, 34, 77
3, 434200, Note_on_c, 2, 34, 0
3, 434282, Note_on_c, 2, 34, 71
3, 434712, Note_on_c, 2, 34, 0
3, 434914, Note_on_c, 2, 34, 67
3, 435786, Note_on_c, 2, 34, 0
3, 435838, Note_on_c, 2, 46, 79
3, 436439, Note_on_c, 2, 46, 0
3, 436571, Note_on_c, 2, 46, 72
3, 436885, Note_on_c, 2, 46, 0
3, 437038, Note_on_c, 2, 46, 50
3, 437231, Note_on_c, 2, 34, 70
3, 437297, Note_on_c, 2, 46, 0
3, 438658, Note_on_c, 2, 34, 0
3, 438740, Note_on_c, 2, 39, 80
3, 439303, Note_on_c, 2, 39, 0
3, 439486, Note_on_c, 2, 39, 79
3, 439793, Note_on_c, 2, 39, 0
3, 440178, Note_on_c, 2, 39, 80
3, 441493, Note_on_c, 2, 39, 0
3, 441567, Note_on_c, 2, 36, 64
3, 442053, Note_on_c, 2, 36, 0
3, 442305, Note_on_c, 2, 36, 65
3, 442601, Note_on_c, 2, 36, 0
3, 443011, Note_on_c, 2, 36, 71
3, 444281, Note_on_c, 2, 43, 35
3, 444352, Note_on_c, 2, 43, 0
3, 444418, Note_on_c, 2, 36, 0
3, 444464, Note_on_c, 2, 46, 80
3, 444890, Note_on_c, 2, 46, 0
3, 444938, Note_on_c, 2, 44, 62
3, 445329, Note_on_c, 2, 44, 0
3, 445460, Note_on_c, 2, 45, 75
3, 446229, Note_on_c, 2, 39, 74
3, 446273, Note_on_c, 2, 45, 0
3, 446882, Note_on_c, 2, 39, 0
3, 446900, Note_on_c, 2, 33, 70
3, 448051, Note_on_c, 2, 33, 0
3, 448109, Note_on_c, 2, 39, 68
3, 448208, Note_on_c, 2, 39, 0
3, 448287, Note_on_c, 2, 39, 63
3, 448640, Note_on_c, 2, 39, 0
3, 448794, Note_on_c, 2, 38, 70
3, 450253, Note_on_c, 2, 50, 82
3, 450791, Note_on_c, 2, 50, 0
3, 450997, Note_on_c, 2, 50, 78
3, 451497, Note_on_c, 2, 50, 0
3, 451565, Note_on_c, 2, 34, 29
3, 451688, Note_on_c, 2, 50, 89
3, 451812, Note_on_c, 2, 34, 0
3, 452118, Note_on_c, 2, 38, 0
3, 452453, Note_on_c, 2, 38, 79
3, 452570, Note_on_c, 2, 38, 0
3, 452659, Note_on_c, 2, 38, 66
3, 453020, Note_on_c, 2, 38, 0
3, 453032, Note_on_c, 2, 50, 0
3, 453088, Note_on_c, 2, 31, 71
3, 453654, Note_on_c, 2, 31, 0
3, 453848, Note_on_c, 2, 31, 71
3, 454275, Note_on_c, 2, 31, 0
3, 454567, Note_on_c, 2, 31, 74
3, 455993, Note_on_c, 2, 31, 0
3, 456259, Note_on_c, 2, 30, 71
3, 456353, Note_on_c, 2, 29, 36
3, 456371, Note_on_c, 2, 30, 0
3, 456842, Note_on_c, 2, 29, 0
3, 456923, Note_on_c, 2, 28, 64
3, 457683, Note_on_c, 2, 44, 78
3, 459371, Note_on_c, 2, 28, 0
3, 459523, Note_on_c, 2, 44, 0
3, 459568, Note_on_c, 2, 28, 55
3, 459803, Note_on_c, 2, 44, 68
3, 459932, Note_on_c, 2, 44, 0
3, 460160, Note_on_c, 2, 28, 0
3, 460301, Note_on_c, 2, 32, 56
3, 460690, Note_on_c, 2, 32, 0
3, 460842, Note_on_c, 2, 33, 63
3, 461420, Note_on_c, 2, 33, 0
3, 461600, Note_on_c, 2, 33, 67
3, 461861, Note_on_c, 2, 33, 0
3, 462314, Note_on_c, 2, 33, 62
3, 463720, Note_on_c, 2, 40, 43
3, 463794, Note_on_c, 2, 40, 0
3, 464211, Note_on_c, 2, 40, 56
3, 464494, Note_on_c, 2, 33, 0
3, 464550, Note_on_c, 2, 40, 0
3, 464676, Note_on_c, 2, 38, 63
3, 465407, Note_on_c, 2, 44, 62
3, 465656, Note_on_c, 2, 44, 0
3, 465741, Note_on_c, 2, 38, 0
3, 465921, Note_on_c, 2, 38, 33
3, 466106, Note_on_c, 2, 38, 0
3, 466117, Note_on_c, 2, 50, 79
3, 467371, Note_on_c, 2, 38, 22
3, 467420, Note_on_c, 2, 38, 0
3, 467508, Note_on_c, 2, 45, 66
3, 467528, Note_on_c, 2, 50, 0
3, 467713, Note_on_c, 2, 45, 0
3, 467986, Note_on_c, 2, 38, 66
3, 468398, Note_on_c, 2, 38, 0
3, 468483, Note_on_c, 2, 31, 65
3, 469006, Note_on_c, 2, 31, 0
3, 469239, Note_on_c, 2, 31, 64
3, 469557, Note_on_c, 2, 31, 0
3, 469938, Note_on_c, 2, 31, 76
3, 471346, Note_on_c, 2, 31, 0
3, 471390, Note_on_c, 2, 38, 72
3, 471539, Note_on_c, 2, 38, 0
3, 471654, Note_on_c, 2, 38, 67
3, 472334, Note_on_c, 2, 43, 76
3, 472406, Note_on_c, 2, 38, 0
3, 472977, Note_on_c, 2, 43, 0
3, 473054, Note_on_c, 2, 43, 80
3, 473597, Note_on_c, 2, 43, 0
3, 473775, Note_on_c, 2, 38, 71
3, 474423, Note_on_c, 2, 38, 0
3, 474533, Note_on_c, 2, 38, 67
3, 474786, Note_on_c, 2, 38, 0
3, 475057, Note_on_c, 2, 38, 66
3, 475158, Note_on_c, 2, 38, 0
3, 475254, Note_on_c, 2, 38, 75
3, 475618, Note_on_c, 2, 38, 0
3, 475672, Note_on_c, 2, 31, 74
3, 475702, Note_on_c, 2, 33, 44
3, 475849, Note_on_c, 2, 33, 0
3, 477099, Note_on_c, 2, 38, 46
3, 477152, Note_on_c, 2, 38, 0
3, 477369, Note_on_c, 2, 38, 51
3, 477424, Note_on_c, 2, 38, 0
3, 477876, Note_on_c, 2, 38, 68
3, 478026, Note_on_c, 2, 38, 0
3, 478520, Note_on_c, 2, 38, 68
3, 478655, Note_on_c, 2, 38, 0
3, 478949, Note_on_c, 2, 31, 0
3, 478994, Note_on_c, 2, 43, 76
3, 479398, Note_on_c, 2, 43, 0
3, 479495, Note_on_c, 2, 38, 61
3, 479872, Note_on_c, 2, 38, 0
3, 479986, Note_on_c, 2, 36, 71
3, 481229, Note_on_c, 2, 43, 64
3, 481852, Note_on_c, 2, 43, 0
3, 481901, Note_on_c, 2, 48, 83
3, 482576, Note_on_c, 2, 48, 0
3, 482638, Note_on_c, 2, 36, 0
3, 482657, Note_on_c, 2, 43, 62
3, 482716, Note_on_c, 2, 43, 0
3, 482851, Note_on_c, 2, 43, 58
3, 483213, Note_on_c, 2, 43, 0
3, 483322, Note_on_c, 2, 42, 59
3, 483754, Note_on_c, 2, 42, 0
3, 483813, Note_on_c, 2, 41, 63
3, 484477, Note_on_c, 2, 41, 0
3, 484564, Note_on_c, 2, 36, 73
3, 485212, Note_on_c, 2, 36, 0
3, 485275, Note_on_c, 2, 29, 66
3, 486546, Note_on_c, 2, 36, 60
3, 486580, Note_on_c, 2, 29, 0
3, 486595, Note_on_c, 2, 36, 0
3, 486712, Note_on_c, 2, 36, 64
3, 487061, Note_on_c, 2, 36, 0
3, 487212, Note_on_c, 2, 36, 80
3, 487624, Note_on_c, 2, 36, 0
3, 487670, Note_on_c, 2, 41, 81
3, 488273, Note_on_c, 2, 41, 0
3, 488364, Note_on_c, 2, 41, 71
3, 488938, Note_on_c, 2, 41, 0
3, 489081, Note_on_c, 2, 41, 74
3, 490348, Note_on_c, 2, 36, 58
3, 490351, Note_on_c, 2, 41, 0
3, 490434, Note_on_c, 2, 36, 0
3, 490547, Note_on_c, 2, 36, 68
3, 490982, Note_on_c, 2, 36, 0
3, 491042, Note_on_c, 2, 29, 74
3, 491267, Note_on_c, 2, 29, 0
3, 491525, Note_on_c, 2, 29, 77
3, 492070, Note_on_c, 2, 29, 0
3, 492265, Note_on_c, 2, 29, 73
3, 492965, Note_on_c, 2, 29, 0
3, 493001, Note_on_c, 2, 41, 81
3, 494381, Note_on_c, 2, 41, 0
3, 494452, Note_on_c, 2, 39, 71
3, 495303, Note_on_c, 2, 39, 0
3, 495410, Note_on_c, 2, 38, 72
3, 495951, Note_on_c, 2, 38, 0
3, 496138, Note_on_c, 2, 38, 84
3, 496425, Note_on_c, 2, 38, 0
3, 496828, Note_on_c, 2, 38, 87
3, 498274, Note_on_c, 2, 31, 80
3, 498285, Note_on_c, 2, 38, 0
3, 499122, Note_on_c, 2, 31, 0
3, 499250, Note_on_c, 2, 36, 85
3, 499839, Note_on_c, 2, 36, 0
3, 500009, Note_on_c, 2, 36, 82
3, 500226, Note_on_c, 2, 36, 0
3, 500671, Note_on_c, 2, 36, 88
3, 502012, Note_on_c, 2, 36, 0
3, 502109, Note_on_c, 2, 33, 67
3, 503056, Note_on_c, 2, 33, 0
3, 503060, Note_on_c, 2, 38, 77
3, 503642, Note_on_c, 2, 38, 0
3, 503796, Note_on_c, 2, 38, 74
3, 504260, Note_on_c, 2, 38, 0
3, 504526, Note_on_c, 2, 38, 87
3, 506217, Note_on_c, 2, 33, 82
3, 506279, Note_on_c, 2, 38, 0
3, 506876, Note_on_c, 2, 33, 0
3, 506937, Note_on_c, 2, 38, 83
3, 507507, Note_on_c, 2, 38, 0
3, 507647, Note_on_c, 2, 38, 70
3, 508103, Note_on_c, 2, 38, 0
3, 508341, Note_on_c, 2, 38, 80
3, 509267, Note_on_c, 2, 38, 0
3, 509293, Note_on_c, 2, 32, 81
3, 510639, Note_on_c, 2, 32, 0
3, 510756, Note_on_c, 2, 31, 75
3, 511309, Note_on_c, 2, 31, 0
3, 511492, Note_on_c, 2, 31, 77
3, 511888, Note_on_c, 2, 31, 0
3, 512190, Note_on_c, 2, 31, 78
3, 513159, Note_on_c, 2, 38, 82
3, 513220, Note_on_c, 2, 31, 0
3, 514050, Note_on_c, 2, 38, 0
3, 514131, Note_on_c, 2, 35, 47
3, 514521, Note_on_c, 2, 35, 0
3, 514609, Note_on_c, 2, 45, 70
3, 515190, Note_on_c, 2, 45, 0
3, 515320, Note_on_c, 2, 45, 58
3, 516343, Note_on_c, 2, 45, 0
3, 516482, Note_on_c, 2, 45, 62
3, 517101, Note_on_c, 2, 45, 0
3, 517228, Note_on_c, 2, 45, 64
3, 517939, Note_on_c, 2, 39, 57
3, 517949, Note_on_c, 2, 45, 0
3, 518478, Note_on_c, 2, 38, 57
3, 518495, Note_on_c, 2, 39, 0
3, 520039, Note_on_c, 2, 38, 0
3, 520341, Note_on_c, 2, 38, 66
3, 520899, Note_on_c, 2, 38, 0
3, 521055, Note_on_c, 2, 38, 61
3, 521758, Note_on_c, 2, 34, 52
3, 521783, Note_on_c, 2, 38, 0
3, 522235, Note_on_c, 2, 34, 0
3, 522290, Note_on_c, 2, 33, 53
3, 524059, Note_on_c, 2, 33, 0
3, 524227, Note_on_c, 2, 33, 71
3, 524793, Note_on_c, 2, 33, 0
3, 524909, Note_on_c, 2, 33, 58
3, 526124, Note_on_c, 2, 38, 66
3, 526146, Note_on_c, 2, 33, 0
3, 526709, Note_on_c, 2, 38, 0
3, 526819, Note_on_c, 2, 38, 66
3, 527792, Note_on_c, 2, 38, 0
3, 528037, Note_on_c, 2, 38, 58
3, 528600, Note_on_c, 2, 38, 0
3, 528765, Note_on_c, 2, 38, 58
3, 529348, Note_on_c, 2, 38, 0
3, 529479, Note_on_c, 2, 38, 53
3, 529949, Note_on_c, 2, 38, 0
3, 530000, Note_on_c, 2, 33, 55
3, 533813, Note_on_c, 2, 38, 40
3, 533827, Note_on_c, 2, 33, 0
3, 535485, Note_on_c, 2, 38, 0
3, 535708, Note_on_c, 2, 38, 34
3, 536268, Note_on_c, 2, 38, 0
3, 536397, Note_on_c, 2, 38, 33
3, 537034, Note_on_c, 2, 38, 0
3, 537140, Note_on_c, 2, 38, 32
3, 537639, Note_on_c, 2, 38, 0
3, 537655, Note_on_c, 2, 45, 35
3, 541288, Note_on_c, 2, 45, 0
3, 541402, Note_on_c, 2, 38, 9
3, 545249, Note_on_c, 2, 38, 0
3, 545284, Note_on_c, 2, 33, 1
3, 546328, Note_on_c, 2, 33, 0
3, 546328, End_track
4, 0, Start_track
4, 0, Title_t, "Drums"
4, 0, Control_c, 9, 0, 0
4, 0, Control_c, 9, 7, 109
4, 0, Control_c, 9, 93, 23
4, 1, Control_c, 9, 32, 3
4, 2, Program_c, 9, 0
4, 25, Note_on_c, 9, 59, 26
4, 308, Note_on_c, 9, 59, 0
4, 492, Note_on_c, 9, 63, 30
4, 541, Note_on_c, 9, 59, 64
4, 616, Note_on_c, 9, 63, 0
4, 837, Note_on_c, 9, 59, 0
4, 983, Note_on_c, 9, 63, 28
4, 1013, Note_on_c, 9, 59, 29
4, 1221, Note_on_c, 9, 63, 0
4, 1296, Note_on_c, 9, 59, 0
4, 1496, Note_on_c, 9, 59, 74
4, 1757, Note_on_c, 9, 59, 0
4, 1965, Note_on_c, 9, 63, 27
4, 2062, Note_on_c, 9, 63, 0
4, 2460, Note_on_c, 9, 59, 78
4, 2697, Note_on_c, 9, 63, 27
4, 2710, Note_on_c, 9, 59, 0
4, 2914, Note_on_c, 9, 63, 0
4, 2964, Note_on_c, 9, 59, 24
4, 3139, Note_on_c, 9, 63, 25
4, 3143, Note_on_c, 9, 59, 0
4, 3267, Note_on_c, 9, 63, 0
4, 3372, Note_on_c, 9, 63, 20
4, 3410, Note_on_c, 9, 59, 78
4, 3594, Note_on_c, 9, 63, 0
4, 3673, Note_on_c, 9, 59, 0
4, 3904, Note_on_c, 9, 59, 34
4, 4001, Note_on_c, 9, 59, 0
4, 4373, Note_on_c, 9, 59, 89
4, 4384, Note_on_c, 9, 63, 30
4, 4498, Note_on_c, 9, 63, 0
4, 4604, Note_on_c, 9, 59, 0
4, 4882, Note_on_c, 9, 59, 33
4, 4911, Note_on_c, 9, 63, 31
4, 4982, Note_on_c, 9, 59, 0
4, 5038, Note_on_c, 9, 63, 0
4, 5347, Note_on_c, 9, 59, 78
4, 5599, Note_on_c, 9, 59, 0
4, 5819, Note_on_c, 9, 59, 31
4, 5857, Note_on_c, 9, 63, 32
4, 5971, Note_on_c, 9, 63, 0
4, 6018, Note_on_c, 9, 59, 0
4, 6259, Note_on_c, 9, 59, 73
4, 6436, Note_on_c, 9, 59, 0
4, 6562, Note_on_c, 9, 63, 32
4, 6601, Note_on_c, 9, 59, 43
4, 6619, Note_on_c, 9, 63, 0
4, 6669, Note_on_c, 9, 59, 0
4, 6771, Note_on_c, 9, 59, 60
4, 7037, Note_on_c, 9, 63, 21
4, 7042, Note_on_c, 9, 59, 0
4, 7119, Note_on_c, 9, 63, 0
4, 7215, Note_on_c, 9, 63, 16
4, 7259, Note_on_c, 9, 59, 35
4, 7332, Note_on_c, 9, 59, 0
4, 7420, Note_on_c, 9, 63, 0
4, 8119, Note_on_c, 9, 59, 80
4, 8189, Note_on_c, 9, 63, 31
4, 8295, Note_on_c, 9, 63, 0
4, 8379, Note_on_c, 9, 59, 0
4, 8665, Note_on_c, 9, 63, 27
4, 8673, Note_on_c, 9, 59, 38
4, 8792, Note_on_c, 9, 63, 0
4, 8888, Note_on_c, 9, 59, 0
4, 9142, Note_on_c, 9, 59, 81
4, 9391, Note_on_c, 9, 59, 0
4, 9615, Note_on_c, 9, 59, 40
4, 9639, Note_on_c, 9, 63, 35
4, 9709, Note_on_c, 9, 59, 0
4, 9761, Note_on_c, 9, 63, 0
4, 10108, Note_on_c, 9, 59, 85
4, 10349, Note_on_c, 9, 59, 0
4, 10368, Note_on_c, 9, 63, 28
4, 10442, Note_on_c, 9, 63, 0
4, 10604, Note_on_c, 9, 59, 42
4, 10685, Note_on_c, 9, 59, 0
4, 10869, Note_on_c, 9, 63, 24
4, 10932, Note_on_c, 9, 63, 0
4, 11037, Note_on_c, 9, 63, 24
4, 11053, Note_on_c, 9, 59, 87
4, 11217, Note_on_c, 9, 63, 0
4, 11244, Note_on_c, 9, 59, 0
4, 11396, Note_on_c, 9, 59, 49
4, 11475, Note_on_c, 9, 59, 0
4, 11609, Note_on_c, 9, 59, 61
4, 11692, Note_on_c, 9, 59, 0
4, 12017, Note_on_c, 9, 59, 74
4, 12045, Note_on_c, 9, 63, 31
4, 12100, Note_on_c, 9, 63, 0
4, 12159, Note_on_c, 9, 59, 0
4, 12533, Note_on_c, 9, 63, 38
4, 12556, Note_on_c, 9, 59, 25
4, 12665, Note_on_c, 9, 59, 0
4, 12673, Note_on_c, 9, 63, 0
4, 12816, Note_on_c, 9, 63, 17
4, 12954, Note_on_c, 9, 63, 0
4, 12976, Note_on_c, 9, 59, 79
4, 13208, Note_on_c, 9, 59, 0
4, 13292, Note_on_c, 9, 63, 39
4, 13343, Note_on_c, 9, 63, 0
4, 13458, Note_on_c, 9, 59, 27
4, 13561, Note_on_c, 9, 59, 0
4, 13739, Note_on_c, 9, 63, 34
4, 13835, Note_on_c, 9, 63, 0
4, 13935, Note_on_c, 9, 59, 77
4, 14116, Note_on_c, 9, 59, 0
4, 14232, Note_on_c, 9, 63, 24
4, 14263, Note_on_c, 9, 59, 46
4, 14296, Note_on_c, 9, 63, 0
4, 14347, Note_on_c, 9, 59, 0
4, 14408, Note_on_c, 9, 63, 35
4, 14478, Note_on_c, 9, 59, 15
4, 14544, Note_on_c, 9, 63, 0
4, 14570, Note_on_c, 9, 59, 0
4, 14862, Note_on_c, 9, 59, 70
4, 15051, Note_on_c, 9, 59, 0
4, 15179, Note_on_c, 9, 59, 47
4, 15249, Note_on_c, 9, 59, 0
4, 15771, Note_on_c, 9, 59, 75
4, 15796, Note_on_c, 9, 63, 30
4, 15919, Note_on_c, 9, 63, 0
4, 16011, Note_on_c, 9, 59, 0
4, 16304, Note_on_c, 9, 59, 41
4, 16309, Note_on_c, 9, 63, 37
4, 16381, Note_on_c, 9, 59, 0
4, 16426, Note_on_c, 9, 63, 0
4, 16790, Note_on_c, 9, 59, 84
4, 17015, Note_on_c, 9, 59, 0
4, 17222, Note_on_c, 9, 63, 30
4, 17383, Note_on_c, 9, 63, 0
4, 17757, Note_on_c, 9, 59, 81
4, 17952, Note_on_c, 9, 63, 21
4, 18017, Note_on_c, 9, 59, 0
4, 18194, Note_on_c, 9, 63, 0
4, 18262, Note_on_c, 9, 59, 33
4, 18348, Note_on_c, 9, 59, 0
4, 18403, Note_on_c, 9, 63, 17
4, 18466, Note_on_c, 9, 63, 0
4, 18596, Note_on_c, 9, 63, 23
4, 18726, Note_on_c, 9, 59, 80
4, 18858, Note_on_c, 9, 63, 0
4, 18998, Note_on_c, 9, 59, 0
4, 19255, Note_on_c, 9, 59, 28
4, 19389, Note_on_c, 9, 59, 0
4, 19635, Note_on_c, 9, 63, 24
4, 19672, Note_on_c, 9, 59, 77
4, 19774, Note_on_c, 9, 63, 0
4, 19796, Note_on_c, 9, 59, 0
4, 19958, Note_on_c, 9, 59, 69
4, 20095, Note_on_c, 9, 59, 0
4, 20157, Note_on_c, 9, 63, 35
4, 20161, Note_on_c, 9, 59, 45
4, 20321, Note_on_c, 9, 63, 0
4, 20323, Note_on_c, 9, 59, 0
4, 20585, Note_on_c, 9, 53, 53
4, 20625, Note_on_c, 9, 59, 87
4, 20700, Note_on_c, 9, 53, 0
4, 20930, Note_on_c, 9, 59, 0
4, 21108, Note_on_c, 9, 59, 36
4, 21142, Note_on_c, 9, 63, 35
4, 21226, Note_on_c, 9, 59, 0
4, 21258, Note_on_c, 9, 63, 0
4, 21443, Note_on_c, 9, 59, 75
4, 21850, Note_on_c, 9, 59, 0
4, 21883, Note_on_c, 9, 63, 34
4, 22050, Note_on_c, 9, 63, 0
4, 22073, Note_on_c, 9, 59, 67
4, 22178, Note_on_c, 9, 59, 0
4, 22357, Note_on_c, 9, 63, 23
4, 22413, Note_on_c, 9, 63, 0
4, 22524, Note_on_c, 9, 59, 81
4, 22528, Note_on_c, 9, 63, 31
4, 22682, Note_on_c, 9, 63, 0
4, 22795, Note_on_c, 9, 59, 0
4, 23020, Note_on_c, 9, 59, 39
4, 23101, Note_on_c, 9, 59, 0
4, 23506, Note_on_c, 9, 59, 85
4, 23549, Note_on_c, 9, 63, 31
4, 23699, Note_on_c, 9, 63, 0
4, 23766, Note_on_c, 9, 59, 0
4, 23977, Note_on_c, 9, 59, 45
4, 24046, Note_on_c, 9, 59, 0
4, 24284, Note_on_c, 9, 63, 30
4, 24386, Note_on_c, 9, 63, 0
4, 24489, Note_on_c, 9, 59, 94
4, 24762, Note_on_c, 9, 59, 0
4, 24970, Note_on_c, 9, 59, 31
4, 24985, Note_on_c, 9, 63, 32
4, 25066, Note_on_c, 9, 59, 0
4, 25151, Note_on_c, 9, 63, 0
4, 25463, Note_on_c, 9, 59, 75
4, 25591, Note_on_c, 9, 59, 0
4, 25761, Note_on_c, 9, 59, 71
4, 25763, Note_on_c, 9, 63, 23
4, 25829, Note_on_c, 9, 63, 0
4, 25921, Note_on_c, 9, 59, 0
4, 25922, Note_on_c, 9, 63, 20
4, 26011, Note_on_c, 9, 59, 47
4, 26117, Note_on_c, 9, 63, 0
4, 26137, Note_on_c, 9, 59, 0
4, 26232, Note_on_c, 9, 63, 23
4, 26326, Note_on_c, 9, 63, 0
4, 26399, Note_on_c, 9, 63, 17
4, 26413, Note_on_c, 9, 59, 85
4, 26522, Note_on_c, 9, 63, 0
4, 26687, Note_on_c, 9, 59, 0
4, 26871, Note_on_c, 9, 59, 36
4, 26948, Note_on_c, 9, 59, 0
4, 27323, Note_on_c, 9, 59, 80
4, 27371, Note_on_c, 9, 63, 34
4, 27437, Note_on_c, 9, 63, 0
4, 27556, Note_on_c, 9, 59, 0
4, 27658, Note_on_c, 9, 59, 64
4, 27853, Note_on_c, 9, 63, 33
4, 27964, Note_on_c, 9, 63, 0
4, 27991, Note_on_c, 9, 59, 0
4, 28278, Note_on_c, 9, 59, 79
4, 28527, Note_on_c, 9, 59, 0
4, 28559, Note_on_c, 9, 63, 31
4, 28718, Note_on_c, 9, 63, 0
4, 28778, Note_on_c, 9, 59, 36
4, 28867, Note_on_c, 9, 59, 0
4, 29021, Note_on_c, 9, 63, 24
4, 29194, Note_on_c, 9, 63, 0
4, 29235, Note_on_c, 9, 59, 81
4, 29461, Note_on_c, 9, 59, 0
4, 29713, Note_on_c, 9, 59, 36
4, 29714, Note_on_c, 9, 63, 31
4, 29791, Note_on_c, 9, 59, 0
4, 29927, Note_on_c, 9, 63, 0
4, 30173, Note_on_c, 9, 63, 33
4, 30185, Note_on_c, 9, 59, 89
4, 30255, Note_on_c, 9, 63, 0
4, 30437, Note_on_c, 9, 59, 0
4, 30466, Note_on_c, 9, 63, 36
4, 30622, Note_on_c, 9, 63, 0
4, 30694, Note_on_c, 9, 59, 34
4, 30745, Note_on_c, 9, 59, 26
4, 30769, Note_on_c, 9, 59, 0
4, 31028, Note_on_c, 9, 59, 0
4, 31212, Note_on_c, 9, 63, 30
4, 31261, Note_on_c, 9, 59, 64
4, 31336, Note_on_c, 9, 63, 0
4, 31557, Note_on_c, 9, 59, 0
4, 31703, Note_on_c, 9, 63, 28
4, 31733, Note_on_c, 9, 59, 29
4, 31941, Note_on_c, 9, 63, 0
4, 32016, Note_on_c, 9, 59, 0
4, 32216, Note_on_c, 9, 59, 74
4, 32477, Note_on_c, 9, 59, 0
4, 32685, Note_on_c, 9, 63, 27
4, 32782, Note_on_c, 9, 63, 0
4, 33180, Note_on_c, 9, 59, 78
4, 33417, Note_on_c, 9, 63, 27
4, 33430, Note_on_c, 9, 59, 0
4, 33634, Note_on_c, 9, 63, 0
4, 33684, Note_on_c, 9, 59, 24
4, 33859, Note_on_c, 9, 63, 25
4, 33863, Note_on_c, 9, 59, 0
4, 33987, Note_on_c, 9, 63, 0
4, 34092, Note_on_c, 9, 63, 20
4, 34130, Note_on_c, 9, 59, 78
4, 34314, Note_on_c, 9, 63, 0
4, 34393, Note_on_c, 9, 59, 0
4, 34624, Note_on_c, 9, 59, 34
4, 34721, Note_on_c, 9, 59, 0
4, 35093, Note_on_c, 9, 59, 89
4, 35104, Note_on_c, 9, 63, 30
4, 35218, Note_on_c, 9, 63, 0
4, 35324, Note_on_c, 9, 59, 0
4, 35602, Note_on_c, 9, 59, 33
4, 35631, Note_on_c, 9, 63, 31
4, 35702, Note_on_c, 9, 59, 0
4, 35758, Note_on_c, 9, 63, 0
4, 36067, Note_on_c, 9, 59, 78
4, 36319, Note_on_c, 9, 59, 0
4, 36539, Note_on_c, 9, 59, 31
4, 36577, Note_on_c, 9, 63, 32
4, 36691, Note_on_c, 9, 63, 0
4, 36738, Note_on_c, 9, 59, 0
4, 36979, Note_on_c, 9, 59, 73
4, 37156, Note_on_c, 9, 59, 0
4, 37282, Note_on_c, 9, 63, 32
4, 37321, Note_on_c, 9, 59, 43
4, 37339, Note_on_c, 9, 63, 0
4, 37389, Note_on_c, 9, 59, 0
4, 37491, Note_on_c, 9, 59, 60
4, 37757, Note_on_c, 9, 63, 21
4, 37762, Note_on_c, 9, 59, 0
4, 37839, Note_on_c, 9, 63, 0
4, 37935, Note_on_c, 9, 63, 16
4, 37979, Note_on_c, 9, 59, 35
4, 38052, Note_on_c, 9, 59, 0
4, 38140, Note_on_c, 9, 63, 0
4, 38839, Note_on_c, 9, 59, 80
4, 38909, Note_on_c, 9, 63, 31
4, 39015, Note_on_c, 9, 63, 0
4, 39099, Note_on_c, 9, 59, 0
4, 39385, Note_on_c, 9, 63, 27
4, 39393, Note_on_c, 9, 59, 38
4, 39512, Note_on_c, 9, 63, 0
4, 39608, Note_on_c, 9, 59, 0
4, 39862, Note_on_c, 9, 59, 81
4, 40111, Note_on_c, 9, 59, 0
4, 40335, Note_on_c, 9, 59, 40
4, 40359, Note_on_c, 9, 63, 35
4, 40429, Note_on_c, 9, 59, 0
4, 40481, Note_on_c, 9, 63, 0
4, 40828, Note_on_c, 9, 59, 85
4, 41069, Note_on_c, 9, 59, 0
4, 41088, Note_on_c, 9, 63, 28
4, 41162, Note_on_c, 9, 63, 0
4, 41324, Note_on_c, 9, 59, 42
4, 41405, Note_on_c, 9, 59, 0
4, 41589, Note_on_c, 9, 63, 24
4, 41652, Note_on_c, 9, 63, 0
4, 41757, Note_on_c, 9, 63, 24
4, 41773, Note_on_c, 9, 59, 87
4, 41937, Note_on_c, 9, 63, 0
4, 41964, Note_on_c, 9, 59, 0
4, 42116, Note_on_c, 9, 59, 49
4, 42195, Note_on_c, 9, 59, 0
4, 42329, Note_on_c, 9, 59, 61
4, 42412, Note_on_c, 9, 59, 0
4, 42737, Note_on_c, 9, 59, 74
4, 42765, Note_on_c, 9, 63, 31
4, 42820, Note_on_c, 9, 63, 0
4, 42879, Note_on_c, 9, 59, 0
4, 43253, Note_on_c, 9, 63, 38
4, 43276, Note_on_c, 9, 59, 25
4, 43385, Note_on_c, 9, 59, 0
4, 43393, Note_on_c, 9, 63, 0
4, 43536, Note_on_c, 9, 63, 17
4, 43674, Note_on_c, 9, 63, 0
4, 43696, Note_on_c, 9, 59, 79
4, 43928, Note_on_c, 9, 59, 0
4, 44012, Note_on_c, 9, 63, 39
4, 44063, Note_on_c, 9, 63, 0
4, 44178, Note_on_c, 9, 59, 27
4, 44281, Note_on_c, 9, 59, 0
4, 44459, Note_on_c, 9, 63, 34
4, 44555, Note_on_c, 9, 63, 0
4, 44655, Note_on_c, 9, 59, 77
4, 44836, Note_on_c, 9, 59, 0
4, 44952, Note_on_c, 9, 63, 24
4, 44983, Note_on_c, 9, 59, 46
4, 45016, Note_on_c, 9, 63, 0
4, 45067, Note_on_c, 9, 59, 0
4, 45128, Note_on_c, 9, 63, 35
4, 45198, Note_on_c, 9, 59, 15
4, 45264, Note_on_c, 9, 63, 0
4, 45290, Note_on_c, 9, 59, 0
4, 45582, Note_on_c, 9, 59, 70
4, 45771, Note_on_c, 9, 59, 0
4, 45899, Note_on_c, 9, 59, 47
4, 45969, Note_on_c, 9, 59, 0
4, 46491, Note_on_c, 9, 59, 75
4, 46516, Note_on_c, 9, 63, 30
4, 46639, Note_on_c, 9, 63, 0
4, 46731, Note_on_c, 9, 59, 0
4, 47024, Note_on_c, 9, 59, 41
4, 47029, Note_on_c, 9, 63, 37
4, 47101, Note_on_c, 9, 59, 0
4, 47146, Note_on_c, 9, 63, 0
4, 47510, Note_on_c, 9, 59, 84
4, 47735, Note_on_c, 9, 59, 0
4, 47942, Note_on_c, 9, 63, 30
4, 48103, Note_on_c, 9, 63, 0
4, 48477, Note_on_c, 9, 59, 81
4, 48672, Note_on_c, 9, 63, 21
4, 48737, Note_on_c, 9, 59, 0
4, 48914, Note_on_c, 9, 63, 0
4, 48982, Note_on_c, 9, 59, 33
4, 49068, Note_on_c, 9, 59, 0
4, 49123, Note_on_c, 9, 63, 17
4, 49186, Note_on_c, 9, 63, 0
4, 49316, Note_on_c, 9, 63, 23
4, 49446, Note_on_c, 9, 59, 80
4, 49578, Note_on_c, 9, 63, 0
4, 49718, Note_on_c, 9, 59, 0
4, 49975, Note_on_c, 9, 59, 28
4, 50109, Note_on_c, 9, 59, 0
4, 50355, Note_on_c, 9, 63, 24
4, 50392, Note_on_c, 9, 59, 77
4, 50494, Note_on_c, 9, 63, 0
4, 50516, Note_on_c, 9, 59, 0
4, 50678, Note_on_c, 9, 59, 69
4, 50815, Note_on_c, 9, 59, 0
4, 50877, Note_on_c, 9, 63, 35
4, 50881, Note_on_c, 9, 59, 45
4, 51041, Note_on_c, 9, 63, 0
4, 51043, Note_on_c, 9, 59, 0
4, 51305, Note_on_c, 9, 53, 53
4, 51345, Note_on_c, 9, 59, 87
4, 51420, Note_on_c, 9, 53, 0
4, 51650, Note_on_c, 9, 59, 0
4, 51828, Note_on_c, 9, 59, 36
4, 51862, Note_on_c, 9, 63, 35
4, 51946, Note_on_c, 9, 59, 0
4, 51978, Note_on_c, 9, 63, 0
4, 52163, Note_on_c, 9, 59, 75
4, 52570, Note_on_c, 9, 59, 0
4, 52603, Note_on_c, 9, 63, 34
4, 52770, Note_on_c, 9, 63, 0
4, 52793, Note_on_c, 9, 59, 67
4, 52898, Note_on_c, 9, 59, 0
4, 53077, Note_on_c, 9, 63, 23
4, 53133, Note_on_c, 9, 63, 0
4, 53244, Note_on_c, 9, 59, 81
4, 53248, Note_on_c, 9, 63, 31
4, 53402, Note_on_c, 9, 63, 0
4, 53515, Note_on_c, 9, 59, 0
4, 53740, Note_on_c, 9, 59, 39
4, 53821, Note_on_c, 9, 59, 0
4, 54226, Note_on_c, 9, 59, 85
4, 54269, Note_on_c, 9, 63, 31
4, 54419, Note_on_c, 9, 63, 0
4, 54486, Note_on_c, 9, 59, 0
4, 54697, Note_on_c, 9, 59, 45
4, 54766, Note_on_c, 9, 59, 0
4, 55004, Note_on_c, 9, 63, 30
4, 55106, Note_on_c, 9, 63, 0
4, 55209, Note_on_c, 9, 59, 94
4, 55482, Note_on_c, 9, 59, 0
4, 55690, Note_on_c, 9, 59, 31
4, 55705, Note_on_c, 9, 63, 32
4, 55786, Note_on_c, 9, 59, 0
4, 55871, Note_on_c, 9, 63, 0
4, 56183, Note_on_c, 9, 59, 75
4, 56311, Note_on_c, 9, 59, 0
4, 56481, Note_on_c, 9, 59, 71
4, 56483, Note_on_c, 9, 63, 23
4, 56549, Note_on_c, 9, 63, 0
4, 56641, Note_on_c, 9, 59, 0
4, 56642, Note_on_c, 9, 63, 20
4, 56731, Note_on_c, 9, 59, 47
4, 56837, Note_on_c, 9, 63, 0
4, 56857, Note_on_c, 9, 59, 0
4, 56952, Note_on_c, 9, 63, 23
4, 57046, Note_on_c, 9, 63, 0
4, 57119, Note_on_c, 9, 63, 17
4, 57133, Note_on_c, 9, 59, 85
4, 57242, Note_on_c, 9, 63, 0
4, 57407, Note_on_c, 9, 59, 0
4, 57591, Note_on_c, 9, 59, 36
4, 57668, Note_on_c, 9, 59, 0
4, 58043, Note_on_c, 9, 59, 80
4, 58091, Note_on_c, 9, 63, 34
4, 58157, Note_on_c, 9, 63, 0
4, 58276, Note_on_c, 9, 59, 0
4, 58378, Note_on_c, 9, 59, 64
4, 58573, Note_on_c, 9, 63, 33
4, 58684, Note_on_c, 9, 63, 0
4, 58711, Note_on_c, 9, 59, 0
4, 58998, Note_on_c, 9, 59, 79
4, 59247, Note_on_c, 9, 59, 0
4, 59279, Note_on_c, 9, 63, 31
4, 59438, Note_on_c, 9, 63, 0
4, 59498, Note_on_c, 9, 59, 36
4, 59587, Note_on_c, 9, 59, 0
4, 59741, Note_on_c, 9, 63, 24
4, 59914, Note_on_c, 9, 63, 0
4, 59955, Note_on_c, 9, 59, 81
4, 60181, Note_on_c, 9, 59, 0
4, 60433, Note_on_c, 9, 59, 36
4, 60434, Note_on_c, 9, 63, 31
4, 60511, Note_on_c, 9, 59, 0
4, 60647, Note_on_c, 9, 63, 0
4, 60893, Note_on_c, 9, 63, 33
4, 60905, Note_on_c, 9, 59, 89
4, 60975, Note_on_c, 9, 63, 0
4, 61157, Note_on_c, 9, 59, 0
4, 61186, Note_on_c, 9, 63, 36
4, 61342, Note_on_c, 9, 63, 0
4, 61414, Note_on_c, 9, 59, 34
4, 61489, Note_on_c, 9, 59, 0
4, 61842, Note_on_c, 9, 63, 42
4, 61885, Note_on_c, 9, 59, 80
4, 61976, Note_on_c, 9, 63, 0
4, 62035, Note_on_c, 9, 59, 0
4, 62213, Note_on_c, 9, 59, 62
4, 62336, Note_on_c, 9, 63, 33
4, 62397, Note_on_c, 9, 59, 0
4, 62535, Note_on_c, 9, 63, 0
4, 62802, Note_on_c, 9, 59, 70
4, 62922, Note_on_c, 9, 59, 0
4, 63248, Note_on_c, 9, 59, 44
4, 63265, Note_on_c, 9, 63, 34
4, 63318, Note_on_c, 9, 59, 0
4, 63446, Note_on_c, 9, 63, 0
4, 63715, Note_on_c, 9, 59, 79
4, 63716, Note_on_c, 9, 53, 53
4, 63872, Note_on_c, 9, 53, 0
4, 63924, Note_on_c, 9, 59, 0
4, 64066, Note_on_c, 9, 63, 33
4, 64249, Note_on_c, 9, 59, 33
4, 64253, Note_on_c, 9, 63, 0
4, 64342, Note_on_c, 9, 59, 0
4, 64403, Note_on_c, 9, 53, 49
4, 64555, Note_on_c, 9, 63, 25
4, 64617, Note_on_c, 9, 63, 0
4, 64708, Note_on_c, 9, 53, 0
4, 64719, Note_on_c, 9, 59, 68
4, 64740, Note_on_c, 9, 63, 25
4, 64868, Note_on_c, 9, 59, 0
4, 64935, Note_on_c, 9, 63, 0
4, 65055, Note_on_c, 9, 59, 42
4, 65123, Note_on_c, 9, 59, 0
4, 65278, Note_on_c, 9, 59, 49
4, 65351, Note_on_c, 9, 59, 0
4, 65755, Note_on_c, 9, 59, 71
4, 65775, Note_on_c, 9, 63, 30
4, 65887, Note_on_c, 9, 59, 0
4, 65904, Note_on_c, 9, 63, 0
4, 66287, Note_on_c, 9, 63, 35
4, 66436, Note_on_c, 9, 63, 0
4, 66724, Note_on_c, 9, 59, 79
4, 66943, Note_on_c, 9, 59, 0
4, 67128, Note_on_c, 9, 59, 31
4, 67203, Note_on_c, 9, 59, 0
4, 67255, Note_on_c, 9, 63, 34
4, 67383, Note_on_c, 9, 63, 0
4, 67689, Note_on_c, 9, 59, 73
4, 67828, Note_on_c, 9, 59, 0
4, 68004, Note_on_c, 9, 59, 44
4, 68006, Note_on_c, 9, 63, 32
4, 68071, Note_on_c, 9, 59, 0
4, 68195, Note_on_c, 9, 59, 49
4, 68196, Note_on_c, 9, 63, 0
4, 68326, Note_on_c, 9, 59, 0
4, 68458, Note_on_c, 9, 63, 17
4, 68505, Note_on_c, 9, 63, 0
4, 68617, Note_on_c, 9, 63, 31
4, 68673, Note_on_c, 9, 59, 69
4, 68797, Note_on_c, 9, 63, 0
4, 68806, Note_on_c, 9, 59, 0
4, 69153, Note_on_c, 9, 59, 34
4, 69245, Note_on_c, 9, 59, 0
4, 69619, Note_on_c, 9, 59, 74
4, 69644, Note_on_c, 9, 63, 33
4, 69788, Note_on_c, 9, 63, 0
4, 69800, Note_on_c, 9, 59, 0
4, 69945, Note_on_c, 9, 59, 40
4, 70013, Note_on_c, 9, 59, 0
4, 70126, Note_on_c, 9, 59, 54
4, 70148, Note_on_c, 9, 63, 35
4, 70268, Note_on_c, 9, 59, 0
4, 70315, Note_on_c, 9, 63, 0
4, 70592, Note_on_c, 9, 59, 79
4, 70764, Note_on_c, 9, 59, 0
4, 71119, Note_on_c, 9, 63, 38
4, 71251, Note_on_c, 9, 63, 0
4, 71547, Note_on_c, 9, 59, 70
4, 71715, Note_on_c, 9, 59, 0
4, 71881, Note_on_c, 9, 63, 38
4, 72010, Note_on_c, 9, 63, 0
4, 72028, Note_on_c, 9, 59, 50
4, 72099, Note_on_c, 9, 59, 0
4, 72346, Note_on_c, 9, 63, 30
4, 72485, Note_on_c, 9, 63, 0
4, 72495, Note_on_c, 9, 59, 82
4, 72654, Note_on_c, 9, 59, 0
4, 72737, Note_on_c, 9, 63, 34
4, 72785, Note_on_c, 9, 63, 0
4, 72995, Note_on_c, 9, 59, 33
4, 73024, Note_on_c, 9, 63, 38
4, 73075, Note_on_c, 9, 59, 0
4, 73261, Note_on_c, 9, 63, 0
4, 73306, Note_on_c, 9, 59, 55
4, 73386, Note_on_c, 9, 59, 0
4, 73494, Note_on_c, 9, 59, 67
4, 73646, Note_on_c, 9, 59, 0
4, 73826, Note_on_c, 9, 63, 38
4, 73976, Note_on_c, 9, 59, 68
4, 74006, Note_on_c, 9, 63, 0
4, 74142, Note_on_c, 9, 59, 0
4, 74438, Note_on_c, 9, 59, 45
4, 74500, Note_on_c, 9, 63, 41
4, 74509, Note_on_c, 9, 59, 0
4, 74730, Note_on_c, 9, 63, 0
4, 74771, Note_on_c, 9, 59, 62
4, 74832, Note_on_c, 9, 59, 0
4, 74948, Note_on_c, 9, 59, 62
4, 75102, Note_on_c, 9, 59, 0
4, 75423, Note_on_c, 9, 63, 38
4, 75435, Note_on_c, 9, 59, 47
4, 75504, Note_on_c, 9, 59, 0
4, 75537, Note_on_c, 9, 63, 0
4, 75869, Note_on_c, 9, 59, 41
4, 75920, Note_on_c, 9, 63, 40
4, 75942, Note_on_c, 9, 59, 0
4, 76081, Note_on_c, 9, 63, 0
4, 76349, Note_on_c, 9, 59, 87
4, 76559, Note_on_c, 9, 59, 0
4, 76816, Note_on_c, 9, 59, 47
4, 76870, Note_on_c, 9, 63, 37
4, 76889, Note_on_c, 9, 59, 0
4, 77010, Note_on_c, 9, 63, 0
4, 77309, Note_on_c, 9, 59, 88
4, 77497, Note_on_c, 9, 59, 0
4, 77573, Note_on_c, 9, 63, 36
4, 77707, Note_on_c, 9, 63, 0
4, 77783, Note_on_c, 9, 59, 42
4, 77849, Note_on_c, 9, 59, 0
4, 78232, Note_on_c, 9, 59, 80
4, 78251, Note_on_c, 9, 63, 44
4, 78461, Note_on_c, 9, 63, 0
4, 78479, Note_on_c, 9, 59, 0
4, 78702, Note_on_c, 9, 59, 30
4, 78774, Note_on_c, 9, 63, 38
4, 78777, Note_on_c, 9, 59, 0
4, 78965, Note_on_c, 9, 63, 0
4, 79177, Note_on_c, 9, 59, 80
4, 79376, Note_on_c, 9, 59, 0
4, 79649, Note_on_c, 9, 59, 36
4, 79679, Note_on_c, 9, 63, 36
4, 79725, Note_on_c, 9, 59, 0
4, 79851, Note_on_c, 9, 63, 0
4, 80152, Note_on_c, 9, 59, 74
4, 80376, Note_on_c, 9, 59, 0
4, 80386, Note_on_c, 9, 63, 38
4, 80533, Note_on_c, 9, 63, 0
4, 80603, Note_on_c, 9, 59, 29
4, 80677, Note_on_c, 9, 59, 0
4, 81063, Note_on_c, 9, 59, 71
4, 81076, Note_on_c, 9, 63, 37
4, 81193, Note_on_c, 9, 59, 0
4, 81301, Note_on_c, 9, 63, 0
4, 81304, Note_on_c, 9, 59, 65
4, 81456, Note_on_c, 9, 59, 0
4, 81572, Note_on_c, 9, 59, 50
4, 81663, Note_on_c, 9, 59, 0
4, 81809, Note_on_c, 9, 63, 23
4, 81910, Note_on_c, 9, 63, 0
4, 81995, Note_on_c, 9, 63, 23
4, 82017, Note_on_c, 9, 59, 84
4, 82112, Note_on_c, 9, 63, 0
4, 82254, Note_on_c, 9, 59, 0
4, 82474, Note_on_c, 9, 59, 31
4, 82480, Note_on_c, 9, 63, 40
4, 82569, Note_on_c, 9, 59, 0
4, 82597, Note_on_c, 9, 63, 0
4, 82959, Note_on_c, 9, 59, 77
4, 83182, Note_on_c, 9, 59, 0
4, 83235, Note_on_c, 9, 63, 28
4, 83315, Note_on_c, 9, 63, 0
4, 83427, Note_on_c, 9, 59, 38
4, 83505, Note_on_c, 9, 59, 0
4, 83899, Note_on_c, 9, 63, 31
4, 83922, Note_on_c, 9, 59, 82
4, 83985, Note_on_c, 9, 63, 0
4, 84100, Note_on_c, 9, 59, 0
4, 84408, Note_on_c, 9, 59, 53
4, 84478, Note_on_c, 9, 59, 0
4, 84879, Note_on_c, 9, 63, 37
4, 84922, Note_on_c, 9, 59, 74
4, 84947, Note_on_c, 9, 63, 0
4, 84982, Note_on_c, 9, 53, 29
4, 85115, Note_on_c, 9, 59, 0
4, 85199, Note_on_c, 9, 53, 0
4, 85380, Note_on_c, 9, 63, 32
4, 85389, Note_on_c, 9, 59, 36
4, 85467, Note_on_c, 9, 59, 0
4, 85509, Note_on_c, 9, 63, 0
4, 85874, Note_on_c, 9, 59, 68
4, 85905, Note_on_c, 9, 53, 33
4, 86102, Note_on_c, 9, 59, 0
4, 86118, Note_on_c, 9, 53, 0
4, 86348, Note_on_c, 9, 59, 41
4, 86348, Note_on_c, 9, 63, 38
4, 86427, Note_on_c, 9, 59, 0
4, 86453, Note_on_c, 9, 63, 0
4, 86857, Note_on_c, 9, 59, 75
4, 86884, Note_on_c, 9, 53, 41
4, 87054, Note_on_c, 9, 59, 0
4, 87055, Note_on_c, 9, 53, 0
4, 87140, Note_on_c, 9, 63, 38
4, 87261, Note_on_c, 9, 63, 0
4, 87366, Note_on_c, 9, 59, 30
4, 87451, Note_on_c, 9, 59, 0
4, 87628, Note_on_c, 9, 63, 24
4, 87719, Note_on_c, 9, 63, 0
4, 87811, Note_on_c, 9, 63, 33
4, 87833, Note_on_c, 9, 53, 38
4, 87834, Note_on_c, 9, 59, 70
4, 87974, Note_on_c, 9, 63, 0
4, 88004, Note_on_c, 9, 59, 0
4, 88030, Note_on_c, 9, 53, 0
4, 88358, Note_on_c, 9, 59, 24
4, 88437, Note_on_c, 9, 59, 0
4, 88739, Note_on_c, 9, 65, 35
4, 88783, Note_on_c, 9, 63, 44
4, 88790, Note_on_c, 9, 65, 0
4, 88807, Note_on_c, 9, 59, 74
4, 88893, Note_on_c, 9, 63, 0
4, 89011, Note_on_c, 9, 59, 0
4, 89266, Note_on_c, 9, 63, 45
4, 89318, Note_on_c, 9, 59, 29
4, 89391, Note_on_c, 9, 59, 0
4, 89392, Note_on_c, 9, 63, 0
4, 89482, Note_on_c, 9, 65, 35
4, 89581, Note_on_c, 9, 65, 0
4, 89767, Note_on_c, 9, 53, 42
4, 89780, Note_on_c, 9, 59, 77
4, 89948, Note_on_c, 9, 59, 0
4, 90011, Note_on_c, 9, 53, 0
4, 90219, Note_on_c, 9, 65, 36
4, 90232, Note_on_c, 9, 63, 38
4, 90287, Note_on_c, 9, 63, 0
4, 90292, Note_on_c, 9, 65, 0
4, 90725, Note_on_c, 9, 59, 80
4, 90727, Note_on_c, 9, 53, 40
4, 90913, Note_on_c, 9, 53, 0
4, 90916, Note_on_c, 9, 59, 0
4, 90921, Note_on_c, 9, 65, 38
4, 90975, Note_on_c, 9, 63, 36
4, 90987, Note_on_c, 9, 65, 0
4, 91066, Note_on_c, 9, 63, 0
4, 91234, Note_on_c, 9, 59, 37
4, 91307, Note_on_c, 9, 59, 0
4, 91444, Note_on_c, 9, 63, 31
4, 91524, Note_on_c, 9, 63, 0
4, 91633, Note_on_c, 9, 63, 34
4, 91687, Note_on_c, 9, 53, 41
4, 91688, Note_on_c, 9, 59, 76
4, 91791, Note_on_c, 9, 63, 0
4, 91874, Note_on_c, 9, 59, 0
4, 91884, Note_on_c, 9, 53, 0
4, 92611, Note_on_c, 9, 59, 74
4, 92638, Note_on_c, 9, 63, 37
4, 92732, Note_on_c, 9, 63, 0
4, 92831, Note_on_c, 9, 59, 0
4, 93115, Note_on_c, 9, 59, 30
4, 93142, Note_on_c, 9, 63, 33
4, 93209, Note_on_c, 9, 59, 0
4, 93267, Note_on_c, 9, 63, 0
4, 93582, Note_on_c, 9, 59, 74
4, 93786, Note_on_c, 9, 59, 0
4, 94087, Note_on_c, 9, 59, 26
4, 94110, Note_on_c, 9, 63, 38
4, 94179, Note_on_c, 9, 59, 0
4, 94248, Note_on_c, 9, 63, 0
4, 94549, Note_on_c, 9, 59, 79
4, 94757, Note_on_c, 9, 59, 0
4, 94838, Note_on_c, 9, 63, 30
4, 94935, Note_on_c, 9, 63, 0
4, 95064, Note_on_c, 9, 59, 27
4, 95142, Note_on_c, 9, 59, 0
4, 95316, Note_on_c, 9, 63, 24
4, 95384, Note_on_c, 9, 63, 0
4, 95508, Note_on_c, 9, 63, 28
4, 95523, Note_on_c, 9, 59, 83
4, 95701, Note_on_c, 9, 63, 0
4, 95743, Note_on_c, 9, 59, 0
4, 96011, Note_on_c, 9, 59, 30
4, 96084, Note_on_c, 9, 59, 0
4, 96494, Note_on_c, 9, 59, 76
4, 96510, Note_on_c, 9, 63, 38
4, 96589, Note_on_c, 9, 63, 0
4, 96641, Note_on_c, 9, 59, 0
4, 96889, Note_on_c, 9, 59, 34
4, 97012, Note_on_c, 9, 59, 0
4, 97019, Note_on_c, 9, 63, 38
4, 97134, Note_on_c, 9, 63, 0
4, 97438, Note_on_c, 9, 59, 77
4, 97645, Note_on_c, 9, 59, 0
4, 97929, Note_on_c, 9, 59, 24
4, 97992, Note_on_c, 9, 63, 41
4, 98004, Note_on_c, 9, 59, 0
4, 98106, Note_on_c, 9, 63, 0
4, 98385, Note_on_c, 9, 59, 72
4, 98519, Note_on_c, 9, 59, 0
4, 98657, Note_on_c, 9, 59, 65
4, 98716, Note_on_c, 9, 63, 38
4, 98818, Note_on_c, 9, 59, 0
4, 98952, Note_on_c, 9, 63, 0
4, 99086, Note_on_c, 9, 59, 56
4, 99154, Note_on_c, 9, 59, 0
4, 99290, Note_on_c, 9, 59, 58
4, 99409, Note_on_c, 9, 63, 46
4, 99442, Note_on_c, 9, 59, 0
4, 99553, Note_on_c, 9, 63, 0
4, 100273, Note_on_c, 9, 59, 80
4, 100356, Note_on_c, 9, 63, 36
4, 100408, Note_on_c, 9, 59, 0
4, 100456, Note_on_c, 9, 63, 0
4, 100770, Note_on_c, 9, 59, 36
4, 100845, Note_on_c, 9, 59, 0
4, 100871, Note_on_c, 9, 63, 36
4, 100983, Note_on_c, 9, 63, 0
4, 101260, Note_on_c, 9, 59, 82
4, 101430, Note_on_c, 9, 59, 0
4, 101766, Note_on_c, 9, 59, 32
4, 101786, Note_on_c, 9, 63, 40
4, 101839, Note_on_c, 9, 59, 0
4, 101867, Note_on_c, 9, 63, 0
4, 102244, Note_on_c, 9, 59, 82
4, 102415, Note_on_c, 9, 59, 0
4, 102532, Note_on_c, 9, 63, 38
4, 102668, Note_on_c, 9, 63, 0
4, 102724, Note_on_c, 9, 59, 28
4, 102790, Note_on_c, 9, 59, 0
4, 103164, Note_on_c, 9, 59, 85
4, 103198, Note_on_c, 9, 63, 34
4, 103327, Note_on_c, 9, 63, 0
4, 103348, Note_on_c, 9, 59, 0
4, 104151, Note_on_c, 9, 59, 80
4, 104160, Note_on_c, 9, 63, 34
4, 104329, Note_on_c, 9, 59, 0
4, 104331, Note_on_c, 9, 63, 0
4, 104641, Note_on_c, 9, 59, 41
4, 104685, Note_on_c, 9, 63, 33
4, 104710, Note_on_c, 9, 59, 0
4, 104885, Note_on_c, 9, 63, 0
4, 105106, Note_on_c, 9, 59, 89
4, 105337, Note_on_c, 9, 59, 0
4, 105609, Note_on_c, 9, 59, 31
4, 105664, Note_on_c, 9, 63, 40
4, 105681, Note_on_c, 9, 59, 0
4, 105780, Note_on_c, 9, 63, 0
4, 106037, Note_on_c, 9, 59, 80
4, 106266, Note_on_c, 9, 59, 0
4, 106396, Note_on_c, 9, 63, 34
4, 106520, Note_on_c, 9, 63, 0
4, 106535, Note_on_c, 9, 59, 33
4, 106607, Note_on_c, 9, 59, 0
4, 106870, Note_on_c, 9, 63, 22
4, 106921, Note_on_c, 9, 63, 0
4, 107000, Note_on_c, 9, 59, 83
4, 107057, Note_on_c, 9, 63, 25
4, 107192, Note_on_c, 9, 63, 0
4, 107196, Note_on_c, 9, 59, 0
4, 107937, Note_on_c, 9, 59, 80
4, 107974, Note_on_c, 9, 63, 42
4, 108055, Note_on_c, 9, 59, 0
4, 108105, Note_on_c, 9, 63, 0
4, 108442, Note_on_c, 9, 59, 81
4, 108468, Note_on_c, 9, 63, 37
4, 108611, Note_on_c, 9, 63, 0
4, 108632, Note_on_c, 9, 59, 0
4, 109423, Note_on_c, 9, 63, 42
4, 109532, Note_on_c, 9, 63, 0
4, 109899, Note_on_c, 9, 59, 85
4, 110090, Note_on_c, 9, 59, 0
4, 110146, Note_on_c, 9, 63, 36
4, 110252, Note_on_c, 9, 63, 0
4, 110353, Note_on_c, 9, 59, 40
4, 110424, Note_on_c, 9, 59, 0
4, 110677, Note_on_c, 9, 63, 29
4, 110761, Note_on_c, 9, 63, 0
4, 110856, Note_on_c, 9, 59, 89
4, 110864, Note_on_c, 9, 63, 40
4, 111048, Note_on_c, 9, 59, 0
4, 111049, Note_on_c, 9, 63, 0
4, 111594, Note_on_c, 9, 63, 44
4, 111689, Note_on_c, 9, 63, 0
4, 111777, Note_on_c, 9, 59, 81
4, 111804, Note_on_c, 9, 53, 47
4, 111964, Note_on_c, 9, 59, 0
4, 112019, Note_on_c, 9, 53, 0
4, 112051, Note_on_c, 9, 63, 36
4, 112117, Note_on_c, 9, 63, 0
4, 112272, Note_on_c, 9, 63, 39
4, 112301, Note_on_c, 9, 59, 24
4, 112372, Note_on_c, 9, 59, 0
4, 112399, Note_on_c, 9, 63, 0
4, 112756, Note_on_c, 9, 59, 75
4, 112764, Note_on_c, 9, 53, 52
4, 112942, Note_on_c, 9, 59, 0
4, 113031, Note_on_c, 9, 53, 0
4, 113233, Note_on_c, 9, 59, 37
4, 113276, Note_on_c, 9, 63, 45
4, 113319, Note_on_c, 9, 59, 0
4, 113403, Note_on_c, 9, 63, 0
4, 113747, Note_on_c, 9, 59, 73
4, 113986, Note_on_c, 9, 59, 0
4, 114026, Note_on_c, 9, 63, 45
4, 114195, Note_on_c, 9, 63, 0
4, 114241, Note_on_c, 9, 59, 30
4, 114325, Note_on_c, 9, 59, 0
4, 114497, Note_on_c, 9, 63, 30
4, 114594, Note_on_c, 9, 63, 0
4, 114702, Note_on_c, 9, 63, 31
4, 114736, Note_on_c, 9, 59, 83
4, 114883, Note_on_c, 9, 63, 0
4, 114957, Note_on_c, 9, 59, 0
4, 115263, Note_on_c, 9, 59, 34
4, 115334, Note_on_c, 9, 59, 0
4, 115709, Note_on_c, 9, 59, 75
4, 115723, Note_on_c, 9, 63, 45
4, 115821, Note_on_c, 9, 63, 0
4, 115914, Note_on_c, 9, 59, 0
4, 116172, Note_on_c, 9, 59, 43
4, 116209, Note_on_c, 9, 63, 42
4, 116248, Note_on_c, 9, 59, 0
4, 116359, Note_on_c, 9, 63, 0
4, 116664, Note_on_c, 9, 59, 80
4, 116900, Note_on_c, 9, 59, 0
4, 117132, Note_on_c, 9, 59, 35
4, 117167, Note_on_c, 9, 63, 42
4, 117228, Note_on_c, 9, 59, 0
4, 117278, Note_on_c, 9, 63, 0
4, 117616, Note_on_c, 9, 59, 80
4, 117852, Note_on_c, 9, 59, 0
4, 117923, Note_on_c, 9, 63, 40
4, 118047, Note_on_c, 9, 63, 0
4, 118134, Note_on_c, 9, 59, 32
4, 118207, Note_on_c, 9, 59, 0
4, 118361, Note_on_c, 9, 63, 27
4, 118410, Note_on_c, 9, 63, 0
4, 118571, Note_on_c, 9, 59, 83
4, 118802, Note_on_c, 9, 59, 0
4, 119047, Note_on_c, 9, 59, 31
4, 119111, Note_on_c, 9, 63, 39
4, 119120, Note_on_c, 9, 59, 0
4, 119281, Note_on_c, 9, 63, 0
4, 119490, Note_on_c, 9, 59, 81
4, 119670, Note_on_c, 9, 59, 0
4, 119847, Note_on_c, 9, 63, 38
4, 119961, Note_on_c, 9, 63, 0
4, 120260, Note_on_c, 9, 63, 40
4, 120362, Note_on_c, 9, 63, 0
4, 120452, Note_on_c, 9, 59, 66
4, 120498, Note_on_c, 9, 63, 36
4, 120547, Note_on_c, 9, 59, 0
4, 120574, Note_on_c, 9, 63, 0
4, 121382, Note_on_c, 9, 59, 58
4, 121415, Note_on_c, 9, 63, 46
4, 121519, Note_on_c, 9, 63, 0
4, 121633, Note_on_c, 9, 59, 0
4, 121765, Note_on_c, 9, 59, 38
4, 121837, Note_on_c, 9, 59, 0
4, 121899, Note_on_c, 9, 63, 48
4, 121927, Note_on_c, 9, 59, 46
4, 122063, Note_on_c, 9, 59, 0
4, 122105, Note_on_c, 9, 63, 0
4, 122373, Note_on_c, 9, 59, 71
4, 122640, Note_on_c, 9, 59, 0
4, 122841, Note_on_c, 9, 63, 45
4, 122956, Note_on_c, 9, 63, 0
4, 123302, Note_on_c, 9, 59, 71
4, 123472, Note_on_c, 9, 59, 0
4, 123658, Note_on_c, 9, 59, 36
4, 123727, Note_on_c, 9, 59, 0
4, 123823, Note_on_c, 9, 59, 55
4, 123903, Note_on_c, 9, 59, 0
4, 124256, Note_on_c, 9, 59, 78
4, 124263, Note_on_c, 9, 63, 42
4, 124334, Note_on_c, 9, 63, 0
4, 124532, Note_on_c, 9, 59, 0
4, 124752, Note_on_c, 9, 59, 42
4, 124821, Note_on_c, 9, 59, 0
4, 125059, Note_on_c, 9, 59, 78
4, 125063, Note_on_c, 9, 63, 34
4, 125153, Note_on_c, 9, 63, 0
4, 125211, Note_on_c, 9, 59, 0
4, 125556, Note_on_c, 9, 63, 42
4, 125576, Note_on_c, 9, 59, 48
4, 125642, Note_on_c, 9, 59, 0
4, 125659, Note_on_c, 9, 63, 0
4, 125752, Note_on_c, 9, 59, 60
4, 125961, Note_on_c, 9, 59, 0
4, 126010, Note_on_c, 9, 63, 31
4, 126094, Note_on_c, 9, 63, 0
4, 126183, Note_on_c, 9, 63, 29
4, 126245, Note_on_c, 9, 59, 51
4, 126310, Note_on_c, 9, 59, 0
4, 126323, Note_on_c, 9, 63, 0
4, 127214, Note_on_c, 9, 63, 37
4, 127216, Note_on_c, 9, 59, 80
4, 127323, Note_on_c, 9, 63, 0
4, 127381, Note_on_c, 9, 59, 0
4, 127691, Note_on_c, 9, 59, 35
4, 127702, Note_on_c, 9, 63, 40
4, 127772, Note_on_c, 9, 59, 0
4, 127858, Note_on_c, 9, 63, 0
4, 128173, Note_on_c, 9, 59, 76
4, 128356, Note_on_c, 9, 59, 0
4, 128630, Note_on_c, 9, 59, 38
4, 128677, Note_on_c, 9, 63, 36
4, 128701, Note_on_c, 9, 59, 0
4, 128804, Note_on_c, 9, 63, 0
4, 129122, Note_on_c, 9, 59, 76
4, 129162, Note_on_c, 9, 53, 50
4, 129280, Note_on_c, 9, 59, 0
4, 129361, Note_on_c, 9, 53, 0
4, 129404, Note_on_c, 9, 63, 36
4, 129586, Note_on_c, 9, 63, 0
4, 129885, Note_on_c, 9, 63, 25
4, 129996, Note_on_c, 9, 63, 0
4, 130067, Note_on_c, 9, 59, 75
4, 130078, Note_on_c, 9, 63, 23
4, 130089, Note_on_c, 9, 53, 47
4, 130243, Note_on_c, 9, 59, 0
4, 130270, Note_on_c, 9, 63, 0
4, 130309, Note_on_c, 9, 53, 0
4, 130534, Note_on_c, 9, 59, 36
4, 130620, Note_on_c, 9, 59, 0
4, 131025, Note_on_c, 9, 59, 68
4, 131043, Note_on_c, 9, 53, 46
4, 131043, Note_on_c, 9, 63, 39
4, 131155, Note_on_c, 9, 63, 0
4, 131205, Note_on_c, 9, 59, 0
4, 131266, Note_on_c, 9, 53, 0
4, 131505, Note_on_c, 9, 59, 28
4, 131537, Note_on_c, 9, 63, 40
4, 131583, Note_on_c, 9, 59, 0
4, 131688, Note_on_c, 9, 63, 0
4, 132000, Note_on_c, 9, 59, 76
4, 132027, Note_on_c, 9, 53, 40
4, 132169, Note_on_c, 9, 59, 0
4, 132211, Note_on_c, 9, 53, 0
4, 132488, Note_on_c, 9, 59, 29
4, 132513, Note_on_c, 9, 63, 41
4, 132556, Note_on_c, 9, 59, 0
4, 132637, Note_on_c, 9, 63, 0
4, 132981, Note_on_c, 9, 59, 71
4, 133000, Note_on_c, 9, 53, 48
4, 133194, Note_on_c, 9, 59, 0
4, 133226, Note_on_c, 9, 53, 0
4, 133273, Note_on_c, 9, 63, 36
4, 133412, Note_on_c, 9, 63, 0
4, 133459, Note_on_c, 9, 59, 31
4, 133548, Note_on_c, 9, 59, 0
4, 133753, Note_on_c, 9, 63, 22
4, 133821, Note_on_c, 9, 63, 0
4, 133936, Note_on_c, 9, 53, 51
4, 133958, Note_on_c, 9, 59, 74
4, 133963, Note_on_c, 9, 63, 27
4, 134096, Note_on_c, 9, 63, 0
4, 134128, Note_on_c, 9, 53, 0
4, 134147, Note_on_c, 9, 59, 0
4, 134411, Note_on_c, 9, 59, 43
4, 134483, Note_on_c, 9, 59, 0
4, 134900, Note_on_c, 9, 53, 54
4, 134902, Note_on_c, 9, 59, 74
4, 134903, Note_on_c, 9, 63, 38
4, 135020, Note_on_c, 9, 63, 0
4, 135107, Note_on_c, 9, 59, 0
4, 135130, Note_on_c, 9, 53, 0
4, 135416, Note_on_c, 9, 63, 37
4, 135541, Note_on_c, 9, 63, 0
4, 135855, Note_on_c, 9, 53, 50
4, 135865, Note_on_c, 9, 59, 73
4, 136030, Note_on_c, 9, 59, 0
4, 136086, Note_on_c, 9, 53, 0
4, 136340, Note_on_c, 9, 59, 36
4, 136352, Note_on_c, 9, 63, 42
4, 136416, Note_on_c, 9, 59, 0
4, 136443, Note_on_c, 9, 63, 0
4, 136843, Note_on_c, 9, 53, 50
4, 136861, Note_on_c, 9, 59, 75
4, 137025, Note_on_c, 9, 59, 0
4, 137105, Note_on_c, 9, 53, 0
4, 137105, Note_on_c, 9, 63, 37
4, 137235, Note_on_c, 9, 63, 0
4, 137609, Note_on_c, 9, 59, 73
4, 137641, Note_on_c, 9, 53, 58
4, 137785, Note_on_c, 9, 59, 0
4, 137786, Note_on_c, 9, 63, 40
4, 137874, Note_on_c, 9, 53, 0
4, 137961, Note_on_c, 9, 63, 0
4, 138163, Note_on_c, 9, 59, 52
4, 138226, Note_on_c, 9, 59, 0
4, 138700, Note_on_c, 9, 59, 80
4, 138738, Note_on_c, 9, 63, 40
4, 138834, Note_on_c, 9, 59, 0
4, 138846, Note_on_c, 9, 63, 0
4, 139183, Note_on_c, 9, 59, 34
4, 139226, Note_on_c, 9, 63, 39
4, 139255, Note_on_c, 9, 59, 0
4, 139342, Note_on_c, 9, 63, 0
4, 139650, Note_on_c, 9, 53, 47
4, 139663, Note_on_c, 9, 59, 74
4, 139811, Note_on_c, 9, 59, 0
4, 139837, Note_on_c, 9, 53, 0
4, 140143, Note_on_c, 9, 59, 32
4, 140175, Note_on_c, 9, 63, 34
4, 140210, Note_on_c, 9, 59, 0
4, 140223, Note_on_c, 9, 63, 0
4, 140430, Note_on_c, 9, 59, 69
4, 140461, Note_on_c, 9, 53, 49
4, 140564, Note_on_c, 9, 59, 0
4, 140579, Note_on_c, 9, 53, 0
4, 140918, Note_on_c, 9, 63, 38
4, 140923, Note_on_c, 9, 59, 36
4, 140994, Note_on_c, 9, 59, 0
4, 141058, Note_on_c, 9, 63, 0
4, 141166, Note_on_c, 9, 53, 55
4, 141180, Note_on_c, 9, 59, 66
4, 141361, Note_on_c, 9, 59, 0
4, 141366, Note_on_c, 9, 63, 31
4, 141367, Note_on_c, 9, 53, 0
4, 141437, Note_on_c, 9, 63, 0
4, 141559, Note_on_c, 9, 63, 36
4, 141610, Note_on_c, 9, 59, 46
4, 141673, Note_on_c, 9, 59, 0
4, 141712, Note_on_c, 9, 63, 0
4, 142117, Note_on_c, 9, 59, 62
4, 142171, Note_on_c, 9, 59, 0
4, 142534, Note_on_c, 9, 63, 40
4, 142588, Note_on_c, 9, 59, 77
4, 142638, Note_on_c, 9, 63, 0
4, 142712, Note_on_c, 9, 59, 0
4, 143037, Note_on_c, 9, 63, 42
4, 143071, Note_on_c, 9, 59, 34
4, 143139, Note_on_c, 9, 59, 0
4, 143145, Note_on_c, 9, 63, 0
4, 143509, Note_on_c, 9, 59, 81
4, 143657, Note_on_c, 9, 59, 0
4, 143985, Note_on_c, 9, 59, 34
4, 144010, Note_on_c, 9, 63, 46
4, 144060, Note_on_c, 9, 59, 0
4, 144140, Note_on_c, 9, 63, 0
4, 144472, Note_on_c, 9, 59, 87
4, 144622, Note_on_c, 9, 59, 0
4, 144762, Note_on_c, 9, 63, 45
4, 144896, Note_on_c, 9, 63, 0
4, 144963, Note_on_c, 9, 59, 29
4, 145034, Note_on_c, 9, 59, 0
4, 145228, Note_on_c, 9, 63, 29
4, 145326, Note_on_c, 9, 63, 0
4, 145404, Note_on_c, 9, 59, 88
4, 145429, Note_on_c, 9, 63, 40
4, 145557, Note_on_c, 9, 63, 0
4, 145561, Note_on_c, 9, 59, 0
4, 145871, Note_on_c, 9, 59, 39
4, 145942, Note_on_c, 9, 59, 0
4, 146342, Note_on_c, 9, 59, 85
4, 146362, Note_on_c, 9, 63, 42
4, 146471, Note_on_c, 9, 63, 0
4, 146489, Note_on_c, 9, 59, 0
4, 146817, Note_on_c, 9, 59, 31
4, 146860, Note_on_c, 9, 63, 42
4, 146896, Note_on_c, 9, 59, 0
4, 146978, Note_on_c, 9, 63, 0
4, 147300, Note_on_c, 9, 59, 81
4, 147437, Note_on_c, 9, 59, 0
4, 147830, Note_on_c, 9, 63, 42
4, 147986, Note_on_c, 9, 63, 0
4, 148289, Note_on_c, 9, 59, 55
4, 148565, Note_on_c, 9, 59, 0
4, 148594, Note_on_c, 9, 63, 38
4, 148725, Note_on_c, 9, 63, 0
4, 149050, Note_on_c, 9, 63, 29
4, 149120, Note_on_c, 9, 53, 47
4, 149139, Note_on_c, 9, 63, 0
4, 149260, Note_on_c, 9, 59, 60
4, 149263, Note_on_c, 9, 63, 36
4, 149437, Note_on_c, 9, 63, 0
4, 149448, Note_on_c, 9, 53, 0
4, 149524, Note_on_c, 9, 59, 0
4, 149812, Note_on_c, 9, 53, 53
4, 150082, Note_on_c, 9, 53, 0
4, 150215, Note_on_c, 9, 59, 66
4, 150219, Note_on_c, 9, 65, 31
4, 150260, Note_on_c, 9, 63, 45
4, 150284, Note_on_c, 9, 65, 0
4, 150365, Note_on_c, 9, 63, 0
4, 150462, Note_on_c, 9, 59, 0
4, 150527, Note_on_c, 9, 53, 48
4, 150732, Note_on_c, 9, 63, 42
4, 150787, Note_on_c, 9, 53, 0
4, 150873, Note_on_c, 9, 63, 0
4, 150953, Note_on_c, 9, 65, 32
4, 151048, Note_on_c, 9, 65, 0
4, 151163, Note_on_c, 9, 53, 60
4, 151170, Note_on_c, 9, 59, 67
4, 151406, Note_on_c, 9, 53, 0
4, 151414, Note_on_c, 9, 59, 0
4, 151636, Note_on_c, 9, 65, 35
4, 151651, Note_on_c, 9, 65, 31
4, 151655, Note_on_c, 9, 63, 44
4, 151767, Note_on_c, 9, 63, 0
4, 151774, Note_on_c, 9, 65, 0
4, 151817, Note_on_c, 9, 65, 0
4, 151914, Note_on_c, 9, 53, 62
4, 152079, Note_on_c, 9, 53, 0
4, 152109, Note_on_c, 9, 59, 58
4, 152131, Note_on_c, 9, 65, 37
4, 152329, Note_on_c, 9, 59, 0
4, 152341, Note_on_c, 9, 65, 0
4, 152410, Note_on_c, 9, 63, 40
4, 152554, Note_on_c, 9, 63, 0
4, 152569, Note_on_c, 9, 53, 56
4, 152860, Note_on_c, 9, 63, 23
4, 152867, Note_on_c, 9, 53, 0
4, 152983, Note_on_c, 9, 63, 0
4, 153027, Note_on_c, 9, 59, 66
4, 153046, Note_on_c, 9, 53, 53
4, 153049, Note_on_c, 9, 63, 36
4, 153105, Note_on_c, 9, 53, 0
4, 153166, Note_on_c, 9, 63, 0
4, 153281, Note_on_c, 9, 59, 0
4, 154067, Note_on_c, 9, 63, 39
4, 154122, Note_on_c, 9, 59, 58
4, 154179, Note_on_c, 9, 63, 0
4, 154342, Note_on_c, 9, 59, 0
4, 154584, Note_on_c, 9, 59, 34
4, 154799, Note_on_c, 9, 59, 0
4, 155016, Note_on_c, 9, 59, 79
4, 155101, Note_on_c, 9, 63, 38
4, 155176, Note_on_c, 9, 63, 0
4, 155243, Note_on_c, 9, 59, 0
4, 155496, Note_on_c, 9, 59, 34
4, 155619, Note_on_c, 9, 59, 0
4, 155950, Note_on_c, 9, 59, 77
4, 156046, Note_on_c, 9, 63, 42
4, 156139, Note_on_c, 9, 59, 0
4, 156145, Note_on_c, 9, 63, 0
4, 156393, Note_on_c, 9, 59, 37
4, 156572, Note_on_c, 9, 59, 0
4, 156796, Note_on_c, 9, 63, 46
4, 156870, Note_on_c, 9, 59, 89
4, 156895, Note_on_c, 9, 63, 0
4, 157096, Note_on_c, 9, 59, 0
4, 157354, Note_on_c, 9, 59, 36
4, 157436, Note_on_c, 9, 59, 0
4, 157445, Note_on_c, 9, 63, 1
4, 157573, Note_on_c, 9, 63, 0
4, 157858, Note_on_c, 9, 59, 87
4, 157936, Note_on_c, 9, 63, 42
4, 158019, Note_on_c, 9, 59, 0
4, 158020, Note_on_c, 9, 63, 0
4, 158374, Note_on_c, 9, 59, 33
4, 158387, Note_on_c, 9, 63, 39
4, 158445, Note_on_c, 9, 59, 0
4, 158504, Note_on_c, 9, 63, 0
4, 158845, Note_on_c, 9, 59, 81
4, 159012, Note_on_c, 9, 59, 0
4, 159360, Note_on_c, 9, 63, 44
4, 159484, Note_on_c, 9, 63, 0
4, 159791, Note_on_c, 9, 59, 73
4, 159934, Note_on_c, 9, 59, 0
4, 160072, Note_on_c, 9, 63, 40
4, 160090, Note_on_c, 9, 59, 32
4, 160200, Note_on_c, 9, 59, 0
4, 160252, Note_on_c, 9, 63, 0
4, 160524, Note_on_c, 9, 63, 23
4, 160596, Note_on_c, 9, 59, 46
4, 160612, Note_on_c, 9, 63, 0
4, 160659, Note_on_c, 9, 59, 0
4, 160681, Note_on_c, 9, 63, 21
4, 160779, Note_on_c, 9, 59, 57
4, 160809, Note_on_c, 9, 63, 0
4, 161095, Note_on_c, 9, 59, 0
4, 161226, Note_on_c, 9, 59, 37
4, 161312, Note_on_c, 9, 59, 0
4, 161708, Note_on_c, 9, 63, 46
4, 161730, Note_on_c, 9, 59, 83
4, 161811, Note_on_c, 9, 63, 0
4, 161949, Note_on_c, 9, 59, 0
4, 162199, Note_on_c, 9, 59, 35
4, 162204, Note_on_c, 9, 63, 45
4, 162277, Note_on_c, 9, 59, 0
4, 162325, Note_on_c, 9, 63, 0
4, 162683, Note_on_c, 9, 59, 88
4, 162868, Note_on_c, 9, 59, 0
4, 163157, Note_on_c, 9, 59, 37
4, 163214, Note_on_c, 9, 63, 42
4, 163229, Note_on_c, 9, 59, 0
4, 163333, Note_on_c, 9, 63, 0
4, 163664, Note_on_c, 9, 59, 84
4, 163826, Note_on_c, 9, 59, 0
4, 163989, Note_on_c, 9, 63, 29
4, 164101, Note_on_c, 9, 63, 0
4, 164168, Note_on_c, 9, 59, 26
4, 164229, Note_on_c, 9, 59, 0
4, 164631, Note_on_c, 9, 59, 83
4, 164661, Note_on_c, 9, 63, 37
4, 164789, Note_on_c, 9, 63, 0
4, 164792, Note_on_c, 9, 59, 0
4, 165589, Note_on_c, 9, 59, 46
4, 165650, Note_on_c, 9, 63, 40
4, 165667, Note_on_c, 9, 59, 0
4, 165793, Note_on_c, 9, 63, 0
4, 166159, Note_on_c, 9, 63, 34
4, 166293, Note_on_c, 9, 63, 0
4, 166521, Note_on_c, 9, 59, 72
4, 166666, Note_on_c, 9, 59, 0
4, 167126, Note_on_c, 9, 63, 40
4, 167260, Note_on_c, 9, 63, 0
4, 167463, Note_on_c, 9, 59, 72
4, 167672, Note_on_c, 9, 59, 0
4, 167859, Note_on_c, 9, 63, 42
4, 168026, Note_on_c, 9, 63, 0
4, 168297, Note_on_c, 9, 63, 32
4, 168329, Note_on_c, 9, 59, 63
4, 168362, Note_on_c, 9, 63, 0
4, 168497, Note_on_c, 9, 63, 32
4, 168501, Note_on_c, 9, 59, 0
4, 168670, Note_on_c, 9, 63, 0
4, 168771, Note_on_c, 9, 59, 47
4, 168845, Note_on_c, 9, 59, 0
4, 168964, Note_on_c, 9, 59, 54
4, 169152, Note_on_c, 9, 59, 0
4, 169397, Note_on_c, 9, 59, 57
4, 169432, Note_on_c, 9, 63, 44
4, 169540, Note_on_c, 9, 63, 0
4, 169651, Note_on_c, 9, 59, 0
4, 169933, Note_on_c, 9, 63, 42
4, 170055, Note_on_c, 9, 63, 0
4, 170378, Note_on_c, 9, 59, 72
4, 170554, Note_on_c, 9, 59, 0
4, 170898, Note_on_c, 9, 59, 22
4, 170903, Note_on_c, 9, 63, 44
4, 170985, Note_on_c, 9, 59, 0
4, 171023, Note_on_c, 9, 63, 0
4, 171330, Note_on_c, 9, 59, 74
4, 171528, Note_on_c, 9, 59, 0
4, 171625, Note_on_c, 9, 63, 40
4, 171747, Note_on_c, 9, 63, 0
4, 172092, Note_on_c, 9, 59, 51
4, 172094, Note_on_c, 9, 63, 29
4, 172158, Note_on_c, 9, 59, 0
4, 172166, Note_on_c, 9, 63, 0
4, 172286, Note_on_c, 9, 63, 36
4, 172288, Note_on_c, 9, 59, 60
4, 172472, Note_on_c, 9, 63, 0
4, 172622, Note_on_c, 9, 59, 0
4, 172787, Note_on_c, 9, 59, 31
4, 172868, Note_on_c, 9, 59, 0
4, 173259, Note_on_c, 9, 63, 42
4, 173261, Note_on_c, 9, 59, 78
4, 173372, Note_on_c, 9, 63, 0
4, 173500, Note_on_c, 9, 59, 0
4, 173753, Note_on_c, 9, 63, 44
4, 173900, Note_on_c, 9, 63, 0
4, 174205, Note_on_c, 9, 59, 78
4, 174404, Note_on_c, 9, 59, 0
4, 174675, Note_on_c, 9, 59, 34
4, 174683, Note_on_c, 9, 63, 36
4, 174741, Note_on_c, 9, 59, 0
4, 174820, Note_on_c, 9, 63, 0
4, 175135, Note_on_c, 9, 59, 84
4, 175320, Note_on_c, 9, 59, 0
4, 175454, Note_on_c, 9, 63, 41
4, 175619, Note_on_c, 9, 63, 0
4, 175936, Note_on_c, 9, 63, 28
4, 176013, Note_on_c, 9, 63, 0
4, 176130, Note_on_c, 9, 59, 83
4, 176134, Note_on_c, 9, 63, 31
4, 176255, Note_on_c, 9, 59, 0
4, 176279, Note_on_c, 9, 63, 0
4, 176654, Note_on_c, 9, 59, 32
4, 176718, Note_on_c, 9, 59, 0
4, 177062, Note_on_c, 9, 63, 32
4, 177122, Note_on_c, 9, 59, 87
4, 177144, Note_on_c, 9, 63, 0
4, 177245, Note_on_c, 9, 59, 0
4, 177579, Note_on_c, 9, 63, 31
4, 177616, Note_on_c, 9, 59, 24
4, 177676, Note_on_c, 9, 63, 0
4, 177699, Note_on_c, 9, 59, 0
4, 178068, Note_on_c, 9, 59, 84
4, 178244, Note_on_c, 9, 59, 0
4, 178544, Note_on_c, 9, 63, 36
4, 178661, Note_on_c, 9, 63, 0
4, 179053, Note_on_c, 9, 59, 79
4, 179251, Note_on_c, 9, 63, 33
4, 179271, Note_on_c, 9, 59, 0
4, 179434, Note_on_c, 9, 63, 0
4, 179719, Note_on_c, 9, 63, 34
4, 179834, Note_on_c, 9, 63, 0
4, 179937, Note_on_c, 9, 63, 37
4, 179990, Note_on_c, 9, 59, 78
4, 180151, Note_on_c, 9, 63, 0
4, 180164, Note_on_c, 9, 59, 0
4, 180701, Note_on_c, 9, 63, 33
4, 180831, Note_on_c, 9, 63, 0
4, 180873, Note_on_c, 9, 59, 73
4, 181061, Note_on_c, 9, 59, 0
4, 181155, Note_on_c, 9, 63, 24
4, 181232, Note_on_c, 9, 59, 24
4, 181246, Note_on_c, 9, 63, 0
4, 181410, Note_on_c, 9, 63, 32
4, 181492, Note_on_c, 9, 59, 0
4, 181601, Note_on_c, 9, 63, 0
4, 181800, Note_on_c, 9, 59, 68
4, 181990, Note_on_c, 9, 59, 0
4, 182163, Note_on_c, 9, 59, 26
4, 182186, Note_on_c, 9, 63, 40
4, 182220, Note_on_c, 9, 59, 0
4, 182328, Note_on_c, 9, 63, 0
4, 182330, Note_on_c, 9, 59, 53
4, 182458, Note_on_c, 9, 59, 0
4, 182621, Note_on_c, 9, 63, 40
4, 182706, Note_on_c, 9, 63, 0
4, 182805, Note_on_c, 9, 59, 76
4, 182858, Note_on_c, 9, 63, 19
4, 182952, Note_on_c, 9, 63, 0
4, 183064, Note_on_c, 9, 59, 0
4, 183304, Note_on_c, 9, 59, 31
4, 183305, Note_on_c, 9, 63, 37
4, 183368, Note_on_c, 9, 59, 0
4, 183457, Note_on_c, 9, 63, 0
4, 183768, Note_on_c, 9, 59, 83
4, 183776, Note_on_c, 9, 63, 37
4, 183898, Note_on_c, 9, 63, 0
4, 184002, Note_on_c, 9, 59, 0
4, 184776, Note_on_c, 9, 63, 36
4, 184793, Note_on_c, 9, 59, 79
4, 184919, Note_on_c, 9, 63, 0
4, 184990, Note_on_c, 9, 59, 0
4, 185272, Note_on_c, 9, 63, 35
4, 185303, Note_on_c, 9, 59, 33
4, 185424, Note_on_c, 9, 63, 0
4, 185428, Note_on_c, 9, 59, 0
4, 185768, Note_on_c, 9, 59, 76
4, 185989, Note_on_c, 9, 59, 0
4, 186228, Note_on_c, 9, 59, 44
4, 186264, Note_on_c, 9, 63, 39
4, 186294, Note_on_c, 9, 59, 0
4, 186399, Note_on_c, 9, 63, 0
4, 186714, Note_on_c, 9, 59, 80
4, 186905, Note_on_c, 9, 59, 0
4, 187004, Note_on_c, 9, 63, 38
4, 187147, Note_on_c, 9, 63, 0
4, 187222, Note_on_c, 9, 59, 19
4, 187274, Note_on_c, 9, 59, 0
4, 187474, Note_on_c, 9, 63, 33
4, 187580, Note_on_c, 9, 63, 0
4, 187650, Note_on_c, 9, 59, 70
4, 187687, Note_on_c, 9, 63, 36
4, 187829, Note_on_c, 9, 63, 0
4, 187829, Note_on_c, 9, 59, 0
4, 188113, Note_on_c, 9, 59, 46
4, 188186, Note_on_c, 9, 59, 0
4, 188596, Note_on_c, 9, 59, 74
4, 188608, Note_on_c, 9, 63, 44
4, 188748, Note_on_c, 9, 63, 0
4, 188784, Note_on_c, 9, 59, 0
4, 189072, Note_on_c, 9, 59, 32
4, 189115, Note_on_c, 9, 63, 45
4, 189146, Note_on_c, 9, 59, 0
4, 189266, Note_on_c, 9, 63, 0
4, 189585, Note_on_c, 9, 59, 69
4, 189755, Note_on_c, 9, 59, 0
4, 190044, Note_on_c, 9, 63, 46
4, 190091, Note_on_c, 9, 59, 22
4, 190175, Note_on_c, 9, 63, 0
4, 190179, Note_on_c, 9, 59, 0
4, 190512, Note_on_c, 9, 59, 74
4, 190710, Note_on_c, 9, 59, 0
4, 190794, Note_on_c, 9, 63, 44
4, 190966, Note_on_c, 9, 63, 0
4, 190985, Note_on_c, 9, 59, 26
4, 191043, Note_on_c, 9, 59, 0
4, 191265, Note_on_c, 9, 63, 30
4, 191363, Note_on_c, 9, 63, 0
4, 191472, Note_on_c, 9, 63, 37
4, 191485, Note_on_c, 9, 59, 73
4, 191638, Note_on_c, 9, 63, 0
4, 191712, Note_on_c, 9, 59, 0
4, 191981, Note_on_c, 9, 59, 31
4, 192058, Note_on_c, 9, 59, 0
4, 192480, Note_on_c, 9, 63, 40
4, 192498, Note_on_c, 9, 59, 76
4, 192600, Note_on_c, 9, 63, 0
4, 192694, Note_on_c, 9, 59, 0
4, 192996, Note_on_c, 9, 63, 38
4, 193023, Note_on_c, 9, 59, 20
4, 193099, Note_on_c, 9, 59, 0
4, 193164, Note_on_c, 9, 63, 0
4, 193437, Note_on_c, 9, 59, 77
4, 193661, Note_on_c, 9, 59, 0
4, 193949, Note_on_c, 9, 63, 38
4, 193956, Note_on_c, 9, 59, 20
4, 194051, Note_on_c, 9, 59, 0
4, 194080, Note_on_c, 9, 63, 0
4, 194386, Note_on_c, 9, 59, 74
4, 194410, Note_on_c, 9, 53, 41
4, 194563, Note_on_c, 9, 59, 0
4, 194643, Note_on_c, 9, 53, 0
4, 194707, Note_on_c, 9, 63, 37
4, 194845, Note_on_c, 9, 63, 0
4, 194873, Note_on_c, 9, 59, 19
4, 194942, Note_on_c, 9, 59, 0
4, 195163, Note_on_c, 9, 63, 21
4, 195183, Note_on_c, 9, 59, 64
4, 195225, Note_on_c, 9, 53, 41
4, 195228, Note_on_c, 9, 63, 0
4, 195346, Note_on_c, 9, 63, 33
4, 195350, Note_on_c, 9, 59, 0
4, 195421, Note_on_c, 9, 59, 32
4, 195503, Note_on_c, 9, 63, 0
4, 195524, Note_on_c, 9, 53, 0
4, 195604, Note_on_c, 9, 59, 0
4, 195900, Note_on_c, 9, 59, 54
4, 196070, Note_on_c, 9, 59, 0
4, 196350, Note_on_c, 9, 59, 66
4, 196359, Note_on_c, 9, 53, 46
4, 196367, Note_on_c, 9, 63, 20
4, 196438, Note_on_c, 9, 63, 0
4, 196501, Note_on_c, 9, 53, 0
4, 196526, Note_on_c, 9, 59, 0
4, 196822, Note_on_c, 9, 59, 36
4, 196861, Note_on_c, 9, 63, 26
4, 196899, Note_on_c, 9, 59, 0
4, 196963, Note_on_c, 9, 63, 0
4, 197116, Note_on_c, 9, 53, 40
4, 197123, Note_on_c, 9, 59, 62
4, 197275, Note_on_c, 9, 59, 0
4, 197281, Note_on_c, 9, 53, 0
4, 197361, Note_on_c, 9, 59, 40
4, 197448, Note_on_c, 9, 59, 0
4, 197798, Note_on_c, 9, 63, 23
4, 197866, Note_on_c, 9, 63, 0
4, 197919, Note_on_c, 9, 59, 27
4, 197971, Note_on_c, 9, 59, 0
4, 198251, Note_on_c, 9, 59, 76
4, 198390, Note_on_c, 9, 59, 0
4, 198540, Note_on_c, 9, 63, 26
4, 198641, Note_on_c, 9, 63, 0
4, 198949, Note_on_c, 9, 63, 25
4, 199012, Note_on_c, 9, 63, 0
4, 199153, Note_on_c, 9, 63, 29
4, 199166, Note_on_c, 9, 59, 77
4, 199280, Note_on_c, 9, 63, 0
4, 199325, Note_on_c, 9, 59, 0
4, 199611, Note_on_c, 9, 59, 30
4, 199689, Note_on_c, 9, 59, 0
4, 200092, Note_on_c, 9, 59, 75
4, 200130, Note_on_c, 9, 63, 33
4, 200196, Note_on_c, 9, 63, 0
4, 200273, Note_on_c, 9, 59, 0
4, 200560, Note_on_c, 9, 59, 33
4, 200602, Note_on_c, 9, 63, 33
4, 200628, Note_on_c, 9, 59, 0
4, 200758, Note_on_c, 9, 63, 0
4, 200858, Note_on_c, 9, 59, 71
4, 201034, Note_on_c, 9, 59, 0
4, 201529, Note_on_c, 9, 63, 34
4, 201554, Note_on_c, 9, 59, 62
4, 201646, Note_on_c, 9, 63, 0
4, 201748, Note_on_c, 9, 59, 0
4, 202262, Note_on_c, 9, 63, 34
4, 202294, Note_on_c, 9, 59, 63
4, 202320, Note_on_c, 9, 63, 0
4, 202350, Note_on_c, 9, 59, 0
4, 202500, Note_on_c, 9, 59, 55
4, 202681, Note_on_c, 9, 59, 0
4, 202759, Note_on_c, 9, 63, 23
4, 202834, Note_on_c, 9, 63, 0
4, 202931, Note_on_c, 9, 63, 21
4, 202986, Note_on_c, 9, 59, 74
4, 203112, Note_on_c, 9, 63, 0
4, 203240, Note_on_c, 9, 59, 0
4, 203931, Note_on_c, 9, 63, 33
4, 203956, Note_on_c, 9, 59, 74
4, 204018, Note_on_c, 9, 63, 0
4, 204091, Note_on_c, 9, 59, 0
4, 204684, Note_on_c, 9, 63, 39
4, 204800, Note_on_c, 9, 63, 0
4, 204906, Note_on_c, 9, 59, 80
4, 205058, Note_on_c, 9, 59, 0
4, 205177, Note_on_c, 9, 63, 13
4, 205226, Note_on_c, 9, 63, 0
4, 205348, Note_on_c, 9, 63, 36
4, 205374, Note_on_c, 9, 59, 27
4, 205440, Note_on_c, 9, 59, 0
4, 205476, Note_on_c, 9, 63, 0
4, 205883, Note_on_c, 9, 59, 80
4, 206009, Note_on_c, 9, 59, 0
4, 206133, Note_on_c, 9, 63, 28
4, 206244, Note_on_c, 9, 63, 0
4, 206601, Note_on_c, 9, 63, 13
4, 206650, Note_on_c, 9, 63, 0
4, 206758, Note_on_c, 9, 63, 27
4, 206803, Note_on_c, 9, 59, 73
4, 206911, Note_on_c, 9, 63, 0
4, 207006, Note_on_c, 9, 59, 0
4, 207752, Note_on_c, 9, 59, 64
4, 207795, Note_on_c, 9, 63, 40
4, 207870, Note_on_c, 9, 63, 0
4, 207951, Note_on_c, 9, 59, 0
4, 208284, Note_on_c, 9, 63, 37
4, 208447, Note_on_c, 9, 63, 0
4, 208701, Note_on_c, 9, 59, 48
4, 208863, Note_on_c, 9, 59, 0
4, 209160, Note_on_c, 9, 59, 45
4, 209235, Note_on_c, 9, 59, 0
4, 209275, Note_on_c, 9, 63, 37
4, 209389, Note_on_c, 9, 63, 0
4, 209703, Note_on_c, 9, 59, 81
4, 209898, Note_on_c, 9, 59, 0
4, 210038, Note_on_c, 9, 63, 40
4, 210163, Note_on_c, 9, 59, 30
4, 210166, Note_on_c, 9, 63, 0
4, 210238, Note_on_c, 9, 59, 0
4, 210524, Note_on_c, 9, 63, 21
4, 210688, Note_on_c, 9, 59, 70
4, 210868, Note_on_c, 9, 63, 0
4, 210874, Note_on_c, 9, 59, 0
4, 211052, Note_on_c, 9, 59, 33
4, 211219, Note_on_c, 9, 59, 0
4, 211611, Note_on_c, 9, 59, 77
4, 211619, Note_on_c, 9, 65, 35
4, 211648, Note_on_c, 9, 63, 42
4, 211670, Note_on_c, 9, 65, 0
4, 211763, Note_on_c, 9, 63, 0
4, 211859, Note_on_c, 9, 59, 0
4, 212078, Note_on_c, 9, 59, 31
4, 212134, Note_on_c, 9, 63, 44
4, 212136, Note_on_c, 9, 59, 0
4, 212256, Note_on_c, 9, 63, 0
4, 212362, Note_on_c, 9, 65, 35
4, 212375, Note_on_c, 9, 59, 77
4, 212461, Note_on_c, 9, 65, 0
4, 212583, Note_on_c, 9, 59, 0
4, 213081, Note_on_c, 9, 63, 44
4, 213099, Note_on_c, 9, 65, 36
4, 213138, Note_on_c, 9, 59, 71
4, 213172, Note_on_c, 9, 65, 0
4, 213232, Note_on_c, 9, 63, 0
4, 213365, Note_on_c, 9, 59, 0
4, 213586, Note_on_c, 9, 59, 41
4, 213649, Note_on_c, 9, 59, 0
4, 213801, Note_on_c, 9, 65, 38
4, 213850, Note_on_c, 9, 63, 45
4, 213861, Note_on_c, 9, 59, 71
4, 213867, Note_on_c, 9, 65, 0
4, 213997, Note_on_c, 9, 63, 0
4, 214087, Note_on_c, 9, 59, 0
4, 214334, Note_on_c, 9, 63, 31
4, 214400, Note_on_c, 9, 59, 30
4, 214448, Note_on_c, 9, 63, 0
4, 214460, Note_on_c, 9, 59, 0
4, 214534, Note_on_c, 9, 63, 34
4, 214577, Note_on_c, 9, 59, 60
4, 214659, Note_on_c, 9, 63, 0
4, 214792, Note_on_c, 9, 59, 0
4, 215098, Note_on_c, 9, 59, 37
4, 215162, Note_on_c, 9, 59, 0
4, 215520, Note_on_c, 9, 63, 44
4, 215556, Note_on_c, 9, 59, 80
4, 215626, Note_on_c, 9, 63, 0
4, 215698, Note_on_c, 9, 59, 0
4, 216023, Note_on_c, 9, 63, 39
4, 216183, Note_on_c, 9, 63, 0
4, 216498, Note_on_c, 9, 59, 78
4, 216630, Note_on_c, 9, 59, 0
4, 216967, Note_on_c, 9, 59, 29
4, 217017, Note_on_c, 9, 63, 38
4, 217026, Note_on_c, 9, 59, 0
4, 217171, Note_on_c, 9, 63, 0
4, 217426, Note_on_c, 9, 59, 76
4, 217566, Note_on_c, 9, 59, 0
4, 217793, Note_on_c, 9, 63, 39
4, 217892, Note_on_c, 9, 59, 33
4, 217932, Note_on_c, 9, 63, 0
4, 217969, Note_on_c, 9, 59, 0
4, 218259, Note_on_c, 9, 63, 27
4, 218376, Note_on_c, 9, 59, 75
4, 218403, Note_on_c, 9, 63, 0
4, 218455, Note_on_c, 9, 63, 18
4, 218524, Note_on_c, 9, 59, 0
4, 218585, Note_on_c, 9, 63, 0
4, 218844, Note_on_c, 9, 59, 33
4, 218919, Note_on_c, 9, 59, 0
4, 219339, Note_on_c, 9, 59, 60
4, 219393, Note_on_c, 9, 63, 38
4, 219471, Note_on_c, 9, 59, 0
4, 219508, Note_on_c, 9, 63, 0
4, 219904, Note_on_c, 9, 63, 41
4, 220075, Note_on_c, 9, 63, 0
4, 220321, Note_on_c, 9, 59, 57
4, 220486, Note_on_c, 9, 59, 0
4, 220854, Note_on_c, 9, 63, 38
4, 220984, Note_on_c, 9, 63, 0
4, 221280, Note_on_c, 9, 59, 64
4, 221428, Note_on_c, 9, 59, 0
4, 221614, Note_on_c, 9, 63, 38
4, 221733, Note_on_c, 9, 63, 0
4, 222082, Note_on_c, 9, 63, 21
4, 222139, Note_on_c, 9, 63, 0
4, 222234, Note_on_c, 9, 63, 34
4, 222251, Note_on_c, 9, 59, 66
4, 222347, Note_on_c, 9, 63, 0
4, 222387, Note_on_c, 9, 59, 0
4, 223176, Note_on_c, 9, 59, 74
4, 223178, Note_on_c, 9, 63, 36
4, 223245, Note_on_c, 9, 63, 0
4, 223315, Note_on_c, 9, 59, 0
4, 223651, Note_on_c, 9, 59, 26
4, 223669, Note_on_c, 9, 63, 38
4, 223711, Note_on_c, 9, 59, 0
4, 223790, Note_on_c, 9, 63, 0
4, 224144, Note_on_c, 9, 59, 72
4, 224293, Note_on_c, 9, 59, 0
4, 224621, Note_on_c, 9, 63, 40
4, 224736, Note_on_c, 9, 63, 0
4, 225060, Note_on_c, 9, 59, 58
4, 225236, Note_on_c, 9, 59, 0
4, 225386, Note_on_c, 9, 63, 44
4, 225416, Note_on_c, 9, 59, 40
4, 225480, Note_on_c, 9, 59, 0
4, 225515, Note_on_c, 9, 63, 0
4, 225606, Note_on_c, 9, 59, 38
4, 225770, Note_on_c, 9, 59, 0
4, 225832, Note_on_c, 9, 63, 23
4, 225893, Note_on_c, 9, 63, 0
4, 226023, Note_on_c, 9, 59, 60
4, 226030, Note_on_c, 9, 63, 31
4, 226119, Note_on_c, 9, 59, 0
4, 226145, Note_on_c, 9, 63, 0
4, 226997, Note_on_c, 9, 59, 58
4, 227016, Note_on_c, 9, 63, 44
4, 227134, Note_on_c, 9, 63, 0
4, 227176, Note_on_c, 9, 59, 0
4, 227781, Note_on_c, 9, 63, 44
4, 227903, Note_on_c, 9, 63, 0
4, 227981, Note_on_c, 9, 59, 62
4, 228188, Note_on_c, 9, 59, 0
4, 228246, Note_on_c, 9, 63, 24
4, 228326, Note_on_c, 9, 63, 0
4, 228440, Note_on_c, 9, 63, 44
4, 228591, Note_on_c, 9, 63, 0
4, 228939, Note_on_c, 9, 59, 73
4, 229101, Note_on_c, 9, 59, 0
4, 229193, Note_on_c, 9, 63, 41
4, 229334, Note_on_c, 9, 63, 0
4, 229401, Note_on_c, 9, 59, 29
4, 229471, Note_on_c, 9, 59, 0
4, 229608, Note_on_c, 9, 63, 34
4, 229670, Note_on_c, 9, 63, 0
4, 229805, Note_on_c, 9, 63, 38
4, 229910, Note_on_c, 9, 59, 69
4, 229952, Note_on_c, 9, 63, 0
4, 230104, Note_on_c, 9, 59, 0
4, 230377, Note_on_c, 9, 59, 32
4, 230440, Note_on_c, 9, 59, 0
4, 230813, Note_on_c, 9, 63, 45
4, 230820, Note_on_c, 9, 59, 71
4, 230926, Note_on_c, 9, 63, 0
4, 230963, Note_on_c, 9, 59, 0
4, 231306, Note_on_c, 9, 63, 42
4, 231438, Note_on_c, 9, 63, 0
4, 231775, Note_on_c, 9, 59, 65
4, 231845, Note_on_c, 9, 59, 0
4, 232294, Note_on_c, 9, 63, 41
4, 232419, Note_on_c, 9, 63, 0
4, 232736, Note_on_c, 9, 59, 75
4, 232851, Note_on_c, 9, 59, 0
4, 233018, Note_on_c, 9, 63, 39
4, 233179, Note_on_c, 9, 63, 0
4, 233514, Note_on_c, 9, 59, 69
4, 233518, Note_on_c, 9, 63, 17
4, 233611, Note_on_c, 9, 63, 0
4, 233622, Note_on_c, 9, 59, 0
4, 233686, Note_on_c, 9, 63, 23
4, 233734, Note_on_c, 9, 59, 57
4, 233826, Note_on_c, 9, 63, 0
4, 233839, Note_on_c, 9, 59, 0
4, 234215, Note_on_c, 9, 59, 37
4, 234280, Note_on_c, 9, 59, 0
4, 234662, Note_on_c, 9, 63, 36
4, 234725, Note_on_c, 9, 59, 76
4, 234786, Note_on_c, 9, 63, 0
4, 234856, Note_on_c, 9, 59, 0
4, 235174, Note_on_c, 9, 59, 37
4, 235181, Note_on_c, 9, 63, 40
4, 235244, Note_on_c, 9, 59, 0
4, 235315, Note_on_c, 9, 63, 0
4, 235713, Note_on_c, 9, 59, 80
4, 235853, Note_on_c, 9, 59, 0
4, 236184, Note_on_c, 9, 63, 42
4, 236290, Note_on_c, 9, 63, 0
4, 236650, Note_on_c, 9, 59, 58
4, 236824, Note_on_c, 9, 59, 0
4, 236935, Note_on_c, 9, 63, 40
4, 237066, Note_on_c, 9, 63, 0
4, 237352, Note_on_c, 9, 63, 29
4, 237424, Note_on_c, 9, 59, 31
4, 237452, Note_on_c, 9, 63, 0
4, 237486, Note_on_c, 9, 59, 0
4, 237558, Note_on_c, 9, 63, 40
4, 237594, Note_on_c, 9, 59, 58
4, 237678, Note_on_c, 9, 63, 0
4, 237818, Note_on_c, 9, 59, 0
4, 238540, Note_on_c, 9, 63, 40
4, 238552, Note_on_c, 9, 59, 63
4, 238658, Note_on_c, 9, 63, 0
4, 238680, Note_on_c, 9, 59, 0
4, 239024, Note_on_c, 9, 63, 45
4, 239146, Note_on_c, 9, 63, 0
4, 239530, Note_on_c, 9, 59, 71
4, 239679, Note_on_c, 9, 59, 0
4, 239962, Note_on_c, 9, 63, 45
4, 240078, Note_on_c, 9, 63, 0
4, 240476, Note_on_c, 9, 59, 80
4, 240657, Note_on_c, 9, 59, 0
4, 240729, Note_on_c, 9, 63, 38
4, 240851, Note_on_c, 9, 63, 0
4, 240912, Note_on_c, 9, 59, 33
4, 240977, Note_on_c, 9, 59, 0
4, 241180, Note_on_c, 9, 63, 44
4, 241299, Note_on_c, 9, 63, 0
4, 241401, Note_on_c, 9, 59, 62
4, 241574, Note_on_c, 9, 59, 0
4, 241633, Note_on_c, 9, 63, 33
4, 241681, Note_on_c, 9, 63, 0
4, 241867, Note_on_c, 9, 63, 38
4, 241878, Note_on_c, 9, 59, 24
4, 241935, Note_on_c, 9, 59, 0
4, 242037, Note_on_c, 9, 63, 0
4, 242314, Note_on_c, 9, 63, 34
4, 242364, Note_on_c, 9, 59, 74
4, 242384, Note_on_c, 9, 63, 0
4, 242503, Note_on_c, 9, 59, 0
4, 242613, Note_on_c, 9, 63, 40
4, 242745, Note_on_c, 9, 63, 0
4, 242816, Note_on_c, 9, 59, 36
4, 242882, Note_on_c, 9, 59, 0
4, 243068, Note_on_c, 9, 63, 39
4, 243166, Note_on_c, 9, 63, 0
4, 243299, Note_on_c, 9, 59, 71
4, 243328, Note_on_c, 9, 63, 47
4, 243442, Note_on_c, 9, 59, 0
4, 243510, Note_on_c, 9, 63, 0
4, 243798, Note_on_c, 9, 63, 25
4, 243883, Note_on_c, 9, 63, 0
4, 244091, Note_on_c, 9, 63, 42
4, 244234, Note_on_c, 9, 63, 0
4, 244293, Note_on_c, 9, 59, 78
4, 244427, Note_on_c, 9, 59, 0
4, 244787, Note_on_c, 9, 63, 46
4, 244987, Note_on_c, 9, 63, 0
4, 245062, Note_on_c, 9, 59, 29
4, 245125, Note_on_c, 9, 59, 0
4, 245202, Note_on_c, 9, 63, 40
4, 245235, Note_on_c, 9, 59, 62
4, 245390, Note_on_c, 9, 63, 0
4, 245448, Note_on_c, 9, 59, 0
4, 246178, Note_on_c, 9, 63, 36
4, 246227, Note_on_c, 9, 59, 74
4, 246311, Note_on_c, 9, 63, 0
4, 246378, Note_on_c, 9, 59, 0
4, 246682, Note_on_c, 9, 59, 26
4, 246699, Note_on_c, 9, 63, 41
4, 246734, Note_on_c, 9, 59, 0
4, 246845, Note_on_c, 9, 63, 0
4, 247175, Note_on_c, 9, 59, 80
4, 247340, Note_on_c, 9, 59, 0
4, 247655, Note_on_c, 9, 63, 40
4, 247762, Note_on_c, 9, 63, 0
4, 248061, Note_on_c, 9, 59, 53
4, 248115, Note_on_c, 9, 59, 0
4, 248409, Note_on_c, 9, 63, 39
4, 248558, Note_on_c, 9, 63, 0
4, 248694, Note_on_c, 9, 59, 67
4, 248855, Note_on_c, 9, 59, 0
4, 248884, Note_on_c, 9, 63, 28
4, 248947, Note_on_c, 9, 63, 0
4, 249090, Note_on_c, 9, 63, 37
4, 249222, Note_on_c, 9, 63, 0
4, 249468, Note_on_c, 9, 59, 61
4, 249622, Note_on_c, 9, 59, 0
4, 250056, Note_on_c, 9, 63, 36
4, 250121, Note_on_c, 9, 59, 76
4, 250174, Note_on_c, 9, 63, 0
4, 250326, Note_on_c, 9, 59, 0
4, 250584, Note_on_c, 9, 63, 40
4, 250756, Note_on_c, 9, 63, 0
4, 251043, Note_on_c, 9, 59, 71
4, 251175, Note_on_c, 9, 59, 0
4, 251521, Note_on_c, 9, 59, 26
4, 251526, Note_on_c, 9, 63, 39
4, 251580, Note_on_c, 9, 59, 0
4, 251656, Note_on_c, 9, 63, 0
4, 251988, Note_on_c, 9, 59, 79
4, 252122, Note_on_c, 9, 59, 0
4, 252258, Note_on_c, 9, 63, 36
4, 252413, Note_on_c, 9, 59, 32
4, 252420, Note_on_c, 9, 63, 0
4, 252478, Note_on_c, 9, 59, 0
4, 252697, Note_on_c, 9, 63, 30
4, 252780, Note_on_c, 9, 63, 0
4, 252875, Note_on_c, 9, 59, 72
4, 252896, Note_on_c, 9, 63, 38
4, 252983, Note_on_c, 9, 59, 0
4, 253025, Note_on_c, 9, 63, 0
4, 253359, Note_on_c, 9, 59, 33
4, 253425, Note_on_c, 9, 59, 0
4, 253878, Note_on_c, 9, 63, 42
4, 253898, Note_on_c, 9, 59, 70
4, 254003, Note_on_c, 9, 63, 0
4, 254042, Note_on_c, 9, 59, 0
4, 254406, Note_on_c, 9, 63, 42
4, 254552, Note_on_c, 9, 63, 0
4, 254835, Note_on_c, 9, 59, 74
4, 254997, Note_on_c, 9, 59, 0
4, 255372, Note_on_c, 9, 63, 38
4, 255529, Note_on_c, 9, 63, 0
4, 255820, Note_on_c, 9, 59, 67
4, 255952, Note_on_c, 9, 59, 0
4, 256113, Note_on_c, 9, 63, 42
4, 256245, Note_on_c, 9, 63, 0
4, 256570, Note_on_c, 9, 63, 28
4, 256638, Note_on_c, 9, 63, 0
4, 256755, Note_on_c, 9, 59, 69
4, 256792, Note_on_c, 9, 63, 34
4, 256897, Note_on_c, 9, 63, 0
4, 256913, Note_on_c, 9, 59, 0
4, 257713, Note_on_c, 9, 59, 72
4, 257750, Note_on_c, 9, 63, 36
4, 257859, Note_on_c, 9, 63, 0
4, 257864, Note_on_c, 9, 59, 0
4, 258258, Note_on_c, 9, 63, 36
4, 258395, Note_on_c, 9, 63, 0
4, 258656, Note_on_c, 9, 59, 70
4, 258810, Note_on_c, 9, 59, 0
4, 259129, Note_on_c, 9, 59, 35
4, 259195, Note_on_c, 9, 59, 0
4, 259216, Note_on_c, 9, 63, 36
4, 259291, Note_on_c, 9, 63, 0
4, 259672, Note_on_c, 9, 59, 74
4, 259816, Note_on_c, 9, 59, 0
4, 259953, Note_on_c, 9, 63, 36
4, 260084, Note_on_c, 9, 63, 0
4, 260417, Note_on_c, 9, 63, 28
4, 260486, Note_on_c, 9, 63, 0
4, 260628, Note_on_c, 9, 63, 37
4, 260628, Note_on_c, 9, 59, 49
4, 260731, Note_on_c, 9, 63, 0
4, 260760, Note_on_c, 9, 59, 0
4, 261079, Note_on_c, 9, 59, 37
4, 261162, Note_on_c, 9, 59, 0
4, 261586, Note_on_c, 9, 59, 80
4, 261606, Note_on_c, 9, 63, 34
4, 261714, Note_on_c, 9, 63, 0
4, 261758, Note_on_c, 9, 59, 0
4, 262082, Note_on_c, 9, 59, 24
4, 262094, Note_on_c, 9, 63, 36
4, 262147, Note_on_c, 9, 59, 0
4, 262257, Note_on_c, 9, 63, 0
4, 262510, Note_on_c, 9, 59, 67
4, 262720, Note_on_c, 9, 59, 0
4, 263099, Note_on_c, 9, 63, 33
4, 263199, Note_on_c, 9, 63, 0
4, 263483, Note_on_c, 9, 59, 57
4, 263620, Note_on_c, 9, 59, 0
4, 263814, Note_on_c, 9, 63, 36
4, 263979, Note_on_c, 9, 63, 0
4, 264293, Note_on_c, 9, 63, 22
4, 264358, Note_on_c, 9, 63, 0
4, 264421, Note_on_c, 9, 59, 63
4, 264470, Note_on_c, 9, 63, 32
4, 264603, Note_on_c, 9, 63, 0
4, 264603, Note_on_c, 9, 59, 0
4, 265419, Note_on_c, 9, 63, 29
4, 265420, Note_on_c, 9, 59, 72
4, 265563, Note_on_c, 9, 63, 0
4, 265602, Note_on_c, 9, 59, 0
4, 265923, Note_on_c, 9, 63, 31
4, 266146, Note_on_c, 9, 63, 0
4, 266181, Note_on_c, 9, 59, 44
4, 266247, Note_on_c, 9, 59, 0
4, 266360, Note_on_c, 9, 59, 58
4, 266626, Note_on_c, 9, 59, 0
4, 266704, Note_on_c, 9, 63, 26
4, 266760, Note_on_c, 9, 63, 0
4, 266869, Note_on_c, 9, 63, 31
4, 266996, Note_on_c, 9, 63, 0
4, 267351, Note_on_c, 9, 59, 75
4, 267550, Note_on_c, 9, 59, 0
4, 267556, Note_on_c, 9, 63, 31
4, 267618, Note_on_c, 9, 63, 0
4, 267779, Note_on_c, 9, 63, 24
4, 267900, Note_on_c, 9, 63, 0
4, 268252, Note_on_c, 9, 63, 37
4, 268279, Note_on_c, 9, 59, 71
4, 268360, Note_on_c, 9, 63, 0
4, 268491, Note_on_c, 9, 59, 0
4, 269219, Note_on_c, 9, 63, 36
4, 269240, Note_on_c, 9, 59, 76
4, 269350, Note_on_c, 9, 63, 0
4, 269408, Note_on_c, 9, 59, 0
4, 269742, Note_on_c, 9, 63, 34
4, 269906, Note_on_c, 9, 63, 0
4, 270183, Note_on_c, 9, 59, 70
4, 270350, Note_on_c, 9, 59, 0
4, 270471, Note_on_c, 9, 63, 37
4, 270583, Note_on_c, 9, 63, 0
4, 270952, Note_on_c, 9, 63, 38
4, 271104, Note_on_c, 9, 63, 0
4, 271146, Note_on_c, 9, 59, 63
4, 271341, Note_on_c, 9, 59, 0
4, 271431, Note_on_c, 9, 63, 20
4, 271486, Note_on_c, 9, 63, 0
4, 271603, Note_on_c, 9, 63, 31
4, 271747, Note_on_c, 9, 63, 0
4, 271973, Note_on_c, 9, 59, 53
4, 272170, Note_on_c, 9, 59, 0
4, 273082, Note_on_c, 9, 63, 33
4, 273099, Note_on_c, 9, 65, 31
4, 273155, Note_on_c, 9, 63, 0
4, 273156, Note_on_c, 9, 59, 74
4, 273164, Note_on_c, 9, 65, 0
4, 273307, Note_on_c, 9, 59, 0
4, 273568, Note_on_c, 9, 63, 38
4, 273735, Note_on_c, 9, 63, 0
4, 273833, Note_on_c, 9, 65, 32
4, 273928, Note_on_c, 9, 65, 0
4, 273937, Note_on_c, 9, 59, 37
4, 274000, Note_on_c, 9, 59, 0
4, 274139, Note_on_c, 9, 59, 44
4, 274253, Note_on_c, 9, 59, 0
4, 274516, Note_on_c, 9, 65, 35
4, 274531, Note_on_c, 9, 65, 31
4, 274572, Note_on_c, 9, 63, 38
4, 274615, Note_on_c, 9, 59, 54
4, 274654, Note_on_c, 9, 65, 0
4, 274672, Note_on_c, 9, 59, 0
4, 274677, Note_on_c, 9, 63, 0
4, 274697, Note_on_c, 9, 65, 0
4, 275011, Note_on_c, 9, 65, 37
4, 275074, Note_on_c, 9, 59, 66
4, 275187, Note_on_c, 9, 59, 0
4, 275221, Note_on_c, 9, 65, 0
4, 275324, Note_on_c, 9, 63, 42
4, 275483, Note_on_c, 9, 63, 0
4, 275767, Note_on_c, 9, 63, 37
4, 275802, Note_on_c, 9, 59, 61
4, 275856, Note_on_c, 9, 59, 0
4, 275871, Note_on_c, 9, 63, 0
4, 275969, Note_on_c, 9, 63, 40
4, 275988, Note_on_c, 9, 59, 64
4, 276077, Note_on_c, 9, 63, 0
4, 276143, Note_on_c, 9, 59, 0
4, 276505, Note_on_c, 9, 59, 26
4, 276788, Note_on_c, 9, 59, 0
4, 276961, Note_on_c, 9, 44, 47
4, 276972, Note_on_c, 9, 63, 30
4, 277021, Note_on_c, 9, 59, 64
4, 277096, Note_on_c, 9, 63, 0
4, 277181, Note_on_c, 9, 44, 0
4, 277317, Note_on_c, 9, 59, 0
4, 277463, Note_on_c, 9, 63, 28
4, 277493, Note_on_c, 9, 59, 29
4, 277701, Note_on_c, 9, 63, 0
4, 277776, Note_on_c, 9, 59, 0
4, 277921, Note_on_c, 9, 44, 34
4, 277976, Note_on_c, 9, 59, 74
4, 278088, Note_on_c, 9, 44, 0
4, 278237, Note_on_c, 9, 59, 0
4, 278445, Note_on_c, 9, 63, 27
4, 278542, Note_on_c, 9, 63, 0
4, 278881, Note_on_c, 9, 44, 23
4, 278940, Note_on_c, 9, 59, 78
4, 279108, Note_on_c, 9, 44, 0
4, 279177, Note_on_c, 9, 63, 27
4, 279190, Note_on_c, 9, 59, 0
4, 279394, Note_on_c, 9, 63, 0
4, 279444, Note_on_c, 9, 59, 24
4, 279619, Note_on_c, 9, 63, 25
4, 279623, Note_on_c, 9, 59, 0
4, 279747, Note_on_c, 9, 63, 0
4, 279841, Note_on_c, 9, 44, 37
4, 279852, Note_on_c, 9, 63, 20
4, 279890, Note_on_c, 9, 59, 78
4, 280039, Note_on_c, 9, 44, 0
4, 280074, Note_on_c, 9, 63, 0
4, 280153, Note_on_c, 9, 59, 0
4, 280384, Note_on_c, 9, 59, 34
4, 280481, Note_on_c, 9, 59, 0
4, 280801, Note_on_c, 9, 46, 33
4, 280853, Note_on_c, 9, 59, 89
4, 280864, Note_on_c, 9, 63, 30
4, 280978, Note_on_c, 9, 63, 0
4, 280994, Note_on_c, 9, 46, 0
4, 281084, Note_on_c, 9, 59, 0
4, 281362, Note_on_c, 9, 59, 33
4, 281391, Note_on_c, 9, 63, 31
4, 281462, Note_on_c, 9, 59, 0
4, 281518, Note_on_c, 9, 63, 0
4, 281761, Note_on_c, 9, 44, 26
4, 281827, Note_on_c, 9, 59, 78
4, 281903, Note_on_c, 9, 44, 0
4, 282079, Note_on_c, 9, 59, 0
4, 282299, Note_on_c, 9, 59, 31
4, 282337, Note_on_c, 9, 63, 32
4, 282451, Note_on_c, 9, 63, 0
4, 282498, Note_on_c, 9, 59, 0
4, 282721, Note_on_c, 9, 44, 36
4, 282739, Note_on_c, 9, 59, 73
4, 282866, Note_on_c, 9, 44, 0
4, 282916, Note_on_c, 9, 59, 0
4, 283042, Note_on_c, 9, 63, 32
4, 283081, Note_on_c, 9, 59, 43
4, 283099, Note_on_c, 9, 63, 0
4, 283149, Note_on_c, 9, 59, 0
4, 283251, Note_on_c, 9, 59, 60
4, 283517, Note_on_c, 9, 63, 21
4, 283522, Note_on_c, 9, 59, 0
4, 283599, Note_on_c, 9, 63, 0
4, 283681, Note_on_c, 9, 44, 32
4, 283695, Note_on_c, 9, 63, 16
4, 283739, Note_on_c, 9, 59, 35
4, 283780, Note_on_c, 9, 44, 0
4, 283812, Note_on_c, 9, 59, 0
4, 283900, Note_on_c, 9, 63, 0
4, 284599, Note_on_c, 9, 59, 80
4, 284641, Note_on_c, 9, 44, 34
4, 284669, Note_on_c, 9, 63, 31
4, 284750, Note_on_c, 9, 44, 0
4, 284775, Note_on_c, 9, 63, 0
4, 284859, Note_on_c, 9, 59, 0
4, 285145, Note_on_c, 9, 63, 27
4, 285153, Note_on_c, 9, 59, 38
4, 285272, Note_on_c, 9, 63, 0
4, 285368, Note_on_c, 9, 59, 0
4, 285601, Note_on_c, 9, 44, 35
4, 285622, Note_on_c, 9, 59, 81
4, 285757, Note_on_c, 9, 44, 0
4, 285871, Note_on_c, 9, 59, 0
4, 286095, Note_on_c, 9, 59, 40
4, 286119, Note_on_c, 9, 63, 35
4, 286189, Note_on_c, 9, 59, 0
4, 286241, Note_on_c, 9, 63, 0
4, 286561, Note_on_c, 9, 44, 25
4, 286588, Note_on_c, 9, 59, 85
4, 286672, Note_on_c, 9, 44, 0
4, 286829, Note_on_c, 9, 59, 0
4, 286848, Note_on_c, 9, 63, 28
4, 286922, Note_on_c, 9, 63, 0
4, 287084, Note_on_c, 9, 59, 42
4, 287165, Note_on_c, 9, 59, 0
4, 287349, Note_on_c, 9, 63, 24
4, 287412, Note_on_c, 9, 63, 0
4, 287517, Note_on_c, 9, 63, 24
4, 287521, Note_on_c, 9, 44, 35
4, 287533, Note_on_c, 9, 59, 87
4, 287650, Note_on_c, 9, 44, 0
4, 287697, Note_on_c, 9, 63, 0
4, 287724, Note_on_c, 9, 59, 0
4, 287876, Note_on_c, 9, 59, 49
4, 287955, Note_on_c, 9, 59, 0
4, 288089, Note_on_c, 9, 59, 61
4, 288172, Note_on_c, 9, 59, 0
4, 288481, Note_on_c, 9, 44, 28
4, 288497, Note_on_c, 9, 59, 74
4, 288525, Note_on_c, 9, 63, 31
4, 288580, Note_on_c, 9, 63, 0
4, 288605, Note_on_c, 9, 44, 0
4, 288639, Note_on_c, 9, 59, 0
4, 289013, Note_on_c, 9, 63, 38
4, 289036, Note_on_c, 9, 59, 25
4, 289145, Note_on_c, 9, 59, 0
4, 289153, Note_on_c, 9, 63, 0
4, 289296, Note_on_c, 9, 63, 17
4, 289434, Note_on_c, 9, 63, 0
4, 289441, Note_on_c, 9, 44, 30
4, 289456, Note_on_c, 9, 59, 79
4, 289579, Note_on_c, 9, 44, 0
4, 289688, Note_on_c, 9, 59, 0
4, 289772, Note_on_c, 9, 63, 39
4, 289823, Note_on_c, 9, 63, 0
4, 289938, Note_on_c, 9, 59, 27
4, 290041, Note_on_c, 9, 59, 0
4, 290219, Note_on_c, 9, 63, 34
4, 290315, Note_on_c, 9, 63, 0
4, 290401, Note_on_c, 9, 44, 35
4, 290415, Note_on_c, 9, 59, 77
4, 290544, Note_on_c, 9, 44, 0
4, 290596, Note_on_c, 9, 59, 0
4, 290712, Note_on_c, 9, 63, 24
4, 290743, Note_on_c, 9, 59, 46
4, 290776, Note_on_c, 9, 63, 0
4, 290827, Note_on_c, 9, 59, 0
4, 290888, Note_on_c, 9, 63, 35
4, 290958, Note_on_c, 9, 59, 15
4, 291024, Note_on_c, 9, 63, 0
4, 291050, Note_on_c, 9, 59, 0
4, 291342, Note_on_c, 9, 59, 70
4, 291361, Note_on_c, 9, 44, 28
4, 291524, Note_on_c, 9, 44, 0
4, 291531, Note_on_c, 9, 59, 0
4, 291659, Note_on_c, 9, 59, 47
4, 291729, Note_on_c, 9, 59, 0
4, 292251, Note_on_c, 9, 59, 75
4, 292276, Note_on_c, 9, 63, 30
4, 292321, Note_on_c, 9, 44, 28
4, 292399, Note_on_c, 9, 63, 0
4, 292491, Note_on_c, 9, 59, 0
4, 292504, Note_on_c, 9, 44, 0
4, 292784, Note_on_c, 9, 59, 41
4, 292789, Note_on_c, 9, 63, 37
4, 292861, Note_on_c, 9, 59, 0
4, 292906, Note_on_c, 9, 63, 0
4, 293270, Note_on_c, 9, 59, 84
4, 293281, Note_on_c, 9, 44, 31
4, 293384, Note_on_c, 9, 44, 0
4, 293495, Note_on_c, 9, 59, 0
4, 293702, Note_on_c, 9, 63, 30
4, 293863, Note_on_c, 9, 63, 0
4, 294237, Note_on_c, 9, 59, 81
4, 294241, Note_on_c, 9, 44, 21
4, 294318, Note_on_c, 9, 44, 0
4, 294432, Note_on_c, 9, 63, 21
4, 294497, Note_on_c, 9, 59, 0
4, 294674, Note_on_c, 9, 63, 0
4, 294742, Note_on_c, 9, 59, 33
4, 294828, Note_on_c, 9, 59, 0
4, 294883, Note_on_c, 9, 63, 17
4, 294946, Note_on_c, 9, 63, 0
4, 295076, Note_on_c, 9, 63, 23
4, 295201, Note_on_c, 9, 44, 38
4, 295206, Note_on_c, 9, 59, 80
4, 295329, Note_on_c, 9, 44, 0
4, 295338, Note_on_c, 9, 63, 0
4, 295478, Note_on_c, 9, 59, 0
4, 295735, Note_on_c, 9, 59, 28
4, 295869, Note_on_c, 9, 59, 0
4, 296115, Note_on_c, 9, 63, 24
4, 296152, Note_on_c, 9, 59, 77
4, 296161, Note_on_c, 9, 44, 32
4, 296254, Note_on_c, 9, 44, 0
4, 296254, Note_on_c, 9, 63, 0
4, 296276, Note_on_c, 9, 59, 0
4, 296438, Note_on_c, 9, 59, 69
4, 296575, Note_on_c, 9, 59, 0
4, 296637, Note_on_c, 9, 63, 35
4, 296641, Note_on_c, 9, 59, 45
4, 296801, Note_on_c, 9, 63, 0
4, 296803, Note_on_c, 9, 59, 0
4, 297065, Note_on_c, 9, 53, 53
4, 297105, Note_on_c, 9, 59, 87
4, 297121, Note_on_c, 9, 44, 32
4, 297180, Note_on_c, 9, 53, 0
4, 297223, Note_on_c, 9, 44, 0
4, 297410, Note_on_c, 9, 59, 0
4, 297588, Note_on_c, 9, 59, 36
4, 297622, Note_on_c, 9, 63, 35
4, 297706, Note_on_c, 9, 59, 0
4, 297738, Note_on_c, 9, 63, 0
4, 297923, Note_on_c, 9, 59, 75
4, 298081, Note_on_c, 9, 44, 31
4, 298196, Note_on_c, 9, 44, 0
4, 298330, Note_on_c, 9, 59, 0
4, 298363, Note_on_c, 9, 63, 34
4, 298530, Note_on_c, 9, 63, 0
4, 298553, Note_on_c, 9, 59, 67
4, 298658, Note_on_c, 9, 59, 0
4, 298837, Note_on_c, 9, 63, 23
4, 298893, Note_on_c, 9, 63, 0
4, 299004, Note_on_c, 9, 59, 81
4, 299008, Note_on_c, 9, 63, 31
4, 299041, Note_on_c, 9, 46, 25
4, 299162, Note_on_c, 9, 63, 0
4, 299173, Note_on_c, 9, 46, 0
4, 299275, Note_on_c, 9, 59, 0
4, 299500, Note_on_c, 9, 59, 39
4, 299581, Note_on_c, 9, 59, 0
4, 299986, Note_on_c, 9, 59, 85
4, 300001, Note_on_c, 9, 44, 25
4, 300029, Note_on_c, 9, 63, 31
4, 300100, Note_on_c, 9, 44, 0
4, 300179, Note_on_c, 9, 63, 0
4, 300246, Note_on_c, 9, 59, 0
4, 300457, Note_on_c, 9, 59, 45
4, 300526, Note_on_c, 9, 59, 0
4, 300764, Note_on_c, 9, 63, 30
4, 300866, Note_on_c, 9, 63, 0
4, 300961, Note_on_c, 9, 44, 29
4, 300969, Note_on_c, 9, 59, 94
4, 301042, Note_on_c, 9, 44, 0
4, 301242, Note_on_c, 9, 59, 0
4, 301450, Note_on_c, 9, 59, 31
4, 301465, Note_on_c, 9, 63, 32
4, 301546, Note_on_c, 9, 59, 0
4, 301631, Note_on_c, 9, 63, 0
4, 301921, Note_on_c, 9, 44, 31
4, 301943, Note_on_c, 9, 59, 75
4, 302005, Note_on_c, 9, 44, 0
4, 302071, Note_on_c, 9, 59, 0
4, 302241, Note_on_c, 9, 59, 71
4, 302243, Note_on_c, 9, 63, 23
4, 302309, Note_on_c, 9, 63, 0
4, 302401, Note_on_c, 9, 59, 0
4, 302402, Note_on_c, 9, 63, 20
4, 302491, Note_on_c, 9, 59, 47
4, 302597, Note_on_c, 9, 63, 0
4, 302617, Note_on_c, 9, 59, 0
4, 302712, Note_on_c, 9, 63, 23
4, 302806, Note_on_c, 9, 63, 0
4, 302879, Note_on_c, 9, 63, 17
4, 302881, Note_on_c, 9, 46, 23
4, 302893, Note_on_c, 9, 59, 85
4, 302980, Note_on_c, 9, 46, 0
4, 303002, Note_on_c, 9, 63, 0
4, 303167, Note_on_c, 9, 59, 0
4, 303351, Note_on_c, 9, 59, 36
4, 303428, Note_on_c, 9, 59, 0
4, 303803, Note_on_c, 9, 59, 80
4, 303841, Note_on_c, 9, 44, 20
4, 303851, Note_on_c, 9, 63, 34
4, 303915, Note_on_c, 9, 44, 0
4, 303917, Note_on_c, 9, 63, 0
4, 304036, Note_on_c, 9, 59, 0
4, 304138, Note_on_c, 9, 59, 64
4, 304333, Note_on_c, 9, 63, 33
4, 304444, Note_on_c, 9, 63, 0
4, 304471, Note_on_c, 9, 59, 0
4, 304758, Note_on_c, 9, 59, 79
4, 304801, Note_on_c, 9, 44, 21
4, 304868, Note_on_c, 9, 44, 0
4, 305007, Note_on_c, 9, 59, 0
4, 305039, Note_on_c, 9, 63, 31
4, 305198, Note_on_c, 9, 63, 0
4, 305258, Note_on_c, 9, 59, 36
4, 305347, Note_on_c, 9, 59, 0
4, 305501, Note_on_c, 9, 63, 24
4, 305674, Note_on_c, 9, 63, 0
4, 305715, Note_on_c, 9, 59, 81
4, 305761, Note_on_c, 9, 44, 21
4, 305835, Note_on_c, 9, 44, 0
4, 305941, Note_on_c, 9, 59, 0
4, 306193, Note_on_c, 9, 59, 36
4, 306194, Note_on_c, 9, 63, 31
4, 306271, Note_on_c, 9, 59, 0
4, 306407, Note_on_c, 9, 63, 0
4, 306653, Note_on_c, 9, 63, 33
4, 306665, Note_on_c, 9, 59, 89
4, 306721, Note_on_c, 9, 44, 21
4, 306735, Note_on_c, 9, 63, 0
4, 306802, Note_on_c, 9, 44, 0
4, 306917, Note_on_c, 9, 59, 0
4, 306946, Note_on_c, 9, 63, 36
4, 307102, Note_on_c, 9, 63, 0
4, 307174, Note_on_c, 9, 59, 34
4, 307249, Note_on_c, 9, 59, 0
4, 307602, Note_on_c, 9, 63, 42
4, 307645, Note_on_c, 9, 59, 80
4, 307681, Note_on_c, 9, 44, 28
4, 307736, Note_on_c, 9, 63, 0
4, 307776, Note_on_c, 9, 44, 0
4, 307795, Note_on_c, 9, 59, 0
4, 307973, Note_on_c, 9, 59, 62
4, 308096, Note_on_c, 9, 63, 33
4, 308157, Note_on_c, 9, 59, 0
4, 308295, Note_on_c, 9, 63, 0
4, 308562, Note_on_c, 9, 59, 70
4, 308641, Note_on_c, 9, 44, 37
4, 308682, Note_on_c, 9, 59, 0
4, 308789, Note_on_c, 9, 44, 0
4, 309008, Note_on_c, 9, 59, 44
4, 309025, Note_on_c, 9, 63, 34
4, 309078, Note_on_c, 9, 59, 0
4, 309206, Note_on_c, 9, 63, 0
4, 309475, Note_on_c, 9, 59, 79
4, 309476, Note_on_c, 9, 53, 53
4, 309601, Note_on_c, 9, 44, 29
4, 309632, Note_on_c, 9, 53, 0
4, 309684, Note_on_c, 9, 59, 0
4, 309826, Note_on_c, 9, 63, 33
4, 309843, Note_on_c, 9, 44, 0
4, 310009, Note_on_c, 9, 59, 33
4, 310013, Note_on_c, 9, 63, 0
4, 310102, Note_on_c, 9, 59, 0
4, 310163, Note_on_c, 9, 53, 49
4, 310315, Note_on_c, 9, 63, 25
4, 310377, Note_on_c, 9, 63, 0
4, 310468, Note_on_c, 9, 53, 0
4, 310479, Note_on_c, 9, 59, 68
4, 310500, Note_on_c, 9, 63, 25
4, 310561, Note_on_c, 9, 44, 31
4, 310628, Note_on_c, 9, 59, 0
4, 310644, Note_on_c, 9, 44, 0
4, 310695, Note_on_c, 9, 63, 0
4, 310815, Note_on_c, 9, 59, 42
4, 310883, Note_on_c, 9, 59, 0
4, 311038, Note_on_c, 9, 59, 49
4, 311111, Note_on_c, 9, 59, 0
4, 311515, Note_on_c, 9, 59, 71
4, 311521, Note_on_c, 9, 44, 32
4, 311535, Note_on_c, 9, 63, 30
4, 311610, Note_on_c, 9, 44, 0
4, 311647, Note_on_c, 9, 59, 0
4, 311664, Note_on_c, 9, 63, 0
4, 312047, Note_on_c, 9, 63, 35
4, 312196, Note_on_c, 9, 63, 0
4, 312481, Note_on_c, 9, 44, 38
4, 312484, Note_on_c, 9, 59, 79
4, 312625, Note_on_c, 9, 44, 0
4, 312703, Note_on_c, 9, 59, 0
4, 312888, Note_on_c, 9, 59, 31
4, 312963, Note_on_c, 9, 59, 0
4, 313015, Note_on_c, 9, 63, 34
4, 313143, Note_on_c, 9, 63, 0
4, 313441, Note_on_c, 9, 44, 34
4, 313449, Note_on_c, 9, 59, 73
4, 313562, Note_on_c, 9, 44, 0
4, 313588, Note_on_c, 9, 59, 0
4, 313764, Note_on_c, 9, 59, 44
4, 313766, Note_on_c, 9, 63, 32
4, 313831, Note_on_c, 9, 59, 0
4, 313955, Note_on_c, 9, 59, 49
4, 313956, Note_on_c, 9, 63, 0
4, 314086, Note_on_c, 9, 59, 0
4, 314218, Note_on_c, 9, 63, 17
4, 314265, Note_on_c, 9, 63, 0
4, 314377, Note_on_c, 9, 63, 31
4, 314401, Note_on_c, 9, 44, 37
4, 314433, Note_on_c, 9, 59, 69
4, 314502, Note_on_c, 9, 44, 0
4, 314557, Note_on_c, 9, 63, 0
4, 314566, Note_on_c, 9, 59, 0
4, 314913, Note_on_c, 9, 59, 34
4, 315005, Note_on_c, 9, 59, 0
4, 315361, Note_on_c, 9, 44, 37
4, 315379, Note_on_c, 9, 59, 74
4, 315404, Note_on_c, 9, 63, 33
4, 315542, Note_on_c, 9, 44, 0
4, 315548, Note_on_c, 9, 63, 0
4, 315560, Note_on_c, 9, 59, 0
4, 315705, Note_on_c, 9, 59, 40
4, 315773, Note_on_c, 9, 59, 0
4, 315886, Note_on_c, 9, 59, 54
4, 315908, Note_on_c, 9, 63, 35
4, 316028, Note_on_c, 9, 59, 0
4, 316075, Note_on_c, 9, 63, 0
4, 316321, Note_on_c, 9, 44, 36
4, 316352, Note_on_c, 9, 59, 79
4, 316420, Note_on_c, 9, 44, 0
4, 316524, Note_on_c, 9, 59, 0
4, 316879, Note_on_c, 9, 63, 38
4, 317011, Note_on_c, 9, 63, 0
4, 317281, Note_on_c, 9, 44, 31
4, 317307, Note_on_c, 9, 59, 70
4, 317388, Note_on_c, 9, 44, 0
4, 317475, Note_on_c, 9, 59, 0
4, 317641, Note_on_c, 9, 63, 38
4, 317770, Note_on_c, 9, 63, 0
4, 317788, Note_on_c, 9, 59, 50
4, 317859, Note_on_c, 9, 59, 0
4, 318106, Note_on_c, 9, 63, 30
4, 318241, Note_on_c, 9, 44, 34
4, 318245, Note_on_c, 9, 63, 0
4, 318255, Note_on_c, 9, 59, 82
4, 318359, Note_on_c, 9, 44, 0
4, 318414, Note_on_c, 9, 59, 0
4, 318497, Note_on_c, 9, 63, 34
4, 318545, Note_on_c, 9, 63, 0
4, 318755, Note_on_c, 9, 59, 33
4, 318784, Note_on_c, 9, 63, 38
4, 318835, Note_on_c, 9, 59, 0
4, 319021, Note_on_c, 9, 63, 0
4, 319066, Note_on_c, 9, 59, 55
4, 319146, Note_on_c, 9, 59, 0
4, 319201, Note_on_c, 9, 44, 39
4, 319254, Note_on_c, 9, 59, 67
4, 319292, Note_on_c, 9, 44, 0
4, 319406, Note_on_c, 9, 59, 0
4, 319586, Note_on_c, 9, 63, 38
4, 319736, Note_on_c, 9, 59, 68
4, 319766, Note_on_c, 9, 63, 0
4, 319902, Note_on_c, 9, 59, 0
4, 320161, Note_on_c, 9, 44, 34
4, 320198, Note_on_c, 9, 59, 45
4, 320260, Note_on_c, 9, 63, 41
4, 320264, Note_on_c, 9, 44, 0
4, 320269, Note_on_c, 9, 59, 0
4, 320490, Note_on_c, 9, 63, 0
4, 320531, Note_on_c, 9, 59, 62
4, 320592, Note_on_c, 9, 59, 0
4, 320708, Note_on_c, 9, 59, 62
4, 320862, Note_on_c, 9, 59, 0
4, 321121, Note_on_c, 9, 44, 36
4, 321183, Note_on_c, 9, 63, 38
4, 321195, Note_on_c, 9, 59, 47
4, 321222, Note_on_c, 9, 44, 0
4, 321264, Note_on_c, 9, 59, 0
4, 321297, Note_on_c, 9, 63, 0
4, 321629, Note_on_c, 9, 59, 41
4, 321680, Note_on_c, 9, 63, 40
4, 321702, Note_on_c, 9, 59, 0
4, 321841, Note_on_c, 9, 63, 0
4, 322081, Note_on_c, 9, 46, 23
4, 322109, Note_on_c, 9, 59, 87
4, 322153, Note_on_c, 9, 46, 0
4, 322319, Note_on_c, 9, 59, 0
4, 322576, Note_on_c, 9, 59, 47
4, 322630, Note_on_c, 9, 63, 37
4, 322649, Note_on_c, 9, 59, 0
4, 322770, Note_on_c, 9, 63, 0
4, 323041, Note_on_c, 9, 44, 28
4, 323069, Note_on_c, 9, 59, 88
4, 323122, Note_on_c, 9, 44, 0
4, 323257, Note_on_c, 9, 59, 0
4, 323333, Note_on_c, 9, 63, 36
4, 323467, Note_on_c, 9, 63, 0
4, 323543, Note_on_c, 9, 59, 42
4, 323609, Note_on_c, 9, 59, 0
4, 323992, Note_on_c, 9, 59, 80
4, 324001, Note_on_c, 9, 44, 37
4, 324011, Note_on_c, 9, 63, 44
4, 324144, Note_on_c, 9, 44, 0
4, 324221, Note_on_c, 9, 63, 0
4, 324239, Note_on_c, 9, 59, 0
4, 324462, Note_on_c, 9, 59, 30
4, 324534, Note_on_c, 9, 63, 38
4, 324537, Note_on_c, 9, 59, 0
4, 324725, Note_on_c, 9, 63, 0
4, 324937, Note_on_c, 9, 59, 80
4, 324961, Note_on_c, 9, 44, 36
4, 325109, Note_on_c, 9, 44, 0
4, 325136, Note_on_c, 9, 59, 0
4, 325409, Note_on_c, 9, 59, 36
4, 325439, Note_on_c, 9, 63, 36
4, 325485, Note_on_c, 9, 59, 0
4, 325611, Note_on_c, 9, 63, 0
4, 325912, Note_on_c, 9, 59, 74
4, 325921, Note_on_c, 9, 44, 39
4, 326029, Note_on_c, 9, 44, 0
4, 326136, Note_on_c, 9, 59, 0
4, 326146, Note_on_c, 9, 63, 38
4, 326293, Note_on_c, 9, 63, 0
4, 326363, Note_on_c, 9, 59, 29
4, 326437, Note_on_c, 9, 59, 0
4, 326823, Note_on_c, 9, 59, 71
4, 326836, Note_on_c, 9, 63, 37
4, 326881, Note_on_c, 9, 44, 30
4, 326953, Note_on_c, 9, 59, 0
4, 326972, Note_on_c, 9, 44, 0
4, 327061, Note_on_c, 9, 63, 0
4, 327064, Note_on_c, 9, 59, 65
4, 327216, Note_on_c, 9, 59, 0
4, 327332, Note_on_c, 9, 59, 50
4, 327423, Note_on_c, 9, 59, 0
4, 327569, Note_on_c, 9, 63, 23
4, 327670, Note_on_c, 9, 63, 0
4, 327755, Note_on_c, 9, 63, 23
4, 327777, Note_on_c, 9, 59, 84
4, 327841, Note_on_c, 9, 44, 38
4, 327872, Note_on_c, 9, 63, 0
4, 327949, Note_on_c, 9, 44, 0
4, 328014, Note_on_c, 9, 59, 0
4, 328234, Note_on_c, 9, 59, 31
4, 328240, Note_on_c, 9, 63, 40
4, 328329, Note_on_c, 9, 59, 0
4, 328357, Note_on_c, 9, 63, 0
4, 328719, Note_on_c, 9, 59, 77
4, 328801, Note_on_c, 9, 44, 37
4, 328936, Note_on_c, 9, 44, 0
4, 328942, Note_on_c, 9, 59, 0
4, 328995, Note_on_c, 9, 63, 28
4, 329075, Note_on_c, 9, 63, 0
4, 329187, Note_on_c, 9, 59, 38
4, 329265, Note_on_c, 9, 59, 0
4, 329659, Note_on_c, 9, 63, 31
4, 329682, Note_on_c, 9, 59, 82
4, 329745, Note_on_c, 9, 63, 0
4, 329761, Note_on_c, 9, 44, 33
4, 329836, Note_on_c, 9, 44, 0
4, 329860, Note_on_c, 9, 59, 0
4, 330168, Note_on_c, 9, 59, 53
4, 330238, Note_on_c, 9, 59, 0
4, 330639, Note_on_c, 9, 63, 37
4, 330682, Note_on_c, 9, 59, 74
4, 330707, Note_on_c, 9, 63, 0
4, 330721, Note_on_c, 9, 44, 35
4, 330742, Note_on_c, 9, 53, 29
4, 330790, Note_on_c, 9, 44, 0
4, 330875, Note_on_c, 9, 59, 0
4, 330959, Note_on_c, 9, 53, 0
4, 331140, Note_on_c, 9, 63, 32
4, 331149, Note_on_c, 9, 59, 36
4, 331227, Note_on_c, 9, 59, 0
4, 331269, Note_on_c, 9, 63, 0
4, 331634, Note_on_c, 9, 59, 68
4, 331665, Note_on_c, 9, 53, 33
4, 331681, Note_on_c, 9, 44, 33
4, 331762, Note_on_c, 9, 44, 0
4, 331862, Note_on_c, 9, 59, 0
4, 331878, Note_on_c, 9, 53, 0
4, 332108, Note_on_c, 9, 63, 38
4, 332108, Note_on_c, 9, 59, 41
4, 332187, Note_on_c, 9, 59, 0
4, 332213, Note_on_c, 9, 63, 0
4, 332617, Note_on_c, 9, 59, 75
4, 332641, Note_on_c, 9, 44, 37
4, 332644, Note_on_c, 9, 53, 41
4, 332757, Note_on_c, 9, 44, 0
4, 332814, Note_on_c, 9, 59, 0
4, 332815, Note_on_c, 9, 53, 0
4, 332900, Note_on_c, 9, 63, 38
4, 333021, Note_on_c, 9, 63, 0
4, 333126, Note_on_c, 9, 59, 30
4, 333211, Note_on_c, 9, 59, 0
4, 333388, Note_on_c, 9, 63, 24
4, 333479, Note_on_c, 9, 63, 0
4, 333571, Note_on_c, 9, 63, 33
4, 333593, Note_on_c, 9, 53, 38
4, 333594, Note_on_c, 9, 59, 70
4, 333601, Note_on_c, 9, 44, 42
4, 333734, Note_on_c, 9, 63, 0
4, 333749, Note_on_c, 9, 44, 0
4, 333764, Note_on_c, 9, 59, 0
4, 333790, Note_on_c, 9, 53, 0
4, 334118, Note_on_c, 9, 59, 24
4, 334197, Note_on_c, 9, 59, 0
4, 334499, Note_on_c, 9, 65, 35
4, 334543, Note_on_c, 9, 63, 44
4, 334550, Note_on_c, 9, 65, 0
4, 334561, Note_on_c, 9, 44, 36
4, 334567, Note_on_c, 9, 59, 74
4, 334653, Note_on_c, 9, 63, 0
4, 334694, Note_on_c, 9, 44, 0
4, 334771, Note_on_c, 9, 59, 0
4, 335026, Note_on_c, 9, 63, 45
4, 335078, Note_on_c, 9, 59, 29
4, 335151, Note_on_c, 9, 59, 0
4, 335152, Note_on_c, 9, 63, 0
4, 335242, Note_on_c, 9, 65, 35
4, 335341, Note_on_c, 9, 65, 0
4, 335521, Note_on_c, 9, 44, 33
4, 335527, Note_on_c, 9, 53, 42
4, 335540, Note_on_c, 9, 59, 77
4, 335645, Note_on_c, 9, 44, 0
4, 335708, Note_on_c, 9, 59, 0
4, 335771, Note_on_c, 9, 53, 0
4, 335979, Note_on_c, 9, 65, 36
4, 335992, Note_on_c, 9, 63, 38
4, 336047, Note_on_c, 9, 63, 0
4, 336052, Note_on_c, 9, 65, 0
4, 336481, Note_on_c, 9, 44, 29
4, 336485, Note_on_c, 9, 59, 80
4, 336487, Note_on_c, 9, 53, 40
4, 336574, Note_on_c, 9, 44, 0
4, 336673, Note_on_c, 9, 53, 0
4, 336676, Note_on_c, 9, 59, 0
4, 336681, Note_on_c, 9, 65, 38
4, 336735, Note_on_c, 9, 63, 36
4, 336747, Note_on_c, 9, 65, 0
4, 336826, Note_on_c, 9, 63, 0
4, 336994, Note_on_c, 9, 59, 37
4, 337067, Note_on_c, 9, 59, 0
4, 337204, Note_on_c, 9, 63, 31
4, 337284, Note_on_c, 9, 63, 0
4, 337393, Note_on_c, 9, 63, 34
4, 337441, Note_on_c, 9, 44, 35
4, 337447, Note_on_c, 9, 53, 41
4, 337448, Note_on_c, 9, 59, 76
4, 337551, Note_on_c, 9, 63, 0
4, 337602, Note_on_c, 9, 44, 0
4, 337634, Note_on_c, 9, 59, 0
4, 337644, Note_on_c, 9, 53, 0
4, 338371, Note_on_c, 9, 59, 74
4, 338398, Note_on_c, 9, 63, 37
4, 338401, Note_on_c, 9, 44, 33
4, 338492, Note_on_c, 9, 63, 0
4, 338548, Note_on_c, 9, 44, 0
4, 338591, Note_on_c, 9, 59, 0
4, 338875, Note_on_c, 9, 59, 30
4, 338902, Note_on_c, 9, 63, 33
4, 338969, Note_on_c, 9, 59, 0
4, 339027, Note_on_c, 9, 63, 0
4, 339342, Note_on_c, 9, 59, 74
4, 339361, Note_on_c, 9, 44, 37
4, 339507, Note_on_c, 9, 44, 0
4, 339546, Note_on_c, 9, 59, 0
4, 339847, Note_on_c, 9, 59, 26
4, 339870, Note_on_c, 9, 63, 38
4, 339939, Note_on_c, 9, 59, 0
4, 340008, Note_on_c, 9, 63, 0
4, 340309, Note_on_c, 9, 59, 79
4, 340321, Note_on_c, 9, 44, 38
4, 340474, Note_on_c, 9, 44, 0
4, 340517, Note_on_c, 9, 59, 0
4, 340598, Note_on_c, 9, 63, 30
4, 340695, Note_on_c, 9, 63, 0
4, 340824, Note_on_c, 9, 59, 27
4, 340902, Note_on_c, 9, 59, 0
4, 341076, Note_on_c, 9, 63, 24
4, 341144, Note_on_c, 9, 63, 0
4, 341268, Note_on_c, 9, 63, 28
4, 341281, Note_on_c, 9, 44, 35
4, 341283, Note_on_c, 9, 59, 83
4, 341367, Note_on_c, 9, 44, 0
4, 341461, Note_on_c, 9, 63, 0
4, 341503, Note_on_c, 9, 59, 0
4, 341771, Note_on_c, 9, 59, 30
4, 341844, Note_on_c, 9, 59, 0
4, 342241, Note_on_c, 9, 44, 32
4, 342254, Note_on_c, 9, 59, 76
4, 342270, Note_on_c, 9, 63, 38
4, 342349, Note_on_c, 9, 63, 0
4, 342390, Note_on_c, 9, 44, 0
4, 342401, Note_on_c, 9, 59, 0
4, 342649, Note_on_c, 9, 59, 34
4, 342772, Note_on_c, 9, 59, 0
4, 342779, Note_on_c, 9, 63, 38
4, 342894, Note_on_c, 9, 63, 0
4, 343198, Note_on_c, 9, 59, 77
4, 343201, Note_on_c, 9, 44, 34
4, 343312, Note_on_c, 9, 44, 0
4, 343405, Note_on_c, 9, 59, 0
4, 343689, Note_on_c, 9, 59, 24
4, 343752, Note_on_c, 9, 63, 41
4, 343764, Note_on_c, 9, 59, 0
4, 343866, Note_on_c, 9, 63, 0
4, 344145, Note_on_c, 9, 59, 72
4, 344161, Note_on_c, 9, 44, 25
4, 344279, Note_on_c, 9, 44, 0
4, 344279, Note_on_c, 9, 59, 0
4, 344417, Note_on_c, 9, 59, 65
4, 344476, Note_on_c, 9, 63, 38
4, 344578, Note_on_c, 9, 59, 0
4, 344712, Note_on_c, 9, 63, 0
4, 344846, Note_on_c, 9, 59, 56
4, 344914, Note_on_c, 9, 59, 0
4, 345050, Note_on_c, 9, 59, 58
4, 345121, Note_on_c, 9, 44, 36
4, 345169, Note_on_c, 9, 63, 46
4, 345202, Note_on_c, 9, 59, 0
4, 345264, Note_on_c, 9, 44, 0
4, 345313, Note_on_c, 9, 63, 0
4, 346033, Note_on_c, 9, 59, 80
4, 346081, Note_on_c, 9, 44, 34
4, 346116, Note_on_c, 9, 63, 36
4, 346168, Note_on_c, 9, 59, 0
4, 346202, Note_on_c, 9, 44, 0
4, 346216, Note_on_c, 9, 63, 0
4, 346530, Note_on_c, 9, 59, 36
4, 346605, Note_on_c, 9, 59, 0
4, 346631, Note_on_c, 9, 63, 36
4, 346743, Note_on_c, 9, 63, 0
4, 347020, Note_on_c, 9, 59, 82
4, 347041, Note_on_c, 9, 44, 35
4, 347189, Note_on_c, 9, 44, 0
4, 347190, Note_on_c, 9, 59, 0
4, 347526, Note_on_c, 9, 59, 32
4, 347546, Note_on_c, 9, 63, 40
4, 347599, Note_on_c, 9, 59, 0
4, 347627, Note_on_c, 9, 63, 0
4, 348001, Note_on_c, 9, 44, 40
4, 348004, Note_on_c, 9, 59, 82
4, 348142, Note_on_c, 9, 44, 0
4, 348175, Note_on_c, 9, 59, 0
4, 348292, Note_on_c, 9, 63, 38
4, 348428, Note_on_c, 9, 63, 0
4, 348484, Note_on_c, 9, 59, 28
4, 348550, Note_on_c, 9, 59, 0
4, 348924, Note_on_c, 9, 59, 85
4, 348958, Note_on_c, 9, 63, 34
4, 348961, Note_on_c, 9, 44, 37
4, 349087, Note_on_c, 9, 63, 0
4, 349098, Note_on_c, 9, 44, 0
4, 349108, Note_on_c, 9, 59, 0
4, 349911, Note_on_c, 9, 59, 80
4, 349920, Note_on_c, 9, 63, 34
4, 349921, Note_on_c, 9, 44, 40
4, 350087, Note_on_c, 9, 44, 0
4, 350089, Note_on_c, 9, 59, 0
4, 350091, Note_on_c, 9, 63, 0
4, 350401, Note_on_c, 9, 59, 41
4, 350445, Note_on_c, 9, 63, 33
4, 350470, Note_on_c, 9, 59, 0
4, 350645, Note_on_c, 9, 63, 0
4, 350866, Note_on_c, 9, 59, 89
4, 350881, Note_on_c, 9, 44, 45
4, 351034, Note_on_c, 9, 44, 0
4, 351097, Note_on_c, 9, 59, 0
4, 351369, Note_on_c, 9, 59, 31
4, 351424, Note_on_c, 9, 63, 40
4, 351441, Note_on_c, 9, 59, 0
4, 351540, Note_on_c, 9, 63, 0
4, 351797, Note_on_c, 9, 59, 80
4, 351841, Note_on_c, 9, 44, 39
4, 351970, Note_on_c, 9, 44, 0
4, 352026, Note_on_c, 9, 59, 0
4, 352156, Note_on_c, 9, 63, 34
4, 352280, Note_on_c, 9, 63, 0
4, 352295, Note_on_c, 9, 59, 33
4, 352367, Note_on_c, 9, 59, 0
4, 352630, Note_on_c, 9, 63, 22
4, 352681, Note_on_c, 9, 63, 0
4, 352760, Note_on_c, 9, 59, 83
4, 352801, Note_on_c, 9, 44, 45
4, 352817, Note_on_c, 9, 63, 25
4, 352947, Note_on_c, 9, 44, 0
4, 352952, Note_on_c, 9, 63, 0
4, 352956, Note_on_c, 9, 59, 0
4, 353697, Note_on_c, 9, 59, 80
4, 353734, Note_on_c, 9, 63, 42
4, 353761, Note_on_c, 9, 44, 39
4, 353815, Note_on_c, 9, 59, 0
4, 353865, Note_on_c, 9, 63, 0
4, 353905, Note_on_c, 9, 44, 0
4, 354202, Note_on_c, 9, 59, 81
4, 354228, Note_on_c, 9, 63, 37
4, 354371, Note_on_c, 9, 63, 0
4, 354392, Note_on_c, 9, 59, 0
4, 354721, Note_on_c, 9, 44, 43
4, 354877, Note_on_c, 9, 44, 0
4, 355183, Note_on_c, 9, 63, 42
4, 355292, Note_on_c, 9, 63, 0
4, 355659, Note_on_c, 9, 59, 85
4, 355681, Note_on_c, 9, 44, 49
4, 355819, Note_on_c, 9, 44, 0
4, 355850, Note_on_c, 9, 59, 0
4, 355906, Note_on_c, 9, 63, 36
4, 356012, Note_on_c, 9, 63, 0
4, 356113, Note_on_c, 9, 59, 40
4, 356184, Note_on_c, 9, 59, 0
4, 356437, Note_on_c, 9, 63, 29
4, 356521, Note_on_c, 9, 63, 0
4, 356616, Note_on_c, 9, 59, 89
4, 356624, Note_on_c, 9, 63, 40
4, 356641, Note_on_c, 9, 44, 42
4, 356802, Note_on_c, 9, 44, 0
4, 356808, Note_on_c, 9, 59, 0
4, 356809, Note_on_c, 9, 63, 0
4, 357354, Note_on_c, 9, 63, 44
4, 357449, Note_on_c, 9, 63, 0
4, 357537, Note_on_c, 9, 59, 81
4, 357564, Note_on_c, 9, 53, 47
4, 357601, Note_on_c, 9, 44, 45
4, 357722, Note_on_c, 9, 44, 0
4, 357724, Note_on_c, 9, 59, 0
4, 357779, Note_on_c, 9, 53, 0
4, 357811, Note_on_c, 9, 63, 36
4, 357877, Note_on_c, 9, 63, 0
4, 358032, Note_on_c, 9, 63, 39
4, 358061, Note_on_c, 9, 59, 24
4, 358132, Note_on_c, 9, 59, 0
4, 358159, Note_on_c, 9, 63, 0
4, 358516, Note_on_c, 9, 59, 75
4, 358524, Note_on_c, 9, 53, 52
4, 358561, Note_on_c, 9, 44, 35
4, 358702, Note_on_c, 9, 59, 0
4, 358733, Note_on_c, 9, 44, 0
4, 358791, Note_on_c, 9, 53, 0
4, 358993, Note_on_c, 9, 59, 37
4, 359036, Note_on_c, 9, 63, 45
4, 359079, Note_on_c, 9, 59, 0
4, 359163, Note_on_c, 9, 63, 0
4, 359507, Note_on_c, 9, 59, 73
4, 359521, Note_on_c, 9, 44, 39
4, 359681, Note_on_c, 9, 44, 0
4, 359746, Note_on_c, 9, 59, 0
4, 359786, Note_on_c, 9, 63, 45
4, 359955, Note_on_c, 9, 63, 0
4, 360001, Note_on_c, 9, 59, 30
4, 360085, Note_on_c, 9, 59, 0
4, 360257, Note_on_c, 9, 63, 30
4, 360354, Note_on_c, 9, 63, 0
4, 360462, Note_on_c, 9, 63, 31
4, 360481, Note_on_c, 9, 44, 43
4, 360496, Note_on_c, 9, 59, 83
4, 360634, Note_on_c, 9, 44, 0
4, 360643, Note_on_c, 9, 63, 0
4, 360717, Note_on_c, 9, 59, 0
4, 361023, Note_on_c, 9, 59, 34
4, 361094, Note_on_c, 9, 59, 0
4, 361441, Note_on_c, 9, 44, 37
4, 361469, Note_on_c, 9, 59, 75
4, 361483, Note_on_c, 9, 63, 45
4, 361532, Note_on_c, 9, 44, 0
4, 361581, Note_on_c, 9, 63, 0
4, 361674, Note_on_c, 9, 59, 0
4, 361932, Note_on_c, 9, 59, 43
4, 361969, Note_on_c, 9, 63, 42
4, 362008, Note_on_c, 9, 59, 0
4, 362119, Note_on_c, 9, 63, 0
4, 362401, Note_on_c, 9, 44, 46
4, 362424, Note_on_c, 9, 59, 80
4, 362513, Note_on_c, 9, 44, 0
4, 362660, Note_on_c, 9, 59, 0
4, 362892, Note_on_c, 9, 59, 35
4, 362927, Note_on_c, 9, 63, 42
4, 362988, Note_on_c, 9, 59, 0
4, 363038, Note_on_c, 9, 63, 0
4, 363361, Note_on_c, 9, 44, 32
4, 363376, Note_on_c, 9, 59, 80
4, 363494, Note_on_c, 9, 44, 0
4, 363612, Note_on_c, 9, 59, 0
4, 363683, Note_on_c, 9, 63, 40
4, 363807, Note_on_c, 9, 63, 0
4, 363894, Note_on_c, 9, 59, 32
4, 363967, Note_on_c, 9, 59, 0
4, 364121, Note_on_c, 9, 63, 27
4, 364170, Note_on_c, 9, 63, 0
4, 364321, Note_on_c, 9, 46, 36
4, 364331, Note_on_c, 9, 59, 83
4, 364413, Note_on_c, 9, 46, 0
4, 364562, Note_on_c, 9, 59, 0
4, 364807, Note_on_c, 9, 59, 31
4, 364871, Note_on_c, 9, 63, 39
4, 364880, Note_on_c, 9, 59, 0
4, 365041, Note_on_c, 9, 63, 0
4, 365250, Note_on_c, 9, 59, 81
4, 365281, Note_on_c, 9, 44, 40
4, 365430, Note_on_c, 9, 44, 0
4, 365430, Note_on_c, 9, 59, 0
4, 365607, Note_on_c, 9, 63, 38
4, 365721, Note_on_c, 9, 63, 0
4, 366020, Note_on_c, 9, 63, 40
4, 366122, Note_on_c, 9, 63, 0
4, 366212, Note_on_c, 9, 59, 66
4, 366241, Note_on_c, 9, 44, 36
4, 366258, Note_on_c, 9, 63, 36
4, 366307, Note_on_c, 9, 59, 0
4, 366334, Note_on_c, 9, 63, 0
4, 366346, Note_on_c, 9, 44, 0
4, 367142, Note_on_c, 9, 59, 58
4, 367175, Note_on_c, 9, 63, 46
4, 367201, Note_on_c, 9, 44, 36
4, 367279, Note_on_c, 9, 63, 0
4, 367315, Note_on_c, 9, 44, 0
4, 367393, Note_on_c, 9, 59, 0
4, 367525, Note_on_c, 9, 59, 38
4, 367597, Note_on_c, 9, 59, 0
4, 367659, Note_on_c, 9, 63, 48
4, 367687, Note_on_c, 9, 59, 46
4, 367823, Note_on_c, 9, 59, 0
4, 367865, Note_on_c, 9, 63, 0
4, 368133, Note_on_c, 9, 59, 71
4, 368161, Note_on_c, 9, 44, 43
4, 368300, Note_on_c, 9, 44, 0
4, 368400, Note_on_c, 9, 59, 0
4, 368601, Note_on_c, 9, 63, 45
4, 368716, Note_on_c, 9, 63, 0
4, 369062, Note_on_c, 9, 59, 71
4, 369121, Note_on_c, 9, 44, 34
4, 369207, Note_on_c, 9, 44, 0
4, 369232, Note_on_c, 9, 59, 0
4, 369418, Note_on_c, 9, 59, 36
4, 369487, Note_on_c, 9, 59, 0
4, 369583, Note_on_c, 9, 59, 55
4, 369663, Note_on_c, 9, 59, 0
4, 370016, Note_on_c, 9, 59, 78
4, 370023, Note_on_c, 9, 63, 42
4, 370081, Note_on_c, 9, 44, 33
4, 370094, Note_on_c, 9, 63, 0
4, 370170, Note_on_c, 9, 44, 0
4, 370292, Note_on_c, 9, 59, 0
4, 370512, Note_on_c, 9, 59, 42
4, 370581, Note_on_c, 9, 59, 0
4, 370819, Note_on_c, 9, 59, 78
4, 370823, Note_on_c, 9, 63, 34
4, 370913, Note_on_c, 9, 63, 0
4, 370971, Note_on_c, 9, 59, 0
4, 371041, Note_on_c, 9, 44, 48
4, 371180, Note_on_c, 9, 44, 0
4, 371316, Note_on_c, 9, 63, 42
4, 371336, Note_on_c, 9, 59, 48
4, 371402, Note_on_c, 9, 59, 0
4, 371419, Note_on_c, 9, 63, 0
4, 371512, Note_on_c, 9, 59, 60
4, 371721, Note_on_c, 9, 59, 0
4, 371770, Note_on_c, 9, 63, 31
4, 371854, Note_on_c, 9, 63, 0
4, 371943, Note_on_c, 9, 63, 29
4, 372001, Note_on_c, 9, 44, 44
4, 372005, Note_on_c, 9, 59, 51
4, 372070, Note_on_c, 9, 59, 0
4, 372083, Note_on_c, 9, 63, 0
4, 372110, Note_on_c, 9, 44, 0
4, 372961, Note_on_c, 9, 44, 33
4, 372974, Note_on_c, 9, 63, 37
4, 372976, Note_on_c, 9, 59, 80
4, 373052, Note_on_c, 9, 44, 0
4, 373083, Note_on_c, 9, 63, 0
4, 373141, Note_on_c, 9, 59, 0
4, 373451, Note_on_c, 9, 59, 35
4, 373462, Note_on_c, 9, 63, 40
4, 373532, Note_on_c, 9, 59, 0
4, 373618, Note_on_c, 9, 63, 0
4, 373921, Note_on_c, 9, 44, 42
4, 373933, Note_on_c, 9, 59, 76
4, 374007, Note_on_c, 9, 44, 0
4, 374116, Note_on_c, 9, 59, 0
4, 374390, Note_on_c, 9, 59, 38
4, 374437, Note_on_c, 9, 63, 36
4, 374461, Note_on_c, 9, 59, 0
4, 374564, Note_on_c, 9, 63, 0
4, 374881, Note_on_c, 9, 44, 42
4, 374882, Note_on_c, 9, 59, 76
4, 374922, Note_on_c, 9, 53, 50
4, 374978, Note_on_c, 9, 44, 0
4, 375040, Note_on_c, 9, 59, 0
4, 375121, Note_on_c, 9, 53, 0
4, 375164, Note_on_c, 9, 63, 36
4, 375346, Note_on_c, 9, 63, 0
4, 375645, Note_on_c, 9, 63, 25
4, 375756, Note_on_c, 9, 63, 0
4, 375827, Note_on_c, 9, 59, 75
4, 375838, Note_on_c, 9, 63, 23
4, 375841, Note_on_c, 9, 44, 43
4, 375849, Note_on_c, 9, 53, 47
4, 375918, Note_on_c, 9, 44, 0
4, 376003, Note_on_c, 9, 59, 0
4, 376030, Note_on_c, 9, 63, 0
4, 376069, Note_on_c, 9, 53, 0
4, 376294, Note_on_c, 9, 59, 36
4, 376380, Note_on_c, 9, 59, 0
4, 376785, Note_on_c, 9, 59, 68
4, 376801, Note_on_c, 9, 44, 43
4, 376803, Note_on_c, 9, 53, 46
4, 376803, Note_on_c, 9, 63, 39
4, 376915, Note_on_c, 9, 63, 0
4, 376929, Note_on_c, 9, 44, 0
4, 376965, Note_on_c, 9, 59, 0
4, 377026, Note_on_c, 9, 53, 0
4, 377265, Note_on_c, 9, 59, 28
4, 377297, Note_on_c, 9, 63, 40
4, 377343, Note_on_c, 9, 59, 0
4, 377448, Note_on_c, 9, 63, 0
4, 377760, Note_on_c, 9, 59, 76
4, 377761, Note_on_c, 9, 44, 40
4, 377787, Note_on_c, 9, 53, 40
4, 377830, Note_on_c, 9, 44, 0
4, 377929, Note_on_c, 9, 59, 0
4, 377971, Note_on_c, 9, 53, 0
4, 378248, Note_on_c, 9, 59, 29
4, 378273, Note_on_c, 9, 63, 41
4, 378316, Note_on_c, 9, 59, 0
4, 378397, Note_on_c, 9, 63, 0
4, 378721, Note_on_c, 9, 44, 39
4, 378741, Note_on_c, 9, 59, 71
4, 378760, Note_on_c, 9, 53, 48
4, 378810, Note_on_c, 9, 44, 0
4, 378954, Note_on_c, 9, 59, 0
4, 378986, Note_on_c, 9, 53, 0
4, 379033, Note_on_c, 9, 63, 36
4, 379172, Note_on_c, 9, 63, 0
4, 379219, Note_on_c, 9, 59, 31
4, 379308, Note_on_c, 9, 59, 0
4, 379513, Note_on_c, 9, 63, 22
4, 379581, Note_on_c, 9, 63, 0
4, 379681, Note_on_c, 9, 44, 42
4, 379696, Note_on_c, 9, 53, 51
4, 379718, Note_on_c, 9, 59, 74
4, 379723, Note_on_c, 9, 63, 27
4, 379821, Note_on_c, 9, 44, 0
4, 379856, Note_on_c, 9, 63, 0
4, 379888, Note_on_c, 9, 53, 0
4, 379907, Note_on_c, 9, 59, 0
4, 380171, Note_on_c, 9, 59, 43
4, 380243, Note_on_c, 9, 59, 0
4, 380641, Note_on_c, 9, 44, 43
4, 380660, Note_on_c, 9, 53, 54
4, 380662, Note_on_c, 9, 59, 74
4, 380663, Note_on_c, 9, 63, 38
4, 380716, Note_on_c, 9, 44, 0
4, 380780, Note_on_c, 9, 63, 0
4, 380867, Note_on_c, 9, 59, 0
4, 380890, Note_on_c, 9, 53, 0
4, 381176, Note_on_c, 9, 63, 37
4, 381301, Note_on_c, 9, 63, 0
4, 381601, Note_on_c, 9, 44, 47
4, 381615, Note_on_c, 9, 53, 50
4, 381625, Note_on_c, 9, 59, 73
4, 381682, Note_on_c, 9, 44, 0
4, 381790, Note_on_c, 9, 59, 0
4, 381846, Note_on_c, 9, 53, 0
4, 382100, Note_on_c, 9, 59, 36
4, 382112, Note_on_c, 9, 63, 42
4, 382176, Note_on_c, 9, 59, 0
4, 382203, Note_on_c, 9, 63, 0
4, 382561, Note_on_c, 9, 44, 37
4, 382603, Note_on_c, 9, 53, 50
4, 382621, Note_on_c, 9, 59, 75
4, 382670, Note_on_c, 9, 44, 0
4, 382785, Note_on_c, 9, 59, 0
4, 382865, Note_on_c, 9, 53, 0
4, 382865, Note_on_c, 9, 63, 37
4, 382995, Note_on_c, 9, 63, 0
4, 383369, Note_on_c, 9, 59, 73
4, 383401, Note_on_c, 9, 53, 58
4, 383521, Note_on_c, 9, 46, 35
4, 383545, Note_on_c, 9, 59, 0
4, 383546, Note_on_c, 9, 63, 40
4, 383600, Note_on_c, 9, 46, 0
4, 383634, Note_on_c, 9, 53, 0
4, 383721, Note_on_c, 9, 63, 0
4, 383923, Note_on_c, 9, 59, 52
4, 383986, Note_on_c, 9, 59, 0
4, 384460, Note_on_c, 9, 59, 80
4, 384481, Note_on_c, 9, 44, 34
4, 384498, Note_on_c, 9, 63, 40
4, 384557, Note_on_c, 9, 44, 0
4, 384594, Note_on_c, 9, 59, 0
4, 384606, Note_on_c, 9, 63, 0
4, 384943, Note_on_c, 9, 59, 34
4, 384986, Note_on_c, 9, 63, 39
4, 385015, Note_on_c, 9, 59, 0
4, 385102, Note_on_c, 9, 63, 0
4, 385410, Note_on_c, 9, 53, 47
4, 385423, Note_on_c, 9, 59, 74
4, 385441, Note_on_c, 9, 44, 37
4, 385530, Note_on_c, 9, 44, 0
4, 385571, Note_on_c, 9, 59, 0
4, 385597, Note_on_c, 9, 53, 0
4, 385903, Note_on_c, 9, 59, 32
4, 385935, Note_on_c, 9, 63, 34
4, 385970, Note_on_c, 9, 59, 0
4, 385983, Note_on_c, 9, 63, 0
4, 386190, Note_on_c, 9, 59, 69
4, 386221, Note_on_c, 9, 53, 49
4, 386324, Note_on_c, 9, 59, 0
4, 386339, Note_on_c, 9, 53, 0
4, 386401, Note_on_c, 9, 44, 45
4, 386486, Note_on_c, 9, 44, 0
4, 386678, Note_on_c, 9, 63, 38
4, 386683, Note_on_c, 9, 59, 36
4, 386754, Note_on_c, 9, 59, 0
4, 386818, Note_on_c, 9, 63, 0
4, 386926, Note_on_c, 9, 53, 55
4, 386940, Note_on_c, 9, 59, 66
4, 387121, Note_on_c, 9, 59, 0
4, 387126, Note_on_c, 9, 63, 31
4, 387127, Note_on_c, 9, 53, 0
4, 387197, Note_on_c, 9, 63, 0
4, 387319, Note_on_c, 9, 63, 36
4, 387361, Note_on_c, 9, 44, 40
4, 387370, Note_on_c, 9, 59, 46
4, 387433, Note_on_c, 9, 59, 0
4, 387455, Note_on_c, 9, 44, 0
4, 387472, Note_on_c, 9, 63, 0
4, 387877, Note_on_c, 9, 59, 62
4, 387931, Note_on_c, 9, 59, 0
4, 388294, Note_on_c, 9, 63, 40
4, 388321, Note_on_c, 9, 44, 42
4, 388348, Note_on_c, 9, 59, 77
4, 388398, Note_on_c, 9, 63, 0
4, 388413, Note_on_c, 9, 44, 0
4, 388472, Note_on_c, 9, 59, 0
4, 388797, Note_on_c, 9, 63, 42
4, 388831, Note_on_c, 9, 59, 34
4, 388899, Note_on_c, 9, 59, 0
4, 388905, Note_on_c, 9, 63, 0
4, 389269, Note_on_c, 9, 59, 81
4, 389281, Note_on_c, 9, 44, 39
4, 389393, Note_on_c, 9, 44, 0
4, 389417, Note_on_c, 9, 59, 0
4, 389745, Note_on_c, 9, 59, 34
4, 389770, Note_on_c, 9, 63, 46
4, 389820, Note_on_c, 9, 59, 0
4, 389900, Note_on_c, 9, 63, 0
4, 390232, Note_on_c, 9, 59, 87
4, 390241, Note_on_c, 9, 44, 37
4, 390382, Note_on_c, 9, 59, 0
4, 390384, Note_on_c, 9, 44, 0
4, 390522, Note_on_c, 9, 63, 45
4, 390656, Note_on_c, 9, 63, 0
4, 390723, Note_on_c, 9, 59, 29
4, 390794, Note_on_c, 9, 59, 0
4, 390988, Note_on_c, 9, 63, 29
4, 391086, Note_on_c, 9, 63, 0
4, 391164, Note_on_c, 9, 59, 88
4, 391189, Note_on_c, 9, 63, 40
4, 391201, Note_on_c, 9, 44, 46
4, 391317, Note_on_c, 9, 63, 0
4, 391321, Note_on_c, 9, 59, 0
4, 391334, Note_on_c, 9, 44, 0
4, 391631, Note_on_c, 9, 59, 39
4, 391702, Note_on_c, 9, 59, 0
4, 392102, Note_on_c, 9, 59, 85
4, 392122, Note_on_c, 9, 63, 42
4, 392161, Note_on_c, 9, 44, 45
4, 392231, Note_on_c, 9, 63, 0
4, 392249, Note_on_c, 9, 59, 0
4, 392312, Note_on_c, 9, 44, 0
4, 392577, Note_on_c, 9, 59, 31
4, 392620, Note_on_c, 9, 63, 42
4, 392656, Note_on_c, 9, 59, 0
4, 392738, Note_on_c, 9, 63, 0
4, 393060, Note_on_c, 9, 59, 81
4, 393121, Note_on_c, 9, 44, 47
4, 393197, Note_on_c, 9, 59, 0
4, 393266, Note_on_c, 9, 44, 0
4, 393590, Note_on_c, 9, 63, 42
4, 393746, Note_on_c, 9, 63, 0
4, 394049, Note_on_c, 9, 59, 55
4, 394081, Note_on_c, 9, 44, 43
4, 394217, Note_on_c, 9, 44, 0
4, 394325, Note_on_c, 9, 59, 0
4, 394354, Note_on_c, 9, 63, 38
4, 394485, Note_on_c, 9, 63, 0
4, 394810, Note_on_c, 9, 63, 29
4, 394880, Note_on_c, 9, 53, 47
4, 394899, Note_on_c, 9, 63, 0
4, 395020, Note_on_c, 9, 59, 60
4, 395023, Note_on_c, 9, 63, 36
4, 395041, Note_on_c, 9, 44, 49
4, 395175, Note_on_c, 9, 44, 0
4, 395197, Note_on_c, 9, 63, 0
4, 395208, Note_on_c, 9, 53, 0
4, 395284, Note_on_c, 9, 59, 0
4, 395572, Note_on_c, 9, 53, 53
4, 395842, Note_on_c, 9, 53, 0
4, 395975, Note_on_c, 9, 59, 66
4, 395979, Note_on_c, 9, 65, 31
4, 396001, Note_on_c, 9, 44, 42
4, 396020, Note_on_c, 9, 63, 45
4, 396044, Note_on_c, 9, 65, 0
4, 396125, Note_on_c, 9, 63, 0
4, 396139, Note_on_c, 9, 44, 0
4, 396222, Note_on_c, 9, 59, 0
4, 396287, Note_on_c, 9, 53, 48
4, 396492, Note_on_c, 9, 63, 42
4, 396547, Note_on_c, 9, 53, 0
4, 396633, Note_on_c, 9, 63, 0
4, 396713, Note_on_c, 9, 65, 32
4, 396808, Note_on_c, 9, 65, 0
4, 396923, Note_on_c, 9, 53, 60
4, 396930, Note_on_c, 9, 59, 67
4, 396961, Note_on_c, 9, 44, 46
4, 397046, Note_on_c, 9, 44, 0
4, 397166, Note_on_c, 9, 53, 0
4, 397174, Note_on_c, 9, 59, 0
4, 397396, Note_on_c, 9, 65, 35
4, 397411, Note_on_c, 9, 65, 31
4, 397415, Note_on_c, 9, 63, 44
4, 397527, Note_on_c, 9, 63, 0
4, 397534, Note_on_c, 9, 65, 0
4, 397577, Note_on_c, 9, 65, 0
4, 397674, Note_on_c, 9, 53, 62
4, 397839, Note_on_c, 9, 53, 0
4, 397869, Note_on_c, 9, 59, 58
4, 397891, Note_on_c, 9, 65, 37
4, 397921, Note_on_c, 9, 46, 49
4, 398040, Note_on_c, 9, 46, 0
4, 398089, Note_on_c, 9, 59, 0
4, 398101, Note_on_c, 9, 65, 0
4, 398170, Note_on_c, 9, 63, 40
4, 398314, Note_on_c, 9, 63, 0
4, 398329, Note_on_c, 9, 53, 56
4, 398620, Note_on_c, 9, 63, 23
4, 398627, Note_on_c, 9, 53, 0
4, 398743, Note_on_c, 9, 63, 0
4, 398787, Note_on_c, 9, 59, 66
4, 398806, Note_on_c, 9, 53, 53
4, 398809, Note_on_c, 9, 63, 36
4, 398865, Note_on_c, 9, 53, 0
4, 398881, Note_on_c, 9, 44, 55
4, 398921, Note_on_c, 9, 44, 0
4, 398926, Note_on_c, 9, 63, 0
4, 399041, Note_on_c, 9, 59, 0
4, 399827, Note_on_c, 9, 63, 39
4, 399841, Note_on_c, 9, 44, 47
4, 399882, Note_on_c, 9, 59, 58
4, 399939, Note_on_c, 9, 63, 0
4, 400061, Note_on_c, 9, 44, 0
4, 400102, Note_on_c, 9, 59, 0
4, 400344, Note_on_c, 9, 59, 34
4, 400559, Note_on_c, 9, 59, 0
4, 400776, Note_on_c, 9, 59, 79
4, 400801, Note_on_c, 9, 44, 34
4, 400861, Note_on_c, 9, 63, 38
4, 400936, Note_on_c, 9, 63, 0
4, 400968, Note_on_c, 9, 44, 0
4, 401003, Note_on_c, 9, 59, 0
4, 401256, Note_on_c, 9, 59, 34
4, 401379, Note_on_c, 9, 59, 0
4, 401710, Note_on_c, 9, 59, 77
4, 401761, Note_on_c, 9, 44, 23
4, 401806, Note_on_c, 9, 63, 42
4, 401899, Note_on_c, 9, 59, 0
4, 401905, Note_on_c, 9, 63, 0
4, 401988, Note_on_c, 9, 44, 0
4, 402153, Note_on_c, 9, 59, 37
4, 402332, Note_on_c, 9, 59, 0
4, 402556, Note_on_c, 9, 63, 46
4, 402630, Note_on_c, 9, 59, 89
4, 402655, Note_on_c, 9, 63, 0
4, 402721, Note_on_c, 9, 44, 37
4, 402856, Note_on_c, 9, 59, 0
4, 402919, Note_on_c, 9, 44, 0
4, 403114, Note_on_c, 9, 59, 36
4, 403196, Note_on_c, 9, 59, 0
4, 403205, Note_on_c, 9, 63, 1
4, 403333, Note_on_c, 9, 63, 0
4, 403618, Note_on_c, 9, 59, 87
4, 403681, Note_on_c, 9, 46, 33
4, 403696, Note_on_c, 9, 63, 42
4, 403779, Note_on_c, 9, 59, 0
4, 403780, Note_on_c, 9, 63, 0
4, 403874, Note_on_c, 9, 46, 0
4, 404134, Note_on_c, 9, 59, 33
4, 404147, Note_on_c, 9, 63, 39
4, 404205, Note_on_c, 9, 59, 0
4, 404264, Note_on_c, 9, 63, 0
4, 404605, Note_on_c, 9, 59, 81
4, 404641, Note_on_c, 9, 44, 26
4, 404772, Note_on_c, 9, 59, 0
4, 404783, Note_on_c, 9, 44, 0
4, 405120, Note_on_c, 9, 63, 44
4, 405244, Note_on_c, 9, 63, 0
4, 405551, Note_on_c, 9, 59, 73
4, 405601, Note_on_c, 9, 44, 36
4, 405694, Note_on_c, 9, 59, 0
4, 405746, Note_on_c, 9, 44, 0
4, 405832, Note_on_c, 9, 63, 40
4, 405850, Note_on_c, 9, 59, 32
4, 405960, Note_on_c, 9, 59, 0
4, 406012, Note_on_c, 9, 63, 0
4, 406284, Note_on_c, 9, 63, 23
4, 406356, Note_on_c, 9, 59, 46
4, 406372, Note_on_c, 9, 63, 0
4, 406419, Note_on_c, 9, 59, 0
4, 406441, Note_on_c, 9, 63, 21
4, 406539, Note_on_c, 9, 59, 57
4, 406561, Note_on_c, 9, 44, 32
4, 406569, Note_on_c, 9, 63, 0
4, 406660, Note_on_c, 9, 44, 0
4, 406855, Note_on_c, 9, 59, 0
4, 406986, Note_on_c, 9, 59, 37
4, 407072, Note_on_c, 9, 59, 0
4, 407468, Note_on_c, 9, 63, 46
4, 407490, Note_on_c, 9, 59, 83
4, 407521, Note_on_c, 9, 44, 34
4, 407571, Note_on_c, 9, 63, 0
4, 407630, Note_on_c, 9, 44, 0
4, 407709, Note_on_c, 9, 59, 0
4, 407959, Note_on_c, 9, 59, 35
4, 407964, Note_on_c, 9, 63, 45
4, 408037, Note_on_c, 9, 59, 0
4, 408085, Note_on_c, 9, 63, 0
4, 408443, Note_on_c, 9, 59, 88
4, 408481, Note_on_c, 9, 44, 35
4, 408628, Note_on_c, 9, 59, 0
4, 408637, Note_on_c, 9, 44, 0
4, 408917, Note_on_c, 9, 59, 37
4, 408974, Note_on_c, 9, 63, 42
4, 408989, Note_on_c, 9, 59, 0
4, 409093, Note_on_c, 9, 63, 0
4, 409424, Note_on_c, 9, 59, 84
4, 409441, Note_on_c, 9, 44, 25
4, 409552, Note_on_c, 9, 44, 0
4, 409586, Note_on_c, 9, 59, 0
4, 409749, Note_on_c, 9, 63, 29
4, 409861, Note_on_c, 9, 63, 0
4, 409928, Note_on_c, 9, 59, 26
4, 409989, Note_on_c, 9, 59, 0
4, 410391, Note_on_c, 9, 59, 83
4, 410401, Note_on_c, 9, 44, 35
4, 410421, Note_on_c, 9, 63, 37
4, 410530, Note_on_c, 9, 44, 0
4, 410549, Note_on_c, 9, 63, 0
4, 410552, Note_on_c, 9, 59, 0
4, 411349, Note_on_c, 9, 59, 46
4, 411361, Note_on_c, 9, 44, 28
4, 411410, Note_on_c, 9, 63, 40
4, 411427, Note_on_c, 9, 59, 0
4, 411485, Note_on_c, 9, 44, 0
4, 411553, Note_on_c, 9, 63, 0
4, 411919, Note_on_c, 9, 63, 34
4, 412053, Note_on_c, 9, 63, 0
4, 412281, Note_on_c, 9, 59, 72
4, 412321, Note_on_c, 9, 44, 30
4, 412426, Note_on_c, 9, 59, 0
4, 412459, Note_on_c, 9, 44, 0
4, 412886, Note_on_c, 9, 63, 40
4, 413020, Note_on_c, 9, 63, 0
4, 413223, Note_on_c, 9, 59, 72
4, 413281, Note_on_c, 9, 44, 35
4, 413424, Note_on_c, 9, 44, 0
4, 413432, Note_on_c, 9, 59, 0
4, 413619, Note_on_c, 9, 63, 42
4, 413786, Note_on_c, 9, 63, 0
4, 414057, Note_on_c, 9, 63, 32
4, 414089, Note_on_c, 9, 59, 63
4, 414122, Note_on_c, 9, 63, 0
4, 414241, Note_on_c, 9, 44, 28
4, 414257, Note_on_c, 9, 63, 32
4, 414261, Note_on_c, 9, 59, 0
4, 414404, Note_on_c, 9, 44, 0
4, 414430, Note_on_c, 9, 63, 0
4, 414531, Note_on_c, 9, 59, 47
4, 414605, Note_on_c, 9, 59, 0
4, 414724, Note_on_c, 9, 59, 54
4, 414912, Note_on_c, 9, 59, 0
4, 415157, Note_on_c, 9, 59, 57
4, 415192, Note_on_c, 9, 63, 44
4, 415201, Note_on_c, 9, 44, 28
4, 415300, Note_on_c, 9, 63, 0
4, 415384, Note_on_c, 9, 44, 0
4, 415411, Note_on_c, 9, 59, 0
4, 415693, Note_on_c, 9, 63, 42
4, 415815, Note_on_c, 9, 63, 0
4, 416138, Note_on_c, 9, 59, 72
4, 416161, Note_on_c, 9, 44, 31
4, 416264, Note_on_c, 9, 44, 0
4, 416314, Note_on_c, 9, 59, 0
4, 416658, Note_on_c, 9, 59, 22
4, 416663, Note_on_c, 9, 63, 44
4, 416745, Note_on_c, 9, 59, 0
4, 416783, Note_on_c, 9, 63, 0
4, 417090, Note_on_c, 9, 59, 74
4, 417121, Note_on_c, 9, 44, 21
4, 417198, Note_on_c, 9, 44, 0
4, 417288, Note_on_c, 9, 59, 0
4, 417385, Note_on_c, 9, 63, 40
4, 417507, Note_on_c, 9, 63, 0
4, 417852, Note_on_c, 9, 59, 51
4, 417854, Note_on_c, 9, 63, 29
4, 417918, Note_on_c, 9, 59, 0
4, 417926, Note_on_c, 9, 63, 0
4, 418046, Note_on_c, 9, 63, 36
4, 418048, Note_on_c, 9, 59, 60
4, 418081, Note_on_c, 9, 44, 38
4, 418209, Note_on_c, 9, 44, 0
4, 418232, Note_on_c, 9, 63, 0
4, 418382, Note_on_c, 9, 59, 0
4, 418547, Note_on_c, 9, 59, 31
4, 418628, Note_on_c, 9, 59, 0
4, 419019, Note_on_c, 9, 63, 42
4, 419021, Note_on_c, 9, 59, 78
4, 419041, Note_on_c, 9, 44, 32
4, 419132, Note_on_c, 9, 63, 0
4, 419134, Note_on_c, 9, 44, 0
4, 419260, Note_on_c, 9, 59, 0
4, 419513, Note_on_c, 9, 63, 44
4, 419660, Note_on_c, 9, 63, 0
4, 419965, Note_on_c, 9, 59, 78
4, 420001, Note_on_c, 9, 44, 32
4, 420103, Note_on_c, 9, 44, 0
4, 420164, Note_on_c, 9, 59, 0
4, 420435, Note_on_c, 9, 59, 34
4, 420443, Note_on_c, 9, 63, 36
4, 420501, Note_on_c, 9, 59, 0
4, 420580, Note_on_c, 9, 63, 0
4, 420895, Note_on_c, 9, 59, 84
4, 420961, Note_on_c, 9, 44, 31
4, 421076, Note_on_c, 9, 44, 0
4, 421080, Note_on_c, 9, 59, 0
4, 421214, Note_on_c, 9, 63, 41
4, 421379, Note_on_c, 9, 63, 0
4, 421696, Note_on_c, 9, 63, 28
4, 421773, Note_on_c, 9, 63, 0
4, 421890, Note_on_c, 9, 59, 83
4, 421894, Note_on_c, 9, 63, 31
4, 421921, Note_on_c, 9, 46, 25
4, 422015, Note_on_c, 9, 59, 0
4, 422039, Note_on_c, 9, 63, 0
4, 422053, Note_on_c, 9, 46, 0
4, 422414, Note_on_c, 9, 59, 32
4, 422478, Note_on_c, 9, 59, 0
4, 422822, Note_on_c, 9, 63, 32
4, 422881, Note_on_c, 9, 44, 25
4, 422882, Note_on_c, 9, 59, 87
4, 422904, Note_on_c, 9, 63, 0
4, 422980, Note_on_c, 9, 44, 0
4, 423005, Note_on_c, 9, 59, 0
4, 423339, Note_on_c, 9, 63, 31
4, 423376, Note_on_c, 9, 59, 24
4, 423436, Note_on_c, 9, 63, 0
4, 423459, Note_on_c, 9, 59, 0
4, 423828, Note_on_c, 9, 59, 84
4, 423841, Note_on_c, 9, 44, 29
4, 423922, Note_on_c, 9, 44, 0
4, 424004, Note_on_c, 9, 59, 0
4, 424304, Note_on_c, 9, 63, 36
4, 424421, Note_on_c, 9, 63, 0
4, 424801, Note_on_c, 9, 44, 31
4, 424813, Note_on_c, 9, 59, 79
4, 424885, Note_on_c, 9, 44, 0
4, 425011, Note_on_c, 9, 63, 33
4, 425031, Note_on_c, 9, 59, 0
4, 425194, Note_on_c, 9, 63, 0
4, 425479, Note_on_c, 9, 63, 34
4, 425594, Note_on_c, 9, 63, 0
4, 425697, Note_on_c, 9, 63, 37
4, 425750, Note_on_c, 9, 59, 78
4, 425761, Note_on_c, 9, 46, 23
4, 425860, Note_on_c, 9, 46, 0
4, 425911, Note_on_c, 9, 63, 0
4, 425924, Note_on_c, 9, 59, 0
4, 426461, Note_on_c, 9, 63, 33
4, 426591, Note_on_c, 9, 63, 0
4, 426633, Note_on_c, 9, 59, 73
4, 426721, Note_on_c, 9, 44, 20
4, 426795, Note_on_c, 9, 44, 0
4, 426821, Note_on_c, 9, 59, 0
4, 426915, Note_on_c, 9, 63, 24
4, 426992, Note_on_c, 9, 59, 24
4, 427006, Note_on_c, 9, 63, 0
4, 427170, Note_on_c, 9, 63, 32
4, 427252, Note_on_c, 9, 59, 0
4, 427361, Note_on_c, 9, 63, 0
4, 427560, Note_on_c, 9, 59, 68
4, 427681, Note_on_c, 9, 44, 21
4, 427748, Note_on_c, 9, 44, 0
4, 427750, Note_on_c, 9, 59, 0
4, 427923, Note_on_c, 9, 59, 26
4, 427946, Note_on_c, 9, 63, 40
4, 427980, Note_on_c, 9, 59, 0
4, 428088, Note_on_c, 9, 63, 0
4, 428090, Note_on_c, 9, 59, 53
4, 428218, Note_on_c, 9, 59, 0
4, 428381, Note_on_c, 9, 63, 40
4, 428466, Note_on_c, 9, 63, 0
4, 428565, Note_on_c, 9, 59, 76
4, 428618, Note_on_c, 9, 63, 19
4, 428641, Note_on_c, 9, 44, 21
4, 428712, Note_on_c, 9, 63, 0
4, 428715, Note_on_c, 9, 44, 0
4, 428824, Note_on_c, 9, 59, 0
4, 429064, Note_on_c, 9, 59, 31
4, 429065, Note_on_c, 9, 63, 37
4, 429128, Note_on_c, 9, 59, 0
4, 429217, Note_on_c, 9, 63, 0
4, 429528, Note_on_c, 9, 59, 83
4, 429536, Note_on_c, 9, 63, 37
4, 429601, Note_on_c, 9, 44, 21
4, 429658, Note_on_c, 9, 63, 0
4, 429682, Note_on_c, 9, 44, 0
4, 429762, Note_on_c, 9, 59, 0
4, 430536, Note_on_c, 9, 63, 36
4, 430553, Note_on_c, 9, 59, 79
4, 430561, Note_on_c, 9, 44, 28
4, 430656, Note_on_c, 9, 44, 0
4, 430679, Note_on_c, 9, 63, 0
4, 430750, Note_on_c, 9, 59, 0
4, 431032, Note_on_c, 9, 63, 35
4, 431063, Note_on_c, 9, 59, 33
4, 431184, Note_on_c, 9, 63, 0
4, 431188, Note_on_c, 9, 59, 0
4, 431521, Note_on_c, 9, 44, 37
4, 431528, Note_on_c, 9, 59, 76
4, 431669, Note_on_c, 9, 44, 0
4, 431749, Note_on_c, 9, 59, 0
4, 431988, Note_on_c, 9, 59, 44
4, 432024, Note_on_c, 9, 63, 39
4, 432054, Note_on_c, 9, 59, 0
4, 432159, Note_on_c, 9, 63, 0
4, 432474, Note_on_c, 9, 59, 80
4, 432481, Note_on_c, 9, 44, 29
4, 432665, Note_on_c, 9, 59, 0
4, 432723, Note_on_c, 9, 44, 0
4, 432764, Note_on_c, 9, 63, 38
4, 432907, Note_on_c, 9, 63, 0
4, 432982, Note_on_c, 9, 59, 19
4, 433034, Note_on_c, 9, 59, 0
4, 433234, Note_on_c, 9, 63, 33
4, 433340, Note_on_c, 9, 63, 0
4, 433410, Note_on_c, 9, 59, 70
4, 433441, Note_on_c, 9, 44, 31
4, 433447, Note_on_c, 9, 63, 36
4, 433524, Note_on_c, 9, 44, 0
4, 433589, Note_on_c, 9, 63, 0
4, 433589, Note_on_c, 9, 59, 0
4, 433873, Note_on_c, 9, 59, 46
4, 433946, Note_on_c, 9, 59, 0
4, 434356, Note_on_c, 9, 59, 74
4, 434368, Note_on_c, 9, 63, 44
4, 434401, Note_on_c, 9, 44, 32
4, 434490, Note_on_c, 9, 44, 0
4, 434508, Note_on_c, 9, 63, 0
4, 434544, Note_on_c, 9, 59, 0
4, 434832, Note_on_c, 9, 59, 32
4, 434875, Note_on_c, 9, 63, 45
4, 434906, Note_on_c, 9, 59, 0
4, 435026, Note_on_c, 9, 63, 0
4, 435345, Note_on_c, 9, 59, 69
4, 435361, Note_on_c, 9, 44, 38
4, 435505, Note_on_c, 9, 44, 0
4, 435515, Note_on_c, 9, 59, 0
4, 435804, Note_on_c, 9, 63, 46
4, 435851, Note_on_c, 9, 59, 22
4, 435935, Note_on_c, 9, 63, 0
4, 435939, Note_on_c, 9, 59, 0
4, 436272, Note_on_c, 9, 59, 74
4, 436321, Note_on_c, 9, 44, 34
4, 436442, Note_on_c, 9, 44, 0
4, 436470, Note_on_c, 9, 59, 0
4, 436554, Note_on_c, 9, 63, 44
4, 436726, Note_on_c, 9, 63, 0
4, 436745, Note_on_c, 9, 59, 26
4, 436803, Note_on_c, 9, 59, 0
4, 437025, Note_on_c, 9, 63, 30
4, 437123, Note_on_c, 9, 63, 0
4, 437232, Note_on_c, 9, 63, 37
4, 437245, Note_on_c, 9, 59, 73
4, 437281, Note_on_c, 9, 44, 37
4, 437382, Note_on_c, 9, 44, 0
4, 437398, Note_on_c, 9, 63, 0
4, 437472, Note_on_c, 9, 59, 0
4, 437741, Note_on_c, 9, 59, 31
4, 437818, Note_on_c, 9, 59, 0
4, 438240, Note_on_c, 9, 63, 40
4, 438241, Note_on_c, 9, 44, 37
4, 438258, Note_on_c, 9, 59, 76
4, 438360, Note_on_c, 9, 63, 0
4, 438422, Note_on_c, 9, 44, 0
4, 438454, Note_on_c, 9, 59, 0
4, 438756, Note_on_c, 9, 63, 38
4, 438783, Note_on_c, 9, 59, 20
4, 438859, Note_on_c, 9, 59, 0
4, 438924, Note_on_c, 9, 63, 0
4, 439197, Note_on_c, 9, 59, 77
4, 439201, Note_on_c, 9, 44, 36
4, 439300, Note_on_c, 9, 44, 0
4, 439421, Note_on_c, 9, 59, 0
4, 439709, Note_on_c, 9, 63, 38
4, 439716, Note_on_c, 9, 59, 20
4, 439811, Note_on_c, 9, 59, 0
4, 439840, Note_on_c, 9, 63, 0
4, 440146, Note_on_c, 9, 59, 74
4, 440161, Note_on_c, 9, 44, 31
4, 440170, Note_on_c, 9, 53, 41
4, 440268, Note_on_c, 9, 44, 0
4, 440323, Note_on_c, 9, 59, 0
4, 440403, Note_on_c, 9, 53, 0
4, 440467, Note_on_c, 9, 63, 37
4, 440605, Note_on_c, 9, 63, 0
4, 440633, Note_on_c, 9, 59, 19
4, 440702, Note_on_c, 9, 59, 0
4, 440923, Note_on_c, 9, 63, 21
4, 440943, Note_on_c, 9, 59, 64
4, 440985, Note_on_c, 9, 53, 41
4, 440988, Note_on_c, 9, 63, 0
4, 441106, Note_on_c, 9, 63, 33
4, 441110, Note_on_c, 9, 59, 0
4, 441121, Note_on_c, 9, 44, 34
4, 441181, Note_on_c, 9, 59, 32
4, 441239, Note_on_c, 9, 44, 0
4, 441263, Note_on_c, 9, 63, 0
4, 441284, Note_on_c, 9, 53, 0
4, 441364, Note_on_c, 9, 59, 0
4, 441660, Note_on_c, 9, 59, 54
4, 441830, Note_on_c, 9, 59, 0
4, 442081, Note_on_c, 9, 44, 39
4, 442110, Note_on_c, 9, 59, 66
4, 442119, Note_on_c, 9, 53, 46
4, 442127, Note_on_c, 9, 63, 20
4, 442172, Note_on_c, 9, 44, 0
4, 442198, Note_on_c, 9, 63, 0
4, 442261, Note_on_c, 9, 53, 0
4, 442286, Note_on_c, 9, 59, 0
4, 442582, Note_on_c, 9, 59, 36
4, 442621, Note_on_c, 9, 63, 26
4, 442659, Note_on_c, 9, 59, 0
4, 442723, Note_on_c, 9, 63, 0
4, 442876, Note_on_c, 9, 53, 40
4, 442883, Note_on_c, 9, 59, 62
4, 443035, Note_on_c, 9, 59, 0
4, 443041, Note_on_c, 9, 53, 0
4, 443041, Note_on_c, 9, 44, 34
4, 443121, Note_on_c, 9, 59, 40
4, 443144, Note_on_c, 9, 44, 0
4, 443208, Note_on_c, 9, 59, 0
4, 443558, Note_on_c, 9, 63, 23
4, 443626, Note_on_c, 9, 63, 0
4, 443679, Note_on_c, 9, 59, 27
4, 443731, Note_on_c, 9, 59, 0
4, 444001, Note_on_c, 9, 44, 36
4, 444011, Note_on_c, 9, 59, 76
4, 444102, Note_on_c, 9, 44, 0
4, 444150, Note_on_c, 9, 59, 0
4, 444300, Note_on_c, 9, 63, 26
4, 444401, Note_on_c, 9, 63, 0
4, 444709, Note_on_c, 9, 63, 25
4, 444772, Note_on_c, 9, 63, 0
4, 444913, Note_on_c, 9, 63, 29
4, 444926, Note_on_c, 9, 59, 77
4, 444961, Note_on_c, 9, 46, 23
4, 445033, Note_on_c, 9, 46, 0
4, 445040, Note_on_c, 9, 63, 0
4, 445085, Note_on_c, 9, 59, 0
4, 445371, Note_on_c, 9, 59, 30
4, 445449, Note_on_c, 9, 59, 0
4, 445852, Note_on_c, 9, 59, 75
4, 445890, Note_on_c, 9, 63, 33
4, 445921, Note_on_c, 9, 44, 28
4, 445956, Note_on_c, 9, 63, 0
4, 446002, Note_on_c, 9, 44, 0
4, 446033, Note_on_c, 9, 59, 0
4, 446320, Note_on_c, 9, 59, 33
4, 446362, Note_on_c, 9, 63, 33
4, 446388, Note_on_c, 9, 59, 0
4, 446518, Note_on_c, 9, 63, 0
4, 446618, Note_on_c, 9, 59, 71
4, 446794, Note_on_c, 9, 59, 0
4, 446881, Note_on_c, 9, 44, 37
4, 447024, Note_on_c, 9, 44, 0
4, 447289, Note_on_c, 9, 63, 34
4, 447314, Note_on_c, 9, 59, 62
4, 447406, Note_on_c, 9, 63, 0
4, 447508, Note_on_c, 9, 59, 0
4, 447841, Note_on_c, 9, 44, 36
4, 447989, Note_on_c, 9, 44, 0
4, 448022, Note_on_c, 9, 63, 34
4, 448054, Note_on_c, 9, 59, 63
4, 448080, Note_on_c, 9, 63, 0
4, 448110, Note_on_c, 9, 59, 0
4, 448260, Note_on_c, 9, 59, 55
4, 448441, Note_on_c, 9, 59, 0
4, 448519, Note_on_c, 9, 63, 23
4, 448594, Note_on_c, 9, 63, 0
4, 448691, Note_on_c, 9, 63, 21
4, 448746, Note_on_c, 9, 59, 74
4, 448801, Note_on_c, 9, 44, 39
4, 448872, Note_on_c, 9, 63, 0
4, 448909, Note_on_c, 9, 44, 0
4, 449000, Note_on_c, 9, 59, 0
4, 449691, Note_on_c, 9, 63, 33
4, 449716, Note_on_c, 9, 59, 74
4, 449761, Note_on_c, 9, 44, 30
4, 449778, Note_on_c, 9, 63, 0
4, 449851, Note_on_c, 9, 59, 0
4, 449852, Note_on_c, 9, 44, 0
4, 450444, Note_on_c, 9, 63, 39
4, 450560, Note_on_c, 9, 63, 0
4, 450666, Note_on_c, 9, 59, 80
4, 450721, Note_on_c, 9, 44, 38
4, 450818, Note_on_c, 9, 59, 0
4, 450829, Note_on_c, 9, 44, 0
4, 450937, Note_on_c, 9, 63, 13
4, 450986, Note_on_c, 9, 63, 0
4, 451108, Note_on_c, 9, 63, 36
4, 451134, Note_on_c, 9, 59, 27
4, 451200, Note_on_c, 9, 59, 0
4, 451236, Note_on_c, 9, 63, 0
4, 451643, Note_on_c, 9, 59, 80
4, 451681, Note_on_c, 9, 44, 37
4, 451769, Note_on_c, 9, 59, 0
4, 451816, Note_on_c, 9, 44, 0
4, 451893, Note_on_c, 9, 63, 28
4, 452004, Note_on_c, 9, 63, 0
4, 452361, Note_on_c, 9, 63, 13
4, 452410, Note_on_c, 9, 63, 0
4, 452518, Note_on_c, 9, 63, 27
4, 452563, Note_on_c, 9, 59, 73
4, 452641, Note_on_c, 9, 44, 33
4, 452671, Note_on_c, 9, 63, 0
4, 452716, Note_on_c, 9, 44, 0
4, 452766, Note_on_c, 9, 59, 0
4, 453512, Note_on_c, 9, 59, 64
4, 453555, Note_on_c, 9, 63, 40
4, 453601, Note_on_c, 9, 44, 35
4, 453630, Note_on_c, 9, 63, 0
4, 453670, Note_on_c, 9, 44, 0
4, 453711, Note_on_c, 9, 59, 0
4, 454044, Note_on_c, 9, 63, 37
4, 454207, Note_on_c, 9, 63, 0
4, 454461, Note_on_c, 9, 59, 48
4, 454561, Note_on_c, 9, 44, 33
4, 454623, Note_on_c, 9, 59, 0
4, 454642, Note_on_c, 9, 44, 0
4, 454920, Note_on_c, 9, 59, 45
4, 454995, Note_on_c, 9, 59, 0
4, 455035, Note_on_c, 9, 63, 37
4, 455149, Note_on_c, 9, 63, 0
4, 455463, Note_on_c, 9, 59, 81
4, 455521, Note_on_c, 9, 44, 37
4, 455637, Note_on_c, 9, 44, 0
4, 455658, Note_on_c, 9, 59, 0
4, 455798, Note_on_c, 9, 63, 40
4, 455923, Note_on_c, 9, 59, 30
4, 455926, Note_on_c, 9, 63, 0
4, 455998, Note_on_c, 9, 59, 0
4, 456284, Note_on_c, 9, 63, 21
4, 456448, Note_on_c, 9, 59, 70
4, 456481, Note_on_c, 9, 44, 42
4, 456628, Note_on_c, 9, 63, 0
4, 456629, Note_on_c, 9, 44, 0
4, 456634, Note_on_c, 9, 59, 0
4, 456812, Note_on_c, 9, 59, 33
4, 456979, Note_on_c, 9, 59, 0
4, 457371, Note_on_c, 9, 59, 77
4, 457379, Note_on_c, 9, 65, 35
4, 457408, Note_on_c, 9, 63, 42
4, 457430, Note_on_c, 9, 65, 0
4, 457441, Note_on_c, 9, 44, 36
4, 457523, Note_on_c, 9, 63, 0
4, 457574, Note_on_c, 9, 44, 0
4, 457619, Note_on_c, 9, 59, 0
4, 457838, Note_on_c, 9, 59, 31
4, 457894, Note_on_c, 9, 63, 44
4, 457896, Note_on_c, 9, 59, 0
4, 458016, Note_on_c, 9, 63, 0
4, 458122, Note_on_c, 9, 65, 35
4, 458135, Note_on_c, 9, 59, 77
4, 458221, Note_on_c, 9, 65, 0
4, 458343, Note_on_c, 9, 59, 0
4, 458401, Note_on_c, 9, 44, 33
4, 458525, Note_on_c, 9, 44, 0
4, 458841, Note_on_c, 9, 63, 44
4, 458859, Note_on_c, 9, 65, 36
4, 458898, Note_on_c, 9, 59, 71
4, 458932, Note_on_c, 9, 65, 0
4, 458992, Note_on_c, 9, 63, 0
4, 459125, Note_on_c, 9, 59, 0
4, 459346, Note_on_c, 9, 59, 41
4, 459361, Note_on_c, 9, 44, 29
4, 459409, Note_on_c, 9, 59, 0
4, 459454, Note_on_c, 9, 44, 0
4, 459561, Note_on_c, 9, 65, 38
4, 459610, Note_on_c, 9, 63, 45
4, 459621, Note_on_c, 9, 59, 71
4, 459627, Note_on_c, 9, 65, 0
4, 459757, Note_on_c, 9, 63, 0
4, 459847, Note_on_c, 9, 59, 0
4, 460094, Note_on_c, 9, 63, 31
4, 460160, Note_on_c, 9, 59, 30
4, 460208, Note_on_c, 9, 63, 0
4, 460220, Note_on_c, 9, 59, 0
4, 460294, Note_on_c, 9, 63, 34
4, 460321, Note_on_c, 9, 44, 35
4, 460337, Note_on_c, 9, 59, 60
4, 460419, Note_on_c, 9, 63, 0
4, 460482, Note_on_c, 9, 44, 0
4, 460552, Note_on_c, 9, 59, 0
4, 460858, Note_on_c, 9, 59, 37
4, 460922, Note_on_c, 9, 59, 0
4, 461280, Note_on_c, 9, 63, 44
4, 461281, Note_on_c, 9, 44, 33
4, 461316, Note_on_c, 9, 59, 80
4, 461386, Note_on_c, 9, 63, 0
4, 461428, Note_on_c, 9, 44, 0
4, 461458, Note_on_c, 9, 59, 0
4, 461783, Note_on_c, 9, 63, 39
4, 461943, Note_on_c, 9, 63, 0
4, 462241, Note_on_c, 9, 44, 37
4, 462258, Note_on_c, 9, 59, 78
4, 462387, Note_on_c, 9, 44, 0
4, 462390, Note_on_c, 9, 59, 0
4, 462727, Note_on_c, 9, 59, 29
4, 462777, Note_on_c, 9, 63, 38
4, 462786, Note_on_c, 9, 59, 0
4, 462931, Note_on_c, 9, 63, 0
4, 463186, Note_on_c, 9, 59, 76
4, 463201, Note_on_c, 9, 44, 38
4, 463326, Note_on_c, 9, 59, 0
4, 463354, Note_on_c, 9, 44, 0
4, 463553, Note_on_c, 9, 63, 39
4, 463652, Note_on_c, 9, 59, 33
4, 463692, Note_on_c, 9, 63, 0
4, 463729, Note_on_c, 9, 59, 0
4, 464019, Note_on_c, 9, 63, 27
4, 464136, Note_on_c, 9, 59, 75
4, 464161, Note_on_c, 9, 44, 35
4, 464163, Note_on_c, 9, 63, 0
4, 464215, Note_on_c, 9, 63, 18
4, 464247, Note_on_c, 9, 44, 0
4, 464284, Note_on_c, 9, 59, 0
4, 464345, Note_on_c, 9, 63, 0
4, 464604, Note_on_c, 9, 59, 33
4, 464679, Note_on_c, 9, 59, 0
4, 465099, Note_on_c, 9, 59, 60
4, 465121, Note_on_c, 9, 44, 32
4, 465153, Note_on_c, 9, 63, 38
4, 465231, Note_on_c, 9, 59, 0
4, 465268, Note_on_c, 9, 63, 0
4, 465270, Note_on_c, 9, 44, 0
4, 465664, Note_on_c, 9, 63, 41
4, 465835, Note_on_c, 9, 63, 0
4, 466081, Note_on_c, 9, 44, 34
4, 466081, Note_on_c, 9, 59, 57
4, 466192, Note_on_c, 9, 44, 0
4, 466246, Note_on_c, 9, 59, 0
4, 466614, Note_on_c, 9, 63, 38
4, 466744, Note_on_c, 9, 63, 0
4, 467040, Note_on_c, 9, 59, 64
4, 467041, Note_on_c, 9, 44, 25
4, 467159, Note_on_c, 9, 44, 0
4, 467188, Note_on_c, 9, 59, 0
4, 467374, Note_on_c, 9, 63, 38
4, 467493, Note_on_c, 9, 63, 0
4, 467842, Note_on_c, 9, 63, 21
4, 467899, Note_on_c, 9, 63, 0
4, 467994, Note_on_c, 9, 63, 34
4, 468001, Note_on_c, 9, 44, 36
4, 468011, Note_on_c, 9, 59, 66
4, 468107, Note_on_c, 9, 63, 0
4, 468144, Note_on_c, 9, 44, 0
4, 468147, Note_on_c, 9, 59, 0
4, 468936, Note_on_c, 9, 59, 74
4, 468938, Note_on_c, 9, 63, 36
4, 468961, Note_on_c, 9, 44, 34
4, 469005, Note_on_c, 9, 63, 0
4, 469075, Note_on_c, 9, 59, 0
4, 469082, Note_on_c, 9, 44, 0
4, 469411, Note_on_c, 9, 59, 26
4, 469429, Note_on_c, 9, 63, 38
4, 469471, Note_on_c, 9, 59, 0
4, 469550, Note_on_c, 9, 63, 0
4, 469904, Note_on_c, 9, 59, 72
4, 469921, Note_on_c, 9, 44, 35
4, 470053, Note_on_c, 9, 59, 0
4, 470069, Note_on_c, 9, 44, 0
4, 470381, Note_on_c, 9, 63, 40
4, 470496, Note_on_c, 9, 63, 0
4, 470820, Note_on_c, 9, 59, 58
4, 470881, Note_on_c, 9, 44, 40
4, 470996, Note_on_c, 9, 59, 0
4, 471022, Note_on_c, 9, 44, 0
4, 471146, Note_on_c, 9, 63, 44
4, 471176, Note_on_c, 9, 59, 40
4, 471240, Note_on_c, 9, 59, 0
4, 471275, Note_on_c, 9, 63, 0
4, 471366, Note_on_c, 9, 59, 38
4, 471530, Note_on_c, 9, 59, 0
4, 471592, Note_on_c, 9, 63, 23
4, 471653, Note_on_c, 9, 63, 0
4, 471783, Note_on_c, 9, 59, 60
4, 471790, Note_on_c, 9, 63, 31
4, 471841, Note_on_c, 9, 44, 37
4, 471879, Note_on_c, 9, 59, 0
4, 471905, Note_on_c, 9, 63, 0
4, 471978, Note_on_c, 9, 44, 0
4, 472757, Note_on_c, 9, 59, 58
4, 472776, Note_on_c, 9, 63, 44
4, 472801, Note_on_c, 9, 44, 40
4, 472894, Note_on_c, 9, 63, 0
4, 472936, Note_on_c, 9, 59, 0
4, 472967, Note_on_c, 9, 44, 0
4, 473541, Note_on_c, 9, 63, 44
4, 473663, Note_on_c, 9, 63, 0
4, 473741, Note_on_c, 9, 59, 62
4, 473761, Note_on_c, 9, 44, 45
4, 473914, Note_on_c, 9, 44, 0
4, 473948, Note_on_c, 9, 59, 0
4, 474006, Note_on_c, 9, 63, 24
4, 474086, Note_on_c, 9, 63, 0
4, 474200, Note_on_c, 9, 63, 44
4, 474351, Note_on_c, 9, 63, 0
4, 474699, Note_on_c, 9, 59, 73
4, 474721, Note_on_c, 9, 44, 39
4, 474850, Note_on_c, 9, 44, 0
4, 474861, Note_on_c, 9, 59, 0
4, 474953, Note_on_c, 9, 63, 41
4, 475094, Note_on_c, 9, 63, 0
4, 475161, Note_on_c, 9, 59, 29
4, 475231, Note_on_c, 9, 59, 0
4, 475368, Note_on_c, 9, 63, 34
4, 475430, Note_on_c, 9, 63, 0
4, 475565, Note_on_c, 9, 63, 38
4, 475670, Note_on_c, 9, 59, 69
4, 475681, Note_on_c, 9, 44, 45
4, 475712, Note_on_c, 9, 63, 0
4, 475827, Note_on_c, 9, 44, 0
4, 475864, Note_on_c, 9, 59, 0
4, 476137, Note_on_c, 9, 59, 32
4, 476200, Note_on_c, 9, 59, 0
4, 476573, Note_on_c, 9, 63, 45
4, 476580, Note_on_c, 9, 59, 71
4, 476641, Note_on_c, 9, 44, 39
4, 476686, Note_on_c, 9, 63, 0
4, 476723, Note_on_c, 9, 59, 0
4, 476785, Note_on_c, 9, 44, 0
4, 477066, Note_on_c, 9, 63, 42
4, 477198, Note_on_c, 9, 63, 0
4, 477535, Note_on_c, 9, 59, 65
4, 477601, Note_on_c, 9, 44, 43
4, 477605, Note_on_c, 9, 59, 0
4, 477757, Note_on_c, 9, 44, 0
4, 478054, Note_on_c, 9, 63, 41
4, 478179, Note_on_c, 9, 63, 0
4, 478496, Note_on_c, 9, 59, 75
4, 478561, Note_on_c, 9, 44, 49
4, 478611, Note_on_c, 9, 59, 0
4, 478699, Note_on_c, 9, 44, 0
4, 478778, Note_on_c, 9, 63, 39
4, 478939, Note_on_c, 9, 63, 0
4, 479274, Note_on_c, 9, 59, 69
4, 479278, Note_on_c, 9, 63, 17
4, 479371, Note_on_c, 9, 63, 0
4, 479382, Note_on_c, 9, 59, 0
4, 479446, Note_on_c, 9, 63, 23
4, 479494, Note_on_c, 9, 59, 57
4, 479521, Note_on_c, 9, 44, 42
4, 479586, Note_on_c, 9, 63, 0
4, 479599, Note_on_c, 9, 59, 0
4, 479682, Note_on_c, 9, 44, 0
4, 479975, Note_on_c, 9, 59, 37
4, 480040, Note_on_c, 9, 59, 0
4, 480422, Note_on_c, 9, 63, 36
4, 480481, Note_on_c, 9, 44, 45
4, 480485, Note_on_c, 9, 59, 76
4, 480546, Note_on_c, 9, 63, 0
4, 480602, Note_on_c, 9, 44, 0
4, 480616, Note_on_c, 9, 59, 0
4, 480934, Note_on_c, 9, 59, 37
4, 480941, Note_on_c, 9, 63, 40
4, 481004, Note_on_c, 9, 59, 0
4, 481075, Note_on_c, 9, 63, 0
4, 481441, Note_on_c, 9, 44, 35
4, 481473, Note_on_c, 9, 59, 80
4, 481613, Note_on_c, 9, 59, 0
4, 481613, Note_on_c, 9, 44, 0
4, 481944, Note_on_c, 9, 63, 42
4, 482050, Note_on_c, 9, 63, 0
4, 482401, Note_on_c, 9, 44, 39
4, 482410, Note_on_c, 9, 59, 58
4, 482561, Note_on_c, 9, 44, 0
4, 482584, Note_on_c, 9, 59, 0
4, 482695, Note_on_c, 9, 63, 40
4, 482826, Note_on_c, 9, 63, 0
4, 483112, Note_on_c, 9, 63, 29
4, 483184, Note_on_c, 9, 59, 31
4, 483212, Note_on_c, 9, 63, 0
4, 483246, Note_on_c, 9, 59, 0
4, 483318, Note_on_c, 9, 63, 40
4, 483354, Note_on_c, 9, 59, 58
4, 483361, Note_on_c, 9, 44, 43
4, 483438, Note_on_c, 9, 63, 0
4, 483514, Note_on_c, 9, 44, 0
4, 483578, Note_on_c, 9, 59, 0
4, 484300, Note_on_c, 9, 63, 40
4, 484312, Note_on_c, 9, 59, 63
4, 484321, Note_on_c, 9, 44, 37
4, 484412, Note_on_c, 9, 44, 0
4, 484418, Note_on_c, 9, 63, 0
4, 484440, Note_on_c, 9, 59, 0
4, 484784, Note_on_c, 9, 63, 45
4, 484906, Note_on_c, 9, 63, 0
4, 485281, Note_on_c, 9, 44, 46
4, 485290, Note_on_c, 9, 59, 71
4, 485393, Note_on_c, 9, 44, 0
4, 485439, Note_on_c, 9, 59, 0
4, 485722, Note_on_c, 9, 63, 45
4, 485838, Note_on_c, 9, 63, 0
4, 486236, Note_on_c, 9, 59, 80
4, 486241, Note_on_c, 9, 44, 32
4, 486374, Note_on_c, 9, 44, 0
4, 486417, Note_on_c, 9, 59, 0
4, 486489, Note_on_c, 9, 63, 38
4, 486611, Note_on_c, 9, 63, 0
4, 486672, Note_on_c, 9, 59, 33
4, 486737, Note_on_c, 9, 59, 0
4, 486940, Note_on_c, 9, 63, 44
4, 487059, Note_on_c, 9, 63, 0
4, 487161, Note_on_c, 9, 59, 62
4, 487201, Note_on_c, 9, 46, 36
4, 487293, Note_on_c, 9, 46, 0
4, 487334, Note_on_c, 9, 59, 0
4, 487393, Note_on_c, 9, 63, 33
4, 487441, Note_on_c, 9, 63, 0
4, 487627, Note_on_c, 9, 63, 38
4, 487638, Note_on_c, 9, 59, 24
4, 487695, Note_on_c, 9, 59, 0
4, 487797, Note_on_c, 9, 63, 0
4, 488074, Note_on_c, 9, 63, 34
4, 488124, Note_on_c, 9, 59, 74
4, 488144, Note_on_c, 9, 63, 0
4, 488161, Note_on_c, 9, 44, 40
4, 488263, Note_on_c, 9, 59, 0
4, 488310, Note_on_c, 9, 44, 0
4, 488373, Note_on_c, 9, 63, 40
4, 488505, Note_on_c, 9, 63, 0
4, 488576, Note_on_c, 9, 59, 36
4, 488642, Note_on_c, 9, 59, 0
4, 488828, Note_on_c, 9, 63, 39
4, 488926, Note_on_c, 9, 63, 0
4, 489059, Note_on_c, 9, 59, 71
4, 489088, Note_on_c, 9, 63, 47
4, 489121, Note_on_c, 9, 44, 36
4, 489202, Note_on_c, 9, 59, 0
4, 489226, Note_on_c, 9, 44, 0
4, 489270, Note_on_c, 9, 63, 0
4, 489558, Note_on_c, 9, 63, 25
4, 489643, Note_on_c, 9, 63, 0
4, 489851, Note_on_c, 9, 63, 42
4, 489994, Note_on_c, 9, 63, 0
4, 490053, Note_on_c, 9, 59, 78
4, 490081, Note_on_c, 9, 44, 36
4, 490187, Note_on_c, 9, 59, 0
4, 490195, Note_on_c, 9, 44, 0
4, 490547, Note_on_c, 9, 63, 46
4, 490747, Note_on_c, 9, 63, 0
4, 490822, Note_on_c, 9, 59, 29
4, 490885, Note_on_c, 9, 59, 0
4, 490962, Note_on_c, 9, 63, 40
4, 490995, Note_on_c, 9, 59, 62
4, 491041, Note_on_c, 9, 44, 43
4, 491150, Note_on_c, 9, 63, 0
4, 491180, Note_on_c, 9, 44, 0
4, 491208, Note_on_c, 9, 59, 0
4, 491938, Note_on_c, 9, 63, 36
4, 491987, Note_on_c, 9, 59, 74
4, 492001, Note_on_c, 9, 44, 34
4, 492071, Note_on_c, 9, 63, 0
4, 492087, Note_on_c, 9, 44, 0
4, 492138, Note_on_c, 9, 59, 0
4, 492442, Note_on_c, 9, 59, 26
4, 492459, Note_on_c, 9, 63, 41
4, 492494, Note_on_c, 9, 59, 0
4, 492605, Note_on_c, 9, 63, 0
4, 492935, Note_on_c, 9, 59, 80
4, 492961, Note_on_c, 9, 44, 33
4, 493050, Note_on_c, 9, 44, 0
4, 493100, Note_on_c, 9, 59, 0
4, 493415, Note_on_c, 9, 63, 40
4, 493522, Note_on_c, 9, 63, 0
4, 493821, Note_on_c, 9, 59, 53
4, 493875, Note_on_c, 9, 59, 0
4, 493921, Note_on_c, 9, 44, 48
4, 494060, Note_on_c, 9, 44, 0
4, 494169, Note_on_c, 9, 63, 39
4, 494318, Note_on_c, 9, 63, 0
4, 494454, Note_on_c, 9, 59, 67
4, 494615, Note_on_c, 9, 59, 0
4, 494644, Note_on_c, 9, 63, 28
4, 494707, Note_on_c, 9, 63, 0
4, 494850, Note_on_c, 9, 63, 37
4, 494881, Note_on_c, 9, 44, 44
4, 494982, Note_on_c, 9, 63, 0
4, 494990, Note_on_c, 9, 44, 0
4, 495228, Note_on_c, 9, 59, 61
4, 495382, Note_on_c, 9, 59, 0
4, 495816, Note_on_c, 9, 63, 36
4, 495841, Note_on_c, 9, 44, 33
4, 495881, Note_on_c, 9, 59, 76
4, 495932, Note_on_c, 9, 44, 0
4, 495934, Note_on_c, 9, 63, 0
4, 496086, Note_on_c, 9, 59, 0
4, 496344, Note_on_c, 9, 63, 40
4, 496516, Note_on_c, 9, 63, 0
4, 496801, Note_on_c, 9, 44, 42
4, 496803, Note_on_c, 9, 59, 71
4, 496887, Note_on_c, 9, 44, 0
4, 496935, Note_on_c, 9, 59, 0
4, 497281, Note_on_c, 9, 59, 26
4, 497286, Note_on_c, 9, 63, 39
4, 497340, Note_on_c, 9, 59, 0
4, 497416, Note_on_c, 9, 63, 0
4, 497748, Note_on_c, 9, 59, 79
4, 497761, Note_on_c, 9, 44, 42
4, 497858, Note_on_c, 9, 44, 0
4, 497882, Note_on_c, 9, 59, 0
4, 498018, Note_on_c, 9, 63, 36
4, 498173, Note_on_c, 9, 59, 32
4, 498180, Note_on_c, 9, 63, 0
4, 498238, Note_on_c, 9, 59, 0
4, 498457, Note_on_c, 9, 63, 30
4, 498540, Note_on_c, 9, 63, 0
4, 498635, Note_on_c, 9, 59, 72
4, 498656, Note_on_c, 9, 63, 38
4, 498721, Note_on_c, 9, 44, 43
4, 498743, Note_on_c, 9, 59, 0
4, 498785, Note_on_c, 9, 63, 0
4, 498798, Note_on_c, 9, 44, 0
4, 499119, Note_on_c, 9, 59, 33
4, 499185, Note_on_c, 9, 59, 0
4, 499638, Note_on_c, 9, 63, 42
4, 499658, Note_on_c, 9, 59, 70
4, 499681, Note_on_c, 9, 44, 43
4, 499763, Note_on_c, 9, 63, 0
4, 499802, Note_on_c, 9, 59, 0
4, 499809, Note_on_c, 9, 44, 0
4, 500166, Note_on_c, 9, 63, 42
4, 500312, Note_on_c, 9, 63, 0
4, 500595, Note_on_c, 9, 59, 74
4, 500641, Note_on_c, 9, 44, 40
4, 500710, Note_on_c, 9, 44, 0
4, 500757, Note_on_c, 9, 59, 0
4, 501132, Note_on_c, 9, 63, 38
4, 501289, Note_on_c, 9, 63, 0
4, 501580, Note_on_c, 9, 59, 67
4, 501601, Note_on_c, 9, 44, 39
4, 501690, Note_on_c, 9, 44, 0
4, 501712, Note_on_c, 9, 59, 0
4, 501873, Note_on_c, 9, 63, 42
4, 502005, Note_on_c, 9, 63, 0
4, 502330, Note_on_c, 9, 63, 28
4, 502398, Note_on_c, 9, 63, 0
4, 502515, Note_on_c, 9, 59, 69
4, 502552, Note_on_c, 9, 63, 34
4, 502561, Note_on_c, 9, 44, 42
4, 502657, Note_on_c, 9, 63, 0
4, 502673, Note_on_c, 9, 59, 0
4, 502701, Note_on_c, 9, 44, 0
4, 503473, Note_on_c, 9, 59, 72
4, 503510, Note_on_c, 9, 63, 36
4, 503521, Note_on_c, 9, 44, 43
4, 503596, Note_on_c, 9, 44, 0
4, 503619, Note_on_c, 9, 63, 0
4, 503624, Note_on_c, 9, 59, 0
4, 504018, Note_on_c, 9, 63, 36
4, 504155, Note_on_c, 9, 63, 0
4, 504416, Note_on_c, 9, 59, 70
4, 504481, Note_on_c, 9, 44, 47
4, 504562, Note_on_c, 9, 44, 0
4, 504570, Note_on_c, 9, 59, 0
4, 504889, Note_on_c, 9, 59, 35
4, 504955, Note_on_c, 9, 59, 0
4, 504976, Note_on_c, 9, 63, 36
4, 505051, Note_on_c, 9, 63, 0
4, 505432, Note_on_c, 9, 59, 74
4, 505441, Note_on_c, 9, 44, 37
4, 505550, Note_on_c, 9, 44, 0
4, 505576, Note_on_c, 9, 59, 0
4, 505713, Note_on_c, 9, 63, 36
4, 505844, Note_on_c, 9, 63, 0
4, 506177, Note_on_c, 9, 63, 28
4, 506246, Note_on_c, 9, 63, 0
4, 506388, Note_on_c, 9, 59, 49
4, 506388, Note_on_c, 9, 63, 37
4, 506401, Note_on_c, 9, 46, 35
4, 506480, Note_on_c, 9, 46, 0
4, 506491, Note_on_c, 9, 63, 0
4, 506520, Note_on_c, 9, 59, 0
4, 506839, Note_on_c, 9, 59, 37
4, 506922, Note_on_c, 9, 59, 0
4, 507346, Note_on_c, 9, 59, 80
4, 507361, Note_on_c, 9, 44, 34
4, 507366, Note_on_c, 9, 63, 34
4, 507437, Note_on_c, 9, 44, 0
4, 507474, Note_on_c, 9, 63, 0
4, 507518, Note_on_c, 9, 59, 0
4, 507842, Note_on_c, 9, 59, 24
4, 507854, Note_on_c, 9, 63, 36
4, 507907, Note_on_c, 9, 59, 0
4, 508017, Note_on_c, 9, 63, 0
4, 508270, Note_on_c, 9, 59, 67
4, 508321, Note_on_c, 9, 44, 37
4, 508410, Note_on_c, 9, 44, 0
4, 508480, Note_on_c, 9, 59, 0
4, 508859, Note_on_c, 9, 63, 33
4, 508959, Note_on_c, 9, 63, 0
4, 509243, Note_on_c, 9, 59, 57
4, 509281, Note_on_c, 9, 44, 45
4, 509366, Note_on_c, 9, 44, 0
4, 509380, Note_on_c, 9, 59, 0
4, 509574, Note_on_c, 9, 63, 36
4, 509739, Note_on_c, 9, 63, 0
4, 510053, Note_on_c, 9, 63, 22
4, 510118, Note_on_c, 9, 63, 0
4, 510181, Note_on_c, 9, 59, 63
4, 510230, Note_on_c, 9, 63, 32
4, 510241, Note_on_c, 9, 44, 40
4, 510335, Note_on_c, 9, 44, 0
4, 510363, Note_on_c, 9, 63, 0
4, 510363, Note_on_c, 9, 59, 0
4, 511179, Note_on_c, 9, 63, 29
4, 511180, Note_on_c, 9, 59, 72
4, 511201, Note_on_c, 9, 44, 42
4, 511293, Note_on_c, 9, 44, 0
4, 511323, Note_on_c, 9, 63, 0
4, 511362, Note_on_c, 9, 59, 0
4, 511683, Note_on_c, 9, 63, 31
4, 511906, Note_on_c, 9, 63, 0
4, 511941, Note_on_c, 9, 59, 44
4, 512007, Note_on_c, 9, 59, 0
4, 512120, Note_on_c, 9, 59, 58
4, 512161, Note_on_c, 9, 44, 39
4, 512273, Note_on_c, 9, 44, 0
4, 512386, Note_on_c, 9, 59, 0
4, 512464, Note_on_c, 9, 63, 26
4, 512520, Note_on_c, 9, 63, 0
4, 512629, Note_on_c, 9, 63, 31
4, 512756, Note_on_c, 9, 63, 0
4, 513111, Note_on_c, 9, 59, 75
4, 513121, Note_on_c, 9, 44, 37
4, 513264, Note_on_c, 9, 44, 0
4, 513310, Note_on_c, 9, 59, 0
4, 513316, Note_on_c, 9, 63, 31
4, 513378, Note_on_c, 9, 63, 0
4, 513539, Note_on_c, 9, 63, 24
4, 513660, Note_on_c, 9, 63, 0
4, 514012, Note_on_c, 9, 63, 37
4, 514039, Note_on_c, 9, 59, 71
4, 514081, Note_on_c, 9, 44, 46
4, 514120, Note_on_c, 9, 63, 0
4, 514214, Note_on_c, 9, 44, 0
4, 514251, Note_on_c, 9, 59, 0
4, 514979, Note_on_c, 9, 63, 36
4, 515000, Note_on_c, 9, 59, 76
4, 515041, Note_on_c, 9, 44, 45
4, 515110, Note_on_c, 9, 63, 0
4, 515168, Note_on_c, 9, 59, 0
4, 515192, Note_on_c, 9, 44, 0
4, 515502, Note_on_c, 9, 63, 34
4, 515666, Note_on_c, 9, 63, 0
4, 515943, Note_on_c, 9, 59, 70
4, 516001, Note_on_c, 9, 44, 47
4, 516110, Note_on_c, 9, 59, 0
4, 516146, Note_on_c, 9, 44, 0
4, 516231, Note_on_c, 9, 63, 37
4, 516343, Note_on_c, 9, 63, 0
4, 516712, Note_on_c, 9, 63, 38
4, 516864, Note_on_c, 9, 63, 0
4, 516906, Note_on_c, 9, 59, 63
4, 516961, Note_on_c, 9, 44, 43
4, 517097, Note_on_c, 9, 44, 0
4, 517101, Note_on_c, 9, 59, 0
4, 517191, Note_on_c, 9, 63, 20
4, 517246, Note_on_c, 9, 63, 0
4, 517363, Note_on_c, 9, 63, 31
4, 517507, Note_on_c, 9, 63, 0
4, 517733, Note_on_c, 9, 59, 53
4, 517921, Note_on_c, 9, 44, 49
4, 517930, Note_on_c, 9, 59, 0
4, 518055, Note_on_c, 9, 44, 0
4, 518842, Note_on_c, 9, 63, 33
4, 518859, Note_on_c, 9, 65, 31
4, 518881, Note_on_c, 9, 44, 42
4, 518915, Note_on_c, 9, 63, 0
4, 518916, Note_on_c, 9, 59, 74
4, 518924, Note_on_c, 9, 65, 0
4, 519019, Note_on_c, 9, 44, 0
4, 519067, Note_on_c, 9, 59, 0
4, 519328, Note_on_c, 9, 63, 38
4, 519495, Note_on_c, 9, 63, 0
4, 519593, Note_on_c, 9, 65, 32
4, 519688, Note_on_c, 9, 65, 0
4, 519697, Note_on_c, 9, 59, 37
4, 519760, Note_on_c, 9, 59, 0
4, 519841, Note_on_c, 9, 44, 46
4, 519899, Note_on_c, 9, 59, 44
4, 519926, Note_on_c, 9, 44, 0
4, 520013, Note_on_c, 9, 59, 0
4, 520276, Note_on_c, 9, 65, 35
4, 520291, Note_on_c, 9, 65, 31
4, 520332, Note_on_c, 9, 63, 38
4, 520375, Note_on_c, 9, 59, 54
4, 520414, Note_on_c, 9, 65, 0
4, 520432, Note_on_c, 9, 59, 0
4, 520437, Note_on_c, 9, 63, 0
4, 520457, Note_on_c, 9, 65, 0
4, 520771, Note_on_c, 9, 65, 37
4, 520801, Note_on_c, 9, 46, 49
4, 520834, Note_on_c, 9, 59, 66
4, 520920, Note_on_c, 9, 46, 0
4, 520947, Note_on_c, 9, 59, 0
4, 520981, Note_on_c, 9, 65, 0
4, 521084, Note_on_c, 9, 63, 42
4, 521243, Note_on_c, 9, 63, 0
4, 521527, Note_on_c, 9, 63, 37
4, 521562, Note_on_c, 9, 59, 61
4, 521616, Note_on_c, 9, 59, 0
4, 521631, Note_on_c, 9, 63, 0
4, 521729, Note_on_c, 9, 63, 40
4, 521748, Note_on_c, 9, 59, 64
4, 521761, Note_on_c, 9, 44, 55
4, 521801, Note_on_c, 9, 44, 0
4, 521837, Note_on_c, 9, 63, 0
4, 521903, Note_on_c, 9, 59, 0
4, 522696, Note_on_c, 9, 63, 36
4, 522721, Note_on_c, 9, 44, 47
4, 522761, Note_on_c, 9, 59, 76
4, 522814, Note_on_c, 9, 63, 0
4, 522941, Note_on_c, 9, 44, 0
4, 522966, Note_on_c, 9, 59, 0
4, 523224, Note_on_c, 9, 63, 40
4, 523396, Note_on_c, 9, 63, 0
4, 523681, Note_on_c, 9, 44, 34
4, 523683, Note_on_c, 9, 59, 71
4, 523815, Note_on_c, 9, 59, 0
4, 523848, Note_on_c, 9, 44, 0
4, 524161, Note_on_c, 9, 59, 26
4, 524166, Note_on_c, 9, 63, 39
4, 524220, Note_on_c, 9, 59, 0
4, 524296, Note_on_c, 9, 63, 0
4, 524628, Note_on_c, 9, 59, 79
4, 524641, Note_on_c, 9, 44, 23
4, 524762, Note_on_c, 9, 59, 0
4, 524868, Note_on_c, 9, 44, 0
4, 524898, Note_on_c, 9, 63, 36
4, 525053, Note_on_c, 9, 59, 32
4, 525060, Note_on_c, 9, 63, 0
4, 525118, Note_on_c, 9, 59, 0
4, 525337, Note_on_c, 9, 63, 30
4, 525420, Note_on_c, 9, 63, 0
4, 525515, Note_on_c, 9, 59, 72
4, 525536, Note_on_c, 9, 63, 38
4, 525601, Note_on_c, 9, 44, 37
4, 525623, Note_on_c, 9, 59, 0
4, 525665, Note_on_c, 9, 63, 0
4, 525799, Note_on_c, 9, 44, 0
4, 525999, Note_on_c, 9, 59, 33
4, 526065, Note_on_c, 9, 59, 0
4, 526518, Note_on_c, 9, 63, 72
4, 526538, Note_on_c, 9, 59, 72
4, 526561, Note_on_c, 9, 46, 72
4, 526643, Note_on_c, 9, 63, 0
4, 526682, Note_on_c, 9, 59, 0
4, 526754, Note_on_c, 9, 46, 0
4, 527046, Note_on_c, 9, 63, 70
4, 527192, Note_on_c, 9, 63, 0
4, 527475, Note_on_c, 9, 59, 70
4, 527521, Note_on_c, 9, 44, 69
4, 527637, Note_on_c, 9, 59, 0
4, 527663, Note_on_c, 9, 44, 0
4, 528012, Note_on_c, 9, 63, 68
4, 528169, Note_on_c, 9, 63, 0
4, 528460, Note_on_c, 9, 59, 67
4, 528481, Note_on_c, 9, 44, 66
4, 528592, Note_on_c, 9, 59, 0
4, 528626, Note_on_c, 9, 44, 0
4, 528753, Note_on_c, 9, 63, 66
4, 528885, Note_on_c, 9, 63, 0
4, 529210, Note_on_c, 9, 63, 64
4, 529278, Note_on_c, 9, 63, 0
4, 529395, Note_on_c, 9, 59, 64
4, 529432, Note_on_c, 9, 63, 61
4, 529441, Note_on_c, 9, 44, 61
4, 529537, Note_on_c, 9, 63, 0
4, 529540, Note_on_c, 9, 44, 0
4, 529553, Note_on_c, 9, 59, 0
4, 530353, Note_on_c, 9, 59, 55
4, 530390, Note_on_c, 9, 63, 55
4, 530401, Note_on_c, 9, 44, 55
4, 530499, Note_on_c, 9, 63, 0
4, 530504, Note_on_c, 9, 59, 0
4, 530510, Note_on_c, 9, 44, 0
4, 530898, Note_on_c, 9, 63, 51
4, 531035, Note_on_c, 9, 63, 0
4, 531296, Note_on_c, 9, 59, 49
4, 531361, Note_on_c, 9, 44, 49
4, 531450, Note_on_c, 9, 59, 0
4, 531517, Note_on_c, 9, 44, 0
4, 531769, Note_on_c, 9, 59, 46
4, 531835, Note_on_c, 9, 59, 0
4, 531856, Note_on_c, 9, 63, 45
4, 531931, Note_on_c, 9, 63, 0
4, 532312, Note_on_c, 9, 59, 43
4, 532321, Note_on_c, 9, 44, 43
4, 532432, Note_on_c, 9, 44, 0
4, 532456, Note_on_c, 9, 59, 0
4, 532593, Note_on_c, 9, 63, 42
4, 532724, Note_on_c, 9, 63, 0
4, 533057, Note_on_c, 9, 63, 39
4, 533126, Note_on_c, 9, 63, 0
4, 533268, Note_on_c, 9, 63, 38
4, 533268, Note_on_c, 9, 59, 38
4, 533281, Note_on_c, 9, 44, 38
4, 533371, Note_on_c, 9, 63, 0
4, 533400, Note_on_c, 9, 59, 0
4, 533410, Note_on_c, 9, 44, 0
4, 533719, Note_on_c, 9, 59, 37
4, 533802, Note_on_c, 9, 59, 0
4, 534226, Note_on_c, 9, 59, 36
4, 534241, Note_on_c, 9, 44, 36
4, 534246, Note_on_c, 9, 63, 36
4, 534354, Note_on_c, 9, 63, 0
4, 534365, Note_on_c, 9, 44, 0
4, 534398, Note_on_c, 9, 59, 0
4, 534722, Note_on_c, 9, 59, 34
4, 534734, Note_on_c, 9, 63, 34
4, 534787, Note_on_c, 9, 59, 0
4, 534897, Note_on_c, 9, 63, 0
4, 535150, Note_on_c, 9, 59, 32
4, 535201, Note_on_c, 9, 44, 32
4, 535339, Note_on_c, 9, 44, 0
4, 535360, Note_on_c, 9, 59, 0
4, 535739, Note_on_c, 9, 63, 28
4, 535839, Note_on_c, 9, 63, 0
4, 536123, Note_on_c, 9, 59, 26
4, 536161, Note_on_c, 9, 44, 26
4, 536260, Note_on_c, 9, 59, 0
4, 536304, Note_on_c, 9, 44, 0
4, 536454, Note_on_c, 9, 63, 25
4, 536619, Note_on_c, 9, 63, 0
4, 536933, Note_on_c, 9, 63, 22
4, 536998, Note_on_c, 9, 63, 0
4, 537061, Note_on_c, 9, 59, 22
4, 537110, Note_on_c, 9, 63, 22
4, 537121, Note_on_c, 9, 44, 22
4, 537243, Note_on_c, 9, 63, 0
4, 537243, Note_on_c, 9, 59, 0
4, 537284, Note_on_c, 9, 44, 0
4, 538059, Note_on_c, 9, 63, 19
4, 538060, Note_on_c, 9, 59, 19
4, 538081, Note_on_c, 9, 44, 19
4, 538203, Note_on_c, 9, 63, 0
4, 538242, Note_on_c, 9, 59, 0
4, 538264, Note_on_c, 9, 44, 0
4, 538563, Note_on_c, 9, 63, 16
4, 538786, Note_on_c, 9, 63, 0
4, 538821, Note_on_c, 9, 59, 15
4, 538887, Note_on_c, 9, 59, 0
4, 539000, Note_on_c, 9, 59, 14
4, 539041, Note_on_c, 9, 44, 14
4, 539144, Note_on_c, 9, 44, 0
4, 539266, Note_on_c, 9, 59, 0
4, 539344, Note_on_c, 9, 63, 13
4, 539400, Note_on_c, 9, 63, 0
4, 539509, Note_on_c, 9, 63, 13
4, 539636, Note_on_c, 9, 63, 0
4, 539991, Note_on_c, 9, 59, 11
4, 540001, Note_on_c, 9, 44, 11
4, 540078, Note_on_c, 9, 44, 0
4, 540190, Note_on_c, 9, 59, 0
4, 540196, Note_on_c, 9, 63, 10
4, 540258, Note_on_c, 9, 63, 0
4, 540419, Note_on_c, 9, 63, 10
4, 540540, Note_on_c, 9, 63, 0
4, 540892, Note_on_c, 9, 63, 10
4, 540919, Note_on_c, 9, 59, 10
4, 540961, Note_on_c, 9, 44, 10
4, 541000, Note_on_c, 9, 63, 0
4, 541089, Note_on_c, 9, 44, 0
4, 541131, Note_on_c, 9, 59, 0
4, 541859, Note_on_c, 9, 63, 9
4, 541880, Note_on_c, 9, 59, 9
4, 541921, Note_on_c, 9, 44, 9
4, 541990, Note_on_c, 9, 63, 0
4, 542014, Note_on_c, 9, 44, 0
4, 542048, Note_on_c, 9, 59, 0
4, 542382, Note_on_c, 9, 63, 7
4, 542546, Note_on_c, 9, 63, 0
4, 542823, Note_on_c, 9, 59, 6
4, 542881, Note_on_c, 9, 44, 6
4, 542983, Note_on_c, 9, 44, 0
4, 542990, Note_on_c, 9, 59, 0
4, 543111, Note_on_c, 9, 63, 2
4, 543223, Note_on_c, 9, 63, 0
4, 543592, Note_on_c, 9, 63, 2
4, 543744, Note_on_c, 9, 63, 0
4, 543786, Note_on_c, 9, 59, 2
4, 543841, Note_on_c, 9, 44, 2
4, 543956, Note_on_c, 9, 44, 0
4, 543981, Note_on_c, 9, 59, 0
4, 544071, Note_on_c, 9, 63, 2
4, 544126, Note_on_c, 9, 63, 0
4, 544243, Note_on_c, 9, 63, 2
4, 544387, Note_on_c, 9, 63, 0
4, 544613, Note_on_c, 9, 59, 2
4, 544801, Note_on_c, 9, 46, 2
4, 544810, Note_on_c, 9, 59, 0
4, 544933, Note_on_c, 9, 46, 0
4, 544933, End_track
0, 0, End_of_file
