0, 0, Header, 1, 6, 960
1, 0, Start_track
1, 0, Title_t, "Little Girl Blue (Rodgers and Hart)"
1, 0, Text_t, "dougmck@pipeline.com.au\012"
1, 0, Time_signature, 4, 2, 24, 8
1, 0, Key_signature, 2, "major"
1, 0, Tempo, 800000
1, 0, End_track
2, 0, Start_track
2, 0, End_track
3, 0, Start_track
3, 0, Title_t, "MIDI 1"
3, 0, Control_c, 0, 64, 127
3, 0, Control_c, 0, 64, 0
3, 0, Control_c, 0, 64, 127
3, 849, Note_on_c, 0, 74, 63
3, 854, Note_on_c, 0, 50, 29
3, 881, Control_c, 0, 64, 0
3, 1171, Control_c, 0, 64, 127
3, 1569, Note_on_c, 0, 57, 28
3, 2171, Note_on_c, 0, 66, 31
3, 2193, Note_on_c, 0, 62, 25
3, 2265, Note_on_c, 0, 74, 0
3, 3265, Note_on_c, 0, 50, 0
3, 3339, Note_on_c, 0, 74, 74
3, 3425, Note_on_c, 0, 66, 0
3, 3756, Note_on_c, 0, 74, 0
3, 3776, Note_on_c, 0, 62, 0
3, 3971, Note_on_c, 0, 74, 65
3, 3977, Note_on_c, 0, 70, 64
3, 3978, Note_on_c, 0, 66, 56
3, 3991, Note_on_c, 0, 57, 0
3, 3997, Note_on_c, 0, 50, 24
3, 4000, Control_c, 0, 64, 0
3, 4404, Control_c, 0, 64, 127
3, 4486, Note_on_c, 0, 58, 37
3, 4490, Note_on_c, 0, 74, 0
3, 5055, Note_on_c, 0, 61, 38
3, 5370, Note_on_c, 0, 61, 0
3, 5858, Note_on_c, 0, 74, 51
3, 5973, Note_on_c, 0, 50, 0
3, 6080, Note_on_c, 0, 66, 0
3, 6098, Note_on_c, 0, 70, 0
3, 6146, Note_on_c, 0, 74, 0
3, 6630, Note_on_c, 0, 58, 0
3, 6653, Note_on_c, 0, 78, 64
3, 6665, Note_on_c, 0, 71, 77
3, 6676, Control_c, 0, 64, 0
3, 6677, Note_on_c, 0, 50, 24
3, 6686, Note_on_c, 0, 59, 39
3, 7011, Control_c, 0, 64, 127
3, 7277, Note_on_c, 0, 59, 0
3, 7401, Note_on_c, 0, 59, 80
3, 7839, Note_on_c, 0, 78, 0
3, 7865, Note_on_c, 0, 67, 88
3, 8228, Note_on_c, 0, 78, 80
3, 8283, Note_on_c, 0, 50, 0
3, 8545, Note_on_c, 0, 59, 0
3, 8671, Note_on_c, 0, 78, 0
3, 8679, Note_on_c, 0, 71, 0
3, 8723, Note_on_c, 0, 76, 68
3, 8729, Note_on_c, 0, 50, 51
3, 8731, Note_on_c, 0, 61, 67
3, 8773, Control_c, 0, 64, 0
3, 9052, Control_c, 0, 64, 127
3, 9249, Note_on_c, 0, 67, 0
3, 9375, Note_on_c, 0, 67, 43
3, 9403, Note_on_c, 0, 76, 0
3, 10003, Note_on_c, 0, 73, 21
3, 10787, Note_on_c, 0, 73, 0
3, 10862, Note_on_c, 0, 76, 39
3, 11149, Note_on_c, 0, 61, 0
3, 11165, Note_on_c, 0, 50, 0
3, 11520, Note_on_c, 0, 67, 0
3, 11520, Note_on_c, 0, 76, 0
3, 11744, Note_on_c, 0, 61, 43
3, 11752, Note_on_c, 0, 66, 40
3, 11754, Note_on_c, 0, 74, 56
3, 11768, Control_c, 0, 64, 0
3, 11779, Note_on_c, 0, 69, 46
3, 12038, Control_c, 0, 64, 127
3, 12269, Control_c, 0, 64, 0
3, 12282, Note_on_c, 0, 59, 71
3, 12308, Note_on_c, 0, 61, 0
3, 12455, Control_c, 0, 64, 127
3, 12590, Note_on_c, 0, 69, 0
3, 12665, Note_on_c, 0, 66, 0
3, 12809, Note_on_c, 0, 66, 43
3, 12825, Note_on_c, 0, 69, 59
3, 13251, Control_c, 0, 64, 0
3, 13253, Note_on_c, 0, 57, 90
3, 13306, Note_on_c, 0, 59, 0
3, 13405, Control_c, 0, 64, 127
3, 13497, Note_on_c, 0, 66, 0
3, 13634, Note_on_c, 0, 69, 0
3, 13678, Note_on_c, 0, 74, 0
3, 13685, Note_on_c, 0, 66, 51
3, 14036, Note_on_c, 0, 66, 0
3, 14123, Note_on_c, 0, 50, 60
3, 14182, Control_c, 0, 64, 0
3, 14211, Control_c, 0, 64, 127
3, 14618, Note_on_c, 0, 61, 37
3, 14675, Note_on_c, 0, 64, 35
3, 14782, Note_on_c, 0, 64, 0
3, 14802, Note_on_c, 0, 61, 0
3, 15179, Note_on_c, 0, 74, 63
3, 15675, Note_on_c, 0, 57, 0
3, 15727, Note_on_c, 0, 50, 0
3, 15825, Note_on_c, 0, 74, 0
3, 16189, Note_on_c, 0, 71, 45
3, 16194, Control_c, 0, 64, 0
3, 16196, Note_on_c, 0, 60, 36
3, 16199, Note_on_c, 0, 38, 40
3, 16202, Note_on_c, 0, 26, 41
3, 16207, Note_on_c, 0, 64, 49
3, 16216, Note_on_c, 0, 67, 36
3, 16378, Control_c, 0, 64, 127
3, 16387, Note_on_c, 0, 60, 0
3, 16411, Note_on_c, 0, 26, 0
3, 16468, Note_on_c, 0, 64, 0
3, 16482, Note_on_c, 0, 38, 0
3, 16511, Note_on_c, 0, 67, 0
3, 16564, Note_on_c, 0, 71, 0
3, 17143, Note_on_c, 0, 83, 66
3, 17150, Note_on_c, 0, 72, 61
3, 17151, Note_on_c, 0, 76, 62
3, 17152, Note_on_c, 0, 79, 60
3, 17160, Note_on_c, 0, 71, 66
3, 17597, Note_on_c, 0, 72, 0
3, 17600, Note_on_c, 0, 83, 0
3, 17625, Note_on_c, 0, 79, 0
3, 17632, Note_on_c, 0, 76, 0
3, 17648, Note_on_c, 0, 71, 0
3, 17829, Note_on_c, 0, 72, 59
3, 17830, Note_on_c, 0, 71, 54
3, 17831, Note_on_c, 0, 76, 57
3, 17836, Note_on_c, 0, 83, 53
3, 17838, Note_on_c, 0, 79, 49
3, 18280, Note_on_c, 0, 72, 0
3, 18302, Note_on_c, 0, 76, 0
3, 18310, Note_on_c, 0, 79, 0
3, 18384, Note_on_c, 0, 83, 0
3, 18410, Note_on_c, 0, 71, 0
3, 18437, Note_on_c, 0, 81, 60
3, 18444, Note_on_c, 0, 72, 61
3, 18446, Note_on_c, 0, 76, 59
3, 18453, Note_on_c, 0, 69, 53
3, 18603, Note_on_c, 0, 69, 0
3, 18606, Note_on_c, 0, 81, 0
3, 18635, Note_on_c, 0, 76, 0
3, 18683, Note_on_c, 0, 72, 0
3, 19065, Note_on_c, 0, 77, 70
3, 19070, Note_on_c, 0, 72, 63
3, 19072, Note_on_c, 0, 70, 70
3, 19087, Note_on_c, 0, 65, 60
3, 19087, Note_on_c, 0, 66, 55
3, 19130, Control_c, 0, 64, 0
3, 19332, Control_c, 0, 64, 127
3, 19472, Note_on_c, 0, 66, 0
3, 19472, Note_on_c, 0, 70, 0
3, 19472, Note_on_c, 0, 77, 0
3, 19472, Note_on_c, 0, 72, 0
3, 19472, Note_on_c, 0, 65, 0
3, 19972, Note_on_c, 0, 75, 49
3, 20479, Note_on_c, 0, 75, 0
3, 21160, Note_on_c, 0, 74, 43
3, 21169, Note_on_c, 0, 66, 25
3, 21174, Note_on_c, 0, 60, 31
3, 21175, Note_on_c, 0, 70, 35
3, 21207, Note_on_c, 0, 50, 19
3, 21229, Control_c, 0, 64, 0
3, 21557, Control_c, 0, 64, 127
3, 22002, Note_on_c, 0, 60, 0
3, 22028, Note_on_c, 0, 74, 0
3, 22049, Note_on_c, 0, 72, 43
3, 22086, Note_on_c, 0, 50, 0
3, 22415, Note_on_c, 0, 66, 0
3, 22538, Note_on_c, 0, 72, 0
3, 22722, Note_on_c, 0, 70, 0
3, 22896, Note_on_c, 0, 71, 26
3, 22944, Note_on_c, 0, 62, 25
3, 22949, Note_on_c, 0, 50, 29
3, 22953, Note_on_c, 0, 67, 29
3, 22961, Control_c, 0, 64, 0
3, 22962, Note_on_c, 0, 59, 26
3, 23153, Control_c, 0, 64, 127
3, 23204, Note_on_c, 0, 59, 0
3, 23296, Note_on_c, 0, 62, 0
3, 23482, Note_on_c, 0, 67, 0
3, 23537, Note_on_c, 0, 59, 17
3, 23550, Note_on_c, 0, 71, 0
3, 24069, Note_on_c, 0, 74, 68
3, 24121, Note_on_c, 0, 62, 40
3, 24453, Note_on_c, 0, 59, 0
3, 24638, Note_on_c, 0, 59, 37
3, 24642, Note_on_c, 0, 62, 0
3, 25111, Note_on_c, 0, 66, 46
3, 25120, Note_on_c, 0, 62, 59
3, 25213, Note_on_c, 0, 59, 0
3, 25373, Note_on_c, 0, 62, 0
3, 25564, Note_on_c, 0, 59, 78
3, 25674, Note_on_c, 0, 66, 0
3, 25737, Note_on_c, 0, 74, 0
3, 25982, Note_on_c, 0, 62, 69
3, 25988, Note_on_c, 0, 74, 92
3, 26064, Note_on_c, 0, 59, 0
3, 26413, Note_on_c, 0, 59, 71
3, 26438, Note_on_c, 0, 74, 0
3, 26459, Note_on_c, 0, 62, 0
3, 26546, Note_on_c, 0, 59, 0
3, 26606, Note_on_c, 0, 50, 0
3, 26933, Note_on_c, 0, 81, 73
3, 26935, Control_c, 0, 64, 0
3, 26940, Note_on_c, 0, 78, 60
3, 26947, Note_on_c, 0, 48, 71
3, 26948, Note_on_c, 0, 74, 80
3, 26967, Note_on_c, 0, 69, 71
3, 27127, Control_c, 0, 64, 127
3, 27243, Note_on_c, 0, 48, 0
3, 27722, Note_on_c, 0, 58, 74
3, 27966, Note_on_c, 0, 69, 0
3, 28103, Note_on_c, 0, 64, 75
3, 28249, Note_on_c, 0, 74, 0
3, 28406, Note_on_c, 0, 78, 0
3, 28997, Note_on_c, 0, 81, 0
3, 29070, Note_on_c, 0, 69, 26
3, 29145, Note_on_c, 0, 69, 0
3, 29238, Note_on_c, 0, 74, 40
3, 29346, Note_on_c, 0, 78, 55
3, 29348, Note_on_c, 0, 74, 0
3, 29447, Note_on_c, 0, 78, 0
3, 29466, Note_on_c, 0, 81, 58
3, 29498, Note_on_c, 0, 81, 0
3, 29547, Note_on_c, 0, 81, 69
3, 29648, Note_on_c, 0, 86, 58
3, 29652, Note_on_c, 0, 81, 0
3, 29749, Note_on_c, 0, 90, 44
3, 29758, Note_on_c, 0, 86, 0
3, 29791, Note_on_c, 0, 90, 0
3, 29908, Note_on_c, 0, 93, 58
3, 30020, Note_on_c, 0, 98, 30
3, 30074, Note_on_c, 0, 102, 50
3, 30216, Note_on_c, 0, 105, 51
3, 30328, Note_on_c, 0, 98, 0
3, 30333, Note_on_c, 0, 102, 0
3, 30371, Note_on_c, 0, 105, 0
3, 30383, Note_on_c, 0, 93, 0
3, 30720, Note_on_c, 0, 64, 0
3, 30720, Note_on_c, 0, 58, 0
3, 31510, Note_on_c, 0, 74, 66
3, 31937, Note_on_c, 0, 74, 0
3, 32066, Note_on_c, 0, 74, 34
3, 32080, Note_on_c, 0, 66, 20
3, 32100, Note_on_c, 0, 50, 17
3, 32138, Control_c, 0, 64, 0
3, 32438, Control_c, 0, 64, 127
3, 32473, Note_on_c, 0, 57, 35
3, 32750, Note_on_c, 0, 57, 0
3, 32753, Note_on_c, 0, 62, 49
3, 32766, Note_on_c, 0, 74, 0
3, 32790, Note_on_c, 0, 50, 0
3, 32968, Note_on_c, 0, 62, 0
3, 32984, Note_on_c, 0, 66, 0
3, 32991, Note_on_c, 0, 74, 74
3, 33174, Note_on_c, 0, 74, 0
3, 33274, Note_on_c, 0, 74, 66
3, 33306, Note_on_c, 0, 47, 48
3, 33325, Control_c, 0, 64, 0
3, 33583, Control_c, 0, 64, 127
3, 33666, Note_on_c, 0, 54, 29
3, 34100, Note_on_c, 0, 74, 0
3, 34159, Note_on_c, 0, 62, 34
3, 34276, Note_on_c, 0, 62, 0
3, 35286, Note_on_c, 0, 86, 56
3, 35430, Note_on_c, 0, 47, 0
3, 35467, Note_on_c, 0, 54, 0
3, 35585, Note_on_c, 0, 86, 0
3, 35937, Note_on_c, 0, 91, 36
3, 35957, Control_c, 0, 64, 0
3, 35957, Note_on_c, 0, 71, 30
3, 35960, Note_on_c, 0, 64, 38
3, 35963, Note_on_c, 0, 74, 33
3, 35972, Note_on_c, 0, 86, 44
3, 35985, Note_on_c, 0, 83, 22
3, 35989, Note_on_c, 0, 79, 18
3, 36101, Control_c, 0, 64, 127
3, 36158, Note_on_c, 0, 64, 0
3, 36208, Note_on_c, 0, 91, 0
3, 36213, Note_on_c, 0, 74, 0
3, 36239, Note_on_c, 0, 71, 0
3, 36253, Note_on_c, 0, 79, 0
3, 36263, Note_on_c, 0, 83, 0
3, 36304, Note_on_c, 0, 86, 0
3, 36688, Control_c, 0, 64, 0
3, 36696, Note_on_c, 0, 90, 48
3, 36728, Note_on_c, 0, 74, 36
3, 36731, Note_on_c, 0, 66, 33
3, 36732, Note_on_c, 0, 81, 37
3, 36746, Note_on_c, 0, 86, 32
3, 36804, Control_c, 0, 64, 127
3, 37092, Note_on_c, 0, 86, 0
3, 37099, Note_on_c, 0, 90, 0
3, 37119, Note_on_c, 0, 66, 0
3, 37125, Note_on_c, 0, 74, 0
3, 37170, Note_on_c, 0, 81, 0
3, 37525, Control_c, 0, 64, 0
3, 37540, Note_on_c, 0, 79, 32
3, 37545, Note_on_c, 0, 88, 36
3, 37548, Note_on_c, 0, 67, 33
3, 37554, Note_on_c, 0, 74, 37
3, 37669, Control_c, 0, 64, 127
3, 38033, Note_on_c, 0, 88, 0
3, 38062, Note_on_c, 0, 67, 0
3, 38075, Note_on_c, 0, 74, 0
3, 38109, Note_on_c, 0, 79, 0
3, 39150, Note_on_c, 0, 83, 48
3, 39163, Note_on_c, 0, 80, 38
3, 39184, Note_on_c, 0, 74, 31
3, 39199, Control_c, 0, 64, 0
3, 39204, Note_on_c, 0, 68, 29
3, 39353, Control_c, 0, 64, 127
3, 39515, Note_on_c, 0, 83, 0
3, 39557, Note_on_c, 0, 74, 0
3, 39582, Note_on_c, 0, 80, 0
3, 40014, Note_on_c, 0, 85, 61
3, 40027, Control_c, 0, 64, 0
3, 40028, Note_on_c, 0, 76, 48
3, 40049, Note_on_c, 0, 68, 0
3, 40052, Note_on_c, 0, 69, 40
3, 40114, Control_c, 0, 64, 127
3, 40400, Note_on_c, 0, 85, 0
3, 40539, Note_on_c, 0, 76, 0
3, 40640, Note_on_c, 0, 69, 0
3, 40799, Note_on_c, 0, 81, 32
3, 40825, Note_on_c, 0, 73, 18
3, 40832, Note_on_c, 0, 69, 30
3, 40833, Note_on_c, 0, 76, 46
3, 40843, Note_on_c, 0, 43, 28
3, 40870, Control_c, 0, 64, 0
3, 40935, Note_on_c, 0, 55, 3
3, 41025, Control_c, 0, 64, 127
3, 41547, Note_on_c, 0, 55, 0
3, 41568, Note_on_c, 0, 73, 0
3, 41568, Note_on_c, 0, 69, 0
3, 41568, Note_on_c, 0, 81, 0
3, 41568, Note_on_c, 0, 43, 0
3, 41568, Note_on_c, 0, 76, 0
3, 41936, Note_on_c, 0, 86, 41
3, 41954, Note_on_c, 0, 54, 31
3, 41955, Note_on_c, 0, 42, 40
3, 41957, Note_on_c, 0, 78, 25
3, 41963, Note_on_c, 0, 74, 24
3, 41968, Note_on_c, 0, 81, 34
3, 41991, Control_c, 0, 64, 0
3, 42153, Control_c, 0, 64, 127
3, 42317, Note_on_c, 0, 54, 0
3, 42361, Note_on_c, 0, 42, 0
3, 42396, Note_on_c, 0, 86, 0
3, 42491, Note_on_c, 0, 81, 0
3, 42514, Note_on_c, 0, 78, 0
3, 42543, Note_on_c, 0, 74, 0
3, 42971, Note_on_c, 0, 48, 37
3, 42984, Note_on_c, 0, 41, 33
3, 43044, Note_on_c, 0, 74, 54
3, 43056, Note_on_c, 0, 71, 51
3, 43071, Note_on_c, 0, 57, 53
3, 43080, Note_on_c, 0, 67, 42
3, 43093, Note_on_c, 0, 63, 40
3, 43118, Control_c, 0, 64, 0
3, 43339, Control_c, 0, 64, 127
3, 43499, Note_on_c, 0, 63, 0
3, 43499, Note_on_c, 0, 57, 0
3, 43499, Note_on_c, 0, 41, 0
3, 43499, Note_on_c, 0, 74, 0
3, 43499, Note_on_c, 0, 48, 0
3, 43499, Note_on_c, 0, 67, 0
3, 43499, Note_on_c, 0, 71, 0
3, 44172, Note_on_c, 0, 67, 67
3, 44176, Note_on_c, 0, 40, 37
3, 44191, Note_on_c, 0, 62, 54
3, 44193, Note_on_c, 0, 59, 45
3, 44214, Control_c, 0, 64, 0
3, 44443, Control_c, 0, 64, 127
3, 44782, Note_on_c, 0, 67, 0
3, 44824, Note_on_c, 0, 59, 0
3, 44991, Note_on_c, 0, 62, 0
3, 45490, Note_on_c, 0, 69, 67
3, 45492, Note_on_c, 0, 62, 66
3, 45499, Note_on_c, 0, 66, 48
3, 45505, Note_on_c, 0, 42, 48
3, 45507, Note_on_c, 0, 40, 0
3, 45511, Note_on_c, 0, 57, 38
3, 45513, Control_c, 0, 64, 0
3, 45718, Control_c, 0, 64, 127
3, 45894, Note_on_c, 0, 57, 0
3, 46036, Note_on_c, 0, 69, 0
3, 46039, Note_on_c, 0, 62, 0
3, 46084, Note_on_c, 0, 66, 0
3, 46409, Note_on_c, 0, 71, 66
3, 46415, Note_on_c, 0, 40, 58
3, 46420, Note_on_c, 0, 67, 71
3, 46426, Note_on_c, 0, 42, 0
3, 46428, Note_on_c, 0, 62, 64
3, 46447, Control_c, 0, 64, 0
3, 46638, Control_c, 0, 64, 127
3, 46875, Note_on_c, 0, 40, 0
3, 46941, Note_on_c, 0, 67, 0
3, 46953, Note_on_c, 0, 62, 0
3, 46993, Note_on_c, 0, 71, 0
3, 47657, Note_on_c, 0, 73, 49
3, 47675, Note_on_c, 0, 61, 44
3, 47677, Note_on_c, 0, 45, 47
3, 47682, Note_on_c, 0, 33, 48
3, 47716, Control_c, 0, 64, 0
3, 47938, Control_c, 0, 64, 127
3, 48194, Note_on_c, 0, 33, 0
3, 48292, Note_on_c, 0, 45, 0
3, 48490, Note_on_c, 0, 61, 0
3, 48495, Note_on_c, 0, 73, 0
3, 48834, Note_on_c, 0, 74, 73
3, 48834, Note_on_c, 0, 67, 74
3, 48836, Control_c, 0, 64, 0
3, 48838, Note_on_c, 0, 64, 74
3, 48842, Note_on_c, 0, 48, 55
3, 48845, Note_on_c, 0, 58, 46
3, 49012, Control_c, 0, 64, 127
3, 49016, Note_on_c, 0, 58, 0
3, 49222, Note_on_c, 0, 64, 0
3, 49325, Note_on_c, 0, 67, 0
3, 49357, Note_on_c, 0, 65, 67
3, 49364, Note_on_c, 0, 69, 61
3, 49554, Note_on_c, 0, 69, 0
3, 49606, Note_on_c, 0, 65, 0
3, 49837, Note_on_c, 0, 65, 71
3, 49850, Note_on_c, 0, 69, 68
3, 49852, Note_on_c, 0, 58, 48
3, 50141, Note_on_c, 0, 65, 0
3, 50206, Note_on_c, 0, 58, 0
3, 50249, Note_on_c, 0, 69, 0
3, 50285, Note_on_c, 0, 67, 66
3, 50293, Note_on_c, 0, 64, 69
3, 50305, Note_on_c, 0, 48, 0
3, 50544, Note_on_c, 0, 64, 0
3, 50554, Note_on_c, 0, 67, 0
3, 50859, Note_on_c, 0, 65, 60
3, 50875, Note_on_c, 0, 62, 64
3, 50875, Note_on_c, 0, 46, 37
3, 50876, Note_on_c, 0, 56, 35
3, 50908, Control_c, 0, 64, 0
3, 51225, Control_c, 0, 64, 127
3, 51450, Note_on_c, 0, 74, 0
3, 51479, Note_on_c, 0, 53, 30
3, 51818, Note_on_c, 0, 62, 0
3, 51876, Note_on_c, 0, 56, 0
3, 52012, Note_on_c, 0, 65, 0
3, 53115, Note_on_c, 0, 67, 51
3, 53118, Note_on_c, 0, 64, 40
3, 53532, Note_on_c, 0, 64, 0
3, 53551, Note_on_c, 0, 67, 0
3, 53629, Note_on_c, 0, 65, 48
3, 53637, Note_on_c, 0, 62, 25
3, 53727, Note_on_c, 0, 53, 0
3, 53855, Note_on_c, 0, 65, 0
3, 53858, Note_on_c, 0, 62, 0
3, 53907, Note_on_c, 0, 46, 0
3, 54180, Note_on_c, 0, 70, 34
3, 54182, Note_on_c, 0, 63, 37
3, 54188, Note_on_c, 0, 54, 25
3, 54189, Note_on_c, 0, 60, 26
3, 54195, Note_on_c, 0, 44, 34
3, 54218, Control_c, 0, 64, 0
3, 54494, Control_c, 0, 64, 127
3, 54592, Note_on_c, 0, 63, 0
3, 54628, Note_on_c, 0, 60, 0
3, 54742, Note_on_c, 0, 60, 38
3, 54743, Note_on_c, 0, 63, 44
3, 54977, Note_on_c, 0, 60, 0
3, 55271, Note_on_c, 0, 63, 0
3, 55349, Note_on_c, 0, 62, 36
3, 55372, Note_on_c, 0, 65, 43
3, 55819, Note_on_c, 0, 62, 0
3, 55904, Note_on_c, 0, 65, 0
3, 56158, Note_on_c, 0, 60, 30
3, 56180, Note_on_c, 0, 63, 26
3, 56595, Note_on_c, 0, 54, 0
3, 56676, Note_on_c, 0, 70, 0
3, 56685, Note_on_c, 0, 44, 0
3, 56748, Note_on_c, 0, 60, 0
3, 56985, Note_on_c, 0, 63, 0
3, 57199, Note_on_c, 0, 43, 42
3, 57201, Control_c, 0, 64, 0
3, 57205, Note_on_c, 0, 59, 45
3, 57217, Note_on_c, 0, 62, 43
3, 57218, Note_on_c, 0, 67, 30
3, 57233, Note_on_c, 0, 64, 34
3, 57247, Note_on_c, 0, 53, 20
3, 57363, Control_c, 0, 64, 127
3, 57431, Note_on_c, 0, 43, 0
3, 57479, Note_on_c, 0, 53, 0
3, 57517, Note_on_c, 0, 59, 0
3, 57563, Note_on_c, 0, 64, 0
3, 57617, Note_on_c, 0, 62, 0
3, 57717, Note_on_c, 0, 67, 0
3, 57865, Note_on_c, 0, 41, 57
3, 57888, Note_on_c, 0, 67, 68
3, 57899, Note_on_c, 0, 62, 74
3, 57903, Control_c, 0, 64, 0
3, 57908, Note_on_c, 0, 57, 32
3, 58056, Control_c, 0, 64, 127
3, 58172, Note_on_c, 0, 57, 0
3, 58184, Note_on_c, 0, 41, 0
3, 58332, Note_on_c, 0, 67, 0
3, 58400, Note_on_c, 0, 62, 0
3, 58663, Note_on_c, 0, 40, 39
3, 58667, Note_on_c, 0, 67, 63
3, 58676, Note_on_c, 0, 62, 60
3, 58690, Note_on_c, 0, 55, 46
3, 58718, Control_c, 0, 64, 0
3, 58910, Control_c, 0, 64, 127
3, 58966, Note_on_c, 0, 55, 0
3, 58998, Note_on_c, 0, 40, 0
3, 59082, Note_on_c, 0, 67, 0
3, 59226, Note_on_c, 0, 62, 0
3, 59641, Note_on_c, 0, 38, 36
3, 59642, Note_on_c, 0, 69, 43
3, 59643, Note_on_c, 0, 62, 54
3, 59646, Note_on_c, 0, 57, 38
3, 59656, Note_on_c, 0, 66, 36
3, 59665, Note_on_c, 0, 50, 29
3, 59670, Control_c, 0, 64, 0
3, 59863, Control_c, 0, 64, 127
3, 60308, Note_on_c, 0, 38, 0
3, 60314, Note_on_c, 0, 57, 0
3, 60343, Note_on_c, 0, 62, 0
3, 60352, Note_on_c, 0, 50, 0
3, 60454, Note_on_c, 0, 69, 0
3, 60480, Note_on_c, 0, 66, 0
3, 60896, Control_c, 0, 64, 0
3, 60991, Note_on_c, 0, 71, 50
3, 61010, Note_on_c, 0, 59, 44
3, 61011, Note_on_c, 0, 64, 55
3, 61020, Note_on_c, 0, 36, 37
3, 61048, Note_on_c, 0, 52, 38
3, 61301, Control_c, 0, 64, 127
3, 61510, Note_on_c, 0, 59, 0
3, 61517, Note_on_c, 0, 36, 0
3, 61586, Note_on_c, 0, 64, 0
3, 61666, Note_on_c, 0, 52, 0
3, 61684, Note_on_c, 0, 71, 0
3, 62177, Note_on_c, 0, 74, 59
3, 62195, Note_on_c, 0, 34, 50
3, 62198, Note_on_c, 0, 69, 61
3, 62208, Note_on_c, 0, 46, 33
3, 62214, Note_on_c, 0, 65, 44
3, 62223, Control_c, 0, 64, 0
3, 62229, Note_on_c, 0, 62, 53
3, 62557, Control_c, 0, 64, 127
3, 62841, Note_on_c, 0, 62, 0
3, 62843, Note_on_c, 0, 46, 0
3, 62844, Note_on_c, 0, 65, 0
3, 62936, Note_on_c, 0, 69, 0
3, 62965, Note_on_c, 0, 74, 0
3, 62985, Note_on_c, 0, 34, 0
3, 63554, Note_on_c, 0, 76, 57
3, 63570, Note_on_c, 0, 64, 59
3, 63578, Note_on_c, 0, 45, 55
3, 63590, Note_on_c, 0, 33, 44
3, 63600, Control_c, 0, 64, 0
3, 63853, Control_c, 0, 64, 127
3, 63921, Note_on_c, 0, 64, 0
3, 63951, Note_on_c, 0, 33, 0
3, 64010, Note_on_c, 0, 45, 0
3, 64101, Note_on_c, 0, 76, 0
3, 64886, Note_on_c, 0, 93, 82
3, 64899, Note_on_c, 0, 69, 76
3, 64903, Note_on_c, 0, 81, 59
3, 64931, Note_on_c, 0, 69, 0
3, 64936, Note_on_c, 0, 81, 0
3, 64951, Note_on_c, 0, 93, 0
3, 68267, Note_on_c, 0, 88, 48
3, 68610, Note_on_c, 0, 88, 0
3, 68649, Note_on_c, 0, 86, 48
3, 68663, Note_on_c, 0, 50, 22
3, 68671, Control_c, 0, 64, 0
3, 68900, Control_c, 0, 64, 127
3, 69041, Note_on_c, 0, 50, 0
3, 69107, Note_on_c, 0, 57, 24
3, 69412, Note_on_c, 0, 86, 0
3, 69587, Note_on_c, 0, 66, 30
3, 70145, Note_on_c, 0, 69, 50
3, 70240, Note_on_c, 0, 66, 0
3, 70718, Note_on_c, 0, 57, 0
3, 70725, Note_on_c, 0, 69, 0
3, 70738, Note_on_c, 0, 78, 38
3, 70806, Control_c, 0, 64, 0
3, 70810, Note_on_c, 0, 50, 12
3, 71067, Control_c, 0, 64, 127
3, 71188, Note_on_c, 0, 58, 47
3, 71338, Note_on_c, 0, 50, 0
3, 71688, Note_on_c, 0, 61, 31
3, 71704, Note_on_c, 0, 66, 30
3, 71706, Note_on_c, 0, 70, 43
3, 72009, Note_on_c, 0, 61, 0
3, 72239, Note_on_c, 0, 66, 0
3, 72421, Note_on_c, 0, 78, 0
3, 72429, Note_on_c, 0, 74, 53
3, 72872, Note_on_c, 0, 70, 0
3, 72974, Note_on_c, 0, 58, 0
3, 73001, Note_on_c, 0, 74, 0
3, 73006, Note_on_c, 0, 50, 37
3, 73010, Note_on_c, 0, 78, 61
3, 73077, Control_c, 0, 64, 0
3, 73366, Control_c, 0, 64, 127
3, 73406, Note_on_c, 0, 59, 62
3, 73516, Note_on_c, 0, 50, 0
3, 73849, Note_on_c, 0, 71, 50
3, 73856, Note_on_c, 0, 67, 34
3, 73872, Note_on_c, 0, 66, 56
3, 74104, Note_on_c, 0, 59, 0
3, 74173, Note_on_c, 0, 66, 0
3, 74177, Note_on_c, 0, 78, 0
3, 74258, Note_on_c, 0, 67, 0
3, 74293, Note_on_c, 0, 78, 69
3, 74312, Note_on_c, 0, 59, 50
3, 74688, Note_on_c, 0, 78, 0
3, 74787, Note_on_c, 0, 76, 64
3, 74809, Note_on_c, 0, 50, 45
3, 74820, Control_c, 0, 64, 0
3, 74828, Note_on_c, 0, 59, 0
3, 74854, Note_on_c, 0, 71, 0
3, 74993, Control_c, 0, 64, 127
3, 75284, Note_on_c, 0, 61, 30
3, 75854, Note_on_c, 0, 67, 38
3, 75881, Note_on_c, 0, 64, 24
3, 76039, Note_on_c, 0, 76, 0
3, 76523, Note_on_c, 0, 64, 0
3, 76561, Note_on_c, 0, 61, 0
3, 76635, Note_on_c, 0, 76, 32
3, 76850, Note_on_c, 0, 50, 0
3, 76957, Note_on_c, 0, 76, 0
3, 77585, Note_on_c, 0, 67, 0
3, 78020, Note_on_c, 0, 50, 32
3, 78031, Note_on_c, 0, 74, 39
3, 78089, Control_c, 0, 64, 0
3, 78341, Control_c, 0, 64, 127
3, 78464, Note_on_c, 0, 57, 40
3, 78852, Note_on_c, 0, 62, 64
3, 78866, Note_on_c, 0, 74, 0
3, 79184, Note_on_c, 0, 57, 0
3, 79184, Note_on_c, 0, 74, 79
3, 79241, Note_on_c, 0, 50, 0
3, 79548, Note_on_c, 0, 74, 0
3, 79701, Note_on_c, 0, 74, 57
3, 79736, Control_c, 0, 64, 0
3, 79737, Note_on_c, 0, 47, 33
3, 80208, Control_c, 0, 64, 127
3, 80254, Note_on_c, 0, 62, 0
3, 80258, Note_on_c, 0, 54, 31
3, 81162, Note_on_c, 0, 62, 30
3, 81229, Note_on_c, 0, 62, 0
3, 81229, Note_on_c, 0, 74, 0
3, 81229, Note_on_c, 0, 47, 0
3, 81229, Note_on_c, 0, 54, 0
3, 82206, Note_on_c, 0, 66, 35
3, 82498, Note_on_c, 0, 62, 15
3, 82569, Note_on_c, 0, 66, 0
3, 82649, Note_on_c, 0, 62, 0
3, 82904, Note_on_c, 0, 38, 36
3, 82962, Note_on_c, 0, 45, 30
3, 83017, Note_on_c, 0, 55, 46
3, 83055, Control_c, 0, 64, 0
3, 83070, Note_on_c, 0, 71, 35
3, 83083, Note_on_c, 0, 60, 58
3, 83114, Note_on_c, 0, 64, 43
3, 83189, Note_on_c, 0, 55, 0
3, 83211, Note_on_c, 0, 67, 64
3, 83268, Control_c, 0, 64, 127
3, 83362, Note_on_c, 0, 60, 0
3, 83427, Note_on_c, 0, 64, 0
3, 83462, Note_on_c, 0, 67, 0
3, 83597, Note_on_c, 0, 38, 0
3, 83754, Note_on_c, 0, 81, 63
3, 83774, Note_on_c, 0, 45, 0
3, 83957, Note_on_c, 0, 71, 0
3, 84376, Note_on_c, 0, 81, 0
3, 84417, Note_on_c, 0, 81, 39
3, 84550, Note_on_c, 0, 81, 0
3, 85017, Note_on_c, 0, 71, 58
3, 85032, Note_on_c, 0, 60, 34
3, 85038, Note_on_c, 0, 64, 57
3, 85038, Note_on_c, 0, 67, 51
3, 85360, Note_on_c, 0, 60, 0
3, 85433, Note_on_c, 0, 64, 0
3, 85434, Note_on_c, 0, 67, 0
3, 85507, Note_on_c, 0, 71, 0
3, 85748, Note_on_c, 0, 50, 42
3, 85749, Note_on_c, 0, 66, 49
3, 85751, Note_on_c, 0, 71, 62
3, 85758, Note_on_c, 0, 63, 40
3, 85761, Note_on_c, 0, 60, 43
3, 85768, Control_c, 0, 64, 0
3, 86021, Control_c, 0, 64, 127
3, 86940, Note_on_c, 0, 50, 0
3, 86980, Note_on_c, 0, 71, 0
3, 86983, Note_on_c, 0, 69, 54
3, 87275, Note_on_c, 0, 69, 0
3, 87382, Note_on_c, 0, 66, 0
3, 87426, Note_on_c, 0, 63, 0
3, 87457, Note_on_c, 0, 60, 0
3, 88098, Note_on_c, 0, 54, 37
3, 88106, Note_on_c, 0, 65, 45
3, 88118, Note_on_c, 0, 58, 43
3, 88136, Control_c, 0, 64, 0
3, 88136, Note_on_c, 0, 38, 31
3, 88150, Note_on_c, 0, 60, 24
3, 88156, Note_on_c, 0, 26, 25
3, 88446, Control_c, 0, 64, 127
3, 88811, Note_on_c, 0, 26, 0
3, 88916, Note_on_c, 0, 38, 0
3, 89193, Note_on_c, 0, 58, 0
3, 89193, Note_on_c, 0, 54, 0
3, 89193, Note_on_c, 0, 65, 0
3, 89193, Note_on_c, 0, 60, 0
3, 89847, Note_on_c, 0, 59, 41
3, 89860, Note_on_c, 0, 50, 28
3, 89866, Note_on_c, 0, 43, 33
3, 89882, Control_c, 0, 64, 0
3, 89907, Note_on_c, 0, 59, 0
3, 89910, Note_on_c, 0, 60, 63
3, 89993, Note_on_c, 0, 60, 0
3, 90005, Note_on_c, 0, 59, 54
3, 90144, Note_on_c, 0, 59, 0
3, 90162, Note_on_c, 0, 58, 34
3, 90270, Note_on_c, 0, 58, 0
3, 90327, Note_on_c, 0, 59, 63
3, 90391, Note_on_c, 0, 59, 0
3, 90543, Note_on_c, 0, 64, 63
3, 90632, Note_on_c, 0, 64, 0
3, 90761, Note_on_c, 0, 62, 49
3, 90850, Note_on_c, 0, 62, 0
3, 90933, Note_on_c, 0, 61, 45
3, 91019, Note_on_c, 0, 61, 0
3, 91100, Note_on_c, 0, 62, 67
3, 91152, Note_on_c, 0, 62, 0
3, 91268, Note_on_c, 0, 69, 74
3, 91410, Note_on_c, 0, 69, 0
3, 91434, Note_on_c, 0, 66, 63
3, 91545, Note_on_c, 0, 66, 0
3, 91615, Note_on_c, 0, 67, 51
3, 91706, Note_on_c, 0, 67, 0
3, 91787, Note_on_c, 0, 69, 52
3, 91865, Note_on_c, 0, 69, 0
3, 91978, Note_on_c, 0, 70, 54
3, 92028, Note_on_c, 0, 59, 22
3, 92095, Note_on_c, 0, 70, 0
3, 92163, Control_c, 0, 64, 127
3, 92173, Note_on_c, 0, 71, 51
3, 92237, Note_on_c, 0, 43, 0
3, 92308, Note_on_c, 0, 50, 0
3, 92318, Note_on_c, 0, 71, 0
3, 92369, Note_on_c, 0, 59, 0
3, 92379, Note_on_c, 0, 74, 67
3, 92532, Note_on_c, 0, 74, 0
3, 92591, Note_on_c, 0, 78, 51
3, 92752, Note_on_c, 0, 78, 0
3, 92854, Note_on_c, 0, 78, 36
3, 92855, Note_on_c, 0, 81, 56
3, 92858, Control_c, 0, 64, 0
3, 92863, Note_on_c, 0, 74, 55
3, 92871, Note_on_c, 0, 69, 34
3, 92878, Note_on_c, 0, 64, 28
3, 92881, Note_on_c, 0, 58, 34
3, 93068, Control_c, 0, 64, 127
3, 93927, Note_on_c, 0, 64, 0
3, 93965, Note_on_c, 0, 58, 0
3, 94262, Note_on_c, 0, 48, 34
3, 94334, Note_on_c, 0, 48, 0
3, 94528, Note_on_c, 0, 69, 0
3, 94528, Note_on_c, 0, 78, 0
3, 94528, Note_on_c, 0, 81, 0
3, 94528, Note_on_c, 0, 74, 0
3, 95103, Note_on_c, 0, 64, 48
3, 95177, Note_on_c, 0, 70, 57
3, 95315, Note_on_c, 0, 81, 33
3, 96615, Note_on_c, 0, 74, 32
3, 96814, Note_on_c, 0, 81, 0
3, 97205, Note_on_c, 0, 70, 0
3, 97331, Note_on_c, 0, 79, 54
3, 97446, Note_on_c, 0, 64, 0
3, 97732, Note_on_c, 0, 79, 0
3, 97810, Note_on_c, 0, 74, 0
3, 98195, Note_on_c, 0, 74, 51
3, 98226, Note_on_c, 0, 50, 22
3, 98267, Control_c, 0, 64, 0
3, 98507, Control_c, 0, 64, 127
3, 98691, Note_on_c, 0, 57, 33
3, 99007, Note_on_c, 0, 62, 51
3, 99021, Note_on_c, 0, 57, 0
3, 99094, Note_on_c, 0, 74, 0
3, 99095, Note_on_c, 0, 50, 0
3, 99211, Note_on_c, 0, 74, 64
3, 99389, Note_on_c, 0, 74, 0
3, 99487, Note_on_c, 0, 74, 57
3, 99494, Note_on_c, 0, 47, 49
3, 99526, Control_c, 0, 64, 0
3, 99556, Note_on_c, 0, 62, 0
3, 99758, Note_on_c, 0, 54, 47
3, 99845, Control_c, 0, 64, 127
3, 100066, Note_on_c, 0, 62, 66
3, 100229, Note_on_c, 0, 54, 0
3, 100258, Note_on_c, 0, 47, 0
3, 100336, Note_on_c, 0, 62, 0
3, 100369, Note_on_c, 0, 74, 0
3, 100403, Note_on_c, 0, 74, 70
3, 100509, Note_on_c, 0, 74, 0
3, 100893, Note_on_c, 0, 67, 77
3, 100899, Note_on_c, 0, 62, 80
3, 100907, Note_on_c, 0, 55, 58
3, 100908, Note_on_c, 0, 40, 62
3, 100912, Note_on_c, 0, 28, 50
3, 100930, Control_c, 0, 64, 0
3, 101191, Control_c, 0, 64, 127
3, 101523, Note_on_c, 0, 62, 0
3, 101537, Note_on_c, 0, 28, 0
3, 101576, Note_on_c, 0, 67, 0
3, 101588, Note_on_c, 0, 40, 0
3, 101607, Note_on_c, 0, 55, 0
3, 101956, Note_on_c, 0, 66, 76
3, 101965, Note_on_c, 0, 42, 73
3, 101966, Note_on_c, 0, 57, 81
3, 101967, Note_on_c, 0, 62, 81
3, 101972, Note_on_c, 0, 30, 63
3, 101991, Control_c, 0, 64, 0
3, 102193, Control_c, 0, 64, 127
3, 102408, Note_on_c, 0, 30, 0
3, 102416, Note_on_c, 0, 57, 0
3, 102422, Note_on_c, 0, 66, 0
3, 102426, Note_on_c, 0, 42, 0
3, 102460, Note_on_c, 0, 62, 0
3, 102664, Control_c, 0, 64, 0
3, 102677, Note_on_c, 0, 64, 77
3, 102690, Note_on_c, 0, 59, 73
3, 102690, Note_on_c, 0, 55, 77
3, 102696, Note_on_c, 0, 31, 60
3, 102697, Note_on_c, 0, 43, 66
3, 102713, Note_on_c, 0, 62, 43
3, 102748, Note_on_c, 0, 62, 0
3, 102973, Control_c, 0, 64, 127
3, 103188, Note_on_c, 0, 64, 0
3, 103235, Note_on_c, 0, 31, 0
3, 103240, Note_on_c, 0, 59, 0
3, 103252, Note_on_c, 0, 43, 0
3, 103293, Note_on_c, 0, 55, 0
3, 103560, Note_on_c, 0, 62, 77
3, 103562, Note_on_c, 0, 53, 71
3, 103565, Note_on_c, 0, 44, 69
3, 103565, Note_on_c, 0, 59, 71
3, 103565, Note_on_c, 0, 56, 56
3, 103567, Control_c, 0, 64, 0
3, 103569, Note_on_c, 0, 32, 67
3, 103905, Control_c, 0, 64, 127
3, 104114, Note_on_c, 0, 62, 0
3, 104159, Note_on_c, 0, 32, 0
3, 104173, Note_on_c, 0, 44, 0
3, 104177, Note_on_c, 0, 53, 0
3, 104211, Note_on_c, 0, 56, 0
3, 104311, Note_on_c, 0, 59, 0
3, 104546, Note_on_c, 0, 61, 69
3, 104550, Control_c, 0, 64, 0
3, 104551, Note_on_c, 0, 57, 79
3, 104555, Note_on_c, 0, 33, 64
3, 104556, Note_on_c, 0, 52, 76
3, 104558, Note_on_c, 0, 45, 71
3, 104935, Control_c, 0, 64, 127
3, 105176, Note_on_c, 0, 52, 0
3, 105258, Note_on_c, 0, 57, 0
3, 105424, Note_on_c, 0, 61, 0
3, 105453, Note_on_c, 0, 33, 0
3, 105461, Note_on_c, 0, 45, 0
3, 105851, Note_on_c, 0, 69, 81
3, 105860, Note_on_c, 0, 61, 72
3, 105864, Note_on_c, 0, 57, 80
3, 105865, Note_on_c, 0, 64, 80
3, 105867, Note_on_c, 0, 43, 75
3, 105870, Control_c, 0, 64, 0
3, 105872, Note_on_c, 0, 31, 70
3, 106263, Control_c, 0, 64, 127
3, 106921, Note_on_c, 0, 43, 0
3, 106998, Note_on_c, 0, 31, 0
3, 107056, Note_on_c, 0, 57, 0
3, 107237, Note_on_c, 0, 64, 0
3, 107391, Note_on_c, 0, 61, 0
3, 107410, Note_on_c, 0, 69, 0
3, 107966, Control_c, 0, 64, 0
3, 107970, Note_on_c, 0, 66, 31
3, 107971, Note_on_c, 0, 74, 45
3, 107979, Note_on_c, 0, 42, 42
3, 107982, Note_on_c, 0, 69, 54
3, 107982, Note_on_c, 0, 62, 44
3, 107984, Note_on_c, 0, 30, 33
3, 108468, Control_c, 0, 64, 127
3, 108772, Note_on_c, 0, 42, 0
3, 108777, Note_on_c, 0, 74, 0
3, 108788, Note_on_c, 0, 30, 0
3, 108793, Note_on_c, 0, 69, 0
3, 108817, Note_on_c, 0, 62, 0
3, 108832, Note_on_c, 0, 66, 0
3, 109677, Note_on_c, 0, 69, 34
3, 109690, Control_c, 0, 64, 0
3, 109690, Note_on_c, 0, 57, 38
3, 109695, Note_on_c, 0, 63, 25
3, 109703, Note_on_c, 0, 41, 30
3, 109704, Note_on_c, 0, 29, 34
3, 109709, Note_on_c, 0, 62, 50
3, 110237, Control_c, 0, 64, 127
3, 110541, Note_on_c, 0, 69, 0
3, 110612, Note_on_c, 0, 57, 0
3, 110631, Note_on_c, 0, 41, 0
3, 110659, Note_on_c, 0, 62, 0
3, 110663, Note_on_c, 0, 29, 0
3, 110789, Note_on_c, 0, 63, 0
3, 111199, Control_c, 0, 64, 0
3, 111202, Note_on_c, 0, 67, 49
3, 111206, Note_on_c, 0, 55, 47
3, 111216, Note_on_c, 0, 62, 46
3, 111218, Note_on_c, 0, 28, 39
3, 111220, Note_on_c, 0, 40, 32
3, 111421, Control_c, 0, 64, 127
3, 111739, Note_on_c, 0, 55, 0
3, 111744, Note_on_c, 0, 28, 0
3, 111791, Note_on_c, 0, 67, 0
3, 111893, Note_on_c, 0, 40, 0
3, 111938, Note_on_c, 0, 62, 0
3, 112624, Note_on_c, 0, 69, 67
3, 112639, Note_on_c, 0, 62, 68
3, 112639, Note_on_c, 0, 66, 48
3, 112647, Note_on_c, 0, 42, 49
3, 112648, Note_on_c, 0, 30, 46
3, 112650, Note_on_c, 0, 57, 54
3, 112660, Control_c, 0, 64, 0
3, 112902, Control_c, 0, 64, 127
3, 113099, Note_on_c, 0, 57, 0
3, 113152, Note_on_c, 0, 42, 0
3, 113180, Note_on_c, 0, 30, 0
3, 113237, Note_on_c, 0, 62, 0
3, 113247, Note_on_c, 0, 69, 0
3, 113297, Note_on_c, 0, 66, 0
3, 113582, Note_on_c, 0, 71, 67
3, 113594, Control_c, 0, 64, 0
3, 113602, Note_on_c, 0, 67, 59
3, 113608, Note_on_c, 0, 64, 63
3, 113608, Note_on_c, 0, 40, 44
3, 113608, Note_on_c, 0, 28, 48
3, 113609, Note_on_c, 0, 62, 69
3, 113828, Control_c, 0, 64, 127
3, 114051, Note_on_c, 0, 64, 0
3, 114084, Note_on_c, 0, 28, 0
3, 114111, Note_on_c, 0, 62, 0
3, 114116, Note_on_c, 0, 67, 0
3, 114139, Note_on_c, 0, 40, 0
3, 114260, Note_on_c, 0, 71, 0
3, 114800, Note_on_c, 0, 73, 46
3, 114812, Note_on_c, 0, 69, 59
3, 114817, Note_on_c, 0, 45, 45
3, 114818, Note_on_c, 0, 64, 53
3, 114820, Control_c, 0, 64, 0
3, 114827, Note_on_c, 0, 33, 39
3, 115099, Control_c, 0, 64, 127
3, 115648, Note_on_c, 0, 33, 0
3, 115648, Note_on_c, 0, 45, 0
3, 115648, Note_on_c, 0, 73, 0
3, 115648, Note_on_c, 0, 69, 0
3, 115648, Note_on_c, 0, 64, 0
3, 115888, Control_c, 0, 64, 0
3, 115911, Note_on_c, 0, 48, 58
3, 116071, Control_c, 0, 64, 127
3, 116626, Note_on_c, 0, 74, 55
3, 116631, Note_on_c, 0, 65, 50
3, 116635, Note_on_c, 0, 69, 61
3, 116683, Note_on_c, 0, 58, 13
3, 116865, Note_on_c, 0, 69, 0
3, 116924, Note_on_c, 0, 65, 0
3, 116947, Note_on_c, 0, 58, 0
3, 116988, Note_on_c, 0, 74, 0
3, 117308, Note_on_c, 0, 74, 53
3, 117318, Note_on_c, 0, 67, 49
3, 117329, Note_on_c, 0, 64, 40
3, 117342, Note_on_c, 0, 58, 18
3, 117621, Note_on_c, 0, 58, 0
3, 117768, Note_on_c, 0, 48, 0
3, 117777, Note_on_c, 0, 74, 0
3, 117800, Note_on_c, 0, 64, 0
3, 117813, Note_on_c, 0, 67, 0
3, 119113, Control_c, 0, 64, 0
3, 119130, Note_on_c, 0, 69, 49
3, 119132, Note_on_c, 0, 39, 43
3, 119142, Note_on_c, 0, 57, 34
3, 119145, Note_on_c, 0, 62, 45
3, 119157, Note_on_c, 0, 65, 37
3, 119173, Note_on_c, 0, 46, 30
3, 119287, Control_c, 0, 64, 127
3, 119338, Note_on_c, 0, 69, 0
3, 119345, Note_on_c, 0, 57, 0
3, 119360, Note_on_c, 0, 65, 0
3, 119409, Note_on_c, 0, 62, 0
3, 119452, Note_on_c, 0, 39, 0
3, 119474, Note_on_c, 0, 46, 0
3, 119892, Note_on_c, 0, 59, 53
3, 119906, Note_on_c, 0, 38, 44
3, 119907, Note_on_c, 0, 68, 32
3, 119921, Control_c, 0, 64, 0
3, 119926, Note_on_c, 0, 64, 55
3, 120297, Control_c, 0, 64, 127
3, 120385, Note_on_c, 0, 38, 0
3, 120394, Note_on_c, 0, 45, 40
3, 120711, Note_on_c, 0, 45, 0
3, 120756, Note_on_c, 0, 52, 32
3, 121171, Note_on_c, 0, 54, 28
3, 121223, Note_on_c, 0, 52, 0
3, 121385, Note_on_c, 0, 59, 0
3, 121485, Note_on_c, 0, 64, 0
3, 121825, Note_on_c, 0, 64, 38
3, 121830, Note_on_c, 0, 59, 36
3, 121851, Note_on_c, 0, 56, 25
3, 122538, Note_on_c, 0, 59, 0
3, 122609, Note_on_c, 0, 64, 0
3, 122682, Note_on_c, 0, 68, 0
3, 122774, Note_on_c, 0, 56, 0
3, 122805, Note_on_c, 0, 54, 0
3, 123657, Note_on_c, 0, 56, 39
3, 123706, Note_on_c, 0, 92, 47
3, 123741, Control_c, 0, 64, 0
3, 123744, Note_on_c, 0, 57, 50
3, 123765, Note_on_c, 0, 93, 62
3, 123784, Note_on_c, 0, 92, 0
3, 123784, Note_on_c, 0, 56, 0
3, 123908, Note_on_c, 0, 93, 0
3, 123947, Note_on_c, 0, 57, 0
3, 124488, Note_on_c, 0, 81, 41
3, 124489, Note_on_c, 0, 45, 38
3, 124647, Control_c, 0, 64, 127
3, 124918, Note_on_c, 0, 45, 0
3, 125009, Note_on_c, 0, 81, 0
3, 125032, Note_on_c, 0, 83, 46
3, 125043, Note_on_c, 0, 47, 31
3, 126145, Note_on_c, 0, 47, 0
3, 126251, Note_on_c, 0, 85, 51
3, 126253, Note_on_c, 0, 83, 0
3, 126259, Note_on_c, 0, 45, 38
3, 126262, Control_c, 0, 64, 0
3, 126385, Control_c, 0, 64, 127
3, 126488, Note_on_c, 0, 85, 0
3, 126602, Note_on_c, 0, 52, 49
3, 126915, Note_on_c, 0, 52, 0
3, 126927, Note_on_c, 0, 58, 46
3, 126986, Note_on_c, 0, 57, 19
3, 127050, Note_on_c, 0, 45, 0
3, 127155, Note_on_c, 0, 58, 0
3, 127185, Note_on_c, 0, 61, 59
3, 127282, Note_on_c, 0, 61, 0
3, 127384, Note_on_c, 0, 57, 0
3, 127513, Note_on_c, 0, 67, 62
3, 127774, Note_on_c, 0, 67, 0
3, 127800, Note_on_c, 0, 70, 65
3, 127876, Note_on_c, 0, 70, 0
3, 128128, Note_on_c, 0, 61, 44
3, 128151, Note_on_c, 0, 75, 52
3, 128197, Note_on_c, 0, 75, 0
3, 128519, Note_on_c, 0, 79, 53
3, 128572, Note_on_c, 0, 64, 27
3, 128584, Note_on_c, 0, 61, 0
3, 128884, Note_on_c, 0, 79, 0
3, 128920, Note_on_c, 0, 70, 49
3, 128957, Note_on_c, 0, 64, 0
3, 128989, Note_on_c, 0, 76, 29
3, 128995, Note_on_c, 0, 61, 23
3, 129086, Note_on_c, 0, 76, 0
3, 129086, Note_on_c, 0, 70, 0
3, 129350, Note_on_c, 0, 82, 46
3, 129370, Note_on_c, 0, 67, 28
3, 129397, Note_on_c, 0, 73, 20
3, 129719, Note_on_c, 0, 73, 0
3, 129827, Note_on_c, 0, 82, 0
3, 129854, Note_on_c, 0, 73, 21
3, 129855, Note_on_c, 0, 79, 38
3, 129867, Note_on_c, 0, 64, 27
3, 130071, Note_on_c, 0, 79, 0
3, 130125, Note_on_c, 0, 67, 0
3, 130493, Note_on_c, 0, 81, 65
3, 130581, Note_on_c, 0, 73, 0
3, 130622, Note_on_c, 0, 64, 0
3, 130826, Note_on_c, 0, 81, 0
3, 130948, Note_on_c, 0, 61, 0
3, 131311, Note_on_c, 0, 52, 32
3, 131315, Note_on_c, 0, 69, 60
3, 131319, Note_on_c, 0, 59, 26
3, 131337, Note_on_c, 0, 62, 24
3, 131391, Control_c, 0, 64, 0
3, 131623, Control_c, 0, 64, 127
3, 131798, Note_on_c, 0, 71, 77
3, 131841, Note_on_c, 0, 69, 0
3, 131871, Note_on_c, 0, 52, 0
3, 131882, Note_on_c, 0, 59, 0
3, 131967, Note_on_c, 0, 62, 0
3, 132216, Note_on_c, 0, 71, 0
3, 132272, Note_on_c, 0, 55, 59
3, 132273, Note_on_c, 0, 61, 49
3, 132280, Note_on_c, 0, 66, 40
3, 132281, Note_on_c, 0, 73, 51
3, 132315, Control_c, 0, 64, 0
3, 132498, Control_c, 0, 64, 127
3, 132776, Note_on_c, 0, 76, 72
3, 132793, Note_on_c, 0, 73, 0
3, 132869, Note_on_c, 0, 55, 0
3, 132873, Note_on_c, 0, 66, 0
3, 132981, Note_on_c, 0, 61, 0
3, 132988, Note_on_c, 0, 76, 0
3, 133278, Note_on_c, 0, 78, 72
3, 133296, Control_c, 0, 64, 0
3, 133308, Note_on_c, 0, 50, 38
3, 133517, Control_c, 0, 64, 127
3, 133631, Note_on_c, 0, 50, 0
3, 133684, Note_on_c, 0, 57, 42
3, 134009, Note_on_c, 0, 78, 0
3, 134049, Note_on_c, 0, 64, 46
3, 134387, Note_on_c, 0, 65, 70
3, 134725, Note_on_c, 0, 65, 0
3, 134741, Note_on_c, 0, 66, 77
3, 134766, Note_on_c, 0, 64, 0
3, 134919, Note_on_c, 0, 57, 0
3, 135033, Note_on_c, 0, 69, 78
3, 135047, Control_c, 0, 64, 0
3, 135051, Note_on_c, 0, 57, 56
3, 135108, Note_on_c, 0, 66, 0
3, 135193, Control_c, 0, 64, 127
3, 135276, Note_on_c, 0, 69, 0
3, 135348, Note_on_c, 0, 73, 60
3, 135624, Note_on_c, 0, 73, 0
3, 135678, Note_on_c, 0, 76, 71
3, 135696, Note_on_c, 0, 62, 36
3, 135844, Note_on_c, 0, 57, 0
3, 135947, Note_on_c, 0, 76, 0
3, 135955, Note_on_c, 0, 62, 0
3, 136026, Note_on_c, 0, 66, 11
3, 136035, Note_on_c, 0, 73, 52
3, 136067, Control_c, 0, 64, 0
3, 136071, Note_on_c, 0, 57, 32
3, 136251, Control_c, 0, 64, 127
3, 136311, Note_on_c, 0, 66, 0
3, 136398, Note_on_c, 0, 73, 0
3, 136431, Note_on_c, 0, 66, 70
3, 136729, Note_on_c, 0, 57, 0
3, 136746, Note_on_c, 0, 66, 0
3, 136825, Note_on_c, 0, 57, 51
3, 136829, Note_on_c, 0, 66, 70
3, 137040, Note_on_c, 0, 66, 0
3, 137174, Note_on_c, 0, 69, 96
3, 137529, Note_on_c, 0, 69, 0
3, 137543, Note_on_c, 0, 66, 68
3, 137553, Note_on_c, 0, 50, 31
3, 137554, Note_on_c, 0, 57, 0
3, 137556, Note_on_c, 0, 62, 62
3, 137559, Control_c, 0, 64, 0
3, 137866, Control_c, 0, 64, 127
3, 137876, Note_on_c, 0, 57, 58
3, 137978, Note_on_c, 0, 62, 0
3, 138177, Note_on_c, 0, 62, 80
3, 138208, Note_on_c, 0, 66, 0
3, 138300, Note_on_c, 0, 50, 0
3, 138336, Note_on_c, 0, 57, 0
3, 138385, Note_on_c, 0, 62, 0
3, 138464, Note_on_c, 0, 69, 87
3, 138730, Note_on_c, 0, 69, 0
3, 138780, Control_c, 0, 64, 0
3, 138783, Note_on_c, 0, 66, 67
3, 138795, Note_on_c, 0, 59, 60
3, 138801, Note_on_c, 0, 64, 69
3, 138812, Note_on_c, 0, 49, 60
3, 138953, Note_on_c, 0, 59, 0
3, 138992, Control_c, 0, 64, 127
3, 139029, Note_on_c, 0, 64, 0
3, 139058, Note_on_c, 0, 66, 0
3, 139190, Note_on_c, 0, 59, 68
3, 139244, Note_on_c, 0, 59, 0
3, 139457, Note_on_c, 0, 49, 0
3, 139501, Note_on_c, 0, 71, 76
3, 139789, Note_on_c, 0, 71, 0
3, 139818, Note_on_c, 0, 78, 77
3, 140000, Control_c, 0, 64, 0
3, 140161, Note_on_c, 0, 78, 0
3, 140206, Note_on_c, 0, 30, 64
3, 140222, Note_on_c, 0, 78, 64
3, 140224, Control_c, 0, 64, 127
3, 140335, Note_on_c, 0, 30, 0
3, 140721, Note_on_c, 0, 63, 52
3, 140738, Note_on_c, 0, 58, 49
3, 140754, Note_on_c, 0, 52, 50
3, 140976, Note_on_c, 0, 52, 0
3, 141039, Note_on_c, 0, 58, 0
3, 141052, Note_on_c, 0, 63, 0
3, 141335, Note_on_c, 0, 63, 33
3, 141346, Note_on_c, 0, 58, 37
3, 141355, Note_on_c, 0, 52, 39
3, 141600, Note_on_c, 0, 70, 18
3, 141626, Note_on_c, 0, 78, 0
3, 141714, Note_on_c, 0, 63, 0
3, 141760, Note_on_c, 0, 70, 0
3, 141875, Note_on_c, 0, 82, 55
3, 141899, Note_on_c, 0, 52, 0
3, 141994, Note_on_c, 0, 58, 0
3, 142157, Note_on_c, 0, 82, 0
3, 142351, Control_c, 0, 64, 0
3, 142388, Note_on_c, 0, 71, 46
3, 142393, Note_on_c, 0, 78, 37
3, 142413, Note_on_c, 0, 59, 30
3, 142415, Note_on_c, 0, 49, 26
3, 142593, Control_c, 0, 64, 127
3, 142735, Note_on_c, 0, 49, 0
3, 142773, Note_on_c, 0, 59, 0
3, 143579, Note_on_c, 0, 68, 30
3, 143597, Note_on_c, 0, 59, 33
3, 143615, Note_on_c, 0, 63, 29
3, 143630, Note_on_c, 0, 64, 36
3, 144212, Note_on_c, 0, 68, 0
3, 144280, Note_on_c, 0, 78, 0
3, 144451, Note_on_c, 0, 71, 0
3, 144568, Note_on_c, 0, 82, 69
3, 144569, Note_on_c, 0, 59, 0
3, 144579, Note_on_c, 0, 64, 0
3, 144606, Note_on_c, 0, 63, 0
3, 145064, Note_on_c, 0, 42, 45
3, 145066, Note_on_c, 0, 54, 33
3, 145077, Note_on_c, 0, 78, 56
3, 145096, Control_c, 0, 64, 0
3, 145257, Control_c, 0, 64, 127
3, 145320, Note_on_c, 0, 42, 0
3, 145373, Note_on_c, 0, 54, 0
3, 145738, Note_on_c, 0, 63, 52
3, 145749, Note_on_c, 0, 58, 52
3, 145762, Note_on_c, 0, 52, 58
3, 145890, Note_on_c, 0, 82, 0
3, 147017, Note_on_c, 0, 82, 78
3, 147026, Note_on_c, 0, 78, 0
3, 147117, Note_on_c, 0, 52, 0
3, 147208, Note_on_c, 0, 58, 0
3, 147213, Note_on_c, 0, 63, 0
3, 147504, Note_on_c, 0, 82, 0
3, 147975, Note_on_c, 0, 78, 71
3, 147998, Note_on_c, 0, 58, 67
3, 148001, Note_on_c, 0, 74, 80
3, 148014, Note_on_c, 0, 69, 80
3, 148017, Note_on_c, 0, 64, 61
3, 148039, Control_c, 0, 64, 0
3, 148327, Control_c, 0, 64, 127
3, 148431, Note_on_c, 0, 78, 0
3, 148532, Note_on_c, 0, 78, 77
3, 148773, Note_on_c, 0, 78, 0
3, 148969, Note_on_c, 0, 78, 64
3, 149146, Note_on_c, 0, 78, 0
3, 149421, Note_on_c, 0, 64, 0
3, 149426, Note_on_c, 0, 78, 53
3, 149482, Note_on_c, 0, 69, 0
3, 149738, Note_on_c, 0, 74, 0
3, 149760, Note_on_c, 0, 58, 0
3, 149760, Note_on_c, 0, 78, 0
3, 150355, Note_on_c, 0, 75, 42
3, 150360, Note_on_c, 0, 70, 37
3, 150364, Note_on_c, 0, 79, 40
3, 150381, Note_on_c, 0, 63, 33
3, 150389, Note_on_c, 0, 57, 45
3, 150397, Control_c, 0, 64, 0
3, 150724, Control_c, 0, 64, 127
3, 150759, Note_on_c, 0, 79, 0
3, 150865, Note_on_c, 0, 79, 58
3, 151099, Note_on_c, 0, 79, 0
3, 151268, Note_on_c, 0, 79, 68
3, 151495, Note_on_c, 0, 57, 0
3, 151609, Note_on_c, 0, 79, 0
3, 151621, Note_on_c, 0, 63, 0
3, 151685, Note_on_c, 0, 70, 0
3, 151713, Note_on_c, 0, 79, 60
3, 151925, Note_on_c, 0, 79, 0
3, 152015, Note_on_c, 0, 75, 0
3, 152436, Note_on_c, 0, 76, 62
3, 152445, Note_on_c, 0, 56, 39
3, 152448, Note_on_c, 0, 74, 58
3, 152448, Note_on_c, 0, 72, 48
3, 152453, Note_on_c, 0, 68, 21
3, 152466, Note_on_c, 0, 62, 48
3, 152477, Control_c, 0, 64, 0
3, 152757, Control_c, 0, 64, 127
3, 152970, Note_on_c, 0, 76, 0
3, 153123, Note_on_c, 0, 76, 55
3, 153411, Note_on_c, 0, 76, 0
3, 153622, Note_on_c, 0, 76, 41
3, 153813, Note_on_c, 0, 76, 0
3, 154008, Note_on_c, 0, 62, 0
3, 154063, Note_on_c, 0, 74, 0
3, 154086, Note_on_c, 0, 76, 43
3, 154153, Note_on_c, 0, 68, 0
3, 154180, Note_on_c, 0, 56, 0
3, 154193, Note_on_c, 0, 72, 0
3, 154323, Note_on_c, 0, 76, 0
3, 154662, Note_on_c, 0, 78, 35
3, 154673, Note_on_c, 0, 68, 27
3, 154682, Note_on_c, 0, 73, 33
3, 154683, Note_on_c, 0, 75, 39
3, 154690, Control_c, 0, 64, 0
3, 154698, Note_on_c, 0, 55, 46
3, 154700, Note_on_c, 0, 61, 25
3, 155009, Control_c, 0, 64, 127
3, 155269, Note_on_c, 0, 78, 0
3, 155379, Note_on_c, 0, 78, 47
3, 155844, Note_on_c, 0, 78, 0
3, 155999, Note_on_c, 0, 78, 39
3, 156158, Note_on_c, 0, 61, 0
3, 156203, Note_on_c, 0, 55, 0
3, 156356, Note_on_c, 0, 78, 0
3, 156625, Note_on_c, 0, 78, 37
3, 156819, Note_on_c, 0, 78, 0
3, 156819, Note_on_c, 0, 73, 0
3, 156832, Note_on_c, 0, 75, 0
3, 156872, Note_on_c, 0, 68, 0
3, 157563, Note_on_c, 0, 62, 69
3, 157577, Control_c, 0, 64, 0
3, 157580, Note_on_c, 0, 53, 60
3, 157580, Note_on_c, 0, 43, 47
3, 157581, Note_on_c, 0, 58, 52
3, 157584, Note_on_c, 0, 31, 40
3, 157791, Control_c, 0, 64, 127
3, 157972, Note_on_c, 0, 62, 0
3, 158233, Note_on_c, 0, 62, 73
3, 158420, Note_on_c, 0, 43, 0
3, 158471, Note_on_c, 0, 31, 0
3, 158481, Note_on_c, 0, 53, 0
3, 158543, Note_on_c, 0, 62, 0
3, 158677, Note_on_c, 0, 58, 0
3, 158743, Note_on_c, 0, 62, 79
3, 158746, Note_on_c, 0, 41, 68
3, 158747, Note_on_c, 0, 57, 78
3, 158749, Note_on_c, 0, 29, 59
3, 158760, Control_c, 0, 64, 0
3, 158965, Control_c, 0, 64, 127
3, 159105, Note_on_c, 0, 62, 0
3, 159214, Note_on_c, 0, 62, 80
3, 159404, Note_on_c, 0, 41, 0
3, 159435, Note_on_c, 0, 29, 0
3, 159553, Note_on_c, 0, 62, 0
3, 159568, Note_on_c, 0, 57, 0
3, 159783, Note_on_c, 0, 62, 80
3, 159785, Note_on_c, 0, 40, 58
3, 159788, Note_on_c, 0, 56, 75
3, 159793, Note_on_c, 0, 28, 59
3, 159802, Control_c, 0, 64, 0
3, 160052, Control_c, 0, 64, 127
3, 160292, Note_on_c, 0, 62, 0
3, 160421, Note_on_c, 0, 62, 70
3, 160685, Note_on_c, 0, 28, 0
3, 160704, Note_on_c, 0, 40, 0
3, 160787, Note_on_c, 0, 62, 0
3, 160889, Note_on_c, 0, 56, 0
3, 161075, Note_on_c, 0, 62, 68
3, 161078, Note_on_c, 0, 55, 58
3, 161081, Control_c, 0, 64, 0
3, 161088, Note_on_c, 0, 39, 45
3, 161091, Note_on_c, 0, 27, 47
3, 161369, Control_c, 0, 64, 127
3, 161466, Note_on_c, 0, 62, 0
3, 161707, Note_on_c, 0, 62, 62
3, 161808, Note_on_c, 0, 39, 0
3, 161824, Note_on_c, 0, 27, 0
3, 161864, Note_on_c, 0, 62, 0
3, 161867, Note_on_c, 0, 55, 0
3, 162535, Note_on_c, 0, 54, 56
3, 162540, Note_on_c, 0, 66, 58
3, 162544, Note_on_c, 0, 38, 44
3, 162551, Note_on_c, 0, 26, 40
3, 162581, Control_c, 0, 64, 0
3, 162850, Control_c, 0, 64, 127
3, 163342, Note_on_c, 0, 54, 0
3, 163387, Note_on_c, 0, 66, 0
3, 163424, Note_on_c, 0, 26, 0
3, 163450, Note_on_c, 0, 38, 0
3, 163694, Note_on_c, 0, 66, 56
3, 163709, Note_on_c, 0, 39, 44
3, 163711, Note_on_c, 0, 27, 46
3, 163712, Note_on_c, 0, 61, 52
3, 163720, Note_on_c, 0, 55, 44
3, 163736, Control_c, 0, 64, 0
3, 163969, Control_c, 0, 64, 127
3, 164199, Note_on_c, 0, 27, 0
3, 164240, Note_on_c, 0, 39, 0
3, 164248, Note_on_c, 0, 55, 0
3, 164296, Note_on_c, 0, 66, 0
3, 164316, Note_on_c, 0, 61, 0
3, 164981, Note_on_c, 0, 40, 34
3, 164986, Note_on_c, 0, 64, 47
3, 164987, Note_on_c, 0, 55, 24
3, 164997, Note_on_c, 0, 28, 32
3, 164998, Note_on_c, 0, 59, 40
3, 165000, Note_on_c, 0, 62, 40
3, 165016, Control_c, 0, 64, 0
3, 165266, Control_c, 0, 64, 127
3, 165501, Note_on_c, 0, 28, 0
3, 165527, Note_on_c, 0, 64, 0
3, 165583, Note_on_c, 0, 40, 0
3, 165685, Note_on_c, 0, 64, 49
3, 165884, Note_on_c, 0, 62, 0
3, 165916, Note_on_c, 0, 55, 0
3, 165936, Note_on_c, 0, 64, 0
3, 165941, Note_on_c, 0, 59, 0
3, 166524, Note_on_c, 0, 64, 34
3, 166531, Note_on_c, 0, 61, 42
3, 166551, Note_on_c, 0, 55, 33
3, 166554, Note_on_c, 0, 52, 26
3, 166561, Note_on_c, 0, 45, 33
3, 166564, Control_c, 0, 64, 0
3, 166893, Control_c, 0, 64, 127
3, 167143, Note_on_c, 0, 64, 0
3, 167158, Note_on_c, 0, 52, 0
3, 167252, Note_on_c, 0, 45, 0
3, 167432, Note_on_c, 0, 64, 47
3, 168721, Note_on_c, 0, 55, 0
3, 168839, Note_on_c, 0, 64, 0
3, 168900, Note_on_c, 0, 61, 0
3, 169537, Note_on_c, 0, 55, 50
3, 169542, Note_on_c, 0, 62, 54
3, 169559, Note_on_c, 0, 38, 28
3, 169576, Note_on_c, 0, 26, 29
3, 169577, Control_c, 0, 64, 0
3, 170039, Control_c, 0, 64, 127
3, 170505, Note_on_c, 0, 52, 46
3, 170517, Note_on_c, 0, 26, 0
3, 170635, Note_on_c, 0, 38, 0
3, 171681, Note_on_c, 0, 55, 0
3, 171936, Note_on_c, 0, 52, 0
3, 171970, Note_on_c, 0, 55, 41
3, 172326, Note_on_c, 0, 52, 47
3, 172410, Note_on_c, 0, 55, 0
3, 172737, Note_on_c, 0, 52, 0
3, 173067, Note_on_c, 0, 38, 27
3, 173070, Note_on_c, 0, 54, 46
3, 173084, Note_on_c, 0, 62, 0
3, 173087, Control_c, 0, 64, 0
3, 173093, Note_on_c, 0, 50, 38
3, 173397, Control_c, 0, 64, 127
3, 173541, Note_on_c, 0, 54, 0
3, 173685, Note_on_c, 0, 38, 0
3, 173771, Note_on_c, 0, 50, 0
3, 174948, Note_on_c, 0, 81, 34
3, 174971, Note_on_c, 0, 57, 31
3, 175215, Control_c, 0, 64, 0
3, 175255, Note_on_c, 0, 83, 68
3, 175277, Note_on_c, 0, 81, 0
3, 175284, Note_on_c, 0, 59, 57
3, 175301, Note_on_c, 0, 57, 0
3, 175447, Control_c, 0, 64, 127
3, 175610, Control_c, 0, 64, 0
3, 175692, Note_on_c, 0, 85, 69
3, 175703, Note_on_c, 0, 61, 62
3, 175713, Note_on_c, 0, 83, 0
3, 175790, Note_on_c, 0, 59, 0
3, 175909, Control_c, 0, 64, 127
3, 176111, Control_c, 0, 64, 0
3, 176119, Note_on_c, 0, 61, 0
3, 176136, Note_on_c, 0, 85, 0
3, 176158, Note_on_c, 0, 86, 58
3, 176168, Note_on_c, 0, 62, 47
3, 176303, Control_c, 0, 64, 127
3, 176515, Note_on_c, 0, 86, 0
3, 176615, Note_on_c, 0, 62, 0
3, 176628, Note_on_c, 0, 66, 29
3, 176629, Note_on_c, 0, 90, 52
3, 176692, Note_on_c, 0, 66, 0
3, 177357, Note_on_c, 0, 90, 0
3, 177386, Note_on_c, 0, 93, 53
3, 177389, Note_on_c, 0, 40, 41
3, 177400, Control_c, 0, 64, 0
3, 177515, Control_c, 0, 64, 127
3, 177523, Note_on_c, 0, 40, 0
3, 178059, Note_on_c, 0, 66, 37
3, 178062, Note_on_c, 0, 62, 42
3, 178069, Note_on_c, 0, 55, 30
3, 178083, Note_on_c, 0, 59, 50
3, 178428, Note_on_c, 0, 62, 0
3, 178439, Note_on_c, 0, 59, 0
3, 178447, Note_on_c, 0, 66, 0
3, 178461, Note_on_c, 0, 55, 0
3, 179325, Control_c, 0, 64, 0
3, 179410, Note_on_c, 0, 33, 37
3, 179543, Control_c, 0, 64, 127
3, 179821, Note_on_c, 0, 33, 0
3, 180088, Note_on_c, 0, 61, 34
3, 180097, Note_on_c, 0, 66, 31
3, 180107, Note_on_c, 0, 55, 38
3, 180381, Note_on_c, 0, 93, 0
3, 180504, Note_on_c, 0, 66, 0
3, 180683, Note_on_c, 0, 55, 0
3, 180698, Note_on_c, 0, 88, 77
3, 180704, Note_on_c, 0, 61, 0
3, 181252, Note_on_c, 0, 88, 0
3, 181659, Note_on_c, 0, 30, 52
3, 181660, Note_on_c, 0, 42, 53
3, 181665, Control_c, 0, 64, 0
3, 181673, Note_on_c, 0, 91, 71
3, 181825, Control_c, 0, 64, 127
3, 181871, Note_on_c, 0, 30, 0
3, 181918, Note_on_c, 0, 42, 0
3, 182241, Note_on_c, 0, 91, 0
3, 182347, Note_on_c, 0, 61, 43
3, 182349, Note_on_c, 0, 54, 36
3, 182351, Note_on_c, 0, 90, 77
3, 182362, Note_on_c, 0, 57, 60
3, 182380, Note_on_c, 0, 64, 40
3, 182684, Note_on_c, 0, 90, 0
3, 182998, Note_on_c, 0, 86, 73
3, 183036, Note_on_c, 0, 64, 0
3, 183039, Note_on_c, 0, 57, 0
3, 183077, Note_on_c, 0, 61, 0
3, 183160, Note_on_c, 0, 54, 0
3, 183402, Note_on_c, 0, 86, 0
3, 183541, Control_c, 0, 64, 0
3, 183562, Note_on_c, 0, 47, 50
3, 183565, Note_on_c, 0, 81, 49
3, 183707, Control_c, 0, 64, 127
3, 183712, Note_on_c, 0, 47, 0
3, 184260, Note_on_c, 0, 61, 33
3, 184268, Note_on_c, 0, 66, 20
3, 184289, Note_on_c, 0, 57, 36
3, 184290, Note_on_c, 0, 62, 38
3, 184459, Note_on_c, 0, 81, 0
3, 185025, Note_on_c, 0, 66, 0
3, 185215, Note_on_c, 0, 62, 0
3, 185283, Note_on_c, 0, 81, 48
3, 185284, Note_on_c, 0, 61, 0
3, 185292, Note_on_c, 0, 57, 0
3, 185459, Note_on_c, 0, 81, 0
3, 185994, Note_on_c, 0, 71, 59
3, 186003, Note_on_c, 0, 62, 49
3, 186008, Note_on_c, 0, 52, 36
3, 186017, Note_on_c, 0, 67, 49
3, 186024, Control_c, 0, 64, 0
3, 186031, Note_on_c, 0, 59, 30
3, 186253, Control_c, 0, 64, 127
3, 187174, Note_on_c, 0, 71, 0
3, 187181, Note_on_c, 0, 70, 64
3, 187185, Note_on_c, 0, 58, 37
3, 187197, Note_on_c, 0, 59, 0
3, 187508, Note_on_c, 0, 70, 0
3, 187568, Note_on_c, 0, 69, 68
3, 187594, Note_on_c, 0, 57, 36
3, 187624, Note_on_c, 0, 58, 0
3, 187725, Note_on_c, 0, 57, 0
3, 187793, Note_on_c, 0, 52, 0
3, 187863, Note_on_c, 0, 62, 0
3, 187959, Note_on_c, 0, 69, 0
3, 188035, Note_on_c, 0, 67, 0
3, 188291, Note_on_c, 0, 73, 37
3, 188296, Note_on_c, 0, 61, 35
3, 188299, Note_on_c, 0, 45, 37
3, 188344, Control_c, 0, 64, 0
3, 188613, Control_c, 0, 64, 127
3, 188814, Note_on_c, 0, 55, 49
3, 188839, Note_on_c, 0, 61, 0
3, 189032, Note_on_c, 0, 73, 0
3, 189168, Note_on_c, 0, 69, 81
3, 189480, Note_on_c, 0, 69, 0
3, 189522, Note_on_c, 0, 71, 77
3, 189547, Note_on_c, 0, 45, 0
3, 189630, Note_on_c, 0, 55, 0
3, 189832, Note_on_c, 0, 69, 76
3, 189847, Note_on_c, 0, 71, 0
3, 189922, Note_on_c, 0, 69, 0
3, 190201, Control_c, 0, 64, 0
3, 190217, Note_on_c, 0, 78, 75
3, 190227, Note_on_c, 0, 48, 58
3, 190391, Control_c, 0, 64, 127
3, 190420, Note_on_c, 0, 48, 0
3, 190651, Note_on_c, 0, 58, 62
3, 191017, Note_on_c, 0, 64, 60
3, 191407, Note_on_c, 0, 69, 47
3, 191808, Note_on_c, 0, 74, 48
3, 191847, Note_on_c, 0, 78, 0
3, 192123, Note_on_c, 0, 64, 0
3, 192189, Note_on_c, 0, 58, 0
3, 192226, Note_on_c, 0, 78, 43
3, 192472, Note_on_c, 0, 78, 0
3, 192798, Control_c, 0, 64, 0
3, 192840, Note_on_c, 0, 47, 36
3, 192842, Note_on_c, 0, 54, 26
3, 192844, Note_on_c, 0, 78, 33
3, 192916, Note_on_c, 0, 74, 0
3, 192990, Control_c, 0, 64, 127
3, 193252, Note_on_c, 0, 78, 0
3, 193269, Note_on_c, 0, 69, 0
3, 193640, Note_on_c, 0, 57, 58
3, 193977, Note_on_c, 0, 57, 0
3, 193978, Note_on_c, 0, 59, 77
3, 194266, Note_on_c, 0, 61, 83
3, 194302, Note_on_c, 0, 59, 0
3, 194597, Note_on_c, 0, 61, 0
3, 194604, Note_on_c, 0, 62, 88
3, 194882, Note_on_c, 0, 54, 0
3, 194895, Note_on_c, 0, 47, 0
3, 194896, Note_on_c, 0, 62, 0
3, 194933, Note_on_c, 0, 66, 78
3, 195215, Note_on_c, 0, 66, 0
3, 195270, Control_c, 0, 64, 0
3, 195284, Note_on_c, 0, 62, 71
3, 195287, Note_on_c, 0, 69, 65
3, 195289, Note_on_c, 0, 40, 49
3, 195293, Note_on_c, 0, 66, 49
3, 195461, Note_on_c, 0, 62, 0
3, 195464, Control_c, 0, 64, 127
3, 195497, Note_on_c, 0, 69, 0
3, 195502, Note_on_c, 0, 66, 0
3, 195650, Note_on_c, 0, 47, 44
3, 195676, Note_on_c, 0, 81, 76
3, 195678, Note_on_c, 0, 74, 72
3, 195747, Note_on_c, 0, 40, 0
3, 196066, Note_on_c, 0, 74, 0
3, 196074, Note_on_c, 0, 81, 0
3, 196103, Note_on_c, 0, 47, 0
3, 196110, Note_on_c, 0, 55, 37
3, 196114, Note_on_c, 0, 74, 33
3, 196119, Note_on_c, 0, 81, 24
3, 196143, Note_on_c, 0, 69, 36
3, 196253, Note_on_c, 0, 55, 0
3, 196414, Note_on_c, 0, 69, 0
3, 196418, Note_on_c, 0, 81, 0
3, 196449, Note_on_c, 0, 74, 0
3, 196472, Note_on_c, 0, 79, 58
3, 196910, Note_on_c, 0, 79, 0
3, 196911, Note_on_c, 0, 75, 57
3, 196929, Note_on_c, 0, 61, 37
3, 196936, Note_on_c, 0, 66, 35
3, 196943, Note_on_c, 0, 55, 35
3, 196955, Control_c, 0, 64, 0
3, 197138, Control_c, 0, 64, 127
3, 197302, Note_on_c, 0, 76, 80
3, 197323, Note_on_c, 0, 55, 0
3, 197399, Note_on_c, 0, 66, 0
3, 197567, Note_on_c, 0, 75, 0
3, 197591, Note_on_c, 0, 61, 0
3, 197646, Note_on_c, 0, 76, 0
3, 197690, Note_on_c, 0, 61, 31
3, 197697, Control_c, 0, 64, 0
3, 197705, Note_on_c, 0, 74, 66
3, 197705, Note_on_c, 0, 79, 62
3, 197713, Note_on_c, 0, 54, 37
3, 197715, Note_on_c, 0, 64, 40
3, 197718, Note_on_c, 0, 69, 60
3, 197725, Note_on_c, 0, 59, 48
3, 197908, Control_c, 0, 64, 127
3, 198151, Note_on_c, 0, 79, 0
3, 198213, Note_on_c, 0, 78, 54
3, 198544, Note_on_c, 0, 74, 0
3, 199011, Note_on_c, 0, 59, 0
3, 199027, Note_on_c, 0, 64, 0
3, 199044, Note_on_c, 0, 69, 0
3, 199069, Note_on_c, 0, 74, 48
3, 199082, Note_on_c, 0, 61, 0
3, 199125, Note_on_c, 0, 54, 0
3, 199232, Note_on_c, 0, 74, 0
3, 199610, Note_on_c, 0, 54, 29
3, 199614, Note_on_c, 0, 69, 57
3, 199635, Note_on_c, 0, 61, 29
3, 199640, Control_c, 0, 64, 0
3, 199645, Note_on_c, 0, 78, 0
3, 199649, Note_on_c, 0, 64, 30
3, 199861, Control_c, 0, 64, 127
3, 200468, Note_on_c, 0, 81, 54
3, 200825, Note_on_c, 0, 61, 0
3, 200840, Note_on_c, 0, 64, 0
3, 200866, Note_on_c, 0, 69, 0
3, 200953, Note_on_c, 0, 81, 0
3, 201002, Note_on_c, 0, 54, 0
3, 201380, Note_on_c, 0, 71, 50
3, 201382, Note_on_c, 0, 52, 41
3, 201391, Note_on_c, 0, 83, 48
3, 201418, Control_c, 0, 64, 0
3, 201717, Control_c, 0, 64, 127
3, 201764, Note_on_c, 0, 59, 49
3, 202104, Note_on_c, 0, 64, 36
3, 202165, Note_on_c, 0, 71, 0
3, 202215, Note_on_c, 0, 64, 0
3, 202326, Note_on_c, 0, 59, 0
3, 202774, Note_on_c, 0, 83, 0
3, 202782, Note_on_c, 0, 81, 58
3, 202806, Note_on_c, 0, 52, 0
3, 203009, Note_on_c, 0, 81, 0
3, 203882, Control_c, 0, 64, 0
3, 203909, Note_on_c, 0, 85, 68
3, 203943, Note_on_c, 0, 33, 43
3, 204047, Control_c, 0, 64, 127
3, 204094, Note_on_c, 0, 33, 0
3, 204595, Note_on_c, 0, 61, 48
3, 204605, Note_on_c, 0, 55, 54
3, 204605, Note_on_c, 0, 66, 42
3, 204883, Note_on_c, 0, 55, 0
3, 204985, Note_on_c, 0, 66, 0
3, 204993, Note_on_c, 0, 61, 0
3, 205265, Note_on_c, 0, 61, 43
3, 205272, Note_on_c, 0, 66, 39
3, 205290, Note_on_c, 0, 55, 44
3, 205777, Note_on_c, 0, 85, 0
3, 205790, Note_on_c, 0, 81, 55
3, 206203, Note_on_c, 0, 81, 0
3, 206324, Note_on_c, 0, 81, 54
3, 206496, Note_on_c, 0, 66, 0
3, 206772, Note_on_c, 0, 81, 0
3, 207043, Note_on_c, 0, 81, 40
3, 207273, Note_on_c, 0, 81, 0
3, 207273, Note_on_c, 0, 61, 0
3, 207273, Note_on_c, 0, 55, 0
3, 207667, Note_on_c, 0, 74, 53
3, 207679, Note_on_c, 0, 48, 39
3, 207684, Note_on_c, 0, 65, 43
3, 207685, Note_on_c, 0, 70, 47
3, 207699, Control_c, 0, 64, 0
3, 207705, Note_on_c, 0, 60, 27
3, 207919, Control_c, 0, 64, 127
3, 208107, Note_on_c, 0, 60, 0
3, 208209, Note_on_c, 0, 65, 0
3, 208242, Note_on_c, 0, 60, 35
3, 208679, Note_on_c, 0, 70, 0
3, 208681, Note_on_c, 0, 65, 57
3, 209003, Note_on_c, 0, 70, 61
3, 209064, Note_on_c, 0, 60, 0
3, 209184, Note_on_c, 0, 65, 0
3, 209333, Note_on_c, 0, 70, 0
3, 209390, Note_on_c, 0, 67, 35
3, 209402, Note_on_c, 0, 64, 50
3, 209431, Note_on_c, 0, 60, 25
3, 209439, Control_c, 0, 64, 0
3, 209661, Control_c, 0, 64, 127
3, 209716, Note_on_c, 0, 48, 0
3, 209736, Note_on_c, 0, 64, 0
3, 209837, Note_on_c, 0, 64, 45
3, 209838, Note_on_c, 0, 48, 31
3, 209905, Note_on_c, 0, 67, 0
3, 209974, Note_on_c, 0, 64, 0
3, 210018, Note_on_c, 0, 48, 0
3, 210395, Note_on_c, 0, 60, 0
3, 210432, Note_on_c, 0, 66, 37
3, 210433, Note_on_c, 0, 50, 40
3, 210459, Control_c, 0, 64, 0
3, 210757, Control_c, 0, 64, 127
3, 210906, Note_on_c, 0, 57, 34
3, 210908, Note_on_c, 0, 74, 0
3, 211192, Note_on_c, 0, 66, 0
3, 211363, Note_on_c, 0, 66, 39
3, 211366, Note_on_c, 0, 64, 29
3, 211385, Note_on_c, 0, 62, 48
3, 211572, Note_on_c, 0, 62, 0
3, 211840, Note_on_c, 0, 64, 0
3, 212045, Note_on_c, 0, 66, 0
3, 212473, Note_on_c, 0, 74, 52
3, 212836, Note_on_c, 0, 74, 0
3, 212873, Note_on_c, 0, 81, 78
3, 212935, Note_on_c, 0, 50, 0
3, 213046, Note_on_c, 0, 57, 0
3, 213293, Note_on_c, 0, 81, 0
3, 213371, Note_on_c, 0, 78, 60
3, 213374, Note_on_c, 0, 50, 35
3, 213433, Control_c, 0, 64, 0
3, 213653, Control_c, 0, 64, 127
3, 213786, Note_on_c, 0, 50, 0
3, 213852, Note_on_c, 0, 57, 33
3, 214368, Note_on_c, 0, 66, 28
3, 214847, Note_on_c, 0, 69, 36
3, 215230, Note_on_c, 0, 78, 0
3, 215644, Note_on_c, 0, 66, 0
3, 215719, Note_on_c, 0, 78, 55
3, 215750, Note_on_c, 0, 57, 0
3, 215977, Note_on_c, 0, 78, 0
3, 216067, Note_on_c, 0, 78, 49
3, 216078, Note_on_c, 0, 69, 0
3, 216292, Note_on_c, 0, 78, 0
3, 216590, Note_on_c, 0, 78, 56
3, 216603, Note_on_c, 0, 71, 67
3, 216622, Note_on_c, 0, 49, 34
3, 216624, Note_on_c, 0, 59, 34
3, 216628, Control_c, 0, 64, 0
3, 216869, Control_c, 0, 64, 127
3, 217396, Note_on_c, 0, 78, 0
3, 217523, Note_on_c, 0, 59, 0
3, 217554, Note_on_c, 0, 78, 38
3, 217615, Note_on_c, 0, 49, 0
3, 217878, Note_on_c, 0, 78, 0
3, 218025, Note_on_c, 0, 71, 0
3, 218271, Note_on_c, 0, 78, 32
3, 218278, Note_on_c, 0, 42, 30
3, 218285, Note_on_c, 0, 30, 33
3, 218286, Note_on_c, 0, 70, 44
3, 218301, Control_c, 0, 64, 0
3, 218494, Control_c, 0, 64, 127
3, 218596, Note_on_c, 0, 30, 0
3, 218668, Note_on_c, 0, 78, 0
3, 218670, Note_on_c, 0, 42, 0
3, 218803, Note_on_c, 0, 78, 54
3, 218922, Note_on_c, 0, 78, 0
3, 218941, Note_on_c, 0, 70, 0
3, 219676, Note_on_c, 0, 74, 60
3, 219700, Note_on_c, 0, 66, 71
3, 219714, Note_on_c, 0, 61, 56
3, 219719, Note_on_c, 0, 73, 30
3, 219727, Note_on_c, 0, 62, 55
3, 219760, Note_on_c, 0, 73, 0
3, 219763, Control_c, 0, 64, 0
3, 219994, Control_c, 0, 64, 127
3, 220225, Note_on_c, 0, 59, 79
3, 220228, Control_c, 0, 64, 0
3, 220234, Note_on_c, 0, 61, 0
3, 220411, Control_c, 0, 64, 127
3, 220584, Note_on_c, 0, 62, 0
3, 220608, Note_on_c, 0, 66, 0
3, 220803, Note_on_c, 0, 59, 0
3, 220804, Note_on_c, 0, 66, 43
3, 220810, Note_on_c, 0, 62, 48
3, 220822, Control_c, 0, 64, 0
3, 220823, Note_on_c, 0, 58, 60
3, 221014, Control_c, 0, 64, 127
3, 221343, Note_on_c, 0, 58, 0
3, 221347, Note_on_c, 0, 74, 0
3, 221379, Note_on_c, 0, 57, 58
3, 221438, Note_on_c, 0, 66, 0
3, 221500, Note_on_c, 0, 57, 0
3, 221549, Note_on_c, 0, 62, 0
3, 222006, Note_on_c, 0, 36, 43
3, 222047, Note_on_c, 0, 43, 35
3, 222139, Note_on_c, 0, 57, 50
3, 222171, Note_on_c, 0, 62, 58
3, 222179, Note_on_c, 0, 52, 29
3, 222223, Note_on_c, 0, 66, 33
3, 222227, Control_c, 0, 64, 0
3, 222243, Note_on_c, 0, 69, 66
3, 222466, Control_c, 0, 64, 127
3, 222518, Note_on_c, 0, 57, 0
3, 222568, Note_on_c, 0, 62, 0
3, 222601, Note_on_c, 0, 66, 0
3, 222612, Note_on_c, 0, 69, 0
3, 222817, Note_on_c, 0, 69, 47
3, 222897, Note_on_c, 0, 81, 54
3, 222943, Note_on_c, 0, 69, 0
3, 223045, Note_on_c, 0, 81, 0
3, 223677, Note_on_c, 0, 81, 39
3, 223734, Note_on_c, 0, 93, 42
3, 223861, Note_on_c, 0, 81, 0
3, 223936, Note_on_c, 0, 93, 0
3, 224510, Note_on_c, 0, 93, 44
3, 224580, Note_on_c, 0, 105, 49
3, 224804, Note_on_c, 0, 105, 0
3, 224913, Note_on_c, 0, 93, 0
3, 225397, Note_on_c, 0, 36, 0
3, 225448, Note_on_c, 0, 43, 0
3, 225526, Note_on_c, 0, 52, 0
3, 226833, Note_on_c, 0, 78, 46
3, 226857, Note_on_c, 0, 69, 36
3, 226858, Note_on_c, 0, 73, 36
3, 226885, Control_c, 0, 64, 0
3, 226888, Note_on_c, 0, 50, 36
3, 227103, Control_c, 0, 64, 127
3, 227215, Note_on_c, 0, 78, 0
3, 227314, Note_on_c, 0, 78, 60
3, 227337, Note_on_c, 0, 57, 36
3, 227599, Note_on_c, 0, 78, 0
3, 227841, Note_on_c, 0, 69, 0
3, 227847, Note_on_c, 0, 78, 55
3, 227861, Note_on_c, 0, 73, 0
3, 227889, Note_on_c, 0, 62, 37
3, 228289, Note_on_c, 0, 78, 0
3, 228413, Note_on_c, 0, 62, 0
3, 228421, Note_on_c, 0, 50, 0
3, 228443, Note_on_c, 0, 57, 0
3, 228470, Note_on_c, 0, 78, 47
3, 228667, Note_on_c, 0, 78, 0
3, 229068, Control_c, 0, 64, 0
3, 229108, Note_on_c, 0, 28, 49
3, 229183, Control_c, 0, 64, 127
3, 229241, Note_on_c, 0, 28, 0
3, 229895, Note_on_c, 0, 78, 69
3, 229901, Note_on_c, 0, 56, 67
3, 229904, Note_on_c, 0, 73, 58
3, 229905, Note_on_c, 0, 66, 80
3, 229906, Note_on_c, 0, 70, 75
3, 229914, Note_on_c, 0, 62, 76
3, 230439, Note_on_c, 0, 56, 0
3, 230453, Note_on_c, 0, 66, 0
3, 230455, Note_on_c, 0, 70, 0
3, 230459, Note_on_c, 0, 62, 0
3, 230462, Note_on_c, 0, 78, 0
3, 230485, Note_on_c, 0, 73, 0
3, 230794, Note_on_c, 0, 78, 50
3, 230799, Note_on_c, 0, 56, 51
3, 230800, Note_on_c, 0, 66, 49
3, 230808, Note_on_c, 0, 73, 33
3, 230809, Note_on_c, 0, 62, 49
3, 230811, Note_on_c, 0, 70, 47
3, 231229, Note_on_c, 0, 56, 0
3, 231231, Note_on_c, 0, 62, 0
3, 231323, Note_on_c, 0, 70, 0
3, 231349, Note_on_c, 0, 78, 0
3, 231360, Note_on_c, 0, 66, 0
3, 231363, Note_on_c, 0, 73, 0
3, 231766, Note_on_c, 0, 78, 37
3, 231780, Note_on_c, 0, 56, 38
3, 231783, Note_on_c, 0, 66, 31
3, 231791, Note_on_c, 0, 73, 30
3, 231794, Note_on_c, 0, 70, 42
3, 231798, Note_on_c, 0, 62, 42
3, 232162, Note_on_c, 0, 73, 0
3, 232163, Note_on_c, 0, 78, 0
3, 232173, Note_on_c, 0, 62, 0
3, 232187, Note_on_c, 0, 70, 0
3, 232240, Note_on_c, 0, 66, 0
3, 232287, Note_on_c, 0, 56, 0
3, 233766, Control_c, 0, 64, 0
3, 233768, Note_on_c, 0, 69, 55
3, 233770, Note_on_c, 0, 62, 60
3, 233771, Note_on_c, 0, 64, 61
3, 233775, Note_on_c, 0, 57, 43
3, 233794, Note_on_c, 0, 45, 36
3, 233796, Note_on_c, 0, 52, 45
3, 234066, Control_c, 0, 64, 127
3, 234223, Note_on_c, 0, 57, 0
3, 234285, Note_on_c, 0, 62, 0
3, 234298, Note_on_c, 0, 64, 0
3, 234339, Note_on_c, 0, 69, 0
3, 234753, Note_on_c, 0, 52, 0
3, 234753, Note_on_c, 0, 69, 52
3, 234772, Note_on_c, 0, 81, 47
3, 234788, Note_on_c, 0, 57, 36
3, 234823, Note_on_c, 0, 45, 0
3, 234901, Note_on_c, 0, 69, 0
3, 235033, Note_on_c, 0, 57, 0
3, 235048, Note_on_c, 0, 81, 0
3, 235834, Note_on_c, 0, 93, 54
3, 235847, Note_on_c, 0, 81, 35
3, 235850, Note_on_c, 0, 69, 33
3, 236613, Note_on_c, 0, 93, 0
3, 236663, Note_on_c, 0, 81, 0
3, 236779, Note_on_c, 0, 69, 0
3, 238167, Note_on_c, 0, 55, 66
3, 238289, Note_on_c, 0, 60, 62
3, 238307, Note_on_c, 0, 70, 61
3, 238351, Note_on_c, 0, 75, 60
3, 238353, Note_on_c, 0, 65, 51
3, 238395, Control_c, 0, 64, 0
3, 238434, Note_on_c, 0, 82, 59
3, 238626, Control_c, 0, 64, 127
3, 238786, Note_on_c, 0, 65, 0
3, 238814, Note_on_c, 0, 60, 0
3, 238865, Note_on_c, 0, 55, 0
3, 239518, Note_on_c, 0, 27, 43
3, 239595, Note_on_c, 0, 27, 0
3, 241963, Control_c, 0, 64, 0
3, 242159, Control_c, 0, 64, 127
3, 242239, Note_on_c, 0, 26, 39
3, 242596, Note_on_c, 0, 82, 0
3, 242617, Note_on_c, 0, 75, 0
3, 242625, Note_on_c, 0, 70, 0
3, 244014, Control_c, 0, 64, 0
3, 244341, Note_on_c, 0, 85, 52
3, 244375, Note_on_c, 0, 50, 14
3, 244399, Note_on_c, 0, 57, 22
3, 244494, Control_c, 0, 64, 127
3, 244555, Note_on_c, 0, 85, 0
3, 244608, Note_on_c, 0, 86, 54
3, 245119, Note_on_c, 0, 26, 0
3, 245121, Note_on_c, 0, 57, 0
3, 245314, Note_on_c, 0, 86, 0
3, 245359, Note_on_c, 0, 78, 31
3, 245377, Note_on_c, 0, 62, 33
3, 245403, Note_on_c, 0, 57, 24
3, 245685, Note_on_c, 0, 78, 0
3, 245701, Note_on_c, 0, 50, 0
3, 245957, Note_on_c, 0, 50, 19
3, 246102, Note_on_c, 0, 62, 0
3, 246141, Note_on_c, 0, 57, 0
3, 246212, Note_on_c, 0, 50, 0
3, 246471, Note_on_c, 0, 66, 37
3, 246487, Note_on_c, 0, 62, 34
3, 246512, Note_on_c, 0, 50, 18
3, 246534, Note_on_c, 0, 58, 21
3, 246720, Note_on_c, 0, 62, 0
3, 246837, Note_on_c, 0, 66, 0
3, 247418, Note_on_c, 0, 58, 0
3, 247577, Note_on_c, 0, 73, 83
3, 247600, Note_on_c, 0, 58, 33
3, 247602, Note_on_c, 0, 62, 55
3, 247901, Note_on_c, 0, 73, 0
3, 247940, Note_on_c, 0, 74, 70
3, 248191, Note_on_c, 0, 50, 0
3, 248239, Note_on_c, 0, 74, 0
3, 248291, Note_on_c, 0, 67, 66
3, 248416, Note_on_c, 0, 58, 0
3, 248536, Note_on_c, 0, 62, 0
3, 248578, Note_on_c, 0, 67, 0
3, 248733, Note_on_c, 0, 67, 49
3, 248740, Note_on_c, 0, 59, 31
3, 248741, Note_on_c, 0, 64, 42
3, 248745, Control_c, 0, 64, 0
3, 248767, Note_on_c, 0, 50, 24
3, 248999, Control_c, 0, 64, 127
3, 249325, Note_on_c, 0, 59, 0
3, 249417, Note_on_c, 0, 64, 0
3, 249577, Note_on_c, 0, 67, 0
3, 249919, Note_on_c, 0, 73, 77
3, 249921, Note_on_c, 0, 59, 48
3, 249941, Note_on_c, 0, 62, 39
3, 250100, Note_on_c, 0, 62, 0
3, 250227, Note_on_c, 0, 73, 0
3, 250252, Note_on_c, 0, 59, 0
3, 250286, Note_on_c, 0, 74, 77
3, 250660, Note_on_c, 0, 69, 59
3, 250665, Note_on_c, 0, 64, 47
3, 251073, Note_on_c, 0, 61, 39
3, 251106, Control_c, 0, 64, 0
3, 251339, Control_c, 0, 64, 127
3, 251432, Note_on_c, 0, 64, 0
3, 251541, Note_on_c, 0, 64, 26
3, 251557, Note_on_c, 0, 74, 0
3, 251634, Note_on_c, 0, 50, 0
3, 251867, Note_on_c, 0, 76, 66
3, 252137, Note_on_c, 0, 76, 0
3, 252272, Note_on_c, 0, 50, 26
3, 252282, Note_on_c, 0, 76, 55
3, 252486, Note_on_c, 0, 61, 0
3, 252651, Note_on_c, 0, 76, 0
3, 252717, Note_on_c, 0, 76, 51
3, 252951, Note_on_c, 0, 76, 0
3, 253022, Note_on_c, 0, 64, 0
3, 253139, Note_on_c, 0, 76, 63
3, 253222, Note_on_c, 0, 69, 0
3, 253345, Note_on_c, 0, 50, 0
3, 253397, Note_on_c, 0, 76, 0
3, 253509, Note_on_c, 0, 74, 45
3, 253511, Note_on_c, 0, 50, 35
3, 253573, Control_c, 0, 64, 0
3, 253587, Note_on_c, 0, 69, 32
3, 253602, Note_on_c, 0, 66, 8
3, 253763, Control_c, 0, 64, 127
3, 253831, Note_on_c, 0, 66, 0
3, 253841, Note_on_c, 0, 69, 0
3, 253886, Note_on_c, 0, 74, 0
3, 253940, Note_on_c, 0, 57, 34
3, 254230, Note_on_c, 0, 50, 0
3, 254236, Note_on_c, 0, 57, 0
3, 254278, Note_on_c, 0, 83, 48
3, 254284, Note_on_c, 0, 62, 32
3, 254382, Note_on_c, 0, 83, 0
3, 254677, Note_on_c, 0, 81, 47
3, 254701, Note_on_c, 0, 66, 39
3, 254815, Note_on_c, 0, 62, 0
3, 255066, Note_on_c, 0, 73, 25
3, 255072, Note_on_c, 0, 69, 36
3, 255417, Note_on_c, 0, 69, 0
3, 255560, Note_on_c, 0, 73, 0
3, 255765, Note_on_c, 0, 66, 0
3, 255865, Note_on_c, 0, 73, 25
3, 255881, Note_on_c, 0, 69, 37
3, 255885, Note_on_c, 0, 81, 0
3, 256280, Note_on_c, 0, 57, 69
3, 256632, Note_on_c, 0, 73, 0
3, 256688, Note_on_c, 0, 69, 0
3, 257084, Note_on_c, 0, 66, 42
3, 257106, Note_on_c, 0, 69, 51
3, 257185, Note_on_c, 0, 57, 0
3, 257525, Note_on_c, 0, 57, 51
3, 257978, Note_on_c, 0, 69, 0
3, 258044, Note_on_c, 0, 50, 42
3, 258121, Note_on_c, 0, 50, 0
3, 258126, Note_on_c, 0, 66, 0
3, 258284, Note_on_c, 0, 50, 49
3, 258319, Note_on_c, 0, 57, 0
3, 258445, Note_on_c, 0, 71, 65
3, 258460, Note_on_c, 0, 64, 73
3, 258464, Control_c, 0, 64, 0
3, 258466, Note_on_c, 0, 60, 65
3, 258478, Note_on_c, 0, 59, 76
3, 258792, Control_c, 0, 64, 127
3, 258886, Note_on_c, 0, 69, 71
3, 258929, Note_on_c, 0, 71, 0
3, 259198, Note_on_c, 0, 59, 0
3, 259250, Note_on_c, 0, 60, 0
3, 259402, Note_on_c, 0, 64, 0
3, 259734, Note_on_c, 0, 60, 29
3, 259736, Note_on_c, 0, 64, 51
3, 259774, Note_on_c, 0, 59, 28
3, 259913, Note_on_c, 0, 60, 0
3, 259976, Note_on_c, 0, 64, 0
3, 260028, Note_on_c, 0, 69, 0
3, 260460, Note_on_c, 0, 59, 0
3, 260668, Note_on_c, 0, 50, 0
3, 260948, Note_on_c, 0, 50, 34
3, 260982, Note_on_c, 0, 77, 50
3, 260985, Note_on_c, 0, 54, 27
3, 261011, Note_on_c, 0, 70, 40
3, 261013, Note_on_c, 0, 60, 31
3, 261021, Note_on_c, 0, 74, 51
3, 261036, Control_c, 0, 64, 0
3, 261062, Note_on_c, 0, 65, 27
3, 261386, Control_c, 0, 64, 127
3, 261606, Note_on_c, 0, 74, 0
3, 261637, Note_on_c, 0, 77, 0
3, 261648, Note_on_c, 0, 60, 0
3, 261698, Note_on_c, 0, 70, 0
3, 261735, Note_on_c, 0, 65, 0
3, 261768, Note_on_c, 0, 54, 0
3, 262283, Note_on_c, 0, 62, 33
3, 262285, Note_on_c, 0, 65, 42
3, 262304, Note_on_c, 0, 54, 21
3, 262318, Note_on_c, 0, 60, 28
3, 262536, Note_on_c, 0, 50, 0
3, 262858, Note_on_c, 0, 65, 0
3, 262885, Note_on_c, 0, 50, 53
3, 262904, Note_on_c, 0, 60, 0
3, 262999, Note_on_c, 0, 62, 0
3, 263126, Note_on_c, 0, 54, 0
3, 263216, Note_on_c, 0, 50, 0
3, 263492, Note_on_c, 0, 62, 74
3, 263529, Note_on_c, 0, 59, 65
3, 263534, Note_on_c, 0, 57, 66
3, 263536, Note_on_c, 0, 50, 45
3, 263537, Note_on_c, 0, 54, 53
3, 263577, Control_c, 0, 64, 0
3, 264148, Control_c, 0, 64, 127
3, 264395, Note_on_c, 0, 54, 0
3, 264492, Note_on_c, 0, 57, 0
3, 264568, Note_on_c, 0, 59, 0
3, 264649, Note_on_c, 0, 62, 0
3, 264814, Note_on_c, 0, 57, 47
3, 264820, Note_on_c, 0, 59, 47
3, 264827, Note_on_c, 0, 62, 37
3, 264916, Note_on_c, 0, 50, 0
3, 265382, Note_on_c, 0, 54, 78
3, 265705, Note_on_c, 0, 57, 0
3, 265741, Note_on_c, 0, 59, 0
3, 265824, Note_on_c, 0, 62, 0
3, 266061, Note_on_c, 0, 59, 46
3, 266066, Note_on_c, 0, 62, 41
3, 266077, Note_on_c, 0, 57, 22
3, 266086, Control_c, 0, 64, 0
3, 266171, Control_c, 0, 64, 127
3, 266657, Note_on_c, 0, 54, 0
3, 266661, Note_on_c, 0, 50, 50
3, 266670, Control_c, 0, 64, 0
3, 266880, Control_c, 0, 64, 127
3, 267109, Note_on_c, 0, 59, 0
3, 267115, Note_on_c, 0, 57, 0
3, 267173, Note_on_c, 0, 62, 0
3, 267959, Note_on_c, 0, 50, 0
3, 268177, Note_on_c, 0, 62, 53
3, 268271, Note_on_c, 0, 62, 0
3, 268370, Note_on_c, 0, 69, 72
3, 268511, Note_on_c, 0, 69, 0
3, 268533, Control_c, 0, 64, 0
3, 268653, Note_on_c, 0, 66, 52
3, 268660, Note_on_c, 0, 69, 36
3, 268661, Note_on_c, 0, 62, 44
3, 268666, Note_on_c, 0, 48, 33
3, 268688, Note_on_c, 0, 58, 18
3, 268718, Control_c, 0, 64, 127
3, 268908, Note_on_c, 0, 48, 0
3, 269022, Note_on_c, 0, 62, 0
3, 269046, Note_on_c, 0, 58, 0
3, 269131, Note_on_c, 0, 66, 0
3, 269164, Note_on_c, 0, 69, 0
3, 269968, Note_on_c, 0, 58, 31
3, 270234, Note_on_c, 0, 64, 16
3, 270318, Note_on_c, 0, 69, 49
3, 270420, Note_on_c, 0, 74, 55
3, 270427, Note_on_c, 0, 69, 0
3, 270521, Note_on_c, 0, 74, 0
3, 270531, Note_on_c, 0, 81, 57
3, 270567, Note_on_c, 0, 81, 0
3, 270637, Note_on_c, 0, 81, 61
3, 270757, Note_on_c, 0, 86, 51
3, 270759, Note_on_c, 0, 81, 0
3, 270806, Note_on_c, 0, 86, 0
3, 270840, Note_on_c, 0, 91, 32
3, 270882, Note_on_c, 0, 91, 0
3, 270967, Note_on_c, 0, 93, 43
3, 271038, Note_on_c, 0, 98, 58
3, 271151, Note_on_c, 0, 105, 65
3, 271157, Note_on_c, 0, 93, 0
3, 271162, Note_on_c, 0, 98, 0
3, 271289, Note_on_c, 0, 98, 43
3, 271314, Note_on_c, 0, 105, 0
3, 271336, Note_on_c, 0, 98, 0
3, 271702, Note_on_c, 0, 64, 0
3, 271924, Note_on_c, 0, 58, 0
3, 272373, Note_on_c, 0, 58, 33
3, 272384, Note_on_c, 0, 64, 24
3, 272608, Note_on_c, 0, 64, 0
3, 272794, Note_on_c, 0, 58, 0
3, 273207, Note_on_c, 0, 62, 33
3, 273327, Note_on_c, 0, 62, 0
3, 273725, Note_on_c, 0, 54, 34
3, 273728, Note_on_c, 0, 61, 42
3, 273731, Note_on_c, 0, 62, 43
3, 273744, Note_on_c, 0, 57, 40
3, 273807, Control_c, 0, 64, 0
3, 274219, Control_c, 0, 64, 127
3, 274251, Note_on_c, 0, 62, 0
3, 274292, Note_on_c, 0, 57, 0
3, 274359, Note_on_c, 0, 61, 0
3, 274369, Note_on_c, 0, 62, 77
3, 274742, Note_on_c, 0, 62, 0
3, 274920, Note_on_c, 0, 62, 91
3, 275415, Note_on_c, 0, 62, 0
3, 275788, Note_on_c, 0, 62, 66
3, 275908, Note_on_c, 0, 62, 0
3, 275970, Note_on_c, 0, 61, 43
3, 276104, Control_c, 0, 64, 0
3, 276167, Note_on_c, 0, 47, 34
3, 276172, Note_on_c, 0, 61, 0
3, 276187, Note_on_c, 0, 62, 57
3, 276348, Control_c, 0, 64, 127
3, 276418, Note_on_c, 0, 62, 0
3, 276519, Note_on_c, 0, 71, 57
3, 277367, Note_on_c, 0, 62, 34
3, 277421, Note_on_c, 0, 71, 0
3, 277564, Note_on_c, 0, 62, 0
3, 278000, Note_on_c, 0, 47, 0
3, 278004, Note_on_c, 0, 81, 48
3, 278053, Note_on_c, 0, 54, 0
3, 278193, Note_on_c, 0, 81, 0
3, 278610, Note_on_c, 0, 79, 47
3, 278616, Note_on_c, 0, 52, 37
3, 278677, Control_c, 0, 64, 0
3, 278847, Control_c, 0, 64, 127
3, 279078, Note_on_c, 0, 67, 30
3, 279382, Note_on_c, 0, 52, 0
3, 279405, Note_on_c, 0, 67, 0
3, 279417, Note_on_c, 0, 79, 0
3, 279487, Note_on_c, 0, 74, 45
3, 279635, Note_on_c, 0, 74, 0
3, 279688, Note_on_c, 0, 79, 77
3, 279866, Note_on_c, 0, 79, 0
3, 279904, Note_on_c, 0, 54, 40
3, 279924, Note_on_c, 0, 78, 64
3, 279947, Control_c, 0, 64, 0
3, 280128, Control_c, 0, 64, 127
3, 280235, Note_on_c, 0, 69, 60
3, 280251, Note_on_c, 0, 78, 0
3, 280480, Note_on_c, 0, 69, 0
3, 280573, Note_on_c, 0, 66, 38
3, 280863, Note_on_c, 0, 62, 48
3, 281026, Note_on_c, 0, 54, 0
3, 281101, Note_on_c, 0, 62, 0
3, 281186, Note_on_c, 0, 66, 0
3, 281194, Note_on_c, 0, 62, 53
3, 281228, Control_c, 0, 64, 0
3, 281233, Note_on_c, 0, 55, 28
3, 281557, Control_c, 0, 64, 127
3, 281595, Note_on_c, 0, 67, 52
3, 281743, Note_on_c, 0, 62, 0
3, 282058, Note_on_c, 0, 67, 0
3, 282337, Note_on_c, 0, 55, 0
3, 282392, Note_on_c, 0, 65, 35
3, 282396, Note_on_c, 0, 56, 28
3, 282398, Note_on_c, 0, 62, 17
3, 282414, Control_c, 0, 64, 0
3, 282637, Control_c, 0, 64, 127
3, 282803, Note_on_c, 0, 62, 0
3, 282813, Note_on_c, 0, 65, 0
3, 283120, Note_on_c, 0, 71, 80
3, 283297, Note_on_c, 0, 71, 0
3, 283359, Note_on_c, 0, 74, 89
3, 283577, Note_on_c, 0, 74, 0
3, 283642, Note_on_c, 0, 56, 0
3, 283665, Note_on_c, 0, 73, 67
3, 283717, Control_c, 0, 64, 0
3, 283718, Note_on_c, 0, 57, 39
3, 283939, Control_c, 0, 64, 127
3, 284061, Note_on_c, 0, 64, 58
3, 284300, Note_on_c, 0, 64, 0
3, 284443, Note_on_c, 0, 64, 71
3, 284637, Note_on_c, 0, 73, 0
3, 284756, Note_on_c, 0, 76, 81
3, 284826, Note_on_c, 0, 57, 0
3, 284826, Note_on_c, 0, 55, 54
3, 284860, Control_c, 0, 64, 0
3, 285049, Note_on_c, 0, 76, 0
3, 285114, Control_c, 0, 64, 127
3, 285155, Note_on_c, 0, 76, 71
3, 285449, Note_on_c, 0, 69, 57
3, 285455, Note_on_c, 0, 64, 0
3, 285458, Note_on_c, 0, 55, 0
3, 285595, Note_on_c, 0, 69, 0
3, 285740, Note_on_c, 0, 69, 56
3, 285782, Note_on_c, 0, 76, 0
3, 285940, Note_on_c, 0, 54, 35
3, 285988, Note_on_c, 0, 62, 26
3, 286003, Control_c, 0, 64, 0
3, 286135, Note_on_c, 0, 74, 52
3, 286281, Note_on_c, 0, 74, 0
3, 286363, Control_c, 0, 64, 127
3, 286403, Note_on_c, 0, 69, 0
3, 286435, Note_on_c, 0, 74, 57
3, 286468, Note_on_c, 0, 69, 12
3, 286654, Note_on_c, 0, 62, 0
3, 286700, Note_on_c, 0, 54, 0
3, 286730, Note_on_c, 0, 69, 0
3, 286755, Note_on_c, 0, 66, 43
3, 287040, Note_on_c, 0, 66, 0
3, 287118, Note_on_c, 0, 66, 36
3, 287120, Note_on_c, 0, 74, 0
3, 287339, Note_on_c, 0, 41, 26
3, 287346, Note_on_c, 0, 48, 42
3, 287375, Note_on_c, 0, 71, 55
3, 287393, Note_on_c, 0, 57, 35
3, 287401, Control_c, 0, 64, 0
3, 287451, Note_on_c, 0, 66, 0
3, 287713, Note_on_c, 0, 63, 37
3, 287718, Control_c, 0, 64, 127
3, 287953, Note_on_c, 0, 63, 0
3, 287973, Note_on_c, 0, 48, 0
3, 288001, Note_on_c, 0, 41, 0
3, 288010, Note_on_c, 0, 57, 0
3, 288077, Note_on_c, 0, 63, 37
3, 288259, Note_on_c, 0, 71, 0
3, 288368, Note_on_c, 0, 63, 0
3, 288583, Note_on_c, 0, 40, 29
3, 288588, Note_on_c, 0, 47, 25
3, 288611, Note_on_c, 0, 62, 34
3, 288620, Note_on_c, 0, 67, 35
3, 288629, Control_c, 0, 64, 0
3, 288851, Control_c, 0, 64, 127
3, 289032, Note_on_c, 0, 40, 0
3, 289062, Note_on_c, 0, 47, 0
3, 289072, Note_on_c, 0, 62, 0
3, 289094, Note_on_c, 0, 67, 0
3, 289200, Note_on_c, 0, 69, 78
3, 289544, Note_on_c, 0, 67, 68
3, 289635, Note_on_c, 0, 69, 0
3, 289864, Note_on_c, 0, 54, 34
3, 289886, Note_on_c, 0, 67, 0
3, 289887, Note_on_c, 0, 66, 44
3, 289913, Note_on_c, 0, 59, 22
3, 289920, Control_c, 0, 64, 0
3, 290132, Note_on_c, 0, 59, 0
3, 290196, Control_c, 0, 64, 127
3, 290311, Note_on_c, 0, 66, 0
3, 290325, Note_on_c, 0, 67, 65
3, 290569, Note_on_c, 0, 54, 0
3, 290725, Note_on_c, 0, 69, 64
3, 290784, Note_on_c, 0, 67, 0
3, 291040, Note_on_c, 0, 69, 0
3, 291105, Note_on_c, 0, 67, 46
3, 291119, Note_on_c, 0, 62, 40
3, 291136, Note_on_c, 0, 52, 37
3, 291143, Note_on_c, 0, 59, 30
3, 291148, Control_c, 0, 64, 0
3, 291382, Control_c, 0, 64, 127
3, 291489, Note_on_c, 0, 62, 0
3, 291660, Note_on_c, 0, 59, 0
3, 291695, Note_on_c, 0, 62, 28
3, 291752, Note_on_c, 0, 67, 0
3, 291768, Note_on_c, 0, 52, 0
3, 292149, Note_on_c, 0, 62, 0
3, 292353, Note_on_c, 0, 61, 56
3, 292398, Control_c, 0, 64, 0
3, 292414, Note_on_c, 0, 45, 20
3, 292415, Note_on_c, 0, 55, 20
3, 292673, Control_c, 0, 64, 127
3, 292982, Note_on_c, 0, 45, 0
3, 292999, Note_on_c, 0, 64, 62
3, 293053, Note_on_c, 0, 55, 0
3, 293222, Note_on_c, 0, 64, 0
3, 293326, Note_on_c, 0, 61, 0
3, 293683, Note_on_c, 0, 69, 64
3, 293694, Note_on_c, 0, 48, 39
3, 293696, Note_on_c, 0, 66, 43
3, 293704, Note_on_c, 0, 62, 66
3, 293710, Control_c, 0, 64, 0
3, 293716, Note_on_c, 0, 55, 37
3, 293721, Note_on_c, 0, 58, 35
3, 293955, Control_c, 0, 64, 127
3, 294189, Note_on_c, 0, 69, 0
3, 294312, Note_on_c, 0, 66, 0
3, 294365, Note_on_c, 0, 67, 71
3, 294464, Note_on_c, 0, 55, 0
3, 294566, Note_on_c, 0, 48, 0
3, 294582, Note_on_c, 0, 67, 0
3, 294590, Note_on_c, 0, 62, 0
3, 294693, Note_on_c, 0, 58, 0
3, 295102, Note_on_c, 0, 34, 37
3, 295118, Note_on_c, 0, 46, 29
3, 295121, Note_on_c, 0, 56, 36
3, 295123, Note_on_c, 0, 67, 53
3, 295137, Note_on_c, 0, 60, 38
3, 295153, Note_on_c, 0, 63, 26
3, 295161, Control_c, 0, 64, 0
3, 295426, Control_c, 0, 64, 127
3, 295759, Note_on_c, 0, 67, 0
3, 295838, Note_on_c, 0, 60, 0
3, 295845, Note_on_c, 0, 65, 57
3, 295990, Note_on_c, 0, 46, 0
3, 296081, Note_on_c, 0, 65, 0
3, 296156, Note_on_c, 0, 56, 0
3, 296162, Note_on_c, 0, 34, 0
3, 296167, Note_on_c, 0, 63, 0
3, 296663, Note_on_c, 0, 54, 39
3, 296680, Note_on_c, 0, 58, 46
3, 296683, Note_on_c, 0, 44, 30
3, 296684, Note_on_c, 0, 32, 35
3, 296686, Note_on_c, 0, 65, 45
3, 296687, Note_on_c, 0, 61, 36
3, 296709, Control_c, 0, 64, 0
3, 297091, Control_c, 0, 64, 127
3, 297437, Note_on_c, 0, 65, 0
3, 298557, Note_on_c, 0, 63, 37
3, 298574, Note_on_c, 0, 61, 0
3, 298592, Note_on_c, 0, 44, 0
3, 298629, Note_on_c, 0, 54, 0
3, 298686, Note_on_c, 0, 32, 0
3, 299095, Note_on_c, 0, 63, 0
3, 299137, Note_on_c, 0, 58, 0
3, 300003, Control_c, 0, 64, 0
3, 300010, Note_on_c, 0, 43, 36
3, 300011, Note_on_c, 0, 59, 51
3, 300014, Note_on_c, 0, 67, 53
3, 300022, Note_on_c, 0, 31, 37
3, 300214, Control_c, 0, 64, 127
3, 300354, Note_on_c, 0, 67, 0
3, 300494, Note_on_c, 0, 59, 0
3, 300498, Note_on_c, 0, 67, 58
3, 300544, Note_on_c, 0, 43, 0
3, 300566, Note_on_c, 0, 31, 0
3, 300688, Note_on_c, 0, 67, 0
3, 300881, Control_c, 0, 64, 0
3, 300882, Note_on_c, 0, 67, 55
3, 300895, Note_on_c, 0, 57, 38
3, 300898, Note_on_c, 0, 41, 37
3, 300906, Note_on_c, 0, 62, 51
3, 300910, Note_on_c, 0, 29, 30
3, 301114, Control_c, 0, 64, 127
3, 301146, Note_on_c, 0, 67, 0
3, 301304, Note_on_c, 0, 67, 52
3, 301331, Note_on_c, 0, 62, 0
3, 301338, Note_on_c, 0, 41, 0
3, 301361, Note_on_c, 0, 29, 0
3, 301381, Note_on_c, 0, 57, 0
3, 301462, Note_on_c, 0, 67, 0
3, 301781, Control_c, 0, 64, 0
3, 301782, Note_on_c, 0, 67, 34
3, 301795, Note_on_c, 0, 28, 32
3, 301796, Note_on_c, 0, 59, 36
3, 301798, Note_on_c, 0, 40, 27
3, 301817, Note_on_c, 0, 62, 25
3, 301836, Note_on_c, 0, 55, 15
3, 302099, Control_c, 0, 64, 127
3, 302158, Note_on_c, 0, 67, 0
3, 302222, Note_on_c, 0, 55, 0
3, 302253, Note_on_c, 0, 40, 0
3, 302257, Note_on_c, 0, 62, 0
3, 302267, Note_on_c, 0, 59, 0
3, 302274, Note_on_c, 0, 67, 36
3, 302282, Note_on_c, 0, 28, 0
3, 302364, Note_on_c, 0, 67, 0
3, 302681, Control_c, 0, 64, 0
3, 302687, Note_on_c, 0, 57, 40
3, 302690, Note_on_c, 0, 69, 41
3, 302702, Note_on_c, 0, 66, 35
3, 302707, Note_on_c, 0, 62, 50
3, 302713, Note_on_c, 0, 26, 37
3, 302721, Note_on_c, 0, 38, 18
3, 302830, Note_on_c, 0, 26, 0
3, 302839, Control_c, 0, 64, 127
3, 302927, Note_on_c, 0, 38, 0
3, 302934, Note_on_c, 0, 69, 0
3, 303045, Note_on_c, 0, 57, 0
3, 303068, Note_on_c, 0, 69, 66
3, 303129, Note_on_c, 0, 62, 0
3, 303197, Note_on_c, 0, 66, 0
3, 303211, Note_on_c, 0, 69, 0
3, 303475, Control_c, 0, 64, 0
3, 303476, Note_on_c, 0, 71, 59
3, 303485, Note_on_c, 0, 64, 66
3, 303494, Note_on_c, 0, 48, 33
3, 303510, Note_on_c, 0, 59, 37
3, 303633, Control_c, 0, 64, 127
3, 303815, Note_on_c, 0, 71, 0
3, 303937, Note_on_c, 0, 59, 0
3, 304000, Note_on_c, 0, 71, 59
3, 304041, Note_on_c, 0, 55, 20
3, 304112, Note_on_c, 0, 55, 0
3, 304208, Note_on_c, 0, 64, 0
3, 304261, Note_on_c, 0, 71, 0
3, 304337, Note_on_c, 0, 48, 0
3, 304779, Note_on_c, 0, 74, 42
3, 304810, Note_on_c, 0, 46, 34
3, 304813, Note_on_c, 0, 65, 35
3, 304823, Note_on_c, 0, 62, 36
3, 304850, Note_on_c, 0, 69, 24
3, 304852, Note_on_c, 0, 57, 33
3, 304883, Control_c, 0, 64, 0
3, 305132, Note_on_c, 0, 74, 0
3, 305221, Control_c, 0, 64, 127
3, 305413, Note_on_c, 0, 57, 0
3, 305428, Note_on_c, 0, 53, 31
3, 305430, Note_on_c, 0, 74, 44
3, 305440, Note_on_c, 0, 62, 0
3, 305458, Note_on_c, 0, 65, 0
3, 305519, Note_on_c, 0, 69, 0
3, 305519, Note_on_c, 0, 53, 0
3, 305629, Note_on_c, 0, 46, 0
3, 305640, Note_on_c, 0, 74, 0
3, 306333, Note_on_c, 0, 76, 40
3, 306355, Control_c, 0, 64, 0
3, 306369, Note_on_c, 0, 45, 25
3, 306377, Note_on_c, 0, 64, 30
3, 306379, Note_on_c, 0, 33, 29
3, 306524, Control_c, 0, 64, 127
3, 306526, Note_on_c, 0, 64, 0
3, 306557, Note_on_c, 0, 33, 0
3, 306648, Note_on_c, 0, 45, 0
3, 306713, Note_on_c, 0, 76, 0
3, 307746, Note_on_c, 0, 81, 33
3, 307798, Note_on_c, 0, 69, 31
3, 307800, Note_on_c, 0, 93, 42
3, 308130, Note_on_c, 0, 69, 0
3, 308571, Note_on_c, 0, 93, 0
3, 308849, Note_on_c, 0, 81, 0
3, 309316, Control_c, 0, 64, 127
3, 309316, Control_c, 0, 64, 0
3, 309316, Control_c, 0, 64, 127
3, 309343, Control_c, 0, 64, 0
3, 309655, Note_on_c, 0, 86, 58
3, 309658, Control_c, 0, 64, 0
3, 309682, Note_on_c, 0, 50, 29
3, 309684, Note_on_c, 0, 57, 30
3, 309830, Note_on_c, 0, 86, 0
3, 309849, Note_on_c, 0, 85, 50
3, 309966, Note_on_c, 0, 85, 0
3, 309996, Control_c, 0, 64, 127
3, 310032, Note_on_c, 0, 86, 57
3, 310699, Note_on_c, 0, 81, 39
3, 310700, Note_on_c, 0, 62, 35
3, 310703, Note_on_c, 0, 86, 0
3, 311088, Note_on_c, 0, 81, 0
3, 311218, Note_on_c, 0, 50, 0
3, 311265, Note_on_c, 0, 86, 92
3, 311447, Note_on_c, 0, 85, 86
3, 311485, Note_on_c, 0, 86, 0
3, 311589, Note_on_c, 0, 85, 0
3, 311638, Control_c, 0, 64, 0
3, 311658, Note_on_c, 0, 86, 79
3, 311672, Note_on_c, 0, 50, 39
3, 311693, Note_on_c, 0, 57, 0
3, 311832, Control_c, 0, 64, 127
3, 311973, Note_on_c, 0, 82, 50
3, 312355, Note_on_c, 0, 62, 0
3, 312436, Note_on_c, 0, 82, 0
3, 312579, Note_on_c, 0, 86, 0
3, 312687, Note_on_c, 0, 74, 35
3, 312718, Note_on_c, 0, 58, 19
3, 312721, Note_on_c, 0, 62, 22
3, 312938, Note_on_c, 0, 74, 0
3, 313216, Note_on_c, 0, 50, 0
3, 313523, Note_on_c, 0, 85, 52
3, 313612, Note_on_c, 0, 85, 0
3, 313691, Note_on_c, 0, 86, 76
3, 313787, Note_on_c, 0, 58, 0
3, 313827, Note_on_c, 0, 86, 0
3, 313861, Note_on_c, 0, 50, 44
3, 313876, Control_c, 0, 64, 0
3, 313887, Note_on_c, 0, 90, 81
3, 314122, Control_c, 0, 64, 127
3, 314238, Note_on_c, 0, 90, 0
3, 314299, Note_on_c, 0, 90, 57
3, 314489, Note_on_c, 0, 62, 0
3, 314600, Note_on_c, 0, 90, 0
3, 314989, Note_on_c, 0, 90, 39
3, 315019, Note_on_c, 0, 78, 21
3, 315020, Note_on_c, 0, 59, 31
3, 315049, Note_on_c, 0, 62, 24
3, 315455, Note_on_c, 0, 62, 0
3, 315532, Note_on_c, 0, 50, 0
3, 315548, Note_on_c, 0, 90, 0
3, 315594, Note_on_c, 0, 59, 0
3, 315709, Note_on_c, 0, 90, 36
3, 315774, Note_on_c, 0, 78, 0
3, 315804, Note_on_c, 0, 90, 0
3, 315906, Note_on_c, 0, 90, 60
3, 316040, Note_on_c, 0, 90, 0
3, 316120, Note_on_c, 0, 90, 69
3, 316149, Note_on_c, 0, 50, 37
3, 316175, Control_c, 0, 64, 0
3, 316360, Control_c, 0, 64, 127
3, 316418, Note_on_c, 0, 88, 51
3, 316441, Note_on_c, 0, 90, 0
3, 316521, Note_on_c, 0, 88, 0
3, 316701, Note_on_c, 0, 88, 68
3, 316894, Note_on_c, 0, 88, 0
3, 317194, Note_on_c, 0, 88, 80
3, 317203, Note_on_c, 0, 61, 52
3, 317226, Note_on_c, 0, 76, 77
3, 317570, Note_on_c, 0, 88, 0
3, 317689, Note_on_c, 0, 88, 80
3, 317892, Note_on_c, 0, 88, 0
3, 318032, Note_on_c, 0, 88, 74
3, 318072, Note_on_c, 0, 50, 0
3, 318157, Note_on_c, 0, 88, 0
3, 318180, Note_on_c, 0, 61, 0
3, 318209, Note_on_c, 0, 88, 70
3, 318310, Note_on_c, 0, 76, 0
3, 318324, Note_on_c, 0, 88, 0
3, 318381, Control_c, 0, 64, 0
3, 318413, Note_on_c, 0, 50, 18
3, 318416, Note_on_c, 0, 86, 64
3, 318441, Note_on_c, 0, 74, 38
3, 318555, Control_c, 0, 64, 127
3, 318719, Note_on_c, 0, 86, 0
3, 318857, Note_on_c, 0, 74, 0
3, 318938, Note_on_c, 0, 57, 38
3, 319500, Note_on_c, 0, 62, 33
3, 319505, Note_on_c, 0, 69, 32
3, 319510, Note_on_c, 0, 66, 21
3, 319720, Note_on_c, 0, 57, 0
3, 319885, Note_on_c, 0, 62, 0
3, 320173, Note_on_c, 0, 66, 0
3, 320653, Note_on_c, 0, 61, 31
3, 320670, Note_on_c, 0, 66, 25
3, 320695, Note_on_c, 0, 64, 38
3, 321215, Note_on_c, 0, 50, 0
3, 321230, Note_on_c, 0, 59, 76
3, 321266, Control_c, 0, 64, 0
3, 321317, Control_c, 0, 64, 127
3, 321543, Note_on_c, 0, 64, 0
3, 321595, Note_on_c, 0, 61, 0
3, 321599, Note_on_c, 0, 66, 0
3, 321738, Control_c, 0, 64, 0
3, 321764, Note_on_c, 0, 61, 56
3, 321776, Note_on_c, 0, 66, 45
3, 321796, Note_on_c, 0, 64, 55
3, 321840, Control_c, 0, 64, 127
3, 322157, Note_on_c, 0, 69, 0
3, 322360, Note_on_c, 0, 57, 55
3, 322361, Note_on_c, 0, 59, 0
3, 322497, Note_on_c, 0, 61, 0
3, 322558, Note_on_c, 0, 64, 0
3, 322660, Note_on_c, 0, 57, 0
3, 322661, Note_on_c, 0, 66, 0
3, 322928, Control_c, 0, 64, 0
3, 322958, Note_on_c, 0, 71, 59
3, 322970, Note_on_c, 0, 64, 61
3, 322980, Note_on_c, 0, 67, 58
3, 322988, Note_on_c, 0, 60, 40
3, 322996, Note_on_c, 0, 50, 32
3, 323004, Note_on_c, 0, 59, 40
3, 323144, Control_c, 0, 64, 127
3, 323154, Note_on_c, 0, 60, 0
3, 323205, Note_on_c, 0, 64, 0
3, 323227, Note_on_c, 0, 67, 0
3, 323242, Note_on_c, 0, 71, 0
3, 323515, Note_on_c, 0, 50, 0
3, 323586, Note_on_c, 0, 83, 87
3, 323594, Note_on_c, 0, 59, 0
3, 323599, Note_on_c, 0, 76, 82
3, 323887, Note_on_c, 0, 76, 0
3, 324118, Note_on_c, 0, 83, 0
3, 324167, Note_on_c, 0, 79, 36
3, 324181, Note_on_c, 0, 76, 49
3, 324183, Note_on_c, 0, 72, 32
3, 324191, Note_on_c, 0, 60, 29
3, 324194, Note_on_c, 0, 64, 32
3, 324207, Note_on_c, 0, 59, 19
3, 324711, Note_on_c, 0, 79, 0
3, 324749, Note_on_c, 0, 59, 0
3, 324757, Note_on_c, 0, 83, 49
3, 324784, Note_on_c, 0, 60, 0
3, 324800, Note_on_c, 0, 64, 0
3, 324864, Note_on_c, 0, 72, 0
3, 324882, Note_on_c, 0, 76, 0
3, 324943, Note_on_c, 0, 83, 0
3, 325336, Note_on_c, 0, 89, 64
3, 325349, Note_on_c, 0, 54, 34
3, 325372, Note_on_c, 0, 86, 57
3, 325388, Note_on_c, 0, 60, 32
3, 325393, Note_on_c, 0, 82, 37
3, 325422, Note_on_c, 0, 65, 37
3, 325443, Control_c, 0, 64, 0
3, 325503, Note_on_c, 0, 77, 22
3, 325741, Control_c, 0, 64, 127
3, 325859, Note_on_c, 0, 65, 0
3, 325880, Note_on_c, 0, 60, 0
3, 325936, Note_on_c, 0, 54, 0
3, 326581, Note_on_c, 0, 26, 40
3, 326683, Note_on_c, 0, 26, 0
3, 326884, Note_on_c, 0, 89, 0
3, 326892, Note_on_c, 0, 86, 0
3, 326982, Note_on_c, 0, 82, 0
3, 327017, Note_on_c, 0, 77, 0
3, 327872, Note_on_c, 0, 54, 25
3, 327883, Note_on_c, 0, 57, 39
3, 327889, Note_on_c, 0, 62, 45
3, 327899, Note_on_c, 0, 50, 24
3, 327919, Note_on_c, 0, 59, 38
3, 327947, Control_c, 0, 64, 0
3, 328224, Control_c, 0, 64, 127
3, 328401, Note_on_c, 0, 50, 0
3, 328507, Note_on_c, 0, 50, 31
3, 328563, Note_on_c, 0, 54, 0
3, 328644, Note_on_c, 0, 57, 0
3, 328954, Note_on_c, 0, 59, 0
3, 328976, Note_on_c, 0, 62, 0
3, 329070, Note_on_c, 0, 50, 0
3, 329076, Note_on_c, 0, 54, 63
3, 329089, Note_on_c, 0, 59, 59
3, 329093, Note_on_c, 0, 62, 57
3, 329094, Note_on_c, 0, 57, 62
3, 329107, Control_c, 0, 64, 0
3, 329456, Control_c, 0, 64, 127
3, 329517, Control_c, 0, 64, 0
3, 329609, Note_on_c, 0, 52, 66
3, 329611, Note_on_c, 0, 54, 0
3, 329703, Control_c, 0, 64, 127
3, 329952, Note_on_c, 0, 57, 0
3, 329987, Note_on_c, 0, 59, 0
3, 330016, Note_on_c, 0, 62, 0
3, 330175, Control_c, 0, 64, 0
3, 330213, Note_on_c, 0, 59, 36
3, 330214, Note_on_c, 0, 57, 24
3, 330216, Note_on_c, 0, 62, 33
3, 330514, Control_c, 0, 64, 127
3, 330796, Note_on_c, 0, 52, 0
3, 330810, Note_on_c, 0, 50, 43
3, 330822, Control_c, 0, 64, 0
3, 331149, Note_on_c, 0, 57, 0
3, 331197, Note_on_c, 0, 59, 0
3, 331202, Control_c, 0, 64, 127
3, 331218, Note_on_c, 0, 62, 0
3, 331389, Note_on_c, 0, 57, 30
3, 331389, Note_on_c, 0, 59, 39
3, 331395, Note_on_c, 0, 62, 38
3, 331464, Note_on_c, 0, 50, 0
3, 331644, Note_on_c, 0, 57, 0
3, 331654, Note_on_c, 0, 59, 0
3, 331734, Note_on_c, 0, 62, 0
3, 331994, Note_on_c, 0, 50, 36
3, 332104, Note_on_c, 0, 50, 0
3, 332477, Note_on_c, 0, 36, 43
3, 332564, Note_on_c, 0, 43, 34
3, 332570, Note_on_c, 0, 58, 52
3, 332644, Note_on_c, 0, 62, 53
3, 332679, Note_on_c, 0, 52, 37
3, 332689, Control_c, 0, 64, 0
3, 332691, Note_on_c, 0, 66, 46
3, 332739, Note_on_c, 0, 69, 39
3, 332971, Note_on_c, 0, 58, 0
3, 332979, Control_c, 0, 64, 127
3, 332983, Note_on_c, 0, 62, 0
3, 333025, Note_on_c, 0, 66, 0
3, 333050, Note_on_c, 0, 69, 0
3, 333295, Note_on_c, 0, 69, 46
3, 333372, Note_on_c, 0, 81, 42
3, 333439, Note_on_c, 0, 36, 0
3, 333478, Note_on_c, 0, 43, 0
3, 333586, Note_on_c, 0, 52, 0
3, 333648, Note_on_c, 0, 69, 0
3, 333715, Note_on_c, 0, 81, 0
3, 333850, Note_on_c, 0, 69, 31
3, 333939, Note_on_c, 0, 81, 42
3, 333992, Note_on_c, 0, 69, 0
3, 334092, Note_on_c, 0, 81, 0
3, 334419, Note_on_c, 0, 81, 31
3, 334488, Note_on_c, 0, 93, 54
3, 334670, Note_on_c, 0, 81, 0
3, 334721, Note_on_c, 0, 93, 0
3, 334986, Note_on_c, 0, 81, 33
3, 335046, Note_on_c, 0, 93, 47
3, 335060, Note_on_c, 0, 58, 27
3, 335069, Note_on_c, 0, 64, 24
3, 335504, Note_on_c, 0, 81, 0
3, 335568, Note_on_c, 0, 93, 0
3, 336308, Note_on_c, 0, 64, 0
3, 336584, Note_on_c, 0, 58, 0
3, 337149, Note_on_c, 0, 62, 57
3, 337268, Note_on_c, 0, 62, 0
3, 337286, Note_on_c, 0, 61, 49
3, 337402, Note_on_c, 0, 61, 0
3, 337450, Note_on_c, 0, 62, 69
3, 337458, Note_on_c, 0, 54, 39
3, 337483, Control_c, 0, 64, 0
3, 337770, Control_c, 0, 64, 127
3, 338563, Note_on_c, 0, 62, 0
3, 338623, Note_on_c, 0, 57, 35
3, 338737, Note_on_c, 0, 57, 0
3, 339189, Note_on_c, 0, 74, 68
3, 339413, Note_on_c, 0, 74, 0
3, 339713, Note_on_c, 0, 54, 0
3, 339746, Note_on_c, 0, 74, 48
3, 339778, Note_on_c, 0, 66, 29
3, 339779, Note_on_c, 0, 47, 33
3, 339794, Note_on_c, 0, 57, 24
3, 339800, Note_on_c, 0, 62, 29
3, 339813, Control_c, 0, 64, 0
3, 340222, Control_c, 0, 64, 127
3, 340550, Note_on_c, 0, 62, 0
3, 340646, Note_on_c, 0, 57, 0
3, 340671, Note_on_c, 0, 66, 0
3, 341182, Note_on_c, 0, 66, 20
3, 341188, Note_on_c, 0, 54, 18
3, 341204, Note_on_c, 0, 62, 18
3, 341225, Note_on_c, 0, 57, 19
3, 341477, Note_on_c, 0, 74, 0
3, 341576, Note_on_c, 0, 62, 0
3, 341854, Control_c, 0, 64, 0
3, 341879, Note_on_c, 0, 66, 0
3, 341888, Note_on_c, 0, 47, 0
3, 341922, Note_on_c, 0, 54, 0
3, 341928, Note_on_c, 0, 57, 0
3, 341951, Note_on_c, 0, 74, 40
3, 341982, Control_c, 0, 64, 127
3, 342056, Note_on_c, 0, 74, 0
3, 343191, Control_c, 0, 64, 0
3, 343199, Note_on_c, 0, 79, 44
3, 343210, Note_on_c, 0, 52, 30
3, 343226, Note_on_c, 0, 62, 24
3, 343230, Note_on_c, 0, 67, 24
3, 343244, Note_on_c, 0, 59, 24
3, 343531, Control_c, 0, 64, 127
3, 343755, Note_on_c, 0, 79, 0
3, 343773, Note_on_c, 0, 78, 65
3, 343944, Note_on_c, 0, 52, 0
3, 344013, Note_on_c, 0, 59, 0
3, 344032, Note_on_c, 0, 62, 0
3, 344115, Note_on_c, 0, 67, 0
3, 344193, Note_on_c, 0, 78, 0
3, 344240, Note_on_c, 0, 54, 43
3, 344249, Note_on_c, 0, 62, 48
3, 344259, Note_on_c, 0, 79, 73
3, 344259, Control_c, 0, 64, 0
3, 344453, Control_c, 0, 64, 127
3, 344650, Note_on_c, 0, 79, 0
3, 344772, Note_on_c, 0, 81, 80
3, 344945, Note_on_c, 0, 54, 0
3, 345006, Note_on_c, 0, 62, 0
3, 345069, Note_on_c, 0, 81, 0
3, 345321, Note_on_c, 0, 74, 29
3, 345354, Note_on_c, 0, 55, 40
3, 345357, Control_c, 0, 64, 0
3, 345374, Note_on_c, 0, 64, 29
3, 345695, Control_c, 0, 64, 127
3, 345790, Note_on_c, 0, 74, 0
3, 345902, Note_on_c, 0, 74, 35
3, 346019, Note_on_c, 0, 55, 0
3, 346173, Note_on_c, 0, 64, 0
3, 346250, Note_on_c, 0, 74, 0
3, 346467, Note_on_c, 0, 56, 27
3, 346488, Note_on_c, 0, 74, 41
3, 346493, Note_on_c, 0, 68, 26
3, 346494, Note_on_c, 0, 65, 36
3, 346506, Control_c, 0, 64, 0
3, 346815, Control_c, 0, 64, 127
3, 347279, Note_on_c, 0, 65, 0
3, 347287, Note_on_c, 0, 56, 0
3, 347307, Note_on_c, 0, 68, 0
3, 347326, Note_on_c, 0, 74, 0
3, 347687, Note_on_c, 0, 74, 59
3, 347690, Note_on_c, 0, 69, 62
3, 347695, Note_on_c, 0, 57, 47
3, 347713, Note_on_c, 0, 64, 35
3, 347728, Control_c, 0, 64, 0
3, 347995, Control_c, 0, 64, 127
3, 348220, Note_on_c, 0, 74, 0
3, 348233, Note_on_c, 0, 76, 75
3, 348491, Note_on_c, 0, 57, 0
3, 348512, Note_on_c, 0, 69, 0
3, 348662, Note_on_c, 0, 64, 0
3, 348793, Note_on_c, 0, 73, 36
3, 348806, Note_on_c, 0, 67, 48
3, 348812, Note_on_c, 0, 55, 45
3, 348821, Note_on_c, 0, 62, 51
3, 348826, Control_c, 0, 64, 0
3, 348879, Note_on_c, 0, 76, 0
3, 349053, Control_c, 0, 64, 127
3, 349377, Note_on_c, 0, 73, 0
3, 349504, Note_on_c, 0, 67, 0
3, 349545, Note_on_c, 0, 73, 36
3, 349705, Note_on_c, 0, 55, 0
3, 349766, Note_on_c, 0, 62, 0
3, 349967, Note_on_c, 0, 73, 0
3, 350028, Note_on_c, 0, 54, 36
3, 350058, Control_c, 0, 64, 0
3, 350060, Note_on_c, 0, 62, 35
3, 350063, Note_on_c, 0, 74, 40
3, 350075, Note_on_c, 0, 69, 44
3, 350294, Control_c, 0, 64, 127
3, 350480, Note_on_c, 0, 69, 0
3, 350485, Note_on_c, 0, 62, 0
3, 350631, Note_on_c, 0, 54, 0
3, 350664, Note_on_c, 0, 74, 0
3, 350688, Note_on_c, 0, 69, 62
3, 350982, Note_on_c, 0, 69, 0
3, 351315, Note_on_c, 0, 41, 25
3, 351383, Note_on_c, 0, 71, 53
3, 351404, Note_on_c, 0, 63, 36
3, 351413, Control_c, 0, 64, 0
3, 351414, Note_on_c, 0, 67, 50
3, 351428, Note_on_c, 0, 57, 36
3, 351783, Control_c, 0, 64, 127
3, 352171, Note_on_c, 0, 63, 0
3, 352253, Note_on_c, 0, 57, 0
3, 352255, Note_on_c, 0, 71, 0
3, 352293, Note_on_c, 0, 74, 53
3, 352294, Note_on_c, 0, 67, 0
3, 352304, Note_on_c, 0, 41, 0
3, 352533, Note_on_c, 0, 74, 0
3, 353128, Note_on_c, 0, 62, 35
3, 353130, Note_on_c, 0, 40, 28
3, 353133, Note_on_c, 0, 67, 48
3, 353137, Control_c, 0, 64, 0
3, 353164, Note_on_c, 0, 55, 40
3, 353373, Control_c, 0, 64, 127
3, 353591, Note_on_c, 0, 40, 0
3, 354283, Note_on_c, 0, 67, 0
3, 354291, Note_on_c, 0, 71, 77
3, 354776, Note_on_c, 0, 62, 0
3, 354936, Note_on_c, 0, 71, 0
3, 354990, Note_on_c, 0, 54, 43
3, 354995, Control_c, 0, 64, 0
3, 355002, Note_on_c, 0, 69, 57
3, 355006, Note_on_c, 0, 55, 0
3, 355027, Note_on_c, 0, 66, 28
3, 355031, Note_on_c, 0, 62, 19
3, 355179, Control_c, 0, 64, 127
3, 355233, Note_on_c, 0, 69, 0
3, 355383, Note_on_c, 0, 62, 0
3, 355600, Note_on_c, 0, 66, 0
3, 355628, Note_on_c, 0, 74, 79
3, 356046, Note_on_c, 0, 54, 0
3, 356050, Note_on_c, 0, 74, 0
3, 356326, Note_on_c, 0, 71, 41
3, 356340, Control_c, 0, 64, 0
3, 356342, Note_on_c, 0, 62, 34
3, 356346, Note_on_c, 0, 52, 32
3, 356351, Note_on_c, 0, 67, 46
3, 356358, Note_on_c, 0, 59, 29
3, 356549, Control_c, 0, 64, 127
3, 356681, Note_on_c, 0, 62, 0
3, 356767, Note_on_c, 0, 71, 0
3, 356884, Note_on_c, 0, 67, 0
3, 357161, Note_on_c, 0, 74, 62
3, 357242, Note_on_c, 0, 59, 0
3, 357390, Note_on_c, 0, 52, 0
3, 357819, Note_on_c, 0, 74, 0
3, 357993, Note_on_c, 0, 73, 31
3, 358023, Note_on_c, 0, 64, 30
3, 358024, Control_c, 0, 64, 0
3, 358036, Note_on_c, 0, 55, 24
3, 358045, Note_on_c, 0, 69, 31
3, 358051, Note_on_c, 0, 45, 22
3, 358270, Control_c, 0, 64, 127
3, 358341, Note_on_c, 0, 73, 0
3, 358412, Note_on_c, 0, 74, 57
3, 358503, Note_on_c, 0, 64, 0
3, 358539, Note_on_c, 0, 74, 0
3, 358866, Note_on_c, 0, 76, 44
3, 359399, Note_on_c, 0, 45, 0
3, 359637, Note_on_c, 0, 55, 0
3, 359845, Note_on_c, 0, 76, 0
3, 360161, Note_on_c, 0, 69, 0
3, 360312, Control_c, 0, 64, 0
3, 360314, Note_on_c, 0, 48, 38
3, 360316, Note_on_c, 0, 74, 47
3, 360497, Control_c, 0, 64, 127
3, 361474, Note_on_c, 0, 74, 0
3, 361783, Note_on_c, 0, 74, 58
3, 361812, Note_on_c, 0, 65, 58
3, 361853, Note_on_c, 0, 58, 21
3, 362227, Note_on_c, 0, 74, 0
3, 362289, Note_on_c, 0, 65, 0
3, 362356, Note_on_c, 0, 58, 0
3, 362419, Note_on_c, 0, 72, 57
3, 362456, Note_on_c, 0, 64, 57
3, 362467, Note_on_c, 0, 58, 25
3, 362753, Note_on_c, 0, 58, 0
3, 362871, Note_on_c, 0, 48, 0
3, 363046, Note_on_c, 0, 48, 31
3, 363183, Note_on_c, 0, 72, 0
3, 363188, Note_on_c, 0, 48, 0
3, 363234, Note_on_c, 0, 64, 0
3, 363835, Note_on_c, 0, 69, 37
3, 363844, Note_on_c, 0, 62, 53
3, 363859, Note_on_c, 0, 39, 34
3, 363865, Note_on_c, 0, 57, 33
3, 363866, Note_on_c, 0, 55, 34
3, 363876, Note_on_c, 0, 46, 27
3, 363883, Control_c, 0, 64, 0
3, 364312, Control_c, 0, 64, 127
3, 365340, Note_on_c, 0, 62, 0
3, 365535, Note_on_c, 0, 55, 0
3, 365625, Note_on_c, 0, 57, 0
3, 365863, Note_on_c, 0, 62, 57
3, 365866, Note_on_c, 0, 69, 0
3, 366095, Note_on_c, 0, 69, 76
3, 366252, Note_on_c, 0, 69, 0
3, 366393, Note_on_c, 0, 39, 0
3, 366429, Note_on_c, 0, 62, 0
3, 366498, Note_on_c, 0, 46, 0
3, 367562, Note_on_c, 0, 68, 52
3, 367586, Note_on_c, 0, 59, 43
3, 367594, Note_on_c, 0, 64, 52
3, 367600, Note_on_c, 0, 38, 37
3, 367651, Control_c, 0, 64, 0
3, 368137, Control_c, 0, 64, 127
3, 368442, Note_on_c, 0, 47, 36
3, 368534, Note_on_c, 0, 38, 0
3, 368725, Note_on_c, 0, 47, 0
3, 368831, Note_on_c, 0, 52, 26
3, 368926, Note_on_c, 0, 59, 0
3, 369013, Note_on_c, 0, 64, 0
3, 369028, Note_on_c, 0, 52, 0
3, 369061, Note_on_c, 0, 68, 0
3, 369143, Note_on_c, 0, 56, 39
3, 369475, Note_on_c, 0, 68, 25
3, 369484, Note_on_c, 0, 76, 34
3, 369488, Note_on_c, 0, 59, 40
3, 369539, Note_on_c, 0, 68, 0
3, 369590, Note_on_c, 0, 76, 0
3, 369749, Note_on_c, 0, 59, 0
3, 369817, Note_on_c, 0, 88, 58
3, 369834, Note_on_c, 0, 64, 20
3, 370024, Note_on_c, 0, 88, 0
3, 370160, Note_on_c, 0, 59, 37
3, 370164, Note_on_c, 0, 64, 0
3, 370452, Note_on_c, 0, 100, 68
3, 370469, Note_on_c, 0, 59, 0
3, 370531, Note_on_c, 0, 64, 15
3, 370778, Note_on_c, 0, 100, 0
3, 370856, Note_on_c, 0, 88, 26
3, 370860, Note_on_c, 0, 59, 32
3, 370884, Note_on_c, 0, 95, 36
3, 371080, Note_on_c, 0, 64, 0
3, 371561, Note_on_c, 0, 95, 0
3, 371561, Note_on_c, 0, 88, 0
3, 371747, Note_on_c, 0, 59, 0
3, 371823, Note_on_c, 0, 56, 0
3, 373471, Note_on_c, 0, 14, 20
3, 374431, Note_on_c, 0, 14, 0
3, 377119, Control_c, 0, 64, 0
3, 377119, End_track
4, 0, Start_track
4, 0, Title_t, "MIDI 1"
4, 0, End_track
5, 0, Start_track
5, 0, Title_t, "MIDI 2"
5, 0, End_track
6, 0, Start_track
6, 0, Title_t, "MIDI 2"
6, 0, End_track
0, 0, End_of_file
