0, 0, Header, 1, 3, 960
1, 0, Start_track
1, 0, Title_t, "Long ago and Far Away"
1, 0, Text_t, "dougmck@pipeline.com.au  - 3 different versions \012"
1, 0, Time_signature, 4, 2, 24, 8
1, 0, Key_signature, -1, "major"
1, 0, Tempo, 521739
1, 0, Marker_t, "First chorus is based o a similar harmonic scheme of Ted Rosenthal ('Live at Maybeck' CD)"
1, 7680, Marker_t, "Uses mainly triads over bass pedal tones."
1, 15371, Marker_t, "First chorus begins"
1, 145964, Marker_t, "Second chorus uses latin feel (Andre Previn uses this style on his version)"
1, 307200, Marker_t, "Third chorus - L hand walking bass line"
1, 422400, Marker_t, "Back to Latin feel"
1, 422400, End_track
2, 0, Start_track
2, 0, Title_t, "MIDI 1"
2, 0, Control_c, 0, 64, 127
2, 57, Control_c, 0, 64, 0
2, 105, Note_on_c, 0, 65, 33
2, 112, Note_on_c, 0, 41, 28
2, 217, Control_c, 0, 64, 127
2, 807, Note_on_c, 0, 65, 0
2, 1478, Note_on_c, 0, 60, 24
2, 1497, Note_on_c, 0, 57, 26
2, 1500, Note_on_c, 0, 55, 32
2, 2467, Note_on_c, 0, 53, 47
2, 2809, Note_on_c, 0, 55, 0
2, 2850, Note_on_c, 0, 53, 0
2, 2993, Note_on_c, 0, 55, 34
2, 3323, Note_on_c, 0, 55, 0
2, 3324, Note_on_c, 0, 60, 0
2, 3340, Note_on_c, 0, 57, 0
2, 3478, Note_on_c, 0, 53, 34
2, 3756, Note_on_c, 0, 53, 0
2, 3940, Note_on_c, 0, 65, 73
2, 3942, Note_on_c, 0, 62, 76
2, 3960, Note_on_c, 0, 58, 75
2, 3969, Control_c, 0, 64, 0
2, 3973, Note_on_c, 0, 57, 70
2, 3983, Note_on_c, 0, 53, 45
2, 4530, Note_on_c, 0, 53, 0
2, 4619, Note_on_c, 0, 41, 0
2, 4678, Control_c, 0, 64, 127
2, 4962, Note_on_c, 0, 53, 34
2, 5152, Note_on_c, 0, 53, 0
2, 5492, Note_on_c, 0, 53, 34
2, 5845, Note_on_c, 0, 53, 0
2, 6381, Note_on_c, 0, 53, 30
2, 6562, Note_on_c, 0, 53, 0
2, 6860, Note_on_c, 0, 53, 34
2, 6992, Note_on_c, 0, 53, 0
2, 7222, Note_on_c, 0, 62, 0
2, 7297, Note_on_c, 0, 65, 0
2, 7299, Note_on_c, 0, 58, 0
2, 7322, Note_on_c, 0, 53, 31
2, 7438, Note_on_c, 0, 57, 0
2, 7753, Control_c, 0, 64, 0
2, 7769, Note_on_c, 0, 41, 32
2, 7773, Note_on_c, 0, 60, 30
2, 7776, Note_on_c, 0, 64, 36
2, 7786, Note_on_c, 0, 57, 28
2, 7796, Note_on_c, 0, 55, 24
2, 8186, Control_c, 0, 64, 127
2, 8270, Note_on_c, 0, 53, 0
2, 8384, Note_on_c, 0, 55, 0
2, 8482, Note_on_c, 0, 60, 0
2, 8484, Note_on_c, 0, 57, 0
2, 9089, Note_on_c, 0, 60, 24
2, 9137, Note_on_c, 0, 55, 22
2, 9153, Note_on_c, 0, 57, 16
2, 9250, Note_on_c, 0, 41, 0
2, 9607, Note_on_c, 0, 53, 44
2, 10017, Note_on_c, 0, 53, 0
2, 10169, Note_on_c, 0, 53, 34
2, 10329, Note_on_c, 0, 53, 0
2, 10445, Note_on_c, 0, 60, 0
2, 10460, Note_on_c, 0, 57, 0
2, 10471, Note_on_c, 0, 55, 0
2, 10513, Note_on_c, 0, 64, 0
2, 11012, Note_on_c, 0, 62, 51
2, 11046, Note_on_c, 0, 58, 43
2, 11069, Note_on_c, 0, 57, 35
2, 11074, Control_c, 0, 64, 0
2, 11115, Note_on_c, 0, 53, 24
2, 11434, Control_c, 0, 64, 127
2, 11637, Note_on_c, 0, 53, 0
2, 12061, Note_on_c, 0, 53, 19
2, 12254, Note_on_c, 0, 53, 0
2, 12521, Note_on_c, 0, 53, 22
2, 12788, Note_on_c, 0, 53, 0
2, 12999, Note_on_c, 0, 53, 37
2, 13364, Note_on_c, 0, 53, 0
2, 13478, Note_on_c, 0, 53, 57
2, 13796, Note_on_c, 0, 53, 0
2, 13920, Note_on_c, 0, 53, 72
2, 14200, Note_on_c, 0, 53, 0
2, 14396, Note_on_c, 0, 53, 80
2, 14672, Note_on_c, 0, 53, 0
2, 14714, Note_on_c, 0, 62, 0
2, 14721, Note_on_c, 0, 58, 0
2, 14767, Note_on_c, 0, 57, 0
2, 14877, Note_on_c, 0, 53, 62
2, 15203, Note_on_c, 0, 53, 0
2, 15366, Note_on_c, 0, 65, 68
2, 15369, Note_on_c, 0, 60, 46
2, 15370, Note_on_c, 0, 57, 64
2, 15389, Note_on_c, 0, 55, 74
2, 15396, Note_on_c, 0, 41, 48
2, 15398, Note_on_c, 0, 53, 48
2, 15417, Control_c, 0, 64, 0
2, 15903, Note_on_c, 0, 53, 0
2, 15908, Control_c, 0, 64, 127
2, 16289, Note_on_c, 0, 55, 0
2, 16330, Note_on_c, 0, 60, 0
2, 16362, Note_on_c, 0, 57, 0
2, 16473, Note_on_c, 0, 65, 0
2, 16892, Note_on_c, 0, 60, 24
2, 16904, Note_on_c, 0, 55, 25
2, 16905, Note_on_c, 0, 64, 28
2, 16948, Control_c, 0, 64, 0
2, 16950, Note_on_c, 0, 53, 28
2, 17238, Control_c, 0, 64, 127
2, 17369, Note_on_c, 0, 53, 0
2, 17874, Note_on_c, 0, 53, 48
2, 18041, Note_on_c, 0, 60, 0
2, 18113, Note_on_c, 0, 64, 0
2, 18432, Note_on_c, 0, 55, 0
2, 18832, Note_on_c, 0, 65, 95
2, 18911, Note_on_c, 0, 53, 0
2, 19184, Note_on_c, 0, 65, 0
2, 19361, Control_c, 0, 64, 0
2, 19390, Note_on_c, 0, 65, 75
2, 19408, Note_on_c, 0, 62, 73
2, 19426, Note_on_c, 0, 41, 0
2, 19430, Note_on_c, 0, 58, 71
2, 19447, Note_on_c, 0, 57, 66
2, 19472, Note_on_c, 0, 53, 32
2, 19648, Control_c, 0, 64, 127
2, 19798, Note_on_c, 0, 53, 0
2, 20016, Note_on_c, 0, 53, 37
2, 20076, Note_on_c, 0, 57, 0
2, 20088, Note_on_c, 0, 58, 0
2, 20109, Note_on_c, 0, 62, 0
2, 20130, Note_on_c, 0, 65, 0
2, 20450, Note_on_c, 0, 53, 0
2, 20756, Note_on_c, 0, 69, 77
2, 20804, Note_on_c, 0, 53, 36
2, 20910, Note_on_c, 0, 53, 0
2, 20912, Note_on_c, 0, 69, 0
2, 21705, Note_on_c, 0, 53, 34
2, 22082, Note_on_c, 0, 53, 0
2, 22496, Note_on_c, 0, 64, 55
2, 22687, Note_on_c, 0, 64, 0
2, 22779, Note_on_c, 0, 62, 44
2, 22915, Note_on_c, 0, 62, 0
2, 23051, Note_on_c, 0, 41, 33
2, 23055, Control_c, 0, 64, 0
2, 23057, Note_on_c, 0, 61, 64
2, 23067, Note_on_c, 0, 64, 38
2, 23099, Note_on_c, 0, 57, 31
2, 23504, Control_c, 0, 64, 127
2, 23871, Note_on_c, 0, 57, 0
2, 23980, Note_on_c, 0, 61, 0
2, 24479, Note_on_c, 0, 61, 31
2, 24520, Note_on_c, 0, 57, 29
2, 24597, Note_on_c, 0, 53, 20
2, 24714, Note_on_c, 0, 53, 0
2, 25036, Note_on_c, 0, 53, 36
2, 25294, Note_on_c, 0, 53, 0
2, 25591, Note_on_c, 0, 53, 36
2, 25759, Note_on_c, 0, 53, 0
2, 26034, Note_on_c, 0, 41, 0
2, 26086, Note_on_c, 0, 57, 0
2, 26312, Note_on_c, 0, 64, 0
2, 26324, Note_on_c, 0, 61, 0
2, 26353, Note_on_c, 0, 41, 46
2, 26979, Note_on_c, 0, 64, 75
2, 26986, Note_on_c, 0, 53, 45
2, 26996, Control_c, 0, 64, 0
2, 27029, Note_on_c, 0, 56, 71
2, 27034, Note_on_c, 0, 59, 59
2, 27354, Note_on_c, 0, 53, 0
2, 27387, Control_c, 0, 64, 127
2, 27742, Note_on_c, 0, 53, 44
2, 27879, Note_on_c, 0, 64, 0
2, 28045, Note_on_c, 0, 53, 0
2, 28434, Note_on_c, 0, 53, 42
2, 28546, Note_on_c, 0, 65, 70
2, 28673, Note_on_c, 0, 53, 0
2, 28928, Note_on_c, 0, 56, 0
2, 28986, Note_on_c, 0, 65, 0
2, 28990, Control_c, 0, 64, 0
2, 29006, Note_on_c, 0, 56, 51
2, 29010, Note_on_c, 0, 62, 71
2, 29026, Note_on_c, 0, 53, 45
2, 29317, Note_on_c, 0, 53, 0
2, 29378, Control_c, 0, 64, 127
2, 29626, Note_on_c, 0, 53, 38
2, 29951, Note_on_c, 0, 59, 0
2, 30064, Note_on_c, 0, 41, 0
2, 30109, Note_on_c, 0, 56, 0
2, 30179, Note_on_c, 0, 62, 0
2, 30208, Note_on_c, 0, 56, 15
2, 30225, Note_on_c, 0, 41, 36
2, 30228, Note_on_c, 0, 53, 0
2, 30228, Note_on_c, 0, 58, 29
2, 30329, Note_on_c, 0, 56, 0
2, 30406, Note_on_c, 0, 58, 0
2, 30454, Note_on_c, 0, 41, 0
2, 30751, Control_c, 0, 64, 0
2, 30818, Note_on_c, 0, 55, 44
2, 30820, Note_on_c, 0, 41, 42
2, 30821, Note_on_c, 0, 59, 46
2, 30825, Note_on_c, 0, 62, 52
2, 31144, Control_c, 0, 64, 127
2, 31483, Note_on_c, 0, 41, 0
2, 31875, Note_on_c, 0, 55, 0
2, 31918, Note_on_c, 0, 59, 0
2, 31936, Note_on_c, 0, 62, 0
2, 32167, Note_on_c, 0, 62, 44
2, 32174, Note_on_c, 0, 41, 39
2, 32180, Note_on_c, 0, 55, 32
2, 32182, Note_on_c, 0, 59, 38
2, 32203, Note_on_c, 0, 29, 26
2, 32342, Control_c, 0, 64, 0
2, 32747, Control_c, 0, 64, 127
2, 33871, Note_on_c, 0, 29, 0
2, 34002, Note_on_c, 0, 62, 0
2, 34030, Note_on_c, 0, 59, 0
2, 34053, Note_on_c, 0, 60, 39
2, 34142, Note_on_c, 0, 55, 0
2, 34259, Note_on_c, 0, 41, 0
2, 34443, Note_on_c, 0, 60, 0
2, 34580, Control_c, 0, 64, 0
2, 34587, Note_on_c, 0, 62, 39
2, 34609, Note_on_c, 0, 53, 30
2, 34617, Note_on_c, 0, 58, 36
2, 34647, Note_on_c, 0, 41, 27
2, 35042, Control_c, 0, 64, 127
2, 35076, Note_on_c, 0, 41, 0
2, 35368, Note_on_c, 0, 62, 0
2, 35430, Note_on_c, 0, 58, 0
2, 35465, Note_on_c, 0, 53, 0
2, 36024, Note_on_c, 0, 53, 33
2, 36025, Note_on_c, 0, 62, 36
2, 36046, Note_on_c, 0, 58, 31
2, 36052, Note_on_c, 0, 41, 32
2, 36053, Note_on_c, 0, 57, 30
2, 36111, Control_c, 0, 64, 0
2, 36413, Control_c, 0, 64, 127
2, 36714, Note_on_c, 0, 41, 0
2, 37038, Note_on_c, 0, 41, 38
2, 37546, Note_on_c, 0, 41, 0
2, 37733, Note_on_c, 0, 53, 0
2, 37806, Note_on_c, 0, 62, 0
2, 37881, Note_on_c, 0, 58, 0
2, 37897, Note_on_c, 0, 57, 0
2, 37926, Note_on_c, 0, 60, 34
2, 38302, Note_on_c, 0, 60, 0
2, 38449, Control_c, 0, 64, 0
2, 38459, Note_on_c, 0, 50, 41
2, 38466, Note_on_c, 0, 62, 60
2, 38493, Note_on_c, 0, 57, 36
2, 38504, Note_on_c, 0, 53, 39
2, 38542, Note_on_c, 0, 41, 27
2, 38811, Control_c, 0, 64, 127
2, 39485, Note_on_c, 0, 62, 0
2, 39588, Note_on_c, 0, 57, 0
2, 39611, Note_on_c, 0, 53, 0
2, 39879, Control_c, 0, 64, 0
2, 39918, Note_on_c, 0, 64, 62
2, 39930, Note_on_c, 0, 57, 62
2, 39951, Note_on_c, 0, 53, 53
2, 39953, Note_on_c, 0, 50, 0
2, 39954, Note_on_c, 0, 49, 53
2, 40124, Control_c, 0, 64, 127
2, 40146, Note_on_c, 0, 57, 0
2, 40158, Note_on_c, 0, 53, 0
2, 40209, Note_on_c, 0, 64, 0
2, 40437, Note_on_c, 0, 49, 0
2, 40486, Control_c, 0, 64, 0
2, 40529, Note_on_c, 0, 65, 62
2, 40542, Note_on_c, 0, 60, 44
2, 40553, Note_on_c, 0, 48, 39
2, 40560, Note_on_c, 0, 53, 53
2, 40742, Note_on_c, 0, 53, 0
2, 40773, Control_c, 0, 64, 127
2, 40822, Note_on_c, 0, 65, 0
2, 40933, Note_on_c, 0, 60, 0
2, 40948, Note_on_c, 0, 48, 0
2, 41188, Note_on_c, 0, 66, 58
2, 41189, Note_on_c, 0, 62, 66
2, 41194, Control_c, 0, 64, 0
2, 41201, Note_on_c, 0, 54, 45
2, 41230, Note_on_c, 0, 48, 46
2, 41411, Note_on_c, 0, 62, 0
2, 41437, Note_on_c, 0, 54, 0
2, 41468, Control_c, 0, 64, 127
2, 41506, Note_on_c, 0, 66, 0
2, 41961, Note_on_c, 0, 48, 0
2, 41982, Note_on_c, 0, 69, 66
2, 41987, Control_c, 0, 64, 0
2, 41988, Note_on_c, 0, 62, 68
2, 41997, Note_on_c, 0, 47, 55
2, 42000, Note_on_c, 0, 57, 58
2, 42002, Note_on_c, 0, 65, 60
2, 42361, Control_c, 0, 64, 127
2, 42513, Note_on_c, 0, 47, 0
2, 42921, Note_on_c, 0, 47, 50
2, 43272, Note_on_c, 0, 47, 0
2, 43650, Note_on_c, 0, 69, 0
2, 43723, Note_on_c, 0, 65, 0
2, 43724, Note_on_c, 0, 62, 0
2, 43770, Note_on_c, 0, 47, 37
2, 43875, Note_on_c, 0, 57, 0
2, 44186, Note_on_c, 0, 41, 0
2, 44284, Note_on_c, 0, 60, 32
2, 44285, Note_on_c, 0, 67, 36
2, 44297, Note_on_c, 0, 47, 0
2, 44302, Note_on_c, 0, 55, 35
2, 44308, Note_on_c, 0, 46, 42
2, 44313, Control_c, 0, 64, 0
2, 44788, Control_c, 0, 64, 127
2, 44980, Note_on_c, 0, 55, 0
2, 45186, Note_on_c, 0, 55, 29
2, 45197, Note_on_c, 0, 46, 0
2, 45360, Note_on_c, 0, 67, 0
2, 45421, Note_on_c, 0, 60, 0
2, 45494, Note_on_c, 0, 55, 0
2, 45668, Note_on_c, 0, 46, 33
2, 45949, Note_on_c, 0, 46, 0
2, 46110, Note_on_c, 0, 60, 29
2, 46116, Control_c, 0, 64, 0
2, 46148, Note_on_c, 0, 63, 42
2, 46151, Note_on_c, 0, 56, 25
2, 46156, Note_on_c, 0, 51, 37
2, 46447, Control_c, 0, 64, 127
2, 46457, Note_on_c, 0, 51, 0
2, 46750, Note_on_c, 0, 51, 46
2, 46919, Note_on_c, 0, 56, 0
2, 46996, Note_on_c, 0, 60, 0
2, 47012, Note_on_c, 0, 51, 0
2, 47083, Note_on_c, 0, 63, 0
2, 47597, Note_on_c, 0, 60, 55
2, 47603, Note_on_c, 0, 68, 69
2, 47605, Note_on_c, 0, 63, 65
2, 47629, Note_on_c, 0, 51, 50
2, 47871, Note_on_c, 0, 51, 0
2, 48168, Note_on_c, 0, 51, 68
2, 48486, Note_on_c, 0, 51, 0
2, 48787, Note_on_c, 0, 51, 69
2, 48991, Note_on_c, 0, 60, 0
2, 49069, Note_on_c, 0, 51, 0
2, 49113, Note_on_c, 0, 63, 0
2, 49516, Note_on_c, 0, 51, 64
2, 49589, Note_on_c, 0, 68, 0
2, 49740, Note_on_c, 0, 51, 0
2, 50021, Note_on_c, 0, 51, 56
2, 50057, Control_c, 0, 64, 0
2, 50187, Control_c, 0, 64, 127
2, 50235, Note_on_c, 0, 51, 0
2, 50907, Note_on_c, 0, 68, 60
2, 50921, Note_on_c, 0, 64, 52
2, 50924, Note_on_c, 0, 61, 37
2, 50936, Note_on_c, 0, 51, 55
2, 50965, Control_c, 0, 64, 0
2, 51198, Control_c, 0, 64, 127
2, 51214, Note_on_c, 0, 68, 0
2, 51238, Note_on_c, 0, 64, 0
2, 51366, Note_on_c, 0, 51, 0
2, 51413, Note_on_c, 0, 61, 0
2, 51497, Note_on_c, 0, 72, 73
2, 51523, Note_on_c, 0, 61, 45
2, 51691, Note_on_c, 0, 72, 0
2, 51730, Note_on_c, 0, 61, 0
2, 52325, Note_on_c, 0, 67, 61
2, 52350, Note_on_c, 0, 51, 46
2, 52353, Note_on_c, 0, 61, 43
2, 52358, Note_on_c, 0, 64, 40
2, 52359, Note_on_c, 0, 58, 25
2, 52367, Control_c, 0, 64, 0
2, 52594, Note_on_c, 0, 64, 0
2, 52654, Control_c, 0, 64, 127
2, 52807, Note_on_c, 0, 51, 0
2, 52916, Note_on_c, 0, 61, 0
2, 52927, Note_on_c, 0, 58, 0
2, 52959, Note_on_c, 0, 67, 0
2, 53029, Note_on_c, 0, 58, 23
2, 53034, Note_on_c, 0, 65, 58
2, 53106, Note_on_c, 0, 51, 34
2, 53209, Note_on_c, 0, 58, 0
2, 53228, Note_on_c, 0, 65, 0
2, 53313, Note_on_c, 0, 51, 0
2, 53694, Control_c, 0, 64, 0
2, 53703, Note_on_c, 0, 67, 35
2, 53706, Note_on_c, 0, 55, 46
2, 53709, Note_on_c, 0, 59, 42
2, 53731, Note_on_c, 0, 62, 50
2, 53782, Note_on_c, 0, 51, 20
2, 54069, Note_on_c, 0, 51, 0
2, 54114, Control_c, 0, 64, 127
2, 54334, Note_on_c, 0, 51, 43
2, 54538, Note_on_c, 0, 51, 0
2, 54694, Note_on_c, 0, 55, 0
2, 54764, Note_on_c, 0, 62, 0
2, 54802, Note_on_c, 0, 59, 0
2, 55194, Note_on_c, 0, 62, 36
2, 55212, Note_on_c, 0, 59, 39
2, 55220, Note_on_c, 0, 55, 36
2, 55253, Note_on_c, 0, 51, 34
2, 55647, Note_on_c, 0, 51, 0
2, 56203, Note_on_c, 0, 51, 38
2, 56328, Note_on_c, 0, 55, 0
2, 56385, Note_on_c, 0, 62, 0
2, 56459, Note_on_c, 0, 59, 0
2, 56612, Note_on_c, 0, 51, 0
2, 56727, Note_on_c, 0, 62, 29
2, 56729, Note_on_c, 0, 55, 28
2, 56740, Note_on_c, 0, 67, 0
2, 56774, Note_on_c, 0, 59, 18
2, 56974, Note_on_c, 0, 55, 0
2, 57093, Note_on_c, 0, 67, 1
2, 57094, Note_on_c, 0, 59, 0
2, 57139, Note_on_c, 0, 62, 0
2, 57170, Note_on_c, 0, 51, 34
2, 57411, Note_on_c, 0, 51, 0
2, 57490, Note_on_c, 0, 67, 0
2, 58129, Note_on_c, 0, 67, 64
2, 58140, Note_on_c, 0, 64, 61
2, 58141, Note_on_c, 0, 60, 58
2, 58145, Note_on_c, 0, 53, 29
2, 58156, Control_c, 0, 64, 0
2, 58157, Note_on_c, 0, 57, 38
2, 58163, Note_on_c, 0, 55, 43
2, 58432, Note_on_c, 0, 67, 0
2, 58445, Control_c, 0, 64, 127
2, 58446, Note_on_c, 0, 64, 0
2, 58731, Note_on_c, 0, 60, 0
2, 58775, Note_on_c, 0, 57, 0
2, 58799, Note_on_c, 0, 55, 0
2, 58822, Note_on_c, 0, 53, 0
2, 58848, Note_on_c, 0, 71, 72
2, 59019, Note_on_c, 0, 71, 0
2, 59496, Note_on_c, 0, 60, 35
2, 59499, Control_c, 0, 64, 0
2, 59502, Note_on_c, 0, 65, 54
2, 59536, Note_on_c, 0, 53, 32
2, 59538, Note_on_c, 0, 43, 31
2, 59816, Control_c, 0, 64, 127
2, 60369, Note_on_c, 0, 53, 0
2, 60385, Note_on_c, 0, 43, 0
2, 60859, Note_on_c, 0, 65, 0
2, 60946, Note_on_c, 0, 64, 46
2, 61245, Note_on_c, 0, 64, 0
2, 61406, Note_on_c, 0, 60, 0
2, 61433, Control_c, 0, 64, 0
2, 61485, Note_on_c, 0, 67, 40
2, 61492, Note_on_c, 0, 28, 48
2, 61618, Note_on_c, 0, 28, 0
2, 61634, Control_c, 0, 64, 127
2, 61664, Note_on_c, 0, 67, 0
2, 62139, Note_on_c, 0, 79, 73
2, 62710, Note_on_c, 0, 79, 0
2, 62719, Note_on_c, 0, 76, 60
2, 62746, Note_on_c, 0, 67, 37
2, 62760, Note_on_c, 0, 72, 42
2, 62775, Note_on_c, 0, 56, 38
2, 62917, Note_on_c, 0, 67, 0
2, 63089, Note_on_c, 0, 72, 0
2, 63131, Note_on_c, 0, 76, 0
2, 63374, Note_on_c, 0, 62, 55
2, 64017, Note_on_c, 0, 67, 49
2, 64699, Note_on_c, 0, 62, 0
2, 64725, Note_on_c, 0, 67, 0
2, 64769, Note_on_c, 0, 88, 95
2, 64855, Note_on_c, 0, 56, 0
2, 64957, Note_on_c, 0, 88, 0
2, 65057, Note_on_c, 0, 88, 79
2, 65258, Note_on_c, 0, 88, 0
2, 65374, Control_c, 0, 64, 0
2, 65375, Note_on_c, 0, 93, 74
2, 65379, Note_on_c, 0, 55, 45
2, 65380, Note_on_c, 0, 60, 35
2, 65389, Note_on_c, 0, 61, 47
2, 65394, Note_on_c, 0, 65, 42
2, 65428, Note_on_c, 0, 89, 79
2, 65458, Note_on_c, 0, 84, 66
2, 65722, Control_c, 0, 64, 127
2, 66116, Note_on_c, 0, 93, 0
2, 66217, Note_on_c, 0, 84, 0
2, 66219, Note_on_c, 0, 89, 0
2, 66475, Note_on_c, 0, 65, 0
2, 66537, Note_on_c, 0, 61, 0
2, 66548, Note_on_c, 0, 55, 0
2, 66598, Note_on_c, 0, 60, 0
2, 66835, Note_on_c, 0, 61, 38
2, 66850, Note_on_c, 0, 60, 25
2, 66851, Note_on_c, 0, 65, 43
2, 66875, Note_on_c, 0, 55, 33
2, 67171, Note_on_c, 0, 61, 0
2, 67242, Note_on_c, 0, 65, 0
2, 67243, Note_on_c, 0, 60, 0
2, 67251, Note_on_c, 0, 55, 0
2, 67765, Note_on_c, 0, 55, 31
2, 67766, Note_on_c, 0, 65, 32
2, 67768, Note_on_c, 0, 60, 25
2, 67782, Note_on_c, 0, 61, 35
2, 68084, Note_on_c, 0, 65, 0
2, 68113, Note_on_c, 0, 61, 0
2, 68144, Note_on_c, 0, 60, 0
2, 68254, Note_on_c, 0, 55, 0
2, 68634, Note_on_c, 0, 70, 56
2, 69096, Note_on_c, 0, 70, 0
2, 69185, Note_on_c, 0, 72, 33
2, 69203, Note_on_c, 0, 58, 39
2, 69205, Note_on_c, 0, 65, 50
2, 69206, Note_on_c, 0, 43, 44
2, 69215, Control_c, 0, 64, 0
2, 69237, Note_on_c, 0, 71, 24
2, 69291, Note_on_c, 0, 71, 0
2, 69562, Control_c, 0, 64, 127
2, 69788, Note_on_c, 0, 58, 0
2, 69800, Note_on_c, 0, 57, 47
2, 69821, Note_on_c, 0, 43, 0
2, 69898, Note_on_c, 0, 65, 0
2, 70137, Note_on_c, 0, 72, 0
2, 70454, Note_on_c, 0, 58, 51
2, 70459, Note_on_c, 0, 57, 0
2, 71035, Note_on_c, 0, 84, 66
2, 71072, Note_on_c, 0, 77, 47
2, 71080, Note_on_c, 0, 62, 48
2, 71192, Note_on_c, 0, 84, 0
2, 71196, Note_on_c, 0, 77, 0
2, 71528, Note_on_c, 0, 62, 0
2, 71714, Note_on_c, 0, 67, 39
2, 71731, Note_on_c, 0, 77, 42
2, 71798, Note_on_c, 0, 77, 0
2, 72051, Note_on_c, 0, 67, 0
2, 72991, Note_on_c, 0, 73, 35
2, 72996, Note_on_c, 0, 61, 32
2, 72997, Note_on_c, 0, 68, 42
2, 73000, Note_on_c, 0, 76, 33
2, 73022, Note_on_c, 0, 64, 35
2, 73027, Control_c, 0, 64, 0
2, 73372, Control_c, 0, 64, 127
2, 73540, Note_on_c, 0, 61, 0
2, 73568, Note_on_c, 0, 58, 0
2, 74416, Note_on_c, 0, 48, 42
2, 74683, Note_on_c, 0, 48, 0
2, 74815, Note_on_c, 0, 76, 0
2, 74883, Note_on_c, 0, 73, 0
2, 74889, Note_on_c, 0, 68, 0
2, 74902, Note_on_c, 0, 48, 38
2, 75057, Note_on_c, 0, 64, 0
2, 75305, Note_on_c, 0, 48, 0
2, 75798, Note_on_c, 0, 48, 34
2, 75970, Note_on_c, 0, 48, 0
2, 76800, Note_on_c, 0, 41, 43
2, 76807, Note_on_c, 0, 65, 38
2, 76812, Note_on_c, 0, 55, 37
2, 76815, Note_on_c, 0, 64, 40
2, 76825, Note_on_c, 0, 60, 30
2, 76865, Control_c, 0, 64, 0
2, 77350, Note_on_c, 0, 48, 32
2, 77434, Note_on_c, 0, 55, 0
2, 77502, Control_c, 0, 64, 127
2, 77666, Note_on_c, 0, 60, 0
2, 77763, Note_on_c, 0, 64, 0
2, 78071, Note_on_c, 0, 65, 0
2, 78285, Note_on_c, 0, 64, 59
2, 78302, Note_on_c, 0, 60, 41
2, 78306, Note_on_c, 0, 65, 50
2, 78316, Note_on_c, 0, 55, 47
2, 78353, Control_c, 0, 64, 0
2, 78455, Note_on_c, 0, 48, 0
2, 78686, Control_c, 0, 64, 127
2, 79235, Note_on_c, 0, 48, 84
2, 79310, Note_on_c, 0, 55, 0
2, 79733, Note_on_c, 0, 55, 54
2, 79851, Note_on_c, 0, 65, 0
2, 80022, Note_on_c, 0, 55, 0
2, 80077, Note_on_c, 0, 64, 0
2, 80119, Note_on_c, 0, 60, 0
2, 80184, Note_on_c, 0, 65, 83
2, 80389, Note_on_c, 0, 41, 0
2, 80447, Note_on_c, 0, 65, 0
2, 80631, Note_on_c, 0, 48, 0
2, 80657, Note_on_c, 0, 65, 76
2, 80674, Note_on_c, 0, 62, 71
2, 80677, Note_on_c, 0, 58, 65
2, 80690, Note_on_c, 0, 57, 59
2, 80695, Control_c, 0, 64, 0
2, 80708, Note_on_c, 0, 41, 57
2, 81024, Control_c, 0, 64, 127
2, 81455, Note_on_c, 0, 65, 0
2, 81457, Note_on_c, 0, 62, 0
2, 81460, Note_on_c, 0, 57, 0
2, 81475, Note_on_c, 0, 58, 0
2, 82147, Note_on_c, 0, 69, 73
2, 82281, Note_on_c, 0, 69, 0
2, 83127, Note_on_c, 0, 64, 57
2, 83754, Note_on_c, 0, 64, 0
2, 83772, Note_on_c, 0, 41, 0
2, 83899, Note_on_c, 0, 62, 55
2, 84224, Note_on_c, 0, 62, 0
2, 84431, Control_c, 0, 64, 0
2, 84472, Note_on_c, 0, 64, 35
2, 84480, Note_on_c, 0, 52, 36
2, 84507, Note_on_c, 0, 61, 28
2, 84514, Note_on_c, 0, 41, 26
2, 84523, Note_on_c, 0, 57, 27
2, 84588, Note_on_c, 0, 49, 25
2, 84610, Note_on_c, 0, 52, 0
2, 84670, Note_on_c, 0, 57, 0
2, 84676, Control_c, 0, 64, 127
2, 84704, Note_on_c, 0, 61, 0
2, 84748, Note_on_c, 0, 64, 0
2, 85017, Note_on_c, 0, 41, 0
2, 85098, Note_on_c, 0, 49, 0
2, 85108, Note_on_c, 0, 76, 36
2, 85937, Note_on_c, 0, 64, 34
2, 85960, Note_on_c, 0, 69, 34
2, 85991, Note_on_c, 0, 73, 10
2, 86229, Note_on_c, 0, 64, 0
2, 86419, Note_on_c, 0, 69, 0
2, 86476, Note_on_c, 0, 65, 45
2, 86835, Note_on_c, 0, 65, 0
2, 86980, Note_on_c, 0, 65, 44
2, 87147, Note_on_c, 0, 73, 0
2, 87285, Note_on_c, 0, 65, 0
2, 87409, Note_on_c, 0, 73, 20
2, 87421, Note_on_c, 0, 69, 36
2, 87840, Note_on_c, 0, 69, 0
2, 87869, Note_on_c, 0, 53, 36
2, 88034, Note_on_c, 0, 73, 0
2, 88050, Note_on_c, 0, 53, 0
2, 88329, Control_c, 0, 64, 0
2, 88368, Note_on_c, 0, 53, 34
2, 88531, Control_c, 0, 64, 127
2, 88724, Note_on_c, 0, 53, 0
2, 88848, Note_on_c, 0, 76, 0
2, 88924, Note_on_c, 0, 53, 55
2, 89215, Note_on_c, 0, 53, 0
2, 89570, Note_on_c, 0, 76, 76
2, 89594, Note_on_c, 0, 71, 71
2, 89597, Note_on_c, 0, 68, 75
2, 89599, Control_c, 0, 64, 0
2, 89613, Note_on_c, 0, 64, 72
2, 89615, Note_on_c, 0, 53, 47
2, 89627, Note_on_c, 0, 74, 36
2, 89817, Control_c, 0, 64, 127
2, 89865, Note_on_c, 0, 64, 0
2, 89970, Note_on_c, 0, 71, 0
2, 89971, Note_on_c, 0, 68, 0
2, 89994, Note_on_c, 0, 76, 0
2, 90000, Note_on_c, 0, 74, 0
2, 90197, Note_on_c, 0, 77, 77
2, 90374, Note_on_c, 0, 77, 0
2, 90585, Note_on_c, 0, 53, 0
2, 90811, Note_on_c, 0, 53, 43
2, 90831, Note_on_c, 0, 74, 66
2, 91141, Note_on_c, 0, 53, 0
2, 91220, Note_on_c, 0, 74, 0
2, 91469, Note_on_c, 0, 70, 54
2, 91470, Note_on_c, 0, 53, 29
2, 91608, Note_on_c, 0, 53, 0
2, 91635, Note_on_c, 0, 70, 0
2, 92040, Control_c, 0, 64, 0
2, 92048, Note_on_c, 0, 71, 44
2, 92051, Note_on_c, 0, 74, 51
2, 92069, Note_on_c, 0, 67, 48
2, 92075, Note_on_c, 0, 62, 45
2, 92086, Note_on_c, 0, 53, 34
2, 92105, Note_on_c, 0, 41, 22
2, 92314, Control_c, 0, 64, 127
2, 92590, Note_on_c, 0, 67, 0
2, 92603, Note_on_c, 0, 74, 0
2, 92604, Note_on_c, 0, 71, 0
2, 92633, Note_on_c, 0, 41, 0
2, 92721, Note_on_c, 0, 62, 0
2, 92737, Note_on_c, 0, 41, 25
2, 92986, Note_on_c, 0, 53, 0
2, 93556, Note_on_c, 0, 62, 34
2, 93582, Note_on_c, 0, 59, 36
2, 93595, Note_on_c, 0, 55, 25
2, 93632, Note_on_c, 0, 53, 27
2, 93859, Note_on_c, 0, 53, 0
2, 94157, Note_on_c, 0, 53, 24
2, 94431, Note_on_c, 0, 53, 0
2, 94718, Note_on_c, 0, 53, 43
2, 94740, Note_on_c, 0, 62, 0
2, 94969, Note_on_c, 0, 59, 0
2, 95235, Note_on_c, 0, 41, 0
2, 95396, Note_on_c, 0, 41, 33
2, 95421, Note_on_c, 0, 60, 31
2, 95580, Note_on_c, 0, 53, 0
2, 95661, Note_on_c, 0, 55, 0
2, 95709, Note_on_c, 0, 41, 0
2, 95918, Note_on_c, 0, 60, 0
2, 95985, Note_on_c, 0, 41, 35
2, 95993, Note_on_c, 0, 62, 51
2, 95996, Note_on_c, 0, 58, 46
2, 96003, Note_on_c, 0, 53, 43
2, 96010, Control_c, 0, 64, 0
2, 96384, Control_c, 0, 64, 127
2, 96410, Note_on_c, 0, 53, 0
2, 96670, Note_on_c, 0, 53, 51
2, 96818, Note_on_c, 0, 53, 0
2, 97476, Note_on_c, 0, 53, 38
2, 97770, Note_on_c, 0, 53, 0
2, 98026, Note_on_c, 0, 53, 55
2, 98309, Note_on_c, 0, 53, 0
2, 98615, Note_on_c, 0, 53, 57
2, 98906, Note_on_c, 0, 41, 0
2, 99226, Note_on_c, 0, 53, 0
2, 99233, Note_on_c, 0, 62, 0
2, 99292, Note_on_c, 0, 60, 36
2, 99328, Note_on_c, 0, 41, 46
2, 99445, Note_on_c, 0, 58, 0
2, 99523, Note_on_c, 0, 41, 0
2, 99737, Note_on_c, 0, 60, 0
2, 99851, Control_c, 0, 64, 0
2, 99852, Note_on_c, 0, 41, 42
2, 99867, Note_on_c, 0, 62, 63
2, 99885, Note_on_c, 0, 57, 40
2, 99909, Note_on_c, 0, 53, 36
2, 99916, Note_on_c, 0, 50, 37
2, 100124, Control_c, 0, 64, 127
2, 100194, Note_on_c, 0, 57, 0
2, 100266, Note_on_c, 0, 53, 0
2, 100423, Note_on_c, 0, 62, 0
2, 100526, Note_on_c, 0, 64, 57
2, 100528, Note_on_c, 0, 49, 69
2, 100529, Note_on_c, 0, 58, 64
2, 100533, Control_c, 0, 64, 0
2, 100534, Note_on_c, 0, 61, 61
2, 100544, Note_on_c, 0, 55, 59
2, 100569, Note_on_c, 0, 50, 0
2, 100865, Control_c, 0, 64, 127
2, 101014, Note_on_c, 0, 64, 0
2, 101076, Note_on_c, 0, 55, 0
2, 101154, Note_on_c, 0, 58, 0
2, 101219, Note_on_c, 0, 61, 0
2, 101392, Note_on_c, 0, 60, 67
2, 101405, Note_on_c, 0, 65, 76
2, 101409, Note_on_c, 0, 57, 71
2, 101423, Note_on_c, 0, 50, 72
2, 101442, Control_c, 0, 64, 0
2, 101486, Note_on_c, 0, 49, 0
2, 101773, Control_c, 0, 64, 127
2, 101896, Note_on_c, 0, 65, 0
2, 101985, Note_on_c, 0, 57, 0
2, 101985, Note_on_c, 0, 60, 0
2, 102211, Note_on_c, 0, 50, 0
2, 102305, Note_on_c, 0, 66, 69
2, 102306, Note_on_c, 0, 51, 49
2, 102312, Note_on_c, 0, 60, 48
2, 102313, Note_on_c, 0, 57, 59
2, 102324, Note_on_c, 0, 63, 62
2, 102336, Control_c, 0, 64, 0
2, 102626, Control_c, 0, 64, 127
2, 102675, Note_on_c, 0, 51, 0
2, 102805, Note_on_c, 0, 41, 0
2, 103120, Note_on_c, 0, 41, 51
2, 103132, Note_on_c, 0, 60, 0
2, 103222, Note_on_c, 0, 57, 0
2, 103259, Note_on_c, 0, 66, 0
2, 103301, Note_on_c, 0, 63, 0
2, 103602, Note_on_c, 0, 50, 51
2, 103741, Note_on_c, 0, 62, 74
2, 103745, Note_on_c, 0, 58, 62
2, 103748, Note_on_c, 0, 50, 0
2, 103748, Note_on_c, 0, 69, 79
2, 103753, Control_c, 0, 64, 0
2, 103762, Note_on_c, 0, 65, 66
2, 103763, Note_on_c, 0, 53, 68
2, 104157, Control_c, 0, 64, 127
2, 105040, Note_on_c, 0, 53, 0
2, 105075, Note_on_c, 0, 65, 0
2, 105138, Note_on_c, 0, 62, 0
2, 105176, Note_on_c, 0, 58, 0
2, 105273, Note_on_c, 0, 69, 0
2, 105613, Control_c, 0, 64, 0
2, 105676, Note_on_c, 0, 58, 45
2, 105700, Note_on_c, 0, 64, 43
2, 105701, Note_on_c, 0, 67, 39
2, 105717, Note_on_c, 0, 52, 38
2, 105903, Control_c, 0, 64, 127
2, 106015, Note_on_c, 0, 41, 0
2, 106640, Note_on_c, 0, 58, 0
2, 106685, Note_on_c, 0, 52, 0
2, 106731, Note_on_c, 0, 64, 0
2, 106776, Note_on_c, 0, 67, 0
2, 107553, Note_on_c, 0, 72, 55
2, 107564, Note_on_c, 0, 58, 44
2, 107578, Control_c, 0, 64, 0
2, 107579, Note_on_c, 0, 48, 39
2, 107581, Note_on_c, 0, 63, 33
2, 107583, Note_on_c, 0, 67, 44
2, 107808, Control_c, 0, 64, 127
2, 107826, Note_on_c, 0, 63, 0
2, 107865, Note_on_c, 0, 67, 0
2, 107881, Note_on_c, 0, 58, 0
2, 107955, Note_on_c, 0, 72, 0
2, 108017, Note_on_c, 0, 48, 0
2, 108176, Note_on_c, 0, 84, 85
2, 108878, Note_on_c, 0, 63, 48
2, 108893, Note_on_c, 0, 67, 33
2, 108895, Note_on_c, 0, 62, 38
2, 109179, Note_on_c, 0, 62, 0
2, 109211, Note_on_c, 0, 63, 0
2, 109225, Note_on_c, 0, 67, 0
2, 109491, Note_on_c, 0, 63, 44
2, 109493, Note_on_c, 0, 67, 35
2, 109500, Note_on_c, 0, 62, 37
2, 109804, Note_on_c, 0, 62, 0
2, 109855, Note_on_c, 0, 67, 0
2, 109901, Note_on_c, 0, 63, 0
2, 110151, Note_on_c, 0, 63, 46
2, 110166, Note_on_c, 0, 62, 38
2, 110169, Note_on_c, 0, 67, 33
2, 110220, Note_on_c, 0, 84, 0
2, 110473, Note_on_c, 0, 67, 0
2, 110483, Note_on_c, 0, 62, 0
2, 110566, Note_on_c, 0, 63, 0
2, 110835, Note_on_c, 0, 84, 58
2, 111058, Note_on_c, 0, 84, 0
2, 111367, Note_on_c, 0, 84, 62
2, 111369, Note_on_c, 0, 63, 50
2, 111375, Control_c, 0, 64, 0
2, 111397, Note_on_c, 0, 72, 43
2, 111403, Note_on_c, 0, 53, 41
2, 111649, Control_c, 0, 64, 127
2, 111807, Note_on_c, 0, 84, 0
2, 111990, Note_on_c, 0, 63, 0
2, 111996, Note_on_c, 0, 72, 0
2, 112010, Note_on_c, 0, 60, 33
2, 112706, Note_on_c, 0, 75, 86
2, 112741, Note_on_c, 0, 63, 70
2, 112747, Note_on_c, 0, 66, 84
2, 112858, Note_on_c, 0, 60, 0
2, 113329, Note_on_c, 0, 75, 0
2, 113560, Note_on_c, 0, 63, 0
2, 113700, Note_on_c, 0, 66, 0
2, 113859, Note_on_c, 0, 70, 81
2, 113935, Note_on_c, 0, 60, 13
2, 114152, Note_on_c, 0, 60, 0
2, 114301, Note_on_c, 0, 53, 0
2, 114408, Note_on_c, 0, 70, 0
2, 114492, Note_on_c, 0, 69, 69
2, 114682, Note_on_c, 0, 69, 0
2, 115161, Note_on_c, 0, 74, 58
2, 115188, Note_on_c, 0, 62, 42
2, 115190, Note_on_c, 0, 66, 39
2, 115191, Note_on_c, 0, 54, 38
2, 115199, Control_c, 0, 64, 0
2, 115202, Note_on_c, 0, 46, 34
2, 115547, Control_c, 0, 64, 127
2, 115859, Note_on_c, 0, 57, 41
2, 115928, Note_on_c, 0, 54, 0
2, 116528, Note_on_c, 0, 57, 0
2, 116628, Note_on_c, 0, 54, 33
2, 117090, Control_c, 0, 64, 0
2, 117104, Note_on_c, 0, 54, 0
2, 117178, Note_on_c, 0, 55, 39
2, 117451, Control_c, 0, 64, 127
2, 117640, Note_on_c, 0, 62, 0
2, 117948, Note_on_c, 0, 74, 0
2, 118251, Note_on_c, 0, 66, 0
2, 118600, Note_on_c, 0, 70, 56
2, 118649, Note_on_c, 0, 55, 0
2, 118807, Note_on_c, 0, 70, 0
2, 119095, Note_on_c, 0, 46, 0
2, 119143, Note_on_c, 0, 70, 50
2, 119173, Note_on_c, 0, 65, 44
2, 119174, Note_on_c, 0, 61, 21
2, 119184, Control_c, 0, 64, 0
2, 119187, Note_on_c, 0, 51, 40
2, 119474, Control_c, 0, 64, 127
2, 119890, Note_on_c, 0, 61, 0
2, 119895, Note_on_c, 0, 65, 0
2, 119908, Note_on_c, 0, 51, 0
2, 120103, Note_on_c, 0, 70, 0
2, 120579, Note_on_c, 0, 65, 55
2, 120582, Note_on_c, 0, 69, 60
2, 120596, Note_on_c, 0, 60, 34
2, 120604, Note_on_c, 0, 61, 33
2, 120624, Note_on_c, 0, 51, 26
2, 120643, Control_c, 0, 64, 0
2, 120735, Note_on_c, 0, 61, 0
2, 121003, Control_c, 0, 64, 127
2, 121044, Note_on_c, 0, 60, 0
2, 121059, Note_on_c, 0, 69, 0
2, 121081, Note_on_c, 0, 51, 0
2, 121102, Note_on_c, 0, 65, 0
2, 121357, Note_on_c, 0, 65, 52
2, 121372, Note_on_c, 0, 69, 57
2, 121376, Note_on_c, 0, 60, 32
2, 121390, Note_on_c, 0, 51, 40
2, 121599, Note_on_c, 0, 51, 0
2, 121860, Note_on_c, 0, 60, 0
2, 121934, Note_on_c, 0, 69, 0
2, 121985, Note_on_c, 0, 65, 0
2, 122078, Note_on_c, 0, 67, 53
2, 122198, Note_on_c, 0, 67, 0
2, 122853, Note_on_c, 0, 57, 33
2, 122854, Note_on_c, 0, 65, 45
2, 122857, Note_on_c, 0, 60, 31
2, 122895, Control_c, 0, 64, 0
2, 122896, Note_on_c, 0, 45, 34
2, 123314, Control_c, 0, 64, 127
2, 123512, Note_on_c, 0, 57, 0
2, 123809, Note_on_c, 0, 45, 0
2, 123833, Note_on_c, 0, 57, 31
2, 124188, Note_on_c, 0, 57, 0
2, 124198, Note_on_c, 0, 60, 0
2, 124230, Note_on_c, 0, 65, 0
2, 124808, Note_on_c, 0, 59, 42
2, 124814, Control_c, 0, 64, 0
2, 124816, Note_on_c, 0, 65, 41
2, 124851, Note_on_c, 0, 44, 28
2, 124857, Note_on_c, 0, 53, 24
2, 125191, Control_c, 0, 64, 127
2, 125733, Note_on_c, 0, 65, 0
2, 126024, Note_on_c, 0, 59, 0
2, 126188, Note_on_c, 0, 65, 87
2, 126196, Note_on_c, 0, 53, 0
2, 126415, Note_on_c, 0, 44, 0
2, 126496, Note_on_c, 0, 65, 0
2, 126750, Control_c, 0, 64, 0
2, 126782, Note_on_c, 0, 65, 74
2, 126799, Note_on_c, 0, 58, 79
2, 126807, Note_on_c, 0, 43, 37
2, 126828, Note_on_c, 0, 53, 40
2, 126980, Control_c, 0, 64, 127
2, 127371, Note_on_c, 0, 65, 0
2, 127425, Note_on_c, 0, 58, 0
2, 127947, Note_on_c, 0, 53, 0
2, 128003, Note_on_c, 0, 43, 0
2, 128078, Note_on_c, 0, 69, 71
2, 128196, Note_on_c, 0, 69, 0
2, 128770, Note_on_c, 0, 64, 37
2, 128793, Note_on_c, 0, 42, 42
2, 128801, Control_c, 0, 64, 0
2, 128802, Note_on_c, 0, 56, 35
2, 128805, Note_on_c, 0, 60, 33
2, 128838, Note_on_c, 0, 52, 32
2, 129218, Control_c, 0, 64, 127
2, 129794, Note_on_c, 0, 64, 0
2, 129893, Note_on_c, 0, 42, 0
2, 130043, Note_on_c, 0, 52, 0
2, 130086, Note_on_c, 0, 60, 0
2, 130140, Note_on_c, 0, 64, 29
2, 130239, Note_on_c, 0, 56, 0
2, 130320, Note_on_c, 0, 64, 0
2, 130607, Note_on_c, 0, 41, 34
2, 130619, Control_c, 0, 64, 0
2, 130964, Control_c, 0, 64, 127
2, 131100, Note_on_c, 0, 48, 33
2, 131591, Note_on_c, 0, 48, 0
2, 132042, Note_on_c, 0, 48, 27
2, 132484, Note_on_c, 0, 69, 56
2, 132539, Note_on_c, 0, 65, 36
2, 132552, Note_on_c, 0, 62, 45
2, 132711, Note_on_c, 0, 60, 7
2, 132877, Note_on_c, 0, 48, 0
2, 133436, Note_on_c, 0, 69, 0
2, 133455, Note_on_c, 0, 48, 20
2, 133458, Note_on_c, 0, 65, 0
2, 133471, Note_on_c, 0, 62, 0
2, 133696, Note_on_c, 0, 60, 0
2, 133970, Note_on_c, 0, 48, 0
2, 134406, Note_on_c, 0, 65, 37
2, 134411, Note_on_c, 0, 62, 49
2, 134427, Note_on_c, 0, 58, 35
2, 134451, Note_on_c, 0, 57, 34
2, 134546, Control_c, 0, 64, 0
2, 134982, Note_on_c, 0, 53, 27
2, 135052, Control_c, 0, 64, 127
2, 135489, Note_on_c, 0, 53, 0
2, 135868, Note_on_c, 0, 53, 35
2, 136192, Note_on_c, 0, 53, 0
2, 136442, Note_on_c, 0, 53, 36
2, 136732, Note_on_c, 0, 53, 0
2, 136991, Note_on_c, 0, 62, 0
2, 137114, Note_on_c, 0, 53, 32
2, 137117, Note_on_c, 0, 65, 0
2, 137141, Note_on_c, 0, 58, 0
2, 137251, Note_on_c, 0, 53, 0
2, 137252, Note_on_c, 0, 57, 0
2, 137810, Note_on_c, 0, 53, 29
2, 137962, Note_on_c, 0, 41, 0
2, 138101, Note_on_c, 0, 53, 0
2, 138317, Note_on_c, 0, 60, 32
2, 138322, Note_on_c, 0, 64, 34
2, 138340, Note_on_c, 0, 55, 31
2, 138347, Note_on_c, 0, 57, 25
2, 138356, Control_c, 0, 64, 0
2, 138359, Note_on_c, 0, 41, 32
2, 138361, Note_on_c, 0, 62, 34
2, 138878, Control_c, 0, 64, 127
2, 138921, Note_on_c, 0, 53, 32
2, 139106, Note_on_c, 0, 53, 0
2, 139332, Note_on_c, 0, 55, 0
2, 139347, Note_on_c, 0, 57, 0
2, 139395, Note_on_c, 0, 60, 0
2, 139424, Note_on_c, 0, 62, 0
2, 139751, Note_on_c, 0, 60, 24
2, 139758, Note_on_c, 0, 55, 47
2, 139759, Note_on_c, 0, 57, 31
2, 139760, Note_on_c, 0, 53, 39
2, 139913, Note_on_c, 0, 53, 0
2, 140333, Note_on_c, 0, 53, 71
2, 140870, Note_on_c, 0, 53, 0
2, 140972, Note_on_c, 0, 53, 43
2, 141071, Note_on_c, 0, 55, 0
2, 141074, Note_on_c, 0, 57, 0
2, 141078, Note_on_c, 0, 60, 0
2, 141134, Note_on_c, 0, 64, 0
2, 141296, Note_on_c, 0, 53, 0
2, 141700, Note_on_c, 0, 57, 35
2, 141709, Note_on_c, 0, 62, 37
2, 141716, Note_on_c, 0, 53, 48
2, 141720, Note_on_c, 0, 58, 37
2, 141722, Note_on_c, 0, 65, 37
2, 141777, Control_c, 0, 64, 0
2, 142139, Control_c, 0, 64, 127
2, 142230, Note_on_c, 0, 53, 0
2, 142600, Note_on_c, 0, 53, 40
2, 142931, Note_on_c, 0, 53, 0
2, 143532, Note_on_c, 0, 53, 44
2, 143781, Note_on_c, 0, 53, 0
2, 144008, Note_on_c, 0, 53, 32
2, 144465, Note_on_c, 0, 53, 0
2, 144914, Note_on_c, 0, 53, 29
2, 144916, Note_on_c, 0, 57, 0
2, 144940, Note_on_c, 0, 58, 0
2, 144955, Note_on_c, 0, 62, 0
2, 145021, Note_on_c, 0, 65, 0
2, 145042, Control_c, 0, 64, 0
2, 145487, Note_on_c, 0, 53, 0
2, 145505, Note_on_c, 0, 41, 0
2, 145943, Note_on_c, 0, 41, 52
2, 146401, Note_on_c, 0, 41, 0
2, 146563, Note_on_c, 0, 64, 38
2, 146604, Note_on_c, 0, 62, 60
2, 146707, Note_on_c, 0, 60, 24
2, 146755, Note_on_c, 0, 59, 54
2, 146922, Note_on_c, 0, 55, 36
2, 146935, Note_on_c, 0, 60, 0
2, 146939, Note_on_c, 0, 64, 0
2, 147038, Note_on_c, 0, 59, 0
2, 147073, Note_on_c, 0, 62, 0
2, 147305, Note_on_c, 0, 55, 0
2, 147451, Note_on_c, 0, 48, 48
2, 147651, Note_on_c, 0, 48, 0
2, 147892, Note_on_c, 0, 60, 60
2, 147902, Note_on_c, 0, 65, 75
2, 148129, Note_on_c, 0, 65, 0
2, 148214, Note_on_c, 0, 60, 0
2, 148397, Note_on_c, 0, 60, 39
2, 148408, Note_on_c, 0, 65, 46
2, 148591, Control_c, 0, 64, 127
2, 148653, Control_c, 0, 64, 0
2, 148701, Note_on_c, 0, 65, 0
2, 148724, Note_on_c, 0, 60, 0
2, 148847, Note_on_c, 0, 57, 44
2, 148949, Note_on_c, 0, 36, 21
2, 149007, Note_on_c, 0, 57, 0
2, 149735, Note_on_c, 0, 36, 0
2, 149812, Note_on_c, 0, 43, 34
2, 150325, Note_on_c, 0, 63, 56
2, 150342, Note_on_c, 0, 43, 0
2, 150348, Note_on_c, 0, 52, 37
2, 150371, Note_on_c, 0, 58, 55
2, 150488, Note_on_c, 0, 52, 0
2, 150550, Note_on_c, 0, 63, 0
2, 150581, Note_on_c, 0, 58, 0
2, 151266, Note_on_c, 0, 48, 39
2, 151484, Note_on_c, 0, 48, 0
2, 152073, Control_c, 0, 64, 127
2, 152237, Note_on_c, 0, 60, 45
2, 152256, Note_on_c, 0, 56, 63
2, 152266, Note_on_c, 0, 52, 57
2, 152285, Note_on_c, 0, 36, 42
2, 152457, Note_on_c, 0, 60, 0
2, 152495, Note_on_c, 0, 52, 0
2, 152566, Note_on_c, 0, 56, 0
2, 152699, Control_c, 0, 64, 0
2, 152805, Note_on_c, 0, 50, 42
2, 152811, Note_on_c, 0, 54, 42
2, 152830, Note_on_c, 0, 58, 33
2, 152971, Note_on_c, 0, 50, 0
2, 153065, Note_on_c, 0, 54, 0
2, 153138, Note_on_c, 0, 58, 0
2, 153352, Note_on_c, 0, 48, 28
2, 153539, Note_on_c, 0, 36, 0
2, 153693, Note_on_c, 0, 48, 0
2, 153797, Note_on_c, 0, 41, 48
2, 154242, Control_c, 0, 64, 127
2, 154513, Control_c, 0, 64, 0
2, 154671, Note_on_c, 0, 59, 50
2, 154689, Note_on_c, 0, 60, 36
2, 155220, Note_on_c, 0, 59, 0
2, 155239, Note_on_c, 0, 60, 0
2, 155249, Note_on_c, 0, 57, 58
2, 155382, Note_on_c, 0, 57, 0
2, 155407, Note_on_c, 0, 41, 0
2, 156149, Note_on_c, 0, 48, 36
2, 156164, Note_on_c, 0, 60, 33
2, 156166, Note_on_c, 0, 59, 44
2, 156459, Note_on_c, 0, 60, 0
2, 156464, Note_on_c, 0, 59, 0
2, 156595, Note_on_c, 0, 57, 42
2, 156742, Note_on_c, 0, 57, 0
2, 157140, Note_on_c, 0, 41, 38
2, 157231, Note_on_c, 0, 48, 0
2, 157400, Note_on_c, 0, 41, 0
2, 157547, Note_on_c, 0, 60, 39
2, 157549, Note_on_c, 0, 58, 46
2, 157597, Note_on_c, 0, 43, 39
2, 157834, Note_on_c, 0, 43, 0
2, 157907, Note_on_c, 0, 60, 0
2, 157972, Note_on_c, 0, 58, 0
2, 158483, Note_on_c, 0, 58, 43
2, 158498, Note_on_c, 0, 60, 38
2, 158525, Note_on_c, 0, 43, 34
2, 158899, Note_on_c, 0, 60, 0
2, 159020, Note_on_c, 0, 43, 0
2, 159089, Note_on_c, 0, 61, 54
2, 159386, Note_on_c, 0, 58, 0
2, 159450, Note_on_c, 0, 61, 0
2, 159873, Control_c, 0, 64, 127
2, 159966, Note_on_c, 0, 61, 55
2, 159979, Note_on_c, 0, 58, 50
2, 160104, Note_on_c, 0, 36, 15
2, 160189, Note_on_c, 0, 58, 0
2, 160289, Control_c, 0, 64, 0
2, 160328, Note_on_c, 0, 61, 0
2, 160551, Note_on_c, 0, 56, 39
2, 160567, Note_on_c, 0, 61, 32
2, 160719, Note_on_c, 0, 56, 0
2, 160796, Note_on_c, 0, 61, 0
2, 160819, Note_on_c, 0, 36, 0
2, 161316, Control_c, 0, 64, 0
2, 161348, Note_on_c, 0, 41, 70
2, 161354, Note_on_c, 0, 65, 71
2, 161846, Note_on_c, 0, 62, 49
2, 161854, Note_on_c, 0, 59, 47
2, 161941, Note_on_c, 0, 65, 0
2, 161961, Note_on_c, 0, 59, 0
2, 162009, Note_on_c, 0, 62, 0
2, 162290, Note_on_c, 0, 57, 42
2, 162354, Note_on_c, 0, 57, 0
2, 162825, Note_on_c, 0, 48, 48
2, 163130, Note_on_c, 0, 41, 0
2, 163273, Note_on_c, 0, 62, 48
2, 163281, Note_on_c, 0, 59, 40
2, 163438, Note_on_c, 0, 62, 0
2, 163474, Note_on_c, 0, 59, 0
2, 163762, Note_on_c, 0, 59, 36
2, 163773, Note_on_c, 0, 62, 45
2, 163931, Note_on_c, 0, 62, 0
2, 164016, Note_on_c, 0, 59, 0
2, 164193, Note_on_c, 0, 57, 39
2, 164209, Note_on_c, 0, 60, 27
2, 164282, Note_on_c, 0, 57, 0
2, 164310, Note_on_c, 0, 60, 0
2, 164659, Note_on_c, 0, 36, 37
2, 165013, Note_on_c, 0, 36, 0
2, 165147, Note_on_c, 0, 62, 32
2, 165160, Note_on_c, 0, 43, 30
2, 165165, Note_on_c, 0, 48, 0
2, 165385, Note_on_c, 0, 62, 0
2, 165681, Note_on_c, 0, 65, 48
2, 165824, Note_on_c, 0, 65, 0
2, 166141, Note_on_c, 0, 69, 73
2, 166152, Note_on_c, 0, 62, 81
2, 166462, Note_on_c, 0, 62, 0
2, 166478, Note_on_c, 0, 69, 0
2, 166620, Note_on_c, 0, 69, 50
2, 166638, Note_on_c, 0, 62, 66
2, 166716, Note_on_c, 0, 69, 0
2, 166740, Note_on_c, 0, 62, 0
2, 167075, Note_on_c, 0, 48, 32
2, 167288, Note_on_c, 0, 43, 0
2, 167580, Note_on_c, 0, 64, 42
2, 167594, Note_on_c, 0, 56, 42
2, 167606, Note_on_c, 0, 52, 30
2, 167612, Note_on_c, 0, 60, 28
2, 167627, Note_on_c, 0, 36, 41
2, 167837, Note_on_c, 0, 60, 0
2, 168105, Control_c, 0, 64, 127
2, 168389, Note_on_c, 0, 36, 0
2, 168438, Note_on_c, 0, 52, 0
2, 168471, Note_on_c, 0, 64, 0
2, 168554, Note_on_c, 0, 36, 34
2, 168579, Note_on_c, 0, 62, 45
2, 168614, Note_on_c, 0, 56, 0
2, 168736, Note_on_c, 0, 62, 0
2, 168803, Note_on_c, 0, 36, 0
2, 168910, Control_c, 0, 64, 0
2, 169032, Note_on_c, 0, 64, 44
2, 169065, Note_on_c, 0, 41, 34
2, 169146, Note_on_c, 0, 48, 0
2, 169349, Note_on_c, 0, 64, 0
2, 169475, Note_on_c, 0, 62, 30
2, 169511, Note_on_c, 0, 60, 31
2, 169555, Note_on_c, 0, 62, 0
2, 169556, Note_on_c, 0, 59, 45
2, 169770, Note_on_c, 0, 60, 0
2, 169827, Note_on_c, 0, 59, 0
2, 169983, Note_on_c, 0, 57, 27
2, 170138, Note_on_c, 0, 57, 0
2, 170478, Note_on_c, 0, 48, 31
2, 170517, Note_on_c, 0, 41, 0
2, 170913, Note_on_c, 0, 60, 36
2, 170914, Note_on_c, 0, 59, 43
2, 171331, Note_on_c, 0, 59, 0
2, 171349, Note_on_c, 0, 60, 0
2, 171418, Note_on_c, 0, 57, 45
2, 171515, Note_on_c, 0, 57, 0
2, 171893, Note_on_c, 0, 36, 21
2, 171917, Note_on_c, 0, 55, 25
2, 172005, Note_on_c, 0, 55, 0
2, 172142, Note_on_c, 0, 36, 0
2, 172380, Note_on_c, 0, 36, 36
2, 172595, Control_c, 0, 64, 127
2, 172641, Control_c, 0, 64, 0
2, 172712, Note_on_c, 0, 36, 0
2, 172842, Note_on_c, 0, 43, 41
2, 173269, Note_on_c, 0, 64, 30
2, 173357, Note_on_c, 0, 60, 27
2, 173390, Note_on_c, 0, 58, 42
2, 173470, Note_on_c, 0, 64, 0
2, 173479, Note_on_c, 0, 48, 0
2, 173623, Note_on_c, 0, 60, 0
2, 173725, Note_on_c, 0, 58, 0
2, 173773, Note_on_c, 0, 56, 37
2, 173916, Note_on_c, 0, 56, 0
2, 174278, Note_on_c, 0, 48, 47
2, 174761, Note_on_c, 0, 62, 101
2, 174773, Note_on_c, 0, 65, 85
2, 175106, Note_on_c, 0, 62, 0
2, 175197, Note_on_c, 0, 65, 0
2, 175289, Note_on_c, 0, 62, 66
2, 175612, Note_on_c, 0, 62, 0
2, 175725, Note_on_c, 0, 58, 31
2, 175734, Note_on_c, 0, 36, 21
2, 175955, Note_on_c, 0, 36, 0
2, 176222, Note_on_c, 0, 52, 27
2, 176233, Note_on_c, 0, 36, 32
2, 176313, Note_on_c, 0, 52, 0
2, 176377, Note_on_c, 0, 58, 0
2, 176471, Note_on_c, 0, 36, 0
2, 176628, Note_on_c, 0, 62, 43
2, 176683, Note_on_c, 0, 41, 35
2, 176697, Note_on_c, 0, 43, 0
2, 176807, Note_on_c, 0, 48, 0
2, 176893, Note_on_c, 0, 62, 0
2, 177109, Note_on_c, 0, 57, 21
2, 177112, Note_on_c, 0, 59, 30
2, 177193, Note_on_c, 0, 57, 0
2, 177204, Note_on_c, 0, 59, 0
2, 177354, Note_on_c, 0, 59, 44
2, 177361, Note_on_c, 0, 57, 27
2, 177472, Note_on_c, 0, 57, 0
2, 177490, Note_on_c, 0, 59, 0
2, 177628, Note_on_c, 0, 57, 26
2, 177629, Note_on_c, 0, 59, 40
2, 177896, Note_on_c, 0, 57, 0
2, 177953, Note_on_c, 0, 59, 0
2, 178081, Note_on_c, 0, 48, 36
2, 178097, Note_on_c, 0, 59, 31
2, 178103, Note_on_c, 0, 60, 21
2, 178116, Note_on_c, 0, 57, 24
2, 178180, Note_on_c, 0, 57, 0
2, 178239, Note_on_c, 0, 59, 0
2, 178263, Note_on_c, 0, 60, 0
2, 178278, Note_on_c, 0, 41, 0
2, 179047, Note_on_c, 0, 36, 42
2, 179524, Note_on_c, 0, 57, 42
2, 179525, Note_on_c, 0, 55, 40
2, 179579, Note_on_c, 0, 55, 0
2, 179604, Note_on_c, 0, 57, 0
2, 179840, Note_on_c, 0, 36, 0
2, 180017, Note_on_c, 0, 41, 45
2, 180385, Note_on_c, 0, 41, 0
2, 180500, Note_on_c, 0, 43, 49
2, 180588, Note_on_c, 0, 48, 0
2, 181022, Note_on_c, 0, 58, 75
2, 181035, Note_on_c, 0, 62, 72
2, 181308, Control_c, 0, 64, 127
2, 181760, Note_on_c, 0, 58, 0
2, 181915, Note_on_c, 0, 62, 0
2, 182680, Control_c, 0, 64, 0
2, 182988, Note_on_c, 0, 48, 45
2, 183247, Control_c, 0, 64, 127
2, 183351, Control_c, 0, 64, 0
2, 183451, Note_on_c, 0, 60, 42
2, 183461, Note_on_c, 0, 52, 52
2, 183462, Note_on_c, 0, 43, 0
2, 183468, Note_on_c, 0, 56, 54
2, 183578, Note_on_c, 0, 52, 0
2, 183622, Note_on_c, 0, 56, 0
2, 183639, Note_on_c, 0, 60, 0
2, 183903, Note_on_c, 0, 36, 37
2, 184254, Note_on_c, 0, 36, 0
2, 184443, Note_on_c, 0, 41, 40
2, 184575, Note_on_c, 0, 48, 0
2, 184859, Control_c, 0, 64, 127
2, 185307, Control_c, 0, 64, 0
2, 185367, Note_on_c, 0, 62, 36
2, 185385, Note_on_c, 0, 53, 42
2, 185387, Note_on_c, 0, 57, 45
2, 185388, Note_on_c, 0, 59, 31
2, 185660, Note_on_c, 0, 53, 0
2, 185714, Note_on_c, 0, 62, 0
2, 185726, Note_on_c, 0, 57, 0
2, 185749, Note_on_c, 0, 59, 0
2, 185865, Note_on_c, 0, 64, 64
2, 185875, Note_on_c, 0, 55, 70
2, 185878, Note_on_c, 0, 59, 57
2, 185894, Note_on_c, 0, 60, 47
2, 185919, Note_on_c, 0, 62, 31
2, 186051, Control_c, 0, 64, 127
2, 186122, Note_on_c, 0, 55, 0
2, 186185, Note_on_c, 0, 60, 0
2, 186189, Note_on_c, 0, 59, 0
2, 186199, Note_on_c, 0, 62, 0
2, 186202, Note_on_c, 0, 64, 0
2, 186334, Control_c, 0, 64, 0
2, 186376, Note_on_c, 0, 65, 72
2, 186380, Note_on_c, 0, 60, 46
2, 186383, Note_on_c, 0, 62, 72
2, 186387, Note_on_c, 0, 57, 68
2, 186621, Note_on_c, 0, 62, 0
2, 186648, Control_c, 0, 64, 127
2, 186655, Note_on_c, 0, 57, 0
2, 186673, Note_on_c, 0, 60, 0
2, 186678, Note_on_c, 0, 65, 0
2, 186737, Control_c, 0, 64, 0
2, 186876, Note_on_c, 0, 66, 53
2, 186903, Note_on_c, 0, 61, 52
2, 186904, Note_on_c, 0, 58, 27
2, 186908, Note_on_c, 0, 63, 44
2, 186946, Note_on_c, 0, 48, 26
2, 187050, Control_c, 0, 64, 127
2, 187051, Note_on_c, 0, 48, 0
2, 187185, Control_c, 0, 64, 0
2, 187200, Note_on_c, 0, 58, 0
2, 187202, Note_on_c, 0, 63, 0
2, 187217, Note_on_c, 0, 66, 0
2, 187231, Note_on_c, 0, 61, 0
2, 187309, Note_on_c, 0, 48, 43
2, 187690, Note_on_c, 0, 41, 0
2, 187813, Note_on_c, 0, 41, 45
2, 188060, Note_on_c, 0, 41, 0
2, 188178, Note_on_c, 0, 48, 0
2, 188255, Note_on_c, 0, 69, 61
2, 188259, Note_on_c, 0, 58, 56
2, 188263, Note_on_c, 0, 62, 59
2, 188285, Note_on_c, 0, 65, 46
2, 188306, Note_on_c, 0, 43, 52
2, 188812, Control_c, 0, 64, 127
2, 188968, Note_on_c, 0, 58, 0
2, 189135, Note_on_c, 0, 69, 0
2, 189139, Control_c, 0, 64, 0
2, 189185, Note_on_c, 0, 62, 0
2, 189196, Note_on_c, 0, 65, 0
2, 189202, Note_on_c, 0, 58, 32
2, 189382, Note_on_c, 0, 58, 0
2, 189394, Control_c, 0, 64, 127
2, 189745, Note_on_c, 0, 48, 31
2, 189752, Note_on_c, 0, 58, 27
2, 189763, Note_on_c, 0, 62, 38
2, 189764, Note_on_c, 0, 67, 41
2, 189794, Note_on_c, 0, 64, 30
2, 189797, Control_c, 0, 64, 0
2, 189838, Note_on_c, 0, 43, 0
2, 190248, Note_on_c, 0, 36, 36
2, 190337, Note_on_c, 0, 36, 0
2, 190740, Note_on_c, 0, 36, 55
2, 190853, Note_on_c, 0, 58, 0
2, 190959, Control_c, 0, 64, 127
2, 191163, Note_on_c, 0, 36, 0
2, 191164, Note_on_c, 0, 67, 0
2, 191184, Note_on_c, 0, 58, 35
2, 191280, Note_on_c, 0, 64, 0
2, 191318, Note_on_c, 0, 58, 0
2, 191422, Note_on_c, 0, 62, 0
2, 191615, Control_c, 0, 64, 0
2, 191643, Note_on_c, 0, 36, 35
2, 191719, Control_c, 0, 64, 127
2, 191895, Note_on_c, 0, 36, 0
2, 191977, Note_on_c, 0, 48, 0
2, 192063, Control_c, 0, 64, 0
2, 192117, Note_on_c, 0, 44, 35
2, 192606, Note_on_c, 0, 68, 43
2, 192620, Note_on_c, 0, 63, 45
2, 192689, Note_on_c, 0, 68, 0
2, 192760, Note_on_c, 0, 63, 0
2, 193079, Note_on_c, 0, 67, 51
2, 193090, Note_on_c, 0, 58, 37
2, 193103, Note_on_c, 0, 63, 44
2, 193386, Note_on_c, 0, 58, 0
2, 193450, Note_on_c, 0, 67, 0
2, 193456, Note_on_c, 0, 63, 0
2, 193552, Note_on_c, 0, 65, 46
2, 193552, Note_on_c, 0, 56, 35
2, 193572, Note_on_c, 0, 61, 54
2, 193645, Control_c, 0, 64, 127
2, 193734, Control_c, 0, 64, 0
2, 194004, Control_c, 0, 64, 127
2, 194262, Note_on_c, 0, 44, 0
2, 194471, Note_on_c, 0, 44, 45
2, 194518, Note_on_c, 0, 61, 0
2, 194568, Note_on_c, 0, 65, 0
2, 194583, Note_on_c, 0, 56, 0
2, 194823, Control_c, 0, 64, 0
2, 195009, Note_on_c, 0, 62, 52
2, 195121, Note_on_c, 0, 62, 0
2, 195246, Note_on_c, 0, 44, 0
2, 195446, Note_on_c, 0, 44, 49
2, 195918, Note_on_c, 0, 56, 66
2, 195936, Note_on_c, 0, 65, 52
2, 195944, Note_on_c, 0, 61, 67
2, 196130, Note_on_c, 0, 44, 0
2, 196456, Note_on_c, 0, 51, 49
2, 196609, Note_on_c, 0, 51, 0
2, 196774, Note_on_c, 0, 56, 0
2, 196863, Note_on_c, 0, 56, 17
2, 196972, Control_c, 0, 64, 127
2, 197032, Control_c, 0, 64, 0
2, 197356, Note_on_c, 0, 39, 51
2, 197400, Note_on_c, 0, 56, 0
2, 197405, Control_c, 0, 64, 127
2, 197649, Note_on_c, 0, 39, 0
2, 197743, Note_on_c, 0, 61, 0
2, 197752, Note_on_c, 0, 65, 0
2, 197777, Control_c, 0, 64, 0
2, 197814, Note_on_c, 0, 51, 57
2, 198151, Control_c, 0, 64, 127
2, 198356, Note_on_c, 0, 39, 57
2, 198673, Control_c, 0, 64, 0
2, 198783, Note_on_c, 0, 64, 60
2, 198788, Note_on_c, 0, 68, 55
2, 198789, Note_on_c, 0, 72, 55
2, 198839, Note_on_c, 0, 64, 0
2, 198847, Note_on_c, 0, 72, 0
2, 198892, Note_on_c, 0, 68, 0
2, 198931, Note_on_c, 0, 39, 0
2, 199202, Note_on_c, 0, 39, 42
2, 199546, Note_on_c, 0, 39, 0
2, 199685, Note_on_c, 0, 51, 0
2, 199716, Note_on_c, 0, 44, 38
2, 200030, Control_c, 0, 64, 127
2, 200208, Note_on_c, 0, 70, 54
2, 200213, Note_on_c, 0, 62, 63
2, 200233, Note_on_c, 0, 67, 53
2, 200487, Note_on_c, 0, 62, 0
2, 200510, Note_on_c, 0, 70, 0
2, 200555, Note_on_c, 0, 67, 0
2, 200626, Control_c, 0, 64, 0
2, 200682, Note_on_c, 0, 60, 29
2, 200719, Note_on_c, 0, 65, 24
2, 200738, Note_on_c, 0, 68, 23
2, 200825, Note_on_c, 0, 65, 0
2, 200826, Note_on_c, 0, 60, 0
2, 200943, Note_on_c, 0, 68, 0
2, 201183, Note_on_c, 0, 62, 49
2, 201207, Note_on_c, 0, 51, 27
2, 201265, Note_on_c, 0, 62, 0
2, 201469, Note_on_c, 0, 51, 0
2, 201656, Control_c, 0, 64, 127
2, 202125, Note_on_c, 0, 70, 48
2, 202134, Note_on_c, 0, 62, 50
2, 202135, Note_on_c, 0, 51, 32
2, 202158, Note_on_c, 0, 65, 38
2, 202302, Note_on_c, 0, 65, 0
2, 202312, Note_on_c, 0, 62, 0
2, 202396, Note_on_c, 0, 70, 0
2, 202506, Control_c, 0, 64, 0
2, 202567, Note_on_c, 0, 60, 32
2, 202588, Note_on_c, 0, 68, 43
2, 202601, Note_on_c, 0, 65, 30
2, 202671, Note_on_c, 0, 65, 0
2, 202723, Note_on_c, 0, 44, 0
2, 203044, Note_on_c, 0, 68, 0
2, 203073, Note_on_c, 0, 44, 38
2, 203199, Note_on_c, 0, 60, 0
2, 203250, Note_on_c, 0, 51, 0
2, 203266, Control_c, 0, 64, 127
2, 203470, Note_on_c, 0, 44, 0
2, 203476, Control_c, 0, 64, 0
2, 203549, Note_on_c, 0, 59, 58
2, 203555, Note_on_c, 0, 64, 45
2, 203558, Note_on_c, 0, 67, 49
2, 204082, Note_on_c, 0, 50, 42
2, 204422, Note_on_c, 0, 50, 0
2, 204425, Note_on_c, 0, 67, 0
2, 204458, Note_on_c, 0, 64, 0
2, 204504, Note_on_c, 0, 43, 31
2, 204626, Note_on_c, 0, 59, 0
2, 204788, Control_c, 0, 64, 127
2, 205013, Note_on_c, 0, 65, 36
2, 205018, Note_on_c, 0, 62, 44
2, 205029, Note_on_c, 0, 56, 32
2, 205033, Note_on_c, 0, 59, 34
2, 205061, Note_on_c, 0, 53, 30
2, 205101, Control_c, 0, 64, 0
2, 205311, Control_c, 0, 64, 127
2, 205896, Note_on_c, 0, 53, 0
2, 206015, Note_on_c, 0, 50, 32
2, 206144, Note_on_c, 0, 50, 0
2, 206190, Note_on_c, 0, 43, 0
2, 206203, Note_on_c, 0, 56, 0
2, 206428, Note_on_c, 0, 59, 0
2, 206440, Note_on_c, 0, 65, 0
2, 206548, Note_on_c, 0, 56, 24
2, 206573, Note_on_c, 0, 62, 0
2, 206639, Note_on_c, 0, 56, 0
2, 206796, Note_on_c, 0, 59, 43
2, 206930, Note_on_c, 0, 59, 0
2, 207026, Note_on_c, 0, 62, 47
2, 207202, Note_on_c, 0, 62, 0
2, 207288, Note_on_c, 0, 65, 81
2, 207415, Control_c, 0, 64, 0
2, 207478, Note_on_c, 0, 43, 25
2, 207479, Note_on_c, 0, 36, 32
2, 207494, Note_on_c, 0, 52, 29
2, 207581, Note_on_c, 0, 65, 0
2, 207583, Note_on_c, 0, 64, 42
2, 207817, Note_on_c, 0, 64, 0
2, 207979, Note_on_c, 0, 60, 40
2, 207991, Note_on_c, 0, 52, 0
2, 208247, Note_on_c, 0, 60, 0
2, 208418, Note_on_c, 0, 55, 31
2, 208723, Note_on_c, 0, 55, 0
2, 208866, Note_on_c, 0, 53, 30
2, 209221, Note_on_c, 0, 53, 0
2, 209290, Note_on_c, 0, 36, 0
2, 209342, Note_on_c, 0, 52, 33
2, 209422, Note_on_c, 0, 52, 0
2, 209813, Note_on_c, 0, 36, 40
2, 209903, Note_on_c, 0, 36, 0
2, 209918, Note_on_c, 0, 43, 0
2, 210266, Note_on_c, 0, 60, 27
2, 210384, Control_c, 0, 64, 127
2, 210415, Note_on_c, 0, 60, 0
2, 210734, Note_on_c, 0, 64, 45
2, 210787, Note_on_c, 0, 64, 0
2, 211194, Note_on_c, 0, 69, 44
2, 211211, Note_on_c, 0, 81, 54
2, 211275, Note_on_c, 0, 69, 0
2, 211348, Note_on_c, 0, 81, 0
2, 211577, Control_c, 0, 64, 0
2, 211682, Note_on_c, 0, 60, 37
2, 211685, Note_on_c, 0, 61, 55
2, 211688, Note_on_c, 0, 65, 68
2, 211693, Note_on_c, 0, 84, 80
2, 211696, Note_on_c, 0, 72, 73
2, 211702, Note_on_c, 0, 55, 61
2, 211730, Control_c, 0, 64, 127
2, 211922, Note_on_c, 0, 72, 0
2, 211968, Note_on_c, 0, 55, 0
2, 211987, Note_on_c, 0, 84, 0
2, 212000, Note_on_c, 0, 65, 0
2, 212030, Note_on_c, 0, 60, 0
2, 212036, Note_on_c, 0, 61, 0
2, 212139, Note_on_c, 0, 60, 52
2, 212142, Note_on_c, 0, 61, 69
2, 212144, Note_on_c, 0, 65, 63
2, 212167, Note_on_c, 0, 55, 59
2, 212172, Note_on_c, 0, 89, 72
2, 212178, Note_on_c, 0, 77, 72
2, 212343, Note_on_c, 0, 77, 0
2, 212370, Note_on_c, 0, 55, 0
2, 212388, Note_on_c, 0, 89, 0
2, 212404, Note_on_c, 0, 65, 0
2, 212443, Note_on_c, 0, 60, 0
2, 212458, Note_on_c, 0, 61, 0
2, 212535, Control_c, 0, 64, 0
2, 212565, Control_c, 0, 64, 127
2, 212615, Note_on_c, 0, 60, 41
2, 212621, Note_on_c, 0, 61, 69
2, 212623, Note_on_c, 0, 65, 81
2, 212624, Note_on_c, 0, 81, 81
2, 212628, Note_on_c, 0, 93, 82
2, 212638, Note_on_c, 0, 55, 63
2, 212831, Note_on_c, 0, 81, 0
2, 212856, Note_on_c, 0, 55, 0
2, 212876, Note_on_c, 0, 93, 0
2, 212913, Note_on_c, 0, 65, 0
2, 212944, Note_on_c, 0, 60, 0
2, 212958, Note_on_c, 0, 61, 0
2, 213060, Control_c, 0, 64, 0
2, 213083, Note_on_c, 0, 60, 57
2, 213085, Note_on_c, 0, 65, 74
2, 213087, Note_on_c, 0, 61, 68
2, 213101, Note_on_c, 0, 84, 81
2, 213102, Note_on_c, 0, 92, 72
2, 213103, Note_on_c, 0, 96, 71
2, 213105, Note_on_c, 0, 55, 72
2, 213140, Note_on_c, 0, 58, 29
2, 213398, Note_on_c, 0, 93, 40
2, 213428, Note_on_c, 0, 92, 0
2, 213590, Note_on_c, 0, 84, 0
2, 213629, Note_on_c, 0, 93, 0
2, 213663, Note_on_c, 0, 96, 0
2, 213672, Note_on_c, 0, 61, 0
2, 213684, Note_on_c, 0, 55, 0
2, 213710, Note_on_c, 0, 65, 0
2, 213714, Note_on_c, 0, 60, 0
2, 213719, Note_on_c, 0, 58, 0
2, 213849, Note_on_c, 0, 60, 54
2, 213859, Note_on_c, 0, 65, 63
2, 213861, Note_on_c, 0, 96, 61
2, 213864, Note_on_c, 0, 84, 63
2, 213865, Note_on_c, 0, 61, 63
2, 213867, Note_on_c, 0, 92, 63
2, 213877, Note_on_c, 0, 55, 52
2, 213983, Note_on_c, 0, 93, 41
2, 214053, Note_on_c, 0, 92, 0
2, 214090, Note_on_c, 0, 96, 0
2, 214214, Note_on_c, 0, 84, 0
2, 214220, Note_on_c, 0, 93, 0
2, 214267, Note_on_c, 0, 55, 0
2, 214306, Note_on_c, 0, 65, 0
2, 214309, Note_on_c, 0, 61, 0
2, 214328, Note_on_c, 0, 60, 0
2, 214617, Note_on_c, 0, 92, 64
2, 214623, Note_on_c, 0, 96, 60
2, 214626, Note_on_c, 0, 60, 45
2, 214634, Note_on_c, 0, 61, 63
2, 214637, Note_on_c, 0, 84, 54
2, 214645, Note_on_c, 0, 65, 66
2, 214650, Note_on_c, 0, 55, 61
2, 214675, Note_on_c, 0, 58, 38
2, 214929, Note_on_c, 0, 93, 59
2, 214935, Note_on_c, 0, 92, 0
2, 214937, Note_on_c, 0, 96, 0
2, 214968, Note_on_c, 0, 65, 0
2, 214989, Note_on_c, 0, 93, 0
2, 215017, Note_on_c, 0, 61, 0
2, 215023, Note_on_c, 0, 60, 0
2, 215037, Note_on_c, 0, 84, 0
2, 215038, Note_on_c, 0, 55, 0
2, 215054, Note_on_c, 0, 58, 0
2, 215520, Note_on_c, 0, 72, 54
2, 215521, Note_on_c, 0, 65, 66
2, 215536, Note_on_c, 0, 62, 60
2, 215569, Note_on_c, 0, 55, 49
2, 215572, Note_on_c, 0, 64, 27
2, 215623, Note_on_c, 0, 64, 0
2, 215637, Note_on_c, 0, 55, 0
2, 215645, Note_on_c, 0, 62, 0
2, 215648, Note_on_c, 0, 65, 0
2, 215700, Note_on_c, 0, 72, 0
2, 216022, Note_on_c, 0, 69, 48
2, 216036, Note_on_c, 0, 62, 55
2, 216047, Note_on_c, 0, 53, 45
2, 216064, Note_on_c, 0, 65, 33
2, 216386, Note_on_c, 0, 69, 0
2, 216433, Note_on_c, 0, 65, 0
2, 216443, Note_on_c, 0, 62, 0
2, 216483, Note_on_c, 0, 43, 36
2, 216511, Control_c, 0, 64, 127
2, 216942, Control_c, 0, 64, 0
2, 216953, Note_on_c, 0, 55, 41
2, 216956, Note_on_c, 0, 65, 39
2, 216959, Note_on_c, 0, 62, 45
2, 216974, Note_on_c, 0, 58, 36
2, 217130, Note_on_c, 0, 53, 0
2, 217274, Note_on_c, 0, 43, 0
2, 217451, Note_on_c, 0, 55, 0
2, 217482, Note_on_c, 0, 48, 69
2, 217517, Note_on_c, 0, 62, 0
2, 217547, Note_on_c, 0, 47, 39
2, 217599, Note_on_c, 0, 47, 0
2, 218811, Note_on_c, 0, 65, 0
2, 218918, Note_on_c, 0, 58, 0
2, 218942, Control_c, 0, 64, 127
2, 219360, Control_c, 0, 64, 0
2, 219407, Note_on_c, 0, 36, 26
2, 219899, Note_on_c, 0, 52, 27
2, 219901, Note_on_c, 0, 48, 0
2, 219911, Note_on_c, 0, 61, 20
2, 219929, Note_on_c, 0, 56, 29
2, 220064, Note_on_c, 0, 52, 0
2, 220104, Note_on_c, 0, 56, 0
2, 220174, Note_on_c, 0, 61, 0
2, 220377, Note_on_c, 0, 61, 39
2, 220414, Note_on_c, 0, 52, 35
2, 220415, Note_on_c, 0, 56, 35
2, 220534, Note_on_c, 0, 52, 0
2, 220866, Control_c, 0, 64, 127
2, 220985, Control_c, 0, 64, 0
2, 221214, Note_on_c, 0, 56, 0
2, 221225, Control_c, 0, 64, 127
2, 221302, Note_on_c, 0, 48, 32
2, 221332, Note_on_c, 0, 61, 0
2, 221522, Control_c, 0, 64, 0
2, 221680, Note_on_c, 0, 36, 0
2, 221777, Control_c, 0, 64, 127
2, 221779, Note_on_c, 0, 52, 24
2, 221803, Note_on_c, 0, 56, 22
2, 221832, Note_on_c, 0, 58, 18
2, 221978, Note_on_c, 0, 52, 0
2, 222079, Note_on_c, 0, 56, 0
2, 222103, Note_on_c, 0, 58, 0
2, 222643, Control_c, 0, 64, 0
2, 222666, Note_on_c, 0, 41, 36
2, 222692, Note_on_c, 0, 48, 0
2, 222746, Note_on_c, 0, 65, 24
2, 222981, Note_on_c, 0, 65, 0
2, 223244, Note_on_c, 0, 62, 39
2, 223317, Note_on_c, 0, 62, 0
2, 223336, Note_on_c, 0, 60, 25
2, 223414, Note_on_c, 0, 60, 0
2, 223429, Note_on_c, 0, 59, 50
2, 223549, Note_on_c, 0, 59, 0
2, 224153, Note_on_c, 0, 48, 37
2, 224165, Note_on_c, 0, 41, 0
2, 224170, Note_on_c, 0, 57, 36
2, 224180, Note_on_c, 0, 59, 43
2, 224184, Note_on_c, 0, 47, 41
2, 224292, Note_on_c, 0, 47, 0
2, 224491, Note_on_c, 0, 59, 0
2, 224540, Note_on_c, 0, 57, 0
2, 224665, Note_on_c, 0, 57, 30
2, 224686, Note_on_c, 0, 59, 27
2, 224958, Note_on_c, 0, 59, 0
2, 224962, Note_on_c, 0, 57, 0
2, 225142, Note_on_c, 0, 57, 36
2, 225147, Note_on_c, 0, 59, 37
2, 225305, Note_on_c, 0, 59, 0
2, 225366, Note_on_c, 0, 57, 0
2, 225591, Note_on_c, 0, 55, 44
2, 225610, Note_on_c, 0, 57, 30
2, 225707, Note_on_c, 0, 55, 0
2, 225772, Note_on_c, 0, 57, 0
2, 226088, Note_on_c, 0, 36, 27
2, 226428, Note_on_c, 0, 36, 0
2, 226583, Note_on_c, 0, 43, 37
2, 226726, Note_on_c, 0, 48, 0
2, 227083, Note_on_c, 0, 62, 41
2, 227086, Note_on_c, 0, 55, 29
2, 227089, Note_on_c, 0, 58, 32
2, 227183, Note_on_c, 0, 55, 0
2, 227213, Note_on_c, 0, 58, 0
2, 227230, Note_on_c, 0, 62, 0
2, 227607, Note_on_c, 0, 58, 71
2, 227625, Note_on_c, 0, 65, 48
2, 227640, Note_on_c, 0, 62, 48
2, 227649, Note_on_c, 0, 67, 45
2, 227689, Note_on_c, 0, 62, 0
2, 227690, Note_on_c, 0, 58, 0
2, 227693, Note_on_c, 0, 65, 0
2, 227708, Note_on_c, 0, 67, 0
2, 228076, Note_on_c, 0, 48, 51
2, 228179, Note_on_c, 0, 43, 0
2, 228988, Note_on_c, 0, 64, 55
2, 228998, Note_on_c, 0, 56, 61
2, 229006, Note_on_c, 0, 60, 29
2, 229009, Note_on_c, 0, 36, 36
2, 229023, Note_on_c, 0, 52, 43
2, 229177, Control_c, 0, 64, 127
2, 229296, Note_on_c, 0, 64, 0
2, 229305, Note_on_c, 0, 60, 0
2, 229377, Note_on_c, 0, 52, 0
2, 229393, Note_on_c, 0, 56, 0
2, 229583, Note_on_c, 0, 36, 0
2, 229741, Note_on_c, 0, 62, 57
2, 229744, Control_c, 0, 64, 0
2, 229760, Note_on_c, 0, 58, 57
2, 229763, Note_on_c, 0, 36, 32
2, 229767, Note_on_c, 0, 52, 55
2, 229781, Note_on_c, 0, 56, 53
2, 229998, Note_on_c, 0, 56, 0
2, 230081, Note_on_c, 0, 52, 0
2, 230086, Control_c, 0, 64, 127
2, 230116, Note_on_c, 0, 62, 0
2, 230182, Note_on_c, 0, 58, 0
2, 230290, Note_on_c, 0, 36, 0
2, 230430, Control_c, 0, 64, 0
2, 230473, Note_on_c, 0, 64, 54
2, 230495, Note_on_c, 0, 60, 28
2, 230514, Note_on_c, 0, 55, 34
2, 230517, Note_on_c, 0, 41, 38
2, 230535, Note_on_c, 0, 48, 0
2, 230540, Note_on_c, 0, 57, 21
2, 230773, Note_on_c, 0, 57, 0
2, 230787, Note_on_c, 0, 60, 0
2, 230812, Note_on_c, 0, 55, 0
2, 230861, Note_on_c, 0, 64, 0
2, 230926, Note_on_c, 0, 64, 30
2, 230995, Note_on_c, 0, 62, 57
2, 231046, Note_on_c, 0, 64, 0
2, 231065, Note_on_c, 0, 60, 31
2, 231145, Note_on_c, 0, 60, 0
2, 231159, Note_on_c, 0, 62, 0
2, 231203, Note_on_c, 0, 59, 40
2, 231323, Note_on_c, 0, 59, 0
2, 231436, Note_on_c, 0, 59, 39
2, 231455, Note_on_c, 0, 57, 41
2, 231458, Note_on_c, 0, 60, 22
2, 231650, Note_on_c, 0, 59, 0
2, 231720, Note_on_c, 0, 60, 0
2, 231724, Note_on_c, 0, 57, 0
2, 231906, Note_on_c, 0, 57, 35
2, 231920, Note_on_c, 0, 60, 27
2, 231927, Note_on_c, 0, 59, 50
2, 231954, Note_on_c, 0, 48, 32
2, 232072, Note_on_c, 0, 59, 0
2, 232107, Note_on_c, 0, 57, 0
2, 232125, Note_on_c, 0, 60, 0
2, 232342, Note_on_c, 0, 41, 0
2, 232803, Note_on_c, 0, 60, 44
2, 232806, Note_on_c, 0, 59, 57
2, 232810, Note_on_c, 0, 57, 52
2, 232968, Note_on_c, 0, 59, 0
2, 232998, Note_on_c, 0, 57, 0
2, 233006, Note_on_c, 0, 60, 0
2, 233267, Note_on_c, 0, 36, 33
2, 233289, Note_on_c, 0, 57, 38
2, 233324, Control_c, 0, 64, 127
2, 233383, Control_c, 0, 64, 0
2, 233509, Note_on_c, 0, 36, 0
2, 233576, Note_on_c, 0, 57, 0
2, 233723, Note_on_c, 0, 36, 39
2, 233728, Control_c, 0, 64, 127
2, 234025, Note_on_c, 0, 36, 0
2, 234054, Control_c, 0, 64, 0
2, 234187, Note_on_c, 0, 43, 38
2, 234464, Note_on_c, 0, 48, 0
2, 234666, Note_on_c, 0, 60, 32
2, 234667, Note_on_c, 0, 56, 54
2, 234681, Note_on_c, 0, 64, 47
2, 235036, Note_on_c, 0, 56, 0
2, 235142, Note_on_c, 0, 64, 0
2, 235158, Control_c, 0, 64, 127
2, 235172, Note_on_c, 0, 60, 0
2, 235278, Control_c, 0, 64, 0
2, 235607, Control_c, 0, 64, 127
2, 235636, Control_c, 0, 64, 0
2, 235735, Note_on_c, 0, 56, 75
2, 235745, Note_on_c, 0, 61, 63
2, 235746, Note_on_c, 0, 65, 66
2, 235775, Note_on_c, 0, 48, 44
2, 235837, Note_on_c, 0, 62, 42
2, 235917, Note_on_c, 0, 43, 0
2, 236246, Note_on_c, 0, 61, 0
2, 236362, Note_on_c, 0, 65, 0
2, 236370, Note_on_c, 0, 62, 0
2, 236411, Note_on_c, 0, 56, 0
2, 236712, Note_on_c, 0, 36, 41
2, 236733, Note_on_c, 0, 62, 59
2, 236737, Note_on_c, 0, 53, 57
2, 236749, Note_on_c, 0, 58, 55
2, 236923, Note_on_c, 0, 48, 0
2, 237196, Note_on_c, 0, 53, 0
2, 237273, Note_on_c, 0, 62, 0
2, 237367, Note_on_c, 0, 58, 0
2, 237712, Note_on_c, 0, 50, 42
2, 237713, Note_on_c, 0, 48, 27
2, 237731, Note_on_c, 0, 58, 33
2, 237749, Note_on_c, 0, 54, 26
2, 237879, Note_on_c, 0, 50, 0
2, 237928, Note_on_c, 0, 58, 0
2, 237942, Note_on_c, 0, 54, 0
2, 238011, Note_on_c, 0, 36, 0
2, 238185, Note_on_c, 0, 41, 36
2, 238204, Note_on_c, 0, 48, 0
2, 238587, Note_on_c, 0, 62, 45
2, 238673, Note_on_c, 0, 59, 23
2, 238680, Note_on_c, 0, 57, 36
2, 238843, Note_on_c, 0, 62, 0
2, 238866, Note_on_c, 0, 57, 0
2, 238867, Note_on_c, 0, 59, 0
2, 239200, Note_on_c, 0, 55, 3
2, 239428, Note_on_c, 0, 55, 0
2, 239530, Note_on_c, 0, 48, 38
2, 239646, Note_on_c, 0, 41, 0
2, 239955, Note_on_c, 0, 62, 53
2, 239969, Note_on_c, 0, 57, 41
2, 239987, Note_on_c, 0, 59, 44
2, 240192, Note_on_c, 0, 59, 0
2, 240273, Note_on_c, 0, 62, 0
2, 240280, Note_on_c, 0, 57, 0
2, 240508, Note_on_c, 0, 55, 51
2, 240646, Note_on_c, 0, 55, 0
2, 240911, Note_on_c, 0, 36, 33
2, 241337, Note_on_c, 0, 36, 0
2, 241384, Note_on_c, 0, 55, 48
2, 241441, Note_on_c, 0, 55, 0
2, 241478, Note_on_c, 0, 36, 45
2, 241789, Note_on_c, 0, 36, 0
2, 241868, Note_on_c, 0, 43, 55
2, 241920, Note_on_c, 0, 48, 0
2, 242381, Note_on_c, 0, 65, 49
2, 242389, Note_on_c, 0, 62, 53
2, 242412, Note_on_c, 0, 58, 62
2, 242414, Note_on_c, 0, 43, 0
2, 242429, Note_on_c, 0, 64, 33
2, 242485, Note_on_c, 0, 64, 0
2, 242524, Note_on_c, 0, 62, 0
2, 242556, Note_on_c, 0, 65, 0
2, 242579, Note_on_c, 0, 58, 0
2, 243302, Note_on_c, 0, 48, 52
2, 243384, Note_on_c, 0, 48, 0
2, 243781, Note_on_c, 0, 62, 36
2, 243793, Note_on_c, 0, 58, 36
2, 243798, Note_on_c, 0, 53, 28
2, 243822, Note_on_c, 0, 56, 32
2, 244247, Note_on_c, 0, 36, 42
2, 244256, Note_on_c, 0, 53, 0
2, 244392, Note_on_c, 0, 62, 0
2, 244401, Note_on_c, 0, 58, 0
2, 244403, Note_on_c, 0, 56, 0
2, 244408, Control_c, 0, 64, 127
2, 244527, Control_c, 0, 64, 0
2, 244729, Note_on_c, 0, 60, 22
2, 244749, Note_on_c, 0, 52, 26
2, 244820, Note_on_c, 0, 52, 0
2, 244885, Note_on_c, 0, 60, 0
2, 245274, Note_on_c, 0, 48, 36
2, 245488, Note_on_c, 0, 36, 0
2, 245685, Note_on_c, 0, 48, 0
2, 245757, Note_on_c, 0, 41, 38
2, 246250, Note_on_c, 0, 62, 61
2, 246290, Note_on_c, 0, 57, 44
2, 246652, Note_on_c, 0, 62, 0
2, 246769, Note_on_c, 0, 41, 0
2, 246774, Note_on_c, 0, 53, 35
2, 246795, Note_on_c, 0, 57, 0
2, 246824, Control_c, 0, 64, 127
2, 246899, Control_c, 0, 64, 0
2, 246917, Note_on_c, 0, 53, 0
2, 246958, Control_c, 0, 64, 127
2, 247243, Control_c, 0, 64, 0
2, 247244, Note_on_c, 0, 64, 52
2, 247259, Note_on_c, 0, 58, 57
2, 247264, Note_on_c, 0, 55, 56
2, 247266, Note_on_c, 0, 61, 53
2, 247271, Note_on_c, 0, 49, 51
2, 247734, Note_on_c, 0, 64, 0
2, 247809, Control_c, 0, 64, 127
2, 247882, Note_on_c, 0, 55, 0
2, 248006, Note_on_c, 0, 58, 0
2, 248094, Note_on_c, 0, 61, 0
2, 248181, Control_c, 0, 64, 0
2, 248210, Note_on_c, 0, 65, 61
2, 248211, Note_on_c, 0, 60, 51
2, 248222, Note_on_c, 0, 50, 55
2, 248235, Note_on_c, 0, 57, 52
2, 248260, Note_on_c, 0, 49, 0
2, 248481, Control_c, 0, 64, 127
2, 248567, Note_on_c, 0, 65, 0
2, 248743, Note_on_c, 0, 60, 0
2, 248831, Note_on_c, 0, 57, 0
2, 249047, Control_c, 0, 64, 0
2, 249102, Note_on_c, 0, 66, 60
2, 249103, Note_on_c, 0, 57, 52
2, 249117, Note_on_c, 0, 51, 50
2, 249119, Note_on_c, 0, 60, 36
2, 249122, Note_on_c, 0, 63, 52
2, 249245, Control_c, 0, 64, 127
2, 249254, Note_on_c, 0, 50, 0
2, 249277, Note_on_c, 0, 60, 0
2, 249314, Note_on_c, 0, 57, 0
2, 249339, Note_on_c, 0, 66, 0
2, 249344, Note_on_c, 0, 51, 0
2, 249375, Note_on_c, 0, 63, 0
2, 249461, Note_on_c, 0, 51, 33
2, 249487, Note_on_c, 0, 48, 30
2, 249532, Note_on_c, 0, 50, 43
2, 249557, Note_on_c, 0, 48, 0
2, 249622, Note_on_c, 0, 52, 66
2, 249628, Note_on_c, 0, 50, 0
2, 249649, Control_c, 0, 64, 0
2, 249661, Note_on_c, 0, 51, 0
2, 249686, Note_on_c, 0, 69, 72
2, 249702, Note_on_c, 0, 58, 63
2, 249704, Note_on_c, 0, 62, 66
2, 249708, Note_on_c, 0, 53, 67
2, 249711, Note_on_c, 0, 65, 57
2, 249754, Note_on_c, 0, 52, 0
2, 250290, Control_c, 0, 64, 127
2, 250397, Note_on_c, 0, 58, 0
2, 250601, Note_on_c, 0, 69, 0
2, 250632, Control_c, 0, 64, 0
2, 250653, Note_on_c, 0, 58, 33
2, 250717, Note_on_c, 0, 65, 0
2, 250766, Control_c, 0, 64, 127
2, 250800, Note_on_c, 0, 62, 0
2, 250940, Note_on_c, 0, 58, 0
2, 250975, Note_on_c, 0, 53, 0
2, 251199, Control_c, 0, 64, 0
2, 251204, Note_on_c, 0, 61, 45
2, 251217, Note_on_c, 0, 67, 42
2, 251229, Note_on_c, 0, 58, 18
2, 251243, Note_on_c, 0, 64, 32
2, 251245, Note_on_c, 0, 52, 29
2, 251437, Control_c, 0, 64, 127
2, 251526, Note_on_c, 0, 58, 0
2, 251619, Note_on_c, 0, 64, 0
2, 251622, Note_on_c, 0, 61, 0
2, 251647, Note_on_c, 0, 67, 0
2, 252304, Note_on_c, 0, 74, 66
2, 252407, Control_c, 0, 64, 0
2, 252409, Note_on_c, 0, 52, 0
2, 252495, Note_on_c, 0, 74, 0
2, 252635, Note_on_c, 0, 79, 41
2, 252738, Note_on_c, 0, 79, 0
2, 252897, Note_on_c, 0, 82, 58
2, 253052, Note_on_c, 0, 82, 0
2, 253181, Note_on_c, 0, 86, 81
2, 253384, Note_on_c, 0, 86, 0
2, 253449, Note_on_c, 0, 67, 43
2, 253466, Note_on_c, 0, 63, 28
2, 253467, Note_on_c, 0, 62, 37
2, 253479, Note_on_c, 0, 84, 56
2, 253483, Note_on_c, 0, 58, 22
2, 253628, Note_on_c, 0, 84, 0
2, 253762, Note_on_c, 0, 79, 59
2, 253912, Note_on_c, 0, 79, 0
2, 254032, Note_on_c, 0, 74, 49
2, 254199, Note_on_c, 0, 74, 0
2, 254474, Note_on_c, 0, 67, 0
2, 254988, Note_on_c, 0, 74, 81
2, 255123, Note_on_c, 0, 62, 0
2, 255220, Note_on_c, 0, 63, 0
2, 255354, Note_on_c, 0, 70, 45
2, 255356, Note_on_c, 0, 58, 0
2, 255384, Note_on_c, 0, 74, 0
2, 255524, Note_on_c, 0, 70, 0
2, 255665, Note_on_c, 0, 67, 29
2, 255795, Note_on_c, 0, 67, 0
2, 255904, Note_on_c, 0, 62, 27
2, 256083, Note_on_c, 0, 62, 0
2, 256111, Control_c, 0, 64, 127
2, 256426, Control_c, 0, 64, 0
2, 256426, Note_on_c, 0, 60, 28
2, 256755, Note_on_c, 0, 52, 55
2, 256757, Note_on_c, 0, 42, 45
2, 257037, Control_c, 0, 64, 127
2, 257126, Note_on_c, 0, 52, 0
2, 257208, Note_on_c, 0, 60, 0
2, 257260, Control_c, 0, 64, 0
2, 257291, Note_on_c, 0, 42, 0
2, 257371, Note_on_c, 0, 51, 50
2, 257386, Note_on_c, 0, 41, 55
2, 257557, Control_c, 0, 64, 127
2, 257749, Note_on_c, 0, 41, 0
2, 257861, Note_on_c, 0, 51, 0
2, 258029, Note_on_c, 0, 72, 71
2, 258319, Control_c, 0, 64, 0
2, 258330, Note_on_c, 0, 75, 66
2, 258342, Note_on_c, 0, 66, 55
2, 258347, Note_on_c, 0, 69, 57
2, 258356, Note_on_c, 0, 60, 48
2, 258589, Control_c, 0, 64, 127
2, 258929, Note_on_c, 0, 75, 0
2, 258932, Note_on_c, 0, 69, 0
2, 258968, Note_on_c, 0, 72, 0
2, 259068, Note_on_c, 0, 66, 0
2, 259136, Note_on_c, 0, 60, 0
2, 259264, Note_on_c, 0, 72, 40
2, 259273, Control_c, 0, 64, 0
2, 259291, Note_on_c, 0, 66, 35
2, 259312, Note_on_c, 0, 57, 36
2, 259315, Note_on_c, 0, 69, 40
2, 259318, Note_on_c, 0, 63, 26
2, 259542, Control_c, 0, 64, 127
2, 259744, Note_on_c, 0, 72, 0
2, 259754, Note_on_c, 0, 57, 0
2, 259810, Note_on_c, 0, 69, 0
2, 259853, Note_on_c, 0, 63, 0
2, 259987, Note_on_c, 0, 66, 0
2, 260160, Note_on_c, 0, 69, 50
2, 260199, Control_c, 0, 64, 0
2, 260205, Note_on_c, 0, 57, 23
2, 260212, Note_on_c, 0, 53, 39
2, 260232, Note_on_c, 0, 65, 45
2, 260257, Note_on_c, 0, 62, 34
2, 260453, Control_c, 0, 64, 127
2, 260640, Note_on_c, 0, 69, 0
2, 260663, Note_on_c, 0, 62, 0
2, 260682, Note_on_c, 0, 65, 0
2, 260715, Note_on_c, 0, 57, 0
2, 260934, Note_on_c, 0, 53, 0
2, 261154, Control_c, 0, 64, 0
2, 261166, Note_on_c, 0, 74, 65
2, 261172, Note_on_c, 0, 65, 66
2, 261194, Note_on_c, 0, 46, 47
2, 261200, Note_on_c, 0, 57, 42
2, 261335, Note_on_c, 0, 57, 0
2, 261480, Note_on_c, 0, 56, 56
2, 261559, Note_on_c, 0, 74, 0
2, 261572, Note_on_c, 0, 65, 0
2, 261713, Note_on_c, 0, 56, 0
2, 261774, Note_on_c, 0, 55, 37
2, 261934, Note_on_c, 0, 55, 0
2, 261996, Note_on_c, 0, 54, 40
2, 262078, Control_c, 0, 64, 127
2, 262125, Control_c, 0, 64, 0
2, 262226, Note_on_c, 0, 54, 0
2, 262231, Note_on_c, 0, 69, 39
2, 262235, Note_on_c, 0, 62, 31
2, 262248, Note_on_c, 0, 65, 33
2, 262255, Note_on_c, 0, 53, 49
2, 262541, Control_c, 0, 64, 127
2, 262809, Note_on_c, 0, 62, 0
2, 262858, Note_on_c, 0, 65, 0
2, 263170, Note_on_c, 0, 62, 33
2, 263172, Note_on_c, 0, 65, 33
2, 263197, Control_c, 0, 64, 0
2, 263405, Control_c, 0, 64, 127
2, 263752, Note_on_c, 0, 53, 0
2, 263811, Note_on_c, 0, 62, 0
2, 263847, Note_on_c, 0, 65, 0
2, 264122, Control_c, 0, 64, 0
2, 264124, Note_on_c, 0, 62, 42
2, 264132, Note_on_c, 0, 65, 42
2, 264266, Note_on_c, 0, 62, 0
2, 264319, Note_on_c, 0, 65, 0
2, 264330, Note_on_c, 0, 69, 0
2, 264430, Note_on_c, 0, 53, 52
2, 264491, Note_on_c, 0, 46, 0
2, 264590, Note_on_c, 0, 53, 0
2, 264690, Control_c, 0, 64, 127
2, 264703, Note_on_c, 0, 46, 41
2, 264840, Note_on_c, 0, 46, 0
2, 264987, Control_c, 0, 64, 0
2, 265040, Note_on_c, 0, 61, 34
2, 265068, Note_on_c, 0, 69, 37
2, 265069, Note_on_c, 0, 65, 43
2, 265070, Note_on_c, 0, 39, 51
2, 265301, Control_c, 0, 64, 127
2, 265396, Note_on_c, 0, 39, 0
2, 265664, Note_on_c, 0, 57, 63
2, 265853, Control_c, 0, 64, 0
2, 265878, Note_on_c, 0, 61, 0
2, 265900, Note_on_c, 0, 65, 0
2, 265919, Note_on_c, 0, 69, 0
2, 266032, Note_on_c, 0, 61, 41
2, 266040, Note_on_c, 0, 69, 52
2, 266054, Note_on_c, 0, 65, 36
2, 266255, Control_c, 0, 64, 127
2, 266618, Note_on_c, 0, 61, 0
2, 266646, Note_on_c, 0, 69, 0
2, 266658, Note_on_c, 0, 65, 0
2, 266928, Control_c, 0, 64, 0
2, 266959, Note_on_c, 0, 61, 33
2, 266968, Note_on_c, 0, 69, 36
2, 266979, Note_on_c, 0, 65, 36
2, 267017, Note_on_c, 0, 55, 30
2, 267030, Note_on_c, 0, 57, 0
2, 267180, Control_c, 0, 64, 127
2, 267255, Note_on_c, 0, 69, 0
2, 267314, Note_on_c, 0, 65, 0
2, 267335, Note_on_c, 0, 61, 0
2, 267426, Note_on_c, 0, 55, 0
2, 267883, Control_c, 0, 64, 0
2, 267893, Note_on_c, 0, 61, 43
2, 267894, Note_on_c, 0, 69, 36
2, 267912, Note_on_c, 0, 65, 39
2, 267926, Note_on_c, 0, 57, 21
2, 267938, Note_on_c, 0, 51, 33
2, 268186, Note_on_c, 0, 51, 0
2, 268195, Control_c, 0, 64, 127
2, 268225, Note_on_c, 0, 69, 0
2, 268249, Note_on_c, 0, 65, 0
2, 268274, Note_on_c, 0, 57, 0
2, 268508, Note_on_c, 0, 61, 0
2, 268807, Control_c, 0, 64, 0
2, 268830, Note_on_c, 0, 53, 34
2, 268838, Note_on_c, 0, 45, 34
2, 268841, Note_on_c, 0, 65, 52
2, 268855, Note_on_c, 0, 57, 42
2, 268859, Note_on_c, 0, 60, 31
2, 268860, Note_on_c, 0, 62, 45
2, 268964, Note_on_c, 0, 57, 0
2, 269012, Note_on_c, 0, 60, 0
2, 269014, Note_on_c, 0, 65, 0
2, 269016, Note_on_c, 0, 62, 0
2, 269435, Note_on_c, 0, 62, 49
2, 269438, Note_on_c, 0, 57, 37
2, 269444, Note_on_c, 0, 60, 27
2, 269458, Note_on_c, 0, 65, 27
2, 269502, Note_on_c, 0, 57, 0
2, 269513, Note_on_c, 0, 60, 0
2, 269520, Note_on_c, 0, 62, 0
2, 269521, Note_on_c, 0, 65, 0
2, 270031, Note_on_c, 0, 53, 0
2, 270382, Note_on_c, 0, 60, 32
2, 270388, Note_on_c, 0, 62, 43
2, 270393, Note_on_c, 0, 65, 32
2, 270403, Note_on_c, 0, 57, 37
2, 270510, Note_on_c, 0, 53, 16
2, 270614, Note_on_c, 0, 60, 0
2, 270628, Note_on_c, 0, 62, 0
2, 270650, Note_on_c, 0, 57, 0
2, 270773, Note_on_c, 0, 65, 0
2, 270835, Note_on_c, 0, 62, 36
2, 270868, Note_on_c, 0, 59, 42
2, 271006, Note_on_c, 0, 45, 0
2, 271064, Note_on_c, 0, 53, 0
2, 271355, Note_on_c, 0, 50, 44
2, 271793, Note_on_c, 0, 56, 29
2, 272110, Note_on_c, 0, 56, 0
2, 272177, Note_on_c, 0, 59, 0
2, 272234, Note_on_c, 0, 62, 0
2, 272283, Note_on_c, 0, 44, 32
2, 272413, Note_on_c, 0, 50, 0
2, 272461, Control_c, 0, 64, 127
2, 272573, Note_on_c, 0, 44, 0
2, 272595, Control_c, 0, 64, 0
2, 272722, Note_on_c, 0, 43, 29
2, 272730, Note_on_c, 0, 53, 27
2, 273235, Note_on_c, 0, 53, 0
2, 273265, Note_on_c, 0, 65, 27
2, 273293, Note_on_c, 0, 62, 42
2, 273354, Note_on_c, 0, 58, 33
2, 273607, Note_on_c, 0, 62, 0
2, 273609, Note_on_c, 0, 57, 35
2, 273611, Note_on_c, 0, 65, 0
2, 273613, Note_on_c, 0, 58, 0
2, 273724, Note_on_c, 0, 57, 0
2, 274094, Note_on_c, 0, 43, 0
2, 274153, Note_on_c, 0, 65, 49
2, 274155, Note_on_c, 0, 62, 52
2, 274159, Note_on_c, 0, 57, 50
2, 274182, Note_on_c, 0, 48, 49
2, 274183, Note_on_c, 0, 58, 41
2, 274251, Note_on_c, 0, 57, 0
2, 274259, Note_on_c, 0, 58, 0
2, 274260, Note_on_c, 0, 62, 0
2, 274301, Note_on_c, 0, 65, 0
2, 275107, Note_on_c, 0, 64, 37
2, 275113, Note_on_c, 0, 61, 41
2, 275114, Note_on_c, 0, 55, 38
2, 275119, Note_on_c, 0, 58, 41
2, 275154, Note_on_c, 0, 36, 28
2, 275504, Control_c, 0, 64, 127
2, 275625, Control_c, 0, 64, 0
2, 275702, Note_on_c, 0, 36, 0
2, 276019, Note_on_c, 0, 36, 28
2, 276041, Control_c, 0, 64, 127
2, 276142, Note_on_c, 0, 55, 0
2, 276247, Note_on_c, 0, 36, 0
2, 276257, Note_on_c, 0, 64, 0
2, 276296, Note_on_c, 0, 58, 0
2, 276320, Note_on_c, 0, 61, 0
2, 276400, Control_c, 0, 64, 0
2, 276482, Note_on_c, 0, 41, 41
2, 276606, Note_on_c, 0, 48, 0
2, 276968, Note_on_c, 0, 59, 48
2, 276980, Note_on_c, 0, 62, 44
2, 276991, Note_on_c, 0, 60, 31
2, 277287, Note_on_c, 0, 60, 0
2, 277290, Note_on_c, 0, 59, 0
2, 277358, Note_on_c, 0, 62, 0
2, 277464, Note_on_c, 0, 57, 18
2, 277628, Note_on_c, 0, 57, 0
2, 277954, Note_on_c, 0, 60, 32
2, 277957, Note_on_c, 0, 59, 42
2, 277978, Note_on_c, 0, 62, 34
2, 277989, Note_on_c, 0, 48, 28
2, 278117, Note_on_c, 0, 59, 0
2, 278141, Note_on_c, 0, 60, 0
2, 278150, Note_on_c, 0, 62, 0
2, 278569, Note_on_c, 0, 48, 0
2, 278849, Note_on_c, 0, 48, 23
2, 278879, Note_on_c, 0, 60, 30
2, 278886, Note_on_c, 0, 62, 44
2, 278889, Note_on_c, 0, 59, 45
2, 278996, Note_on_c, 0, 41, 0
2, 279133, Note_on_c, 0, 62, 0
2, 279191, Note_on_c, 0, 60, 0
2, 279205, Note_on_c, 0, 59, 0
2, 279385, Note_on_c, 0, 57, 32
2, 279864, Note_on_c, 0, 36, 33
2, 279934, Note_on_c, 0, 57, 0
2, 280165, Note_on_c, 0, 36, 0
2, 280300, Note_on_c, 0, 48, 0
2, 280334, Note_on_c, 0, 43, 33
2, 280802, Note_on_c, 0, 64, 34
2, 280822, Note_on_c, 0, 58, 38
2, 280828, Note_on_c, 0, 60, 27
2, 280983, Note_on_c, 0, 64, 0
2, 281133, Note_on_c, 0, 60, 0
2, 281199, Note_on_c, 0, 58, 0
2, 281273, Note_on_c, 0, 62, 46
2, 281306, Note_on_c, 0, 56, 26
2, 281537, Note_on_c, 0, 56, 0
2, 281541, Note_on_c, 0, 62, 0
2, 281791, Note_on_c, 0, 60, 38
2, 281805, Note_on_c, 0, 48, 27
2, 281806, Note_on_c, 0, 56, 56
2, 281813, Note_on_c, 0, 64, 49
2, 281924, Note_on_c, 0, 43, 0
2, 282053, Note_on_c, 0, 64, 0
2, 282093, Note_on_c, 0, 56, 0
2, 282107, Note_on_c, 0, 60, 0
2, 282275, Note_on_c, 0, 62, 1
2, 282306, Note_on_c, 0, 56, 33
2, 282340, Note_on_c, 0, 58, 27
2, 282483, Note_on_c, 0, 56, 0
2, 282527, Note_on_c, 0, 58, 0
2, 282566, Note_on_c, 0, 62, 0
2, 282745, Note_on_c, 0, 43, 33
2, 282751, Note_on_c, 0, 53, 52
2, 282752, Note_on_c, 0, 58, 41
2, 282764, Note_on_c, 0, 60, 28
2, 282892, Note_on_c, 0, 53, 0
2, 282940, Note_on_c, 0, 60, 0
2, 283006, Note_on_c, 0, 58, 0
2, 283117, Note_on_c, 0, 48, 0
2, 283219, Note_on_c, 0, 56, 32
2, 283236, Note_on_c, 0, 52, 29
2, 283675, Note_on_c, 0, 48, 36
2, 283777, Note_on_c, 0, 52, 0
2, 283904, Control_c, 0, 64, 127
2, 283980, Note_on_c, 0, 43, 0
2, 284127, Note_on_c, 0, 56, 0
2, 284173, Note_on_c, 0, 41, 36
2, 284206, Note_on_c, 0, 48, 0
2, 285201, Control_c, 0, 64, 0
2, 285715, Note_on_c, 0, 48, 36
2, 285718, Note_on_c, 0, 62, 56
2, 285730, Note_on_c, 0, 55, 55
2, 285750, Note_on_c, 0, 59, 51
2, 286032, Note_on_c, 0, 55, 0
2, 286066, Note_on_c, 0, 62, 0
2, 286098, Note_on_c, 0, 59, 0
2, 286191, Note_on_c, 0, 64, 57
2, 286194, Note_on_c, 0, 57, 57
2, 286206, Note_on_c, 0, 60, 39
2, 286263, Note_on_c, 0, 48, 0
2, 286463, Note_on_c, 0, 57, 0
2, 286524, Note_on_c, 0, 64, 0
2, 286531, Note_on_c, 0, 60, 0
2, 286672, Note_on_c, 0, 65, 72
2, 286676, Note_on_c, 0, 59, 76
2, 286683, Note_on_c, 0, 62, 74
2, 286783, Control_c, 0, 64, 127
2, 286911, Note_on_c, 0, 59, 0
2, 286962, Note_on_c, 0, 65, 0
2, 286969, Note_on_c, 0, 62, 0
2, 287051, Control_c, 0, 64, 0
2, 287112, Note_on_c, 0, 67, 66
2, 287114, Note_on_c, 0, 64, 61
2, 287115, Note_on_c, 0, 60, 59
2, 287127, Note_on_c, 0, 48, 35
2, 287198, Note_on_c, 0, 41, 0
2, 287322, Note_on_c, 0, 60, 0
2, 287355, Note_on_c, 0, 67, 0
2, 287355, Note_on_c, 0, 64, 0
2, 287576, Note_on_c, 0, 67, 44
2, 287606, Note_on_c, 0, 41, 37
2, 287728, Note_on_c, 0, 67, 0
2, 287784, Control_c, 0, 64, 127
2, 287947, Control_c, 0, 64, 0
2, 287968, Note_on_c, 0, 48, 0
2, 288051, Note_on_c, 0, 41, 0
2, 288076, Note_on_c, 0, 71, 45
2, 288084, Note_on_c, 0, 67, 46
2, 288090, Note_on_c, 0, 62, 28
2, 288102, Note_on_c, 0, 43, 36
2, 288108, Note_on_c, 0, 64, 24
2, 288157, Note_on_c, 0, 64, 0
2, 288213, Note_on_c, 0, 62, 0
2, 288302, Note_on_c, 0, 67, 0
2, 288355, Note_on_c, 0, 71, 0
2, 288588, Note_on_c, 0, 71, 26
2, 288591, Note_on_c, 0, 62, 36
2, 288603, Note_on_c, 0, 67, 41
2, 288790, Note_on_c, 0, 62, 0
2, 288835, Note_on_c, 0, 71, 0
2, 288877, Note_on_c, 0, 67, 0
2, 289073, Note_on_c, 0, 69, 23
2, 289235, Note_on_c, 0, 69, 0
2, 289503, Note_on_c, 0, 65, 59
2, 289520, Note_on_c, 0, 74, 36
2, 289543, Note_on_c, 0, 69, 41
2, 289548, Note_on_c, 0, 48, 30
2, 289607, Note_on_c, 0, 69, 0
2, 289636, Note_on_c, 0, 65, 0
2, 289651, Note_on_c, 0, 74, 0
2, 289658, Note_on_c, 0, 43, 0
2, 290215, Control_c, 0, 64, 127
2, 290423, Note_on_c, 0, 68, 45
2, 290441, Note_on_c, 0, 64, 38
2, 290452, Note_on_c, 0, 36, 30
2, 290459, Note_on_c, 0, 72, 40
2, 290697, Note_on_c, 0, 72, 0
2, 290719, Note_on_c, 0, 68, 0
2, 290770, Note_on_c, 0, 64, 0
2, 290915, Control_c, 0, 64, 0
2, 290948, Note_on_c, 0, 64, 27
2, 290957, Note_on_c, 0, 68, 27
2, 291099, Note_on_c, 0, 64, 0
2, 291127, Note_on_c, 0, 36, 0
2, 291189, Note_on_c, 0, 68, 0
2, 291400, Note_on_c, 0, 36, 36
2, 291723, Note_on_c, 0, 36, 0
2, 291911, Note_on_c, 0, 41, 36
2, 292083, Note_on_c, 0, 48, 0
2, 292356, Note_on_c, 0, 55, 32
2, 292369, Note_on_c, 0, 59, 38
2, 292377, Note_on_c, 0, 62, 36
2, 292563, Note_on_c, 0, 59, 0
2, 292603, Note_on_c, 0, 55, 0
2, 292685, Note_on_c, 0, 62, 0
2, 292816, Note_on_c, 0, 60, 24
2, 292868, Note_on_c, 0, 53, 15
2, 293014, Note_on_c, 0, 53, 0
2, 293156, Note_on_c, 0, 60, 0
2, 293303, Note_on_c, 0, 62, 45
2, 293309, Note_on_c, 0, 48, 33
2, 293327, Note_on_c, 0, 59, 34
2, 293330, Note_on_c, 0, 55, 23
2, 293692, Note_on_c, 0, 41, 0
2, 293720, Control_c, 0, 64, 127
2, 293926, Note_on_c, 0, 59, 0
2, 293938, Note_on_c, 0, 55, 0
2, 293951, Note_on_c, 0, 48, 0
2, 293958, Note_on_c, 0, 62, 0
2, 294244, Note_on_c, 0, 59, 36
2, 294262, Note_on_c, 0, 62, 35
2, 294268, Note_on_c, 0, 48, 26
2, 294277, Note_on_c, 0, 55, 21
2, 294427, Note_on_c, 0, 59, 0
2, 294466, Note_on_c, 0, 55, 0
2, 294572, Note_on_c, 0, 62, 0
2, 294689, Control_c, 0, 64, 0
2, 294728, Note_on_c, 0, 60, 29
2, 294780, Note_on_c, 0, 53, 21
2, 294853, Note_on_c, 0, 53, 0
2, 294957, Note_on_c, 0, 60, 0
2, 295214, Note_on_c, 0, 36, 30
2, 295549, Note_on_c, 0, 36, 0
2, 295696, Note_on_c, 0, 48, 0
2, 295709, Note_on_c, 0, 43, 29
2, 295719, Control_c, 0, 64, 127
2, 297166, Control_c, 0, 64, 0
2, 297216, Note_on_c, 0, 60, 42
2, 297226, Note_on_c, 0, 56, 63
2, 297235, Note_on_c, 0, 48, 30
2, 297238, Note_on_c, 0, 64, 53
2, 297479, Note_on_c, 0, 64, 0
2, 297482, Note_on_c, 0, 56, 0
2, 297555, Note_on_c, 0, 60, 0
2, 297687, Note_on_c, 0, 62, 15
2, 297720, Note_on_c, 0, 58, 39
2, 297910, Note_on_c, 0, 58, 0
2, 297964, Note_on_c, 0, 62, 0
2, 298040, Note_on_c, 0, 48, 0
2, 298165, Note_on_c, 0, 56, 54
2, 298174, Note_on_c, 0, 64, 43
2, 298180, Note_on_c, 0, 60, 30
2, 298193, Note_on_c, 0, 48, 36
2, 298370, Note_on_c, 0, 64, 0
2, 298396, Note_on_c, 0, 56, 0
2, 298489, Note_on_c, 0, 60, 0
2, 298493, Note_on_c, 0, 43, 0
2, 298626, Note_on_c, 0, 62, 33
2, 298647, Note_on_c, 0, 58, 39
2, 298800, Note_on_c, 0, 62, 0
2, 298872, Note_on_c, 0, 58, 0
2, 299101, Note_on_c, 0, 43, 28
2, 299439, Note_on_c, 0, 48, 0
2, 299456, Note_on_c, 0, 43, 0
2, 299571, Note_on_c, 0, 41, 35
2, 300073, Note_on_c, 0, 62, 42
2, 300075, Note_on_c, 0, 59, 39
2, 300096, Note_on_c, 0, 60, 30
2, 300247, Note_on_c, 0, 59, 0
2, 300318, Note_on_c, 0, 62, 0
2, 300388, Note_on_c, 0, 60, 0
2, 300525, Note_on_c, 0, 57, 26
2, 300824, Note_on_c, 0, 57, 0
2, 301006, Note_on_c, 0, 48, 29
2, 301023, Note_on_c, 0, 59, 41
2, 301026, Note_on_c, 0, 62, 44
2, 301037, Note_on_c, 0, 60, 28
2, 301627, Note_on_c, 0, 48, 0
2, 301690, Note_on_c, 0, 59, 0
2, 301733, Note_on_c, 0, 62, 0
2, 301742, Note_on_c, 0, 60, 0
2, 301925, Control_c, 0, 64, 127
2, 301956, Note_on_c, 0, 59, 37
2, 301968, Note_on_c, 0, 62, 29
2, 301970, Note_on_c, 0, 48, 29
2, 301976, Note_on_c, 0, 60, 32
2, 302130, Note_on_c, 0, 41, 0
2, 302229, Note_on_c, 0, 60, 0
2, 302321, Note_on_c, 0, 59, 0
2, 302392, Note_on_c, 0, 57, 31
2, 302620, Note_on_c, 0, 57, 0
2, 302775, Control_c, 0, 64, 0
2, 302791, Note_on_c, 0, 62, 0
2, 302915, Note_on_c, 0, 41, 38
2, 303105, Note_on_c, 0, 41, 0
2, 303365, Note_on_c, 0, 36, 46
2, 303773, Note_on_c, 0, 48, 0
2, 303873, Note_on_c, 0, 64, 40
2, 303890, Note_on_c, 0, 56, 45
2, 303898, Note_on_c, 0, 60, 25
2, 303900, Note_on_c, 0, 52, 34
2, 304095, Note_on_c, 0, 52, 0
2, 304160, Note_on_c, 0, 60, 0
2, 304166, Note_on_c, 0, 56, 0
2, 304200, Note_on_c, 0, 64, 0
2, 304327, Note_on_c, 0, 52, 21
2, 304409, Note_on_c, 0, 52, 0
2, 304504, Note_on_c, 0, 43, 15
2, 304803, Note_on_c, 0, 43, 0
2, 304849, Note_on_c, 0, 60, 29
2, 304858, Note_on_c, 0, 64, 36
2, 304863, Note_on_c, 0, 56, 41
2, 304864, Note_on_c, 0, 52, 40
2, 304876, Note_on_c, 0, 48, 36
2, 305398, Note_on_c, 0, 36, 0
2, 305462, Note_on_c, 0, 48, 0
2, 305868, Note_on_c, 0, 48, 72
2, 306213, Note_on_c, 0, 39, 57
2, 306279, Note_on_c, 0, 48, 0
2, 306468, Note_on_c, 0, 52, 0
2, 306484, Note_on_c, 0, 64, 0
2, 306514, Note_on_c, 0, 60, 0
2, 306539, Note_on_c, 0, 56, 0
2, 306562, Note_on_c, 0, 39, 0
2, 306914, Note_on_c, 0, 40, 52
2, 307205, Note_on_c, 0, 40, 0
2, 307254, Note_on_c, 0, 41, 51
2, 307262, Note_on_c, 0, 65, 61
2, 307758, Note_on_c, 0, 65, 0
2, 307879, Note_on_c, 0, 41, 0
2, 307917, Note_on_c, 0, 37, 38
2, 307983, Note_on_c, 0, 53, 21
2, 308041, Note_on_c, 0, 53, 0
2, 308134, Note_on_c, 0, 37, 0
2, 308222, Note_on_c, 0, 39, 40
2, 308832, Note_on_c, 0, 37, 33
2, 308851, Note_on_c, 0, 53, 63
2, 308951, Note_on_c, 0, 39, 0
2, 309029, Note_on_c, 0, 37, 0
2, 309078, Note_on_c, 0, 38, 31
2, 309471, Note_on_c, 0, 53, 0
2, 309560, Note_on_c, 0, 55, 24
2, 309658, Note_on_c, 0, 53, 30
2, 309666, Note_on_c, 0, 55, 0
2, 309829, Note_on_c, 0, 33, 21
2, 309910, Note_on_c, 0, 53, 0
2, 309923, Note_on_c, 0, 50, 41
2, 309944, Note_on_c, 0, 38, 0
2, 310038, Note_on_c, 0, 50, 0
2, 310051, Note_on_c, 0, 33, 0
2, 310114, Note_on_c, 0, 26, 39
2, 310228, Note_on_c, 0, 53, 45
2, 310578, Note_on_c, 0, 53, 0
2, 310758, Note_on_c, 0, 26, 0
2, 310810, Note_on_c, 0, 30, 39
2, 311042, Note_on_c, 0, 30, 0
2, 311149, Note_on_c, 0, 31, 38
2, 311748, Note_on_c, 0, 53, 94
2, 311762, Note_on_c, 0, 37, 37
2, 311813, Note_on_c, 0, 37, 0
2, 311834, Note_on_c, 0, 38, 43
2, 312005, Note_on_c, 0, 38, 0
2, 312045, Note_on_c, 0, 53, 0
2, 312104, Note_on_c, 0, 43, 17
2, 312129, Note_on_c, 0, 57, 54
2, 312343, Note_on_c, 0, 43, 0
2, 312700, Note_on_c, 0, 31, 0
2, 312703, Note_on_c, 0, 34, 26
2, 312825, Note_on_c, 0, 34, 0
2, 312911, Note_on_c, 0, 57, 0
2, 312969, Note_on_c, 0, 35, 36
2, 313034, Note_on_c, 0, 52, 42
2, 313655, Note_on_c, 0, 62, 56
2, 313679, Note_on_c, 0, 56, 44
2, 313688, Note_on_c, 0, 35, 0
2, 313691, Note_on_c, 0, 58, 41
2, 313737, Note_on_c, 0, 36, 36
2, 313799, Note_on_c, 0, 36, 0
2, 314581, Note_on_c, 0, 46, 45
2, 314589, Note_on_c, 0, 52, 0
2, 314591, Note_on_c, 0, 62, 0
2, 314714, Note_on_c, 0, 46, 0
2, 314721, Note_on_c, 0, 58, 0
2, 314723, Note_on_c, 0, 56, 0
2, 314875, Note_on_c, 0, 45, 44
2, 314897, Note_on_c, 0, 64, 31
2, 314906, Note_on_c, 0, 55, 26
2, 314914, Note_on_c, 0, 57, 28
2, 314921, Note_on_c, 0, 60, 22
2, 315479, Note_on_c, 0, 45, 0
2, 315582, Note_on_c, 0, 46, 23
2, 315795, Note_on_c, 0, 46, 0
2, 315832, Note_on_c, 0, 47, 41
2, 316304, Note_on_c, 0, 60, 0
2, 316333, Note_on_c, 0, 57, 0
2, 316335, Note_on_c, 0, 55, 0
2, 316362, Note_on_c, 0, 64, 0
2, 316551, Note_on_c, 0, 46, 31
2, 316580, Note_on_c, 0, 47, 0
2, 316790, Note_on_c, 0, 46, 0
2, 316801, Note_on_c, 0, 67, 45
2, 316809, Note_on_c, 0, 48, 40
2, 316838, Note_on_c, 0, 57, 26
2, 316845, Note_on_c, 0, 60, 23
2, 316923, Note_on_c, 0, 57, 0
2, 316952, Note_on_c, 0, 60, 0
2, 316984, Note_on_c, 0, 67, 0
2, 317411, Note_on_c, 0, 48, 0
2, 317512, Note_on_c, 0, 49, 38
2, 317653, Note_on_c, 0, 49, 0
2, 317756, Note_on_c, 0, 56, 62
2, 318397, Note_on_c, 0, 56, 0
2, 318427, Note_on_c, 0, 58, 53
2, 318433, Note_on_c, 0, 62, 59
2, 318437, Note_on_c, 0, 67, 38
2, 318524, Note_on_c, 0, 58, 0
2, 318540, Note_on_c, 0, 67, 0
2, 318548, Note_on_c, 0, 62, 0
2, 318560, Note_on_c, 0, 55, 35
2, 319031, Note_on_c, 0, 64, 63
2, 319332, Note_on_c, 0, 43, 48
2, 319402, Note_on_c, 0, 55, 0
2, 319424, Control_c, 0, 64, 127
2, 319513, Control_c, 0, 64, 0
2, 319562, Note_on_c, 0, 64, 0
2, 319641, Note_on_c, 0, 67, 67
2, 320055, Note_on_c, 0, 67, 0
2, 320166, Note_on_c, 0, 46, 27
2, 320244, Note_on_c, 0, 43, 0
2, 320288, Note_on_c, 0, 46, 0
2, 320294, Note_on_c, 0, 47, 39
2, 320300, Note_on_c, 0, 62, 63
2, 320317, Note_on_c, 0, 48, 47
2, 320369, Note_on_c, 0, 47, 0
2, 320842, Note_on_c, 0, 62, 0
2, 320873, Note_on_c, 0, 58, 49
2, 321031, Note_on_c, 0, 43, 19
2, 321051, Note_on_c, 0, 48, 0
2, 321099, Note_on_c, 0, 58, 0
2, 321205, Note_on_c, 0, 53, 49
2, 321382, Note_on_c, 0, 53, 0
2, 321443, Note_on_c, 0, 43, 0
2, 321479, Note_on_c, 0, 36, 26
2, 321528, Note_on_c, 0, 50, 31
2, 321567, Note_on_c, 0, 36, 0
2, 321784, Note_on_c, 0, 50, 0
2, 321869, Note_on_c, 0, 37, 35
2, 321885, Note_on_c, 0, 48, 41
2, 322026, Note_on_c, 0, 37, 0
2, 322028, Note_on_c, 0, 48, 0
2, 322166, Note_on_c, 0, 30, 46
2, 322223, Note_on_c, 0, 43, 29
2, 322351, Note_on_c, 0, 43, 0
2, 322429, Note_on_c, 0, 30, 0
2, 322518, Note_on_c, 0, 29, 37
2, 323125, Note_on_c, 0, 29, 0
2, 323131, Note_on_c, 0, 34, 48
2, 323174, Note_on_c, 0, 62, 67
2, 323345, Note_on_c, 0, 34, 0
2, 323367, Note_on_c, 0, 62, 0
2, 323434, Note_on_c, 0, 39, 41
2, 324160, Note_on_c, 0, 39, 0
2, 324189, Note_on_c, 0, 34, 40
2, 324248, Note_on_c, 0, 32, 15
2, 324380, Note_on_c, 0, 32, 0
2, 324397, Note_on_c, 0, 34, 0
2, 324479, Note_on_c, 0, 38, 32
2, 324532, Note_on_c, 0, 60, 36
2, 325061, Note_on_c, 0, 38, 0
2, 325127, Note_on_c, 0, 26, 44
2, 325394, Note_on_c, 0, 26, 0
2, 325467, Note_on_c, 0, 32, 37
2, 325498, Note_on_c, 0, 60, 0
2, 326116, Note_on_c, 0, 30, 35
2, 326130, Note_on_c, 0, 50, 32
2, 326156, Note_on_c, 0, 32, 0
2, 326279, Note_on_c, 0, 50, 0
2, 326395, Note_on_c, 0, 30, 0
2, 326429, Note_on_c, 0, 31, 52
2, 326431, Note_on_c, 0, 62, 68
2, 327002, Control_c, 0, 64, 127
2, 327031, Note_on_c, 0, 62, 0
2, 327332, Control_c, 0, 64, 0
2, 327373, Note_on_c, 0, 25, 46
2, 327387, Note_on_c, 0, 31, 0
2, 328039, Note_on_c, 0, 31, 34
2, 328111, Note_on_c, 0, 25, 0
2, 328209, Note_on_c, 0, 31, 0
2, 328298, Note_on_c, 0, 24, 29
2, 328342, Note_on_c, 0, 48, 62
2, 328971, Note_on_c, 0, 49, 74
2, 329059, Note_on_c, 0, 48, 0
2, 329094, Note_on_c, 0, 24, 0
2, 329245, Note_on_c, 0, 27, 32
2, 329246, Note_on_c, 0, 49, 0
2, 329307, Note_on_c, 0, 50, 32
2, 329532, Note_on_c, 0, 50, 0
2, 329605, Note_on_c, 0, 51, 49
2, 329810, Note_on_c, 0, 51, 0
2, 329841, Note_on_c, 0, 27, 0
2, 329905, Note_on_c, 0, 52, 64
2, 329919, Note_on_c, 0, 28, 53
2, 330059, Note_on_c, 0, 52, 0
2, 330169, Note_on_c, 0, 55, 52
2, 330413, Note_on_c, 0, 55, 0
2, 330471, Note_on_c, 0, 28, 0
2, 330475, Note_on_c, 0, 29, 41
2, 330554, Note_on_c, 0, 53, 39
2, 330777, Note_on_c, 0, 53, 0
2, 331075, Control_c, 0, 64, 127
2, 331112, Note_on_c, 0, 29, 0
2, 331122, Note_on_c, 0, 27, 24
2, 331211, Control_c, 0, 64, 0
2, 331265, Note_on_c, 0, 50, 60
2, 331277, Note_on_c, 0, 31, 51
2, 331282, Note_on_c, 0, 27, 0
2, 331834, Note_on_c, 0, 50, 0
2, 331913, Note_on_c, 0, 52, 65
2, 331971, Note_on_c, 0, 31, 0
2, 332185, Note_on_c, 0, 33, 26
2, 332698, Note_on_c, 0, 32, 40
2, 332749, Note_on_c, 0, 32, 0
2, 332751, Note_on_c, 0, 52, 0
2, 332789, Note_on_c, 0, 31, 31
2, 332825, Note_on_c, 0, 33, 0
2, 332837, Note_on_c, 0, 53, 54
2, 332874, Note_on_c, 0, 31, 0
2, 332910, Control_c, 0, 64, 127
2, 332984, Control_c, 0, 64, 0
2, 333002, Note_on_c, 0, 53, 0
2, 333020, Note_on_c, 0, 26, 39
2, 333165, Note_on_c, 0, 54, 43
2, 333718, Note_on_c, 0, 30, 28
2, 333749, Note_on_c, 0, 54, 0
2, 333799, Note_on_c, 0, 57, 68
2, 333864, Note_on_c, 0, 26, 0
2, 333881, Note_on_c, 0, 30, 0
2, 333973, Note_on_c, 0, 31, 27
2, 334782, Note_on_c, 0, 34, 56
2, 334791, Control_c, 0, 64, 127
2, 334852, Note_on_c, 0, 31, 0
2, 334984, Control_c, 0, 64, 0
2, 335722, Note_on_c, 0, 32, 31
2, 335920, Note_on_c, 0, 34, 0
2, 335955, Note_on_c, 0, 32, 0
2, 336025, Note_on_c, 0, 36, 32
2, 336043, Note_on_c, 0, 57, 0
2, 336072, Note_on_c, 0, 55, 52
2, 336636, Note_on_c, 0, 36, 0
2, 336715, Control_c, 0, 64, 127
2, 336908, Control_c, 0, 64, 0
2, 336969, Note_on_c, 0, 43, 55
2, 337697, Note_on_c, 0, 36, 40
2, 337709, Note_on_c, 0, 43, 0
2, 337899, Note_on_c, 0, 36, 0
2, 338011, Note_on_c, 0, 39, 55
2, 338624, Control_c, 0, 64, 127
2, 338636, Note_on_c, 0, 55, 0
2, 338923, Control_c, 0, 64, 0
2, 338924, Note_on_c, 0, 51, 60
2, 339492, Note_on_c, 0, 39, 0
2, 339520, Control_c, 0, 64, 127
2, 339567, Note_on_c, 0, 46, 20
2, 339584, Note_on_c, 0, 56, 83
2, 339713, Control_c, 0, 64, 0
2, 339743, Note_on_c, 0, 39, 34
2, 339745, Note_on_c, 0, 46, 0
2, 340213, Note_on_c, 0, 56, 0
2, 340214, Note_on_c, 0, 58, 46
2, 340305, Note_on_c, 0, 51, 0
2, 340394, Note_on_c, 0, 56, 38
2, 340454, Note_on_c, 0, 58, 0
2, 340512, Note_on_c, 0, 46, 20
2, 340667, Note_on_c, 0, 55, 57
2, 340670, Note_on_c, 0, 56, 0
2, 340684, Control_c, 0, 64, 127
2, 340784, Note_on_c, 0, 55, 0
2, 340802, Control_c, 0, 64, 0
2, 340885, Note_on_c, 0, 51, 42
2, 340896, Note_on_c, 0, 58, 66
2, 340930, Note_on_c, 0, 46, 0
2, 341161, Note_on_c, 0, 39, 0
2, 341521, Note_on_c, 0, 46, 30
2, 341571, Note_on_c, 0, 51, 0
2, 341761, Note_on_c, 0, 46, 0
2, 341783, Note_on_c, 0, 58, 0
2, 341824, Note_on_c, 0, 39, 53
2, 341829, Note_on_c, 0, 56, 69
2, 342326, Note_on_c, 0, 56, 0
2, 342486, Note_on_c, 0, 49, 63
2, 342563, Control_c, 0, 64, 127
2, 342607, Control_c, 0, 64, 0
2, 342936, Control_c, 0, 64, 127
2, 343186, Note_on_c, 0, 39, 0
2, 343428, Note_on_c, 0, 39, 45
2, 343504, Note_on_c, 0, 49, 0
2, 343622, Control_c, 0, 64, 0
2, 343744, Note_on_c, 0, 52, 58
2, 343765, Note_on_c, 0, 55, 54
2, 343985, Note_on_c, 0, 52, 0
2, 343994, Control_c, 0, 64, 127
2, 344016, Note_on_c, 0, 55, 0
2, 344415, Note_on_c, 0, 58, 57
2, 344416, Note_on_c, 0, 64, 54
2, 344418, Note_on_c, 0, 55, 63
2, 344430, Note_on_c, 0, 51, 49
2, 344447, Note_on_c, 0, 61, 39
2, 344531, Control_c, 0, 64, 0
2, 345085, Note_on_c, 0, 51, 0
2, 345101, Note_on_c, 0, 46, 43
2, 345140, Note_on_c, 0, 39, 0
2, 345308, Note_on_c, 0, 64, 0
2, 345317, Note_on_c, 0, 46, 0
2, 345370, Note_on_c, 0, 55, 0
2, 345375, Note_on_c, 0, 39, 57
2, 345383, Note_on_c, 0, 58, 0
2, 345476, Note_on_c, 0, 61, 0
2, 345501, Control_c, 0, 64, 127
2, 345605, Control_c, 0, 64, 0
2, 345615, Note_on_c, 0, 39, 0
2, 345708, Note_on_c, 0, 60, 44
2, 345711, Note_on_c, 0, 63, 63
2, 345714, Note_on_c, 0, 55, 66
2, 345717, Note_on_c, 0, 39, 46
2, 345723, Note_on_c, 0, 58, 57
2, 346656, Note_on_c, 0, 51, 68
2, 346790, Note_on_c, 0, 39, 0
2, 347281, Note_on_c, 0, 51, 0
2, 347306, Note_on_c, 0, 39, 56
2, 347425, Note_on_c, 0, 39, 0
2, 347616, Note_on_c, 0, 51, 61
2, 348126, Control_c, 0, 64, 127
2, 348141, Note_on_c, 0, 51, 0
2, 348223, Note_on_c, 0, 39, 62
2, 348389, Note_on_c, 0, 39, 0
2, 348470, Control_c, 0, 64, 0
2, 348563, Note_on_c, 0, 46, 49
2, 348586, Note_on_c, 0, 44, 46
2, 348652, Note_on_c, 0, 60, 0
2, 348743, Note_on_c, 0, 55, 0
2, 348746, Note_on_c, 0, 63, 0
2, 348928, Note_on_c, 0, 58, 0
2, 349060, Note_on_c, 0, 44, 0
2, 349087, Note_on_c, 0, 46, 0
2, 349157, Note_on_c, 0, 67, 63
2, 349162, Note_on_c, 0, 59, 66
2, 349168, Note_on_c, 0, 55, 62
2, 349182, Note_on_c, 0, 45, 54
2, 349214, Note_on_c, 0, 62, 27
2, 349540, Note_on_c, 0, 62, 0
2, 349661, Note_on_c, 0, 59, 0
2, 349688, Note_on_c, 0, 67, 0
2, 349742, Note_on_c, 0, 55, 0
2, 349793, Note_on_c, 0, 62, 38
2, 349849, Note_on_c, 0, 45, 0
2, 349926, Note_on_c, 0, 59, 51
2, 350030, Note_on_c, 0, 62, 0
2, 350142, Note_on_c, 0, 59, 0
2, 350156, Note_on_c, 0, 55, 42
2, 350306, Note_on_c, 0, 55, 0
2, 350517, Note_on_c, 0, 53, 54
2, 350538, Note_on_c, 0, 31, 33
2, 351123, Note_on_c, 0, 53, 0
2, 351146, Note_on_c, 0, 50, 40
2, 351325, Note_on_c, 0, 31, 0
2, 351575, Note_on_c, 0, 35, 19
2, 351934, Note_on_c, 0, 50, 0
2, 351972, Note_on_c, 0, 47, 54
2, 352053, Note_on_c, 0, 34, 22
2, 352156, Note_on_c, 0, 47, 0
2, 352199, Note_on_c, 0, 35, 0
2, 352230, Note_on_c, 0, 53, 64
2, 352243, Note_on_c, 0, 34, 0
2, 352319, Note_on_c, 0, 38, 31
2, 352511, Note_on_c, 0, 53, 0
2, 352583, Note_on_c, 0, 50, 34
2, 352757, Note_on_c, 0, 50, 0
2, 352902, Note_on_c, 0, 51, 56
2, 353014, Note_on_c, 0, 38, 0
2, 353066, Note_on_c, 0, 51, 0
2, 353158, Note_on_c, 0, 52, 66
2, 353197, Note_on_c, 0, 35, 41
2, 353349, Note_on_c, 0, 52, 0
2, 353460, Note_on_c, 0, 53, 66
2, 353508, Note_on_c, 0, 35, 0
2, 353532, Note_on_c, 0, 36, 33
2, 353666, Note_on_c, 0, 53, 0
2, 353769, Note_on_c, 0, 51, 43
2, 353905, Note_on_c, 0, 51, 0
2, 354037, Note_on_c, 0, 52, 62
2, 354203, Note_on_c, 0, 36, 0
2, 354239, Note_on_c, 0, 52, 0
2, 354343, Note_on_c, 0, 48, 49
2, 354376, Note_on_c, 0, 43, 37
2, 354480, Note_on_c, 0, 48, 0
2, 354978, Note_on_c, 0, 42, 33
2, 355152, Note_on_c, 0, 43, 0
2, 355215, Note_on_c, 0, 42, 0
2, 355255, Note_on_c, 0, 47, 34
2, 355288, Note_on_c, 0, 62, 65
2, 355880, Note_on_c, 0, 44, 27
2, 355899, Note_on_c, 0, 62, 0
2, 355960, Note_on_c, 0, 47, 0
2, 356088, Note_on_c, 0, 44, 0
2, 356160, Note_on_c, 0, 46, 38
2, 356229, Note_on_c, 0, 60, 42
2, 356749, Note_on_c, 0, 44, 24
2, 356840, Note_on_c, 0, 46, 0
2, 356841, Note_on_c, 0, 57, 47
2, 356887, Note_on_c, 0, 60, 0
2, 356944, Note_on_c, 0, 57, 0
2, 356958, Note_on_c, 0, 44, 0
2, 356997, Note_on_c, 0, 45, 30
2, 357306, Note_on_c, 0, 71, 79
2, 357838, Control_c, 0, 64, 127
2, 357923, Note_on_c, 0, 69, 68
2, 357959, Note_on_c, 0, 45, 0
2, 358002, Control_c, 0, 64, 0
2, 358051, Note_on_c, 0, 71, 0
2, 358076, Note_on_c, 0, 33, 31
2, 358331, Note_on_c, 0, 64, 52
2, 358455, Note_on_c, 0, 69, 0
2, 358561, Note_on_c, 0, 64, 0
2, 358719, Note_on_c, 0, 37, 28
2, 358765, Note_on_c, 0, 33, 0
2, 358840, Note_on_c, 0, 60, 30
2, 359008, Note_on_c, 0, 40, 26
2, 359014, Note_on_c, 0, 37, 0
2, 359022, Note_on_c, 0, 60, 0
2, 359137, Note_on_c, 0, 57, 31
2, 359764, Note_on_c, 0, 57, 0
2, 359776, Note_on_c, 0, 37, 33
2, 359789, Note_on_c, 0, 40, 0
2, 359984, Note_on_c, 0, 37, 0
2, 360042, Note_on_c, 0, 39, 35
2, 360554, Control_c, 0, 64, 127
2, 360622, Note_on_c, 0, 37, 39
2, 360869, Note_on_c, 0, 39, 0
2, 360881, Control_c, 0, 64, 0
2, 360921, Note_on_c, 0, 37, 0
2, 360948, Note_on_c, 0, 43, 45
2, 360985, Note_on_c, 0, 62, 65
2, 360989, Note_on_c, 0, 72, 67
2, 361289, Note_on_c, 0, 72, 0
2, 361357, Note_on_c, 0, 62, 0
2, 361599, Control_c, 0, 64, 127
2, 361671, Note_on_c, 0, 69, 79
2, 361685, Note_on_c, 0, 58, 74
2, 361688, Control_c, 0, 64, 0
2, 361691, Note_on_c, 0, 62, 64
2, 361734, Note_on_c, 0, 65, 32
2, 361767, Note_on_c, 0, 43, 0
2, 361856, Note_on_c, 0, 31, 36
2, 361869, Note_on_c, 0, 69, 0
2, 361890, Note_on_c, 0, 65, 0
2, 361902, Note_on_c, 0, 62, 0
2, 362017, Note_on_c, 0, 58, 0
2, 362168, Note_on_c, 0, 65, 45
2, 362207, Note_on_c, 0, 57, 23
2, 362255, Note_on_c, 0, 62, 26
2, 362403, Note_on_c, 0, 65, 0
2, 362406, Note_on_c, 0, 62, 0
2, 362478, Control_c, 0, 64, 127
2, 362524, Note_on_c, 0, 57, 0
2, 362659, Note_on_c, 0, 62, 57
2, 362674, Note_on_c, 0, 53, 57
2, 362684, Note_on_c, 0, 58, 48
2, 362704, Note_on_c, 0, 55, 49
2, 362804, Note_on_c, 0, 43, 21
2, 362836, Control_c, 0, 64, 0
2, 363164, Note_on_c, 0, 43, 0
2, 363274, Note_on_c, 0, 31, 0
2, 363589, Note_on_c, 0, 38, 41
2, 363655, Note_on_c, 0, 38, 0
2, 363930, Note_on_c, 0, 34, 37
2, 364048, Note_on_c, 0, 55, 0
2, 364110, Note_on_c, 0, 53, 0
2, 364299, Note_on_c, 0, 62, 0
2, 364320, Note_on_c, 0, 58, 0
2, 364346, Note_on_c, 0, 34, 0
2, 364570, Note_on_c, 0, 35, 47
2, 364626, Control_c, 0, 64, 127
2, 364731, Control_c, 0, 64, 0
2, 364784, Note_on_c, 0, 35, 0
2, 364843, Note_on_c, 0, 75, 66
2, 364853, Note_on_c, 0, 68, 65
2, 364866, Note_on_c, 0, 36, 44
2, 365189, Note_on_c, 0, 75, 0
2, 365227, Note_on_c, 0, 68, 0
2, 365350, Note_on_c, 0, 73, 57
2, 365545, Note_on_c, 0, 73, 0
2, 365667, Note_on_c, 0, 72, 62
2, 365671, Note_on_c, 0, 24, 30
2, 365829, Note_on_c, 0, 72, 0
2, 365875, Note_on_c, 0, 36, 0
2, 366015, Note_on_c, 0, 70, 42
2, 366164, Note_on_c, 0, 70, 0
2, 366239, Note_on_c, 0, 31, 15
2, 366277, Note_on_c, 0, 64, 41
2, 366421, Note_on_c, 0, 64, 0
2, 366495, Note_on_c, 0, 31, 0
2, 366555, Note_on_c, 0, 63, 53
2, 366668, Note_on_c, 0, 36, 25
2, 366742, Note_on_c, 0, 63, 0
2, 366830, Note_on_c, 0, 24, 0
2, 366835, Note_on_c, 0, 61, 38
2, 367001, Note_on_c, 0, 61, 0
2, 367105, Note_on_c, 0, 60, 29
2, 367191, Note_on_c, 0, 60, 0
2, 367377, Note_on_c, 0, 58, 62
2, 367551, Note_on_c, 0, 58, 0
2, 367562, Note_on_c, 0, 24, 19
2, 367610, Note_on_c, 0, 56, 46
2, 367794, Note_on_c, 0, 56, 0
2, 367852, Note_on_c, 0, 24, 0
2, 367870, Note_on_c, 0, 52, 40
2, 368037, Note_on_c, 0, 52, 0
2, 368046, Note_on_c, 0, 36, 0
2, 368113, Note_on_c, 0, 51, 27
2, 368177, Note_on_c, 0, 51, 0
2, 368285, Note_on_c, 0, 50, 31
2, 368416, Note_on_c, 0, 50, 0
2, 368468, Note_on_c, 0, 49, 45
2, 368546, Note_on_c, 0, 40, 33
2, 368642, Note_on_c, 0, 49, 0
2, 368695, Note_on_c, 0, 48, 47
2, 368717, Note_on_c, 0, 40, 0
2, 368741, Note_on_c, 0, 41, 36
2, 369126, Note_on_c, 0, 48, 0
2, 369186, Note_on_c, 0, 50, 33
2, 369279, Note_on_c, 0, 48, 30
2, 369322, Note_on_c, 0, 50, 0
2, 369439, Note_on_c, 0, 41, 0
2, 369485, Note_on_c, 0, 47, 45
2, 369498, Note_on_c, 0, 48, 0
2, 369642, Note_on_c, 0, 47, 0
2, 369742, Note_on_c, 0, 41, 29
2, 369760, Note_on_c, 0, 48, 58
2, 370313, Note_on_c, 0, 48, 0
2, 370409, Note_on_c, 0, 53, 63
2, 370575, Note_on_c, 0, 41, 0
2, 370642, Note_on_c, 0, 38, 29
2, 371001, Note_on_c, 0, 53, 0
2, 371366, Note_on_c, 0, 42, 55
2, 371392, Note_on_c, 0, 38, 0
2, 372335, Note_on_c, 0, 39, 30
2, 372484, Note_on_c, 0, 42, 0
2, 372561, Note_on_c, 0, 39, 0
2, 372619, Note_on_c, 0, 43, 30
2, 372674, Note_on_c, 0, 55, 54
2, 372941, Note_on_c, 0, 56, 54
2, 372988, Note_on_c, 0, 55, 0
2, 373150, Note_on_c, 0, 56, 0
2, 373245, Note_on_c, 0, 57, 40
2, 373432, Note_on_c, 0, 57, 0
2, 373557, Note_on_c, 0, 62, 32
2, 373671, Note_on_c, 0, 62, 0
2, 373813, Note_on_c, 0, 38, 36
2, 373852, Note_on_c, 0, 65, 56
2, 373968, Note_on_c, 0, 43, 0
2, 373983, Note_on_c, 0, 38, 0
2, 373984, Note_on_c, 0, 65, 0
2, 374147, Note_on_c, 0, 69, 72
2, 374179, Note_on_c, 0, 36, 39
2, 374284, Note_on_c, 0, 69, 0
2, 374294, Control_c, 0, 64, 127
2, 374309, Control_c, 0, 64, 0
2, 374477, Note_on_c, 0, 64, 68
2, 374480, Note_on_c, 0, 68, 61
2, 374481, Note_on_c, 0, 72, 63
2, 374711, Control_c, 0, 64, 127
2, 374787, Control_c, 0, 64, 0
2, 374906, Control_c, 0, 64, 127
2, 375080, Note_on_c, 0, 36, 0
2, 375337, Control_c, 0, 64, 0
2, 375376, Note_on_c, 0, 46, 48
2, 375859, Control_c, 0, 64, 127
2, 375984, Note_on_c, 0, 64, 0
2, 376068, Note_on_c, 0, 46, 0
2, 376085, Note_on_c, 0, 44, 32
2, 376089, Note_on_c, 0, 72, 0
2, 376194, Note_on_c, 0, 68, 0
2, 376248, Control_c, 0, 64, 0
2, 376344, Note_on_c, 0, 44, 0
2, 376354, Note_on_c, 0, 45, 36
2, 376359, Note_on_c, 0, 72, 47
2, 376366, Note_on_c, 0, 62, 54
2, 376367, Note_on_c, 0, 67, 52
2, 376504, Note_on_c, 0, 72, 0
2, 376516, Note_on_c, 0, 67, 0
2, 376572, Note_on_c, 0, 62, 0
2, 376955, Note_on_c, 0, 45, 0
2, 376984, Note_on_c, 0, 39, 30
2, 377036, Note_on_c, 0, 67, 49
2, 377040, Note_on_c, 0, 57, 56
2, 377044, Note_on_c, 0, 60, 41
2, 377045, Note_on_c, 0, 64, 39
2, 377088, Note_on_c, 0, 65, 21
2, 377102, Control_c, 0, 64, 127
2, 377103, Note_on_c, 0, 39, 0
2, 377176, Control_c, 0, 64, 0
2, 377264, Note_on_c, 0, 41, 47
2, 377282, Note_on_c, 0, 65, 0
2, 377298, Note_on_c, 0, 64, 0
2, 377380, Note_on_c, 0, 60, 0
2, 377385, Note_on_c, 0, 67, 0
2, 377739, Note_on_c, 0, 57, 0
2, 377939, Note_on_c, 0, 41, 0
2, 378028, Note_on_c, 0, 39, 42
2, 378194, Note_on_c, 0, 39, 0
2, 378297, Note_on_c, 0, 57, 40
2, 378303, Note_on_c, 0, 38, 30
2, 378308, Note_on_c, 0, 60, 29
2, 378309, Note_on_c, 0, 62, 45
2, 378310, Note_on_c, 0, 65, 39
2, 378782, Note_on_c, 0, 65, 0
2, 378811, Note_on_c, 0, 62, 0
2, 378882, Note_on_c, 0, 60, 0
2, 378927, Control_c, 0, 64, 127
2, 378930, Note_on_c, 0, 26, 56
2, 378980, Note_on_c, 0, 57, 0
2, 379044, Note_on_c, 0, 38, 0
2, 379074, Note_on_c, 0, 26, 0
2, 379179, Control_c, 0, 64, 0
2, 379239, Note_on_c, 0, 64, 61
2, 379252, Note_on_c, 0, 62, 62
2, 379253, Note_on_c, 0, 55, 69
2, 379257, Note_on_c, 0, 58, 67
2, 379347, Note_on_c, 0, 44, 37
2, 379376, Note_on_c, 0, 46, 41
2, 379380, Note_on_c, 0, 54, 42
2, 379526, Note_on_c, 0, 44, 0
2, 379542, Note_on_c, 0, 54, 0
2, 379553, Note_on_c, 0, 46, 0
2, 379840, Control_c, 0, 64, 127
2, 379842, Note_on_c, 0, 55, 0
2, 379875, Note_on_c, 0, 43, 66
2, 379906, Note_on_c, 0, 64, 0
2, 379940, Note_on_c, 0, 58, 0
2, 380108, Control_c, 0, 64, 0
2, 380124, Note_on_c, 0, 62, 0
2, 380173, Note_on_c, 0, 64, 61
2, 380186, Note_on_c, 0, 58, 69
2, 380188, Note_on_c, 0, 62, 22
2, 380191, Note_on_c, 0, 55, 70
2, 380215, Note_on_c, 0, 53, 60
2, 380514, Note_on_c, 0, 62, 0
2, 380531, Note_on_c, 0, 64, 0
2, 380645, Control_c, 0, 64, 127
2, 380698, Note_on_c, 0, 55, 0
2, 380756, Note_on_c, 0, 53, 0
2, 380786, Note_on_c, 0, 58, 0
2, 380843, Note_on_c, 0, 50, 28
2, 380890, Note_on_c, 0, 65, 61
2, 380892, Note_on_c, 0, 58, 58
2, 380896, Note_on_c, 0, 50, 0
2, 380898, Note_on_c, 0, 62, 66
2, 380908, Note_on_c, 0, 55, 67
2, 381002, Control_c, 0, 64, 0
2, 381016, Note_on_c, 0, 53, 23
2, 381035, Note_on_c, 0, 52, 21
2, 381069, Note_on_c, 0, 53, 0
2, 381086, Note_on_c, 0, 52, 0
2, 381286, Note_on_c, 0, 48, 59
2, 381335, Note_on_c, 0, 62, 0
2, 381343, Note_on_c, 0, 65, 0
2, 381367, Note_on_c, 0, 47, 45
2, 381377, Note_on_c, 0, 43, 0
2, 381418, Note_on_c, 0, 47, 0
2, 381453, Note_on_c, 0, 58, 0
2, 381546, Note_on_c, 0, 55, 0
2, 381869, Note_on_c, 0, 62, 61
2, 381880, Note_on_c, 0, 53, 57
2, 381881, Note_on_c, 0, 58, 54
2, 381887, Note_on_c, 0, 55, 54
2, 382276, Note_on_c, 0, 53, 0
2, 382286, Control_c, 0, 64, 127
2, 382343, Note_on_c, 0, 55, 0
2, 382408, Note_on_c, 0, 58, 0
2, 382438, Note_on_c, 0, 62, 0
2, 382856, Note_on_c, 0, 36, 49
2, 382904, Note_on_c, 0, 48, 0
2, 383061, Control_c, 0, 64, 0
2, 383143, Note_on_c, 0, 70, 57
2, 383156, Note_on_c, 0, 58, 68
2, 383158, Note_on_c, 0, 63, 62
2, 383169, Note_on_c, 0, 48, 46
2, 383188, Note_on_c, 0, 67, 42
2, 383421, Note_on_c, 0, 67, 0
2, 383656, Note_on_c, 0, 70, 0
2, 383658, Note_on_c, 0, 58, 0
2, 383698, Note_on_c, 0, 63, 0
2, 383747, Control_c, 0, 64, 127
2, 383831, Note_on_c, 0, 43, 34
2, 383987, Control_c, 0, 64, 0
2, 384039, Note_on_c, 0, 43, 0
2, 384072, Note_on_c, 0, 69, 58
2, 384075, Note_on_c, 0, 36, 0
2, 384078, Note_on_c, 0, 65, 62
2, 384084, Note_on_c, 0, 62, 66
2, 384089, Note_on_c, 0, 74, 63
2, 384225, Note_on_c, 0, 48, 0
2, 384716, Note_on_c, 0, 48, 70
2, 384738, Note_on_c, 0, 47, 60
2, 384814, Note_on_c, 0, 47, 0
2, 384935, Note_on_c, 0, 74, 0
2, 384964, Note_on_c, 0, 62, 0
2, 385085, Note_on_c, 0, 69, 0
2, 385095, Note_on_c, 0, 62, 10
2, 385111, Note_on_c, 0, 65, 0
2, 385259, Note_on_c, 0, 62, 0
2, 385418, Control_c, 0, 64, 127
2, 385597, Note_on_c, 0, 47, 39
2, 385624, Note_on_c, 0, 61, 70
2, 385627, Note_on_c, 0, 69, 67
2, 385630, Note_on_c, 0, 57, 63
2, 385641, Control_c, 0, 64, 0
2, 385667, Note_on_c, 0, 47, 0
2, 386104, Note_on_c, 0, 61, 0
2, 386177, Note_on_c, 0, 57, 0
2, 386200, Note_on_c, 0, 69, 0
2, 386237, Note_on_c, 0, 64, 34
2, 386347, Note_on_c, 0, 61, 51
2, 386393, Note_on_c, 0, 64, 0
2, 386493, Note_on_c, 0, 57, 30
2, 386568, Note_on_c, 0, 57, 0
2, 386571, Note_on_c, 0, 61, 0
2, 386671, Note_on_c, 0, 67, 64
2, 386695, Note_on_c, 0, 62, 66
2, 386879, Note_on_c, 0, 48, 0
2, 386908, Note_on_c, 0, 62, 0
2, 386914, Note_on_c, 0, 67, 0
2, 387135, Note_on_c, 0, 65, 61
2, 387141, Note_on_c, 0, 48, 29
2, 387150, Note_on_c, 0, 62, 49
2, 387335, Note_on_c, 0, 62, 0
2, 387353, Note_on_c, 0, 65, 0
2, 387417, Note_on_c, 0, 57, 41
2, 387598, Note_on_c, 0, 57, 0
2, 387841, Note_on_c, 0, 46, 26
2, 387945, Note_on_c, 0, 48, 0
2, 388016, Note_on_c, 0, 46, 0
2, 388075, Note_on_c, 0, 62, 57
2, 388080, Note_on_c, 0, 53, 40
2, 388088, Note_on_c, 0, 58, 44
2, 388173, Note_on_c, 0, 43, 32
2, 388760, Control_c, 0, 64, 127
2, 388909, Control_c, 0, 64, 0
2, 388911, Note_on_c, 0, 43, 0
2, 388989, Note_on_c, 0, 48, 35
2, 389259, Note_on_c, 0, 53, 0
2, 389297, Note_on_c, 0, 58, 0
2, 389425, Note_on_c, 0, 43, 24
2, 389492, Note_on_c, 0, 62, 0
2, 389563, Note_on_c, 0, 64, 49
2, 389568, Note_on_c, 0, 56, 58
2, 389574, Note_on_c, 0, 60, 28
2, 389576, Note_on_c, 0, 43, 0
2, 389581, Note_on_c, 0, 52, 48
2, 389695, Note_on_c, 0, 36, 24
2, 390164, Note_on_c, 0, 48, 0
2, 390337, Note_on_c, 0, 52, 0
2, 390431, Control_c, 0, 64, 127
2, 390492, Note_on_c, 0, 60, 0
2, 390522, Note_on_c, 0, 48, 55
2, 390659, Note_on_c, 0, 56, 0
2, 390695, Note_on_c, 0, 64, 0
2, 390714, Note_on_c, 0, 36, 0
2, 390759, Control_c, 0, 64, 0
2, 390838, Note_on_c, 0, 60, 22
2, 391207, Control_c, 0, 64, 127
2, 391285, Note_on_c, 0, 60, 0
2, 391336, Note_on_c, 0, 48, 0
2, 391428, Note_on_c, 0, 62, 56
2, 391431, Note_on_c, 0, 41, 44
2, 391443, Note_on_c, 0, 57, 40
2, 391448, Control_c, 0, 64, 0
2, 391455, Note_on_c, 0, 53, 29
2, 391488, Note_on_c, 0, 55, 27
2, 391515, Note_on_c, 0, 48, 36
2, 391546, Note_on_c, 0, 55, 0
2, 391774, Control_c, 0, 64, 127
2, 391779, Note_on_c, 0, 53, 0
2, 391960, Note_on_c, 0, 57, 0
2, 392288, Note_on_c, 0, 62, 0
2, 392381, Note_on_c, 0, 61, 52
2, 392384, Note_on_c, 0, 64, 44
2, 392387, Note_on_c, 0, 48, 0
2, 392387, Note_on_c, 0, 49, 60
2, 392390, Note_on_c, 0, 55, 51
2, 392394, Note_on_c, 0, 58, 45
2, 392445, Control_c, 0, 64, 0
2, 392788, Control_c, 0, 64, 127
2, 393285, Note_on_c, 0, 64, 0
2, 393321, Note_on_c, 0, 55, 0
2, 393334, Note_on_c, 0, 58, 0
2, 393480, Note_on_c, 0, 61, 0
2, 393519, Note_on_c, 0, 49, 0
2, 393525, Note_on_c, 0, 48, 29
2, 393653, Control_c, 0, 64, 0
2, 393656, Note_on_c, 0, 50, 41
2, 393662, Note_on_c, 0, 60, 36
2, 393666, Note_on_c, 0, 57, 45
2, 393668, Note_on_c, 0, 48, 0
2, 393669, Note_on_c, 0, 65, 53
2, 393730, Note_on_c, 0, 41, 0
2, 394132, Note_on_c, 0, 65, 0
2, 394224, Control_c, 0, 64, 127
2, 394303, Note_on_c, 0, 60, 0
2, 394314, Note_on_c, 0, 57, 0
2, 394596, Control_c, 0, 64, 0
2, 394629, Note_on_c, 0, 57, 45
2, 394636, Note_on_c, 0, 51, 39
2, 394639, Note_on_c, 0, 63, 46
2, 394641, Note_on_c, 0, 66, 47
2, 394657, Note_on_c, 0, 60, 26
2, 394731, Note_on_c, 0, 50, 0
2, 394830, Note_on_c, 0, 51, 0
2, 395010, Note_on_c, 0, 60, 0
2, 395055, Note_on_c, 0, 48, 22
2, 395115, Note_on_c, 0, 57, 0
2, 395119, Note_on_c, 0, 66, 0
2, 395146, Note_on_c, 0, 48, 0
2, 395147, Note_on_c, 0, 51, 32
2, 395176, Note_on_c, 0, 50, 32
2, 395177, Note_on_c, 0, 63, 0
2, 395320, Note_on_c, 0, 50, 0
2, 395330, Note_on_c, 0, 53, 32
2, 395346, Control_c, 0, 64, 127
2, 395415, Note_on_c, 0, 51, 0
2, 395538, Note_on_c, 0, 53, 0
2, 395598, Note_on_c, 0, 55, 39
2, 395645, Control_c, 0, 64, 0
2, 395688, Note_on_c, 0, 58, 55
2, 395693, Note_on_c, 0, 69, 62
2, 395702, Note_on_c, 0, 62, 55
2, 395719, Note_on_c, 0, 57, 61
2, 395726, Note_on_c, 0, 65, 43
2, 395790, Note_on_c, 0, 55, 0
2, 396108, Control_c, 0, 64, 127
2, 396183, Control_c, 0, 64, 0
2, 396257, Control_c, 0, 64, 127
2, 396527, Note_on_c, 0, 57, 0
2, 396569, Control_c, 0, 64, 0
2, 396638, Note_on_c, 0, 54, 27
2, 396809, Note_on_c, 0, 62, 0
2, 396830, Note_on_c, 0, 65, 0
2, 396853, Note_on_c, 0, 69, 0
2, 396883, Control_c, 0, 64, 127
2, 397078, Note_on_c, 0, 58, 0
2, 397267, Note_on_c, 0, 58, 22
2, 397275, Note_on_c, 0, 61, 35
2, 397276, Note_on_c, 0, 67, 41
2, 397288, Note_on_c, 0, 55, 32
2, 397302, Control_c, 0, 64, 0
2, 397303, Note_on_c, 0, 64, 27
2, 397314, Note_on_c, 0, 54, 0
2, 397489, Note_on_c, 0, 58, 0
2, 397561, Note_on_c, 0, 64, 0
2, 397569, Control_c, 0, 64, 127
2, 397571, Note_on_c, 0, 61, 0
2, 397586, Note_on_c, 0, 67, 0
2, 397922, Note_on_c, 0, 62, 54
2, 398042, Note_on_c, 0, 62, 0
2, 398196, Control_c, 0, 64, 0
2, 398206, Note_on_c, 0, 67, 63
2, 398359, Note_on_c, 0, 67, 0
2, 398526, Note_on_c, 0, 70, 63
2, 398563, Note_on_c, 0, 55, 0
2, 398751, Note_on_c, 0, 70, 0
2, 398825, Note_on_c, 0, 74, 62
2, 398854, Control_c, 0, 64, 127
2, 399003, Control_c, 0, 64, 0
2, 399007, Note_on_c, 0, 74, 0
2, 399111, Note_on_c, 0, 72, 54
2, 399450, Note_on_c, 0, 72, 0
2, 399456, Note_on_c, 0, 48, 37
2, 399464, Note_on_c, 0, 67, 39
2, 399585, Note_on_c, 0, 67, 0
2, 399752, Note_on_c, 0, 65, 51
2, 399880, Note_on_c, 0, 65, 0
2, 400102, Note_on_c, 0, 63, 45
2, 400209, Note_on_c, 0, 63, 0
2, 400374, Note_on_c, 0, 48, 0
2, 400401, Note_on_c, 0, 59, 27
2, 400422, Note_on_c, 0, 43, 23
2, 400572, Note_on_c, 0, 59, 0
2, 400736, Note_on_c, 0, 57, 30
2, 400841, Note_on_c, 0, 57, 0
2, 400975, Note_on_c, 0, 65, 60
2, 401190, Note_on_c, 0, 65, 0
2, 401299, Note_on_c, 0, 63, 54
2, 401300, Note_on_c, 0, 43, 0
2, 401321, Note_on_c, 0, 39, 31
2, 402002, Note_on_c, 0, 63, 0
2, 402225, Note_on_c, 0, 39, 0
2, 402231, Note_on_c, 0, 60, 25
2, 402248, Note_on_c, 0, 36, 35
2, 402907, Note_on_c, 0, 36, 0
2, 402948, Note_on_c, 0, 39, 41
2, 403169, Note_on_c, 0, 60, 0
2, 403173, Note_on_c, 0, 39, 0
2, 403251, Note_on_c, 0, 41, 45
2, 403872, Note_on_c, 0, 29, 42
2, 404026, Note_on_c, 0, 41, 0
2, 404148, Note_on_c, 0, 59, 42
2, 404206, Note_on_c, 0, 41, 12
2, 404300, Note_on_c, 0, 60, 43
2, 404338, Note_on_c, 0, 59, 0
2, 404371, Note_on_c, 0, 41, 0
2, 404610, Note_on_c, 0, 60, 0
2, 404746, Note_on_c, 0, 29, 0
2, 404869, Note_on_c, 0, 33, 55
2, 404877, Note_on_c, 0, 63, 74
2, 405090, Note_on_c, 0, 63, 0
2, 405507, Note_on_c, 0, 58, 38
2, 405554, Note_on_c, 0, 57, 33
2, 405837, Note_on_c, 0, 57, 0
2, 405966, Note_on_c, 0, 58, 0
2, 406181, Note_on_c, 0, 41, 36
2, 406184, Note_on_c, 0, 57, 31
2, 406691, Note_on_c, 0, 57, 0
2, 406727, Note_on_c, 0, 33, 0
2, 406743, Note_on_c, 0, 41, 0
2, 406784, Note_on_c, 0, 34, 50
2, 406798, Note_on_c, 0, 62, 68
2, 407534, Note_on_c, 0, 39, 18
2, 407564, Note_on_c, 0, 38, 27
2, 407619, Note_on_c, 0, 38, 0
2, 407655, Note_on_c, 0, 34, 0
2, 407691, Note_on_c, 0, 39, 0
2, 407817, Note_on_c, 0, 40, 56
2, 408098, Note_on_c, 0, 40, 0
2, 408179, Note_on_c, 0, 41, 44
2, 408562, Note_on_c, 0, 62, 0
2, 408848, Control_c, 0, 64, 127
2, 409101, Control_c, 0, 64, 0
2, 409518, Note_on_c, 0, 57, 42
2, 409651, Note_on_c, 0, 57, 0
2, 409772, Control_c, 0, 64, 127
2, 409794, Note_on_c, 0, 62, 63
2, 409908, Control_c, 0, 64, 0
2, 409967, Note_on_c, 0, 62, 0
2, 410076, Note_on_c, 0, 66, 63
2, 410101, Note_on_c, 0, 62, 44
2, 410161, Note_on_c, 0, 62, 0
2, 410182, Note_on_c, 0, 41, 0
2, 410366, Note_on_c, 0, 66, 0
2, 410377, Note_on_c, 0, 69, 63
2, 410520, Note_on_c, 0, 69, 0
2, 410594, Control_c, 0, 64, 127
2, 410675, Note_on_c, 0, 72, 72
2, 410863, Note_on_c, 0, 72, 0
2, 410951, Control_c, 0, 64, 0
2, 410982, Note_on_c, 0, 70, 63
2, 411001, Note_on_c, 0, 65, 45
2, 411004, Note_on_c, 0, 57, 42
2, 411007, Note_on_c, 0, 61, 39
2, 411399, Control_c, 0, 64, 127
2, 411698, Note_on_c, 0, 57, 0
2, 411713, Note_on_c, 0, 61, 0
2, 411753, Note_on_c, 0, 65, 0
2, 411763, Note_on_c, 0, 70, 0
2, 411862, Control_c, 0, 64, 0
2, 411881, Note_on_c, 0, 61, 35
2, 411899, Note_on_c, 0, 55, 37
2, 411911, Note_on_c, 0, 65, 42
2, 411912, Note_on_c, 0, 69, 48
2, 412144, Control_c, 0, 64, 127
2, 412237, Note_on_c, 0, 69, 0
2, 412302, Note_on_c, 0, 65, 0
2, 412304, Note_on_c, 0, 61, 0
2, 412506, Note_on_c, 0, 55, 0
2, 412802, Control_c, 0, 64, 0
2, 412848, Note_on_c, 0, 67, 45
2, 412861, Note_on_c, 0, 61, 49
2, 412866, Note_on_c, 0, 55, 42
2, 412888, Note_on_c, 0, 51, 33
2, 413055, Control_c, 0, 64, 127
2, 413317, Note_on_c, 0, 67, 0
2, 413471, Note_on_c, 0, 61, 0
2, 413480, Note_on_c, 0, 55, 0
2, 413742, Note_on_c, 0, 51, 0
2, 413786, Control_c, 0, 64, 0
2, 413803, Note_on_c, 0, 55, 37
2, 413809, Note_on_c, 0, 46, 31
2, 413818, Note_on_c, 0, 63, 27
2, 413860, Note_on_c, 0, 60, 21
2, 414070, Control_c, 0, 64, 127
2, 414171, Note_on_c, 0, 55, 0
2, 414283, Note_on_c, 0, 46, 0
2, 414375, Note_on_c, 0, 60, 0
2, 414800, Control_c, 0, 64, 0
2, 414821, Note_on_c, 0, 53, 30
2, 414838, Note_on_c, 0, 60, 31
2, 414839, Note_on_c, 0, 63, 0
2, 414846, Note_on_c, 0, 45, 24
2, 415156, Note_on_c, 0, 60, 0
2, 415236, Note_on_c, 0, 62, 42
2, 415306, Note_on_c, 0, 60, 27
2, 415404, Note_on_c, 0, 62, 0
2, 415493, Note_on_c, 0, 53, 0
2, 415535, Note_on_c, 0, 60, 0
2, 415543, Note_on_c, 0, 59, 21
2, 415724, Note_on_c, 0, 59, 0
2, 415843, Note_on_c, 0, 60, 42
2, 416013, Note_on_c, 0, 60, 0
2, 416202, Note_on_c, 0, 62, 66
2, 416418, Note_on_c, 0, 62, 0
2, 416494, Note_on_c, 0, 45, 0
2, 416501, Note_on_c, 0, 65, 64
2, 416642, Note_on_c, 0, 65, 0
2, 416790, Note_on_c, 0, 68, 47
2, 416803, Note_on_c, 0, 53, 34
2, 416831, Note_on_c, 0, 44, 26
2, 417046, Note_on_c, 0, 68, 0
2, 417089, Note_on_c, 0, 71, 56
2, 417218, Note_on_c, 0, 71, 0
2, 417333, Note_on_c, 0, 53, 0
2, 417388, Note_on_c, 0, 76, 86
2, 417488, Note_on_c, 0, 53, 11
2, 417632, Note_on_c, 0, 76, 0
2, 417741, Note_on_c, 0, 74, 47
2, 417888, Note_on_c, 0, 74, 0
2, 418030, Note_on_c, 0, 44, 0
2, 418055, Note_on_c, 0, 68, 41
2, 418273, Note_on_c, 0, 68, 0
2, 418348, Note_on_c, 0, 65, 51
2, 418355, Note_on_c, 0, 44, 30
2, 418471, Note_on_c, 0, 65, 0
2, 418485, Control_c, 0, 64, 127
2, 418559, Control_c, 0, 64, 0
2, 418674, Note_on_c, 0, 44, 0
2, 418718, Note_on_c, 0, 43, 30
2, 419069, Note_on_c, 0, 57, 21
2, 419162, Note_on_c, 0, 57, 0
2, 419281, Note_on_c, 0, 53, 0
2, 419327, Note_on_c, 0, 65, 72
2, 419380, Note_on_c, 0, 58, 57
2, 419501, Note_on_c, 0, 53, 19
2, 419609, Note_on_c, 0, 65, 0
2, 419665, Note_on_c, 0, 53, 0
2, 419723, Note_on_c, 0, 62, 59
2, 419797, Control_c, 0, 64, 127
2, 419876, Note_on_c, 0, 43, 0
2, 420186, Note_on_c, 0, 62, 0
2, 420273, Note_on_c, 0, 58, 0
2, 420292, Note_on_c, 0, 43, 21
2, 420300, Note_on_c, 0, 57, 26
2, 420501, Note_on_c, 0, 57, 0
2, 420547, Note_on_c, 0, 43, 0
2, 420559, Control_c, 0, 64, 0
2, 420599, Note_on_c, 0, 48, 21
2, 420633, Note_on_c, 0, 64, 40
2, 420647, Note_on_c, 0, 36, 27
2, 420667, Note_on_c, 0, 58, 29
2, 420697, Note_on_c, 0, 55, 27
2, 421185, Control_c, 0, 64, 127
2, 421187, Note_on_c, 0, 43, 19
2, 421201, Note_on_c, 0, 58, 0
2, 421269, Note_on_c, 0, 55, 0
2, 421583, Note_on_c, 0, 58, 34
2, 421611, Note_on_c, 0, 55, 16
2, 421650, Note_on_c, 0, 36, 0
2, 421657, Note_on_c, 0, 43, 0
2, 421760, Note_on_c, 0, 48, 0
2, 422353, Note_on_c, 0, 64, 0
2, 422423, Note_on_c, 0, 55, 0
2, 422446, Note_on_c, 0, 58, 0
2, 422467, Note_on_c, 0, 41, 28
2, 422471, Note_on_c, 0, 40, 38
2, 422498, Control_c, 0, 64, 0
2, 422611, Note_on_c, 0, 40, 0
2, 422968, Note_on_c, 0, 59, 27
2, 422999, Note_on_c, 0, 57, 32
2, 423020, Note_on_c, 0, 55, 27
2, 423251, Note_on_c, 0, 57, 0
2, 423257, Note_on_c, 0, 53, 26
2, 423274, Note_on_c, 0, 55, 0
2, 423361, Note_on_c, 0, 59, 0
2, 423708, Note_on_c, 0, 53, 0
2, 423792, Note_on_c, 0, 41, 0
2, 423926, Note_on_c, 0, 36, 53
2, 424395, Note_on_c, 0, 59, 30
2, 424430, Note_on_c, 0, 57, 27
2, 424563, Note_on_c, 0, 59, 0
2, 424586, Note_on_c, 0, 57, 0
2, 424877, Note_on_c, 0, 29, 31
2, 424887, Note_on_c, 0, 36, 0
2, 425315, Note_on_c, 0, 53, 31
2, 425337, Note_on_c, 0, 55, 27
2, 425338, Note_on_c, 0, 59, 29
2, 425429, Note_on_c, 0, 53, 0
2, 425440, Note_on_c, 0, 55, 0
2, 425515, Note_on_c, 0, 59, 0
2, 425761, Note_on_c, 0, 29, 0
2, 425777, Note_on_c, 0, 36, 37
2, 425889, Note_on_c, 0, 36, 0
2, 426212, Note_on_c, 0, 53, 40
2, 426252, Note_on_c, 0, 58, 44
2, 426256, Note_on_c, 0, 43, 29
2, 426258, Note_on_c, 0, 62, 31
2, 426511, Note_on_c, 0, 53, 0
2, 426675, Note_on_c, 0, 58, 0
2, 426773, Note_on_c, 0, 62, 0
2, 426901, Note_on_c, 0, 62, 13
2, 426931, Note_on_c, 0, 60, 27
2, 426992, Note_on_c, 0, 58, 29
2, 427021, Note_on_c, 0, 55, 39
2, 427070, Note_on_c, 0, 62, 0
2, 427108, Note_on_c, 0, 43, 0
2, 427222, Note_on_c, 0, 53, 13
2, 427240, Note_on_c, 0, 60, 0
2, 427295, Note_on_c, 0, 55, 0
2, 427345, Note_on_c, 0, 58, 0
2, 427389, Note_on_c, 0, 53, 0
2, 427733, Note_on_c, 0, 56, 50
2, 427739, Note_on_c, 0, 64, 43
2, 427740, Note_on_c, 0, 60, 29
2, 427741, Note_on_c, 0, 48, 34
2, 427770, Note_on_c, 0, 52, 27
2, 428289, Note_on_c, 0, 60, 0
2, 428490, Note_on_c, 0, 52, 0
2, 428497, Note_on_c, 0, 56, 0
2, 428549, Note_on_c, 0, 64, 0
2, 428670, Note_on_c, 0, 60, 27
2, 428673, Note_on_c, 0, 56, 23
2, 428716, Note_on_c, 0, 52, 24
2, 428838, Control_c, 0, 64, 127
2, 428870, Note_on_c, 0, 60, 0
2, 428872, Note_on_c, 0, 52, 0
2, 428926, Note_on_c, 0, 56, 0
2, 428987, Control_c, 0, 64, 0
2, 429104, Note_on_c, 0, 36, 21
2, 429325, Note_on_c, 0, 36, 0
2, 429608, Note_on_c, 0, 36, 23
2, 429822, Note_on_c, 0, 36, 0
2, 430058, Note_on_c, 0, 41, 34
2, 430133, Note_on_c, 0, 48, 0
2, 430520, Note_on_c, 0, 62, 55
2, 430529, Note_on_c, 0, 71, 45
2, 430551, Note_on_c, 0, 67, 38
2, 430767, Note_on_c, 0, 62, 0
2, 430812, Note_on_c, 0, 71, 0
2, 430860, Note_on_c, 0, 67, 0
2, 431024, Note_on_c, 0, 60, 21
2, 431042, Note_on_c, 0, 69, 24
2, 431048, Note_on_c, 0, 65, 17
2, 431231, Note_on_c, 0, 60, 0
2, 431264, Note_on_c, 0, 65, 0
2, 431298, Note_on_c, 0, 69, 0
2, 431539, Note_on_c, 0, 48, 34
2, 431548, Note_on_c, 0, 71, 45
2, 431549, Note_on_c, 0, 62, 52
2, 431563, Note_on_c, 0, 67, 41
2, 431941, Control_c, 0, 64, 127
2, 431969, Note_on_c, 0, 41, 0
2, 432136, Control_c, 0, 64, 0
2, 432177, Note_on_c, 0, 71, 0
2, 432211, Note_on_c, 0, 62, 0
2, 432225, Control_c, 0, 64, 127
2, 432228, Note_on_c, 0, 67, 0
2, 432465, Note_on_c, 0, 62, 49
2, 432465, Note_on_c, 0, 71, 44
2, 432499, Note_on_c, 0, 67, 35
2, 432696, Note_on_c, 0, 62, 0
2, 432726, Note_on_c, 0, 67, 0
2, 432763, Note_on_c, 0, 71, 0
2, 432866, Control_c, 0, 64, 0
2, 432951, Note_on_c, 0, 36, 30
2, 432966, Note_on_c, 0, 69, 36
2, 432973, Note_on_c, 0, 60, 21
2, 432975, Note_on_c, 0, 65, 27
2, 433166, Note_on_c, 0, 36, 0
2, 433193, Note_on_c, 0, 65, 0
2, 433198, Note_on_c, 0, 60, 0
2, 433283, Note_on_c, 0, 69, 0
2, 433497, Note_on_c, 0, 36, 26
2, 433810, Note_on_c, 0, 36, 0
2, 433841, Note_on_c, 0, 48, 0
2, 433940, Note_on_c, 0, 43, 28
2, 433948, Note_on_c, 0, 70, 44
2, 433956, Control_c, 0, 64, 127
2, 433959, Note_on_c, 0, 67, 34
2, 433965, Note_on_c, 0, 62, 35
2, 434060, Control_c, 0, 64, 0
2, 434298, Control_c, 0, 64, 127
2, 434469, Note_on_c, 0, 67, 0
2, 434472, Note_on_c, 0, 62, 0
2, 434543, Note_on_c, 0, 70, 0
2, 434835, Control_c, 0, 64, 0
2, 434937, Note_on_c, 0, 70, 33
2, 434942, Note_on_c, 0, 62, 41
2, 434968, Note_on_c, 0, 67, 28
2, 435059, Control_c, 0, 64, 127
2, 435073, Note_on_c, 0, 62, 0
2, 435210, Note_on_c, 0, 70, 0
2, 435269, Note_on_c, 0, 67, 0
2, 435466, Note_on_c, 0, 69, 39
2, 435473, Note_on_c, 0, 64, 38
2, 435495, Note_on_c, 0, 48, 28
2, 435508, Control_c, 0, 64, 0
2, 435512, Note_on_c, 0, 61, 18
2, 435674, Note_on_c, 0, 64, 0
2, 435680, Note_on_c, 0, 69, 0
2, 435698, Note_on_c, 0, 61, 0
2, 435879, Control_c, 0, 64, 127
2, 435948, Note_on_c, 0, 48, 0
2, 436372, Note_on_c, 0, 58, 46
2, 436377, Note_on_c, 0, 67, 43
2, 436380, Note_on_c, 0, 64, 41
2, 436402, Control_c, 0, 64, 0
2, 436411, Note_on_c, 0, 48, 25
2, 436519, Note_on_c, 0, 43, 0
2, 436873, Note_on_c, 0, 36, 27
2, 437001, Note_on_c, 0, 36, 0
2, 437351, Note_on_c, 0, 36, 34
2, 437541, Note_on_c, 0, 36, 0
2, 437649, Note_on_c, 0, 58, 0
2, 437650, Note_on_c, 0, 64, 0
2, 437659, Note_on_c, 0, 67, 0
2, 437766, Note_on_c, 0, 48, 0
2, 437797, Note_on_c, 0, 41, 61
2, 438315, Note_on_c, 0, 71, 76
2, 438317, Note_on_c, 0, 67, 78
2, 438320, Note_on_c, 0, 62, 82
2, 438348, Note_on_c, 0, 64, 52
2, 438357, Note_on_c, 0, 66, 33
2, 438397, Note_on_c, 0, 64, 0
2, 438407, Note_on_c, 0, 66, 0
2, 438540, Note_on_c, 0, 62, 0
2, 438589, Note_on_c, 0, 71, 0
2, 438607, Note_on_c, 0, 67, 0
2, 438774, Note_on_c, 0, 60, 25
2, 438784, Note_on_c, 0, 69, 29
2, 438983, Note_on_c, 0, 60, 0
2, 439049, Note_on_c, 0, 69, 0
2, 439297, Note_on_c, 0, 48, 35
2, 439306, Note_on_c, 0, 62, 54
2, 439312, Note_on_c, 0, 71, 42
2, 439315, Note_on_c, 0, 67, 44
2, 439744, Control_c, 0, 64, 127
2, 439805, Note_on_c, 0, 48, 0
2, 439831, Note_on_c, 0, 67, 0
2, 439879, Note_on_c, 0, 62, 0
2, 439906, Note_on_c, 0, 71, 0
2, 440202, Note_on_c, 0, 62, 47
2, 440220, Note_on_c, 0, 71, 36
2, 440235, Note_on_c, 0, 48, 27
2, 440238, Note_on_c, 0, 67, 36
2, 440415, Note_on_c, 0, 41, 0
2, 440448, Note_on_c, 0, 62, 0
2, 440466, Note_on_c, 0, 67, 0
2, 440483, Note_on_c, 0, 71, 0
2, 440593, Control_c, 0, 64, 0
2, 440687, Note_on_c, 0, 60, 19
2, 440692, Note_on_c, 0, 69, 30
2, 440695, Note_on_c, 0, 65, 29
2, 440782, Note_on_c, 0, 60, 0
2, 440785, Note_on_c, 0, 65, 0
2, 440817, Note_on_c, 0, 69, 0
2, 441175, Note_on_c, 0, 36, 31
2, 441279, Control_c, 0, 64, 127
2, 441445, Note_on_c, 0, 36, 0
2, 441626, Note_on_c, 0, 48, 0
2, 441668, Control_c, 0, 64, 0
2, 441699, Note_on_c, 0, 43, 54
2, 442161, Note_on_c, 0, 69, 63
2, 442211, Note_on_c, 0, 65, 39
2, 442385, Note_on_c, 0, 69, 0
2, 442420, Note_on_c, 0, 65, 0
2, 442430, Note_on_c, 0, 60, 17
2, 442562, Note_on_c, 0, 60, 0
2, 442732, Note_on_c, 0, 67, 37
2, 442755, Note_on_c, 0, 64, 34
2, 442906, Note_on_c, 0, 58, 24
2, 442930, Note_on_c, 0, 67, 0
2, 442937, Note_on_c, 0, 64, 0
2, 443145, Note_on_c, 0, 58, 0
2, 443543, Note_on_c, 0, 48, 49
2, 443674, Note_on_c, 0, 43, 0
2, 444011, Note_on_c, 0, 64, 57
2, 444048, Note_on_c, 0, 56, 28
2, 444105, Note_on_c, 0, 56, 0
2, 444197, Note_on_c, 0, 62, 45
2, 444249, Note_on_c, 0, 60, 32
2, 444261, Note_on_c, 0, 64, 0
2, 444345, Note_on_c, 0, 62, 0
2, 444459, Note_on_c, 0, 56, 33
2, 444462, Note_on_c, 0, 60, 0
2, 444582, Note_on_c, 0, 36, 32
2, 444589, Note_on_c, 0, 56, 0
2, 444709, Note_on_c, 0, 62, 52
2, 444752, Note_on_c, 0, 58, 42
2, 444951, Note_on_c, 0, 62, 0
2, 444986, Note_on_c, 0, 58, 0
2, 445203, Note_on_c, 0, 43, 26
2, 445281, Note_on_c, 0, 36, 0
2, 445367, Note_on_c, 0, 48, 0
2, 445492, Note_on_c, 0, 62, 52
2, 445517, Note_on_c, 0, 41, 38
2, 445541, Note_on_c, 0, 43, 0
2, 445718, Note_on_c, 0, 62, 0
2, 445889, Note_on_c, 0, 60, 42
2, 446120, Note_on_c, 0, 60, 0
2, 446297, Note_on_c, 0, 57, 45
2, 446469, Note_on_c, 0, 57, 0
2, 446541, Note_on_c, 0, 53, 38
2, 446748, Note_on_c, 0, 53, 0
2, 446962, Note_on_c, 0, 48, 38
2, 447143, Note_on_c, 0, 48, 0
2, 447446, Note_on_c, 0, 48, 33
2, 447524, Note_on_c, 0, 41, 0
2, 447965, Note_on_c, 0, 36, 39
2, 448404, Note_on_c, 0, 55, 32
2, 448431, Note_on_c, 0, 59, 30
2, 448512, Note_on_c, 0, 55, 0
2, 448573, Note_on_c, 0, 36, 0
2, 448576, Note_on_c, 0, 59, 0
2, 448882, Note_on_c, 0, 36, 32
2, 449243, Note_on_c, 0, 36, 0
2, 449306, Note_on_c, 0, 48, 0
2, 449355, Note_on_c, 0, 43, 36
2, 450244, Note_on_c, 0, 67, 54
2, 450362, Note_on_c, 0, 67, 0
2, 450497, Note_on_c, 0, 65, 40
2, 450711, Note_on_c, 0, 65, 0
2, 451291, Note_on_c, 0, 48, 34
2, 451438, Note_on_c, 0, 43, 0
2, 452249, Note_on_c, 0, 36, 24
2, 452390, Note_on_c, 0, 36, 0
2, 452673, Note_on_c, 0, 36, 21
2, 452987, Note_on_c, 0, 36, 0
2, 453161, Note_on_c, 0, 41, 37
2, 453168, Note_on_c, 0, 48, 0
2, 453566, Note_on_c, 0, 41, 0
2, 453566, End_track
3, 0, Start_track
3, 0, Title_t, "MIDI 2"
3, 0, End_track
0, 0, End_of_file
