0, 0, Header, 1, 6, 960
1, 0, Start_track
1, 0, Title_t, "'Look For the Silver Lining'"
1, 0, Text_t, "dougmck@pipeline.com.au\012"
1, 0, Time_signature, 4, 2, 24, 8
1, 0, Key_signature, 1, "major"
1, 0, Tempo, 375000
1, 5684, Marker_t, "Red Garland voicings - RH octaves with perfect 5th btwn"
1, 7816, Marker_t, "- while LHand plays rootless voicings phrased with the RH"
1, 71647, Marker_t, "Oscar Peterson-like LH pedal (with grace notes) on dominant"
1, 81682, Marker_t, "More of the Red Garland  'like a bigband horn section' sound"
1, 90155, Marker_t, "Block chords - in close position - LH doubles melody below chord with RH"
1, 97856, Marker_t, "More Red Garland!"
1, 118593, Marker_t, "Another Peterson-like pedal on dominant in LH - often on turnarounds"
1, 127221, Marker_t, "RH single note lines - LH stabs ahead of the downbeats on 1 and 3"
1, 274168, Marker_t, "Tremolo on Octave - 16th notes"
1, 280724, Marker_t, "On Am7/D7 fast chromatic from D up to tritone (Ab) "
1, 282429, Marker_t, "Then back to F and chromatically up to B (its tritone) as target"
1, 344722, Marker_t, "On Bbdim, similar chromatic connections to C,F#,Eb,A"
1, 366663, Marker_t, "Not very successful tag ending added as an afterthought!"
1, 366663, End_track
2, 0, Start_track
2, 0, Title_t, "Piano"
2, 0, Control_c, 0, 10, 47
2, 3660, Note_on_c, 0, 59, 29
2, 3945, Note_on_c, 0, 70, 74
2, 3952, Note_on_c, 0, 82, 62
2, 3961, Note_on_c, 0, 62, 53
2, 3975, Note_on_c, 0, 54, 47
2, 4018, Note_on_c, 0, 70, 0
2, 4030, Note_on_c, 0, 83, 51
2, 4061, Note_on_c, 0, 71, 37
2, 4312, Note_on_c, 0, 82, 0
2, 5381, Note_on_c, 0, 59, 0
2, 5531, Note_on_c, 0, 83, 0
2, 5607, Note_on_c, 0, 71, 0
2, 5725, Note_on_c, 0, 62, 0
2, 5786, Note_on_c, 0, 59, 26
2, 5932, Note_on_c, 0, 54, 0
2, 5959, Note_on_c, 0, 71, 68
2, 5981, Note_on_c, 0, 62, 25
2, 5986, Note_on_c, 0, 83, 64
2, 6064, Note_on_c, 0, 59, 0
2, 6105, Note_on_c, 0, 62, 0
2, 6156, Note_on_c, 0, 71, 0
2, 6206, Note_on_c, 0, 83, 0
2, 7760, Control_c, 0, 64, 127
2, 8394, Control_c, 0, 64, 0
2, 8416, Note_on_c, 0, 91, 92
2, 8418, Note_on_c, 0, 84, 94
2, 8423, Note_on_c, 0, 64, 91
2, 8425, Note_on_c, 0, 96, 92
2, 8427, Note_on_c, 0, 57, 80
2, 8432, Note_on_c, 0, 55, 80
2, 8434, Note_on_c, 0, 60, 80
2, 8794, Control_c, 0, 64, 127
2, 9318, Note_on_c, 0, 55, 0
2, 9357, Note_on_c, 0, 64, 0
2, 9370, Note_on_c, 0, 96, 0
2, 9393, Note_on_c, 0, 57, 0
2, 9395, Note_on_c, 0, 84, 0
2, 9397, Note_on_c, 0, 91, 0
2, 9509, Note_on_c, 0, 60, 0
2, 9583, Control_c, 0, 64, 0
2, 9709, Note_on_c, 0, 60, 62
2, 9724, Note_on_c, 0, 64, 68
2, 9728, Note_on_c, 0, 90, 58
2, 9735, Note_on_c, 0, 95, 57
2, 9737, Note_on_c, 0, 83, 60
2, 9742, Note_on_c, 0, 54, 65
2, 9858, Note_on_c, 0, 64, 0
2, 9887, Note_on_c, 0, 60, 0
2, 9894, Note_on_c, 0, 83, 0
2, 9921, Note_on_c, 0, 95, 0
2, 9923, Note_on_c, 0, 90, 0
2, 9937, Note_on_c, 0, 54, 0
2, 10613, Note_on_c, 0, 93, 74
2, 10622, Note_on_c, 0, 81, 57
2, 10649, Note_on_c, 0, 60, 58
2, 10656, Note_on_c, 0, 64, 58
2, 10665, Note_on_c, 0, 54, 53
2, 10744, Note_on_c, 0, 60, 0
2, 10750, Note_on_c, 0, 64, 0
2, 10818, Note_on_c, 0, 81, 0
2, 10831, Note_on_c, 0, 93, 0
2, 10865, Note_on_c, 0, 54, 0
2, 11486, Note_on_c, 0, 91, 45
2, 11502, Note_on_c, 0, 62, 49
2, 11511, Note_on_c, 0, 59, 53
2, 11536, Note_on_c, 0, 79, 30
2, 11538, Note_on_c, 0, 86, 50
2, 11558, Note_on_c, 0, 54, 46
2, 11610, Control_c, 0, 64, 127
2, 12400, Note_on_c, 0, 91, 0
2, 12450, Note_on_c, 0, 86, 0
2, 12485, Note_on_c, 0, 59, 0
2, 12566, Note_on_c, 0, 79, 0
2, 12606, Note_on_c, 0, 54, 0
2, 12828, Note_on_c, 0, 62, 0
2, 13458, Note_on_c, 0, 62, 37
2, 13484, Note_on_c, 0, 55, 33
2, 13520, Note_on_c, 0, 59, 24
2, 13543, Control_c, 0, 64, 0
2, 13567, Note_on_c, 0, 62, 0
2, 13601, Note_on_c, 0, 59, 0
2, 13673, Note_on_c, 0, 55, 0
2, 14170, Note_on_c, 0, 78, 55
2, 14387, Note_on_c, 0, 78, 0
2, 14531, Note_on_c, 0, 79, 65
2, 14970, Note_on_c, 0, 79, 0
2, 15100, Note_on_c, 0, 60, 60
2, 15102, Note_on_c, 0, 81, 76
2, 15120, Note_on_c, 0, 64, 53
2, 15144, Note_on_c, 0, 59, 46
2, 15209, Note_on_c, 0, 64, 0
2, 15234, Note_on_c, 0, 59, 0
2, 15292, Note_on_c, 0, 60, 0
2, 15373, Note_on_c, 0, 81, 0
2, 15548, Note_on_c, 0, 76, 35
2, 15986, Note_on_c, 0, 76, 0
2, 16099, Note_on_c, 0, 72, 46
2, 16302, Note_on_c, 0, 72, 0
2, 16439, Note_on_c, 0, 69, 27
2, 16880, Note_on_c, 0, 69, 0
2, 17066, Note_on_c, 0, 64, 33
2, 17071, Note_on_c, 0, 60, 44
2, 17133, Note_on_c, 0, 54, 21
2, 17156, Note_on_c, 0, 64, 0
2, 17176, Note_on_c, 0, 60, 0
2, 17219, Note_on_c, 0, 54, 0
2, 17328, Note_on_c, 0, 69, 90
2, 17801, Note_on_c, 0, 69, 0
2, 17960, Note_on_c, 0, 71, 67
2, 18269, Note_on_c, 0, 72, 74
2, 18433, Note_on_c, 0, 71, 0
2, 18782, Note_on_c, 0, 72, 0
2, 18943, Note_on_c, 0, 74, 78
2, 19020, Note_on_c, 0, 62, 31
2, 19029, Note_on_c, 0, 59, 27
2, 19123, Note_on_c, 0, 62, 0
2, 19125, Note_on_c, 0, 59, 0
2, 19165, Note_on_c, 0, 74, 0
2, 20153, Note_on_c, 0, 74, 76
2, 20785, Note_on_c, 0, 74, 0
2, 21873, Note_on_c, 0, 57, 28
2, 21965, Note_on_c, 0, 57, 0
2, 22064, Note_on_c, 0, 74, 66
2, 22825, Note_on_c, 0, 62, 36
2, 22841, Note_on_c, 0, 59, 32
2, 22872, Note_on_c, 0, 55, 32
2, 22895, Note_on_c, 0, 74, 0
2, 22913, Note_on_c, 0, 62, 0
2, 22949, Note_on_c, 0, 59, 0
2, 23007, Note_on_c, 0, 55, 0
2, 23175, Note_on_c, 0, 66, 57
2, 23186, Note_on_c, 0, 78, 20
2, 23417, Note_on_c, 0, 66, 0
2, 23426, Note_on_c, 0, 67, 54
2, 23428, Note_on_c, 0, 78, 0
2, 23806, Note_on_c, 0, 67, 0
2, 23865, Note_on_c, 0, 79, 35
2, 23992, Note_on_c, 0, 79, 0
2, 24010, Note_on_c, 0, 67, 37
2, 24315, Note_on_c, 0, 67, 0
2, 24337, Note_on_c, 0, 79, 48
2, 24568, Note_on_c, 0, 79, 0
2, 24862, Note_on_c, 0, 62, 42
2, 24879, Note_on_c, 0, 59, 34
2, 24909, Note_on_c, 0, 55, 28
2, 24947, Note_on_c, 0, 62, 0
2, 24974, Note_on_c, 0, 59, 0
2, 25074, Note_on_c, 0, 55, 0
2, 25758, Note_on_c, 0, 55, 43
2, 25849, Note_on_c, 0, 55, 0
2, 25986, Note_on_c, 0, 78, 85
2, 26524, Note_on_c, 0, 78, 0
2, 26642, Note_on_c, 0, 76, 65
2, 26907, Note_on_c, 0, 76, 0
2, 26947, Note_on_c, 0, 66, 59
2, 26981, Note_on_c, 0, 74, 60
2, 26996, Note_on_c, 0, 62, 30
2, 27003, Note_on_c, 0, 57, 24
2, 27113, Note_on_c, 0, 62, 0
2, 27122, Note_on_c, 0, 66, 0
2, 27151, Note_on_c, 0, 57, 0
2, 27373, Note_on_c, 0, 74, 0
2, 27395, Note_on_c, 0, 76, 49
2, 27574, Note_on_c, 0, 74, 54
2, 27684, Note_on_c, 0, 76, 0
2, 27778, Note_on_c, 0, 73, 38
2, 27805, Note_on_c, 0, 74, 0
2, 27856, Note_on_c, 0, 73, 0
2, 27977, Note_on_c, 0, 74, 59
2, 28338, Note_on_c, 0, 74, 0
2, 28867, Note_on_c, 0, 62, 48
2, 28891, Note_on_c, 0, 66, 37
2, 28896, Note_on_c, 0, 57, 36
2, 29001, Note_on_c, 0, 66, 0
2, 29048, Note_on_c, 0, 57, 0
2, 29055, Note_on_c, 0, 62, 0
2, 30441, Note_on_c, 0, 62, 49
2, 30450, Note_on_c, 0, 59, 48
2, 30502, Note_on_c, 0, 55, 35
2, 30520, Note_on_c, 0, 62, 0
2, 30540, Note_on_c, 0, 59, 0
2, 30612, Note_on_c, 0, 55, 0
2, 30715, Note_on_c, 0, 66, 74
2, 30719, Note_on_c, 0, 78, 75
2, 31376, Note_on_c, 0, 66, 0
2, 31385, Note_on_c, 0, 67, 61
2, 31445, Note_on_c, 0, 78, 0
2, 31467, Note_on_c, 0, 67, 0
2, 31673, Note_on_c, 0, 62, 51
2, 31678, Note_on_c, 0, 52, 48
2, 31694, Note_on_c, 0, 59, 38
2, 31700, Note_on_c, 0, 69, 69
2, 31718, Note_on_c, 0, 55, 50
2, 31727, Note_on_c, 0, 81, 68
2, 32274, Note_on_c, 0, 52, 0
2, 32292, Note_on_c, 0, 62, 0
2, 32321, Note_on_c, 0, 69, 0
2, 32325, Note_on_c, 0, 55, 0
2, 32341, Note_on_c, 0, 81, 0
2, 32379, Note_on_c, 0, 59, 0
2, 32728, Note_on_c, 0, 82, 60
2, 32733, Note_on_c, 0, 70, 57
2, 32742, Note_on_c, 0, 62, 49
2, 32751, Note_on_c, 0, 59, 44
2, 32782, Note_on_c, 0, 52, 42
2, 32805, Note_on_c, 0, 55, 35
2, 33100, Control_c, 0, 64, 127
2, 33145, Note_on_c, 0, 52, 0
2, 33147, Note_on_c, 0, 62, 0
2, 33161, Note_on_c, 0, 70, 0
2, 33206, Note_on_c, 0, 82, 0
2, 33224, Note_on_c, 0, 55, 0
2, 33235, Note_on_c, 0, 59, 0
2, 33344, Note_on_c, 0, 71, 54
2, 33365, Note_on_c, 0, 83, 53
2, 33443, Note_on_c, 0, 59, 39
2, 33452, Note_on_c, 0, 83, 0
2, 33512, Note_on_c, 0, 71, 0
2, 33539, Note_on_c, 0, 59, 0
2, 33681, Note_on_c, 0, 62, 64
2, 33685, Note_on_c, 0, 59, 43
2, 33689, Note_on_c, 0, 72, 71
2, 33694, Note_on_c, 0, 52, 49
2, 33703, Note_on_c, 0, 84, 73
2, 33730, Note_on_c, 0, 55, 31
2, 33963, Note_on_c, 0, 52, 0
2, 34016, Note_on_c, 0, 72, 0
2, 34025, Note_on_c, 0, 55, 0
2, 34046, Note_on_c, 0, 59, 0
2, 34052, Note_on_c, 0, 84, 0
2, 34068, Note_on_c, 0, 62, 0
2, 34355, Note_on_c, 0, 86, 79
2, 34359, Note_on_c, 0, 64, 71
2, 34375, Note_on_c, 0, 60, 58
2, 34377, Note_on_c, 0, 74, 76
2, 34384, Note_on_c, 0, 55, 63
2, 34406, Control_c, 0, 64, 0
2, 34420, Note_on_c, 0, 59, 58
2, 34505, Note_on_c, 0, 59, 0
2, 34592, Note_on_c, 0, 86, 0
2, 34626, Note_on_c, 0, 64, 0
2, 34666, Note_on_c, 0, 74, 0
2, 34695, Note_on_c, 0, 55, 0
2, 34736, Note_on_c, 0, 60, 0
2, 34839, Note_on_c, 0, 64, 46
2, 34865, Note_on_c, 0, 60, 35
2, 34868, Note_on_c, 0, 55, 35
2, 34890, Note_on_c, 0, 84, 31
2, 34901, Note_on_c, 0, 59, 36
2, 34921, Note_on_c, 0, 72, 29
2, 35161, Note_on_c, 0, 55, 0
2, 35204, Note_on_c, 0, 64, 0
2, 35226, Note_on_c, 0, 59, 0
2, 35289, Note_on_c, 0, 84, 0
2, 35300, Note_on_c, 0, 60, 0
2, 35325, Note_on_c, 0, 72, 0
2, 35566, Note_on_c, 0, 60, 34
2, 35587, Note_on_c, 0, 64, 38
2, 35614, Note_on_c, 0, 72, 38
2, 35616, Note_on_c, 0, 84, 42
2, 35625, Note_on_c, 0, 55, 38
2, 35643, Note_on_c, 0, 59, 32
2, 35683, Control_c, 0, 64, 127
2, 35914, Note_on_c, 0, 55, 0
2, 35938, Note_on_c, 0, 64, 0
2, 35945, Note_on_c, 0, 59, 0
2, 35988, Note_on_c, 0, 84, 0
2, 36012, Note_on_c, 0, 60, 0
2, 36044, Note_on_c, 0, 72, 0
2, 36113, Control_c, 0, 64, 0
2, 36230, Note_on_c, 0, 64, 44
2, 36236, Note_on_c, 0, 72, 40
2, 36239, Note_on_c, 0, 60, 41
2, 36252, Note_on_c, 0, 84, 40
2, 36297, Note_on_c, 0, 55, 38
2, 36315, Note_on_c, 0, 59, 37
2, 36409, Note_on_c, 0, 55, 0
2, 36418, Note_on_c, 0, 59, 0
2, 36503, Note_on_c, 0, 64, 0
2, 36539, Note_on_c, 0, 84, 0
2, 36593, Note_on_c, 0, 72, 0
2, 36619, Note_on_c, 0, 60, 0
2, 36888, Note_on_c, 0, 60, 24
2, 36933, Note_on_c, 0, 84, 34
2, 36935, Note_on_c, 0, 64, 29
2, 36942, Note_on_c, 0, 72, 33
2, 36980, Note_on_c, 0, 59, 20
2, 37065, Note_on_c, 0, 64, 0
2, 37090, Note_on_c, 0, 59, 0
2, 37168, Note_on_c, 0, 72, 0
2, 37173, Note_on_c, 0, 84, 0
2, 37202, Note_on_c, 0, 60, 0
2, 37544, Note_on_c, 0, 60, 24
2, 37547, Note_on_c, 0, 64, 29
2, 37558, Note_on_c, 0, 84, 55
2, 37567, Note_on_c, 0, 55, 29
2, 37585, Note_on_c, 0, 72, 34
2, 37592, Control_c, 0, 64, 127
2, 37746, Control_c, 0, 64, 0
2, 37764, Note_on_c, 0, 55, 0
2, 37771, Note_on_c, 0, 64, 0
2, 37775, Note_on_c, 0, 60, 0
2, 37802, Note_on_c, 0, 84, 0
2, 37824, Note_on_c, 0, 72, 0
2, 37838, Control_c, 0, 64, 127
2, 37975, Control_c, 0, 64, 0
2, 38156, Note_on_c, 0, 60, 60
2, 38172, Note_on_c, 0, 64, 50
2, 38230, Note_on_c, 0, 54, 38
2, 38261, Note_on_c, 0, 64, 0
2, 38331, Note_on_c, 0, 60, 0
2, 38414, Note_on_c, 0, 54, 0
2, 40035, Note_on_c, 0, 60, 50
2, 40055, Note_on_c, 0, 54, 39
2, 40147, Note_on_c, 0, 60, 0
2, 40190, Note_on_c, 0, 54, 0
2, 40277, Note_on_c, 0, 61, 57
2, 40575, Note_on_c, 0, 61, 0
2, 40595, Note_on_c, 0, 62, 55
2, 40808, Note_on_c, 0, 62, 0
2, 40972, Note_on_c, 0, 63, 67
2, 41014, Note_on_c, 0, 60, 56
2, 41050, Note_on_c, 0, 54, 42
2, 41193, Note_on_c, 0, 60, 0
2, 41222, Note_on_c, 0, 63, 0
2, 41274, Note_on_c, 0, 54, 0
2, 41399, Note_on_c, 0, 64, 34
2, 41511, Note_on_c, 0, 64, 0
2, 41704, Note_on_c, 0, 65, 52
2, 41838, Note_on_c, 0, 65, 0
2, 42031, Note_on_c, 0, 62, 48
2, 42062, Note_on_c, 0, 66, 67
2, 42098, Note_on_c, 0, 59, 33
2, 42132, Note_on_c, 0, 62, 0
2, 42204, Note_on_c, 0, 59, 0
2, 42206, Note_on_c, 0, 66, 0
2, 42390, Note_on_c, 0, 67, 39
2, 42533, Note_on_c, 0, 67, 0
2, 42790, Note_on_c, 0, 71, 50
2, 42885, Note_on_c, 0, 71, 0
2, 43014, Note_on_c, 0, 66, 37
2, 43017, Note_on_c, 0, 62, 46
2, 43039, Note_on_c, 0, 76, 78
2, 43044, Note_on_c, 0, 74, 75
2, 43088, Note_on_c, 0, 66, 0
2, 43214, Note_on_c, 0, 62, 0
2, 43422, Note_on_c, 0, 69, 32
2, 43424, Note_on_c, 0, 74, 0
2, 43456, Note_on_c, 0, 76, 0
2, 43662, Note_on_c, 0, 69, 0
2, 43727, Note_on_c, 0, 74, 68
2, 43928, Note_on_c, 0, 62, 42
2, 43982, Note_on_c, 0, 78, 69
2, 44005, Note_on_c, 0, 74, 0
2, 44070, Note_on_c, 0, 62, 0
2, 44152, Note_on_c, 0, 78, 0
2, 44361, Note_on_c, 0, 81, 40
2, 44403, Note_on_c, 0, 83, 41
2, 44506, Note_on_c, 0, 83, 0
2, 44509, Note_on_c, 0, 81, 0
2, 44641, Note_on_c, 0, 86, 59
2, 44847, Note_on_c, 0, 66, 69
2, 44878, Note_on_c, 0, 57, 54
2, 44889, Note_on_c, 0, 62, 54
2, 44912, Note_on_c, 0, 90, 65
2, 44923, Note_on_c, 0, 86, 0
2, 45017, Note_on_c, 0, 66, 0
2, 45071, Note_on_c, 0, 90, 0
2, 45127, Note_on_c, 0, 62, 0
2, 45178, Note_on_c, 0, 57, 0
2, 45284, Note_on_c, 0, 93, 54
2, 45454, Note_on_c, 0, 93, 0
2, 45568, Note_on_c, 0, 98, 45
2, 45779, Note_on_c, 0, 102, 68
2, 45969, Note_on_c, 0, 98, 0
2, 46014, Note_on_c, 0, 102, 0
2, 46148, Note_on_c, 0, 103, 87
2, 46457, Note_on_c, 0, 102, 49
2, 46473, Note_on_c, 0, 103, 0
2, 46558, Note_on_c, 0, 102, 0
2, 46764, Note_on_c, 0, 103, 92
2, 46771, Note_on_c, 0, 62, 66
2, 46811, Note_on_c, 0, 59, 43
2, 46831, Note_on_c, 0, 55, 43
2, 46919, Note_on_c, 0, 59, 0
2, 46928, Note_on_c, 0, 62, 0
2, 46999, Note_on_c, 0, 55, 0
2, 47102, Note_on_c, 0, 102, 64
2, 47201, Note_on_c, 0, 103, 0
2, 47441, Note_on_c, 0, 98, 64
2, 47524, Note_on_c, 0, 102, 0
2, 47692, Note_on_c, 0, 98, 0
2, 47815, Note_on_c, 0, 93, 47
2, 47844, Note_on_c, 0, 95, 33
2, 47860, Note_on_c, 0, 62, 25
2, 47931, Note_on_c, 0, 93, 0
2, 47938, Note_on_c, 0, 95, 0
2, 47942, Note_on_c, 0, 62, 0
2, 48744, Note_on_c, 0, 62, 60
2, 48774, Note_on_c, 0, 59, 44
2, 48818, Note_on_c, 0, 55, 38
2, 48830, Note_on_c, 0, 62, 0
2, 48879, Note_on_c, 0, 59, 0
2, 48919, Note_on_c, 0, 55, 0
2, 49575, Note_on_c, 0, 59, 56
2, 49587, Note_on_c, 0, 55, 49
2, 49667, Note_on_c, 0, 59, 0
2, 49674, Note_on_c, 0, 55, 0
2, 49880, Note_on_c, 0, 90, 67
2, 49889, Note_on_c, 0, 62, 79
2, 49891, Note_on_c, 0, 78, 77
2, 49894, Note_on_c, 0, 59, 58
2, 49914, Note_on_c, 0, 52, 61
2, 49934, Note_on_c, 0, 55, 43
2, 50386, Note_on_c, 0, 62, 0
2, 50406, Note_on_c, 0, 52, 0
2, 50424, Note_on_c, 0, 78, 0
2, 50427, Note_on_c, 0, 90, 0
2, 50454, Note_on_c, 0, 59, 0
2, 50471, Note_on_c, 0, 55, 0
2, 50548, Note_on_c, 0, 91, 70
2, 50557, Note_on_c, 0, 86, 62
2, 50566, Note_on_c, 0, 79, 58
2, 50583, Note_on_c, 0, 62, 46
2, 50604, Note_on_c, 0, 59, 42
2, 50617, Note_on_c, 0, 52, 30
2, 50633, Note_on_c, 0, 55, 57
2, 50637, Note_on_c, 0, 89, 30
2, 50722, Note_on_c, 0, 79, 0
2, 50742, Note_on_c, 0, 89, 0
2, 50760, Note_on_c, 0, 91, 0
2, 50769, Note_on_c, 0, 86, 0
2, 50919, Note_on_c, 0, 91, 24
2, 50984, Note_on_c, 0, 86, 46
2, 51014, Note_on_c, 0, 79, 31
2, 51327, Note_on_c, 0, 86, 0
2, 51358, Note_on_c, 0, 52, 0
2, 51383, Note_on_c, 0, 62, 0
2, 51385, Note_on_c, 0, 91, 0
2, 51388, Note_on_c, 0, 79, 0
2, 51397, Note_on_c, 0, 59, 0
2, 51441, Note_on_c, 0, 55, 0
2, 51571, Note_on_c, 0, 91, 52
2, 51609, Note_on_c, 0, 62, 45
2, 51621, Note_on_c, 0, 79, 42
2, 51625, Note_on_c, 0, 86, 54
2, 51643, Note_on_c, 0, 55, 44
2, 51650, Note_on_c, 0, 59, 43
2, 51703, Note_on_c, 0, 52, 24
2, 51777, Note_on_c, 0, 59, 0
2, 51793, Note_on_c, 0, 86, 0
2, 51795, Note_on_c, 0, 52, 0
2, 51804, Note_on_c, 0, 62, 0
2, 51813, Note_on_c, 0, 79, 0
2, 51818, Note_on_c, 0, 91, 0
2, 51892, Note_on_c, 0, 55, 0
2, 51999, Note_on_c, 0, 91, 36
2, 52026, Note_on_c, 0, 62, 32
2, 52028, Note_on_c, 0, 86, 39
2, 52053, Note_on_c, 0, 79, 26
2, 52136, Note_on_c, 0, 55, 17
2, 52169, Note_on_c, 0, 91, 0
2, 52223, Note_on_c, 0, 86, 0
2, 52237, Note_on_c, 0, 62, 0
2, 52295, Note_on_c, 0, 79, 0
2, 52375, Note_on_c, 0, 55, 0
2, 53610, Note_on_c, 0, 55, 34
2, 53769, Note_on_c, 0, 55, 0
2, 53796, Note_on_c, 0, 67, 64
2, 53802, Note_on_c, 0, 62, 66
2, 53814, Note_on_c, 0, 71, 54
2, 53816, Note_on_c, 0, 79, 64
2, 53867, Note_on_c, 0, 59, 57
2, 53881, Note_on_c, 0, 72, 35
2, 54804, Note_on_c, 0, 71, 0
2, 55426, Note_on_c, 0, 62, 0
2, 55480, Note_on_c, 0, 79, 0
2, 55520, Note_on_c, 0, 72, 0
2, 55554, Note_on_c, 0, 67, 0
2, 55559, Note_on_c, 0, 55, 27
2, 55590, Note_on_c, 0, 59, 0
2, 55769, Note_on_c, 0, 55, 0
2, 55785, Note_on_c, 0, 67, 46
2, 55794, Note_on_c, 0, 78, 51
2, 55803, Note_on_c, 0, 62, 54
2, 55816, Note_on_c, 0, 59, 37
2, 56004, Note_on_c, 0, 62, 0
2, 56157, Note_on_c, 0, 59, 0
2, 56192, Note_on_c, 0, 67, 0
2, 56280, Note_on_c, 0, 78, 0
2, 56719, Note_on_c, 0, 73, 88
2, 56732, Note_on_c, 0, 85, 84
2, 57277, Note_on_c, 0, 73, 0
2, 57359, Note_on_c, 0, 85, 0
2, 57693, Note_on_c, 0, 66, 51
2, 57698, Note_on_c, 0, 61, 37
2, 57729, Note_on_c, 0, 57, 37
2, 57738, Note_on_c, 0, 62, 50
2, 57743, Note_on_c, 0, 74, 68
2, 57745, Note_on_c, 0, 86, 68
2, 57763, Note_on_c, 0, 79, 49
2, 57767, Note_on_c, 0, 82, 34
2, 58121, Note_on_c, 0, 74, 0
2, 58123, Note_on_c, 0, 79, 0
2, 58175, Note_on_c, 0, 86, 0
2, 58215, Note_on_c, 0, 82, 0
2, 58231, Note_on_c, 0, 66, 0
2, 58235, Note_on_c, 0, 57, 0
2, 58258, Note_on_c, 0, 62, 0
2, 58327, Note_on_c, 0, 61, 0
2, 58625, Note_on_c, 0, 66, 63
2, 58645, Note_on_c, 0, 61, 33
2, 58663, Note_on_c, 0, 88, 77
2, 58672, Note_on_c, 0, 57, 51
2, 58683, Note_on_c, 0, 76, 79
2, 58692, Note_on_c, 0, 62, 47
2, 58739, Note_on_c, 0, 82, 36
2, 58824, Note_on_c, 0, 82, 0
2, 59033, Note_on_c, 0, 57, 0
2, 59048, Note_on_c, 0, 88, 0
2, 59051, Note_on_c, 0, 62, 0
2, 59187, Note_on_c, 0, 76, 0
2, 59246, Note_on_c, 0, 61, 0
2, 59250, Note_on_c, 0, 66, 0
2, 59593, Note_on_c, 0, 67, 61
2, 59599, Note_on_c, 0, 62, 49
2, 59602, Note_on_c, 0, 86, 71
2, 59622, Note_on_c, 0, 56, 59
2, 59626, Note_on_c, 0, 74, 70
2, 59664, Note_on_c, 0, 81, 49
2, 59779, Note_on_c, 0, 81, 0
2, 59987, Note_on_c, 0, 74, 0
2, 60012, Note_on_c, 0, 67, 0
2, 60030, Note_on_c, 0, 56, 0
2, 60059, Note_on_c, 0, 86, 0
2, 60101, Note_on_c, 0, 62, 0
2, 60513, Note_on_c, 0, 88, 81
2, 60516, Note_on_c, 0, 56, 74
2, 60518, Note_on_c, 0, 62, 60
2, 60522, Note_on_c, 0, 67, 71
2, 60527, Note_on_c, 0, 76, 80
2, 60574, Note_on_c, 0, 82, 37
2, 60652, Note_on_c, 0, 82, 0
2, 60874, Note_on_c, 0, 62, 0
2, 60908, Note_on_c, 0, 67, 0
2, 60973, Note_on_c, 0, 88, 0
2, 61062, Note_on_c, 0, 76, 0
2, 61154, Note_on_c, 0, 56, 0
2, 61432, Note_on_c, 0, 64, 47
2, 61434, Note_on_c, 0, 55, 43
2, 61443, Note_on_c, 0, 57, 46
2, 61461, Note_on_c, 0, 86, 65
2, 61463, Note_on_c, 0, 60, 45
2, 61468, Note_on_c, 0, 74, 66
2, 61978, Note_on_c, 0, 55, 0
2, 61992, Note_on_c, 0, 74, 0
2, 62039, Note_on_c, 0, 64, 0
2, 62052, Note_on_c, 0, 86, 0
2, 62068, Note_on_c, 0, 60, 0
2, 62070, Note_on_c, 0, 57, 0
2, 62364, Note_on_c, 0, 64, 49
2, 62373, Note_on_c, 0, 55, 53
2, 62391, Note_on_c, 0, 88, 80
2, 62395, Note_on_c, 0, 60, 44
2, 62399, Note_on_c, 0, 76, 75
2, 62404, Note_on_c, 0, 57, 40
2, 62556, Note_on_c, 0, 64, 0
2, 62608, Note_on_c, 0, 55, 0
2, 62644, Note_on_c, 0, 57, 0
2, 62733, Note_on_c, 0, 88, 0
2, 62769, Note_on_c, 0, 60, 0
2, 62830, Note_on_c, 0, 76, 0
2, 63056, Note_on_c, 0, 60, 51
2, 63083, Note_on_c, 0, 58, 46
2, 63085, Note_on_c, 0, 63, 69
2, 63087, Note_on_c, 0, 84, 77
2, 63112, Note_on_c, 0, 72, 62
2, 63130, Note_on_c, 0, 53, 40
2, 63721, Note_on_c, 0, 84, 0
2, 63952, Note_on_c, 0, 72, 0
2, 64026, Note_on_c, 0, 82, 69
2, 64140, Note_on_c, 0, 53, 0
2, 64203, Note_on_c, 0, 63, 0
2, 64335, Note_on_c, 0, 82, 0
2, 64375, Note_on_c, 0, 56, 18
2, 64436, Note_on_c, 0, 60, 0
2, 64505, Note_on_c, 0, 78, 27
2, 64823, Note_on_c, 0, 56, 0
2, 64897, Note_on_c, 0, 58, 0
2, 64962, Note_on_c, 0, 78, 0
2, 65031, Note_on_c, 0, 81, 52
2, 65047, Note_on_c, 0, 62, 57
2, 65049, Note_on_c, 0, 59, 48
2, 65121, Note_on_c, 0, 54, 23
2, 65213, Note_on_c, 0, 54, 0
2, 65217, Note_on_c, 0, 62, 0
2, 65338, Note_on_c, 0, 59, 0
2, 65457, Note_on_c, 0, 81, 0
2, 65468, Note_on_c, 0, 78, 38
2, 65880, Note_on_c, 0, 78, 0
2, 65925, Note_on_c, 0, 74, 50
2, 66078, Note_on_c, 0, 59, 37
2, 66104, Note_on_c, 0, 74, 0
2, 66237, Note_on_c, 0, 59, 0
2, 66940, Note_on_c, 0, 62, 43
2, 66996, Note_on_c, 0, 59, 32
2, 67036, Note_on_c, 0, 62, 0
2, 67119, Note_on_c, 0, 59, 0
2, 67301, Note_on_c, 0, 71, 77
2, 67856, Note_on_c, 0, 71, 0
2, 67892, Note_on_c, 0, 66, 65
2, 67901, Note_on_c, 0, 62, 39
2, 67944, Note_on_c, 0, 59, 28
2, 68002, Note_on_c, 0, 62, 0
2, 68105, Note_on_c, 0, 66, 0
2, 68145, Note_on_c, 0, 59, 0
2, 68217, Note_on_c, 0, 62, 33
2, 68694, Note_on_c, 0, 62, 0
2, 68887, Note_on_c, 0, 64, 45
2, 68934, Note_on_c, 0, 57, 38
2, 68945, Note_on_c, 0, 60, 34
2, 68974, Note_on_c, 0, 64, 0
2, 69102, Note_on_c, 0, 60, 0
2, 69117, Note_on_c, 0, 67, 91
2, 69160, Note_on_c, 0, 65, 45
2, 69225, Note_on_c, 0, 57, 0
2, 69258, Note_on_c, 0, 65, 0
2, 69738, Note_on_c, 0, 60, 26
2, 69796, Note_on_c, 0, 64, 53
2, 69805, Note_on_c, 0, 67, 0
2, 69807, Note_on_c, 0, 57, 19
2, 69975, Note_on_c, 0, 64, 0
2, 69986, Note_on_c, 0, 60, 0
2, 70067, Note_on_c, 0, 57, 0
2, 70188, Note_on_c, 0, 66, 65
2, 70721, Note_on_c, 0, 64, 50
2, 70730, Note_on_c, 0, 60, 58
2, 70748, Note_on_c, 0, 54, 47
2, 70797, Note_on_c, 0, 64, 0
2, 70813, Note_on_c, 0, 60, 0
2, 70914, Note_on_c, 0, 54, 0
2, 71684, Note_on_c, 0, 50, 68
2, 71711, Note_on_c, 0, 49, 53
2, 71713, Note_on_c, 0, 48, 64
2, 71790, Note_on_c, 0, 48, 0
2, 71886, Note_on_c, 0, 49, 0
2, 72596, Note_on_c, 0, 66, 0
2, 72632, Note_on_c, 0, 49, 40
2, 72708, Note_on_c, 0, 49, 0
2, 72968, Note_on_c, 0, 64, 90
2, 73962, Note_on_c, 0, 50, 0
2, 74560, Note_on_c, 0, 50, 81
2, 74587, Note_on_c, 0, 49, 57
2, 74704, Note_on_c, 0, 49, 0
2, 75506, Note_on_c, 0, 64, 0
2, 75602, Note_on_c, 0, 49, 29
2, 75647, Note_on_c, 0, 48, 55
2, 75692, Note_on_c, 0, 49, 0
2, 75775, Note_on_c, 0, 50, 0
2, 75817, Note_on_c, 0, 61, 68
2, 76016, Note_on_c, 0, 48, 0
2, 76433, Note_on_c, 0, 61, 0
2, 76435, Note_on_c, 0, 62, 68
2, 76480, Note_on_c, 0, 50, 76
2, 76525, Note_on_c, 0, 49, 47
2, 76585, Note_on_c, 0, 62, 0
2, 76601, Note_on_c, 0, 49, 0
2, 76655, Note_on_c, 0, 50, 0
2, 77000, Note_on_c, 0, 78, 28
2, 77136, Note_on_c, 0, 78, 0
2, 77419, Note_on_c, 0, 81, 80
2, 77423, Note_on_c, 0, 69, 87
2, 77439, Note_on_c, 0, 57, 91
2, 77795, Control_c, 0, 64, 127
2, 78420, Note_on_c, 0, 69, 0
2, 78476, Note_on_c, 0, 81, 0
2, 78651, Note_on_c, 0, 57, 0
2, 78680, Note_on_c, 0, 59, 54
2, 78695, Control_c, 0, 64, 0
2, 78700, Note_on_c, 0, 83, 73
2, 78700, Note_on_c, 0, 71, 70
2, 78902, Note_on_c, 0, 71, 0
2, 78951, Note_on_c, 0, 83, 0
2, 79155, Note_on_c, 0, 59, 0
2, 79621, Note_on_c, 0, 60, 60
2, 79627, Note_on_c, 0, 84, 74
2, 79634, Note_on_c, 0, 72, 70
2, 79820, Note_on_c, 0, 72, 0
2, 79820, Control_c, 0, 64, 127
2, 79932, Note_on_c, 0, 60, 0
2, 79954, Note_on_c, 0, 84, 0
2, 81390, Control_c, 0, 64, 0
2, 81614, Note_on_c, 0, 64, 48
2, 81619, Note_on_c, 0, 86, 57
2, 81630, Note_on_c, 0, 98, 49
2, 81641, Note_on_c, 0, 57, 50
2, 81646, Note_on_c, 0, 53, 31
2, 81655, Note_on_c, 0, 93, 53
2, 81681, Note_on_c, 0, 60, 39
2, 81699, Control_c, 0, 64, 127
2, 82058, Note_on_c, 0, 86, 0
2, 82062, Note_on_c, 0, 93, 0
2, 82064, Note_on_c, 0, 53, 0
2, 82071, Note_on_c, 0, 98, 0
2, 82082, Note_on_c, 0, 64, 0
2, 82107, Note_on_c, 0, 57, 0
2, 82138, Note_on_c, 0, 60, 0
2, 82259, Note_on_c, 0, 64, 60
2, 82271, Note_on_c, 0, 53, 41
2, 82275, Note_on_c, 0, 86, 60
2, 82277, Note_on_c, 0, 60, 62
2, 82279, Note_on_c, 0, 93, 70
2, 82282, Note_on_c, 0, 98, 60
2, 82282, Note_on_c, 0, 57, 66
2, 82414, Note_on_c, 0, 64, 0
2, 82441, Note_on_c, 0, 86, 0
2, 82447, Note_on_c, 0, 60, 0
2, 82481, Note_on_c, 0, 98, 0
2, 82490, Note_on_c, 0, 93, 0
2, 82499, Note_on_c, 0, 57, 0
2, 82584, Note_on_c, 0, 64, 64
2, 82600, Note_on_c, 0, 60, 62
2, 82607, Note_on_c, 0, 57, 41
2, 82618, Note_on_c, 0, 98, 57
2, 82629, Note_on_c, 0, 86, 58
2, 82631, Note_on_c, 0, 93, 79
2, 83057, Note_on_c, 0, 53, 0
2, 83077, Note_on_c, 0, 64, 0
2, 83081, Note_on_c, 0, 98, 0
2, 83106, Note_on_c, 0, 86, 0
2, 83119, Note_on_c, 0, 93, 0
2, 83122, Note_on_c, 0, 57, 0
2, 83149, Note_on_c, 0, 60, 0
2, 83256, Control_c, 0, 64, 0
2, 83296, Note_on_c, 0, 93, 71
2, 83305, Note_on_c, 0, 86, 66
2, 83308, Note_on_c, 0, 60, 74
2, 83308, Note_on_c, 0, 98, 65
2, 83312, Note_on_c, 0, 64, 65
2, 83335, Note_on_c, 0, 57, 60
2, 83364, Note_on_c, 0, 53, 48
2, 83449, Note_on_c, 0, 86, 0
2, 83458, Note_on_c, 0, 93, 0
2, 83478, Note_on_c, 0, 64, 0
2, 83482, Note_on_c, 0, 60, 0
2, 83505, Note_on_c, 0, 98, 0
2, 83552, Note_on_c, 0, 53, 0
2, 83597, Note_on_c, 0, 57, 0
2, 84228, Note_on_c, 0, 92, 90
2, 84237, Note_on_c, 0, 98, 82
2, 84239, Note_on_c, 0, 86, 85
2, 84248, Note_on_c, 0, 59, 81
2, 84251, Note_on_c, 0, 64, 85
2, 84262, Note_on_c, 0, 53, 75
2, 84399, Note_on_c, 0, 53, 0
2, 84401, Note_on_c, 0, 86, 0
2, 84403, Note_on_c, 0, 59, 0
2, 84414, Note_on_c, 0, 64, 0
2, 84423, Note_on_c, 0, 92, 0
2, 84513, Note_on_c, 0, 98, 0
2, 85180, Note_on_c, 0, 84, 94
2, 85185, Note_on_c, 0, 96, 85
2, 85187, Note_on_c, 0, 91, 88
2, 85191, Note_on_c, 0, 59, 79
2, 85194, Note_on_c, 0, 64, 78
2, 85198, Note_on_c, 0, 53, 80
2, 85221, Note_on_c, 0, 62, 68
2, 85297, Note_on_c, 0, 62, 0
2, 85530, Control_c, 0, 64, 127
2, 86079, Note_on_c, 0, 53, 0
2, 86126, Note_on_c, 0, 64, 0
2, 86170, Note_on_c, 0, 96, 0
2, 86215, Note_on_c, 0, 91, 0
2, 86220, Note_on_c, 0, 84, 0
2, 86244, Note_on_c, 0, 59, 0
2, 86408, Control_c, 0, 64, 0
2, 86410, Note_on_c, 0, 59, 65
2, 86423, Note_on_c, 0, 95, 68
2, 86426, Note_on_c, 0, 90, 68
2, 86430, Note_on_c, 0, 64, 61
2, 86432, Note_on_c, 0, 53, 63
2, 86455, Note_on_c, 0, 83, 50
2, 86634, Note_on_c, 0, 64, 0
2, 86643, Note_on_c, 0, 83, 0
2, 86681, Note_on_c, 0, 95, 0
2, 86683, Note_on_c, 0, 53, 0
2, 86708, Note_on_c, 0, 90, 0
2, 86724, Note_on_c, 0, 59, 0
2, 87297, Note_on_c, 0, 85, 67
2, 87304, Note_on_c, 0, 91, 74
2, 87306, Note_on_c, 0, 59, 70
2, 87311, Note_on_c, 0, 64, 68
2, 87328, Note_on_c, 0, 79, 55
2, 87331, Note_on_c, 0, 53, 65
2, 87660, Note_on_c, 0, 79, 0
2, 87696, Note_on_c, 0, 91, 0
2, 87707, Note_on_c, 0, 64, 0
2, 87729, Note_on_c, 0, 86, 54
2, 87738, Note_on_c, 0, 85, 0
2, 87741, Note_on_c, 0, 53, 0
2, 87839, Note_on_c, 0, 59, 0
2, 87853, Note_on_c, 0, 86, 0
2, 88245, Note_on_c, 0, 59, 40
2, 88258, Note_on_c, 0, 62, 58
2, 88263, Note_on_c, 0, 88, 58
2, 88283, Note_on_c, 0, 83, 57
2, 88287, Note_on_c, 0, 55, 52
2, 88292, Note_on_c, 0, 52, 44
2, 88319, Note_on_c, 0, 76, 24
2, 89076, Note_on_c, 0, 88, 0
2, 89165, Note_on_c, 0, 83, 0
2, 89239, Note_on_c, 0, 76, 0
2, 89651, Note_on_c, 0, 59, 0
2, 89792, Note_on_c, 0, 62, 0
2, 89963, Note_on_c, 0, 52, 0
2, 90014, Note_on_c, 0, 55, 0
2, 90039, Note_on_c, 0, 59, 26
2, 90117, Note_on_c, 0, 59, 0
2, 90173, Note_on_c, 0, 67, 72
2, 90187, Note_on_c, 0, 71, 59
2, 90196, Note_on_c, 0, 62, 71
2, 90200, Note_on_c, 0, 64, 66
2, 90207, Note_on_c, 0, 74, 58
2, 90274, Note_on_c, 0, 64, 0
2, 90328, Note_on_c, 0, 67, 0
2, 90330, Note_on_c, 0, 74, 0
2, 90384, Note_on_c, 0, 71, 0
2, 90391, Note_on_c, 0, 62, 0
2, 90601, Note_on_c, 0, 60, 40
2, 90854, Note_on_c, 0, 60, 0
2, 90872, Note_on_c, 0, 67, 80
2, 90874, Note_on_c, 0, 74, 76
2, 90877, Note_on_c, 0, 64, 80
2, 90897, Note_on_c, 0, 71, 68
2, 90924, Note_on_c, 0, 62, 68
2, 91170, Note_on_c, 0, 62, 0
2, 91206, Note_on_c, 0, 71, 0
2, 91224, Note_on_c, 0, 74, 0
2, 91264, Note_on_c, 0, 67, 0
2, 91266, Note_on_c, 0, 64, 0
2, 91490, Note_on_c, 0, 71, 48
2, 91513, Note_on_c, 0, 62, 61
2, 91535, Note_on_c, 0, 64, 44
2, 91558, Note_on_c, 0, 59, 43
2, 91573, Note_on_c, 0, 67, 24
2, 91764, Note_on_c, 0, 62, 0
2, 91786, Note_on_c, 0, 64, 0
2, 91813, Note_on_c, 0, 67, 0
2, 91844, Note_on_c, 0, 71, 0
2, 91873, Note_on_c, 0, 59, 0
2, 91979, Note_on_c, 0, 55, 32
2, 92176, Note_on_c, 0, 55, 0
2, 92198, Note_on_c, 0, 71, 71
2, 92205, Note_on_c, 0, 64, 74
2, 92216, Note_on_c, 0, 67, 62
2, 92218, Note_on_c, 0, 62, 68
2, 92232, Note_on_c, 0, 59, 61
2, 92326, Note_on_c, 0, 69, 20
2, 92570, Note_on_c, 0, 67, 0
2, 92601, Note_on_c, 0, 71, 0
2, 92610, Note_on_c, 0, 59, 0
2, 92613, Note_on_c, 0, 69, 0
2, 92678, Note_on_c, 0, 62, 0
2, 92687, Note_on_c, 0, 64, 0
2, 93016, Note_on_c, 0, 55, 57
2, 93027, Note_on_c, 0, 67, 55
2, 93061, Note_on_c, 0, 62, 56
2, 93063, Note_on_c, 0, 59, 49
2, 93087, Note_on_c, 0, 64, 48
2, 93282, Note_on_c, 0, 59, 0
2, 93318, Note_on_c, 0, 55, 0
2, 93320, Note_on_c, 0, 64, 0
2, 93338, Note_on_c, 0, 62, 0
2, 93341, Note_on_c, 0, 67, 0
2, 93412, Note_on_c, 0, 53, 34
2, 93712, Note_on_c, 0, 54, 37
2, 93724, Note_on_c, 0, 53, 0
2, 93780, Note_on_c, 0, 67, 70
2, 93786, Note_on_c, 0, 62, 67
2, 93804, Note_on_c, 0, 64, 64
2, 93807, Note_on_c, 0, 59, 71
2, 93811, Note_on_c, 0, 55, 72
2, 93941, Note_on_c, 0, 54, 0
2, 94815, Note_on_c, 0, 59, 0
2, 94821, Note_on_c, 0, 64, 0
2, 94875, Note_on_c, 0, 62, 0
2, 94895, Note_on_c, 0, 67, 0
2, 94958, Note_on_c, 0, 55, 0
2, 95039, Note_on_c, 0, 62, 72
2, 95043, Note_on_c, 0, 53, 31
2, 95077, Note_on_c, 0, 57, 60
2, 95081, Note_on_c, 0, 66, 59
2, 95258, Note_on_c, 0, 53, 0
2, 95390, Note_on_c, 0, 57, 0
2, 95393, Note_on_c, 0, 62, 0
2, 95422, Note_on_c, 0, 66, 0
2, 95628, Note_on_c, 0, 61, 71
2, 95659, Note_on_c, 0, 65, 53
2, 95666, Note_on_c, 0, 57, 60
2, 95780, Note_on_c, 0, 65, 0
2, 95814, Note_on_c, 0, 57, 0
2, 95917, Note_on_c, 0, 46, 32
2, 95937, Note_on_c, 0, 61, 0
2, 96134, Note_on_c, 0, 46, 0
2, 96313, Note_on_c, 0, 45, 41
2, 96340, Note_on_c, 0, 60, 58
2, 96349, Note_on_c, 0, 64, 46
2, 96421, Note_on_c, 0, 55, 39
2, 96678, Note_on_c, 0, 55, 0
2, 96719, Note_on_c, 0, 64, 0
2, 96730, Note_on_c, 0, 60, 0
2, 96833, Note_on_c, 0, 45, 0
2, 97005, Note_on_c, 0, 45, 55
2, 97008, Note_on_c, 0, 64, 42
2, 97010, Note_on_c, 0, 60, 55
2, 97037, Note_on_c, 0, 55, 51
2, 97050, Control_c, 0, 64, 127
2, 97144, Note_on_c, 0, 60, 0
2, 97191, Note_on_c, 0, 45, 0
2, 97207, Note_on_c, 0, 55, 0
2, 97229, Control_c, 0, 64, 0
2, 97243, Note_on_c, 0, 64, 0
2, 97274, Control_c, 0, 64, 127
2, 98004, Note_on_c, 0, 58, 72
2, 98007, Note_on_c, 0, 55, 68
2, 98011, Note_on_c, 0, 88, 76
2, 98013, Note_on_c, 0, 93, 84
2, 98016, Note_on_c, 0, 64, 73
2, 98020, Control_c, 0, 64, 0
2, 98022, Note_on_c, 0, 61, 67
2, 98025, Note_on_c, 0, 81, 74
2, 98096, Note_on_c, 0, 91, 39
2, 98204, Note_on_c, 0, 91, 0
2, 98336, Control_c, 0, 64, 127
2, 98482, Note_on_c, 0, 93, 0
2, 98488, Note_on_c, 0, 55, 0
2, 98499, Note_on_c, 0, 64, 0
2, 98547, Note_on_c, 0, 81, 0
2, 98567, Note_on_c, 0, 61, 0
2, 98569, Note_on_c, 0, 88, 0
2, 98683, Note_on_c, 0, 55, 51
2, 98685, Note_on_c, 0, 64, 57
2, 98694, Note_on_c, 0, 61, 69
2, 98699, Note_on_c, 0, 93, 58
2, 98708, Note_on_c, 0, 88, 69
2, 98726, Note_on_c, 0, 81, 58
2, 98853, Control_c, 0, 64, 0
2, 98856, Note_on_c, 0, 64, 0
2, 98900, Note_on_c, 0, 93, 0
2, 98900, Note_on_c, 0, 88, 0
2, 98907, Note_on_c, 0, 81, 0
2, 98918, Note_on_c, 0, 55, 0
2, 98999, Note_on_c, 0, 55, 22
2, 99015, Note_on_c, 0, 64, 59
2, 99028, Note_on_c, 0, 93, 53
2, 99055, Note_on_c, 0, 88, 65
2, 99073, Note_on_c, 0, 81, 41
2, 99431, Note_on_c, 0, 55, 0
2, 99454, Note_on_c, 0, 64, 0
2, 99463, Note_on_c, 0, 93, 0
2, 99478, Note_on_c, 0, 81, 0
2, 99507, Note_on_c, 0, 88, 0
2, 99523, Note_on_c, 0, 61, 0
2, 99525, Note_on_c, 0, 58, 0
2, 99682, Note_on_c, 0, 88, 63
2, 99687, Note_on_c, 0, 58, 67
2, 99689, Note_on_c, 0, 61, 69
2, 99691, Note_on_c, 0, 93, 68
2, 99693, Note_on_c, 0, 64, 57
2, 99698, Note_on_c, 0, 81, 61
2, 99718, Note_on_c, 0, 55, 62
2, 99805, Note_on_c, 0, 55, 0
2, 99890, Note_on_c, 0, 64, 0
2, 99933, Note_on_c, 0, 81, 0
2, 99976, Note_on_c, 0, 93, 0
2, 99980, Note_on_c, 0, 88, 0
2, 99996, Note_on_c, 0, 61, 0
2, 100036, Note_on_c, 0, 58, 0
2, 100343, Note_on_c, 0, 90, 68
2, 100345, Note_on_c, 0, 58, 62
2, 100361, Note_on_c, 0, 61, 49
2, 100374, Note_on_c, 0, 64, 44
2, 100388, Note_on_c, 0, 78, 29
2, 100450, Note_on_c, 0, 90, 0
2, 100466, Note_on_c, 0, 64, 0
2, 100471, Note_on_c, 0, 61, 0
2, 100473, Note_on_c, 0, 78, 0
2, 100522, Note_on_c, 0, 58, 0
2, 100966, Control_c, 0, 64, 127
2, 100988, Note_on_c, 0, 90, 69
2, 100990, Note_on_c, 0, 61, 58
2, 100992, Note_on_c, 0, 58, 56
2, 100997, Note_on_c, 0, 78, 70
2, 101008, Note_on_c, 0, 64, 54
2, 101098, Note_on_c, 0, 64, 0
2, 101181, Note_on_c, 0, 78, 0
2, 101273, Note_on_c, 0, 61, 0
2, 101277, Note_on_c, 0, 90, 0
2, 101311, Note_on_c, 0, 58, 0
2, 101552, Control_c, 0, 64, 0
2, 101624, Note_on_c, 0, 91, 72
2, 101626, Note_on_c, 0, 61, 68
2, 101629, Note_on_c, 0, 79, 76
2, 101633, Note_on_c, 0, 66, 82
2, 101638, Note_on_c, 0, 58, 57
2, 101651, Note_on_c, 0, 55, 57
2, 101689, Note_on_c, 0, 89, 33
2, 101956, Control_c, 0, 64, 127
2, 102294, Note_on_c, 0, 55, 0
2, 102346, Note_on_c, 0, 91, 0
2, 102363, Note_on_c, 0, 89, 0
2, 102433, Note_on_c, 0, 79, 0
2, 102440, Note_on_c, 0, 66, 0
2, 102471, Note_on_c, 0, 58, 0
2, 102511, Note_on_c, 0, 61, 0
2, 102585, Control_c, 0, 64, 0
2, 102695, Note_on_c, 0, 61, 52
2, 102699, Note_on_c, 0, 66, 64
2, 102702, Note_on_c, 0, 88, 55
2, 102715, Note_on_c, 0, 58, 42
2, 102728, Note_on_c, 0, 76, 57
2, 102735, Note_on_c, 0, 55, 45
2, 102854, Note_on_c, 0, 55, 0
2, 102876, Control_c, 0, 64, 127
2, 102919, Note_on_c, 0, 76, 0
2, 102948, Note_on_c, 0, 66, 0
2, 103038, Note_on_c, 0, 88, 0
2, 103085, Note_on_c, 0, 58, 0
2, 103107, Note_on_c, 0, 61, 0
2, 103259, Note_on_c, 0, 61, 70
2, 103362, Note_on_c, 0, 90, 46
2, 103450, Note_on_c, 0, 90, 0
2, 103519, Note_on_c, 0, 61, 0
2, 103524, Control_c, 0, 64, 0
2, 103884, Note_on_c, 0, 80, 52
2, 103938, Note_on_c, 0, 62, 60
2, 103938, Note_on_c, 0, 66, 74
2, 103947, Note_on_c, 0, 57, 60
2, 103958, Note_on_c, 0, 74, 63
2, 103960, Note_on_c, 0, 86, 41
2, 104021, Note_on_c, 0, 81, 46
2, 104041, Note_on_c, 0, 80, 0
2, 104193, Note_on_c, 0, 74, 0
2, 104207, Note_on_c, 0, 66, 0
2, 104213, Note_on_c, 0, 86, 0
2, 104261, Note_on_c, 0, 57, 0
2, 104263, Note_on_c, 0, 81, 0
2, 104314, Note_on_c, 0, 62, 0
2, 104657, Note_on_c, 0, 66, 77
2, 104670, Control_c, 0, 64, 127
2, 104675, Note_on_c, 0, 57, 66
2, 104693, Note_on_c, 0, 86, 66
2, 104702, Note_on_c, 0, 62, 55
2, 104706, Note_on_c, 0, 74, 69
2, 104709, Note_on_c, 0, 81, 60
2, 104778, Note_on_c, 0, 62, 0
2, 104915, Note_on_c, 0, 57, 0
2, 104995, Note_on_c, 0, 66, 0
2, 105069, Note_on_c, 0, 81, 0
2, 105132, Note_on_c, 0, 74, 0
2, 105148, Note_on_c, 0, 86, 0
2, 105342, Note_on_c, 0, 62, 64
2, 105356, Note_on_c, 0, 63, 68
2, 105369, Control_c, 0, 64, 0
2, 105372, Note_on_c, 0, 67, 80
2, 105385, Note_on_c, 0, 57, 74
2, 105389, Note_on_c, 0, 86, 72
2, 105394, Note_on_c, 0, 83, 74
2, 105403, Note_on_c, 0, 74, 80
2, 105425, Note_on_c, 0, 79, 71
2, 105795, Control_c, 0, 64, 127
2, 106792, Note_on_c, 0, 62, 0
2, 106794, Note_on_c, 0, 67, 0
2, 106875, Note_on_c, 0, 57, 0
2, 106884, Note_on_c, 0, 63, 0
2, 107341, Note_on_c, 0, 74, 0
2, 107549, Control_c, 0, 64, 0
2, 107558, Note_on_c, 0, 67, 58
2, 107567, Note_on_c, 0, 56, 60
2, 107569, Note_on_c, 0, 62, 51
2, 107576, Note_on_c, 0, 79, 0
2, 107692, Note_on_c, 0, 83, 0
2, 107766, Note_on_c, 0, 86, 0
2, 108595, Note_on_c, 0, 86, 91
2, 108660, Note_on_c, 0, 90, 34
2, 108727, Note_on_c, 0, 67, 0
2, 108747, Note_on_c, 0, 90, 0
2, 108962, Note_on_c, 0, 62, 0
2, 109065, Note_on_c, 0, 87, 56
2, 109195, Note_on_c, 0, 86, 0
2, 109224, Note_on_c, 0, 62, 24
2, 109256, Note_on_c, 0, 88, 69
2, 109310, Note_on_c, 0, 87, 0
2, 109442, Note_on_c, 0, 88, 0
2, 109565, Note_on_c, 0, 89, 84
2, 109605, Note_on_c, 0, 56, 0
2, 109699, Note_on_c, 0, 62, 0
2, 110239, Note_on_c, 0, 56, 55
2, 110244, Note_on_c, 0, 62, 53
2, 110246, Note_on_c, 0, 65, 49
2, 110333, Note_on_c, 0, 65, 0
2, 110340, Note_on_c, 0, 56, 0
2, 110438, Note_on_c, 0, 62, 0
2, 110922, Note_on_c, 0, 88, 57
2, 111066, Note_on_c, 0, 87, 56
2, 111095, Note_on_c, 0, 89, 0
2, 111164, Note_on_c, 0, 88, 0
2, 111301, Note_on_c, 0, 86, 68
2, 111323, Note_on_c, 0, 87, 0
2, 111476, Note_on_c, 0, 86, 0
2, 111507, Note_on_c, 0, 60, 40
2, 111563, Note_on_c, 0, 55, 29
2, 111583, Note_on_c, 0, 57, 29
2, 111610, Note_on_c, 0, 84, 72
2, 111901, Note_on_c, 0, 55, 0
2, 111944, Note_on_c, 0, 60, 0
2, 112056, Note_on_c, 0, 84, 0
2, 112058, Note_on_c, 0, 57, 0
2, 113104, Note_on_c, 0, 63, 58
2, 113133, Note_on_c, 0, 60, 43
2, 113167, Note_on_c, 0, 57, 40
2, 113227, Note_on_c, 0, 63, 0
2, 113232, Note_on_c, 0, 60, 0
2, 113279, Note_on_c, 0, 57, 0
2, 113906, Note_on_c, 0, 79, 54
2, 114003, Note_on_c, 0, 60, 38
2, 114011, Note_on_c, 0, 79, 0
2, 114121, Note_on_c, 0, 60, 0
2, 114146, Note_on_c, 0, 84, 58
2, 114383, Note_on_c, 0, 84, 0
2, 114473, Note_on_c, 0, 87, 57
2, 114549, Note_on_c, 0, 87, 0
2, 114782, Note_on_c, 0, 91, 66
2, 114907, Note_on_c, 0, 91, 0
2, 115051, Note_on_c, 0, 96, 70
2, 115080, Note_on_c, 0, 60, 57
2, 115102, Note_on_c, 0, 64, 55
2, 115147, Note_on_c, 0, 54, 35
2, 115190, Note_on_c, 0, 64, 0
2, 115270, Note_on_c, 0, 96, 0
2, 115324, Note_on_c, 0, 60, 0
2, 115362, Note_on_c, 0, 99, 75
2, 115364, Note_on_c, 0, 54, 0
2, 115756, Note_on_c, 0, 99, 0
2, 115897, Note_on_c, 0, 101, 75
2, 115958, Note_on_c, 0, 60, 34
2, 115960, Note_on_c, 0, 64, 48
2, 115980, Note_on_c, 0, 54, 36
2, 116070, Note_on_c, 0, 64, 0
2, 116186, Note_on_c, 0, 101, 0
2, 116198, Note_on_c, 0, 54, 0
2, 116227, Note_on_c, 0, 60, 0
2, 116377, Note_on_c, 0, 98, 39
2, 116652, Note_on_c, 0, 98, 0
2, 116863, Note_on_c, 0, 96, 66
2, 116901, Note_on_c, 0, 60, 54
2, 116923, Note_on_c, 0, 64, 40
2, 116955, Note_on_c, 0, 54, 32
2, 117015, Note_on_c, 0, 64, 0
2, 117062, Note_on_c, 0, 54, 0
2, 117143, Note_on_c, 0, 96, 0
2, 117181, Note_on_c, 0, 60, 0
2, 117298, Note_on_c, 0, 94, 38
2, 117685, Note_on_c, 0, 94, 0
2, 117741, Note_on_c, 0, 95, 70
2, 117772, Note_on_c, 0, 60, 51
2, 117781, Note_on_c, 0, 54, 55
2, 117851, Note_on_c, 0, 60, 0
2, 117992, Note_on_c, 0, 95, 0
2, 118001, Note_on_c, 0, 54, 0
2, 118211, Note_on_c, 0, 96, 64
2, 118482, Note_on_c, 0, 96, 0
2, 118740, Note_on_c, 0, 97, 71
2, 118751, Note_on_c, 0, 50, 85
2, 118758, Note_on_c, 0, 49, 67
2, 118993, Note_on_c, 0, 97, 0
2, 119072, Note_on_c, 0, 49, 0
2, 119242, Note_on_c, 0, 98, 55
2, 119446, Note_on_c, 0, 98, 0
2, 119685, Note_on_c, 0, 49, 35
2, 119773, Note_on_c, 0, 98, 74
2, 119775, Note_on_c, 0, 95, 82
2, 119994, Note_on_c, 0, 98, 0
2, 119999, Note_on_c, 0, 49, 0
2, 120033, Note_on_c, 0, 95, 0
2, 120187, Note_on_c, 0, 91, 36
2, 120615, Note_on_c, 0, 91, 0
2, 120702, Note_on_c, 0, 86, 59
2, 120716, Note_on_c, 0, 49, 34
2, 120895, Note_on_c, 0, 86, 0
2, 120973, Note_on_c, 0, 49, 0
2, 121099, Note_on_c, 0, 83, 44
2, 121186, Note_on_c, 0, 50, 0
2, 121553, Note_on_c, 0, 83, 0
2, 121630, Note_on_c, 0, 50, 84
2, 121654, Note_on_c, 0, 49, 62
2, 121827, Note_on_c, 0, 49, 0
2, 123605, Note_on_c, 0, 50, 0
2, 123612, Note_on_c, 0, 49, 48
2, 123729, Note_on_c, 0, 49, 0
2, 123852, Note_on_c, 0, 69, 74
2, 123876, Note_on_c, 0, 60, 80
2, 123879, Note_on_c, 0, 64, 75
2, 123926, Note_on_c, 0, 68, 37
2, 123955, Note_on_c, 0, 59, 82
2, 124011, Note_on_c, 0, 68, 0
2, 124450, Note_on_c, 0, 69, 0
2, 124501, Note_on_c, 0, 60, 0
2, 124539, Note_on_c, 0, 64, 0
2, 124631, Note_on_c, 0, 59, 0
2, 124676, Note_on_c, 0, 57, 45
2, 124777, Note_on_c, 0, 57, 0
2, 124846, Note_on_c, 0, 71, 81
2, 124860, Note_on_c, 0, 64, 79
2, 124864, Note_on_c, 0, 60, 81
2, 124878, Note_on_c, 0, 67, 62
2, 124889, Note_on_c, 0, 59, 71
2, 125339, Note_on_c, 0, 67, 0
2, 125406, Note_on_c, 0, 64, 0
2, 125438, Note_on_c, 0, 71, 0
2, 125444, Note_on_c, 0, 60, 0
2, 125451, Note_on_c, 0, 59, 0
2, 125518, Note_on_c, 0, 54, 39
2, 125792, Note_on_c, 0, 64, 69
2, 125796, Note_on_c, 0, 69, 57
2, 125798, Note_on_c, 0, 54, 0
2, 125803, Note_on_c, 0, 57, 57
2, 125823, Note_on_c, 0, 60, 60
2, 125834, Note_on_c, 0, 66, 42
2, 126141, Note_on_c, 0, 64, 0
2, 126195, Note_on_c, 0, 66, 0
2, 126217, Note_on_c, 0, 69, 0
2, 126264, Note_on_c, 0, 60, 0
2, 126322, Note_on_c, 0, 57, 0
2, 126419, Note_on_c, 0, 51, 48
2, 126670, Note_on_c, 0, 51, 0
2, 126739, Note_on_c, 0, 57, 59
2, 126753, Note_on_c, 0, 54, 59
2, 126761, Note_on_c, 0, 62, 53
2, 126764, Note_on_c, 0, 59, 57
2, 126766, Note_on_c, 0, 66, 60
2, 127386, Note_on_c, 0, 62, 0
2, 127525, Note_on_c, 0, 54, 0
2, 127550, Note_on_c, 0, 59, 0
2, 127563, Note_on_c, 0, 57, 0
2, 127619, Note_on_c, 0, 66, 0
2, 127687, Note_on_c, 0, 62, 42
2, 128262, Note_on_c, 0, 62, 0
2, 128399, Note_on_c, 0, 59, 30
2, 128540, Note_on_c, 0, 59, 0
2, 128719, Note_on_c, 0, 62, 43
2, 129344, Note_on_c, 0, 62, 0
2, 129378, Note_on_c, 0, 54, 62
2, 130339, Note_on_c, 0, 45, 62
2, 130516, Note_on_c, 0, 45, 0
2, 131215, Note_on_c, 0, 54, 0
2, 131349, Note_on_c, 0, 52, 44
2, 131537, Note_on_c, 0, 52, 0
2, 131602, Note_on_c, 0, 59, 58
2, 132115, Note_on_c, 0, 59, 0
2, 132272, Note_on_c, 0, 52, 36
2, 132288, Note_on_c, 0, 56, 30
2, 132496, Note_on_c, 0, 52, 0
2, 132507, Note_on_c, 0, 56, 0
2, 132574, Note_on_c, 0, 57, 36
2, 133011, Note_on_c, 0, 57, 0
2, 133152, Note_on_c, 0, 58, 69
2, 133334, Note_on_c, 0, 50, 36
2, 133419, Note_on_c, 0, 58, 0
2, 133437, Note_on_c, 0, 50, 0
2, 133571, Note_on_c, 0, 59, 36
2, 133985, Note_on_c, 0, 59, 0
2, 134100, Note_on_c, 0, 62, 60
2, 134124, Note_on_c, 0, 54, 59
2, 134180, Note_on_c, 0, 43, 30
2, 134274, Note_on_c, 0, 43, 0
2, 134304, Note_on_c, 0, 54, 0
2, 134386, Note_on_c, 0, 62, 0
2, 134575, Note_on_c, 0, 66, 42
2, 134913, Note_on_c, 0, 66, 0
2, 135103, Note_on_c, 0, 69, 43
2, 135372, Note_on_c, 0, 69, 0
2, 135435, Note_on_c, 0, 74, 51
2, 135889, Note_on_c, 0, 74, 0
2, 136031, Note_on_c, 0, 78, 64
2, 136100, Note_on_c, 0, 59, 45
2, 136120, Note_on_c, 0, 62, 40
2, 136199, Note_on_c, 0, 59, 0
2, 136208, Note_on_c, 0, 62, 0
2, 136277, Note_on_c, 0, 78, 0
2, 136391, Note_on_c, 0, 79, 79
2, 136803, Note_on_c, 0, 79, 0
2, 136960, Note_on_c, 0, 78, 36
2, 137115, Note_on_c, 0, 55, 31
2, 137151, Note_on_c, 0, 59, 24
2, 137169, Note_on_c, 0, 78, 0
2, 137236, Note_on_c, 0, 55, 0
2, 137247, Note_on_c, 0, 59, 0
2, 137330, Note_on_c, 0, 79, 77
2, 137413, Note_on_c, 0, 78, 29
2, 137498, Note_on_c, 0, 78, 0
2, 137874, Note_on_c, 0, 79, 0
2, 137973, Note_on_c, 0, 76, 65
2, 138056, Note_on_c, 0, 64, 35
2, 138091, Note_on_c, 0, 60, 34
2, 138172, Note_on_c, 0, 59, 28
2, 138224, Note_on_c, 0, 76, 0
2, 138394, Note_on_c, 0, 72, 34
2, 138454, Note_on_c, 0, 60, 0
2, 138631, Note_on_c, 0, 59, 0
2, 138900, Note_on_c, 0, 64, 0
2, 138911, Note_on_c, 0, 72, 0
2, 140188, Note_on_c, 0, 64, 41
2, 140197, Note_on_c, 0, 54, 42
2, 140224, Note_on_c, 0, 60, 34
2, 140307, Note_on_c, 0, 64, 0
2, 140322, Note_on_c, 0, 60, 0
2, 140423, Note_on_c, 0, 54, 0
2, 141162, Note_on_c, 0, 83, 105
2, 141637, Note_on_c, 0, 83, 0
2, 141825, Note_on_c, 0, 59, 57
2, 141828, Note_on_c, 0, 62, 47
2, 141832, Note_on_c, 0, 54, 49
2, 141834, Note_on_c, 0, 84, 74
2, 141915, Note_on_c, 0, 62, 0
2, 141958, Note_on_c, 0, 59, 0
2, 141987, Note_on_c, 0, 84, 0
2, 142000, Note_on_c, 0, 54, 0
2, 142121, Note_on_c, 0, 86, 84
2, 142177, Note_on_c, 0, 84, 33
2, 142265, Note_on_c, 0, 84, 0
2, 142607, Note_on_c, 0, 86, 0
2, 142762, Note_on_c, 0, 83, 63
2, 143017, Note_on_c, 0, 83, 0
2, 143022, Note_on_c, 0, 78, 51
2, 143712, Note_on_c, 0, 78, 0
2, 143978, Note_on_c, 0, 54, 38
2, 143983, Note_on_c, 0, 62, 30
2, 144009, Note_on_c, 0, 59, 41
2, 144048, Note_on_c, 0, 78, 59
2, 144375, Note_on_c, 0, 54, 0
2, 144384, Note_on_c, 0, 62, 0
2, 144424, Note_on_c, 0, 59, 0
2, 144522, Note_on_c, 0, 78, 0
2, 145752, Note_on_c, 0, 62, 63
2, 145772, Note_on_c, 0, 59, 58
2, 145819, Note_on_c, 0, 55, 36
2, 145826, Note_on_c, 0, 62, 0
2, 145862, Note_on_c, 0, 59, 0
2, 145900, Note_on_c, 0, 82, 61
2, 145936, Note_on_c, 0, 55, 0
2, 145976, Note_on_c, 0, 70, 71
2, 146254, Note_on_c, 0, 82, 0
2, 146321, Note_on_c, 0, 70, 0
2, 146326, Note_on_c, 0, 71, 62
2, 146617, Note_on_c, 0, 71, 0
2, 146641, Note_on_c, 0, 83, 46
2, 146836, Note_on_c, 0, 71, 44
2, 146845, Note_on_c, 0, 83, 0
2, 147143, Note_on_c, 0, 83, 34
2, 147150, Note_on_c, 0, 71, 0
2, 147578, Note_on_c, 0, 83, 0
2, 147667, Note_on_c, 0, 71, 52
2, 147719, Note_on_c, 0, 62, 52
2, 147766, Note_on_c, 0, 71, 0
2, 147795, Note_on_c, 0, 62, 0
2, 147992, Note_on_c, 0, 86, 70
2, 148019, Note_on_c, 0, 74, 68
2, 148483, Note_on_c, 0, 86, 0
2, 148559, Note_on_c, 0, 74, 0
2, 149435, Note_on_c, 0, 66, 64
2, 149457, Note_on_c, 0, 62, 50
2, 149464, Note_on_c, 0, 57, 48
2, 149574, Note_on_c, 0, 57, 0
2, 149580, Note_on_c, 0, 66, 0
2, 149621, Note_on_c, 0, 62, 0
2, 150441, Note_on_c, 0, 78, 80
2, 150747, Note_on_c, 0, 78, 0
2, 150839, Note_on_c, 0, 74, 53
2, 151314, Note_on_c, 0, 74, 0
2, 151422, Note_on_c, 0, 66, 54
2, 151464, Note_on_c, 0, 62, 36
2, 151496, Note_on_c, 0, 57, 27
2, 151505, Note_on_c, 0, 66, 0
2, 151639, Note_on_c, 0, 62, 0
2, 151655, Note_on_c, 0, 57, 0
2, 151711, Note_on_c, 0, 74, 80
2, 152194, Note_on_c, 0, 74, 0
2, 153348, Note_on_c, 0, 78, 74
2, 153366, Note_on_c, 0, 62, 54
2, 153388, Note_on_c, 0, 59, 40
2, 153442, Note_on_c, 0, 62, 0
2, 153451, Note_on_c, 0, 55, 30
2, 153505, Note_on_c, 0, 59, 0
2, 153686, Note_on_c, 0, 78, 0
2, 153794, Note_on_c, 0, 55, 0
2, 153865, Note_on_c, 0, 74, 34
2, 154260, Note_on_c, 0, 74, 0
2, 154455, Note_on_c, 0, 55, 29
2, 154585, Note_on_c, 0, 55, 0
2, 154614, Note_on_c, 0, 75, 82
2, 155160, Note_on_c, 0, 75, 0
2, 155386, Note_on_c, 0, 55, 22
2, 155552, Note_on_c, 0, 76, 88
2, 155579, Note_on_c, 0, 55, 0
2, 156045, Note_on_c, 0, 76, 0
2, 156170, Note_on_c, 0, 71, 63
2, 156249, Note_on_c, 0, 59, 34
2, 156276, Note_on_c, 0, 55, 25
2, 156388, Note_on_c, 0, 59, 0
2, 156473, Note_on_c, 0, 71, 0
2, 156531, Note_on_c, 0, 67, 43
2, 156569, Note_on_c, 0, 55, 0
2, 156981, Note_on_c, 0, 67, 0
2, 157203, Note_on_c, 0, 54, 42
2, 157279, Note_on_c, 0, 54, 0
2, 157346, Note_on_c, 0, 57, 29
2, 157449, Note_on_c, 0, 57, 0
2, 157488, Note_on_c, 0, 71, 63
2, 157508, Note_on_c, 0, 59, 61
2, 157512, Note_on_c, 0, 64, 48
2, 157535, Note_on_c, 0, 60, 27
2, 157868, Note_on_c, 0, 71, 0
2, 157931, Note_on_c, 0, 64, 0
2, 157951, Note_on_c, 0, 60, 0
2, 158061, Note_on_c, 0, 59, 0
2, 158128, Note_on_c, 0, 70, 61
2, 158133, Note_on_c, 0, 58, 56
2, 158148, Note_on_c, 0, 64, 46
2, 158160, Note_on_c, 0, 60, 45
2, 158316, Note_on_c, 0, 60, 0
2, 158328, Note_on_c, 0, 70, 0
2, 158413, Note_on_c, 0, 58, 0
2, 158428, Note_on_c, 0, 57, 48
2, 158460, Note_on_c, 0, 69, 22
2, 158594, Note_on_c, 0, 60, 11
2, 158986, Note_on_c, 0, 69, 0
2, 158988, Note_on_c, 0, 60, 0
2, 159051, Note_on_c, 0, 57, 0
2, 159065, Note_on_c, 0, 64, 0
2, 159085, Note_on_c, 0, 54, 40
2, 159383, Note_on_c, 0, 54, 0
2, 159423, Note_on_c, 0, 60, 40
2, 159425, Note_on_c, 0, 64, 41
2, 159470, Note_on_c, 0, 55, 27
2, 159871, Note_on_c, 0, 60, 0
2, 159896, Note_on_c, 0, 64, 0
2, 160048, Note_on_c, 0, 55, 0
2, 160108, Note_on_c, 0, 54, 42
2, 160306, Note_on_c, 0, 54, 0
2, 160348, Note_on_c, 0, 62, 58
2, 161031, Note_on_c, 0, 66, 71
2, 161101, Note_on_c, 0, 62, 0
2, 162042, Note_on_c, 0, 57, 56
2, 162116, Note_on_c, 0, 50, 30
2, 162124, Note_on_c, 0, 57, 0
2, 162203, Note_on_c, 0, 50, 0
2, 162960, Note_on_c, 0, 57, 61
2, 163045, Note_on_c, 0, 57, 0
2, 163148, Note_on_c, 0, 66, 0
2, 163249, Note_on_c, 0, 62, 46
2, 163713, Note_on_c, 0, 62, 0
2, 163865, Note_on_c, 0, 64, 53
2, 163964, Note_on_c, 0, 57, 40
2, 164066, Note_on_c, 0, 57, 0
2, 164098, Note_on_c, 0, 64, 0
2, 164293, Note_on_c, 0, 65, 52
2, 164736, Note_on_c, 0, 65, 0
2, 164886, Note_on_c, 0, 66, 54
2, 164898, Note_on_c, 0, 57, 64
2, 164916, Note_on_c, 0, 47, 56
2, 165086, Note_on_c, 0, 57, 0
2, 165090, Note_on_c, 0, 47, 0
2, 165122, Note_on_c, 0, 66, 0
2, 165343, Note_on_c, 0, 67, 55
2, 165729, Note_on_c, 0, 67, 0
2, 165876, Note_on_c, 0, 68, 52
2, 166076, Note_on_c, 0, 68, 0
2, 166298, Note_on_c, 0, 69, 32
2, 166658, Note_on_c, 0, 69, 0
2, 166761, Note_on_c, 0, 66, 61
2, 166772, Note_on_c, 0, 70, 62
2, 166784, Note_on_c, 0, 61, 32
2, 166811, Note_on_c, 0, 57, 32
2, 166844, Note_on_c, 0, 62, 32
2, 166864, Note_on_c, 0, 66, 0
2, 166934, Note_on_c, 0, 57, 0
2, 166938, Note_on_c, 0, 62, 0
2, 166967, Note_on_c, 0, 70, 0
2, 167212, Note_on_c, 0, 71, 43
2, 167245, Note_on_c, 0, 61, 0
2, 167550, Note_on_c, 0, 71, 0
2, 167760, Note_on_c, 0, 74, 68
2, 167857, Note_on_c, 0, 61, 39
2, 167886, Note_on_c, 0, 66, 31
2, 167942, Note_on_c, 0, 61, 0
2, 167962, Note_on_c, 0, 66, 0
2, 168009, Note_on_c, 0, 74, 0
2, 168177, Note_on_c, 0, 78, 45
2, 168378, Note_on_c, 0, 78, 0
2, 168674, Note_on_c, 0, 81, 63
2, 168806, Note_on_c, 0, 63, 38
2, 168907, Note_on_c, 0, 63, 0
2, 168929, Note_on_c, 0, 81, 0
2, 169089, Note_on_c, 0, 86, 58
2, 169395, Note_on_c, 0, 86, 0
2, 169570, Note_on_c, 0, 90, 67
2, 169575, Note_on_c, 0, 66, 68
2, 169584, Note_on_c, 0, 62, 55
2, 169633, Note_on_c, 0, 57, 33
2, 169731, Note_on_c, 0, 66, 0
2, 169763, Note_on_c, 0, 57, 0
2, 169821, Note_on_c, 0, 90, 0
2, 169993, Note_on_c, 0, 62, 0
2, 170000, Note_on_c, 0, 91, 80
2, 170338, Note_on_c, 0, 91, 0
2, 170491, Note_on_c, 0, 66, 54
2, 170522, Note_on_c, 0, 62, 47
2, 170540, Note_on_c, 0, 90, 39
2, 170574, Note_on_c, 0, 66, 0
2, 170726, Note_on_c, 0, 90, 0
2, 170793, Note_on_c, 0, 62, 0
2, 170928, Note_on_c, 0, 91, 85
2, 171288, Note_on_c, 0, 91, 0
2, 171425, Note_on_c, 0, 90, 62
2, 171449, Note_on_c, 0, 66, 65
2, 171467, Note_on_c, 0, 62, 51
2, 171479, Note_on_c, 0, 57, 43
2, 171622, Note_on_c, 0, 57, 0
2, 171629, Note_on_c, 0, 66, 0
2, 171667, Note_on_c, 0, 62, 0
2, 171841, Note_on_c, 0, 86, 50
2, 172258, Note_on_c, 0, 86, 0
2, 172446, Note_on_c, 0, 90, 0
2, 172657, Note_on_c, 0, 62, 27
2, 172668, Note_on_c, 0, 59, 24
2, 172670, Note_on_c, 0, 55, 22
2, 172702, Note_on_c, 0, 52, 32
2, 172798, Note_on_c, 0, 90, 60
2, 172836, Note_on_c, 0, 78, 60
2, 172879, Note_on_c, 0, 86, 47
2, 173208, Note_on_c, 0, 86, 0
2, 173257, Note_on_c, 0, 62, 0
2, 173266, Note_on_c, 0, 59, 0
2, 173282, Note_on_c, 0, 52, 0
2, 173336, Note_on_c, 0, 55, 0
2, 173340, Note_on_c, 0, 90, 0
2, 173347, Note_on_c, 0, 78, 0
2, 173448, Note_on_c, 0, 62, 53
2, 173468, Note_on_c, 0, 91, 67
2, 173483, Note_on_c, 0, 59, 49
2, 173486, Note_on_c, 0, 52, 51
2, 173501, Note_on_c, 0, 79, 44
2, 173504, Note_on_c, 0, 86, 50
2, 173515, Note_on_c, 0, 55, 60
2, 173672, Note_on_c, 0, 91, 0
2, 173683, Note_on_c, 0, 79, 0
2, 173813, Note_on_c, 0, 91, 34
2, 173882, Note_on_c, 0, 79, 25
2, 174247, Note_on_c, 0, 86, 0
2, 174250, Note_on_c, 0, 79, 0
2, 174261, Note_on_c, 0, 91, 0
2, 174276, Note_on_c, 0, 52, 0
2, 174323, Note_on_c, 0, 62, 0
2, 174353, Note_on_c, 0, 55, 0
2, 174370, Note_on_c, 0, 59, 0
2, 174816, Note_on_c, 0, 62, 57
2, 174836, Note_on_c, 0, 59, 42
2, 174841, Note_on_c, 0, 91, 66
2, 174857, Note_on_c, 0, 52, 40
2, 174859, Note_on_c, 0, 55, 45
2, 174863, Note_on_c, 0, 86, 62
2, 174879, Note_on_c, 0, 79, 47
2, 175193, Note_on_c, 0, 62, 0
2, 175231, Note_on_c, 0, 52, 0
2, 175242, Note_on_c, 0, 59, 0
2, 175253, Note_on_c, 0, 91, 0
2, 175266, Note_on_c, 0, 86, 0
2, 175278, Note_on_c, 0, 55, 0
2, 175293, Note_on_c, 0, 79, 0
2, 178573, Note_on_c, 0, 71, 79
2, 178591, Note_on_c, 0, 67, 66
2, 178595, Note_on_c, 0, 79, 79
2, 178604, Note_on_c, 0, 69, 84
2, 178615, Note_on_c, 0, 65, 66
2, 178624, Note_on_c, 0, 74, 56
2, 178817, Note_on_c, 0, 65, 0
2, 178918, Note_on_c, 0, 74, 0
2, 178945, Note_on_c, 0, 67, 0
2, 178983, Note_on_c, 0, 69, 0
2, 179001, Note_on_c, 0, 71, 0
2, 179048, Note_on_c, 0, 79, 0
2, 179507, Note_on_c, 0, 78, 76
2, 179514, Note_on_c, 0, 62, 44
2, 179518, Note_on_c, 0, 69, 71
2, 179522, Note_on_c, 0, 64, 43
2, 179536, Note_on_c, 0, 71, 62
2, 179668, Note_on_c, 0, 64, 0
2, 179673, Note_on_c, 0, 62, 0
2, 179910, Note_on_c, 0, 71, 0
2, 179997, Note_on_c, 0, 69, 0
2, 180141, Note_on_c, 0, 78, 0
2, 180486, Note_on_c, 0, 66, 72
2, 180495, Note_on_c, 0, 62, 54
2, 180497, Note_on_c, 0, 74, 82
2, 180501, Note_on_c, 0, 57, 59
2, 180519, Note_on_c, 0, 69, 73
2, 182143, Note_on_c, 0, 57, 0
2, 182170, Note_on_c, 0, 69, 0
2, 182302, Note_on_c, 0, 66, 0
2, 182307, Note_on_c, 0, 74, 0
2, 182439, Note_on_c, 0, 76, 69
2, 182441, Note_on_c, 0, 67, 69
2, 182457, Note_on_c, 0, 56, 71
2, 182466, Note_on_c, 0, 72, 66
2, 182502, Control_c, 0, 64, 127
2, 183274, Note_on_c, 0, 67, 0
2, 183366, Note_on_c, 0, 62, 0
2, 183431, Note_on_c, 0, 72, 0
2, 183501, Note_on_c, 0, 76, 0
2, 183653, Note_on_c, 0, 56, 0
2, 184276, Control_c, 0, 64, 0
2, 184370, Note_on_c, 0, 57, 71
2, 184372, Note_on_c, 0, 64, 80
2, 184377, Note_on_c, 0, 55, 71
2, 184386, Note_on_c, 0, 86, 80
2, 184388, Note_on_c, 0, 60, 66
2, 184401, Note_on_c, 0, 74, 89
2, 184408, Note_on_c, 0, 83, 74
2, 184412, Note_on_c, 0, 79, 79
2, 184506, Control_c, 0, 64, 127
2, 184742, Note_on_c, 0, 64, 0
2, 184746, Note_on_c, 0, 55, 0
2, 184762, Note_on_c, 0, 74, 0
2, 184786, Note_on_c, 0, 79, 0
2, 184813, Note_on_c, 0, 86, 0
2, 184838, Note_on_c, 0, 60, 0
2, 184854, Note_on_c, 0, 57, 0
2, 184869, Note_on_c, 0, 83, 0
2, 185055, Note_on_c, 0, 57, 57
2, 185058, Note_on_c, 0, 60, 58
2, 185064, Note_on_c, 0, 64, 68
2, 185069, Note_on_c, 0, 55, 67
2, 185082, Note_on_c, 0, 88, 65
2, 185087, Note_on_c, 0, 76, 71
2, 185120, Note_on_c, 0, 81, 40
2, 185156, Note_on_c, 0, 64, 0
2, 185201, Control_c, 0, 64, 0
2, 185212, Note_on_c, 0, 76, 0
2, 185221, Note_on_c, 0, 60, 0
2, 185223, Note_on_c, 0, 81, 0
2, 185250, Note_on_c, 0, 55, 0
2, 185264, Note_on_c, 0, 88, 0
2, 185315, Note_on_c, 0, 57, 0
2, 185969, Note_on_c, 0, 60, 68
2, 185971, Note_on_c, 0, 63, 82
2, 185983, Note_on_c, 0, 91, 80
2, 185985, Note_on_c, 0, 79, 80
2, 185989, Note_on_c, 0, 84, 78
2, 186001, Note_on_c, 0, 53, 53
2, 186012, Note_on_c, 0, 58, 61
2, 186151, Note_on_c, 0, 63, 0
2, 186162, Note_on_c, 0, 79, 0
2, 186200, Note_on_c, 0, 84, 0
2, 186243, Control_c, 0, 64, 127
2, 186292, Note_on_c, 0, 53, 0
2, 186296, Note_on_c, 0, 91, 0
2, 186314, Note_on_c, 0, 60, 0
2, 186424, Note_on_c, 0, 58, 0
2, 186872, Control_c, 0, 64, 0
2, 186950, Note_on_c, 0, 58, 77
2, 186955, Note_on_c, 0, 63, 90
2, 186964, Note_on_c, 0, 60, 77
2, 186973, Note_on_c, 0, 54, 74
2, 186975, Note_on_c, 0, 96, 84
2, 186984, Note_on_c, 0, 91, 87
2, 186986, Note_on_c, 0, 84, 90
2, 187298, Control_c, 0, 64, 127
2, 187640, Note_on_c, 0, 96, 0
2, 187658, Note_on_c, 0, 60, 0
2, 187764, Note_on_c, 0, 91, 0
2, 187813, Note_on_c, 0, 84, 0
2, 187855, Note_on_c, 0, 63, 0
2, 187907, Note_on_c, 0, 58, 0
2, 187936, Note_on_c, 0, 54, 0
2, 188151, Control_c, 0, 64, 0
2, 188182, Note_on_c, 0, 59, 83
2, 188189, Note_on_c, 0, 62, 87
2, 188191, Note_on_c, 0, 95, 85
2, 188194, Note_on_c, 0, 54, 83
2, 188196, Note_on_c, 0, 90, 81
2, 188214, Note_on_c, 0, 83, 77
2, 188498, Note_on_c, 0, 95, 0
2, 188509, Note_on_c, 0, 62, 0
2, 188512, Note_on_c, 0, 54, 0
2, 188532, Note_on_c, 0, 83, 0
2, 188548, Note_on_c, 0, 90, 0
2, 188581, Note_on_c, 0, 59, 0
2, 189168, Note_on_c, 0, 78, 74
2, 189173, Note_on_c, 0, 90, 70
2, 189190, Note_on_c, 0, 59, 67
2, 189193, Note_on_c, 0, 62, 70
2, 189195, Note_on_c, 0, 54, 69
2, 189672, Note_on_c, 0, 90, 0
2, 190176, Control_c, 0, 64, 127
2, 190187, Note_on_c, 0, 78, 0
2, 190490, Note_on_c, 0, 62, 0
2, 190620, Note_on_c, 0, 54, 0
2, 190693, Note_on_c, 0, 59, 0
2, 190859, Note_on_c, 0, 86, 67
2, 190873, Note_on_c, 0, 74, 69
2, 190904, Note_on_c, 0, 54, 52
2, 190922, Note_on_c, 0, 62, 62
2, 190994, Note_on_c, 0, 59, 28
2, 191045, Note_on_c, 0, 86, 0
2, 191092, Note_on_c, 0, 59, 0
2, 191119, Note_on_c, 0, 74, 0
2, 191244, Note_on_c, 0, 54, 0
2, 191659, Note_on_c, 0, 61, 49
2, 191804, Note_on_c, 0, 79, 80
2, 191822, Note_on_c, 0, 76, 80
2, 191825, Note_on_c, 0, 72, 82
2, 191827, Note_on_c, 0, 69, 82
2, 191858, Note_on_c, 0, 64, 83
2, 191905, Control_c, 0, 64, 0
2, 191964, Note_on_c, 0, 62, 0
2, 191977, Note_on_c, 0, 61, 0
2, 192631, Note_on_c, 0, 76, 0
2, 192667, Note_on_c, 0, 79, 0
2, 192727, Note_on_c, 0, 72, 0
2, 192817, Note_on_c, 0, 69, 0
2, 193012, Note_on_c, 0, 60, 53
2, 193014, Note_on_c, 0, 76, 61
2, 193045, Note_on_c, 0, 67, 57
2, 193066, Note_on_c, 0, 72, 50
2, 193068, Note_on_c, 0, 69, 54
2, 193072, Note_on_c, 0, 64, 0
2, 193337, Note_on_c, 0, 72, 0
2, 193393, Note_on_c, 0, 69, 0
2, 193402, Note_on_c, 0, 76, 0
2, 193628, Note_on_c, 0, 67, 0
2, 193791, Note_on_c, 0, 58, 39
2, 193944, Note_on_c, 0, 60, 0
2, 193979, Note_on_c, 0, 74, 67
2, 193991, Note_on_c, 0, 58, 0
2, 194020, Note_on_c, 0, 62, 58
2, 194027, Note_on_c, 0, 63, 61
2, 194029, Note_on_c, 0, 66, 55
2, 194035, Note_on_c, 0, 69, 47
2, 194425, Note_on_c, 0, 74, 0
2, 194475, Note_on_c, 0, 63, 0
2, 194481, Note_on_c, 0, 69, 0
2, 194551, Note_on_c, 0, 66, 0
2, 194802, Note_on_c, 0, 62, 0
2, 194882, Note_on_c, 0, 72, 53
2, 194887, Note_on_c, 0, 63, 59
2, 194896, Note_on_c, 0, 57, 49
2, 194916, Note_on_c, 0, 66, 49
2, 194983, Note_on_c, 0, 69, 35
2, 195373, Note_on_c, 0, 72, 0
2, 195465, Note_on_c, 0, 63, 0
2, 195565, Note_on_c, 0, 66, 0
2, 195619, Note_on_c, 0, 69, 0
2, 195691, Note_on_c, 0, 57, 0
2, 195805, Note_on_c, 0, 71, 41
2, 195839, Note_on_c, 0, 67, 54
2, 195850, Note_on_c, 0, 62, 53
2, 196242, Note_on_c, 0, 71, 0
2, 196260, Note_on_c, 0, 67, 0
2, 196490, Note_on_c, 0, 50, 89
2, 196497, Note_on_c, 0, 62, 0
2, 196538, Note_on_c, 0, 49, 70
2, 196708, Note_on_c, 0, 49, 0
2, 197539, Note_on_c, 0, 49, 34
2, 197693, Note_on_c, 0, 49, 0
2, 198592, Note_on_c, 0, 49, 32
2, 198672, Note_on_c, 0, 49, 0
2, 198829, Note_on_c, 0, 62, 103
2, 199763, Note_on_c, 0, 50, 0
2, 200428, Note_on_c, 0, 50, 50
2, 200455, Note_on_c, 0, 61, 46
2, 200507, Note_on_c, 0, 60, 74
2, 200516, Note_on_c, 0, 50, 0
2, 200531, Note_on_c, 0, 62, 0
2, 200612, Note_on_c, 0, 61, 0
2, 200791, Note_on_c, 0, 60, 0
2, 200805, Note_on_c, 0, 59, 52
2, 201338, Note_on_c, 0, 59, 0
2, 201394, Note_on_c, 0, 60, 67
2, 201707, Note_on_c, 0, 60, 0
2, 201909, Note_on_c, 0, 61, 45
2, 202321, Note_on_c, 0, 50, 58
2, 202323, Note_on_c, 0, 61, 0
2, 202328, Note_on_c, 0, 62, 74
2, 202404, Note_on_c, 0, 50, 0
2, 202738, Note_on_c, 0, 63, 48
2, 202754, Note_on_c, 0, 62, 0
2, 203184, Note_on_c, 0, 63, 0
2, 203235, Note_on_c, 0, 64, 62
2, 203264, Note_on_c, 0, 57, 43
2, 203266, Note_on_c, 0, 60, 46
2, 203275, Note_on_c, 0, 50, 34
2, 203336, Note_on_c, 0, 53, 31
2, 203502, Note_on_c, 0, 64, 0
2, 203515, Note_on_c, 0, 60, 0
2, 203596, Note_on_c, 0, 67, 42
2, 203779, Note_on_c, 0, 57, 0
2, 204147, Note_on_c, 0, 67, 0
2, 204223, Note_on_c, 0, 64, 51
2, 204266, Note_on_c, 0, 57, 36
2, 204375, Note_on_c, 0, 60, 18
2, 204382, Note_on_c, 0, 53, 0
2, 204391, Note_on_c, 0, 57, 0
2, 204398, Note_on_c, 0, 64, 0
2, 204400, Note_on_c, 0, 50, 0
2, 204507, Note_on_c, 0, 60, 0
2, 204550, Note_on_c, 0, 65, 49
2, 205162, Note_on_c, 0, 69, 57
2, 205164, Note_on_c, 0, 65, 0
2, 205247, Note_on_c, 0, 60, 34
2, 205251, Note_on_c, 0, 64, 32
2, 205289, Note_on_c, 0, 57, 32
2, 205354, Note_on_c, 0, 64, 0
2, 205421, Note_on_c, 0, 69, 0
2, 205477, Note_on_c, 0, 72, 51
2, 205578, Note_on_c, 0, 60, 0
2, 205636, Note_on_c, 0, 57, 0
2, 205858, Note_on_c, 0, 72, 0
2, 206154, Note_on_c, 0, 76, 69
2, 206212, Note_on_c, 0, 60, 43
2, 206237, Note_on_c, 0, 64, 37
2, 206264, Note_on_c, 0, 57, 35
2, 206344, Note_on_c, 0, 76, 0
2, 206432, Note_on_c, 0, 67, 75
2, 206436, Note_on_c, 0, 79, 80
2, 206842, Note_on_c, 0, 60, 0
2, 206844, Note_on_c, 0, 64, 0
2, 207014, Note_on_c, 0, 79, 0
2, 207016, Note_on_c, 0, 67, 0
2, 207106, Note_on_c, 0, 57, 0
2, 207370, Note_on_c, 0, 64, 40
2, 207386, Note_on_c, 0, 59, 45
2, 207473, Note_on_c, 0, 53, 18
2, 207802, Note_on_c, 0, 64, 0
2, 207823, Note_on_c, 0, 53, 0
2, 207852, Note_on_c, 0, 59, 0
2, 208974, Note_on_c, 0, 63, 68
2, 208992, Note_on_c, 0, 59, 55
2, 209003, Note_on_c, 0, 53, 40
2, 209090, Note_on_c, 0, 59, 0
2, 209099, Note_on_c, 0, 53, 0
2, 209126, Note_on_c, 0, 63, 0
2, 209265, Note_on_c, 0, 83, 80
2, 209843, Note_on_c, 0, 83, 0
2, 210219, Note_on_c, 0, 86, 84
2, 210768, Note_on_c, 0, 86, 0
2, 210885, Note_on_c, 0, 62, 64
2, 210889, Note_on_c, 0, 83, 68
2, 210903, Note_on_c, 0, 59, 44
2, 210921, Note_on_c, 0, 86, 68
2, 210925, Note_on_c, 0, 85, 37
2, 210934, Note_on_c, 0, 52, 33
2, 210943, Note_on_c, 0, 55, 47
2, 210970, Note_on_c, 0, 62, 0
2, 211111, Note_on_c, 0, 52, 0
2, 211145, Note_on_c, 0, 86, 0
2, 211178, Note_on_c, 0, 85, 0
2, 211183, Note_on_c, 0, 83, 0
2, 211183, Note_on_c, 0, 59, 0
2, 211346, Note_on_c, 0, 55, 0
2, 211402, Note_on_c, 0, 86, 32
2, 211507, Note_on_c, 0, 79, 35
2, 211711, Note_on_c, 0, 86, 0
2, 211911, Note_on_c, 0, 79, 0
2, 212123, Note_on_c, 0, 76, 53
2, 212450, Note_on_c, 0, 76, 0
2, 212807, Note_on_c, 0, 71, 66
2, 212887, Note_on_c, 0, 59, 39
2, 212910, Note_on_c, 0, 62, 32
2, 212925, Note_on_c, 0, 55, 32
2, 212997, Note_on_c, 0, 62, 0
2, 213008, Note_on_c, 0, 71, 0
2, 213118, Note_on_c, 0, 59, 0
2, 213275, Note_on_c, 0, 55, 0
2, 213364, Note_on_c, 0, 74, 83
2, 213868, Note_on_c, 0, 73, 52
2, 213945, Note_on_c, 0, 74, 0
2, 214048, Note_on_c, 0, 72, 51
2, 214193, Note_on_c, 0, 73, 0
2, 214267, Note_on_c, 0, 71, 54
2, 214348, Note_on_c, 0, 72, 0
2, 214646, Note_on_c, 0, 71, 0
2, 214818, Note_on_c, 0, 67, 69
2, 214827, Note_on_c, 0, 62, 37
2, 214879, Note_on_c, 0, 59, 29
2, 214885, Note_on_c, 0, 55, 34
2, 214915, Note_on_c, 0, 62, 0
2, 215060, Note_on_c, 0, 67, 0
2, 215069, Note_on_c, 0, 59, 0
2, 215242, Note_on_c, 0, 64, 20
2, 215244, Note_on_c, 0, 55, 0
2, 215755, Note_on_c, 0, 64, 0
2, 216019, Note_on_c, 0, 67, 64
2, 216698, Note_on_c, 0, 62, 25
2, 216738, Note_on_c, 0, 67, 0
2, 216875, Note_on_c, 0, 62, 0
2, 217112, Note_on_c, 0, 63, 31
2, 217452, Note_on_c, 0, 63, 0
2, 217578, Note_on_c, 0, 64, 58
2, 217659, Note_on_c, 0, 55, 41
2, 217679, Note_on_c, 0, 59, 36
2, 217777, Note_on_c, 0, 59, 0
2, 217791, Note_on_c, 0, 64, 0
2, 217800, Note_on_c, 0, 55, 0
2, 217952, Note_on_c, 0, 65, 41
2, 218326, Note_on_c, 0, 65, 0
2, 218546, Note_on_c, 0, 67, 59
2, 218743, Note_on_c, 0, 61, 38
2, 218763, Note_on_c, 0, 67, 0
2, 218994, Note_on_c, 0, 68, 33
2, 219298, Note_on_c, 0, 68, 0
2, 219361, Note_on_c, 0, 61, 0
2, 219518, Note_on_c, 0, 69, 32
2, 219583, Note_on_c, 0, 66, 57
2, 219587, Note_on_c, 0, 61, 48
2, 219610, Note_on_c, 0, 55, 36
2, 219686, Note_on_c, 0, 66, 0
2, 219697, Note_on_c, 0, 69, 0
2, 219722, Note_on_c, 0, 55, 0
2, 219760, Note_on_c, 0, 75, 35
2, 219863, Note_on_c, 0, 75, 0
2, 219910, Note_on_c, 0, 76, 39
2, 220031, Note_on_c, 0, 61, 0
2, 220373, Note_on_c, 0, 76, 0
2, 220577, Note_on_c, 0, 61, 46
2, 220597, Note_on_c, 0, 55, 36
2, 220669, Note_on_c, 0, 61, 0
2, 220700, Note_on_c, 0, 55, 0
2, 220819, Note_on_c, 0, 69, 61
2, 220828, Note_on_c, 0, 75, 57
2, 220839, Note_on_c, 0, 81, 51
2, 220871, Note_on_c, 0, 64, 48
2, 220880, Note_on_c, 0, 61, 36
2, 220882, Note_on_c, 0, 55, 40
2, 221243, Note_on_c, 0, 76, 36
2, 221269, Note_on_c, 0, 75, 0
2, 221411, Note_on_c, 0, 69, 0
2, 221460, Note_on_c, 0, 55, 0
2, 221464, Note_on_c, 0, 64, 0
2, 221520, Note_on_c, 0, 61, 0
2, 221536, Note_on_c, 0, 81, 0
2, 221715, Note_on_c, 0, 76, 0
2, 222685, Note_on_c, 0, 61, 40
2, 222687, Note_on_c, 0, 64, 46
2, 222721, Note_on_c, 0, 58, 40
2, 222849, Note_on_c, 0, 64, 0
2, 222909, Note_on_c, 0, 61, 0
2, 222970, Note_on_c, 0, 58, 0
2, 223657, Note_on_c, 0, 64, 92
2, 223662, Note_on_c, 0, 61, 83
2, 223666, Note_on_c, 0, 58, 78
2, 223668, Note_on_c, 0, 55, 82
2, 223673, Note_on_c, 0, 85, 88
2, 223675, Note_on_c, 0, 79, 95
2, 223677, Note_on_c, 0, 91, 92
2, 223682, Note_on_c, 0, 88, 81
2, 224600, Control_c, 0, 64, 127
2, 224900, Note_on_c, 0, 91, 0
2, 224914, Note_on_c, 0, 88, 0
2, 224918, Note_on_c, 0, 79, 0
2, 224956, Note_on_c, 0, 55, 0
2, 224983, Note_on_c, 0, 64, 0
2, 225026, Note_on_c, 0, 85, 0
2, 225055, Note_on_c, 0, 58, 0
2, 225062, Note_on_c, 0, 61, 0
2, 225293, Note_on_c, 0, 88, 58
2, 225310, Note_on_c, 0, 58, 51
2, 225313, Note_on_c, 0, 61, 42
2, 225317, Note_on_c, 0, 76, 60
2, 225326, Note_on_c, 0, 64, 50
2, 225351, Note_on_c, 0, 55, 35
2, 225411, Note_on_c, 0, 76, 0
2, 225418, Note_on_c, 0, 64, 0
2, 225456, Control_c, 0, 64, 0
2, 225458, Note_on_c, 0, 55, 0
2, 225508, Note_on_c, 0, 88, 0
2, 225510, Note_on_c, 0, 61, 0
2, 225512, Note_on_c, 0, 58, 0
2, 225904, Control_c, 0, 64, 127
2, 225924, Note_on_c, 0, 61, 60
2, 225931, Note_on_c, 0, 64, 64
2, 225953, Note_on_c, 0, 90, 54
2, 225976, Note_on_c, 0, 58, 29
2, 225985, Note_on_c, 0, 78, 53
2, 226034, Note_on_c, 0, 64, 0
2, 226070, Note_on_c, 0, 58, 0
2, 226094, Note_on_c, 0, 78, 0
2, 226117, Note_on_c, 0, 90, 0
2, 226130, Note_on_c, 0, 61, 0
2, 226578, Control_c, 0, 64, 0
2, 226580, Note_on_c, 0, 66, 70
2, 226585, Note_on_c, 0, 57, 65
2, 226589, Note_on_c, 0, 62, 54
2, 226616, Note_on_c, 0, 85, 49
2, 226623, Note_on_c, 0, 74, 60
2, 226650, Note_on_c, 0, 86, 51
2, 226652, Note_on_c, 0, 88, 42
2, 226943, Note_on_c, 0, 88, 0
2, 227049, Note_on_c, 0, 85, 0
2, 227589, Control_c, 0, 64, 127
2, 227635, Note_on_c, 0, 62, 0
2, 227727, Note_on_c, 0, 57, 0
2, 227797, Note_on_c, 0, 66, 0
2, 228043, Note_on_c, 0, 74, 0
2, 228099, Note_on_c, 0, 86, 0
2, 228399, Control_c, 0, 64, 0
2, 228541, Note_on_c, 0, 62, 77
2, 228549, Note_on_c, 0, 63, 74
2, 228558, Note_on_c, 0, 67, 83
2, 228570, Note_on_c, 0, 57, 74
2, 228585, Note_on_c, 0, 86, 81
2, 228594, Note_on_c, 0, 74, 85
2, 228597, Note_on_c, 0, 81, 80
2, 228780, Control_c, 0, 64, 127
2, 228915, Note_on_c, 0, 74, 0
2, 228939, Note_on_c, 0, 57, 0
2, 228966, Note_on_c, 0, 67, 0
2, 228986, Note_on_c, 0, 81, 0
2, 229002, Note_on_c, 0, 86, 0
2, 229024, Note_on_c, 0, 62, 0
2, 229062, Note_on_c, 0, 63, 0
2, 229190, Note_on_c, 0, 62, 63
2, 229197, Note_on_c, 0, 67, 52
2, 229226, Note_on_c, 0, 63, 64
2, 229228, Note_on_c, 0, 88, 71
2, 229237, Note_on_c, 0, 76, 66
2, 229253, Note_on_c, 0, 83, 60
2, 229257, Control_c, 0, 64, 0
2, 229300, Note_on_c, 0, 63, 0
2, 229342, Note_on_c, 0, 83, 0
2, 229358, Note_on_c, 0, 67, 0
2, 229387, Note_on_c, 0, 76, 0
2, 229398, Note_on_c, 0, 88, 0
2, 229475, Note_on_c, 0, 57, 34
2, 229479, Note_on_c, 0, 67, 46
2, 229495, Note_on_c, 0, 63, 31
2, 229618, Note_on_c, 0, 74, 22
2, 229625, Note_on_c, 0, 86, 29
2, 229643, Note_on_c, 0, 76, 22
2, 229840, Note_on_c, 0, 76, 0
2, 229882, Note_on_c, 0, 62, 0
2, 229885, Note_on_c, 0, 57, 0
2, 229887, Note_on_c, 0, 86, 0
2, 229905, Note_on_c, 0, 74, 0
2, 229956, Note_on_c, 0, 67, 0
2, 230037, Note_on_c, 0, 63, 0
2, 230160, Note_on_c, 0, 86, 55
2, 230171, Note_on_c, 0, 67, 55
2, 230187, Note_on_c, 0, 74, 51
2, 230189, Note_on_c, 0, 81, 58
2, 230207, Note_on_c, 0, 56, 65
2, 230209, Note_on_c, 0, 62, 60
2, 230221, Note_on_c, 0, 65, 47
2, 230225, Note_on_c, 0, 61, 33
2, 230288, Note_on_c, 0, 74, 0
2, 230299, Note_on_c, 0, 61, 0
2, 230301, Note_on_c, 0, 81, 0
2, 230315, Note_on_c, 0, 65, 0
2, 230350, Note_on_c, 0, 67, 0
2, 230362, Note_on_c, 0, 86, 0
2, 230389, Note_on_c, 0, 62, 0
2, 230402, Note_on_c, 0, 56, 0
2, 231123, Note_on_c, 0, 56, 83
2, 231123, Note_on_c, 0, 67, 80
2, 231125, Note_on_c, 0, 62, 76
2, 231190, Note_on_c, 0, 65, 37
2, 231291, Note_on_c, 0, 65, 0
2, 231838, Note_on_c, 0, 62, 0
2, 232021, Note_on_c, 0, 62, 47
2, 232086, Note_on_c, 0, 74, 56
2, 232196, Note_on_c, 0, 74, 0
2, 232261, Note_on_c, 0, 67, 0
2, 232393, Note_on_c, 0, 78, 90
2, 232579, Note_on_c, 0, 62, 0
2, 232973, Note_on_c, 0, 67, 51
2, 232994, Note_on_c, 0, 62, 49
2, 233059, Note_on_c, 0, 67, 0
2, 233119, Note_on_c, 0, 62, 0
2, 233159, Note_on_c, 0, 56, 0
2, 233807, Note_on_c, 0, 78, 0
2, 233957, Note_on_c, 0, 76, 68
2, 234022, Note_on_c, 0, 60, 57
2, 234324, Note_on_c, 0, 76, 0
2, 234331, Note_on_c, 0, 60, 0
2, 234499, Note_on_c, 0, 72, 48
2, 234929, Note_on_c, 0, 72, 0
2, 234949, Note_on_c, 0, 60, 31
2, 234971, Note_on_c, 0, 57, 28
2, 235083, Note_on_c, 0, 60, 0
2, 235193, Note_on_c, 0, 57, 0
2, 235231, Note_on_c, 0, 72, 68
2, 235854, Note_on_c, 0, 72, 0
2, 235906, Note_on_c, 0, 63, 52
2, 235921, Note_on_c, 0, 67, 55
2, 235926, Note_on_c, 0, 60, 44
2, 235973, Note_on_c, 0, 57, 22
2, 235979, Note_on_c, 0, 63, 0
2, 236033, Note_on_c, 0, 60, 0
2, 236096, Note_on_c, 0, 67, 0
2, 236103, Note_on_c, 0, 57, 0
2, 236280, Note_on_c, 0, 72, 32
2, 236477, Note_on_c, 0, 72, 0
2, 236537, Note_on_c, 0, 75, 55
2, 236631, Note_on_c, 0, 75, 0
2, 236833, Note_on_c, 0, 79, 72
2, 236844, Note_on_c, 0, 63, 44
2, 236918, Note_on_c, 0, 60, 26
2, 236923, Note_on_c, 0, 63, 0
2, 237012, Note_on_c, 0, 79, 0
2, 237026, Note_on_c, 0, 60, 0
2, 237205, Note_on_c, 0, 84, 55
2, 237429, Note_on_c, 0, 84, 0
2, 237823, Note_on_c, 0, 91, 68
2, 237870, Note_on_c, 0, 93, 53
2, 237946, Note_on_c, 0, 60, 41
2, 237953, Note_on_c, 0, 93, 0
2, 237957, Note_on_c, 0, 64, 42
2, 237971, Note_on_c, 0, 54, 35
2, 237987, Note_on_c, 0, 91, 0
2, 238065, Note_on_c, 0, 64, 0
2, 238081, Note_on_c, 0, 60, 0
2, 238166, Note_on_c, 0, 96, 71
2, 238215, Note_on_c, 0, 54, 0
2, 238432, Note_on_c, 0, 96, 0
2, 238493, Note_on_c, 0, 99, 72
2, 238764, Note_on_c, 0, 99, 0
2, 239071, Note_on_c, 0, 54, 47
2, 239075, Note_on_c, 0, 60, 43
2, 239089, Note_on_c, 0, 64, 33
2, 239118, Note_on_c, 0, 101, 79
2, 239183, Note_on_c, 0, 64, 0
2, 239192, Note_on_c, 0, 60, 0
2, 239351, Note_on_c, 0, 54, 0
2, 239525, Note_on_c, 0, 101, 0
2, 239790, Note_on_c, 0, 98, 71
2, 239843, Note_on_c, 0, 64, 45
2, 239846, Note_on_c, 0, 54, 50
2, 239873, Note_on_c, 0, 60, 36
2, 240005, Note_on_c, 0, 64, 0
2, 240061, Note_on_c, 0, 98, 0
2, 240137, Note_on_c, 0, 60, 0
2, 240188, Note_on_c, 0, 54, 0
2, 240406, Note_on_c, 0, 96, 74
2, 240686, Note_on_c, 0, 96, 0
2, 240769, Note_on_c, 0, 54, 52
2, 240802, Note_on_c, 0, 60, 36
2, 240892, Note_on_c, 0, 60, 0
2, 241013, Note_on_c, 0, 94, 71
2, 241075, Note_on_c, 0, 54, 0
2, 241427, Note_on_c, 0, 94, 0
2, 241671, Note_on_c, 0, 95, 78
2, 241689, Note_on_c, 0, 50, 73
2, 241709, Note_on_c, 0, 49, 49
2, 241915, Note_on_c, 0, 95, 0
2, 242001, Note_on_c, 0, 49, 0
2, 242312, Note_on_c, 0, 90, 69
2, 242561, Note_on_c, 0, 90, 0
2, 242962, Note_on_c, 0, 93, 95
2, 243006, Note_on_c, 0, 50, 0
2, 243515, Note_on_c, 0, 93, 0
2, 243566, Note_on_c, 0, 50, 74
2, 243600, Note_on_c, 0, 88, 63
2, 243625, Note_on_c, 0, 49, 45
2, 243734, Note_on_c, 0, 49, 0
2, 243799, Note_on_c, 0, 88, 0
2, 244238, Note_on_c, 0, 91, 83
2, 244525, Note_on_c, 0, 91, 0
2, 244857, Note_on_c, 0, 50, 0
2, 244901, Note_on_c, 0, 48, 24
2, 244906, Note_on_c, 0, 86, 78
2, 245058, Note_on_c, 0, 48, 0
2, 245367, Note_on_c, 0, 86, 0
2, 245491, Note_on_c, 0, 50, 80
2, 245524, Note_on_c, 0, 49, 58
2, 245538, Note_on_c, 0, 90, 71
2, 245692, Note_on_c, 0, 49, 0
2, 245883, Note_on_c, 0, 90, 0
2, 246133, Note_on_c, 0, 83, 49
2, 246380, Note_on_c, 0, 83, 0
2, 246613, Note_on_c, 0, 48, 51
2, 246646, Note_on_c, 0, 47, 17
2, 246711, Note_on_c, 0, 50, 0
2, 246754, Note_on_c, 0, 88, 76
2, 246922, Note_on_c, 0, 47, 0
2, 246924, Note_on_c, 0, 48, 0
2, 247157, Note_on_c, 0, 88, 0
2, 247343, Note_on_c, 0, 80, 57
2, 247354, Note_on_c, 0, 50, 88
2, 247381, Note_on_c, 0, 49, 67
2, 247513, Note_on_c, 0, 80, 0
2, 247542, Note_on_c, 0, 49, 0
2, 249303, Note_on_c, 0, 43, 51
2, 249453, Note_on_c, 0, 50, 0
2, 249536, Note_on_c, 0, 55, 34
2, 249621, Note_on_c, 0, 59, 99
2, 249628, Note_on_c, 0, 55, 0
2, 249829, Note_on_c, 0, 43, 0
2, 251294, Note_on_c, 0, 55, 26
2, 251348, Note_on_c, 0, 50, 34
2, 251386, Note_on_c, 0, 55, 0
2, 251505, Note_on_c, 0, 50, 0
2, 251559, Note_on_c, 0, 59, 0
2, 251574, Note_on_c, 0, 58, 57
2, 252184, Note_on_c, 0, 58, 0
2, 252226, Note_on_c, 0, 59, 47
2, 252417, Note_on_c, 0, 59, 0
2, 252513, Note_on_c, 0, 62, 62
2, 253136, Note_on_c, 0, 62, 0
2, 253246, Note_on_c, 0, 59, 28
2, 253324, Note_on_c, 0, 55, 32
2, 253355, Note_on_c, 0, 45, 28
2, 253362, Note_on_c, 0, 52, 33
2, 253467, Note_on_c, 0, 59, 0
2, 253485, Note_on_c, 0, 60, 48
2, 253499, Note_on_c, 0, 55, 0
2, 253637, Note_on_c, 0, 45, 0
2, 253772, Note_on_c, 0, 52, 0
2, 253987, Note_on_c, 0, 60, 0
2, 255385, Note_on_c, 0, 60, 52
2, 255427, Note_on_c, 0, 54, 43
2, 255468, Note_on_c, 0, 60, 0
2, 255736, Note_on_c, 0, 54, 0
2, 256325, Note_on_c, 0, 66, 88
2, 256767, Note_on_c, 0, 66, 0
2, 256988, Note_on_c, 0, 67, 34
2, 257161, Note_on_c, 0, 67, 0
2, 257269, Note_on_c, 0, 43, 26
2, 257286, Note_on_c, 0, 50, 22
2, 257349, Note_on_c, 0, 69, 62
2, 257459, Note_on_c, 0, 43, 0
2, 257537, Note_on_c, 0, 50, 0
2, 257981, Note_on_c, 0, 69, 0
2, 257990, Note_on_c, 0, 64, 58
2, 258223, Note_on_c, 0, 64, 0
2, 258377, Note_on_c, 0, 60, 22
2, 258812, Note_on_c, 0, 60, 0
2, 258933, Note_on_c, 0, 49, 25
2, 259123, Note_on_c, 0, 49, 0
2, 259240, Note_on_c, 0, 51, 1
2, 259291, Note_on_c, 0, 55, 47
2, 259296, Note_on_c, 0, 66, 47
2, 259329, Note_on_c, 0, 59, 37
2, 259332, Note_on_c, 0, 62, 38
2, 259728, Note_on_c, 0, 55, 0
2, 259793, Note_on_c, 0, 59, 0
2, 259795, Note_on_c, 0, 62, 0
2, 259824, Note_on_c, 0, 66, 0
2, 259836, Note_on_c, 0, 51, 0
2, 259921, Note_on_c, 0, 59, 31
2, 259963, Note_on_c, 0, 67, 45
2, 260012, Note_on_c, 0, 52, 46
2, 260089, Note_on_c, 0, 59, 0
2, 260189, Note_on_c, 0, 52, 0
2, 260228, Note_on_c, 0, 67, 0
2, 260848, Note_on_c, 0, 71, 64
2, 260868, Note_on_c, 0, 64, 63
2, 260870, Note_on_c, 0, 60, 67
2, 260893, Note_on_c, 0, 59, 64
2, 260900, Note_on_c, 0, 67, 44
2, 261000, Note_on_c, 0, 60, 0
2, 261043, Note_on_c, 0, 64, 0
2, 261085, Note_on_c, 0, 59, 0
2, 261099, Note_on_c, 0, 67, 0
2, 261135, Note_on_c, 0, 71, 0
2, 261782, Note_on_c, 0, 69, 60
2, 261784, Note_on_c, 0, 60, 62
2, 261791, Note_on_c, 0, 64, 51
2, 261809, Note_on_c, 0, 57, 66
2, 261856, Note_on_c, 0, 60, 0
2, 261881, Note_on_c, 0, 64, 0
2, 261930, Note_on_c, 0, 57, 0
2, 262031, Note_on_c, 0, 69, 0
2, 262718, Note_on_c, 0, 66, 64
2, 262741, Note_on_c, 0, 74, 62
2, 262743, Note_on_c, 0, 63, 52
2, 262781, Note_on_c, 0, 62, 67
2, 262792, Note_on_c, 0, 69, 40
2, 263666, Note_on_c, 0, 60, 35
2, 263711, Note_on_c, 0, 74, 0
2, 263812, Note_on_c, 0, 69, 0
2, 263814, Note_on_c, 0, 63, 0
2, 263912, Note_on_c, 0, 60, 0
2, 263926, Note_on_c, 0, 66, 0
2, 264006, Note_on_c, 0, 72, 66
2, 264145, Note_on_c, 0, 62, 0
2, 264833, Note_on_c, 0, 72, 0
2, 264972, Note_on_c, 0, 62, 35
2, 264996, Note_on_c, 0, 57, 36
2, 265014, Note_on_c, 0, 71, 54
2, 265281, Note_on_c, 0, 62, 0
2, 265341, Note_on_c, 0, 57, 0
2, 265373, Note_on_c, 0, 71, 0
2, 266963, Note_on_c, 0, 78, 76
2, 267521, Note_on_c, 0, 78, 0
2, 267655, Note_on_c, 0, 79, 66
2, 267857, Note_on_c, 0, 79, 0
2, 268587, Note_on_c, 0, 75, 71
2, 268623, Note_on_c, 0, 62, 51
2, 268661, Note_on_c, 0, 59, 37
2, 268666, Note_on_c, 0, 55, 38
2, 268710, Note_on_c, 0, 62, 0
2, 268766, Note_on_c, 0, 59, 0
2, 268964, Note_on_c, 0, 75, 0
2, 268986, Note_on_c, 0, 55, 0
2, 269120, Note_on_c, 0, 76, 61
2, 269494, Note_on_c, 0, 76, 0
2, 269882, Note_on_c, 0, 71, 54
2, 270433, Note_on_c, 0, 71, 0
2, 270520, Note_on_c, 0, 62, 58
2, 270523, Note_on_c, 0, 74, 66
2, 270574, Note_on_c, 0, 59, 35
2, 270599, Note_on_c, 0, 62, 0
2, 270621, Note_on_c, 0, 55, 28
2, 270679, Note_on_c, 0, 59, 0
2, 270733, Note_on_c, 0, 74, 0
2, 270881, Note_on_c, 0, 55, 0
2, 272413, Note_on_c, 0, 66, 67
2, 272467, Note_on_c, 0, 57, 35
2, 272469, Note_on_c, 0, 61, 48
2, 272483, Note_on_c, 0, 62, 47
2, 272500, Note_on_c, 0, 66, 0
2, 272561, Note_on_c, 0, 62, 0
2, 272568, Note_on_c, 0, 57, 0
2, 272830, Note_on_c, 0, 61, 0
2, 273379, Note_on_c, 0, 85, 70
2, 273394, Note_on_c, 0, 73, 75
2, 273777, Note_on_c, 0, 85, 0
2, 273871, Note_on_c, 0, 73, 0
2, 274176, Note_on_c, 0, 86, 55
2, 274393, Note_on_c, 0, 74, 43
2, 274431, Note_on_c, 0, 86, 0
2, 274452, Note_on_c, 0, 66, 59
2, 274521, Note_on_c, 0, 61, 32
2, 274534, Note_on_c, 0, 62, 31
2, 274537, Note_on_c, 0, 66, 0
2, 274624, Note_on_c, 0, 62, 0
2, 274684, Note_on_c, 0, 86, 48
2, 274727, Note_on_c, 0, 74, 0
2, 274879, Note_on_c, 0, 61, 0
2, 274964, Note_on_c, 0, 74, 44
2, 274967, Note_on_c, 0, 86, 0
2, 275215, Note_on_c, 0, 86, 38
2, 275229, Note_on_c, 0, 74, 0
2, 275448, Note_on_c, 0, 74, 35
2, 275473, Note_on_c, 0, 86, 0
2, 275695, Note_on_c, 0, 86, 38
2, 275740, Note_on_c, 0, 74, 0
2, 275981, Note_on_c, 0, 86, 0
2, 275997, Note_on_c, 0, 74, 39
2, 276266, Note_on_c, 0, 86, 45
2, 276282, Note_on_c, 0, 74, 0
2, 276501, Note_on_c, 0, 74, 43
2, 276521, Note_on_c, 0, 86, 0
2, 276649, Note_on_c, 0, 63, 52
2, 276683, Note_on_c, 0, 74, 0
2, 276725, Note_on_c, 0, 63, 0
2, 278157, Note_on_c, 0, 62, 50
2, 278159, Note_on_c, 0, 66, 69
2, 278206, Note_on_c, 0, 59, 52
2, 279021, Note_on_c, 0, 55, 1
2, 279124, Note_on_c, 0, 66, 0
2, 279196, Note_on_c, 0, 62, 0
2, 279375, Note_on_c, 0, 59, 0
2, 279794, Note_on_c, 0, 55, 0
2, 280087, Note_on_c, 0, 57, 46
2, 280141, Note_on_c, 0, 55, 26
2, 280159, Note_on_c, 0, 60, 32
2, 280428, Note_on_c, 0, 60, 0
2, 280638, Note_on_c, 0, 55, 0
2, 280672, Note_on_c, 0, 62, 54
2, 280878, Note_on_c, 0, 62, 0
2, 280943, Note_on_c, 0, 63, 51
2, 281069, Note_on_c, 0, 63, 0
2, 281156, Note_on_c, 0, 64, 49
2, 281266, Note_on_c, 0, 57, 0
2, 281382, Note_on_c, 0, 65, 38
2, 281398, Note_on_c, 0, 64, 0
2, 281640, Note_on_c, 0, 66, 49
2, 281649, Note_on_c, 0, 65, 0
2, 281785, Note_on_c, 0, 66, 0
2, 281794, Note_on_c, 0, 67, 49
2, 281978, Note_on_c, 0, 68, 63
2, 281980, Note_on_c, 0, 67, 0
2, 282021, Note_on_c, 0, 60, 20
2, 282343, Note_on_c, 0, 68, 0
2, 282442, Note_on_c, 0, 65, 34
2, 282464, Note_on_c, 0, 60, 0
2, 282547, Note_on_c, 0, 66, 37
2, 282670, Note_on_c, 0, 65, 0
2, 282928, Note_on_c, 0, 66, 0
2, 282968, Note_on_c, 0, 67, 52
2, 283107, Note_on_c, 0, 57, 20
2, 283143, Note_on_c, 0, 67, 0
2, 283190, Note_on_c, 0, 68, 55
2, 283264, Note_on_c, 0, 68, 0
2, 283353, Note_on_c, 0, 57, 0
2, 283425, Note_on_c, 0, 69, 48
2, 283622, Note_on_c, 0, 69, 0
2, 283667, Note_on_c, 0, 70, 37
2, 283889, Note_on_c, 0, 71, 71
2, 283891, Note_on_c, 0, 70, 0
2, 284070, Note_on_c, 0, 71, 0
2, 284086, Note_on_c, 0, 72, 76
2, 284426, Note_on_c, 0, 71, 77
2, 284543, Note_on_c, 0, 72, 0
2, 284635, Note_on_c, 0, 71, 0
2, 284942, Note_on_c, 0, 70, 79
2, 284975, Note_on_c, 0, 60, 24
2, 285242, Note_on_c, 0, 70, 0
2, 285291, Note_on_c, 0, 60, 0
2, 285387, Note_on_c, 0, 69, 34
2, 285761, Note_on_c, 0, 69, 0
2, 285862, Note_on_c, 0, 68, 63
2, 285932, Note_on_c, 0, 60, 48
2, 285947, Note_on_c, 0, 64, 40
2, 286037, Note_on_c, 0, 64, 0
2, 286048, Note_on_c, 0, 60, 0
2, 286073, Note_on_c, 0, 54, 19
2, 286173, Note_on_c, 0, 54, 0
2, 286212, Note_on_c, 0, 68, 0
2, 286261, Note_on_c, 0, 67, 34
2, 286763, Note_on_c, 0, 66, 65
2, 286834, Note_on_c, 0, 54, 42
2, 286854, Note_on_c, 0, 67, 0
2, 286977, Note_on_c, 0, 66, 0
2, 287074, Note_on_c, 0, 54, 0
2, 287195, Note_on_c, 0, 65, 29
2, 287222, Note_on_c, 0, 64, 27
2, 287314, Note_on_c, 0, 64, 0
2, 287495, Note_on_c, 0, 65, 0
2, 287649, Note_on_c, 0, 64, 33
2, 287822, Note_on_c, 0, 47, 49
2, 287826, Note_on_c, 0, 57, 47
2, 287999, Note_on_c, 0, 57, 0
2, 288026, Note_on_c, 0, 64, 0
2, 288089, Note_on_c, 0, 62, 57
2, 288617, Note_on_c, 0, 57, 47
2, 288736, Note_on_c, 0, 57, 0
2, 288769, Note_on_c, 0, 62, 0
2, 288778, Note_on_c, 0, 47, 0
2, 288987, Note_on_c, 0, 74, 79
2, 289426, Note_on_c, 0, 74, 0
2, 289623, Note_on_c, 0, 62, 48
2, 289840, Note_on_c, 0, 62, 0
2, 290006, Note_on_c, 0, 66, 49
2, 290136, Note_on_c, 0, 66, 0
2, 290409, Note_on_c, 0, 76, 28
2, 290501, Note_on_c, 0, 76, 0
2, 291547, Note_on_c, 0, 66, 56
2, 291561, Note_on_c, 0, 62, 50
2, 291572, Note_on_c, 0, 57, 43
2, 291623, Note_on_c, 0, 66, 0
2, 291652, Note_on_c, 0, 62, 0
2, 291672, Note_on_c, 0, 57, 0
2, 291843, Note_on_c, 0, 74, 46
2, 291941, Note_on_c, 0, 74, 0
2, 292174, Note_on_c, 0, 81, 62
2, 292356, Note_on_c, 0, 81, 0
2, 292499, Note_on_c, 0, 62, 41
2, 292526, Note_on_c, 0, 84, 70
2, 292564, Note_on_c, 0, 86, 49
2, 292651, Note_on_c, 0, 86, 0
2, 292701, Note_on_c, 0, 62, 0
2, 292734, Note_on_c, 0, 84, 0
2, 292759, Note_on_c, 0, 66, 80
2, 292781, Note_on_c, 0, 57, 72
2, 292784, Note_on_c, 0, 62, 37
2, 292806, Note_on_c, 0, 86, 69
2, 292824, Note_on_c, 0, 74, 80
2, 292907, Note_on_c, 0, 84, 36
2, 293017, Note_on_c, 0, 84, 0
2, 293498, Note_on_c, 0, 86, 0
2, 293534, Note_on_c, 0, 74, 0
2, 293552, Note_on_c, 0, 57, 0
2, 293567, Note_on_c, 0, 66, 0
2, 293637, Note_on_c, 0, 62, 0
2, 293780, Note_on_c, 0, 66, 71
2, 293798, Note_on_c, 0, 62, 45
2, 293803, Note_on_c, 0, 57, 58
2, 293810, Note_on_c, 0, 87, 76
2, 293812, Note_on_c, 0, 75, 77
2, 294495, Note_on_c, 0, 57, 0
2, 294499, Note_on_c, 0, 66, 0
2, 294571, Note_on_c, 0, 75, 0
2, 294584, Note_on_c, 0, 62, 0
2, 294600, Note_on_c, 0, 87, 0
2, 294748, Note_on_c, 0, 66, 71
2, 294750, Note_on_c, 0, 57, 53
2, 294773, Note_on_c, 0, 88, 67
2, 294791, Note_on_c, 0, 76, 68
2, 294793, Note_on_c, 0, 62, 59
2, 294838, Note_on_c, 0, 86, 45
2, 294965, Note_on_c, 0, 86, 0
2, 294974, Note_on_c, 0, 66, 0
2, 295001, Note_on_c, 0, 62, 0
2, 295037, Note_on_c, 0, 76, 0
2, 295039, Note_on_c, 0, 57, 0
2, 295097, Note_on_c, 0, 88, 0
2, 295416, Note_on_c, 0, 59, 68
2, 295427, Note_on_c, 0, 62, 68
2, 295456, Note_on_c, 0, 52, 64
2, 295458, Note_on_c, 0, 90, 74
2, 295465, Note_on_c, 0, 55, 61
2, 295467, Note_on_c, 0, 78, 81
2, 295682, Note_on_c, 0, 78, 0
2, 295805, Note_on_c, 0, 90, 0
2, 295807, Note_on_c, 0, 62, 0
2, 295816, Note_on_c, 0, 52, 0
2, 295933, Note_on_c, 0, 59, 0
2, 295933, Note_on_c, 0, 55, 0
2, 296034, Note_on_c, 0, 78, 49
2, 296036, Note_on_c, 0, 90, 39
2, 296070, Note_on_c, 0, 62, 54
2, 296074, Note_on_c, 0, 85, 37
2, 296085, Note_on_c, 0, 59, 37
2, 296088, Note_on_c, 0, 52, 53
2, 296108, Note_on_c, 0, 55, 39
2, 296211, Note_on_c, 0, 85, 0
2, 296242, Note_on_c, 0, 91, 54
2, 296256, Note_on_c, 0, 90, 0
2, 296258, Note_on_c, 0, 78, 0
2, 296298, Note_on_c, 0, 86, 53
2, 296303, Note_on_c, 0, 79, 45
2, 296314, Note_on_c, 0, 89, 36
2, 296525, Note_on_c, 0, 52, 0
2, 296547, Note_on_c, 0, 62, 0
2, 296556, Note_on_c, 0, 91, 0
2, 296581, Note_on_c, 0, 79, 0
2, 296598, Note_on_c, 0, 59, 0
2, 296601, Note_on_c, 0, 55, 0
2, 296634, Note_on_c, 0, 86, 0
2, 296657, Note_on_c, 0, 89, 0
2, 296791, Note_on_c, 0, 62, 51
2, 296807, Note_on_c, 0, 52, 54
2, 296811, Note_on_c, 0, 91, 68
2, 296813, Note_on_c, 0, 55, 44
2, 296816, Note_on_c, 0, 59, 45
2, 296829, Note_on_c, 0, 79, 49
2, 296834, Note_on_c, 0, 86, 58
2, 297188, Note_on_c, 0, 91, 0
2, 297201, Note_on_c, 0, 62, 0
2, 297212, Note_on_c, 0, 52, 0
2, 297219, Note_on_c, 0, 79, 0
2, 297244, Note_on_c, 0, 86, 0
2, 297261, Note_on_c, 0, 55, 0
2, 297266, Note_on_c, 0, 59, 0
2, 297485, Note_on_c, 0, 62, 53
2, 297490, Note_on_c, 0, 91, 70
2, 297499, Note_on_c, 0, 52, 54
2, 297501, Note_on_c, 0, 55, 35
2, 297512, Note_on_c, 0, 59, 42
2, 297524, Note_on_c, 0, 79, 53
2, 297535, Note_on_c, 0, 86, 56
2, 297622, Note_on_c, 0, 89, 25
2, 297678, Note_on_c, 0, 62, 0
2, 297685, Note_on_c, 0, 79, 0
2, 297696, Note_on_c, 0, 91, 0
2, 297739, Note_on_c, 0, 59, 0
2, 297768, Note_on_c, 0, 52, 0
2, 297801, Note_on_c, 0, 89, 0
2, 297806, Note_on_c, 0, 55, 0
2, 297844, Note_on_c, 0, 86, 0
2, 298090, Note_on_c, 0, 90, 50
2, 298093, Note_on_c, 0, 62, 59
2, 298108, Note_on_c, 0, 52, 48
2, 298124, Note_on_c, 0, 59, 41
2, 298126, Note_on_c, 0, 55, 48
2, 298135, Note_on_c, 0, 78, 40
2, 298160, Note_on_c, 0, 86, 42
2, 298261, Note_on_c, 0, 78, 0
2, 298265, Note_on_c, 0, 91, 58
2, 298287, Note_on_c, 0, 90, 0
2, 298294, Note_on_c, 0, 79, 47
2, 298312, Note_on_c, 0, 89, 38
2, 298413, Note_on_c, 0, 62, 0
2, 298446, Note_on_c, 0, 52, 0
2, 298480, Note_on_c, 0, 79, 0
2, 298496, Note_on_c, 0, 91, 0
2, 298511, Note_on_c, 0, 59, 0
2, 298520, Note_on_c, 0, 55, 0
2, 298576, Note_on_c, 0, 86, 0
2, 298639, Note_on_c, 0, 89, 0
2, 298778, Note_on_c, 0, 62, 61
2, 298785, Note_on_c, 0, 91, 75
2, 298791, Note_on_c, 0, 86, 55
2, 298794, Note_on_c, 0, 52, 48
2, 298796, Note_on_c, 0, 59, 48
2, 298805, Note_on_c, 0, 79, 54
2, 298845, Note_on_c, 0, 55, 49
2, 298870, Note_on_c, 0, 89, 28
2, 298959, Note_on_c, 0, 62, 0
2, 299027, Note_on_c, 0, 59, 0
2, 299076, Note_on_c, 0, 91, 0
2, 299078, Note_on_c, 0, 79, 0
2, 299103, Note_on_c, 0, 52, 0
2, 299132, Note_on_c, 0, 55, 0
2, 299136, Note_on_c, 0, 86, 0
2, 299181, Note_on_c, 0, 89, 0
2, 299407, Note_on_c, 0, 91, 67
2, 299428, Note_on_c, 0, 79, 68
2, 299441, Note_on_c, 0, 59, 68
2, 299443, Note_on_c, 0, 50, 76
2, 299445, Note_on_c, 0, 86, 65
2, 299528, Note_on_c, 0, 89, 29
2, 299582, Note_on_c, 0, 79, 0
2, 299589, Note_on_c, 0, 91, 0
2, 299625, Note_on_c, 0, 59, 0
2, 299676, Note_on_c, 0, 89, 0
2, 299687, Note_on_c, 0, 50, 0
2, 299705, Note_on_c, 0, 86, 0
2, 299914, Note_on_c, 0, 90, 57
2, 299920, Note_on_c, 0, 50, 44
2, 299945, Note_on_c, 0, 78, 47
2, 299947, Note_on_c, 0, 59, 47
2, 299967, Note_on_c, 0, 55, 54
2, 299974, Note_on_c, 0, 86, 44
2, 300091, Note_on_c, 0, 90, 0
2, 300100, Note_on_c, 0, 91, 40
2, 300111, Note_on_c, 0, 78, 0
2, 300117, Note_on_c, 0, 89, 34
2, 300171, Note_on_c, 0, 79, 44
2, 300263, Note_on_c, 0, 50, 0
2, 300319, Note_on_c, 0, 59, 0
2, 300330, Note_on_c, 0, 91, 0
2, 300377, Note_on_c, 0, 55, 0
2, 300377, Note_on_c, 0, 79, 0
2, 300415, Note_on_c, 0, 89, 0
2, 300422, Note_on_c, 0, 86, 0
2, 300557, Note_on_c, 0, 59, 53
2, 300561, Note_on_c, 0, 55, 48
2, 300563, Note_on_c, 0, 50, 62
2, 300572, Note_on_c, 0, 91, 73
2, 300581, Note_on_c, 0, 86, 64
2, 300590, Note_on_c, 0, 79, 57
2, 300897, Note_on_c, 0, 59, 0
2, 300906, Note_on_c, 0, 50, 0
2, 300908, Note_on_c, 0, 91, 0
2, 300926, Note_on_c, 0, 79, 0
2, 300949, Note_on_c, 0, 86, 0
2, 300966, Note_on_c, 0, 55, 0
2, 301173, Note_on_c, 0, 50, 60
2, 301179, Note_on_c, 0, 91, 72
2, 301190, Note_on_c, 0, 79, 70
2, 301190, Note_on_c, 0, 55, 42
2, 301193, Note_on_c, 0, 86, 62
2, 301204, Note_on_c, 0, 59, 54
2, 301289, Note_on_c, 0, 88, 27
2, 301363, Note_on_c, 0, 91, 0
2, 301365, Note_on_c, 0, 79, 0
2, 301450, Note_on_c, 0, 50, 0
2, 301464, Note_on_c, 0, 88, 0
2, 301488, Note_on_c, 0, 59, 0
2, 301531, Note_on_c, 0, 86, 0
2, 301547, Note_on_c, 0, 55, 0
2, 301703, Note_on_c, 0, 90, 52
2, 301757, Note_on_c, 0, 78, 50
2, 301762, Note_on_c, 0, 50, 57
2, 301764, Note_on_c, 0, 55, 54
2, 301768, Note_on_c, 0, 59, 54
2, 301818, Note_on_c, 0, 86, 28
2, 301892, Note_on_c, 0, 78, 0
2, 301901, Note_on_c, 0, 91, 59
2, 301930, Note_on_c, 0, 90, 0
2, 301939, Note_on_c, 0, 79, 46
2, 301948, Note_on_c, 0, 89, 41
2, 302048, Note_on_c, 0, 88, 24
2, 302073, Note_on_c, 0, 59, 0
2, 302104, Note_on_c, 0, 50, 0
2, 302133, Note_on_c, 0, 79, 0
2, 302149, Note_on_c, 0, 88, 0
2, 302167, Note_on_c, 0, 91, 0
2, 302192, Note_on_c, 0, 55, 0
2, 302228, Note_on_c, 0, 86, 0
2, 302257, Note_on_c, 0, 89, 0
2, 302452, Note_on_c, 0, 91, 71
2, 302454, Note_on_c, 0, 50, 48
2, 302472, Note_on_c, 0, 79, 66
2, 302476, Note_on_c, 0, 86, 60
2, 302521, Note_on_c, 0, 89, 30
2, 302543, Note_on_c, 0, 50, 0
2, 302640, Note_on_c, 0, 91, 0
2, 302646, Note_on_c, 0, 89, 0
2, 302718, Note_on_c, 0, 79, 0
2, 302752, Note_on_c, 0, 86, 0
2, 303103, Note_on_c, 0, 78, 79
2, 303117, Note_on_c, 0, 90, 64
2, 303139, Note_on_c, 0, 66, 72
2, 303162, Note_on_c, 0, 87, 42
2, 303171, Note_on_c, 0, 57, 46
2, 303294, Note_on_c, 0, 78, 0
2, 303312, Note_on_c, 0, 90, 0
2, 303316, Note_on_c, 0, 66, 0
2, 303365, Note_on_c, 0, 87, 0
2, 303421, Note_on_c, 0, 57, 0
2, 303565, Note_on_c, 0, 86, 64
2, 303592, Note_on_c, 0, 74, 60
2, 303614, Note_on_c, 0, 66, 52
2, 303628, Note_on_c, 0, 85, 43
2, 303632, Note_on_c, 0, 57, 28
2, 303639, Note_on_c, 0, 62, 49
2, 303854, Note_on_c, 0, 85, 0
2, 303858, Note_on_c, 0, 66, 0
2, 303999, Note_on_c, 0, 57, 0
2, 304013, Note_on_c, 0, 86, 0
2, 304026, Note_on_c, 0, 62, 0
2, 304044, Note_on_c, 0, 74, 0
2, 304333, Note_on_c, 0, 66, 65
2, 304365, Note_on_c, 0, 57, 49
2, 304376, Note_on_c, 0, 86, 67
2, 304400, Note_on_c, 0, 74, 64
2, 304425, Note_on_c, 0, 61, 25
2, 304436, Note_on_c, 0, 81, 49
2, 304438, Note_on_c, 0, 62, 34
2, 304703, Note_on_c, 0, 57, 0
2, 304723, Note_on_c, 0, 74, 0
2, 304804, Note_on_c, 0, 86, 0
2, 304817, Note_on_c, 0, 81, 0
2, 304853, Note_on_c, 0, 62, 0
2, 304882, Note_on_c, 0, 66, 0
2, 304909, Note_on_c, 0, 61, 0
2, 305061, Note_on_c, 0, 88, 75
2, 305068, Note_on_c, 0, 62, 62
2, 305072, Note_on_c, 0, 67, 68
2, 305075, Note_on_c, 0, 84, 68
2, 305079, Note_on_c, 0, 56, 75
2, 305081, Note_on_c, 0, 76, 75
2, 305137, Note_on_c, 0, 65, 40
2, 305231, Note_on_c, 0, 65, 0
2, 305382, Note_on_c, 0, 84, 0
2, 305386, Note_on_c, 0, 67, 0
2, 305399, Note_on_c, 0, 56, 0
2, 305413, Note_on_c, 0, 76, 0
2, 305433, Note_on_c, 0, 88, 0
2, 305520, Note_on_c, 0, 62, 0
2, 305590, Note_on_c, 0, 56, 48
2, 305608, Note_on_c, 0, 88, 54
2, 305619, Note_on_c, 0, 67, 60
2, 305621, Note_on_c, 0, 62, 36
2, 305630, Note_on_c, 0, 76, 57
2, 305653, Note_on_c, 0, 84, 53
2, 306049, Note_on_c, 0, 67, 0
2, 306054, Note_on_c, 0, 88, 0
2, 306085, Note_on_c, 0, 76, 0
2, 306101, Note_on_c, 0, 56, 0
2, 306141, Note_on_c, 0, 84, 0
2, 306213, Note_on_c, 0, 62, 0
2, 306311, Note_on_c, 0, 56, 56
2, 306313, Note_on_c, 0, 88, 62
2, 306316, Note_on_c, 0, 67, 49
2, 306338, Note_on_c, 0, 76, 65
2, 306349, Note_on_c, 0, 62, 38
2, 306354, Note_on_c, 0, 84, 56
2, 306396, Control_c, 0, 64, 127
2, 306405, Note_on_c, 0, 86, 33
2, 306553, Control_c, 0, 64, 0
2, 306555, Note_on_c, 0, 67, 0
2, 306600, Control_c, 0, 64, 127
2, 306602, Note_on_c, 0, 84, 0
2, 306605, Note_on_c, 0, 62, 0
2, 306607, Note_on_c, 0, 88, 0
2, 306623, Note_on_c, 0, 86, 0
2, 306674, Note_on_c, 0, 76, 0
2, 306797, Note_on_c, 0, 56, 0
2, 306943, Note_on_c, 0, 84, 68
2, 306976, Note_on_c, 0, 72, 65
2, 306983, Note_on_c, 0, 64, 64
2, 306988, Note_on_c, 0, 55, 56
2, 307003, Note_on_c, 0, 57, 58
2, 307021, Control_c, 0, 64, 0
2, 307030, Note_on_c, 0, 60, 45
2, 307037, Note_on_c, 0, 79, 34
2, 307165, Note_on_c, 0, 79, 0
2, 307290, Note_on_c, 0, 55, 0
2, 307297, Note_on_c, 0, 72, 0
2, 307308, Note_on_c, 0, 84, 0
2, 307328, Note_on_c, 0, 64, 0
2, 307353, Note_on_c, 0, 60, 0
2, 307404, Note_on_c, 0, 57, 0
2, 307518, Control_c, 0, 64, 127
2, 307563, Note_on_c, 0, 64, 50
2, 307572, Note_on_c, 0, 84, 58
2, 307597, Note_on_c, 0, 72, 47
2, 307601, Note_on_c, 0, 60, 49
2, 307633, Note_on_c, 0, 55, 41
2, 307635, Note_on_c, 0, 57, 45
2, 307639, Note_on_c, 0, 79, 43
2, 307695, Control_c, 0, 64, 0
2, 307745, Control_c, 0, 64, 127
2, 307888, Note_on_c, 0, 55, 0
2, 307924, Note_on_c, 0, 64, 0
2, 307935, Note_on_c, 0, 84, 0
2, 307951, Note_on_c, 0, 72, 0
2, 307975, Note_on_c, 0, 60, 0
2, 307982, Note_on_c, 0, 79, 0
2, 308025, Note_on_c, 0, 57, 0
2, 308217, Note_on_c, 0, 84, 64
2, 308229, Note_on_c, 0, 64, 40
2, 308231, Note_on_c, 0, 55, 45
2, 308235, Note_on_c, 0, 60, 44
2, 308251, Note_on_c, 0, 72, 51
2, 308271, Note_on_c, 0, 79, 54
2, 308276, Note_on_c, 0, 57, 36
2, 308329, Note_on_c, 0, 64, 0
2, 308341, Note_on_c, 0, 55, 0
2, 308372, Note_on_c, 0, 72, 0
2, 308383, Note_on_c, 0, 57, 0
2, 308459, Note_on_c, 0, 79, 0
2, 308464, Note_on_c, 0, 60, 0
2, 308520, Note_on_c, 0, 84, 0
2, 308733, Control_c, 0, 64, 0
2, 308851, Note_on_c, 0, 63, 84
2, 308858, Note_on_c, 0, 53, 66
2, 308860, Note_on_c, 0, 75, 85
2, 308865, Note_on_c, 0, 87, 72
2, 308876, Note_on_c, 0, 80, 67
2, 308880, Note_on_c, 0, 58, 63
2, 308910, Note_on_c, 0, 84, 55
2, 309196, Note_on_c, 0, 75, 0
2, 309201, Note_on_c, 0, 80, 0
2, 309212, Note_on_c, 0, 87, 0
2, 309234, Note_on_c, 0, 53, 0
2, 309268, Note_on_c, 0, 84, 0
2, 309277, Note_on_c, 0, 63, 0
2, 309293, Control_c, 0, 64, 127
2, 309326, Note_on_c, 0, 58, 0
2, 309425, Note_on_c, 0, 87, 67
2, 309438, Note_on_c, 0, 63, 56
2, 309458, Note_on_c, 0, 53, 36
2, 309463, Note_on_c, 0, 75, 56
2, 309470, Note_on_c, 0, 80, 55
2, 309488, Note_on_c, 0, 58, 57
2, 309505, Note_on_c, 0, 84, 31
2, 309667, Note_on_c, 0, 84, 0
2, 309765, Note_on_c, 0, 53, 0
2, 309774, Note_on_c, 0, 63, 0
2, 309794, Note_on_c, 0, 75, 0
2, 309812, Note_on_c, 0, 80, 0
2, 309814, Note_on_c, 0, 87, 0
2, 309935, Note_on_c, 0, 58, 0
2, 309947, Control_c, 0, 64, 0
2, 310056, Note_on_c, 0, 63, 67
2, 310063, Note_on_c, 0, 58, 44
2, 310086, Note_on_c, 0, 84, 71
2, 310104, Note_on_c, 0, 53, 42
2, 310124, Control_c, 0, 64, 127
2, 310142, Note_on_c, 0, 72, 62
2, 310200, Note_on_c, 0, 53, 0
2, 310388, Note_on_c, 0, 84, 0
2, 310399, Note_on_c, 0, 72, 0
2, 310489, Note_on_c, 0, 58, 0
2, 310493, Note_on_c, 0, 63, 0
2, 310688, Control_c, 0, 64, 0
2, 310746, Note_on_c, 0, 83, 80
2, 310753, Note_on_c, 0, 59, 68
2, 310755, Note_on_c, 0, 62, 72
2, 310776, Note_on_c, 0, 54, 71
2, 310778, Note_on_c, 0, 71, 76
2, 310831, Note_on_c, 0, 82, 33
2, 310901, Note_on_c, 0, 79, 22
2, 310999, Note_on_c, 0, 79, 0
2, 311047, Note_on_c, 0, 82, 0
2, 311813, Note_on_c, 0, 83, 0
2, 311837, Note_on_c, 0, 71, 0
2, 312070, Note_on_c, 0, 78, 72
2, 312462, Note_on_c, 0, 59, 0
2, 312525, Note_on_c, 0, 78, 0
2, 312758, Note_on_c, 0, 74, 67
2, 312839, Note_on_c, 0, 59, 22
2, 312850, Note_on_c, 0, 62, 0
2, 312948, Note_on_c, 0, 74, 0
2, 313083, Note_on_c, 0, 59, 0
2, 313132, Note_on_c, 0, 71, 41
2, 313553, Note_on_c, 0, 71, 0
2, 313734, Note_on_c, 0, 66, 55
2, 313775, Note_on_c, 0, 59, 40
2, 313943, Note_on_c, 0, 59, 0
2, 313961, Note_on_c, 0, 54, 0
2, 314077, Note_on_c, 0, 66, 0
2, 314086, Note_on_c, 0, 64, 19
2, 314704, Note_on_c, 0, 64, 0
2, 314729, Note_on_c, 0, 55, 29
2, 314731, Note_on_c, 0, 56, 49
2, 314792, Note_on_c, 0, 57, 56
2, 314854, Note_on_c, 0, 55, 0
2, 314868, Note_on_c, 0, 60, 22
2, 314935, Note_on_c, 0, 56, 0
2, 314962, Note_on_c, 0, 71, 50
2, 314973, Note_on_c, 0, 64, 32
2, 315005, Note_on_c, 0, 67, 47
2, 315022, Note_on_c, 0, 59, 57
2, 315025, Note_on_c, 0, 57, 0
2, 315621, Note_on_c, 0, 64, 0
2, 315672, Note_on_c, 0, 60, 0
2, 315739, Note_on_c, 0, 67, 0
2, 315757, Note_on_c, 0, 71, 0
2, 315909, Note_on_c, 0, 64, 55
2, 315918, Note_on_c, 0, 60, 52
2, 315923, Note_on_c, 0, 59, 0
2, 315930, Note_on_c, 0, 57, 50
2, 315945, Note_on_c, 0, 69, 51
2, 316517, Note_on_c, 0, 64, 0
2, 316568, Note_on_c, 0, 60, 0
2, 316720, Note_on_c, 0, 69, 0
2, 316738, Note_on_c, 0, 57, 0
2, 316888, Note_on_c, 0, 60, 43
2, 316911, Note_on_c, 0, 63, 40
2, 316915, Note_on_c, 0, 54, 43
2, 316935, Note_on_c, 0, 66, 45
2, 317446, Note_on_c, 0, 66, 0
2, 317493, Note_on_c, 0, 60, 0
2, 317520, Note_on_c, 0, 63, 0
2, 317628, Note_on_c, 0, 55, 30
2, 317755, Note_on_c, 0, 55, 0
2, 317771, Note_on_c, 0, 54, 0
2, 317784, Note_on_c, 0, 57, 56
2, 317802, Note_on_c, 0, 63, 47
2, 317811, Note_on_c, 0, 60, 50
2, 317813, Note_on_c, 0, 69, 47
2, 317825, Note_on_c, 0, 66, 47
2, 318441, Note_on_c, 0, 60, 0
2, 318470, Note_on_c, 0, 66, 0
2, 318488, Note_on_c, 0, 57, 0
2, 318524, Note_on_c, 0, 51, 31
2, 318541, Note_on_c, 0, 69, 0
2, 318571, Note_on_c, 0, 63, 0
2, 318768, Note_on_c, 0, 51, 0
2, 318808, Note_on_c, 0, 67, 47
2, 318828, Note_on_c, 0, 59, 45
2, 318842, Note_on_c, 0, 55, 35
2, 318857, Note_on_c, 0, 62, 41
2, 319303, Note_on_c, 0, 67, 0
2, 319395, Note_on_c, 0, 59, 0
2, 319397, Note_on_c, 0, 62, 0
2, 319538, Note_on_c, 0, 51, 30
2, 319599, Note_on_c, 0, 55, 0
2, 319742, Note_on_c, 0, 66, 50
2, 319782, Note_on_c, 0, 59, 30
2, 319787, Note_on_c, 0, 62, 44
2, 319798, Note_on_c, 0, 54, 45
2, 319807, Note_on_c, 0, 51, 0
2, 320179, Note_on_c, 0, 59, 0
2, 320244, Note_on_c, 0, 62, 0
2, 320298, Note_on_c, 0, 66, 0
2, 320439, Note_on_c, 0, 62, 62
2, 320443, Note_on_c, 0, 59, 48
2, 320450, Note_on_c, 0, 67, 54
2, 320457, Note_on_c, 0, 54, 0
2, 320526, Note_on_c, 0, 59, 0
2, 320578, Note_on_c, 0, 55, 30
2, 320587, Note_on_c, 0, 62, 0
2, 320672, Note_on_c, 0, 55, 0
2, 320676, Note_on_c, 0, 67, 0
2, 321355, Note_on_c, 0, 50, 89
2, 321373, Note_on_c, 0, 49, 69
2, 321568, Note_on_c, 0, 49, 0
2, 322282, Note_on_c, 0, 49, 36
2, 322388, Note_on_c, 0, 49, 0
2, 322596, Note_on_c, 0, 64, 103
2, 323671, Note_on_c, 0, 50, 0
2, 324193, Note_on_c, 0, 50, 72
2, 324271, Note_on_c, 0, 50, 0
2, 324491, Note_on_c, 0, 61, 58
2, 324522, Note_on_c, 0, 64, 0
2, 325152, Note_on_c, 0, 62, 42
2, 325161, Note_on_c, 0, 61, 0
2, 325421, Note_on_c, 0, 62, 0
2, 325515, Note_on_c, 0, 63, 47
2, 326077, Note_on_c, 0, 63, 0
2, 326104, Note_on_c, 0, 64, 66
2, 326657, Note_on_c, 0, 64, 0
2, 326760, Note_on_c, 0, 65, 58
2, 327289, Note_on_c, 0, 65, 0
2, 327307, Note_on_c, 0, 57, 22
2, 327383, Note_on_c, 0, 57, 0
2, 327484, Note_on_c, 0, 69, 47
2, 328037, Note_on_c, 0, 69, 0
2, 328109, Note_on_c, 0, 64, 51
2, 328113, Note_on_c, 0, 60, 43
2, 328120, Note_on_c, 0, 72, 67
2, 328144, Note_on_c, 0, 53, 24
2, 328176, Note_on_c, 0, 57, 40
2, 328418, Note_on_c, 0, 72, 0
2, 328521, Note_on_c, 0, 60, 0
2, 328671, Note_on_c, 0, 69, 28
2, 328937, Note_on_c, 0, 64, 0
2, 329054, Note_on_c, 0, 69, 0
2, 329235, Note_on_c, 0, 53, 0
2, 329596, Note_on_c, 0, 57, 0
2, 329968, Note_on_c, 0, 64, 56
2, 329983, Note_on_c, 0, 59, 54
2, 330051, Note_on_c, 0, 64, 0
2, 330075, Note_on_c, 0, 59, 0
2, 330685, Note_on_c, 0, 70, 57
2, 330859, Note_on_c, 0, 70, 0
2, 330976, Note_on_c, 0, 71, 55
2, 331168, Note_on_c, 0, 71, 0
2, 331334, Note_on_c, 0, 75, 46
2, 331607, Note_on_c, 0, 75, 0
2, 331670, Note_on_c, 0, 82, 85
2, 331856, Note_on_c, 0, 63, 60
2, 331939, Note_on_c, 0, 59, 33
2, 332024, Note_on_c, 0, 80, 59
2, 332055, Note_on_c, 0, 59, 0
2, 332069, Note_on_c, 0, 63, 0
2, 332105, Note_on_c, 0, 82, 0
2, 332342, Note_on_c, 0, 75, 57
2, 332452, Note_on_c, 0, 80, 0
2, 332611, Note_on_c, 0, 75, 0
2, 332709, Note_on_c, 0, 71, 50
2, 332902, Note_on_c, 0, 63, 45
2, 332942, Note_on_c, 0, 53, 24
2, 332951, Note_on_c, 0, 59, 34
2, 333028, Note_on_c, 0, 63, 0
2, 333090, Note_on_c, 0, 59, 0
2, 333097, Note_on_c, 0, 71, 0
2, 333126, Note_on_c, 0, 70, 29
2, 333151, Note_on_c, 0, 53, 0
2, 333435, Note_on_c, 0, 70, 0
2, 333594, Note_on_c, 0, 69, 36
2, 333762, Note_on_c, 0, 69, 0
2, 333769, Note_on_c, 0, 68, 59
2, 333899, Note_on_c, 0, 57, 25
2, 333995, Note_on_c, 0, 68, 0
2, 334069, Note_on_c, 0, 67, 36
2, 334150, Note_on_c, 0, 57, 0
2, 334670, Note_on_c, 0, 67, 0
2, 334757, Note_on_c, 0, 57, 31
2, 334793, Note_on_c, 0, 69, 55
2, 334855, Note_on_c, 0, 67, 48
2, 335006, Note_on_c, 0, 69, 0
2, 335055, Note_on_c, 0, 57, 0
2, 335669, Note_on_c, 0, 67, 0
2, 335678, Note_on_c, 0, 66, 59
2, 335852, Note_on_c, 0, 66, 0
2, 336058, Note_on_c, 0, 67, 35
2, 336603, Note_on_c, 0, 67, 0
2, 336699, Note_on_c, 0, 68, 57
2, 336945, Note_on_c, 0, 68, 0
2, 337261, Note_on_c, 0, 69, 14
2, 337519, Note_on_c, 0, 69, 0
2, 337638, Note_on_c, 0, 70, 52
2, 337873, Note_on_c, 0, 70, 0
2, 338025, Note_on_c, 0, 71, 44
2, 338444, Note_on_c, 0, 71, 0
2, 338592, Note_on_c, 0, 72, 64
2, 338652, Note_on_c, 0, 62, 64
2, 338668, Note_on_c, 0, 57, 50
2, 338731, Note_on_c, 0, 62, 0
2, 338762, Note_on_c, 0, 57, 0
2, 338858, Note_on_c, 0, 72, 0
2, 338984, Note_on_c, 0, 74, 58
2, 339349, Note_on_c, 0, 74, 0
2, 339589, Note_on_c, 0, 75, 47
2, 339797, Note_on_c, 0, 67, 57
2, 339804, Note_on_c, 0, 75, 0
2, 339822, Note_on_c, 0, 57, 40
2, 339862, Note_on_c, 0, 63, 53
2, 339886, Note_on_c, 0, 76, 66
2, 340126, Note_on_c, 0, 67, 0
2, 340160, Note_on_c, 0, 57, 0
2, 340218, Note_on_c, 0, 63, 0
2, 340366, Note_on_c, 0, 76, 0
2, 340523, Note_on_c, 0, 75, 48
2, 340735, Note_on_c, 0, 75, 0
2, 340760, Note_on_c, 0, 67, 53
2, 340778, Note_on_c, 0, 57, 49
2, 340782, Note_on_c, 0, 63, 56
2, 340805, Note_on_c, 0, 76, 63
2, 341062, Note_on_c, 0, 67, 0
2, 341170, Note_on_c, 0, 57, 0
2, 341235, Note_on_c, 0, 63, 0
2, 341302, Note_on_c, 0, 76, 0
2, 342736, Note_on_c, 0, 66, 86
2, 342743, Note_on_c, 0, 61, 69
2, 342745, Note_on_c, 0, 55, 74
2, 342763, Note_on_c, 0, 81, 75
2, 342765, Note_on_c, 0, 93, 92
2, 342778, Note_on_c, 0, 88, 66
2, 342799, Note_on_c, 0, 90, 32
2, 342879, Note_on_c, 0, 90, 0
2, 343137, Note_on_c, 0, 93, 0
2, 343139, Note_on_c, 0, 81, 0
2, 343173, Note_on_c, 0, 88, 0
2, 343408, Note_on_c, 0, 80, 52
2, 343459, Note_on_c, 0, 92, 29
2, 343549, Note_on_c, 0, 92, 0
2, 343598, Note_on_c, 0, 80, 0
2, 343744, Note_on_c, 0, 93, 70
2, 343760, Note_on_c, 0, 88, 49
2, 343777, Note_on_c, 0, 90, 36
2, 343816, Note_on_c, 0, 81, 36
2, 343860, Note_on_c, 0, 90, 0
2, 343894, Note_on_c, 0, 93, 0
2, 343898, Note_on_c, 0, 66, 0
2, 343948, Note_on_c, 0, 88, 0
2, 344017, Note_on_c, 0, 81, 0
2, 344183, Note_on_c, 0, 61, 0
2, 344185, Note_on_c, 0, 55, 0
2, 344698, Note_on_c, 0, 60, 61
2, 344844, Note_on_c, 0, 60, 0
2, 344947, Note_on_c, 0, 61, 59
2, 345036, Note_on_c, 0, 61, 0
2, 345146, Note_on_c, 0, 62, 60
2, 345312, Note_on_c, 0, 62, 0
2, 345368, Note_on_c, 0, 63, 68
2, 345460, Note_on_c, 0, 63, 0
2, 345601, Note_on_c, 0, 64, 38
2, 345726, Note_on_c, 0, 65, 15
2, 345760, Note_on_c, 0, 64, 0
2, 345964, Note_on_c, 0, 65, 0
2, 345991, Note_on_c, 0, 66, 61
2, 346152, Note_on_c, 0, 65, 55
2, 346246, Note_on_c, 0, 66, 0
2, 346327, Note_on_c, 0, 65, 0
2, 346385, Note_on_c, 0, 64, 43
2, 346490, Note_on_c, 0, 64, 0
2, 346586, Note_on_c, 0, 63, 55
2, 346663, Note_on_c, 0, 63, 0
2, 346752, Note_on_c, 0, 64, 41
2, 346947, Note_on_c, 0, 65, 49
2, 346956, Note_on_c, 0, 64, 0
2, 347178, Note_on_c, 0, 66, 62
2, 347180, Note_on_c, 0, 65, 0
2, 347198, Note_on_c, 0, 61, 27
2, 347252, Note_on_c, 0, 66, 0
2, 347317, Note_on_c, 0, 67, 33
2, 347415, Note_on_c, 0, 61, 0
2, 347491, Note_on_c, 0, 67, 0
2, 347547, Note_on_c, 0, 68, 61
2, 347713, Note_on_c, 0, 68, 0
2, 347814, Note_on_c, 0, 69, 51
2, 348074, Note_on_c, 0, 69, 0
2, 348107, Note_on_c, 0, 61, 25
2, 348130, Note_on_c, 0, 68, 32
2, 348360, Note_on_c, 0, 68, 0
2, 348387, Note_on_c, 0, 61, 0
2, 348464, Note_on_c, 0, 67, 24
2, 348611, Note_on_c, 0, 67, 0
2, 348616, Note_on_c, 0, 66, 55
2, 348764, Note_on_c, 0, 66, 0
2, 348867, Note_on_c, 0, 69, 39
2, 348914, Note_on_c, 0, 61, 48
2, 349026, Note_on_c, 0, 70, 57
2, 349057, Note_on_c, 0, 69, 0
2, 349180, Note_on_c, 0, 61, 0
2, 349391, Note_on_c, 0, 72, 47
2, 349418, Note_on_c, 0, 70, 0
2, 349463, Note_on_c, 0, 71, 50
2, 349554, Note_on_c, 0, 71, 0
2, 349635, Note_on_c, 0, 74, 83
2, 349680, Note_on_c, 0, 66, 56
2, 349684, Note_on_c, 0, 62, 45
2, 349711, Note_on_c, 0, 57, 29
2, 349763, Note_on_c, 0, 72, 0
2, 350070, Note_on_c, 0, 66, 0
2, 350094, Note_on_c, 0, 62, 0
2, 350119, Note_on_c, 0, 74, 0
2, 350522, Note_on_c, 0, 57, 0
2, 351156, Note_on_c, 0, 63, 68
2, 351160, Note_on_c, 0, 62, 73
2, 351163, Note_on_c, 0, 67, 77
2, 351169, Note_on_c, 0, 57, 68
2, 352148, Note_on_c, 0, 79, 92
2, 352218, Note_on_c, 0, 78, 34
2, 352292, Note_on_c, 0, 78, 0
2, 352509, Note_on_c, 0, 62, 0
2, 352511, Note_on_c, 0, 67, 0
2, 352547, Note_on_c, 0, 74, 49
2, 352654, Note_on_c, 0, 63, 0
2, 352708, Note_on_c, 0, 79, 0
2, 352717, Note_on_c, 0, 57, 0
2, 352984, Note_on_c, 0, 74, 0
2, 353080, Note_on_c, 0, 75, 72
2, 353152, Note_on_c, 0, 62, 44
2, 353161, Note_on_c, 0, 67, 41
2, 353223, Note_on_c, 0, 56, 37
2, 353331, Note_on_c, 0, 75, 0
2, 353454, Note_on_c, 0, 76, 64
2, 353546, Note_on_c, 0, 62, 0
2, 353900, Note_on_c, 0, 76, 0
2, 354063, Note_on_c, 0, 77, 83
2, 354128, Note_on_c, 0, 62, 35
2, 354357, Note_on_c, 0, 77, 0
2, 354359, Note_on_c, 0, 67, 0
2, 354467, Note_on_c, 0, 76, 62
2, 354619, Note_on_c, 0, 62, 0
2, 355047, Note_on_c, 0, 62, 41
2, 355067, Note_on_c, 0, 76, 0
2, 355313, Note_on_c, 0, 74, 82
2, 355645, Note_on_c, 0, 56, 0
2, 355723, Note_on_c, 0, 74, 0
2, 355764, Note_on_c, 0, 62, 0
2, 355876, Note_on_c, 0, 76, 34
2, 355992, Note_on_c, 0, 56, 46
2, 356001, Note_on_c, 0, 74, 51
2, 356035, Note_on_c, 0, 62, 25
2, 356153, Note_on_c, 0, 76, 0
2, 356259, Note_on_c, 0, 72, 40
2, 356310, Note_on_c, 0, 62, 0
2, 356395, Note_on_c, 0, 74, 0
2, 356644, Note_on_c, 0, 56, 0
2, 356772, Note_on_c, 0, 72, 0
2, 356877, Note_on_c, 0, 71, 60
2, 356978, Note_on_c, 0, 55, 32
2, 357027, Note_on_c, 0, 60, 35
2, 357043, Note_on_c, 0, 59, 31
2, 357070, Note_on_c, 0, 71, 0
2, 357074, Note_on_c, 0, 64, 31
2, 357195, Note_on_c, 0, 74, 68
2, 357414, Note_on_c, 0, 60, 0
2, 357862, Note_on_c, 0, 60, 32
2, 357878, Note_on_c, 0, 71, 38
2, 357880, Note_on_c, 0, 64, 0
2, 357898, Note_on_c, 0, 74, 0
2, 358015, Note_on_c, 0, 71, 0
2, 358100, Note_on_c, 0, 55, 0
2, 358122, Note_on_c, 0, 60, 0
2, 358151, Note_on_c, 0, 72, 75
2, 358272, Note_on_c, 0, 59, 0
2, 358774, Note_on_c, 0, 72, 0
2, 358794, Note_on_c, 0, 60, 25
2, 359059, Note_on_c, 0, 69, 54
2, 359081, Note_on_c, 0, 60, 0
2, 359654, Note_on_c, 0, 69, 0
2, 359717, Note_on_c, 0, 64, 53
2, 359728, Note_on_c, 0, 55, 47
2, 359737, Note_on_c, 0, 60, 48
2, 359787, Note_on_c, 0, 59, 35
2, 359807, Note_on_c, 0, 64, 0
2, 359876, Note_on_c, 0, 59, 0
2, 359928, Note_on_c, 0, 60, 0
2, 360013, Note_on_c, 0, 55, 0
2, 360674, Note_on_c, 0, 84, 76
2, 360678, Note_on_c, 0, 60, 65
2, 360687, Note_on_c, 0, 54, 72
2, 360692, Note_on_c, 0, 64, 67
2, 360703, Note_on_c, 0, 72, 71
2, 360891, Control_c, 0, 64, 127
2, 361700, Note_on_c, 0, 72, 0
2, 361729, Note_on_c, 0, 84, 0
2, 361744, Note_on_c, 0, 64, 0
2, 361771, Note_on_c, 0, 54, 0
2, 361897, Note_on_c, 0, 60, 0
2, 361903, Control_c, 0, 64, 0
2, 361964, Note_on_c, 0, 54, 50
2, 361968, Note_on_c, 0, 64, 54
2, 361986, Note_on_c, 0, 60, 27
2, 361989, Note_on_c, 0, 86, 71
2, 362013, Note_on_c, 0, 74, 68
2, 362244, Note_on_c, 0, 86, 0
2, 362257, Note_on_c, 0, 64, 0
2, 362260, Note_on_c, 0, 74, 0
2, 362298, Note_on_c, 0, 60, 0
2, 362342, Note_on_c, 0, 54, 0
2, 362871, Note_on_c, 0, 82, 59
2, 362876, Note_on_c, 0, 70, 61
2, 362941, Note_on_c, 0, 64, 47
2, 362954, Note_on_c, 0, 54, 51
2, 362967, Note_on_c, 0, 60, 40
2, 363021, Note_on_c, 0, 83, 64
2, 363039, Note_on_c, 0, 71, 64
2, 363044, Note_on_c, 0, 70, 0
2, 363059, Note_on_c, 0, 82, 0
2, 363189, Note_on_c, 0, 64, 0
2, 363303, Note_on_c, 0, 60, 0
2, 363337, Note_on_c, 0, 83, 0
2, 363431, Note_on_c, 0, 71, 0
2, 363695, Note_on_c, 0, 64, 35
2, 363805, Note_on_c, 0, 60, 24
2, 363843, Note_on_c, 0, 81, 64
2, 363850, Note_on_c, 0, 64, 0
2, 363861, Note_on_c, 0, 69, 67
2, 363895, Note_on_c, 0, 60, 0
2, 363946, Control_c, 0, 64, 127
2, 364020, Note_on_c, 0, 54, 0
2, 364309, Note_on_c, 0, 81, 0
2, 364437, Note_on_c, 0, 69, 0
2, 364643, Control_c, 0, 64, 0
2, 364789, Note_on_c, 0, 62, 44
2, 364820, Note_on_c, 0, 67, 48
2, 364827, Note_on_c, 0, 79, 54
2, 364842, Note_on_c, 0, 74, 51
2, 364847, Note_on_c, 0, 59, 32
2, 364851, Note_on_c, 0, 55, 32
2, 364876, Note_on_c, 0, 52, 22
2, 365756, Note_on_c, 0, 67, 0
2, 365790, Control_c, 0, 64, 127
2, 365879, Note_on_c, 0, 74, 0
2, 365935, Note_on_c, 0, 52, 0
2, 365949, Note_on_c, 0, 59, 0
2, 365978, Note_on_c, 0, 55, 0
2, 365996, Note_on_c, 0, 79, 0
2, 366036, Note_on_c, 0, 62, 0
2, 367340, Control_c, 0, 64, 0
2, 367394, Note_on_c, 0, 59, 55
2, 367398, Note_on_c, 0, 62, 68
2, 367414, Note_on_c, 0, 91, 71
2, 367436, Note_on_c, 0, 79, 62
2, 367436, Note_on_c, 0, 55, 46
2, 367441, Note_on_c, 0, 86, 60
2, 367510, Note_on_c, 0, 79, 0
2, 367515, Note_on_c, 0, 62, 0
2, 367517, Note_on_c, 0, 86, 0
2, 367611, Note_on_c, 0, 59, 0
2, 367613, Note_on_c, 0, 55, 0
2, 367638, Note_on_c, 0, 91, 0
2, 368359, Note_on_c, 0, 65, 79
2, 368364, Note_on_c, 0, 61, 71
2, 368364, Note_on_c, 0, 55, 75
2, 368384, Note_on_c, 0, 96, 67
2, 368417, Note_on_c, 0, 84, 50
2, 368420, Note_on_c, 0, 95, 61
2, 368424, Note_on_c, 0, 83, 57
2, 368489, Note_on_c, 0, 65, 0
2, 368496, Note_on_c, 0, 95, 0
2, 368505, Note_on_c, 0, 84, 0
2, 368511, Note_on_c, 0, 83, 0
2, 368543, Note_on_c, 0, 61, 0
2, 368572, Note_on_c, 0, 96, 0
2, 368592, Note_on_c, 0, 55, 0
2, 369336, Note_on_c, 0, 61, 78
2, 369345, Note_on_c, 0, 60, 74
2, 369347, Note_on_c, 0, 100, 81
2, 369349, Note_on_c, 0, 88, 85
2, 369354, Note_on_c, 0, 65, 83
2, 369367, Note_on_c, 0, 95, 76
2, 369369, Note_on_c, 0, 55, 68
2, 369372, Note_on_c, 0, 97, 51
2, 369376, Note_on_c, 0, 58, 42
2, 369448, Note_on_c, 0, 97, 0
2, 369661, Control_c, 0, 64, 127
2, 370346, Note_on_c, 0, 55, 0
2, 370378, Note_on_c, 0, 100, 0
2, 370382, Note_on_c, 0, 65, 0
2, 370382, Note_on_c, 0, 88, 0
2, 370424, Note_on_c, 0, 95, 0
2, 370427, Note_on_c, 0, 61, 0
2, 370436, Note_on_c, 0, 58, 0
2, 370438, Note_on_c, 0, 60, 0
2, 370514, Control_c, 0, 64, 0
2, 370613, Note_on_c, 0, 61, 55
2, 370615, Note_on_c, 0, 65, 53
2, 370635, Note_on_c, 0, 60, 58
2, 370637, Note_on_c, 0, 98, 64
2, 370642, Note_on_c, 0, 55, 57
2, 370662, Note_on_c, 0, 86, 60
2, 370691, Note_on_c, 0, 58, 33
2, 370716, Note_on_c, 0, 93, 59
2, 370783, Note_on_c, 0, 58, 0
2, 370803, Note_on_c, 0, 93, 0
2, 370893, Note_on_c, 0, 86, 0
2, 370942, Note_on_c, 0, 65, 0
2, 370951, Note_on_c, 0, 98, 0
2, 370958, Note_on_c, 0, 60, 0
2, 370969, Note_on_c, 0, 55, 0
2, 371011, Note_on_c, 0, 61, 0
2, 371540, Note_on_c, 0, 61, 59
2, 371549, Note_on_c, 0, 65, 66
2, 371571, Note_on_c, 0, 55, 55
2, 371589, Note_on_c, 0, 96, 69
2, 371596, Note_on_c, 0, 84, 70
2, 371603, Note_on_c, 0, 60, 37
2, 371621, Note_on_c, 0, 91, 61
2, 371878, Note_on_c, 0, 91, 0
2, 371889, Note_on_c, 0, 84, 0
2, 371892, Note_on_c, 0, 60, 0
2, 371923, Note_on_c, 0, 65, 0
2, 371939, Note_on_c, 0, 96, 0
2, 371988, Note_on_c, 0, 55, 0
2, 372042, Note_on_c, 0, 61, 0
2, 372526, Note_on_c, 0, 64, 74
2, 372528, Note_on_c, 0, 55, 73
2, 372532, Note_on_c, 0, 60, 66
2, 372541, Note_on_c, 0, 59, 64
2, 372566, Note_on_c, 0, 96, 74
2, 372570, Note_on_c, 0, 84, 74
2, 372575, Note_on_c, 0, 91, 71
2, 372669, Control_c, 0, 64, 127
2, 372920, Note_on_c, 0, 96, 0
2, 372958, Note_on_c, 0, 91, 0
2, 372998, Note_on_c, 0, 64, 0
2, 373012, Note_on_c, 0, 84, 0
2, 373048, Note_on_c, 0, 59, 0
2, 373077, Note_on_c, 0, 60, 0
2, 373081, Note_on_c, 0, 55, 0
2, 373345, Control_c, 0, 64, 0
2, 373509, Note_on_c, 0, 64, 66
2, 373520, Note_on_c, 0, 60, 59
2, 373527, Note_on_c, 0, 59, 58
2, 373529, Note_on_c, 0, 55, 63
2, 373534, Note_on_c, 0, 93, 74
2, 373547, Note_on_c, 0, 88, 67
2, 373552, Note_on_c, 0, 81, 61
2, 373751, Note_on_c, 0, 93, 0
2, 373767, Note_on_c, 0, 88, 0
2, 373789, Note_on_c, 0, 81, 0
2, 373865, Note_on_c, 0, 64, 0
2, 373870, Note_on_c, 0, 60, 0
2, 373883, Note_on_c, 0, 55, 0
2, 373885, Note_on_c, 0, 59, 0
2, 374481, Note_on_c, 0, 64, 61
2, 374490, Note_on_c, 0, 60, 57
2, 374497, Note_on_c, 0, 75, 79
2, 374501, Note_on_c, 0, 87, 72
2, 374503, Note_on_c, 0, 59, 51
2, 374506, Note_on_c, 0, 55, 60
2, 374602, Control_c, 0, 64, 127
2, 374884, Note_on_c, 0, 55, 0
2, 374954, Note_on_c, 0, 64, 0
2, 374972, Note_on_c, 0, 87, 0
2, 374987, Note_on_c, 0, 75, 0
2, 375019, Note_on_c, 0, 59, 0
2, 375052, Note_on_c, 0, 60, 0
2, 375227, Note_on_c, 0, 72, 60
2, 375238, Note_on_c, 0, 84, 60
2, 375265, Note_on_c, 0, 64, 42
2, 375276, Note_on_c, 0, 55, 47
2, 375292, Note_on_c, 0, 60, 40
2, 375299, Control_c, 0, 64, 0
2, 375326, Note_on_c, 0, 59, 28
2, 375397, Note_on_c, 0, 72, 0
2, 375422, Note_on_c, 0, 59, 0
2, 375449, Note_on_c, 0, 60, 0
2, 375473, Note_on_c, 0, 64, 0
2, 375491, Note_on_c, 0, 84, 0
2, 375550, Note_on_c, 0, 55, 0
2, 376098, Note_on_c, 0, 78, 69
2, 376101, Note_on_c, 0, 86, 71
2, 376110, Note_on_c, 0, 74, 76
2, 376112, Note_on_c, 0, 64, 74
2, 376128, Note_on_c, 0, 60, 62
2, 376130, Note_on_c, 0, 54, 71
2, 376143, Note_on_c, 0, 81, 45
2, 376170, Note_on_c, 0, 84, 34
2, 376226, Note_on_c, 0, 60, 0
2, 376266, Note_on_c, 0, 84, 0
2, 376280, Note_on_c, 0, 64, 0
2, 376300, Note_on_c, 0, 74, 0
2, 376338, Note_on_c, 0, 81, 0
2, 376369, Note_on_c, 0, 86, 0
2, 376383, Note_on_c, 0, 78, 0
2, 376392, Note_on_c, 0, 54, 0
2, 377030, Note_on_c, 0, 50, 87
2, 377053, Note_on_c, 0, 49, 71
2, 377091, Note_on_c, 0, 48, 43
2, 377165, Note_on_c, 0, 48, 0
2, 377458, Note_on_c, 0, 49, 0
2, 377998, Note_on_c, 0, 49, 46
2, 378128, Note_on_c, 0, 49, 0
2, 378309, Note_on_c, 0, 60, 85
2, 378316, Note_on_c, 0, 67, 69
2, 378589, Note_on_c, 0, 67, 0
2, 378836, Note_on_c, 0, 60, 0
2, 378990, Note_on_c, 0, 55, 36
2, 379093, Note_on_c, 0, 55, 0
2, 379263, Note_on_c, 0, 62, 68
2, 379275, Note_on_c, 0, 58, 68
2, 379387, Note_on_c, 0, 50, 0
2, 379747, Note_on_c, 0, 62, 0
2, 379772, Note_on_c, 0, 58, 0
2, 379859, Note_on_c, 0, 62, 35
2, 379891, Note_on_c, 0, 59, 71
2, 379938, Note_on_c, 0, 50, 49
2, 379978, Note_on_c, 0, 60, 32
2, 380023, Note_on_c, 0, 50, 0
2, 380079, Note_on_c, 0, 60, 0
2, 380086, Note_on_c, 0, 62, 0
2, 380137, Note_on_c, 0, 59, 0
2, 380276, Note_on_c, 0, 55, 53
2, 380740, Note_on_c, 0, 55, 0
2, 380861, Note_on_c, 0, 50, 74
2, 381116, Note_on_c, 0, 35, 19
2, 382070, Note_on_c, 0, 50, 0
2, 382084, Note_on_c, 0, 35, 0
2, 382115, Note_on_c, 0, 48, 60
2, 382146, Note_on_c, 0, 36, 49
2, 382785, Note_on_c, 0, 34, 35
2, 382897, Note_on_c, 0, 36, 0
2, 382933, Note_on_c, 0, 48, 0
2, 383071, Note_on_c, 0, 37, 47
2, 383078, Note_on_c, 0, 49, 49
2, 383112, Note_on_c, 0, 34, 0
2, 383726, Note_on_c, 0, 34, 33
2, 383739, Note_on_c, 0, 37, 0
2, 383976, Note_on_c, 0, 49, 0
2, 383988, Note_on_c, 0, 34, 0
2, 384073, Note_on_c, 0, 50, 64
2, 384086, Note_on_c, 0, 38, 45
2, 384525, Note_on_c, 0, 38, 0
2, 384527, Note_on_c, 0, 50, 0
2, 384709, Note_on_c, 0, 37, 35
2, 385002, Note_on_c, 0, 37, 0
2, 385025, Note_on_c, 0, 42, 50
2, 385105, Note_on_c, 0, 54, 53
2, 385117, Note_on_c, 0, 63, 47
2, 385173, Note_on_c, 0, 56, 39
2, 385647, Note_on_c, 0, 54, 0
2, 385695, Note_on_c, 0, 56, 0
2, 385717, Note_on_c, 0, 42, 0
2, 385789, Note_on_c, 0, 53, 52
2, 385795, Note_on_c, 0, 64, 50
2, 385818, Note_on_c, 0, 57, 42
2, 385827, Note_on_c, 0, 43, 54
2, 385842, Note_on_c, 0, 61, 52
2, 385903, Note_on_c, 0, 63, 0
2, 386143, Control_c, 0, 64, 127
2, 386517, Note_on_c, 0, 53, 0
2, 386550, Note_on_c, 0, 57, 0
2, 386765, Note_on_c, 0, 61, 0
2, 386801, Note_on_c, 0, 64, 0
2, 386884, Note_on_c, 0, 31, 38
2, 386893, Note_on_c, 0, 43, 0
2, 386983, Note_on_c, 0, 31, 0
2, 386983, End_track
3, 0, Start_track
3, 0, Title_t, "Acoustic Bass"
3, 0, Program_c, 1, 32
3, 0, Control_c, 1, 7, 100
3, 0, Control_c, 1, 10, 87
3, 3899, Note_on_c, 1, 31, 48
3, 4844, Note_on_c, 1, 43, 50
3, 5075, Note_on_c, 1, 31, 0
3, 5770, Note_on_c, 1, 38, 52
3, 5840, Note_on_c, 1, 43, 0
3, 6670, Note_on_c, 1, 32, 60
3, 6693, Note_on_c, 1, 38, 0
3, 7615, Note_on_c, 1, 32, 0
3, 7677, Note_on_c, 1, 33, 63
3, 8592, Note_on_c, 1, 33, 0
3, 8617, Note_on_c, 1, 37, 75
3, 9358, Note_on_c, 1, 32, 29
3, 9405, Note_on_c, 1, 34, 36
3, 9445, Note_on_c, 1, 37, 0
3, 9566, Note_on_c, 1, 38, 64
3, 9603, Note_on_c, 1, 32, 0
3, 9636, Note_on_c, 1, 34, 0
3, 10296, Note_on_c, 1, 34, 41
3, 10537, Note_on_c, 1, 38, 0
3, 10549, Note_on_c, 1, 45, 100
3, 10637, Note_on_c, 1, 34, 0
3, 11259, Note_on_c, 1, 38, 46
3, 11448, Note_on_c, 1, 38, 0
3, 11492, Note_on_c, 1, 43, 66
3, 11554, Note_on_c, 1, 45, 0
3, 12396, Note_on_c, 1, 43, 0
3, 12451, Note_on_c, 1, 41, 61
3, 13172, Note_on_c, 1, 37, 34
3, 13241, Note_on_c, 1, 39, 39
3, 13247, Note_on_c, 1, 41, 0
3, 13403, Note_on_c, 1, 37, 0
3, 13436, Note_on_c, 1, 40, 56
3, 13441, Note_on_c, 1, 39, 0
3, 14375, Note_on_c, 1, 34, 57
3, 14383, Note_on_c, 1, 40, 0
3, 15319, Note_on_c, 1, 34, 0
3, 15348, Note_on_c, 1, 33, 62
3, 16309, Note_on_c, 1, 37, 64
3, 16448, Note_on_c, 1, 33, 0
3, 16995, Note_on_c, 1, 34, 34
3, 17287, Note_on_c, 1, 37, 0
3, 17301, Note_on_c, 1, 38, 54
3, 17328, Note_on_c, 1, 34, 0
3, 17979, Note_on_c, 1, 37, 43
3, 18243, Note_on_c, 1, 48, 85
3, 18254, Note_on_c, 1, 38, 0
3, 18297, Note_on_c, 1, 37, 0
3, 18907, Note_on_c, 1, 42, 31
3, 18982, Note_on_c, 1, 42, 0
3, 19184, Note_on_c, 1, 47, 61
3, 19279, Note_on_c, 1, 48, 0
3, 20117, Note_on_c, 1, 47, 0
3, 20151, Note_on_c, 1, 45, 68
3, 21058, Note_on_c, 1, 45, 0
3, 21139, Note_on_c, 1, 43, 55
3, 22073, Note_on_c, 1, 35, 77
3, 22183, Note_on_c, 1, 43, 0
3, 23040, Note_on_c, 1, 36, 66
3, 23067, Note_on_c, 1, 35, 0
3, 24018, Note_on_c, 1, 38, 72
3, 24076, Note_on_c, 1, 36, 0
3, 24997, Note_on_c, 1, 40, 61
3, 25097, Note_on_c, 1, 38, 0
3, 25915, Note_on_c, 1, 34, 71
3, 26008, Note_on_c, 1, 40, 0
3, 26688, Note_on_c, 1, 34, 0
3, 26857, Note_on_c, 1, 35, 70
3, 27843, Note_on_c, 1, 38, 62
3, 27886, Note_on_c, 1, 35, 0
3, 28544, Note_on_c, 1, 35, 53
3, 28727, Note_on_c, 1, 38, 0
3, 28741, Note_on_c, 1, 35, 0
3, 28812, Note_on_c, 1, 42, 65
3, 29758, Note_on_c, 1, 39, 67
3, 29881, Note_on_c, 1, 42, 0
3, 30744, Note_on_c, 1, 39, 0
3, 30753, Note_on_c, 1, 40, 68
3, 31429, Note_on_c, 1, 35, 52
3, 31453, Note_on_c, 1, 40, 0
3, 31682, Note_on_c, 1, 28, 75
3, 31684, Note_on_c, 1, 35, 0
3, 32614, Note_on_c, 1, 31, 73
3, 32664, Note_on_c, 1, 28, 0
3, 33646, Note_on_c, 1, 32, 81
3, 33689, Note_on_c, 1, 31, 0
3, 34594, Note_on_c, 1, 33, 72
3, 34601, Note_on_c, 1, 32, 0
3, 35551, Note_on_c, 1, 35, 70
3, 35726, Note_on_c, 1, 33, 0
3, 36487, Note_on_c, 1, 36, 82
3, 36572, Note_on_c, 1, 35, 0
3, 37436, Note_on_c, 1, 36, 0
3, 37444, Note_on_c, 1, 37, 81
3, 38220, Note_on_c, 1, 34, 49
3, 38426, Note_on_c, 1, 38, 79
3, 38494, Note_on_c, 1, 37, 0
3, 38544, Note_on_c, 1, 34, 0
3, 39100, Note_on_c, 1, 37, 59
3, 39345, Note_on_c, 1, 45, 109
3, 39401, Note_on_c, 1, 38, 0
3, 39443, Note_on_c, 1, 37, 0
3, 40029, Note_on_c, 1, 37, 31
3, 40119, Note_on_c, 1, 37, 0
3, 40196, Note_on_c, 1, 45, 0
3, 40345, Note_on_c, 1, 45, 95
3, 41267, Note_on_c, 1, 36, 89
3, 41358, Note_on_c, 1, 45, 0
3, 42242, Note_on_c, 1, 36, 0
3, 42263, Note_on_c, 1, 35, 72
3, 43214, Note_on_c, 1, 47, 96
3, 43351, Note_on_c, 1, 35, 0
3, 44210, Note_on_c, 1, 42, 63
3, 44239, Note_on_c, 1, 47, 0
3, 44872, Note_on_c, 1, 35, 44
3, 45030, Note_on_c, 1, 35, 0
3, 45167, Note_on_c, 1, 38, 58
3, 45329, Note_on_c, 1, 42, 0
3, 45880, Note_on_c, 1, 35, 40
3, 46045, Note_on_c, 1, 38, 0
3, 46063, Note_on_c, 1, 35, 0
3, 46111, Note_on_c, 1, 42, 66
3, 47045, Note_on_c, 1, 38, 67
3, 47946, Note_on_c, 1, 33, 58
3, 48853, Note_on_c, 1, 42, 0
3, 48857, Note_on_c, 1, 33, 0
3, 48894, Note_on_c, 1, 38, 0
3, 48948, Note_on_c, 1, 34, 80
3, 49874, Note_on_c, 1, 34, 0
3, 49930, Note_on_c, 1, 35, 67
3, 50864, Note_on_c, 1, 35, 0
3, 50901, Note_on_c, 1, 28, 74
3, 51908, Note_on_c, 1, 35, 64
3, 51933, Note_on_c, 1, 28, 0
3, 52776, Note_on_c, 1, 35, 0
3, 53641, Note_on_c, 1, 35, 69
3, 53672, Note_on_c, 1, 37, 41
3, 53743, Note_on_c, 1, 37, 0
3, 53824, Note_on_c, 1, 35, 0
3, 53967, Note_on_c, 1, 38, 85
3, 54700, Note_on_c, 1, 38, 0
3, 54822, Note_on_c, 1, 38, 81
3, 55706, Note_on_c, 1, 33, 62
3, 55715, Note_on_c, 1, 38, 0
3, 56649, Note_on_c, 1, 33, 0
3, 56667, Note_on_c, 1, 36, 75
3, 57252, Note_on_c, 1, 34, 47
3, 57310, Note_on_c, 1, 36, 0
3, 57572, Note_on_c, 1, 35, 64
3, 57574, Note_on_c, 1, 34, 0
3, 58417, Note_on_c, 1, 35, 0
3, 58556, Note_on_c, 1, 35, 75
3, 59463, Note_on_c, 1, 35, 0
3, 59523, Note_on_c, 1, 34, 75
3, 60372, Note_on_c, 1, 34, 0
3, 60478, Note_on_c, 1, 34, 75
3, 61358, Note_on_c, 1, 34, 0
3, 61412, Note_on_c, 1, 33, 70
3, 62077, Note_on_c, 1, 34, 61
3, 62246, Note_on_c, 1, 34, 0
3, 62371, Note_on_c, 1, 45, 84
3, 62394, Note_on_c, 1, 33, 0
3, 63099, Note_on_c, 1, 34, 19
3, 63188, Note_on_c, 1, 34, 0
3, 63269, Note_on_c, 1, 45, 0
3, 63319, Note_on_c, 1, 44, 69
3, 64110, Note_on_c, 1, 44, 0
3, 64276, Note_on_c, 1, 44, 68
3, 65185, Note_on_c, 1, 44, 0
3, 65249, Note_on_c, 1, 43, 59
3, 66235, Note_on_c, 1, 37, 71
3, 66304, Note_on_c, 1, 43, 0
3, 66992, Note_on_c, 1, 34, 31
3, 67223, Note_on_c, 1, 38, 64
3, 67232, Note_on_c, 1, 34, 0
3, 67263, Note_on_c, 1, 37, 0
3, 68190, Note_on_c, 1, 50, 93
3, 68860, Note_on_c, 1, 51, 71
3, 68900, Note_on_c, 1, 50, 0
3, 69195, Note_on_c, 1, 51, 0
3, 69212, Note_on_c, 1, 50, 61
3, 69798, Note_on_c, 1, 38, 0
3, 69809, Note_on_c, 1, 37, 60
3, 70033, Note_on_c, 1, 37, 0
3, 70077, Note_on_c, 1, 50, 0
3, 70100, Note_on_c, 1, 38, 83
3, 70984, Note_on_c, 1, 38, 0
3, 71098, Note_on_c, 1, 38, 84
3, 71793, Note_on_c, 1, 37, 48
3, 72057, Note_on_c, 1, 50, 94
3, 72074, Note_on_c, 1, 38, 0
3, 72132, Note_on_c, 1, 37, 0
3, 72752, Note_on_c, 1, 37, 34
3, 72858, Note_on_c, 1, 50, 0
3, 72898, Note_on_c, 1, 37, 0
3, 73002, Note_on_c, 1, 50, 87
3, 73938, Note_on_c, 1, 37, 84
3, 74048, Note_on_c, 1, 50, 0
3, 74853, Note_on_c, 1, 38, 69
3, 74890, Note_on_c, 1, 37, 0
3, 75570, Note_on_c, 1, 37, 48
3, 75747, Note_on_c, 1, 38, 0
3, 75766, Note_on_c, 1, 37, 0
3, 75795, Note_on_c, 1, 49, 81
3, 76419, Note_on_c, 1, 37, 40
3, 76652, Note_on_c, 1, 37, 0
3, 76735, Note_on_c, 1, 49, 0
3, 76800, Note_on_c, 1, 50, 72
3, 77750, Note_on_c, 1, 50, 0
3, 77759, Note_on_c, 1, 38, 76
3, 78742, Note_on_c, 1, 36, 70
3, 78744, Note_on_c, 1, 38, 0
3, 79678, Note_on_c, 1, 37, 75
3, 79716, Note_on_c, 1, 36, 0
3, 80427, Note_on_c, 1, 34, 36
3, 80629, Note_on_c, 1, 34, 0
3, 80671, Note_on_c, 1, 38, 64
3, 80693, Note_on_c, 1, 37, 0
3, 81584, Note_on_c, 1, 38, 0
3, 81615, Note_on_c, 1, 45, 88
3, 82291, Note_on_c, 1, 32, 40
3, 82418, Note_on_c, 1, 32, 0
3, 82557, Note_on_c, 1, 41, 64
3, 83374, Note_on_c, 1, 45, 0
3, 83493, Note_on_c, 1, 32, 62
3, 83512, Note_on_c, 1, 41, 0
3, 84429, Note_on_c, 1, 32, 0
3, 84448, Note_on_c, 1, 31, 66
3, 85417, Note_on_c, 1, 33, 72
3, 85419, Note_on_c, 1, 31, 0
3, 86357, Note_on_c, 1, 34, 69
3, 86399, Note_on_c, 1, 33, 0
3, 87270, Note_on_c, 1, 34, 0
3, 87314, Note_on_c, 1, 35, 61
3, 87982, Note_on_c, 1, 34, 47
3, 88030, Note_on_c, 1, 35, 0
3, 88169, Note_on_c, 1, 34, 0
3, 88269, Note_on_c, 1, 36, 61
3, 89144, Note_on_c, 1, 36, 0
3, 89215, Note_on_c, 1, 38, 61
3, 90132, Note_on_c, 1, 38, 0
3, 90220, Note_on_c, 1, 40, 58
3, 90927, Note_on_c, 1, 36, 46
3, 91110, Note_on_c, 1, 40, 0
3, 91133, Note_on_c, 1, 36, 0
3, 91172, Note_on_c, 1, 47, 61
3, 92142, Note_on_c, 1, 43, 50
3, 92212, Note_on_c, 1, 47, 0
3, 92863, Note_on_c, 1, 40, 38
3, 93034, Note_on_c, 1, 43, 0
3, 93051, Note_on_c, 1, 40, 0
3, 93057, Note_on_c, 1, 50, 76
3, 93806, Note_on_c, 1, 40, 33
3, 93945, Note_on_c, 1, 40, 0
3, 94020, Note_on_c, 1, 50, 0
3, 94076, Note_on_c, 1, 47, 55
3, 94769, Note_on_c, 1, 41, 35
3, 94904, Note_on_c, 1, 41, 0
3, 94952, Note_on_c, 1, 47, 0
3, 94998, Note_on_c, 1, 46, 71
3, 95902, Note_on_c, 1, 46, 0
3, 95956, Note_on_c, 1, 45, 44
3, 96963, Note_on_c, 1, 40, 48
3, 96978, Note_on_c, 1, 45, 0
3, 97928, Note_on_c, 1, 33, 55
3, 97930, Note_on_c, 1, 40, 0
3, 98916, Note_on_c, 1, 40, 62
3, 99099, Note_on_c, 1, 33, 0
3, 99642, Note_on_c, 1, 34, 29
3, 99858, Note_on_c, 1, 46, 72
3, 99886, Note_on_c, 1, 34, 0
3, 99894, Note_on_c, 1, 40, 0
3, 100740, Note_on_c, 1, 45, 71
3, 100749, Note_on_c, 1, 46, 0
3, 101722, Note_on_c, 1, 40, 57
3, 101772, Note_on_c, 1, 45, 0
3, 102596, Note_on_c, 1, 40, 0
3, 102637, Note_on_c, 1, 34, 68
3, 103609, Note_on_c, 1, 34, 0
3, 103650, Note_on_c, 1, 35, 71
3, 104615, Note_on_c, 1, 35, 0
3, 104636, Note_on_c, 1, 47, 86
3, 105603, Note_on_c, 1, 41, 59
3, 105624, Note_on_c, 1, 47, 0
3, 106465, Note_on_c, 1, 41, 0
3, 106558, Note_on_c, 1, 36, 64
3, 107274, Note_on_c, 1, 34, 39
3, 107436, Note_on_c, 1, 36, 0
3, 107503, Note_on_c, 1, 34, 0
3, 107523, Note_on_c, 1, 40, 60
3, 108457, Note_on_c, 1, 35, 68
3, 108522, Note_on_c, 1, 40, 0
3, 109397, Note_on_c, 1, 35, 0
3, 109429, Note_on_c, 1, 28, 70
3, 110346, Note_on_c, 1, 32, 79
3, 110379, Note_on_c, 1, 28, 0
3, 111311, Note_on_c, 1, 32, 0
3, 111361, Note_on_c, 1, 33, 73
3, 112336, Note_on_c, 1, 35, 68
3, 112339, Note_on_c, 1, 33, 0
3, 113260, Note_on_c, 1, 35, 0
3, 113279, Note_on_c, 1, 36, 61
3, 113901, Note_on_c, 1, 34, 41
3, 114092, Note_on_c, 1, 36, 0
3, 114223, Note_on_c, 1, 34, 0
3, 114231, Note_on_c, 1, 37, 61
3, 115001, Note_on_c, 1, 34, 31
3, 115103, Note_on_c, 1, 37, 0
3, 115219, Note_on_c, 1, 38, 64
3, 115232, Note_on_c, 1, 34, 0
3, 116112, Note_on_c, 1, 40, 55
3, 116114, Note_on_c, 1, 38, 0
3, 117091, Note_on_c, 1, 41, 67
3, 117435, Note_on_c, 1, 40, 0
3, 117842, Note_on_c, 1, 38, 34
3, 117938, Note_on_c, 1, 41, 0
3, 117969, Note_on_c, 1, 38, 0
3, 118052, Note_on_c, 1, 42, 61
3, 118980, Note_on_c, 1, 42, 0
3, 119007, Note_on_c, 1, 43, 63
3, 119695, Note_on_c, 1, 38, 47
3, 119895, Note_on_c, 1, 43, 0
3, 119908, Note_on_c, 1, 38, 0
3, 119970, Note_on_c, 1, 51, 77
3, 120937, Note_on_c, 1, 51, 0
3, 120973, Note_on_c, 1, 50, 72
3, 121948, Note_on_c, 1, 37, 75
3, 122004, Note_on_c, 1, 50, 0
3, 122895, Note_on_c, 1, 37, 0
3, 122905, Note_on_c, 1, 38, 69
3, 123853, Note_on_c, 1, 47, 83
3, 123935, Note_on_c, 1, 38, 0
3, 124829, Note_on_c, 1, 45, 68
3, 125106, Note_on_c, 1, 47, 0
3, 125611, Note_on_c, 1, 45, 0
3, 125721, Note_on_c, 1, 44, 71
3, 126726, Note_on_c, 1, 43, 61
3, 126747, Note_on_c, 1, 44, 0
3, 127708, Note_on_c, 1, 34, 63
3, 127749, Note_on_c, 1, 43, 0
3, 128612, Note_on_c, 1, 34, 0
3, 128685, Note_on_c, 1, 35, 61
3, 129555, Note_on_c, 1, 35, 0
3, 129596, Note_on_c, 1, 32, 71
3, 130495, Note_on_c, 1, 32, 0
3, 130549, Note_on_c, 1, 33, 56
3, 131477, Note_on_c, 1, 33, 0
3, 131512, Note_on_c, 1, 39, 71
3, 132408, Note_on_c, 1, 39, 0
3, 132496, Note_on_c, 1, 38, 58
3, 133211, Note_on_c, 1, 34, 40
3, 133459, Note_on_c, 1, 50, 77
3, 133488, Note_on_c, 1, 34, 0
3, 133515, Note_on_c, 1, 38, 0
3, 134289, Note_on_c, 1, 50, 0
3, 134426, Note_on_c, 1, 47, 49
3, 135366, Note_on_c, 1, 43, 51
3, 135373, Note_on_c, 1, 47, 0
3, 136294, Note_on_c, 1, 38, 65
3, 136390, Note_on_c, 1, 43, 0
3, 137251, Note_on_c, 1, 38, 0
3, 137307, Note_on_c, 1, 40, 55
3, 138224, Note_on_c, 1, 40, 0
3, 138228, Note_on_c, 1, 33, 65
3, 139052, Note_on_c, 1, 33, 0
3, 139221, Note_on_c, 1, 36, 78
3, 139664, Note_on_c, 1, 37, 5
3, 139984, Note_on_c, 1, 34, 44
3, 140067, Note_on_c, 1, 37, 0
3, 140098, Note_on_c, 1, 36, 0
3, 140140, Note_on_c, 1, 34, 0
3, 140163, Note_on_c, 1, 38, 66
3, 140512, Note_on_c, 1, 30, 38
3, 140714, Note_on_c, 1, 30, 0
3, 140988, Note_on_c, 1, 38, 0
3, 141049, Note_on_c, 1, 30, 58
3, 142080, Note_on_c, 1, 30, 0
3, 142099, Note_on_c, 1, 31, 68
3, 142939, Note_on_c, 1, 31, 0
3, 143052, Note_on_c, 1, 31, 79
3, 143977, Note_on_c, 1, 31, 0
3, 144009, Note_on_c, 1, 35, 75
3, 144886, Note_on_c, 1, 35, 0
3, 145007, Note_on_c, 1, 35, 78
3, 145872, Note_on_c, 1, 35, 0
3, 145937, Note_on_c, 1, 36, 66
3, 146748, Note_on_c, 1, 36, 0
3, 146898, Note_on_c, 1, 36, 76
3, 147495, Note_on_c, 1, 34, 33
3, 147619, Note_on_c, 1, 36, 0
3, 147821, Note_on_c, 1, 40, 77
3, 147863, Note_on_c, 1, 34, 0
3, 148703, Note_on_c, 1, 36, 70
3, 148749, Note_on_c, 1, 40, 0
3, 149681, Note_on_c, 1, 36, 0
3, 149727, Note_on_c, 1, 35, 68
3, 150419, Note_on_c, 1, 38, 48
3, 150515, Note_on_c, 1, 38, 0
3, 150681, Note_on_c, 1, 45, 55
3, 150733, Note_on_c, 1, 35, 0
3, 151386, Note_on_c, 1, 38, 40
3, 151495, Note_on_c, 1, 38, 0
3, 151707, Note_on_c, 1, 42, 59
3, 151709, Note_on_c, 1, 45, 0
3, 152628, Note_on_c, 1, 39, 75
3, 152636, Note_on_c, 1, 42, 0
3, 153602, Note_on_c, 1, 39, 0
3, 153614, Note_on_c, 1, 40, 62
3, 154386, Note_on_c, 1, 39, 43
3, 154573, Note_on_c, 1, 39, 0
3, 154581, Note_on_c, 1, 47, 57
3, 154583, Note_on_c, 1, 40, 0
3, 155486, Note_on_c, 1, 47, 0
3, 155532, Note_on_c, 1, 52, 66
3, 156453, Note_on_c, 1, 44, 68
3, 156624, Note_on_c, 1, 52, 0
3, 157443, Note_on_c, 1, 44, 0
3, 157456, Note_on_c, 1, 45, 66
3, 158201, Note_on_c, 1, 44, 49
3, 158377, Note_on_c, 1, 45, 0
3, 158454, Note_on_c, 1, 59, 82
3, 158504, Note_on_c, 1, 44, 0
3, 159355, Note_on_c, 1, 59, 0
3, 159378, Note_on_c, 1, 57, 72
3, 160314, Note_on_c, 1, 57, 0
3, 160364, Note_on_c, 1, 55, 64
3, 161192, Note_on_c, 1, 55, 0
3, 161285, Note_on_c, 1, 54, 67
3, 162207, Note_on_c, 1, 51, 67
3, 162209, Note_on_c, 1, 54, 0
3, 163103, Note_on_c, 1, 51, 0
3, 163193, Note_on_c, 1, 50, 75
3, 164114, Note_on_c, 1, 50, 0
3, 164189, Note_on_c, 1, 48, 75
3, 164900, Note_on_c, 1, 44, 39
3, 164921, Note_on_c, 1, 48, 0
3, 165075, Note_on_c, 1, 44, 0
3, 165158, Note_on_c, 1, 47, 59
3, 166061, Note_on_c, 1, 47, 0
3, 166082, Note_on_c, 1, 42, 58
3, 167036, Note_on_c, 1, 35, 58
3, 167045, Note_on_c, 1, 42, 0
3, 167949, Note_on_c, 1, 35, 0
3, 167968, Note_on_c, 1, 42, 55
3, 168552, Note_on_c, 1, 42, 0
3, 168640, Note_on_c, 1, 39, 60
3, 168804, Note_on_c, 1, 39, 0
3, 168971, Note_on_c, 1, 40, 48
3, 169751, Note_on_c, 1, 40, 0
3, 169853, Note_on_c, 1, 35, 58
3, 170857, Note_on_c, 1, 42, 60
3, 171184, Note_on_c, 1, 35, 0
3, 171546, Note_on_c, 1, 39, 35
3, 171716, Note_on_c, 1, 42, 0
3, 171768, Note_on_c, 1, 39, 0
3, 171803, Note_on_c, 1, 47, 78
3, 172532, Note_on_c, 1, 40, 40
3, 172694, Note_on_c, 1, 47, 0
3, 172702, Note_on_c, 1, 40, 0
3, 172767, Note_on_c, 1, 52, 69
3, 173615, Note_on_c, 1, 52, 0
3, 173721, Note_on_c, 1, 46, 64
3, 174689, Note_on_c, 1, 46, 0
3, 174724, Note_on_c, 1, 47, 64
3, 175650, Note_on_c, 1, 40, 68
3, 175670, Note_on_c, 1, 47, 0
3, 176311, Note_on_c, 1, 37, 43
3, 176394, Note_on_c, 1, 40, 0
3, 176608, Note_on_c, 1, 37, 0
3, 176613, Note_on_c, 1, 38, 58
3, 177482, Note_on_c, 1, 38, 0
3, 177603, Note_on_c, 1, 38, 68
3, 178566, Note_on_c, 1, 50, 92
3, 178582, Note_on_c, 1, 38, 0
3, 179248, Note_on_c, 1, 38, 42
3, 179496, Note_on_c, 1, 38, 0
3, 179510, Note_on_c, 1, 48, 54
3, 179604, Note_on_c, 1, 50, 0
3, 180217, Note_on_c, 1, 38, 37
3, 180323, Note_on_c, 1, 38, 0
3, 180459, Note_on_c, 1, 48, 0
3, 180515, Note_on_c, 1, 47, 68
3, 181444, Note_on_c, 1, 35, 68
3, 182044, Note_on_c, 1, 47, 0
3, 182202, Note_on_c, 1, 35, 0
3, 182418, Note_on_c, 1, 35, 75
3, 183171, Note_on_c, 1, 35, 0
3, 183381, Note_on_c, 1, 34, 79
3, 184290, Note_on_c, 1, 34, 0
3, 184348, Note_on_c, 1, 33, 66
3, 185305, Note_on_c, 1, 33, 0
3, 185317, Note_on_c, 1, 40, 34
3, 185349, Note_on_c, 1, 38, 35
3, 185602, Note_on_c, 1, 38, 0
3, 185993, Note_on_c, 1, 34, 35
3, 186179, Note_on_c, 1, 40, 0
3, 186249, Note_on_c, 1, 44, 75
3, 186251, Note_on_c, 1, 34, 0
3, 187206, Note_on_c, 1, 32, 71
3, 187256, Note_on_c, 1, 44, 0
3, 188098, Note_on_c, 1, 32, 0
3, 188152, Note_on_c, 1, 31, 59
3, 189116, Note_on_c, 1, 31, 0
3, 189149, Note_on_c, 1, 38, 75
3, 190153, Note_on_c, 1, 50, 82
3, 190813, Note_on_c, 1, 49, 55
3, 190819, Note_on_c, 1, 50, 0
3, 191046, Note_on_c, 1, 38, 0
3, 191075, Note_on_c, 1, 49, 0
3, 191123, Note_on_c, 1, 50, 73
3, 192055, Note_on_c, 1, 38, 61
3, 192918, Note_on_c, 1, 38, 0
3, 192993, Note_on_c, 1, 38, 71
3, 193101, Note_on_c, 1, 50, 0
3, 193806, Note_on_c, 1, 38, 0
3, 193941, Note_on_c, 1, 38, 71
3, 194586, Note_on_c, 1, 37, 64
3, 194617, Note_on_c, 1, 38, 0
3, 194767, Note_on_c, 1, 37, 0
3, 194854, Note_on_c, 1, 38, 51
3, 195901, Note_on_c, 1, 50, 84
3, 196475, Note_on_c, 1, 50, 0
3, 196837, Note_on_c, 1, 50, 79
3, 197483, Note_on_c, 1, 50, 0
3, 197510, Note_on_c, 1, 49, 51
3, 197795, Note_on_c, 1, 50, 72
3, 197850, Note_on_c, 1, 49, 0
3, 198538, Note_on_c, 1, 38, 0
3, 198700, Note_on_c, 1, 37, 74
3, 198775, Note_on_c, 1, 50, 0
3, 199651, Note_on_c, 1, 37, 0
3, 199653, Note_on_c, 1, 38, 73
3, 200300, Note_on_c, 1, 37, 52
3, 200329, Note_on_c, 1, 49, 41
3, 200497, Note_on_c, 1, 49, 0
3, 200587, Note_on_c, 1, 37, 0
3, 200610, Note_on_c, 1, 50, 78
3, 200691, Note_on_c, 1, 38, 0
3, 201277, Note_on_c, 1, 38, 36
3, 201481, Note_on_c, 1, 38, 0
3, 201523, Note_on_c, 1, 50, 0
3, 201569, Note_on_c, 1, 49, 61
3, 202143, Note_on_c, 1, 49, 0
3, 202236, Note_on_c, 1, 50, 70
3, 202423, Note_on_c, 1, 50, 0
3, 202523, Note_on_c, 1, 37, 63
3, 203451, Note_on_c, 1, 37, 0
3, 203476, Note_on_c, 1, 38, 68
3, 204162, Note_on_c, 1, 37, 56
3, 204339, Note_on_c, 1, 38, 0
3, 204470, Note_on_c, 1, 48, 76
3, 204472, Note_on_c, 1, 37, 0
3, 205385, Note_on_c, 1, 45, 68
3, 205545, Note_on_c, 1, 48, 0
3, 206226, Note_on_c, 1, 45, 0
3, 206328, Note_on_c, 1, 42, 59
3, 207230, Note_on_c, 1, 42, 0
3, 207291, Note_on_c, 1, 43, 66
3, 208239, Note_on_c, 1, 43, 0
3, 208289, Note_on_c, 1, 32, 63
3, 209210, Note_on_c, 1, 32, 0
3, 209237, Note_on_c, 1, 31, 61
3, 210184, Note_on_c, 1, 31, 0
3, 210188, Note_on_c, 1, 35, 69
3, 211147, Note_on_c, 1, 36, 72
3, 211151, Note_on_c, 1, 35, 0
3, 211937, Note_on_c, 1, 34, 29
3, 212043, Note_on_c, 1, 34, 0
3, 212048, Note_on_c, 1, 36, 0
3, 212083, Note_on_c, 1, 38, 57
3, 213088, Note_on_c, 1, 40, 54
3, 213156, Note_on_c, 1, 38, 0
3, 213772, Note_on_c, 1, 39, 41
3, 213928, Note_on_c, 1, 39, 0
3, 214042, Note_on_c, 1, 45, 79
3, 214103, Note_on_c, 1, 40, 0
3, 215020, Note_on_c, 1, 43, 58
3, 215022, Note_on_c, 1, 45, 0
3, 215744, Note_on_c, 1, 40, 37
3, 215854, Note_on_c, 1, 43, 0
3, 215979, Note_on_c, 1, 40, 0
3, 215989, Note_on_c, 1, 48, 83
3, 216732, Note_on_c, 1, 40, 31
3, 216873, Note_on_c, 1, 40, 0
3, 216921, Note_on_c, 1, 47, 68
3, 217031, Note_on_c, 1, 48, 0
3, 217709, Note_on_c, 1, 40, 29
3, 217807, Note_on_c, 1, 47, 0
3, 217834, Note_on_c, 1, 40, 0
3, 217865, Note_on_c, 1, 46, 72
3, 218770, Note_on_c, 1, 46, 0
3, 218843, Note_on_c, 1, 45, 62
3, 219818, Note_on_c, 1, 40, 58
3, 219823, Note_on_c, 1, 45, 0
3, 220761, Note_on_c, 1, 40, 0
3, 220786, Note_on_c, 1, 33, 58
3, 221570, Note_on_c, 1, 33, 0
3, 221709, Note_on_c, 1, 33, 66
3, 222360, Note_on_c, 1, 32, 44
3, 222477, Note_on_c, 1, 33, 0
3, 222602, Note_on_c, 1, 32, 0
3, 222620, Note_on_c, 1, 33, 66
3, 224249, Note_on_c, 1, 33, 0
3, 224334, Note_on_c, 1, 33, 61
3, 224573, Note_on_c, 1, 33, 0
3, 224607, Note_on_c, 1, 39, 80
3, 225613, Note_on_c, 1, 37, 49
3, 225653, Note_on_c, 1, 36, 68
3, 225734, Note_on_c, 1, 36, 0
3, 225792, Note_on_c, 1, 37, 0
3, 226312, Note_on_c, 1, 36, 60
3, 226462, Note_on_c, 1, 36, 0
3, 226576, Note_on_c, 1, 39, 0
3, 226612, Note_on_c, 1, 35, 70
3, 227533, Note_on_c, 1, 47, 70
3, 227614, Note_on_c, 1, 35, 0
3, 228465, Note_on_c, 1, 41, 60
3, 228511, Note_on_c, 1, 47, 0
3, 229314, Note_on_c, 1, 41, 0
3, 229432, Note_on_c, 1, 41, 75
3, 230179, Note_on_c, 1, 37, 38
3, 230231, Note_on_c, 1, 41, 0
3, 230424, Note_on_c, 1, 37, 0
3, 230431, Note_on_c, 1, 40, 46
3, 231073, Note_on_c, 1, 37, 37
3, 231338, Note_on_c, 1, 47, 67
3, 231392, Note_on_c, 1, 37, 0
3, 231425, Note_on_c, 1, 40, 0
3, 232047, Note_on_c, 1, 37, 27
3, 232263, Note_on_c, 1, 37, 0
3, 232307, Note_on_c, 1, 44, 61
3, 232440, Note_on_c, 1, 47, 0
3, 233295, Note_on_c, 1, 34, 71
3, 233368, Note_on_c, 1, 44, 0
3, 234166, Note_on_c, 1, 34, 0
3, 234245, Note_on_c, 1, 33, 62
3, 235192, Note_on_c, 1, 35, 66
3, 235221, Note_on_c, 1, 33, 0
3, 236094, Note_on_c, 1, 35, 0
3, 236169, Note_on_c, 1, 36, 62
3, 236885, Note_on_c, 1, 34, 40
3, 237014, Note_on_c, 1, 36, 0
3, 237112, Note_on_c, 1, 37, 51
3, 237114, Note_on_c, 1, 34, 0
3, 237842, Note_on_c, 1, 34, 37
3, 237969, Note_on_c, 1, 37, 0
3, 238104, Note_on_c, 1, 38, 57
3, 238137, Note_on_c, 1, 34, 0
3, 239067, Note_on_c, 1, 50, 80
3, 239223, Note_on_c, 1, 38, 0
3, 239872, Note_on_c, 1, 50, 0
3, 240003, Note_on_c, 1, 50, 74
3, 240685, Note_on_c, 1, 38, 52
3, 240777, Note_on_c, 1, 38, 0
3, 241018, Note_on_c, 1, 38, 61
3, 241812, Note_on_c, 1, 38, 0
3, 241950, Note_on_c, 1, 38, 75
3, 242750, Note_on_c, 1, 38, 0
3, 242821, Note_on_c, 1, 50, 0
3, 242900, Note_on_c, 1, 38, 68
3, 244521, Note_on_c, 1, 37, 64
3, 244544, Note_on_c, 1, 38, 0
3, 244764, Note_on_c, 1, 37, 0
3, 244833, Note_on_c, 1, 38, 69
3, 246372, Note_on_c, 1, 38, 0
3, 246384, Note_on_c, 1, 37, 56
3, 246569, Note_on_c, 1, 37, 0
3, 246638, Note_on_c, 1, 38, 65
3, 248258, Note_on_c, 1, 37, 52
3, 248323, Note_on_c, 1, 46, 72
3, 248437, Note_on_c, 1, 38, 0
3, 248456, Note_on_c, 1, 37, 0
3, 248537, Note_on_c, 1, 46, 0
3, 248693, Note_on_c, 1, 47, 66
3, 248868, Note_on_c, 1, 47, 0
3, 249273, Note_on_c, 1, 30, 61
3, 249529, Note_on_c, 1, 30, 0
3, 249604, Note_on_c, 1, 31, 61
3, 250507, Note_on_c, 1, 31, 0
3, 250538, Note_on_c, 1, 33, 53
3, 251231, Note_on_c, 1, 31, 40
3, 251430, Note_on_c, 1, 33, 0
3, 251522, Note_on_c, 1, 31, 0
3, 251545, Note_on_c, 1, 35, 58
3, 252331, Note_on_c, 1, 35, 0
3, 252433, Note_on_c, 1, 32, 57
3, 253313, Note_on_c, 1, 32, 0
3, 253400, Note_on_c, 1, 33, 58
3, 254315, Note_on_c, 1, 33, 0
3, 254342, Note_on_c, 1, 40, 64
3, 255170, Note_on_c, 1, 40, 0
3, 255322, Note_on_c, 1, 38, 62
3, 256266, Note_on_c, 1, 38, 0
3, 256298, Note_on_c, 1, 36, 71
3, 257182, Note_on_c, 1, 36, 0
3, 257250, Note_on_c, 1, 35, 63
3, 258240, Note_on_c, 1, 39, 72
3, 258326, Note_on_c, 1, 35, 0
3, 259232, Note_on_c, 1, 40, 64
3, 259268, Note_on_c, 1, 39, 0
3, 260112, Note_on_c, 1, 32, 63
3, 260139, Note_on_c, 1, 40, 0
3, 261075, Note_on_c, 1, 32, 0
3, 261111, Note_on_c, 1, 33, 66
3, 261834, Note_on_c, 1, 32, 55
3, 262032, Note_on_c, 1, 32, 0
3, 262057, Note_on_c, 1, 46, 71
3, 262082, Note_on_c, 1, 33, 0
3, 263051, Note_on_c, 1, 45, 61
3, 263053, Note_on_c, 1, 46, 0
3, 263991, Note_on_c, 1, 38, 65
3, 264075, Note_on_c, 1, 45, 0
3, 264699, Note_on_c, 1, 37, 41
3, 264892, Note_on_c, 1, 37, 0
3, 264919, Note_on_c, 1, 38, 0
3, 264954, Note_on_c, 1, 43, 59
3, 265922, Note_on_c, 1, 43, 0
3, 265938, Note_on_c, 1, 35, 69
3, 266837, Note_on_c, 1, 35, 0
3, 266908, Note_on_c, 1, 38, 73
3, 267846, Note_on_c, 1, 35, 64
3, 267852, Note_on_c, 1, 38, 0
3, 268811, Note_on_c, 1, 36, 77
3, 268836, Note_on_c, 1, 35, 0
3, 269250, Note_on_c, 1, 36, 0
3, 269497, Note_on_c, 1, 36, 55
3, 269743, Note_on_c, 1, 36, 0
3, 269757, Note_on_c, 1, 38, 68
3, 270724, Note_on_c, 1, 38, 0
3, 270724, Note_on_c, 1, 40, 53
3, 271419, Note_on_c, 1, 38, 50
3, 271575, Note_on_c, 1, 40, 0
3, 271679, Note_on_c, 1, 38, 0
3, 271706, Note_on_c, 1, 48, 86
3, 272567, Note_on_c, 1, 48, 0
3, 272617, Note_on_c, 1, 47, 66
3, 273545, Note_on_c, 1, 42, 59
3, 273574, Note_on_c, 1, 47, 0
3, 274550, Note_on_c, 1, 42, 0
3, 274556, Note_on_c, 1, 35, 62
3, 275504, Note_on_c, 1, 39, 73
3, 275683, Note_on_c, 1, 35, 0
3, 276392, Note_on_c, 1, 39, 0
3, 276467, Note_on_c, 1, 40, 67
3, 277233, Note_on_c, 1, 39, 48
3, 277447, Note_on_c, 1, 54, 87
3, 277453, Note_on_c, 1, 40, 0
3, 277484, Note_on_c, 1, 39, 0
3, 278406, Note_on_c, 1, 52, 71
3, 278579, Note_on_c, 1, 54, 0
3, 279300, Note_on_c, 1, 52, 0
3, 279365, Note_on_c, 1, 50, 75
3, 280282, Note_on_c, 1, 50, 0
3, 280355, Note_on_c, 1, 48, 69
3, 281283, Note_on_c, 1, 47, 63
3, 281285, Note_on_c, 1, 48, 0
3, 282102, Note_on_c, 1, 47, 0
3, 282125, Note_on_c, 1, 42, 25
3, 282212, Note_on_c, 1, 42, 0
3, 282264, Note_on_c, 1, 45, 68
3, 283200, Note_on_c, 1, 39, 68
3, 283204, Note_on_c, 1, 45, 0
3, 284103, Note_on_c, 1, 39, 0
3, 284124, Note_on_c, 1, 38, 59
3, 285014, Note_on_c, 1, 38, 0
3, 285129, Note_on_c, 1, 38, 88
3, 286067, Note_on_c, 1, 38, 0
3, 286112, Note_on_c, 1, 36, 47
3, 286932, Note_on_c, 1, 36, 0
3, 287044, Note_on_c, 1, 36, 91
3, 287862, Note_on_c, 1, 36, 0
3, 287936, Note_on_c, 1, 35, 56
3, 288698, Note_on_c, 1, 40, 29
3, 288798, Note_on_c, 1, 40, 0
3, 288931, Note_on_c, 1, 47, 67
3, 289041, Note_on_c, 1, 35, 0
3, 289892, Note_on_c, 1, 42, 52
3, 289971, Note_on_c, 1, 47, 0
3, 290844, Note_on_c, 1, 34, 68
3, 290919, Note_on_c, 1, 42, 0
3, 291814, Note_on_c, 1, 34, 0
3, 291839, Note_on_c, 1, 35, 66
3, 292799, Note_on_c, 1, 38, 57
3, 292881, Note_on_c, 1, 35, 0
3, 293729, Note_on_c, 1, 38, 0
3, 293777, Note_on_c, 1, 39, 59
3, 294574, Note_on_c, 1, 35, 34
3, 294619, Note_on_c, 1, 39, 0
3, 294701, Note_on_c, 1, 35, 0
3, 294732, Note_on_c, 1, 39, 77
3, 295691, Note_on_c, 1, 40, 64
3, 295695, Note_on_c, 1, 39, 0
3, 296454, Note_on_c, 1, 35, 28
3, 296562, Note_on_c, 1, 40, 0
3, 296606, Note_on_c, 1, 35, 0
3, 296666, Note_on_c, 1, 40, 55
3, 297459, Note_on_c, 1, 35, 41
3, 297529, Note_on_c, 1, 40, 0
3, 297575, Note_on_c, 1, 35, 0
3, 297708, Note_on_c, 1, 52, 35
3, 297717, Note_on_c, 1, 53, 46
3, 298239, Note_on_c, 1, 53, 0
3, 298314, Note_on_c, 1, 52, 0
3, 298592, Note_on_c, 1, 52, 59
3, 299208, Note_on_c, 1, 42, 33
3, 299281, Note_on_c, 1, 42, 0
3, 299358, Note_on_c, 1, 52, 0
3, 299497, Note_on_c, 1, 50, 72
3, 300362, Note_on_c, 1, 50, 0
3, 300500, Note_on_c, 1, 50, 75
3, 301409, Note_on_c, 1, 38, 66
3, 302220, Note_on_c, 1, 50, 0
3, 302397, Note_on_c, 1, 49, 57
3, 302759, Note_on_c, 1, 38, 0
3, 302902, Note_on_c, 1, 49, 0
3, 303021, Note_on_c, 1, 48, 33
3, 303260, Note_on_c, 1, 48, 0
3, 303385, Note_on_c, 1, 47, 65
3, 304142, Note_on_c, 1, 47, 0
3, 304312, Note_on_c, 1, 47, 55
3, 305061, Note_on_c, 1, 41, 37
3, 305194, Note_on_c, 1, 41, 0
3, 305209, Note_on_c, 1, 47, 0
3, 305311, Note_on_c, 1, 46, 51
3, 306228, Note_on_c, 1, 46, 0
3, 306259, Note_on_c, 1, 34, 59
3, 307152, Note_on_c, 1, 34, 0
3, 307253, Note_on_c, 1, 33, 64
3, 307877, Note_on_c, 1, 34, 59
3, 308052, Note_on_c, 1, 33, 0
3, 308115, Note_on_c, 1, 34, 0
3, 308162, Note_on_c, 1, 45, 78
3, 309049, Note_on_c, 1, 45, 0
3, 309088, Note_on_c, 1, 44, 68
3, 310062, Note_on_c, 1, 32, 71
3, 310080, Note_on_c, 1, 44, 0
3, 311074, Note_on_c, 1, 32, 0
3, 311079, Note_on_c, 1, 31, 66
3, 312002, Note_on_c, 1, 37, 63
3, 312112, Note_on_c, 1, 31, 0
3, 312867, Note_on_c, 1, 34, 23
3, 313005, Note_on_c, 1, 38, 61
3, 313009, Note_on_c, 1, 37, 0
3, 313011, Note_on_c, 1, 34, 0
3, 313957, Note_on_c, 1, 51, 73
3, 314113, Note_on_c, 1, 38, 0
3, 314943, Note_on_c, 1, 50, 64
3, 315162, Note_on_c, 1, 51, 0
3, 315877, Note_on_c, 1, 44, 60
3, 316734, Note_on_c, 1, 44, 0
3, 316763, Note_on_c, 1, 50, 0
3, 316826, Note_on_c, 1, 45, 58
3, 317782, Note_on_c, 1, 38, 62
3, 317797, Note_on_c, 1, 45, 0
3, 318752, Note_on_c, 1, 50, 89
3, 318953, Note_on_c, 1, 38, 0
3, 319351, Note_on_c, 1, 38, 30
3, 319600, Note_on_c, 1, 50, 0
3, 319731, Note_on_c, 1, 50, 82
3, 319752, Note_on_c, 1, 38, 0
3, 320649, Note_on_c, 1, 38, 63
3, 320721, Note_on_c, 1, 50, 0
3, 321493, Note_on_c, 1, 38, 0
3, 321618, Note_on_c, 1, 38, 76
3, 322529, Note_on_c, 1, 38, 0
3, 322548, Note_on_c, 1, 31, 63
3, 323492, Note_on_c, 1, 31, 0
3, 323511, Note_on_c, 1, 33, 68
3, 324474, Note_on_c, 1, 34, 71
3, 324499, Note_on_c, 1, 33, 0
3, 325123, Note_on_c, 1, 34, 0
3, 325428, Note_on_c, 1, 39, 67
3, 326312, Note_on_c, 1, 37, 69
3, 326340, Note_on_c, 1, 39, 0
3, 326543, Note_on_c, 1, 38, 81
3, 326572, Note_on_c, 1, 37, 0
3, 327313, Note_on_c, 1, 38, 0
3, 327338, Note_on_c, 1, 33, 66
3, 328280, Note_on_c, 1, 33, 0
3, 328336, Note_on_c, 1, 36, 61
3, 329231, Note_on_c, 1, 36, 0
3, 329254, Note_on_c, 1, 32, 66
3, 330206, Note_on_c, 1, 32, 0
3, 330229, Note_on_c, 1, 31, 68
3, 331171, Note_on_c, 1, 33, 75
3, 331180, Note_on_c, 1, 31, 0
3, 332128, Note_on_c, 1, 34, 73
3, 332191, Note_on_c, 1, 33, 0
3, 333039, Note_on_c, 1, 34, 0
3, 333095, Note_on_c, 1, 35, 72
3, 333886, Note_on_c, 1, 35, 0
3, 334038, Note_on_c, 1, 36, 71
3, 335032, Note_on_c, 1, 38, 60
3, 335103, Note_on_c, 1, 36, 0
3, 335995, Note_on_c, 1, 40, 65
3, 336107, Note_on_c, 1, 38, 0
3, 336910, Note_on_c, 1, 31, 70
3, 337029, Note_on_c, 1, 40, 0
3, 337694, Note_on_c, 1, 36, 38
3, 337827, Note_on_c, 1, 36, 0
3, 337904, Note_on_c, 1, 31, 0
3, 337919, Note_on_c, 1, 40, 73
3, 338659, Note_on_c, 1, 40, 0
3, 338753, Note_on_c, 1, 31, 24
3, 338851, Note_on_c, 1, 40, 70
3, 338899, Note_on_c, 1, 31, 0
3, 339849, Note_on_c, 1, 35, 62
3, 339853, Note_on_c, 1, 40, 0
3, 340741, Note_on_c, 1, 34, 74
3, 340808, Note_on_c, 1, 35, 0
3, 341694, Note_on_c, 1, 34, 0
3, 341786, Note_on_c, 1, 33, 66
3, 342705, Note_on_c, 1, 47, 94
3, 342790, Note_on_c, 1, 33, 0
3, 343618, Note_on_c, 1, 47, 0
3, 343631, Note_on_c, 1, 45, 71
3, 345274, Note_on_c, 1, 40, 38
3, 345490, Note_on_c, 1, 40, 0
3, 345619, Note_on_c, 1, 33, 65
3, 346389, Note_on_c, 1, 33, 0
3, 346540, Note_on_c, 1, 33, 75
3, 347449, Note_on_c, 1, 33, 0
3, 347485, Note_on_c, 1, 34, 81
3, 347499, Note_on_c, 1, 45, 0
3, 348331, Note_on_c, 1, 34, 0
3, 348460, Note_on_c, 1, 34, 66
3, 349367, Note_on_c, 1, 34, 0
3, 349419, Note_on_c, 1, 35, 69
3, 350422, Note_on_c, 1, 47, 84
3, 350459, Note_on_c, 1, 35, 0
3, 351391, Note_on_c, 1, 41, 68
3, 351414, Note_on_c, 1, 47, 0
3, 352238, Note_on_c, 1, 41, 0
3, 352352, Note_on_c, 1, 41, 82
3, 353120, Note_on_c, 1, 41, 0
3, 353315, Note_on_c, 1, 40, 57
3, 354214, Note_on_c, 1, 40, 0
3, 354247, Note_on_c, 1, 28, 78
3, 355227, Note_on_c, 1, 35, 55
3, 355258, Note_on_c, 1, 28, 0
3, 356100, Note_on_c, 1, 32, 86
3, 356173, Note_on_c, 1, 35, 0
3, 357057, Note_on_c, 1, 32, 0
3, 357067, Note_on_c, 1, 33, 83
3, 357997, Note_on_c, 1, 33, 0
3, 358072, Note_on_c, 1, 33, 75
3, 359033, Note_on_c, 1, 33, 0
3, 359079, Note_on_c, 1, 35, 67
3, 359547, Note_on_c, 1, 35, 0
3, 359690, Note_on_c, 1, 36, 48
3, 359967, Note_on_c, 1, 36, 0
3, 359973, Note_on_c, 1, 37, 71
3, 360657, Note_on_c, 1, 34, 47
3, 360757, Note_on_c, 1, 37, 0
3, 360965, Note_on_c, 1, 38, 70
3, 360994, Note_on_c, 1, 34, 0
3, 361756, Note_on_c, 1, 34, 30
3, 361812, Note_on_c, 1, 38, 0
3, 361874, Note_on_c, 1, 34, 0
3, 361935, Note_on_c, 1, 38, 79
3, 362738, Note_on_c, 1, 38, 0
3, 362804, Note_on_c, 1, 36, 78
3, 363659, Note_on_c, 1, 36, 0
3, 363782, Note_on_c, 1, 36, 81
3, 364641, Note_on_c, 1, 36, 0
3, 364751, Note_on_c, 1, 35, 66
3, 365433, Note_on_c, 1, 40, 50
3, 365554, Note_on_c, 1, 40, 0
3, 365712, Note_on_c, 1, 47, 92
3, 365781, Note_on_c, 1, 35, 0
3, 366604, Note_on_c, 1, 47, 0
3, 366677, Note_on_c, 1, 42, 61
3, 367640, Note_on_c, 1, 38, 61
3, 367813, Note_on_c, 1, 42, 0
3, 368301, Note_on_c, 1, 32, 50
3, 368424, Note_on_c, 1, 32, 0
3, 368591, Note_on_c, 1, 38, 0
3, 368616, Note_on_c, 1, 40, 60
3, 369552, Note_on_c, 1, 33, 77
3, 369597, Note_on_c, 1, 40, 0
3, 370596, Note_on_c, 1, 33, 0
3, 371145, Note_on_c, 1, 40, 76
3, 371436, Note_on_c, 1, 33, 44
3, 371486, Note_on_c, 1, 40, 0
3, 371536, Note_on_c, 1, 33, 0
3, 371540, Note_on_c, 1, 39, 62
3, 372260, Note_on_c, 1, 33, 46
3, 372364, Note_on_c, 1, 33, 0
3, 372453, Note_on_c, 1, 39, 0
3, 372489, Note_on_c, 1, 38, 59
3, 373221, Note_on_c, 1, 33, 49
3, 373375, Note_on_c, 1, 38, 0
3, 373449, Note_on_c, 1, 33, 0
3, 373472, Note_on_c, 1, 47, 66
3, 374358, Note_on_c, 1, 47, 0
3, 374410, Note_on_c, 1, 45, 69
3, 375336, Note_on_c, 1, 37, 71
3, 375407, Note_on_c, 1, 45, 0
3, 376299, Note_on_c, 1, 38, 72
3, 376370, Note_on_c, 1, 37, 0
3, 377310, Note_on_c, 1, 50, 98
3, 377352, Note_on_c, 1, 38, 0
3, 378098, Note_on_c, 1, 50, 0
3, 378269, Note_on_c, 1, 50, 79
3, 378905, Note_on_c, 1, 29, 60
3, 378918, Note_on_c, 1, 50, 0
3, 379109, Note_on_c, 1, 29, 0
3, 379232, Note_on_c, 1, 30, 62
3, 379791, Note_on_c, 1, 30, 0
3, 379873, Note_on_c, 1, 31, 81
3, 380811, Note_on_c, 1, 30, 39
3, 381085, Note_on_c, 1, 31, 0
3, 381108, Note_on_c, 1, 30, 0
3, 381139, Note_on_c, 1, 35, 54
3, 382142, Note_on_c, 1, 36, 64
3, 382161, Note_on_c, 1, 35, 0
3, 383059, Note_on_c, 1, 36, 0
3, 383101, Note_on_c, 1, 37, 49
3, 383933, Note_on_c, 1, 37, 0
3, 384055, Note_on_c, 1, 38, 59
3, 385697, Note_on_c, 1, 38, 0
3, 385719, Note_on_c, 1, 31, 70
3, 394695, Note_on_c, 1, 31, 0
3, 394695, End_track
4, 0, Start_track
4, 0, Title_t, "HiHats"
4, 0, Program_c, 9, 0
4, 0, Control_c, 9, 7, 93
4, 4880, Note_on_c, 9, 44, 64
4, 5451, Note_on_c, 9, 44, 0
4, 6749, Note_on_c, 9, 44, 58
4, 7179, Note_on_c, 9, 44, 0
4, 8594, Note_on_c, 9, 44, 56
4, 8891, Note_on_c, 9, 44, 0
4, 10512, Note_on_c, 9, 46, 49
4, 11129, Note_on_c, 9, 46, 0
4, 12406, Note_on_c, 9, 44, 46
4, 12783, Note_on_c, 9, 44, 0
4, 14424, Note_on_c, 9, 44, 63
4, 14859, Note_on_c, 9, 44, 0
4, 16287, Note_on_c, 9, 44, 53
4, 16681, Note_on_c, 9, 44, 0
4, 18240, Note_on_c, 9, 44, 49
4, 18599, Note_on_c, 9, 44, 0
4, 20084, Note_on_c, 9, 44, 51
4, 20473, Note_on_c, 9, 44, 0
4, 22068, Note_on_c, 9, 44, 54
4, 22413, Note_on_c, 9, 44, 0
4, 24039, Note_on_c, 9, 44, 51
4, 24408, Note_on_c, 9, 44, 0
4, 25967, Note_on_c, 9, 44, 50
4, 26371, Note_on_c, 9, 44, 0
4, 27794, Note_on_c, 9, 44, 78
4, 28271, Note_on_c, 9, 44, 0
4, 29725, Note_on_c, 9, 46, 58
4, 30198, Note_on_c, 9, 46, 0
4, 31642, Note_on_c, 9, 44, 49
4, 31980, Note_on_c, 9, 44, 0
4, 33598, Note_on_c, 9, 44, 50
4, 33933, Note_on_c, 9, 44, 0
4, 35528, Note_on_c, 9, 44, 49
4, 35782, Note_on_c, 9, 44, 0
4, 37469, Note_on_c, 9, 44, 60
4, 37794, Note_on_c, 9, 44, 0
4, 39358, Note_on_c, 9, 44, 62
4, 39716, Note_on_c, 9, 44, 0
4, 41273, Note_on_c, 9, 44, 47
4, 41667, Note_on_c, 9, 44, 0
4, 43142, Note_on_c, 9, 44, 51
4, 43549, Note_on_c, 9, 44, 0
4, 45136, Note_on_c, 9, 44, 54
4, 45525, Note_on_c, 9, 44, 0
4, 47066, Note_on_c, 9, 44, 43
4, 47384, Note_on_c, 9, 44, 0
4, 48876, Note_on_c, 9, 46, 45
4, 49142, Note_on_c, 9, 46, 0
4, 50793, Note_on_c, 9, 44, 45
4, 51044, Note_on_c, 9, 44, 0
4, 52808, Note_on_c, 9, 44, 74
4, 53243, Note_on_c, 9, 44, 0
4, 54756, Note_on_c, 9, 44, 64
4, 55130, Note_on_c, 9, 44, 0
4, 56656, Note_on_c, 9, 44, 68
4, 57019, Note_on_c, 9, 44, 0
4, 58553, Note_on_c, 9, 44, 67
4, 58868, Note_on_c, 9, 44, 0
4, 60424, Note_on_c, 9, 46, 60
4, 61433, Note_on_c, 9, 46, 0
4, 62252, Note_on_c, 9, 44, 61
4, 62654, Note_on_c, 9, 44, 0
4, 64259, Note_on_c, 9, 44, 57
4, 64636, Note_on_c, 9, 44, 0
4, 66166, Note_on_c, 9, 44, 60
4, 66676, Note_on_c, 9, 44, 0
4, 68120, Note_on_c, 9, 44, 65
4, 68496, Note_on_c, 9, 44, 0
4, 70088, Note_on_c, 9, 44, 63
4, 70641, Note_on_c, 9, 44, 0
4, 72011, Note_on_c, 9, 44, 70
4, 72359, Note_on_c, 9, 44, 0
4, 73933, Note_on_c, 9, 44, 60
4, 74315, Note_on_c, 9, 44, 0
4, 75820, Note_on_c, 9, 44, 67
4, 76102, Note_on_c, 9, 44, 0
4, 77750, Note_on_c, 9, 44, 67
4, 78057, Note_on_c, 9, 44, 0
4, 79591, Note_on_c, 9, 46, 46
4, 79844, Note_on_c, 9, 46, 0
4, 81552, Note_on_c, 9, 44, 67
4, 81826, Note_on_c, 9, 44, 0
4, 83495, Note_on_c, 9, 44, 65
4, 83792, Note_on_c, 9, 44, 0
4, 85417, Note_on_c, 9, 44, 64
4, 85745, Note_on_c, 9, 44, 0
4, 87289, Note_on_c, 9, 46, 45
4, 87506, Note_on_c, 9, 46, 0
4, 89186, Note_on_c, 9, 44, 54
4, 89437, Note_on_c, 9, 44, 0
4, 91149, Note_on_c, 9, 44, 61
4, 91641, Note_on_c, 9, 44, 0
4, 93120, Note_on_c, 9, 44, 63
4, 93579, Note_on_c, 9, 44, 0
4, 94976, Note_on_c, 9, 44, 79
4, 95376, Note_on_c, 9, 44, 0
4, 96940, Note_on_c, 9, 44, 67
4, 97306, Note_on_c, 9, 44, 0
4, 98901, Note_on_c, 9, 44, 54
4, 99303, Note_on_c, 9, 44, 0
4, 100808, Note_on_c, 9, 44, 67
4, 101187, Note_on_c, 9, 44, 0
4, 102669, Note_on_c, 9, 44, 68
4, 103084, Note_on_c, 9, 44, 0
4, 104584, Note_on_c, 9, 44, 67
4, 104978, Note_on_c, 9, 44, 0
4, 106514, Note_on_c, 9, 44, 59
4, 106973, Note_on_c, 9, 44, 0
4, 108422, Note_on_c, 9, 44, 62
4, 108836, Note_on_c, 9, 44, 0
4, 110354, Note_on_c, 9, 44, 68
4, 110782, Note_on_c, 9, 44, 0
4, 112285, Note_on_c, 9, 44, 74
4, 112707, Note_on_c, 9, 44, 0
4, 114261, Note_on_c, 9, 44, 70
4, 114668, Note_on_c, 9, 44, 0
4, 116089, Note_on_c, 9, 44, 70
4, 116504, Note_on_c, 9, 44, 0
4, 118024, Note_on_c, 9, 44, 63
4, 118406, Note_on_c, 9, 44, 0
4, 119947, Note_on_c, 9, 44, 64
4, 120382, Note_on_c, 9, 44, 0
4, 121874, Note_on_c, 9, 44, 68
4, 122312, Note_on_c, 9, 44, 0
4, 123812, Note_on_c, 9, 44, 70
4, 124230, Note_on_c, 9, 44, 0
4, 125776, Note_on_c, 9, 44, 71
4, 126034, Note_on_c, 9, 44, 0
4, 127760, Note_on_c, 9, 44, 64
4, 128331, Note_on_c, 9, 44, 0
4, 129629, Note_on_c, 9, 44, 58
4, 130059, Note_on_c, 9, 44, 0
4, 131474, Note_on_c, 9, 44, 56
4, 131771, Note_on_c, 9, 44, 0
4, 133392, Note_on_c, 9, 46, 49
4, 134009, Note_on_c, 9, 46, 0
4, 135286, Note_on_c, 9, 44, 46
4, 135663, Note_on_c, 9, 44, 0
4, 137304, Note_on_c, 9, 44, 63
4, 137739, Note_on_c, 9, 44, 0
4, 139167, Note_on_c, 9, 44, 53
4, 139561, Note_on_c, 9, 44, 0
4, 141120, Note_on_c, 9, 44, 49
4, 141479, Note_on_c, 9, 44, 0
4, 142964, Note_on_c, 9, 44, 51
4, 143353, Note_on_c, 9, 44, 0
4, 144948, Note_on_c, 9, 44, 54
4, 145293, Note_on_c, 9, 44, 0
4, 146919, Note_on_c, 9, 44, 51
4, 147288, Note_on_c, 9, 44, 0
4, 148847, Note_on_c, 9, 44, 50
4, 149251, Note_on_c, 9, 44, 0
4, 150674, Note_on_c, 9, 44, 78
4, 151151, Note_on_c, 9, 44, 0
4, 152605, Note_on_c, 9, 46, 58
4, 153078, Note_on_c, 9, 46, 0
4, 154522, Note_on_c, 9, 44, 49
4, 154860, Note_on_c, 9, 44, 0
4, 156478, Note_on_c, 9, 44, 50
4, 156813, Note_on_c, 9, 44, 0
4, 158408, Note_on_c, 9, 44, 49
4, 158662, Note_on_c, 9, 44, 0
4, 160349, Note_on_c, 9, 44, 60
4, 160674, Note_on_c, 9, 44, 0
4, 162238, Note_on_c, 9, 44, 62
4, 162596, Note_on_c, 9, 44, 0
4, 164153, Note_on_c, 9, 44, 47
4, 164547, Note_on_c, 9, 44, 0
4, 166022, Note_on_c, 9, 44, 51
4, 166429, Note_on_c, 9, 44, 0
4, 168016, Note_on_c, 9, 44, 54
4, 168405, Note_on_c, 9, 44, 0
4, 169946, Note_on_c, 9, 44, 43
4, 170264, Note_on_c, 9, 44, 0
4, 171756, Note_on_c, 9, 46, 45
4, 172022, Note_on_c, 9, 46, 0
4, 173673, Note_on_c, 9, 44, 45
4, 173924, Note_on_c, 9, 44, 0
4, 175688, Note_on_c, 9, 44, 74
4, 176123, Note_on_c, 9, 44, 0
4, 177636, Note_on_c, 9, 44, 64
4, 178010, Note_on_c, 9, 44, 0
4, 179536, Note_on_c, 9, 44, 68
4, 179899, Note_on_c, 9, 44, 0
4, 181433, Note_on_c, 9, 44, 67
4, 181748, Note_on_c, 9, 44, 0
4, 183304, Note_on_c, 9, 46, 60
4, 184313, Note_on_c, 9, 46, 0
4, 185132, Note_on_c, 9, 44, 61
4, 185534, Note_on_c, 9, 44, 0
4, 187139, Note_on_c, 9, 44, 57
4, 187516, Note_on_c, 9, 44, 0
4, 189046, Note_on_c, 9, 44, 60
4, 189556, Note_on_c, 9, 44, 0
4, 191000, Note_on_c, 9, 44, 65
4, 191376, Note_on_c, 9, 44, 0
4, 192968, Note_on_c, 9, 44, 63
4, 193521, Note_on_c, 9, 44, 0
4, 194891, Note_on_c, 9, 44, 70
4, 195239, Note_on_c, 9, 44, 0
4, 196813, Note_on_c, 9, 44, 60
4, 197195, Note_on_c, 9, 44, 0
4, 198700, Note_on_c, 9, 44, 67
4, 198982, Note_on_c, 9, 44, 0
4, 200630, Note_on_c, 9, 44, 67
4, 200937, Note_on_c, 9, 44, 0
4, 202471, Note_on_c, 9, 46, 46
4, 202724, Note_on_c, 9, 46, 0
4, 204432, Note_on_c, 9, 44, 67
4, 204706, Note_on_c, 9, 44, 0
4, 206375, Note_on_c, 9, 44, 65
4, 206672, Note_on_c, 9, 44, 0
4, 208297, Note_on_c, 9, 44, 64
4, 208625, Note_on_c, 9, 44, 0
4, 210169, Note_on_c, 9, 46, 45
4, 210386, Note_on_c, 9, 46, 0
4, 212066, Note_on_c, 9, 44, 54
4, 212317, Note_on_c, 9, 44, 0
4, 214029, Note_on_c, 9, 44, 61
4, 214521, Note_on_c, 9, 44, 0
4, 216000, Note_on_c, 9, 44, 63
4, 216459, Note_on_c, 9, 44, 0
4, 217856, Note_on_c, 9, 44, 79
4, 218256, Note_on_c, 9, 44, 0
4, 219820, Note_on_c, 9, 44, 67
4, 220186, Note_on_c, 9, 44, 0
4, 221781, Note_on_c, 9, 44, 54
4, 222183, Note_on_c, 9, 44, 0
4, 223688, Note_on_c, 9, 44, 67
4, 224067, Note_on_c, 9, 44, 0
4, 225549, Note_on_c, 9, 44, 68
4, 225964, Note_on_c, 9, 44, 0
4, 227464, Note_on_c, 9, 44, 67
4, 227858, Note_on_c, 9, 44, 0
4, 229394, Note_on_c, 9, 44, 59
4, 229853, Note_on_c, 9, 44, 0
4, 231302, Note_on_c, 9, 44, 62
4, 231716, Note_on_c, 9, 44, 0
4, 233234, Note_on_c, 9, 44, 68
4, 233662, Note_on_c, 9, 44, 0
4, 235165, Note_on_c, 9, 44, 74
4, 235587, Note_on_c, 9, 44, 0
4, 237141, Note_on_c, 9, 44, 70
4, 237548, Note_on_c, 9, 44, 0
4, 238969, Note_on_c, 9, 44, 70
4, 239384, Note_on_c, 9, 44, 0
4, 240904, Note_on_c, 9, 44, 63
4, 241286, Note_on_c, 9, 44, 0
4, 242827, Note_on_c, 9, 44, 64
4, 243262, Note_on_c, 9, 44, 0
4, 244754, Note_on_c, 9, 44, 68
4, 245192, Note_on_c, 9, 44, 0
4, 246692, Note_on_c, 9, 44, 70
4, 247110, Note_on_c, 9, 44, 0
4, 248656, Note_on_c, 9, 44, 71
4, 248914, Note_on_c, 9, 44, 0
4, 250640, Note_on_c, 9, 44, 64
4, 251211, Note_on_c, 9, 44, 0
4, 252509, Note_on_c, 9, 44, 58
4, 252939, Note_on_c, 9, 44, 0
4, 254354, Note_on_c, 9, 44, 56
4, 254651, Note_on_c, 9, 44, 0
4, 256272, Note_on_c, 9, 46, 49
4, 256889, Note_on_c, 9, 46, 0
4, 258166, Note_on_c, 9, 44, 46
4, 258543, Note_on_c, 9, 44, 0
4, 260184, Note_on_c, 9, 44, 63
4, 260619, Note_on_c, 9, 44, 0
4, 262047, Note_on_c, 9, 44, 53
4, 262441, Note_on_c, 9, 44, 0
4, 264000, Note_on_c, 9, 44, 49
4, 264359, Note_on_c, 9, 44, 0
4, 265844, Note_on_c, 9, 44, 51
4, 266233, Note_on_c, 9, 44, 0
4, 267828, Note_on_c, 9, 44, 54
4, 268173, Note_on_c, 9, 44, 0
4, 269799, Note_on_c, 9, 44, 51
4, 270168, Note_on_c, 9, 44, 0
4, 271727, Note_on_c, 9, 44, 50
4, 272131, Note_on_c, 9, 44, 0
4, 273554, Note_on_c, 9, 44, 78
4, 274031, Note_on_c, 9, 44, 0
4, 275485, Note_on_c, 9, 46, 58
4, 275958, Note_on_c, 9, 46, 0
4, 277402, Note_on_c, 9, 44, 49
4, 277740, Note_on_c, 9, 44, 0
4, 279358, Note_on_c, 9, 44, 50
4, 279693, Note_on_c, 9, 44, 0
4, 281288, Note_on_c, 9, 44, 49
4, 281542, Note_on_c, 9, 44, 0
4, 283229, Note_on_c, 9, 44, 60
4, 283554, Note_on_c, 9, 44, 0
4, 285118, Note_on_c, 9, 44, 62
4, 285476, Note_on_c, 9, 44, 0
4, 287033, Note_on_c, 9, 44, 47
4, 287427, Note_on_c, 9, 44, 0
4, 288902, Note_on_c, 9, 44, 51
4, 289309, Note_on_c, 9, 44, 0
4, 290896, Note_on_c, 9, 44, 54
4, 291285, Note_on_c, 9, 44, 0
4, 292826, Note_on_c, 9, 44, 43
4, 293144, Note_on_c, 9, 44, 0
4, 294636, Note_on_c, 9, 46, 45
4, 294902, Note_on_c, 9, 46, 0
4, 296553, Note_on_c, 9, 44, 45
4, 296804, Note_on_c, 9, 44, 0
4, 298568, Note_on_c, 9, 44, 74
4, 299003, Note_on_c, 9, 44, 0
4, 300516, Note_on_c, 9, 44, 64
4, 300890, Note_on_c, 9, 44, 0
4, 302416, Note_on_c, 9, 44, 68
4, 302779, Note_on_c, 9, 44, 0
4, 304313, Note_on_c, 9, 44, 67
4, 304628, Note_on_c, 9, 44, 0
4, 306184, Note_on_c, 9, 46, 60
4, 307193, Note_on_c, 9, 46, 0
4, 308012, Note_on_c, 9, 44, 61
4, 308414, Note_on_c, 9, 44, 0
4, 310019, Note_on_c, 9, 44, 57
4, 310396, Note_on_c, 9, 44, 0
4, 311926, Note_on_c, 9, 44, 60
4, 312436, Note_on_c, 9, 44, 0
4, 313880, Note_on_c, 9, 44, 65
4, 314256, Note_on_c, 9, 44, 0
4, 315848, Note_on_c, 9, 44, 63
4, 316401, Note_on_c, 9, 44, 0
4, 317771, Note_on_c, 9, 44, 70
4, 318119, Note_on_c, 9, 44, 0
4, 319693, Note_on_c, 9, 44, 60
4, 320075, Note_on_c, 9, 44, 0
4, 321580, Note_on_c, 9, 44, 67
4, 321862, Note_on_c, 9, 44, 0
4, 323510, Note_on_c, 9, 44, 67
4, 323817, Note_on_c, 9, 44, 0
4, 325351, Note_on_c, 9, 46, 46
4, 325604, Note_on_c, 9, 46, 0
4, 327312, Note_on_c, 9, 44, 67
4, 327586, Note_on_c, 9, 44, 0
4, 329255, Note_on_c, 9, 44, 65
4, 329552, Note_on_c, 9, 44, 0
4, 331177, Note_on_c, 9, 44, 64
4, 331505, Note_on_c, 9, 44, 0
4, 333049, Note_on_c, 9, 46, 45
4, 333266, Note_on_c, 9, 46, 0
4, 334946, Note_on_c, 9, 44, 54
4, 335197, Note_on_c, 9, 44, 0
4, 336909, Note_on_c, 9, 44, 61
4, 337401, Note_on_c, 9, 44, 0
4, 338880, Note_on_c, 9, 44, 63
4, 339339, Note_on_c, 9, 44, 0
4, 340736, Note_on_c, 9, 44, 79
4, 341136, Note_on_c, 9, 44, 0
4, 342700, Note_on_c, 9, 44, 67
4, 343066, Note_on_c, 9, 44, 0
4, 344661, Note_on_c, 9, 44, 54
4, 345063, Note_on_c, 9, 44, 0
4, 346568, Note_on_c, 9, 44, 67
4, 346947, Note_on_c, 9, 44, 0
4, 348429, Note_on_c, 9, 44, 68
4, 348844, Note_on_c, 9, 44, 0
4, 350344, Note_on_c, 9, 44, 67
4, 350738, Note_on_c, 9, 44, 0
4, 352274, Note_on_c, 9, 44, 59
4, 352733, Note_on_c, 9, 44, 0
4, 354182, Note_on_c, 9, 44, 62
4, 354596, Note_on_c, 9, 44, 0
4, 356114, Note_on_c, 9, 44, 68
4, 356542, Note_on_c, 9, 44, 0
4, 358045, Note_on_c, 9, 44, 74
4, 358467, Note_on_c, 9, 44, 0
4, 360021, Note_on_c, 9, 44, 70
4, 360428, Note_on_c, 9, 44, 0
4, 361849, Note_on_c, 9, 44, 70
4, 362264, Note_on_c, 9, 44, 0
4, 363784, Note_on_c, 9, 44, 63
4, 364166, Note_on_c, 9, 44, 0
4, 365707, Note_on_c, 9, 44, 64
4, 366142, Note_on_c, 9, 44, 0
4, 367634, Note_on_c, 9, 44, 68
4, 368072, Note_on_c, 9, 44, 0
4, 369572, Note_on_c, 9, 44, 70
4, 369990, Note_on_c, 9, 44, 0
4, 371536, Note_on_c, 9, 44, 71
4, 371794, Note_on_c, 9, 44, 0
4, 371794, End_track
5, 0, Start_track
5, 0, Title_t, "Ride Cymbals"
5, 3835, Note_on_c, 9, 59, 64
5, 4430, Note_on_c, 9, 59, 0
5, 4760, Note_on_c, 9, 59, 48
5, 4884, Note_on_c, 9, 59, 0
5, 5483, Note_on_c, 9, 59, 55
5, 5736, Note_on_c, 9, 59, 0
5, 5817, Note_on_c, 9, 59, 36
5, 6096, Note_on_c, 9, 59, 0
5, 6741, Note_on_c, 9, 59, 67
5, 7176, Note_on_c, 9, 59, 0
5, 7427, Note_on_c, 9, 59, 40
5, 7577, Note_on_c, 9, 59, 0
5, 7781, Note_on_c, 9, 59, 66
5, 8299, Note_on_c, 9, 59, 0
5, 8688, Note_on_c, 9, 59, 72
5, 9238, Note_on_c, 9, 59, 0
5, 9619, Note_on_c, 9, 59, 48
5, 10099, Note_on_c, 9, 59, 0
5, 10560, Note_on_c, 9, 59, 74
5, 11056, Note_on_c, 9, 59, 0
5, 11531, Note_on_c, 9, 59, 55
5, 12003, Note_on_c, 9, 59, 0
5, 12438, Note_on_c, 9, 59, 68
5, 12835, Note_on_c, 9, 59, 0
5, 13086, Note_on_c, 9, 59, 40
5, 13285, Note_on_c, 9, 59, 0
5, 13466, Note_on_c, 9, 59, 57
5, 13809, Note_on_c, 9, 59, 0
5, 14342, Note_on_c, 9, 59, 80
5, 14828, Note_on_c, 9, 59, 0
5, 15347, Note_on_c, 9, 59, 36
5, 15586, Note_on_c, 9, 59, 0
5, 16211, Note_on_c, 9, 59, 62
5, 16482, Note_on_c, 9, 59, 0
5, 17265, Note_on_c, 9, 59, 62
5, 17743, Note_on_c, 9, 59, 0
5, 17870, Note_on_c, 9, 53, 72
5, 18080, Note_on_c, 9, 53, 0
5, 18236, Note_on_c, 9, 59, 54
5, 18575, Note_on_c, 9, 59, 0
5, 19180, Note_on_c, 9, 59, 54
5, 19710, Note_on_c, 9, 59, 0
5, 20113, Note_on_c, 9, 59, 63
5, 20560, Note_on_c, 9, 59, 0
5, 21090, Note_on_c, 9, 59, 48
5, 21418, Note_on_c, 9, 59, 0
5, 22138, Note_on_c, 9, 59, 68
5, 22463, Note_on_c, 9, 59, 0
5, 22703, Note_on_c, 9, 59, 48
5, 22881, Note_on_c, 9, 59, 0
5, 23097, Note_on_c, 9, 59, 49
5, 23587, Note_on_c, 9, 59, 0
5, 23973, Note_on_c, 9, 59, 66
5, 24361, Note_on_c, 9, 59, 0
5, 24649, Note_on_c, 9, 59, 50
5, 24802, Note_on_c, 9, 59, 0
5, 25044, Note_on_c, 9, 59, 48
5, 25404, Note_on_c, 9, 59, 0
5, 25931, Note_on_c, 9, 59, 77
5, 26458, Note_on_c, 9, 59, 0
5, 26925, Note_on_c, 9, 59, 39
5, 27322, Note_on_c, 9, 59, 0
5, 27645, Note_on_c, 9, 59, 43
5, 27783, Note_on_c, 9, 59, 0
5, 27967, Note_on_c, 9, 59, 74
5, 28621, Note_on_c, 9, 59, 0
5, 28920, Note_on_c, 9, 59, 54
5, 29525, Note_on_c, 9, 59, 0
5, 29770, Note_on_c, 9, 59, 61
5, 30398, Note_on_c, 9, 59, 0
5, 30726, Note_on_c, 9, 59, 58
5, 31279, Note_on_c, 9, 59, 0
5, 31296, Note_on_c, 9, 53, 77
5, 31665, Note_on_c, 9, 53, 0
5, 31780, Note_on_c, 9, 59, 34
5, 32304, Note_on_c, 9, 59, 0
5, 32644, Note_on_c, 9, 59, 52
5, 33324, Note_on_c, 9, 59, 0
5, 33646, Note_on_c, 9, 59, 60
5, 34280, Note_on_c, 9, 59, 0
5, 34631, Note_on_c, 9, 59, 51
5, 35115, Note_on_c, 9, 59, 0
5, 35501, Note_on_c, 9, 59, 62
5, 35959, Note_on_c, 9, 59, 0
5, 36495, Note_on_c, 9, 59, 58
5, 36898, Note_on_c, 9, 59, 0
5, 37088, Note_on_c, 9, 59, 38
5, 37229, Note_on_c, 9, 59, 0
5, 37448, Note_on_c, 9, 59, 50
5, 37819, Note_on_c, 9, 59, 0
5, 38047, Note_on_c, 9, 59, 68
5, 38830, Note_on_c, 9, 59, 0
5, 39055, Note_on_c, 9, 59, 34
5, 39211, Note_on_c, 9, 59, 0
5, 39360, Note_on_c, 9, 59, 50
5, 40031, Note_on_c, 9, 59, 0
5, 40291, Note_on_c, 9, 59, 53
5, 40941, Note_on_c, 9, 59, 0
5, 41258, Note_on_c, 9, 59, 55
5, 41742, Note_on_c, 9, 59, 0
5, 41941, Note_on_c, 9, 59, 42
5, 42099, Note_on_c, 9, 59, 0
5, 42263, Note_on_c, 9, 59, 61
5, 42986, Note_on_c, 9, 59, 0
5, 43205, Note_on_c, 9, 59, 60
5, 43747, Note_on_c, 9, 59, 0
5, 43960, Note_on_c, 9, 59, 41
5, 44104, Note_on_c, 9, 59, 0
5, 44262, Note_on_c, 9, 59, 67
5, 44976, Note_on_c, 9, 59, 0
5, 45201, Note_on_c, 9, 59, 64
5, 45783, Note_on_c, 9, 59, 0
5, 46108, Note_on_c, 9, 59, 61
5, 46661, Note_on_c, 9, 59, 0
5, 46828, Note_on_c, 9, 59, 33
5, 46981, Note_on_c, 9, 59, 0
5, 47108, Note_on_c, 9, 59, 60
5, 47897, Note_on_c, 9, 59, 0
5, 48101, Note_on_c, 9, 59, 67
5, 48694, Note_on_c, 9, 59, 0
5, 48974, Note_on_c, 9, 59, 60
5, 49579, Note_on_c, 9, 59, 0
5, 49728, Note_on_c, 9, 59, 36
5, 49867, Note_on_c, 9, 59, 0
5, 50045, Note_on_c, 9, 59, 67
5, 50659, Note_on_c, 9, 59, 0
5, 50699, Note_on_c, 9, 53, 55
5, 50949, Note_on_c, 9, 53, 0
5, 51321, Note_on_c, 9, 59, 44
5, 51451, Note_on_c, 9, 59, 0
5, 51816, Note_on_c, 9, 59, 74
5, 52568, Note_on_c, 9, 59, 0
5, 52819, Note_on_c, 9, 59, 47
5, 53084, Note_on_c, 9, 59, 0
5, 53389, Note_on_c, 9, 59, 72
5, 53919, Note_on_c, 9, 59, 0
5, 54377, Note_on_c, 9, 59, 38
5, 54518, Note_on_c, 9, 59, 0
5, 54717, Note_on_c, 9, 59, 63
5, 55457, Note_on_c, 9, 59, 0
5, 55710, Note_on_c, 9, 59, 57
5, 56381, Note_on_c, 9, 59, 0
5, 56635, Note_on_c, 9, 59, 62
5, 57162, Note_on_c, 9, 59, 0
5, 57306, Note_on_c, 9, 59, 40
5, 57452, Note_on_c, 9, 59, 0
5, 57648, Note_on_c, 9, 59, 67
5, 58262, Note_on_c, 9, 59, 0
5, 58535, Note_on_c, 9, 59, 70
5, 59080, Note_on_c, 9, 59, 0
5, 60111, Note_on_c, 9, 59, 36
5, 60266, Note_on_c, 9, 59, 0
5, 60462, Note_on_c, 9, 59, 74
5, 60955, Note_on_c, 9, 59, 0
5, 61136, Note_on_c, 9, 59, 80
5, 61715, Note_on_c, 9, 59, 0
5, 62095, Note_on_c, 9, 59, 48
5, 62233, Note_on_c, 9, 59, 0
5, 62447, Note_on_c, 9, 59, 67
5, 63184, Note_on_c, 9, 59, 0
5, 63403, Note_on_c, 9, 59, 49
5, 63829, Note_on_c, 9, 59, 0
5, 64350, Note_on_c, 9, 59, 94
5, 65917, Note_on_c, 9, 59, 0
5, 66072, Note_on_c, 9, 59, 36
5, 66380, Note_on_c, 9, 59, 0
5, 66919, Note_on_c, 9, 59, 54
5, 67072, Note_on_c, 9, 59, 0
5, 67299, Note_on_c, 9, 59, 48
5, 67967, Note_on_c, 9, 59, 0
5, 68178, Note_on_c, 9, 59, 64
5, 68641, Note_on_c, 9, 59, 0
5, 68880, Note_on_c, 9, 59, 41
5, 69019, Note_on_c, 9, 59, 0
5, 69203, Note_on_c, 9, 59, 70
5, 70470, Note_on_c, 9, 59, 0
5, 70686, Note_on_c, 9, 59, 50
5, 70830, Note_on_c, 9, 59, 0
5, 71029, Note_on_c, 9, 59, 53
5, 71778, Note_on_c, 9, 59, 0
5, 72031, Note_on_c, 9, 59, 61
5, 72575, Note_on_c, 9, 59, 0
5, 72932, Note_on_c, 9, 59, 54
5, 73474, Note_on_c, 9, 59, 0
5, 73719, Note_on_c, 9, 59, 50
5, 74300, Note_on_c, 9, 59, 0
5, 74516, Note_on_c, 9, 59, 54
5, 74692, Note_on_c, 9, 59, 0
5, 74897, Note_on_c, 9, 59, 59
5, 75631, Note_on_c, 9, 59, 0
5, 75859, Note_on_c, 9, 59, 55
5, 76268, Note_on_c, 9, 59, 0
5, 76449, Note_on_c, 9, 59, 45
5, 76622, Note_on_c, 9, 59, 0
5, 76867, Note_on_c, 9, 59, 51
5, 77535, Note_on_c, 9, 59, 0
5, 77828, Note_on_c, 9, 59, 64
5, 78376, Note_on_c, 9, 59, 0
5, 78871, Note_on_c, 9, 59, 38
5, 79456, Note_on_c, 9, 59, 0
5, 79755, Note_on_c, 9, 59, 65
5, 80320, Note_on_c, 9, 59, 0
5, 80501, Note_on_c, 9, 59, 35
5, 80654, Note_on_c, 9, 59, 0
5, 80763, Note_on_c, 9, 59, 35
5, 81097, Note_on_c, 9, 59, 0
5, 81647, Note_on_c, 9, 59, 73
5, 82350, Note_on_c, 9, 59, 0
5, 82650, Note_on_c, 9, 59, 49
5, 83131, Note_on_c, 9, 59, 0
5, 83378, Note_on_c, 9, 59, 42
5, 83525, Note_on_c, 9, 59, 0
5, 83681, Note_on_c, 9, 59, 67
5, 84415, Note_on_c, 9, 59, 0
5, 84634, Note_on_c, 9, 59, 57
5, 85230, Note_on_c, 9, 59, 0
5, 85524, Note_on_c, 9, 59, 63
5, 86137, Note_on_c, 9, 59, 0
5, 86584, Note_on_c, 9, 59, 46
5, 87001, Note_on_c, 9, 59, 0
5, 87439, Note_on_c, 9, 59, 75
5, 88142, Note_on_c, 9, 59, 0
5, 88453, Note_on_c, 9, 59, 35
5, 88617, Note_on_c, 9, 59, 0
5, 89377, Note_on_c, 9, 59, 70
5, 89786, Note_on_c, 9, 59, 0
5, 89997, Note_on_c, 9, 59, 45
5, 90138, Note_on_c, 9, 59, 0
5, 90354, Note_on_c, 9, 59, 58
5, 91005, Note_on_c, 9, 59, 0
5, 91261, Note_on_c, 9, 59, 64
5, 91866, Note_on_c, 9, 59, 0
5, 92280, Note_on_c, 9, 59, 40
5, 92701, Note_on_c, 9, 59, 0
5, 93139, Note_on_c, 9, 59, 68
5, 93545, Note_on_c, 9, 59, 0
5, 93772, Note_on_c, 9, 59, 34
5, 93913, Note_on_c, 9, 59, 0
5, 94121, Note_on_c, 9, 59, 49
5, 94665, Note_on_c, 9, 59, 0
5, 95031, Note_on_c, 9, 59, 66
5, 95518, Note_on_c, 9, 59, 0
5, 95932, Note_on_c, 9, 59, 58
5, 96546, Note_on_c, 9, 59, 0
5, 96894, Note_on_c, 9, 59, 62
5, 97401, Note_on_c, 9, 59, 0
5, 97559, Note_on_c, 9, 59, 37
5, 97692, Note_on_c, 9, 59, 0
5, 97882, Note_on_c, 9, 59, 64
5, 98467, Note_on_c, 9, 59, 0
5, 98783, Note_on_c, 9, 59, 66
5, 99244, Note_on_c, 9, 59, 0
5, 99783, Note_on_c, 9, 59, 50
5, 100416, Note_on_c, 9, 59, 0
5, 100696, Note_on_c, 9, 59, 64
5, 101246, Note_on_c, 9, 59, 0
5, 101709, Note_on_c, 9, 59, 47
5, 102093, Note_on_c, 9, 59, 0
5, 102669, Note_on_c, 9, 59, 85
5, 103276, Note_on_c, 9, 59, 0
5, 103630, Note_on_c, 9, 59, 36
5, 104037, Note_on_c, 9, 59, 0
5, 104561, Note_on_c, 9, 59, 68
5, 105010, Note_on_c, 9, 59, 0
5, 105168, Note_on_c, 9, 59, 33
5, 105330, Note_on_c, 9, 59, 0
5, 105560, Note_on_c, 9, 59, 62
5, 106006, Note_on_c, 9, 59, 0
5, 106508, Note_on_c, 9, 59, 70
5, 107023, Note_on_c, 9, 59, 0
5, 107490, Note_on_c, 9, 59, 64
5, 108054, Note_on_c, 9, 59, 0
5, 108498, Note_on_c, 9, 59, 65
5, 108927, Note_on_c, 9, 59, 0
5, 109480, Note_on_c, 9, 59, 64
5, 110082, Note_on_c, 9, 59, 0
5, 110303, Note_on_c, 9, 59, 56
5, 110568, Note_on_c, 9, 59, 0
5, 111049, Note_on_c, 9, 59, 54
5, 111182, Note_on_c, 9, 59, 0
5, 111349, Note_on_c, 9, 59, 68
5, 111602, Note_on_c, 9, 59, 0
5, 112299, Note_on_c, 9, 59, 71
5, 112821, Note_on_c, 9, 59, 0
5, 113284, Note_on_c, 9, 59, 70
5, 113719, Note_on_c, 9, 59, 0
5, 114263, Note_on_c, 9, 59, 85
5, 114687, Note_on_c, 9, 59, 0
5, 114894, Note_on_c, 9, 59, 52
5, 115050, Note_on_c, 9, 59, 0
5, 115266, Note_on_c, 9, 59, 73
5, 115758, Note_on_c, 9, 59, 0
5, 116153, Note_on_c, 9, 59, 73
5, 116570, Note_on_c, 9, 59, 0
5, 117089, Note_on_c, 9, 59, 49
5, 117483, Note_on_c, 9, 59, 0
5, 117999, Note_on_c, 9, 59, 89
5, 118713, Note_on_c, 9, 59, 0
5, 118958, Note_on_c, 9, 59, 48
5, 119128, Note_on_c, 9, 59, 0
5, 119649, Note_on_c, 9, 59, 58
5, 119776, Note_on_c, 9, 59, 0
5, 119963, Note_on_c, 9, 59, 70
5, 120640, Note_on_c, 9, 59, 0
5, 120959, Note_on_c, 9, 59, 73
5, 121403, Note_on_c, 9, 59, 0
5, 121869, Note_on_c, 9, 59, 76
5, 122290, Note_on_c, 9, 59, 0
5, 122463, Note_on_c, 9, 59, 62
5, 122728, Note_on_c, 9, 59, 0
5, 123410, Note_on_c, 9, 59, 71
5, 123664, Note_on_c, 9, 59, 0
5, 123805, Note_on_c, 9, 59, 62
5, 124194, Note_on_c, 9, 59, 0
5, 124781, Note_on_c, 9, 59, 80
5, 125239, Note_on_c, 9, 59, 0
5, 125409, Note_on_c, 9, 59, 70
5, 125642, Note_on_c, 9, 59, 0
5, 126316, Note_on_c, 9, 59, 83
5, 126647, Note_on_c, 9, 59, 0
5, 127313, Note_on_c, 9, 59, 68
5, 127526, Note_on_c, 9, 59, 0
5, 127722, Note_on_c, 9, 59, 71
5, 128162, Note_on_c, 9, 59, 0
5, 128675, Note_on_c, 9, 59, 84
5, 129173, Note_on_c, 9, 59, 0
5, 129634, Note_on_c, 9, 59, 68
5, 130023, Note_on_c, 9, 59, 0
5, 130256, Note_on_c, 9, 59, 55
5, 130440, Note_on_c, 9, 59, 0
5, 130642, Note_on_c, 9, 59, 64
5, 131183, Note_on_c, 9, 59, 0
5, 131592, Note_on_c, 9, 59, 69
5, 132013, Note_on_c, 9, 59, 0
5, 132526, Note_on_c, 9, 59, 67
5, 132842, Note_on_c, 9, 59, 0
5, 133456, Note_on_c, 9, 59, 72
5, 133824, Note_on_c, 9, 59, 0
5, 134078, Note_on_c, 9, 59, 44
5, 134251, Note_on_c, 9, 59, 0
5, 134386, Note_on_c, 9, 59, 40
5, 134786, Note_on_c, 9, 59, 0
5, 135279, Note_on_c, 9, 59, 70
5, 135673, Note_on_c, 9, 59, 0
5, 135912, Note_on_c, 9, 59, 40
5, 136074, Note_on_c, 9, 59, 0
5, 136267, Note_on_c, 9, 59, 48
5, 136800, Note_on_c, 9, 59, 0
5, 137229, Note_on_c, 9, 59, 70
5, 137666, Note_on_c, 9, 59, 0
5, 138199, Note_on_c, 9, 59, 57
5, 138562, Note_on_c, 9, 59, 0
5, 139144, Note_on_c, 9, 59, 73
5, 139570, Note_on_c, 9, 59, 0
5, 139844, Note_on_c, 9, 59, 35
5, 140025, Note_on_c, 9, 59, 0
5, 140140, Note_on_c, 9, 59, 32
5, 140742, Note_on_c, 9, 59, 0
5, 141131, Note_on_c, 9, 59, 60
5, 141186, Note_on_c, 9, 60, 38
5, 141295, Note_on_c, 9, 60, 0
5, 141609, Note_on_c, 9, 59, 0
5, 142133, Note_on_c, 9, 59, 55
5, 142588, Note_on_c, 9, 59, 0
5, 143012, Note_on_c, 9, 59, 65
5, 143536, Note_on_c, 9, 59, 0
5, 144028, Note_on_c, 9, 59, 45
5, 144394, Note_on_c, 9, 59, 0
5, 145016, Note_on_c, 9, 59, 88
5, 145399, Note_on_c, 9, 59, 0
5, 145670, Note_on_c, 9, 59, 49
5, 145849, Note_on_c, 9, 59, 0
5, 146001, Note_on_c, 9, 59, 46
5, 146399, Note_on_c, 9, 59, 0
5, 146920, Note_on_c, 9, 59, 75
5, 147539, Note_on_c, 9, 59, 0
5, 147850, Note_on_c, 9, 59, 40
5, 147991, Note_on_c, 9, 59, 0
5, 148452, Note_on_c, 9, 59, 60
5, 148625, Note_on_c, 9, 59, 0
5, 148792, Note_on_c, 9, 59, 74
5, 149443, Note_on_c, 9, 59, 0
5, 149685, Note_on_c, 9, 59, 51
5, 149860, Note_on_c, 9, 59, 0
5, 150304, Note_on_c, 9, 59, 82
5, 150681, Note_on_c, 9, 59, 0
5, 151211, Note_on_c, 9, 59, 70
5, 151427, Note_on_c, 9, 59, 0
5, 151591, Note_on_c, 9, 59, 68
5, 152230, Note_on_c, 9, 59, 0
5, 152593, Note_on_c, 9, 59, 54
5, 152717, Note_on_c, 9, 59, 0
5, 153143, Note_on_c, 9, 59, 83
5, 153682, Note_on_c, 9, 59, 0
5, 154149, Note_on_c, 9, 59, 43
5, 154318, Note_on_c, 9, 59, 0
5, 154506, Note_on_c, 9, 59, 82
5, 155289, Note_on_c, 9, 59, 0
5, 155514, Note_on_c, 9, 59, 42
5, 155661, Note_on_c, 9, 59, 0
5, 156090, Note_on_c, 9, 59, 77
5, 156781, Note_on_c, 9, 59, 0
5, 157380, Note_on_c, 9, 59, 80
5, 158025, Note_on_c, 9, 59, 0
5, 158385, Note_on_c, 9, 59, 58
5, 158676, Note_on_c, 9, 59, 0
5, 159096, Note_on_c, 9, 59, 43
5, 159240, Note_on_c, 9, 59, 0
5, 159405, Note_on_c, 9, 59, 68
5, 159972, Note_on_c, 9, 59, 0
5, 160361, Note_on_c, 9, 59, 70
5, 160755, Note_on_c, 9, 59, 0
5, 161012, Note_on_c, 9, 59, 36
5, 161167, Note_on_c, 9, 59, 0
5, 161326, Note_on_c, 9, 59, 55
5, 161714, Note_on_c, 9, 59, 0
5, 162282, Note_on_c, 9, 59, 75
5, 162688, Note_on_c, 9, 59, 0
5, 162938, Note_on_c, 9, 59, 44
5, 163097, Note_on_c, 9, 59, 0
5, 163321, Note_on_c, 9, 59, 57
5, 163517, Note_on_c, 9, 59, 0
5, 163886, Note_on_c, 9, 59, 75
5, 163926, Note_on_c, 9, 53, 57
5, 164422, Note_on_c, 9, 53, 0
5, 164424, Note_on_c, 9, 59, 0
5, 164753, Note_on_c, 9, 59, 48
5, 164949, Note_on_c, 9, 59, 0
5, 165228, Note_on_c, 9, 59, 71
5, 165242, Note_on_c, 9, 53, 64
5, 165792, Note_on_c, 9, 53, 0
5, 165801, Note_on_c, 9, 59, 0
5, 166150, Note_on_c, 9, 59, 53
5, 166273, Note_on_c, 9, 59, 0
5, 166760, Note_on_c, 9, 59, 74
5, 166766, Note_on_c, 9, 53, 66
5, 167207, Note_on_c, 9, 53, 0
5, 167241, Note_on_c, 9, 59, 0
5, 167679, Note_on_c, 9, 59, 40
5, 167820, Note_on_c, 9, 59, 0
5, 168079, Note_on_c, 9, 53, 66
5, 168125, Note_on_c, 9, 59, 71
5, 168566, Note_on_c, 9, 53, 0
5, 168701, Note_on_c, 9, 59, 0
5, 168998, Note_on_c, 9, 59, 43
5, 169283, Note_on_c, 9, 59, 0
5, 169608, Note_on_c, 9, 59, 72
5, 170112, Note_on_c, 9, 59, 0
5, 170539, Note_on_c, 9, 59, 49
5, 170694, Note_on_c, 9, 59, 0
5, 170919, Note_on_c, 9, 59, 71
5, 171538, Note_on_c, 9, 59, 0
5, 171884, Note_on_c, 9, 59, 63
5, 172293, Note_on_c, 9, 59, 0
5, 172543, Note_on_c, 9, 59, 43
5, 172696, Note_on_c, 9, 59, 0
5, 172860, Note_on_c, 9, 59, 72
5, 173448, Note_on_c, 9, 59, 0
5, 173796, Note_on_c, 9, 59, 71
5, 174297, Note_on_c, 9, 59, 0
5, 174689, Note_on_c, 9, 59, 70
5, 175089, Note_on_c, 9, 59, 0
5, 175633, Note_on_c, 9, 59, 85
5, 176152, Note_on_c, 9, 59, 0
5, 176382, Note_on_c, 9, 59, 47
5, 176521, Note_on_c, 9, 59, 0
5, 176714, Note_on_c, 9, 59, 64
5, 177209, Note_on_c, 9, 59, 0
5, 177658, Note_on_c, 9, 59, 77
5, 178177, Note_on_c, 9, 59, 0
5, 178617, Note_on_c, 9, 59, 66
5, 178989, Note_on_c, 9, 59, 0
5, 179550, Note_on_c, 9, 59, 74
5, 179979, Note_on_c, 9, 59, 0
5, 180241, Note_on_c, 9, 59, 34
5, 180910, Note_on_c, 9, 59, 0
5, 181440, Note_on_c, 9, 59, 82
5, 181857, Note_on_c, 9, 59, 0
5, 182442, Note_on_c, 9, 59, 62
5, 182672, Note_on_c, 9, 59, 0
5, 183093, Note_on_c, 9, 59, 78
5, 183651, Note_on_c, 9, 59, 0
5, 184052, Note_on_c, 9, 59, 84
5, 184757, Note_on_c, 9, 59, 0
5, 184982, Note_on_c, 9, 59, 51
5, 185103, Note_on_c, 9, 59, 0
5, 185310, Note_on_c, 9, 59, 71
5, 185915, Note_on_c, 9, 59, 0
5, 186903, Note_on_c, 9, 59, 79
5, 187153, Note_on_c, 9, 59, 0
5, 187341, Note_on_c, 9, 59, 66
5, 187490, Note_on_c, 9, 59, 0
5, 187871, Note_on_c, 9, 53, 68
5, 187873, Note_on_c, 9, 59, 80
5, 188582, Note_on_c, 9, 53, 0
5, 188585, Note_on_c, 9, 59, 0
5, 188795, Note_on_c, 9, 59, 55
5, 188933, Note_on_c, 9, 59, 0
5, 189178, Note_on_c, 9, 53, 64
5, 189201, Note_on_c, 9, 59, 75
5, 189889, Note_on_c, 9, 59, 0
5, 189910, Note_on_c, 9, 53, 0
5, 190218, Note_on_c, 9, 59, 39
5, 190468, Note_on_c, 9, 59, 0
5, 190802, Note_on_c, 9, 59, 78
5, 191211, Note_on_c, 9, 59, 0
5, 191730, Note_on_c, 9, 59, 40
5, 191891, Note_on_c, 9, 59, 0
5, 192093, Note_on_c, 9, 59, 78
5, 192686, Note_on_c, 9, 59, 0
5, 192977, Note_on_c, 9, 59, 44
5, 193112, Note_on_c, 9, 59, 0
5, 193559, Note_on_c, 9, 59, 74
5, 193965, Note_on_c, 9, 59, 0
5, 194471, Note_on_c, 9, 59, 54
5, 194607, Note_on_c, 9, 59, 0
5, 194806, Note_on_c, 9, 59, 72
5, 195333, Note_on_c, 9, 59, 0
5, 195828, Note_on_c, 9, 59, 66
5, 196292, Note_on_c, 9, 59, 0
5, 196770, Note_on_c, 9, 59, 75
5, 197239, Note_on_c, 9, 59, 0
5, 197467, Note_on_c, 9, 59, 50
5, 197616, Note_on_c, 9, 59, 0
5, 197821, Note_on_c, 9, 59, 66
5, 198201, Note_on_c, 9, 59, 0
5, 198734, Note_on_c, 9, 59, 69
5, 199206, Note_on_c, 9, 59, 0
5, 199382, Note_on_c, 9, 59, 38
5, 199520, Note_on_c, 9, 59, 0
5, 199727, Note_on_c, 9, 59, 68
5, 200102, Note_on_c, 9, 59, 0
5, 200681, Note_on_c, 9, 59, 83
5, 201214, Note_on_c, 9, 59, 0
5, 201637, Note_on_c, 9, 59, 59
5, 202075, Note_on_c, 9, 59, 0
5, 202319, Note_on_c, 9, 59, 59
5, 202478, Note_on_c, 9, 59, 0
5, 202599, Note_on_c, 9, 59, 50
5, 203083, Note_on_c, 9, 59, 0
5, 203564, Note_on_c, 9, 59, 71
5, 204076, Note_on_c, 9, 59, 0
5, 204526, Note_on_c, 9, 59, 75
5, 204998, Note_on_c, 9, 59, 0
5, 205217, Note_on_c, 9, 59, 47
5, 205367, Note_on_c, 9, 59, 0
5, 205511, Note_on_c, 9, 59, 51
5, 205994, Note_on_c, 9, 59, 0
5, 206481, Note_on_c, 9, 59, 73
5, 207005, Note_on_c, 9, 59, 0
5, 207489, Note_on_c, 9, 59, 51
5, 207763, Note_on_c, 9, 59, 0
5, 208443, Note_on_c, 9, 59, 81
5, 208854, Note_on_c, 9, 59, 0
5, 209059, Note_on_c, 9, 59, 50
5, 209194, Note_on_c, 9, 59, 0
5, 209338, Note_on_c, 9, 59, 43
5, 209747, Note_on_c, 9, 59, 0
5, 210320, Note_on_c, 9, 59, 78
5, 210934, Note_on_c, 9, 59, 0
5, 211233, Note_on_c, 9, 59, 58
5, 211507, Note_on_c, 9, 59, 0
5, 212192, Note_on_c, 9, 59, 74
5, 212633, Note_on_c, 9, 59, 0
5, 212863, Note_on_c, 9, 59, 44
5, 213010, Note_on_c, 9, 59, 0
5, 213148, Note_on_c, 9, 59, 53
5, 213652, Note_on_c, 9, 59, 0
5, 214113, Note_on_c, 9, 59, 74
5, 214551, Note_on_c, 9, 59, 0
5, 214819, Note_on_c, 9, 59, 30
5, 214951, Note_on_c, 9, 59, 0
5, 215064, Note_on_c, 9, 59, 45
5, 215452, Note_on_c, 9, 59, 0
5, 215982, Note_on_c, 9, 59, 71
5, 216527, Note_on_c, 9, 59, 0
5, 217013, Note_on_c, 9, 59, 36
5, 217327, Note_on_c, 9, 59, 0
5, 217843, Note_on_c, 9, 59, 69
5, 218168, Note_on_c, 9, 59, 0
5, 218597, Note_on_c, 9, 59, 62
5, 218753, Note_on_c, 9, 59, 0
5, 218995, Note_on_c, 9, 59, 62
5, 219294, Note_on_c, 9, 59, 0
5, 219836, Note_on_c, 9, 59, 69
5, 220299, Note_on_c, 9, 59, 0
5, 220838, Note_on_c, 9, 59, 59
5, 221028, Note_on_c, 9, 59, 0
5, 221486, Note_on_c, 9, 59, 71
5, 221587, Note_on_c, 9, 59, 0
5, 221803, Note_on_c, 9, 59, 66
5, 222194, Note_on_c, 9, 59, 0
5, 222742, Note_on_c, 9, 59, 79
5, 223142, Note_on_c, 9, 59, 0
5, 223344, Note_on_c, 9, 59, 64
5, 223594, Note_on_c, 9, 59, 0
5, 224354, Note_on_c, 9, 59, 84
5, 224723, Note_on_c, 9, 59, 0
5, 225322, Note_on_c, 9, 59, 37
5, 225492, Note_on_c, 9, 59, 0
5, 225633, Note_on_c, 9, 59, 62
5, 226108, Note_on_c, 9, 59, 0
5, 226635, Note_on_c, 9, 59, 78
5, 227036, Note_on_c, 9, 59, 0
5, 227571, Note_on_c, 9, 59, 72
5, 227946, Note_on_c, 9, 59, 0
5, 228251, Note_on_c, 9, 59, 44
5, 228438, Note_on_c, 9, 59, 0
5, 228530, Note_on_c, 9, 59, 35
5, 229023, Note_on_c, 9, 59, 0
5, 229504, Note_on_c, 9, 59, 75
5, 229921, Note_on_c, 9, 59, 0
5, 230423, Note_on_c, 9, 59, 61
5, 230673, Note_on_c, 9, 59, 0
5, 231379, Note_on_c, 9, 59, 84
5, 231865, Note_on_c, 9, 59, 0
5, 232277, Note_on_c, 9, 59, 47
5, 232447, Note_on_c, 9, 59, 0
5, 232940, Note_on_c, 9, 59, 79
5, 233317, Note_on_c, 9, 59, 0
5, 233818, Note_on_c, 9, 59, 54
5, 234023, Note_on_c, 9, 59, 0
5, 234190, Note_on_c, 9, 59, 68
5, 234702, Note_on_c, 9, 59, 0
5, 235169, Note_on_c, 9, 59, 67
5, 235471, Note_on_c, 9, 59, 0
5, 235808, Note_on_c, 9, 59, 34
5, 235990, Note_on_c, 9, 59, 0
5, 236125, Note_on_c, 9, 59, 54
5, 236560, Note_on_c, 9, 59, 0
5, 237113, Note_on_c, 9, 59, 80
5, 237559, Note_on_c, 9, 59, 0
5, 237798, Note_on_c, 9, 59, 40
5, 237954, Note_on_c, 9, 59, 0
5, 238083, Note_on_c, 9, 59, 53
5, 238501, Note_on_c, 9, 59, 0
5, 239016, Note_on_c, 9, 59, 78
5, 239423, Note_on_c, 9, 59, 0
5, 239653, Note_on_c, 9, 59, 35
5, 239829, Note_on_c, 9, 59, 0
5, 240007, Note_on_c, 9, 59, 66
5, 240321, Note_on_c, 9, 59, 0
5, 241009, Note_on_c, 9, 59, 81
5, 241444, Note_on_c, 9, 59, 0
5, 241678, Note_on_c, 9, 59, 50
5, 241853, Note_on_c, 9, 59, 0
5, 241994, Note_on_c, 9, 59, 52
5, 242547, Note_on_c, 9, 59, 0
5, 242919, Note_on_c, 9, 59, 74
5, 243385, Note_on_c, 9, 59, 0
5, 243581, Note_on_c, 9, 59, 44
5, 243708, Note_on_c, 9, 59, 0
5, 243878, Note_on_c, 9, 59, 68
5, 244287, Note_on_c, 9, 59, 0
5, 244823, Note_on_c, 9, 59, 74
5, 245327, Note_on_c, 9, 59, 0
5, 245819, Note_on_c, 9, 59, 54
5, 246090, Note_on_c, 9, 59, 0
5, 246444, Note_on_c, 9, 59, 79
5, 247078, Note_on_c, 9, 59, 0
5, 247662, Note_on_c, 9, 59, 75
5, 248541, Note_on_c, 9, 59, 0
5, 248613, Note_on_c, 9, 51, 77
5, 249272, Note_on_c, 9, 51, 0
5, 249554, Note_on_c, 9, 51, 55
5, 249940, Note_on_c, 9, 51, 0
5, 250534, Note_on_c, 9, 51, 75
5, 251179, Note_on_c, 9, 51, 0
5, 251562, Note_on_c, 9, 51, 51
5, 251887, Note_on_c, 9, 51, 0
5, 252541, Note_on_c, 9, 51, 77
5, 253025, Note_on_c, 9, 51, 0
5, 253215, Note_on_c, 9, 51, 55
5, 253399, Note_on_c, 9, 51, 0
5, 253538, Note_on_c, 9, 51, 56
5, 254116, Note_on_c, 9, 51, 0
5, 254494, Note_on_c, 9, 51, 72
5, 255044, Note_on_c, 9, 51, 0
5, 255447, Note_on_c, 9, 51, 63
5, 255934, Note_on_c, 9, 51, 0
5, 256366, Note_on_c, 9, 51, 67
5, 256395, Note_on_c, 9, 53, 64
5, 256971, Note_on_c, 9, 51, 0
5, 257126, Note_on_c, 9, 53, 0
5, 257342, Note_on_c, 9, 51, 39
5, 257935, Note_on_c, 9, 51, 0
5, 258292, Note_on_c, 9, 51, 62
5, 258917, Note_on_c, 9, 51, 0
5, 259260, Note_on_c, 9, 51, 57
5, 259876, Note_on_c, 9, 51, 0
5, 260182, Note_on_c, 9, 51, 67
5, 260651, Note_on_c, 9, 51, 0
5, 260867, Note_on_c, 9, 51, 51
5, 261031, Note_on_c, 9, 51, 0
5, 261170, Note_on_c, 9, 51, 51
5, 261673, Note_on_c, 9, 51, 0
5, 262097, Note_on_c, 9, 51, 67
5, 262538, Note_on_c, 9, 51, 0
5, 262728, Note_on_c, 9, 51, 56
5, 262935, Note_on_c, 9, 51, 0
5, 263096, Note_on_c, 9, 51, 60
5, 263456, Note_on_c, 9, 51, 0
5, 264029, Note_on_c, 9, 51, 56
5, 264444, Note_on_c, 9, 51, 0
5, 264683, Note_on_c, 9, 51, 48
5, 264916, Note_on_c, 9, 51, 0
5, 265011, Note_on_c, 9, 51, 36
5, 265513, Note_on_c, 9, 51, 0
5, 265988, Note_on_c, 9, 51, 62
5, 266440, Note_on_c, 9, 51, 0
5, 266630, Note_on_c, 9, 51, 51
5, 266857, Note_on_c, 9, 51, 0
5, 266973, Note_on_c, 9, 51, 48
5, 267436, Note_on_c, 9, 51, 0
5, 267920, Note_on_c, 9, 51, 69
5, 268364, Note_on_c, 9, 51, 0
5, 268551, Note_on_c, 9, 51, 52
5, 268776, Note_on_c, 9, 51, 0
5, 268876, Note_on_c, 9, 51, 38
5, 269380, Note_on_c, 9, 51, 0
5, 269844, Note_on_c, 9, 51, 70
5, 270282, Note_on_c, 9, 51, 0
5, 270466, Note_on_c, 9, 51, 56
5, 270685, Note_on_c, 9, 51, 0
5, 270809, Note_on_c, 9, 51, 43
5, 271229, Note_on_c, 9, 51, 0
5, 271722, Note_on_c, 9, 51, 71
5, 272160, Note_on_c, 9, 51, 0
5, 272358, Note_on_c, 9, 51, 50
5, 272494, Note_on_c, 9, 51, 0
5, 272695, Note_on_c, 9, 51, 68
5, 273113, Note_on_c, 9, 51, 0
5, 273637, Note_on_c, 9, 51, 69
5, 274193, Note_on_c, 9, 51, 0
5, 274579, Note_on_c, 9, 51, 67
5, 275060, Note_on_c, 9, 51, 0
5, 275558, Note_on_c, 9, 51, 70
5, 276004, Note_on_c, 9, 51, 0
5, 276448, Note_on_c, 9, 51, 67
5, 276949, Note_on_c, 9, 51, 0
5, 277413, Note_on_c, 9, 51, 67
5, 277870, Note_on_c, 9, 51, 0
5, 278000, Note_on_c, 9, 51, 43
5, 278187, Note_on_c, 9, 51, 0
5, 278363, Note_on_c, 9, 51, 69
5, 278792, Note_on_c, 9, 51, 0
5, 279377, Note_on_c, 9, 51, 71
5, 279820, Note_on_c, 9, 51, 0
5, 279970, Note_on_c, 9, 51, 42
5, 280091, Note_on_c, 9, 51, 0
5, 280321, Note_on_c, 9, 51, 57
5, 280673, Note_on_c, 9, 51, 0
5, 281300, Note_on_c, 9, 51, 72
5, 281661, Note_on_c, 9, 51, 0
5, 282259, Note_on_c, 9, 51, 69
5, 282643, Note_on_c, 9, 51, 0
5, 283279, Note_on_c, 9, 51, 72
5, 283674, Note_on_c, 9, 51, 0
5, 285191, Note_on_c, 9, 51, 78
5, 285612, Note_on_c, 9, 51, 0
5, 285811, Note_on_c, 9, 51, 56
5, 285980, Note_on_c, 9, 51, 0
5, 286168, Note_on_c, 9, 51, 64
5, 286672, Note_on_c, 9, 51, 0
5, 287158, Note_on_c, 9, 51, 70
5, 287556, Note_on_c, 9, 51, 0
5, 287752, Note_on_c, 9, 51, 47
5, 287853, Note_on_c, 9, 51, 0
5, 288057, Note_on_c, 9, 51, 52
5, 288446, Note_on_c, 9, 51, 0
5, 289031, Note_on_c, 9, 51, 68
5, 289411, Note_on_c, 9, 51, 0
5, 290007, Note_on_c, 9, 51, 52
5, 290361, Note_on_c, 9, 51, 0
5, 290825, Note_on_c, 9, 51, 31
5, 290949, Note_on_c, 9, 51, 0
5, 291015, Note_on_c, 9, 51, 29
5, 291317, Note_on_c, 9, 51, 0
5, 291908, Note_on_c, 9, 51, 71
5, 292346, Note_on_c, 9, 51, 0
5, 292821, Note_on_c, 9, 51, 56
5, 293045, Note_on_c, 9, 51, 0
5, 293523, Note_on_c, 9, 51, 70
5, 293984, Note_on_c, 9, 51, 0
5, 294434, Note_on_c, 9, 51, 59
5, 294647, Note_on_c, 9, 51, 0
5, 294837, Note_on_c, 9, 51, 69
5, 295344, Note_on_c, 9, 51, 0
5, 295822, Note_on_c, 9, 51, 63
5, 296136, Note_on_c, 9, 51, 0
5, 296372, Note_on_c, 9, 51, 62
5, 296798, Note_on_c, 9, 51, 0
5, 297607, Note_on_c, 9, 51, 67
5, 298042, Note_on_c, 9, 51, 0
5, 298638, Note_on_c, 9, 51, 59
5, 298875, Note_on_c, 9, 51, 0
5, 299306, Note_on_c, 9, 51, 40
5, 299404, Note_on_c, 9, 51, 0
5, 299577, Note_on_c, 9, 51, 51
5, 299926, Note_on_c, 9, 51, 0
5, 300548, Note_on_c, 9, 51, 74
5, 301161, Note_on_c, 9, 51, 0
5, 301504, Note_on_c, 9, 51, 38
5, 301783, Note_on_c, 9, 51, 0
5, 302397, Note_on_c, 9, 51, 72
5, 302768, Note_on_c, 9, 51, 0
5, 303151, Note_on_c, 9, 51, 42
5, 303249, Note_on_c, 9, 51, 0
5, 303439, Note_on_c, 9, 51, 59
5, 303750, Note_on_c, 9, 51, 0
5, 304372, Note_on_c, 9, 51, 74
5, 304764, Note_on_c, 9, 51, 0
5, 305386, Note_on_c, 9, 51, 56
5, 305640, Note_on_c, 9, 51, 0
5, 306357, Note_on_c, 9, 51, 72
5, 306665, Note_on_c, 9, 51, 0
5, 307031, Note_on_c, 9, 51, 50
5, 307178, Note_on_c, 9, 51, 0
5, 307336, Note_on_c, 9, 51, 47
5, 307595, Note_on_c, 9, 51, 0
5, 308237, Note_on_c, 9, 51, 73
5, 308600, Note_on_c, 9, 51, 0
5, 308894, Note_on_c, 9, 51, 37
5, 309012, Note_on_c, 9, 51, 0
5, 309228, Note_on_c, 9, 51, 51
5, 309582, Note_on_c, 9, 51, 0
5, 310170, Note_on_c, 9, 51, 72
5, 310481, Note_on_c, 9, 51, 0
5, 310803, Note_on_c, 9, 51, 46
5, 310936, Note_on_c, 9, 51, 0
5, 311123, Note_on_c, 9, 51, 67
5, 311408, Note_on_c, 9, 51, 0
5, 312022, Note_on_c, 9, 51, 82
5, 312480, Note_on_c, 9, 51, 0
5, 312981, Note_on_c, 9, 51, 55
5, 313246, Note_on_c, 9, 51, 0
5, 313954, Note_on_c, 9, 51, 74
5, 314346, Note_on_c, 9, 51, 0
5, 314962, Note_on_c, 9, 51, 51
5, 315351, Note_on_c, 9, 51, 0
5, 315947, Note_on_c, 9, 51, 74
5, 316316, Note_on_c, 9, 51, 0
5, 316618, Note_on_c, 9, 51, 37
5, 316728, Note_on_c, 9, 51, 0
5, 316926, Note_on_c, 9, 51, 60
5, 317240, Note_on_c, 9, 51, 0
5, 317859, Note_on_c, 9, 51, 75
5, 318214, Note_on_c, 9, 51, 0
5, 318499, Note_on_c, 9, 51, 37
5, 318620, Note_on_c, 9, 51, 0
5, 318801, Note_on_c, 9, 51, 60
5, 319072, Note_on_c, 9, 51, 0
5, 319757, Note_on_c, 9, 51, 74
5, 320307, Note_on_c, 9, 51, 0
5, 320716, Note_on_c, 9, 51, 56
5, 320944, Note_on_c, 9, 51, 0
5, 321652, Note_on_c, 9, 51, 75
5, 321961, Note_on_c, 9, 51, 0
5, 322364, Note_on_c, 9, 51, 37
5, 322467, Note_on_c, 9, 51, 0
5, 322588, Note_on_c, 9, 51, 46
5, 322839, Note_on_c, 9, 51, 0
5, 323579, Note_on_c, 9, 51, 71
5, 324063, Note_on_c, 9, 51, 0
5, 324579, Note_on_c, 9, 51, 59
5, 325034, Note_on_c, 9, 51, 0
5, 325515, Note_on_c, 9, 51, 75
5, 325972, Note_on_c, 9, 51, 0
5, 326488, Note_on_c, 9, 51, 51
5, 326773, Note_on_c, 9, 51, 0
5, 327444, Note_on_c, 9, 51, 79
5, 327862, Note_on_c, 9, 51, 0
5, 328374, Note_on_c, 9, 51, 56
5, 328758, Note_on_c, 9, 51, 0
5, 329322, Note_on_c, 9, 51, 73
5, 329685, Note_on_c, 9, 51, 0
5, 329987, Note_on_c, 9, 51, 52
5, 330200, Note_on_c, 9, 51, 0
5, 330341, Note_on_c, 9, 51, 64
5, 330664, Note_on_c, 9, 51, 0
5, 331298, Note_on_c, 9, 51, 74
5, 331687, Note_on_c, 9, 51, 0
5, 331940, Note_on_c, 9, 51, 46
5, 332139, Note_on_c, 9, 51, 0
5, 332297, Note_on_c, 9, 51, 64
5, 332634, Note_on_c, 9, 51, 0
5, 333265, Note_on_c, 9, 51, 77
5, 333685, Note_on_c, 9, 51, 0
5, 333864, Note_on_c, 9, 51, 59
5, 334068, Note_on_c, 9, 51, 0
5, 334178, Note_on_c, 9, 51, 48
5, 334512, Note_on_c, 9, 51, 0
5, 335119, Note_on_c, 9, 51, 79
5, 335505, Note_on_c, 9, 51, 0
5, 336052, Note_on_c, 9, 51, 62
5, 336421, Note_on_c, 9, 51, 0
5, 337046, Note_on_c, 9, 51, 74
5, 337435, Note_on_c, 9, 51, 0
5, 337685, Note_on_c, 9, 51, 55
5, 337893, Note_on_c, 9, 51, 0
5, 337999, Note_on_c, 9, 51, 43
5, 338259, Note_on_c, 9, 51, 0
5, 338912, Note_on_c, 9, 51, 81
5, 339269, Note_on_c, 9, 51, 0
5, 339868, Note_on_c, 9, 51, 72
5, 340243, Note_on_c, 9, 51, 0
5, 340470, Note_on_c, 9, 51, 59
5, 340660, Note_on_c, 9, 51, 0
5, 340822, Note_on_c, 9, 51, 63
5, 341153, Note_on_c, 9, 51, 0
5, 341827, Note_on_c, 9, 51, 78
5, 342175, Note_on_c, 9, 51, 0
5, 342743, Note_on_c, 9, 51, 74
5, 343120, Note_on_c, 9, 51, 0
5, 343748, Note_on_c, 9, 51, 72
5, 344174, Note_on_c, 9, 51, 0
5, 344707, Note_on_c, 9, 51, 72
5, 345101, Note_on_c, 9, 51, 0
5, 345663, Note_on_c, 9, 51, 71
5, 346037, Note_on_c, 9, 51, 0
5, 346602, Note_on_c, 9, 51, 73
5, 346985, Note_on_c, 9, 51, 0
5, 347584, Note_on_c, 9, 51, 70
5, 347967, Note_on_c, 9, 51, 0
5, 348177, Note_on_c, 9, 51, 50
5, 348359, Note_on_c, 9, 51, 0
5, 348459, Note_on_c, 9, 51, 36
5, 348817, Note_on_c, 9, 51, 0
5, 349220, Note_on_c, 9, 51, 75
5, 349747, Note_on_c, 9, 51, 0
5, 350052, Note_on_c, 9, 51, 53
5, 350259, Note_on_c, 9, 51, 0
5, 350415, Note_on_c, 9, 51, 64
5, 350856, Note_on_c, 9, 51, 0
5, 351420, Note_on_c, 9, 51, 75
5, 351809, Note_on_c, 9, 51, 0
5, 352342, Note_on_c, 9, 51, 77
5, 352782, Note_on_c, 9, 51, 0
5, 352972, Note_on_c, 9, 51, 56
5, 353108, Note_on_c, 9, 51, 0
5, 353315, Note_on_c, 9, 51, 61
5, 353707, Note_on_c, 9, 51, 0
5, 354289, Note_on_c, 9, 51, 77
5, 354721, Note_on_c, 9, 51, 0
5, 355219, Note_on_c, 9, 51, 64
5, 355449, Note_on_c, 9, 51, 0
5, 355838, Note_on_c, 9, 51, 60
5, 355999, Note_on_c, 9, 51, 0
5, 356143, Note_on_c, 9, 51, 55
5, 356521, Note_on_c, 9, 51, 0
5, 357148, Note_on_c, 9, 51, 75
5, 357537, Note_on_c, 9, 51, 0
5, 358070, Note_on_c, 9, 51, 71
5, 358416, Note_on_c, 9, 51, 0
5, 358770, Note_on_c, 9, 51, 74
5, 359061, Note_on_c, 9, 51, 0
5, 359637, Note_on_c, 9, 51, 60
5, 359856, Note_on_c, 9, 51, 0
5, 359979, Note_on_c, 9, 51, 59
5, 360460, Note_on_c, 9, 51, 0
5, 360941, Note_on_c, 9, 51, 72
5, 361238, Note_on_c, 9, 51, 0
5, 361546, Note_on_c, 9, 51, 57
5, 361788, Note_on_c, 9, 51, 0
5, 362511, Note_on_c, 9, 51, 74
5, 362851, Note_on_c, 9, 51, 0
5, 363407, Note_on_c, 9, 51, 67
5, 363626, Note_on_c, 9, 51, 0
5, 363778, Note_on_c, 9, 51, 70
5, 364161, Note_on_c, 9, 51, 0
5, 364832, Note_on_c, 9, 51, 78
5, 365247, Note_on_c, 9, 51, 0
5, 365722, Note_on_c, 9, 51, 69
5, 366056, Note_on_c, 9, 51, 0
5, 366500, Note_on_c, 9, 51, 37
5, 366598, Note_on_c, 9, 51, 0
5, 366765, Note_on_c, 9, 51, 62
5, 367076, Note_on_c, 9, 51, 0
5, 367724, Note_on_c, 9, 51, 78
5, 368026, Note_on_c, 9, 51, 0
5, 368398, Note_on_c, 9, 51, 59
5, 368527, Note_on_c, 9, 51, 0
5, 368697, Note_on_c, 9, 51, 47
5, 368942, Note_on_c, 9, 51, 0
5, 369584, Note_on_c, 9, 51, 73
5, 369910, Note_on_c, 9, 51, 0
5, 370267, Note_on_c, 9, 51, 47
5, 370365, Note_on_c, 9, 51, 0
5, 370578, Note_on_c, 9, 51, 51
5, 370826, Note_on_c, 9, 51, 0
5, 371508, Note_on_c, 9, 51, 88
5, 372093, Note_on_c, 9, 51, 0
5, 372505, Note_on_c, 9, 51, 50
5, 372905, Note_on_c, 9, 51, 0
5, 373487, Note_on_c, 9, 51, 71
5, 373910, Note_on_c, 9, 51, 0
5, 374437, Note_on_c, 9, 51, 56
5, 374912, Note_on_c, 9, 51, 0
5, 375382, Note_on_c, 9, 51, 60
5, 375413, Note_on_c, 9, 53, 55
5, 375987, Note_on_c, 9, 51, 0
5, 376139, Note_on_c, 9, 53, 0
5, 376407, Note_on_c, 9, 51, 46
5, 376773, Note_on_c, 9, 51, 0
5, 377360, Note_on_c, 9, 51, 69
5, 377389, Note_on_c, 9, 53, 60
5, 378037, Note_on_c, 9, 51, 0
5, 378046, Note_on_c, 9, 53, 0
5, 378317, Note_on_c, 9, 51, 45
5, 378809, Note_on_c, 9, 51, 0
5, 379230, Note_on_c, 9, 51, 44
5, 379673, Note_on_c, 9, 51, 0
5, 380125, Note_on_c, 9, 51, 64
5, 380603, Note_on_c, 9, 51, 0
5, 381102, Note_on_c, 9, 51, 76
5, 381704, Note_on_c, 9, 51, 0
5, 381850, Note_on_c, 9, 51, 37
5, 381954, Note_on_c, 9, 51, 0
5, 382124, Note_on_c, 9, 51, 55
5, 382398, Note_on_c, 9, 51, 0
5, 382953, Note_on_c, 9, 51, 71
5, 383411, Note_on_c, 9, 51, 0
5, 383935, Note_on_c, 9, 51, 52
5, 384218, Note_on_c, 9, 51, 0
5, 384966, Note_on_c, 9, 51, 74
5, 385309, Note_on_c, 9, 51, 0
5, 385900, Note_on_c, 9, 51, 58
5, 386182, Note_on_c, 9, 51, 0
5, 386182, End_track
6, 0, Start_track
6, 0, Title_t, "Drum  Hits"
6, 0, Program_c, 9, 0
6, 0, Control_c, 9, 7, 72
6, 11245, Note_on_c, 9, 36, 17
6, 11434, Note_on_c, 9, 36, 0
6, 23228, Note_on_c, 9, 36, 31
6, 23326, Note_on_c, 9, 36, 0
6, 24117, Note_on_c, 9, 36, 42
6, 24242, Note_on_c, 9, 36, 0
6, 26008, Note_on_c, 9, 36, 32
6, 26213, Note_on_c, 9, 36, 0
6, 27061, Note_on_c, 9, 36, 27
6, 27222, Note_on_c, 9, 36, 0
6, 33855, Note_on_c, 9, 36, 24
6, 33990, Note_on_c, 9, 36, 0
6, 34577, Note_on_c, 9, 36, 36
6, 34643, Note_on_c, 9, 49, 22
6, 34948, Note_on_c, 9, 49, 0
6, 35706, Note_on_c, 9, 36, 0
6, 41097, Note_on_c, 9, 36, 24
6, 41202, Note_on_c, 9, 36, 0
6, 44829, Note_on_c, 9, 38, 29
6, 45021, Note_on_c, 9, 38, 0
6, 45751, Note_on_c, 9, 38, 31
6, 45848, Note_on_c, 9, 38, 0
6, 46701, Note_on_c, 9, 38, 31
6, 46788, Note_on_c, 9, 38, 0
6, 47727, Note_on_c, 9, 38, 25
6, 47837, Note_on_c, 9, 38, 0
6, 48073, Note_on_c, 9, 38, 15
6, 48193, Note_on_c, 9, 38, 0
6, 48616, Note_on_c, 9, 36, 35
6, 48741, Note_on_c, 9, 36, 0
6, 48992, Note_on_c, 9, 38, 13
6, 49141, Note_on_c, 9, 38, 0
6, 56472, Note_on_c, 9, 36, 47
6, 56580, Note_on_c, 9, 36, 0
6, 59322, Note_on_c, 9, 36, 44
6, 59434, Note_on_c, 9, 36, 0
6, 62140, Note_on_c, 9, 36, 27
6, 62227, Note_on_c, 9, 36, 0
6, 64416, Note_on_c, 9, 36, 30
6, 64516, Note_on_c, 9, 36, 0
6, 64915, Note_on_c, 9, 36, 46
6, 65018, Note_on_c, 9, 36, 0
6, 65192, Note_on_c, 9, 49, 24
6, 65243, Note_on_c, 9, 36, 39
6, 66633, Note_on_c, 9, 49, 0
6, 67606, Note_on_c, 9, 36, 0
6, 68172, Note_on_c, 9, 36, 55
6, 68292, Note_on_c, 9, 36, 0
6, 68765, Note_on_c, 9, 49, 27
6, 68799, Note_on_c, 9, 36, 66
6, 68945, Note_on_c, 9, 49, 0
6, 69116, Note_on_c, 9, 36, 0
6, 80332, Note_on_c, 9, 36, 29
6, 80419, Note_on_c, 9, 36, 0
6, 87976, Note_on_c, 9, 36, 48
6, 88076, Note_on_c, 9, 36, 0
6, 93756, Note_on_c, 9, 36, 32
6, 93861, Note_on_c, 9, 36, 0
6, 99532, Note_on_c, 9, 36, 76
6, 99788, Note_on_c, 9, 36, 0
6, 99913, Note_on_c, 9, 36, 71
6, 100438, Note_on_c, 9, 36, 0
6, 102657, Note_on_c, 9, 36, 38
6, 102773, Note_on_c, 9, 36, 0
6, 111210, Note_on_c, 9, 36, 24
6, 111297, Note_on_c, 9, 36, 0
6, 113980, Note_on_c, 9, 36, 52
6, 114098, Note_on_c, 9, 36, 0
6, 117864, Note_on_c, 9, 36, 62
6, 118153, Note_on_c, 9, 36, 0
6, 121622, Note_on_c, 9, 36, 48
6, 121742, Note_on_c, 9, 36, 0
6, 121906, Note_on_c, 9, 46, 59
6, 122556, Note_on_c, 9, 46, 0
6, 125516, Note_on_c, 9, 36, 42
6, 125649, Note_on_c, 9, 36, 0
6, 126468, Note_on_c, 9, 46, 45
6, 126534, Note_on_c, 9, 36, 51
6, 126557, Note_on_c, 9, 46, 0
6, 126637, Note_on_c, 9, 36, 0
6, 133278, Note_on_c, 9, 36, 32
6, 133439, Note_on_c, 9, 36, 0
6, 147836, Note_on_c, 9, 38, 37
6, 148287, Note_on_c, 9, 38, 0
6, 148463, Note_on_c, 9, 38, 37
6, 148653, Note_on_c, 9, 38, 0
6, 148796, Note_on_c, 9, 38, 43
6, 149196, Note_on_c, 9, 38, 0
6, 149393, Note_on_c, 9, 38, 45
6, 149623, Note_on_c, 9, 38, 0
6, 149741, Note_on_c, 9, 38, 37
6, 150109, Note_on_c, 9, 38, 0
6, 150342, Note_on_c, 9, 36, 58
6, 150581, Note_on_c, 9, 36, 0
6, 153665, Note_on_c, 9, 40, 46
6, 154505, Note_on_c, 9, 40, 0
6, 164763, Note_on_c, 9, 36, 36
6, 164919, Note_on_c, 9, 36, 0
6, 165168, Note_on_c, 9, 36, 44
6, 165359, Note_on_c, 9, 36, 0
6, 171987, Note_on_c, 9, 36, 27
6, 172074, Note_on_c, 9, 36, 0
6, 172589, Note_on_c, 9, 36, 41
6, 172817, Note_on_c, 9, 36, 0
6, 172906, Note_on_c, 9, 59, 57
6, 172998, Note_on_c, 9, 36, 57
6, 173426, Note_on_c, 9, 59, 0
6, 173610, Note_on_c, 9, 36, 0
6, 176659, Note_on_c, 9, 53, 43
6, 176718, Note_on_c, 9, 36, 54
6, 177276, Note_on_c, 9, 53, 0
6, 177414, Note_on_c, 9, 36, 0
6, 183433, Note_on_c, 9, 53, 43
6, 183863, Note_on_c, 9, 53, 0
6, 184076, Note_on_c, 9, 53, 55
6, 184170, Note_on_c, 9, 53, 0
6, 185356, Note_on_c, 9, 53, 62
6, 185732, Note_on_c, 9, 53, 0
6, 185944, Note_on_c, 9, 53, 47
6, 186147, Note_on_c, 9, 53, 0
6, 188238, Note_on_c, 9, 49, 24
6, 188266, Note_on_c, 9, 36, 53
6, 189966, Note_on_c, 9, 49, 0
6, 190622, Note_on_c, 9, 36, 0
6, 191738, Note_on_c, 9, 49, 26
6, 191753, Note_on_c, 9, 36, 55
6, 191825, Note_on_c, 9, 49, 0
6, 191920, Note_on_c, 9, 36, 0
6, 217663, Note_on_c, 9, 36, 72
6, 218252, Note_on_c, 9, 36, 0
6, 218958, Note_on_c, 9, 36, 57
6, 219317, Note_on_c, 9, 36, 0
6, 222755, Note_on_c, 9, 36, 59
6, 223172, Note_on_c, 9, 36, 0
6, 225591, Note_on_c, 9, 36, 52
6, 226182, Note_on_c, 9, 36, 0
6, 226636, Note_on_c, 9, 36, 51
6, 226922, Note_on_c, 9, 36, 0
6, 235898, Note_on_c, 9, 36, 51
6, 236021, Note_on_c, 9, 36, 0
6, 239733, Note_on_c, 9, 36, 43
6, 239863, Note_on_c, 9, 36, 0
6, 241624, Note_on_c, 9, 36, 36
6, 241747, Note_on_c, 9, 36, 0
6, 241985, Note_on_c, 9, 36, 42
6, 242131, Note_on_c, 9, 36, 0
6, 242549, Note_on_c, 9, 46, 67
6, 242723, Note_on_c, 9, 46, 0
6, 243995, Note_on_c, 9, 46, 74
6, 244486, Note_on_c, 9, 46, 0
6, 246419, Note_on_c, 9, 46, 57
6, 246588, Note_on_c, 9, 46, 0
6, 247484, Note_on_c, 9, 36, 28
6, 247638, Note_on_c, 9, 36, 0
6, 247738, Note_on_c, 9, 46, 69
6, 247968, Note_on_c, 9, 46, 0
6, 249284, Note_on_c, 9, 36, 62
6, 249389, Note_on_c, 9, 36, 0
6, 249752, Note_on_c, 9, 36, 35
6, 249880, Note_on_c, 9, 36, 0
6, 260136, Note_on_c, 9, 36, 38
6, 260246, Note_on_c, 9, 36, 0
6, 275224, Note_on_c, 9, 36, 63
6, 275475, Note_on_c, 9, 36, 0
6, 279013, Note_on_c, 9, 38, 31
6, 279141, Note_on_c, 9, 38, 0
6, 279548, Note_on_c, 9, 38, 22
6, 279658, Note_on_c, 9, 38, 0
6, 281023, Note_on_c, 9, 38, 31
6, 281153, Note_on_c, 9, 38, 0
6, 281445, Note_on_c, 9, 38, 24
6, 281560, Note_on_c, 9, 38, 0
6, 282008, Note_on_c, 9, 36, 37
6, 282116, Note_on_c, 9, 36, 0
6, 282282, Note_on_c, 9, 38, 34
6, 282446, Note_on_c, 9, 38, 0
6, 282856, Note_on_c, 9, 38, 30
6, 282968, Note_on_c, 9, 38, 0
6, 283839, Note_on_c, 9, 38, 30
6, 283946, Note_on_c, 9, 38, 0
6, 284161, Note_on_c, 9, 38, 25
6, 284356, Note_on_c, 9, 38, 0
6, 285697, Note_on_c, 9, 38, 26
6, 285828, Note_on_c, 9, 38, 0
6, 286076, Note_on_c, 9, 38, 17
6, 286207, Note_on_c, 9, 38, 0
6, 286645, Note_on_c, 9, 36, 36
6, 286760, Note_on_c, 9, 36, 0
6, 294499, Note_on_c, 9, 36, 26
6, 294588, Note_on_c, 9, 36, 0
6, 295505, Note_on_c, 9, 36, 37
6, 295617, Note_on_c, 9, 36, 0
6, 305005, Note_on_c, 9, 36, 44
6, 305110, Note_on_c, 9, 36, 0
6, 310161, Note_on_c, 9, 36, 51
6, 310273, Note_on_c, 9, 36, 0
6, 310749, Note_on_c, 9, 36, 66
6, 310885, Note_on_c, 9, 36, 0
6, 311121, Note_on_c, 9, 49, 22
6, 311123, Note_on_c, 9, 36, 56
6, 311625, Note_on_c, 9, 49, 0
6, 311907, Note_on_c, 9, 36, 0
6, 314026, Note_on_c, 9, 36, 31
6, 314177, Note_on_c, 9, 36, 0
6, 315025, Note_on_c, 9, 36, 37
6, 315306, Note_on_c, 9, 36, 0
6, 327100, Note_on_c, 9, 36, 60
6, 327384, Note_on_c, 9, 36, 0
6, 328086, Note_on_c, 9, 36, 70
6, 328490, Note_on_c, 9, 36, 0
6, 331240, Note_on_c, 9, 36, 42
6, 331365, Note_on_c, 9, 36, 0
6, 332213, Note_on_c, 9, 36, 53
6, 332637, Note_on_c, 9, 36, 0
6, 336664, Note_on_c, 9, 36, 48
6, 336867, Note_on_c, 9, 36, 0
6, 341495, Note_on_c, 9, 36, 44
6, 341656, Note_on_c, 9, 36, 0
6, 341774, Note_on_c, 9, 52, 42
6, 343108, Note_on_c, 9, 52, 0
6, 344424, Note_on_c, 9, 36, 34
6, 344549, Note_on_c, 9, 36, 0
6, 345325, Note_on_c, 9, 36, 50
6, 345463, Note_on_c, 9, 36, 0
6, 345778, Note_on_c, 9, 36, 45
6, 346021, Note_on_c, 9, 36, 0
6, 353094, Note_on_c, 9, 36, 31
6, 353251, Note_on_c, 9, 36, 0
6, 353322, Note_on_c, 9, 53, 57
6, 353821, Note_on_c, 9, 53, 0
6, 354290, Note_on_c, 9, 53, 68
6, 354710, Note_on_c, 9, 53, 0
6, 355823, Note_on_c, 9, 36, 39
6, 356033, Note_on_c, 9, 36, 0
6, 356783, Note_on_c, 9, 53, 55
6, 356929, Note_on_c, 9, 53, 0
6, 357761, Note_on_c, 9, 53, 58
6, 357910, Note_on_c, 9, 53, 0
6, 359062, Note_on_c, 9, 53, 53
6, 359333, Note_on_c, 9, 53, 0
6, 367410, Note_on_c, 9, 36, 53
6, 367697, Note_on_c, 9, 36, 0
6, 370290, Note_on_c, 9, 36, 59
6, 370497, Note_on_c, 9, 36, 0
6, 372113, Note_on_c, 9, 36, 55
6, 372341, Note_on_c, 9, 36, 0
6, 385801, Note_on_c, 9, 49, 18
6, 385845, Note_on_c, 9, 36, 39
6, 389011, Note_on_c, 9, 49, 0
6, 392513, Note_on_c, 9, 36, 0
6, 392513, End_track
0, 0, End_of_file
