0, 0, Header, 1, 11, 384
1, 0, Start_track
1, 0, Title_t, "LouisianaSundayAfternoon"
1, 0, Text_t, "sequenced by dougmck@pipeline.com.au\012"
1, 0, Text_t, "The song was originally sequenced on a non Gen-Midi sequencer. Do Not try to quantize as time coding  is incorrect! \012"
1, 0, Text_t, "dougmck@pipeline.com.au\012"
1, 0, MIDI_port, 0
1, 0, System_exclusive, 10, 67, 16, 42, 0, 0, 0, 30, 0, 21, 247
1, 0, System_exclusive, 5, 126, 127, 9, 1, 247
1, 0, MIDI_port, 0
1, 0, System_exclusive, 10, 67, 16, 42, 0, 0, 0, 30, 0, 21, 247
1, 0, MIDI_port, 15
1, 0, System_exclusive, 8, 67, 115, 1, 17, 15, 89, 0, 247
1, 0, MIDI_port, 0
1, 0, Time_signature, 4, 2, 24, 8
1, 0, Key_signature, -1, "major"
1, 0, Tempo, 451128
1, 0, End_track
2, 0, Start_track
2, 0, MIDI_port, 0
2, 0, Title_t, "Louisiana Sunday Afternoon"
2, 0, Program_c, 0, 4
2, 0, Control_c, 0, 7, 123
2, 1565, Note_on_c, 0, 66, 56
2, 1571, Note_on_c, 0, 61, 57
2, 1573, Note_on_c, 0, 58, 33
2, 1586, Note_on_c, 0, 63, 39
2, 2720, Control_c, 0, 64, 127
2, 3027, Control_c, 0, 64, 0
2, 3117, Note_on_c, 0, 58, 0
2, 3146, Control_c, 0, 64, 127
2, 3219, Note_on_c, 0, 61, 0
2, 3257, Note_on_c, 0, 63, 0
2, 3267, Note_on_c, 0, 66, 0
2, 3721, Note_on_c, 0, 56, 47
2, 3778, Control_c, 0, 64, 0
2, 3815, Note_on_c, 0, 56, 0
2, 3835, Note_on_c, 0, 63, 87
2, 3837, Note_on_c, 0, 73, 83
2, 3846, Note_on_c, 0, 68, 72
2, 3848, Note_on_c, 0, 70, 67
2, 3853, Note_on_c, 0, 58, 76
2, 3910, Note_on_c, 0, 63, 0
2, 3932, Note_on_c, 0, 73, 0
2, 3935, Note_on_c, 0, 68, 0
2, 3950, Note_on_c, 0, 70, 0
2, 3957, Note_on_c, 0, 58, 0
2, 4105, Note_on_c, 0, 73, 75
2, 4105, Note_on_c, 0, 63, 77
2, 4110, Note_on_c, 0, 68, 73
2, 4118, Note_on_c, 0, 70, 59
2, 4119, Note_on_c, 0, 58, 73
2, 4147, Note_on_c, 0, 70, 0
2, 4170, Note_on_c, 0, 63, 0
2, 4178, Note_on_c, 0, 73, 0
2, 4179, Note_on_c, 0, 68, 0
2, 4188, Note_on_c, 0, 58, 0
2, 4561, Note_on_c, 0, 53, 49
2, 4594, Note_on_c, 0, 53, 0
2, 4632, Note_on_c, 0, 58, 64
2, 4633, Note_on_c, 0, 62, 66
2, 4637, Note_on_c, 0, 69, 64
2, 4647, Note_on_c, 0, 57, 55
2, 4651, Note_on_c, 0, 65, 62
2, 4981, Control_c, 0, 64, 127
2, 5256, Note_on_c, 0, 62, 0
2, 5256, Note_on_c, 0, 58, 0
2, 5262, Note_on_c, 0, 69, 0
2, 5272, Note_on_c, 0, 57, 0
2, 5289, Note_on_c, 0, 54, 35
2, 5295, Note_on_c, 0, 65, 0
2, 5340, Control_c, 0, 64, 0
2, 5360, Note_on_c, 0, 54, 0
2, 5367, Note_on_c, 0, 58, 47
2, 5375, Note_on_c, 0, 62, 37
2, 5386, Note_on_c, 0, 55, 57
2, 5388, Note_on_c, 0, 67, 49
2, 5600, Note_on_c, 0, 62, 0
2, 5628, Note_on_c, 0, 58, 0
2, 5681, Note_on_c, 0, 67, 0
2, 5730, Note_on_c, 0, 58, 35
2, 5738, Note_on_c, 0, 55, 0
2, 5740, Note_on_c, 0, 66, 37
2, 5745, Note_on_c, 0, 54, 43
2, 5779, Note_on_c, 0, 62, 32
2, 5871, Note_on_c, 0, 62, 0
2, 5900, Note_on_c, 0, 58, 0
2, 5934, Note_on_c, 0, 66, 0
2, 5998, Note_on_c, 0, 58, 62
2, 6003, Note_on_c, 0, 62, 57
2, 6004, Note_on_c, 0, 69, 68
2, 6012, Note_on_c, 0, 66, 53
2, 6015, Note_on_c, 0, 57, 69
2, 6051, Note_on_c, 0, 54, 0
2, 6101, Note_on_c, 0, 69, 0
2, 6107, Note_on_c, 0, 58, 0
2, 6114, Note_on_c, 0, 66, 0
2, 6115, Note_on_c, 0, 62, 0
2, 6192, Note_on_c, 0, 57, 0
2, 6410, Note_on_c, 0, 54, 47
2, 6501, Note_on_c, 0, 54, 0
2, 6502, Note_on_c, 0, 58, 39
2, 6511, Note_on_c, 0, 67, 43
2, 6514, Note_on_c, 0, 62, 48
2, 6520, Note_on_c, 0, 55, 60
2, 6884, Control_c, 0, 64, 127
2, 6985, Note_on_c, 0, 62, 0
2, 7018, Note_on_c, 0, 58, 0
2, 7124, Note_on_c, 0, 55, 0
2, 7138, Note_on_c, 0, 58, 57
2, 7145, Note_on_c, 0, 62, 67
2, 7172, Note_on_c, 0, 58, 0
2, 7173, Note_on_c, 0, 67, 0
2, 7182, Note_on_c, 0, 54, 29
2, 7211, Note_on_c, 0, 54, 0
2, 7216, Note_on_c, 0, 62, 0
2, 7968, Control_c, 0, 64, 0
2, 8044, Note_on_c, 0, 66, 76
2, 8056, Note_on_c, 0, 63, 48
2, 8059, Note_on_c, 0, 73, 71
2, 8062, Note_on_c, 0, 85, 71
2, 8064, Note_on_c, 0, 61, 40
2, 8073, Note_on_c, 0, 80, 44
2, 8084, Note_on_c, 0, 63, 0
2, 8087, Note_on_c, 0, 73, 0
2, 8090, Note_on_c, 0, 85, 0
2, 8094, Note_on_c, 0, 66, 0
2, 8100, Note_on_c, 0, 61, 0
2, 8102, Note_on_c, 0, 80, 0
2, 8468, Note_on_c, 0, 66, 61
2, 8470, Note_on_c, 0, 85, 75
2, 8472, Control_c, 0, 64, 127
2, 8475, Note_on_c, 0, 63, 48
2, 8476, Note_on_c, 0, 73, 69
2, 8481, Note_on_c, 0, 80, 62
2, 8481, Note_on_c, 0, 61, 35
2, 8487, Note_on_c, 0, 56, 33
2, 8823, Note_on_c, 0, 66, 0
2, 8890, Note_on_c, 0, 56, 0
2, 8924, Note_on_c, 0, 61, 0
2, 8943, Note_on_c, 0, 80, 0
2, 8946, Note_on_c, 0, 85, 0
2, 8991, Note_on_c, 0, 63, 0
2, 9016, Note_on_c, 0, 73, 0
2, 9214, Note_on_c, 0, 63, 54
2, 9214, Control_c, 0, 64, 0
2, 9215, Note_on_c, 0, 66, 51
2, 9219, Note_on_c, 0, 82, 55
2, 9232, Note_on_c, 0, 75, 45
2, 9234, Note_on_c, 0, 61, 33
2, 9244, Note_on_c, 0, 66, 0
2, 9261, Note_on_c, 0, 75, 0
2, 9263, Note_on_c, 0, 61, 0
2, 9276, Note_on_c, 0, 82, 0
2, 9279, Note_on_c, 0, 63, 0
2, 9587, Note_on_c, 0, 70, 50
2, 9587, Note_on_c, 0, 56, 40
2, 9588, Note_on_c, 0, 63, 47
2, 9590, Note_on_c, 0, 82, 56
2, 9594, Note_on_c, 0, 66, 55
2, 9595, Note_on_c, 0, 75, 54
2, 9607, Note_on_c, 0, 61, 43
2, 9614, Control_c, 0, 64, 127
2, 9902, Note_on_c, 0, 66, 0
2, 9939, Note_on_c, 0, 82, 0
2, 9964, Note_on_c, 0, 61, 0
2, 9980, Note_on_c, 0, 70, 0
2, 9992, Note_on_c, 0, 75, 0
2, 10021, Note_on_c, 0, 56, 0
2, 10049, Note_on_c, 0, 63, 0
2, 10259, Note_on_c, 0, 63, 20
2, 10288, Note_on_c, 0, 63, 0
2, 10349, Control_c, 0, 64, 0
2, 10350, Note_on_c, 0, 61, 52
2, 10357, Note_on_c, 0, 78, 71
2, 10357, Note_on_c, 0, 66, 74
2, 10357, Note_on_c, 0, 63, 44
2, 10357, Note_on_c, 0, 56, 62
2, 10360, Note_on_c, 0, 73, 73
2, 10423, Note_on_c, 0, 63, 0
2, 10463, Note_on_c, 0, 61, 0
2, 10486, Control_c, 0, 64, 127
2, 10506, Note_on_c, 0, 56, 0
2, 10535, Note_on_c, 0, 73, 0
2, 10552, Note_on_c, 0, 66, 0
2, 10576, Note_on_c, 0, 78, 0
2, 10716, Control_c, 0, 64, 0
2, 10749, Note_on_c, 0, 77, 63
2, 10753, Note_on_c, 0, 62, 49
2, 10759, Note_on_c, 0, 70, 60
2, 10763, Note_on_c, 0, 65, 54
2, 10770, Note_on_c, 0, 58, 36
2, 10778, Note_on_c, 0, 57, 36
2, 10780, Note_on_c, 0, 53, 37
2, 11074, Control_c, 0, 64, 127
2, 11476, Note_on_c, 0, 62, 0
2, 11485, Note_on_c, 0, 77, 0
2, 11613, Note_on_c, 0, 58, 0
2, 11686, Note_on_c, 0, 70, 0
2, 11710, Note_on_c, 0, 65, 0
2, 11876, Control_c, 0, 64, 0
2, 11896, Note_on_c, 0, 70, 49
2, 11898, Note_on_c, 0, 62, 36
2, 11907, Note_on_c, 0, 58, 35
2, 11908, Note_on_c, 0, 65, 32
2, 12260, Control_c, 0, 64, 127
2, 12579, Note_on_c, 0, 62, 0
2, 12748, Note_on_c, 0, 58, 0
2, 12748, Note_on_c, 0, 65, 0
2, 12891, Note_on_c, 0, 57, 0
2, 12914, Note_on_c, 0, 62, 42
2, 12921, Note_on_c, 0, 65, 42
2, 12966, Note_on_c, 0, 53, 0
2, 13080, Note_on_c, 0, 70, 0
2, 13096, Note_on_c, 0, 65, 0
2, 13197, Note_on_c, 0, 62, 0
2, 13782, Note_on_c, 0, 49, 29
2, 13796, Control_c, 0, 64, 0
2, 13819, Note_on_c, 0, 56, 52
2, 13819, Note_on_c, 0, 66, 50
2, 13821, Note_on_c, 0, 61, 55
2, 13824, Note_on_c, 0, 49, 0
2, 13835, Note_on_c, 0, 51, 38
2, 13968, Note_on_c, 0, 56, 0
2, 13969, Note_on_c, 0, 66, 0
2, 13985, Note_on_c, 0, 61, 0
2, 14004, Note_on_c, 0, 51, 0
2, 14207, Note_on_c, 0, 56, 54
2, 14208, Note_on_c, 0, 66, 56
2, 14218, Note_on_c, 0, 61, 57
2, 14227, Note_on_c, 0, 51, 46
2, 14572, Control_c, 0, 64, 127
2, 14682, Note_on_c, 0, 56, 0
2, 14744, Note_on_c, 0, 61, 0
2, 14755, Note_on_c, 0, 51, 0
2, 14796, Note_on_c, 0, 66, 0
2, 15261, Note_on_c, 0, 61, 46
2, 15342, Note_on_c, 0, 61, 0
2, 15342, Control_c, 0, 64, 0
2, 15362, Note_on_c, 0, 78, 74
2, 15366, Note_on_c, 0, 68, 80
2, 15369, Note_on_c, 0, 73, 80
2, 15370, Note_on_c, 0, 63, 71
2, 15607, Note_on_c, 0, 68, 0
2, 15627, Note_on_c, 0, 73, 0
2, 15632, Note_on_c, 0, 78, 0
2, 15655, Note_on_c, 0, 63, 0
2, 15662, Note_on_c, 0, 61, 46
2, 15740, Note_on_c, 0, 61, 0
2, 15761, Note_on_c, 0, 78, 72
2, 15766, Note_on_c, 0, 63, 77
2, 15769, Note_on_c, 0, 68, 80
2, 15773, Note_on_c, 0, 73, 80
2, 16100, Control_c, 0, 64, 127
2, 16409, Note_on_c, 0, 63, 0
2, 16530, Note_on_c, 0, 68, 0
2, 16580, Note_on_c, 0, 73, 0
2, 16596, Note_on_c, 0, 78, 0
2, 16886, Control_c, 0, 64, 0
2, 16886, Note_on_c, 0, 62, 42
2, 16886, Note_on_c, 0, 74, 41
2, 16895, Note_on_c, 0, 70, 43
2, 16899, Note_on_c, 0, 57, 33
2, 16900, Note_on_c, 0, 65, 36
2, 16902, Note_on_c, 0, 58, 38
2, 17303, Control_c, 0, 64, 127
2, 17401, Note_on_c, 0, 65, 0
2, 17421, Note_on_c, 0, 70, 0
2, 17532, Note_on_c, 0, 62, 0
2, 17537, Note_on_c, 0, 74, 0
2, 17544, Note_on_c, 0, 57, 0
2, 17558, Note_on_c, 0, 58, 0
2, 17946, Note_on_c, 0, 57, 43
2, 17979, Note_on_c, 0, 57, 0
2, 18012, Control_c, 0, 64, 0
2, 18035, Note_on_c, 0, 92, 81
2, 18035, Note_on_c, 0, 58, 65
2, 18037, Note_on_c, 0, 62, 74
2, 18039, Note_on_c, 0, 96, 88
2, 18040, Note_on_c, 0, 57, 61
2, 18045, Note_on_c, 0, 84, 72
2, 18062, Note_on_c, 0, 90, 35
2, 18080, Note_on_c, 0, 84, 0
2, 18090, Note_on_c, 0, 90, 0
2, 18124, Note_on_c, 0, 92, 0
2, 18126, Note_on_c, 0, 93, 62
2, 18184, Note_on_c, 0, 96, 0
2, 18195, Note_on_c, 0, 93, 0
2, 18217, Control_c, 0, 64, 127
2, 18262, Note_on_c, 0, 62, 0
2, 18273, Note_on_c, 0, 58, 0
2, 18279, Note_on_c, 0, 57, 0
2, 18310, Control_c, 0, 64, 0
2, 18318, Note_on_c, 0, 93, 72
2, 18326, Note_on_c, 0, 81, 67
2, 18329, Note_on_c, 0, 89, 69
2, 18338, Note_on_c, 0, 62, 55
2, 18342, Note_on_c, 0, 57, 43
2, 18353, Note_on_c, 0, 58, 56
2, 18498, Control_c, 0, 64, 127
2, 18855, Note_on_c, 0, 93, 0
2, 18862, Note_on_c, 0, 62, 0
2, 18882, Note_on_c, 0, 89, 0
2, 18898, Note_on_c, 0, 58, 0
2, 18914, Note_on_c, 0, 81, 0
2, 19019, Note_on_c, 0, 57, 0
2, 19181, Control_c, 0, 64, 0
2, 19195, Note_on_c, 0, 58, 55
2, 19195, Note_on_c, 0, 89, 64
2, 19197, Note_on_c, 0, 77, 57
2, 19207, Note_on_c, 0, 62, 42
2, 19210, Note_on_c, 0, 57, 33
2, 19224, Note_on_c, 0, 89, 0
2, 19236, Note_on_c, 0, 62, 0
2, 19238, Note_on_c, 0, 77, 0
2, 19247, Note_on_c, 0, 57, 0
2, 19265, Note_on_c, 0, 58, 0
2, 19559, Note_on_c, 0, 86, 55
2, 19573, Note_on_c, 0, 74, 49
2, 19573, Note_on_c, 0, 81, 51
2, 19576, Note_on_c, 0, 62, 50
2, 19579, Note_on_c, 0, 58, 50
2, 19607, Note_on_c, 0, 86, 0
2, 19608, Note_on_c, 0, 81, 0
2, 19753, Control_c, 0, 64, 127
2, 19788, Note_on_c, 0, 74, 0
2, 19812, Note_on_c, 0, 62, 0
2, 19874, Note_on_c, 0, 58, 0
2, 19923, Control_c, 0, 64, 0
2, 19947, Note_on_c, 0, 73, 57
2, 19958, Note_on_c, 0, 68, 56
2, 19965, Note_on_c, 0, 58, 35
2, 19975, Note_on_c, 0, 73, 0
2, 19987, Note_on_c, 0, 68, 0
2, 19993, Note_on_c, 0, 58, 0
2, 20325, Note_on_c, 0, 68, 61
2, 20327, Note_on_c, 0, 63, 52
2, 20328, Note_on_c, 0, 73, 52
2, 20334, Note_on_c, 0, 58, 48
2, 20453, Control_c, 0, 64, 127
2, 21057, Note_on_c, 0, 63, 0
2, 21088, Note_on_c, 0, 68, 0
2, 21119, Note_on_c, 0, 73, 0
2, 21135, Control_c, 0, 64, 0
2, 21170, Note_on_c, 0, 56, 30
2, 21175, Note_on_c, 0, 72, 29
2, 21187, Note_on_c, 0, 63, 10
2, 21201, Note_on_c, 0, 68, 19
2, 21299, Note_on_c, 0, 68, 0
2, 21301, Note_on_c, 0, 63, 0
2, 21330, Note_on_c, 0, 58, 0
2, 21337, Note_on_c, 0, 72, 0
2, 21384, Note_on_c, 0, 73, 62
2, 21385, Note_on_c, 0, 56, 0
2, 21392, Note_on_c, 0, 63, 49
2, 21398, Note_on_c, 0, 68, 51
2, 21398, Note_on_c, 0, 58, 62
2, 21420, Note_on_c, 0, 63, 0
2, 21427, Note_on_c, 0, 68, 0
2, 21452, Note_on_c, 0, 73, 0
2, 21468, Note_on_c, 0, 58, 0
2, 21878, Control_c, 0, 64, 127
2, 22122, Control_c, 0, 64, 0
2, 22123, Note_on_c, 0, 73, 62
2, 22124, Note_on_c, 0, 63, 59
2, 22129, Note_on_c, 0, 68, 62
2, 22147, Note_on_c, 0, 58, 45
2, 22330, Control_c, 0, 64, 127
2, 22656, Note_on_c, 0, 63, 0
2, 22681, Note_on_c, 0, 68, 0
2, 22690, Note_on_c, 0, 58, 0
2, 22747, Note_on_c, 0, 73, 0
2, 22995, Control_c, 0, 64, 0
2, 23018, Note_on_c, 0, 74, 66
2, 23031, Note_on_c, 0, 57, 35
2, 23031, Note_on_c, 0, 58, 45
2, 23031, Note_on_c, 0, 62, 37
2, 23031, Note_on_c, 0, 65, 48
2, 23353, Control_c, 0, 64, 127
2, 23810, Note_on_c, 0, 65, 0
2, 23924, Note_on_c, 0, 62, 0
2, 23941, Note_on_c, 0, 57, 0
2, 23967, Note_on_c, 0, 58, 0
2, 23977, Note_on_c, 0, 74, 0
2, 24540, Control_c, 0, 64, 0
2, 24558, Note_on_c, 0, 79, 92
2, 24563, Note_on_c, 0, 72, 95
2, 24564, Note_on_c, 0, 63, 70
2, 24571, Note_on_c, 0, 75, 74
2, 24572, Note_on_c, 0, 67, 81
2, 24575, Note_on_c, 0, 60, 72
2, 24578, Note_on_c, 0, 56, 67
2, 24599, Note_on_c, 0, 75, 0
2, 24678, Note_on_c, 0, 75, 6
2, 24694, Control_c, 0, 64, 127
2, 24879, Note_on_c, 0, 72, 0
2, 24905, Note_on_c, 0, 75, 0
2, 24911, Note_on_c, 0, 79, 0
2, 25006, Note_on_c, 0, 67, 0
2, 25031, Note_on_c, 0, 56, 0
2, 25055, Note_on_c, 0, 63, 0
2, 25073, Note_on_c, 0, 60, 0
2, 25198, Note_on_c, 0, 78, 80
2, 25198, Note_on_c, 0, 84, 87
2, 25200, Note_on_c, 0, 66, 83
2, 25207, Note_on_c, 0, 74, 62
2, 25208, Note_on_c, 0, 62, 69
2, 25213, Note_on_c, 0, 56, 56
2, 25215, Control_c, 0, 64, 0
2, 25216, Note_on_c, 0, 60, 62
2, 25220, Note_on_c, 0, 76, 54
2, 25243, Note_on_c, 0, 60, 0
2, 25249, Note_on_c, 0, 76, 0
2, 25271, Note_on_c, 0, 78, 0
2, 25292, Note_on_c, 0, 79, 29
2, 25326, Note_on_c, 0, 74, 0
2, 25326, Note_on_c, 0, 66, 0
2, 25336, Note_on_c, 0, 79, 0
2, 25339, Note_on_c, 0, 56, 0
2, 25339, Note_on_c, 0, 62, 0
2, 25386, Note_on_c, 0, 84, 0
2, 25581, Note_on_c, 0, 78, 71
2, 25589, Note_on_c, 0, 74, 62
2, 25605, Note_on_c, 0, 66, 76
2, 25611, Note_on_c, 0, 62, 57
2, 25617, Note_on_c, 0, 82, 25
2, 25618, Note_on_c, 0, 56, 55
2, 25630, Note_on_c, 0, 60, 51
2, 25640, Note_on_c, 0, 78, 0
2, 25645, Note_on_c, 0, 79, 63
2, 25646, Note_on_c, 0, 82, 0
2, 25661, Note_on_c, 0, 60, 0
2, 25700, Note_on_c, 0, 60, 19
2, 25717, Control_c, 0, 64, 127
2, 25981, Note_on_c, 0, 66, 0
2, 25983, Note_on_c, 0, 60, 0
2, 26032, Note_on_c, 0, 74, 0
2, 26042, Note_on_c, 0, 62, 0
2, 26051, Note_on_c, 0, 56, 0
2, 26052, Note_on_c, 0, 79, 0
2, 26126, Note_on_c, 0, 79, 47
2, 26127, Note_on_c, 0, 65, 51
2, 26128, Control_c, 0, 64, 0
2, 26140, Note_on_c, 0, 62, 40
2, 26142, Note_on_c, 0, 74, 33
2, 26143, Note_on_c, 0, 55, 47
2, 26146, Note_on_c, 0, 60, 48
2, 26391, Control_c, 0, 64, 127
2, 26541, Note_on_c, 0, 65, 0
2, 26545, Note_on_c, 0, 79, 0
2, 26552, Note_on_c, 0, 74, 0
2, 26574, Note_on_c, 0, 62, 0
2, 26587, Note_on_c, 0, 60, 0
2, 26697, Note_on_c, 0, 55, 0
2, 27075, Note_on_c, 0, 70, 75
2, 27087, Note_on_c, 0, 65, 64
2, 27092, Note_on_c, 0, 60, 44
2, 27093, Note_on_c, 0, 55, 63
2, 27096, Note_on_c, 0, 62, 53
2, 27125, Note_on_c, 0, 62, 0
2, 27164, Note_on_c, 0, 60, 0
2, 27176, Control_c, 0, 64, 0
2, 27177, Note_on_c, 0, 65, 0
2, 27195, Note_on_c, 0, 70, 0
2, 27200, Note_on_c, 0, 55, 0
2, 27226, Note_on_c, 0, 54, 46
2, 27469, Note_on_c, 0, 70, 61
2, 27481, Note_on_c, 0, 65, 53
2, 27485, Note_on_c, 0, 60, 36
2, 27493, Note_on_c, 0, 62, 34
2, 27509, Note_on_c, 0, 55, 55
2, 27530, Note_on_c, 0, 54, 0
2, 28064, Control_c, 0, 64, 127
2, 28148, Note_on_c, 0, 65, 0
2, 28164, Note_on_c, 0, 60, 0
2, 28184, Note_on_c, 0, 62, 0
2, 28272, Note_on_c, 0, 55, 0
2, 28329, Control_c, 0, 64, 0
2, 28364, Note_on_c, 0, 65, 46
2, 28371, Note_on_c, 0, 70, 0
2, 28383, Note_on_c, 0, 62, 41
2, 28384, Note_on_c, 0, 60, 46
2, 28400, Note_on_c, 0, 55, 41
2, 28508, Control_c, 0, 64, 127
2, 28624, Note_on_c, 0, 60, 0
2, 28652, Note_on_c, 0, 62, 0
2, 28704, Note_on_c, 0, 65, 0
2, 28747, Note_on_c, 0, 55, 0
2, 29131, Control_c, 0, 64, 0
2, 29164, Note_on_c, 0, 65, 69
2, 29164, Note_on_c, 0, 54, 57
2, 29166, Note_on_c, 0, 60, 59
2, 29170, Note_on_c, 0, 87, 75
2, 29173, Note_on_c, 0, 75, 77
2, 29174, Note_on_c, 0, 82, 69
2, 29224, Note_on_c, 0, 65, 0
2, 29225, Note_on_c, 0, 75, 0
2, 29240, Note_on_c, 0, 60, 0
2, 29246, Note_on_c, 0, 82, 0
2, 29252, Note_on_c, 0, 87, 0
2, 29253, Note_on_c, 0, 54, 0
2, 29550, Note_on_c, 0, 89, 85
2, 29552, Note_on_c, 0, 77, 74
2, 29556, Note_on_c, 0, 84, 77
2, 29559, Note_on_c, 0, 65, 78
2, 29561, Note_on_c, 0, 54, 78
2, 29562, Note_on_c, 0, 60, 71
2, 29891, Control_c, 0, 64, 127
2, 30268, Note_on_c, 0, 89, 0
2, 30292, Note_on_c, 0, 84, 0
2, 30364, Note_on_c, 0, 77, 0
2, 30379, Note_on_c, 0, 65, 0
2, 30410, Note_on_c, 0, 54, 0
2, 30527, Note_on_c, 0, 60, 0
2, 30570, Note_on_c, 0, 86, 40
2, 30573, Note_on_c, 0, 74, 38
2, 30576, Note_on_c, 0, 81, 53
2, 30579, Note_on_c, 0, 64, 44
2, 30596, Note_on_c, 0, 60, 46
2, 30596, Note_on_c, 0, 54, 44
2, 30599, Control_c, 0, 64, 0
2, 31068, Control_c, 0, 64, 127
2, 31289, Note_on_c, 0, 86, 0
2, 31359, Note_on_c, 0, 81, 0
2, 31432, Note_on_c, 0, 74, 0
2, 31758, Note_on_c, 0, 64, 0
2, 31787, Note_on_c, 0, 60, 0
2, 31838, Note_on_c, 0, 54, 0
2, 32203, Control_c, 0, 64, 0
2, 32223, Note_on_c, 0, 72, 74
2, 32224, Note_on_c, 0, 65, 79
2, 32227, Note_on_c, 0, 69, 79
2, 32234, Note_on_c, 0, 62, 64
2, 32235, Note_on_c, 0, 58, 59
2, 32236, Note_on_c, 0, 60, 68
2, 32462, Note_on_c, 0, 60, 0
2, 32471, Note_on_c, 0, 65, 0
2, 32487, Note_on_c, 0, 72, 0
2, 32488, Note_on_c, 0, 69, 0
2, 32493, Note_on_c, 0, 58, 0
2, 32506, Note_on_c, 0, 62, 0
2, 32533, Note_on_c, 0, 58, 28
2, 32548, Note_on_c, 0, 60, 54
2, 32634, Note_on_c, 0, 72, 70
2, 32638, Note_on_c, 0, 65, 69
2, 32639, Note_on_c, 0, 68, 71
2, 32645, Note_on_c, 0, 62, 72
2, 32694, Note_on_c, 0, 68, 0
2, 32709, Note_on_c, 0, 69, 48
2, 33022, Control_c, 0, 64, 127
2, 33244, Note_on_c, 0, 65, 0
2, 33283, Note_on_c, 0, 62, 0
2, 33297, Note_on_c, 0, 60, 0
2, 33339, Note_on_c, 0, 72, 0
2, 33340, Note_on_c, 0, 69, 0
2, 33363, Control_c, 0, 64, 0
2, 33371, Note_on_c, 0, 70, 31
2, 33371, Note_on_c, 0, 62, 42
2, 33376, Note_on_c, 0, 67, 54
2, 33393, Note_on_c, 0, 60, 43
2, 33547, Note_on_c, 0, 62, 0
2, 33554, Note_on_c, 0, 67, 0
2, 33567, Note_on_c, 0, 60, 0
2, 33588, Note_on_c, 0, 70, 0
2, 33637, Note_on_c, 0, 62, 40
2, 33641, Note_on_c, 0, 72, 47
2, 33641, Note_on_c, 0, 69, 58
2, 33652, Note_on_c, 0, 60, 50
2, 33654, Note_on_c, 0, 65, 45
2, 33682, Note_on_c, 0, 60, 0
2, 33684, Note_on_c, 0, 65, 0
2, 33692, Note_on_c, 0, 72, 0
2, 33693, Note_on_c, 0, 69, 0
2, 33704, Note_on_c, 0, 62, 0
2, 33722, Note_on_c, 0, 58, 0
2, 34123, Control_c, 0, 64, 127
2, 34401, Note_on_c, 0, 65, 40
2, 34401, Note_on_c, 0, 72, 47
2, 34407, Note_on_c, 0, 62, 41
2, 34409, Note_on_c, 0, 69, 35
2, 34413, Control_c, 0, 64, 0
2, 34414, Note_on_c, 0, 60, 43
2, 34417, Note_on_c, 0, 58, 35
2, 34430, Note_on_c, 0, 72, 0
2, 34432, Note_on_c, 0, 65, 0
2, 34440, Note_on_c, 0, 62, 0
2, 34442, Note_on_c, 0, 69, 0
2, 34443, Note_on_c, 0, 60, 0
2, 34474, Note_on_c, 0, 58, 0
2, 34942, Control_c, 0, 64, 127
2, 35170, Note_on_c, 0, 58, 40
2, 35233, Note_on_c, 0, 58, 0
2, 35250, Control_c, 0, 64, 0
2, 35292, Note_on_c, 0, 62, 69
2, 35294, Note_on_c, 0, 67, 88
2, 35301, Note_on_c, 0, 74, 83
2, 35301, Note_on_c, 0, 58, 44
2, 35304, Note_on_c, 0, 52, 60
2, 35651, Control_c, 0, 64, 127
2, 35836, Note_on_c, 0, 67, 0
2, 35916, Note_on_c, 0, 62, 0
2, 35951, Note_on_c, 0, 58, 0
2, 35951, Note_on_c, 0, 52, 0
2, 36006, Note_on_c, 0, 74, 0
2, 36058, Note_on_c, 0, 67, 37
2, 36070, Note_on_c, 0, 64, 38
2, 36071, Note_on_c, 0, 58, 38
2, 36075, Note_on_c, 0, 62, 46
2, 36114, Note_on_c, 0, 52, 20
2, 36215, Note_on_c, 0, 62, 0
2, 36285, Note_on_c, 0, 52, 0
2, 36290, Note_on_c, 0, 58, 0
2, 36340, Note_on_c, 0, 64, 0
2, 36340, Note_on_c, 0, 67, 0
2, 36701, Control_c, 0, 64, 0
2, 36711, Note_on_c, 0, 70, 52
2, 36721, Note_on_c, 0, 67, 32
2, 36722, Note_on_c, 0, 64, 46
2, 36729, Note_on_c, 0, 62, 38
2, 36746, Note_on_c, 0, 48, 42
2, 36751, Note_on_c, 0, 58, 37
2, 37195, Control_c, 0, 64, 127
2, 37215, Note_on_c, 0, 58, 0
2, 37217, Note_on_c, 0, 62, 0
2, 37290, Note_on_c, 0, 67, 0
2, 37357, Note_on_c, 0, 64, 0
2, 37505, Note_on_c, 0, 70, 0
2, 37562, Control_c, 0, 64, 0
2, 37579, Note_on_c, 0, 67, 37
2, 37594, Note_on_c, 0, 58, 33
2, 37604, Note_on_c, 0, 64, 35
2, 37610, Note_on_c, 0, 55, 41
2, 37673, Control_c, 0, 64, 127
2, 37753, Note_on_c, 0, 58, 0
2, 37771, Note_on_c, 0, 64, 0
2, 37774, Note_on_c, 0, 67, 0
2, 37804, Note_on_c, 0, 48, 0
2, 37807, Note_on_c, 0, 55, 0
2, 38322, Control_c, 0, 64, 0
2, 38630, Note_on_c, 0, 63, 68
2, 38635, Note_on_c, 0, 74, 69
2, 38636, Note_on_c, 0, 86, 68
2, 38644, Note_on_c, 0, 60, 54
2, 38649, Note_on_c, 0, 55, 38
2, 38650, Note_on_c, 0, 81, 36
2, 38663, Note_on_c, 0, 57, 45
2, 38664, Note_on_c, 0, 74, 0
2, 38665, Note_on_c, 0, 86, 0
2, 38673, Note_on_c, 0, 60, 0
2, 38685, Note_on_c, 0, 55, 0
2, 38686, Note_on_c, 0, 81, 0
2, 38687, Note_on_c, 0, 63, 0
2, 38697, Note_on_c, 0, 57, 0
2, 39134, Note_on_c, 0, 63, 67
2, 39142, Note_on_c, 0, 55, 54
2, 39144, Note_on_c, 0, 60, 58
2, 39145, Note_on_c, 0, 86, 78
2, 39146, Note_on_c, 0, 81, 79
2, 39148, Note_on_c, 0, 74, 74
2, 39150, Control_c, 0, 64, 127
2, 39168, Note_on_c, 0, 57, 45
2, 39496, Note_on_c, 0, 55, 0
2, 39520, Note_on_c, 0, 57, 0
2, 39521, Note_on_c, 0, 60, 0
2, 39539, Note_on_c, 0, 63, 0
2, 39561, Note_on_c, 0, 74, 0
2, 39564, Note_on_c, 0, 86, 0
2, 39579, Note_on_c, 0, 81, 0
2, 39758, Note_on_c, 0, 86, 71
2, 39762, Note_on_c, 0, 74, 62
2, 39771, Note_on_c, 0, 81, 50
2, 39774, Note_on_c, 0, 54, 72
2, 39777, Note_on_c, 0, 64, 69
2, 39777, Note_on_c, 0, 60, 67
2, 39781, Control_c, 0, 64, 0
2, 39787, Note_on_c, 0, 86, 0
2, 39791, Note_on_c, 0, 74, 0
2, 39803, Note_on_c, 0, 81, 0
2, 39806, Note_on_c, 0, 60, 0
2, 39820, Note_on_c, 0, 64, 0
2, 39852, Note_on_c, 0, 54, 0
2, 40275, Note_on_c, 0, 54, 77
2, 40277, Note_on_c, 0, 86, 80
2, 40278, Note_on_c, 0, 74, 80
2, 40279, Note_on_c, 0, 64, 69
2, 40280, Note_on_c, 0, 60, 64
2, 40280, Note_on_c, 0, 81, 77
2, 40575, Control_c, 0, 64, 127
2, 40695, Note_on_c, 0, 86, 0
2, 40740, Note_on_c, 0, 64, 0
2, 40743, Note_on_c, 0, 81, 0
2, 40744, Note_on_c, 0, 60, 0
2, 40754, Note_on_c, 0, 54, 0
2, 40763, Note_on_c, 0, 74, 0
2, 40888, Note_on_c, 0, 84, 66
2, 40898, Note_on_c, 0, 72, 42
2, 40899, Note_on_c, 0, 79, 57
2, 40911, Note_on_c, 0, 64, 62
2, 40911, Note_on_c, 0, 60, 64
2, 40914, Note_on_c, 0, 54, 64
2, 40941, Control_c, 0, 64, 0
2, 41070, Control_c, 0, 64, 127
2, 41127, Note_on_c, 0, 60, 0
2, 41156, Note_on_c, 0, 64, 0
2, 41235, Note_on_c, 0, 72, 0
2, 41245, Note_on_c, 0, 79, 0
2, 41247, Note_on_c, 0, 84, 0
2, 41258, Note_on_c, 0, 54, 0
2, 41394, Control_c, 0, 64, 0
2, 41402, Note_on_c, 0, 62, 36
2, 41430, Note_on_c, 0, 72, 55
2, 41430, Note_on_c, 0, 84, 58
2, 41430, Note_on_c, 0, 58, 44
2, 41430, Note_on_c, 0, 81, 53
2, 41430, Note_on_c, 0, 60, 50
2, 41620, Control_c, 0, 64, 127
2, 41681, Note_on_c, 0, 84, 0
2, 41717, Note_on_c, 0, 81, 0
2, 41758, Note_on_c, 0, 72, 0
2, 41816, Note_on_c, 0, 62, 0
2, 41820, Note_on_c, 0, 60, 0
2, 41870, Note_on_c, 0, 58, 0
2, 42174, Note_on_c, 0, 62, 36
2, 42179, Control_c, 0, 64, 0
2, 42180, Note_on_c, 0, 70, 49
2, 42190, Note_on_c, 0, 58, 31
2, 42192, Note_on_c, 0, 60, 43
2, 42198, Note_on_c, 0, 67, 38
2, 42316, Control_c, 0, 64, 127
2, 42458, Note_on_c, 0, 62, 0
2, 42459, Note_on_c, 0, 60, 0
2, 42544, Note_on_c, 0, 58, 0
2, 42567, Note_on_c, 0, 67, 0
2, 42590, Note_on_c, 0, 70, 0
2, 42898, Note_on_c, 0, 53, 25
2, 42925, Note_on_c, 0, 54, 49
2, 42927, Note_on_c, 0, 53, 0
2, 42956, Control_c, 0, 64, 0
2, 42956, Note_on_c, 0, 55, 64
2, 42975, Note_on_c, 0, 70, 67
2, 42975, Note_on_c, 0, 60, 45
2, 42996, Note_on_c, 0, 65, 22
2, 43007, Note_on_c, 0, 54, 0
2, 43039, Note_on_c, 0, 60, 0
2, 43039, Note_on_c, 0, 65, 0
2, 43053, Note_on_c, 0, 70, 0
2, 43058, Note_on_c, 0, 55, 0
2, 43357, Note_on_c, 0, 69, 52
2, 43357, Note_on_c, 0, 64, 45
2, 43359, Note_on_c, 0, 54, 46
2, 43360, Note_on_c, 0, 59, 40
2, 43488, Note_on_c, 0, 69, 0
2, 43493, Note_on_c, 0, 59, 0
2, 43532, Note_on_c, 0, 64, 0
2, 43618, Note_on_c, 0, 70, 54
2, 43628, Note_on_c, 0, 65, 45
2, 43632, Note_on_c, 0, 60, 39
2, 43647, Note_on_c, 0, 55, 54
2, 43651, Note_on_c, 0, 54, 0
2, 43839, Control_c, 0, 64, 127
2, 44000, Note_on_c, 0, 60, 0
2, 44015, Note_on_c, 0, 55, 0
2, 44061, Note_on_c, 0, 65, 0
2, 44122, Note_on_c, 0, 70, 0
2, 44474, Control_c, 0, 64, 0
2, 44492, Note_on_c, 0, 67, 81
2, 44492, Note_on_c, 0, 74, 83
2, 44497, Note_on_c, 0, 63, 79
2, 44502, Note_on_c, 0, 62, 87
2, 44875, Control_c, 0, 64, 127
2, 45395, Note_on_c, 0, 63, 0
2, 45420, Note_on_c, 0, 67, 0
2, 45445, Note_on_c, 0, 74, 0
2, 45521, Note_on_c, 0, 72, 55
2, 45526, Note_on_c, 0, 63, 52
2, 45536, Note_on_c, 0, 62, 0
2, 45542, Note_on_c, 0, 67, 36
2, 45543, Note_on_c, 0, 60, 58
2, 45677, Note_on_c, 0, 63, 0
2, 45678, Note_on_c, 0, 67, 0
2, 45731, Note_on_c, 0, 72, 0
2, 45865, Note_on_c, 0, 60, 0
2, 46036, Control_c, 0, 64, 0
2, 46037, Note_on_c, 0, 77, 61
2, 46042, Note_on_c, 0, 70, 44
2, 46043, Note_on_c, 0, 74, 45
2, 46052, Note_on_c, 0, 54, 55
2, 46053, Note_on_c, 0, 65, 40
2, 46058, Note_on_c, 0, 60, 42
2, 46343, Control_c, 0, 64, 127
2, 46744, Note_on_c, 0, 60, 0
2, 46749, Note_on_c, 0, 74, 0
2, 46754, Note_on_c, 0, 77, 0
2, 46768, Note_on_c, 0, 54, 0
2, 46808, Note_on_c, 0, 65, 0
2, 46819, Note_on_c, 0, 70, 0
2, 47037, Note_on_c, 0, 70, 51
2, 47038, Note_on_c, 0, 74, 49
2, 47045, Note_on_c, 0, 65, 44
2, 47059, Note_on_c, 0, 54, 49
2, 47062, Note_on_c, 0, 60, 51
2, 47076, Control_c, 0, 64, 0
2, 47222, Control_c, 0, 64, 127
2, 47321, Note_on_c, 0, 60, 0
2, 47370, Note_on_c, 0, 65, 0
2, 47379, Note_on_c, 0, 54, 0
2, 47435, Note_on_c, 0, 74, 0
2, 47448, Note_on_c, 0, 70, 0
2, 47543, Note_on_c, 0, 62, 38
2, 47553, Note_on_c, 0, 60, 44
2, 47566, Note_on_c, 0, 69, 44
2, 47566, Note_on_c, 0, 72, 47
2, 47566, Control_c, 0, 64, 0
2, 47568, Note_on_c, 0, 58, 35
2, 47767, Note_on_c, 0, 69, 0
2, 47770, Note_on_c, 0, 60, 0
2, 47772, Note_on_c, 0, 72, 0
2, 47808, Note_on_c, 0, 62, 0
2, 47828, Note_on_c, 0, 70, 32
2, 47850, Note_on_c, 0, 67, 33
2, 47883, Note_on_c, 0, 58, 0
2, 47901, Note_on_c, 0, 70, 0
2, 47910, Note_on_c, 0, 67, 0
2, 47951, Note_on_c, 0, 62, 33
2, 47959, Note_on_c, 0, 58, 19
2, 47960, Note_on_c, 0, 69, 41
2, 47962, Note_on_c, 0, 72, 38
2, 47968, Note_on_c, 0, 60, 34
2, 48142, Note_on_c, 0, 60, 0
2, 48150, Note_on_c, 0, 62, 0
2, 48175, Note_on_c, 0, 72, 0
2, 48175, Note_on_c, 0, 69, 0
2, 48233, Note_on_c, 0, 70, 33
2, 48243, Note_on_c, 0, 62, 37
2, 48267, Note_on_c, 0, 70, 0
2, 48267, Note_on_c, 0, 60, 30
2, 48297, Note_on_c, 0, 60, 0
2, 48299, Note_on_c, 0, 62, 0
2, 48327, Note_on_c, 0, 58, 0
2, 48726, Control_c, 0, 64, 127
2, 48969, Note_on_c, 0, 84, 77
2, 48977, Note_on_c, 0, 77, 53
2, 48978, Note_on_c, 0, 72, 55
2, 48979, Note_on_c, 0, 58, 58
2, 48980, Note_on_c, 0, 62, 61
2, 48985, Note_on_c, 0, 60, 60
2, 48991, Control_c, 0, 64, 0
2, 49007, Note_on_c, 0, 72, 0
2, 49008, Note_on_c, 0, 77, 0
2, 49009, Note_on_c, 0, 62, 0
2, 49014, Note_on_c, 0, 60, 0
2, 49017, Note_on_c, 0, 84, 0
2, 49037, Note_on_c, 0, 58, 0
2, 49359, Note_on_c, 0, 82, 75
2, 49364, Note_on_c, 0, 70, 73
2, 49369, Note_on_c, 0, 77, 71
2, 49375, Note_on_c, 0, 62, 71
2, 49376, Note_on_c, 0, 58, 59
2, 49381, Note_on_c, 0, 60, 65
2, 49553, Control_c, 0, 64, 127
2, 49778, Note_on_c, 0, 62, 0
2, 49788, Note_on_c, 0, 77, 0
2, 49793, Control_c, 0, 64, 0
2, 49796, Note_on_c, 0, 60, 0
2, 49803, Note_on_c, 0, 58, 0
2, 49805, Note_on_c, 0, 82, 0
2, 49816, Note_on_c, 0, 70, 0
2, 49868, Note_on_c, 0, 62, 48
2, 49878, Note_on_c, 0, 81, 62
2, 49885, Note_on_c, 0, 76, 42
2, 49887, Note_on_c, 0, 58, 46
2, 49889, Note_on_c, 0, 60, 60
2, 49897, Note_on_c, 0, 69, 30
2, 49918, Note_on_c, 0, 60, 0
2, 49940, Note_on_c, 0, 69, 0
2, 49952, Note_on_c, 0, 62, 0
2, 49960, Note_on_c, 0, 81, 0
2, 49961, Note_on_c, 0, 58, 0
2, 49973, Note_on_c, 0, 76, 0
2, 50232, Note_on_c, 0, 82, 65
2, 50243, Note_on_c, 0, 70, 56
2, 50246, Note_on_c, 0, 58, 58
2, 50249, Note_on_c, 0, 76, 55
2, 50262, Note_on_c, 0, 62, 41
2, 50280, Note_on_c, 0, 76, 0
2, 50292, Note_on_c, 0, 62, 0
2, 50302, Note_on_c, 0, 70, 0
2, 50315, Note_on_c, 0, 82, 0
2, 50332, Note_on_c, 0, 58, 0
2, 50382, Control_c, 0, 64, 127
2, 50604, Control_c, 0, 64, 0
2, 50612, Note_on_c, 0, 62, 54
2, 50617, Note_on_c, 0, 79, 66
2, 50666, Note_on_c, 0, 67, 66
2, 50666, Note_on_c, 0, 51, 39
2, 50666, Note_on_c, 0, 55, 46
2, 50954, Control_c, 0, 64, 127
2, 51087, Note_on_c, 0, 62, 0
2, 51131, Note_on_c, 0, 67, 0
2, 51378, Note_on_c, 0, 79, 0
2, 51398, Note_on_c, 0, 67, 44
2, 51399, Note_on_c, 0, 72, 47
2, 51417, Note_on_c, 0, 62, 35
2, 51586, Note_on_c, 0, 67, 0
2, 51643, Note_on_c, 0, 55, 0
2, 51653, Note_on_c, 0, 72, 0
2, 51677, Note_on_c, 0, 51, 0
2, 51681, Note_on_c, 0, 62, 0
2, 52080, Control_c, 0, 64, 0
2, 52423, Note_on_c, 0, 91, 68
2, 52425, Note_on_c, 0, 54, 73
2, 52427, Note_on_c, 0, 64, 71
2, 52431, Note_on_c, 0, 79, 56
2, 52439, Note_on_c, 0, 60, 51
2, 52448, Note_on_c, 0, 84, 29
2, 52452, Note_on_c, 0, 91, 0
2, 52454, Note_on_c, 0, 54, 0
2, 52456, Note_on_c, 0, 64, 0
2, 52460, Note_on_c, 0, 79, 0
2, 52469, Note_on_c, 0, 60, 0
2, 52476, Note_on_c, 0, 84, 0
2, 52575, Control_c, 0, 64, 127
2, 52690, Note_on_c, 0, 54, 83
2, 52691, Note_on_c, 0, 91, 77
2, 52694, Note_on_c, 0, 79, 77
2, 52696, Note_on_c, 0, 64, 72
2, 52698, Note_on_c, 0, 60, 72
2, 52705, Note_on_c, 0, 84, 66
2, 52713, Note_on_c, 0, 88, 49
2, 52734, Note_on_c, 0, 84, 0
2, 52744, Note_on_c, 0, 88, 0
2, 52798, Note_on_c, 0, 79, 0
2, 52828, Note_on_c, 0, 91, 0
2, 52846, Note_on_c, 0, 54, 0
2, 52849, Note_on_c, 0, 64, 0
2, 52881, Note_on_c, 0, 60, 0
2, 52891, Control_c, 0, 64, 0
2, 52943, Note_on_c, 0, 91, 70
2, 52948, Note_on_c, 0, 54, 76
2, 52950, Note_on_c, 0, 79, 60
2, 52952, Note_on_c, 0, 64, 60
2, 52957, Note_on_c, 0, 60, 70
2, 52966, Note_on_c, 0, 84, 52
2, 52976, Control_c, 0, 64, 127
2, 53080, Note_on_c, 0, 91, 0
2, 53090, Note_on_c, 0, 79, 0
2, 53096, Note_on_c, 0, 64, 0
2, 53103, Note_on_c, 0, 54, 0
2, 53104, Note_on_c, 0, 84, 0
2, 53136, Note_on_c, 0, 60, 0
2, 53212, Note_on_c, 0, 84, 60
2, 53213, Note_on_c, 0, 89, 65
2, 53215, Control_c, 0, 64, 0
2, 53221, Note_on_c, 0, 54, 71
2, 53224, Note_on_c, 0, 77, 48
2, 53225, Note_on_c, 0, 60, 36
2, 53230, Note_on_c, 0, 64, 53
2, 53343, Control_c, 0, 64, 127
2, 53425, Note_on_c, 0, 89, 0
2, 53434, Note_on_c, 0, 84, 0
2, 53465, Note_on_c, 0, 60, 0
2, 53465, Note_on_c, 0, 77, 0
2, 53473, Note_on_c, 0, 64, 0
2, 53555, Note_on_c, 0, 54, 0
2, 53684, Control_c, 0, 64, 0
2, 53701, Note_on_c, 0, 62, 48
2, 53701, Note_on_c, 0, 86, 49
2, 53701, Note_on_c, 0, 57, 41
2, 53702, Note_on_c, 0, 74, 38
2, 53706, Note_on_c, 0, 81, 56
2, 53707, Note_on_c, 0, 58, 32
2, 53723, Note_on_c, 0, 55, 43
2, 54009, Control_c, 0, 64, 127
2, 54110, Note_on_c, 0, 57, 0
2, 54128, Note_on_c, 0, 62, 0
2, 54142, Note_on_c, 0, 58, 0
2, 54143, Note_on_c, 0, 86, 0
2, 54158, Note_on_c, 0, 81, 0
2, 54223, Note_on_c, 0, 55, 0
2, 54237, Note_on_c, 0, 74, 0
2, 54452, Control_c, 0, 64, 0
2, 54468, Note_on_c, 0, 62, 36
2, 54469, Note_on_c, 0, 84, 52
2, 54479, Note_on_c, 0, 58, 33
2, 54479, Note_on_c, 0, 72, 37
2, 54482, Note_on_c, 0, 79, 46
2, 54491, Note_on_c, 0, 57, 34
2, 54492, Note_on_c, 0, 55, 42
2, 54588, Control_c, 0, 64, 127
2, 54672, Note_on_c, 0, 84, 0
2, 54727, Note_on_c, 0, 79, 0
2, 54780, Note_on_c, 0, 72, 0
2, 54788, Note_on_c, 0, 62, 0
2, 54814, Note_on_c, 0, 57, 0
2, 54864, Note_on_c, 0, 58, 0
2, 54884, Note_on_c, 0, 55, 0
2, 55491, Note_on_c, 0, 73, 74
2, 55491, Note_on_c, 0, 68, 67
2, 55496, Note_on_c, 0, 64, 61
2, 55499, Note_on_c, 0, 70, 59
2, 55508, Note_on_c, 0, 61, 73
2, 55519, Control_c, 0, 64, 0
2, 55707, Control_c, 0, 64, 127
2, 55980, Control_c, 0, 64, 0
2, 56014, Control_c, 0, 64, 127
2, 56183, Note_on_c, 0, 64, 0
2, 56186, Note_on_c, 0, 70, 0
2, 56219, Note_on_c, 0, 68, 0
2, 56240, Note_on_c, 0, 73, 0
2, 56240, Note_on_c, 0, 61, 0
2, 56245, Note_on_c, 0, 58, 46
2, 56338, Control_c, 0, 64, 0
2, 56380, Note_on_c, 0, 64, 51
2, 56384, Note_on_c, 0, 72, 52
2, 56393, Note_on_c, 0, 60, 50
2, 56401, Note_on_c, 0, 70, 34
2, 56413, Note_on_c, 0, 67, 33
2, 56419, Note_on_c, 0, 58, 0
2, 56466, Control_c, 0, 64, 127
2, 56525, Note_on_c, 0, 72, 0
2, 56630, Note_on_c, 0, 64, 0
2, 56641, Note_on_c, 0, 70, 0
2, 56658, Note_on_c, 0, 67, 0
2, 56696, Note_on_c, 0, 60, 0
2, 56697, Note_on_c, 0, 56, 25
2, 56748, Control_c, 0, 64, 0
2, 56776, Note_on_c, 0, 74, 67
2, 56778, Note_on_c, 0, 67, 43
2, 56783, Note_on_c, 0, 63, 52
2, 56785, Note_on_c, 0, 56, 0
2, 56797, Note_on_c, 0, 62, 58
2, 57123, Control_c, 0, 64, 127
2, 57301, Note_on_c, 0, 67, 0
2, 57320, Note_on_c, 0, 63, 0
2, 57455, Note_on_c, 0, 74, 0
2, 57517, Note_on_c, 0, 67, 35
2, 57664, Note_on_c, 0, 63, 49
2, 57810, Note_on_c, 0, 63, 0
2, 57825, Note_on_c, 0, 67, 0
2, 57833, Note_on_c, 0, 62, 0
2, 58301, Control_c, 0, 64, 0
2, 58518, Note_on_c, 0, 66, 60
2, 58524, Note_on_c, 0, 74, 52
2, 58525, Note_on_c, 0, 54, 60
2, 58526, Note_on_c, 0, 60, 66
2, 58530, Note_on_c, 0, 70, 37
2, 58547, Note_on_c, 0, 66, 0
2, 58553, Note_on_c, 0, 54, 0
2, 58555, Note_on_c, 0, 74, 0
2, 58555, Note_on_c, 0, 60, 0
2, 58559, Note_on_c, 0, 70, 0
2, 58805, Note_on_c, 0, 54, 62
2, 58805, Note_on_c, 0, 74, 64
2, 58805, Note_on_c, 0, 60, 72
2, 58805, Note_on_c, 0, 66, 64
2, 58807, Note_on_c, 0, 70, 57
2, 58833, Note_on_c, 0, 50, 31
2, 58834, Note_on_c, 0, 60, 0
2, 58835, Note_on_c, 0, 66, 0
2, 58849, Note_on_c, 0, 70, 0
2, 58859, Note_on_c, 0, 74, 0
2, 58861, Note_on_c, 0, 54, 0
2, 58866, Note_on_c, 0, 50, 0
2, 59084, Note_on_c, 0, 74, 71
2, 59085, Note_on_c, 0, 66, 75
2, 59086, Note_on_c, 0, 70, 69
2, 59089, Note_on_c, 0, 54, 63
2, 59093, Note_on_c, 0, 60, 74
2, 59101, Note_on_c, 0, 50, 62
2, 59334, Control_c, 0, 64, 127
2, 59425, Note_on_c, 0, 70, 0
2, 59429, Note_on_c, 0, 66, 0
2, 59461, Note_on_c, 0, 54, 0
2, 59461, Note_on_c, 0, 50, 0
2, 59461, Note_on_c, 0, 66, 21
2, 59472, Note_on_c, 0, 70, 33
2, 59484, Note_on_c, 0, 74, 0
2, 59526, Note_on_c, 0, 60, 0
2, 59564, Note_on_c, 0, 66, 0
2, 59580, Note_on_c, 0, 70, 0
2, 59711, Note_on_c, 0, 69, 80
2, 59714, Note_on_c, 0, 72, 74
2, 59716, Note_on_c, 0, 65, 76
2, 59718, Control_c, 0, 64, 0
2, 59726, Note_on_c, 0, 62, 74
2, 59732, Note_on_c, 0, 58, 59
2, 59735, Note_on_c, 0, 60, 67
2, 60223, Control_c, 0, 64, 127
2, 60682, Note_on_c, 0, 69, 0
2, 60778, Note_on_c, 0, 60, 0
2, 60796, Note_on_c, 0, 62, 0
2, 60802, Note_on_c, 0, 72, 0
2, 60840, Note_on_c, 0, 65, 0
2, 60861, Note_on_c, 0, 58, 0
2, 60971, Control_c, 0, 64, 0
2, 60984, Note_on_c, 0, 58, 44
2, 60984, Note_on_c, 0, 70, 47
2, 60986, Note_on_c, 0, 62, 40
2, 60988, Note_on_c, 0, 67, 48
2, 60997, Note_on_c, 0, 60, 44
2, 61027, Note_on_c, 0, 60, 0
2, 61066, Note_on_c, 0, 67, 0
2, 61068, Note_on_c, 0, 62, 0
2, 61081, Note_on_c, 0, 58, 0
2, 61095, Note_on_c, 0, 70, 0
2, 61363, Note_on_c, 0, 65, 34
2, 61370, Note_on_c, 0, 62, 40
2, 61374, Note_on_c, 0, 58, 36
2, 61388, Note_on_c, 0, 69, 44
2, 61388, Note_on_c, 0, 60, 42
2, 61706, Control_c, 0, 64, 127
2, 61774, Note_on_c, 0, 62, 0
2, 61803, Note_on_c, 0, 60, 0
2, 61840, Note_on_c, 0, 58, 0
2, 61876, Note_on_c, 0, 69, 0
2, 61878, Note_on_c, 0, 65, 0
2, 62014, Control_c, 0, 64, 0
2, 62025, Note_on_c, 0, 67, 50
2, 62026, Note_on_c, 0, 70, 46
2, 62043, Note_on_c, 0, 58, 37
2, 62045, Note_on_c, 0, 62, 34
2, 62055, Note_on_c, 0, 60, 44
2, 62150, Note_on_c, 0, 60, 0
2, 62150, Control_c, 0, 64, 127
2, 62194, Note_on_c, 0, 62, 0
2, 62251, Note_on_c, 0, 67, 0
2, 62253, Note_on_c, 0, 58, 0
2, 62294, Note_on_c, 0, 70, 0
2, 62869, Note_on_c, 0, 85, 49
2, 62870, Note_on_c, 0, 70, 34
2, 62876, Note_on_c, 0, 61, 25
2, 62883, Control_c, 0, 64, 0
2, 62884, Note_on_c, 0, 51, 33
2, 62888, Note_on_c, 0, 58, 35
2, 62908, Note_on_c, 0, 56, 34
2, 63884, Note_on_c, 0, 58, 0
2, 63948, Note_on_c, 0, 61, 0
2, 63964, Note_on_c, 0, 70, 0
2, 64028, Note_on_c, 0, 61, 20
2, 64032, Note_on_c, 0, 82, 46
2, 64042, Note_on_c, 0, 85, 0
2, 64047, Note_on_c, 0, 58, 20
2, 64060, Note_on_c, 0, 70, 18
2, 64120, Note_on_c, 0, 70, 0
2, 64130, Note_on_c, 0, 82, 0
2, 64134, Note_on_c, 0, 58, 0
2, 64135, Note_on_c, 0, 61, 0
2, 64142, Note_on_c, 0, 56, 0
2, 64163, Note_on_c, 0, 51, 0
2, 64407, Note_on_c, 0, 85, 54
2, 64408, Note_on_c, 0, 70, 44
2, 64420, Note_on_c, 0, 61, 40
2, 64426, Note_on_c, 0, 58, 33
2, 64444, Note_on_c, 0, 51, 32
2, 64444, Note_on_c, 0, 56, 33
2, 64867, Note_on_c, 0, 56, 0
2, 64874, Note_on_c, 0, 58, 0
2, 64898, Note_on_c, 0, 61, 0
2, 64918, Note_on_c, 0, 70, 0
2, 65076, Note_on_c, 0, 82, 44
2, 65083, Note_on_c, 0, 61, 37
2, 65086, Note_on_c, 0, 70, 37
2, 65104, Note_on_c, 0, 56, 30
2, 65118, Note_on_c, 0, 85, 0
2, 65118, Note_on_c, 0, 58, 25
2, 65151, Note_on_c, 0, 70, 0
2, 65156, Note_on_c, 0, 58, 0
2, 65158, Note_on_c, 0, 82, 0
2, 65164, Note_on_c, 0, 61, 0
2, 65171, Note_on_c, 0, 56, 0
2, 65193, Note_on_c, 0, 51, 0
2, 65984, Note_on_c, 0, 65, 33
2, 65984, Note_on_c, 0, 74, 35
2, 65984, Note_on_c, 0, 62, 31
2, 65998, Note_on_c, 0, 58, 26
2, 66001, Note_on_c, 0, 60, 40
2, 66007, Note_on_c, 0, 69, 37
2, 66152, Control_c, 0, 64, 127
2, 66245, Note_on_c, 0, 65, 0
2, 66268, Note_on_c, 0, 60, 0
2, 66275, Note_on_c, 0, 62, 0
2, 66282, Note_on_c, 0, 69, 0
2, 66331, Note_on_c, 0, 58, 0
2, 66341, Note_on_c, 0, 74, 0
2, 66996, Control_c, 0, 64, 0
2, 67002, Note_on_c, 0, 93, 77
2, 67004, Note_on_c, 0, 58, 57
2, 67006, Note_on_c, 0, 57, 62
2, 67007, Note_on_c, 0, 81, 65
2, 67013, Note_on_c, 0, 62, 51
2, 67031, Note_on_c, 0, 93, 0
2, 67035, Note_on_c, 0, 57, 0
2, 67036, Note_on_c, 0, 81, 0
2, 67042, Note_on_c, 0, 62, 0
2, 67065, Note_on_c, 0, 58, 0
2, 67511, Note_on_c, 0, 89, 76
2, 67516, Note_on_c, 0, 57, 57
2, 67517, Control_c, 0, 64, 127
2, 67518, Note_on_c, 0, 62, 55
2, 67519, Note_on_c, 0, 77, 67
2, 67521, Note_on_c, 0, 58, 39
2, 67763, Note_on_c, 0, 89, 0
2, 67846, Note_on_c, 0, 77, 0
2, 67869, Note_on_c, 0, 62, 0
2, 67954, Note_on_c, 0, 57, 0
2, 67955, Note_on_c, 0, 58, 0
2, 68146, Note_on_c, 0, 86, 72
2, 68154, Note_on_c, 0, 74, 68
2, 68155, Note_on_c, 0, 62, 60
2, 68156, Note_on_c, 0, 58, 56
2, 68160, Note_on_c, 0, 57, 49
2, 68183, Control_c, 0, 64, 0
2, 68285, Control_c, 0, 64, 127
2, 68292, Note_on_c, 0, 86, 0
2, 68336, Note_on_c, 0, 74, 0
2, 68390, Note_on_c, 0, 57, 0
2, 68406, Note_on_c, 0, 62, 0
2, 68453, Note_on_c, 0, 58, 0
2, 68648, Note_on_c, 0, 82, 60
2, 68656, Note_on_c, 0, 61, 52
2, 68656, Note_on_c, 0, 51, 45
2, 68659, Note_on_c, 0, 70, 51
2, 68660, Note_on_c, 0, 58, 43
2, 68661, Control_c, 0, 64, 0
2, 68679, Note_on_c, 0, 56, 36
2, 68968, Control_c, 0, 64, 127
2, 69313, Note_on_c, 0, 82, 0
2, 69421, Note_on_c, 0, 70, 0
2, 69569, Note_on_c, 0, 58, 0
2, 69576, Note_on_c, 0, 61, 0
2, 69792, Note_on_c, 0, 78, 46
2, 69793, Note_on_c, 0, 66, 42
2, 69804, Control_c, 0, 64, 0
2, 69815, Note_on_c, 0, 61, 38
2, 69817, Note_on_c, 0, 58, 23
2, 69835, Note_on_c, 0, 73, 33
2, 70103, Control_c, 0, 64, 127
2, 70261, Note_on_c, 0, 73, 0
2, 70267, Note_on_c, 0, 78, 0
2, 70286, Note_on_c, 0, 66, 0
2, 70331, Note_on_c, 0, 61, 0
2, 70346, Note_on_c, 0, 58, 0
2, 70352, Note_on_c, 0, 56, 0
2, 70381, Note_on_c, 0, 51, 0
2, 70555, Note_on_c, 0, 75, 51
2, 70561, Note_on_c, 0, 61, 40
2, 70567, Note_on_c, 0, 51, 36
2, 70567, Note_on_c, 0, 63, 36
2, 70572, Control_c, 0, 64, 0
2, 70578, Note_on_c, 0, 58, 33
2, 70583, Note_on_c, 0, 70, 46
2, 70603, Note_on_c, 0, 56, 25
2, 70863, Control_c, 0, 64, 127
2, 70872, Note_on_c, 0, 61, 0
2, 70932, Note_on_c, 0, 75, 0
2, 70984, Note_on_c, 0, 70, 0
2, 71022, Note_on_c, 0, 63, 0
2, 71065, Note_on_c, 0, 58, 0
2, 71065, Note_on_c, 0, 51, 0
2, 71067, Note_on_c, 0, 56, 0
2, 71187, Note_on_c, 0, 73, 48
2, 71216, Note_on_c, 0, 61, 39
2, 71216, Note_on_c, 0, 68, 50
2, 71221, Control_c, 0, 64, 0
2, 71222, Note_on_c, 0, 51, 37
2, 71224, Note_on_c, 0, 58, 34
2, 71238, Note_on_c, 0, 56, 32
2, 71323, Control_c, 0, 64, 127
2, 71645, Note_on_c, 0, 51, 0
2, 71679, Note_on_c, 0, 61, 0
2, 71709, Note_on_c, 0, 58, 0
2, 71709, Note_on_c, 0, 68, 0
2, 71733, Note_on_c, 0, 56, 0
2, 71750, Note_on_c, 0, 73, 0
2, 72108, Control_c, 0, 64, 0
2, 72118, Note_on_c, 0, 70, 37
2, 72119, Note_on_c, 0, 60, 48
2, 72127, Note_on_c, 0, 65, 48
2, 72135, Note_on_c, 0, 55, 42
2, 72396, Note_on_c, 0, 65, 0
2, 72422, Note_on_c, 0, 60, 0
2, 72424, Note_on_c, 0, 70, 0
2, 72509, Note_on_c, 0, 55, 0
2, 72517, Note_on_c, 0, 54, 40
2, 72530, Note_on_c, 0, 69, 34
2, 72535, Note_on_c, 0, 59, 26
2, 72544, Control_c, 0, 64, 127
2, 72570, Note_on_c, 0, 64, 26
2, 72611, Note_on_c, 0, 69, 0
2, 72631, Note_on_c, 0, 59, 0
2, 72669, Note_on_c, 0, 64, 0
2, 72782, Note_on_c, 0, 70, 57
2, 72787, Note_on_c, 0, 60, 55
2, 72795, Note_on_c, 0, 65, 44
2, 72799, Control_c, 0, 64, 0
2, 72811, Note_on_c, 0, 55, 52
2, 72812, Note_on_c, 0, 54, 0
2, 72816, Note_on_c, 0, 60, 0
2, 72825, Note_on_c, 0, 65, 0
2, 72847, Note_on_c, 0, 70, 0
2, 72855, Note_on_c, 0, 55, 0
2, 73365, Control_c, 0, 64, 127
2, 73648, Control_c, 0, 64, 0
2, 73648, Note_on_c, 0, 63, 64
2, 73648, Note_on_c, 0, 91, 78
2, 73649, Note_on_c, 0, 87, 82
2, 73650, Note_on_c, 0, 67, 71
2, 73651, Note_on_c, 0, 79, 76
2, 73652, Note_on_c, 0, 56, 64
2, 73657, Note_on_c, 0, 85, 67
2, 73659, Note_on_c, 0, 60, 70
2, 73708, Note_on_c, 0, 85, 0
2, 73731, Note_on_c, 0, 87, 0
2, 73734, Note_on_c, 0, 88, 71
2, 73758, Note_on_c, 0, 89, 15
2, 73779, Note_on_c, 0, 79, 0
2, 73785, Note_on_c, 0, 91, 0
2, 73790, Note_on_c, 0, 88, 0
2, 73946, Note_on_c, 0, 91, 1
2, 73960, Control_c, 0, 64, 127
2, 74038, Note_on_c, 0, 91, 0
2, 74050, Note_on_c, 0, 89, 0
2, 74128, Note_on_c, 0, 67, 0
2, 74154, Note_on_c, 0, 56, 0
2, 74179, Note_on_c, 0, 63, 0
2, 74200, Note_on_c, 0, 60, 0
2, 74262, Note_on_c, 0, 89, 76
2, 74267, Note_on_c, 0, 66, 75
2, 74268, Note_on_c, 0, 85, 71
2, 74268, Note_on_c, 0, 77, 68
2, 74286, Note_on_c, 0, 56, 57
2, 74286, Note_on_c, 0, 62, 60
2, 74287, Control_c, 0, 64, 0
2, 74293, Note_on_c, 0, 60, 60
2, 74423, Control_c, 0, 64, 127
2, 74440, Note_on_c, 0, 86, 27
2, 74464, Note_on_c, 0, 85, 0
2, 74501, Note_on_c, 0, 86, 0
2, 74511, Note_on_c, 0, 89, 0
2, 74526, Note_on_c, 0, 60, 0
2, 74529, Note_on_c, 0, 62, 0
2, 74556, Note_on_c, 0, 66, 0
2, 74573, Note_on_c, 0, 77, 0
2, 74593, Note_on_c, 0, 56, 0
2, 74700, Note_on_c, 0, 62, 42
2, 74740, Note_on_c, 0, 62, 0
2, 74747, Control_c, 0, 64, 0
2, 74785, Note_on_c, 0, 86, 71
2, 74790, Note_on_c, 0, 74, 62
2, 74800, Note_on_c, 0, 66, 72
2, 74803, Note_on_c, 0, 62, 38
2, 74811, Note_on_c, 0, 56, 60
2, 74845, Note_on_c, 0, 60, 31
2, 74867, Control_c, 0, 64, 127
2, 74889, Note_on_c, 0, 60, 0
2, 74975, Note_on_c, 0, 66, 0
2, 75005, Note_on_c, 0, 74, 0
2, 75016, Note_on_c, 0, 56, 0
2, 75018, Note_on_c, 0, 86, 0
2, 75072, Note_on_c, 0, 62, 0
2, 75073, Note_on_c, 0, 62, 22
2, 75077, Note_on_c, 0, 65, 60
2, 75078, Note_on_c, 0, 74, 36
2, 75080, Note_on_c, 0, 82, 49
2, 75083, Note_on_c, 0, 79, 38
2, 75088, Note_on_c, 0, 60, 38
2, 75105, Note_on_c, 0, 55, 55
2, 75106, Control_c, 0, 64, 0
2, 75592, Control_c, 0, 64, 127
2, 75769, Note_on_c, 0, 65, 0
2, 75788, Note_on_c, 0, 79, 0
2, 75795, Note_on_c, 0, 82, 0
2, 75830, Note_on_c, 0, 62, 0
2, 75831, Note_on_c, 0, 74, 0
2, 75840, Note_on_c, 0, 60, 0
2, 75897, Note_on_c, 0, 55, 0
2, 76257, Control_c, 0, 64, 0
2, 76341, Note_on_c, 0, 70, 55
2, 76341, Note_on_c, 0, 62, 34
2, 76342, Note_on_c, 0, 65, 34
2, 76342, Note_on_c, 0, 55, 47
2, 76346, Note_on_c, 0, 60, 33
2, 76511, Note_on_c, 0, 60, 0
2, 76518, Note_on_c, 0, 70, 0
2, 76520, Note_on_c, 0, 55, 0
2, 76521, Note_on_c, 0, 62, 0
2, 76537, Note_on_c, 0, 65, 0
2, 76593, Note_on_c, 0, 70, 51
2, 76605, Note_on_c, 0, 55, 53
2, 76605, Note_on_c, 0, 62, 46
2, 76611, Note_on_c, 0, 60, 35
2, 76623, Note_on_c, 0, 65, 46
2, 76641, Note_on_c, 0, 60, 0
2, 76646, Note_on_c, 0, 70, 0
2, 76650, Note_on_c, 0, 55, 0
2, 76650, Note_on_c, 0, 62, 0
2, 76654, Note_on_c, 0, 65, 0
2, 77487, Control_c, 0, 64, 127
2, 77704, Note_on_c, 0, 70, 74
2, 77710, Note_on_c, 0, 65, 64
2, 77714, Note_on_c, 0, 60, 54
2, 77716, Control_c, 0, 64, 0
2, 77718, Note_on_c, 0, 62, 64
2, 77726, Note_on_c, 0, 55, 71
2, 77748, Note_on_c, 0, 62, 0
2, 77859, Note_on_c, 0, 55, 0
2, 77859, Control_c, 0, 64, 127
2, 77888, Note_on_c, 0, 60, 0
2, 77930, Note_on_c, 0, 65, 0
2, 77974, Note_on_c, 0, 70, 0
2, 78247, Control_c, 0, 64, 0
2, 78252, Note_on_c, 0, 87, 79
2, 78252, Note_on_c, 0, 75, 80
2, 78256, Note_on_c, 0, 64, 74
2, 78257, Note_on_c, 0, 54, 74
2, 78259, Note_on_c, 0, 82, 73
2, 78264, Note_on_c, 0, 60, 63
2, 78587, Control_c, 0, 64, 127
2, 79174, Note_on_c, 0, 75, 0
2, 79191, Note_on_c, 0, 60, 0
2, 79225, Note_on_c, 0, 82, 0
2, 79239, Note_on_c, 0, 87, 0
2, 79250, Note_on_c, 0, 54, 0
2, 79256, Note_on_c, 0, 64, 0
2, 79396, Note_on_c, 0, 89, 63
2, 79402, Note_on_c, 0, 84, 62
2, 79405, Note_on_c, 0, 54, 44
2, 79406, Note_on_c, 0, 77, 53
2, 79408, Note_on_c, 0, 64, 36
2, 79415, Control_c, 0, 64, 0
2, 79422, Note_on_c, 0, 60, 44
2, 79424, Control_c, 0, 64, 127
2, 79493, Note_on_c, 0, 89, 0
2, 79514, Note_on_c, 0, 84, 0
2, 79539, Note_on_c, 0, 77, 0
2, 79562, Note_on_c, 0, 54, 0
2, 79564, Note_on_c, 0, 64, 0
2, 79588, Note_on_c, 0, 60, 0
2, 79666, Note_on_c, 0, 86, 57
2, 79674, Note_on_c, 0, 81, 56
2, 79679, Control_c, 0, 64, 0
2, 79684, Note_on_c, 0, 74, 32
2, 79696, Note_on_c, 0, 64, 48
2, 79700, Note_on_c, 0, 60, 58
2, 79700, Note_on_c, 0, 54, 59
2, 80124, Control_c, 0, 64, 127
2, 80244, Note_on_c, 0, 86, 0
2, 80326, Note_on_c, 0, 64, 0
2, 80333, Note_on_c, 0, 81, 0
2, 80345, Note_on_c, 0, 74, 0
2, 80347, Note_on_c, 0, 54, 0
2, 80375, Note_on_c, 0, 60, 0
2, 80516, Control_c, 0, 64, 0
2, 80524, Note_on_c, 0, 54, 59
2, 80532, Note_on_c, 0, 72, 53
2, 80533, Note_on_c, 0, 62, 48
2, 80534, Note_on_c, 0, 60, 43
2, 80536, Note_on_c, 0, 84, 47
2, 80536, Note_on_c, 0, 80, 45
2, 80638, Note_on_c, 0, 80, 0
2, 80665, Note_on_c, 0, 81, 37
2, 80667, Note_on_c, 0, 62, 0
2, 80673, Note_on_c, 0, 60, 0
2, 80673, Note_on_c, 0, 54, 0
2, 80676, Note_on_c, 0, 72, 0
2, 80702, Note_on_c, 0, 81, 0
2, 80708, Note_on_c, 0, 84, 0
2, 80921, Note_on_c, 0, 80, 53
2, 80934, Note_on_c, 0, 72, 47
2, 80935, Note_on_c, 0, 54, 59
2, 80938, Note_on_c, 0, 62, 45
2, 80941, Note_on_c, 0, 60, 32
2, 80942, Note_on_c, 0, 84, 42
2, 80956, Note_on_c, 0, 58, 40
2, 80988, Note_on_c, 0, 60, 0
2, 81021, Note_on_c, 0, 80, 0
2, 81054, Note_on_c, 0, 62, 0
2, 81067, Note_on_c, 0, 81, 20
2, 81094, Note_on_c, 0, 72, 0
2, 81106, Note_on_c, 0, 58, 0
2, 81107, Note_on_c, 0, 81, 0
2, 81118, Note_on_c, 0, 84, 0
2, 81119, Note_on_c, 0, 54, 0
2, 81328, Note_on_c, 0, 72, 61
2, 81329, Note_on_c, 0, 62, 49
2, 81330, Note_on_c, 0, 84, 72
2, 81331, Note_on_c, 0, 57, 47
2, 81331, Note_on_c, 0, 55, 43
2, 81338, Note_on_c, 0, 58, 38
2, 81355, Note_on_c, 0, 81, 49
2, 81642, Control_c, 0, 64, 127
2, 81746, Note_on_c, 0, 84, 0
2, 81764, Note_on_c, 0, 81, 0
2, 81817, Note_on_c, 0, 62, 0
2, 81822, Note_on_c, 0, 57, 0
2, 81839, Note_on_c, 0, 58, 0
2, 81852, Note_on_c, 0, 72, 0
2, 81860, Note_on_c, 0, 55, 0
2, 82080, Note_on_c, 0, 82, 52
2, 82081, Note_on_c, 0, 62, 35
2, 82092, Note_on_c, 0, 58, 34
2, 82094, Control_c, 0, 64, 0
2, 82096, Note_on_c, 0, 70, 39
2, 82102, Note_on_c, 0, 55, 44
2, 82105, Note_on_c, 0, 57, 37
2, 82265, Control_c, 0, 64, 127
2, 82592, Note_on_c, 0, 82, 0
2, 82642, Note_on_c, 0, 57, 0
2, 82651, Note_on_c, 0, 70, 0
2, 82656, Note_on_c, 0, 62, 0
2, 82670, Note_on_c, 0, 55, 0
2, 82701, Note_on_c, 0, 58, 0
2, 83187, Control_c, 0, 64, 0
2, 83189, Note_on_c, 0, 77, 81
2, 83189, Note_on_c, 0, 70, 83
2, 83191, Note_on_c, 0, 67, 87
2, 83193, Note_on_c, 0, 74, 74
2, 83206, Note_on_c, 0, 65, 80
2, 83597, Control_c, 0, 64, 127
2, 83774, Note_on_c, 0, 74, 0
2, 83783, Note_on_c, 0, 67, 0
2, 83786, Note_on_c, 0, 70, 0
2, 83806, Note_on_c, 0, 65, 0
2, 83849, Note_on_c, 0, 77, 0
2, 83870, Note_on_c, 0, 74, 43
2, 83886, Note_on_c, 0, 70, 59
2, 83889, Note_on_c, 0, 67, 53
2, 83908, Note_on_c, 0, 62, 54
2, 83921, Control_c, 0, 64, 0
2, 84031, Control_c, 0, 64, 127
2, 84085, Note_on_c, 0, 74, 0
2, 84204, Note_on_c, 0, 70, 0
2, 84219, Note_on_c, 0, 67, 0
2, 84246, Note_on_c, 0, 62, 0
2, 84322, Note_on_c, 0, 58, 14
2, 84398, Control_c, 0, 64, 0
2, 84406, Note_on_c, 0, 58, 0
2, 84414, Note_on_c, 0, 62, 58
2, 84415, Note_on_c, 0, 64, 56
2, 84416, Note_on_c, 0, 74, 62
2, 84419, Note_on_c, 0, 70, 53
2, 84432, Note_on_c, 0, 67, 57
2, 84748, Control_c, 0, 64, 127
2, 84838, Note_on_c, 0, 67, 0
2, 84956, Note_on_c, 0, 64, 0
2, 84985, Note_on_c, 0, 62, 0
2, 85090, Note_on_c, 0, 74, 0
2, 85093, Note_on_c, 0, 70, 0
2, 85099, Control_c, 0, 64, 0
2, 85118, Note_on_c, 0, 67, 41
2, 85140, Note_on_c, 0, 64, 36
2, 85144, Note_on_c, 0, 55, 50
2, 85303, Control_c, 0, 64, 127
2, 85456, Note_on_c, 0, 67, 0
2, 85523, Note_on_c, 0, 64, 0
2, 85764, Note_on_c, 0, 70, 61
2, 85772, Note_on_c, 0, 62, 50
2, 85779, Note_on_c, 0, 67, 35
2, 85783, Note_on_c, 0, 64, 49
2, 85792, Note_on_c, 0, 55, 0
2, 85797, Control_c, 0, 64, 0
2, 85801, Note_on_c, 0, 58, 42
2, 86276, Control_c, 0, 64, 127
2, 86577, Note_on_c, 0, 58, 0
2, 86709, Note_on_c, 0, 62, 0
2, 86736, Note_on_c, 0, 67, 0
2, 86741, Note_on_c, 0, 64, 0
2, 86840, Note_on_c, 0, 70, 0
2, 87421, Note_on_c, 0, 62, 45
2, 87428, Control_c, 0, 64, 0
2, 87429, Note_on_c, 0, 74, 55
2, 87433, Note_on_c, 0, 63, 53
2, 87531, Note_on_c, 0, 67, 43
2, 87708, Note_on_c, 0, 63, 0
2, 87713, Note_on_c, 0, 67, 0
2, 87719, Note_on_c, 0, 74, 0
2, 87740, Note_on_c, 0, 62, 0
2, 87759, Note_on_c, 0, 60, 44
2, 87798, Note_on_c, 0, 60, 0
2, 87837, Note_on_c, 0, 74, 47
2, 87838, Note_on_c, 0, 63, 47
2, 87853, Note_on_c, 0, 67, 44
2, 87854, Note_on_c, 0, 62, 36
2, 88357, Note_on_c, 0, 63, 0
2, 88372, Note_on_c, 0, 67, 0
2, 88443, Note_on_c, 0, 74, 0
2, 88479, Note_on_c, 0, 63, 53
2, 88483, Note_on_c, 0, 67, 31
2, 88491, Note_on_c, 0, 72, 55
2, 88505, Note_on_c, 0, 60, 37
2, 88508, Note_on_c, 0, 63, 0
2, 88515, Note_on_c, 0, 62, 0
2, 88515, Note_on_c, 0, 67, 0
2, 88520, Note_on_c, 0, 72, 0
2, 88534, Note_on_c, 0, 60, 0
2, 88981, Note_on_c, 0, 74, 50
2, 88984, Note_on_c, 0, 70, 38
2, 88987, Note_on_c, 0, 65, 45
2, 88991, Note_on_c, 0, 54, 38
2, 89005, Note_on_c, 0, 60, 26
2, 89020, Note_on_c, 0, 65, 0
2, 89045, Note_on_c, 0, 60, 0
2, 89047, Note_on_c, 0, 70, 0
2, 89060, Note_on_c, 0, 74, 0
2, 89074, Note_on_c, 0, 54, 0
2, 89339, Control_c, 0, 64, 127
2, 89608, Note_on_c, 0, 86, 82
2, 89614, Note_on_c, 0, 80, 77
2, 89616, Note_on_c, 0, 74, 76
2, 89621, Control_c, 0, 64, 0
2, 89624, Note_on_c, 0, 64, 80
2, 89626, Note_on_c, 0, 54, 83
2, 89627, Note_on_c, 0, 60, 79
2, 89679, Note_on_c, 0, 80, 0
2, 89689, Note_on_c, 0, 81, 55
2, 89758, Control_c, 0, 64, 127
2, 90034, Note_on_c, 0, 86, 0
2, 90048, Note_on_c, 0, 54, 0
2, 90051, Note_on_c, 0, 74, 0
2, 90055, Note_on_c, 0, 64, 0
2, 90078, Note_on_c, 0, 81, 0
2, 90099, Control_c, 0, 64, 0
2, 90132, Note_on_c, 0, 54, 61
2, 90137, Note_on_c, 0, 64, 49
2, 90146, Note_on_c, 0, 84, 64
2, 90161, Note_on_c, 0, 72, 38
2, 90221, Note_on_c, 0, 64, 0
2, 90224, Note_on_c, 0, 60, 0
2, 90229, Note_on_c, 0, 72, 0
2, 90251, Note_on_c, 0, 84, 0
2, 90310, Note_on_c, 0, 54, 0
2, 90524, Note_on_c, 0, 80, 60
2, 90527, Note_on_c, 0, 72, 69
2, 90528, Note_on_c, 0, 57, 50
2, 90533, Note_on_c, 0, 84, 63
2, 90536, Note_on_c, 0, 62, 58
2, 90543, Note_on_c, 0, 58, 57
2, 90603, Note_on_c, 0, 80, 0
2, 90618, Note_on_c, 0, 81, 48
2, 90850, Control_c, 0, 64, 127
2, 90863, Note_on_c, 0, 81, 0
2, 90887, Note_on_c, 0, 84, 0
2, 90970, Note_on_c, 0, 72, 0
2, 90999, Note_on_c, 0, 62, 0
2, 91005, Note_on_c, 0, 58, 0
2, 91063, Note_on_c, 0, 57, 0
2, 91153, Note_on_c, 0, 82, 60
2, 91166, Control_c, 0, 64, 0
2, 91169, Note_on_c, 0, 57, 26
2, 91174, Note_on_c, 0, 62, 49
2, 91180, Note_on_c, 0, 58, 46
2, 91182, Note_on_c, 0, 70, 46
2, 91188, Note_on_c, 0, 79, 39
2, 91328, Control_c, 0, 64, 127
2, 91515, Note_on_c, 0, 79, 0
2, 91535, Note_on_c, 0, 82, 0
2, 91637, Note_on_c, 0, 70, 0
2, 91660, Note_on_c, 0, 62, 0
2, 91705, Note_on_c, 0, 58, 0
2, 91779, Note_on_c, 0, 57, 0
2, 92659, Control_c, 0, 64, 0
2, 92673, Note_on_c, 0, 72, 68
2, 92675, Note_on_c, 0, 65, 64
2, 92682, Note_on_c, 0, 69, 54
2, 92693, Note_on_c, 0, 60, 67
2, 92702, Note_on_c, 0, 72, 0
2, 92704, Note_on_c, 0, 65, 0
2, 92711, Note_on_c, 0, 69, 0
2, 92722, Note_on_c, 0, 60, 0
2, 93073, Note_on_c, 0, 72, 72
2, 93074, Note_on_c, 0, 60, 61
2, 93078, Note_on_c, 0, 65, 74
2, 93081, Note_on_c, 0, 69, 56
2, 93110, Note_on_c, 0, 69, 0
2, 93137, Note_on_c, 0, 72, 0
2, 93195, Note_on_c, 0, 58, 44
2, 93214, Control_c, 0, 64, 127
2, 93229, Note_on_c, 0, 70, 42
2, 93235, Note_on_c, 0, 60, 0
2, 93298, Note_on_c, 0, 65, 0
2, 93389, Note_on_c, 0, 70, 0
2, 93450, Note_on_c, 0, 67, 64
2, 93452, Note_on_c, 0, 63, 65
2, 93457, Note_on_c, 0, 58, 0
2, 93460, Note_on_c, 0, 74, 70
2, 93462, Control_c, 0, 64, 0
2, 93481, Note_on_c, 0, 62, 59
2, 93527, Note_on_c, 0, 63, 0
2, 93547, Note_on_c, 0, 67, 0
2, 93548, Note_on_c, 0, 62, 0
2, 93558, Note_on_c, 0, 74, 0
2, 93844, Note_on_c, 0, 74, 70
2, 93852, Note_on_c, 0, 67, 57
2, 93852, Note_on_c, 0, 63, 61
2, 93857, Note_on_c, 0, 62, 64
2, 93933, Note_on_c, 0, 63, 0
2, 93938, Note_on_c, 0, 67, 0
2, 93972, Note_on_c, 0, 74, 0
2, 93972, Note_on_c, 0, 62, 0
2, 94009, Note_on_c, 0, 60, 37
2, 94149, Note_on_c, 0, 72, 22
2, 94149, Note_on_c, 0, 72, 0
2, 94245, Note_on_c, 0, 74, 66
2, 94246, Note_on_c, 0, 63, 61
2, 94254, Note_on_c, 0, 67, 52
2, 94255, Note_on_c, 0, 60, 0
2, 94258, Note_on_c, 0, 62, 56
2, 94332, Control_c, 0, 64, 127
2, 94359, Note_on_c, 0, 63, 0
2, 94373, Note_on_c, 0, 67, 0
2, 94425, Note_on_c, 0, 74, 0
2, 94440, Note_on_c, 0, 62, 0
2, 94929, Control_c, 0, 64, 0
2, 95235, Note_on_c, 0, 89, 66
2, 95235, Note_on_c, 0, 64, 68
2, 95238, Note_on_c, 0, 77, 48
2, 95248, Note_on_c, 0, 54, 51
2, 95261, Note_on_c, 0, 89, 0
2, 95264, Note_on_c, 0, 64, 0
2, 95270, Note_on_c, 0, 60, 24
2, 95272, Note_on_c, 0, 77, 0
2, 95281, Note_on_c, 0, 54, 0
2, 95299, Note_on_c, 0, 60, 0
2, 95507, Note_on_c, 0, 89, 85
2, 95507, Note_on_c, 0, 54, 86
2, 95509, Note_on_c, 0, 64, 80
2, 95511, Note_on_c, 0, 77, 83
2, 95514, Note_on_c, 0, 60, 75
2, 95515, Note_on_c, 0, 82, 76
2, 95517, Control_c, 0, 64, 127
2, 95825, Note_on_c, 0, 89, 0
2, 95850, Note_on_c, 0, 82, 0
2, 95874, Note_on_c, 0, 54, 0
2, 95874, Note_on_c, 0, 64, 0
2, 95893, Note_on_c, 0, 77, 0
2, 95974, Note_on_c, 0, 60, 0
2, 96128, Note_on_c, 0, 86, 74
2, 96132, Control_c, 0, 64, 0
2, 96135, Note_on_c, 0, 54, 71
2, 96136, Note_on_c, 0, 74, 61
2, 96137, Note_on_c, 0, 60, 71
2, 96138, Note_on_c, 0, 64, 70
2, 96140, Note_on_c, 0, 81, 66
2, 96278, Control_c, 0, 64, 127
2, 96435, Note_on_c, 0, 81, 0
2, 96441, Note_on_c, 0, 86, 0
2, 96452, Note_on_c, 0, 60, 0
2, 96468, Note_on_c, 0, 64, 0
2, 96509, Note_on_c, 0, 74, 0
2, 96549, Note_on_c, 0, 54, 0
2, 96644, Control_c, 0, 64, 0
2, 96646, Note_on_c, 0, 62, 42
2, 96658, Note_on_c, 0, 58, 42
2, 96660, Note_on_c, 0, 53, 37
2, 96661, Note_on_c, 0, 84, 54
2, 96667, Note_on_c, 0, 57, 44
2, 96667, Note_on_c, 0, 72, 46
2, 96994, Control_c, 0, 64, 127
2, 97044, Note_on_c, 0, 84, 0
2, 97156, Note_on_c, 0, 72, 0
2, 97183, Note_on_c, 0, 53, 0
2, 97186, Note_on_c, 0, 57, 0
2, 97194, Note_on_c, 0, 62, 0
2, 97200, Note_on_c, 0, 58, 0
2, 97677, Control_c, 0, 64, 0
2, 97684, Note_on_c, 0, 69, 62
2, 97686, Note_on_c, 0, 81, 64
2, 97693, Note_on_c, 0, 62, 58
2, 97698, Note_on_c, 0, 58, 44
2, 97699, Note_on_c, 0, 57, 51
2, 97713, Note_on_c, 0, 69, 0
2, 97717, Note_on_c, 0, 81, 0
2, 97732, Note_on_c, 0, 57, 0
2, 97733, Note_on_c, 0, 62, 0
2, 97750, Note_on_c, 0, 58, 0
2, 98195, Note_on_c, 0, 65, 40
2, 98196, Note_on_c, 0, 72, 36
2, 98197, Note_on_c, 0, 69, 48
2, 98198, Note_on_c, 0, 57, 42
2, 98202, Note_on_c, 0, 62, 46
2, 98206, Note_on_c, 0, 53, 54
2, 98217, Note_on_c, 0, 58, 46
2, 98542, Note_on_c, 0, 69, 0
2, 98551, Note_on_c, 0, 65, 0
2, 98583, Note_on_c, 0, 62, 0
2, 98583, Control_c, 0, 64, 127
2, 98652, Note_on_c, 0, 58, 0
2, 98655, Note_on_c, 0, 53, 0
2, 98680, Note_on_c, 0, 57, 0
2, 98684, Note_on_c, 0, 72, 0
2, 98803, Note_on_c, 0, 62, 36
2, 98805, Note_on_c, 0, 69, 47
2, 98817, Note_on_c, 0, 65, 40
2, 98822, Control_c, 0, 64, 0
2, 98826, Note_on_c, 0, 58, 33
2, 98830, Note_on_c, 0, 53, 31
2, 98834, Note_on_c, 0, 57, 36
2, 98993, Control_c, 0, 64, 127
2, 99145, Note_on_c, 0, 58, 0
2, 99149, Note_on_c, 0, 57, 0
2, 99164, Note_on_c, 0, 69, 0
2, 99229, Note_on_c, 0, 65, 0
2, 99231, Note_on_c, 0, 53, 0
2, 99307, Note_on_c, 0, 62, 0
2, 99692, Control_c, 0, 64, 0
2, 99694, Note_on_c, 0, 67, 43
2, 99699, Note_on_c, 0, 63, 44
2, 99703, Note_on_c, 0, 55, 57
2, 99704, Note_on_c, 0, 60, 49
2, 99974, Note_on_c, 0, 55, 0
2, 99983, Note_on_c, 0, 60, 0
2, 99995, Note_on_c, 0, 67, 0
2, 100019, Note_on_c, 0, 63, 0
2, 100030, Note_on_c, 0, 54, 20
2, 100062, Note_on_c, 0, 54, 0
2, 100104, Note_on_c, 0, 63, 44
2, 100107, Note_on_c, 0, 67, 43
2, 100111, Note_on_c, 0, 55, 57
2, 100112, Note_on_c, 0, 60, 60
2, 100478, Control_c, 0, 64, 127
2, 100664, Note_on_c, 0, 63, 0
2, 100710, Note_on_c, 0, 60, 0
2, 100762, Note_on_c, 0, 53, 27
2, 100766, Note_on_c, 0, 55, 0
2, 100791, Note_on_c, 0, 53, 0
2, 100811, Control_c, 0, 64, 0
2, 100832, Note_on_c, 0, 67, 0
2, 100847, Note_on_c, 0, 63, 36
2, 100869, Note_on_c, 0, 60, 44
2, 100922, Control_c, 0, 64, 127
2, 100980, Note_on_c, 0, 60, 0
2, 101095, Note_on_c, 0, 63, 0
2, 101129, Note_on_c, 0, 60, 64
2, 101133, Note_on_c, 0, 64, 55
2, 101134, Note_on_c, 0, 59, 62
2, 101136, Note_on_c, 0, 67, 47
2, 101143, Control_c, 0, 64, 0
2, 101151, Note_on_c, 0, 50, 32
2, 101604, Note_on_c, 0, 59, 0
2, 101613, Control_c, 0, 64, 127
2, 101642, Note_on_c, 0, 64, 0
2, 101661, Note_on_c, 0, 60, 0
2, 101667, Note_on_c, 0, 67, 0
2, 101878, Note_on_c, 0, 50, 0
2, 102028, Control_c, 0, 64, 0
2, 102028, Note_on_c, 0, 65, 66
2, 102034, Note_on_c, 0, 58, 56
2, 102035, Note_on_c, 0, 60, 53
2, 102039, Note_on_c, 0, 54, 46
2, 102051, Note_on_c, 0, 50, 45
2, 102141, Note_on_c, 0, 50, 0
2, 102313, Note_on_c, 0, 49, 38
2, 102377, Note_on_c, 0, 49, 0
2, 102466, Control_c, 0, 64, 127
2, 102475, Note_on_c, 0, 50, 28
2, 102520, Note_on_c, 0, 50, 0
2, 102550, Note_on_c, 0, 54, 0
2, 102587, Note_on_c, 0, 58, 0
2, 102591, Note_on_c, 0, 60, 0
2, 102613, Note_on_c, 0, 65, 0
2, 102654, Control_c, 0, 64, 0
2, 102688, Note_on_c, 0, 58, 39
2, 102692, Note_on_c, 0, 62, 52
2, 102702, Note_on_c, 0, 57, 53
2, 102712, Note_on_c, 0, 50, 37
2, 102817, Control_c, 0, 64, 127
2, 102996, Note_on_c, 0, 50, 0
2, 103029, Control_c, 0, 64, 0
2, 103048, Note_on_c, 0, 43, 55
2, 103049, Note_on_c, 0, 57, 0
2, 103055, Control_c, 0, 64, 127
2, 103089, Note_on_c, 0, 43, 0
2, 103103, Note_on_c, 0, 58, 0
2, 103125, Note_on_c, 0, 62, 0
2, 103525, Control_c, 0, 64, 0
2, 103545, Note_on_c, 0, 58, 53
2, 103549, Note_on_c, 0, 65, 67
2, 103550, Note_on_c, 0, 84, 77
2, 103553, Note_on_c, 0, 81, 64
2, 103553, Note_on_c, 0, 72, 66
2, 103560, Note_on_c, 0, 60, 62
2, 103562, Note_on_c, 0, 77, 58
2, 103871, Note_on_c, 0, 65, 0
2, 103875, Control_c, 0, 64, 127
2, 103900, Note_on_c, 0, 60, 0
2, 103928, Note_on_c, 0, 84, 0
2, 103943, Note_on_c, 0, 58, 0
2, 103958, Note_on_c, 0, 81, 0
2, 103984, Note_on_c, 0, 72, 0
2, 103991, Note_on_c, 0, 77, 0
2, 104250, Control_c, 0, 64, 0
2, 104322, Note_on_c, 0, 82, 59
2, 104322, Note_on_c, 0, 58, 45
2, 104322, Note_on_c, 0, 62, 51
2, 104327, Note_on_c, 0, 70, 46
2, 104328, Note_on_c, 0, 52, 57
2, 104330, Note_on_c, 0, 79, 50
2, 104331, Note_on_c, 0, 75, 50
2, 104625, Control_c, 0, 64, 127
2, 104663, Note_on_c, 0, 79, 0
2, 104715, Note_on_c, 0, 82, 0
2, 104724, Note_on_c, 0, 70, 0
2, 104733, Note_on_c, 0, 52, 0
2, 104757, Note_on_c, 0, 62, 0
2, 104773, Note_on_c, 0, 58, 0
2, 104780, Note_on_c, 0, 75, 0
2, 104916, Control_c, 0, 64, 0
2, 104920, Note_on_c, 0, 74, 52
2, 104923, Note_on_c, 0, 79, 58
2, 104936, Note_on_c, 0, 67, 42
2, 104940, Note_on_c, 0, 58, 47
2, 104942, Note_on_c, 0, 62, 44
2, 104952, Note_on_c, 0, 52, 48
2, 105094, Control_c, 0, 64, 127
2, 105179, Note_on_c, 0, 67, 0
2, 105220, Note_on_c, 0, 52, 0
2, 105238, Note_on_c, 0, 62, 0
2, 105248, Note_on_c, 0, 79, 0
2, 105266, Note_on_c, 0, 74, 0
2, 105284, Note_on_c, 0, 58, 0
2, 105820, Control_c, 0, 64, 0
2, 105837, Note_on_c, 0, 86, 63
2, 105854, Note_on_c, 0, 62, 56
2, 105854, Note_on_c, 0, 51, 50
2, 105854, Note_on_c, 0, 74, 30
2, 105871, Note_on_c, 0, 86, 0
2, 105876, Note_on_c, 0, 57, 32
2, 105880, Note_on_c, 0, 62, 0
2, 105885, Note_on_c, 0, 74, 0
2, 105895, Note_on_c, 0, 51, 0
2, 105911, Note_on_c, 0, 57, 0
2, 106305, Control_c, 0, 64, 127
2, 106502, Note_on_c, 0, 63, 54
2, 106505, Note_on_c, 0, 86, 75
2, 106508, Note_on_c, 0, 67, 65
2, 106509, Note_on_c, 0, 74, 71
2, 106511, Note_on_c, 0, 62, 48
2, 106519, Control_c, 0, 64, 0
2, 106538, Note_on_c, 0, 57, 24
2, 106552, Note_on_c, 0, 67, 0
2, 106564, Note_on_c, 0, 74, 0
2, 106568, Note_on_c, 0, 57, 0
2, 106573, Note_on_c, 0, 63, 0
2, 106574, Note_on_c, 0, 86, 0
2, 106579, Note_on_c, 0, 62, 0
2, 106673, Control_c, 0, 64, 127
2, 106761, Note_on_c, 0, 86, 74
2, 106770, Note_on_c, 0, 74, 69
2, 106775, Note_on_c, 0, 62, 54
2, 106779, Note_on_c, 0, 67, 67
2, 106780, Note_on_c, 0, 63, 46
2, 106800, Note_on_c, 0, 57, 40
2, 106874, Note_on_c, 0, 67, 0
2, 106887, Note_on_c, 0, 57, 0
2, 106902, Note_on_c, 0, 74, 0
2, 106908, Note_on_c, 0, 86, 0
2, 106918, Note_on_c, 0, 62, 0
2, 106944, Note_on_c, 0, 63, 0
2, 106964, Control_c, 0, 64, 0
2, 107004, Note_on_c, 0, 63, 45
2, 107006, Control_c, 0, 64, 127
2, 107022, Note_on_c, 0, 67, 47
2, 107023, Note_on_c, 0, 74, 60
2, 107027, Note_on_c, 0, 57, 55
2, 107027, Note_on_c, 0, 86, 70
2, 107052, Note_on_c, 0, 67, 0
2, 107082, Note_on_c, 0, 63, 0
2, 107089, Note_on_c, 0, 74, 0
2, 107103, Note_on_c, 0, 86, 0
2, 107106, Note_on_c, 0, 57, 0
2, 107262, Control_c, 0, 64, 0
2, 107279, Note_on_c, 0, 86, 80
2, 107284, Note_on_c, 0, 74, 76
2, 107284, Note_on_c, 0, 65, 66
2, 107299, Note_on_c, 0, 58, 50
2, 107301, Note_on_c, 0, 54, 65
2, 107302, Note_on_c, 0, 59, 38
2, 107311, Note_on_c, 0, 60, 46
2, 107414, Note_on_c, 0, 59, 0
2, 107450, Control_c, 0, 64, 127
2, 107783, Note_on_c, 0, 54, 0
2, 107784, Note_on_c, 0, 65, 0
2, 107843, Note_on_c, 0, 86, 0
2, 107898, Note_on_c, 0, 60, 0
2, 107901, Note_on_c, 0, 58, 0
2, 107913, Note_on_c, 0, 74, 0
2, 108115, Control_c, 0, 64, 0
2, 108143, Note_on_c, 0, 84, 64
2, 108153, Note_on_c, 0, 65, 55
2, 108159, Note_on_c, 0, 72, 47
2, 108161, Note_on_c, 0, 54, 44
2, 108162, Note_on_c, 0, 60, 47
2, 108171, Note_on_c, 0, 58, 34
2, 108278, Control_c, 0, 64, 127
2, 108433, Note_on_c, 0, 65, 0
2, 108463, Note_on_c, 0, 60, 0
2, 108494, Note_on_c, 0, 84, 0
2, 108533, Note_on_c, 0, 72, 0
2, 108533, Note_on_c, 0, 58, 0
2, 108539, Note_on_c, 0, 54, 0
2, 108818, Note_on_c, 0, 56, 26
2, 108881, Note_on_c, 0, 56, 0
2, 108927, Control_c, 0, 64, 0
2, 108927, Note_on_c, 0, 58, 62
2, 108929, Note_on_c, 0, 62, 60
2, 108935, Note_on_c, 0, 72, 62
2, 108937, Note_on_c, 0, 69, 56
2, 108938, Note_on_c, 0, 65, 55
2, 109167, Note_on_c, 0, 58, 0
2, 109187, Note_on_c, 0, 62, 0
2, 109193, Note_on_c, 0, 65, 0
2, 109199, Note_on_c, 0, 56, 27
2, 109207, Note_on_c, 0, 69, 0
2, 109211, Note_on_c, 0, 72, 0
2, 109296, Note_on_c, 0, 58, 57
2, 109299, Note_on_c, 0, 56, 0
2, 109316, Note_on_c, 0, 72, 51
2, 109327, Note_on_c, 0, 62, 43
2, 109328, Note_on_c, 0, 69, 49
2, 109330, Note_on_c, 0, 65, 36
2, 109361, Control_c, 0, 64, 127
2, 109475, Note_on_c, 0, 65, 0
2, 109497, Note_on_c, 0, 58, 0
2, 109504, Note_on_c, 0, 62, 0
2, 109526, Note_on_c, 0, 69, 0
2, 109527, Note_on_c, 0, 72, 0
2, 109555, Note_on_c, 0, 54, 30
2, 109596, Note_on_c, 0, 70, 67
2, 109597, Note_on_c, 0, 65, 43
2, 109598, Note_on_c, 0, 62, 42
2, 109613, Note_on_c, 0, 54, 0
2, 109618, Control_c, 0, 64, 0
2, 109620, Note_on_c, 0, 55, 57
2, 110070, Control_c, 0, 64, 127
2, 110266, Note_on_c, 0, 62, 0
2, 110309, Note_on_c, 0, 65, 0
2, 110377, Control_c, 0, 64, 0
2, 110393, Note_on_c, 0, 70, 0
2, 110429, Note_on_c, 0, 62, 38
2, 110434, Note_on_c, 0, 69, 36
2, 110438, Note_on_c, 0, 54, 40
2, 110440, Note_on_c, 0, 55, 0
2, 110465, Note_on_c, 0, 65, 26
2, 110522, Control_c, 0, 64, 127
2, 110574, Note_on_c, 0, 65, 0
2, 110591, Note_on_c, 0, 62, 0
2, 110647, Note_on_c, 0, 69, 0
2, 110709, Note_on_c, 0, 70, 45
2, 110711, Note_on_c, 0, 62, 38
2, 110715, Note_on_c, 0, 65, 51
2, 110718, Control_c, 0, 64, 0
2, 110727, Note_on_c, 0, 54, 0
2, 110733, Note_on_c, 0, 55, 56
2, 110889, Control_c, 0, 64, 127
2, 111129, Note_on_c, 0, 55, 0
2, 111140, Note_on_c, 0, 62, 0
2, 111148, Note_on_c, 0, 65, 0
2, 111207, Note_on_c, 0, 70, 0
2, 111836, Control_c, 0, 64, 0
2, 111959, Note_on_c, 0, 61, 35
2, 111964, Note_on_c, 0, 51, 37
2, 111977, Note_on_c, 0, 58, 38
2, 111978, Note_on_c, 0, 97, 70
2, 111996, Note_on_c, 0, 85, 59
2, 111996, Note_on_c, 0, 56, 33
2, 112408, Control_c, 0, 64, 127
2, 112473, Note_on_c, 0, 97, 0
2, 112519, Note_on_c, 0, 85, 0
2, 112530, Note_on_c, 0, 58, 0
2, 112536, Note_on_c, 0, 61, 0
2, 112581, Note_on_c, 0, 56, 0
2, 112630, Control_c, 0, 64, 0
2, 112639, Note_on_c, 0, 61, 53
2, 112659, Note_on_c, 0, 94, 56
2, 112667, Note_on_c, 0, 58, 30
2, 112667, Note_on_c, 0, 82, 46
2, 112695, Note_on_c, 0, 61, 0
2, 112697, Note_on_c, 0, 58, 0
2, 112703, Note_on_c, 0, 82, 0
2, 112715, Note_on_c, 0, 94, 0
2, 112721, Note_on_c, 0, 51, 0
2, 112922, Note_on_c, 0, 90, 60
2, 112923, Note_on_c, 0, 61, 45
2, 112924, Note_on_c, 0, 78, 55
2, 112941, Note_on_c, 0, 58, 30
2, 112950, Note_on_c, 0, 51, 28
2, 112954, Note_on_c, 0, 56, 27
2, 113112, Note_on_c, 0, 78, 0
2, 113113, Note_on_c, 0, 61, 0
2, 113117, Note_on_c, 0, 58, 0
2, 113124, Note_on_c, 0, 51, 0
2, 113131, Note_on_c, 0, 56, 0
2, 113134, Note_on_c, 0, 90, 0
2, 113188, Note_on_c, 0, 61, 45
2, 113193, Note_on_c, 0, 80, 43
2, 113209, Note_on_c, 0, 92, 50
2, 113210, Note_on_c, 0, 51, 31
2, 113211, Note_on_c, 0, 58, 33
2, 113225, Note_on_c, 0, 56, 27
2, 113239, Note_on_c, 0, 92, 0
2, 113243, Note_on_c, 0, 58, 0
2, 113245, Note_on_c, 0, 61, 0
2, 113245, Note_on_c, 0, 80, 0
2, 113247, Note_on_c, 0, 51, 0
2, 113262, Note_on_c, 0, 56, 0
2, 113458, Note_on_c, 0, 75, 71
2, 113460, Note_on_c, 0, 87, 73
2, 113462, Note_on_c, 0, 61, 53
2, 113464, Note_on_c, 0, 51, 49
2, 113474, Note_on_c, 0, 56, 33
2, 113495, Note_on_c, 0, 58, 29
2, 113534, Control_c, 0, 64, 127
2, 113935, Note_on_c, 0, 61, 0
2, 113945, Note_on_c, 0, 75, 0
2, 113957, Note_on_c, 0, 87, 0
2, 113979, Note_on_c, 0, 51, 0
2, 114023, Note_on_c, 0, 56, 0
2, 114045, Note_on_c, 0, 58, 0
2, 114163, Note_on_c, 0, 90, 64
2, 114165, Note_on_c, 0, 78, 55
2, 114166, Note_on_c, 0, 51, 47
2, 114167, Note_on_c, 0, 61, 56
2, 114167, Note_on_c, 0, 58, 43
2, 114176, Note_on_c, 0, 56, 40
2, 114183, Control_c, 0, 64, 0
2, 114319, Control_c, 0, 64, 127
2, 114431, Note_on_c, 0, 90, 0
2, 114450, Note_on_c, 0, 58, 0
2, 114480, Note_on_c, 0, 78, 0
2, 114591, Note_on_c, 0, 58, 30
2, 114641, Note_on_c, 0, 61, 0
2, 114671, Note_on_c, 0, 51, 0
2, 114735, Note_on_c, 0, 56, 0
2, 114760, Note_on_c, 0, 58, 0
2, 114947, Note_on_c, 0, 85, 75
2, 114953, Note_on_c, 0, 73, 76
2, 114996, Note_on_c, 0, 62, 42
2, 114999, Note_on_c, 0, 58, 36
2, 115010, Note_on_c, 0, 57, 34
2, 115018, Note_on_c, 0, 53, 35
2, 115083, Note_on_c, 0, 73, 0
2, 115088, Control_c, 0, 64, 0
2, 115089, Note_on_c, 0, 85, 0
2, 115143, Note_on_c, 0, 74, 41
2, 115146, Note_on_c, 0, 86, 51
2, 115463, Control_c, 0, 64, 127
2, 115541, Note_on_c, 0, 86, 0
2, 115638, Note_on_c, 0, 74, 0
2, 115659, Note_on_c, 0, 58, 0
2, 115660, Note_on_c, 0, 62, 0
2, 115713, Note_on_c, 0, 81, 60
2, 115717, Note_on_c, 0, 62, 19
2, 115733, Note_on_c, 0, 58, 15
2, 115786, Note_on_c, 0, 81, 0
2, 115796, Control_c, 0, 64, 0
2, 115801, Note_on_c, 0, 62, 0
2, 115840, Note_on_c, 0, 58, 0
2, 115852, Note_on_c, 0, 84, 95
2, 115916, Control_c, 0, 64, 127
2, 116006, Note_on_c, 0, 84, 0
2, 116077, Note_on_c, 0, 82, 64
2, 116145, Control_c, 0, 64, 0
2, 116220, Note_on_c, 0, 82, 0
2, 116298, Note_on_c, 0, 78, 14
2, 116334, Control_c, 0, 64, 127
2, 116447, Note_on_c, 0, 78, 0
2, 116479, Note_on_c, 0, 62, 35
2, 116488, Note_on_c, 0, 81, 71
2, 116494, Note_on_c, 0, 58, 25
2, 116504, Control_c, 0, 64, 0
2, 116518, Note_on_c, 0, 62, 0
2, 116574, Note_on_c, 0, 58, 0
2, 116665, Note_on_c, 0, 81, 0
2, 116665, Note_on_c, 0, 79, 36
2, 116751, Control_c, 0, 64, 127
2, 116840, Note_on_c, 0, 79, 0
2, 116877, Note_on_c, 0, 74, 40
2, 116890, Note_on_c, 0, 58, 25
2, 116922, Control_c, 0, 64, 0
2, 116928, Note_on_c, 0, 74, 0
2, 116951, Note_on_c, 0, 58, 0
2, 117059, Control_c, 0, 64, 127
2, 117141, Note_on_c, 0, 57, 0
2, 117257, Note_on_c, 0, 58, 40
2, 117258, Note_on_c, 0, 70, 77
2, 117272, Control_c, 0, 64, 0
2, 117285, Note_on_c, 0, 57, 9
2, 117305, Note_on_c, 0, 58, 0
2, 117330, Note_on_c, 0, 70, 0
2, 117399, Note_on_c, 0, 74, 74
2, 117406, Note_on_c, 0, 57, 0
2, 117460, Control_c, 0, 64, 127
2, 117540, Note_on_c, 0, 53, 0
2, 117555, Note_on_c, 0, 74, 0
2, 117609, Note_on_c, 0, 72, 66
2, 117621, Control_c, 0, 64, 0
2, 117626, Note_on_c, 0, 53, 36
2, 117632, Note_on_c, 0, 58, 47
2, 117637, Note_on_c, 0, 62, 28
2, 117669, Note_on_c, 0, 62, 0
2, 117701, Note_on_c, 0, 58, 0
2, 117715, Note_on_c, 0, 72, 0
2, 117732, Note_on_c, 0, 53, 0
2, 117787, Note_on_c, 0, 70, 30
2, 117793, Control_c, 0, 64, 127
2, 117996, Note_on_c, 0, 69, 49
2, 118013, Note_on_c, 0, 70, 0
2, 118091, Control_c, 0, 64, 0
2, 118092, Note_on_c, 0, 69, 0
2, 118105, Note_on_c, 0, 61, 32
2, 118122, Note_on_c, 0, 58, 29
2, 118122, Note_on_c, 0, 56, 30
2, 118124, Note_on_c, 0, 51, 29
2, 118134, Note_on_c, 0, 73, 56
2, 118286, Note_on_c, 0, 61, 0
2, 118475, Control_c, 0, 64, 127
2, 118571, Note_on_c, 0, 56, 0
2, 118606, Note_on_c, 0, 58, 0
2, 118612, Note_on_c, 0, 51, 0
2, 118738, Note_on_c, 0, 61, 50
2, 118765, Note_on_c, 0, 73, 0
2, 118765, Note_on_c, 0, 58, 39
2, 118767, Note_on_c, 0, 61, 0
2, 118776, Note_on_c, 0, 56, 25
2, 118815, Note_on_c, 0, 56, 0
2, 118818, Note_on_c, 0, 58, 0
2, 118851, Control_c, 0, 64, 0
2, 119023, Note_on_c, 0, 58, 50
2, 119047, Control_c, 0, 64, 127
2, 119105, Note_on_c, 0, 58, 0
2, 119115, Control_c, 0, 64, 0
2, 119161, Note_on_c, 0, 61, 51
2, 119196, Note_on_c, 0, 61, 0
2, 119286, Note_on_c, 0, 63, 50
2, 119319, Note_on_c, 0, 63, 0
2, 119417, Note_on_c, 0, 66, 60
2, 119448, Control_c, 0, 64, 127
2, 119471, Note_on_c, 0, 66, 0
2, 119508, Control_c, 0, 64, 0
2, 119554, Note_on_c, 0, 68, 49
2, 119584, Note_on_c, 0, 68, 0
2, 119664, Note_on_c, 0, 61, 30
2, 119683, Note_on_c, 0, 51, 27
2, 119695, Note_on_c, 0, 58, 31
2, 119700, Note_on_c, 0, 56, 33
2, 119742, Note_on_c, 0, 61, 0
2, 119744, Note_on_c, 0, 56, 0
2, 119745, Note_on_c, 0, 58, 0
2, 119746, Note_on_c, 0, 51, 0
2, 120046, Control_c, 0, 64, 127
2, 120262, Note_on_c, 0, 61, 53
2, 120274, Note_on_c, 0, 58, 38
2, 120284, Note_on_c, 0, 56, 29
2, 120291, Note_on_c, 0, 61, 0
2, 120307, Note_on_c, 0, 58, 0
2, 120317, Note_on_c, 0, 56, 0
2, 120327, Control_c, 0, 64, 0
2, 120395, Note_on_c, 0, 73, 67
2, 120402, Note_on_c, 0, 61, 61
2, 120463, Note_on_c, 0, 61, 0
2, 120470, Note_on_c, 0, 73, 0
2, 120600, Control_c, 0, 64, 127
2, 120658, Note_on_c, 0, 63, 67
2, 120660, Control_c, 0, 64, 0
2, 120668, Note_on_c, 0, 75, 60
2, 120676, Note_on_c, 0, 61, 39
2, 120681, Note_on_c, 0, 56, 29
2, 120693, Note_on_c, 0, 63, 0
2, 120696, Note_on_c, 0, 75, 0
2, 120705, Note_on_c, 0, 61, 0
2, 120716, Note_on_c, 0, 56, 0
2, 120779, Note_on_c, 0, 61, 48
2, 120780, Note_on_c, 0, 51, 49
2, 120788, Note_on_c, 0, 66, 69
2, 120798, Note_on_c, 0, 56, 33
2, 120798, Note_on_c, 0, 58, 38
2, 120801, Note_on_c, 0, 78, 65
2, 120839, Control_c, 0, 64, 127
2, 120914, Note_on_c, 0, 66, 0
2, 120936, Note_on_c, 0, 78, 0
2, 120944, Note_on_c, 0, 51, 0
2, 120984, Note_on_c, 0, 58, 0
2, 120998, Note_on_c, 0, 61, 0
2, 121053, Note_on_c, 0, 61, 43
2, 121065, Note_on_c, 0, 70, 64
2, 121069, Note_on_c, 0, 82, 58
2, 121071, Note_on_c, 0, 58, 42
2, 121081, Note_on_c, 0, 80, 45
2, 121109, Note_on_c, 0, 80, 0
2, 121127, Note_on_c, 0, 70, 0
2, 121129, Note_on_c, 0, 56, 0
2, 121130, Note_on_c, 0, 61, 0
2, 121138, Note_on_c, 0, 82, 0
2, 121149, Note_on_c, 0, 58, 0
2, 121181, Control_c, 0, 64, 0
2, 121224, Note_on_c, 0, 58, 43
2, 121226, Note_on_c, 0, 62, 57
2, 121229, Note_on_c, 0, 72, 74
2, 121230, Note_on_c, 0, 84, 80
2, 121258, Note_on_c, 0, 57, 38
2, 121268, Note_on_c, 0, 53, 41
2, 121522, Control_c, 0, 64, 127
2, 121568, Note_on_c, 0, 84, 0
2, 121618, Note_on_c, 0, 62, 0
2, 121639, Note_on_c, 0, 72, 0
2, 121660, Note_on_c, 0, 58, 0
2, 121666, Note_on_c, 0, 57, 0
2, 121758, Note_on_c, 0, 53, 0
2, 121809, Note_on_c, 0, 82, 57
2, 121812, Control_c, 0, 64, 0
2, 121827, Note_on_c, 0, 53, 10
2, 121827, Note_on_c, 0, 70, 46
2, 121831, Note_on_c, 0, 62, 47
2, 121835, Note_on_c, 0, 58, 44
2, 121841, Note_on_c, 0, 57, 32
2, 121939, Control_c, 0, 64, 127
2, 122044, Note_on_c, 0, 82, 0
2, 122054, Note_on_c, 0, 70, 0
2, 122289, Note_on_c, 0, 53, 0
2, 122317, Note_on_c, 0, 57, 0
2, 122336, Note_on_c, 0, 75, 84
2, 122337, Note_on_c, 0, 79, 80
2, 122364, Note_on_c, 0, 62, 0
2, 122365, Note_on_c, 0, 58, 0
2, 122551, Note_on_c, 0, 75, 0
2, 122557, Note_on_c, 0, 79, 0
2, 122604, Note_on_c, 0, 77, 71
2, 122612, Note_on_c, 0, 63, 46
2, 122613, Note_on_c, 0, 74, 78
2, 122625, Note_on_c, 0, 67, 40
2, 122628, Note_on_c, 0, 56, 38
2, 122632, Note_on_c, 0, 60, 39
2, 122640, Control_c, 0, 64, 0
2, 122799, Note_on_c, 0, 74, 0
2, 122819, Control_c, 0, 64, 127
2, 122826, Note_on_c, 0, 77, 0
2, 122855, Note_on_c, 0, 72, 45
2, 122868, Note_on_c, 0, 75, 50
2, 122963, Note_on_c, 0, 72, 0
2, 122998, Control_c, 0, 64, 0
2, 123033, Note_on_c, 0, 75, 0
2, 123084, Note_on_c, 0, 67, 0
2, 123084, Control_c, 0, 64, 127
2, 123117, Note_on_c, 0, 70, 60
2, 123123, Note_on_c, 0, 74, 59
2, 123229, Note_on_c, 0, 56, 0
2, 123234, Note_on_c, 0, 63, 0
2, 123272, Note_on_c, 0, 70, 0
2, 123289, Note_on_c, 0, 60, 0
2, 123342, Note_on_c, 0, 74, 0
2, 123367, Note_on_c, 0, 62, 11
2, 123367, Note_on_c, 0, 66, 37
2, 123374, Control_c, 0, 64, 0
2, 123375, Note_on_c, 0, 56, 32
2, 123379, Note_on_c, 0, 72, 62
2, 123392, Note_on_c, 0, 69, 54
2, 123475, Note_on_c, 0, 69, 0
2, 123515, Note_on_c, 0, 72, 0
2, 123518, Control_c, 0, 64, 127
2, 123519, Note_on_c, 0, 66, 0
2, 123642, Note_on_c, 0, 68, 55
2, 123644, Note_on_c, 0, 71, 48
2, 123722, Note_on_c, 0, 56, 0
2, 123766, Note_on_c, 0, 71, 0
2, 123771, Note_on_c, 0, 68, 0
2, 123826, Control_c, 0, 64, 0
2, 123876, Note_on_c, 0, 56, 42
2, 123892, Note_on_c, 0, 68, 54
2, 123895, Note_on_c, 0, 71, 49
2, 123911, Control_c, 0, 64, 127
2, 124030, Note_on_c, 0, 71, 0
2, 124068, Note_on_c, 0, 68, 0
2, 124069, Note_on_c, 0, 56, 0
2, 124167, Control_c, 0, 64, 0
2, 124173, Note_on_c, 0, 70, 52
2, 124182, Note_on_c, 0, 67, 39
2, 124193, Note_on_c, 0, 55, 41
2, 124198, Note_on_c, 0, 60, 30
2, 124303, Control_c, 0, 64, 127
2, 124657, Note_on_c, 0, 62, 0
2, 124662, Note_on_c, 0, 60, 0
2, 124681, Note_on_c, 0, 70, 0
2, 124690, Note_on_c, 0, 67, 0
2, 124955, Note_on_c, 0, 55, 0
2, 125396, Note_on_c, 0, 55, 64
2, 125405, Control_c, 0, 64, 0
2, 125471, Note_on_c, 0, 55, 0
2, 125492, Note_on_c, 0, 58, 53
2, 125597, Note_on_c, 0, 58, 0
2, 125609, Note_on_c, 0, 62, 59
2, 125716, Note_on_c, 0, 65, 61
2, 125726, Note_on_c, 0, 62, 0
2, 125832, Note_on_c, 0, 65, 0
2, 125833, Note_on_c, 0, 62, 34
2, 125998, Note_on_c, 0, 62, 0
2, 126038, Note_on_c, 0, 63, 64
2, 126106, Note_on_c, 0, 63, 0
2, 126231, Note_on_c, 0, 67, 34
2, 126336, Note_on_c, 0, 67, 0
2, 126384, Note_on_c, 0, 70, 33
2, 126481, Note_on_c, 0, 70, 0
2, 126556, Control_c, 0, 64, 127
2, 126770, Control_c, 0, 64, 0
2, 126781, Note_on_c, 0, 75, 62
2, 126794, Note_on_c, 0, 63, 38
2, 126828, Note_on_c, 0, 63, 0
2, 126835, Note_on_c, 0, 75, 0
2, 126836, Note_on_c, 0, 58, 20
2, 126915, Control_c, 0, 64, 127
2, 126939, Note_on_c, 0, 79, 47
2, 126958, Note_on_c, 0, 58, 0
2, 127067, Note_on_c, 0, 79, 0
2, 127157, Note_on_c, 0, 82, 69
2, 127180, Control_c, 0, 64, 0
2, 127238, Note_on_c, 0, 82, 0
2, 127306, Note_on_c, 0, 65, 33
2, 127306, Note_on_c, 0, 54, 45
2, 127322, Note_on_c, 0, 60, 49
2, 127322, Note_on_c, 0, 89, 82
2, 127513, Note_on_c, 0, 89, 0
2, 127575, Note_on_c, 0, 87, 67
2, 127694, Note_on_c, 0, 87, 0
2, 127754, Note_on_c, 0, 65, 0
2, 127781, Note_on_c, 0, 84, 41
2, 127833, Note_on_c, 0, 60, 0
2, 127853, Note_on_c, 0, 54, 0
2, 127941, Note_on_c, 0, 84, 0
2, 127978, Note_on_c, 0, 78, 60
2, 127987, Note_on_c, 0, 64, 36
2, 128000, Note_on_c, 0, 60, 29
2, 128002, Note_on_c, 0, 54, 34
2, 128118, Note_on_c, 0, 78, 0
2, 128177, Note_on_c, 0, 77, 25
2, 128410, Note_on_c, 0, 77, 0
2, 128494, Note_on_c, 0, 75, 47
2, 128722, Note_on_c, 0, 64, 0
2, 128734, Note_on_c, 0, 54, 0
2, 128755, Note_on_c, 0, 75, 0
2, 128756, Note_on_c, 0, 60, 0
2, 128844, Note_on_c, 0, 64, 31
2, 128850, Note_on_c, 0, 54, 30
2, 129006, Note_on_c, 0, 74, 67
2, 129006, Note_on_c, 0, 60, 40
2, 129017, Note_on_c, 0, 54, 0
2, 129036, Note_on_c, 0, 74, 0
2, 129090, Note_on_c, 0, 75, 43
2, 129096, Note_on_c, 0, 54, 18
2, 129162, Note_on_c, 0, 74, 35
2, 129178, Note_on_c, 0, 75, 0
2, 129218, Note_on_c, 0, 64, 0
2, 129249, Note_on_c, 0, 72, 44
2, 129263, Note_on_c, 0, 74, 0
2, 129291, Note_on_c, 0, 54, 0
2, 129329, Note_on_c, 0, 72, 0
2, 129357, Note_on_c, 0, 60, 0
2, 129628, Control_c, 0, 64, 127
2, 129881, Note_on_c, 0, 64, 49
2, 129889, Note_on_c, 0, 60, 50
2, 129892, Note_on_c, 0, 54, 33
2, 129895, Note_on_c, 0, 58, 38
2, 129912, Note_on_c, 0, 64, 0
2, 129921, Note_on_c, 0, 60, 0
2, 129944, Control_c, 0, 64, 0
2, 129948, Note_on_c, 0, 54, 0
2, 130002, Note_on_c, 0, 58, 0
2, 130183, Control_c, 0, 64, 127
2, 130184, Note_on_c, 0, 74, 72
2, 130236, Note_on_c, 0, 74, 0
2, 130304, Note_on_c, 0, 75, 84
2, 130354, Control_c, 0, 64, 0
2, 130426, Note_on_c, 0, 75, 0
2, 130426, Note_on_c, 0, 62, 40
2, 130430, Note_on_c, 0, 58, 43
2, 130436, Note_on_c, 0, 57, 37
2, 130443, Note_on_c, 0, 77, 79
2, 130451, Note_on_c, 0, 53, 42
2, 130664, Note_on_c, 0, 77, 0
2, 130715, Note_on_c, 0, 74, 65
2, 130745, Note_on_c, 0, 62, 0
2, 130773, Note_on_c, 0, 58, 0
2, 130812, Note_on_c, 0, 74, 0
2, 130841, Control_c, 0, 64, 127
2, 130843, Note_on_c, 0, 57, 0
2, 130906, Note_on_c, 0, 69, 35
2, 130910, Note_on_c, 0, 53, 0
2, 131051, Note_on_c, 0, 69, 0
2, 131082, Note_on_c, 0, 72, 66
2, 131105, Control_c, 0, 64, 0
2, 131124, Note_on_c, 0, 62, 34
2, 131138, Note_on_c, 0, 58, 33
2, 131140, Note_on_c, 0, 57, 22
2, 131193, Note_on_c, 0, 72, 0
2, 131241, Note_on_c, 0, 70, 42
2, 131407, Note_on_c, 0, 70, 0
2, 131476, Note_on_c, 0, 66, 30
2, 131494, Note_on_c, 0, 62, 0
2, 131504, Note_on_c, 0, 66, 0
2, 131574, Note_on_c, 0, 69, 77
2, 131697, Note_on_c, 0, 58, 0
2, 131716, Note_on_c, 0, 57, 0
2, 131792, Note_on_c, 0, 69, 0
2, 131819, Note_on_c, 0, 66, 39
2, 131822, Note_on_c, 0, 62, 28
2, 131823, Note_on_c, 0, 58, 40
2, 131870, Note_on_c, 0, 62, 0
2, 131878, Note_on_c, 0, 66, 0
2, 131938, Note_on_c, 0, 67, 57
2, 131946, Note_on_c, 0, 58, 0
2, 131955, Note_on_c, 0, 57, 1
2, 132023, Note_on_c, 0, 57, 0
2, 132191, Note_on_c, 0, 67, 0
2, 132203, Note_on_c, 0, 62, 37
2, 132286, Note_on_c, 0, 62, 0
2, 132419, Control_c, 0, 64, 127
2, 132564, Control_c, 0, 64, 0
2, 132565, Note_on_c, 0, 62, 50
2, 132585, Note_on_c, 0, 58, 32
2, 132597, Note_on_c, 0, 62, 0
2, 132640, Note_on_c, 0, 58, 0
2, 132690, Note_on_c, 0, 62, 60
2, 132734, Control_c, 0, 64, 127
2, 132965, Control_c, 0, 64, 0
2, 133033, Control_c, 0, 64, 127
2, 133202, Note_on_c, 0, 62, 0
2, 133340, Note_on_c, 0, 55, 40
2, 133435, Control_c, 0, 64, 0
2, 133448, Note_on_c, 0, 62, 52
2, 133465, Note_on_c, 0, 55, 0
2, 133465, Note_on_c, 0, 65, 45
2, 133465, Note_on_c, 0, 70, 58
2, 133465, Note_on_c, 0, 58, 50
2, 133845, Control_c, 0, 64, 127
2, 134204, Note_on_c, 0, 58, 0
2, 134238, Note_on_c, 0, 62, 0
2, 134293, Note_on_c, 0, 65, 0
2, 134340, Note_on_c, 0, 70, 0
2, 134517, Note_on_c, 0, 55, 35
2, 134544, Control_c, 0, 64, 0
2, 134576, Note_on_c, 0, 55, 0
2, 134612, Note_on_c, 0, 70, 80
2, 134612, Note_on_c, 0, 74, 78
2, 134617, Note_on_c, 0, 65, 79
2, 134621, Note_on_c, 0, 58, 71
2, 134753, Note_on_c, 0, 74, 0
2, 134786, Note_on_c, 0, 70, 0
2, 134789, Note_on_c, 0, 65, 0
2, 134921, Note_on_c, 0, 58, 0
2, 134962, Note_on_c, 0, 55, 31
2, 135007, Note_on_c, 0, 70, 77
2, 135008, Note_on_c, 0, 55, 0
2, 135018, Note_on_c, 0, 67, 50
2, 135019, Note_on_c, 0, 64, 58
2, 135024, Note_on_c, 0, 58, 59
2, 135025, Note_on_c, 0, 60, 57
2, 135302, Note_on_c, 0, 60, 0
2, 135363, Control_c, 0, 64, 127
2, 135379, Note_on_c, 0, 67, 0
2, 135392, Note_on_c, 0, 64, 0
2, 135548, Note_on_c, 0, 70, 0
2, 135611, Control_c, 0, 64, 0
2, 135622, Note_on_c, 0, 67, 46
2, 135638, Note_on_c, 0, 60, 50
2, 135643, Note_on_c, 0, 64, 47
2, 135647, Note_on_c, 0, 58, 0
2, 135730, Control_c, 0, 64, 127
2, 135803, Note_on_c, 0, 60, 0
2, 135891, Note_on_c, 0, 64, 0
2, 135946, Note_on_c, 0, 67, 0
2, 136018, Note_on_c, 0, 55, 62
2, 136046, Note_on_c, 0, 55, 0
2, 136404, Control_c, 0, 64, 0
2, 136550, Note_on_c, 0, 60, 38
2, 136550, Note_on_c, 0, 63, 38
2, 136550, Note_on_c, 0, 57, 37
2, 136550, Note_on_c, 0, 55, 34
2, 137034, Note_on_c, 0, 60, 0
2, 137165, Note_on_c, 0, 60, 33
2, 137215, Note_on_c, 0, 63, 0
2, 137291, Note_on_c, 0, 93, 95
2, 137291, Note_on_c, 0, 86, 101
2, 137395, Note_on_c, 0, 60, 0
2, 137489, Note_on_c, 0, 93, 0
2, 137535, Note_on_c, 0, 63, 56
2, 137540, Note_on_c, 0, 87, 70
2, 137549, Note_on_c, 0, 60, 40
2, 137563, Note_on_c, 0, 86, 0
2, 137595, Note_on_c, 0, 63, 0
2, 137636, Note_on_c, 0, 57, 0
2, 137643, Note_on_c, 0, 87, 0
2, 137708, Note_on_c, 0, 55, 0
2, 137708, Note_on_c, 0, 86, 42
2, 137922, Note_on_c, 0, 54, 44
2, 137926, Note_on_c, 0, 86, 0
2, 137941, Note_on_c, 0, 84, 68
2, 137942, Note_on_c, 0, 64, 30
2, 138082, Note_on_c, 0, 84, 0
2, 138139, Note_on_c, 0, 82, 50
2, 138226, Note_on_c, 0, 82, 0
2, 138352, Note_on_c, 0, 81, 82
2, 138373, Note_on_c, 0, 64, 0
2, 138474, Note_on_c, 0, 81, 0
2, 138498, Note_on_c, 0, 60, 0
2, 138527, Note_on_c, 0, 79, 30
2, 138623, Note_on_c, 0, 79, 0
2, 138713, Note_on_c, 0, 78, 62
2, 138719, Note_on_c, 0, 60, 28
2, 138735, Note_on_c, 0, 62, 30
2, 138774, Note_on_c, 0, 62, 0
2, 138809, Note_on_c, 0, 78, 0
2, 138867, Note_on_c, 0, 60, 0
2, 138868, Note_on_c, 0, 81, 78
2, 139018, Note_on_c, 0, 81, 0
2, 139076, Note_on_c, 0, 78, 38
2, 139136, Note_on_c, 0, 78, 0
2, 139219, Note_on_c, 0, 79, 80
2, 139288, Note_on_c, 0, 54, 0
2, 139430, Note_on_c, 0, 79, 0
2, 139464, Note_on_c, 0, 74, 53
2, 139467, Note_on_c, 0, 62, 33
2, 139476, Note_on_c, 0, 57, 31
2, 139485, Note_on_c, 0, 55, 33
2, 139488, Note_on_c, 0, 58, 27
2, 139575, Note_on_c, 0, 74, 0
2, 139678, Note_on_c, 0, 72, 43
2, 139783, Note_on_c, 0, 72, 0
2, 139908, Note_on_c, 0, 62, 0
2, 139916, Note_on_c, 0, 70, 58
2, 139961, Note_on_c, 0, 58, 0
2, 140068, Note_on_c, 0, 70, 0
2, 140190, Note_on_c, 0, 69, 72
2, 140193, Note_on_c, 0, 58, 44
2, 140206, Note_on_c, 0, 62, 40
2, 140331, Note_on_c, 0, 69, 0
2, 140406, Note_on_c, 0, 62, 0
2, 140418, Note_on_c, 0, 58, 0
2, 140431, Note_on_c, 0, 72, 74
2, 140541, Note_on_c, 0, 72, 0
2, 140600, Note_on_c, 0, 62, 24
2, 140604, Note_on_c, 0, 58, 36
2, 140638, Note_on_c, 0, 62, 0
2, 140707, Note_on_c, 0, 58, 0
2, 140715, Note_on_c, 0, 70, 74
2, 140931, Note_on_c, 0, 70, 0
2, 140983, Note_on_c, 0, 66, 60
2, 140990, Note_on_c, 0, 58, 39
2, 141005, Note_on_c, 0, 62, 25
2, 141040, Note_on_c, 0, 62, 0
2, 141080, Note_on_c, 0, 66, 0
2, 141092, Note_on_c, 0, 58, 0
2, 141166, Note_on_c, 0, 57, 0
2, 141211, Note_on_c, 0, 69, 74
2, 141294, Note_on_c, 0, 55, 0
2, 141344, Note_on_c, 0, 62, 42
2, 141355, Note_on_c, 0, 69, 0
2, 141366, Note_on_c, 0, 58, 32
2, 141390, Note_on_c, 0, 62, 0
2, 141399, Note_on_c, 0, 55, 27
2, 141448, Note_on_c, 0, 58, 0
2, 141538, Note_on_c, 0, 55, 0
2, 141538, Note_on_c, 0, 67, 36
2, 141722, Note_on_c, 0, 67, 0
2, 141734, Note_on_c, 0, 58, 34
2, 141750, Note_on_c, 0, 62, 55
2, 141765, Note_on_c, 0, 55, 35
2, 141827, Note_on_c, 0, 58, 0
2, 141831, Control_c, 0, 64, 127
2, 141865, Note_on_c, 0, 55, 0
2, 142026, Note_on_c, 0, 62, 0
2, 142128, Note_on_c, 0, 58, 62
2, 142241, Control_c, 0, 64, 0
2, 142259, Note_on_c, 0, 58, 0
2, 142299, Note_on_c, 0, 57, 36
2, 142310, Control_c, 0, 64, 127
2, 142490, Note_on_c, 0, 57, 0
2, 142550, Note_on_c, 0, 55, 35
2, 142651, Control_c, 0, 64, 0
2, 142667, Note_on_c, 0, 62, 74
2, 142687, Note_on_c, 0, 55, 0
2, 142691, Note_on_c, 0, 48, 44
2, 142692, Note_on_c, 0, 58, 50
2, 142832, Note_on_c, 0, 62, 0
2, 142874, Note_on_c, 0, 58, 0
2, 142881, Note_on_c, 0, 63, 31
2, 142968, Note_on_c, 0, 62, 30
2, 142999, Note_on_c, 0, 63, 0
2, 143045, Note_on_c, 0, 62, 0
2, 143099, Note_on_c, 0, 48, 0
2, 143104, Note_on_c, 0, 60, 22
2, 143205, Control_c, 0, 64, 127
2, 143217, Note_on_c, 0, 60, 0
2, 143306, Note_on_c, 0, 62, 77
2, 143309, Control_c, 0, 64, 0
2, 143327, Note_on_c, 0, 58, 46
2, 143352, Note_on_c, 0, 48, 27
2, 143394, Note_on_c, 0, 58, 0
2, 143512, Control_c, 0, 64, 127
2, 143693, Note_on_c, 0, 55, 39
2, 143709, Control_c, 0, 64, 0
2, 143718, Note_on_c, 0, 48, 0
2, 143732, Note_on_c, 0, 62, 0
2, 143785, Note_on_c, 0, 55, 0
2, 143815, Note_on_c, 0, 60, 45
2, 143859, Note_on_c, 0, 60, 0
2, 143928, Note_on_c, 0, 62, 57
2, 144020, Note_on_c, 0, 62, 0
2, 144040, Note_on_c, 0, 63, 60
2, 144078, Note_on_c, 0, 63, 0
2, 144134, Note_on_c, 0, 50, 25
2, 144137, Note_on_c, 0, 54, 26
2, 144167, Note_on_c, 0, 65, 39
2, 144209, Note_on_c, 0, 65, 0
2, 144233, Note_on_c, 0, 50, 0
2, 144251, Note_on_c, 0, 54, 0
2, 144269, Note_on_c, 0, 70, 59
2, 144328, Note_on_c, 0, 70, 0
2, 144407, Note_on_c, 0, 72, 58
2, 144472, Note_on_c, 0, 72, 0
2, 144518, Note_on_c, 0, 77, 56
2, 144606, Note_on_c, 0, 77, 0
2, 144624, Note_on_c, 0, 82, 63
2, 144684, Note_on_c, 0, 82, 0
2, 144756, Note_on_c, 0, 84, 77
2, 144804, Note_on_c, 0, 84, 0
2, 145225, Note_on_c, 0, 65, 68
2, 145242, Note_on_c, 0, 60, 49
2, 145250, Note_on_c, 0, 58, 34
2, 145259, Note_on_c, 0, 54, 25
2, 145271, Note_on_c, 0, 60, 0
2, 145287, Note_on_c, 0, 65, 0
2, 145297, Note_on_c, 0, 54, 0
2, 145300, Note_on_c, 0, 58, 0
2, 145532, Note_on_c, 0, 65, 62
2, 145538, Note_on_c, 0, 54, 52
2, 145539, Note_on_c, 0, 58, 44
2, 145550, Note_on_c, 0, 60, 42
2, 145635, Note_on_c, 0, 60, 0
2, 145661, Note_on_c, 0, 65, 0
2, 145754, Note_on_c, 0, 58, 0
2, 145770, Note_on_c, 0, 54, 0
2, 145801, Note_on_c, 0, 62, 54
2, 145820, Note_on_c, 0, 57, 36
2, 145832, Note_on_c, 0, 53, 41
2, 145833, Note_on_c, 0, 58, 32
2, 146596, Note_on_c, 0, 58, 0
2, 146600, Note_on_c, 0, 62, 0
2, 146654, Note_on_c, 0, 84, 79
2, 146662, Note_on_c, 0, 72, 56
2, 146707, Note_on_c, 0, 72, 0
2, 146724, Note_on_c, 0, 84, 0
2, 146737, Note_on_c, 0, 53, 0
2, 146757, Note_on_c, 0, 57, 0
2, 146806, Note_on_c, 0, 81, 48
2, 146836, Note_on_c, 0, 81, 0
2, 146933, Note_on_c, 0, 84, 88
2, 146940, Note_on_c, 0, 62, 61
2, 146944, Note_on_c, 0, 72, 80
2, 146954, Note_on_c, 0, 58, 43
2, 146958, Note_on_c, 0, 57, 38
2, 146972, Note_on_c, 0, 53, 31
2, 147142, Note_on_c, 0, 84, 0
2, 147191, Note_on_c, 0, 72, 0
2, 147248, Note_on_c, 0, 62, 0
2, 147256, Note_on_c, 0, 58, 0
2, 147282, Note_on_c, 0, 81, 64
2, 147292, Note_on_c, 0, 57, 0
2, 147351, Note_on_c, 0, 81, 0
2, 147360, Note_on_c, 0, 53, 0
2, 147536, Note_on_c, 0, 62, 50
2, 147539, Note_on_c, 0, 81, 83
2, 147543, Note_on_c, 0, 58, 47
2, 147548, Note_on_c, 0, 57, 37
2, 147549, Note_on_c, 0, 69, 73
2, 147651, Control_c, 0, 64, 127
2, 147652, Note_on_c, 0, 81, 0
2, 147690, Note_on_c, 0, 69, 0
2, 147738, Note_on_c, 0, 62, 0
2, 147745, Note_on_c, 0, 58, 0
2, 147807, Note_on_c, 0, 77, 57
2, 147834, Note_on_c, 0, 62, 36
2, 147870, Note_on_c, 0, 58, 31
2, 147888, Note_on_c, 0, 77, 0
2, 147910, Note_on_c, 0, 62, 0
2, 147920, Note_on_c, 0, 58, 0
2, 147941, Note_on_c, 0, 57, 0
2, 147960, Note_on_c, 0, 74, 33
2, 147985, Control_c, 0, 64, 0
2, 148007, Note_on_c, 0, 74, 0
2, 148088, Note_on_c, 0, 62, 51
2, 148089, Note_on_c, 0, 77, 76
2, 148094, Note_on_c, 0, 57, 30
2, 148094, Note_on_c, 0, 65, 71
2, 148095, Note_on_c, 0, 58, 48
2, 148163, Control_c, 0, 64, 127
2, 148185, Note_on_c, 0, 77, 0
2, 148300, Note_on_c, 0, 65, 0
2, 148337, Note_on_c, 0, 62, 0
2, 148342, Control_c, 0, 64, 0
2, 148373, Note_on_c, 0, 58, 0
2, 148402, Note_on_c, 0, 74, 60
2, 148451, Note_on_c, 0, 57, 0
2, 148499, Note_on_c, 0, 74, 0
2, 148598, Note_on_c, 0, 72, 17
2, 148628, Note_on_c, 0, 72, 0
2, 148688, Note_on_c, 0, 63, 64
2, 148689, Note_on_c, 0, 74, 73
2, 148690, Note_on_c, 0, 67, 61
2, 148709, Note_on_c, 0, 70, 35
2, 148711, Note_on_c, 0, 62, 64
2, 148738, Note_on_c, 0, 70, 0
2, 148846, Control_c, 0, 64, 127
2, 149077, Control_c, 0, 64, 0
2, 149086, Note_on_c, 0, 63, 0
2, 149095, Note_on_c, 0, 67, 0
2, 149114, Note_on_c, 0, 74, 0
2, 149162, Control_c, 0, 64, 127
2, 149179, Note_on_c, 0, 72, 49
2, 149183, Note_on_c, 0, 60, 38
2, 149198, Note_on_c, 0, 63, 25
2, 149199, Note_on_c, 0, 62, 0
2, 149251, Note_on_c, 0, 63, 0
2, 149375, Note_on_c, 0, 72, 0
2, 149410, Control_c, 0, 64, 0
2, 149436, Note_on_c, 0, 63, 60
2, 149436, Note_on_c, 0, 74, 59
2, 149449, Note_on_c, 0, 60, 0
2, 149451, Note_on_c, 0, 67, 51
2, 149452, Note_on_c, 0, 62, 50
2, 149472, Note_on_c, 0, 70, 27
2, 149505, Note_on_c, 0, 70, 0
2, 149554, Control_c, 0, 64, 127
2, 149635, Note_on_c, 0, 63, 0
2, 149673, Note_on_c, 0, 67, 0
2, 149730, Note_on_c, 0, 74, 0
2, 149840, Note_on_c, 0, 62, 0
2, 150074, Note_on_c, 0, 86, 72
2, 150099, Note_on_c, 0, 77, 47
2, 150110, Note_on_c, 0, 79, 34
2, 150136, Note_on_c, 0, 77, 0
2, 150143, Note_on_c, 0, 79, 0
2, 150173, Note_on_c, 0, 86, 0
2, 150227, Note_on_c, 0, 82, 44
2, 150245, Control_c, 0, 64, 0
2, 150280, Note_on_c, 0, 82, 0
2, 150336, Note_on_c, 0, 86, 80
2, 150336, Note_on_c, 0, 65, 63
2, 150341, Note_on_c, 0, 60, 60
2, 150343, Note_on_c, 0, 54, 60
2, 150346, Note_on_c, 0, 58, 44
2, 150348, Note_on_c, 0, 77, 73
2, 150493, Control_c, 0, 64, 127
2, 150635, Note_on_c, 0, 86, 0
2, 150720, Note_on_c, 0, 65, 0
2, 150729, Note_on_c, 0, 77, 0
2, 150787, Note_on_c, 0, 54, 0
2, 150788, Note_on_c, 0, 60, 0
2, 150789, Note_on_c, 0, 58, 0
2, 150949, Note_on_c, 0, 82, 60
2, 150962, Note_on_c, 0, 74, 47
2, 150962, Control_c, 0, 64, 0
2, 150965, Note_on_c, 0, 54, 52
2, 150970, Note_on_c, 0, 77, 53
2, 150972, Note_on_c, 0, 65, 51
2, 150983, Note_on_c, 0, 60, 55
2, 150998, Note_on_c, 0, 58, 36
2, 151125, Control_c, 0, 64, 127
2, 151403, Note_on_c, 0, 65, 0
2, 151415, Note_on_c, 0, 60, 0
2, 151456, Note_on_c, 0, 54, 0
2, 151491, Note_on_c, 0, 82, 0
2, 151492, Note_on_c, 0, 77, 0
2, 151502, Note_on_c, 0, 74, 0
2, 151542, Note_on_c, 0, 58, 0
2, 151868, Control_c, 0, 64, 0
2, 151868, Note_on_c, 0, 81, 64
2, 151870, Note_on_c, 0, 69, 48
2, 151878, Note_on_c, 0, 62, 44
2, 151885, Note_on_c, 0, 74, 33
2, 151895, Note_on_c, 0, 60, 45
2, 151896, Note_on_c, 0, 58, 33
2, 151919, Note_on_c, 0, 69, 0
2, 151924, Note_on_c, 0, 60, 0
2, 151926, Note_on_c, 0, 74, 0
2, 151938, Note_on_c, 0, 81, 0
2, 151939, Note_on_c, 0, 62, 0
2, 151953, Note_on_c, 0, 58, 0
2, 152254, Note_on_c, 0, 81, 67
2, 152255, Note_on_c, 0, 69, 60
2, 152257, Note_on_c, 0, 62, 53
2, 152275, Note_on_c, 0, 74, 62
2, 152275, Note_on_c, 0, 58, 39
2, 152280, Note_on_c, 0, 60, 51
2, 152289, Note_on_c, 0, 77, 28
2, 152375, Note_on_c, 0, 74, 0
2, 152375, Note_on_c, 0, 69, 0
2, 152380, Note_on_c, 0, 77, 0
2, 152409, Note_on_c, 0, 81, 0
2, 152410, Note_on_c, 0, 60, 0
2, 152416, Note_on_c, 0, 62, 0
2, 152455, Note_on_c, 0, 58, 0
2, 152609, Control_c, 0, 64, 127
2, 152632, Note_on_c, 0, 81, 68
2, 152640, Note_on_c, 0, 62, 50
2, 152644, Note_on_c, 0, 60, 55
2, 152645, Note_on_c, 0, 58, 39
2, 152651, Note_on_c, 0, 69, 44
2, 152652, Note_on_c, 0, 74, 49
2, 152654, Note_on_c, 0, 77, 43
2, 152758, Note_on_c, 0, 81, 0
2, 152774, Note_on_c, 0, 69, 0
2, 152795, Note_on_c, 0, 62, 0
2, 152804, Note_on_c, 0, 74, 0
2, 152808, Note_on_c, 0, 60, 0
2, 152827, Note_on_c, 0, 77, 0
2, 152851, Note_on_c, 0, 58, 0
2, 152898, Note_on_c, 0, 62, 46
2, 152901, Note_on_c, 0, 58, 36
2, 152908, Control_c, 0, 64, 0
2, 152918, Note_on_c, 0, 74, 58
2, 152927, Note_on_c, 0, 79, 49
2, 152930, Note_on_c, 0, 67, 42
2, 152957, Note_on_c, 0, 62, 0
2, 152961, Note_on_c, 0, 67, 0
2, 152994, Note_on_c, 0, 74, 0
2, 153006, Note_on_c, 0, 79, 0
2, 153014, Note_on_c, 0, 58, 0
2, 153053, Control_c, 0, 64, 127
2, 153258, Control_c, 0, 64, 0
2, 153282, Note_on_c, 0, 58, 64
2, 153287, Note_on_c, 0, 62, 64
2, 153288, Note_on_c, 0, 82, 70
2, 153288, Note_on_c, 0, 70, 59
2, 153300, Note_on_c, 0, 75, 38
2, 153317, Note_on_c, 0, 70, 0
2, 153317, Note_on_c, 0, 62, 0
2, 153321, Note_on_c, 0, 52, 35
2, 153329, Note_on_c, 0, 75, 0
2, 153352, Note_on_c, 0, 52, 0
2, 153354, Note_on_c, 0, 82, 0
2, 153354, Note_on_c, 0, 58, 0
2, 153661, Note_on_c, 0, 58, 60
2, 153725, Note_on_c, 0, 58, 0
2, 153785, Note_on_c, 0, 66, 81
2, 153800, Note_on_c, 0, 79, 58
2, 153803, Note_on_c, 0, 58, 64
2, 153809, Note_on_c, 0, 77, 38
2, 153810, Note_on_c, 0, 62, 71
2, 153820, Note_on_c, 0, 52, 70
2, 153871, Note_on_c, 0, 67, 59
2, 153873, Note_on_c, 0, 66, 0
2, 154086, Control_c, 0, 64, 127
2, 154105, Note_on_c, 0, 79, 0
2, 154112, Note_on_c, 0, 77, 0
2, 154168, Note_on_c, 0, 62, 0
2, 154187, Note_on_c, 0, 67, 0
2, 154205, Note_on_c, 0, 52, 0
2, 154255, Note_on_c, 0, 58, 0
2, 154392, Control_c, 0, 64, 0
2, 154394, Note_on_c, 0, 76, 64
2, 154410, Note_on_c, 0, 62, 60
2, 154411, Note_on_c, 0, 64, 58
2, 154412, Note_on_c, 0, 58, 52
2, 154413, Note_on_c, 0, 52, 62
2, 154512, Control_c, 0, 64, 127
2, 154542, Note_on_c, 0, 76, 0
2, 154621, Note_on_c, 0, 52, 0
2, 154643, Note_on_c, 0, 58, 0
2, 154714, Note_on_c, 0, 64, 0
2, 154746, Note_on_c, 0, 62, 0
2, 154841, Note_on_c, 0, 60, 48
2, 154926, Note_on_c, 0, 60, 0
2, 154940, Control_c, 0, 64, 0
2, 154940, Note_on_c, 0, 74, 58
2, 154945, Note_on_c, 0, 67, 57
2, 154948, Note_on_c, 0, 63, 56
2, 154954, Note_on_c, 0, 62, 51
2, 154973, Note_on_c, 0, 69, 41
2, 155217, Note_on_c, 0, 63, 0
2, 155221, Note_on_c, 0, 69, 0
2, 155222, Note_on_c, 0, 74, 0
2, 155226, Note_on_c, 0, 67, 0
2, 155243, Note_on_c, 0, 62, 0
2, 155256, Note_on_c, 0, 60, 54
2, 155299, Note_on_c, 0, 60, 0
2, 155345, Note_on_c, 0, 63, 62
2, 155348, Note_on_c, 0, 74, 50
2, 155358, Note_on_c, 0, 62, 40
2, 155360, Note_on_c, 0, 67, 48
2, 155386, Note_on_c, 0, 69, 30
2, 155602, Note_on_c, 0, 69, 0
2, 155628, Note_on_c, 0, 63, 0
2, 155632, Note_on_c, 0, 67, 0
2, 155645, Note_on_c, 0, 74, 0
2, 155702, Control_c, 0, 64, 127
2, 155702, Note_on_c, 0, 63, 59
2, 155713, Note_on_c, 0, 62, 0
2, 155714, Note_on_c, 0, 67, 52
2, 155717, Note_on_c, 0, 60, 49
2, 155725, Note_on_c, 0, 69, 40
2, 155732, Note_on_c, 0, 72, 44
2, 155932, Note_on_c, 0, 60, 0
2, 155999, Note_on_c, 0, 72, 0
2, 156013, Note_on_c, 0, 69, 0
2, 156015, Note_on_c, 0, 67, 0
2, 156057, Note_on_c, 0, 63, 0
2, 156400, Note_on_c, 0, 49, 37
2, 156423, Control_c, 0, 64, 0
2, 156449, Note_on_c, 0, 49, 0
2, 156451, Note_on_c, 0, 70, 59
2, 156459, Note_on_c, 0, 50, 48
2, 156473, Note_on_c, 0, 65, 46
2, 156476, Note_on_c, 0, 60, 39
2, 156541, Note_on_c, 0, 70, 0
2, 156581, Note_on_c, 0, 65, 0
2, 156676, Note_on_c, 0, 60, 0
2, 156694, Note_on_c, 0, 50, 0
2, 156724, Note_on_c, 0, 38, 56
2, 156755, Note_on_c, 0, 38, 0
2, 156825, Control_c, 0, 64, 127
2, 157117, Note_on_c, 0, 54, 80
2, 157118, Note_on_c, 0, 58, 67
2, 157120, Note_on_c, 0, 65, 70
2, 157130, Note_on_c, 0, 60, 68
2, 157142, Note_on_c, 0, 50, 67
2, 157149, Control_c, 0, 64, 0
2, 157297, Note_on_c, 0, 50, 0
2, 157345, Control_c, 0, 64, 127
2, 157484, Note_on_c, 0, 50, 43
2, 157491, Control_c, 0, 64, 0
2, 157511, Note_on_c, 0, 54, 0
2, 157519, Note_on_c, 0, 50, 0
2, 157584, Control_c, 0, 64, 127
2, 157679, Note_on_c, 0, 65, 0
2, 157691, Note_on_c, 0, 60, 0
2, 157727, Note_on_c, 0, 58, 0
2, 157849, Control_c, 0, 64, 0
2, 157878, Note_on_c, 0, 58, 55
2, 157888, Note_on_c, 0, 62, 37
2, 157895, Note_on_c, 0, 43, 50
2, 157897, Note_on_c, 0, 57, 36
2, 157930, Note_on_c, 0, 57, 0
2, 157949, Note_on_c, 0, 43, 0
2, 157954, Note_on_c, 0, 62, 0
2, 157957, Note_on_c, 0, 58, 0
2, 158105, Control_c, 0, 64, 127
2, 158267, Note_on_c, 0, 72, 64
2, 158273, Note_on_c, 0, 65, 58
2, 158275, Note_on_c, 0, 62, 60
2, 158282, Note_on_c, 0, 57, 55
2, 158293, Control_c, 0, 64, 0
2, 158311, Note_on_c, 0, 65, 0
2, 158338, Note_on_c, 0, 62, 0
2, 158345, Note_on_c, 0, 72, 0
2, 158381, Note_on_c, 0, 57, 0
2, 158426, Note_on_c, 0, 56, 32
2, 158447, Note_on_c, 0, 70, 31
2, 158594, Note_on_c, 0, 70, 0
2, 158673, Note_on_c, 0, 54, 32
2, 158754, Note_on_c, 0, 56, 0
2, 158768, Note_on_c, 0, 57, 51
2, 158772, Note_on_c, 0, 54, 0
2, 158783, Note_on_c, 0, 62, 40
2, 158790, Note_on_c, 0, 72, 41
2, 158791, Note_on_c, 0, 65, 41
2, 158797, Note_on_c, 0, 69, 44
2, 159003, Note_on_c, 0, 69, 0
2, 159019, Note_on_c, 0, 62, 0
2, 159036, Note_on_c, 0, 65, 0
2, 159066, Note_on_c, 0, 72, 0
2, 159096, Note_on_c, 0, 57, 0
2, 159134, Note_on_c, 0, 55, 40
2, 159134, Note_on_c, 0, 62, 33
2, 159144, Note_on_c, 0, 70, 37
2, 159171, Note_on_c, 0, 65, 30
2, 159172, Control_c, 0, 64, 127
2, 159236, Note_on_c, 0, 65, 0
2, 159284, Note_on_c, 0, 62, 0
2, 159335, Note_on_c, 0, 70, 0
2, 159445, Control_c, 0, 64, 0
2, 159482, Note_on_c, 0, 55, 0
2, 159509, Note_on_c, 0, 57, 46
2, 159535, Note_on_c, 0, 62, 42
2, 159535, Note_on_c, 0, 65, 40
2, 159535, Note_on_c, 0, 72, 46
2, 159590, Control_c, 0, 64, 127
2, 159692, Control_c, 0, 64, 0
2, 159837, Control_c, 0, 64, 127
2, 159900, Note_on_c, 0, 65, 0
2, 159933, Note_on_c, 0, 62, 0
2, 160027, Note_on_c, 0, 72, 0
2, 160030, Note_on_c, 0, 57, 0
2, 160102, Control_c, 0, 64, 0
2, 160150, Note_on_c, 0, 70, 48
2, 160173, Note_on_c, 0, 62, 55
2, 160174, Note_on_c, 0, 65, 54
2, 160198, Note_on_c, 0, 55, 45
2, 160222, Control_c, 0, 64, 127
2, 160290, Note_on_c, 0, 55, 0
2, 160311, Note_on_c, 0, 62, 0
2, 160316, Note_on_c, 0, 65, 0
2, 160417, Note_on_c, 0, 70, 0
2, 161079, Note_on_c, 0, 85, 58
2, 161080, Note_on_c, 0, 66, 53
2, 161082, Note_on_c, 0, 73, 50
2, 161088, Note_on_c, 0, 63, 42
2, 161101, Note_on_c, 0, 56, 46
2, 161111, Note_on_c, 0, 61, 35
2, 161118, Control_c, 0, 64, 0
2, 161390, Control_c, 0, 64, 127
2, 161706, Note_on_c, 0, 61, 0
2, 161706, Note_on_c, 0, 66, 0
2, 161791, Note_on_c, 0, 85, 0
2, 161814, Note_on_c, 0, 56, 0
2, 161829, Note_on_c, 0, 73, 0
2, 161845, Note_on_c, 0, 63, 0
2, 162236, Note_on_c, 0, 66, 50
2, 162250, Note_on_c, 0, 63, 33
2, 162257, Note_on_c, 0, 82, 56
2, 162265, Note_on_c, 0, 56, 28
2, 162267, Note_on_c, 0, 61, 33
2, 162275, Note_on_c, 0, 70, 43
2, 162412, Note_on_c, 0, 82, 0
2, 162437, Note_on_c, 0, 61, 0
2, 162441, Note_on_c, 0, 70, 0
2, 162443, Note_on_c, 0, 56, 0
2, 162446, Note_on_c, 0, 66, 0
2, 162459, Note_on_c, 0, 63, 0
2, 162636, Note_on_c, 0, 78, 31
2, 162645, Control_c, 0, 64, 0
2, 162646, Note_on_c, 0, 63, 38
2, 162650, Note_on_c, 0, 66, 31
2, 162651, Note_on_c, 0, 56, 34
2, 162664, Note_on_c, 0, 61, 42
2, 162918, Control_c, 0, 64, 127
2, 163081, Note_on_c, 0, 61, 0
2, 163095, Note_on_c, 0, 63, 0
2, 163102, Note_on_c, 0, 66, 0
2, 163145, Note_on_c, 0, 56, 0
2, 163271, Note_on_c, 0, 66, 49
2, 163275, Note_on_c, 0, 63, 37
2, 163288, Note_on_c, 0, 56, 32
2, 163305, Note_on_c, 0, 61, 34
2, 163514, Note_on_c, 0, 63, 0
2, 163545, Note_on_c, 0, 78, 0
2, 163552, Note_on_c, 0, 61, 0
2, 163646, Note_on_c, 0, 56, 0
2, 163683, Note_on_c, 0, 66, 0
2, 164138, Control_c, 0, 64, 0
2, 164140, Note_on_c, 0, 62, 31
2, 164148, Note_on_c, 0, 58, 26
2, 164149, Note_on_c, 0, 65, 33
2, 164152, Note_on_c, 0, 72, 35
2, 164153, Note_on_c, 0, 60, 41
2, 164166, Note_on_c, 0, 69, 41
2, 164377, Control_c, 0, 64, 127
2, 164484, Note_on_c, 0, 65, 0
2, 164520, Note_on_c, 0, 62, 0
2, 164521, Note_on_c, 0, 60, 0
2, 164535, Note_on_c, 0, 69, 0
2, 164557, Note_on_c, 0, 72, 0
2, 164561, Note_on_c, 0, 58, 0
2, 165161, Note_on_c, 0, 62, 55
2, 165162, Note_on_c, 0, 58, 49
2, 165165, Note_on_c, 0, 77, 78
2, 165166, Note_on_c, 0, 84, 85
2, 165171, Note_on_c, 0, 60, 56
2, 165196, Control_c, 0, 64, 0
2, 165316, Control_c, 0, 64, 127
2, 165320, Note_on_c, 0, 77, 0
2, 165336, Note_on_c, 0, 84, 0
2, 165363, Note_on_c, 0, 81, 54
2, 165374, Note_on_c, 0, 72, 37
2, 165448, Note_on_c, 0, 81, 0
2, 165459, Note_on_c, 0, 72, 0
2, 165470, Note_on_c, 0, 60, 0
2, 165484, Note_on_c, 0, 62, 0
2, 165515, Note_on_c, 0, 58, 0
2, 165606, Control_c, 0, 64, 0
2, 165672, Note_on_c, 0, 74, 66
2, 165674, Note_on_c, 0, 81, 64
2, 165680, Note_on_c, 0, 62, 43
2, 165688, Note_on_c, 0, 58, 39
2, 165696, Note_on_c, 0, 60, 48
2, 165725, Note_on_c, 0, 60, 0
2, 165734, Note_on_c, 0, 74, 0
2, 165739, Note_on_c, 0, 62, 0
2, 165744, Note_on_c, 0, 81, 0
2, 165760, Note_on_c, 0, 58, 0
2, 166075, Control_c, 0, 64, 127
2, 166314, Control_c, 0, 64, 0
2, 166324, Note_on_c, 0, 77, 55
2, 166330, Note_on_c, 0, 69, 53
2, 166332, Note_on_c, 0, 62, 45
2, 166344, Note_on_c, 0, 74, 34
2, 166347, Note_on_c, 0, 58, 35
2, 166352, Note_on_c, 0, 60, 49
2, 166493, Control_c, 0, 64, 127
2, 166685, Note_on_c, 0, 60, 0
2, 166686, Note_on_c, 0, 62, 0
2, 166746, Note_on_c, 0, 58, 0
2, 166784, Note_on_c, 0, 77, 0
2, 166790, Note_on_c, 0, 69, 0
2, 166794, Note_on_c, 0, 74, 0
2, 167212, Note_on_c, 0, 73, 57
2, 167212, Control_c, 0, 64, 0
2, 167212, Note_on_c, 0, 51, 26
2, 167217, Note_on_c, 0, 61, 25
2, 167222, Note_on_c, 0, 58, 34
2, 167234, Note_on_c, 0, 68, 35
2, 167234, Note_on_c, 0, 56, 35
2, 167544, Control_c, 0, 64, 127
2, 167620, Note_on_c, 0, 61, 0
2, 167656, Note_on_c, 0, 56, 0
2, 167657, Note_on_c, 0, 68, 0
2, 167675, Note_on_c, 0, 73, 0
2, 167687, Note_on_c, 0, 51, 0
2, 167705, Note_on_c, 0, 58, 0
2, 168106, Control_c, 0, 64, 0
2, 168230, Note_on_c, 0, 61, 47
2, 168230, Note_on_c, 0, 51, 36
2, 168231, Note_on_c, 0, 85, 47
2, 168236, Note_on_c, 0, 97, 52
2, 168238, Note_on_c, 0, 58, 33
2, 168251, Note_on_c, 0, 56, 27
2, 168259, Note_on_c, 0, 85, 0
2, 168273, Note_on_c, 0, 97, 0
2, 168278, Note_on_c, 0, 58, 0
2, 168280, Note_on_c, 0, 61, 0
2, 168282, Note_on_c, 0, 51, 0
2, 168285, Note_on_c, 0, 56, 0
2, 168503, Note_on_c, 0, 97, 64
2, 168505, Note_on_c, 0, 85, 60
2, 168506, Note_on_c, 0, 61, 57
2, 168516, Note_on_c, 0, 58, 34
2, 168524, Note_on_c, 0, 51, 30
2, 168533, Note_on_c, 0, 97, 0
2, 168534, Note_on_c, 0, 85, 0
2, 168545, Note_on_c, 0, 61, 0
2, 168549, Note_on_c, 0, 58, 0
2, 168554, Note_on_c, 0, 51, 0
2, 168773, Note_on_c, 0, 61, 72
2, 168780, Note_on_c, 0, 51, 62
2, 168785, Note_on_c, 0, 97, 73
2, 168787, Note_on_c, 0, 58, 51
2, 168795, Note_on_c, 0, 85, 65
2, 168803, Note_on_c, 0, 56, 32
2, 169216, Note_on_c, 0, 97, 0
2, 169258, Note_on_c, 0, 85, 0
2, 169312, Note_on_c, 0, 56, 0
2, 169315, Note_on_c, 0, 51, 0
2, 169315, Note_on_c, 0, 58, 0
2, 169322, Note_on_c, 0, 61, 0
2, 169379, Note_on_c, 0, 94, 60
2, 169389, Note_on_c, 0, 61, 38
2, 169392, Note_on_c, 0, 51, 49
2, 169395, Note_on_c, 0, 82, 50
2, 169409, Note_on_c, 0, 58, 39
2, 169417, Note_on_c, 0, 56, 33
2, 169864, Control_c, 0, 64, 127
2, 169937, Note_on_c, 0, 51, 0
2, 169952, Note_on_c, 0, 61, 0
2, 169959, Note_on_c, 0, 56, 0
2, 169974, Note_on_c, 0, 94, 0
2, 169979, Note_on_c, 0, 58, 0
2, 170005, Note_on_c, 0, 82, 0
2, 170300, Control_c, 0, 64, 0
2, 170555, Note_on_c, 0, 69, 70
2, 170558, Note_on_c, 0, 74, 58
2, 170565, Note_on_c, 0, 62, 54
2, 170574, Note_on_c, 0, 58, 39
2, 170584, Note_on_c, 0, 69, 0
2, 170587, Note_on_c, 0, 74, 0
2, 170594, Note_on_c, 0, 62, 0
2, 170604, Note_on_c, 0, 58, 0
2, 171055, Note_on_c, 0, 69, 77
2, 171058, Note_on_c, 0, 74, 74
2, 171063, Note_on_c, 0, 62, 44
2, 171077, Note_on_c, 0, 57, 33
2, 171078, Note_on_c, 0, 58, 48
2, 171232, Control_c, 0, 64, 127
2, 171642, Note_on_c, 0, 69, 0
2, 171689, Note_on_c, 0, 62, 0
2, 171749, Note_on_c, 0, 58, 0
2, 171805, Control_c, 0, 64, 0
2, 171818, Note_on_c, 0, 69, 43
2, 171827, Note_on_c, 0, 74, 0
2, 171831, Note_on_c, 0, 65, 47
2, 171832, Note_on_c, 0, 62, 37
2, 171844, Note_on_c, 0, 58, 36
2, 172205, Control_c, 0, 64, 127
2, 172329, Note_on_c, 0, 65, 0
2, 172331, Note_on_c, 0, 62, 0
2, 172343, Note_on_c, 0, 58, 0
2, 172350, Note_on_c, 0, 69, 0
2, 172446, Note_on_c, 0, 69, 46
2, 172449, Note_on_c, 0, 65, 45
2, 172458, Note_on_c, 0, 62, 37
2, 172470, Control_c, 0, 64, 0
2, 172473, Note_on_c, 0, 58, 38
2, 172674, Control_c, 0, 64, 127
2, 172901, Note_on_c, 0, 62, 0
2, 172930, Note_on_c, 0, 65, 0
2, 172930, Note_on_c, 0, 58, 0
2, 172943, Note_on_c, 0, 57, 0
2, 172968, Note_on_c, 0, 69, 0
2, 173263, Control_c, 0, 64, 0
2, 174056, Note_on_c, 0, 79, 76
2, 174058, Note_on_c, 0, 62, 60
2, 174063, Note_on_c, 0, 67, 58
2, 174069, Note_on_c, 0, 72, 56
2, 174081, Note_on_c, 0, 57, 36
2, 174086, Note_on_c, 0, 79, 0
2, 174087, Note_on_c, 0, 55, 32
2, 174088, Note_on_c, 0, 62, 0
2, 174093, Note_on_c, 0, 67, 0
2, 174115, Note_on_c, 0, 72, 0
2, 174115, Note_on_c, 0, 57, 0
2, 174117, Note_on_c, 0, 55, 0
2, 174495, Note_on_c, 0, 79, 78
2, 174497, Note_on_c, 0, 67, 71
2, 174498, Note_on_c, 0, 72, 74
2, 174509, Note_on_c, 0, 51, 60
2, 174512, Note_on_c, 0, 62, 71
2, 174518, Control_c, 0, 64, 127
2, 174521, Note_on_c, 0, 57, 54
2, 174527, Note_on_c, 0, 55, 54
2, 174708, Note_on_c, 0, 67, 0
2, 174721, Note_on_c, 0, 72, 0
2, 174732, Note_on_c, 0, 55, 0
2, 174733, Note_on_c, 0, 57, 0
2, 174743, Note_on_c, 0, 79, 0
2, 174746, Note_on_c, 0, 51, 0
2, 174787, Note_on_c, 0, 62, 0
2, 174877, Control_c, 0, 64, 0
2, 174893, Note_on_c, 0, 82, 79
2, 174898, Note_on_c, 0, 70, 78
2, 174906, Note_on_c, 0, 64, 68
2, 174909, Note_on_c, 0, 54, 70
2, 174911, Note_on_c, 0, 60, 66
2, 174921, Note_on_c, 0, 58, 42
2, 175072, Note_on_c, 0, 58, 0
2, 175260, Control_c, 0, 64, 127
2, 175396, Note_on_c, 0, 82, 0
2, 175468, Note_on_c, 0, 70, 0
2, 175485, Note_on_c, 0, 60, 0
2, 175502, Note_on_c, 0, 64, 0
2, 175524, Note_on_c, 0, 54, 0
2, 175627, Control_c, 0, 64, 0
2, 175654, Note_on_c, 0, 79, 48
2, 175658, Note_on_c, 0, 67, 36
2, 175666, Note_on_c, 0, 64, 47
2, 175666, Note_on_c, 0, 74, 37
2, 175675, Note_on_c, 0, 60, 47
2, 175681, Note_on_c, 0, 54, 35
2, 175773, Control_c, 0, 64, 127
2, 175978, Note_on_c, 0, 74, 0
2, 175983, Note_on_c, 0, 64, 0
2, 175998, Note_on_c, 0, 79, 0
2, 176006, Note_on_c, 0, 60, 0
2, 176085, Note_on_c, 0, 67, 0
2, 176195, Note_on_c, 0, 54, 0
2, 176283, Note_on_c, 0, 70, 60
2, 176286, Note_on_c, 0, 77, 59
2, 176287, Note_on_c, 0, 65, 66
2, 176293, Note_on_c, 0, 74, 42
2, 176303, Note_on_c, 0, 62, 60
2, 176326, Note_on_c, 0, 74, 0
2, 176333, Note_on_c, 0, 65, 0
2, 176335, Control_c, 0, 64, 0
2, 176336, Note_on_c, 0, 62, 0
2, 176344, Note_on_c, 0, 70, 0
2, 176346, Note_on_c, 0, 77, 0
2, 176680, Note_on_c, 0, 62, 66
2, 176684, Note_on_c, 0, 69, 55
2, 176685, Note_on_c, 0, 72, 61
2, 176686, Note_on_c, 0, 65, 61
2, 176692, Note_on_c, 0, 57, 60
2, 176858, Control_c, 0, 64, 127
2, 177080, Note_on_c, 0, 65, 0
2, 177083, Note_on_c, 0, 62, 0
2, 177090, Note_on_c, 0, 72, 0
2, 177124, Note_on_c, 0, 69, 0
2, 177148, Control_c, 0, 64, 0
2, 177203, Note_on_c, 0, 70, 58
2, 177206, Note_on_c, 0, 55, 51
2, 177209, Note_on_c, 0, 65, 36
2, 177210, Note_on_c, 0, 62, 32
2, 177223, Note_on_c, 0, 57, 0
2, 177302, Note_on_c, 0, 65, 0
2, 177309, Note_on_c, 0, 62, 0
2, 177365, Note_on_c, 0, 70, 0
2, 177438, Note_on_c, 0, 55, 0
2, 177573, Note_on_c, 0, 69, 60
2, 177573, Note_on_c, 0, 62, 49
2, 177573, Note_on_c, 0, 53, 54
2, 177588, Note_on_c, 0, 65, 33
2, 177638, Note_on_c, 0, 65, 0
2, 177686, Note_on_c, 0, 69, 0
2, 177691, Note_on_c, 0, 62, 0
2, 177789, Note_on_c, 0, 53, 0
2, 177801, Note_on_c, 0, 56, 42
2, 177862, Note_on_c, 0, 56, 0
2, 177954, Note_on_c, 0, 58, 61
2, 177957, Note_on_c, 0, 67, 47
2, 177960, Note_on_c, 0, 70, 52
2, 177962, Note_on_c, 0, 64, 50
2, 177966, Note_on_c, 0, 60, 44
2, 178318, Control_c, 0, 64, 127
2, 178447, Note_on_c, 0, 67, 0
2, 178451, Note_on_c, 0, 60, 0
2, 178460, Note_on_c, 0, 64, 0
2, 178566, Note_on_c, 0, 70, 0
2, 178594, Note_on_c, 0, 67, 42
2, 178598, Note_on_c, 0, 58, 0
2, 178599, Note_on_c, 0, 60, 48
2, 178608, Control_c, 0, 64, 0
2, 178610, Note_on_c, 0, 64, 45
2, 178615, Note_on_c, 0, 55, 46
2, 178744, Control_c, 0, 64, 127
2, 178869, Note_on_c, 0, 60, 0
2, 178914, Note_on_c, 0, 55, 0
2, 178949, Note_on_c, 0, 64, 0
2, 179018, Note_on_c, 0, 67, 0
2, 179427, Control_c, 0, 64, 0
2, 179729, Note_on_c, 0, 63, 68
2, 179730, Note_on_c, 0, 74, 57
2, 179731, Note_on_c, 0, 86, 71
2, 179732, Note_on_c, 0, 79, 62
2, 179740, Note_on_c, 0, 60, 57
2, 179756, Note_on_c, 0, 55, 35
2, 179760, Note_on_c, 0, 86, 0
2, 179762, Note_on_c, 0, 79, 0
2, 179768, Note_on_c, 0, 74, 0
2, 179769, Note_on_c, 0, 60, 0
2, 179786, Note_on_c, 0, 63, 0
2, 179789, Note_on_c, 0, 55, 0
2, 179990, Control_c, 0, 64, 127
2, 180005, Note_on_c, 0, 84, 74
2, 180008, Note_on_c, 0, 63, 62
2, 180023, Note_on_c, 0, 55, 53
2, 180025, Note_on_c, 0, 60, 48
2, 180029, Note_on_c, 0, 72, 29
2, 180032, Note_on_c, 0, 79, 43
2, 180040, Note_on_c, 0, 57, 39
2, 180044, Note_on_c, 0, 74, 31
2, 180115, Note_on_c, 0, 74, 0
2, 180117, Note_on_c, 0, 72, 0
2, 180144, Note_on_c, 0, 79, 0
2, 180156, Note_on_c, 0, 84, 0
2, 180169, Note_on_c, 0, 55, 0
2, 180178, Note_on_c, 0, 63, 0
2, 180179, Note_on_c, 0, 57, 0
2, 180203, Control_c, 0, 64, 0
2, 180214, Note_on_c, 0, 60, 0
2, 180264, Note_on_c, 0, 86, 74
2, 180273, Note_on_c, 0, 63, 52
2, 180274, Note_on_c, 0, 74, 56
2, 180274, Note_on_c, 0, 79, 56
2, 180278, Note_on_c, 0, 55, 52
2, 180290, Note_on_c, 0, 60, 43
2, 180349, Control_c, 0, 64, 127
2, 180386, Note_on_c, 0, 86, 0
2, 180414, Note_on_c, 0, 74, 0
2, 180420, Note_on_c, 0, 63, 0
2, 180436, Note_on_c, 0, 55, 0
2, 180442, Control_c, 0, 64, 0
2, 180452, Note_on_c, 0, 79, 0
2, 180481, Note_on_c, 0, 60, 0
2, 180496, Note_on_c, 0, 63, 52
2, 180506, Note_on_c, 0, 72, 58
2, 180515, Note_on_c, 0, 84, 64
2, 180517, Note_on_c, 0, 79, 44
2, 180520, Note_on_c, 0, 55, 19
2, 180535, Note_on_c, 0, 72, 0
2, 180544, Note_on_c, 0, 60, 15
2, 180552, Note_on_c, 0, 79, 0
2, 180567, Note_on_c, 0, 63, 0
2, 180572, Note_on_c, 0, 55, 0
2, 180576, Note_on_c, 0, 60, 0
2, 180582, Note_on_c, 0, 84, 0
2, 180839, Note_on_c, 0, 89, 81
2, 180841, Note_on_c, 0, 64, 79
2, 180841, Note_on_c, 0, 54, 83
2, 180843, Note_on_c, 0, 60, 77
2, 180854, Note_on_c, 0, 77, 62
2, 180859, Note_on_c, 0, 76, 50
2, 180888, Note_on_c, 0, 76, 0
2, 180913, Note_on_c, 0, 64, 0
2, 180918, Note_on_c, 0, 77, 0
2, 180928, Note_on_c, 0, 89, 0
2, 180944, Note_on_c, 0, 60, 0
2, 180953, Note_on_c, 0, 54, 0
2, 181248, Note_on_c, 0, 86, 79
2, 181253, Note_on_c, 0, 74, 73
2, 181259, Note_on_c, 0, 64, 67
2, 181261, Note_on_c, 0, 54, 73
2, 181264, Note_on_c, 0, 81, 70
2, 181266, Note_on_c, 0, 60, 64
2, 181356, Control_c, 0, 64, 127
2, 181592, Note_on_c, 0, 86, 0
2, 181598, Note_on_c, 0, 81, 0
2, 181650, Note_on_c, 0, 74, 0
2, 181672, Note_on_c, 0, 64, 0
2, 181702, Note_on_c, 0, 54, 0
2, 181717, Note_on_c, 0, 60, 0
2, 181748, Control_c, 0, 64, 0
2, 181780, Note_on_c, 0, 84, 60
2, 181796, Note_on_c, 0, 54, 37
2, 181797, Note_on_c, 0, 60, 36
2, 181800, Note_on_c, 0, 72, 37
2, 181801, Note_on_c, 0, 79, 41
2, 181803, Note_on_c, 0, 64, 24
2, 181835, Note_on_c, 0, 79, 0
2, 181844, Note_on_c, 0, 60, 0
2, 181844, Note_on_c, 0, 64, 0
2, 181848, Note_on_c, 0, 84, 0
2, 181867, Note_on_c, 0, 54, 0
2, 181881, Note_on_c, 0, 72, 0
2, 182137, Note_on_c, 0, 54, 53
2, 182140, Note_on_c, 0, 82, 56
2, 182147, Note_on_c, 0, 64, 32
2, 182153, Note_on_c, 0, 70, 48
2, 182157, Note_on_c, 0, 60, 33
2, 182184, Note_on_c, 0, 58, 27
2, 182196, Note_on_c, 0, 60, 0
2, 182210, Note_on_c, 0, 64, 0
2, 182218, Control_c, 0, 64, 127
2, 182259, Note_on_c, 0, 82, 0
2, 182266, Note_on_c, 0, 70, 0
2, 182273, Note_on_c, 0, 58, 0
2, 182320, Note_on_c, 0, 54, 0
2, 182465, Control_c, 0, 64, 0
2, 182518, Note_on_c, 0, 81, 51
2, 182527, Note_on_c, 0, 62, 35
2, 182529, Note_on_c, 0, 57, 35
2, 182533, Note_on_c, 0, 74, 44
2, 182534, Note_on_c, 0, 55, 47
2, 182539, Note_on_c, 0, 69, 35
2, 182543, Note_on_c, 0, 58, 31
2, 182678, Control_c, 0, 64, 127
2, 182778, Note_on_c, 0, 81, 0
2, 182828, Note_on_c, 0, 74, 0
2, 182832, Note_on_c, 0, 62, 0
2, 182866, Note_on_c, 0, 57, 0
2, 182866, Note_on_c, 0, 58, 0
2, 182871, Note_on_c, 0, 69, 0
2, 182930, Note_on_c, 0, 55, 0
2, 183231, Note_on_c, 0, 55, 55
2, 183275, Control_c, 0, 64, 0
2, 183313, Note_on_c, 0, 55, 0
2, 183318, Note_on_c, 0, 69, 79
2, 183319, Note_on_c, 0, 62, 71
2, 183327, Note_on_c, 0, 57, 74
2, 183328, Note_on_c, 0, 58, 65
2, 183337, Note_on_c, 0, 65, 58
2, 183579, Note_on_c, 0, 65, 0
2, 183584, Note_on_c, 0, 69, 0
2, 183599, Note_on_c, 0, 58, 0
2, 183611, Note_on_c, 0, 57, 0
2, 183615, Note_on_c, 0, 62, 0
2, 183624, Note_on_c, 0, 55, 60
2, 183702, Note_on_c, 0, 55, 0
2, 183708, Note_on_c, 0, 69, 74
2, 183713, Note_on_c, 0, 62, 46
2, 183713, Note_on_c, 0, 58, 58
2, 183722, Note_on_c, 0, 57, 60
2, 183737, Note_on_c, 0, 65, 47
2, 183993, Note_on_c, 0, 58, 0
2, 184025, Note_on_c, 0, 62, 0
2, 184040, Note_on_c, 0, 65, 0
2, 184051, Note_on_c, 0, 69, 0
2, 184105, Note_on_c, 0, 55, 48
2, 184109, Note_on_c, 0, 58, 38
2, 184112, Note_on_c, 0, 67, 35
2, 184113, Note_on_c, 0, 57, 0
2, 184115, Note_on_c, 0, 62, 41
2, 184300, Note_on_c, 0, 62, 0
2, 184301, Note_on_c, 0, 58, 0
2, 184342, Note_on_c, 0, 67, 0
2, 184377, Note_on_c, 0, 58, 59
2, 184378, Note_on_c, 0, 55, 0
2, 184379, Note_on_c, 0, 69, 62
2, 184381, Note_on_c, 0, 57, 60
2, 184382, Note_on_c, 0, 62, 64
2, 184407, Note_on_c, 0, 65, 39
2, 184440, Note_on_c, 0, 65, 0
2, 184440, Note_on_c, 0, 69, 0
2, 184452, Note_on_c, 0, 67, 33
2, 184453, Note_on_c, 0, 58, 0
2, 184459, Note_on_c, 0, 57, 0
2, 184461, Note_on_c, 0, 62, 0
2, 184496, Note_on_c, 0, 55, 28
2, 184509, Note_on_c, 0, 67, 0
2, 184740, Note_on_c, 0, 58, 67
2, 184741, Note_on_c, 0, 62, 64
2, 184742, Note_on_c, 0, 69, 74
2, 184751, Note_on_c, 0, 65, 60
2, 184754, Note_on_c, 0, 57, 64
2, 184760, Note_on_c, 0, 55, 0
2, 184846, Control_c, 0, 64, 127
2, 184991, Note_on_c, 0, 58, 0
2, 185041, Note_on_c, 0, 62, 0
2, 185075, Note_on_c, 0, 57, 0
2, 185084, Note_on_c, 0, 65, 0
2, 185104, Note_on_c, 0, 69, 0
2, 185562, Control_c, 0, 64, 0
2, 185602, Note_on_c, 0, 63, 61
2, 185607, Note_on_c, 0, 79, 73
2, 185607, Note_on_c, 0, 72, 71
2, 185634, Note_on_c, 0, 55, 30
2, 185641, Note_on_c, 0, 72, 0
2, 185662, Note_on_c, 0, 63, 0
2, 185669, Note_on_c, 0, 55, 0
2, 185671, Note_on_c, 0, 79, 0
2, 185989, Control_c, 0, 64, 127
2, 186210, Note_on_c, 0, 75, 62
2, 186219, Control_c, 0, 64, 0
2, 186222, Note_on_c, 0, 67, 41
2, 186230, Note_on_c, 0, 63, 50
2, 186231, Note_on_c, 0, 72, 53
2, 186242, Note_on_c, 0, 55, 47
2, 186244, Note_on_c, 0, 60, 39
2, 186374, Control_c, 0, 64, 127
2, 186758, Note_on_c, 0, 55, 0
2, 186790, Note_on_c, 0, 63, 0
2, 186800, Note_on_c, 0, 60, 0
2, 186807, Note_on_c, 0, 72, 0
2, 186825, Note_on_c, 0, 67, 0
2, 186836, Note_on_c, 0, 75, 0
2, 187124, Control_c, 0, 64, 0
2, 187150, Note_on_c, 0, 54, 70
2, 187151, Note_on_c, 0, 70, 73
2, 187152, Note_on_c, 0, 77, 71
2, 187155, Note_on_c, 0, 60, 68
2, 187158, Note_on_c, 0, 65, 68
2, 187163, Note_on_c, 0, 74, 51
2, 187517, Control_c, 0, 64, 127
2, 187577, Note_on_c, 0, 74, 0
2, 187607, Note_on_c, 0, 77, 0
2, 187638, Note_on_c, 0, 60, 0
2, 187652, Note_on_c, 0, 65, 0
2, 187682, Note_on_c, 0, 54, 0
2, 187692, Note_on_c, 0, 70, 0
2, 187787, Note_on_c, 0, 74, 61
2, 187791, Note_on_c, 0, 70, 64
2, 187795, Note_on_c, 0, 65, 57
2, 187803, Note_on_c, 0, 60, 64
2, 187807, Control_c, 0, 64, 0
2, 187810, Note_on_c, 0, 54, 55
2, 187977, Control_c, 0, 64, 127
2, 188228, Note_on_c, 0, 60, 0
2, 188301, Note_on_c, 0, 74, 0
2, 188302, Note_on_c, 0, 70, 0
2, 188342, Note_on_c, 0, 65, 0
2, 188354, Note_on_c, 0, 54, 0
2, 188566, Note_on_c, 0, 54, 28
2, 188623, Note_on_c, 0, 54, 0
2, 188634, Control_c, 0, 64, 0
2, 188646, Note_on_c, 0, 55, 48
2, 188688, Note_on_c, 0, 55, 0
2, 188688, Note_on_c, 0, 56, 50
2, 188694, Note_on_c, 0, 69, 68
2, 188695, Note_on_c, 0, 62, 77
2, 188699, Note_on_c, 0, 65, 70
2, 188700, Note_on_c, 0, 72, 70
2, 188702, Note_on_c, 0, 57, 71
2, 188732, Note_on_c, 0, 56, 0
2, 188887, Note_on_c, 0, 65, 0
2, 188895, Note_on_c, 0, 62, 0
2, 188901, Note_on_c, 0, 72, 0
2, 188910, Note_on_c, 0, 69, 0
2, 188941, Note_on_c, 0, 57, 0
2, 189093, Note_on_c, 0, 70, 75
2, 189103, Note_on_c, 0, 62, 61
2, 189105, Note_on_c, 0, 55, 55
2, 189116, Note_on_c, 0, 65, 36
2, 189275, Note_on_c, 0, 65, 0
2, 189300, Note_on_c, 0, 70, 0
2, 189301, Note_on_c, 0, 62, 0
2, 189379, Note_on_c, 0, 55, 0
2, 189471, Note_on_c, 0, 62, 50
2, 189479, Control_c, 0, 64, 127
2, 189480, Note_on_c, 0, 69, 50
2, 189483, Note_on_c, 0, 54, 52
2, 189497, Note_on_c, 0, 65, 40
2, 189551, Note_on_c, 0, 65, 0
2, 189609, Note_on_c, 0, 62, 0
2, 189702, Note_on_c, 0, 69, 0
2, 189732, Note_on_c, 0, 54, 0
2, 189733, Note_on_c, 0, 70, 64
2, 189736, Control_c, 0, 64, 0
2, 189740, Note_on_c, 0, 62, 47
2, 189747, Note_on_c, 0, 65, 43
2, 189747, Note_on_c, 0, 55, 57
2, 189915, Control_c, 0, 64, 127
2, 190027, Note_on_c, 0, 65, 0
2, 190055, Note_on_c, 0, 62, 0
2, 190072, Note_on_c, 0, 70, 0
2, 190160, Note_on_c, 0, 55, 0
2, 190162, Control_c, 0, 64, 0
2, 190218, Note_on_c, 0, 67, 33
2, 190218, Note_on_c, 0, 48, 49
2, 190218, Note_on_c, 0, 58, 31
2, 190222, Note_on_c, 0, 60, 39
2, 190230, Note_on_c, 0, 64, 37
2, 190547, Note_on_c, 0, 58, 0
2, 190597, Control_c, 0, 64, 127
2, 190661, Note_on_c, 0, 64, 0
2, 190668, Note_on_c, 0, 60, 0
2, 190782, Note_on_c, 0, 67, 0
2, 190833, Note_on_c, 0, 64, 37
2, 190851, Note_on_c, 0, 60, 32
2, 190855, Note_on_c, 0, 58, 39
2, 190880, Note_on_c, 0, 60, 0
2, 190912, Note_on_c, 0, 48, 0
2, 190919, Note_on_c, 0, 64, 0
2, 190922, Note_on_c, 0, 58, 0
2, 191502, Control_c, 0, 64, 0
2, 191527, Note_on_c, 0, 96, 74
2, 191541, Note_on_c, 0, 84, 61
2, 191588, Note_on_c, 0, 84, 0
2, 191594, Note_on_c, 0, 96, 0
2, 191660, Note_on_c, 0, 95, 60
2, 191715, Note_on_c, 0, 95, 0
2, 191756, Note_on_c, 0, 51, 42
2, 191761, Note_on_c, 0, 60, 57
2, 191782, Note_on_c, 0, 96, 84
2, 191783, Note_on_c, 0, 57, 49
2, 191790, Note_on_c, 0, 84, 64
2, 191800, Note_on_c, 0, 55, 41
2, 192065, Control_c, 0, 64, 127
2, 192106, Note_on_c, 0, 96, 0
2, 192151, Note_on_c, 0, 84, 0
2, 192178, Note_on_c, 0, 55, 0
2, 192212, Note_on_c, 0, 57, 0
2, 192215, Note_on_c, 0, 60, 0
2, 192235, Note_on_c, 0, 51, 0
2, 192382, Note_on_c, 0, 93, 66
2, 192385, Note_on_c, 0, 51, 46
2, 192389, Control_c, 0, 64, 0
2, 192390, Note_on_c, 0, 60, 62
2, 192392, Note_on_c, 0, 81, 51
2, 192409, Note_on_c, 0, 57, 35
2, 192412, Note_on_c, 0, 93, 0
2, 192419, Note_on_c, 0, 51, 0
2, 192420, Note_on_c, 0, 60, 0
2, 192424, Note_on_c, 0, 81, 0
2, 192447, Note_on_c, 0, 57, 0
2, 192911, Note_on_c, 0, 98, 92
2, 192917, Note_on_c, 0, 86, 77
2, 192919, Control_c, 0, 64, 127
2, 192920, Note_on_c, 0, 65, 83
2, 192921, Note_on_c, 0, 60, 78
2, 192924, Note_on_c, 0, 54, 83
2, 192926, Note_on_c, 0, 58, 67
2, 192927, Note_on_c, 0, 88, 74
2, 192928, Note_on_c, 0, 93, 79
2, 192955, Note_on_c, 0, 88, 0
2, 193358, Note_on_c, 0, 98, 0
2, 193359, Note_on_c, 0, 93, 0
2, 193369, Note_on_c, 0, 65, 0
2, 193412, Note_on_c, 0, 58, 0
2, 193413, Note_on_c, 0, 54, 0
2, 193415, Note_on_c, 0, 60, 0
2, 193416, Note_on_c, 0, 86, 0
2, 193515, Note_on_c, 0, 96, 70
2, 193529, Note_on_c, 0, 64, 67
2, 193530, Note_on_c, 0, 54, 71
2, 193531, Note_on_c, 0, 84, 56
2, 193532, Note_on_c, 0, 91, 60
2, 193535, Note_on_c, 0, 58, 56
2, 193538, Note_on_c, 0, 60, 63
2, 193540, Control_c, 0, 64, 0
2, 193746, Control_c, 0, 64, 127
2, 193749, Note_on_c, 0, 96, 0
2, 193789, Note_on_c, 0, 91, 0
2, 193872, Note_on_c, 0, 84, 0
2, 193923, Note_on_c, 0, 64, 0
2, 193924, Note_on_c, 0, 54, 0
2, 193927, Note_on_c, 0, 58, 0
2, 193949, Note_on_c, 0, 60, 0
2, 194011, Control_c, 0, 64, 0
2, 194028, Note_on_c, 0, 54, 59
2, 194037, Note_on_c, 0, 93, 66
2, 194044, Note_on_c, 0, 64, 50
2, 194047, Note_on_c, 0, 60, 50
2, 194053, Note_on_c, 0, 58, 51
2, 194056, Note_on_c, 0, 89, 48
2, 194058, Note_on_c, 0, 86, 45
2, 194059, Note_on_c, 0, 81, 39
2, 194352, Note_on_c, 0, 81, 0
2, 194395, Control_c, 0, 64, 127
2, 194405, Note_on_c, 0, 93, 0
2, 194423, Note_on_c, 0, 60, 0
2, 194443, Note_on_c, 0, 64, 0
2, 194443, Note_on_c, 0, 89, 0
2, 194443, Note_on_c, 0, 86, 0
2, 194553, Note_on_c, 0, 54, 0
2, 194573, Note_on_c, 0, 58, 0
2, 194735, Control_c, 0, 64, 0
2, 194790, Note_on_c, 0, 91, 54
2, 194791, Note_on_c, 0, 58, 34
2, 194794, Note_on_c, 0, 62, 44
2, 194798, Note_on_c, 0, 79, 46
2, 194807, Note_on_c, 0, 57, 36
2, 194810, Note_on_c, 0, 86, 50
2, 194822, Note_on_c, 0, 53, 33
2, 194924, Control_c, 0, 64, 127
2, 194971, Note_on_c, 0, 91, 0
2, 195030, Note_on_c, 0, 86, 0
2, 195096, Note_on_c, 0, 79, 0
2, 195118, Note_on_c, 0, 62, 0
2, 195168, Note_on_c, 0, 58, 0
2, 195180, Note_on_c, 0, 57, 0
2, 195242, Note_on_c, 0, 53, 0
2, 195623, Control_c, 0, 64, 0
2, 195840, Note_on_c, 0, 57, 65
2, 195843, Note_on_c, 0, 69, 70
2, 195846, Note_on_c, 0, 62, 60
2, 195847, Note_on_c, 0, 58, 57
2, 195893, Note_on_c, 0, 65, 24
2, 195900, Note_on_c, 0, 58, 0
2, 195925, Note_on_c, 0, 65, 0
2, 195930, Note_on_c, 0, 62, 0
2, 195936, Note_on_c, 0, 57, 0
2, 195955, Note_on_c, 0, 69, 0
2, 195982, Note_on_c, 0, 55, 34
2, 196234, Note_on_c, 0, 58, 63
2, 196236, Note_on_c, 0, 62, 60
2, 196238, Note_on_c, 0, 69, 66
2, 196248, Note_on_c, 0, 65, 56
2, 196259, Note_on_c, 0, 57, 54
2, 196263, Note_on_c, 0, 55, 0
2, 196667, Note_on_c, 0, 58, 0
2, 196671, Note_on_c, 0, 69, 0
2, 196682, Note_on_c, 0, 65, 0
2, 196732, Note_on_c, 0, 57, 0
2, 196737, Note_on_c, 0, 58, 14
2, 196750, Note_on_c, 0, 55, 38
2, 196795, Note_on_c, 0, 62, 0
2, 196857, Note_on_c, 0, 58, 0
2, 196990, Note_on_c, 0, 58, 48
2, 196992, Note_on_c, 0, 69, 57
2, 196995, Note_on_c, 0, 62, 57
2, 197013, Note_on_c, 0, 57, 51
2, 197014, Note_on_c, 0, 65, 48
2, 197045, Note_on_c, 0, 55, 0
2, 197082, Control_c, 0, 64, 127
2, 197208, Note_on_c, 0, 58, 0
2, 197266, Note_on_c, 0, 62, 0
2, 197273, Note_on_c, 0, 65, 0
2, 197339, Note_on_c, 0, 57, 0
2, 197355, Note_on_c, 0, 69, 0
2, 197578, Control_c, 0, 64, 0
2, 198117, Note_on_c, 0, 79, 67
2, 198122, Note_on_c, 0, 67, 62
2, 198125, Note_on_c, 0, 60, 68
2, 198143, Note_on_c, 0, 57, 36
2, 198151, Note_on_c, 0, 67, 0
2, 198155, Note_on_c, 0, 60, 0
2, 198167, Note_on_c, 0, 79, 0
2, 198178, Note_on_c, 0, 57, 0
2, 198654, Note_on_c, 0, 79, 73
2, 198660, Note_on_c, 0, 67, 61
2, 198663, Note_on_c, 0, 57, 36
2, 198665, Note_on_c, 0, 51, 45
2, 198668, Note_on_c, 0, 60, 50
2, 198712, Control_c, 0, 64, 127
2, 198994, Note_on_c, 0, 67, 0
2, 199008, Note_on_c, 0, 57, 0
2, 199030, Note_on_c, 0, 51, 0
2, 199033, Note_on_c, 0, 60, 0
2, 199061, Note_on_c, 0, 79, 0
2, 199386, Control_c, 0, 64, 0
2, 199422, Note_on_c, 0, 86, 79
2, 199428, Note_on_c, 0, 54, 78
2, 199429, Note_on_c, 0, 64, 72
2, 199430, Note_on_c, 0, 80, 73
2, 199432, Note_on_c, 0, 60, 69
2, 199433, Note_on_c, 0, 74, 72
2, 199543, Note_on_c, 0, 80, 0
2, 199581, Note_on_c, 0, 81, 27
2, 199782, Control_c, 0, 64, 127
2, 199857, Note_on_c, 0, 86, 0
2, 199870, Note_on_c, 0, 81, 0
2, 199880, Note_on_c, 0, 64, 0
2, 199882, Note_on_c, 0, 74, 0
2, 199919, Note_on_c, 0, 54, 0
2, 199924, Note_on_c, 0, 60, 0
2, 200044, Note_on_c, 0, 84, 68
2, 200052, Note_on_c, 0, 54, 60
2, 200057, Note_on_c, 0, 60, 64
2, 200065, Note_on_c, 0, 72, 33
2, 200067, Note_on_c, 0, 64, 34
2, 200069, Note_on_c, 0, 79, 39
2, 200072, Control_c, 0, 64, 0
2, 200077, Note_on_c, 0, 84, 0
2, 200097, Note_on_c, 0, 72, 0
2, 200102, Note_on_c, 0, 64, 0
2, 200102, Note_on_c, 0, 79, 0
2, 200109, Note_on_c, 0, 60, 0
2, 200131, Note_on_c, 0, 54, 0
2, 200447, Note_on_c, 0, 81, 65
2, 200455, Note_on_c, 0, 69, 58
2, 200455, Note_on_c, 0, 64, 66
2, 200456, Note_on_c, 0, 77, 43
2, 200457, Note_on_c, 0, 74, 45
2, 200458, Note_on_c, 0, 60, 63
2, 200458, Note_on_c, 0, 54, 65
2, 200464, Note_on_c, 0, 58, 51
2, 200575, Control_c, 0, 64, 127
2, 200733, Note_on_c, 0, 60, 0
2, 200785, Note_on_c, 0, 64, 0
2, 200806, Note_on_c, 0, 81, 0
2, 200834, Note_on_c, 0, 69, 0
2, 200854, Note_on_c, 0, 58, 0
2, 200861, Note_on_c, 0, 54, 0
2, 200873, Note_on_c, 0, 74, 0
2, 200875, Note_on_c, 0, 77, 0
2, 200942, Control_c, 0, 64, 0
2, 200963, Note_on_c, 0, 79, 50
2, 200966, Note_on_c, 0, 62, 44
2, 200966, Note_on_c, 0, 57, 47
2, 200971, Note_on_c, 0, 74, 34
2, 200973, Note_on_c, 0, 58, 25
2, 200974, Note_on_c, 0, 67, 39
2, 201008, Note_on_c, 0, 55, 24
2, 201164, Control_c, 0, 64, 127
2, 201228, Note_on_c, 0, 79, 0
2, 201268, Note_on_c, 0, 62, 0
2, 201282, Note_on_c, 0, 74, 0
2, 201302, Note_on_c, 0, 58, 0
2, 201326, Note_on_c, 0, 57, 0
2, 201326, Note_on_c, 0, 67, 0
2, 201372, Note_on_c, 0, 55, 0
2, 201711, Control_c, 0, 64, 0
2, 201733, Note_on_c, 0, 69, 66
2, 201736, Note_on_c, 0, 58, 62
2, 201738, Note_on_c, 0, 62, 59
2, 201738, Note_on_c, 0, 57, 69
2, 201759, Note_on_c, 0, 65, 49
2, 202002, Note_on_c, 0, 69, 0
2, 202005, Note_on_c, 0, 65, 0
2, 202006, Note_on_c, 0, 58, 0
2, 202008, Note_on_c, 0, 57, 0
2, 202019, Note_on_c, 0, 62, 0
2, 202034, Note_on_c, 0, 55, 52
2, 202118, Note_on_c, 0, 58, 60
2, 202119, Note_on_c, 0, 62, 44
2, 202120, Note_on_c, 0, 55, 0
2, 202125, Note_on_c, 0, 57, 66
2, 202127, Note_on_c, 0, 69, 60
2, 202135, Note_on_c, 0, 65, 46
2, 202487, Control_c, 0, 64, 127
2, 202593, Note_on_c, 0, 69, 0
2, 202600, Note_on_c, 0, 58, 0
2, 202602, Note_on_c, 0, 62, 0
2, 202627, Note_on_c, 0, 65, 0
2, 202707, Note_on_c, 0, 57, 0
2, 202753, Note_on_c, 0, 58, 53
2, 202756, Note_on_c, 0, 62, 64
2, 202757, Note_on_c, 0, 67, 53
2, 202772, Note_on_c, 0, 55, 60
2, 202777, Control_c, 0, 64, 0
2, 203104, Note_on_c, 0, 58, 0
2, 203148, Note_on_c, 0, 62, 0
2, 203149, Note_on_c, 0, 55, 0
2, 203225, Note_on_c, 0, 67, 0
2, 203254, Note_on_c, 0, 58, 56
2, 203280, Control_c, 0, 64, 127
2, 203283, Note_on_c, 0, 62, 34
2, 203499, Note_on_c, 0, 50, 92
2, 203519, Control_c, 0, 64, 0
2, 203699, Control_c, 0, 64, 127
2, 203828, Note_on_c, 0, 62, 0
2, 203852, Note_on_c, 0, 50, 0
2, 203893, Note_on_c, 0, 58, 0
2, 203997, Control_c, 0, 64, 0
2, 204013, Note_on_c, 0, 48, 51
2, 204033, Note_on_c, 0, 55, 44
2, 204033, Note_on_c, 0, 58, 57
2, 204039, Note_on_c, 0, 67, 37
2, 204044, Note_on_c, 0, 63, 55
2, 204185, Control_c, 0, 64, 127
2, 204285, Note_on_c, 0, 58, 0
2, 204358, Note_on_c, 0, 67, 0
2, 204359, Note_on_c, 0, 48, 0
2, 204368, Note_on_c, 0, 55, 0
2, 204387, Note_on_c, 0, 63, 0
2, 204723, Control_c, 0, 64, 0
2, 204805, Note_on_c, 0, 63, 64
2, 204813, Note_on_c, 0, 75, 63
2, 204815, Note_on_c, 0, 55, 54
2, 204825, Note_on_c, 0, 87, 27
2, 204826, Note_on_c, 0, 82, 40
2, 204827, Note_on_c, 0, 60, 41
2, 204836, Note_on_c, 0, 57, 34
2, 204842, Note_on_c, 0, 75, 0
2, 204849, Note_on_c, 0, 55, 0
2, 204856, Note_on_c, 0, 82, 0
2, 204856, Note_on_c, 0, 60, 0
2, 204862, Note_on_c, 0, 63, 0
2, 204877, Note_on_c, 0, 87, 0
2, 204878, Note_on_c, 0, 57, 0
2, 205187, Note_on_c, 0, 63, 59
2, 205188, Note_on_c, 0, 55, 57
2, 205190, Note_on_c, 0, 87, 73
2, 205192, Note_on_c, 0, 75, 74
2, 205199, Note_on_c, 0, 82, 61
2, 205208, Note_on_c, 0, 60, 42
2, 205223, Note_on_c, 0, 75, 0
2, 205227, Note_on_c, 0, 82, 0
2, 205238, Note_on_c, 0, 60, 0
2, 205239, Note_on_c, 0, 55, 0
2, 205247, Note_on_c, 0, 63, 0
2, 205248, Note_on_c, 0, 87, 0
2, 205550, Control_c, 0, 64, 127
2, 205561, Note_on_c, 0, 86, 80
2, 205565, Note_on_c, 0, 54, 74
2, 205566, Note_on_c, 0, 74, 74
2, 205567, Note_on_c, 0, 64, 71
2, 205572, Note_on_c, 0, 60, 64
2, 205572, Note_on_c, 0, 81, 74
2, 206026, Note_on_c, 0, 64, 0
2, 206028, Note_on_c, 0, 86, 0
2, 206074, Note_on_c, 0, 81, 0
2, 206075, Note_on_c, 0, 74, 0
2, 206093, Note_on_c, 0, 54, 0
2, 206115, Note_on_c, 0, 60, 0
2, 206301, Control_c, 0, 64, 0
2, 206327, Note_on_c, 0, 60, 66
2, 206328, Note_on_c, 0, 84, 75
2, 206331, Note_on_c, 0, 54, 68
2, 206334, Note_on_c, 0, 72, 56
2, 206336, Note_on_c, 0, 64, 60
2, 206338, Note_on_c, 0, 79, 54
2, 206472, Control_c, 0, 64, 127
2, 206599, Note_on_c, 0, 72, 0
2, 206604, Note_on_c, 0, 84, 0
2, 206626, Note_on_c, 0, 64, 0
2, 206639, Note_on_c, 0, 79, 0
2, 206661, Note_on_c, 0, 60, 0
2, 206762, Note_on_c, 0, 54, 0
2, 206972, Note_on_c, 0, 58, 56
2, 206974, Note_on_c, 0, 57, 60
2, 206975, Note_on_c, 0, 53, 35
2, 206976, Note_on_c, 0, 84, 62
2, 206982, Note_on_c, 0, 62, 48
2, 206985, Control_c, 0, 64, 0
2, 206994, Note_on_c, 0, 72, 36
2, 207004, Note_on_c, 0, 84, 0
2, 207010, Note_on_c, 0, 62, 0
2, 207010, Note_on_c, 0, 53, 0
2, 207025, Note_on_c, 0, 72, 0
2, 207031, Note_on_c, 0, 57, 0
2, 207032, Note_on_c, 0, 58, 0
2, 207340, Note_on_c, 0, 81, 72
2, 207345, Note_on_c, 0, 74, 58
2, 207352, Note_on_c, 0, 69, 55
2, 207354, Note_on_c, 0, 77, 57
2, 207355, Note_on_c, 0, 58, 50
2, 207363, Note_on_c, 0, 57, 45
2, 207368, Note_on_c, 0, 62, 50
2, 207369, Note_on_c, 0, 53, 44
2, 207487, Control_c, 0, 64, 127
2, 207746, Note_on_c, 0, 69, 0
2, 207756, Note_on_c, 0, 62, 0
2, 207760, Note_on_c, 0, 77, 0
2, 207773, Note_on_c, 0, 74, 0
2, 207783, Note_on_c, 0, 58, 0
2, 207829, Note_on_c, 0, 81, 0
2, 207869, Control_c, 0, 64, 0
2, 207870, Note_on_c, 0, 77, 57
2, 207873, Note_on_c, 0, 62, 41
2, 207884, Note_on_c, 0, 69, 48
2, 207885, Note_on_c, 0, 58, 37
2, 207889, Note_on_c, 0, 74, 29
2, 208238, Control_c, 0, 64, 127
2, 208285, Note_on_c, 0, 62, 0
2, 208355, Note_on_c, 0, 58, 0
2, 208386, Note_on_c, 0, 57, 0
2, 208390, Note_on_c, 0, 53, 0
2, 208551, Note_on_c, 0, 69, 0
2, 208590, Note_on_c, 0, 74, 0
2, 208611, Note_on_c, 0, 77, 0
2, 208878, Control_c, 0, 64, 0
2, 209248, Note_on_c, 0, 58, 62
2, 209250, Note_on_c, 0, 69, 67
2, 209251, Note_on_c, 0, 77, 63
2, 209252, Note_on_c, 0, 74, 60
2, 209257, Note_on_c, 0, 62, 59
2, 209279, Note_on_c, 0, 69, 0
2, 209280, Note_on_c, 0, 74, 0
2, 209281, Note_on_c, 0, 77, 0
2, 209286, Note_on_c, 0, 62, 0
2, 209310, Note_on_c, 0, 58, 0
2, 209634, Note_on_c, 0, 77, 67
2, 209634, Note_on_c, 0, 74, 70
2, 209635, Note_on_c, 0, 69, 72
2, 209639, Note_on_c, 0, 58, 69
2, 209648, Note_on_c, 0, 62, 65
2, 209658, Note_on_c, 0, 57, 47
2, 209663, Note_on_c, 0, 74, 0
2, 209665, Note_on_c, 0, 69, 0
2, 209677, Note_on_c, 0, 62, 0
2, 209686, Note_on_c, 0, 77, 0
2, 209690, Note_on_c, 0, 57, 0
2, 209726, Note_on_c, 0, 58, 0
2, 209885, Control_c, 0, 64, 127
2, 210099, Control_c, 0, 64, 0
2, 210159, Control_c, 0, 64, 127
2, 210393, Note_on_c, 0, 67, 55
2, 210395, Note_on_c, 0, 63, 50
2, 210407, Note_on_c, 0, 60, 53
2, 210414, Control_c, 0, 64, 0
2, 210415, Note_on_c, 0, 55, 35
2, 210416, Note_on_c, 0, 57, 31
2, 210438, Note_on_c, 0, 60, 0
2, 210446, Note_on_c, 0, 55, 0
2, 210450, Note_on_c, 0, 57, 0
2, 210457, Note_on_c, 0, 67, 0
2, 210465, Note_on_c, 0, 63, 0
2, 210662, Note_on_c, 0, 67, 68
2, 210662, Control_c, 0, 64, 127
2, 210662, Note_on_c, 0, 63, 51
2, 210670, Note_on_c, 0, 55, 53
2, 210673, Note_on_c, 0, 60, 57
2, 210678, Note_on_c, 0, 51, 48
2, 210741, Note_on_c, 0, 55, 0
2, 210746, Note_on_c, 0, 60, 0
2, 210772, Note_on_c, 0, 51, 0
2, 210773, Note_on_c, 0, 63, 0
2, 210777, Note_on_c, 0, 67, 0
2, 210823, Control_c, 0, 64, 0
2, 210934, Note_on_c, 0, 63, 57
2, 210935, Note_on_c, 0, 67, 64
2, 210947, Note_on_c, 0, 55, 59
2, 210949, Note_on_c, 0, 60, 58
2, 210952, Note_on_c, 0, 51, 56
2, 210969, Control_c, 0, 64, 127
2, 211086, Note_on_c, 0, 55, 0
2, 211123, Note_on_c, 0, 60, 0
2, 211145, Note_on_c, 0, 67, 0
2, 211155, Note_on_c, 0, 63, 0
2, 211157, Control_c, 0, 64, 0
2, 211213, Note_on_c, 0, 55, 49
2, 211233, Note_on_c, 0, 63, 21
2, 211234, Note_on_c, 0, 65, 40
2, 211236, Note_on_c, 0, 60, 36
2, 211248, Note_on_c, 0, 55, 0
2, 211267, Note_on_c, 0, 60, 0
2, 211275, Note_on_c, 0, 65, 0
2, 211276, Note_on_c, 0, 63, 0
2, 211346, Control_c, 0, 64, 127
2, 211347, Note_on_c, 0, 51, 0
2, 211524, Control_c, 0, 64, 0
2, 211546, Note_on_c, 0, 65, 70
2, 211553, Note_on_c, 0, 54, 68
2, 211559, Note_on_c, 0, 60, 66
2, 211577, Note_on_c, 0, 50, 70
2, 211588, Note_on_c, 0, 60, 0
2, 211595, Note_on_c, 0, 54, 0
2, 211641, Note_on_c, 0, 65, 0
2, 211754, Control_c, 0, 64, 127
2, 211877, Note_on_c, 0, 50, 0
2, 211944, Note_on_c, 0, 38, 66
2, 211973, Note_on_c, 0, 38, 0
2, 212364, Note_on_c, 0, 66, 83
2, 212365, Note_on_c, 0, 77, 80
2, 212368, Control_c, 0, 64, 0
2, 212369, Note_on_c, 0, 72, 78
2, 212370, Note_on_c, 0, 60, 71
2, 212373, Note_on_c, 0, 65, 71
2, 212387, Note_on_c, 0, 54, 55
2, 212396, Note_on_c, 0, 72, 0
2, 212402, Note_on_c, 0, 65, 0
2, 212412, Note_on_c, 0, 66, 0
2, 212427, Note_on_c, 0, 77, 0
2, 212454, Note_on_c, 0, 54, 0
2, 212459, Note_on_c, 0, 60, 0
2, 212504, Control_c, 0, 64, 127
2, 212617, Note_on_c, 0, 77, 87
2, 212625, Note_on_c, 0, 66, 74
2, 212634, Note_on_c, 0, 65, 71
2, 212635, Note_on_c, 0, 54, 76
2, 212640, Note_on_c, 0, 72, 58
2, 212641, Note_on_c, 0, 60, 72
2, 212769, Note_on_c, 0, 54, 0
2, 212782, Note_on_c, 0, 66, 0
2, 212784, Note_on_c, 0, 65, 0
2, 212802, Note_on_c, 0, 77, 0
2, 212824, Note_on_c, 0, 72, 0
2, 212865, Note_on_c, 0, 54, 58
2, 212882, Note_on_c, 0, 75, 61
2, 212882, Note_on_c, 0, 66, 38
2, 212901, Note_on_c, 0, 72, 36
2, 212935, Note_on_c, 0, 72, 0
2, 212945, Note_on_c, 0, 60, 0
2, 212997, Note_on_c, 0, 66, 0
2, 213041, Note_on_c, 0, 54, 0
2, 213044, Note_on_c, 0, 75, 0
2, 213103, Control_c, 0, 64, 0
2, 213122, Note_on_c, 0, 74, 60
2, 213125, Note_on_c, 0, 62, 51
2, 213132, Note_on_c, 0, 65, 52
2, 213133, Note_on_c, 0, 70, 55
2, 213133, Note_on_c, 0, 57, 57
2, 213135, Note_on_c, 0, 53, 36
2, 213138, Note_on_c, 0, 58, 44
2, 213265, Control_c, 0, 64, 127
2, 213375, Note_on_c, 0, 65, 0
2, 213425, Note_on_c, 0, 70, 0
2, 213427, Note_on_c, 0, 62, 0
2, 213441, Note_on_c, 0, 53, 0
2, 213464, Note_on_c, 0, 57, 0
2, 213484, Note_on_c, 0, 58, 0
2, 213499, Note_on_c, 0, 74, 0
2, 213879, Control_c, 0, 64, 0
2, 213997, Note_on_c, 0, 96, 83
2, 213999, Note_on_c, 0, 58, 51
2, 214003, Note_on_c, 0, 84, 70
2, 214004, Note_on_c, 0, 62, 58
2, 214008, Note_on_c, 0, 57, 46
2, 214021, Note_on_c, 0, 53, 45
2, 214165, Note_on_c, 0, 84, 0
2, 214186, Note_on_c, 0, 96, 0
2, 214220, Note_on_c, 0, 53, 0
2, 214247, Note_on_c, 0, 58, 0
2, 214247, Note_on_c, 0, 62, 0
2, 214269, Note_on_c, 0, 57, 0
2, 214392, Note_on_c, 0, 62, 54
2, 214393, Note_on_c, 0, 96, 81
2, 214397, Note_on_c, 0, 58, 46
2, 214399, Note_on_c, 0, 57, 36
2, 214402, Note_on_c, 0, 53, 47
2, 214403, Note_on_c, 0, 84, 68
2, 214525, Note_on_c, 0, 96, 0
2, 214547, Note_on_c, 0, 84, 0
2, 214555, Note_on_c, 0, 53, 0
2, 214564, Note_on_c, 0, 57, 0
2, 214565, Note_on_c, 0, 62, 0
2, 214612, Note_on_c, 0, 58, 0
2, 214654, Note_on_c, 0, 62, 51
2, 214660, Note_on_c, 0, 58, 43
2, 214662, Note_on_c, 0, 93, 64
2, 214673, Note_on_c, 0, 81, 49
2, 214691, Note_on_c, 0, 52, 35
2, 214697, Note_on_c, 0, 93, 0
2, 214706, Note_on_c, 0, 81, 0
2, 214724, Note_on_c, 0, 52, 0
2, 214724, Note_on_c, 0, 62, 0
2, 214794, Note_on_c, 0, 58, 0
2, 215145, Note_on_c, 0, 58, 49
2, 215147, Note_on_c, 0, 62, 55
2, 215156, Note_on_c, 0, 81, 66
2, 215157, Note_on_c, 0, 93, 74
2, 215159, Note_on_c, 0, 52, 58
2, 215177, Control_c, 0, 64, 127
2, 215261, Note_on_c, 0, 52, 0
2, 215274, Note_on_c, 0, 93, 0
2, 215292, Note_on_c, 0, 62, 0
2, 215299, Note_on_c, 0, 81, 0
2, 215331, Note_on_c, 0, 58, 0
2, 215403, Note_on_c, 0, 89, 62
2, 215423, Control_c, 0, 64, 0
2, 215424, Note_on_c, 0, 58, 39
2, 215426, Note_on_c, 0, 77, 63
2, 215433, Note_on_c, 0, 62, 49
2, 215434, Note_on_c, 0, 52, 57
2, 215512, Note_on_c, 0, 62, 0
2, 215513, Note_on_c, 0, 52, 0
2, 215534, Control_c, 0, 64, 127
2, 215568, Note_on_c, 0, 58, 0
2, 215724, Note_on_c, 0, 89, 0
2, 215743, Note_on_c, 0, 77, 0
2, 215825, Control_c, 0, 64, 0
2, 215918, Note_on_c, 0, 52, 34
2, 215919, Note_on_c, 0, 58, 52
2, 215923, Note_on_c, 0, 89, 71
2, 215931, Note_on_c, 0, 62, 57
2, 215936, Control_c, 0, 64, 127
2, 215939, Note_on_c, 0, 77, 53
2, 216006, Note_on_c, 0, 52, 0
2, 216015, Note_on_c, 0, 89, 0
2, 216035, Note_on_c, 0, 77, 0
2, 216035, Note_on_c, 0, 62, 0
2, 216068, Note_on_c, 0, 58, 0
2, 216186, Note_on_c, 0, 86, 64
2, 216189, Note_on_c, 0, 74, 62
2, 216196, Note_on_c, 0, 62, 64
2, 216199, Note_on_c, 0, 58, 46
2, 216203, Note_on_c, 0, 53, 53
2, 216204, Note_on_c, 0, 57, 47
2, 216208, Control_c, 0, 64, 0
2, 216337, Control_c, 0, 64, 127
2, 216418, Note_on_c, 0, 57, 0
2, 216434, Note_on_c, 0, 58, 0
2, 216439, Note_on_c, 0, 53, 0
2, 216456, Note_on_c, 0, 86, 0
2, 216457, Note_on_c, 0, 62, 0
2, 216508, Note_on_c, 0, 74, 0
2, 216583, Note_on_c, 0, 58, 37
2, 216615, Note_on_c, 0, 58, 0
2, 216627, Control_c, 0, 64, 0
2, 216688, Note_on_c, 0, 60, 74
2, 216691, Note_on_c, 0, 84, 72
2, 216696, Note_on_c, 0, 55, 71
2, 216700, Note_on_c, 0, 72, 61
2, 216703, Note_on_c, 0, 63, 50
2, 216797, Control_c, 0, 64, 127
2, 216855, Note_on_c, 0, 84, 0
2, 216864, Note_on_c, 0, 72, 0
2, 216886, Note_on_c, 0, 55, 0
2, 216898, Note_on_c, 0, 63, 0
2, 216937, Note_on_c, 0, 60, 0
2, 216968, Control_c, 0, 64, 0
2, 216969, Note_on_c, 0, 63, 42
2, 216971, Note_on_c, 0, 81, 62
2, 216973, Note_on_c, 0, 60, 31
2, 216980, Note_on_c, 0, 55, 45
2, 216988, Note_on_c, 0, 69, 61
2, 217121, Control_c, 0, 64, 127
2, 217170, Note_on_c, 0, 55, 0
2, 217224, Note_on_c, 0, 60, 0
2, 217245, Note_on_c, 0, 63, 0
2, 217278, Note_on_c, 0, 81, 0
2, 217281, Note_on_c, 0, 69, 0
2, 217328, Note_on_c, 0, 55, 30
2, 217331, Note_on_c, 0, 60, 29
2, 217361, Control_c, 0, 64, 0
2, 217369, Note_on_c, 0, 60, 0
2, 217381, Note_on_c, 0, 55, 0
2, 217441, Note_on_c, 0, 63, 63
2, 217453, Note_on_c, 0, 60, 38
2, 217471, Control_c, 0, 64, 127
2, 217474, Note_on_c, 0, 55, 22
2, 217563, Note_on_c, 0, 55, 0
2, 217637, Note_on_c, 0, 63, 0
2, 217681, Note_on_c, 0, 60, 0
2, 217710, Note_on_c, 0, 78, 57
2, 217719, Note_on_c, 0, 60, 30
2, 217722, Note_on_c, 0, 66, 56
2, 217724, Note_on_c, 0, 54, 67
2, 217727, Control_c, 0, 64, 0
2, 217728, Note_on_c, 0, 64, 62
2, 217847, Control_c, 0, 64, 127
2, 217872, Note_on_c, 0, 64, 0
2, 217907, Note_on_c, 0, 60, 0
2, 217948, Note_on_c, 0, 54, 0
2, 217968, Note_on_c, 0, 78, 0
2, 217982, Note_on_c, 0, 66, 0
2, 218090, Note_on_c, 0, 50, 73
2, 218171, Control_c, 0, 64, 0
2, 218207, Note_on_c, 0, 50, 0
2, 218257, Control_c, 0, 64, 127
2, 218491, Note_on_c, 0, 70, 62
2, 218493, Note_on_c, 0, 56, 23
2, 218493, Note_on_c, 0, 65, 66
2, 218499, Note_on_c, 0, 60, 67
2, 218508, Note_on_c, 0, 58, 73
2, 218531, Note_on_c, 0, 56, 0
2, 218539, Control_c, 0, 64, 0
2, 218666, Control_c, 0, 64, 127
2, 218695, Note_on_c, 0, 58, 0
2, 218773, Note_on_c, 0, 65, 0
2, 218800, Note_on_c, 0, 70, 0
2, 218841, Note_on_c, 0, 51, 45
2, 218884, Note_on_c, 0, 51, 0
2, 218913, Control_c, 0, 64, 0
2, 218942, Note_on_c, 0, 60, 0
2, 218979, Note_on_c, 0, 44, 50
2, 218988, Note_on_c, 0, 54, 51
2, 219016, Control_c, 0, 64, 127
2, 219185, Note_on_c, 0, 54, 0
2, 219222, Note_on_c, 0, 62, 60
2, 219223, Note_on_c, 0, 44, 0
2, 219231, Note_on_c, 0, 58, 53
2, 219238, Control_c, 0, 64, 0
2, 219239, Note_on_c, 0, 57, 44
2, 219256, Note_on_c, 0, 55, 54
2, 219366, Control_c, 0, 64, 127
2, 219448, Note_on_c, 0, 62, 0
2, 219453, Note_on_c, 0, 58, 0
2, 219503, Note_on_c, 0, 57, 0
2, 219591, Note_on_c, 0, 55, 0
2, 219639, Note_on_c, 0, 55, 30
2, 219770, Note_on_c, 0, 58, 72
2, 219770, Note_on_c, 0, 62, 67
2, 219780, Note_on_c, 0, 69, 56
2, 219782, Note_on_c, 0, 65, 58
2, 219785, Control_c, 0, 64, 0
2, 219786, Note_on_c, 0, 57, 78
2, 219821, Note_on_c, 0, 55, 0
2, 220134, Control_c, 0, 64, 127
2, 220388, Note_on_c, 0, 69, 0
2, 220415, Note_on_c, 0, 58, 0
2, 220450, Note_on_c, 0, 65, 0
2, 220451, Note_on_c, 0, 62, 0
2, 220492, Control_c, 0, 64, 0
2, 220509, Note_on_c, 0, 62, 25
2, 220510, Note_on_c, 0, 58, 45
2, 220515, Note_on_c, 0, 67, 44
2, 220517, Note_on_c, 0, 55, 54
2, 220545, Note_on_c, 0, 57, 0
2, 220685, Note_on_c, 0, 58, 0
2, 220715, Note_on_c, 0, 62, 0
2, 220809, Note_on_c, 0, 67, 0
2, 220891, Note_on_c, 0, 55, 0
2, 220899, Note_on_c, 0, 66, 48
2, 220903, Note_on_c, 0, 58, 39
2, 220904, Note_on_c, 0, 62, 39
2, 220905, Note_on_c, 0, 54, 54
2, 221210, Control_c, 0, 64, 127
2, 221246, Note_on_c, 0, 58, 0
2, 221314, Note_on_c, 0, 62, 0
2, 221392, Note_on_c, 0, 66, 0
2, 221465, Control_c, 0, 64, 0
2, 221545, Note_on_c, 0, 67, 47
2, 221548, Note_on_c, 0, 62, 48
2, 221559, Note_on_c, 0, 58, 44
2, 221566, Note_on_c, 0, 54, 0
2, 221566, Note_on_c, 0, 55, 57
2, 221594, Control_c, 0, 64, 127
2, 221652, Note_on_c, 0, 58, 0
2, 221729, Note_on_c, 0, 62, 0
2, 221731, Note_on_c, 0, 55, 0
2, 221755, Note_on_c, 0, 67, 0
2, 222378, Control_c, 0, 64, 0
2, 222413, Note_on_c, 0, 60, 26
2, 222421, Note_on_c, 0, 63, 35
2, 222421, Note_on_c, 0, 79, 53
2, 222432, Note_on_c, 0, 67, 33
2, 222433, Note_on_c, 0, 75, 35
2, 222446, Note_on_c, 0, 72, 36
2, 222446, Note_on_c, 0, 55, 18
2, 222469, Note_on_c, 0, 57, 19
2, 222479, Note_on_c, 0, 72, 0
2, 222492, Note_on_c, 0, 67, 0
2, 222493, Note_on_c, 0, 75, 0
2, 222509, Note_on_c, 0, 55, 0
2, 222511, Note_on_c, 0, 79, 0
2, 222516, Note_on_c, 0, 57, 0
2, 222525, Note_on_c, 0, 63, 0
2, 222525, Note_on_c, 0, 60, 0
2, 223060, Note_on_c, 0, 79, 36
2, 223071, Note_on_c, 0, 75, 34
2, 223071, Note_on_c, 0, 60, 38
2, 223076, Note_on_c, 0, 63, 37
2, 223079, Note_on_c, 0, 55, 39
2, 223087, Note_on_c, 0, 72, 34
2, 223097, Note_on_c, 0, 67, 19
2, 223127, Note_on_c, 0, 57, 22
2, 223189, Control_c, 0, 64, 127
2, 223444, Note_on_c, 0, 67, 0
2, 223470, Note_on_c, 0, 72, 0
2, 223517, Note_on_c, 0, 55, 0
2, 223526, Note_on_c, 0, 60, 0
2, 223527, Note_on_c, 0, 63, 0
2, 223539, Note_on_c, 0, 75, 0
2, 223540, Note_on_c, 0, 57, 0
2, 223558, Note_on_c, 0, 79, 0
2, 223905, Control_c, 0, 64, 0
2, 223947, Note_on_c, 0, 86, 56
2, 223957, Note_on_c, 0, 74, 36
2, 223957, Note_on_c, 0, 54, 43
2, 223957, Note_on_c, 0, 60, 45
2, 223960, Note_on_c, 0, 64, 37
2, 223984, Note_on_c, 0, 81, 24
2, 224015, Note_on_c, 0, 74, 0
2, 224016, Note_on_c, 0, 81, 0
2, 224026, Note_on_c, 0, 64, 0
2, 224033, Note_on_c, 0, 60, 0
2, 224034, Note_on_c, 0, 86, 0
2, 224049, Note_on_c, 0, 54, 0
2, 224615, Note_on_c, 0, 86, 50
2, 224630, Note_on_c, 0, 74, 31
2, 224632, Note_on_c, 0, 64, 50
2, 224635, Note_on_c, 0, 60, 49
2, 224636, Note_on_c, 0, 81, 44
2, 224645, Note_on_c, 0, 54, 44
2, 224751, Control_c, 0, 64, 127
2, 224871, Note_on_c, 0, 74, 0
2, 224952, Note_on_c, 0, 81, 0
2, 224985, Note_on_c, 0, 64, 0
2, 225001, Note_on_c, 0, 60, 0
2, 225016, Note_on_c, 0, 86, 0
2, 225084, Note_on_c, 0, 54, 0
2, 225365, Control_c, 0, 64, 0
2, 225426, Note_on_c, 0, 58, 42
2, 225484, Note_on_c, 0, 58, 0
2, 225509, Note_on_c, 0, 59, 42
2, 225510, Note_on_c, 0, 96, 94
2, 225515, Note_on_c, 0, 60, 82
2, 225524, Note_on_c, 0, 59, 0
2, 226226, Control_c, 0, 64, 127
2, 226414, Note_on_c, 0, 60, 0
2, 226540, Note_on_c, 0, 62, 30
2, 226542, Note_on_c, 0, 93, 59
2, 226551, Control_c, 0, 64, 0
2, 226560, Note_on_c, 0, 96, 0
2, 226592, Note_on_c, 0, 62, 0
2, 226598, Note_on_c, 0, 93, 0
2, 226673, Note_on_c, 0, 57, 1
2, 226679, Note_on_c, 0, 62, 37
2, 226697, Note_on_c, 0, 94, 58
2, 226701, Note_on_c, 0, 58, 35
2, 226705, Control_c, 0, 64, 127
2, 226712, Note_on_c, 0, 92, 25
2, 226741, Note_on_c, 0, 92, 0
2, 226840, Note_on_c, 0, 62, 0
2, 226847, Note_on_c, 0, 57, 0
2, 226879, Note_on_c, 0, 58, 0
2, 226903, Note_on_c, 0, 94, 0
2, 226927, Control_c, 0, 64, 0
2, 226932, Note_on_c, 0, 62, 40
2, 226937, Note_on_c, 0, 58, 42
2, 226964, Note_on_c, 0, 96, 72
2, 226964, Note_on_c, 0, 52, 48
2, 226995, Note_on_c, 0, 52, 0
2, 227011, Note_on_c, 0, 62, 0
2, 227030, Note_on_c, 0, 58, 0
2, 227032, Note_on_c, 0, 96, 0
2, 227106, Control_c, 0, 64, 127
2, 227198, Note_on_c, 0, 92, 59
2, 227220, Note_on_c, 0, 58, 43
2, 227223, Note_on_c, 0, 62, 48
2, 227235, Note_on_c, 0, 52, 48
2, 227235, Note_on_c, 0, 93, 64
2, 227263, Note_on_c, 0, 92, 0
2, 227271, Note_on_c, 0, 52, 0
2, 227303, Note_on_c, 0, 62, 0
2, 227314, Note_on_c, 0, 58, 0
2, 227333, Note_on_c, 0, 93, 0
2, 227354, Control_c, 0, 64, 0
2, 227465, Note_on_c, 0, 90, 52
2, 227467, Note_on_c, 0, 58, 35
2, 227471, Note_on_c, 0, 62, 43
2, 227486, Note_on_c, 0, 52, 44
2, 227490, Control_c, 0, 64, 127
2, 227515, Note_on_c, 0, 91, 44
2, 227572, Note_on_c, 0, 90, 0
2, 227584, Note_on_c, 0, 52, 0
2, 227595, Note_on_c, 0, 62, 0
2, 227608, Note_on_c, 0, 91, 0
2, 227615, Note_on_c, 0, 58, 0
2, 227669, Control_c, 0, 64, 0
2, 227707, Note_on_c, 0, 87, 48
2, 227732, Note_on_c, 0, 58, 32
2, 227741, Note_on_c, 0, 52, 47
2, 227744, Note_on_c, 0, 88, 59
2, 227747, Note_on_c, 0, 62, 28
2, 227777, Note_on_c, 0, 87, 0
2, 227823, Control_c, 0, 64, 127
2, 227923, Note_on_c, 0, 62, 0
2, 227933, Note_on_c, 0, 52, 0
2, 227962, Note_on_c, 0, 58, 0
2, 228039, Note_on_c, 0, 84, 66
2, 228058, Note_on_c, 0, 58, 45
2, 228062, Control_c, 0, 64, 0
2, 228073, Note_on_c, 0, 52, 49
2, 228081, Note_on_c, 0, 62, 41
2, 228164, Control_c, 0, 64, 127
2, 228235, Note_on_c, 0, 52, 0
2, 228285, Note_on_c, 0, 62, 0
2, 228303, Note_on_c, 0, 58, 0
2, 228304, Note_on_c, 0, 84, 0
2, 228310, Note_on_c, 0, 88, 0
2, 228514, Control_c, 0, 64, 0
2, 228546, Note_on_c, 0, 87, 60
2, 228552, Note_on_c, 0, 63, 58
2, 228563, Note_on_c, 0, 60, 47
2, 228563, Note_on_c, 0, 75, 46
2, 228567, Note_on_c, 0, 55, 48
2, 228889, Control_c, 0, 64, 127
2, 228935, Note_on_c, 0, 63, 0
2, 228941, Note_on_c, 0, 87, 0
2, 229014, Note_on_c, 0, 55, 0
2, 229019, Note_on_c, 0, 75, 0
2, 229114, Note_on_c, 0, 60, 0
2, 229205, Control_c, 0, 64, 0
2, 229226, Note_on_c, 0, 63, 52
2, 229230, Note_on_c, 0, 84, 62
2, 229232, Note_on_c, 0, 60, 49
2, 229240, Note_on_c, 0, 72, 46
2, 229242, Note_on_c, 0, 55, 49
2, 229342, Control_c, 0, 64, 127
2, 229455, Note_on_c, 0, 84, 0
2, 229613, Note_on_c, 0, 72, 0
2, 229683, Note_on_c, 0, 55, 0
2, 229712, Note_on_c, 0, 63, 0
2, 229861, Note_on_c, 0, 60, 0
2, 230084, Control_c, 0, 64, 0
2, 230362, Note_on_c, 0, 77, 73
2, 230368, Note_on_c, 0, 65, 65
2, 230369, Note_on_c, 0, 70, 57
2, 230369, Note_on_c, 0, 54, 60
2, 230376, Note_on_c, 0, 60, 60
2, 230397, Note_on_c, 0, 65, 0
2, 230398, Note_on_c, 0, 70, 0
2, 230403, Note_on_c, 0, 54, 0
2, 230404, Note_on_c, 0, 60, 0
2, 230431, Note_on_c, 0, 77, 0
2, 230629, Note_on_c, 0, 75, 69
2, 230630, Note_on_c, 0, 54, 64
2, 230635, Note_on_c, 0, 65, 64
2, 230645, Note_on_c, 0, 60, 57
2, 230648, Note_on_c, 0, 70, 54
2, 230776, Note_on_c, 0, 70, 0
2, 230796, Note_on_c, 0, 65, 0
2, 230817, Note_on_c, 0, 54, 0
2, 230835, Note_on_c, 0, 60, 0
2, 230857, Note_on_c, 0, 75, 0
2, 230910, Note_on_c, 0, 77, 66
2, 230914, Note_on_c, 0, 70, 46
2, 230925, Note_on_c, 0, 60, 61
2, 230929, Control_c, 0, 64, 127
2, 230930, Note_on_c, 0, 65, 44
2, 230936, Note_on_c, 0, 54, 54
2, 231045, Note_on_c, 0, 54, 0
2, 231045, Note_on_c, 0, 70, 0
2, 231064, Note_on_c, 0, 65, 0
2, 231081, Note_on_c, 0, 77, 0
2, 231114, Note_on_c, 0, 60, 0
2, 231168, Note_on_c, 0, 75, 60
2, 231173, Note_on_c, 0, 70, 63
2, 231176, Control_c, 0, 64, 0
2, 231177, Note_on_c, 0, 65, 46
2, 231185, Note_on_c, 0, 60, 26
2, 231189, Note_on_c, 0, 54, 59
2, 231214, Note_on_c, 0, 65, 0
2, 231227, Note_on_c, 0, 60, 0
2, 231227, Note_on_c, 0, 70, 0
2, 231228, Note_on_c, 0, 75, 0
2, 231283, Note_on_c, 0, 54, 0
2, 231416, Control_c, 0, 64, 127
2, 231509, Control_c, 0, 64, 0
2, 231522, Note_on_c, 0, 65, 66
2, 231527, Note_on_c, 0, 72, 58
2, 231535, Note_on_c, 0, 69, 52
2, 231538, Note_on_c, 0, 60, 74
2, 231559, Note_on_c, 0, 65, 0
2, 231564, Note_on_c, 0, 69, 0
2, 231599, Note_on_c, 0, 72, 0
2, 231600, Note_on_c, 0, 60, 0
2, 231895, Note_on_c, 0, 70, 58
2, 231898, Note_on_c, 0, 62, 50
2, 231907, Note_on_c, 0, 65, 52
2, 231913, Note_on_c, 0, 58, 55
2, 232030, Control_c, 0, 64, 127
2, 232143, Note_on_c, 0, 70, 0
2, 232148, Note_on_c, 0, 65, 0
2, 232217, Note_on_c, 0, 62, 0
2, 232287, Note_on_c, 0, 56, 34
2, 232360, Note_on_c, 0, 58, 0
2, 232404, Note_on_c, 0, 56, 0
2, 232404, Control_c, 0, 64, 0
2, 232419, Note_on_c, 0, 69, 40
2, 232423, Note_on_c, 0, 57, 50
2, 232428, Note_on_c, 0, 58, 37
2, 232429, Note_on_c, 0, 62, 36
2, 232441, Note_on_c, 0, 65, 36
2, 232667, Note_on_c, 0, 69, 0
2, 232671, Note_on_c, 0, 62, 0
2, 232679, Note_on_c, 0, 65, 0
2, 232682, Note_on_c, 0, 58, 0
2, 232790, Note_on_c, 0, 58, 38
2, 232794, Note_on_c, 0, 55, 46
2, 232795, Note_on_c, 0, 67, 39
2, 232795, Note_on_c, 0, 62, 29
2, 232796, Note_on_c, 0, 57, 0
2, 232989, Note_on_c, 0, 58, 0
2, 233011, Note_on_c, 0, 62, 0
2, 233074, Note_on_c, 0, 54, 37
2, 233097, Note_on_c, 0, 67, 0
2, 233165, Note_on_c, 0, 54, 0
2, 233165, Note_on_c, 0, 55, 0
2, 233173, Note_on_c, 0, 58, 49
2, 233181, Note_on_c, 0, 62, 54
2, 233188, Note_on_c, 0, 69, 48
2, 233192, Note_on_c, 0, 57, 54
2, 233200, Note_on_c, 0, 65, 38
2, 233447, Note_on_c, 0, 58, 0
2, 233469, Note_on_c, 0, 62, 0
2, 233479, Note_on_c, 0, 65, 0
2, 233493, Note_on_c, 0, 69, 0
2, 233547, Note_on_c, 0, 55, 46
2, 233547, Note_on_c, 0, 62, 44
2, 233548, Note_on_c, 0, 58, 30
2, 233550, Note_on_c, 0, 67, 38
2, 233552, Note_on_c, 0, 57, 0
2, 233762, Note_on_c, 0, 62, 0
2, 233777, Note_on_c, 0, 58, 0
2, 233854, Note_on_c, 0, 67, 0
2, 233902, Note_on_c, 0, 55, 0
2, 233907, Note_on_c, 0, 54, 43
2, 233927, Note_on_c, 0, 58, 20
2, 233931, Note_on_c, 0, 66, 39
2, 233934, Control_c, 0, 64, 127
2, 233939, Note_on_c, 0, 62, 24
2, 234038, Note_on_c, 0, 58, 0
2, 234066, Note_on_c, 0, 62, 0
2, 234090, Note_on_c, 0, 66, 0
2, 234180, Control_c, 0, 64, 0
2, 234188, Note_on_c, 0, 67, 42
2, 234208, Note_on_c, 0, 55, 57
2, 234237, Note_on_c, 0, 55, 0
2, 234246, Note_on_c, 0, 54, 0
2, 234265, Note_on_c, 0, 67, 0
2, 234342, Control_c, 0, 64, 127
2, 234632, Control_c, 0, 64, 0
2, 234685, Note_on_c, 0, 86, 72
2, 234696, Note_on_c, 0, 62, 52
2, 234697, Note_on_c, 0, 74, 50
2, 235051, Control_c, 0, 64, 127
2, 235103, Note_on_c, 0, 86, 0
2, 235275, Note_on_c, 0, 74, 0
2, 235323, Control_c, 0, 64, 0
2, 235334, Note_on_c, 0, 84, 51
2, 235350, Note_on_c, 0, 62, 0
2, 235351, Note_on_c, 0, 72, 36
2, 235360, Note_on_c, 0, 60, 44
2, 235503, Control_c, 0, 64, 127
2, 235724, Note_on_c, 0, 72, 0
2, 235783, Note_on_c, 0, 84, 0
2, 235806, Note_on_c, 0, 60, 0
2, 236084, Control_c, 0, 64, 0
2, 236122, Note_on_c, 0, 89, 74
2, 236130, Note_on_c, 0, 77, 55
2, 236142, Note_on_c, 0, 65, 49
2, 236149, Note_on_c, 0, 60, 49
2, 236154, Note_on_c, 0, 54, 54
2, 236271, Control_c, 0, 64, 127
2, 236536, Note_on_c, 0, 89, 0
2, 236576, Note_on_c, 0, 65, 0
2, 236632, Note_on_c, 0, 77, 0
2, 236674, Note_on_c, 0, 54, 0
2, 236691, Note_on_c, 0, 60, 0
2, 236851, Control_c, 0, 64, 0
2, 236873, Note_on_c, 0, 86, 53
2, 236879, Note_on_c, 0, 74, 48
2, 236886, Note_on_c, 0, 64, 35
2, 236888, Note_on_c, 0, 54, 39
2, 236891, Note_on_c, 0, 60, 47
2, 236979, Control_c, 0, 64, 127
2, 237109, Note_on_c, 0, 74, 0
2, 237190, Note_on_c, 0, 86, 0
2, 237204, Note_on_c, 0, 64, 0
2, 237214, Note_on_c, 0, 60, 0
2, 237306, Note_on_c, 0, 54, 0
2, 237636, Control_c, 0, 64, 0
2, 237644, Note_on_c, 0, 62, 55
2, 237647, Note_on_c, 0, 58, 50
2, 237649, Note_on_c, 0, 96, 81
2, 237657, Note_on_c, 0, 57, 47
2, 237660, Note_on_c, 0, 84, 69
2, 237835, Control_c, 0, 64, 127
2, 238107, Note_on_c, 0, 96, 0
2, 238144, Note_on_c, 0, 62, 0
2, 238185, Note_on_c, 0, 84, 0
2, 238220, Note_on_c, 0, 58, 0
2, 238240, Note_on_c, 0, 57, 0
2, 238420, Note_on_c, 0, 93, 58
2, 238422, Control_c, 0, 64, 0
2, 238429, Note_on_c, 0, 81, 40
2, 238435, Note_on_c, 0, 62, 44
2, 238437, Note_on_c, 0, 58, 40
2, 238442, Note_on_c, 0, 57, 36
2, 238558, Control_c, 0, 64, 127
2, 238830, Note_on_c, 0, 62, 0
2, 238870, Note_on_c, 0, 93, 0
2, 238872, Note_on_c, 0, 57, 0
2, 238911, Note_on_c, 0, 81, 0
2, 238926, Note_on_c, 0, 58, 0
2, 239156, Control_c, 0, 64, 0
2, 239161, Note_on_c, 0, 63, 51
2, 239169, Note_on_c, 0, 91, 54
2, 239169, Note_on_c, 0, 79, 46
2, 239192, Note_on_c, 0, 58, 33
2, 239192, Note_on_c, 0, 52, 48
2, 239292, Control_c, 0, 64, 127
2, 239517, Note_on_c, 0, 91, 0
2, 239612, Note_on_c, 0, 79, 0
2, 239618, Note_on_c, 0, 63, 0
2, 239651, Note_on_c, 0, 52, 0
2, 239824, Note_on_c, 0, 58, 0
2, 239949, Note_on_c, 0, 84, 61
2, 239956, Note_on_c, 0, 58, 34
2, 239957, Note_on_c, 0, 72, 53
2, 239966, Control_c, 0, 64, 0
2, 239967, Note_on_c, 0, 60, 53
2, 239979, Note_on_c, 0, 52, 27
2, 240085, Control_c, 0, 64, 127
2, 240138, Note_on_c, 0, 84, 0
2, 240214, Note_on_c, 0, 72, 0
2, 240238, Note_on_c, 0, 60, 0
2, 240321, Note_on_c, 0, 52, 0
2, 240345, Note_on_c, 0, 58, 0
2, 240717, Control_c, 0, 64, 0
2, 240829, Note_on_c, 0, 62, 37
2, 240831, Note_on_c, 0, 63, 37
2, 240847, Note_on_c, 0, 74, 40
2, 240848, Note_on_c, 0, 67, 33
2, 241029, Note_on_c, 0, 67, 0
2, 241038, Note_on_c, 0, 74, 0
2, 241046, Note_on_c, 0, 63, 0
2, 241085, Note_on_c, 0, 62, 0
2, 241124, Note_on_c, 0, 60, 38
2, 241233, Note_on_c, 0, 60, 0
2, 241234, Note_on_c, 0, 63, 42
2, 241244, Note_on_c, 0, 74, 42
2, 241251, Note_on_c, 0, 67, 40
2, 241258, Note_on_c, 0, 62, 46
2, 241774, Note_on_c, 0, 63, 0
2, 241785, Note_on_c, 0, 67, 0
2, 241857, Note_on_c, 0, 74, 0
2, 241860, Note_on_c, 0, 63, 40
2, 241867, Note_on_c, 0, 62, 0
2, 241869, Note_on_c, 0, 67, 36
2, 241870, Note_on_c, 0, 72, 47
2, 241877, Note_on_c, 0, 60, 36
2, 241901, Note_on_c, 0, 67, 0
2, 241907, Note_on_c, 0, 72, 0
2, 241908, Note_on_c, 0, 60, 0
2, 241925, Note_on_c, 0, 63, 0
2, 242115, Note_on_c, 0, 63, 25
2, 242178, Note_on_c, 0, 63, 0
2, 242601, Note_on_c, 0, 70, 65
2, 242612, Note_on_c, 0, 66, 44
2, 242620, Note_on_c, 0, 58, 47
2, 242623, Note_on_c, 0, 60, 32
2, 242635, Note_on_c, 0, 64, 31
2, 242645, Note_on_c, 0, 66, 0
2, 242652, Note_on_c, 0, 60, 0
2, 242663, Note_on_c, 0, 58, 0
2, 242666, Note_on_c, 0, 70, 0
2, 242669, Note_on_c, 0, 64, 0
2, 242882, Note_on_c, 0, 66, 46
2, 242886, Note_on_c, 0, 70, 56
2, 242889, Note_on_c, 0, 58, 46
2, 242898, Note_on_c, 0, 60, 32
2, 242901, Note_on_c, 0, 64, 46
2, 242997, Note_on_c, 0, 64, 0
2, 243012, Note_on_c, 0, 60, 0
2, 243013, Note_on_c, 0, 70, 0
2, 243027, Note_on_c, 0, 66, 0
2, 243036, Note_on_c, 0, 58, 0
2, 243159, Note_on_c, 0, 70, 51
2, 243182, Note_on_c, 0, 66, 35
2, 243183, Note_on_c, 0, 58, 49
2, 243187, Note_on_c, 0, 60, 31
2, 243194, Note_on_c, 0, 64, 37
2, 243366, Note_on_c, 0, 64, 0
2, 243377, Note_on_c, 0, 60, 0
2, 243396, Note_on_c, 0, 58, 0
2, 243396, Note_on_c, 0, 70, 0
2, 243401, Note_on_c, 0, 66, 0
2, 243476, Note_on_c, 0, 66, 23
2, 243478, Note_on_c, 0, 60, 42
2, 243483, Note_on_c, 0, 57, 37
2, 243490, Note_on_c, 0, 69, 32
2, 243531, Note_on_c, 0, 57, 0
2, 243532, Note_on_c, 0, 66, 0
2, 243533, Note_on_c, 0, 69, 0
2, 243542, Control_c, 0, 64, 127
2, 243543, Note_on_c, 0, 60, 0
2, 243653, Control_c, 0, 64, 0
2, 243761, Note_on_c, 0, 53, 32
2, 243796, Note_on_c, 0, 53, 0
2, 243797, Note_on_c, 0, 58, 42
2, 243804, Note_on_c, 0, 67, 35
2, 243809, Note_on_c, 0, 62, 36
2, 243823, Note_on_c, 0, 55, 43
2, 244538, Note_on_c, 0, 58, 0
2, 244543, Note_on_c, 0, 62, 0
2, 245038, Note_on_c, 0, 67, 0
2, 245060, Note_on_c, 0, 54, 32
2, 245065, Note_on_c, 0, 55, 0
2, 245070, Note_on_c, 0, 66, 35
2, 245072, Note_on_c, 0, 58, 12
2, 245219, Note_on_c, 0, 58, 0
2, 245276, Note_on_c, 0, 66, 0
2, 245315, Note_on_c, 0, 67, 36
2, 245327, Note_on_c, 0, 58, 30
2, 245330, Note_on_c, 0, 62, 40
2, 245359, Note_on_c, 0, 54, 0
2, 245366, Note_on_c, 0, 55, 38
2, 245854, Control_c, 0, 64, 127
2, 245961, Note_on_c, 0, 58, 0
2, 246062, Note_on_c, 0, 62, 0
2, 246114, Note_on_c, 0, 67, 0
2, 246156, Note_on_c, 0, 55, 0
2, 246955, Control_c, 0, 64, 0
2, 246974, Note_on_c, 0, 96, 50
2, 246982, Note_on_c, 0, 60, 44
2, 246986, Note_on_c, 0, 84, 30
2, 247604, Control_c, 0, 64, 127
2, 247868, Note_on_c, 0, 60, 0
2, 247932, Note_on_c, 0, 84, 0
2, 247998, Note_on_c, 0, 96, 0
2, 248370, Note_on_c, 0, 98, 44
2, 248383, Note_on_c, 0, 65, 30
2, 248394, Note_on_c, 0, 60, 37
2, 248395, Note_on_c, 0, 86, 29
2, 248396, Note_on_c, 0, 93, 32
2, 248401, Note_on_c, 0, 54, 37
2, 248414, Control_c, 0, 64, 0
2, 248721, Control_c, 0, 64, 127
2, 248728, Note_on_c, 0, 93, 0
2, 249016, Note_on_c, 0, 98, 0
2, 249086, Note_on_c, 0, 86, 0
2, 249124, Note_on_c, 0, 65, 0
2, 249149, Note_on_c, 0, 60, 0
2, 249239, Note_on_c, 0, 54, 0
2, 249796, Control_c, 0, 64, 0
2, 249963, Note_on_c, 0, 72, 32
2, 249971, Note_on_c, 0, 69, 35
2, 249980, Note_on_c, 0, 65, 17
2, 249988, Note_on_c, 0, 55, 24
2, 251407, Note_on_c, 0, 55, 0
2, 251418, Note_on_c, 0, 72, 0
2, 251464, Note_on_c, 0, 69, 0
2, 251476, Note_on_c, 0, 65, 0
2, 251476, End_track
3, 0, Start_track
3, 0, MIDI_port, 1
3, 0, Title_t, "as sung by Dianne Schuur"
3, 0, Program_c, 1, 36
3, 0, Control_c, 1, 7, 109
3, 0, Control_c, 1, 11, 127
3, 0, Control_c, 1, 64, 0
3, 0, Control_c, 1, 67, 0
3, 0, Pitch_bend_c, 1, 8192
3, 384, Control_c, 1, 7, 85
3, 1568, Note_on_c, 1, 35, 76
3, 2184, Note_on_c, 1, 47, 88
3, 2224, Note_on_c, 1, 35, 0
3, 3064, Note_on_c, 1, 35, 73
3, 3088, Note_on_c, 1, 47, 0
3, 3200, Note_on_c, 1, 35, 0
3, 3688, Note_on_c, 1, 47, 92
3, 4616, Note_on_c, 1, 47, 0
3, 4616, Note_on_c, 1, 31, 64
3, 5232, Note_on_c, 1, 43, 92
3, 5304, Note_on_c, 1, 31, 0
3, 6160, Note_on_c, 1, 31, 66
3, 6184, Note_on_c, 1, 43, 0
3, 6264, Note_on_c, 1, 31, 0
3, 6768, Note_on_c, 1, 43, 90
3, 7168, Note_on_c, 1, 33, 82
3, 7184, Note_on_c, 1, 43, 0
3, 7304, Note_on_c, 1, 33, 0
3, 7320, Note_on_c, 1, 34, 55
3, 7504, Note_on_c, 1, 34, 0
3, 7664, Note_on_c, 1, 35, 71
3, 8296, Note_on_c, 1, 47, 95
3, 8360, Note_on_c, 1, 35, 0
3, 9184, Note_on_c, 1, 47, 0
3, 9208, Note_on_c, 1, 35, 68
3, 9848, Note_on_c, 1, 47, 103
3, 9912, Note_on_c, 1, 35, 0
3, 10480, Note_on_c, 1, 33, 58
3, 10496, Note_on_c, 1, 47, 0
3, 10504, Note_on_c, 1, 33, 0
3, 10608, Note_on_c, 1, 32, 62
3, 10672, Note_on_c, 1, 32, 0
3, 10744, Note_on_c, 1, 31, 58
3, 11376, Note_on_c, 1, 43, 89
3, 11400, Note_on_c, 1, 31, 0
3, 12256, Note_on_c, 1, 43, 0
3, 12288, Note_on_c, 1, 31, 62
3, 12896, Note_on_c, 1, 43, 95
3, 12936, Note_on_c, 1, 31, 0
3, 13288, Note_on_c, 1, 33, 71
3, 13336, Note_on_c, 1, 43, 0
3, 13368, Note_on_c, 1, 33, 0
3, 13416, Note_on_c, 1, 34, 61
3, 13600, Note_on_c, 1, 34, 0
3, 13800, Note_on_c, 1, 35, 74
3, 14424, Note_on_c, 1, 47, 92
3, 14464, Note_on_c, 1, 35, 0
3, 15264, Note_on_c, 1, 47, 0
3, 15336, Note_on_c, 1, 35, 54
3, 15968, Note_on_c, 1, 47, 103
3, 16008, Note_on_c, 1, 35, 0
3, 16624, Note_on_c, 1, 33, 49
3, 16656, Note_on_c, 1, 33, 0
3, 16672, Note_on_c, 1, 47, 0
3, 16744, Note_on_c, 1, 32, 65
3, 16800, Note_on_c, 1, 32, 0
3, 16872, Note_on_c, 1, 31, 64
3, 17504, Note_on_c, 1, 43, 80
3, 17536, Note_on_c, 1, 31, 0
3, 18384, Note_on_c, 1, 43, 0
3, 18400, Note_on_c, 1, 31, 60
3, 19032, Note_on_c, 1, 43, 90
3, 19120, Note_on_c, 1, 31, 0
3, 19416, Note_on_c, 1, 43, 0
3, 19432, Note_on_c, 1, 33, 84
3, 19552, Note_on_c, 1, 33, 0
3, 19576, Note_on_c, 1, 34, 62
3, 19736, Note_on_c, 1, 34, 0
3, 19936, Note_on_c, 1, 35, 70
3, 20576, Note_on_c, 1, 47, 92
3, 20712, Note_on_c, 1, 35, 0
3, 21448, Note_on_c, 1, 47, 0
3, 21464, Note_on_c, 1, 35, 55
3, 22096, Note_on_c, 1, 47, 94
3, 22200, Note_on_c, 1, 35, 0
3, 22760, Note_on_c, 1, 33, 51
3, 22792, Note_on_c, 1, 33, 0
3, 22808, Note_on_c, 1, 47, 0
3, 22888, Note_on_c, 1, 32, 64
3, 22952, Note_on_c, 1, 32, 0
3, 23008, Note_on_c, 1, 31, 63
3, 23632, Note_on_c, 1, 43, 94
3, 23768, Note_on_c, 1, 31, 0
3, 24048, Note_on_c, 1, 31, 57
3, 24056, Note_on_c, 1, 43, 0
3, 24072, Note_on_c, 1, 31, 0
3, 24160, Note_on_c, 1, 42, 77
3, 24480, Note_on_c, 1, 42, 0
3, 24536, Note_on_c, 1, 41, 80
3, 25064, Note_on_c, 1, 36, 64
3, 25120, Note_on_c, 1, 36, 0
3, 25120, Note_on_c, 1, 41, 0
3, 25184, Note_on_c, 1, 35, 59
3, 25232, Note_on_c, 1, 35, 0
3, 25304, Note_on_c, 1, 34, 61
3, 25912, Note_on_c, 1, 38, 57
3, 25960, Note_on_c, 1, 34, 0
3, 25984, Note_on_c, 1, 38, 0
3, 26056, Note_on_c, 1, 39, 63
3, 26176, Note_on_c, 1, 39, 0
3, 26680, Note_on_c, 1, 39, 83
3, 27216, Note_on_c, 1, 34, 45
3, 27240, Note_on_c, 1, 39, 0
3, 27304, Note_on_c, 1, 34, 0
3, 27608, Note_on_c, 1, 39, 67
3, 27736, Note_on_c, 1, 39, 0
3, 28224, Note_on_c, 1, 39, 81
3, 29112, Note_on_c, 1, 39, 0
3, 29136, Note_on_c, 1, 38, 55
3, 29296, Note_on_c, 1, 52, 58
3, 29336, Note_on_c, 1, 52, 0
3, 29408, Note_on_c, 1, 53, 62
3, 29456, Note_on_c, 1, 53, 0
3, 29520, Note_on_c, 1, 54, 76
3, 29832, Note_on_c, 1, 38, 0
3, 30280, Note_on_c, 1, 45, 60
3, 30320, Note_on_c, 1, 54, 0
3, 30344, Note_on_c, 1, 45, 0
3, 30664, Note_on_c, 1, 38, 64
3, 31088, Note_on_c, 1, 38, 0
3, 31304, Note_on_c, 1, 38, 80
3, 31704, Note_on_c, 1, 45, 82
3, 31872, Note_on_c, 1, 38, 0
3, 31960, Note_on_c, 1, 45, 0
3, 31984, Note_on_c, 1, 44, 59
3, 32048, Note_on_c, 1, 44, 0
3, 32096, Note_on_c, 1, 38, 62
3, 32120, Note_on_c, 1, 38, 0
3, 32224, Note_on_c, 1, 43, 80
3, 32832, Note_on_c, 1, 31, 83
3, 32872, Note_on_c, 1, 43, 0
3, 33608, Note_on_c, 1, 38, 34
3, 33640, Note_on_c, 1, 38, 0
3, 33704, Note_on_c, 1, 31, 0
3, 33736, Note_on_c, 1, 43, 73
3, 33904, Note_on_c, 1, 43, 0
3, 34360, Note_on_c, 1, 43, 82
3, 34776, Note_on_c, 1, 38, 61
3, 34864, Note_on_c, 1, 38, 0
3, 34880, Note_on_c, 1, 43, 0
3, 34912, Note_on_c, 1, 37, 42
3, 35032, Note_on_c, 1, 37, 0
3, 35272, Note_on_c, 1, 36, 62
3, 35560, Note_on_c, 1, 36, 0
3, 35896, Note_on_c, 1, 36, 90
3, 36696, Note_on_c, 1, 43, 38
3, 36744, Note_on_c, 1, 43, 0
3, 36824, Note_on_c, 1, 48, 74
3, 36984, Note_on_c, 1, 48, 0
3, 37440, Note_on_c, 1, 48, 84
3, 37544, Note_on_c, 1, 36, 0
3, 38112, Note_on_c, 1, 34, 59
3, 38144, Note_on_c, 1, 48, 0
3, 38184, Note_on_c, 1, 34, 0
3, 38248, Note_on_c, 1, 35, 54
3, 38336, Note_on_c, 1, 35, 0
3, 38368, Note_on_c, 1, 36, 66
3, 38976, Note_on_c, 1, 43, 89
3, 39008, Note_on_c, 1, 36, 0
3, 39344, Note_on_c, 1, 36, 50
3, 39400, Note_on_c, 1, 43, 0
3, 39416, Note_on_c, 1, 36, 0
3, 39472, Note_on_c, 1, 37, 46
3, 39848, Note_on_c, 1, 37, 0
3, 39880, Note_on_c, 1, 38, 57
3, 40496, Note_on_c, 1, 50, 92
3, 40632, Note_on_c, 1, 38, 0
3, 40904, Note_on_c, 1, 38, 51
3, 40952, Note_on_c, 1, 38, 0
3, 40960, Note_on_c, 1, 50, 0
3, 41032, Note_on_c, 1, 44, 62
3, 41240, Note_on_c, 1, 44, 0
3, 41408, Note_on_c, 1, 43, 62
3, 41880, Note_on_c, 1, 43, 0
3, 42024, Note_on_c, 1, 43, 67
3, 42312, Note_on_c, 1, 38, 54
3, 42360, Note_on_c, 1, 38, 0
3, 42376, Note_on_c, 1, 43, 0
3, 42424, Note_on_c, 1, 32, 63
3, 42488, Note_on_c, 1, 32, 0
3, 42552, Note_on_c, 1, 32, 69
3, 42888, Note_on_c, 1, 32, 0
3, 42936, Note_on_c, 1, 31, 65
3, 43576, Note_on_c, 1, 38, 80
3, 43608, Note_on_c, 1, 31, 0
3, 43960, Note_on_c, 1, 43, 71
3, 44056, Note_on_c, 1, 38, 0
3, 44216, Note_on_c, 1, 43, 0
3, 44240, Note_on_c, 1, 34, 60
3, 44312, Note_on_c, 1, 34, 0
3, 44352, Note_on_c, 1, 35, 66
3, 44440, Note_on_c, 1, 35, 0
3, 44480, Note_on_c, 1, 36, 66
3, 44584, Note_on_c, 1, 36, 0
3, 45096, Note_on_c, 1, 36, 84
3, 45728, Note_on_c, 1, 36, 0
3, 45792, Note_on_c, 1, 36, 64
3, 45840, Note_on_c, 1, 36, 0
3, 45888, Note_on_c, 1, 37, 52
3, 45984, Note_on_c, 1, 37, 0
3, 46016, Note_on_c, 1, 38, 62
3, 46464, Note_on_c, 1, 38, 0
3, 46640, Note_on_c, 1, 38, 83
3, 47024, Note_on_c, 1, 45, 65
3, 47064, Note_on_c, 1, 45, 0
3, 47160, Note_on_c, 1, 44, 51
3, 47168, Note_on_c, 1, 38, 0
3, 47232, Note_on_c, 1, 44, 0
3, 47424, Note_on_c, 1, 42, 42
3, 47496, Note_on_c, 1, 42, 0
3, 47552, Note_on_c, 1, 43, 57
3, 47728, Note_on_c, 1, 43, 0
3, 48184, Note_on_c, 1, 43, 74
3, 49080, Note_on_c, 1, 31, 60
3, 49088, Note_on_c, 1, 43, 0
3, 49432, Note_on_c, 1, 31, 0
3, 49712, Note_on_c, 1, 31, 83
3, 50088, Note_on_c, 1, 34, 68
3, 50096, Note_on_c, 1, 31, 0
3, 50160, Note_on_c, 1, 34, 0
3, 50232, Note_on_c, 1, 35, 54
3, 50384, Note_on_c, 1, 35, 0
3, 50616, Note_on_c, 1, 36, 75
3, 50800, Note_on_c, 1, 36, 0
3, 51248, Note_on_c, 1, 48, 90
3, 52024, Note_on_c, 1, 37, 62
3, 52040, Note_on_c, 1, 48, 0
3, 52128, Note_on_c, 1, 37, 0
3, 52168, Note_on_c, 1, 38, 55
3, 52296, Note_on_c, 1, 52, 59
3, 52320, Note_on_c, 1, 52, 0
3, 52416, Note_on_c, 1, 53, 69
3, 52472, Note_on_c, 1, 53, 0
3, 52552, Note_on_c, 1, 54, 71
3, 52720, Note_on_c, 1, 38, 0
3, 52776, Note_on_c, 1, 38, 80
3, 52792, Note_on_c, 1, 54, 0
3, 52840, Note_on_c, 1, 38, 0
3, 53176, Note_on_c, 1, 38, 81
3, 53456, Note_on_c, 1, 38, 0
3, 53488, Note_on_c, 1, 45, 64
3, 53488, Note_on_c, 1, 47, 51
3, 53512, Note_on_c, 1, 47, 0
3, 53536, Note_on_c, 1, 45, 0
3, 53576, Note_on_c, 1, 38, 69
3, 53624, Note_on_c, 1, 38, 0
3, 53696, Note_on_c, 1, 43, 82
3, 53832, Note_on_c, 1, 43, 0
3, 54312, Note_on_c, 1, 43, 80
3, 54976, Note_on_c, 1, 34, 64
3, 55032, Note_on_c, 1, 34, 0
3, 55048, Note_on_c, 1, 43, 0
3, 55088, Note_on_c, 1, 35, 66
3, 55176, Note_on_c, 1, 35, 0
3, 55208, Note_on_c, 1, 36, 79
3, 55544, Note_on_c, 1, 36, 0
3, 55840, Note_on_c, 1, 36, 94
3, 56552, Note_on_c, 1, 36, 0
3, 56616, Note_on_c, 1, 35, 66
3, 56704, Note_on_c, 1, 35, 0
3, 56752, Note_on_c, 1, 36, 71
3, 56880, Note_on_c, 1, 36, 0
3, 57376, Note_on_c, 1, 36, 83
3, 58136, Note_on_c, 1, 37, 54
3, 58152, Note_on_c, 1, 36, 0
3, 58232, Note_on_c, 1, 37, 0
3, 58296, Note_on_c, 1, 38, 62
3, 58352, Note_on_c, 1, 38, 0
3, 58920, Note_on_c, 1, 38, 76
3, 59296, Note_on_c, 1, 45, 83
3, 59368, Note_on_c, 1, 38, 0
3, 59384, Note_on_c, 1, 45, 0
3, 59432, Note_on_c, 1, 42, 57
3, 59680, Note_on_c, 1, 42, 0
3, 59824, Note_on_c, 1, 43, 55
3, 59936, Note_on_c, 1, 43, 0
3, 60448, Note_on_c, 1, 43, 71
3, 61240, Note_on_c, 1, 38, 34
3, 61272, Note_on_c, 1, 38, 0
3, 61312, Note_on_c, 1, 43, 0
3, 61360, Note_on_c, 1, 31, 59
3, 61480, Note_on_c, 1, 31, 0
3, 61984, Note_on_c, 1, 38, 71
3, 62072, Note_on_c, 1, 38, 0
3, 62352, Note_on_c, 1, 31, 85
3, 62432, Note_on_c, 1, 31, 0
3, 62480, Note_on_c, 1, 33, 62
3, 62544, Note_on_c, 1, 33, 0
3, 62736, Note_on_c, 1, 34, 69
3, 62800, Note_on_c, 1, 34, 0
3, 62872, Note_on_c, 1, 35, 70
3, 63064, Note_on_c, 1, 35, 0
3, 63496, Note_on_c, 1, 35, 77
3, 64288, Note_on_c, 1, 35, 0
3, 64320, Note_on_c, 1, 33, 20
3, 64344, Note_on_c, 1, 33, 0
3, 64424, Note_on_c, 1, 35, 70
3, 64480, Note_on_c, 1, 35, 0
3, 65048, Note_on_c, 1, 47, 87
3, 65840, Note_on_c, 1, 47, 0
3, 65856, Note_on_c, 1, 32, 30
3, 65888, Note_on_c, 1, 32, 0
3, 65960, Note_on_c, 1, 31, 60
3, 66592, Note_on_c, 1, 43, 90
3, 66616, Note_on_c, 1, 31, 0
3, 67488, Note_on_c, 1, 43, 0
3, 67520, Note_on_c, 1, 31, 56
3, 67552, Note_on_c, 1, 31, 0
3, 68104, Note_on_c, 1, 43, 78
3, 68496, Note_on_c, 1, 43, 0
3, 68512, Note_on_c, 1, 33, 89
3, 68600, Note_on_c, 1, 33, 0
3, 68656, Note_on_c, 1, 34, 60
3, 68768, Note_on_c, 1, 34, 0
3, 68912, Note_on_c, 1, 34, 60
3, 68968, Note_on_c, 1, 34, 0
3, 69024, Note_on_c, 1, 35, 62
3, 69656, Note_on_c, 1, 47, 57
3, 70208, Note_on_c, 1, 35, 0
3, 70528, Note_on_c, 1, 47, 0
3, 70552, Note_on_c, 1, 35, 66
3, 70768, Note_on_c, 1, 35, 0
3, 71200, Note_on_c, 1, 47, 91
3, 71616, Note_on_c, 1, 33, 67
3, 71624, Note_on_c, 1, 35, 31
3, 71648, Note_on_c, 1, 35, 0
3, 71648, Note_on_c, 1, 47, 0
3, 71744, Note_on_c, 1, 33, 0
3, 71752, Note_on_c, 1, 32, 52
3, 71824, Note_on_c, 1, 32, 0
3, 72096, Note_on_c, 1, 31, 57
3, 72728, Note_on_c, 1, 43, 88
3, 72776, Note_on_c, 1, 31, 0
3, 73480, Note_on_c, 1, 31, 58
3, 73520, Note_on_c, 1, 31, 0
3, 73568, Note_on_c, 1, 43, 0
3, 73616, Note_on_c, 1, 29, 64
3, 74224, Note_on_c, 1, 29, 0
3, 74240, Note_on_c, 1, 34, 81
3, 74656, Note_on_c, 1, 41, 87
3, 74696, Note_on_c, 1, 34, 0
3, 74728, Note_on_c, 1, 41, 0
3, 74800, Note_on_c, 1, 38, 30
3, 75032, Note_on_c, 1, 34, 46
3, 75064, Note_on_c, 1, 38, 0
3, 75096, Note_on_c, 1, 34, 0
3, 75160, Note_on_c, 1, 39, 51
3, 75344, Note_on_c, 1, 39, 0
3, 75784, Note_on_c, 1, 39, 69
3, 76432, Note_on_c, 1, 32, 39
3, 76464, Note_on_c, 1, 32, 0
3, 76520, Note_on_c, 1, 39, 0
3, 76544, Note_on_c, 1, 33, 51
3, 76616, Note_on_c, 1, 33, 0
3, 76680, Note_on_c, 1, 34, 72
3, 76808, Note_on_c, 1, 34, 0
3, 76928, Note_on_c, 1, 39, 62
3, 76976, Note_on_c, 1, 39, 0
3, 77320, Note_on_c, 1, 39, 83
3, 77968, Note_on_c, 1, 36, 31
3, 77992, Note_on_c, 1, 39, 0
3, 78056, Note_on_c, 1, 36, 0
3, 78088, Note_on_c, 1, 37, 51
3, 78184, Note_on_c, 1, 37, 0
3, 78232, Note_on_c, 1, 38, 47
3, 78360, Note_on_c, 1, 52, 65
3, 78384, Note_on_c, 1, 52, 0
3, 78464, Note_on_c, 1, 54, 73
3, 78488, Note_on_c, 1, 54, 0
3, 78496, Note_on_c, 1, 53, 63
3, 78576, Note_on_c, 1, 53, 0
3, 78616, Note_on_c, 1, 54, 79
3, 78832, Note_on_c, 1, 38, 0
3, 78896, Note_on_c, 1, 38, 60
3, 78912, Note_on_c, 1, 54, 0
3, 78952, Note_on_c, 1, 38, 0
3, 79264, Note_on_c, 1, 38, 77
3, 79336, Note_on_c, 1, 38, 0
3, 79632, Note_on_c, 1, 36, 57
3, 79656, Note_on_c, 1, 36, 0
3, 79760, Note_on_c, 1, 38, 62
3, 79880, Note_on_c, 1, 38, 0
3, 80384, Note_on_c, 1, 38, 68
3, 81024, Note_on_c, 1, 41, 45
3, 81072, Note_on_c, 1, 38, 0
3, 81080, Note_on_c, 1, 41, 0
3, 81136, Note_on_c, 1, 42, 59
3, 81208, Note_on_c, 1, 42, 0
3, 81272, Note_on_c, 1, 43, 75
3, 81360, Note_on_c, 1, 43, 0
3, 81920, Note_on_c, 1, 43, 92
3, 82304, Note_on_c, 1, 38, 57
3, 82376, Note_on_c, 1, 38, 0
3, 82424, Note_on_c, 1, 43, 0
3, 82448, Note_on_c, 1, 32, 42
3, 82752, Note_on_c, 1, 32, 0
3, 82832, Note_on_c, 1, 31, 59
3, 82968, Note_on_c, 1, 31, 0
3, 83440, Note_on_c, 1, 31, 68
3, 83856, Note_on_c, 1, 31, 0
3, 83856, Note_on_c, 1, 38, 64
3, 84136, Note_on_c, 1, 34, 56
3, 84152, Note_on_c, 1, 38, 0
3, 84208, Note_on_c, 1, 34, 0
3, 84248, Note_on_c, 1, 35, 78
3, 84328, Note_on_c, 1, 35, 0
3, 84360, Note_on_c, 1, 36, 76
3, 84784, Note_on_c, 1, 36, 0
3, 84976, Note_on_c, 1, 36, 72
3, 85392, Note_on_c, 1, 43, 43
3, 85424, Note_on_c, 1, 43, 0
3, 85512, Note_on_c, 1, 48, 50
3, 85568, Note_on_c, 1, 48, 0
3, 85632, Note_on_c, 1, 50, 73
3, 85720, Note_on_c, 1, 50, 0
3, 85744, Note_on_c, 1, 48, 76
3, 85800, Note_on_c, 1, 36, 0
3, 85824, Note_on_c, 1, 48, 0
3, 85888, Note_on_c, 1, 36, 68
3, 85944, Note_on_c, 1, 36, 0
3, 86272, Note_on_c, 1, 36, 43
3, 86296, Note_on_c, 1, 36, 0
3, 86504, Note_on_c, 1, 36, 84
3, 87168, Note_on_c, 1, 34, 57
3, 87192, Note_on_c, 1, 36, 0
3, 87256, Note_on_c, 1, 34, 0
3, 87320, Note_on_c, 1, 35, 59
3, 87392, Note_on_c, 1, 35, 0
3, 87448, Note_on_c, 1, 36, 63
3, 87512, Note_on_c, 1, 36, 0
3, 88064, Note_on_c, 1, 36, 87
3, 88808, Note_on_c, 1, 37, 49
3, 88816, Note_on_c, 1, 36, 0
3, 88928, Note_on_c, 1, 37, 0
3, 88952, Note_on_c, 1, 38, 56
3, 89088, Note_on_c, 1, 52, 48
3, 89152, Note_on_c, 1, 52, 0
3, 89208, Note_on_c, 1, 53, 39
3, 89312, Note_on_c, 1, 53, 0
3, 89360, Note_on_c, 1, 54, 69
3, 89440, Note_on_c, 1, 38, 0
3, 89592, Note_on_c, 1, 38, 74
3, 89600, Note_on_c, 1, 54, 0
3, 90320, Note_on_c, 1, 38, 0
3, 90376, Note_on_c, 1, 42, 40
3, 90472, Note_on_c, 1, 42, 0
3, 90512, Note_on_c, 1, 43, 69
3, 90592, Note_on_c, 1, 43, 0
3, 91120, Note_on_c, 1, 43, 81
3, 91504, Note_on_c, 1, 38, 48
3, 91528, Note_on_c, 1, 43, 0
3, 91536, Note_on_c, 1, 38, 0
3, 91624, Note_on_c, 1, 32, 45
3, 91976, Note_on_c, 1, 32, 0
3, 92024, Note_on_c, 1, 31, 62
3, 92136, Note_on_c, 1, 31, 0
3, 92648, Note_on_c, 1, 31, 81
3, 93048, Note_on_c, 1, 31, 0
3, 93056, Note_on_c, 1, 38, 80
3, 93328, Note_on_c, 1, 38, 0
3, 93328, Note_on_c, 1, 34, 61
3, 93392, Note_on_c, 1, 34, 0
3, 93440, Note_on_c, 1, 35, 69
3, 93536, Note_on_c, 1, 35, 0
3, 93584, Note_on_c, 1, 36, 74
3, 93696, Note_on_c, 1, 36, 0
3, 94192, Note_on_c, 1, 36, 83
3, 94584, Note_on_c, 1, 45, 82
3, 94672, Note_on_c, 1, 45, 0
3, 94688, Note_on_c, 1, 36, 0
3, 94720, Note_on_c, 1, 43, 52
3, 94888, Note_on_c, 1, 43, 0
3, 94968, Note_on_c, 1, 37, 57
3, 95056, Note_on_c, 1, 37, 0
3, 95104, Note_on_c, 1, 38, 59
3, 95288, Note_on_c, 1, 38, 0
3, 95728, Note_on_c, 1, 38, 83
3, 96400, Note_on_c, 1, 50, 69
3, 96408, Note_on_c, 1, 38, 0
3, 96456, Note_on_c, 1, 50, 0
3, 96528, Note_on_c, 1, 38, 53
3, 96568, Note_on_c, 1, 38, 0
3, 96648, Note_on_c, 1, 43, 66
3, 96776, Note_on_c, 1, 43, 0
3, 97264, Note_on_c, 1, 43, 68
3, 98040, Note_on_c, 1, 38, 55
3, 98064, Note_on_c, 1, 38, 0
3, 98064, Note_on_c, 1, 43, 0
3, 98168, Note_on_c, 1, 31, 68
3, 98320, Note_on_c, 1, 31, 0
3, 98800, Note_on_c, 1, 31, 81
3, 99128, Note_on_c, 1, 31, 0
3, 99184, Note_on_c, 1, 34, 72
3, 99200, Note_on_c, 1, 35, 65
3, 99240, Note_on_c, 1, 34, 0
3, 99248, Note_on_c, 1, 35, 0
3, 99568, Note_on_c, 1, 35, 69
3, 99664, Note_on_c, 1, 35, 0
3, 99712, Note_on_c, 1, 36, 67
3, 99800, Note_on_c, 1, 36, 0
3, 100336, Note_on_c, 1, 36, 94
3, 100696, Note_on_c, 1, 36, 0
3, 100728, Note_on_c, 1, 35, 52
3, 100800, Note_on_c, 1, 35, 0
3, 100864, Note_on_c, 1, 36, 64
3, 100896, Note_on_c, 1, 36, 0
3, 101112, Note_on_c, 1, 37, 62
3, 101184, Note_on_c, 1, 37, 0
3, 101256, Note_on_c, 1, 38, 63
3, 101360, Note_on_c, 1, 38, 0
3, 101864, Note_on_c, 1, 38, 81
3, 102256, Note_on_c, 1, 53, 74
3, 102416, Note_on_c, 1, 38, 0
3, 102496, Note_on_c, 1, 53, 0
3, 102520, Note_on_c, 1, 48, 58
3, 102544, Note_on_c, 1, 48, 0
3, 102616, Note_on_c, 1, 42, 60
3, 102712, Note_on_c, 1, 42, 0
3, 102760, Note_on_c, 1, 43, 56
3, 102880, Note_on_c, 1, 43, 0
3, 103392, Note_on_c, 1, 43, 76
3, 103760, Note_on_c, 1, 43, 0
3, 103776, Note_on_c, 1, 38, 53
3, 103808, Note_on_c, 1, 38, 0
3, 103920, Note_on_c, 1, 35, 49
3, 103936, Note_on_c, 1, 36, 32
3, 103960, Note_on_c, 1, 36, 0
3, 104136, Note_on_c, 1, 35, 0
3, 104160, Note_on_c, 1, 36, 92
3, 104552, Note_on_c, 1, 36, 0
3, 104920, Note_on_c, 1, 36, 91
3, 105656, Note_on_c, 1, 36, 0
3, 105712, Note_on_c, 1, 35, 57
3, 105784, Note_on_c, 1, 35, 0
3, 105856, Note_on_c, 1, 36, 74
3, 105968, Note_on_c, 1, 36, 0
3, 106464, Note_on_c, 1, 36, 92
3, 107200, Note_on_c, 1, 36, 0
3, 107240, Note_on_c, 1, 37, 57
3, 107304, Note_on_c, 1, 37, 0
3, 107392, Note_on_c, 1, 38, 60
3, 107496, Note_on_c, 1, 38, 0
3, 108016, Note_on_c, 1, 38, 85
3, 108400, Note_on_c, 1, 34, 38
3, 108464, Note_on_c, 1, 38, 0
3, 108472, Note_on_c, 1, 34, 0
3, 108528, Note_on_c, 1, 45, 40
3, 108768, Note_on_c, 1, 38, 61
3, 108800, Note_on_c, 1, 38, 0
3, 108800, Note_on_c, 1, 45, 0
3, 108896, Note_on_c, 1, 43, 48
3, 109064, Note_on_c, 1, 43, 0
3, 109536, Note_on_c, 1, 43, 66
3, 109944, Note_on_c, 1, 38, 35
3, 109976, Note_on_c, 1, 43, 0
3, 110008, Note_on_c, 1, 38, 0
3, 110048, Note_on_c, 1, 32, 46
3, 110304, Note_on_c, 1, 32, 0
3, 110440, Note_on_c, 1, 31, 54
3, 110688, Note_on_c, 1, 31, 0
3, 111056, Note_on_c, 1, 31, 72
3, 111688, Note_on_c, 1, 31, 0
3, 111720, Note_on_c, 1, 33, 69
3, 111776, Note_on_c, 1, 33, 0
3, 111840, Note_on_c, 1, 34, 78
3, 111920, Note_on_c, 1, 34, 0
3, 111976, Note_on_c, 1, 35, 83
3, 112064, Note_on_c, 1, 35, 0
3, 112592, Note_on_c, 1, 35, 66
3, 113168, Note_on_c, 1, 47, 50
3, 113232, Note_on_c, 1, 47, 0
3, 113272, Note_on_c, 1, 48, 63
3, 113288, Note_on_c, 1, 35, 0
3, 113360, Note_on_c, 1, 48, 0
3, 113392, Note_on_c, 1, 47, 55
3, 113432, Note_on_c, 1, 47, 0
3, 113512, Note_on_c, 1, 35, 47
3, 113648, Note_on_c, 1, 35, 0
3, 114120, Note_on_c, 1, 35, 80
3, 114512, Note_on_c, 1, 33, 56
3, 114520, Note_on_c, 1, 35, 0
3, 114568, Note_on_c, 1, 33, 0
3, 114656, Note_on_c, 1, 32, 51
3, 114752, Note_on_c, 1, 32, 0
3, 115032, Note_on_c, 1, 31, 65
3, 115208, Note_on_c, 1, 31, 0
3, 115672, Note_on_c, 1, 31, 88
3, 116448, Note_on_c, 1, 38, 46
3, 116480, Note_on_c, 1, 38, 0
3, 116480, Note_on_c, 1, 31, 0
3, 116568, Note_on_c, 1, 43, 55
3, 116704, Note_on_c, 1, 43, 0
3, 117208, Note_on_c, 1, 43, 68
3, 117584, Note_on_c, 1, 43, 0
3, 117600, Note_on_c, 1, 33, 94
3, 117752, Note_on_c, 1, 34, 72
3, 117760, Note_on_c, 1, 33, 0
3, 117816, Note_on_c, 1, 34, 0
3, 117976, Note_on_c, 1, 34, 65
3, 118048, Note_on_c, 1, 34, 0
3, 118112, Note_on_c, 1, 35, 63
3, 118224, Note_on_c, 1, 35, 0
3, 118728, Note_on_c, 1, 35, 81
3, 119488, Note_on_c, 1, 35, 0
3, 119504, Note_on_c, 1, 34, 54
3, 119568, Note_on_c, 1, 34, 0
3, 119640, Note_on_c, 1, 35, 56
3, 120024, Note_on_c, 1, 42, 28
3, 120072, Note_on_c, 1, 42, 0
3, 120288, Note_on_c, 1, 47, 81
3, 120320, Note_on_c, 1, 35, 0
3, 120912, Note_on_c, 1, 47, 0
3, 120952, Note_on_c, 1, 33, 71
3, 121016, Note_on_c, 1, 33, 0
3, 121064, Note_on_c, 1, 32, 59
3, 121112, Note_on_c, 1, 32, 0
3, 121192, Note_on_c, 1, 31, 71
3, 121296, Note_on_c, 1, 31, 0
3, 121800, Note_on_c, 1, 31, 74
3, 122520, Note_on_c, 1, 31, 0
3, 122576, Note_on_c, 1, 31, 49
3, 122608, Note_on_c, 1, 31, 0
3, 122704, Note_on_c, 1, 41, 72
3, 123096, Note_on_c, 1, 41, 0
3, 123096, Note_on_c, 1, 36, 58
3, 123296, Note_on_c, 1, 36, 0
3, 123328, Note_on_c, 1, 34, 79
3, 123744, Note_on_c, 1, 38, 48
3, 123768, Note_on_c, 1, 38, 0
3, 123808, Note_on_c, 1, 34, 0
3, 123864, Note_on_c, 1, 46, 58
3, 124048, Note_on_c, 1, 46, 0
3, 124120, Note_on_c, 1, 38, 54
3, 124192, Note_on_c, 1, 38, 0
3, 124248, Note_on_c, 1, 39, 71
3, 124792, Note_on_c, 1, 39, 0
3, 124848, Note_on_c, 1, 34, 77
3, 125648, Note_on_c, 1, 38, 58
3, 125656, Note_on_c, 1, 34, 0
3, 125672, Note_on_c, 1, 38, 0
3, 125768, Note_on_c, 1, 39, 61
3, 125904, Note_on_c, 1, 39, 0
3, 126400, Note_on_c, 1, 39, 75
3, 126784, Note_on_c, 1, 36, 71
3, 126816, Note_on_c, 1, 39, 0
3, 126848, Note_on_c, 1, 36, 0
3, 126920, Note_on_c, 1, 37, 64
3, 127104, Note_on_c, 1, 37, 0
3, 127328, Note_on_c, 1, 38, 71
3, 127400, Note_on_c, 1, 38, 0
3, 127936, Note_on_c, 1, 38, 75
3, 128360, Note_on_c, 1, 45, 28
3, 128392, Note_on_c, 1, 45, 0
3, 128480, Note_on_c, 1, 50, 54
3, 128536, Note_on_c, 1, 50, 0
3, 128576, Note_on_c, 1, 52, 63
3, 128656, Note_on_c, 1, 52, 0
3, 128696, Note_on_c, 1, 50, 68
3, 128712, Note_on_c, 1, 38, 0
3, 128736, Note_on_c, 1, 50, 0
3, 128824, Note_on_c, 1, 38, 64
3, 128896, Note_on_c, 1, 38, 0
3, 129464, Note_on_c, 1, 38, 82
3, 129968, Note_on_c, 1, 38, 0
3, 130016, Note_on_c, 1, 45, 69
3, 130088, Note_on_c, 1, 45, 0
3, 130224, Note_on_c, 1, 38, 68
3, 130272, Note_on_c, 1, 38, 0
3, 130352, Note_on_c, 1, 43, 77
3, 130512, Note_on_c, 1, 43, 0
3, 130992, Note_on_c, 1, 43, 74
3, 131248, Note_on_c, 1, 43, 0
3, 131264, Note_on_c, 1, 38, 54
3, 131312, Note_on_c, 1, 38, 0
3, 131400, Note_on_c, 1, 30, 43
3, 131440, Note_on_c, 1, 30, 0
3, 131528, Note_on_c, 1, 31, 68
3, 131880, Note_on_c, 1, 31, 0
3, 131912, Note_on_c, 1, 38, 54
3, 131952, Note_on_c, 1, 38, 0
3, 132520, Note_on_c, 1, 43, 82
3, 132928, Note_on_c, 1, 38, 50
3, 132992, Note_on_c, 1, 43, 0
3, 133016, Note_on_c, 1, 38, 0
3, 133048, Note_on_c, 1, 34, 37
3, 133064, Note_on_c, 1, 34, 0
3, 133312, Note_on_c, 1, 35, 58
3, 133384, Note_on_c, 1, 35, 0
3, 133448, Note_on_c, 1, 36, 68
3, 133576, Note_on_c, 1, 36, 0
3, 134064, Note_on_c, 1, 36, 94
3, 134848, Note_on_c, 1, 43, 36
3, 134912, Note_on_c, 1, 43, 0
3, 134992, Note_on_c, 1, 48, 68
3, 135000, Note_on_c, 1, 36, 0
3, 135176, Note_on_c, 1, 48, 0
3, 135616, Note_on_c, 1, 48, 87
3, 135992, Note_on_c, 1, 34, 43
3, 136040, Note_on_c, 1, 48, 0
3, 136096, Note_on_c, 1, 34, 0
3, 136136, Note_on_c, 1, 35, 42
3, 136464, Note_on_c, 1, 35, 0
3, 136504, Note_on_c, 1, 36, 57
3, 136640, Note_on_c, 1, 36, 0
3, 137136, Note_on_c, 1, 36, 90
3, 137704, Note_on_c, 1, 36, 0
3, 137832, Note_on_c, 1, 37, 35
3, 137856, Note_on_c, 1, 37, 0
3, 137952, Note_on_c, 1, 37, 25
3, 138024, Note_on_c, 1, 37, 0
3, 138072, Note_on_c, 1, 38, 40
3, 138080, Note_on_c, 1, 40, 36
3, 138112, Note_on_c, 1, 40, 0
3, 138440, Note_on_c, 1, 38, 0
3, 138672, Note_on_c, 1, 38, 75
3, 138928, Note_on_c, 1, 45, 43
3, 138952, Note_on_c, 1, 38, 0
3, 138976, Note_on_c, 1, 45, 0
3, 139056, Note_on_c, 1, 38, 51
3, 139104, Note_on_c, 1, 38, 0
3, 139184, Note_on_c, 1, 42, 52
3, 139248, Note_on_c, 1, 42, 0
3, 139312, Note_on_c, 1, 45, 40
3, 139360, Note_on_c, 1, 45, 0
3, 139576, Note_on_c, 1, 43, 66
3, 139824, Note_on_c, 1, 43, 0
3, 140176, Note_on_c, 1, 43, 67
3, 140456, Note_on_c, 1, 43, 0
3, 140472, Note_on_c, 1, 38, 58
3, 140504, Note_on_c, 1, 38, 0
3, 140600, Note_on_c, 1, 30, 64
3, 140640, Note_on_c, 1, 30, 0
3, 140728, Note_on_c, 1, 30, 51
3, 140936, Note_on_c, 1, 30, 0
3, 140976, Note_on_c, 1, 31, 76
3, 141472, Note_on_c, 1, 31, 0
3, 141736, Note_on_c, 1, 31, 80
3, 142144, Note_on_c, 1, 38, 76
3, 142184, Note_on_c, 1, 31, 0
3, 142256, Note_on_c, 1, 38, 0
3, 142296, Note_on_c, 1, 43, 51
3, 142384, Note_on_c, 1, 43, 0
3, 142528, Note_on_c, 1, 35, 60
3, 142616, Note_on_c, 1, 35, 0
3, 142656, Note_on_c, 1, 36, 65
3, 142808, Note_on_c, 1, 36, 0
3, 143288, Note_on_c, 1, 36, 91
3, 143680, Note_on_c, 1, 34, 35
3, 143728, Note_on_c, 1, 36, 0
3, 143752, Note_on_c, 1, 34, 0
3, 143792, Note_on_c, 1, 37, 47
3, 143976, Note_on_c, 1, 37, 0
3, 144056, Note_on_c, 1, 34, 42
3, 144128, Note_on_c, 1, 34, 0
3, 144184, Note_on_c, 1, 38, 50
3, 144456, Note_on_c, 1, 37, 33
3, 144480, Note_on_c, 1, 37, 0
3, 144560, Note_on_c, 1, 52, 39
3, 144592, Note_on_c, 1, 52, 0
3, 144816, Note_on_c, 1, 54, 79
3, 145016, Note_on_c, 1, 38, 0
3, 145576, Note_on_c, 1, 54, 0
3, 145584, Note_on_c, 1, 38, 74
3, 145632, Note_on_c, 1, 38, 0
3, 145712, Note_on_c, 1, 43, 60
3, 145816, Note_on_c, 1, 43, 0
3, 146344, Note_on_c, 1, 43, 72
3, 147120, Note_on_c, 1, 38, 57
3, 147144, Note_on_c, 1, 38, 0
3, 147256, Note_on_c, 1, 31, 67
3, 147344, Note_on_c, 1, 43, 0
3, 147352, Note_on_c, 1, 31, 0
3, 147880, Note_on_c, 1, 31, 77
3, 148280, Note_on_c, 1, 43, 74
3, 148352, Note_on_c, 1, 31, 0
3, 148520, Note_on_c, 1, 43, 0
3, 148528, Note_on_c, 1, 34, 55
3, 148600, Note_on_c, 1, 34, 0
3, 148648, Note_on_c, 1, 35, 68
3, 148728, Note_on_c, 1, 35, 0
3, 148792, Note_on_c, 1, 36, 71
3, 148960, Note_on_c, 1, 36, 0
3, 149424, Note_on_c, 1, 36, 83
3, 149800, Note_on_c, 1, 43, 92
3, 149864, Note_on_c, 1, 36, 0
3, 149904, Note_on_c, 1, 43, 0
3, 150080, Note_on_c, 1, 36, 63
3, 150144, Note_on_c, 1, 36, 0
3, 150200, Note_on_c, 1, 37, 58
3, 150272, Note_on_c, 1, 37, 0
3, 150344, Note_on_c, 1, 38, 66
3, 150504, Note_on_c, 1, 38, 0
3, 150952, Note_on_c, 1, 38, 82
3, 151088, Note_on_c, 1, 38, 0
3, 151112, Note_on_c, 1, 45, 45
3, 151360, Note_on_c, 1, 38, 54
3, 151368, Note_on_c, 1, 45, 0
3, 151392, Note_on_c, 1, 38, 0
3, 151464, Note_on_c, 1, 42, 42
3, 151728, Note_on_c, 1, 38, 38
3, 151760, Note_on_c, 1, 38, 0
3, 151768, Note_on_c, 1, 42, 0
3, 151856, Note_on_c, 1, 43, 53
3, 151976, Note_on_c, 1, 43, 0
3, 152496, Note_on_c, 1, 43, 77
3, 152888, Note_on_c, 1, 38, 70
3, 152960, Note_on_c, 1, 38, 0
3, 152976, Note_on_c, 1, 43, 0
3, 153016, Note_on_c, 1, 34, 53
3, 153080, Note_on_c, 1, 34, 0
3, 153256, Note_on_c, 1, 36, 89
3, 153816, Note_on_c, 1, 36, 0
3, 154024, Note_on_c, 1, 36, 99
3, 154664, Note_on_c, 1, 34, 50
3, 154680, Note_on_c, 1, 36, 0
3, 154728, Note_on_c, 1, 34, 0
3, 154808, Note_on_c, 1, 35, 54
3, 154896, Note_on_c, 1, 35, 0
3, 154952, Note_on_c, 1, 36, 61
3, 155272, Note_on_c, 1, 36, 0
3, 155544, Note_on_c, 1, 36, 80
3, 156192, Note_on_c, 1, 36, 0
3, 156192, Note_on_c, 1, 43, 66
3, 156232, Note_on_c, 1, 43, 0
3, 156328, Note_on_c, 1, 37, 59
3, 156400, Note_on_c, 1, 37, 0
3, 156472, Note_on_c, 1, 38, 64
3, 156648, Note_on_c, 1, 38, 0
3, 157080, Note_on_c, 1, 38, 83
3, 157080, Note_on_c, 1, 38, 0
3, 157472, Note_on_c, 1, 37, 39
3, 157520, Note_on_c, 1, 38, 0
3, 157520, Note_on_c, 1, 38, 0
3, 157520, Note_on_c, 1, 38, 0
3, 157520, Note_on_c, 1, 38, 0
3, 157520, Note_on_c, 1, 38, 0
3, 157520, Note_on_c, 1, 38, 0
3, 157520, Note_on_c, 1, 38, 0
3, 157520, Note_on_c, 1, 38, 0
3, 157520, Note_on_c, 1, 38, 0
3, 157520, Note_on_c, 1, 38, 0
3, 157520, Note_on_c, 1, 38, 0
3, 157520, Note_on_c, 1, 38, 0
3, 157520, Note_on_c, 1, 38, 0
3, 157520, Note_on_c, 1, 38, 0
3, 157520, Note_on_c, 1, 38, 0
3, 157520, Note_on_c, 1, 38, 0
3, 157520, Note_on_c, 1, 38, 0
3, 157520, Note_on_c, 1, 38, 0
3, 157520, Note_on_c, 1, 38, 0
3, 157520, Note_on_c, 1, 38, 0
3, 157520, Note_on_c, 1, 38, 0
3, 157520, Note_on_c, 1, 38, 0
3, 157520, Note_on_c, 1, 38, 0
3, 157520, Note_on_c, 1, 38, 0
3, 157520, Note_on_c, 1, 38, 0
3, 157520, Note_on_c, 1, 38, 0
3, 157520, Note_on_c, 1, 38, 0
3, 157520, Note_on_c, 1, 38, 0
3, 157520, Note_on_c, 1, 38, 0
3, 157520, Note_on_c, 1, 38, 0
3, 157520, Note_on_c, 1, 38, 0
3, 157520, Note_on_c, 1, 38, 0
3, 157520, Note_on_c, 1, 38, 0
3, 157520, Note_on_c, 1, 38, 0
3, 157520, Note_on_c, 1, 38, 0
3, 157520, Note_on_c, 1, 38, 0
3, 157520, Note_on_c, 1, 38, 0
3, 157520, Note_on_c, 1, 38, 0
3, 157520, Note_on_c, 1, 38, 0
3, 157520, Note_on_c, 1, 38, 0
3, 157520, Note_on_c, 1, 38, 0
3, 157520, Note_on_c, 1, 38, 0
3, 157520, Note_on_c, 1, 38, 0
3, 157520, Note_on_c, 1, 38, 0
3, 157520, Note_on_c, 1, 38, 0
3, 157520, Note_on_c, 1, 38, 0
3, 157520, Note_on_c, 1, 38, 0
3, 157520, Note_on_c, 1, 38, 0
3, 157520, Note_on_c, 1, 38, 0
3, 157520, Note_on_c, 1, 38, 0
3, 157520, Note_on_c, 1, 38, 0
3, 157520, Note_on_c, 1, 38, 0
3, 157520, Note_on_c, 1, 38, 0
3, 157520, Note_on_c, 1, 38, 0
3, 157520, Note_on_c, 1, 38, 0
3, 157520, Note_on_c, 1, 38, 0
3, 157520, Note_on_c, 1, 38, 0
3, 157520, Note_on_c, 1, 38, 0
3, 157520, Note_on_c, 1, 38, 0
3, 157520, Note_on_c, 1, 38, 0
3, 157520, Note_on_c, 1, 38, 0
3, 157520, Note_on_c, 1, 38, 0
3, 157520, Note_on_c, 1, 38, 0
3, 157520, Note_on_c, 1, 38, 0
3, 157536, Note_on_c, 1, 37, 0
3, 157592, Note_on_c, 1, 42, 60
3, 157816, Note_on_c, 1, 42, 0
3, 157976, Note_on_c, 1, 43, 54
3, 158112, Note_on_c, 1, 43, 0
3, 158616, Note_on_c, 1, 43, 67
3, 159264, Note_on_c, 1, 38, 50
3, 159296, Note_on_c, 1, 38, 0
3, 159312, Note_on_c, 1, 43, 0
3, 159384, Note_on_c, 1, 32, 55
3, 159448, Note_on_c, 1, 32, 0
3, 159528, Note_on_c, 1, 31, 64
3, 159768, Note_on_c, 1, 31, 0
3, 160168, Note_on_c, 1, 31, 75
3, 160640, Note_on_c, 1, 31, 0
3, 160688, Note_on_c, 1, 45, 63
3, 160728, Note_on_c, 1, 45, 0
3, 160808, Note_on_c, 1, 33, 64
3, 160864, Note_on_c, 1, 33, 0
3, 160936, Note_on_c, 1, 34, 77
3, 161008, Note_on_c, 1, 34, 0
3, 161064, Note_on_c, 1, 35, 71
3, 161176, Note_on_c, 1, 35, 0
3, 161688, Note_on_c, 1, 35, 74
3, 162264, Note_on_c, 1, 47, 24
3, 162288, Note_on_c, 1, 47, 0
3, 162360, Note_on_c, 1, 48, 57
3, 162424, Note_on_c, 1, 48, 0
3, 162472, Note_on_c, 1, 35, 0
3, 162480, Note_on_c, 1, 47, 62
3, 162512, Note_on_c, 1, 47, 0
3, 162632, Note_on_c, 1, 35, 42
3, 162736, Note_on_c, 1, 35, 0
3, 163224, Note_on_c, 1, 35, 77
3, 163848, Note_on_c, 1, 33, 60
3, 163856, Note_on_c, 1, 35, 0
3, 163872, Note_on_c, 1, 33, 0
3, 163968, Note_on_c, 1, 32, 64
3, 164032, Note_on_c, 1, 32, 0
3, 164120, Note_on_c, 1, 31, 64
3, 164304, Note_on_c, 1, 31, 0
3, 164752, Note_on_c, 1, 43, 81
3, 165544, Note_on_c, 1, 38, 49
3, 165584, Note_on_c, 1, 43, 0
3, 165600, Note_on_c, 1, 38, 0
3, 165680, Note_on_c, 1, 31, 64
3, 165816, Note_on_c, 1, 31, 0
3, 166296, Note_on_c, 1, 43, 84
3, 166688, Note_on_c, 1, 38, 51
3, 166696, Note_on_c, 1, 43, 0
3, 166712, Note_on_c, 1, 38, 0
3, 166952, Note_on_c, 1, 33, 57
3, 166992, Note_on_c, 1, 33, 0
3, 167064, Note_on_c, 1, 34, 75
3, 167128, Note_on_c, 1, 34, 0
3, 167200, Note_on_c, 1, 35, 66
3, 167384, Note_on_c, 1, 35, 0
3, 167816, Note_on_c, 1, 47, 87
3, 168576, Note_on_c, 1, 42, 32
3, 168600, Note_on_c, 1, 42, 0
3, 168712, Note_on_c, 1, 35, 69
3, 168840, Note_on_c, 1, 35, 0
3, 168840, Note_on_c, 1, 47, 0
3, 169352, Note_on_c, 1, 47, 81
3, 169752, Note_on_c, 1, 35, 60
3, 169776, Note_on_c, 1, 47, 0
3, 169832, Note_on_c, 1, 35, 0
3, 169880, Note_on_c, 1, 45, 57
3, 169912, Note_on_c, 1, 45, 0
3, 170144, Note_on_c, 1, 44, 79
3, 170216, Note_on_c, 1, 44, 0
3, 170880, Note_on_c, 1, 43, 67
3, 171160, Note_on_c, 1, 38, 49
3, 171184, Note_on_c, 1, 38, 0
3, 171192, Note_on_c, 1, 43, 0
3, 171280, Note_on_c, 1, 38, 60
3, 171312, Note_on_c, 1, 38, 0
3, 171640, Note_on_c, 1, 30, 70
3, 171720, Note_on_c, 1, 30, 0
3, 171792, Note_on_c, 1, 31, 57
3, 171928, Note_on_c, 1, 31, 0
3, 172424, Note_on_c, 1, 31, 68
3, 172480, Note_on_c, 1, 31, 0
3, 172568, Note_on_c, 1, 41, 59
3, 172776, Note_on_c, 1, 41, 0
3, 172808, Note_on_c, 1, 31, 54
3, 172840, Note_on_c, 1, 31, 0
3, 172936, Note_on_c, 1, 43, 58
3, 173200, Note_on_c, 1, 35, 42
3, 173240, Note_on_c, 1, 43, 0
3, 173272, Note_on_c, 1, 35, 0
3, 173328, Note_on_c, 1, 36, 60
3, 173408, Note_on_c, 1, 36, 0
3, 173952, Note_on_c, 1, 36, 96
3, 174528, Note_on_c, 1, 36, 0
3, 174584, Note_on_c, 1, 35, 57
3, 174624, Note_on_c, 1, 35, 0
3, 174704, Note_on_c, 1, 36, 78
3, 174768, Note_on_c, 1, 36, 0
3, 174856, Note_on_c, 1, 38, 65
3, 174960, Note_on_c, 1, 38, 0
3, 175496, Note_on_c, 1, 50, 91
3, 175896, Note_on_c, 1, 38, 66
3, 175920, Note_on_c, 1, 50, 0
3, 175952, Note_on_c, 1, 38, 0
3, 176024, Note_on_c, 1, 42, 63
3, 176240, Note_on_c, 1, 42, 0
3, 176272, Note_on_c, 1, 38, 60
3, 176296, Note_on_c, 1, 38, 0
3, 176424, Note_on_c, 1, 43, 65
3, 176592, Note_on_c, 1, 43, 0
3, 177024, Note_on_c, 1, 43, 77
3, 177416, Note_on_c, 1, 38, 54
3, 177488, Note_on_c, 1, 38, 0
3, 177488, Note_on_c, 1, 43, 0
3, 177560, Note_on_c, 1, 34, 37
3, 177880, Note_on_c, 1, 34, 0
3, 177936, Note_on_c, 1, 31, 53
3, 178104, Note_on_c, 1, 31, 0
3, 178560, Note_on_c, 1, 31, 71
3, 178928, Note_on_c, 1, 31, 0
3, 178952, Note_on_c, 1, 34, 55
3, 179040, Note_on_c, 1, 34, 0
3, 179080, Note_on_c, 1, 35, 60
3, 179408, Note_on_c, 1, 35, 0
3, 179464, Note_on_c, 1, 36, 66
3, 179584, Note_on_c, 1, 36, 0
3, 180080, Note_on_c, 1, 45, 80
3, 180200, Note_on_c, 1, 45, 0
3, 180232, Note_on_c, 1, 43, 34
3, 180464, Note_on_c, 1, 36, 62
3, 180480, Note_on_c, 1, 38, 46
3, 180504, Note_on_c, 1, 38, 0
3, 180528, Note_on_c, 1, 43, 0
3, 180840, Note_on_c, 1, 36, 0
3, 180864, Note_on_c, 1, 37, 56
3, 180944, Note_on_c, 1, 37, 0
3, 181016, Note_on_c, 1, 38, 57
3, 181176, Note_on_c, 1, 52, 64
3, 181208, Note_on_c, 1, 52, 0
3, 181288, Note_on_c, 1, 53, 57
3, 181344, Note_on_c, 1, 53, 0
3, 181416, Note_on_c, 1, 54, 67
3, 181576, Note_on_c, 1, 38, 0
3, 181624, Note_on_c, 1, 38, 59
3, 181656, Note_on_c, 1, 54, 0
3, 181680, Note_on_c, 1, 38, 0
3, 182032, Note_on_c, 1, 38, 79
3, 182088, Note_on_c, 1, 38, 0
3, 182304, Note_on_c, 1, 41, 66
3, 182336, Note_on_c, 1, 41, 0
3, 182408, Note_on_c, 1, 42, 69
3, 182448, Note_on_c, 1, 42, 0
3, 182536, Note_on_c, 1, 43, 64
3, 182632, Note_on_c, 1, 43, 0
3, 183160, Note_on_c, 1, 43, 75
3, 183192, Note_on_c, 1, 36, 35
3, 183216, Note_on_c, 1, 36, 0
3, 183936, Note_on_c, 1, 38, 50
3, 183960, Note_on_c, 1, 38, 0
3, 184072, Note_on_c, 1, 31, 66
3, 184176, Note_on_c, 1, 31, 0
3, 184392, Note_on_c, 1, 38, 45
3, 184432, Note_on_c, 1, 38, 0
3, 184688, Note_on_c, 1, 31, 84
3, 185064, Note_on_c, 1, 31, 0
3, 185088, Note_on_c, 1, 34, 63
3, 185120, Note_on_c, 1, 43, 0
3, 185192, Note_on_c, 1, 34, 0
3, 185216, Note_on_c, 1, 35, 56
3, 185392, Note_on_c, 1, 35, 0
3, 185456, Note_on_c, 1, 34, 37
3, 185536, Note_on_c, 1, 34, 0
3, 185584, Note_on_c, 1, 36, 63
3, 185784, Note_on_c, 1, 36, 0
3, 186240, Note_on_c, 1, 36, 52
3, 186280, Note_on_c, 1, 36, 0
3, 186360, Note_on_c, 1, 43, 49
3, 186880, Note_on_c, 1, 43, 0
3, 186880, Note_on_c, 1, 36, 54
3, 186920, Note_on_c, 1, 36, 0
3, 187008, Note_on_c, 1, 37, 56
3, 187088, Note_on_c, 1, 37, 0
3, 187128, Note_on_c, 1, 38, 52
3, 187648, Note_on_c, 1, 52, 51
3, 187696, Note_on_c, 1, 52, 0
3, 187752, Note_on_c, 1, 53, 43
3, 187832, Note_on_c, 1, 53, 0
3, 187904, Note_on_c, 1, 54, 65
3, 187928, Note_on_c, 1, 38, 0
3, 188152, Note_on_c, 1, 38, 60
3, 188184, Note_on_c, 1, 38, 0
3, 188400, Note_on_c, 1, 41, 57
3, 188432, Note_on_c, 1, 54, 0
3, 188464, Note_on_c, 1, 41, 0
3, 188536, Note_on_c, 1, 42, 45
3, 188632, Note_on_c, 1, 42, 0
3, 188672, Note_on_c, 1, 43, 62
3, 188800, Note_on_c, 1, 43, 0
3, 189288, Note_on_c, 1, 43, 84
3, 189680, Note_on_c, 1, 38, 46
3, 189688, Note_on_c, 1, 43, 0
3, 189712, Note_on_c, 1, 38, 0
3, 189808, Note_on_c, 1, 37, 62
3, 190152, Note_on_c, 1, 37, 0
3, 190200, Note_on_c, 1, 36, 66
3, 190392, Note_on_c, 1, 36, 0
3, 190832, Note_on_c, 1, 36, 82
3, 191136, Note_on_c, 1, 50, 55
3, 191168, Note_on_c, 1, 50, 0
3, 191512, Note_on_c, 1, 36, 0
3, 191592, Note_on_c, 1, 42, 59
3, 191616, Note_on_c, 1, 42, 0
3, 191736, Note_on_c, 1, 36, 74
3, 191896, Note_on_c, 1, 36, 0
3, 192368, Note_on_c, 1, 36, 77
3, 192736, Note_on_c, 1, 43, 49
3, 192768, Note_on_c, 1, 43, 0
3, 192808, Note_on_c, 1, 36, 0
3, 192872, Note_on_c, 1, 48, 61
3, 192896, Note_on_c, 1, 48, 0
3, 192984, Note_on_c, 1, 36, 62
3, 193032, Note_on_c, 1, 36, 0
3, 193120, Note_on_c, 1, 37, 62
3, 193216, Note_on_c, 1, 37, 0
3, 193264, Note_on_c, 1, 38, 56
3, 193392, Note_on_c, 1, 52, 55
3, 193416, Note_on_c, 1, 52, 0
3, 193512, Note_on_c, 1, 53, 64
3, 193584, Note_on_c, 1, 53, 0
3, 193656, Note_on_c, 1, 54, 67
3, 193704, Note_on_c, 1, 38, 0
3, 193904, Note_on_c, 1, 38, 81
3, 194216, Note_on_c, 1, 38, 0
3, 194280, Note_on_c, 1, 38, 59
3, 194320, Note_on_c, 1, 38, 0
3, 194552, Note_on_c, 1, 41, 62
3, 194584, Note_on_c, 1, 54, 0
3, 194600, Note_on_c, 1, 41, 0
3, 194664, Note_on_c, 1, 42, 69
3, 194712, Note_on_c, 1, 42, 0
3, 194808, Note_on_c, 1, 43, 61
3, 195392, Note_on_c, 1, 43, 0
3, 195440, Note_on_c, 1, 37, 43
3, 195528, Note_on_c, 1, 37, 0
3, 195568, Note_on_c, 1, 38, 50
3, 196200, Note_on_c, 1, 30, 55
3, 196248, Note_on_c, 1, 30, 0
3, 196288, Note_on_c, 1, 38, 0
3, 196328, Note_on_c, 1, 31, 61
3, 196920, Note_on_c, 1, 31, 0
3, 196960, Note_on_c, 1, 38, 83
3, 197096, Note_on_c, 1, 38, 0
3, 197336, Note_on_c, 1, 34, 54
3, 197392, Note_on_c, 1, 34, 0
3, 197456, Note_on_c, 1, 37, 70
3, 197520, Note_on_c, 1, 37, 0
3, 197720, Note_on_c, 1, 35, 68
3, 197800, Note_on_c, 1, 35, 0
3, 197864, Note_on_c, 1, 36, 57
3, 198016, Note_on_c, 1, 36, 0
3, 198496, Note_on_c, 1, 36, 79
3, 198912, Note_on_c, 1, 43, 27
3, 198944, Note_on_c, 1, 43, 0
3, 199016, Note_on_c, 1, 36, 0
3, 199032, Note_on_c, 1, 48, 81
3, 199096, Note_on_c, 1, 48, 0
3, 199272, Note_on_c, 1, 37, 46
3, 199352, Note_on_c, 1, 37, 0
3, 199408, Note_on_c, 1, 38, 58
3, 199872, Note_on_c, 1, 38, 0
3, 200048, Note_on_c, 1, 38, 84
3, 200264, Note_on_c, 1, 38, 0
3, 200312, Note_on_c, 1, 45, 66
3, 200384, Note_on_c, 1, 45, 0
3, 200440, Note_on_c, 1, 38, 58
3, 200488, Note_on_c, 1, 38, 0
3, 200560, Note_on_c, 1, 42, 60
3, 200624, Note_on_c, 1, 42, 0
3, 200704, Note_on_c, 1, 38, 68
3, 200744, Note_on_c, 1, 38, 0
3, 200816, Note_on_c, 1, 43, 87
3, 201488, Note_on_c, 1, 43, 0
3, 201552, Note_on_c, 1, 43, 72
3, 201848, Note_on_c, 1, 38, 68
3, 201888, Note_on_c, 1, 38, 0
3, 202088, Note_on_c, 1, 34, 52
3, 202104, Note_on_c, 1, 43, 0
3, 202168, Note_on_c, 1, 34, 0
3, 202336, Note_on_c, 1, 35, 71
3, 202400, Note_on_c, 1, 35, 0
3, 202480, Note_on_c, 1, 36, 61
3, 203016, Note_on_c, 1, 36, 0
3, 203096, Note_on_c, 1, 36, 77
3, 203216, Note_on_c, 1, 36, 0
3, 203392, Note_on_c, 1, 50, 53
3, 203432, Note_on_c, 1, 50, 0
3, 203496, Note_on_c, 1, 51, 56
3, 203568, Note_on_c, 1, 51, 0
3, 203624, Note_on_c, 1, 52, 62
3, 203680, Note_on_c, 1, 52, 0
3, 203736, Note_on_c, 1, 41, 44
3, 203792, Note_on_c, 1, 41, 0
3, 203848, Note_on_c, 1, 42, 62
3, 203904, Note_on_c, 1, 42, 0
3, 204248, Note_on_c, 1, 36, 76
3, 204584, Note_on_c, 1, 36, 0
3, 204656, Note_on_c, 1, 43, 26
3, 204656, Note_on_c, 1, 36, 26
3, 204688, Note_on_c, 1, 43, 0
3, 204704, Note_on_c, 1, 36, 0
3, 204776, Note_on_c, 1, 48, 72
3, 204856, Note_on_c, 1, 48, 0
3, 205016, Note_on_c, 1, 36, 66
3, 205080, Note_on_c, 1, 36, 0
3, 205160, Note_on_c, 1, 37, 59
3, 205512, Note_on_c, 1, 37, 0
3, 205544, Note_on_c, 1, 38, 44
3, 206056, Note_on_c, 1, 38, 0
3, 206176, Note_on_c, 1, 38, 65
3, 206552, Note_on_c, 1, 45, 38
3, 206592, Note_on_c, 1, 45, 0
3, 206784, Note_on_c, 1, 38, 0
3, 206840, Note_on_c, 1, 41, 60
3, 206904, Note_on_c, 1, 41, 0
3, 206960, Note_on_c, 1, 42, 71
3, 207008, Note_on_c, 1, 42, 0
3, 207104, Note_on_c, 1, 43, 53
3, 207288, Note_on_c, 1, 43, 0
3, 207712, Note_on_c, 1, 43, 65
3, 208472, Note_on_c, 1, 38, 53
3, 208496, Note_on_c, 1, 38, 0
3, 208608, Note_on_c, 1, 31, 64
3, 208792, Note_on_c, 1, 31, 0
3, 209232, Note_on_c, 1, 31, 81
3, 209592, Note_on_c, 1, 31, 0
3, 209624, Note_on_c, 1, 34, 69
3, 209656, Note_on_c, 1, 43, 0
3, 209704, Note_on_c, 1, 34, 0
3, 209760, Note_on_c, 1, 35, 69
3, 210088, Note_on_c, 1, 35, 0
3, 210128, Note_on_c, 1, 36, 74
3, 210296, Note_on_c, 1, 36, 0
3, 210760, Note_on_c, 1, 36, 83
3, 211152, Note_on_c, 1, 43, 91
3, 211160, Note_on_c, 1, 36, 0
3, 211384, Note_on_c, 1, 43, 0
3, 211408, Note_on_c, 1, 36, 62
3, 211456, Note_on_c, 1, 36, 0
3, 211544, Note_on_c, 1, 37, 51
3, 211600, Note_on_c, 1, 37, 0
3, 211696, Note_on_c, 1, 38, 57
3, 212088, Note_on_c, 1, 38, 0
3, 212304, Note_on_c, 1, 38, 60
3, 212360, Note_on_c, 1, 38, 0
3, 212496, Note_on_c, 1, 50, 26
3, 212496, Note_on_c, 1, 48, 25
3, 212544, Note_on_c, 1, 48, 0
3, 212656, Note_on_c, 1, 50, 0
3, 212688, Note_on_c, 1, 52, 80
3, 212792, Note_on_c, 1, 52, 0
3, 212856, Note_on_c, 1, 45, 28
3, 213000, Note_on_c, 1, 45, 0
3, 213064, Note_on_c, 1, 42, 52
3, 213136, Note_on_c, 1, 42, 0
3, 213208, Note_on_c, 1, 43, 48
3, 213336, Note_on_c, 1, 43, 0
3, 213840, Note_on_c, 1, 43, 66
3, 214232, Note_on_c, 1, 38, 61
3, 214288, Note_on_c, 1, 43, 0
3, 214344, Note_on_c, 1, 38, 0
3, 214480, Note_on_c, 1, 34, 52
3, 214560, Note_on_c, 1, 34, 0
3, 214608, Note_on_c, 1, 35, 61
3, 214672, Note_on_c, 1, 35, 0
3, 214744, Note_on_c, 1, 36, 54
3, 215016, Note_on_c, 1, 43, 49
3, 215048, Note_on_c, 1, 43, 0
3, 215536, Note_on_c, 1, 48, 61
3, 215584, Note_on_c, 1, 48, 0
3, 215624, Note_on_c, 1, 50, 64
3, 215704, Note_on_c, 1, 50, 0
3, 215760, Note_on_c, 1, 48, 78
3, 215896, Note_on_c, 1, 36, 0
3, 215992, Note_on_c, 1, 48, 0
3, 216120, Note_on_c, 1, 35, 57
3, 216144, Note_on_c, 1, 35, 0
3, 216224, Note_on_c, 1, 35, 65
3, 216312, Note_on_c, 1, 35, 0
3, 216352, Note_on_c, 1, 36, 60
3, 216512, Note_on_c, 1, 36, 0
3, 216920, Note_on_c, 1, 36, 66
3, 217208, Note_on_c, 1, 36, 0
3, 217304, Note_on_c, 1, 36, 62
3, 217328, Note_on_c, 1, 36, 0
3, 217432, Note_on_c, 1, 37, 59
3, 217480, Note_on_c, 1, 37, 0
3, 217680, Note_on_c, 1, 37, 65
3, 217768, Note_on_c, 1, 37, 0
3, 217816, Note_on_c, 1, 38, 51
3, 218432, Note_on_c, 1, 50, 94
3, 218472, Note_on_c, 1, 38, 0
3, 218832, Note_on_c, 1, 38, 61
3, 218864, Note_on_c, 1, 50, 0
3, 218896, Note_on_c, 1, 38, 0
3, 218960, Note_on_c, 1, 42, 46
3, 219128, Note_on_c, 1, 42, 0
3, 219200, Note_on_c, 1, 45, 74
3, 219296, Note_on_c, 1, 45, 0
3, 219344, Note_on_c, 1, 43, 59
3, 219512, Note_on_c, 1, 43, 0
3, 219976, Note_on_c, 1, 43, 73
3, 220752, Note_on_c, 1, 38, 37
3, 220792, Note_on_c, 1, 43, 0
3, 220816, Note_on_c, 1, 38, 0
3, 220872, Note_on_c, 1, 31, 50
3, 221072, Note_on_c, 1, 31, 0
3, 221504, Note_on_c, 1, 31, 71
3, 221888, Note_on_c, 1, 34, 37
3, 221912, Note_on_c, 1, 31, 0
3, 221992, Note_on_c, 1, 34, 0
3, 222032, Note_on_c, 1, 35, 54
3, 222376, Note_on_c, 1, 35, 0
3, 222408, Note_on_c, 1, 36, 60
3, 222568, Note_on_c, 1, 36, 0
3, 223056, Note_on_c, 1, 36, 85
3, 223808, Note_on_c, 1, 37, 37
3, 223816, Note_on_c, 1, 36, 0
3, 223880, Note_on_c, 1, 37, 0
3, 223952, Note_on_c, 1, 38, 60
3, 224040, Note_on_c, 1, 38, 0
3, 224584, Note_on_c, 1, 38, 88
3, 225296, Note_on_c, 1, 38, 0
3, 225360, Note_on_c, 1, 32, 54
3, 225424, Note_on_c, 1, 32, 0
3, 225488, Note_on_c, 1, 31, 68
3, 226144, Note_on_c, 1, 38, 56
3, 226168, Note_on_c, 1, 38, 0
3, 226176, Note_on_c, 1, 31, 0
3, 226264, Note_on_c, 1, 43, 71
3, 226944, Note_on_c, 1, 43, 0
3, 226992, Note_on_c, 1, 36, 65
3, 227656, Note_on_c, 1, 43, 60
3, 227968, Note_on_c, 1, 43, 0
3, 228040, Note_on_c, 1, 45, 47
3, 228072, Note_on_c, 1, 45, 0
3, 228184, Note_on_c, 1, 48, 58
3, 228208, Note_on_c, 1, 48, 0
3, 228216, Note_on_c, 1, 36, 0
3, 228296, Note_on_c, 1, 50, 68
3, 228376, Note_on_c, 1, 50, 0
3, 228424, Note_on_c, 1, 48, 68
3, 228464, Note_on_c, 1, 48, 0
3, 228552, Note_on_c, 1, 50, 65
3, 228664, Note_on_c, 1, 50, 0
3, 228808, Note_on_c, 1, 48, 71
3, 228872, Note_on_c, 1, 48, 0
3, 229176, Note_on_c, 1, 43, 59
3, 229208, Note_on_c, 1, 43, 0
3, 229304, Note_on_c, 1, 36, 68
3, 229680, Note_on_c, 1, 36, 0
3, 229856, Note_on_c, 1, 36, 53
3, 229896, Note_on_c, 1, 36, 0
3, 229976, Note_on_c, 1, 37, 57
3, 230040, Note_on_c, 1, 37, 0
3, 230112, Note_on_c, 1, 38, 44
3, 230736, Note_on_c, 1, 42, 40
3, 230760, Note_on_c, 1, 42, 0
3, 231000, Note_on_c, 1, 53, 92
3, 231024, Note_on_c, 1, 38, 0
3, 231184, Note_on_c, 1, 38, 33
3, 231208, Note_on_c, 1, 53, 0
3, 231216, Note_on_c, 1, 38, 0
3, 231272, Note_on_c, 1, 51, 72
3, 231448, Note_on_c, 1, 51, 0
3, 231520, Note_on_c, 1, 49, 55
3, 231584, Note_on_c, 1, 49, 0
3, 231624, Note_on_c, 1, 50, 51
3, 231688, Note_on_c, 1, 50, 0
3, 231760, Note_on_c, 1, 46, 53
3, 231792, Note_on_c, 1, 46, 0
3, 231896, Note_on_c, 1, 38, 27
3, 231920, Note_on_c, 1, 38, 0
3, 232008, Note_on_c, 1, 43, 45
3, 232640, Note_on_c, 1, 43, 0
3, 232664, Note_on_c, 1, 38, 35
3, 232696, Note_on_c, 1, 38, 0
3, 232760, Note_on_c, 1, 41, 50
3, 233016, Note_on_c, 1, 43, 68
3, 233040, Note_on_c, 1, 41, 0
3, 233096, Note_on_c, 1, 43, 0
3, 233144, Note_on_c, 1, 31, 58
3, 233360, Note_on_c, 1, 31, 0
3, 233776, Note_on_c, 1, 31, 76
3, 234176, Note_on_c, 1, 31, 0
3, 234184, Note_on_c, 1, 34, 48
3, 234264, Note_on_c, 1, 34, 0
3, 234304, Note_on_c, 1, 35, 51
3, 234648, Note_on_c, 1, 35, 0
3, 234680, Note_on_c, 1, 36, 55
3, 234760, Note_on_c, 1, 36, 0
3, 235320, Note_on_c, 1, 36, 91
3, 235880, Note_on_c, 1, 36, 0
3, 235984, Note_on_c, 1, 36, 57
3, 236032, Note_on_c, 1, 36, 0
3, 236104, Note_on_c, 1, 37, 59
3, 236160, Note_on_c, 1, 37, 0
3, 236248, Note_on_c, 1, 38, 68
3, 236720, Note_on_c, 1, 52, 47
3, 236752, Note_on_c, 1, 52, 0
3, 236848, Note_on_c, 1, 53, 69
3, 236928, Note_on_c, 1, 53, 0
3, 236992, Note_on_c, 1, 54, 71
3, 237432, Note_on_c, 1, 38, 0
3, 237496, Note_on_c, 1, 41, 39
3, 237544, Note_on_c, 1, 54, 0
3, 237552, Note_on_c, 1, 41, 0
3, 237616, Note_on_c, 1, 42, 50
3, 237720, Note_on_c, 1, 42, 0
3, 237752, Note_on_c, 1, 43, 63
3, 238064, Note_on_c, 1, 43, 0
3, 238392, Note_on_c, 1, 38, 85
3, 238976, Note_on_c, 1, 38, 0
3, 239032, Note_on_c, 1, 34, 62
3, 239096, Note_on_c, 1, 34, 0
3, 239160, Note_on_c, 1, 35, 60
3, 239240, Note_on_c, 1, 35, 0
3, 239304, Note_on_c, 1, 36, 60
3, 239912, Note_on_c, 1, 45, 87
3, 240016, Note_on_c, 1, 45, 0
3, 240040, Note_on_c, 1, 36, 0
3, 240056, Note_on_c, 1, 43, 44
3, 240248, Note_on_c, 1, 43, 0
3, 240312, Note_on_c, 1, 36, 69
3, 240368, Note_on_c, 1, 36, 0
3, 240440, Note_on_c, 1, 34, 38
3, 240512, Note_on_c, 1, 34, 0
3, 240696, Note_on_c, 1, 35, 63
3, 240768, Note_on_c, 1, 35, 0
3, 240840, Note_on_c, 1, 36, 54
3, 240944, Note_on_c, 1, 36, 0
3, 241448, Note_on_c, 1, 36, 92
3, 242056, Note_on_c, 1, 36, 0
3, 242136, Note_on_c, 1, 36, 70
3, 242184, Note_on_c, 1, 36, 0
3, 242256, Note_on_c, 1, 37, 56
3, 242304, Note_on_c, 1, 37, 0
3, 242392, Note_on_c, 1, 38, 67
3, 242480, Note_on_c, 1, 38, 0
3, 243000, Note_on_c, 1, 38, 82
3, 243384, Note_on_c, 1, 38, 0
3, 243384, Note_on_c, 1, 33, 60
3, 243432, Note_on_c, 1, 33, 0
3, 243512, Note_on_c, 1, 32, 62
3, 243600, Note_on_c, 1, 32, 0
3, 243896, Note_on_c, 1, 31, 65
3, 244024, Note_on_c, 1, 31, 0
3, 244520, Note_on_c, 1, 31, 80
3, 245424, Note_on_c, 1, 31, 0
3, 245448, Note_on_c, 1, 43, 70
3, 245512, Note_on_c, 1, 43, 0
3, 246056, Note_on_c, 1, 43, 78
3, 246456, Note_on_c, 1, 34, 36
3, 246472, Note_on_c, 1, 43, 0
3, 246568, Note_on_c, 1, 34, 0
3, 246584, Note_on_c, 1, 35, 48
3, 246896, Note_on_c, 1, 35, 0
3, 246952, Note_on_c, 1, 36, 43
3, 247024, Note_on_c, 1, 36, 0
3, 247576, Note_on_c, 1, 36, 61
3, 248320, Note_on_c, 1, 36, 0
3, 248352, Note_on_c, 1, 37, 55
3, 248416, Note_on_c, 1, 37, 0
3, 248480, Note_on_c, 1, 38, 46
3, 248632, Note_on_c, 1, 52, 45
3, 248672, Note_on_c, 1, 52, 0
3, 248744, Note_on_c, 1, 53, 40
3, 248840, Note_on_c, 1, 53, 0
3, 248896, Note_on_c, 1, 54, 59
3, 249032, Note_on_c, 1, 38, 0
3, 249136, Note_on_c, 1, 38, 72
3, 249736, Note_on_c, 1, 38, 0
3, 249784, Note_on_c, 1, 41, 53
3, 249856, Note_on_c, 1, 41, 0
3, 249904, Note_on_c, 1, 54, 0
3, 249912, Note_on_c, 1, 42, 49
3, 250008, Note_on_c, 1, 42, 0
3, 250048, Note_on_c, 1, 43, 63
3, 250120, Note_on_c, 1, 43, 0
3, 250656, Note_on_c, 1, 43, 64
3, 251312, Note_on_c, 1, 38, 51
3, 251336, Note_on_c, 1, 38, 0
3, 251344, Note_on_c, 1, 43, 0
3, 251432, Note_on_c, 1, 37, 51
3, 251496, Note_on_c, 1, 37, 0
3, 251568, Note_on_c, 1, 36, 57
3, 251744, Note_on_c, 1, 36, 0
3, 252192, Note_on_c, 1, 36, 68
3, 252880, Note_on_c, 1, 36, 0
3, 252944, Note_on_c, 1, 35, 37
3, 252984, Note_on_c, 1, 35, 0
3, 253088, Note_on_c, 1, 36, 69
3, 253176, Note_on_c, 1, 36, 0
3, 253720, Note_on_c, 1, 36, 92
3, 254592, Note_on_c, 1, 36, 0
3, 254656, Note_on_c, 1, 38, 38
3, 254792, Note_on_c, 1, 38, 0
3, 255272, Note_on_c, 1, 38, 44
3, 255648, Note_on_c, 1, 38, 0
3, 255664, Note_on_c, 1, 33, 53
3, 255712, Note_on_c, 1, 33, 0
3, 255816, Note_on_c, 1, 32, 54
3, 256144, Note_on_c, 1, 32, 0
3, 256176, Note_on_c, 1, 31, 76
3, 258944, Note_on_c, 1, 31, 0
3, 258944, End_track
4, 0, Start_track
4, 0, MIDI_port, 1
4, 0, Title_t, "dougmck@pipeline.com.au"
4, 0, Program_c, 3, 50
4, 0, Control_c, 3, 7, 56
4, 0, Control_c, 3, 11, 127
4, 0, Control_c, 3, 64, 0
4, 0, Control_c, 3, 67, 0
4, 0, Pitch_bend_c, 3, 8192
4, 1536, Note_on_c, 3, 68, 25
4, 1920, Note_on_c, 3, 73, 15
4, 2304, Note_on_c, 3, 78, 20
4, 4344, Note_on_c, 3, 78, 0
4, 4344, Note_on_c, 3, 73, 0
4, 4344, Note_on_c, 3, 68, 0
4, 4600, Note_on_c, 3, 67, 39
4, 4984, Note_on_c, 3, 72, 19
4, 5368, Note_on_c, 3, 77, 22
4, 7288, Note_on_c, 3, 77, 0
4, 7288, Note_on_c, 3, 67, 0
4, 7416, Note_on_c, 3, 72, 0
4, 7672, Note_on_c, 3, 68, 25
4, 8056, Note_on_c, 3, 73, 15
4, 8440, Note_on_c, 3, 78, 20
4, 10480, Note_on_c, 3, 78, 0
4, 10480, Note_on_c, 3, 73, 0
4, 10480, Note_on_c, 3, 68, 0
4, 10736, Note_on_c, 3, 67, 39
4, 11120, Note_on_c, 3, 72, 19
4, 11504, Note_on_c, 3, 77, 22
4, 13424, Note_on_c, 3, 77, 0
4, 13424, Note_on_c, 3, 67, 0
4, 13552, Note_on_c, 3, 72, 0
4, 62896, Note_on_c, 3, 68, 24
4, 63272, Note_on_c, 3, 63, 24
4, 63656, Note_on_c, 3, 58, 14
4, 65704, Note_on_c, 3, 58, 0
4, 65704, Note_on_c, 3, 63, 0
4, 65704, Note_on_c, 3, 68, 0
4, 65960, Note_on_c, 3, 67, 34
4, 66344, Note_on_c, 3, 62, 17
4, 66720, Note_on_c, 3, 57, 18
4, 68640, Note_on_c, 3, 57, 0
4, 68640, Note_on_c, 3, 67, 0
4, 68768, Note_on_c, 3, 62, 0
4, 69024, Note_on_c, 3, 68, 32
4, 69408, Note_on_c, 3, 63, 25
4, 69792, Note_on_c, 3, 58, 16
4, 71840, Note_on_c, 3, 58, 0
4, 71840, Note_on_c, 3, 63, 0
4, 71840, Note_on_c, 3, 68, 0
4, 72096, Note_on_c, 3, 67, 40
4, 72472, Note_on_c, 3, 62, 18
4, 72856, Note_on_c, 3, 57, 9
4, 72992, Note_on_c, 3, 67, 0
4, 73624, Note_on_c, 3, 57, 0
4, 73624, Note_on_c, 3, 62, 0
4, 73624, Note_on_c, 3, 63, 27
4, 73624, Note_on_c, 3, 65, 30
4, 74264, Note_on_c, 3, 63, 0
4, 74392, Note_on_c, 3, 62, 16
4, 75032, Note_on_c, 3, 62, 0
4, 75032, Note_on_c, 3, 65, 0
4, 75160, Note_on_c, 3, 58, 12
4, 75160, Note_on_c, 3, 63, 15
4, 77208, Note_on_c, 3, 63, 0
4, 77208, Note_on_c, 3, 58, 0
4, 87432, Note_on_c, 3, 63, 12
4, 87432, Note_on_c, 3, 62, 40
4, 88200, Note_on_c, 3, 62, 0
4, 88200, Note_on_c, 3, 60, 10
4, 88968, Note_on_c, 3, 60, 0
4, 88968, Note_on_c, 3, 63, 0
4, 88968, Note_on_c, 3, 65, 27
4, 88968, Note_on_c, 3, 58, 13
4, 89736, Note_on_c, 3, 58, 0
4, 89736, Note_on_c, 3, 57, 21
4, 90496, Note_on_c, 3, 57, 0
4, 90496, Note_on_c, 3, 55, 43
4, 91264, Note_on_c, 3, 60, 40
4, 92032, Note_on_c, 3, 60, 0
4, 92032, Note_on_c, 3, 58, 35
4, 92544, Note_on_c, 3, 55, 0
4, 92800, Note_on_c, 3, 55, 49
4, 93056, Note_on_c, 3, 65, 0
4, 93312, Note_on_c, 3, 58, 0
4, 93568, Note_on_c, 3, 55, 0
4, 93568, Note_on_c, 3, 63, 13
4, 93568, Note_on_c, 3, 67, 18
4, 94336, Note_on_c, 3, 67, 0
4, 94336, Note_on_c, 3, 63, 0
4, 94336, Note_on_c, 3, 62, 26
4, 94336, Note_on_c, 3, 65, 31
4, 95104, Note_on_c, 3, 65, 0
4, 95104, Note_on_c, 3, 62, 0
4, 95104, Note_on_c, 3, 63, 24
4, 95104, Note_on_c, 3, 60, 13
4, 95744, Note_on_c, 3, 60, 0
4, 95872, Note_on_c, 3, 63, 0
4, 95872, Note_on_c, 3, 62, 10
4, 95872, Note_on_c, 3, 58, 32
4, 96504, Note_on_c, 3, 58, 0
4, 96632, Note_on_c, 3, 62, 0
4, 96632, Note_on_c, 3, 60, 31
4, 96632, Note_on_c, 3, 57, 28
4, 97400, Note_on_c, 3, 57, 0
4, 97400, Note_on_c, 3, 55, 33
4, 97528, Note_on_c, 3, 60, 0
4, 98168, Note_on_c, 3, 55, 0
4, 98168, Note_on_c, 3, 53, 24
4, 98936, Note_on_c, 3, 53, 0
4, 98936, Note_on_c, 3, 52, 47
4, 99448, Note_on_c, 3, 52, 0
4, 99704, Note_on_c, 3, 63, 12
4, 99704, Note_on_c, 3, 62, 40
4, 100472, Note_on_c, 3, 62, 0
4, 100472, Note_on_c, 3, 60, 10
4, 101240, Note_on_c, 3, 60, 0
4, 101240, Note_on_c, 3, 63, 0
4, 101240, Note_on_c, 3, 65, 27
4, 101240, Note_on_c, 3, 58, 13
4, 102000, Note_on_c, 3, 58, 0
4, 102000, Note_on_c, 3, 57, 21
4, 102768, Note_on_c, 3, 57, 0
4, 102768, Note_on_c, 3, 55, 43
4, 103536, Note_on_c, 3, 60, 40
4, 104304, Note_on_c, 3, 60, 0
4, 104304, Note_on_c, 3, 58, 35
4, 104816, Note_on_c, 3, 55, 0
4, 105072, Note_on_c, 3, 55, 49
4, 105328, Note_on_c, 3, 65, 0
4, 105584, Note_on_c, 3, 58, 0
4, 105840, Note_on_c, 3, 55, 0
4, 105840, Note_on_c, 3, 63, 13
4, 105840, Note_on_c, 3, 67, 18
4, 106608, Note_on_c, 3, 67, 0
4, 106608, Note_on_c, 3, 63, 0
4, 106608, Note_on_c, 3, 62, 26
4, 106608, Note_on_c, 3, 65, 31
4, 107376, Note_on_c, 3, 65, 0
4, 107376, Note_on_c, 3, 62, 0
4, 107376, Note_on_c, 3, 63, 24
4, 107376, Note_on_c, 3, 60, 13
4, 108008, Note_on_c, 3, 60, 0
4, 108144, Note_on_c, 3, 63, 0
4, 108144, Note_on_c, 3, 62, 10
4, 108144, Note_on_c, 3, 58, 32
4, 108776, Note_on_c, 3, 58, 0
4, 108904, Note_on_c, 3, 62, 0
4, 108904, Note_on_c, 3, 60, 31
4, 108904, Note_on_c, 3, 57, 28
4, 109672, Note_on_c, 3, 57, 0
4, 109672, Note_on_c, 3, 55, 33
4, 109800, Note_on_c, 3, 60, 0
4, 110440, Note_on_c, 3, 55, 0
4, 110440, Note_on_c, 3, 53, 24
4, 111208, Note_on_c, 3, 53, 0
4, 111208, Note_on_c, 3, 52, 47
4, 111720, Note_on_c, 3, 52, 0
4, 136520, Note_on_c, 3, 63, 12
4, 136520, Note_on_c, 3, 62, 40
4, 137288, Note_on_c, 3, 62, 0
4, 137288, Note_on_c, 3, 60, 10
4, 138048, Note_on_c, 3, 60, 0
4, 138048, Note_on_c, 3, 63, 0
4, 138048, Note_on_c, 3, 65, 27
4, 138048, Note_on_c, 3, 58, 13
4, 138816, Note_on_c, 3, 58, 0
4, 138816, Note_on_c, 3, 57, 21
4, 139584, Note_on_c, 3, 57, 0
4, 139584, Note_on_c, 3, 55, 43
4, 140352, Note_on_c, 3, 60, 40
4, 141120, Note_on_c, 3, 60, 0
4, 141120, Note_on_c, 3, 58, 35
4, 141632, Note_on_c, 3, 55, 0
4, 141888, Note_on_c, 3, 55, 49
4, 142144, Note_on_c, 3, 65, 0
4, 142400, Note_on_c, 3, 58, 0
4, 142656, Note_on_c, 3, 55, 0
4, 142656, Note_on_c, 3, 63, 13
4, 142656, Note_on_c, 3, 67, 18
4, 143416, Note_on_c, 3, 67, 0
4, 143416, Note_on_c, 3, 63, 0
4, 143416, Note_on_c, 3, 62, 26
4, 143416, Note_on_c, 3, 65, 31
4, 144184, Note_on_c, 3, 65, 0
4, 144184, Note_on_c, 3, 62, 0
4, 144184, Note_on_c, 3, 63, 24
4, 144184, Note_on_c, 3, 60, 13
4, 144824, Note_on_c, 3, 60, 0
4, 144952, Note_on_c, 3, 63, 0
4, 144952, Note_on_c, 3, 62, 10
4, 144952, Note_on_c, 3, 58, 32
4, 145592, Note_on_c, 3, 58, 0
4, 145720, Note_on_c, 3, 62, 0
4, 145720, Note_on_c, 3, 60, 31
4, 145720, Note_on_c, 3, 57, 28
4, 146488, Note_on_c, 3, 57, 0
4, 146488, Note_on_c, 3, 55, 33
4, 146616, Note_on_c, 3, 60, 0
4, 147256, Note_on_c, 3, 55, 0
4, 147256, Note_on_c, 3, 53, 24
4, 148024, Note_on_c, 3, 53, 0
4, 148024, Note_on_c, 3, 52, 47
4, 148536, Note_on_c, 3, 52, 0
4, 148792, Note_on_c, 3, 63, 12
4, 148792, Note_on_c, 3, 62, 40
4, 149560, Note_on_c, 3, 62, 0
4, 149560, Note_on_c, 3, 60, 10
4, 150320, Note_on_c, 3, 60, 0
4, 150320, Note_on_c, 3, 63, 0
4, 150320, Note_on_c, 3, 65, 27
4, 150320, Note_on_c, 3, 58, 13
4, 151088, Note_on_c, 3, 58, 0
4, 151088, Note_on_c, 3, 57, 21
4, 151856, Note_on_c, 3, 57, 0
4, 151856, Note_on_c, 3, 55, 43
4, 152624, Note_on_c, 3, 60, 40
4, 153392, Note_on_c, 3, 60, 0
4, 153392, Note_on_c, 3, 58, 35
4, 153904, Note_on_c, 3, 55, 0
4, 154160, Note_on_c, 3, 55, 49
4, 154416, Note_on_c, 3, 65, 0
4, 154672, Note_on_c, 3, 58, 0
4, 154920, Note_on_c, 3, 55, 0
4, 154920, Note_on_c, 3, 63, 13
4, 154920, Note_on_c, 3, 67, 18
4, 155688, Note_on_c, 3, 67, 0
4, 155688, Note_on_c, 3, 63, 0
4, 155688, Note_on_c, 3, 62, 26
4, 155688, Note_on_c, 3, 65, 31
4, 156456, Note_on_c, 3, 65, 0
4, 156456, Note_on_c, 3, 62, 0
4, 156456, Note_on_c, 3, 63, 24
4, 156456, Note_on_c, 3, 60, 13
4, 157096, Note_on_c, 3, 60, 0
4, 157224, Note_on_c, 3, 63, 0
4, 157224, Note_on_c, 3, 62, 10
4, 157224, Note_on_c, 3, 58, 32
4, 157864, Note_on_c, 3, 58, 0
4, 157992, Note_on_c, 3, 62, 0
4, 157992, Note_on_c, 3, 60, 31
4, 157992, Note_on_c, 3, 57, 28
4, 158760, Note_on_c, 3, 57, 0
4, 158760, Note_on_c, 3, 55, 33
4, 158888, Note_on_c, 3, 60, 0
4, 159528, Note_on_c, 3, 55, 0
4, 159528, Note_on_c, 3, 53, 24
4, 160296, Note_on_c, 3, 53, 0
4, 160296, Note_on_c, 3, 52, 47
4, 160808, Note_on_c, 3, 52, 0
4, 173336, Note_on_c, 3, 63, 15
4, 173336, Note_on_c, 3, 74, 18
4, 173336, Note_on_c, 3, 60, 18
4, 173336, Note_on_c, 3, 67, 16
4, 174480, Note_on_c, 3, 67, 0
4, 174480, Note_on_c, 3, 63, 0
4, 174480, Note_on_c, 3, 74, 0
4, 174864, Note_on_c, 3, 60, 0
4, 174864, Note_on_c, 3, 66, 33
4, 174864, Note_on_c, 3, 70, 34
4, 174864, Note_on_c, 3, 77, 40
4, 174864, Note_on_c, 3, 50, 34
4, 176016, Note_on_c, 3, 77, 0
4, 176016, Note_on_c, 3, 75, 16
4, 176272, Note_on_c, 3, 75, 0
4, 176400, Note_on_c, 3, 50, 0
4, 176400, Note_on_c, 3, 70, 0
4, 176400, Note_on_c, 3, 73, 15
4, 176400, Note_on_c, 3, 73, 0
4, 176400, Note_on_c, 3, 55, 21
4, 176400, Note_on_c, 3, 74, 33
4, 176528, Note_on_c, 3, 72, 30
4, 177936, Note_on_c, 3, 74, 0
4, 177936, Note_on_c, 3, 69, 27
4, 179080, Note_on_c, 3, 55, 0
4, 179336, Note_on_c, 3, 69, 0
4, 179464, Note_on_c, 3, 66, 0
4, 179464, Note_on_c, 3, 72, 0
4, 179464, Note_on_c, 3, 67, 28
4, 179464, Note_on_c, 3, 74, 28
4, 179464, Note_on_c, 3, 60, 19
4, 179464, Note_on_c, 3, 72, 15
4, 180872, Note_on_c, 3, 67, 0
4, 181000, Note_on_c, 3, 60, 0
4, 181000, Note_on_c, 3, 66, 42
4, 181000, Note_on_c, 3, 50, 36
4, 182408, Note_on_c, 3, 66, 0
4, 182408, Note_on_c, 3, 72, 0
4, 182536, Note_on_c, 3, 74, 0
4, 182536, Note_on_c, 3, 50, 0
4, 182536, Note_on_c, 3, 65, 22
4, 182536, Note_on_c, 3, 69, 22
4, 182536, Note_on_c, 3, 55, 27
4, 182536, Note_on_c, 3, 72, 15
4, 185216, Note_on_c, 3, 69, 0
4, 185216, Note_on_c, 3, 65, 0
4, 185344, Note_on_c, 3, 72, 0
4, 185600, Note_on_c, 3, 55, 0
4, 185600, Note_on_c, 3, 74, 40
4, 185600, Note_on_c, 3, 75, 28
4, 185600, Note_on_c, 3, 79, 33
4, 185600, Note_on_c, 3, 60, 25
4, 186368, Note_on_c, 3, 74, 0
4, 186368, Note_on_c, 3, 72, 21
4, 186752, Note_on_c, 3, 79, 0
4, 186880, Note_on_c, 3, 75, 0
4, 186880, Note_on_c, 3, 72, 0
4, 187136, Note_on_c, 3, 60, 0
4, 187136, Note_on_c, 3, 77, 40
4, 187136, Note_on_c, 3, 70, 36
4, 187136, Note_on_c, 3, 72, 31
4, 187136, Note_on_c, 3, 50, 31
4, 187136, Note_on_c, 3, 66, 18
4, 187904, Note_on_c, 3, 77, 0
4, 187904, Note_on_c, 3, 75, 28
4, 188544, Note_on_c, 3, 66, 0
4, 188672, Note_on_c, 3, 50, 0
4, 188672, Note_on_c, 3, 75, 0
4, 188672, Note_on_c, 3, 72, 0
4, 188672, Note_on_c, 3, 65, 30
4, 188672, Note_on_c, 3, 74, 36
4, 188672, Note_on_c, 3, 55, 28
4, 189824, Note_on_c, 3, 55, 0
4, 190080, Note_on_c, 3, 74, 0
4, 190080, Note_on_c, 3, 65, 0
4, 190208, Note_on_c, 3, 70, 0
4, 190208, Note_on_c, 3, 65, 39
4, 190208, Note_on_c, 3, 70, 22
4, 190208, Note_on_c, 3, 48, 36
4, 190208, Note_on_c, 3, 74, 42
4, 190712, Note_on_c, 3, 65, 0
4, 190840, Note_on_c, 3, 64, 49
4, 191480, Note_on_c, 3, 64, 0
4, 191480, Note_on_c, 3, 74, 0
4, 191480, Note_on_c, 3, 70, 0
4, 191608, Note_on_c, 3, 48, 0
4, 191736, Note_on_c, 3, 63, 22
4, 191736, Note_on_c, 3, 74, 33
4, 191736, Note_on_c, 3, 60, 24
4, 191736, Note_on_c, 3, 67, 22
4, 192888, Note_on_c, 3, 63, 0
4, 193016, Note_on_c, 3, 67, 0
4, 193144, Note_on_c, 3, 74, 0
4, 193272, Note_on_c, 3, 60, 0
4, 193272, Note_on_c, 3, 66, 36
4, 193272, Note_on_c, 3, 74, 33
4, 193272, Note_on_c, 3, 50, 30
4, 193272, Note_on_c, 3, 70, 21
4, 194552, Note_on_c, 3, 66, 0
4, 194680, Note_on_c, 3, 74, 0
4, 194808, Note_on_c, 3, 70, 0
4, 194808, Note_on_c, 3, 65, 22
4, 194808, Note_on_c, 3, 72, 22
4, 194808, Note_on_c, 3, 69, 24
4, 194808, Note_on_c, 3, 55, 22
4, 194936, Note_on_c, 3, 50, 0
4, 195192, Note_on_c, 3, 65, 0
4, 195320, Note_on_c, 3, 55, 0
4, 195448, Note_on_c, 3, 72, 0
4, 195448, Note_on_c, 3, 69, 0
4, 195448, Note_on_c, 3, 67, 18
4, 195448, Note_on_c, 3, 70, 21
4, 195448, Note_on_c, 3, 55, 19
4, 197488, Note_on_c, 3, 55, 0
4, 197488, Note_on_c, 3, 70, 0
4, 197488, Note_on_c, 3, 67, 0
4, 197880, Note_on_c, 3, 75, 18
4, 197880, Note_on_c, 3, 67, 22
4, 197880, Note_on_c, 3, 74, 37
4, 199280, Note_on_c, 3, 67, 0
4, 199408, Note_on_c, 3, 74, 0
4, 199408, Note_on_c, 3, 66, 35
4, 199408, Note_on_c, 3, 72, 30
4, 200816, Note_on_c, 3, 72, 0
4, 200816, Note_on_c, 3, 66, 0
4, 200944, Note_on_c, 3, 75, 0
4, 200944, Note_on_c, 3, 74, 44
4, 200944, Note_on_c, 3, 65, 20
4, 200944, Note_on_c, 3, 72, 21
4, 201712, Note_on_c, 3, 70, 22
4, 202600, Note_on_c, 3, 65, 0
4, 202856, Note_on_c, 3, 64, 50
4, 202984, Note_on_c, 3, 72, 0
4, 203752, Note_on_c, 3, 64, 0
4, 203880, Note_on_c, 3, 74, 0
4, 204008, Note_on_c, 3, 70, 0
4, 204008, Note_on_c, 3, 74, 24
4, 204008, Note_on_c, 3, 75, 20
4, 204008, Note_on_c, 3, 67, 31
4, 205288, Note_on_c, 3, 67, 0
4, 205544, Note_on_c, 3, 66, 36
4, 205544, Note_on_c, 3, 72, 18
4, 206824, Note_on_c, 3, 72, 0
4, 206824, Note_on_c, 3, 66, 0
4, 206824, Note_on_c, 3, 74, 0
4, 206952, Note_on_c, 3, 75, 0
4, 207080, Note_on_c, 3, 65, 35
4, 207080, Note_on_c, 3, 74, 32
4, 207080, Note_on_c, 3, 72, 33
4, 207848, Note_on_c, 3, 72, 0
4, 207848, Note_on_c, 3, 70, 20
4, 209760, Note_on_c, 3, 70, 0
4, 209760, Note_on_c, 3, 74, 0
4, 209760, Note_on_c, 3, 65, 0
4, 210144, Note_on_c, 3, 75, 28
4, 210144, Note_on_c, 3, 67, 32
4, 210144, Note_on_c, 3, 74, 38
4, 211424, Note_on_c, 3, 74, 0
4, 211424, Note_on_c, 3, 67, 0
4, 211424, Note_on_c, 3, 75, 0
4, 211680, Note_on_c, 3, 66, 39
4, 211680, Note_on_c, 3, 77, 37
4, 211680, Note_on_c, 3, 72, 36
4, 212448, Note_on_c, 3, 77, 0
4, 212448, Note_on_c, 3, 75, 16
4, 213216, Note_on_c, 3, 75, 0
4, 213216, Note_on_c, 3, 72, 0
4, 213216, Note_on_c, 3, 70, 21
4, 213216, Note_on_c, 3, 74, 34
4, 213984, Note_on_c, 3, 66, 0
4, 213984, Note_on_c, 3, 65, 16
4, 214616, Note_on_c, 3, 65, 0
4, 214744, Note_on_c, 3, 64, 46
4, 215512, Note_on_c, 3, 74, 0
4, 215512, Note_on_c, 3, 72, 22
4, 216152, Note_on_c, 3, 64, 0
4, 216280, Note_on_c, 3, 72, 0
4, 216280, Note_on_c, 3, 70, 0
4, 216280, Note_on_c, 3, 74, 38
4, 216280, Note_on_c, 3, 67, 38
4, 216920, Note_on_c, 3, 74, 0
4, 217048, Note_on_c, 3, 75, 40
4, 217560, Note_on_c, 3, 67, 0
4, 217816, Note_on_c, 3, 75, 0
4, 217816, Note_on_c, 3, 72, 34
4, 217816, Note_on_c, 3, 77, 37
4, 217816, Note_on_c, 3, 66, 24
4, 218584, Note_on_c, 3, 66, 0
4, 218584, Note_on_c, 3, 77, 0
4, 218584, Note_on_c, 3, 66, 10
4, 218584, Note_on_c, 3, 75, 22
4, 219224, Note_on_c, 3, 66, 0
4, 219224, Note_on_c, 3, 72, 0
4, 219352, Note_on_c, 3, 75, 0
4, 219352, Note_on_c, 3, 74, 43
4, 219352, Note_on_c, 3, 67, 17
4, 219352, Note_on_c, 3, 70, 14
4, 219864, Note_on_c, 3, 67, 0
4, 220112, Note_on_c, 3, 70, 0
4, 220112, Note_on_c, 3, 74, 0
4, 220112, Note_on_c, 3, 65, 14
4, 220112, Note_on_c, 3, 69, 28
4, 220112, Note_on_c, 3, 72, 12
4, 220752, Note_on_c, 3, 65, 0
4, 220880, Note_on_c, 3, 69, 0
4, 220880, Note_on_c, 3, 65, 13
4, 220880, Note_on_c, 3, 70, 27
4, 221648, Note_on_c, 3, 72, 0
4, 222160, Note_on_c, 3, 70, 0
4, 222160, Note_on_c, 3, 65, 0
4, 222416, Note_on_c, 3, 75, 18
4, 222416, Note_on_c, 3, 67, 22
4, 222416, Note_on_c, 3, 74, 37
4, 223824, Note_on_c, 3, 67, 0
4, 223952, Note_on_c, 3, 74, 0
4, 223952, Note_on_c, 3, 66, 35
4, 223952, Note_on_c, 3, 72, 30
4, 225360, Note_on_c, 3, 72, 0
4, 225360, Note_on_c, 3, 66, 0
4, 225488, Note_on_c, 3, 75, 0
4, 225488, Note_on_c, 3, 74, 44
4, 225488, Note_on_c, 3, 65, 20
4, 225488, Note_on_c, 3, 72, 21
4, 226248, Note_on_c, 3, 70, 22
4, 227144, Note_on_c, 3, 65, 0
4, 227400, Note_on_c, 3, 64, 50
4, 227528, Note_on_c, 3, 72, 0
4, 228296, Note_on_c, 3, 64, 0
4, 228424, Note_on_c, 3, 74, 0
4, 228552, Note_on_c, 3, 70, 0
4, 228552, Note_on_c, 3, 74, 24
4, 228552, Note_on_c, 3, 75, 20
4, 228552, Note_on_c, 3, 67, 31
4, 229832, Note_on_c, 3, 67, 0
4, 230088, Note_on_c, 3, 66, 36
4, 230088, Note_on_c, 3, 72, 18
4, 231368, Note_on_c, 3, 72, 0
4, 231368, Note_on_c, 3, 66, 0
4, 231368, Note_on_c, 3, 74, 0
4, 231496, Note_on_c, 3, 75, 0
4, 231624, Note_on_c, 3, 65, 35
4, 231624, Note_on_c, 3, 74, 32
4, 231624, Note_on_c, 3, 72, 33
4, 232392, Note_on_c, 3, 72, 0
4, 232392, Note_on_c, 3, 70, 20
4, 234304, Note_on_c, 3, 70, 0
4, 234304, Note_on_c, 3, 74, 0
4, 234304, Note_on_c, 3, 65, 0
4, 234688, Note_on_c, 3, 75, 28
4, 234688, Note_on_c, 3, 67, 32
4, 234688, Note_on_c, 3, 74, 38
4, 235968, Note_on_c, 3, 74, 0
4, 235968, Note_on_c, 3, 67, 0
4, 235968, Note_on_c, 3, 75, 0
4, 236224, Note_on_c, 3, 66, 39
4, 236224, Note_on_c, 3, 77, 37
4, 236224, Note_on_c, 3, 72, 36
4, 236992, Note_on_c, 3, 77, 0
4, 236992, Note_on_c, 3, 75, 16
4, 237760, Note_on_c, 3, 75, 0
4, 237760, Note_on_c, 3, 72, 0
4, 237760, Note_on_c, 3, 70, 21
4, 237760, Note_on_c, 3, 74, 34
4, 238520, Note_on_c, 3, 66, 0
4, 238520, Note_on_c, 3, 65, 16
4, 239160, Note_on_c, 3, 65, 0
4, 239288, Note_on_c, 3, 64, 46
4, 240056, Note_on_c, 3, 74, 0
4, 240056, Note_on_c, 3, 72, 22
4, 240696, Note_on_c, 3, 64, 0
4, 240824, Note_on_c, 3, 72, 0
4, 240824, Note_on_c, 3, 70, 0
4, 240824, Note_on_c, 3, 74, 38
4, 240824, Note_on_c, 3, 67, 38
4, 241464, Note_on_c, 3, 74, 0
4, 241592, Note_on_c, 3, 75, 40
4, 242104, Note_on_c, 3, 67, 0
4, 242360, Note_on_c, 3, 75, 0
4, 242360, Note_on_c, 3, 72, 34
4, 242360, Note_on_c, 3, 77, 37
4, 242360, Note_on_c, 3, 66, 24
4, 243128, Note_on_c, 3, 66, 0
4, 243128, Note_on_c, 3, 77, 0
4, 243128, Note_on_c, 3, 66, 10
4, 243128, Note_on_c, 3, 75, 22
4, 243768, Note_on_c, 3, 66, 0
4, 243768, Note_on_c, 3, 72, 0
4, 243896, Note_on_c, 3, 75, 0
4, 243896, Note_on_c, 3, 74, 43
4, 243896, Note_on_c, 3, 67, 17
4, 243896, Note_on_c, 3, 70, 14
4, 244400, Note_on_c, 3, 67, 0
4, 244656, Note_on_c, 3, 70, 0
4, 244656, Note_on_c, 3, 74, 0
4, 244656, Note_on_c, 3, 65, 14
4, 244656, Note_on_c, 3, 69, 28
4, 244656, Note_on_c, 3, 72, 12
4, 245296, Note_on_c, 3, 65, 0
4, 245424, Note_on_c, 3, 69, 0
4, 245424, Note_on_c, 3, 65, 13
4, 245424, Note_on_c, 3, 70, 27
4, 246192, Note_on_c, 3, 72, 0
4, 246704, Note_on_c, 3, 70, 0
4, 246704, Note_on_c, 3, 65, 0
4, 256176, Control_c, 3, 123, 0
4, 256176, End_track
5, 0, Start_track
5, 0, MIDI_port, 1
5, 0, Program_c, 4, 28
5, 0, Control_c, 4, 7, 78
5, 0, Control_c, 4, 11, 127
5, 0, Control_c, 4, 64, 0
5, 0, Control_c, 4, 67, 0
5, 0, Pitch_bend_c, 4, 8192
5, 1536, Note_on_c, 4, 82, 56
5, 1536, Note_on_c, 4, 97, 51
5, 1664, Note_on_c, 4, 97, 0
5, 1792, Note_on_c, 4, 82, 0
5, 2176, Note_on_c, 4, 97, 62
5, 2176, Note_on_c, 4, 82, 53
5, 2176, Note_on_c, 4, 85, 41
5, 2176, Note_on_c, 4, 85, 0
5, 2816, Note_on_c, 4, 82, 0
5, 2816, Note_on_c, 4, 97, 0
5, 3072, Note_on_c, 4, 97, 69
5, 3072, Note_on_c, 4, 82, 64
5, 3072, Note_on_c, 4, 94, 21
5, 3192, Note_on_c, 4, 94, 0
5, 3192, Note_on_c, 4, 82, 0
5, 3192, Note_on_c, 4, 97, 0
5, 3704, Note_on_c, 4, 97, 67
5, 3704, Note_on_c, 4, 82, 67
5, 4216, Note_on_c, 4, 82, 0
5, 4216, Note_on_c, 4, 97, 0
5, 4600, Note_on_c, 4, 89, 64
5, 4600, Note_on_c, 4, 93, 61
5, 4728, Note_on_c, 4, 93, 0
5, 4728, Note_on_c, 4, 89, 0
5, 5240, Note_on_c, 4, 93, 82
5, 5240, Note_on_c, 4, 89, 63
5, 5240, Note_on_c, 4, 84, 62
5, 5624, Note_on_c, 4, 84, 0
5, 5752, Note_on_c, 4, 89, 0
5, 5752, Note_on_c, 4, 93, 0
5, 5752, Note_on_c, 4, 84, 29
5, 5752, Note_on_c, 4, 84, 0
5, 6136, Note_on_c, 4, 81, 42
5, 6136, Note_on_c, 4, 86, 45
5, 6136, Note_on_c, 4, 82, 30
5, 6264, Note_on_c, 4, 82, 0
5, 6264, Note_on_c, 4, 86, 0
5, 6264, Note_on_c, 4, 81, 0
5, 6776, Note_on_c, 4, 86, 60
5, 6776, Note_on_c, 4, 82, 54
5, 6776, Note_on_c, 4, 81, 59
5, 7160, Note_on_c, 4, 81, 0
5, 7288, Note_on_c, 4, 82, 0
5, 7288, Note_on_c, 4, 86, 0
5, 7672, Note_on_c, 4, 97, 49
5, 7672, Note_on_c, 4, 82, 51
5, 7800, Note_on_c, 4, 82, 0
5, 7800, Note_on_c, 4, 97, 0
5, 8312, Note_on_c, 4, 97, 72
5, 8312, Note_on_c, 4, 90, 63
5, 8312, Note_on_c, 4, 82, 62
5, 8696, Note_on_c, 4, 90, 0
5, 8816, Note_on_c, 4, 97, 0
5, 8944, Note_on_c, 4, 82, 0
5, 9200, Note_on_c, 4, 97, 64
5, 9200, Note_on_c, 4, 90, 59
5, 9200, Note_on_c, 4, 82, 55
5, 9328, Note_on_c, 4, 82, 0
5, 9328, Note_on_c, 4, 90, 0
5, 9328, Note_on_c, 4, 97, 0
5, 9840, Note_on_c, 4, 97, 78
5, 9840, Note_on_c, 4, 90, 76
5, 9840, Note_on_c, 4, 82, 62
5, 10352, Note_on_c, 4, 90, 0
5, 10352, Note_on_c, 4, 97, 0
5, 10480, Note_on_c, 4, 82, 0
5, 10736, Note_on_c, 4, 89, 65
5, 10736, Note_on_c, 4, 96, 63
5, 10736, Note_on_c, 4, 79, 60
5, 10864, Note_on_c, 4, 79, 0
5, 10864, Note_on_c, 4, 96, 0
5, 10864, Note_on_c, 4, 89, 0
5, 11376, Note_on_c, 4, 89, 78
5, 11376, Note_on_c, 4, 96, 76
5, 11376, Note_on_c, 4, 79, 80
5, 11888, Note_on_c, 4, 96, 0
5, 11888, Note_on_c, 4, 89, 0
5, 11888, Note_on_c, 4, 94, 31
5, 12016, Note_on_c, 4, 94, 0
5, 12016, Note_on_c, 4, 79, 0
5, 12272, Note_on_c, 4, 79, 48
5, 12272, Note_on_c, 4, 93, 30
5, 12272, Note_on_c, 4, 84, 28
5, 12272, Note_on_c, 4, 89, 34
5, 12400, Note_on_c, 4, 89, 0
5, 12400, Note_on_c, 4, 79, 0
5, 12400, Note_on_c, 4, 93, 0
5, 12400, Note_on_c, 4, 84, 0
5, 12912, Note_on_c, 4, 93, 54
5, 12912, Note_on_c, 4, 84, 50
5, 12912, Note_on_c, 4, 89, 57
5, 12912, Note_on_c, 4, 79, 69
5, 13424, Note_on_c, 4, 79, 0
5, 13424, Note_on_c, 4, 93, 0
5, 13424, Note_on_c, 4, 84, 0
5, 13424, Note_on_c, 4, 89, 0
5, 13808, Note_on_c, 4, 75, 57
5, 13808, Note_on_c, 4, 85, 46
5, 13808, Note_on_c, 4, 59, 60
5, 13808, Note_on_c, 4, 80, 48
5, 13936, Note_on_c, 4, 80, 0
5, 13936, Note_on_c, 4, 75, 0
5, 13936, Note_on_c, 4, 85, 0
5, 13936, Note_on_c, 4, 59, 0
5, 14448, Note_on_c, 4, 85, 52
5, 14448, Note_on_c, 4, 75, 56
5, 14448, Note_on_c, 4, 80, 50
5, 14448, Note_on_c, 4, 59, 55
5, 14824, Note_on_c, 4, 75, 0
5, 14952, Note_on_c, 4, 85, 0
5, 14952, Note_on_c, 4, 80, 0
5, 14952, Note_on_c, 4, 59, 0
5, 14952, Note_on_c, 4, 75, 17
5, 14952, Note_on_c, 4, 75, 0
5, 15336, Note_on_c, 4, 75, 54
5, 15336, Note_on_c, 4, 75, 0
5, 15336, Note_on_c, 4, 85, 45
5, 15336, Note_on_c, 4, 85, 0
5, 15336, Note_on_c, 4, 80, 34
5, 15336, Note_on_c, 4, 80, 0
5, 15336, Note_on_c, 4, 59, 40
5, 15336, Note_on_c, 4, 59, 0
5, 15976, Note_on_c, 4, 85, 65
5, 15976, Note_on_c, 4, 75, 71
5, 15976, Note_on_c, 4, 80, 60
5, 15976, Note_on_c, 4, 59, 59
5, 16360, Note_on_c, 4, 75, 0
5, 16488, Note_on_c, 4, 85, 0
5, 16488, Note_on_c, 4, 80, 0
5, 16488, Note_on_c, 4, 59, 0
5, 16488, Note_on_c, 4, 75, 19
5, 16488, Note_on_c, 4, 75, 0
5, 16488, Note_on_c, 4, 81, 40
5, 16488, Note_on_c, 4, 81, 0
5, 16872, Note_on_c, 4, 81, 56
5, 16872, Note_on_c, 4, 86, 34
5, 16872, Note_on_c, 4, 82, 33
5, 16872, Note_on_c, 4, 67, 36
5, 16872, Note_on_c, 4, 67, 0
5, 17000, Note_on_c, 4, 81, 0
5, 17000, Note_on_c, 4, 86, 0
5, 17000, Note_on_c, 4, 82, 0
5, 17512, Note_on_c, 4, 81, 106
5, 17512, Note_on_c, 4, 82, 59
5, 17512, Note_on_c, 4, 86, 73
5, 17512, Note_on_c, 4, 67, 57
5, 18024, Note_on_c, 4, 86, 0
5, 18024, Note_on_c, 4, 81, 0
5, 18024, Note_on_c, 4, 82, 0
5, 18024, Note_on_c, 4, 62, 25
5, 18024, Note_on_c, 4, 79, 19
5, 18152, Note_on_c, 4, 79, 0
5, 18152, Note_on_c, 4, 62, 0
5, 18280, Note_on_c, 4, 67, 0
5, 18408, Note_on_c, 4, 69, 24
5, 18408, Note_on_c, 4, 69, 0
5, 18408, Note_on_c, 4, 55, 25
5, 18408, Note_on_c, 4, 55, 0
5, 18408, Note_on_c, 4, 70, 27
5, 18408, Note_on_c, 4, 74, 29
5, 18408, Note_on_c, 4, 74, 0
5, 18536, Note_on_c, 4, 70, 0
5, 19048, Note_on_c, 4, 70, 44
5, 19048, Note_on_c, 4, 69, 47
5, 19048, Note_on_c, 4, 74, 55
5, 19048, Note_on_c, 4, 55, 40
5, 19432, Note_on_c, 4, 69, 0
5, 19432, Note_on_c, 4, 70, 0
5, 19560, Note_on_c, 4, 74, 0
5, 19560, Note_on_c, 4, 70, 38
5, 19560, Note_on_c, 4, 70, 0
5, 19944, Note_on_c, 4, 55, 0
5, 19944, Note_on_c, 4, 75, 32
5, 19944, Note_on_c, 4, 85, 32
5, 19944, Note_on_c, 4, 80, 33
5, 19944, Note_on_c, 4, 59, 26
5, 20072, Note_on_c, 4, 59, 0
5, 20072, Note_on_c, 4, 75, 0
5, 20072, Note_on_c, 4, 85, 0
5, 20072, Note_on_c, 4, 80, 0
5, 20576, Note_on_c, 4, 85, 57
5, 20576, Note_on_c, 4, 75, 59
5, 20576, Note_on_c, 4, 80, 56
5, 20576, Note_on_c, 4, 59, 59
5, 20960, Note_on_c, 4, 75, 0
5, 21088, Note_on_c, 4, 85, 0
5, 21088, Note_on_c, 4, 80, 0
5, 21088, Note_on_c, 4, 59, 0
5, 21088, Note_on_c, 4, 75, 18
5, 21088, Note_on_c, 4, 75, 0
5, 21472, Note_on_c, 4, 75, 35
5, 21472, Note_on_c, 4, 59, 34
5, 21472, Note_on_c, 4, 85, 31
5, 21472, Note_on_c, 4, 80, 32
5, 21600, Note_on_c, 4, 80, 0
5, 21600, Note_on_c, 4, 75, 0
5, 21600, Note_on_c, 4, 59, 0
5, 21600, Note_on_c, 4, 85, 0
5, 22112, Note_on_c, 4, 85, 63
5, 22112, Note_on_c, 4, 75, 71
5, 22112, Note_on_c, 4, 80, 61
5, 22112, Note_on_c, 4, 59, 61
5, 22752, Note_on_c, 4, 80, 0
5, 22752, Note_on_c, 4, 85, 0
5, 22752, Note_on_c, 4, 75, 0
5, 23008, Note_on_c, 4, 59, 0
5, 23008, Note_on_c, 4, 55, 29
5, 23008, Note_on_c, 4, 86, 28
5, 23008, Note_on_c, 4, 81, 20
5, 23008, Note_on_c, 4, 76, 9
5, 23136, Note_on_c, 4, 76, 0
5, 23136, Note_on_c, 4, 55, 0
5, 23136, Note_on_c, 4, 86, 0
5, 23136, Note_on_c, 4, 81, 0
5, 23648, Note_on_c, 4, 81, 49
5, 23648, Note_on_c, 4, 76, 49
5, 23648, Note_on_c, 4, 86, 51
5, 23648, Note_on_c, 4, 55, 48
5, 24160, Note_on_c, 4, 55, 0
5, 24160, Note_on_c, 4, 81, 0
5, 24160, Note_on_c, 4, 76, 0
5, 24160, Note_on_c, 4, 86, 0
5, 24544, Note_on_c, 4, 79, 79
5, 24544, Note_on_c, 4, 75, 49
5, 24544, Note_on_c, 4, 72, 79
5, 24544, Note_on_c, 4, 68, 69
5, 24544, Note_on_c, 4, 53, 63
5, 24800, Note_on_c, 4, 53, 0
5, 24800, Note_on_c, 4, 72, 0
5, 24800, Note_on_c, 4, 68, 0
5, 24928, Note_on_c, 4, 75, 0
5, 24928, Note_on_c, 4, 79, 0
5, 25184, Note_on_c, 4, 77, 73
5, 25184, Note_on_c, 4, 74, 79
5, 25184, Note_on_c, 4, 68, 84
5, 25184, Note_on_c, 4, 58, 65
5, 25568, Note_on_c, 4, 68, 0
5, 25688, Note_on_c, 4, 58, 0
5, 25688, Note_on_c, 4, 74, 0
5, 25688, Note_on_c, 4, 68, 24
5, 25824, Note_on_c, 4, 68, 0
5, 25824, Note_on_c, 4, 77, 0
5, 26072, Note_on_c, 4, 77, 41
5, 26072, Note_on_c, 4, 74, 44
5, 26072, Note_on_c, 4, 51, 51
5, 26072, Note_on_c, 4, 67, 47
5, 26072, Note_on_c, 4, 67, 0
5, 26200, Note_on_c, 4, 77, 0
5, 26200, Note_on_c, 4, 74, 0
5, 26200, Note_on_c, 4, 51, 0
5, 26712, Note_on_c, 4, 77, 66
5, 26712, Note_on_c, 4, 70, 62
5, 26712, Note_on_c, 4, 74, 48
5, 26712, Note_on_c, 4, 67, 59
5, 26712, Note_on_c, 4, 51, 64
5, 26712, Note_on_c, 4, 69, 21
5, 26712, Note_on_c, 4, 69, 0
5, 26968, Note_on_c, 4, 74, 0
5, 27096, Note_on_c, 4, 67, 0
5, 27096, Note_on_c, 4, 70, 0
5, 27224, Note_on_c, 4, 77, 0
5, 27224, Note_on_c, 4, 51, 0
5, 27224, Note_on_c, 4, 74, 24
5, 27224, Note_on_c, 4, 74, 0
5, 27608, Note_on_c, 4, 82, 65
5, 27608, Note_on_c, 4, 77, 69
5, 27608, Note_on_c, 4, 74, 75
5, 27608, Note_on_c, 4, 74, 0
5, 27608, Note_on_c, 4, 79, 48
5, 27608, Note_on_c, 4, 51, 55
5, 27736, Note_on_c, 4, 51, 0
5, 27736, Note_on_c, 4, 82, 0
5, 27736, Note_on_c, 4, 77, 0
5, 27736, Note_on_c, 4, 79, 0
5, 28248, Note_on_c, 4, 77, 84
5, 28248, Note_on_c, 4, 82, 62
5, 28248, Note_on_c, 4, 74, 77
5, 28248, Note_on_c, 4, 79, 58
5, 28248, Note_on_c, 4, 51, 57
5, 28632, Note_on_c, 4, 51, 0
5, 28632, Note_on_c, 4, 74, 0
5, 28632, Note_on_c, 4, 77, 0
5, 28760, Note_on_c, 4, 82, 0
5, 28760, Note_on_c, 4, 79, 0
5, 28760, Note_on_c, 4, 77, 48
5, 28760, Note_on_c, 4, 77, 0
5, 29144, Note_on_c, 4, 78, 71
5, 29144, Note_on_c, 4, 82, 56
5, 29144, Note_on_c, 4, 89, 73
5, 29144, Note_on_c, 4, 62, 60
5, 29144, Note_on_c, 4, 72, 57
5, 29144, Note_on_c, 4, 84, 40
5, 29144, Note_on_c, 4, 87, 18
5, 29272, Note_on_c, 4, 87, 0
5, 29272, Note_on_c, 4, 72, 0
5, 29272, Note_on_c, 4, 82, 0
5, 29272, Note_on_c, 4, 89, 0
5, 29272, Note_on_c, 4, 78, 0
5, 29272, Note_on_c, 4, 84, 0
5, 29272, Note_on_c, 4, 62, 0
5, 29784, Note_on_c, 4, 87, 71
5, 29784, Note_on_c, 4, 78, 77
5, 29784, Note_on_c, 4, 82, 60
5, 29784, Note_on_c, 4, 84, 59
5, 29784, Note_on_c, 4, 72, 79
5, 29784, Note_on_c, 4, 72, 0
5, 29784, Note_on_c, 4, 62, 71
5, 29912, Note_on_c, 4, 72, 14
5, 30168, Note_on_c, 4, 78, 0
5, 30296, Note_on_c, 4, 84, 0
5, 30296, Note_on_c, 4, 87, 0
5, 30296, Note_on_c, 4, 82, 0
5, 30296, Note_on_c, 4, 78, 22
5, 30424, Note_on_c, 4, 78, 0
5, 30424, Note_on_c, 4, 72, 0
5, 30424, Note_on_c, 4, 62, 0
5, 30680, Note_on_c, 4, 78, 49
5, 30680, Note_on_c, 4, 86, 57
5, 30680, Note_on_c, 4, 76, 57
5, 30680, Note_on_c, 4, 72, 45
5, 30680, Note_on_c, 4, 72, 0
5, 30680, Note_on_c, 4, 62, 49
5, 30680, Note_on_c, 4, 81, 19
5, 30808, Note_on_c, 4, 81, 0
5, 30808, Note_on_c, 4, 78, 0
5, 30808, Note_on_c, 4, 76, 0
5, 30808, Note_on_c, 4, 86, 0
5, 30808, Note_on_c, 4, 62, 0
5, 31320, Note_on_c, 4, 78, 84
5, 31320, Note_on_c, 4, 84, 75
5, 31320, Note_on_c, 4, 81, 63
5, 31320, Note_on_c, 4, 76, 88
5, 31320, Note_on_c, 4, 62, 62
5, 31320, Note_on_c, 4, 72, 64
5, 31696, Note_on_c, 4, 72, 0
5, 31696, Note_on_c, 4, 78, 0
5, 31696, Note_on_c, 4, 76, 0
5, 31832, Note_on_c, 4, 84, 0
5, 31832, Note_on_c, 4, 62, 0
5, 31832, Note_on_c, 4, 81, 0
5, 31832, Note_on_c, 4, 69, 16
5, 31832, Note_on_c, 4, 69, 0
5, 31832, Note_on_c, 4, 78, 55
5, 31832, Note_on_c, 4, 78, 0
5, 31832, Note_on_c, 4, 76, 31
5, 31832, Note_on_c, 4, 76, 0
5, 32208, Note_on_c, 4, 81, 84
5, 32208, Note_on_c, 4, 70, 69
5, 32208, Note_on_c, 4, 55, 69
5, 32208, Note_on_c, 4, 74, 79
5, 32208, Note_on_c, 4, 77, 41
5, 32336, Note_on_c, 4, 77, 0
5, 32336, Note_on_c, 4, 55, 0
5, 32336, Note_on_c, 4, 81, 0
5, 32336, Note_on_c, 4, 70, 0
5, 32336, Note_on_c, 4, 74, 0
5, 32848, Note_on_c, 4, 70, 66
5, 32848, Note_on_c, 4, 74, 75
5, 32848, Note_on_c, 4, 79, 64
5, 32848, Note_on_c, 4, 55, 83
5, 33232, Note_on_c, 4, 70, 0
5, 33360, Note_on_c, 4, 74, 0
5, 33360, Note_on_c, 4, 79, 0
5, 33360, Note_on_c, 4, 70, 18
5, 33488, Note_on_c, 4, 70, 0
5, 33488, Note_on_c, 4, 55, 0
5, 33744, Note_on_c, 4, 70, 32
5, 33744, Note_on_c, 4, 69, 39
5, 33744, Note_on_c, 4, 69, 0
5, 33744, Note_on_c, 4, 55, 40
5, 33744, Note_on_c, 4, 74, 32
5, 33744, Note_on_c, 4, 74, 0
5, 33872, Note_on_c, 4, 55, 0
5, 33872, Note_on_c, 4, 70, 0
5, 34384, Note_on_c, 4, 70, 67
5, 34384, Note_on_c, 4, 74, 64
5, 34384, Note_on_c, 4, 69, 94
5, 34384, Note_on_c, 4, 55, 67
5, 34768, Note_on_c, 4, 69, 0
5, 34768, Note_on_c, 4, 70, 0
5, 34896, Note_on_c, 4, 74, 0
5, 34896, Note_on_c, 4, 55, 0
5, 34896, Note_on_c, 4, 62, 31
5, 34896, Note_on_c, 4, 62, 0
5, 34896, Note_on_c, 4, 70, 26
5, 34896, Note_on_c, 4, 70, 0
5, 35280, Note_on_c, 4, 86, 102
5, 35280, Note_on_c, 4, 82, 90
5, 35280, Note_on_c, 4, 77, 109
5, 35280, Note_on_c, 4, 70, 65
5, 35280, Note_on_c, 4, 60, 75
5, 35408, Note_on_c, 4, 60, 0
5, 35536, Note_on_c, 4, 77, 0
5, 35536, Note_on_c, 4, 86, 0
5, 35536, Note_on_c, 4, 82, 0
5, 35536, Note_on_c, 4, 70, 0
5, 35920, Note_on_c, 4, 70, 73
5, 35920, Note_on_c, 4, 82, 88
5, 35920, Note_on_c, 4, 86, 96
5, 35920, Note_on_c, 4, 77, 104
5, 35920, Note_on_c, 4, 60, 75
5, 35920, Note_on_c, 4, 80, 30
5, 35920, Note_on_c, 4, 80, 0
5, 36432, Note_on_c, 4, 82, 0
5, 36432, Note_on_c, 4, 86, 0
5, 36432, Note_on_c, 4, 70, 0
5, 36432, Note_on_c, 4, 60, 0
5, 36432, Note_on_c, 4, 77, 0
5, 36432, Note_on_c, 4, 77, 21
5, 36432, Note_on_c, 4, 77, 0
5, 36816, Note_on_c, 4, 81, 81
5, 36816, Note_on_c, 4, 70, 66
5, 36816, Note_on_c, 4, 74, 69
5, 36816, Note_on_c, 4, 76, 64
5, 36816, Note_on_c, 4, 60, 59
5, 36816, Note_on_c, 4, 69, 81
5, 37072, Note_on_c, 4, 69, 0
5, 37072, Note_on_c, 4, 70, 0
5, 37072, Note_on_c, 4, 74, 0
5, 37072, Note_on_c, 4, 81, 0
5, 37072, Note_on_c, 4, 60, 0
5, 37072, Note_on_c, 4, 76, 0
5, 37456, Note_on_c, 4, 70, 77
5, 37456, Note_on_c, 4, 79, 61
5, 37456, Note_on_c, 4, 73, 69
5, 37456, Note_on_c, 4, 76, 64
5, 37456, Note_on_c, 4, 67, 81
5, 37456, Note_on_c, 4, 60, 88
5, 37960, Note_on_c, 4, 60, 0
5, 37960, Note_on_c, 4, 79, 0
5, 37960, Note_on_c, 4, 73, 0
5, 37960, Note_on_c, 4, 67, 0
5, 37960, Note_on_c, 4, 75, 57
5, 37960, Note_on_c, 4, 85, 46
5, 37960, Note_on_c, 4, 59, 60
5, 37960, Note_on_c, 4, 80, 48
5, 38088, Note_on_c, 4, 80, 0
5, 38088, Note_on_c, 4, 85, 0
5, 38088, Note_on_c, 4, 75, 0
5, 38088, Note_on_c, 4, 59, 0
5, 38352, Note_on_c, 4, 86, 31
5, 38352, Note_on_c, 4, 91, 32
5, 38352, Note_on_c, 4, 87, 18
5, 38352, Note_on_c, 4, 72, 35
5, 38472, Note_on_c, 4, 72, 0
5, 38472, Note_on_c, 4, 91, 0
5, 38472, Note_on_c, 4, 86, 0
5, 38472, Note_on_c, 4, 87, 0
5, 38728, Note_on_c, 4, 87, 33
5, 38728, Note_on_c, 4, 86, 57
5, 38728, Note_on_c, 4, 91, 52
5, 38728, Note_on_c, 4, 72, 60
5, 38856, Note_on_c, 4, 72, 0
5, 38856, Note_on_c, 4, 86, 0
5, 38856, Note_on_c, 4, 87, 0
5, 38856, Note_on_c, 4, 91, 0
5, 39112, Note_on_c, 4, 87, 16
5, 39112, Note_on_c, 4, 72, 24
5, 39112, Note_on_c, 4, 86, 18
5, 39112, Note_on_c, 4, 91, 21
5, 39240, Note_on_c, 4, 91, 0
5, 39240, Note_on_c, 4, 72, 0
5, 39240, Note_on_c, 4, 87, 0
5, 39240, Note_on_c, 4, 86, 0
5, 39496, Note_on_c, 4, 87, 41
5, 39496, Note_on_c, 4, 86, 62
5, 39496, Note_on_c, 4, 91, 56
5, 39496, Note_on_c, 4, 72, 53
5, 39624, Note_on_c, 4, 91, 0
5, 39624, Note_on_c, 4, 86, 0
5, 39624, Note_on_c, 4, 87, 0
5, 39880, Note_on_c, 4, 72, 0
5, 39880, Note_on_c, 4, 78, 26
5, 39880, Note_on_c, 4, 89, 32
5, 39880, Note_on_c, 4, 74, 26
5, 39880, Note_on_c, 4, 84, 34
5, 40008, Note_on_c, 4, 84, 0
5, 40008, Note_on_c, 4, 89, 0
5, 40008, Note_on_c, 4, 78, 0
5, 40008, Note_on_c, 4, 74, 0
5, 40264, Note_on_c, 4, 78, 74
5, 40264, Note_on_c, 4, 89, 72
5, 40264, Note_on_c, 4, 84, 61
5, 40264, Note_on_c, 4, 74, 49
5, 40392, Note_on_c, 4, 74, 0
5, 40392, Note_on_c, 4, 89, 0
5, 40392, Note_on_c, 4, 78, 0
5, 40392, Note_on_c, 4, 84, 0
5, 40648, Note_on_c, 4, 78, 47
5, 40648, Note_on_c, 4, 87, 31
5, 40648, Note_on_c, 4, 84, 30
5, 40648, Note_on_c, 4, 74, 29
5, 40776, Note_on_c, 4, 74, 0
5, 40776, Note_on_c, 4, 87, 0
5, 40776, Note_on_c, 4, 84, 0
5, 40904, Note_on_c, 4, 78, 0
5, 41032, Note_on_c, 4, 78, 45
5, 41032, Note_on_c, 4, 82, 48
5, 41032, Note_on_c, 4, 74, 38
5, 41032, Note_on_c, 4, 86, 47
5, 41160, Note_on_c, 4, 86, 0
5, 41160, Note_on_c, 4, 82, 0
5, 41160, Note_on_c, 4, 78, 0
5, 41160, Note_on_c, 4, 74, 0
5, 41416, Note_on_c, 4, 77, 25
5, 41416, Note_on_c, 4, 67, 23
5, 41416, Note_on_c, 4, 84, 24
5, 41416, Note_on_c, 4, 81, 29
5, 41544, Note_on_c, 4, 81, 0
5, 41544, Note_on_c, 4, 67, 0
5, 41544, Note_on_c, 4, 77, 0
5, 41544, Note_on_c, 4, 84, 0
5, 41800, Note_on_c, 4, 84, 55
5, 41800, Note_on_c, 4, 77, 57
5, 41800, Note_on_c, 4, 81, 65
5, 41800, Note_on_c, 4, 67, 43
5, 41928, Note_on_c, 4, 67, 0
5, 41928, Note_on_c, 4, 77, 0
5, 41928, Note_on_c, 4, 84, 0
5, 41928, Note_on_c, 4, 81, 0
5, 42184, Note_on_c, 4, 67, 33
5, 42184, Note_on_c, 4, 81, 53
5, 42184, Note_on_c, 4, 77, 49
5, 42184, Note_on_c, 4, 84, 35
5, 42312, Note_on_c, 4, 84, 0
5, 42312, Note_on_c, 4, 81, 0
5, 42312, Note_on_c, 4, 77, 0
5, 42440, Note_on_c, 4, 67, 0
5, 42440, Note_on_c, 4, 79, 45
5, 42440, Note_on_c, 4, 82, 43
5, 42440, Note_on_c, 4, 74, 42
5, 42440, Note_on_c, 4, 67, 42
5, 42696, Note_on_c, 4, 74, 0
5, 42824, Note_on_c, 4, 82, 0
5, 42824, Note_on_c, 4, 79, 0
5, 42824, Note_on_c, 4, 67, 0
5, 42952, Note_on_c, 4, 77, 15
5, 42952, Note_on_c, 4, 77, 0
5, 42952, Note_on_c, 4, 67, 29
5, 42952, Note_on_c, 4, 67, 0
5, 42952, Note_on_c, 4, 84, 23
5, 42952, Note_on_c, 4, 81, 35
5, 42952, Note_on_c, 4, 81, 0
5, 43080, Note_on_c, 4, 84, 0
5, 43336, Note_on_c, 4, 77, 53
5, 43336, Note_on_c, 4, 84, 51
5, 43336, Note_on_c, 4, 67, 38
5, 43336, Note_on_c, 4, 81, 54
5, 43456, Note_on_c, 4, 81, 0
5, 43456, Note_on_c, 4, 84, 0
5, 43456, Note_on_c, 4, 77, 0
5, 43456, Note_on_c, 4, 67, 0
5, 43712, Note_on_c, 4, 77, 60
5, 43712, Note_on_c, 4, 67, 40
5, 43712, Note_on_c, 4, 81, 57
5, 43712, Note_on_c, 4, 84, 37
5, 43968, Note_on_c, 4, 81, 0
5, 43968, Note_on_c, 4, 67, 0
5, 43968, Note_on_c, 4, 77, 0
5, 44096, Note_on_c, 4, 84, 0
5, 44096, Note_on_c, 4, 67, 26
5, 44096, Note_on_c, 4, 82, 29
5, 44096, Note_on_c, 4, 74, 19
5, 44096, Note_on_c, 4, 79, 17
5, 44224, Note_on_c, 4, 74, 0
5, 44352, Note_on_c, 4, 82, 0
5, 44352, Note_on_c, 4, 79, 0
5, 44480, Note_on_c, 4, 67, 0
5, 44480, Note_on_c, 4, 75, 37
5, 44480, Note_on_c, 4, 86, 57
5, 44480, Note_on_c, 4, 72, 28
5, 44480, Note_on_c, 4, 72, 0
5, 44480, Note_on_c, 4, 79, 31
5, 44608, Note_on_c, 4, 79, 0
5, 44608, Note_on_c, 4, 86, 0
5, 44608, Note_on_c, 4, 75, 0
5, 44864, Note_on_c, 4, 75, 33
5, 44864, Note_on_c, 4, 86, 57
5, 44864, Note_on_c, 4, 72, 31
5, 44864, Note_on_c, 4, 72, 0
5, 44864, Note_on_c, 4, 79, 30
5, 44992, Note_on_c, 4, 79, 0
5, 44992, Note_on_c, 4, 86, 0
5, 44992, Note_on_c, 4, 75, 0
5, 45248, Note_on_c, 4, 75, 69
5, 45248, Note_on_c, 4, 79, 70
5, 45248, Note_on_c, 4, 86, 76
5, 45248, Note_on_c, 4, 74, 58
5, 45504, Note_on_c, 4, 86, 0
5, 45504, Note_on_c, 4, 79, 0
5, 45504, Note_on_c, 4, 75, 0
5, 45632, Note_on_c, 4, 74, 0
5, 45632, Note_on_c, 4, 72, 34
5, 45632, Note_on_c, 4, 72, 0
5, 45632, Note_on_c, 4, 75, 33
5, 45632, Note_on_c, 4, 79, 19
5, 45632, Note_on_c, 4, 84, 29
5, 45760, Note_on_c, 4, 84, 0
5, 45760, Note_on_c, 4, 75, 0
5, 45760, Note_on_c, 4, 79, 0
5, 46016, Note_on_c, 4, 78, 63
5, 46016, Note_on_c, 4, 74, 27
5, 46016, Note_on_c, 4, 74, 0
5, 46016, Note_on_c, 4, 86, 56
5, 46016, Note_on_c, 4, 82, 32
5, 46144, Note_on_c, 4, 82, 0
5, 46144, Note_on_c, 4, 78, 0
5, 46144, Note_on_c, 4, 86, 0
5, 46400, Note_on_c, 4, 78, 78
5, 46400, Note_on_c, 4, 82, 58
5, 46400, Note_on_c, 4, 86, 69
5, 46400, Note_on_c, 4, 74, 50
5, 46528, Note_on_c, 4, 74, 0
5, 46528, Note_on_c, 4, 82, 0
5, 46528, Note_on_c, 4, 78, 0
5, 46528, Note_on_c, 4, 86, 0
5, 46784, Note_on_c, 4, 78, 58
5, 46784, Note_on_c, 4, 80, 56
5, 46784, Note_on_c, 4, 86, 62
5, 46784, Note_on_c, 4, 74, 40
5, 47040, Note_on_c, 4, 74, 0
5, 47040, Note_on_c, 4, 80, 0
5, 47040, Note_on_c, 4, 78, 0
5, 47040, Note_on_c, 4, 86, 0
5, 47168, Note_on_c, 4, 86, 67
5, 47168, Note_on_c, 4, 78, 59
5, 47168, Note_on_c, 4, 74, 44
5, 47168, Note_on_c, 4, 81, 63
5, 47296, Note_on_c, 4, 81, 0
5, 47296, Note_on_c, 4, 86, 0
5, 47296, Note_on_c, 4, 78, 0
5, 47424, Note_on_c, 4, 74, 0
5, 47552, Note_on_c, 4, 77, 16
5, 47552, Note_on_c, 4, 67, 22
5, 47552, Note_on_c, 4, 81, 24
5, 47552, Note_on_c, 4, 84, 18
5, 47680, Note_on_c, 4, 84, 0
5, 47680, Note_on_c, 4, 67, 0
5, 47680, Note_on_c, 4, 77, 0
5, 47680, Note_on_c, 4, 81, 0
5, 47936, Note_on_c, 4, 84, 72
5, 47936, Note_on_c, 4, 77, 72
5, 47936, Note_on_c, 4, 81, 78
5, 47936, Note_on_c, 4, 67, 48
5, 48064, Note_on_c, 4, 67, 0
5, 48064, Note_on_c, 4, 77, 0
5, 48064, Note_on_c, 4, 84, 0
5, 48064, Note_on_c, 4, 81, 0
5, 48320, Note_on_c, 4, 77, 45
5, 48320, Note_on_c, 4, 84, 43
5, 48320, Note_on_c, 4, 81, 35
5, 48320, Note_on_c, 4, 67, 27
5, 48448, Note_on_c, 4, 81, 0
5, 48448, Note_on_c, 4, 77, 0
5, 48576, Note_on_c, 4, 84, 0
5, 48576, Note_on_c, 4, 67, 0
5, 48576, Note_on_c, 4, 82, 52
5, 48576, Note_on_c, 4, 79, 51
5, 48576, Note_on_c, 4, 74, 38
5, 48576, Note_on_c, 4, 67, 50
5, 48960, Note_on_c, 4, 67, 0
5, 48960, Note_on_c, 4, 79, 0
5, 48960, Note_on_c, 4, 82, 0
5, 48960, Note_on_c, 4, 74, 0
5, 49088, Note_on_c, 4, 77, 30
5, 49088, Note_on_c, 4, 77, 0
5, 49088, Note_on_c, 4, 67, 29
5, 49088, Note_on_c, 4, 67, 0
5, 49088, Note_on_c, 4, 81, 29
5, 49088, Note_on_c, 4, 81, 0
5, 49088, Note_on_c, 4, 84, 23
5, 49088, Note_on_c, 4, 84, 0
5, 49472, Note_on_c, 4, 84, 58
5, 49472, Note_on_c, 4, 81, 62
5, 49472, Note_on_c, 4, 77, 59
5, 49472, Note_on_c, 4, 67, 37
5, 49592, Note_on_c, 4, 67, 0
5, 49592, Note_on_c, 4, 81, 0
5, 49592, Note_on_c, 4, 84, 0
5, 49592, Note_on_c, 4, 77, 0
5, 49856, Note_on_c, 4, 84, 55
5, 49856, Note_on_c, 4, 77, 58
5, 49856, Note_on_c, 4, 67, 37
5, 49856, Note_on_c, 4, 81, 49
5, 49976, Note_on_c, 4, 81, 0
5, 50104, Note_on_c, 4, 77, 0
5, 50104, Note_on_c, 4, 67, 0
5, 50232, Note_on_c, 4, 84, 0
5, 50232, Note_on_c, 4, 82, 47
5, 50232, Note_on_c, 4, 74, 35
5, 50232, Note_on_c, 4, 79, 34
5, 50232, Note_on_c, 4, 67, 29
5, 50488, Note_on_c, 4, 79, 0
5, 50488, Note_on_c, 4, 74, 0
5, 50488, Note_on_c, 4, 82, 0
5, 50616, Note_on_c, 4, 67, 0
5, 50616, Note_on_c, 4, 75, 35
5, 50616, Note_on_c, 4, 79, 23
5, 50616, Note_on_c, 4, 86, 55
5, 50616, Note_on_c, 4, 72, 28
5, 50616, Note_on_c, 4, 82, 27
5, 50744, Note_on_c, 4, 82, 0
5, 50744, Note_on_c, 4, 86, 0
5, 50744, Note_on_c, 4, 79, 0
5, 50744, Note_on_c, 4, 75, 0
5, 50744, Note_on_c, 4, 72, 0
5, 51000, Note_on_c, 4, 75, 42
5, 51000, Note_on_c, 4, 86, 49
5, 51000, Note_on_c, 4, 79, 29
5, 51000, Note_on_c, 4, 82, 25
5, 51000, Note_on_c, 4, 72, 27
5, 51000, Note_on_c, 4, 72, 0
5, 51128, Note_on_c, 4, 79, 0
5, 51128, Note_on_c, 4, 86, 0
5, 51128, Note_on_c, 4, 75, 0
5, 51128, Note_on_c, 4, 82, 0
5, 51384, Note_on_c, 4, 75, 33
5, 51384, Note_on_c, 4, 86, 39
5, 51384, Note_on_c, 4, 79, 29
5, 51384, Note_on_c, 4, 82, 20
5, 51384, Note_on_c, 4, 72, 23
5, 51512, Note_on_c, 4, 75, 0
5, 51640, Note_on_c, 4, 82, 0
5, 51640, Note_on_c, 4, 79, 0
5, 51640, Note_on_c, 4, 86, 0
5, 51640, Note_on_c, 4, 72, 0
5, 51640, Note_on_c, 4, 75, 32
5, 51640, Note_on_c, 4, 72, 22
5, 51640, Note_on_c, 4, 79, 19
5, 51640, Note_on_c, 4, 84, 45
5, 51768, Note_on_c, 4, 79, 0
5, 51768, Note_on_c, 4, 75, 0
5, 51896, Note_on_c, 4, 84, 0
5, 52024, Note_on_c, 4, 72, 0
5, 52152, Note_on_c, 4, 89, 63
5, 52152, Note_on_c, 4, 78, 59
5, 52152, Note_on_c, 4, 78, 0
5, 52152, Note_on_c, 4, 82, 40
5, 52152, Note_on_c, 4, 74, 37
5, 52152, Note_on_c, 4, 74, 0
5, 52152, Note_on_c, 4, 84, 24
5, 52152, Note_on_c, 4, 84, 0
5, 52280, Note_on_c, 4, 82, 0
5, 52280, Note_on_c, 4, 89, 0
5, 52536, Note_on_c, 4, 78, 50
5, 52536, Note_on_c, 4, 89, 60
5, 52536, Note_on_c, 4, 82, 40
5, 52536, Note_on_c, 4, 74, 35
5, 52536, Note_on_c, 4, 84, 29
5, 52664, Note_on_c, 4, 84, 0
5, 52664, Note_on_c, 4, 82, 0
5, 52664, Note_on_c, 4, 89, 0
5, 52664, Note_on_c, 4, 78, 0
5, 52664, Note_on_c, 4, 74, 0
5, 52920, Note_on_c, 4, 78, 30
5, 52920, Note_on_c, 4, 87, 32
5, 52920, Note_on_c, 4, 82, 28
5, 52920, Note_on_c, 4, 74, 27
5, 52920, Note_on_c, 4, 84, 17
5, 53048, Note_on_c, 4, 74, 0
5, 53048, Note_on_c, 4, 78, 0
5, 53048, Note_on_c, 4, 82, 0
5, 53176, Note_on_c, 4, 87, 0
5, 53176, Note_on_c, 4, 84, 0
5, 53176, Note_on_c, 4, 82, 53
5, 53176, Note_on_c, 4, 78, 48
5, 53176, Note_on_c, 4, 86, 61
5, 53176, Note_on_c, 4, 74, 30
5, 53560, Note_on_c, 4, 86, 0
5, 53560, Note_on_c, 4, 78, 0
5, 53560, Note_on_c, 4, 82, 0
5, 53688, Note_on_c, 4, 74, 0
5, 53688, Note_on_c, 4, 77, 26
5, 53688, Note_on_c, 4, 67, 25
5, 53688, Note_on_c, 4, 67, 0
5, 53688, Note_on_c, 4, 81, 29
5, 53688, Note_on_c, 4, 84, 23
5, 53816, Note_on_c, 4, 84, 0
5, 53816, Note_on_c, 4, 77, 0
5, 53816, Note_on_c, 4, 81, 0
5, 54072, Note_on_c, 4, 77, 26
5, 54072, Note_on_c, 4, 67, 27
5, 54072, Note_on_c, 4, 84, 24
5, 54072, Note_on_c, 4, 81, 18
5, 54200, Note_on_c, 4, 81, 0
5, 54200, Note_on_c, 4, 67, 0
5, 54200, Note_on_c, 4, 77, 0
5, 54200, Note_on_c, 4, 84, 0
5, 54456, Note_on_c, 4, 77, 29
5, 54456, Note_on_c, 4, 82, 28
5, 54456, Note_on_c, 4, 86, 36
5, 54456, Note_on_c, 4, 67, 24
5, 54712, Note_on_c, 4, 67, 0
5, 54712, Note_on_c, 4, 77, 0
5, 54840, Note_on_c, 4, 82, 0
5, 54840, Note_on_c, 4, 77, 33
5, 54840, Note_on_c, 4, 77, 0
5, 54840, Note_on_c, 4, 67, 27
5, 54840, Note_on_c, 4, 82, 28
5, 54960, Note_on_c, 4, 82, 0
5, 54960, Note_on_c, 4, 86, 0
5, 55088, Note_on_c, 4, 67, 0
5, 55088, Note_on_c, 4, 82, 76
5, 55088, Note_on_c, 4, 86, 82
5, 55088, Note_on_c, 4, 77, 86
5, 55088, Note_on_c, 4, 72, 65
5, 55480, Note_on_c, 4, 72, 0
5, 55480, Note_on_c, 4, 86, 0
5, 55480, Note_on_c, 4, 82, 0
5, 55480, Note_on_c, 4, 77, 0
5, 55600, Note_on_c, 4, 77, 34
5, 55600, Note_on_c, 4, 82, 33
5, 55600, Note_on_c, 4, 86, 24
5, 55600, Note_on_c, 4, 72, 29
5, 55728, Note_on_c, 4, 72, 0
5, 55728, Note_on_c, 4, 77, 0
5, 55728, Note_on_c, 4, 82, 0
5, 55856, Note_on_c, 4, 86, 0
5, 55984, Note_on_c, 4, 76, 28
5, 55984, Note_on_c, 4, 86, 34
5, 55984, Note_on_c, 4, 82, 27
5, 55984, Note_on_c, 4, 72, 21
5, 55984, Note_on_c, 4, 72, 0
5, 56112, Note_on_c, 4, 86, 0
5, 56112, Note_on_c, 4, 76, 0
5, 56112, Note_on_c, 4, 82, 0
5, 56368, Note_on_c, 4, 82, 31
5, 56368, Note_on_c, 4, 76, 40
5, 56368, Note_on_c, 4, 72, 30
5, 56368, Note_on_c, 4, 72, 0
5, 56368, Note_on_c, 4, 86, 46
5, 56496, Note_on_c, 4, 86, 0
5, 56496, Note_on_c, 4, 82, 0
5, 56496, Note_on_c, 4, 76, 0
5, 56752, Note_on_c, 4, 75, 49
5, 56752, Note_on_c, 4, 86, 49
5, 56752, Note_on_c, 4, 72, 35
5, 56752, Note_on_c, 4, 72, 0
5, 56752, Note_on_c, 4, 79, 35
5, 56880, Note_on_c, 4, 79, 0
5, 56880, Note_on_c, 4, 86, 0
5, 56880, Note_on_c, 4, 75, 0
5, 57136, Note_on_c, 4, 75, 34
5, 57136, Note_on_c, 4, 86, 50
5, 57136, Note_on_c, 4, 72, 34
5, 57136, Note_on_c, 4, 72, 0
5, 57136, Note_on_c, 4, 79, 27
5, 57264, Note_on_c, 4, 79, 0
5, 57264, Note_on_c, 4, 86, 0
5, 57264, Note_on_c, 4, 75, 0
5, 57520, Note_on_c, 4, 75, 27
5, 57520, Note_on_c, 4, 72, 29
5, 57520, Note_on_c, 4, 86, 29
5, 57520, Note_on_c, 4, 79, 23
5, 57648, Note_on_c, 4, 79, 0
5, 57648, Note_on_c, 4, 72, 0
5, 57648, Note_on_c, 4, 75, 0
5, 57648, Note_on_c, 4, 86, 0
5, 57904, Note_on_c, 4, 75, 30
5, 57904, Note_on_c, 4, 72, 30
5, 57904, Note_on_c, 4, 79, 27
5, 57904, Note_on_c, 4, 86, 21
5, 58032, Note_on_c, 4, 86, 0
5, 58032, Note_on_c, 4, 72, 0
5, 58032, Note_on_c, 4, 75, 0
5, 58032, Note_on_c, 4, 79, 0
5, 58288, Note_on_c, 4, 78, 62
5, 58288, Note_on_c, 4, 74, 34
5, 58288, Note_on_c, 4, 86, 44
5, 58288, Note_on_c, 4, 82, 25
5, 58416, Note_on_c, 4, 82, 0
5, 58416, Note_on_c, 4, 74, 0
5, 58416, Note_on_c, 4, 78, 0
5, 58416, Note_on_c, 4, 86, 0
5, 58672, Note_on_c, 4, 74, 57
5, 58672, Note_on_c, 4, 78, 70
5, 58672, Note_on_c, 4, 86, 64
5, 58672, Note_on_c, 4, 82, 41
5, 58800, Note_on_c, 4, 82, 0
5, 58800, Note_on_c, 4, 78, 0
5, 58800, Note_on_c, 4, 74, 0
5, 58800, Note_on_c, 4, 86, 0
5, 59056, Note_on_c, 4, 78, 31
5, 59056, Note_on_c, 4, 81, 31
5, 59056, Note_on_c, 4, 84, 27
5, 59056, Note_on_c, 4, 74, 35
5, 59312, Note_on_c, 4, 74, 0
5, 59312, Note_on_c, 4, 78, 0
5, 59312, Note_on_c, 4, 81, 0
5, 59440, Note_on_c, 4, 84, 0
5, 59440, Note_on_c, 4, 78, 42
5, 59440, Note_on_c, 4, 81, 47
5, 59440, Note_on_c, 4, 81, 0
5, 59440, Note_on_c, 4, 74, 30
5, 59568, Note_on_c, 4, 78, 0
5, 59696, Note_on_c, 4, 74, 0
5, 59824, Note_on_c, 4, 77, 20
5, 59824, Note_on_c, 4, 77, 0
5, 59824, Note_on_c, 4, 67, 24
5, 59824, Note_on_c, 4, 67, 0
5, 59824, Note_on_c, 4, 81, 31
5, 59824, Note_on_c, 4, 81, 0
5, 59824, Note_on_c, 4, 84, 24
5, 59952, Note_on_c, 4, 84, 0
5, 60208, Note_on_c, 4, 84, 46
5, 60208, Note_on_c, 4, 81, 45
5, 60208, Note_on_c, 4, 77, 42
5, 60208, Note_on_c, 4, 67, 28
5, 60208, Note_on_c, 4, 67, 0
5, 60336, Note_on_c, 4, 81, 0
5, 60336, Note_on_c, 4, 84, 0
5, 60336, Note_on_c, 4, 77, 0
5, 60592, Note_on_c, 4, 82, 22
5, 60592, Note_on_c, 4, 67, 18
5, 60720, Note_on_c, 4, 74, 1
5, 60848, Note_on_c, 4, 74, 0
5, 60848, Note_on_c, 4, 82, 0
5, 60848, Note_on_c, 4, 67, 0
5, 60976, Note_on_c, 4, 67, 17
5, 61096, Note_on_c, 4, 67, 0
5, 61232, Note_on_c, 4, 67, 18
5, 61232, Note_on_c, 4, 67, 0
5, 61352, Note_on_c, 4, 67, 44
5, 61352, Note_on_c, 4, 77, 84
5, 61352, Note_on_c, 4, 81, 82
5, 61352, Note_on_c, 4, 84, 76
5, 61480, Note_on_c, 4, 84, 0
5, 61480, Note_on_c, 4, 77, 0
5, 61480, Note_on_c, 4, 67, 0
5, 61480, Note_on_c, 4, 81, 0
5, 61736, Note_on_c, 4, 84, 28
5, 61736, Note_on_c, 4, 67, 24
5, 61736, Note_on_c, 4, 77, 28
5, 61736, Note_on_c, 4, 81, 24
5, 61864, Note_on_c, 4, 81, 0
5, 61864, Note_on_c, 4, 67, 0
5, 61864, Note_on_c, 4, 84, 0
5, 61864, Note_on_c, 4, 77, 0
5, 61992, Note_on_c, 4, 74, 37
5, 61992, Note_on_c, 4, 82, 30
5, 61992, Note_on_c, 4, 67, 27
5, 61992, Note_on_c, 4, 79, 28
5, 62632, Note_on_c, 4, 79, 0
5, 62632, Note_on_c, 4, 82, 0
5, 62632, Note_on_c, 4, 74, 0
5, 62632, Note_on_c, 4, 67, 0
5, 62896, Note_on_c, 4, 75, 57
5, 62896, Note_on_c, 4, 85, 46
5, 62896, Note_on_c, 4, 59, 60
5, 62896, Note_on_c, 4, 80, 48
5, 63016, Note_on_c, 4, 80, 0
5, 63016, Note_on_c, 4, 85, 0
5, 63016, Note_on_c, 4, 75, 0
5, 63016, Note_on_c, 4, 59, 0
5, 63528, Note_on_c, 4, 85, 52
5, 63528, Note_on_c, 4, 75, 56
5, 63528, Note_on_c, 4, 80, 50
5, 63528, Note_on_c, 4, 59, 55
5, 63912, Note_on_c, 4, 75, 0
5, 64040, Note_on_c, 4, 80, 0
5, 64040, Note_on_c, 4, 85, 0
5, 64040, Note_on_c, 4, 59, 0
5, 64040, Note_on_c, 4, 75, 17
5, 64040, Note_on_c, 4, 75, 0
5, 64424, Note_on_c, 4, 75, 54
5, 64424, Note_on_c, 4, 75, 0
5, 64424, Note_on_c, 4, 85, 45
5, 64424, Note_on_c, 4, 85, 0
5, 64424, Note_on_c, 4, 80, 34
5, 64424, Note_on_c, 4, 80, 0
5, 64424, Note_on_c, 4, 59, 40
5, 64424, Note_on_c, 4, 59, 0
5, 65064, Note_on_c, 4, 85, 65
5, 65064, Note_on_c, 4, 75, 71
5, 65064, Note_on_c, 4, 80, 60
5, 65064, Note_on_c, 4, 59, 59
5, 65448, Note_on_c, 4, 75, 0
5, 65576, Note_on_c, 4, 80, 0
5, 65576, Note_on_c, 4, 85, 0
5, 65576, Note_on_c, 4, 59, 0
5, 65576, Note_on_c, 4, 75, 19
5, 65576, Note_on_c, 4, 75, 0
5, 65576, Note_on_c, 4, 81, 40
5, 65576, Note_on_c, 4, 81, 0
5, 65960, Note_on_c, 4, 81, 56
5, 65960, Note_on_c, 4, 86, 34
5, 65960, Note_on_c, 4, 82, 33
5, 65960, Note_on_c, 4, 67, 36
5, 65960, Note_on_c, 4, 67, 0
5, 66088, Note_on_c, 4, 86, 0
5, 66088, Note_on_c, 4, 81, 0
5, 66088, Note_on_c, 4, 82, 0
5, 66600, Note_on_c, 4, 81, 106
5, 66600, Note_on_c, 4, 82, 59
5, 66600, Note_on_c, 4, 86, 73
5, 66600, Note_on_c, 4, 67, 57
5, 67112, Note_on_c, 4, 86, 0
5, 67112, Note_on_c, 4, 82, 0
5, 67112, Note_on_c, 4, 81, 0
5, 67112, Note_on_c, 4, 62, 25
5, 67112, Note_on_c, 4, 79, 19
5, 67232, Note_on_c, 4, 79, 0
5, 67232, Note_on_c, 4, 62, 0
5, 67360, Note_on_c, 4, 67, 0
5, 67488, Note_on_c, 4, 69, 24
5, 67488, Note_on_c, 4, 69, 0
5, 67488, Note_on_c, 4, 55, 25
5, 67488, Note_on_c, 4, 55, 0
5, 67488, Note_on_c, 4, 70, 27
5, 67488, Note_on_c, 4, 74, 29
5, 67488, Note_on_c, 4, 74, 0
5, 67616, Note_on_c, 4, 70, 0
5, 68128, Note_on_c, 4, 70, 44
5, 68128, Note_on_c, 4, 69, 47
5, 68128, Note_on_c, 4, 74, 55
5, 68128, Note_on_c, 4, 55, 40
5, 68512, Note_on_c, 4, 69, 0
5, 68512, Note_on_c, 4, 70, 0
5, 68640, Note_on_c, 4, 74, 0
5, 68640, Note_on_c, 4, 70, 0
5, 68640, Note_on_c, 4, 70, 38
5, 69024, Note_on_c, 4, 55, 0
5, 69024, Note_on_c, 4, 75, 32
5, 69024, Note_on_c, 4, 85, 32
5, 69024, Note_on_c, 4, 80, 33
5, 69024, Note_on_c, 4, 59, 26
5, 69152, Note_on_c, 4, 59, 0
5, 69152, Note_on_c, 4, 85, 0
5, 69152, Note_on_c, 4, 75, 0
5, 69152, Note_on_c, 4, 80, 0
5, 69664, Note_on_c, 4, 85, 57
5, 69664, Note_on_c, 4, 75, 59
5, 69664, Note_on_c, 4, 80, 56
5, 69664, Note_on_c, 4, 59, 59
5, 70048, Note_on_c, 4, 75, 0
5, 70176, Note_on_c, 4, 80, 0
5, 70176, Note_on_c, 4, 85, 0
5, 70176, Note_on_c, 4, 59, 0
5, 70176, Note_on_c, 4, 75, 18
5, 70176, Note_on_c, 4, 75, 0
5, 70560, Note_on_c, 4, 75, 35
5, 70560, Note_on_c, 4, 59, 34
5, 70560, Note_on_c, 4, 85, 31
5, 70560, Note_on_c, 4, 80, 32
5, 70688, Note_on_c, 4, 80, 0
5, 70688, Note_on_c, 4, 59, 0
5, 70688, Note_on_c, 4, 75, 0
5, 70688, Note_on_c, 4, 85, 0
5, 71200, Note_on_c, 4, 85, 63
5, 71200, Note_on_c, 4, 75, 71
5, 71200, Note_on_c, 4, 80, 61
5, 71200, Note_on_c, 4, 59, 61
5, 71840, Note_on_c, 4, 80, 0
5, 71840, Note_on_c, 4, 75, 0
5, 71840, Note_on_c, 4, 85, 0
5, 72096, Note_on_c, 4, 59, 0
5, 72096, Note_on_c, 4, 55, 29
5, 72096, Note_on_c, 4, 86, 28
5, 72096, Note_on_c, 4, 81, 20
5, 72096, Note_on_c, 4, 76, 9
5, 72224, Note_on_c, 4, 81, 0
5, 72224, Note_on_c, 4, 86, 0
5, 72224, Note_on_c, 4, 55, 0
5, 72224, Note_on_c, 4, 76, 0
5, 72728, Note_on_c, 4, 81, 49
5, 72728, Note_on_c, 4, 76, 49
5, 72728, Note_on_c, 4, 86, 51
5, 72728, Note_on_c, 4, 55, 48
5, 73240, Note_on_c, 4, 55, 0
5, 73240, Note_on_c, 4, 76, 0
5, 73240, Note_on_c, 4, 81, 0
5, 73240, Note_on_c, 4, 86, 0
5, 73624, Note_on_c, 4, 79, 79
5, 73624, Note_on_c, 4, 75, 49
5, 73624, Note_on_c, 4, 72, 79
5, 73624, Note_on_c, 4, 68, 69
5, 73624, Note_on_c, 4, 53, 63
5, 73880, Note_on_c, 4, 53, 0
5, 73880, Note_on_c, 4, 72, 0
5, 73880, Note_on_c, 4, 68, 0
5, 74008, Note_on_c, 4, 79, 0
5, 74008, Note_on_c, 4, 75, 0
5, 74264, Note_on_c, 4, 77, 73
5, 74264, Note_on_c, 4, 74, 79
5, 74264, Note_on_c, 4, 68, 84
5, 74264, Note_on_c, 4, 58, 65
5, 74648, Note_on_c, 4, 68, 0
5, 74776, Note_on_c, 4, 74, 0
5, 74776, Note_on_c, 4, 58, 0
5, 74776, Note_on_c, 4, 68, 24
5, 74904, Note_on_c, 4, 68, 0
5, 74904, Note_on_c, 4, 77, 0
5, 75160, Note_on_c, 4, 77, 41
5, 75160, Note_on_c, 4, 74, 44
5, 75160, Note_on_c, 4, 51, 51
5, 75160, Note_on_c, 4, 67, 47
5, 75160, Note_on_c, 4, 67, 0
5, 75288, Note_on_c, 4, 74, 0
5, 75288, Note_on_c, 4, 77, 0
5, 75288, Note_on_c, 4, 51, 0
5, 75800, Note_on_c, 4, 77, 66
5, 75800, Note_on_c, 4, 70, 62
5, 75800, Note_on_c, 4, 74, 48
5, 75800, Note_on_c, 4, 67, 59
5, 75800, Note_on_c, 4, 51, 64
5, 75800, Note_on_c, 4, 69, 21
5, 75800, Note_on_c, 4, 69, 0
5, 76056, Note_on_c, 4, 74, 0
5, 76184, Note_on_c, 4, 70, 0
5, 76184, Note_on_c, 4, 67, 0
5, 76312, Note_on_c, 4, 51, 0
5, 76312, Note_on_c, 4, 77, 0
5, 76312, Note_on_c, 4, 74, 24
5, 76312, Note_on_c, 4, 74, 0
5, 76696, Note_on_c, 4, 82, 65
5, 76696, Note_on_c, 4, 77, 69
5, 76696, Note_on_c, 4, 74, 75
5, 76696, Note_on_c, 4, 74, 0
5, 76696, Note_on_c, 4, 79, 48
5, 76696, Note_on_c, 4, 51, 55
5, 76824, Note_on_c, 4, 51, 0
5, 76824, Note_on_c, 4, 82, 0
5, 76824, Note_on_c, 4, 77, 0
5, 76824, Note_on_c, 4, 79, 0
5, 77336, Note_on_c, 4, 77, 84
5, 77336, Note_on_c, 4, 82, 62
5, 77336, Note_on_c, 4, 74, 77
5, 77336, Note_on_c, 4, 79, 58
5, 77336, Note_on_c, 4, 51, 57
5, 77720, Note_on_c, 4, 51, 0
5, 77720, Note_on_c, 4, 77, 0
5, 77720, Note_on_c, 4, 74, 0
5, 77848, Note_on_c, 4, 82, 0
5, 77848, Note_on_c, 4, 79, 0
5, 77848, Note_on_c, 4, 77, 48
5, 77848, Note_on_c, 4, 77, 0
5, 78232, Note_on_c, 4, 78, 71
5, 78232, Note_on_c, 4, 82, 56
5, 78232, Note_on_c, 4, 89, 73
5, 78232, Note_on_c, 4, 62, 60
5, 78232, Note_on_c, 4, 72, 57
5, 78232, Note_on_c, 4, 84, 40
5, 78232, Note_on_c, 4, 87, 18
5, 78360, Note_on_c, 4, 87, 0
5, 78360, Note_on_c, 4, 82, 0
5, 78360, Note_on_c, 4, 84, 0
5, 78360, Note_on_c, 4, 89, 0
5, 78360, Note_on_c, 4, 72, 0
5, 78360, Note_on_c, 4, 78, 0
5, 78360, Note_on_c, 4, 62, 0
5, 78864, Note_on_c, 4, 87, 71
5, 78864, Note_on_c, 4, 78, 77
5, 78864, Note_on_c, 4, 82, 60
5, 78864, Note_on_c, 4, 84, 59
5, 78864, Note_on_c, 4, 72, 79
5, 78864, Note_on_c, 4, 72, 0
5, 78864, Note_on_c, 4, 62, 71
5, 78992, Note_on_c, 4, 72, 14
5, 79248, Note_on_c, 4, 78, 0
5, 79376, Note_on_c, 4, 82, 0
5, 79376, Note_on_c, 4, 87, 0
5, 79376, Note_on_c, 4, 84, 0
5, 79376, Note_on_c, 4, 78, 22
5, 79504, Note_on_c, 4, 78, 0
5, 79504, Note_on_c, 4, 72, 0
5, 79504, Note_on_c, 4, 62, 0
5, 79760, Note_on_c, 4, 78, 49
5, 79760, Note_on_c, 4, 86, 57
5, 79760, Note_on_c, 4, 76, 57
5, 79760, Note_on_c, 4, 72, 45
5, 79760, Note_on_c, 4, 72, 0
5, 79760, Note_on_c, 4, 62, 49
5, 79760, Note_on_c, 4, 81, 19
5, 79888, Note_on_c, 4, 81, 0
5, 79888, Note_on_c, 4, 76, 0
5, 79888, Note_on_c, 4, 86, 0
5, 79888, Note_on_c, 4, 78, 0
5, 79888, Note_on_c, 4, 62, 0
5, 80400, Note_on_c, 4, 78, 84
5, 80400, Note_on_c, 4, 84, 75
5, 80400, Note_on_c, 4, 81, 63
5, 80400, Note_on_c, 4, 76, 88
5, 80400, Note_on_c, 4, 62, 62
5, 80400, Note_on_c, 4, 72, 64
5, 80784, Note_on_c, 4, 72, 0
5, 80784, Note_on_c, 4, 78, 0
5, 80784, Note_on_c, 4, 76, 0
5, 80912, Note_on_c, 4, 76, 0
5, 80912, Note_on_c, 4, 84, 0
5, 80912, Note_on_c, 4, 81, 0
5, 80912, Note_on_c, 4, 62, 0
5, 80912, Note_on_c, 4, 69, 16
5, 80912, Note_on_c, 4, 69, 0
5, 80912, Note_on_c, 4, 78, 55
5, 80912, Note_on_c, 4, 78, 0
5, 80912, Note_on_c, 4, 76, 31
5, 81296, Note_on_c, 4, 81, 84
5, 81296, Note_on_c, 4, 70, 69
5, 81296, Note_on_c, 4, 55, 69
5, 81296, Note_on_c, 4, 74, 79
5, 81296, Note_on_c, 4, 77, 41
5, 81424, Note_on_c, 4, 77, 0
5, 81424, Note_on_c, 4, 55, 0
5, 81424, Note_on_c, 4, 70, 0
5, 81424, Note_on_c, 4, 81, 0
5, 81424, Note_on_c, 4, 74, 0
5, 81936, Note_on_c, 4, 70, 66
5, 81936, Note_on_c, 4, 74, 75
5, 81936, Note_on_c, 4, 79, 64
5, 81936, Note_on_c, 4, 55, 83
5, 82320, Note_on_c, 4, 70, 0
5, 82448, Note_on_c, 4, 79, 0
5, 82448, Note_on_c, 4, 74, 0
5, 82448, Note_on_c, 4, 70, 18
5, 82576, Note_on_c, 4, 70, 0
5, 82576, Note_on_c, 4, 55, 0
5, 82832, Note_on_c, 4, 70, 32
5, 82832, Note_on_c, 4, 69, 39
5, 82832, Note_on_c, 4, 69, 0
5, 82832, Note_on_c, 4, 55, 40
5, 82832, Note_on_c, 4, 74, 32
5, 82832, Note_on_c, 4, 74, 0
5, 82960, Note_on_c, 4, 70, 0
5, 82960, Note_on_c, 4, 55, 0
5, 83472, Note_on_c, 4, 70, 67
5, 83472, Note_on_c, 4, 74, 64
5, 83472, Note_on_c, 4, 69, 94
5, 83472, Note_on_c, 4, 55, 67
5, 83856, Note_on_c, 4, 69, 0
5, 83856, Note_on_c, 4, 70, 0
5, 83984, Note_on_c, 4, 74, 0
5, 83984, Note_on_c, 4, 70, 0
5, 83984, Note_on_c, 4, 55, 0
5, 83984, Note_on_c, 4, 62, 31
5, 83984, Note_on_c, 4, 62, 0
5, 83984, Note_on_c, 4, 70, 26
5, 84360, Note_on_c, 4, 86, 102
5, 84360, Note_on_c, 4, 82, 90
5, 84360, Note_on_c, 4, 77, 109
5, 84360, Note_on_c, 4, 70, 65
5, 84360, Note_on_c, 4, 60, 75
5, 84488, Note_on_c, 4, 60, 0
5, 84616, Note_on_c, 4, 70, 0
5, 84616, Note_on_c, 4, 82, 0
5, 84616, Note_on_c, 4, 86, 0
5, 84616, Note_on_c, 4, 77, 0
5, 85000, Note_on_c, 4, 70, 73
5, 85000, Note_on_c, 4, 82, 88
5, 85000, Note_on_c, 4, 86, 96
5, 85000, Note_on_c, 4, 77, 104
5, 85000, Note_on_c, 4, 60, 75
5, 85000, Note_on_c, 4, 80, 30
5, 85000, Note_on_c, 4, 80, 0
5, 85512, Note_on_c, 4, 60, 0
5, 85512, Note_on_c, 4, 86, 0
5, 85512, Note_on_c, 4, 82, 0
5, 85512, Note_on_c, 4, 70, 0
5, 85512, Note_on_c, 4, 77, 0
5, 85512, Note_on_c, 4, 77, 21
5, 85512, Note_on_c, 4, 77, 0
5, 85896, Note_on_c, 4, 81, 81
5, 85896, Note_on_c, 4, 70, 66
5, 85896, Note_on_c, 4, 74, 69
5, 85896, Note_on_c, 4, 76, 64
5, 85896, Note_on_c, 4, 60, 59
5, 85896, Note_on_c, 4, 69, 81
5, 86152, Note_on_c, 4, 69, 0
5, 86152, Note_on_c, 4, 60, 0
5, 86152, Note_on_c, 4, 76, 0
5, 86152, Note_on_c, 4, 81, 0
5, 86152, Note_on_c, 4, 70, 0
5, 86152, Note_on_c, 4, 74, 0
5, 86536, Note_on_c, 4, 70, 77
5, 86536, Note_on_c, 4, 79, 61
5, 86536, Note_on_c, 4, 73, 69
5, 86536, Note_on_c, 4, 76, 64
5, 86536, Note_on_c, 4, 67, 81
5, 86536, Note_on_c, 4, 60, 88
5, 87048, Note_on_c, 4, 60, 0
5, 87048, Note_on_c, 4, 67, 0
5, 87048, Note_on_c, 4, 79, 0
5, 87048, Note_on_c, 4, 73, 0
5, 87048, Note_on_c, 4, 75, 57
5, 87048, Note_on_c, 4, 85, 46
5, 87048, Note_on_c, 4, 59, 60
5, 87048, Note_on_c, 4, 80, 48
5, 87176, Note_on_c, 4, 80, 0
5, 87176, Note_on_c, 4, 59, 0
5, 87176, Note_on_c, 4, 75, 0
5, 87176, Note_on_c, 4, 85, 0
5, 87432, Note_on_c, 4, 74, 60
5, 87432, Note_on_c, 4, 75, 38
5, 87432, Note_on_c, 4, 75, 0
5, 87432, Note_on_c, 4, 67, 57
5, 87432, Note_on_c, 4, 67, 0
5, 87560, Note_on_c, 4, 74, 0
5, 87816, Note_on_c, 4, 75, 38
5, 87816, Note_on_c, 4, 74, 59
5, 87816, Note_on_c, 4, 67, 57
5, 87816, Note_on_c, 4, 67, 0
5, 87944, Note_on_c, 4, 75, 0
5, 87944, Note_on_c, 4, 74, 0
5, 88200, Note_on_c, 4, 75, 36
5, 88200, Note_on_c, 4, 74, 53
5, 88200, Note_on_c, 4, 67, 53
5, 88328, Note_on_c, 4, 67, 0
5, 88328, Note_on_c, 4, 75, 0
5, 88328, Note_on_c, 4, 74, 0
5, 88584, Note_on_c, 4, 74, 55
5, 88584, Note_on_c, 4, 67, 62
5, 88584, Note_on_c, 4, 75, 38
5, 88712, Note_on_c, 4, 75, 0
5, 88712, Note_on_c, 4, 74, 0
5, 88712, Note_on_c, 4, 67, 0
5, 88968, Note_on_c, 4, 75, 41
5, 88968, Note_on_c, 4, 66, 43
5, 88968, Note_on_c, 4, 72, 48
5, 89096, Note_on_c, 4, 72, 0
5, 89096, Note_on_c, 4, 75, 0
5, 89096, Note_on_c, 4, 66, 0
5, 89352, Note_on_c, 4, 66, 59
5, 89352, Note_on_c, 4, 75, 50
5, 89352, Note_on_c, 4, 72, 62
5, 89480, Note_on_c, 4, 72, 0
5, 89480, Note_on_c, 4, 66, 0
5, 89480, Note_on_c, 4, 75, 0
5, 89736, Note_on_c, 4, 66, 53
5, 89736, Note_on_c, 4, 75, 50
5, 89736, Note_on_c, 4, 70, 38
5, 89864, Note_on_c, 4, 75, 0
5, 89864, Note_on_c, 4, 66, 0
5, 89984, Note_on_c, 4, 70, 0
5, 90120, Note_on_c, 4, 75, 46
5, 90120, Note_on_c, 4, 66, 46
5, 90120, Note_on_c, 4, 70, 43
5, 90240, Note_on_c, 4, 66, 0
5, 90240, Note_on_c, 4, 75, 0
5, 90376, Note_on_c, 4, 70, 0
5, 90496, Note_on_c, 4, 72, 53
5, 90496, Note_on_c, 4, 69, 64
5, 90632, Note_on_c, 4, 69, 0
5, 90632, Note_on_c, 4, 72, 0
5, 90880, Note_on_c, 4, 69, 79
5, 90880, Note_on_c, 4, 72, 67
5, 91008, Note_on_c, 4, 72, 0
5, 91008, Note_on_c, 4, 69, 0
5, 91264, Note_on_c, 4, 70, 22
5, 91264, Note_on_c, 4, 67, 31
5, 91392, Note_on_c, 4, 67, 0
5, 91520, Note_on_c, 4, 70, 0
5, 91648, Note_on_c, 4, 70, 48
5, 91648, Note_on_c, 4, 67, 52
5, 91776, Note_on_c, 4, 67, 0
5, 91776, Note_on_c, 4, 70, 0
5, 92032, Note_on_c, 4, 69, 62
5, 92032, Note_on_c, 4, 72, 46
5, 92160, Note_on_c, 4, 72, 0
5, 92160, Note_on_c, 4, 69, 0
5, 92416, Note_on_c, 4, 69, 78
5, 92416, Note_on_c, 4, 72, 59
5, 92544, Note_on_c, 4, 72, 0
5, 92544, Note_on_c, 4, 69, 0
5, 92800, Note_on_c, 4, 70, 46
5, 92800, Note_on_c, 4, 67, 50
5, 92928, Note_on_c, 4, 67, 0
5, 92928, Note_on_c, 4, 70, 0
5, 93184, Note_on_c, 4, 70, 48
5, 93184, Note_on_c, 4, 67, 53
5, 93184, Note_on_c, 4, 67, 0
5, 93312, Note_on_c, 4, 70, 0
5, 93568, Note_on_c, 4, 75, 45
5, 93568, Note_on_c, 4, 75, 0
5, 93568, Note_on_c, 4, 74, 55
5, 93568, Note_on_c, 4, 74, 0
5, 93568, Note_on_c, 4, 67, 55
5, 93568, Note_on_c, 4, 74, 12
5, 93568, Note_on_c, 4, 74, 0
5, 93696, Note_on_c, 4, 67, 0
5, 93952, Note_on_c, 4, 75, 31
5, 93952, Note_on_c, 4, 74, 48
5, 93952, Note_on_c, 4, 67, 41
5, 93952, Note_on_c, 4, 67, 0
5, 94080, Note_on_c, 4, 75, 0
5, 94080, Note_on_c, 4, 74, 0
5, 94336, Note_on_c, 4, 75, 27
5, 94336, Note_on_c, 4, 74, 38
5, 94336, Note_on_c, 4, 67, 31
5, 94464, Note_on_c, 4, 67, 0
5, 94464, Note_on_c, 4, 75, 0
5, 94464, Note_on_c, 4, 74, 0
5, 94720, Note_on_c, 4, 75, 32
5, 94720, Note_on_c, 4, 74, 41
5, 94720, Note_on_c, 4, 67, 50
5, 94848, Note_on_c, 4, 67, 0
5, 94848, Note_on_c, 4, 75, 0
5, 94848, Note_on_c, 4, 74, 0
5, 95104, Note_on_c, 4, 75, 39
5, 95104, Note_on_c, 4, 66, 48
5, 95104, Note_on_c, 4, 72, 41
5, 95232, Note_on_c, 4, 72, 0
5, 95232, Note_on_c, 4, 75, 0
5, 95232, Note_on_c, 4, 66, 0
5, 95488, Note_on_c, 4, 75, 45
5, 95488, Note_on_c, 4, 66, 48
5, 95488, Note_on_c, 4, 72, 48
5, 95616, Note_on_c, 4, 72, 0
5, 95744, Note_on_c, 4, 75, 0
5, 95744, Note_on_c, 4, 66, 0
5, 95872, Note_on_c, 4, 75, 38
5, 95872, Note_on_c, 4, 66, 27
5, 95872, Note_on_c, 4, 70, 25
5, 96000, Note_on_c, 4, 66, 0
5, 96000, Note_on_c, 4, 75, 0
5, 96128, Note_on_c, 4, 70, 0
5, 96248, Note_on_c, 4, 66, 48
5, 96248, Note_on_c, 4, 75, 39
5, 96248, Note_on_c, 4, 70, 36
5, 96376, Note_on_c, 4, 75, 0
5, 96376, Note_on_c, 4, 66, 0
5, 96504, Note_on_c, 4, 70, 0
5, 96632, Note_on_c, 4, 65, 32
5, 96632, Note_on_c, 4, 72, 36
5, 96632, Note_on_c, 4, 69, 18
5, 96760, Note_on_c, 4, 69, 0
5, 96760, Note_on_c, 4, 65, 0
5, 96760, Note_on_c, 4, 72, 0
5, 97016, Note_on_c, 4, 72, 48
5, 97016, Note_on_c, 4, 65, 43
5, 97016, Note_on_c, 4, 69, 25
5, 97144, Note_on_c, 4, 69, 0
5, 97144, Note_on_c, 4, 72, 0
5, 97144, Note_on_c, 4, 65, 0
5, 97400, Note_on_c, 4, 77, 45
5, 97400, Note_on_c, 4, 72, 43
5, 97400, Note_on_c, 4, 69, 38
5, 97528, Note_on_c, 4, 77, 0
5, 97656, Note_on_c, 4, 72, 0
5, 97656, Note_on_c, 4, 69, 0
5, 97784, Note_on_c, 4, 72, 53
5, 97784, Note_on_c, 4, 69, 52
5, 97784, Note_on_c, 4, 77, 48
5, 97912, Note_on_c, 4, 69, 0
5, 97912, Note_on_c, 4, 72, 0
5, 98040, Note_on_c, 4, 77, 0
5, 98168, Note_on_c, 4, 77, 25
5, 98168, Note_on_c, 4, 69, 20
5, 98168, Note_on_c, 4, 72, 32
5, 98296, Note_on_c, 4, 72, 0
5, 98296, Note_on_c, 4, 77, 0
5, 98296, Note_on_c, 4, 69, 0
5, 98552, Note_on_c, 4, 72, 50
5, 98552, Note_on_c, 4, 77, 50
5, 98552, Note_on_c, 4, 69, 45
5, 98680, Note_on_c, 4, 69, 0
5, 98680, Note_on_c, 4, 72, 0
5, 98808, Note_on_c, 4, 77, 0
5, 98936, Note_on_c, 4, 67, 25
5, 98936, Note_on_c, 4, 74, 34
5, 98936, Note_on_c, 4, 70, 24
5, 99064, Note_on_c, 4, 74, 0
5, 99064, Note_on_c, 4, 67, 0
5, 99192, Note_on_c, 4, 70, 0
5, 99320, Note_on_c, 4, 74, 41
5, 99320, Note_on_c, 4, 70, 38
5, 99320, Note_on_c, 4, 67, 27
5, 99448, Note_on_c, 4, 67, 0
5, 99576, Note_on_c, 4, 70, 0
5, 99576, Note_on_c, 4, 74, 0
5, 99704, Note_on_c, 4, 74, 48
5, 99704, Note_on_c, 4, 75, 24
5, 99704, Note_on_c, 4, 67, 31
5, 99704, Note_on_c, 4, 67, 0
5, 99832, Note_on_c, 4, 74, 0
5, 99832, Note_on_c, 4, 75, 0
5, 100088, Note_on_c, 4, 74, 50
5, 100088, Note_on_c, 4, 75, 20
5, 100088, Note_on_c, 4, 67, 46
5, 100216, Note_on_c, 4, 67, 0
5, 100216, Note_on_c, 4, 74, 0
5, 100216, Note_on_c, 4, 75, 0
5, 100472, Note_on_c, 4, 74, 38
5, 100472, Note_on_c, 4, 75, 20
5, 100472, Note_on_c, 4, 67, 27
5, 100600, Note_on_c, 4, 67, 0
5, 100600, Note_on_c, 4, 74, 0
5, 100600, Note_on_c, 4, 75, 0
5, 100856, Note_on_c, 4, 74, 52
5, 100856, Note_on_c, 4, 75, 27
5, 100856, Note_on_c, 4, 67, 53
5, 100984, Note_on_c, 4, 67, 0
5, 100984, Note_on_c, 4, 74, 0
5, 101112, Note_on_c, 4, 75, 0
5, 101240, Note_on_c, 4, 77, 38
5, 101240, Note_on_c, 4, 72, 43
5, 101240, Note_on_c, 4, 66, 20
5, 101368, Note_on_c, 4, 66, 0
5, 101368, Note_on_c, 4, 77, 0
5, 101368, Note_on_c, 4, 72, 0
5, 101624, Note_on_c, 4, 66, 38
5, 101624, Note_on_c, 4, 75, 32
5, 101624, Note_on_c, 4, 72, 45
5, 101744, Note_on_c, 4, 72, 0
5, 101744, Note_on_c, 4, 75, 0
5, 101880, Note_on_c, 4, 66, 0
5, 102000, Note_on_c, 4, 66, 34
5, 102000, Note_on_c, 4, 74, 38
5, 102000, Note_on_c, 4, 70, 25
5, 102256, Note_on_c, 4, 74, 0
5, 102256, Note_on_c, 4, 70, 0
5, 102256, Note_on_c, 4, 66, 0
5, 102384, Note_on_c, 4, 66, 41
5, 102384, Note_on_c, 4, 69, 53
5, 102512, Note_on_c, 4, 69, 0
5, 102512, Note_on_c, 4, 66, 0
5, 102768, Note_on_c, 4, 72, 13
5, 102768, Note_on_c, 4, 65, 18
5, 102768, Note_on_c, 4, 69, 20
5, 102896, Note_on_c, 4, 69, 0
5, 102896, Note_on_c, 4, 72, 0
5, 102896, Note_on_c, 4, 65, 0
5, 103152, Note_on_c, 4, 72, 48
5, 103152, Note_on_c, 4, 69, 50
5, 103152, Note_on_c, 4, 65, 29
5, 103280, Note_on_c, 4, 65, 0
5, 103280, Note_on_c, 4, 72, 0
5, 103280, Note_on_c, 4, 69, 0
5, 103536, Note_on_c, 4, 70, 24
5, 103536, Note_on_c, 4, 65, 20
5, 103792, Note_on_c, 4, 65, 0
5, 103792, Note_on_c, 4, 70, 0
5, 103920, Note_on_c, 4, 70, 38
5, 103920, Note_on_c, 4, 65, 43
5, 104048, Note_on_c, 4, 65, 0
5, 104048, Note_on_c, 4, 70, 0
5, 104304, Note_on_c, 4, 69, 45
5, 104304, Note_on_c, 4, 70, 24
5, 104304, Note_on_c, 4, 77, 27
5, 104304, Note_on_c, 4, 74, 24
5, 104432, Note_on_c, 4, 74, 0
5, 104432, Note_on_c, 4, 77, 0
5, 104432, Note_on_c, 4, 69, 0
5, 104560, Note_on_c, 4, 70, 0
5, 104688, Note_on_c, 4, 70, 43
5, 104688, Note_on_c, 4, 74, 45
5, 104688, Note_on_c, 4, 69, 59
5, 104688, Note_on_c, 4, 77, 38
5, 104944, Note_on_c, 4, 77, 0
5, 104944, Note_on_c, 4, 69, 0
5, 104944, Note_on_c, 4, 70, 0
5, 104944, Note_on_c, 4, 74, 0
5, 105072, Note_on_c, 4, 76, 41
5, 105072, Note_on_c, 4, 70, 18
5, 105072, Note_on_c, 4, 67, 22
5, 105200, Note_on_c, 4, 67, 0
5, 105200, Note_on_c, 4, 76, 0
5, 105328, Note_on_c, 4, 70, 0
5, 105456, Note_on_c, 4, 70, 38
5, 105456, Note_on_c, 4, 76, 50
5, 105456, Note_on_c, 4, 67, 46
5, 105584, Note_on_c, 4, 76, 0
5, 105712, Note_on_c, 4, 70, 0
5, 105712, Note_on_c, 4, 67, 0
5, 105840, Note_on_c, 4, 75, 25
5, 105840, Note_on_c, 4, 67, 29
5, 105840, Note_on_c, 4, 67, 0
5, 105840, Note_on_c, 4, 74, 46
5, 105840, Note_on_c, 4, 74, 0
5, 105968, Note_on_c, 4, 75, 0
5, 106224, Note_on_c, 4, 75, 43
5, 106224, Note_on_c, 4, 74, 53
5, 106224, Note_on_c, 4, 67, 53
5, 106352, Note_on_c, 4, 67, 0
5, 106352, Note_on_c, 4, 75, 0
5, 106352, Note_on_c, 4, 74, 0
5, 106608, Note_on_c, 4, 75, 24
5, 106608, Note_on_c, 4, 74, 46
5, 106608, Note_on_c, 4, 67, 38
5, 106736, Note_on_c, 4, 67, 0
5, 106736, Note_on_c, 4, 75, 0
5, 106864, Note_on_c, 4, 74, 0
5, 106992, Note_on_c, 4, 74, 52
5, 106992, Note_on_c, 4, 75, 43
5, 106992, Note_on_c, 4, 67, 50
5, 107120, Note_on_c, 4, 67, 0
5, 107120, Note_on_c, 4, 75, 0
5, 107248, Note_on_c, 4, 74, 0
5, 107376, Note_on_c, 4, 75, 39
5, 107376, Note_on_c, 4, 66, 38
5, 107376, Note_on_c, 4, 72, 43
5, 107504, Note_on_c, 4, 72, 0
5, 107504, Note_on_c, 4, 75, 0
5, 107504, Note_on_c, 4, 66, 0
5, 107760, Note_on_c, 4, 75, 50
5, 107760, Note_on_c, 4, 66, 52
5, 107760, Note_on_c, 4, 72, 38
5, 107760, Note_on_c, 4, 72, 0
5, 107760, Note_on_c, 4, 72, 12
5, 107880, Note_on_c, 4, 72, 0
5, 108008, Note_on_c, 4, 66, 0
5, 108008, Note_on_c, 4, 75, 0
5, 108144, Note_on_c, 4, 66, 31
5, 108144, Note_on_c, 4, 74, 43
5, 108144, Note_on_c, 4, 72, 24
5, 108144, Note_on_c, 4, 72, 0
5, 108272, Note_on_c, 4, 66, 0
5, 108272, Note_on_c, 4, 74, 0
5, 108520, Note_on_c, 4, 66, 45
5, 108520, Note_on_c, 4, 72, 38
5, 108520, Note_on_c, 4, 74, 41
5, 108648, Note_on_c, 4, 74, 0
5, 108648, Note_on_c, 4, 66, 0
5, 108648, Note_on_c, 4, 72, 0
5, 108904, Note_on_c, 4, 72, 36
5, 108904, Note_on_c, 4, 69, 48
5, 109032, Note_on_c, 4, 69, 0
5, 109032, Note_on_c, 4, 72, 0
5, 109288, Note_on_c, 4, 69, 59
5, 109288, Note_on_c, 4, 72, 50
5, 109416, Note_on_c, 4, 72, 0
5, 109416, Note_on_c, 4, 69, 0
5, 109672, Note_on_c, 4, 70, 22
5, 109672, Note_on_c, 4, 67, 20
5, 109800, Note_on_c, 4, 67, 0
5, 109928, Note_on_c, 4, 70, 0
5, 110056, Note_on_c, 4, 69, 52
5, 110056, Note_on_c, 4, 72, 43
5, 110184, Note_on_c, 4, 72, 0
5, 110184, Note_on_c, 4, 69, 0
5, 110440, Note_on_c, 4, 72, 43
5, 110440, Note_on_c, 4, 69, 53
5, 110696, Note_on_c, 4, 69, 0
5, 110696, Note_on_c, 4, 72, 0
5, 110824, Note_on_c, 4, 70, 27
5, 110824, Note_on_c, 4, 67, 27
5, 110952, Note_on_c, 4, 67, 0
5, 111080, Note_on_c, 4, 70, 0
5, 111208, Note_on_c, 4, 69, 57
5, 111208, Note_on_c, 4, 72, 43
5, 111336, Note_on_c, 4, 72, 0
5, 111336, Note_on_c, 4, 69, 0
5, 111592, Note_on_c, 4, 69, 57
5, 111592, Note_on_c, 4, 72, 43
5, 111720, Note_on_c, 4, 72, 0
5, 111720, Note_on_c, 4, 69, 0
5, 111976, Note_on_c, 4, 75, 57
5, 111976, Note_on_c, 4, 85, 46
5, 111976, Note_on_c, 4, 59, 60
5, 111976, Note_on_c, 4, 80, 48
5, 112104, Note_on_c, 4, 80, 0
5, 112104, Note_on_c, 4, 59, 0
5, 112104, Note_on_c, 4, 75, 0
5, 112104, Note_on_c, 4, 85, 0
5, 112616, Note_on_c, 4, 85, 52
5, 112616, Note_on_c, 4, 75, 56
5, 112616, Note_on_c, 4, 80, 50
5, 112616, Note_on_c, 4, 59, 55
5, 113000, Note_on_c, 4, 75, 0
5, 113128, Note_on_c, 4, 59, 0
5, 113128, Note_on_c, 4, 85, 0
5, 113128, Note_on_c, 4, 80, 0
5, 113128, Note_on_c, 4, 75, 17
5, 113128, Note_on_c, 4, 75, 0
5, 113512, Note_on_c, 4, 75, 54
5, 113512, Note_on_c, 4, 75, 0
5, 113512, Note_on_c, 4, 85, 45
5, 113512, Note_on_c, 4, 85, 0
5, 113512, Note_on_c, 4, 80, 34
5, 113512, Note_on_c, 4, 80, 0
5, 113512, Note_on_c, 4, 59, 40
5, 113512, Note_on_c, 4, 59, 0
5, 114144, Note_on_c, 4, 85, 65
5, 114144, Note_on_c, 4, 75, 71
5, 114144, Note_on_c, 4, 80, 60
5, 114144, Note_on_c, 4, 59, 59
5, 114528, Note_on_c, 4, 75, 0
5, 114656, Note_on_c, 4, 59, 0
5, 114656, Note_on_c, 4, 85, 0
5, 114656, Note_on_c, 4, 80, 0
5, 114656, Note_on_c, 4, 75, 19
5, 114656, Note_on_c, 4, 75, 0
5, 114656, Note_on_c, 4, 81, 40
5, 114656, Note_on_c, 4, 81, 0
5, 115040, Note_on_c, 4, 81, 56
5, 115040, Note_on_c, 4, 86, 34
5, 115040, Note_on_c, 4, 82, 33
5, 115040, Note_on_c, 4, 67, 36
5, 115040, Note_on_c, 4, 67, 0
5, 115168, Note_on_c, 4, 82, 0
5, 115168, Note_on_c, 4, 81, 0
5, 115168, Note_on_c, 4, 86, 0
5, 115680, Note_on_c, 4, 81, 106
5, 115680, Note_on_c, 4, 82, 59
5, 115680, Note_on_c, 4, 86, 73
5, 115680, Note_on_c, 4, 67, 57
5, 116192, Note_on_c, 4, 86, 0
5, 116192, Note_on_c, 4, 82, 0
5, 116192, Note_on_c, 4, 81, 0
5, 116192, Note_on_c, 4, 62, 25
5, 116192, Note_on_c, 4, 79, 19
5, 116320, Note_on_c, 4, 79, 0
5, 116320, Note_on_c, 4, 62, 0
5, 116448, Note_on_c, 4, 67, 0
5, 116576, Note_on_c, 4, 69, 24
5, 116576, Note_on_c, 4, 69, 0
5, 116576, Note_on_c, 4, 55, 25
5, 116576, Note_on_c, 4, 55, 0
5, 116576, Note_on_c, 4, 70, 27
5, 116576, Note_on_c, 4, 74, 29
5, 116576, Note_on_c, 4, 74, 0
5, 116704, Note_on_c, 4, 70, 0
5, 117216, Note_on_c, 4, 70, 44
5, 117216, Note_on_c, 4, 69, 47
5, 117216, Note_on_c, 4, 74, 55
5, 117216, Note_on_c, 4, 55, 40
5, 117600, Note_on_c, 4, 69, 0
5, 117600, Note_on_c, 4, 70, 0
5, 117728, Note_on_c, 4, 70, 0
5, 117728, Note_on_c, 4, 74, 0
5, 117728, Note_on_c, 4, 70, 38
5, 118112, Note_on_c, 4, 55, 0
5, 118112, Note_on_c, 4, 75, 32
5, 118112, Note_on_c, 4, 85, 32
5, 118112, Note_on_c, 4, 80, 33
5, 118112, Note_on_c, 4, 59, 26
5, 118240, Note_on_c, 4, 59, 0
5, 118240, Note_on_c, 4, 80, 0
5, 118240, Note_on_c, 4, 75, 0
5, 118240, Note_on_c, 4, 85, 0
5, 118752, Note_on_c, 4, 85, 57
5, 118752, Note_on_c, 4, 75, 59
5, 118752, Note_on_c, 4, 80, 56
5, 118752, Note_on_c, 4, 59, 59
5, 119136, Note_on_c, 4, 75, 0
5, 119264, Note_on_c, 4, 59, 0
5, 119264, Note_on_c, 4, 85, 0
5, 119264, Note_on_c, 4, 80, 0
5, 119264, Note_on_c, 4, 75, 18
5, 119264, Note_on_c, 4, 75, 0
5, 119640, Note_on_c, 4, 75, 35
5, 119640, Note_on_c, 4, 59, 34
5, 119640, Note_on_c, 4, 85, 31
5, 119640, Note_on_c, 4, 80, 32
5, 119768, Note_on_c, 4, 80, 0
5, 119768, Note_on_c, 4, 85, 0
5, 119768, Note_on_c, 4, 75, 0
5, 119768, Note_on_c, 4, 59, 0
5, 120280, Note_on_c, 4, 85, 63
5, 120280, Note_on_c, 4, 75, 71
5, 120280, Note_on_c, 4, 80, 61
5, 120280, Note_on_c, 4, 59, 61
5, 120920, Note_on_c, 4, 80, 0
5, 120920, Note_on_c, 4, 75, 0
5, 120920, Note_on_c, 4, 85, 0
5, 121176, Note_on_c, 4, 59, 0
5, 121176, Note_on_c, 4, 55, 29
5, 121176, Note_on_c, 4, 86, 28
5, 121176, Note_on_c, 4, 81, 20
5, 121176, Note_on_c, 4, 76, 9
5, 121304, Note_on_c, 4, 81, 0
5, 121304, Note_on_c, 4, 76, 0
5, 121304, Note_on_c, 4, 55, 0
5, 121304, Note_on_c, 4, 86, 0
5, 121816, Note_on_c, 4, 81, 49
5, 121816, Note_on_c, 4, 76, 49
5, 121816, Note_on_c, 4, 86, 51
5, 121816, Note_on_c, 4, 55, 48
5, 122328, Note_on_c, 4, 55, 0
5, 122328, Note_on_c, 4, 86, 0
5, 122328, Note_on_c, 4, 76, 0
5, 122328, Note_on_c, 4, 81, 0
5, 122712, Note_on_c, 4, 79, 79
5, 122712, Note_on_c, 4, 75, 49
5, 122712, Note_on_c, 4, 72, 79
5, 122712, Note_on_c, 4, 68, 69
5, 122712, Note_on_c, 4, 53, 63
5, 122968, Note_on_c, 4, 53, 0
5, 122968, Note_on_c, 4, 68, 0
5, 122968, Note_on_c, 4, 72, 0
5, 123096, Note_on_c, 4, 79, 0
5, 123096, Note_on_c, 4, 75, 0
5, 123352, Note_on_c, 4, 77, 73
5, 123352, Note_on_c, 4, 74, 79
5, 123352, Note_on_c, 4, 68, 84
5, 123352, Note_on_c, 4, 58, 65
5, 123736, Note_on_c, 4, 68, 0
5, 123864, Note_on_c, 4, 58, 0
5, 123864, Note_on_c, 4, 74, 0
5, 123864, Note_on_c, 4, 68, 24
5, 123992, Note_on_c, 4, 68, 0
5, 123992, Note_on_c, 4, 77, 0
5, 124248, Note_on_c, 4, 77, 41
5, 124248, Note_on_c, 4, 74, 44
5, 124248, Note_on_c, 4, 51, 51
5, 124248, Note_on_c, 4, 67, 47
5, 124248, Note_on_c, 4, 67, 0
5, 124376, Note_on_c, 4, 51, 0
5, 124376, Note_on_c, 4, 77, 0
5, 124376, Note_on_c, 4, 74, 0
5, 124888, Note_on_c, 4, 77, 66
5, 124888, Note_on_c, 4, 70, 62
5, 124888, Note_on_c, 4, 74, 48
5, 124888, Note_on_c, 4, 67, 59
5, 124888, Note_on_c, 4, 51, 64
5, 124888, Note_on_c, 4, 69, 21
5, 124888, Note_on_c, 4, 69, 0
5, 125144, Note_on_c, 4, 74, 0
5, 125272, Note_on_c, 4, 67, 0
5, 125272, Note_on_c, 4, 70, 0
5, 125400, Note_on_c, 4, 77, 0
5, 125400, Note_on_c, 4, 51, 0
5, 125400, Note_on_c, 4, 74, 24
5, 125400, Note_on_c, 4, 74, 0
5, 125776, Note_on_c, 4, 82, 65
5, 125776, Note_on_c, 4, 77, 69
5, 125776, Note_on_c, 4, 74, 75
5, 125776, Note_on_c, 4, 74, 0
5, 125776, Note_on_c, 4, 79, 48
5, 125776, Note_on_c, 4, 51, 55
5, 125904, Note_on_c, 4, 51, 0
5, 125904, Note_on_c, 4, 79, 0
5, 125904, Note_on_c, 4, 77, 0
5, 125904, Note_on_c, 4, 82, 0
5, 126416, Note_on_c, 4, 77, 84
5, 126416, Note_on_c, 4, 82, 62
5, 126416, Note_on_c, 4, 74, 77
5, 126416, Note_on_c, 4, 79, 58
5, 126416, Note_on_c, 4, 51, 57
5, 126800, Note_on_c, 4, 51, 0
5, 126800, Note_on_c, 4, 74, 0
5, 126800, Note_on_c, 4, 77, 0
5, 126928, Note_on_c, 4, 79, 0
5, 126928, Note_on_c, 4, 82, 0
5, 126928, Note_on_c, 4, 77, 48
5, 126928, Note_on_c, 4, 77, 0
5, 127312, Note_on_c, 4, 78, 71
5, 127312, Note_on_c, 4, 82, 56
5, 127312, Note_on_c, 4, 89, 73
5, 127312, Note_on_c, 4, 62, 60
5, 127312, Note_on_c, 4, 72, 57
5, 127312, Note_on_c, 4, 84, 40
5, 127312, Note_on_c, 4, 87, 18
5, 127440, Note_on_c, 4, 87, 0
5, 127440, Note_on_c, 4, 62, 0
5, 127440, Note_on_c, 4, 84, 0
5, 127440, Note_on_c, 4, 89, 0
5, 127440, Note_on_c, 4, 72, 0
5, 127440, Note_on_c, 4, 78, 0
5, 127440, Note_on_c, 4, 82, 0
5, 127952, Note_on_c, 4, 87, 71
5, 127952, Note_on_c, 4, 78, 77
5, 127952, Note_on_c, 4, 82, 60
5, 127952, Note_on_c, 4, 84, 59
5, 127952, Note_on_c, 4, 72, 79
5, 127952, Note_on_c, 4, 72, 0
5, 127952, Note_on_c, 4, 62, 71
5, 128080, Note_on_c, 4, 72, 14
5, 128336, Note_on_c, 4, 78, 0
5, 128464, Note_on_c, 4, 84, 0
5, 128464, Note_on_c, 4, 82, 0
5, 128464, Note_on_c, 4, 87, 0
5, 128464, Note_on_c, 4, 78, 22
5, 128592, Note_on_c, 4, 78, 0
5, 128592, Note_on_c, 4, 72, 0
5, 128592, Note_on_c, 4, 62, 0
5, 128848, Note_on_c, 4, 78, 49
5, 128848, Note_on_c, 4, 86, 57
5, 128848, Note_on_c, 4, 76, 57
5, 128848, Note_on_c, 4, 72, 45
5, 128848, Note_on_c, 4, 72, 0
5, 128848, Note_on_c, 4, 62, 49
5, 128848, Note_on_c, 4, 81, 19
5, 128976, Note_on_c, 4, 81, 0
5, 128976, Note_on_c, 4, 76, 0
5, 128976, Note_on_c, 4, 62, 0
5, 128976, Note_on_c, 4, 86, 0
5, 128976, Note_on_c, 4, 78, 0
5, 129488, Note_on_c, 4, 78, 84
5, 129488, Note_on_c, 4, 84, 75
5, 129488, Note_on_c, 4, 81, 63
5, 129488, Note_on_c, 4, 76, 88
5, 129488, Note_on_c, 4, 62, 62
5, 129488, Note_on_c, 4, 72, 64
5, 129872, Note_on_c, 4, 72, 0
5, 129872, Note_on_c, 4, 78, 0
5, 129872, Note_on_c, 4, 76, 0
5, 130000, Note_on_c, 4, 62, 0
5, 130000, Note_on_c, 4, 84, 0
5, 130000, Note_on_c, 4, 76, 0
5, 130000, Note_on_c, 4, 81, 0
5, 130000, Note_on_c, 4, 69, 16
5, 130000, Note_on_c, 4, 69, 0
5, 130000, Note_on_c, 4, 78, 55
5, 130000, Note_on_c, 4, 78, 0
5, 130000, Note_on_c, 4, 76, 31
5, 130384, Note_on_c, 4, 81, 84
5, 130384, Note_on_c, 4, 70, 69
5, 130384, Note_on_c, 4, 55, 69
5, 130384, Note_on_c, 4, 74, 79
5, 130384, Note_on_c, 4, 77, 41
5, 130512, Note_on_c, 4, 77, 0
5, 130512, Note_on_c, 4, 70, 0
5, 130512, Note_on_c, 4, 74, 0
5, 130512, Note_on_c, 4, 55, 0
5, 130512, Note_on_c, 4, 81, 0
5, 131024, Note_on_c, 4, 70, 66
5, 131024, Note_on_c, 4, 74, 75
5, 131024, Note_on_c, 4, 79, 64
5, 131024, Note_on_c, 4, 55, 83
5, 131400, Note_on_c, 4, 70, 0
5, 131528, Note_on_c, 4, 79, 0
5, 131528, Note_on_c, 4, 74, 0
5, 131528, Note_on_c, 4, 70, 18
5, 131656, Note_on_c, 4, 55, 0
5, 131656, Note_on_c, 4, 70, 0
5, 131912, Note_on_c, 4, 70, 32
5, 131912, Note_on_c, 4, 69, 39
5, 131912, Note_on_c, 4, 69, 0
5, 131912, Note_on_c, 4, 55, 40
5, 131912, Note_on_c, 4, 74, 32
5, 131912, Note_on_c, 4, 74, 0
5, 132048, Note_on_c, 4, 70, 0
5, 132048, Note_on_c, 4, 55, 0
5, 132552, Note_on_c, 4, 70, 67
5, 132552, Note_on_c, 4, 74, 64
5, 132552, Note_on_c, 4, 69, 94
5, 132552, Note_on_c, 4, 55, 67
5, 132936, Note_on_c, 4, 69, 0
5, 132936, Note_on_c, 4, 70, 0
5, 133064, Note_on_c, 4, 55, 0
5, 133064, Note_on_c, 4, 70, 0
5, 133064, Note_on_c, 4, 74, 0
5, 133064, Note_on_c, 4, 62, 31
5, 133064, Note_on_c, 4, 62, 0
5, 133064, Note_on_c, 4, 70, 26
5, 133448, Note_on_c, 4, 86, 102
5, 133448, Note_on_c, 4, 82, 90
5, 133448, Note_on_c, 4, 77, 109
5, 133448, Note_on_c, 4, 70, 65
5, 133448, Note_on_c, 4, 60, 75
5, 133576, Note_on_c, 4, 60, 0
5, 133704, Note_on_c, 4, 77, 0
5, 133704, Note_on_c, 4, 70, 0
5, 133704, Note_on_c, 4, 86, 0
5, 133704, Note_on_c, 4, 82, 0
5, 134088, Note_on_c, 4, 70, 73
5, 134088, Note_on_c, 4, 82, 88
5, 134088, Note_on_c, 4, 86, 96
5, 134088, Note_on_c, 4, 77, 104
5, 134088, Note_on_c, 4, 60, 75
5, 134088, Note_on_c, 4, 80, 30
5, 134088, Note_on_c, 4, 80, 0
5, 134600, Note_on_c, 4, 60, 0
5, 134600, Note_on_c, 4, 86, 0
5, 134600, Note_on_c, 4, 77, 0
5, 134600, Note_on_c, 4, 70, 0
5, 134600, Note_on_c, 4, 82, 0
5, 134600, Note_on_c, 4, 77, 21
5, 134600, Note_on_c, 4, 77, 0
5, 134984, Note_on_c, 4, 81, 81
5, 134984, Note_on_c, 4, 70, 66
5, 134984, Note_on_c, 4, 74, 69
5, 134984, Note_on_c, 4, 76, 64
5, 134984, Note_on_c, 4, 60, 59
5, 134984, Note_on_c, 4, 69, 81
5, 135240, Note_on_c, 4, 69, 0
5, 135240, Note_on_c, 4, 60, 0
5, 135240, Note_on_c, 4, 70, 0
5, 135240, Note_on_c, 4, 74, 0
5, 135240, Note_on_c, 4, 76, 0
5, 135240, Note_on_c, 4, 81, 0
5, 135624, Note_on_c, 4, 70, 77
5, 135624, Note_on_c, 4, 79, 61
5, 135624, Note_on_c, 4, 73, 69
5, 135624, Note_on_c, 4, 76, 64
5, 135624, Note_on_c, 4, 67, 81
5, 135624, Note_on_c, 4, 60, 88
5, 136136, Note_on_c, 4, 60, 0
5, 136136, Note_on_c, 4, 67, 0
5, 136136, Note_on_c, 4, 73, 0
5, 136136, Note_on_c, 4, 79, 0
5, 136136, Note_on_c, 4, 75, 57
5, 136136, Note_on_c, 4, 85, 46
5, 136136, Note_on_c, 4, 59, 60
5, 136136, Note_on_c, 4, 80, 48
5, 136264, Note_on_c, 4, 80, 0
5, 136264, Note_on_c, 4, 59, 0
5, 136264, Note_on_c, 4, 75, 0
5, 136264, Note_on_c, 4, 85, 0
5, 136520, Note_on_c, 4, 74, 60
5, 136520, Note_on_c, 4, 75, 38
5, 136520, Note_on_c, 4, 75, 0
5, 136520, Note_on_c, 4, 67, 57
5, 136520, Note_on_c, 4, 67, 0
5, 136648, Note_on_c, 4, 74, 0
5, 136904, Note_on_c, 4, 75, 38
5, 136904, Note_on_c, 4, 74, 59
5, 136904, Note_on_c, 4, 67, 57
5, 136904, Note_on_c, 4, 67, 0
5, 137024, Note_on_c, 4, 74, 0
5, 137024, Note_on_c, 4, 75, 0
5, 137288, Note_on_c, 4, 75, 36
5, 137288, Note_on_c, 4, 74, 53
5, 137288, Note_on_c, 4, 67, 53
5, 137416, Note_on_c, 4, 67, 0
5, 137416, Note_on_c, 4, 74, 0
5, 137416, Note_on_c, 4, 75, 0
5, 137664, Note_on_c, 4, 74, 55
5, 137664, Note_on_c, 4, 67, 62
5, 137664, Note_on_c, 4, 75, 38
5, 137792, Note_on_c, 4, 75, 0
5, 137792, Note_on_c, 4, 67, 0
5, 137792, Note_on_c, 4, 74, 0
5, 138048, Note_on_c, 4, 75, 41
5, 138048, Note_on_c, 4, 66, 43
5, 138048, Note_on_c, 4, 72, 48
5, 138176, Note_on_c, 4, 72, 0
5, 138176, Note_on_c, 4, 66, 0
5, 138176, Note_on_c, 4, 75, 0
5, 138432, Note_on_c, 4, 66, 59
5, 138432, Note_on_c, 4, 75, 50
5, 138432, Note_on_c, 4, 72, 62
5, 138560, Note_on_c, 4, 72, 0
5, 138560, Note_on_c, 4, 75, 0
5, 138560, Note_on_c, 4, 66, 0
5, 138816, Note_on_c, 4, 66, 53
5, 138816, Note_on_c, 4, 75, 50
5, 138816, Note_on_c, 4, 70, 38
5, 138944, Note_on_c, 4, 75, 0
5, 138944, Note_on_c, 4, 66, 0
5, 139072, Note_on_c, 4, 70, 0
5, 139200, Note_on_c, 4, 75, 46
5, 139200, Note_on_c, 4, 66, 46
5, 139200, Note_on_c, 4, 70, 43
5, 139328, Note_on_c, 4, 66, 0
5, 139328, Note_on_c, 4, 75, 0
5, 139456, Note_on_c, 4, 70, 0
5, 139584, Note_on_c, 4, 72, 53
5, 139584, Note_on_c, 4, 69, 64
5, 139712, Note_on_c, 4, 69, 0
5, 139712, Note_on_c, 4, 72, 0
5, 139968, Note_on_c, 4, 69, 79
5, 139968, Note_on_c, 4, 72, 67
5, 140096, Note_on_c, 4, 72, 0
5, 140096, Note_on_c, 4, 69, 0
5, 140352, Note_on_c, 4, 70, 22
5, 140352, Note_on_c, 4, 67, 31
5, 140480, Note_on_c, 4, 67, 0
5, 140608, Note_on_c, 4, 70, 0
5, 140736, Note_on_c, 4, 70, 48
5, 140736, Note_on_c, 4, 67, 52
5, 140864, Note_on_c, 4, 67, 0
5, 140864, Note_on_c, 4, 70, 0
5, 141120, Note_on_c, 4, 69, 62
5, 141120, Note_on_c, 4, 72, 46
5, 141248, Note_on_c, 4, 72, 0
5, 141248, Note_on_c, 4, 69, 0
5, 141504, Note_on_c, 4, 69, 78
5, 141504, Note_on_c, 4, 72, 59
5, 141632, Note_on_c, 4, 72, 0
5, 141632, Note_on_c, 4, 69, 0
5, 141888, Note_on_c, 4, 70, 46
5, 141888, Note_on_c, 4, 67, 50
5, 142016, Note_on_c, 4, 67, 0
5, 142016, Note_on_c, 4, 70, 0
5, 142272, Note_on_c, 4, 70, 48
5, 142272, Note_on_c, 4, 67, 53
5, 142272, Note_on_c, 4, 67, 0
5, 142400, Note_on_c, 4, 70, 0
5, 142656, Note_on_c, 4, 75, 45
5, 142656, Note_on_c, 4, 75, 0
5, 142656, Note_on_c, 4, 74, 55
5, 142656, Note_on_c, 4, 74, 0
5, 142656, Note_on_c, 4, 67, 55
5, 142656, Note_on_c, 4, 74, 12
5, 142656, Note_on_c, 4, 74, 0
5, 142784, Note_on_c, 4, 67, 0
5, 143040, Note_on_c, 4, 75, 31
5, 143040, Note_on_c, 4, 74, 48
5, 143040, Note_on_c, 4, 67, 41
5, 143040, Note_on_c, 4, 67, 0
5, 143168, Note_on_c, 4, 74, 0
5, 143168, Note_on_c, 4, 75, 0
5, 143416, Note_on_c, 4, 75, 27
5, 143416, Note_on_c, 4, 74, 38
5, 143416, Note_on_c, 4, 67, 31
5, 143544, Note_on_c, 4, 67, 0
5, 143544, Note_on_c, 4, 74, 0
5, 143544, Note_on_c, 4, 75, 0
5, 143800, Note_on_c, 4, 75, 32
5, 143800, Note_on_c, 4, 74, 41
5, 143800, Note_on_c, 4, 67, 50
5, 143928, Note_on_c, 4, 67, 0
5, 143928, Note_on_c, 4, 74, 0
5, 143928, Note_on_c, 4, 75, 0
5, 144184, Note_on_c, 4, 75, 39
5, 144184, Note_on_c, 4, 66, 48
5, 144184, Note_on_c, 4, 72, 41
5, 144312, Note_on_c, 4, 72, 0
5, 144312, Note_on_c, 4, 66, 0
5, 144312, Note_on_c, 4, 75, 0
5, 144568, Note_on_c, 4, 75, 45
5, 144568, Note_on_c, 4, 66, 48
5, 144568, Note_on_c, 4, 72, 48
5, 144696, Note_on_c, 4, 72, 0
5, 144824, Note_on_c, 4, 66, 0
5, 144824, Note_on_c, 4, 75, 0
5, 144952, Note_on_c, 4, 75, 38
5, 144952, Note_on_c, 4, 66, 27
5, 144952, Note_on_c, 4, 70, 25
5, 145080, Note_on_c, 4, 66, 0
5, 145080, Note_on_c, 4, 75, 0
5, 145208, Note_on_c, 4, 70, 0
5, 145336, Note_on_c, 4, 66, 48
5, 145336, Note_on_c, 4, 75, 39
5, 145336, Note_on_c, 4, 70, 36
5, 145464, Note_on_c, 4, 75, 0
5, 145464, Note_on_c, 4, 66, 0
5, 145592, Note_on_c, 4, 70, 0
5, 145720, Note_on_c, 4, 65, 32
5, 145720, Note_on_c, 4, 72, 36
5, 145720, Note_on_c, 4, 69, 18
5, 145848, Note_on_c, 4, 69, 0
5, 145848, Note_on_c, 4, 72, 0
5, 145848, Note_on_c, 4, 65, 0
5, 146104, Note_on_c, 4, 72, 48
5, 146104, Note_on_c, 4, 65, 43
5, 146104, Note_on_c, 4, 69, 25
5, 146232, Note_on_c, 4, 69, 0
5, 146232, Note_on_c, 4, 65, 0
5, 146232, Note_on_c, 4, 72, 0
5, 146488, Note_on_c, 4, 77, 45
5, 146488, Note_on_c, 4, 72, 43
5, 146488, Note_on_c, 4, 69, 38
5, 146616, Note_on_c, 4, 77, 0
5, 146744, Note_on_c, 4, 69, 0
5, 146744, Note_on_c, 4, 72, 0
5, 146872, Note_on_c, 4, 72, 53
5, 146872, Note_on_c, 4, 69, 52
5, 146872, Note_on_c, 4, 77, 48
5, 147000, Note_on_c, 4, 69, 0
5, 147000, Note_on_c, 4, 72, 0
5, 147128, Note_on_c, 4, 77, 0
5, 147256, Note_on_c, 4, 77, 25
5, 147256, Note_on_c, 4, 69, 20
5, 147256, Note_on_c, 4, 72, 32
5, 147384, Note_on_c, 4, 72, 0
5, 147384, Note_on_c, 4, 69, 0
5, 147384, Note_on_c, 4, 77, 0
5, 147640, Note_on_c, 4, 72, 50
5, 147640, Note_on_c, 4, 77, 50
5, 147640, Note_on_c, 4, 69, 45
5, 147768, Note_on_c, 4, 69, 0
5, 147768, Note_on_c, 4, 72, 0
5, 147896, Note_on_c, 4, 77, 0
5, 148024, Note_on_c, 4, 67, 25
5, 148024, Note_on_c, 4, 74, 34
5, 148024, Note_on_c, 4, 70, 24
5, 148152, Note_on_c, 4, 74, 0
5, 148152, Note_on_c, 4, 67, 0
5, 148280, Note_on_c, 4, 70, 0
5, 148408, Note_on_c, 4, 74, 41
5, 148408, Note_on_c, 4, 70, 38
5, 148408, Note_on_c, 4, 67, 27
5, 148536, Note_on_c, 4, 67, 0
5, 148664, Note_on_c, 4, 74, 0
5, 148664, Note_on_c, 4, 70, 0
5, 148792, Note_on_c, 4, 74, 48
5, 148792, Note_on_c, 4, 75, 24
5, 148792, Note_on_c, 4, 67, 31
5, 148792, Note_on_c, 4, 67, 0
5, 148912, Note_on_c, 4, 75, 0
5, 148912, Note_on_c, 4, 74, 0
5, 149168, Note_on_c, 4, 74, 50
5, 149168, Note_on_c, 4, 75, 20
5, 149168, Note_on_c, 4, 67, 46
5, 149296, Note_on_c, 4, 67, 0
5, 149296, Note_on_c, 4, 75, 0
5, 149296, Note_on_c, 4, 74, 0
5, 149560, Note_on_c, 4, 74, 38
5, 149560, Note_on_c, 4, 75, 20
5, 149560, Note_on_c, 4, 67, 27
5, 149680, Note_on_c, 4, 67, 0
5, 149680, Note_on_c, 4, 75, 0
5, 149680, Note_on_c, 4, 74, 0
5, 149936, Note_on_c, 4, 74, 52
5, 149936, Note_on_c, 4, 75, 27
5, 149936, Note_on_c, 4, 67, 53
5, 150064, Note_on_c, 4, 67, 0
5, 150064, Note_on_c, 4, 74, 0
5, 150192, Note_on_c, 4, 75, 0
5, 150320, Note_on_c, 4, 77, 38
5, 150320, Note_on_c, 4, 72, 43
5, 150320, Note_on_c, 4, 66, 20
5, 150448, Note_on_c, 4, 66, 0
5, 150448, Note_on_c, 4, 72, 0
5, 150448, Note_on_c, 4, 77, 0
5, 150704, Note_on_c, 4, 66, 38
5, 150704, Note_on_c, 4, 75, 32
5, 150704, Note_on_c, 4, 72, 45
5, 150832, Note_on_c, 4, 72, 0
5, 150832, Note_on_c, 4, 75, 0
5, 150960, Note_on_c, 4, 66, 0
5, 151088, Note_on_c, 4, 66, 34
5, 151088, Note_on_c, 4, 74, 38
5, 151088, Note_on_c, 4, 70, 25
5, 151344, Note_on_c, 4, 74, 0
5, 151344, Note_on_c, 4, 66, 0
5, 151344, Note_on_c, 4, 70, 0
5, 151472, Note_on_c, 4, 66, 41
5, 151472, Note_on_c, 4, 69, 53
5, 151600, Note_on_c, 4, 69, 0
5, 151600, Note_on_c, 4, 66, 0
5, 151856, Note_on_c, 4, 72, 13
5, 151856, Note_on_c, 4, 65, 18
5, 151856, Note_on_c, 4, 69, 20
5, 151984, Note_on_c, 4, 69, 0
5, 151984, Note_on_c, 4, 65, 0
5, 151984, Note_on_c, 4, 72, 0
5, 152240, Note_on_c, 4, 72, 48
5, 152240, Note_on_c, 4, 69, 50
5, 152240, Note_on_c, 4, 65, 29
5, 152368, Note_on_c, 4, 65, 0
5, 152368, Note_on_c, 4, 69, 0
5, 152368, Note_on_c, 4, 72, 0
5, 152624, Note_on_c, 4, 70, 24
5, 152624, Note_on_c, 4, 65, 20
5, 152880, Note_on_c, 4, 65, 0
5, 152880, Note_on_c, 4, 70, 0
5, 153008, Note_on_c, 4, 70, 38
5, 153008, Note_on_c, 4, 65, 43
5, 153136, Note_on_c, 4, 65, 0
5, 153136, Note_on_c, 4, 70, 0
5, 153392, Note_on_c, 4, 69, 45
5, 153392, Note_on_c, 4, 70, 24
5, 153392, Note_on_c, 4, 77, 27
5, 153392, Note_on_c, 4, 74, 24
5, 153520, Note_on_c, 4, 74, 0
5, 153520, Note_on_c, 4, 77, 0
5, 153520, Note_on_c, 4, 69, 0
5, 153648, Note_on_c, 4, 70, 0
5, 153776, Note_on_c, 4, 70, 43
5, 153776, Note_on_c, 4, 74, 45
5, 153776, Note_on_c, 4, 69, 59
5, 153776, Note_on_c, 4, 77, 38
5, 154032, Note_on_c, 4, 77, 0
5, 154032, Note_on_c, 4, 69, 0
5, 154032, Note_on_c, 4, 70, 0
5, 154032, Note_on_c, 4, 74, 0
5, 154160, Note_on_c, 4, 76, 41
5, 154160, Note_on_c, 4, 70, 18
5, 154160, Note_on_c, 4, 67, 22
5, 154288, Note_on_c, 4, 67, 0
5, 154288, Note_on_c, 4, 76, 0
5, 154416, Note_on_c, 4, 70, 0
5, 154544, Note_on_c, 4, 70, 38
5, 154544, Note_on_c, 4, 76, 50
5, 154544, Note_on_c, 4, 67, 46
5, 154672, Note_on_c, 4, 76, 0
5, 154792, Note_on_c, 4, 67, 0
5, 154792, Note_on_c, 4, 70, 0
5, 154920, Note_on_c, 4, 75, 25
5, 154920, Note_on_c, 4, 67, 29
5, 154920, Note_on_c, 4, 67, 0
5, 154920, Note_on_c, 4, 74, 46
5, 154920, Note_on_c, 4, 74, 0
5, 155048, Note_on_c, 4, 75, 0
5, 155304, Note_on_c, 4, 75, 43
5, 155304, Note_on_c, 4, 74, 53
5, 155304, Note_on_c, 4, 67, 53
5, 155432, Note_on_c, 4, 67, 0
5, 155432, Note_on_c, 4, 74, 0
5, 155432, Note_on_c, 4, 75, 0
5, 155688, Note_on_c, 4, 75, 24
5, 155688, Note_on_c, 4, 74, 46
5, 155688, Note_on_c, 4, 67, 38
5, 155816, Note_on_c, 4, 67, 0
5, 155816, Note_on_c, 4, 75, 0
5, 155944, Note_on_c, 4, 74, 0
5, 156072, Note_on_c, 4, 74, 52
5, 156072, Note_on_c, 4, 75, 43
5, 156072, Note_on_c, 4, 67, 50
5, 156200, Note_on_c, 4, 67, 0
5, 156200, Note_on_c, 4, 75, 0
5, 156328, Note_on_c, 4, 74, 0
5, 156456, Note_on_c, 4, 75, 39
5, 156456, Note_on_c, 4, 66, 38
5, 156456, Note_on_c, 4, 72, 43
5, 156584, Note_on_c, 4, 72, 0
5, 156584, Note_on_c, 4, 66, 0
5, 156584, Note_on_c, 4, 75, 0
5, 156840, Note_on_c, 4, 75, 50
5, 156840, Note_on_c, 4, 66, 52
5, 156840, Note_on_c, 4, 72, 38
5, 156840, Note_on_c, 4, 72, 0
5, 156840, Note_on_c, 4, 72, 12
5, 156968, Note_on_c, 4, 72, 0
5, 157096, Note_on_c, 4, 66, 0
5, 157096, Note_on_c, 4, 75, 0
5, 157224, Note_on_c, 4, 66, 31
5, 157224, Note_on_c, 4, 74, 43
5, 157224, Note_on_c, 4, 72, 24
5, 157224, Note_on_c, 4, 72, 0
5, 157352, Note_on_c, 4, 74, 0
5, 157352, Note_on_c, 4, 66, 0
5, 157608, Note_on_c, 4, 66, 45
5, 157608, Note_on_c, 4, 72, 38
5, 157608, Note_on_c, 4, 74, 41
5, 157736, Note_on_c, 4, 74, 0
5, 157736, Note_on_c, 4, 72, 0
5, 157736, Note_on_c, 4, 66, 0
5, 157992, Note_on_c, 4, 72, 36
5, 157992, Note_on_c, 4, 69, 48
5, 158120, Note_on_c, 4, 69, 0
5, 158120, Note_on_c, 4, 72, 0
5, 158376, Note_on_c, 4, 69, 59
5, 158376, Note_on_c, 4, 72, 50
5, 158504, Note_on_c, 4, 72, 0
5, 158504, Note_on_c, 4, 69, 0
5, 158760, Note_on_c, 4, 70, 22
5, 158760, Note_on_c, 4, 67, 20
5, 158888, Note_on_c, 4, 67, 0
5, 159016, Note_on_c, 4, 70, 0
5, 159144, Note_on_c, 4, 69, 52
5, 159144, Note_on_c, 4, 72, 43
5, 159272, Note_on_c, 4, 72, 0
5, 159272, Note_on_c, 4, 69, 0
5, 159528, Note_on_c, 4, 72, 43
5, 159528, Note_on_c, 4, 69, 53
5, 159784, Note_on_c, 4, 69, 0
5, 159784, Note_on_c, 4, 72, 0
5, 159912, Note_on_c, 4, 70, 27
5, 159912, Note_on_c, 4, 67, 27
5, 160040, Note_on_c, 4, 67, 0
5, 160168, Note_on_c, 4, 70, 0
5, 160296, Note_on_c, 4, 69, 57
5, 160296, Note_on_c, 4, 72, 43
5, 160424, Note_on_c, 4, 72, 0
5, 160424, Note_on_c, 4, 69, 0
5, 160680, Note_on_c, 4, 69, 57
5, 160680, Note_on_c, 4, 72, 43
5, 160808, Note_on_c, 4, 72, 0
5, 160808, Note_on_c, 4, 69, 0
5, 161064, Note_on_c, 4, 82, 56
5, 161064, Note_on_c, 4, 97, 51
5, 161184, Note_on_c, 4, 97, 0
5, 161312, Note_on_c, 4, 82, 0
5, 161696, Note_on_c, 4, 97, 62
5, 161696, Note_on_c, 4, 82, 53
5, 161696, Note_on_c, 4, 85, 41
5, 161696, Note_on_c, 4, 85, 0
5, 162336, Note_on_c, 4, 82, 0
5, 162336, Note_on_c, 4, 97, 0
5, 162592, Note_on_c, 4, 97, 69
5, 162592, Note_on_c, 4, 82, 64
5, 162592, Note_on_c, 4, 94, 21
5, 162720, Note_on_c, 4, 94, 0
5, 162720, Note_on_c, 4, 82, 0
5, 162720, Note_on_c, 4, 97, 0
5, 163232, Note_on_c, 4, 97, 67
5, 163232, Note_on_c, 4, 82, 67
5, 163744, Note_on_c, 4, 82, 0
5, 163744, Note_on_c, 4, 97, 0
5, 164128, Note_on_c, 4, 89, 64
5, 164128, Note_on_c, 4, 93, 61
5, 164256, Note_on_c, 4, 93, 0
5, 164256, Note_on_c, 4, 89, 0
5, 164768, Note_on_c, 4, 93, 82
5, 164768, Note_on_c, 4, 89, 63
5, 164768, Note_on_c, 4, 84, 62
5, 165152, Note_on_c, 4, 84, 0
5, 165280, Note_on_c, 4, 89, 0
5, 165280, Note_on_c, 4, 93, 0
5, 165280, Note_on_c, 4, 84, 29
5, 165280, Note_on_c, 4, 84, 0
5, 165664, Note_on_c, 4, 81, 42
5, 165664, Note_on_c, 4, 86, 45
5, 165664, Note_on_c, 4, 82, 30
5, 165792, Note_on_c, 4, 82, 0
5, 165792, Note_on_c, 4, 86, 0
5, 165792, Note_on_c, 4, 81, 0
5, 166304, Note_on_c, 4, 86, 60
5, 166304, Note_on_c, 4, 82, 54
5, 166304, Note_on_c, 4, 81, 59
5, 166680, Note_on_c, 4, 81, 0
5, 166808, Note_on_c, 4, 82, 0
5, 166808, Note_on_c, 4, 86, 0
5, 167200, Note_on_c, 4, 97, 49
5, 167200, Note_on_c, 4, 82, 51
5, 167320, Note_on_c, 4, 82, 0
5, 167320, Note_on_c, 4, 97, 0
5, 167832, Note_on_c, 4, 97, 72
5, 167832, Note_on_c, 4, 90, 63
5, 167832, Note_on_c, 4, 82, 62
5, 168216, Note_on_c, 4, 90, 0
5, 168344, Note_on_c, 4, 97, 0
5, 168472, Note_on_c, 4, 82, 0
5, 168728, Note_on_c, 4, 97, 64
5, 168728, Note_on_c, 4, 90, 59
5, 168728, Note_on_c, 4, 82, 55
5, 168856, Note_on_c, 4, 82, 0
5, 168856, Note_on_c, 4, 90, 0
5, 168856, Note_on_c, 4, 97, 0
5, 169368, Note_on_c, 4, 97, 78
5, 169368, Note_on_c, 4, 90, 76
5, 169368, Note_on_c, 4, 82, 62
5, 169880, Note_on_c, 4, 90, 0
5, 169880, Note_on_c, 4, 97, 0
5, 170008, Note_on_c, 4, 82, 0
5, 170264, Note_on_c, 4, 89, 65
5, 170264, Note_on_c, 4, 96, 63
5, 170264, Note_on_c, 4, 79, 60
5, 170392, Note_on_c, 4, 79, 0
5, 170392, Note_on_c, 4, 96, 0
5, 170392, Note_on_c, 4, 89, 0
5, 170904, Note_on_c, 4, 89, 78
5, 170904, Note_on_c, 4, 96, 76
5, 170904, Note_on_c, 4, 79, 80
5, 171416, Note_on_c, 4, 96, 0
5, 171416, Note_on_c, 4, 89, 0
5, 171416, Note_on_c, 4, 94, 31
5, 171544, Note_on_c, 4, 94, 0
5, 171544, Note_on_c, 4, 79, 0
5, 171800, Note_on_c, 4, 79, 48
5, 171800, Note_on_c, 4, 93, 30
5, 171800, Note_on_c, 4, 84, 28
5, 171800, Note_on_c, 4, 89, 34
5, 171928, Note_on_c, 4, 89, 0
5, 171928, Note_on_c, 4, 84, 0
5, 171928, Note_on_c, 4, 79, 0
5, 171928, Note_on_c, 4, 93, 0
5, 172440, Note_on_c, 4, 93, 54
5, 172440, Note_on_c, 4, 84, 50
5, 172440, Note_on_c, 4, 89, 57
5, 172440, Note_on_c, 4, 79, 69
5, 172944, Note_on_c, 4, 79, 0
5, 172944, Note_on_c, 4, 89, 0
5, 172944, Note_on_c, 4, 93, 0
5, 172944, Note_on_c, 4, 84, 0
5, 173336, Note_on_c, 4, 75, 35
5, 173336, Note_on_c, 4, 74, 80
5, 173336, Note_on_c, 4, 67, 51
5, 173336, Note_on_c, 4, 67, 0
5, 173336, Note_on_c, 4, 73, 23
5, 173336, Note_on_c, 4, 73, 0
5, 173456, Note_on_c, 4, 74, 0
5, 173456, Note_on_c, 4, 75, 0
5, 173968, Note_on_c, 4, 75, 45
5, 173968, Note_on_c, 4, 74, 68
5, 173968, Note_on_c, 4, 67, 50
5, 174480, Note_on_c, 4, 67, 0
5, 174608, Note_on_c, 4, 74, 0
5, 174736, Note_on_c, 4, 75, 0
5, 174864, Note_on_c, 4, 66, 39
5, 174864, Note_on_c, 4, 77, 36
5, 174864, Note_on_c, 4, 72, 48
5, 174864, Note_on_c, 4, 72, 0
5, 174992, Note_on_c, 4, 77, 0
5, 174992, Note_on_c, 4, 66, 0
5, 175504, Note_on_c, 4, 75, 52
5, 175504, Note_on_c, 4, 66, 51
5, 175504, Note_on_c, 4, 72, 63
5, 176016, Note_on_c, 4, 72, 0
5, 176016, Note_on_c, 4, 66, 0
5, 176272, Note_on_c, 4, 75, 0
5, 176400, Note_on_c, 4, 69, 21
5, 176400, Note_on_c, 4, 74, 33
5, 176400, Note_on_c, 4, 70, 24
5, 176528, Note_on_c, 4, 74, 0
5, 176528, Note_on_c, 4, 69, 0
5, 176528, Note_on_c, 4, 70, 0
5, 177040, Note_on_c, 4, 74, 65
5, 177040, Note_on_c, 4, 70, 50
5, 177040, Note_on_c, 4, 69, 58
5, 177552, Note_on_c, 4, 69, 0
5, 177680, Note_on_c, 4, 74, 0
5, 177680, Note_on_c, 4, 70, 0
5, 177936, Note_on_c, 4, 79, 30
5, 177936, Note_on_c, 4, 70, 14
5, 177936, Note_on_c, 4, 74, 30
5, 178064, Note_on_c, 4, 74, 0
5, 178064, Note_on_c, 4, 79, 0
5, 178064, Note_on_c, 4, 70, 0
5, 178576, Note_on_c, 4, 81, 64
5, 178576, Note_on_c, 4, 84, 69
5, 178576, Note_on_c, 4, 74, 67
5, 179080, Note_on_c, 4, 74, 0
5, 179080, Note_on_c, 4, 84, 0
5, 179080, Note_on_c, 4, 81, 0
5, 179080, Note_on_c, 4, 74, 16
5, 179208, Note_on_c, 4, 74, 0
5, 179464, Note_on_c, 4, 75, 35
5, 179464, Note_on_c, 4, 86, 56
5, 179464, Note_on_c, 4, 79, 32
5, 179592, Note_on_c, 4, 79, 0
5, 179592, Note_on_c, 4, 86, 0
5, 179592, Note_on_c, 4, 75, 0
5, 180104, Note_on_c, 4, 79, 60
5, 180104, Note_on_c, 4, 75, 49
5, 180104, Note_on_c, 4, 86, 64
5, 180616, Note_on_c, 4, 86, 0
5, 180616, Note_on_c, 4, 79, 0
5, 180744, Note_on_c, 4, 75, 0
5, 181000, Note_on_c, 4, 78, 42
5, 181000, Note_on_c, 4, 84, 30
5, 181000, Note_on_c, 4, 82, 27
5, 181128, Note_on_c, 4, 82, 0
5, 181128, Note_on_c, 4, 84, 0
5, 181128, Note_on_c, 4, 78, 0
5, 181640, Note_on_c, 4, 82, 59
5, 181640, Note_on_c, 4, 77, 88
5, 181640, Note_on_c, 4, 84, 65
5, 182280, Note_on_c, 4, 84, 0
5, 182280, Note_on_c, 4, 77, 0
5, 182408, Note_on_c, 4, 82, 0
5, 182536, Note_on_c, 4, 81, 27
5, 182536, Note_on_c, 4, 72, 27
5, 182536, Note_on_c, 4, 77, 35
5, 182664, Note_on_c, 4, 77, 0
5, 182664, Note_on_c, 4, 72, 0
5, 182664, Note_on_c, 4, 81, 0
5, 183176, Note_on_c, 4, 79, 56
5, 183176, Note_on_c, 4, 77, 51
5, 183176, Note_on_c, 4, 72, 49
5, 183304, Note_on_c, 4, 72, 0
5, 183816, Note_on_c, 4, 77, 0
5, 183944, Note_on_c, 4, 79, 0
5, 184072, Note_on_c, 4, 79, 25
5, 184072, Note_on_c, 4, 74, 21
5, 184072, Note_on_c, 4, 77, 24
5, 184200, Note_on_c, 4, 77, 0
5, 184200, Note_on_c, 4, 74, 0
5, 184200, Note_on_c, 4, 79, 0
5, 184712, Note_on_c, 4, 82, 65
5, 184712, Note_on_c, 4, 74, 76
5, 185088, Note_on_c, 4, 74, 0
5, 185216, Note_on_c, 4, 82, 0
5, 185216, Note_on_c, 4, 74, 17
5, 185216, Note_on_c, 4, 79, 21
5, 185344, Note_on_c, 4, 79, 0
5, 185344, Note_on_c, 4, 74, 0
5, 185600, Note_on_c, 4, 74, 35
5, 185600, Note_on_c, 4, 74, 0
5, 185600, Note_on_c, 4, 75, 35
5, 185600, Note_on_c, 4, 79, 27
5, 185600, Note_on_c, 4, 79, 0
5, 185728, Note_on_c, 4, 75, 0
5, 186240, Note_on_c, 4, 82, 63
5, 186240, Note_on_c, 4, 79, 88
5, 186240, Note_on_c, 4, 86, 72
5, 186752, Note_on_c, 4, 86, 0
5, 186752, Note_on_c, 4, 79, 0
5, 186752, Note_on_c, 4, 84, 29
5, 186880, Note_on_c, 4, 84, 0
5, 186880, Note_on_c, 4, 82, 0
5, 187136, Note_on_c, 4, 78, 37
5, 187136, Note_on_c, 4, 82, 26
5, 187136, Note_on_c, 4, 89, 30
5, 187264, Note_on_c, 4, 89, 0
5, 187264, Note_on_c, 4, 82, 0
5, 187264, Note_on_c, 4, 78, 0
5, 187776, Note_on_c, 4, 87, 50
5, 187776, Note_on_c, 4, 84, 49
5, 187776, Note_on_c, 4, 78, 42
5, 187776, Note_on_c, 4, 82, 40
5, 188160, Note_on_c, 4, 78, 0
5, 188288, Note_on_c, 4, 84, 0
5, 188288, Note_on_c, 4, 78, 23
5, 188416, Note_on_c, 4, 78, 0
5, 188416, Note_on_c, 4, 87, 0
5, 188416, Note_on_c, 4, 82, 0
5, 188672, Note_on_c, 4, 82, 23
5, 188672, Note_on_c, 4, 86, 28
5, 188672, Note_on_c, 4, 77, 19
5, 188672, Note_on_c, 4, 79, 17
5, 188800, Note_on_c, 4, 79, 0
5, 188800, Note_on_c, 4, 77, 0
5, 188800, Note_on_c, 4, 82, 0
5, 188800, Note_on_c, 4, 86, 0
5, 189312, Note_on_c, 4, 82, 34
5, 189312, Note_on_c, 4, 86, 46
5, 189312, Note_on_c, 4, 79, 37
5, 189312, Note_on_c, 4, 77, 32
5, 189824, Note_on_c, 4, 77, 0
5, 189824, Note_on_c, 4, 79, 0
5, 189824, Note_on_c, 4, 82, 0
5, 189824, Note_on_c, 4, 86, 0
5, 190208, Note_on_c, 4, 82, 26
5, 190208, Note_on_c, 4, 76, 30
5, 190208, Note_on_c, 4, 86, 23
5, 190336, Note_on_c, 4, 86, 0
5, 190336, Note_on_c, 4, 82, 0
5, 190336, Note_on_c, 4, 76, 0
5, 190840, Note_on_c, 4, 82, 45
5, 190840, Note_on_c, 4, 86, 53
5, 190840, Note_on_c, 4, 76, 58
5, 191224, Note_on_c, 4, 76, 0
5, 191352, Note_on_c, 4, 86, 0
5, 191480, Note_on_c, 4, 82, 0
5, 191736, Note_on_c, 4, 75, 39
5, 191736, Note_on_c, 4, 79, 32
5, 191736, Note_on_c, 4, 86, 28
5, 191864, Note_on_c, 4, 86, 0
5, 191864, Note_on_c, 4, 79, 0
5, 191864, Note_on_c, 4, 75, 0
5, 192376, Note_on_c, 4, 75, 53
5, 192376, Note_on_c, 4, 79, 57
5, 192376, Note_on_c, 4, 86, 62
5, 192760, Note_on_c, 4, 86, 0
5, 192888, Note_on_c, 4, 79, 0
5, 192888, Note_on_c, 4, 75, 0
5, 192888, Note_on_c, 4, 84, 26
5, 192888, Note_on_c, 4, 84, 0
5, 193272, Note_on_c, 4, 87, 35
5, 193272, Note_on_c, 4, 78, 31
5, 193272, Note_on_c, 4, 84, 28
5, 193400, Note_on_c, 4, 84, 0
5, 193400, Note_on_c, 4, 78, 0
5, 193400, Note_on_c, 4, 87, 0
5, 193912, Note_on_c, 4, 78, 72
5, 193912, Note_on_c, 4, 82, 58
5, 193912, Note_on_c, 4, 86, 67
5, 194424, Note_on_c, 4, 86, 0
5, 194424, Note_on_c, 4, 82, 0
5, 194424, Note_on_c, 4, 78, 0
5, 194424, Note_on_c, 4, 84, 23
5, 194552, Note_on_c, 4, 84, 0
5, 194808, Note_on_c, 4, 77, 20
5, 194808, Note_on_c, 4, 84, 26
5, 194808, Note_on_c, 4, 81, 22
5, 194936, Note_on_c, 4, 81, 0
5, 194936, Note_on_c, 4, 84, 0
5, 194936, Note_on_c, 4, 77, 0
5, 195448, Note_on_c, 4, 77, 60
5, 195448, Note_on_c, 4, 81, 51
5, 195448, Note_on_c, 4, 84, 47
5, 195832, Note_on_c, 4, 77, 0
5, 195960, Note_on_c, 4, 84, 0
5, 195960, Note_on_c, 4, 81, 0
5, 195960, Note_on_c, 4, 82, 38
5, 196088, Note_on_c, 4, 82, 0
5, 196336, Note_on_c, 4, 81, 37
5, 196336, Note_on_c, 4, 77, 31
5, 196336, Note_on_c, 4, 77, 0
5, 196336, Note_on_c, 4, 84, 26
5, 196336, Note_on_c, 4, 84, 0
5, 196464, Note_on_c, 4, 81, 0
5, 196976, Note_on_c, 4, 81, 56
5, 196976, Note_on_c, 4, 84, 47
5, 196976, Note_on_c, 4, 77, 50
5, 197488, Note_on_c, 4, 77, 0
5, 197488, Note_on_c, 4, 84, 0
5, 197488, Note_on_c, 4, 81, 0
5, 197880, Note_on_c, 4, 75, 58
5, 197880, Note_on_c, 4, 79, 67
5, 197880, Note_on_c, 4, 74, 76
5, 198000, Note_on_c, 4, 74, 0
5, 198000, Note_on_c, 4, 79, 0
5, 198000, Note_on_c, 4, 75, 0
5, 198256, Note_on_c, 4, 75, 27
5, 198256, Note_on_c, 4, 74, 48
5, 198256, Note_on_c, 4, 79, 44
5, 198384, Note_on_c, 4, 79, 0
5, 198384, Note_on_c, 4, 74, 0
5, 198384, Note_on_c, 4, 75, 0
5, 198640, Note_on_c, 4, 75, 23
5, 198640, Note_on_c, 4, 74, 48
5, 198640, Note_on_c, 4, 79, 33
5, 198768, Note_on_c, 4, 79, 0
5, 198768, Note_on_c, 4, 74, 0
5, 198768, Note_on_c, 4, 75, 0
5, 199024, Note_on_c, 4, 75, 52
5, 199024, Note_on_c, 4, 74, 68
5, 199024, Note_on_c, 4, 79, 60
5, 199152, Note_on_c, 4, 79, 0
5, 199152, Note_on_c, 4, 74, 0
5, 199152, Note_on_c, 4, 75, 0
5, 199408, Note_on_c, 4, 77, 49
5, 199408, Note_on_c, 4, 66, 34
5, 199408, Note_on_c, 4, 70, 41
5, 199536, Note_on_c, 4, 66, 0
5, 199536, Note_on_c, 4, 77, 0
5, 199536, Note_on_c, 4, 70, 0
5, 199792, Note_on_c, 4, 77, 70
5, 199792, Note_on_c, 4, 70, 51
5, 199792, Note_on_c, 4, 66, 48
5, 199920, Note_on_c, 4, 66, 0
5, 199920, Note_on_c, 4, 77, 0
5, 199920, Note_on_c, 4, 70, 0
5, 200176, Note_on_c, 4, 66, 14
5, 200176, Note_on_c, 4, 75, 22
5, 200176, Note_on_c, 4, 70, 22
5, 200304, Note_on_c, 4, 75, 0
5, 200304, Note_on_c, 4, 66, 0
5, 200432, Note_on_c, 4, 70, 0
5, 200560, Note_on_c, 4, 75, 57
5, 200560, Note_on_c, 4, 66, 64
5, 200560, Note_on_c, 4, 70, 45
5, 200688, Note_on_c, 4, 66, 0
5, 200688, Note_on_c, 4, 75, 0
5, 200688, Note_on_c, 4, 70, 0
5, 200944, Note_on_c, 4, 74, 29
5, 200944, Note_on_c, 4, 69, 12
5, 200944, Note_on_c, 4, 70, 14
5, 201072, Note_on_c, 4, 69, 0
5, 201072, Note_on_c, 4, 74, 0
5, 201200, Note_on_c, 4, 70, 0
5, 201328, Note_on_c, 4, 70, 29
5, 201328, Note_on_c, 4, 74, 51
5, 201328, Note_on_c, 4, 69, 35
5, 201328, Note_on_c, 4, 69, 0
5, 201456, Note_on_c, 4, 74, 0
5, 201584, Note_on_c, 4, 70, 0
5, 201712, Note_on_c, 4, 70, 21
5, 201712, Note_on_c, 4, 69, 30
5, 201712, Note_on_c, 4, 74, 36
5, 201840, Note_on_c, 4, 69, 0
5, 201968, Note_on_c, 4, 74, 0
5, 201968, Note_on_c, 4, 70, 0
5, 202096, Note_on_c, 4, 74, 59
5, 202096, Note_on_c, 4, 70, 37
5, 202096, Note_on_c, 4, 69, 45
5, 202216, Note_on_c, 4, 69, 0
5, 202344, Note_on_c, 4, 74, 0
5, 202344, Note_on_c, 4, 70, 0
5, 202472, Note_on_c, 4, 70, 14
5, 202472, Note_on_c, 4, 77, 16
5, 202472, Note_on_c, 4, 74, 17
5, 202728, Note_on_c, 4, 74, 0
5, 202728, Note_on_c, 4, 77, 0
5, 202728, Note_on_c, 4, 70, 0
5, 202856, Note_on_c, 4, 70, 47
5, 202856, Note_on_c, 4, 77, 53
5, 202856, Note_on_c, 4, 74, 55
5, 202984, Note_on_c, 4, 77, 0
5, 203112, Note_on_c, 4, 74, 0
5, 203112, Note_on_c, 4, 70, 0
5, 203112, Note_on_c, 4, 70, 31
5, 203112, Note_on_c, 4, 76, 66
5, 203496, Note_on_c, 4, 76, 0
5, 203624, Note_on_c, 4, 76, 41
5, 203752, Note_on_c, 4, 70, 0
5, 203880, Note_on_c, 4, 76, 0
5, 204008, Note_on_c, 4, 74, 27
5, 204008, Note_on_c, 4, 79, 23
5, 204008, Note_on_c, 4, 75, 17
5, 204136, Note_on_c, 4, 75, 0
5, 204136, Note_on_c, 4, 79, 0
5, 204136, Note_on_c, 4, 74, 0
5, 204392, Note_on_c, 4, 75, 58
5, 204392, Note_on_c, 4, 74, 82
5, 204392, Note_on_c, 4, 79, 62
5, 204520, Note_on_c, 4, 79, 0
5, 204520, Note_on_c, 4, 74, 0
5, 204520, Note_on_c, 4, 75, 0
5, 204776, Note_on_c, 4, 75, 14
5, 204776, Note_on_c, 4, 74, 24
5, 204776, Note_on_c, 4, 79, 16
5, 204904, Note_on_c, 4, 79, 0
5, 204904, Note_on_c, 4, 74, 0
5, 204904, Note_on_c, 4, 75, 0
5, 205160, Note_on_c, 4, 75, 50
5, 205160, Note_on_c, 4, 74, 70
5, 205160, Note_on_c, 4, 79, 58
5, 205288, Note_on_c, 4, 79, 0
5, 205288, Note_on_c, 4, 74, 0
5, 205288, Note_on_c, 4, 75, 0
5, 205544, Note_on_c, 4, 72, 37
5, 205544, Note_on_c, 4, 82, 30
5, 205544, Note_on_c, 4, 78, 26
5, 205672, Note_on_c, 4, 78, 0
5, 205672, Note_on_c, 4, 82, 0
5, 205672, Note_on_c, 4, 72, 0
5, 205928, Note_on_c, 4, 82, 70
5, 205928, Note_on_c, 4, 78, 60
5, 205928, Note_on_c, 4, 72, 76
5, 206056, Note_on_c, 4, 72, 0
5, 206056, Note_on_c, 4, 78, 0
5, 206056, Note_on_c, 4, 82, 0
5, 206312, Note_on_c, 4, 82, 28
5, 206312, Note_on_c, 4, 78, 25
5, 206312, Note_on_c, 4, 72, 20
5, 206440, Note_on_c, 4, 72, 0
5, 206440, Note_on_c, 4, 78, 0
5, 206440, Note_on_c, 4, 82, 0
5, 206696, Note_on_c, 4, 82, 67
5, 206696, Note_on_c, 4, 78, 62
5, 206696, Note_on_c, 4, 72, 74
5, 206824, Note_on_c, 4, 72, 0
5, 206824, Note_on_c, 4, 78, 0
5, 206824, Note_on_c, 4, 82, 0
5, 206952, Note_on_c, 4, 81, 82
5, 206952, Note_on_c, 4, 77, 82
5, 206952, Note_on_c, 4, 72, 86
5, 206952, Note_on_c, 4, 72, 0
5, 207336, Note_on_c, 4, 77, 0
5, 207336, Note_on_c, 4, 81, 0
5, 207464, Note_on_c, 4, 77, 48
5, 207464, Note_on_c, 4, 81, 35
5, 207592, Note_on_c, 4, 77, 0
5, 207720, Note_on_c, 4, 81, 0
5, 207848, Note_on_c, 4, 77, 49
5, 207848, Note_on_c, 4, 81, 58
5, 208104, Note_on_c, 4, 81, 0
5, 208104, Note_on_c, 4, 77, 0
5, 208224, Note_on_c, 4, 77, 21
5, 208224, Note_on_c, 4, 74, 28
5, 208360, Note_on_c, 4, 74, 0
5, 208360, Note_on_c, 4, 77, 0
5, 208608, Note_on_c, 4, 69, 25
5, 208608, Note_on_c, 4, 69, 0
5, 208608, Note_on_c, 4, 74, 29
5, 208608, Note_on_c, 4, 70, 17
5, 208736, Note_on_c, 4, 74, 0
5, 208864, Note_on_c, 4, 70, 0
5, 208992, Note_on_c, 4, 70, 40
5, 208992, Note_on_c, 4, 74, 44
5, 208992, Note_on_c, 4, 69, 52
5, 209120, Note_on_c, 4, 69, 0
5, 209120, Note_on_c, 4, 74, 0
5, 209248, Note_on_c, 4, 70, 0
5, 209376, Note_on_c, 4, 74, 23
5, 209376, Note_on_c, 4, 70, 12
5, 209376, Note_on_c, 4, 69, 12
5, 209504, Note_on_c, 4, 69, 0
5, 209504, Note_on_c, 4, 74, 0
5, 209632, Note_on_c, 4, 70, 0
5, 209760, Note_on_c, 4, 70, 32
5, 209760, Note_on_c, 4, 74, 50
5, 209760, Note_on_c, 4, 69, 54
5, 209888, Note_on_c, 4, 69, 0
5, 209888, Note_on_c, 4, 74, 0
5, 209888, Note_on_c, 4, 70, 0
5, 210144, Note_on_c, 4, 75, 21
5, 210144, Note_on_c, 4, 74, 32
5, 210144, Note_on_c, 4, 79, 21
5, 210272, Note_on_c, 4, 79, 0
5, 210272, Note_on_c, 4, 74, 0
5, 210272, Note_on_c, 4, 75, 0
5, 210528, Note_on_c, 4, 75, 61
5, 210528, Note_on_c, 4, 74, 89
5, 210528, Note_on_c, 4, 79, 76
5, 210656, Note_on_c, 4, 79, 0
5, 210656, Note_on_c, 4, 74, 0
5, 210656, Note_on_c, 4, 75, 0
5, 210912, Note_on_c, 4, 75, 14
5, 210912, Note_on_c, 4, 74, 22
5, 210912, Note_on_c, 4, 79, 22
5, 211168, Note_on_c, 4, 79, 0
5, 211168, Note_on_c, 4, 74, 0
5, 211168, Note_on_c, 4, 75, 0
5, 211296, Note_on_c, 4, 75, 28
5, 211296, Note_on_c, 4, 75, 0
5, 211296, Note_on_c, 4, 79, 29
5, 211296, Note_on_c, 4, 79, 0
5, 211296, Note_on_c, 4, 74, 33
5, 211296, Note_on_c, 4, 74, 0
5, 211552, Note_on_c, 4, 82, 67
5, 211552, Note_on_c, 4, 77, 76
5, 211552, Note_on_c, 4, 72, 67
5, 211936, Note_on_c, 4, 72, 0
5, 211936, Note_on_c, 4, 77, 0
5, 212064, Note_on_c, 4, 82, 0
5, 212064, Note_on_c, 4, 72, 31
5, 212064, Note_on_c, 4, 80, 30
5, 212064, Note_on_c, 4, 77, 25
5, 212192, Note_on_c, 4, 77, 0
5, 212320, Note_on_c, 4, 80, 0
5, 212320, Note_on_c, 4, 72, 0
5, 212448, Note_on_c, 4, 81, 33
5, 212448, Note_on_c, 4, 72, 21
5, 212448, Note_on_c, 4, 78, 24
5, 212576, Note_on_c, 4, 78, 0
5, 212576, Note_on_c, 4, 72, 0
5, 212576, Note_on_c, 4, 81, 0
5, 212832, Note_on_c, 4, 78, 62
5, 212832, Note_on_c, 4, 72, 57
5, 212960, Note_on_c, 4, 72, 0
5, 212960, Note_on_c, 4, 78, 0
5, 213216, Note_on_c, 4, 65, 25
5, 213216, Note_on_c, 4, 65, 0
5, 213216, Note_on_c, 4, 72, 28
5, 213216, Note_on_c, 4, 69, 23
5, 213344, Note_on_c, 4, 69, 0
5, 213344, Note_on_c, 4, 72, 0
5, 213600, Note_on_c, 4, 72, 47
5, 213600, Note_on_c, 4, 65, 44
5, 213600, Note_on_c, 4, 69, 36
5, 213728, Note_on_c, 4, 69, 0
5, 213728, Note_on_c, 4, 65, 0
5, 213728, Note_on_c, 4, 72, 0
5, 213984, Note_on_c, 4, 65, 26
5, 213984, Note_on_c, 4, 72, 36
5, 213984, Note_on_c, 4, 69, 22
5, 214112, Note_on_c, 4, 72, 0
5, 214112, Note_on_c, 4, 65, 0
5, 214240, Note_on_c, 4, 69, 0
5, 214368, Note_on_c, 4, 72, 41
5, 214368, Note_on_c, 4, 65, 26
5, 214368, Note_on_c, 4, 69, 21
5, 214368, Note_on_c, 4, 69, 0
5, 214488, Note_on_c, 4, 65, 0
5, 214488, Note_on_c, 4, 72, 0
5, 214616, Note_on_c, 4, 76, 63
5, 214616, Note_on_c, 4, 70, 56
5, 214616, Note_on_c, 4, 67, 67
5, 214616, Note_on_c, 4, 72, 64
5, 215000, Note_on_c, 4, 72, 0
5, 215000, Note_on_c, 4, 67, 0
5, 215000, Note_on_c, 4, 76, 0
5, 215128, Note_on_c, 4, 70, 0
5, 215128, Note_on_c, 4, 76, 29
5, 215128, Note_on_c, 4, 67, 32
5, 215128, Note_on_c, 4, 70, 13
5, 215128, Note_on_c, 4, 72, 32
5, 215128, Note_on_c, 4, 72, 0
5, 215256, Note_on_c, 4, 67, 0
5, 215256, Note_on_c, 4, 76, 0
5, 215384, Note_on_c, 4, 70, 0
5, 215512, Note_on_c, 4, 77, 21
5, 215512, Note_on_c, 4, 70, 18
5, 215512, Note_on_c, 4, 69, 17
5, 215512, Note_on_c, 4, 74, 26
5, 215640, Note_on_c, 4, 74, 0
5, 215640, Note_on_c, 4, 69, 0
5, 215640, Note_on_c, 4, 77, 0
5, 215640, Note_on_c, 4, 70, 0
5, 215896, Note_on_c, 4, 76, 38
5, 215896, Note_on_c, 4, 70, 31
5, 215896, Note_on_c, 4, 67, 28
5, 215896, Note_on_c, 4, 72, 31
5, 216024, Note_on_c, 4, 72, 0
5, 216024, Note_on_c, 4, 67, 0
5, 216024, Note_on_c, 4, 76, 0
5, 216152, Note_on_c, 4, 70, 0
5, 216280, Note_on_c, 4, 75, 24
5, 216280, Note_on_c, 4, 74, 37
5, 216280, Note_on_c, 4, 67, 19
5, 216408, Note_on_c, 4, 67, 0
5, 216408, Note_on_c, 4, 74, 0
5, 216408, Note_on_c, 4, 75, 0
5, 216664, Note_on_c, 4, 75, 63
5, 216664, Note_on_c, 4, 74, 86
5, 216664, Note_on_c, 4, 67, 80
5, 216792, Note_on_c, 4, 67, 0
5, 216792, Note_on_c, 4, 74, 0
5, 216792, Note_on_c, 4, 75, 0
5, 217048, Note_on_c, 4, 75, 31
5, 217048, Note_on_c, 4, 72, 33
5, 217048, Note_on_c, 4, 67, 30
5, 217176, Note_on_c, 4, 67, 0
5, 217176, Note_on_c, 4, 75, 0
5, 217304, Note_on_c, 4, 72, 0
5, 217432, Note_on_c, 4, 75, 27
5, 217432, Note_on_c, 4, 67, 28
5, 217432, Note_on_c, 4, 72, 28
5, 217560, Note_on_c, 4, 72, 0
5, 217560, Note_on_c, 4, 67, 0
5, 217560, Note_on_c, 4, 75, 0
5, 217688, Note_on_c, 4, 75, 70
5, 217688, Note_on_c, 4, 66, 84
5, 217688, Note_on_c, 4, 70, 57
5, 218072, Note_on_c, 4, 66, 0
5, 218072, Note_on_c, 4, 75, 0
5, 218072, Note_on_c, 4, 70, 0
5, 218200, Note_on_c, 4, 75, 44
5, 218200, Note_on_c, 4, 66, 33
5, 218200, Note_on_c, 4, 70, 16
5, 218328, Note_on_c, 4, 66, 0
5, 218328, Note_on_c, 4, 70, 0
5, 218456, Note_on_c, 4, 75, 0
5, 218456, Note_on_c, 4, 66, 76
5, 218456, Note_on_c, 4, 70, 28
5, 218456, Note_on_c, 4, 74, 76
5, 218840, Note_on_c, 4, 74, 0
5, 218840, Note_on_c, 4, 66, 0
5, 218840, Note_on_c, 4, 70, 0
5, 218968, Note_on_c, 4, 66, 26
5, 218968, Note_on_c, 4, 70, 14
5, 219096, Note_on_c, 4, 66, 0
5, 219224, Note_on_c, 4, 70, 0
5, 219352, Note_on_c, 4, 69, 28
5, 219352, Note_on_c, 4, 69, 0
5, 219352, Note_on_c, 4, 70, 13
5, 219352, Note_on_c, 4, 74, 28
5, 219480, Note_on_c, 4, 74, 0
5, 219608, Note_on_c, 4, 70, 0
5, 219736, Note_on_c, 4, 70, 18
5, 219736, Note_on_c, 4, 74, 28
5, 219736, Note_on_c, 4, 69, 23
5, 219864, Note_on_c, 4, 69, 0
5, 219864, Note_on_c, 4, 74, 0
5, 219992, Note_on_c, 4, 70, 0
5, 220112, Note_on_c, 4, 69, 23
5, 220112, Note_on_c, 4, 70, 14
5, 220112, Note_on_c, 4, 74, 26
5, 220240, Note_on_c, 4, 74, 0
5, 220240, Note_on_c, 4, 69, 0
5, 220368, Note_on_c, 4, 70, 0
5, 220496, Note_on_c, 4, 74, 28
5, 220496, Note_on_c, 4, 69, 23
5, 220496, Note_on_c, 4, 70, 20
5, 220624, Note_on_c, 4, 69, 0
5, 220624, Note_on_c, 4, 74, 0
5, 220624, Note_on_c, 4, 70, 0
5, 220880, Note_on_c, 4, 74, 28
5, 220880, Note_on_c, 4, 70, 21
5, 220880, Note_on_c, 4, 69, 17
5, 221008, Note_on_c, 4, 69, 0
5, 221008, Note_on_c, 4, 74, 0
5, 221008, Note_on_c, 4, 70, 0
5, 221264, Note_on_c, 4, 74, 37
5, 221264, Note_on_c, 4, 69, 27
5, 221264, Note_on_c, 4, 70, 23
5, 221392, Note_on_c, 4, 69, 0
5, 221392, Note_on_c, 4, 74, 0
5, 221392, Note_on_c, 4, 70, 0
5, 221648, Note_on_c, 4, 74, 35
5, 221648, Note_on_c, 4, 70, 18
5, 221648, Note_on_c, 4, 69, 22
5, 221776, Note_on_c, 4, 69, 0
5, 221776, Note_on_c, 4, 74, 0
5, 221904, Note_on_c, 4, 70, 0
5, 222032, Note_on_c, 4, 74, 38
5, 222032, Note_on_c, 4, 70, 20
5, 222032, Note_on_c, 4, 69, 28
5, 222160, Note_on_c, 4, 69, 0
5, 222160, Note_on_c, 4, 74, 0
5, 222160, Note_on_c, 4, 70, 0
5, 222416, Note_on_c, 4, 75, 58
5, 222416, Note_on_c, 4, 79, 67
5, 222416, Note_on_c, 4, 74, 76
5, 222544, Note_on_c, 4, 74, 0
5, 222544, Note_on_c, 4, 79, 0
5, 222544, Note_on_c, 4, 75, 0
5, 222800, Note_on_c, 4, 75, 27
5, 222800, Note_on_c, 4, 74, 48
5, 222800, Note_on_c, 4, 79, 44
5, 222928, Note_on_c, 4, 79, 0
5, 222928, Note_on_c, 4, 74, 0
5, 222928, Note_on_c, 4, 75, 0
5, 223184, Note_on_c, 4, 75, 23
5, 223184, Note_on_c, 4, 74, 48
5, 223184, Note_on_c, 4, 79, 33
5, 223312, Note_on_c, 4, 79, 0
5, 223312, Note_on_c, 4, 74, 0
5, 223312, Note_on_c, 4, 75, 0
5, 223568, Note_on_c, 4, 75, 52
5, 223568, Note_on_c, 4, 74, 68
5, 223568, Note_on_c, 4, 79, 60
5, 223696, Note_on_c, 4, 79, 0
5, 223696, Note_on_c, 4, 74, 0
5, 223696, Note_on_c, 4, 75, 0
5, 223952, Note_on_c, 4, 77, 49
5, 223952, Note_on_c, 4, 66, 34
5, 223952, Note_on_c, 4, 70, 41
5, 224080, Note_on_c, 4, 66, 0
5, 224080, Note_on_c, 4, 77, 0
5, 224080, Note_on_c, 4, 70, 0
5, 224336, Note_on_c, 4, 77, 70
5, 224336, Note_on_c, 4, 70, 51
5, 224336, Note_on_c, 4, 66, 48
5, 224464, Note_on_c, 4, 66, 0
5, 224464, Note_on_c, 4, 77, 0
5, 224464, Note_on_c, 4, 70, 0
5, 224720, Note_on_c, 4, 66, 14
5, 224720, Note_on_c, 4, 75, 22
5, 224720, Note_on_c, 4, 70, 22
5, 224848, Note_on_c, 4, 75, 0
5, 224848, Note_on_c, 4, 66, 0
5, 224976, Note_on_c, 4, 70, 0
5, 225104, Note_on_c, 4, 75, 57
5, 225104, Note_on_c, 4, 66, 64
5, 225104, Note_on_c, 4, 70, 45
5, 225232, Note_on_c, 4, 66, 0
5, 225232, Note_on_c, 4, 75, 0
5, 225232, Note_on_c, 4, 70, 0
5, 225488, Note_on_c, 4, 74, 29
5, 225488, Note_on_c, 4, 69, 12
5, 225488, Note_on_c, 4, 70, 14
5, 225616, Note_on_c, 4, 69, 0
5, 225616, Note_on_c, 4, 74, 0
5, 225744, Note_on_c, 4, 70, 0
5, 225872, Note_on_c, 4, 70, 29
5, 225872, Note_on_c, 4, 74, 51
5, 225872, Note_on_c, 4, 69, 35
5, 225872, Note_on_c, 4, 69, 0
5, 226000, Note_on_c, 4, 74, 0
5, 226120, Note_on_c, 4, 70, 0
5, 226248, Note_on_c, 4, 70, 21
5, 226248, Note_on_c, 4, 69, 30
5, 226248, Note_on_c, 4, 74, 36
5, 226384, Note_on_c, 4, 69, 0
5, 226512, Note_on_c, 4, 74, 0
5, 226512, Note_on_c, 4, 70, 0
5, 226632, Note_on_c, 4, 74, 59
5, 226632, Note_on_c, 4, 70, 37
5, 226632, Note_on_c, 4, 69, 45
5, 226768, Note_on_c, 4, 69, 0
5, 226888, Note_on_c, 4, 74, 0
5, 226888, Note_on_c, 4, 70, 0
5, 227016, Note_on_c, 4, 70, 14
5, 227016, Note_on_c, 4, 77, 16
5, 227016, Note_on_c, 4, 74, 17
5, 227272, Note_on_c, 4, 74, 0
5, 227272, Note_on_c, 4, 77, 0
5, 227272, Note_on_c, 4, 70, 0
5, 227400, Note_on_c, 4, 70, 47
5, 227400, Note_on_c, 4, 77, 53
5, 227400, Note_on_c, 4, 74, 55
5, 227528, Note_on_c, 4, 77, 0
5, 227656, Note_on_c, 4, 74, 0
5, 227656, Note_on_c, 4, 70, 0
5, 227656, Note_on_c, 4, 70, 31
5, 227656, Note_on_c, 4, 76, 66
5, 228040, Note_on_c, 4, 76, 0
5, 228168, Note_on_c, 4, 76, 41
5, 228296, Note_on_c, 4, 70, 0
5, 228424, Note_on_c, 4, 76, 0
5, 228552, Note_on_c, 4, 74, 27
5, 228552, Note_on_c, 4, 79, 23
5, 228552, Note_on_c, 4, 75, 17
5, 228680, Note_on_c, 4, 75, 0
5, 228680, Note_on_c, 4, 79, 0
5, 228680, Note_on_c, 4, 74, 0
5, 228936, Note_on_c, 4, 75, 58
5, 228936, Note_on_c, 4, 74, 82
5, 228936, Note_on_c, 4, 79, 62
5, 229064, Note_on_c, 4, 79, 0
5, 229064, Note_on_c, 4, 74, 0
5, 229064, Note_on_c, 4, 75, 0
5, 229320, Note_on_c, 4, 75, 14
5, 229320, Note_on_c, 4, 74, 24
5, 229320, Note_on_c, 4, 79, 16
5, 229448, Note_on_c, 4, 79, 0
5, 229448, Note_on_c, 4, 74, 0
5, 229448, Note_on_c, 4, 75, 0
5, 229704, Note_on_c, 4, 75, 50
5, 229704, Note_on_c, 4, 74, 70
5, 229704, Note_on_c, 4, 79, 58
5, 229832, Note_on_c, 4, 79, 0
5, 229832, Note_on_c, 4, 74, 0
5, 229832, Note_on_c, 4, 75, 0
5, 230088, Note_on_c, 4, 72, 37
5, 230088, Note_on_c, 4, 82, 30
5, 230088, Note_on_c, 4, 78, 26
5, 230216, Note_on_c, 4, 78, 0
5, 230216, Note_on_c, 4, 82, 0
5, 230216, Note_on_c, 4, 72, 0
5, 230472, Note_on_c, 4, 82, 70
5, 230472, Note_on_c, 4, 78, 60
5, 230472, Note_on_c, 4, 72, 76
5, 230600, Note_on_c, 4, 72, 0
5, 230600, Note_on_c, 4, 78, 0
5, 230600, Note_on_c, 4, 82, 0
5, 230856, Note_on_c, 4, 82, 28
5, 230856, Note_on_c, 4, 78, 25
5, 230856, Note_on_c, 4, 72, 20
5, 230984, Note_on_c, 4, 72, 0
5, 230984, Note_on_c, 4, 78, 0
5, 230984, Note_on_c, 4, 82, 0
5, 231240, Note_on_c, 4, 82, 67
5, 231240, Note_on_c, 4, 78, 62
5, 231240, Note_on_c, 4, 72, 74
5, 231368, Note_on_c, 4, 72, 0
5, 231368, Note_on_c, 4, 78, 0
5, 231368, Note_on_c, 4, 82, 0
5, 231496, Note_on_c, 4, 81, 82
5, 231496, Note_on_c, 4, 77, 82
5, 231496, Note_on_c, 4, 72, 86
5, 231496, Note_on_c, 4, 72, 0
5, 231880, Note_on_c, 4, 77, 0
5, 231880, Note_on_c, 4, 81, 0
5, 232008, Note_on_c, 4, 77, 48
5, 232008, Note_on_c, 4, 81, 35
5, 232136, Note_on_c, 4, 77, 0
5, 232264, Note_on_c, 4, 81, 0
5, 232392, Note_on_c, 4, 77, 49
5, 232392, Note_on_c, 4, 81, 58
5, 232640, Note_on_c, 4, 81, 0
5, 232640, Note_on_c, 4, 77, 0
5, 232768, Note_on_c, 4, 77, 21
5, 232768, Note_on_c, 4, 74, 28
5, 232896, Note_on_c, 4, 74, 0
5, 232896, Note_on_c, 4, 77, 0
5, 233152, Note_on_c, 4, 69, 25
5, 233152, Note_on_c, 4, 69, 0
5, 233152, Note_on_c, 4, 74, 29
5, 233152, Note_on_c, 4, 70, 17
5, 233280, Note_on_c, 4, 74, 0
5, 233408, Note_on_c, 4, 70, 0
5, 233536, Note_on_c, 4, 70, 40
5, 233536, Note_on_c, 4, 74, 44
5, 233536, Note_on_c, 4, 69, 52
5, 233664, Note_on_c, 4, 69, 0
5, 233664, Note_on_c, 4, 74, 0
5, 233792, Note_on_c, 4, 70, 0
5, 233920, Note_on_c, 4, 74, 23
5, 233920, Note_on_c, 4, 70, 12
5, 233920, Note_on_c, 4, 69, 12
5, 234048, Note_on_c, 4, 69, 0
5, 234048, Note_on_c, 4, 74, 0
5, 234176, Note_on_c, 4, 70, 0
5, 234304, Note_on_c, 4, 70, 32
5, 234304, Note_on_c, 4, 74, 50
5, 234304, Note_on_c, 4, 69, 54
5, 234432, Note_on_c, 4, 69, 0
5, 234432, Note_on_c, 4, 74, 0
5, 234432, Note_on_c, 4, 70, 0
5, 234688, Note_on_c, 4, 75, 21
5, 234688, Note_on_c, 4, 74, 32
5, 234688, Note_on_c, 4, 79, 21
5, 234816, Note_on_c, 4, 79, 0
5, 234816, Note_on_c, 4, 74, 0
5, 234816, Note_on_c, 4, 75, 0
5, 235072, Note_on_c, 4, 75, 61
5, 235072, Note_on_c, 4, 74, 89
5, 235072, Note_on_c, 4, 79, 76
5, 235200, Note_on_c, 4, 79, 0
5, 235200, Note_on_c, 4, 74, 0
5, 235200, Note_on_c, 4, 75, 0
5, 235456, Note_on_c, 4, 75, 14
5, 235456, Note_on_c, 4, 74, 22
5, 235456, Note_on_c, 4, 79, 22
5, 235712, Note_on_c, 4, 79, 0
5, 235712, Note_on_c, 4, 74, 0
5, 235712, Note_on_c, 4, 75, 0
5, 235840, Note_on_c, 4, 75, 28
5, 235840, Note_on_c, 4, 75, 0
5, 235840, Note_on_c, 4, 79, 29
5, 235840, Note_on_c, 4, 79, 0
5, 235840, Note_on_c, 4, 74, 33
5, 235840, Note_on_c, 4, 74, 0
5, 236096, Note_on_c, 4, 82, 67
5, 236096, Note_on_c, 4, 77, 76
5, 236096, Note_on_c, 4, 72, 67
5, 236480, Note_on_c, 4, 72, 0
5, 236480, Note_on_c, 4, 77, 0
5, 236608, Note_on_c, 4, 82, 0
5, 236608, Note_on_c, 4, 72, 31
5, 236608, Note_on_c, 4, 80, 30
5, 236608, Note_on_c, 4, 77, 25
5, 236736, Note_on_c, 4, 77, 0
5, 236864, Note_on_c, 4, 80, 0
5, 236864, Note_on_c, 4, 72, 0
5, 236992, Note_on_c, 4, 81, 33
5, 236992, Note_on_c, 4, 72, 21
5, 236992, Note_on_c, 4, 78, 24
5, 237120, Note_on_c, 4, 78, 0
5, 237120, Note_on_c, 4, 72, 0
5, 237120, Note_on_c, 4, 81, 0
5, 237376, Note_on_c, 4, 78, 62
5, 237376, Note_on_c, 4, 72, 57
5, 237504, Note_on_c, 4, 72, 0
5, 237504, Note_on_c, 4, 78, 0
5, 237760, Note_on_c, 4, 65, 25
5, 237760, Note_on_c, 4, 65, 0
5, 237760, Note_on_c, 4, 72, 28
5, 237760, Note_on_c, 4, 69, 23
5, 237888, Note_on_c, 4, 69, 0
5, 237888, Note_on_c, 4, 72, 0
5, 238144, Note_on_c, 4, 72, 47
5, 238144, Note_on_c, 4, 65, 44
5, 238144, Note_on_c, 4, 69, 36
5, 238264, Note_on_c, 4, 69, 0
5, 238264, Note_on_c, 4, 65, 0
5, 238264, Note_on_c, 4, 72, 0
5, 238520, Note_on_c, 4, 65, 26
5, 238520, Note_on_c, 4, 72, 36
5, 238520, Note_on_c, 4, 69, 22
5, 238648, Note_on_c, 4, 72, 0
5, 238648, Note_on_c, 4, 65, 0
5, 238776, Note_on_c, 4, 69, 0
5, 238904, Note_on_c, 4, 72, 41
5, 238904, Note_on_c, 4, 65, 26
5, 238904, Note_on_c, 4, 69, 21
5, 238904, Note_on_c, 4, 69, 0
5, 239032, Note_on_c, 4, 65, 0
5, 239032, Note_on_c, 4, 72, 0
5, 239160, Note_on_c, 4, 76, 63
5, 239160, Note_on_c, 4, 70, 56
5, 239160, Note_on_c, 4, 67, 67
5, 239160, Note_on_c, 4, 72, 64
5, 239544, Note_on_c, 4, 72, 0
5, 239544, Note_on_c, 4, 67, 0
5, 239544, Note_on_c, 4, 76, 0
5, 239672, Note_on_c, 4, 70, 0
5, 239672, Note_on_c, 4, 76, 29
5, 239672, Note_on_c, 4, 67, 32
5, 239672, Note_on_c, 4, 70, 13
5, 239672, Note_on_c, 4, 72, 32
5, 239672, Note_on_c, 4, 72, 0
5, 239800, Note_on_c, 4, 67, 0
5, 239800, Note_on_c, 4, 76, 0
5, 239928, Note_on_c, 4, 70, 0
5, 240056, Note_on_c, 4, 77, 21
5, 240056, Note_on_c, 4, 70, 18
5, 240056, Note_on_c, 4, 69, 17
5, 240056, Note_on_c, 4, 74, 26
5, 240184, Note_on_c, 4, 74, 0
5, 240184, Note_on_c, 4, 69, 0
5, 240184, Note_on_c, 4, 77, 0
5, 240184, Note_on_c, 4, 70, 0
5, 240440, Note_on_c, 4, 76, 38
5, 240440, Note_on_c, 4, 70, 31
5, 240440, Note_on_c, 4, 67, 28
5, 240440, Note_on_c, 4, 72, 31
5, 240568, Note_on_c, 4, 72, 0
5, 240568, Note_on_c, 4, 67, 0
5, 240568, Note_on_c, 4, 76, 0
5, 240696, Note_on_c, 4, 70, 0
5, 240824, Note_on_c, 4, 75, 24
5, 240824, Note_on_c, 4, 74, 37
5, 240824, Note_on_c, 4, 67, 19
5, 240952, Note_on_c, 4, 67, 0
5, 240952, Note_on_c, 4, 74, 0
5, 240952, Note_on_c, 4, 75, 0
5, 241208, Note_on_c, 4, 75, 63
5, 241208, Note_on_c, 4, 74, 86
5, 241208, Note_on_c, 4, 67, 80
5, 241336, Note_on_c, 4, 67, 0
5, 241336, Note_on_c, 4, 74, 0
5, 241336, Note_on_c, 4, 75, 0
5, 241592, Note_on_c, 4, 75, 31
5, 241592, Note_on_c, 4, 72, 33
5, 241592, Note_on_c, 4, 67, 30
5, 241720, Note_on_c, 4, 67, 0
5, 241720, Note_on_c, 4, 75, 0
5, 241848, Note_on_c, 4, 72, 0
5, 241976, Note_on_c, 4, 75, 27
5, 241976, Note_on_c, 4, 67, 28
5, 241976, Note_on_c, 4, 72, 28
5, 242104, Note_on_c, 4, 72, 0
5, 242104, Note_on_c, 4, 67, 0
5, 242104, Note_on_c, 4, 75, 0
5, 242232, Note_on_c, 4, 75, 70
5, 242232, Note_on_c, 4, 66, 84
5, 242232, Note_on_c, 4, 70, 57
5, 242616, Note_on_c, 4, 66, 0
5, 242616, Note_on_c, 4, 75, 0
5, 242616, Note_on_c, 4, 70, 0
5, 242744, Note_on_c, 4, 75, 44
5, 242744, Note_on_c, 4, 66, 33
5, 242744, Note_on_c, 4, 70, 16
5, 242872, Note_on_c, 4, 66, 0
5, 242872, Note_on_c, 4, 70, 0
5, 243000, Note_on_c, 4, 75, 0
5, 243000, Note_on_c, 4, 66, 76
5, 243000, Note_on_c, 4, 70, 28
5, 243000, Note_on_c, 4, 74, 76
5, 243384, Note_on_c, 4, 74, 0
5, 243384, Note_on_c, 4, 66, 0
5, 243384, Note_on_c, 4, 70, 0
5, 243512, Note_on_c, 4, 66, 26
5, 243512, Note_on_c, 4, 70, 14
5, 243640, Note_on_c, 4, 66, 0
5, 243768, Note_on_c, 4, 70, 0
5, 243896, Note_on_c, 4, 69, 28
5, 243896, Note_on_c, 4, 69, 0
5, 243896, Note_on_c, 4, 70, 13
5, 243896, Note_on_c, 4, 74, 28
5, 244024, Note_on_c, 4, 74, 0
5, 244144, Note_on_c, 4, 70, 0
5, 244272, Note_on_c, 4, 70, 18
5, 244272, Note_on_c, 4, 74, 28
5, 244272, Note_on_c, 4, 69, 23
5, 244400, Note_on_c, 4, 69, 0
5, 244400, Note_on_c, 4, 74, 0
5, 244528, Note_on_c, 4, 70, 0
5, 244656, Note_on_c, 4, 69, 23
5, 244656, Note_on_c, 4, 70, 14
5, 244656, Note_on_c, 4, 74, 26
5, 244784, Note_on_c, 4, 74, 0
5, 244784, Note_on_c, 4, 69, 0
5, 244912, Note_on_c, 4, 70, 0
5, 245040, Note_on_c, 4, 74, 28
5, 245040, Note_on_c, 4, 69, 23
5, 245040, Note_on_c, 4, 70, 20
5, 245168, Note_on_c, 4, 69, 0
5, 245168, Note_on_c, 4, 74, 0
5, 245168, Note_on_c, 4, 70, 0
5, 245424, Note_on_c, 4, 74, 28
5, 245424, Note_on_c, 4, 70, 21
5, 245424, Note_on_c, 4, 69, 17
5, 245552, Note_on_c, 4, 69, 0
5, 245552, Note_on_c, 4, 74, 0
5, 245552, Note_on_c, 4, 70, 0
5, 245808, Note_on_c, 4, 74, 37
5, 245808, Note_on_c, 4, 69, 27
5, 245808, Note_on_c, 4, 70, 23
5, 245936, Note_on_c, 4, 69, 0
5, 245936, Note_on_c, 4, 74, 0
5, 245936, Note_on_c, 4, 70, 0
5, 246192, Note_on_c, 4, 74, 35
5, 246192, Note_on_c, 4, 70, 18
5, 246192, Note_on_c, 4, 69, 22
5, 246320, Note_on_c, 4, 69, 0
5, 246320, Note_on_c, 4, 74, 0
5, 246448, Note_on_c, 4, 70, 0
5, 246576, Note_on_c, 4, 74, 38
5, 246576, Note_on_c, 4, 70, 20
5, 246576, Note_on_c, 4, 69, 28
5, 246704, Note_on_c, 4, 69, 0
5, 246704, Note_on_c, 4, 74, 0
5, 246704, Note_on_c, 4, 70, 0
5, 256176, Control_c, 4, 123, 0
5, 257104, Note_on_c, 4, 70, 0
5, 257104, Note_on_c, 4, 76, 0
5, 257104, Note_on_c, 4, 76, 0
5, 257104, Note_on_c, 4, 70, 0
5, 257104, Note_on_c, 4, 70, 0
5, 257104, Note_on_c, 4, 76, 0
5, 257104, End_track
6, 0, Start_track
6, 0, MIDI_port, 1
6, 0, Program_c, 5, 38
6, 0, Control_c, 5, 7, 80
6, 0, Program_c, 5, 101
6, 0, Program_c, 5, 28
6, 0, Control_c, 5, 7, 35
6, 0, Control_c, 5, 11, 127
6, 0, Control_c, 5, 64, 0
6, 0, Control_c, 5, 67, 0
6, 0, Pitch_bend_c, 5, 8192
6, 384, Control_c, 5, 7, 85
6, 1568, Note_on_c, 5, 35, 76
6, 2184, Note_on_c, 5, 47, 88
6, 2224, Note_on_c, 5, 35, 0
6, 3064, Note_on_c, 5, 35, 73
6, 3088, Note_on_c, 5, 47, 0
6, 3200, Note_on_c, 5, 35, 0
6, 3688, Note_on_c, 5, 47, 92
6, 4616, Note_on_c, 5, 47, 0
6, 4616, Note_on_c, 5, 31, 64
6, 5232, Note_on_c, 5, 43, 92
6, 5304, Note_on_c, 5, 31, 0
6, 6160, Note_on_c, 5, 31, 66
6, 6184, Note_on_c, 5, 43, 0
6, 6264, Note_on_c, 5, 31, 0
6, 6768, Note_on_c, 5, 43, 90
6, 7168, Note_on_c, 5, 33, 82
6, 7184, Note_on_c, 5, 43, 0
6, 7304, Note_on_c, 5, 33, 0
6, 7320, Note_on_c, 5, 34, 55
6, 7504, Note_on_c, 5, 34, 0
6, 7664, Note_on_c, 5, 35, 71
6, 8296, Note_on_c, 5, 47, 95
6, 8360, Note_on_c, 5, 35, 0
6, 9184, Note_on_c, 5, 47, 0
6, 9208, Note_on_c, 5, 35, 68
6, 9848, Note_on_c, 5, 47, 103
6, 9912, Note_on_c, 5, 35, 0
6, 10480, Note_on_c, 5, 33, 58
6, 10496, Note_on_c, 5, 47, 0
6, 10504, Note_on_c, 5, 33, 0
6, 10608, Note_on_c, 5, 32, 62
6, 10672, Note_on_c, 5, 32, 0
6, 10744, Note_on_c, 5, 31, 58
6, 11376, Note_on_c, 5, 43, 89
6, 11400, Note_on_c, 5, 31, 0
6, 12256, Note_on_c, 5, 43, 0
6, 12288, Note_on_c, 5, 31, 62
6, 12896, Note_on_c, 5, 43, 95
6, 12936, Note_on_c, 5, 31, 0
6, 13288, Note_on_c, 5, 33, 71
6, 13336, Note_on_c, 5, 43, 0
6, 13368, Note_on_c, 5, 33, 0
6, 13416, Note_on_c, 5, 34, 61
6, 13600, Note_on_c, 5, 34, 0
6, 13800, Note_on_c, 5, 35, 74
6, 14424, Note_on_c, 5, 47, 92
6, 14464, Note_on_c, 5, 35, 0
6, 15264, Note_on_c, 5, 47, 0
6, 15336, Note_on_c, 5, 35, 54
6, 15968, Note_on_c, 5, 47, 103
6, 16008, Note_on_c, 5, 35, 0
6, 16624, Note_on_c, 5, 33, 49
6, 16656, Note_on_c, 5, 33, 0
6, 16672, Note_on_c, 5, 47, 0
6, 16744, Note_on_c, 5, 32, 65
6, 16800, Note_on_c, 5, 32, 0
6, 16872, Note_on_c, 5, 31, 64
6, 17504, Note_on_c, 5, 43, 80
6, 17536, Note_on_c, 5, 31, 0
6, 18384, Note_on_c, 5, 43, 0
6, 18400, Note_on_c, 5, 31, 60
6, 19032, Note_on_c, 5, 43, 90
6, 19120, Note_on_c, 5, 31, 0
6, 19416, Note_on_c, 5, 43, 0
6, 19432, Note_on_c, 5, 33, 84
6, 19552, Note_on_c, 5, 33, 0
6, 19576, Note_on_c, 5, 34, 62
6, 19736, Note_on_c, 5, 34, 0
6, 19936, Note_on_c, 5, 35, 70
6, 20576, Note_on_c, 5, 47, 92
6, 20712, Note_on_c, 5, 35, 0
6, 21448, Note_on_c, 5, 47, 0
6, 21464, Note_on_c, 5, 35, 55
6, 22096, Note_on_c, 5, 47, 94
6, 22200, Note_on_c, 5, 35, 0
6, 22760, Note_on_c, 5, 33, 51
6, 22792, Note_on_c, 5, 33, 0
6, 22808, Note_on_c, 5, 47, 0
6, 22888, Note_on_c, 5, 32, 64
6, 22952, Note_on_c, 5, 32, 0
6, 23008, Note_on_c, 5, 31, 63
6, 23632, Note_on_c, 5, 43, 94
6, 23768, Note_on_c, 5, 31, 0
6, 24048, Note_on_c, 5, 31, 57
6, 24056, Note_on_c, 5, 43, 0
6, 24072, Note_on_c, 5, 31, 0
6, 24160, Note_on_c, 5, 42, 77
6, 24480, Note_on_c, 5, 42, 0
6, 24536, Note_on_c, 5, 41, 80
6, 25064, Note_on_c, 5, 36, 64
6, 25120, Note_on_c, 5, 36, 0
6, 25120, Note_on_c, 5, 41, 0
6, 25184, Note_on_c, 5, 35, 59
6, 25232, Note_on_c, 5, 35, 0
6, 25304, Note_on_c, 5, 34, 61
6, 25912, Note_on_c, 5, 38, 57
6, 25960, Note_on_c, 5, 34, 0
6, 25984, Note_on_c, 5, 38, 0
6, 26056, Note_on_c, 5, 39, 63
6, 26176, Note_on_c, 5, 39, 0
6, 26680, Note_on_c, 5, 39, 83
6, 27216, Note_on_c, 5, 34, 45
6, 27240, Note_on_c, 5, 39, 0
6, 27304, Note_on_c, 5, 34, 0
6, 27608, Note_on_c, 5, 39, 67
6, 27736, Note_on_c, 5, 39, 0
6, 28224, Note_on_c, 5, 39, 81
6, 29112, Note_on_c, 5, 39, 0
6, 29136, Note_on_c, 5, 38, 55
6, 29296, Note_on_c, 5, 52, 58
6, 29336, Note_on_c, 5, 52, 0
6, 29408, Note_on_c, 5, 53, 62
6, 29456, Note_on_c, 5, 53, 0
6, 29520, Note_on_c, 5, 54, 76
6, 29832, Note_on_c, 5, 38, 0
6, 30280, Note_on_c, 5, 45, 60
6, 30320, Note_on_c, 5, 54, 0
6, 30344, Note_on_c, 5, 45, 0
6, 30664, Note_on_c, 5, 38, 64
6, 31088, Note_on_c, 5, 38, 0
6, 31304, Note_on_c, 5, 38, 80
6, 31704, Note_on_c, 5, 45, 82
6, 31872, Note_on_c, 5, 38, 0
6, 31960, Note_on_c, 5, 45, 0
6, 31984, Note_on_c, 5, 44, 59
6, 32048, Note_on_c, 5, 44, 0
6, 32096, Note_on_c, 5, 38, 62
6, 32120, Note_on_c, 5, 38, 0
6, 32224, Note_on_c, 5, 43, 80
6, 32832, Note_on_c, 5, 31, 83
6, 32872, Note_on_c, 5, 43, 0
6, 33608, Note_on_c, 5, 38, 34
6, 33640, Note_on_c, 5, 38, 0
6, 33704, Note_on_c, 5, 31, 0
6, 33736, Note_on_c, 5, 43, 73
6, 33904, Note_on_c, 5, 43, 0
6, 34360, Note_on_c, 5, 43, 82
6, 34776, Note_on_c, 5, 38, 61
6, 34864, Note_on_c, 5, 38, 0
6, 34880, Note_on_c, 5, 43, 0
6, 34912, Note_on_c, 5, 37, 42
6, 35032, Note_on_c, 5, 37, 0
6, 35272, Note_on_c, 5, 36, 62
6, 35560, Note_on_c, 5, 36, 0
6, 35896, Note_on_c, 5, 36, 90
6, 36696, Note_on_c, 5, 43, 38
6, 36744, Note_on_c, 5, 43, 0
6, 36824, Note_on_c, 5, 48, 74
6, 36984, Note_on_c, 5, 48, 0
6, 37440, Note_on_c, 5, 48, 84
6, 37544, Note_on_c, 5, 36, 0
6, 38112, Note_on_c, 5, 34, 59
6, 38144, Note_on_c, 5, 48, 0
6, 38184, Note_on_c, 5, 34, 0
6, 38248, Note_on_c, 5, 35, 54
6, 38336, Note_on_c, 5, 35, 0
6, 38368, Note_on_c, 5, 36, 66
6, 38976, Note_on_c, 5, 43, 89
6, 39008, Note_on_c, 5, 36, 0
6, 39344, Note_on_c, 5, 36, 50
6, 39400, Note_on_c, 5, 43, 0
6, 39416, Note_on_c, 5, 36, 0
6, 39472, Note_on_c, 5, 37, 46
6, 39848, Note_on_c, 5, 37, 0
6, 39880, Note_on_c, 5, 38, 57
6, 40496, Note_on_c, 5, 50, 92
6, 40632, Note_on_c, 5, 38, 0
6, 40904, Note_on_c, 5, 38, 51
6, 40952, Note_on_c, 5, 38, 0
6, 40960, Note_on_c, 5, 50, 0
6, 41032, Note_on_c, 5, 44, 62
6, 41240, Note_on_c, 5, 44, 0
6, 41408, Note_on_c, 5, 43, 62
6, 41880, Note_on_c, 5, 43, 0
6, 42024, Note_on_c, 5, 43, 67
6, 42312, Note_on_c, 5, 38, 54
6, 42360, Note_on_c, 5, 38, 0
6, 42376, Note_on_c, 5, 43, 0
6, 42424, Note_on_c, 5, 32, 63
6, 42488, Note_on_c, 5, 32, 0
6, 42552, Note_on_c, 5, 32, 69
6, 42888, Note_on_c, 5, 32, 0
6, 42936, Note_on_c, 5, 31, 65
6, 43576, Note_on_c, 5, 38, 80
6, 43608, Note_on_c, 5, 31, 0
6, 43960, Note_on_c, 5, 43, 71
6, 44056, Note_on_c, 5, 38, 0
6, 44216, Note_on_c, 5, 43, 0
6, 44240, Note_on_c, 5, 34, 60
6, 44312, Note_on_c, 5, 34, 0
6, 44352, Note_on_c, 5, 35, 66
6, 44440, Note_on_c, 5, 35, 0
6, 44480, Note_on_c, 5, 36, 66
6, 44584, Note_on_c, 5, 36, 0
6, 45096, Note_on_c, 5, 36, 84
6, 45728, Note_on_c, 5, 36, 0
6, 45792, Note_on_c, 5, 36, 64
6, 45840, Note_on_c, 5, 36, 0
6, 45888, Note_on_c, 5, 37, 52
6, 45984, Note_on_c, 5, 37, 0
6, 46016, Note_on_c, 5, 38, 62
6, 46464, Note_on_c, 5, 38, 0
6, 46640, Note_on_c, 5, 38, 83
6, 47024, Note_on_c, 5, 45, 65
6, 47064, Note_on_c, 5, 45, 0
6, 47160, Note_on_c, 5, 44, 51
6, 47168, Note_on_c, 5, 38, 0
6, 47232, Note_on_c, 5, 44, 0
6, 47424, Note_on_c, 5, 42, 42
6, 47496, Note_on_c, 5, 42, 0
6, 47552, Note_on_c, 5, 43, 57
6, 47728, Note_on_c, 5, 43, 0
6, 48184, Note_on_c, 5, 43, 74
6, 49080, Note_on_c, 5, 31, 60
6, 49088, Note_on_c, 5, 43, 0
6, 49432, Note_on_c, 5, 31, 0
6, 49712, Note_on_c, 5, 31, 83
6, 50088, Note_on_c, 5, 34, 68
6, 50096, Note_on_c, 5, 31, 0
6, 50160, Note_on_c, 5, 34, 0
6, 50232, Note_on_c, 5, 35, 54
6, 50384, Note_on_c, 5, 35, 0
6, 50616, Note_on_c, 5, 36, 75
6, 50800, Note_on_c, 5, 36, 0
6, 51248, Note_on_c, 5, 48, 90
6, 52024, Note_on_c, 5, 37, 62
6, 52040, Note_on_c, 5, 48, 0
6, 52128, Note_on_c, 5, 37, 0
6, 52168, Note_on_c, 5, 38, 55
6, 52296, Note_on_c, 5, 52, 59
6, 52320, Note_on_c, 5, 52, 0
6, 52416, Note_on_c, 5, 53, 69
6, 52472, Note_on_c, 5, 53, 0
6, 52552, Note_on_c, 5, 54, 71
6, 52720, Note_on_c, 5, 38, 0
6, 52776, Note_on_c, 5, 38, 80
6, 52792, Note_on_c, 5, 54, 0
6, 52840, Note_on_c, 5, 38, 0
6, 53176, Note_on_c, 5, 38, 81
6, 53456, Note_on_c, 5, 38, 0
6, 53488, Note_on_c, 5, 45, 64
6, 53488, Note_on_c, 5, 47, 51
6, 53512, Note_on_c, 5, 47, 0
6, 53536, Note_on_c, 5, 45, 0
6, 53576, Note_on_c, 5, 38, 69
6, 53624, Note_on_c, 5, 38, 0
6, 53696, Note_on_c, 5, 43, 82
6, 53832, Note_on_c, 5, 43, 0
6, 54312, Note_on_c, 5, 43, 80
6, 54976, Note_on_c, 5, 34, 64
6, 55032, Note_on_c, 5, 34, 0
6, 55048, Note_on_c, 5, 43, 0
6, 55088, Note_on_c, 5, 35, 66
6, 55176, Note_on_c, 5, 35, 0
6, 55208, Note_on_c, 5, 36, 79
6, 55544, Note_on_c, 5, 36, 0
6, 55840, Note_on_c, 5, 36, 94
6, 56552, Note_on_c, 5, 36, 0
6, 56616, Note_on_c, 5, 35, 66
6, 56704, Note_on_c, 5, 35, 0
6, 56752, Note_on_c, 5, 36, 71
6, 56880, Note_on_c, 5, 36, 0
6, 57376, Note_on_c, 5, 36, 83
6, 58136, Note_on_c, 5, 37, 54
6, 58152, Note_on_c, 5, 36, 0
6, 58232, Note_on_c, 5, 37, 0
6, 58296, Note_on_c, 5, 38, 62
6, 58352, Note_on_c, 5, 38, 0
6, 58920, Note_on_c, 5, 38, 76
6, 59296, Note_on_c, 5, 45, 83
6, 59368, Note_on_c, 5, 38, 0
6, 59384, Note_on_c, 5, 45, 0
6, 59432, Note_on_c, 5, 42, 57
6, 59680, Note_on_c, 5, 42, 0
6, 59824, Note_on_c, 5, 43, 55
6, 59936, Note_on_c, 5, 43, 0
6, 60448, Note_on_c, 5, 43, 71
6, 61240, Note_on_c, 5, 38, 34
6, 61272, Note_on_c, 5, 38, 0
6, 61312, Note_on_c, 5, 43, 0
6, 61360, Note_on_c, 5, 31, 59
6, 61480, Note_on_c, 5, 31, 0
6, 61984, Note_on_c, 5, 38, 71
6, 62072, Note_on_c, 5, 38, 0
6, 62352, Note_on_c, 5, 31, 85
6, 62432, Note_on_c, 5, 31, 0
6, 62480, Note_on_c, 5, 33, 62
6, 62544, Note_on_c, 5, 33, 0
6, 62736, Note_on_c, 5, 34, 69
6, 62800, Note_on_c, 5, 34, 0
6, 62872, Note_on_c, 5, 35, 70
6, 63064, Note_on_c, 5, 35, 0
6, 63496, Note_on_c, 5, 35, 77
6, 64288, Note_on_c, 5, 35, 0
6, 64320, Note_on_c, 5, 33, 20
6, 64344, Note_on_c, 5, 33, 0
6, 64424, Note_on_c, 5, 35, 70
6, 64480, Note_on_c, 5, 35, 0
6, 65048, Note_on_c, 5, 47, 87
6, 65840, Note_on_c, 5, 47, 0
6, 65856, Note_on_c, 5, 32, 30
6, 65888, Note_on_c, 5, 32, 0
6, 65960, Note_on_c, 5, 31, 60
6, 66592, Note_on_c, 5, 43, 90
6, 66616, Note_on_c, 5, 31, 0
6, 67488, Note_on_c, 5, 43, 0
6, 67520, Note_on_c, 5, 31, 56
6, 67552, Note_on_c, 5, 31, 0
6, 68104, Note_on_c, 5, 43, 78
6, 68496, Note_on_c, 5, 43, 0
6, 68512, Note_on_c, 5, 33, 89
6, 68600, Note_on_c, 5, 33, 0
6, 68656, Note_on_c, 5, 34, 60
6, 68768, Note_on_c, 5, 34, 0
6, 68912, Note_on_c, 5, 34, 60
6, 68968, Note_on_c, 5, 34, 0
6, 69024, Note_on_c, 5, 35, 62
6, 69656, Note_on_c, 5, 47, 57
6, 70208, Note_on_c, 5, 35, 0
6, 70528, Note_on_c, 5, 47, 0
6, 70552, Note_on_c, 5, 35, 66
6, 70768, Note_on_c, 5, 35, 0
6, 71200, Note_on_c, 5, 47, 91
6, 71616, Note_on_c, 5, 33, 67
6, 71624, Note_on_c, 5, 35, 31
6, 71648, Note_on_c, 5, 35, 0
6, 71648, Note_on_c, 5, 47, 0
6, 71744, Note_on_c, 5, 33, 0
6, 71752, Note_on_c, 5, 32, 52
6, 71824, Note_on_c, 5, 32, 0
6, 72096, Note_on_c, 5, 31, 57
6, 72728, Note_on_c, 5, 43, 88
6, 72776, Note_on_c, 5, 31, 0
6, 73480, Note_on_c, 5, 31, 58
6, 73520, Note_on_c, 5, 31, 0
6, 73568, Note_on_c, 5, 43, 0
6, 73616, Note_on_c, 5, 29, 64
6, 74224, Note_on_c, 5, 29, 0
6, 74240, Note_on_c, 5, 34, 81
6, 74656, Note_on_c, 5, 41, 87
6, 74696, Note_on_c, 5, 34, 0
6, 74728, Note_on_c, 5, 41, 0
6, 74800, Note_on_c, 5, 38, 30
6, 75032, Note_on_c, 5, 34, 46
6, 75064, Note_on_c, 5, 38, 0
6, 75096, Note_on_c, 5, 34, 0
6, 75160, Note_on_c, 5, 39, 51
6, 75344, Note_on_c, 5, 39, 0
6, 75784, Note_on_c, 5, 39, 69
6, 76432, Note_on_c, 5, 32, 39
6, 76464, Note_on_c, 5, 32, 0
6, 76520, Note_on_c, 5, 39, 0
6, 76544, Note_on_c, 5, 33, 51
6, 76616, Note_on_c, 5, 33, 0
6, 76680, Note_on_c, 5, 34, 72
6, 76808, Note_on_c, 5, 34, 0
6, 76928, Note_on_c, 5, 39, 62
6, 76976, Note_on_c, 5, 39, 0
6, 77320, Note_on_c, 5, 39, 83
6, 77968, Note_on_c, 5, 36, 31
6, 77992, Note_on_c, 5, 39, 0
6, 78056, Note_on_c, 5, 36, 0
6, 78088, Note_on_c, 5, 37, 51
6, 78184, Note_on_c, 5, 37, 0
6, 78232, Note_on_c, 5, 38, 47
6, 78360, Note_on_c, 5, 52, 65
6, 78384, Note_on_c, 5, 52, 0
6, 78464, Note_on_c, 5, 54, 73
6, 78488, Note_on_c, 5, 54, 0
6, 78496, Note_on_c, 5, 53, 63
6, 78576, Note_on_c, 5, 53, 0
6, 78616, Note_on_c, 5, 54, 79
6, 78832, Note_on_c, 5, 38, 0
6, 78896, Note_on_c, 5, 38, 60
6, 78912, Note_on_c, 5, 54, 0
6, 78952, Note_on_c, 5, 38, 0
6, 79264, Note_on_c, 5, 38, 77
6, 79336, Note_on_c, 5, 38, 0
6, 79632, Note_on_c, 5, 36, 57
6, 79656, Note_on_c, 5, 36, 0
6, 79760, Note_on_c, 5, 38, 62
6, 79880, Note_on_c, 5, 38, 0
6, 80384, Note_on_c, 5, 38, 68
6, 81024, Note_on_c, 5, 41, 45
6, 81072, Note_on_c, 5, 38, 0
6, 81080, Note_on_c, 5, 41, 0
6, 81136, Note_on_c, 5, 42, 59
6, 81208, Note_on_c, 5, 42, 0
6, 81272, Note_on_c, 5, 43, 75
6, 81360, Note_on_c, 5, 43, 0
6, 81920, Note_on_c, 5, 43, 92
6, 82304, Note_on_c, 5, 38, 57
6, 82376, Note_on_c, 5, 38, 0
6, 82424, Note_on_c, 5, 43, 0
6, 82448, Note_on_c, 5, 32, 42
6, 82752, Note_on_c, 5, 32, 0
6, 82832, Note_on_c, 5, 31, 59
6, 82968, Note_on_c, 5, 31, 0
6, 83440, Note_on_c, 5, 31, 68
6, 83856, Note_on_c, 5, 31, 0
6, 83856, Note_on_c, 5, 38, 64
6, 84136, Note_on_c, 5, 34, 56
6, 84152, Note_on_c, 5, 38, 0
6, 84208, Note_on_c, 5, 34, 0
6, 84248, Note_on_c, 5, 35, 78
6, 84328, Note_on_c, 5, 35, 0
6, 84360, Note_on_c, 5, 36, 76
6, 84784, Note_on_c, 5, 36, 0
6, 84976, Note_on_c, 5, 36, 72
6, 85392, Note_on_c, 5, 43, 43
6, 85424, Note_on_c, 5, 43, 0
6, 85512, Note_on_c, 5, 48, 50
6, 85568, Note_on_c, 5, 48, 0
6, 85632, Note_on_c, 5, 50, 73
6, 85720, Note_on_c, 5, 50, 0
6, 85744, Note_on_c, 5, 48, 76
6, 85800, Note_on_c, 5, 36, 0
6, 85824, Note_on_c, 5, 48, 0
6, 85888, Note_on_c, 5, 36, 68
6, 85944, Note_on_c, 5, 36, 0
6, 86272, Note_on_c, 5, 36, 43
6, 86296, Note_on_c, 5, 36, 0
6, 86504, Note_on_c, 5, 36, 84
6, 87168, Note_on_c, 5, 34, 57
6, 87192, Note_on_c, 5, 36, 0
6, 87256, Note_on_c, 5, 34, 0
6, 87320, Note_on_c, 5, 35, 59
6, 87392, Note_on_c, 5, 35, 0
6, 87448, Note_on_c, 5, 36, 63
6, 87512, Note_on_c, 5, 36, 0
6, 88064, Note_on_c, 5, 36, 87
6, 88808, Note_on_c, 5, 37, 49
6, 88816, Note_on_c, 5, 36, 0
6, 88928, Note_on_c, 5, 37, 0
6, 88952, Note_on_c, 5, 38, 56
6, 89088, Note_on_c, 5, 52, 48
6, 89152, Note_on_c, 5, 52, 0
6, 89208, Note_on_c, 5, 53, 39
6, 89312, Note_on_c, 5, 53, 0
6, 89360, Note_on_c, 5, 54, 69
6, 89440, Note_on_c, 5, 38, 0
6, 89592, Note_on_c, 5, 38, 74
6, 89600, Note_on_c, 5, 54, 0
6, 90320, Note_on_c, 5, 38, 0
6, 90376, Note_on_c, 5, 42, 40
6, 90472, Note_on_c, 5, 42, 0
6, 90512, Note_on_c, 5, 43, 69
6, 90592, Note_on_c, 5, 43, 0
6, 91120, Note_on_c, 5, 43, 81
6, 91504, Note_on_c, 5, 38, 48
6, 91528, Note_on_c, 5, 43, 0
6, 91536, Note_on_c, 5, 38, 0
6, 91624, Note_on_c, 5, 32, 45
6, 91976, Note_on_c, 5, 32, 0
6, 92024, Note_on_c, 5, 31, 62
6, 92136, Note_on_c, 5, 31, 0
6, 92648, Note_on_c, 5, 31, 81
6, 93048, Note_on_c, 5, 31, 0
6, 93056, Note_on_c, 5, 38, 80
6, 93328, Note_on_c, 5, 38, 0
6, 93328, Note_on_c, 5, 34, 61
6, 93392, Note_on_c, 5, 34, 0
6, 93440, Note_on_c, 5, 35, 69
6, 93536, Note_on_c, 5, 35, 0
6, 93584, Note_on_c, 5, 36, 74
6, 93696, Note_on_c, 5, 36, 0
6, 94192, Note_on_c, 5, 36, 83
6, 94584, Note_on_c, 5, 45, 82
6, 94672, Note_on_c, 5, 45, 0
6, 94688, Note_on_c, 5, 36, 0
6, 94720, Note_on_c, 5, 43, 52
6, 94888, Note_on_c, 5, 43, 0
6, 94968, Note_on_c, 5, 37, 57
6, 95056, Note_on_c, 5, 37, 0
6, 95104, Note_on_c, 5, 38, 59
6, 95288, Note_on_c, 5, 38, 0
6, 95728, Note_on_c, 5, 38, 83
6, 96400, Note_on_c, 5, 50, 69
6, 96408, Note_on_c, 5, 38, 0
6, 96456, Note_on_c, 5, 50, 0
6, 96528, Note_on_c, 5, 38, 53
6, 96568, Note_on_c, 5, 38, 0
6, 96648, Note_on_c, 5, 43, 66
6, 96776, Note_on_c, 5, 43, 0
6, 97264, Note_on_c, 5, 43, 68
6, 98040, Note_on_c, 5, 38, 55
6, 98064, Note_on_c, 5, 38, 0
6, 98064, Note_on_c, 5, 43, 0
6, 98168, Note_on_c, 5, 31, 68
6, 98320, Note_on_c, 5, 31, 0
6, 98800, Note_on_c, 5, 31, 81
6, 99128, Note_on_c, 5, 31, 0
6, 99184, Note_on_c, 5, 34, 72
6, 99200, Note_on_c, 5, 35, 65
6, 99240, Note_on_c, 5, 34, 0
6, 99248, Note_on_c, 5, 35, 0
6, 99568, Note_on_c, 5, 35, 69
6, 99664, Note_on_c, 5, 35, 0
6, 99712, Note_on_c, 5, 36, 67
6, 99800, Note_on_c, 5, 36, 0
6, 100336, Note_on_c, 5, 36, 94
6, 100696, Note_on_c, 5, 36, 0
6, 100728, Note_on_c, 5, 35, 52
6, 100800, Note_on_c, 5, 35, 0
6, 100864, Note_on_c, 5, 36, 64
6, 100896, Note_on_c, 5, 36, 0
6, 101112, Note_on_c, 5, 37, 62
6, 101184, Note_on_c, 5, 37, 0
6, 101256, Note_on_c, 5, 38, 63
6, 101360, Note_on_c, 5, 38, 0
6, 101864, Note_on_c, 5, 38, 81
6, 102256, Note_on_c, 5, 53, 74
6, 102416, Note_on_c, 5, 38, 0
6, 102496, Note_on_c, 5, 53, 0
6, 102520, Note_on_c, 5, 48, 58
6, 102544, Note_on_c, 5, 48, 0
6, 102616, Note_on_c, 5, 42, 60
6, 102712, Note_on_c, 5, 42, 0
6, 102760, Note_on_c, 5, 43, 56
6, 102880, Note_on_c, 5, 43, 0
6, 103392, Note_on_c, 5, 43, 76
6, 103760, Note_on_c, 5, 43, 0
6, 103776, Note_on_c, 5, 38, 53
6, 103808, Note_on_c, 5, 38, 0
6, 103920, Note_on_c, 5, 35, 49
6, 103936, Note_on_c, 5, 36, 32
6, 103960, Note_on_c, 5, 36, 0
6, 104136, Note_on_c, 5, 35, 0
6, 104160, Note_on_c, 5, 36, 92
6, 104552, Note_on_c, 5, 36, 0
6, 104920, Note_on_c, 5, 36, 91
6, 105656, Note_on_c, 5, 36, 0
6, 105712, Note_on_c, 5, 35, 57
6, 105784, Note_on_c, 5, 35, 0
6, 105856, Note_on_c, 5, 36, 74
6, 105968, Note_on_c, 5, 36, 0
6, 106464, Note_on_c, 5, 36, 92
6, 107200, Note_on_c, 5, 36, 0
6, 107240, Note_on_c, 5, 37, 57
6, 107304, Note_on_c, 5, 37, 0
6, 107392, Note_on_c, 5, 38, 60
6, 107496, Note_on_c, 5, 38, 0
6, 108016, Note_on_c, 5, 38, 85
6, 108400, Note_on_c, 5, 34, 38
6, 108464, Note_on_c, 5, 38, 0
6, 108472, Note_on_c, 5, 34, 0
6, 108528, Note_on_c, 5, 45, 40
6, 108768, Note_on_c, 5, 38, 61
6, 108800, Note_on_c, 5, 38, 0
6, 108800, Note_on_c, 5, 45, 0
6, 108896, Note_on_c, 5, 43, 48
6, 109064, Note_on_c, 5, 43, 0
6, 109536, Note_on_c, 5, 43, 66
6, 109944, Note_on_c, 5, 38, 35
6, 109976, Note_on_c, 5, 43, 0
6, 110008, Note_on_c, 5, 38, 0
6, 110048, Note_on_c, 5, 32, 46
6, 110304, Note_on_c, 5, 32, 0
6, 110440, Note_on_c, 5, 31, 54
6, 110688, Note_on_c, 5, 31, 0
6, 111056, Note_on_c, 5, 31, 72
6, 111688, Note_on_c, 5, 31, 0
6, 111720, Note_on_c, 5, 33, 69
6, 111776, Note_on_c, 5, 33, 0
6, 111840, Note_on_c, 5, 34, 78
6, 111920, Note_on_c, 5, 34, 0
6, 111976, Note_on_c, 5, 35, 83
6, 112064, Note_on_c, 5, 35, 0
6, 112592, Note_on_c, 5, 35, 66
6, 113168, Note_on_c, 5, 47, 50
6, 113232, Note_on_c, 5, 47, 0
6, 113272, Note_on_c, 5, 48, 63
6, 113288, Note_on_c, 5, 35, 0
6, 113360, Note_on_c, 5, 48, 0
6, 113392, Note_on_c, 5, 47, 55
6, 113432, Note_on_c, 5, 47, 0
6, 113512, Note_on_c, 5, 35, 47
6, 113648, Note_on_c, 5, 35, 0
6, 114120, Note_on_c, 5, 35, 80
6, 114512, Note_on_c, 5, 33, 56
6, 114520, Note_on_c, 5, 35, 0
6, 114568, Note_on_c, 5, 33, 0
6, 114656, Note_on_c, 5, 32, 51
6, 114752, Note_on_c, 5, 32, 0
6, 115032, Note_on_c, 5, 31, 65
6, 115208, Note_on_c, 5, 31, 0
6, 115672, Note_on_c, 5, 31, 88
6, 116448, Note_on_c, 5, 38, 46
6, 116480, Note_on_c, 5, 38, 0
6, 116480, Note_on_c, 5, 31, 0
6, 116568, Note_on_c, 5, 43, 55
6, 116704, Note_on_c, 5, 43, 0
6, 117208, Note_on_c, 5, 43, 68
6, 117584, Note_on_c, 5, 43, 0
6, 117600, Note_on_c, 5, 33, 94
6, 117752, Note_on_c, 5, 34, 72
6, 117760, Note_on_c, 5, 33, 0
6, 117816, Note_on_c, 5, 34, 0
6, 117976, Note_on_c, 5, 34, 65
6, 118048, Note_on_c, 5, 34, 0
6, 118112, Note_on_c, 5, 35, 63
6, 118224, Note_on_c, 5, 35, 0
6, 118728, Note_on_c, 5, 35, 81
6, 119488, Note_on_c, 5, 35, 0
6, 119504, Note_on_c, 5, 34, 54
6, 119568, Note_on_c, 5, 34, 0
6, 119640, Note_on_c, 5, 35, 56
6, 120024, Note_on_c, 5, 42, 28
6, 120072, Note_on_c, 5, 42, 0
6, 120288, Note_on_c, 5, 47, 81
6, 120320, Note_on_c, 5, 35, 0
6, 120912, Note_on_c, 5, 47, 0
6, 120952, Note_on_c, 5, 33, 71
6, 121016, Note_on_c, 5, 33, 0
6, 121064, Note_on_c, 5, 32, 59
6, 121112, Note_on_c, 5, 32, 0
6, 121192, Note_on_c, 5, 31, 71
6, 121296, Note_on_c, 5, 31, 0
6, 121800, Note_on_c, 5, 31, 74
6, 122520, Note_on_c, 5, 31, 0
6, 122576, Note_on_c, 5, 31, 49
6, 122608, Note_on_c, 5, 31, 0
6, 122704, Note_on_c, 5, 41, 72
6, 123096, Note_on_c, 5, 41, 0
6, 123096, Note_on_c, 5, 36, 58
6, 123296, Note_on_c, 5, 36, 0
6, 123328, Note_on_c, 5, 34, 79
6, 123744, Note_on_c, 5, 38, 48
6, 123768, Note_on_c, 5, 38, 0
6, 123808, Note_on_c, 5, 34, 0
6, 123864, Note_on_c, 5, 46, 58
6, 124048, Note_on_c, 5, 46, 0
6, 124120, Note_on_c, 5, 38, 54
6, 124192, Note_on_c, 5, 38, 0
6, 124248, Note_on_c, 5, 39, 71
6, 124792, Note_on_c, 5, 39, 0
6, 124848, Note_on_c, 5, 34, 77
6, 125648, Note_on_c, 5, 38, 58
6, 125656, Note_on_c, 5, 34, 0
6, 125672, Note_on_c, 5, 38, 0
6, 125768, Note_on_c, 5, 39, 61
6, 125904, Note_on_c, 5, 39, 0
6, 126400, Note_on_c, 5, 39, 75
6, 126784, Note_on_c, 5, 36, 71
6, 126816, Note_on_c, 5, 39, 0
6, 126848, Note_on_c, 5, 36, 0
6, 126920, Note_on_c, 5, 37, 64
6, 127104, Note_on_c, 5, 37, 0
6, 127328, Note_on_c, 5, 38, 71
6, 127400, Note_on_c, 5, 38, 0
6, 127936, Note_on_c, 5, 38, 75
6, 128360, Note_on_c, 5, 45, 28
6, 128392, Note_on_c, 5, 45, 0
6, 128480, Note_on_c, 5, 50, 54
6, 128536, Note_on_c, 5, 50, 0
6, 128576, Note_on_c, 5, 52, 63
6, 128656, Note_on_c, 5, 52, 0
6, 128696, Note_on_c, 5, 50, 68
6, 128712, Note_on_c, 5, 38, 0
6, 128736, Note_on_c, 5, 50, 0
6, 128824, Note_on_c, 5, 38, 64
6, 128896, Note_on_c, 5, 38, 0
6, 129464, Note_on_c, 5, 38, 82
6, 129968, Note_on_c, 5, 38, 0
6, 130016, Note_on_c, 5, 45, 69
6, 130088, Note_on_c, 5, 45, 0
6, 130224, Note_on_c, 5, 38, 68
6, 130272, Note_on_c, 5, 38, 0
6, 130352, Note_on_c, 5, 43, 77
6, 130512, Note_on_c, 5, 43, 0
6, 130992, Note_on_c, 5, 43, 74
6, 131248, Note_on_c, 5, 43, 0
6, 131264, Note_on_c, 5, 38, 54
6, 131312, Note_on_c, 5, 38, 0
6, 131400, Note_on_c, 5, 30, 43
6, 131440, Note_on_c, 5, 30, 0
6, 131528, Note_on_c, 5, 31, 68
6, 131880, Note_on_c, 5, 31, 0
6, 131912, Note_on_c, 5, 38, 54
6, 131952, Note_on_c, 5, 38, 0
6, 132520, Note_on_c, 5, 43, 82
6, 132928, Note_on_c, 5, 38, 50
6, 132992, Note_on_c, 5, 43, 0
6, 133016, Note_on_c, 5, 38, 0
6, 133048, Note_on_c, 5, 34, 37
6, 133064, Note_on_c, 5, 34, 0
6, 133312, Note_on_c, 5, 35, 58
6, 133384, Note_on_c, 5, 35, 0
6, 133448, Note_on_c, 5, 36, 68
6, 133576, Note_on_c, 5, 36, 0
6, 134064, Note_on_c, 5, 36, 94
6, 134848, Note_on_c, 5, 43, 36
6, 134912, Note_on_c, 5, 43, 0
6, 134992, Note_on_c, 5, 48, 68
6, 135000, Note_on_c, 5, 36, 0
6, 135176, Note_on_c, 5, 48, 0
6, 135616, Note_on_c, 5, 48, 87
6, 135992, Note_on_c, 5, 34, 43
6, 136040, Note_on_c, 5, 48, 0
6, 136096, Note_on_c, 5, 34, 0
6, 136136, Note_on_c, 5, 35, 42
6, 136464, Note_on_c, 5, 35, 0
6, 136504, Note_on_c, 5, 36, 57
6, 136640, Note_on_c, 5, 36, 0
6, 137136, Note_on_c, 5, 36, 90
6, 137704, Note_on_c, 5, 36, 0
6, 137832, Note_on_c, 5, 37, 35
6, 137856, Note_on_c, 5, 37, 0
6, 137952, Note_on_c, 5, 37, 25
6, 138024, Note_on_c, 5, 37, 0
6, 138072, Note_on_c, 5, 38, 40
6, 138080, Note_on_c, 5, 40, 36
6, 138112, Note_on_c, 5, 40, 0
6, 138440, Note_on_c, 5, 38, 0
6, 138672, Note_on_c, 5, 38, 75
6, 138928, Note_on_c, 5, 45, 43
6, 138952, Note_on_c, 5, 38, 0
6, 138976, Note_on_c, 5, 45, 0
6, 139056, Note_on_c, 5, 38, 51
6, 139104, Note_on_c, 5, 38, 0
6, 139184, Note_on_c, 5, 42, 52
6, 139248, Note_on_c, 5, 42, 0
6, 139312, Note_on_c, 5, 45, 40
6, 139360, Note_on_c, 5, 45, 0
6, 139576, Note_on_c, 5, 43, 66
6, 139824, Note_on_c, 5, 43, 0
6, 140176, Note_on_c, 5, 43, 67
6, 140456, Note_on_c, 5, 43, 0
6, 140472, Note_on_c, 5, 38, 58
6, 140504, Note_on_c, 5, 38, 0
6, 140600, Note_on_c, 5, 30, 64
6, 140640, Note_on_c, 5, 30, 0
6, 140728, Note_on_c, 5, 30, 51
6, 140936, Note_on_c, 5, 30, 0
6, 140976, Note_on_c, 5, 31, 76
6, 141472, Note_on_c, 5, 31, 0
6, 141736, Note_on_c, 5, 31, 80
6, 142144, Note_on_c, 5, 38, 76
6, 142184, Note_on_c, 5, 31, 0
6, 142256, Note_on_c, 5, 38, 0
6, 142296, Note_on_c, 5, 43, 51
6, 142384, Note_on_c, 5, 43, 0
6, 142528, Note_on_c, 5, 35, 60
6, 142616, Note_on_c, 5, 35, 0
6, 142656, Note_on_c, 5, 36, 65
6, 142808, Note_on_c, 5, 36, 0
6, 143288, Note_on_c, 5, 36, 91
6, 143680, Note_on_c, 5, 34, 35
6, 143728, Note_on_c, 5, 36, 0
6, 143752, Note_on_c, 5, 34, 0
6, 143792, Note_on_c, 5, 37, 47
6, 143976, Note_on_c, 5, 37, 0
6, 144056, Note_on_c, 5, 34, 42
6, 144128, Note_on_c, 5, 34, 0
6, 144184, Note_on_c, 5, 38, 50
6, 144456, Note_on_c, 5, 37, 33
6, 144480, Note_on_c, 5, 37, 0
6, 144560, Note_on_c, 5, 52, 39
6, 144592, Note_on_c, 5, 52, 0
6, 144816, Note_on_c, 5, 54, 79
6, 145016, Note_on_c, 5, 38, 0
6, 145576, Note_on_c, 5, 54, 0
6, 145584, Note_on_c, 5, 38, 74
6, 145632, Note_on_c, 5, 38, 0
6, 145712, Note_on_c, 5, 43, 60
6, 145816, Note_on_c, 5, 43, 0
6, 146344, Note_on_c, 5, 43, 72
6, 147120, Note_on_c, 5, 38, 57
6, 147144, Note_on_c, 5, 38, 0
6, 147256, Note_on_c, 5, 31, 67
6, 147344, Note_on_c, 5, 43, 0
6, 147352, Note_on_c, 5, 31, 0
6, 147880, Note_on_c, 5, 31, 77
6, 148280, Note_on_c, 5, 43, 74
6, 148352, Note_on_c, 5, 31, 0
6, 148520, Note_on_c, 5, 43, 0
6, 148528, Note_on_c, 5, 34, 55
6, 148600, Note_on_c, 5, 34, 0
6, 148648, Note_on_c, 5, 35, 68
6, 148728, Note_on_c, 5, 35, 0
6, 148792, Note_on_c, 5, 36, 71
6, 148960, Note_on_c, 5, 36, 0
6, 149424, Note_on_c, 5, 36, 83
6, 149800, Note_on_c, 5, 43, 92
6, 149864, Note_on_c, 5, 36, 0
6, 149904, Note_on_c, 5, 43, 0
6, 150080, Note_on_c, 5, 36, 63
6, 150144, Note_on_c, 5, 36, 0
6, 150200, Note_on_c, 5, 37, 58
6, 150272, Note_on_c, 5, 37, 0
6, 150344, Note_on_c, 5, 38, 66
6, 150504, Note_on_c, 5, 38, 0
6, 150952, Note_on_c, 5, 38, 82
6, 151088, Note_on_c, 5, 38, 0
6, 151112, Note_on_c, 5, 45, 45
6, 151360, Note_on_c, 5, 38, 54
6, 151368, Note_on_c, 5, 45, 0
6, 151392, Note_on_c, 5, 38, 0
6, 151464, Note_on_c, 5, 42, 42
6, 151728, Note_on_c, 5, 38, 38
6, 151760, Note_on_c, 5, 38, 0
6, 151768, Note_on_c, 5, 42, 0
6, 151856, Note_on_c, 5, 43, 53
6, 151976, Note_on_c, 5, 43, 0
6, 152496, Note_on_c, 5, 43, 77
6, 152888, Note_on_c, 5, 38, 70
6, 152960, Note_on_c, 5, 38, 0
6, 152976, Note_on_c, 5, 43, 0
6, 153016, Note_on_c, 5, 34, 53
6, 153080, Note_on_c, 5, 34, 0
6, 153256, Note_on_c, 5, 36, 89
6, 153816, Note_on_c, 5, 36, 0
6, 154024, Note_on_c, 5, 36, 99
6, 154664, Note_on_c, 5, 34, 50
6, 154680, Note_on_c, 5, 36, 0
6, 154728, Note_on_c, 5, 34, 0
6, 154808, Note_on_c, 5, 35, 54
6, 154896, Note_on_c, 5, 35, 0
6, 154952, Note_on_c, 5, 36, 61
6, 155272, Note_on_c, 5, 36, 0
6, 155544, Note_on_c, 5, 36, 80
6, 156192, Note_on_c, 5, 36, 0
6, 156192, Note_on_c, 5, 43, 66
6, 156232, Note_on_c, 5, 43, 0
6, 156328, Note_on_c, 5, 37, 59
6, 156400, Note_on_c, 5, 37, 0
6, 156472, Note_on_c, 5, 38, 64
6, 156648, Note_on_c, 5, 38, 0
6, 157080, Note_on_c, 5, 38, 83
6, 157080, Note_on_c, 5, 38, 0
6, 157080, Note_on_c, 5, 38, 0
6, 157080, Note_on_c, 5, 38, 0
6, 157080, Note_on_c, 5, 38, 0
6, 157080, Note_on_c, 5, 38, 0
6, 157080, Note_on_c, 5, 38, 0
6, 157080, Note_on_c, 5, 38, 0
6, 157080, Note_on_c, 5, 38, 0
6, 157080, Note_on_c, 5, 38, 0
6, 157080, Note_on_c, 5, 38, 0
6, 157080, Note_on_c, 5, 38, 0
6, 157080, Note_on_c, 5, 38, 0
6, 157080, Note_on_c, 5, 38, 0
6, 157080, Note_on_c, 5, 38, 0
6, 157080, Note_on_c, 5, 38, 0
6, 157080, Note_on_c, 5, 38, 0
6, 157080, Note_on_c, 5, 38, 0
6, 157080, Note_on_c, 5, 38, 0
6, 157080, Note_on_c, 5, 38, 0
6, 157080, Note_on_c, 5, 38, 0
6, 157080, Note_on_c, 5, 38, 0
6, 157080, Note_on_c, 5, 38, 0
6, 157080, Note_on_c, 5, 38, 0
6, 157080, Note_on_c, 5, 38, 0
6, 157080, Note_on_c, 5, 38, 0
6, 157080, Note_on_c, 5, 38, 0
6, 157080, Note_on_c, 5, 38, 0
6, 157080, Note_on_c, 5, 38, 0
6, 157080, Note_on_c, 5, 38, 0
6, 157080, Note_on_c, 5, 38, 0
6, 157080, Note_on_c, 5, 38, 0
6, 157080, Note_on_c, 5, 38, 0
6, 157080, Note_on_c, 5, 38, 0
6, 157472, Note_on_c, 5, 37, 39
6, 157520, Note_on_c, 5, 38, 0
6, 157520, Note_on_c, 5, 38, 0
6, 157520, Note_on_c, 5, 38, 0
6, 157520, Note_on_c, 5, 38, 0
6, 157520, Note_on_c, 5, 38, 0
6, 157520, Note_on_c, 5, 38, 0
6, 157520, Note_on_c, 5, 38, 0
6, 157520, Note_on_c, 5, 38, 0
6, 157520, Note_on_c, 5, 38, 0
6, 157520, Note_on_c, 5, 38, 0
6, 157520, Note_on_c, 5, 38, 0
6, 157520, Note_on_c, 5, 38, 0
6, 157520, Note_on_c, 5, 38, 0
6, 157520, Note_on_c, 5, 38, 0
6, 157520, Note_on_c, 5, 38, 0
6, 157520, Note_on_c, 5, 38, 0
6, 157520, Note_on_c, 5, 38, 0
6, 157520, Note_on_c, 5, 38, 0
6, 157520, Note_on_c, 5, 38, 0
6, 157520, Note_on_c, 5, 38, 0
6, 157520, Note_on_c, 5, 38, 0
6, 157520, Note_on_c, 5, 38, 0
6, 157520, Note_on_c, 5, 38, 0
6, 157520, Note_on_c, 5, 38, 0
6, 157520, Note_on_c, 5, 38, 0
6, 157520, Note_on_c, 5, 38, 0
6, 157520, Note_on_c, 5, 38, 0
6, 157520, Note_on_c, 5, 38, 0
6, 157520, Note_on_c, 5, 38, 0
6, 157520, Note_on_c, 5, 38, 0
6, 157520, Note_on_c, 5, 38, 0
6, 157520, Note_on_c, 5, 38, 0
6, 157520, Note_on_c, 5, 38, 0
6, 157520, Note_on_c, 5, 38, 0
6, 157520, Note_on_c, 5, 38, 0
6, 157520, Note_on_c, 5, 38, 0
6, 157520, Note_on_c, 5, 38, 0
6, 157520, Note_on_c, 5, 38, 0
6, 157520, Note_on_c, 5, 38, 0
6, 157520, Note_on_c, 5, 38, 0
6, 157520, Note_on_c, 5, 38, 0
6, 157520, Note_on_c, 5, 38, 0
6, 157520, Note_on_c, 5, 38, 0
6, 157520, Note_on_c, 5, 38, 0
6, 157520, Note_on_c, 5, 38, 0
6, 157520, Note_on_c, 5, 38, 0
6, 157520, Note_on_c, 5, 38, 0
6, 157520, Note_on_c, 5, 38, 0
6, 157520, Note_on_c, 5, 38, 0
6, 157520, Note_on_c, 5, 38, 0
6, 157520, Note_on_c, 5, 38, 0
6, 157520, Note_on_c, 5, 38, 0
6, 157520, Note_on_c, 5, 38, 0
6, 157520, Note_on_c, 5, 38, 0
6, 157520, Note_on_c, 5, 38, 0
6, 157520, Note_on_c, 5, 38, 0
6, 157520, Note_on_c, 5, 38, 0
6, 157520, Note_on_c, 5, 38, 0
6, 157520, Note_on_c, 5, 38, 0
6, 157520, Note_on_c, 5, 38, 0
6, 157520, Note_on_c, 5, 38, 0
6, 157520, Note_on_c, 5, 38, 0
6, 157520, Note_on_c, 5, 38, 0
6, 157520, Note_on_c, 5, 38, 0
6, 157520, Note_on_c, 5, 38, 0
6, 157520, Note_on_c, 5, 38, 0
6, 157520, Note_on_c, 5, 38, 0
6, 157520, Note_on_c, 5, 38, 0
6, 157520, Note_on_c, 5, 38, 0
6, 157520, Note_on_c, 5, 38, 0
6, 157520, Note_on_c, 5, 38, 0
6, 157520, Note_on_c, 5, 38, 0
6, 157520, Note_on_c, 5, 38, 0
6, 157520, Note_on_c, 5, 38, 0
6, 157520, Note_on_c, 5, 38, 0
6, 157520, Note_on_c, 5, 38, 0
6, 157520, Note_on_c, 5, 38, 0
6, 157520, Note_on_c, 5, 38, 0
6, 157520, Note_on_c, 5, 38, 0
6, 157520, Note_on_c, 5, 38, 0
6, 157520, Note_on_c, 5, 38, 0
6, 157520, Note_on_c, 5, 38, 0
6, 157520, Note_on_c, 5, 38, 0
6, 157520, Note_on_c, 5, 38, 0
6, 157520, Note_on_c, 5, 38, 0
6, 157520, Note_on_c, 5, 38, 0
6, 157520, Note_on_c, 5, 38, 0
6, 157520, Note_on_c, 5, 38, 0
6, 157520, Note_on_c, 5, 38, 0
6, 157520, Note_on_c, 5, 38, 0
6, 157520, Note_on_c, 5, 38, 0
6, 157520, Note_on_c, 5, 38, 0
6, 157520, Note_on_c, 5, 38, 0
6, 157520, Note_on_c, 5, 38, 0
6, 157520, Note_on_c, 5, 38, 0
6, 157520, Note_on_c, 5, 38, 0
6, 157536, Note_on_c, 5, 37, 0
6, 157592, Note_on_c, 5, 42, 60
6, 157816, Note_on_c, 5, 42, 0
6, 157976, Note_on_c, 5, 43, 54
6, 158112, Note_on_c, 5, 43, 0
6, 158616, Note_on_c, 5, 43, 67
6, 159264, Note_on_c, 5, 38, 50
6, 159296, Note_on_c, 5, 38, 0
6, 159312, Note_on_c, 5, 43, 0
6, 159384, Note_on_c, 5, 32, 55
6, 159448, Note_on_c, 5, 32, 0
6, 159528, Note_on_c, 5, 31, 64
6, 159768, Note_on_c, 5, 31, 0
6, 160168, Note_on_c, 5, 31, 75
6, 160640, Note_on_c, 5, 31, 0
6, 160688, Note_on_c, 5, 45, 63
6, 160728, Note_on_c, 5, 45, 0
6, 160808, Note_on_c, 5, 33, 64
6, 160864, Note_on_c, 5, 33, 0
6, 160936, Note_on_c, 5, 34, 77
6, 161008, Note_on_c, 5, 34, 0
6, 161064, Note_on_c, 5, 35, 71
6, 161176, Note_on_c, 5, 35, 0
6, 161688, Note_on_c, 5, 35, 74
6, 162264, Note_on_c, 5, 47, 24
6, 162288, Note_on_c, 5, 47, 0
6, 162360, Note_on_c, 5, 48, 57
6, 162424, Note_on_c, 5, 48, 0
6, 162472, Note_on_c, 5, 35, 0
6, 162480, Note_on_c, 5, 47, 62
6, 162512, Note_on_c, 5, 47, 0
6, 162632, Note_on_c, 5, 35, 42
6, 162736, Note_on_c, 5, 35, 0
6, 163224, Note_on_c, 5, 35, 77
6, 163848, Note_on_c, 5, 33, 60
6, 163856, Note_on_c, 5, 35, 0
6, 163872, Note_on_c, 5, 33, 0
6, 163968, Note_on_c, 5, 32, 64
6, 164032, Note_on_c, 5, 32, 0
6, 164120, Note_on_c, 5, 31, 64
6, 164304, Note_on_c, 5, 31, 0
6, 164752, Note_on_c, 5, 43, 81
6, 165544, Note_on_c, 5, 38, 49
6, 165584, Note_on_c, 5, 43, 0
6, 165600, Note_on_c, 5, 38, 0
6, 165680, Note_on_c, 5, 31, 64
6, 165816, Note_on_c, 5, 31, 0
6, 166296, Note_on_c, 5, 43, 84
6, 166688, Note_on_c, 5, 38, 51
6, 166696, Note_on_c, 5, 43, 0
6, 166712, Note_on_c, 5, 38, 0
6, 166952, Note_on_c, 5, 33, 57
6, 166992, Note_on_c, 5, 33, 0
6, 167064, Note_on_c, 5, 34, 75
6, 167128, Note_on_c, 5, 34, 0
6, 167200, Note_on_c, 5, 35, 66
6, 167384, Note_on_c, 5, 35, 0
6, 167816, Note_on_c, 5, 47, 87
6, 168576, Note_on_c, 5, 42, 32
6, 168600, Note_on_c, 5, 42, 0
6, 168712, Note_on_c, 5, 35, 69
6, 168840, Note_on_c, 5, 35, 0
6, 168840, Note_on_c, 5, 47, 0
6, 169352, Note_on_c, 5, 47, 81
6, 169752, Note_on_c, 5, 35, 60
6, 169776, Note_on_c, 5, 47, 0
6, 169832, Note_on_c, 5, 35, 0
6, 169880, Note_on_c, 5, 45, 57
6, 169912, Note_on_c, 5, 45, 0
6, 170144, Note_on_c, 5, 44, 79
6, 170216, Note_on_c, 5, 44, 0
6, 170880, Note_on_c, 5, 43, 67
6, 171160, Note_on_c, 5, 38, 49
6, 171184, Note_on_c, 5, 38, 0
6, 171192, Note_on_c, 5, 43, 0
6, 171280, Note_on_c, 5, 38, 60
6, 171312, Note_on_c, 5, 38, 0
6, 171640, Note_on_c, 5, 30, 70
6, 171720, Note_on_c, 5, 30, 0
6, 171792, Note_on_c, 5, 31, 57
6, 171928, Note_on_c, 5, 31, 0
6, 172424, Note_on_c, 5, 31, 68
6, 172480, Note_on_c, 5, 31, 0
6, 172568, Note_on_c, 5, 41, 59
6, 172776, Note_on_c, 5, 41, 0
6, 172808, Note_on_c, 5, 31, 54
6, 172840, Note_on_c, 5, 31, 0
6, 172936, Note_on_c, 5, 43, 58
6, 173200, Note_on_c, 5, 35, 42
6, 173240, Note_on_c, 5, 43, 0
6, 173272, Note_on_c, 5, 35, 0
6, 173328, Note_on_c, 5, 36, 60
6, 173408, Note_on_c, 5, 36, 0
6, 173952, Note_on_c, 5, 36, 96
6, 174528, Note_on_c, 5, 36, 0
6, 174584, Note_on_c, 5, 35, 57
6, 174624, Note_on_c, 5, 35, 0
6, 174704, Note_on_c, 5, 36, 78
6, 174768, Note_on_c, 5, 36, 0
6, 174856, Note_on_c, 5, 38, 65
6, 174960, Note_on_c, 5, 38, 0
6, 175496, Note_on_c, 5, 50, 91
6, 175896, Note_on_c, 5, 38, 66
6, 175920, Note_on_c, 5, 50, 0
6, 175952, Note_on_c, 5, 38, 0
6, 176024, Note_on_c, 5, 42, 63
6, 176240, Note_on_c, 5, 42, 0
6, 176272, Note_on_c, 5, 38, 60
6, 176296, Note_on_c, 5, 38, 0
6, 176424, Note_on_c, 5, 43, 65
6, 176592, Note_on_c, 5, 43, 0
6, 177024, Note_on_c, 5, 43, 77
6, 177416, Note_on_c, 5, 38, 54
6, 177488, Note_on_c, 5, 38, 0
6, 177488, Note_on_c, 5, 43, 0
6, 177560, Note_on_c, 5, 34, 37
6, 177880, Note_on_c, 5, 34, 0
6, 177936, Note_on_c, 5, 31, 53
6, 178104, Note_on_c, 5, 31, 0
6, 178560, Note_on_c, 5, 31, 71
6, 178928, Note_on_c, 5, 31, 0
6, 178952, Note_on_c, 5, 34, 55
6, 179040, Note_on_c, 5, 34, 0
6, 179080, Note_on_c, 5, 35, 60
6, 179408, Note_on_c, 5, 35, 0
6, 179464, Note_on_c, 5, 36, 66
6, 179584, Note_on_c, 5, 36, 0
6, 180080, Note_on_c, 5, 45, 80
6, 180200, Note_on_c, 5, 45, 0
6, 180232, Note_on_c, 5, 43, 34
6, 180464, Note_on_c, 5, 36, 62
6, 180480, Note_on_c, 5, 38, 46
6, 180504, Note_on_c, 5, 38, 0
6, 180528, Note_on_c, 5, 43, 0
6, 180840, Note_on_c, 5, 36, 0
6, 180864, Note_on_c, 5, 37, 56
6, 180944, Note_on_c, 5, 37, 0
6, 181016, Note_on_c, 5, 38, 57
6, 181176, Note_on_c, 5, 52, 64
6, 181208, Note_on_c, 5, 52, 0
6, 181288, Note_on_c, 5, 53, 57
6, 181344, Note_on_c, 5, 53, 0
6, 181416, Note_on_c, 5, 54, 67
6, 181576, Note_on_c, 5, 38, 0
6, 181624, Note_on_c, 5, 38, 59
6, 181656, Note_on_c, 5, 54, 0
6, 181680, Note_on_c, 5, 38, 0
6, 182032, Note_on_c, 5, 38, 79
6, 182088, Note_on_c, 5, 38, 0
6, 182304, Note_on_c, 5, 41, 66
6, 182336, Note_on_c, 5, 41, 0
6, 182408, Note_on_c, 5, 42, 69
6, 182448, Note_on_c, 5, 42, 0
6, 182536, Note_on_c, 5, 43, 64
6, 182632, Note_on_c, 5, 43, 0
6, 183160, Note_on_c, 5, 43, 75
6, 183192, Note_on_c, 5, 36, 35
6, 183216, Note_on_c, 5, 36, 0
6, 183936, Note_on_c, 5, 38, 50
6, 183960, Note_on_c, 5, 38, 0
6, 184072, Note_on_c, 5, 31, 66
6, 184176, Note_on_c, 5, 31, 0
6, 184392, Note_on_c, 5, 38, 45
6, 184432, Note_on_c, 5, 38, 0
6, 184688, Note_on_c, 5, 31, 84
6, 185064, Note_on_c, 5, 31, 0
6, 185088, Note_on_c, 5, 34, 63
6, 185120, Note_on_c, 5, 43, 0
6, 185192, Note_on_c, 5, 34, 0
6, 185216, Note_on_c, 5, 35, 56
6, 185392, Note_on_c, 5, 35, 0
6, 185456, Note_on_c, 5, 34, 37
6, 185536, Note_on_c, 5, 34, 0
6, 185584, Note_on_c, 5, 36, 63
6, 185784, Note_on_c, 5, 36, 0
6, 186240, Note_on_c, 5, 36, 52
6, 186280, Note_on_c, 5, 36, 0
6, 186360, Note_on_c, 5, 43, 49
6, 186880, Note_on_c, 5, 43, 0
6, 186880, Note_on_c, 5, 36, 54
6, 186920, Note_on_c, 5, 36, 0
6, 187008, Note_on_c, 5, 37, 56
6, 187088, Note_on_c, 5, 37, 0
6, 187128, Note_on_c, 5, 38, 52
6, 187648, Note_on_c, 5, 52, 51
6, 187696, Note_on_c, 5, 52, 0
6, 187752, Note_on_c, 5, 53, 43
6, 187832, Note_on_c, 5, 53, 0
6, 187904, Note_on_c, 5, 54, 65
6, 187928, Note_on_c, 5, 38, 0
6, 188152, Note_on_c, 5, 38, 60
6, 188184, Note_on_c, 5, 38, 0
6, 188400, Note_on_c, 5, 41, 57
6, 188432, Note_on_c, 5, 54, 0
6, 188464, Note_on_c, 5, 41, 0
6, 188536, Note_on_c, 5, 42, 45
6, 188632, Note_on_c, 5, 42, 0
6, 188672, Note_on_c, 5, 43, 62
6, 188800, Note_on_c, 5, 43, 0
6, 189288, Note_on_c, 5, 43, 84
6, 189680, Note_on_c, 5, 38, 46
6, 189688, Note_on_c, 5, 43, 0
6, 189712, Note_on_c, 5, 38, 0
6, 189808, Note_on_c, 5, 37, 62
6, 190152, Note_on_c, 5, 37, 0
6, 190200, Note_on_c, 5, 36, 66
6, 190392, Note_on_c, 5, 36, 0
6, 190832, Note_on_c, 5, 36, 82
6, 191136, Note_on_c, 5, 50, 55
6, 191168, Note_on_c, 5, 50, 0
6, 191512, Note_on_c, 5, 36, 0
6, 191592, Note_on_c, 5, 42, 59
6, 191616, Note_on_c, 5, 42, 0
6, 191736, Note_on_c, 5, 36, 74
6, 191896, Note_on_c, 5, 36, 0
6, 192368, Note_on_c, 5, 36, 77
6, 192736, Note_on_c, 5, 43, 49
6, 192768, Note_on_c, 5, 43, 0
6, 192808, Note_on_c, 5, 36, 0
6, 192872, Note_on_c, 5, 48, 61
6, 192896, Note_on_c, 5, 48, 0
6, 192984, Note_on_c, 5, 36, 62
6, 193032, Note_on_c, 5, 36, 0
6, 193120, Note_on_c, 5, 37, 62
6, 193216, Note_on_c, 5, 37, 0
6, 193264, Note_on_c, 5, 38, 56
6, 193392, Note_on_c, 5, 52, 55
6, 193416, Note_on_c, 5, 52, 0
6, 193512, Note_on_c, 5, 53, 64
6, 193584, Note_on_c, 5, 53, 0
6, 193656, Note_on_c, 5, 54, 67
6, 193704, Note_on_c, 5, 38, 0
6, 193904, Note_on_c, 5, 38, 81
6, 194216, Note_on_c, 5, 38, 0
6, 194280, Note_on_c, 5, 38, 59
6, 194320, Note_on_c, 5, 38, 0
6, 194552, Note_on_c, 5, 41, 62
6, 194584, Note_on_c, 5, 54, 0
6, 194600, Note_on_c, 5, 41, 0
6, 194664, Note_on_c, 5, 42, 69
6, 194712, Note_on_c, 5, 42, 0
6, 194808, Note_on_c, 5, 43, 61
6, 195392, Note_on_c, 5, 43, 0
6, 195440, Note_on_c, 5, 37, 43
6, 195528, Note_on_c, 5, 37, 0
6, 195568, Note_on_c, 5, 38, 50
6, 196200, Note_on_c, 5, 30, 55
6, 196248, Note_on_c, 5, 30, 0
6, 196288, Note_on_c, 5, 38, 0
6, 196328, Note_on_c, 5, 31, 61
6, 196920, Note_on_c, 5, 31, 0
6, 196960, Note_on_c, 5, 38, 83
6, 197096, Note_on_c, 5, 38, 0
6, 197336, Note_on_c, 5, 34, 54
6, 197392, Note_on_c, 5, 34, 0
6, 197456, Note_on_c, 5, 37, 70
6, 197520, Note_on_c, 5, 37, 0
6, 197720, Note_on_c, 5, 35, 68
6, 197800, Note_on_c, 5, 35, 0
6, 197864, Note_on_c, 5, 36, 57
6, 198016, Note_on_c, 5, 36, 0
6, 198496, Note_on_c, 5, 36, 79
6, 198912, Note_on_c, 5, 43, 27
6, 198944, Note_on_c, 5, 43, 0
6, 199016, Note_on_c, 5, 36, 0
6, 199032, Note_on_c, 5, 48, 81
6, 199096, Note_on_c, 5, 48, 0
6, 199272, Note_on_c, 5, 37, 46
6, 199352, Note_on_c, 5, 37, 0
6, 199408, Note_on_c, 5, 38, 58
6, 199872, Note_on_c, 5, 38, 0
6, 200048, Note_on_c, 5, 38, 84
6, 200264, Note_on_c, 5, 38, 0
6, 200312, Note_on_c, 5, 45, 66
6, 200384, Note_on_c, 5, 45, 0
6, 200440, Note_on_c, 5, 38, 58
6, 200488, Note_on_c, 5, 38, 0
6, 200560, Note_on_c, 5, 42, 60
6, 200624, Note_on_c, 5, 42, 0
6, 200704, Note_on_c, 5, 38, 68
6, 200744, Note_on_c, 5, 38, 0
6, 200816, Note_on_c, 5, 43, 87
6, 201488, Note_on_c, 5, 43, 0
6, 201552, Note_on_c, 5, 43, 72
6, 201848, Note_on_c, 5, 38, 68
6, 201888, Note_on_c, 5, 38, 0
6, 202088, Note_on_c, 5, 34, 52
6, 202104, Note_on_c, 5, 43, 0
6, 202168, Note_on_c, 5, 34, 0
6, 202336, Note_on_c, 5, 35, 71
6, 202400, Note_on_c, 5, 35, 0
6, 202480, Note_on_c, 5, 36, 61
6, 203016, Note_on_c, 5, 36, 0
6, 203096, Note_on_c, 5, 36, 77
6, 203216, Note_on_c, 5, 36, 0
6, 203392, Note_on_c, 5, 50, 53
6, 203432, Note_on_c, 5, 50, 0
6, 203496, Note_on_c, 5, 51, 56
6, 203568, Note_on_c, 5, 51, 0
6, 203624, Note_on_c, 5, 52, 62
6, 203680, Note_on_c, 5, 52, 0
6, 203736, Note_on_c, 5, 41, 44
6, 203792, Note_on_c, 5, 41, 0
6, 203848, Note_on_c, 5, 42, 62
6, 203904, Note_on_c, 5, 42, 0
6, 204248, Note_on_c, 5, 36, 76
6, 204584, Note_on_c, 5, 36, 0
6, 204656, Note_on_c, 5, 43, 26
6, 204656, Note_on_c, 5, 36, 26
6, 204688, Note_on_c, 5, 43, 0
6, 204704, Note_on_c, 5, 36, 0
6, 204776, Note_on_c, 5, 48, 72
6, 204856, Note_on_c, 5, 48, 0
6, 205016, Note_on_c, 5, 36, 66
6, 205080, Note_on_c, 5, 36, 0
6, 205160, Note_on_c, 5, 37, 59
6, 205512, Note_on_c, 5, 37, 0
6, 205544, Note_on_c, 5, 38, 44
6, 206056, Note_on_c, 5, 38, 0
6, 206176, Note_on_c, 5, 38, 65
6, 206552, Note_on_c, 5, 45, 38
6, 206592, Note_on_c, 5, 45, 0
6, 206784, Note_on_c, 5, 38, 0
6, 206840, Note_on_c, 5, 41, 60
6, 206904, Note_on_c, 5, 41, 0
6, 206960, Note_on_c, 5, 42, 71
6, 207008, Note_on_c, 5, 42, 0
6, 207104, Note_on_c, 5, 43, 53
6, 207288, Note_on_c, 5, 43, 0
6, 207712, Note_on_c, 5, 43, 65
6, 208472, Note_on_c, 5, 38, 53
6, 208496, Note_on_c, 5, 38, 0
6, 208608, Note_on_c, 5, 31, 64
6, 208792, Note_on_c, 5, 31, 0
6, 209232, Note_on_c, 5, 31, 81
6, 209592, Note_on_c, 5, 31, 0
6, 209624, Note_on_c, 5, 34, 69
6, 209656, Note_on_c, 5, 43, 0
6, 209704, Note_on_c, 5, 34, 0
6, 209760, Note_on_c, 5, 35, 69
6, 210088, Note_on_c, 5, 35, 0
6, 210128, Note_on_c, 5, 36, 74
6, 210296, Note_on_c, 5, 36, 0
6, 210760, Note_on_c, 5, 36, 83
6, 211152, Note_on_c, 5, 43, 91
6, 211160, Note_on_c, 5, 36, 0
6, 211384, Note_on_c, 5, 43, 0
6, 211408, Note_on_c, 5, 36, 62
6, 211456, Note_on_c, 5, 36, 0
6, 211544, Note_on_c, 5, 37, 51
6, 211600, Note_on_c, 5, 37, 0
6, 211696, Note_on_c, 5, 38, 57
6, 212088, Note_on_c, 5, 38, 0
6, 212304, Note_on_c, 5, 38, 60
6, 212360, Note_on_c, 5, 38, 0
6, 212496, Note_on_c, 5, 50, 26
6, 212496, Note_on_c, 5, 48, 25
6, 212544, Note_on_c, 5, 48, 0
6, 212656, Note_on_c, 5, 50, 0
6, 212688, Note_on_c, 5, 52, 80
6, 212792, Note_on_c, 5, 52, 0
6, 212856, Note_on_c, 5, 45, 28
6, 213000, Note_on_c, 5, 45, 0
6, 213064, Note_on_c, 5, 42, 52
6, 213136, Note_on_c, 5, 42, 0
6, 213208, Note_on_c, 5, 43, 48
6, 213336, Note_on_c, 5, 43, 0
6, 213840, Note_on_c, 5, 43, 66
6, 214232, Note_on_c, 5, 38, 61
6, 214288, Note_on_c, 5, 43, 0
6, 214344, Note_on_c, 5, 38, 0
6, 214480, Note_on_c, 5, 34, 52
6, 214560, Note_on_c, 5, 34, 0
6, 214608, Note_on_c, 5, 35, 61
6, 214672, Note_on_c, 5, 35, 0
6, 214744, Note_on_c, 5, 36, 54
6, 215016, Note_on_c, 5, 43, 49
6, 215048, Note_on_c, 5, 43, 0
6, 215536, Note_on_c, 5, 48, 61
6, 215584, Note_on_c, 5, 48, 0
6, 215624, Note_on_c, 5, 50, 64
6, 215704, Note_on_c, 5, 50, 0
6, 215760, Note_on_c, 5, 48, 78
6, 215896, Note_on_c, 5, 36, 0
6, 215992, Note_on_c, 5, 48, 0
6, 216120, Note_on_c, 5, 35, 57
6, 216144, Note_on_c, 5, 35, 0
6, 216224, Note_on_c, 5, 35, 65
6, 216312, Note_on_c, 5, 35, 0
6, 216352, Note_on_c, 5, 36, 60
6, 216512, Note_on_c, 5, 36, 0
6, 216920, Note_on_c, 5, 36, 66
6, 217208, Note_on_c, 5, 36, 0
6, 217304, Note_on_c, 5, 36, 62
6, 217328, Note_on_c, 5, 36, 0
6, 217432, Note_on_c, 5, 37, 59
6, 217480, Note_on_c, 5, 37, 0
6, 217680, Note_on_c, 5, 37, 65
6, 217768, Note_on_c, 5, 37, 0
6, 217816, Note_on_c, 5, 38, 51
6, 218432, Note_on_c, 5, 50, 94
6, 218472, Note_on_c, 5, 38, 0
6, 218832, Note_on_c, 5, 38, 61
6, 218864, Note_on_c, 5, 50, 0
6, 218896, Note_on_c, 5, 38, 0
6, 218960, Note_on_c, 5, 42, 46
6, 219128, Note_on_c, 5, 42, 0
6, 219200, Note_on_c, 5, 45, 74
6, 219296, Note_on_c, 5, 45, 0
6, 219344, Note_on_c, 5, 43, 59
6, 219512, Note_on_c, 5, 43, 0
6, 219976, Note_on_c, 5, 43, 73
6, 220752, Note_on_c, 5, 38, 37
6, 220792, Note_on_c, 5, 43, 0
6, 220816, Note_on_c, 5, 38, 0
6, 220872, Note_on_c, 5, 31, 50
6, 221072, Note_on_c, 5, 31, 0
6, 221504, Note_on_c, 5, 31, 71
6, 221888, Note_on_c, 5, 34, 37
6, 221912, Note_on_c, 5, 31, 0
6, 221992, Note_on_c, 5, 34, 0
6, 222032, Note_on_c, 5, 35, 54
6, 222376, Note_on_c, 5, 35, 0
6, 222408, Note_on_c, 5, 36, 60
6, 222568, Note_on_c, 5, 36, 0
6, 223056, Note_on_c, 5, 36, 85
6, 223808, Note_on_c, 5, 37, 37
6, 223816, Note_on_c, 5, 36, 0
6, 223880, Note_on_c, 5, 37, 0
6, 223952, Note_on_c, 5, 38, 60
6, 224040, Note_on_c, 5, 38, 0
6, 224584, Note_on_c, 5, 38, 88
6, 225296, Note_on_c, 5, 38, 0
6, 225360, Note_on_c, 5, 32, 54
6, 225424, Note_on_c, 5, 32, 0
6, 225488, Note_on_c, 5, 31, 68
6, 226144, Note_on_c, 5, 38, 56
6, 226168, Note_on_c, 5, 38, 0
6, 226176, Note_on_c, 5, 31, 0
6, 226264, Note_on_c, 5, 43, 71
6, 226944, Note_on_c, 5, 43, 0
6, 226992, Note_on_c, 5, 36, 65
6, 227656, Note_on_c, 5, 43, 60
6, 227968, Note_on_c, 5, 43, 0
6, 228040, Note_on_c, 5, 45, 47
6, 228072, Note_on_c, 5, 45, 0
6, 228184, Note_on_c, 5, 48, 58
6, 228208, Note_on_c, 5, 48, 0
6, 228216, Note_on_c, 5, 36, 0
6, 228296, Note_on_c, 5, 50, 68
6, 228376, Note_on_c, 5, 50, 0
6, 228424, Note_on_c, 5, 48, 68
6, 228464, Note_on_c, 5, 48, 0
6, 228552, Note_on_c, 5, 50, 65
6, 228664, Note_on_c, 5, 50, 0
6, 228808, Note_on_c, 5, 48, 71
6, 228872, Note_on_c, 5, 48, 0
6, 229176, Note_on_c, 5, 43, 59
6, 229208, Note_on_c, 5, 43, 0
6, 229304, Note_on_c, 5, 36, 68
6, 229680, Note_on_c, 5, 36, 0
6, 229856, Note_on_c, 5, 36, 53
6, 229896, Note_on_c, 5, 36, 0
6, 229976, Note_on_c, 5, 37, 57
6, 230040, Note_on_c, 5, 37, 0
6, 230112, Note_on_c, 5, 38, 44
6, 230736, Note_on_c, 5, 42, 40
6, 230760, Note_on_c, 5, 42, 0
6, 231000, Note_on_c, 5, 53, 92
6, 231024, Note_on_c, 5, 38, 0
6, 231184, Note_on_c, 5, 38, 33
6, 231208, Note_on_c, 5, 53, 0
6, 231216, Note_on_c, 5, 38, 0
6, 231272, Note_on_c, 5, 51, 72
6, 231448, Note_on_c, 5, 51, 0
6, 231520, Note_on_c, 5, 49, 55
6, 231584, Note_on_c, 5, 49, 0
6, 231624, Note_on_c, 5, 50, 51
6, 231688, Note_on_c, 5, 50, 0
6, 231760, Note_on_c, 5, 46, 53
6, 231792, Note_on_c, 5, 46, 0
6, 231896, Note_on_c, 5, 38, 27
6, 231920, Note_on_c, 5, 38, 0
6, 232008, Note_on_c, 5, 43, 45
6, 232640, Note_on_c, 5, 43, 0
6, 232664, Note_on_c, 5, 38, 35
6, 232696, Note_on_c, 5, 38, 0
6, 232760, Note_on_c, 5, 41, 50
6, 233016, Note_on_c, 5, 43, 68
6, 233040, Note_on_c, 5, 41, 0
6, 233096, Note_on_c, 5, 43, 0
6, 233144, Note_on_c, 5, 31, 58
6, 233360, Note_on_c, 5, 31, 0
6, 233776, Note_on_c, 5, 31, 76
6, 234176, Note_on_c, 5, 31, 0
6, 234184, Note_on_c, 5, 34, 48
6, 234264, Note_on_c, 5, 34, 0
6, 234304, Note_on_c, 5, 35, 51
6, 234648, Note_on_c, 5, 35, 0
6, 234680, Note_on_c, 5, 36, 55
6, 234760, Note_on_c, 5, 36, 0
6, 235320, Note_on_c, 5, 36, 91
6, 235880, Note_on_c, 5, 36, 0
6, 235984, Note_on_c, 5, 36, 57
6, 236032, Note_on_c, 5, 36, 0
6, 236104, Note_on_c, 5, 37, 59
6, 236160, Note_on_c, 5, 37, 0
6, 236248, Note_on_c, 5, 38, 68
6, 236720, Note_on_c, 5, 52, 47
6, 236752, Note_on_c, 5, 52, 0
6, 236848, Note_on_c, 5, 53, 69
6, 236928, Note_on_c, 5, 53, 0
6, 236992, Note_on_c, 5, 54, 71
6, 237432, Note_on_c, 5, 38, 0
6, 237496, Note_on_c, 5, 41, 39
6, 237544, Note_on_c, 5, 54, 0
6, 237552, Note_on_c, 5, 41, 0
6, 237616, Note_on_c, 5, 42, 50
6, 237720, Note_on_c, 5, 42, 0
6, 237752, Note_on_c, 5, 43, 63
6, 238064, Note_on_c, 5, 43, 0
6, 238392, Note_on_c, 5, 38, 85
6, 238976, Note_on_c, 5, 38, 0
6, 239032, Note_on_c, 5, 34, 62
6, 239096, Note_on_c, 5, 34, 0
6, 239160, Note_on_c, 5, 35, 60
6, 239240, Note_on_c, 5, 35, 0
6, 239304, Note_on_c, 5, 36, 60
6, 239912, Note_on_c, 5, 45, 87
6, 240016, Note_on_c, 5, 45, 0
6, 240040, Note_on_c, 5, 36, 0
6, 240056, Note_on_c, 5, 43, 44
6, 240248, Note_on_c, 5, 43, 0
6, 240312, Note_on_c, 5, 36, 69
6, 240368, Note_on_c, 5, 36, 0
6, 240440, Note_on_c, 5, 34, 38
6, 240512, Note_on_c, 5, 34, 0
6, 240696, Note_on_c, 5, 35, 63
6, 240768, Note_on_c, 5, 35, 0
6, 240840, Note_on_c, 5, 36, 54
6, 240944, Note_on_c, 5, 36, 0
6, 241448, Note_on_c, 5, 36, 92
6, 242056, Note_on_c, 5, 36, 0
6, 242136, Note_on_c, 5, 36, 70
6, 242184, Note_on_c, 5, 36, 0
6, 242256, Note_on_c, 5, 37, 56
6, 242304, Note_on_c, 5, 37, 0
6, 242392, Note_on_c, 5, 38, 67
6, 242480, Note_on_c, 5, 38, 0
6, 243000, Note_on_c, 5, 38, 82
6, 243384, Note_on_c, 5, 38, 0
6, 243384, Note_on_c, 5, 33, 60
6, 243432, Note_on_c, 5, 33, 0
6, 243512, Note_on_c, 5, 32, 62
6, 243600, Note_on_c, 5, 32, 0
6, 243896, Note_on_c, 5, 31, 65
6, 244024, Note_on_c, 5, 31, 0
6, 244520, Note_on_c, 5, 31, 80
6, 245424, Note_on_c, 5, 31, 0
6, 245448, Note_on_c, 5, 43, 70
6, 245512, Note_on_c, 5, 43, 0
6, 246056, Note_on_c, 5, 43, 78
6, 246456, Note_on_c, 5, 34, 36
6, 246472, Note_on_c, 5, 43, 0
6, 246568, Note_on_c, 5, 34, 0
6, 246584, Note_on_c, 5, 35, 48
6, 246896, Note_on_c, 5, 35, 0
6, 246952, Note_on_c, 5, 36, 43
6, 247024, Note_on_c, 5, 36, 0
6, 247576, Note_on_c, 5, 36, 61
6, 248320, Note_on_c, 5, 36, 0
6, 248352, Note_on_c, 5, 37, 55
6, 248416, Note_on_c, 5, 37, 0
6, 248480, Note_on_c, 5, 38, 46
6, 248632, Note_on_c, 5, 52, 45
6, 248672, Note_on_c, 5, 52, 0
6, 248744, Note_on_c, 5, 53, 40
6, 248840, Note_on_c, 5, 53, 0
6, 248896, Note_on_c, 5, 54, 59
6, 249032, Note_on_c, 5, 38, 0
6, 249136, Note_on_c, 5, 38, 72
6, 249736, Note_on_c, 5, 38, 0
6, 249784, Note_on_c, 5, 41, 53
6, 249856, Note_on_c, 5, 41, 0
6, 249904, Note_on_c, 5, 54, 0
6, 249912, Note_on_c, 5, 42, 49
6, 250008, Note_on_c, 5, 42, 0
6, 250048, Note_on_c, 5, 43, 63
6, 250120, Note_on_c, 5, 43, 0
6, 250656, Note_on_c, 5, 43, 64
6, 251312, Note_on_c, 5, 38, 51
6, 251336, Note_on_c, 5, 38, 0
6, 251344, Note_on_c, 5, 43, 0
6, 251432, Note_on_c, 5, 37, 51
6, 251496, Note_on_c, 5, 37, 0
6, 251568, Note_on_c, 5, 36, 57
6, 251744, Note_on_c, 5, 36, 0
6, 252192, Note_on_c, 5, 36, 68
6, 252880, Note_on_c, 5, 36, 0
6, 252944, Note_on_c, 5, 35, 37
6, 252984, Note_on_c, 5, 35, 0
6, 253088, Note_on_c, 5, 36, 69
6, 253176, Note_on_c, 5, 36, 0
6, 253720, Note_on_c, 5, 36, 92
6, 254592, Note_on_c, 5, 36, 0
6, 254656, Note_on_c, 5, 38, 38
6, 254792, Note_on_c, 5, 38, 0
6, 255272, Note_on_c, 5, 38, 44
6, 255648, Note_on_c, 5, 38, 0
6, 255664, Note_on_c, 5, 33, 53
6, 255712, Note_on_c, 5, 33, 0
6, 255816, Note_on_c, 5, 32, 54
6, 256144, Note_on_c, 5, 32, 0
6, 256176, Note_on_c, 5, 31, 76
6, 258944, Note_on_c, 5, 31, 0
6, 259376, MIDI_port, 0
6, 259376, System_exclusive, 8, 67, 115, 1, 17, 1, 87, 127, 247
6, 259376, System_exclusive, 8, 67, 115, 1, 17, 1, 87, 127, 247
6, 259376, MIDI_port, 0
6, 259376, End_track
7, 0, Start_track
7, 0, MIDI_port, 1
7, 0, Program_c, 6, 26
7, 0, Control_c, 6, 7, 56
7, 0, Control_c, 6, 11, 127
7, 0, Control_c, 6, 64, 0
7, 0, Control_c, 6, 67, 0
7, 0, Pitch_bend_c, 6, 8192
7, 1536, Note_on_c, 6, 70, 56
7, 1536, Note_on_c, 6, 85, 51
7, 1664, Note_on_c, 6, 85, 0
7, 1792, Note_on_c, 6, 70, 0
7, 2176, Note_on_c, 6, 85, 62
7, 2176, Note_on_c, 6, 70, 53
7, 2176, Note_on_c, 6, 73, 41
7, 2176, Note_on_c, 6, 73, 0
7, 2816, Note_on_c, 6, 70, 0
7, 2816, Note_on_c, 6, 85, 0
7, 3072, Note_on_c, 6, 85, 69
7, 3072, Note_on_c, 6, 70, 64
7, 3072, Note_on_c, 6, 82, 21
7, 3192, Note_on_c, 6, 82, 0
7, 3192, Note_on_c, 6, 70, 0
7, 3192, Note_on_c, 6, 85, 0
7, 3704, Note_on_c, 6, 85, 67
7, 3704, Note_on_c, 6, 70, 67
7, 4216, Note_on_c, 6, 70, 0
7, 4216, Note_on_c, 6, 85, 0
7, 4600, Note_on_c, 6, 77, 64
7, 4600, Note_on_c, 6, 81, 61
7, 4728, Note_on_c, 6, 81, 0
7, 4728, Note_on_c, 6, 77, 0
7, 5240, Note_on_c, 6, 81, 82
7, 5240, Note_on_c, 6, 77, 63
7, 5240, Note_on_c, 6, 72, 62
7, 5624, Note_on_c, 6, 72, 0
7, 5752, Note_on_c, 6, 77, 0
7, 5752, Note_on_c, 6, 81, 0
7, 5752, Note_on_c, 6, 72, 29
7, 5752, Note_on_c, 6, 72, 0
7, 6136, Note_on_c, 6, 69, 42
7, 6136, Note_on_c, 6, 74, 45
7, 6136, Note_on_c, 6, 70, 30
7, 6264, Note_on_c, 6, 70, 0
7, 6264, Note_on_c, 6, 74, 0
7, 6264, Note_on_c, 6, 69, 0
7, 6776, Note_on_c, 6, 74, 60
7, 6776, Note_on_c, 6, 70, 54
7, 6776, Note_on_c, 6, 69, 59
7, 7160, Note_on_c, 6, 69, 0
7, 7288, Note_on_c, 6, 70, 0
7, 7288, Note_on_c, 6, 74, 0
7, 7672, Note_on_c, 6, 85, 49
7, 7672, Note_on_c, 6, 70, 51
7, 7800, Note_on_c, 6, 70, 0
7, 7800, Note_on_c, 6, 85, 0
7, 8312, Note_on_c, 6, 85, 72
7, 8312, Note_on_c, 6, 78, 63
7, 8312, Note_on_c, 6, 70, 62
7, 8696, Note_on_c, 6, 78, 0
7, 8816, Note_on_c, 6, 85, 0
7, 8944, Note_on_c, 6, 70, 0
7, 9200, Note_on_c, 6, 85, 64
7, 9200, Note_on_c, 6, 78, 59
7, 9200, Note_on_c, 6, 70, 55
7, 9328, Note_on_c, 6, 70, 0
7, 9328, Note_on_c, 6, 78, 0
7, 9328, Note_on_c, 6, 85, 0
7, 9840, Note_on_c, 6, 85, 78
7, 9840, Note_on_c, 6, 78, 76
7, 9840, Note_on_c, 6, 70, 62
7, 10352, Note_on_c, 6, 78, 0
7, 10352, Note_on_c, 6, 85, 0
7, 10480, Note_on_c, 6, 70, 0
7, 10736, Note_on_c, 6, 77, 65
7, 10736, Note_on_c, 6, 84, 63
7, 10736, Note_on_c, 6, 67, 60
7, 10864, Note_on_c, 6, 67, 0
7, 10864, Note_on_c, 6, 84, 0
7, 10864, Note_on_c, 6, 77, 0
7, 11376, Note_on_c, 6, 77, 78
7, 11376, Note_on_c, 6, 84, 76
7, 11376, Note_on_c, 6, 67, 80
7, 11888, Note_on_c, 6, 84, 0
7, 11888, Note_on_c, 6, 77, 0
7, 11888, Note_on_c, 6, 82, 31
7, 12016, Note_on_c, 6, 82, 0
7, 12016, Note_on_c, 6, 67, 0
7, 12272, Note_on_c, 6, 67, 48
7, 12272, Note_on_c, 6, 81, 30
7, 12272, Note_on_c, 6, 72, 28
7, 12272, Note_on_c, 6, 77, 34
7, 12400, Note_on_c, 6, 77, 0
7, 12400, Note_on_c, 6, 67, 0
7, 12400, Note_on_c, 6, 81, 0
7, 12400, Note_on_c, 6, 72, 0
7, 12912, Note_on_c, 6, 81, 54
7, 12912, Note_on_c, 6, 72, 50
7, 12912, Note_on_c, 6, 77, 57
7, 12912, Note_on_c, 6, 67, 69
7, 13424, Note_on_c, 6, 67, 0
7, 13424, Note_on_c, 6, 81, 0
7, 13424, Note_on_c, 6, 72, 0
7, 13424, Note_on_c, 6, 77, 0
7, 13808, Note_on_c, 6, 63, 57
7, 13808, Note_on_c, 6, 73, 46
7, 13808, Note_on_c, 6, 47, 60
7, 13808, Note_on_c, 6, 68, 48
7, 13936, Note_on_c, 6, 68, 0
7, 13936, Note_on_c, 6, 63, 0
7, 13936, Note_on_c, 6, 73, 0
7, 13936, Note_on_c, 6, 47, 0
7, 14448, Note_on_c, 6, 73, 52
7, 14448, Note_on_c, 6, 63, 56
7, 14448, Note_on_c, 6, 68, 50
7, 14448, Note_on_c, 6, 47, 55
7, 14824, Note_on_c, 6, 63, 0
7, 14952, Note_on_c, 6, 73, 0
7, 14952, Note_on_c, 6, 68, 0
7, 14952, Note_on_c, 6, 47, 0
7, 14952, Note_on_c, 6, 63, 17
7, 14952, Note_on_c, 6, 63, 0
7, 15336, Note_on_c, 6, 63, 54
7, 15336, Note_on_c, 6, 63, 0
7, 15336, Note_on_c, 6, 73, 45
7, 15336, Note_on_c, 6, 73, 0
7, 15336, Note_on_c, 6, 68, 34
7, 15336, Note_on_c, 6, 68, 0
7, 15336, Note_on_c, 6, 47, 40
7, 15336, Note_on_c, 6, 47, 0
7, 15976, Note_on_c, 6, 73, 65
7, 15976, Note_on_c, 6, 63, 71
7, 15976, Note_on_c, 6, 68, 60
7, 15976, Note_on_c, 6, 47, 59
7, 16360, Note_on_c, 6, 63, 0
7, 16488, Note_on_c, 6, 73, 0
7, 16488, Note_on_c, 6, 68, 0
7, 16488, Note_on_c, 6, 47, 0
7, 16488, Note_on_c, 6, 63, 19
7, 16488, Note_on_c, 6, 63, 0
7, 16488, Note_on_c, 6, 69, 40
7, 16488, Note_on_c, 6, 69, 0
7, 16872, Note_on_c, 6, 69, 56
7, 16872, Note_on_c, 6, 74, 34
7, 16872, Note_on_c, 6, 70, 33
7, 16872, Note_on_c, 6, 55, 36
7, 16872, Note_on_c, 6, 55, 0
7, 17000, Note_on_c, 6, 69, 0
7, 17000, Note_on_c, 6, 74, 0
7, 17000, Note_on_c, 6, 70, 0
7, 17512, Note_on_c, 6, 69, 106
7, 17512, Note_on_c, 6, 70, 59
7, 17512, Note_on_c, 6, 74, 73
7, 17512, Note_on_c, 6, 55, 57
7, 18024, Note_on_c, 6, 74, 0
7, 18024, Note_on_c, 6, 69, 0
7, 18024, Note_on_c, 6, 70, 0
7, 18024, Note_on_c, 6, 50, 25
7, 18024, Note_on_c, 6, 67, 19
7, 18152, Note_on_c, 6, 67, 0
7, 18152, Note_on_c, 6, 50, 0
7, 18280, Note_on_c, 6, 55, 0
7, 18408, Note_on_c, 6, 57, 24
7, 18408, Note_on_c, 6, 57, 0
7, 18408, Note_on_c, 6, 43, 25
7, 18408, Note_on_c, 6, 43, 0
7, 18408, Note_on_c, 6, 58, 27
7, 18408, Note_on_c, 6, 62, 29
7, 18408, Note_on_c, 6, 62, 0
7, 18536, Note_on_c, 6, 58, 0
7, 19048, Note_on_c, 6, 58, 44
7, 19048, Note_on_c, 6, 57, 47
7, 19048, Note_on_c, 6, 62, 55
7, 19048, Note_on_c, 6, 43, 40
7, 19432, Note_on_c, 6, 57, 0
7, 19432, Note_on_c, 6, 58, 0
7, 19560, Note_on_c, 6, 62, 0
7, 19560, Note_on_c, 6, 58, 38
7, 19560, Note_on_c, 6, 58, 0
7, 19944, Note_on_c, 6, 43, 0
7, 19944, Note_on_c, 6, 63, 32
7, 19944, Note_on_c, 6, 73, 32
7, 19944, Note_on_c, 6, 68, 33
7, 19944, Note_on_c, 6, 47, 26
7, 20072, Note_on_c, 6, 47, 0
7, 20072, Note_on_c, 6, 63, 0
7, 20072, Note_on_c, 6, 73, 0
7, 20072, Note_on_c, 6, 68, 0
7, 20576, Note_on_c, 6, 73, 57
7, 20576, Note_on_c, 6, 63, 59
7, 20576, Note_on_c, 6, 68, 56
7, 20576, Note_on_c, 6, 47, 59
7, 20960, Note_on_c, 6, 63, 0
7, 21088, Note_on_c, 6, 73, 0
7, 21088, Note_on_c, 6, 68, 0
7, 21088, Note_on_c, 6, 47, 0
7, 21088, Note_on_c, 6, 63, 18
7, 21088, Note_on_c, 6, 63, 0
7, 21472, Note_on_c, 6, 63, 35
7, 21472, Note_on_c, 6, 47, 34
7, 21472, Note_on_c, 6, 73, 31
7, 21472, Note_on_c, 6, 68, 32
7, 21600, Note_on_c, 6, 68, 0
7, 21600, Note_on_c, 6, 63, 0
7, 21600, Note_on_c, 6, 47, 0
7, 21600, Note_on_c, 6, 73, 0
7, 22112, Note_on_c, 6, 73, 63
7, 22112, Note_on_c, 6, 63, 71
7, 22112, Note_on_c, 6, 68, 61
7, 22112, Note_on_c, 6, 47, 61
7, 22752, Note_on_c, 6, 68, 0
7, 22752, Note_on_c, 6, 73, 0
7, 22752, Note_on_c, 6, 63, 0
7, 23008, Note_on_c, 6, 47, 0
7, 23008, Note_on_c, 6, 43, 29
7, 23008, Note_on_c, 6, 74, 28
7, 23008, Note_on_c, 6, 69, 20
7, 23008, Note_on_c, 6, 64, 9
7, 23136, Note_on_c, 6, 64, 0
7, 23136, Note_on_c, 6, 43, 0
7, 23136, Note_on_c, 6, 74, 0
7, 23136, Note_on_c, 6, 69, 0
7, 23648, Note_on_c, 6, 69, 49
7, 23648, Note_on_c, 6, 64, 49
7, 23648, Note_on_c, 6, 74, 51
7, 23648, Note_on_c, 6, 43, 48
7, 24160, Note_on_c, 6, 43, 0
7, 24160, Note_on_c, 6, 69, 0
7, 24160, Note_on_c, 6, 64, 0
7, 24160, Note_on_c, 6, 74, 0
7, 24544, Note_on_c, 6, 67, 79
7, 24544, Note_on_c, 6, 63, 49
7, 24544, Note_on_c, 6, 60, 79
7, 24544, Note_on_c, 6, 56, 69
7, 24544, Note_on_c, 6, 41, 63
7, 24800, Note_on_c, 6, 41, 0
7, 24800, Note_on_c, 6, 60, 0
7, 24800, Note_on_c, 6, 56, 0
7, 24928, Note_on_c, 6, 63, 0
7, 24928, Note_on_c, 6, 67, 0
7, 25184, Note_on_c, 6, 65, 73
7, 25184, Note_on_c, 6, 62, 79
7, 25184, Note_on_c, 6, 56, 84
7, 25184, Note_on_c, 6, 46, 65
7, 25568, Note_on_c, 6, 56, 0
7, 25688, Note_on_c, 6, 46, 0
7, 25688, Note_on_c, 6, 62, 0
7, 25688, Note_on_c, 6, 56, 24
7, 25824, Note_on_c, 6, 56, 0
7, 25824, Note_on_c, 6, 65, 0
7, 26072, Note_on_c, 6, 65, 41
7, 26072, Note_on_c, 6, 62, 44
7, 26072, Note_on_c, 6, 39, 51
7, 26072, Note_on_c, 6, 55, 47
7, 26072, Note_on_c, 6, 55, 0
7, 26200, Note_on_c, 6, 65, 0
7, 26200, Note_on_c, 6, 62, 0
7, 26200, Note_on_c, 6, 39, 0
7, 26712, Note_on_c, 6, 65, 66
7, 26712, Note_on_c, 6, 58, 62
7, 26712, Note_on_c, 6, 62, 48
7, 26712, Note_on_c, 6, 55, 59
7, 26712, Note_on_c, 6, 39, 64
7, 26712, Note_on_c, 6, 57, 21
7, 26712, Note_on_c, 6, 57, 0
7, 26968, Note_on_c, 6, 62, 0
7, 27096, Note_on_c, 6, 55, 0
7, 27096, Note_on_c, 6, 58, 0
7, 27224, Note_on_c, 6, 65, 0
7, 27224, Note_on_c, 6, 39, 0
7, 27224, Note_on_c, 6, 62, 24
7, 27224, Note_on_c, 6, 62, 0
7, 27608, Note_on_c, 6, 70, 65
7, 27608, Note_on_c, 6, 65, 69
7, 27608, Note_on_c, 6, 62, 75
7, 27608, Note_on_c, 6, 62, 0
7, 27608, Note_on_c, 6, 67, 48
7, 27608, Note_on_c, 6, 39, 55
7, 27736, Note_on_c, 6, 39, 0
7, 27736, Note_on_c, 6, 70, 0
7, 27736, Note_on_c, 6, 65, 0
7, 27736, Note_on_c, 6, 67, 0
7, 28248, Note_on_c, 6, 65, 84
7, 28248, Note_on_c, 6, 70, 62
7, 28248, Note_on_c, 6, 62, 77
7, 28248, Note_on_c, 6, 67, 58
7, 28248, Note_on_c, 6, 39, 57
7, 28632, Note_on_c, 6, 39, 0
7, 28632, Note_on_c, 6, 62, 0
7, 28632, Note_on_c, 6, 65, 0
7, 28760, Note_on_c, 6, 70, 0
7, 28760, Note_on_c, 6, 67, 0
7, 28760, Note_on_c, 6, 65, 48
7, 28760, Note_on_c, 6, 65, 0
7, 29144, Note_on_c, 6, 66, 71
7, 29144, Note_on_c, 6, 70, 56
7, 29144, Note_on_c, 6, 77, 73
7, 29144, Note_on_c, 6, 50, 60
7, 29144, Note_on_c, 6, 60, 57
7, 29144, Note_on_c, 6, 72, 40
7, 29144, Note_on_c, 6, 75, 18
7, 29272, Note_on_c, 6, 75, 0
7, 29272, Note_on_c, 6, 60, 0
7, 29272, Note_on_c, 6, 70, 0
7, 29272, Note_on_c, 6, 77, 0
7, 29272, Note_on_c, 6, 66, 0
7, 29272, Note_on_c, 6, 72, 0
7, 29272, Note_on_c, 6, 50, 0
7, 29784, Note_on_c, 6, 75, 71
7, 29784, Note_on_c, 6, 66, 77
7, 29784, Note_on_c, 6, 70, 60
7, 29784, Note_on_c, 6, 72, 59
7, 29784, Note_on_c, 6, 60, 79
7, 29784, Note_on_c, 6, 60, 0
7, 29784, Note_on_c, 6, 50, 71
7, 29912, Note_on_c, 6, 60, 14
7, 30168, Note_on_c, 6, 66, 0
7, 30296, Note_on_c, 6, 72, 0
7, 30296, Note_on_c, 6, 75, 0
7, 30296, Note_on_c, 6, 70, 0
7, 30296, Note_on_c, 6, 66, 22
7, 30424, Note_on_c, 6, 66, 0
7, 30424, Note_on_c, 6, 60, 0
7, 30424, Note_on_c, 6, 50, 0
7, 30680, Note_on_c, 6, 66, 49
7, 30680, Note_on_c, 6, 74, 57
7, 30680, Note_on_c, 6, 64, 57
7, 30680, Note_on_c, 6, 60, 45
7, 30680, Note_on_c, 6, 60, 0
7, 30680, Note_on_c, 6, 50, 49
7, 30680, Note_on_c, 6, 69, 19
7, 30808, Note_on_c, 6, 69, 0
7, 30808, Note_on_c, 6, 66, 0
7, 30808, Note_on_c, 6, 64, 0
7, 30808, Note_on_c, 6, 74, 0
7, 30808, Note_on_c, 6, 50, 0
7, 31320, Note_on_c, 6, 66, 84
7, 31320, Note_on_c, 6, 72, 75
7, 31320, Note_on_c, 6, 69, 63
7, 31320, Note_on_c, 6, 64, 88
7, 31320, Note_on_c, 6, 50, 62
7, 31320, Note_on_c, 6, 60, 64
7, 31696, Note_on_c, 6, 60, 0
7, 31696, Note_on_c, 6, 66, 0
7, 31696, Note_on_c, 6, 64, 0
7, 31832, Note_on_c, 6, 72, 0
7, 31832, Note_on_c, 6, 50, 0
7, 31832, Note_on_c, 6, 69, 0
7, 31832, Note_on_c, 6, 57, 16
7, 31832, Note_on_c, 6, 57, 0
7, 31832, Note_on_c, 6, 66, 55
7, 31832, Note_on_c, 6, 66, 0
7, 31832, Note_on_c, 6, 64, 31
7, 31832, Note_on_c, 6, 64, 0
7, 32208, Note_on_c, 6, 69, 84
7, 32208, Note_on_c, 6, 58, 69
7, 32208, Note_on_c, 6, 43, 69
7, 32208, Note_on_c, 6, 62, 79
7, 32208, Note_on_c, 6, 65, 41
7, 32336, Note_on_c, 6, 65, 0
7, 32336, Note_on_c, 6, 43, 0
7, 32336, Note_on_c, 6, 69, 0
7, 32336, Note_on_c, 6, 58, 0
7, 32336, Note_on_c, 6, 62, 0
7, 32848, Note_on_c, 6, 58, 66
7, 32848, Note_on_c, 6, 62, 75
7, 32848, Note_on_c, 6, 67, 64
7, 32848, Note_on_c, 6, 43, 83
7, 33232, Note_on_c, 6, 58, 0
7, 33360, Note_on_c, 6, 62, 0
7, 33360, Note_on_c, 6, 67, 0
7, 33360, Note_on_c, 6, 58, 18
7, 33488, Note_on_c, 6, 58, 0
7, 33488, Note_on_c, 6, 43, 0
7, 33744, Note_on_c, 6, 58, 32
7, 33744, Note_on_c, 6, 57, 39
7, 33744, Note_on_c, 6, 57, 0
7, 33744, Note_on_c, 6, 43, 40
7, 33744, Note_on_c, 6, 62, 32
7, 33744, Note_on_c, 6, 62, 0
7, 33872, Note_on_c, 6, 43, 0
7, 33872, Note_on_c, 6, 58, 0
7, 34384, Note_on_c, 6, 58, 67
7, 34384, Note_on_c, 6, 62, 64
7, 34384, Note_on_c, 6, 57, 94
7, 34384, Note_on_c, 6, 43, 67
7, 34768, Note_on_c, 6, 57, 0
7, 34768, Note_on_c, 6, 58, 0
7, 34896, Note_on_c, 6, 62, 0
7, 34896, Note_on_c, 6, 43, 0
7, 34896, Note_on_c, 6, 50, 31
7, 34896, Note_on_c, 6, 50, 0
7, 34896, Note_on_c, 6, 58, 26
7, 34896, Note_on_c, 6, 58, 0
7, 35280, Note_on_c, 6, 74, 102
7, 35280, Note_on_c, 6, 70, 90
7, 35280, Note_on_c, 6, 65, 109
7, 35280, Note_on_c, 6, 58, 65
7, 35280, Note_on_c, 6, 48, 75
7, 35408, Note_on_c, 6, 48, 0
7, 35536, Note_on_c, 6, 65, 0
7, 35536, Note_on_c, 6, 74, 0
7, 35536, Note_on_c, 6, 70, 0
7, 35536, Note_on_c, 6, 58, 0
7, 35920, Note_on_c, 6, 58, 73
7, 35920, Note_on_c, 6, 70, 88
7, 35920, Note_on_c, 6, 74, 96
7, 35920, Note_on_c, 6, 65, 104
7, 35920, Note_on_c, 6, 48, 75
7, 35920, Note_on_c, 6, 68, 30
7, 35920, Note_on_c, 6, 68, 0
7, 36432, Note_on_c, 6, 70, 0
7, 36432, Note_on_c, 6, 74, 0
7, 36432, Note_on_c, 6, 58, 0
7, 36432, Note_on_c, 6, 48, 0
7, 36432, Note_on_c, 6, 65, 0
7, 36432, Note_on_c, 6, 65, 21
7, 36432, Note_on_c, 6, 65, 0
7, 36816, Note_on_c, 6, 69, 81
7, 36816, Note_on_c, 6, 58, 66
7, 36816, Note_on_c, 6, 62, 69
7, 36816, Note_on_c, 6, 64, 64
7, 36816, Note_on_c, 6, 48, 59
7, 36816, Note_on_c, 6, 57, 81
7, 37072, Note_on_c, 6, 57, 0
7, 37072, Note_on_c, 6, 58, 0
7, 37072, Note_on_c, 6, 62, 0
7, 37072, Note_on_c, 6, 69, 0
7, 37072, Note_on_c, 6, 48, 0
7, 37072, Note_on_c, 6, 64, 0
7, 37456, Note_on_c, 6, 58, 77
7, 37456, Note_on_c, 6, 67, 61
7, 37456, Note_on_c, 6, 61, 69
7, 37456, Note_on_c, 6, 64, 64
7, 37456, Note_on_c, 6, 55, 81
7, 37456, Note_on_c, 6, 48, 88
7, 37960, Note_on_c, 6, 48, 0
7, 37960, Note_on_c, 6, 67, 0
7, 37960, Note_on_c, 6, 61, 0
7, 37960, Note_on_c, 6, 55, 0
7, 37960, Note_on_c, 6, 63, 57
7, 37960, Note_on_c, 6, 73, 46
7, 37960, Note_on_c, 6, 47, 60
7, 37960, Note_on_c, 6, 68, 48
7, 38088, Note_on_c, 6, 68, 0
7, 38088, Note_on_c, 6, 73, 0
7, 38088, Note_on_c, 6, 63, 0
7, 38088, Note_on_c, 6, 47, 0
7, 38352, Note_on_c, 6, 74, 31
7, 38352, Note_on_c, 6, 79, 32
7, 38352, Note_on_c, 6, 75, 18
7, 38352, Note_on_c, 6, 60, 35
7, 38472, Note_on_c, 6, 60, 0
7, 38472, Note_on_c, 6, 79, 0
7, 38472, Note_on_c, 6, 74, 0
7, 38472, Note_on_c, 6, 75, 0
7, 38728, Note_on_c, 6, 75, 33
7, 38728, Note_on_c, 6, 74, 57
7, 38728, Note_on_c, 6, 79, 52
7, 38728, Note_on_c, 6, 60, 60
7, 38856, Note_on_c, 6, 60, 0
7, 38856, Note_on_c, 6, 74, 0
7, 38856, Note_on_c, 6, 75, 0
7, 38856, Note_on_c, 6, 79, 0
7, 39112, Note_on_c, 6, 75, 16
7, 39112, Note_on_c, 6, 60, 24
7, 39112, Note_on_c, 6, 74, 18
7, 39112, Note_on_c, 6, 79, 21
7, 39240, Note_on_c, 6, 79, 0
7, 39240, Note_on_c, 6, 60, 0
7, 39240, Note_on_c, 6, 75, 0
7, 39240, Note_on_c, 6, 74, 0
7, 39496, Note_on_c, 6, 75, 41
7, 39496, Note_on_c, 6, 74, 62
7, 39496, Note_on_c, 6, 79, 56
7, 39496, Note_on_c, 6, 60, 53
7, 39624, Note_on_c, 6, 79, 0
7, 39624, Note_on_c, 6, 74, 0
7, 39624, Note_on_c, 6, 75, 0
7, 39880, Note_on_c, 6, 60, 0
7, 39880, Note_on_c, 6, 66, 26
7, 39880, Note_on_c, 6, 77, 32
7, 39880, Note_on_c, 6, 62, 26
7, 39880, Note_on_c, 6, 72, 34
7, 40008, Note_on_c, 6, 72, 0
7, 40008, Note_on_c, 6, 77, 0
7, 40008, Note_on_c, 6, 66, 0
7, 40008, Note_on_c, 6, 62, 0
7, 40264, Note_on_c, 6, 66, 74
7, 40264, Note_on_c, 6, 77, 72
7, 40264, Note_on_c, 6, 72, 61
7, 40264, Note_on_c, 6, 62, 49
7, 40392, Note_on_c, 6, 62, 0
7, 40392, Note_on_c, 6, 77, 0
7, 40392, Note_on_c, 6, 66, 0
7, 40392, Note_on_c, 6, 72, 0
7, 40648, Note_on_c, 6, 66, 47
7, 40648, Note_on_c, 6, 75, 31
7, 40648, Note_on_c, 6, 72, 30
7, 40648, Note_on_c, 6, 62, 29
7, 40776, Note_on_c, 6, 62, 0
7, 40776, Note_on_c, 6, 75, 0
7, 40776, Note_on_c, 6, 72, 0
7, 40904, Note_on_c, 6, 66, 0
7, 41032, Note_on_c, 6, 66, 45
7, 41032, Note_on_c, 6, 70, 48
7, 41032, Note_on_c, 6, 62, 38
7, 41032, Note_on_c, 6, 74, 47
7, 41160, Note_on_c, 6, 74, 0
7, 41160, Note_on_c, 6, 70, 0
7, 41160, Note_on_c, 6, 66, 0
7, 41160, Note_on_c, 6, 62, 0
7, 41416, Note_on_c, 6, 65, 25
7, 41416, Note_on_c, 6, 55, 23
7, 41416, Note_on_c, 6, 72, 24
7, 41416, Note_on_c, 6, 69, 29
7, 41544, Note_on_c, 6, 69, 0
7, 41544, Note_on_c, 6, 55, 0
7, 41544, Note_on_c, 6, 65, 0
7, 41544, Note_on_c, 6, 72, 0
7, 41800, Note_on_c, 6, 72, 55
7, 41800, Note_on_c, 6, 65, 57
7, 41800, Note_on_c, 6, 69, 65
7, 41800, Note_on_c, 6, 55, 43
7, 41928, Note_on_c, 6, 55, 0
7, 41928, Note_on_c, 6, 65, 0
7, 41928, Note_on_c, 6, 72, 0
7, 41928, Note_on_c, 6, 69, 0
7, 42184, Note_on_c, 6, 55, 33
7, 42184, Note_on_c, 6, 69, 53
7, 42184, Note_on_c, 6, 65, 49
7, 42184, Note_on_c, 6, 72, 35
7, 42312, Note_on_c, 6, 72, 0
7, 42312, Note_on_c, 6, 69, 0
7, 42312, Note_on_c, 6, 65, 0
7, 42440, Note_on_c, 6, 55, 0
7, 42440, Note_on_c, 6, 67, 45
7, 42440, Note_on_c, 6, 70, 43
7, 42440, Note_on_c, 6, 62, 42
7, 42440, Note_on_c, 6, 55, 42
7, 42696, Note_on_c, 6, 62, 0
7, 42824, Note_on_c, 6, 70, 0
7, 42824, Note_on_c, 6, 67, 0
7, 42824, Note_on_c, 6, 55, 0
7, 42952, Note_on_c, 6, 65, 15
7, 42952, Note_on_c, 6, 65, 0
7, 42952, Note_on_c, 6, 55, 29
7, 42952, Note_on_c, 6, 55, 0
7, 42952, Note_on_c, 6, 72, 23
7, 42952, Note_on_c, 6, 69, 35
7, 42952, Note_on_c, 6, 69, 0
7, 43080, Note_on_c, 6, 72, 0
7, 43336, Note_on_c, 6, 65, 53
7, 43336, Note_on_c, 6, 72, 51
7, 43336, Note_on_c, 6, 55, 38
7, 43336, Note_on_c, 6, 69, 54
7, 43456, Note_on_c, 6, 69, 0
7, 43456, Note_on_c, 6, 72, 0
7, 43456, Note_on_c, 6, 65, 0
7, 43456, Note_on_c, 6, 55, 0
7, 43712, Note_on_c, 6, 65, 60
7, 43712, Note_on_c, 6, 55, 40
7, 43712, Note_on_c, 6, 69, 57
7, 43712, Note_on_c, 6, 72, 37
7, 43968, Note_on_c, 6, 69, 0
7, 43968, Note_on_c, 6, 55, 0
7, 43968, Note_on_c, 6, 65, 0
7, 44096, Note_on_c, 6, 72, 0
7, 44096, Note_on_c, 6, 55, 26
7, 44096, Note_on_c, 6, 70, 29
7, 44096, Note_on_c, 6, 62, 19
7, 44096, Note_on_c, 6, 67, 17
7, 44224, Note_on_c, 6, 62, 0
7, 44352, Note_on_c, 6, 70, 0
7, 44352, Note_on_c, 6, 67, 0
7, 44480, Note_on_c, 6, 55, 0
7, 44480, Note_on_c, 6, 63, 37
7, 44480, Note_on_c, 6, 74, 57
7, 44480, Note_on_c, 6, 60, 28
7, 44480, Note_on_c, 6, 60, 0
7, 44480, Note_on_c, 6, 67, 31
7, 44608, Note_on_c, 6, 67, 0
7, 44608, Note_on_c, 6, 74, 0
7, 44608, Note_on_c, 6, 63, 0
7, 44864, Note_on_c, 6, 63, 33
7, 44864, Note_on_c, 6, 74, 57
7, 44864, Note_on_c, 6, 60, 31
7, 44864, Note_on_c, 6, 60, 0
7, 44864, Note_on_c, 6, 67, 30
7, 44992, Note_on_c, 6, 67, 0
7, 44992, Note_on_c, 6, 74, 0
7, 44992, Note_on_c, 6, 63, 0
7, 45248, Note_on_c, 6, 63, 69
7, 45248, Note_on_c, 6, 67, 70
7, 45248, Note_on_c, 6, 74, 76
7, 45248, Note_on_c, 6, 62, 58
7, 45504, Note_on_c, 6, 74, 0
7, 45504, Note_on_c, 6, 67, 0
7, 45504, Note_on_c, 6, 63, 0
7, 45632, Note_on_c, 6, 62, 0
7, 45632, Note_on_c, 6, 60, 34
7, 45632, Note_on_c, 6, 60, 0
7, 45632, Note_on_c, 6, 63, 33
7, 45632, Note_on_c, 6, 67, 19
7, 45632, Note_on_c, 6, 72, 29
7, 45760, Note_on_c, 6, 72, 0
7, 45760, Note_on_c, 6, 63, 0
7, 45760, Note_on_c, 6, 67, 0
7, 46016, Note_on_c, 6, 66, 63
7, 46016, Note_on_c, 6, 62, 27
7, 46016, Note_on_c, 6, 62, 0
7, 46016, Note_on_c, 6, 74, 56
7, 46016, Note_on_c, 6, 70, 32
7, 46144, Note_on_c, 6, 70, 0
7, 46144, Note_on_c, 6, 66, 0
7, 46144, Note_on_c, 6, 74, 0
7, 46400, Note_on_c, 6, 66, 78
7, 46400, Note_on_c, 6, 70, 58
7, 46400, Note_on_c, 6, 74, 69
7, 46400, Note_on_c, 6, 62, 50
7, 46528, Note_on_c, 6, 62, 0
7, 46528, Note_on_c, 6, 70, 0
7, 46528, Note_on_c, 6, 66, 0
7, 46528, Note_on_c, 6, 74, 0
7, 46784, Note_on_c, 6, 66, 58
7, 46784, Note_on_c, 6, 68, 56
7, 46784, Note_on_c, 6, 74, 62
7, 46784, Note_on_c, 6, 62, 40
7, 47040, Note_on_c, 6, 62, 0
7, 47040, Note_on_c, 6, 68, 0
7, 47040, Note_on_c, 6, 66, 0
7, 47040, Note_on_c, 6, 74, 0
7, 47168, Note_on_c, 6, 74, 67
7, 47168, Note_on_c, 6, 66, 59
7, 47168, Note_on_c, 6, 62, 44
7, 47168, Note_on_c, 6, 69, 63
7, 47296, Note_on_c, 6, 69, 0
7, 47296, Note_on_c, 6, 74, 0
7, 47296, Note_on_c, 6, 66, 0
7, 47424, Note_on_c, 6, 62, 0
7, 47552, Note_on_c, 6, 65, 16
7, 47552, Note_on_c, 6, 55, 22
7, 47552, Note_on_c, 6, 69, 24
7, 47552, Note_on_c, 6, 72, 18
7, 47680, Note_on_c, 6, 72, 0
7, 47680, Note_on_c, 6, 55, 0
7, 47680, Note_on_c, 6, 65, 0
7, 47680, Note_on_c, 6, 69, 0
7, 47936, Note_on_c, 6, 72, 72
7, 47936, Note_on_c, 6, 65, 72
7, 47936, Note_on_c, 6, 69, 78
7, 47936, Note_on_c, 6, 55, 48
7, 48064, Note_on_c, 6, 55, 0
7, 48064, Note_on_c, 6, 65, 0
7, 48064, Note_on_c, 6, 72, 0
7, 48064, Note_on_c, 6, 69, 0
7, 48320, Note_on_c, 6, 65, 45
7, 48320, Note_on_c, 6, 72, 43
7, 48320, Note_on_c, 6, 69, 35
7, 48320, Note_on_c, 6, 55, 27
7, 48448, Note_on_c, 6, 69, 0
7, 48448, Note_on_c, 6, 65, 0
7, 48576, Note_on_c, 6, 72, 0
7, 48576, Note_on_c, 6, 55, 0
7, 48576, Note_on_c, 6, 70, 52
7, 48576, Note_on_c, 6, 67, 51
7, 48576, Note_on_c, 6, 62, 38
7, 48576, Note_on_c, 6, 55, 50
7, 48960, Note_on_c, 6, 55, 0
7, 48960, Note_on_c, 6, 67, 0
7, 48960, Note_on_c, 6, 70, 0
7, 48960, Note_on_c, 6, 62, 0
7, 49088, Note_on_c, 6, 65, 30
7, 49088, Note_on_c, 6, 65, 0
7, 49088, Note_on_c, 6, 55, 29
7, 49088, Note_on_c, 6, 55, 0
7, 49088, Note_on_c, 6, 69, 29
7, 49088, Note_on_c, 6, 69, 0
7, 49088, Note_on_c, 6, 72, 23
7, 49088, Note_on_c, 6, 72, 0
7, 49472, Note_on_c, 6, 72, 58
7, 49472, Note_on_c, 6, 69, 62
7, 49472, Note_on_c, 6, 65, 59
7, 49472, Note_on_c, 6, 55, 37
7, 49592, Note_on_c, 6, 55, 0
7, 49592, Note_on_c, 6, 69, 0
7, 49592, Note_on_c, 6, 72, 0
7, 49592, Note_on_c, 6, 65, 0
7, 49856, Note_on_c, 6, 72, 55
7, 49856, Note_on_c, 6, 65, 58
7, 49856, Note_on_c, 6, 55, 37
7, 49856, Note_on_c, 6, 69, 49
7, 49976, Note_on_c, 6, 69, 0
7, 50104, Note_on_c, 6, 65, 0
7, 50104, Note_on_c, 6, 55, 0
7, 50232, Note_on_c, 6, 72, 0
7, 50232, Note_on_c, 6, 70, 47
7, 50232, Note_on_c, 6, 62, 35
7, 50232, Note_on_c, 6, 67, 34
7, 50232, Note_on_c, 6, 55, 29
7, 50488, Note_on_c, 6, 67, 0
7, 50488, Note_on_c, 6, 62, 0
7, 50488, Note_on_c, 6, 70, 0
7, 50616, Note_on_c, 6, 55, 0
7, 50616, Note_on_c, 6, 63, 35
7, 50616, Note_on_c, 6, 67, 23
7, 50616, Note_on_c, 6, 74, 55
7, 50616, Note_on_c, 6, 60, 28
7, 50616, Note_on_c, 6, 70, 27
7, 50744, Note_on_c, 6, 70, 0
7, 50744, Note_on_c, 6, 74, 0
7, 50744, Note_on_c, 6, 67, 0
7, 50744, Note_on_c, 6, 63, 0
7, 50744, Note_on_c, 6, 60, 0
7, 51000, Note_on_c, 6, 63, 42
7, 51000, Note_on_c, 6, 74, 49
7, 51000, Note_on_c, 6, 67, 29
7, 51000, Note_on_c, 6, 70, 25
7, 51000, Note_on_c, 6, 60, 27
7, 51000, Note_on_c, 6, 60, 0
7, 51128, Note_on_c, 6, 67, 0
7, 51128, Note_on_c, 6, 74, 0
7, 51128, Note_on_c, 6, 63, 0
7, 51128, Note_on_c, 6, 70, 0
7, 51384, Note_on_c, 6, 63, 33
7, 51384, Note_on_c, 6, 74, 39
7, 51384, Note_on_c, 6, 67, 29
7, 51384, Note_on_c, 6, 70, 20
7, 51384, Note_on_c, 6, 60, 23
7, 51512, Note_on_c, 6, 63, 0
7, 51640, Note_on_c, 6, 70, 0
7, 51640, Note_on_c, 6, 67, 0
7, 51640, Note_on_c, 6, 74, 0
7, 51640, Note_on_c, 6, 60, 0
7, 51640, Note_on_c, 6, 63, 32
7, 51640, Note_on_c, 6, 60, 22
7, 51640, Note_on_c, 6, 67, 19
7, 51640, Note_on_c, 6, 72, 45
7, 51768, Note_on_c, 6, 67, 0
7, 51768, Note_on_c, 6, 63, 0
7, 51896, Note_on_c, 6, 72, 0
7, 52024, Note_on_c, 6, 60, 0
7, 52152, Note_on_c, 6, 77, 63
7, 52152, Note_on_c, 6, 66, 59
7, 52152, Note_on_c, 6, 66, 0
7, 52152, Note_on_c, 6, 70, 40
7, 52152, Note_on_c, 6, 62, 37
7, 52152, Note_on_c, 6, 62, 0
7, 52152, Note_on_c, 6, 72, 24
7, 52152, Note_on_c, 6, 72, 0
7, 52280, Note_on_c, 6, 70, 0
7, 52280, Note_on_c, 6, 77, 0
7, 52536, Note_on_c, 6, 66, 50
7, 52536, Note_on_c, 6, 77, 60
7, 52536, Note_on_c, 6, 70, 40
7, 52536, Note_on_c, 6, 62, 35
7, 52536, Note_on_c, 6, 72, 29
7, 52664, Note_on_c, 6, 72, 0
7, 52664, Note_on_c, 6, 70, 0
7, 52664, Note_on_c, 6, 77, 0
7, 52664, Note_on_c, 6, 66, 0
7, 52664, Note_on_c, 6, 62, 0
7, 52920, Note_on_c, 6, 66, 30
7, 52920, Note_on_c, 6, 75, 32
7, 52920, Note_on_c, 6, 70, 28
7, 52920, Note_on_c, 6, 62, 27
7, 52920, Note_on_c, 6, 72, 17
7, 53048, Note_on_c, 6, 62, 0
7, 53048, Note_on_c, 6, 66, 0
7, 53048, Note_on_c, 6, 70, 0
7, 53176, Note_on_c, 6, 75, 0
7, 53176, Note_on_c, 6, 72, 0
7, 53176, Note_on_c, 6, 70, 53
7, 53176, Note_on_c, 6, 66, 48
7, 53176, Note_on_c, 6, 74, 61
7, 53176, Note_on_c, 6, 62, 30
7, 53560, Note_on_c, 6, 74, 0
7, 53560, Note_on_c, 6, 66, 0
7, 53560, Note_on_c, 6, 70, 0
7, 53688, Note_on_c, 6, 62, 0
7, 53688, Note_on_c, 6, 65, 26
7, 53688, Note_on_c, 6, 55, 25
7, 53688, Note_on_c, 6, 55, 0
7, 53688, Note_on_c, 6, 69, 29
7, 53688, Note_on_c, 6, 72, 23
7, 53816, Note_on_c, 6, 72, 0
7, 53816, Note_on_c, 6, 65, 0
7, 53816, Note_on_c, 6, 69, 0
7, 54072, Note_on_c, 6, 65, 26
7, 54072, Note_on_c, 6, 55, 27
7, 54072, Note_on_c, 6, 72, 24
7, 54072, Note_on_c, 6, 69, 18
7, 54200, Note_on_c, 6, 69, 0
7, 54200, Note_on_c, 6, 55, 0
7, 54200, Note_on_c, 6, 65, 0
7, 54200, Note_on_c, 6, 72, 0
7, 54456, Note_on_c, 6, 65, 29
7, 54456, Note_on_c, 6, 70, 28
7, 54456, Note_on_c, 6, 74, 36
7, 54456, Note_on_c, 6, 55, 24
7, 54712, Note_on_c, 6, 55, 0
7, 54712, Note_on_c, 6, 65, 0
7, 54840, Note_on_c, 6, 70, 0
7, 54840, Note_on_c, 6, 65, 33
7, 54840, Note_on_c, 6, 65, 0
7, 54840, Note_on_c, 6, 55, 27
7, 54840, Note_on_c, 6, 70, 28
7, 54960, Note_on_c, 6, 70, 0
7, 54960, Note_on_c, 6, 74, 0
7, 55088, Note_on_c, 6, 55, 0
7, 55088, Note_on_c, 6, 70, 76
7, 55088, Note_on_c, 6, 74, 82
7, 55088, Note_on_c, 6, 65, 86
7, 55088, Note_on_c, 6, 60, 65
7, 55480, Note_on_c, 6, 60, 0
7, 55480, Note_on_c, 6, 74, 0
7, 55480, Note_on_c, 6, 70, 0
7, 55480, Note_on_c, 6, 65, 0
7, 55600, Note_on_c, 6, 65, 34
7, 55600, Note_on_c, 6, 70, 33
7, 55600, Note_on_c, 6, 74, 24
7, 55600, Note_on_c, 6, 60, 29
7, 55728, Note_on_c, 6, 60, 0
7, 55728, Note_on_c, 6, 65, 0
7, 55728, Note_on_c, 6, 70, 0
7, 55856, Note_on_c, 6, 74, 0
7, 55984, Note_on_c, 6, 64, 28
7, 55984, Note_on_c, 6, 74, 34
7, 55984, Note_on_c, 6, 70, 27
7, 55984, Note_on_c, 6, 60, 21
7, 55984, Note_on_c, 6, 60, 0
7, 56112, Note_on_c, 6, 74, 0
7, 56112, Note_on_c, 6, 64, 0
7, 56112, Note_on_c, 6, 70, 0
7, 56368, Note_on_c, 6, 70, 31
7, 56368, Note_on_c, 6, 64, 40
7, 56368, Note_on_c, 6, 60, 30
7, 56368, Note_on_c, 6, 60, 0
7, 56368, Note_on_c, 6, 74, 46
7, 56496, Note_on_c, 6, 74, 0
7, 56496, Note_on_c, 6, 70, 0
7, 56496, Note_on_c, 6, 64, 0
7, 56752, Note_on_c, 6, 63, 49
7, 56752, Note_on_c, 6, 74, 49
7, 56752, Note_on_c, 6, 60, 35
7, 56752, Note_on_c, 6, 60, 0
7, 56752, Note_on_c, 6, 67, 35
7, 56880, Note_on_c, 6, 67, 0
7, 56880, Note_on_c, 6, 74, 0
7, 56880, Note_on_c, 6, 63, 0
7, 57136, Note_on_c, 6, 63, 34
7, 57136, Note_on_c, 6, 74, 50
7, 57136, Note_on_c, 6, 60, 34
7, 57136, Note_on_c, 6, 60, 0
7, 57136, Note_on_c, 6, 67, 27
7, 57264, Note_on_c, 6, 67, 0
7, 57264, Note_on_c, 6, 74, 0
7, 57264, Note_on_c, 6, 63, 0
7, 57520, Note_on_c, 6, 63, 27
7, 57520, Note_on_c, 6, 60, 29
7, 57520, Note_on_c, 6, 74, 29
7, 57520, Note_on_c, 6, 67, 23
7, 57648, Note_on_c, 6, 67, 0
7, 57648, Note_on_c, 6, 60, 0
7, 57648, Note_on_c, 6, 63, 0
7, 57648, Note_on_c, 6, 74, 0
7, 57904, Note_on_c, 6, 63, 30
7, 57904, Note_on_c, 6, 60, 30
7, 57904, Note_on_c, 6, 67, 27
7, 57904, Note_on_c, 6, 74, 21
7, 58032, Note_on_c, 6, 74, 0
7, 58032, Note_on_c, 6, 60, 0
7, 58032, Note_on_c, 6, 63, 0
7, 58032, Note_on_c, 6, 67, 0
7, 58288, Note_on_c, 6, 66, 62
7, 58288, Note_on_c, 6, 62, 34
7, 58288, Note_on_c, 6, 74, 44
7, 58288, Note_on_c, 6, 70, 25
7, 58416, Note_on_c, 6, 70, 0
7, 58416, Note_on_c, 6, 62, 0
7, 58416, Note_on_c, 6, 66, 0
7, 58416, Note_on_c, 6, 74, 0
7, 58672, Note_on_c, 6, 62, 57
7, 58672, Note_on_c, 6, 66, 70
7, 58672, Note_on_c, 6, 74, 64
7, 58672, Note_on_c, 6, 70, 41
7, 58800, Note_on_c, 6, 70, 0
7, 58800, Note_on_c, 6, 66, 0
7, 58800, Note_on_c, 6, 62, 0
7, 58800, Note_on_c, 6, 74, 0
7, 59056, Note_on_c, 6, 66, 31
7, 59056, Note_on_c, 6, 69, 31
7, 59056, Note_on_c, 6, 72, 27
7, 59056, Note_on_c, 6, 62, 35
7, 59312, Note_on_c, 6, 62, 0
7, 59312, Note_on_c, 6, 66, 0
7, 59312, Note_on_c, 6, 69, 0
7, 59440, Note_on_c, 6, 72, 0
7, 59440, Note_on_c, 6, 66, 42
7, 59440, Note_on_c, 6, 69, 47
7, 59440, Note_on_c, 6, 69, 0
7, 59440, Note_on_c, 6, 62, 30
7, 59568, Note_on_c, 6, 66, 0
7, 59696, Note_on_c, 6, 62, 0
7, 59824, Note_on_c, 6, 65, 20
7, 59824, Note_on_c, 6, 65, 0
7, 59824, Note_on_c, 6, 55, 24
7, 59824, Note_on_c, 6, 55, 0
7, 59824, Note_on_c, 6, 69, 31
7, 59824, Note_on_c, 6, 69, 0
7, 59824, Note_on_c, 6, 72, 24
7, 59952, Note_on_c, 6, 72, 0
7, 60208, Note_on_c, 6, 72, 46
7, 60208, Note_on_c, 6, 69, 45
7, 60208, Note_on_c, 6, 65, 42
7, 60208, Note_on_c, 6, 55, 28
7, 60208, Note_on_c, 6, 55, 0
7, 60336, Note_on_c, 6, 69, 0
7, 60336, Note_on_c, 6, 72, 0
7, 60336, Note_on_c, 6, 65, 0
7, 60592, Note_on_c, 6, 70, 22
7, 60592, Note_on_c, 6, 55, 18
7, 60720, Note_on_c, 6, 62, 1
7, 60848, Note_on_c, 6, 62, 0
7, 60848, Note_on_c, 6, 70, 0
7, 60848, Note_on_c, 6, 55, 0
7, 60976, Note_on_c, 6, 55, 17
7, 61096, Note_on_c, 6, 55, 0
7, 61232, Note_on_c, 6, 55, 18
7, 61232, Note_on_c, 6, 55, 0
7, 61352, Note_on_c, 6, 55, 44
7, 61352, Note_on_c, 6, 65, 84
7, 61352, Note_on_c, 6, 69, 82
7, 61352, Note_on_c, 6, 72, 76
7, 61480, Note_on_c, 6, 72, 0
7, 61480, Note_on_c, 6, 65, 0
7, 61480, Note_on_c, 6, 55, 0
7, 61480, Note_on_c, 6, 69, 0
7, 61736, Note_on_c, 6, 72, 28
7, 61736, Note_on_c, 6, 55, 24
7, 61736, Note_on_c, 6, 65, 28
7, 61736, Note_on_c, 6, 69, 24
7, 61864, Note_on_c, 6, 69, 0
7, 61864, Note_on_c, 6, 55, 0
7, 61864, Note_on_c, 6, 72, 0
7, 61864, Note_on_c, 6, 65, 0
7, 61992, Note_on_c, 6, 62, 37
7, 61992, Note_on_c, 6, 70, 30
7, 61992, Note_on_c, 6, 55, 27
7, 61992, Note_on_c, 6, 67, 28
7, 62632, Note_on_c, 6, 67, 0
7, 62632, Note_on_c, 6, 70, 0
7, 62632, Note_on_c, 6, 62, 0
7, 62632, Note_on_c, 6, 55, 0
7, 62896, Note_on_c, 6, 63, 57
7, 62896, Note_on_c, 6, 73, 46
7, 62896, Note_on_c, 6, 47, 60
7, 62896, Note_on_c, 6, 68, 48
7, 63016, Note_on_c, 6, 68, 0
7, 63016, Note_on_c, 6, 73, 0
7, 63016, Note_on_c, 6, 63, 0
7, 63016, Note_on_c, 6, 47, 0
7, 63528, Note_on_c, 6, 73, 52
7, 63528, Note_on_c, 6, 63, 56
7, 63528, Note_on_c, 6, 68, 50
7, 63528, Note_on_c, 6, 47, 55
7, 63912, Note_on_c, 6, 63, 0
7, 64040, Note_on_c, 6, 68, 0
7, 64040, Note_on_c, 6, 73, 0
7, 64040, Note_on_c, 6, 47, 0
7, 64040, Note_on_c, 6, 63, 17
7, 64040, Note_on_c, 6, 63, 0
7, 64424, Note_on_c, 6, 63, 54
7, 64424, Note_on_c, 6, 63, 0
7, 64424, Note_on_c, 6, 73, 45
7, 64424, Note_on_c, 6, 73, 0
7, 64424, Note_on_c, 6, 68, 34
7, 64424, Note_on_c, 6, 68, 0
7, 64424, Note_on_c, 6, 47, 40
7, 64424, Note_on_c, 6, 47, 0
7, 65064, Note_on_c, 6, 73, 65
7, 65064, Note_on_c, 6, 63, 71
7, 65064, Note_on_c, 6, 68, 60
7, 65064, Note_on_c, 6, 47, 59
7, 65448, Note_on_c, 6, 63, 0
7, 65576, Note_on_c, 6, 68, 0
7, 65576, Note_on_c, 6, 73, 0
7, 65576, Note_on_c, 6, 47, 0
7, 65576, Note_on_c, 6, 63, 19
7, 65576, Note_on_c, 6, 63, 0
7, 65576, Note_on_c, 6, 69, 40
7, 65576, Note_on_c, 6, 69, 0
7, 65960, Note_on_c, 6, 69, 56
7, 65960, Note_on_c, 6, 74, 34
7, 65960, Note_on_c, 6, 70, 33
7, 65960, Note_on_c, 6, 55, 36
7, 65960, Note_on_c, 6, 55, 0
7, 66088, Note_on_c, 6, 74, 0
7, 66088, Note_on_c, 6, 69, 0
7, 66088, Note_on_c, 6, 70, 0
7, 66600, Note_on_c, 6, 69, 106
7, 66600, Note_on_c, 6, 70, 59
7, 66600, Note_on_c, 6, 74, 73
7, 66600, Note_on_c, 6, 55, 57
7, 67112, Note_on_c, 6, 74, 0
7, 67112, Note_on_c, 6, 70, 0
7, 67112, Note_on_c, 6, 69, 0
7, 67112, Note_on_c, 6, 50, 25
7, 67112, Note_on_c, 6, 67, 19
7, 67232, Note_on_c, 6, 67, 0
7, 67232, Note_on_c, 6, 50, 0
7, 67360, Note_on_c, 6, 55, 0
7, 67488, Note_on_c, 6, 57, 24
7, 67488, Note_on_c, 6, 57, 0
7, 67488, Note_on_c, 6, 43, 25
7, 67488, Note_on_c, 6, 43, 0
7, 67488, Note_on_c, 6, 58, 27
7, 67488, Note_on_c, 6, 62, 29
7, 67488, Note_on_c, 6, 62, 0
7, 67616, Note_on_c, 6, 58, 0
7, 68128, Note_on_c, 6, 58, 44
7, 68128, Note_on_c, 6, 57, 47
7, 68128, Note_on_c, 6, 62, 55
7, 68128, Note_on_c, 6, 43, 40
7, 68512, Note_on_c, 6, 57, 0
7, 68512, Note_on_c, 6, 58, 0
7, 68640, Note_on_c, 6, 62, 0
7, 68640, Note_on_c, 6, 58, 0
7, 68640, Note_on_c, 6, 58, 38
7, 69024, Note_on_c, 6, 43, 0
7, 69024, Note_on_c, 6, 63, 32
7, 69024, Note_on_c, 6, 73, 32
7, 69024, Note_on_c, 6, 68, 33
7, 69024, Note_on_c, 6, 47, 26
7, 69152, Note_on_c, 6, 47, 0
7, 69152, Note_on_c, 6, 73, 0
7, 69152, Note_on_c, 6, 63, 0
7, 69152, Note_on_c, 6, 68, 0
7, 69664, Note_on_c, 6, 73, 57
7, 69664, Note_on_c, 6, 63, 59
7, 69664, Note_on_c, 6, 68, 56
7, 69664, Note_on_c, 6, 47, 59
7, 70048, Note_on_c, 6, 63, 0
7, 70176, Note_on_c, 6, 68, 0
7, 70176, Note_on_c, 6, 73, 0
7, 70176, Note_on_c, 6, 47, 0
7, 70176, Note_on_c, 6, 63, 18
7, 70176, Note_on_c, 6, 63, 0
7, 70560, Note_on_c, 6, 63, 35
7, 70560, Note_on_c, 6, 47, 34
7, 70560, Note_on_c, 6, 73, 31
7, 70560, Note_on_c, 6, 68, 32
7, 70688, Note_on_c, 6, 68, 0
7, 70688, Note_on_c, 6, 47, 0
7, 70688, Note_on_c, 6, 63, 0
7, 70688, Note_on_c, 6, 73, 0
7, 71200, Note_on_c, 6, 73, 63
7, 71200, Note_on_c, 6, 63, 71
7, 71200, Note_on_c, 6, 68, 61
7, 71200, Note_on_c, 6, 47, 61
7, 71840, Note_on_c, 6, 68, 0
7, 71840, Note_on_c, 6, 63, 0
7, 71840, Note_on_c, 6, 73, 0
7, 72096, Note_on_c, 6, 47, 0
7, 72096, Note_on_c, 6, 43, 29
7, 72096, Note_on_c, 6, 74, 28
7, 72096, Note_on_c, 6, 69, 20
7, 72096, Note_on_c, 6, 64, 9
7, 72224, Note_on_c, 6, 69, 0
7, 72224, Note_on_c, 6, 74, 0
7, 72224, Note_on_c, 6, 43, 0
7, 72224, Note_on_c, 6, 64, 0
7, 72728, Note_on_c, 6, 69, 49
7, 72728, Note_on_c, 6, 64, 49
7, 72728, Note_on_c, 6, 74, 51
7, 72728, Note_on_c, 6, 43, 48
7, 73240, Note_on_c, 6, 43, 0
7, 73240, Note_on_c, 6, 64, 0
7, 73240, Note_on_c, 6, 69, 0
7, 73240, Note_on_c, 6, 74, 0
7, 73624, Note_on_c, 6, 67, 79
7, 73624, Note_on_c, 6, 63, 49
7, 73624, Note_on_c, 6, 60, 79
7, 73624, Note_on_c, 6, 56, 69
7, 73624, Note_on_c, 6, 41, 63
7, 73880, Note_on_c, 6, 41, 0
7, 73880, Note_on_c, 6, 60, 0
7, 73880, Note_on_c, 6, 56, 0
7, 74008, Note_on_c, 6, 67, 0
7, 74008, Note_on_c, 6, 63, 0
7, 74264, Note_on_c, 6, 65, 73
7, 74264, Note_on_c, 6, 62, 79
7, 74264, Note_on_c, 6, 56, 84
7, 74264, Note_on_c, 6, 46, 65
7, 74648, Note_on_c, 6, 56, 0
7, 74776, Note_on_c, 6, 62, 0
7, 74776, Note_on_c, 6, 46, 0
7, 74776, Note_on_c, 6, 56, 24
7, 74904, Note_on_c, 6, 56, 0
7, 74904, Note_on_c, 6, 65, 0
7, 75160, Note_on_c, 6, 65, 41
7, 75160, Note_on_c, 6, 62, 44
7, 75160, Note_on_c, 6, 39, 51
7, 75160, Note_on_c, 6, 55, 47
7, 75160, Note_on_c, 6, 55, 0
7, 75288, Note_on_c, 6, 62, 0
7, 75288, Note_on_c, 6, 65, 0
7, 75288, Note_on_c, 6, 39, 0
7, 75800, Note_on_c, 6, 65, 66
7, 75800, Note_on_c, 6, 58, 62
7, 75800, Note_on_c, 6, 62, 48
7, 75800, Note_on_c, 6, 55, 59
7, 75800, Note_on_c, 6, 39, 64
7, 75800, Note_on_c, 6, 57, 21
7, 75800, Note_on_c, 6, 57, 0
7, 76056, Note_on_c, 6, 62, 0
7, 76184, Note_on_c, 6, 58, 0
7, 76184, Note_on_c, 6, 55, 0
7, 76312, Note_on_c, 6, 39, 0
7, 76312, Note_on_c, 6, 65, 0
7, 76312, Note_on_c, 6, 62, 24
7, 76312, Note_on_c, 6, 62, 0
7, 76696, Note_on_c, 6, 70, 65
7, 76696, Note_on_c, 6, 65, 69
7, 76696, Note_on_c, 6, 62, 75
7, 76696, Note_on_c, 6, 62, 0
7, 76696, Note_on_c, 6, 67, 48
7, 76696, Note_on_c, 6, 39, 55
7, 76824, Note_on_c, 6, 39, 0
7, 76824, Note_on_c, 6, 70, 0
7, 76824, Note_on_c, 6, 65, 0
7, 76824, Note_on_c, 6, 67, 0
7, 77336, Note_on_c, 6, 65, 84
7, 77336, Note_on_c, 6, 70, 62
7, 77336, Note_on_c, 6, 62, 77
7, 77336, Note_on_c, 6, 67, 58
7, 77336, Note_on_c, 6, 39, 57
7, 77720, Note_on_c, 6, 39, 0
7, 77720, Note_on_c, 6, 65, 0
7, 77720, Note_on_c, 6, 62, 0
7, 77848, Note_on_c, 6, 70, 0
7, 77848, Note_on_c, 6, 67, 0
7, 77848, Note_on_c, 6, 65, 48
7, 77848, Note_on_c, 6, 65, 0
7, 78232, Note_on_c, 6, 66, 71
7, 78232, Note_on_c, 6, 70, 56
7, 78232, Note_on_c, 6, 77, 73
7, 78232, Note_on_c, 6, 50, 60
7, 78232, Note_on_c, 6, 60, 57
7, 78232, Note_on_c, 6, 72, 40
7, 78232, Note_on_c, 6, 75, 18
7, 78360, Note_on_c, 6, 75, 0
7, 78360, Note_on_c, 6, 70, 0
7, 78360, Note_on_c, 6, 72, 0
7, 78360, Note_on_c, 6, 77, 0
7, 78360, Note_on_c, 6, 60, 0
7, 78360, Note_on_c, 6, 66, 0
7, 78360, Note_on_c, 6, 50, 0
7, 78864, Note_on_c, 6, 75, 71
7, 78864, Note_on_c, 6, 66, 77
7, 78864, Note_on_c, 6, 70, 60
7, 78864, Note_on_c, 6, 72, 59
7, 78864, Note_on_c, 6, 60, 79
7, 78864, Note_on_c, 6, 60, 0
7, 78864, Note_on_c, 6, 50, 71
7, 78992, Note_on_c, 6, 60, 14
7, 79248, Note_on_c, 6, 66, 0
7, 79376, Note_on_c, 6, 70, 0
7, 79376, Note_on_c, 6, 75, 0
7, 79376, Note_on_c, 6, 72, 0
7, 79376, Note_on_c, 6, 66, 22
7, 79504, Note_on_c, 6, 66, 0
7, 79504, Note_on_c, 6, 60, 0
7, 79504, Note_on_c, 6, 50, 0
7, 79760, Note_on_c, 6, 66, 49
7, 79760, Note_on_c, 6, 74, 57
7, 79760, Note_on_c, 6, 64, 57
7, 79760, Note_on_c, 6, 60, 45
7, 79760, Note_on_c, 6, 60, 0
7, 79760, Note_on_c, 6, 50, 49
7, 79760, Note_on_c, 6, 69, 19
7, 79888, Note_on_c, 6, 69, 0
7, 79888, Note_on_c, 6, 64, 0
7, 79888, Note_on_c, 6, 74, 0
7, 79888, Note_on_c, 6, 66, 0
7, 79888, Note_on_c, 6, 50, 0
7, 80400, Note_on_c, 6, 66, 84
7, 80400, Note_on_c, 6, 72, 75
7, 80400, Note_on_c, 6, 69, 63
7, 80400, Note_on_c, 6, 64, 88
7, 80400, Note_on_c, 6, 50, 62
7, 80400, Note_on_c, 6, 60, 64
7, 80784, Note_on_c, 6, 60, 0
7, 80784, Note_on_c, 6, 66, 0
7, 80784, Note_on_c, 6, 64, 0
7, 80912, Note_on_c, 6, 64, 0
7, 80912, Note_on_c, 6, 72, 0
7, 80912, Note_on_c, 6, 69, 0
7, 80912, Note_on_c, 6, 50, 0
7, 80912, Note_on_c, 6, 57, 16
7, 80912, Note_on_c, 6, 57, 0
7, 80912, Note_on_c, 6, 66, 55
7, 80912, Note_on_c, 6, 66, 0
7, 80912, Note_on_c, 6, 64, 31
7, 81296, Note_on_c, 6, 69, 84
7, 81296, Note_on_c, 6, 58, 69
7, 81296, Note_on_c, 6, 43, 69
7, 81296, Note_on_c, 6, 62, 79
7, 81296, Note_on_c, 6, 65, 41
7, 81424, Note_on_c, 6, 65, 0
7, 81424, Note_on_c, 6, 43, 0
7, 81424, Note_on_c, 6, 58, 0
7, 81424, Note_on_c, 6, 69, 0
7, 81424, Note_on_c, 6, 62, 0
7, 81936, Note_on_c, 6, 58, 66
7, 81936, Note_on_c, 6, 62, 75
7, 81936, Note_on_c, 6, 67, 64
7, 81936, Note_on_c, 6, 43, 83
7, 82320, Note_on_c, 6, 58, 0
7, 82448, Note_on_c, 6, 67, 0
7, 82448, Note_on_c, 6, 62, 0
7, 82448, Note_on_c, 6, 58, 18
7, 82576, Note_on_c, 6, 58, 0
7, 82576, Note_on_c, 6, 43, 0
7, 82832, Note_on_c, 6, 58, 32
7, 82832, Note_on_c, 6, 57, 39
7, 82832, Note_on_c, 6, 57, 0
7, 82832, Note_on_c, 6, 43, 40
7, 82832, Note_on_c, 6, 62, 32
7, 82832, Note_on_c, 6, 62, 0
7, 82960, Note_on_c, 6, 58, 0
7, 82960, Note_on_c, 6, 43, 0
7, 83472, Note_on_c, 6, 58, 67
7, 83472, Note_on_c, 6, 62, 64
7, 83472, Note_on_c, 6, 57, 94
7, 83472, Note_on_c, 6, 43, 67
7, 83856, Note_on_c, 6, 57, 0
7, 83856, Note_on_c, 6, 58, 0
7, 83984, Note_on_c, 6, 62, 0
7, 83984, Note_on_c, 6, 58, 0
7, 83984, Note_on_c, 6, 43, 0
7, 83984, Note_on_c, 6, 50, 31
7, 83984, Note_on_c, 6, 50, 0
7, 83984, Note_on_c, 6, 58, 26
7, 84360, Note_on_c, 6, 74, 102
7, 84360, Note_on_c, 6, 70, 90
7, 84360, Note_on_c, 6, 65, 109
7, 84360, Note_on_c, 6, 58, 65
7, 84360, Note_on_c, 6, 48, 75
7, 84488, Note_on_c, 6, 48, 0
7, 84616, Note_on_c, 6, 58, 0
7, 84616, Note_on_c, 6, 70, 0
7, 84616, Note_on_c, 6, 74, 0
7, 84616, Note_on_c, 6, 65, 0
7, 85000, Note_on_c, 6, 58, 73
7, 85000, Note_on_c, 6, 70, 88
7, 85000, Note_on_c, 6, 74, 96
7, 85000, Note_on_c, 6, 65, 104
7, 85000, Note_on_c, 6, 48, 75
7, 85000, Note_on_c, 6, 68, 30
7, 85000, Note_on_c, 6, 68, 0
7, 85512, Note_on_c, 6, 48, 0
7, 85512, Note_on_c, 6, 74, 0
7, 85512, Note_on_c, 6, 70, 0
7, 85512, Note_on_c, 6, 58, 0
7, 85512, Note_on_c, 6, 65, 0
7, 85512, Note_on_c, 6, 65, 21
7, 85512, Note_on_c, 6, 65, 0
7, 85896, Note_on_c, 6, 69, 81
7, 85896, Note_on_c, 6, 58, 66
7, 85896, Note_on_c, 6, 62, 69
7, 85896, Note_on_c, 6, 64, 64
7, 85896, Note_on_c, 6, 48, 59
7, 85896, Note_on_c, 6, 57, 81
7, 86152, Note_on_c, 6, 57, 0
7, 86152, Note_on_c, 6, 48, 0
7, 86152, Note_on_c, 6, 64, 0
7, 86152, Note_on_c, 6, 69, 0
7, 86152, Note_on_c, 6, 58, 0
7, 86152, Note_on_c, 6, 62, 0
7, 86536, Note_on_c, 6, 58, 77
7, 86536, Note_on_c, 6, 67, 61
7, 86536, Note_on_c, 6, 61, 69
7, 86536, Note_on_c, 6, 64, 64
7, 86536, Note_on_c, 6, 55, 81
7, 86536, Note_on_c, 6, 48, 88
7, 87048, Note_on_c, 6, 48, 0
7, 87048, Note_on_c, 6, 55, 0
7, 87048, Note_on_c, 6, 67, 0
7, 87048, Note_on_c, 6, 61, 0
7, 87048, Note_on_c, 6, 63, 57
7, 87048, Note_on_c, 6, 73, 46
7, 87048, Note_on_c, 6, 47, 60
7, 87048, Note_on_c, 6, 68, 48
7, 87176, Note_on_c, 6, 68, 0
7, 87176, Note_on_c, 6, 47, 0
7, 87176, Note_on_c, 6, 63, 0
7, 87176, Note_on_c, 6, 73, 0
7, 87432, Note_on_c, 6, 62, 60
7, 87432, Note_on_c, 6, 63, 38
7, 87432, Note_on_c, 6, 63, 0
7, 87432, Note_on_c, 6, 55, 57
7, 87432, Note_on_c, 6, 55, 0
7, 87560, Note_on_c, 6, 62, 0
7, 87816, Note_on_c, 6, 63, 38
7, 87816, Note_on_c, 6, 62, 59
7, 87816, Note_on_c, 6, 55, 57
7, 87816, Note_on_c, 6, 55, 0
7, 87944, Note_on_c, 6, 63, 0
7, 87944, Note_on_c, 6, 62, 0
7, 88200, Note_on_c, 6, 63, 36
7, 88200, Note_on_c, 6, 62, 53
7, 88200, Note_on_c, 6, 55, 53
7, 88328, Note_on_c, 6, 55, 0
7, 88328, Note_on_c, 6, 63, 0
7, 88328, Note_on_c, 6, 62, 0
7, 88584, Note_on_c, 6, 62, 55
7, 88584, Note_on_c, 6, 55, 62
7, 88584, Note_on_c, 6, 63, 38
7, 88712, Note_on_c, 6, 63, 0
7, 88712, Note_on_c, 6, 62, 0
7, 88712, Note_on_c, 6, 55, 0
7, 88968, Note_on_c, 6, 63, 41
7, 88968, Note_on_c, 6, 54, 43
7, 88968, Note_on_c, 6, 60, 48
7, 89096, Note_on_c, 6, 60, 0
7, 89096, Note_on_c, 6, 63, 0
7, 89096, Note_on_c, 6, 54, 0
7, 89352, Note_on_c, 6, 54, 59
7, 89352, Note_on_c, 6, 63, 50
7, 89352, Note_on_c, 6, 60, 62
7, 89480, Note_on_c, 6, 60, 0
7, 89480, Note_on_c, 6, 54, 0
7, 89480, Note_on_c, 6, 63, 0
7, 89736, Note_on_c, 6, 54, 53
7, 89736, Note_on_c, 6, 63, 50
7, 89736, Note_on_c, 6, 58, 38
7, 89864, Note_on_c, 6, 63, 0
7, 89864, Note_on_c, 6, 54, 0
7, 89984, Note_on_c, 6, 58, 0
7, 90120, Note_on_c, 6, 63, 46
7, 90120, Note_on_c, 6, 54, 46
7, 90120, Note_on_c, 6, 58, 43
7, 90240, Note_on_c, 6, 54, 0
7, 90240, Note_on_c, 6, 63, 0
7, 90376, Note_on_c, 6, 58, 0
7, 90496, Note_on_c, 6, 60, 53
7, 90496, Note_on_c, 6, 57, 64
7, 90632, Note_on_c, 6, 57, 0
7, 90632, Note_on_c, 6, 60, 0
7, 90880, Note_on_c, 6, 57, 79
7, 90880, Note_on_c, 6, 60, 67
7, 91008, Note_on_c, 6, 60, 0
7, 91008, Note_on_c, 6, 57, 0
7, 91264, Note_on_c, 6, 58, 22
7, 91264, Note_on_c, 6, 55, 31
7, 91392, Note_on_c, 6, 55, 0
7, 91520, Note_on_c, 6, 58, 0
7, 91648, Note_on_c, 6, 58, 48
7, 91648, Note_on_c, 6, 55, 52
7, 91776, Note_on_c, 6, 55, 0
7, 91776, Note_on_c, 6, 58, 0
7, 92032, Note_on_c, 6, 57, 62
7, 92032, Note_on_c, 6, 60, 46
7, 92160, Note_on_c, 6, 60, 0
7, 92160, Note_on_c, 6, 57, 0
7, 92416, Note_on_c, 6, 57, 78
7, 92416, Note_on_c, 6, 60, 59
7, 92544, Note_on_c, 6, 60, 0
7, 92544, Note_on_c, 6, 57, 0
7, 92800, Note_on_c, 6, 58, 46
7, 92800, Note_on_c, 6, 55, 50
7, 92928, Note_on_c, 6, 55, 0
7, 92928, Note_on_c, 6, 58, 0
7, 93184, Note_on_c, 6, 58, 48
7, 93184, Note_on_c, 6, 55, 53
7, 93184, Note_on_c, 6, 55, 0
7, 93312, Note_on_c, 6, 58, 0
7, 93568, Note_on_c, 6, 63, 45
7, 93568, Note_on_c, 6, 63, 0
7, 93568, Note_on_c, 6, 62, 55
7, 93568, Note_on_c, 6, 62, 0
7, 93568, Note_on_c, 6, 55, 55
7, 93568, Note_on_c, 6, 62, 12
7, 93568, Note_on_c, 6, 62, 0
7, 93696, Note_on_c, 6, 55, 0
7, 93952, Note_on_c, 6, 63, 31
7, 93952, Note_on_c, 6, 62, 48
7, 93952, Note_on_c, 6, 55, 41
7, 93952, Note_on_c, 6, 55, 0
7, 94080, Note_on_c, 6, 63, 0
7, 94080, Note_on_c, 6, 62, 0
7, 94336, Note_on_c, 6, 63, 27
7, 94336, Note_on_c, 6, 62, 38
7, 94336, Note_on_c, 6, 55, 31
7, 94464, Note_on_c, 6, 55, 0
7, 94464, Note_on_c, 6, 63, 0
7, 94464, Note_on_c, 6, 62, 0
7, 94720, Note_on_c, 6, 63, 32
7, 94720, Note_on_c, 6, 62, 41
7, 94720, Note_on_c, 6, 55, 50
7, 94848, Note_on_c, 6, 55, 0
7, 94848, Note_on_c, 6, 63, 0
7, 94848, Note_on_c, 6, 62, 0
7, 95104, Note_on_c, 6, 63, 39
7, 95104, Note_on_c, 6, 54, 48
7, 95104, Note_on_c, 6, 60, 41
7, 95232, Note_on_c, 6, 60, 0
7, 95232, Note_on_c, 6, 63, 0
7, 95232, Note_on_c, 6, 54, 0
7, 95488, Note_on_c, 6, 63, 45
7, 95488, Note_on_c, 6, 54, 48
7, 95488, Note_on_c, 6, 60, 48
7, 95616, Note_on_c, 6, 60, 0
7, 95744, Note_on_c, 6, 63, 0
7, 95744, Note_on_c, 6, 54, 0
7, 95872, Note_on_c, 6, 63, 38
7, 95872, Note_on_c, 6, 54, 27
7, 95872, Note_on_c, 6, 58, 25
7, 96000, Note_on_c, 6, 54, 0
7, 96000, Note_on_c, 6, 63, 0
7, 96128, Note_on_c, 6, 58, 0
7, 96248, Note_on_c, 6, 54, 48
7, 96248, Note_on_c, 6, 63, 39
7, 96248, Note_on_c, 6, 58, 36
7, 96376, Note_on_c, 6, 63, 0
7, 96376, Note_on_c, 6, 54, 0
7, 96504, Note_on_c, 6, 58, 0
7, 96632, Note_on_c, 6, 53, 32
7, 96632, Note_on_c, 6, 60, 36
7, 96632, Note_on_c, 6, 57, 18
7, 96760, Note_on_c, 6, 57, 0
7, 96760, Note_on_c, 6, 53, 0
7, 96760, Note_on_c, 6, 60, 0
7, 97016, Note_on_c, 6, 60, 48
7, 97016, Note_on_c, 6, 53, 43
7, 97016, Note_on_c, 6, 57, 25
7, 97144, Note_on_c, 6, 57, 0
7, 97144, Note_on_c, 6, 60, 0
7, 97144, Note_on_c, 6, 53, 0
7, 97400, Note_on_c, 6, 65, 45
7, 97400, Note_on_c, 6, 60, 43
7, 97400, Note_on_c, 6, 57, 38
7, 97528, Note_on_c, 6, 65, 0
7, 97656, Note_on_c, 6, 60, 0
7, 97656, Note_on_c, 6, 57, 0
7, 97784, Note_on_c, 6, 60, 53
7, 97784, Note_on_c, 6, 57, 52
7, 97784, Note_on_c, 6, 65, 48
7, 97912, Note_on_c, 6, 57, 0
7, 97912, Note_on_c, 6, 60, 0
7, 98040, Note_on_c, 6, 65, 0
7, 98168, Note_on_c, 6, 65, 25
7, 98168, Note_on_c, 6, 57, 20
7, 98168, Note_on_c, 6, 60, 32
7, 98296, Note_on_c, 6, 60, 0
7, 98296, Note_on_c, 6, 65, 0
7, 98296, Note_on_c, 6, 57, 0
7, 98552, Note_on_c, 6, 60, 50
7, 98552, Note_on_c, 6, 65, 50
7, 98552, Note_on_c, 6, 57, 45
7, 98680, Note_on_c, 6, 57, 0
7, 98680, Note_on_c, 6, 60, 0
7, 98808, Note_on_c, 6, 65, 0
7, 98936, Note_on_c, 6, 55, 25
7, 98936, Note_on_c, 6, 62, 34
7, 98936, Note_on_c, 6, 58, 24
7, 99064, Note_on_c, 6, 62, 0
7, 99064, Note_on_c, 6, 55, 0
7, 99192, Note_on_c, 6, 58, 0
7, 99320, Note_on_c, 6, 62, 41
7, 99320, Note_on_c, 6, 58, 38
7, 99320, Note_on_c, 6, 55, 27
7, 99448, Note_on_c, 6, 55, 0
7, 99576, Note_on_c, 6, 58, 0
7, 99576, Note_on_c, 6, 62, 0
7, 99704, Note_on_c, 6, 62, 48
7, 99704, Note_on_c, 6, 63, 24
7, 99704, Note_on_c, 6, 55, 31
7, 99704, Note_on_c, 6, 55, 0
7, 99832, Note_on_c, 6, 62, 0
7, 99832, Note_on_c, 6, 63, 0
7, 100088, Note_on_c, 6, 62, 50
7, 100088, Note_on_c, 6, 63, 20
7, 100088, Note_on_c, 6, 55, 46
7, 100216, Note_on_c, 6, 55, 0
7, 100216, Note_on_c, 6, 62, 0
7, 100216, Note_on_c, 6, 63, 0
7, 100472, Note_on_c, 6, 62, 38
7, 100472, Note_on_c, 6, 63, 20
7, 100472, Note_on_c, 6, 55, 27
7, 100600, Note_on_c, 6, 55, 0
7, 100600, Note_on_c, 6, 62, 0
7, 100600, Note_on_c, 6, 63, 0
7, 100856, Note_on_c, 6, 62, 52
7, 100856, Note_on_c, 6, 63, 27
7, 100856, Note_on_c, 6, 55, 53
7, 100984, Note_on_c, 6, 55, 0
7, 100984, Note_on_c, 6, 62, 0
7, 101112, Note_on_c, 6, 63, 0
7, 101240, Note_on_c, 6, 65, 38
7, 101240, Note_on_c, 6, 60, 43
7, 101240, Note_on_c, 6, 54, 20
7, 101368, Note_on_c, 6, 54, 0
7, 101368, Note_on_c, 6, 65, 0
7, 101368, Note_on_c, 6, 60, 0
7, 101624, Note_on_c, 6, 54, 38
7, 101624, Note_on_c, 6, 63, 32
7, 101624, Note_on_c, 6, 60, 45
7, 101744, Note_on_c, 6, 60, 0
7, 101744, Note_on_c, 6, 63, 0
7, 101880, Note_on_c, 6, 54, 0
7, 102000, Note_on_c, 6, 54, 34
7, 102000, Note_on_c, 6, 62, 38
7, 102000, Note_on_c, 6, 58, 25
7, 102256, Note_on_c, 6, 62, 0
7, 102256, Note_on_c, 6, 58, 0
7, 102256, Note_on_c, 6, 54, 0
7, 102384, Note_on_c, 6, 54, 41
7, 102384, Note_on_c, 6, 57, 53
7, 102512, Note_on_c, 6, 57, 0
7, 102512, Note_on_c, 6, 54, 0
7, 102768, Note_on_c, 6, 60, 13
7, 102768, Note_on_c, 6, 53, 18
7, 102768, Note_on_c, 6, 57, 20
7, 102896, Note_on_c, 6, 57, 0
7, 102896, Note_on_c, 6, 60, 0
7, 102896, Note_on_c, 6, 53, 0
7, 103152, Note_on_c, 6, 60, 48
7, 103152, Note_on_c, 6, 57, 50
7, 103152, Note_on_c, 6, 53, 29
7, 103280, Note_on_c, 6, 53, 0
7, 103280, Note_on_c, 6, 60, 0
7, 103280, Note_on_c, 6, 57, 0
7, 103536, Note_on_c, 6, 58, 24
7, 103536, Note_on_c, 6, 53, 20
7, 103792, Note_on_c, 6, 53, 0
7, 103792, Note_on_c, 6, 58, 0
7, 103920, Note_on_c, 6, 58, 38
7, 103920, Note_on_c, 6, 53, 43
7, 104048, Note_on_c, 6, 53, 0
7, 104048, Note_on_c, 6, 58, 0
7, 104304, Note_on_c, 6, 57, 45
7, 104304, Note_on_c, 6, 58, 24
7, 104304, Note_on_c, 6, 65, 27
7, 104304, Note_on_c, 6, 62, 24
7, 104432, Note_on_c, 6, 62, 0
7, 104432, Note_on_c, 6, 65, 0
7, 104432, Note_on_c, 6, 57, 0
7, 104560, Note_on_c, 6, 58, 0
7, 104688, Note_on_c, 6, 58, 43
7, 104688, Note_on_c, 6, 62, 45
7, 104688, Note_on_c, 6, 57, 59
7, 104688, Note_on_c, 6, 65, 38
7, 104944, Note_on_c, 6, 65, 0
7, 104944, Note_on_c, 6, 57, 0
7, 104944, Note_on_c, 6, 58, 0
7, 104944, Note_on_c, 6, 62, 0
7, 105072, Note_on_c, 6, 64, 41
7, 105072, Note_on_c, 6, 58, 18
7, 105072, Note_on_c, 6, 55, 22
7, 105200, Note_on_c, 6, 55, 0
7, 105200, Note_on_c, 6, 64, 0
7, 105328, Note_on_c, 6, 58, 0
7, 105456, Note_on_c, 6, 58, 38
7, 105456, Note_on_c, 6, 64, 50
7, 105456, Note_on_c, 6, 55, 46
7, 105584, Note_on_c, 6, 64, 0
7, 105712, Note_on_c, 6, 58, 0
7, 105712, Note_on_c, 6, 55, 0
7, 105840, Note_on_c, 6, 63, 25
7, 105840, Note_on_c, 6, 55, 29
7, 105840, Note_on_c, 6, 55, 0
7, 105840, Note_on_c, 6, 62, 46
7, 105840, Note_on_c, 6, 62, 0
7, 105968, Note_on_c, 6, 63, 0
7, 106224, Note_on_c, 6, 63, 43
7, 106224, Note_on_c, 6, 62, 53
7, 106224, Note_on_c, 6, 55, 53
7, 106352, Note_on_c, 6, 55, 0
7, 106352, Note_on_c, 6, 63, 0
7, 106352, Note_on_c, 6, 62, 0
7, 106608, Note_on_c, 6, 63, 24
7, 106608, Note_on_c, 6, 62, 46
7, 106608, Note_on_c, 6, 55, 38
7, 106736, Note_on_c, 6, 55, 0
7, 106736, Note_on_c, 6, 63, 0
7, 106864, Note_on_c, 6, 62, 0
7, 106992, Note_on_c, 6, 62, 52
7, 106992, Note_on_c, 6, 63, 43
7, 106992, Note_on_c, 6, 55, 50
7, 107120, Note_on_c, 6, 55, 0
7, 107120, Note_on_c, 6, 63, 0
7, 107248, Note_on_c, 6, 62, 0
7, 107376, Note_on_c, 6, 63, 39
7, 107376, Note_on_c, 6, 54, 38
7, 107376, Note_on_c, 6, 60, 43
7, 107504, Note_on_c, 6, 60, 0
7, 107504, Note_on_c, 6, 63, 0
7, 107504, Note_on_c, 6, 54, 0
7, 107760, Note_on_c, 6, 63, 50
7, 107760, Note_on_c, 6, 54, 52
7, 107760, Note_on_c, 6, 60, 38
7, 107760, Note_on_c, 6, 60, 0
7, 107760, Note_on_c, 6, 60, 12
7, 107880, Note_on_c, 6, 60, 0
7, 108008, Note_on_c, 6, 54, 0
7, 108008, Note_on_c, 6, 63, 0
7, 108144, Note_on_c, 6, 54, 31
7, 108144, Note_on_c, 6, 62, 43
7, 108144, Note_on_c, 6, 60, 24
7, 108144, Note_on_c, 6, 60, 0
7, 108272, Note_on_c, 6, 54, 0
7, 108272, Note_on_c, 6, 62, 0
7, 108520, Note_on_c, 6, 54, 45
7, 108520, Note_on_c, 6, 60, 38
7, 108520, Note_on_c, 6, 62, 41
7, 108648, Note_on_c, 6, 62, 0
7, 108648, Note_on_c, 6, 54, 0
7, 108648, Note_on_c, 6, 60, 0
7, 108904, Note_on_c, 6, 60, 36
7, 108904, Note_on_c, 6, 57, 48
7, 109032, Note_on_c, 6, 57, 0
7, 109032, Note_on_c, 6, 60, 0
7, 109288, Note_on_c, 6, 57, 59
7, 109288, Note_on_c, 6, 60, 50
7, 109416, Note_on_c, 6, 60, 0
7, 109416, Note_on_c, 6, 57, 0
7, 109672, Note_on_c, 6, 58, 22
7, 109672, Note_on_c, 6, 55, 20
7, 109800, Note_on_c, 6, 55, 0
7, 109928, Note_on_c, 6, 58, 0
7, 110056, Note_on_c, 6, 57, 52
7, 110056, Note_on_c, 6, 60, 43
7, 110184, Note_on_c, 6, 60, 0
7, 110184, Note_on_c, 6, 57, 0
7, 110440, Note_on_c, 6, 60, 43
7, 110440, Note_on_c, 6, 57, 53
7, 110696, Note_on_c, 6, 57, 0
7, 110696, Note_on_c, 6, 60, 0
7, 110824, Note_on_c, 6, 58, 27
7, 110824, Note_on_c, 6, 55, 27
7, 110952, Note_on_c, 6, 55, 0
7, 111080, Note_on_c, 6, 58, 0
7, 111208, Note_on_c, 6, 57, 57
7, 111208, Note_on_c, 6, 60, 43
7, 111336, Note_on_c, 6, 60, 0
7, 111336, Note_on_c, 6, 57, 0
7, 111592, Note_on_c, 6, 57, 57
7, 111592, Note_on_c, 6, 60, 43
7, 111720, Note_on_c, 6, 60, 0
7, 111720, Note_on_c, 6, 57, 0
7, 111976, Note_on_c, 6, 63, 57
7, 111976, Note_on_c, 6, 73, 46
7, 111976, Note_on_c, 6, 47, 60
7, 111976, Note_on_c, 6, 68, 48
7, 112104, Note_on_c, 6, 68, 0
7, 112104, Note_on_c, 6, 47, 0
7, 112104, Note_on_c, 6, 63, 0
7, 112104, Note_on_c, 6, 73, 0
7, 112616, Note_on_c, 6, 73, 52
7, 112616, Note_on_c, 6, 63, 56
7, 112616, Note_on_c, 6, 68, 50
7, 112616, Note_on_c, 6, 47, 55
7, 113000, Note_on_c, 6, 63, 0
7, 113128, Note_on_c, 6, 47, 0
7, 113128, Note_on_c, 6, 73, 0
7, 113128, Note_on_c, 6, 68, 0
7, 113128, Note_on_c, 6, 63, 17
7, 113128, Note_on_c, 6, 63, 0
7, 113512, Note_on_c, 6, 63, 54
7, 113512, Note_on_c, 6, 63, 0
7, 113512, Note_on_c, 6, 73, 45
7, 113512, Note_on_c, 6, 73, 0
7, 113512, Note_on_c, 6, 68, 34
7, 113512, Note_on_c, 6, 68, 0
7, 113512, Note_on_c, 6, 47, 40
7, 113512, Note_on_c, 6, 47, 0
7, 114144, Note_on_c, 6, 73, 65
7, 114144, Note_on_c, 6, 63, 71
7, 114144, Note_on_c, 6, 68, 60
7, 114144, Note_on_c, 6, 47, 59
7, 114528, Note_on_c, 6, 63, 0
7, 114656, Note_on_c, 6, 47, 0
7, 114656, Note_on_c, 6, 73, 0
7, 114656, Note_on_c, 6, 68, 0
7, 114656, Note_on_c, 6, 63, 19
7, 114656, Note_on_c, 6, 63, 0
7, 114656, Note_on_c, 6, 69, 40
7, 114656, Note_on_c, 6, 69, 0
7, 115040, Note_on_c, 6, 69, 56
7, 115040, Note_on_c, 6, 74, 34
7, 115040, Note_on_c, 6, 70, 33
7, 115040, Note_on_c, 6, 55, 36
7, 115040, Note_on_c, 6, 55, 0
7, 115168, Note_on_c, 6, 70, 0
7, 115168, Note_on_c, 6, 69, 0
7, 115168, Note_on_c, 6, 74, 0
7, 115680, Note_on_c, 6, 69, 106
7, 115680, Note_on_c, 6, 70, 59
7, 115680, Note_on_c, 6, 74, 73
7, 115680, Note_on_c, 6, 55, 57
7, 116192, Note_on_c, 6, 74, 0
7, 116192, Note_on_c, 6, 70, 0
7, 116192, Note_on_c, 6, 69, 0
7, 116192, Note_on_c, 6, 50, 25
7, 116192, Note_on_c, 6, 67, 19
7, 116320, Note_on_c, 6, 67, 0
7, 116320, Note_on_c, 6, 50, 0
7, 116448, Note_on_c, 6, 55, 0
7, 116576, Note_on_c, 6, 57, 24
7, 116576, Note_on_c, 6, 57, 0
7, 116576, Note_on_c, 6, 43, 25
7, 116576, Note_on_c, 6, 43, 0
7, 116576, Note_on_c, 6, 58, 27
7, 116576, Note_on_c, 6, 62, 29
7, 116576, Note_on_c, 6, 62, 0
7, 116704, Note_on_c, 6, 58, 0
7, 117216, Note_on_c, 6, 58, 44
7, 117216, Note_on_c, 6, 57, 47
7, 117216, Note_on_c, 6, 62, 55
7, 117216, Note_on_c, 6, 43, 40
7, 117600, Note_on_c, 6, 57, 0
7, 117600, Note_on_c, 6, 58, 0
7, 117728, Note_on_c, 6, 58, 0
7, 117728, Note_on_c, 6, 62, 0
7, 117728, Note_on_c, 6, 58, 38
7, 118112, Note_on_c, 6, 43, 0
7, 118112, Note_on_c, 6, 63, 32
7, 118112, Note_on_c, 6, 73, 32
7, 118112, Note_on_c, 6, 68, 33
7, 118112, Note_on_c, 6, 47, 26
7, 118240, Note_on_c, 6, 47, 0
7, 118240, Note_on_c, 6, 68, 0
7, 118240, Note_on_c, 6, 63, 0
7, 118240, Note_on_c, 6, 73, 0
7, 118752, Note_on_c, 6, 73, 57
7, 118752, Note_on_c, 6, 63, 59
7, 118752, Note_on_c, 6, 68, 56
7, 118752, Note_on_c, 6, 47, 59
7, 119136, Note_on_c, 6, 63, 0
7, 119264, Note_on_c, 6, 47, 0
7, 119264, Note_on_c, 6, 73, 0
7, 119264, Note_on_c, 6, 68, 0
7, 119264, Note_on_c, 6, 63, 18
7, 119264, Note_on_c, 6, 63, 0
7, 119640, Note_on_c, 6, 63, 35
7, 119640, Note_on_c, 6, 47, 34
7, 119640, Note_on_c, 6, 73, 31
7, 119640, Note_on_c, 6, 68, 32
7, 119768, Note_on_c, 6, 68, 0
7, 119768, Note_on_c, 6, 73, 0
7, 119768, Note_on_c, 6, 63, 0
7, 119768, Note_on_c, 6, 47, 0
7, 120280, Note_on_c, 6, 73, 63
7, 120280, Note_on_c, 6, 63, 71
7, 120280, Note_on_c, 6, 68, 61
7, 120280, Note_on_c, 6, 47, 61
7, 120920, Note_on_c, 6, 68, 0
7, 120920, Note_on_c, 6, 63, 0
7, 120920, Note_on_c, 6, 73, 0
7, 121176, Note_on_c, 6, 47, 0
7, 121176, Note_on_c, 6, 43, 29
7, 121176, Note_on_c, 6, 74, 28
7, 121176, Note_on_c, 6, 69, 20
7, 121176, Note_on_c, 6, 64, 9
7, 121304, Note_on_c, 6, 69, 0
7, 121304, Note_on_c, 6, 64, 0
7, 121304, Note_on_c, 6, 43, 0
7, 121304, Note_on_c, 6, 74, 0
7, 121816, Note_on_c, 6, 69, 49
7, 121816, Note_on_c, 6, 64, 49
7, 121816, Note_on_c, 6, 74, 51
7, 121816, Note_on_c, 6, 43, 48
7, 122328, Note_on_c, 6, 43, 0
7, 122328, Note_on_c, 6, 74, 0
7, 122328, Note_on_c, 6, 64, 0
7, 122328, Note_on_c, 6, 69, 0
7, 122712, Note_on_c, 6, 67, 79
7, 122712, Note_on_c, 6, 63, 49
7, 122712, Note_on_c, 6, 60, 79
7, 122712, Note_on_c, 6, 56, 69
7, 122712, Note_on_c, 6, 41, 63
7, 122968, Note_on_c, 6, 41, 0
7, 122968, Note_on_c, 6, 56, 0
7, 122968, Note_on_c, 6, 60, 0
7, 123096, Note_on_c, 6, 67, 0
7, 123096, Note_on_c, 6, 63, 0
7, 123352, Note_on_c, 6, 65, 73
7, 123352, Note_on_c, 6, 62, 79
7, 123352, Note_on_c, 6, 56, 84
7, 123352, Note_on_c, 6, 46, 65
7, 123736, Note_on_c, 6, 56, 0
7, 123864, Note_on_c, 6, 46, 0
7, 123864, Note_on_c, 6, 62, 0
7, 123864, Note_on_c, 6, 56, 24
7, 123992, Note_on_c, 6, 56, 0
7, 123992, Note_on_c, 6, 65, 0
7, 124248, Note_on_c, 6, 65, 41
7, 124248, Note_on_c, 6, 62, 44
7, 124248, Note_on_c, 6, 39, 51
7, 124248, Note_on_c, 6, 55, 47
7, 124248, Note_on_c, 6, 55, 0
7, 124376, Note_on_c, 6, 39, 0
7, 124376, Note_on_c, 6, 65, 0
7, 124376, Note_on_c, 6, 62, 0
7, 124888, Note_on_c, 6, 65, 66
7, 124888, Note_on_c, 6, 58, 62
7, 124888, Note_on_c, 6, 62, 48
7, 124888, Note_on_c, 6, 55, 59
7, 124888, Note_on_c, 6, 39, 64
7, 124888, Note_on_c, 6, 57, 21
7, 124888, Note_on_c, 6, 57, 0
7, 125144, Note_on_c, 6, 62, 0
7, 125272, Note_on_c, 6, 55, 0
7, 125272, Note_on_c, 6, 58, 0
7, 125400, Note_on_c, 6, 65, 0
7, 125400, Note_on_c, 6, 39, 0
7, 125400, Note_on_c, 6, 62, 24
7, 125400, Note_on_c, 6, 62, 0
7, 125776, Note_on_c, 6, 70, 65
7, 125776, Note_on_c, 6, 65, 69
7, 125776, Note_on_c, 6, 62, 75
7, 125776, Note_on_c, 6, 62, 0
7, 125776, Note_on_c, 6, 67, 48
7, 125776, Note_on_c, 6, 39, 55
7, 125904, Note_on_c, 6, 39, 0
7, 125904, Note_on_c, 6, 67, 0
7, 125904, Note_on_c, 6, 65, 0
7, 125904, Note_on_c, 6, 70, 0
7, 126416, Note_on_c, 6, 65, 84
7, 126416, Note_on_c, 6, 70, 62
7, 126416, Note_on_c, 6, 62, 77
7, 126416, Note_on_c, 6, 67, 58
7, 126416, Note_on_c, 6, 39, 57
7, 126800, Note_on_c, 6, 39, 0
7, 126800, Note_on_c, 6, 62, 0
7, 126800, Note_on_c, 6, 65, 0
7, 126928, Note_on_c, 6, 67, 0
7, 126928, Note_on_c, 6, 70, 0
7, 126928, Note_on_c, 6, 65, 48
7, 126928, Note_on_c, 6, 65, 0
7, 127312, Note_on_c, 6, 66, 71
7, 127312, Note_on_c, 6, 70, 56
7, 127312, Note_on_c, 6, 77, 73
7, 127312, Note_on_c, 6, 50, 60
7, 127312, Note_on_c, 6, 60, 57
7, 127312, Note_on_c, 6, 72, 40
7, 127312, Note_on_c, 6, 75, 18
7, 127440, Note_on_c, 6, 75, 0
7, 127440, Note_on_c, 6, 50, 0
7, 127440, Note_on_c, 6, 72, 0
7, 127440, Note_on_c, 6, 77, 0
7, 127440, Note_on_c, 6, 60, 0
7, 127440, Note_on_c, 6, 66, 0
7, 127440, Note_on_c, 6, 70, 0
7, 127952, Note_on_c, 6, 75, 71
7, 127952, Note_on_c, 6, 66, 77
7, 127952, Note_on_c, 6, 70, 60
7, 127952, Note_on_c, 6, 72, 59
7, 127952, Note_on_c, 6, 60, 79
7, 127952, Note_on_c, 6, 60, 0
7, 127952, Note_on_c, 6, 50, 71
7, 128080, Note_on_c, 6, 60, 14
7, 128336, Note_on_c, 6, 66, 0
7, 128464, Note_on_c, 6, 72, 0
7, 128464, Note_on_c, 6, 70, 0
7, 128464, Note_on_c, 6, 75, 0
7, 128464, Note_on_c, 6, 66, 22
7, 128592, Note_on_c, 6, 66, 0
7, 128592, Note_on_c, 6, 60, 0
7, 128592, Note_on_c, 6, 50, 0
7, 128848, Note_on_c, 6, 66, 49
7, 128848, Note_on_c, 6, 74, 57
7, 128848, Note_on_c, 6, 64, 57
7, 128848, Note_on_c, 6, 60, 45
7, 128848, Note_on_c, 6, 60, 0
7, 128848, Note_on_c, 6, 50, 49
7, 128848, Note_on_c, 6, 69, 19
7, 128976, Note_on_c, 6, 69, 0
7, 128976, Note_on_c, 6, 64, 0
7, 128976, Note_on_c, 6, 50, 0
7, 128976, Note_on_c, 6, 74, 0
7, 128976, Note_on_c, 6, 66, 0
7, 129488, Note_on_c, 6, 66, 84
7, 129488, Note_on_c, 6, 72, 75
7, 129488, Note_on_c, 6, 69, 63
7, 129488, Note_on_c, 6, 64, 88
7, 129488, Note_on_c, 6, 50, 62
7, 129488, Note_on_c, 6, 60, 64
7, 129872, Note_on_c, 6, 60, 0
7, 129872, Note_on_c, 6, 66, 0
7, 129872, Note_on_c, 6, 64, 0
7, 130000, Note_on_c, 6, 50, 0
7, 130000, Note_on_c, 6, 72, 0
7, 130000, Note_on_c, 6, 64, 0
7, 130000, Note_on_c, 6, 69, 0
7, 130000, Note_on_c, 6, 57, 16
7, 130000, Note_on_c, 6, 57, 0
7, 130000, Note_on_c, 6, 66, 55
7, 130000, Note_on_c, 6, 66, 0
7, 130000, Note_on_c, 6, 64, 31
7, 130384, Note_on_c, 6, 69, 84
7, 130384, Note_on_c, 6, 58, 69
7, 130384, Note_on_c, 6, 43, 69
7, 130384, Note_on_c, 6, 62, 79
7, 130384, Note_on_c, 6, 65, 41
7, 130512, Note_on_c, 6, 65, 0
7, 130512, Note_on_c, 6, 58, 0
7, 130512, Note_on_c, 6, 62, 0
7, 130512, Note_on_c, 6, 43, 0
7, 130512, Note_on_c, 6, 69, 0
7, 131024, Note_on_c, 6, 58, 66
7, 131024, Note_on_c, 6, 62, 75
7, 131024, Note_on_c, 6, 67, 64
7, 131024, Note_on_c, 6, 43, 83
7, 131400, Note_on_c, 6, 58, 0
7, 131528, Note_on_c, 6, 67, 0
7, 131528, Note_on_c, 6, 62, 0
7, 131528, Note_on_c, 6, 58, 18
7, 131656, Note_on_c, 6, 43, 0
7, 131656, Note_on_c, 6, 58, 0
7, 131912, Note_on_c, 6, 58, 32
7, 131912, Note_on_c, 6, 57, 39
7, 131912, Note_on_c, 6, 57, 0
7, 131912, Note_on_c, 6, 43, 40
7, 131912, Note_on_c, 6, 62, 32
7, 131912, Note_on_c, 6, 62, 0
7, 132048, Note_on_c, 6, 58, 0
7, 132048, Note_on_c, 6, 43, 0
7, 132552, Note_on_c, 6, 58, 67
7, 132552, Note_on_c, 6, 62, 64
7, 132552, Note_on_c, 6, 57, 94
7, 132552, Note_on_c, 6, 43, 67
7, 132936, Note_on_c, 6, 57, 0
7, 132936, Note_on_c, 6, 58, 0
7, 133064, Note_on_c, 6, 43, 0
7, 133064, Note_on_c, 6, 58, 0
7, 133064, Note_on_c, 6, 62, 0
7, 133064, Note_on_c, 6, 50, 31
7, 133064, Note_on_c, 6, 50, 0
7, 133064, Note_on_c, 6, 58, 26
7, 133448, Note_on_c, 6, 74, 102
7, 133448, Note_on_c, 6, 70, 90
7, 133448, Note_on_c, 6, 65, 109
7, 133448, Note_on_c, 6, 58, 65
7, 133448, Note_on_c, 6, 48, 75
7, 133576, Note_on_c, 6, 48, 0
7, 133704, Note_on_c, 6, 65, 0
7, 133704, Note_on_c, 6, 58, 0
7, 133704, Note_on_c, 6, 74, 0
7, 133704, Note_on_c, 6, 70, 0
7, 134088, Note_on_c, 6, 58, 73
7, 134088, Note_on_c, 6, 70, 88
7, 134088, Note_on_c, 6, 74, 96
7, 134088, Note_on_c, 6, 65, 104
7, 134088, Note_on_c, 6, 48, 75
7, 134088, Note_on_c, 6, 68, 30
7, 134088, Note_on_c, 6, 68, 0
7, 134600, Note_on_c, 6, 48, 0
7, 134600, Note_on_c, 6, 74, 0
7, 134600, Note_on_c, 6, 65, 0
7, 134600, Note_on_c, 6, 58, 0
7, 134600, Note_on_c, 6, 70, 0
7, 134600, Note_on_c, 6, 65, 21
7, 134600, Note_on_c, 6, 65, 0
7, 134984, Note_on_c, 6, 69, 81
7, 134984, Note_on_c, 6, 58, 66
7, 134984, Note_on_c, 6, 62, 69
7, 134984, Note_on_c, 6, 64, 64
7, 134984, Note_on_c, 6, 48, 59
7, 134984, Note_on_c, 6, 57, 81
7, 135240, Note_on_c, 6, 57, 0
7, 135240, Note_on_c, 6, 48, 0
7, 135240, Note_on_c, 6, 58, 0
7, 135240, Note_on_c, 6, 62, 0
7, 135240, Note_on_c, 6, 64, 0
7, 135240, Note_on_c, 6, 69, 0
7, 135624, Note_on_c, 6, 58, 77
7, 135624, Note_on_c, 6, 67, 61
7, 135624, Note_on_c, 6, 61, 69
7, 135624, Note_on_c, 6, 64, 64
7, 135624, Note_on_c, 6, 55, 81
7, 135624, Note_on_c, 6, 48, 88
7, 136136, Note_on_c, 6, 48, 0
7, 136136, Note_on_c, 6, 55, 0
7, 136136, Note_on_c, 6, 61, 0
7, 136136, Note_on_c, 6, 67, 0
7, 136136, Note_on_c, 6, 63, 57
7, 136136, Note_on_c, 6, 73, 46
7, 136136, Note_on_c, 6, 47, 60
7, 136136, Note_on_c, 6, 68, 48
7, 136264, Note_on_c, 6, 68, 0
7, 136264, Note_on_c, 6, 47, 0
7, 136264, Note_on_c, 6, 63, 0
7, 136264, Note_on_c, 6, 73, 0
7, 136520, Note_on_c, 6, 62, 60
7, 136520, Note_on_c, 6, 63, 38
7, 136520, Note_on_c, 6, 63, 0
7, 136520, Note_on_c, 6, 55, 57
7, 136520, Note_on_c, 6, 55, 0
7, 136648, Note_on_c, 6, 62, 0
7, 136904, Note_on_c, 6, 63, 38
7, 136904, Note_on_c, 6, 62, 59
7, 136904, Note_on_c, 6, 55, 57
7, 136904, Note_on_c, 6, 55, 0
7, 137024, Note_on_c, 6, 62, 0
7, 137024, Note_on_c, 6, 63, 0
7, 137288, Note_on_c, 6, 63, 36
7, 137288, Note_on_c, 6, 62, 53
7, 137288, Note_on_c, 6, 55, 53
7, 137416, Note_on_c, 6, 55, 0
7, 137416, Note_on_c, 6, 62, 0
7, 137416, Note_on_c, 6, 63, 0
7, 137664, Note_on_c, 6, 62, 55
7, 137664, Note_on_c, 6, 55, 62
7, 137664, Note_on_c, 6, 63, 38
7, 137792, Note_on_c, 6, 63, 0
7, 137792, Note_on_c, 6, 55, 0
7, 137792, Note_on_c, 6, 62, 0
7, 138048, Note_on_c, 6, 63, 41
7, 138048, Note_on_c, 6, 54, 43
7, 138048, Note_on_c, 6, 60, 48
7, 138176, Note_on_c, 6, 60, 0
7, 138176, Note_on_c, 6, 54, 0
7, 138176, Note_on_c, 6, 63, 0
7, 138432, Note_on_c, 6, 54, 59
7, 138432, Note_on_c, 6, 63, 50
7, 138432, Note_on_c, 6, 60, 62
7, 138560, Note_on_c, 6, 60, 0
7, 138560, Note_on_c, 6, 63, 0
7, 138560, Note_on_c, 6, 54, 0
7, 138816, Note_on_c, 6, 54, 53
7, 138816, Note_on_c, 6, 63, 50
7, 138816, Note_on_c, 6, 58, 38
7, 138944, Note_on_c, 6, 63, 0
7, 138944, Note_on_c, 6, 54, 0
7, 139072, Note_on_c, 6, 58, 0
7, 139200, Note_on_c, 6, 63, 46
7, 139200, Note_on_c, 6, 54, 46
7, 139200, Note_on_c, 6, 58, 43
7, 139328, Note_on_c, 6, 54, 0
7, 139328, Note_on_c, 6, 63, 0
7, 139456, Note_on_c, 6, 58, 0
7, 139584, Note_on_c, 6, 60, 53
7, 139584, Note_on_c, 6, 57, 64
7, 139712, Note_on_c, 6, 57, 0
7, 139712, Note_on_c, 6, 60, 0
7, 139968, Note_on_c, 6, 57, 79
7, 139968, Note_on_c, 6, 60, 67
7, 140096, Note_on_c, 6, 60, 0
7, 140096, Note_on_c, 6, 57, 0
7, 140352, Note_on_c, 6, 58, 22
7, 140352, Note_on_c, 6, 55, 31
7, 140480, Note_on_c, 6, 55, 0
7, 140608, Note_on_c, 6, 58, 0
7, 140736, Note_on_c, 6, 58, 48
7, 140736, Note_on_c, 6, 55, 52
7, 140864, Note_on_c, 6, 55, 0
7, 140864, Note_on_c, 6, 58, 0
7, 141120, Note_on_c, 6, 57, 62
7, 141120, Note_on_c, 6, 60, 46
7, 141248, Note_on_c, 6, 60, 0
7, 141248, Note_on_c, 6, 57, 0
7, 141504, Note_on_c, 6, 57, 78
7, 141504, Note_on_c, 6, 60, 59
7, 141632, Note_on_c, 6, 60, 0
7, 141632, Note_on_c, 6, 57, 0
7, 141888, Note_on_c, 6, 58, 46
7, 141888, Note_on_c, 6, 55, 50
7, 142016, Note_on_c, 6, 55, 0
7, 142016, Note_on_c, 6, 58, 0
7, 142272, Note_on_c, 6, 58, 48
7, 142272, Note_on_c, 6, 55, 53
7, 142272, Note_on_c, 6, 55, 0
7, 142400, Note_on_c, 6, 58, 0
7, 142656, Note_on_c, 6, 63, 45
7, 142656, Note_on_c, 6, 63, 0
7, 142656, Note_on_c, 6, 62, 55
7, 142656, Note_on_c, 6, 62, 0
7, 142656, Note_on_c, 6, 55, 55
7, 142656, Note_on_c, 6, 62, 12
7, 142656, Note_on_c, 6, 62, 0
7, 142784, Note_on_c, 6, 55, 0
7, 143040, Note_on_c, 6, 63, 31
7, 143040, Note_on_c, 6, 62, 48
7, 143040, Note_on_c, 6, 55, 41
7, 143040, Note_on_c, 6, 55, 0
7, 143168, Note_on_c, 6, 62, 0
7, 143168, Note_on_c, 6, 63, 0
7, 143416, Note_on_c, 6, 63, 27
7, 143416, Note_on_c, 6, 62, 38
7, 143416, Note_on_c, 6, 55, 31
7, 143544, Note_on_c, 6, 55, 0
7, 143544, Note_on_c, 6, 62, 0
7, 143544, Note_on_c, 6, 63, 0
7, 143800, Note_on_c, 6, 63, 32
7, 143800, Note_on_c, 6, 62, 41
7, 143800, Note_on_c, 6, 55, 50
7, 143928, Note_on_c, 6, 55, 0
7, 143928, Note_on_c, 6, 62, 0
7, 143928, Note_on_c, 6, 63, 0
7, 144184, Note_on_c, 6, 63, 39
7, 144184, Note_on_c, 6, 54, 48
7, 144184, Note_on_c, 6, 60, 41
7, 144312, Note_on_c, 6, 60, 0
7, 144312, Note_on_c, 6, 54, 0
7, 144312, Note_on_c, 6, 63, 0
7, 144568, Note_on_c, 6, 63, 45
7, 144568, Note_on_c, 6, 54, 48
7, 144568, Note_on_c, 6, 60, 48
7, 144696, Note_on_c, 6, 60, 0
7, 144824, Note_on_c, 6, 54, 0
7, 144824, Note_on_c, 6, 63, 0
7, 144952, Note_on_c, 6, 63, 38
7, 144952, Note_on_c, 6, 54, 27
7, 144952, Note_on_c, 6, 58, 25
7, 145080, Note_on_c, 6, 54, 0
7, 145080, Note_on_c, 6, 63, 0
7, 145208, Note_on_c, 6, 58, 0
7, 145336, Note_on_c, 6, 54, 48
7, 145336, Note_on_c, 6, 63, 39
7, 145336, Note_on_c, 6, 58, 36
7, 145464, Note_on_c, 6, 63, 0
7, 145464, Note_on_c, 6, 54, 0
7, 145592, Note_on_c, 6, 58, 0
7, 145720, Note_on_c, 6, 53, 32
7, 145720, Note_on_c, 6, 60, 36
7, 145720, Note_on_c, 6, 57, 18
7, 145848, Note_on_c, 6, 57, 0
7, 145848, Note_on_c, 6, 60, 0
7, 145848, Note_on_c, 6, 53, 0
7, 146104, Note_on_c, 6, 60, 48
7, 146104, Note_on_c, 6, 53, 43
7, 146104, Note_on_c, 6, 57, 25
7, 146232, Note_on_c, 6, 57, 0
7, 146232, Note_on_c, 6, 53, 0
7, 146232, Note_on_c, 6, 60, 0
7, 146488, Note_on_c, 6, 65, 45
7, 146488, Note_on_c, 6, 60, 43
7, 146488, Note_on_c, 6, 57, 38
7, 146616, Note_on_c, 6, 65, 0
7, 146744, Note_on_c, 6, 57, 0
7, 146744, Note_on_c, 6, 60, 0
7, 146872, Note_on_c, 6, 60, 53
7, 146872, Note_on_c, 6, 57, 52
7, 146872, Note_on_c, 6, 65, 48
7, 147000, Note_on_c, 6, 57, 0
7, 147000, Note_on_c, 6, 60, 0
7, 147128, Note_on_c, 6, 65, 0
7, 147256, Note_on_c, 6, 65, 25
7, 147256, Note_on_c, 6, 57, 20
7, 147256, Note_on_c, 6, 60, 32
7, 147384, Note_on_c, 6, 60, 0
7, 147384, Note_on_c, 6, 57, 0
7, 147384, Note_on_c, 6, 65, 0
7, 147640, Note_on_c, 6, 60, 50
7, 147640, Note_on_c, 6, 65, 50
7, 147640, Note_on_c, 6, 57, 45
7, 147768, Note_on_c, 6, 57, 0
7, 147768, Note_on_c, 6, 60, 0
7, 147896, Note_on_c, 6, 65, 0
7, 148024, Note_on_c, 6, 55, 25
7, 148024, Note_on_c, 6, 62, 34
7, 148024, Note_on_c, 6, 58, 24
7, 148152, Note_on_c, 6, 62, 0
7, 148152, Note_on_c, 6, 55, 0
7, 148280, Note_on_c, 6, 58, 0
7, 148408, Note_on_c, 6, 62, 41
7, 148408, Note_on_c, 6, 58, 38
7, 148408, Note_on_c, 6, 55, 27
7, 148536, Note_on_c, 6, 55, 0
7, 148664, Note_on_c, 6, 62, 0
7, 148664, Note_on_c, 6, 58, 0
7, 148792, Note_on_c, 6, 62, 48
7, 148792, Note_on_c, 6, 63, 24
7, 148792, Note_on_c, 6, 55, 31
7, 148792, Note_on_c, 6, 55, 0
7, 148912, Note_on_c, 6, 63, 0
7, 148912, Note_on_c, 6, 62, 0
7, 149168, Note_on_c, 6, 62, 50
7, 149168, Note_on_c, 6, 63, 20
7, 149168, Note_on_c, 6, 55, 46
7, 149296, Note_on_c, 6, 55, 0
7, 149296, Note_on_c, 6, 63, 0
7, 149296, Note_on_c, 6, 62, 0
7, 149560, Note_on_c, 6, 62, 38
7, 149560, Note_on_c, 6, 63, 20
7, 149560, Note_on_c, 6, 55, 27
7, 149680, Note_on_c, 6, 55, 0
7, 149680, Note_on_c, 6, 63, 0
7, 149680, Note_on_c, 6, 62, 0
7, 149936, Note_on_c, 6, 62, 52
7, 149936, Note_on_c, 6, 63, 27
7, 149936, Note_on_c, 6, 55, 53
7, 150064, Note_on_c, 6, 55, 0
7, 150064, Note_on_c, 6, 62, 0
7, 150192, Note_on_c, 6, 63, 0
7, 150320, Note_on_c, 6, 65, 38
7, 150320, Note_on_c, 6, 60, 43
7, 150320, Note_on_c, 6, 54, 20
7, 150448, Note_on_c, 6, 54, 0
7, 150448, Note_on_c, 6, 60, 0
7, 150448, Note_on_c, 6, 65, 0
7, 150704, Note_on_c, 6, 54, 38
7, 150704, Note_on_c, 6, 63, 32
7, 150704, Note_on_c, 6, 60, 45
7, 150832, Note_on_c, 6, 60, 0
7, 150832, Note_on_c, 6, 63, 0
7, 150960, Note_on_c, 6, 54, 0
7, 151088, Note_on_c, 6, 54, 34
7, 151088, Note_on_c, 6, 62, 38
7, 151088, Note_on_c, 6, 58, 25
7, 151344, Note_on_c, 6, 62, 0
7, 151344, Note_on_c, 6, 54, 0
7, 151344, Note_on_c, 6, 58, 0
7, 151472, Note_on_c, 6, 54, 41
7, 151472, Note_on_c, 6, 57, 53
7, 151600, Note_on_c, 6, 57, 0
7, 151600, Note_on_c, 6, 54, 0
7, 151856, Note_on_c, 6, 60, 13
7, 151856, Note_on_c, 6, 53, 18
7, 151856, Note_on_c, 6, 57, 20
7, 151984, Note_on_c, 6, 57, 0
7, 151984, Note_on_c, 6, 53, 0
7, 151984, Note_on_c, 6, 60, 0
7, 152240, Note_on_c, 6, 60, 48
7, 152240, Note_on_c, 6, 57, 50
7, 152240, Note_on_c, 6, 53, 29
7, 152368, Note_on_c, 6, 53, 0
7, 152368, Note_on_c, 6, 57, 0
7, 152368, Note_on_c, 6, 60, 0
7, 152624, Note_on_c, 6, 58, 24
7, 152624, Note_on_c, 6, 53, 20
7, 152880, Note_on_c, 6, 53, 0
7, 152880, Note_on_c, 6, 58, 0
7, 153008, Note_on_c, 6, 58, 38
7, 153008, Note_on_c, 6, 53, 43
7, 153136, Note_on_c, 6, 53, 0
7, 153136, Note_on_c, 6, 58, 0
7, 153392, Note_on_c, 6, 57, 45
7, 153392, Note_on_c, 6, 58, 24
7, 153392, Note_on_c, 6, 65, 27
7, 153392, Note_on_c, 6, 62, 24
7, 153520, Note_on_c, 6, 62, 0
7, 153520, Note_on_c, 6, 65, 0
7, 153520, Note_on_c, 6, 57, 0
7, 153648, Note_on_c, 6, 58, 0
7, 153776, Note_on_c, 6, 58, 43
7, 153776, Note_on_c, 6, 62, 45
7, 153776, Note_on_c, 6, 57, 59
7, 153776, Note_on_c, 6, 65, 38
7, 154032, Note_on_c, 6, 65, 0
7, 154032, Note_on_c, 6, 57, 0
7, 154032, Note_on_c, 6, 58, 0
7, 154032, Note_on_c, 6, 62, 0
7, 154160, Note_on_c, 6, 64, 41
7, 154160, Note_on_c, 6, 58, 18
7, 154160, Note_on_c, 6, 55, 22
7, 154288, Note_on_c, 6, 55, 0
7, 154288, Note_on_c, 6, 64, 0
7, 154416, Note_on_c, 6, 58, 0
7, 154544, Note_on_c, 6, 58, 38
7, 154544, Note_on_c, 6, 64, 50
7, 154544, Note_on_c, 6, 55, 46
7, 154672, Note_on_c, 6, 64, 0
7, 154792, Note_on_c, 6, 55, 0
7, 154792, Note_on_c, 6, 58, 0
7, 154920, Note_on_c, 6, 63, 25
7, 154920, Note_on_c, 6, 55, 29
7, 154920, Note_on_c, 6, 55, 0
7, 154920, Note_on_c, 6, 62, 46
7, 154920, Note_on_c, 6, 62, 0
7, 155048, Note_on_c, 6, 63, 0
7, 155304, Note_on_c, 6, 63, 43
7, 155304, Note_on_c, 6, 62, 53
7, 155304, Note_on_c, 6, 55, 53
7, 155432, Note_on_c, 6, 55, 0
7, 155432, Note_on_c, 6, 62, 0
7, 155432, Note_on_c, 6, 63, 0
7, 155688, Note_on_c, 6, 63, 24
7, 155688, Note_on_c, 6, 62, 46
7, 155688, Note_on_c, 6, 55, 38
7, 155816, Note_on_c, 6, 55, 0
7, 155816, Note_on_c, 6, 63, 0
7, 155944, Note_on_c, 6, 62, 0
7, 156072, Note_on_c, 6, 62, 52
7, 156072, Note_on_c, 6, 63, 43
7, 156072, Note_on_c, 6, 55, 50
7, 156200, Note_on_c, 6, 55, 0
7, 156200, Note_on_c, 6, 63, 0
7, 156328, Note_on_c, 6, 62, 0
7, 156456, Note_on_c, 6, 63, 39
7, 156456, Note_on_c, 6, 54, 38
7, 156456, Note_on_c, 6, 60, 43
7, 156584, Note_on_c, 6, 60, 0
7, 156584, Note_on_c, 6, 54, 0
7, 156584, Note_on_c, 6, 63, 0
7, 156840, Note_on_c, 6, 63, 50
7, 156840, Note_on_c, 6, 54, 52
7, 156840, Note_on_c, 6, 60, 38
7, 156840, Note_on_c, 6, 60, 0
7, 156840, Note_on_c, 6, 60, 12
7, 156968, Note_on_c, 6, 60, 0
7, 157096, Note_on_c, 6, 54, 0
7, 157096, Note_on_c, 6, 63, 0
7, 157224, Note_on_c, 6, 54, 31
7, 157224, Note_on_c, 6, 62, 43
7, 157224, Note_on_c, 6, 60, 24
7, 157224, Note_on_c, 6, 60, 0
7, 157352, Note_on_c, 6, 62, 0
7, 157352, Note_on_c, 6, 54, 0
7, 157608, Note_on_c, 6, 54, 45
7, 157608, Note_on_c, 6, 60, 38
7, 157608, Note_on_c, 6, 62, 41
7, 157736, Note_on_c, 6, 62, 0
7, 157736, Note_on_c, 6, 60, 0
7, 157736, Note_on_c, 6, 54, 0
7, 157992, Note_on_c, 6, 60, 36
7, 157992, Note_on_c, 6, 57, 48
7, 158120, Note_on_c, 6, 57, 0
7, 158120, Note_on_c, 6, 60, 0
7, 158376, Note_on_c, 6, 57, 59
7, 158376, Note_on_c, 6, 60, 50
7, 158504, Note_on_c, 6, 60, 0
7, 158504, Note_on_c, 6, 57, 0
7, 158760, Note_on_c, 6, 58, 22
7, 158760, Note_on_c, 6, 55, 20
7, 158888, Note_on_c, 6, 55, 0
7, 159016, Note_on_c, 6, 58, 0
7, 159144, Note_on_c, 6, 57, 52
7, 159144, Note_on_c, 6, 60, 43
7, 159272, Note_on_c, 6, 60, 0
7, 159272, Note_on_c, 6, 57, 0
7, 159528, Note_on_c, 6, 60, 43
7, 159528, Note_on_c, 6, 57, 53
7, 159784, Note_on_c, 6, 57, 0
7, 159784, Note_on_c, 6, 60, 0
7, 159912, Note_on_c, 6, 58, 27
7, 159912, Note_on_c, 6, 55, 27
7, 160040, Note_on_c, 6, 55, 0
7, 160168, Note_on_c, 6, 58, 0
7, 160296, Note_on_c, 6, 57, 57
7, 160296, Note_on_c, 6, 60, 43
7, 160424, Note_on_c, 6, 60, 0
7, 160424, Note_on_c, 6, 57, 0
7, 160680, Note_on_c, 6, 57, 57
7, 160680, Note_on_c, 6, 60, 43
7, 160808, Note_on_c, 6, 60, 0
7, 160808, Note_on_c, 6, 57, 0
7, 161064, Note_on_c, 6, 70, 56
7, 161064, Note_on_c, 6, 85, 51
7, 161184, Note_on_c, 6, 85, 0
7, 161312, Note_on_c, 6, 70, 0
7, 161696, Note_on_c, 6, 85, 62
7, 161696, Note_on_c, 6, 70, 53
7, 161696, Note_on_c, 6, 73, 41
7, 161696, Note_on_c, 6, 73, 0
7, 162336, Note_on_c, 6, 70, 0
7, 162336, Note_on_c, 6, 85, 0
7, 162592, Note_on_c, 6, 85, 69
7, 162592, Note_on_c, 6, 70, 64
7, 162592, Note_on_c, 6, 82, 21
7, 162720, Note_on_c, 6, 82, 0
7, 162720, Note_on_c, 6, 70, 0
7, 162720, Note_on_c, 6, 85, 0
7, 163232, Note_on_c, 6, 85, 67
7, 163232, Note_on_c, 6, 70, 67
7, 163744, Note_on_c, 6, 70, 0
7, 163744, Note_on_c, 6, 85, 0
7, 164128, Note_on_c, 6, 77, 64
7, 164128, Note_on_c, 6, 81, 61
7, 164256, Note_on_c, 6, 81, 0
7, 164256, Note_on_c, 6, 77, 0
7, 164768, Note_on_c, 6, 81, 82
7, 164768, Note_on_c, 6, 77, 63
7, 164768, Note_on_c, 6, 72, 62
7, 165152, Note_on_c, 6, 72, 0
7, 165280, Note_on_c, 6, 77, 0
7, 165280, Note_on_c, 6, 81, 0
7, 165280, Note_on_c, 6, 72, 29
7, 165280, Note_on_c, 6, 72, 0
7, 165664, Note_on_c, 6, 69, 42
7, 165664, Note_on_c, 6, 74, 45
7, 165664, Note_on_c, 6, 70, 30
7, 165792, Note_on_c, 6, 70, 0
7, 165792, Note_on_c, 6, 74, 0
7, 165792, Note_on_c, 6, 69, 0
7, 166304, Note_on_c, 6, 74, 60
7, 166304, Note_on_c, 6, 70, 54
7, 166304, Note_on_c, 6, 69, 59
7, 166680, Note_on_c, 6, 69, 0
7, 166808, Note_on_c, 6, 70, 0
7, 166808, Note_on_c, 6, 74, 0
7, 167200, Note_on_c, 6, 85, 49
7, 167200, Note_on_c, 6, 70, 51
7, 167320, Note_on_c, 6, 70, 0
7, 167320, Note_on_c, 6, 85, 0
7, 167832, Note_on_c, 6, 85, 72
7, 167832, Note_on_c, 6, 78, 63
7, 167832, Note_on_c, 6, 70, 62
7, 168216, Note_on_c, 6, 78, 0
7, 168344, Note_on_c, 6, 85, 0
7, 168472, Note_on_c, 6, 70, 0
7, 168728, Note_on_c, 6, 85, 64
7, 168728, Note_on_c, 6, 78, 59
7, 168728, Note_on_c, 6, 70, 55
7, 168856, Note_on_c, 6, 70, 0
7, 168856, Note_on_c, 6, 78, 0
7, 168856, Note_on_c, 6, 85, 0
7, 169368, Note_on_c, 6, 85, 78
7, 169368, Note_on_c, 6, 78, 76
7, 169368, Note_on_c, 6, 70, 62
7, 169880, Note_on_c, 6, 78, 0
7, 169880, Note_on_c, 6, 85, 0
7, 170008, Note_on_c, 6, 70, 0
7, 170264, Note_on_c, 6, 77, 65
7, 170264, Note_on_c, 6, 84, 63
7, 170264, Note_on_c, 6, 67, 60
7, 170392, Note_on_c, 6, 67, 0
7, 170392, Note_on_c, 6, 84, 0
7, 170392, Note_on_c, 6, 77, 0
7, 170904, Note_on_c, 6, 77, 78
7, 170904, Note_on_c, 6, 84, 76
7, 170904, Note_on_c, 6, 67, 80
7, 171416, Note_on_c, 6, 84, 0
7, 171416, Note_on_c, 6, 77, 0
7, 171416, Note_on_c, 6, 82, 31
7, 171544, Note_on_c, 6, 82, 0
7, 171544, Note_on_c, 6, 67, 0
7, 171800, Note_on_c, 6, 67, 48
7, 171800, Note_on_c, 6, 81, 30
7, 171800, Note_on_c, 6, 72, 28
7, 171800, Note_on_c, 6, 77, 34
7, 171928, Note_on_c, 6, 77, 0
7, 171928, Note_on_c, 6, 72, 0
7, 171928, Note_on_c, 6, 67, 0
7, 171928, Note_on_c, 6, 81, 0
7, 172440, Note_on_c, 6, 81, 54
7, 172440, Note_on_c, 6, 72, 50
7, 172440, Note_on_c, 6, 77, 57
7, 172440, Note_on_c, 6, 67, 69
7, 172944, Note_on_c, 6, 67, 0
7, 172944, Note_on_c, 6, 77, 0
7, 172944, Note_on_c, 6, 81, 0
7, 172944, Note_on_c, 6, 72, 0
7, 173336, Note_on_c, 6, 63, 35
7, 173336, Note_on_c, 6, 62, 80
7, 173336, Note_on_c, 6, 55, 51
7, 173336, Note_on_c, 6, 55, 0
7, 173336, Note_on_c, 6, 61, 23
7, 173336, Note_on_c, 6, 61, 0
7, 173456, Note_on_c, 6, 62, 0
7, 173456, Note_on_c, 6, 63, 0
7, 173968, Note_on_c, 6, 63, 45
7, 173968, Note_on_c, 6, 62, 68
7, 173968, Note_on_c, 6, 55, 50
7, 174480, Note_on_c, 6, 55, 0
7, 174608, Note_on_c, 6, 62, 0
7, 174736, Note_on_c, 6, 63, 0
7, 174864, Note_on_c, 6, 54, 39
7, 174864, Note_on_c, 6, 65, 36
7, 174864, Note_on_c, 6, 60, 48
7, 174864, Note_on_c, 6, 60, 0
7, 174992, Note_on_c, 6, 65, 0
7, 174992, Note_on_c, 6, 54, 0
7, 175504, Note_on_c, 6, 63, 52
7, 175504, Note_on_c, 6, 54, 51
7, 175504, Note_on_c, 6, 60, 63
7, 176016, Note_on_c, 6, 60, 0
7, 176016, Note_on_c, 6, 54, 0
7, 176272, Note_on_c, 6, 63, 0
7, 176400, Note_on_c, 6, 57, 21
7, 176400, Note_on_c, 6, 62, 33
7, 176400, Note_on_c, 6, 58, 24
7, 176528, Note_on_c, 6, 62, 0
7, 176528, Note_on_c, 6, 57, 0
7, 176528, Note_on_c, 6, 58, 0
7, 177040, Note_on_c, 6, 62, 65
7, 177040, Note_on_c, 6, 58, 50
7, 177040, Note_on_c, 6, 57, 58
7, 177552, Note_on_c, 6, 57, 0
7, 177680, Note_on_c, 6, 62, 0
7, 177680, Note_on_c, 6, 58, 0
7, 177936, Note_on_c, 6, 67, 30
7, 177936, Note_on_c, 6, 58, 14
7, 177936, Note_on_c, 6, 62, 30
7, 178064, Note_on_c, 6, 62, 0
7, 178064, Note_on_c, 6, 67, 0
7, 178064, Note_on_c, 6, 58, 0
7, 178576, Note_on_c, 6, 69, 64
7, 178576, Note_on_c, 6, 72, 69
7, 178576, Note_on_c, 6, 62, 67
7, 179080, Note_on_c, 6, 62, 0
7, 179080, Note_on_c, 6, 72, 0
7, 179080, Note_on_c, 6, 69, 0
7, 179080, Note_on_c, 6, 62, 16
7, 179208, Note_on_c, 6, 62, 0
7, 179464, Note_on_c, 6, 63, 35
7, 179464, Note_on_c, 6, 74, 56
7, 179464, Note_on_c, 6, 67, 32
7, 179592, Note_on_c, 6, 67, 0
7, 179592, Note_on_c, 6, 74, 0
7, 179592, Note_on_c, 6, 63, 0
7, 180104, Note_on_c, 6, 67, 60
7, 180104, Note_on_c, 6, 63, 49
7, 180104, Note_on_c, 6, 74, 64
7, 180616, Note_on_c, 6, 74, 0
7, 180616, Note_on_c, 6, 67, 0
7, 180744, Note_on_c, 6, 63, 0
7, 181000, Note_on_c, 6, 66, 42
7, 181000, Note_on_c, 6, 72, 30
7, 181000, Note_on_c, 6, 70, 27
7, 181128, Note_on_c, 6, 70, 0
7, 181128, Note_on_c, 6, 72, 0
7, 181128, Note_on_c, 6, 66, 0
7, 181640, Note_on_c, 6, 70, 59
7, 181640, Note_on_c, 6, 65, 88
7, 181640, Note_on_c, 6, 72, 65
7, 182280, Note_on_c, 6, 72, 0
7, 182280, Note_on_c, 6, 65, 0
7, 182408, Note_on_c, 6, 70, 0
7, 182536, Note_on_c, 6, 69, 27
7, 182536, Note_on_c, 6, 60, 27
7, 182536, Note_on_c, 6, 65, 35
7, 182664, Note_on_c, 6, 65, 0
7, 182664, Note_on_c, 6, 60, 0
7, 182664, Note_on_c, 6, 69, 0
7, 183176, Note_on_c, 6, 67, 56
7, 183176, Note_on_c, 6, 65, 51
7, 183176, Note_on_c, 6, 60, 49
7, 183304, Note_on_c, 6, 60, 0
7, 183816, Note_on_c, 6, 65, 0
7, 183944, Note_on_c, 6, 67, 0
7, 184072, Note_on_c, 6, 67, 25
7, 184072, Note_on_c, 6, 62, 21
7, 184072, Note_on_c, 6, 65, 24
7, 184200, Note_on_c, 6, 65, 0
7, 184200, Note_on_c, 6, 62, 0
7, 184200, Note_on_c, 6, 67, 0
7, 184712, Note_on_c, 6, 70, 65
7, 184712, Note_on_c, 6, 62, 76
7, 185088, Note_on_c, 6, 62, 0
7, 185216, Note_on_c, 6, 70, 0
7, 185216, Note_on_c, 6, 62, 17
7, 185216, Note_on_c, 6, 67, 21
7, 185344, Note_on_c, 6, 67, 0
7, 185344, Note_on_c, 6, 62, 0
7, 185600, Note_on_c, 6, 62, 35
7, 185600, Note_on_c, 6, 62, 0
7, 185600, Note_on_c, 6, 63, 35
7, 185600, Note_on_c, 6, 67, 27
7, 185600, Note_on_c, 6, 67, 0
7, 185728, Note_on_c, 6, 63, 0
7, 186240, Note_on_c, 6, 70, 63
7, 186240, Note_on_c, 6, 67, 88
7, 186240, Note_on_c, 6, 74, 72
7, 186752, Note_on_c, 6, 74, 0
7, 186752, Note_on_c, 6, 67, 0
7, 186752, Note_on_c, 6, 72, 29
7, 186880, Note_on_c, 6, 72, 0
7, 186880, Note_on_c, 6, 70, 0
7, 187136, Note_on_c, 6, 66, 37
7, 187136, Note_on_c, 6, 70, 26
7, 187136, Note_on_c, 6, 77, 30
7, 187264, Note_on_c, 6, 77, 0
7, 187264, Note_on_c, 6, 70, 0
7, 187264, Note_on_c, 6, 66, 0
7, 187776, Note_on_c, 6, 75, 50
7, 187776, Note_on_c, 6, 72, 49
7, 187776, Note_on_c, 6, 66, 42
7, 187776, Note_on_c, 6, 70, 40
7, 188160, Note_on_c, 6, 66, 0
7, 188288, Note_on_c, 6, 72, 0
7, 188288, Note_on_c, 6, 66, 23
7, 188416, Note_on_c, 6, 66, 0
7, 188416, Note_on_c, 6, 75, 0
7, 188416, Note_on_c, 6, 70, 0
7, 188672, Note_on_c, 6, 70, 23
7, 188672, Note_on_c, 6, 74, 28
7, 188672, Note_on_c, 6, 65, 19
7, 188672, Note_on_c, 6, 67, 17
7, 188800, Note_on_c, 6, 67, 0
7, 188800, Note_on_c, 6, 65, 0
7, 188800, Note_on_c, 6, 70, 0
7, 188800, Note_on_c, 6, 74, 0
7, 189312, Note_on_c, 6, 70, 34
7, 189312, Note_on_c, 6, 74, 46
7, 189312, Note_on_c, 6, 67, 37
7, 189312, Note_on_c, 6, 65, 32
7, 189824, Note_on_c, 6, 65, 0
7, 189824, Note_on_c, 6, 67, 0
7, 189824, Note_on_c, 6, 70, 0
7, 189824, Note_on_c, 6, 74, 0
7, 190208, Note_on_c, 6, 70, 26
7, 190208, Note_on_c, 6, 64, 30
7, 190208, Note_on_c, 6, 74, 23
7, 190336, Note_on_c, 6, 74, 0
7, 190336, Note_on_c, 6, 70, 0
7, 190336, Note_on_c, 6, 64, 0
7, 190840, Note_on_c, 6, 70, 45
7, 190840, Note_on_c, 6, 74, 53
7, 190840, Note_on_c, 6, 64, 58
7, 191224, Note_on_c, 6, 64, 0
7, 191352, Note_on_c, 6, 74, 0
7, 191480, Note_on_c, 6, 70, 0
7, 191736, Note_on_c, 6, 63, 39
7, 191736, Note_on_c, 6, 67, 32
7, 191736, Note_on_c, 6, 74, 28
7, 191864, Note_on_c, 6, 74, 0
7, 191864, Note_on_c, 6, 67, 0
7, 191864, Note_on_c, 6, 63, 0
7, 192376, Note_on_c, 6, 63, 53
7, 192376, Note_on_c, 6, 67, 57
7, 192376, Note_on_c, 6, 74, 62
7, 192760, Note_on_c, 6, 74, 0
7, 192888, Note_on_c, 6, 67, 0
7, 192888, Note_on_c, 6, 63, 0
7, 192888, Note_on_c, 6, 72, 26
7, 192888, Note_on_c, 6, 72, 0
7, 193272, Note_on_c, 6, 75, 35
7, 193272, Note_on_c, 6, 66, 31
7, 193272, Note_on_c, 6, 72, 28
7, 193400, Note_on_c, 6, 72, 0
7, 193400, Note_on_c, 6, 66, 0
7, 193400, Note_on_c, 6, 75, 0
7, 193912, Note_on_c, 6, 66, 72
7, 193912, Note_on_c, 6, 70, 58
7, 193912, Note_on_c, 6, 74, 67
7, 194424, Note_on_c, 6, 74, 0
7, 194424, Note_on_c, 6, 70, 0
7, 194424, Note_on_c, 6, 66, 0
7, 194424, Note_on_c, 6, 72, 23
7, 194552, Note_on_c, 6, 72, 0
7, 194808, Note_on_c, 6, 65, 20
7, 194808, Note_on_c, 6, 72, 26
7, 194808, Note_on_c, 6, 69, 22
7, 194936, Note_on_c, 6, 69, 0
7, 194936, Note_on_c, 6, 72, 0
7, 194936, Note_on_c, 6, 65, 0
7, 195448, Note_on_c, 6, 65, 60
7, 195448, Note_on_c, 6, 69, 51
7, 195448, Note_on_c, 6, 72, 47
7, 195832, Note_on_c, 6, 65, 0
7, 195960, Note_on_c, 6, 72, 0
7, 195960, Note_on_c, 6, 69, 0
7, 195960, Note_on_c, 6, 70, 38
7, 196088, Note_on_c, 6, 70, 0
7, 196336, Note_on_c, 6, 69, 37
7, 196336, Note_on_c, 6, 65, 31
7, 196336, Note_on_c, 6, 65, 0
7, 196336, Note_on_c, 6, 72, 26
7, 196336, Note_on_c, 6, 72, 0
7, 196464, Note_on_c, 6, 69, 0
7, 196976, Note_on_c, 6, 69, 56
7, 196976, Note_on_c, 6, 72, 47
7, 196976, Note_on_c, 6, 65, 50
7, 197488, Note_on_c, 6, 65, 0
7, 197488, Note_on_c, 6, 72, 0
7, 197488, Note_on_c, 6, 69, 0
7, 197880, Note_on_c, 6, 63, 58
7, 197880, Note_on_c, 6, 67, 67
7, 197880, Note_on_c, 6, 62, 76
7, 198000, Note_on_c, 6, 62, 0
7, 198000, Note_on_c, 6, 67, 0
7, 198000, Note_on_c, 6, 63, 0
7, 198256, Note_on_c, 6, 63, 27
7, 198256, Note_on_c, 6, 62, 48
7, 198256, Note_on_c, 6, 67, 44
7, 198384, Note_on_c, 6, 67, 0
7, 198384, Note_on_c, 6, 62, 0
7, 198384, Note_on_c, 6, 63, 0
7, 198640, Note_on_c, 6, 63, 23
7, 198640, Note_on_c, 6, 62, 48
7, 198640, Note_on_c, 6, 67, 33
7, 198768, Note_on_c, 6, 67, 0
7, 198768, Note_on_c, 6, 62, 0
7, 198768, Note_on_c, 6, 63, 0
7, 199024, Note_on_c, 6, 63, 52
7, 199024, Note_on_c, 6, 62, 68
7, 199024, Note_on_c, 6, 67, 60
7, 199152, Note_on_c, 6, 67, 0
7, 199152, Note_on_c, 6, 62, 0
7, 199152, Note_on_c, 6, 63, 0
7, 199408, Note_on_c, 6, 65, 49
7, 199408, Note_on_c, 6, 54, 34
7, 199408, Note_on_c, 6, 58, 41
7, 199536, Note_on_c, 6, 54, 0
7, 199536, Note_on_c, 6, 65, 0
7, 199536, Note_on_c, 6, 58, 0
7, 199792, Note_on_c, 6, 65, 70
7, 199792, Note_on_c, 6, 58, 51
7, 199792, Note_on_c, 6, 54, 48
7, 199920, Note_on_c, 6, 54, 0
7, 199920, Note_on_c, 6, 65, 0
7, 199920, Note_on_c, 6, 58, 0
7, 200176, Note_on_c, 6, 54, 14
7, 200176, Note_on_c, 6, 63, 22
7, 200176, Note_on_c, 6, 58, 22
7, 200304, Note_on_c, 6, 63, 0
7, 200304, Note_on_c, 6, 54, 0
7, 200432, Note_on_c, 6, 58, 0
7, 200560, Note_on_c, 6, 63, 57
7, 200560, Note_on_c, 6, 54, 64
7, 200560, Note_on_c, 6, 58, 45
7, 200688, Note_on_c, 6, 54, 0
7, 200688, Note_on_c, 6, 63, 0
7, 200688, Note_on_c, 6, 58, 0
7, 200944, Note_on_c, 6, 62, 29
7, 200944, Note_on_c, 6, 57, 12
7, 200944, Note_on_c, 6, 58, 14
7, 201072, Note_on_c, 6, 57, 0
7, 201072, Note_on_c, 6, 62, 0
7, 201200, Note_on_c, 6, 58, 0
7, 201328, Note_on_c, 6, 58, 29
7, 201328, Note_on_c, 6, 62, 51
7, 201328, Note_on_c, 6, 57, 35
7, 201328, Note_on_c, 6, 57, 0
7, 201456, Note_on_c, 6, 62, 0
7, 201584, Note_on_c, 6, 58, 0
7, 201712, Note_on_c, 6, 58, 21
7, 201712, Note_on_c, 6, 57, 30
7, 201712, Note_on_c, 6, 62, 36
7, 201840, Note_on_c, 6, 57, 0
7, 201968, Note_on_c, 6, 62, 0
7, 201968, Note_on_c, 6, 58, 0
7, 202096, Note_on_c, 6, 62, 59
7, 202096, Note_on_c, 6, 58, 37
7, 202096, Note_on_c, 6, 57, 45
7, 202216, Note_on_c, 6, 57, 0
7, 202344, Note_on_c, 6, 62, 0
7, 202344, Note_on_c, 6, 58, 0
7, 202472, Note_on_c, 6, 58, 14
7, 202472, Note_on_c, 6, 65, 16
7, 202472, Note_on_c, 6, 62, 17
7, 202728, Note_on_c, 6, 62, 0
7, 202728, Note_on_c, 6, 65, 0
7, 202728, Note_on_c, 6, 58, 0
7, 202856, Note_on_c, 6, 58, 47
7, 202856, Note_on_c, 6, 65, 53
7, 202856, Note_on_c, 6, 62, 55
7, 202984, Note_on_c, 6, 65, 0
7, 203112, Note_on_c, 6, 62, 0
7, 203112, Note_on_c, 6, 58, 0
7, 203112, Note_on_c, 6, 58, 31
7, 203112, Note_on_c, 6, 64, 66
7, 203496, Note_on_c, 6, 64, 0
7, 203624, Note_on_c, 6, 64, 41
7, 203752, Note_on_c, 6, 58, 0
7, 203880, Note_on_c, 6, 64, 0
7, 204008, Note_on_c, 6, 62, 27
7, 204008, Note_on_c, 6, 67, 23
7, 204008, Note_on_c, 6, 63, 17
7, 204136, Note_on_c, 6, 63, 0
7, 204136, Note_on_c, 6, 67, 0
7, 204136, Note_on_c, 6, 62, 0
7, 204392, Note_on_c, 6, 63, 58
7, 204392, Note_on_c, 6, 62, 82
7, 204392, Note_on_c, 6, 67, 62
7, 204520, Note_on_c, 6, 67, 0
7, 204520, Note_on_c, 6, 62, 0
7, 204520, Note_on_c, 6, 63, 0
7, 204776, Note_on_c, 6, 63, 14
7, 204776, Note_on_c, 6, 62, 24
7, 204776, Note_on_c, 6, 67, 16
7, 204904, Note_on_c, 6, 67, 0
7, 204904, Note_on_c, 6, 62, 0
7, 204904, Note_on_c, 6, 63, 0
7, 205160, Note_on_c, 6, 63, 50
7, 205160, Note_on_c, 6, 62, 70
7, 205160, Note_on_c, 6, 67, 58
7, 205288, Note_on_c, 6, 67, 0
7, 205288, Note_on_c, 6, 62, 0
7, 205288, Note_on_c, 6, 63, 0
7, 205544, Note_on_c, 6, 60, 37
7, 205544, Note_on_c, 6, 70, 30
7, 205544, Note_on_c, 6, 66, 26
7, 205672, Note_on_c, 6, 66, 0
7, 205672, Note_on_c, 6, 70, 0
7, 205672, Note_on_c, 6, 60, 0
7, 205928, Note_on_c, 6, 70, 70
7, 205928, Note_on_c, 6, 66, 60
7, 205928, Note_on_c, 6, 60, 76
7, 206056, Note_on_c, 6, 60, 0
7, 206056, Note_on_c, 6, 66, 0
7, 206056, Note_on_c, 6, 70, 0
7, 206312, Note_on_c, 6, 70, 28
7, 206312, Note_on_c, 6, 66, 25
7, 206312, Note_on_c, 6, 60, 20
7, 206440, Note_on_c, 6, 60, 0
7, 206440, Note_on_c, 6, 66, 0
7, 206440, Note_on_c, 6, 70, 0
7, 206696, Note_on_c, 6, 70, 67
7, 206696, Note_on_c, 6, 66, 62
7, 206696, Note_on_c, 6, 60, 74
7, 206824, Note_on_c, 6, 60, 0
7, 206824, Note_on_c, 6, 66, 0
7, 206824, Note_on_c, 6, 70, 0
7, 206952, Note_on_c, 6, 69, 82
7, 206952, Note_on_c, 6, 65, 82
7, 206952, Note_on_c, 6, 60, 86
7, 206952, Note_on_c, 6, 60, 0
7, 207336, Note_on_c, 6, 65, 0
7, 207336, Note_on_c, 6, 69, 0
7, 207464, Note_on_c, 6, 65, 48
7, 207464, Note_on_c, 6, 69, 35
7, 207592, Note_on_c, 6, 65, 0
7, 207720, Note_on_c, 6, 69, 0
7, 207848, Note_on_c, 6, 65, 49
7, 207848, Note_on_c, 6, 69, 58
7, 208104, Note_on_c, 6, 69, 0
7, 208104, Note_on_c, 6, 65, 0
7, 208224, Note_on_c, 6, 65, 21
7, 208224, Note_on_c, 6, 62, 28
7, 208360, Note_on_c, 6, 62, 0
7, 208360, Note_on_c, 6, 65, 0
7, 208608, Note_on_c, 6, 57, 25
7, 208608, Note_on_c, 6, 57, 0
7, 208608, Note_on_c, 6, 62, 29
7, 208608, Note_on_c, 6, 58, 17
7, 208736, Note_on_c, 6, 62, 0
7, 208864, Note_on_c, 6, 58, 0
7, 208992, Note_on_c, 6, 58, 40
7, 208992, Note_on_c, 6, 62, 44
7, 208992, Note_on_c, 6, 57, 52
7, 209120, Note_on_c, 6, 57, 0
7, 209120, Note_on_c, 6, 62, 0
7, 209248, Note_on_c, 6, 58, 0
7, 209376, Note_on_c, 6, 62, 23
7, 209376, Note_on_c, 6, 58, 12
7, 209376, Note_on_c, 6, 57, 12
7, 209504, Note_on_c, 6, 57, 0
7, 209504, Note_on_c, 6, 62, 0
7, 209632, Note_on_c, 6, 58, 0
7, 209760, Note_on_c, 6, 58, 32
7, 209760, Note_on_c, 6, 62, 50
7, 209760, Note_on_c, 6, 57, 54
7, 209888, Note_on_c, 6, 57, 0
7, 209888, Note_on_c, 6, 62, 0
7, 209888, Note_on_c, 6, 58, 0
7, 210144, Note_on_c, 6, 63, 21
7, 210144, Note_on_c, 6, 62, 32
7, 210144, Note_on_c, 6, 67, 21
7, 210272, Note_on_c, 6, 67, 0
7, 210272, Note_on_c, 6, 62, 0
7, 210272, Note_on_c, 6, 63, 0
7, 210528, Note_on_c, 6, 63, 61
7, 210528, Note_on_c, 6, 62, 89
7, 210528, Note_on_c, 6, 67, 76
7, 210656, Note_on_c, 6, 67, 0
7, 210656, Note_on_c, 6, 62, 0
7, 210656, Note_on_c, 6, 63, 0
7, 210912, Note_on_c, 6, 63, 14
7, 210912, Note_on_c, 6, 62, 22
7, 210912, Note_on_c, 6, 67, 22
7, 211168, Note_on_c, 6, 67, 0
7, 211168, Note_on_c, 6, 62, 0
7, 211168, Note_on_c, 6, 63, 0
7, 211296, Note_on_c, 6, 63, 28
7, 211296, Note_on_c, 6, 63, 0
7, 211296, Note_on_c, 6, 67, 29
7, 211296, Note_on_c, 6, 67, 0
7, 211296, Note_on_c, 6, 62, 33
7, 211296, Note_on_c, 6, 62, 0
7, 211552, Note_on_c, 6, 70, 67
7, 211552, Note_on_c, 6, 65, 76
7, 211552, Note_on_c, 6, 60, 67
7, 211936, Note_on_c, 6, 60, 0
7, 211936, Note_on_c, 6, 65, 0
7, 212064, Note_on_c, 6, 70, 0
7, 212064, Note_on_c, 6, 60, 31
7, 212064, Note_on_c, 6, 68, 30
7, 212064, Note_on_c, 6, 65, 25
7, 212192, Note_on_c, 6, 65, 0
7, 212320, Note_on_c, 6, 68, 0
7, 212320, Note_on_c, 6, 60, 0
7, 212448, Note_on_c, 6, 69, 33
7, 212448, Note_on_c, 6, 60, 21
7, 212448, Note_on_c, 6, 66, 24
7, 212576, Note_on_c, 6, 66, 0
7, 212576, Note_on_c, 6, 60, 0
7, 212576, Note_on_c, 6, 69, 0
7, 212832, Note_on_c, 6, 66, 62
7, 212832, Note_on_c, 6, 60, 57
7, 212960, Note_on_c, 6, 60, 0
7, 212960, Note_on_c, 6, 66, 0
7, 213216, Note_on_c, 6, 53, 25
7, 213216, Note_on_c, 6, 53, 0
7, 213216, Note_on_c, 6, 60, 28
7, 213216, Note_on_c, 6, 57, 23
7, 213344, Note_on_c, 6, 57, 0
7, 213344, Note_on_c, 6, 60, 0
7, 213600, Note_on_c, 6, 60, 47
7, 213600, Note_on_c, 6, 53, 44
7, 213600, Note_on_c, 6, 57, 36
7, 213728, Note_on_c, 6, 57, 0
7, 213728, Note_on_c, 6, 53, 0
7, 213728, Note_on_c, 6, 60, 0
7, 213984, Note_on_c, 6, 53, 26
7, 213984, Note_on_c, 6, 60, 36
7, 213984, Note_on_c, 6, 57, 22
7, 214112, Note_on_c, 6, 60, 0
7, 214112, Note_on_c, 6, 53, 0
7, 214240, Note_on_c, 6, 57, 0
7, 214368, Note_on_c, 6, 60, 41
7, 214368, Note_on_c, 6, 53, 26
7, 214368, Note_on_c, 6, 57, 21
7, 214368, Note_on_c, 6, 57, 0
7, 214488, Note_on_c, 6, 53, 0
7, 214488, Note_on_c, 6, 60, 0
7, 214616, Note_on_c, 6, 64, 63
7, 214616, Note_on_c, 6, 58, 56
7, 214616, Note_on_c, 6, 55, 67
7, 214616, Note_on_c, 6, 60, 64
7, 215000, Note_on_c, 6, 60, 0
7, 215000, Note_on_c, 6, 55, 0
7, 215000, Note_on_c, 6, 64, 0
7, 215128, Note_on_c, 6, 58, 0
7, 215128, Note_on_c, 6, 64, 29
7, 215128, Note_on_c, 6, 55, 32
7, 215128, Note_on_c, 6, 58, 13
7, 215128, Note_on_c, 6, 60, 32
7, 215128, Note_on_c, 6, 60, 0
7, 215256, Note_on_c, 6, 55, 0
7, 215256, Note_on_c, 6, 64, 0
7, 215384, Note_on_c, 6, 58, 0
7, 215512, Note_on_c, 6, 65, 21
7, 215512, Note_on_c, 6, 58, 18
7, 215512, Note_on_c, 6, 57, 17
7, 215512, Note_on_c, 6, 62, 26
7, 215640, Note_on_c, 6, 62, 0
7, 215640, Note_on_c, 6, 57, 0
7, 215640, Note_on_c, 6, 65, 0
7, 215640, Note_on_c, 6, 58, 0
7, 215896, Note_on_c, 6, 64, 38
7, 215896, Note_on_c, 6, 58, 31
7, 215896, Note_on_c, 6, 55, 28
7, 215896, Note_on_c, 6, 60, 31
7, 216024, Note_on_c, 6, 60, 0
7, 216024, Note_on_c, 6, 55, 0
7, 216024, Note_on_c, 6, 64, 0
7, 216152, Note_on_c, 6, 58, 0
7, 216280, Note_on_c, 6, 63, 24
7, 216280, Note_on_c, 6, 62, 37
7, 216280, Note_on_c, 6, 55, 19
7, 216408, Note_on_c, 6, 55, 0
7, 216408, Note_on_c, 6, 62, 0
7, 216408, Note_on_c, 6, 63, 0
7, 216664, Note_on_c, 6, 63, 63
7, 216664, Note_on_c, 6, 62, 86
7, 216664, Note_on_c, 6, 55, 80
7, 216792, Note_on_c, 6, 55, 0
7, 216792, Note_on_c, 6, 62, 0
7, 216792, Note_on_c, 6, 63, 0
7, 217048, Note_on_c, 6, 63, 31
7, 217048, Note_on_c, 6, 60, 33
7, 217048, Note_on_c, 6, 55, 30
7, 217176, Note_on_c, 6, 55, 0
7, 217176, Note_on_c, 6, 63, 0
7, 217304, Note_on_c, 6, 60, 0
7, 217432, Note_on_c, 6, 63, 27
7, 217432, Note_on_c, 6, 55, 28
7, 217432, Note_on_c, 6, 60, 28
7, 217560, Note_on_c, 6, 60, 0
7, 217560, Note_on_c, 6, 55, 0
7, 217560, Note_on_c, 6, 63, 0
7, 217688, Note_on_c, 6, 63, 70
7, 217688, Note_on_c, 6, 54, 84
7, 217688, Note_on_c, 6, 58, 57
7, 218072, Note_on_c, 6, 54, 0
7, 218072, Note_on_c, 6, 63, 0
7, 218072, Note_on_c, 6, 58, 0
7, 218200, Note_on_c, 6, 63, 44
7, 218200, Note_on_c, 6, 54, 33
7, 218200, Note_on_c, 6, 58, 16
7, 218328, Note_on_c, 6, 54, 0
7, 218328, Note_on_c, 6, 58, 0
7, 218456, Note_on_c, 6, 63, 0
7, 218456, Note_on_c, 6, 54, 76
7, 218456, Note_on_c, 6, 58, 28
7, 218456, Note_on_c, 6, 62, 76
7, 218840, Note_on_c, 6, 62, 0
7, 218840, Note_on_c, 6, 54, 0
7, 218840, Note_on_c, 6, 58, 0
7, 218968, Note_on_c, 6, 54, 26
7, 218968, Note_on_c, 6, 58, 14
7, 219096, Note_on_c, 6, 54, 0
7, 219224, Note_on_c, 6, 58, 0
7, 219352, Note_on_c, 6, 57, 28
7, 219352, Note_on_c, 6, 57, 0
7, 219352, Note_on_c, 6, 58, 13
7, 219352, Note_on_c, 6, 62, 28
7, 219480, Note_on_c, 6, 62, 0
7, 219608, Note_on_c, 6, 58, 0
7, 219736, Note_on_c, 6, 58, 18
7, 219736, Note_on_c, 6, 62, 28
7, 219736, Note_on_c, 6, 57, 23
7, 219864, Note_on_c, 6, 57, 0
7, 219864, Note_on_c, 6, 62, 0
7, 219992, Note_on_c, 6, 58, 0
7, 220112, Note_on_c, 6, 57, 23
7, 220112, Note_on_c, 6, 58, 14
7, 220112, Note_on_c, 6, 62, 26
7, 220240, Note_on_c, 6, 62, 0
7, 220240, Note_on_c, 6, 57, 0
7, 220368, Note_on_c, 6, 58, 0
7, 220496, Note_on_c, 6, 62, 28
7, 220496, Note_on_c, 6, 57, 23
7, 220496, Note_on_c, 6, 58, 20
7, 220624, Note_on_c, 6, 57, 0
7, 220624, Note_on_c, 6, 62, 0
7, 220624, Note_on_c, 6, 58, 0
7, 220880, Note_on_c, 6, 62, 28
7, 220880, Note_on_c, 6, 58, 21
7, 220880, Note_on_c, 6, 57, 17
7, 221008, Note_on_c, 6, 57, 0
7, 221008, Note_on_c, 6, 62, 0
7, 221008, Note_on_c, 6, 58, 0
7, 221264, Note_on_c, 6, 62, 37
7, 221264, Note_on_c, 6, 57, 27
7, 221264, Note_on_c, 6, 58, 23
7, 221392, Note_on_c, 6, 57, 0
7, 221392, Note_on_c, 6, 62, 0
7, 221392, Note_on_c, 6, 58, 0
7, 221648, Note_on_c, 6, 62, 35
7, 221648, Note_on_c, 6, 58, 18
7, 221648, Note_on_c, 6, 57, 22
7, 221776, Note_on_c, 6, 57, 0
7, 221776, Note_on_c, 6, 62, 0
7, 221904, Note_on_c, 6, 58, 0
7, 222032, Note_on_c, 6, 62, 38
7, 222032, Note_on_c, 6, 58, 20
7, 222032, Note_on_c, 6, 57, 28
7, 222160, Note_on_c, 6, 57, 0
7, 222160, Note_on_c, 6, 62, 0
7, 222160, Note_on_c, 6, 58, 0
7, 222416, Note_on_c, 6, 63, 58
7, 222416, Note_on_c, 6, 67, 67
7, 222416, Note_on_c, 6, 62, 76
7, 222544, Note_on_c, 6, 62, 0
7, 222544, Note_on_c, 6, 67, 0
7, 222544, Note_on_c, 6, 63, 0
7, 222800, Note_on_c, 6, 63, 27
7, 222800, Note_on_c, 6, 62, 48
7, 222800, Note_on_c, 6, 67, 44
7, 222928, Note_on_c, 6, 67, 0
7, 222928, Note_on_c, 6, 62, 0
7, 222928, Note_on_c, 6, 63, 0
7, 223184, Note_on_c, 6, 63, 23
7, 223184, Note_on_c, 6, 62, 48
7, 223184, Note_on_c, 6, 67, 33
7, 223312, Note_on_c, 6, 67, 0
7, 223312, Note_on_c, 6, 62, 0
7, 223312, Note_on_c, 6, 63, 0
7, 223568, Note_on_c, 6, 63, 52
7, 223568, Note_on_c, 6, 62, 68
7, 223568, Note_on_c, 6, 67, 60
7, 223696, Note_on_c, 6, 67, 0
7, 223696, Note_on_c, 6, 62, 0
7, 223696, Note_on_c, 6, 63, 0
7, 223952, Note_on_c, 6, 65, 49
7, 223952, Note_on_c, 6, 54, 34
7, 223952, Note_on_c, 6, 58, 41
7, 224080, Note_on_c, 6, 54, 0
7, 224080, Note_on_c, 6, 65, 0
7, 224080, Note_on_c, 6, 58, 0
7, 224336, Note_on_c, 6, 65, 70
7, 224336, Note_on_c, 6, 58, 51
7, 224336, Note_on_c, 6, 54, 48
7, 224464, Note_on_c, 6, 54, 0
7, 224464, Note_on_c, 6, 65, 0
7, 224464, Note_on_c, 6, 58, 0
7, 224720, Note_on_c, 6, 54, 14
7, 224720, Note_on_c, 6, 63, 22
7, 224720, Note_on_c, 6, 58, 22
7, 224848, Note_on_c, 6, 63, 0
7, 224848, Note_on_c, 6, 54, 0
7, 224976, Note_on_c, 6, 58, 0
7, 225104, Note_on_c, 6, 63, 57
7, 225104, Note_on_c, 6, 54, 64
7, 225104, Note_on_c, 6, 58, 45
7, 225232, Note_on_c, 6, 54, 0
7, 225232, Note_on_c, 6, 63, 0
7, 225232, Note_on_c, 6, 58, 0
7, 225488, Note_on_c, 6, 62, 29
7, 225488, Note_on_c, 6, 57, 12
7, 225488, Note_on_c, 6, 58, 14
7, 225616, Note_on_c, 6, 57, 0
7, 225616, Note_on_c, 6, 62, 0
7, 225744, Note_on_c, 6, 58, 0
7, 225872, Note_on_c, 6, 58, 29
7, 225872, Note_on_c, 6, 62, 51
7, 225872, Note_on_c, 6, 57, 35
7, 225872, Note_on_c, 6, 57, 0
7, 226000, Note_on_c, 6, 62, 0
7, 226120, Note_on_c, 6, 58, 0
7, 226248, Note_on_c, 6, 58, 21
7, 226248, Note_on_c, 6, 57, 30
7, 226248, Note_on_c, 6, 62, 36
7, 226384, Note_on_c, 6, 57, 0
7, 226512, Note_on_c, 6, 62, 0
7, 226512, Note_on_c, 6, 58, 0
7, 226632, Note_on_c, 6, 62, 59
7, 226632, Note_on_c, 6, 58, 37
7, 226632, Note_on_c, 6, 57, 45
7, 226768, Note_on_c, 6, 57, 0
7, 226888, Note_on_c, 6, 62, 0
7, 226888, Note_on_c, 6, 58, 0
7, 227016, Note_on_c, 6, 58, 14
7, 227016, Note_on_c, 6, 65, 16
7, 227016, Note_on_c, 6, 62, 17
7, 227272, Note_on_c, 6, 62, 0
7, 227272, Note_on_c, 6, 65, 0
7, 227272, Note_on_c, 6, 58, 0
7, 227400, Note_on_c, 6, 58, 47
7, 227400, Note_on_c, 6, 65, 53
7, 227400, Note_on_c, 6, 62, 55
7, 227528, Note_on_c, 6, 65, 0
7, 227656, Note_on_c, 6, 62, 0
7, 227656, Note_on_c, 6, 58, 0
7, 227656, Note_on_c, 6, 58, 31
7, 227656, Note_on_c, 6, 64, 66
7, 228040, Note_on_c, 6, 64, 0
7, 228168, Note_on_c, 6, 64, 41
7, 228296, Note_on_c, 6, 58, 0
7, 228424, Note_on_c, 6, 64, 0
7, 228552, Note_on_c, 6, 62, 27
7, 228552, Note_on_c, 6, 67, 23
7, 228552, Note_on_c, 6, 63, 17
7, 228680, Note_on_c, 6, 63, 0
7, 228680, Note_on_c, 6, 67, 0
7, 228680, Note_on_c, 6, 62, 0
7, 228936, Note_on_c, 6, 63, 58
7, 228936, Note_on_c, 6, 62, 82
7, 228936, Note_on_c, 6, 67, 62
7, 229064, Note_on_c, 6, 67, 0
7, 229064, Note_on_c, 6, 62, 0
7, 229064, Note_on_c, 6, 63, 0
7, 229320, Note_on_c, 6, 63, 14
7, 229320, Note_on_c, 6, 62, 24
7, 229320, Note_on_c, 6, 67, 16
7, 229448, Note_on_c, 6, 67, 0
7, 229448, Note_on_c, 6, 62, 0
7, 229448, Note_on_c, 6, 63, 0
7, 229704, Note_on_c, 6, 63, 50
7, 229704, Note_on_c, 6, 62, 70
7, 229704, Note_on_c, 6, 67, 58
7, 229832, Note_on_c, 6, 67, 0
7, 229832, Note_on_c, 6, 62, 0
7, 229832, Note_on_c, 6, 63, 0
7, 230088, Note_on_c, 6, 60, 37
7, 230088, Note_on_c, 6, 70, 30
7, 230088, Note_on_c, 6, 66, 26
7, 230216, Note_on_c, 6, 66, 0
7, 230216, Note_on_c, 6, 70, 0
7, 230216, Note_on_c, 6, 60, 0
7, 230472, Note_on_c, 6, 70, 70
7, 230472, Note_on_c, 6, 66, 60
7, 230472, Note_on_c, 6, 60, 76
7, 230600, Note_on_c, 6, 60, 0
7, 230600, Note_on_c, 6, 66, 0
7, 230600, Note_on_c, 6, 70, 0
7, 230856, Note_on_c, 6, 70, 28
7, 230856, Note_on_c, 6, 66, 25
7, 230856, Note_on_c, 6, 60, 20
7, 230984, Note_on_c, 6, 60, 0
7, 230984, Note_on_c, 6, 66, 0
7, 230984, Note_on_c, 6, 70, 0
7, 231240, Note_on_c, 6, 70, 67
7, 231240, Note_on_c, 6, 66, 62
7, 231240, Note_on_c, 6, 60, 74
7, 231368, Note_on_c, 6, 60, 0
7, 231368, Note_on_c, 6, 66, 0
7, 231368, Note_on_c, 6, 70, 0
7, 231496, Note_on_c, 6, 69, 82
7, 231496, Note_on_c, 6, 65, 82
7, 231496, Note_on_c, 6, 60, 86
7, 231496, Note_on_c, 6, 60, 0
7, 231880, Note_on_c, 6, 65, 0
7, 231880, Note_on_c, 6, 69, 0
7, 232008, Note_on_c, 6, 65, 48
7, 232008, Note_on_c, 6, 69, 35
7, 232136, Note_on_c, 6, 65, 0
7, 232264, Note_on_c, 6, 69, 0
7, 232392, Note_on_c, 6, 65, 49
7, 232392, Note_on_c, 6, 69, 58
7, 232640, Note_on_c, 6, 69, 0
7, 232640, Note_on_c, 6, 65, 0
7, 232768, Note_on_c, 6, 65, 21
7, 232768, Note_on_c, 6, 62, 28
7, 232896, Note_on_c, 6, 62, 0
7, 232896, Note_on_c, 6, 65, 0
7, 233152, Note_on_c, 6, 57, 25
7, 233152, Note_on_c, 6, 57, 0
7, 233152, Note_on_c, 6, 62, 29
7, 233152, Note_on_c, 6, 58, 17
7, 233280, Note_on_c, 6, 62, 0
7, 233408, Note_on_c, 6, 58, 0
7, 233536, Note_on_c, 6, 58, 40
7, 233536, Note_on_c, 6, 62, 44
7, 233536, Note_on_c, 6, 57, 52
7, 233664, Note_on_c, 6, 57, 0
7, 233664, Note_on_c, 6, 62, 0
7, 233792, Note_on_c, 6, 58, 0
7, 233920, Note_on_c, 6, 62, 23
7, 233920, Note_on_c, 6, 58, 12
7, 233920, Note_on_c, 6, 57, 12
7, 234048, Note_on_c, 6, 57, 0
7, 234048, Note_on_c, 6, 62, 0
7, 234176, Note_on_c, 6, 58, 0
7, 234304, Note_on_c, 6, 58, 32
7, 234304, Note_on_c, 6, 62, 50
7, 234304, Note_on_c, 6, 57, 54
7, 234432, Note_on_c, 6, 57, 0
7, 234432, Note_on_c, 6, 62, 0
7, 234432, Note_on_c, 6, 58, 0
7, 234688, Note_on_c, 6, 63, 21
7, 234688, Note_on_c, 6, 62, 32
7, 234688, Note_on_c, 6, 67, 21
7, 234816, Note_on_c, 6, 67, 0
7, 234816, Note_on_c, 6, 62, 0
7, 234816, Note_on_c, 6, 63, 0
7, 235072, Note_on_c, 6, 63, 61
7, 235072, Note_on_c, 6, 62, 89
7, 235072, Note_on_c, 6, 67, 76
7, 235200, Note_on_c, 6, 67, 0
7, 235200, Note_on_c, 6, 62, 0
7, 235200, Note_on_c, 6, 63, 0
7, 235456, Note_on_c, 6, 63, 14
7, 235456, Note_on_c, 6, 62, 22
7, 235456, Note_on_c, 6, 67, 22
7, 235712, Note_on_c, 6, 67, 0
7, 235712, Note_on_c, 6, 62, 0
7, 235712, Note_on_c, 6, 63, 0
7, 235840, Note_on_c, 6, 63, 28
7, 235840, Note_on_c, 6, 63, 0
7, 235840, Note_on_c, 6, 67, 29
7, 235840, Note_on_c, 6, 67, 0
7, 235840, Note_on_c, 6, 62, 33
7, 235840, Note_on_c, 6, 62, 0
7, 236096, Note_on_c, 6, 70, 67
7, 236096, Note_on_c, 6, 65, 76
7, 236096, Note_on_c, 6, 60, 67
7, 236480, Note_on_c, 6, 60, 0
7, 236480, Note_on_c, 6, 65, 0
7, 236608, Note_on_c, 6, 70, 0
7, 236608, Note_on_c, 6, 60, 31
7, 236608, Note_on_c, 6, 68, 30
7, 236608, Note_on_c, 6, 65, 25
7, 236736, Note_on_c, 6, 65, 0
7, 236864, Note_on_c, 6, 68, 0
7, 236864, Note_on_c, 6, 60, 0
7, 236992, Note_on_c, 6, 69, 33
7, 236992, Note_on_c, 6, 60, 21
7, 236992, Note_on_c, 6, 66, 24
7, 237120, Note_on_c, 6, 66, 0
7, 237120, Note_on_c, 6, 60, 0
7, 237120, Note_on_c, 6, 69, 0
7, 237376, Note_on_c, 6, 66, 62
7, 237376, Note_on_c, 6, 60, 57
7, 237504, Note_on_c, 6, 60, 0
7, 237504, Note_on_c, 6, 66, 0
7, 237760, Note_on_c, 6, 53, 25
7, 237760, Note_on_c, 6, 53, 0
7, 237760, Note_on_c, 6, 60, 28
7, 237760, Note_on_c, 6, 57, 23
7, 237888, Note_on_c, 6, 57, 0
7, 237888, Note_on_c, 6, 60, 0
7, 238144, Note_on_c, 6, 60, 47
7, 238144, Note_on_c, 6, 53, 44
7, 238144, Note_on_c, 6, 57, 36
7, 238264, Note_on_c, 6, 57, 0
7, 238264, Note_on_c, 6, 53, 0
7, 238264, Note_on_c, 6, 60, 0
7, 238520, Note_on_c, 6, 53, 26
7, 238520, Note_on_c, 6, 60, 36
7, 238520, Note_on_c, 6, 57, 22
7, 238648, Note_on_c, 6, 60, 0
7, 238648, Note_on_c, 6, 53, 0
7, 238776, Note_on_c, 6, 57, 0
7, 238904, Note_on_c, 6, 60, 41
7, 238904, Note_on_c, 6, 53, 26
7, 238904, Note_on_c, 6, 57, 21
7, 238904, Note_on_c, 6, 57, 0
7, 239032, Note_on_c, 6, 53, 0
7, 239032, Note_on_c, 6, 60, 0
7, 239160, Note_on_c, 6, 64, 63
7, 239160, Note_on_c, 6, 58, 56
7, 239160, Note_on_c, 6, 55, 67
7, 239160, Note_on_c, 6, 60, 64
7, 239544, Note_on_c, 6, 60, 0
7, 239544, Note_on_c, 6, 55, 0
7, 239544, Note_on_c, 6, 64, 0
7, 239672, Note_on_c, 6, 58, 0
7, 239672, Note_on_c, 6, 64, 29
7, 239672, Note_on_c, 6, 55, 32
7, 239672, Note_on_c, 6, 58, 13
7, 239672, Note_on_c, 6, 60, 32
7, 239672, Note_on_c, 6, 60, 0
7, 239800, Note_on_c, 6, 55, 0
7, 239800, Note_on_c, 6, 64, 0
7, 239928, Note_on_c, 6, 58, 0
7, 240056, Note_on_c, 6, 65, 21
7, 240056, Note_on_c, 6, 58, 18
7, 240056, Note_on_c, 6, 57, 17
7, 240056, Note_on_c, 6, 62, 26
7, 240184, Note_on_c, 6, 62, 0
7, 240184, Note_on_c, 6, 57, 0
7, 240184, Note_on_c, 6, 65, 0
7, 240184, Note_on_c, 6, 58, 0
7, 240440, Note_on_c, 6, 64, 38
7, 240440, Note_on_c, 6, 58, 31
7, 240440, Note_on_c, 6, 55, 28
7, 240440, Note_on_c, 6, 60, 31
7, 240568, Note_on_c, 6, 60, 0
7, 240568, Note_on_c, 6, 55, 0
7, 240568, Note_on_c, 6, 64, 0
7, 240696, Note_on_c, 6, 58, 0
7, 240824, Note_on_c, 6, 63, 24
7, 240824, Note_on_c, 6, 62, 37
7, 240824, Note_on_c, 6, 55, 19
7, 240952, Note_on_c, 6, 55, 0
7, 240952, Note_on_c, 6, 62, 0
7, 240952, Note_on_c, 6, 63, 0
7, 241208, Note_on_c, 6, 63, 63
7, 241208, Note_on_c, 6, 62, 86
7, 241208, Note_on_c, 6, 55, 80
7, 241336, Note_on_c, 6, 55, 0
7, 241336, Note_on_c, 6, 62, 0
7, 241336, Note_on_c, 6, 63, 0
7, 241592, Note_on_c, 6, 63, 31
7, 241592, Note_on_c, 6, 60, 33
7, 241592, Note_on_c, 6, 55, 30
7, 241720, Note_on_c, 6, 55, 0
7, 241720, Note_on_c, 6, 63, 0
7, 241848, Note_on_c, 6, 60, 0
7, 241976, Note_on_c, 6, 63, 27
7, 241976, Note_on_c, 6, 55, 28
7, 241976, Note_on_c, 6, 60, 28
7, 242104, Note_on_c, 6, 60, 0
7, 242104, Note_on_c, 6, 55, 0
7, 242104, Note_on_c, 6, 63, 0
7, 242232, Note_on_c, 6, 63, 70
7, 242232, Note_on_c, 6, 54, 84
7, 242232, Note_on_c, 6, 58, 57
7, 242616, Note_on_c, 6, 54, 0
7, 242616, Note_on_c, 6, 63, 0
7, 242616, Note_on_c, 6, 58, 0
7, 242744, Note_on_c, 6, 63, 44
7, 242744, Note_on_c, 6, 54, 33
7, 242744, Note_on_c, 6, 58, 16
7, 242872, Note_on_c, 6, 54, 0
7, 242872, Note_on_c, 6, 58, 0
7, 243000, Note_on_c, 6, 63, 0
7, 243000, Note_on_c, 6, 54, 76
7, 243000, Note_on_c, 6, 58, 28
7, 243000, Note_on_c, 6, 62, 76
7, 243384, Note_on_c, 6, 62, 0
7, 243384, Note_on_c, 6, 54, 0
7, 243384, Note_on_c, 6, 58, 0
7, 243512, Note_on_c, 6, 54, 26
7, 243512, Note_on_c, 6, 58, 14
7, 243640, Note_on_c, 6, 54, 0
7, 243768, Note_on_c, 6, 58, 0
7, 243896, Note_on_c, 6, 57, 28
7, 243896, Note_on_c, 6, 57, 0
7, 243896, Note_on_c, 6, 58, 13
7, 243896, Note_on_c, 6, 62, 28
7, 244024, Note_on_c, 6, 62, 0
7, 244144, Note_on_c, 6, 58, 0
7, 244272, Note_on_c, 6, 58, 18
7, 244272, Note_on_c, 6, 62, 28
7, 244272, Note_on_c, 6, 57, 23
7, 244400, Note_on_c, 6, 57, 0
7, 244400, Note_on_c, 6, 62, 0
7, 244528, Note_on_c, 6, 58, 0
7, 244656, Note_on_c, 6, 57, 23
7, 244656, Note_on_c, 6, 58, 14
7, 244656, Note_on_c, 6, 62, 26
7, 244784, Note_on_c, 6, 62, 0
7, 244784, Note_on_c, 6, 57, 0
7, 244912, Note_on_c, 6, 58, 0
7, 245040, Note_on_c, 6, 62, 28
7, 245040, Note_on_c, 6, 57, 23
7, 245040, Note_on_c, 6, 58, 20
7, 245168, Note_on_c, 6, 57, 0
7, 245168, Note_on_c, 6, 62, 0
7, 245168, Note_on_c, 6, 58, 0
7, 245424, Note_on_c, 6, 62, 28
7, 245424, Note_on_c, 6, 58, 21
7, 245424, Note_on_c, 6, 57, 17
7, 245552, Note_on_c, 6, 57, 0
7, 245552, Note_on_c, 6, 62, 0
7, 245552, Note_on_c, 6, 58, 0
7, 245808, Note_on_c, 6, 62, 37
7, 245808, Note_on_c, 6, 57, 27
7, 245808, Note_on_c, 6, 58, 23
7, 245936, Note_on_c, 6, 57, 0
7, 245936, Note_on_c, 6, 62, 0
7, 245936, Note_on_c, 6, 58, 0
7, 246192, Note_on_c, 6, 62, 35
7, 246192, Note_on_c, 6, 58, 18
7, 246192, Note_on_c, 6, 57, 22
7, 246320, Note_on_c, 6, 57, 0
7, 246320, Note_on_c, 6, 62, 0
7, 246448, Note_on_c, 6, 58, 0
7, 246576, Note_on_c, 6, 62, 38
7, 246576, Note_on_c, 6, 58, 20
7, 246576, Note_on_c, 6, 57, 28
7, 246704, Note_on_c, 6, 57, 0
7, 246704, Note_on_c, 6, 62, 0
7, 246704, Note_on_c, 6, 58, 0
7, 256176, Control_c, 6, 123, 0
7, 257104, Note_on_c, 6, 58, 0
7, 257104, Note_on_c, 6, 64, 0
7, 257104, Note_on_c, 6, 64, 0
7, 257104, Note_on_c, 6, 58, 0
7, 257104, Note_on_c, 6, 58, 0
7, 257104, Note_on_c, 6, 64, 0
7, 257104, MIDI_port, 0
7, 257104, System_exclusive, 8, 67, 115, 1, 17, 2, 87, 127, 247
7, 257104, System_exclusive, 8, 67, 115, 1, 17, 4, 87, 127, 247
7, 257104, System_exclusive, 8, 67, 115, 1, 17, 8, 87, 127, 247
7, 257104, System_exclusive, 8, 67, 115, 1, 17, 9, 87, 127, 247
7, 257104, System_exclusive, 8, 67, 115, 1, 17, 14, 87, 127, 247
7, 257104, MIDI_port, 0
7, 257104, MIDI_port, 0
7, 257104, System_exclusive, 8, 67, 115, 1, 17, 2, 87, 127, 247
7, 257104, System_exclusive, 8, 67, 115, 1, 17, 4, 87, 127, 247
7, 257104, System_exclusive, 8, 67, 115, 1, 17, 8, 87, 127, 247
7, 257104, System_exclusive, 8, 67, 115, 1, 17, 9, 87, 127, 247
7, 257104, System_exclusive, 8, 67, 115, 1, 17, 14, 87, 127, 247
7, 257104, MIDI_port, 0
7, 257104, End_track
8, 0, Start_track
8, 0, MIDI_port, 1
8, 0, Program_c, 8, 82
8, 0, Control_c, 8, 7, 58
8, 0, Control_c, 8, 11, 127
8, 0, Control_c, 8, 64, 0
8, 0, Control_c, 8, 67, 0
8, 0, Pitch_bend_c, 8, 8192
8, 1536, Note_on_c, 8, 80, 15
8, 1920, Note_on_c, 8, 75, 15
8, 2304, Note_on_c, 8, 70, 24
8, 4216, Note_on_c, 8, 70, 0
8, 4216, Note_on_c, 8, 80, 0
8, 4344, Note_on_c, 8, 75, 0
8, 4600, Note_on_c, 8, 79, 20
8, 4984, Note_on_c, 8, 74, 39
8, 5368, Note_on_c, 8, 69, 28
8, 7416, Note_on_c, 8, 69, 0
8, 7416, Note_on_c, 8, 74, 0
8, 7416, Note_on_c, 8, 79, 0
8, 7672, Note_on_c, 8, 80, 15
8, 8056, Note_on_c, 8, 75, 15
8, 8440, Note_on_c, 8, 70, 24
8, 10352, Note_on_c, 8, 70, 0
8, 10352, Note_on_c, 8, 80, 0
8, 10480, Note_on_c, 8, 75, 0
8, 10736, Note_on_c, 8, 79, 20
8, 11120, Note_on_c, 8, 74, 39
8, 11504, Note_on_c, 8, 69, 28
8, 13552, Note_on_c, 8, 69, 0
8, 13552, Note_on_c, 8, 74, 0
8, 13552, Note_on_c, 8, 79, 0
8, 62896, Note_on_c, 8, 85, 25
8, 63016, Note_on_c, 8, 75, 20
8, 63016, Note_on_c, 8, 80, 18
8, 65704, Note_on_c, 8, 80, 0
8, 65704, Note_on_c, 8, 75, 0
8, 65704, Note_on_c, 8, 85, 0
8, 65960, Note_on_c, 8, 84, 23
8, 65960, Note_on_c, 8, 74, 15
8, 65960, Note_on_c, 8, 67, 16
8, 65960, Note_on_c, 8, 79, 17
8, 67872, Note_on_c, 8, 84, 0
8, 67872, Note_on_c, 8, 82, 23
8, 68000, Note_on_c, 8, 82, 0
8, 68000, Note_on_c, 8, 79, 0
8, 68256, Note_on_c, 8, 84, 20
8, 68256, Note_on_c, 8, 79, 10
8, 68512, Note_on_c, 8, 84, 0
8, 68640, Note_on_c, 8, 67, 0
8, 68640, Note_on_c, 8, 82, 17
8, 68768, Note_on_c, 8, 74, 0
8, 68768, Note_on_c, 8, 79, 0
8, 69024, Note_on_c, 8, 82, 0
8, 69024, Note_on_c, 8, 85, 16
8, 69024, Note_on_c, 8, 75, 14
8, 69024, Note_on_c, 8, 80, 18
8, 69024, Note_on_c, 8, 71, 16
8, 71712, Note_on_c, 8, 71, 0
8, 71840, Note_on_c, 8, 85, 0
8, 71840, Note_on_c, 8, 75, 0
8, 71840, Note_on_c, 8, 80, 0
8, 72096, Note_on_c, 8, 84, 16
8, 72096, Note_on_c, 8, 74, 12
8, 72096, Note_on_c, 8, 79, 16
8, 72096, Note_on_c, 8, 67, 15
8, 73240, Note_on_c, 8, 79, 0
8, 73240, Note_on_c, 8, 84, 0
8, 73240, Note_on_c, 8, 74, 0
8, 73624, Note_on_c, 8, 67, 0
8, 73624, Note_on_c, 8, 82, 20
8, 73624, Note_on_c, 8, 77, 23
8, 73624, Note_on_c, 8, 72, 13
8, 73624, Note_on_c, 8, 65, 16
8, 75032, Note_on_c, 8, 72, 0
8, 75032, Note_on_c, 8, 82, 0
8, 75032, Note_on_c, 8, 77, 0
8, 75160, Note_on_c, 8, 65, 0
8, 75160, Note_on_c, 8, 63, 17
8, 75160, Note_on_c, 8, 79, 16
8, 75160, Note_on_c, 8, 74, 15
8, 75160, Note_on_c, 8, 69, 13
8, 76440, Note_on_c, 8, 69, 0
8, 76696, Note_on_c, 8, 70, 13
8, 77976, Note_on_c, 8, 70, 0
8, 77976, Note_on_c, 8, 74, 0
8, 77976, Note_on_c, 8, 79, 0
8, 78232, Note_on_c, 8, 63, 0
8, 78232, Note_on_c, 8, 62, 24
8, 78232, Note_on_c, 8, 77, 23
8, 78232, Note_on_c, 8, 72, 25
8, 79760, Note_on_c, 8, 77, 0
8, 79760, Note_on_c, 8, 75, 17
8, 80912, Note_on_c, 8, 75, 0
8, 80912, Note_on_c, 8, 72, 0
8, 81296, Note_on_c, 8, 62, 0
8, 81296, Note_on_c, 8, 70, 16
8, 81296, Note_on_c, 8, 69, 18
8, 81296, Note_on_c, 8, 67, 14
8, 81936, Note_on_c, 8, 70, 0
8, 81936, Note_on_c, 8, 72, 25
8, 82832, Note_on_c, 8, 72, 0
8, 82832, Note_on_c, 8, 70, 28
8, 82832, Note_on_c, 8, 74, 23
8, 83344, Note_on_c, 8, 69, 0
8, 83472, Note_on_c, 8, 74, 0
8, 83472, Note_on_c, 8, 69, 18
8, 83472, Note_on_c, 8, 72, 28
8, 83600, Note_on_c, 8, 70, 0
8, 83984, Note_on_c, 8, 67, 0
8, 84232, Note_on_c, 8, 69, 0
8, 84360, Note_on_c, 8, 72, 0
8, 84360, Note_on_c, 8, 70, 19
8, 84360, Note_on_c, 8, 65, 26
8, 84360, Note_on_c, 8, 72, 30
8, 84360, Note_on_c, 8, 60, 16
8, 85384, Note_on_c, 8, 65, 0
8, 85512, Note_on_c, 8, 65, 23
8, 85640, Note_on_c, 8, 65, 0
8, 85896, Note_on_c, 8, 64, 21
8, 87048, Note_on_c, 8, 64, 0
8, 87176, Note_on_c, 8, 70, 0
8, 87176, Note_on_c, 8, 72, 0
8, 87176, Note_on_c, 8, 60, 0
8, 87432, Note_on_c, 8, 75, 38
8, 87432, Note_on_c, 8, 60, 43
8, 88968, Note_on_c, 8, 60, 0
8, 88968, Note_on_c, 8, 75, 0
8, 88968, Note_on_c, 8, 77, 46
8, 88968, Note_on_c, 8, 58, 39
8, 89736, Note_on_c, 8, 58, 0
8, 89736, Note_on_c, 8, 57, 49
8, 90496, Note_on_c, 8, 77, 0
8, 90632, Note_on_c, 8, 57, 0
8, 90632, Note_on_c, 8, 72, 40
8, 90632, Note_on_c, 8, 55, 23
8, 91264, Note_on_c, 8, 70, 36
8, 91392, Note_on_c, 8, 72, 0
8, 92032, Note_on_c, 8, 55, 0
8, 92032, Note_on_c, 8, 53, 49
8, 92800, Note_on_c, 8, 53, 0
8, 92800, Note_on_c, 8, 52, 43
8, 93440, Note_on_c, 8, 52, 0
8, 93440, Note_on_c, 8, 70, 0
8, 93568, Note_on_c, 8, 75, 38
8, 93568, Note_on_c, 8, 60, 43
8, 95104, Note_on_c, 8, 60, 0
8, 95104, Note_on_c, 8, 75, 0
8, 95104, Note_on_c, 8, 77, 46
8, 95104, Note_on_c, 8, 58, 39
8, 95872, Note_on_c, 8, 58, 0
8, 95872, Note_on_c, 8, 57, 49
8, 96632, Note_on_c, 8, 77, 0
8, 96760, Note_on_c, 8, 57, 0
8, 96760, Note_on_c, 8, 72, 40
8, 96760, Note_on_c, 8, 55, 23
8, 97400, Note_on_c, 8, 70, 36
8, 97528, Note_on_c, 8, 72, 0
8, 98168, Note_on_c, 8, 55, 0
8, 98168, Note_on_c, 8, 53, 49
8, 98936, Note_on_c, 8, 53, 0
8, 98936, Note_on_c, 8, 52, 43
8, 99576, Note_on_c, 8, 52, 0
8, 99576, Note_on_c, 8, 70, 0
8, 99704, Note_on_c, 8, 75, 38
8, 99704, Note_on_c, 8, 60, 43
8, 101240, Note_on_c, 8, 60, 0
8, 101240, Note_on_c, 8, 75, 0
8, 101240, Note_on_c, 8, 77, 46
8, 101240, Note_on_c, 8, 58, 39
8, 102000, Note_on_c, 8, 58, 0
8, 102000, Note_on_c, 8, 57, 49
8, 102768, Note_on_c, 8, 77, 0
8, 102896, Note_on_c, 8, 57, 0
8, 102896, Note_on_c, 8, 72, 40
8, 102896, Note_on_c, 8, 55, 23
8, 103536, Note_on_c, 8, 70, 36
8, 103664, Note_on_c, 8, 72, 0
8, 104304, Note_on_c, 8, 55, 0
8, 104304, Note_on_c, 8, 53, 49
8, 105072, Note_on_c, 8, 53, 0
8, 105072, Note_on_c, 8, 52, 43
8, 105712, Note_on_c, 8, 52, 0
8, 105712, Note_on_c, 8, 70, 0
8, 105840, Note_on_c, 8, 75, 38
8, 105840, Note_on_c, 8, 60, 43
8, 107376, Note_on_c, 8, 60, 0
8, 107376, Note_on_c, 8, 75, 0
8, 107376, Note_on_c, 8, 77, 46
8, 107376, Note_on_c, 8, 58, 39
8, 108144, Note_on_c, 8, 58, 0
8, 108144, Note_on_c, 8, 57, 49
8, 108904, Note_on_c, 8, 77, 0
8, 109032, Note_on_c, 8, 57, 0
8, 109032, Note_on_c, 8, 72, 40
8, 109032, Note_on_c, 8, 55, 23
8, 109672, Note_on_c, 8, 70, 36
8, 109800, Note_on_c, 8, 72, 0
8, 110440, Note_on_c, 8, 55, 0
8, 110440, Note_on_c, 8, 53, 49
8, 111208, Note_on_c, 8, 53, 0
8, 111208, Note_on_c, 8, 52, 43
8, 111848, Note_on_c, 8, 52, 0
8, 111848, Note_on_c, 8, 70, 0
8, 136520, Note_on_c, 8, 75, 38
8, 136520, Note_on_c, 8, 60, 43
8, 138048, Note_on_c, 8, 60, 0
8, 138048, Note_on_c, 8, 75, 0
8, 138048, Note_on_c, 8, 77, 46
8, 138048, Note_on_c, 8, 58, 39
8, 138816, Note_on_c, 8, 58, 0
8, 138816, Note_on_c, 8, 57, 49
8, 139584, Note_on_c, 8, 77, 0
8, 139712, Note_on_c, 8, 57, 0
8, 139712, Note_on_c, 8, 72, 40
8, 139712, Note_on_c, 8, 55, 23
8, 140352, Note_on_c, 8, 70, 36
8, 140480, Note_on_c, 8, 72, 0
8, 141120, Note_on_c, 8, 55, 0
8, 141120, Note_on_c, 8, 53, 49
8, 141888, Note_on_c, 8, 53, 0
8, 141888, Note_on_c, 8, 52, 43
8, 142528, Note_on_c, 8, 52, 0
8, 142528, Note_on_c, 8, 70, 0
8, 142656, Note_on_c, 8, 75, 38
8, 142656, Note_on_c, 8, 60, 43
8, 144184, Note_on_c, 8, 60, 0
8, 144184, Note_on_c, 8, 75, 0
8, 144184, Note_on_c, 8, 77, 46
8, 144184, Note_on_c, 8, 58, 39
8, 144952, Note_on_c, 8, 58, 0
8, 144952, Note_on_c, 8, 57, 49
8, 145720, Note_on_c, 8, 77, 0
8, 145848, Note_on_c, 8, 57, 0
8, 145848, Note_on_c, 8, 72, 40
8, 145848, Note_on_c, 8, 55, 23
8, 146488, Note_on_c, 8, 70, 36
8, 146616, Note_on_c, 8, 72, 0
8, 147256, Note_on_c, 8, 55, 0
8, 147256, Note_on_c, 8, 53, 49
8, 148024, Note_on_c, 8, 53, 0
8, 148024, Note_on_c, 8, 52, 43
8, 148664, Note_on_c, 8, 52, 0
8, 148664, Note_on_c, 8, 70, 0
8, 148792, Note_on_c, 8, 75, 38
8, 148792, Note_on_c, 8, 60, 43
8, 150320, Note_on_c, 8, 60, 0
8, 150320, Note_on_c, 8, 75, 0
8, 150320, Note_on_c, 8, 77, 46
8, 150320, Note_on_c, 8, 58, 39
8, 151088, Note_on_c, 8, 58, 0
8, 151088, Note_on_c, 8, 57, 49
8, 151856, Note_on_c, 8, 77, 0
8, 151984, Note_on_c, 8, 57, 0
8, 151984, Note_on_c, 8, 72, 40
8, 151984, Note_on_c, 8, 55, 23
8, 152624, Note_on_c, 8, 70, 36
8, 152752, Note_on_c, 8, 72, 0
8, 153392, Note_on_c, 8, 55, 0
8, 153392, Note_on_c, 8, 53, 49
8, 154160, Note_on_c, 8, 53, 0
8, 154160, Note_on_c, 8, 52, 43
8, 154792, Note_on_c, 8, 52, 0
8, 154792, Note_on_c, 8, 70, 0
8, 154920, Note_on_c, 8, 75, 38
8, 154920, Note_on_c, 8, 60, 43
8, 156456, Note_on_c, 8, 60, 0
8, 156456, Note_on_c, 8, 75, 0
8, 156456, Note_on_c, 8, 77, 46
8, 156456, Note_on_c, 8, 58, 39
8, 157224, Note_on_c, 8, 58, 0
8, 157224, Note_on_c, 8, 57, 49
8, 157992, Note_on_c, 8, 77, 0
8, 158120, Note_on_c, 8, 57, 0
8, 158120, Note_on_c, 8, 72, 40
8, 158120, Note_on_c, 8, 55, 23
8, 158760, Note_on_c, 8, 70, 36
8, 158888, Note_on_c, 8, 72, 0
8, 159528, Note_on_c, 8, 55, 0
8, 159528, Note_on_c, 8, 53, 49
8, 160296, Note_on_c, 8, 53, 0
8, 160296, Note_on_c, 8, 52, 43
8, 160936, Note_on_c, 8, 52, 0
8, 160936, Note_on_c, 8, 70, 0
8, 197880, Note_on_c, 8, 75, 18
8, 197880, Note_on_c, 8, 67, 22
8, 197880, Note_on_c, 8, 74, 37
8, 199280, Note_on_c, 8, 67, 0
8, 199408, Note_on_c, 8, 74, 0
8, 199408, Note_on_c, 8, 66, 35
8, 199408, Note_on_c, 8, 72, 30
8, 200816, Note_on_c, 8, 72, 0
8, 200816, Note_on_c, 8, 66, 0
8, 200944, Note_on_c, 8, 75, 0
8, 200944, Note_on_c, 8, 74, 44
8, 200944, Note_on_c, 8, 65, 20
8, 200944, Note_on_c, 8, 72, 21
8, 201712, Note_on_c, 8, 70, 22
8, 202600, Note_on_c, 8, 65, 0
8, 202856, Note_on_c, 8, 64, 50
8, 202984, Note_on_c, 8, 72, 0
8, 203752, Note_on_c, 8, 64, 0
8, 203880, Note_on_c, 8, 74, 0
8, 204008, Note_on_c, 8, 70, 0
8, 204008, Note_on_c, 8, 74, 24
8, 204008, Note_on_c, 8, 75, 20
8, 204008, Note_on_c, 8, 67, 31
8, 205288, Note_on_c, 8, 67, 0
8, 205544, Note_on_c, 8, 66, 36
8, 205544, Note_on_c, 8, 72, 18
8, 206824, Note_on_c, 8, 72, 0
8, 206824, Note_on_c, 8, 66, 0
8, 206824, Note_on_c, 8, 74, 0
8, 206952, Note_on_c, 8, 75, 0
8, 207080, Note_on_c, 8, 65, 35
8, 207080, Note_on_c, 8, 74, 32
8, 207080, Note_on_c, 8, 72, 33
8, 207848, Note_on_c, 8, 72, 0
8, 207848, Note_on_c, 8, 70, 20
8, 209760, Note_on_c, 8, 70, 0
8, 209760, Note_on_c, 8, 74, 0
8, 209760, Note_on_c, 8, 65, 0
8, 210144, Note_on_c, 8, 75, 28
8, 210144, Note_on_c, 8, 67, 32
8, 210144, Note_on_c, 8, 74, 38
8, 211424, Note_on_c, 8, 74, 0
8, 211424, Note_on_c, 8, 67, 0
8, 211424, Note_on_c, 8, 75, 0
8, 211680, Note_on_c, 8, 66, 39
8, 211680, Note_on_c, 8, 77, 37
8, 211680, Note_on_c, 8, 72, 36
8, 212448, Note_on_c, 8, 77, 0
8, 212448, Note_on_c, 8, 75, 16
8, 213216, Note_on_c, 8, 75, 0
8, 213216, Note_on_c, 8, 72, 0
8, 213216, Note_on_c, 8, 70, 21
8, 213216, Note_on_c, 8, 74, 34
8, 213984, Note_on_c, 8, 66, 0
8, 213984, Note_on_c, 8, 65, 16
8, 214616, Note_on_c, 8, 65, 0
8, 214744, Note_on_c, 8, 64, 46
8, 215512, Note_on_c, 8, 74, 0
8, 215512, Note_on_c, 8, 72, 22
8, 216152, Note_on_c, 8, 64, 0
8, 216280, Note_on_c, 8, 72, 0
8, 216280, Note_on_c, 8, 70, 0
8, 216280, Note_on_c, 8, 74, 38
8, 216280, Note_on_c, 8, 67, 38
8, 216920, Note_on_c, 8, 74, 0
8, 217048, Note_on_c, 8, 75, 40
8, 217560, Note_on_c, 8, 67, 0
8, 217816, Note_on_c, 8, 75, 0
8, 217816, Note_on_c, 8, 72, 34
8, 217816, Note_on_c, 8, 77, 37
8, 217816, Note_on_c, 8, 66, 24
8, 218584, Note_on_c, 8, 66, 0
8, 218584, Note_on_c, 8, 77, 0
8, 218584, Note_on_c, 8, 66, 10
8, 218584, Note_on_c, 8, 75, 22
8, 219224, Note_on_c, 8, 66, 0
8, 219224, Note_on_c, 8, 72, 0
8, 219352, Note_on_c, 8, 75, 0
8, 219352, Note_on_c, 8, 74, 43
8, 219352, Note_on_c, 8, 67, 17
8, 219352, Note_on_c, 8, 70, 14
8, 219864, Note_on_c, 8, 67, 0
8, 220112, Note_on_c, 8, 70, 0
8, 220112, Note_on_c, 8, 74, 0
8, 220112, Note_on_c, 8, 65, 14
8, 220112, Note_on_c, 8, 69, 28
8, 220112, Note_on_c, 8, 72, 12
8, 220752, Note_on_c, 8, 65, 0
8, 220880, Note_on_c, 8, 69, 0
8, 220880, Note_on_c, 8, 65, 13
8, 220880, Note_on_c, 8, 70, 27
8, 221648, Note_on_c, 8, 72, 0
8, 222160, Note_on_c, 8, 70, 0
8, 222160, Note_on_c, 8, 65, 0
8, 222416, Note_on_c, 8, 75, 18
8, 222416, Note_on_c, 8, 67, 22
8, 222416, Note_on_c, 8, 74, 37
8, 223824, Note_on_c, 8, 67, 0
8, 223952, Note_on_c, 8, 74, 0
8, 223952, Note_on_c, 8, 66, 35
8, 223952, Note_on_c, 8, 72, 30
8, 225360, Note_on_c, 8, 72, 0
8, 225360, Note_on_c, 8, 66, 0
8, 225488, Note_on_c, 8, 75, 0
8, 225488, Note_on_c, 8, 74, 44
8, 225488, Note_on_c, 8, 65, 20
8, 225488, Note_on_c, 8, 72, 21
8, 226248, Note_on_c, 8, 70, 22
8, 227144, Note_on_c, 8, 65, 0
8, 227400, Note_on_c, 8, 64, 50
8, 227528, Note_on_c, 8, 72, 0
8, 228296, Note_on_c, 8, 64, 0
8, 228424, Note_on_c, 8, 74, 0
8, 228552, Note_on_c, 8, 70, 0
8, 228552, Note_on_c, 8, 74, 24
8, 228552, Note_on_c, 8, 75, 20
8, 228552, Note_on_c, 8, 67, 31
8, 229832, Note_on_c, 8, 67, 0
8, 230088, Note_on_c, 8, 66, 36
8, 230088, Note_on_c, 8, 72, 18
8, 231368, Note_on_c, 8, 72, 0
8, 231368, Note_on_c, 8, 66, 0
8, 231368, Note_on_c, 8, 74, 0
8, 231496, Note_on_c, 8, 75, 0
8, 231624, Note_on_c, 8, 65, 35
8, 231624, Note_on_c, 8, 74, 32
8, 231624, Note_on_c, 8, 72, 33
8, 232392, Note_on_c, 8, 72, 0
8, 232392, Note_on_c, 8, 70, 20
8, 234304, Note_on_c, 8, 70, 0
8, 234304, Note_on_c, 8, 74, 0
8, 234304, Note_on_c, 8, 65, 0
8, 234688, Note_on_c, 8, 75, 28
8, 234688, Note_on_c, 8, 67, 32
8, 234688, Note_on_c, 8, 74, 38
8, 235968, Note_on_c, 8, 74, 0
8, 235968, Note_on_c, 8, 67, 0
8, 235968, Note_on_c, 8, 75, 0
8, 236224, Note_on_c, 8, 66, 39
8, 236224, Note_on_c, 8, 77, 37
8, 236224, Note_on_c, 8, 72, 36
8, 236992, Note_on_c, 8, 77, 0
8, 236992, Note_on_c, 8, 75, 16
8, 237760, Note_on_c, 8, 75, 0
8, 237760, Note_on_c, 8, 72, 0
8, 237760, Note_on_c, 8, 70, 21
8, 237760, Note_on_c, 8, 74, 34
8, 238520, Note_on_c, 8, 66, 0
8, 238520, Note_on_c, 8, 65, 16
8, 239160, Note_on_c, 8, 65, 0
8, 239288, Note_on_c, 8, 64, 46
8, 240056, Note_on_c, 8, 74, 0
8, 240056, Note_on_c, 8, 72, 22
8, 240696, Note_on_c, 8, 64, 0
8, 240824, Note_on_c, 8, 72, 0
8, 240824, Note_on_c, 8, 70, 0
8, 240824, Note_on_c, 8, 74, 38
8, 240824, Note_on_c, 8, 67, 38
8, 241464, Note_on_c, 8, 74, 0
8, 241592, Note_on_c, 8, 75, 40
8, 242104, Note_on_c, 8, 67, 0
8, 242360, Note_on_c, 8, 75, 0
8, 242360, Note_on_c, 8, 72, 34
8, 242360, Note_on_c, 8, 77, 37
8, 242360, Note_on_c, 8, 66, 24
8, 243128, Note_on_c, 8, 66, 0
8, 243128, Note_on_c, 8, 77, 0
8, 243128, Note_on_c, 8, 66, 10
8, 243128, Note_on_c, 8, 75, 22
8, 243768, Note_on_c, 8, 66, 0
8, 243768, Note_on_c, 8, 72, 0
8, 243896, Note_on_c, 8, 75, 0
8, 243896, Note_on_c, 8, 74, 43
8, 243896, Note_on_c, 8, 67, 17
8, 243896, Note_on_c, 8, 70, 14
8, 244400, Note_on_c, 8, 67, 0
8, 244656, Note_on_c, 8, 70, 0
8, 244656, Note_on_c, 8, 74, 0
8, 244656, Note_on_c, 8, 65, 14
8, 244656, Note_on_c, 8, 69, 28
8, 244656, Note_on_c, 8, 72, 12
8, 245296, Note_on_c, 8, 65, 0
8, 245424, Note_on_c, 8, 69, 0
8, 245424, Note_on_c, 8, 65, 13
8, 245424, Note_on_c, 8, 70, 27
8, 246192, Note_on_c, 8, 72, 0
8, 246704, Note_on_c, 8, 70, 0
8, 246704, Note_on_c, 8, 65, 0
8, 256176, Control_c, 8, 123, 0
8, 256176, End_track
9, 0, Start_track
9, 0, MIDI_port, 1
9, 0, Program_c, 9, 0
9, 0, Control_c, 9, 7, 106
9, 0, Control_c, 9, 11, 127
9, 0, Control_c, 9, 64, 0
9, 0, Control_c, 9, 67, 0
9, 0, Pitch_bend_c, 9, 8192
9, 0, Note_on_c, 9, 42, 28
9, 0, Note_on_c, 9, 42, 0
9, 384, Note_on_c, 9, 42, 28
9, 384, Note_on_c, 9, 42, 0
9, 768, Note_on_c, 9, 42, 26
9, 768, Note_on_c, 9, 42, 0
9, 1152, Note_on_c, 9, 42, 28
9, 1152, Note_on_c, 9, 42, 0
9, 1536, Note_on_c, 9, 42, 45
9, 1536, Note_on_c, 9, 42, 0
9, 1920, Note_on_c, 9, 11, 93
9, 1920, Note_on_c, 9, 11, 0
9, 1920, Note_on_c, 9, 42, 68
9, 1920, Note_on_c, 9, 42, 0
9, 1939, Note_on_c, 9, 37, 107
9, 1939, Note_on_c, 9, 37, 0
9, 2304, Note_on_c, 9, 42, 34
9, 2304, Note_on_c, 9, 42, 0
9, 2688, Note_on_c, 9, 42, 75
9, 2688, Note_on_c, 9, 42, 0
9, 2707, Note_on_c, 9, 37, 117
9, 2707, Note_on_c, 9, 37, 0
9, 3072, Note_on_c, 9, 42, 40
9, 3072, Note_on_c, 9, 42, 0
9, 3448, Note_on_c, 9, 42, 73
9, 3448, Note_on_c, 9, 42, 0
9, 3448, Note_on_c, 9, 11, 93
9, 3448, Note_on_c, 9, 11, 0
9, 3467, Note_on_c, 9, 37, 107
9, 3467, Note_on_c, 9, 37, 0
9, 3832, Note_on_c, 9, 42, 53
9, 3832, Note_on_c, 9, 42, 0
9, 4235, Note_on_c, 9, 37, 117
9, 4235, Note_on_c, 9, 37, 0
9, 4235, Note_on_c, 9, 46, 109
9, 4235, Note_on_c, 9, 46, 0
9, 4600, Note_on_c, 9, 42, 45
9, 4600, Note_on_c, 9, 42, 0
9, 4984, Note_on_c, 9, 42, 68
9, 4984, Note_on_c, 9, 42, 0
9, 4984, Note_on_c, 9, 11, 93
9, 4984, Note_on_c, 9, 11, 0
9, 5003, Note_on_c, 9, 37, 107
9, 5003, Note_on_c, 9, 37, 0
9, 5368, Note_on_c, 9, 42, 34
9, 5368, Note_on_c, 9, 42, 0
9, 5752, Note_on_c, 9, 42, 75
9, 5752, Note_on_c, 9, 42, 0
9, 5771, Note_on_c, 9, 37, 117
9, 5771, Note_on_c, 9, 37, 0
9, 6136, Note_on_c, 9, 42, 40
9, 6136, Note_on_c, 9, 42, 0
9, 6520, Note_on_c, 9, 42, 73
9, 6520, Note_on_c, 9, 42, 0
9, 6520, Note_on_c, 9, 11, 93
9, 6520, Note_on_c, 9, 11, 0
9, 6539, Note_on_c, 9, 37, 107
9, 6539, Note_on_c, 9, 37, 0
9, 6904, Note_on_c, 9, 42, 53
9, 6904, Note_on_c, 9, 42, 0
9, 7307, Note_on_c, 9, 46, 109
9, 7307, Note_on_c, 9, 46, 0
9, 7307, Note_on_c, 9, 37, 117
9, 7307, Note_on_c, 9, 37, 0
9, 7672, Note_on_c, 9, 42, 45
9, 7672, Note_on_c, 9, 42, 0
9, 8056, Note_on_c, 9, 42, 68
9, 8056, Note_on_c, 9, 42, 0
9, 8056, Note_on_c, 9, 11, 93
9, 8056, Note_on_c, 9, 11, 0
9, 8075, Note_on_c, 9, 37, 107
9, 8075, Note_on_c, 9, 37, 0
9, 8440, Note_on_c, 9, 42, 34
9, 8440, Note_on_c, 9, 42, 0
9, 8816, Note_on_c, 9, 42, 75
9, 8816, Note_on_c, 9, 42, 0
9, 8835, Note_on_c, 9, 37, 117
9, 8835, Note_on_c, 9, 37, 0
9, 9200, Note_on_c, 9, 42, 40
9, 9200, Note_on_c, 9, 42, 0
9, 9584, Note_on_c, 9, 11, 93
9, 9584, Note_on_c, 9, 11, 0
9, 9584, Note_on_c, 9, 42, 73
9, 9584, Note_on_c, 9, 42, 0
9, 9603, Note_on_c, 9, 37, 107
9, 9603, Note_on_c, 9, 37, 0
9, 9968, Note_on_c, 9, 42, 53
9, 9968, Note_on_c, 9, 42, 0
9, 10371, Note_on_c, 9, 46, 109
9, 10371, Note_on_c, 9, 46, 0
9, 10371, Note_on_c, 9, 37, 117
9, 10371, Note_on_c, 9, 37, 0
9, 10736, Note_on_c, 9, 42, 45
9, 10736, Note_on_c, 9, 42, 0
9, 11120, Note_on_c, 9, 42, 68
9, 11120, Note_on_c, 9, 42, 0
9, 11120, Note_on_c, 9, 11, 93
9, 11120, Note_on_c, 9, 11, 0
9, 11139, Note_on_c, 9, 37, 107
9, 11139, Note_on_c, 9, 37, 0
9, 11504, Note_on_c, 9, 42, 34
9, 11504, Note_on_c, 9, 42, 0
9, 11888, Note_on_c, 9, 42, 75
9, 11888, Note_on_c, 9, 42, 0
9, 11907, Note_on_c, 9, 37, 117
9, 11907, Note_on_c, 9, 37, 0
9, 12272, Note_on_c, 9, 42, 40
9, 12272, Note_on_c, 9, 42, 0
9, 12656, Note_on_c, 9, 11, 93
9, 12656, Note_on_c, 9, 11, 0
9, 12656, Note_on_c, 9, 42, 73
9, 12656, Note_on_c, 9, 42, 0
9, 12675, Note_on_c, 9, 37, 107
9, 12675, Note_on_c, 9, 37, 0
9, 13040, Note_on_c, 9, 42, 53
9, 13040, Note_on_c, 9, 42, 0
9, 13443, Note_on_c, 9, 46, 109
9, 13443, Note_on_c, 9, 46, 0
9, 13443, Note_on_c, 9, 37, 117
9, 13443, Note_on_c, 9, 37, 0
9, 13687, Note_on_c, 9, 57, 91
9, 13687, Note_on_c, 9, 57, 0
9, 13808, Note_on_c, 9, 42, 59
9, 13936, Note_on_c, 9, 42, 0
9, 14184, Note_on_c, 9, 42, 33
9, 14203, Note_on_c, 9, 37, 97
9, 14203, Note_on_c, 9, 37, 0
9, 14312, Note_on_c, 9, 42, 0
9, 14576, Note_on_c, 9, 42, 38
9, 14824, Note_on_c, 9, 42, 0
9, 14952, Note_on_c, 9, 42, 93
9, 14971, Note_on_c, 9, 37, 93
9, 14971, Note_on_c, 9, 37, 0
9, 15080, Note_on_c, 9, 42, 0
9, 15336, Note_on_c, 9, 42, 36
9, 15464, Note_on_c, 9, 42, 0
9, 15720, Note_on_c, 9, 42, 57
9, 15739, Note_on_c, 9, 37, 89
9, 15739, Note_on_c, 9, 37, 0
9, 15848, Note_on_c, 9, 42, 0
9, 16104, Note_on_c, 9, 42, 38
9, 16488, Note_on_c, 9, 42, 0
9, 16488, Note_on_c, 9, 40, 125
9, 16488, Note_on_c, 9, 40, 0
9, 16507, Note_on_c, 9, 46, 71
9, 16507, Note_on_c, 9, 37, 107
9, 16507, Note_on_c, 9, 37, 0
9, 16635, Note_on_c, 9, 46, 0
9, 16872, Note_on_c, 9, 42, 38
9, 17000, Note_on_c, 9, 42, 0
9, 17256, Note_on_c, 9, 42, 37
9, 17275, Note_on_c, 9, 37, 97
9, 17275, Note_on_c, 9, 37, 0
9, 17384, Note_on_c, 9, 42, 0
9, 17640, Note_on_c, 9, 42, 50
9, 17896, Note_on_c, 9, 42, 0
9, 18024, Note_on_c, 9, 42, 51
9, 18043, Note_on_c, 9, 37, 93
9, 18043, Note_on_c, 9, 37, 0
9, 18152, Note_on_c, 9, 42, 0
9, 18408, Note_on_c, 9, 42, 51
9, 18536, Note_on_c, 9, 42, 0
9, 18792, Note_on_c, 9, 42, 46
9, 18811, Note_on_c, 9, 37, 89
9, 18811, Note_on_c, 9, 37, 0
9, 18920, Note_on_c, 9, 42, 0
9, 19048, Note_on_c, 9, 42, 85
9, 19304, Note_on_c, 9, 42, 0
9, 19432, Note_on_c, 9, 42, 34
9, 19560, Note_on_c, 9, 42, 0
9, 19560, Note_on_c, 9, 40, 125
9, 19560, Note_on_c, 9, 40, 0
9, 19560, Note_on_c, 9, 42, 70
9, 19579, Note_on_c, 9, 37, 107
9, 19579, Note_on_c, 9, 37, 0
9, 19688, Note_on_c, 9, 42, 0
9, 19944, Note_on_c, 9, 42, 65
9, 20072, Note_on_c, 9, 42, 0
9, 20328, Note_on_c, 9, 42, 36
9, 20347, Note_on_c, 9, 37, 97
9, 20347, Note_on_c, 9, 37, 0
9, 20448, Note_on_c, 9, 42, 0
9, 20576, Note_on_c, 9, 42, 89
9, 20832, Note_on_c, 9, 42, 0
9, 20960, Note_on_c, 9, 42, 28
9, 21088, Note_on_c, 9, 42, 0
9, 21088, Note_on_c, 9, 42, 60
9, 21107, Note_on_c, 9, 37, 93
9, 21107, Note_on_c, 9, 37, 0
9, 21216, Note_on_c, 9, 42, 0
9, 21472, Note_on_c, 9, 42, 54
9, 21600, Note_on_c, 9, 42, 0
9, 21856, Note_on_c, 9, 42, 53
9, 21875, Note_on_c, 9, 37, 89
9, 21875, Note_on_c, 9, 37, 0
9, 21984, Note_on_c, 9, 42, 0
9, 22240, Note_on_c, 9, 42, 52
9, 22368, Note_on_c, 9, 42, 0
9, 22624, Note_on_c, 9, 42, 56
9, 22624, Note_on_c, 9, 40, 125
9, 22624, Note_on_c, 9, 40, 0
9, 22643, Note_on_c, 9, 37, 107
9, 22643, Note_on_c, 9, 37, 0
9, 22880, Note_on_c, 9, 42, 0
9, 22899, Note_on_c, 9, 46, 73
9, 23008, Note_on_c, 9, 42, 48
9, 23027, Note_on_c, 9, 46, 0
9, 23136, Note_on_c, 9, 42, 0
9, 23392, Note_on_c, 9, 42, 56
9, 23411, Note_on_c, 9, 37, 97
9, 23411, Note_on_c, 9, 37, 0
9, 23520, Note_on_c, 9, 42, 0
9, 23776, Note_on_c, 9, 42, 57
9, 23904, Note_on_c, 9, 42, 0
9, 24160, Note_on_c, 9, 42, 55
9, 24179, Note_on_c, 9, 37, 93
9, 24179, Note_on_c, 9, 37, 0
9, 24288, Note_on_c, 9, 42, 0
9, 24544, Note_on_c, 9, 42, 56
9, 24672, Note_on_c, 9, 42, 0
9, 24928, Note_on_c, 9, 42, 57
9, 24947, Note_on_c, 9, 37, 89
9, 24947, Note_on_c, 9, 37, 0
9, 25056, Note_on_c, 9, 42, 0
9, 25184, Note_on_c, 9, 42, 101
9, 25568, Note_on_c, 9, 42, 0
9, 25688, Note_on_c, 9, 42, 55
9, 25688, Note_on_c, 9, 40, 125
9, 25688, Note_on_c, 9, 40, 0
9, 25707, Note_on_c, 9, 37, 107
9, 25707, Note_on_c, 9, 37, 0
9, 25824, Note_on_c, 9, 42, 0
9, 26072, Note_on_c, 9, 42, 59
9, 26200, Note_on_c, 9, 42, 0
9, 26456, Note_on_c, 9, 42, 33
9, 26475, Note_on_c, 9, 37, 97
9, 26475, Note_on_c, 9, 37, 0
9, 26584, Note_on_c, 9, 42, 0
9, 26840, Note_on_c, 9, 42, 38
9, 27096, Note_on_c, 9, 42, 0
9, 27224, Note_on_c, 9, 42, 93
9, 27243, Note_on_c, 9, 37, 93
9, 27243, Note_on_c, 9, 37, 0
9, 27352, Note_on_c, 9, 42, 0
9, 27608, Note_on_c, 9, 42, 36
9, 27736, Note_on_c, 9, 42, 0
9, 27992, Note_on_c, 9, 42, 57
9, 28011, Note_on_c, 9, 37, 89
9, 28011, Note_on_c, 9, 37, 0
9, 28120, Note_on_c, 9, 42, 0
9, 28376, Note_on_c, 9, 42, 38
9, 28760, Note_on_c, 9, 42, 0
9, 28760, Note_on_c, 9, 40, 125
9, 28760, Note_on_c, 9, 40, 0
9, 28779, Note_on_c, 9, 37, 107
9, 28779, Note_on_c, 9, 37, 0
9, 28779, Note_on_c, 9, 46, 71
9, 28907, Note_on_c, 9, 46, 0
9, 29144, Note_on_c, 9, 42, 38
9, 29272, Note_on_c, 9, 42, 0
9, 29528, Note_on_c, 9, 42, 37
9, 29547, Note_on_c, 9, 37, 97
9, 29547, Note_on_c, 9, 37, 0
9, 29656, Note_on_c, 9, 42, 0
9, 29912, Note_on_c, 9, 42, 50
9, 30168, Note_on_c, 9, 42, 0
9, 30296, Note_on_c, 9, 42, 51
9, 30315, Note_on_c, 9, 37, 93
9, 30315, Note_on_c, 9, 37, 0
9, 30424, Note_on_c, 9, 42, 0
9, 30680, Note_on_c, 9, 42, 51
9, 30808, Note_on_c, 9, 42, 0
9, 31064, Note_on_c, 9, 42, 46
9, 31083, Note_on_c, 9, 37, 89
9, 31083, Note_on_c, 9, 37, 0
9, 31192, Note_on_c, 9, 42, 0
9, 31320, Note_on_c, 9, 42, 85
9, 31576, Note_on_c, 9, 42, 0
9, 31696, Note_on_c, 9, 42, 34
9, 31832, Note_on_c, 9, 42, 0
9, 31832, Note_on_c, 9, 42, 70
9, 31832, Note_on_c, 9, 40, 125
9, 31832, Note_on_c, 9, 40, 0
9, 31851, Note_on_c, 9, 37, 107
9, 31851, Note_on_c, 9, 37, 0
9, 31952, Note_on_c, 9, 42, 0
9, 32208, Note_on_c, 9, 42, 65
9, 32336, Note_on_c, 9, 42, 0
9, 32592, Note_on_c, 9, 42, 36
9, 32611, Note_on_c, 9, 37, 97
9, 32611, Note_on_c, 9, 37, 0
9, 32720, Note_on_c, 9, 42, 0
9, 32848, Note_on_c, 9, 42, 89
9, 33104, Note_on_c, 9, 42, 0
9, 33232, Note_on_c, 9, 42, 28
9, 33360, Note_on_c, 9, 42, 0
9, 33360, Note_on_c, 9, 42, 60
9, 33379, Note_on_c, 9, 37, 93
9, 33379, Note_on_c, 9, 37, 0
9, 33488, Note_on_c, 9, 42, 0
9, 33744, Note_on_c, 9, 42, 54
9, 33872, Note_on_c, 9, 42, 0
9, 34128, Note_on_c, 9, 42, 53
9, 34147, Note_on_c, 9, 37, 89
9, 34147, Note_on_c, 9, 37, 0
9, 34256, Note_on_c, 9, 42, 0
9, 34512, Note_on_c, 9, 42, 52
9, 34640, Note_on_c, 9, 42, 0
9, 34896, Note_on_c, 9, 42, 56
9, 34896, Note_on_c, 9, 40, 125
9, 34896, Note_on_c, 9, 40, 0
9, 34915, Note_on_c, 9, 37, 107
9, 34915, Note_on_c, 9, 37, 0
9, 35152, Note_on_c, 9, 42, 0
9, 35171, Note_on_c, 9, 46, 73
9, 35280, Note_on_c, 9, 42, 48
9, 35299, Note_on_c, 9, 46, 0
9, 35408, Note_on_c, 9, 42, 0
9, 35664, Note_on_c, 9, 42, 56
9, 35683, Note_on_c, 9, 37, 97
9, 35683, Note_on_c, 9, 37, 0
9, 35792, Note_on_c, 9, 42, 0
9, 36048, Note_on_c, 9, 42, 57
9, 36176, Note_on_c, 9, 42, 0
9, 36432, Note_on_c, 9, 42, 55
9, 36451, Note_on_c, 9, 37, 93
9, 36451, Note_on_c, 9, 37, 0
9, 36560, Note_on_c, 9, 42, 0
9, 36816, Note_on_c, 9, 42, 56
9, 36944, Note_on_c, 9, 42, 0
9, 37200, Note_on_c, 9, 42, 57
9, 37219, Note_on_c, 9, 37, 89
9, 37219, Note_on_c, 9, 37, 0
9, 37320, Note_on_c, 9, 42, 0
9, 37456, Note_on_c, 9, 42, 101
9, 37832, Note_on_c, 9, 42, 0
9, 37960, Note_on_c, 9, 42, 55
9, 37960, Note_on_c, 9, 40, 125
9, 37960, Note_on_c, 9, 40, 0
9, 37979, Note_on_c, 9, 37, 107
9, 37979, Note_on_c, 9, 37, 0
9, 38088, Note_on_c, 9, 42, 0
9, 38352, Note_on_c, 9, 42, 65
9, 38352, Note_on_c, 9, 42, 0
9, 38728, Note_on_c, 9, 42, 69
9, 38856, Note_on_c, 9, 42, 0
9, 39112, Note_on_c, 9, 42, 61
9, 39387, Note_on_c, 9, 37, 124
9, 39387, Note_on_c, 9, 37, 0
9, 39496, Note_on_c, 9, 42, 0
9, 39515, Note_on_c, 9, 46, 69
9, 39771, Note_on_c, 9, 46, 0
9, 39880, Note_on_c, 9, 42, 62
9, 40008, Note_on_c, 9, 42, 0
9, 40264, Note_on_c, 9, 42, 63
9, 40392, Note_on_c, 9, 42, 0
9, 40648, Note_on_c, 9, 42, 66
9, 41032, Note_on_c, 9, 42, 0
9, 41051, Note_on_c, 9, 46, 72
9, 41051, Note_on_c, 9, 37, 83
9, 41051, Note_on_c, 9, 37, 0
9, 41307, Note_on_c, 9, 46, 0
9, 41416, Note_on_c, 9, 42, 73
9, 41416, Note_on_c, 9, 42, 0
9, 41800, Note_on_c, 9, 42, 70
9, 41928, Note_on_c, 9, 42, 0
9, 42056, Note_on_c, 9, 42, 71
9, 42056, Note_on_c, 9, 42, 0
9, 42184, Note_on_c, 9, 42, 64
9, 42440, Note_on_c, 9, 42, 0
9, 42568, Note_on_c, 9, 42, 72
9, 42587, Note_on_c, 9, 37, 99
9, 42587, Note_on_c, 9, 37, 0
9, 42696, Note_on_c, 9, 42, 0
9, 42824, Note_on_c, 9, 42, 73
9, 42824, Note_on_c, 9, 42, 0
9, 42952, Note_on_c, 9, 42, 68
9, 43080, Note_on_c, 9, 42, 0
9, 43080, Note_on_c, 9, 42, 67
9, 43080, Note_on_c, 9, 42, 0
9, 43200, Note_on_c, 9, 42, 91
9, 43336, Note_on_c, 9, 42, 0
9, 43336, Note_on_c, 9, 42, 71
9, 43336, Note_on_c, 9, 42, 0
9, 43456, Note_on_c, 9, 42, 67
9, 43475, Note_on_c, 9, 37, 42
9, 43475, Note_on_c, 9, 37, 0
9, 43584, Note_on_c, 9, 42, 0
9, 43584, Note_on_c, 9, 42, 99
9, 43603, Note_on_c, 9, 37, 79
9, 43603, Note_on_c, 9, 37, 0
9, 43712, Note_on_c, 9, 42, 0
9, 43712, Note_on_c, 9, 42, 76
9, 43840, Note_on_c, 9, 42, 0
9, 43840, Note_on_c, 9, 42, 81
9, 43840, Note_on_c, 9, 42, 0
9, 43859, Note_on_c, 9, 37, 57
9, 43859, Note_on_c, 9, 37, 0
9, 43968, Note_on_c, 9, 42, 85
9, 43987, Note_on_c, 9, 37, 103
9, 44096, Note_on_c, 9, 42, 0
9, 44096, Note_on_c, 9, 42, 76
9, 44096, Note_on_c, 9, 42, 0
9, 44115, Note_on_c, 9, 37, 0
9, 44224, Note_on_c, 9, 42, 72
9, 44243, Note_on_c, 9, 37, 89
9, 44352, Note_on_c, 9, 42, 0
9, 44352, Note_on_c, 9, 42, 97
9, 44352, Note_on_c, 9, 42, 0
9, 44371, Note_on_c, 9, 37, 0
9, 44480, Note_on_c, 9, 42, 75
9, 44487, Note_on_c, 9, 57, 103
9, 44487, Note_on_c, 9, 57, 0
9, 44736, Note_on_c, 9, 42, 0
9, 44864, Note_on_c, 9, 42, 71
9, 44864, Note_on_c, 9, 42, 0
9, 45120, Note_on_c, 9, 42, 70
9, 45120, Note_on_c, 9, 42, 0
9, 45504, Note_on_c, 9, 42, 65
9, 45504, Note_on_c, 9, 42, 0
9, 45632, Note_on_c, 9, 42, 76
9, 45651, Note_on_c, 9, 37, 115
9, 45651, Note_on_c, 9, 37, 0
9, 45760, Note_on_c, 9, 42, 0
9, 45888, Note_on_c, 9, 42, 66
9, 45888, Note_on_c, 9, 42, 0
9, 46016, Note_on_c, 9, 42, 70
9, 46144, Note_on_c, 9, 42, 0
9, 46400, Note_on_c, 9, 42, 74
9, 46528, Note_on_c, 9, 42, 0
9, 46656, Note_on_c, 9, 42, 59
9, 46784, Note_on_c, 9, 42, 0
9, 46784, Note_on_c, 9, 42, 77
9, 47040, Note_on_c, 9, 42, 0
9, 47168, Note_on_c, 9, 42, 81
9, 47187, Note_on_c, 9, 37, 93
9, 47187, Note_on_c, 9, 37, 0
9, 47296, Note_on_c, 9, 42, 0
9, 47552, Note_on_c, 9, 42, 74
9, 47680, Note_on_c, 9, 42, 0
9, 47936, Note_on_c, 9, 42, 86
9, 48064, Note_on_c, 9, 42, 0
9, 48192, Note_on_c, 9, 42, 67
9, 48192, Note_on_c, 9, 42, 0
9, 48320, Note_on_c, 9, 42, 80
9, 48576, Note_on_c, 9, 42, 0
9, 48704, Note_on_c, 9, 42, 81
9, 48832, Note_on_c, 9, 42, 0
9, 48960, Note_on_c, 9, 42, 74
9, 48960, Note_on_c, 9, 42, 0
9, 49088, Note_on_c, 9, 42, 63
9, 49088, Note_on_c, 9, 42, 0
9, 49208, Note_on_c, 9, 42, 60
9, 49208, Note_on_c, 9, 42, 0
9, 49344, Note_on_c, 9, 42, 92
9, 49344, Note_on_c, 9, 42, 0
9, 49472, Note_on_c, 9, 42, 71
9, 49592, Note_on_c, 9, 42, 0
9, 49592, Note_on_c, 9, 42, 85
9, 49592, Note_on_c, 9, 42, 0
9, 49611, Note_on_c, 9, 37, 40
9, 49611, Note_on_c, 9, 37, 0
9, 49720, Note_on_c, 9, 42, 87
9, 49739, Note_on_c, 9, 37, 83
9, 49739, Note_on_c, 9, 37, 0
9, 49856, Note_on_c, 9, 42, 0
9, 49856, Note_on_c, 9, 42, 81
9, 49856, Note_on_c, 9, 42, 0
9, 49976, Note_on_c, 9, 42, 65
9, 49995, Note_on_c, 9, 37, 59
9, 49995, Note_on_c, 9, 37, 0
9, 50104, Note_on_c, 9, 42, 0
9, 50104, Note_on_c, 9, 42, 103
9, 50123, Note_on_c, 9, 37, 103
9, 50123, Note_on_c, 9, 37, 0
9, 50232, Note_on_c, 9, 42, 0
9, 50232, Note_on_c, 9, 42, 70
9, 50360, Note_on_c, 9, 42, 0
9, 50360, Note_on_c, 9, 42, 84
9, 50360, Note_on_c, 9, 42, 0
9, 50379, Note_on_c, 9, 37, 77
9, 50379, Note_on_c, 9, 37, 0
9, 50488, Note_on_c, 9, 42, 74
9, 50495, Note_on_c, 9, 57, 109
9, 50507, Note_on_c, 9, 37, 38
9, 50507, Note_on_c, 9, 37, 0
9, 50616, Note_on_c, 9, 42, 0
9, 50616, Note_on_c, 9, 42, 80
9, 50623, Note_on_c, 9, 57, 0
9, 50744, Note_on_c, 9, 42, 0
9, 51000, Note_on_c, 9, 42, 81
9, 51128, Note_on_c, 9, 42, 0
9, 51384, Note_on_c, 9, 42, 70
9, 51512, Note_on_c, 9, 42, 0
9, 51768, Note_on_c, 9, 42, 76
9, 51787, Note_on_c, 9, 37, 65
9, 51787, Note_on_c, 9, 37, 0
9, 51896, Note_on_c, 9, 42, 0
9, 52024, Note_on_c, 9, 42, 60
9, 52152, Note_on_c, 9, 42, 0
9, 52152, Note_on_c, 9, 42, 80
9, 52408, Note_on_c, 9, 42, 0
9, 52536, Note_on_c, 9, 42, 77
9, 52664, Note_on_c, 9, 42, 0
9, 52920, Note_on_c, 9, 42, 74
9, 53067, Note_on_c, 9, 37, 23
9, 53067, Note_on_c, 9, 37, 0
9, 53176, Note_on_c, 9, 42, 0
9, 53195, Note_on_c, 9, 37, 58
9, 53195, Note_on_c, 9, 37, 0
9, 53304, Note_on_c, 9, 42, 88
9, 53323, Note_on_c, 9, 37, 115
9, 53323, Note_on_c, 9, 37, 0
9, 53432, Note_on_c, 9, 42, 0
9, 53560, Note_on_c, 9, 42, 65
9, 53560, Note_on_c, 9, 42, 0
9, 53688, Note_on_c, 9, 42, 78
9, 53816, Note_on_c, 9, 42, 0
9, 54072, Note_on_c, 9, 42, 81
9, 54200, Note_on_c, 9, 42, 0
9, 54456, Note_on_c, 9, 42, 83
9, 54712, Note_on_c, 9, 42, 0
9, 54712, Note_on_c, 9, 42, 66
9, 54712, Note_on_c, 9, 42, 0
9, 54840, Note_on_c, 9, 42, 85
9, 54859, Note_on_c, 9, 37, 60
9, 54960, Note_on_c, 9, 42, 0
9, 54979, Note_on_c, 9, 37, 0
9, 55107, Note_on_c, 9, 37, 99
9, 55107, Note_on_c, 9, 37, 0
9, 55216, Note_on_c, 9, 42, 81
9, 55344, Note_on_c, 9, 42, 0
9, 55600, Note_on_c, 9, 42, 84
9, 55728, Note_on_c, 9, 42, 0
9, 55856, Note_on_c, 9, 42, 70
9, 55856, Note_on_c, 9, 42, 0
9, 55984, Note_on_c, 9, 42, 84
9, 56240, Note_on_c, 9, 42, 0
9, 56368, Note_on_c, 9, 42, 88
9, 56496, Note_on_c, 9, 42, 0
9, 56624, Note_on_c, 9, 42, 64
9, 56624, Note_on_c, 9, 42, 0
9, 56752, Note_on_c, 9, 42, 80
9, 56759, Note_on_c, 9, 57, 77
9, 56759, Note_on_c, 9, 57, 0
9, 56771, Note_on_c, 9, 37, 73
9, 56771, Note_on_c, 9, 37, 0
9, 57008, Note_on_c, 9, 42, 0
9, 57136, Note_on_c, 9, 42, 79
9, 57264, Note_on_c, 9, 42, 0
9, 57392, Note_on_c, 9, 21, 89
9, 57392, Note_on_c, 9, 21, 0
9, 57520, Note_on_c, 9, 42, 78
9, 57648, Note_on_c, 9, 42, 0
9, 57776, Note_on_c, 9, 42, 62
9, 57904, Note_on_c, 9, 42, 0
9, 57904, Note_on_c, 9, 42, 85
9, 57923, Note_on_c, 9, 37, 103
9, 58051, Note_on_c, 9, 37, 0
9, 58160, Note_on_c, 9, 42, 0
9, 58288, Note_on_c, 9, 42, 71
9, 58416, Note_on_c, 9, 42, 0
9, 58672, Note_on_c, 9, 42, 87
9, 58800, Note_on_c, 9, 42, 0
9, 58928, Note_on_c, 9, 42, 60
9, 58928, Note_on_c, 9, 42, 0
9, 59056, Note_on_c, 9, 42, 84
9, 59203, Note_on_c, 9, 37, 35
9, 59203, Note_on_c, 9, 37, 0
9, 59312, Note_on_c, 9, 42, 0
9, 59331, Note_on_c, 9, 37, 87
9, 59440, Note_on_c, 9, 42, 81
9, 59459, Note_on_c, 9, 37, 0
9, 59459, Note_on_c, 9, 37, 127
9, 59568, Note_on_c, 9, 42, 0
9, 59587, Note_on_c, 9, 37, 0
9, 59696, Note_on_c, 9, 42, 60
9, 59696, Note_on_c, 9, 42, 0
9, 59824, Note_on_c, 9, 42, 80
9, 59952, Note_on_c, 9, 42, 0
9, 60208, Note_on_c, 9, 42, 87
9, 60336, Note_on_c, 9, 42, 0
9, 60464, Note_on_c, 9, 42, 59
9, 60464, Note_on_c, 9, 42, 0
9, 60592, Note_on_c, 9, 42, 84
9, 60720, Note_on_c, 9, 42, 0
9, 60976, Note_on_c, 9, 42, 85
9, 60995, Note_on_c, 9, 37, 85
9, 60995, Note_on_c, 9, 37, 0
9, 61096, Note_on_c, 9, 42, 0
9, 61352, Note_on_c, 9, 42, 77
9, 61480, Note_on_c, 9, 42, 0
9, 61736, Note_on_c, 9, 42, 81
9, 61864, Note_on_c, 9, 42, 0
9, 62120, Note_on_c, 9, 42, 82
9, 62248, Note_on_c, 9, 42, 0
9, 62504, Note_on_c, 9, 42, 78
9, 62523, Note_on_c, 9, 37, 79
9, 62523, Note_on_c, 9, 37, 0
9, 62632, Note_on_c, 9, 42, 0
9, 62767, Note_on_c, 9, 57, 71
9, 62767, Note_on_c, 9, 57, 0
9, 62896, Note_on_c, 9, 42, 59
9, 63016, Note_on_c, 9, 42, 0
9, 63272, Note_on_c, 9, 42, 33
9, 63400, Note_on_c, 9, 42, 0
9, 63656, Note_on_c, 9, 42, 38
9, 63912, Note_on_c, 9, 42, 0
9, 64040, Note_on_c, 9, 42, 93
9, 64168, Note_on_c, 9, 42, 0
9, 64424, Note_on_c, 9, 42, 36
9, 64552, Note_on_c, 9, 42, 0
9, 64808, Note_on_c, 9, 42, 57
9, 64936, Note_on_c, 9, 42, 0
9, 65192, Note_on_c, 9, 42, 38
9, 65576, Note_on_c, 9, 42, 0
9, 65595, Note_on_c, 9, 46, 71
9, 65723, Note_on_c, 9, 46, 0
9, 65960, Note_on_c, 9, 42, 38
9, 66088, Note_on_c, 9, 42, 0
9, 66344, Note_on_c, 9, 42, 37
9, 66472, Note_on_c, 9, 42, 0
9, 66720, Note_on_c, 9, 42, 50
9, 66976, Note_on_c, 9, 42, 0
9, 67112, Note_on_c, 9, 42, 51
9, 67232, Note_on_c, 9, 42, 0
9, 67488, Note_on_c, 9, 42, 51
9, 67616, Note_on_c, 9, 42, 0
9, 67872, Note_on_c, 9, 42, 46
9, 68000, Note_on_c, 9, 42, 0
9, 68128, Note_on_c, 9, 42, 85
9, 68384, Note_on_c, 9, 42, 0
9, 68512, Note_on_c, 9, 42, 34
9, 68640, Note_on_c, 9, 42, 0
9, 68640, Note_on_c, 9, 42, 70
9, 68768, Note_on_c, 9, 42, 0
9, 69024, Note_on_c, 9, 42, 65
9, 69152, Note_on_c, 9, 42, 0
9, 69408, Note_on_c, 9, 42, 36
9, 69536, Note_on_c, 9, 42, 0
9, 69664, Note_on_c, 9, 42, 89
9, 69920, Note_on_c, 9, 42, 0
9, 70048, Note_on_c, 9, 42, 28
9, 70176, Note_on_c, 9, 42, 0
9, 70176, Note_on_c, 9, 42, 60
9, 70304, Note_on_c, 9, 42, 0
9, 70560, Note_on_c, 9, 42, 54
9, 70688, Note_on_c, 9, 42, 0
9, 70944, Note_on_c, 9, 42, 53
9, 71072, Note_on_c, 9, 42, 0
9, 71328, Note_on_c, 9, 42, 52
9, 71456, Note_on_c, 9, 42, 0
9, 71712, Note_on_c, 9, 42, 56
9, 71968, Note_on_c, 9, 42, 0
9, 71987, Note_on_c, 9, 46, 73
9, 72096, Note_on_c, 9, 42, 48
9, 72115, Note_on_c, 9, 46, 0
9, 72224, Note_on_c, 9, 42, 0
9, 72472, Note_on_c, 9, 42, 56
9, 72600, Note_on_c, 9, 42, 0
9, 72856, Note_on_c, 9, 42, 57
9, 72992, Note_on_c, 9, 42, 0
9, 73240, Note_on_c, 9, 42, 55
9, 73368, Note_on_c, 9, 42, 0
9, 73624, Note_on_c, 9, 42, 56
9, 73752, Note_on_c, 9, 42, 0
9, 74008, Note_on_c, 9, 42, 57
9, 74136, Note_on_c, 9, 42, 0
9, 74264, Note_on_c, 9, 42, 101
9, 74648, Note_on_c, 9, 42, 0
9, 74776, Note_on_c, 9, 42, 55
9, 74904, Note_on_c, 9, 42, 0
9, 75160, Note_on_c, 9, 42, 59
9, 75167, Note_on_c, 9, 51, 53
9, 75288, Note_on_c, 9, 42, 0
9, 75295, Note_on_c, 9, 51, 0
9, 75544, Note_on_c, 9, 42, 33
9, 75672, Note_on_c, 9, 42, 0
9, 75928, Note_on_c, 9, 42, 38
9, 76184, Note_on_c, 9, 42, 0
9, 76312, Note_on_c, 9, 42, 93
9, 76440, Note_on_c, 9, 42, 0
9, 76696, Note_on_c, 9, 42, 36
9, 76824, Note_on_c, 9, 42, 0
9, 77080, Note_on_c, 9, 42, 57
9, 77208, Note_on_c, 9, 42, 0
9, 77464, Note_on_c, 9, 42, 38
9, 77848, Note_on_c, 9, 42, 0
9, 77867, Note_on_c, 9, 46, 71
9, 77995, Note_on_c, 9, 46, 0
9, 78232, Note_on_c, 9, 42, 38
9, 78360, Note_on_c, 9, 42, 0
9, 78608, Note_on_c, 9, 42, 37
9, 78736, Note_on_c, 9, 42, 0
9, 78992, Note_on_c, 9, 42, 50
9, 79248, Note_on_c, 9, 42, 0
9, 79376, Note_on_c, 9, 42, 51
9, 79504, Note_on_c, 9, 42, 0
9, 79760, Note_on_c, 9, 42, 51
9, 79888, Note_on_c, 9, 42, 0
9, 80144, Note_on_c, 9, 42, 46
9, 80272, Note_on_c, 9, 42, 0
9, 80400, Note_on_c, 9, 42, 85
9, 80656, Note_on_c, 9, 42, 0
9, 80784, Note_on_c, 9, 42, 34
9, 80912, Note_on_c, 9, 42, 0
9, 80912, Note_on_c, 9, 42, 70
9, 81040, Note_on_c, 9, 42, 0
9, 81296, Note_on_c, 9, 42, 65
9, 81424, Note_on_c, 9, 42, 0
9, 81680, Note_on_c, 9, 42, 36
9, 81808, Note_on_c, 9, 42, 0
9, 81936, Note_on_c, 9, 42, 89
9, 82192, Note_on_c, 9, 42, 0
9, 82320, Note_on_c, 9, 42, 28
9, 82448, Note_on_c, 9, 42, 0
9, 82448, Note_on_c, 9, 42, 60
9, 82576, Note_on_c, 9, 42, 0
9, 82832, Note_on_c, 9, 42, 54
9, 82960, Note_on_c, 9, 42, 0
9, 83216, Note_on_c, 9, 42, 53
9, 83344, Note_on_c, 9, 42, 0
9, 83600, Note_on_c, 9, 42, 52
9, 83728, Note_on_c, 9, 42, 0
9, 83984, Note_on_c, 9, 42, 56
9, 84232, Note_on_c, 9, 42, 0
9, 84251, Note_on_c, 9, 46, 73
9, 84360, Note_on_c, 9, 42, 48
9, 84367, Note_on_c, 9, 51, 30
9, 84379, Note_on_c, 9, 46, 0
9, 84488, Note_on_c, 9, 42, 0
9, 84495, Note_on_c, 9, 51, 0
9, 84744, Note_on_c, 9, 42, 56
9, 84872, Note_on_c, 9, 42, 0
9, 85007, Note_on_c, 9, 51, 36
9, 85128, Note_on_c, 9, 42, 57
9, 85256, Note_on_c, 9, 42, 0
9, 85512, Note_on_c, 9, 42, 55
9, 85519, Note_on_c, 9, 51, 0
9, 85640, Note_on_c, 9, 42, 0
9, 85896, Note_on_c, 9, 42, 56
9, 85903, Note_on_c, 9, 51, 28
9, 86024, Note_on_c, 9, 42, 0
9, 86031, Note_on_c, 9, 51, 0
9, 86280, Note_on_c, 9, 42, 57
9, 86408, Note_on_c, 9, 42, 0
9, 86536, Note_on_c, 9, 42, 101
9, 86543, Note_on_c, 9, 51, 30
9, 86920, Note_on_c, 9, 42, 0
9, 87048, Note_on_c, 9, 37, 47
9, 87048, Note_on_c, 9, 42, 55
9, 87055, Note_on_c, 9, 51, 0
9, 87176, Note_on_c, 9, 42, 0
9, 87176, Note_on_c, 9, 37, 0
9, 87432, Note_on_c, 9, 42, 30
9, 87439, Note_on_c, 9, 51, 25
9, 87560, Note_on_c, 9, 42, 0
9, 87567, Note_on_c, 9, 51, 0
9, 87688, Note_on_c, 9, 42, 27
9, 87695, Note_on_c, 9, 51, 21
9, 87816, Note_on_c, 9, 42, 0
9, 87816, Note_on_c, 9, 42, 24
9, 87823, Note_on_c, 9, 51, 0
9, 87835, Note_on_c, 9, 37, 90
9, 87944, Note_on_c, 9, 42, 0
9, 87963, Note_on_c, 9, 37, 0
9, 88072, Note_on_c, 9, 42, 40
9, 88072, Note_on_c, 9, 42, 0
9, 88079, Note_on_c, 9, 51, 36
9, 88200, Note_on_c, 9, 42, 18
9, 88200, Note_on_c, 9, 42, 0
9, 88456, Note_on_c, 9, 37, 31
9, 88456, Note_on_c, 9, 42, 42
9, 88456, Note_on_c, 9, 42, 0
9, 88463, Note_on_c, 9, 51, 0
9, 88584, Note_on_c, 9, 37, 0
9, 88584, Note_on_c, 9, 37, 13
9, 88584, Note_on_c, 9, 42, 29
9, 88584, Note_on_c, 9, 42, 0
9, 88603, Note_on_c, 9, 37, 91
9, 88712, Note_on_c, 9, 37, 0
9, 88731, Note_on_c, 9, 37, 0
9, 88840, Note_on_c, 9, 42, 38
9, 88840, Note_on_c, 9, 42, 0
9, 88847, Note_on_c, 9, 51, 40
9, 88968, Note_on_c, 9, 42, 30
9, 89096, Note_on_c, 9, 42, 0
9, 89103, Note_on_c, 9, 51, 0
9, 89224, Note_on_c, 9, 42, 27
9, 89352, Note_on_c, 9, 42, 0
9, 89352, Note_on_c, 9, 42, 24
9, 89359, Note_on_c, 9, 51, 8
9, 89371, Note_on_c, 9, 37, 90
9, 89480, Note_on_c, 9, 42, 0
9, 89487, Note_on_c, 9, 51, 0
9, 89499, Note_on_c, 9, 37, 0
9, 89608, Note_on_c, 9, 42, 40
9, 89608, Note_on_c, 9, 42, 0
9, 89615, Note_on_c, 9, 51, 24
9, 89736, Note_on_c, 9, 42, 18
9, 89736, Note_on_c, 9, 42, 0
9, 89871, Note_on_c, 9, 51, 0
9, 89984, Note_on_c, 9, 42, 42
9, 89984, Note_on_c, 9, 42, 0
9, 89984, Note_on_c, 9, 37, 63
9, 90120, Note_on_c, 9, 37, 0
9, 90120, Note_on_c, 9, 42, 29
9, 90120, Note_on_c, 9, 42, 0
9, 90139, Note_on_c, 9, 37, 84
9, 90259, Note_on_c, 9, 37, 0
9, 90376, Note_on_c, 9, 42, 38
9, 90376, Note_on_c, 9, 42, 0
9, 90496, Note_on_c, 9, 42, 30
9, 90503, Note_on_c, 9, 51, 17
9, 90632, Note_on_c, 9, 42, 0
9, 90639, Note_on_c, 9, 51, 0
9, 90752, Note_on_c, 9, 42, 27
9, 90880, Note_on_c, 9, 42, 0
9, 90880, Note_on_c, 9, 42, 24
9, 90899, Note_on_c, 9, 37, 90
9, 91008, Note_on_c, 9, 42, 0
9, 91027, Note_on_c, 9, 37, 0
9, 91136, Note_on_c, 9, 42, 40
9, 91136, Note_on_c, 9, 42, 0
9, 91143, Note_on_c, 9, 51, 33
9, 91264, Note_on_c, 9, 42, 18
9, 91264, Note_on_c, 9, 42, 0
9, 91520, Note_on_c, 9, 42, 42
9, 91520, Note_on_c, 9, 42, 0
9, 91520, Note_on_c, 9, 37, 33
9, 91527, Note_on_c, 9, 51, 0
9, 91648, Note_on_c, 9, 37, 0
9, 91648, Note_on_c, 9, 42, 29
9, 91648, Note_on_c, 9, 42, 0
9, 91667, Note_on_c, 9, 37, 85
9, 91795, Note_on_c, 9, 37, 0
9, 91904, Note_on_c, 9, 42, 38
9, 91904, Note_on_c, 9, 42, 0
9, 91911, Note_on_c, 9, 51, 30
9, 91911, Note_on_c, 9, 51, 0
9, 92032, Note_on_c, 9, 42, 30
9, 92039, Note_on_c, 9, 51, 16
9, 92160, Note_on_c, 9, 42, 0
9, 92167, Note_on_c, 9, 51, 0
9, 92179, Note_on_c, 9, 37, 26
9, 92179, Note_on_c, 9, 37, 0
9, 92288, Note_on_c, 9, 42, 27
9, 92307, Note_on_c, 9, 37, 66
9, 92416, Note_on_c, 9, 42, 0
9, 92416, Note_on_c, 9, 42, 24
9, 92435, Note_on_c, 9, 37, 0
9, 92544, Note_on_c, 9, 42, 0
9, 92563, Note_on_c, 9, 37, 25
9, 92563, Note_on_c, 9, 37, 0
9, 92672, Note_on_c, 9, 42, 40
9, 92672, Note_on_c, 9, 42, 0
9, 92679, Note_on_c, 9, 51, 37
9, 92691, Note_on_c, 9, 37, 78
9, 92800, Note_on_c, 9, 42, 18
9, 92800, Note_on_c, 9, 42, 0
9, 92819, Note_on_c, 9, 37, 0
9, 92947, Note_on_c, 9, 37, 32
9, 92947, Note_on_c, 9, 37, 0
9, 93056, Note_on_c, 9, 37, 32
9, 93056, Note_on_c, 9, 42, 42
9, 93056, Note_on_c, 9, 42, 0
9, 93063, Note_on_c, 9, 51, 0
9, 93075, Note_on_c, 9, 37, 84
9, 93184, Note_on_c, 9, 37, 0
9, 93184, Note_on_c, 9, 42, 29
9, 93184, Note_on_c, 9, 42, 0
9, 93203, Note_on_c, 9, 37, 0
9, 93331, Note_on_c, 9, 37, 23
9, 93331, Note_on_c, 9, 37, 0
9, 93440, Note_on_c, 9, 42, 38
9, 93440, Note_on_c, 9, 42, 0
9, 93447, Note_on_c, 9, 51, 17
9, 93447, Note_on_c, 9, 51, 0
9, 93459, Note_on_c, 9, 37, 71
9, 93459, Note_on_c, 9, 37, 0
9, 93568, Note_on_c, 9, 42, 30
9, 93575, Note_on_c, 9, 51, 25
9, 93696, Note_on_c, 9, 42, 0
9, 93703, Note_on_c, 9, 51, 0
9, 93824, Note_on_c, 9, 42, 27
9, 93831, Note_on_c, 9, 51, 21
9, 93952, Note_on_c, 9, 42, 0
9, 93952, Note_on_c, 9, 42, 24
9, 93959, Note_on_c, 9, 51, 0
9, 93971, Note_on_c, 9, 37, 89
9, 94080, Note_on_c, 9, 42, 0
9, 94099, Note_on_c, 9, 37, 0
9, 94208, Note_on_c, 9, 42, 40
9, 94208, Note_on_c, 9, 42, 0
9, 94215, Note_on_c, 9, 51, 36
9, 94336, Note_on_c, 9, 42, 18
9, 94336, Note_on_c, 9, 42, 0
9, 94592, Note_on_c, 9, 42, 42
9, 94592, Note_on_c, 9, 42, 0
9, 94592, Note_on_c, 9, 37, 31
9, 94599, Note_on_c, 9, 51, 0
9, 94720, Note_on_c, 9, 37, 0
9, 94720, Note_on_c, 9, 42, 29
9, 94720, Note_on_c, 9, 42, 0
9, 94720, Note_on_c, 9, 37, 13
9, 94739, Note_on_c, 9, 37, 88
9, 94848, Note_on_c, 9, 37, 0
9, 94867, Note_on_c, 9, 37, 0
9, 94976, Note_on_c, 9, 42, 38
9, 94976, Note_on_c, 9, 42, 0
9, 94983, Note_on_c, 9, 51, 40
9, 95104, Note_on_c, 9, 42, 30
9, 95232, Note_on_c, 9, 42, 0
9, 95239, Note_on_c, 9, 51, 0
9, 95360, Note_on_c, 9, 42, 27
9, 95488, Note_on_c, 9, 42, 0
9, 95488, Note_on_c, 9, 42, 24
9, 95495, Note_on_c, 9, 51, 8
9, 95507, Note_on_c, 9, 37, 91
9, 95616, Note_on_c, 9, 42, 0
9, 95623, Note_on_c, 9, 51, 0
9, 95635, Note_on_c, 9, 37, 0
9, 95744, Note_on_c, 9, 42, 40
9, 95744, Note_on_c, 9, 42, 0
9, 95751, Note_on_c, 9, 51, 24
9, 95872, Note_on_c, 9, 42, 18
9, 95872, Note_on_c, 9, 42, 0
9, 96007, Note_on_c, 9, 51, 0
9, 96128, Note_on_c, 9, 37, 63
9, 96128, Note_on_c, 9, 42, 42
9, 96128, Note_on_c, 9, 42, 0
9, 96248, Note_on_c, 9, 37, 0
9, 96248, Note_on_c, 9, 42, 29
9, 96248, Note_on_c, 9, 42, 0
9, 96267, Note_on_c, 9, 37, 90
9, 96395, Note_on_c, 9, 37, 0
9, 96504, Note_on_c, 9, 42, 38
9, 96504, Note_on_c, 9, 42, 0
9, 96632, Note_on_c, 9, 42, 30
9, 96639, Note_on_c, 9, 51, 17
9, 96760, Note_on_c, 9, 42, 0
9, 96767, Note_on_c, 9, 51, 0
9, 96888, Note_on_c, 9, 42, 27
9, 97016, Note_on_c, 9, 42, 0
9, 97016, Note_on_c, 9, 42, 24
9, 97035, Note_on_c, 9, 37, 90
9, 97144, Note_on_c, 9, 42, 0
9, 97163, Note_on_c, 9, 37, 0
9, 97272, Note_on_c, 9, 42, 40
9, 97272, Note_on_c, 9, 42, 0
9, 97279, Note_on_c, 9, 51, 33
9, 97400, Note_on_c, 9, 42, 18
9, 97400, Note_on_c, 9, 42, 0
9, 97656, Note_on_c, 9, 37, 33
9, 97656, Note_on_c, 9, 42, 42
9, 97656, Note_on_c, 9, 42, 0
9, 97663, Note_on_c, 9, 51, 0
9, 97784, Note_on_c, 9, 37, 0
9, 97784, Note_on_c, 9, 42, 29
9, 97784, Note_on_c, 9, 42, 0
9, 97803, Note_on_c, 9, 37, 91
9, 97931, Note_on_c, 9, 37, 0
9, 98040, Note_on_c, 9, 42, 38
9, 98040, Note_on_c, 9, 42, 0
9, 98047, Note_on_c, 9, 51, 30
9, 98047, Note_on_c, 9, 51, 0
9, 98168, Note_on_c, 9, 42, 30
9, 98175, Note_on_c, 9, 51, 16
9, 98296, Note_on_c, 9, 42, 0
9, 98303, Note_on_c, 9, 51, 0
9, 98424, Note_on_c, 9, 42, 27
9, 98552, Note_on_c, 9, 42, 0
9, 98552, Note_on_c, 9, 42, 24
9, 98571, Note_on_c, 9, 37, 92
9, 98680, Note_on_c, 9, 42, 0
9, 98699, Note_on_c, 9, 37, 0
9, 98808, Note_on_c, 9, 42, 40
9, 98808, Note_on_c, 9, 42, 0
9, 98815, Note_on_c, 9, 51, 37
9, 98936, Note_on_c, 9, 42, 18
9, 98936, Note_on_c, 9, 42, 0
9, 99192, Note_on_c, 9, 37, 32
9, 99192, Note_on_c, 9, 42, 42
9, 99192, Note_on_c, 9, 42, 0
9, 99199, Note_on_c, 9, 51, 0
9, 99320, Note_on_c, 9, 37, 0
9, 99320, Note_on_c, 9, 42, 29
9, 99320, Note_on_c, 9, 42, 0
9, 99339, Note_on_c, 9, 37, 89
9, 99467, Note_on_c, 9, 37, 0
9, 99576, Note_on_c, 9, 42, 38
9, 99576, Note_on_c, 9, 42, 0
9, 99583, Note_on_c, 9, 51, 17
9, 99583, Note_on_c, 9, 51, 0
9, 99704, Note_on_c, 9, 42, 30
9, 99711, Note_on_c, 9, 51, 25
9, 99832, Note_on_c, 9, 42, 0
9, 99839, Note_on_c, 9, 51, 0
9, 99960, Note_on_c, 9, 42, 27
9, 99967, Note_on_c, 9, 51, 21
9, 100088, Note_on_c, 9, 42, 0
9, 100088, Note_on_c, 9, 42, 24
9, 100095, Note_on_c, 9, 51, 0
9, 100107, Note_on_c, 9, 37, 90
9, 100216, Note_on_c, 9, 42, 0
9, 100235, Note_on_c, 9, 37, 0
9, 100344, Note_on_c, 9, 42, 40
9, 100344, Note_on_c, 9, 42, 0
9, 100351, Note_on_c, 9, 51, 36
9, 100472, Note_on_c, 9, 42, 18
9, 100472, Note_on_c, 9, 42, 0
9, 100728, Note_on_c, 9, 37, 31
9, 100728, Note_on_c, 9, 42, 42
9, 100728, Note_on_c, 9, 42, 0
9, 100735, Note_on_c, 9, 51, 0
9, 100856, Note_on_c, 9, 37, 0
9, 100856, Note_on_c, 9, 42, 29
9, 100856, Note_on_c, 9, 42, 0
9, 100856, Note_on_c, 9, 37, 13
9, 100875, Note_on_c, 9, 37, 91
9, 100984, Note_on_c, 9, 37, 0
9, 101003, Note_on_c, 9, 37, 0
9, 101112, Note_on_c, 9, 42, 38
9, 101112, Note_on_c, 9, 42, 0
9, 101119, Note_on_c, 9, 51, 40
9, 101240, Note_on_c, 9, 42, 30
9, 101368, Note_on_c, 9, 42, 0
9, 101375, Note_on_c, 9, 51, 0
9, 101496, Note_on_c, 9, 42, 27
9, 101624, Note_on_c, 9, 42, 0
9, 101624, Note_on_c, 9, 42, 24
9, 101631, Note_on_c, 9, 51, 8
9, 101643, Note_on_c, 9, 37, 90
9, 101744, Note_on_c, 9, 42, 0
9, 101751, Note_on_c, 9, 51, 0
9, 101763, Note_on_c, 9, 37, 0
9, 101880, Note_on_c, 9, 42, 40
9, 101880, Note_on_c, 9, 42, 0
9, 101887, Note_on_c, 9, 51, 24
9, 102000, Note_on_c, 9, 42, 18
9, 102000, Note_on_c, 9, 42, 0
9, 102135, Note_on_c, 9, 51, 0
9, 102256, Note_on_c, 9, 37, 63
9, 102256, Note_on_c, 9, 42, 42
9, 102256, Note_on_c, 9, 42, 0
9, 102384, Note_on_c, 9, 37, 0
9, 102384, Note_on_c, 9, 42, 29
9, 102384, Note_on_c, 9, 42, 0
9, 102403, Note_on_c, 9, 37, 84
9, 102531, Note_on_c, 9, 37, 0
9, 102640, Note_on_c, 9, 42, 38
9, 102640, Note_on_c, 9, 42, 0
9, 102768, Note_on_c, 9, 42, 30
9, 102775, Note_on_c, 9, 51, 17
9, 102896, Note_on_c, 9, 42, 0
9, 102903, Note_on_c, 9, 51, 0
9, 103024, Note_on_c, 9, 42, 27
9, 103152, Note_on_c, 9, 42, 0
9, 103152, Note_on_c, 9, 42, 24
9, 103171, Note_on_c, 9, 37, 90
9, 103280, Note_on_c, 9, 42, 0
9, 103299, Note_on_c, 9, 37, 0
9, 103408, Note_on_c, 9, 42, 40
9, 103408, Note_on_c, 9, 42, 0
9, 103415, Note_on_c, 9, 51, 33
9, 103536, Note_on_c, 9, 42, 18
9, 103536, Note_on_c, 9, 42, 0
9, 103792, Note_on_c, 9, 42, 42
9, 103792, Note_on_c, 9, 42, 0
9, 103792, Note_on_c, 9, 37, 33
9, 103799, Note_on_c, 9, 51, 0
9, 103920, Note_on_c, 9, 37, 0
9, 103920, Note_on_c, 9, 42, 29
9, 103920, Note_on_c, 9, 42, 0
9, 103939, Note_on_c, 9, 37, 85
9, 104067, Note_on_c, 9, 37, 0
9, 104176, Note_on_c, 9, 42, 38
9, 104176, Note_on_c, 9, 42, 0
9, 104183, Note_on_c, 9, 51, 30
9, 104183, Note_on_c, 9, 51, 0
9, 104304, Note_on_c, 9, 42, 30
9, 104311, Note_on_c, 9, 51, 16
9, 104432, Note_on_c, 9, 42, 0
9, 104439, Note_on_c, 9, 51, 0
9, 104451, Note_on_c, 9, 37, 26
9, 104451, Note_on_c, 9, 37, 0
9, 104560, Note_on_c, 9, 42, 27
9, 104579, Note_on_c, 9, 37, 66
9, 104688, Note_on_c, 9, 42, 0
9, 104688, Note_on_c, 9, 42, 24
9, 104707, Note_on_c, 9, 37, 0
9, 104816, Note_on_c, 9, 42, 0
9, 104835, Note_on_c, 9, 37, 25
9, 104835, Note_on_c, 9, 37, 0
9, 104944, Note_on_c, 9, 42, 40
9, 104944, Note_on_c, 9, 42, 0
9, 104951, Note_on_c, 9, 51, 37
9, 104963, Note_on_c, 9, 37, 78
9, 105072, Note_on_c, 9, 42, 18
9, 105072, Note_on_c, 9, 42, 0
9, 105091, Note_on_c, 9, 37, 0
9, 105219, Note_on_c, 9, 37, 32
9, 105219, Note_on_c, 9, 37, 0
9, 105328, Note_on_c, 9, 37, 32
9, 105328, Note_on_c, 9, 42, 42
9, 105328, Note_on_c, 9, 42, 0
9, 105335, Note_on_c, 9, 51, 0
9, 105347, Note_on_c, 9, 37, 84
9, 105456, Note_on_c, 9, 37, 0
9, 105456, Note_on_c, 9, 42, 29
9, 105456, Note_on_c, 9, 42, 0
9, 105475, Note_on_c, 9, 37, 0
9, 105603, Note_on_c, 9, 37, 23
9, 105603, Note_on_c, 9, 37, 0
9, 105712, Note_on_c, 9, 42, 38
9, 105712, Note_on_c, 9, 42, 0
9, 105719, Note_on_c, 9, 51, 17
9, 105719, Note_on_c, 9, 51, 0
9, 105731, Note_on_c, 9, 37, 71
9, 105731, Note_on_c, 9, 37, 0
9, 105840, Note_on_c, 9, 42, 30
9, 105847, Note_on_c, 9, 51, 25
9, 105968, Note_on_c, 9, 42, 0
9, 105975, Note_on_c, 9, 51, 0
9, 106096, Note_on_c, 9, 42, 27
9, 106103, Note_on_c, 9, 51, 21
9, 106224, Note_on_c, 9, 42, 0
9, 106224, Note_on_c, 9, 42, 24
9, 106231, Note_on_c, 9, 51, 0
9, 106243, Note_on_c, 9, 37, 89
9, 106352, Note_on_c, 9, 42, 0
9, 106371, Note_on_c, 9, 37, 0
9, 106480, Note_on_c, 9, 42, 40
9, 106480, Note_on_c, 9, 42, 0
9, 106487, Note_on_c, 9, 51, 36
9, 106608, Note_on_c, 9, 42, 18
9, 106608, Note_on_c, 9, 42, 0
9, 106864, Note_on_c, 9, 37, 31
9, 106864, Note_on_c, 9, 42, 42
9, 106864, Note_on_c, 9, 42, 0
9, 106871, Note_on_c, 9, 51, 0
9, 106992, Note_on_c, 9, 37, 0
9, 106992, Note_on_c, 9, 37, 13
9, 106992, Note_on_c, 9, 42, 29
9, 106992, Note_on_c, 9, 42, 0
9, 107011, Note_on_c, 9, 37, 88
9, 107120, Note_on_c, 9, 37, 0
9, 107139, Note_on_c, 9, 37, 0
9, 107248, Note_on_c, 9, 42, 38
9, 107248, Note_on_c, 9, 42, 0
9, 107255, Note_on_c, 9, 51, 40
9, 107376, Note_on_c, 9, 42, 30
9, 107504, Note_on_c, 9, 42, 0
9, 107511, Note_on_c, 9, 51, 0
9, 107632, Note_on_c, 9, 42, 27
9, 107760, Note_on_c, 9, 42, 0
9, 107760, Note_on_c, 9, 42, 24
9, 107767, Note_on_c, 9, 51, 8
9, 107779, Note_on_c, 9, 37, 91
9, 107880, Note_on_c, 9, 42, 0
9, 107887, Note_on_c, 9, 51, 0
9, 107899, Note_on_c, 9, 37, 0
9, 108008, Note_on_c, 9, 42, 40
9, 108008, Note_on_c, 9, 42, 0
9, 108015, Note_on_c, 9, 51, 24
9, 108144, Note_on_c, 9, 42, 18
9, 108144, Note_on_c, 9, 42, 0
9, 108279, Note_on_c, 9, 51, 0
9, 108392, Note_on_c, 9, 37, 63
9, 108392, Note_on_c, 9, 42, 42
9, 108392, Note_on_c, 9, 42, 0
9, 108520, Note_on_c, 9, 37, 0
9, 108520, Note_on_c, 9, 42, 29
9, 108520, Note_on_c, 9, 42, 0
9, 108539, Note_on_c, 9, 37, 90
9, 108667, Note_on_c, 9, 37, 0
9, 108776, Note_on_c, 9, 42, 38
9, 108776, Note_on_c, 9, 42, 0
9, 108904, Note_on_c, 9, 42, 30
9, 108911, Note_on_c, 9, 51, 17
9, 109032, Note_on_c, 9, 42, 0
9, 109039, Note_on_c, 9, 51, 0
9, 109160, Note_on_c, 9, 42, 27
9, 109288, Note_on_c, 9, 42, 0
9, 109288, Note_on_c, 9, 42, 24
9, 109307, Note_on_c, 9, 37, 90
9, 109416, Note_on_c, 9, 42, 0
9, 109435, Note_on_c, 9, 37, 0
9, 109544, Note_on_c, 9, 42, 40
9, 109544, Note_on_c, 9, 42, 0
9, 109551, Note_on_c, 9, 51, 33
9, 109672, Note_on_c, 9, 42, 18
9, 109672, Note_on_c, 9, 42, 0
9, 109928, Note_on_c, 9, 37, 33
9, 109928, Note_on_c, 9, 42, 42
9, 109928, Note_on_c, 9, 42, 0
9, 109935, Note_on_c, 9, 51, 0
9, 110056, Note_on_c, 9, 37, 0
9, 110056, Note_on_c, 9, 42, 29
9, 110056, Note_on_c, 9, 42, 0
9, 110075, Note_on_c, 9, 37, 91
9, 110203, Note_on_c, 9, 37, 0
9, 110312, Note_on_c, 9, 42, 38
9, 110312, Note_on_c, 9, 42, 0
9, 110319, Note_on_c, 9, 51, 30
9, 110319, Note_on_c, 9, 51, 0
9, 110440, Note_on_c, 9, 42, 30
9, 110447, Note_on_c, 9, 51, 16
9, 110568, Note_on_c, 9, 42, 0
9, 110575, Note_on_c, 9, 51, 0
9, 110696, Note_on_c, 9, 42, 27
9, 110824, Note_on_c, 9, 42, 0
9, 110824, Note_on_c, 9, 42, 24
9, 110843, Note_on_c, 9, 37, 92
9, 110952, Note_on_c, 9, 42, 0
9, 110971, Note_on_c, 9, 37, 0
9, 111080, Note_on_c, 9, 42, 40
9, 111080, Note_on_c, 9, 42, 0
9, 111087, Note_on_c, 9, 51, 37
9, 111208, Note_on_c, 9, 42, 18
9, 111208, Note_on_c, 9, 42, 0
9, 111464, Note_on_c, 9, 37, 32
9, 111464, Note_on_c, 9, 42, 42
9, 111464, Note_on_c, 9, 42, 0
9, 111471, Note_on_c, 9, 51, 0
9, 111592, Note_on_c, 9, 37, 0
9, 111592, Note_on_c, 9, 42, 29
9, 111592, Note_on_c, 9, 42, 0
9, 111611, Note_on_c, 9, 37, 89
9, 111739, Note_on_c, 9, 37, 0
9, 111848, Note_on_c, 9, 42, 38
9, 111848, Note_on_c, 9, 42, 0
9, 111855, Note_on_c, 9, 51, 17
9, 111855, Note_on_c, 9, 51, 0
9, 111976, Note_on_c, 9, 42, 59
9, 112104, Note_on_c, 9, 42, 0
9, 112360, Note_on_c, 9, 42, 33
9, 112379, Note_on_c, 9, 37, 70
9, 112379, Note_on_c, 9, 37, 0
9, 112488, Note_on_c, 9, 42, 0
9, 112744, Note_on_c, 9, 42, 38
9, 113000, Note_on_c, 9, 42, 0
9, 113128, Note_on_c, 9, 42, 93
9, 113147, Note_on_c, 9, 37, 70
9, 113147, Note_on_c, 9, 37, 0
9, 113256, Note_on_c, 9, 42, 0
9, 113512, Note_on_c, 9, 42, 36
9, 113640, Note_on_c, 9, 42, 0
9, 113896, Note_on_c, 9, 42, 57
9, 113915, Note_on_c, 9, 37, 52
9, 113915, Note_on_c, 9, 37, 0
9, 114016, Note_on_c, 9, 42, 0
9, 114272, Note_on_c, 9, 42, 38
9, 114656, Note_on_c, 9, 42, 0
9, 114675, Note_on_c, 9, 37, 56
9, 114675, Note_on_c, 9, 37, 0
9, 114675, Note_on_c, 9, 46, 71
9, 114803, Note_on_c, 9, 46, 0
9, 115040, Note_on_c, 9, 42, 38
9, 115168, Note_on_c, 9, 42, 0
9, 115424, Note_on_c, 9, 42, 37
9, 115443, Note_on_c, 9, 37, 52
9, 115443, Note_on_c, 9, 37, 0
9, 115552, Note_on_c, 9, 42, 0
9, 115808, Note_on_c, 9, 42, 50
9, 116064, Note_on_c, 9, 42, 0
9, 116192, Note_on_c, 9, 42, 51
9, 116211, Note_on_c, 9, 37, 59
9, 116211, Note_on_c, 9, 37, 0
9, 116320, Note_on_c, 9, 42, 0
9, 116576, Note_on_c, 9, 42, 51
9, 116704, Note_on_c, 9, 42, 0
9, 116960, Note_on_c, 9, 42, 46
9, 116979, Note_on_c, 9, 37, 54
9, 116979, Note_on_c, 9, 37, 0
9, 117088, Note_on_c, 9, 42, 0
9, 117216, Note_on_c, 9, 42, 85
9, 117472, Note_on_c, 9, 42, 0
9, 117600, Note_on_c, 9, 42, 34
9, 117728, Note_on_c, 9, 42, 0
9, 117728, Note_on_c, 9, 42, 70
9, 117747, Note_on_c, 9, 37, 63
9, 117747, Note_on_c, 9, 37, 0
9, 117856, Note_on_c, 9, 42, 0
9, 118112, Note_on_c, 9, 42, 65
9, 118240, Note_on_c, 9, 42, 0
9, 118496, Note_on_c, 9, 42, 36
9, 118515, Note_on_c, 9, 37, 68
9, 118515, Note_on_c, 9, 37, 0
9, 118624, Note_on_c, 9, 42, 0
9, 118752, Note_on_c, 9, 42, 89
9, 119008, Note_on_c, 9, 42, 0
9, 119136, Note_on_c, 9, 42, 28
9, 119264, Note_on_c, 9, 42, 0
9, 119264, Note_on_c, 9, 42, 60
9, 119283, Note_on_c, 9, 37, 66
9, 119283, Note_on_c, 9, 37, 0
9, 119392, Note_on_c, 9, 42, 0
9, 119640, Note_on_c, 9, 42, 54
9, 119768, Note_on_c, 9, 42, 0
9, 120032, Note_on_c, 9, 42, 53
9, 120051, Note_on_c, 9, 37, 67
9, 120051, Note_on_c, 9, 37, 0
9, 120152, Note_on_c, 9, 42, 0
9, 120408, Note_on_c, 9, 42, 52
9, 120536, Note_on_c, 9, 42, 0
9, 120792, Note_on_c, 9, 42, 56
9, 120811, Note_on_c, 9, 37, 71
9, 120811, Note_on_c, 9, 37, 0
9, 121048, Note_on_c, 9, 42, 0
9, 121067, Note_on_c, 9, 46, 73
9, 121176, Note_on_c, 9, 42, 48
9, 121195, Note_on_c, 9, 46, 0
9, 121304, Note_on_c, 9, 42, 0
9, 121560, Note_on_c, 9, 42, 56
9, 121579, Note_on_c, 9, 37, 69
9, 121579, Note_on_c, 9, 37, 0
9, 121688, Note_on_c, 9, 42, 0
9, 121944, Note_on_c, 9, 42, 57
9, 122072, Note_on_c, 9, 42, 0
9, 122328, Note_on_c, 9, 42, 55
9, 122347, Note_on_c, 9, 37, 58
9, 122347, Note_on_c, 9, 37, 0
9, 122456, Note_on_c, 9, 42, 0
9, 122712, Note_on_c, 9, 42, 56
9, 122840, Note_on_c, 9, 42, 0
9, 123096, Note_on_c, 9, 42, 57
9, 123096, Note_on_c, 9, 44, 19
9, 123096, Note_on_c, 9, 44, 0
9, 123115, Note_on_c, 9, 37, 64
9, 123115, Note_on_c, 9, 37, 0
9, 123224, Note_on_c, 9, 42, 0
9, 123352, Note_on_c, 9, 42, 101
9, 123736, Note_on_c, 9, 42, 0
9, 123864, Note_on_c, 9, 42, 55
9, 123883, Note_on_c, 9, 37, 64
9, 123883, Note_on_c, 9, 37, 0
9, 123992, Note_on_c, 9, 42, 0
9, 124248, Note_on_c, 9, 42, 59
9, 124376, Note_on_c, 9, 42, 0
9, 124511, Note_on_c, 9, 51, 5
9, 124632, Note_on_c, 9, 42, 33
9, 124639, Note_on_c, 9, 51, 0
9, 124651, Note_on_c, 9, 37, 59
9, 124651, Note_on_c, 9, 37, 0
9, 124760, Note_on_c, 9, 42, 0
9, 125016, Note_on_c, 9, 42, 38
9, 125272, Note_on_c, 9, 42, 0
9, 125400, Note_on_c, 9, 42, 93
9, 125419, Note_on_c, 9, 37, 51
9, 125419, Note_on_c, 9, 37, 0
9, 125520, Note_on_c, 9, 42, 0
9, 125655, Note_on_c, 9, 51, 10
9, 125776, Note_on_c, 9, 42, 36
9, 125783, Note_on_c, 9, 51, 0
9, 125904, Note_on_c, 9, 42, 0
9, 126039, Note_on_c, 9, 51, 9
9, 126039, Note_on_c, 9, 51, 0
9, 126160, Note_on_c, 9, 42, 57
9, 126167, Note_on_c, 9, 51, 4
9, 126179, Note_on_c, 9, 37, 47
9, 126179, Note_on_c, 9, 37, 0
9, 126288, Note_on_c, 9, 42, 0
9, 126295, Note_on_c, 9, 51, 0
9, 126423, Note_on_c, 9, 51, 13
9, 126544, Note_on_c, 9, 42, 38
9, 126679, Note_on_c, 9, 51, 0
9, 126807, Note_on_c, 9, 51, 7
9, 126807, Note_on_c, 9, 51, 0
9, 126928, Note_on_c, 9, 42, 0
9, 126935, Note_on_c, 9, 51, 5
9, 126947, Note_on_c, 9, 46, 71
9, 126947, Note_on_c, 9, 37, 57
9, 126947, Note_on_c, 9, 37, 0
9, 127063, Note_on_c, 9, 51, 0
9, 127075, Note_on_c, 9, 46, 0
9, 127191, Note_on_c, 9, 51, 6
9, 127312, Note_on_c, 9, 42, 38
9, 127319, Note_on_c, 9, 51, 0
9, 127440, Note_on_c, 9, 42, 0
9, 127575, Note_on_c, 9, 51, 5
9, 127575, Note_on_c, 9, 51, 0
9, 127696, Note_on_c, 9, 42, 37
9, 127703, Note_on_c, 9, 51, 6
9, 127715, Note_on_c, 9, 37, 32
9, 127715, Note_on_c, 9, 37, 0
9, 127824, Note_on_c, 9, 42, 0
9, 127831, Note_on_c, 9, 51, 0
9, 127959, Note_on_c, 9, 51, 13
9, 128080, Note_on_c, 9, 42, 50
9, 128215, Note_on_c, 9, 51, 0
9, 128336, Note_on_c, 9, 42, 0
9, 128343, Note_on_c, 9, 51, 4
9, 128343, Note_on_c, 9, 51, 0
9, 128464, Note_on_c, 9, 42, 51
9, 128471, Note_on_c, 9, 51, 6
9, 128483, Note_on_c, 9, 37, 67
9, 128483, Note_on_c, 9, 37, 0
9, 128592, Note_on_c, 9, 42, 0
9, 128599, Note_on_c, 9, 51, 0
9, 128727, Note_on_c, 9, 51, 35
9, 128848, Note_on_c, 9, 42, 51
9, 128976, Note_on_c, 9, 42, 0
9, 128983, Note_on_c, 9, 51, 0
9, 129111, Note_on_c, 9, 51, 8
9, 129111, Note_on_c, 9, 51, 0
9, 129232, Note_on_c, 9, 42, 46
9, 129239, Note_on_c, 9, 51, 11
9, 129251, Note_on_c, 9, 37, 31
9, 129251, Note_on_c, 9, 37, 0
9, 129360, Note_on_c, 9, 42, 0
9, 129367, Note_on_c, 9, 51, 0
9, 129488, Note_on_c, 9, 42, 85
9, 129495, Note_on_c, 9, 51, 28
9, 129744, Note_on_c, 9, 42, 0
9, 129751, Note_on_c, 9, 51, 0
9, 129872, Note_on_c, 9, 42, 34
9, 129879, Note_on_c, 9, 51, 8
9, 130000, Note_on_c, 9, 42, 0
9, 130000, Note_on_c, 9, 42, 70
9, 130007, Note_on_c, 9, 51, 0
9, 130007, Note_on_c, 9, 51, 8
9, 130019, Note_on_c, 9, 37, 71
9, 130019, Note_on_c, 9, 37, 0
9, 130128, Note_on_c, 9, 42, 0
9, 130135, Note_on_c, 9, 51, 0
9, 130263, Note_on_c, 9, 51, 32
9, 130384, Note_on_c, 9, 42, 65
9, 130512, Note_on_c, 9, 42, 0
9, 130519, Note_on_c, 9, 51, 0
9, 130647, Note_on_c, 9, 51, 7
9, 130768, Note_on_c, 9, 42, 36
9, 130775, Note_on_c, 9, 51, 0
9, 130775, Note_on_c, 9, 51, 9
9, 130787, Note_on_c, 9, 37, 36
9, 130787, Note_on_c, 9, 37, 0
9, 130896, Note_on_c, 9, 42, 0
9, 130903, Note_on_c, 9, 51, 0
9, 131024, Note_on_c, 9, 42, 89
9, 131031, Note_on_c, 9, 51, 37
9, 131272, Note_on_c, 9, 42, 0
9, 131279, Note_on_c, 9, 51, 0
9, 131400, Note_on_c, 9, 42, 28
9, 131407, Note_on_c, 9, 51, 11
9, 131407, Note_on_c, 9, 51, 0
9, 131528, Note_on_c, 9, 42, 0
9, 131528, Note_on_c, 9, 42, 60
9, 131535, Note_on_c, 9, 51, 14
9, 131547, Note_on_c, 9, 37, 66
9, 131547, Note_on_c, 9, 37, 0
9, 131656, Note_on_c, 9, 42, 0
9, 131784, Note_on_c, 9, 37, 38
9, 131784, Note_on_c, 9, 37, 0
9, 131791, Note_on_c, 9, 51, 0
9, 131912, Note_on_c, 9, 42, 54
9, 131919, Note_on_c, 9, 51, 11
9, 132048, Note_on_c, 9, 42, 0
9, 132055, Note_on_c, 9, 51, 0
9, 132175, Note_on_c, 9, 51, 7
9, 132175, Note_on_c, 9, 51, 0
9, 132296, Note_on_c, 9, 42, 53
9, 132303, Note_on_c, 9, 51, 8
9, 132315, Note_on_c, 9, 37, 36
9, 132315, Note_on_c, 9, 37, 0
9, 132424, Note_on_c, 9, 42, 0
9, 132431, Note_on_c, 9, 51, 0
9, 132559, Note_on_c, 9, 51, 38
9, 132680, Note_on_c, 9, 42, 52
9, 132808, Note_on_c, 9, 42, 0
9, 132815, Note_on_c, 9, 51, 0
9, 132943, Note_on_c, 9, 51, 7
9, 132943, Note_on_c, 9, 51, 0
9, 133064, Note_on_c, 9, 42, 56
9, 133071, Note_on_c, 9, 51, 12
9, 133071, Note_on_c, 9, 51, 0
9, 133083, Note_on_c, 9, 37, 72
9, 133083, Note_on_c, 9, 37, 0
9, 133320, Note_on_c, 9, 42, 0
9, 133327, Note_on_c, 9, 51, 43
9, 133339, Note_on_c, 9, 46, 73
9, 133448, Note_on_c, 9, 42, 48
9, 133467, Note_on_c, 9, 46, 0
9, 133576, Note_on_c, 9, 42, 0
9, 133583, Note_on_c, 9, 51, 0
9, 133711, Note_on_c, 9, 51, 6
9, 133711, Note_on_c, 9, 51, 0
9, 133832, Note_on_c, 9, 42, 56
9, 133839, Note_on_c, 9, 51, 13
9, 133851, Note_on_c, 9, 37, 64
9, 133851, Note_on_c, 9, 37, 0
9, 133960, Note_on_c, 9, 42, 0
9, 133967, Note_on_c, 9, 51, 0
9, 134095, Note_on_c, 9, 51, 50
9, 134216, Note_on_c, 9, 42, 57
9, 134344, Note_on_c, 9, 42, 0
9, 134351, Note_on_c, 9, 51, 0
9, 134479, Note_on_c, 9, 51, 7
9, 134600, Note_on_c, 9, 42, 55
9, 134607, Note_on_c, 9, 51, 0
9, 134607, Note_on_c, 9, 51, 12
9, 134619, Note_on_c, 9, 37, 65
9, 134619, Note_on_c, 9, 37, 0
9, 134728, Note_on_c, 9, 42, 0
9, 134735, Note_on_c, 9, 51, 0
9, 134863, Note_on_c, 9, 51, 52
9, 134984, Note_on_c, 9, 42, 56
9, 135112, Note_on_c, 9, 42, 0
9, 135119, Note_on_c, 9, 51, 0
9, 135247, Note_on_c, 9, 51, 11
9, 135247, Note_on_c, 9, 51, 0
9, 135368, Note_on_c, 9, 42, 57
9, 135375, Note_on_c, 9, 51, 16
9, 135387, Note_on_c, 9, 37, 66
9, 135387, Note_on_c, 9, 37, 0
9, 135496, Note_on_c, 9, 42, 0
9, 135503, Note_on_c, 9, 51, 0
9, 135624, Note_on_c, 9, 42, 101
9, 135631, Note_on_c, 9, 51, 48
9, 135887, Note_on_c, 9, 51, 0
9, 136008, Note_on_c, 9, 42, 0
9, 136015, Note_on_c, 9, 51, 23
9, 136015, Note_on_c, 9, 51, 0
9, 136136, Note_on_c, 9, 42, 55
9, 136143, Note_on_c, 9, 51, 29
9, 136155, Note_on_c, 9, 37, 60
9, 136155, Note_on_c, 9, 37, 0
9, 136264, Note_on_c, 9, 42, 0
9, 136271, Note_on_c, 9, 51, 0
9, 136392, Note_on_c, 9, 37, 44
9, 136392, Note_on_c, 9, 37, 0
9, 136520, Note_on_c, 9, 42, 30
9, 136527, Note_on_c, 9, 51, 25
9, 136648, Note_on_c, 9, 42, 0
9, 136655, Note_on_c, 9, 51, 0
9, 136776, Note_on_c, 9, 42, 27
9, 136783, Note_on_c, 9, 51, 21
9, 136904, Note_on_c, 9, 42, 0
9, 136904, Note_on_c, 9, 42, 24
9, 136911, Note_on_c, 9, 51, 0
9, 136923, Note_on_c, 9, 37, 90
9, 137024, Note_on_c, 9, 42, 0
9, 137043, Note_on_c, 9, 37, 0
9, 137160, Note_on_c, 9, 42, 40
9, 137160, Note_on_c, 9, 42, 0
9, 137167, Note_on_c, 9, 51, 36
9, 137288, Note_on_c, 9, 42, 18
9, 137288, Note_on_c, 9, 42, 0
9, 137536, Note_on_c, 9, 42, 42
9, 137536, Note_on_c, 9, 42, 0
9, 137536, Note_on_c, 9, 37, 31
9, 137543, Note_on_c, 9, 51, 0
9, 137664, Note_on_c, 9, 37, 0
9, 137664, Note_on_c, 9, 37, 13
9, 137664, Note_on_c, 9, 42, 29
9, 137664, Note_on_c, 9, 42, 0
9, 137683, Note_on_c, 9, 37, 91
9, 137792, Note_on_c, 9, 37, 0
9, 137811, Note_on_c, 9, 37, 0
9, 137920, Note_on_c, 9, 42, 38
9, 137920, Note_on_c, 9, 42, 0
9, 137927, Note_on_c, 9, 51, 40
9, 138048, Note_on_c, 9, 42, 30
9, 138176, Note_on_c, 9, 42, 0
9, 138183, Note_on_c, 9, 51, 0
9, 138304, Note_on_c, 9, 42, 27
9, 138432, Note_on_c, 9, 42, 0
9, 138432, Note_on_c, 9, 42, 24
9, 138439, Note_on_c, 9, 51, 8
9, 138451, Note_on_c, 9, 37, 90
9, 138560, Note_on_c, 9, 42, 0
9, 138567, Note_on_c, 9, 51, 0
9, 138579, Note_on_c, 9, 37, 0
9, 138688, Note_on_c, 9, 42, 40
9, 138688, Note_on_c, 9, 42, 0
9, 138695, Note_on_c, 9, 51, 24
9, 138816, Note_on_c, 9, 42, 18
9, 138816, Note_on_c, 9, 42, 0
9, 138951, Note_on_c, 9, 51, 0
9, 139072, Note_on_c, 9, 37, 63
9, 139072, Note_on_c, 9, 42, 42
9, 139072, Note_on_c, 9, 42, 0
9, 139200, Note_on_c, 9, 37, 0
9, 139200, Note_on_c, 9, 42, 29
9, 139200, Note_on_c, 9, 42, 0
9, 139219, Note_on_c, 9, 37, 84
9, 139347, Note_on_c, 9, 37, 0
9, 139456, Note_on_c, 9, 42, 38
9, 139456, Note_on_c, 9, 42, 0
9, 139584, Note_on_c, 9, 42, 30
9, 139591, Note_on_c, 9, 51, 17
9, 139712, Note_on_c, 9, 42, 0
9, 139719, Note_on_c, 9, 51, 0
9, 139840, Note_on_c, 9, 42, 27
9, 139968, Note_on_c, 9, 42, 0
9, 139968, Note_on_c, 9, 42, 24
9, 139987, Note_on_c, 9, 37, 90
9, 140096, Note_on_c, 9, 42, 0
9, 140115, Note_on_c, 9, 37, 0
9, 140224, Note_on_c, 9, 42, 40
9, 140224, Note_on_c, 9, 42, 0
9, 140231, Note_on_c, 9, 51, 33
9, 140352, Note_on_c, 9, 42, 18
9, 140352, Note_on_c, 9, 42, 0
9, 140608, Note_on_c, 9, 42, 42
9, 140608, Note_on_c, 9, 42, 0
9, 140608, Note_on_c, 9, 37, 33
9, 140615, Note_on_c, 9, 51, 0
9, 140736, Note_on_c, 9, 37, 0
9, 140736, Note_on_c, 9, 42, 29
9, 140736, Note_on_c, 9, 42, 0
9, 140755, Note_on_c, 9, 37, 85
9, 140883, Note_on_c, 9, 37, 0
9, 140992, Note_on_c, 9, 42, 38
9, 140992, Note_on_c, 9, 42, 0
9, 140999, Note_on_c, 9, 51, 30
9, 140999, Note_on_c, 9, 51, 0
9, 141120, Note_on_c, 9, 42, 30
9, 141127, Note_on_c, 9, 51, 16
9, 141248, Note_on_c, 9, 42, 0
9, 141255, Note_on_c, 9, 51, 0
9, 141267, Note_on_c, 9, 37, 26
9, 141267, Note_on_c, 9, 37, 0
9, 141376, Note_on_c, 9, 42, 27
9, 141395, Note_on_c, 9, 37, 66
9, 141504, Note_on_c, 9, 42, 0
9, 141504, Note_on_c, 9, 42, 24
9, 141523, Note_on_c, 9, 37, 0
9, 141632, Note_on_c, 9, 42, 0
9, 141651, Note_on_c, 9, 37, 25
9, 141651, Note_on_c, 9, 37, 0
9, 141760, Note_on_c, 9, 42, 40
9, 141760, Note_on_c, 9, 42, 0
9, 141767, Note_on_c, 9, 51, 37
9, 141779, Note_on_c, 9, 37, 78
9, 141888, Note_on_c, 9, 42, 18
9, 141888, Note_on_c, 9, 42, 0
9, 141907, Note_on_c, 9, 37, 0
9, 142035, Note_on_c, 9, 37, 32
9, 142035, Note_on_c, 9, 37, 0
9, 142144, Note_on_c, 9, 37, 32
9, 142144, Note_on_c, 9, 42, 42
9, 142144, Note_on_c, 9, 42, 0
9, 142151, Note_on_c, 9, 51, 0
9, 142163, Note_on_c, 9, 37, 84
9, 142272, Note_on_c, 9, 37, 0
9, 142272, Note_on_c, 9, 42, 29
9, 142272, Note_on_c, 9, 42, 0
9, 142291, Note_on_c, 9, 37, 0
9, 142419, Note_on_c, 9, 37, 23
9, 142419, Note_on_c, 9, 37, 0
9, 142528, Note_on_c, 9, 42, 38
9, 142528, Note_on_c, 9, 42, 0
9, 142535, Note_on_c, 9, 51, 17
9, 142535, Note_on_c, 9, 51, 0
9, 142547, Note_on_c, 9, 37, 71
9, 142547, Note_on_c, 9, 37, 0
9, 142656, Note_on_c, 9, 42, 30
9, 142663, Note_on_c, 9, 51, 25
9, 142784, Note_on_c, 9, 42, 0
9, 142791, Note_on_c, 9, 51, 0
9, 142904, Note_on_c, 9, 42, 27
9, 142911, Note_on_c, 9, 51, 21
9, 143040, Note_on_c, 9, 42, 0
9, 143040, Note_on_c, 9, 42, 24
9, 143047, Note_on_c, 9, 51, 0
9, 143059, Note_on_c, 9, 37, 89
9, 143168, Note_on_c, 9, 42, 0
9, 143187, Note_on_c, 9, 37, 0
9, 143296, Note_on_c, 9, 42, 40
9, 143296, Note_on_c, 9, 42, 0
9, 143303, Note_on_c, 9, 51, 36
9, 143416, Note_on_c, 9, 42, 18
9, 143416, Note_on_c, 9, 42, 0
9, 143672, Note_on_c, 9, 37, 31
9, 143672, Note_on_c, 9, 42, 42
9, 143672, Note_on_c, 9, 42, 0
9, 143679, Note_on_c, 9, 51, 0
9, 143800, Note_on_c, 9, 37, 0
9, 143800, Note_on_c, 9, 37, 13
9, 143800, Note_on_c, 9, 42, 29
9, 143800, Note_on_c, 9, 42, 0
9, 143819, Note_on_c, 9, 37, 88
9, 143928, Note_on_c, 9, 37, 0
9, 143947, Note_on_c, 9, 37, 0
9, 144056, Note_on_c, 9, 42, 38
9, 144056, Note_on_c, 9, 42, 0
9, 144063, Note_on_c, 9, 51, 40
9, 144184, Note_on_c, 9, 42, 30
9, 144312, Note_on_c, 9, 42, 0
9, 144319, Note_on_c, 9, 51, 0
9, 144440, Note_on_c, 9, 42, 27
9, 144568, Note_on_c, 9, 42, 0
9, 144568, Note_on_c, 9, 42, 24
9, 144575, Note_on_c, 9, 51, 8
9, 144587, Note_on_c, 9, 37, 91
9, 144696, Note_on_c, 9, 42, 0
9, 144703, Note_on_c, 9, 51, 0
9, 144715, Note_on_c, 9, 37, 0
9, 144824, Note_on_c, 9, 42, 40
9, 144824, Note_on_c, 9, 42, 0
9, 144831, Note_on_c, 9, 51, 24
9, 144952, Note_on_c, 9, 42, 18
9, 144952, Note_on_c, 9, 42, 0
9, 145087, Note_on_c, 9, 51, 0
9, 145208, Note_on_c, 9, 37, 63
9, 145208, Note_on_c, 9, 42, 42
9, 145208, Note_on_c, 9, 42, 0
9, 145336, Note_on_c, 9, 37, 0
9, 145336, Note_on_c, 9, 42, 29
9, 145336, Note_on_c, 9, 42, 0
9, 145355, Note_on_c, 9, 37, 90
9, 145483, Note_on_c, 9, 37, 0
9, 145592, Note_on_c, 9, 42, 38
9, 145592, Note_on_c, 9, 42, 0
9, 145720, Note_on_c, 9, 42, 30
9, 145727, Note_on_c, 9, 51, 17
9, 145848, Note_on_c, 9, 42, 0
9, 145855, Note_on_c, 9, 51, 0
9, 145976, Note_on_c, 9, 42, 27
9, 146104, Note_on_c, 9, 42, 0
9, 146104, Note_on_c, 9, 42, 24
9, 146123, Note_on_c, 9, 37, 90
9, 146232, Note_on_c, 9, 42, 0
9, 146251, Note_on_c, 9, 37, 0
9, 146360, Note_on_c, 9, 42, 40
9, 146360, Note_on_c, 9, 42, 0
9, 146367, Note_on_c, 9, 51, 33
9, 146488, Note_on_c, 9, 42, 18
9, 146488, Note_on_c, 9, 42, 0
9, 146744, Note_on_c, 9, 37, 33
9, 146744, Note_on_c, 9, 42, 42
9, 146744, Note_on_c, 9, 42, 0
9, 146751, Note_on_c, 9, 51, 0
9, 146872, Note_on_c, 9, 37, 0
9, 146872, Note_on_c, 9, 42, 29
9, 146872, Note_on_c, 9, 42, 0
9, 146891, Note_on_c, 9, 37, 91
9, 147019, Note_on_c, 9, 37, 0
9, 147128, Note_on_c, 9, 42, 38
9, 147128, Note_on_c, 9, 42, 0
9, 147135, Note_on_c, 9, 51, 30
9, 147135, Note_on_c, 9, 51, 0
9, 147256, Note_on_c, 9, 42, 30
9, 147263, Note_on_c, 9, 51, 16
9, 147384, Note_on_c, 9, 42, 0
9, 147391, Note_on_c, 9, 51, 0
9, 147512, Note_on_c, 9, 42, 27
9, 147640, Note_on_c, 9, 42, 0
9, 147640, Note_on_c, 9, 42, 24
9, 147659, Note_on_c, 9, 37, 92
9, 147768, Note_on_c, 9, 42, 0
9, 147787, Note_on_c, 9, 37, 0
9, 147896, Note_on_c, 9, 42, 40
9, 147896, Note_on_c, 9, 42, 0
9, 147903, Note_on_c, 9, 51, 37
9, 148024, Note_on_c, 9, 42, 18
9, 148024, Note_on_c, 9, 42, 0
9, 148280, Note_on_c, 9, 37, 32
9, 148280, Note_on_c, 9, 42, 42
9, 148280, Note_on_c, 9, 42, 0
9, 148287, Note_on_c, 9, 51, 0
9, 148408, Note_on_c, 9, 37, 0
9, 148408, Note_on_c, 9, 42, 29
9, 148408, Note_on_c, 9, 42, 0
9, 148427, Note_on_c, 9, 37, 89
9, 148555, Note_on_c, 9, 37, 0
9, 148664, Note_on_c, 9, 42, 38
9, 148664, Note_on_c, 9, 42, 0
9, 148671, Note_on_c, 9, 51, 17
9, 148671, Note_on_c, 9, 51, 0
9, 148792, Note_on_c, 9, 42, 30
9, 148799, Note_on_c, 9, 51, 25
9, 148912, Note_on_c, 9, 42, 0
9, 148919, Note_on_c, 9, 51, 0
9, 149040, Note_on_c, 9, 42, 27
9, 149047, Note_on_c, 9, 51, 21
9, 149168, Note_on_c, 9, 42, 0
9, 149168, Note_on_c, 9, 42, 24
9, 149175, Note_on_c, 9, 51, 0
9, 149187, Note_on_c, 9, 37, 90
9, 149296, Note_on_c, 9, 42, 0
9, 149315, Note_on_c, 9, 37, 0
9, 149424, Note_on_c, 9, 42, 40
9, 149424, Note_on_c, 9, 42, 0
9, 149431, Note_on_c, 9, 51, 36
9, 149560, Note_on_c, 9, 42, 18
9, 149560, Note_on_c, 9, 42, 0
9, 149808, Note_on_c, 9, 42, 42
9, 149808, Note_on_c, 9, 42, 0
9, 149808, Note_on_c, 9, 37, 31
9, 149815, Note_on_c, 9, 51, 0
9, 149936, Note_on_c, 9, 37, 0
9, 149936, Note_on_c, 9, 42, 29
9, 149936, Note_on_c, 9, 42, 0
9, 149936, Note_on_c, 9, 37, 13
9, 149955, Note_on_c, 9, 37, 91
9, 150064, Note_on_c, 9, 37, 0
9, 150083, Note_on_c, 9, 37, 0
9, 150192, Note_on_c, 9, 42, 38
9, 150192, Note_on_c, 9, 42, 0
9, 150199, Note_on_c, 9, 51, 40
9, 150320, Note_on_c, 9, 42, 30
9, 150448, Note_on_c, 9, 42, 0
9, 150455, Note_on_c, 9, 51, 0
9, 150576, Note_on_c, 9, 42, 27
9, 150704, Note_on_c, 9, 42, 0
9, 150704, Note_on_c, 9, 42, 24
9, 150711, Note_on_c, 9, 51, 8
9, 150723, Note_on_c, 9, 37, 90
9, 150832, Note_on_c, 9, 42, 0
9, 150839, Note_on_c, 9, 51, 0
9, 150851, Note_on_c, 9, 37, 0
9, 150960, Note_on_c, 9, 42, 40
9, 150960, Note_on_c, 9, 42, 0
9, 150967, Note_on_c, 9, 51, 24
9, 151088, Note_on_c, 9, 42, 18
9, 151088, Note_on_c, 9, 42, 0
9, 151223, Note_on_c, 9, 51, 0
9, 151344, Note_on_c, 9, 42, 42
9, 151344, Note_on_c, 9, 42, 0
9, 151344, Note_on_c, 9, 37, 63
9, 151472, Note_on_c, 9, 37, 0
9, 151472, Note_on_c, 9, 42, 29
9, 151472, Note_on_c, 9, 42, 0
9, 151491, Note_on_c, 9, 37, 84
9, 151619, Note_on_c, 9, 37, 0
9, 151728, Note_on_c, 9, 42, 38
9, 151728, Note_on_c, 9, 42, 0
9, 151856, Note_on_c, 9, 42, 30
9, 151863, Note_on_c, 9, 51, 17
9, 151984, Note_on_c, 9, 42, 0
9, 151991, Note_on_c, 9, 51, 0
9, 152112, Note_on_c, 9, 42, 27
9, 152240, Note_on_c, 9, 42, 0
9, 152240, Note_on_c, 9, 42, 24
9, 152259, Note_on_c, 9, 37, 90
9, 152368, Note_on_c, 9, 42, 0
9, 152387, Note_on_c, 9, 37, 0
9, 152496, Note_on_c, 9, 42, 40
9, 152496, Note_on_c, 9, 42, 0
9, 152503, Note_on_c, 9, 51, 33
9, 152624, Note_on_c, 9, 42, 18
9, 152624, Note_on_c, 9, 42, 0
9, 152880, Note_on_c, 9, 37, 33
9, 152880, Note_on_c, 9, 42, 42
9, 152880, Note_on_c, 9, 42, 0
9, 152887, Note_on_c, 9, 51, 0
9, 153008, Note_on_c, 9, 37, 0
9, 153008, Note_on_c, 9, 42, 29
9, 153008, Note_on_c, 9, 42, 0
9, 153027, Note_on_c, 9, 37, 85
9, 153155, Note_on_c, 9, 37, 0
9, 153264, Note_on_c, 9, 42, 38
9, 153264, Note_on_c, 9, 42, 0
9, 153271, Note_on_c, 9, 51, 30
9, 153271, Note_on_c, 9, 51, 0
9, 153392, Note_on_c, 9, 42, 30
9, 153399, Note_on_c, 9, 51, 16
9, 153520, Note_on_c, 9, 42, 0
9, 153527, Note_on_c, 9, 51, 0
9, 153539, Note_on_c, 9, 37, 26
9, 153539, Note_on_c, 9, 37, 0
9, 153648, Note_on_c, 9, 42, 27
9, 153667, Note_on_c, 9, 37, 66
9, 153776, Note_on_c, 9, 42, 0
9, 153776, Note_on_c, 9, 42, 24
9, 153795, Note_on_c, 9, 37, 0
9, 153904, Note_on_c, 9, 42, 0
9, 153923, Note_on_c, 9, 37, 25
9, 153923, Note_on_c, 9, 37, 0
9, 154032, Note_on_c, 9, 42, 40
9, 154032, Note_on_c, 9, 42, 0
9, 154039, Note_on_c, 9, 51, 37
9, 154051, Note_on_c, 9, 37, 78
9, 154160, Note_on_c, 9, 42, 18
9, 154160, Note_on_c, 9, 42, 0
9, 154179, Note_on_c, 9, 37, 0
9, 154307, Note_on_c, 9, 37, 32
9, 154307, Note_on_c, 9, 37, 0
9, 154416, Note_on_c, 9, 42, 42
9, 154416, Note_on_c, 9, 42, 0
9, 154416, Note_on_c, 9, 37, 32
9, 154423, Note_on_c, 9, 51, 0
9, 154435, Note_on_c, 9, 37, 84
9, 154544, Note_on_c, 9, 37, 0
9, 154544, Note_on_c, 9, 42, 29
9, 154544, Note_on_c, 9, 42, 0
9, 154563, Note_on_c, 9, 37, 0
9, 154691, Note_on_c, 9, 37, 23
9, 154691, Note_on_c, 9, 37, 0
9, 154792, Note_on_c, 9, 42, 38
9, 154792, Note_on_c, 9, 42, 0
9, 154799, Note_on_c, 9, 51, 17
9, 154799, Note_on_c, 9, 51, 0
9, 154811, Note_on_c, 9, 37, 71
9, 154811, Note_on_c, 9, 37, 0
9, 154920, Note_on_c, 9, 42, 30
9, 154927, Note_on_c, 9, 51, 25
9, 155048, Note_on_c, 9, 42, 0
9, 155055, Note_on_c, 9, 51, 0
9, 155184, Note_on_c, 9, 42, 27
9, 155191, Note_on_c, 9, 51, 21
9, 155304, Note_on_c, 9, 42, 0
9, 155304, Note_on_c, 9, 42, 24
9, 155311, Note_on_c, 9, 51, 0
9, 155323, Note_on_c, 9, 37, 89
9, 155432, Note_on_c, 9, 42, 0
9, 155451, Note_on_c, 9, 37, 0
9, 155560, Note_on_c, 9, 42, 40
9, 155560, Note_on_c, 9, 42, 0
9, 155567, Note_on_c, 9, 51, 36
9, 155688, Note_on_c, 9, 42, 18
9, 155688, Note_on_c, 9, 42, 0
9, 155944, Note_on_c, 9, 42, 42
9, 155944, Note_on_c, 9, 42, 0
9, 155944, Note_on_c, 9, 37, 31
9, 155951, Note_on_c, 9, 51, 0
9, 156072, Note_on_c, 9, 37, 0
9, 156072, Note_on_c, 9, 42, 29
9, 156072, Note_on_c, 9, 42, 0
9, 156072, Note_on_c, 9, 37, 13
9, 156091, Note_on_c, 9, 37, 88
9, 156200, Note_on_c, 9, 37, 0
9, 156219, Note_on_c, 9, 37, 0
9, 156328, Note_on_c, 9, 42, 38
9, 156328, Note_on_c, 9, 42, 0
9, 156335, Note_on_c, 9, 51, 40
9, 156456, Note_on_c, 9, 42, 30
9, 156584, Note_on_c, 9, 42, 0
9, 156591, Note_on_c, 9, 51, 0
9, 156712, Note_on_c, 9, 42, 27
9, 156840, Note_on_c, 9, 42, 0
9, 156840, Note_on_c, 9, 42, 24
9, 156847, Note_on_c, 9, 51, 8
9, 156859, Note_on_c, 9, 37, 91
9, 156968, Note_on_c, 9, 42, 0
9, 156975, Note_on_c, 9, 51, 0
9, 156987, Note_on_c, 9, 37, 0
9, 157096, Note_on_c, 9, 42, 40
9, 157096, Note_on_c, 9, 42, 0
9, 157103, Note_on_c, 9, 51, 24
9, 157224, Note_on_c, 9, 42, 18
9, 157224, Note_on_c, 9, 42, 0
9, 157359, Note_on_c, 9, 51, 0
9, 157480, Note_on_c, 9, 37, 63
9, 157480, Note_on_c, 9, 42, 42
9, 157480, Note_on_c, 9, 42, 0
9, 157608, Note_on_c, 9, 37, 0
9, 157608, Note_on_c, 9, 42, 29
9, 157608, Note_on_c, 9, 42, 0
9, 157627, Note_on_c, 9, 37, 90
9, 157755, Note_on_c, 9, 37, 0
9, 157864, Note_on_c, 9, 42, 38
9, 157864, Note_on_c, 9, 42, 0
9, 157992, Note_on_c, 9, 42, 30
9, 157999, Note_on_c, 9, 51, 17
9, 158120, Note_on_c, 9, 42, 0
9, 158127, Note_on_c, 9, 51, 0
9, 158248, Note_on_c, 9, 42, 27
9, 158376, Note_on_c, 9, 42, 0
9, 158376, Note_on_c, 9, 42, 24
9, 158395, Note_on_c, 9, 37, 90
9, 158504, Note_on_c, 9, 42, 0
9, 158523, Note_on_c, 9, 37, 0
9, 158632, Note_on_c, 9, 42, 40
9, 158632, Note_on_c, 9, 42, 0
9, 158639, Note_on_c, 9, 51, 33
9, 158760, Note_on_c, 9, 42, 18
9, 158760, Note_on_c, 9, 42, 0
9, 159016, Note_on_c, 9, 42, 42
9, 159016, Note_on_c, 9, 42, 0
9, 159016, Note_on_c, 9, 37, 33
9, 159023, Note_on_c, 9, 51, 0
9, 159144, Note_on_c, 9, 37, 0
9, 159144, Note_on_c, 9, 42, 29
9, 159144, Note_on_c, 9, 42, 0
9, 159163, Note_on_c, 9, 37, 91
9, 159291, Note_on_c, 9, 37, 0
9, 159400, Note_on_c, 9, 42, 38
9, 159400, Note_on_c, 9, 42, 0
9, 159407, Note_on_c, 9, 51, 30
9, 159407, Note_on_c, 9, 51, 0
9, 159528, Note_on_c, 9, 42, 30
9, 159535, Note_on_c, 9, 51, 16
9, 159656, Note_on_c, 9, 42, 0
9, 159663, Note_on_c, 9, 51, 0
9, 159784, Note_on_c, 9, 42, 27
9, 159912, Note_on_c, 9, 42, 0
9, 159912, Note_on_c, 9, 42, 24
9, 159931, Note_on_c, 9, 37, 92
9, 160040, Note_on_c, 9, 42, 0
9, 160059, Note_on_c, 9, 37, 0
9, 160168, Note_on_c, 9, 42, 40
9, 160168, Note_on_c, 9, 42, 0
9, 160175, Note_on_c, 9, 51, 37
9, 160296, Note_on_c, 9, 42, 18
9, 160296, Note_on_c, 9, 42, 0
9, 160552, Note_on_c, 9, 42, 42
9, 160552, Note_on_c, 9, 42, 0
9, 160552, Note_on_c, 9, 37, 32
9, 160559, Note_on_c, 9, 51, 0
9, 160680, Note_on_c, 9, 37, 0
9, 160680, Note_on_c, 9, 42, 29
9, 160680, Note_on_c, 9, 42, 0
9, 160699, Note_on_c, 9, 37, 89
9, 160827, Note_on_c, 9, 37, 0
9, 160936, Note_on_c, 9, 42, 38
9, 160936, Note_on_c, 9, 42, 0
9, 160943, Note_on_c, 9, 51, 17
9, 160943, Note_on_c, 9, 51, 0
9, 161064, Note_on_c, 9, 42, 30
9, 161071, Note_on_c, 9, 51, 38
9, 161184, Note_on_c, 9, 42, 0
9, 161191, Note_on_c, 9, 51, 0
9, 161312, Note_on_c, 9, 42, 27
9, 161440, Note_on_c, 9, 42, 0
9, 161440, Note_on_c, 9, 42, 24
9, 161459, Note_on_c, 9, 37, 90
9, 161568, Note_on_c, 9, 42, 0
9, 161587, Note_on_c, 9, 37, 0
9, 161696, Note_on_c, 9, 42, 40
9, 161696, Note_on_c, 9, 42, 0
9, 161703, Note_on_c, 9, 51, 49
9, 161824, Note_on_c, 9, 42, 18
9, 161824, Note_on_c, 9, 42, 0
9, 162080, Note_on_c, 9, 42, 42
9, 162080, Note_on_c, 9, 42, 0
9, 162080, Note_on_c, 9, 37, 38
9, 162087, Note_on_c, 9, 51, 0
9, 162208, Note_on_c, 9, 37, 0
9, 162208, Note_on_c, 9, 42, 29
9, 162208, Note_on_c, 9, 42, 0
9, 162227, Note_on_c, 9, 37, 91
9, 162355, Note_on_c, 9, 37, 0
9, 162464, Note_on_c, 9, 42, 38
9, 162464, Note_on_c, 9, 42, 0
9, 162464, Note_on_c, 9, 37, 52
9, 162592, Note_on_c, 9, 37, 0
9, 162592, Note_on_c, 9, 42, 30
9, 162599, Note_on_c, 9, 51, 47
9, 162720, Note_on_c, 9, 42, 0
9, 162727, Note_on_c, 9, 51, 0
9, 162848, Note_on_c, 9, 42, 27
9, 162976, Note_on_c, 9, 42, 0
9, 162976, Note_on_c, 9, 42, 24
9, 162995, Note_on_c, 9, 37, 90
9, 163104, Note_on_c, 9, 42, 0
9, 163123, Note_on_c, 9, 37, 0
9, 163232, Note_on_c, 9, 42, 40
9, 163232, Note_on_c, 9, 42, 0
9, 163239, Note_on_c, 9, 51, 45
9, 163360, Note_on_c, 9, 42, 18
9, 163360, Note_on_c, 9, 42, 0
9, 163495, Note_on_c, 9, 51, 0
9, 163616, Note_on_c, 9, 42, 42
9, 163616, Note_on_c, 9, 42, 0
9, 163623, Note_on_c, 9, 51, 43
9, 163744, Note_on_c, 9, 37, 53
9, 163744, Note_on_c, 9, 42, 29
9, 163744, Note_on_c, 9, 42, 0
9, 163751, Note_on_c, 9, 51, 0
9, 163763, Note_on_c, 9, 37, 84
9, 163872, Note_on_c, 9, 37, 0
9, 163891, Note_on_c, 9, 37, 0
9, 164000, Note_on_c, 9, 42, 38
9, 164000, Note_on_c, 9, 42, 0
9, 164000, Note_on_c, 9, 37, 50
9, 164128, Note_on_c, 9, 37, 0
9, 164128, Note_on_c, 9, 42, 30
9, 164135, Note_on_c, 9, 51, 50
9, 164256, Note_on_c, 9, 42, 0
9, 164263, Note_on_c, 9, 51, 0
9, 164384, Note_on_c, 9, 42, 27
9, 164512, Note_on_c, 9, 42, 0
9, 164512, Note_on_c, 9, 42, 24
9, 164531, Note_on_c, 9, 37, 90
9, 164640, Note_on_c, 9, 42, 0
9, 164659, Note_on_c, 9, 37, 0
9, 164768, Note_on_c, 9, 42, 40
9, 164768, Note_on_c, 9, 42, 0
9, 164775, Note_on_c, 9, 51, 32
9, 164896, Note_on_c, 9, 42, 18
9, 164896, Note_on_c, 9, 42, 0
9, 165152, Note_on_c, 9, 42, 42
9, 165152, Note_on_c, 9, 42, 0
9, 165152, Note_on_c, 9, 37, 33
9, 165152, Note_on_c, 9, 37, 0
9, 165159, Note_on_c, 9, 51, 0
9, 165280, Note_on_c, 9, 42, 29
9, 165280, Note_on_c, 9, 42, 0
9, 165299, Note_on_c, 9, 37, 85
9, 165427, Note_on_c, 9, 37, 0
9, 165536, Note_on_c, 9, 42, 38
9, 165536, Note_on_c, 9, 42, 0
9, 165664, Note_on_c, 9, 42, 30
9, 165671, Note_on_c, 9, 51, 45
9, 165792, Note_on_c, 9, 42, 0
9, 165799, Note_on_c, 9, 51, 0
9, 165811, Note_on_c, 9, 37, 26
9, 165811, Note_on_c, 9, 37, 0
9, 165920, Note_on_c, 9, 42, 27
9, 165939, Note_on_c, 9, 37, 66
9, 166048, Note_on_c, 9, 42, 0
9, 166048, Note_on_c, 9, 42, 24
9, 166067, Note_on_c, 9, 37, 0
9, 166176, Note_on_c, 9, 42, 0
9, 166195, Note_on_c, 9, 37, 25
9, 166195, Note_on_c, 9, 37, 0
9, 166304, Note_on_c, 9, 42, 40
9, 166304, Note_on_c, 9, 42, 0
9, 166311, Note_on_c, 9, 51, 46
9, 166323, Note_on_c, 9, 37, 78
9, 166432, Note_on_c, 9, 42, 18
9, 166432, Note_on_c, 9, 42, 0
9, 166451, Note_on_c, 9, 37, 0
9, 166579, Note_on_c, 9, 37, 32
9, 166579, Note_on_c, 9, 37, 0
9, 166680, Note_on_c, 9, 42, 42
9, 166680, Note_on_c, 9, 42, 0
9, 166680, Note_on_c, 9, 37, 43
9, 166687, Note_on_c, 9, 51, 0
9, 166699, Note_on_c, 9, 37, 84
9, 166808, Note_on_c, 9, 37, 0
9, 166808, Note_on_c, 9, 42, 29
9, 166808, Note_on_c, 9, 42, 0
9, 166827, Note_on_c, 9, 37, 0
9, 166955, Note_on_c, 9, 37, 23
9, 166955, Note_on_c, 9, 37, 0
9, 167064, Note_on_c, 9, 37, 51
9, 167064, Note_on_c, 9, 37, 0
9, 167064, Note_on_c, 9, 42, 38
9, 167064, Note_on_c, 9, 42, 0
9, 167083, Note_on_c, 9, 37, 71
9, 167083, Note_on_c, 9, 37, 0
9, 167200, Note_on_c, 9, 42, 30
9, 167207, Note_on_c, 9, 51, 38
9, 167320, Note_on_c, 9, 42, 0
9, 167327, Note_on_c, 9, 51, 0
9, 167448, Note_on_c, 9, 42, 27
9, 167576, Note_on_c, 9, 42, 0
9, 167576, Note_on_c, 9, 42, 24
9, 167595, Note_on_c, 9, 37, 89
9, 167704, Note_on_c, 9, 42, 0
9, 167723, Note_on_c, 9, 37, 0
9, 167832, Note_on_c, 9, 42, 40
9, 167832, Note_on_c, 9, 42, 0
9, 167839, Note_on_c, 9, 51, 48
9, 167960, Note_on_c, 9, 42, 18
9, 167960, Note_on_c, 9, 42, 0
9, 168216, Note_on_c, 9, 42, 42
9, 168216, Note_on_c, 9, 42, 0
9, 168216, Note_on_c, 9, 37, 23
9, 168216, Note_on_c, 9, 37, 0
9, 168223, Note_on_c, 9, 51, 0
9, 168344, Note_on_c, 9, 42, 29
9, 168344, Note_on_c, 9, 42, 0
9, 168363, Note_on_c, 9, 37, 88
9, 168491, Note_on_c, 9, 37, 0
9, 168600, Note_on_c, 9, 42, 38
9, 168600, Note_on_c, 9, 42, 0
9, 168728, Note_on_c, 9, 42, 30
9, 168735, Note_on_c, 9, 51, 54
9, 168856, Note_on_c, 9, 42, 0
9, 168863, Note_on_c, 9, 51, 0
9, 168984, Note_on_c, 9, 42, 27
9, 169112, Note_on_c, 9, 42, 0
9, 169112, Note_on_c, 9, 42, 24
9, 169131, Note_on_c, 9, 37, 91
9, 169240, Note_on_c, 9, 42, 0
9, 169259, Note_on_c, 9, 37, 0
9, 169368, Note_on_c, 9, 42, 40
9, 169368, Note_on_c, 9, 42, 0
9, 169375, Note_on_c, 9, 51, 37
9, 169496, Note_on_c, 9, 42, 18
9, 169496, Note_on_c, 9, 42, 0
9, 169752, Note_on_c, 9, 37, 27
9, 169752, Note_on_c, 9, 37, 0
9, 169752, Note_on_c, 9, 42, 42
9, 169752, Note_on_c, 9, 42, 0
9, 169759, Note_on_c, 9, 51, 0
9, 169880, Note_on_c, 9, 42, 29
9, 169880, Note_on_c, 9, 42, 0
9, 169899, Note_on_c, 9, 37, 90
9, 170027, Note_on_c, 9, 37, 0
9, 170136, Note_on_c, 9, 42, 38
9, 170136, Note_on_c, 9, 42, 0
9, 170264, Note_on_c, 9, 42, 30
9, 170271, Note_on_c, 9, 51, 46
9, 170392, Note_on_c, 9, 42, 0
9, 170399, Note_on_c, 9, 51, 0
9, 170520, Note_on_c, 9, 42, 27
9, 170648, Note_on_c, 9, 42, 0
9, 170648, Note_on_c, 9, 42, 24
9, 170667, Note_on_c, 9, 37, 90
9, 170776, Note_on_c, 9, 42, 0
9, 170795, Note_on_c, 9, 37, 0
9, 170904, Note_on_c, 9, 42, 40
9, 170904, Note_on_c, 9, 42, 0
9, 170911, Note_on_c, 9, 51, 47
9, 171032, Note_on_c, 9, 42, 18
9, 171032, Note_on_c, 9, 42, 0
9, 171288, Note_on_c, 9, 37, 22
9, 171288, Note_on_c, 9, 42, 42
9, 171288, Note_on_c, 9, 42, 0
9, 171295, Note_on_c, 9, 51, 0
9, 171416, Note_on_c, 9, 37, 0
9, 171416, Note_on_c, 9, 42, 29
9, 171416, Note_on_c, 9, 42, 0
9, 171435, Note_on_c, 9, 37, 91
9, 171563, Note_on_c, 9, 37, 0
9, 171672, Note_on_c, 9, 42, 38
9, 171672, Note_on_c, 9, 42, 0
9, 171800, Note_on_c, 9, 42, 30
9, 171807, Note_on_c, 9, 51, 48
9, 171928, Note_on_c, 9, 42, 0
9, 172056, Note_on_c, 9, 42, 27
9, 172063, Note_on_c, 9, 51, 0
9, 172184, Note_on_c, 9, 42, 0
9, 172184, Note_on_c, 9, 42, 24
9, 172203, Note_on_c, 9, 37, 92
9, 172312, Note_on_c, 9, 42, 0
9, 172331, Note_on_c, 9, 37, 0
9, 172440, Note_on_c, 9, 42, 40
9, 172440, Note_on_c, 9, 42, 0
9, 172447, Note_on_c, 9, 51, 56
9, 172568, Note_on_c, 9, 42, 18
9, 172568, Note_on_c, 9, 42, 0
9, 172816, Note_on_c, 9, 42, 42
9, 172816, Note_on_c, 9, 42, 0
9, 172816, Note_on_c, 9, 37, 27
9, 172816, Note_on_c, 9, 37, 0
9, 172823, Note_on_c, 9, 51, 0
9, 172944, Note_on_c, 9, 42, 29
9, 172944, Note_on_c, 9, 42, 0
9, 172963, Note_on_c, 9, 37, 89
9, 173099, Note_on_c, 9, 37, 0
9, 173200, Note_on_c, 9, 42, 38
9, 173200, Note_on_c, 9, 42, 0
9, 173336, Note_on_c, 9, 42, 30
9, 173343, Note_on_c, 9, 51, 56
9, 173456, Note_on_c, 9, 42, 0
9, 173463, Note_on_c, 9, 51, 0
9, 173584, Note_on_c, 9, 42, 27
9, 173712, Note_on_c, 9, 42, 0
9, 173712, Note_on_c, 9, 42, 24
9, 173731, Note_on_c, 9, 37, 90
9, 173840, Note_on_c, 9, 42, 0
9, 173859, Note_on_c, 9, 37, 0
9, 173968, Note_on_c, 9, 42, 40
9, 173968, Note_on_c, 9, 42, 0
9, 173975, Note_on_c, 9, 51, 58
9, 174096, Note_on_c, 9, 42, 18
9, 174096, Note_on_c, 9, 42, 0
9, 174352, Note_on_c, 9, 42, 42
9, 174352, Note_on_c, 9, 42, 0
9, 174480, Note_on_c, 9, 42, 29
9, 174480, Note_on_c, 9, 42, 0
9, 174499, Note_on_c, 9, 37, 91
9, 174615, Note_on_c, 9, 51, 0
9, 174627, Note_on_c, 9, 37, 0
9, 174736, Note_on_c, 9, 42, 38
9, 174736, Note_on_c, 9, 42, 0
9, 174864, Note_on_c, 9, 42, 30
9, 174871, Note_on_c, 9, 51, 37
9, 174992, Note_on_c, 9, 42, 0
9, 175120, Note_on_c, 9, 42, 27
9, 175127, Note_on_c, 9, 51, 0
9, 175248, Note_on_c, 9, 42, 0
9, 175248, Note_on_c, 9, 42, 24
9, 175267, Note_on_c, 9, 37, 90
9, 175376, Note_on_c, 9, 42, 0
9, 175395, Note_on_c, 9, 37, 0
9, 175504, Note_on_c, 9, 42, 40
9, 175504, Note_on_c, 9, 42, 0
9, 175511, Note_on_c, 9, 51, 48
9, 175632, Note_on_c, 9, 42, 18
9, 175632, Note_on_c, 9, 42, 0
9, 175888, Note_on_c, 9, 37, 64
9, 175888, Note_on_c, 9, 42, 42
9, 175888, Note_on_c, 9, 42, 0
9, 175895, Note_on_c, 9, 51, 0
9, 176016, Note_on_c, 9, 37, 0
9, 176016, Note_on_c, 9, 42, 29
9, 176016, Note_on_c, 9, 42, 0
9, 176023, Note_on_c, 9, 51, 33
9, 176035, Note_on_c, 9, 37, 84
9, 176163, Note_on_c, 9, 37, 0
9, 176272, Note_on_c, 9, 42, 38
9, 176272, Note_on_c, 9, 42, 0
9, 176279, Note_on_c, 9, 51, 0
9, 176279, Note_on_c, 9, 51, 29
9, 176400, Note_on_c, 9, 42, 30
9, 176407, Note_on_c, 9, 51, 0
9, 176407, Note_on_c, 9, 51, 34
9, 176528, Note_on_c, 9, 42, 0
9, 176535, Note_on_c, 9, 51, 0
9, 176656, Note_on_c, 9, 42, 27
9, 176784, Note_on_c, 9, 42, 0
9, 176784, Note_on_c, 9, 42, 24
9, 176803, Note_on_c, 9, 37, 90
9, 176912, Note_on_c, 9, 42, 0
9, 176931, Note_on_c, 9, 37, 0
9, 177040, Note_on_c, 9, 42, 40
9, 177040, Note_on_c, 9, 42, 0
9, 177047, Note_on_c, 9, 51, 65
9, 177168, Note_on_c, 9, 42, 18
9, 177168, Note_on_c, 9, 42, 0
9, 177424, Note_on_c, 9, 37, 50
9, 177424, Note_on_c, 9, 37, 0
9, 177424, Note_on_c, 9, 42, 42
9, 177424, Note_on_c, 9, 42, 0
9, 177431, Note_on_c, 9, 51, 0
9, 177552, Note_on_c, 9, 42, 29
9, 177552, Note_on_c, 9, 42, 0
9, 177571, Note_on_c, 9, 37, 85
9, 177699, Note_on_c, 9, 37, 0
9, 177808, Note_on_c, 9, 42, 38
9, 177808, Note_on_c, 9, 42, 0
9, 177936, Note_on_c, 9, 42, 30
9, 177943, Note_on_c, 9, 51, 58
9, 178064, Note_on_c, 9, 42, 0
9, 178071, Note_on_c, 9, 51, 0
9, 178083, Note_on_c, 9, 37, 26
9, 178083, Note_on_c, 9, 37, 0
9, 178192, Note_on_c, 9, 42, 27
9, 178211, Note_on_c, 9, 37, 66
9, 178312, Note_on_c, 9, 42, 0
9, 178312, Note_on_c, 9, 42, 24
9, 178331, Note_on_c, 9, 37, 0
9, 178448, Note_on_c, 9, 42, 0
9, 178467, Note_on_c, 9, 37, 25
9, 178467, Note_on_c, 9, 37, 0
9, 178576, Note_on_c, 9, 42, 40
9, 178576, Note_on_c, 9, 42, 0
9, 178583, Note_on_c, 9, 51, 58
9, 178595, Note_on_c, 9, 37, 78
9, 178696, Note_on_c, 9, 42, 18
9, 178696, Note_on_c, 9, 42, 0
9, 178715, Note_on_c, 9, 37, 0
9, 178843, Note_on_c, 9, 37, 32
9, 178843, Note_on_c, 9, 37, 0
9, 178952, Note_on_c, 9, 42, 42
9, 178952, Note_on_c, 9, 42, 0
9, 178952, Note_on_c, 9, 37, 38
9, 178952, Note_on_c, 9, 37, 0
9, 178959, Note_on_c, 9, 51, 0
9, 178971, Note_on_c, 9, 37, 84
9, 179080, Note_on_c, 9, 42, 29
9, 179080, Note_on_c, 9, 42, 0
9, 179099, Note_on_c, 9, 37, 0
9, 179227, Note_on_c, 9, 37, 23
9, 179227, Note_on_c, 9, 37, 0
9, 179336, Note_on_c, 9, 42, 38
9, 179336, Note_on_c, 9, 42, 0
9, 179343, Note_on_c, 9, 51, 49
9, 179343, Note_on_c, 9, 51, 0
9, 179355, Note_on_c, 9, 37, 71
9, 179355, Note_on_c, 9, 37, 0
9, 179464, Note_on_c, 9, 42, 30
9, 179471, Note_on_c, 9, 51, 56
9, 179592, Note_on_c, 9, 42, 0
9, 179599, Note_on_c, 9, 51, 0
9, 179720, Note_on_c, 9, 42, 27
9, 179848, Note_on_c, 9, 42, 0
9, 179848, Note_on_c, 9, 42, 24
9, 179867, Note_on_c, 9, 37, 89
9, 179976, Note_on_c, 9, 42, 0
9, 179995, Note_on_c, 9, 37, 0
9, 180104, Note_on_c, 9, 42, 40
9, 180104, Note_on_c, 9, 42, 0
9, 180111, Note_on_c, 9, 51, 58
9, 180232, Note_on_c, 9, 42, 18
9, 180232, Note_on_c, 9, 42, 0
9, 180488, Note_on_c, 9, 42, 42
9, 180488, Note_on_c, 9, 42, 0
9, 180616, Note_on_c, 9, 42, 29
9, 180616, Note_on_c, 9, 42, 0
9, 180635, Note_on_c, 9, 37, 88
9, 180751, Note_on_c, 9, 51, 0
9, 180763, Note_on_c, 9, 37, 0
9, 180872, Note_on_c, 9, 42, 38
9, 180872, Note_on_c, 9, 42, 0
9, 181000, Note_on_c, 9, 42, 30
9, 181007, Note_on_c, 9, 51, 37
9, 181128, Note_on_c, 9, 42, 0
9, 181256, Note_on_c, 9, 42, 27
9, 181263, Note_on_c, 9, 51, 0
9, 181384, Note_on_c, 9, 42, 0
9, 181384, Note_on_c, 9, 42, 24
9, 181403, Note_on_c, 9, 37, 91
9, 181512, Note_on_c, 9, 42, 0
9, 181531, Note_on_c, 9, 37, 0
9, 181640, Note_on_c, 9, 42, 40
9, 181640, Note_on_c, 9, 42, 0
9, 181647, Note_on_c, 9, 51, 48
9, 181768, Note_on_c, 9, 42, 18
9, 181768, Note_on_c, 9, 42, 0
9, 182024, Note_on_c, 9, 42, 42
9, 182024, Note_on_c, 9, 42, 0
9, 182024, Note_on_c, 9, 37, 64
9, 182031, Note_on_c, 9, 51, 0
9, 182152, Note_on_c, 9, 37, 0
9, 182152, Note_on_c, 9, 42, 29
9, 182152, Note_on_c, 9, 42, 0
9, 182159, Note_on_c, 9, 51, 33
9, 182171, Note_on_c, 9, 37, 90
9, 182299, Note_on_c, 9, 37, 0
9, 182408, Note_on_c, 9, 42, 38
9, 182408, Note_on_c, 9, 42, 0
9, 182415, Note_on_c, 9, 51, 0
9, 182415, Note_on_c, 9, 51, 29
9, 182536, Note_on_c, 9, 42, 30
9, 182543, Note_on_c, 9, 51, 0
9, 182543, Note_on_c, 9, 51, 34
9, 182664, Note_on_c, 9, 42, 0
9, 182671, Note_on_c, 9, 51, 0
9, 182792, Note_on_c, 9, 42, 27
9, 182920, Note_on_c, 9, 42, 0
9, 182920, Note_on_c, 9, 42, 24
9, 182939, Note_on_c, 9, 37, 90
9, 183048, Note_on_c, 9, 42, 0
9, 183067, Note_on_c, 9, 37, 0
9, 183176, Note_on_c, 9, 42, 40
9, 183176, Note_on_c, 9, 42, 0
9, 183183, Note_on_c, 9, 51, 65
9, 183304, Note_on_c, 9, 42, 18
9, 183304, Note_on_c, 9, 42, 0
9, 183560, Note_on_c, 9, 37, 50
9, 183560, Note_on_c, 9, 37, 0
9, 183560, Note_on_c, 9, 42, 42
9, 183560, Note_on_c, 9, 42, 0
9, 183567, Note_on_c, 9, 51, 0
9, 183688, Note_on_c, 9, 42, 29
9, 183688, Note_on_c, 9, 42, 0
9, 183707, Note_on_c, 9, 37, 91
9, 183835, Note_on_c, 9, 37, 0
9, 183944, Note_on_c, 9, 42, 38
9, 183944, Note_on_c, 9, 42, 0
9, 184072, Note_on_c, 9, 42, 30
9, 184079, Note_on_c, 9, 51, 58
9, 184200, Note_on_c, 9, 42, 0
9, 184207, Note_on_c, 9, 51, 0
9, 184328, Note_on_c, 9, 42, 27
9, 184456, Note_on_c, 9, 42, 0
9, 184456, Note_on_c, 9, 42, 24
9, 184475, Note_on_c, 9, 37, 92
9, 184576, Note_on_c, 9, 42, 0
9, 184595, Note_on_c, 9, 37, 0
9, 184712, Note_on_c, 9, 42, 40
9, 184712, Note_on_c, 9, 42, 0
9, 184719, Note_on_c, 9, 51, 58
9, 184832, Note_on_c, 9, 42, 18
9, 184832, Note_on_c, 9, 42, 0
9, 185088, Note_on_c, 9, 42, 42
9, 185088, Note_on_c, 9, 42, 0
9, 185088, Note_on_c, 9, 37, 38
9, 185088, Note_on_c, 9, 37, 0
9, 185095, Note_on_c, 9, 51, 0
9, 185216, Note_on_c, 9, 42, 29
9, 185216, Note_on_c, 9, 42, 0
9, 185235, Note_on_c, 9, 37, 89
9, 185363, Note_on_c, 9, 37, 0
9, 185472, Note_on_c, 9, 42, 38
9, 185472, Note_on_c, 9, 42, 0
9, 185479, Note_on_c, 9, 51, 49
9, 185479, Note_on_c, 9, 51, 0
9, 185600, Note_on_c, 9, 42, 30
9, 185607, Note_on_c, 9, 51, 56
9, 185728, Note_on_c, 9, 42, 0
9, 185735, Note_on_c, 9, 51, 0
9, 185856, Note_on_c, 9, 42, 27
9, 185984, Note_on_c, 9, 42, 0
9, 185984, Note_on_c, 9, 42, 24
9, 186003, Note_on_c, 9, 37, 90
9, 186112, Note_on_c, 9, 42, 0
9, 186131, Note_on_c, 9, 37, 0
9, 186240, Note_on_c, 9, 42, 40
9, 186240, Note_on_c, 9, 42, 0
9, 186247, Note_on_c, 9, 51, 58
9, 186368, Note_on_c, 9, 42, 18
9, 186368, Note_on_c, 9, 42, 0
9, 186624, Note_on_c, 9, 42, 42
9, 186624, Note_on_c, 9, 42, 0
9, 186752, Note_on_c, 9, 42, 29
9, 186752, Note_on_c, 9, 42, 0
9, 186771, Note_on_c, 9, 37, 91
9, 186887, Note_on_c, 9, 51, 0
9, 186899, Note_on_c, 9, 37, 0
9, 187008, Note_on_c, 9, 42, 38
9, 187008, Note_on_c, 9, 42, 0
9, 187136, Note_on_c, 9, 42, 30
9, 187143, Note_on_c, 9, 51, 37
9, 187264, Note_on_c, 9, 42, 0
9, 187392, Note_on_c, 9, 42, 27
9, 187399, Note_on_c, 9, 51, 0
9, 187520, Note_on_c, 9, 42, 0
9, 187520, Note_on_c, 9, 42, 24
9, 187539, Note_on_c, 9, 37, 90
9, 187648, Note_on_c, 9, 42, 0
9, 187667, Note_on_c, 9, 37, 0
9, 187776, Note_on_c, 9, 42, 40
9, 187776, Note_on_c, 9, 42, 0
9, 187783, Note_on_c, 9, 51, 48
9, 187904, Note_on_c, 9, 42, 18
9, 187904, Note_on_c, 9, 42, 0
9, 188160, Note_on_c, 9, 37, 64
9, 188160, Note_on_c, 9, 42, 42
9, 188160, Note_on_c, 9, 42, 0
9, 188167, Note_on_c, 9, 51, 0
9, 188288, Note_on_c, 9, 37, 0
9, 188288, Note_on_c, 9, 42, 29
9, 188288, Note_on_c, 9, 42, 0
9, 188295, Note_on_c, 9, 51, 33
9, 188307, Note_on_c, 9, 37, 84
9, 188435, Note_on_c, 9, 37, 0
9, 188544, Note_on_c, 9, 42, 38
9, 188544, Note_on_c, 9, 42, 0
9, 188551, Note_on_c, 9, 51, 0
9, 188551, Note_on_c, 9, 51, 29
9, 188672, Note_on_c, 9, 42, 30
9, 188679, Note_on_c, 9, 51, 0
9, 188679, Note_on_c, 9, 51, 34
9, 188800, Note_on_c, 9, 42, 0
9, 188807, Note_on_c, 9, 51, 0
9, 188928, Note_on_c, 9, 42, 27
9, 189056, Note_on_c, 9, 42, 0
9, 189056, Note_on_c, 9, 42, 24
9, 189075, Note_on_c, 9, 37, 90
9, 189184, Note_on_c, 9, 42, 0
9, 189203, Note_on_c, 9, 37, 0
9, 189312, Note_on_c, 9, 42, 40
9, 189312, Note_on_c, 9, 42, 0
9, 189319, Note_on_c, 9, 51, 65
9, 189440, Note_on_c, 9, 42, 18
9, 189440, Note_on_c, 9, 42, 0
9, 189696, Note_on_c, 9, 42, 42
9, 189696, Note_on_c, 9, 42, 0
9, 189696, Note_on_c, 9, 37, 50
9, 189696, Note_on_c, 9, 37, 0
9, 189703, Note_on_c, 9, 51, 0
9, 189824, Note_on_c, 9, 42, 29
9, 189824, Note_on_c, 9, 42, 0
9, 189843, Note_on_c, 9, 37, 85
9, 189971, Note_on_c, 9, 37, 0
9, 190080, Note_on_c, 9, 42, 38
9, 190080, Note_on_c, 9, 42, 0
9, 190208, Note_on_c, 9, 42, 30
9, 190215, Note_on_c, 9, 51, 58
9, 190336, Note_on_c, 9, 42, 0
9, 190343, Note_on_c, 9, 51, 0
9, 190355, Note_on_c, 9, 37, 26
9, 190355, Note_on_c, 9, 37, 0
9, 190464, Note_on_c, 9, 42, 27
9, 190483, Note_on_c, 9, 37, 66
9, 190592, Note_on_c, 9, 42, 0
9, 190592, Note_on_c, 9, 42, 24
9, 190611, Note_on_c, 9, 37, 0
9, 190712, Note_on_c, 9, 42, 0
9, 190731, Note_on_c, 9, 37, 25
9, 190731, Note_on_c, 9, 37, 0
9, 190840, Note_on_c, 9, 42, 40
9, 190840, Note_on_c, 9, 42, 0
9, 190847, Note_on_c, 9, 51, 58
9, 190859, Note_on_c, 9, 37, 78
9, 190968, Note_on_c, 9, 42, 18
9, 190968, Note_on_c, 9, 42, 0
9, 190987, Note_on_c, 9, 37, 0
9, 191115, Note_on_c, 9, 37, 32
9, 191115, Note_on_c, 9, 37, 0
9, 191224, Note_on_c, 9, 37, 38
9, 191224, Note_on_c, 9, 37, 0
9, 191224, Note_on_c, 9, 42, 42
9, 191224, Note_on_c, 9, 42, 0
9, 191231, Note_on_c, 9, 51, 0
9, 191243, Note_on_c, 9, 37, 84
9, 191352, Note_on_c, 9, 42, 29
9, 191352, Note_on_c, 9, 42, 0
9, 191371, Note_on_c, 9, 37, 0
9, 191499, Note_on_c, 9, 37, 23
9, 191499, Note_on_c, 9, 37, 0
9, 191608, Note_on_c, 9, 42, 38
9, 191608, Note_on_c, 9, 42, 0
9, 191615, Note_on_c, 9, 51, 49
9, 191615, Note_on_c, 9, 51, 0
9, 191627, Note_on_c, 9, 37, 71
9, 191627, Note_on_c, 9, 37, 0
9, 191736, Note_on_c, 9, 42, 30
9, 191743, Note_on_c, 9, 51, 56
9, 191864, Note_on_c, 9, 42, 0
9, 191871, Note_on_c, 9, 51, 0
9, 191992, Note_on_c, 9, 42, 27
9, 192120, Note_on_c, 9, 42, 0
9, 192120, Note_on_c, 9, 42, 24
9, 192139, Note_on_c, 9, 37, 89
9, 192248, Note_on_c, 9, 42, 0
9, 192267, Note_on_c, 9, 37, 0
9, 192376, Note_on_c, 9, 42, 40
9, 192376, Note_on_c, 9, 42, 0
9, 192383, Note_on_c, 9, 51, 58
9, 192504, Note_on_c, 9, 42, 18
9, 192504, Note_on_c, 9, 42, 0
9, 192760, Note_on_c, 9, 42, 42
9, 192760, Note_on_c, 9, 42, 0
9, 192888, Note_on_c, 9, 42, 29
9, 192888, Note_on_c, 9, 42, 0
9, 192907, Note_on_c, 9, 37, 88
9, 193023, Note_on_c, 9, 51, 0
9, 193035, Note_on_c, 9, 37, 0
9, 193144, Note_on_c, 9, 42, 38
9, 193144, Note_on_c, 9, 42, 0
9, 193272, Note_on_c, 9, 42, 30
9, 193279, Note_on_c, 9, 51, 37
9, 193400, Note_on_c, 9, 42, 0
9, 193528, Note_on_c, 9, 42, 27
9, 193535, Note_on_c, 9, 51, 0
9, 193656, Note_on_c, 9, 42, 0
9, 193656, Note_on_c, 9, 42, 24
9, 193675, Note_on_c, 9, 37, 91
9, 193784, Note_on_c, 9, 42, 0
9, 193803, Note_on_c, 9, 37, 0
9, 193912, Note_on_c, 9, 42, 40
9, 193912, Note_on_c, 9, 42, 0
9, 193919, Note_on_c, 9, 51, 48
9, 194040, Note_on_c, 9, 42, 18
9, 194040, Note_on_c, 9, 42, 0
9, 194296, Note_on_c, 9, 37, 64
9, 194296, Note_on_c, 9, 42, 42
9, 194296, Note_on_c, 9, 42, 0
9, 194303, Note_on_c, 9, 51, 0
9, 194424, Note_on_c, 9, 37, 0
9, 194424, Note_on_c, 9, 42, 29
9, 194424, Note_on_c, 9, 42, 0
9, 194431, Note_on_c, 9, 51, 33
9, 194443, Note_on_c, 9, 37, 90
9, 194571, Note_on_c, 9, 37, 0
9, 194680, Note_on_c, 9, 42, 38
9, 194680, Note_on_c, 9, 42, 0
9, 194687, Note_on_c, 9, 51, 0
9, 194687, Note_on_c, 9, 51, 29
9, 194808, Note_on_c, 9, 42, 30
9, 194815, Note_on_c, 9, 51, 0
9, 194815, Note_on_c, 9, 51, 34
9, 194936, Note_on_c, 9, 42, 0
9, 194943, Note_on_c, 9, 51, 0
9, 195064, Note_on_c, 9, 42, 27
9, 195192, Note_on_c, 9, 42, 0
9, 195192, Note_on_c, 9, 42, 24
9, 195211, Note_on_c, 9, 37, 90
9, 195320, Note_on_c, 9, 42, 0
9, 195339, Note_on_c, 9, 37, 0
9, 195448, Note_on_c, 9, 42, 40
9, 195448, Note_on_c, 9, 42, 0
9, 195455, Note_on_c, 9, 51, 65
9, 195576, Note_on_c, 9, 42, 18
9, 195576, Note_on_c, 9, 42, 0
9, 195832, Note_on_c, 9, 42, 42
9, 195832, Note_on_c, 9, 42, 0
9, 195832, Note_on_c, 9, 37, 50
9, 195832, Note_on_c, 9, 37, 0
9, 195839, Note_on_c, 9, 51, 0
9, 195960, Note_on_c, 9, 42, 29
9, 195960, Note_on_c, 9, 42, 0
9, 195979, Note_on_c, 9, 37, 91
9, 196107, Note_on_c, 9, 37, 0
9, 196216, Note_on_c, 9, 42, 38
9, 196216, Note_on_c, 9, 42, 0
9, 196336, Note_on_c, 9, 42, 30
9, 196343, Note_on_c, 9, 51, 58
9, 196464, Note_on_c, 9, 42, 0
9, 196471, Note_on_c, 9, 51, 0
9, 196592, Note_on_c, 9, 42, 27
9, 196720, Note_on_c, 9, 42, 0
9, 196720, Note_on_c, 9, 42, 24
9, 196739, Note_on_c, 9, 37, 92
9, 196848, Note_on_c, 9, 42, 0
9, 196867, Note_on_c, 9, 37, 0
9, 196976, Note_on_c, 9, 42, 40
9, 196976, Note_on_c, 9, 42, 0
9, 196983, Note_on_c, 9, 51, 58
9, 197104, Note_on_c, 9, 42, 18
9, 197104, Note_on_c, 9, 42, 0
9, 197360, Note_on_c, 9, 42, 42
9, 197360, Note_on_c, 9, 42, 0
9, 197360, Note_on_c, 9, 37, 38
9, 197360, Note_on_c, 9, 37, 0
9, 197367, Note_on_c, 9, 51, 0
9, 197488, Note_on_c, 9, 42, 29
9, 197488, Note_on_c, 9, 42, 0
9, 197507, Note_on_c, 9, 37, 89
9, 197635, Note_on_c, 9, 37, 0
9, 197744, Note_on_c, 9, 42, 38
9, 197744, Note_on_c, 9, 42, 0
9, 197751, Note_on_c, 9, 51, 49
9, 197751, Note_on_c, 9, 51, 0
9, 197887, Note_on_c, 9, 51, 40
9, 198007, Note_on_c, 9, 51, 0
9, 198263, Note_on_c, 9, 51, 63
9, 198275, Note_on_c, 9, 37, 111
9, 198403, Note_on_c, 9, 37, 0
9, 198519, Note_on_c, 9, 51, 0
9, 198519, Note_on_c, 9, 51, 41
9, 198647, Note_on_c, 9, 51, 0
9, 198647, Note_on_c, 9, 51, 71
9, 198903, Note_on_c, 9, 51, 0
9, 199031, Note_on_c, 9, 51, 61
9, 199043, Note_on_c, 9, 37, 111
9, 199159, Note_on_c, 9, 51, 0
9, 199171, Note_on_c, 9, 37, 0
9, 199287, Note_on_c, 9, 51, 38
9, 199415, Note_on_c, 9, 51, 0
9, 199415, Note_on_c, 9, 51, 56
9, 199671, Note_on_c, 9, 51, 0
9, 199799, Note_on_c, 9, 51, 68
9, 199811, Note_on_c, 9, 37, 89
9, 199811, Note_on_c, 9, 37, 0
9, 199927, Note_on_c, 9, 51, 0
9, 200055, Note_on_c, 9, 51, 44
9, 200183, Note_on_c, 9, 51, 0
9, 200183, Note_on_c, 9, 51, 69
9, 200439, Note_on_c, 9, 51, 0
9, 200567, Note_on_c, 9, 51, 71
9, 200579, Note_on_c, 9, 37, 107
9, 200695, Note_on_c, 9, 51, 0
9, 200823, Note_on_c, 9, 51, 30
9, 200835, Note_on_c, 9, 37, 0
9, 200951, Note_on_c, 9, 51, 0
9, 200951, Note_on_c, 9, 51, 59
9, 201207, Note_on_c, 9, 51, 0
9, 201335, Note_on_c, 9, 51, 66
9, 201347, Note_on_c, 9, 37, 99
9, 201475, Note_on_c, 9, 37, 0
9, 201591, Note_on_c, 9, 51, 0
9, 201591, Note_on_c, 9, 51, 31
9, 201719, Note_on_c, 9, 51, 0
9, 201719, Note_on_c, 9, 51, 63
9, 201975, Note_on_c, 9, 51, 0
9, 202103, Note_on_c, 9, 51, 67
9, 202115, Note_on_c, 9, 37, 107
9, 202351, Note_on_c, 9, 51, 0
9, 202351, Note_on_c, 9, 51, 37
9, 202363, Note_on_c, 9, 37, 0
9, 202479, Note_on_c, 9, 51, 0
9, 202479, Note_on_c, 9, 51, 60
9, 202735, Note_on_c, 9, 51, 0
9, 202863, Note_on_c, 9, 51, 69
9, 202875, Note_on_c, 9, 37, 111
9, 203119, Note_on_c, 9, 51, 0
9, 203119, Note_on_c, 9, 51, 46
9, 203131, Note_on_c, 9, 37, 0
9, 203247, Note_on_c, 9, 51, 0
9, 203247, Note_on_c, 9, 51, 71
9, 203503, Note_on_c, 9, 51, 0
9, 203631, Note_on_c, 9, 51, 75
9, 203643, Note_on_c, 9, 37, 105
9, 203759, Note_on_c, 9, 51, 0
9, 203771, Note_on_c, 9, 37, 0
9, 203887, Note_on_c, 9, 51, 36
9, 204015, Note_on_c, 9, 51, 0
9, 204015, Note_on_c, 9, 51, 68
9, 204271, Note_on_c, 9, 51, 0
9, 204399, Note_on_c, 9, 51, 73
9, 204411, Note_on_c, 9, 37, 113
9, 204527, Note_on_c, 9, 51, 0
9, 204539, Note_on_c, 9, 37, 0
9, 204655, Note_on_c, 9, 51, 38
9, 204783, Note_on_c, 9, 51, 0
9, 204783, Note_on_c, 9, 51, 64
9, 205039, Note_on_c, 9, 51, 0
9, 205167, Note_on_c, 9, 51, 72
9, 205179, Note_on_c, 9, 37, 117
9, 205295, Note_on_c, 9, 51, 0
9, 205307, Note_on_c, 9, 37, 0
9, 205423, Note_on_c, 9, 51, 36
9, 205423, Note_on_c, 9, 51, 0
9, 205551, Note_on_c, 9, 51, 59
9, 205807, Note_on_c, 9, 51, 0
9, 205935, Note_on_c, 9, 51, 75
9, 205947, Note_on_c, 9, 37, 109
9, 206063, Note_on_c, 9, 51, 0
9, 206075, Note_on_c, 9, 37, 0
9, 206191, Note_on_c, 9, 51, 33
9, 206319, Note_on_c, 9, 51, 0
9, 206319, Note_on_c, 9, 51, 73
9, 206575, Note_on_c, 9, 51, 0
9, 206703, Note_on_c, 9, 51, 79
9, 206715, Note_on_c, 9, 37, 111
9, 206831, Note_on_c, 9, 51, 0
9, 206843, Note_on_c, 9, 37, 0
9, 206959, Note_on_c, 9, 51, 28
9, 206959, Note_on_c, 9, 51, 0
9, 207087, Note_on_c, 9, 51, 55
9, 207343, Note_on_c, 9, 51, 0
9, 207471, Note_on_c, 9, 51, 75
9, 207483, Note_on_c, 9, 37, 111
9, 207611, Note_on_c, 9, 37, 0
9, 207727, Note_on_c, 9, 51, 0
9, 207727, Note_on_c, 9, 51, 37
9, 207855, Note_on_c, 9, 51, 0
9, 207855, Note_on_c, 9, 51, 68
9, 208111, Note_on_c, 9, 51, 0
9, 208231, Note_on_c, 9, 51, 75
9, 208243, Note_on_c, 9, 37, 83
9, 208495, Note_on_c, 9, 51, 0
9, 208495, Note_on_c, 9, 51, 44
9, 208507, Note_on_c, 9, 37, 0
9, 208615, Note_on_c, 9, 51, 0
9, 208615, Note_on_c, 9, 51, 71
9, 208871, Note_on_c, 9, 51, 0
9, 208999, Note_on_c, 9, 51, 68
9, 209011, Note_on_c, 9, 37, 101
9, 209255, Note_on_c, 9, 51, 0
9, 209267, Note_on_c, 9, 37, 0
9, 209383, Note_on_c, 9, 51, 81
9, 209639, Note_on_c, 9, 51, 0
9, 209639, Note_on_c, 9, 51, 59
9, 209767, Note_on_c, 9, 51, 0
9, 209767, Note_on_c, 9, 51, 68
9, 209779, Note_on_c, 9, 37, 87
9, 209907, Note_on_c, 9, 37, 0
9, 210023, Note_on_c, 9, 51, 0
9, 210023, Note_on_c, 9, 57, 109
9, 210023, Note_on_c, 9, 57, 0
9, 210151, Note_on_c, 9, 51, 40
9, 210279, Note_on_c, 9, 51, 0
9, 210535, Note_on_c, 9, 51, 63
9, 210547, Note_on_c, 9, 37, 83
9, 210675, Note_on_c, 9, 37, 0
9, 210791, Note_on_c, 9, 51, 0
9, 210791, Note_on_c, 9, 51, 41
9, 210919, Note_on_c, 9, 51, 0
9, 210919, Note_on_c, 9, 51, 71
9, 211175, Note_on_c, 9, 51, 0
9, 211303, Note_on_c, 9, 51, 61
9, 211315, Note_on_c, 9, 37, 95
9, 211431, Note_on_c, 9, 51, 0
9, 211443, Note_on_c, 9, 37, 0
9, 211559, Note_on_c, 9, 51, 38
9, 211687, Note_on_c, 9, 51, 0
9, 211687, Note_on_c, 9, 51, 56
9, 211943, Note_on_c, 9, 51, 0
9, 212071, Note_on_c, 9, 51, 68
9, 212083, Note_on_c, 9, 37, 91
9, 212199, Note_on_c, 9, 51, 0
9, 212211, Note_on_c, 9, 37, 0
9, 212327, Note_on_c, 9, 51, 44
9, 212455, Note_on_c, 9, 51, 0
9, 212455, Note_on_c, 9, 51, 69
9, 212711, Note_on_c, 9, 51, 0
9, 212839, Note_on_c, 9, 51, 71
9, 212851, Note_on_c, 9, 37, 93
9, 212967, Note_on_c, 9, 51, 0
9, 212979, Note_on_c, 9, 37, 0
9, 213095, Note_on_c, 9, 51, 30
9, 213223, Note_on_c, 9, 51, 0
9, 213223, Note_on_c, 9, 51, 59
9, 213479, Note_on_c, 9, 51, 0
9, 213607, Note_on_c, 9, 51, 66
9, 213619, Note_on_c, 9, 37, 93
9, 213747, Note_on_c, 9, 37, 0
9, 213863, Note_on_c, 9, 51, 0
9, 213863, Note_on_c, 9, 51, 31
9, 213991, Note_on_c, 9, 51, 0
9, 213991, Note_on_c, 9, 51, 63
9, 214247, Note_on_c, 9, 51, 0
9, 214375, Note_on_c, 9, 51, 67
9, 214387, Note_on_c, 9, 37, 113
9, 214507, Note_on_c, 9, 37, 0
9, 214623, Note_on_c, 9, 51, 0
9, 214623, Note_on_c, 9, 51, 37
9, 214623, Note_on_c, 9, 57, 95
9, 214635, Note_on_c, 9, 37, 97
9, 214635, Note_on_c, 9, 37, 0
9, 214751, Note_on_c, 9, 57, 0
9, 214751, Note_on_c, 9, 51, 0
9, 214751, Note_on_c, 9, 51, 60
9, 215007, Note_on_c, 9, 51, 0
9, 215135, Note_on_c, 9, 51, 69
9, 215391, Note_on_c, 9, 51, 0
9, 215391, Note_on_c, 9, 51, 46
9, 215519, Note_on_c, 9, 51, 0
9, 215519, Note_on_c, 9, 51, 71
9, 215775, Note_on_c, 9, 51, 0
9, 215903, Note_on_c, 9, 51, 75
9, 215915, Note_on_c, 9, 37, 122
9, 216031, Note_on_c, 9, 51, 0
9, 216043, Note_on_c, 9, 37, 0
9, 216159, Note_on_c, 9, 51, 36
9, 216287, Note_on_c, 9, 51, 0
9, 216287, Note_on_c, 9, 51, 68
9, 216543, Note_on_c, 9, 51, 0
9, 216664, Note_on_c, 9, 70, 46
9, 216664, Note_on_c, 9, 70, 0
9, 216671, Note_on_c, 9, 51, 73
9, 216683, Note_on_c, 9, 37, 95
9, 216799, Note_on_c, 9, 51, 0
9, 216811, Note_on_c, 9, 37, 0
9, 216927, Note_on_c, 9, 51, 38
9, 217055, Note_on_c, 9, 51, 0
9, 217055, Note_on_c, 9, 51, 64
9, 217311, Note_on_c, 9, 51, 0
9, 217439, Note_on_c, 9, 51, 72
9, 217451, Note_on_c, 9, 37, 113
9, 217451, Note_on_c, 9, 37, 0
9, 217567, Note_on_c, 9, 51, 0
9, 217695, Note_on_c, 9, 51, 36
9, 217695, Note_on_c, 9, 51, 0
9, 217823, Note_on_c, 9, 51, 59
9, 218079, Note_on_c, 9, 51, 0
9, 218207, Note_on_c, 9, 51, 75
9, 218219, Note_on_c, 9, 37, 59
9, 218219, Note_on_c, 9, 37, 0
9, 218335, Note_on_c, 9, 51, 0
9, 218463, Note_on_c, 9, 51, 33
9, 218591, Note_on_c, 9, 51, 0
9, 218591, Note_on_c, 9, 51, 73
9, 218847, Note_on_c, 9, 51, 0
9, 218975, Note_on_c, 9, 51, 79
9, 218987, Note_on_c, 9, 37, 111
9, 219103, Note_on_c, 9, 51, 0
9, 219115, Note_on_c, 9, 37, 0
9, 219231, Note_on_c, 9, 51, 28
9, 219231, Note_on_c, 9, 51, 0
9, 219359, Note_on_c, 9, 51, 55
9, 219615, Note_on_c, 9, 51, 0
9, 219743, Note_on_c, 9, 51, 75
9, 219755, Note_on_c, 9, 37, 115
9, 219755, Note_on_c, 9, 37, 0
9, 219999, Note_on_c, 9, 51, 0
9, 219999, Note_on_c, 9, 51, 37
9, 220119, Note_on_c, 9, 51, 0
9, 220119, Note_on_c, 9, 51, 68
9, 220375, Note_on_c, 9, 51, 0
9, 220503, Note_on_c, 9, 51, 75
9, 220515, Note_on_c, 9, 37, 115
9, 220643, Note_on_c, 9, 37, 0
9, 220759, Note_on_c, 9, 51, 0
9, 220759, Note_on_c, 9, 51, 44
9, 220887, Note_on_c, 9, 51, 0
9, 220887, Note_on_c, 9, 51, 71
9, 221143, Note_on_c, 9, 51, 0
9, 221271, Note_on_c, 9, 51, 68
9, 221283, Note_on_c, 9, 37, 111
9, 221411, Note_on_c, 9, 37, 0
9, 221527, Note_on_c, 9, 51, 0
9, 221655, Note_on_c, 9, 51, 81
9, 221911, Note_on_c, 9, 51, 0
9, 221911, Note_on_c, 9, 51, 59
9, 222039, Note_on_c, 9, 51, 0
9, 222039, Note_on_c, 9, 51, 68
9, 222051, Note_on_c, 9, 37, 105
9, 222051, Note_on_c, 9, 37, 0
9, 222295, Note_on_c, 9, 51, 0
9, 222295, Note_on_c, 9, 57, 101
9, 222295, Note_on_c, 9, 57, 0
9, 222423, Note_on_c, 9, 51, 40
9, 222551, Note_on_c, 9, 51, 0
9, 222807, Note_on_c, 9, 51, 63
9, 222819, Note_on_c, 9, 37, 111
9, 222947, Note_on_c, 9, 37, 0
9, 223063, Note_on_c, 9, 51, 0
9, 223063, Note_on_c, 9, 51, 41
9, 223191, Note_on_c, 9, 51, 0
9, 223191, Note_on_c, 9, 51, 71
9, 223447, Note_on_c, 9, 51, 0
9, 223575, Note_on_c, 9, 51, 61
9, 223587, Note_on_c, 9, 37, 111
9, 223703, Note_on_c, 9, 51, 0
9, 223715, Note_on_c, 9, 37, 0
9, 223831, Note_on_c, 9, 51, 38
9, 223959, Note_on_c, 9, 51, 0
9, 223959, Note_on_c, 9, 51, 56
9, 224215, Note_on_c, 9, 51, 0
9, 224343, Note_on_c, 9, 51, 68
9, 224355, Note_on_c, 9, 37, 89
9, 224355, Note_on_c, 9, 37, 0
9, 224471, Note_on_c, 9, 51, 0
9, 224599, Note_on_c, 9, 51, 44
9, 224727, Note_on_c, 9, 51, 0
9, 224727, Note_on_c, 9, 51, 69
9, 224983, Note_on_c, 9, 51, 0
9, 225111, Note_on_c, 9, 51, 71
9, 225123, Note_on_c, 9, 37, 107
9, 225239, Note_on_c, 9, 51, 0
9, 225367, Note_on_c, 9, 51, 30
9, 225379, Note_on_c, 9, 37, 0
9, 225495, Note_on_c, 9, 51, 0
9, 225495, Note_on_c, 9, 51, 59
9, 225751, Note_on_c, 9, 51, 0
9, 225879, Note_on_c, 9, 51, 66
9, 225891, Note_on_c, 9, 37, 99
9, 226019, Note_on_c, 9, 37, 0
9, 226127, Note_on_c, 9, 51, 0
9, 226127, Note_on_c, 9, 51, 31
9, 226255, Note_on_c, 9, 51, 0
9, 226255, Note_on_c, 9, 51, 63
9, 226519, Note_on_c, 9, 51, 0
9, 226639, Note_on_c, 9, 51, 67
9, 226651, Note_on_c, 9, 37, 107
9, 226895, Note_on_c, 9, 51, 0
9, 226895, Note_on_c, 9, 51, 37
9, 226907, Note_on_c, 9, 37, 0
9, 227023, Note_on_c, 9, 51, 0
9, 227023, Note_on_c, 9, 51, 60
9, 227279, Note_on_c, 9, 51, 0
9, 227407, Note_on_c, 9, 51, 69
9, 227419, Note_on_c, 9, 37, 111
9, 227663, Note_on_c, 9, 51, 0
9, 227663, Note_on_c, 9, 51, 46
9, 227675, Note_on_c, 9, 37, 0
9, 227791, Note_on_c, 9, 51, 0
9, 227791, Note_on_c, 9, 51, 71
9, 228047, Note_on_c, 9, 51, 0
9, 228175, Note_on_c, 9, 51, 75
9, 228187, Note_on_c, 9, 37, 105
9, 228303, Note_on_c, 9, 51, 0
9, 228315, Note_on_c, 9, 37, 0
9, 228431, Note_on_c, 9, 51, 36
9, 228559, Note_on_c, 9, 51, 0
9, 228559, Note_on_c, 9, 51, 68
9, 228815, Note_on_c, 9, 51, 0
9, 228943, Note_on_c, 9, 51, 73
9, 228955, Note_on_c, 9, 37, 113
9, 229071, Note_on_c, 9, 51, 0
9, 229083, Note_on_c, 9, 37, 0
9, 229199, Note_on_c, 9, 51, 38
9, 229327, Note_on_c, 9, 51, 0
9, 229327, Note_on_c, 9, 51, 64
9, 229583, Note_on_c, 9, 51, 0
9, 229711, Note_on_c, 9, 51, 72
9, 229723, Note_on_c, 9, 37, 117
9, 229839, Note_on_c, 9, 51, 0
9, 229851, Note_on_c, 9, 37, 0
9, 229967, Note_on_c, 9, 51, 36
9, 229967, Note_on_c, 9, 51, 0
9, 230095, Note_on_c, 9, 51, 59
9, 230351, Note_on_c, 9, 51, 0
9, 230479, Note_on_c, 9, 51, 75
9, 230491, Note_on_c, 9, 37, 109
9, 230607, Note_on_c, 9, 51, 0
9, 230619, Note_on_c, 9, 37, 0
9, 230735, Note_on_c, 9, 51, 33
9, 230863, Note_on_c, 9, 51, 0
9, 230863, Note_on_c, 9, 51, 73
9, 231119, Note_on_c, 9, 51, 0
9, 231247, Note_on_c, 9, 51, 79
9, 231259, Note_on_c, 9, 37, 111
9, 231375, Note_on_c, 9, 51, 0
9, 231387, Note_on_c, 9, 37, 0
9, 231503, Note_on_c, 9, 51, 28
9, 231503, Note_on_c, 9, 51, 0
9, 231631, Note_on_c, 9, 51, 55
9, 231887, Note_on_c, 9, 51, 0
9, 232015, Note_on_c, 9, 51, 75
9, 232027, Note_on_c, 9, 37, 111
9, 232155, Note_on_c, 9, 37, 0
9, 232271, Note_on_c, 9, 51, 0
9, 232271, Note_on_c, 9, 51, 37
9, 232399, Note_on_c, 9, 51, 0
9, 232399, Note_on_c, 9, 51, 68
9, 232647, Note_on_c, 9, 51, 0
9, 232775, Note_on_c, 9, 51, 75
9, 232787, Note_on_c, 9, 37, 83
9, 233031, Note_on_c, 9, 51, 0
9, 233031, Note_on_c, 9, 51, 44
9, 233043, Note_on_c, 9, 37, 0
9, 233159, Note_on_c, 9, 51, 0
9, 233159, Note_on_c, 9, 51, 71
9, 233415, Note_on_c, 9, 51, 0
9, 233543, Note_on_c, 9, 51, 68
9, 233555, Note_on_c, 9, 37, 101
9, 233799, Note_on_c, 9, 51, 0
9, 233811, Note_on_c, 9, 37, 0
9, 233927, Note_on_c, 9, 51, 81
9, 234183, Note_on_c, 9, 51, 0
9, 234183, Note_on_c, 9, 51, 59
9, 234311, Note_on_c, 9, 51, 0
9, 234311, Note_on_c, 9, 51, 68
9, 234323, Note_on_c, 9, 37, 87
9, 234451, Note_on_c, 9, 37, 0
9, 234567, Note_on_c, 9, 51, 0
9, 234567, Note_on_c, 9, 57, 109
9, 234567, Note_on_c, 9, 57, 0
9, 234695, Note_on_c, 9, 51, 40
9, 234823, Note_on_c, 9, 51, 0
9, 235079, Note_on_c, 9, 51, 63
9, 235091, Note_on_c, 9, 37, 83
9, 235219, Note_on_c, 9, 37, 0
9, 235335, Note_on_c, 9, 51, 0
9, 235335, Note_on_c, 9, 51, 41
9, 235463, Note_on_c, 9, 51, 0
9, 235463, Note_on_c, 9, 51, 71
9, 235719, Note_on_c, 9, 51, 0
9, 235847, Note_on_c, 9, 51, 61
9, 235859, Note_on_c, 9, 37, 95
9, 235975, Note_on_c, 9, 51, 0
9, 235987, Note_on_c, 9, 37, 0
9, 236103, Note_on_c, 9, 51, 38
9, 236231, Note_on_c, 9, 51, 0
9, 236231, Note_on_c, 9, 51, 56
9, 236487, Note_on_c, 9, 51, 0
9, 236615, Note_on_c, 9, 51, 68
9, 236627, Note_on_c, 9, 37, 91
9, 236743, Note_on_c, 9, 51, 0
9, 236755, Note_on_c, 9, 37, 0
9, 236871, Note_on_c, 9, 51, 44
9, 236999, Note_on_c, 9, 51, 0
9, 236999, Note_on_c, 9, 51, 69
9, 237255, Note_on_c, 9, 51, 0
9, 237383, Note_on_c, 9, 51, 71
9, 237395, Note_on_c, 9, 37, 93
9, 237511, Note_on_c, 9, 51, 0
9, 237523, Note_on_c, 9, 37, 0
9, 237639, Note_on_c, 9, 51, 30
9, 237767, Note_on_c, 9, 51, 0
9, 237767, Note_on_c, 9, 51, 59
9, 238023, Note_on_c, 9, 51, 0
9, 238151, Note_on_c, 9, 51, 66
9, 238163, Note_on_c, 9, 37, 93
9, 238283, Note_on_c, 9, 37, 0
9, 238399, Note_on_c, 9, 51, 0
9, 238399, Note_on_c, 9, 51, 31
9, 238527, Note_on_c, 9, 51, 0
9, 238527, Note_on_c, 9, 51, 63
9, 238783, Note_on_c, 9, 51, 0
9, 238911, Note_on_c, 9, 51, 67
9, 238923, Note_on_c, 9, 37, 113
9, 239051, Note_on_c, 9, 37, 0
9, 239167, Note_on_c, 9, 51, 0
9, 239167, Note_on_c, 9, 57, 95
9, 239167, Note_on_c, 9, 51, 37
9, 239179, Note_on_c, 9, 37, 97
9, 239179, Note_on_c, 9, 37, 0
9, 239295, Note_on_c, 9, 51, 0
9, 239295, Note_on_c, 9, 57, 0
9, 239295, Note_on_c, 9, 51, 60
9, 239551, Note_on_c, 9, 51, 0
9, 239679, Note_on_c, 9, 51, 69
9, 239935, Note_on_c, 9, 51, 0
9, 239935, Note_on_c, 9, 51, 46
9, 240063, Note_on_c, 9, 51, 0
9, 240063, Note_on_c, 9, 51, 71
9, 240319, Note_on_c, 9, 51, 0
9, 240447, Note_on_c, 9, 51, 75
9, 240459, Note_on_c, 9, 37, 122
9, 240575, Note_on_c, 9, 51, 0
9, 240587, Note_on_c, 9, 37, 0
9, 240703, Note_on_c, 9, 51, 36
9, 240831, Note_on_c, 9, 51, 0
9, 240831, Note_on_c, 9, 51, 68
9, 241087, Note_on_c, 9, 51, 0
9, 241208, Note_on_c, 9, 70, 46
9, 241208, Note_on_c, 9, 70, 0
9, 241215, Note_on_c, 9, 51, 73
9, 241227, Note_on_c, 9, 37, 95
9, 241343, Note_on_c, 9, 51, 0
9, 241355, Note_on_c, 9, 37, 0
9, 241471, Note_on_c, 9, 51, 38
9, 241599, Note_on_c, 9, 51, 0
9, 241599, Note_on_c, 9, 51, 64
9, 241855, Note_on_c, 9, 51, 0
9, 241983, Note_on_c, 9, 51, 72
9, 241995, Note_on_c, 9, 37, 113
9, 241995, Note_on_c, 9, 37, 0
9, 242111, Note_on_c, 9, 51, 0
9, 242239, Note_on_c, 9, 51, 36
9, 242239, Note_on_c, 9, 51, 0
9, 242367, Note_on_c, 9, 51, 59
9, 242623, Note_on_c, 9, 51, 0
9, 242751, Note_on_c, 9, 51, 75
9, 242763, Note_on_c, 9, 37, 59
9, 242763, Note_on_c, 9, 37, 0
9, 242879, Note_on_c, 9, 51, 0
9, 243007, Note_on_c, 9, 51, 33
9, 243135, Note_on_c, 9, 51, 0
9, 243135, Note_on_c, 9, 51, 73
9, 243391, Note_on_c, 9, 51, 0
9, 243519, Note_on_c, 9, 51, 79
9, 243531, Note_on_c, 9, 37, 111
9, 243647, Note_on_c, 9, 51, 0
9, 243659, Note_on_c, 9, 37, 0
9, 243775, Note_on_c, 9, 51, 28
9, 243775, Note_on_c, 9, 51, 0
9, 243903, Note_on_c, 9, 51, 55
9, 244151, Note_on_c, 9, 51, 0
9, 244279, Note_on_c, 9, 51, 75
9, 244291, Note_on_c, 9, 37, 115
9, 244291, Note_on_c, 9, 37, 0
9, 244535, Note_on_c, 9, 51, 0
9, 244535, Note_on_c, 9, 51, 37
9, 244663, Note_on_c, 9, 51, 0
9, 244663, Note_on_c, 9, 51, 68
9, 244919, Note_on_c, 9, 51, 0
9, 245047, Note_on_c, 9, 51, 75
9, 245059, Note_on_c, 9, 37, 115
9, 245187, Note_on_c, 9, 37, 0
9, 245303, Note_on_c, 9, 51, 0
9, 245303, Note_on_c, 9, 51, 44
9, 245431, Note_on_c, 9, 51, 0
9, 245431, Note_on_c, 9, 51, 71
9, 245687, Note_on_c, 9, 51, 0
9, 245815, Note_on_c, 9, 51, 68
9, 245827, Note_on_c, 9, 37, 111
9, 245955, Note_on_c, 9, 37, 0
9, 246071, Note_on_c, 9, 51, 0
9, 246199, Note_on_c, 9, 51, 81
9, 246455, Note_on_c, 9, 51, 0
9, 246455, Note_on_c, 9, 51, 59
9, 246583, Note_on_c, 9, 51, 0
9, 246583, Note_on_c, 9, 51, 68
9, 246595, Note_on_c, 9, 37, 105
9, 246595, Note_on_c, 9, 37, 0
9, 246839, Note_on_c, 9, 51, 0
9, 246839, Note_on_c, 9, 57, 30
9, 246839, Note_on_c, 9, 57, 0
9, 246967, Note_on_c, 9, 51, 38
9, 247095, Note_on_c, 9, 51, 0
9, 247351, Note_on_c, 9, 51, 45
9, 247363, Note_on_c, 9, 37, 70
9, 247479, Note_on_c, 9, 51, 0
9, 247491, Note_on_c, 9, 37, 0
9, 247607, Note_on_c, 9, 51, 29
9, 247735, Note_on_c, 9, 51, 0
9, 247735, Note_on_c, 9, 51, 31
9, 247863, Note_on_c, 9, 51, 0
9, 248119, Note_on_c, 9, 51, 33
9, 248131, Note_on_c, 9, 37, 73
9, 248247, Note_on_c, 9, 51, 0
9, 248259, Note_on_c, 9, 37, 0
9, 248375, Note_on_c, 9, 51, 26
9, 248503, Note_on_c, 9, 51, 0
9, 248503, Note_on_c, 9, 51, 23
9, 248631, Note_on_c, 9, 51, 0
9, 248887, Note_on_c, 9, 51, 23
9, 248899, Note_on_c, 9, 37, 60
9, 249015, Note_on_c, 9, 51, 0
9, 249027, Note_on_c, 9, 37, 0
9, 249271, Note_on_c, 9, 51, 22
9, 249399, Note_on_c, 9, 51, 0
9, 249667, Note_on_c, 9, 37, 38
9, 249795, Note_on_c, 9, 37, 0
9, 250415, Note_on_c, 9, 51, 19
9, 250415, Note_on_c, 9, 51, 0
9, 250427, Note_on_c, 9, 37, 29
9, 250555, Note_on_c, 9, 37, 0
9, 250799, Note_on_c, 9, 51, 26
9, 250927, Note_on_c, 9, 51, 0
9, 251183, Note_on_c, 9, 51, 20
9, 251195, Note_on_c, 9, 37, 32
9, 251311, Note_on_c, 9, 51, 0
9, 251323, Note_on_c, 9, 37, 0
9, 251567, Note_on_c, 9, 51, 16
9, 251695, Note_on_c, 9, 51, 0
9, 251963, Note_on_c, 9, 37, 35
9, 252091, Note_on_c, 9, 37, 0
9, 252335, Note_on_c, 9, 51, 16
9, 252463, Note_on_c, 9, 51, 0
9, 252731, Note_on_c, 9, 37, 29
9, 252859, Note_on_c, 9, 37, 0
9, 253103, Note_on_c, 9, 51, 16
9, 253231, Note_on_c, 9, 51, 0
9, 253499, Note_on_c, 9, 37, 26
9, 253499, Note_on_c, 9, 37, 0
9, 254267, Note_on_c, 9, 37, 30
9, 254395, Note_on_c, 9, 37, 0
9, 255023, Note_on_c, 9, 51, 19
9, 255035, Note_on_c, 9, 37, 30
9, 255151, Note_on_c, 9, 51, 0
9, 255163, Note_on_c, 9, 37, 0
9, 255791, Note_on_c, 9, 51, 19
9, 255803, Note_on_c, 9, 37, 28
9, 255919, Note_on_c, 9, 51, 0
9, 255931, Note_on_c, 9, 37, 0
9, 256176, Control_c, 9, 123, 0
9, 256176, End_track
10, 0, Start_track
10, 0, MIDI_port, 1
10, 0, Title_t, "Melody"
10, 0, Program_c, 7, 73
10, 13722, Note_on_c, 7, 71, 58
10, 13751, Note_on_c, 7, 71, 0
10, 13831, Note_on_c, 7, 73, 90
10, 13840, Note_on_c, 7, 72, 58
10, 13869, Note_on_c, 7, 72, 0
10, 13955, Note_on_c, 7, 73, 0
10, 14196, Note_on_c, 7, 72, 79
10, 14216, Note_on_c, 7, 73, 78
10, 14252, Note_on_c, 7, 72, 0
10, 14384, Note_on_c, 7, 73, 0
10, 14608, Note_on_c, 7, 72, 61
10, 14621, Note_on_c, 7, 73, 70
10, 14660, Note_on_c, 7, 72, 0
10, 14795, Note_on_c, 7, 73, 0
10, 14964, Note_on_c, 7, 72, 66
10, 15008, Note_on_c, 7, 73, 62
10, 15045, Note_on_c, 7, 72, 0
10, 15139, Note_on_c, 7, 73, 0
10, 15340, Note_on_c, 7, 72, 55
10, 15363, Note_on_c, 7, 73, 70
10, 15406, Note_on_c, 7, 72, 0
10, 15570, Note_on_c, 7, 73, 0
10, 15752, Note_on_c, 7, 72, 58
10, 15773, Note_on_c, 7, 73, 78
10, 15814, Note_on_c, 7, 72, 0
10, 16390, Note_on_c, 7, 70, 54
10, 16391, Note_on_c, 7, 73, 0
10, 16471, Note_on_c, 7, 70, 0
10, 16512, Note_on_c, 7, 71, 26
10, 16752, Note_on_c, 7, 71, 0
10, 16755, Note_on_c, 7, 73, 75
10, 16812, Note_on_c, 7, 74, 63
10, 16855, Note_on_c, 7, 73, 0
10, 19801, Note_on_c, 7, 74, 0
10, 19834, Note_on_c, 7, 70, 62
10, 19899, Note_on_c, 7, 70, 0
10, 19987, Note_on_c, 7, 73, 65
10, 20051, Note_on_c, 7, 73, 0
10, 20334, Note_on_c, 7, 73, 71
10, 20438, Note_on_c, 7, 73, 0
10, 20704, Note_on_c, 7, 72, 47
10, 20738, Note_on_c, 7, 73, 56
10, 20755, Note_on_c, 7, 72, 0
10, 21312, Note_on_c, 7, 73, 0
10, 21558, Note_on_c, 7, 73, 61
10, 21560, Note_on_c, 7, 72, 36
10, 21612, Note_on_c, 7, 72, 0
10, 21721, Note_on_c, 7, 73, 0
10, 21889, Note_on_c, 7, 72, 49
10, 21909, Note_on_c, 7, 73, 69
10, 21947, Note_on_c, 7, 72, 0
10, 22422, Note_on_c, 7, 73, 0
10, 22457, Note_on_c, 7, 70, 71
10, 22585, Note_on_c, 7, 70, 0
10, 22668, Note_on_c, 7, 71, 48
10, 22907, Note_on_c, 7, 71, 0
10, 22939, Note_on_c, 7, 73, 53
10, 22958, Note_on_c, 7, 74, 64
10, 23006, Note_on_c, 7, 73, 0
10, 24631, Note_on_c, 7, 74, 0
10, 25591, Note_on_c, 7, 74, 74
10, 25651, Note_on_c, 7, 74, 0
10, 25815, Note_on_c, 7, 76, 74
10, 25877, Note_on_c, 7, 77, 70
10, 25909, Note_on_c, 7, 76, 0
10, 26046, Note_on_c, 7, 77, 0
10, 26112, Note_on_c, 7, 78, 64
10, 26150, Note_on_c, 7, 79, 68
10, 26365, Note_on_c, 7, 78, 0
10, 26670, Note_on_c, 7, 79, 0
10, 26687, Note_on_c, 7, 77, 57
10, 26858, Note_on_c, 7, 77, 0
10, 26955, Note_on_c, 7, 77, 51
10, 27997, Note_on_c, 7, 77, 0
10, 28396, Note_on_c, 7, 70, 60
10, 28579, Note_on_c, 7, 70, 0
10, 28670, Note_on_c, 7, 72, 83
10, 28848, Note_on_c, 7, 72, 0
10, 28909, Note_on_c, 7, 74, 87
10, 29065, Note_on_c, 7, 74, 0
10, 29266, Note_on_c, 7, 75, 87
10, 29469, Note_on_c, 7, 75, 0
10, 29507, Note_on_c, 7, 77, 57
10, 29726, Note_on_c, 7, 77, 0
10, 29752, Note_on_c, 7, 73, 54
10, 29804, Note_on_c, 7, 74, 50
10, 29841, Note_on_c, 7, 73, 0
10, 31250, Note_on_c, 7, 74, 0
10, 31473, Note_on_c, 7, 73, 78
10, 31478, Note_on_c, 7, 74, 76
10, 31529, Note_on_c, 7, 73, 0
10, 31736, Note_on_c, 7, 74, 0
10, 31782, Note_on_c, 7, 72, 71
10, 31999, Note_on_c, 7, 72, 0
10, 32012, Note_on_c, 7, 70, 61
10, 32146, Note_on_c, 7, 70, 0
10, 32262, Note_on_c, 7, 74, 66
10, 32590, Note_on_c, 7, 74, 0
10, 32605, Note_on_c, 7, 77, 49
10, 32687, Note_on_c, 7, 77, 0
10, 32862, Note_on_c, 7, 74, 63
10, 32991, Note_on_c, 7, 74, 0
10, 33121, Note_on_c, 7, 72, 57
10, 33255, Note_on_c, 7, 72, 0
10, 33338, Note_on_c, 7, 70, 37
10, 34177, Note_on_c, 7, 70, 0
10, 34532, Note_on_c, 7, 74, 62
10, 34608, Note_on_c, 7, 74, 0
10, 34792, Note_on_c, 7, 77, 77
10, 34880, Note_on_c, 7, 77, 0
10, 35019, Note_on_c, 7, 79, 72
10, 35126, Note_on_c, 7, 79, 0
10, 35331, Note_on_c, 7, 85, 80
10, 35331, Note_on_c, 7, 86, 70
10, 35364, Note_on_c, 7, 85, 0
10, 36417, Note_on_c, 7, 86, 0
10, 36605, Note_on_c, 7, 79, 40
10, 36630, Note_on_c, 7, 79, 0
10, 36685, Note_on_c, 7, 82, 71
10, 37660, Note_on_c, 7, 82, 0
10, 38986, Note_on_c, 7, 73, 72
10, 39002, Note_on_c, 7, 74, 75
10, 39037, Note_on_c, 7, 73, 0
10, 39132, Note_on_c, 7, 74, 0
10, 39248, Note_on_c, 7, 73, 53
10, 39262, Note_on_c, 7, 74, 69
10, 39299, Note_on_c, 7, 73, 0
10, 39412, Note_on_c, 7, 74, 0
10, 39508, Note_on_c, 7, 73, 64
10, 39534, Note_on_c, 7, 74, 65
10, 39560, Note_on_c, 7, 73, 0
10, 39675, Note_on_c, 7, 74, 0
10, 39773, Note_on_c, 7, 73, 71
10, 39796, Note_on_c, 7, 74, 68
10, 39841, Note_on_c, 7, 73, 0
10, 40595, Note_on_c, 7, 74, 0
10, 40636, Note_on_c, 7, 73, 58
10, 40670, Note_on_c, 7, 74, 60
10, 40703, Note_on_c, 7, 73, 0
10, 40956, Note_on_c, 7, 74, 0
10, 41002, Note_on_c, 7, 73, 61
10, 41048, Note_on_c, 7, 74, 49
10, 41094, Note_on_c, 7, 73, 0
10, 41378, Note_on_c, 7, 74, 0
10, 41428, Note_on_c, 7, 72, 59
10, 41752, Note_on_c, 7, 72, 0
10, 41786, Note_on_c, 7, 70, 53
10, 42908, Note_on_c, 7, 70, 0
10, 44514, Note_on_c, 7, 74, 87
10, 44679, Note_on_c, 7, 74, 0
10, 44886, Note_on_c, 7, 74, 81
10, 45088, Note_on_c, 7, 74, 0
10, 45275, Note_on_c, 7, 74, 73
10, 45455, Note_on_c, 7, 74, 0
10, 45645, Note_on_c, 7, 74, 76
10, 45864, Note_on_c, 7, 74, 0
10, 46035, Note_on_c, 7, 74, 70
10, 46219, Note_on_c, 7, 74, 0
10, 46409, Note_on_c, 7, 74, 73
10, 46611, Note_on_c, 7, 74, 0
10, 46782, Note_on_c, 7, 74, 71
10, 46986, Note_on_c, 7, 74, 0
10, 47187, Note_on_c, 7, 74, 71
10, 47443, Note_on_c, 7, 74, 0
10, 47557, Note_on_c, 7, 72, 68
10, 47776, Note_on_c, 7, 72, 0
10, 47812, Note_on_c, 7, 70, 64
10, 49234, Note_on_c, 7, 70, 0
10, 50608, Note_on_c, 7, 78, 77
10, 50619, Note_on_c, 7, 79, 83
10, 50685, Note_on_c, 7, 78, 0
10, 50983, Note_on_c, 7, 79, 0
10, 51010, Note_on_c, 7, 77, 63
10, 51239, Note_on_c, 7, 77, 0
10, 51401, Note_on_c, 7, 77, 76
10, 51743, Note_on_c, 7, 77, 0
10, 51789, Note_on_c, 7, 74, 59
10, 51914, Note_on_c, 7, 74, 0
10, 52164, Note_on_c, 7, 78, 74
10, 52164, Note_on_c, 7, 79, 81
10, 52212, Note_on_c, 7, 78, 0
10, 52517, Note_on_c, 7, 79, 0
10, 52649, Note_on_c, 7, 77, 68
10, 52751, Note_on_c, 7, 77, 0
10, 52915, Note_on_c, 7, 77, 81
10, 53278, Note_on_c, 7, 77, 0
10, 53313, Note_on_c, 7, 74, 50
10, 53520, Note_on_c, 7, 74, 0
10, 53554, Note_on_c, 7, 78, 60
10, 53573, Note_on_c, 7, 79, 76
10, 53672, Note_on_c, 7, 78, 0
10, 55069, Note_on_c, 7, 79, 0
10, 56891, Note_on_c, 7, 74, 69
10, 56891, Note_on_c, 7, 74, 0
10, 57141, Note_on_c, 7, 74, 68
10, 57313, Note_on_c, 7, 74, 0
10, 57538, Note_on_c, 7, 74, 79
10, 57680, Note_on_c, 7, 74, 0
10, 57939, Note_on_c, 7, 74, 89
10, 58072, Note_on_c, 7, 74, 0
10, 58290, Note_on_c, 7, 74, 94
10, 58428, Note_on_c, 7, 74, 0
10, 58656, Note_on_c, 7, 74, 90
10, 58964, Note_on_c, 7, 74, 0
10, 59040, Note_on_c, 7, 74, 83
10, 59156, Note_on_c, 7, 74, 0
10, 59431, Note_on_c, 7, 74, 78
10, 59577, Note_on_c, 7, 74, 0
10, 59834, Note_on_c, 7, 72, 71
10, 60088, Note_on_c, 7, 72, 0
10, 60116, Note_on_c, 7, 70, 68
10, 61256, Note_on_c, 7, 70, 0
10, 62876, Note_on_c, 7, 73, 37
10, 62974, Note_on_c, 7, 73, 0
10, 63278, Note_on_c, 7, 73, 61
10, 64008, Note_on_c, 7, 73, 0
10, 64047, Note_on_c, 7, 70, 35
10, 64083, Note_on_c, 7, 70, 0
10, 64595, Note_on_c, 7, 73, 64
10, 64615, Note_on_c, 7, 73, 0
10, 64815, Note_on_c, 7, 73, 71
10, 65421, Note_on_c, 7, 73, 0
10, 65429, Note_on_c, 7, 70, 65
10, 65531, Note_on_c, 7, 70, 0
10, 65628, Note_on_c, 7, 71, 37
10, 65782, Note_on_c, 7, 71, 0
10, 65842, Note_on_c, 7, 73, 56
10, 65901, Note_on_c, 7, 74, 62
10, 65924, Note_on_c, 7, 73, 0
10, 68757, Note_on_c, 7, 74, 0
10, 68898, Note_on_c, 7, 71, 70
10, 68996, Note_on_c, 7, 71, 0
10, 69077, Note_on_c, 7, 73, 60
10, 69217, Note_on_c, 7, 73, 0
10, 69448, Note_on_c, 7, 73, 77
10, 69602, Note_on_c, 7, 73, 0
10, 69821, Note_on_c, 7, 73, 62
10, 69969, Note_on_c, 7, 73, 0
10, 70228, Note_on_c, 7, 73, 67
10, 70364, Note_on_c, 7, 73, 0
10, 70710, Note_on_c, 7, 73, 70
10, 70711, Note_on_c, 7, 73, 0
10, 70952, Note_on_c, 7, 73, 76
10, 71570, Note_on_c, 7, 70, 61
10, 71571, Note_on_c, 7, 73, 0
10, 71720, Note_on_c, 7, 70, 0
10, 71744, Note_on_c, 7, 71, 47
10, 71926, Note_on_c, 7, 71, 0
10, 71962, Note_on_c, 7, 73, 60
10, 71999, Note_on_c, 7, 74, 67
10, 72041, Note_on_c, 7, 73, 0
10, 73230, Note_on_c, 7, 74, 0
10, 74636, Note_on_c, 7, 74, 58
10, 74682, Note_on_c, 7, 74, 0
10, 74773, Note_on_c, 7, 77, 74
10, 74984, Note_on_c, 7, 77, 0
10, 75169, Note_on_c, 7, 78, 80
10, 75188, Note_on_c, 7, 79, 76
10, 75244, Note_on_c, 7, 78, 0
10, 75529, Note_on_c, 7, 79, 0
10, 75551, Note_on_c, 7, 77, 59
10, 75821, Note_on_c, 7, 77, 0
10, 75873, Note_on_c, 7, 77, 62
10, 77645, Note_on_c, 7, 77, 0
10, 77686, Note_on_c, 7, 70, 59
10, 77806, Note_on_c, 7, 70, 0
10, 77957, Note_on_c, 7, 72, 66
10, 78113, Note_on_c, 7, 72, 0
10, 78327, Note_on_c, 7, 75, 74
10, 78523, Note_on_c, 7, 75, 0
10, 78562, Note_on_c, 7, 77, 66
10, 78675, Note_on_c, 7, 77, 0
10, 78792, Note_on_c, 7, 75, 64
10, 78955, Note_on_c, 7, 75, 0
10, 79036, Note_on_c, 7, 73, 59
10, 79102, Note_on_c, 7, 74, 46
10, 79130, Note_on_c, 7, 73, 0
10, 79841, Note_on_c, 7, 74, 0
10, 80535, Note_on_c, 7, 73, 73
10, 80538, Note_on_c, 7, 74, 77
10, 80587, Note_on_c, 7, 73, 0
10, 80746, Note_on_c, 7, 74, 0
10, 80822, Note_on_c, 7, 72, 71
10, 80959, Note_on_c, 7, 72, 0
10, 81081, Note_on_c, 7, 70, 49
10, 81191, Note_on_c, 7, 70, 0
10, 81345, Note_on_c, 7, 74, 67
10, 81351, Note_on_c, 7, 73, 70
10, 81408, Note_on_c, 7, 73, 0
10, 81565, Note_on_c, 7, 74, 0
10, 81574, Note_on_c, 7, 77, 68
10, 81686, Note_on_c, 7, 77, 0
10, 81870, Note_on_c, 7, 73, 59
10, 81886, Note_on_c, 7, 74, 72
10, 81932, Note_on_c, 7, 73, 0
10, 82032, Note_on_c, 7, 74, 0
10, 82162, Note_on_c, 7, 72, 50
10, 82317, Note_on_c, 7, 72, 0
10, 82390, Note_on_c, 7, 70, 62
10, 83269, Note_on_c, 7, 70, 0
10, 83612, Note_on_c, 7, 74, 59
10, 83791, Note_on_c, 7, 74, 0
10, 83882, Note_on_c, 7, 77, 77
10, 84032, Note_on_c, 7, 77, 0
10, 84098, Note_on_c, 7, 79, 75
10, 84249, Note_on_c, 7, 79, 0
10, 84388, Note_on_c, 7, 85, 77
10, 84422, Note_on_c, 7, 86, 68
10, 84464, Note_on_c, 7, 85, 0
10, 85503, Note_on_c, 7, 86, 0
10, 85520, Note_on_c, 7, 79, 41
10, 85761, Note_on_c, 7, 79, 0
10, 85766, Note_on_c, 7, 82, 62
10, 87011, Note_on_c, 7, 82, 0
10, 87448, Note_on_c, 7, 74, 55
10, 87548, Note_on_c, 7, 74, 0
10, 87821, Note_on_c, 7, 74, 57
10, 87933, Note_on_c, 7, 74, 0
10, 88220, Note_on_c, 7, 74, 57
10, 88350, Note_on_c, 7, 74, 0
10, 88597, Note_on_c, 7, 74, 59
10, 88724, Note_on_c, 7, 74, 0
10, 88982, Note_on_c, 7, 74, 53
10, 89117, Note_on_c, 7, 74, 0
10, 89358, Note_on_c, 7, 74, 59
10, 89496, Note_on_c, 7, 74, 0
10, 89733, Note_on_c, 7, 74, 58
10, 89863, Note_on_c, 7, 74, 0
10, 90119, Note_on_c, 7, 74, 64
10, 90301, Note_on_c, 7, 74, 0
10, 90513, Note_on_c, 7, 72, 54
10, 90729, Note_on_c, 7, 72, 0
10, 90774, Note_on_c, 7, 70, 47
10, 91929, Note_on_c, 7, 70, 0
10, 93585, Note_on_c, 7, 74, 74
10, 93593, Note_on_c, 7, 73, 50
10, 93623, Note_on_c, 7, 73, 0
10, 93785, Note_on_c, 7, 74, 0
10, 93968, Note_on_c, 7, 73, 72
10, 93986, Note_on_c, 7, 74, 65
10, 94030, Note_on_c, 7, 73, 0
10, 94212, Note_on_c, 7, 74, 0
10, 94361, Note_on_c, 7, 73, 60
10, 94376, Note_on_c, 7, 74, 64
10, 94419, Note_on_c, 7, 73, 0
10, 94613, Note_on_c, 7, 74, 0
10, 94746, Note_on_c, 7, 73, 53
10, 94746, Note_on_c, 7, 74, 71
10, 94783, Note_on_c, 7, 73, 0
10, 94968, Note_on_c, 7, 74, 0
10, 95107, Note_on_c, 7, 73, 50
10, 95119, Note_on_c, 7, 74, 69
10, 95145, Note_on_c, 7, 73, 0
10, 95340, Note_on_c, 7, 74, 0
10, 95478, Note_on_c, 7, 73, 55
10, 95490, Note_on_c, 7, 74, 71
10, 95519, Note_on_c, 7, 73, 0
10, 95735, Note_on_c, 7, 74, 0
10, 95861, Note_on_c, 7, 73, 55
10, 95886, Note_on_c, 7, 74, 69
10, 95934, Note_on_c, 7, 73, 0
10, 96101, Note_on_c, 7, 74, 0
10, 96237, Note_on_c, 7, 73, 60
10, 96269, Note_on_c, 7, 74, 57
10, 96324, Note_on_c, 7, 73, 0
10, 96562, Note_on_c, 7, 74, 0
10, 96681, Note_on_c, 7, 72, 54
10, 96936, Note_on_c, 7, 72, 0
10, 96947, Note_on_c, 7, 70, 49
10, 97774, Note_on_c, 7, 70, 0
10, 99716, Note_on_c, 7, 78, 69
10, 99726, Note_on_c, 7, 79, 76
10, 99767, Note_on_c, 7, 78, 0
10, 100077, Note_on_c, 7, 79, 0
10, 100103, Note_on_c, 7, 77, 61
10, 100293, Note_on_c, 7, 77, 0
10, 100500, Note_on_c, 7, 77, 72
10, 100739, Note_on_c, 7, 77, 0
10, 100758, Note_on_c, 7, 74, 48
10, 100888, Note_on_c, 7, 74, 0
10, 101120, Note_on_c, 7, 78, 73
10, 101132, Note_on_c, 7, 79, 74
10, 101190, Note_on_c, 7, 78, 0
10, 101248, Note_on_c, 7, 79, 0
10, 101502, Note_on_c, 7, 77, 80
10, 101929, Note_on_c, 7, 77, 0
10, 102143, Note_on_c, 7, 77, 69
10, 102378, Note_on_c, 7, 77, 0
10, 102393, Note_on_c, 7, 74, 60
10, 102826, Note_on_c, 7, 74, 0
10, 102826, Note_on_c, 7, 78, 53
10, 102826, Note_on_c, 7, 79, 72
10, 102837, Note_on_c, 7, 78, 0
10, 103048, Note_on_c, 7, 79, 0
10, 103136, Note_on_c, 7, 78, 60
10, 103172, Note_on_c, 7, 79, 71
10, 103191, Note_on_c, 7, 78, 0
10, 104211, Note_on_c, 7, 79, 0
10, 105862, Note_on_c, 7, 74, 79
10, 105995, Note_on_c, 7, 74, 0
10, 106231, Note_on_c, 7, 74, 75
10, 106432, Note_on_c, 7, 74, 0
10, 106623, Note_on_c, 7, 74, 67
10, 106764, Note_on_c, 7, 74, 0
10, 106984, Note_on_c, 7, 74, 73
10, 107147, Note_on_c, 7, 74, 0
10, 107383, Note_on_c, 7, 74, 71
10, 107524, Note_on_c, 7, 74, 0
10, 107754, Note_on_c, 7, 74, 74
10, 107927, Note_on_c, 7, 74, 0
10, 108287, Note_on_c, 7, 74, 74
10, 108302, Note_on_c, 7, 74, 0
10, 108517, Note_on_c, 7, 74, 78
10, 108778, Note_on_c, 7, 74, 0
10, 108925, Note_on_c, 7, 72, 59
10, 109154, Note_on_c, 7, 72, 0
10, 109167, Note_on_c, 7, 70, 50
10, 110515, Note_on_c, 7, 70, 0
10, 112042, Note_on_c, 7, 85, 83
10, 112098, Note_on_c, 7, 85, 0
10, 112430, Note_on_c, 7, 85, 80
10, 114239, Note_on_c, 7, 85, 0
10, 114292, Note_on_c, 7, 82, 65
10, 114913, Note_on_c, 7, 78, 38
10, 114954, Note_on_c, 7, 82, 0
10, 115069, Note_on_c, 7, 78, 0
10, 115110, Note_on_c, 7, 77, 36
10, 116700, Note_on_c, 7, 77, 0
10, 162161, Note_on_c, 7, 73, 67
10, 162197, Note_on_c, 7, 73, 0
10, 162417, Note_on_c, 7, 73, 78
10, 162485, Note_on_c, 7, 73, 0
10, 162688, Note_on_c, 7, 73, 72
10, 162740, Note_on_c, 7, 73, 0
10, 162954, Note_on_c, 7, 73, 80
10, 163625, Note_on_c, 7, 73, 0
10, 163633, Note_on_c, 7, 70, 50
10, 163743, Note_on_c, 7, 70, 0
10, 163794, Note_on_c, 7, 71, 38
10, 163995, Note_on_c, 7, 71, 0
10, 164010, Note_on_c, 7, 73, 51
10, 164071, Note_on_c, 7, 74, 58
10, 164087, Note_on_c, 7, 73, 0
10, 165374, Note_on_c, 7, 74, 0
10, 167101, Note_on_c, 7, 71, 91
10, 167180, Note_on_c, 7, 71, 0
10, 167288, Note_on_c, 7, 73, 74
10, 167459, Note_on_c, 7, 73, 0
10, 167625, Note_on_c, 7, 73, 68
10, 167812, Note_on_c, 7, 73, 0
10, 167976, Note_on_c, 7, 73, 57
10, 168152, Note_on_c, 7, 73, 0
10, 168336, Note_on_c, 7, 73, 57
10, 168522, Note_on_c, 7, 73, 0
10, 168724, Note_on_c, 7, 73, 59
10, 168904, Note_on_c, 7, 73, 0
10, 169122, Note_on_c, 7, 73, 65
10, 169750, Note_on_c, 7, 73, 0
10, 169766, Note_on_c, 7, 70, 48
10, 169898, Note_on_c, 7, 70, 0
10, 169921, Note_on_c, 7, 71, 27
10, 170110, Note_on_c, 7, 73, 55
10, 170115, Note_on_c, 7, 71, 0
10, 170177, Note_on_c, 7, 74, 27
10, 170219, Note_on_c, 7, 73, 0
10, 172181, Note_on_c, 7, 74, 0
10, 174355, Note_on_c, 7, 78, 71
10, 174361, Note_on_c, 7, 79, 80
10, 174383, Note_on_c, 7, 78, 0
10, 174478, Note_on_c, 7, 79, 0
10, 174609, Note_on_c, 7, 78, 73
10, 174636, Note_on_c, 7, 79, 68
10, 174700, Note_on_c, 7, 78, 0
10, 174763, Note_on_c, 7, 79, 0
10, 174894, Note_on_c, 7, 78, 60
10, 174936, Note_on_c, 7, 79, 66
10, 174988, Note_on_c, 7, 78, 0
10, 175209, Note_on_c, 7, 79, 0
10, 175247, Note_on_c, 7, 77, 31
10, 175321, Note_on_c, 7, 77, 0
10, 175522, Note_on_c, 7, 82, 79
10, 175678, Note_on_c, 7, 82, 0
10, 175797, Note_on_c, 7, 79, 69
10, 175882, Note_on_c, 7, 79, 0
10, 176051, Note_on_c, 7, 82, 82
10, 176241, Note_on_c, 7, 82, 0
10, 176330, Note_on_c, 7, 79, 59
10, 176426, Note_on_c, 7, 79, 0
10, 176593, Note_on_c, 7, 82, 78
10, 176711, Note_on_c, 7, 82, 0
10, 176846, Note_on_c, 7, 78, 49
10, 176877, Note_on_c, 7, 79, 62
10, 176921, Note_on_c, 7, 78, 0
10, 177018, Note_on_c, 7, 79, 0
10, 177118, Note_on_c, 7, 77, 48
10, 177239, Note_on_c, 7, 77, 0
10, 177308, Note_on_c, 7, 74, 36
10, 177494, Note_on_c, 7, 74, 0
10, 177586, Note_on_c, 7, 72, 29
10, 177714, Note_on_c, 7, 72, 0
10, 177828, Note_on_c, 7, 70, 47
10, 178471, Note_on_c, 7, 70, 0
10, 179371, Note_on_c, 7, 67, 42
10, 179412, Note_on_c, 7, 67, 0
10, 179483, Note_on_c, 7, 70, 69
10, 179727, Note_on_c, 7, 70, 0
10, 179867, Note_on_c, 7, 67, 51
10, 179975, Note_on_c, 7, 67, 0
10, 180242, Note_on_c, 7, 70, 76
10, 180409, Note_on_c, 7, 70, 0
10, 180652, Note_on_c, 7, 67, 41
10, 180727, Note_on_c, 7, 67, 0
10, 180889, Note_on_c, 7, 73, 85
10, 181720, Note_on_c, 7, 73, 0
10, 181773, Note_on_c, 7, 72, 63
10, 181867, Note_on_c, 7, 72, 0
10, 182020, Note_on_c, 7, 70, 72
10, 182142, Note_on_c, 7, 70, 0
10, 182172, Note_on_c, 7, 67, 39
10, 182318, Note_on_c, 7, 67, 0
10, 182387, Note_on_c, 7, 65, 55
10, 182466, Note_on_c, 7, 65, 0
10, 182598, Note_on_c, 7, 66, 52
10, 182599, Note_on_c, 7, 66, 0
10, 182617, Note_on_c, 7, 67, 40
10, 183692, Note_on_c, 7, 67, 0
10, 185242, Note_on_c, 7, 91, 82
10, 185320, Note_on_c, 7, 91, 0
10, 185381, Note_on_c, 7, 87, 80
10, 185454, Note_on_c, 7, 87, 0
10, 185513, Note_on_c, 7, 84, 78
10, 185578, Note_on_c, 7, 84, 0
10, 185649, Note_on_c, 7, 79, 41
10, 185688, Note_on_c, 7, 79, 0
10, 185783, Note_on_c, 7, 75, 60
10, 185868, Note_on_c, 7, 75, 0
10, 185927, Note_on_c, 7, 72, 27
10, 185970, Note_on_c, 7, 72, 0
10, 186602, Note_on_c, 7, 67, 46
10, 186633, Note_on_c, 7, 67, 0
10, 186741, Note_on_c, 7, 72, 47
10, 186815, Note_on_c, 7, 72, 0
10, 186855, Note_on_c, 7, 75, 62
10, 186901, Note_on_c, 7, 75, 0
10, 186976, Note_on_c, 7, 77, 67
10, 187039, Note_on_c, 7, 77, 0
10, 187096, Note_on_c, 7, 78, 69
10, 187155, Note_on_c, 7, 78, 0
10, 187256, Note_on_c, 7, 84, 53
10, 187284, Note_on_c, 7, 84, 0
10, 187450, Note_on_c, 7, 86, 69
10, 187450, Note_on_c, 7, 88, 71
10, 187479, Note_on_c, 7, 88, 0
10, 187479, Note_on_c, 7, 86, 0
10, 187618, Note_on_c, 7, 89, 105
10, 187743, Note_on_c, 7, 89, 0
10, 187818, Note_on_c, 7, 87, 87
10, 187913, Note_on_c, 7, 87, 0
10, 188007, Note_on_c, 7, 85, 71
10, 188073, Note_on_c, 7, 85, 0
10, 188136, Note_on_c, 7, 85, 54
10, 188152, Note_on_c, 7, 86, 85
10, 188186, Note_on_c, 7, 85, 0
10, 188229, Note_on_c, 7, 86, 0
10, 188341, Note_on_c, 7, 84, 71
10, 188342, Note_on_c, 7, 83, 66
10, 188370, Note_on_c, 7, 83, 0
10, 188429, Note_on_c, 7, 84, 0
10, 188551, Note_on_c, 7, 80, 59
10, 188586, Note_on_c, 7, 81, 59
10, 188593, Note_on_c, 7, 80, 0
10, 188659, Note_on_c, 7, 81, 0
10, 188844, Note_on_c, 7, 84, 90
10, 188933, Note_on_c, 7, 84, 0
10, 189052, Note_on_c, 7, 82, 64
10, 189141, Note_on_c, 7, 82, 0
10, 189205, Note_on_c, 7, 78, 53
10, 189268, Note_on_c, 7, 78, 0
10, 189356, Note_on_c, 7, 81, 72
10, 189414, Note_on_c, 7, 81, 0
10, 189439, Note_on_c, 7, 78, 46
10, 189469, Note_on_c, 7, 78, 0
10, 189534, Note_on_c, 7, 79, 66
10, 189615, Note_on_c, 7, 79, 0
10, 189648, Note_on_c, 7, 74, 58
10, 189715, Note_on_c, 7, 74, 0
10, 189801, Note_on_c, 7, 70, 69
10, 189856, Note_on_c, 7, 70, 0
10, 190054, Note_on_c, 7, 67, 46
10, 190095, Note_on_c, 7, 67, 0
10, 192159, Note_on_c, 7, 55, 39
10, 192209, Note_on_c, 7, 55, 0
10, 192266, Note_on_c, 7, 57, 48
10, 192324, Note_on_c, 7, 57, 0
10, 192381, Note_on_c, 7, 62, 69
10, 192473, Note_on_c, 7, 62, 0
10, 192532, Note_on_c, 7, 59, 30
10, 192640, Note_on_c, 7, 59, 0
10, 192668, Note_on_c, 7, 60, 51
10, 192779, Note_on_c, 7, 62, 66
10, 192788, Note_on_c, 7, 60, 0
10, 192845, Note_on_c, 7, 62, 0
10, 192906, Note_on_c, 7, 63, 51
10, 192999, Note_on_c, 7, 63, 0
10, 193025, Note_on_c, 7, 60, 45
10, 193060, Note_on_c, 7, 60, 0
10, 193132, Note_on_c, 7, 62, 61
10, 193220, Note_on_c, 7, 62, 0
10, 193254, Note_on_c, 7, 63, 74
10, 193349, Note_on_c, 7, 63, 0
10, 193660, Note_on_c, 7, 62, 44
10, 193703, Note_on_c, 7, 62, 0
10, 193779, Note_on_c, 7, 63, 53
10, 193857, Note_on_c, 7, 63, 0
10, 193909, Note_on_c, 7, 65, 65
10, 193993, Note_on_c, 7, 65, 0
10, 194064, Note_on_c, 7, 66, 44
10, 194125, Note_on_c, 7, 66, 0
10, 194217, Note_on_c, 7, 67, 38
10, 194226, Note_on_c, 7, 69, 36
10, 194258, Note_on_c, 7, 69, 0
10, 194266, Note_on_c, 7, 67, 0
10, 194691, Note_on_c, 7, 69, 76
10, 194746, Note_on_c, 7, 69, 0
10, 194909, Note_on_c, 7, 72, 71
10, 194910, Note_on_c, 7, 72, 0
10, 194954, Note_on_c, 7, 69, 61
10, 195028, Note_on_c, 7, 69, 0
10, 195071, Note_on_c, 7, 70, 48
10, 195131, Note_on_c, 7, 70, 0
10, 195234, Note_on_c, 7, 74, 19
10, 195272, Note_on_c, 7, 74, 0
10, 195327, Note_on_c, 7, 78, 52
10, 195403, Note_on_c, 7, 78, 0
10, 195460, Note_on_c, 7, 81, 91
10, 195573, Note_on_c, 7, 81, 0
10, 195602, Note_on_c, 7, 78, 64
10, 195682, Note_on_c, 7, 78, 0
10, 195716, Note_on_c, 7, 79, 72
10, 195810, Note_on_c, 7, 79, 0
10, 195848, Note_on_c, 7, 81, 74
10, 195928, Note_on_c, 7, 81, 0
10, 195980, Note_on_c, 7, 82, 57
10, 196012, Note_on_c, 7, 82, 0
10, 196109, Note_on_c, 7, 86, 56
10, 196178, Note_on_c, 7, 86, 0
10, 196214, Note_on_c, 7, 90, 62
10, 196282, Note_on_c, 7, 90, 0
10, 196345, Note_on_c, 7, 93, 92
10, 196484, Note_on_c, 7, 93, 0
10, 196503, Note_on_c, 7, 90, 51
10, 196531, Note_on_c, 7, 90, 0
10, 196624, Note_on_c, 7, 93, 96
10, 196719, Note_on_c, 7, 93, 0
10, 196764, Note_on_c, 7, 90, 68
10, 196871, Note_on_c, 7, 90, 0
10, 196912, Note_on_c, 7, 86, 44
10, 197011, Note_on_c, 7, 86, 0
10, 197137, Note_on_c, 7, 90, 77
10, 197224, Note_on_c, 7, 90, 0
10, 197296, Note_on_c, 7, 86, 39
10, 197330, Note_on_c, 7, 86, 0
10, 197396, Note_on_c, 7, 90, 84
10, 197509, Note_on_c, 7, 90, 0
10, 197550, Note_on_c, 7, 86, 28
10, 197581, Note_on_c, 7, 86, 0
10, 197618, Note_on_c, 7, 81, 40
10, 197701, Note_on_c, 7, 81, 0
10, 197742, Note_on_c, 7, 79, 54
10, 197788, Note_on_c, 7, 79, 0
10, 197864, Note_on_c, 7, 87, 71
10, 197944, Note_on_c, 7, 87, 0
10, 198119, Note_on_c, 7, 87, 91
10, 198217, Note_on_c, 7, 87, 0
10, 198272, Note_on_c, 7, 84, 72
10, 198336, Note_on_c, 7, 84, 0
10, 198378, Note_on_c, 7, 79, 57
10, 198413, Note_on_c, 7, 79, 0
10, 198500, Note_on_c, 7, 75, 48
10, 198563, Note_on_c, 7, 75, 0
10, 198620, Note_on_c, 7, 72, 35
10, 198650, Note_on_c, 7, 72, 0
10, 199189, Note_on_c, 7, 89, 91
10, 199296, Note_on_c, 7, 84, 77
10, 199313, Note_on_c, 7, 89, 0
10, 199374, Note_on_c, 7, 84, 0
10, 199422, Note_on_c, 7, 78, 64
10, 199491, Note_on_c, 7, 78, 0
10, 199554, Note_on_c, 7, 77, 51
10, 199631, Note_on_c, 7, 77, 0
10, 199685, Note_on_c, 7, 75, 62
10, 199777, Note_on_c, 7, 75, 0
10, 199828, Note_on_c, 7, 72, 39
10, 199873, Note_on_c, 7, 72, 0
10, 200046, Note_on_c, 7, 89, 94
10, 200205, Note_on_c, 7, 89, 0
10, 200398, Note_on_c, 7, 84, 82
10, 200399, Note_on_c, 7, 84, 0
10, 200496, Note_on_c, 7, 78, 70
10, 200577, Note_on_c, 7, 78, 0
10, 200641, Note_on_c, 7, 77, 56
10, 200722, Note_on_c, 7, 77, 0
10, 200773, Note_on_c, 7, 75, 50
10, 200857, Note_on_c, 7, 75, 0
10, 200867, Note_on_c, 7, 72, 60
10, 200922, Note_on_c, 7, 72, 0
10, 201213, Note_on_c, 7, 81, 95
10, 201303, Note_on_c, 7, 81, 0
10, 201387, Note_on_c, 7, 77, 68
10, 201452, Note_on_c, 7, 77, 0
10, 201617, Note_on_c, 7, 74, 83
10, 201702, Note_on_c, 7, 74, 0
10, 201790, Note_on_c, 7, 72, 53
10, 201825, Note_on_c, 7, 72, 0
10, 201973, Note_on_c, 7, 70, 74
10, 202060, Note_on_c, 7, 70, 0
10, 202111, Note_on_c, 7, 69, 55
10, 202299, Note_on_c, 7, 69, 0
10, 202365, Note_on_c, 7, 72, 79
10, 202449, Note_on_c, 7, 72, 0
10, 202529, Note_on_c, 7, 70, 65
10, 202633, Note_on_c, 7, 70, 0
10, 202761, Note_on_c, 7, 66, 63
10, 202824, Note_on_c, 7, 66, 0
10, 202904, Note_on_c, 7, 69, 80
10, 203039, Note_on_c, 7, 69, 0
10, 203158, Note_on_c, 7, 66, 59
10, 203158, Note_on_c, 7, 66, 0
10, 203261, Note_on_c, 7, 67, 72
10, 203434, Note_on_c, 7, 67, 0
10, 203495, Note_on_c, 7, 62, 60
10, 203572, Note_on_c, 7, 62, 0
10, 203649, Note_on_c, 7, 62, 48
10, 203720, Note_on_c, 7, 62, 0
10, 203904, Note_on_c, 7, 62, 51
10, 203969, Note_on_c, 7, 62, 0
10, 204083, Note_on_c, 7, 60, 64
10, 204245, Note_on_c, 7, 60, 0
10, 204445, Note_on_c, 7, 60, 74
10, 204515, Note_on_c, 7, 60, 0
10, 204565, Note_on_c, 7, 62, 71
10, 204628, Note_on_c, 7, 62, 0
10, 204725, Note_on_c, 7, 64, 54
10, 204756, Note_on_c, 7, 64, 0
10, 204835, Note_on_c, 7, 62, 65
10, 204901, Note_on_c, 7, 62, 0
10, 204940, Note_on_c, 7, 63, 72
10, 205018, Note_on_c, 7, 63, 0
10, 205066, Note_on_c, 7, 65, 52
10, 205095, Note_on_c, 7, 65, 0
10, 205178, Note_on_c, 7, 63, 31
10, 205214, Note_on_c, 7, 63, 0
10, 205289, Note_on_c, 7, 65, 68
10, 205366, Note_on_c, 7, 65, 0
10, 205405, Note_on_c, 7, 67, 61
10, 205486, Note_on_c, 7, 67, 0
10, 205581, Note_on_c, 7, 65, 27
10, 205621, Note_on_c, 7, 65, 0
10, 205691, Note_on_c, 7, 67, 26
10, 205735, Note_on_c, 7, 67, 0
10, 205809, Note_on_c, 7, 69, 75
10, 205885, Note_on_c, 7, 69, 0
10, 205959, Note_on_c, 7, 67, 36
10, 206026, Note_on_c, 7, 67, 0
10, 206336, Note_on_c, 7, 69, 68
10, 206419, Note_on_c, 7, 69, 0
10, 206462, Note_on_c, 7, 71, 66
10, 206519, Note_on_c, 7, 71, 0
10, 206589, Note_on_c, 7, 72, 63
10, 206676, Note_on_c, 7, 72, 0
10, 206810, Note_on_c, 7, 75, 65
10, 206875, Note_on_c, 7, 75, 0
10, 206939, Note_on_c, 7, 76, 59
10, 206991, Note_on_c, 7, 76, 0
10, 207146, Note_on_c, 7, 81, 63
10, 207190, Note_on_c, 7, 81, 0
10, 207254, Note_on_c, 7, 84, 101
10, 207390, Note_on_c, 7, 84, 0
10, 207561, Note_on_c, 7, 84, 99
10, 207791, Note_on_c, 7, 84, 0
10, 207845, Note_on_c, 7, 77, 67
10, 207896, Note_on_c, 7, 77, 0
10, 207957, Note_on_c, 7, 81, 91
10, 208084, Note_on_c, 7, 81, 0
10, 208211, Note_on_c, 7, 81, 91
10, 208363, Note_on_c, 7, 81, 0
10, 208385, Note_on_c, 7, 74, 57
10, 208446, Note_on_c, 7, 74, 0
10, 208502, Note_on_c, 7, 74, 33
10, 208536, Note_on_c, 7, 74, 0
10, 208688, Note_on_c, 7, 77, 79
10, 208757, Note_on_c, 7, 77, 0
10, 208919, Note_on_c, 7, 77, 79
10, 209006, Note_on_c, 7, 77, 0
10, 209101, Note_on_c, 7, 74, 26
10, 209142, Note_on_c, 7, 74, 0
10, 209295, Note_on_c, 7, 74, 77
10, 209453, Note_on_c, 7, 74, 0
10, 209453, Note_on_c, 7, 70, 47
10, 209485, Note_on_c, 7, 70, 0
10, 209663, Note_on_c, 7, 70, 74
10, 209740, Note_on_c, 7, 70, 0
10, 209807, Note_on_c, 7, 69, 55
10, 209857, Note_on_c, 7, 69, 0
10, 210049, Note_on_c, 7, 69, 71
10, 210097, Note_on_c, 7, 69, 0
10, 210190, Note_on_c, 7, 74, 77
10, 210247, Note_on_c, 7, 74, 0
10, 210425, Note_on_c, 7, 74, 80
10, 210496, Note_on_c, 7, 74, 0
10, 210583, Note_on_c, 7, 75, 69
10, 210622, Note_on_c, 7, 75, 0
10, 210808, Note_on_c, 7, 75, 68
10, 210870, Note_on_c, 7, 75, 0
10, 210965, Note_on_c, 7, 77, 81
10, 211279, Note_on_c, 7, 77, 0
10, 211333, Note_on_c, 7, 74, 53
10, 211624, Note_on_c, 7, 74, 0
10, 211714, Note_on_c, 7, 72, 58
10, 211779, Note_on_c, 7, 72, 0
10, 211991, Note_on_c, 7, 72, 69
10, 212047, Note_on_c, 7, 72, 0
10, 212164, Note_on_c, 7, 74, 60
10, 212231, Note_on_c, 7, 74, 0
10, 212376, Note_on_c, 7, 74, 75
10, 212567, Note_on_c, 7, 74, 0
10, 212586, Note_on_c, 7, 75, 80
10, 212796, Note_on_c, 7, 75, 0
10, 212874, Note_on_c, 7, 72, 58
10, 212971, Note_on_c, 7, 72, 0
10, 213100, Note_on_c, 7, 70, 55
10, 213166, Note_on_c, 7, 70, 0
10, 213277, Note_on_c, 7, 69, 57
10, 213432, Note_on_c, 7, 69, 0
10, 213485, Note_on_c, 7, 72, 68
10, 213575, Note_on_c, 7, 72, 0
10, 213649, Note_on_c, 7, 70, 57
10, 213778, Note_on_c, 7, 70, 0
10, 213901, Note_on_c, 7, 66, 45
10, 213931, Note_on_c, 7, 66, 0
10, 214020, Note_on_c, 7, 69, 63
10, 214289, Note_on_c, 7, 69, 0
10, 214377, Note_on_c, 7, 60, 46
10, 214408, Note_on_c, 7, 60, 0
10, 214463, Note_on_c, 7, 61, 47
10, 214548, Note_on_c, 7, 61, 0
10, 214549, Note_on_c, 7, 63, 63
10, 214606, Note_on_c, 7, 63, 0
10, 214633, Note_on_c, 7, 64, 66
10, 214689, Note_on_c, 7, 64, 0
10, 214724, Note_on_c, 7, 66, 59
10, 214753, Note_on_c, 7, 66, 0
10, 214806, Note_on_c, 7, 67, 64
10, 214876, Note_on_c, 7, 67, 0
10, 214896, Note_on_c, 7, 69, 72
10, 214963, Note_on_c, 7, 69, 0
10, 215008, Note_on_c, 7, 70, 50
10, 215037, Note_on_c, 7, 70, 0
10, 215110, Note_on_c, 7, 72, 56
10, 215184, Note_on_c, 7, 72, 0
10, 215208, Note_on_c, 7, 73, 59
10, 215279, Note_on_c, 7, 73, 0
10, 215296, Note_on_c, 7, 75, 49
10, 215325, Note_on_c, 7, 75, 0
10, 215373, Note_on_c, 7, 76, 53
10, 215418, Note_on_c, 7, 76, 0
10, 215450, Note_on_c, 7, 78, 59
10, 215481, Note_on_c, 7, 78, 0
10, 215542, Note_on_c, 7, 79, 64
10, 215635, Note_on_c, 7, 79, 0
10, 215657, Note_on_c, 7, 81, 38
10, 215726, Note_on_c, 7, 81, 0
10, 215764, Note_on_c, 7, 82, 36
10, 215815, Note_on_c, 7, 82, 0
10, 215851, Note_on_c, 7, 83, 41
10, 215915, Note_on_c, 7, 83, 0
10, 215955, Note_on_c, 7, 84, 78
10, 216012, Note_on_c, 7, 84, 0
10, 216219, Note_on_c, 7, 86, 65
10, 216224, Note_on_c, 7, 84, 74
10, 216273, Note_on_c, 7, 86, 0
10, 216322, Note_on_c, 7, 84, 0
10, 216771, Note_on_c, 7, 91, 83
10, 216853, Note_on_c, 7, 91, 0
10, 216996, Note_on_c, 7, 87, 81
10, 217032, Note_on_c, 7, 88, 38
10, 217063, Note_on_c, 7, 88, 0
10, 217081, Note_on_c, 7, 87, 0
10, 217200, Note_on_c, 7, 84, 71
10, 217279, Note_on_c, 7, 84, 0
10, 217370, Note_on_c, 7, 79, 60
10, 217479, Note_on_c, 7, 79, 0
10, 217498, Note_on_c, 7, 78, 40
10, 217631, Note_on_c, 7, 78, 0
10, 218057, Note_on_c, 7, 89, 103
10, 218145, Note_on_c, 7, 89, 0
10, 218267, Note_on_c, 7, 86, 82
10, 218351, Note_on_c, 7, 86, 0
10, 218479, Note_on_c, 7, 82, 74
10, 218578, Note_on_c, 7, 82, 0
10, 218667, Note_on_c, 7, 77, 50
10, 218737, Note_on_c, 7, 77, 0
10, 218861, Note_on_c, 7, 74, 69
10, 218939, Note_on_c, 7, 74, 0
10, 219236, Note_on_c, 7, 69, 60
10, 219271, Note_on_c, 7, 69, 0
10, 219378, Note_on_c, 7, 74, 70
10, 219380, Note_on_c, 7, 72, 60
10, 219441, Note_on_c, 7, 74, 0
10, 219505, Note_on_c, 7, 72, 0
10, 219600, Note_on_c, 7, 69, 52
10, 219660, Note_on_c, 7, 69, 0
10, 219733, Note_on_c, 7, 70, 75
10, 219928, Note_on_c, 7, 70, 0
10, 219975, Note_on_c, 7, 66, 55
10, 220044, Note_on_c, 7, 66, 0
10, 220121, Note_on_c, 7, 69, 82
10, 220349, Note_on_c, 7, 69, 0
10, 220383, Note_on_c, 7, 66, 47
10, 220412, Note_on_c, 7, 66, 0
10, 220495, Note_on_c, 7, 67, 69
10, 220705, Note_on_c, 7, 67, 0
10, 220757, Note_on_c, 7, 62, 64
10, 221305, Note_on_c, 7, 62, 0
10, 221864, Note_on_c, 7, 74, 82
10, 221936, Note_on_c, 7, 74, 0
10, 222134, Note_on_c, 7, 74, 94
10, 222750, Note_on_c, 7, 74, 0
10, 222811, Note_on_c, 7, 72, 58
10, 222871, Note_on_c, 7, 72, 0
10, 223081, Note_on_c, 7, 67, 64
10, 223163, Note_on_c, 7, 67, 0
10, 223254, Note_on_c, 7, 63, 39
10, 223383, Note_on_c, 7, 63, 0
10, 223472, Note_on_c, 7, 63, 51
10, 223530, Note_on_c, 7, 63, 0
10, 223969, Note_on_c, 7, 77, 108
10, 223981, Note_on_c, 7, 78, 62
10, 224032, Note_on_c, 7, 78, 0
10, 224282, Note_on_c, 7, 77, 0
10, 224350, Note_on_c, 7, 75, 65
10, 224422, Note_on_c, 7, 75, 0
10, 224615, Note_on_c, 7, 72, 74
10, 224686, Note_on_c, 7, 72, 0
10, 224770, Note_on_c, 7, 66, 44
10, 224925, Note_on_c, 7, 66, 0
10, 225007, Note_on_c, 7, 66, 55
10, 225066, Note_on_c, 7, 66, 0
10, 225518, Note_on_c, 7, 84, 108
10, 226102, Note_on_c, 7, 83, 68
10, 226108, Note_on_c, 7, 84, 0
10, 226193, Note_on_c, 7, 83, 0
10, 226193, Note_on_c, 7, 82, 53
10, 226258, Note_on_c, 7, 82, 0
10, 226277, Note_on_c, 7, 81, 50
10, 226418, Note_on_c, 7, 81, 0
10, 226923, Note_on_c, 7, 84, 99
10, 227189, Note_on_c, 7, 84, 0
10, 227200, Note_on_c, 7, 83, 36
10, 227262, Note_on_c, 7, 82, 57
10, 227367, Note_on_c, 7, 83, 0
10, 227367, Note_on_c, 7, 81, 42
10, 227372, Note_on_c, 7, 82, 0
10, 227426, Note_on_c, 7, 81, 0
10, 227586, Note_on_c, 7, 78, 59
10, 227636, Note_on_c, 7, 78, 0
10, 227734, Note_on_c, 7, 81, 83
10, 227831, Note_on_c, 7, 81, 0
10, 227928, Note_on_c, 7, 79, 58
10, 228031, Note_on_c, 7, 79, 0
10, 228095, Note_on_c, 7, 76, 71
10, 228160, Note_on_c, 7, 76, 0
10, 228250, Note_on_c, 7, 73, 36
10, 228436, Note_on_c, 7, 73, 0
10, 228491, Note_on_c, 7, 69, 36
10, 228522, Note_on_c, 7, 69, 0
10, 228609, Note_on_c, 7, 72, 70
10, 228744, Note_on_c, 7, 72, 0
10, 228833, Note_on_c, 7, 74, 77
10, 228910, Note_on_c, 7, 74, 0
10, 228992, Note_on_c, 7, 75, 80
10, 229090, Note_on_c, 7, 75, 0
10, 229229, Note_on_c, 7, 72, 71
10, 229299, Note_on_c, 7, 72, 0
10, 229408, Note_on_c, 7, 67, 47
10, 229541, Note_on_c, 7, 67, 0
10, 229742, Note_on_c, 7, 63, 51
10, 230004, Note_on_c, 7, 63, 0
10, 230108, Note_on_c, 7, 62, 60
10, 230228, Note_on_c, 7, 62, 0
10, 230389, Note_on_c, 7, 63, 69
10, 230449, Note_on_c, 7, 63, 0
10, 230520, Note_on_c, 7, 65, 64
10, 230812, Note_on_c, 7, 65, 0
10, 230893, Note_on_c, 7, 62, 55
10, 230964, Note_on_c, 7, 62, 0
10, 231119, Note_on_c, 7, 63, 60
10, 231176, Note_on_c, 7, 63, 0
10, 231262, Note_on_c, 7, 65, 71
10, 231560, Note_on_c, 7, 65, 0
10, 231926, Note_on_c, 7, 64, 36
10, 231959, Note_on_c, 7, 64, 0
10, 232042, Note_on_c, 7, 67, 64
10, 232043, Note_on_c, 7, 65, 66
10, 232128, Note_on_c, 7, 67, 0
10, 232366, Note_on_c, 7, 65, 0
10, 232670, Note_on_c, 7, 63, 48
10, 232710, Note_on_c, 7, 63, 0
10, 232821, Note_on_c, 7, 65, 72
10, 233117, Note_on_c, 7, 65, 0
10, 233182, Note_on_c, 7, 62, 44
10, 233261, Note_on_c, 7, 62, 0
10, 233412, Note_on_c, 7, 65, 60
10, 233441, Note_on_c, 7, 65, 0
10, 233571, Note_on_c, 7, 67, 62
10, 233632, Note_on_c, 7, 67, 0
10, 233803, Note_on_c, 7, 70, 68
10, 233859, Note_on_c, 7, 70, 0
10, 233971, Note_on_c, 7, 74, 64
10, 234019, Note_on_c, 7, 74, 0
10, 234199, Note_on_c, 7, 77, 69
10, 234232, Note_on_c, 7, 77, 0
10, 234353, Note_on_c, 7, 82, 62
10, 234382, Note_on_c, 7, 82, 0
10, 234582, Note_on_c, 7, 86, 101
10, 234646, Note_on_c, 7, 86, 0
10, 234772, Note_on_c, 7, 84, 81
10, 234842, Note_on_c, 7, 84, 0
10, 235001, Note_on_c, 7, 79, 64
10, 235044, Note_on_c, 7, 79, 0
10, 235173, Note_on_c, 7, 75, 38
10, 235210, Note_on_c, 7, 75, 0
10, 235390, Note_on_c, 7, 74, 46
10, 235426, Note_on_c, 7, 74, 0
10, 237108, Note_on_c, 7, 88, 74
10, 237144, Note_on_c, 7, 89, 69
10, 237177, Note_on_c, 7, 88, 0
10, 237255, Note_on_c, 7, 89, 0
10, 237421, Note_on_c, 7, 88, 59
10, 237435, Note_on_c, 7, 89, 78
10, 237457, Note_on_c, 7, 88, 0
10, 237587, Note_on_c, 7, 89, 0
10, 237691, Note_on_c, 7, 89, 62
10, 237826, Note_on_c, 7, 89, 0
10, 237932, Note_on_c, 7, 85, 65
10, 237971, Note_on_c, 7, 86, 46
10, 238008, Note_on_c, 7, 85, 0
10, 238082, Note_on_c, 7, 86, 0
10, 238210, Note_on_c, 7, 85, 49
10, 238238, Note_on_c, 7, 85, 0
10, 238243, Note_on_c, 7, 86, 71
10, 238350, Note_on_c, 7, 86, 0
10, 238508, Note_on_c, 7, 84, 67
10, 238576, Note_on_c, 7, 84, 0
10, 238740, Note_on_c, 7, 84, 76
10, 238852, Note_on_c, 7, 84, 0
10, 238971, Note_on_c, 7, 82, 47
10, 239006, Note_on_c, 7, 82, 0
10, 239217, Note_on_c, 7, 82, 60
10, 239362, Note_on_c, 7, 82, 0
10, 239452, Note_on_c, 7, 81, 64
10, 239511, Note_on_c, 7, 81, 0
10, 239702, Note_on_c, 7, 80, 62
10, 239778, Note_on_c, 7, 81, 55
10, 239779, Note_on_c, 7, 80, 0
10, 239867, Note_on_c, 7, 81, 0
10, 240018, Note_on_c, 7, 79, 42
10, 240078, Note_on_c, 7, 79, 0
10, 240236, Note_on_c, 7, 79, 73
10, 240330, Note_on_c, 7, 79, 0
10, 240473, Note_on_c, 7, 75, 62
10, 240507, Note_on_c, 7, 76, 56
10, 240529, Note_on_c, 7, 75, 0
10, 240599, Note_on_c, 7, 76, 0
10, 240745, Note_on_c, 7, 76, 66
10, 240820, Note_on_c, 7, 76, 0
10, 240997, Note_on_c, 7, 73, 32
10, 241015, Note_on_c, 7, 74, 15
10, 241029, Note_on_c, 7, 73, 0
10, 241079, Note_on_c, 7, 74, 0
10, 241248, Note_on_c, 7, 74, 69
10, 241330, Note_on_c, 7, 74, 0
10, 241470, Note_on_c, 7, 72, 68
10, 241513, Note_on_c, 7, 72, 0
10, 241714, Note_on_c, 7, 67, 51
10, 241794, Note_on_c, 7, 67, 0
10, 241979, Note_on_c, 7, 63, 61
10, 242073, Note_on_c, 7, 63, 0
10, 242264, Note_on_c, 7, 60, 40
10, 242282, Note_on_c, 7, 60, 0
10, 242437, Note_on_c, 7, 62, 50
10, 242635, Note_on_c, 7, 62, 0
10, 243358, Note_on_c, 7, 62, 73
10, 243461, Note_on_c, 7, 62, 0
10, 243493, Note_on_c, 7, 60, 78
10, 243564, Note_on_c, 7, 60, 0
10, 243629, Note_on_c, 7, 58, 69
10, 243691, Note_on_c, 7, 58, 0
10, 243830, Note_on_c, 7, 57, 66
10, 243909, Note_on_c, 7, 57, 0
10, 244187, Note_on_c, 7, 54, 67
10, 244216, Note_on_c, 7, 54, 0
10, 244420, Note_on_c, 7, 57, 72
10, 244499, Note_on_c, 7, 57, 0
10, 244561, Note_on_c, 7, 54, 73
10, 244624, Note_on_c, 7, 54, 0
10, 244684, Note_on_c, 7, 55, 66
10, 244913, Note_on_c, 7, 55, 0
10, 245837, Note_on_c, 7, 55, 40
10, 245912, Note_on_c, 7, 55, 0
10, 245957, Note_on_c, 7, 57, 53
10, 246082, Note_on_c, 7, 57, 0
10, 246089, Note_on_c, 7, 58, 56
10, 246177, Note_on_c, 7, 58, 0
10, 246276, Note_on_c, 7, 57, 68
10, 246328, Note_on_c, 7, 57, 0
10, 246377, Note_on_c, 7, 58, 52
10, 246438, Note_on_c, 7, 58, 0
10, 246505, Note_on_c, 7, 60, 48
10, 246534, Note_on_c, 7, 60, 0
10, 246607, Note_on_c, 7, 58, 52
10, 246670, Note_on_c, 7, 58, 0
10, 246740, Note_on_c, 7, 60, 53
10, 246828, Note_on_c, 7, 60, 0
10, 246852, Note_on_c, 7, 62, 46
10, 246883, Note_on_c, 7, 62, 0
10, 247311, Note_on_c, 7, 74, 53
10, 247343, Note_on_c, 7, 74, 0
10, 247452, Note_on_c, 7, 79, 79
10, 247531, Note_on_c, 7, 79, 0
10, 247599, Note_on_c, 7, 77, 67
10, 247669, Note_on_c, 7, 77, 0
10, 247746, Note_on_c, 7, 75, 48
10, 247825, Note_on_c, 7, 75, 0
10, 247876, Note_on_c, 7, 71, 33
10, 247918, Note_on_c, 7, 71, 0
10, 247992, Note_on_c, 7, 74, 49
10, 248052, Note_on_c, 7, 74, 0
10, 248140, Note_on_c, 7, 72, 32
10, 248180, Note_on_c, 7, 72, 0
10, 248258, Note_on_c, 7, 67, 39
10, 248290, Note_on_c, 7, 67, 0
10, 248708, Note_on_c, 7, 63, 36
10, 248736, Note_on_c, 7, 63, 0
10, 249123, Note_on_c, 7, 65, 28
10, 249157, Note_on_c, 7, 65, 0
10, 249324, Note_on_c, 7, 63, 46
10, 249386, Note_on_c, 7, 63, 0
10, 249749, Note_on_c, 7, 62, 32
10, 249930, Note_on_c, 7, 62, 0
10, 249930, Note_on_c, 7, 60, 44
10, 249973, Note_on_c, 7, 60, 0
10, 249973, End_track
11, 0, Start_track
11, 0, MIDI_port, 1
11, 0, Program_c, 9, 0
11, 0, Control_c, 9, 7, 106
11, 1536, Note_on_c, 9, 35, 75
11, 1664, Note_on_c, 9, 35, 0
11, 2176, Note_on_c, 9, 35, 75
11, 2304, Note_on_c, 9, 35, 0
11, 3072, Note_on_c, 9, 35, 75
11, 3192, Note_on_c, 9, 35, 0
11, 3704, Note_on_c, 9, 35, 75
11, 3832, Note_on_c, 9, 35, 0
11, 4600, Note_on_c, 9, 35, 75
11, 4728, Note_on_c, 9, 35, 0
11, 5240, Note_on_c, 9, 35, 75
11, 5368, Note_on_c, 9, 35, 0
11, 6136, Note_on_c, 9, 35, 75
11, 6264, Note_on_c, 9, 35, 0
11, 6776, Note_on_c, 9, 35, 75
11, 6904, Note_on_c, 9, 35, 0
11, 7672, Note_on_c, 9, 35, 75
11, 7800, Note_on_c, 9, 35, 0
11, 8312, Note_on_c, 9, 35, 75
11, 8440, Note_on_c, 9, 35, 0
11, 9200, Note_on_c, 9, 35, 75
11, 9328, Note_on_c, 9, 35, 0
11, 9840, Note_on_c, 9, 35, 75
11, 9968, Note_on_c, 9, 35, 0
11, 10736, Note_on_c, 9, 35, 75
11, 10864, Note_on_c, 9, 35, 0
11, 11376, Note_on_c, 9, 35, 75
11, 11504, Note_on_c, 9, 35, 0
11, 12272, Note_on_c, 9, 35, 75
11, 12400, Note_on_c, 9, 35, 0
11, 12912, Note_on_c, 9, 35, 75
11, 13040, Note_on_c, 9, 35, 0
11, 13680, Note_on_c, 9, 35, 75
11, 13680, Note_on_c, 9, 35, 0
11, 13808, Note_on_c, 9, 35, 75
11, 13936, Note_on_c, 9, 35, 0
11, 14448, Note_on_c, 9, 35, 75
11, 14576, Note_on_c, 9, 35, 0
11, 15336, Note_on_c, 9, 35, 75
11, 15464, Note_on_c, 9, 35, 0
11, 15976, Note_on_c, 9, 35, 75
11, 16104, Note_on_c, 9, 35, 0
11, 16872, Note_on_c, 9, 35, 75
11, 17000, Note_on_c, 9, 35, 0
11, 17512, Note_on_c, 9, 35, 75
11, 17640, Note_on_c, 9, 35, 0
11, 18408, Note_on_c, 9, 35, 75
11, 18536, Note_on_c, 9, 35, 0
11, 19048, Note_on_c, 9, 35, 75
11, 19176, Note_on_c, 9, 35, 0
11, 19944, Note_on_c, 9, 35, 75
11, 20072, Note_on_c, 9, 35, 0
11, 20576, Note_on_c, 9, 35, 75
11, 20704, Note_on_c, 9, 35, 0
11, 21472, Note_on_c, 9, 35, 75
11, 21600, Note_on_c, 9, 35, 0
11, 22112, Note_on_c, 9, 35, 75
11, 22240, Note_on_c, 9, 35, 0
11, 23008, Note_on_c, 9, 35, 75
11, 23136, Note_on_c, 9, 35, 0
11, 23648, Note_on_c, 9, 35, 75
11, 23776, Note_on_c, 9, 35, 0
11, 24544, Note_on_c, 9, 35, 75
11, 24672, Note_on_c, 9, 35, 0
11, 25184, Note_on_c, 9, 35, 75
11, 25312, Note_on_c, 9, 35, 0
11, 26072, Note_on_c, 9, 35, 75
11, 26200, Note_on_c, 9, 35, 0
11, 26712, Note_on_c, 9, 35, 75
11, 26840, Note_on_c, 9, 35, 0
11, 27608, Note_on_c, 9, 35, 75
11, 27736, Note_on_c, 9, 35, 0
11, 28248, Note_on_c, 9, 35, 75
11, 28376, Note_on_c, 9, 35, 0
11, 29144, Note_on_c, 9, 35, 75
11, 29272, Note_on_c, 9, 35, 0
11, 29784, Note_on_c, 9, 35, 75
11, 29912, Note_on_c, 9, 35, 0
11, 30680, Note_on_c, 9, 35, 75
11, 30808, Note_on_c, 9, 35, 0
11, 31320, Note_on_c, 9, 35, 75
11, 31448, Note_on_c, 9, 35, 0
11, 32208, Note_on_c, 9, 35, 75
11, 32336, Note_on_c, 9, 35, 0
11, 32848, Note_on_c, 9, 35, 75
11, 32976, Note_on_c, 9, 35, 0
11, 33744, Note_on_c, 9, 35, 75
11, 33872, Note_on_c, 9, 35, 0
11, 34384, Note_on_c, 9, 35, 75
11, 34512, Note_on_c, 9, 35, 0
11, 35280, Note_on_c, 9, 35, 75
11, 35408, Note_on_c, 9, 35, 0
11, 35920, Note_on_c, 9, 35, 75
11, 36048, Note_on_c, 9, 35, 0
11, 36816, Note_on_c, 9, 35, 75
11, 36944, Note_on_c, 9, 35, 0
11, 37456, Note_on_c, 9, 35, 75
11, 37576, Note_on_c, 9, 35, 0
11, 38352, Note_on_c, 9, 35, 75
11, 38472, Note_on_c, 9, 35, 0
11, 38984, Note_on_c, 9, 35, 75
11, 39112, Note_on_c, 9, 35, 0
11, 39112, Note_on_c, 9, 35, 75
11, 39368, Note_on_c, 9, 35, 0
11, 39752, Note_on_c, 9, 35, 75
11, 39752, Note_on_c, 9, 35, 0
11, 39880, Note_on_c, 9, 35, 75
11, 39880, Note_on_c, 9, 35, 0
11, 40520, Note_on_c, 9, 35, 75
11, 41032, Note_on_c, 9, 35, 0
11, 41288, Note_on_c, 9, 35, 75
11, 41288, Note_on_c, 9, 35, 0
11, 41416, Note_on_c, 9, 35, 75
11, 41416, Note_on_c, 9, 35, 0
11, 42056, Note_on_c, 9, 35, 75
11, 42568, Note_on_c, 9, 35, 0
11, 42824, Note_on_c, 9, 35, 75
11, 42824, Note_on_c, 9, 35, 0
11, 42952, Note_on_c, 9, 35, 75
11, 43336, Note_on_c, 9, 35, 0
11, 44480, Note_on_c, 9, 35, 75
11, 44480, Note_on_c, 9, 35, 0
11, 45120, Note_on_c, 9, 35, 75
11, 45632, Note_on_c, 9, 35, 0
11, 45888, Note_on_c, 9, 35, 75
11, 45888, Note_on_c, 9, 35, 0
11, 46016, Note_on_c, 9, 35, 75
11, 46144, Note_on_c, 9, 35, 0
11, 46656, Note_on_c, 9, 35, 75
11, 47168, Note_on_c, 9, 35, 0
11, 47424, Note_on_c, 9, 35, 75
11, 47424, Note_on_c, 9, 35, 0
11, 47552, Note_on_c, 9, 35, 75
11, 47552, Note_on_c, 9, 35, 0
11, 48192, Note_on_c, 9, 35, 75
11, 48704, Note_on_c, 9, 35, 0
11, 48960, Note_on_c, 9, 35, 75
11, 48960, Note_on_c, 9, 35, 0
11, 49088, Note_on_c, 9, 35, 75
11, 49208, Note_on_c, 9, 35, 0
11, 50488, Note_on_c, 9, 35, 75
11, 50616, Note_on_c, 9, 35, 0
11, 50616, Note_on_c, 9, 35, 75
11, 50744, Note_on_c, 9, 35, 0
11, 51256, Note_on_c, 9, 35, 75
11, 51768, Note_on_c, 9, 35, 0
11, 52024, Note_on_c, 9, 35, 75
11, 52024, Note_on_c, 9, 35, 0
11, 52152, Note_on_c, 9, 35, 75
11, 52280, Note_on_c, 9, 35, 0
11, 52792, Note_on_c, 9, 35, 75
11, 53304, Note_on_c, 9, 35, 0
11, 53560, Note_on_c, 9, 35, 75
11, 53560, Note_on_c, 9, 35, 0
11, 53688, Note_on_c, 9, 35, 75
11, 53816, Note_on_c, 9, 35, 0
11, 54328, Note_on_c, 9, 35, 75
11, 54840, Note_on_c, 9, 35, 0
11, 55856, Note_on_c, 9, 35, 75
11, 55856, Note_on_c, 9, 35, 0
11, 55984, Note_on_c, 9, 35, 75
11, 56112, Note_on_c, 9, 35, 0
11, 56240, Note_on_c, 9, 35, 75
11, 56368, Note_on_c, 9, 35, 0
11, 56624, Note_on_c, 9, 35, 75
11, 56624, Note_on_c, 9, 35, 0
11, 56752, Note_on_c, 9, 35, 75
11, 56752, Note_on_c, 9, 35, 0
11, 57392, Note_on_c, 9, 35, 75
11, 57904, Note_on_c, 9, 35, 0
11, 58160, Note_on_c, 9, 35, 75
11, 58160, Note_on_c, 9, 35, 0
11, 58288, Note_on_c, 9, 35, 75
11, 58416, Note_on_c, 9, 35, 0
11, 58928, Note_on_c, 9, 35, 75
11, 59440, Note_on_c, 9, 35, 0
11, 59696, Note_on_c, 9, 35, 75
11, 59696, Note_on_c, 9, 35, 0
11, 59824, Note_on_c, 9, 35, 75
11, 59952, Note_on_c, 9, 35, 0
11, 60464, Note_on_c, 9, 35, 75
11, 60976, Note_on_c, 9, 35, 0
11, 61352, Note_on_c, 9, 35, 75
11, 61352, Note_on_c, 9, 35, 0
11, 61992, Note_on_c, 9, 35, 75
11, 62504, Note_on_c, 9, 35, 0
11, 62760, Note_on_c, 9, 35, 75
11, 62760, Note_on_c, 9, 35, 0
11, 62896, Note_on_c, 9, 35, 75
11, 63016, Note_on_c, 9, 35, 0
11, 63528, Note_on_c, 9, 35, 75
11, 63656, Note_on_c, 9, 35, 0
11, 64424, Note_on_c, 9, 35, 75
11, 64552, Note_on_c, 9, 35, 0
11, 65064, Note_on_c, 9, 35, 75
11, 65192, Note_on_c, 9, 35, 0
11, 65960, Note_on_c, 9, 35, 75
11, 66088, Note_on_c, 9, 35, 0
11, 66600, Note_on_c, 9, 35, 75
11, 66720, Note_on_c, 9, 35, 0
11, 67488, Note_on_c, 9, 35, 75
11, 67616, Note_on_c, 9, 35, 0
11, 68128, Note_on_c, 9, 35, 75
11, 68256, Note_on_c, 9, 35, 0
11, 69024, Note_on_c, 9, 35, 75
11, 69152, Note_on_c, 9, 35, 0
11, 69664, Note_on_c, 9, 35, 75
11, 69792, Note_on_c, 9, 35, 0
11, 70560, Note_on_c, 9, 35, 75
11, 70688, Note_on_c, 9, 35, 0
11, 71200, Note_on_c, 9, 35, 75
11, 71328, Note_on_c, 9, 35, 0
11, 72096, Note_on_c, 9, 35, 75
11, 72224, Note_on_c, 9, 35, 0
11, 72728, Note_on_c, 9, 35, 75
11, 72856, Note_on_c, 9, 35, 0
11, 73624, Note_on_c, 9, 35, 75
11, 73752, Note_on_c, 9, 35, 0
11, 74264, Note_on_c, 9, 35, 75
11, 74392, Note_on_c, 9, 35, 0
11, 75160, Note_on_c, 9, 35, 75
11, 75288, Note_on_c, 9, 35, 0
11, 75800, Note_on_c, 9, 35, 75
11, 75928, Note_on_c, 9, 35, 0
11, 76696, Note_on_c, 9, 35, 75
11, 76824, Note_on_c, 9, 35, 0
11, 77336, Note_on_c, 9, 35, 75
11, 77464, Note_on_c, 9, 35, 0
11, 78232, Note_on_c, 9, 35, 75
11, 78360, Note_on_c, 9, 35, 0
11, 78864, Note_on_c, 9, 35, 75
11, 78992, Note_on_c, 9, 35, 0
11, 79760, Note_on_c, 9, 35, 75
11, 79888, Note_on_c, 9, 35, 0
11, 80400, Note_on_c, 9, 35, 75
11, 80528, Note_on_c, 9, 35, 0
11, 81296, Note_on_c, 9, 35, 75
11, 81424, Note_on_c, 9, 35, 0
11, 81936, Note_on_c, 9, 35, 75
11, 82064, Note_on_c, 9, 35, 0
11, 82832, Note_on_c, 9, 35, 75
11, 82960, Note_on_c, 9, 35, 0
11, 83472, Note_on_c, 9, 35, 75
11, 83600, Note_on_c, 9, 35, 0
11, 84360, Note_on_c, 9, 35, 75
11, 84488, Note_on_c, 9, 35, 0
11, 85000, Note_on_c, 9, 35, 75
11, 85128, Note_on_c, 9, 35, 0
11, 85896, Note_on_c, 9, 35, 75
11, 86024, Note_on_c, 9, 35, 0
11, 86536, Note_on_c, 9, 35, 75
11, 86664, Note_on_c, 9, 35, 0
11, 87323, Note_on_c, 9, 35, 60
11, 87366, Note_on_c, 9, 35, 0
11, 87449, Note_on_c, 9, 35, 69
11, 87579, Note_on_c, 9, 35, 0
11, 88085, Note_on_c, 9, 35, 78
11, 88360, Note_on_c, 9, 35, 0
11, 88979, Note_on_c, 9, 35, 69
11, 89057, Note_on_c, 9, 35, 0
11, 89704, Note_on_c, 9, 35, 78
11, 89824, Note_on_c, 9, 35, 0
11, 90523, Note_on_c, 9, 35, 68
11, 90598, Note_on_c, 9, 35, 0
11, 91126, Note_on_c, 9, 35, 88
11, 91587, Note_on_c, 9, 35, 0
11, 92039, Note_on_c, 9, 35, 54
11, 92114, Note_on_c, 9, 35, 0
11, 92675, Note_on_c, 9, 35, 94
11, 93068, Note_on_c, 9, 35, 0
11, 93428, Note_on_c, 9, 35, 58
11, 93503, Note_on_c, 9, 35, 0
11, 93565, Note_on_c, 9, 35, 62
11, 93686, Note_on_c, 9, 35, 0
11, 94206, Note_on_c, 9, 35, 84
11, 94644, Note_on_c, 9, 35, 0
11, 95129, Note_on_c, 9, 35, 66
11, 95237, Note_on_c, 9, 35, 0
11, 95761, Note_on_c, 9, 35, 81
11, 96018, Note_on_c, 9, 35, 0
11, 96640, Note_on_c, 9, 35, 68
11, 96744, Note_on_c, 9, 35, 0
11, 97260, Note_on_c, 9, 35, 87
11, 97641, Note_on_c, 9, 35, 0
11, 98237, Note_on_c, 9, 35, 58
11, 98295, Note_on_c, 9, 35, 0
11, 98810, Note_on_c, 9, 35, 85
11, 99129, Note_on_c, 9, 35, 0
11, 99722, Note_on_c, 9, 35, 76
11, 99826, Note_on_c, 9, 35, 0
11, 100340, Note_on_c, 9, 35, 84
11, 100678, Note_on_c, 9, 35, 0
11, 101258, Note_on_c, 9, 35, 66
11, 101366, Note_on_c, 9, 35, 0
11, 101992, Note_on_c, 9, 35, 80
11, 102205, Note_on_c, 9, 35, 0
11, 102731, Note_on_c, 9, 35, 71
11, 102731, Note_on_c, 9, 35, 0
11, 103431, Note_on_c, 9, 35, 72
11, 103663, Note_on_c, 9, 35, 0
11, 104317, Note_on_c, 9, 35, 67
11, 104391, Note_on_c, 9, 35, 0
11, 104936, Note_on_c, 9, 35, 88
11, 105408, Note_on_c, 9, 35, 0
11, 105831, Note_on_c, 9, 35, 69
11, 105920, Note_on_c, 9, 35, 0
11, 106491, Note_on_c, 9, 35, 87
11, 106611, Note_on_c, 9, 35, 0
11, 107401, Note_on_c, 9, 35, 64
11, 107478, Note_on_c, 9, 35, 0
11, 108024, Note_on_c, 9, 35, 81
11, 108198, Note_on_c, 9, 35, 0
11, 108940, Note_on_c, 9, 35, 71
11, 108990, Note_on_c, 9, 35, 0
11, 109550, Note_on_c, 9, 35, 80
11, 109632, Note_on_c, 9, 35, 0
11, 110446, Note_on_c, 9, 35, 68
11, 110500, Note_on_c, 9, 35, 0
11, 111067, Note_on_c, 9, 35, 74
11, 111133, Note_on_c, 9, 35, 0
11, 111976, Note_on_c, 9, 35, 75
11, 112104, Note_on_c, 9, 35, 0
11, 112616, Note_on_c, 9, 35, 75
11, 112744, Note_on_c, 9, 35, 0
11, 113512, Note_on_c, 9, 35, 75
11, 113640, Note_on_c, 9, 35, 0
11, 114144, Note_on_c, 9, 35, 75
11, 114272, Note_on_c, 9, 35, 0
11, 115040, Note_on_c, 9, 35, 75
11, 115168, Note_on_c, 9, 35, 0
11, 115680, Note_on_c, 9, 35, 75
11, 115808, Note_on_c, 9, 35, 0
11, 116576, Note_on_c, 9, 35, 75
11, 116704, Note_on_c, 9, 35, 0
11, 117216, Note_on_c, 9, 35, 75
11, 117344, Note_on_c, 9, 35, 0
11, 118112, Note_on_c, 9, 35, 75
11, 118240, Note_on_c, 9, 35, 0
11, 118752, Note_on_c, 9, 35, 75
11, 118880, Note_on_c, 9, 35, 0
11, 119640, Note_on_c, 9, 35, 75
11, 119768, Note_on_c, 9, 35, 0
11, 120280, Note_on_c, 9, 35, 75
11, 120408, Note_on_c, 9, 35, 0
11, 121176, Note_on_c, 9, 35, 75
11, 121304, Note_on_c, 9, 35, 0
11, 121816, Note_on_c, 9, 35, 75
11, 121944, Note_on_c, 9, 35, 0
11, 122712, Note_on_c, 9, 35, 75
11, 122840, Note_on_c, 9, 35, 0
11, 123352, Note_on_c, 9, 35, 75
11, 123480, Note_on_c, 9, 35, 0
11, 124248, Note_on_c, 9, 35, 75
11, 124376, Note_on_c, 9, 35, 0
11, 124888, Note_on_c, 9, 35, 75
11, 125016, Note_on_c, 9, 35, 0
11, 125776, Note_on_c, 9, 35, 75
11, 125904, Note_on_c, 9, 35, 0
11, 126416, Note_on_c, 9, 35, 75
11, 126544, Note_on_c, 9, 35, 0
11, 127312, Note_on_c, 9, 35, 75
11, 127440, Note_on_c, 9, 35, 0
11, 127952, Note_on_c, 9, 35, 75
11, 128080, Note_on_c, 9, 35, 0
11, 128848, Note_on_c, 9, 35, 75
11, 128976, Note_on_c, 9, 35, 0
11, 129488, Note_on_c, 9, 35, 75
11, 129616, Note_on_c, 9, 35, 0
11, 130384, Note_on_c, 9, 35, 75
11, 130512, Note_on_c, 9, 35, 0
11, 131024, Note_on_c, 9, 35, 75
11, 131152, Note_on_c, 9, 35, 0
11, 131912, Note_on_c, 9, 35, 75
11, 132048, Note_on_c, 9, 35, 0
11, 132552, Note_on_c, 9, 35, 75
11, 132680, Note_on_c, 9, 35, 0
11, 133448, Note_on_c, 9, 35, 75
11, 133576, Note_on_c, 9, 35, 0
11, 134088, Note_on_c, 9, 35, 75
11, 134216, Note_on_c, 9, 35, 0
11, 134984, Note_on_c, 9, 35, 75
11, 135112, Note_on_c, 9, 35, 0
11, 135624, Note_on_c, 9, 35, 75
11, 135752, Note_on_c, 9, 35, 0
11, 136548, Note_on_c, 9, 35, 68
11, 136621, Note_on_c, 9, 35, 0
11, 137146, Note_on_c, 9, 35, 84
11, 137296, Note_on_c, 9, 35, 0
11, 138047, Note_on_c, 9, 35, 70
11, 138113, Note_on_c, 9, 35, 0
11, 138690, Note_on_c, 9, 35, 82
11, 138746, Note_on_c, 9, 35, 0
11, 139652, Note_on_c, 9, 35, 66
11, 139652, Note_on_c, 9, 35, 0
11, 140215, Note_on_c, 9, 35, 84
11, 140420, Note_on_c, 9, 35, 0
11, 141112, Note_on_c, 9, 35, 62
11, 141164, Note_on_c, 9, 35, 0
11, 141727, Note_on_c, 9, 35, 89
11, 141933, Note_on_c, 9, 35, 0
11, 142644, Note_on_c, 9, 35, 53
11, 142695, Note_on_c, 9, 35, 0
11, 143301, Note_on_c, 9, 35, 87
11, 143568, Note_on_c, 9, 35, 0
11, 144171, Note_on_c, 9, 35, 53
11, 144243, Note_on_c, 9, 35, 0
11, 144857, Note_on_c, 9, 35, 89
11, 145008, Note_on_c, 9, 35, 0
11, 145759, Note_on_c, 9, 35, 34
11, 145814, Note_on_c, 9, 35, 0
11, 146358, Note_on_c, 9, 35, 81
11, 146608, Note_on_c, 9, 35, 0
11, 147256, Note_on_c, 9, 35, 62
11, 147329, Note_on_c, 9, 35, 0
11, 147888, Note_on_c, 9, 35, 83
11, 148040, Note_on_c, 9, 35, 0
11, 148677, Note_on_c, 9, 35, 54
11, 148736, Note_on_c, 9, 35, 0
11, 148927, Note_on_c, 9, 35, 73
11, 148976, Note_on_c, 9, 35, 0
11, 149454, Note_on_c, 9, 35, 77
11, 149604, Note_on_c, 9, 35, 0
11, 150433, Note_on_c, 9, 35, 59
11, 150433, Note_on_c, 9, 35, 0
11, 150986, Note_on_c, 9, 35, 69
11, 151067, Note_on_c, 9, 35, 0
11, 151735, Note_on_c, 9, 35, 67
11, 151805, Note_on_c, 9, 35, 0
11, 151986, Note_on_c, 9, 35, 73
11, 151986, Note_on_c, 9, 35, 0
11, 152645, Note_on_c, 9, 35, 64
11, 152774, Note_on_c, 9, 35, 0
11, 153408, Note_on_c, 9, 35, 59
11, 153489, Note_on_c, 9, 35, 0
11, 153990, Note_on_c, 9, 35, 80
11, 154201, Note_on_c, 9, 35, 0
11, 154790, Note_on_c, 9, 35, 64
11, 154856, Note_on_c, 9, 35, 0
11, 154914, Note_on_c, 9, 35, 72
11, 155068, Note_on_c, 9, 35, 0
11, 155554, Note_on_c, 9, 35, 80
11, 155719, Note_on_c, 9, 35, 0
11, 156542, Note_on_c, 9, 35, 55
11, 156543, Note_on_c, 9, 35, 0
11, 157119, Note_on_c, 9, 35, 80
11, 157290, Note_on_c, 9, 35, 0
11, 157987, Note_on_c, 9, 35, 58
11, 158079, Note_on_c, 9, 35, 0
11, 158607, Note_on_c, 9, 35, 74
11, 158741, Note_on_c, 9, 35, 0
11, 159515, Note_on_c, 9, 35, 65
11, 159608, Note_on_c, 9, 35, 0
11, 160149, Note_on_c, 9, 35, 71
11, 160293, Note_on_c, 9, 35, 0
11, 161064, Note_on_c, 9, 35, 75
11, 161184, Note_on_c, 9, 35, 0
11, 161696, Note_on_c, 9, 35, 75
11, 162336, Note_on_c, 9, 35, 0
11, 162592, Note_on_c, 9, 35, 75
11, 162720, Note_on_c, 9, 35, 0
11, 163232, Note_on_c, 9, 35, 75
11, 163744, Note_on_c, 9, 35, 0
11, 164128, Note_on_c, 9, 35, 75
11, 164256, Note_on_c, 9, 35, 0
11, 164768, Note_on_c, 9, 35, 75
11, 165408, Note_on_c, 9, 35, 0
11, 165664, Note_on_c, 9, 35, 75
11, 165792, Note_on_c, 9, 35, 0
11, 166304, Note_on_c, 9, 35, 75
11, 166808, Note_on_c, 9, 35, 0
11, 167200, Note_on_c, 9, 35, 75
11, 167320, Note_on_c, 9, 35, 0
11, 167832, Note_on_c, 9, 35, 75
11, 168472, Note_on_c, 9, 35, 0
11, 168728, Note_on_c, 9, 35, 75
11, 168856, Note_on_c, 9, 35, 0
11, 169368, Note_on_c, 9, 35, 75
11, 169880, Note_on_c, 9, 35, 0
11, 170264, Note_on_c, 9, 35, 75
11, 170392, Note_on_c, 9, 35, 0
11, 170904, Note_on_c, 9, 35, 75
11, 171544, Note_on_c, 9, 35, 0
11, 171800, Note_on_c, 9, 35, 75
11, 171928, Note_on_c, 9, 35, 0
11, 172440, Note_on_c, 9, 35, 75
11, 172944, Note_on_c, 9, 35, 0
11, 173961, Note_on_c, 9, 35, 74
11, 174139, Note_on_c, 9, 35, 0
11, 174732, Note_on_c, 9, 35, 58
11, 174795, Note_on_c, 9, 35, 0
11, 174967, Note_on_c, 9, 35, 60
11, 174967, Note_on_c, 9, 35, 0
11, 175518, Note_on_c, 9, 35, 72
11, 175655, Note_on_c, 9, 35, 0
11, 176476, Note_on_c, 9, 35, 57
11, 176477, Note_on_c, 9, 35, 0
11, 177046, Note_on_c, 9, 35, 71
11, 177148, Note_on_c, 9, 35, 0
11, 177948, Note_on_c, 9, 35, 64
11, 178033, Note_on_c, 9, 35, 0
11, 178624, Note_on_c, 9, 35, 72
11, 178676, Note_on_c, 9, 35, 0
11, 179540, Note_on_c, 9, 35, 59
11, 179542, Note_on_c, 9, 35, 0
11, 180117, Note_on_c, 9, 35, 71
11, 180211, Note_on_c, 9, 35, 0
11, 180991, Note_on_c, 9, 35, 64
11, 181081, Note_on_c, 9, 35, 0
11, 181619, Note_on_c, 9, 35, 80
11, 181739, Note_on_c, 9, 35, 0
11, 182524, Note_on_c, 9, 35, 62
11, 182595, Note_on_c, 9, 35, 0
11, 183148, Note_on_c, 9, 35, 81
11, 183412, Note_on_c, 9, 35, 0
11, 184077, Note_on_c, 9, 35, 51
11, 184144, Note_on_c, 9, 35, 0
11, 184702, Note_on_c, 9, 35, 80
11, 184892, Note_on_c, 9, 35, 0
11, 185459, Note_on_c, 9, 35, 69
11, 185542, Note_on_c, 9, 35, 0
11, 185594, Note_on_c, 9, 35, 74
11, 185754, Note_on_c, 9, 35, 0
11, 186244, Note_on_c, 9, 35, 83
11, 186619, Note_on_c, 9, 35, 0
11, 187125, Note_on_c, 9, 35, 52
11, 187203, Note_on_c, 9, 35, 0
11, 187788, Note_on_c, 9, 35, 77
11, 187967, Note_on_c, 9, 35, 0
11, 188658, Note_on_c, 9, 35, 55
11, 188740, Note_on_c, 9, 35, 0
11, 189376, Note_on_c, 9, 35, 75
11, 189523, Note_on_c, 9, 35, 0
11, 190206, Note_on_c, 9, 35, 54
11, 190300, Note_on_c, 9, 35, 0
11, 190845, Note_on_c, 9, 35, 69
11, 191031, Note_on_c, 9, 35, 0
11, 191628, Note_on_c, 9, 35, 64
11, 191681, Note_on_c, 9, 35, 0
11, 191743, Note_on_c, 9, 35, 77
11, 191873, Note_on_c, 9, 35, 0
11, 192371, Note_on_c, 9, 35, 71
11, 192775, Note_on_c, 9, 35, 0
11, 193283, Note_on_c, 9, 35, 55
11, 193365, Note_on_c, 9, 35, 0
11, 193906, Note_on_c, 9, 35, 69
11, 194248, Note_on_c, 9, 35, 0
11, 194786, Note_on_c, 9, 35, 51
11, 194882, Note_on_c, 9, 35, 0
11, 195450, Note_on_c, 9, 35, 54
11, 195591, Note_on_c, 9, 35, 0
11, 196355, Note_on_c, 9, 35, 45
11, 196421, Note_on_c, 9, 35, 0
11, 196983, Note_on_c, 9, 35, 78
11, 197236, Note_on_c, 9, 35, 0
11, 197880, Note_on_c, 9, 35, 75
11, 198000, Note_on_c, 9, 35, 0
11, 198512, Note_on_c, 9, 35, 75
11, 198640, Note_on_c, 9, 35, 0
11, 198640, Note_on_c, 9, 35, 75
11, 198768, Note_on_c, 9, 35, 0
11, 198896, Note_on_c, 9, 35, 75
11, 199024, Note_on_c, 9, 35, 0
11, 199280, Note_on_c, 9, 35, 75
11, 199792, Note_on_c, 9, 35, 0
11, 200048, Note_on_c, 9, 35, 75
11, 200176, Note_on_c, 9, 35, 0
11, 200176, Note_on_c, 9, 35, 75
11, 200176, Note_on_c, 9, 35, 0
11, 200432, Note_on_c, 9, 35, 75
11, 200560, Note_on_c, 9, 35, 0
11, 200816, Note_on_c, 9, 35, 75
11, 200816, Note_on_c, 9, 35, 0
11, 200944, Note_on_c, 9, 35, 75
11, 200944, Note_on_c, 9, 35, 0
11, 201200, Note_on_c, 9, 35, 75
11, 201328, Note_on_c, 9, 35, 0
11, 201584, Note_on_c, 9, 35, 75
11, 201584, Note_on_c, 9, 35, 0
11, 201712, Note_on_c, 9, 35, 75
11, 201840, Note_on_c, 9, 35, 0
11, 201968, Note_on_c, 9, 35, 75
11, 202096, Note_on_c, 9, 35, 0
11, 202344, Note_on_c, 9, 35, 75
11, 202344, Note_on_c, 9, 35, 0
11, 202472, Note_on_c, 9, 35, 75
11, 202472, Note_on_c, 9, 35, 0
11, 202728, Note_on_c, 9, 35, 75
11, 202856, Note_on_c, 9, 35, 0
11, 203112, Note_on_c, 9, 35, 75
11, 203368, Note_on_c, 9, 35, 0
11, 203496, Note_on_c, 9, 35, 75
11, 203624, Note_on_c, 9, 35, 0
11, 203880, Note_on_c, 9, 35, 75
11, 203880, Note_on_c, 9, 35, 0
11, 204008, Note_on_c, 9, 35, 75
11, 204008, Note_on_c, 9, 35, 0
11, 204264, Note_on_c, 9, 35, 75
11, 204392, Note_on_c, 9, 35, 0
11, 204648, Note_on_c, 9, 35, 75
11, 205160, Note_on_c, 9, 35, 0
11, 205544, Note_on_c, 9, 35, 75
11, 205544, Note_on_c, 9, 35, 0
11, 205800, Note_on_c, 9, 35, 75
11, 205928, Note_on_c, 9, 35, 0
11, 206184, Note_on_c, 9, 35, 75
11, 206696, Note_on_c, 9, 35, 0
11, 207080, Note_on_c, 9, 35, 75
11, 207464, Note_on_c, 9, 35, 0
11, 207720, Note_on_c, 9, 35, 75
11, 207720, Note_on_c, 9, 35, 0
11, 207848, Note_on_c, 9, 35, 75
11, 207848, Note_on_c, 9, 35, 0
11, 208104, Note_on_c, 9, 35, 75
11, 208224, Note_on_c, 9, 35, 0
11, 208488, Note_on_c, 9, 35, 75
11, 208488, Note_on_c, 9, 35, 0
11, 208608, Note_on_c, 9, 35, 75
11, 208608, Note_on_c, 9, 35, 0
11, 208864, Note_on_c, 9, 35, 75
11, 208992, Note_on_c, 9, 35, 0
11, 209248, Note_on_c, 9, 35, 75
11, 209504, Note_on_c, 9, 35, 0
11, 209632, Note_on_c, 9, 35, 75
11, 209760, Note_on_c, 9, 35, 0
11, 210016, Note_on_c, 9, 35, 75
11, 210144, Note_on_c, 9, 35, 0
11, 210144, Note_on_c, 9, 35, 75
11, 210272, Note_on_c, 9, 35, 0
11, 210784, Note_on_c, 9, 35, 75
11, 210784, Note_on_c, 9, 35, 0
11, 210912, Note_on_c, 9, 35, 75
11, 210912, Note_on_c, 9, 35, 0
11, 211168, Note_on_c, 9, 35, 75
11, 211296, Note_on_c, 9, 35, 0
11, 211552, Note_on_c, 9, 35, 75
11, 212064, Note_on_c, 9, 35, 0
11, 212320, Note_on_c, 9, 35, 75
11, 212320, Note_on_c, 9, 35, 0
11, 212448, Note_on_c, 9, 35, 75
11, 212448, Note_on_c, 9, 35, 0
11, 212704, Note_on_c, 9, 35, 75
11, 212832, Note_on_c, 9, 35, 0
11, 213088, Note_on_c, 9, 35, 75
11, 213600, Note_on_c, 9, 35, 0
11, 213856, Note_on_c, 9, 35, 75
11, 213856, Note_on_c, 9, 35, 0
11, 213984, Note_on_c, 9, 35, 75
11, 213984, Note_on_c, 9, 35, 0
11, 214240, Note_on_c, 9, 35, 75
11, 214240, Note_on_c, 9, 35, 0
11, 214368, Note_on_c, 9, 35, 75
11, 214488, Note_on_c, 9, 35, 0
11, 214616, Note_on_c, 9, 35, 75
11, 214744, Note_on_c, 9, 35, 0
11, 215384, Note_on_c, 9, 35, 75
11, 215384, Note_on_c, 9, 35, 0
11, 215512, Note_on_c, 9, 35, 75
11, 215512, Note_on_c, 9, 35, 0
11, 215768, Note_on_c, 9, 35, 75
11, 215896, Note_on_c, 9, 35, 0
11, 216280, Note_on_c, 9, 35, 75
11, 216664, Note_on_c, 9, 35, 0
11, 216920, Note_on_c, 9, 35, 75
11, 216920, Note_on_c, 9, 35, 0
11, 217048, Note_on_c, 9, 35, 75
11, 217432, Note_on_c, 9, 35, 0
11, 217816, Note_on_c, 9, 35, 75
11, 218200, Note_on_c, 9, 35, 0
11, 218456, Note_on_c, 9, 35, 75
11, 218456, Note_on_c, 9, 35, 0
11, 218584, Note_on_c, 9, 35, 75
11, 218584, Note_on_c, 9, 35, 0
11, 218840, Note_on_c, 9, 35, 75
11, 218968, Note_on_c, 9, 35, 0
11, 219224, Note_on_c, 9, 35, 75
11, 219224, Note_on_c, 9, 35, 0
11, 219352, Note_on_c, 9, 35, 75
11, 219736, Note_on_c, 9, 35, 0
11, 220112, Note_on_c, 9, 35, 75
11, 220112, Note_on_c, 9, 35, 0
11, 220368, Note_on_c, 9, 35, 75
11, 220496, Note_on_c, 9, 35, 0
11, 220752, Note_on_c, 9, 35, 75
11, 221264, Note_on_c, 9, 35, 0
11, 221648, Note_on_c, 9, 35, 75
11, 221776, Note_on_c, 9, 35, 0
11, 221904, Note_on_c, 9, 35, 75
11, 222032, Note_on_c, 9, 35, 0
11, 222288, Note_on_c, 9, 35, 75
11, 222288, Note_on_c, 9, 35, 0
11, 222416, Note_on_c, 9, 35, 75
11, 222544, Note_on_c, 9, 35, 0
11, 223056, Note_on_c, 9, 35, 75
11, 223184, Note_on_c, 9, 35, 0
11, 223184, Note_on_c, 9, 35, 75
11, 223312, Note_on_c, 9, 35, 0
11, 223440, Note_on_c, 9, 35, 75
11, 223568, Note_on_c, 9, 35, 0
11, 223824, Note_on_c, 9, 35, 75
11, 224336, Note_on_c, 9, 35, 0
11, 224592, Note_on_c, 9, 35, 75
11, 224720, Note_on_c, 9, 35, 0
11, 224720, Note_on_c, 9, 35, 75
11, 224720, Note_on_c, 9, 35, 0
11, 224976, Note_on_c, 9, 35, 75
11, 225104, Note_on_c, 9, 35, 0
11, 225360, Note_on_c, 9, 35, 75
11, 225360, Note_on_c, 9, 35, 0
11, 225488, Note_on_c, 9, 35, 75
11, 225488, Note_on_c, 9, 35, 0
11, 225744, Note_on_c, 9, 35, 75
11, 225872, Note_on_c, 9, 35, 0
11, 226120, Note_on_c, 9, 35, 75
11, 226120, Note_on_c, 9, 35, 0
11, 226248, Note_on_c, 9, 35, 75
11, 226384, Note_on_c, 9, 35, 0
11, 226512, Note_on_c, 9, 35, 75
11, 226632, Note_on_c, 9, 35, 0
11, 226888, Note_on_c, 9, 35, 75
11, 226888, Note_on_c, 9, 35, 0
11, 227016, Note_on_c, 9, 35, 75
11, 227016, Note_on_c, 9, 35, 0
11, 227272, Note_on_c, 9, 35, 75
11, 227400, Note_on_c, 9, 35, 0
11, 227656, Note_on_c, 9, 35, 75
11, 227912, Note_on_c, 9, 35, 0
11, 228040, Note_on_c, 9, 35, 75
11, 228168, Note_on_c, 9, 35, 0
11, 228424, Note_on_c, 9, 35, 75
11, 228424, Note_on_c, 9, 35, 0
11, 228552, Note_on_c, 9, 35, 75
11, 228552, Note_on_c, 9, 35, 0
11, 228808, Note_on_c, 9, 35, 75
11, 228936, Note_on_c, 9, 35, 0
11, 229192, Note_on_c, 9, 35, 75
11, 229704, Note_on_c, 9, 35, 0
11, 230088, Note_on_c, 9, 35, 75
11, 230088, Note_on_c, 9, 35, 0
11, 230344, Note_on_c, 9, 35, 75
11, 230472, Note_on_c, 9, 35, 0
11, 230728, Note_on_c, 9, 35, 75
11, 231240, Note_on_c, 9, 35, 0
11, 231624, Note_on_c, 9, 35, 75
11, 232008, Note_on_c, 9, 35, 0
11, 232264, Note_on_c, 9, 35, 75
11, 232264, Note_on_c, 9, 35, 0
11, 232392, Note_on_c, 9, 35, 75
11, 232392, Note_on_c, 9, 35, 0
11, 232640, Note_on_c, 9, 35, 75
11, 232768, Note_on_c, 9, 35, 0
11, 233024, Note_on_c, 9, 35, 75
11, 233024, Note_on_c, 9, 35, 0
11, 233152, Note_on_c, 9, 35, 75
11, 233152, Note_on_c, 9, 35, 0
11, 233408, Note_on_c, 9, 35, 75
11, 233536, Note_on_c, 9, 35, 0
11, 233792, Note_on_c, 9, 35, 75
11, 234048, Note_on_c, 9, 35, 0
11, 234176, Note_on_c, 9, 35, 75
11, 234304, Note_on_c, 9, 35, 0
11, 234560, Note_on_c, 9, 35, 75
11, 234688, Note_on_c, 9, 35, 0
11, 234688, Note_on_c, 9, 35, 75
11, 234816, Note_on_c, 9, 35, 0
11, 235328, Note_on_c, 9, 35, 75
11, 235328, Note_on_c, 9, 35, 0
11, 235456, Note_on_c, 9, 35, 75
11, 235456, Note_on_c, 9, 35, 0
11, 235712, Note_on_c, 9, 35, 75
11, 235840, Note_on_c, 9, 35, 0
11, 236096, Note_on_c, 9, 35, 75
11, 236608, Note_on_c, 9, 35, 0
11, 236864, Note_on_c, 9, 35, 75
11, 236864, Note_on_c, 9, 35, 0
11, 236992, Note_on_c, 9, 35, 75
11, 236992, Note_on_c, 9, 35, 0
11, 237248, Note_on_c, 9, 35, 75
11, 237376, Note_on_c, 9, 35, 0
11, 237632, Note_on_c, 9, 35, 75
11, 238144, Note_on_c, 9, 35, 0
11, 238392, Note_on_c, 9, 35, 75
11, 238392, Note_on_c, 9, 35, 0
11, 238520, Note_on_c, 9, 35, 75
11, 238520, Note_on_c, 9, 35, 0
11, 238776, Note_on_c, 9, 35, 75
11, 238776, Note_on_c, 9, 35, 0
11, 238904, Note_on_c, 9, 35, 75
11, 239032, Note_on_c, 9, 35, 0
11, 239160, Note_on_c, 9, 35, 75
11, 239288, Note_on_c, 9, 35, 0
11, 239928, Note_on_c, 9, 35, 75
11, 239928, Note_on_c, 9, 35, 0
11, 240056, Note_on_c, 9, 35, 75
11, 240056, Note_on_c, 9, 35, 0
11, 240312, Note_on_c, 9, 35, 75
11, 240440, Note_on_c, 9, 35, 0
11, 240824, Note_on_c, 9, 35, 75
11, 241208, Note_on_c, 9, 35, 0
11, 241464, Note_on_c, 9, 35, 75
11, 241464, Note_on_c, 9, 35, 0
11, 241592, Note_on_c, 9, 35, 75
11, 241976, Note_on_c, 9, 35, 0
11, 242360, Note_on_c, 9, 35, 75
11, 242744, Note_on_c, 9, 35, 0
11, 243000, Note_on_c, 9, 35, 75
11, 243000, Note_on_c, 9, 35, 0
11, 243128, Note_on_c, 9, 35, 75
11, 243128, Note_on_c, 9, 35, 0
11, 243384, Note_on_c, 9, 35, 75
11, 243512, Note_on_c, 9, 35, 0
11, 243768, Note_on_c, 9, 35, 75
11, 243768, Note_on_c, 9, 35, 0
11, 243896, Note_on_c, 9, 35, 75
11, 244272, Note_on_c, 9, 35, 0
11, 244656, Note_on_c, 9, 35, 75
11, 244656, Note_on_c, 9, 35, 0
11, 244912, Note_on_c, 9, 35, 75
11, 245040, Note_on_c, 9, 35, 0
11, 245296, Note_on_c, 9, 35, 75
11, 245808, Note_on_c, 9, 35, 0
11, 246192, Note_on_c, 9, 35, 75
11, 246320, Note_on_c, 9, 35, 0
11, 246448, Note_on_c, 9, 35, 75
11, 246576, Note_on_c, 9, 35, 0
11, 246832, Note_on_c, 9, 35, 75
11, 246832, Note_on_c, 9, 35, 0
11, 246960, Note_on_c, 9, 35, 75
11, 247088, Note_on_c, 9, 35, 0
11, 247600, Note_on_c, 9, 35, 75
11, 247728, Note_on_c, 9, 35, 0
11, 247728, Note_on_c, 9, 35, 75
11, 247984, Note_on_c, 9, 35, 0
11, 248496, Note_on_c, 9, 35, 75
11, 248624, Note_on_c, 9, 35, 0
11, 249136, Note_on_c, 9, 35, 75
11, 249264, Note_on_c, 9, 35, 0
11, 249264, Note_on_c, 9, 35, 75
11, 249520, Note_on_c, 9, 35, 0
11, 250024, Note_on_c, 9, 35, 75
11, 250152, Note_on_c, 9, 35, 0
11, 250792, Note_on_c, 9, 35, 75
11, 251176, Note_on_c, 9, 35, 0
11, 251560, Note_on_c, 9, 35, 75
11, 251688, Note_on_c, 9, 35, 0
11, 252200, Note_on_c, 9, 35, 75
11, 252200, Note_on_c, 9, 35, 0
11, 252328, Note_on_c, 9, 35, 75
11, 252712, Note_on_c, 9, 35, 0
11, 253096, Note_on_c, 9, 35, 75
11, 253224, Note_on_c, 9, 35, 0
11, 253736, Note_on_c, 9, 35, 75
11, 253864, Note_on_c, 9, 35, 0
11, 253864, Note_on_c, 9, 35, 75
11, 254120, Note_on_c, 9, 35, 0
11, 254632, Note_on_c, 9, 35, 75
11, 254760, Note_on_c, 9, 35, 0
11, 255272, Note_on_c, 9, 35, 75
11, 255272, Note_on_c, 9, 35, 0
11, 255400, Note_on_c, 9, 35, 75
11, 255784, Note_on_c, 9, 35, 0
11, 255784, End_track
0, 0, End_of_file
