0, 0, Header, 0, 1, 120
1, 0, Start_track
1, 0, Title_t, "Love Walked In"
1, 0, Text_t, "Doug McKenzie dougmck@pipeline.com.au \012"
1, 0, Text_t, "Unedited piano solo\012"
1, 0, System_exclusive, 5, 126, 127, 9, 1, 247
1, 0, Time_signature, 4, 2, 24, 8
1, 0, Key_signature, -3, "major"
1, 0, Tempo, 600000
1, 1, Tempo, 500000
1, 1, System_exclusive, 8, 67, 115, 1, 17, 15, 89, 3, 247
1, 17, Marker_t, "Love Walked In                  "
1, 481, Note_on_c, 0, 46, 37
1, 537, Note_on_c, 0, 46, 0
1, 547, Control_c, 0, 64, 127
1, 548, Note_on_c, 0, 39, 35
1, 583, Note_on_c, 0, 39, 0
1, 672, Note_on_c, 0, 58, 43
1, 676, Note_on_c, 0, 67, 57
1, 676, Note_on_c, 0, 63, 53
1, 677, Note_on_c, 0, 55, 45
1, 750, Note_on_c, 0, 55, 0
1, 845, Note_on_c, 0, 58, 0
1, 904, Note_on_c, 0, 67, 0
1, 914, Note_on_c, 0, 63, 0
1, 928, Control_c, 0, 64, 0
1, 933, Note_on_c, 0, 32, 43
1, 949, Note_on_c, 0, 32, 0
1, 957, Control_c, 0, 64, 127
1, 1064, Note_on_c, 0, 60, 54
1, 1067, Note_on_c, 0, 54, 39
1, 1204, Note_on_c, 0, 60, 0
1, 1223, Note_on_c, 0, 54, 0
1, 1351, Control_c, 0, 64, 0
1, 1357, Note_on_c, 0, 43, 55
1, 1374, Note_on_c, 0, 43, 0
1, 1379, Control_c, 0, 64, 127
1, 1484, Note_on_c, 0, 58, 38
1, 1486, Note_on_c, 0, 53, 34
1, 1488, Note_on_c, 0, 62, 36
1, 1492, Note_on_c, 0, 57, 43
1, 1658, Note_on_c, 0, 62, 0
1, 1662, Note_on_c, 0, 57, 0
1, 1666, Note_on_c, 0, 58, 0
1, 1668, Note_on_c, 0, 53, 0
1, 1774, Control_c, 0, 64, 0
1, 1784, Note_on_c, 0, 70, 86
1, 1787, Note_on_c, 0, 48, 65
1, 1788, Note_on_c, 0, 58, 53
1, 1797, Note_on_c, 0, 48, 0
1, 1801, Control_c, 0, 64, 127
1, 1814, Note_on_c, 0, 58, 0
1, 1844, Note_on_c, 0, 70, 0
1, 1906, Note_on_c, 0, 75, 90
1, 1908, Note_on_c, 0, 58, 45
1, 1909, Note_on_c, 0, 62, 56
1, 1911, Note_on_c, 0, 63, 44
1, 1911, Note_on_c, 0, 67, 58
1, 1959, Note_on_c, 0, 75, 0
1, 1987, Note_on_c, 0, 79, 78
1, 2006, Note_on_c, 0, 67, 0
1, 2011, Note_on_c, 0, 62, 0
1, 2021, Note_on_c, 0, 63, 0
1, 2026, Note_on_c, 0, 58, 0
1, 2027, Note_on_c, 0, 79, 0
1, 2108, Note_on_c, 0, 82, 73
1, 2129, Note_on_c, 0, 82, 0
1, 2169, Control_c, 0, 64, 0
1, 2181, Note_on_c, 0, 41, 53
1, 2182, Note_on_c, 0, 74, 75
1, 2183, Note_on_c, 0, 81, 64
1, 2193, Note_on_c, 0, 41, 0
1, 2198, Control_c, 0, 64, 127
1, 2277, Note_on_c, 0, 74, 0
1, 2306, Note_on_c, 0, 57, 51
1, 2449, Note_on_c, 0, 57, 0
1, 2512, Note_on_c, 0, 75, 58
1, 2575, Note_on_c, 0, 75, 0
1, 2593, Note_on_c, 0, 69, 42
1, 2594, Note_on_c, 0, 74, 62
1, 2597, Note_on_c, 0, 63, 33
1, 2598, Note_on_c, 0, 57, 35
1, 2599, Control_c, 0, 64, 0
1, 2626, Control_c, 0, 64, 127
1, 2701, Note_on_c, 0, 74, 0
1, 2715, Note_on_c, 0, 69, 0
1, 2733, Note_on_c, 0, 63, 0
1, 2734, Note_on_c, 0, 81, 0
1, 2798, Note_on_c, 0, 73, 74
1, 2798, Note_on_c, 0, 81, 78
1, 2798, Note_on_c, 0, 77, 64
1, 2801, Note_on_c, 0, 69, 74
1, 2806, Note_on_c, 0, 65, 51
1, 2854, Note_on_c, 0, 81, 0
1, 2858, Note_on_c, 0, 77, 0
1, 2866, Note_on_c, 0, 79, 57
1, 2904, Note_on_c, 0, 79, 0
1, 2906, Note_on_c, 0, 69, 0
1, 2918, Note_on_c, 0, 81, 66
1, 2921, Note_on_c, 0, 57, 0
1, 2923, Note_on_c, 0, 65, 0
1, 2930, Note_on_c, 0, 73, 0
1, 2931, Note_on_c, 0, 79, 17
1, 2941, Note_on_c, 0, 81, 0
1, 2943, Note_on_c, 0, 79, 0
1, 2991, Note_on_c, 0, 77, 50
1, 2991, Note_on_c, 0, 72, 45
1, 2992, Control_c, 0, 64, 0
1, 2994, Note_on_c, 0, 68, 34
1, 2996, Note_on_c, 0, 82, 32
1, 2999, Note_on_c, 0, 60, 24
1, 3001, Note_on_c, 0, 63, 35
1, 3006, Note_on_c, 0, 75, 20
1, 3036, Control_c, 0, 64, 127
1, 3052, Note_on_c, 0, 58, 45
1, 3062, Note_on_c, 0, 63, 0
1, 3064, Note_on_c, 0, 68, 0
1, 3064, Note_on_c, 0, 60, 0
1, 3082, Note_on_c, 0, 58, 0
1, 3182, Note_on_c, 0, 46, 60
1, 3187, Note_on_c, 0, 75, 0
1, 3189, Note_on_c, 0, 77, 0
1, 3192, Note_on_c, 0, 72, 0
1, 3193, Note_on_c, 0, 82, 0
1, 3204, Note_on_c, 0, 46, 0
1, 3244, Note_on_c, 0, 34, 50
1, 3267, Note_on_c, 0, 34, 0
1, 3378, Note_on_c, 0, 67, 55
1, 3379, Note_on_c, 0, 62, 43
1, 3381, Note_on_c, 0, 71, 48
1, 3383, Note_on_c, 0, 56, 31
1, 3418, Control_c, 0, 64, 0
1, 3443, Note_on_c, 0, 46, 53
1, 3463, Control_c, 0, 64, 127
1, 3511, Note_on_c, 0, 67, 0
1, 3517, Note_on_c, 0, 71, 0
1, 3519, Note_on_c, 0, 62, 0
1, 3534, Note_on_c, 0, 56, 0
1, 3582, Note_on_c, 0, 74, 80
1, 3586, Note_on_c, 0, 67, 80
1, 3587, Note_on_c, 0, 62, 81
1, 3588, Note_on_c, 0, 56, 57
1, 3594, Note_on_c, 0, 72, 35
1, 3608, Control_c, 0, 64, 0
1, 3615, Note_on_c, 0, 46, 0
1, 3644, Control_c, 0, 64, 127
1, 3652, Note_on_c, 0, 46, 46
1, 3683, Note_on_c, 0, 74, 0
1, 3687, Note_on_c, 0, 72, 0
1, 3691, Note_on_c, 0, 67, 0
1, 3699, Note_on_c, 0, 62, 0
1, 3729, Note_on_c, 0, 56, 0
1, 3807, Note_on_c, 0, 58, 28
1, 3807, Note_on_c, 0, 55, 48
1, 3808, Note_on_c, 0, 63, 42
1, 3808, Note_on_c, 0, 67, 53
1, 3812, Control_c, 0, 64, 0
1, 3858, Control_c, 0, 64, 127
1, 3924, Note_on_c, 0, 63, 0
1, 3932, Note_on_c, 0, 58, 0
1, 3949, Note_on_c, 0, 67, 0
1, 3974, Note_on_c, 0, 55, 0
1, 4018, Note_on_c, 0, 58, 38
1, 4019, Note_on_c, 0, 46, 0
1, 4023, Note_on_c, 0, 63, 34
1, 4039, Note_on_c, 0, 63, 0
1, 4049, Note_on_c, 0, 58, 0
1, 4176, Note_on_c, 0, 45, 83
1, 4252, Note_on_c, 0, 45, 0
1, 4254, Note_on_c, 0, 55, 60
1, 4254, Note_on_c, 0, 63, 52
1, 4257, Note_on_c, 0, 44, 61
1, 4258, Note_on_c, 0, 60, 53
1, 4264, Control_c, 0, 64, 0
1, 4324, Control_c, 0, 64, 127
1, 4401, Note_on_c, 0, 55, 0
1, 4411, Note_on_c, 0, 60, 0
1, 4482, Note_on_c, 0, 60, 41
1, 4482, Note_on_c, 0, 55, 37
1, 4568, Note_on_c, 0, 44, 0
1, 4570, Note_on_c, 0, 55, 0
1, 4618, Note_on_c, 0, 60, 0
1, 4619, Note_on_c, 0, 44, 46
1, 4667, Note_on_c, 0, 63, 0
1, 4674, Note_on_c, 0, 44, 0
1, 4701, Note_on_c, 0, 43, 50
1, 4702, Note_on_c, 0, 62, 47
1, 4704, Control_c, 0, 64, 0
1, 4706, Note_on_c, 0, 58, 34
1, 4709, Note_on_c, 0, 53, 18
1, 4741, Control_c, 0, 64, 127
1, 4754, Note_on_c, 0, 53, 0
1, 4808, Note_on_c, 0, 58, 0
1, 4819, Note_on_c, 0, 62, 0
1, 4912, Note_on_c, 0, 55, 56
1, 4946, Note_on_c, 0, 43, 0
1, 4975, Note_on_c, 0, 55, 0
1, 4979, Note_on_c, 0, 58, 70
1, 5007, Note_on_c, 0, 58, 0
1, 5042, Note_on_c, 0, 63, 83
1, 5074, Note_on_c, 0, 63, 0
1, 5119, Note_on_c, 0, 63, 83
1, 5121, Note_on_c, 0, 67, 87
1, 5121, Note_on_c, 0, 62, 80
1, 5136, Control_c, 0, 64, 0
1, 5183, Note_on_c, 0, 62, 0
1, 5228, Note_on_c, 0, 62, 84
1, 5251, Control_c, 0, 64, 127
1, 5306, Note_on_c, 0, 63, 0
1, 5314, Note_on_c, 0, 67, 0
1, 5321, Note_on_c, 0, 62, 0
1, 5336, Note_on_c, 0, 70, 59
1, 5337, Note_on_c, 0, 63, 67
1, 5339, Note_on_c, 0, 67, 68
1, 5343, Note_on_c, 0, 60, 53
1, 5349, Control_c, 0, 64, 0
1, 5396, Control_c, 0, 64, 127
1, 5423, Note_on_c, 0, 60, 0
1, 5448, Note_on_c, 0, 63, 0
1, 5449, Note_on_c, 0, 67, 0
1, 5456, Note_on_c, 0, 70, 0
1, 5643, Control_c, 0, 64, 0
1, 5646, Note_on_c, 0, 41, 64
1, 5653, Control_c, 0, 64, 127
1, 5658, Note_on_c, 0, 41, 0
1, 5747, Note_on_c, 0, 72, 91
1, 5751, Note_on_c, 0, 67, 91
1, 5752, Note_on_c, 0, 63, 88
1, 5753, Note_on_c, 0, 69, 81
1, 5757, Control_c, 0, 64, 0
1, 5758, Note_on_c, 0, 57, 67
1, 5786, Control_c, 0, 64, 127
1, 5913, Note_on_c, 0, 69, 0
1, 5918, Note_on_c, 0, 67, 0
1, 5923, Note_on_c, 0, 63, 0
1, 5929, Note_on_c, 0, 72, 0
1, 5968, Note_on_c, 0, 57, 0
1, 5969, Note_on_c, 0, 63, 57
1, 5971, Note_on_c, 0, 72, 60
1, 5973, Note_on_c, 0, 67, 60
1, 5974, Note_on_c, 0, 69, 57
1, 5976, Note_on_c, 0, 53, 37
1, 5981, Control_c, 0, 64, 0
1, 6019, Control_c, 0, 64, 127
1, 6090, Note_on_c, 0, 67, 0
1, 6106, Note_on_c, 0, 69, 0
1, 6112, Note_on_c, 0, 72, 0
1, 6125, Note_on_c, 0, 63, 0
1, 6188, Note_on_c, 0, 72, 75
1, 6189, Note_on_c, 0, 63, 74
1, 6191, Note_on_c, 0, 66, 67
1, 6192, Note_on_c, 0, 57, 45
1, 6193, Note_on_c, 0, 69, 65
1, 6240, Note_on_c, 0, 72, 0
1, 6264, Note_on_c, 0, 69, 0
1, 6271, Note_on_c, 0, 72, 35
1, 6279, Note_on_c, 0, 57, 0
1, 6289, Note_on_c, 0, 53, 0
1, 6293, Note_on_c, 0, 72, 0
1, 6307, Note_on_c, 0, 63, 0
1, 6312, Note_on_c, 0, 66, 0
1, 6333, Note_on_c, 0, 72, 55
1, 6378, Note_on_c, 0, 72, 0
1, 6404, Note_on_c, 0, 70, 52
1, 6406, Note_on_c, 0, 65, 55
1, 6407, Note_on_c, 0, 74, 58
1, 6411, Note_on_c, 0, 58, 25
1, 6412, Control_c, 0, 64, 0
1, 6419, Note_on_c, 0, 50, 41
1, 6452, Control_c, 0, 64, 127
1, 6491, Note_on_c, 0, 58, 0
1, 6531, Note_on_c, 0, 70, 0
1, 6553, Note_on_c, 0, 65, 0
1, 6624, Note_on_c, 0, 65, 43
1, 6626, Note_on_c, 0, 68, 39
1, 6627, Note_on_c, 0, 58, 31
1, 6629, Note_on_c, 0, 62, 33
1, 6642, Note_on_c, 0, 74, 0
1, 6646, Note_on_c, 0, 62, 0
1, 6673, Note_on_c, 0, 58, 0
1, 6691, Note_on_c, 0, 68, 0
1, 6692, Note_on_c, 0, 50, 0
1, 6696, Note_on_c, 0, 65, 0
1, 6853, Note_on_c, 0, 56, 59
1, 6854, Note_on_c, 0, 67, 64
1, 6856, Note_on_c, 0, 60, 63
1, 6857, Note_on_c, 0, 62, 55
1, 6868, Control_c, 0, 64, 0
1, 6959, Note_on_c, 0, 52, 72
1, 6982, Note_on_c, 0, 52, 0
1, 7011, Control_c, 0, 64, 127
1, 7045, Note_on_c, 0, 56, 0
1, 7046, Note_on_c, 0, 67, 0
1, 7047, Note_on_c, 0, 60, 0
1, 7057, Note_on_c, 0, 62, 0
1, 7074, Note_on_c, 0, 56, 46
1, 7077, Note_on_c, 0, 64, 54
1, 7078, Note_on_c, 0, 62, 51
1, 7079, Note_on_c, 0, 60, 40
1, 7081, Control_c, 0, 64, 0
1, 7183, Note_on_c, 0, 40, 48
1, 7183, Control_c, 0, 64, 127
1, 7196, Note_on_c, 0, 62, 0
1, 7201, Note_on_c, 0, 60, 0
1, 7219, Note_on_c, 0, 40, 0
1, 7232, Note_on_c, 0, 56, 0
1, 7244, Note_on_c, 0, 64, 0
1, 7297, Control_c, 0, 64, 0
1, 7302, Note_on_c, 0, 39, 39
1, 7303, Note_on_c, 0, 58, 33
1, 7306, Note_on_c, 0, 46, 30
1, 7307, Note_on_c, 0, 63, 30
1, 7309, Note_on_c, 0, 55, 18
1, 7336, Note_on_c, 0, 55, 0
1, 7336, Control_c, 0, 64, 127
1, 7350, Note_on_c, 0, 58, 0
1, 7368, Note_on_c, 0, 39, 0
1, 7368, Note_on_c, 0, 63, 0
1, 7371, Note_on_c, 0, 46, 0
1, 7524, Note_on_c, 0, 75, 53
1, 7529, Note_on_c, 0, 67, 40
1, 7531, Note_on_c, 0, 61, 32
1, 7531, Note_on_c, 0, 70, 48
1, 7538, Note_on_c, 0, 55, 30
1, 7578, Note_on_c, 0, 55, 0
1, 7579, Note_on_c, 0, 61, 0
1, 7606, Note_on_c, 0, 70, 0
1, 7609, Note_on_c, 0, 67, 0
1, 7659, Note_on_c, 0, 75, 0
1, 7748, Note_on_c, 0, 63, 39
1, 7749, Note_on_c, 0, 58, 37
1, 7751, Note_on_c, 0, 67, 44
1, 7752, Note_on_c, 0, 70, 37
1, 7757, Note_on_c, 0, 55, 43
1, 7790, Note_on_c, 0, 55, 0
1, 7792, Note_on_c, 0, 58, 0
1, 7816, Note_on_c, 0, 67, 0
1, 7824, Note_on_c, 0, 70, 0
1, 7825, Note_on_c, 0, 63, 0
1, 7974, Note_on_c, 0, 63, 53
1, 7976, Note_on_c, 0, 58, 50
1, 7977, Note_on_c, 0, 55, 55
1, 7977, Note_on_c, 0, 39, 47
1, 7979, Note_on_c, 0, 46, 40
1, 8070, Note_on_c, 0, 46, 0
1, 8088, Note_on_c, 0, 39, 0
1, 8122, Note_on_c, 0, 41, 58
1, 8138, Note_on_c, 0, 55, 0
1, 8139, Note_on_c, 0, 58, 0
1, 8144, Note_on_c, 0, 63, 0
1, 8168, Note_on_c, 0, 42, 69
1, 8174, Note_on_c, 0, 41, 0
1, 8204, Note_on_c, 0, 42, 0
1, 8209, Note_on_c, 0, 63, 67
1, 8211, Control_c, 0, 64, 0
1, 8213, Note_on_c, 0, 58, 62
1, 8213, Note_on_c, 0, 55, 68
1, 8214, Note_on_c, 0, 43, 71
1, 8249, Control_c, 0, 64, 127
1, 8260, Note_on_c, 0, 55, 0
1, 8281, Note_on_c, 0, 58, 0
1, 8296, Note_on_c, 0, 31, 75
1, 8297, Note_on_c, 0, 63, 0
1, 8314, Note_on_c, 0, 43, 0
1, 8317, Note_on_c, 0, 31, 0
1, 8422, Note_on_c, 0, 79, 78
1, 8423, Note_on_c, 0, 75, 75
1, 8424, Note_on_c, 0, 67, 76
1, 8427, Note_on_c, 0, 61, 68
1, 8428, Note_on_c, 0, 55, 57
1, 8517, Note_on_c, 0, 67, 0
1, 8527, Note_on_c, 0, 79, 0
1, 8529, Note_on_c, 0, 75, 0
1, 8574, Note_on_c, 0, 61, 0
1, 8634, Note_on_c, 0, 82, 71
1, 8639, Note_on_c, 0, 79, 64
1, 8641, Note_on_c, 0, 75, 74
1, 8642, Note_on_c, 0, 70, 78
1, 8646, Note_on_c, 0, 61, 48
1, 8744, Note_on_c, 0, 79, 0
1, 8755, Note_on_c, 0, 82, 0
1, 8757, Note_on_c, 0, 75, 0
1, 8758, Note_on_c, 0, 70, 0
1, 8794, Note_on_c, 0, 61, 0
1, 8858, Note_on_c, 0, 70, 55
1, 8862, Note_on_c, 0, 67, 40
1, 8866, Note_on_c, 0, 61, 42
1, 8910, Note_on_c, 0, 55, 0
1, 8937, Note_on_c, 0, 67, 0
1, 8954, Note_on_c, 0, 70, 0
1, 8972, Note_on_c, 0, 75, 81
1, 8973, Note_on_c, 0, 55, 60
1, 8993, Note_on_c, 0, 61, 0
1, 8998, Note_on_c, 0, 55, 0
1, 9018, Note_on_c, 0, 75, 0
1, 9082, Note_on_c, 0, 74, 82
1, 9083, Note_on_c, 0, 70, 78
1, 9084, Note_on_c, 0, 65, 74
1, 9086, Note_on_c, 0, 56, 57
1, 9094, Control_c, 0, 64, 0
1, 9154, Control_c, 0, 64, 127
1, 9193, Note_on_c, 0, 44, 53
1, 9211, Note_on_c, 0, 56, 0
1, 9216, Note_on_c, 0, 44, 0
1, 9254, Note_on_c, 0, 65, 0
1, 9268, Note_on_c, 0, 74, 0
1, 9269, Note_on_c, 0, 70, 0
1, 9314, Note_on_c, 0, 74, 90
1, 9316, Note_on_c, 0, 70, 87
1, 9317, Note_on_c, 0, 60, 76
1, 9318, Note_on_c, 0, 65, 91
1, 9318, Note_on_c, 0, 54, 75
1, 9415, Note_on_c, 0, 74, 0
1, 9437, Note_on_c, 0, 74, 68
1, 9520, Note_on_c, 0, 74, 0
1, 9549, Note_on_c, 0, 74, 66
1, 9793, Note_on_c, 0, 54, 0
1, 9800, Note_on_c, 0, 60, 0
1, 9875, Note_on_c, 0, 74, 0
1, 9911, Note_on_c, 0, 72, 30
1, 9924, Note_on_c, 0, 72, 0
1, 9929, Note_on_c, 0, 65, 0
1, 9943, Note_on_c, 0, 74, 57
1, 9964, Note_on_c, 0, 74, 0
1, 9976, Note_on_c, 0, 70, 0
1, 10004, Note_on_c, 0, 72, 68
1, 10009, Note_on_c, 0, 68, 57
1, 10011, Note_on_c, 0, 63, 47
1, 10014, Note_on_c, 0, 64, 40
1, 10017, Note_on_c, 0, 58, 34
1, 10018, Control_c, 0, 64, 0
1, 10057, Control_c, 0, 64, 127
1, 10077, Note_on_c, 0, 63, 0
1, 10081, Note_on_c, 0, 68, 0
1, 10085, Note_on_c, 0, 72, 0
1, 10126, Note_on_c, 0, 84, 78
1, 10149, Note_on_c, 0, 84, 0
1, 10226, Note_on_c, 0, 72, 46
1, 10236, Note_on_c, 0, 72, 0
1, 10332, Note_on_c, 0, 96, 71
1, 10353, Note_on_c, 0, 84, 36
1, 10360, Note_on_c, 0, 96, 0
1, 10365, Note_on_c, 0, 84, 0
1, 10374, Note_on_c, 0, 64, 0
1, 10534, Note_on_c, 0, 58, 0
1, 10572, Note_on_c, 0, 58, 35
1, 10679, Note_on_c, 0, 68, 48
1, 10679, Note_on_c, 0, 64, 44
1, 10793, Note_on_c, 0, 72, 54
1, 10803, Note_on_c, 0, 58, 0
1, 10816, Note_on_c, 0, 72, 0
1, 10822, Note_on_c, 0, 64, 0
1, 10835, Note_on_c, 0, 68, 0
1, 10896, Note_on_c, 0, 70, 59
1, 10897, Note_on_c, 0, 54, 58
1, 10899, Note_on_c, 0, 64, 62
1, 10899, Note_on_c, 0, 61, 48
1, 10901, Note_on_c, 0, 67, 56
1, 10902, Note_on_c, 0, 55, 66
1, 10903, Control_c, 0, 64, 0
1, 10910, Note_on_c, 0, 54, 0
1, 10968, Control_c, 0, 64, 127
1, 11022, Note_on_c, 0, 67, 0
1, 11026, Note_on_c, 0, 64, 0
1, 11032, Note_on_c, 0, 70, 0
1, 11050, Note_on_c, 0, 61, 0
1, 11127, Note_on_c, 0, 55, 0
1, 11132, Note_on_c, 0, 58, 33
1, 11136, Note_on_c, 0, 52, 38
1, 11137, Note_on_c, 0, 64, 46
1, 11143, Note_on_c, 0, 61, 30
1, 11254, Note_on_c, 0, 64, 0
1, 11260, Note_on_c, 0, 58, 0
1, 11281, Note_on_c, 0, 61, 0
1, 11347, Note_on_c, 0, 52, 0
1, 11357, Note_on_c, 0, 56, 42
1, 11361, Note_on_c, 0, 63, 39
1, 11364, Note_on_c, 0, 53, 36
1, 11368, Note_on_c, 0, 60, 41
1, 11371, Control_c, 0, 64, 0
1, 11402, Control_c, 0, 64, 127
1, 11425, Note_on_c, 0, 56, 0
1, 11435, Note_on_c, 0, 60, 0
1, 11442, Note_on_c, 0, 53, 0
1, 11442, Note_on_c, 0, 41, 60
1, 11446, Note_on_c, 0, 63, 0
1, 11453, Note_on_c, 0, 41, 0
1, 11586, Note_on_c, 0, 70, 86
1, 11588, Note_on_c, 0, 56, 56
1, 11589, Note_on_c, 0, 67, 84
1, 11589, Note_on_c, 0, 63, 88
1, 11591, Note_on_c, 0, 60, 60
1, 11591, Note_on_c, 0, 58, 58
1, 11688, Note_on_c, 0, 70, 0
1, 11691, Note_on_c, 0, 67, 0
1, 11701, Note_on_c, 0, 60, 0
1, 11714, Note_on_c, 0, 58, 0
1, 11722, Note_on_c, 0, 68, 49
1, 11723, Note_on_c, 0, 56, 0
1, 11748, Note_on_c, 0, 68, 0
1, 11756, Note_on_c, 0, 63, 0
1, 11766, Note_on_c, 0, 70, 71
1, 11798, Note_on_c, 0, 70, 0
1, 11826, Note_on_c, 0, 68, 73
1, 11828, Note_on_c, 0, 63, 68
1, 11829, Note_on_c, 0, 59, 69
1, 11837, Control_c, 0, 64, 0
1, 11894, Note_on_c, 0, 49, 40
1, 11920, Note_on_c, 0, 59, 0
1, 11926, Control_c, 0, 64, 127
1, 11949, Note_on_c, 0, 63, 0
1, 11957, Note_on_c, 0, 56, 57
1, 11958, Note_on_c, 0, 68, 0
1, 11969, Note_on_c, 0, 49, 0
1, 11974, Note_on_c, 0, 56, 0
1, 12021, Note_on_c, 0, 59, 30
1, 12076, Note_on_c, 0, 80, 44
1, 12076, Note_on_c, 0, 63, 46
1, 12078, Note_on_c, 0, 68, 42
1, 12116, Note_on_c, 0, 68, 0
1, 12121, Note_on_c, 0, 80, 0
1, 12146, Note_on_c, 0, 82, 60
1, 12148, Note_on_c, 0, 70, 46
1, 12220, Note_on_c, 0, 70, 0
1, 12228, Note_on_c, 0, 82, 0
1, 12236, Note_on_c, 0, 63, 0
1, 12288, Note_on_c, 0, 73, 42
1, 12289, Note_on_c, 0, 85, 46
1, 12318, Note_on_c, 0, 73, 0
1, 12321, Note_on_c, 0, 85, 0
1, 12361, Note_on_c, 0, 87, 58
1, 12361, Note_on_c, 0, 63, 35
1, 12362, Note_on_c, 0, 75, 46
1, 12410, Note_on_c, 0, 75, 0
1, 12421, Note_on_c, 0, 87, 0
1, 12423, Note_on_c, 0, 63, 0
1, 12503, Note_on_c, 0, 63, 36
1, 12509, Note_on_c, 0, 80, 39
1, 12509, Note_on_c, 0, 92, 49
1, 12534, Note_on_c, 0, 80, 0
1, 12536, Note_on_c, 0, 92, 0
1, 12581, Note_on_c, 0, 94, 55
1, 12582, Note_on_c, 0, 82, 42
1, 12602, Note_on_c, 0, 59, 0
1, 12621, Note_on_c, 0, 94, 0
1, 12629, Note_on_c, 0, 82, 0
1, 12639, Note_on_c, 0, 63, 0
1, 12728, Note_on_c, 0, 91, 44
1, 12728, Note_on_c, 0, 63, 33
1, 12728, Note_on_c, 0, 79, 36
1, 12729, Control_c, 0, 64, 0
1, 12732, Note_on_c, 0, 87, 38
1, 12737, Note_on_c, 0, 58, 33
1, 12758, Control_c, 0, 64, 127
1, 12761, Note_on_c, 0, 63, 0
1, 12772, Note_on_c, 0, 58, 0
1, 12796, Note_on_c, 0, 91, 0
1, 12810, Note_on_c, 0, 87, 0
1, 12821, Note_on_c, 0, 79, 0
1, 12847, Note_on_c, 0, 46, 46
1, 12957, Note_on_c, 0, 67, 49
1, 12958, Note_on_c, 0, 58, 40
1, 12959, Note_on_c, 0, 63, 48
1, 13015, Note_on_c, 0, 46, 0
1, 13069, Note_on_c, 0, 46, 40
1, 13083, Note_on_c, 0, 67, 0
1, 13086, Note_on_c, 0, 58, 0
1, 13095, Note_on_c, 0, 63, 0
1, 13427, Note_on_c, 0, 68, 67
1, 13433, Note_on_c, 0, 64, 76
1, 13437, Note_on_c, 0, 61, 74
1, 13438, Note_on_c, 0, 58, 48
1, 13438, Note_on_c, 0, 52, 55
1, 13447, Control_c, 0, 64, 0
1, 13481, Control_c, 0, 64, 127
1, 13483, Note_on_c, 0, 68, 0
1, 13507, Note_on_c, 0, 46, 0
1, 13516, Note_on_c, 0, 64, 0
1, 13525, Note_on_c, 0, 61, 0
1, 13541, Note_on_c, 0, 70, 79
1, 13542, Note_on_c, 0, 46, 56
1, 13560, Note_on_c, 0, 58, 0
1, 13566, Note_on_c, 0, 52, 0
1, 13584, Note_on_c, 0, 70, 0
1, 13673, Note_on_c, 0, 71, 73
1, 13676, Note_on_c, 0, 67, 71
1, 13677, Note_on_c, 0, 63, 72
1, 13679, Note_on_c, 0, 57, 64
1, 13692, Control_c, 0, 64, 0
1, 13758, Note_on_c, 0, 46, 0
1, 13774, Control_c, 0, 64, 127
1, 13789, Note_on_c, 0, 46, 47
1, 13822, Note_on_c, 0, 63, 0
1, 13824, Note_on_c, 0, 67, 0
1, 13831, Note_on_c, 0, 71, 0
1, 13909, Note_on_c, 0, 74, 80
1, 13972, Note_on_c, 0, 74, 0
1, 13991, Note_on_c, 0, 46, 0
1, 14037, Note_on_c, 0, 46, 40
1, 14060, Note_on_c, 0, 46, 0
1, 14091, Note_on_c, 0, 57, 0
1, 14148, Note_on_c, 0, 72, 51
1, 14148, Note_on_c, 0, 68, 46
1, 14154, Note_on_c, 0, 60, 43
1, 14154, Note_on_c, 0, 65, 48
1, 14156, Note_on_c, 0, 46, 35
1, 14159, Note_on_c, 0, 56, 25
1, 14164, Control_c, 0, 64, 0
1, 14204, Control_c, 0, 64, 127
1, 14261, Note_on_c, 0, 72, 0
1, 14280, Note_on_c, 0, 60, 0
1, 14284, Note_on_c, 0, 65, 0
1, 14295, Note_on_c, 0, 56, 0
1, 14334, Note_on_c, 0, 68, 0
1, 14379, Note_on_c, 0, 62, 60
1, 14379, Note_on_c, 0, 71, 57
1, 14381, Note_on_c, 0, 66, 44
1, 14384, Note_on_c, 0, 56, 34
1, 14394, Control_c, 0, 64, 0
1, 14398, Note_on_c, 0, 66, 0
1, 14409, Note_on_c, 0, 67, 33
1, 14438, Control_c, 0, 64, 127
1, 14454, Note_on_c, 0, 46, 0
1, 14492, Note_on_c, 0, 46, 39
1, 14524, Note_on_c, 0, 62, 0
1, 14534, Note_on_c, 0, 56, 0
1, 14540, Note_on_c, 0, 71, 0
1, 14549, Note_on_c, 0, 67, 0
1, 14616, Note_on_c, 0, 70, 46
1, 14619, Note_on_c, 0, 65, 39
1, 14621, Note_on_c, 0, 60, 35
1, 14622, Note_on_c, 0, 55, 37
1, 14623, Note_on_c, 0, 62, 36
1, 14636, Control_c, 0, 64, 0
1, 14656, Note_on_c, 0, 62, 0
1, 14661, Note_on_c, 0, 60, 0
1, 14674, Control_c, 0, 64, 127
1, 14685, Note_on_c, 0, 65, 0
1, 14687, Note_on_c, 0, 46, 0
1, 14694, Note_on_c, 0, 55, 0
1, 14704, Note_on_c, 0, 70, 0
1, 14849, Note_on_c, 0, 65, 35
1, 14858, Note_on_c, 0, 60, 30
1, 14861, Note_on_c, 0, 62, 20
1, 14893, Note_on_c, 0, 62, 0
1, 14895, Note_on_c, 0, 65, 0
1, 14918, Note_on_c, 0, 60, 0
1, 15004, Note_on_c, 0, 79, 87
1, 15077, Note_on_c, 0, 32, 48
1, 15081, Control_c, 0, 64, 0
1, 15097, Note_on_c, 0, 32, 0
1, 15104, Control_c, 0, 64, 127
1, 15306, Note_on_c, 0, 65, 32
1, 15308, Note_on_c, 0, 54, 26
1, 15311, Note_on_c, 0, 60, 33
1, 15313, Note_on_c, 0, 58, 30
1, 15376, Note_on_c, 0, 65, 0
1, 15379, Note_on_c, 0, 60, 0
1, 15390, Note_on_c, 0, 79, 0
1, 15393, Note_on_c, 0, 58, 0
1, 15400, Note_on_c, 0, 54, 0
1, 15542, Note_on_c, 0, 43, 62
1, 15554, Control_c, 0, 64, 0
1, 15586, Control_c, 0, 64, 127
1, 15629, Note_on_c, 0, 43, 0
1, 15779, Note_on_c, 0, 62, 34
1, 15782, Note_on_c, 0, 58, 33
1, 15786, Note_on_c, 0, 53, 26
1, 15791, Note_on_c, 0, 62, 0
1, 15802, Note_on_c, 0, 53, 0
1, 15803, Note_on_c, 0, 58, 0
1, 15856, Note_on_c, 0, 58, 59
1, 15879, Note_on_c, 0, 58, 0
1, 15923, Note_on_c, 0, 63, 84
1, 15951, Note_on_c, 0, 63, 0
1, 16003, Note_on_c, 0, 67, 77
1, 16004, Note_on_c, 0, 63, 73
1, 16007, Note_on_c, 0, 62, 77
1, 16013, Note_on_c, 0, 58, 42
1, 16026, Control_c, 0, 64, 0
1, 16077, Control_c, 0, 64, 127
1, 16103, Note_on_c, 0, 58, 0
1, 16232, Note_on_c, 0, 62, 0
1, 16383, Note_on_c, 0, 67, 0
1, 16391, Note_on_c, 0, 70, 64
1, 16423, Note_on_c, 0, 70, 0
1, 16431, Note_on_c, 0, 63, 0
1, 16484, Note_on_c, 0, 57, 44
1, 16484, Note_on_c, 0, 69, 52
1, 16486, Note_on_c, 0, 66, 42
1, 16487, Note_on_c, 0, 62, 46
1, 16489, Note_on_c, 0, 41, 48
1, 16497, Control_c, 0, 64, 0
1, 16536, Control_c, 0, 64, 127
1, 16544, Note_on_c, 0, 41, 0
1, 16602, Note_on_c, 0, 57, 0
1, 16617, Note_on_c, 0, 51, 73
1, 16624, Note_on_c, 0, 62, 0
1, 16671, Note_on_c, 0, 66, 0
1, 16726, Note_on_c, 0, 66, 45
1, 16727, Note_on_c, 0, 62, 66
1, 16729, Note_on_c, 0, 69, 0
1, 16731, Note_on_c, 0, 57, 60
1, 16799, Note_on_c, 0, 57, 0
1, 16846, Note_on_c, 0, 57, 82
1, 16858, Note_on_c, 0, 62, 0
1, 16884, Note_on_c, 0, 66, 0
1, 16914, Note_on_c, 0, 57, 0
1, 16957, Note_on_c, 0, 65, 73
1, 16957, Note_on_c, 0, 57, 62
1, 16958, Note_on_c, 0, 62, 66
1, 16962, Note_on_c, 0, 51, 0
1, 17064, Note_on_c, 0, 65, 0
1, 17064, Note_on_c, 0, 57, 0
1, 17066, Note_on_c, 0, 62, 0
1, 17072, Note_on_c, 0, 41, 71
1, 17184, Note_on_c, 0, 57, 36
1, 17187, Note_on_c, 0, 61, 77
1, 17191, Note_on_c, 0, 64, 88
1, 17192, Note_on_c, 0, 51, 43
1, 17193, Note_on_c, 0, 69, 92
1, 17201, Note_on_c, 0, 67, 53
1, 17217, Control_c, 0, 64, 0
1, 17256, Control_c, 0, 64, 127
1, 17288, Note_on_c, 0, 69, 0
1, 17294, Note_on_c, 0, 67, 0
1, 17314, Note_on_c, 0, 69, 77
1, 17321, Note_on_c, 0, 67, 45
1, 17343, Note_on_c, 0, 51, 0
1, 17356, Note_on_c, 0, 64, 0
1, 17363, Note_on_c, 0, 61, 0
1, 17364, Note_on_c, 0, 67, 0
1, 17385, Note_on_c, 0, 57, 0
1, 17389, Note_on_c, 0, 69, 0
1, 17502, Note_on_c, 0, 41, 0
1, 17542, Note_on_c, 0, 41, 62
1, 17589, Note_on_c, 0, 41, 0
1, 17658, Note_on_c, 0, 56, 55
1, 17658, Note_on_c, 0, 67, 73
1, 17659, Note_on_c, 0, 63, 59
1, 17661, Note_on_c, 0, 55, 57
1, 17661, Note_on_c, 0, 60, 63
1, 17677, Control_c, 0, 64, 0
1, 17737, Control_c, 0, 64, 127
1, 17768, Note_on_c, 0, 46, 50
1, 17781, Note_on_c, 0, 60, 0
1, 17785, Note_on_c, 0, 56, 0
1, 17794, Note_on_c, 0, 67, 0
1, 17795, Note_on_c, 0, 63, 0
1, 17802, Note_on_c, 0, 55, 0
1, 17882, Note_on_c, 0, 66, 73
1, 17886, Note_on_c, 0, 74, 69
1, 17888, Note_on_c, 0, 62, 57
1, 17889, Note_on_c, 0, 56, 46
1, 17892, Note_on_c, 0, 72, 45
1, 17900, Note_on_c, 0, 72, 0
1, 17902, Note_on_c, 0, 66, 0
1, 17903, Control_c, 0, 64, 0
1, 17907, Note_on_c, 0, 67, 30
1, 17951, Control_c, 0, 64, 127
1, 18042, Note_on_c, 0, 74, 0
1, 18048, Note_on_c, 0, 62, 0
1, 18069, Note_on_c, 0, 67, 0
1, 18077, Note_on_c, 0, 56, 0
1, 18118, Note_on_c, 0, 71, 49
1, 18121, Note_on_c, 0, 62, 51
1, 18122, Note_on_c, 0, 67, 39
1, 18124, Note_on_c, 0, 56, 36
1, 18198, Note_on_c, 0, 46, 0
1, 18251, Note_on_c, 0, 46, 35
1, 18290, Note_on_c, 0, 67, 0
1, 18291, Note_on_c, 0, 71, 0
1, 18298, Note_on_c, 0, 62, 0
1, 18324, Note_on_c, 0, 56, 0
1, 18331, Note_on_c, 0, 46, 0
1, 18456, Note_on_c, 0, 70, 74
1, 18522, Note_on_c, 0, 70, 0
1, 18667, Note_on_c, 0, 67, 87
1, 18752, Note_on_c, 0, 67, 0
1, 18784, Note_on_c, 0, 67, 73
1, 18786, Note_on_c, 0, 55, 62
1, 18787, Note_on_c, 0, 60, 66
1, 18788, Note_on_c, 0, 45, 60
1, 18792, Note_on_c, 0, 33, 49
1, 18793, Control_c, 0, 64, 0
1, 18836, Control_c, 0, 64, 127
1, 18893, Note_on_c, 0, 55, 0
1, 18900, Note_on_c, 0, 60, 0
1, 18920, Note_on_c, 0, 45, 0
1, 18924, Note_on_c, 0, 33, 0
1, 19007, Note_on_c, 0, 67, 0
1, 19016, Note_on_c, 0, 55, 58
1, 19017, Note_on_c, 0, 60, 62
1, 19023, Note_on_c, 0, 44, 42
1, 19026, Note_on_c, 0, 32, 43
1, 19026, Control_c, 0, 64, 0
1, 19069, Control_c, 0, 64, 127
1, 19131, Note_on_c, 0, 32, 0
1, 19139, Note_on_c, 0, 44, 0
1, 19148, Note_on_c, 0, 60, 0
1, 19157, Note_on_c, 0, 55, 0
1, 19247, Note_on_c, 0, 43, 44
1, 19248, Note_on_c, 0, 58, 39
1, 19249, Control_c, 0, 64, 0
1, 19251, Note_on_c, 0, 31, 43
1, 19252, Note_on_c, 0, 53, 34
1, 19286, Control_c, 0, 64, 127
1, 19300, Note_on_c, 0, 53, 0
1, 19314, Note_on_c, 0, 31, 0
1, 19330, Note_on_c, 0, 43, 0
1, 19340, Note_on_c, 0, 58, 0
1, 19486, Note_on_c, 0, 58, 33
1, 19486, Note_on_c, 0, 62, 35
1, 19496, Note_on_c, 0, 62, 0
1, 19513, Note_on_c, 0, 58, 0
1, 19548, Note_on_c, 0, 58, 63
1, 19570, Note_on_c, 0, 58, 0
1, 19618, Note_on_c, 0, 63, 77
1, 19645, Note_on_c, 0, 63, 0
1, 19701, Note_on_c, 0, 67, 76
1, 19702, Note_on_c, 0, 63, 74
1, 19706, Note_on_c, 0, 62, 77
1, 19717, Control_c, 0, 64, 0
1, 19751, Control_c, 0, 64, 127
1, 19791, Note_on_c, 0, 62, 0
1, 19802, Note_on_c, 0, 67, 0
1, 19807, Note_on_c, 0, 63, 0
1, 19807, Note_on_c, 0, 48, 66
1, 19829, Note_on_c, 0, 48, 0
1, 19937, Note_on_c, 0, 63, 83
1, 19939, Note_on_c, 0, 42, 74
1, 19941, Note_on_c, 0, 58, 77
1, 19941, Note_on_c, 0, 30, 74
1, 19942, Note_on_c, 0, 52, 87
1, 19948, Control_c, 0, 64, 0
1, 20003, Control_c, 0, 64, 127
1, 20074, Note_on_c, 0, 52, 0
1, 20092, Note_on_c, 0, 30, 0
1, 20096, Note_on_c, 0, 42, 0
1, 20114, Note_on_c, 0, 58, 0
1, 20132, Note_on_c, 0, 63, 0
1, 20178, Note_on_c, 0, 60, 64
1, 20182, Note_on_c, 0, 57, 66
1, 20183, Note_on_c, 0, 51, 51
1, 20184, Note_on_c, 0, 29, 57
1, 20186, Control_c, 0, 64, 0
1, 20219, Note_on_c, 0, 51, 0
1, 20224, Control_c, 0, 64, 127
1, 20227, Note_on_c, 0, 57, 0
1, 20238, Note_on_c, 0, 60, 0
1, 20244, Note_on_c, 0, 29, 0
1, 20312, Note_on_c, 0, 83, 99
1, 20353, Note_on_c, 0, 83, 0
1, 20414, Note_on_c, 0, 84, 82
1, 20416, Note_on_c, 0, 63, 42
1, 20417, Note_on_c, 0, 67, 66
1, 20418, Note_on_c, 0, 62, 59
1, 20419, Note_on_c, 0, 79, 65
1, 20419, Note_on_c, 0, 72, 68
1, 20421, Note_on_c, 0, 57, 41
1, 20424, Control_c, 0, 64, 0
1, 20464, Control_c, 0, 64, 127
1, 20495, Note_on_c, 0, 84, 0
1, 20496, Note_on_c, 0, 57, 0
1, 20502, Note_on_c, 0, 72, 0
1, 20505, Note_on_c, 0, 67, 0
1, 20507, Note_on_c, 0, 63, 0
1, 20509, Note_on_c, 0, 62, 0
1, 20516, Note_on_c, 0, 64, 36
1, 20520, Note_on_c, 0, 79, 0
1, 20539, Control_c, 0, 64, 0
1, 20542, Note_on_c, 0, 79, 62
1, 20543, Note_on_c, 0, 68, 58
1, 20543, Note_on_c, 0, 86, 76
1, 20544, Note_on_c, 0, 58, 50
1, 20546, Note_on_c, 0, 74, 62
1, 20571, Control_c, 0, 64, 127
1, 20582, Note_on_c, 0, 64, 0
1, 20599, Note_on_c, 0, 79, 0
1, 20601, Note_on_c, 0, 68, 0
1, 20608, Note_on_c, 0, 74, 0
1, 20614, Note_on_c, 0, 58, 0
1, 20621, Note_on_c, 0, 86, 0
1, 20664, Note_on_c, 0, 84, 69
1, 20671, Note_on_c, 0, 72, 62
1, 20672, Note_on_c, 0, 63, 42
1, 20672, Note_on_c, 0, 67, 42
1, 20672, Note_on_c, 0, 57, 44
1, 20674, Control_c, 0, 64, 0
1, 20687, Note_on_c, 0, 81, 18
1, 20711, Control_c, 0, 64, 127
1, 20719, Note_on_c, 0, 67, 0
1, 20725, Note_on_c, 0, 63, 0
1, 20733, Note_on_c, 0, 57, 0
1, 20735, Note_on_c, 0, 81, 0
1, 20739, Note_on_c, 0, 84, 0
1, 20749, Note_on_c, 0, 72, 0
1, 20908, Note_on_c, 0, 51, 37
1, 20909, Note_on_c, 0, 57, 45
1, 21017, Note_on_c, 0, 57, 0
1, 21024, Note_on_c, 0, 51, 0
1, 21152, Note_on_c, 0, 68, 38
1, 21153, Note_on_c, 0, 74, 60
1, 21153, Note_on_c, 0, 58, 37
1, 21156, Note_on_c, 0, 70, 37
1, 21156, Note_on_c, 0, 65, 46
1, 21166, Control_c, 0, 64, 0
1, 21203, Control_c, 0, 64, 127
1, 21281, Note_on_c, 0, 46, 43
1, 21296, Note_on_c, 0, 65, 0
1, 21310, Note_on_c, 0, 58, 0
1, 21311, Note_on_c, 0, 46, 0
1, 21320, Note_on_c, 0, 68, 0
1, 21381, Note_on_c, 0, 70, 0
1, 21383, Note_on_c, 0, 74, 0
1, 21396, Note_on_c, 0, 68, 50
1, 21403, Note_on_c, 0, 65, 40
1, 21503, Note_on_c, 0, 65, 0
1, 21518, Note_on_c, 0, 74, 66
1, 21571, Note_on_c, 0, 67, 31
1, 21591, Note_on_c, 0, 67, 0
1, 21599, Note_on_c, 0, 68, 0
1, 21605, Note_on_c, 0, 74, 0
1, 21644, Control_c, 0, 64, 0
1, 21646, Note_on_c, 0, 71, 62
1, 21647, Note_on_c, 0, 67, 66
1, 21648, Note_on_c, 0, 62, 61
1, 21657, Note_on_c, 0, 56, 43
1, 21676, Control_c, 0, 64, 127
1, 21683, Note_on_c, 0, 62, 0
1, 21693, Note_on_c, 0, 71, 0
1, 21700, Note_on_c, 0, 67, 0
1, 21761, Note_on_c, 0, 74, 83
1, 21762, Control_c, 0, 64, 0
1, 21767, Note_on_c, 0, 70, 77
1, 21769, Note_on_c, 0, 65, 82
1, 21771, Note_on_c, 0, 59, 62
1, 21773, Note_on_c, 0, 56, 0
1, 21803, Control_c, 0, 64, 127
1, 21812, Note_on_c, 0, 74, 0
1, 21814, Note_on_c, 0, 65, 0
1, 21823, Note_on_c, 0, 70, 0
1, 21883, Note_on_c, 0, 77, 71
1, 21887, Control_c, 0, 64, 0
1, 21887, Note_on_c, 0, 74, 79
1, 21888, Note_on_c, 0, 68, 81
1, 21891, Note_on_c, 0, 62, 69
1, 21893, Note_on_c, 0, 59, 0
1, 21918, Control_c, 0, 64, 127
1, 21921, Note_on_c, 0, 77, 0
1, 21923, Note_on_c, 0, 74, 0
1, 21926, Note_on_c, 0, 68, 0
1, 21988, Note_on_c, 0, 62, 0
1, 21999, Note_on_c, 0, 65, 54
1, 22001, Note_on_c, 0, 80, 51
1, 22002, Note_on_c, 0, 74, 68
1, 22009, Note_on_c, 0, 81, 49
1, 22025, Note_on_c, 0, 65, 0
1, 22040, Note_on_c, 0, 81, 0
1, 22042, Note_on_c, 0, 74, 0
1, 22047, Note_on_c, 0, 80, 0
1, 22121, Note_on_c, 0, 82, 68
1, 22122, Note_on_c, 0, 63, 33
1, 22126, Note_on_c, 0, 79, 62
1, 22128, Note_on_c, 0, 70, 49
1, 22129, Control_c, 0, 64, 0
1, 22131, Note_on_c, 0, 75, 36
1, 22131, Note_on_c, 0, 55, 43
1, 22176, Control_c, 0, 64, 127
1, 22205, Note_on_c, 0, 63, 0
1, 22207, Note_on_c, 0, 75, 0
1, 22224, Note_on_c, 0, 70, 0
1, 22231, Note_on_c, 0, 63, 45
1, 22316, Note_on_c, 0, 79, 0
1, 22353, Note_on_c, 0, 82, 0
1, 22353, Note_on_c, 0, 70, 56
1, 22373, Note_on_c, 0, 70, 0
1, 22462, Note_on_c, 0, 63, 0
1, 22468, Note_on_c, 0, 75, 70
1, 22538, Note_on_c, 0, 75, 0
1, 22577, Note_on_c, 0, 75, 56
1, 22584, Note_on_c, 0, 70, 49
1, 22592, Note_on_c, 0, 63, 25
1, 22592, Note_on_c, 0, 67, 37
1, 22612, Note_on_c, 0, 55, 0
1, 22669, Note_on_c, 0, 67, 0
1, 22679, Note_on_c, 0, 63, 0
1, 22716, Note_on_c, 0, 70, 0
1, 22717, Note_on_c, 0, 75, 0
1, 22817, Note_on_c, 0, 67, 53
1, 22817, Note_on_c, 0, 63, 46
1, 22819, Note_on_c, 0, 55, 33
1, 22911, Note_on_c, 0, 55, 0
1, 22932, Note_on_c, 0, 67, 0
1, 22942, Note_on_c, 0, 63, 0
1, 23043, Note_on_c, 0, 51, 38
1, 23044, Note_on_c, 0, 63, 50
1, 23047, Note_on_c, 0, 58, 46
1, 23048, Note_on_c, 0, 55, 46
1, 23053, Note_on_c, 0, 43, 34
1, 23071, Control_c, 0, 64, 0
1, 23116, Control_c, 0, 64, 127
1, 23160, Note_on_c, 0, 51, 0
1, 23178, Note_on_c, 0, 55, 0
1, 23197, Note_on_c, 0, 58, 0
1, 23214, Note_on_c, 0, 63, 0
1, 23250, Note_on_c, 0, 43, 0
1, 23374, Note_on_c, 0, 63, 74
1, 23376, Note_on_c, 0, 67, 69
1, 23377, Note_on_c, 0, 51, 62
1, 23377, Note_on_c, 0, 58, 67
1, 23391, Note_on_c, 0, 67, 0
1, 23405, Note_on_c, 0, 58, 0
1, 23409, Note_on_c, 0, 63, 0
1, 23489, Note_on_c, 0, 70, 64
1, 23492, Note_on_c, 0, 67, 65
1, 23493, Note_on_c, 0, 63, 54
1, 23494, Control_c, 0, 64, 0
1, 23497, Note_on_c, 0, 55, 67
1, 23512, Note_on_c, 0, 51, 0
1, 23528, Control_c, 0, 64, 127
1, 23590, Note_on_c, 0, 55, 0
1, 23600, Note_on_c, 0, 63, 0
1, 23604, Note_on_c, 0, 67, 0
1, 23619, Note_on_c, 0, 70, 0
1, 23849, Note_on_c, 0, 75, 76
1, 23851, Note_on_c, 0, 70, 75
1, 23853, Note_on_c, 0, 67, 77
1, 23854, Note_on_c, 0, 63, 67
1, 23858, Note_on_c, 0, 53, 58
1, 23858, Note_on_c, 0, 59, 44
1, 23859, Control_c, 0, 64, 0
1, 23893, Control_c, 0, 64, 127
1, 23931, Note_on_c, 0, 67, 0
1, 23933, Note_on_c, 0, 59, 0
1, 23939, Note_on_c, 0, 53, 0
1, 23943, Note_on_c, 0, 70, 0
1, 23946, Note_on_c, 0, 63, 0
1, 23955, Note_on_c, 0, 75, 0
1, 24036, Note_on_c, 0, 77, 68
1, 24037, Note_on_c, 0, 70, 69
1, 24037, Note_on_c, 0, 74, 71
1, 24041, Control_c, 0, 64, 0
1, 24042, Note_on_c, 0, 65, 64
1, 24044, Note_on_c, 0, 44, 53
1, 24044, Note_on_c, 0, 51, 46
1, 24074, Control_c, 0, 64, 127
1, 24082, Note_on_c, 0, 51, 0
1, 24082, Note_on_c, 0, 44, 0
1, 24118, Note_on_c, 0, 65, 0
1, 24123, Note_on_c, 0, 70, 0
1, 24167, Note_on_c, 0, 74, 0
1, 24177, Note_on_c, 0, 70, 58
1, 24178, Note_on_c, 0, 65, 53
1, 24182, Note_on_c, 0, 60, 48
1, 24241, Note_on_c, 0, 77, 0
1, 24260, Note_on_c, 0, 60, 0
1, 24295, Note_on_c, 0, 65, 0
1, 24313, Note_on_c, 0, 70, 0
1, 24392, Note_on_c, 0, 75, 50
1, 24394, Note_on_c, 0, 63, 44
1, 24396, Note_on_c, 0, 58, 39
1, 24397, Note_on_c, 0, 68, 52
1, 24398, Note_on_c, 0, 72, 55
1, 24413, Control_c, 0, 64, 0
1, 24449, Control_c, 0, 64, 127
1, 24528, Note_on_c, 0, 68, 0
1, 24547, Note_on_c, 0, 63, 0
1, 24573, Note_on_c, 0, 58, 0
1, 24575, Note_on_c, 0, 72, 0
1, 24613, Note_on_c, 0, 68, 51
1, 24614, Note_on_c, 0, 63, 35
1, 24620, Note_on_c, 0, 75, 0
1, 24727, Note_on_c, 0, 63, 0
1, 24738, Note_on_c, 0, 68, 0
1, 24852, Note_on_c, 0, 74, 81
1, 24856, Note_on_c, 0, 70, 69
1, 24857, Note_on_c, 0, 67, 71
1, 24857, Note_on_c, 0, 41, 66
1, 24863, Control_c, 0, 64, 0
1, 24878, Note_on_c, 0, 41, 0
1, 24899, Control_c, 0, 64, 127
1, 24963, Note_on_c, 0, 56, 62
1, 24965, Note_on_c, 0, 67, 0
1, 25018, Note_on_c, 0, 74, 0
1, 25019, Note_on_c, 0, 70, 0
1, 25081, Note_on_c, 0, 58, 48
1, 25083, Note_on_c, 0, 63, 42
1, 25083, Note_on_c, 0, 72, 62
1, 25084, Note_on_c, 0, 68, 53
1, 25178, Note_on_c, 0, 58, 0
1, 25207, Note_on_c, 0, 58, 49
1, 25219, Note_on_c, 0, 72, 0
1, 25222, Note_on_c, 0, 68, 0
1, 25237, Note_on_c, 0, 58, 0
1, 25240, Note_on_c, 0, 63, 0
1, 25256, Note_on_c, 0, 56, 0
1, 25326, Note_on_c, 0, 70, 56
1, 25328, Note_on_c, 0, 63, 55
1, 25328, Note_on_c, 0, 58, 44
1, 25329, Note_on_c, 0, 67, 60
1, 25339, Note_on_c, 0, 55, 37
1, 25347, Control_c, 0, 64, 0
1, 25389, Control_c, 0, 64, 127
1, 25455, Note_on_c, 0, 67, 0
1, 25466, Note_on_c, 0, 58, 0
1, 25487, Note_on_c, 0, 70, 0
1, 25499, Note_on_c, 0, 55, 0
1, 25501, Note_on_c, 0, 63, 0
1, 25563, Note_on_c, 0, 68, 52
1, 25564, Note_on_c, 0, 53, 41
1, 25566, Note_on_c, 0, 58, 33
1, 25567, Note_on_c, 0, 63, 39
1, 25700, Note_on_c, 0, 68, 0
1, 25712, Note_on_c, 0, 58, 0
1, 25720, Note_on_c, 0, 63, 0
1, 25806, Note_on_c, 0, 53, 0
1, 25813, Note_on_c, 0, 67, 58
1, 25813, Note_on_c, 0, 63, 48
1, 25814, Note_on_c, 0, 58, 36
1, 25814, Note_on_c, 0, 51, 44
1, 25834, Control_c, 0, 64, 0
1, 25873, Control_c, 0, 64, 127
1, 25938, Note_on_c, 0, 67, 0
1, 25949, Note_on_c, 0, 58, 0
1, 25988, Note_on_c, 0, 63, 0
1, 26052, Note_on_c, 0, 51, 0
1, 26053, Note_on_c, 0, 58, 35
1, 26053, Note_on_c, 0, 67, 59
1, 26056, Note_on_c, 0, 62, 54
1, 26061, Note_on_c, 0, 50, 34
1, 26066, Control_c, 0, 64, 0
1, 26104, Control_c, 0, 64, 127
1, 26193, Note_on_c, 0, 62, 0
1, 26214, Note_on_c, 0, 58, 0
1, 26269, Note_on_c, 0, 67, 0
1, 26292, Note_on_c, 0, 61, 38
1, 26293, Note_on_c, 0, 50, 0
1, 26294, Note_on_c, 0, 67, 29
1, 26296, Note_on_c, 0, 58, 33
1, 26299, Note_on_c, 0, 49, 42
1, 26299, Note_on_c, 0, 55, 33
1, 26313, Control_c, 0, 64, 0
1, 26381, Control_c, 0, 64, 127
1, 26435, Note_on_c, 0, 55, 0
1, 26458, Note_on_c, 0, 58, 0
1, 26463, Note_on_c, 0, 61, 0
1, 26519, Note_on_c, 0, 67, 0
1, 26533, Note_on_c, 0, 58, 40
1, 26537, Note_on_c, 0, 55, 49
1, 26539, Note_on_c, 0, 61, 29
1, 26559, Note_on_c, 0, 55, 0
1, 26564, Note_on_c, 0, 61, 0
1, 26573, Note_on_c, 0, 58, 0
1, 26654, Note_on_c, 0, 67, 75
1, 26657, Note_on_c, 0, 52, 71
1, 26658, Note_on_c, 0, 58, 63
1, 26658, Note_on_c, 0, 61, 65
1, 26659, Note_on_c, 0, 64, 67
1, 26664, Control_c, 0, 64, 0
1, 26669, Note_on_c, 0, 49, 0
1, 26696, Control_c, 0, 64, 127
1, 26715, Note_on_c, 0, 67, 0
1, 26715, Note_on_c, 0, 64, 0
1, 26718, Note_on_c, 0, 58, 0
1, 26720, Note_on_c, 0, 61, 0
1, 26723, Note_on_c, 0, 52, 0
1, 26779, Note_on_c, 0, 70, 69
1, 26781, Note_on_c, 0, 67, 69
1, 26781, Note_on_c, 0, 63, 69
1, 26783, Note_on_c, 0, 55, 67
1, 26783, Note_on_c, 0, 60, 71
1, 26791, Control_c, 0, 64, 0
1, 26841, Control_c, 0, 64, 127
1, 26880, Note_on_c, 0, 55, 0
1, 26898, Note_on_c, 0, 41, 60
1, 26908, Note_on_c, 0, 67, 0
1, 26930, Note_on_c, 0, 70, 0
1, 26941, Note_on_c, 0, 63, 0
1, 26943, Note_on_c, 0, 60, 0
1, 27018, Note_on_c, 0, 68, 61
1, 27023, Note_on_c, 0, 63, 55
1, 27023, Note_on_c, 0, 56, 44
1, 27026, Note_on_c, 0, 60, 55
1, 27027, Note_on_c, 0, 51, 31
1, 27043, Control_c, 0, 64, 0
1, 27086, Control_c, 0, 64, 127
1, 27145, Note_on_c, 0, 41, 0
1, 27159, Note_on_c, 0, 60, 0
1, 27159, Note_on_c, 0, 56, 0
1, 27159, Note_on_c, 0, 51, 0
1, 27164, Note_on_c, 0, 68, 0
1, 27171, Note_on_c, 0, 63, 0
1, 27252, Note_on_c, 0, 67, 60
1, 27257, Note_on_c, 0, 56, 36
1, 27258, Note_on_c, 0, 59, 54
1, 27263, Note_on_c, 0, 62, 45
1, 27268, Note_on_c, 0, 55, 43
1, 27269, Control_c, 0, 64, 0
1, 27332, Control_c, 0, 64, 127
1, 27351, Control_c, 0, 64, 0
1, 27373, Note_on_c, 0, 55, 0
1, 27381, Note_on_c, 0, 53, 65
1, 27402, Control_c, 0, 64, 127
1, 27453, Note_on_c, 0, 59, 0
1, 27453, Note_on_c, 0, 56, 0
1, 27455, Note_on_c, 0, 62, 0
1, 27480, Note_on_c, 0, 67, 0
1, 27501, Note_on_c, 0, 56, 36
1, 27501, Note_on_c, 0, 65, 59
1, 27503, Note_on_c, 0, 62, 45
1, 27504, Note_on_c, 0, 59, 47
1, 27519, Control_c, 0, 64, 0
1, 27574, Control_c, 0, 64, 127
1, 27622, Note_on_c, 0, 46, 50
1, 27631, Note_on_c, 0, 53, 0
1, 27636, Note_on_c, 0, 65, 0
1, 27657, Note_on_c, 0, 59, 0
1, 27659, Note_on_c, 0, 56, 0
1, 27669, Note_on_c, 0, 62, 0
1, 27742, Note_on_c, 0, 63, 47
1, 27744, Note_on_c, 0, 58, 44
1, 27746, Note_on_c, 0, 55, 46
1, 27759, Control_c, 0, 64, 0
1, 27793, Note_on_c, 0, 55, 0
1, 27796, Control_c, 0, 64, 127
1, 27824, Note_on_c, 0, 58, 0
1, 27839, Note_on_c, 0, 63, 0
1, 27869, Note_on_c, 0, 55, 54
1, 27974, Note_on_c, 0, 75, 59
1, 27991, Note_on_c, 0, 63, 49
1, 27992, Note_on_c, 0, 67, 57
1, 28007, Note_on_c, 0, 46, 0
1, 28053, Note_on_c, 0, 63, 0
1, 28059, Note_on_c, 0, 67, 0
1, 28096, Note_on_c, 0, 46, 46
1, 28112, Note_on_c, 0, 75, 0
1, 28213, Note_on_c, 0, 87, 75
1, 28227, Note_on_c, 0, 75, 63
1, 28233, Control_c, 0, 64, 0
1, 28256, Control_c, 0, 64, 127
1, 28298, Note_on_c, 0, 46, 0
1, 28337, Note_on_c, 0, 46, 49
1, 28339, Note_on_c, 0, 87, 0
1, 28340, Note_on_c, 0, 75, 0
1, 28411, Note_on_c, 0, 55, 0
1, 28456, Note_on_c, 0, 82, 49
1, 28467, Note_on_c, 0, 70, 47
1, 28473, Note_on_c, 0, 75, 32
1, 28501, Note_on_c, 0, 82, 0
1, 28514, Note_on_c, 0, 75, 0
1, 28535, Note_on_c, 0, 70, 0
1, 28545, Note_on_c, 0, 46, 0
1, 28581, Note_on_c, 0, 46, 42
1, 28694, Note_on_c, 0, 70, 47
1, 28697, Note_on_c, 0, 56, 35
1, 28698, Note_on_c, 0, 66, 46
1, 28698, Note_on_c, 0, 61, 33
1, 28712, Control_c, 0, 64, 0
1, 28761, Control_c, 0, 64, 127
1, 28764, Note_on_c, 0, 46, 0
1, 28821, Note_on_c, 0, 46, 36
1, 28835, Note_on_c, 0, 61, 0
1, 28838, Note_on_c, 0, 66, 0
1, 28844, Note_on_c, 0, 70, 0
1, 28904, Note_on_c, 0, 56, 0
1, 28941, Note_on_c, 0, 73, 75
1, 28948, Note_on_c, 0, 70, 61
1, 28952, Note_on_c, 0, 66, 58
1, 28954, Note_on_c, 0, 61, 45
1, 29072, Note_on_c, 0, 56, 40
1, 29149, Note_on_c, 0, 66, 0
1, 29164, Note_on_c, 0, 61, 0
1, 29175, Note_on_c, 0, 70, 0
1, 29176, Note_on_c, 0, 73, 0
1, 29196, Note_on_c, 0, 67, 37
1, 29197, Note_on_c, 0, 71, 40
1, 29198, Note_on_c, 0, 62, 36
1, 29211, Control_c, 0, 64, 0
1, 29242, Control_c, 0, 64, 127
1, 29257, Note_on_c, 0, 46, 0
1, 29319, Note_on_c, 0, 46, 52
1, 29398, Note_on_c, 0, 62, 0
1, 29441, Note_on_c, 0, 67, 0
1, 29444, Note_on_c, 0, 62, 32
1, 29459, Note_on_c, 0, 62, 0
1, 29470, Note_on_c, 0, 71, 0
1, 29474, Note_on_c, 0, 56, 0
1, 29520, Note_on_c, 0, 46, 0
1, 29653, Note_on_c, 0, 74, 64
1, 29696, Note_on_c, 0, 74, 0
1, 29699, Control_c, 0, 64, 0
1, 29702, Note_on_c, 0, 67, 55
1, 29706, Note_on_c, 0, 46, 29
1, 29709, Note_on_c, 0, 39, 33
1, 29733, Control_c, 0, 64, 127
1, 29761, Note_on_c, 0, 39, 0
1, 29761, Note_on_c, 0, 46, 0
1, 29809, Note_on_c, 0, 67, 0
1, 29942, Note_on_c, 0, 65, 41
1, 29946, Note_on_c, 0, 62, 35
1, 29948, Note_on_c, 0, 60, 28
1, 29951, Note_on_c, 0, 55, 33
1, 29957, Note_on_c, 0, 65, 0
1, 29959, Note_on_c, 0, 62, 0
1, 29961, Note_on_c, 0, 60, 0
1, 29964, Note_on_c, 0, 55, 0
1, 29976, Control_c, 0, 64, 0
1, 30088, Control_c, 0, 64, 127
1, 30173, Control_c, 0, 64, 0
1, 30173, Note_on_c, 0, 33, 64
1, 30197, Control_c, 0, 64, 127
1, 30245, Note_on_c, 0, 33, 0
1, 30432, Note_on_c, 0, 63, 49
1, 30432, Note_on_c, 0, 55, 54
1, 30433, Note_on_c, 0, 60, 53
1, 30508, Note_on_c, 0, 55, 0
1, 30543, Note_on_c, 0, 60, 0
1, 30584, Note_on_c, 0, 44, 69
1, 30586, Note_on_c, 0, 60, 73
1, 30586, Note_on_c, 0, 54, 72
1, 30594, Control_c, 0, 64, 0
1, 30616, Control_c, 0, 64, 127
1, 30646, Note_on_c, 0, 54, 0
1, 30647, Note_on_c, 0, 60, 0
1, 30657, Note_on_c, 0, 44, 0
1, 30662, Note_on_c, 0, 63, 0
1, 30684, Note_on_c, 0, 62, 65
1, 30687, Note_on_c, 0, 43, 35
1, 30687, Note_on_c, 0, 53, 58
1, 30688, Note_on_c, 0, 58, 54
1, 30691, Note_on_c, 0, 31, 38
1, 30693, Control_c, 0, 64, 0
1, 30738, Control_c, 0, 64, 127
1, 30760, Note_on_c, 0, 53, 0
1, 30771, Note_on_c, 0, 31, 0
1, 30790, Note_on_c, 0, 43, 0
1, 30794, Note_on_c, 0, 58, 0
1, 30821, Note_on_c, 0, 62, 0
1, 30926, Note_on_c, 0, 62, 39
1, 30927, Note_on_c, 0, 58, 35
1, 30934, Note_on_c, 0, 53, 30
1, 30999, Note_on_c, 0, 70, 65
1, 31026, Note_on_c, 0, 53, 0
1, 31034, Note_on_c, 0, 70, 0
1, 31034, Note_on_c, 0, 62, 0
1, 31039, Note_on_c, 0, 58, 0
1, 31074, Note_on_c, 0, 75, 79
1, 31125, Note_on_c, 0, 75, 0
1, 31266, Note_on_c, 0, 79, 84
1, 31267, Note_on_c, 0, 74, 84
1, 31269, Note_on_c, 0, 75, 57
1, 31276, Note_on_c, 0, 67, 62
1, 31284, Control_c, 0, 64, 0
1, 31308, Control_c, 0, 64, 127
1, 31352, Note_on_c, 0, 74, 0
1, 31353, Note_on_c, 0, 67, 0
1, 31355, Note_on_c, 0, 75, 0
1, 31357, Note_on_c, 0, 79, 0
1, 31378, Note_on_c, 0, 60, 60
1, 31449, Note_on_c, 0, 60, 0
1, 31491, Note_on_c, 0, 86, 68
1, 31493, Note_on_c, 0, 59, 47
1, 31494, Note_on_c, 0, 79, 62
1, 31498, Note_on_c, 0, 75, 39
1, 31501, Note_on_c, 0, 67, 26
1, 31506, Control_c, 0, 64, 0
1, 31513, Control_c, 0, 64, 127
1, 31514, Note_on_c, 0, 67, 0
1, 31519, Note_on_c, 0, 59, 0
1, 31523, Note_on_c, 0, 86, 0
1, 31534, Note_on_c, 0, 79, 0
1, 31541, Note_on_c, 0, 75, 0
1, 31604, Note_on_c, 0, 78, 37
1, 31606, Note_on_c, 0, 67, 48
1, 31607, Note_on_c, 0, 63, 42
1, 31607, Note_on_c, 0, 72, 43
1, 31608, Note_on_c, 0, 84, 42
1, 31609, Control_c, 0, 64, 0
1, 31609, Note_on_c, 0, 57, 36
1, 31615, Note_on_c, 0, 72, 0
1, 31616, Note_on_c, 0, 84, 0
1, 31616, Note_on_c, 0, 67, 0
1, 31617, Note_on_c, 0, 78, 0
1, 31624, Note_on_c, 0, 63, 0
1, 31626, Note_on_c, 0, 57, 0
1, 31711, Control_c, 0, 64, 127
1, 31711, Note_on_c, 0, 41, 40
1, 31819, Note_on_c, 0, 61, 50
1, 31819, Note_on_c, 0, 67, 62
1, 31823, Note_on_c, 0, 57, 32
1, 31827, Note_on_c, 0, 61, 0
1, 31827, Note_on_c, 0, 51, 31
1, 31832, Note_on_c, 0, 62, 56
1, 31838, Control_c, 0, 64, 0
1, 31854, Note_on_c, 0, 62, 0
1, 31883, Note_on_c, 0, 61, 57
1, 31916, Note_on_c, 0, 61, 0
1, 31918, Note_on_c, 0, 57, 0
1, 31932, Control_c, 0, 64, 127
1, 31942, Note_on_c, 0, 60, 35
1, 31952, Note_on_c, 0, 57, 7
1, 31973, Note_on_c, 0, 57, 0
1, 32010, Note_on_c, 0, 51, 0
1, 32042, Note_on_c, 0, 67, 0
1, 32068, Note_on_c, 0, 60, 0
1, 32069, Note_on_c, 0, 51, 33
1, 32071, Note_on_c, 0, 57, 60
1, 32088, Control_c, 0, 64, 0
1, 32169, Control_c, 0, 64, 127
1, 32244, Note_on_c, 0, 57, 0
1, 32249, Note_on_c, 0, 51, 0
1, 32309, Note_on_c, 0, 61, 76
1, 32313, Note_on_c, 0, 51, 34
1, 32354, Note_on_c, 0, 61, 0
1, 32373, Note_on_c, 0, 64, 70
1, 32392, Note_on_c, 0, 41, 0
1, 32405, Note_on_c, 0, 51, 0
1, 32406, Note_on_c, 0, 64, 0
1, 32429, Note_on_c, 0, 69, 82
1, 32472, Note_on_c, 0, 69, 0
1, 32493, Note_on_c, 0, 65, 60
1, 32524, Note_on_c, 0, 65, 0
1, 32548, Note_on_c, 0, 67, 57
1, 32548, Note_on_c, 0, 63, 29
1, 32552, Control_c, 0, 64, 0
1, 32553, Note_on_c, 0, 60, 30
1, 32553, Note_on_c, 0, 56, 28
1, 32606, Control_c, 0, 64, 127
1, 32610, Note_on_c, 0, 67, 0
1, 32614, Note_on_c, 0, 46, 42
1, 32619, Note_on_c, 0, 63, 0
1, 32621, Note_on_c, 0, 60, 0
1, 32630, Note_on_c, 0, 56, 0
1, 32672, Note_on_c, 0, 63, 51
1, 32676, Note_on_c, 0, 56, 48
1, 32677, Note_on_c, 0, 60, 60
1, 32731, Note_on_c, 0, 56, 0
1, 32753, Note_on_c, 0, 60, 0
1, 32770, Note_on_c, 0, 63, 0
1, 32789, Note_on_c, 0, 56, 43
1, 32862, Note_on_c, 0, 67, 72
1, 32864, Note_on_c, 0, 46, 0
1, 32869, Note_on_c, 0, 56, 0
1, 32913, Note_on_c, 0, 67, 0
1, 32943, Note_on_c, 0, 68, 64
1, 32964, Note_on_c, 0, 68, 0
1, 32982, Note_on_c, 0, 70, 71
1, 33002, Note_on_c, 0, 70, 0
1, 33019, Control_c, 0, 64, 0
1, 33021, Note_on_c, 0, 72, 69
1, 33024, Note_on_c, 0, 68, 42
1, 33024, Note_on_c, 0, 63, 39
1, 33027, Note_on_c, 0, 58, 32
1, 33029, Note_on_c, 0, 60, 45
1, 33076, Note_on_c, 0, 72, 0
1, 33089, Note_on_c, 0, 74, 69
1, 33102, Note_on_c, 0, 68, 0
1, 33104, Note_on_c, 0, 63, 0
1, 33109, Note_on_c, 0, 74, 0
1, 33119, Note_on_c, 0, 60, 0
1, 33120, Note_on_c, 0, 58, 0
1, 33121, Note_on_c, 0, 75, 78
1, 33138, Note_on_c, 0, 75, 0
1, 33152, Note_on_c, 0, 77, 74
1, 33181, Control_c, 0, 64, 127
1, 33198, Note_on_c, 0, 77, 0
1, 33207, Note_on_c, 0, 79, 73
1, 33237, Note_on_c, 0, 79, 0
1, 33238, Control_c, 0, 64, 0
1, 33238, Note_on_c, 0, 80, 72
1, 33257, Note_on_c, 0, 56, 38
1, 33262, Note_on_c, 0, 67, 33
1, 33263, Note_on_c, 0, 62, 46
1, 33264, Note_on_c, 0, 80, 0
1, 33277, Control_c, 0, 64, 127
1, 33281, Note_on_c, 0, 82, 51
1, 33299, Note_on_c, 0, 67, 0
1, 33303, Note_on_c, 0, 62, 0
1, 33307, Note_on_c, 0, 82, 0
1, 33323, Note_on_c, 0, 56, 0
1, 33329, Note_on_c, 0, 84, 72
1, 33350, Note_on_c, 0, 84, 0
1, 33367, Note_on_c, 0, 86, 84
1, 33373, Note_on_c, 0, 56, 48
1, 33379, Note_on_c, 0, 46, 37
1, 33387, Note_on_c, 0, 86, 0
1, 33388, Note_on_c, 0, 56, 0
1, 33392, Note_on_c, 0, 46, 0
1, 33397, Note_on_c, 0, 87, 83
1, 33443, Note_on_c, 0, 87, 0
1, 33456, Note_on_c, 0, 89, 67
1, 33483, Note_on_c, 0, 89, 0
1, 33492, Note_on_c, 0, 86, 60
1, 33500, Note_on_c, 0, 86, 0
1, 33514, Control_c, 0, 64, 0
1, 33517, Note_on_c, 0, 46, 47
1, 33519, Note_on_c, 0, 39, 53
1, 33546, Control_c, 0, 64, 127
1, 33597, Note_on_c, 0, 39, 0
1, 33597, Note_on_c, 0, 82, 59
1, 33602, Note_on_c, 0, 46, 0
1, 33649, Note_on_c, 0, 82, 0
1, 33666, Note_on_c, 0, 79, 67
1, 33697, Note_on_c, 0, 79, 0
1, 33731, Note_on_c, 0, 79, 61
1, 33767, Note_on_c, 0, 79, 0
1, 33794, Note_on_c, 0, 79, 57
1, 33798, Note_on_c, 0, 62, 37
1, 33801, Note_on_c, 0, 58, 30
1, 33802, Note_on_c, 0, 65, 32
1, 33804, Note_on_c, 0, 55, 36
1, 33824, Note_on_c, 0, 79, 0
1, 33863, Note_on_c, 0, 65, 0
1, 33904, Note_on_c, 0, 62, 0
1, 33924, Note_on_c, 0, 58, 0
1, 33930, Note_on_c, 0, 55, 0
1, 33994, Note_on_c, 0, 75, 60
1, 34041, Note_on_c, 0, 75, 0
1, 34056, Note_on_c, 0, 67, 53
1, 34057, Note_on_c, 0, 72, 47
1, 34057, Note_on_c, 0, 44, 37
1, 34057, Note_on_c, 0, 51, 44
1, 34058, Control_c, 0, 64, 0
1, 34099, Control_c, 0, 64, 127
1, 34144, Note_on_c, 0, 44, 0
1, 34150, Note_on_c, 0, 51, 0
1, 34228, Note_on_c, 0, 67, 0
1, 34249, Note_on_c, 0, 72, 0
1, 34304, Note_on_c, 0, 63, 36
1, 34308, Note_on_c, 0, 67, 44
1, 34309, Note_on_c, 0, 60, 39
1, 34342, Note_on_c, 0, 60, 0
1, 34342, Note_on_c, 0, 63, 0
1, 34349, Note_on_c, 0, 67, 0
1, 34426, Note_on_c, 0, 62, 87
1, 34481, Note_on_c, 0, 62, 0
1, 34482, Note_on_c, 0, 61, 45
1, 34509, Note_on_c, 0, 60, 48
1, 34517, Note_on_c, 0, 61, 0
1, 34531, Note_on_c, 0, 60, 0
1, 34537, Note_on_c, 0, 59, 51
1, 34557, Note_on_c, 0, 59, 0
1, 34567, Note_on_c, 0, 57, 55
1, 34583, Note_on_c, 0, 43, 35
1, 34588, Control_c, 0, 64, 0
1, 34590, Note_on_c, 0, 57, 0
1, 34601, Note_on_c, 0, 58, 58
1, 34631, Control_c, 0, 64, 127
1, 34671, Note_on_c, 0, 58, 0
1, 34689, Note_on_c, 0, 43, 0
1, 34851, Note_on_c, 0, 57, 33
1, 34852, Note_on_c, 0, 58, 29
1, 34853, Note_on_c, 0, 62, 26
1, 34953, Note_on_c, 0, 69, 89
1, 34954, Note_on_c, 0, 62, 0
1, 34971, Note_on_c, 0, 57, 0
1, 34974, Note_on_c, 0, 58, 0
1, 34976, Note_on_c, 0, 69, 0
1, 35019, Note_on_c, 0, 70, 85
1, 35061, Note_on_c, 0, 70, 0
1, 35096, Note_on_c, 0, 71, 69
1, 35099, Note_on_c, 0, 59, 51
1, 35099, Note_on_c, 0, 63, 53
1, 35101, Note_on_c, 0, 67, 68
1, 35109, Control_c, 0, 64, 0
1, 35153, Control_c, 0, 64, 127
1, 35182, Note_on_c, 0, 74, 58
1, 35253, Note_on_c, 0, 74, 0
1, 35254, Note_on_c, 0, 71, 0
1, 35276, Note_on_c, 0, 63, 0
1, 35278, Note_on_c, 0, 67, 0
1, 35353, Note_on_c, 0, 67, 55
1, 35354, Note_on_c, 0, 75, 52
1, 35356, Note_on_c, 0, 60, 36
1, 35357, Note_on_c, 0, 63, 39
1, 35367, Note_on_c, 0, 59, 0
1, 35369, Control_c, 0, 64, 0
1, 35403, Control_c, 0, 64, 127
1, 35420, Note_on_c, 0, 67, 0
1, 35429, Note_on_c, 0, 63, 0
1, 35435, Note_on_c, 0, 75, 0
1, 35474, Note_on_c, 0, 60, 0
1, 35509, Note_on_c, 0, 77, 63
1, 35524, Note_on_c, 0, 77, 0
1, 35593, Note_on_c, 0, 66, 40
1, 35593, Note_on_c, 0, 74, 65
1, 35596, Control_c, 0, 64, 0
1, 35597, Note_on_c, 0, 62, 42
1, 35598, Note_on_c, 0, 57, 48
1, 35599, Note_on_c, 0, 69, 43
1, 35605, Note_on_c, 0, 74, 0
1, 35606, Note_on_c, 0, 57, 0
1, 35606, Note_on_c, 0, 66, 0
1, 35607, Note_on_c, 0, 62, 0
1, 35607, Note_on_c, 0, 69, 0
1, 35667, Note_on_c, 0, 41, 52
1, 35671, Control_c, 0, 64, 127
1, 35742, Note_on_c, 0, 61, 58
1, 35744, Note_on_c, 0, 65, 68
1, 35747, Note_on_c, 0, 57, 44
1, 35752, Note_on_c, 0, 51, 33
1, 35759, Note_on_c, 0, 61, 0
1, 35762, Note_on_c, 0, 62, 40
1, 35772, Control_c, 0, 64, 0
1, 35803, Note_on_c, 0, 62, 0
1, 35826, Note_on_c, 0, 61, 49
1, 35887, Note_on_c, 0, 61, 0
1, 35904, Note_on_c, 0, 60, 40
1, 35911, Control_c, 0, 64, 127
1, 35955, Note_on_c, 0, 57, 0
1, 36007, Note_on_c, 0, 60, 0
1, 36086, Note_on_c, 0, 60, 46
1, 36087, Note_on_c, 0, 57, 24
1, 36192, Note_on_c, 0, 41, 0
1, 36232, Note_on_c, 0, 51, 0
1, 36232, Note_on_c, 0, 57, 0
1, 36234, Note_on_c, 0, 60, 0
1, 36236, Note_on_c, 0, 41, 68
1, 36247, Note_on_c, 0, 65, 0
1, 36327, Note_on_c, 0, 66, 82
1, 36328, Note_on_c, 0, 62, 89
1, 36329, Note_on_c, 0, 51, 55
1, 36331, Note_on_c, 0, 57, 81
1, 36334, Control_c, 0, 64, 0
1, 36366, Control_c, 0, 64, 127
1, 36411, Note_on_c, 0, 57, 0
1, 36438, Note_on_c, 0, 62, 0
1, 36438, Note_on_c, 0, 66, 0
1, 36447, Note_on_c, 0, 41, 0
1, 36464, Note_on_c, 0, 51, 0
1, 36481, Note_on_c, 0, 69, 68
1, 36506, Note_on_c, 0, 69, 0
1, 36569, Note_on_c, 0, 70, 62
1, 36571, Note_on_c, 0, 62, 55
1, 36573, Note_on_c, 0, 68, 48
1, 36577, Note_on_c, 0, 65, 51
1, 36578, Note_on_c, 0, 64, 49
1, 36581, Note_on_c, 0, 58, 36
1, 36584, Control_c, 0, 64, 0
1, 36586, Note_on_c, 0, 64, 0
1, 36636, Control_c, 0, 64, 127
1, 36641, Note_on_c, 0, 46, 53
1, 36644, Note_on_c, 0, 58, 0
1, 36657, Note_on_c, 0, 65, 0
1, 36657, Note_on_c, 0, 62, 0
1, 36664, Note_on_c, 0, 68, 0
1, 36671, Note_on_c, 0, 70, 0
1, 36697, Note_on_c, 0, 46, 0
1, 36817, Note_on_c, 0, 67, 47
1, 36819, Note_on_c, 0, 56, 36
1, 36821, Note_on_c, 0, 62, 40
1, 36882, Note_on_c, 0, 67, 0
1, 36891, Note_on_c, 0, 86, 61
1, 36892, Note_on_c, 0, 74, 62
1, 36897, Note_on_c, 0, 62, 0
1, 36900, Note_on_c, 0, 74, 0
1, 36912, Note_on_c, 0, 86, 0
1, 36915, Note_on_c, 0, 56, 0
1, 36962, Note_on_c, 0, 89, 83
1, 36964, Note_on_c, 0, 77, 72
1, 36971, Note_on_c, 0, 79, 40
1, 36979, Note_on_c, 0, 79, 0
1, 36982, Note_on_c, 0, 77, 0
1, 36989, Note_on_c, 0, 89, 0
1, 37038, Note_on_c, 0, 56, 40
1, 37043, Note_on_c, 0, 47, 45
1, 37043, Note_on_c, 0, 80, 69
1, 37044, Note_on_c, 0, 92, 72
1, 37049, Control_c, 0, 64, 0
1, 37074, Note_on_c, 0, 92, 0
1, 37079, Note_on_c, 0, 80, 0
1, 37083, Control_c, 0, 64, 127
1, 37116, Note_on_c, 0, 95, 64
1, 37116, Note_on_c, 0, 83, 57
1, 37126, Note_on_c, 0, 47, 0
1, 37127, Note_on_c, 0, 83, 0
1, 37133, Note_on_c, 0, 95, 0
1, 37141, Note_on_c, 0, 56, 0
1, 37192, Note_on_c, 0, 98, 68
1, 37193, Note_on_c, 0, 86, 64
1, 37211, Note_on_c, 0, 86, 0
1, 37223, Note_on_c, 0, 98, 0
1, 37274, Note_on_c, 0, 62, 37
1, 37279, Note_on_c, 0, 59, 33
1, 37281, Note_on_c, 0, 56, 25
1, 37286, Note_on_c, 0, 53, 35
1, 37351, Note_on_c, 0, 101, 58
1, 37353, Note_on_c, 0, 89, 53
1, 37373, Note_on_c, 0, 89, 0
1, 37376, Note_on_c, 0, 101, 0
1, 37415, Note_on_c, 0, 59, 0
1, 37420, Note_on_c, 0, 62, 0
1, 37433, Note_on_c, 0, 56, 0
1, 37448, Note_on_c, 0, 53, 0
1, 37512, Note_on_c, 0, 63, 37
1, 37512, Note_on_c, 0, 106, 52
1, 37513, Note_on_c, 0, 94, 39
1, 37518, Note_on_c, 0, 58, 34
1, 37522, Note_on_c, 0, 55, 30
1, 37523, Control_c, 0, 64, 0
1, 37552, Control_c, 0, 64, 127
1, 37570, Note_on_c, 0, 106, 0
1, 37583, Note_on_c, 0, 94, 0
1, 37609, Note_on_c, 0, 55, 0
1, 37610, Note_on_c, 0, 63, 0
1, 37619, Note_on_c, 0, 58, 0
1, 37748, Note_on_c, 0, 75, 56
1, 37753, Note_on_c, 0, 63, 40
1, 37753, Note_on_c, 0, 67, 50
1, 37754, Note_on_c, 0, 70, 50
1, 37800, Note_on_c, 0, 63, 0
1, 37830, Note_on_c, 0, 75, 0
1, 37841, Note_on_c, 0, 70, 0
1, 37845, Note_on_c, 0, 67, 0
1, 37983, Note_on_c, 0, 70, 44
1, 37989, Note_on_c, 0, 63, 47
1, 37989, Note_on_c, 0, 67, 52
1, 37993, Note_on_c, 0, 58, 34
1, 37993, Note_on_c, 0, 55, 37
1, 38005, Note_on_c, 0, 55, 0
1, 38062, Note_on_c, 0, 67, 0
1, 38083, Note_on_c, 0, 58, 0
1, 38085, Note_on_c, 0, 70, 0
1, 38099, Note_on_c, 0, 63, 0
1, 38231, Note_on_c, 0, 58, 38
1, 38236, Note_on_c, 0, 67, 50
1, 38236, Note_on_c, 0, 63, 43
1, 38238, Note_on_c, 0, 55, 37
1, 38339, Note_on_c, 0, 55, 0
1, 38391, Note_on_c, 0, 63, 0
1, 38401, Note_on_c, 0, 58, 0
1, 38454, Note_on_c, 0, 67, 0
1, 38478, Note_on_c, 0, 63, 40
1, 38481, Note_on_c, 0, 58, 32
1, 38483, Note_on_c, 0, 55, 30
1, 38484, Note_on_c, 0, 51, 27
1, 38494, Note_on_c, 0, 43, 27
1, 38497, Control_c, 0, 64, 0
1, 38536, Control_c, 0, 64, 127
1, 38586, Note_on_c, 0, 55, 0
1, 38625, Note_on_c, 0, 51, 0
1, 38649, Note_on_c, 0, 58, 0
1, 38651, Note_on_c, 0, 63, 0
1, 38721, Note_on_c, 0, 51, 30
1, 38723, Note_on_c, 0, 55, 38
1, 38723, Note_on_c, 0, 58, 34
1, 38756, Note_on_c, 0, 55, 0
1, 38771, Note_on_c, 0, 58, 0
1, 38773, Note_on_c, 0, 51, 0
1, 38782, Note_on_c, 0, 43, 0
1, 38846, Note_on_c, 0, 67, 75
1, 38847, Note_on_c, 0, 63, 74
1, 38848, Note_on_c, 0, 58, 69
1, 38849, Note_on_c, 0, 51, 62
1, 38861, Control_c, 0, 64, 0
1, 38873, Control_c, 0, 64, 127
1, 38889, Note_on_c, 0, 67, 0
1, 38895, Note_on_c, 0, 58, 0
1, 38900, Note_on_c, 0, 63, 0
1, 38964, Note_on_c, 0, 70, 60
1, 38968, Note_on_c, 0, 67, 66
1, 38969, Note_on_c, 0, 55, 51
1, 38974, Note_on_c, 0, 51, 0
1, 38974, Note_on_c, 0, 63, 33
1, 38976, Control_c, 0, 64, 0
1, 39001, Control_c, 0, 64, 127
1, 39045, Note_on_c, 0, 63, 0
1, 39048, Note_on_c, 0, 67, 0
1, 39064, Note_on_c, 0, 70, 0
1, 39165, Note_on_c, 0, 55, 0
1, 39204, Note_on_c, 0, 75, 56
1, 39207, Note_on_c, 0, 70, 46
1, 39208, Note_on_c, 0, 63, 36
1, 39208, Note_on_c, 0, 55, 49
1, 39211, Note_on_c, 0, 67, 46
1, 39343, Note_on_c, 0, 55, 0
1, 39348, Note_on_c, 0, 67, 0
1, 39355, Note_on_c, 0, 63, 0
1, 39368, Note_on_c, 0, 70, 0
1, 39372, Note_on_c, 0, 75, 0
1, 39452, Note_on_c, 0, 74, 62
1, 39457, Note_on_c, 0, 70, 47
1, 39458, Note_on_c, 0, 65, 29
1, 39463, Note_on_c, 0, 44, 37
1, 39467, Control_c, 0, 64, 0
1, 39490, Note_on_c, 0, 44, 0
1, 39496, Control_c, 0, 64, 127
1, 39538, Note_on_c, 0, 65, 0
1, 39541, Note_on_c, 0, 54, 59
1, 39596, Note_on_c, 0, 60, 68
1, 39599, Note_on_c, 0, 70, 0
1, 39643, Note_on_c, 0, 74, 0
1, 39651, Note_on_c, 0, 65, 67
1, 39676, Note_on_c, 0, 65, 0
1, 39709, Note_on_c, 0, 74, 80
1, 39711, Note_on_c, 0, 70, 62
1, 39722, Note_on_c, 0, 70, 0
1, 39726, Note_on_c, 0, 74, 0
1, 39772, Note_on_c, 0, 82, 76
1, 39773, Note_on_c, 0, 86, 80
1, 39778, Note_on_c, 0, 60, 0
1, 39794, Note_on_c, 0, 82, 0
1, 39801, Note_on_c, 0, 86, 0
1, 39836, Note_on_c, 0, 86, 68
1, 39838, Note_on_c, 0, 82, 67
1, 39859, Note_on_c, 0, 86, 0
1, 39860, Note_on_c, 0, 82, 0
1, 39864, Note_on_c, 0, 54, 0
1, 39901, Note_on_c, 0, 86, 58
1, 39901, Note_on_c, 0, 82, 51
1, 39919, Note_on_c, 0, 86, 0
1, 39921, Note_on_c, 0, 82, 0
1, 39963, Note_on_c, 0, 86, 64
1, 39964, Note_on_c, 0, 54, 25
1, 39964, Note_on_c, 0, 82, 52
1, 39966, Note_on_c, 0, 65, 32
1, 39968, Note_on_c, 0, 60, 34
1, 40013, Note_on_c, 0, 65, 0
1, 40024, Note_on_c, 0, 60, 0
1, 40035, Note_on_c, 0, 54, 0
1, 40204, Note_on_c, 0, 44, 49
1, 40231, Note_on_c, 0, 44, 0
1, 40344, Note_on_c, 0, 86, 0
1, 40350, Note_on_c, 0, 82, 0
1, 40359, Note_on_c, 0, 84, 54
1, 40381, Note_on_c, 0, 84, 0
1, 40398, Note_on_c, 0, 86, 51
1, 40433, Note_on_c, 0, 86, 0
1, 40451, Note_on_c, 0, 43, 53
1, 40451, Control_c, 0, 64, 0
1, 40452, Note_on_c, 0, 84, 66
1, 40473, Note_on_c, 0, 43, 0
1, 40473, Control_c, 0, 64, 127
1, 40489, Note_on_c, 0, 84, 0
1, 40541, Note_on_c, 0, 58, 47
1, 40591, Note_on_c, 0, 64, 63
1, 40639, Note_on_c, 0, 66, 64
1, 40677, Note_on_c, 0, 68, 68
1, 40680, Note_on_c, 0, 66, 0
1, 40702, Note_on_c, 0, 68, 0
1, 40709, Note_on_c, 0, 70, 56
1, 40712, Note_on_c, 0, 64, 0
1, 40725, Note_on_c, 0, 70, 0
1, 40729, Note_on_c, 0, 58, 0
1, 40738, Note_on_c, 0, 72, 71
1, 40758, Note_on_c, 0, 72, 0
1, 40759, Note_on_c, 0, 73, 59
1, 40781, Note_on_c, 0, 73, 0
1, 40781, Note_on_c, 0, 75, 64
1, 40797, Note_on_c, 0, 75, 0
1, 40806, Note_on_c, 0, 76, 66
1, 40822, Note_on_c, 0, 76, 0
1, 40824, Note_on_c, 0, 78, 53
1, 40847, Note_on_c, 0, 80, 45
1, 40850, Note_on_c, 0, 78, 0
1, 40864, Note_on_c, 0, 82, 52
1, 40865, Note_on_c, 0, 80, 0
1, 40872, Note_on_c, 0, 82, 0
1, 40889, Note_on_c, 0, 84, 70
1, 40906, Note_on_c, 0, 84, 0
1, 40913, Note_on_c, 0, 85, 69
1, 40916, Note_on_c, 0, 58, 32
1, 40917, Note_on_c, 0, 63, 34
1, 40926, Note_on_c, 0, 52, 36
1, 40927, Control_c, 0, 64, 0
1, 40939, Note_on_c, 0, 85, 0
1, 40951, Note_on_c, 0, 87, 56
1, 40968, Note_on_c, 0, 87, 0
1, 40968, Note_on_c, 0, 63, 0
1, 40972, Note_on_c, 0, 52, 0
1, 40977, Note_on_c, 0, 58, 0
1, 40983, Note_on_c, 0, 88, 55
1, 41001, Note_on_c, 0, 88, 0
1, 41016, Note_on_c, 0, 90, 55
1, 41047, Note_on_c, 0, 90, 0
1, 41049, Note_on_c, 0, 92, 56
1, 41060, Note_on_c, 0, 92, 0
1, 41062, Control_c, 0, 64, 127
1, 41074, Note_on_c, 0, 94, 60
1, 41090, Note_on_c, 0, 94, 0
1, 41107, Note_on_c, 0, 96, 65
1, 41128, Note_on_c, 0, 96, 0
1, 41139, Note_on_c, 0, 97, 63
1, 41161, Note_on_c, 0, 58, 34
1, 41165, Note_on_c, 0, 97, 0
1, 41169, Note_on_c, 0, 48, 47
1, 41171, Control_c, 0, 64, 0
1, 41173, Note_on_c, 0, 99, 53
1, 41189, Control_c, 0, 64, 127
1, 41199, Note_on_c, 0, 99, 0
1, 41201, Note_on_c, 0, 48, 0
1, 41201, Note_on_c, 0, 58, 0
1, 41212, Note_on_c, 0, 100, 53
1, 41242, Note_on_c, 0, 100, 0
1, 41242, Note_on_c, 0, 101, 62
1, 41278, Note_on_c, 0, 101, 0
1, 41412, Note_on_c, 0, 52, 66
1, 41414, Note_on_c, 0, 94, 46
1, 41418, Control_c, 0, 64, 0
1, 41425, Note_on_c, 0, 94, 0
1, 41478, Control_c, 0, 64, 127
1, 41489, Note_on_c, 0, 40, 55
1, 41501, Note_on_c, 0, 40, 0
1, 41514, Note_on_c, 0, 52, 0
1, 41619, Note_on_c, 0, 51, 64
1, 41621, Note_on_c, 0, 50, 56
1, 41639, Note_on_c, 0, 54, 68
1, 41644, Note_on_c, 0, 50, 0
1, 41647, Note_on_c, 0, 51, 0
1, 41651, Note_on_c, 0, 70, 70
1, 41654, Control_c, 0, 64, 0
1, 41654, Note_on_c, 0, 64, 71
1, 41654, Note_on_c, 0, 61, 60
1, 41656, Note_on_c, 0, 67, 66
1, 41657, Note_on_c, 0, 54, 0
1, 41657, Note_on_c, 0, 55, 62
1, 41658, Note_on_c, 0, 53, 68
1, 41666, Note_on_c, 0, 53, 0
1, 41723, Control_c, 0, 64, 127
1, 41734, Note_on_c, 0, 67, 0
1, 41762, Control_c, 0, 64, 0
1, 41797, Note_on_c, 0, 70, 0
1, 41798, Note_on_c, 0, 52, 43
1, 41799, Note_on_c, 0, 64, 0
1, 41799, Note_on_c, 0, 67, 39
1, 41804, Note_on_c, 0, 55, 0
1, 41817, Note_on_c, 0, 61, 0
1, 41822, Note_on_c, 0, 67, 0
1, 41866, Note_on_c, 0, 61, 53
1, 41868, Note_on_c, 0, 70, 57
1, 41869, Note_on_c, 0, 55, 61
1, 41871, Control_c, 0, 64, 127
1, 41871, Note_on_c, 0, 67, 62
1, 41872, Note_on_c, 0, 64, 61
1, 41895, Note_on_c, 0, 64, 0
1, 41895, Note_on_c, 0, 55, 0
1, 41903, Note_on_c, 0, 67, 0
1, 41905, Note_on_c, 0, 70, 0
1, 41906, Note_on_c, 0, 61, 0
1, 41914, Note_on_c, 0, 52, 0
1, 41918, Control_c, 0, 64, 0
1, 41929, Note_on_c, 0, 70, 35
1, 41934, Note_on_c, 0, 63, 52
1, 41936, Note_on_c, 0, 60, 54
1, 41936, Note_on_c, 0, 67, 45
1, 41994, Note_on_c, 0, 63, 0
1, 41998, Note_on_c, 0, 67, 0
1, 41998, Note_on_c, 0, 60, 0
1, 42001, Note_on_c, 0, 70, 0
1, 42013, Note_on_c, 0, 63, 40
1, 42013, Note_on_c, 0, 60, 40
1, 42016, Note_on_c, 0, 68, 57
1, 42017, Note_on_c, 0, 53, 45
1, 42051, Control_c, 0, 64, 127
1, 42072, Note_on_c, 0, 53, 0
1, 42181, Note_on_c, 0, 41, 44
1, 42193, Note_on_c, 0, 41, 0
1, 42279, Note_on_c, 0, 67, 64
1, 42292, Note_on_c, 0, 68, 0
1, 42316, Note_on_c, 0, 60, 0
1, 42329, Note_on_c, 0, 67, 0
1, 42348, Note_on_c, 0, 68, 52
1, 42354, Note_on_c, 0, 70, 43
1, 42355, Note_on_c, 0, 63, 0
1, 42376, Note_on_c, 0, 70, 0
1, 42380, Note_on_c, 0, 68, 0
1, 42427, Note_on_c, 0, 70, 56
1, 42428, Note_on_c, 0, 63, 46
1, 42429, Note_on_c, 0, 67, 61
1, 42432, Note_on_c, 0, 59, 42
1, 42433, Note_on_c, 0, 37, 43
1, 42433, Control_c, 0, 64, 0
1, 42482, Control_c, 0, 64, 127
1, 42496, Note_on_c, 0, 37, 0
1, 42498, Note_on_c, 0, 44, 54
1, 42526, Note_on_c, 0, 46, 20
1, 42530, Note_on_c, 0, 59, 0
1, 42532, Note_on_c, 0, 67, 0
1, 42536, Note_on_c, 0, 63, 0
1, 42546, Note_on_c, 0, 46, 0
1, 42549, Note_on_c, 0, 44, 0
1, 42553, Note_on_c, 0, 70, 0
1, 42567, Note_on_c, 0, 68, 56
1, 42568, Note_on_c, 0, 53, 45
1, 42571, Note_on_c, 0, 59, 42
1, 42572, Note_on_c, 0, 63, 42
1, 42626, Note_on_c, 0, 59, 0
1, 42634, Note_on_c, 0, 53, 0
1, 42653, Note_on_c, 0, 63, 0
1, 42683, Note_on_c, 0, 63, 48
1, 42689, Note_on_c, 0, 59, 41
1, 42731, Note_on_c, 0, 59, 0
1, 42789, Note_on_c, 0, 63, 0
1, 42833, Note_on_c, 0, 68, 0
1, 42834, Note_on_c, 0, 59, 50
1, 42857, Note_on_c, 0, 59, 0
1, 42932, Note_on_c, 0, 70, 48
1, 42933, Note_on_c, 0, 63, 50
1, 42938, Note_on_c, 0, 67, 48
1, 42939, Note_on_c, 0, 59, 47
1, 42939, Note_on_c, 0, 53, 37
1, 42951, Control_c, 0, 64, 0
1, 42992, Control_c, 0, 64, 127
1, 43107, Note_on_c, 0, 59, 0
1, 43118, Note_on_c, 0, 67, 0
1, 43129, Note_on_c, 0, 63, 0
1, 43130, Note_on_c, 0, 53, 0
1, 43148, Note_on_c, 0, 70, 0
1, 43182, Note_on_c, 0, 68, 48
1, 43187, Note_on_c, 0, 63, 43
1, 43187, Note_on_c, 0, 53, 36
1, 43188, Note_on_c, 0, 59, 36
1, 43264, Note_on_c, 0, 53, 0
1, 43297, Note_on_c, 0, 68, 0
1, 43305, Note_on_c, 0, 63, 0
1, 43318, Note_on_c, 0, 59, 0
1, 43431, Note_on_c, 0, 67, 44
1, 43432, Note_on_c, 0, 63, 38
1, 43433, Note_on_c, 0, 58, 31
1, 43436, Note_on_c, 0, 46, 26
1, 43438, Note_on_c, 0, 55, 31
1, 43444, Control_c, 0, 64, 0
1, 43485, Note_on_c, 0, 55, 0
1, 43489, Control_c, 0, 64, 127
1, 43551, Note_on_c, 0, 58, 0
1, 43554, Note_on_c, 0, 63, 0
1, 43587, Note_on_c, 0, 67, 0
1, 43663, Note_on_c, 0, 63, 37
1, 43664, Note_on_c, 0, 58, 33
1, 43695, Note_on_c, 0, 58, 0
1, 43705, Note_on_c, 0, 63, 0
1, 43739, Note_on_c, 0, 55, 80
1, 43798, Note_on_c, 0, 46, 0
1, 43808, Note_on_c, 0, 67, 85
1, 43836, Note_on_c, 0, 67, 0
1, 43875, Note_on_c, 0, 55, 0
1, 43892, Note_on_c, 0, 68, 77
1, 43893, Note_on_c, 0, 63, 77
1, 43893, Note_on_c, 0, 59, 73
1, 43899, Note_on_c, 0, 56, 55
1, 43913, Control_c, 0, 64, 0
1, 43963, Control_c, 0, 64, 127
1, 44030, Note_on_c, 0, 56, 0
1, 44033, Note_on_c, 0, 59, 0
1, 44056, Note_on_c, 0, 63, 0
1, 44094, Note_on_c, 0, 68, 0
1, 44132, Note_on_c, 0, 70, 52
1, 44133, Note_on_c, 0, 64, 59
1, 44137, Note_on_c, 0, 58, 35
1, 44146, Note_on_c, 0, 48, 36
1, 44147, Control_c, 0, 64, 0
1, 44183, Control_c, 0, 64, 127
1, 44217, Note_on_c, 0, 58, 0
1, 44218, Note_on_c, 0, 48, 0
1, 44239, Note_on_c, 0, 64, 0
1, 44242, Note_on_c, 0, 70, 0
1, 44331, Note_on_c, 0, 41, 70
1, 44349, Note_on_c, 0, 41, 0
1, 44391, Note_on_c, 0, 51, 79
1, 44392, Note_on_c, 0, 71, 80
1, 44393, Note_on_c, 0, 57, 80
1, 44394, Note_on_c, 0, 67, 84
1, 44394, Note_on_c, 0, 62, 81
1, 44413, Control_c, 0, 64, 0
1, 44444, Control_c, 0, 64, 127
1, 44581, Note_on_c, 0, 57, 0
1, 44586, Note_on_c, 0, 62, 0
1, 44636, Note_on_c, 0, 67, 0
1, 44642, Note_on_c, 0, 71, 0
1, 44653, Note_on_c, 0, 72, 84
1, 44656, Note_on_c, 0, 68, 76
1, 44656, Note_on_c, 0, 63, 72
1, 44663, Note_on_c, 0, 57, 47
1, 44673, Control_c, 0, 64, 0
1, 44697, Control_c, 0, 64, 127
1, 44781, Note_on_c, 0, 57, 0
1, 44781, Note_on_c, 0, 51, 0
1, 44802, Note_on_c, 0, 63, 0
1, 44806, Note_on_c, 0, 72, 0
1, 44811, Note_on_c, 0, 68, 0
1, 44901, Note_on_c, 0, 75, 51
1, 44903, Note_on_c, 0, 68, 47
1, 44904, Note_on_c, 0, 72, 53
1, 44906, Note_on_c, 0, 63, 50
1, 44908, Note_on_c, 0, 65, 48
1, 44921, Control_c, 0, 64, 0
1, 44964, Control_c, 0, 64, 127
1, 45026, Note_on_c, 0, 58, 44
1, 45033, Note_on_c, 0, 65, 0
1, 45042, Note_on_c, 0, 63, 0
1, 45046, Note_on_c, 0, 72, 0
1, 45048, Note_on_c, 0, 68, 0
1, 45067, Note_on_c, 0, 75, 0
1, 45144, Note_on_c, 0, 77, 65
1, 45148, Note_on_c, 0, 65, 37
1, 45152, Note_on_c, 0, 71, 49
1, 45152, Note_on_c, 0, 74, 54
1, 45157, Note_on_c, 0, 68, 28
1, 45159, Control_c, 0, 64, 0
1, 45198, Control_c, 0, 64, 127
1, 45209, Note_on_c, 0, 58, 0
1, 45272, Note_on_c, 0, 58, 48
1, 45275, Note_on_c, 0, 71, 0
1, 45275, Note_on_c, 0, 77, 0
1, 45278, Note_on_c, 0, 74, 0
1, 45283, Note_on_c, 0, 68, 0
1, 45288, Note_on_c, 0, 65, 0
1, 45394, Note_on_c, 0, 79, 39
1, 45397, Note_on_c, 0, 70, 37
1, 45401, Note_on_c, 0, 75, 45
1, 45402, Note_on_c, 0, 67, 38
1, 45406, Note_on_c, 0, 63, 42
1, 45407, Control_c, 0, 64, 0
1, 45438, Control_c, 0, 64, 127
1, 45473, Note_on_c, 0, 58, 0
1, 45521, Note_on_c, 0, 58, 50
1, 45528, Note_on_c, 0, 63, 0
1, 45580, Note_on_c, 0, 70, 0
1, 45584, Note_on_c, 0, 67, 0
1, 45592, Note_on_c, 0, 75, 0
1, 45666, Note_on_c, 0, 58, 0
1, 45759, Note_on_c, 0, 58, 45
1, 45876, Note_on_c, 0, 58, 0
1, 45883, Note_on_c, 0, 63, 37
1, 45887, Note_on_c, 0, 75, 42
1, 45887, Note_on_c, 0, 67, 45
1, 45888, Note_on_c, 0, 57, 41
1, 45889, Note_on_c, 0, 72, 50
1, 45898, Control_c, 0, 64, 0
1, 45939, Control_c, 0, 64, 127
1, 46054, Note_on_c, 0, 63, 0
1, 46055, Note_on_c, 0, 67, 0
1, 46055, Note_on_c, 0, 72, 0
1, 46068, Note_on_c, 0, 75, 0
1, 46078, Note_on_c, 0, 57, 0
1, 46107, Note_on_c, 0, 79, 0
1, 46129, Note_on_c, 0, 79, 36
1, 46129, Note_on_c, 0, 72, 60
1, 46131, Note_on_c, 0, 67, 46
1, 46132, Note_on_c, 0, 56, 39
1, 46132, Note_on_c, 0, 63, 36
1, 46141, Control_c, 0, 64, 0
1, 46174, Control_c, 0, 64, 127
1, 46264, Note_on_c, 0, 63, 0
1, 46267, Note_on_c, 0, 72, 0
1, 46267, Note_on_c, 0, 56, 0
1, 46296, Note_on_c, 0, 67, 0
1, 46336, Note_on_c, 0, 79, 0
1, 46382, Note_on_c, 0, 70, 35
1, 46384, Control_c, 0, 64, 0
1, 46386, Note_on_c, 0, 67, 32
1, 46389, Note_on_c, 0, 63, 29
1, 46392, Note_on_c, 0, 55, 33
1, 46418, Control_c, 0, 64, 127
1, 46424, Note_on_c, 0, 63, 0
1, 46429, Note_on_c, 0, 55, 0
1, 46460, Note_on_c, 0, 70, 0
1, 46464, Note_on_c, 0, 67, 0
1, 46502, Note_on_c, 0, 43, 47
1, 46617, Note_on_c, 0, 51, 69
1, 46689, Note_on_c, 0, 58, 79
1, 46745, Note_on_c, 0, 58, 0
1, 46760, Note_on_c, 0, 43, 0
1, 46769, Note_on_c, 0, 63, 85
1, 46804, Note_on_c, 0, 63, 0
1, 46833, Note_on_c, 0, 51, 0
1, 46858, Note_on_c, 0, 67, 73
1, 46859, Note_on_c, 0, 62, 72
1, 46861, Note_on_c, 0, 63, 58
1, 46869, Control_c, 0, 64, 0
1, 46871, Note_on_c, 0, 48, 51
1, 46908, Control_c, 0, 64, 127
1, 46993, Note_on_c, 0, 67, 0
1, 46996, Note_on_c, 0, 62, 0
1, 47003, Note_on_c, 0, 63, 0
1, 47106, Note_on_c, 0, 48, 0
1, 47113, Note_on_c, 0, 70, 67
1, 47113, Note_on_c, 0, 63, 70
1, 47116, Note_on_c, 0, 67, 71
1, 47118, Note_on_c, 0, 60, 64
1, 47121, Note_on_c, 0, 55, 69
1, 47137, Control_c, 0, 64, 0
1, 47183, Control_c, 0, 64, 127
1, 47214, Control_c, 0, 64, 0
1, 47233, Note_on_c, 0, 55, 0
1, 47233, Note_on_c, 0, 54, 77
1, 47267, Control_c, 0, 64, 127
1, 47273, Note_on_c, 0, 67, 0
1, 47286, Note_on_c, 0, 60, 0
1, 47299, Note_on_c, 0, 63, 0
1, 47304, Note_on_c, 0, 70, 0
1, 47340, Note_on_c, 0, 54, 0
1, 47353, Note_on_c, 0, 69, 64
1, 47356, Note_on_c, 0, 66, 58
1, 47357, Note_on_c, 0, 62, 64
1, 47357, Note_on_c, 0, 57, 60
1, 47368, Control_c, 0, 64, 0
1, 47426, Note_on_c, 0, 41, 64
1, 47508, Note_on_c, 0, 50, 42
1, 47519, Note_on_c, 0, 50, 0
1, 47532, Note_on_c, 0, 57, 0
1, 47560, Note_on_c, 0, 62, 0
1, 47566, Note_on_c, 0, 57, 51
1, 47632, Note_on_c, 0, 62, 73
1, 47654, Control_c, 0, 64, 127
1, 47731, Note_on_c, 0, 41, 0
1, 47826, Note_on_c, 0, 48, 66
1, 47850, Note_on_c, 0, 62, 0
1, 47858, Note_on_c, 0, 57, 0
1, 47881, Note_on_c, 0, 48, 0
1, 47882, Note_on_c, 0, 66, 0
1, 47898, Note_on_c, 0, 47, 54
1, 47899, Note_on_c, 0, 57, 44
1, 47899, Note_on_c, 0, 62, 53
1, 47912, Control_c, 0, 64, 0
1, 47969, Control_c, 0, 64, 127
1, 48057, Note_on_c, 0, 57, 0
1, 48059, Note_on_c, 0, 62, 0
1, 48146, Note_on_c, 0, 62, 44
1, 48147, Note_on_c, 0, 57, 32
1, 48216, Note_on_c, 0, 47, 0
1, 48253, Note_on_c, 0, 57, 0
1, 48269, Note_on_c, 0, 62, 0
1, 48269, Note_on_c, 0, 47, 51
1, 48290, Note_on_c, 0, 69, 0
1, 48305, Note_on_c, 0, 47, 0
1, 48368, Note_on_c, 0, 46, 51
1, 48373, Note_on_c, 0, 60, 62
1, 48383, Note_on_c, 0, 63, 54
1, 48391, Note_on_c, 0, 56, 37
1, 48392, Note_on_c, 0, 65, 58
1, 48396, Control_c, 0, 64, 0
1, 48402, Note_on_c, 0, 70, 67
1, 48436, Control_c, 0, 64, 127
1, 48450, Note_on_c, 0, 60, 0
1, 48459, Note_on_c, 0, 65, 0
1, 48463, Note_on_c, 0, 63, 0
1, 48468, Note_on_c, 0, 70, 0
1, 48516, Note_on_c, 0, 82, 74
1, 48526, Note_on_c, 0, 46, 0
1, 48537, Note_on_c, 0, 56, 0
1, 48549, Note_on_c, 0, 82, 0
1, 48626, Note_on_c, 0, 82, 64
1, 48636, Note_on_c, 0, 79, 69
1, 48644, Note_on_c, 0, 75, 71
1, 48646, Note_on_c, 0, 68, 46
1, 48647, Note_on_c, 0, 60, 41
1, 48652, Note_on_c, 0, 63, 44
1, 48653, Control_c, 0, 64, 0
1, 48662, Note_on_c, 0, 70, 31
1, 48679, Control_c, 0, 64, 127
1, 48740, Note_on_c, 0, 75, 0
1, 48755, Note_on_c, 0, 70, 0
1, 48757, Note_on_c, 0, 68, 0
1, 48761, Note_on_c, 0, 82, 0
1, 48767, Note_on_c, 0, 79, 0
1, 48773, Note_on_c, 0, 82, 55
1, 48779, Note_on_c, 0, 75, 26
1, 48785, Note_on_c, 0, 63, 0
1, 48805, Note_on_c, 0, 60, 0
1, 48806, Note_on_c, 0, 82, 0
1, 48817, Note_on_c, 0, 75, 0
1, 48864, Note_on_c, 0, 82, 56
1, 48876, Note_on_c, 0, 79, 64
1, 48881, Note_on_c, 0, 74, 87
1, 48889, Note_on_c, 0, 62, 36
1, 48893, Control_c, 0, 64, 0
1, 48896, Note_on_c, 0, 67, 24
1, 48901, Note_on_c, 0, 70, 51
1, 48947, Control_c, 0, 64, 127
1, 48987, Note_on_c, 0, 82, 0
1, 49007, Note_on_c, 0, 70, 0
1, 49011, Note_on_c, 0, 82, 46
1, 49019, Note_on_c, 0, 74, 0
1, 49021, Note_on_c, 0, 56, 38
1, 49047, Note_on_c, 0, 79, 0
1, 49051, Note_on_c, 0, 62, 0
1, 49068, Note_on_c, 0, 67, 0
1, 49087, Note_on_c, 0, 82, 0
1, 49122, Note_on_c, 0, 82, 70
1, 49128, Note_on_c, 0, 62, 19
1, 49131, Note_on_c, 0, 77, 69
1, 49136, Note_on_c, 0, 66, 51
1, 49137, Note_on_c, 0, 80, 26
1, 49141, Note_on_c, 0, 74, 32
1, 49143, Control_c, 0, 64, 0
1, 49163, Note_on_c, 0, 70, 57
1, 49213, Control_c, 0, 64, 127
1, 49235, Note_on_c, 0, 82, 0
1, 49244, Note_on_c, 0, 80, 0
1, 49258, Note_on_c, 0, 82, 48
1, 49261, Note_on_c, 0, 62, 0
1, 49268, Note_on_c, 0, 80, 33
1, 49269, Note_on_c, 0, 66, 0
1, 49291, Note_on_c, 0, 74, 0
1, 49298, Note_on_c, 0, 77, 0
1, 49308, Note_on_c, 0, 70, 0
1, 49312, Note_on_c, 0, 56, 0
1, 49319, Note_on_c, 0, 80, 0
1, 49339, Note_on_c, 0, 82, 0
1, 49372, Note_on_c, 0, 55, 35
1, 49378, Note_on_c, 0, 82, 56
1, 49388, Note_on_c, 0, 79, 56
1, 49392, Control_c, 0, 64, 0
1, 49392, Note_on_c, 0, 65, 49
1, 49393, Note_on_c, 0, 75, 62
1, 49399, Note_on_c, 0, 70, 47
1, 49415, Note_on_c, 0, 65, 0
1, 49427, Control_c, 0, 64, 127
1, 49435, Note_on_c, 0, 55, 0
1, 49478, Note_on_c, 0, 79, 0
1, 49483, Note_on_c, 0, 82, 0
1, 49488, Note_on_c, 0, 75, 0
1, 49492, Note_on_c, 0, 70, 0
1, 49503, Note_on_c, 0, 39, 57
1, 49618, Note_on_c, 0, 63, 37
1, 49621, Note_on_c, 0, 55, 31
1, 49624, Note_on_c, 0, 39, 0
1, 49624, Note_on_c, 0, 58, 37
1, 49624, Note_on_c, 0, 46, 44
1, 49651, Note_on_c, 0, 55, 0
1, 49681, Note_on_c, 0, 58, 0
1, 49689, Note_on_c, 0, 63, 0
1, 49738, Note_on_c, 0, 55, 71
1, 49858, Note_on_c, 0, 58, 39
1, 49859, Note_on_c, 0, 67, 57
1, 49859, Note_on_c, 0, 63, 51
1, 49884, Note_on_c, 0, 55, 0
1, 49964, Note_on_c, 0, 58, 0
1, 49999, Note_on_c, 0, 63, 0
1, 50098, Note_on_c, 0, 63, 50
1, 50099, Note_on_c, 0, 58, 43
1, 50100, Note_on_c, 0, 46, 0
1, 50103, Note_on_c, 0, 55, 33
1, 50139, Note_on_c, 0, 58, 0
1, 50160, Note_on_c, 0, 55, 0
1, 50195, Note_on_c, 0, 63, 0
1, 50209, Note_on_c, 0, 67, 0
1, 50223, Note_on_c, 0, 67, 47
1, 50226, Note_on_c, 0, 60, 74
1, 50227, Note_on_c, 0, 44, 64
1, 50227, Note_on_c, 0, 55, 68
1, 50243, Control_c, 0, 64, 0
1, 50264, Control_c, 0, 64, 127
1, 50288, Note_on_c, 0, 55, 0
1, 50292, Note_on_c, 0, 60, 0
1, 50335, Note_on_c, 0, 44, 0
1, 50339, Note_on_c, 0, 62, 63
1, 50340, Note_on_c, 0, 67, 0
1, 50342, Note_on_c, 0, 58, 37
1, 50346, Note_on_c, 0, 53, 50
1, 50347, Note_on_c, 0, 55, 51
1, 50348, Note_on_c, 0, 43, 52
1, 50353, Control_c, 0, 64, 0
1, 50395, Note_on_c, 0, 55, 0
1, 50402, Control_c, 0, 64, 127
1, 50441, Note_on_c, 0, 53, 0
1, 50504, Note_on_c, 0, 58, 0
1, 50520, Note_on_c, 0, 62, 0
1, 50581, Note_on_c, 0, 55, 63
1, 50588, Note_on_c, 0, 55, 0
1, 50606, Note_on_c, 0, 43, 0
1, 50623, Control_c, 0, 64, 0
1, 50652, Note_on_c, 0, 58, 34
1, 50680, Note_on_c, 0, 58, 0
1, 50717, Control_c, 0, 64, 127
1, 50726, Note_on_c, 0, 63, 54
1, 50768, Note_on_c, 0, 63, 0
1, 50803, Control_c, 0, 64, 0
1, 50808, Note_on_c, 0, 67, 50
1, 50808, Note_on_c, 0, 62, 51
1, 50809, Note_on_c, 0, 63, 34
1, 50812, Note_on_c, 0, 36, 54
1, 50834, Control_c, 0, 64, 127
1, 50843, Note_on_c, 0, 36, 0
1, 50888, Note_on_c, 0, 67, 0
1, 50890, Note_on_c, 0, 62, 0
1, 50902, Note_on_c, 0, 63, 0
1, 51051, Note_on_c, 0, 70, 53
1, 51052, Note_on_c, 0, 63, 59
1, 51053, Note_on_c, 0, 67, 61
1, 51057, Note_on_c, 0, 60, 54
1, 51073, Control_c, 0, 64, 0
1, 51146, Control_c, 0, 64, 127
1, 51195, Note_on_c, 0, 60, 0
1, 51206, Note_on_c, 0, 67, 0
1, 51208, Note_on_c, 0, 63, 0
1, 51218, Note_on_c, 0, 70, 0
1, 51222, Note_on_c, 0, 41, 57
1, 51232, Note_on_c, 0, 41, 0
1, 51298, Note_on_c, 0, 72, 64
1, 51298, Note_on_c, 0, 67, 71
1, 51299, Note_on_c, 0, 62, 63
1, 51302, Note_on_c, 0, 57, 48
1, 51312, Control_c, 0, 64, 0
1, 51352, Control_c, 0, 64, 127
1, 51479, Note_on_c, 0, 62, 0
1, 51486, Note_on_c, 0, 67, 0
1, 51498, Note_on_c, 0, 72, 0
1, 51527, Note_on_c, 0, 57, 0
1, 51543, Note_on_c, 0, 72, 52
1, 51546, Note_on_c, 0, 66, 56
1, 51547, Note_on_c, 0, 62, 51
1, 51685, Note_on_c, 0, 62, 0
1, 51703, Note_on_c, 0, 66, 0
1, 51726, Note_on_c, 0, 72, 0
1, 51791, Note_on_c, 0, 63, 48
1, 51793, Note_on_c, 0, 60, 44
1, 51793, Note_on_c, 0, 66, 49
1, 51799, Note_on_c, 0, 41, 29
1, 51803, Note_on_c, 0, 51, 23
1, 51809, Control_c, 0, 64, 0
1, 51857, Control_c, 0, 64, 127
1, 51914, Note_on_c, 0, 60, 0
1, 51961, Note_on_c, 0, 63, 0
1, 51973, Note_on_c, 0, 51, 0
1, 52016, Note_on_c, 0, 66, 0
1, 52041, Note_on_c, 0, 57, 38
1, 52042, Note_on_c, 0, 62, 47
1, 52046, Note_on_c, 0, 51, 26
1, 52110, Note_on_c, 0, 41, 0
1, 52113, Note_on_c, 0, 57, 0
1, 52139, Note_on_c, 0, 62, 0
1, 52141, Note_on_c, 0, 51, 0
1, 52232, Note_on_c, 0, 74, 76
1, 52274, Note_on_c, 0, 74, 0
1, 52303, Note_on_c, 0, 74, 58
1, 52306, Note_on_c, 0, 68, 55
1, 52307, Note_on_c, 0, 62, 53
1, 52311, Note_on_c, 0, 56, 32
1, 52312, Note_on_c, 0, 46, 36
1, 52322, Control_c, 0, 64, 0
1, 52361, Control_c, 0, 64, 127
1, 52426, Note_on_c, 0, 56, 0
1, 52459, Note_on_c, 0, 62, 0
1, 52474, Note_on_c, 0, 68, 0
1, 52551, Note_on_c, 0, 74, 0
1, 52557, Note_on_c, 0, 68, 50
1, 52561, Note_on_c, 0, 62, 38
1, 52564, Note_on_c, 0, 56, 31
1, 52583, Note_on_c, 0, 62, 0
1, 52594, Note_on_c, 0, 68, 0
1, 52635, Note_on_c, 0, 46, 0
1, 52647, Note_on_c, 0, 56, 0
1, 52692, Note_on_c, 0, 77, 89
1, 52737, Note_on_c, 0, 77, 0
1, 52811, Note_on_c, 0, 74, 66
1, 52813, Note_on_c, 0, 67, 61
1, 52817, Note_on_c, 0, 73, 57
1, 52817, Note_on_c, 0, 56, 45
1, 52829, Control_c, 0, 64, 0
1, 52837, Note_on_c, 0, 73, 0
1, 52876, Control_c, 0, 64, 127
1, 52934, Note_on_c, 0, 67, 0
1, 52947, Note_on_c, 0, 59, 60
1, 52948, Note_on_c, 0, 74, 0
1, 53058, Note_on_c, 0, 62, 44
1, 53062, Note_on_c, 0, 71, 51
1, 53062, Note_on_c, 0, 68, 48
1, 53063, Note_on_c, 0, 65, 60
1, 53156, Note_on_c, 0, 62, 0
1, 53185, Note_on_c, 0, 71, 0
1, 53189, Note_on_c, 0, 74, 54
1, 53193, Note_on_c, 0, 65, 0
1, 53195, Note_on_c, 0, 59, 0
1, 53224, Note_on_c, 0, 74, 0
1, 53225, Note_on_c, 0, 56, 0
1, 53248, Note_on_c, 0, 68, 0
1, 53306, Note_on_c, 0, 75, 50
1, 53309, Note_on_c, 0, 67, 50
1, 53312, Note_on_c, 0, 39, 37
1, 53313, Note_on_c, 0, 63, 27
1, 53328, Control_c, 0, 64, 0
1, 53371, Control_c, 0, 64, 127
1, 53425, Note_on_c, 0, 39, 0
1, 53427, Note_on_c, 0, 43, 44
1, 53438, Note_on_c, 0, 43, 0
1, 53517, Note_on_c, 0, 67, 0
1, 53519, Note_on_c, 0, 63, 0
1, 53541, Note_on_c, 0, 55, 62
1, 53651, Note_on_c, 0, 55, 0
1, 53651, Note_on_c, 0, 58, 57
1, 53669, Note_on_c, 0, 75, 0
1, 53763, Note_on_c, 0, 79, 75
1, 53769, Note_on_c, 0, 63, 47
1, 53771, Note_on_c, 0, 75, 55
1, 53772, Note_on_c, 0, 70, 60
1, 53773, Note_on_c, 0, 58, 0
1, 53796, Note_on_c, 0, 63, 0
1, 53798, Note_on_c, 0, 70, 0
1, 53804, Note_on_c, 0, 75, 0
1, 53805, Note_on_c, 0, 79, 0
1, 53878, Note_on_c, 0, 82, 76
1, 53883, Note_on_c, 0, 67, 57
1, 53883, Note_on_c, 0, 75, 78
1, 53916, Note_on_c, 0, 82, 0
1, 53921, Note_on_c, 0, 75, 0
1, 53955, Note_on_c, 0, 67, 0
1, 53994, Note_on_c, 0, 79, 71
1, 53998, Note_on_c, 0, 75, 55
1, 53999, Note_on_c, 0, 70, 59
1, 54001, Note_on_c, 0, 63, 36
1, 54015, Note_on_c, 0, 79, 0
1, 54020, Note_on_c, 0, 75, 0
1, 54029, Note_on_c, 0, 70, 0
1, 54086, Note_on_c, 0, 63, 0
1, 54106, Note_on_c, 0, 75, 43
1, 54107, Note_on_c, 0, 58, 39
1, 54107, Note_on_c, 0, 70, 49
1, 54114, Note_on_c, 0, 75, 0
1, 54115, Note_on_c, 0, 70, 0
1, 54120, Note_on_c, 0, 58, 0
1, 54221, Note_on_c, 0, 70, 51
1, 54222, Control_c, 0, 64, 0
1, 54223, Note_on_c, 0, 63, 46
1, 54224, Note_on_c, 0, 58, 33
1, 54224, Note_on_c, 0, 51, 30
1, 54226, Note_on_c, 0, 67, 50
1, 54231, Note_on_c, 0, 55, 36
1, 54252, Control_c, 0, 64, 127
1, 54259, Note_on_c, 0, 55, 0
1, 54266, Note_on_c, 0, 67, 0
1, 54271, Note_on_c, 0, 70, 0
1, 54272, Note_on_c, 0, 51, 0
1, 54277, Note_on_c, 0, 58, 0
1, 54278, Note_on_c, 0, 63, 0
1, 54331, Note_on_c, 0, 39, 52
1, 54337, Note_on_c, 0, 63, 71
1, 54339, Note_on_c, 0, 58, 63
1, 54341, Note_on_c, 0, 55, 68
1, 54386, Note_on_c, 0, 55, 0
1, 54396, Note_on_c, 0, 58, 0
1, 54408, Note_on_c, 0, 63, 0
1, 54459, Note_on_c, 0, 67, 84
1, 54461, Note_on_c, 0, 58, 77
1, 54462, Note_on_c, 0, 63, 75
1, 54463, Note_on_c, 0, 46, 57
1, 54473, Control_c, 0, 64, 0
1, 54502, Control_c, 0, 64, 127
1, 54531, Note_on_c, 0, 67, 0
1, 54567, Note_on_c, 0, 67, 55
1, 54578, Note_on_c, 0, 67, 0
1, 54582, Note_on_c, 0, 58, 0
1, 54583, Note_on_c, 0, 63, 0
1, 54601, Note_on_c, 0, 39, 0
1, 54609, Note_on_c, 0, 46, 0
1, 54698, Note_on_c, 0, 70, 55
1, 54699, Note_on_c, 0, 51, 33
1, 54701, Note_on_c, 0, 58, 45
1, 54701, Note_on_c, 0, 67, 57
1, 54701, Note_on_c, 0, 63, 50
1, 54713, Control_c, 0, 64, 0
1, 54739, Control_c, 0, 64, 127
1, 54821, Note_on_c, 0, 67, 0
1, 54822, Note_on_c, 0, 58, 0
1, 54840, Note_on_c, 0, 51, 0
1, 54841, Note_on_c, 0, 63, 0
1, 54851, Note_on_c, 0, 70, 0
1, 54943, Note_on_c, 0, 75, 61
1, 54943, Note_on_c, 0, 71, 68
1, 54952, Note_on_c, 0, 43, 50
1, 54956, Note_on_c, 0, 65, 26
1, 54957, Control_c, 0, 64, 0
1, 54963, Note_on_c, 0, 65, 0
1, 54992, Control_c, 0, 64, 127
1, 55070, Note_on_c, 0, 43, 0
1, 55088, Note_on_c, 0, 71, 0
1, 55093, Note_on_c, 0, 75, 0
1, 55178, Note_on_c, 0, 77, 58
1, 55184, Note_on_c, 0, 74, 57
1, 55186, Note_on_c, 0, 70, 46
1, 55189, Note_on_c, 0, 44, 42
1, 55192, Control_c, 0, 64, 0
1, 55193, Note_on_c, 0, 65, 37
1, 55231, Control_c, 0, 64, 127
1, 55276, Note_on_c, 0, 44, 0
1, 55388, Note_on_c, 0, 65, 0
1, 55397, Note_on_c, 0, 70, 0
1, 55425, Note_on_c, 0, 44, 50
1, 55427, Note_on_c, 0, 54, 50
1, 55428, Note_on_c, 0, 65, 40
1, 55429, Note_on_c, 0, 70, 49
1, 55429, Note_on_c, 0, 62, 32
1, 55545, Note_on_c, 0, 44, 0
1, 55547, Note_on_c, 0, 54, 0
1, 55596, Note_on_c, 0, 65, 0
1, 55617, Note_on_c, 0, 74, 0
1, 55621, Note_on_c, 0, 70, 0
1, 55628, Note_on_c, 0, 77, 0
1, 55663, Note_on_c, 0, 75, 51
1, 55667, Note_on_c, 0, 70, 44
1, 55669, Note_on_c, 0, 63, 33
1, 55679, Note_on_c, 0, 62, 0
1, 55689, Note_on_c, 0, 63, 0
1, 55795, Note_on_c, 0, 70, 0
1, 55897, Note_on_c, 0, 44, 39
1, 55939, Note_on_c, 0, 70, 1
1, 55957, Note_on_c, 0, 44, 0
1, 55974, Note_on_c, 0, 75, 0
1, 55999, Note_on_c, 0, 70, 0
1, 56146, Note_on_c, 0, 74, 80
1, 56153, Note_on_c, 0, 70, 61
1, 56156, Note_on_c, 0, 67, 65
1, 56158, Note_on_c, 0, 63, 45
1, 56159, Note_on_c, 0, 41, 50
1, 56167, Control_c, 0, 64, 0
1, 56189, Note_on_c, 0, 41, 0
1, 56203, Control_c, 0, 64, 127
1, 56274, Note_on_c, 0, 62, 55
1, 56291, Note_on_c, 0, 62, 0
1, 56299, Note_on_c, 0, 67, 0
1, 56307, Note_on_c, 0, 74, 0
1, 56315, Note_on_c, 0, 63, 0
1, 56320, Note_on_c, 0, 70, 0
1, 56406, Note_on_c, 0, 72, 71
1, 56407, Note_on_c, 0, 63, 61
1, 56407, Note_on_c, 0, 68, 64
1, 56411, Note_on_c, 0, 58, 45
1, 56427, Control_c, 0, 64, 0
1, 56458, Control_c, 0, 64, 127
1, 56529, Note_on_c, 0, 58, 0
1, 56529, Note_on_c, 0, 56, 38
1, 56538, Note_on_c, 0, 72, 0
1, 56544, Note_on_c, 0, 56, 0
1, 56557, Note_on_c, 0, 63, 0
1, 56562, Note_on_c, 0, 68, 0
1, 56651, Note_on_c, 0, 70, 59
1, 56653, Note_on_c, 0, 63, 51
1, 56656, Note_on_c, 0, 67, 58
1, 56657, Note_on_c, 0, 60, 54
1, 56662, Note_on_c, 0, 56, 28
1, 56674, Control_c, 0, 64, 0
1, 56719, Control_c, 0, 64, 127
1, 56822, Note_on_c, 0, 67, 0
1, 56832, Note_on_c, 0, 60, 0
1, 56838, Note_on_c, 0, 63, 0
1, 56857, Note_on_c, 0, 70, 0
1, 56897, Note_on_c, 0, 68, 55
1, 56902, Note_on_c, 0, 62, 45
1, 56903, Note_on_c, 0, 59, 38
1, 56905, Note_on_c, 0, 56, 0
1, 57029, Note_on_c, 0, 68, 0
1, 57050, Note_on_c, 0, 59, 0
1, 57075, Note_on_c, 0, 62, 0
1, 57158, Note_on_c, 0, 67, 57
1, 57162, Note_on_c, 0, 63, 48
1, 57164, Note_on_c, 0, 58, 31
1, 57166, Note_on_c, 0, 51, 35
1, 57182, Control_c, 0, 64, 0
1, 57223, Control_c, 0, 64, 127
1, 57292, Note_on_c, 0, 51, 0
1, 57334, Note_on_c, 0, 58, 0
1, 57339, Note_on_c, 0, 63, 0
1, 57375, Note_on_c, 0, 67, 0
1, 57414, Note_on_c, 0, 67, 56
1, 57417, Note_on_c, 0, 58, 57
1, 57417, Note_on_c, 0, 62, 65
1, 57432, Control_c, 0, 64, 0
1, 57476, Control_c, 0, 64, 127
1, 57573, Note_on_c, 0, 62, 0
1, 57573, Note_on_c, 0, 58, 0
1, 57657, Note_on_c, 0, 67, 0
1, 57686, Note_on_c, 0, 67, 34
1, 57692, Note_on_c, 0, 58, 38
1, 57693, Note_on_c, 0, 61, 53
1, 57697, Note_on_c, 0, 55, 55
1, 57706, Note_on_c, 0, 52, 24
1, 57718, Control_c, 0, 64, 0
1, 57778, Control_c, 0, 64, 127
1, 57888, Note_on_c, 0, 55, 0
1, 57904, Note_on_c, 0, 61, 0
1, 57904, Note_on_c, 0, 58, 0
1, 57926, Note_on_c, 0, 67, 0
1, 57946, Note_on_c, 0, 52, 0
1, 57968, Note_on_c, 0, 58, 36
1, 57969, Note_on_c, 0, 61, 39
1, 57971, Note_on_c, 0, 55, 50
1, 57972, Note_on_c, 0, 49, 28
1, 58006, Note_on_c, 0, 55, 0
1, 58009, Note_on_c, 0, 49, 0
1, 58020, Note_on_c, 0, 61, 0
1, 58024, Note_on_c, 0, 58, 0
1, 58113, Note_on_c, 0, 67, 64
1, 58116, Note_on_c, 0, 58, 47
1, 58118, Note_on_c, 0, 64, 54
1, 58119, Note_on_c, 0, 61, 46
1, 58119, Note_on_c, 0, 52, 47
1, 58166, Note_on_c, 0, 52, 0
1, 58180, Note_on_c, 0, 67, 0
1, 58184, Note_on_c, 0, 58, 0
1, 58186, Note_on_c, 0, 64, 0
1, 58202, Note_on_c, 0, 61, 0
1, 58326, Note_on_c, 0, 70, 77
1, 58333, Note_on_c, 0, 67, 64
1, 58337, Note_on_c, 0, 63, 61
1, 58338, Note_on_c, 0, 41, 64
1, 58346, Control_c, 0, 64, 0
1, 58347, Note_on_c, 0, 60, 42
1, 58394, Control_c, 0, 64, 127
1, 58443, Note_on_c, 0, 41, 0
1, 58449, Note_on_c, 0, 53, 63
1, 58531, Note_on_c, 0, 67, 0
1, 58533, Note_on_c, 0, 63, 0
1, 58549, Note_on_c, 0, 60, 0
1, 58594, Note_on_c, 0, 53, 0
1, 58598, Note_on_c, 0, 60, 42
1, 58601, Note_on_c, 0, 55, 57
1, 58602, Note_on_c, 0, 67, 43
1, 58602, Note_on_c, 0, 63, 38
1, 58689, Note_on_c, 0, 67, 0
1, 58699, Note_on_c, 0, 60, 0
1, 58706, Note_on_c, 0, 70, 0
1, 58725, Note_on_c, 0, 63, 0
1, 58737, Note_on_c, 0, 55, 0
1, 58742, Note_on_c, 0, 68, 56
1, 58752, Note_on_c, 0, 63, 25
1, 58789, Note_on_c, 0, 63, 0
1, 58789, Note_on_c, 0, 68, 0
1, 58893, Note_on_c, 0, 67, 54
1, 58899, Note_on_c, 0, 56, 27
1, 58899, Note_on_c, 0, 59, 48
1, 58901, Note_on_c, 0, 62, 49
1, 58908, Note_on_c, 0, 46, 31
1, 58922, Control_c, 0, 64, 0
1, 58974, Control_c, 0, 64, 127
1, 58985, Note_on_c, 0, 56, 0
1, 59052, Note_on_c, 0, 55, 43
1, 59110, Note_on_c, 0, 59, 0
1, 59126, Note_on_c, 0, 62, 0
1, 59137, Note_on_c, 0, 55, 0
1, 59231, Note_on_c, 0, 56, 35
1, 59263, Control_c, 0, 64, 0
1, 59289, Control_c, 0, 64, 127
1, 59385, Note_on_c, 0, 67, 0
1, 59407, Note_on_c, 0, 65, 46
1, 59407, Note_on_c, 0, 62, 24
1, 59412, Note_on_c, 0, 59, 28
1, 59456, Note_on_c, 0, 56, 0
1, 59641, Note_on_c, 0, 46, 0
1, 59752, Note_on_c, 0, 59, 0
1, 59810, Note_on_c, 0, 65, 0
1, 59827, Note_on_c, 0, 62, 0
1, 59946, Note_on_c, 0, 63, 55
1, 59952, Note_on_c, 0, 58, 43
1, 59953, Note_on_c, 0, 39, 36
1, 59953, Note_on_c, 0, 53, 36
1, 59956, Control_c, 0, 64, 0
1, 59984, Note_on_c, 0, 53, 0
1, 59987, Control_c, 0, 64, 127
1, 60017, Note_on_c, 0, 58, 0
1, 60026, Note_on_c, 0, 63, 0
1, 60036, Note_on_c, 0, 46, 49
1, 60044, Note_on_c, 0, 39, 0
1, 60103, Note_on_c, 0, 46, 0
1, 60118, Note_on_c, 0, 55, 56
1, 60119, Note_on_c, 0, 75, 53
1, 60122, Note_on_c, 0, 70, 44
1, 60123, Note_on_c, 0, 65, 44
1, 60149, Note_on_c, 0, 65, 0
1, 60169, Note_on_c, 0, 70, 0
1, 60182, Note_on_c, 0, 75, 0
1, 60189, Note_on_c, 0, 55, 0
1, 60202, Note_on_c, 0, 58, 36
1, 60283, Note_on_c, 0, 63, 40
1, 60284, Note_on_c, 0, 87, 55
1, 60288, Note_on_c, 0, 82, 37
1, 60296, Note_on_c, 0, 82, 0
1, 60305, Note_on_c, 0, 87, 0
1, 60368, Note_on_c, 0, 63, 0
1, 60373, Note_on_c, 0, 67, 53
1, 60433, Note_on_c, 0, 67, 0
1, 60461, Note_on_c, 0, 99, 50
1, 60463, Note_on_c, 0, 89, 54
1, 60464, Note_on_c, 0, 94, 42
1, 60464, Note_on_c, 0, 63, 49
1, 60469, Note_on_c, 0, 99, 0
1, 60471, Note_on_c, 0, 94, 0
1, 60473, Note_on_c, 0, 58, 0
1, 60474, Note_on_c, 0, 89, 0
1, 60556, Note_on_c, 0, 58, 50
1, 60560, Note_on_c, 0, 63, 0
1, 60583, Note_on_c, 0, 58, 0
1, 60656, Note_on_c, 0, 73, 51
1, 60657, Note_on_c, 0, 63, 40
1, 60661, Note_on_c, 0, 68, 57
1, 60667, Note_on_c, 0, 40, 47
1, 60678, Control_c, 0, 64, 0
1, 60728, Control_c, 0, 64, 127
1, 60753, Note_on_c, 0, 47, 36
1, 60754, Note_on_c, 0, 73, 0
1, 60758, Note_on_c, 0, 63, 0
1, 60758, Note_on_c, 0, 68, 0
1, 60839, Note_on_c, 0, 40, 0
1, 60844, Note_on_c, 0, 47, 0
1, 60848, Note_on_c, 0, 71, 51
1, 60849, Note_on_c, 0, 66, 46
1, 60849, Note_on_c, 0, 63, 34
1, 60854, Note_on_c, 0, 52, 54
1, 60924, Note_on_c, 0, 63, 0
1, 60928, Note_on_c, 0, 71, 0
1, 60932, Note_on_c, 0, 52, 0
1, 60934, Note_on_c, 0, 66, 0
1, 60949, Note_on_c, 0, 56, 40
1, 61057, Note_on_c, 0, 59, 35
1, 61162, Note_on_c, 0, 59, 0
1, 61166, Note_on_c, 0, 75, 48
1, 61167, Note_on_c, 0, 83, 47
1, 61168, Note_on_c, 0, 64, 36
1, 61187, Note_on_c, 0, 75, 0
1, 61195, Note_on_c, 0, 83, 0
1, 61279, Note_on_c, 0, 95, 53
1, 61283, Note_on_c, 0, 83, 38
1, 61291, Note_on_c, 0, 59, 19
1, 61294, Note_on_c, 0, 83, 0
1, 61305, Note_on_c, 0, 95, 0
1, 61347, Note_on_c, 0, 56, 0
1, 61402, Note_on_c, 0, 99, 42
1, 61402, Note_on_c, 0, 87, 39
1, 61402, Note_on_c, 0, 56, 35
1, 61414, Note_on_c, 0, 64, 0
1, 61418, Note_on_c, 0, 59, 0
1, 61423, Note_on_c, 0, 87, 0
1, 61430, Note_on_c, 0, 99, 0
1, 61439, Note_on_c, 0, 56, 0
1, 61608, Note_on_c, 0, 103, 49
1, 61613, Note_on_c, 0, 91, 34
1, 61613, Note_on_c, 0, 46, 33
1, 61613, Note_on_c, 0, 89, 40
1, 61614, Note_on_c, 0, 39, 35
1, 61614, Note_on_c, 0, 96, 55
1, 61628, Control_c, 0, 64, 0
1, 61659, Control_c, 0, 64, 127
1, 61716, Note_on_c, 0, 103, 0
1, 61725, Note_on_c, 0, 96, 0
1, 61726, Note_on_c, 0, 39, 0
1, 61728, Note_on_c, 0, 91, 0
1, 61733, Note_on_c, 0, 89, 0
1, 61779, Note_on_c, 0, 46, 0
1, 61791, Note_on_c, 0, 55, 19
1, 61886, Note_on_c, 0, 55, 0
1, 61889, Note_on_c, 0, 65, 47
1, 61892, Note_on_c, 0, 67, 42
1, 61892, Note_on_c, 0, 58, 27
1, 61992, Note_on_c, 0, 65, 0
1, 61999, Note_on_c, 0, 67, 0
1, 62004, Note_on_c, 0, 74, 47
1, 62019, Note_on_c, 0, 74, 0
1, 62127, Note_on_c, 0, 77, 39
1, 62128, Note_on_c, 0, 79, 35
1, 62236, Note_on_c, 0, 79, 0
1, 62238, Note_on_c, 0, 77, 0
1, 62241, Note_on_c, 0, 86, 40
1, 62261, Note_on_c, 0, 86, 0
1, 62361, Note_on_c, 0, 89, 31
1, 62361, Note_on_c, 0, 91, 39
1, 62463, Note_on_c, 0, 89, 0
1, 62479, Note_on_c, 0, 91, 0
1, 62486, Note_on_c, 0, 98, 40
1, 62499, Note_on_c, 0, 58, 0
1, 62507, Note_on_c, 0, 98, 0
1, 62752, Note_on_c, 0, 106, 36
1, 62753, Note_on_c, 0, 27, 30
1, 63447, Control_c, 0, 64, 0
1, 63737, Note_on_c, 0, 106, 0
1, 63826, Note_on_c, 0, 27, 0
1, 63826, End_track
0, 0, End_of_file
